<svg width="50" height="50" viewBox="0 0 50 50" fill="none" xmlns="http://www.w3.org/2000/svg">
<path d="M37.2992 26.3999V23.5999C37.2992 23.1999 36.8992 22.7999 36.4992 22.7999H35.3992C34.9992 22.7999 34.6992 22.5999 34.5992 22.1999C34.3992 21.4999 34.0992 20.7999 33.7992 20.1999C33.5992 19.8999 33.6992 19.4999 33.8992 19.1999L34.5992 18.4999C34.8992 18.1999 34.8992 17.6999 34.5992 17.3999L32.5992 15.3999C32.2992 15.0999 31.7992 15.0999 31.4992 15.3999L30.7992 15.9999C30.4992 16.2999 30.1992 16.2999 29.7992 16.0999C29.1992 15.6999 28.4992 15.4999 27.7992 15.2999C27.4992 15.1999 27.1992 14.8999 27.1992 14.4999V13.3999C27.1992 12.9999 26.7992 12.5999 26.3992 12.5999H23.5992C23.1992 12.5999 22.7992 12.9999 22.7992 13.3999V14.4999C22.7992 14.8999 22.5992 15.1999 22.1992 15.2999C21.4992 15.4999 20.7992 15.7999 20.1992 16.0999C19.8992 16.2999 19.4992 16.1999 19.1992 15.9999L18.4992 15.2999C18.1992 14.9999 17.6992 14.9999 17.3992 15.2999L15.3992 17.2999C15.0992 17.5999 15.0992 18.0999 15.3992 18.3999L16.0992 19.0999C16.3992 19.3999 16.3992 19.6999 16.1992 20.0999C15.7992 20.6999 15.5992 21.3999 15.3992 22.0999C15.2992 22.3999 14.9992 22.6999 14.5992 22.6999H13.4992C13.0992 22.6999 12.6992 23.0999 12.6992 23.4999V26.2999C12.6992 26.6999 13.0992 27.0999 13.4992 27.0999H14.5992C14.9992 27.0999 15.2992 27.2999 15.3992 27.6999C15.5992 28.3999 15.8992 29.0999 16.1992 29.6999C16.3992 29.9999 16.2992 30.3999 16.0992 30.6999L15.3992 31.3999C15.0992 31.6999 15.0992 32.1999 15.3992 32.4999L17.3992 34.4999C17.6992 34.7999 18.1992 34.7999 18.4992 34.4999L19.1992 33.7999C19.4992 33.4999 19.7992 33.4999 20.1992 33.6999C20.7992 34.0999 21.4992 34.2999 22.1992 34.4999C22.4992 34.5999 22.7992 34.8999 22.7992 35.2999V36.3999C22.7992 36.7999 23.1992 37.1999 23.5992 37.1999H26.3992C26.7992 37.1999 27.1992 36.7999 27.1992 36.3999V35.2999C27.1992 34.8999 27.3992 34.5999 27.7992 34.4999C28.4992 34.2999 29.1992 33.9999 29.7992 33.6999C30.0992 33.4999 30.4992 33.5999 30.7992 33.7999L31.4992 34.4999C31.7992 34.7999 32.2992 34.7999 32.5992 34.4999L34.5992 32.4999C34.8992 32.1999 34.8992 31.6999 34.5992 31.3999L33.9992 30.7999C33.6992 30.4999 33.6992 30.1999 33.8992 29.7999C34.2992 29.1999 34.4992 28.4999 34.6992 27.7999C34.7992 27.4999 35.0992 27.1999 35.4992 27.1999H36.5992C36.8992 27.1999 37.2992 26.8999 37.2992 26.3999ZM24.9992 29.4999C22.4992 29.4999 20.4992 27.4999 20.4992 24.9999C20.4992 22.4999 22.4992 20.4999 24.9992 20.4999C27.4992 20.4999 29.4992 22.4999 29.4992 24.9999C29.4992 27.4999 27.4992 29.4999 24.9992 29.4999Z" fill="#839299"/>
<path d="M49.6 42.4999L45.9 38.7999C45.4 38.2999 44.5 38.2999 43.9 38.7999C43.3 39.2999 43.4 40.1999 43.9 40.7999L45.3 42.1999H35.1C40.9 38.6999 44.8 32.3999 44.8 25.0999C44.8 14.5999 36.7 5.99992 26.4 5.29992L27.8 3.89992C28.3 3.39992 28.3 2.49992 27.8 1.89992C27.3 1.29992 26.4 1.39992 25.8 1.89992L22.1 5.59992C21.6 6.09992 21.6 6.99992 22.1 7.59992L25.8 11.2999C26.1 11.5999 26.4 11.6999 26.8 11.6999C27.2 11.6999 27.5 11.5999 27.8 11.2999C28.3 10.7999 28.3 9.89992 27.8 9.29992L26.6 7.99992C35.3 8.79992 42.1 16.0999 42.1 24.9999C42.1 34.3999 34.4 42.0999 25 42.0999C15.6 42.0999 7.9 34.3999 7.9 24.9999C7.9 21.6999 8.9 18.4999 10.7 15.6999C12.5 12.9999 14.9 10.8999 17.8 9.49992C18.5 9.19992 18.8 8.29992 18.5 7.69992C18.2 7.09992 17.3 6.69992 16.7 6.99992C13.3 8.59992 10.4 11.0999 8.4 14.1999C6.3 17.3999 5.2 21.1999 5.2 24.9999C5.2 32.2999 9.1 38.5999 14.9 42.0999H1.4C0.6 42.0999 0 42.6999 0 43.4999C0 44.2999 0.6 44.8999 1.4 44.8999H45.3L43.9 46.2999C43.4 46.7999 43.4 47.6999 43.9 48.2999C44.2 48.5999 44.5 48.6999 44.9 48.6999C45.3 48.6999 45.6 48.5999 45.9 48.2999L49.6 44.5999C50.1 43.8999 50.1 42.9999 49.6 42.4999Z" fill="#0068C0"/>
</svg>
