<svg width="384" height="292" viewBox="0 0 384 292" fill="none" xmlns="http://www.w3.org/2000/svg">
<g opacity="0.1">
<path opacity="0.5" d="M382.813 333L37.3988 210.955C6.49016 200.015 -8.16134 169.817 4.61691 143.494C17.4621 117.171 52.92 104.693 83.8287 115.575L317.182 198.021L413.32 0.880117C426.165 -25.4433 461.623 -37.9213 492.532 -27.0387C523.44 -16.0991 538.092 14.0988 525.314 40.4223L382.813 333Z" fill="white"/>
<path opacity="0.7" d="M318.294 197.512L107.551 64.5482C88.6976 52.6265 84.739 29.9811 98.7617 13.9525C112.784 -2.07617 139.421 -5.44161 158.274 6.48004L300.648 96.3203L405.516 -23.7519C419.539 -39.7805 446.175 -43.146 465.028 -31.2243C483.882 -19.3027 487.84 3.34277 473.818 19.3714L318.294 197.512Z" fill="#0054A6"/>
<path opacity="0.7" d="M299.945 97.1273L188.737 -16.2586C178.749 -26.4262 180.358 -41.5062 192.29 -50.0173C204.222 -58.5284 221.918 -57.1575 231.906 -46.9899L307.051 29.6098L396.272 -33.9091C408.204 -42.4202 425.901 -41.0493 435.889 -30.8817C445.876 -20.7141 444.268 -5.63402 432.336 2.87706L299.945 97.1273Z" fill="#0054A6"/>
<path opacity="0.7" d="M307.491 29.9988L263.854 -59.1845C259.948 -67.1677 264.393 -76.3484 273.821 -79.6557C283.248 -82.963 294.09 -79.1995 297.996 -71.2163L327.492 -10.9434L398.066 -35.6912C407.493 -38.9985 418.335 -35.235 422.241 -27.2519C426.147 -19.2687 421.702 -10.0881 412.275 -6.78076L307.491 29.9988Z" fill="#0054A6"/>
</g>
</svg>
