<svg width="13" height="16" viewBox="0 0 13 16" fill="none" xmlns="http://www.w3.org/2000/svg">
<path fill-rule="evenodd" clip-rule="evenodd" d="M0 8.00012C0 7.70557 0.242515 7.4668 0.541667 7.4668H12.4583C12.7575 7.4668 13 7.70557 13 8.00012C13 8.29468 12.7575 8.53345 12.4583 8.53345H0.541667C0.242515 8.53345 0 8.29468 0 8.00012Z" fill="#0054A6"/>
<path fill-rule="evenodd" clip-rule="evenodd" d="M6.49967 0C6.79884 0 7.04134 0.23878 7.04134 0.533325V5.86657C7.04134 6.16113 6.79884 6.3999 6.49967 6.3999C6.20051 6.3999 5.95801 6.16113 5.95801 5.86657V0.533325C5.95801 0.23878 6.20051 0 6.49967 0Z" fill="#0054A6"/>
<path fill-rule="evenodd" clip-rule="evenodd" d="M3.95063 3.3564C4.16215 3.14813 4.50514 3.14813 4.71666 3.3564L6.50031 5.11259L8.28397 3.3564C8.49549 3.14813 8.83847 3.14813 9.04999 3.3564C9.26151 3.56468 9.26151 3.90236 9.04999 4.11064L6.88332 6.24393C6.6718 6.4522 6.32882 6.4522 6.1173 6.24393L3.95063 4.11064C3.73911 3.90236 3.73911 3.56468 3.95063 3.3564Z" fill="#0054A6"/>
<path fill-rule="evenodd" clip-rule="evenodd" d="M6.49967 9.60059C6.79884 9.60059 7.04134 9.83936 7.04134 10.1339V15.4672C7.04134 15.7617 6.79884 16.0005 6.49967 16.0005C6.20051 16.0005 5.95801 15.7617 5.95801 15.4672V10.1339C5.95801 9.83936 6.20051 9.60059 6.49967 9.60059Z" fill="#0054A6"/>
<path fill-rule="evenodd" clip-rule="evenodd" d="M6.1173 9.75678C6.32882 9.54852 6.6718 9.54852 6.88332 9.75678L9.04999 11.8901C9.26151 12.0983 9.26151 12.436 9.04999 12.6443C8.83847 12.8526 8.49549 12.8526 8.28397 12.6443L6.50031 10.8881L4.71666 12.6443C4.50514 12.8526 4.16215 12.8526 3.95063 12.6443C3.73911 12.436 3.73911 12.0983 3.95063 11.8901L6.1173 9.75678Z" fill="#0054A6"/>
</svg>
