<svg width="13" height="16" viewBox="0 0 13 16" fill="none" xmlns="http://www.w3.org/2000/svg">
<path d="M4.05167 3.74982C3.99642 3.70217 3.95062 3.64347 3.9169 3.57708C3.88317 3.51069 3.86219 3.43791 3.85514 3.36293C3.8481 3.28794 3.85513 3.21223 3.87584 3.14012C3.89655 3.06802 3.93053 3.00095 3.97583 2.94275L6.11 0.201024C6.21157 0.0848526 6.3508 0.0133335 6.5 0.0006887C6.58276 -0.00360513 6.66535 0.0122225 6.74142 0.0469536C6.81748 0.0816848 6.88499 0.134394 6.93875 0.201024L9.07292 2.94275C9.15382 3.06066 9.18914 3.20672 9.17169 3.35119C9.15424 3.49566 9.08534 3.62766 8.97901 3.72032C8.87268 3.81298 8.73692 3.85933 8.59939 3.84992C8.46185 3.84051 8.33289 3.77606 8.23875 3.66968L7.07417 2.16431V5.59862C7.07417 5.75043 7.0171 5.89602 6.91552 6.00336C6.81393 6.11071 6.67616 6.17101 6.5325 6.17101C6.38884 6.17101 6.25107 6.11071 6.14948 6.00336C6.0479 5.89602 5.99083 5.75043 5.99083 5.59862V2.16431L4.81 3.66968C4.71907 3.7859 4.58842 3.85951 4.44643 3.87452C4.30443 3.88952 4.16257 3.84471 4.05167 3.74982ZM12.4583 7.3673H0.541667C0.398008 7.3673 0.260233 7.4276 0.158651 7.53495C0.0570684 7.64229 0 7.78788 0 7.93968C0 8.09149 0.0570684 8.23708 0.158651 8.34442C0.260233 8.45177 0.398008 8.51207 0.541667 8.51207H12.4583C12.602 8.51207 12.7398 8.45177 12.8414 8.34442C12.9429 8.23708 13 8.09149 13 7.93968C13 7.78788 12.9429 7.64229 12.8414 7.53495C12.7398 7.4276 12.602 7.3673 12.4583 7.3673ZM8.2225 12.3528L7.04167 13.8467V10.441C7.04167 10.2892 6.9846 10.1436 6.88302 10.0363C6.78143 9.92893 6.64366 9.86862 6.5 9.86862C6.35634 9.86862 6.21857 9.92893 6.11698 10.0363C6.0154 10.1436 5.95833 10.2892 5.95833 10.441V13.841L4.7775 12.3528C4.73162 12.2953 4.67547 12.2479 4.61226 12.2133C4.54905 12.1787 4.48001 12.1577 4.40909 12.1513C4.33817 12.1449 4.26675 12.1534 4.19892 12.1761C4.13109 12.1989 4.06817 12.2356 4.01375 12.2841C3.95933 12.3326 3.91449 12.3919 3.88177 12.4587C3.84905 12.5255 3.82911 12.5985 3.82307 12.6734C3.81704 12.7483 3.82503 12.8238 3.84659 12.8955C3.86816 12.9672 3.90287 13.0337 3.94875 13.0912L6.08292 15.7928C6.13374 15.8576 6.19747 15.9098 6.26957 15.9456C6.34166 15.9814 6.42034 16 6.5 16C6.57966 16 6.65834 15.9814 6.73043 15.9456C6.80253 15.9098 6.86626 15.8576 6.91708 15.7928L9.05125 13.0912C9.14391 12.975 9.18912 12.8248 9.17693 12.6734C9.16474 12.522 9.09615 12.382 8.98625 12.2841C8.87635 12.1862 8.73414 12.1384 8.59091 12.1513C8.44768 12.1642 8.31516 12.2366 8.2225 12.3528Z" fill="#0054A6"/>
</svg>
