<svg width="1600" height="538" viewBox="0 0 1600 538" fill="none" xmlns="http://www.w3.org/2000/svg">
<mask id="mask0_495_86450" style="mask-type:luminance" maskUnits="userSpaceOnUse" x="0" y="0" width="1600" height="538">
<path d="M1600 0H0V538H1600V0Z" fill="white"/>
</mask>
<g mask="url(#mask0_495_86450)">
<mask id="mask1_495_86450" style="mask-type:alpha" maskUnits="userSpaceOnUse" x="0" y="0" width="1600" height="538">
<path d="M1600 0H0V538H1600V0Z" fill="black"/>
</mask>
<g mask="url(#mask1_495_86450)">
<g clip-path="url(#clip0_495_86450)">
<path fill-rule="evenodd" clip-rule="evenodd" d="M-141.516 240.644C-141.516 18.7302 -8.85364 -172.227 181.53 -257.319L180.714 -259.145C-10.3632 -173.743 -143.516 17.9124 -143.516 240.644C-143.516 368.696 -99.5034 486.468 -25.7836 579.687L-24.2149 578.447C-97.6654 485.567 -141.516 368.23 -141.516 240.644ZM793.949 -140.616C890.185 -42.3165 949.516 92.2408 949.516 240.644C949.516 371.22 903.592 491.06 827 584.947L828.55 586.211C905.422 491.981 951.516 371.698 951.516 240.644C951.516 91.6968 891.965 -43.3571 795.378 -142.015L793.949 -140.616ZM849.705 240.644C849.705 -5.37857 650.162 -204.811 404 -204.811C157.838 -204.811 -41.7055 -5.37857 -41.7055 240.644H-43.7055C-43.7055 -6.48419 156.735 -206.811 404 -206.811C651.265 -206.811 851.705 -6.48419 851.705 240.644C851.705 487.772 651.265 688.098 404 688.098V686.098C650.162 686.098 849.705 486.666 849.705 240.644ZM404 -135.999C612.122 -135.999 780.855 32.6246 780.855 240.644H782.855C782.855 31.5189 613.226 -137.999 404 -137.999V-135.999ZM78.9072 406.426C139.312 524.49 262.206 605.316 404 605.316C464.035 605.316 520.678 590.834 570.616 565.154L571.53 566.933C521.316 592.754 464.36 607.316 404 607.316C261.427 607.316 137.86 526.043 77.1267 407.337L78.9072 406.426ZM68.9395 240.643C68.9395 91.23 166.838 -35.3228 302.03 -78.4486L301.422 -80.354C165.426 -36.9716 66.9395 90.3339 66.9395 240.643C66.9395 277.464 72.849 312.902 83.7757 346.066L85.6752 345.44C74.8143 312.476 68.9395 277.248 68.9395 240.643ZM727.959 240.644C727.959 150.734 691.696 70.2914 633.072 11.7007L634.486 10.2861C693.468 69.2351 729.959 150.18 729.959 240.644C729.959 331.108 693.067 412.959 633.504 471.983L632.096 470.562C691.296 411.899 727.959 330.553 727.959 240.644ZM91.113 240.644C91.113 206.353 96.6461 173.366 106.839 142.493L104.94 141.866C94.6813 172.938 89.113 206.137 89.113 240.644C89.113 381.431 181.605 500.609 309.172 540.831L309.774 538.923C183.014 498.956 91.113 380.533 91.113 240.644ZM165.16 413.77C218.781 487.54 305.784 535.495 404 535.495C469.01 535.495 529.122 514.474 577.874 478.861L579.054 480.476C529.97 516.331 469.448 537.495 404 537.495C305.118 537.495 217.523 489.212 163.542 414.945L165.16 413.77ZM404 -44.6255C451.3 -44.6255 495.905 -33.1253 535.171 -12.7865L536.091 -14.5624C496.547 -35.045 451.628 -46.6255 404 -46.6255C291.821 -46.6255 194.656 17.6057 147.296 111.276L149.081 112.178C196.114 19.1553 292.604 -44.6255 404 -44.6255ZM283.444 0.361542C195.476 44.5354 135.119 135.542 135.119 240.644C135.119 285.35 146.031 327.497 165.357 364.574L163.583 365.498C144.112 328.142 133.119 285.679 133.119 240.644C133.119 134.756 193.929 43.0742 282.547 -1.42578L283.444 0.361542ZM559.172 29.2881C624.126 77.0048 666.277 153.904 666.277 240.644C666.277 298.334 647.633 351.663 616.037 394.959L617.653 396.138C649.49 352.511 668.277 298.772 668.277 240.644C668.277 153.24 625.801 75.7534 560.356 27.6763L559.172 29.2881ZM404 479.203C469.962 479.203 530.382 452.142 573.642 408.462L575.063 409.869C531.441 453.914 470.515 481.203 404 481.203C337.486 481.203 277.274 454.241 233.711 410.659L235.126 409.245C278.328 452.467 338.037 479.203 404 479.203ZM404.015 10.7031C429.405 10.7031 453.831 14.8092 476.661 22.4001L477.292 20.5023C454.261 12.8445 429.621 8.70312 404.015 8.70312C300.313 8.70312 212.489 76.6817 182.752 170.491L184.658 171.096C214.139 78.0939 301.209 10.7031 404.015 10.7031ZM277.73 64.3458C222.844 103.682 187.079 167.999 187.079 240.643C187.079 289.178 203.034 333.974 229.981 370.105L228.378 371.3C201.182 334.836 185.079 289.624 185.079 240.643C185.079 167.327 221.178 102.416 276.565 62.7202L277.73 64.3458ZM404 445.679C290.701 445.679 198.849 353.878 198.849 240.644H196.849C196.849 354.983 289.598 447.679 404 447.679V445.679ZM581.146 152.683C548.761 87.6685 481.6 43.0103 404.015 43.0103C371.437 43.0103 340.693 50.8915 313.597 64.838L312.681 63.0597C340.054 48.971 371.111 41.0103 404.015 41.0103C482.387 41.0103 550.225 86.1235 582.936 151.791L581.146 152.683ZM576.772 184.025C582.617 201.844 585.776 220.874 585.776 240.643C585.776 321.705 532.654 390.363 459.308 413.745L459.916 415.651C534.066 392.012 587.776 322.601 587.776 240.643C587.776 220.66 584.582 201.419 578.672 183.401L576.772 184.025ZM282.222 115.1C249.43 146.886 229.052 191.382 229.052 240.644C229.052 289.905 249.652 334.889 282.768 366.703L281.383 368.146C247.889 335.969 227.052 290.47 227.052 240.644C227.052 190.819 247.666 145.81 280.83 113.664L282.222 115.1ZM254.416 240.644C254.416 158.071 321.394 91.1445 404 91.1445V89.1445C320.29 89.1445 252.416 156.965 252.416 240.644H254.416ZM550.378 240.644C550.378 216.687 544.614 194.088 534.414 174.126L536.195 173.216C546.535 193.452 552.378 216.362 552.378 240.644C552.378 298.709 518.979 348.976 470.345 373.317L469.449 371.529C517.434 347.513 550.378 297.922 550.378 240.644ZM424.07 104.632C490.508 114.352 541.532 171.535 541.532 240.644C541.532 248.877 540.81 256.948 539.425 264.782L541.395 265.13C542.8 257.181 543.532 248.994 543.532 240.644C543.532 170.527 491.764 112.514 424.359 102.653L424.07 104.632ZM291.293 156.899C273.874 180.273 263.559 209.257 263.559 240.644C263.559 288.068 287.091 329.985 323.11 355.393L321.958 357.028C285.43 331.261 261.559 288.746 261.559 240.644C261.559 208.811 272.022 179.411 289.689 155.704L291.293 156.899ZM404 373.025C344.563 373.025 294.272 333.909 277.494 280.011L275.585 280.605C292.616 335.317 343.664 375.025 404 375.025C419.011 375.025 433.441 372.575 446.93 368.031L446.291 366.135C433.006 370.611 418.791 373.025 404 373.025ZM497.434 151.267C473.883 126.684 440.731 111.377 404 111.377C367.268 111.377 334.56 126.477 311.052 150.752L309.616 149.361C333.483 124.715 366.702 109.377 404 109.377C441.299 109.377 474.965 124.923 498.878 149.884L497.434 151.267ZM524.066 278.45C508.001 329.443 460.321 366.41 404 366.41C390.246 366.41 376.993 364.202 364.596 360.126L363.971 362.026C376.568 366.167 390.03 368.41 404 368.41C461.218 368.41 509.653 330.854 525.973 279.051L524.066 278.45ZM387.218 121.024C328.427 129.189 283.164 179.636 283.164 240.644C283.164 247.883 283.798 254.989 285.019 261.873L283.05 262.223C281.808 255.223 281.164 248 281.164 240.644C281.164 178.623 327.178 127.343 386.943 119.043L387.218 121.024ZM499.1 171.191C513.361 190.665 521.778 214.668 521.778 240.644C521.778 280.238 502.222 315.258 472.226 336.602L473.386 338.231C503.885 316.529 523.778 280.913 523.778 240.644C523.778 214.228 515.217 189.815 500.714 170.01L499.1 171.191ZM304.237 186.594C295.499 202.664 290.541 221.072 290.541 240.644C290.541 285.238 316.285 323.807 353.744 342.335L352.857 344.128C314.743 325.276 288.541 286.029 288.541 240.644C288.541 220.73 293.586 201.995 302.48 185.639L304.237 186.594ZM404 130.646C464.789 130.646 514.061 179.89 514.061 240.644H516.061C516.061 178.785 465.893 128.646 404 128.646V130.646ZM307.4 288.584C325.047 324.05 361.679 348.417 404 348.417C422.442 348.417 439.808 343.787 454.998 335.63L455.944 337.393C440.471 345.701 422.781 350.417 404 350.417C360.892 350.417 323.582 325.595 305.61 289.475L307.4 288.584ZM495.423 274.648C481.613 311.709 445.898 338.093 404.015 338.093C389.175 338.093 375.131 334.789 362.542 328.872L361.691 330.682C374.541 336.721 388.875 340.093 404.015 340.093C446.759 340.093 483.204 313.165 497.297 275.347L495.423 274.648ZM376.233 147.188C335.905 159.14 306.481 196.451 306.481 240.644C306.481 252.128 308.464 263.154 312.122 273.385L310.238 274.059C306.505 263.613 304.481 252.359 304.481 240.644C304.481 195.54 334.512 157.467 375.665 145.271L376.233 147.188ZM404 151.086C449.604 151.086 487.239 185.12 492.89 229.156L494.873 228.902C489.096 183.879 450.622 149.086 404 149.086C398.93 149.086 393.964 149.491 389.115 150.286L389.439 152.259C394.179 151.482 399.037 151.086 404 151.086ZM318.604 233.764C318.427 236.041 318.324 238.329 318.324 240.643C318.324 284.101 350.731 320.009 392.702 325.522L392.442 327.505C349.489 321.863 316.324 285.118 316.324 240.643C316.324 238.27 316.43 235.93 316.609 233.609L318.604 233.764ZM486.01 240.644C486.01 285.911 449.294 322.607 404 322.607V324.607C450.398 324.607 488.01 287.017 488.01 240.644H486.01ZM370.562 170.583C344.404 183.076 326.339 209.76 326.339 240.644C326.339 254.455 329.944 267.429 336.273 278.66L334.531 279.642C328.036 268.118 324.339 254.807 324.339 240.644C324.339 208.96 342.874 181.591 369.7 168.778L370.562 170.583ZM404.015 168.708C436.95 168.708 464.735 190.813 473.284 221.01L475.208 220.465C466.422 189.429 437.867 166.708 404.015 166.708C395.652 166.708 387.602 168.091 380.093 170.663L380.741 172.555C388.043 170.054 395.874 168.708 404.015 168.708ZM404 312.579C423.876 312.579 442.749 304.136 455.849 290.546L457.289 291.934C443.823 305.905 424.434 314.579 404 314.579C383.569 314.579 365.078 306.308 351.689 292.927L353.102 291.512C366.131 304.534 384.121 312.579 404 312.579Z" fill="url(#paint0_radial_495_86450)"/>
</g>
<g opacity="0.2">
<path fill-rule="evenodd" clip-rule="evenodd" d="M784.251 224.768C784.251 -244.355 1064.7 -648.035 1467.17 -827.919L1465.44 -831.779C1061.51 -651.24 780.023 -246.083 780.023 224.768C780.023 495.469 873.065 744.436 1028.91 941.502L1032.22 938.879C876.951 742.533 784.251 494.483 784.251 224.768ZM2761.81 -581.21C2965.25 -373.407 3090.68 -88.954 3090.68 224.768C3090.68 500.805 2993.6 754.145 2831.68 952.62L2834.96 955.293C2997.46 756.091 3094.91 501.815 3094.91 224.768C3094.91 -90.1042 2969.02 -375.606 2764.83 -584.168L2761.81 -581.21ZM2879.68 224.768C2879.68 -295.32 2457.85 -716.918 1937.47 -716.918C1417.08 -716.918 995.25 -295.32 995.25 224.768H991.021C991.021 -297.657 1414.75 -721.146 1937.47 -721.146C2460.18 -721.146 2883.91 -297.657 2883.91 224.768C2883.91 747.193 2460.18 1170.68 1937.47 1170.68V1166.45C2457.85 1166.45 2879.68 744.856 2879.68 224.768ZM1937.47 -571.45C2377.43 -571.45 2734.13 -214.982 2734.13 224.768H2738.36C2738.36 -217.319 2379.77 -575.678 1937.47 -575.678V-571.45ZM1250.22 575.229C1377.92 824.814 1637.71 995.68 1937.47 995.68C2064.38 995.68 2184.12 965.065 2289.69 910.778L2291.62 914.538C2185.47 969.125 2065.07 999.908 1937.47 999.908C1636.07 999.908 1374.85 828.099 1246.46 577.155L1250.22 575.229ZM1229.15 224.767C1229.15 -91.0909 1436.11 -358.622 1721.9 -449.789L1720.62 -453.817C1433.12 -362.107 1224.92 -92.9853 1224.92 224.767C1224.92 302.605 1237.42 377.521 1260.52 447.628L1264.53 446.305C1241.57 376.62 1229.15 302.15 1229.15 224.767ZM2622.31 224.768C2622.31 34.6992 2545.65 -135.355 2421.72 -259.215L2424.71 -262.205C2549.4 -137.588 2626.54 33.5284 2626.54 224.768C2626.54 416.009 2548.55 589.041 2422.63 713.817L2419.66 710.813C2544.8 586.799 2622.31 414.835 2622.31 224.768ZM1276.03 224.767C1276.03 152.278 1287.72 82.5428 1309.27 17.2787L1305.26 15.9531C1283.57 81.6381 1271.8 151.82 1271.8 224.767C1271.8 522.391 1467.32 774.331 1737 859.36L1738.27 855.327C1470.3 770.837 1276.03 520.492 1276.03 224.767ZM1432.56 590.754C1545.91 746.704 1729.84 848.081 1937.47 848.081C2074.9 848.081 2201.97 803.642 2305.03 728.357L2307.53 731.771C2203.76 807.567 2075.82 852.309 1937.47 852.309C1728.43 852.309 1543.26 750.238 1429.14 593.24L1432.56 590.754ZM1937.46 -378.288C2037.46 -378.288 2131.75 -353.976 2214.76 -310.98L2216.7 -314.735C2133.11 -358.034 2038.15 -382.516 1937.46 -382.516C1700.32 -382.516 1494.91 -246.732 1394.8 -48.7145L1398.57 -46.8068C1498 -243.456 1701.97 -378.288 1937.46 -378.288ZM1682.61 -283.186C1496.65 -189.803 1369.05 2.58313 1369.05 224.768C1369.05 319.276 1392.12 408.374 1432.98 486.755L1429.23 488.709C1388.07 409.738 1364.83 319.972 1364.83 224.768C1364.83 0.922363 1493.38 -192.892 1680.71 -286.964L1682.61 -283.186ZM2265.5 -222.035C2402.81 -121.163 2491.92 41.4008 2491.92 224.768C2491.92 346.725 2452.5 459.461 2385.71 550.989L2389.12 553.481C2456.43 461.254 2496.14 347.651 2496.14 224.768C2496.14 39.9978 2406.35 -123.808 2268 -225.443L2265.5 -222.035ZM1937.47 729.078C2076.91 729.078 2204.63 671.872 2296.09 579.533L2299.09 582.509C2206.87 675.619 2078.08 733.306 1937.47 733.306C1796.85 733.306 1669.57 676.31 1577.48 584.177L1580.47 581.188C1671.8 672.56 1798.02 729.078 1937.47 729.078ZM1937.5 -261.324C1991.17 -261.324 2042.81 -252.643 2091.07 -236.596L2092.4 -240.608C2043.72 -256.797 1991.63 -265.552 1937.5 -265.552C1718.27 -265.552 1532.61 -121.846 1469.75 76.4667L1473.78 77.7443C1536.1 -118.86 1720.17 -261.324 1937.5 -261.324ZM1670.53 -147.924C1554.5 -64.7669 1478.9 71.1988 1478.9 224.767C1478.9 327.369 1512.63 422.067 1569.59 498.447L1566.2 500.974C1508.71 423.89 1474.67 328.311 1474.67 224.767C1474.67 69.7775 1550.98 -67.444 1668.07 -151.36L1670.53 -147.924ZM1937.47 658.21C1697.95 658.21 1503.78 464.143 1503.78 224.768H1499.55C1499.55 466.48 1695.62 662.438 1937.47 662.438V658.21ZM2311.95 38.8198C2243.49 -98.6198 2101.51 -193.027 1937.5 -193.027C1868.63 -193.027 1803.64 -176.366 1746.35 -146.883L1744.42 -150.643C1802.28 -180.426 1867.94 -197.255 1937.5 -197.255C2103.17 -197.255 2246.58 -101.886 2315.73 36.9346L2311.95 38.8198ZM2302.7 105.076C2315.06 142.746 2321.74 182.975 2321.74 224.767C2321.74 396.13 2209.44 541.272 2054.39 590.703L2055.67 594.731C2212.42 544.758 2325.96 398.025 2325.96 224.767C2325.96 182.522 2319.21 141.848 2306.72 103.758L2302.7 105.076ZM1680.03 -40.6301C1610.71 26.5638 1567.63 120.629 1567.63 224.767C1567.63 328.905 1611.18 424.001 1681.18 491.256L1678.25 494.305C1607.45 426.283 1563.4 330.099 1563.4 224.767C1563.4 119.438 1606.98 24.291 1677.09 -43.666L1680.03 -40.6301ZM1621.25 224.768C1621.25 50.2088 1762.84 -91.272 1937.47 -91.272V-95.5C1760.5 -95.5 1617.02 47.8713 1617.02 224.768H1621.25ZM2246.91 224.767C2246.91 174.123 2234.72 126.349 2213.16 84.1498L2216.92 82.226C2238.78 125.006 2251.13 173.437 2251.13 224.767C2251.13 347.517 2180.53 453.781 2077.72 505.238L2075.82 501.457C2177.26 450.689 2246.91 345.854 2246.91 224.767ZM1979.89 -62.7589C2120.34 -42.2125 2228.21 78.6726 2228.21 224.768C2228.21 242.173 2226.68 259.234 2223.75 275.795L2227.92 276.531C2230.89 259.727 2232.44 242.42 2232.44 224.768C2232.44 76.541 2123 -46.0969 1980.5 -66.9424L1979.89 -62.7589ZM1699.2 47.7319C1662.38 97.144 1640.57 158.416 1640.57 224.768C1640.57 325.022 1690.32 413.634 1766.47 467.347L1764.03 470.802C1686.81 416.331 1636.35 326.456 1636.35 224.768C1636.35 157.474 1658.47 95.3221 1695.81 45.2054L1699.2 47.7319ZM1937.46 504.621C1811.82 504.621 1705.5 421.93 1670.03 307.989L1666 309.246C1702 424.905 1809.92 508.849 1937.46 508.849C1969.2 508.849 1999.7 503.668 2028.22 494.063L2026.87 490.056C1998.78 499.516 1968.73 504.621 1937.46 504.621ZM2134.98 35.827C2085.2 -16.1414 2015.12 -48.5005 1937.47 -48.5005C1859.81 -48.5005 1790.67 -16.5783 1740.98 34.7376L1737.94 31.7964C1788.39 -20.3049 1858.62 -52.7285 1937.47 -52.7285C2016.32 -52.7285 2087.49 -19.8638 2138.04 32.9021L2134.98 35.827ZM2191.28 304.69C2157.32 412.489 2056.53 490.636 1937.47 490.636C1908.39 490.636 1880.37 485.969 1854.17 477.352L1852.85 481.368C1879.47 490.123 1907.93 494.864 1937.47 494.864C2058.42 494.864 2160.82 415.47 2195.31 305.961L2191.28 304.69ZM1901.99 -28.1068C1777.71 -10.8464 1682.02 95.7985 1682.02 224.768C1682.02 240.073 1683.36 255.094 1685.94 269.647L1681.78 270.386C1679.15 255.588 1677.79 240.319 1677.79 224.768C1677.79 93.6573 1775.06 -14.7481 1901.41 -32.2946L1901.99 -28.1068ZM2138.51 77.9462C2168.65 119.114 2186.45 169.854 2186.45 224.768C2186.45 308.469 2145.1 382.501 2081.69 427.622L2084.15 431.067C2148.62 385.188 2190.67 309.896 2190.67 224.768C2190.67 168.926 2172.58 117.316 2141.92 75.4482L2138.51 77.9462ZM1726.57 110.508C1708.1 144.479 1697.61 183.393 1697.61 224.768C1697.61 319.041 1752.04 400.574 1831.22 439.742L1829.35 443.532C1748.78 403.679 1693.39 320.711 1693.39 224.768C1693.39 182.67 1704.05 143.064 1722.85 108.488L1726.57 110.508ZM1937.47 -7.76709C2065.97 -7.76709 2170.13 96.3354 2170.13 224.768H2174.36C2174.36 93.9982 2068.31 -11.9951 1937.47 -11.9951V-7.76709ZM1733.25 326.114C1770.56 401.089 1848 452.598 1937.47 452.598C1976.45 452.598 2013.16 442.811 2045.27 425.569L2047.27 429.294C2014.56 446.858 1977.17 456.826 1937.47 456.826C1846.34 456.826 1767.46 404.354 1729.47 327.998L1733.25 326.114ZM2130.73 296.653C2101.54 374.999 2026.04 430.774 1937.5 430.774C1906.12 430.774 1876.44 423.789 1849.82 411.282L1848.03 415.108C1875.19 427.875 1905.49 435.002 1937.5 435.002C2027.86 435.002 2104.9 378.077 2134.69 298.13L2130.73 296.653ZM1878.77 27.2037C1793.51 52.4703 1731.31 131.344 1731.31 224.768C1731.31 249.045 1735.5 272.354 1743.24 293.984L1739.25 295.407C1731.36 273.324 1727.08 249.534 1727.08 224.768C1727.08 129.419 1790.57 48.9335 1877.57 23.15L1878.77 27.2037ZM1937.47 35.4438C2033.87 35.4438 2113.43 107.39 2125.38 200.484L2129.57 199.946C2117.36 104.768 2036.02 31.2159 1937.47 31.2159C1926.75 31.2159 1916.25 32.0717 1906 33.7524L1906.68 37.9246C1916.7 36.2816 1926.97 35.4438 1937.47 35.4438ZM1756.94 210.224C1756.57 215.039 1756.35 219.875 1756.35 224.767C1756.35 316.636 1824.85 392.546 1913.58 404.2L1913.03 408.392C1822.23 396.465 1752.12 318.787 1752.12 224.767C1752.12 219.75 1752.34 214.803 1752.72 209.897L1756.94 210.224ZM2110.83 224.768C2110.83 320.462 2033.22 398.036 1937.47 398.036V402.264C2035.55 402.264 2115.06 322.8 2115.06 224.768H2110.83ZM1866.78 76.6605C1811.48 103.071 1773.29 159.48 1773.29 224.767C1773.29 253.965 1780.91 281.392 1794.29 305.134L1790.61 307.209C1776.88 282.849 1769.06 254.71 1769.06 224.767C1769.06 157.789 1808.24 99.9307 1864.96 72.8453L1866.78 76.6605ZM1937.5 72.6966C2007.12 72.6966 2065.86 119.427 2083.93 183.262L2088 182.11C2069.42 116.501 2009.06 68.4686 1937.5 68.4686C1919.82 68.4686 1902.8 71.3925 1886.93 76.8297L1888.3 80.8296C1903.73 75.5425 1920.29 72.6966 1937.5 72.6966ZM1937.47 376.839C1979.48 376.839 2019.38 358.99 2047.07 330.261L2050.12 333.196C2021.65 362.729 1980.66 381.067 1937.47 381.067C1894.28 381.067 1855.18 363.582 1826.88 335.293L1829.87 332.303C1857.41 359.831 1895.44 376.839 1937.47 376.839Z" fill="url(#paint1_radial_495_86450)"/>
</g>
</g>
</g>
<defs>
<radialGradient id="paint0_radial_495_86450" cx="0" cy="0" r="1" gradientUnits="userSpaceOnUse" gradientTransform="translate(404 214.477) rotate(90) scale(473.622 547.516)">
<stop stop-color="white" stop-opacity="0.3"/>
<stop offset="0.458333" stop-color="white" stop-opacity="0.1"/>
<stop offset="0.869792" stop-color="white" stop-opacity="0"/>
</radialGradient>
<radialGradient id="paint1_radial_495_86450" cx="0" cy="0" r="1" gradientUnits="userSpaceOnUse" gradientTransform="translate(1937.47 169.451) rotate(90) scale(1001.23 1157.44)">
<stop stop-color="white" stop-opacity="0.3"/>
<stop offset="0.458333" stop-color="white" stop-opacity="0.1"/>
<stop offset="0.869792" stop-color="white" stop-opacity="0"/>
</radialGradient>
<clipPath id="clip0_495_86450">
<rect width="1096" height="948.164" fill="white" transform="matrix(-1 0 0 1 952 -259.582)"/>
</clipPath>
</defs>
</svg>
