<svg width="32" height="32" viewBox="0 0 32 32" fill="none" xmlns="http://www.w3.org/2000/svg">
<path d="M26.996 11.4599V26.4852H4.99561V11.4599C4.99561 11.0894 5.13949 10.734 5.39561 10.472C5.65174 10.2099 5.99911 10.0627 6.36132 10.0627H25.6302C25.9925 10.0627 26.3398 10.2099 26.596 10.472C26.8521 10.734 26.996 11.0894 26.996 11.4599Z" fill="#D2D9DC"/>
<path d="M4.99561 24.2566H26.996V26.4851H4.99561V24.2566Z" fill="#BCC5C9"/>
<path d="M25.307 11.7952V23.4167H6.69751V11.7952H25.307Z" fill="#ECEFF1"/>
<path d="M28 25.1448H4V25.9674C4.00112 26.5062 4.21082 27.0225 4.58319 27.4035C4.95556 27.7844 5.46027 27.9989 5.98688 28.0001H26.0131C26.5397 27.9989 27.0444 27.7844 27.4168 27.4035C27.7892 27.0225 27.9989 26.5062 28 25.9674V25.1448Z" fill="#D2D9DC"/>
<path d="M17.3 26.5724H14.6962C14.3377 26.5713 13.9943 26.4251 13.7408 26.1658C13.4873 25.9064 13.3444 25.555 13.3433 25.1883V25.1448H18.6572V25.1883C18.6561 25.5558 18.5126 25.9078 18.2582 26.1673C18.0038 26.4267 17.6592 26.5724 17.3 26.5724Z" fill="#BCC5C9"/>
<path d="M8.15671 28.0001H5.98688C5.46027 27.9989 4.95556 27.7844 4.58319 27.4035C4.21082 27.0225 4.00112 26.5062 4 25.9674V25.1448H6.16983V25.9674C6.17095 26.5062 6.38064 27.0225 6.75301 27.4035C7.12538 27.7844 7.6301 27.9989 8.15671 28.0001Z" fill="#BCC5C9"/>
<path d="M21.3373 11.4731V13.5624C21.3385 14.172 21.1634 14.7684 20.8341 15.2765C20.5048 15.7845 20.0359 16.1816 19.4866 16.4177C18.3815 16.8874 17.1966 17.1292 16 17.1292C14.8033 17.1292 13.6184 16.8874 12.5133 16.4177C11.964 16.1816 11.4951 15.7845 11.1658 15.2765C10.8365 14.7684 10.6614 14.172 10.6626 13.5624V11.4731H21.3373Z" fill="#006EE5"/>
<path d="M17.3976 17.0184C15.7465 17.282 14.0563 17.0742 12.5133 16.4177C11.964 16.1816 11.4951 15.7845 11.1658 15.2765C10.8365 14.7684 10.6614 14.172 10.6626 13.5624V11.4731H13.4579V13.5624C13.457 14.1725 13.6327 14.7692 13.9628 15.2774C14.2929 15.7855 14.7627 16.1823 15.3128 16.4177C15.9816 16.703 16.6816 16.9046 17.3976 17.0184Z" fill="#0062BA"/>
<path d="M21.3373 11.4731V12.3132L16.9679 14.681C16.6695 14.8419 16.3372 14.926 15.9999 14.926C15.6627 14.926 15.3304 14.8419 15.032 14.681L10.6626 12.3132V11.4731H21.3373Z" fill="#0062BA"/>
<path d="M23.9712 8.03023L16.9682 4.24781C16.6703 4.08511 16.3379 4 16.0002 4C15.6626 4 15.3302 4.08511 15.0323 4.24781L8.02931 8.03023C7.85115 8.12631 7.70202 8.27033 7.59798 8.44675C7.49395 8.62317 7.43896 8.8253 7.43896 9.03133C7.43896 9.23737 7.49395 9.4395 7.59798 9.61592C7.70202 9.79234 7.85115 9.93636 8.02931 10.0324L15.0323 13.8279C15.3302 13.9906 15.6626 14.0757 16.0002 14.0757C16.3379 14.0757 16.6703 13.9906 16.9682 13.8279L23.9712 10.0455C24.1526 9.95061 24.3049 9.80631 24.4112 9.6285C24.5175 9.4507 24.5738 9.24631 24.5738 9.03786C24.5738 8.82942 24.5175 8.62502 24.4112 8.44722C24.3049 8.26942 24.1526 8.12512 23.9712 8.03023Z" fill="#006EE5"/>
<path d="M19.1165 17.9019C19.0398 17.9019 18.9662 17.8707 18.9119 17.8152C18.8577 17.7597 18.8272 17.6845 18.8272 17.606V12.792L15.7809 9.24023C15.7531 9.21074 15.7316 9.17567 15.7177 9.13721C15.7038 9.09876 15.6978 9.05778 15.7002 9.01686C15.7026 8.97594 15.7133 8.93597 15.7316 8.8995C15.7499 8.86302 15.7754 8.83083 15.8065 8.80497C15.8356 8.77708 15.87 8.75555 15.9075 8.7417C15.945 8.72785 15.9849 8.72197 16.0247 8.72442C16.0645 8.72686 16.1034 8.73758 16.139 8.75592C16.1747 8.77426 16.2063 8.79983 16.2319 8.83108L19.3463 12.4655C19.3922 12.52 19.4179 12.5894 19.4186 12.6614V17.606C19.418 17.6458 19.4098 17.6851 19.3942 17.7216C19.3787 17.7581 19.3562 17.7911 19.3281 17.8186C19.3 17.8462 19.2668 17.8677 19.2305 17.882C19.1942 17.8963 19.1554 17.9031 19.1165 17.9019Z" fill="#EAB14D"/>
<path d="M18.7038 17.671L18.1209 18.6982C18.0396 18.8431 17.997 19.0074 17.9973 19.1746C17.9976 19.3417 18.0409 19.5058 18.1228 19.6504C18.2047 19.795 18.3223 19.9151 18.4639 19.9985C18.6054 20.082 18.7659 20.1259 18.9293 20.1258H19.3037C19.4667 20.1251 19.6267 20.0807 19.7676 19.9969C19.9086 19.9131 20.0256 19.793 20.107 19.6485C20.1884 19.504 20.2313 19.3402 20.2314 19.1735C20.2316 19.0067 20.1889 18.8428 20.1078 18.6982L19.5249 17.671C19.4828 17.5979 19.4228 17.5373 19.3508 17.4952C19.2788 17.4531 19.1973 17.4309 19.1144 17.4309C19.0314 17.4309 18.9499 17.4531 18.8779 17.4952C18.8059 17.5373 18.7459 17.5979 18.7038 17.671Z" fill="#F4DD45"/>
<path d="M15.7467 22.0588H8.51398C8.41768 22.0576 8.3257 22.0177 8.258 21.9476C8.1903 21.8775 8.15234 21.783 8.15234 21.6844C8.15234 21.5863 8.19044 21.4922 8.25827 21.4228C8.32609 21.3534 8.41807 21.3145 8.51398 21.3145H15.7467C15.8427 21.3145 15.9346 21.3534 16.0025 21.4228C16.0703 21.4922 16.1084 21.5863 16.1084 21.6844C16.1084 21.783 16.0704 21.8775 16.0027 21.9476C15.935 22.0177 15.843 22.0576 15.7467 22.0588Z" fill="#ED1C24"/>
<path d="M13.3431 20.5004H8.49714C8.40083 20.4993 8.30886 20.4593 8.24116 20.3892C8.17346 20.3192 8.13549 20.2246 8.1355 20.1261C8.1355 20.028 8.1736 19.9339 8.24142 19.8645C8.30924 19.7951 8.40122 19.7561 8.49714 19.7561H13.3431C13.439 19.7561 13.531 19.7951 13.5988 19.8645C13.6666 19.9339 13.7047 20.028 13.7047 20.1261C13.7047 20.2246 13.6668 20.3192 13.5991 20.3892C13.5314 20.4593 13.4394 20.4993 13.3431 20.5004Z" fill="#ED1C24"/>
</svg>
