<svg width="1600" height="546" viewBox="0 0 1600 546" fill="none" xmlns="http://www.w3.org/2000/svg">
<mask id="mask0_5722_42344" style="mask-type:luminance" maskUnits="userSpaceOnUse" x="0" y="-49" width="1600" height="669">
<path d="M1600 -49H0V620H1600V-49Z" fill="white"/>
</mask>
<g mask="url(#mask0_5722_42344)">
<g opacity="0.1">
<path d="M1232 11.5499C1113.7 11.5499 1017.45 -84.7001 1017.45 -203C1017.45 -321.3 1113.7 -417.55 1232 -417.55C1350.3 -417.55 1446.55 -321.3 1446.55 -203C1446.55 -84.7001 1350.3 11.5499 1232 11.5499ZM1232 -414.91C1115.15 -414.91 1020.09 -319.85 1020.09 -203C1020.09 -86.1501 1115.15 8.90994 1232 8.90994C1348.85 8.90994 1443.91 -86.1501 1443.91 -203C1443.91 -319.85 1348.85 -414.91 1232 -414.91Z" fill="white"/>
<path d="M1232 76.21C1078.04 76.21 952.789 -49.04 952.789 -203C952.789 -356.96 1078.04 -482.21 1232 -482.21C1385.96 -482.21 1511.21 -356.96 1511.21 -203C1511.21 -49.04 1385.96 76.21 1232 76.21ZM1232 -479.56C1079.5 -479.56 955.439 -355.49 955.439 -203C955.439 -50.5099 1079.5 73.5601 1232 73.5601C1384.5 73.5601 1508.56 -50.5 1508.56 -203C1508.56 -355.5 1384.5 -479.56 1232 -479.56Z" fill="white"/>
<path d="M1232 140.87C1140.15 140.87 1053.8 105.1 988.851 40.1499C923.901 -24.8001 888.131 -111.15 888.131 -203C888.131 -294.85 923.901 -381.2 988.851 -446.15C1053.8 -511.1 1140.15 -546.87 1232 -546.87C1323.85 -546.87 1410.2 -511.1 1475.15 -446.15C1540.1 -381.2 1575.87 -294.85 1575.87 -203C1575.87 -111.15 1540.1 -24.8001 1475.15 40.1499C1410.2 105.1 1323.85 140.87 1232 140.87ZM1232 -544.22C1140.86 -544.22 1055.17 -508.73 990.721 -444.28C926.271 -379.83 890.781 -294.14 890.781 -203C890.781 -111.86 926.271 -26.1701 990.721 38.2799C1055.17 102.73 1140.86 138.22 1232 138.22C1323.14 138.22 1408.83 102.73 1473.28 38.2799C1537.73 -26.1701 1573.22 -111.86 1573.22 -203C1573.22 -294.14 1537.73 -379.83 1473.28 -444.28C1408.83 -508.73 1323.14 -544.22 1232 -544.22Z" fill="white"/>
<path d="M1232 205.53C1122.88 205.53 1020.29 163.04 943.131 85.88C865.971 8.71997 823.471 -93.88 823.471 -203C823.471 -312.12 865.961 -414.71 943.121 -491.87C1020.28 -569.03 1122.88 -611.53 1232 -611.53C1341.12 -611.53 1443.71 -569.04 1520.87 -491.88C1598.03 -414.72 1640.53 -312.12 1640.53 -203C1640.53 -93.88 1598.04 8.70996 1520.88 85.87C1443.72 163.03 1341.12 205.53 1232 205.53ZM1232 -608.88C1123.59 -608.88 1021.66 -566.66 945.001 -490C868.341 -413.34 826.121 -311.41 826.121 -203C826.121 -94.59 868.341 7.33997 945.001 84C1021.66 160.66 1123.59 202.88 1232 202.88C1340.41 202.88 1442.34 160.66 1519 84C1595.66 7.33997 1637.88 -94.59 1637.88 -203C1637.88 -311.41 1595.66 -413.34 1519 -490C1442.34 -566.66 1340.41 -608.88 1232 -608.88Z" fill="white"/>
<path d="M1232 270.18C1168.12 270.18 1106.15 257.67 1047.82 232.99C991.47 209.16 940.87 175.04 897.41 131.58C853.95 88.1401 819.83 37.53 796 -18.8199C771.33 -77.15 758.82 -139.12 758.82 -203C758.82 -266.88 771.33 -328.85 796 -387.18C819.83 -443.53 853.95 -494.13 897.41 -537.59C940.87 -581.05 991.47 -615.16 1047.82 -639C1106.16 -663.68 1168.13 -676.19 1232 -676.19C1295.87 -676.19 1357.85 -663.68 1416.18 -639C1472.53 -615.17 1523.13 -581.05 1566.59 -537.59C1610.05 -494.13 1644.16 -443.53 1668 -387.18C1692.68 -328.84 1705.19 -266.87 1705.19 -203C1705.19 -139.13 1692.67 -77.15 1668 -18.8199C1644.17 37.53 1610.05 88.1301 1566.59 131.59C1523.13 175.05 1472.53 209.16 1416.18 233C1357.85 257.67 1295.88 270.18 1232 270.18ZM1232 -673.54C1106.31 -673.54 988.15 -624.6 899.28 -535.72C810.41 -446.84 761.46 -328.69 761.46 -203C761.46 -77.3099 810.4 40.8501 899.28 129.72C988.16 218.59 1106.31 267.54 1232 267.54C1357.69 267.54 1475.85 218.6 1564.72 129.72C1653.59 40.8501 1702.54 -77.3199 1702.54 -203C1702.54 -328.68 1653.6 -446.85 1564.72 -535.72C1475.85 -624.59 1357.69 -673.54 1232 -673.54Z" fill="white"/>
<path d="M1232 334.84C1159.39 334.84 1088.96 320.62 1022.65 292.57C958.6 265.48 901.08 226.7 851.69 177.31C802.3 127.92 763.52 70.4 736.43 6.34998C708.38 -59.96 694.16 -130.39 694.16 -203C694.16 -275.61 708.38 -346.04 736.43 -412.35C763.52 -476.4 802.3 -533.92 851.69 -583.31C901.08 -632.7 958.6 -671.48 1022.65 -698.57C1088.96 -726.62 1159.39 -740.84 1232 -740.84C1304.61 -740.84 1375.04 -726.62 1441.35 -698.57C1505.4 -671.48 1562.92 -632.7 1612.31 -583.31C1661.7 -533.92 1700.48 -476.4 1727.57 -412.35C1755.62 -346.04 1769.84 -275.61 1769.84 -203C1769.84 -130.39 1755.62 -59.96 1727.57 6.34998C1700.48 70.4 1661.7 127.92 1612.31 177.31C1562.92 226.7 1505.4 265.48 1441.35 292.57C1375.04 320.62 1304.61 334.84 1232 334.84ZM1232 -738.2C1159.75 -738.2 1089.66 -724.05 1023.68 -696.14C959.95 -669.18 902.71 -630.59 853.56 -581.44C804.41 -532.29 765.82 -475.05 738.86 -411.32C710.95 -345.34 696.8 -275.25 696.8 -203C696.8 -130.75 710.95 -60.66 738.86 5.32001C765.82 69.05 804.41 126.29 853.56 175.44C902.71 224.59 959.95 263.18 1023.68 290.14C1089.66 318.05 1159.75 332.2 1232 332.2C1304.25 332.2 1374.34 318.05 1440.32 290.14C1504.05 263.18 1561.29 224.59 1610.44 175.44C1659.59 126.29 1698.18 69.05 1725.14 5.32001C1753.05 -60.66 1767.2 -130.75 1767.2 -203C1767.2 -275.25 1753.05 -345.34 1725.14 -411.32C1698.18 -475.05 1659.59 -532.29 1610.44 -581.44C1561.29 -630.59 1504.05 -669.18 1440.32 -696.14C1374.34 -724.05 1304.25 -738.2 1232 -738.2Z" fill="white"/>
<path d="M1232 399.5C1150.66 399.5 1071.76 383.57 997.48 352.15C925.73 321.8 861.3 278.36 805.97 223.03C750.64 167.7 707.19 103.27 676.85 31.52C645.43 -42.76 629.5 -121.66 629.5 -203C629.5 -284.34 645.43 -363.24 676.85 -437.52C707.2 -509.27 750.64 -573.7 805.97 -629.03C861.3 -684.36 925.74 -727.8 997.48 -758.15C1071.76 -789.57 1150.66 -805.5 1232 -805.5C1313.34 -805.5 1392.24 -789.57 1466.52 -758.15C1538.27 -727.8 1602.7 -684.36 1658.03 -629.03C1713.36 -573.7 1756.8 -509.26 1787.15 -437.52C1818.57 -363.24 1834.5 -284.34 1834.5 -203C1834.5 -121.66 1818.57 -42.76 1787.15 31.52C1756.8 103.27 1713.36 167.7 1658.03 223.03C1602.7 278.36 1538.26 321.81 1466.52 352.15C1392.24 383.57 1313.34 399.5 1232 399.5ZM1232 -802.85C1151.02 -802.85 1072.46 -786.99 998.51 -755.71C927.08 -725.5 862.93 -682.25 807.84 -627.16C752.75 -572.07 709.5 -507.92 679.28 -436.49C648 -362.54 632.14 -283.98 632.14 -203C632.14 -122.02 648.01 -43.46 679.28 30.49C709.49 101.92 752.74 166.07 807.83 221.16C862.92 276.25 927.07 319.5 998.5 349.71C1072.45 380.99 1151.01 396.85 1231.99 396.85C1312.97 396.85 1391.53 380.99 1465.48 349.71C1536.91 319.5 1601.06 276.25 1656.15 221.16C1711.24 166.07 1754.49 101.92 1784.7 30.49C1815.98 -43.46 1831.84 -122.02 1831.84 -203C1831.84 -283.98 1815.98 -362.54 1784.7 -436.49C1754.49 -507.92 1711.24 -572.07 1656.15 -627.16C1601.06 -682.25 1536.91 -725.5 1465.48 -755.71C1391.54 -786.99 1312.98 -802.85 1232 -802.85Z" fill="white"/>
</g>
</g>
<mask id="mask1_5722_42344" style="mask-type:luminance" maskUnits="userSpaceOnUse" x="0" y="-49" width="1600" height="669">
<path d="M1600 -49H0V620H1600V-49Z" fill="white"/>
</mask>
<g mask="url(#mask1_5722_42344)">
<g opacity="0.7">
<path d="M569.691 399.88L-40.5488 1010.12" stroke="#0054A6" stroke-width="2" stroke-miterlimit="10"/>
<path d="M511 399.88L-99.2402 1010.12" stroke="#0054A6" stroke-width="2" stroke-miterlimit="10"/>
<path d="M452.31 399.88L-157.93 1010.12" stroke="#0054A6" stroke-width="2" stroke-miterlimit="10"/>
<path d="M393.621 399.88L-216.619 1010.12" stroke="#0054A6" stroke-width="2" stroke-miterlimit="10"/>
<path d="M334.931 399.88L-275.309 1010.12" stroke="#0054A6" stroke-width="2" stroke-miterlimit="10"/>
<path d="M276.24 399.88L-334 1010.12" stroke="#0054A6" stroke-width="2" stroke-miterlimit="10"/>
<path d="M217.551 399.88L-392.689 1010.12" stroke="#0054A6" stroke-width="2" stroke-miterlimit="10"/>
</g>
</g>
<mask id="mask2_5722_42344" style="mask-type:luminance" maskUnits="userSpaceOnUse" x="0" y="-49" width="1600" height="669">
<path d="M1600 -49H0V620H1600V-49Z" fill="white"/>
</mask>
<g mask="url(#mask2_5722_42344)">
<path d="M1477.5 647.5C1533 647.5 1578 602.057 1578 546C1578 489.943 1533 444.5 1477.5 444.5C1422 444.5 1377 489.943 1377 546C1377 602.057 1422 647.5 1477.5 647.5Z" fill="#0054A6"/>
</g>
</svg>
