<svg width="32" height="32" viewBox="0 0 32 32" fill="none" xmlns="http://www.w3.org/2000/svg">
<path d="M22.0307 22.8008L26.2509 20.2699C26.4278 20.1618 26.6298 20.1051 26.8354 20.1059C27.0793 20.105 27.3173 20.1833 27.5156 20.3298C27.7138 20.4764 27.8623 20.6836 27.9398 20.9221C28.0174 21.1606 28.0201 21.4182 27.9476 21.6584C27.8751 21.8986 27.731 22.1091 27.5359 22.26L21.2528 27.1623C20.5981 27.6727 19.8001 27.9497 18.9794 27.9513H17.7331C17.2343 27.9515 16.7404 27.849 16.2805 27.6499L11.6606 25.6553H8.14946H5.26147V20.5358H9.36568C10.2156 19.6616 11.367 19.1706 12.5674 19.1707H12.6748C13.875 19.1716 15.0261 19.6624 15.8765 20.5358L16.143 20.8106H19.5811C20.106 20.8132 20.6177 20.9809 21.0477 21.2914C21.4778 21.6018 21.8057 22.0403 21.9877 22.5482C22.0169 22.6289 22.0315 22.7146 22.0307 22.8008Z" fill="#FFE6C4"/>
<path d="M27.6047 20.4072L27.5359 20.4648L21.2528 25.3671C20.5981 25.8775 19.8001 26.1545 18.9794 26.1561H17.7331C17.2345 26.1541 16.7411 26.0517 16.2805 25.8547L11.7852 23.9133C11.7027 23.8748 11.6136 23.8537 11.5231 23.8512H8.14946H5.26147V25.6463H8.14946H11.6606L16.2805 27.6409C16.7404 27.8401 17.2343 27.9426 17.7331 27.9423H18.9794C19.8001 27.9407 20.5981 27.6638 21.2528 27.1534L27.5359 22.26C27.6603 22.1624 27.7644 22.04 27.842 21.9001C27.9196 21.7602 27.9691 21.6056 27.9875 21.4455C28.006 21.2855 27.993 21.1232 27.9494 20.9685C27.9057 20.8137 27.8324 20.6695 27.7336 20.5446C27.6949 20.4959 27.6476 20.4516 27.6047 20.4072Z" fill="#FED3A7"/>
<path d="M21.3816 24.002C21.6226 23.9812 21.8572 23.9113 22.0719 23.7964C22.2865 23.6816 22.477 23.524 22.6322 23.3328C22.7626 23.2019 22.8636 23.0433 22.9282 22.868C22.9928 22.6926 23.0194 22.5048 23.0061 22.3177V22.2202L22.065 22.7831C22.0545 22.8 22.0414 22.815 22.0263 22.8275C21.9439 22.9317 21.8421 23.0179 21.727 23.0811C21.6119 23.1443 21.4857 23.1831 21.3559 23.1953H16.9723C16.9178 23.1894 16.8627 23.1954 16.8106 23.2129C16.7584 23.2303 16.7104 23.2589 16.6697 23.2967C16.629 23.3345 16.5964 23.3808 16.5741 23.4324C16.5518 23.484 16.5403 23.5399 16.5403 23.5965C16.5403 23.653 16.5518 23.7089 16.5741 23.7605C16.5964 23.8122 16.629 23.8584 16.6697 23.8962C16.7104 23.9341 16.7584 23.9626 16.8106 23.9801C16.8627 23.9976 16.9178 24.0035 16.9723 23.9976H21.3816V24.002Z" fill="#FED3A7"/>
<path d="M8.12782 25.744V23.8868V20.2567C8.12457 20.0371 8.03911 19.8273 7.88934 19.6711C7.73956 19.515 7.53705 19.4246 7.32417 19.4189H4.38892V26.7856H7.32417C7.43253 26.7856 7.53983 26.7636 7.63994 26.7208C7.74005 26.6781 7.83101 26.6154 7.90763 26.5363C7.98425 26.4573 8.04503 26.3635 8.0865 26.2603C8.12797 26.157 8.14931 26.0463 8.14931 25.9346V25.7218L8.12782 25.744Z" fill="#006EE5"/>
<path d="M7.32417 24.5427H4.38892V26.7855H7.32417C7.54301 26.7855 7.75289 26.6958 7.90763 26.5362C8.06238 26.3766 8.14931 26.1602 8.14931 25.9344V23.6917C8.14931 23.8034 8.12797 23.9141 8.0865 24.0173C8.04503 24.1206 7.98425 24.2144 7.90763 24.2934C7.83101 24.3724 7.74005 24.4351 7.63994 24.4779C7.53983 24.5207 7.43253 24.5427 7.32417 24.5427Z" fill="#0062BA"/>
<path d="M4.38893 28C4.33778 28 4.28713 27.9895 4.23992 27.9692C4.19271 27.9489 4.14988 27.9191 4.1139 27.8816C4.07793 27.8441 4.04953 27.7996 4.03035 27.7507C4.01117 27.7018 4.00158 27.6494 4.00215 27.5966V18.6033C3.99641 18.5471 4.0022 18.4902 4.01913 18.4365C4.03606 18.3827 4.06376 18.3332 4.10043 18.2912C4.1371 18.2492 4.18193 18.2156 4.232 18.1926C4.28207 18.1696 4.33627 18.1577 4.39108 18.1577C4.44589 18.1577 4.50009 18.1696 4.55016 18.1926C4.60023 18.2156 4.64506 18.2492 4.68173 18.2912C4.7184 18.3332 4.7461 18.3827 4.76304 18.4365C4.77997 18.4902 4.78575 18.5471 4.78001 18.6033V27.5966C4.78001 27.7036 4.73881 27.8062 4.66547 27.8819C4.59213 27.9575 4.49265 28 4.38893 28Z" fill="#0062BA"/>
<path d="M22.0307 5.23515C21.2732 4.45428 20.246 4.01562 19.175 4.01562C18.104 4.01562 17.0768 4.45428 16.3192 5.23515L16.2161 5.34153L16.1172 5.23515C15.3481 4.52902 14.3464 4.1525 13.3171 4.18254C12.2877 4.21257 11.3084 4.6469 10.5791 5.39676C9.84988 6.14662 9.42581 7.1554 9.39358 8.21694C9.36136 9.27849 9.7234 10.3127 10.4057 11.1081L15.5156 16.3782C15.6075 16.474 15.7169 16.5501 15.8375 16.602C15.9581 16.6539 16.0875 16.6807 16.2182 16.6807C16.3489 16.6807 16.4783 16.6539 16.5989 16.602C16.7195 16.5501 16.829 16.474 16.9209 16.3782L22.0307 11.1081C22.7826 10.3275 23.2046 9.27191 23.2046 8.17163C23.2046 7.07134 22.7826 6.01572 22.0307 5.23515Z" fill="#E30E08"/>
<path d="M12.8811 11.1081C12.3921 10.6035 12.0369 9.97783 11.8496 9.29108C11.6623 8.60432 11.6491 7.87947 11.8113 7.18594C11.9735 6.49242 12.3056 5.85346 12.7758 5.33027C13.2461 4.80708 13.8387 4.4172 14.497 4.19796C13.6347 3.91359 12.7048 3.93615 11.8565 4.26204C11.0082 4.58792 10.2906 5.19823 9.81881 5.99506C9.34702 6.79189 9.14841 7.72907 9.25482 8.65625C9.36124 9.58343 9.76652 10.4469 10.4057 11.1081L15.5155 16.3782C15.6074 16.474 15.7168 16.5501 15.8375 16.602C15.9581 16.6539 16.0875 16.6807 16.2181 16.6807C16.3488 16.6807 16.4782 16.6539 16.5988 16.602C16.7195 16.5501 16.8289 16.474 16.9208 16.3782L17.4537 15.8286L12.8811 11.1081Z" fill="#C40606"/>
<path d="M16.2203 13.874C18.2022 13.874 19.8088 12.217 19.8088 10.173C19.8088 8.12894 18.2022 6.47192 16.2203 6.47192C14.2385 6.47192 12.6318 8.12894 12.6318 10.173C12.6318 12.217 14.2385 13.874 16.2203 13.874Z" fill="#F9F7F8"/>
<path d="M12.8809 11.1081C12.8165 11.0461 12.7606 10.9796 12.7004 10.9131C12.8411 11.6214 13.1797 12.2716 13.6746 12.7836C14.1695 13.2956 14.799 13.6469 15.4853 13.7942L12.8809 11.1081Z" fill="#EFEDEF"/>
<path d="M17.9909 9.58772H16.9465V8.51064C16.9466 8.46908 16.9308 8.42915 16.9028 8.39935C16.8747 8.36955 16.8364 8.35223 16.7961 8.35107H15.6401C15.5998 8.35223 15.5615 8.36955 15.5334 8.39935C15.5053 8.42915 15.4896 8.46908 15.4897 8.51064V9.58772H14.4453C14.4051 9.58887 14.3668 9.60619 14.3387 9.63599C14.3106 9.66579 14.2949 9.70572 14.2949 9.74728V10.9352C14.2949 10.9763 14.3108 11.0158 14.339 11.0449C14.3672 11.074 14.4054 11.0903 14.4453 11.0903H15.494V12.1718C15.494 12.1922 15.4978 12.2124 15.5054 12.2312C15.513 12.25 15.524 12.2671 15.538 12.2815C15.552 12.2959 15.5686 12.3073 15.5868 12.3151C15.6051 12.3229 15.6246 12.3269 15.6444 12.3269H16.8004C16.8202 12.3269 16.8397 12.3229 16.858 12.3151C16.8762 12.3073 16.8928 12.2959 16.9068 12.2815C16.9207 12.2671 16.9318 12.25 16.9394 12.2312C16.9469 12.2124 16.9508 12.1922 16.9508 12.1718V11.0903H17.9951C18.0354 11.0903 18.0742 11.0741 18.1031 11.0451C18.132 11.0162 18.1487 10.9767 18.1499 10.9352V9.74728C18.1499 9.70496 18.1336 9.66438 18.1045 9.63445C18.0755 9.60453 18.0362 9.58772 17.9951 9.58772H17.9909Z" fill="#E30E08"/>
<path d="M26.1219 15.0398H25.2624V14.1533C25.263 14.1233 25.2577 14.0934 25.247 14.0655C25.2362 14.0375 25.2202 14.0121 25.1998 13.9906C25.1793 13.9692 25.155 13.9521 25.1281 13.9405C25.1012 13.9288 25.0724 13.9228 25.0432 13.9229H23.9001C23.8709 13.9228 23.8421 13.9288 23.8152 13.9405C23.7883 13.9521 23.764 13.9692 23.7435 13.9906C23.7231 14.0121 23.7071 14.0375 23.6963 14.0655C23.6856 14.0934 23.6803 14.1233 23.6809 14.1533V15.0398H22.8214C22.7621 15.0398 22.7053 15.0641 22.6634 15.1073C22.6214 15.1506 22.5979 15.2092 22.5979 15.2703V16.4449C22.5979 16.506 22.6214 16.5646 22.6634 16.6079C22.7053 16.6511 22.7621 16.6754 22.8214 16.6754H23.6809V17.5619C23.6803 17.5919 23.6856 17.6218 23.6963 17.6497C23.7071 17.6777 23.7231 17.7031 23.7435 17.7246C23.764 17.746 23.7883 17.7631 23.8152 17.7747C23.8421 17.7864 23.8709 17.7923 23.9001 17.7923H25.0432C25.0724 17.7923 25.1012 17.7864 25.1281 17.7747C25.155 17.7631 25.1793 17.746 25.1998 17.7246C25.2202 17.7031 25.2362 17.6777 25.247 17.6497C25.2577 17.6218 25.263 17.5919 25.2624 17.5619V16.6754H26.1219C26.1511 16.6754 26.1799 16.6694 26.2068 16.6578C26.2337 16.6461 26.258 16.6291 26.2784 16.6076C26.2989 16.5861 26.3149 16.5607 26.3257 16.5328C26.3364 16.5048 26.3417 16.4749 26.3411 16.4449V15.2703C26.3417 15.2402 26.3364 15.2104 26.3257 15.1824C26.3149 15.1545 26.2989 15.129 26.2784 15.1076C26.258 15.0861 26.2337 15.0691 26.2068 15.0574C26.1799 15.0458 26.1511 15.0398 26.1219 15.0398Z" fill="#80D261"/>
<path d="M6.21097 15.0398H7.07049V14.1533C7.06992 14.1233 7.07517 14.0934 7.08593 14.0655C7.09668 14.0375 7.11274 14.0121 7.13315 13.9906C7.15356 13.9692 7.17791 13.9521 7.20479 13.9405C7.23167 13.9288 7.26052 13.9228 7.28967 13.9229H8.42853C8.45768 13.9228 8.48654 13.9288 8.51341 13.9405C8.54029 13.9521 8.56464 13.9692 8.58505 13.9906C8.60546 14.0121 8.62152 14.0375 8.63228 14.0655C8.64303 14.0934 8.64828 14.1233 8.64771 14.1533V15.0398H9.50723C9.53638 15.0398 9.56523 15.0458 9.59211 15.0574C9.61898 15.0691 9.64334 15.0861 9.66375 15.1076C9.68416 15.129 9.70021 15.1545 9.71097 15.1824C9.72173 15.2104 9.72698 15.2402 9.72641 15.2703V16.4449C9.72698 16.4749 9.72173 16.5048 9.71097 16.5328C9.70021 16.5607 9.68416 16.5861 9.66375 16.6076C9.64334 16.6291 9.61898 16.6461 9.59211 16.6578C9.56523 16.6694 9.53638 16.6754 9.50723 16.6754H8.64771V17.5619C8.64828 17.5919 8.64303 17.6218 8.63228 17.6497C8.62152 17.6777 8.60546 17.7031 8.58505 17.7246C8.56464 17.746 8.54029 17.7631 8.51341 17.7747C8.48654 17.7864 8.45768 17.7923 8.42853 17.7923H7.29826C7.26912 17.7923 7.24026 17.7864 7.21338 17.7747C7.18651 17.7631 7.16215 17.746 7.14174 17.7246C7.12133 17.7031 7.10528 17.6777 7.09452 17.6497C7.08376 17.6218 7.07852 17.5919 7.07909 17.5619V16.6754H6.21957C6.1603 16.6754 6.10346 16.6511 6.06155 16.6079C6.01964 16.5646 5.99609 16.506 5.99609 16.4449V15.2703C5.99605 15.2107 6.01841 15.1534 6.05848 15.1104C6.09855 15.0674 6.15321 15.0421 6.21097 15.0398Z" fill="#80D261"/>
</svg>
