<svg width="60" height="60" viewBox="0 0 60 60" fill="none" xmlns="http://www.w3.org/2000/svg">
<path d="M49.1699 1.09003H41.7099C41.0389 1.09003 40.3954 1.35658 39.921 1.83105C39.4465 2.30551 39.1799 2.94903 39.1799 3.62003V10.94C39.1799 11.6119 39.4462 12.2565 39.9203 12.7326C40.3945 13.2086 41.038 13.4774 41.7099 13.48C42.5399 13.48 42.6599 13.63 42.9199 13.88H47.5999C47.8699 13.62 48.0199 13.48 48.8599 13.48H49.2199C49.8822 13.4669 50.513 13.1946 50.9767 12.7216C51.4404 12.2485 51.7001 11.6125 51.6999 10.95V3.62003C51.6999 2.94903 51.4334 2.30551 50.9589 1.83105C50.4844 1.35658 49.8409 1.09003 49.1699 1.09003Z" fill="#006EE5"/>
<path d="M56.35 1.09003H48.77C49.441 1.09003 50.0845 1.35658 50.559 1.83105C51.0335 2.30551 51.3 2.94903 51.3 3.62003V10.94C51.3001 11.6025 51.0405 12.2385 50.5768 12.7116C50.1131 13.1846 49.4823 13.4569 48.82 13.47H56.35C57.0219 13.4674 57.6654 13.1986 58.1396 12.7226C58.6138 12.2465 58.88 11.6019 58.88 10.93V3.62003C58.88 2.94903 58.6135 2.30551 58.139 1.83105C57.6645 1.35658 57.021 1.09003 56.35 1.09003Z" fill="#0062BA"/>
<path d="M55 6.25001H47.4C47.1693 6.25001 46.948 6.15835 46.7848 5.99519C46.6217 5.83204 46.53 5.61075 46.53 5.38001C46.53 5.14927 46.6217 4.92798 46.7848 4.76483C46.948 4.60167 47.1693 4.51001 47.4 4.51001H55C55.2308 4.51001 55.4521 4.60167 55.6152 4.76483C55.7784 4.92798 55.87 5.14927 55.87 5.38001C55.87 5.61075 55.7784 5.83204 55.6152 5.99519C55.4521 6.15835 55.2308 6.25001 55 6.25001Z" fill="#F2F9FF"/>
<path d="M44 6.25001H43.08C42.8492 6.25001 42.6279 6.15835 42.4648 5.99519C42.3016 5.83204 42.21 5.61075 42.21 5.38001C42.21 5.14927 42.3016 4.92798 42.4648 4.76483C42.6279 4.60167 42.8492 4.51001 43.08 4.51001H44C44.2307 4.51001 44.452 4.60167 44.6151 4.76483C44.7783 4.92798 44.87 5.14927 44.87 5.38001C44.87 5.61075 44.7783 5.83204 44.6151 5.99519C44.452 6.15835 44.2307 6.25001 44 6.25001Z" fill="#F2F9FF"/>
<path d="M55 10.34H43.08C42.8492 10.34 42.6279 10.2483 42.4648 10.0852C42.3016 9.922 42.21 9.70071 42.21 9.46998C42.21 9.23924 42.3016 9.01795 42.4648 8.85479C42.6279 8.69164 42.8492 8.59998 43.08 8.59998H55C55.2307 8.59998 55.452 8.69164 55.6151 8.85479C55.7783 9.01795 55.87 9.23924 55.87 9.46998C55.87 9.70071 55.7783 9.922 55.6151 10.0852C55.452 10.2483 55.2307 10.34 55 10.34Z" fill="#F2F9FF"/>
<path d="M30.53 36.51C29.9467 36.3998 29.4208 36.0879 29.0442 35.6291C28.6676 35.1702 28.4643 34.5936 28.47 34V27H18.78V34C18.779 34.5896 18.5729 35.1606 18.197 35.6149C17.8212 36.0692 17.299 36.3786 16.72 36.49L19.12 39.7H28.12C28.9893 38.6881 29.7942 37.6227 30.53 36.51Z" fill="#FFDDCE"/>
<path d="M45.3499 55.87V51.73C45.3511 48.2472 44.1403 44.8725 41.9252 42.1848C39.7101 39.4971 36.6288 37.6641 33.2099 37C32.5199 36.89 13.9999 37 13.9999 37C10.5865 37.6702 7.51212 39.5059 5.303 42.193C3.09387 44.8801 1.88734 48.2514 1.8899 51.73V55.87H45.3499Z" fill="#E30E08"/>
<path d="M32.4901 36.25H7.67008C7.30694 36.248 6.94724 36.3205 6.61316 36.4628C6.27907 36.6052 5.97767 36.8144 5.72752 37.0777C5.47738 37.3409 5.28379 37.6526 5.15868 37.9936C5.03358 38.3345 4.9796 38.6974 5.00008 39.06L5.93008 56.34H34.2201L35.1601 39.06C35.1791 38.6977 35.1241 38.3354 34.9985 37.9952C34.8728 37.6549 34.6792 37.3438 34.4293 37.0808C34.1795 36.8179 33.8787 36.6086 33.5453 36.4657C33.2118 36.3229 32.8528 36.2495 32.4901 36.25Z" fill="#C6CADC"/>
<path d="M39.57 36.25H32C32.3627 36.2495 32.7218 36.3229 33.0552 36.4658C33.3886 36.6086 33.6894 36.8179 33.9393 37.0809C34.1891 37.3438 34.3828 37.6549 34.5084 37.9952C34.634 38.3355 34.689 38.6978 34.67 39.06L33.73 56.34H41.3L42.24 39.06C42.259 38.6978 42.204 38.3355 42.0784 37.9952C41.9528 37.6549 41.7591 37.3438 41.5093 37.0809C41.2594 36.8179 40.9586 36.6086 40.6252 36.4658C40.2918 36.3229 39.9327 36.2495 39.57 36.25Z" fill="#ABB1C3"/>
<path d="M38.72 56.83V55.4L38.41 55H3.06995C2.574 55 2.09835 55.197 1.74766 55.5477C1.39697 55.8984 1.19995 56.374 1.19995 56.87C1.19995 57.366 1.39697 57.8416 1.74766 58.1923C2.09835 58.543 2.574 58.74 3.06995 58.74H36.8499C37.3459 58.74 37.8215 58.543 38.1722 58.1923C38.5229 57.8416 38.72 57.366 38.72 56.87V56.83Z" fill="#A1A8B7"/>
<path d="M44.18 55H38.41V56.87C38.41 57.366 38.213 57.8416 37.8623 58.1923C37.5116 58.543 37.036 58.74 36.54 58.74H44.18C44.676 58.74 45.1516 58.543 45.5023 58.1923C45.853 57.8416 46.05 57.366 46.05 56.87C46.05 56.374 45.853 55.8984 45.5023 55.5477C45.1516 55.197 44.676 55 44.18 55Z" fill="#8D94A0"/>
<path d="M32.6601 17.89C32.6601 17.89 35.3001 16.51 34.7401 20.11C34.1801 23.71 33.7401 24.73 32.7401 23.81C31.7401 22.89 32.6601 17.89 32.6601 17.89Z" fill="#FFCBBE"/>
<path d="M14.4899 17.9C14.4899 17.9 11.8099 16.49 12.3699 20.15C12.9299 23.81 13.3699 24.86 14.3699 23.92C15.3699 22.98 14.4899 17.9 14.4899 17.9Z" fill="#FFCBBE"/>
<path d="M25.0001 30.14C25.9443 29.2829 26.6989 28.2379 27.2155 27.072C27.7322 25.9062 27.9994 24.6452 28.0001 23.37V10.9C28.018 9.40062 27.675 7.91896 27.0001 6.57998C25.8963 6.18658 24.7319 5.99026 23.5601 5.99998C22.3235 5.9934 21.0978 6.23061 19.9529 6.69806C18.8081 7.16551 17.7666 7.85402 16.888 8.72424C16.0094 9.59446 15.311 10.6293 14.8326 11.7696C14.3543 12.91 14.1053 14.1334 14.1001 15.37V17.21V23.39C14.1152 24.638 14.3897 25.8692 14.9061 27.0054C15.4226 28.1416 16.1697 29.158 17.1001 29.99C18.3588 31.0914 19.8703 31.8643 21.5001 32.24C22.7931 31.7761 23.9823 31.0626 25.0001 30.14Z" fill="#FFDDCE"/>
<path d="M33.1 15.24C33.0948 13.257 32.451 11.3284 31.2641 9.73981C30.0772 8.15124 28.4102 6.98717 26.51 6.41998C27.3379 7.82591 27.7731 9.42839 27.77 11.06V23.26C27.7577 24.5114 27.4845 25.7464 26.968 26.8863C26.4514 28.0261 25.7028 29.0457 24.77 29.88C23.6802 30.8493 22.3944 31.5724 21 32C22.5876 32.4681 24.2697 32.5151 25.8809 32.1364C27.4922 31.7577 28.9772 30.9663 30.19 29.84C31.1228 29.0057 31.8714 27.9861 32.388 26.8463C32.9045 25.7064 33.1777 24.4714 33.19 23.22L33.1 15.24Z" fill="#FFCBBE"/>
<path d="M23.2899 12.14H23.9999C24.8939 12.1378 25.7818 11.9927 26.6299 11.71C27.0727 11.566 27.5344 11.4885 27.9999 11.48V10.9C28.0009 9.22998 27.5555 7.59006 26.7099 6.14998C26.3946 5.59939 26.0225 5.08325 25.5999 4.60998L24.8399 4.34998H19.2899C17.3211 4.35263 15.4338 5.1366 14.0426 6.5297C12.6513 7.92281 11.8699 9.81115 11.8699 11.78V16.69C11.8673 17.0413 11.9749 17.3847 12.1776 17.6717C12.3803 17.9587 12.6679 18.175 12.9999 18.29L14.8299 18.93C14.9784 18.9784 15.1361 18.9914 15.2905 18.9679C15.4449 18.9444 15.5917 18.8851 15.719 18.7947C15.8464 18.7043 15.9508 18.5853 16.0238 18.4473C16.0969 18.3093 16.1367 18.1561 16.1399 18V14.54C16.1319 14.141 16.2036 13.7444 16.3508 13.3735C16.498 13.0026 16.7177 12.6647 16.9971 12.3798C17.2765 12.0948 17.6099 11.8684 17.9778 11.7139C18.3458 11.5594 18.7409 11.4799 19.1399 11.48C19.6461 11.4707 20.1501 11.5485 20.6299 11.71C21.4784 11.9912 22.3661 12.1363 23.2599 12.14H23.2899Z" fill="#756E78"/>
<path d="M32.4901 8.23002H32.3901C32.1249 8.23002 31.8705 8.12466 31.683 7.93712C31.4954 7.74959 31.3901 7.49523 31.3901 7.23002C31.3901 6.46089 31.0846 5.72326 30.5407 5.17941C29.9968 4.63555 29.2592 4.33002 28.4901 4.33002H24.8401C25.7685 5.18304 26.5086 6.22044 27.0131 7.37585C27.5176 8.53127 27.7755 9.77926 27.7701 11.04V11.47H28.1101C28.5092 11.4699 28.9042 11.5495 29.2722 11.704C29.6401 11.8585 29.9735 12.0848 30.2529 12.3698C30.5323 12.6548 30.752 12.9926 30.8992 13.3635C31.0464 13.7345 31.1181 14.131 31.1101 14.53V18C31.1133 18.1562 31.1531 18.3094 31.2262 18.4474C31.2992 18.5854 31.4037 18.7044 31.531 18.7948C31.6583 18.8852 31.8051 18.9445 31.9595 18.968C32.1139 18.9915 32.2716 18.9785 32.4201 18.93L34.2401 18.29C34.574 18.1767 34.8637 17.9612 35.0683 17.674C35.2729 17.3869 35.382 17.0426 35.3801 16.69V11.13C35.3814 10.7497 35.3076 10.3728 35.163 10.021C35.0183 9.66921 34.8057 9.34943 34.5372 9.08001C34.2687 8.81059 33.9496 8.59682 33.5984 8.45096C33.2471 8.3051 32.8705 8.23001 32.4901 8.23002Z" fill="#665E66"/>
<path d="M32.0901 19V22.45H32.9101C32.9101 22.45 32.6701 18.51 33.9101 18.36L32.0901 19Z" fill="#665E66"/>
<path d="M14.83 18.93V22.38H14C14 22.38 14.24 18.44 13 18.29L14.83 18.93Z" fill="#756E78"/>
<path d="M48.8 13.48H41.71C41.9081 13.4786 42.1045 13.5172 42.2874 13.5936C42.4703 13.6699 42.6358 13.7825 42.774 13.9245C42.9123 14.0665 43.0204 14.2349 43.0919 14.4198C43.1633 14.6046 43.1967 14.802 43.19 15V19.53C43.1856 19.6558 43.2237 19.7794 43.2982 19.8809C43.3727 19.9824 43.4792 20.0558 43.6005 20.0893C43.7219 20.1228 43.851 20.1145 43.967 20.0656C44.083 20.0168 44.1792 19.9302 44.24 19.82L47.59 14.24C47.7151 14.029 47.8918 13.8531 48.1034 13.7289C48.315 13.6048 48.5547 13.5363 48.8 13.53V13.48Z" fill="#0062BA"/>
<path d="M23.9501 48.32H23.8701H23.7901H23.3201L26.0501 44.81V45.51L23.9501 48.32Z" fill="#E42528"/>
<path d="M21.36 45.61C21.3589 45.0808 21.5521 44.5697 21.9029 44.1735C22.2538 43.7774 22.7378 43.5238 23.2632 43.4609C23.7886 43.398 24.3189 43.5301 24.7533 43.8323C25.1877 44.1344 25.4961 44.5855 25.62 45.1L26.04 44.55C25.855 44.1076 25.5572 43.7214 25.1762 43.4301C24.7953 43.1388 24.3446 42.9526 23.8691 42.8901C23.3936 42.8276 22.9101 42.891 22.4668 43.0739C22.0235 43.2569 21.636 43.5529 21.343 43.9325C21.0499 44.3122 20.8617 44.762 20.797 45.2372C20.7323 45.7124 20.7935 46.1962 20.9744 46.6403C21.1553 47.0845 21.4496 47.4733 21.8278 47.7681C22.2061 48.0628 22.6551 48.2531 23.13 48.32L23.55 47.78C23.2633 47.7826 22.979 47.7285 22.7134 47.6206C22.4478 47.5127 22.2062 47.3533 22.0026 47.1515C21.799 46.9498 21.6374 46.7097 21.5271 46.4451C21.4168 46.1805 21.36 45.8967 21.36 45.61ZM25.46 46.61V47.72H24.62L24.25 48.21L24.19 48.29H26V45.89L25.46 46.61Z" fill="#0A55A2"/>
</svg>
