<svg width="60" height="60" viewBox="0 0 60 60" fill="none" xmlns="http://www.w3.org/2000/svg">
<g clip-path="url(#clip0_495_3417)">
<path d="M39.1999 24.85C38.8971 24.6759 38.5627 24.5636 38.2162 24.5197C37.8696 24.4757 37.5178 24.501 37.1811 24.594C36.8444 24.687 36.5295 24.8459 36.2546 25.0615C35.9798 25.2771 35.7505 25.5451 35.5799 25.85L35.2299 26.45C35.2195 26.4748 35.2004 26.4949 35.1761 26.5065C35.1519 26.5181 35.1242 26.5204 35.0984 26.5131C35.0725 26.5057 35.0503 26.4891 35.0358 26.4664C35.0214 26.4437 35.0157 26.4166 35.0199 26.39V17.57C35.0378 17.3392 35.0077 17.1071 34.9317 16.8884C34.8556 16.6698 34.7351 16.4692 34.5778 16.2993C34.4205 16.1294 34.2298 15.9938 34.0177 15.9011C33.8055 15.8084 33.5765 15.7605 33.3449 15.7605C33.1134 15.7605 32.8844 15.8084 32.6722 15.9011C32.4601 15.9938 32.2693 16.1294 32.1121 16.2993C31.9548 16.4692 31.8343 16.6698 31.7582 16.8884C31.6822 17.1071 31.6521 17.3392 31.6699 17.57V15.57C31.6878 15.3392 31.6577 15.1071 31.5817 14.8884C31.5056 14.6698 31.3851 14.4692 31.2278 14.2993C31.0705 14.1294 30.8798 13.9938 30.6677 13.9011C30.4555 13.8084 30.2265 13.7605 29.9949 13.7605C29.7634 13.7605 29.5344 13.8084 29.3222 13.9011C29.1101 13.9938 28.9193 14.1294 28.7621 14.2993C28.6048 14.4692 28.4843 14.6698 28.4082 14.8884C28.3322 15.1071 28.3021 15.3392 28.3199 15.57V17.57C28.3202 17.3438 28.2745 17.1199 28.1856 16.9119C28.0967 16.7039 27.9665 16.5161 27.8029 16.3599C27.6392 16.2038 27.4456 16.0825 27.2336 16.0034C27.0217 15.9244 26.7959 15.8892 26.5699 15.9C26.1402 15.933 25.7391 16.1279 25.4476 16.4453C25.1562 16.7628 24.9962 17.1791 24.9999 17.61V19.8C24.9999 19.3571 24.824 18.9323 24.5108 18.6191C24.1976 18.306 23.7729 18.13 23.3299 18.13C22.887 18.13 22.4623 18.306 22.1491 18.6191C21.8359 18.9323 21.6599 19.3571 21.6599 19.8V31.69C21.6551 33.1748 22.148 34.6183 23.0599 35.79C23.6081 36.4963 23.9039 37.3659 23.8999 38.26V58.1C23.8999 58.1212 23.9084 58.1416 23.9234 58.1566C23.9384 58.1716 23.9587 58.18 23.9799 58.18H32.6999C32.7212 58.18 32.7415 58.1716 32.7565 58.1566C32.7715 58.1416 32.7799 58.1212 32.7799 58.1V38.26C32.7754 37.3705 33.0675 36.5049 33.6099 35.8C33.8396 35.5046 34.0437 35.1901 34.2199 34.86L39.4499 25.86C39.5033 25.7791 39.5392 25.688 39.5555 25.5925C39.5717 25.497 39.568 25.3991 39.5445 25.3051C39.521 25.2111 39.4783 25.123 39.4189 25.0464C39.3596 24.9698 39.2851 24.9063 39.1999 24.86V24.85Z" fill="#FFCEBF"/>
<path d="M27.4599 25.42C27.688 25.42 27.9068 25.3294 28.068 25.1681C28.2293 25.0069 28.3199 24.7881 28.3199 24.56V17.56C28.32 17.3369 28.2755 17.1159 28.1892 16.9101C28.1029 16.7043 27.9765 16.5178 27.8173 16.3614C27.6581 16.205 27.4693 16.0818 27.262 15.9992C27.0547 15.9166 26.8331 15.876 26.6099 15.88V24.55C26.6086 24.663 26.6295 24.7751 26.6715 24.8799C26.7135 24.9848 26.7758 25.0803 26.8547 25.1611C26.9337 25.2419 27.0277 25.3063 27.1316 25.3508C27.2354 25.3952 27.347 25.4187 27.4599 25.42Z" fill="#FFB09E"/>
<path d="M25 24.56V19.8C25 19.3571 24.824 18.9323 24.5108 18.6191C24.1976 18.306 23.7729 18.13 23.33 18.13V24.56C23.3169 24.6801 23.3294 24.8015 23.3664 24.9164C23.4035 25.0313 23.4643 25.1372 23.5449 25.227C23.6256 25.3169 23.7243 25.3888 23.8345 25.438C23.9448 25.4872 24.0642 25.5126 24.185 25.5126C24.3057 25.5126 24.4251 25.4872 24.5354 25.438C24.6456 25.3888 24.7443 25.3169 24.825 25.227C24.9056 25.1372 24.9664 25.0313 25.0035 24.9164C25.0405 24.8015 25.053 24.6801 25.04 24.56H25Z" fill="#FFB09E"/>
<path d="M30.81 25.42C31.0381 25.42 31.2568 25.3294 31.4181 25.1681C31.5794 25.0068 31.67 24.7881 31.67 24.56V15.56C31.6674 15.1179 31.4906 14.6947 31.178 14.382C30.8654 14.0694 30.4421 13.8926 30 13.89V24.56C30.0026 24.7873 30.094 25.0045 30.2548 25.1653C30.4155 25.326 30.6327 25.4174 30.86 25.42H30.81Z" fill="#FFB09E"/>
<path d="M0.640098 44C0.627678 44.0093 0.617598 44.0214 0.610655 44.0353C0.603712 44.0492 0.600098 44.0645 0.600098 44.08C0.600098 44.0955 0.603712 44.1108 0.610655 44.1247C0.617598 44.1386 0.627678 44.1507 0.640098 44.16L2.7801 46.3C2.78941 46.3124 2.80149 46.3225 2.81538 46.3294C2.82926 46.3364 2.84457 46.34 2.8601 46.34C2.87562 46.34 2.89093 46.3364 2.90482 46.3294C2.9187 46.3225 2.93078 46.3124 2.9401 46.3L4.3301 44.9V43.11L2.6401 42L0.640098 44Z" fill="#80D261"/>
<path d="M34.25 59.46H22.73C22.716 59.4601 22.7021 59.4572 22.6893 59.4516C22.6765 59.4459 22.665 59.4377 22.6555 59.4273C22.6461 59.4169 22.639 59.4047 22.6346 59.3914C22.6302 59.3781 22.6286 59.364 22.63 59.35V40.35C22.6284 40.3365 22.6299 40.3228 22.6344 40.3099C22.6388 40.2971 22.6461 40.2854 22.6558 40.2757C22.6654 40.2661 22.6771 40.2588 22.6899 40.2543C22.7028 40.2499 22.7165 40.2484 22.73 40.25H34.25C34.264 40.2486 34.2781 40.2502 34.2914 40.2546C34.3047 40.259 34.3169 40.2661 34.3273 40.2755C34.3377 40.285 34.3459 40.2965 34.3516 40.3093C34.3572 40.3221 34.3601 40.336 34.36 40.35V59.35C34.36 59.3792 34.3484 59.4072 34.3278 59.4278C34.3072 59.4484 34.2792 59.46 34.25 59.46Z" fill="#FCC400"/>
<path d="M58.7499 11.82C58.4501 11.6438 58.1184 11.5286 57.7739 11.4811C57.4294 11.4335 57.0789 11.4544 56.7425 11.5427C56.4061 11.631 56.0905 11.7848 55.8138 11.9954C55.537 12.2061 55.3046 12.4693 55.1299 12.77L54.7799 13.38C54.7695 13.4048 54.7503 13.4249 54.7261 13.4365C54.7018 13.4481 54.6742 13.4504 54.6483 13.443C54.6225 13.4356 54.6002 13.4191 54.5858 13.3964C54.5713 13.3737 54.5657 13.3465 54.5699 13.32V4.53999C54.5878 4.30914 54.5577 4.0771 54.4816 3.85842C54.4056 3.63974 54.2851 3.43915 54.1278 3.26924C53.9705 3.09933 53.7798 2.96376 53.5677 2.87104C53.3555 2.77833 53.1265 2.73047 52.8949 2.73047C52.6634 2.73047 52.4344 2.77833 52.2222 2.87104C52.01 2.96376 51.8193 3.09933 51.662 3.26924C51.5048 3.43915 51.3843 3.63974 51.3082 3.85842C51.2321 4.0771 51.2021 4.30914 51.2199 4.53999V2.53999C51.2378 2.30914 51.2077 2.0771 51.1316 1.85842C51.0556 1.63974 50.9351 1.43915 50.7778 1.26924C50.6205 1.09933 50.4298 0.963757 50.2177 0.871043C50.0055 0.778328 49.7765 0.730469 49.5449 0.730469C49.3134 0.730469 49.0844 0.778328 48.8722 0.871043C48.66 0.963757 48.4693 1.09933 48.312 1.26924C48.1548 1.43915 48.0343 1.63974 47.9582 1.85842C47.8821 2.0771 47.8521 2.30914 47.8699 2.53999V4.53999C47.8701 4.31335 47.8245 4.08902 47.7357 3.88049C47.6469 3.67196 47.5169 3.48355 47.3534 3.3266C47.1899 3.16964 46.9963 3.04739 46.7843 2.9672C46.5724 2.88701 46.3464 2.85054 46.1199 2.85999C45.6849 2.89041 45.2776 3.08497 44.9806 3.4043C44.6835 3.72362 44.5189 4.14386 44.5199 4.57999V6.76999C44.4873 6.3481 44.2967 5.95407 43.9862 5.66662C43.6756 5.37918 43.2681 5.21951 42.8449 5.21951C42.4218 5.21951 42.0142 5.37918 41.7037 5.66662C41.3932 5.95407 41.2025 6.3481 41.1699 6.76999V18.66C41.1702 20.1455 41.6665 21.5885 42.5799 22.76C43.1281 23.4663 43.4238 24.3359 43.4199 25.23V31C43.4198 31.0101 43.4219 31.0201 43.426 31.0293C43.4302 31.0385 43.4362 31.0467 43.4438 31.0534C43.4514 31.06 43.4604 31.065 43.4701 31.0678C43.4797 31.0707 43.4899 31.0714 43.4999 31.07H52.2499C52.2591 31.07 52.2682 31.0682 52.2767 31.0647C52.2852 31.0611 52.2929 31.056 52.2994 31.0495C52.3059 31.043 52.3111 31.0353 52.3146 31.0268C52.3181 31.0183 52.3199 31.0092 52.3199 31V25.23C52.3154 24.3405 52.6074 23.4749 53.1499 22.77C53.3886 22.4754 53.5963 22.157 53.7699 21.82L58.9999 12.82C59.0913 12.6605 59.1163 12.4715 59.0695 12.2938C59.0228 12.116 58.908 11.9638 58.7499 11.87V11.82Z" fill="#FED2A4"/>
<path d="M44.5201 11.53V6.76998C44.5201 6.32706 44.3441 5.90229 44.0309 5.58911C43.7177 5.27592 43.293 5.09998 42.85 5.09998H42.8V11.53C42.8 11.7581 42.8907 11.9768 43.0519 12.1381C43.2132 12.2994 43.432 12.39 43.66 12.39C43.8881 12.39 44.1069 12.2994 44.2682 12.1381C44.4294 11.9768 44.5201 11.7581 44.5201 11.53Z" fill="#FFBD86"/>
<path d="M46.9999 12.38C47.1124 12.3813 47.224 12.3603 47.3282 12.3182C47.4325 12.2761 47.5274 12.2137 47.6074 12.1346C47.6874 12.0556 47.7509 11.9614 47.7942 11.8576C47.8376 11.7538 47.8599 11.6425 47.8599 11.53V4.53002C47.86 4.306 47.8152 4.08422 47.7283 3.87774C47.6414 3.67126 47.514 3.48425 47.3538 3.32772C47.1935 3.17118 47.0036 3.04828 46.7951 2.96624C46.5866 2.8842 46.3639 2.84469 46.1399 2.85002V11.52C46.1399 11.7481 46.2305 11.9669 46.3918 12.1281C46.5531 12.2894 46.7718 12.38 46.9999 12.38Z" fill="#FFBD86"/>
<path d="M50.3601 12.38C50.4725 12.3813 50.5841 12.3603 50.6884 12.3182C50.7927 12.2761 50.8876 12.2137 50.9676 12.1346C51.0476 12.0555 51.1111 11.9614 51.1544 11.8576C51.1977 11.7538 51.2201 11.6425 51.2201 11.53V2.52999C51.2201 2.31068 51.1769 2.09352 51.0929 1.8909C51.009 1.68829 50.886 1.50419 50.7309 1.34912C50.5758 1.19404 50.3917 1.07103 50.1891 0.987107C49.9865 0.903181 49.7694 0.859985 49.55 0.859985V11.53C49.5522 11.7479 49.6371 11.9569 49.7874 12.1147C49.9378 12.2725 50.1425 12.3673 50.3601 12.38Z" fill="#FFBD86"/>
<path d="M53.7999 59.46H42.2799C42.2507 59.46 42.2228 59.4484 42.2021 59.4278C42.1815 59.4071 42.1699 59.3792 42.1699 59.35V27.29C42.1699 27.2608 42.1815 27.2328 42.2021 27.2122C42.2228 27.1916 42.2507 27.18 42.2799 27.18H53.7999C53.8291 27.18 53.8571 27.1916 53.8777 27.2122C53.8983 27.2328 53.9099 27.2608 53.9099 27.29V59.35C53.9099 59.3792 53.8983 59.4071 53.8777 59.4278C53.8571 59.4484 53.8291 59.46 53.7999 59.46Z" fill="#006EE5"/>
<path d="M0.789953 37.39C1.09279 37.2159 1.42717 37.1036 1.77372 37.0596C2.12026 37.0157 2.47209 37.041 2.8088 37.134C3.14551 37.227 3.46041 37.3859 3.73526 37.6015C4.01011 37.8171 4.23944 38.0851 4.40995 38.39L4.75995 38.99C4.77321 39.0218 4.79857 39.0471 4.83045 39.0602C4.86234 39.0733 4.89813 39.0733 4.92995 39.06C4.96178 39.0467 4.98703 39.0214 5.00016 38.9895C5.01329 38.9576 5.01321 38.9218 4.99995 38.89V30.11C4.9821 29.8791 5.01216 29.6471 5.08824 29.4284C5.16433 29.2097 5.28479 29.0092 5.44207 28.8392C5.59935 28.6693 5.79006 28.5338 6.00222 28.441C6.21438 28.3483 6.44342 28.3005 6.67495 28.3005C6.90649 28.3005 7.13552 28.3483 7.34768 28.441C7.55984 28.5338 7.75055 28.6693 7.90783 28.8392C8.06512 29.0092 8.18558 29.2097 8.26166 29.4284C8.33774 29.6471 8.3678 29.8791 8.34995 30.11V28.11C8.38257 27.6881 8.5732 27.2941 8.88372 27.0066C9.19425 26.7192 9.60181 26.5595 10.025 26.5595C10.4481 26.5595 10.8557 26.7192 11.1662 27.0066C11.4767 27.2941 11.6673 27.6881 11.7 28.11V30.11C11.6996 29.8829 11.7456 29.6581 11.8351 29.4494C11.9246 29.2407 12.0557 29.0524 12.2205 28.8961C12.3852 28.7398 12.5801 28.6187 12.7932 28.5403C13.0063 28.4619 13.2332 28.4278 13.46 28.44C13.886 28.4802 14.2812 28.6796 14.5667 28.9985C14.8522 29.3173 15.0069 29.7321 15 30.16V32.35C14.9821 32.1191 15.0122 31.8871 15.0882 31.6684C15.1643 31.4497 15.2848 31.2492 15.4421 31.0792C15.5994 30.9093 15.7901 30.7738 16.0022 30.681C16.2144 30.5883 16.4434 30.5405 16.675 30.5405C16.9065 30.5405 17.1355 30.5883 17.3477 30.681C17.5598 30.7738 17.7506 30.9093 17.9078 31.0792C18.0651 31.2492 18.1856 31.4497 18.2617 31.6684C18.3377 31.8871 18.3678 32.1191 18.35 32.35V44.23C18.3668 45.7116 17.892 47.157 17 48.34C16.4539 49.0436 16.1583 49.9093 16.16 50.8V58.1C16.1614 58.11 16.1607 58.1202 16.1578 58.1299C16.1549 58.1395 16.15 58.1485 16.1434 58.1561C16.1367 58.1637 16.1285 58.1698 16.1193 58.1739C16.1101 58.178 16.1 58.1801 16.09 58.18H7.28995C7.27985 58.1801 7.26985 58.178 7.26064 58.1739C7.25142 58.1698 7.2432 58.1637 7.23655 58.1561C7.2299 58.1485 7.22498 58.1395 7.22211 58.1299C7.21925 58.1202 7.21851 58.11 7.21995 58.1V50.8C7.22228 49.9139 6.93034 49.0522 6.38995 48.35C6.15697 48.0337 5.94964 47.6993 5.76995 47.35L0.539953 38.35C0.488115 38.2686 0.453396 38.1776 0.437915 38.0824C0.422434 37.9872 0.426515 37.8898 0.44991 37.7962C0.473304 37.7027 0.515522 37.6148 0.573985 37.5381C0.632449 37.4614 0.705933 37.3974 0.789953 37.35V37.39Z" fill="#F1B0A2"/>
<path d="M10.8101 38C11.0382 38 11.2569 37.9094 11.4182 37.7481C11.5795 37.5868 11.6701 37.3681 11.6701 37.14V28.14C11.6741 27.9182 11.6338 27.6978 11.5517 27.4917C11.4696 27.2856 11.3472 27.098 11.1917 26.9397C11.0362 26.7814 10.8508 26.6557 10.6462 26.5699C10.4416 26.4841 10.222 26.44 10.0001 26.44V37.1C9.99178 37.3258 10.0717 37.5461 10.2228 37.714C10.374 37.882 10.5846 37.9846 10.8101 38Z" fill="#EB9C8D"/>
<path d="M8.3201 37.1V30.1C8.32011 29.6561 8.14448 29.2303 7.83158 28.9156C7.51868 28.6008 7.09393 28.4226 6.6501 28.42H6.6001V37.1C6.6001 37.3281 6.6907 37.5468 6.85199 37.7081C7.01327 37.8694 7.23201 37.96 7.4601 37.96C7.68818 37.96 7.90693 37.8694 8.06821 37.7081C8.22949 37.5468 8.3201 37.3281 8.3201 37.1Z" fill="#EB9C8D"/>
<path d="M14.1601 38C14.2743 37.9961 14.3867 37.9698 14.4908 37.9224C14.5949 37.8751 14.6886 37.8077 14.7666 37.7241C14.8446 37.6405 14.9054 37.5424 14.9455 37.4353C14.9855 37.3282 15.0041 37.2143 15.0001 37.1V30.1C15.0029 29.6603 14.8343 29.2367 14.53 28.9193C14.2256 28.6019 13.8095 28.4156 13.3701 28.4C13.3409 28.3901 13.3092 28.3901 13.2801 28.4V37.1C13.276 37.2176 13.2958 37.3348 13.3384 37.4445C13.3809 37.5542 13.4452 37.6542 13.5275 37.7383C13.6097 37.8224 13.7082 37.889 13.817 37.934C13.9257 37.979 14.0424 38.0014 14.1601 38Z" fill="#EB9C8D"/>
<path d="M17.2599 59.46H5.73988C5.71071 59.46 5.68273 59.4484 5.6621 59.4278C5.64147 59.4072 5.62988 59.3792 5.62988 59.35V52.86C5.62981 52.846 5.63269 52.8321 5.63833 52.8193C5.64397 52.8065 5.65224 52.795 5.66262 52.7855C5.67299 52.7761 5.68523 52.769 5.69854 52.7646C5.71185 52.7602 5.72594 52.7586 5.73988 52.76H17.2599C17.2738 52.7586 17.2879 52.7602 17.3012 52.7646C17.3145 52.769 17.3268 52.7761 17.3372 52.7855C17.3475 52.795 17.3558 52.8065 17.3614 52.8193C17.3671 52.8321 17.37 52.846 17.3699 52.86V59.35C17.3699 59.3792 17.3583 59.4072 17.3377 59.4278C17.317 59.4484 17.2891 59.46 17.2599 59.46Z" fill="#C40606"/>
<path d="M34.2499 40.22H29.6399V55.22C29.6399 55.7212 29.4408 56.202 29.0863 56.5564C28.7319 56.9108 28.2512 57.11 27.7499 57.11H22.6299V59.36C22.6285 59.3739 22.63 59.388 22.6344 59.4013C22.6388 59.4146 22.646 59.4269 22.6554 59.4372C22.6648 59.4476 22.6763 59.4559 22.6892 59.4615C22.702 59.4672 22.7159 59.47 22.7299 59.47H34.2499C34.2791 59.47 34.307 59.4584 34.3277 59.4378C34.3483 59.4171 34.3599 59.3891 34.3599 59.36V40.36C34.36 40.346 34.3571 40.3321 34.3515 40.3192C34.3458 40.3064 34.3375 40.2949 34.3272 40.2855C34.3168 40.276 34.3046 40.2689 34.2912 40.2645C34.2779 40.2601 34.2638 40.2586 34.2499 40.26V40.22Z" fill="#FEB237"/>
<path d="M53.7999 27.18H49.1899V55.18C49.1873 55.6822 48.9859 56.1629 48.6299 56.517C48.2739 56.8712 47.7921 57.07 47.2899 57.07H42.1699V59.32C42.1699 59.3492 42.1815 59.3771 42.2021 59.3978C42.2228 59.4184 42.2507 59.43 42.2799 59.43H53.7999C53.8291 59.43 53.8571 59.4184 53.8777 59.3978C53.8983 59.3771 53.9099 59.3492 53.9099 59.32V27.29C53.9099 27.2608 53.8983 27.2328 53.8777 27.2122C53.8571 27.1916 53.8291 27.18 53.7999 27.18Z" fill="#0062BA"/>
<path d="M17.2599 52.76H12.6499V55.21C12.6499 55.7113 12.4508 56.192 12.0963 56.5465C11.7419 56.9009 11.2611 57.1 10.7599 57.1H5.62988V59.35C5.62988 59.3792 5.64147 59.4072 5.6621 59.4278C5.68273 59.4484 5.71071 59.46 5.73988 59.46H17.2599C17.2891 59.46 17.317 59.4484 17.3377 59.4278C17.3583 59.4072 17.3699 59.3792 17.3699 59.35V52.86C17.37 52.846 17.3671 52.8321 17.3614 52.8193C17.3558 52.8065 17.3475 52.795 17.3372 52.7855C17.3268 52.7761 17.3145 52.769 17.3012 52.7646C17.2879 52.7602 17.2738 52.7586 17.2599 52.76Z" fill="#E30E08"/>
<path d="M58.9201 0.820007L51.2001 2.34001C51.1794 2.34472 51.1603 2.35485 51.1448 2.36934C51.1293 2.38384 51.1179 2.40219 51.1118 2.42253C51.1057 2.44286 51.1051 2.46445 51.1101 2.48508C51.1151 2.50572 51.1254 2.52468 51.1401 2.54001L53.0801 4.54001L30.3401 27.24L23.8601 20.76L5.09009 39.53L6.29009 41.61C6.86871 41.1823 7.5706 40.9542 8.29009 40.96L23.8901 25.37L28.7701 30.25C29.0525 29.6978 29.4823 29.2345 30.0118 28.9116C30.5413 28.5886 31.1499 28.4184 31.7701 28.42C32.334 28.4188 32.8886 28.5635 33.3801 28.84L34.5401 27.68L35.6201 25.81C35.8368 25.434 36.1426 25.117 36.5105 24.8869C36.8784 24.6567 37.2972 24.5204 37.7301 24.49L55.3101 6.87001C55.3321 6.85033 55.3606 6.83945 55.3901 6.83945C55.4196 6.83945 55.4481 6.85033 55.4701 6.87001L57.3301 8.74001C57.3464 8.75431 57.3661 8.7643 57.3873 8.76904C57.4085 8.77379 57.4305 8.77315 57.4514 8.76719C57.4723 8.76122 57.4914 8.75011 57.5069 8.73488C57.5223 8.71966 57.5338 8.70079 57.5401 8.68001L59.0601 1.00001C59.0637 0.980841 59.0625 0.96109 59.0568 0.942465C59.051 0.923839 59.0408 0.9069 59.027 0.893113C59.0132 0.879326 58.9963 0.869106 58.9776 0.863337C58.959 0.857569 58.9393 0.856426 58.9201 0.860007V0.820007Z" fill="#80D261"/>
<path d="M32.36 29.91C32.8883 29.9113 33.4027 30.0793 33.83 30.39C33.9271 30.461 34.0381 30.5109 34.1557 30.5364C34.2733 30.5618 34.395 30.5623 34.5128 30.5378C34.6306 30.5133 34.7419 30.4643 34.8396 30.3941C34.9374 30.3238 35.0192 30.2339 35.08 30.13L38.31 24.52C37.8058 24.4355 37.288 24.4992 36.8194 24.7034C36.3507 24.9075 35.9515 25.2433 35.67 25.67L34 28.53C33.0998 28.1402 32.0918 28.0771 31.15 28.3513C30.2082 28.6256 29.3917 29.2202 28.8416 30.0323C28.2915 30.8445 28.0422 31.8233 28.1368 32.7996C28.2315 33.776 28.6641 34.6886 29.36 35.38C29.5227 35.54 29.7418 35.6297 29.97 35.6297C30.1982 35.6297 30.4173 35.54 30.58 35.38C30.7376 35.2161 30.8257 34.9975 30.8257 34.77C30.8257 34.5426 30.7376 34.3239 30.58 34.16C30.3478 33.9296 30.1638 33.6554 30.0384 33.3532C29.9131 33.0511 29.8491 32.7271 29.85 32.4C29.8526 31.7404 30.1158 31.1086 30.5822 30.6422C31.0486 30.1758 31.6804 29.9126 32.34 29.91H32.36Z" fill="#FFB09E"/>
<path d="M51.8199 17C52.3454 17 52.857 17.1682 53.2799 17.48C53.3786 17.5507 53.4908 17.6005 53.6094 17.6263C53.7281 17.6521 53.8508 17.6534 53.9699 17.63C54.088 17.6044 54.1995 17.5548 54.2976 17.4843C54.3957 17.4138 54.4781 17.3238 54.5399 17.22L57.8599 11.46C57.3446 11.3722 56.8148 11.4394 56.3377 11.653C55.8606 11.8666 55.4576 12.2171 55.1799 12.66L53.4699 15.66C52.5703 15.2753 51.5649 15.216 50.6263 15.4922C49.6877 15.7684 48.8746 16.3628 48.3268 17.1734C47.7789 17.984 47.5304 18.9601 47.6241 19.9339C47.7177 20.9078 48.1476 21.8187 48.8399 22.51C49.0026 22.67 49.2217 22.7597 49.4499 22.7597C49.6781 22.7597 49.8972 22.67 50.0599 22.51C50.2176 22.346 50.3057 22.1274 50.3057 21.9C50.3057 21.6725 50.2176 21.4539 50.0599 21.29C49.8255 21.0613 49.6399 20.7874 49.5144 20.4848C49.3889 20.1823 49.3262 19.8575 49.3299 19.53C49.3246 19.1996 49.3851 18.8715 49.5079 18.5648C49.6306 18.2581 49.8132 17.9788 50.0449 17.7434C50.2767 17.5079 50.553 17.3209 50.8577 17.1933C51.1625 17.0656 51.4895 16.9999 51.8199 17Z" fill="#FFBD86"/>
<path d="M7.70993 42.57C8.20213 42.573 8.68248 42.7213 9.09077 42.9962C9.49905 43.2711 9.8171 43.6604 10.005 44.1153C10.193 44.5702 10.2425 45.0705 10.1473 45.5534C10.0521 46.0364 9.81646 46.4804 9.46993 46.83C9.38981 46.9091 9.32619 47.0032 9.28277 47.1071C9.23935 47.211 9.21699 47.3224 9.21699 47.435C9.21699 47.5476 9.23935 47.659 9.28277 47.7629C9.32619 47.8667 9.38981 47.9609 9.46993 48.04C9.54984 48.1202 9.64496 48.1836 9.74971 48.2265C9.85446 48.2695 9.96673 48.291 10.0799 48.29C10.1917 48.2914 10.3026 48.27 10.4058 48.227C10.5089 48.184 10.6022 48.1203 10.6799 48.04C11.0771 47.6486 11.3916 47.1813 11.6046 46.6659C11.8176 46.1506 11.9249 45.5976 11.9199 45.04C11.9151 44.3449 11.7391 43.6617 11.4075 43.0508C11.0758 42.4399 10.5987 41.9201 10.0183 41.5375C9.43799 41.1549 8.77229 40.9212 8.08013 40.8571C7.38797 40.793 6.69068 40.9005 6.04993 41.17L4.36993 38.27C4.09462 37.8208 3.69165 37.4638 3.21251 37.2448C2.73336 37.0257 2.19979 36.9544 1.67993 37.04L4.99993 42.79C5.06076 42.8946 5.14296 42.9852 5.24118 43.0558C5.3394 43.1265 5.45143 43.1756 5.56993 43.2C5.68741 43.2251 5.8089 43.2246 5.92621 43.1988C6.04351 43.1729 6.1539 43.1222 6.24993 43.05C6.67721 42.7393 7.19163 42.5713 7.71993 42.57H7.70993Z" fill="#EB9C8D"/>
<path d="M50.6499 34.25H45.4299C45.3099 34.263 45.1884 34.2505 45.0735 34.2135C44.9586 34.1765 44.8527 34.1156 44.7629 34.035C44.673 33.9543 44.6011 33.8557 44.5519 33.7454C44.5027 33.6351 44.4773 33.5157 44.4773 33.395C44.4773 33.2742 44.5027 33.1548 44.5519 33.0446C44.6011 32.9343 44.673 32.8356 44.7629 32.755C44.8527 32.6743 44.9586 32.6135 45.0735 32.5764C45.1884 32.5394 45.3099 32.527 45.4299 32.54H50.6499C50.7699 32.527 50.8914 32.5394 51.0063 32.5764C51.1212 32.6135 51.2271 32.6743 51.3169 32.755C51.4068 32.8356 51.4787 32.9343 51.5279 33.0446C51.5771 33.1548 51.6025 33.2742 51.6025 33.395C51.6025 33.5157 51.5771 33.6351 51.5279 33.7454C51.4787 33.8557 51.4068 33.9543 51.3169 34.035C51.2271 34.1156 51.1212 34.1765 51.0063 34.2135C50.8914 34.2505 50.7699 34.263 50.6499 34.25Z" fill="#0062BA"/>
<path d="M50.6499 32.54H49.1899V34.25H50.6499C50.77 34.263 50.8914 34.2505 51.0064 34.2135C51.1213 34.1765 51.2271 34.1156 51.317 34.035C51.4068 33.9543 51.4787 33.8557 51.5279 33.7454C51.5771 33.6351 51.6025 33.5157 51.6025 33.395C51.6025 33.2742 51.5771 33.1548 51.5279 33.0446C51.4787 32.9343 51.4068 32.8356 51.317 32.755C51.2271 32.6743 51.1213 32.6135 51.0064 32.5764C50.8914 32.5394 50.77 32.527 50.6499 32.54Z" fill="#0290CF"/>
<path d="M31.1 47.29H25.88C25.6519 47.29 25.4332 47.1994 25.2719 47.0381C25.1106 46.8768 25.02 46.6581 25.02 46.43C25.02 46.2019 25.1106 45.9832 25.2719 45.8219C25.4332 45.6606 25.6519 45.57 25.88 45.57H31.1C31.3281 45.57 31.5469 45.6606 31.7081 45.8219C31.8694 45.9832 31.96 46.2019 31.96 46.43C31.96 46.6581 31.8694 46.8768 31.7081 47.0381C31.5469 47.1994 31.3281 47.29 31.1 47.29Z" fill="#FEB237"/>
<path d="M31.0999 45.57H29.6399V47.29H31.0999C31.328 47.29 31.5467 47.1994 31.708 47.0381C31.8693 46.8768 31.9599 46.6581 31.9599 46.43C31.9599 46.2019 31.8693 45.9832 31.708 45.8219C31.5467 45.6606 31.328 45.57 31.0999 45.57Z" fill="#F6AB31"/>
<path d="M25.7799 44.23C26.2549 44.23 26.6399 43.845 26.6399 43.37C26.6399 42.895 26.2549 42.51 25.7799 42.51C25.305 42.51 24.9199 42.895 24.9199 43.37C24.9199 43.845 25.305 44.23 25.7799 44.23Z" fill="#F2FBFF"/>
<path d="M45.36 31.23C45.835 31.23 46.22 30.845 46.22 30.37C46.22 29.895 45.835 29.51 45.36 29.51C44.885 29.51 44.5 29.895 44.5 30.37C44.5 30.845 44.885 31.23 45.36 31.23Z" fill="#F2FBFF"/>
<path d="M8.78993 56.99C9.2649 56.99 9.64993 56.605 9.64993 56.13C9.64993 55.6551 9.2649 55.27 8.78993 55.27C8.31497 55.27 7.92993 55.6551 7.92993 56.13C7.92993 56.605 8.31497 56.99 8.78993 56.99Z" fill="#F2FBFF"/>
</g>
<defs>
<clipPath id="clip0_495_3417">
<rect width="60" height="60" fill="white"/>
</clipPath>
</defs>
</svg>
