<svg width="60" height="60" viewBox="0 0 60 60" fill="none" xmlns="http://www.w3.org/2000/svg">
<path d="M23.12 45.87C21.2262 49.1671 18.1004 51.5771 14.43 52.57L15.48 49.11C13.0405 50.6967 10.3537 51.866 7.53003 52.57C8.22388 49.7273 9.39373 47.0224 10.99 44.57L7.53003 45.67C8.02201 43.8553 8.86702 42.1555 10.0167 40.6678C11.1664 39.1801 12.5981 37.9337 14.23 37L23.8 35L23.12 45.87Z" fill="#FCC400"/>
<path d="M38.2401 55.06C35.8484 57.4504 32.631 58.8325 29.2508 58.9218C25.8705 59.0111 22.5847 57.8007 20.0701 55.54C21.2546 55.3958 22.3538 54.8494 23.1838 53.9921C24.0138 53.1348 24.5243 52.0186 24.6301 50.83C24.7444 49.3889 24.4861 47.9425 23.8801 46.63L13.4701 36.21C12.1552 35.6121 10.7102 35.3575 9.2701 35.47C8.08475 35.5709 6.97004 36.076 6.11262 36.9006C5.25519 37.7253 4.7071 38.8195 4.5601 40C2.466 37.6652 1.27091 34.6615 1.18863 31.5263C1.10635 28.3911 2.14225 25.3288 4.11101 22.8874C6.07977 20.446 8.85294 18.7847 11.9344 18.2008C15.0159 17.6168 18.2046 18.1482 20.9301 19.7L40.3701 39.16C41.8089 41.6768 42.3799 44.597 41.995 47.4704C41.6101 50.3437 40.2906 53.0107 38.2401 55.06Z" fill="#006EE5"/>
<path d="M42 44.25C36.755 47.6972 30.8136 49.944 24.6 50.83C24.7143 49.3889 24.456 47.9425 23.85 46.63L13.47 36.21C12.1551 35.6121 10.7101 35.3575 9.27002 35.47C10.145 29.2536 12.3927 23.3099 15.85 18.07C17.6391 18.2701 19.368 18.835 20.93 19.73L40.37 39.16C41.2545 40.7279 41.8092 42.46 42 44.25Z" fill="#0062BA"/>
<path d="M23.88 46.63C32.2621 44.7058 39.9299 40.4524 46 34.36C50.4154 29.9559 53.8836 24.6954 56.1914 18.9018C58.4993 13.1082 59.5979 6.90381 59.42 0.669997C48.8358 0.38046 38.4774 3.76142 30.1021 10.2393C21.7268 16.7171 15.8505 25.893 13.47 36.21L23.88 46.63Z" fill="#E3E8EC"/>
<path d="M31 19.36C25.1408 25.1321 20.146 31.7201 16.17 38.92L13.47 36.21C15.8505 25.893 21.7268 16.7171 30.1021 10.2393C38.4774 3.76142 48.8358 0.38046 59.42 0.669997C50.51 3.59 40.28 10.08 31 19.36Z" fill="#D5D8DB"/>
<path d="M56.71 17.54C53.8274 15.788 51.1679 13.6927 48.7901 11.3C47.6074 10.1171 46.4923 8.86842 45.4501 7.56001C44.3973 6.22841 43.4288 4.83236 42.55 3.38001C47.9306 1.44478 53.6239 0.525855 59.34 0.67001H59.42C59.5848 6.41368 58.6655 12.1369 56.71 17.54Z" fill="#006EE5"/>
<path d="M59.42 0.669992C54.479 2.36112 49.7742 4.67653 45.42 7.55999C44.3673 6.22839 43.3987 4.83234 42.52 3.37999C47.91 1.44108 53.6138 0.522107 59.34 0.669992H59.42Z" fill="#0062BA"/>
<path d="M39.05 29.62C43.7831 29.62 47.62 25.7831 47.62 21.05C47.62 16.3169 43.7831 12.48 39.05 12.48C34.3169 12.48 30.48 16.3169 30.48 21.05C30.48 25.7831 34.3169 29.62 39.05 29.62Z" fill="#E30E08"/>
<path d="M39.05 26.82C42.2367 26.82 44.82 24.2367 44.82 21.05C44.82 17.8633 42.2367 15.28 39.05 15.28C35.8633 15.28 33.28 17.8633 33.28 21.05C33.28 24.2367 35.8633 26.82 39.05 26.82Z" fill="#A0D9F2"/>
</svg>
