<svg width="32" height="32" viewBox="0 0 32 32" fill="none" xmlns="http://www.w3.org/2000/svg">
<path d="M16.8909 5.20516H14.9336V2.26649L15.9149 1.28516L16.8909 2.26649V5.20516Z" fill="#60B7FF"/>
<path d="M11.4098 6.66665L10.0178 8.05332L8.16179 6.19732C8.10315 6.1375 8.07031 6.05708 8.07031 5.97332C8.07031 5.88956 8.10315 5.80914 8.16179 5.74932L9.10579 4.79998C9.1647 4.74169 9.24424 4.70898 9.32712 4.70898C9.41 4.70898 9.48954 4.74169 9.54845 4.79998L11.4098 6.66665Z" fill="#39B54A"/>
<path d="M20.4219 6.66664L21.8085 8.0533L23.6645 6.1973C23.7232 6.13749 23.756 6.05706 23.756 5.9733C23.756 5.88954 23.7232 5.80912 23.6645 5.7493L22.7259 4.79997C22.6661 4.74134 22.5856 4.7085 22.5019 4.7085C22.4181 4.7085 22.3377 4.74134 22.2779 4.79997L20.4219 6.66664Z" fill="#60B7FF"/>
<path d="M15.9141 20.9015C20.518 20.9015 24.2501 17.1693 24.2501 12.5655C24.2501 7.96165 20.518 4.22949 15.9141 4.22949C11.3103 4.22949 7.57812 7.96165 7.57812 12.5655C7.57812 17.1693 11.3103 20.9015 15.9141 20.9015Z" fill="#8AC9FE"/>
<path d="M15.9163 18.9386C19.4362 18.9386 22.2896 16.0851 22.2896 12.5652C22.2896 9.04533 19.4362 6.19189 15.9163 6.19189C12.3964 6.19189 9.54297 9.04533 9.54297 12.5652C9.54297 16.0851 12.3964 18.9386 15.9163 18.9386Z" fill="#EAF6FF"/>
<path d="M19.9185 7.60547C20.8508 8.83773 21.3059 10.3657 21.1996 11.9073C21.0933 13.4489 20.4329 14.8999 19.3402 15.9926C18.2476 17.0852 16.7965 17.7457 15.2549 17.8519C13.7134 17.9582 12.1854 17.5032 10.9531 16.5708C11.505 17.3002 12.2068 17.9028 13.0113 18.3381C13.8157 18.7733 14.7042 19.0311 15.6166 19.094C16.5291 19.1569 17.4445 19.0235 18.3011 18.7028C19.1577 18.382 19.9356 17.8814 20.5823 17.2347C21.2291 16.5879 21.7297 15.81 22.0504 14.9534C22.3712 14.0969 22.5046 13.1815 22.4417 12.269C22.3788 11.3565 22.121 10.4681 21.6857 9.66363C21.2505 8.85917 20.6479 8.15735 19.9185 7.60547Z" fill="#D8ECFE"/>
<path d="M17.5585 2.26638H14.2678C14.1843 2.26638 14.1043 2.23323 14.0453 2.17421C13.9863 2.1152 13.9531 2.03517 13.9531 1.95171V0.618378C13.9531 0.534923 13.9863 0.454886 14.0453 0.395875C14.1043 0.336863 14.1843 0.303711 14.2678 0.303711H17.5585C17.6419 0.303711 17.7219 0.336863 17.781 0.395875C17.84 0.454886 17.8731 0.534923 17.8731 0.618378V1.95171C17.8731 2.03517 17.84 2.1152 17.781 2.17421C17.7219 2.23323 17.6419 2.26638 17.5585 2.26638Z" fill="#C4E2FF"/>
<path d="M18.2669 15.0132H29.2589C29.2902 15.0136 29.3207 15.0232 29.3466 15.0409C29.3725 15.0585 29.3927 15.0833 29.4046 15.1122C29.4166 15.1412 29.4197 15.173 29.4137 15.2038C29.4077 15.2345 29.3929 15.2628 29.3709 15.2852L26.7043 17.9519L20.8003 18.9385L14.9336 17.9572L17.6003 15.2905C17.7796 15.114 18.0207 15.0145 18.2723 15.0132H18.2669Z" fill="#ECA026"/>
<path d="M11.6 15.0132H2.34135C2.31003 15.0136 2.27953 15.0232 2.25363 15.0409C2.22773 15.0585 2.20757 15.0833 2.19565 15.1122C2.18372 15.1412 2.18056 15.173 2.18655 15.2038C2.19254 15.2345 2.20742 15.2628 2.22935 15.2852L4.89601 17.9519L9.06668 18.9385L14.9333 17.9572L12.2667 15.2905C12.09 15.1134 11.8502 15.0136 11.6 15.0132Z" fill="#FEB237"/>
<path d="M26.3851 31.685H14.9345L13.9531 21.8664L14.9345 17.957H26.6998V31.3704C26.6998 31.4538 26.6666 31.5339 26.6076 31.5929C26.5486 31.6519 26.4686 31.685 26.3851 31.685Z" fill="#FEB237"/>
<path d="M24.5809 29.7224H21.9515C21.9105 29.7224 21.8712 29.7061 21.8422 29.6771C21.8132 29.6481 21.7969 29.6088 21.7969 29.5678V27.9198C21.7969 27.8782 21.813 27.8383 21.8418 27.8085C21.8707 27.7786 21.91 27.7611 21.9515 27.7598H24.5809C24.6224 27.7611 24.6617 27.7786 24.6906 27.8085C24.7194 27.8383 24.7356 27.8782 24.7355 27.9198V29.5678C24.7355 29.6088 24.7192 29.6481 24.6902 29.6771C24.6612 29.7061 24.6219 29.7224 24.5809 29.7224Z" fill="#EAF6FF"/>
<path d="M5.21701 31.685H14.9343V17.957H4.90234V31.3704C4.90372 31.4534 4.93731 31.5326 4.99603 31.5913C5.05474 31.6501 5.13398 31.6837 5.21701 31.685Z" fill="#FFC344"/>
<path d="M7.46817 21.9784L4.8015 24.645C4.78605 24.6613 4.76745 24.6743 4.74682 24.6832C4.72618 24.6921 4.70396 24.6966 4.6815 24.6966C4.65905 24.6966 4.63682 24.6921 4.61619 24.6832C4.59556 24.6743 4.57695 24.6613 4.5615 24.645L3.17484 23.2637C3.11003 23.2002 3.02291 23.1646 2.93217 23.1646C2.84143 23.1646 2.75431 23.2002 2.6895 23.2637L1.6655 24.261C1.60198 24.3258 1.56641 24.413 1.56641 24.5037C1.56641 24.5945 1.60198 24.6816 1.6655 24.7464L4.4335 27.5144C4.49831 27.5779 4.58543 27.6135 4.67617 27.6135C4.76691 27.6135 4.85404 27.5779 4.91884 27.5144L8.95084 23.4664C9.01436 23.4016 9.04993 23.3145 9.04993 23.2237C9.04993 23.133 9.01436 23.0458 8.95084 22.981L7.92684 21.9624C7.86203 21.8989 7.77491 21.8633 7.68417 21.8633C7.59343 21.8633 7.50631 21.8989 7.4415 21.9624L7.46817 21.9784Z" fill="#39B54A"/>
<path d="M15.4648 0.303711H16.4088V2.26638H15.4648V0.303711Z" fill="#B3DAFE"/>
<path d="M15.9148 9.60009C15.8525 9.60009 15.7908 9.58781 15.7332 9.56396C15.6756 9.5401 15.6233 9.50514 15.5792 9.46106C15.5351 9.41699 15.5002 9.36466 15.4763 9.30707C15.4524 9.24948 15.4402 9.18776 15.4402 9.12542V8.14942C15.4331 8.08322 15.4401 8.01628 15.4606 7.95295C15.4811 7.88961 15.5147 7.8313 15.5592 7.7818C15.6037 7.7323 15.6582 7.69271 15.719 7.66561C15.7798 7.63852 15.8456 7.62451 15.9122 7.62451C15.9787 7.62451 16.0446 7.63852 16.1054 7.66561C16.1662 7.69271 16.2206 7.7323 16.2651 7.7818C16.3096 7.8313 16.3432 7.88961 16.3637 7.95295C16.3843 8.01628 16.3912 8.08322 16.3842 8.14942V9.13076C16.3842 9.25523 16.3347 9.37461 16.2467 9.46262C16.1587 9.55064 16.0393 9.60009 15.9148 9.60009Z" fill="#554E56"/>
<path d="M16.139 12.8957C16.0765 12.897 16.0143 12.8854 15.9565 12.8615C15.8987 12.8377 15.8464 12.8021 15.803 12.757C15.759 12.7134 15.724 12.6615 15.7002 12.6043C15.6763 12.5471 15.6641 12.4857 15.6641 12.4237C15.6641 12.3617 15.6763 12.3004 15.7002 12.2431C15.724 12.1859 15.759 12.134 15.803 12.0904L18.7257 9.16771C18.7698 9.12352 18.8221 9.08847 18.8798 9.06455C18.9374 9.04063 18.9992 9.02832 19.0617 9.02832C19.1241 9.02832 19.1859 9.04063 19.2435 9.06455C19.3012 9.08847 19.3536 9.12352 19.3977 9.16771C19.4417 9.21134 19.4766 9.26326 19.5005 9.32048C19.5243 9.37769 19.5366 9.43906 19.5366 9.50104C19.5366 9.56302 19.5243 9.62439 19.5005 9.68161C19.4766 9.73882 19.4417 9.79074 19.3977 9.83437L16.475 12.757C16.4312 12.8016 16.3789 12.8368 16.3211 12.8606C16.2634 12.8845 16.2015 12.8964 16.139 12.8957Z" fill="#39B54A"/>
<path d="M20.3266 13.0346H19.3452C19.279 13.0416 19.2121 13.0346 19.1487 13.0141C19.0854 12.9936 19.0271 12.96 18.9776 12.9155C18.9281 12.871 18.8885 12.8166 18.8614 12.7558C18.8343 12.695 18.8203 12.6291 18.8203 12.5626C18.8203 12.496 18.8343 12.4302 18.8614 12.3693C18.8885 12.3085 18.9281 12.2541 18.9776 12.2096C19.0271 12.1651 19.0854 12.1315 19.1487 12.111C19.2121 12.0905 19.279 12.0835 19.3452 12.0906H20.3266C20.3928 12.0835 20.4597 12.0905 20.523 12.111C20.5864 12.1315 20.6447 12.1651 20.6942 12.2096C20.7437 12.2541 20.7833 12.3085 20.8104 12.3693C20.8375 12.4302 20.8515 12.496 20.8515 12.5626C20.8515 12.6291 20.8375 12.695 20.8104 12.7558C20.7833 12.8166 20.7437 12.871 20.6942 12.9155C20.6447 12.96 20.5864 12.9936 20.523 13.0141C20.4597 13.0346 20.3928 13.0416 20.3266 13.0346Z" fill="#554E56"/>
<path d="M13.5398 10.6665C13.4774 10.6666 13.4157 10.6544 13.358 10.6306C13.3004 10.6068 13.248 10.5718 13.2038 10.5278L12.5105 9.83446C12.4663 9.79037 12.4312 9.738 12.4073 9.68034C12.3834 9.62269 12.3711 9.56088 12.3711 9.49846C12.3711 9.43604 12.3834 9.37423 12.4073 9.31658C12.4312 9.25892 12.4663 9.20655 12.5105 9.16246C12.6009 9.07576 12.7212 9.02734 12.8465 9.02734C12.9717 9.02734 13.0921 9.07576 13.1825 9.16246L13.8758 9.85579C13.9423 9.92218 13.9877 10.0068 14.006 10.099C14.0244 10.1912 14.015 10.2867 13.979 10.3735C13.943 10.4604 13.8821 10.5345 13.8039 10.5867C13.7257 10.6388 13.6338 10.6666 13.5398 10.6665Z" fill="#554E56"/>
<path d="M12.4789 13.0346H11.4976C11.4314 13.0416 11.3644 13.0346 11.3011 13.0141C11.2378 12.9936 11.1794 12.96 11.1299 12.9155C11.0804 12.871 11.0409 12.8166 11.0138 12.7558C10.9867 12.695 10.9727 12.6291 10.9727 12.5626C10.9727 12.496 10.9867 12.4302 11.0138 12.3693C11.0409 12.3085 11.0804 12.2541 11.1299 12.2096C11.1794 12.1651 11.2378 12.1315 11.3011 12.111C11.3644 12.0905 11.4314 12.0835 11.4976 12.0906H12.4789C12.5451 12.0835 12.612 12.0905 12.6754 12.111C12.7387 12.1315 12.797 12.1651 12.8465 12.2096C12.896 12.2541 12.9356 12.3085 12.9627 12.3693C12.9898 12.4302 13.0038 12.496 13.0038 12.5626C13.0038 12.6291 12.9898 12.695 12.9627 12.7558C12.9356 12.8166 12.896 12.871 12.8465 12.9155C12.797 12.96 12.7387 12.9936 12.6754 13.0141C12.612 13.0346 12.5451 13.0416 12.4789 13.0346Z" fill="#554E56"/>
<path d="M16.0009 13.5467C16.5428 13.5467 16.9822 13.1073 16.9822 12.5653C16.9822 12.0233 16.5428 11.584 16.0009 11.584C15.4589 11.584 15.0195 12.0233 15.0195 12.5653C15.0195 13.1073 15.4589 13.5467 16.0009 13.5467Z" fill="#8CC63F"/>
</svg>
