<svg width="32" height="32" viewBox="0 0 32 32" fill="none" xmlns="http://www.w3.org/2000/svg">
<path d="M7.46535 20.3468C7.45694 20.8224 7.55345 21.294 7.74802 21.7281C8.02645 22.3554 8.49466 22.8796 9.08668 23.2268C9.94992 23.7416 10.6391 24.5032 11.0653 25.4134L11.7854 26.9548C11.9517 27.3065 12.2143 27.604 12.5428 27.8126C12.8713 28.0212 13.2522 28.1325 13.6414 28.1334C13.9846 28.1315 14.3218 28.0433 14.6221 27.877C14.9224 27.7107 15.176 27.4716 15.3598 27.1817C15.5435 26.8918 15.6514 26.5603 15.6736 26.2178C15.6958 25.8752 15.6315 25.5326 15.4867 25.2214L13.796 21.6161H18.132C18.5258 21.5929 18.8959 21.4202 19.1665 21.1332C19.4372 20.8461 19.5879 20.4666 19.5879 20.0721C19.5879 19.6776 19.4372 19.298 19.1665 19.011C18.8959 18.724 18.5258 18.5512 18.132 18.5281H18.6653C18.8767 18.5324 19.0867 18.494 19.2828 18.4152C19.4789 18.3363 19.657 18.2186 19.8064 18.0692C19.9559 17.9197 20.0736 17.7416 20.1524 17.5455C20.2313 17.3494 20.2697 17.1394 20.2654 16.9281C20.257 16.5249 20.0909 16.141 19.8027 15.8588C19.5146 15.5767 19.1273 15.4187 18.724 15.4188H18.132C18.3369 15.4209 18.5402 15.3823 18.7301 15.3051C18.9199 15.228 19.0925 15.114 19.2379 14.9696C19.3833 14.8252 19.4986 14.6533 19.577 14.464C19.6554 14.2747 19.6954 14.0717 19.6947 13.8668C19.6933 13.6634 19.6517 13.4624 19.5723 13.2752C19.4929 13.0881 19.3772 12.9184 19.2319 12.7762C19.0867 12.6339 18.9147 12.5218 18.7259 12.4462C18.5372 12.3707 18.3353 12.3333 18.132 12.3361H17.5987C17.8011 12.3361 18.0015 12.2962 18.1885 12.2188C18.3755 12.1413 18.5454 12.0278 18.6886 11.8846C18.8317 11.7415 18.9452 11.5716 19.0227 11.3846C19.1002 11.1976 19.14 10.9972 19.14 10.7948C19.14 10.5923 19.1002 10.3919 19.0227 10.2049C18.9452 10.0179 18.8317 9.84799 18.6886 9.70486C18.5454 9.56174 18.3755 9.4482 18.1885 9.37074C18.0015 9.29329 17.8011 9.25342 17.5987 9.25342H9.40668C8.89888 9.25342 8.41188 9.45514 8.05281 9.81421C7.69374 10.1733 7.49202 10.6603 7.49202 11.1681L7.46535 20.3468Z" fill="#FFDDCE"/>
<path d="M15.1453 27.4773H14.932C14.5435 27.4766 14.1632 27.3654 13.8355 27.1567C13.5078 26.948 13.2463 26.6504 13.0813 26.2986L12.3613 24.7573C11.9351 23.8471 11.2459 23.0854 10.3827 22.5706C9.80668 22.2346 7.75335 21.7173 7.67335 17.8186C7.64139 17.5246 7.57147 17.236 7.46535 16.96V20.3466C7.45694 20.8222 7.55345 21.2939 7.74802 21.728C8.02645 22.3553 8.49466 22.8794 9.08668 23.2266C9.94992 23.7414 10.6391 24.5031 11.0653 25.4133L11.7853 26.9546C11.9517 27.3064 12.2143 27.6039 12.5428 27.8125C12.8713 28.0211 13.2522 28.1323 13.6413 28.1333C13.9405 28.133 14.2357 28.0655 14.5053 27.936C14.7446 27.8256 14.9601 27.6698 15.14 27.4773H15.1453Z" fill="#FFCBBE"/>
<path d="M19.1394 10.7948C19.1394 10.386 18.977 9.99392 18.688 9.70486C18.3989 9.41581 18.0069 9.25342 17.5981 9.25342H9.19275C8.7588 9.25441 8.33122 9.3578 7.94477 9.5552C7.55832 9.7526 7.22391 10.0384 6.96875 10.3894H17.5981C17.9076 10.3893 18.2099 10.4823 18.4658 10.6564C18.7217 10.8304 18.9192 11.0775 19.0327 11.3654C19.1038 11.1854 19.14 10.9936 19.1394 10.8001V10.7948Z" fill="#FFCBBE"/>
<path d="M19.5891 14.4478C19.6855 14.2126 19.7225 13.9573 19.6967 13.7044C19.671 13.4516 19.5833 13.2089 19.4415 12.998C19.2996 12.7871 19.108 12.6144 18.8835 12.4952C18.659 12.3759 18.4086 12.3139 18.1544 12.3145H17.5624C17.4213 12.3282 17.2903 12.3939 17.195 12.4989C17.0997 12.6039 17.0469 12.7406 17.0469 12.8825C17.0469 13.0243 17.0997 13.161 17.195 13.266C17.2903 13.371 17.4213 13.4368 17.5624 13.4505H18.1331C18.4485 13.4484 18.7571 13.5428 19.0173 13.7211C19.2776 13.8993 19.4771 14.1529 19.5891 14.4478Z" fill="#FFCBBE"/>
<path d="M20.1434 17.5362C20.2398 17.301 20.2768 17.0457 20.251 16.7928C20.2253 16.5399 20.1376 16.2973 19.9958 16.0864C19.8539 15.8755 19.6623 15.7028 19.4378 15.5835C19.2133 15.4643 18.9629 15.4022 18.7088 15.4028H18.1327C17.9916 15.4165 17.8606 15.4823 17.7653 15.5873C17.67 15.6923 17.6172 15.829 17.6172 15.9708C17.6172 16.1126 17.67 16.2494 17.7653 16.3544C17.8606 16.4594 17.9916 16.5251 18.1327 16.5388H18.7247C19.0338 16.5443 19.3341 16.6422 19.587 16.82C19.8399 16.9977 20.0337 17.2472 20.1434 17.5362Z" fill="#FFCBBE"/>
<path d="M19.5891 20.6187C19.6855 20.3835 19.7225 20.1282 19.6967 19.8753C19.671 19.6225 19.5833 19.3798 19.4415 19.1689C19.2996 18.958 19.108 18.7853 18.8835 18.6661C18.659 18.5468 18.4086 18.4848 18.1544 18.4854H17.5624C17.4213 18.499 17.2903 18.5648 17.195 18.6698C17.0997 18.7748 17.0469 18.9115 17.0469 19.0534C17.0469 19.1952 17.0997 19.3319 17.195 19.4369C17.2903 19.5419 17.4213 19.6077 17.5624 19.6214H18.1331C18.4426 19.6212 18.7449 19.7142 19.0008 19.8883C19.2567 20.0624 19.4543 20.3094 19.5678 20.5974L19.5891 20.6187Z" fill="#FFCBBE"/>
<path d="M7.46798 10.7308V20.3308C7.46798 20.651 7.34116 20.9581 7.11527 21.185C6.88938 21.4119 6.58281 21.5401 6.26265 21.5415H3.88398C3.56472 21.5429 3.25782 21.4182 3.03008 21.1944C2.80234 20.9707 2.6722 20.666 2.66798 20.3468V10.7468C2.66728 10.5881 2.69794 10.4308 2.7582 10.2839C2.81845 10.1371 2.90713 10.0036 3.01912 9.89106C3.13112 9.77857 3.26423 9.68931 3.41082 9.6284C3.5574 9.5675 3.71458 9.53614 3.87331 9.53614H6.25731C6.57607 9.53472 6.88241 9.65962 7.1093 9.88352C7.3362 10.1074 7.46516 10.4121 7.46798 10.7308Z" fill="#EE596B"/>
<path d="M7.46797 17.3174V20.3467C7.46797 20.6669 7.34115 20.974 7.11526 21.2009C6.88937 21.4278 6.5828 21.556 6.26264 21.5574H3.88397C3.72453 21.5581 3.56653 21.5273 3.41903 21.4668C3.27153 21.4062 3.13743 21.3172 3.02445 21.2047C2.91146 21.0922 2.82181 20.9585 2.76063 20.8113C2.69946 20.664 2.66797 20.5062 2.66797 20.3467V17.3174C2.66797 17.6375 2.79479 17.9447 3.02068 18.1716C3.24657 18.3985 3.55314 18.5266 3.8733 18.528H6.2573C6.57839 18.528 6.88633 18.4005 7.11337 18.1735C7.34042 17.9464 7.46797 17.6385 7.46797 17.3174Z" fill="#ED3A4F"/>
<path d="M18.5592 5.11463C18.3273 5.08911 18.1138 4.97618 17.9622 4.79883C17.8106 4.62147 17.7323 4.39302 17.7432 4.15996L17.8072 2.66663C17.8137 2.54168 17.8457 2.41939 17.9012 2.30726C17.9567 2.19514 18.0345 2.09555 18.1299 2.01462C18.2253 1.9337 18.3363 1.87314 18.456 1.83669C18.5757 1.80023 18.7015 1.78864 18.8259 1.80263L19.1672 1.83996C19.2912 1.85412 19.411 1.89345 19.5193 1.95552C19.6276 2.0176 19.7221 2.10111 19.797 2.20097C19.8718 2.30082 19.9256 2.41491 19.9548 2.53624C19.9841 2.65758 19.9883 2.78361 19.9672 2.90663L19.7005 4.36796C19.6599 4.59711 19.5338 4.80227 19.3476 4.94189C19.1615 5.08152 18.9292 5.14517 18.6979 5.11996H18.5592V5.11463Z" fill="#EE596B"/>
<path d="M21.9944 6.86389C21.8071 6.72591 21.6792 6.52189 21.6366 6.29315C21.594 6.06441 21.6399 5.82804 21.7651 5.63189L22.5651 4.37322C22.6326 4.2673 22.7212 4.17639 22.8254 4.10612C22.9295 4.03585 23.047 3.98773 23.1705 3.96472C23.294 3.94172 23.4209 3.94434 23.5434 3.9724C23.6659 4.00047 23.7812 4.05339 23.8824 4.12789L24.1597 4.33056C24.2611 4.40521 24.3461 4.49994 24.4093 4.60884C24.4725 4.71775 24.5126 4.8385 24.5271 4.96358C24.5416 5.08866 24.5302 5.21538 24.4936 5.33587C24.457 5.45635 24.396 5.56801 24.3144 5.66389L23.3544 6.79989C23.203 6.97706 22.9902 7.09038 22.7587 7.11709C22.5272 7.14381 22.2942 7.08193 22.1064 6.94389L21.9944 6.86389Z" fill="#EE596B"/>
<path d="M24.7411 9.59991C24.6474 9.386 24.6389 9.14443 24.7172 8.92443C24.7954 8.70443 24.9547 8.52256 25.1624 8.41591L26.4798 7.72791C26.5909 7.66897 26.713 7.63365 26.8384 7.62417C26.9638 7.6147 27.0898 7.63127 27.2086 7.67284C27.3273 7.71441 27.4361 7.78009 27.5282 7.86575C27.6203 7.95141 27.6937 8.05519 27.7438 8.17058L27.8824 8.48524C27.9329 8.60063 27.9591 8.72517 27.9593 8.85112C27.9595 8.97706 27.9338 9.1017 27.8838 9.21728C27.8338 9.33286 27.7605 9.4369 27.6685 9.52291C27.5765 9.60893 27.4678 9.67508 27.3491 9.71724L25.9518 10.2186C25.7327 10.2989 25.4912 10.2923 25.277 10.2C25.0627 10.1078 24.8919 9.93691 24.7998 9.72258L24.7411 9.59991Z" fill="#EE596B"/>
</svg>
