<svg width="32" height="32" viewBox="0 0 32 32" fill="none" xmlns="http://www.w3.org/2000/svg">
<path d="M26.0096 16.0002L25.9776 15.8669C25.9163 15.6427 25.9429 15.4037 26.052 15.1985C26.161 14.9933 26.3442 14.8375 26.5642 14.7629L27.9669 14.2829C28.0873 14.2431 28.2145 14.2286 28.3408 14.2402C28.467 14.2518 28.5895 14.2893 28.7006 14.3504C28.8117 14.4114 28.909 14.4947 28.9865 14.5951C29.0639 14.6954 29.1199 14.8106 29.1509 14.9335L29.2362 15.2589C29.2694 15.3805 29.277 15.5077 29.2588 15.6325C29.2406 15.7573 29.1968 15.877 29.1302 15.9841C29.0637 16.0912 28.9757 16.1834 28.8719 16.255C28.7681 16.3266 28.6507 16.376 28.5269 16.4002L27.0709 16.6829C26.8404 16.7251 26.6024 16.6781 26.4053 16.5513C26.2082 16.4245 26.0667 16.2275 26.0096 16.0002Z" fill="#39B54A"/>
<path d="M23.7771 12.8908L23.6758 12.8001C23.5132 12.6344 23.4186 12.4137 23.4107 12.1817C23.4028 11.9497 23.4822 11.7231 23.6331 11.5468L24.6091 10.4321C24.6916 10.3374 24.7926 10.2606 24.9059 10.2066C25.0193 10.1525 25.1425 10.1223 25.268 10.1178C25.3935 10.1133 25.5186 10.1346 25.6355 10.1804C25.7525 10.2262 25.8587 10.2955 25.9478 10.3841L26.1878 10.6241C26.2751 10.7134 26.3434 10.8196 26.3882 10.9362C26.4331 11.0529 26.4536 11.1774 26.4486 11.3023C26.4437 11.4271 26.4132 11.5496 26.3592 11.6623C26.3051 11.7749 26.2287 11.8754 26.1344 11.9574L25.0198 12.9334C24.8448 13.0852 24.6189 13.1651 24.3874 13.1572C24.1559 13.1493 23.936 13.0541 23.7718 12.8908H23.7771Z" fill="#39B54A"/>
<path d="M20.6837 10.5869L20.5504 10.5549C20.3253 10.4944 20.1316 10.3505 20.0088 10.1524C19.8859 9.95427 19.8431 9.71681 19.8891 9.48827L20.1771 8.03227C20.2009 7.9068 20.2507 7.78772 20.3234 7.68275C20.3961 7.57777 20.4901 7.48924 20.5992 7.42287C20.7083 7.35651 20.8301 7.31379 20.9567 7.2975C21.0834 7.2812 21.2121 7.29168 21.3344 7.32827L21.6597 7.41893C21.7814 7.45025 21.8952 7.50652 21.994 7.58415C22.0928 7.66179 22.1743 7.75911 22.2335 7.86993C22.2927 7.98075 22.3282 8.10266 22.3377 8.22793C22.3473 8.35319 22.3307 8.47908 22.2891 8.5976L21.8091 10.0003C21.7344 10.2203 21.5786 10.4035 21.3734 10.5125C21.1683 10.6216 20.9292 10.6482 20.7051 10.5869H20.6837Z" fill="#39B54A"/>
<path d="M6.88672 24.3039C6.88672 25.3705 8.40139 26.2185 9.45739 26.2185H17.6494C17.8531 26.2199 18.0552 26.1809 18.2437 26.1038C18.4323 26.0266 18.6037 25.9128 18.7481 25.769C18.8924 25.6252 19.0068 25.4541 19.0846 25.2658C19.1624 25.0775 19.2021 24.8756 19.2014 24.6719C19.2 24.2635 19.0371 23.8723 18.7484 23.5835C18.4596 23.2948 18.0684 23.1319 17.6601 23.1305H18.1934C18.3958 23.1305 18.5962 23.0907 18.7832 23.0132C18.9702 22.9357 19.1401 22.8222 19.2833 22.6791C19.4264 22.536 19.5399 22.366 19.6174 22.179C19.6949 21.992 19.7347 21.7916 19.7347 21.5892C19.7333 21.1808 19.5705 20.7896 19.2817 20.5009C18.993 20.2121 18.6017 20.0493 18.1934 20.0479H18.7267C19.1309 20.0479 19.519 19.8892 19.8073 19.6059C20.0956 19.3226 20.2611 18.9373 20.2681 18.5332C20.2611 18.1135 20.0894 17.7133 19.7901 17.419C19.4908 17.1247 19.0878 16.9598 18.6681 16.9599H18.1347C18.342 16.9678 18.5488 16.9337 18.7426 16.8598C18.9364 16.7859 19.1133 16.6736 19.2627 16.5297C19.4121 16.3858 19.5309 16.2132 19.612 16.0222C19.6931 15.8313 19.7349 15.626 19.7347 15.4185C19.7361 15.0102 19.576 14.6178 19.2893 14.327C19.0025 14.0363 18.6124 13.8707 18.2041 13.8665H13.8681L15.5587 10.2612C15.7884 9.77023 15.814 9.20826 15.6301 8.69841C15.4461 8.18857 15.0676 7.77243 14.5774 7.54119C14.3046 7.41583 14.0082 7.35036 13.7081 7.34919C13.316 7.34599 12.9313 7.456 12.6002 7.66602C12.2691 7.87603 12.0056 8.17714 11.8414 8.53319L11.1161 10.0745C10.6952 10.9897 10.0048 11.7545 9.13739 12.2665C8.54521 12.616 8.07714 13.1418 7.79872 13.7705C7.60582 14.205 7.51113 14.6766 7.52139 15.1519L6.88672 24.3039Z" fill="#FFDDCE"/>
<path d="M15.1882 7.99987H14.9802C14.592 7.9988 14.2115 8.10867 13.8837 8.31654C13.5558 8.52441 13.2942 8.82163 13.1295 9.1732L12.4042 10.7145C11.9824 11.6277 11.2922 12.3906 10.4255 12.9012C9.85486 13.2372 7.79619 13.7599 7.72152 17.6585C7.69443 17.954 7.62807 18.2446 7.52419 18.5225V15.1252C7.51393 14.65 7.60862 14.1783 7.80152 13.7439C8.08314 13.1258 8.54881 12.6098 9.13486 12.2665C10.0015 11.7559 10.6918 10.9931 11.1135 10.0799L11.8389 8.5332C12.0035 8.18163 12.2651 7.88441 12.593 7.67654C12.9209 7.46867 13.3013 7.3588 13.6895 7.35987C13.9897 7.36105 14.2861 7.42651 14.5589 7.55187C14.7964 7.6648 15.0101 7.82232 15.1882 8.01587V7.99987Z" fill="#FFCBBE"/>
<path d="M19.2009 24.6722C19.2016 24.875 19.1622 25.076 19.0851 25.2636C19.0079 25.4513 18.8945 25.6218 18.7513 25.7655C18.6081 25.9092 18.438 26.0232 18.2506 26.101C18.0633 26.1788 17.8624 26.2188 17.6595 26.2188H9.24353C8.80813 26.2164 8.3795 26.1108 7.99288 25.9105C7.60626 25.7102 7.27267 25.4211 7.01953 25.0668H17.6489C17.9582 25.0662 18.2602 24.9729 18.516 24.799C18.7717 24.625 18.9694 24.3783 19.0835 24.0908C19.1599 24.2752 19.1998 24.4726 19.2009 24.6722Z" fill="#FFCBBE"/>
<path d="M19.6358 21.0239C19.7069 21.2039 19.7431 21.3958 19.7424 21.5893C19.7424 21.998 19.58 22.3901 19.291 22.6791C19.0019 22.9682 18.6099 23.1306 18.2011 23.1306H17.5984C17.5192 23.1383 17.4393 23.1293 17.3637 23.1043C17.2882 23.0792 17.2187 23.0386 17.1598 22.9851C17.1008 22.9317 17.0538 22.8664 17.0215 22.7937C16.9893 22.7209 16.9727 22.6422 16.9727 22.5626C16.9727 22.483 16.9893 22.4043 17.0215 22.3315C17.0538 22.2588 17.1008 22.1935 17.1598 22.14C17.2187 22.0865 17.2882 22.046 17.3637 22.0209C17.4393 21.9959 17.5192 21.9869 17.5984 21.9946H18.1904C18.4993 21.9952 18.8012 21.9029 19.057 21.7299C19.3128 21.5568 19.5107 21.3108 19.6251 21.0239H19.6358Z" fill="#FFCBBE"/>
<path d="M20.1862 17.936C20.2852 18.1707 20.3244 18.4262 20.3001 18.6798C20.2758 18.9333 20.1889 19.1768 20.0472 19.3884C19.9054 19.6 19.7133 19.773 19.488 19.8919C19.2628 20.0107 19.0115 20.0717 18.7568 20.0694H18.1648C18.0856 20.0771 18.0057 20.0681 17.9301 20.043C17.8546 20.018 17.7851 19.9774 17.7262 19.9239C17.6673 19.8704 17.6202 19.8052 17.5879 19.7324C17.5557 19.6597 17.5391 19.581 17.5391 19.5014C17.5391 19.4218 17.5557 19.3431 17.5879 19.2703C17.6202 19.1975 17.6673 19.1323 17.7262 19.0788C17.7851 19.0253 17.8546 18.9847 17.9301 18.9597C18.0057 18.9347 18.0856 18.9257 18.1648 18.9334H18.7568C19.0656 18.9332 19.3671 18.84 19.6221 18.6659C19.877 18.4918 20.0736 18.2449 20.1862 17.9574V17.936Z" fill="#FFCBBE"/>
<path d="M19.6358 14.8535C19.7279 15.0873 19.7615 15.3401 19.7337 15.5898C19.7058 15.8396 19.6173 16.0787 19.4758 16.2864C19.3344 16.4941 19.1443 16.6641 18.9221 16.7816C18.6999 16.899 18.4524 16.9603 18.2011 16.9602H17.5984C17.5192 16.9679 17.4393 16.9589 17.3637 16.9338C17.2882 16.9088 17.2187 16.8682 17.1598 16.8147C17.1008 16.7612 17.0538 16.696 17.0215 16.6232C16.9893 16.5505 16.9727 16.4718 16.9727 16.3922C16.9727 16.3126 16.9893 16.2339 17.0215 16.1611C17.0538 16.0883 17.1008 16.0231 17.1598 15.9696C17.2187 15.9161 17.2882 15.8756 17.3637 15.8505C17.4393 15.8255 17.5192 15.8165 17.5984 15.8242H18.1904C18.4993 15.8248 18.8012 15.7325 19.057 15.5594C19.3128 15.3864 19.5107 15.1404 19.6251 14.8535H19.6358Z" fill="#FFCBBE"/>
<path d="M2.71875 15.1252V24.7252C2.71875 25.0463 2.8463 25.3542 3.07335 25.5813C3.30039 25.8083 3.60833 25.9359 3.92942 25.9359H6.31342C6.63358 25.9345 6.94015 25.8063 7.16604 25.5794C7.39193 25.3525 7.51875 25.0454 7.51875 24.7252V15.1252C7.51945 14.9665 7.48879 14.8092 7.42853 14.6623C7.36828 14.5155 7.2796 14.382 7.16761 14.2695C7.05561 14.157 6.9225 14.0677 6.77591 14.0068C6.62933 13.9459 6.47215 13.9145 6.31342 13.9146H3.92942C3.60833 13.9146 3.30039 14.0421 3.07335 14.2691C2.8463 14.4962 2.71875 14.8041 2.71875 15.1252Z" fill="#39B54A"/>
<path d="M2.7188 21.7119V24.7412C2.7188 25.0623 2.84635 25.3703 3.07339 25.5973C3.30044 25.8244 3.60838 25.9519 3.92946 25.9519H6.31346C6.63363 25.9505 6.9402 25.8223 7.16609 25.5954C7.39198 25.3685 7.5188 25.0614 7.5188 24.7412V21.7119C7.5202 21.8713 7.4901 22.0295 7.43023 22.1773C7.37035 22.325 7.28187 22.4595 7.16987 22.573C7.05788 22.6865 6.92457 22.7767 6.7776 22.8385C6.63063 22.9004 6.4729 22.9326 6.31346 22.9332H3.92946C3.76958 22.9333 3.61127 22.9016 3.46368 22.8401C3.3161 22.7786 3.18216 22.6884 3.0696 22.5749C2.95704 22.4613 2.86808 22.3266 2.80787 22.1785C2.74766 22.0304 2.71739 21.8718 2.7188 21.7119Z" fill="#009245"/>
</svg>
