<svg width="32" height="32" viewBox="0 0 32 32" fill="none" xmlns="http://www.w3.org/2000/svg">
<g clip-path="url(#clip0_14405_61810)">
<path fill-rule="evenodd" clip-rule="evenodd" d="M5.64453 0.335938H26.4445V9.93594H5.64453V0.335938Z" fill="#EFF6FF"/>
<path fill-rule="evenodd" clip-rule="evenodd" d="M5.64205 15.8936V22.0536C5.76472 22.0536 9.04472 30.7789 9.04472 30.7789H26.4367V15.8936C25.8127 18.0749 6.93805 20.4162 5.63672 15.8936H5.64205Z" fill="#EFF6FF"/>
<path fill-rule="evenodd" clip-rule="evenodd" d="M17.8087 2.2506C19.8272 2.58507 21.7094 3.4852 23.2369 4.8465C24.7643 6.2078 25.8743 7.97442 26.438 9.94127V0.335938H16.3047C16.8564 0.930207 17.356 1.57079 17.798 2.2506H17.8087Z" fill="#D9EEFF"/>
<path fill-rule="evenodd" clip-rule="evenodd" d="M22.7664 21.3816C22.1462 21.8765 21.4738 22.3021 20.7611 22.6509C20.3388 24.6462 19.665 26.5799 18.7557 28.4056C18.3332 29.2358 17.8426 30.0296 17.2891 30.7789H26.4357V15.8936C25.8143 18.0377 24.5458 19.9376 22.8037 21.3336L22.7664 21.3602V21.3816Z" fill="#D9EEFF"/>
<path fill-rule="evenodd" clip-rule="evenodd" d="M25.3178 12.896C25.3191 11.3644 24.9414 9.85621 24.2181 8.50607C23.4949 7.15594 22.4488 6.00579 21.173 5.15824C19.8973 4.31069 18.4316 3.79208 16.9067 3.64868C15.3818 3.50527 13.8451 3.74154 12.4337 4.33639C11.0223 4.93124 9.78004 5.86619 8.81781 7.05783C7.85557 8.24947 7.20324 9.66075 6.91901 11.1658C6.63477 12.6708 6.72747 14.2228 7.18884 15.6833C7.65021 17.1438 8.4659 18.4674 9.56314 19.536C9.56314 23.8667 25.3178 25.2267 25.3178 12.896Z" fill="#9FD4FE"/>
<path fill-rule="evenodd" clip-rule="evenodd" d="M13.0128 15.5625C12.2228 15.7347 11.512 16.1634 10.9911 16.7818C10.4702 17.4001 10.1684 18.1734 10.1328 18.9812C11.4176 20.2479 13.0729 21.0718 14.8581 21.3332V17.9145L14.0901 18.4478L13.0128 15.5625Z" fill="#FFD772"/>
<path fill-rule="evenodd" clip-rule="evenodd" d="M13.0131 15.5628L14.0798 18.4375L14.8478 17.9041L16.0318 17.1095L14.2931 15.4668H13.7598C13.507 15.4662 13.2548 15.493 13.0078 15.5468L13.0131 15.5628Z" fill="#EFF6FF"/>
<path fill-rule="evenodd" clip-rule="evenodd" d="M14.8594 17.9148V21.3335C15.2518 21.387 15.6473 21.4137 16.0434 21.4135C16.4376 21.4139 16.8315 21.3872 17.222 21.3335V17.9148L16.0434 17.1201L14.8594 17.9148Z" fill="#39B54A"/>
<path fill-rule="evenodd" clip-rule="evenodd" d="M16.043 17.1201L17.2216 17.9148L17.9896 18.4481L19.0563 15.5735C18.8137 15.5118 18.5652 15.476 18.315 15.4668H17.7816L16.043 17.1201Z" fill="#EFF6FF"/>
<path fill-rule="evenodd" clip-rule="evenodd" d="M19.0729 15.5625L18.0063 18.4372L17.2383 17.9038V21.3332C19.027 21.0824 20.6885 20.2657 21.9796 19.0025C21.9463 18.1876 21.6425 17.4071 21.1161 16.7841C20.5897 16.1612 19.8708 15.7313 19.0729 15.5625Z" fill="#FFD772"/>
<path fill-rule="evenodd" clip-rule="evenodd" d="M14.293 13.8667V15.4667L16.0423 17.104L17.7916 15.4667V13.8667C17.3191 14.3142 16.6931 14.5636 16.0423 14.5636C15.3915 14.5636 14.7655 14.3142 14.293 13.8667Z" fill="#FED1A3"/>
<path fill-rule="evenodd" clip-rule="evenodd" d="M14.2935 13.8668C14.766 14.3143 15.392 14.5637 16.0428 14.5637C16.6936 14.5637 17.3196 14.3143 17.7921 13.8668C18.6775 13.0828 19.3175 11.6428 19.3175 9.54676C19.3228 9.45617 19.3228 9.36534 19.3175 9.27475C17.2481 10.1921 14.6188 9.61609 13.0028 8.35742C12.85 8.73527 12.7722 9.1392 12.7735 9.54676C12.7735 11.6428 13.4188 13.0828 14.3041 13.8668H14.2935Z" fill="#FFE5C1"/>
<path fill-rule="evenodd" clip-rule="evenodd" d="M12.9922 8.35738C14.5922 9.61604 17.2589 10.192 19.3069 9.27471C19.2455 8.53701 18.936 7.84186 18.4288 7.30263C17.9217 6.76341 17.2468 6.41193 16.5142 6.30551C15.7817 6.19909 15.0347 6.34401 14.395 6.71664C13.7554 7.08927 13.2609 7.66763 12.9922 8.35738Z" fill="#375E7D"/>
<path fill-rule="evenodd" clip-rule="evenodd" d="M16.0425 4.43711C18.2149 4.3988 20.3191 5.19579 21.921 6.66364C23.5229 8.1315 24.5003 10.1582 24.6515 12.3257C24.8027 14.4931 24.1162 16.6359 22.7336 18.312C21.351 19.988 19.3778 21.0694 17.2212 21.3331C16.8306 21.3868 16.4368 21.4136 16.0425 21.4131C15.6465 21.4134 15.2509 21.3867 14.8585 21.3331C12.7012 21.0696 10.7274 19.9878 9.34464 18.3112C7.96184 16.6345 7.27557 14.4909 7.42749 12.3229C7.57942 10.1549 8.55794 8.12795 10.1611 6.66052C11.7642 5.19309 13.8696 4.39719 16.0425 4.43711ZM16.0425 2.10645C14.3685 2.10645 12.7173 2.49504 11.2189 3.24162C9.72058 3.9882 8.41598 5.07238 7.40783 6.40882C6.39969 7.74526 5.71552 9.29747 5.40919 10.9432C5.10286 12.589 5.18273 14.2834 5.64252 15.8931C6.28813 18.1532 7.65244 20.1415 9.52894 21.557C11.4054 22.9726 13.692 23.7383 16.0425 23.7383C18.393 23.7383 20.6796 22.9726 22.5561 21.557C24.4326 20.1415 25.7969 18.1532 26.4425 15.8931C26.8985 14.2851 26.9754 12.5932 26.6672 10.9505C26.3591 9.30768 25.6742 7.75875 24.6663 6.42533C23.6585 5.09192 22.3553 4.01035 20.8589 3.2656C19.3626 2.52085 17.7139 2.1332 16.0425 2.13311V2.10645Z" fill="#375E7D"/>
<path d="M17.4276 26.7731H14.4303C14.3058 26.7731 14.1864 26.7237 14.0984 26.6357C14.0104 26.5477 13.9609 26.4283 13.9609 26.3038C13.9609 26.1793 14.0104 26.06 14.0984 25.9719C14.1864 25.8839 14.3058 25.8345 14.4303 25.8345H17.4276C17.5521 25.8345 17.6715 25.8839 17.7595 25.9719C17.8475 26.06 17.8969 26.1793 17.8969 26.3038C17.8969 26.4283 17.8475 26.5477 17.7595 26.6357C17.6715 26.7237 17.5521 26.7731 17.4276 26.7731Z" fill="#2B4D66"/>
<path d="M19.317 28.8747H12.7623C12.6378 28.8747 12.5185 28.8253 12.4304 28.7372C12.3424 28.6492 12.293 28.5298 12.293 28.4054C12.293 28.2809 12.3424 28.1615 12.4304 28.0735C12.5185 27.9855 12.6378 27.936 12.7623 27.936H19.317C19.4414 27.936 19.5608 27.9855 19.6488 28.0735C19.7369 28.1615 19.7863 28.2809 19.7863 28.4054C19.7863 28.5298 19.7369 28.6492 19.6488 28.7372C19.5608 28.8253 19.4414 28.8747 19.317 28.8747Z" fill="#2B4D66"/>
<path fill-rule="evenodd" clip-rule="evenodd" d="M1.25849 27.0132L2.13316 28.3146L2.19716 29.9892L2.22916 31.0559C2.23645 31.1309 2.25957 31.2036 2.297 31.2691C2.33443 31.3345 2.38532 31.3913 2.4463 31.4356C2.50729 31.48 2.57698 31.5109 2.65079 31.5264C2.7246 31.5418 2.80085 31.5414 2.87449 31.5252L3.94116 31.2639L5.62649 30.8479L7.31716 31.2639L8.38383 31.5252C8.46161 31.548 8.54356 31.5527 8.62344 31.5391C8.70332 31.5254 8.77905 31.4937 8.84486 31.4464C8.91066 31.3991 8.96483 31.3374 9.00323 31.2661C9.04164 31.1947 9.06327 31.1155 9.06649 31.0346V30.7786V29.9892L9.1305 28.3146L10.0958 26.9119L10.6878 26.0319C10.7316 25.9696 10.7599 25.8978 10.7704 25.8224C10.781 25.747 10.7734 25.6702 10.7484 25.5983C10.7234 25.5264 10.6816 25.4615 10.6266 25.4089C10.5716 25.3563 10.5048 25.3176 10.4318 25.2959L9.40249 24.9332L7.76516 24.3572L6.69849 23.0559L5.99983 22.2399C5.95712 22.185 5.90311 22.1399 5.84146 22.1077C5.77981 22.0755 5.71195 22.0569 5.64249 22.0532C5.57318 22.0576 5.50556 22.0765 5.44401 22.1086C5.38245 22.1408 5.32834 22.1855 5.28516 22.2399L4.60249 23.0559L3.53583 24.3572L1.87716 24.9332L0.847828 25.2959C0.775573 25.3186 0.709627 25.3578 0.655263 25.4106C0.6009 25.4633 0.559629 25.528 0.53475 25.5995C0.509871 25.671 0.502076 25.7474 0.511987 25.8225C0.521898 25.8976 0.549241 25.9693 0.591828 26.0319L1.25849 27.0132Z" fill="#FFD772"/>
<path fill-rule="evenodd" clip-rule="evenodd" d="M0.591828 26.0319L1.25849 27.0132L2.13316 28.3146L2.19716 29.9892L2.22916 31.0559C2.23645 31.1309 2.25957 31.2036 2.297 31.2691C2.33443 31.3345 2.38532 31.3913 2.4463 31.4356C2.50729 31.48 2.57698 31.5109 2.65079 31.5264C2.7246 31.5418 2.80085 31.5414 2.87449 31.5252L3.94116 31.2639L5.62649 30.8479L7.31716 31.2639L8.38383 31.5252C8.46161 31.548 8.54356 31.5527 8.62344 31.5391C8.70332 31.5254 8.77905 31.4937 8.84486 31.4464C8.91066 31.3991 8.96483 31.3374 9.00323 31.2661C9.04164 31.1947 9.06327 31.1155 9.06649 31.0346V30.7786V29.9892L9.1305 28.3146L10.0958 26.9119L10.6878 26.0319C10.7316 25.9696 10.7599 25.8978 10.7704 25.8224C10.781 25.747 10.7734 25.6702 10.7484 25.5983C10.7234 25.5264 10.6816 25.4615 10.6266 25.4089C10.5716 25.3563 10.5048 25.3176 10.4318 25.2959L9.40249 24.9332L7.76516 24.3572L6.69849 23.0559L5.99983 22.2399C5.95712 22.185 5.90311 22.1399 5.84146 22.1077C5.77981 22.0755 5.71195 22.0569 5.64249 22.0532C5.57318 22.0576 5.50556 22.0765 5.44401 22.1086C5.38245 22.1408 5.32834 22.1855 5.28516 22.2399L4.60249 23.0559L3.53583 24.3572L1.87716 24.9332L0.847828 25.2959C0.775573 25.3186 0.709627 25.3578 0.655263 25.4106C0.6009 25.4633 0.559629 25.528 0.53475 25.5995C0.509871 25.671 0.502076 25.7474 0.511987 25.8225C0.521898 25.8976 0.549241 25.9693 0.591828 26.0319Z" fill="#FFD772"/>
<path fill-rule="evenodd" clip-rule="evenodd" d="M5.9987 22.2399C5.95599 22.185 5.90198 22.1399 5.84033 22.1077C5.77868 22.0755 5.71082 22.0569 5.64136 22.0532H5.5827C5.5827 22.1332 5.62003 22.2132 5.64136 22.2986C5.92972 23.5218 6.07116 24.7751 6.0627 26.0319C6.09777 27.6952 5.85072 29.3525 5.33203 30.9332L5.66803 30.8479L7.3587 31.2639L8.42536 31.5252C8.50028 31.5407 8.57765 31.5398 8.6522 31.5227C8.72676 31.5056 8.79677 31.4727 8.85747 31.4261C8.91818 31.3796 8.96816 31.3205 9.00403 31.253C9.0399 31.1854 9.06082 31.1109 9.06536 31.0346V30.7786V29.9892L9.12937 28.3146L10.0947 26.9119L10.6867 26.0319C10.7305 25.9696 10.7588 25.8978 10.7693 25.8224C10.7798 25.747 10.7723 25.6702 10.7473 25.5983C10.7223 25.5264 10.6805 25.4615 10.6255 25.4089C10.5704 25.3563 10.5037 25.3176 10.4307 25.2959L9.40136 24.9332L7.76403 24.3572L6.69736 23.0559L5.9987 22.2399Z" fill="#FBBA58"/>
<path fill-rule="evenodd" clip-rule="evenodd" d="M15.4648 6.31999C16.0351 6.58252 16.5184 7.0027 16.8577 7.53096C17.197 8.05922 17.378 8.67351 17.3795 9.30133C17.3795 9.44533 17.3795 9.58399 17.3795 9.71733C18.0429 9.68828 18.6954 9.53826 19.3048 9.27466C19.233 8.45734 18.8585 7.69633 18.2547 7.14085C17.6509 6.58537 16.8613 6.27549 16.0408 6.27199C15.8478 6.27131 15.6551 6.28737 15.4648 6.31999Z" fill="#2B4D66"/>
<path fill-rule="evenodd" clip-rule="evenodd" d="M19.3078 9.27441C18.6984 9.53801 18.0459 9.68803 17.3825 9.71708C17.2705 12.3411 16.1025 13.8451 14.7852 14.2184C15.2573 14.4924 15.8055 14.6061 16.3477 14.5427C16.8899 14.4793 17.397 14.242 17.7932 13.8664C18.6785 13.0824 19.3185 11.6424 19.3185 9.54641C19.3238 9.45583 19.3238 9.365 19.3185 9.27441H19.3078Z" fill="#FED1A3"/>
<path fill-rule="evenodd" clip-rule="evenodd" d="M14.293 14.672C14.5881 14.95 14.9453 15.1535 15.3349 15.2657C15.7245 15.378 16.1352 15.3957 16.533 15.3174C16.8956 15.2374 16.853 15.3174 16.853 15.712V16.3467L17.7916 15.4667V13.8667C17.3955 14.2423 16.8884 14.4795 16.3462 14.543C15.804 14.6064 15.2558 14.4927 14.7836 14.2187C14.6077 14.1196 14.4432 14.0016 14.293 13.8667V14.672Z" fill="#FFBC85"/>
<path fill-rule="evenodd" clip-rule="evenodd" d="M18.625 16.7518C19.2644 16.9874 19.8258 17.3958 20.2467 17.9316C20.6676 18.4674 20.9315 19.1096 21.009 19.7865C21.3476 19.5432 21.6668 19.274 21.9637 18.9812C21.9266 18.1722 21.623 17.3983 21.1001 16.7799C20.5773 16.1615 19.8645 15.7335 19.073 15.5625L18.625 16.7518Z" fill="#FBBA58"/>
<path fill-rule="evenodd" clip-rule="evenodd" d="M17.8141 16.4748C18.0939 16.5366 18.3658 16.6297 18.6248 16.7521L19.0728 15.5628C18.8245 15.5036 18.5706 15.4714 18.3154 15.4668H17.7821L16.8594 16.3308L16.8008 16.3788H17.0674C17.3201 16.3808 17.572 16.4076 17.8194 16.4588L17.8141 16.4748Z" fill="#D9EEFF"/>
<path d="M25.8605 25.0293C25.7981 25.03 25.7361 25.0181 25.6784 24.9942C25.6206 24.9704 25.5683 24.9352 25.5245 24.8906L22.3992 21.6906C22.3122 21.6015 22.2642 21.4815 22.2657 21.357C22.2672 21.2324 22.3181 21.1136 22.4072 21.0266C22.4963 20.9396 22.6163 20.8916 22.7408 20.8931C22.8654 20.8946 22.9842 20.9455 23.0712 21.0346L26.2018 24.2346C26.2457 24.2778 26.2805 24.3293 26.3043 24.386C26.3281 24.4428 26.3403 24.5037 26.3403 24.5653C26.3403 24.6268 26.3281 24.6878 26.3043 24.7445C26.2805 24.8013 26.2457 24.8528 26.2018 24.896C26.1572 24.9404 26.1038 24.9752 26.0451 24.9982C25.9863 25.0211 25.9235 25.0317 25.8605 25.0293Z" fill="#375E7D"/>
<path fill-rule="evenodd" clip-rule="evenodd" d="M21.951 12.6455C21.953 14.0332 21.6122 15.3999 20.959 16.6242C21.568 17.2624 21.9244 18.1001 21.9617 18.9815C23.1664 17.8038 23.9931 16.294 24.3362 14.6446C24.6793 12.9951 24.5233 11.2809 23.8882 9.72049C23.253 8.16007 22.1675 6.82421 20.77 5.88329C19.3725 4.94237 17.7264 4.43904 16.0417 4.4375H15.6523C17.4608 4.91889 19.0592 5.98497 20.1985 7.46962C21.3378 8.95427 21.954 10.7741 21.951 12.6455Z" fill="#85BEEF"/>
<path fill-rule="evenodd" clip-rule="evenodd" d="M24.5339 12.9173C24.5351 14.0475 24.3096 15.1665 23.8708 16.2081C23.432 17.2496 22.7888 18.1926 21.9792 18.9813C21.8352 19.1253 21.6859 19.264 21.5312 19.392C20.5651 20.5991 19.3508 21.5843 17.9705 22.2809C16.5902 22.9775 15.0762 23.3692 13.5312 23.4293C16.2388 24.0727 19.0902 23.6488 21.4935 22.2456C23.8968 20.8423 25.6675 18.5675 26.4379 15.8933C26.8938 14.2857 26.9708 12.5943 26.6629 10.952C26.355 9.30959 25.6706 7.76095 24.6634 6.42765C23.6561 5.09435 22.3536 4.01267 20.8579 3.26757C19.3623 2.52247 17.7142 2.13421 16.0432 2.1333H15.6272C17.1287 2.49598 18.5351 3.17572 19.7522 4.12689C20.9692 5.07806 21.9686 6.27863 22.6832 7.64797C23.8789 9.14423 24.5314 11.002 24.5339 12.9173Z" fill="#2B4D66"/>
<path fill-rule="evenodd" clip-rule="evenodd" d="M24.8 23.4669C24.4182 23.8299 24.1955 24.3291 24.1805 24.8557C24.1655 25.3823 24.3594 25.8934 24.72 26.2776L25.7866 27.4296L27.92 26.7789L28.6933 24.6989L27.6266 23.5469C27.532 23.4466 27.4264 23.3571 27.312 23.2802C26.9357 23.0177 26.4803 22.8929 26.0228 22.9269C25.5652 22.9609 25.1333 23.1516 24.8 23.4669Z" fill="#F5A96C"/>
<path fill-rule="evenodd" clip-rule="evenodd" d="M30.0473 26.1333L27.914 26.784L27.1406 28.864L27.29 29.024L28.2233 30.016C28.5923 30.3703 29.0833 30.5694 29.5949 30.572C30.1065 30.5746 30.5995 30.3805 30.9721 30.0299C31.3446 29.6792 31.5682 29.1989 31.5966 28.6881C31.625 28.1773 31.456 27.6751 31.1246 27.2853L30.0473 26.1333Z" fill="#F5A96C"/>
<path fill-rule="evenodd" clip-rule="evenodd" d="M27.5743 25.7814L28.6997 24.7147L27.633 23.5627C27.5383 23.4624 27.4328 23.373 27.3183 23.296C26.9433 23.03 26.488 22.9017 26.0292 22.9328C25.5705 22.9639 25.1366 23.1525 24.801 23.4667C24.6069 23.6481 24.4525 23.8679 24.3477 24.112C24.6486 24.0007 24.9719 23.9634 25.2903 24.0034C25.6087 24.0433 25.9128 24.1592 26.177 24.3414C26.2915 24.4183 26.397 24.5077 26.4917 24.608L27.5743 25.7814Z" fill="#EA9A58"/>
<path fill-rule="evenodd" clip-rule="evenodd" d="M30.0472 26.1333L28.9219 27.2L29.9885 28.352C30.2572 28.636 30.4359 28.993 30.5023 29.3782C30.5688 29.7635 30.5199 30.1597 30.3619 30.5173C30.6137 30.4296 30.8431 30.2876 31.0339 30.1013C31.4177 29.7398 31.6422 29.2407 31.6582 28.7136C31.6742 28.1866 31.4804 27.6748 31.1192 27.2906L30.0472 26.1333Z" fill="#EA9A58"/>
<path fill-rule="evenodd" clip-rule="evenodd" d="M28.6968 24.7197L25.8008 27.4504L27.1501 28.8797L30.0461 26.1331L28.6968 24.7197Z" fill="#39B54A"/>
<path fill-rule="evenodd" clip-rule="evenodd" d="M28.6996 24.7197L27.5742 25.7864L28.9236 27.1997L30.0489 26.1331L28.6996 24.7197Z" fill="#009245"/>
</g>
<defs>
<clipPath id="clip0_14405_61810">
<rect width="32" height="32" fill="white"/>
</clipPath>
</defs>
</svg>
