<svg width="76" height="89" viewBox="0 0 76 89" fill="none" xmlns="http://www.w3.org/2000/svg">
<mask id="path-1-outside-1_9995_60887" maskUnits="userSpaceOnUse" x="-1" y="-1" width="77" height="91" fill="black">
<rect fill="white" x="-1" y="-1" width="77" height="91"/>
<path d="M0.675781 89L3.19531 73.8828L39.6406 45.9922C42.4141 43.8047 44.7773 41.8125 46.7305 40.0156C48.7227 38.1797 50.3047 36.3438 51.4766 34.5078C52.6875 32.6719 53.4883 30.6797 53.8789 28.5312C54.4648 24.8984 53.7617 22.0664 51.7695 20.0352C49.8164 17.9648 47.082 16.9492 43.5664 16.9883C41.1445 16.9492 38.918 17.4375 36.8867 18.4531C34.8945 19.4297 33.2344 20.8359 31.9062 22.6719C30.5781 24.5078 29.6797 26.7539 29.2109 29.4102H9.23047C10.2461 23.4727 12.4531 18.3555 15.8516 14.0586C19.25 9.72266 23.5664 6.38281 28.8008 4.03906C34.0352 1.69531 39.8555 0.523438 46.2617 0.523438C52.8633 0.523438 58.4297 1.63672 62.9609 3.86328C67.5312 6.05078 70.832 9.13672 72.8633 13.1211C74.8945 17.0664 75.4609 21.6758 74.5625 26.9492C74.0156 30.2305 72.7852 33.5117 70.8711 36.793C68.9961 40.0352 65.9883 43.6484 61.8477 47.6328C57.7461 51.5781 52.1016 56.3047 44.9141 61.8125L32.7852 71.4219V72.0078H68.0586L65.3047 89H0.675781Z"/>
</mask>
<path d="M0.675781 89L-0.310613 88.8356C-0.358938 89.1256 -0.277242 89.4221 -0.0872387 89.6464C0.102765 89.8707 0.381829 90 0.675781 90V89ZM3.19531 73.8828L2.58758 73.0887C2.38601 73.2429 2.25065 73.468 2.20892 73.7184L3.19531 73.8828ZM39.6406 45.9922L40.2484 46.7863C40.2522 46.7834 40.2561 46.7804 40.2599 46.7774L39.6406 45.9922ZM46.7305 40.0156L47.4075 40.7516L47.4081 40.751L46.7305 40.0156ZM51.4766 34.5078L50.6418 33.9572C50.639 33.9614 50.6363 33.9656 50.6336 33.9698L51.4766 34.5078ZM53.8789 28.5312L54.8628 28.7101C54.864 28.7036 54.8651 28.697 54.8661 28.6905L53.8789 28.5312ZM51.7695 20.0352L51.0421 20.7214C51.0466 20.7261 51.0511 20.7307 51.0556 20.7354L51.7695 20.0352ZM43.5664 16.9883L43.5503 17.9882C43.5594 17.9883 43.5684 17.9883 43.5775 17.9882L43.5664 16.9883ZM36.8867 18.4531L37.3269 19.3511L37.3339 19.3476L36.8867 18.4531ZM31.9062 22.6719L32.7165 23.258L31.9062 22.6719ZM29.2109 29.4102V30.4102C29.6962 30.4102 30.1114 30.0618 30.1957 29.5839L29.2109 29.4102ZM9.23047 29.4102L8.24479 29.2416C8.1951 29.532 8.27607 29.8296 8.46607 30.0549C8.65608 30.2802 8.93577 30.4102 9.23047 30.4102V29.4102ZM15.8516 14.0586L16.6359 14.6789L16.6386 14.6755L15.8516 14.0586ZM62.9609 3.86328L62.5199 4.76083L62.5292 4.76529L62.9609 3.86328ZM72.8633 13.1211L71.9724 13.5753L71.9742 13.5788L72.8633 13.1211ZM74.5625 26.9492L73.5767 26.7813L73.5761 26.7848L74.5625 26.9492ZM70.8711 36.793L70.0073 36.2891L70.0054 36.2923L70.8711 36.793ZM61.8477 47.6328L62.5409 48.3535L62.541 48.3534L61.8477 47.6328ZM44.9141 61.8125L44.3058 61.0188C44.3015 61.022 44.2973 61.0253 44.2931 61.0287L44.9141 61.8125ZM32.7852 71.4219L32.1642 70.6381C31.9248 70.8277 31.7852 71.1164 31.7852 71.4219H32.7852ZM32.7852 72.0078H31.7852C31.7852 72.5601 32.2329 73.0078 32.7852 73.0078V72.0078ZM68.0586 72.0078L69.0457 72.1678C69.0926 71.8784 69.0102 71.583 68.8202 71.3597C68.6302 71.1365 68.3518 71.0078 68.0586 71.0078V72.0078ZM65.3047 89V90C65.7952 90 66.2133 89.6442 66.2918 89.16L65.3047 89ZM1.66218 89.1644L4.18171 74.0472L2.20892 73.7184L-0.310613 88.8356L1.66218 89.1644ZM3.80305 74.677L40.2484 46.7863L39.0329 45.198L2.58758 73.0887L3.80305 74.677ZM40.2599 46.7774C43.0472 44.5789 45.4309 42.5701 47.4075 40.7516L46.0534 39.2797C44.1238 41.0549 41.781 43.0304 39.0213 45.207L40.2599 46.7774ZM47.4081 40.751C49.449 38.8702 51.0916 36.9695 52.3195 35.0458L50.6336 33.9698C49.5178 35.718 47.9963 37.4892 46.0528 39.2803L47.4081 40.751ZM52.3113 35.0584C53.596 33.1107 54.4478 30.9922 54.8628 28.7101L52.895 28.3524C52.5287 30.3671 51.779 32.233 50.6418 33.9572L52.3113 35.0584ZM54.8661 28.6905C55.4864 24.8452 54.7612 21.6574 52.4835 19.3349L51.0556 20.7354C52.7622 22.4754 53.4433 24.9517 52.8917 28.372L54.8661 28.6905ZM52.4969 19.3489C50.3086 17.0294 47.2795 15.947 43.5553 15.9883L43.5775 17.9882C46.8845 17.9515 49.3242 18.9003 51.0421 20.7214L52.4969 19.3489ZM43.5825 15.9884C41.011 15.9469 38.624 16.4664 36.4395 17.5587L37.3339 19.3476C39.2119 18.4086 41.2781 17.9515 43.5503 17.9882L43.5825 15.9884ZM36.4466 17.5552C34.3041 18.6054 32.518 20.1201 31.096 22.0858L32.7165 23.258C33.9508 21.5518 35.4849 20.254 37.3269 19.351L36.4466 17.5552ZM31.096 22.0858C29.664 24.0653 28.7162 26.4593 28.2262 29.2364L30.1957 29.5839C30.6432 27.0485 31.4923 24.9503 32.7165 23.258L31.096 22.0858ZM29.2109 28.4102H9.23047V30.4102H29.2109V28.4102ZM10.2162 29.5788C11.2064 23.7895 13.3514 18.8317 16.6359 14.6789L15.0672 13.4383C11.5548 17.8792 9.28577 23.1558 8.24479 29.2416L10.2162 29.5788ZM16.6386 14.6755C19.9327 10.4727 24.1171 7.23192 29.2094 4.95175L28.3921 3.12638C23.0158 5.53371 18.5673 8.97258 15.0645 13.4417L16.6386 14.6755ZM29.2094 4.95175C34.301 2.67196 39.9798 1.52344 46.2617 1.52344V-0.476562C39.7312 -0.476562 33.7693 0.71867 28.3921 3.12638L29.2094 4.95175ZM46.2617 1.52344C52.7556 1.52344 58.1614 2.6191 62.5199 4.76078L63.402 2.96578C58.698 0.654337 52.971 -0.476562 46.2617 -0.476562V1.52344ZM62.5292 4.76529C66.9291 6.8712 70.0539 9.81218 71.9724 13.5753L73.7542 12.6669C71.6101 8.46125 68.1334 5.23036 63.3927 2.96128L62.5292 4.76529ZM71.9742 13.5788C73.8872 17.2945 74.4464 21.6763 73.5767 26.7813L75.5483 27.1172C76.4754 21.6753 75.9018 16.8383 73.7524 12.6633L71.9742 13.5788ZM73.5761 26.7848C73.0518 29.9307 71.8688 33.0979 70.0073 36.2891L71.7349 37.2968C73.7015 33.9255 74.9795 30.5302 75.5489 27.1136L73.5761 26.7848ZM70.0054 36.2923C68.1952 39.4225 65.2593 42.9621 61.1543 46.9122L62.541 48.3534C66.7172 44.3348 69.797 40.6478 71.7368 37.2936L70.0054 36.2923ZM61.1544 46.9121C57.0907 50.821 51.4788 55.5221 44.3058 61.0188L45.5223 62.6062C52.7244 57.0873 58.4015 52.3352 62.5409 48.3535L61.1544 46.9121ZM44.2931 61.0287L32.1642 70.6381L33.4062 72.2057L45.5351 62.5963L44.2931 61.0287ZM31.7852 71.4219V72.0078H33.7852V71.4219H31.7852ZM32.7852 73.0078H68.0586V71.0078H32.7852V73.0078ZM67.0715 71.8478L64.3176 88.84L66.2918 89.16L69.0457 72.1678L67.0715 71.8478ZM65.3047 88H0.675781V90H65.3047V88Z" fill="#FFDD33" mask="url(#path-1-outside-1_9995_60887)"/>
</svg>
