<svg width="100" height="100" viewBox="0 0 100 100" fill="none" xmlns="http://www.w3.org/2000/svg">
<rect width="100" height="100" fill="white"/>
<g clip-path="url(#clip0_14347_33500)">
<path d="M88.9089 23.9382C91.3171 23.9382 93.2765 25.8975 93.2765 28.3058V73.1361C93.2765 75.5443 91.3173 77.5037 88.9089 77.5037H10.3852C7.97697 77.5037 6.01758 75.5445 6.01758 73.1361V28.3058C6.01758 25.8976 7.97679 23.9382 10.3852 23.9382H88.9089ZM88.9089 23.0691H10.3852C7.49303 23.0691 5.14844 25.4137 5.14844 28.3058V73.1361C5.14844 76.0284 7.49303 78.3729 10.3852 78.3729H88.9089C91.8012 78.3729 94.1457 76.0284 94.1457 73.1361V28.3058C94.1457 25.4137 91.8011 23.0691 88.9089 23.0691Z" fill="#00AAD2"/>
<path d="M67.3537 45.667C64.4748 45.667 62.1406 48.001 62.1406 50.8803C62.1406 53.7592 64.4748 56.0934 67.3537 56.0934C69.5697 56.0934 71.4576 54.7085 72.2124 52.759C72.2562 52.1849 72.2852 51.6065 72.2852 51.0209C72.2852 50.3146 72.2484 49.6169 72.1855 48.9271C71.4121 47.0162 69.5419 45.667 67.3537 45.667Z" fill="#00AAD2"/>
<path d="M67.3517 58.6295C63.0721 58.6295 59.6024 55.16 59.6024 50.8804C59.6024 46.6004 63.0721 43.1308 67.3517 43.1308C68.7646 43.1308 70.0878 43.5106 71.2281 44.171C68.3232 34.9911 59.7392 28.3364 49.5986 28.3364C37.0703 28.3364 26.9141 38.4927 26.9141 51.021C26.9141 63.5495 37.0703 73.7056 49.5986 73.7056C59.8637 73.7056 68.532 66.8852 71.3306 57.5303C70.1674 58.2276 68.8068 58.6295 67.3517 58.6295ZM44.4559 58.2775H33.959V56.3048C33.959 56.3048 39.5948 51.514 40.7221 50.3165C41.8492 49.1188 42.4129 47.2168 40.9335 46.0897C39.454 44.9624 37.4814 45.7373 36.002 47.7099L34.2407 46.3713C34.2407 46.3713 36.002 42.9898 40.2993 43.4829C44.5967 43.9761 45.3011 48.6256 43.0469 51.0914C40.7925 53.5571 37.411 56.0933 37.411 56.0933H44.4559V58.2775ZM53.6846 56.0935C54.9736 56.0935 56.1507 55.6234 57.0604 54.8489L58.904 56.6082C57.5266 57.8639 55.6951 58.6295 53.6846 58.6295C49.405 58.6295 45.9354 55.16 45.9354 50.8804C45.9354 46.6004 49.405 43.1308 53.6846 43.1308C55.7624 43.1308 57.6476 43.95 59.0392 45.2812L57.1654 47.0068C56.242 46.1766 55.0245 45.6669 53.6848 45.6669C50.8059 45.6669 48.4717 48.0009 48.4717 50.8802C48.4715 53.7593 50.8055 56.0935 53.6846 56.0935Z" fill="#00AAD2"/>
</g>
<defs>
<clipPath id="clip0_14347_33500">
<rect width="89" height="89" fill="white" transform="translate(5 6)"/>
</clipPath>
</defs>
</svg>
