<svg width="32" height="32" viewBox="0 0 32 32" fill="none" xmlns="http://www.w3.org/2000/svg">
<g clip-path="url(#clip0_14405_61552)">
<path d="M31.5803 4.26623V23.8236C31.5803 24.023 31.5011 24.2143 31.3601 24.3553C31.219 24.4963 31.0278 24.5756 30.8283 24.5756H1.94833L0.375 4.26623L2.215 3.01823L28.8283 2.4209L31.5803 4.26623Z" fill="#E5ECEF"/>
<path d="M2.70033 24.5759H1.127C0.927557 24.5759 0.736283 24.4967 0.595256 24.3556C0.454228 24.2146 0.375 24.0233 0.375 23.8239V4.26655L1.24433 3.01855L1.943 4.26655V23.8239C1.94441 24.0238 2.02482 24.2151 2.16669 24.356C2.30857 24.4968 2.5004 24.5759 2.70033 24.5759Z" fill="#87C5FE"/>
<path d="M31.5803 1.3438V4.26646H0.375L1.82033 0.591797H30.8283C31.0278 0.591797 31.219 0.671025 31.3601 0.812053C31.5011 0.95308 31.5803 1.14435 31.5803 1.3438Z" fill="#5BB0FE"/>
<path d="M2.70033 0.591797C2.5004 0.591792 2.30857 0.67085 2.16669 0.811726C2.02482 0.952602 1.94441 1.14387 1.943 1.3438V4.26646H0.375V1.3438C0.375 1.14435 0.454228 0.95308 0.595256 0.812053C0.736283 0.671025 0.927557 0.591797 1.127 0.591797H2.70033Z" fill="#6BBBFE"/>
<path d="M23.574 18.7787C23.5206 17.9307 23.6433 17.136 23.3873 16.352C22.278 12.9813 19.1206 10.3467 15.8726 10.3467C12.6246 10.3467 9.30731 12.9547 8.27797 16.4427C8.06997 17.1573 8.32597 18.0427 8.27797 18.7787H23.574Z" fill="#FCEE21"/>
<path d="M15.1445 10.8852C18.8192 11.3012 21.7365 14.6186 22.0032 18.7786H23.6032C23.4859 16.9492 23.2885 15.0452 22.3179 13.7386C21.555 12.7641 20.5851 11.9714 19.4782 11.418C18.3713 10.8645 17.1551 10.5641 15.9179 10.5386C15.6565 10.5386 15.4325 10.8532 15.1765 10.8852" fill="#D9E021"/>
<path d="M8.10125 12.9542C8.23458 12.7568 8.37858 12.5702 8.52258 12.3888C8.66658 12.2075 8.90125 11.9302 9.10392 11.7168C9.96861 10.7675 11.0219 10.0091 12.1965 9.49012C13.3711 8.97117 14.6411 8.70312 15.9253 8.70312C17.2094 8.70312 18.4794 8.97117 19.654 9.49012C20.8286 10.0091 21.8819 10.7675 22.7466 11.7168C24.54 13.6452 25.5908 16.1475 25.7119 18.7782H23.5786C23.2906 14.3088 19.9679 10.8368 15.9306 10.8368C14.8398 10.8482 13.7653 11.1037 12.7862 11.5845C11.807 12.0653 10.9479 12.7593 10.2719 13.6155C10.1706 13.7435 10.0693 13.8662 9.97858 13.9995C9.47192 14.6928 8.17059 14.5648 8.17059 14.5648C8.00275 14.3344 7.90708 14.0594 7.89568 13.7746C7.88429 13.4897 7.95769 13.2079 8.10659 12.9648" fill="#5BB0FE"/>
<path d="M6.14062 18.7785H8.27396C8.3798 16.8917 9.07566 15.0858 10.2633 13.6158L8.53529 12.3892C7.0937 14.2223 6.26028 16.4597 6.15129 18.7892" fill="#39B54A"/>
<path d="M27.1076 19.1996H17.3102C17.1886 19.1996 17.0719 19.1512 16.9859 19.0652C16.8999 18.9792 16.8516 18.8625 16.8516 18.7409C16.8516 18.6192 16.8999 18.5026 16.9859 18.4166C17.0719 18.3306 17.1886 18.2822 17.3102 18.2822H27.1076C27.2292 18.2822 27.3459 18.3306 27.4319 18.4166C27.5179 18.5026 27.5662 18.6192 27.5662 18.7409C27.5662 18.8625 27.5179 18.9792 27.4319 19.0652C27.3459 19.1512 27.2292 19.1996 27.1076 19.1996Z" fill="#80B6DD"/>
<path d="M14.6466 19.1996H4.84929C4.72765 19.1996 4.61098 19.1512 4.52497 19.0652C4.43895 18.9792 4.39062 18.8625 4.39062 18.7409C4.39062 18.6192 4.43895 18.5026 4.52497 18.4166C4.61098 18.3306 4.72765 18.2822 4.84929 18.2822H14.6466C14.7683 18.2822 14.8849 18.3306 14.971 18.4166C15.057 18.5026 15.1053 18.6192 15.1053 18.7409C15.1053 18.8625 15.057 18.9792 14.971 19.0652C14.8849 19.1512 14.7683 19.1996 14.6466 19.1996Z" fill="#80B6DD"/>
<path d="M16.2352 17.8612C16.2593 18.0465 16.2198 18.2345 16.1232 18.3945C16.0679 18.4869 15.9948 18.5675 15.9081 18.6316C15.8215 18.6956 15.723 18.7419 15.6184 18.7677C15.5137 18.7934 15.405 18.7982 15.2986 18.7818C15.1921 18.7654 15.0899 18.728 14.9979 18.6718L11.2006 16.3572C11.0153 16.244 10.8825 16.0619 10.8315 15.8508C10.7805 15.6398 10.8154 15.4171 10.9286 15.2318C11.0417 15.0465 11.2239 14.9138 11.4349 14.8628C11.6459 14.8118 11.8686 14.8467 12.0539 14.9598L15.8299 17.2638C15.9385 17.3259 16.0315 17.4121 16.1017 17.5156C16.172 17.6191 16.2176 17.7373 16.2352 17.8612Z" fill="#5BB0FE"/>
<path d="M17.4371 18.7782C17.4315 19.1748 17.27 19.5532 16.9876 19.8317C16.7051 20.1101 16.3244 20.2662 15.9278 20.2662C15.0958 20.2662 14.8984 19.1462 14.8984 18.7569C14.8984 18.3675 15.0958 17.2422 15.9278 17.2422C16.1264 17.2422 16.3231 17.2814 16.5066 17.3576C16.6901 17.4338 16.8567 17.5454 16.9969 17.6861C17.1371 17.8269 17.2482 17.9939 17.3237 18.1776C17.3993 18.3614 17.4378 18.5582 17.4371 18.7569" fill="#5B9CCF"/>
<path d="M16.62 20.1224C16.3893 20.2468 16.1302 20.3091 15.8682 20.3034C15.6061 20.2976 15.35 20.224 15.1249 20.0896C14.8999 19.9552 14.7135 19.7648 14.5841 19.5368C14.4547 19.3088 14.3867 19.0512 14.3867 18.7891C14.3867 18.527 14.4547 18.2693 14.5841 18.0414C14.7135 17.8134 14.8999 17.6229 15.1249 17.4886C15.35 17.3542 15.6061 17.2805 15.8682 17.2748C16.1302 17.269 16.3893 17.3314 16.62 17.4557C16.3779 17.5842 16.1753 17.7762 16.034 18.0111C15.8927 18.246 15.818 18.515 15.818 18.7891C15.818 19.0632 15.8927 19.3322 16.034 19.5671C16.1753 19.802 16.3779 19.994 16.62 20.1224Z" fill="#5686BA"/>
<path d="M26.0852 24.9864V31.3864C26.0852 31.4529 26.1116 31.5166 26.1586 31.5636C26.2057 31.6106 26.2694 31.637 26.3359 31.637H27.7972L28.2932 23.8504L26.7946 21.4077L24.9012 24.357C24.8762 24.3948 24.8618 24.4385 24.8597 24.4837C24.8575 24.529 24.8676 24.5739 24.8889 24.6138C24.9103 24.6538 24.942 24.6872 24.9808 24.7105C25.0196 24.7338 25.064 24.7462 25.1092 24.7464H25.8346C25.901 24.7464 25.9648 24.7728 26.0118 24.8198C26.0588 24.8668 26.0852 24.9306 26.0852 24.997" fill="#39B54A"/>
<path d="M26.668 21.5675L27.148 20.8209C27.1707 20.7857 27.2019 20.7567 27.2387 20.7366C27.2755 20.7166 27.3167 20.7061 27.3586 20.7061C27.4005 20.7061 27.4418 20.7166 27.4786 20.7366C27.5154 20.7567 27.5466 20.7857 27.5693 20.8209L29.868 24.3462C29.8914 24.3846 29.9043 24.4286 29.9054 24.4736C29.9064 24.5186 29.8956 24.5631 29.874 24.6026C29.8523 24.6421 29.8207 24.6752 29.7821 24.6985C29.7436 24.7219 29.6997 24.7346 29.6546 24.7355H28.9293C28.8623 24.7355 28.798 24.7618 28.7501 24.8086C28.7023 24.8555 28.6747 24.9192 28.6733 24.9862V31.3862C28.6733 31.4527 28.6469 31.5164 28.5999 31.5635C28.5529 31.6105 28.4891 31.6369 28.4226 31.6369H27.0413C27.1078 31.6369 27.1715 31.6105 27.2186 31.5635C27.2656 31.5164 27.292 31.4527 27.292 31.3862V24.9862C27.292 24.9197 27.3184 24.856 27.3654 24.809C27.4124 24.762 27.4762 24.7355 27.5426 24.7355H27.5906C27.7032 24.7369 27.814 24.7078 27.9114 24.6513C28.0087 24.5948 28.089 24.513 28.1437 24.4146C28.1983 24.3162 28.2254 24.2049 28.2219 24.0924C28.2184 23.9799 28.1846 23.8704 28.124 23.7755L26.668 21.5675Z" fill="#009245"/>
<path d="M28.8815 2.93322H28.6682C28.6042 2.94016 28.5394 2.93353 28.4781 2.91377C28.4168 2.89402 28.3604 2.86158 28.3125 2.81856C28.2645 2.77555 28.2262 2.72292 28.2 2.66411C28.1737 2.6053 28.1602 2.54162 28.1602 2.47722C28.1602 2.41282 28.1737 2.34914 28.2 2.29033C28.2262 2.23152 28.2645 2.1789 28.3125 2.13588C28.3604 2.09286 28.4168 2.06042 28.4781 2.04067C28.5394 2.02091 28.6042 2.01429 28.6682 2.02122H28.8815C28.9456 2.01429 29.0103 2.02091 29.0716 2.04067C29.1329 2.06042 29.1894 2.09286 29.2373 2.13588C29.2852 2.1789 29.3236 2.23152 29.3498 2.29033C29.376 2.34914 29.3896 2.41282 29.3896 2.47722C29.3896 2.54162 29.376 2.6053 29.3498 2.66411C29.3236 2.72292 29.2852 2.77555 29.2373 2.81856C29.1894 2.86158 29.1329 2.89402 29.0716 2.91377C29.0103 2.93353 28.9456 2.94016 28.8815 2.93322Z" fill="#FF949B"/>
<path d="M27.1003 2.93322H26.887C26.8229 2.94016 26.7582 2.93353 26.6969 2.91377C26.6356 2.89402 26.5791 2.86158 26.5312 2.81856C26.4833 2.77555 26.4449 2.72292 26.4187 2.66411C26.3925 2.6053 26.3789 2.54162 26.3789 2.47722C26.3789 2.41282 26.3925 2.34914 26.4187 2.29033C26.4449 2.23152 26.4833 2.1789 26.5312 2.13588C26.5791 2.09286 26.6356 2.06042 26.6969 2.04067C26.7582 2.02091 26.8229 2.01429 26.887 2.02122H27.1003C27.1643 2.01429 27.2291 2.02091 27.2904 2.04067C27.3517 2.06042 27.4081 2.09286 27.4561 2.13588C27.504 2.1789 27.5423 2.23152 27.5685 2.29033C27.5948 2.34914 27.6083 2.41282 27.6083 2.47722C27.6083 2.54162 27.5948 2.6053 27.5685 2.66411C27.5423 2.72292 27.504 2.77555 27.4561 2.81856C27.4081 2.86158 27.3517 2.89402 27.2904 2.91377C27.2291 2.93353 27.1643 2.94016 27.1003 2.93322Z" fill="#B3FD8B"/>
<path d="M25.314 2.93322H25.1007C24.9882 2.92104 24.8843 2.86775 24.8087 2.78359C24.7332 2.69942 24.6914 2.59032 24.6914 2.47722C24.6914 2.36413 24.7332 2.25502 24.8087 2.17085C24.8843 2.08669 24.9882 2.0334 25.1007 2.02122H25.314C25.378 2.01429 25.4428 2.02091 25.5041 2.04067C25.5654 2.06042 25.6218 2.09286 25.6698 2.13588C25.7177 2.1789 25.756 2.23152 25.7823 2.29033C25.8085 2.34914 25.8221 2.41282 25.8221 2.47722C25.8221 2.54162 25.8085 2.6053 25.7823 2.66411C25.756 2.72292 25.7177 2.77555 25.6698 2.81856C25.6218 2.86158 25.5654 2.89402 25.5041 2.91377C25.4428 2.93353 25.378 2.94016 25.314 2.93322Z" fill="#87C5FE"/>
<path d="M19.5844 2.93322H3.05102C2.987 2.94016 2.92223 2.93353 2.86094 2.91377C2.79964 2.89402 2.74319 2.86158 2.69527 2.81856C2.64734 2.77555 2.60901 2.72292 2.58277 2.66411C2.55653 2.6053 2.54297 2.54162 2.54297 2.47722C2.54297 2.41282 2.55653 2.34914 2.58277 2.29033C2.60901 2.23152 2.64734 2.1789 2.69527 2.13588C2.74319 2.09286 2.79964 2.06042 2.86094 2.04067C2.92223 2.02091 2.987 2.01429 3.05102 2.02122H19.5844C19.6484 2.01429 19.7131 2.02091 19.7744 2.04067C19.8357 2.06042 19.8922 2.09286 19.9401 2.13588C19.988 2.1789 20.0264 2.23152 20.0526 2.29033C20.0788 2.34914 20.0924 2.41282 20.0924 2.47722C20.0924 2.54162 20.0788 2.6053 20.0526 2.66411C20.0264 2.72292 19.988 2.77555 19.9401 2.81856C19.8922 2.86158 19.8357 2.89402 19.7744 2.91377C19.7131 2.93353 19.6484 2.94016 19.5844 2.93322Z" fill="#80B6DD"/>
</g>
<defs>
<clipPath id="clip0_14405_61552">
<rect width="32" height="32" fill="white"/>
</clipPath>
</defs>
</svg>
