<svg width="75" height="91" viewBox="0 0 75 91" fill="none" xmlns="http://www.w3.org/2000/svg">
<mask id="path-1-outside-1_9995_60888" maskUnits="userSpaceOnUse" x="0" y="-1" width="75" height="93" fill="black">
<rect fill="white" y="-1" width="75" height="93"/>
<path d="M32.0195 90.1719C25.1836 90.1719 19.3047 89.0391 14.3828 86.7734C9.5 84.5078 5.88672 81.3633 3.54297 77.3398C1.23828 73.2773 0.515625 68.6094 1.375 63.3359H22.293C22.0195 65.25 22.293 66.9492 23.1133 68.4336C23.9727 69.8789 25.2617 71.0117 26.9805 71.832C28.7383 72.6133 30.7695 73.0039 33.0742 73.0039C35.8086 73.0039 38.2695 72.4961 40.457 71.4805C42.6836 70.4258 44.5195 69.0195 45.9648 67.2617C47.4492 65.5039 48.3477 63.5898 48.6602 61.5195C49.0117 59.4492 48.6992 57.7305 47.7227 56.3633C46.7461 54.957 45.2617 53.9023 43.2695 53.1992C41.3164 52.457 38.9336 52.0859 36.1211 52.0859H27.1562L29.6172 37.0859H37.7031C40.3594 37.0859 42.7812 36.6172 44.9688 35.6797C47.1562 34.7031 48.9531 33.375 50.3594 31.6953C51.8047 29.9766 52.7031 28.0039 53.0547 25.7773C53.5234 23.1211 52.9961 20.9922 51.4727 19.3906C49.9883 17.75 47.5664 16.9492 44.207 16.9883C41.8633 16.9492 39.5781 17.3594 37.3516 18.2188C35.1641 19.0391 33.3086 20.2109 31.7852 21.7344C30.3008 23.2187 29.4023 24.957 29.0898 26.9492H9.05078C9.94922 21.7539 12.0977 17.1836 15.4961 13.2383C18.9336 9.25391 23.2305 6.14844 28.3867 3.92188C33.582 1.65625 39.2266 0.523438 45.3203 0.523438C51.7266 0.523438 57.1367 1.73438 61.5508 4.15625C66.0039 6.53906 69.2461 9.72266 71.2773 13.707C73.3477 17.6523 74.0117 21.9492 73.2695 26.5977C72.4102 31.6758 70.1445 35.6211 66.4727 38.4336C62.8008 41.207 58.2305 42.9258 52.7617 43.5898V44.1758C58.8164 44.957 63.4453 47.2812 66.6484 51.1484C69.8516 54.9766 71.0039 59.6836 70.1055 65.2695C69.3242 70.0742 67.1562 74.3516 63.6016 78.1016C60.0859 81.8516 55.5938 84.8008 50.125 86.9492C44.6953 89.0977 38.6602 90.1719 32.0195 90.1719Z"/>
</mask>
<path d="M14.3828 86.7734L13.9619 87.6805L13.9647 87.6818L14.3828 86.7734ZM3.54297 77.3398L2.67313 77.8333L2.67889 77.8432L3.54297 77.3398ZM1.375 63.3359V62.3359C0.884797 62.3359 0.466865 62.6913 0.38802 63.1751L1.375 63.3359ZM22.293 63.3359L23.2829 63.4774C23.3239 63.1904 23.2384 62.8997 23.0484 62.6807C22.8585 62.4617 22.5829 62.3359 22.293 62.3359V63.3359ZM23.1133 68.4336L22.238 68.9173C22.2431 68.9265 22.2484 68.9356 22.2537 68.9447L23.1133 68.4336ZM26.9805 71.832L26.5497 72.7345C26.5579 72.7384 26.5661 72.7422 26.5743 72.7458L26.9805 71.832ZM40.457 71.4805L40.8782 72.3875L40.8851 72.3842L40.457 71.4805ZM45.9648 67.2617L45.2007 66.6165L45.1924 66.6266L45.9648 67.2617ZM48.6602 61.5195L47.6743 61.3521C47.6732 61.3582 47.6723 61.3642 47.6714 61.3703L48.6602 61.5195ZM47.7227 56.3633L46.9012 56.9337L46.9089 56.9445L47.7227 56.3633ZM43.2695 53.1992L42.9143 54.134C42.9217 54.1368 42.9292 54.1396 42.9367 54.1422L43.2695 53.1992ZM27.1562 52.0859L26.1694 51.924C26.1219 52.2137 26.204 52.5096 26.3941 52.7333C26.5841 52.957 26.8627 53.0859 27.1562 53.0859V52.0859ZM29.6172 37.0859V36.0859C29.1274 36.0859 28.7097 36.4407 28.6304 36.924L29.6172 37.0859ZM44.9688 35.6797L45.3627 36.5988C45.3673 36.5969 45.3718 36.5949 45.3764 36.5928L44.9688 35.6797ZM50.3594 31.6953L49.594 31.0517L49.5926 31.0534L50.3594 31.6953ZM53.0547 25.7773L52.0699 25.6036C52.0689 25.6095 52.0679 25.6154 52.0669 25.6214L53.0547 25.7773ZM51.4727 19.3906L50.7311 20.0615C50.7367 20.0677 50.7424 20.0738 50.7481 20.0798L51.4727 19.3906ZM44.207 16.9883L44.1904 17.9881C44.1998 17.9883 44.2092 17.9883 44.2187 17.9882L44.207 16.9883ZM37.3516 18.2188L37.7027 19.1551L37.7116 19.1517L37.3516 18.2188ZM31.7852 21.7344L32.4923 22.4415L31.7852 21.7344ZM29.0898 26.9492V27.9492C29.5823 27.9492 30.0014 27.5907 30.0778 27.1042L29.0898 26.9492ZM9.05078 26.9492L8.06541 26.7788C8.01513 27.0695 8.09579 27.3676 8.2858 27.5933C8.4758 27.819 8.75576 27.9492 9.05078 27.9492V26.9492ZM15.4961 13.2383L14.7389 12.585L14.7384 12.5856L15.4961 13.2383ZM28.3867 3.92188L28.7832 4.83994L28.7865 4.83851L28.3867 3.92188ZM61.5508 4.15625L61.0697 5.033L61.079 5.03796L61.5508 4.15625ZM71.2773 13.707L70.3864 14.1613L70.3919 14.1717L71.2773 13.707ZM73.2695 26.5977L74.2556 26.7645L74.257 26.7553L73.2695 26.5977ZM66.4727 38.4336L67.0754 39.2316L67.0807 39.2275L66.4727 38.4336ZM52.7617 43.5898L52.6412 42.5971C52.1392 42.6581 51.7617 43.0842 51.7617 43.5898H52.7617ZM52.7617 44.1758H51.7617C51.7617 44.6786 52.1351 45.1032 52.6337 45.1676L52.7617 44.1758ZM66.6484 51.1484L65.8783 51.7863L65.8815 51.7902L66.6484 51.1484ZM70.1055 65.2695L71.0925 65.43L71.0928 65.4283L70.1055 65.2695ZM63.6016 78.1016L62.8758 77.4136L62.872 77.4176L63.6016 78.1016ZM50.125 86.9492L49.7593 86.0185L49.7571 86.0194L50.125 86.9492ZM32.0195 89.1719C25.2914 89.1719 19.5621 88.0567 14.801 85.8651L13.9647 87.6818C19.0473 90.0214 25.0758 91.1719 32.0195 91.1719V89.1719ZM14.8037 85.8663C10.0766 83.6729 6.63243 80.6567 4.40705 76.8365L2.67889 77.8432C5.14101 82.0698 8.92342 85.3427 13.9619 87.6805L14.8037 85.8663ZM4.41275 76.8464C2.23653 73.0104 1.53373 68.5792 2.36198 63.4968L0.38802 63.1751C-0.502476 68.6395 0.240029 73.5443 2.67319 77.8333L4.41275 76.8464ZM1.375 64.3359H22.293V62.3359H1.375V64.3359ZM21.303 63.1945C21.0033 65.2924 21.2981 67.2164 22.238 68.9173L23.9885 67.9499C23.2878 66.682 23.0357 65.2076 23.2829 63.4774L21.303 63.1945ZM22.2537 68.9447C23.2272 70.5819 24.6769 71.8407 26.5497 72.7345L27.4112 70.9296C25.8465 70.1828 24.7181 69.1759 23.9728 67.9225L22.2537 68.9447ZM26.5743 72.7458C28.4827 73.594 30.6569 74.0039 33.0742 74.0039V72.0039C30.8822 72.0039 28.9938 71.6325 27.3866 70.9182L26.5743 72.7458ZM33.0742 74.0039C35.9346 74.0039 38.5421 73.4721 40.8781 72.3875L40.0359 70.5735C37.997 71.5201 35.6826 72.0039 33.0742 72.0039V74.0039ZM40.8851 72.3842C43.2337 71.2717 45.1908 69.7776 46.7373 67.8968L45.1924 66.6266C43.8482 68.2614 42.1335 69.5798 40.0289 70.5767L40.8851 72.3842ZM46.7289 67.9069C48.3204 66.0222 49.3062 63.9398 49.649 61.6688L47.6714 61.3703C47.3892 63.2399 46.578 64.9856 45.2008 66.6165L46.7289 67.9069ZM49.646 61.6869C50.0304 59.4235 49.7043 57.4171 48.5364 55.782L46.9089 56.9445C47.6941 58.0438 47.993 59.475 47.6743 61.3521L49.646 61.6869ZM48.544 55.7929C47.4222 54.1774 45.7455 53.0126 43.6024 52.2562L42.9367 54.1422C44.778 54.7921 46.07 55.7367 46.9013 56.9337L48.544 55.7929ZM43.6247 52.2644C41.5264 51.4671 39.0156 51.0859 36.1211 51.0859V53.0859C38.8516 53.0859 41.1064 53.447 42.9143 54.134L43.6247 52.2644ZM36.1211 51.0859H27.1562V53.0859H36.1211V51.0859ZM28.1431 52.2478L30.604 37.2478L28.6304 36.924L26.1694 51.924L28.1431 52.2478ZM29.6172 38.0859H37.7031V36.0859H29.6172V38.0859ZM37.7031 38.0859C40.4791 38.0859 43.037 37.5956 45.3627 36.5988L44.5748 34.7605C42.5255 35.6388 40.2397 36.0859 37.7031 36.0859V38.0859ZM45.3764 36.5928C47.6895 35.5602 49.6135 34.144 51.1261 32.3372L49.5926 31.0534C48.2928 32.606 46.623 33.846 44.5611 34.7665L45.3764 36.5928ZM51.1247 32.3389C52.6876 30.4803 53.6626 28.3389 54.0424 25.9333L52.0669 25.6214C51.7436 27.6689 50.9217 29.4728 49.594 31.0517L51.1247 32.3389ZM54.0395 25.9511C54.5498 23.0594 53.9884 20.5845 52.1972 18.7014L50.7481 20.0798C52.0038 21.3999 52.4971 23.1827 52.0699 25.6036L54.0395 25.9511ZM52.2142 18.7197C50.4562 16.7766 47.6924 15.9477 44.1954 15.9883L44.2187 17.9882C47.4404 17.9508 49.5204 18.7234 50.7311 20.0615L52.2142 18.7197ZM44.2237 15.9884C41.7489 15.9472 39.3359 16.381 36.9915 17.2858L37.7116 19.1517C39.8203 18.3378 41.9777 17.9513 44.1904 17.9881L44.2237 15.9884ZM37.0004 17.2824C34.6907 18.1486 32.7107 19.3946 31.078 21.0273L32.4923 22.4415C33.9065 21.0273 35.6374 19.9296 37.7027 19.1551L37.0004 17.2824ZM31.078 21.0273C29.4505 22.6548 28.4486 24.584 28.1019 26.7943L30.0778 27.1042C30.3561 25.3301 31.151 23.7827 32.4923 22.4415L31.078 21.0273ZM29.0898 25.9492H9.05078V27.9492H29.0898V25.9492ZM10.0362 27.1196C10.9042 22.1003 12.975 17.6973 16.2538 13.8909L14.7384 12.5856C11.2203 16.6699 8.99429 21.4075 8.06541 26.7788L10.0362 27.1196ZM16.2533 13.8915C19.5855 10.0291 23.7561 7.01072 28.7832 4.83994L27.9903 3.00381C22.7049 5.28615 18.2817 8.47866 14.7389 12.585L16.2533 13.8915ZM28.7865 4.83851C33.8464 2.63191 39.3536 1.52344 45.3203 1.52344V-0.476562C39.0995 -0.476562 33.3176 0.680593 27.987 3.00524L28.7865 4.83851ZM45.3203 1.52344C51.6032 1.52344 56.838 2.71108 61.0698 5.03296L62.0318 3.27954C57.4355 0.757666 51.8499 -0.476562 45.3203 -0.476562V1.52344ZM61.079 5.03796C65.3762 7.33735 68.4597 10.3818 70.3864 14.1612L72.1683 13.2528C70.0325 9.06351 66.6316 5.74078 62.0226 3.27454L61.079 5.03796ZM70.3919 14.1717C72.3561 17.9148 72.9923 21.9917 72.282 26.44L74.257 26.7553C75.0312 21.9067 74.3393 17.3899 72.1628 13.2424L70.3919 14.1717ZM72.2836 26.4308C71.4612 31.2903 69.3124 34.9989 65.8646 37.6397L67.0807 39.2275C70.9767 36.2433 73.3591 32.0613 74.2555 26.7645L72.2836 26.4308ZM65.8699 37.6356C62.3642 40.2836 57.9694 41.9501 52.6412 42.5971L52.8823 44.5826C58.4915 43.9014 63.2373 42.1305 67.0754 39.2316L65.8699 37.6356ZM51.7617 43.5898V44.1758H53.7617V43.5898H51.7617ZM52.6337 45.1676C58.4944 45.9238 62.8701 48.1544 65.8783 51.7863L67.4186 50.5106C64.0206 46.4081 59.1384 43.9903 52.8897 43.184L52.6337 45.1676ZM65.8815 51.7902C68.8726 55.3649 69.9774 59.7684 69.1182 65.1107L71.0928 65.4283C72.0304 59.5988 70.8305 54.5882 67.4154 50.5067L65.8815 51.7902ZM69.1184 65.109C68.3714 69.7032 66.3014 73.7998 62.8758 77.4136L64.3273 78.7895C68.0111 74.9033 70.277 70.4452 71.0925 65.43L69.1184 65.109ZM62.872 77.4176C59.4715 81.0449 55.1098 83.9165 49.7593 86.0185L50.4907 87.88C56.0777 85.685 60.7004 82.6582 64.3311 78.7855L62.872 77.4176ZM49.7571 86.0194C44.4595 88.1155 38.5513 89.1719 32.0195 89.1719V91.1719C38.769 91.1719 44.9312 90.0798 50.4929 87.8791L49.7571 86.0194Z" fill="#FFDD33" mask="url(#path-1-outside-1_9995_60888)"/>
</svg>
