<svg width="50" height="50" viewBox="0 0 50 50" fill="none" xmlns="http://www.w3.org/2000/svg">
<path d="M46.153 42.949H49.5718V36.1114V29.2738H41.8795L40.1701 26.7097V16.4533H47.0077L46.153 13.8892H34.1872V36.1114H3.41797V42.949H6.83677H46.153Z" fill="#29485A"/>
<path d="M41.0266 48.0772C43.8589 48.0772 46.1548 45.7812 46.1548 42.949C46.1548 40.1168 43.8589 37.8208 41.0266 37.8208C38.1944 37.8208 35.8984 40.1168 35.8984 42.949C35.8984 45.7812 38.1944 48.0772 41.0266 48.0772Z" fill="#333333"/>
<path d="M11.1094 48.0773C13.4696 48.0773 15.3829 46.164 15.3829 43.8038C15.3829 41.4436 13.4696 39.5303 11.1094 39.5303C8.74925 39.5303 6.83594 41.4436 6.83594 43.8038C6.83594 46.164 8.74925 48.0773 11.1094 48.0773Z" fill="#333333"/>
<path d="M21.3673 48.0773C23.7274 48.0773 25.6408 46.164 25.6408 43.8038C25.6408 41.4436 23.7274 39.5303 21.3673 39.5303C19.0071 39.5303 17.0938 41.4436 17.0938 43.8038C17.0938 46.164 19.0071 48.0773 21.3673 48.0773Z" fill="#333333"/>
<path d="M46.1509 16.4531L49.5697 29.2736H41.8774L40.168 26.7095V16.4531H46.1509Z" fill="#29ABE2"/>
<path d="M41.0258 44.6583C41.9699 44.6583 42.7352 43.893 42.7352 42.9489C42.7352 42.0048 41.9699 41.2395 41.0258 41.2395C40.0817 41.2395 39.3164 42.0048 39.3164 42.9489C39.3164 43.893 40.0817 44.6583 41.0258 44.6583Z" fill="black"/>
<path d="M21.3657 45.513C20.4215 45.513 19.6562 44.7478 19.6562 43.8036C19.6562 42.8595 20.4215 42.0942 21.3657 42.0942C22.3098 42.0942 23.0751 42.8595 23.0751 43.8036C23.0751 44.7478 22.3098 45.513 21.3657 45.513Z" fill="black"/>
<path d="M11.1078 45.513C10.1637 45.513 9.39844 44.7478 9.39844 43.8036C9.39844 42.8595 10.1637 42.0942 11.1078 42.0942C12.052 42.0942 12.8172 42.8595 12.8172 43.8036C12.8172 44.7478 12.052 45.513 11.1078 45.513Z" fill="black"/>
<path d="M3.4188 36.1111H0V39.5299H3.4188" fill="#ED1C24"/>
<path d="M45.2969 31.8376H49.5704V36.1112H45.2969V31.8376Z" fill="#E6E6E6"/>
<path d="M49.9954 36.5384H44.8672V31.4102H49.9954V36.5384ZM45.7219 35.6837H49.1407V32.2649H45.7219V35.6837Z" fill="#F2F2F2"/>
<path d="M1.71094 7.90625H34.1896V36.1114H1.71094V7.90625Z" fill="#0378A3"/>
<path d="M28.0051 16.4909L25.6974 17.7575L25.4128 19.0037L26.9419 21.1404L26.2906 22.4909L23.6658 22.6276L22.8692 23.6327L23.3188 26.225L22.147 27.1601L19.7188 26.1464L18.5675 26.7011L17.8479 29.2302L16.3863 29.5635L14.6427 27.5977H13.3607L11.6162 29.5635L10.1538 29.2302L9.43504 26.7003L8.2906 26.1413L5.85726 27.155L4.68632 26.2199L5.1359 23.6327L4.33846 22.6327L1.71368 22.4968L1.06239 21.1456L2.59145 19.0088L2.30769 17.7567L0 16.49V14.9917L2.30769 13.725L2.59145 12.4789L1.06239 10.3421L1.71368 8.99086L4.33846 8.85496L5.13675 7.85496L4.68718 5.2618L5.85812 4.32676L8.2906 5.34214L9.44188 4.78744L10.1615 2.25838L11.6188 1.92334L13.3632 3.88915H14.6453L16.3872 1.92334L17.8487 2.25667L18.5684 4.78573L19.7197 5.34214L22.1479 4.32847L23.3197 5.26351L22.8692 7.85496L23.6675 8.85496L26.2923 8.99086L26.9427 10.3413L25.4145 12.478L25.6983 13.7242L28.006 14.9909L28.0051 16.4909Z" fill="#F8CF26"/>
<path d="M13.6735 22.436C17.4499 22.436 20.5112 19.3747 20.5112 15.5983C20.5112 11.822 17.4499 8.76074 13.6735 8.76074C9.89724 8.76074 6.83594 11.822 6.83594 15.5983C6.83594 19.3747 9.89724 22.436 13.6735 22.436Z" fill="#F7931E"/>
<path d="M13.6727 19.0173C15.5609 19.0173 17.0915 17.4866 17.0915 15.5985C17.0915 13.7103 15.5609 12.1797 13.6727 12.1797C11.7846 12.1797 10.2539 13.7103 10.2539 15.5985C10.2539 17.4866 11.7846 19.0173 13.6727 19.0173Z" fill="#CCCCCC"/>
</svg>
