<svg width="32" height="32" viewBox="0 0 32 32" fill="none" xmlns="http://www.w3.org/2000/svg">
<path d="M9.85519 21.541C9.85295 19.6493 10.5098 17.8158 11.7128 16.3558C12.9158 14.8959 14.5899 13.9006 16.4472 13.541V6.50105L16.1699 6.44238H0.623187L0.367188 6.50105V27.7757C0.367188 27.8578 0.399778 27.9364 0.457789 27.9944C0.5158 28.0525 0.594481 28.0851 0.676521 28.0851H13.1725C12.1443 27.3316 11.3081 26.3465 10.7318 25.2095C10.1554 24.0725 9.85509 22.8158 9.85519 21.541Z" fill="#F3F0F3"/>
<path d="M2.96452 27.7761V6.50146H0.367188V27.7761C0.367188 27.8582 0.399778 27.9369 0.457789 27.9949C0.5158 28.0529 0.594481 28.0855 0.676521 28.0855H3.27385C3.19181 28.0855 3.11313 28.0529 3.05512 27.9949C2.99711 27.9369 2.96452 27.8582 2.96452 27.7761Z" fill="#E2DEE2"/>
<path d="M16.4472 6.50123H0.367188V3.9199C0.367188 3.7544 0.43293 3.59569 0.549953 3.47866C0.666976 3.36164 0.825692 3.2959 0.991188 3.2959H15.8232C15.9051 3.2959 15.9863 3.31204 16.062 3.3434C16.1377 3.37476 16.2065 3.42072 16.2644 3.47866C16.3224 3.53661 16.3683 3.6054 16.3997 3.6811C16.431 3.75681 16.4472 3.83795 16.4472 3.9199V6.50123Z" fill="#26A6FE"/>
<path d="M3.58852 3.2959H0.991188C0.825692 3.2959 0.666976 3.36164 0.549953 3.47866C0.43293 3.59569 0.367188 3.7544 0.367188 3.9199V6.50123H2.96452V3.9199C2.96452 3.7544 3.03026 3.59569 3.14729 3.47866C3.26431 3.36164 3.42303 3.2959 3.58852 3.2959Z" fill="#0593FC"/>
<path d="M3.8283 13.5572C3.70689 13.5555 3.59064 13.5079 3.50297 13.4239L2.79897 12.7145C2.75623 12.6724 2.7223 12.6221 2.69915 12.5667C2.67599 12.5113 2.66406 12.4519 2.66406 12.3919C2.66406 12.3318 2.67599 12.2724 2.69915 12.217C2.7223 12.1616 2.75623 12.1114 2.79897 12.0692C2.88484 11.9842 3.0008 11.9365 3.12163 11.9365C3.24247 11.9365 3.35842 11.9842 3.4443 12.0692L3.8283 12.4532L4.6603 11.6212C4.74588 11.5321 4.86335 11.4806 4.98687 11.4781C5.1104 11.4756 5.22985 11.5223 5.31897 11.6079C5.40808 11.6934 5.45955 11.8109 5.46205 11.9344C5.46455 12.058 5.41788 12.1774 5.3323 12.2665L4.1483 13.4239C4.06318 13.5085 3.9483 13.5563 3.8283 13.5572Z" fill="#09A755"/>
<path d="M13.6955 12.976H7.14083C7.0813 12.976 7.02235 12.9643 6.96735 12.9415C6.91235 12.9187 6.86237 12.8853 6.82028 12.8432C6.77818 12.8011 6.74479 12.7512 6.72201 12.6962C6.69923 12.6412 6.6875 12.5822 6.6875 12.5227C6.6875 12.4631 6.69923 12.4042 6.72201 12.3492C6.74479 12.2942 6.77818 12.2442 6.82028 12.2021C6.86237 12.16 6.91235 12.1266 6.96735 12.1038C7.02235 12.0811 7.0813 12.0693 7.14083 12.0693H13.6955C13.8157 12.0693 13.931 12.1171 14.0161 12.2021C14.1011 12.2871 14.1488 12.4024 14.1488 12.5227C14.1488 12.6429 14.1011 12.7582 14.0161 12.8432C13.931 12.9282 13.8157 12.976 13.6955 12.976Z" fill="#09A755"/>
<path d="M3.8302 16.1437C3.76906 16.1429 3.70872 16.1297 3.65281 16.1049C3.5969 16.0802 3.54658 16.0444 3.50486 15.9997L2.80086 15.301C2.75762 15.2597 2.72321 15.21 2.6997 15.155C2.67618 15.1 2.66406 15.0408 2.66406 14.981C2.66406 14.9212 2.67618 14.862 2.6997 14.807C2.72321 14.752 2.75762 14.7024 2.80086 14.661C2.84303 14.6183 2.89327 14.5844 2.94866 14.5612C3.00405 14.5381 3.06349 14.5261 3.12353 14.5261C3.18357 14.5261 3.24301 14.5381 3.2984 14.5612C3.35379 14.5844 3.40403 14.6183 3.4462 14.661L3.8302 15.045L4.6622 14.213C4.70437 14.1703 4.75461 14.1364 4.81 14.1132C4.86539 14.0901 4.92483 14.0781 4.98486 14.0781C5.0449 14.0781 5.10434 14.0901 5.15973 14.1132C5.21512 14.1364 5.26536 14.1703 5.30753 14.213C5.39254 14.2989 5.44022 14.4149 5.44022 14.5357C5.44022 14.6565 5.39254 14.7725 5.30753 14.8584L4.1502 15.9997C4.10969 16.0445 4.06035 16.0804 4.00527 16.1052C3.9502 16.13 3.89059 16.1431 3.8302 16.1437Z" fill="#09A755"/>
<path d="M13.6731 14.6562H7.13975C7.02731 14.6684 6.92334 14.7217 6.84779 14.8059C6.77225 14.89 6.73047 14.9992 6.73047 15.1122C6.73047 15.2253 6.77225 15.3345 6.84779 15.4186C6.92334 15.5028 7.02731 15.5561 7.13975 15.5683H12.4731C12.8416 15.2272 13.2416 14.9218 13.6677 14.6562H13.6731Z" fill="#09A755"/>
<path d="M3.8283 18.7306C3.76797 18.7308 3.70818 18.7192 3.65235 18.6963C3.59652 18.6734 3.54576 18.6398 3.50297 18.5972L2.79897 17.8932C2.75623 17.8511 2.7223 17.8008 2.69915 17.7454C2.67599 17.6901 2.66406 17.6306 2.66406 17.5706C2.66406 17.5105 2.67599 17.4511 2.69915 17.3957C2.7223 17.3403 2.75623 17.2901 2.79897 17.2479C2.88484 17.1629 3.0008 17.1152 3.12163 17.1152C3.24247 17.1152 3.35842 17.1629 3.4443 17.2479L3.8283 17.6319L4.6603 16.7999C4.70267 16.7558 4.75332 16.7204 4.80936 16.6959C4.86539 16.6713 4.92571 16.6581 4.98687 16.6568C5.04803 16.6556 5.10884 16.6664 5.16582 16.6887C5.2228 16.7109 5.27484 16.7442 5.31897 16.7866C5.36309 16.829 5.39844 16.8796 5.42299 16.9356C5.44754 16.9917 5.46081 17.052 5.46205 17.1132C5.46329 17.1743 5.45247 17.2351 5.4302 17.2921C5.40794 17.3491 5.37467 17.4011 5.3323 17.4452L4.1483 18.5972C4.06318 18.6818 3.9483 18.7297 3.8283 18.7306Z" fill="#09A755"/>
<path d="M9.93017 17.2427H7.14083C7.02011 17.2441 6.90482 17.293 6.81995 17.3789C6.73508 17.4648 6.68749 17.5806 6.6875 17.7013C6.6875 17.8216 6.73526 17.9369 6.82028 18.0219C6.90529 18.1069 7.0206 18.1547 7.14083 18.1547H9.86083C9.86762 17.8497 9.89077 17.5452 9.93017 17.2427Z" fill="#09A755"/>
<path d="M30.7957 21.5414L31.425 20.4108C31.4507 20.3632 31.4637 20.3098 31.4627 20.2558C31.4617 20.2018 31.4469 20.1489 31.4196 20.1023C31.3922 20.0556 31.3533 20.0169 31.3067 19.9896C31.26 19.9624 31.2071 19.9476 31.153 19.9468H28.9397C28.8957 19.9466 28.8522 19.9556 28.8118 19.973C28.7714 19.9904 28.7351 20.016 28.705 20.0481L27.7344 21.1468H29.1797C29.2315 21.1468 29.2829 21.157 29.3307 21.1768C29.3786 21.1967 29.4221 21.2257 29.4588 21.2624C29.4954 21.299 29.5245 21.3425 29.5443 21.3904C29.5642 21.4383 29.5744 21.4896 29.5744 21.5414C29.5744 21.5933 29.5642 21.6446 29.5443 21.6925C29.5245 21.7404 29.4954 21.7839 29.4588 21.8205C29.4221 21.8572 29.3786 21.8862 29.3307 21.9061C29.2829 21.9259 29.2315 21.9361 29.1797 21.9361H27.7344L28.7264 23.0348C28.7553 23.0687 28.7913 23.0958 28.8318 23.1142C28.8724 23.1326 28.9165 23.1419 28.961 23.1414H31.1744C31.2292 23.1411 31.2829 23.1264 31.3303 23.0989C31.3777 23.0714 31.4171 23.032 31.4446 22.9846C31.4721 22.9371 31.4867 22.8834 31.487 22.8286C31.4873 22.7738 31.4733 22.7198 31.4464 22.6721L30.7957 21.5414Z" fill="#39B54A"/>
<path d="M17.9889 29.7336C22.5132 29.7336 26.1809 26.0659 26.1809 21.5416C26.1809 17.0173 22.5132 13.3496 17.9889 13.3496C13.4646 13.3496 9.79688 17.0173 9.79688 21.5416C9.79688 26.0659 13.4646 29.7336 17.9889 29.7336Z" fill="#EAF6FF"/>
<path d="M11.7882 21.5412C11.7878 19.5415 12.5193 17.6108 13.8448 16.1134C15.1702 14.616 16.9979 13.6555 18.9828 13.4132C18.654 13.3676 18.3228 13.3409 17.9908 13.3332C16.8978 13.3053 15.8103 13.4965 14.7923 13.8955C13.7743 14.2946 12.8465 14.8933 12.0636 15.6565C11.2807 16.4197 10.6584 17.3319 10.2336 18.3394C9.80872 19.3469 9.58984 20.4292 9.58984 21.5226C9.58984 22.6159 9.80872 23.6983 10.2336 24.7057C10.6584 25.7132 11.2807 26.6254 12.0636 27.3886C12.8465 28.1518 13.7743 28.7506 14.7923 29.1496C15.8103 29.5486 16.8978 29.7398 17.9908 29.7119C18.3224 29.7113 18.6536 29.6917 18.9828 29.6532C17.001 29.4102 15.1762 28.4517 13.8514 26.9579C12.5265 25.4641 11.7928 23.5379 11.7882 21.5412Z" fill="#D8ECFE"/>
<path d="M17.9886 27.4987C21.2787 27.4987 23.9459 24.8315 23.9459 21.5413C23.9459 18.2512 21.2787 15.584 17.9886 15.584C14.6984 15.584 12.0312 18.2512 12.0312 21.5413C12.0312 24.8315 14.6984 27.4987 17.9886 27.4987Z" fill="#FD544D"/>
<path d="M17.9883 25.2642C20.0443 25.2642 21.711 23.5975 21.711 21.5415C21.711 19.4855 20.0443 17.8188 17.9883 17.8188C15.9323 17.8188 14.2656 19.4855 14.2656 21.5415C14.2656 23.5975 15.9323 25.2642 17.9883 25.2642Z" fill="#EAF6FF"/>
<path d="M17.988 23.0292C18.8098 23.0292 19.476 22.363 19.476 21.5412C19.476 20.7194 18.8098 20.0532 17.988 20.0532C17.1662 20.0532 16.5 20.7194 16.5 21.5412C16.5 22.363 17.1662 23.0292 17.988 23.0292Z" fill="#FD544D"/>
<path d="M29.1565 22.0001H17.9885C17.9245 22.007 17.8597 22.0004 17.7984 21.9807C17.7371 21.9609 17.6807 21.9285 17.6328 21.8855C17.5848 21.8424 17.5465 21.7898 17.5203 21.731C17.494 21.6722 17.4805 21.6085 17.4805 21.5441C17.4805 21.4797 17.494 21.416 17.5203 21.3572C17.5465 21.2984 17.5848 21.2458 17.6328 21.2028C17.6807 21.1598 17.7371 21.1273 17.7984 21.1076C17.8597 21.0878 17.9245 21.0812 17.9885 21.0881H29.1565C29.2161 21.0881 29.275 21.0998 29.33 21.1226C29.385 21.1454 29.435 21.1788 29.4771 21.2209C29.5192 21.263 29.5526 21.313 29.5754 21.368C29.5981 21.423 29.6099 21.4819 29.6099 21.5414C29.6099 21.6622 29.5623 21.778 29.4774 21.8639C29.3925 21.9498 29.2772 21.9987 29.1565 22.0001Z" fill="#A79BA7"/>
</svg>
