<svg width="334" height="312" viewBox="0 0 334 312" fill="none" xmlns="http://www.w3.org/2000/svg">
<path d="M318 229H16V195.312H318V229ZM19.0463 225.961H314.967V198.364H19.0463V225.961Z" fill="#7C8EA1"/>
<path d="M237.156 223.528H21.4751V200.81H237.169V223.528H237.156ZM24.5214 220.476H234.122V203.849H24.5214V220.476Z" fill="#002548"/>
<path d="M35.8138 202.323H32.7676V221.989H35.8138V202.323Z" fill="#002548"/>
<path d="M47.1063 202.323H44.0601V221.989H47.1063V202.323Z" fill="#002548"/>
<path d="M58.3983 202.323H55.3521V221.989H58.3983V202.323Z" fill="#002548"/>
<path d="M69.5594 202.323H66.5132V221.989H69.5594V202.323Z" fill="#002548"/>
<path d="M80.7201 202.323H77.6738V221.989H80.7201V202.323Z" fill="#002548"/>
<path d="M91.8939 202.323H88.8477V221.989H91.8939V202.323Z" fill="#002548"/>
<path d="M103.055 202.323H100.008V221.989H103.055V202.323Z" fill="#002548"/>
<path d="M114.216 202.323H111.169V221.989H114.216V202.323Z" fill="#002548"/>
<path d="M125.39 202.323H122.344V221.989H125.39V202.323Z" fill="#002548"/>
<path d="M136.551 202.323H133.504V221.989H136.551V202.323Z" fill="#002548"/>
<path d="M147.712 202.323H144.666V221.989H147.712V202.323Z" fill="#002548"/>
<path d="M158.886 202.323H155.839V221.989H158.886V202.323Z" fill="#002548"/>
<path d="M170.046 202.323H167V221.989H170.046V202.323Z" fill="#002548"/>
<path d="M181.207 202.323H178.161V221.989H181.207V202.323Z" fill="#002548"/>
<path d="M192.381 202.323H189.334V221.989H192.381V202.323Z" fill="#002548"/>
<path d="M203.542 202.323H200.496V221.989H203.542V202.323Z" fill="#002548"/>
<path d="M214.716 202.323H211.67V221.989H214.716V202.323Z" fill="#002548"/>
<path d="M225.877 202.323H222.831V221.989H225.877V202.323Z" fill="#002548"/>
<path d="M218.314 161.992V154.31L211.84 153.389C211.355 151.324 210.541 149.35 209.438 147.535L213.35 142.313L207.928 136.88L202.715 140.8C200.903 139.682 198.959 138.88 196.872 138.393L195.953 131.908H188.284L187.365 138.393C185.278 138.88 183.334 139.695 181.522 140.8L176.296 136.88L170.887 142.313L174.799 147.535C173.683 149.35 172.882 151.31 172.397 153.389L165.91 154.31V161.992L172.397 162.926C172.882 164.991 173.697 166.964 174.799 168.753L170.887 173.988L176.296 179.421L181.522 175.501C183.334 176.593 185.278 177.409 187.365 177.908L188.284 184.394H195.953L196.872 177.908C198.959 177.409 200.903 176.593 202.715 175.501L207.928 179.421L213.35 173.988L209.438 168.753C210.554 166.951 211.355 164.991 211.84 162.926L218.314 161.992ZM192.119 166.819C187.352 166.819 183.479 162.926 183.479 158.164C183.479 153.376 187.365 149.482 192.119 149.482C196.898 149.482 200.785 153.376 200.785 158.164C200.771 162.939 196.898 166.819 192.119 166.819Z" fill="#0054A6"/>
<path d="M164.151 122.634L163.337 111.9L154.198 111.308C153.305 108.467 151.966 105.81 150.206 103.389L155.117 95.6808L146.963 88.6695L140.096 94.7074C137.444 93.3393 134.647 92.4185 131.679 91.9581L129.71 83L118.995 83.8156L118.405 92.971C115.542 93.8786 112.916 95.2072 110.5 96.9699L102.779 92.0502L95.8071 100.219L101.834 107.099C100.468 109.756 99.5492 112.584 99.0897 115.531L90.1216 117.504L90.9357 128.238L100.101 128.856C100.994 131.697 102.333 134.355 104.079 136.749L99.1685 144.483L107.296 151.495L114.177 145.457C116.829 146.799 119.626 147.719 122.593 148.206L124.563 157.164L135.277 156.349L135.868 147.193C138.73 146.272 141.357 144.931 143.773 143.194L151.467 148.114L158.465 139.945L152.439 133.052C153.804 130.421 154.723 127.593 155.183 124.647L164.151 122.634ZM128.069 132.171C121.411 132.684 115.581 127.659 115.069 121.003C114.557 114.32 119.573 108.467 126.217 107.954C132.887 107.441 138.73 112.466 139.243 119.148C139.755 125.817 134.739 131.671 128.069 132.171Z" fill="#0054A6"/>
<path d="M166.331 169.306V164.741L162.497 164.202C162.208 162.978 161.735 161.808 161.065 160.729L163.389 157.624L160.172 154.402L157.074 156.73C155.997 156.072 154.842 155.586 153.607 155.296L153.069 151.455H148.513L147.974 155.296C146.74 155.586 145.585 156.059 144.508 156.73L141.409 154.402L138.192 157.624L140.516 160.729C139.86 161.808 139.374 162.978 139.085 164.202L135.238 164.741V169.306L139.085 169.858C139.374 171.081 139.847 172.252 140.516 173.318L138.192 176.422L141.409 179.645L144.508 177.317C145.585 177.974 146.74 178.448 147.974 178.75L148.513 182.591H153.069L153.607 178.75C154.842 178.448 155.997 177.974 157.074 177.317L160.172 179.645L163.389 176.422L161.065 173.318C161.722 172.252 162.208 171.081 162.497 169.858L166.331 169.306ZM150.784 172.173C147.961 172.173 145.65 169.871 145.65 167.03C145.65 164.188 147.948 161.873 150.784 161.873C153.62 161.873 155.931 164.175 155.931 167.03C155.931 169.858 153.62 172.173 150.784 172.173Z" fill="#ED1C24"/>
</svg>
