<svg width="334" height="312" viewBox="0 0 334 312" fill="none" xmlns="http://www.w3.org/2000/svg">
<path d="M129.427 136.537L128.473 139.222L104.823 205.706L103.746 208.702C103.547 209.249 103.04 209.597 102.507 209.597C102.346 209.597 102.197 209.572 102.061 209.522C101.367 209.274 101.02 208.515 101.256 207.819L102.333 204.823L125.996 138.339L126.95 135.654C127.197 134.958 127.953 134.61 128.647 134.859C129.316 135.082 129.675 135.841 129.427 136.537Z" fill="#7C8EA1"/>
<path d="M158.739 165.39C158.504 165.564 158.231 165.639 157.971 165.639C157.562 165.639 157.154 165.44 156.881 165.08L155.407 163.004L137.567 137.929L135.932 135.629C135.511 135.033 135.635 134.212 136.242 133.765C136.836 133.342 137.654 133.491 138.088 134.088L139.723 136.388L157.575 161.462L159.049 163.538C159.47 164.147 159.334 164.968 158.739 165.39Z" fill="#7C8EA1"/>
<path d="M64.4615 181.564L63.1607 184.535L32.9696 253.368C32.759 253.865 32.2634 254.151 31.7555 254.151C31.5821 254.151 31.3962 254.126 31.2228 254.039C30.5662 253.741 30.2565 252.958 30.5538 252.287L60.7449 183.453L62.0457 180.495C62.3431 179.823 63.1236 179.513 63.7802 179.823C64.4368 180.109 64.7465 180.892 64.4615 181.564Z" fill="#7C8EA1"/>
<path d="M94.4415 210.567C94.2062 210.741 93.9336 210.815 93.6734 210.815C93.2646 210.815 92.8558 210.616 92.5832 210.256L90.7621 207.682L73.5171 183.453L71.634 180.806C71.2128 180.209 71.3367 179.376 71.9438 178.941C72.5384 178.518 73.3561 178.642 73.7897 179.252L75.6727 181.899L92.9177 206.128L94.7513 208.714C95.1725 209.299 95.0362 210.144 94.4415 210.567Z" fill="#7C8EA1"/>
<path d="M175.736 139.732L168.674 161.002L167.869 163.451C167.683 164.01 167.163 164.359 166.617 164.359C166.469 164.359 166.345 164.346 166.196 164.296C165.502 164.073 165.143 163.314 165.366 162.618L166.171 160.169L173.258 138.899C173.481 138.19 174.224 137.817 174.93 138.053C175.587 138.29 175.971 139.048 175.736 139.732Z" fill="#7C8EA1"/>
<path d="M187.505 104.426L186.712 106.813L178.561 131.365C178.363 131.95 177.805 132.335 177.223 132.335C177.074 132.335 176.913 132.31 176.777 132.261C176.033 132.024 175.637 131.216 175.885 130.483L184.049 105.918L184.829 103.544C185.077 102.798 185.858 102.4 186.613 102.649C187.344 102.885 187.741 103.693 187.505 104.426Z" fill="#7C8EA1"/>
<path d="M64.4614 181.564L63.1606 184.535C62.3182 184.261 61.5005 183.901 60.7324 183.453L62.0332 180.495C62.3306 179.823 63.111 179.513 63.7676 179.823C64.4366 180.109 64.7463 180.892 64.4614 181.564Z" fill="#7C8EA1"/>
<path d="M75.6603 181.899C75.0038 182.484 74.2852 183.006 73.5171 183.453L71.634 180.806C71.2128 180.209 71.3367 179.376 71.9438 178.941C72.5384 178.518 73.3561 178.642 73.7897 179.252L75.6603 181.899Z" fill="#7C8EA1"/>
<path d="M94.7528 208.714C95.174 209.298 95.0501 210.131 94.4431 210.566C94.2077 210.74 93.9352 210.815 93.675 210.815C93.2662 210.815 92.8574 210.616 92.5848 210.256L90.7637 207.682C91.4203 207.098 92.1388 206.576 92.9069 206.128L94.7528 208.714Z" fill="#7C8EA1"/>
<path d="M104.823 205.706L103.746 208.702C103.547 209.249 103.04 209.597 102.507 209.597C102.346 209.597 102.197 209.572 102.061 209.522C101.367 209.274 101.02 208.515 101.256 207.819L102.333 204.823C103.201 205.022 104.031 205.333 104.823 205.706Z" fill="#7C8EA1"/>
<path opacity="0.1" d="M129.427 136.537L128.474 139.222C127.594 139.023 126.764 138.712 125.983 138.327L126.937 135.642C127.185 134.946 127.941 134.598 128.635 134.846C129.316 135.082 129.675 135.841 129.427 136.537Z" fill="#2D2F31"/>
<path d="M139.723 136.4C139.078 136.997 138.348 137.507 137.579 137.942L135.944 135.642C135.523 135.045 135.647 134.225 136.254 133.777C136.848 133.354 137.666 133.504 138.1 134.1L139.723 136.4Z" fill="#7C8EA1"/>
<path d="M159.048 163.551C159.469 164.147 159.345 164.968 158.738 165.391C158.503 165.565 158.23 165.639 157.97 165.639C157.561 165.639 157.153 165.44 156.88 165.08L155.406 163.004C156.062 162.419 156.781 161.897 157.561 161.462L159.048 163.551Z" fill="#7C8EA1"/>
<path d="M168.674 161.015L167.869 163.464C167.683 164.023 167.163 164.371 166.617 164.371C166.469 164.371 166.345 164.359 166.196 164.309C165.502 164.085 165.143 163.327 165.366 162.631L166.171 160.182C167.026 160.368 167.881 160.654 168.674 161.015Z" fill="#7C8EA1"/>
<path d="M187.506 104.426L186.713 106.813C185.784 106.614 184.892 106.304 184.049 105.906L184.83 103.531C185.078 102.785 185.858 102.388 186.614 102.636C187.345 102.885 187.741 103.693 187.506 104.426Z" fill="#7C8EA1"/>
<path d="M131.422 138.016C137.477 138.016 142.386 133.091 142.386 127.014C142.386 120.938 137.477 116.012 131.422 116.012C125.367 116.012 120.458 120.938 120.458 127.014C120.458 133.091 125.367 138.016 131.422 138.016Z" fill="#0054A6"/>
<path d="M31.7553 234.796H25.3256C24.5947 234.796 24 234.199 24 233.465C24 232.732 24.5947 232.135 25.3256 232.135H31.7553C32.4862 232.135 33.0809 232.732 33.0809 233.465C33.0809 234.211 32.4862 234.796 31.7553 234.796Z" fill="#7C8EA1"/>
<path d="M51.0438 260.603C50.3129 260.603 49.7183 260.007 49.7183 259.273V252.821C49.7183 252.088 50.3129 251.491 51.0438 251.491C51.7748 251.491 52.3694 252.088 52.3694 252.821V259.273C52.3694 260.019 51.7748 260.603 51.0438 260.603Z" fill="#7C8EA1"/>
<path d="M70.3344 260.603C69.6034 260.603 69.0088 260.007 69.0088 259.273V252.821C69.0088 252.088 69.6034 251.491 70.3344 251.491C71.0653 251.491 71.66 252.088 71.66 252.821V259.273C71.66 260.019 71.0653 260.603 70.3344 260.603Z" fill="#7C8EA1"/>
<path d="M89.6225 260.603C88.8915 260.603 88.2969 260.007 88.2969 259.273V252.821C88.2969 252.088 88.8915 251.491 89.6225 251.491C90.3534 251.491 90.948 252.088 90.948 252.821V259.273C90.948 260.019 90.3534 260.603 89.6225 260.603Z" fill="#7C8EA1"/>
<path d="M108.912 260.603C108.181 260.603 107.586 260.007 107.586 259.273V252.821C107.586 252.088 108.181 251.491 108.912 251.491C109.642 251.491 110.237 252.088 110.237 252.821V259.273C110.237 260.019 109.642 260.603 108.912 260.603Z" fill="#7C8EA1"/>
<path d="M128.201 260.603C127.47 260.603 126.875 260.007 126.875 259.273V252.821C126.875 252.088 127.47 251.491 128.201 251.491C128.932 251.491 129.526 252.088 129.526 252.821V259.273C129.526 260.019 128.932 260.603 128.201 260.603Z" fill="#7C8EA1"/>
<path d="M147.489 260.603C146.758 260.603 146.164 260.007 146.164 259.273V252.821C146.164 252.088 146.758 251.491 147.489 251.491C148.22 251.491 148.815 252.088 148.815 252.821V259.273C148.815 260.019 148.22 260.603 147.489 260.603Z" fill="#7C8EA1"/>
<path d="M166.779 260.603C166.048 260.603 165.454 260.007 165.454 259.273V252.821C165.454 252.088 166.048 251.491 166.779 251.491C167.51 251.491 168.105 252.088 168.105 252.821V259.273C168.105 260.019 167.51 260.603 166.779 260.603Z" fill="#7C8EA1"/>
<path d="M186.069 260.603C185.338 260.603 184.743 260.007 184.743 259.273V252.821C184.743 252.088 185.338 251.491 186.069 251.491C186.8 251.491 187.394 252.088 187.394 252.821V259.273C187.394 260.019 186.8 260.603 186.069 260.603Z" fill="#7C8EA1"/>
<path d="M31.7553 215.44H25.3256C24.5947 215.44 24 214.843 24 214.109C24 213.376 24.5947 212.779 25.3256 212.779H31.7553C32.4862 212.779 33.0809 213.376 33.0809 214.109C33.0809 214.843 32.4862 215.44 31.7553 215.44Z" fill="#7C8EA1"/>
<path d="M31.7553 196.084H25.3256C24.5947 196.084 24 195.487 24 194.754C24 194.02 24.5947 193.424 25.3256 193.424H31.7553C32.4862 193.424 33.0809 194.02 33.0809 194.754C33.0809 195.5 32.4862 196.084 31.7553 196.084Z" fill="#7C8EA1"/>
<path d="M31.7553 176.728H25.3256C24.5947 176.728 24 176.131 24 175.398C24 174.664 24.5947 174.068 25.3256 174.068H31.7553C32.4862 174.068 33.0809 174.664 33.0809 175.398C33.0809 176.144 32.4862 176.728 31.7553 176.728Z" fill="#7C8EA1"/>
<path d="M31.7553 157.372H25.3256C24.5947 157.372 24 156.775 24 156.042C24 155.308 24.5947 154.712 25.3256 154.712H31.7553C32.4862 154.712 33.0809 155.308 33.0809 156.042C33.0809 156.775 32.4862 157.372 31.7553 157.372Z" fill="#7C8EA1"/>
<path d="M31.7553 138.016H25.3256C24.5947 138.016 24 137.42 24 136.686C24 135.953 24.5947 135.356 25.3256 135.356H31.7553C32.4862 135.356 33.0809 135.953 33.0809 136.686C33.0809 137.432 32.4862 138.016 31.7553 138.016Z" fill="#7C8EA1"/>
<path d="M31.7553 118.66H25.3256C24.5947 118.66 24 118.064 24 117.33C24 116.597 24.5947 116 25.3256 116H31.7553C32.4862 116 33.0809 116.597 33.0809 117.33C33.0809 118.076 32.4862 118.66 31.7553 118.66Z" fill="#7C8EA1"/>
<path d="M31.7553 99.3046H25.3256C24.5947 99.3046 24 98.7079 24 97.9745C24 97.241 24.5947 96.6443 25.3256 96.6443H31.7553C32.4862 96.6443 33.0809 97.241 33.0809 97.9745C33.0809 98.7079 32.4862 99.3046 31.7553 99.3046Z" fill="#7C8EA1"/>
<path d="M189.289 105.756C195.344 105.756 200.253 100.831 200.253 94.7546C200.253 88.6784 195.344 83.7527 189.289 83.7527C183.233 83.7527 178.325 88.6784 178.325 94.7546C178.325 100.831 183.233 105.756 189.289 105.756Z" fill="#ED1C24"/>
<path d="M163.57 183.18C169.625 183.18 174.534 178.254 174.534 172.178C174.534 166.102 169.625 161.176 163.57 161.176C157.515 161.176 152.606 166.102 152.606 172.178C152.606 178.254 157.515 183.18 163.57 183.18Z" fill="#0054A6"/>
<path d="M99.2735 228.344C105.329 228.344 110.237 223.418 110.237 217.342C110.237 211.266 105.329 206.34 99.2735 206.34C93.2183 206.34 88.3096 211.266 88.3096 217.342C88.3096 223.418 93.2183 228.344 99.2735 228.344Z" fill="#0054A6"/>
<path d="M67.1256 183.18C73.1808 183.18 78.0895 178.254 78.0895 172.178C78.0895 166.102 73.1808 161.176 67.1256 161.176C61.0703 161.176 56.1616 166.102 56.1616 172.178C56.1616 178.254 61.0703 183.18 67.1256 183.18Z" fill="#0054A6"/>
<path d="M198.928 254.151H25.3256C24.5947 254.151 24 253.555 24 252.821C24 252.088 24.5947 251.491 25.3256 251.491H198.928C199.659 251.491 200.253 252.088 200.253 252.821C200.253 253.567 199.659 254.151 198.928 254.151Z" fill="#7C8EA1"/>
<path d="M31.7553 260.603C31.0243 260.603 30.4297 260.006 30.4297 259.273V85.0829C30.4297 84.3494 31.0243 83.7527 31.7553 83.7527C32.4862 83.7527 33.0809 84.3494 33.0809 85.0829V259.285C33.0809 260.019 32.4862 260.603 31.7553 260.603Z" fill="#7C8EA1"/>
<path d="M251.864 142.89L235.524 126.492C235.264 126.231 234.892 126.095 234.545 126.107C234.173 126.119 233.826 126.293 233.591 126.567L233.492 126.679C232.712 127.586 231.981 128.444 231.163 129.252C230.345 130.073 229.503 130.806 228.598 131.577L228.487 131.676C228.202 131.912 228.041 132.261 228.029 132.634C228.016 133.006 228.153 133.355 228.413 133.616L244.753 150.013C245.001 150.261 245.336 150.398 245.695 150.398C246.042 150.398 246.389 150.261 246.636 150.013L251.877 144.754C252.385 144.245 252.385 143.399 251.864 142.89Z" fill="#D2D9DC"/>
<path opacity="0.1" d="M251.865 144.767L246.612 150.025C246.377 150.274 246.03 150.411 245.683 150.411C245.324 150.411 244.989 150.274 244.741 150.025L242.177 147.452L231.151 136.388L228.413 133.64C228.153 133.379 228.004 133.019 228.029 132.646C228.041 132.273 228.202 131.925 228.475 131.689L228.599 131.602C229.503 130.819 230.346 130.085 231.163 129.265C231.969 128.457 232.712 127.586 233.492 126.691L233.579 126.567C233.815 126.293 234.161 126.132 234.533 126.119C234.892 126.107 235.264 126.244 235.524 126.505L238.274 129.265L251.852 142.89C252.385 143.399 252.385 144.245 251.865 144.767Z" fill="#2D2F31"/>
<path opacity="0.1" d="M251.864 144.767L246.611 150.025C246.376 150.274 246.029 150.411 245.682 150.411C245.322 150.411 244.988 150.274 244.74 150.025L242.176 147.452L249.299 140.304L251.864 142.877C252.384 143.399 252.384 144.244 251.864 144.767Z" fill="#2D2F31"/>
<path opacity="0.1" d="M238.287 129.252C237.209 130.545 236.082 131.788 234.88 132.982C233.678 134.187 232.427 135.319 231.151 136.375L228.413 133.628C228.153 133.367 228.004 133.006 228.029 132.634C228.041 132.261 228.202 131.912 228.475 131.676L228.599 131.589C229.503 130.806 230.346 130.073 231.163 129.252C231.969 128.444 232.712 127.574 233.492 126.679L233.579 126.555C233.815 126.281 234.161 126.119 234.533 126.107C234.892 126.095 235.264 126.231 235.524 126.492L238.287 129.252Z" fill="#2D2F31"/>
<path d="M233.034 58.9271C213.199 39.0243 180.915 39.0243 161.068 58.9271C141.234 78.8424 141.234 111.226 161.068 131.142C170.991 141.099 184.024 146.072 197.045 146.072C210.078 146.072 223.11 141.099 233.021 131.142C242.635 121.495 247.925 108.678 247.925 95.0406C247.937 81.3908 242.647 68.574 233.034 58.9271ZM225.662 123.733C218.019 131.403 207.86 135.617 197.057 135.617C186.254 135.617 176.095 131.39 168.452 123.733C152.681 107.907 152.681 82.1616 168.452 66.3363C184.222 50.511 209.879 50.511 225.65 66.3363C241.433 82.1616 241.433 107.907 225.662 123.733Z" fill="#7C8EA1"/>
<path d="M292.413 180.296C292.413 181.253 292.041 182.148 291.372 182.807L284.546 189.657C283.889 190.328 282.997 190.701 282.044 190.701C281.102 190.701 280.222 190.328 279.541 189.657L243.961 153.953C243.304 153.295 242.933 152.4 242.933 151.442C242.933 150.498 243.304 149.615 243.961 148.931L250.787 142.081C252.125 140.739 254.454 140.739 255.792 142.081L291.372 177.785C292.041 178.468 292.413 179.351 292.413 180.296Z" fill="#002548"/>
<path opacity="0.1" d="M292.412 180.296C292.412 181.253 292.041 182.148 291.372 182.807L284.545 189.657C283.889 190.328 282.997 190.701 282.043 190.701C281.101 190.701 280.222 190.328 279.54 189.657L259.595 169.642H283.257L291.372 177.785C292.041 178.468 292.412 179.351 292.412 180.296Z" fill="#2D2F31"/>
<path d="M309.72 203.99C309.472 203.667 309.088 203.481 308.679 203.481H292.834C292.103 203.481 291.508 204.077 291.508 204.811V266.235C291.508 266.906 292.053 267.528 292.722 267.615C292.772 267.615 292.822 267.627 292.871 267.627C293.478 267.627 294.073 267.18 294.221 266.583L309.967 205.147C310.054 204.736 309.967 204.314 309.72 203.99Z" fill="#002548"/>
<path opacity="0.1" d="M309.72 203.99C309.472 203.667 309.088 203.481 308.679 203.481H292.834C292.103 203.481 291.508 204.077 291.508 204.811V266.235C291.508 266.906 292.053 267.528 292.722 267.615C292.772 267.615 292.822 267.627 292.871 267.627C293.478 267.627 294.073 267.18 294.221 266.583L309.967 205.147C310.054 204.736 309.967 204.314 309.72 203.99Z" fill="#2D2F31"/>
<path d="M294.159 197.737V266.67C294.159 267.403 293.564 268 292.833 268H208.281C207.55 268 206.955 267.403 206.955 266.67V183.615C206.955 182.869 207.55 182.285 208.281 182.285H243.514C244.059 182.285 244.555 182.621 244.74 183.13L249.708 196.407H292.833C293.552 196.407 294.159 197.004 294.159 197.737Z" fill="#002548"/>
<path opacity="0.1" d="M284.57 267.988H208.281C207.55 267.988 206.955 267.391 206.955 266.657V190.104L284.57 267.988Z" fill="#2D2F31"/>
<path d="M257.6 231.75H218.849C218.118 231.75 217.523 232.346 217.523 233.08V256.053C217.523 256.787 218.118 257.384 218.849 257.384H257.6C258.331 257.384 258.926 256.787 258.926 256.053V233.08C258.926 232.346 258.331 231.75 257.6 231.75Z" fill="#0054A6"/>
<path d="M233.826 241.484H225.018C224.287 241.484 223.692 240.887 223.692 240.153C223.692 239.42 224.287 238.823 225.018 238.823H233.826C234.557 238.823 235.152 239.42 235.152 240.153C235.152 240.887 234.557 241.484 233.826 241.484Z" fill="#7C8EA1"/>
<path d="M251.431 241.484H245.955C245.224 241.484 244.629 240.887 244.629 240.153C244.629 239.42 245.224 238.823 245.955 238.823H251.431C252.162 238.823 252.756 239.42 252.756 240.153C252.756 240.887 252.174 241.484 251.431 241.484Z" fill="#7C8EA1"/>
<path d="M239.995 241.484C239.636 241.484 239.289 241.334 239.054 241.086C238.806 240.85 238.67 240.502 238.67 240.153C238.67 239.805 238.806 239.457 239.054 239.209C239.55 238.711 240.429 238.711 240.925 239.209C241.172 239.457 241.309 239.793 241.309 240.153C241.309 240.502 241.172 240.85 240.925 241.098C240.677 241.334 240.342 241.484 239.995 241.484Z" fill="#7C8EA1"/>
<path d="M248.792 250.31C248.433 250.31 248.086 250.173 247.851 249.925C247.603 249.676 247.467 249.328 247.467 248.98C247.467 248.632 247.603 248.284 247.851 248.035C248.346 247.55 249.238 247.55 249.734 248.048C249.969 248.284 250.118 248.632 250.118 248.98C250.118 249.34 249.969 249.676 249.722 249.925C249.486 250.186 249.139 250.31 248.792 250.31Z" fill="#7C8EA1"/>
<path d="M241.755 250.322H225.018C224.287 250.322 223.692 249.726 223.692 248.992C223.692 248.259 224.287 247.662 225.018 247.662H241.755C242.486 247.662 243.081 248.259 243.081 248.992C243.068 249.738 242.486 250.322 241.755 250.322Z" fill="#7C8EA1"/>
</svg>
