<svg width="334" height="312" viewBox="0 0 334 312" fill="none" xmlns="http://www.w3.org/2000/svg">
<path d="M209.981 146.25L208.026 148.042L159.468 192.536L157.27 194.548C156.873 194.91 156.299 194.976 155.846 194.745C155.713 194.68 155.603 194.592 155.503 194.482C155.04 193.976 155.073 193.196 155.57 192.734L157.767 190.723L206.337 146.228L208.291 144.437C208.799 143.975 209.583 144.008 210.047 144.514C210.522 145.008 210.489 145.789 209.981 146.25Z" fill="#839299"/>
<path d="M244.658 77.1459L242.162 78.0802L180.363 101.152L177.569 102.185C177.061 102.372 176.509 102.218 176.178 101.833C176.078 101.723 176.012 101.602 175.957 101.459C175.725 100.822 176.045 100.107 176.686 99.8656L179.48 98.8324L241.29 75.772L243.786 74.8377C244.426 74.6069 245.144 74.9256 245.376 75.5631C245.63 76.2007 245.31 76.9151 244.658 77.1459Z" fill="#839299"/>
<path d="M208.39 135.413C208.169 135.578 207.915 135.644 207.672 135.644C207.286 135.644 206.899 135.457 206.656 135.127L205.276 133.203L188.534 109.868L186.999 107.725C186.601 107.164 186.723 106.406 187.286 105.999C187.849 105.603 188.611 105.735 189.009 106.296L190.544 108.439L207.297 131.774L208.677 133.698C209.075 134.259 208.942 135.017 208.39 135.413Z" fill="#839299"/>
<path d="M119.921 163.189L118.706 165.958L90.3794 230.018C90.1806 230.479 89.7168 230.743 89.2419 230.743C89.0762 230.743 88.9106 230.721 88.7449 230.644C88.1265 230.369 87.8394 229.644 88.1155 229.017L116.442 164.958L117.657 162.199C117.933 161.573 118.662 161.287 119.28 161.573C119.91 161.837 120.197 162.562 119.921 163.189Z" fill="#839299"/>
<path d="M149.165 185.864C148.955 186.04 148.712 186.139 148.469 186.15C148.082 186.183 147.685 186.029 147.409 185.71L145.52 183.446L127.652 162.199L125.708 159.88C125.267 159.352 125.333 158.572 125.863 158.132C126.393 157.693 127.166 157.759 127.608 158.286L129.551 160.605L147.42 181.852L149.33 184.128C149.75 184.633 149.684 185.425 149.165 185.864Z" fill="#839299"/>
<path d="M119.921 163.188L118.706 165.958C117.911 165.694 117.149 165.364 116.431 164.958L117.646 162.199C117.922 161.573 118.651 161.287 119.269 161.573C119.91 161.836 120.197 162.562 119.921 163.188Z" fill="#839299"/>
<path d="M245.519 84.4884C251.203 84.4884 255.811 79.9019 255.811 74.2442C255.811 68.5865 251.203 64 245.519 64C239.834 64 235.226 68.5865 235.226 74.2442C235.226 79.9019 239.834 84.4884 245.519 84.4884Z" fill="#0054A6"/>
<path d="M182.417 112.319C188.101 112.319 192.709 107.733 192.709 102.075C192.709 96.4173 188.101 91.8308 182.417 91.8308C176.732 91.8308 172.124 96.4173 172.124 102.075C172.124 107.733 176.732 112.319 182.417 112.319Z" fill="#ED1C24"/>
<path d="M211.749 151.977C217.433 151.977 222.041 147.391 222.041 141.733C222.041 136.075 217.433 131.489 211.749 131.489C206.064 131.489 201.456 136.075 201.456 141.733C201.456 147.391 206.064 151.977 211.749 151.977Z" fill="#0054A6"/>
<path d="M156.078 202.099C161.762 202.099 166.37 197.513 166.37 191.855C166.37 186.197 161.762 181.611 156.078 181.611C150.393 181.611 145.785 186.197 145.785 191.855C145.785 197.513 150.393 202.099 156.078 202.099Z" fill="#0054A6"/>
<path d="M122.428 164.705C128.113 164.705 132.721 160.119 132.721 154.461C132.721 148.804 128.113 144.217 122.428 144.217C116.744 144.217 112.136 148.804 112.136 154.461C112.136 160.119 116.744 164.705 122.428 164.705Z" fill="#0054A6"/>
<path d="M85.2335 248C90.9179 248 95.526 243.414 95.526 237.756C95.526 232.098 90.9179 227.512 85.2335 227.512C79.549 227.512 74.9409 232.098 74.9409 237.756C74.9409 243.414 79.549 248 85.2335 248Z" fill="#0054A6"/>
<path d="M189.495 149.284V142.524L183.764 141.722C183.333 139.897 182.615 138.171 181.633 136.578L185.1 131.983L180.296 127.202L175.68 130.653C174.079 129.675 172.356 128.96 170.512 128.532L169.706 122.827H162.914L162.108 128.532C160.263 128.96 158.541 129.675 156.939 130.653L152.312 127.202L147.519 131.983L150.987 136.578C150.004 138.171 149.286 139.897 148.855 141.722L143.113 142.524V149.284L148.855 150.108C149.286 151.933 150.004 153.659 150.987 155.241L147.519 159.847L152.312 164.628L156.939 161.177C158.541 162.144 160.263 162.859 162.108 163.298L162.914 169.003H169.706L170.512 163.298C172.356 162.859 174.079 162.144 175.68 161.177L180.296 164.628L185.1 159.847L181.633 155.241C182.615 153.659 183.333 151.933 183.764 150.108L189.495 149.284ZM166.304 153.527C162.086 153.527 158.651 150.108 158.651 145.91C158.651 141.7 162.086 138.281 166.304 138.281C170.534 138.281 173.968 141.7 173.968 145.91C173.968 150.108 170.534 153.527 166.304 153.527Z" fill="#0054A6"/>
<path d="M105.51 171.355L104.781 161.914L96.6968 161.397C95.9017 158.902 94.7201 156.561 93.1629 154.439L97.5141 147.657L90.2916 141.491L84.2177 146.8C81.8654 145.602 79.3917 144.789 76.7744 144.382L75.0295 136.512L65.5431 137.237L65.0241 145.283C62.4951 146.075 60.1649 147.251 58.0335 148.8L51.1976 144.47L45.0243 151.658L50.3583 157.704C49.1546 160.045 48.3374 162.529 47.9287 165.112L39.9995 166.838L40.7284 176.28L48.8343 176.818C49.6294 179.313 50.8111 181.654 52.3572 183.754L48.006 190.558L55.2064 196.724L61.3024 191.415C63.6547 192.591 66.1284 193.405 68.7457 193.833L70.4906 201.703L79.977 200.978L80.496 192.932C83.025 192.119 85.3441 190.942 87.4866 189.415L94.3004 193.745L100.496 186.557L95.1618 180.489C96.3655 178.17 97.1828 175.686 97.5914 173.103L105.51 171.355ZM73.5718 179.753C67.6856 180.204 62.5172 175.785 62.0644 169.926C61.6116 164.046 66.0511 158.902 71.9373 158.451C77.8456 158 83.0139 162.419 83.4667 168.3C83.9195 174.158 79.48 179.302 73.5718 179.753Z" fill="#0054A6"/>
<path d="M141.158 195.053V191.041L137.756 190.558C137.502 189.48 137.072 188.447 136.486 187.502L138.541 184.776L135.691 181.94L132.953 183.985C132.003 183.402 130.976 182.984 129.882 182.721L129.397 179.335H125.366L124.88 182.721C123.786 182.973 122.759 183.402 121.81 183.985L119.06 181.94L116.222 184.776L118.276 187.502C117.69 188.447 117.271 189.48 117.006 190.558L113.593 191.041V195.053L117.006 195.537C117.26 196.614 117.69 197.647 118.276 198.582L116.222 201.318L119.06 204.154L121.81 202.11C122.759 202.681 123.786 203.11 124.88 203.374L125.366 206.759H129.397L129.882 203.374C130.976 203.11 132.003 202.692 132.953 202.11L135.691 204.154L138.541 201.318L136.486 198.582C137.072 197.636 137.491 196.614 137.756 195.537L141.158 195.053ZM127.387 197.57C124.88 197.57 122.848 195.537 122.848 193.053C122.848 190.558 124.891 188.524 127.387 188.524C129.893 188.524 131.937 190.558 131.937 193.053C131.937 195.537 129.905 197.57 127.387 197.57Z" fill="#0054A6"/>
<path d="M221.952 107.692V104.867L219.555 104.526C219.379 103.768 219.081 103.042 218.661 102.372L220.108 100.448L218.098 98.4477L216.165 99.8876C215.491 99.4809 214.774 99.1841 214.001 98.9972L213.658 96.6121H210.82L210.478 98.9972C209.705 99.1731 208.987 99.4699 208.313 99.8876L206.381 98.4477L204.382 100.448L205.828 102.372C205.42 103.042 205.122 103.768 204.934 104.526L202.526 104.867V107.692L204.934 108.032C205.111 108.791 205.409 109.516 205.828 110.176L204.382 112.099L206.381 114.1L208.313 112.66C208.987 113.067 209.705 113.363 210.478 113.55L210.82 115.935H213.658L214.001 113.55C214.774 113.363 215.491 113.067 216.165 112.66L218.098 114.1L220.108 112.099L218.661 110.176C219.07 109.516 219.368 108.791 219.555 108.032L221.952 107.692ZM212.245 109.472C210.478 109.472 209.042 108.043 209.042 106.285C209.042 104.526 210.478 103.086 212.245 103.086C214.012 103.086 215.458 104.515 215.458 106.285C215.447 108.032 214.012 109.472 212.245 109.472Z" fill="#ED1C24"/>
<path d="M228.987 103.504L229.683 114.902L220.108 121.2L210.964 116.661C210.069 116.221 209.076 117.046 209.352 118.002C210.699 122.662 213.979 126.762 218.761 129.004C227.375 133.038 237.711 129.455 241.952 120.97C246.27 112.341 242.747 101.855 234.067 97.5464C229.484 95.2711 224.382 95.1722 219.942 96.8649C219.004 97.2167 218.937 98.5137 219.832 98.9533L228.987 103.504Z" fill="#839299"/>
<path d="M235.989 122.948L284.613 149.306C287.794 150.977 291.725 149.724 293.327 146.525C294.928 143.327 293.57 139.436 290.323 137.919L239.942 115.067L235.989 122.948Z" fill="#839299"/>
<path d="M239.39 119.727C240.03 118.452 241.587 117.936 242.868 118.573C244.149 119.211 244.668 120.76 244.028 122.035C243.387 123.31 241.83 123.827 240.549 123.189C239.279 122.563 238.749 121.002 239.39 119.727Z" fill="#D2D9DC"/>
<path d="M245.674 121.145L287.186 141.755C287.948 142.128 288.257 143.052 287.871 143.81C287.495 144.569 286.568 144.876 285.806 144.492L244.304 123.882L245.674 121.145Z" fill="#D2D9DC"/>
</svg>
