<svg width="334" height="312" viewBox="0 0 334 312" fill="none" xmlns="http://www.w3.org/2000/svg">
<path d="M75.2021 153.864H137.581" stroke="#7C8EA1" stroke-width="2" stroke-miterlimit="10"/>
<path d="M196.224 153.864H258.589" stroke="#7C8EA1" stroke-width="2" stroke-miterlimit="10"/>
<path d="M166.323 178.554V218.45" stroke="#7C8EA1" stroke-width="2" stroke-miterlimit="10"/>
<path d="M190.222 144.016L224.184 110.179" stroke="#7C8EA1" stroke-width="2" stroke-miterlimit="10"/>
<path d="M69.2144 144.016L90.9922 122.323" stroke="#7C8EA1" stroke-width="2" stroke-miterlimit="10"/>
<path d="M143.933 144.016L122.155 122.323" stroke="#7C8EA1" stroke-width="2" stroke-miterlimit="10"/>
<path d="M190.222 164.204L212 185.897" stroke="#7C8EA1" stroke-width="2" stroke-miterlimit="10"/>
<path d="M69.2144 164.204L90.9922 185.897" stroke="#7C8EA1" stroke-width="2" stroke-miterlimit="10"/>
<path d="M143.933 164.204L122.155 185.897" stroke="#7C8EA1" stroke-width="2" stroke-miterlimit="10"/>
<path d="M92.6705 201.051L61.5723 232.047" stroke="#7C8EA1" stroke-width="2" stroke-miterlimit="10"/>
<path d="M273.338 232.047L242.252 201.051" stroke="#7C8EA1" stroke-width="2" stroke-miterlimit="10"/>
<path d="M166.323 129.433V89.5374" stroke="#7C8EA1" stroke-width="2" stroke-miterlimit="10"/>
<path d="M92.6705 106.936L61.5723 75.9402" stroke="#7C8EA1" stroke-width="2" stroke-miterlimit="10"/>
<path d="M264.941 164.204L243.164 185.897" stroke="#7C8EA1" stroke-width="2" stroke-miterlimit="10"/>
<path d="M97.0577 174.882H116.532L126.268 191.697L116.532 208.511H97.0577L87.3208 191.697L97.0577 174.882Z" fill="#0054A6"/>
<path d="M97.0577 99.2161H116.532L126.268 116.031L116.532 132.845H97.0577L87.3208 116.031L97.0577 99.2161Z" fill="#0054A6"/>
<path d="M217.871 174.882H237.345L247.082 191.697L237.345 208.511H217.871L208.134 191.697L217.871 174.882Z" fill="#0054A6"/>
<path d="M273.207 128.642H302.431L317.037 153.864L302.431 179.086H273.207L258.602 153.864L273.207 128.642Z" fill="#002548"/>
<path d="M302.913 179.916H272.726L257.625 153.864L272.726 127.812H302.913L318 153.864L302.913 179.916ZM273.689 178.243H301.936L316.06 153.864L301.936 129.485H273.689L259.565 153.864L273.689 178.243Z" fill="#7C8EA1"/>
<path d="M152.394 128.642H181.618L196.224 153.864L181.618 179.086H152.394L137.789 153.864L152.394 128.642Z" fill="#002548"/>
<path d="M182.1 179.916H151.913L136.813 153.864L151.913 127.812H182.1L197.2 153.864L182.1 179.916ZM152.876 178.243H181.124L195.247 153.864L181.124 129.485H152.876L138.753 153.864L152.876 178.243Z" fill="#7C8EA1"/>
<path d="M31.5809 128.642H60.8047L75.41 153.864L60.8047 179.086H31.5809L16.9756 153.864L31.5809 128.642Z" fill="#002548"/>
<path d="M61.2866 179.916H31.0995L15.9995 153.864L31.0995 127.812H61.2866L76.3866 153.864L61.2866 179.916ZM32.0628 178.243H60.3103L74.434 153.864L60.3103 129.485H32.0628L17.9391 153.864L32.0628 178.243Z" fill="#7C8EA1"/>
<path d="M117.026 209.342H96.576L86.3574 191.697L96.576 174.052H117.026L127.245 191.697L117.026 209.342ZM97.5392 207.668H116.05L125.305 191.697L116.05 175.725H97.5392L88.284 191.697L97.5392 207.668Z" fill="#7C8EA1"/>
<path d="M117.026 133.689H96.576L86.3574 116.044L96.576 98.3987H117.026L127.245 116.044L117.026 133.689ZM97.5392 132.015H116.05L125.305 116.044L116.05 100.072H97.5392L88.284 116.044L97.5392 132.015Z" fill="#7C8EA1"/>
<path d="M157.38 155.486L156.196 154.305C159.086 151.425 162.926 149.842 167 149.842C171.088 149.842 174.928 151.425 177.804 154.305L176.62 155.486C174.055 152.93 170.632 151.515 167 151.515C163.368 151.515 159.945 152.93 157.38 155.486Z" fill="#F2F3F5"/>
<path d="M161.246 159.339L160.062 158.158C161.923 156.303 164.383 155.291 167.013 155.291C169.642 155.291 172.102 156.316 173.964 158.158L172.779 159.339C171.243 157.808 169.2 156.965 167.026 156.965C164.826 156.965 162.782 157.808 161.246 159.339Z" fill="#F2F3F5"/>
<path d="M184.339 147.792C179.704 143.173 173.547 140.63 167 140.63C160.452 140.63 154.295 143.173 149.661 147.792L148.476 146.611C153.423 141.681 160.009 138.956 167.013 138.956C174.016 138.956 180.59 141.668 185.549 146.611L184.339 147.792Z" fill="#F2F3F5"/>
<path d="M180.486 151.645C176.88 148.051 172.103 146.079 167 146.079C161.91 146.079 157.12 148.051 153.514 151.645L152.33 150.465C156.248 146.559 161.455 144.406 167 144.406C172.545 144.406 177.752 146.559 181.67 150.465L180.486 151.645Z" fill="#F2F3F5"/>
<path d="M167 170.782C164.644 170.782 162.73 168.875 162.73 166.527C162.73 164.178 164.644 162.271 167 162.271C169.356 162.271 171.27 164.178 171.27 166.527C171.27 168.875 169.356 170.782 167 170.782ZM167 163.945C165.568 163.945 164.41 165.099 164.41 166.527C164.41 167.954 165.568 169.108 167 169.108C168.432 169.108 169.591 167.954 169.591 166.527C169.591 165.099 168.432 163.945 167 163.945Z" fill="#F2F3F5"/>
<path d="M237.84 209.342H217.389L207.171 191.697L217.389 174.052H237.84L248.058 191.697L237.84 209.342ZM218.353 207.668H236.863L246.119 191.697L236.863 175.725H218.353L209.097 191.697L218.353 207.668Z" fill="#7C8EA1"/>
<path d="M223.404 201.025H217.677V195.42H223.404V201.025ZM219.356 199.352H221.712V197.094H219.356V199.352Z" fill="#F2F3F5"/>
<path d="M227.439 201.025H221.712V191.398H227.439V201.025ZM223.404 199.352H225.76V193.085H223.404V199.352Z" fill="#F2F3F5"/>
<path d="M231.488 201.025H225.761V186.377H231.488V201.025ZM227.44 199.351H229.796V188.051H227.44V199.351Z" fill="#F2F3F5"/>
<path d="M235.523 201.025H229.796V180.344H235.523V201.025ZM231.488 199.352H233.844V182.031H231.488V199.352Z" fill="#F2F3F5"/>
<path d="M166.322 228.271C163.367 228.271 160.946 225.871 160.946 222.926C160.946 219.981 163.354 217.567 166.322 217.567C169.277 217.567 171.699 219.968 171.699 222.926C171.699 225.871 169.29 228.271 166.322 228.271ZM166.322 219.241C164.292 219.241 162.639 220.889 162.639 222.913C162.639 224.937 164.292 226.584 166.322 226.584C168.353 226.584 170.006 224.937 170.006 222.913C170.006 220.889 168.366 219.241 166.322 219.241Z" fill="#7C8EA1" stroke="#7C8EA1" stroke-width="0.25" stroke-miterlimit="10"/>
<path d="M275.954 240C272.999 240 270.591 237.6 270.591 234.655C270.591 231.709 272.999 229.296 275.954 229.296C278.909 229.296 281.33 231.696 281.33 234.655C281.317 237.6 278.909 240 275.954 240ZM275.954 230.97C273.923 230.97 272.27 232.618 272.27 234.642C272.27 236.666 273.923 238.313 275.954 238.313C277.985 238.313 279.638 236.666 279.638 234.642C279.638 232.618 277.985 230.97 275.954 230.97Z" fill="#7C8EA1" stroke="#7C8EA1" stroke-width="0.25" stroke-miterlimit="10"/>
<path d="M63.6557 73.3454C63.6557 76.2906 61.2476 78.7038 58.2796 78.7038C55.3247 78.7038 52.9165 76.3036 52.9165 73.3454C52.9165 70.4003 55.3247 68.0001 58.2796 68.0001C61.2476 67.9871 63.6557 70.3873 63.6557 73.3454ZM61.9765 73.3454C61.9765 71.3215 60.3233 69.6737 58.2926 69.6737C56.2619 69.6737 54.6088 71.3215 54.6088 73.3454C54.6088 75.3694 56.2619 77.0172 58.2926 77.0172C60.3103 77.0172 61.9765 75.3694 61.9765 73.3454Z" fill="#7C8EA1" stroke="#7C8EA1" stroke-width="0.25" stroke-miterlimit="10"/>
<path d="M171.699 85.0742C171.699 88.0194 169.29 90.4326 166.322 90.4326C163.367 90.4326 160.946 88.0323 160.946 85.0742C160.946 82.129 163.354 79.7288 166.322 79.7288C169.29 79.7158 171.699 82.1161 171.699 85.0742ZM170.019 85.0742C170.019 83.0502 168.366 81.4025 166.335 81.4025C164.305 81.4025 162.652 83.0502 162.652 85.0742C162.652 87.0982 164.305 88.7459 166.335 88.7459C168.366 88.7459 170.019 87.0982 170.019 85.0742Z" fill="#7C8EA1" stroke="#7C8EA1" stroke-width="0.25" stroke-miterlimit="10"/>
<path d="M232.581 106.845C232.581 109.79 230.173 112.204 227.205 112.204C224.25 112.204 221.842 109.803 221.842 106.845C221.842 103.9 224.25 101.5 227.205 101.5C230.173 101.5 232.581 103.9 232.581 106.845ZM230.902 106.845C230.902 104.821 229.249 103.173 227.218 103.173C225.187 103.173 223.534 104.821 223.534 106.845C223.534 108.869 225.187 110.517 227.218 110.517C229.249 110.517 230.902 108.869 230.902 106.845Z" fill="#ED1C24"/>
<path d="M117.99 117.38C117.99 119.612 116.167 121.428 113.928 121.428H100.156C97.6438 121.428 95.6001 119.391 95.6001 116.887C95.6001 114.383 97.6438 112.346 100.156 112.346C100.547 112.346 100.911 112.398 101.276 112.476C102.291 110.153 104.582 108.635 107.172 108.635C110.088 108.635 112.627 110.634 113.369 113.384C113.551 113.358 113.733 113.345 113.928 113.345C116.167 113.332 117.99 115.149 117.99 117.38Z" fill="#F2F3F5"/>
<path d="M106.795 181.486C102.265 181.486 98.5679 185.171 98.5679 189.686C98.5679 193.941 105.376 201.739 106.157 202.608L106.782 203.322L107.407 202.608C108.188 201.739 114.996 193.928 114.996 189.686C115.022 185.171 111.325 181.486 106.795 181.486ZM106.795 193.293C104.803 193.293 103.189 191.671 103.189 189.699C103.189 187.714 104.803 186.105 106.795 186.105C108.786 186.105 110.401 187.714 110.401 189.699C110.414 191.671 108.786 193.293 106.795 193.293Z" fill="#F2F3F5"/>
<path d="M61.4817 163.127H28.7954V144.613H61.4817V163.127ZM30.4746 161.441H59.7895V146.274H30.4746V161.441Z" fill="#F2F3F5"/>
<path d="M58.4494 160.104H31.8291V147.623H58.4624V160.104H58.4494ZM33.5083 158.431H56.7832V149.297H33.5083V158.431Z" fill="#F2F3F5"/>
<path d="M39.7437 148.453H38.0645V159.261H39.7437V148.453Z" fill="#F2F3F5"/>
<path d="M45.9785 148.453H44.2993V159.261H45.9785V148.453Z" fill="#F2F3F5"/>
<path d="M52.2139 148.453H50.5347V159.261H52.2139V148.453Z" fill="#F2F3F5"/>
<path d="M63.5 159.209H59.79V148.518H63.5C64.4632 148.518 65.2573 149.31 65.2573 150.27V157.458C65.2573 158.431 64.4762 159.209 63.5 159.209ZM61.4823 157.535H63.5C63.539 157.535 63.5781 157.497 63.5781 157.458V150.27C63.5781 150.231 63.539 150.192 63.5 150.192H61.4823V157.535Z" fill="#F2F3F5"/>
<path d="M304.527 156.303V151.425L300.401 150.841C300.088 149.53 299.581 148.285 298.865 147.13L301.364 143.822L297.901 140.371L294.582 142.862C293.423 142.148 292.187 141.642 290.859 141.331L290.273 137.218H285.379L284.793 141.331C283.465 141.642 282.229 142.148 281.07 142.862L277.738 140.371L274.288 143.822L276.787 147.13C276.071 148.285 275.564 149.53 275.251 150.841L271.112 151.425V156.303L275.251 156.9C275.564 158.21 276.071 159.456 276.787 160.597L274.288 163.919L277.738 167.37L281.07 164.879C282.229 165.58 283.465 166.086 284.793 166.41L285.379 170.523H290.273L290.859 166.41C292.187 166.086 293.423 165.58 294.582 164.879L297.901 167.37L301.364 163.919L298.865 160.597C299.581 159.456 300.088 158.21 300.401 156.9L304.527 156.303ZM287.813 159.365C284.78 159.365 282.294 156.9 282.294 153.864C282.294 150.828 284.767 148.35 287.813 148.35C290.859 148.35 293.345 150.815 293.345 153.864C293.332 156.9 290.859 159.365 287.813 159.365Z" fill="#F2F3F5"/>
<path d="M58.2796 240C55.3247 240 52.9165 237.6 52.9165 234.655C52.9165 231.709 55.3247 229.296 58.2796 229.296C61.2345 229.296 63.6557 231.696 63.6557 234.655C63.6557 237.6 61.2476 240 58.2796 240ZM58.2796 230.97C56.2489 230.97 54.5957 232.618 54.5957 234.642C54.5957 236.666 56.2489 238.313 58.2796 238.313C60.3103 238.313 61.9635 236.666 61.9635 234.642C61.9635 232.618 60.3103 230.97 58.2796 230.97Z" fill="#ED1C24"/>
<path d="M58.2793 239.209C60.81 239.209 62.8614 237.164 62.8614 234.642C62.8614 232.119 60.81 230.075 58.2793 230.075C55.7487 230.075 53.6973 232.119 53.6973 234.642C53.6973 237.164 55.7487 239.209 58.2793 239.209Z" fill="#ED1C24"/>
<path d="M227.205 111.412C229.735 111.412 231.787 109.367 231.787 106.845C231.787 104.323 229.735 102.278 227.205 102.278C224.674 102.278 222.623 104.323 222.623 106.845C222.623 109.367 224.674 111.412 227.205 111.412Z" fill="#ED1C24"/>
</svg>
