<svg width="32" height="32" viewBox="0 0 32 32" fill="none" xmlns="http://www.w3.org/2000/svg">
<path d="M31.6308 28.0801C31.6308 29.5948 25.6948 30.8481 18.0095 31.0348L13.3961 29.3335L8.38281 30.7041C3.58281 30.1708 0.382812 29.2215 0.382812 28.1015C0.382812 26.4588 7.38015 25.1201 16.0201 25.1201C24.6601 25.1201 31.6308 26.4375 31.6308 28.0801Z" fill="#444444"/>
<path d="M31.6301 28.08C31.6301 28.64 30.8301 29.1466 29.4381 29.6053C28.7288 28.3093 22.9795 27.296 15.9981 27.296C9.0168 27.296 3.2568 28.3093 2.54747 29.6053C1.15547 29.1573 0.355469 28.64 0.355469 28.08C0.355469 26.4373 7.3528 25.0986 15.9928 25.0986C24.6328 25.0986 31.6301 26.4373 31.6301 28.08Z" fill="#5A5A5A"/>
<path d="M8.38281 30.6827C10.9131 30.9418 13.4553 31.0681 15.9988 31.0614C16.6815 31.0614 17.3535 31.0614 18.0148 31.0347L25.9295 23.1147L26.5641 20.8L28.9268 20.1227L31.4281 17.6C31.5561 17.472 31.628 17.2984 31.628 17.1174C31.628 16.9363 31.5561 16.7627 31.4281 16.6347L28.6335 13.8667L19.7641 19.8774L8.38281 30.6827Z" fill="#138B80"/>
<path d="M24.8633 22.0479L15.85 31.0612H14.5273L24.1967 21.3812C24.2405 21.3375 24.2924 21.3027 24.3496 21.279C24.4068 21.2554 24.4681 21.2432 24.53 21.2432C24.5919 21.2432 24.6532 21.2554 24.7104 21.279C24.7676 21.3027 24.8196 21.3375 24.8633 21.3812C24.9071 21.425 24.9418 21.477 24.9655 21.5342C24.9892 21.5914 25.0014 21.6527 25.0014 21.7146C25.0014 21.7765 24.9892 21.8378 24.9655 21.895C24.9418 21.9522 24.9071 22.0041 24.8633 22.0479Z" fill="#127E73"/>
<path d="M27.5907 19.1251C27.529 19.1257 27.4679 19.1137 27.4111 19.0898C27.3542 19.066 27.3028 19.0308 27.26 18.9864C27.216 18.9428 27.1811 18.8909 27.1572 18.8337C27.1334 18.7764 27.1211 18.7151 27.1211 18.6531C27.1211 18.5911 27.1334 18.5297 27.1572 18.4725C27.1811 18.4153 27.216 18.3634 27.26 18.3198L28.4974 17.0664C28.5862 16.9788 28.7059 16.9297 28.8307 16.9297C28.9555 16.9297 29.0752 16.9788 29.164 17.0664C29.2507 17.1568 29.2991 17.2772 29.2991 17.4024C29.2991 17.5277 29.2507 17.6481 29.164 17.7384L27.9267 18.9864C27.8833 19.0315 27.831 19.067 27.7732 19.0909C27.7154 19.1148 27.6532 19.1264 27.5907 19.1251Z" fill="#127E73"/>
<path d="M21.8989 7.10939L31.4296 16.6454C31.5576 16.7734 31.6295 16.947 31.6295 17.1281C31.6295 17.3091 31.5576 17.4827 31.4296 17.6107L29.9896 19.0507C30.0528 18.9878 30.103 18.913 30.1372 18.8306C30.1714 18.7482 30.1891 18.6599 30.1891 18.5707C30.1891 18.4815 30.1714 18.3932 30.1372 18.3108C30.103 18.2285 30.0528 18.1537 29.9896 18.0907L20.4536 8.53339C20.3256 8.40539 20.152 8.33349 19.9709 8.33349C19.7899 8.33349 19.6163 8.40539 19.4883 8.53339L20.9283 7.08805C21.0572 6.95973 21.2317 6.8877 21.4136 6.8877C21.5955 6.8877 21.77 6.95973 21.8989 7.08805V7.10939Z" fill="#127E73"/>
<path d="M28.6364 14.816L12.4657 30.9866C11.0204 30.9226 9.64969 30.8213 8.38569 30.6826L0.535021 22.8533C0.468389 22.7896 0.415358 22.713 0.379128 22.6282C0.342897 22.5434 0.324219 22.4522 0.324219 22.36C0.324219 22.2678 0.342897 22.1765 0.379128 22.0917C0.415358 22.0069 0.468389 21.9304 0.535021 21.8666L12.6364 9.81331L14.935 9.31198L15.6284 6.82131L18.135 4.31464C18.263 4.18665 18.4367 4.11475 18.6177 4.11475C18.7987 4.11475 18.9723 4.18665 19.1004 4.31464L28.6364 13.8666C28.7643 13.9947 28.8363 14.1683 28.8363 14.3493C28.8363 14.5303 28.7643 14.704 28.6364 14.832V14.816Z" fill="#27D1B3"/>
<path d="M2.85415 21.76H3.63281L4.21415 22.4853C4.27368 22.5579 4.34857 22.6163 4.43341 22.6565C4.51826 22.6966 4.61095 22.7174 4.70481 22.7174C4.79867 22.7174 4.89137 22.6966 4.97621 22.6565C5.06106 22.6163 5.13595 22.5579 5.19548 22.4853L5.77681 21.76H6.55548C6.8893 21.76 7.20944 21.6274 7.44549 21.3913C7.68154 21.1553 7.81415 20.8351 7.81415 20.5013V16.8C7.81324 16.5207 7.71948 16.2496 7.54761 16.0295C7.37574 15.8094 7.13554 15.6526 6.86481 15.584L1.63281 20.8C1.70049 21.0731 1.85737 21.3159 2.0786 21.4898C2.29983 21.6636 2.57276 21.7587 2.85415 21.76Z" fill="#20B69F"/>
<path d="M19.0967 4.31464L28.6327 13.8666C28.7607 13.9947 28.8326 14.1683 28.8326 14.3493C28.8326 14.5303 28.7607 14.704 28.6327 14.832L27.1981 16.256C27.3261 16.128 27.398 15.9543 27.398 15.7733C27.398 15.5923 27.3261 15.4187 27.1981 15.2906L17.6567 5.75464C17.5287 5.62665 17.3551 5.55475 17.1741 5.55475C16.993 5.55475 16.8194 5.62665 16.6914 5.75464L18.1314 4.31464C18.2594 4.18665 18.433 4.11475 18.6141 4.11475C18.7951 4.11475 18.9687 4.18665 19.0967 4.31464Z" fill="#20B69F"/>
<path d="M25.349 14.8162L13.141 27.0242H7.99971L3.83971 22.8535C3.77308 22.7898 3.72005 22.7132 3.68382 22.6284C3.64758 22.5436 3.62891 22.4524 3.62891 22.3602C3.62891 22.268 3.64758 22.1767 3.68382 22.0919C3.72005 22.0071 3.77308 21.9306 3.83971 21.8668L16.0477 9.68018H21.1837L25.349 13.8668C25.477 13.9949 25.5489 14.1685 25.5489 14.3495C25.5489 14.5305 25.477 14.7042 25.349 14.8322V14.8162Z" fill="#138B80"/>
<path d="M3.83992 21.8666L3.78125 21.9306L4.21325 22.4639C4.27278 22.5364 4.34767 22.5949 4.43252 22.635C4.51736 22.6752 4.61006 22.696 4.70392 22.696C4.79778 22.696 4.89047 22.6752 4.97532 22.635C5.06016 22.5949 5.13505 22.5364 5.19458 22.4639L5.77592 21.7385H6.55458C6.8884 21.7385 7.20855 21.6059 7.44459 21.3699C7.68064 21.1338 7.81325 20.8137 7.81325 20.4799V17.9146L3.83992 21.8666Z" fill="#127E73"/>
<path d="M18.1981 21.9584C20.0143 20.1422 19.8708 17.0541 17.8775 15.0608C15.8843 13.0676 12.7961 12.9241 10.9799 14.7403C9.16373 16.5565 9.30724 19.6446 11.3005 21.6379C13.2937 23.6311 16.3819 23.7746 18.1981 21.9584Z" fill="#FEE7C9"/>
<path d="M8 27.024C8.68249 26.3456 9.6057 25.9648 10.568 25.9648C11.5303 25.9648 12.4535 26.3456 13.136 27.024L11.0507 29.1094C10.9226 29.2374 10.749 29.3093 10.568 29.3093C10.387 29.3093 10.2134 29.2374 10.0853 29.1094L8 27.024Z" fill="#FEE7C9"/>
<path d="M21.1829 9.67976C20.5018 10.3608 19.578 10.7433 18.6149 10.7433C17.6517 10.7433 16.728 10.3608 16.0469 9.67976L18.1322 7.59443C18.2602 7.46643 18.4338 7.39453 18.6149 7.39453C18.7959 7.39453 18.9695 7.46643 19.0975 7.59443L21.1829 9.67976Z" fill="#FEE7C9"/>
<path d="M17.0427 20.8006C18.1965 19.6468 18.0344 17.6139 16.6806 16.2601C15.3268 14.9063 13.2939 14.7442 12.14 15.898C10.9862 17.0519 11.1483 19.0848 12.5021 20.4386C13.8559 21.7924 15.8888 21.9545 17.0427 20.8006Z" fill="#27D1B3"/>
<path d="M16.374 19.4667L16.2194 19.312C16.3557 19.0646 16.3983 18.7763 16.3392 18.5C16.28 18.2238 16.1232 17.9781 15.8975 17.8082C15.6718 17.6383 15.3924 17.5555 15.1106 17.5751C14.8287 17.5946 14.5634 17.7152 14.3634 17.9147L14.166 18.112C14.1276 18.1518 14.0759 18.176 14.0208 18.1799C13.9656 18.1839 13.911 18.1673 13.8674 18.1334C13.8457 18.1127 13.8284 18.0879 13.8165 18.0604C13.8046 18.0329 13.7983 18.0033 13.798 17.9734C13.7983 17.9112 13.8233 17.8518 13.8674 17.808L13.9634 17.7174L14.4967 17.184C14.5843 17.0952 14.6334 16.9754 14.6334 16.8507C14.6334 16.7259 14.5843 16.6062 14.4967 16.5174C14.4531 16.4733 14.4011 16.4384 14.3439 16.4145C14.2867 16.3907 14.2253 16.3784 14.1634 16.3784C14.1014 16.3784 14.04 16.3907 13.9828 16.4145C13.9256 16.4384 13.8737 16.4733 13.83 16.5174L13.638 16.704L13.5207 16.5814C13.4773 16.5341 13.425 16.4958 13.3667 16.4688C13.3085 16.4417 13.2456 16.4264 13.1814 16.4236C13.1173 16.4209 13.0533 16.4309 12.993 16.4529C12.9327 16.4749 12.8773 16.5086 12.83 16.552C12.7827 16.5954 12.7445 16.6478 12.7174 16.706C12.6904 16.7642 12.675 16.8271 12.6723 16.8913C12.6696 16.9554 12.6795 17.0195 12.7016 17.0798C12.7236 17.14 12.7573 17.1954 12.8007 17.2427L12.9554 17.3974C12.8329 17.6188 12.7863 17.8744 12.8229 18.1248C12.8596 18.3753 12.9773 18.6069 13.158 18.784C13.3787 19.0026 13.6768 19.1252 13.9874 19.1252C14.298 19.1252 14.596 19.0026 14.8167 18.784L15.0194 18.5814C15.04 18.5597 15.0649 18.5424 15.0923 18.5305C15.1198 18.5186 15.1494 18.5123 15.1794 18.512C15.2094 18.512 15.239 18.5181 15.2666 18.53C15.2941 18.542 15.3189 18.5594 15.3394 18.5814C15.3814 18.6251 15.4049 18.6834 15.4049 18.744C15.4049 18.8047 15.3814 18.863 15.3394 18.9067L14.63 19.6107C14.5424 19.6995 14.4933 19.8193 14.4933 19.944C14.4933 20.0688 14.5424 20.1885 14.63 20.2774C14.6738 20.3219 14.7261 20.3571 14.7839 20.381C14.8416 20.4048 14.9036 20.4167 14.966 20.416C15.0278 20.4172 15.0891 20.4055 15.146 20.3817C15.203 20.3578 15.2543 20.3223 15.2967 20.2774L15.5687 20.0107L15.686 20.1334C15.7297 20.1774 15.7816 20.2123 15.8388 20.2362C15.896 20.26 15.9574 20.2723 16.0194 20.2723C16.0813 20.2723 16.1427 20.26 16.1999 20.2362C16.2571 20.2123 16.3091 20.1774 16.3527 20.1334C16.3967 20.0897 16.4317 20.0378 16.4555 19.9806C16.4793 19.9234 16.4916 19.862 16.4916 19.8C16.4916 19.738 16.4793 19.6767 16.4555 19.6195C16.4317 19.5622 16.3967 19.5103 16.3527 19.4667H16.374Z" fill="#138B80"/>
<path d="M21.3771 15.1946C21.9779 15.1946 22.4651 14.7074 22.4651 14.1066C22.4651 13.5057 21.9779 13.0186 21.3771 13.0186C20.7762 13.0186 20.2891 13.5057 20.2891 14.1066C20.2891 14.7074 20.7762 15.1946 21.3771 15.1946Z" fill="#27D1B3"/>
<path d="M7.81456 23.6853C8.41545 23.6853 8.90256 23.1982 8.90256 22.5973C8.90256 21.9964 8.41545 21.5093 7.81456 21.5093C7.21368 21.5093 6.72656 21.9964 6.72656 22.5973C6.72656 23.1982 7.21368 23.6853 7.81456 23.6853Z" fill="#27D1B3"/>
<path d="M26.1325 17.3228L25.0072 19.6695L23.1405 20.3148L18.7992 16.0002L18.4152 14.0215L15.3112 12.5122L12.6445 9.84552L15.6365 6.85352L18.3032 9.52018L19.2792 11.8988L21.7912 13.0082L26.1325 17.3228Z" fill="#F8F3F1"/>
<path d="M26.1315 17.3226L25.3048 19.04L14.3555 8.09062L15.6248 6.82129L18.2915 9.48796L19.2675 11.8666L21.7795 12.976L26.1315 17.3226Z" fill="#E2E2E2"/>
<path d="M15.3086 12.4905L18.3059 9.49854L21.7939 12.9865L18.7966 15.9999L15.3086 12.4905Z" fill="#FB4A59"/>
<path d="M17.0312 10.7679L18.3059 9.49854L21.7939 12.9865L20.5193 14.2559L17.0312 10.7679Z" fill="#F82F40"/>
<path d="M23.1289 20.3148L26.1316 17.3228L28.9316 20.1174L25.9342 23.1148L23.1289 20.3148Z" fill="#CECECE"/>
<path d="M24.8516 18.5921L26.1316 17.3228L28.9316 20.1174L27.6569 21.3921L24.8516 18.5921Z" fill="#BFBFBF"/>
<path d="M23.1151 18.4268C22.9893 18.4258 22.8689 18.3761 22.7791 18.2881L20.9711 16.4801C20.8843 16.3897 20.8359 16.2694 20.8359 16.1441C20.8359 16.0189 20.8843 15.8985 20.9711 15.8081C21.0599 15.7205 21.1796 15.6714 21.3044 15.6714C21.4291 15.6714 21.5489 15.7205 21.6377 15.8081L23.4671 17.6001C23.5315 17.6664 23.5751 17.7501 23.5927 17.8409C23.6102 17.9317 23.6008 18.0256 23.5657 18.1112C23.5306 18.1967 23.4712 18.2701 23.395 18.3224C23.3187 18.3747 23.2288 18.4036 23.1364 18.4055L23.1151 18.4268Z" fill="#FCC16D"/>
<path d="M9.22473 7.16795L8.15806 8.26662V4.13862C8.15808 4.04618 8.12172 3.95745 8.05686 3.89159C7.992 3.82572 7.90383 3.78802 7.8114 3.78662H6.39806C6.30564 3.78802 6.21747 3.82572 6.1526 3.89159C6.08774 3.95745 6.05139 4.04618 6.0514 4.13862V8.26662L4.98473 7.16795C4.95253 7.1357 4.91429 7.11012 4.87219 7.09266C4.8301 7.0752 4.78497 7.06622 4.7394 7.06622C4.69383 7.06622 4.6487 7.0752 4.6066 7.09266C4.56451 7.11012 4.52626 7.1357 4.49406 7.16795L3.49673 8.13862C3.43127 8.20456 3.39453 8.29371 3.39453 8.38662C3.39453 8.47954 3.43127 8.56868 3.49673 8.63462L6.6114 11.8026C6.67598 11.8687 6.75312 11.9213 6.8383 11.9571C6.92348 11.993 7.01497 12.0115 7.1074 12.0115C7.19982 12.0115 7.29131 11.993 7.37649 11.9571C7.46167 11.9213 7.53882 11.8687 7.6034 11.8026L10.7181 8.63462C10.7823 8.56802 10.8181 8.47912 10.8181 8.38662C10.8181 8.29412 10.7823 8.20522 10.7181 8.13862L9.72606 7.16795C9.69387 7.1357 9.65563 7.11012 9.61353 7.09266C9.57143 7.0752 9.52631 7.06622 9.48073 7.06622C9.43516 7.06622 9.39003 7.0752 9.34794 7.09266C9.30584 7.11012 9.2676 7.1357 9.2354 7.16795H9.22473Z" fill="#FB4A59"/>
<path d="M28.1106 4.45893L27.0439 5.5576V1.42426C27.0457 1.37503 27.0369 1.32599 27.0182 1.28041C26.9995 1.23484 26.9713 1.19378 26.9354 1.15997C26.8996 1.12615 26.857 1.10037 26.8104 1.08432C26.7638 1.06828 26.7143 1.06235 26.6653 1.06693H25.2946C25.2027 1.06693 25.1145 1.10345 25.0495 1.16847C24.9845 1.23348 24.9479 1.32165 24.9479 1.4136V5.54693L23.8813 4.44826C23.8153 4.3828 23.7262 4.34606 23.6333 4.34606C23.5404 4.34606 23.4512 4.3828 23.3853 4.44826L22.3986 5.4296C22.3664 5.4618 22.3408 5.50004 22.3233 5.54213C22.3059 5.58423 22.2969 5.62936 22.2969 5.67493C22.2969 5.7205 22.3059 5.76563 22.3233 5.80773C22.3408 5.84982 22.3664 5.88806 22.3986 5.92026L25.4973 9.06693C25.5619 9.13305 25.639 9.18559 25.7242 9.22146C25.8094 9.25733 25.9009 9.27581 25.9933 9.27581C26.0857 9.27581 26.1772 9.25733 26.2624 9.22146C26.3476 9.18559 26.4247 9.13305 26.4893 9.06693L29.5986 5.92026C29.6309 5.88806 29.6565 5.84982 29.6739 5.80773C29.6914 5.76563 29.7004 5.7205 29.7004 5.67493C29.7004 5.62936 29.6914 5.58423 29.6739 5.54213C29.6565 5.50004 29.6309 5.4618 29.5986 5.4296L28.6066 4.4536C28.5407 4.38813 28.4515 4.3514 28.3586 4.3514C28.2657 4.3514 28.1766 4.38813 28.1106 4.4536V4.45893Z" fill="#FB4A59"/>
<path d="M6.55623 14H2.8549C2.522 14.0014 2.20322 14.1346 1.96833 14.3705C1.73344 14.6064 1.60156 14.9258 1.60156 15.2587V18.96C1.60156 19.1253 1.63412 19.289 1.69737 19.4417C1.76063 19.5944 1.85334 19.7331 1.97022 19.85C2.0871 19.9669 2.22585 20.0596 2.37856 20.1229C2.53127 20.1861 2.69494 20.2187 2.86023 20.2187H3.63356L4.2149 20.9387C4.27387 21.0121 4.34857 21.0713 4.43349 21.1121C4.51841 21.1528 4.61139 21.1739 4.70556 21.1739C4.79974 21.1739 4.89271 21.1528 4.97763 21.1121C5.06256 21.0713 5.13726 21.0121 5.19623 20.9387L5.77756 20.2187H6.55623C6.72152 20.2187 6.88519 20.1861 7.0379 20.1229C7.19061 20.0596 7.32936 19.9669 7.44624 19.85C7.56312 19.7331 7.65583 19.5944 7.71909 19.4417C7.78234 19.289 7.8149 19.1253 7.8149 18.96V15.2587C7.8149 14.9248 7.68229 14.6047 7.44624 14.3687C7.2102 14.1326 6.89005 14 6.55623 14Z" fill="#FB4A59"/>
<path d="M7.81355 15.2587V18.96C7.81355 19.1253 7.781 19.289 7.71774 19.4417C7.65449 19.5944 7.56178 19.7331 7.4449 19.85C7.32802 19.9669 7.18927 20.0596 7.03656 20.1229C6.88385 20.1861 6.72018 20.2187 6.55489 20.2187H5.77622L5.19489 20.9387C5.13591 21.0121 5.06121 21.0713 4.97629 21.1121C4.89137 21.1528 4.79839 21.1739 4.70422 21.1739C4.61004 21.1739 4.51707 21.1528 4.43215 21.1121C4.34723 21.0713 4.27253 21.0121 4.21355 20.9387L3.82422 20.4533L4.01622 20.2187H4.80022C5.13404 20.2187 5.45418 20.0861 5.69023 19.85C5.92628 19.614 6.05889 19.2938 6.05889 18.96V15.2587C6.05889 14.9248 5.92628 14.6047 5.69023 14.3687C5.45418 14.1326 5.13404 14 4.80022 14H6.56555C6.89937 14 7.21952 14.1326 7.45556 14.3687C7.69161 14.6047 7.82422 14.9248 7.82422 15.2587H7.81355Z" fill="#F82F40"/>
<path d="M5.37054 17.1092L5.82387 16.6559C5.89896 16.5654 5.93734 16.45 5.93141 16.3325C5.92548 16.2151 5.87568 16.1042 5.79185 16.0217C5.70803 15.9392 5.5963 15.8912 5.47877 15.8872C5.36125 15.8831 5.24649 15.9234 5.15721 15.9999L4.70387 16.4532L4.26654 15.9999C4.17813 15.9115 4.05823 15.8618 3.93321 15.8618C3.80818 15.8618 3.68828 15.9115 3.59987 15.9999C3.51147 16.0883 3.4618 16.2082 3.4618 16.3332C3.4618 16.4582 3.51147 16.5781 3.59987 16.6666L4.05321 17.1199L3.59987 17.5732C3.55585 17.6169 3.52091 17.6688 3.49706 17.726C3.47322 17.7832 3.46094 17.8446 3.46094 17.9066C3.46094 17.9685 3.47322 18.0299 3.49706 18.0871C3.52091 18.1443 3.55585 18.1963 3.59987 18.2399C3.64351 18.2839 3.69543 18.3189 3.75264 18.3427C3.80985 18.3665 3.87122 18.3788 3.93321 18.3788C3.99519 18.3788 4.05656 18.3665 4.11377 18.3427C4.17098 18.3189 4.22291 18.2839 4.26654 18.2399L4.71987 17.7866L5.17321 18.2399C5.21684 18.2839 5.26876 18.3189 5.32598 18.3427C5.38319 18.3665 5.44456 18.3788 5.50654 18.3788C5.56852 18.3788 5.62989 18.3665 5.6871 18.3427C5.74432 18.3189 5.79624 18.2839 5.83987 18.2399C5.8839 18.1963 5.91884 18.1443 5.94268 18.0871C5.96653 18.0299 5.97881 17.9685 5.97881 17.9066C5.97881 17.8446 5.96653 17.7832 5.94268 17.726C5.91884 17.6688 5.8839 17.6169 5.83987 17.5732L5.37054 17.1092Z" fill="#F8F3F1"/>
</svg>
