<svg width="32" height="32" viewBox="0 0 32 32" fill="none" xmlns="http://www.w3.org/2000/svg">
<g clip-path="url(#clip0_14405_61691)">
<path d="M31.6838 18.1972V13.7918C31.6842 13.5811 31.614 13.3763 31.4845 13.2101C31.355 13.0438 31.1736 12.9257 30.9692 12.8745L28.4892 12.2665C28.3898 12.2424 28.2981 12.1935 28.2226 12.1245C28.1471 12.0556 28.0902 11.9686 28.0572 11.8718C27.8872 11.3725 27.6859 10.8845 27.4545 10.4105C27.4045 10.3208 27.3783 10.2198 27.3783 10.1172C27.3783 10.0145 27.4045 9.91352 27.4545 9.82382L28.7985 7.62116C28.9054 7.44027 28.9492 7.22905 28.9231 7.02058C28.8971 6.81211 28.8026 6.61818 28.6545 6.46916L25.5398 3.35449C25.3917 3.20346 25.1974 3.10621 24.9878 3.07819C24.7781 3.05017 24.5651 3.09298 24.3825 3.19982L22.1905 4.52782C22.1013 4.57637 22.0014 4.6018 21.8998 4.6018C21.7983 4.6018 21.6984 4.57637 21.6092 4.52782C21.1334 4.30243 20.6435 4.10825 20.1425 3.94649C20.0427 3.9158 19.9525 3.85993 19.8806 3.78427C19.8087 3.7086 19.7574 3.6157 19.7318 3.51449L19.1292 1.06649C19.0833 0.856596 18.9676 0.668462 18.801 0.532837C18.6344 0.397211 18.4267 0.322116 18.2118 0.319824H13.8118C13.5968 0.321149 13.3886 0.395891 13.2217 0.531676C13.0549 0.667461 12.9395 0.856145 12.8945 1.06649L12.2652 3.51449C12.2392 3.61386 12.1891 3.70527 12.1193 3.78063C12.0496 3.85599 11.9623 3.91296 11.8652 3.94649C11.3649 4.11603 10.8767 4.31916 10.4038 4.55449C10.3137 4.60304 10.2129 4.62845 10.1105 4.62845C10.0081 4.62845 9.90733 4.60304 9.81718 4.55449L7.64118 3.19982C7.46031 3.09097 7.24832 3.04551 7.03872 3.07063C6.82912 3.09574 6.63388 3.18999 6.48384 3.33849L3.37451 6.46916C3.22478 6.6172 3.12917 6.81129 3.10305 7.02023C3.07693 7.22916 3.12183 7.44081 3.23051 7.62116L4.54251 9.81316C4.59521 9.90108 4.62524 10.0007 4.62989 10.1031C4.63455 10.2055 4.61368 10.3075 4.56918 10.3998C4.33603 10.8737 4.13296 11.3618 3.96118 11.8612C3.92907 11.9585 3.87247 12.0459 3.79681 12.115C3.72116 12.1841 3.62899 12.2326 3.52918 12.2558L1.06518 12.8745C0.858777 12.9236 0.674951 13.0409 0.543355 13.2073C0.411759 13.3737 0.340067 13.5797 0.339844 13.7918V18.1972C0.340067 18.4093 0.411759 18.6152 0.543355 18.7817C0.674951 18.9481 0.858777 19.0653 1.06518 19.1145L3.52918 19.7332C3.62857 19.7573 3.72026 19.8061 3.79578 19.8751C3.87129 19.9441 3.92818 20.031 3.96118 20.1278C4.13296 20.6272 4.33603 21.1153 4.56918 21.5892C4.61368 21.6815 4.63455 21.7835 4.62989 21.8859C4.62524 21.9883 4.59521 22.0879 4.54251 22.1758L3.23051 24.3678C3.12183 24.5482 3.07693 24.7598 3.10305 24.9688C3.12917 25.1777 3.22478 25.3718 3.37451 25.5198L6.48384 28.6345C6.63388 28.783 6.82912 28.8772 7.03872 28.9024C7.24832 28.9275 7.46031 28.882 7.64118 28.7732L9.82784 27.4612C9.91577 27.4085 10.0154 27.3784 10.1178 27.3738C10.2202 27.3691 10.3222 27.39 10.4145 27.4345C10.8874 27.6698 11.3756 27.8729 11.8758 28.0425C11.9729 28.076 12.0602 28.133 12.13 28.2084C12.1998 28.2837 12.2499 28.3751 12.2758 28.4745L12.8945 30.9332C12.9447 31.1386 13.0624 31.3212 13.2287 31.4517C13.395 31.5823 13.6004 31.6532 13.8118 31.6532H18.2118C18.4231 31.6523 18.6279 31.581 18.7941 31.4506C18.9602 31.3202 19.0782 31.1381 19.1292 30.9332L19.7318 28.4745C19.756 28.3751 19.8048 28.2834 19.8738 28.2079C19.9428 28.1324 20.0297 28.0755 20.1265 28.0425C20.6281 27.8721 21.1181 27.669 21.5932 27.4345C21.6846 27.39 21.7857 27.3691 21.8872 27.3738C21.9888 27.3784 22.0876 27.4085 22.1745 27.4612L24.3825 28.7998C24.5634 28.9087 24.7754 28.9541 24.985 28.929C25.1946 28.9039 25.3898 28.8097 25.5398 28.6612L28.6492 25.5465C28.8044 25.3963 28.9039 25.1977 28.931 24.9834C28.9582 24.7691 28.9114 24.552 28.7985 24.3678L27.4812 22.1758C27.4312 22.0861 27.405 21.9852 27.405 21.8825C27.405 21.7798 27.4312 21.6789 27.4812 21.5892C27.7126 21.1152 27.9139 20.6271 28.0838 20.1278C28.1168 20.031 28.1737 19.9441 28.2492 19.8751C28.3248 19.8061 28.4165 19.7573 28.5158 19.7332L30.9958 19.1145C31.2003 19.0633 31.3817 18.9452 31.5112 18.7789C31.6407 18.6127 31.7109 18.4079 31.7105 18.1972H31.6838Z" fill="#FFC344"/>
<path d="M25.1905 4.26649C25.6065 4.68407 25.8725 5.22773 25.9468 5.81248C26.0211 6.39724 25.8995 6.99014 25.6011 7.49849L25.2651 8.03183C25.1217 8.26502 25.0371 8.52955 25.0185 8.80268C25 9.0758 25.048 9.34936 25.1585 9.59982C25.2278 9.75982 25.2918 9.91449 25.3558 10.0745C25.4535 10.3284 25.6105 10.5552 25.8137 10.7362C26.0168 10.9171 26.2603 11.0468 26.5238 11.1145L27.1638 11.2745C27.4593 11.3462 27.7394 11.4709 27.9905 11.6425C27.8367 11.2114 27.6586 10.7894 27.4571 10.3785C27.4072 10.2888 27.3809 10.1878 27.3809 10.0852C27.3809 9.98249 27.4072 9.88152 27.4571 9.79182L28.8011 7.62116C28.908 7.44027 28.9518 7.22905 28.9258 7.02058C28.8997 6.81211 28.8052 6.61818 28.6571 6.46916L25.5425 3.35449C25.3944 3.20346 25.2001 3.10621 24.9904 3.07819C24.7807 3.05017 24.5677 3.09298 24.3851 3.19982L24.2305 3.29049L25.1905 4.26649Z" fill="#FEB237"/>
<path d="M30.9722 12.8748L28.6522 12.2988C28.9928 12.7471 29.1798 13.2932 29.1855 13.8562V15.6108C29.1807 16.1982 28.982 16.7676 28.6204 17.2305C28.2587 17.6934 27.7543 18.024 27.1855 18.1708L26.5455 18.3308C26.2792 18.4012 26.0339 18.5349 25.8305 18.7207C25.6271 18.9064 25.4717 19.1386 25.3775 19.3975C25.3135 19.5575 25.2495 19.7122 25.1802 19.8722C25.069 20.1211 25.0197 20.3932 25.0364 20.6653C25.0531 20.9374 25.1354 21.2014 25.2762 21.4348L25.6122 21.9682C25.9106 22.4748 26.0332 23.066 25.9608 23.6495C25.8885 24.2331 25.6253 24.7764 25.2122 25.1948L23.9749 26.4375C23.5577 26.8436 23.0191 27.102 22.4413 27.1732C21.8635 27.2445 21.2782 27.1247 20.7749 26.8322L20.2095 26.4962C19.9761 26.3554 19.7121 26.2731 19.44 26.2564C19.1679 26.2397 18.8958 26.289 18.6469 26.4002L18.1722 26.5975C17.9058 26.687 17.6656 26.841 17.473 27.0457C17.2804 27.2504 17.1414 27.4995 17.0682 27.7708L16.9082 28.4055C16.7613 28.9698 16.4335 29.4704 15.975 29.8307C15.5165 30.1909 14.9526 30.391 14.3695 30.4002H12.7695L12.9082 30.9335C12.9584 31.1389 13.0761 31.3215 13.2424 31.4521C13.4087 31.5826 13.6141 31.6536 13.8255 31.6535H18.2255C18.4349 31.6503 18.6373 31.5779 18.8013 31.4477C18.9653 31.3175 19.0816 31.1367 19.1322 30.9335L19.7349 28.4748C19.759 28.3754 19.8078 28.2837 19.8768 28.2082C19.9458 28.1327 20.0327 28.0758 20.1295 28.0428C20.6312 27.8724 21.1211 27.6693 21.5962 27.4348C21.6876 27.3903 21.7887 27.3694 21.8903 27.3741C21.9918 27.3788 22.0906 27.4088 22.1775 27.4615L24.3855 28.8002C24.5664 28.909 24.7784 28.9545 24.988 28.9294C25.1976 28.9042 25.3928 28.81 25.5429 28.6615L28.6522 25.5468C28.8075 25.3967 28.9069 25.198 28.934 24.9837C28.9612 24.7695 28.9144 24.5523 28.8015 24.3682L27.4842 22.1762C27.4342 22.0865 27.408 21.9855 27.408 21.8828C27.408 21.7802 27.4342 21.6792 27.4842 21.5895C27.7156 21.1155 27.9169 20.6275 28.0869 20.1282C28.1199 20.0314 28.1768 19.9444 28.2523 19.8754C28.3278 19.8065 28.4195 19.7576 28.5189 19.7335L30.9989 19.1148C31.2033 19.0636 31.3847 18.9455 31.5142 18.7793C31.6437 18.613 31.7139 18.4082 31.7135 18.1975V13.7922C31.7139 13.5814 31.6437 13.3766 31.5142 13.2104C31.3847 13.0441 31.2033 12.926 30.9989 12.8748H30.9722Z" fill="#FEB237"/>
<path d="M28.635 18.1334H28.5763C28.5151 18.1249 28.4562 18.1043 28.403 18.0728C28.3499 18.0413 28.3036 17.9994 28.2668 17.9497C28.23 17.9001 28.2036 17.8435 28.1889 17.7835C28.1743 17.7234 28.1719 17.6611 28.1817 17.6C28.3239 16.5238 28.3239 15.4336 28.1817 14.3574C28.1654 14.2364 28.1978 14.114 28.2719 14.017C28.3459 13.92 28.4554 13.8563 28.5763 13.84C28.6973 13.8238 28.8197 13.8562 28.9167 13.9302C29.0138 14.0042 29.0774 14.1138 29.0937 14.2347C29.243 15.3926 29.243 16.5648 29.0937 17.7227C29.0818 17.8359 29.0282 17.9405 28.9435 18.0164C28.8587 18.0923 28.7488 18.134 28.635 18.1334Z" fill="#FEB237"/>
<path d="M29.1625 15.6104C29.1607 16.0052 29.0713 16.3947 28.9006 16.7507C28.73 17.1067 28.4825 17.4204 28.1759 17.6691C28.1736 17.7822 28.2132 17.892 28.287 17.9777C28.3609 18.0633 28.4637 18.1187 28.5759 18.1331H28.6345C28.7459 18.1342 28.8538 18.0948 28.9382 18.0221C29.0226 17.9495 29.0777 17.8487 29.0932 17.7384C29.1676 17.1619 29.205 16.5811 29.2052 15.9998C29.2052 15.6424 29.2052 15.2798 29.1625 14.9331V15.6104Z" fill="#F6AB31"/>
<path d="M23.7489 26.5709C23.6517 26.5728 23.5565 26.5438 23.4768 26.4881C23.3972 26.4323 23.3374 26.3527 23.3059 26.2607C23.2745 26.1688 23.2731 26.0692 23.3019 25.9764C23.3307 25.8835 23.3883 25.8022 23.4663 25.7443C24.3288 25.0847 25.1 24.3135 25.7596 23.4509C25.7934 23.3972 25.8379 23.3511 25.8904 23.3154C25.9429 23.2798 26.0023 23.2555 26.0647 23.2439C26.1271 23.2324 26.1912 23.234 26.253 23.2485C26.3148 23.2631 26.3728 23.2902 26.4236 23.3284C26.4743 23.3665 26.5165 23.4148 26.5477 23.4701C26.5788 23.5254 26.5981 23.5865 26.6044 23.6497C26.6106 23.7128 26.6037 23.7766 26.5841 23.8369C26.5644 23.8973 26.5325 23.9529 26.4903 24.0003C25.7819 24.9273 24.9533 25.7559 24.0263 26.4643C23.9472 26.5265 23.8495 26.5603 23.7489 26.5603V26.5709Z" fill="#FEB237"/>
<path d="M26.4898 23.9998C26.5268 23.9519 26.5539 23.8972 26.5697 23.8388C26.5854 23.7803 26.5894 23.7194 26.5815 23.6594C26.5736 23.5994 26.5538 23.5416 26.5235 23.4893C26.4931 23.4369 26.4527 23.3911 26.4045 23.3545C26.3417 23.3083 26.2684 23.2783 26.1912 23.2671C26.114 23.2559 26.0352 23.264 25.9618 23.2905C25.9672 23.6419 25.9014 23.9908 25.7685 24.3161C25.6356 24.6415 25.4383 24.9366 25.1885 25.1838L23.9512 26.4265L23.8125 26.5545C23.8901 26.5426 23.9634 26.5114 24.0258 26.4638C24.9529 25.7555 25.7815 24.9269 26.4898 23.9998Z" fill="#F6AB31"/>
<path d="M15.9997 29.1891C15.4181 29.1902 14.8372 29.151 14.261 29.0717C14.1485 29.0476 14.0491 28.9821 13.9826 28.8881C13.9162 28.7941 13.8875 28.6785 13.9022 28.5644C13.917 28.4502 13.9742 28.3458 14.0624 28.2718C14.1506 28.1978 14.2634 28.1597 14.3784 28.1651C15.4548 28.3037 16.5446 28.3037 17.621 28.1651C17.6827 28.1521 17.7464 28.152 17.8081 28.1648C17.8699 28.1775 17.9283 28.2029 17.9798 28.2392C18.0313 28.2756 18.0747 28.3222 18.1074 28.376C18.1401 28.4299 18.1613 28.49 18.1698 28.5524C18.1782 28.6149 18.1737 28.6784 18.1565 28.7391C18.1393 28.7997 18.1098 28.8562 18.0698 28.9049C18.0299 28.9536 17.9803 28.9936 17.9242 29.0223C17.868 29.051 17.8066 29.0678 17.7437 29.0717C17.1658 29.1508 16.583 29.19 15.9997 29.1891Z" fill="#FEB237"/>
<path d="M17.6323 28.1651L16.971 28.2344L16.9283 28.4051C16.8613 28.6776 16.7496 28.9371 16.5977 29.1731C16.987 29.1731 17.371 29.1251 17.755 29.0717C17.8179 29.0678 17.8793 29.051 17.9354 29.0223C17.9916 28.9936 18.0412 28.9536 18.0811 28.9049C18.1211 28.8562 18.1506 28.7997 18.1678 28.7391C18.185 28.6784 18.1895 28.6149 18.1811 28.5524C18.1726 28.49 18.1514 28.4299 18.1187 28.376C18.086 28.3222 18.0426 28.2756 17.9911 28.2392C17.9396 28.2029 17.8811 28.1775 17.8194 28.1648C17.7577 28.152 17.694 28.1521 17.6323 28.1651Z" fill="#F6AB31"/>
<path d="M8.27025 26.5704C8.16979 26.5697 8.07235 26.536 7.99292 26.4744C7.06665 25.7611 6.23821 24.9291 5.52892 23.9998C5.48041 23.9028 5.46783 23.7917 5.49342 23.6864C5.51902 23.581 5.58112 23.4881 5.66872 23.4241C5.75631 23.3602 5.86373 23.3294 5.9719 23.3371C6.08007 23.3449 6.182 23.3907 6.25959 23.4664C6.91791 24.3301 7.68925 25.1015 8.55292 25.7598C8.60107 25.7964 8.6415 25.8422 8.67188 25.8945C8.70226 25.9469 8.72198 26.0047 8.72991 26.0647C8.73784 26.1247 8.73383 26.1856 8.7181 26.2441C8.70237 26.3025 8.67523 26.3572 8.63825 26.4051C8.59306 26.4583 8.53658 26.5007 8.47292 26.5293C8.40926 26.5579 8.34003 26.572 8.27025 26.5704Z" fill="#FEB237"/>
<path d="M3.38708 18.1332C3.27667 18.133 3.17004 18.093 3.08676 18.0205C3.00348 17.948 2.94916 17.8478 2.93375 17.7385C2.77729 16.5811 2.77729 15.4079 2.93375 14.2505C2.94149 14.189 2.96164 14.1297 2.99296 14.0761C3.02428 14.0226 3.06614 13.976 3.11599 13.9391C3.16584 13.9022 3.22266 13.8758 3.28301 13.8615C3.34335 13.8472 3.40597 13.8453 3.46708 13.8558C3.52878 13.8636 3.58828 13.8838 3.64205 13.915C3.69581 13.9463 3.74275 13.988 3.78006 14.0378C3.81738 14.0875 3.84431 14.1443 3.85926 14.2046C3.87421 14.265 3.87687 14.3278 3.86708 14.3892C3.72484 15.4654 3.72484 16.5556 3.86708 17.6318C3.87687 17.6933 3.87421 17.756 3.85926 17.8164C3.84431 17.8767 3.81738 17.9335 3.78006 17.9832C3.74275 18.033 3.69581 18.0747 3.64205 18.106C3.58828 18.1373 3.52878 18.1574 3.46708 18.1652L3.38708 18.1332Z" fill="#FEB237"/>
<path d="M5.89701 8.71468C5.79534 8.71663 5.69591 8.68474 5.61434 8.62402C5.52424 8.54981 5.46541 8.44436 5.44959 8.32871C5.43378 8.21306 5.46213 8.09569 5.52901 8.00002C6.23922 7.06656 7.0695 6.23091 7.99834 5.51468C8.04493 5.46698 8.10135 5.43 8.16368 5.40634C8.22601 5.38267 8.29276 5.37287 8.35926 5.37764C8.42577 5.3824 8.49043 5.4016 8.54876 5.43391C8.60708 5.46622 8.65766 5.51086 8.69697 5.56471C8.73628 5.61857 8.76338 5.68035 8.77637 5.74574C8.78936 5.81114 8.78795 5.87858 8.77221 5.94338C8.75647 6.00817 8.7268 6.06875 8.68526 6.1209C8.64372 6.17305 8.59131 6.21552 8.53168 6.24535C7.668 6.90367 6.89666 7.67501 6.23834 8.53868C6.19755 8.59094 6.14591 8.63374 6.08698 8.66413C6.02806 8.69451 5.96324 8.71176 5.89701 8.71468Z" fill="#FEB237"/>
<path d="M17.6973 3.82928H17.6333C16.5569 3.69059 15.4671 3.69059 14.3907 3.82928C14.3287 3.84256 14.2646 3.84285 14.2025 3.83011C14.1403 3.81737 14.0815 3.79189 14.0298 3.75527C13.978 3.71866 13.9344 3.67171 13.9017 3.61738C13.869 3.56306 13.8479 3.50254 13.8397 3.43966C13.8316 3.37677 13.8366 3.31288 13.8544 3.25202C13.8722 3.19116 13.9024 3.13465 13.9432 3.08606C13.9839 3.03747 14.0343 2.99786 14.0911 2.96973C14.1479 2.9416 14.21 2.92556 14.2733 2.92262C15.4291 2.76798 16.6003 2.76798 17.756 2.92262C17.8695 2.93988 17.9723 2.99905 18.0443 3.08845C18.1163 3.17785 18.1521 3.29098 18.1447 3.40551C18.1374 3.52004 18.0873 3.62765 18.0045 3.70709C17.9217 3.78653 17.8121 3.83204 17.6973 3.83462V3.82928Z" fill="#FEB237"/>
<path d="M26.1338 8.71463C26.0638 8.7161 25.9943 8.70091 25.9313 8.67031C25.8682 8.63971 25.8134 8.59458 25.7712 8.53863C25.1116 7.67605 24.3404 6.90487 23.4778 6.2453C23.4297 6.20866 23.3892 6.16286 23.3589 6.11053C23.3285 6.0582 23.3088 6.00038 23.3008 5.94039C23.2929 5.88041 23.2969 5.81945 23.3126 5.76102C23.3284 5.70259 23.3555 5.64786 23.3925 5.59996C23.4286 5.55198 23.474 5.51167 23.5258 5.48136C23.5777 5.45105 23.6351 5.43135 23.6946 5.42341C23.7542 5.41547 23.8147 5.41945 23.8727 5.43511C23.9307 5.45077 23.985 5.4778 24.0325 5.51463C24.959 6.22993 25.7859 7.06576 26.4912 7.99996C26.5281 8.04786 26.5553 8.10259 26.571 8.16102C26.5867 8.21945 26.5907 8.28041 26.5828 8.34039C26.5749 8.40038 26.5552 8.4582 26.5248 8.51053C26.4944 8.56286 26.454 8.60866 26.4058 8.6453C26.3251 8.6973 26.2296 8.72164 26.1338 8.71463Z" fill="#FEB237"/>
<path d="M26.4901 8.00027C26.2661 7.7016 26.0261 7.41893 25.7754 7.1416C25.723 7.27239 25.6606 7.39898 25.5888 7.52027L25.3008 7.99493C25.4608 8.17627 25.6154 8.36827 25.7648 8.56027C25.8395 8.65481 25.9481 8.71658 26.0675 8.73251C26.187 8.74843 26.3079 8.71727 26.4048 8.6456C26.4529 8.60896 26.4934 8.56316 26.5237 8.51083C26.5541 8.4585 26.5738 8.40068 26.5818 8.3407C26.5897 8.28071 26.5857 8.21975 26.57 8.16132C26.5542 8.1029 26.5271 8.04816 26.4901 8.00027Z" fill="#F6AB31"/>
<path d="M21.8661 19.3438H10.1328L12.0101 10.8958C12.0352 10.7855 12.0904 10.6842 12.1694 10.6033C12.2485 10.5223 12.3484 10.4648 12.4581 10.4371L12.7248 10.3678C14.8837 9.82922 17.1419 9.82922 19.3008 10.3678L19.5621 10.4371C19.6724 10.4637 19.773 10.5208 19.8522 10.6019C19.9315 10.6831 19.9862 10.7849 20.0101 10.8958L21.8661 19.3438Z" fill="#E94444"/>
<path d="M20.0101 10.8959C19.9862 10.7851 19.9315 10.6832 19.8522 10.6021C19.773 10.5209 19.6724 10.4638 19.5621 10.4373L19.3008 10.3679C18.7409 10.2285 18.1726 10.1252 17.5995 10.0586L18.6661 14.8586C18.7316 15.1654 18.731 15.4826 18.6646 15.7891C18.5981 16.0957 18.4673 16.3846 18.2807 16.6368C18.0941 16.889 17.856 17.0986 17.5823 17.2517C17.3085 17.4049 17.0053 17.4981 16.6928 17.5253C14.6464 17.6926 12.5898 17.6926 10.5435 17.5253L10.1328 19.3439H21.8661L20.0101 10.8959Z" fill="#D83131"/>
<path d="M23.0823 21.3975L22.5489 21.4668C18.21 22.0055 13.8212 22.0055 9.48228 21.4668L8.94894 21.3975C8.85492 21.388 8.76423 21.3575 8.68362 21.3081C8.60302 21.2588 8.53455 21.1919 8.48332 21.1125C8.43209 21.0331 8.39939 20.9432 8.38767 20.8494C8.37595 20.7556 8.3855 20.6604 8.41561 20.5708L8.90094 19.1148C8.97011 18.9043 9.11114 18.7248 9.29933 18.6078C9.48752 18.4908 9.71087 18.4437 9.93028 18.4748L10.4316 18.5495C14.1302 19.0773 17.885 19.0773 21.5836 18.5495L22.0796 18.4748C22.2997 18.4435 22.5239 18.4903 22.7129 18.6073C22.902 18.7243 23.0441 18.9039 23.1143 19.1148L23.5996 20.5708C23.6297 20.6604 23.6393 20.7556 23.6275 20.8494C23.6158 20.9432 23.5831 21.0331 23.5319 21.1125C23.4807 21.1919 23.4122 21.2588 23.3316 21.3081C23.251 21.3575 23.1603 21.388 23.0663 21.3975H23.0823Z" fill="#B2CAEC"/>
<path d="M23.6035 20.5708L23.1182 19.1148C23.048 18.9039 22.9059 18.7243 22.7168 18.6073C22.5278 18.4903 22.3036 18.4435 22.0835 18.4748L21.5875 18.5495L20.8568 18.6668L20.9102 18.8162C20.9624 18.9674 20.9798 19.1285 20.9613 19.2874C20.9428 19.4463 20.8888 19.599 20.8033 19.7342C20.7177 19.8695 20.6029 19.9837 20.4672 20.0685C20.3315 20.1533 20.1785 20.2065 20.0195 20.2242C16.1921 20.7048 12.3234 20.7621 8.48352 20.3948L8.41952 20.5922C8.38941 20.6817 8.37986 20.777 8.39158 20.8707C8.4033 20.9645 8.43599 21.0544 8.48723 21.1339C8.53846 21.2133 8.60692 21.2801 8.68753 21.3295C8.76814 21.3788 8.85882 21.4093 8.95285 21.4188L9.48618 21.4882C13.8251 22.0268 18.2139 22.0268 22.5528 21.4882L23.0862 21.4188C23.1802 21.4093 23.2709 21.3788 23.3515 21.3295C23.4321 21.2801 23.5006 21.2133 23.5518 21.1339C23.603 21.0544 23.6357 20.9645 23.6475 20.8707C23.6592 20.777 23.6496 20.6817 23.6195 20.5922L23.6035 20.5708Z" fill="#82AEE3"/>
<path d="M16.0016 14.933C15.8795 14.9316 15.7628 14.8821 15.677 14.7953C15.5911 14.7084 15.543 14.5912 15.543 14.469V12.485C15.543 12.3634 15.5913 12.2467 15.6773 12.1607C15.7633 12.0747 15.88 12.0264 16.0016 12.0264C16.1233 12.0264 16.2399 12.0747 16.326 12.1607C16.412 12.2467 16.4603 12.3634 16.4603 12.485V14.4424C16.4647 14.5052 16.4561 14.5683 16.435 14.6277C16.4139 14.6871 16.3809 14.7415 16.3378 14.7876C16.2948 14.8336 16.2427 14.8703 16.1849 14.8953C16.127 14.9204 16.0647 14.9332 16.0016 14.933Z" fill="white"/>
<path d="M23.4677 14.4C23.3567 14.3993 23.2498 14.3585 23.1667 14.285C23.0836 14.2116 23.0299 14.1105 23.0156 14.0005C23.0012 13.8905 23.0273 13.7791 23.0888 13.6868C23.1504 13.5945 23.2433 13.5277 23.3503 13.4986L24.2943 13.2426C24.3549 13.2131 24.4212 13.1973 24.4885 13.1963C24.5558 13.1954 24.6226 13.2092 24.6839 13.2369C24.7453 13.2646 24.7998 13.3055 24.8436 13.3567C24.8874 13.4078 24.9194 13.468 24.9373 13.5329C24.9553 13.5978 24.9587 13.6659 24.9473 13.7322C24.936 13.7986 24.9101 13.8617 24.8717 13.917C24.8332 13.9722 24.783 14.0184 24.7247 14.0521C24.6664 14.0858 24.6014 14.1062 24.5343 14.1119L23.5903 14.3626C23.5513 14.3804 23.51 14.393 23.4677 14.4Z" fill="#FFF3BE"/>
<path d="M22.5232 12.6025C22.4627 12.604 22.4025 12.5929 22.3465 12.5699C22.2905 12.547 22.2399 12.5127 22.1978 12.4691C22.155 12.4265 22.1209 12.3758 22.0977 12.32C22.0745 12.2642 22.0625 12.2043 22.0625 12.1438C22.0625 12.0833 22.0745 12.0235 22.0977 11.9676C22.1209 11.9118 22.155 11.8611 22.1978 11.8185L22.8912 11.1251C22.9334 11.0824 22.9836 11.0485 23.039 11.0253C23.0944 11.0022 23.1538 10.9902 23.2139 10.9902C23.2739 10.9902 23.3333 11.0022 23.3887 11.0253C23.4441 11.0485 23.4943 11.0824 23.5365 11.1251C23.5794 11.1678 23.6135 11.2185 23.6367 11.2743C23.6599 11.3301 23.6719 11.39 23.6719 11.4505C23.6719 11.5109 23.6599 11.5708 23.6367 11.6267C23.6135 11.6825 23.5794 11.7332 23.5365 11.7758L22.8432 12.4691C22.8017 12.512 22.752 12.5459 22.697 12.5689C22.6419 12.5918 22.5828 12.6032 22.5232 12.6025Z" fill="#FFF3BE"/>
<path d="M24.4781 16.6401C24.4392 16.6453 24.3997 16.6453 24.3608 16.6401L23.4114 16.3735C23.2912 16.3416 23.1886 16.2633 23.126 16.1558C23.0635 16.0483 23.0463 15.9204 23.0781 15.8001C23.1099 15.6799 23.1882 15.5772 23.2957 15.5147C23.4033 15.4522 23.5312 15.435 23.6514 15.4668L24.5954 15.7228C24.7025 15.7518 24.7954 15.8187 24.857 15.9109C24.9185 16.0032 24.9445 16.1147 24.9302 16.2247C24.9159 16.3347 24.8622 16.4357 24.7791 16.5092C24.696 16.5826 24.589 16.6235 24.4781 16.6241V16.6401Z" fill="#FFF3BE"/>
<path d="M8.56637 14.4001C8.52743 14.4053 8.48797 14.4053 8.44903 14.4001L7.4997 14.1495C7.38298 14.1159 7.28409 14.0378 7.22426 13.9321C7.16443 13.8264 7.14844 13.7015 7.1797 13.5841C7.21105 13.4725 7.28347 13.377 7.38242 13.3166C7.48136 13.2563 7.59948 13.2356 7.71303 13.2588L8.65703 13.5148C8.75323 13.5496 8.83505 13.6155 8.88946 13.7021C8.94388 13.7888 8.96778 13.8911 8.95736 13.9929C8.94693 14.0946 8.90279 14.19 8.83195 14.2638C8.7611 14.3376 8.66762 14.3856 8.56637 14.4001Z" fill="#FFF3BE"/>
<path d="M9.50519 12.6029C9.44482 12.6035 9.38494 12.592 9.32907 12.5691C9.2732 12.5462 9.22247 12.5124 9.17986 12.4696L8.48652 11.7763C8.40244 11.6888 8.35547 11.5722 8.35547 11.4509C8.35547 11.3296 8.40244 11.213 8.48652 11.1256C8.52915 11.0827 8.57984 11.0487 8.63567 11.0254C8.69151 11.0022 8.75138 10.9902 8.81186 10.9902C8.87233 10.9902 8.93221 11.0022 8.98804 11.0254C9.04387 11.0487 9.09456 11.0827 9.13719 11.1256L9.83052 11.8189C9.91461 11.9064 9.96158 12.0229 9.96158 12.1443C9.96158 12.2656 9.91461 12.3822 9.83052 12.4696C9.78791 12.5124 9.73718 12.5462 9.68131 12.5691C9.62544 12.592 9.56556 12.6035 9.50519 12.6029Z" fill="#FFF3BE"/>
<path d="M7.54188 16.6401C7.43096 16.6395 7.32404 16.5986 7.24091 16.5252C7.15779 16.4517 7.10409 16.3507 7.08978 16.2407C7.07546 16.1307 7.10148 16.0192 7.16304 15.9269C7.22459 15.8347 7.31749 15.7678 7.42455 15.7388L8.37388 15.4668C8.49127 15.4359 8.61614 15.4527 8.72111 15.5137C8.82608 15.5747 8.90259 15.6748 8.93388 15.7921C8.96494 15.9102 8.94821 16.0358 8.88731 16.1416C8.82641 16.2474 8.72625 16.325 8.60855 16.3575L7.66455 16.6081C7.62382 16.6133 7.5826 16.6133 7.54188 16.6081V16.6401Z" fill="#FFF3BE"/>
<path d="M16.0094 16.8744C16.2628 16.8744 16.4681 16.669 16.4681 16.4157C16.4681 16.1624 16.2628 15.957 16.0094 15.957C15.7561 15.957 15.5508 16.1624 15.5508 16.4157C15.5508 16.669 15.7561 16.8744 16.0094 16.8744Z" fill="white"/>
</g>
<defs>
<clipPath id="clip0_14405_61691">
<rect width="32" height="32" fill="white"/>
</clipPath>
</defs>
</svg>
