<svg width="32" height="32" viewBox="0 0 32 32" fill="none" xmlns="http://www.w3.org/2000/svg">
<path d="M16.9339 5.17879H14.9766V2.24012L15.9579 1.25879L16.9339 2.24012V5.17879Z" fill="#60B7FF"/>
<path d="M11.4548 6.63997L10.0681 7.99997L8.21209 6.1653C8.15379 6.10639 8.12109 6.02685 8.12109 5.94397C8.12109 5.86109 8.15379 5.78155 8.21209 5.72264L9.15076 4.79997C9.21058 4.74134 9.291 4.7085 9.37476 4.7085C9.45852 4.7085 9.53894 4.74134 9.59876 4.79997L11.4548 6.63997Z" fill="#EE6161"/>
<path d="M20.457 6.63998L21.865 7.99998L23.721 6.14399C23.7793 6.08507 23.812 6.00553 23.812 5.92265C23.812 5.83977 23.7793 5.76023 23.721 5.70132L22.7557 4.79998C22.6968 4.74169 22.6172 4.70898 22.5344 4.70898C22.4515 4.70898 22.3719 4.74169 22.313 4.79998L20.457 6.63998Z" fill="#60B7FF"/>
<path d="M15.9581 20.8479C20.5561 20.8479 24.2835 17.1206 24.2835 12.5226C24.2835 7.92464 20.5561 4.19727 15.9581 4.19727C11.3602 4.19727 7.63281 7.92464 7.63281 12.5226C7.63281 17.1206 11.3602 20.8479 15.9581 20.8479Z" fill="#8AC9FE"/>
<path d="M15.9578 18.8908C19.4748 18.8908 22.3258 16.0397 22.3258 12.5228C22.3258 9.00584 19.4748 6.15479 15.9578 6.15479C12.4409 6.15479 9.58984 9.00584 9.58984 12.5228C9.58984 16.0397 12.4409 18.8908 15.9578 18.8908Z" fill="#EAF6FF"/>
<path d="M19.9625 7.57324C20.9551 8.79576 21.4596 10.3427 21.3784 11.9154C21.2973 13.4881 20.6363 14.9749 19.5231 16.0888C18.4099 17.2027 16.9235 17.8645 15.3508 17.9466C13.7782 18.0287 12.2309 17.5252 11.0078 16.5332C11.57 17.2256 12.2713 17.7922 13.0664 18.1962C13.8615 18.6003 14.7326 18.8328 15.6233 18.8787C16.5139 18.9247 17.4043 18.7831 18.2368 18.463C19.0692 18.1429 19.8251 17.6516 20.4556 17.0207C21.086 16.3899 21.577 15.6337 21.8965 14.801C22.2161 13.9684 22.3572 13.0779 22.3107 12.1873C22.2642 11.2966 22.0312 10.4257 21.6267 9.63085C21.2221 8.83601 20.6552 8.13501 19.9625 7.57324Z" fill="#D8ECFE"/>
<path d="M17.6014 2.2401H14.3161C14.2321 2.24011 14.1515 2.20713 14.0917 2.14826C14.0318 2.0894 13.9975 2.00937 13.9961 1.92543V0.597428C13.9961 0.555653 14.0044 0.514295 14.0205 0.475766C14.0367 0.437237 14.0603 0.402309 14.0901 0.373018C14.1199 0.343728 14.1552 0.320662 14.194 0.305166C14.2328 0.28967 14.2743 0.282054 14.3161 0.282762H17.6014C17.6429 0.282039 17.6842 0.289685 17.7227 0.305243C17.7612 0.320801 17.7962 0.343952 17.8255 0.373317C17.8549 0.402681 17.8781 0.437658 17.8936 0.476161C17.9092 0.514665 17.9168 0.555907 17.9161 0.597428V1.92543C17.9161 1.96675 17.908 2.00767 17.8921 2.04585C17.8763 2.08402 17.8532 2.11871 17.8239 2.14793C17.7947 2.17715 17.76 2.20033 17.7218 2.21614C17.6837 2.23196 17.6428 2.2401 17.6014 2.2401Z" fill="#C4E2FF"/>
<path d="M18.3106 14.976H29.2919C29.3233 14.9749 29.3542 14.9834 29.3807 15.0003C29.4071 15.0172 29.4278 15.0418 29.4399 15.0707C29.4521 15.0997 29.4552 15.1316 29.4487 15.1623C29.4423 15.193 29.4267 15.2211 29.4039 15.2427L26.7372 17.9094L20.8706 18.8854L15.0039 17.9094L17.6706 15.2427C17.7583 15.1539 17.863 15.0836 17.9785 15.0359C18.0939 14.9883 18.2177 14.9643 18.3426 14.9654L18.3106 14.976Z" fill="#ECA026"/>
<path d="M11.6464 14.9762H2.39838C2.36701 14.9751 2.33605 14.9835 2.30961 15.0004C2.28317 15.0174 2.2625 15.0419 2.25035 15.0708C2.23819 15.0998 2.23513 15.1317 2.24157 15.1625C2.248 15.1932 2.26363 15.2212 2.28638 15.2428L4.95305 17.9095L9.09171 18.8855L14.9584 17.9095L12.2917 15.2428C12.1198 15.0728 11.8881 14.9771 11.6464 14.9762Z" fill="#FEB237"/>
<path d="M26.4174 31.6266H14.9774L13.9961 21.8292L14.9774 17.9146H26.7108V31.3119C26.7123 31.3921 26.6825 31.4698 26.6277 31.5286C26.573 31.5873 26.4976 31.6224 26.4174 31.6266Z" fill="#FEB237"/>
<path d="M24.6146 29.6692H21.9906C21.9491 29.6678 21.9098 29.6504 21.8809 29.6205C21.852 29.5906 21.8359 29.5507 21.8359 29.5092V27.8665C21.8359 27.825 21.852 27.7851 21.8809 27.7553C21.9098 27.7254 21.9491 27.7079 21.9906 27.7065H24.6146C24.657 27.7065 24.6977 27.7234 24.7277 27.7534C24.7577 27.7834 24.7746 27.8241 24.7746 27.8665V29.5092C24.7746 29.5516 24.7577 29.5923 24.7277 29.6223C24.6977 29.6524 24.657 29.6692 24.6146 29.6692Z" fill="#EAF6FF"/>
<path d="M5.27565 31.6266H14.977V17.9146H4.96098V31.3119C4.96026 31.3534 4.96791 31.3946 4.98347 31.4332C4.99902 31.4717 5.02217 31.5066 5.05154 31.536C5.0809 31.5654 5.11588 31.5885 5.15438 31.6041C5.19289 31.6196 5.23413 31.6273 5.27565 31.6266Z" fill="#FFC344"/>
<path d="M7.49476 21.9306L4.8281 24.5973C4.79552 24.6277 4.75264 24.6446 4.7081 24.6446C4.66356 24.6446 4.62068 24.6277 4.5881 24.5973L3.2281 23.1946C3.1633 23.1311 3.07617 23.0955 2.98543 23.0955C2.89469 23.0955 2.80757 23.1311 2.74276 23.1946L1.7241 24.2133C1.66058 24.2781 1.625 24.3652 1.625 24.456C1.625 24.5467 1.66058 24.6338 1.7241 24.6986L4.48676 27.4613C4.55157 27.5248 4.63869 27.5604 4.72943 27.5604C4.82017 27.5604 4.9073 27.5248 4.9721 27.4613L8.99876 23.4346C9.06228 23.3698 9.09786 23.2827 9.09786 23.192C9.09786 23.1012 9.06228 23.0141 8.99876 22.9493L8.00143 21.9306C7.93663 21.8671 7.8495 21.8315 7.75876 21.8315C7.66802 21.8315 7.5809 21.8671 7.5161 21.9306H7.49476Z" fill="#E94444"/>
<path d="M15.4648 0.282715H16.4248V2.24005H15.4648V0.282715Z" fill="#B3DAFE"/>
<path d="M15.9578 9.56786C15.8957 9.56857 15.8341 9.55695 15.7766 9.53368C15.719 9.51041 15.6666 9.47595 15.6225 9.4323C15.5783 9.38865 15.5433 9.33667 15.5194 9.27938C15.4954 9.22208 15.4831 9.16061 15.4831 9.09853V8.1172C15.4761 8.051 15.483 7.98406 15.5036 7.92072C15.5241 7.85739 15.5577 7.79907 15.6022 7.74957C15.6467 7.70007 15.7011 7.66048 15.7619 7.63339C15.8227 7.60629 15.8886 7.59229 15.9551 7.59229C16.0217 7.59229 16.0875 7.60629 16.1483 7.63339C16.2092 7.66048 16.2636 7.70007 16.3081 7.74957C16.3526 7.79907 16.3862 7.85739 16.4067 7.92072C16.4272 7.98406 16.4342 8.051 16.4271 8.1172V9.09853C16.4278 9.16036 16.4162 9.22171 16.3929 9.27898C16.3695 9.33624 16.335 9.38827 16.2913 9.43199C16.2475 9.47572 16.1955 9.51026 16.1383 9.53359C16.081 9.55693 16.0196 9.56858 15.9578 9.56786Z" fill="#554E56"/>
<path d="M15.4685 12.7202L12.5458 9.80287C12.4961 9.76049 12.4556 9.70828 12.4269 9.64952C12.3983 9.59076 12.3821 9.52672 12.3793 9.4614C12.3766 9.39609 12.3874 9.33091 12.411 9.26995C12.4346 9.20899 12.4706 9.15357 12.5166 9.10716C12.5626 9.06075 12.6178 9.02435 12.6785 9.00025C12.7393 8.97614 12.8044 8.96485 12.8697 8.96707C12.9351 8.9693 12.9992 8.985 13.0582 9.01318C13.1172 9.04137 13.1697 9.08143 13.2125 9.13087L16.1352 12.0535C16.1792 12.0972 16.2141 12.1491 16.238 12.2063C16.2618 12.2635 16.2741 12.3249 16.2741 12.3869C16.2741 12.4489 16.2618 12.5102 16.238 12.5674C16.2141 12.6246 16.1792 12.6766 16.1352 12.7202C16.0915 12.7642 16.0396 12.7992 15.9824 12.823C15.9252 12.8469 15.8638 12.8591 15.8018 12.8591C15.7399 12.8591 15.6785 12.8469 15.6213 12.823C15.5641 12.7992 15.5122 12.7642 15.4685 12.7202Z" fill="#E94444"/>
<path d="M20.3642 12.9974H19.3882C19.322 13.0045 19.2551 12.9975 19.1917 12.977C19.1284 12.9565 19.0701 12.9229 19.0206 12.8784C18.9711 12.8339 18.9315 12.7795 18.9044 12.7187C18.8773 12.6578 18.8633 12.592 18.8633 12.5254C18.8633 12.4589 18.8773 12.393 18.9044 12.3322C18.9315 12.2714 18.9711 12.217 19.0206 12.1725C19.0701 12.128 19.1284 12.0944 19.1917 12.0739C19.2551 12.0534 19.322 12.0464 19.3882 12.0534H20.3642C20.4304 12.0464 20.4973 12.0534 20.5607 12.0739C20.624 12.0944 20.6823 12.128 20.7318 12.1725C20.7813 12.217 20.8209 12.2714 20.848 12.3322C20.8751 12.393 20.8891 12.4589 20.8891 12.5254C20.8891 12.592 20.8751 12.6578 20.848 12.7187C20.8209 12.7795 20.7813 12.8339 20.7318 12.8784C20.6823 12.9229 20.624 12.9565 20.5607 12.977C20.4973 12.9975 20.4304 13.0045 20.3642 12.9974Z" fill="#554E56"/>
<path d="M18.0742 10.5069C17.9866 10.418 17.9375 10.2983 17.9375 10.1735C17.9375 10.0488 17.9866 9.92902 18.0742 9.84019L18.7676 9.14686C18.856 9.05845 18.9759 9.00879 19.1009 9.00879C19.2259 9.00879 19.3458 9.05845 19.4342 9.14686C19.5226 9.23527 19.5723 9.35517 19.5723 9.48019C19.5723 9.60522 19.5226 9.72512 19.4342 9.81353L18.7462 10.5069C18.6564 10.5949 18.536 10.6446 18.4102 10.6455C18.3479 10.6456 18.2861 10.6334 18.2284 10.6096C18.1708 10.5858 18.1184 10.5509 18.0742 10.5069Z" fill="#554E56"/>
<path d="M12.5268 12.9974H11.5455C11.429 12.985 11.3212 12.93 11.2428 12.8428C11.1644 12.7557 11.1211 12.6426 11.1211 12.5254C11.1211 12.4083 11.1644 12.2952 11.2428 12.2081C11.3212 12.1209 11.429 12.0659 11.5455 12.0534H12.5268C12.593 12.0464 12.66 12.0534 12.7233 12.0739C12.7867 12.0944 12.845 12.128 12.8945 12.1725C12.944 12.217 12.9836 12.2714 13.0107 12.3322C13.0378 12.393 13.0518 12.4589 13.0518 12.5254C13.0518 12.592 13.0378 12.6578 13.0107 12.7187C12.9836 12.7795 12.944 12.8339 12.8945 12.8784C12.845 12.9229 12.7867 12.9565 12.7233 12.977C12.66 12.9975 12.593 13.0045 12.5268 12.9974Z" fill="#554E56"/>
<path d="M15.9579 13.5042C16.4999 13.5042 16.9392 13.0648 16.9392 12.5228C16.9392 11.9809 16.4999 11.5415 15.9579 11.5415C15.4159 11.5415 14.9766 11.9809 14.9766 12.5228C14.9766 13.0648 15.4159 13.5042 15.9579 13.5042Z" fill="#EE6161"/>
</svg>
