<svg width="114" height="114" viewBox="0 0 114 114" fill="none" xmlns="http://www.w3.org/2000/svg">
<path d="M85.5356 3.5625C93.5691 3.5625 101.353 6.44812 107.427 11.685L109.084 13.0922C109.939 13.8225 110.438 14.9091 110.438 16.0312C110.438 17.1534 109.939 18.24 109.084 18.9703L107.427 20.3775C102.226 24.8484 95.8134 27.5916 89.0625 28.3041V26.1131C93.2128 24.6347 96.1875 20.6803 96.1875 16.0312C96.1875 10.1353 91.3959 5.34375 85.5 5.34375L85.5356 3.5625Z" fill="#CCD1D9"/>
<path d="M81.9375 26.1131V28.3041C79.6575 28.0725 77.4131 27.5916 75.2578 26.8969C71.0006 25.5431 67.0284 23.3344 63.5728 20.3775L61.9162 18.9703C61.0612 18.24 60.5625 17.1534 60.5625 16.0312C60.5625 14.9091 61.0612 13.8225 61.9162 13.0922L63.5728 11.685C66.6187 9.06656 70.0922 7.03594 73.7972 5.66438C77.52 4.275 81.4744 3.5625 85.5 3.5625H85.5356L85.5 5.34375C79.6041 5.34375 74.8125 10.1353 74.8125 16.0312C74.8125 20.6803 77.7872 24.6347 81.9375 26.1131Z" fill="#CCD1D9"/>
<path d="M96.1875 16.0312C96.1875 20.6803 93.2128 24.6347 89.0625 26.1131V19.5938C89.0625 18.6141 88.6706 17.7234 88.0116 17.0822C87.3703 16.4231 86.4797 16.0312 85.5 16.0312C83.5406 16.0312 81.9375 17.6344 81.9375 19.5938V26.1131C77.7872 24.6347 74.8125 20.6803 74.8125 16.0312C74.8125 10.1353 79.6041 5.34375 85.5 5.34375C91.3959 5.34375 96.1875 10.1353 96.1875 16.0312Z" fill="#69D6F4"/>
<path d="M58.5853 47.5059C59.7966 48.4856 60.5625 49.9819 60.5625 51.6562C60.5625 54.6131 58.1756 57 55.2188 57C52.2619 57 49.875 54.6131 49.875 51.6562C49.875 50.3559 50.3381 49.1625 51.1219 48.2362C52.0838 47.0606 53.5622 46.3125 55.2188 46.3125C56.5013 46.3125 57.6591 46.7578 58.5853 47.5059Z" fill="#EF7385"/>
<path d="M33.8438 23.1562C39.7397 23.1562 44.5312 27.9478 44.5312 33.8438C44.5312 36.4444 43.605 38.8313 42.0553 40.6838C40.0959 43.035 37.1391 44.5312 33.8438 44.5312C31.4034 44.5312 29.1591 43.7119 27.36 42.3225C24.8128 40.3809 23.1562 37.2994 23.1562 33.8438C23.1562 27.9478 27.9478 23.1562 33.8438 23.1562Z" fill="#EF7385"/>
<path d="M15.0159 58.4784C16.7259 59.7609 17.8125 61.8094 17.8125 64.125C17.8125 68.0616 14.6241 71.25 10.6875 71.25C6.75094 71.25 3.5625 68.0616 3.5625 64.125C3.5625 60.1884 6.75094 57 10.6875 57C12.3084 57 13.8047 57.5522 15.0159 58.4784Z" fill="#EF7385"/>
<path d="M33.8438 37.4062C35.8113 37.4062 37.4062 35.8113 37.4062 33.8438C37.4062 31.8762 35.8113 30.2812 33.8438 30.2812C31.8762 30.2812 30.2812 31.8762 30.2812 33.8438C30.2812 35.8113 31.8762 37.4062 33.8438 37.4062Z" fill="#ED5565"/>
<path d="M62.0409 74.2069C62.2369 74.5988 62.3438 75.0441 62.3438 75.4894C62.3438 77.0925 61.0613 78.375 59.4581 78.375H58.7812V110.438H51.6562V78.375H50.9794C49.3763 78.375 48.0938 77.0925 48.0938 75.4894C48.0938 75.0441 48.2006 74.5988 48.3966 74.2069L52.6359 65.7103C53.1347 64.7484 54.1322 64.125 55.2188 64.125C56.3053 64.125 57.3028 64.7484 57.8016 65.7103L62.0409 74.2069Z" fill="#EF7385"/>
<path d="M40.6659 61.7381C40.8619 62.13 40.9688 62.5753 40.9688 63.0206C40.9688 64.6238 39.6862 65.9062 38.0831 65.9062H37.4062V110.438H30.2812V65.9062H29.6044C28.0013 65.9062 26.7188 64.6238 26.7188 63.0206C26.7188 62.5753 26.8256 62.13 27.0216 61.7381L31.2609 53.2416C31.7597 52.2797 32.7572 51.6562 33.8438 51.6562C34.9303 51.6562 35.9278 52.2797 36.4266 53.2416L40.6659 61.7381Z" fill="#EF7385"/>
<path d="M17.5097 88.4569C17.7056 88.8488 17.8125 89.2941 17.8125 89.7394C17.8125 91.3425 16.53 92.625 14.9269 92.625H14.25V110.438H7.125V92.625H6.44812C4.845 92.625 3.5625 91.3425 3.5625 89.7394C3.5625 89.2941 3.66938 88.8488 3.86531 88.4569L8.10469 79.9603C8.60344 78.9984 9.60094 78.375 10.6875 78.375C11.7741 78.375 12.7716 78.9984 13.2703 79.9603L17.5097 88.4569Z" fill="#EF7385"/>
<path d="M106.875 80.1562V110.438H78.375V80.1562L81.9375 74.8125H103.312L106.875 80.1562Z" fill="#B4DD7F"/>
<path d="M103.312 39.1875L107.748 40.2919C109.333 40.6838 110.438 42.1087 110.438 43.7475V62.1656C110.438 64.5881 109.618 66.9394 108.104 68.8275L103.312 74.8125H81.9375L77.1459 68.8275C75.6319 66.9394 74.8125 64.5881 74.8125 62.1656V54.1856C74.8125 52.5112 74.4206 50.8903 73.6903 49.3941L71.5528 45.1369C71.3569 44.745 71.25 44.2997 71.25 43.8544C71.25 42.2513 72.5325 40.9688 74.1356 40.9688C76.2909 40.9688 78.2325 41.8416 79.6575 43.2488C81.0647 44.6738 81.9375 46.6153 81.9375 48.7706V28.3041V26.1131V19.5938C81.9375 17.6344 83.5406 16.0312 85.5 16.0312C86.4797 16.0312 87.3703 16.4231 88.0116 17.0822C88.6706 17.7234 89.0625 18.6141 89.0625 19.5938V26.1131V28.3041V35.625L96.1875 37.4062L103.312 39.1875Z" fill="#F0D0B4"/>
<path d="M33.8438 28.5C30.8976 28.5 28.5 30.8976 28.5 33.8438C28.5 36.7899 30.8976 39.1875 33.8438 39.1875C36.7899 39.1875 39.1875 36.7899 39.1875 33.8438C39.1875 30.8976 36.7899 28.5 33.8438 28.5ZM33.8438 35.625C32.8605 35.625 32.0625 34.8252 32.0625 33.8438C32.0625 32.8623 32.8605 32.0625 33.8438 32.0625C34.827 32.0625 35.625 32.8623 35.625 33.8438C35.625 34.8252 34.827 35.625 33.8438 35.625Z" fill="white"/>
</svg>
