<svg width="831" height="688" viewBox="0 0 831 688" fill="none" xmlns="http://www.w3.org/2000/svg">
<g opacity="0.5">
<g opacity="0.7">
<path d="M20.6 573.6C33.3 586.3 50.1 593.3 68.1 593.3C86 593.3 102.9 586.3 115.6 573.6L257.5 431.7L399.4 573.6C412.1 586.3 429 593.3 446.9 593.3C464.8 593.3 481.7 586.3 494.4 573.6C520.6 547.4 520.6 504.8 494.4 478.6L257.5 241.7L20.6 478.6C-5.60005 504.8 -5.60005 547.4 20.6 573.6Z" fill="#0054A6"/>
</g>
<g opacity="0.6">
<path d="M15.4 296C15.4 307.7 20 318.8 28.2 327C36.4 335.2 47.5 339.9 59.2 339.9C70.9 339.9 81.9 335.3 90.2 327L206.3 210.9L322.4 327C339.5 344.1 367.4 344.1 384.5 327C392.8 318.7 397.3 307.7 397.3 296C397.3 284.3 392.7 273.3 384.5 265L206.5 86.7998L28.2 265C20 273.3 15.4 284.3 15.4 296Z" fill="#0054A6"/>
</g>
<path d="M500.4 575C500.4 586.7 505 597.8 513.2 606C521.5 614.3 532.5 618.8 544.2 618.8C555.9 618.8 566.9 614.2 575.2 606L691.3 489.9L807.4 606C824.5 623.1 852.4 623.1 869.5 606C877.8 597.7 882.3 586.7 882.3 575C882.3 563.3 877.7 552.3 869.5 544L691.3 365.8L513.2 544C505 552.3 500.4 563.3 500.4 575Z" fill="#FFD433"/>
<g opacity="0.7">
<path d="M642.8 381.8C633.5 391.1 621.1 396.3 607.9 396.3C594.7 396.3 582.3 391.2 573 381.8L468.8 277.6L364.6 381.8C355.3 391.1 342.9 396.3 329.7 396.3C316.5 396.3 304.1 391.2 294.8 381.8C275.6 362.6 275.6 331.2 294.8 312L468.8 138L642.8 312C662.1 331.3 662.1 362.6 642.8 381.8Z" fill="#0054A6"/>
</g>
<g opacity="0.6">
<path d="M568.3 121.6C568.3 128.4 565.7 134.8 560.9 139.6C556.1 144.4 549.7 147 542.9 147C536.1 147 529.7 144.4 524.9 139.6L457.6 72.2999L390.3 139.6C380.4 149.5 364.3 149.5 354.4 139.6C349.6 134.8 347 128.4 347 121.6C347 114.8 349.6 108.4 354.4 103.6L457.6 0.399902L560.8 103.6C565.6 108.5 568.3 114.9 568.3 121.6Z" fill="#0054A6"/>
</g>
<path d="M408.3 661.7C408.3 668.5 405.7 674.9 400.9 679.7C396.1 684.5 389.7 687.1 382.9 687.1C376.1 687.1 369.7 684.5 364.9 679.7L297.6 612.4L230.3 679.7C220.4 689.6 204.3 689.6 194.3 679.7C189.5 674.9 186.9 668.5 186.9 661.7C186.9 654.9 189.5 648.5 194.3 643.7L297.5 540.5L400.7 643.7C405.6 648.5 408.3 654.9 408.3 661.7Z" fill="#FFD433"/>
<path d="M584.3 269.1C587.7 272.5 592.2 274.2 596.7 274.2C601.2 274.2 605.7 272.5 609.1 269.1L644.4 233.8L679.7 269.1C683.1 272.5 687.6 274.2 692.1 274.2C696.6 274.2 701.1 272.5 704.5 269.1C711.3 262.2 711.3 251.1 704.5 244.2L644.3 184L584.1 244.2C577.4 251 577.4 262.2 584.3 269.1Z" fill="white"/>
</g>
</svg>
