<svg width="1600" height="541" viewBox="0 0 1600 541" fill="none" xmlns="http://www.w3.org/2000/svg">
<mask id="mask0_599_3375" style="mask-type:luminance" maskUnits="userSpaceOnUse" x="0" y="0" width="1600" height="541">
<path d="M1600 0H0V541H1600V0Z" fill="white"/>
</mask>
<g mask="url(#mask0_599_3375)">
<mask id="mask1_599_3375" style="mask-type:alpha" maskUnits="userSpaceOnUse" x="0" y="0" width="1600" height="569">
<path d="M1600 0H0V568.473H1600V0Z" fill="black"/>
</mask>
<g mask="url(#mask1_599_3375)">
<g opacity="0.7">
<path d="M851.476 305.101C851.476 2.90011 606.349 -242.067 304 -242.067" stroke="#D2D9DC" stroke-width="2" stroke-miterlimit="10"/>
<path d="M155.814 -158.614C-40.648 -95.9424 -182.92 87.9659 -182.92 305.101C-182.92 358.294 -174.383 409.488 -158.599 457.394" stroke="#D2D9DC" stroke-width="2" stroke-miterlimit="10"/>
<path opacity="0.5" d="M635.509 639.261C721.547 554.001 774.835 435.773 774.835 305.101C774.835 174.429 722.128 57.5115 636.928 -27.6404" stroke="#D2D9DC" stroke-width="2" stroke-miterlimit="10"/>
<path d="M-127.934 162.436C-142.75 207.312 -150.793 255.261 -150.793 305.101C-150.793 508.438 -17.2085 680.569 167.04 738.662" stroke="#D2D9DC" stroke-width="2" stroke-miterlimit="10"/>
<path d="M494.721 -63.3818C437.627 -92.955 372.771 -109.676 304 -109.676C142.03 -109.676 1.73691 -16.9373 -66.6465 118.313" stroke="#D2D9DC" stroke-width="2" stroke-miterlimit="10"/>
<path d="M128.676 -44.3398C0.747712 19.9002 -87.0325 152.249 -87.0325 305.101C-87.0325 370.115 -71.1623 431.41 -43.0563 485.334" stroke="#D2D9DC" stroke-width="2" stroke-miterlimit="10"/>
<path opacity="0.5" d="M612.392 529.544C658.347 466.572 685.463 389.006 685.463 305.101C685.463 178.942 624.155 67.0971 529.687 -2.30103" stroke="#D2D9DC" stroke-width="2" stroke-miterlimit="10"/>
<path d="M409.736 -12.4884C376.512 -23.5354 340.966 -29.5103 304.021 -29.5103C154.417 -29.5103 27.7138 68.5584 -15.1871 203.894" stroke="#D2D9DC" stroke-width="2" stroke-miterlimit="10"/>
<path d="M120.204 48.4847C40.3155 105.74 -11.7462 199.36 -11.7462 305.101C-11.7462 375.746 11.4784 440.953 50.7021 493.544" stroke="#D2D9DC" stroke-width="2" stroke-miterlimit="10"/>
<path d="M5.30652 305.101C5.30652 469.967 139.041 603.627 304 603.627" stroke="#D2D9DC" stroke-width="2" stroke-miterlimit="10"/>
<path d="M561.965 177.008C514.806 82.3349 417.005 17.2997 304.022 17.2997C256.583 17.2997 211.811 28.7765 172.351 49.0866" stroke="#D2D9DC" stroke-width="2" stroke-miterlimit="10"/>
<path d="M384.576 557.29C491.431 523.225 568.824 423.2 568.824 305.101C568.824 276.302 564.223 248.577 555.707 222.614" stroke="#D2D9DC" stroke-width="2" stroke-miterlimit="10"/>
<path d="M126.547 122.16C78.7648 168.475 49.0675 233.317 49.0675 305.101C49.0675 376.885 79.0873 442.436 127.343 488.794" stroke="#D2D9DC" stroke-width="2" stroke-miterlimit="10"/>
<path d="M304 87.0417C183.512 87.0417 85.8183 184.659 85.8183 305.101" stroke="#D2D9DC" stroke-width="2" stroke-miterlimit="10"/>
<path d="M399.479 496.037C469.475 461.005 517.537 388.662 517.537 305.101C517.537 270.155 509.128 237.186 494.248 208.064" stroke="#D2D9DC" stroke-width="2" stroke-miterlimit="10"/>
<path d="M501.645 340.327C503.667 328.893 504.72 317.115 504.72 305.101C504.72 204.238 430.251 120.784 333.289 106.6" stroke="#D2D9DC" stroke-width="2" stroke-miterlimit="10"/>
<path d="M139.536 182.897C114.118 217.005 99.0651 259.301 99.0651 305.101C99.0651 374.306 133.407 435.472 185.964 472.546" stroke="#D2D9DC" stroke-width="2" stroke-miterlimit="10"/>
<path d="M119.322 362.571C143.815 441.254 217.23 498.358 304 498.358C325.59 498.358 346.342 494.834 365.739 488.3" stroke="#D2D9DC" stroke-width="2" stroke-miterlimit="10"/>
<path d="M440.423 174.601C406.038 138.709 357.632 116.357 304 116.357C250.369 116.357 202.608 138.408 168.287 173.848" stroke="#D2D9DC" stroke-width="2" stroke-miterlimit="10"/>
<path d="M246.455 479.596C264.561 485.549 283.915 488.773 304 488.773C386.253 488.773 455.884 434.784 479.345 360.314" stroke="#D2D9DC" stroke-width="2" stroke-miterlimit="10"/>
<path d="M279.485 130.348C193.598 142.277 127.472 215.973 127.472 305.101C127.472 315.675 128.397 326.056 130.182 336.114" stroke="#D2D9DC" stroke-width="2" stroke-miterlimit="10"/>
<path d="M403.694 445.316C447.519 414.131 476.098 362.958 476.098 305.101C476.098 267.146 463.798 232.071 442.96 203.615" stroke="#D2D9DC" stroke-width="2" stroke-miterlimit="10"/>
<path d="M158.18 226.096C145.406 249.587 138.159 276.495 138.159 305.101C138.159 370.287 175.792 426.661 230.542 453.741" stroke="#D2D9DC" stroke-width="2" stroke-miterlimit="10"/>
<path d="M464.916 305.101C464.916 216.274 392.877 144.275 304 144.275" stroke="#D2D9DC" stroke-width="2" stroke-miterlimit="10"/>
<path d="M162.739 375.208C188.544 427.069 242.111 462.703 304 462.703C330.966 462.703 356.363 455.933 378.577 444.005" stroke="#D2D9DC" stroke-width="2" stroke-miterlimit="10"/>
<path d="M243.315 434.247C261.744 442.909 282.302 447.744 304.022 447.744C365.33 447.744 417.607 409.123 437.821 354.877" stroke="#D2D9DC" stroke-width="2" stroke-miterlimit="10"/>
<path d="M263.357 168.303C204.328 185.798 161.255 240.41 161.255 305.101C161.255 321.908 164.158 338.048 169.513 353.028" stroke="#D2D9DC" stroke-width="2" stroke-miterlimit="10"/>
<path d="M434.229 288.273C425.95 223.753 370.814 173.891 304 173.891C296.732 173.891 289.614 174.472 282.668 175.611" stroke="#D2D9DC" stroke-width="2" stroke-miterlimit="10"/>
<path d="M178.824 295.021C178.566 298.353 178.416 301.705 178.416 305.101C178.416 368.804 225.918 421.438 287.442 429.519" stroke="#D2D9DC" stroke-width="2" stroke-miterlimit="10"/>
<path d="M304 425.307C370.427 425.307 424.273 371.49 424.273 305.101" stroke="#D2D9DC" stroke-width="2" stroke-miterlimit="10"/>
<path d="M254.927 202.282C216.542 220.615 190.028 259.774 190.028 305.101C190.028 325.368 195.318 344.41 204.608 360.894" stroke="#D2D9DC" stroke-width="2" stroke-miterlimit="10"/>
<path d="M405.78 276.258C393.221 231.899 352.406 199.424 304.022 199.424C292.065 199.424 280.561 201.401 269.83 205.077" stroke="#D2D9DC" stroke-width="2" stroke-miterlimit="10"/>
<path d="M229.23 379.829C248.369 398.957 274.797 410.778 304 410.778C333.203 410.778 360.922 398.377 380.168 378.411" stroke="#D2D9DC" stroke-width="2" stroke-miterlimit="10"/>
</g>
<g opacity="0.75">
<g opacity="0.7">
<path d="M1310.99 437.792C1297.2 479.559 1289.71 524.187 1289.71 570.574C1289.71 759.827 1414.04 920.034 1585.53 974.103" stroke="#D2D9DC" stroke-width="2" stroke-miterlimit="10"/>
<path d="M1890.51 227.616C1837.37 200.092 1777.01 184.529 1713 184.529C1562.25 184.529 1431.67 270.844 1368.03 396.725" stroke="#D2D9DC" stroke-width="2" stroke-miterlimit="10"/>
<path d="M1549.82 245.339C1430.75 305.129 1349.05 428.31 1349.05 570.574C1349.05 631.085 1363.82 688.134 1389.98 738.323" stroke="#D2D9DC" stroke-width="2" stroke-miterlimit="10"/>
<path d="M1811.41 274.984C1780.49 264.703 1747.41 259.142 1713.02 259.142C1573.78 259.142 1455.85 350.417 1415.92 476.378" stroke="#D2D9DC" stroke-width="2" stroke-miterlimit="10"/>
<path d="M1541.94 331.734C1467.58 385.023 1419.13 472.158 1419.13 570.574C1419.13 636.326 1440.74 697.016 1477.25 745.964" stroke="#D2D9DC" stroke-width="2" stroke-miterlimit="10"/>
<path d="M1953.1 451.354C1909.2 363.239 1818.18 302.709 1713.02 302.709C1668.87 302.709 1627.2 313.391 1590.47 332.294" stroke="#D2D9DC" stroke-width="2" stroke-miterlimit="10"/>
<path d="M1547.84 400.306C1503.37 443.413 1475.73 503.763 1475.73 570.574C1475.73 637.386 1503.67 698.396 1548.58 741.543" stroke="#D2D9DC" stroke-width="2" stroke-miterlimit="10"/>
<path d="M1713 367.62C1600.86 367.62 1509.93 458.475 1509.93 570.574" stroke="#D2D9DC" stroke-width="2" stroke-miterlimit="10"/>
<path d="M1559.93 456.835C1536.27 488.581 1522.26 527.947 1522.26 570.575C1522.26 634.985 1554.22 691.915 1603.14 726.421" stroke="#D2D9DC" stroke-width="2" stroke-miterlimit="10"/>
<path d="M1839.97 449.114C1807.97 415.708 1762.92 394.905 1713 394.905C1663.08 394.905 1618.63 415.428 1586.69 448.414" stroke="#D2D9DC" stroke-width="2" stroke-miterlimit="10"/>
<path d="M1690.18 407.927C1610.24 419.029 1548.7 487.62 1548.7 570.575C1548.7 580.416 1549.56 590.078 1551.22 599.439" stroke="#D2D9DC" stroke-width="2" stroke-miterlimit="10"/>
<path d="M1577.28 497.042C1565.39 518.906 1558.65 543.95 1558.65 570.574C1558.65 631.245 1593.67 683.714 1644.63 708.918" stroke="#D2D9DC" stroke-width="2" stroke-miterlimit="10"/>
<path d="M1675.17 443.253C1620.23 459.536 1580.14 510.364 1580.14 570.574C1580.14 586.217 1582.84 601.24 1587.83 615.182" stroke="#D2D9DC" stroke-width="2" stroke-miterlimit="10"/>
</g>
</g>
</g>
</g>
</svg>
