<svg width="114" height="114" viewBox="0 0 114 114" fill="none" xmlns="http://www.w3.org/2000/svg">
<path d="M106.3 5.8V28.7H7.7002V6.5C7.7002 2.9 10.6002 0 14.2002 0H99.9002C103.2 0 106 2.5 106.3 5.8Z" fill="#002548"/>
<path d="M99.9002 85.7H14.2002C10.6002 85.7 7.7002 82.8 7.7002 79.2V16H106.4V79.3C106.4 82.8 103.5 85.7 99.9002 85.7Z" fill="#D2D9DC"/>
<path d="M96.7004 11H72.0004C70.6004 11 69.4004 9.80005 69.4004 8.40005C69.4004 7.00005 70.6004 5.80005 72.0004 5.80005H96.6004C98.0004 5.80005 99.2004 7.00005 99.2004 8.40005C99.2004 9.80005 98.1004 11 96.7004 11Z" fill="#F9FAFB"/>
<path d="M27.7004 8.09995C27.7004 9.69995 26.4004 11 24.8004 11C23.2004 11 21.9004 9.69995 21.9004 8.09995C21.9004 6.49995 23.2004 5.19995 24.8004 5.19995C26.4004 5.19995 27.7004 6.49995 27.7004 8.09995Z" fill="#FFDD33"/>
<path d="M19.5002 8.09995C19.5002 9.69995 18.2002 11 16.6002 11C15.0002 11 13.7002 9.69995 13.7002 8.09995C13.7002 6.49995 15.0002 5.19995 16.6002 5.19995C18.2002 5.19995 19.5002 6.49995 19.5002 8.09995Z" fill="#ED1C24"/>
<path d="M35.8 8.09995C35.8 9.69995 34.5 11 32.9 11C31.3 11 30 9.69995 30 8.09995C30 6.49995 31.3 5.19995 32.9 5.19995C34.5 5.19995 35.8 6.49995 35.8 8.09995Z" fill="#54CC5A"/>
<path d="M80.5 50.7C80.5 63.7 70 74.1999 57 74.1999C44 74.1999 33.5 63.7 33.5 50.7C33.5 37.7 44 27.2 57 27.2C70 27.2 80.5 37.7 80.5 50.7Z" fill="#0054A6"/>
<path d="M75.7996 64.9C78.7996 61 80.5996 56.1 80.5996 50.7C80.5996 45.3 78.7996 40.4 75.7996 36.5C71.4996 30.9 64.6996 27.2 57.0996 27.2C49.4996 27.2 42.6996 30.9 38.3996 36.5C35.3996 40.4 33.5996 45.3 33.5996 50.7C33.5996 56 35.3996 60.9 38.3996 64.9C38.3996 64.9 38.3996 64.9 38.3996 65C42.6996 70.5999 49.4996 74.3 57.0996 74.3C64.6996 74.3 71.4996 70.7 75.7996 65V64.9ZM34.8996 51.4H41.2996C41.3996 54.8 41.8996 58.1 42.8996 60.9C41.4996 61.6 40.1996 62.4 38.9996 63.4C36.4996 60 34.9996 55.9 34.8996 51.4ZM38.8996 38C39.9996 38.9 41.2996 39.8 42.7996 40.5C41.7996 43.4 41.2996 46.6 41.1996 50H34.7996C34.9996 45.5 36.4996 41.4 38.8996 38ZM79.0996 50H72.6996C72.5996 46.6 72.0996 43.2999 71.0996 40.5C72.4996 39.8 73.7996 39 74.9996 38C77.4996 41.4 78.9996 45.5 79.0996 50ZM62.2996 50H51.6996C51.6996 47.6 51.7996 45.4 51.9996 43.2999C53.5996 43.5 55.2996 43.7 56.9996 43.7C58.6996 43.7 60.3996 43.5999 61.9996 43.2999C62.1996 45.2999 62.2996 47.6 62.2996 50ZM50.2996 50H42.6996C42.7996 46.7999 43.2996 43.7999 44.0996 41.0999C46.0996 41.9999 48.2996 42.5999 50.5996 43.0999C50.3996 45.2999 50.2996 47.7 50.2996 50ZM50.2996 51.4C50.2996 53.7 50.3996 56.0999 50.6996 58.2999C48.3996 58.6999 46.1996 59.3999 44.1996 60.2999C43.2996 57.5999 42.7996 54.5 42.7996 51.4H50.2996ZM51.6996 51.4H62.2996C62.2996 53.8 62.1996 56.0999 61.9996 58.0999C58.6996 57.5999 55.2996 57.5999 51.9996 58.0999C51.7996 56.0999 51.6996 53.8 51.6996 51.4ZM63.6996 51.4H71.2996C71.1996 54.6 70.6996 57.5999 69.8996 60.2999C67.8996 59.3999 65.6996 58.7999 63.3996 58.2999C63.5996 56.0999 63.6996 53.8 63.6996 51.4ZM63.6996 50C63.6996 47.7 63.5996 45.2999 63.2996 43.0999C65.5996 42.6999 67.7996 41.9999 69.7996 41.0999C70.6996 43.7999 71.1996 46.9 71.1996 50H63.6996ZM63.1996 41.5999C62.5996 36.1999 61.3996 31.4 59.6996 29C63.8996 30.2 67.3996 34.2 69.3996 39.7C67.4996 40.6 65.3996 41.1999 63.1996 41.5999ZM61.7996 41.9C58.6996 42.4 55.2996 42.4 52.0996 41.9C53.0996 33.5 55.1996 28.6 56.8996 28.6C58.6996 28.6 60.8996 33.5 61.7996 41.9ZM50.7996 41.5999C48.5996 41.1999 46.4996 40.5 44.5996 39.7C46.5996 34.2 50.0996 30.3 54.2996 29C52.4996 31.5 51.3996 36.1999 50.7996 41.5999ZM50.7996 59.7999C51.3996 65.2 52.5996 70 54.2996 72.4C50.1996 71.2 46.5996 67.2 44.5996 61.7C46.4996 60.9 48.5996 60.2 50.7996 59.7999ZM52.1996 59.5999C55.2996 59.0999 58.6996 59.0999 61.8996 59.5999C60.8996 67.9999 58.6996 72.8 56.9996 72.8C55.2996 72.8 53.0996 67.8999 52.1996 59.5999ZM63.1996 59.7999C65.3996 60.2 67.4996 60.9 69.3996 61.7C67.3996 67.2 63.8996 71.1 59.6996 72.4C61.4996 69.9 62.5996 65.2 63.1996 59.7999ZM72.6996 51.4H79.0996C78.9996 55.9 77.4996 60 75.0996 63.4C73.9996 62.5 72.6996 61.6 71.1996 60.9C72.0996 58.1 72.6996 54.8 72.6996 51.4ZM74.1996 36.7999C73.1996 37.5999 71.9996 38.3999 70.6996 39.0999C69.1996 35.1999 66.9996 31.8999 64.2996 29.7999C68.1996 31.1999 71.5996 33.6999 74.1996 36.7999ZM49.6996 29.7999C46.9996 31.8999 44.7996 35.0999 43.2996 39.0999C41.9996 38.3999 40.7996 37.6999 39.7996 36.7999C42.3996 33.6999 45.7996 31.1999 49.6996 29.7999ZM39.7996 64.5999C40.7996 63.7999 41.9996 63 43.2996 62.2999C44.7996 66.2 46.9996 69.5 49.6996 71.5999C45.7996 70.1999 42.3996 67.7999 39.7996 64.5999ZM64.2996 71.5999C66.9996 69.5 69.1996 66.2999 70.6996 62.2999C71.9996 63 73.1996 63.6999 74.1996 64.5999C71.5996 67.7999 68.1996 70.1999 64.2996 71.5999Z" fill="#F9FAFB"/>
<path d="M51.3 82.7L43.6 95.5C42.6 97.1 41.2 98.5 39.6 99.4L36.3 101.3C35.3 101.9 34.5 102.6 34 103.6L30.5 109.3L14 99.5L16 96.1L17 94.3C17.8 92.9 18.1 91.3 17.8 89.8L16.7 79.8C16.4 78.4 16.7 76.9 17.4 75.7L22.1 67.9C23 66.5 24.9 66 26.3 66.9L26.7 67.1C28.2 68 28.6 69.9 27.8 71.3L37.8 54.7C38.9 53 41.1 52.4 42.9 53.5C44.6 54.6 45.2 56.8 44.1 58.6L37.4 69.8C38.3 68.4 40.2 67.9 41.6 68.8C43 69.7 43.5 71.6 42.6 73L41.5 74.8C42.4 73.4 44.3 72.9 45.7 73.8C47.1 74.7 47.6 76.6 46.7 78L45.7 79.5C46.6 78.1 48.5 77.6 49.9 78.5L50 78.6C51.7 79.3 52.2 81.2 51.3 82.7Z" fill="#FED2A4"/>
<path d="M32.8999 107L28.9999 113.4C28.6999 113.9 27.9999 114.1 27.4999 113.8L10.9999 104.1C10.4999 103.8 10.2999 103.1 10.5999 102.6L14.3999 96.1999C14.6999 95.6999 15.3999 95.4999 15.8999 95.7999L32.4999 105.6C32.9999 105.8 33.1999 106.5 32.8999 107Z" fill="#002548"/>
</svg>
