<svg width="50" height="50" viewBox="0 0 50 50" fill="none" xmlns="http://www.w3.org/2000/svg">
<g clip-path="url(#clip0_18034_26219)">
<path d="M32.1932 50.0002H6.03623C2.70254 50.0002 0 47.2977 0 43.964V8.04844C0 4.71475 2.70254 2.01221 6.03623 2.01221H32.1932C35.5269 2.01221 38.2294 4.71475 38.2294 8.04844V43.964C38.2294 47.2977 35.5269 50.0002 32.1932 50.0002Z" fill="#D79B8C"/>
<path d="M13.0785 45.976V2.01221H6.03623C2.70254 2.01221 0 4.71465 0 8.04834V43.9639C0 47.2976 2.70254 50.0001 6.03623 50.0001H17.1026C14.8802 50.0001 13.0785 48.1984 13.0785 45.976Z" fill="#C38778"/>
<path d="M32.1936 6.03613H11.0668L9.05469 43.9637C9.05469 45.0749 10.9264 45.9758 13.0788 45.9758H30.0337L34.2056 30.0301V8.04814C34.2057 6.93877 33.303 6.03613 32.1936 6.03613Z" fill="#F5F5FC"/>
<path d="M11.0657 43.9637V6.03613H6.03555C4.92607 6.03613 4.02344 6.93877 4.02344 8.04824V43.9638C4.02344 45.0732 4.92607 45.9759 6.03555 45.9759H13.0778C11.9665 45.9758 11.0657 45.0749 11.0657 43.9637Z" fill="#EBEBF5"/>
<path d="M30.1796 15.3984H8.04688C7.64238 15.3984 7.31445 15.0705 7.31445 14.666C7.31445 14.2615 7.64238 13.9336 8.04688 13.9336H30.1797C30.5842 13.9336 30.9121 14.2615 30.9121 14.666C30.9121 15.0705 30.5841 15.3984 30.1796 15.3984Z" fill="#D1D1E8"/>
<path d="M30.1796 19.4229H8.04688C7.64238 19.4229 7.31445 19.0949 7.31445 18.6904C7.31445 18.2859 7.64238 17.958 8.04688 17.958H30.1797C30.5842 17.958 30.9121 18.2859 30.9121 18.6904C30.9121 19.0949 30.5841 19.4229 30.1796 19.4229Z" fill="#D1D1E8"/>
<path d="M30.1796 23.4468H8.04688C7.64238 23.4468 7.31445 23.1188 7.31445 22.7144C7.31445 22.3099 7.64238 21.9819 8.04688 21.9819H30.1797C30.5842 21.9819 30.9121 22.3099 30.9121 22.7144C30.9121 23.1188 30.5841 23.4468 30.1796 23.4468Z" fill="#D1D1E8"/>
<path d="M30.1796 27.4712H8.04688C7.64238 27.4712 7.31445 27.1433 7.31445 26.7388C7.31445 26.3343 7.64238 26.0063 8.04688 26.0063H30.1797C30.5842 26.0063 30.9121 26.3343 30.9121 26.7388C30.9121 27.1433 30.5841 27.4712 30.1796 27.4712Z" fill="#D1D1E8"/>
<path d="M25.1502 0H19.114C18.0027 0 15.0898 0.900879 15.0898 2.01211V6.03623C15.0898 7.14746 18.0027 8.04834 19.114 8.04834H25.1502C26.2614 8.04834 27.1623 7.14746 27.1623 6.03623V2.01211C27.1623 0.900879 26.2614 0 25.1502 0Z" fill="#F8E878"/>
<path d="M17.1027 6.03623V2.01211C17.1027 0.900879 18.0035 0 19.1147 0H13.0785C11.9673 0 11.0664 0.900879 11.0664 2.01211V6.03623C11.0664 7.14746 11.9673 8.04834 13.0785 8.04834H19.1147C18.0035 8.04824 17.1027 7.14746 17.1027 6.03623Z" fill="#FCDA72"/>
<path d="M49.0547 43.3799C48.7259 42.9924 48.3432 42.6839 47.9285 42.4543C45.2678 40.9809 42.778 39.2178 40.6273 37.0671L39.6467 36.0864L36.0898 39.6433L36.8426 40.396C39.0579 42.6113 40.949 45.1307 42.4372 47.8875C42.6183 48.2228 42.8504 48.538 43.1338 48.8213C44.7729 50.4604 47.4744 50.3899 49.0221 48.6097C50.3135 47.1243 50.3281 44.8806 49.0547 43.3799Z" fill="#555A66"/>
<path d="M30.033 13.9336C28.6462 13.9336 25.5059 15.0618 25.5059 16.4487V43.6117C25.5059 43.6117 28.6462 46.1269 30.033 46.1269C38.9229 46.1269 46.1296 38.9202 46.1296 30.0303C46.1296 21.1403 38.9229 13.9336 30.033 13.9336Z" fill="#707789"/>
<path d="M27.5189 43.6113C27.5189 42.2245 28.6472 41.0962 30.0341 41.0962V18.9634C28.6473 18.9634 27.5189 17.8352 27.5189 16.4482C27.5189 15.0614 28.6472 13.9331 30.0341 13.9331C21.1441 13.9331 13.9375 21.1398 13.9375 30.0297C13.9375 38.9195 21.1441 46.1263 30.0341 46.1263C28.6472 46.1265 27.5189 44.9982 27.5189 43.6113Z" fill="#636978"/>
<path d="M41.1001 30.0301C41.1001 25.7379 38.6431 22.0099 35.0623 20.1753C30.1815 21.6182 27.0156 25.7389 27.0156 30.0301C27.0156 34.3213 30.7287 38.8197 35.0623 39.8849C38.6431 38.0503 41.1001 34.3223 41.1001 30.0301Z" fill="#CFF9FF"/>
<path d="M29.0272 30.0303C29.0272 25.7384 31.4831 22.0094 35.0634 20.1746C33.5533 19.4008 31.8434 18.9639 30.0332 18.9639C23.9312 18.9639 18.9668 23.9282 18.9668 30.0303C18.9668 36.1323 23.9312 41.0967 30.0332 41.0967C31.8434 41.0967 33.5533 40.6598 35.0634 39.8859C31.4831 38.0512 29.0272 34.3222 29.0272 30.0303Z" fill="#B5EFFF"/>
<path d="M34.5607 27.5151H32.5486C30.1813 27.5151 28.0215 28.6412 28.0215 30.0303C28.0215 31.4193 30.0336 32.5454 32.5486 32.5454H34.5607C35.9498 32.5454 37.0759 31.4193 37.0759 30.0304C37.0759 28.6412 35.9498 27.5151 34.5607 27.5151Z" fill="#96E8FF"/>
<path d="M30.0326 30.0302C30.0326 28.6411 31.1587 27.515 32.5478 27.515V25.5029C32.5478 24.1139 31.4217 22.9878 30.0326 22.9878C28.6436 22.9878 27.5175 24.1139 27.5175 25.5029V27.515H25.5054C24.1163 27.515 22.9902 28.6411 22.9902 30.0302C22.9902 31.4192 24.1163 32.5452 25.5054 32.5452H27.5175V34.5573C27.5175 35.9464 28.6436 37.0724 30.0326 37.0724C31.4217 37.0724 32.5478 35.9463 32.5478 34.5573V32.5452C31.1587 32.5453 30.0326 31.4192 30.0326 30.0302Z" fill="#80DBFF"/>
</g>
<defs>
<clipPath id="clip0_18034_26219">
<rect width="50" height="50" fill="white"/>
</clipPath>
</defs>
</svg>
