<svg width="16" height="16" viewBox="0 0 16 16" fill="none" xmlns="http://www.w3.org/2000/svg">
<g clip-path="url(#clip0_1341_791)">
<path d="M11.3333 1.3335H4.66667C3.42943 1.33493 2.24327 1.82705 1.36841 2.70191C0.493553 3.57677 0.00142918 4.76292 0 6.00016V8.00016C0.00104097 8.8839 0.352565 9.73114 0.977461 10.356C1.60236 10.9809 2.4496 11.3325 3.33333 11.3335H4.76133C4.90827 11.9045 5.24048 12.4106 5.70593 12.7725C6.17137 13.1345 6.74373 13.3318 7.33333 13.3335V15.3335C7.33333 15.5103 7.40357 15.6799 7.5286 15.8049C7.65362 15.9299 7.82319 16.0002 8 16.0002C8.17681 16.0002 8.34638 15.9299 8.47141 15.8049C8.59643 15.6799 8.66667 15.5103 8.66667 15.3335V13.3335C9.25627 13.3318 9.82863 13.1345 10.2941 12.7725C10.7595 12.4106 11.0917 11.9045 11.2387 11.3335H12.6667C13.5504 11.3325 14.3976 10.9809 15.0225 10.356C15.6474 9.73114 15.999 8.8839 16 8.00016V6.00016C15.9986 4.76292 15.5064 3.57677 14.6316 2.70191C13.7567 1.82705 12.5706 1.33493 11.3333 1.3335ZM1.33333 8.00016V6.00016C1.33333 5.11611 1.68452 4.26826 2.30964 3.64314C2.93477 3.01802 3.78261 2.66683 4.66667 2.66683C5.55072 2.66683 6.39857 3.01802 7.02369 3.64314C7.64881 4.26826 8 5.11611 8 6.00016V10.0002H3.33333C2.80308 9.99958 2.29471 9.78868 1.91976 9.41373C1.54482 9.03879 1.33392 8.53042 1.33333 8.00016ZM8.66667 12.0002H7.33333C7.10036 11.9994 6.87168 11.9374 6.67021 11.8204C6.46875 11.7034 6.30158 11.5355 6.18547 11.3335H9.81453C9.69842 11.5355 9.53125 11.7034 9.32979 11.8204C9.12833 11.9374 8.89964 11.9994 8.66667 12.0002ZM14.6667 8.00016C14.6661 8.53042 14.4552 9.03879 14.0802 9.41373C13.7053 9.78868 13.1969 9.99958 12.6667 10.0002H9.33333V6.00016C9.33345 5.37875 9.20903 4.76362 8.96742 4.1911C8.72582 3.61859 8.37193 3.10029 7.92667 2.66683H11.3333C12.2171 2.66787 13.0643 3.01939 13.6892 3.64429C14.3141 4.26919 14.6656 5.11643 14.6667 6.00016V8.00016Z" fill="#D2D9DC"/>
<path d="M11.6667 4.6665C11.337 4.6665 11.0148 4.76425 10.7407 4.94739C10.4666 5.13052 10.253 5.39082 10.1269 5.69536C10.0007 5.99991 9.96772 6.33502 10.032 6.65832C10.0963 6.98162 10.2551 7.27859 10.4882 7.51168C10.7212 7.74477 11.0182 7.9035 11.3415 7.96781C11.6648 8.03212 11.9999 7.99912 12.3045 7.87297C12.609 7.74682 12.8693 7.5332 13.0525 7.25912C13.2356 6.98504 13.3333 6.66281 13.3333 6.33317C13.3329 5.89128 13.1571 5.46763 12.8447 5.15517C12.5322 4.8427 12.1086 4.66696 11.6667 4.6665ZM11.6667 6.6665C11.6007 6.6665 11.5363 6.64695 11.4815 6.61033C11.4267 6.5737 11.3839 6.52164 11.3587 6.46073C11.3335 6.39982 11.3269 6.3328 11.3397 6.26814C11.3526 6.20348 11.3843 6.14409 11.431 6.09747C11.4776 6.05085 11.537 6.0191 11.6016 6.00624C11.6663 5.99338 11.7333 5.99998 11.7942 6.02521C11.8551 6.05044 11.9072 6.09316 11.9438 6.14798C11.9805 6.2028 12 6.26724 12 6.33317C11.9999 6.42154 11.9647 6.50627 11.9023 6.56876C11.8398 6.63125 11.755 6.6664 11.6667 6.6665Z" fill="#FFC107"/>
<path d="M7.33333 8.66667C7.33333 8.48986 7.26309 8.32029 7.13807 8.19526C7.01305 8.07024 6.84348 8 6.66667 8H2.66667C2.48986 8 2.32029 8.07024 2.19526 8.19526C2.07024 8.32029 2 8.48986 2 8.66667C2 8.84348 2.07024 9.01305 2.19526 9.13807C2.32029 9.2631 2.48986 9.33333 2.66667 9.33333H6.66667C6.84348 9.33333 7.01305 9.2631 7.13807 9.13807C7.26309 9.01305 7.33333 8.84348 7.33333 8.66667Z" fill="#ED1C24"/>
</g>
<defs>
<clipPath id="clip0_1341_791">
<rect width="16" height="16" fill="white"/>
</clipPath>
</defs>
</svg>
