<svg width="67" height="65" viewBox="0 0 67 65" fill="none" xmlns="http://www.w3.org/2000/svg">
<g clip-path="url(#clip0_5116_22600)">
<path d="M11.8056 0H54.8611C61.3889 0 66.6667 5.27778 66.6667 11.8056V53.1944C66.6667 59.7222 61.3889 65 54.8611 65H11.8056C5.27778 65 0 59.7222 0 53.1944V11.8056C0 5.27778 5.27778 0 11.8056 0Z" fill="#330000"/>
<path d="M32.3058 38.9998H21.9725L19.8614 45.5276C19.8058 45.7776 19.5836 45.9442 19.3336 45.9164H14.1114C13.8058 45.9164 13.7225 45.7498 13.8058 45.4164L22.7503 19.6664C22.8336 19.3887 22.9169 19.0831 23.028 18.7498C23.1392 18.1664 23.1947 17.5553 23.1947 16.9442C23.1669 16.8053 23.278 16.6664 23.4169 16.6387C23.4447 16.6387 23.4725 16.6387 23.5003 16.6387H30.6114C30.8336 16.6387 30.9447 16.722 30.9725 16.8609L41.1114 45.472C41.1947 45.7776 41.1114 45.9164 40.8336 45.9164H35.028C34.8336 45.9442 34.6392 45.8053 34.5836 45.6109L32.3058 38.9998ZM23.5836 33.3609H30.6392C30.4725 32.7776 30.2503 32.0831 30.0003 31.3609C29.7503 30.6109 29.5003 29.8053 29.2503 28.972C28.9725 28.1109 28.7225 27.2776 28.4447 26.4164C28.1669 25.5553 27.9169 24.7498 27.6947 23.9442C27.4725 23.1664 27.278 22.4442 27.0836 21.7776H27.028C26.778 22.972 26.4725 24.1664 26.0836 25.3609C25.6669 26.6942 25.2503 28.0831 24.8058 29.472C24.4169 30.8887 24.0003 32.1942 23.5836 33.3609Z" fill="#FF9A00"/>
<path d="M47.1673 21.3887C46.2506 21.4165 45.3617 21.0554 44.6951 20.4165C44.0562 19.7221 43.7229 18.8054 43.7506 17.8609C43.7229 16.9165 44.084 16.0276 44.7506 15.3887C45.4173 14.7498 46.3062 14.4165 47.2229 14.4165C48.3062 14.4165 49.1395 14.7498 49.7506 15.3887C50.3617 16.0554 50.6951 16.9443 50.6673 17.8609C50.6951 18.8054 50.3617 19.7221 49.6951 20.4165C49.0562 21.0832 48.1117 21.4443 47.1673 21.3887ZM44.0562 45.4998V24.1109C44.0562 23.8332 44.1673 23.7221 44.4173 23.7221H49.9173C50.1673 23.7221 50.2784 23.8609 50.2784 24.1109V45.4998C50.2784 45.8054 50.1673 45.9443 49.9173 45.9443H44.4729C44.1951 45.9443 44.0562 45.7776 44.0562 45.4998Z" fill="#FF9A00"/>
</g>
<defs>
<clipPath id="clip0_5116_22600">
<rect width="66.6667" height="65" fill="white"/>
</clipPath>
</defs>
</svg>
