<svg width="114" height="114" viewBox="0 0 114 114" fill="none" xmlns="http://www.w3.org/2000/svg">
<path d="M110.646 25.0093V98.8773C110.646 102.661 107.584 105.722 103.801 105.722H10.1966C6.41296 105.722 3.35156 102.661 3.35156 98.8773V25.0093H110.646Z" fill="#E9E9FF"/>
<path d="M110.646 25.003V15.1412C110.646 11.358 107.584 8.29616 103.801 8.29616L10.1966 8.27759C6.41296 8.27759 3.35156 11.358 3.35156 15.1217V25.003H110.646Z" fill="#54CC5A"/>
<path d="M27.7233 16.6404C27.7233 18.2894 26.4035 19.6092 24.7545 19.6092C23.1045 19.6092 21.7852 18.2894 21.7852 16.6404C21.7852 14.9904 23.1045 13.6716 24.7545 13.6716C26.4035 13.6716 27.7233 14.9904 27.7233 16.6404Z" fill="#E9E9FF"/>
<path d="M17.2498 16.6404C17.2498 18.2894 15.9098 19.6092 14.281 19.6092C12.6315 19.6092 11.291 18.2894 11.291 16.6404C11.291 14.9904 12.6315 13.6716 14.281 13.6716C15.9098 13.6716 17.2498 14.9904 17.2498 16.6404Z" fill="#E9E9FF"/>
<path d="M38.218 16.6404C38.218 18.2894 36.8781 19.6092 35.2286 19.6092C33.5997 19.6092 32.2598 18.2894 32.2598 16.6404C32.2598 14.9904 33.5997 13.6716 35.2286 13.6716C36.8781 13.6716 38.218 14.9904 38.218 16.6404Z" fill="#E9E9FF"/>
<path d="M63.4326 14.5007C62.2587 14.5007 61.293 15.4512 61.293 16.6404C61.293 17.8288 62.2587 18.78 63.4326 18.78H100.552C101.74 18.78 102.706 17.8288 102.706 16.6404C102.706 15.4512 101.74 14.5007 100.552 14.5007H63.4326Z" fill="#E9E9FF"/>
<path d="M77.1489 71.7178L73.3652 75.501L75.9912 78.1101C76.5787 77.609 77.1489 77.0911 77.7014 76.5377C78.4269 75.8123 79.1009 75.0523 79.7057 74.2577L77.1489 71.7178Z" fill="#342C37"/>
<path d="M77.581 39.1361C67.2325 28.8399 50.5098 28.8745 40.1963 39.2567C29.9001 49.6052 29.9347 66.3452 40.3001 76.6414C50.1125 86.402 65.626 86.8862 75.9914 78.11L73.3654 75.501L77.1491 71.7177L79.7059 74.2576C87.9464 63.8576 87.2205 48.7237 77.581 39.1361ZM73.8729 72.7202C65.6754 80.9733 52.352 81.0103 44.117 72.7943C35.8829 64.5963 35.8458 51.3095 44.0434 43.0564C52.2409 34.8223 65.5272 34.7853 73.7808 42.9823C82.0153 51.1622 82.0519 64.4852 73.8729 72.7202Z" fill="#0054A6"/>
<path d="M84.3354 78.8524L80.5517 82.6365L75.9912 78.1101L73.3652 75.501L77.1489 71.7178L79.7057 74.2577L84.3354 78.8524Z" fill="#0054A6"/>
<path d="M104.533 93.7706L86.9111 76.2446C86.1543 75.492 84.9307 75.4954 84.1782 76.2522L77.4372 83.0314C76.6846 83.7883 76.688 85.0119 77.4448 85.7646L95.0665 103.29C95.8233 104.043 97.0468 104.039 97.7994 103.283L104.541 96.5032C105.293 95.7465 105.29 94.5231 104.533 93.7706Z" fill="#70C1F9"/>
<path d="M30.5503 31.8256V33.5127C30.5503 33.7222 30.3757 33.8967 30.1667 33.8967H9.67845C9.46945 33.8967 9.29492 33.7222 9.29492 33.5127V31.8256C9.29492 31.6162 9.46945 31.4417 9.67845 31.4417H30.1667C30.3757 31.4417 30.5503 31.6162 30.5503 31.8256Z" fill="#70C1F9"/>
<path d="M22.7459 38.0854V39.7725C22.7459 39.9819 22.5713 40.1564 22.3623 40.1564H9.67845C9.46945 40.1564 9.29492 39.9819 9.29492 39.7725V38.0854C9.29492 37.8759 9.46945 37.7014 9.67845 37.7014H22.3623C22.5713 37.7014 22.7459 37.8759 22.7459 38.0854Z" fill="#ED1C24"/>
<path d="M44.8172 65.8427H39.0549C38.1902 65.8427 37.489 65.1417 37.489 64.2768L37.489 62.5917L35.1241 62.5917L33.1406 60.0415L31.3363 62.5917H27.3807L25.4907 60.1012L22.7914 62.5917L20.1519 60.4143L17.4825 62.5917H11.7563L6.98438 57.7897L11.5771 53.1968L37.4889 53.1968L37.4889 51.5115C37.4889 50.6467 38.1901 49.9458 39.0547 49.9458H44.8171L44.8172 65.8427Z" fill="#FDC72E"/>
<path d="M70.2652 69.2323C76.5039 62.8869 76.4173 52.6855 70.0718 46.4468C63.7264 40.2082 53.525 40.2947 47.2863 46.6402C41.0477 52.9856 41.1342 63.1871 47.4797 69.4257C53.8251 75.6644 64.0266 75.5778 70.2652 69.2323Z" fill="#FDC72E"/>
<path d="M69.7184 60.3979C71.0764 59.0167 71.0576 56.7962 69.6763 55.4382C68.2951 54.0802 66.0746 54.0991 64.7166 55.4803C63.3587 56.8615 63.3775 59.082 64.7587 60.44C66.1399 61.798 68.3605 61.7791 69.7184 60.3979Z" fill="#E9E9FF"/>
<path d="M36.1426 53.1963H37.4888V62.5912H36.1426V53.1963Z" fill="#F9AC00"/>
<path d="M12.1699 55.3438H35.1761V56.7335H12.1699V55.3438Z" fill="#F9AC00"/>
<g opacity="0.2">
<path d="M15.2012 8.27759L47.9692 105.722H80.9664L48.178 8.27759H15.2012Z" fill="white"/>
<path d="M66.0354 8.27759H56.6602L89.4454 105.722H98.7987L66.0354 8.27759Z" fill="white"/>
</g>
</svg>
