<svg width="422" height="280" viewBox="0 0 422 280" fill="none" xmlns="http://www.w3.org/2000/svg">
<g clip-path="url(#clip0_18103_18319)">
<path d="M85.5703 225.259V99.6276C85.5703 96.3549 88.2216 93.7036 91.4943 93.7036H306.807C310.08 93.7036 312.731 96.3549 312.731 99.6276V225.259C312.731 228.532 310.08 231.183 306.807 231.183H91.4874C88.2216 231.183 85.5703 228.532 85.5703 225.259Z" fill="#69A2D1"/>
<path d="M308.229 103.88V212.155C308.229 215.421 305.578 218.072 302.312 218.072H95.9747C92.7021 218.072 90.0508 215.421 90.0508 212.155V103.88C90.0508 100.615 92.7021 97.9634 95.9747 97.9634H302.312C305.578 97.9634 308.229 100.615 308.229 103.88Z" fill="#D2D9DC"/>
<path d="M193.797 98.2053V95.8647H204.499V98.6541C204.499 100.926 202.655 102.769 200.384 102.769H198.361C195.841 102.769 193.797 100.725 193.797 98.2053Z" fill="#69A2D1"/>
<path d="M199.149 100.035C199.721 100.035 200.185 99.5712 200.185 98.9992C200.185 98.4272 199.721 97.9636 199.149 97.9636C198.577 97.9636 198.113 98.4272 198.113 98.9992C198.113 99.5712 198.577 100.035 199.149 100.035Z" fill="#3B507A"/>
<path d="M137.93 178.089V117.89C137.93 113.892 141.168 110.654 145.165 110.654H182.477C186.474 110.654 189.712 113.892 189.712 117.89V178.089C189.712 182.086 186.474 185.325 182.477 185.325H145.165C141.168 185.331 137.93 182.086 137.93 178.089Z" fill="#F9FAFB"/>
<path d="M144.812 123.185C144.812 121.735 145.986 120.562 147.436 120.562H180.211C181.661 120.562 182.835 121.735 182.835 123.185C182.835 124.635 181.661 125.809 180.211 125.809H147.436C145.986 125.809 144.812 124.635 144.812 123.185Z" fill="#668AD1"/>
<path d="M144.812 139.272C144.812 137.822 145.986 136.649 147.436 136.649H180.211C181.661 136.649 182.835 137.822 182.835 139.272C182.835 140.722 181.661 141.896 180.211 141.896H147.436C145.986 141.889 144.812 140.715 144.812 139.272Z" fill="#668AD1"/>
<path d="M144.812 155.353C144.812 153.903 145.986 152.729 147.436 152.729H180.211C181.661 152.729 182.835 153.903 182.835 155.353C182.835 156.802 181.661 157.976 180.211 157.976H147.436C145.986 157.976 144.812 156.802 144.812 155.353Z" fill="#668AD1"/>
<path d="M144.812 171.433C144.812 169.983 145.986 168.809 147.436 168.809H180.211C181.661 168.809 182.835 169.983 182.835 171.433C182.835 172.883 181.661 174.057 180.211 174.057H147.436C145.986 174.057 144.812 172.883 144.812 171.433Z" fill="#668AD1"/>
<path d="M208.562 204.429V173.566C208.562 171.792 209.999 170.356 211.773 170.356H273.705C275.48 170.356 276.916 171.792 276.916 173.566V204.429C276.916 206.203 275.48 207.64 273.705 207.64H211.773C210.006 207.64 208.562 206.197 208.562 204.429Z" fill="#0054A6"/>
<path d="M213.742 188.998C213.742 181.368 219.929 175.182 227.558 175.182C235.187 175.182 241.373 181.368 241.373 188.998C241.373 196.627 235.187 202.813 227.558 202.813C219.929 202.813 213.742 196.627 213.742 188.998Z" fill="white"/>
<path d="M272.083 177.654H245.156V179.035H272.083V177.654Z" fill="#EBFFFD"/>
<path d="M272.083 182.977H245.156V184.358H272.083V182.977Z" fill="#EBFFFD"/>
<path d="M272.083 188.307H245.156V189.688H272.083V188.307Z" fill="#EBFFFD"/>
<path d="M272.083 193.631H245.156V195.011H272.083V193.631Z" fill="#EBFFFD"/>
<path d="M272.083 198.954H245.156V200.335H272.083V198.954Z" fill="#EBFFFD"/>
<path d="M203.168 158.812V125.823C203.168 123.109 205.364 120.914 208.077 120.914H278.087C280.801 120.914 282.996 123.109 282.996 125.823V158.812C282.996 161.525 280.801 163.721 278.087 163.721H208.077C205.364 163.721 203.168 161.525 203.168 158.812Z" fill="#0054A6"/>
<path d="M211.68 142.842V129.537C211.68 128.681 212.377 127.984 213.233 127.984H239.815C240.671 127.984 241.368 128.681 241.368 129.537V142.842C241.368 143.698 240.671 144.395 239.815 144.395H213.233C212.377 144.395 211.68 143.698 211.68 142.842Z" fill="white"/>
<path d="M211.68 151.611V151.265C211.68 150.409 212.377 149.712 213.233 149.712H239.815C240.671 149.712 241.368 150.409 241.368 151.265V151.611C241.368 152.467 240.671 153.164 239.815 153.164H213.233C212.377 153.164 211.68 152.467 211.68 151.611Z" fill="white"/>
<path d="M245.152 154.641V141.337C245.152 140.481 245.85 139.783 246.706 139.783H273.288C274.144 139.783 274.841 140.481 274.841 141.337V154.641C274.841 155.498 274.144 156.195 273.288 156.195H246.706C245.85 156.195 245.152 155.504 245.152 154.641Z" fill="white"/>
<path d="M245.152 133.335C245.152 132.479 245.85 131.781 246.706 131.781H273.288C274.144 131.781 274.841 132.479 274.841 133.335C274.841 134.191 274.144 134.888 273.288 134.888H246.706C245.85 134.888 245.152 134.191 245.152 133.335Z" fill="white"/>
<g opacity="0.5686">
<path d="M308.232 186.353V212.155C308.232 215.42 305.581 218.072 302.315 218.072H282.969L308.232 186.353Z" fill="white"/>
<path d="M308.232 119.898V157.431L259.936 218.072H230.047L308.232 119.898Z" fill="white"/>
<path d="M114.513 97.9631L90.0508 128.681V103.88C90.0508 100.614 92.7021 97.9631 95.9747 97.9631H114.513Z" fill="white"/>
<path d="M135.323 97.9631L90.0508 154.807V145.072L127.569 97.9631H135.323Z" fill="white"/>
</g>
<path d="M250.565 222.366H163.57V232.032H250.565V222.366Z" fill="#3B507A"/>
<path d="M270.586 222.366H254.016V232.032H270.586V222.366Z" fill="#3B507A"/>
<path d="M288.785 222.366H272.215V232.032H288.785V222.366Z" fill="#3B507A"/>
<path d="M307.426 222.366H290.855V232.032H307.426V222.366Z" fill="#3B507A"/>
<path d="M161.055 222.366H144.484V232.032H161.055V222.366Z" fill="#3B507A"/>
<path d="M72.1953 225.687C72.1953 224.79 72.9203 224.065 73.8178 224.065H324.467C325.365 224.065 326.09 224.79 326.09 225.687C326.09 233.593 319.682 240 311.777 240H86.5081C78.6026 240 72.1953 233.593 72.1953 225.687Z" fill="#4474AB"/>
<path d="M82.9117 126.145L80.1836 127.632L93.0724 151.276L95.8005 149.788L82.9117 126.145Z" fill="#0054A6"/>
<path d="M97.7003 163.351L88.5582 146.581C88.1644 145.855 88.4283 144.942 89.1544 144.549L92.2799 142.844C93.006 142.45 93.9187 142.714 94.3124 143.44L103.454 160.21C103.848 160.936 103.584 161.849 102.858 162.242L99.7328 163.947C99.002 164.35 98.094 164.077 97.7003 163.351Z" fill="#3B507A"/>
<path d="M82.1268 134.485C89.9912 132.169 94.4891 123.916 92.173 116.051C89.857 108.187 81.6041 103.689 73.7397 106.005C65.8753 108.321 61.3775 116.574 63.6935 124.438C66.0096 132.303 74.2624 136.801 82.1268 134.485Z" fill="#0054A6"/>
<path d="M88.24 114.625C91.3419 120.319 89.2439 127.444 83.552 130.552C83.3537 130.661 83.1468 130.765 82.9446 130.861C79.9052 132.296 76.5356 132.316 73.6032 131.157C71.7393 130.425 70.065 129.212 68.7705 127.578C68.3433 127.056 67.9573 126.479 67.6251 125.864C64.7119 120.518 66.3874 113.914 71.3147 110.555C71.6306 110.333 71.9723 110.124 72.3131 109.937C73.8013 109.125 75.3928 108.663 76.9785 108.549C80.1906 108.287 83.4164 109.367 85.8251 111.558C86.7757 112.415 87.5978 113.447 88.24 114.625Z" fill="#EBFFFD"/>
<path d="M71.3149 110.555L68.7773 127.576C68.35 127.054 67.9641 126.477 67.6319 125.862C64.7121 120.518 66.3875 113.914 71.3149 110.555Z" fill="white"/>
<path d="M85.8319 111.563L82.9429 130.861C79.9034 132.296 76.5339 132.316 73.6015 131.157L76.9854 108.554C80.1955 108.285 83.4213 109.365 85.8319 111.563Z" fill="white"/>
<path d="M344.312 50.1985V99.7857C344.312 102.616 342.012 104.923 339.175 104.923H252.097C249.252 104.923 246.953 102.623 246.953 99.7857V50.1985C246.953 50.1502 246.953 50.0949 246.96 50.0466C247.029 47.2849 249.301 45.0616 252.097 45.0616H339.175C341.957 45.0616 344.229 47.2849 344.305 50.0466C344.312 50.0949 344.312 50.1502 344.312 50.1985Z" fill="#F9FAFB"/>
<path d="M287.635 64.2347L274.047 76.9595L291.888 82.0963C292.378 80.4531 292.633 78.6994 292.633 76.9043C292.633 72.0091 290.742 67.5488 287.635 64.2347Z" fill="#718EC7"/>
<path d="M254.441 72.3542C254.033 73.887 253.812 75.4888 253.812 77.1458C253.812 87.3988 262.125 95.7186 272.385 95.7186C275.271 95.7186 277.992 95.0627 280.436 93.8889L272.378 77.2011L254.441 72.3542Z" fill="#668AD1"/>
<path d="M280.436 93.8961H280.443C285.138 91.6245 288.749 87.4336 290.22 82.345L272.379 77.2082L280.436 93.8961Z" fill="#0054A6"/>
<path d="M285.968 64.4833C282.578 60.8516 277.751 58.5731 272.394 58.5731C263.791 58.5731 256.562 64.4142 254.449 72.3542L272.387 77.208L285.968 64.4833Z" fill="#8CAEDE"/>
<path d="M299.337 61.563C299.939 61.563 300.428 61.0746 300.428 60.4721C300.428 59.8696 299.939 59.3812 299.337 59.3812C298.735 59.3812 298.246 59.8696 298.246 60.4721C298.246 61.0746 298.735 61.563 299.337 61.563Z" fill="#718EC7"/>
<path d="M304.672 60.472H335.3" stroke="#718EC7" stroke-width="0.690437" stroke-miterlimit="10" stroke-linecap="round" stroke-linejoin="round"/>
<path d="M304.672 64.2762H335.3" stroke="#718EC7" stroke-width="0.690437" stroke-miterlimit="10" stroke-linecap="round" stroke-linejoin="round"/>
<path d="M299.337 69.2199C299.939 69.2199 300.428 68.7315 300.428 68.129C300.428 67.5266 299.939 67.0381 299.337 67.0381C298.735 67.0381 298.246 67.5266 298.246 68.129C298.246 68.7315 298.735 69.2199 299.337 69.2199Z" fill="#718EC7"/>
<path d="M304.672 68.129H335.3" stroke="#718EC7" stroke-width="0.690437" stroke-miterlimit="10" stroke-linecap="round" stroke-linejoin="round"/>
<path d="M304.672 71.9405H335.3" stroke="#718EC7" stroke-width="0.690437" stroke-miterlimit="10" stroke-linecap="round" stroke-linejoin="round"/>
<path d="M299.337 76.8837C299.939 76.8837 300.428 76.3953 300.428 75.7929C300.428 75.1904 299.939 74.702 299.337 74.702C298.735 74.702 298.246 75.1904 298.246 75.7929C298.246 76.3953 298.735 76.8837 299.337 76.8837Z" fill="#718EC7"/>
<path d="M304.672 75.7928H335.3" stroke="#718EC7" stroke-width="0.690437" stroke-miterlimit="10" stroke-linecap="round" stroke-linejoin="round"/>
<path d="M304.672 79.597H335.3" stroke="#718EC7" stroke-width="0.690437" stroke-miterlimit="10" stroke-linecap="round" stroke-linejoin="round"/>
<path d="M299.337 84.5475C299.939 84.5475 300.428 84.0591 300.428 83.4566C300.428 82.8541 299.939 82.3657 299.337 82.3657C298.735 82.3657 298.246 82.8541 298.246 83.4566C298.246 84.0591 298.735 84.5475 299.337 84.5475Z" fill="#718EC7"/>
<path d="M304.672 83.4565H335.3" stroke="#718EC7" stroke-width="0.690437" stroke-miterlimit="10" stroke-linecap="round" stroke-linejoin="round"/>
<path d="M304.672 87.2607H335.3" stroke="#718EC7" stroke-width="0.690437" stroke-miterlimit="10" stroke-linecap="round" stroke-linejoin="round"/>
<path d="M299.337 92.2118C299.939 92.2118 300.428 91.7233 300.428 91.1209C300.428 90.5184 299.939 90.03 299.337 90.03C298.735 90.03 298.246 90.5184 298.246 91.1209C298.246 91.7233 298.735 92.2118 299.337 92.2118Z" fill="#718EC7"/>
<path d="M304.672 91.1208H335.3" stroke="#718EC7" stroke-width="0.690437" stroke-miterlimit="10" stroke-linecap="round" stroke-linejoin="round"/>
<path d="M304.672 94.925H335.3" stroke="#718EC7" stroke-width="0.690437" stroke-miterlimit="10" stroke-linecap="round" stroke-linejoin="round"/>
<path d="M344.303 50.0465H246.965C247.034 47.2847 249.305 45.0615 252.102 45.0615H339.18C341.955 45.0615 344.227 47.2847 344.303 50.0465Z" fill="#3B507A"/>
<path d="M324.638 48.997C325.435 48.997 326.081 48.351 326.081 47.554C326.081 46.7571 325.435 46.111 324.638 46.111C323.841 46.111 323.195 46.7571 323.195 47.554C323.195 48.351 323.841 48.997 324.638 48.997Z" fill="white"/>
<path d="M330.299 48.997C331.095 48.997 331.742 48.351 331.742 47.554C331.742 46.7571 331.095 46.111 330.299 46.111C329.502 46.111 328.855 46.7571 328.855 47.554C328.855 48.351 329.502 48.997 330.299 48.997Z" fill="white"/>
<path d="M335.959 48.997C336.756 48.997 337.402 48.351 337.402 47.554C337.402 46.7571 336.756 46.111 335.959 46.111C335.162 46.111 334.516 46.7571 334.516 47.554C334.516 48.351 335.162 48.997 335.959 48.997Z" fill="white"/>
<path d="M195.113 44.2818V95.2706C195.113 98.1843 192.745 100.552 189.832 100.552H100.289C97.3682 100.552 95 98.1843 95 95.2706V44.2818C95 44.2266 95 44.1783 95.0069 44.123C95.0829 41.2853 97.4165 39 100.289 39H189.832C192.697 39 195.031 41.2853 195.106 44.123C195.113 44.1783 195.113 44.2266 195.113 44.2818Z" fill="#F9FAFB"/>
<path d="M195.107 44.123H95.0078C95.0838 41.2853 97.4174 39 100.29 39H189.832C192.698 39 195.031 41.2853 195.107 44.123Z" fill="#3B507A"/>
<path d="M174.891 43.046C175.711 43.046 176.375 42.3814 176.375 41.5616C176.375 40.7418 175.711 40.0771 174.891 40.0771C174.071 40.0771 173.406 40.7418 173.406 41.5616C173.406 42.3814 174.071 43.046 174.891 43.046Z" fill="white"/>
<path d="M180.711 43.046C181.531 43.046 182.195 42.3814 182.195 41.5616C182.195 40.7418 181.531 40.0771 180.711 40.0771C179.891 40.0771 179.227 40.7418 179.227 41.5616C179.227 42.3814 179.891 43.046 180.711 43.046Z" fill="white"/>
<path d="M186.539 43.046C187.359 43.046 188.024 42.3814 188.024 41.5616C188.024 40.7418 187.359 40.0771 186.539 40.0771C185.719 40.0771 185.055 40.7418 185.055 41.5616C185.055 42.3814 185.719 43.046 186.539 43.046Z" fill="white"/>
<path d="M113.651 52.0356H111.055V90.3548H113.651V52.0356Z" fill="#668AD1"/>
<path d="M120.791 58.436H118.195V90.3549H120.791V58.436Z" fill="#8CAEDE"/>
<path d="M127.924 65.8788H125.328V90.3479H127.924V65.8788Z" fill="#668AD1"/>
<path d="M135.065 71.1953H132.469V90.3549H135.065V71.1953Z" fill="#8CAEDE"/>
<path d="M142.202 62.1713H139.605V90.355H142.202V62.1713Z" fill="#668AD1"/>
<path d="M149.33 65.8787H146.734V90.3478H149.33V65.8787Z" fill="#8CAEDE"/>
<path d="M156.471 69.7729H153.875V90.3548H156.471V69.7729Z" fill="#668AD1"/>
<path d="M163.612 76.2768H161.016V90.3479H163.612V76.2768Z" fill="#8CAEDE"/>
<path d="M170.744 69.7729H168.148V90.3548H170.744V69.7729Z" fill="#668AD1"/>
<path d="M177.881 81.455H175.285V90.3547H177.881V81.455Z" fill="#8CAEDE"/>
<path d="M108.161 49.1978H107.422V89.6159H108.161V49.1978Z" fill="#0054A6"/>
<path d="M182.693 89.6084H107.422V90.3472H182.693V89.6084Z" fill="#0054A6"/>
<path d="M61.9141 204.85V176.155C61.9141 172.282 65.0556 169.141 68.9289 169.141H112.205C116.079 169.141 119.22 172.282 119.22 176.155V204.85C119.22 208.723 116.079 211.865 112.205 211.865H68.9289C65.0556 211.858 61.9141 208.723 61.9141 204.85Z" fill="#0054A6"/>
<path d="M106.304 193.161C107.208 187.831 104.509 181.948 100.29 180.077C96.0783 178.206 90.8793 180.588 88.7321 185.366C86.2741 181.569 81.6413 180.126 78.1822 182.211C74.7231 184.296 72.8796 189.654 74.0879 194.093C69.8417 191.055 67.5978 196.385 67.6737 197.801C67.7911 199.893 69.241 201.495 70.9671 201.501C78.6793 201.515 101.257 201.55 110.288 201.557C112.953 201.557 114.416 197.773 112.697 195.308C112.538 195.073 112.359 194.859 112.172 194.659C110.626 192.981 108.271 192.484 106.304 193.161Z" fill="white"/>
<path d="M331.148 124.683C331.093 123.413 330.858 122.17 330.471 120.989C329.684 118.559 328.276 116.377 326.384 114.679C325.466 113.836 324.43 113.118 323.298 112.538C322.193 111.972 320.998 111.537 319.728 111.268C318.458 110.999 317.187 110.895 315.951 110.964C314.681 111.026 313.438 111.261 312.258 111.648C309.834 112.428 307.652 113.836 305.947 115.721C305.111 116.64 304.387 117.675 303.813 118.814C303.24 119.919 302.805 121.114 302.536 122.391C302.26 123.668 302.163 124.932 302.232 126.168C302.295 127.438 302.522 128.681 302.916 129.861C303.689 132.285 305.098 134.46 306.989 136.172C307.915 137.007 308.95 137.732 310.083 138.312C311.187 138.878 312.389 139.313 313.652 139.583C314.93 139.859 316.193 139.956 317.429 139.887C318.699 139.824 319.942 139.59 321.13 139.21C323.553 138.43 325.742 137.014 327.44 135.123C328.283 134.204 329.001 133.169 329.581 132.036C330.147 130.932 330.582 129.737 330.851 128.467C331.127 127.196 331.224 125.926 331.148 124.683ZM315.454 131.222C315.261 131.18 315.075 131.132 314.895 131.07C313.749 130.711 312.775 130.006 312.064 129.116C311.823 128.812 311.615 128.494 311.436 128.149C310.904 127.141 310.67 125.967 310.815 124.759C310.828 124.573 310.863 124.379 310.904 124.193C310.946 124 310.994 123.813 311.056 123.634C311.415 122.481 312.119 121.507 313.017 120.796C313.314 120.554 313.638 120.347 313.977 120.175C314.992 119.643 316.165 119.415 317.367 119.553C317.56 119.567 317.747 119.601 317.933 119.643C318.119 119.684 318.313 119.733 318.485 119.795C319.645 120.161 320.619 120.851 321.323 121.749C321.565 122.046 321.772 122.37 321.944 122.708C322.476 123.723 322.711 124.897 322.573 126.099C322.559 126.292 322.524 126.478 322.483 126.672C322.441 126.858 322.393 127.051 322.331 127.224C321.965 128.384 321.275 129.357 320.377 130.062C320.073 130.303 319.756 130.51 319.41 130.69C318.402 131.215 317.229 131.456 316.027 131.311C315.834 131.297 315.648 131.263 315.454 131.222Z" fill="#0054A6"/>
<path d="M324.721 105.952L321.331 121.749C320.626 120.851 319.653 120.154 318.493 119.795C318.32 119.733 318.127 119.684 317.941 119.643C317.754 119.602 317.568 119.567 317.374 119.553C316.173 119.408 314.999 119.643 313.984 120.175L317.374 104.377L324.721 105.952Z" fill="#0054A6"/>
<path d="M319.412 130.69L316.022 146.487L308.676 144.913L312.066 129.116C312.777 130.006 313.75 130.711 314.897 131.07C315.076 131.139 315.263 131.18 315.456 131.222C315.649 131.263 315.836 131.298 316.029 131.311C317.23 131.456 318.404 131.215 319.412 130.69Z" fill="#0054A6"/>
<path d="M310.816 124.752C310.671 125.96 310.906 127.134 311.438 128.142L295.641 124.752L297.222 117.399L313.026 120.789C312.128 121.5 311.424 122.474 311.065 123.627C310.996 123.806 310.955 123.993 310.913 124.186C310.865 124.372 310.83 124.566 310.816 124.752Z" fill="#0054A6"/>
<path d="M337.753 126.099L336.172 133.452L320.375 130.062C321.273 129.357 321.97 128.384 322.329 127.224C322.391 127.051 322.439 126.858 322.481 126.672C322.522 126.478 322.557 126.292 322.571 126.099C322.716 124.897 322.474 123.723 321.942 122.708L337.753 126.099Z" fill="#0054A6"/>
<path d="M317.375 119.553C316.174 119.408 315 119.643 313.985 120.174C313.647 120.347 313.315 120.554 313.025 120.796C312.128 121.507 311.424 122.481 311.065 123.634L308.62 119.85L305.955 115.728L302.289 110.06L308.6 105.972L312.266 111.648L314.931 115.769L317.375 119.553Z" fill="#0054A6"/>
<path d="M331.109 140.798L324.799 144.885L318.468 135.095L316.023 131.318C317.225 131.463 318.399 131.222 319.407 130.697C319.752 130.524 320.076 130.317 320.373 130.069C321.271 129.364 321.968 128.391 322.327 127.231L324.771 131.015L331.109 140.798Z" fill="#0054A6"/>
<path d="M314.898 131.07L311.121 133.514L306.992 136.179L301.324 139.845L297.25 133.535L302.918 129.868L307.04 127.203L310.824 124.759C310.679 125.967 310.914 127.141 311.445 128.149C311.618 128.494 311.825 128.819 312.074 129.116C312.771 130.006 313.745 130.711 314.898 131.07Z" fill="#0054A6"/>
<path d="M336.139 117.33L322.572 126.099C322.717 124.897 322.475 123.724 321.943 122.709C321.771 122.37 321.564 122.046 321.322 121.749C320.618 120.851 319.644 120.154 318.484 119.795L322.268 117.351L326.39 114.686L332.065 111.02L336.139 117.33Z" fill="#0054A6"/>
<path d="M326.444 221.98C336.979 219.52 342.93 206.439 339.736 192.763C336.543 179.087 325.414 169.995 314.879 172.455C304.345 174.915 298.394 187.996 301.587 201.672C304.781 215.348 315.91 224.44 326.444 221.98Z" fill="#0054A6"/>
<path d="M329.382 221.295C339.916 218.835 345.867 205.754 342.674 192.078C339.48 178.402 328.351 169.31 317.817 171.77C307.282 174.23 301.331 187.311 304.525 200.987C307.718 214.663 318.847 223.755 329.382 221.295Z" fill="white"/>
<path d="M328.455 217.337C337.308 215.269 342.309 204.28 339.626 192.791C336.943 181.302 327.592 173.664 318.74 175.732C309.887 177.799 304.886 188.788 307.569 200.277C310.252 211.766 319.603 219.404 328.455 217.337Z" fill="#E30E08"/>
<path d="M327.226 212.064C333.832 210.522 337.564 202.317 335.561 193.74C333.558 185.162 326.579 179.459 319.973 181.002C313.367 182.544 309.636 190.748 311.639 199.326C313.642 207.904 320.621 213.607 327.226 212.064Z" fill="white"/>
<path d="M326.197 207.668C330.935 206.562 333.612 200.68 332.176 194.531C330.74 188.381 325.735 184.294 320.997 185.4C316.259 186.506 313.582 192.388 315.018 198.537C316.454 204.687 321.459 208.775 326.197 207.668Z" fill="#E30E08"/>
<path d="M322.369 191.263C324.611 190.739 326.981 192.675 327.661 195.586C328.341 198.497 327.074 201.281 324.831 201.805C322.589 202.329 320.219 200.393 319.539 197.482C318.859 194.571 320.126 191.787 322.369 191.263Z" fill="white"/>
<path d="M363.163 180.118L357.494 184.109C355.244 185.697 352.116 185.856 348.767 184.551L345.453 183.26L354.636 176.791L363.163 180.118Z" fill="#0054A6"/>
<path d="M353.822 166.855L348.154 170.846C345.903 172.434 344.702 175.327 344.798 178.917L344.902 182.473L354.085 176.003L353.822 166.855Z" fill="#0054A6"/>
<path d="M354.162 175.689L323.875 197.025L324.551 197.985L354.838 176.649L354.162 175.689Z" fill="#0054A6"/>
</g>
<defs>
<clipPath id="clip0_18103_18319">
<rect width="421" height="280" fill="white" transform="translate(0.5)"/>
</clipPath>
</defs>
</svg>
