<svg width="50" height="50" viewBox="0 0 50 50" fill="none" xmlns="http://www.w3.org/2000/svg">
<g clip-path="url(#clip0_14677_5815)">
<path opacity="0.996" fill-rule="evenodd" clip-rule="evenodd" d="M19.1893 -0.0488281C23.0304 -0.0488281 26.8717 -0.0488281 30.7128 -0.0488281C34.5947 0.690499 37.3454 2.87148 38.9647 6.49414C39.3982 7.72799 39.6424 8.99752 39.6971 10.3027C39.567 13.1999 39.567 16.097 39.6971 18.9941C40.0277 21.3073 39.3441 23.2441 37.6464 24.8047C36.224 25.7371 34.6615 26.0789 32.9589 25.8301C27.6203 25.8301 22.2818 25.8301 16.9432 25.8301C14.0769 26.2768 11.9773 25.2351 10.6444 22.7051C10.2733 21.4973 10.1268 20.2604 10.205 18.9941C10.3351 16.097 10.3351 13.1999 10.205 10.3027C10.4628 5.56902 12.7739 2.29754 17.1385 0.488281C17.8235 0.264156 18.5071 0.0851198 19.1893 -0.0488281Z" fill="#3B96D2"/>
<path fill-rule="evenodd" clip-rule="evenodd" d="M18.5059 6.88477C22.7378 6.86849 26.9696 6.88477 31.2012 6.9336C34.463 7.65636 36.3999 9.65831 37.0117 12.9395C37.2445 14.8563 37.0166 16.7118 36.3281 18.5059C35.0697 20.8049 33.1328 22.0906 30.5176 22.3633C26.709 22.4284 22.9004 22.4284 19.0918 22.3633C15.5938 21.7298 13.5267 19.6627 12.8906 16.1621C12.8255 15.0879 12.8255 14.0137 12.8906 12.9395C13.4999 9.74257 15.3716 7.72434 18.5059 6.88477Z" fill="#E8EDEF"/>
<path fill-rule="evenodd" clip-rule="evenodd" d="M19.0918 8.54492C22.9656 8.52864 26.8394 8.54492 30.7129 8.59375C32.9799 8.97263 34.4611 10.2584 35.1563 12.4512C35.3087 13.6509 35.3412 14.8553 35.2539 16.0645C34.7937 18.5755 33.3125 20.0892 30.8106 20.6055C26.8718 20.6706 22.9329 20.6706 18.9942 20.6055C16.5474 20.0468 15.0989 18.5331 14.6485 16.0645C14.5833 15.0228 14.5833 13.9812 14.6485 12.9395C15.2142 10.5345 16.6953 9.06962 19.0918 8.54492Z" fill="#65DBB7"/>
<path opacity="0.986" fill-rule="evenodd" clip-rule="evenodd" d="M10.2051 10.3027C10.3353 13.1999 10.3353 16.097 10.2051 18.9941C7.58815 18.6884 6.15587 17.2235 5.9082 14.5996C6.14475 11.9542 7.57704 10.5219 10.2051 10.3027Z" fill="#2980B9"/>
<path opacity="0.986" fill-rule="evenodd" clip-rule="evenodd" d="M39.6972 10.3027C42.3253 10.5219 43.7576 11.9542 43.9941 14.5996C43.7457 17.2243 42.3135 18.6892 39.6972 18.9941C39.5671 16.097 39.5671 13.1999 39.6972 10.3027Z" fill="#2980B9"/>
<path fill-rule="evenodd" clip-rule="evenodd" d="M18.8967 12.0606C20.8362 11.8013 22.2197 12.5499 23.047 14.3066C23.2374 14.8626 23.2374 15.416 23.047 15.9668C22.4793 16.5239 21.991 16.4588 21.5822 15.7715C21.4553 14.2036 20.6253 13.5689 19.092 13.8672C18.3009 14.293 17.9266 14.9604 17.9689 15.8691C17.3985 16.5424 16.8776 16.5099 16.4064 15.7715C16.2674 14.5028 16.7068 13.4774 17.7248 12.6953C18.109 12.4547 18.4996 12.2431 18.8967 12.0606Z" fill="#46505E"/>
<path fill-rule="evenodd" clip-rule="evenodd" d="M29.2481 12.0606C31.6616 11.8166 33.0939 12.8745 33.545 15.2344C33.5344 16.1258 33.1112 16.4513 32.2755 16.2109C32.1615 16.097 32.0476 15.9831 31.9337 15.8692C31.9037 14.6339 31.2852 13.9178 30.0782 13.7207C28.9257 13.9061 28.3397 14.5897 28.3204 15.7715C27.7996 16.5527 27.2787 16.5527 26.7579 15.7715C26.6295 14.4492 27.1016 13.3913 28.1739 12.5977C28.541 12.4142 28.899 12.2351 29.2481 12.0606Z" fill="#46505E"/>
<path opacity="0.997" fill-rule="evenodd" clip-rule="evenodd" d="M16.9431 25.8301C22.2817 25.8301 27.6202 25.8301 32.9588 25.8301C34.4291 26.2242 35.5684 27.0705 36.3767 28.3691C36.5823 28.8786 36.7613 29.3994 36.9138 29.9316C37.0075 31.7274 36.9587 33.5179 36.7674 35.3027C36.3176 37.5053 35.3084 39.3933 33.74 40.9668C27.8774 39.1478 22.018 39.1478 16.1619 40.9668C14.5935 39.3933 13.5844 37.5053 13.1345 35.3027C12.9432 33.5179 12.8944 31.7274 12.9881 29.9316C13.1406 29.3994 13.3196 28.8786 13.5252 28.3691C14.3335 27.0705 15.4728 26.2242 16.9431 25.8301Z" fill="#2980B8"/>
<path opacity="0.989" fill-rule="evenodd" clip-rule="evenodd" d="M13.5255 28.3692C13.3199 28.8786 13.1409 29.3994 12.9883 29.9317C12.8947 31.7275 12.9435 33.5179 13.1348 35.3027C12.1908 35.3027 11.2468 35.3027 10.3028 35.3027C9.52087 35.319 8.73962 35.3027 7.95905 35.2539C7.52205 35.117 7.13143 34.9054 6.78717 34.6192C6.11662 33.9918 5.82365 33.2106 5.90827 32.2754C5.86719 30.2514 6.8112 28.9656 8.7403 28.418C10.335 28.3692 11.93 28.3528 13.5255 28.3692Z" fill="#285680"/>
<path opacity="0.988" fill-rule="evenodd" clip-rule="evenodd" d="M36.377 28.3692C37.9724 28.3528 39.5674 28.3692 41.1621 28.418C43.0882 28.9631 44.0321 30.2489 43.9941 32.2754C44.0788 33.2106 43.7858 33.9918 43.1152 34.6192C42.7015 34.9885 42.2132 35.2 41.6504 35.2539C40.9676 35.3027 40.284 35.319 39.5996 35.3027C38.6556 35.3027 37.7116 35.3027 36.7676 35.3027C36.9589 33.5179 37.0077 31.7275 36.9141 29.9317C36.7615 29.3994 36.5825 28.8786 36.377 28.3692Z" fill="#285680"/>
<path fill-rule="evenodd" clip-rule="evenodd" d="M22.51 30.127C24.2081 30.0836 25.9009 30.1324 27.5881 30.2734C28.3657 30.7897 28.5774 31.4896 28.2229 32.3731C27.4615 33.2973 26.6641 34.1925 25.8303 35.0586C24.8046 35.5091 23.9745 35.2649 23.3401 34.3262C22.7866 33.6751 22.2333 33.0241 21.6799 32.3731C21.3041 31.3691 21.5808 30.6204 22.51 30.127Z" fill="#64DBB8"/>
<path opacity="0.98" fill-rule="evenodd" clip-rule="evenodd" d="M6.78711 34.6191C7.13137 34.9054 7.52199 35.117 7.95898 35.2539C8.73956 35.3027 9.52081 35.3189 10.3027 35.3027C10.3027 37.4512 10.3027 39.5996 10.3027 41.748C9.13086 41.2272 7.95898 41.2272 6.78711 41.748C6.78711 39.3718 6.78711 36.9954 6.78711 34.6191Z" fill="#A3A3A2"/>
<path opacity="0.98" fill-rule="evenodd" clip-rule="evenodd" d="M43.1152 34.6191C43.1152 36.9954 43.1152 39.3718 43.1152 41.748C42.757 41.6449 42.3989 41.5311 42.041 41.4062C41.1854 41.266 40.3716 41.3799 39.5996 41.748C39.5996 39.5996 39.5996 37.4512 39.5996 35.3027C40.284 35.3189 40.9676 35.3027 41.6504 35.2539C42.2132 35.2 42.7015 34.9885 43.1152 34.6191Z" fill="#A3A3A2"/>
<path opacity="0.994" fill-rule="evenodd" clip-rule="evenodd" d="M33.7402 40.9668C32.6244 42.2753 31.2572 43.2518 29.6387 43.8965C26.5114 45.0661 23.3864 45.0661 20.2637 43.8965C18.6479 43.2528 17.2808 42.2763 16.1621 40.9668C22.0183 39.1477 27.8776 39.1477 33.7402 40.9668Z" fill="#28567F"/>
<path opacity="0.982" fill-rule="evenodd" clip-rule="evenodd" d="M10.3027 41.7481C11.8229 42.7088 12.36 44.076 11.9141 45.8496C11.1074 47.8075 9.65889 48.5725 7.56836 48.1445C5.96548 47.5987 5.11912 46.4757 5.0293 44.7754C5.08936 43.4496 5.67529 42.4405 6.78711 41.7481C7.95898 41.2273 9.13086 41.2273 10.3027 41.7481Z" fill="#28567F"/>
<path opacity="0.983" fill-rule="evenodd" clip-rule="evenodd" d="M43.1154 41.748C44.8635 43.0329 45.2705 44.6605 44.3361 46.6309C42.8714 48.4717 41.1298 48.7809 39.1115 47.5586C37.8685 46.4006 37.5267 45.0172 38.0861 43.4082C38.3725 42.65 38.8771 42.0967 39.5998 41.748C40.3717 41.3799 41.1855 41.266 42.0412 41.4062C42.3991 41.5311 42.7572 41.6449 43.1154 41.748Z" fill="#285680"/>
<path opacity="0.99" fill-rule="evenodd" clip-rule="evenodd" d="M20.2637 43.8965C23.3864 45.0661 26.5114 45.0661 29.6387 43.8965C29.4598 45.2308 29.1505 46.5328 28.7109 47.8027C28.0316 48.9136 27.0714 49.6297 25.8301 49.9512C25.2441 49.9512 24.6582 49.9512 24.0723 49.9512C22.3915 49.4912 21.301 48.417 20.8008 46.7285C20.6026 45.7868 20.4236 44.8429 20.2637 43.8965Z" fill="#454E5C"/>
</g>
<defs>
<clipPath id="clip0_14677_5815">
<rect width="50" height="50" fill="white"/>
</clipPath>
</defs>
</svg>
