<svg width="64" height="64" viewBox="0 0 64 64" fill="none" xmlns="http://www.w3.org/2000/svg">
<path d="M54.2909 4.96V59.04C54.2909 61.79 52.0809 64 49.3309 64H14.6709C11.9209 64 9.71094 61.79 9.71094 59.04V4.96C9.71094 2.23 11.9309 0 14.6709 0H49.3209C52.0709 0 54.2909 2.23 54.2909 4.96Z" fill="#002548"/>
<path d="M51.6209 5.51004V54.95C51.6209 56.52 50.3509 57.79 48.7809 57.79H15.2209C13.6509 57.79 12.3809 56.52 12.3809 54.95V5.51004C12.3809 3.94004 13.6509 2.67004 15.2209 2.67004H48.7809C50.3509 2.67004 51.6209 3.94004 51.6209 5.51004Z" fill="#F9FAFB"/>
<path d="M39.0105 61.0399C39.0105 61.6799 38.4905 62.1999 37.8505 62.1999H26.1305C25.5005 62.1999 24.9805 61.6799 24.9805 61.0399C24.9805 60.3999 25.5005 59.8899 26.1305 59.8899H37.8505C38.4905 59.8899 39.0105 60.3999 39.0105 61.0399Z" fill="#5F737C"/>
<path d="M24.3511 43.0499C23.9511 43.0499 23.6211 43.3799 23.6211 43.7799C23.6211 44.1799 23.9511 44.5099 24.3511 44.5099H29.9611C30.3611 44.5099 30.6911 44.1799 30.6911 43.7799C30.6911 43.3799 30.3611 43.0499 29.9611 43.0499H24.3511ZM34.5911 43.0499C34.1911 43.0499 33.8611 43.3799 33.8611 43.7799C33.8611 44.1799 34.1911 44.5099 34.5911 44.5099H40.2011C40.6011 44.5099 40.9311 44.1799 40.9311 43.7799C40.9311 43.3799 40.6011 43.0499 40.2011 43.0499H34.5911Z" fill="#0054A6"/>
<path d="M32.9815 32.59C32.9815 32.19 32.6515 31.86 32.2515 31.86C31.8515 31.86 31.5215 32.19 31.5215 32.59V41.42C31.5215 41.82 31.8515 42.15 32.2515 42.15C32.6515 42.15 32.9815 41.82 32.9815 41.42V32.59Z" fill="#0054A6"/>
<path d="M42.5309 46.0799C43.8122 46.0799 44.8509 45.0412 44.8509 43.7599C44.8509 42.4786 43.8122 41.4399 42.5309 41.4399C41.2496 41.4399 40.2109 42.4786 40.2109 43.7599C40.2109 45.0412 41.2496 46.0799 42.5309 46.0799Z" fill="#FFDD33"/>
<path d="M32.2907 46.0799C33.572 46.0799 34.6107 45.0412 34.6107 43.7599C34.6107 42.4786 33.572 41.4399 32.2907 41.4399C31.0094 41.4399 29.9707 42.4786 29.9707 43.7599C29.9707 45.0412 31.0094 46.0799 32.2907 46.0799Z" fill="#FFDD33"/>
<path d="M22.0309 46.0799C23.3122 46.0799 24.3509 45.0412 24.3509 43.7599C24.3509 42.4786 23.3122 41.4399 22.0309 41.4399C20.7496 41.4399 19.7109 42.4786 19.7109 43.7599C19.7109 45.0412 20.7496 46.0799 22.0309 46.0799Z" fill="#FFDD33"/>
<path fill-rule="evenodd" clip-rule="evenodd" d="M18.791 28.27C18.791 30.68 20.731 32.62 23.141 32.62H32.281H41.421C43.831 32.62 45.771 30.68 45.771 28.27C45.771 26.02 44.071 24.17 41.861 23.94C41.861 23.87 41.861 23.83 41.861 23.76C41.861 21.35 39.921 19.41 37.511 19.41C37.111 19.41 36.721 19.45 36.341 19.56C35.721 17.9 34.131 16.71 32.261 16.71C30.391 16.71 28.801 17.9 28.181 19.56C27.801 19.45 27.431 19.41 27.011 19.41C24.601 19.41 22.661 21.35 22.661 23.76V23.94C20.491 24.16 18.791 26.02 18.791 28.27Z" fill="#0054A6"/>
<path d="M42.7005 48.8699C42.7005 49.3599 42.2905 49.7699 41.7905 49.7699H22.3905C21.8805 49.7699 21.4805 49.3599 21.4805 48.8699C21.4805 48.3599 21.8905 47.9599 22.3905 47.9599H41.7805C42.2905 47.9499 42.7005 48.3599 42.7005 48.8699Z" fill="#D2D9DC"/>
<path d="M36.7105 53.17C36.7105 53.67 36.3005 54.08 35.8005 54.08H22.3905C21.8905 54.08 21.4805 53.67 21.4805 53.19C21.4805 52.68 21.8905 52.27 22.3905 52.27H35.8005C36.3005 52.26 36.7105 52.67 36.7105 53.17Z" fill="#D2D9DC"/>
<path d="M44.3816 12.09L43.6816 11.69C43.7216 11.48 43.7416 11.26 43.7416 11.04C43.7416 10.82 43.7216 10.6 43.6816 10.39L44.3816 9.99C44.6716 9.82 44.7616 9.46 44.6016 9.17L44.0016 8.12C43.8316 7.83 43.4716 7.74 43.1816 7.9L42.8316 8.1C42.6416 8.21 42.3916 8.21 42.2116 8.09C42.0416 7.97 41.8616 7.87 41.6816 7.78C41.4816 7.69 41.3616 7.47 41.3616 7.25V6.85C41.3616 6.52 41.0916 6.25 40.7616 6.25H39.5616C39.2316 6.25 38.9616 6.52 38.9616 6.85V7.26C38.9616 7.48 38.8416 7.7 38.6416 7.79C38.4516 7.88 38.2716 7.98 38.1116 8.1C37.9316 8.23 37.6816 8.23 37.4916 8.11L37.1416 7.91C36.8516 7.74 36.4916 7.84 36.3216 8.13L35.7216 9.17C35.5516 9.46 35.6516 9.82 35.9416 9.99L36.6416 10.39C36.6016 10.6 36.5816 10.82 36.5816 11.04C36.5816 11.26 36.6016 11.48 36.6416 11.69L35.9416 12.09C35.6516 12.26 35.5616 12.62 35.7216 12.91L36.3216 13.95C36.4916 14.24 36.8516 14.33 37.1416 14.17L37.4916 13.97C37.6816 13.86 37.9316 13.86 38.1116 13.98C38.2816 14.1 38.4616 14.2 38.6416 14.29C38.8416 14.38 38.9616 14.6 38.9616 14.82V15.23C38.9616 15.56 39.2316 15.83 39.5616 15.83H40.7616C41.0916 15.83 41.3616 15.56 41.3616 15.23V14.82C41.3616 14.6 41.4816 14.38 41.6816 14.29C41.8716 14.2 42.0516 14.1 42.2116 13.98C42.3916 13.85 42.6416 13.85 42.8316 13.97L43.1816 14.17C43.4716 14.34 43.8316 14.24 44.0016 13.95L44.6016 12.91C44.7616 12.62 44.6616 12.25 44.3816 12.09ZM40.1616 13.42C38.8416 13.42 37.7716 12.35 37.7716 11.03C37.7716 9.71 38.8416 8.64 40.1616 8.64C41.4816 8.64 42.5516 9.71 42.5516 11.03C42.5516 12.35 41.4816 13.42 40.1616 13.42Z" fill="#839299"/>
<path d="M22.1315 9.57999C22.1315 9.80999 22.0415 10.02 21.8815 10.17C21.7315 10.32 21.5215 10.42 21.2915 10.42H19.8615C19.4015 10.42 19.0215 10.04 19.0215 9.57999C19.0215 9.34999 19.1115 9.13999 19.2715 8.98999C19.4215 8.83999 19.6315 8.73999 19.8615 8.73999H21.2915C21.7515 8.73999 22.1315 9.10999 22.1315 9.57999Z" fill="#D2D9DC"/>
<path d="M33.2308 9.57999C33.2308 9.80999 33.1408 10.02 32.9808 10.17C32.8308 10.32 32.6208 10.42 32.3908 10.42H24.6408C24.1808 10.42 23.8008 10.04 23.8008 9.57999C23.8008 9.34999 23.8908 9.13999 24.0508 8.98999C24.2008 8.83999 24.4108 8.73999 24.6408 8.73999H32.3908C32.8608 8.73999 33.2308 9.10999 33.2308 9.57999Z" fill="#D2D9DC"/>
<path d="M28.5218 13.4099C28.5218 13.6399 28.4318 13.8499 28.2718 13.9999C28.1218 14.1499 27.9118 14.2499 27.6818 14.2499H19.9318C19.4718 14.2499 19.0918 13.8699 19.0918 13.4099C19.0918 13.1799 19.1818 12.9699 19.3418 12.8199C19.4918 12.6699 19.7018 12.5699 19.9318 12.5699H27.6818C28.1418 12.5799 28.5218 12.9499 28.5218 13.4099Z" fill="#D2D9DC"/>
</svg>
