<svg width="48" height="48" viewBox="0 0 48 48" fill="none" xmlns="http://www.w3.org/2000/svg">
<path fill-rule="evenodd" clip-rule="evenodd" d="M27.1004 11.6001C26.7004 11.6001 26.4004 11.3001 26.4004 10.9001V7.8001C26.4004 7.4001 26.7004 7.1001 27.1004 7.1001H32.4004C32.8004 7.1001 33.1004 7.4001 33.1004 7.8001C33.1004 8.2001 32.8004 8.5001 32.4004 8.5001H27.8004V10.8001C27.8004 11.3001 27.5004 11.6001 27.1004 11.6001Z" fill="#002548"/>
<path fill-rule="evenodd" clip-rule="evenodd" d="M23.9988 11.6C23.5988 11.6 23.2988 11.3 23.2988 10.9V3.00005C23.2988 2.60005 23.5988 2.30005 23.9988 2.30005C24.3988 2.30005 24.6988 2.60005 24.6988 3.00005V10.9C24.6988 11.3 24.3988 11.6 23.9988 11.6Z" fill="#002548"/>
<path fill-rule="evenodd" clip-rule="evenodd" d="M20.9004 11.6001C20.5004 11.6001 20.2004 11.3001 20.2004 10.9001V8.5001H15.6004C15.2004 8.5001 14.9004 8.2001 14.9004 7.8001C14.9004 7.4001 15.2004 7.1001 15.6004 7.1001H20.9004C21.3004 7.1001 21.6004 7.4001 21.6004 7.8001V10.9001C21.7004 11.3001 21.3004 11.6001 20.9004 11.6001Z" fill="#002548"/>
<path fill-rule="evenodd" clip-rule="evenodd" d="M23.9988 44.7001C23.5988 44.7001 23.2988 44.4001 23.2988 44.0001V39.8001C23.2988 39.4001 23.5988 39.1001 23.9988 39.1001C24.3988 39.1001 24.6988 39.4001 24.6988 39.8001V44.0001C24.6988 44.4001 24.3988 44.7001 23.9988 44.7001Z" fill="#002548"/>
<path fill-rule="evenodd" clip-rule="evenodd" d="M33.6996 46.2001H27.2996C26.8996 46.2001 26.5996 45.9 26.5996 45.5C26.5996 45.1 26.8996 44.8 27.2996 44.8H33.6996C34.0996 44.8 34.3996 45.1 34.3996 45.5C34.4996 45.9 34.0996 46.2001 33.6996 46.2001ZM20.6996 46.2001H14.2996C13.8996 46.2001 13.5996 45.9 13.5996 45.5C13.5996 45.1 13.8996 44.8 14.2996 44.8H20.6996C21.0996 44.8 21.3996 45.1 21.3996 45.5C21.3996 45.9 21.0996 46.2001 20.6996 46.2001Z" fill="#002548"/>
<path fill-rule="evenodd" clip-rule="evenodd" d="M27.0994 40.5001H20.8994C20.4994 40.5001 20.1994 40.2001 20.1994 39.9001L19.8994 37.2001C19.7994 36.7001 19.4994 36.2001 18.9994 36.0001C18.3994 35.7001 17.7994 35.4001 17.2994 35.0001C16.8994 34.7001 16.2994 34.6001 15.7994 34.8001L13.2994 35.9001C12.9994 36.0001 12.4994 35.9001 12.3994 35.6001L9.29936 30.3001C9.09936 30.0001 9.19936 29.6001 9.49936 29.3001L11.6994 27.7001C12.0994 27.4001 12.2994 26.9001 12.2994 26.4001C12.2994 26.0001 12.2994 25.7001 12.2994 25.3001C12.2994 24.9001 12.2994 24.6001 12.2994 24.2001C12.2994 23.7001 12.0994 23.2001 11.6994 22.9001L9.49936 21.3001C9.19936 21.1001 9.09936 20.7001 9.29936 20.3001L12.3994 15.0001C12.5994 14.7001 12.9994 14.6001 13.2994 14.7001L15.7994 15.8001C16.2994 16.0001 16.7994 15.9001 17.2994 15.6001C17.8994 15.2001 18.3994 14.9001 18.9994 14.6001C19.4994 14.4001 19.7994 13.9001 19.8994 13.4001L20.1994 10.7001C20.2994 10.3001 20.5994 10.1001 20.8994 10.1001H27.0994C27.4994 10.1001 27.7994 10.4001 27.7994 10.7001L28.0994 13.4001C28.1994 13.9001 28.4994 14.4001 28.9994 14.6001C29.5994 14.9001 30.1994 15.2001 30.6994 15.6001C31.0994 15.9001 31.6994 16.0001 32.1994 15.8001L34.6994 14.7001C34.9994 14.6001 35.3994 14.7001 35.5994 15.0001L38.6994 20.3001C38.8994 20.6001 38.7994 21.0001 38.4994 21.3001L36.2994 23.0001C35.8994 23.3001 35.6994 23.8001 35.6994 24.3001C35.6994 24.7001 35.6994 25.0001 35.6994 25.4001C35.6994 25.8001 35.6994 26.1001 35.6994 26.5001C35.6994 27.0001 35.8994 27.5001 36.2994 27.8001L38.4994 29.4001C38.7994 29.6001 38.8994 30.0001 38.6994 30.4001L35.5994 35.7001C35.3994 36.0001 34.9994 36.1001 34.6994 36.0001L32.1994 34.9001C31.6994 34.7001 31.1994 34.8001 30.6994 35.1001C30.0994 35.5001 29.5994 35.8001 28.9994 36.1001C28.4994 36.3001 28.1994 36.8001 28.0994 37.3001L27.7994 40.0001C27.7994 40.3001 27.3994 40.5001 27.0994 40.5001Z" fill="#D2D9DC"/>
<path fill-rule="evenodd" clip-rule="evenodd" d="M33.5992 9.6999C32.5992 9.6999 31.6992 8.8999 31.6992 7.7999C31.6992 6.7999 32.4992 5.8999 33.5992 5.8999C34.5992 5.8999 35.4992 6.6999 35.4992 7.7999C35.3992 8.7999 34.5992 9.6999 33.5992 9.6999Z" fill="#0054A6"/>
<path fill-rule="evenodd" clip-rule="evenodd" d="M14.4996 9.6999C13.4996 9.6999 12.5996 8.8999 12.5996 7.7999C12.5996 6.7999 13.3996 5.8999 14.4996 5.8999C15.4996 5.8999 16.3996 6.6999 16.3996 7.7999C16.2996 8.7999 15.4996 9.6999 14.4996 9.6999Z" fill="#0054A6"/>
<path fill-rule="evenodd" clip-rule="evenodd" d="M27.3004 47.7001H20.6004C20.2004 47.7001 19.9004 47.4 19.9004 47V44C19.9004 43.6 20.2004 43.3 20.6004 43.3H27.3004C27.7004 43.3 28.0004 43.6 28.0004 44V47C28.1004 47.3 27.7004 47.7001 27.3004 47.7001Z" fill="#ED1C24"/>
<path fill-rule="evenodd" clip-rule="evenodd" d="M12.4004 47.9999C11.0004 47.9999 9.90039 46.7999 9.90039 45.4999C9.90039 44.0999 11.1004 42.8999 12.4004 42.8999C13.8004 42.8999 14.9004 44.0999 14.9004 45.4999C15.0004 46.7999 13.8004 47.9999 12.4004 47.9999Z" fill="#FFDD33"/>
<path fill-rule="evenodd" clip-rule="evenodd" d="M35.5 47.9999C34.1 47.9999 33 46.7999 33 45.4999C33 44.0999 34.2 42.8999 35.5 42.8999C36.9 42.8999 38 44.0999 38 45.4999C38.1 46.7999 37 47.9999 35.5 47.9999Z" fill="#FFDD33"/>
<path fill-rule="evenodd" clip-rule="evenodd" d="M23.9996 3.7C22.9996 3.7 22.0996 2.9 22.0996 1.8C22.0996 0.7 22.9996 0 23.9996 0C24.9996 0 25.8996 0.8 25.8996 1.9C25.8996 3 24.9996 3.7 23.9996 3.7Z" fill="#ED1C24"/>
<path fill-rule="evenodd" clip-rule="evenodd" d="M24.0008 35.0999C18.7008 35.0999 14.3008 30.7 14.3008 25.4C14.3008 20 18.7008 15.7 24.0008 15.7C29.4008 15.7 33.7008 20 33.7008 25.4C33.7008 30.7 29.4008 35.0999 24.0008 35.0999Z" fill="#839299"/>
<path fill-rule="evenodd" clip-rule="evenodd" d="M24 32.9001C19.8 32.9001 16.5 29.5 16.5 25.4C16.5 21.3 19.9 17.8 24 17.8C28.1 17.8 31.6 21.2 31.6 25.4C31.6 29.6 28.2 32.9001 24 32.9001Z" fill="#F9FAFB"/>
<path fill-rule="evenodd" clip-rule="evenodd" d="M21.9008 31.2999C22.8008 31.2999 23.6008 30.7999 24.0008 29.9999C24.4008 30.7999 25.2008 31.2999 26.1008 31.2999C27.2008 31.2999 28.1008 30.5999 28.4008 29.6999C29.2008 29.3999 29.9008 28.6999 29.9008 27.7999C29.9008 27.4999 29.8008 27.1999 29.7008 26.8999C30.1008 26.4999 30.3008 25.9999 30.3008 25.4999C30.3008 24.7999 30.0008 24.1999 29.4008 23.7999C29.5008 23.5999 29.5008 23.4999 29.5008 23.2999C29.5008 22.2999 28.7008 21.4999 27.8008 21.2999C27.7008 20.2999 26.8008 19.3999 25.8008 19.3999C25.0008 19.3999 24.4008 19.7999 24.0008 20.3999C23.7008 19.7999 23.0008 19.3999 22.3008 19.3999C21.2008 19.3999 20.4008 20.1999 20.3008 21.2999C19.3008 21.4999 18.6008 22.2999 18.6008 23.2999C18.6008 23.4999 18.6008 23.5999 18.7008 23.7999C18.2008 24.1999 17.8008 24.7999 17.8008 25.4999C17.8008 25.9999 18.0008 26.4999 18.4008 26.8999C18.3008 27.1999 18.2008 27.4999 18.2008 27.7999C18.2008 28.6999 18.8008 29.4999 19.7008 29.6999C19.9008 30.5999 20.8008 31.2999 21.9008 31.2999Z" fill="#FED2A4"/>
<path fill-rule="evenodd" clip-rule="evenodd" d="M23.8008 30.2999C23.9008 30.1999 23.9008 30.1 24.0008 30C24.1008 30.1 24.1008 30.1999 24.2008 30.2999V20.2C24.1008 20.3 24.1008 20.4 24.0008 20.5C24.0008 20.4 23.9008 20.3 23.8008 20.2V30.2999Z" fill="#FFBD86"/>
<path fill-rule="evenodd" clip-rule="evenodd" d="M20.3 21.0999V21.1999C20.2 21.1999 20.1 21.2999 20 21.2999C20.2 21.8999 20.8 22.1999 21.4 22.0999C21.5 22.0999 21.6 21.9999 21.5 21.8999C21.5 21.7999 21.4 21.6999 21.3 21.7999C20.8 21.7999 20.4 21.6999 20.3 21.0999Z" fill="#FFBD86"/>
<path fill-rule="evenodd" clip-rule="evenodd" d="M19.3008 29.6C19.4008 29.7 19.5008 29.7 19.6008 29.7V29.8C19.7008 29.8 19.7008 29.7 19.7008 29.7C19.7008 29.2 20.0008 28.9 20.5008 28.9C20.6008 28.9 20.7008 28.8 20.7008 28.7C20.7008 28.6 20.6008 28.5 20.5008 28.5C19.8008 28.5 19.3008 28.9 19.3008 29.6Z" fill="#FFBD86"/>
<path fill-rule="evenodd" clip-rule="evenodd" d="M21.2 27.2001C20.5 27.2001 20 26.7 20 26C20 25.8 20.1 25.6 20.1 25.4C20.2 25.3 20.3 25.3 20.4 25.3C20.5 25.3 20.5 25.4 20.5 25.6C20.4 25.7 20.4 25.9 20.4 26C20.4 26.5 20.8 26.9 21.3 26.9C21.4 26.9 21.5 27 21.5 27.1C21.4 27.1 21.3 27.2001 21.2 27.2001Z" fill="#FFBD86"/>
<path fill-rule="evenodd" clip-rule="evenodd" d="M22.3004 24.7C21.7004 25 21.0004 24.8 20.6004 24.3C20.5004 24.1 20.4004 23.9 20.4004 23.7C20.4004 23.6 20.5004 23.5 20.6004 23.5C20.7004 23.5 20.8004 23.6 20.8004 23.7C20.8004 23.8 20.8004 24 20.9004 24.1C21.1004 24.5 21.7004 24.7 22.1004 24.4C22.2004 24.3 22.3004 24.4 22.4004 24.5C22.4004 24.5 22.4004 24.7 22.3004 24.7Z" fill="#FFBD86"/>
<path fill-rule="evenodd" clip-rule="evenodd" d="M27.8016 21.0999V21.1999C27.9016 21.1999 28.0016 21.2999 28.1016 21.2999C27.9016 21.8999 27.3016 22.1999 26.7016 22.0999C26.6016 22.0999 26.6016 21.9999 26.6016 21.8999C26.6016 21.7999 26.7016 21.6999 26.8016 21.7999C27.2016 21.7999 27.6016 21.6999 27.8016 21.0999C27.7016 21.0999 27.7016 21.0999 27.8016 21.0999Z" fill="#FFBD86"/>
<path fill-rule="evenodd" clip-rule="evenodd" d="M28.7012 29.6C28.6012 29.7 28.5012 29.7 28.4012 29.7C28.4012 29.7 28.4012 29.8 28.3012 29.8L28.2012 29.7C28.2012 29.2 27.9012 28.9 27.4012 28.9C27.3012 28.9 27.2012 28.8 27.2012 28.7C27.2012 28.6 27.3012 28.5 27.4012 28.5C28.2012 28.5 28.7012 28.9 28.7012 29.6Z" fill="#FFBD86"/>
<path fill-rule="evenodd" clip-rule="evenodd" d="M26.8 27.2001C27.5 27.2001 28 26.7 28 26C28 25.8 27.9 25.6 27.8 25.4C27.8 25.3 27.6 25.3 27.5 25.3C27.4 25.3 27.4 25.4 27.4 25.6C27.5 25.7 27.5 25.9 27.5 26C27.5 26.5 27.1 26.9 26.7 26.9C26.6 26.9 26.5 27 26.5 27.1C26.6 27.1 26.7 27.2001 26.8 27.2001Z" fill="#FFBD86"/>
<path fill-rule="evenodd" clip-rule="evenodd" d="M25.7016 24.7C26.3016 25 27.0016 24.8 27.4016 24.3C27.5016 24.1 27.6016 23.9 27.6016 23.7C27.6016 23.6 27.5016 23.5 27.4016 23.5C27.3016 23.5 27.2016 23.6 27.2016 23.7C27.2016 23.8 27.1016 24 27.1016 24.1C26.8016 24.5 26.3016 24.7 25.9016 24.4C25.8016 24.3 25.7016 24.4 25.6016 24.5C25.6016 24.5 25.6016 24.7 25.7016 24.7Z" fill="#FFBD86"/>
</svg>
