<svg width="50" height="50" viewBox="0 0 50 50" fill="none" xmlns="http://www.w3.org/2000/svg">
<g clip-path="url(#clip0_12083_17577)">
<path d="M45.6031 17.7H36.7031C35.9031 17.7 35.2031 17 35.2031 16.2C35.2031 15.4 35.9031 14.7 36.7031 14.7H44.1031V10.3C44.1031 9.50005 44.8031 8.80005 45.6031 8.80005C46.4031 8.80005 47.1031 9.50005 47.1031 10.3V16.2C47.1031 17 46.4031 17.7 45.6031 17.7Z" fill="#002548"/>
<path d="M45.6031 41.0999C44.8031 41.0999 44.1031 40.3999 44.1031 39.5999V35.2H36.7031C35.9031 35.2 35.2031 34.5 35.2031 33.7C35.2031 32.9 35.9031 32.2 36.7031 32.2H45.6031C46.4031 32.2 47.1031 32.9 47.1031 33.7V39.5999C47.1031 40.4999 46.4031 41.0999 45.6031 41.0999Z" fill="#002548"/>
<path d="M13.2984 17.7H4.39844C3.59844 17.7 2.89844 17 2.89844 16.2V10.3C2.89844 9.50005 3.59844 8.80005 4.39844 8.80005C5.19844 8.80005 5.89844 9.50005 5.89844 10.3V14.7H13.2984C14.0984 14.7 14.7984 15.4 14.7984 16.2C14.7984 17 14.0984 17.7 13.2984 17.7Z" fill="#002548"/>
<path d="M4.39844 41.0999C3.59844 41.0999 2.89844 40.3999 2.89844 39.5999V33.7C2.89844 32.9 3.59844 32.2 4.39844 32.2H13.2984C14.0984 32.2 14.7984 32.9 14.7984 33.7C14.7984 34.5 14.0984 35.2 13.2984 35.2H5.89844V39.5999C5.89844 40.4999 5.19844 41.0999 4.39844 41.0999Z" fill="#002548"/>
<path d="M10.4 26.5H1.5C0.7 26.5 0 25.8 0 25C0 24.2 0.7 23.5 1.5 23.5H10.4C11.2 23.5 11.9 24.2 11.9 25C11.9 25.8 11.2 26.5 10.4 26.5Z" fill="#002548"/>
<path d="M48.5016 26.5H39.6016C38.8016 26.5 38.1016 25.8 38.1016 25C38.1016 24.2 38.8016 23.5 39.6016 23.5H48.5016C49.3016 23.5 50.0016 24.2 50.0016 25C50.0016 25.8 49.3016 26.5 48.5016 26.5Z" fill="#002548"/>
<path d="M30.8984 11.8C30.0984 11.8 29.3984 11.1 29.3984 10.3V4.5C29.3984 3.7 29.9984 3 30.8984 3C31.7984 3 32.3984 3.7 32.3984 4.5V10.4C32.2984 11.2 31.6984 11.8 30.8984 11.8Z" fill="#002548"/>
<path d="M19.1016 11.8C18.3016 11.8 17.6016 11.1 17.6016 10.3V4.5C17.6016 3.7 18.3016 3 19.1016 3C19.9016 3 20.6016 3.7 20.6016 4.5V10.4C20.6016 11.2 20.0016 11.8 19.1016 11.8Z" fill="#002548"/>
<path d="M19.1016 47.0001C18.3016 47.0001 17.6016 46.3001 17.6016 45.5001V39.6001C17.6016 38.8001 18.3016 38.1001 19.1016 38.1001C19.9016 38.1001 20.6016 38.8001 20.6016 39.6001V45.5001C20.6016 46.3001 20.0016 47.0001 19.1016 47.0001Z" fill="#002548"/>
<path d="M30.8984 47.0001C30.0984 47.0001 29.3984 46.3001 29.3984 45.5001V39.6001C29.3984 38.8001 30.0984 38.1001 30.8984 38.1001C31.6984 38.1001 32.3984 38.8001 32.3984 39.6001V45.5001C32.2984 46.3001 31.6984 47.0001 30.8984 47.0001Z" fill="#002548"/>
<path d="M45.6016 47C43.2016 47 41.1016 44.9999 41.1016 42.5999C41.1016 40.1999 43.2016 38.2 45.6016 38.2C48.0016 38.2 50.0016 40.1999 50.0016 42.5999C50.0016 44.9999 48.0016 47 45.6016 47Z" fill="#0054A6"/>
<path d="M45.6016 11.8C43.2016 11.8 41.1016 9.8 41.1016 7.4C41.1016 5 43.2016 3 45.6016 3C48.0016 3 50.0016 5 50.0016 7.4C50.0016 9.8 48.0016 11.8 45.6016 11.8Z" fill="#0054A6"/>
<path d="M4.4 11.8C2 11.8 0 9.8 0 7.4C0 5 2 3 4.4 3C6.8 3 8.8 5 8.8 7.4C8.8 9.8 6.8 11.8 4.4 11.8Z" fill="#0054A6"/>
<path d="M4.4 47C2 47 0 44.9999 0 42.5999C0 40.1999 2 38.2 4.4 38.2C6.8 38.2 8.8 40.1999 8.8 42.5999C8.8 44.9999 6.8 47 4.4 47Z" fill="#0054A6"/>
<path d="M24.9969 8.8999C16.0969 8.8999 8.79688 16.0999 8.79688 24.9999C8.79688 33.8999 16.0969 41.0999 24.9969 41.0999C33.8969 41.0999 41.0969 33.8999 41.0969 24.9999C41.0969 16.0999 33.8969 8.8999 24.9969 8.8999Z" fill="#FFDD33"/>
<path opacity="0.19" d="M37.7969 27.9L34.2969 29.4L36.6969 30.9C34.4969 35.2 30.0969 38.2001 24.9969 38.2001C19.8969 38.2001 15.3969 35.2 13.2969 30.9L15.6969 29.4L12.1969 27.9C11.9969 27 11.7969 26 11.7969 25C11.7969 17.7 17.6969 11.8 24.9969 11.8C32.2969 11.8 38.1969 17.7 38.1969 25C38.1969 26 37.9969 27 37.7969 27.9Z" fill="#2D2F31"/>
<path d="M37.8016 27.9001C37.6016 28.9001 37.2016 29.9001 36.7016 30.8001H30.8016C30.0016 30.8001 29.3016 30.2001 29.3016 29.3001V21.1001L26.0016 24.6001C25.7016 24.9001 25.4016 25.0001 25.0016 25.0001C24.6016 25.0001 24.2016 24.9001 24.0016 24.6001L20.6016 21.3001V29.5001C20.6016 30.3001 20.0016 31.0001 19.1016 31.0001H13.2016C12.7016 30.1001 12.4016 29.1001 12.1016 28.1001H17.6016V17.7001C17.6016 17.1001 18.0016 16.6001 18.5016 16.4001C19.0016 16.2001 19.7016 16.3001 20.1016 16.7001L24.9016 21.5001L29.7016 16.7001C30.1016 16.3001 30.7016 16.1001 31.3016 16.4001C31.9016 16.7001 32.2016 17.2001 32.2016 17.7001V28.0001H37.8016V27.9001Z" fill="#FFDD33"/>
</g>
<defs>
<clipPath id="clip0_12083_17577">
<rect width="50" height="50" fill="white"/>
</clipPath>
</defs>
</svg>
