<svg width="150" height="45" viewBox="0 0 150 45" fill="none" xmlns="http://www.w3.org/2000/svg">
<path fill-rule="evenodd" clip-rule="evenodd" d="M93.0251 35.1918C84.3018 41.6058 71.6939 44.9995 60.7898 44.9995C45.5581 44.9995 31.8258 39.4 21.4328 30.0335C20.615 29.2869 21.3306 28.3027 22.3188 28.8796C33.5295 35.3615 47.3982 39.2982 61.7099 39.2982C71.3532 39.2982 81.9847 37.2959 91.7643 33.1896C93.2296 32.5448 94.4903 34.1398 93.0251 35.1918Z" fill="#FCAF17"/>
<path fill-rule="evenodd" clip-rule="evenodd" d="M96.672 31.0857C95.5475 29.6603 89.3117 30.4069 86.4834 30.7463C85.6316 30.8481 85.4953 30.1015 86.279 29.5585C91.254 26.0631 99.4321 27.0812 100.386 28.235C101.34 29.4228 100.148 37.5675 95.4453 41.4703C94.7297 42.0811 94.0482 41.7417 94.3548 40.9612C95.4112 38.3481 97.7965 32.511 96.672 31.0857Z" fill="#FCAF17"/>
<path fill-rule="evenodd" clip-rule="evenodd" d="M86.6877 4.92078V1.52712C86.6877 1.01808 87.0966 0.678711 87.5396 0.678711H102.805C103.282 0.678711 103.691 1.01808 103.691 1.52712V4.44567C103.691 4.92078 103.282 5.56558 102.533 6.58367L94.6273 17.8167C97.5578 17.7488 100.659 18.19 103.316 19.6832C103.93 20.0225 104.066 20.5316 104.134 21.0067V24.6379C104.134 25.147 103.589 25.7239 103.01 25.4185C98.3074 22.975 92.0716 22.7035 86.8922 25.4524C86.347 25.7239 85.8018 25.147 85.8018 24.6719V21.1764C85.8018 20.6334 85.8018 19.6832 86.381 18.8348L95.5473 5.76919H87.5737C87.0966 5.76919 86.6877 5.42983 86.6877 4.92078Z" fill="#231F20"/>
<path fill-rule="evenodd" clip-rule="evenodd" d="M31.0429 26.0979H26.4086C25.9656 26.064 25.6249 25.7246 25.5908 25.3174V1.59574C25.5908 1.12063 25.9997 0.74733 26.4768 0.74733H30.8043C31.2473 0.781266 31.6222 1.12063 31.6562 1.52787V4.6161H31.7585C32.8829 1.62968 34.9956 0.238281 37.8579 0.238281C40.7543 0.238281 42.5944 1.62968 43.8893 4.6161C45.0138 1.62968 47.5694 0.238281 50.2954 0.238281C52.2377 0.238281 54.3845 1.01882 55.6793 2.81746C57.1446 4.81972 56.8379 7.70432 56.8379 10.2496V25.2156C56.8379 25.6907 56.429 26.064 55.952 26.064H51.3177C50.8407 26.0301 50.4999 25.6568 50.4999 25.2156V12.6591C50.4999 11.6749 50.6021 9.1636 50.3636 8.21337C50.0228 6.61835 48.9665 6.17718 47.6376 6.17718C46.5131 6.17718 45.3545 6.92378 44.8775 8.11156C44.4004 9.29934 44.4345 11.3016 44.4345 12.6591V25.2495C44.4345 25.7246 44.0256 26.0979 43.5485 26.0979H38.8461C38.3691 26.064 38.0283 25.6907 38.0283 25.2495V12.6591C38.0283 10.012 38.4713 6.10931 35.166 6.10931C31.8266 6.10931 31.9629 9.9102 31.9629 12.6591V25.2495C31.9288 25.7246 31.5199 26.0979 31.0429 26.0979Z" fill="#231F20"/>
<path fill-rule="evenodd" clip-rule="evenodd" d="M116.81 0.238281C123.693 0.238281 127.441 6.10931 127.441 13.6093C127.441 20.8378 123.318 26.607 116.81 26.607C110.063 26.607 106.383 20.702 106.383 13.3717C106.383 5.97356 110.097 0.238281 116.81 0.238281ZM116.878 5.05727C113.47 5.05727 113.232 9.70658 113.232 12.5912C113.232 15.4758 113.198 21.6862 116.844 21.6862C120.456 21.6862 120.626 16.6975 120.626 13.6432C120.626 11.641 120.524 9.26541 119.945 7.36496C119.366 5.736 118.343 5.05727 116.878 5.05727Z" fill="#231F20"/>
<path fill-rule="evenodd" clip-rule="evenodd" d="M136.37 26.0979H131.736C131.259 26.064 130.918 25.6907 130.918 25.2495V1.49393C130.952 1.05276 131.361 0.713393 131.804 0.713393H136.097C136.506 0.74733 136.847 1.01882 136.915 1.39212V5.02334H137.017C138.312 1.76543 140.152 0.238281 143.355 0.238281C145.434 0.238281 147.479 0.984886 148.773 3.02108C150 4.92153 150 8.11156 150 10.4192V25.3513C149.932 25.7586 149.557 26.0979 149.114 26.0979H144.446C144.003 26.064 143.662 25.7586 143.628 25.3513V12.4554C143.628 9.87626 143.935 6.07537 140.732 6.07537C139.607 6.07537 138.551 6.82197 138.04 7.97582C137.392 9.43509 137.29 10.8604 137.29 12.4554V25.2156C137.256 25.7246 136.847 26.0979 136.37 26.0979Z" fill="#231F20"/>
<path fill-rule="evenodd" clip-rule="evenodd" d="M74.523 14.7624C74.523 16.561 74.5571 18.0543 73.637 19.6832C72.8874 20.9728 71.7288 21.7873 70.434 21.7873C68.662 21.7873 67.6057 20.4298 67.6057 18.4276C67.6057 14.4909 71.1495 13.7782 74.523 13.7782V14.7624ZM79.1913 26.0293C78.8846 26.3008 78.4417 26.3348 78.1009 26.1312C76.5675 24.8416 76.2949 24.2646 75.443 23.0429C72.8874 25.6221 71.0814 26.4026 67.7761 26.4026C63.8574 26.4026 60.8247 23.9931 60.8247 19.2081C60.8247 15.4411 62.8692 12.8959 65.7656 11.6402C68.2872 10.5543 71.797 10.3507 74.4889 10.0452V9.43436C74.4889 8.31446 74.5911 7.02487 73.9096 6.07464C73.3644 5.22623 72.274 4.88687 71.3199 4.88687C69.548 4.88687 67.9805 5.80315 67.6057 7.66966C67.5375 8.0769 67.2309 8.48414 66.7879 8.51808L62.2899 8.04297C61.9151 7.94116 61.4721 7.66966 61.6084 7.09274C62.6307 1.66289 67.5716 0 72.0014 0C74.2504 0 77.2149 0.610858 78.9869 2.30769C81.2358 4.41175 81.0314 7.22849 81.0314 10.2488V17.4434C81.0314 19.6153 81.9173 20.5656 82.7692 21.7194C83.0759 22.1266 83.1441 22.6357 82.7692 22.9411C81.8151 23.7556 80.1454 25.2149 79.1913 26.0293Z" fill="#231F20"/>
<path fill-rule="evenodd" clip-rule="evenodd" d="M13.6642 14.7624C13.6642 16.561 13.6983 18.0543 12.7783 19.6832C12.0286 20.9728 10.87 21.7873 9.57517 21.7873C7.80326 21.7873 6.74692 20.4298 6.74692 18.4276C6.74692 14.4909 10.2908 13.7782 13.6642 13.7782V14.7624ZM18.3666 26.0293C18.0599 26.3008 17.617 26.3348 17.2762 26.1312C15.7428 24.8416 15.4702 24.2646 14.6183 23.0429C12.0627 25.6221 10.2567 26.4026 6.98545 26.4026C3.03271 26.4366 0 24.0271 0 19.2081C0 15.4751 2.04452 12.8959 4.94093 11.6402C7.4625 10.5543 10.9723 10.3507 13.6642 10.0452V9.43436C13.6642 8.31446 13.7664 7.02487 13.0849 6.07464C12.5397 5.22623 11.4493 4.88686 10.4952 4.88686C8.72329 4.88686 7.15582 5.80315 6.78099 7.66966C6.71284 8.0769 6.40617 8.48414 5.96319 8.51808L1.46524 8.04296C1.09041 7.94116 0.647432 7.66966 0.783733 7.09274C1.80599 1.62895 6.74692 0 11.1426 0C13.4257 0 16.3562 0.610858 18.1622 2.30769C20.4111 4.41175 20.2067 7.22849 20.2067 10.2488V17.4434C20.2067 19.6153 21.0926 20.5656 21.9445 21.7194C22.2512 22.1266 22.3194 22.6357 21.9445 22.9411C20.9904 23.7556 19.2866 25.2149 18.3666 26.0293Z" fill="#231F20"/>
</svg>
