<svg width="114" height="114" viewBox="0 0 114 114" fill="none" xmlns="http://www.w3.org/2000/svg">
<path d="M14.25 48.0938H10.6875V40.9688C10.6875 39.0791 11.4382 37.2668 12.7744 35.9306C14.1106 34.5944 15.9228 33.8437 17.8125 33.8438H24.9375V37.4062H17.8125C16.8677 37.4062 15.9615 37.7816 15.2934 38.4497C14.6253 39.1178 14.25 40.0239 14.25 40.9688V48.0938Z" fill="#E2E7F6"/>
<path d="M37.4062 37.4062H28.5V33.8438H37.4062C38.3511 33.8438 39.2572 33.4684 39.9253 32.8003C40.5934 32.1322 40.9688 31.2261 40.9688 30.2812V19.5938H44.5312V30.2812C44.5312 32.1709 43.7806 33.9832 42.4444 35.3194C41.1082 36.6556 39.2959 37.4062 37.4062 37.4062Z" fill="#E2E7F6"/>
<path d="M106.875 32.0625C106.875 36.9947 105.412 41.8161 102.672 45.917C99.9321 50.018 96.0374 53.2143 91.4807 55.1017C86.9239 56.9892 81.9098 57.4831 77.0724 56.5208C72.235 55.5586 67.7916 53.1835 64.304 49.696C60.8165 46.2084 58.4414 41.765 57.4792 36.9276C56.517 32.0902 57.0108 27.0761 58.8983 22.5193C60.7857 17.9626 63.982 14.0679 68.083 11.3277C72.1839 8.58756 77.0053 7.125 81.9375 7.125V32.0625H106.875Z" fill="#D2D9DC"/>
<path d="M3.5625 99.75H74.8125V110.438H3.5625V99.75Z" fill="#FFDD33"/>
<path d="M69.4688 101.531V99.75H3.5625V105.094H65.9062C66.8511 105.094 67.7572 104.718 68.4253 104.05C69.0934 103.382 69.4688 102.476 69.4688 101.531Z" fill="#FFDD33"/>
<path d="M7.125 99.75V73.0312H21.375V99.75" fill="#0054A6"/>
<path d="M14.25 89.0625V73.0312H7.125V92.625H10.6875C11.6323 92.625 12.5385 92.2497 13.2066 91.5816C13.8747 90.9135 14.25 90.0073 14.25 89.0625Z" fill="#D2D9DC"/>
<path d="M21.375 99.75V60.5625H35.625V99.75" fill="#D2D9DC"/>
<path d="M28.5 89.0625V60.5625H21.375V92.625H24.9375C25.8823 92.625 26.7885 92.2497 27.4566 91.5816C28.1247 90.9135 28.5 90.0073 28.5 89.0625Z" fill="#F8F9FA"/>
<path d="M49.875 99.75V60.5625H64.125V99.75" fill="#839299"/>
<path d="M57 89.0625V60.5625H49.875V92.625H53.4375C54.3823 92.625 55.2885 92.2497 55.9566 91.5816C56.6247 90.9135 57 90.0073 57 89.0625Z" fill="#D2D9DC"/>
<path d="M35.625 99.75V44.5312H49.875V99.75" fill="#F8F9FA"/>
<path d="M42.75 89.0625V44.5312H35.625V92.625H39.1875C40.1323 92.625 41.0385 92.2497 41.7066 91.5816C42.3747 90.9135 42.75 90.0073 42.75 89.0625Z" fill="#839299"/>
<path d="M12.4688 53.4375C14.4363 53.4375 16.0312 51.8425 16.0312 49.875C16.0312 47.9075 14.4363 46.3125 12.4688 46.3125C10.5012 46.3125 8.90625 47.9075 8.90625 49.875C8.90625 51.8425 10.5012 53.4375 12.4688 53.4375Z" fill="#FFDD33"/>
<path d="M26.7188 39.1875C28.6863 39.1875 30.2812 37.5925 30.2812 35.625C30.2812 33.6575 28.6863 32.0625 26.7188 32.0625C24.7512 32.0625 23.1562 33.6575 23.1562 35.625C23.1562 37.5925 24.7512 39.1875 26.7188 39.1875Z" fill="#FFDD33"/>
<path d="M42.75 21.375C44.7175 21.375 46.3125 19.78 46.3125 17.8125C46.3125 15.845 44.7175 14.25 42.75 14.25C40.7825 14.25 39.1875 15.845 39.1875 17.8125C39.1875 19.78 40.7825 21.375 42.75 21.375Z" fill="#FFDD33"/>
<path d="M110.438 32.0625C110.438 24.5038 107.435 17.2547 102.09 11.91C96.7453 6.56517 89.4962 3.5625 81.9375 3.5625V32.0625H110.438Z" fill="#FFDD33"/>
<path d="M100.397 32.0625H81.938V7.12501C76.5159 7.12144 71.2406 8.88642 66.9123 12.1522C62.584 15.418 59.439 20.0063 57.9544 25.2212C56.4697 30.4361 56.7264 35.9929 58.6855 41.0487C60.6446 46.1045 64.1993 50.3834 68.8102 53.2362C69.9159 53.3655 71.028 53.4327 72.1412 53.4375C78.535 53.433 84.7529 51.3437 89.852 47.4863C94.9512 43.6289 98.6534 38.2139 100.397 32.0625Z" fill="#0054A6"/>
<path d="M101.531 24.0469C101.541 18.1823 99.7869 12.4504 96.4974 7.59525C92.0991 4.95686 87.0665 3.56296 81.9375 3.5625V32.0625H100.397C101.143 29.4558 101.525 26.7583 101.531 24.0469Z" fill="#FFDD33"/>
<path d="M110.438 73.0312H81.9375C81.4651 73.0312 81.012 72.8436 80.678 72.5095C80.3439 72.1755 80.1562 71.7224 80.1562 71.25V46.3125H83.7188V69.4688H110.438V73.0312Z" fill="#E2E7F6"/>
<path d="M87.2812 62.3438H110.438V65.9062H87.2812V62.3438Z" fill="#E2E7F6"/>
</svg>
