<svg width="334" height="240" viewBox="0 0 334 240" fill="none" xmlns="http://www.w3.org/2000/svg">
<path d="M285.902 18.4V185.2C285.902 188.7 283.102 191.6 279.502 191.6H92.0016C88.5016 191.6 85.6016 188.7 85.6016 185.2V18.4C85.6016 14.9 88.5016 12 92.0016 12H279.502C283.102 12 285.902 14.9 285.902 18.4Z" fill="#F9FAFB"/>
<path d="M285.902 18.4V29.3H85.6016V18.4C85.6016 14.9 88.4016 12 92.0016 12H279.502C283.102 12 285.902 14.8 285.902 18.4Z" fill="#002548"/>
<path d="M94.8031 23.2996C96.2391 23.2996 97.4031 22.1356 97.4031 20.6996C97.4031 19.2637 96.2391 18.0996 94.8031 18.0996C93.3672 18.0996 92.2031 19.2637 92.2031 20.6996C92.2031 22.1356 93.3672 23.2996 94.8031 23.2996Z" fill="#ED1C24"/>
<path d="M104.6 23.2996C106.036 23.2996 107.2 22.1356 107.2 20.6996C107.2 19.2637 106.036 18.0996 104.6 18.0996C103.164 18.0996 102 19.2637 102 20.6996C102 22.1356 103.164 23.2996 104.6 23.2996Z" fill="#FFDD33"/>
<path d="M114.303 23.2996C115.739 23.2996 116.903 22.1356 116.903 20.6996C116.903 19.2637 115.739 18.0996 114.303 18.0996C112.867 18.0996 111.703 19.2637 111.703 20.6996C111.703 22.1356 112.867 23.2996 114.303 23.2996Z" fill="#54CC5A"/>
<path opacity="0.35" d="M212.901 101.3H174.901C173.501 101.3 172.301 102.4 172.301 103.9V107.1C172.301 108.5 173.401 109.7 174.901 109.7H212.901C214.301 109.7 215.501 108.6 215.501 107.1V103.9C215.501 102.4 214.301 101.3 212.901 101.3Z" fill="#0054A6"/>
<path d="M212.901 113.2H174.901C173.501 113.2 172.301 114.3 172.301 115.8V144.8C172.301 146.2 173.401 147.4 174.901 147.4H212.901C214.301 147.4 215.501 146.3 215.501 144.8V115.8C215.501 114.4 214.301 113.2 212.901 113.2Z" fill="#D2D9DC"/>
<path opacity="0.35" d="M267.902 41.7002H243.602V44.1002H267.902V41.7002Z" fill="#0054A6"/>
<path opacity="0.35" d="M271.602 49.2002H243.602V51.6002H271.602V49.2002Z" fill="#0054A6"/>
<path opacity="0.35" d="M258.102 56.7002H243.602V59.1002H258.102V56.7002Z" fill="#0054A6"/>
<path opacity="0.35" d="M265.902 64.2998H243.602V66.6998H265.902V64.2998Z" fill="#0054A6"/>
<path d="M202.701 169.1H96.3008V171.6H202.701V169.1Z" fill="#D2D9DC"/>
<path d="M211.301 174.9H96.3008V177.4H211.301V174.9Z" fill="#D2D9DC"/>
<path d="M271.902 183.6H262.502C259.702 183.6 257.402 181.3 257.402 178.5V169C257.402 166.2 259.702 163.9 262.502 163.9H271.902C274.702 163.9 277.002 166.2 277.002 169V178.4C277.002 181.3 274.702 183.6 271.902 183.6Z" fill="#D2D9DC"/>
<path d="M268.201 169.9H266.301V177.7H268.201V169.9Z" fill="#F9FAFB"/>
<path d="M271.074 174.755V172.854H263.274V174.755H271.074Z" fill="#F9FAFB"/>
<path d="M100.103 38.7998H99.7031V81.9998H100.103V38.7998Z" fill="#D2D9DC"/>
<path d="M129.4 38.7998H129V81.9998H129.4V38.7998Z" fill="#D2D9DC"/>
<path d="M158.701 38.7998H158.301V81.9998H158.701V38.7998Z" fill="#D2D9DC"/>
<path d="M187.9 38.7998H187.5V81.9998H187.9V38.7998Z" fill="#D2D9DC"/>
<path d="M217.201 38.7998H216.801V81.9998H217.201V38.7998Z" fill="#D2D9DC"/>
<path d="M104.602 84.5996H99.9023V86.0996H104.602V84.5996Z" fill="#D2D9DC"/>
<path d="M106.902 33.5H99.9023V34.6H106.902V33.5Z" fill="#D2D9DC"/>
<path d="M109.802 35.5996H99.9023V36.6996H109.802V35.5996Z" fill="#D2D9DC"/>
<path d="M137.102 33.5H128.902V34.6H137.102V33.5Z" fill="#D2D9DC"/>
<path d="M134.202 35.5996H128.902V36.6996H134.202V35.5996Z" fill="#D2D9DC"/>
<path d="M163.803 33.5H158.703V34.6H163.803V33.5Z" fill="#D2D9DC"/>
<path d="M164.603 35.5996H158.703V36.6996H164.603V35.5996Z" fill="#D2D9DC"/>
<path d="M195.4 33.5H188V34.6H195.4V33.5Z" fill="#D2D9DC"/>
<path d="M193.9 35.5996H188V36.6996H193.9V35.5996Z" fill="#D2D9DC"/>
<path d="M221.4 33.5H217V34.6H221.4V33.5Z" fill="#D2D9DC"/>
<path d="M220.6 35.5996H217V36.6996H220.6V35.5996Z" fill="#D2D9DC"/>
<path d="M133.903 84.5996H129.203V86.0996H133.903V84.5996Z" fill="#D2D9DC"/>
<path d="M163.403 84.5996H158.703V86.0996H163.403V84.5996Z" fill="#D2D9DC"/>
<path d="M192.7 84.5996H188V86.0996H192.7V84.5996Z" fill="#D2D9DC"/>
<path d="M221.903 84.5996H217.203V86.0996H221.903V84.5996Z" fill="#D2D9DC"/>
<path d="M206.902 69.1999C197.802 69.1999 189.802 65.2999 181.502 61.0999C171.302 55.9999 160.702 50.7999 146.602 52.1999C137.602 53.0999 132.002 56.7999 127.002 59.9999C122.502 62.8999 118.202 65.4999 112.502 65.6999C103.202 66.0999 99.9023 62.0999 99.9023 61.7999V59.1999C99.9023 59.1999 101.902 63.6999 112.502 63.6999C117.702 63.6999 121.502 61.1999 126.002 58.2999C131.202 54.8999 137.002 51.1999 146.502 50.1999C161.102 48.6999 172.002 54.0999 182.402 59.2999C193.402 64.6999 203.802 69.8999 217.002 65.3999V67.4999C213.302 68.7999 210.302 69.1999 206.902 69.1999Z" fill="#ED1C24"/>
<path d="M152.1 68.6999C145.4 68.6999 140 64.1999 134.8 59.6999C130.8 56.2999 126.7 52.8999 122 51.1999C107.5 45.9999 100.1 55.4999 100 55.5999V52.6999C100.1 52.5999 101.4 50.8999 105.2 49.1999C108.7 47.6999 114.5 46.4999 122.6 49.2999C127.7 51.0999 132 54.6999 136.1 58.1999C144.4 65.2999 151.6 71.3999 164.1 61.7999C173.6 54.5999 182.5 47.6999 191.3 45.0999C199.9 42.5999 208.8 44.3999 217.2 52.7999L217.1 55.3999C199.3 37.4999 184.2 48.8999 165.3 63.2999C160.2 67.1999 155.9 68.6999 152.1 68.6999Z" fill="#0054A6"/>
<path d="M155.003 103.4V208.6C155.003 210.8 153.203 212.7 151.003 212.7H32.7031C30.5031 212.7 28.7031 210.9 28.7031 208.6V103.4C28.7031 101.2 30.5031 99.4004 32.7031 99.4004H151.003C153.203 99.4004 155.003 101.2 155.003 103.4Z" fill="#F9FAFB"/>
<path d="M155.002 103.4V110.3H28.6016V103.4C28.6016 101.2 30.4016 99.4004 32.6016 99.4004H151.002C153.202 99.4004 155.002 101.2 155.002 103.4Z" fill="#002548"/>
<path d="M34.5008 106.501C35.4397 106.501 36.2008 105.739 36.2008 104.801C36.2008 103.862 35.4397 103.101 34.5008 103.101C33.5619 103.101 32.8008 103.862 32.8008 104.801C32.8008 105.739 33.5619 106.501 34.5008 106.501Z" fill="#ED1C24"/>
<path d="M40.6023 106.501C41.5412 106.501 42.3023 105.739 42.3023 104.801C42.3023 103.862 41.5412 103.101 40.6023 103.101C39.6635 103.101 38.9023 103.862 38.9023 104.801C38.9023 105.739 39.6635 106.501 40.6023 106.501Z" fill="#FFDD33"/>
<path d="M46.8016 106.501C47.7404 106.501 48.5016 105.739 48.5016 104.801C48.5016 103.862 47.7404 103.101 46.8016 103.101C45.8627 103.101 45.1016 103.862 45.1016 104.801C45.1016 105.739 45.8627 106.501 46.8016 106.501Z" fill="#54CC5A"/>
<path d="M115.502 196.801H40.9023V199.301H115.502V196.801Z" fill="#ED1C24"/>
<path d="M96.3023 185.101H40.9023V187.601H96.3023V185.101Z" fill="#ED1C24"/>
<path d="M100.802 190.9H40.9023V193.4H100.802V190.9Z" fill="#ED1C24"/>
<path d="M79.8023 196.801H40.9023V199.301H79.8023V196.801Z" fill="#ED1C24"/>
<path d="M99.6023 156.6L99.5023 155.9L83.4023 158.6L78.2023 169.7L60.8023 170.9L55.2023 179.2L41.9023 178.9V179.5L55.5023 179.9L61.2023 171.5L78.6023 170.4L83.9023 159.2L99.6023 156.6Z" fill="#54CC5A"/>
<path opacity="0.35" d="M120 124.7H137.4C138.5 124.7 139.4 123.8 139.4 122.7C139.4 121.6 138.5 120.7 137.4 120.7H120C118.9 120.7 118 121.6 118 122.7C118 123.8 118.9 124.7 120 124.7Z" fill="#0054A6"/>
<path opacity="0.35" d="M120 131.601H137.4C138.5 131.601 139.4 130.701 139.4 129.601C139.4 128.501 138.5 127.601 137.4 127.601H120C118.9 127.601 118 128.501 118 129.601C118 130.701 118.9 131.601 120 131.601Z" fill="#0054A6"/>
<path opacity="0.35" d="M120 138.5H137.4C138.5 138.5 139.4 137.6 139.4 136.5C139.4 135.4 138.5 134.5 137.4 134.5H120C118.9 134.5 118 135.4 118 136.5C118 137.6 118.9 138.5 120 138.5Z" fill="#0054A6"/>
<path d="M103.702 129.601H42.9016C41.3016 129.601 40.1016 128.301 40.1016 126.801V122.901C40.1016 121.301 41.4016 120.101 42.9016 120.101H103.702C105.302 120.101 106.502 121.401 106.502 122.901V126.801C106.502 128.301 105.202 129.601 103.702 129.601Z" fill="#0054A6"/>
<path opacity="0.35" d="M103.702 143.301H42.9016C41.3016 143.301 40.1016 142.001 40.1016 140.501V136.601C40.1016 135.001 41.4016 133.801 42.9016 133.801H103.702C105.302 133.801 106.502 135.101 106.502 136.601V140.501C106.502 142.001 105.202 143.301 103.702 143.301Z" fill="#0054A6"/>
<g opacity="0.35">
<path d="M138.2 167.8C133.8 161.8 126.2 159.6 119.5 161.8C117.9 162.3 116.3 163.1 114.9 164.2C110.5 167.4 108.1 172.4 108.1 177.5C108 181 109.1 184.6 111.3 187.6C111.5 187.9 111.8 188.2 112 188.5C113.1 189.8 114.3 190.9 115.7 191.8C121.4 195.5 128.9 195.5 134.7 191.3C142.1 185.7 143.7 175.2 138.2 167.8ZM132.1 187.8C127.8 191 122.1 191 117.8 188.2C116.8 187.5 115.9 186.7 115 185.8C114.8 185.6 114.6 185.4 114.5 185.1C112.8 182.8 112 180.1 112.1 177.5C112.2 173.7 113.9 170 117.2 167.6C118.3 166.8 119.5 166.2 120.7 165.8C125.7 164.1 131.4 165.8 134.7 170.3C138.9 175.8 137.7 183.7 132.1 187.8Z" fill="#0054A6"/>
</g>
<path d="M112.2 177.5L108 177.4C108.1 172.3 110.4 167.4 114.8 164.1C116.3 163 117.8 162.2 119.4 161.7L120.7 165.7C119.5 166.1 118.3 166.7 117.2 167.5C114 169.9 112.3 173.7 112.2 177.5Z" fill="#0054A6"/>
<path d="M115.102 185.7L111.902 188.4C111.702 188.1 111.402 187.8 111.202 187.5C109.002 184.4 107.902 180.9 108.002 177.4L112.202 177.5C112.202 180.1 112.902 182.8 114.602 185.1C114.802 185.3 115.002 185.5 115.102 185.7Z" fill="#FFDD33"/>
<path d="M115.602 191.7C114.302 190.8 113.002 189.7 111.902 188.4L115.102 185.7C115.902 186.7 116.802 187.5 117.902 188.1L115.602 191.7Z" fill="#ED1C24"/>
<path d="M305.4 125.7V224.2C305.4 226.3 303.7 228 301.6 228H235.3C233.2 228 231.5 226.3 231.5 224.2V125.7C231.5 123.6 233.2 121.9 235.3 121.9H301.6C303.7 122 305.4 123.6 305.4 125.7Z" fill="#F9FAFB"/>
<path d="M305.402 125.7V132.2H231.602V125.7C231.602 123.6 233.302 121.9 235.402 121.9H301.702C303.702 122 305.402 123.6 305.402 125.7Z" fill="#002548"/>
<path d="M236.901 128.7C237.784 128.7 238.501 127.984 238.501 127.1C238.501 126.216 237.784 125.5 236.901 125.5C236.017 125.5 235.301 126.216 235.301 127.1C235.301 127.984 236.017 128.7 236.901 128.7Z" fill="#ED1C24"/>
<path d="M242.702 128.7C243.585 128.7 244.302 127.984 244.302 127.1C244.302 126.216 243.585 125.5 242.702 125.5C241.818 125.5 241.102 126.216 241.102 127.1C241.102 127.984 241.818 128.7 242.702 128.7Z" fill="#FFDD33"/>
<path d="M248.401 128.7C249.284 128.7 250.001 127.984 250.001 127.1C250.001 126.216 249.284 125.5 248.401 125.5C247.517 125.5 246.801 126.216 246.801 127.1C246.801 127.984 247.517 128.7 248.401 128.7Z" fill="#54CC5A"/>
<path d="M292.399 199.101H242.099C241.299 199.101 240.699 198.501 240.699 197.701V196.701C240.699 195.901 241.299 195.301 242.099 195.301H292.399C293.199 195.301 293.799 195.901 293.799 196.701V197.701C293.799 198.501 293.099 199.101 292.399 199.101Z" fill="#D2D9DC"/>
<path d="M277.099 207.401H242.099C241.299 207.401 240.699 206.801 240.699 206.001V205.001C240.699 204.201 241.299 203.601 242.099 203.601H277.099C277.899 203.601 278.499 204.201 278.499 205.001V206.001C278.499 206.801 277.799 207.401 277.099 207.401Z" fill="#D2D9DC"/>
<path d="M284.199 215.8H242.099C241.299 215.8 240.699 215.2 240.699 214.4V213.4C240.699 212.6 241.299 212 242.099 212H284.199C284.999 212 285.599 212.6 285.599 213.4V214.4C285.599 215.1 284.899 215.8 284.199 215.8Z" fill="#D2D9DC"/>
<path d="M290.101 187.4H246.301C243.001 187.4 240.301 184.7 240.301 181.4V142.7C240.301 139.4 243.001 136.7 246.301 136.7H290.101C293.401 136.7 296.101 139.4 296.101 142.7V181.4C296.101 184.7 293.401 187.4 290.101 187.4ZM246.301 137.4C243.401 137.4 241.001 139.8 241.001 142.7V181.4C241.001 184.3 243.401 186.7 246.301 186.7H290.101C293.001 186.7 295.401 184.3 295.401 181.4V142.7C295.401 139.8 293.001 137.4 290.101 137.4H246.301Z" fill="#0054A6"/>
</svg>
