<svg width="100" height="100" viewBox="0 0 100 100" fill="none" xmlns="http://www.w3.org/2000/svg">
<rect width="100" height="100" fill="white"/>
<g clip-path="url(#clip0_14347_33526)">
<path d="M86.5683 51.1558C86.5683 65.7782 69.2196 74.8376 49.999 74.8376C30.7783 74.8376 13.4297 65.7782 13.4297 51.1558C13.4297 36.5306 30.7783 19.0066 49.999 19.0066C69.2196 19.0066 86.5683 36.5313 86.5683 51.1558Z" fill="#F4D647"/>
<path d="M86.5683 51.1557C86.5683 65.778 69.2196 73.894 49.999 73.894C30.7783 73.894 13.4297 65.778 13.4297 51.1557C13.4297 36.5305 30.7783 26.4541 49.999 26.4541C69.2196 26.4541 86.5683 36.5312 86.5683 51.1557Z" fill="#E2B90E"/>
<path d="M57.4109 71.3064C57.4109 72.2915 54.0934 72.4683 50.0007 72.4683C45.9081 72.4683 42.5898 72.2915 42.5898 71.3064C42.5898 70.3198 45.9074 67.7441 50.0007 67.7441C54.0927 67.7441 57.4109 70.3205 57.4109 71.3064Z" fill="#E2B90E"/>
<path d="M86.5683 51.1551C86.5683 36.5285 80.3724 64.1254 49.999 64.1254C19.6263 64.1254 13.4297 36.5292 13.4297 51.1551C13.4297 59.6318 20.3413 65.6431 27.8088 71.9627L43.1977 85.7421C46.953 88.9769 53.045 88.9769 56.8003 85.7421L72.1878 71.9641C79.6581 64.8192 86.5683 59.5992 86.5683 51.1551Z" fill="#E0A010"/>
<path d="M63.768 79.5032C60.4207 75.6617 55.4957 73.231 49.9999 73.231C44.5042 73.231 39.5791 75.6624 36.2305 79.5047L43.1972 85.7423C46.9525 88.9771 53.0445 88.9771 56.7998 85.7423L63.768 79.5032Z" fill="#F4EC8E"/>
<path d="M87.6313 51.1554C87.6313 36.2056 70.2671 17.9453 50.0012 17.9453C29.7353 17.9453 12.3711 36.2063 12.3711 51.1554C12.3711 56.6313 14.5705 60.6447 18.4927 64.0012C18.5012 64.0097 18.504 64.0217 18.5125 64.0309L42.456 87.6094C42.4722 87.6256 42.4899 87.6426 42.5076 87.6575C44.5734 89.4368 47.2869 90.3258 50.0012 90.3258C52.7148 90.3258 55.4291 89.4354 57.4949 87.6575C57.5132 87.6419 57.5309 87.6256 57.5479 87.6094L81.3697 64.1249C85.381 60.7438 87.6313 56.6978 87.6313 51.1554ZM56.084 86.0719C52.7219 88.9432 47.2799 88.9439 43.9178 86.0712L37.4715 79.7232C40.7205 76.2657 45.248 74.2911 50.0012 74.2911C54.7523 74.2911 59.2785 76.2636 62.5274 79.719L56.084 86.0719ZM64.0394 78.2296C60.393 74.3718 55.3237 72.1702 50.0026 72.1702C44.6787 72.1702 39.6073 74.3732 35.9609 78.2346L26.8789 69.2918C28.1773 69.9389 29.55 70.5754 30.992 71.2112C31.5274 71.4474 32.1547 71.2049 32.3909 70.6688C32.6271 70.1327 32.3845 69.5061 31.8485 69.2699C21.1342 64.5436 14.4934 59.8647 14.4934 51.1554C14.4934 37.4517 31.212 20.067 50.0019 20.067C68.7919 20.067 85.5104 37.4517 85.5104 51.1554C85.5104 55.0252 84.1936 58.0967 81.7968 60.7331C81.7884 60.7409 81.777 60.743 81.7693 60.7515L80.3669 62.1341C77.3916 64.7911 73.2403 67.028 68.1568 69.2706C67.6207 69.5068 67.3782 70.1334 67.6144 70.6695C67.7898 71.0662 68.178 71.3024 68.5861 71.3024C68.7289 71.3024 68.8746 71.2735 69.0132 71.2119C70.4404 70.5825 71.7997 69.9524 73.0868 69.3116L64.0394 78.2296Z" fill="#33363A"/>
<path d="M12.1019 10.7354C6.71008 16.183 4.53823 24.0854 7.21645 31.304C9.89325 38.5267 16.691 43.1017 24.3331 43.7191C29.7256 38.2686 34.8572 33.6774 32.179 26.4546C29.5022 19.2346 19.7447 11.3513 12.1019 10.7354Z" fill="#E2B90E"/>
<path d="M12.1019 10.7354C6.71008 16.183 4.53823 24.0854 7.21645 31.304C9.89325 38.5267 16.691 43.1017 24.3331 43.7191C29.7256 38.2686 19.7334 39.4772 17.0552 32.2544C14.377 25.0345 19.7447 11.3513 12.1019 10.7354Z" fill="#F4EC8E"/>
<path d="M17.054 32.2541C14.8631 26.3461 18.054 16.1169 15.1014 12.2534C10.7251 17.5915 9.12968 24.7273 11.5696 31.3036C13.7966 37.3121 18.8786 41.4797 24.9232 43.0695C28.8864 38.3595 19.6191 39.1728 17.054 32.2541Z" fill="#DBD279"/>
<path d="M24.331 44.7802C24.0616 44.7802 23.7914 44.6777 23.5849 44.4733C23.1684 44.061 23.1648 43.3899 23.5771 42.9733C24.7907 41.7463 24.8636 41.1834 24.8388 40.9981C24.7688 40.4783 23.6146 39.8121 22.4972 39.1678C20.3438 37.9252 17.3933 36.2244 16.0588 32.6232C14.9548 29.6487 15.1182 25.8283 15.2752 22.1324C15.5404 15.9061 15.5248 12.0759 12.0149 11.793C11.4308 11.7463 10.9958 11.2343 11.0425 10.6508C11.0892 10.0667 11.5955 9.63809 12.1854 9.67841C17.9095 10.1395 17.6479 16.2824 17.3954 22.223C17.2469 25.7081 17.0934 29.3114 18.0482 31.8856C19.1175 34.7682 21.58 36.189 23.5581 37.3298C25.2617 38.3128 26.7327 39.1607 26.9421 40.7145C27.0934 41.8404 26.5036 43.0313 25.0856 44.4648C24.8777 44.6749 24.6047 44.7802 24.331 44.7802Z" fill="#33363A"/>
<path d="M24.3341 44.7797C24.3051 44.7797 24.2768 44.7783 24.2478 44.7761C15.8737 44.0993 8.96632 39.0781 6.22091 31.6722C3.4741 24.2677 5.43803 15.9586 11.3475 9.98902C11.5674 9.76625 11.8708 9.65451 12.187 9.67784C20.2153 10.3249 31.4182 20.7641 34.2428 28.3822C34.4465 28.931 34.1665 29.5421 33.617 29.7457C33.0674 29.9473 32.4571 29.6694 32.2534 29.1199C29.7464 22.3589 19.6792 12.8101 12.5038 11.8447C7.45571 17.192 5.80861 24.4607 8.21031 30.9346C10.6658 37.5583 16.8758 42.052 24.4175 42.6609C25.0017 42.7075 25.4366 43.2196 25.3899 43.8037C25.3454 44.3589 24.8815 44.7797 24.3341 44.7797Z" fill="#33363A"/>
<path d="M20.3412 50.2032C20.1 50.2032 19.8582 50.1218 19.6594 49.9542C19.2111 49.5773 19.1531 48.9083 19.53 48.4592C21.8186 45.7378 24.436 42.3658 24.6722 41.6636C24.7648 41.0851 25.2966 40.7138 25.8808 40.8156C26.4593 40.9083 26.8461 41.4832 26.7528 42.0617C26.5717 43.1911 23.6078 46.9076 21.1531 49.8262C20.9437 50.0745 20.6439 50.2032 20.3412 50.2032Z" fill="#33363A"/>
<path d="M87.9001 10.7354C93.2919 16.183 95.4645 24.0854 92.7855 31.304C90.1087 38.5267 83.3103 43.1017 75.6688 43.7191C70.277 38.2686 65.1441 33.6774 67.8223 26.4546C70.5012 19.2346 80.2573 11.3513 87.9001 10.7354Z" fill="#E2B90E"/>
<path d="M87.8971 10.7354C93.2889 16.183 95.4614 24.0854 92.7825 31.304C90.1057 38.5267 83.3073 43.1017 75.6658 43.7191C70.274 38.2686 80.2662 39.4772 82.9445 32.2544C85.6213 25.0345 80.2542 11.3513 87.8971 10.7354Z" fill="#F4EC8E"/>
<path d="M82.9437 32.2541C85.1346 26.3461 81.9437 16.1169 84.8956 12.2534C89.2726 17.5922 90.8673 24.728 88.4274 31.3043C86.2011 37.3128 81.1184 41.4804 75.0738 43.0702C71.1106 38.3595 80.3772 39.1728 82.9437 32.2541Z" fill="#DBD279"/>
<path d="M75.6679 44.7793C75.3942 44.7793 75.1212 44.6746 74.914 44.4646C73.4967 43.0318 72.9069 41.8401 73.0582 40.7142C73.2676 39.1612 74.7386 38.3125 76.4423 37.3295C78.4203 36.1888 80.8829 34.7687 81.9522 31.8854C82.9062 29.3118 82.7527 25.7093 82.6042 22.2241C82.351 16.2835 82.0887 10.1393 87.8143 9.67816C88.4062 9.63997 88.9104 10.0664 88.9571 10.6506C89.0038 11.234 88.5688 11.746 87.9847 11.7927C84.4741 12.0756 84.4585 15.9066 84.7237 22.1336C84.8814 25.8288 85.0441 29.6492 83.9416 32.623C82.6063 36.2241 79.6565 37.925 77.5024 39.1675C76.3857 39.8118 75.2315 40.478 75.1608 40.9978C75.136 41.1831 75.2089 41.7468 76.4225 42.9731C76.8348 43.3896 76.8312 44.0608 76.414 44.4731C76.2075 44.6767 75.938 44.7793 75.6679 44.7793Z" fill="#33363A"/>
<path d="M75.6666 44.7795C75.1193 44.7795 74.6553 44.3587 74.6101 43.8043C74.5627 43.2201 74.9976 42.7081 75.5825 42.6614C83.1249 42.0525 89.335 37.5589 91.7897 30.9351C94.1921 24.4613 92.545 17.1918 87.4969 11.8453C80.3215 12.8106 70.2543 22.3594 67.7473 29.1204C67.5436 29.6692 66.9333 29.9492 66.3838 29.7463C65.8343 29.5426 65.5542 28.9323 65.7579 28.3828C68.5825 20.7647 79.7855 10.3255 87.8137 9.67837C88.1277 9.65715 88.4326 9.76677 88.6532 9.98955C94.5627 15.9598 96.5273 24.2689 93.7798 31.6727C91.0351 39.0787 84.1277 44.0992 75.7536 44.776C75.7239 44.7781 75.6949 44.7795 75.6666 44.7795Z" fill="#33363A"/>
<path d="M79.6602 50.2025C79.3575 50.2025 79.0576 50.0738 78.8476 49.8249C76.3929 46.9062 73.4282 43.1898 73.2479 42.0604C73.1552 41.4826 73.5492 40.938 74.1277 40.8454C74.704 40.7513 75.25 41.1473 75.3426 41.7258C75.5654 42.3659 78.1828 45.7379 80.4714 48.4592C80.8483 48.9076 80.791 49.5766 80.3419 49.9536C80.1432 50.1205 79.9013 50.2025 79.6602 50.2025Z" fill="#33363A"/>
<path d="M43.045 71.1668C42.6221 71.1668 42.2225 70.9129 42.0578 70.4957C42.0408 70.4525 40.4474 66.4221 39.9729 65.3061C38.7982 64.3479 30.4644 59.8804 24.7536 56.9271C24.2331 56.6583 24.0295 56.0183 24.2982 55.4978C24.5669 54.9773 25.2077 54.7736 25.7275 55.0423C41.3166 63.1025 41.6737 63.9037 41.8449 64.2892C42.2261 65.1491 43.9573 69.5303 44.0309 69.717C44.2466 70.2623 43.9793 70.8783 43.434 71.0933C43.306 71.1435 43.1744 71.1668 43.045 71.1668Z" fill="#33363A"/>
<path d="M56.9587 71.1664C56.8293 71.1664 56.697 71.1431 56.5697 71.0929C56.0245 70.8772 55.7579 70.2612 55.9729 69.7167C56.0464 69.53 57.777 65.1481 58.1588 64.2895C58.3293 63.9048 58.6857 63.1028 74.2741 55.0434C74.7939 54.7739 75.4347 54.9783 75.7034 55.4988C75.9721 56.0193 75.7685 56.6594 75.248 56.9281C69.5372 59.8814 61.2027 64.3482 60.0294 65.3072C59.5542 66.4217 57.9622 70.4536 57.9453 70.4967C57.7812 70.9126 57.3809 71.1664 56.9587 71.1664Z" fill="#33363A"/>
<path d="M47.9974 84.5904C47.5603 84.5904 47.1509 84.3181 46.9967 83.8825L46.3418 82.026C46.1473 81.4737 46.4366 80.8676 46.9896 80.6724C47.5427 80.4808 48.148 80.7679 48.3432 81.3202L48.9981 83.1767C49.1926 83.729 48.9033 84.3351 48.3503 84.5303C48.2336 84.5706 48.1148 84.5904 47.9974 84.5904Z" fill="#33363A"/>
<path d="M52.0065 84.5907C51.8891 84.5907 51.7703 84.5716 51.6536 84.5305C51.1013 84.3354 50.8113 83.7293 51.0058 83.1769L51.6607 81.3205C51.8552 80.7682 52.4612 80.4803 53.0143 80.6727C53.5666 80.8679 53.8566 81.474 53.6621 82.0263L53.0072 83.8827C52.8537 84.3184 52.4436 84.5907 52.0065 84.5907Z" fill="#33363A"/>
</g>
<defs>
<clipPath id="clip0_14347_33526">
<rect width="90" height="90" fill="white" transform="translate(5 5)"/>
</clipPath>
</defs>
</svg>
