<svg width="54" height="65" viewBox="0 0 54 65" fill="none" xmlns="http://www.w3.org/2000/svg">
<path d="M14.2075 64.9429C14.0931 64.9429 13.9696 64.9146 13.8838 64.8009L10.2115 60.066V64.8957H9.37402V58.9485C9.37402 58.7119 9.57385 58.5225 9.8024 58.5225C9.93543 58.5225 10.0497 58.5603 10.1351 58.674L13.7982 63.3995V58.5887H14.6356V64.5263C14.6356 64.7726 14.4357 64.9429 14.2075 64.9429Z" fill="#1A1918"/>
<path d="M21.1344 65.0001C20.2973 65.0001 19.4218 64.8295 18.6035 64.5266L18.8034 63.8447C19.5551 64.0815 20.3733 64.2519 21.1344 64.2519C22.1906 64.2519 22.7424 63.8826 22.7424 63.3618C22.7424 62.8882 22.3141 62.6515 20.8394 61.9696C19.3647 61.2878 18.7845 60.8523 18.7845 59.9999C18.7845 58.93 19.6216 58.4941 21.2009 58.4941C21.8575 58.4941 22.8659 58.6269 23.4465 58.7973L23.3132 59.498C22.6756 59.3466 21.8766 59.2424 21.22 59.2424C20.107 59.2424 19.6503 59.4506 19.6503 59.9716C19.6503 60.4829 19.9831 60.7007 21.5435 61.411C23.1896 62.1591 23.6082 62.538 23.6082 63.3144C23.6082 64.4414 22.5234 65.0001 21.1344 65.0001Z" fill="#1A1918"/>
<path d="M27.5752 58.5889H28.441V64.8957H27.5752V58.5889Z" fill="#1A1918"/>
<path d="M35.8063 62.0359H33.6557V64.1762H35.8063C36.5388 64.1762 36.986 63.7215 36.986 63.087C36.986 62.4903 36.5198 62.0359 35.8063 62.0359ZM35.3874 59.3085H33.6557V61.3256H35.3874C36.0821 61.3256 36.5863 60.8899 36.5863 60.2839C36.5863 59.6873 36.1486 59.3085 35.3874 59.3085ZM35.8157 64.8957H33.2279C32.9803 64.8957 32.79 64.7062 32.79 64.4696V59.015C32.79 58.7876 32.9803 58.5889 33.2279 58.5889H35.3685C36.6815 58.5889 37.4616 59.2233 37.4616 60.2177C37.4616 60.7574 37.1381 61.2593 36.6433 61.5529C37.3762 61.7707 37.8706 62.3673 37.8706 63.087C37.8706 64.0908 37.024 64.8957 35.8157 64.8957Z" fill="#1A1918"/>
<path d="M42.0285 64.8957C41.791 64.8957 41.6006 64.6968 41.6006 64.4696V58.5889H42.4662V64.1287H45.9105V64.8957H42.0285Z" fill="#1A1918"/>
<path d="M51.8129 65.0001C50.0432 65.0001 48.9775 64.3562 48.9775 63.0588C48.9775 62.4432 49.3297 61.8561 50.0148 61.5815C49.4629 61.2405 49.1775 60.7576 49.1775 60.2273C49.1775 59.0531 50.1007 58.4941 51.8321 58.4941C52.4125 58.4941 53.2307 58.5605 53.9158 58.7122L53.8205 59.4128C53.0976 59.2991 52.4218 59.233 51.7654 59.233C50.6426 59.233 50.0432 59.5359 50.0432 60.2652C50.0432 60.8429 50.5951 61.2974 51.3279 61.2974H52.812C53.0213 61.2974 53.183 61.4584 53.183 61.6572C53.183 61.8655 53.0213 62.0265 52.812 62.0265H51.2138C50.3763 62.0265 49.8437 62.4336 49.8437 63.0588C49.8437 63.9773 50.7095 64.2519 51.7941 64.2519C52.3841 64.2519 53.183 64.1764 53.8299 64.0248L53.9539 64.716C53.3353 64.8865 52.5265 65.0001 51.8129 65.0001Z" fill="#1A1918"/>
<path d="M2.93096 59.7716L4.44728 63.4964L2.15717 61.7009L2.93096 59.7716ZM5.62476 64.3546L3.29254 58.7678C3.22599 58.6068 3.09271 58.5215 2.93096 58.5215C2.76921 58.5215 2.6265 58.6068 2.55995 58.7678L0 64.8957H0.875555L1.88906 62.3693L4.913 64.801C5.03463 64.8988 5.12235 64.943 5.23667 64.943C5.46489 64.943 5.66472 64.7726 5.66472 64.5265C5.66472 64.4865 5.65036 64.423 5.62476 64.3546Z" fill="#1A1918"/>
<path d="M54.0003 26.4208C54.0003 41.0131 41.9356 52.8413 27.0514 52.8413C12.1685 52.8413 0.102539 41.0131 0.102539 26.4208C0.102539 11.8296 12.1685 0 27.0514 0C41.9356 0 54.0003 11.8296 54.0003 26.4208Z" fill="#1A1918"/>
<path d="M27.5049 16.1394L34.4787 33.0143L23.9449 24.8793L27.5049 16.1394ZM39.8938 36.9016L29.1666 11.5918C28.8604 10.8618 28.248 10.4756 27.5049 10.4756C26.7603 10.4756 26.1035 10.8618 25.7972 11.5918L14.0234 39.3535H18.0511L22.7118 27.9072L36.6205 38.9236C37.1799 39.3671 37.5836 39.5677 38.1082 39.5677C39.159 39.5677 40.0774 38.7954 40.0774 37.6806C40.0774 37.4992 40.0121 37.2113 39.8938 36.9016Z" fill="white"/>
</svg>
