<svg width="130" height="50" viewBox="0 0 130 50" fill="none" xmlns="http://www.w3.org/2000/svg">
<path d="M74.9934 15.6496C74.3439 16.3496 73.9941 17.2496 73.9941 18.1996V38.1496H80.9888V9.34961L74.9934 15.6496Z" fill="#2621F6"/>
<path d="M80.9888 0H73.9941V10.65L80.9888 3.25V0Z" fill="#2621F6"/>
<path d="M70.996 13.25C70.8461 7.2 68.348 4.75 62.4525 4.75C59.7047 4.75 49.2627 4.8 49.2627 4.8V50H56.1074V38C57.2066 38 60.2043 38.05 62.4026 38.05C68.298 38.05 70.7462 35.6 70.8961 29.55C70.996 29.45 70.996 13.4 70.996 13.25ZM60.0544 32.45C57.4064 32.45 56.1574 32.45 56.1574 30.15V12.7C56.1574 10.4 57.4064 10.4 60.0544 10.4C62.6024 10.4 63.9514 10.4 63.9514 12.7V30.15C64.0014 32.45 62.6024 32.4 60.0544 32.45Z" fill="#2621F6"/>
<path d="M46.3143 13.25C46.1645 7.2 43.6664 4.75 37.7709 4.75C35.023 4.75 24.5811 4.8 24.5811 4.8V50H31.4258V38C32.5249 38 35.5226 38.05 37.7209 38.05C43.6164 38.05 46.0645 35.6 46.2144 29.55C46.3143 29.45 46.3143 13.4 46.3143 13.25ZM35.4227 32.45C32.7747 32.45 31.5257 32.45 31.5257 30.15V12.7C31.5257 10.4 32.7747 10.4 35.4227 10.4C37.9708 10.4 39.3197 10.4 39.3197 12.7V30.15C39.3197 32.45 37.9208 32.4 35.4227 32.45Z" fill="#2621F6"/>
<path d="M123.056 38.1498V12.7498C123.056 10.4498 121.657 10.4498 119.159 10.4498C116.511 10.4498 115.262 10.4498 115.262 12.7498V38.1498H108.417V4.8498H114.762C114.762 4.8498 118.759 4.7998 121.507 4.7998C127.402 4.7998 129.851 7.2498 130 13.2998C130 13.4498 130 38.1498 130 38.1498H123.056Z" fill="#2621F6"/>
<path d="M105.319 13.2998C105.169 7.2498 102.671 4.7998 96.8254 4.7998C96.5257 4.7998 90.2805 4.7998 88.0822 4.7998V10.4498C94.5272 10.4498 94.1275 10.4498 94.4273 10.4498C96.9753 10.4498 98.3243 10.4498 98.3243 12.7498V16.0498C97.1252 16.0498 94.2774 15.9998 92.179 15.9998C86.2835 15.9998 83.8354 18.4498 83.6855 24.4998C83.6855 24.6498 83.6855 29.5498 83.6855 29.6998C83.8354 35.7498 86.3335 38.1998 92.179 38.1998C94.9269 38.1998 105.369 38.1498 105.369 38.1498L105.319 13.2998ZM98.4742 30.1998C98.4742 32.4998 97.2251 32.4998 94.5772 32.4998C92.0291 32.4998 90.6802 32.4998 90.6802 30.1998V23.8998C90.6802 21.5998 92.0791 21.5998 94.5772 21.5998C97.2251 21.5998 98.4742 21.5998 98.4742 23.8998V30.1998Z" fill="#2621F6"/>
<path d="M21.6334 13.2998C21.4835 7.2498 18.9854 4.7998 13.1399 4.7998C12.8401 4.7998 4.39662 4.7998 4.39662 4.7998V10.4498C4.39662 10.4498 10.442 10.4498 10.7417 10.4498C13.2898 10.4498 14.6387 10.4498 14.6387 12.7498V16.0498C13.4397 16.0498 10.5919 15.9998 8.49347 15.9998C2.598 15.9998 0.149885 18.4498 0 24.4998C0 24.6498 0 29.5498 0 29.6998C0.0999231 35.3998 2.29823 37.8498 7.49423 38.1498L12.8401 32.4498C12.2905 32.4998 11.641 32.4998 10.8417 32.4998C8.29362 32.4998 6.94466 32.4998 6.94466 30.1998V23.8998C6.94466 21.5998 8.34358 21.5998 10.8417 21.5998C13.4896 21.5998 14.7387 21.5998 14.7387 23.8998V38.0998C14.9885 38.0998 21.5834 38.0998 21.5834 38.0998L21.6334 13.2998Z" fill="#2621F6"/>
</svg>
