<svg width="393" height="396" viewBox="0 0 393 396" fill="none" xmlns="http://www.w3.org/2000/svg">
<path d="M251.398 122.601H131.898V333.201H251.398V122.601Z" fill="#002548"/>
<path d="M251.398 141H131.898V323.3H251.398V141Z" fill="#F9FAFB"/>
<path opacity="0.19" d="M226.898 323.3H131.898V141L226.898 323.3Z" fill="#2D2F31"/>
<path d="M213.001 131.701C213.001 132.601 212.301 133.301 211.401 133.301C210.501 133.301 209.801 132.601 209.801 131.701C209.801 130.801 210.501 130.101 211.401 130.101C212.301 130.101 213.001 130.801 213.001 131.701Z" fill="white"/>
<path d="M208.502 131.701C208.502 132.601 207.802 133.301 206.902 133.301H171.702C170.802 133.301 170.102 132.601 170.102 131.701C170.102 130.801 170.802 130.101 171.702 130.101H206.902C207.802 130.101 208.502 130.801 208.502 131.701Z" fill="white"/>
<path d="M195.7 225.1C181.3 225.1 169.5 213.4 169.5 198.9C169.5 184.5 181.2 172.7 195.7 172.7C210.1 172.7 221.9 184.4 221.9 198.9C221.9 213.4 210.1 225.1 195.7 225.1ZM195.7 175.8C182.9 175.8 172.5 186.2 172.5 199C172.5 211.8 182.9 222.2 195.7 222.2C208.5 222.2 218.9 211.8 218.9 199C218.9 186.2 208.5 175.8 195.7 175.8Z" fill="#5F737C"/>
<path d="M195.698 231.3C177.898 231.3 163.398 216.8 163.398 199C163.398 181.2 177.898 166.7 195.698 166.7C213.498 166.7 227.998 181.2 227.998 199C227.998 216.8 213.498 231.3 195.698 231.3ZM195.698 169.6C179.498 169.6 166.398 182.7 166.398 198.9C166.398 215.1 179.498 228.2 195.698 228.2C211.898 228.2 224.998 215.1 224.998 198.9C224.998 182.8 211.898 169.6 195.698 169.6Z" fill="#5F737C"/>
<path d="M189.5 161.5L189 158.5C191.2 158.1 193.4 157.9 195.7 157.9V160.9C193.6 161 191.6 161.1 189.5 161.5Z" fill="#5F737C"/>
<path d="M177.802 165.6L176.402 163C178.602 161.8 181.002 160.8 183.402 160L184.302 162.9C182.102 163.5 179.902 164.4 177.802 165.6Z" fill="#5F737C"/>
<path d="M182.901 237.9C168.601 233.2 158.501 221.3 155.901 206.2C153.301 191.1 159.001 175.9 170.801 166.7L172.601 169.1C161.701 177.6 156.401 191.7 158.801 205.7C161.201 219.8 170.601 230.7 183.801 235.1L182.901 237.9Z" fill="#5F737C"/>
<path d="M195.702 239.901C193.302 239.901 190.802 239.701 188.402 239.301L188.902 236.301C191.102 236.701 193.402 236.901 195.702 236.901V239.901Z" fill="#5F737C"/>
<path d="M195.701 213.8C187.501 213.8 180.801 207.1 180.801 198.9C180.801 190.7 187.501 184 195.701 184C203.901 184 210.601 190.7 210.601 198.9C210.601 207.2 203.901 213.8 195.701 213.8ZM195.701 187C189.101 187 183.801 192.3 183.801 198.9C183.801 205.5 189.101 210.8 195.701 210.8C202.301 210.8 207.601 205.5 207.601 198.9C207.601 192.4 202.301 187 195.701 187Z" fill="#5F737C"/>
<path d="M288.499 323.1C276.799 324.6 267.399 326.2 261.099 323.7C251.499 322.5 235.599 306.8 235.599 306.8C220.499 294.6 207.099 285.7 207.099 285.7C198.499 279.5 205.699 274.9 205.699 274.9C216.499 266.3 235.999 280.7 243.899 287.2L233.799 269.5L190.699 203.9C187.899 199.6 187.499 194.4 192.199 191.2C198.299 187.1 202.499 191.9 204.399 194.8L243.699 254.6C246.799 252.5 246.799 252.5 246.799 252.5L225.899 220.8C223.999 217.9 223.799 213.2 228.699 210C233.899 206.5 237.999 209.2 239.899 212.1L260.499 243.5C261.999 242.5 261.999 242.5 263.099 241.8L244.299 213.2C242.399 210.3 240.499 205 246.299 201.2C252.199 197.3 256.099 201.2 258.099 204.1L276.899 232.7L279.799 230.8L263.899 206.6C260.699 201.8 263.799 197.9 266.699 195.9C269.599 194 275.099 193.7 277.999 198.1L311.499 249.1C311.699 249.4 311.799 249.7 311.899 249.9L315.699 255.5C331.799 282.8 323.199 301.2 321.799 301C295.799 306.8 288.499 323.1 288.499 323.1Z" fill="#0054A6"/>
<path d="M194.402 197.1C194.202 199 195.602 202.6 198.102 202.3C199.502 202.2 200.602 201.4 201.702 200.7C203.302 199.7 205.002 198.8 206.702 198.5L204.302 194.9C203.402 193.5 202.002 191.8 200.102 190.7C197.402 191.8 194.702 194.2 194.402 197.1Z" fill="#0054A6"/>
<path d="M205.5 216.2C206.7 219.7 209.4 222.8 211.5 225.8C212.5 227.2 213.5 229.1 215.4 228C216.8 227.2 218 226.3 219.3 225.3C220.4 224.5 221.7 223.7 223.1 223.5L212.5 207.4C211.8 208.2 210.9 208.9 210 209.6C207.9 211 204.5 213.1 205.5 216.2Z" fill="#0054A6"/>
<path d="M243.399 254.401L241.999 252.301C239.399 254.701 235.799 257.001 232.599 257.401C228.199 257.901 225.199 249.801 223.599 246.701C221.999 243.701 217.799 237.901 222.099 235.401C223.299 234.701 224.699 234.201 225.799 233.201C226.699 232.501 227.499 231.601 227.799 230.601L223.899 224.701C223.499 224.701 223.099 224.701 222.599 224.901C219.899 225.901 217.999 228.901 215.099 229.601C213.399 230.001 212.199 229.201 211.199 227.801C209.099 225.001 206.799 222.101 205.199 219.001C202.799 214.301 204.799 211.501 208.699 208.701C209.799 207.901 210.899 207.101 211.699 206.101L207.599 199.801C205.899 199.801 204.299 200.901 202.499 201.901C198.599 204.301 194.699 204.201 193.099 199.101C191.899 195.301 195.099 191.701 198.399 189.901C196.599 189.401 194.499 189.601 191.999 191.201C187.199 194.301 187.699 199.601 190.499 203.901L229.599 263.401L243.399 254.401Z" fill="#E6E7E8"/>
<path d="M277.901 198.5C275.001 194.1 269.501 194.4 266.601 196.3C263.701 198.2 260.601 202.1 263.801 207L279.701 231.2L276.801 233.1L258.001 204.5C256.101 201.6 252.201 197.7 246.201 201.6C240.501 205.4 242.301 210.6 244.201 213.6L263.001 242C261.901 242.7 261.901 242.7 260.401 243.7L239.801 212.3C237.901 209.4 233.801 206.7 228.601 210.2C223.701 213.4 223.901 218.1 225.801 221L246.701 252.7C246.701 252.7 246.701 252.7 244.401 254.2L244.501 254.4L230.001 264L233.601 269.5L243.701 287.2C235.901 280.7 216.301 266.3 205.501 274.9C205.501 274.9 198.401 279.6 206.901 285.7C206.901 285.7 220.401 294.6 235.401 306.8C235.401 306.8 251.301 322.4 260.901 323.7C267.201 326.2 276.701 324.7 288.301 323.1C288.301 323.1 295.601 306.8 321.401 301.3C322.901 301.5 331.401 283.1 315.301 255.8L311.501 250.2C311.401 249.9 311.301 249.6 311.101 249.4L277.901 198.5Z" fill="#0054A6"/>
<path d="M224.899 235.5C223.999 236 222.199 236.6 221.799 237.7C221.099 239.5 222.499 241.5 223.299 243C224.699 245.7 226.099 248.4 227.699 251C229.299 253.7 230.799 257 234.399 255.5C236.799 254.5 239.399 253 241.399 251.2L228.699 231.9C227.899 233.3 226.699 234.6 224.899 235.5Z" fill="#0054A6"/>
<path d="M225.499 279C225.099 281.1 223.199 285.4 224.099 287.5C225.899 291.7 234.299 298 237.099 291.4C238.199 288.9 239.499 286.5 239.799 284.1C235.999 281.2 230.999 277.8 225.799 275.4C225.999 276.6 225.799 277.9 225.499 279Z" fill="#0054A6"/>
<path d="M277.9 198.5C275 194.1 269.5 194.4 266.6 196.3C263.7 198.2 260.6 202.1 263.8 207L279.7 231.2L276.8 233.1L258 204.5C256.1 201.6 252.2 197.7 246.2 201.6C240.5 205.4 242.3 210.6 244.2 213.6L263 242C261.9 242.7 261.9 242.7 260.4 243.7L259.4 242.1C255.8 245.1 250.1 248.5 246.2 245.2C244.3 243.6 244 239.8 245.8 238C247.2 236.6 249 236.1 250.6 234.9C252.5 233.5 252.4 231.7 251.6 230.2L250.9 229.2C250.1 228.2 250.2 227.8 249.3 228.4C246.1 230.7 239.7 236.1 236.8 230.7C234 225.6 241.1 222.2 244.6 219.8C244.3 219.3 244.1 218.8 243.8 218.3L242.4 216.1C242 215.6 241.5 215.2 241 215C238.9 214.2 237 217 235.6 218.2C234.1 219.6 232.6 220 230.9 218.7C227.9 216.5 231.2 210.9 233.7 208.4C232.2 208.4 230.6 208.8 228.7 210C223.8 213.2 224 217.9 225.9 220.8L246.8 252.5C246.8 252.5 246.8 252.5 244.6 253.9C245.1 255.7 243.7 258.4 242.3 259.8C239.4 262.6 235.8 264.9 232 266.7L233.7 269.3L238.6 277.8C238.7 277.3 239.5 277 239.9 277.6C241.3 279.6 241.7 281.3 241.5 282.9C242.3 283.4 243.1 283.9 244 284.4C245.3 284.7 246.4 285.2 247.3 285.9C255.5 289.1 265.1 289.9 272.6 294.6C277.6 297.7 280.8 302.1 282.1 307.9C282.9 311.4 282.1 315.5 278.8 317.3C270.7 321.8 257.8 317.8 250.2 313.6C246.1 311.3 241.5 308.3 241.8 303.1C241.9 300.7 243.1 298.4 244.3 296.4C245.4 294.5 246.9 292.5 247.3 290.2C247.6 288.8 247.3 287.8 246.7 287.1C245.6 286.7 244.5 286.2 243.4 285.6C243.3 285.6 243.2 285.6 243.1 285.6L243.9 287C243.3 286.5 242.7 286 242 285.5C241.9 285.5 241.8 285.5 241.6 285.5C241.3 285.5 241.2 285.4 241 285.2C240.6 286.3 240.1 287.6 239.6 289C238 293.2 236.3 296.8 231.2 295.4C228.2 294.5 224.4 291.2 223.1 288.4C221.9 285.7 223.6 282.1 224.1 279.4C224.3 278.3 224.8 276.4 224.7 274.8C223.1 274.1 221.5 273.5 219.9 273.1C219.4 273.7 218.9 274.4 218.5 275C217.1 277.4 216 280.9 213.6 282.6C211.6 284 209.5 283.2 208.1 281.3C206.3 278.8 207 276.1 208 273.4C207.2 273.8 206.4 274.2 205.7 274.8C205.7 274.8 198.6 279.5 207.1 285.6C207.1 285.6 220.6 294.5 235.6 306.7C235.6 306.7 251.5 322.3 261.1 323.6C267.4 326.1 276.9 324.6 288.5 323C288.5 323 295.8 306.7 321.6 301.2C323.1 301.4 331.6 283 315.5 255.7L311.7 250.1C311.6 249.8 311.5 249.5 311.3 249.3L277.9 198.5Z" fill="#E6E7E8"/>
<path d="M240.901 224C239.901 224.7 238.701 225.6 238.101 226.8C237.501 228.2 237.501 230.9 239.301 231.5C242.601 232.7 246.701 228.6 249.301 226.8L245.401 220.9C244.001 222 242.401 222.9 240.901 224Z" fill="#E6E7E8"/>
<path d="M249.701 237C247.401 238.2 244.501 240.7 246.701 243.6C248.301 245.7 250.301 245.4 252.401 244.5C254.601 243.6 256.701 242.4 258.501 240.9L253.201 232.9C253.001 234.5 251.901 235.9 249.701 237Z" fill="#E6E7E8"/>
<path d="M231.301 215.301C230.801 218.301 233.201 218.601 235.001 216.801C235.801 216.101 236.601 215.201 237.401 214.601C238.601 213.601 239.701 213.401 240.701 213.601L239.801 212.301C238.801 210.801 237.301 209.401 235.401 208.801C233.401 210.101 231.601 213.001 231.301 215.301Z" fill="#E6E7E8"/>
<path d="M245.201 308.6C249.101 312.3 254.501 314.6 259.601 316C264.401 317.3 269.901 318.5 274.801 317.3C281.001 315.8 281.701 310.4 279.601 305C277.301 299.2 272.501 295.6 266.801 293.4C261.101 291.2 254.501 290 248.501 287.9C248.801 288.9 248.701 290.1 248.201 291.6C246.301 296.8 239.801 303.4 245.201 308.6Z" fill="#0054A6"/>
<path d="M208.599 275.8C208.199 277.5 208.699 283.1 211.799 282C214.199 281.1 215.299 277.6 216.499 275.5C216.899 274.8 217.599 273.7 218.399 272.8C215.299 272.1 212.299 272 209.499 272.8C209.199 273.8 208.899 274.7 208.599 275.8Z" fill="#0054A6"/>
<path d="M269.7 326.001C266.3 326.001 263.4 325.601 260.9 324.601C251.1 323.201 235.6 308.101 235 307.501C220.2 295.601 206.8 286.601 206.6 286.501C203.4 284.201 201.9 281.801 201.9 279.401C202 276.101 205 274.101 205.1 274.001C214.8 266.301 230.9 276.001 240.4 283.101L232.9 270.001L189.9 204.501C186.3 199.001 187 193.501 191.7 190.501C193.9 189.001 196.2 188.501 198.3 188.901C200.8 189.401 203.3 191.301 205.3 194.401L244 253.401L245.5 252.401L225 221.501C222.8 218.101 222.7 212.801 228 209.301C230.3 207.701 232.7 207.201 234.9 207.601C237.1 208.001 239.2 209.501 240.6 211.701L260.7 242.301L261.6 241.701L243.3 213.901C242.4 212.501 241.2 210.201 241.3 207.701C241.3 205.701 242.1 202.901 245.6 200.601C248.5 198.701 251.3 198.301 253.9 199.401C255.7 200.201 257.3 201.701 258.7 203.801L276.9 231.601L278.1 230.801L262.8 207.501C261.2 205.101 260.9 202.501 261.8 200.101C262.8 197.701 264.8 196.101 265.9 195.401C267.6 194.301 270 193.701 272.2 194.001C274.8 194.301 277.1 195.701 278.5 197.901L312 248.901C312.2 249.201 312.3 249.501 312.5 249.801L316.2 255.301C330.9 280.301 325.3 297.901 323 301.301C322.8 301.601 322.3 302.301 321.6 302.401C296.6 307.701 289.4 323.401 289.3 323.601C289.2 323.901 288.9 324.101 288.5 324.201L285.7 324.601C279.7 325.301 274.3 326.001 269.7 326.001ZM213.9 273.301C210 273.301 207.6 274.601 206.2 275.701C206.1 275.801 203.8 277.301 203.8 279.501C203.8 281.201 205 283.101 207.6 284.901C207.7 285.001 221.3 294.001 236.2 306.001C236.4 306.201 252.1 321.501 261.2 322.701C261.3 322.701 261.4 322.701 261.4 322.801C266.9 325.001 275.1 323.901 285.5 322.601L287.8 322.301C289.3 319.401 297.6 305.501 321.3 300.501C322.8 298.901 329.6 281.901 314.6 256.501L310.8 251.001C310.8 250.901 310.7 250.901 310.7 250.801C310.6 250.501 310.5 250.301 310.4 250.201L277 199.001C275.6 196.801 273.5 196.101 272.1 196.001C270.4 195.801 268.4 196.201 267.1 197.101C266.2 197.701 264.5 199.001 263.8 200.901C263.1 202.701 263.3 204.501 264.6 206.401L280.5 230.601C280.8 231.101 280.7 231.701 280.2 232.001L277.3 233.901C277.1 234.001 276.8 234.101 276.5 234.001C276.2 233.901 276 233.801 275.9 233.601L257.1 205.001C255.9 203.201 254.6 202.001 253.2 201.301C251.3 200.401 249.1 200.801 246.8 202.301C244.6 203.801 243.4 205.601 243.4 207.801C243.4 209.901 244.5 211.901 245.1 212.901L263.9 241.501C264 241.701 264.1 242.001 264 242.301C263.9 242.601 263.8 242.801 263.6 242.901L261 244.601C260.8 244.701 260.5 244.801 260.2 244.701C259.9 244.601 259.7 244.501 259.6 244.301L239 212.801C237.9 211.101 236.3 209.901 234.6 209.601C232.9 209.301 231.1 209.701 229.2 211.001C225 213.701 224.9 217.701 226.7 220.401L247.6 252.101C247.7 252.301 247.8 252.601 247.7 252.901C247.6 253.201 247.5 253.401 247.3 253.501L244.2 255.601C244 255.701 243.7 255.801 243.4 255.701C243.1 255.601 242.9 255.501 242.8 255.301L203.5 195.501C202.3 193.701 200.3 191.401 197.8 190.801C196.2 190.501 194.5 190.901 192.7 192.101C188.2 195.001 189.1 199.801 191.5 203.401L234.6 269.001L244.8 286.701C245 287.101 244.9 287.701 244.6 288.001C244.2 288.301 243.7 288.301 243.3 288.001C229.2 276.301 219.9 273.301 213.9 273.301Z" fill="#D2D9DC"/>
<path d="M196 213.201C195.7 213.201 195.4 213.001 195.2 212.701C194.9 212.201 195 211.601 195.5 211.301L209.2 202.301C209.7 202.001 210.3 202.101 210.6 202.601C210.9 203.101 210.8 203.701 210.3 204.001L196.6 213.001C196.4 213.101 196.2 213.201 196 213.201Z" fill="#D2D9DC"/>
<path d="M212.199 237.8C211.899 237.8 211.599 237.6 211.399 237.3C211.099 236.8 211.199 236.2 211.699 235.9L225.399 226.9C225.899 226.6 226.499 226.7 226.799 227.2C227.099 227.7 226.999 228.3 226.499 228.6L212.799 237.6C212.499 237.7 212.399 237.8 212.199 237.8Z" fill="#D2D9DC"/>
<path d="M229 226.701C228.7 226.701 228.4 226.501 228.2 226.201C227.9 225.701 228 225.101 228.5 224.801L241.4 216.301C241.9 216.001 242.5 216.101 242.8 216.601C243.1 217.101 243 217.701 242.5 218.001L229.6 226.501C229.4 226.601 229.2 226.701 229 226.701Z" fill="#D2D9DC"/>
<path d="M237.898 240.201C237.598 240.201 237.298 240.001 237.098 239.701C236.798 239.201 236.898 238.601 237.398 238.301L250.298 229.801C250.798 229.501 251.398 229.601 251.698 230.101C251.998 230.601 251.898 231.201 251.398 231.501L238.498 240.001C238.298 240.101 238.098 240.201 237.898 240.201Z" fill="#D2D9DC"/>
<path d="M246.398 216.901C246.098 216.901 245.798 216.701 245.598 216.401C245.298 215.901 245.398 215.301 245.898 215.001L258.798 206.501C259.298 206.201 259.898 206.301 260.198 206.801C260.498 207.301 260.398 207.901 259.898 208.201L246.998 216.701C246.698 216.901 246.598 216.901 246.398 216.901Z" fill="#D2D9DC"/>
<path d="M258.699 235.701C258.399 235.701 258.099 235.501 257.899 235.201C257.599 234.701 257.699 234.101 258.199 233.801L271.099 225.301C271.599 225.001 272.199 225.101 272.499 225.601C272.799 226.101 272.699 226.701 272.199 227.001L259.299 235.501C259.099 235.601 258.899 235.701 258.699 235.701Z" fill="#D2D9DC"/>
<path d="M266.5 212.3C266.2 212.3 265.9 212.1 265.7 211.8C265.4 211.3 265.5 210.7 266 210.4L278.9 201.9C279.4 201.6 280 201.7 280.3 202.2C280.6 202.7 280.5 203.3 280 203.6L267.1 212.1C266.9 212.2 266.7 212.3 266.5 212.3Z" fill="#D2D9DC"/>
<path d="M274.898 225.1C274.598 225.1 274.298 224.9 274.098 224.6C273.798 224.1 273.898 223.5 274.398 223.2L287.298 214.7C287.798 214.4 288.398 214.5 288.698 215C288.998 215.5 288.898 216.1 288.398 216.4L275.498 224.9C275.298 225 275.098 225.1 274.898 225.1Z" fill="#D2D9DC"/>
<path d="M229.898 264.701C229.598 264.701 229.298 264.501 229.098 264.201C228.798 263.701 228.898 263.101 229.398 262.801L285.498 226.001C285.998 225.701 286.598 225.801 286.898 226.301C287.198 226.801 287.098 227.401 286.598 227.701L230.498 264.501C230.298 264.701 230.098 264.701 229.898 264.701Z" fill="#D2D9DC"/>
<path d="M214.899 292.1C214.799 292.1 214.599 292.1 214.499 292C213.999 291.8 213.799 291.2 213.999 290.7L221.499 273.5C221.699 273 222.299 272.8 222.799 273C223.299 273.2 223.499 273.8 223.299 274.3L215.799 291.5C215.699 291.9 215.299 292.1 214.899 292.1Z" fill="#D2D9DC"/>
<path d="M235.602 307.8C235.502 307.8 235.302 307.8 235.202 307.7C234.702 307.5 234.502 306.9 234.702 306.4C238.502 297.9 242.702 288.3 242.802 287.1C242.902 286.6 243.402 286.1 243.902 286.2C244.402 286.3 244.802 286.7 244.802 287.3C244.602 289.2 237.902 304.2 236.502 307.2C236.302 307.5 236.002 307.8 235.602 307.8Z" fill="#D2D9DC"/>
<path d="M288.498 324.101C287.898 324.101 287.498 323.601 287.498 323.001C288.298 313.001 285.798 304.801 279.998 298.801C267.398 285.701 243.198 286.601 242.898 286.601C242.298 286.601 241.898 286.201 241.898 285.601C241.898 285.001 242.298 284.601 242.898 284.601C243.198 284.601 249.298 284.301 257.098 285.801C264.398 287.101 274.498 290.201 281.498 297.401C287.698 303.901 290.398 312.501 289.598 323.101C289.498 323.701 288.998 324.101 288.498 324.101Z" fill="#D2D9DC"/>
<path d="M274.502 315.1C273.102 315.1 271.802 314.4 271.002 313.2C269.702 311.3 270.302 308.6 272.202 307.4C274.102 306.1 276.802 306.7 278.002 308.6C279.302 310.5 278.702 313.2 276.802 314.4C276.102 314.9 275.302 315.1 274.502 315.1ZM274.502 308.7C274.102 308.7 273.702 308.8 273.302 309.1C272.302 309.8 272.002 311.1 272.702 312.2C273.402 313.2 274.702 313.5 275.802 312.8C276.802 312.1 277.102 310.8 276.402 309.7C276.002 309.1 275.302 308.7 274.502 308.7Z" fill="#D2D9DC"/>
<path d="M304.7 253.4C304.4 253.4 304.1 253.2 303.9 252.9L283.7 222.1C283.4 221.6 283.5 221 284 220.7C284.5 220.4 285.1 220.5 285.4 221L305.6 251.8C305.9 252.3 305.8 252.9 305.3 253.2C305.1 253.4 304.9 253.4 304.7 253.4Z" fill="#D2D9DC"/>
<path d="M306.6 259.001C305.2 259.001 303.9 258.301 303.1 257.101C301.8 255.201 302.4 252.501 304.3 251.301C306.2 250.001 308.9 250.601 310.1 252.501C311.4 254.401 310.8 257.101 308.9 258.301C308.2 258.701 307.4 259.001 306.6 259.001ZM306.6 252.501C306.2 252.501 305.8 252.601 305.4 252.901C304.4 253.601 304.1 254.901 304.8 256.001C305.5 257.001 306.8 257.301 307.9 256.601C308.9 255.901 309.2 254.601 308.5 253.501C308 252.901 307.3 252.501 306.6 252.501Z" fill="#D2D9DC"/>
<path d="M317.502 296.301C317.402 296.301 317.302 296.301 317.202 296.301C316.702 296.101 316.402 295.601 316.502 295.001C321.302 279.801 307.402 258.401 307.302 258.201C307.002 257.701 307.102 257.101 307.602 256.801C308.102 256.501 308.702 256.601 309.002 257.101C309.102 257.301 312.702 262.701 315.602 270.201C319.602 280.301 320.602 288.901 318.402 295.601C318.302 296.001 317.902 296.301 317.502 296.301Z" fill="#D2D9DC"/>
<path d="M235.102 269.901C234.802 269.901 234.502 269.701 234.302 269.401C234.002 268.901 234.102 268.301 234.602 268.001L265.802 247.501C266.302 247.201 266.902 247.301 267.202 247.801C267.502 248.301 267.402 248.901 266.902 249.201L235.702 269.701C235.502 269.801 235.302 269.901 235.102 269.901Z" fill="#D2D9DC"/>
<path d="M268.601 250.601C268.301 250.601 268.101 250.601 267.801 250.501C266.801 250.301 266.001 249.701 265.401 248.901C264.901 248.101 264.701 247.101 264.901 246.101C265.101 245.101 265.701 244.301 266.501 243.701C267.301 243.201 268.301 243.001 269.301 243.201C270.301 243.401 271.101 244.001 271.701 244.801C272.201 245.601 272.401 246.601 272.201 247.601C272.001 248.601 271.401 249.401 270.601 250.001C270.001 250.401 269.301 250.601 268.601 250.601ZM268.601 245.101C268.301 245.101 267.901 245.201 267.701 245.401C267.301 245.701 267.001 246.001 267.001 246.501C266.901 247.001 267.001 247.401 267.201 247.801C267.501 248.201 267.801 248.501 268.301 248.501C268.801 248.601 269.201 248.501 269.601 248.301C270.001 248.001 270.301 247.701 270.301 247.201C270.401 246.701 270.301 246.301 270.101 245.901C269.801 245.501 269.501 245.201 269.001 245.201C268.801 245.201 268.701 245.101 268.601 245.101Z" fill="#D2D9DC"/>
<path d="M273.902 289.5C273.602 289.5 273.402 289.5 273.102 289.4C272.102 289.2 271.302 288.6 270.702 287.8C270.202 287 270.002 286 270.202 285C270.402 284 271.002 283.2 271.802 282.6C273.502 281.5 275.802 282 277.002 283.7C277.502 284.5 277.702 285.5 277.502 286.5C277.302 287.5 276.702 288.3 275.902 288.9C275.302 289.3 274.602 289.5 273.902 289.5ZM273.902 284.1C273.602 284.1 273.202 284.2 273.002 284.4C272.602 284.7 272.302 285 272.302 285.5C272.302 286 272.302 286.4 272.502 286.8C272.802 287.2 273.102 287.5 273.602 287.5C274.102 287.6 274.502 287.5 274.902 287.3C275.302 287 275.602 286.7 275.602 286.2C275.602 285.7 275.602 285.3 275.402 284.9C275.002 284.3 274.402 284.1 273.902 284.1Z" fill="#D2D9DC"/>
<path d="M308.501 283C307.301 283 306.101 282.4 305.401 281.3C304.301 279.6 304.801 277.3 306.501 276.1C308.201 275 310.501 275.5 311.701 277.2C312.801 278.9 312.301 281.2 310.601 282.4C309.901 282.8 309.201 283 308.501 283ZM308.501 277.5C308.201 277.5 307.801 277.6 307.601 277.8C306.801 278.3 306.601 279.4 307.101 280.2C307.601 281 308.701 281.2 309.501 280.7C310.301 280.2 310.501 279.1 310.001 278.3C309.601 277.8 309.001 277.5 308.501 277.5Z" fill="#D2D9DC"/>
<path d="M303.302 300.5C302.102 300.5 300.902 299.9 300.202 298.8C299.102 297.1 299.602 294.8 301.302 293.6C302.102 293.1 303.102 292.9 304.102 293.1C305.102 293.3 305.902 293.9 306.502 294.7C307.602 296.4 307.102 298.7 305.402 299.9C304.702 300.3 304.002 300.5 303.302 300.5ZM303.302 295.1C303.002 295.1 302.602 295.2 302.302 295.4C301.502 295.9 301.302 297 301.802 297.8C302.302 298.6 303.402 298.8 304.202 298.3C305.002 297.8 305.202 296.7 304.702 295.9C304.402 295.5 304.102 295.2 303.602 295.2C303.602 295.1 303.402 295.1 303.302 295.1Z" fill="#D2D9DC"/>
<path d="M270.801 246.401C270.501 246.401 270.201 246.201 270.001 245.901C269.701 245.401 269.801 244.801 270.301 244.501L289.401 232.001C289.901 231.701 290.501 231.801 290.801 232.301C291.101 232.801 291.001 233.401 290.501 233.701L271.401 246.201C271.201 246.301 271.001 246.401 270.801 246.401Z" fill="#D2D9DC"/>
<path d="M244.701 277.4C244.301 277.4 244.001 277.2 243.801 276.9L238.301 266.7C238.001 266.2 238.201 265.6 238.701 265.3C239.201 265 239.801 265.2 240.101 265.7L245.601 275.9C245.901 276.4 245.701 277 245.201 277.3C245.001 277.3 244.901 277.4 244.701 277.4Z" fill="#D2D9DC"/>
<path d="M246.198 282.401C244.998 282.401 243.798 281.801 243.098 280.701C241.998 279.001 242.398 276.601 244.198 275.501C245.898 274.401 248.298 274.801 249.398 276.601C250.498 278.301 250.098 280.701 248.298 281.801C247.598 282.201 246.898 282.401 246.198 282.401ZM246.198 276.901C245.898 276.901 245.498 277.001 245.198 277.201C244.398 277.701 244.198 278.801 244.698 279.601C245.198 280.401 246.298 280.601 247.098 280.101C247.898 279.601 248.098 278.501 247.598 277.701C247.298 277.201 246.798 276.901 246.198 276.901Z" fill="#D2D9DC"/>
<path d="M271.198 286C271.098 286 270.998 286 270.798 285.9C259.698 281.6 248.498 281.2 248.398 281.2C247.798 281.2 247.398 280.7 247.398 280.2C247.398 279.6 247.898 279.2 248.398 279.2C248.898 279.2 259.998 279.6 271.498 284C271.998 284.2 272.298 284.8 272.098 285.3C271.998 285.7 271.598 286 271.198 286Z" fill="#D2D9DC"/>
<path d="M292.5 309.3C292 309.3 291.6 309 291.5 308.5C289 294.9 276 287.9 275.9 287.8C275.4 287.5 275.2 286.9 275.5 286.5C275.8 286 276.4 285.8 276.8 286.1C277.4 286.4 290.8 293.6 293.5 308.2C293.6 308.7 293.2 309.3 292.7 309.4C292.6 309.3 292.6 309.3 292.5 309.3Z" fill="#D2D9DC"/>
<path d="M248 268.7C247.7 268.7 247.4 268.5 247.2 268.2C246.9 267.7 247 267.1 247.5 266.8L255 261.9C255.5 261.6 256.1 261.7 256.4 262.2C256.7 262.7 256.6 263.3 256.1 263.6L248.6 268.5C248.3 268.7 248.1 268.7 248 268.7Z" fill="#D2D9DC"/>
<path d="M257.5 264.9C256.4 264.9 255.3 264.4 254.6 263.4C253.6 261.8 254 259.7 255.6 258.7C257.2 257.7 259.3 258.1 260.3 259.7C260.8 260.5 261 261.4 260.8 262.3C260.6 263.2 260.1 264 259.3 264.5C258.8 264.7 258.1 264.9 257.5 264.9ZM257.5 260C257.2 260 257 260.1 256.7 260.2C256.1 260.6 255.9 261.5 256.3 262.1C256.7 262.7 257.6 262.9 258.2 262.5C258.5 262.3 258.7 262 258.8 261.6C258.9 261.2 258.8 260.9 258.6 260.5C258.4 260.3 257.9 260 257.5 260Z" fill="#D2D9DC"/>
<path d="M270.299 265.8C269.199 265.8 268.099 265.3 267.499 264.3C266.999 263.5 266.799 262.6 266.999 261.7C267.199 260.8 267.699 260 268.499 259.5C270.099 258.5 272.199 258.9 273.199 260.5C273.699 261.3 273.899 262.2 273.699 263.1C273.499 264 272.999 264.8 272.199 265.3C271.599 265.7 270.899 265.8 270.299 265.8ZM270.299 261C269.999 261 269.799 261.1 269.499 261.2C269.199 261.4 268.999 261.7 268.899 262.1C268.799 262.5 268.899 262.8 269.099 263.2C269.499 263.8 270.399 264 270.999 263.6C271.599 263.2 271.799 262.3 271.399 261.7C271.199 261.3 270.699 261 270.299 261Z" fill="#D2D9DC"/>
<path d="M275.102 273.1C274.002 273.1 272.902 272.6 272.202 271.6C271.702 270.8 271.502 269.9 271.702 269C271.902 268.1 272.402 267.3 273.202 266.8C274.002 266.3 274.902 266.1 275.802 266.3C276.702 266.5 277.502 267 278.002 267.8C279.002 269.4 278.602 271.5 277.002 272.5C276.302 272.9 275.702 273.1 275.102 273.1ZM275.102 268.3C274.802 268.3 274.602 268.4 274.302 268.5C274.002 268.7 273.802 269 273.702 269.4C273.602 269.8 273.702 270.1 273.902 270.5C274.302 271.1 275.202 271.3 275.802 270.9C276.402 270.5 276.602 269.6 276.202 269C276.002 268.7 275.702 268.5 275.302 268.4C275.202 268.3 275.102 268.3 275.102 268.3Z" fill="#D2D9DC"/>
<path d="M284.699 266.801C284.499 266.801 284.199 266.801 283.999 266.701C283.099 266.501 282.299 266.001 281.799 265.201C281.299 264.401 281.099 263.501 281.299 262.601C281.499 261.701 281.999 260.901 282.799 260.401C284.399 259.401 286.499 259.801 287.499 261.401C288.499 263.001 288.099 265.101 286.499 266.101C285.999 266.601 285.299 266.801 284.699 266.801ZM284.699 262.001C284.399 262.001 284.199 262.101 283.899 262.201C283.599 262.401 283.399 262.701 283.299 263.101C283.199 263.501 283.299 263.801 283.499 264.201C283.699 264.601 283.999 264.701 284.399 264.801C284.799 264.901 285.099 264.801 285.499 264.601C285.799 264.401 285.999 264.101 286.099 263.701C286.199 263.301 286.099 263.001 285.899 262.601C285.599 262.201 285.099 262.001 284.699 262.001Z" fill="#D2D9DC"/>
<path d="M289.301 244C289.101 244 288.801 244 288.601 243.9C287.701 243.7 286.901 243.2 286.401 242.4C285.901 241.6 285.701 240.7 285.901 239.8C286.101 238.9 286.601 238.1 287.401 237.6C288.201 237.1 289.101 236.9 290.001 237.1C290.901 237.3 291.701 237.8 292.201 238.6C292.701 239.4 292.901 240.3 292.701 241.2C292.501 242.1 292.001 242.9 291.201 243.4C290.601 243.8 289.901 244 289.301 244ZM289.201 239.2C288.901 239.2 288.701 239.3 288.401 239.4C288.101 239.6 287.901 239.9 287.801 240.3C287.701 240.7 287.801 241 288.001 241.4C288.201 241.7 288.501 241.9 288.901 242C289.301 242.1 289.601 242 290.001 241.8C290.301 241.6 290.501 241.3 290.601 240.9C290.701 240.5 290.601 240.2 290.401 239.8C290.201 239.5 289.901 239.3 289.501 239.2C289.401 239.2 289.301 239.2 289.201 239.2Z" fill="#D2D9DC"/>
<path d="M260 260.801C259.7 260.801 259.4 260.601 259.2 260.301C258.9 259.801 259 259.201 259.5 258.901L286.7 241.001C287.2 240.701 287.8 240.801 288.1 241.301C288.4 241.801 288.3 242.401 287.8 242.701L260.6 260.601C260.4 260.701 260.2 260.801 260 260.801Z" fill="#D2D9DC"/>
<path d="M308.2 277.201C307.8 277.201 307.4 276.901 307.2 276.501C300.5 255.501 290.3 244.001 290.2 243.901C289.8 243.501 289.9 242.901 290.3 242.501C290.7 242.101 291.3 242.201 291.7 242.601C292.1 243.101 302.3 254.401 309.1 275.901C309.3 276.401 309 277.001 308.4 277.201C308.4 277.201 308.3 277.201 308.2 277.201Z" fill="#D2D9DC"/>
<path d="M309.499 298.101C308.899 298.001 308.499 297.601 308.499 297.001C309.099 290.401 307.799 282.601 307.699 282.501C307.599 282.001 307.999 281.401 308.499 281.301C308.999 281.201 309.599 281.601 309.699 282.101C309.799 282.401 311.099 290.301 310.499 297.201C310.399 297.801 309.999 298.101 309.499 298.101Z" fill="#D2D9DC"/>
<path d="M297.698 303.101C297.298 303.101 296.998 302.901 296.798 302.501C283.998 273.901 255.798 273.601 255.398 273.601C254.798 273.601 254.398 273.201 254.398 272.601C254.398 272.001 254.798 271.601 255.398 271.601C255.698 271.601 285.198 271.801 298.598 301.701C298.798 302.201 298.598 302.801 298.098 303.001C297.998 303.101 297.798 303.101 297.698 303.101Z" fill="#D2D9DC"/>
<path d="M272.301 262.1C272.001 262.1 271.701 261.9 271.501 261.6C271.201 261.1 271.301 260.5 271.801 260.2L287.501 249.9C288.001 249.6 288.601 249.7 288.901 250.2C289.201 250.7 289.101 251.3 288.601 251.6L272.801 262C272.701 262.1 272.501 262.1 272.301 262.1Z" fill="#D2D9DC"/>
<path d="M292.601 261.801C291.401 261.801 290.301 261.201 289.601 260.201C288.501 258.501 289.001 256.301 290.601 255.201C291.401 254.701 292.401 254.501 293.301 254.701C294.201 254.901 295.001 255.401 295.601 256.201C296.701 257.901 296.201 260.101 294.601 261.201C293.901 261.601 293.201 261.801 292.601 261.801ZM292.601 256.601C292.301 256.601 292.001 256.701 291.701 256.901C291.001 257.401 290.801 258.401 291.201 259.101C291.701 259.801 292.701 260.001 293.401 259.601C294.101 259.101 294.301 258.101 293.901 257.401C293.701 257.001 293.301 256.801 292.901 256.701C292.801 256.601 292.701 256.601 292.601 256.601Z" fill="#D2D9DC"/>
<path d="M302.7 294.901C302.1 294.901 301.7 294.401 301.7 293.901C302 273.801 293.2 261.001 293.1 260.901C292.8 260.401 292.9 259.801 293.3 259.501C293.8 259.201 294.4 259.301 294.7 259.701C295.1 260.201 303.9 273.101 303.6 293.901C303.7 294.501 303.3 294.901 302.7 294.901Z" fill="#D2D9DC"/>
<path d="M296.199 288.3C295.899 288.3 295.499 288.1 295.299 287.8C287.199 274.5 277.099 272.1 276.999 272.1C276.499 272 276.099 271.4 276.199 270.9C276.299 270.4 276.899 270 277.399 270.1C277.799 270.2 288.399 272.7 296.899 286.7C297.199 287.2 296.999 287.8 296.599 288.1C296.599 288.3 296.399 288.3 296.199 288.3Z" fill="#D2D9DC"/>
<path d="M296.098 281.8C295.798 281.8 295.498 281.6 295.298 281.3L285.098 266C284.798 265.5 284.898 264.9 285.398 264.6C285.898 264.3 286.498 264.4 286.798 264.9L296.898 280.3C297.198 280.8 297.098 281.4 296.598 281.7C296.498 281.7 296.298 281.8 296.098 281.8Z" fill="#D2D9DC"/>
<path d="M121.4 125.1C121.5 124.1 121.5 123.2 121.5 122.2C121.5 121.2 121.5 120.2 121.4 119.3C115.4 116.9 114.6 114 118.6 109C117.8 107.3 116.9 105.7 115.8 104.2C109.6 105.2 107.5 103.2 108.5 96.9002C107 95.8002 105.4 94.9002 103.7 94.1002C98.7 98.1002 95.8 97.3002 93.4 91.3002C92.4 91.2002 91.5 91.2002 90.5 91.2002C89.5 91.2002 88.5 91.2002 87.6 91.3002C85.2 97.3002 82.3 98.1002 77.3 94.1002C75.6 94.9002 74 95.8002 72.5 96.9002C73.6 103.1 71.5 105.2 65.2 104.2C64.1 105.7 63.2 107.3 62.4 109C66.4 114 65.6 116.9 59.6 119.3C59.5 120.3 59.5 121.2 59.5 122.2C59.5 123.2 59.5 124.1 59.6 125.1C65.6 127.5 66.4 130.4 62.4 135.4C63.2 137.1 64.1 138.7 65.2 140.2C71.4 139.2 73.6 141.2 72.5 147.5C74 148.6 75.6 149.5 77.3 150.3C82.3 146.3 85.2 147.1 87.6 153.1C88.6 153.2 89.5 153.2 90.5 153.2C91.5 153.2 92.5 153.1 93.4 153.1C95.8 147.1 98.7 146.3 103.7 150.3C105.4 149.5 107 148.6 108.5 147.5C107.5 141.2 109.5 139.1 115.8 140.2C116.9 138.7 117.8 137.1 118.6 135.4C114.6 130.4 115.5 127.5 121.4 125.1ZM90.6 136.6C82.7 136.6 76.2 130.2 76.2 122.2C76.2 114.3 82.6 107.8 90.6 107.8C98.6 107.8 105 114.2 105 122.2C104.9 130.1 98.5 136.6 90.6 136.6Z" fill="#839299"/>
<path d="M163.302 87.3004C163.402 86.6004 163.402 85.9004 163.402 85.2004C163.402 84.5004 163.402 83.8004 163.302 83.1004C159.002 81.4004 158.402 79.3004 161.302 75.7004C160.702 74.5004 160.102 73.3004 159.302 72.3004C154.802 73.1004 153.302 71.5004 154.002 67.0004C152.902 66.2004 151.802 65.5004 150.502 65.0004C146.902 67.9004 144.802 67.3004 143.102 63.0004C142.402 62.9004 141.702 62.9004 141.002 62.9004C140.302 62.9004 139.602 62.9004 138.902 63.0004C137.202 67.3004 135.102 67.9004 131.502 65.0004C130.302 65.6004 129.102 66.2004 128.002 67.0004C128.802 71.5004 127.202 73.0004 122.702 72.3004C121.902 73.4004 121.202 74.5004 120.702 75.7004C123.602 79.3004 123.002 81.4004 118.702 83.1004C118.602 83.8004 118.602 84.5004 118.602 85.2004C118.602 85.9004 118.602 86.6004 118.702 87.3004C123.002 89.0004 123.602 91.1004 120.702 94.7004C121.302 95.9004 121.902 97.1004 122.702 98.2004C127.202 97.4004 128.702 99.0004 128.002 103.5C129.102 104.3 130.202 105 131.502 105.5C135.102 102.6 137.202 103.2 138.902 107.5C139.602 107.6 140.302 107.6 141.002 107.6C141.702 107.6 142.402 107.6 143.102 107.5C144.802 103.2 146.902 102.6 150.502 105.5C151.702 104.9 152.902 104.3 154.002 103.5C153.202 99.0004 154.802 97.5004 159.302 98.2004C160.102 97.1004 160.802 96.0004 161.302 94.7004C158.402 91.2004 159.002 89.0004 163.302 87.3004ZM141.002 95.6004C135.302 95.6004 130.602 91.0004 130.602 85.2004C130.602 79.5004 135.302 74.8004 141.002 74.8004C146.702 74.8004 151.402 79.4004 151.402 85.2004C151.402 90.9004 146.702 95.6004 141.002 95.6004Z" fill="#839299"/>
<path d="M333.4 155.8C333.4 155.3 333.4 154.8 333.4 154.3C333.4 153.8 333.4 153.2 333.4 152.7C330.7 152.3 328.1 151.8 328 151.2C327.9 150.6 330.4 149.5 332.9 148.5C332.7 147.5 332.5 146.5 332.2 145.5C329.5 145.7 326.9 145.9 326.6 145.4C326.4 144.8 328.5 143.2 330.7 141.6C330.3 140.7 329.8 139.8 329.3 138.9C326.7 139.7 324.2 140.6 323.9 140.1C323.6 139.6 325.2 137.5 326.9 135.4C326.3 134.6 325.6 133.8 324.9 133.1C322.6 134.5 320.4 135.9 319.9 135.6C319.4 135.2 320.6 132.8 321.7 130.4C320.9 129.8 320 129.2 319.2 128.6C317.3 130.5 315.5 132.4 314.9 132.2C314.4 131.9 314.9 129.3 315.4 126.7C314.5 126.3 313.5 125.9 312.5 125.6C311.1 127.9 309.8 130.2 309.2 130.1C308.6 130 308.5 127.3 308.4 124.6C307.4 124.4 306.4 124.3 305.3 124.2C304.5 126.8 303.8 129.3 303.2 129.3C302.6 129.3 301.8 126.8 301.1 124.2C300.1 124.3 299 124.4 298 124.6C297.9 127.3 297.8 129.9 297.2 130.1C296.6 130.2 295.3 127.9 293.9 125.6C292.9 125.9 292 126.3 291 126.7C291.5 129.3 292 131.9 291.5 132.2C291 132.5 289.1 130.6 287.2 128.6C286.3 129.1 285.5 129.7 284.7 130.4C285.8 132.8 287 135.2 286.5 135.6C286.1 136 283.8 134.6 281.5 133.2C280.8 133.9 280.1 134.7 279.5 135.5C281.2 137.6 282.9 139.7 282.5 140.2C282.2 140.7 279.6 139.9 277.1 139C276.6 139.9 276.1 140.8 275.7 141.7C277.9 143.3 280 144.9 279.8 145.5C279.6 146 276.9 145.8 274.2 145.6C273.9 146.6 273.7 147.6 273.5 148.6C276 149.7 278.4 150.7 278.4 151.3C278.3 151.9 275.7 152.3 273 152.8C273 153.3 273 153.8 273 154.4C273 154.9 273 155.4 273 155.9C275.7 156.3 278.3 156.8 278.4 157.4C278.5 158 276 159.1 273.5 160.1C273.7 161.1 274 162.1 274.2 163.1C276.9 162.9 279.5 162.7 279.8 163.2C280 163.8 277.9 165.4 275.7 167C276.1 167.9 276.6 168.8 277.1 169.7C279.7 168.8 282.2 168 282.5 168.5C282.8 169 281.2 171.1 279.5 173.2C280.1 174 280.8 174.8 281.5 175.5C283.8 174.1 286 172.7 286.5 173.1C287 173.5 285.8 175.9 284.7 178.3C285.5 178.9 286.4 179.5 287.2 180.1C289.1 178.2 290.9 176.3 291.5 176.5C292 176.8 291.5 179.4 291 182C291.9 182.4 292.9 182.8 293.9 183.1C295.3 180.8 296.6 178.5 297.2 178.6C297.8 178.7 297.9 181.4 298 184.1C299 184.3 300 184.4 301.1 184.5C301.9 181.9 302.6 179.4 303.2 179.4C303.8 179.4 304.6 181.9 305.3 184.5C306.3 184.4 307.4 184.3 308.4 184.1C308.5 181.4 308.6 178.8 309.2 178.6C309.8 178.5 311.1 180.8 312.5 183.1C313.5 182.8 314.4 182.4 315.4 182C314.9 179.4 314.4 176.8 314.9 176.5C315.4 176.2 317.3 178.1 319.2 180.1C320.1 179.6 320.9 179 321.7 178.3C320.6 175.9 319.4 173.4 319.9 173.1C320.3 172.7 322.6 174.1 324.9 175.5C325.6 174.8 326.3 174 326.9 173.2C325.2 171.1 323.5 169 323.9 168.5C324.2 168 326.8 168.8 329.3 169.7C329.8 168.8 330.3 167.9 330.7 167C328.5 165.4 326.4 163.8 326.6 163.2C326.8 162.7 329.5 162.9 332.2 163.1C332.5 162.1 332.7 161.1 332.9 160.1C330.4 159 328 158 328 157.4C328.1 156.7 330.7 156.3 333.4 155.8ZM303.2 164.1C297.8 164.1 293.4 159.7 293.4 154.3C293.4 148.9 297.8 144.4 303.2 144.4C308.6 144.4 313 148.8 313 154.3C313 159.7 308.6 164.1 303.2 164.1Z" fill="#D2D9DC"/>
</svg>
