<svg width="283" height="187" viewBox="0 0 283 187" fill="none" xmlns="http://www.w3.org/2000/svg">
<path d="M25.9102 172.399V56.0516C25.9102 53.0208 28.3655 50.5654 31.3964 50.5654H230.799C233.83 50.5654 236.285 53.0208 236.285 56.0516V172.399C236.285 175.43 233.83 177.885 230.799 177.885H31.39C28.3655 177.885 25.9102 175.43 25.9102 172.399Z" fill="#719BD8"/>
<path d="M232.115 59.9903V160.263C232.115 163.287 229.66 165.742 226.635 165.742H35.5448C32.514 165.742 30.0586 163.287 30.0586 160.263V59.9903C30.0586 56.9658 32.514 54.5105 35.5448 54.5105H226.635C229.66 54.5105 232.115 56.9658 232.115 59.9903Z" fill="#F9FAFB"/>
<path d="M126.141 54.7345V52.5669H136.052V55.1501C136.052 57.2538 134.344 58.961 132.241 58.961H130.367C128.033 58.961 126.141 57.0683 126.141 54.7345Z" fill="#719BD8"/>
<path d="M131.096 56.4287C131.626 56.4287 132.055 55.9993 132.055 55.4696C132.055 54.9399 131.626 54.5105 131.096 54.5105C130.566 54.5105 130.137 54.9399 130.137 55.4696C130.137 55.9993 130.566 56.4287 131.096 56.4287Z" fill="#002548"/>
<path d="M74.4062 128.714V72.9637C74.4062 69.2615 77.4051 66.2627 81.1074 66.2627H115.662C119.364 66.2627 122.363 69.2615 122.363 72.9637V128.714C122.363 132.416 119.364 135.415 115.662 135.415H81.1074C77.4051 135.421 74.4062 132.416 74.4062 128.714Z" fill="#9FD9FB"/>
<path d="M80.7812 77.868C80.7812 76.5252 81.8683 75.4382 83.211 75.4382H113.564C114.907 75.4382 115.994 76.5252 115.994 77.868C115.994 79.2108 114.907 80.2978 113.564 80.2978H83.211C81.8683 80.2978 80.7812 79.2108 80.7812 77.868Z" fill="#4783BE"/>
<path d="M80.7812 92.7663C80.7812 91.4235 81.8683 90.3365 83.211 90.3365H113.564C114.907 90.3365 115.994 91.4235 115.994 92.7663C115.994 94.109 114.907 95.196 113.564 95.196H83.211C81.8683 95.1896 80.7812 94.1026 80.7812 92.7663Z" fill="#4783BE"/>
<path d="M80.7812 107.658C80.7812 106.315 81.8683 105.228 83.211 105.228H113.564C114.907 105.228 115.994 106.315 115.994 107.658C115.994 109.001 114.907 110.088 113.564 110.088H83.211C81.8683 110.088 80.7812 109.001 80.7812 107.658Z" fill="#4783BE"/>
<path d="M80.7812 122.55C80.7812 121.207 81.8683 120.12 83.211 120.12H113.564C114.907 120.12 115.994 121.207 115.994 122.55C115.994 123.893 114.907 124.98 113.564 124.98H83.211C81.8683 124.98 80.7812 123.893 80.7812 122.55Z" fill="#4783BE"/>
<path d="M139.816 153.108V124.526C139.816 122.883 141.146 121.553 142.79 121.553H200.146C201.789 121.553 203.119 122.883 203.119 124.526V153.108C203.119 154.751 201.789 156.081 200.146 156.081H142.79C141.153 156.081 139.816 154.745 139.816 153.108Z" fill="#0062BA"/>
<path d="M144.609 138.817C144.609 131.751 150.339 126.022 157.404 126.022C164.47 126.022 170.199 131.751 170.199 138.817C170.199 145.882 164.47 151.611 157.404 151.611C150.339 151.611 144.609 145.882 144.609 138.817Z" fill="#EBFFFD"/>
<path d="M198.64 128.311H173.703V129.59H198.64V128.311Z" fill="#EBFFFD"/>
<path d="M198.64 133.241H173.703V134.519H198.64V133.241Z" fill="#EBFFFD"/>
<path d="M198.64 138.177H173.703V139.456H198.64V138.177Z" fill="#EBFFFD"/>
<path d="M198.64 143.107H173.703V144.386H198.64V143.107Z" fill="#EBFFFD"/>
<path d="M198.64 148.037H173.703V149.315H198.64V148.037Z" fill="#EBFFFD"/>
<path d="M134.824 110.861V80.3104C134.824 77.7975 136.858 75.7642 139.37 75.7642H204.208C206.72 75.7642 208.754 77.7975 208.754 80.3104V110.861C208.754 113.374 206.72 115.408 204.208 115.408H139.37C136.858 115.408 134.824 113.374 134.824 110.861Z" fill="#0062BA"/>
<path d="M142.707 96.0717V83.7502C142.707 82.9574 143.353 82.3116 144.146 82.3116H168.763C169.556 82.3116 170.202 82.9574 170.202 83.7502V96.0717C170.202 96.8646 169.556 97.5104 168.763 97.5104H144.146C143.353 97.5104 142.707 96.8646 142.707 96.0717Z" fill="#65A8CF"/>
<path d="M142.707 104.192V103.873C142.707 103.08 143.353 102.434 144.146 102.434H168.763C169.556 102.434 170.202 103.08 170.202 103.873V104.192C170.202 104.985 169.556 105.631 168.763 105.631H144.146C143.353 105.631 142.707 104.985 142.707 104.192Z" fill="#65A8CF"/>
<path d="M173.707 106.999V94.6777C173.707 93.8849 174.353 93.2391 175.146 93.2391H199.763C200.556 93.2391 201.202 93.8849 201.202 94.6777V106.999C201.202 107.792 200.556 108.438 199.763 108.438H175.146C174.353 108.438 173.707 107.798 173.707 106.999Z" fill="#65A8CF"/>
<path d="M173.707 87.2671C173.707 86.4742 174.353 85.8284 175.146 85.8284H199.763C200.556 85.8284 201.202 86.4742 201.202 87.2671C201.202 88.06 200.556 88.7058 199.763 88.7058H175.146C174.353 88.7058 173.707 88.06 173.707 87.2671Z" fill="#65A8CF"/>
<g opacity="0.5686">
<path d="M232.119 136.368V160.262C232.119 163.287 229.664 165.742 226.639 165.742H208.723L232.119 136.368Z" fill="white"/>
<path d="M232.119 74.8244V109.583L187.391 165.742H159.711L232.119 74.8244Z" fill="white"/>
<path d="M52.7132 54.5102L30.0586 82.9576V59.99C30.0586 56.9656 32.514 54.5102 35.5448 54.5102H52.7132Z" fill="white"/>
<path d="M71.9853 54.5102L30.0586 107.153V98.1372L64.8046 54.5102H71.9853Z" fill="white"/>
</g>
<path d="M178.711 169.72H98.1445V178.671H178.711V169.72Z" fill="#002548"/>
<path d="M197.252 169.72H181.906V178.671H197.252V169.72Z" fill="#002548"/>
<path d="M214.108 169.72H198.762V178.671H214.108V169.72Z" fill="#002548"/>
<path d="M231.373 169.72H216.027V178.671H231.373V169.72Z" fill="#002548"/>
<path d="M95.8148 169.72H80.4688V178.671H95.8148V169.72Z" fill="#002548"/>
<path d="M13.5234 172.795C13.5234 171.964 14.1948 171.293 15.0261 171.293H247.154C247.985 171.293 248.657 171.964 248.657 172.795C248.657 180.116 242.723 186.05 235.402 186.05H26.7786C19.4572 186.05 13.5234 180.116 13.5234 172.795Z" fill="#4783BE"/>
<path d="M41.1274 85.7708L39.1484 83.6819L21.0438 100.833L23.0227 102.922L41.1274 85.7708Z" fill="#4783BE"/>
<path d="M11.3341 107.842L24.1751 95.6769C24.7316 95.152 25.6112 95.1715 26.1361 95.728L28.4044 98.121C28.9293 98.6775 28.9098 99.5571 28.3533 100.082L15.5123 112.247C14.9558 112.772 14.0762 112.752 13.5513 112.196L11.283 109.803C10.7493 109.244 10.7776 108.367 11.3341 107.842Z" fill="#002548"/>
<path d="M33.4764 87.0451C37.4169 93.535 45.8724 95.6017 52.3624 91.6613C58.8523 87.7209 60.9191 79.2655 56.9786 72.7756C53.0381 66.2857 44.5826 64.219 38.0927 68.1594C31.6027 72.0998 29.536 80.5552 33.4764 87.0451Z" fill="#4783BE"/>
<path d="M52.7037 87.8028C48.3433 91.9313 41.4677 91.7448 37.3336 87.3878C37.1892 87.2362 37.0469 87.0757 36.9134 86.9174C34.9072 84.5374 34.0887 81.526 34.4299 78.6259C34.6428 76.7836 35.3309 74.997 36.4862 73.4502C36.852 72.9438 37.2772 72.4613 37.7486 72.018C41.8427 68.1408 48.1522 68.0726 52.3284 71.6859C52.6027 71.9158 52.8705 72.1721 53.1186 72.4329C54.1993 73.5721 54.9903 74.8871 55.4691 76.2795C56.4665 79.0925 56.2659 82.2364 54.8762 84.9128C54.3346 85.9673 53.6061 86.9482 52.7037 87.8028Z" fill="#EBFFFD"/>
<path d="M52.3277 71.686L36.4888 73.4557C36.8546 72.9494 37.2798 72.4669 37.7512 72.0235C41.842 68.141 48.1515 68.0727 52.3277 71.686Z" fill="white"/>
<path d="M54.8724 84.9216L36.9117 86.9174C34.9055 84.5374 34.087 81.526 34.4282 78.6259L55.4653 76.2883C56.4681 79.098 56.2675 82.2419 54.8724 84.9216Z" fill="white"/>
<path d="M85.9554 121.921V156.955C85.9554 158.955 84.331 160.585 82.326 160.585H20.8022C18.7924 160.585 17.168 158.96 17.168 156.955V121.921C17.168 121.886 17.168 121.847 17.1728 121.813C17.2216 119.862 18.8265 118.291 20.8022 118.291H82.326C84.292 118.291 85.8969 119.862 85.9506 121.813C85.9554 121.847 85.9554 121.886 85.9554 121.921Z" fill="#9FD9FB"/>
<path d="M45.9089 131.838L36.3086 140.828L48.9139 144.458C49.2602 143.297 49.4407 142.058 49.4407 140.789C49.4407 137.331 48.1041 134.179 45.9089 131.838Z" fill="#4783BE"/>
<path d="M22.4556 137.574C22.1678 138.657 22.0117 139.789 22.0117 140.96C22.0117 148.204 27.8851 154.082 35.1341 154.082C37.1732 154.082 39.0952 153.619 40.8221 152.789L35.1292 140.999L22.4556 137.574Z" fill="#4783BE"/>
<path d="M40.8218 152.795H40.8267C44.1438 151.19 46.6951 148.229 47.7342 144.633L35.1289 141.004L40.8218 152.795Z" fill="#0054A6"/>
<path d="M44.7299 132.013C42.3347 129.447 38.9249 127.838 35.1394 127.838C29.0611 127.838 23.9537 131.965 22.4609 137.574L35.1345 141.004L44.7299 132.013Z" fill="#D2D9DC"/>
<path d="M54.1731 129.95C54.5988 129.95 54.9439 129.605 54.9439 129.179C54.9439 128.754 54.5988 128.409 54.1731 128.409C53.7474 128.409 53.4023 128.754 53.4023 129.179C53.4023 129.605 53.7474 129.95 54.1731 129.95Z" fill="#4783BE"/>
<path d="M57.9414 129.179H79.5811" stroke="#4783BE" stroke-width="0.487817" stroke-miterlimit="10" stroke-linecap="round" stroke-linejoin="round"/>
<path d="M57.9414 131.867H79.5811" stroke="#4783BE" stroke-width="0.487817" stroke-miterlimit="10" stroke-linecap="round" stroke-linejoin="round"/>
<path d="M54.1731 135.36C54.5988 135.36 54.9439 135.015 54.9439 134.589C54.9439 134.163 54.5988 133.818 54.1731 133.818C53.7474 133.818 53.4023 134.163 53.4023 134.589C53.4023 135.015 53.7474 135.36 54.1731 135.36Z" fill="#4783BE"/>
<path d="M57.9414 134.589H79.5811" stroke="#4783BE" stroke-width="0.487817" stroke-miterlimit="10" stroke-linecap="round" stroke-linejoin="round"/>
<path d="M57.9414 137.282H79.5811" stroke="#4783BE" stroke-width="0.487817" stroke-miterlimit="10" stroke-linecap="round" stroke-linejoin="round"/>
<path d="M54.1731 140.775C54.5988 140.775 54.9439 140.43 54.9439 140.004C54.9439 139.578 54.5988 139.233 54.1731 139.233C53.7474 139.233 53.4023 139.578 53.4023 140.004C53.4023 140.43 53.7474 140.775 54.1731 140.775Z" fill="#4783BE"/>
<path d="M57.9414 140.004H79.5811" stroke="#4783BE" stroke-width="0.487817" stroke-miterlimit="10" stroke-linecap="round" stroke-linejoin="round"/>
<path d="M57.9414 142.692H79.5811" stroke="#4783BE" stroke-width="0.487817" stroke-miterlimit="10" stroke-linecap="round" stroke-linejoin="round"/>
<path d="M54.1731 146.189C54.5988 146.189 54.9439 145.844 54.9439 145.419C54.9439 144.993 54.5988 144.648 54.1731 144.648C53.7474 144.648 53.4023 144.993 53.4023 145.419C53.4023 145.844 53.7474 146.189 54.1731 146.189Z" fill="#4783BE"/>
<path d="M57.9414 145.419H79.5811" stroke="#4783BE" stroke-width="0.487817" stroke-miterlimit="10" stroke-linecap="round" stroke-linejoin="round"/>
<path d="M57.9414 148.106H79.5811" stroke="#4783BE" stroke-width="0.487817" stroke-miterlimit="10" stroke-linecap="round" stroke-linejoin="round"/>
<path d="M54.1731 151.604C54.5988 151.604 54.9439 151.259 54.9439 150.834C54.9439 150.408 54.5988 150.063 54.1731 150.063C53.7474 150.063 53.4023 150.408 53.4023 150.834C53.4023 151.259 53.7474 151.604 54.1731 151.604Z" fill="#4783BE"/>
<path d="M57.9414 150.834H79.5811" stroke="#4783BE" stroke-width="0.487817" stroke-miterlimit="10" stroke-linecap="round" stroke-linejoin="round"/>
<path d="M57.9414 153.521H79.5811" stroke="#4783BE" stroke-width="0.487817" stroke-miterlimit="10" stroke-linecap="round" stroke-linejoin="round"/>
<path d="M85.9486 121.813H17.1758C17.2246 119.862 18.8295 118.291 20.8052 118.291H82.329C84.29 118.291 85.895 119.862 85.9486 121.813Z" fill="#002548"/>
<path d="M72.0508 121.072C72.6139 121.072 73.0703 120.616 73.0703 120.052C73.0703 119.489 72.6139 119.033 72.0508 119.033C71.4877 119.033 71.0312 119.489 71.0312 120.052C71.0312 120.616 71.4877 121.072 72.0508 121.072Z" fill="white"/>
<path d="M76.0508 121.072C76.6139 121.072 77.0703 120.616 77.0703 120.052C77.0703 119.489 76.6139 119.033 76.0508 119.033C75.4877 119.033 75.0312 119.489 75.0312 120.052C75.0312 120.616 75.4877 121.072 76.0508 121.072Z" fill="white"/>
<path d="M80.0508 121.072C80.6139 121.072 81.0703 120.616 81.0703 120.052C81.0703 119.489 80.6139 119.033 80.0508 119.033C79.4877 119.033 79.0312 119.489 79.0312 120.052C79.0312 120.616 79.4877 121.072 80.0508 121.072Z" fill="white"/>
<path d="M229.883 3.53081V37.6143C229.883 39.5619 228.3 41.1449 226.352 41.1449H166.496C164.544 41.1449 162.961 39.5619 162.961 37.6143V3.53081C162.961 3.49388 162.961 3.46158 162.966 3.42465C163.016 1.52779 164.576 0.000152588 166.496 0.000152588H226.352C228.267 0.000152588 229.827 1.52779 229.878 3.42465C229.883 3.46158 229.883 3.49388 229.883 3.53081Z" fill="#9FD9FB"/>
<path d="M229.877 3.4245H162.965C163.016 1.52764 164.576 0 166.496 0H226.351C228.267 0 229.826 1.52764 229.877 3.4245Z" fill="#002548"/>
<path d="M216.363 2.70452C216.911 2.70452 217.356 2.26026 217.356 1.71224C217.356 1.16423 216.911 0.719971 216.363 0.719971C215.815 0.719971 215.371 1.16423 215.371 1.71224C215.371 2.26026 215.815 2.70452 216.363 2.70452Z" fill="white"/>
<path d="M220.254 2.70452C220.802 2.70452 221.246 2.26026 221.246 1.71224C221.246 1.16423 220.802 0.719971 220.254 0.719971C219.706 0.719971 219.262 1.16423 219.262 1.71224C219.262 2.26026 219.706 2.70452 220.254 2.70452Z" fill="white"/>
<path d="M224.149 2.70452C224.697 2.70452 225.141 2.26026 225.141 1.71224C225.141 1.16423 224.697 0.719971 224.149 0.719971C223.601 0.719971 223.156 1.16423 223.156 1.71224C223.156 2.26026 223.601 2.70452 224.149 2.70452Z" fill="white"/>
<path d="M175.427 8.71387H173.691V34.3284H175.427V8.71387Z" fill="#4783BE"/>
<path d="M180.2 12.9922H178.465V34.3284H180.2V12.9922Z" fill="#D2D9DC"/>
<path d="M184.97 17.9673H183.234V34.3237H184.97V17.9673Z" fill="#4783BE"/>
<path d="M189.739 21.5212H188.004V34.3285H189.739V21.5212Z" fill="#D2D9DC"/>
<path d="M194.513 15.4893H192.777V34.3286H194.513V15.4893Z" fill="#4783BE"/>
<path d="M199.278 17.9673H197.543V34.3237H199.278V17.9673Z" fill="#D2D9DC"/>
<path d="M204.052 20.5706H202.316V34.3286H204.052V20.5706Z" fill="#4783BE"/>
<path d="M208.825 24.918H207.09V34.3238H208.825V24.918Z" fill="#D2D9DC"/>
<path d="M213.591 20.5706H211.855V34.3286H213.591V20.5706Z" fill="#4783BE"/>
<path d="M218.364 28.3792H216.629V34.3282H218.364V28.3792Z" fill="#D2D9DC"/>
<path d="M171.756 6.81689H171.262V33.8345H171.756V6.81689Z" fill="#0054A6"/>
<path d="M221.581 33.8291H171.266V34.3229H221.581V33.8291Z" fill="#0054A6"/>
<path d="M26.1172 38.1861V11.6121C26.1172 8.02505 29.0265 5.11572 32.6137 5.11572H72.6924C76.2796 5.11572 79.1889 8.02505 79.1889 11.6121V38.1861C79.1889 41.7732 76.2796 44.6825 72.6924 44.6825H32.6137C29.0265 44.6761 26.1172 41.7732 26.1172 38.1861Z" fill="#0062BA"/>
<path d="M67.2264 27.3609C68.0641 22.4247 65.5639 16.9769 61.6571 15.2441C57.7566 13.5113 52.9418 15.7173 50.9532 20.142C48.6769 16.6252 44.3864 15.2889 41.1829 17.2199C37.9794 19.1509 36.2722 24.1127 37.3911 28.2241C33.4587 25.4107 31.3806 30.347 31.4509 31.6578C31.5596 33.5952 32.9024 35.0786 34.501 35.085C41.6433 35.0978 62.5523 35.1298 70.9159 35.1362C73.384 35.1362 74.7396 31.6322 73.1474 29.3495C73.0004 29.1321 72.8341 28.9339 72.6615 28.7485C71.2292 27.1947 69.0488 26.7343 67.2264 27.3609Z" fill="#EBFFFD"/>
<path d="M253.346 79.2553C253.294 78.0788 253.077 76.9279 252.719 75.8345C251.99 73.5838 250.686 71.5632 248.934 69.9903C248.083 69.2102 247.124 68.5452 246.075 68.0081C245.052 67.4838 243.946 67.081 242.77 66.8316C241.593 66.5822 240.417 66.4863 239.272 66.5502C238.095 66.6078 236.944 66.8252 235.851 67.1833C233.607 67.9058 231.586 69.2102 230.007 70.9558C229.233 71.8062 228.562 72.7653 228.031 73.8203C227.5 74.8434 227.097 75.9496 226.848 77.1325C226.592 78.3154 226.503 79.4855 226.567 80.6301C226.624 81.8066 226.835 82.9575 227.2 84.0509C227.916 86.2952 229.22 88.3094 230.972 89.8951C231.829 90.6688 232.788 91.3402 233.837 91.8773C234.86 92.4016 235.973 92.8045 237.143 93.0538C238.326 93.3096 239.496 93.3991 240.64 93.3352C241.817 93.2776 242.968 93.0602 244.068 92.7085C246.312 91.986 248.339 90.6752 249.912 88.9232C250.692 88.0728 251.357 87.1137 251.894 86.0651C252.418 85.042 252.821 83.9358 253.071 82.7593C253.326 81.5828 253.416 80.4063 253.346 79.2553ZM238.812 85.3106C238.633 85.2722 238.46 85.2274 238.294 85.1699C237.232 84.8374 236.331 84.1852 235.672 83.3604C235.448 83.079 235.256 82.7849 235.09 82.4652C234.598 81.5316 234.38 80.4446 234.515 79.3257C234.527 79.153 234.559 78.974 234.598 78.8014C234.636 78.6223 234.681 78.4497 234.739 78.2834C235.071 77.2156 235.723 76.314 236.554 75.6555C236.829 75.4317 237.13 75.2398 237.443 75.08C238.383 74.5876 239.47 74.3766 240.583 74.5045C240.762 74.5173 240.934 74.5493 241.107 74.5876C241.28 74.626 241.459 74.6708 241.619 74.7283C242.693 75.0672 243.594 75.7066 244.247 76.5378C244.47 76.8128 244.662 77.1133 244.822 77.4266C245.314 78.3666 245.532 79.4536 245.404 80.5661C245.391 80.7452 245.359 80.9178 245.321 81.0968C245.283 81.2695 245.238 81.4485 245.18 81.6084C244.841 82.6826 244.202 83.5842 243.371 84.2364C243.089 84.4601 242.795 84.652 242.475 84.8182C241.542 85.3042 240.455 85.528 239.342 85.3937C239.163 85.3809 238.991 85.3489 238.812 85.3106Z" fill="#0054A6"/>
<path d="M247.392 61.9083L244.253 76.538C243.6 75.7068 242.699 75.061 241.625 74.7285C241.465 74.6709 241.286 74.6262 241.113 74.5878C240.94 74.5495 240.768 74.5175 240.589 74.5047C239.476 74.3704 238.389 74.5878 237.449 75.0802L240.589 60.4504L247.392 61.9083Z" fill="#0054A6"/>
<path d="M242.474 84.8185L239.335 99.4482L232.531 97.9903L235.671 83.3606C236.329 84.1854 237.231 84.8376 238.292 85.1701C238.459 85.2341 238.631 85.2724 238.81 85.3108C238.989 85.3492 239.162 85.3811 239.341 85.3939C240.454 85.5282 241.541 85.3044 242.474 84.8185Z" fill="#0054A6"/>
<path d="M234.515 79.3195C234.381 80.4384 234.598 81.5254 235.091 82.459L220.461 79.3195L221.925 72.5097L236.561 75.6492C235.73 76.3078 235.078 77.2094 234.746 78.2772C234.682 78.4435 234.643 78.6161 234.605 78.7951C234.56 78.9678 234.528 79.1468 234.515 79.3195Z" fill="#0054A6"/>
<path d="M259.465 80.5663L258.001 87.376L243.371 84.2365C244.202 83.5843 244.848 82.6827 245.181 81.6085C245.238 81.4487 245.283 81.2696 245.321 81.097C245.36 80.9179 245.392 80.7453 245.404 80.5663C245.539 79.4537 245.315 78.3667 244.823 77.4268L259.465 80.5663Z" fill="#0054A6"/>
<path d="M240.588 74.5047C239.476 74.3704 238.389 74.5878 237.449 75.0802C237.136 75.24 236.829 75.4319 236.56 75.6556C235.729 76.3142 235.077 77.2158 234.744 78.2836L232.481 74.7796L230.012 70.9624L226.617 65.7128L232.461 61.9275L235.857 67.1835L238.325 71.0007L240.588 74.5047Z" fill="#0054A6"/>
<path d="M253.307 94.1794L247.463 97.9647L241.599 88.8979L239.336 85.4003C240.449 85.5346 241.536 85.3108 242.469 84.8248C242.789 84.665 243.089 84.4732 243.364 84.243C244.196 83.5908 244.841 82.6892 245.174 81.615L247.437 85.119L253.307 94.1794Z" fill="#0054A6"/>
<path d="M238.293 85.1701L234.795 87.4337L230.971 89.9018L225.722 93.2971L221.949 87.4528L227.199 84.0576L231.016 81.5894L234.52 79.3259C234.386 80.4449 234.603 81.5319 235.096 82.4654C235.256 82.7851 235.447 83.0857 235.678 83.3606C236.323 84.1855 237.225 84.8377 238.293 85.1701Z" fill="#0054A6"/>
<path d="M257.971 72.4458L245.406 80.5663C245.541 79.4537 245.317 78.3667 244.825 77.4268C244.665 77.1135 244.473 76.813 244.249 76.538C243.597 75.7068 242.695 75.061 241.621 74.7285L245.125 72.465L248.942 69.9968L254.198 66.6016L257.971 72.4458Z" fill="#0054A6"/>
<path d="M248.997 169.362C258.753 167.084 264.264 154.97 261.306 142.305C258.349 129.639 248.042 121.219 238.286 123.497C228.53 125.776 223.019 137.89 225.976 150.555C228.934 163.22 239.24 171.641 248.997 169.362Z" fill="#7DB0D1"/>
<path d="M251.711 168.728C261.468 166.449 266.979 154.335 264.021 141.67C261.064 129.005 250.757 120.584 241.001 122.863C231.245 125.141 225.734 137.255 228.691 149.92C231.649 162.585 241.955 171.006 251.711 168.728Z" fill="#9FD9FB"/>
<path d="M250.854 165.062C259.052 163.147 263.684 152.97 261.199 142.33C258.715 131.691 250.054 124.617 241.856 126.532C233.658 128.446 229.026 138.623 231.511 149.263C233.995 159.903 242.655 166.976 250.854 165.062Z" fill="#4783BE"/>
<path d="M249.717 160.179C255.835 158.751 259.29 151.153 257.435 143.209C255.58 135.265 249.117 129.984 242.999 131.412C236.881 132.841 233.426 140.439 235.281 148.382C237.136 156.326 243.599 161.608 249.717 160.179Z" fill="#9FD9FB"/>
<path d="M248.761 156.108C253.149 155.084 255.628 149.636 254.298 143.942C252.968 138.247 248.333 134.461 243.945 135.486C239.557 136.51 237.078 141.958 238.408 147.652C239.738 153.347 244.373 157.133 248.761 156.108Z" fill="#4783BE"/>
<path d="M245.217 140.915C247.293 140.43 249.488 142.223 250.118 144.919C250.748 147.614 249.574 150.193 247.497 150.678C245.42 151.164 243.225 149.371 242.596 146.675C241.966 143.979 243.14 141.401 245.217 140.915Z" fill="#9FD9FB"/>
<path d="M283.003 130.595L277.753 134.29C275.669 135.761 272.772 135.908 269.671 134.7L266.602 133.504L275.106 127.513L283.003 130.595Z" fill="#9FD9FB"/>
<path d="M274.35 118.312L269.101 122.007C267.016 123.478 265.904 126.157 265.993 129.482L266.089 132.775L274.593 126.784L274.35 118.312Z" fill="#9FD9FB"/>
<path d="M274.666 126.493L246.617 146.252L247.243 147.141L275.292 127.381L274.666 126.493Z" fill="#0054A6"/>
<path d="M112.981 181.728C120.926 181.728 127.368 175.286 127.368 167.341C127.368 159.395 120.926 152.954 112.981 152.954C105.035 152.954 98.5938 159.395 98.5938 167.341C98.5938 175.286 105.035 181.728 112.981 181.728Z" fill="#FFB84D"/>
<path d="M112.981 179.049C119.447 179.049 124.689 173.807 124.689 167.341C124.689 160.875 119.447 155.633 112.981 155.633C106.515 155.633 101.273 160.875 101.273 167.341C101.273 173.807 106.515 179.049 112.981 179.049Z" stroke="#E38424" stroke-width="1.27883" stroke-miterlimit="10"/>
<path d="M118.333 170.007C118.333 167.609 116.408 166.849 114.515 166.375V163.198C115.289 163.351 116.082 163.639 116.862 164.086L117.783 161.823C116.881 161.254 115.724 160.896 114.515 160.755V158.722H113.556V160.691C113.473 160.691 113.396 160.685 113.313 160.685C112.994 160.685 112.699 160.704 112.405 160.729V158.722H111.446V160.87C109.048 161.382 107.885 162.916 107.885 164.7C107.885 167.015 109.637 167.82 111.446 168.313V171.465C110.391 171.248 109.387 170.826 108.639 170.276L107.629 172.52C108.505 173.198 109.918 173.709 111.446 173.914V175.973H112.405V173.991C112.559 173.997 112.712 174.01 112.872 174.01C113.109 174.01 113.339 174.004 113.556 173.984V175.973H114.515V173.863C117.08 173.39 118.333 171.81 118.333 170.007ZM113.294 163.076C113.384 163.076 113.467 163.082 113.556 163.082V166.145C113.147 166.049 112.757 165.96 112.405 165.858V163.14C112.668 163.095 112.962 163.076 113.294 163.076ZM110.845 164.547C110.845 164.131 111.031 163.754 111.446 163.485V165.474C111.075 165.25 110.845 164.956 110.845 164.547ZM112.891 171.612C112.731 171.612 112.572 171.606 112.405 171.593V168.543C112.808 168.639 113.198 168.728 113.556 168.824V171.58C113.352 171.599 113.134 171.612 112.891 171.612ZM114.515 171.356V169.15C115.04 169.393 115.372 169.72 115.372 170.231C115.372 170.711 115.11 171.107 114.515 171.356Z" fill="#FFD787"/>
<path d="M260.654 59.5874C260.616 58.6986 260.45 57.8354 260.181 57.0105C259.631 55.3161 258.647 53.7879 257.329 52.605C256.69 52.0167 255.967 51.518 255.174 51.1152C254.401 50.7187 253.57 50.4182 252.681 50.2264C251.798 50.0345 250.91 49.9706 250.04 50.0154C249.151 50.0601 248.282 50.22 247.463 50.4885C245.769 51.032 244.247 52.0167 243.051 53.3339C242.469 53.9733 241.964 54.6959 241.561 55.4887C241.158 56.256 240.858 57.0937 240.666 57.9888C240.474 58.8776 240.41 59.76 240.455 60.6296C240.5 61.5184 240.66 62.3816 240.928 63.2064C241.465 64.8945 242.45 66.4227 243.774 67.6184C244.419 68.2066 245.142 68.7054 245.935 69.1146C246.709 69.511 247.546 69.8115 248.429 70.0033C249.317 70.1952 250.2 70.2591 251.069 70.2144C251.958 70.1696 252.828 70.0098 253.653 69.7412C255.347 69.1977 256.875 68.2066 258.058 66.8894C258.647 66.25 259.145 65.5275 259.548 64.7346C259.945 63.9609 260.245 63.1297 260.437 62.2409C260.635 61.3457 260.705 60.457 260.654 59.5874ZM249.688 64.1527C249.554 64.1208 249.426 64.0888 249.298 64.044C248.499 63.7947 247.815 63.3023 247.322 62.6821C247.15 62.4711 247.009 62.2473 246.888 62.0043C246.517 61.301 246.357 60.4825 246.453 59.6385C246.459 59.5106 246.485 59.3699 246.517 59.2421C246.549 59.1078 246.581 58.9799 246.625 58.852C246.881 58.0464 247.367 57.3686 247.994 56.8699C248.198 56.7036 248.429 56.5565 248.665 56.435C249.375 56.0642 250.193 55.9043 251.031 56.0002C251.165 56.013 251.3 56.0322 251.427 56.0642C251.555 56.0898 251.69 56.1281 251.811 56.1729C252.623 56.4287 253.301 56.9082 253.793 57.5412C253.96 57.7522 254.107 57.976 254.228 58.2126C254.599 58.9223 254.765 59.7408 254.663 60.5784C254.65 60.7127 254.631 60.847 254.599 60.9813C254.573 61.1091 254.535 61.2434 254.49 61.3649C254.235 62.177 253.755 62.8547 253.122 63.3471C252.911 63.5197 252.687 63.6604 252.444 63.7819C251.741 64.1464 250.922 64.3126 250.078 64.2167C249.957 64.2103 249.823 64.1847 249.688 64.1527Z" fill="#0054A6"/>
<path d="M256.158 46.5049L253.792 57.5347C253.3 56.9081 252.622 56.4221 251.81 56.1664C251.689 56.1216 251.554 56.0896 251.426 56.0577C251.298 56.0321 251.164 56.0065 251.03 55.9937C250.192 55.8914 249.374 56.0577 248.664 56.4285L251.03 45.3987L256.158 46.5049Z" fill="#0054A6"/>
<path d="M252.45 63.7817L250.084 74.8115L244.949 73.7117L247.315 62.6819C247.814 63.3085 248.492 63.7945 249.291 64.0438C249.419 64.0886 249.547 64.1206 249.681 64.1525C249.815 64.1845 249.949 64.2037 250.084 64.2165C250.928 64.3188 251.746 64.1525 252.45 63.7817Z" fill="#0054A6"/>
<path d="M246.453 59.6385C246.351 60.4825 246.517 61.301 246.888 62.0043L235.852 59.6385L236.951 54.504L247.988 56.8699C247.361 57.3622 246.869 58.0464 246.619 58.852C246.575 58.9799 246.543 59.1078 246.511 59.2421C246.485 59.37 246.46 59.5106 246.453 59.6385Z" fill="#0054A6"/>
<path d="M265.266 60.5782L264.167 65.7127L253.137 63.3469C253.763 62.8545 254.249 62.1768 254.505 61.3647C254.55 61.2432 254.582 61.1089 254.614 60.9811C254.646 60.8468 254.665 60.7125 254.678 60.5782C254.78 59.7406 254.614 58.9158 254.243 58.2124L265.266 60.5782Z" fill="#0054A6"/>
<path d="M251.031 56.0065C250.194 55.9042 249.375 56.0705 248.665 56.4413C248.429 56.5628 248.199 56.7099 247.994 56.8761C247.367 57.3685 246.875 58.0526 246.626 58.8583L244.918 56.2175L243.058 53.3402L240.5 49.3822L244.906 46.5305L247.47 50.4948L249.33 53.3722L251.031 56.0065Z" fill="#0054A6"/>
<path d="M260.624 70.841L256.218 73.6928L251.793 66.8511L250.086 64.2167C250.924 64.319 251.748 64.1527 252.452 63.7819C252.695 63.6604 252.919 63.5133 253.13 63.3471C253.756 62.8547 254.242 62.177 254.498 61.3649L256.205 64.0057L260.624 70.841Z" fill="#0054A6"/>
<path d="M249.298 64.0504L246.664 65.7576L243.78 67.6183L239.822 70.1759L236.977 65.764L240.935 63.2064L243.812 61.3457L246.453 59.6384C246.35 60.4825 246.517 61.3009 246.888 62.0043C247.009 62.2472 247.156 62.471 247.322 62.682C247.815 63.3087 248.499 63.7946 249.298 64.0504Z" fill="#0054A6"/>
<path d="M264.14 54.4527L254.664 60.5783C254.767 59.7406 254.6 58.9158 254.23 58.2124C254.108 57.9759 253.961 57.7521 253.795 57.5411C253.302 56.9144 252.625 56.4285 251.812 56.1727L254.453 54.4655L257.331 52.6048L261.295 50.0408L264.14 54.4527Z" fill="#0054A6"/>
</svg>
