<svg width="776" height="208" viewBox="0 0 776 208" fill="none" xmlns="http://www.w3.org/2000/svg">
<g clip-path="url(#clip0_10266_22607)">
<path d="M0 24C0 10.7452 10.7452 0 24 0H752C765.255 0 776 10.7452 776 24V208H24C10.7452 208 0 197.255 0 184V24Z" fill="#002548"/>
<mask id="mask0_10266_22607" style="mask-type:luminance" maskUnits="userSpaceOnUse" x="0" y="0" width="776" height="208">
<path d="M776 0H0V208H776V0Z" fill="white"/>
</mask>
<g mask="url(#mask0_10266_22607)">
<path d="M743.5 361C799.005 361 844 316.005 844 260.5C844 204.995 799.005 160 743.5 160C687.995 160 643 204.995 643 260.5C643 316.005 687.995 361 743.5 361Z" fill="#0054A6"/>
</g>
<path opacity="0.1" d="M814 89.717C743.423 89.717 686 31.1741 686 -40.7805C686 -112.735 743.423 -171.278 814 -171.278C884.577 -171.278 942 -112.735 942 -40.7805C942 31.1741 884.577 89.717 814 89.717ZM814 -169.672C744.288 -169.672 687.575 -111.853 687.575 -40.7805C687.575 30.2921 744.288 88.1113 814 88.1113C883.712 88.1113 940.425 30.2921 940.425 -40.7805C940.425 -111.853 883.712 -169.672 814 -169.672Z" fill="white"/>
<path opacity="0.1" d="M814 128.458C721.914 128.458 647 52.5401 647 -40.7805C647 -134.101 721.914 -210.02 814 -210.02C906.086 -210.02 981 -134.101 981 -40.7805C981 52.5401 906.086 128.458 814 128.458ZM814 -208.413C722.787 -208.413 648.585 -133.21 648.585 -40.7805C648.585 51.649 722.787 126.852 814 126.852C905.213 126.852 979.415 51.6551 979.415 -40.7805C979.415 -133.216 905.213 -208.413 814 -208.413Z" fill="white"/>
<path opacity="0.1" d="M814 169.239C759.243 169.239 707.765 147.498 669.045 108.023C630.324 68.5468 609 16.0643 609 -39.761C609 -95.5863 630.324 -148.069 669.045 -187.545C707.765 -227.02 759.243 -248.761 814 -248.761C868.757 -248.761 920.235 -227.02 958.955 -187.545C997.676 -148.069 1019 -95.5863 1019 -39.761C1019 16.0643 997.676 68.5468 958.955 108.023C920.235 147.498 868.757 169.239 814 169.239ZM814 -247.15C759.666 -247.15 708.582 -225.58 670.16 -186.408C631.737 -147.236 610.58 -95.1548 610.58 -39.761C610.58 15.6328 631.737 67.7142 670.16 106.886C708.582 146.058 759.666 167.628 814 167.628C868.334 167.628 919.418 146.058 957.84 106.886C996.263 67.7142 1017.42 15.6328 1017.42 -39.761C1017.42 -95.1548 996.263 -147.236 957.84 -186.408C919.418 -225.58 868.334 -247.15 814 -247.15Z" fill="white"/>
<path opacity="0.1" d="M814 209C748.292 209 686.517 183.021 640.054 135.844C593.592 88.6678 568 25.9369 568 -40.7805C568 -107.498 593.586 -170.223 640.048 -217.399C686.511 -264.576 748.292 -290.561 814 -290.561C879.708 -290.561 941.483 -264.582 987.946 -217.405C1034.41 -170.229 1060 -107.498 1060 -40.7805C1060 25.9369 1034.41 88.6617 987.952 135.838C941.489 183.015 879.708 209 814 209ZM814 -288.941C748.72 -288.941 687.342 -263.127 641.18 -216.256C595.019 -169.385 569.596 -107.064 569.596 -40.7805C569.596 25.5027 595.019 87.8241 641.18 134.695C687.342 181.566 748.72 207.38 814 207.38C879.28 207.38 940.658 181.566 986.82 134.695C1032.98 87.8241 1058.4 25.5027 1058.4 -40.7805C1058.4 -107.064 1032.98 -169.385 986.82 -216.256C940.658 -263.127 879.28 -288.941 814 -288.941Z" fill="white"/>
<path opacity="0.1" d="M813.997 247.741C775.657 247.741 738.463 240.114 703.454 225.065C669.634 210.535 639.264 189.73 613.18 163.231C587.096 136.744 566.617 105.884 552.315 71.5253C537.508 35.9589 530 -1.827 530 -40.7775C530 -79.728 537.508 -117.514 552.315 -153.08C566.617 -187.439 587.096 -218.292 613.18 -244.792C639.264 -271.291 669.634 -292.09 703.454 -306.626C738.469 -321.675 775.663 -329.302 813.997 -329.302C852.331 -329.302 889.531 -321.675 924.54 -306.626C958.36 -292.096 988.73 -271.291 1014.81 -244.792C1040.9 -218.292 1061.37 -187.439 1075.68 -153.08C1090.49 -117.508 1098 -79.7218 1098 -40.7775C1098 -1.83307 1090.49 35.9589 1075.68 71.5253C1061.38 105.884 1040.9 136.737 1014.81 163.237C988.73 189.736 958.36 210.535 924.54 225.071C889.531 240.114 852.337 247.741 813.997 247.741ZM813.997 -327.687C738.559 -327.687 667.641 -297.846 614.302 -243.652C560.964 -189.458 531.585 -117.416 531.585 -40.7775C531.585 35.8613 560.958 107.909 614.302 162.097C667.647 216.285 738.559 246.132 813.997 246.132C889.435 246.132 960.353 216.291 1013.69 162.097C1067.03 107.909 1096.41 35.8552 1096.41 -40.7775C1096.41 -117.41 1067.04 -189.464 1013.69 -243.652C960.353 -297.84 889.435 -327.687 813.997 -327.687Z" fill="white"/>
<path opacity="0.1" d="M814 287.502C770.664 287.502 728.629 278.836 689.053 261.742C650.826 245.233 616.496 221.599 587.019 191.5C557.541 161.4 534.396 126.346 518.228 87.3124C501.487 46.9014 493 3.97961 493 -40.2708C493 -84.5211 501.487 -127.443 518.228 -167.854C534.396 -206.888 557.541 -241.942 587.019 -272.041C616.496 -302.141 650.826 -325.774 689.053 -342.284C728.629 -359.378 770.664 -368.044 814 -368.044C857.336 -368.044 899.371 -359.378 938.947 -342.284C977.174 -325.774 1011.5 -302.141 1040.98 -272.041C1070.46 -241.942 1093.6 -206.888 1109.77 -167.854C1126.51 -127.443 1135 -84.5211 1135 -40.2708C1135 3.97961 1126.51 46.9014 1109.77 87.3124C1093.6 126.346 1070.46 161.4 1040.98 191.5C1011.5 221.599 977.174 245.233 938.947 261.742C899.371 278.836 857.336 287.502 814 287.502ZM814 -366.435C770.879 -366.435 729.047 -357.812 689.668 -340.803C651.632 -324.373 617.469 -300.855 588.135 -270.902C558.801 -240.948 535.769 -206.065 519.678 -167.226C503.021 -127.016 494.576 -84.3017 494.576 -40.2708C494.576 3.76022 503.021 46.4748 519.678 86.6847C535.769 125.523 558.801 160.407 588.135 190.36C617.469 220.313 651.632 243.831 689.668 260.261C729.047 277.27 770.879 285.894 814 285.894C857.121 285.894 898.953 277.27 938.332 260.261C976.368 243.831 1010.53 220.313 1039.87 190.36C1069.2 160.407 1092.23 125.523 1108.32 86.6847C1124.98 46.4748 1133.42 3.76022 1133.42 -40.2708C1133.42 -84.3017 1124.98 -127.016 1108.32 -167.226C1092.23 -206.065 1069.2 -240.948 1039.87 -270.902C1010.53 -300.855 976.368 -324.373 938.332 -340.803C898.953 -357.812 857.121 -366.435 814 -366.435Z" fill="white"/>
<path opacity="0.1" d="M814 327.263C765.399 327.263 718.255 317.559 673.872 298.419C631 279.931 592.503 253.469 559.443 219.763C526.382 186.058 500.421 146.809 482.292 103.101C463.518 57.8523 454 9.78882 454 -39.761C454 -89.3108 463.518 -137.374 482.292 -182.623C500.427 -226.331 526.382 -265.58 559.443 -299.285C592.503 -332.991 631.006 -359.453 673.872 -377.941C718.255 -397.081 765.399 -406.785 814 -406.785C862.602 -406.785 909.745 -397.081 954.128 -377.941C997 -359.453 1035.5 -332.991 1068.56 -299.285C1101.62 -265.58 1127.57 -226.325 1145.71 -182.623C1164.48 -137.374 1174 -89.3108 1174 -39.761C1174 9.78882 1164.48 57.8523 1145.71 103.101C1127.57 146.809 1101.62 186.058 1068.56 219.763C1035.5 253.469 996.994 279.937 954.128 298.419C909.745 317.559 862.602 327.263 814 327.263ZM814 -405.171C765.614 -405.171 718.673 -395.51 674.487 -376.455C631.807 -358.052 593.477 -331.705 560.56 -298.146C527.643 -264.587 501.801 -225.509 483.744 -181.996C465.054 -136.948 455.577 -89.0915 455.577 -39.761C455.577 9.56952 465.06 57.4258 483.744 102.474C501.795 145.987 527.637 185.065 560.554 218.624C593.471 252.183 631.801 278.53 674.481 296.933C718.667 315.988 765.608 325.649 813.994 325.649C862.38 325.649 909.321 315.988 953.507 296.933C996.187 278.53 1034.52 252.183 1067.43 218.624C1100.35 185.065 1126.19 145.987 1144.24 102.474C1162.93 57.4258 1172.41 9.56952 1172.41 -39.761C1172.41 -89.0915 1162.93 -136.948 1144.24 -181.996C1126.19 -225.509 1100.35 -264.587 1067.43 -298.146C1034.52 -331.705 996.187 -358.052 953.507 -376.455C909.327 -395.51 862.386 -405.171 814 -405.171Z" fill="white"/>
</g>
<defs>
<clipPath id="clip0_10266_22607">
<path d="M0 24C0 10.7452 10.7452 0 24 0H752C765.255 0 776 10.7452 776 24V208H24C10.7452 208 0 197.255 0 184V24Z" fill="white"/>
</clipPath>
</defs>
</svg>
