<svg width="1600" height="292" viewBox="0 0 1600 292" fill="none" xmlns="http://www.w3.org/2000/svg">
<g clip-path="url(#clip0_11717_16520)">
<path d="M1601 0H-1V292H1601V0Z" fill="#002548"/>
<g opacity="0.1">
<path opacity="0.5" d="M1598.81 333L1253.4 210.955C1222.49 200.015 1207.84 169.817 1220.62 143.494C1233.46 117.171 1268.92 104.693 1299.83 115.575L1533.18 198.021L1629.32 0.880117C1642.17 -25.4433 1677.62 -37.9213 1708.53 -27.0387C1739.44 -16.0991 1754.09 14.0988 1741.31 40.4223L1598.81 333Z" fill="white"/>
<path opacity="0.7" d="M1534.29 197.512L1323.55 64.5482C1304.7 52.6265 1300.74 29.9811 1314.76 13.9525C1328.78 -2.07617 1355.42 -5.44161 1374.27 6.48004L1516.65 96.3203L1621.52 -23.7519C1635.54 -39.7805 1662.17 -43.146 1681.03 -31.2243C1699.88 -19.3027 1703.84 3.34277 1689.82 19.3714L1534.29 197.512Z" fill="#0054A6"/>
<path opacity="0.7" d="M1515.95 97.1273L1404.74 -16.2586C1394.75 -26.4262 1396.36 -41.5062 1408.29 -50.0173C1420.22 -58.5284 1437.92 -57.1575 1447.91 -46.9899L1523.05 29.6098L1612.27 -33.9091C1624.2 -42.4202 1641.9 -41.0493 1651.89 -30.8817C1661.88 -20.7141 1660.27 -5.63402 1648.34 2.87706L1515.95 97.1273Z" fill="#0054A6"/>
<path opacity="0.7" d="M1523.49 29.9988L1479.85 -59.1845C1475.95 -67.1677 1480.39 -76.3484 1489.82 -79.6557C1499.25 -82.963 1510.09 -79.1995 1514 -71.2163L1543.49 -10.9434L1614.07 -35.6912C1623.49 -38.9985 1634.34 -35.235 1638.24 -27.2519C1642.15 -19.2687 1637.7 -10.0881 1628.27 -6.78076L1523.49 29.9988Z" fill="#0054A6"/>
</g>
</g>
<defs>
<clipPath id="clip0_11717_16520">
<rect width="1600" height="292" fill="white"/>
</clipPath>
</defs>
</svg>
