<svg width="453" height="333" viewBox="0 0 453 333" fill="none" xmlns="http://www.w3.org/2000/svg">
<path d="M0 24C0 10.7452 10.7452 0 24 0H429C442.255 0 453 10.7452 453 24V333H0V24Z" fill="#002548"/>
<path d="M304.38 60.2795C303.77 59.1789 302.658 58.5286 301.407 58.5286L288.332 58.3985C287.781 58.3885 287.26 58.5186 286.8 58.7387C286.61 58.8288 286.429 58.9388 286.269 59.0689C286.249 59.0789 286.239 59.0889 286.219 59.0989C285.869 59.359 285.558 59.6992 285.328 60.0894C285.098 60.4896 284.948 60.9098 284.888 61.35C284.848 61.5801 284.848 61.7902 284.858 62.0103V62.0203C284.878 62.5305 285.028 63.0508 285.298 63.531L291.736 74.9165C292.356 75.997 293.458 76.6473 294.699 76.6673C295.94 76.6773 297.062 76.047 297.703 74.9665L300.215 70.7145L301.867 67.9131L304.35 63.7111C304.981 62.6406 304.981 61.35 304.38 60.2795ZM302.088 62.3805L299.665 66.4824L298.013 69.2838L295.44 73.6359C295.22 74.006 294.869 74.0461 294.729 74.0461C294.579 74.036 294.229 74.006 294.018 73.6259L288.752 64.3214L288.452 63.7811L288.171 63.2909L287.581 62.2404C287.371 61.8702 287.521 61.5501 287.591 61.42C287.661 61.2999 287.881 61.0098 288.302 61.0198L289.503 61.0298L290.244 61.0398H290.704L301.387 61.1499C301.817 61.1499 302.018 61.43 302.088 61.5601C302.158 61.6901 302.308 62.0103 302.088 62.3805Z" fill="#7C8EA1"/>
<path d="M158.441 76.4769L155.447 73.0653L153.285 70.5941L149.821 66.6422C149 65.7117 147.778 65.3115 146.557 65.5417C145.335 65.7818 144.374 66.6322 143.974 67.8127L139.759 80.1987C139.589 80.7089 139.539 81.2392 139.609 81.7494C139.619 81.8195 139.629 81.8995 139.659 81.9695C139.679 82.1196 139.719 82.2697 139.769 82.4098C139.899 82.83 140.129 83.2201 140.43 83.5703C140.74 83.9205 141.101 84.1906 141.491 84.3807C141.571 84.4207 141.651 84.4607 141.741 84.4908C141.861 84.5408 141.992 84.5808 142.122 84.6208C142.612 84.7609 143.153 84.7809 143.694 84.6808L156.528 82.1196C157.75 81.8795 158.711 81.0291 159.121 79.8485C159.512 78.678 159.272 77.4174 158.441 76.4769ZM156.629 79.0081C156.579 79.1482 156.438 79.4683 156.018 79.5484L145.516 81.6394L144.605 81.8195L144.364 81.8695L143.183 82.1096C142.762 82.1896 142.502 81.9495 142.402 81.8395C142.312 81.7394 142.112 81.4393 142.242 81.0391L142.632 79.8986L142.983 78.8881L143.023 78.768L146.457 68.6632C146.587 68.253 146.927 68.1429 147.077 68.1129C147.208 68.0929 147.558 68.0629 147.838 68.383L151.162 72.1648L153.325 74.626L156.468 78.2077C156.749 78.5379 156.679 78.8781 156.629 79.0081Z" fill="#7C8EA1"/>
<path d="M309.757 260.936C309.737 260.846 309.707 260.756 309.677 260.665C309.566 260.335 309.396 260.015 309.186 259.725C308.906 259.355 308.575 259.055 308.185 258.835C307.995 258.715 307.794 258.625 307.584 258.544C307.474 258.504 307.374 258.464 307.254 258.444C306.863 258.344 306.453 258.314 306.012 258.364L293.027 259.925C291.786 260.075 290.765 260.836 290.264 261.986C289.783 263.127 289.924 264.397 290.674 265.398L293.318 268.929L295.28 271.551L298.514 275.873C299.254 276.863 300.446 277.364 301.677 277.223C302.919 277.073 303.95 276.313 304.43 275.162L309.596 263.147C309.807 262.646 309.897 262.116 309.867 261.606C309.857 261.376 309.817 261.156 309.757 260.936ZM306.703 263.217L306.233 264.317L302.018 274.122C301.857 274.522 301.517 274.602 301.367 274.612C301.227 274.632 300.876 274.632 300.626 274.292L297.482 270.1L295.53 267.479L292.787 263.827C292.527 263.477 292.627 263.147 292.677 263.017C292.747 262.887 292.907 262.566 293.338 262.526L303.91 261.266L303.96 261.256L305.131 261.116L306.333 260.976C306.753 260.926 307.003 261.186 307.084 261.296C307.164 261.406 307.354 261.716 307.184 262.106L306.713 263.207L306.703 263.217Z" fill="#7C8EA1"/>
<path d="M353.047 137.877H334.105C332.863 137.877 331.672 137.336 330.861 136.396C330.04 135.456 329.67 134.215 329.85 132.974L330.651 127.212C331.362 122.099 335.797 118.237 340.963 118.237H346.199C351.365 118.237 355.8 122.089 356.511 127.212L357.312 132.974C357.482 134.205 357.112 135.456 356.291 136.396C355.48 137.336 354.298 137.877 353.047 137.877ZM340.963 120.979C337.148 120.979 333.875 123.83 333.344 127.602L332.543 133.365C332.483 133.825 332.613 134.275 332.913 134.625C333.214 134.975 333.644 135.165 334.105 135.165H353.047C353.507 135.165 353.938 134.975 354.238 134.625C354.539 134.275 354.679 133.825 354.609 133.365L353.808 127.602C353.277 123.83 350.003 120.979 346.189 120.979H340.963Z" fill="#0054A6"/>
<path d="M343.335 116.876C338.369 116.876 334.325 112.834 334.325 107.872C334.325 102.91 338.369 98.8676 343.335 98.8676C348.301 98.8676 352.346 102.91 352.346 107.872C352.346 112.834 348.311 116.876 343.335 116.876ZM343.335 101.589C339.871 101.589 337.048 104.41 337.048 107.872C337.048 111.334 339.871 114.155 343.335 114.155C346.799 114.155 349.622 111.334 349.622 107.872C349.622 104.41 346.809 101.589 343.335 101.589Z" fill="#0054A6"/>
<path d="M356.491 186.48H337.549C336.308 186.48 335.116 185.939 334.305 184.999C333.484 184.058 333.114 182.818 333.294 181.577L334.095 175.815C334.806 170.702 339.241 166.84 344.407 166.84H349.643C354.809 166.84 359.244 170.692 359.955 175.815L360.756 181.577C360.926 182.808 360.556 184.058 359.735 184.999C358.924 185.939 357.733 186.48 356.491 186.48ZM344.407 169.572C340.593 169.572 337.319 172.423 336.788 176.195L335.987 181.957C335.927 182.418 336.057 182.868 336.358 183.218C336.658 183.568 337.089 183.758 337.549 183.758H356.491C356.952 183.758 357.382 183.568 357.683 183.218C357.983 182.868 358.123 182.418 358.053 181.957L357.252 176.195C356.721 172.423 353.448 169.572 349.633 169.572H344.407Z" fill="#0054A6"/>
<path d="M346.78 165.48C341.814 165.48 337.769 161.438 337.769 156.475C337.769 151.513 341.814 147.471 346.78 147.471C351.745 147.471 355.79 151.513 355.79 156.475C355.79 161.438 351.745 165.48 346.78 165.48ZM346.78 150.192C343.315 150.192 340.492 153.014 340.492 156.475C340.492 159.937 343.315 162.758 346.78 162.758C350.244 162.758 353.067 159.937 353.067 156.475C353.067 153.004 350.244 150.192 346.78 150.192Z" fill="#0054A6"/>
<path d="M238.694 80.0086H219.752C218.51 80.0086 217.319 79.4683 216.508 78.5279C215.687 77.5874 215.317 76.3468 215.497 75.1062L216.298 69.3434C217.009 64.231 221.444 60.3691 226.61 60.3691H231.846C237.012 60.3691 241.447 64.221 242.158 69.3434L242.959 75.1062C243.129 76.3368 242.759 77.5874 241.938 78.5279C241.117 79.4683 239.935 80.0086 238.694 80.0086ZM226.6 63.1005C222.785 63.1005 219.512 65.9518 218.981 69.7236L218.18 75.4864C218.12 75.9466 218.25 76.3968 218.55 76.747C218.851 77.0972 219.281 77.2873 219.742 77.2873H238.684C239.144 77.2873 239.575 77.0972 239.875 76.747C240.176 76.3968 240.316 75.9466 240.246 75.4864L239.445 69.7236C238.914 65.9518 235.64 63.1005 231.826 63.1005H226.6Z" fill="#ED1C24"/>
<path d="M228.983 59.0086C224.017 59.0086 219.972 54.9667 219.972 50.0043C219.972 45.0419 224.017 41 228.983 41C233.948 41 237.993 45.0419 237.993 50.0043C237.993 54.9667 233.948 59.0086 228.983 59.0086ZM228.983 43.7213C225.519 43.7213 222.695 46.5427 222.695 50.0043C222.695 53.466 225.519 56.2873 228.983 56.2873C232.447 56.2873 235.27 53.466 235.27 50.0043C235.27 46.5427 232.447 43.7213 228.983 43.7213Z" fill="#ED1C24"/>
<path d="M131.409 253.302C111.446 253.302 95.1973 237.074 95.1973 217.114C95.1973 197.155 111.436 180.927 131.409 180.927C151.383 180.927 167.622 197.155 167.622 217.114C167.622 237.074 151.373 253.302 131.409 253.302ZM131.409 184.199C113.248 184.199 98.4711 198.966 98.4711 217.114C98.4711 235.263 113.248 250.03 131.409 250.03C149.571 250.03 164.348 235.263 164.348 217.114C164.348 198.966 149.571 184.199 131.409 184.199Z" fill="#0054A6"/>
<path d="M286.269 59.0688C287.611 59.6891 288.933 60.3494 290.244 61.0397L289.503 61.0297L288.302 61.0197C287.881 61.0097 287.661 61.2998 287.591 61.4199C287.521 61.55 287.371 61.8701 287.581 62.2403L288.172 63.2908L288.452 63.781C287.261 63.1607 286.059 62.5704 284.858 62.0102C272.804 56.2874 259.959 52.7057 246.573 51.325C245.742 51.245 245.082 50.5447 245.082 49.6943C245.082 48.7938 245.812 48.0635 246.713 48.0635H246.723C246.774 48.0635 246.834 48.0635 246.894 48.0735C260.66 49.4942 273.865 53.1759 286.269 59.0688Z" fill="#7C8EA1"/>
<path d="M329.239 95.6164C328.939 95.8465 328.578 95.9666 328.218 95.9666C327.737 95.9666 327.267 95.7565 326.946 95.3563C319.287 85.7417 310.327 77.4877 300.215 70.7145C299.494 70.2242 298.754 69.744 298.013 69.2838L299.665 66.4824C300.405 66.9326 301.146 67.4129 301.867 67.9131C312.329 74.8765 321.59 83.4005 329.499 93.3153C330.06 94.0256 329.94 95.0461 329.239 95.6164Z" fill="#7C8EA1"/>
<path d="M295.53 267.479L297.482 270.1C296.751 270.6 296.02 271.081 295.28 271.551C275.717 284.177 252.73 291 229.263 291C215.457 291 201.901 288.709 188.986 284.187C188.135 283.887 187.684 282.956 187.985 282.106C188.275 281.255 189.206 280.805 190.057 281.105C202.642 285.507 215.827 287.739 229.263 287.739C252.029 287.739 274.325 281.135 293.317 268.93C294.068 268.459 294.799 267.979 295.53 267.479Z" fill="#7C8EA1"/>
<path d="M348.431 194.164C343.115 219.816 329.419 243.277 309.676 260.666C308.705 261.526 307.714 262.376 306.713 263.207L307.183 262.106C307.354 261.716 307.163 261.406 307.083 261.296C307.003 261.186 306.753 260.926 306.332 260.976L305.131 261.116L303.96 261.256L303.91 261.266C304.11 261.116 304.3 260.956 304.49 260.796C305.421 260.025 306.353 259.245 307.254 258.445C326.606 241.496 340.032 218.575 345.228 193.503C345.408 192.623 346.269 192.053 347.16 192.233C348.041 192.413 348.612 193.283 348.431 194.164Z" fill="#7C8EA1"/>
<path d="M144.364 81.8697L144.605 81.8197C143.633 82.6901 142.682 83.5906 141.741 84.491C126.473 99.2981 115.541 117.777 109.964 138.307C109.764 139.027 109.103 139.507 108.392 139.507C108.242 139.507 108.102 139.487 107.962 139.447C107.091 139.217 106.57 138.317 106.811 137.446C112.567 116.266 123.87 97.2171 139.659 81.9698C140.74 80.9193 141.851 79.8888 142.983 78.8883L142.632 79.8988L142.242 81.0393C142.112 81.4395 142.312 81.7397 142.402 81.8397C142.502 81.9498 142.762 82.1899 143.183 82.1099L144.364 81.8697Z" fill="#7C8EA1"/>
<path d="M210.862 51.8052C190.758 54.0662 171.796 61.3698 155.447 73.0654C154.726 73.5756 154.025 74.0959 153.325 74.6261L151.162 72.1649C151.863 71.6247 152.574 71.1044 153.285 70.5942C170.144 58.4684 189.727 50.8947 210.501 48.5636C211.392 48.4535 212.203 49.1039 212.303 50.0043C212.403 50.8947 211.763 51.7051 210.862 51.8052Z" fill="#7C8EA1"/>
<path d="M104.178 170.322C97.5699 170.322 92.2036 164.949 92.2036 158.356C92.2036 151.753 97.5799 146.39 104.178 146.39C110.785 146.39 116.151 151.763 116.151 158.356C116.161 164.949 110.785 170.322 104.178 170.322ZM104.178 149.642C99.372 149.642 95.4674 153.544 95.4674 158.346C95.4674 163.148 99.372 167.05 104.178 167.05C108.983 167.05 112.888 163.148 112.888 158.346C112.888 153.544 108.983 149.642 104.178 149.642Z" fill="#0054A6"/>
<path d="M170.064 286.218C163.457 286.218 158.09 280.845 158.09 274.252C158.09 267.649 163.467 262.286 170.064 262.286C176.662 262.286 182.038 267.659 182.038 274.252C182.038 280.845 176.672 286.218 170.064 286.218ZM170.064 265.538C165.259 265.538 161.354 269.44 161.354 274.242C161.354 279.044 165.259 282.946 170.064 282.946C174.87 282.946 178.774 279.044 178.774 274.242C178.774 269.44 174.87 265.538 170.064 265.538Z" fill="#0054A6"/>
<path d="M151.553 177.396C138.347 177.396 127.595 166.661 127.595 153.454C127.595 140.258 138.337 129.513 151.553 129.513C164.758 129.513 175.51 140.248 175.51 153.454C175.51 166.651 164.758 177.396 151.553 177.396ZM151.553 132.774C140.139 132.774 130.859 142.049 130.859 153.454C130.859 164.86 140.139 174.134 151.553 174.134C162.966 174.134 172.247 164.86 172.247 153.454C172.247 142.049 162.956 132.774 151.553 132.774Z" fill="#0054A6"/>
<path d="M196.195 246.499C182.989 246.499 172.237 235.764 172.237 222.557C172.237 209.361 182.979 198.616 196.195 198.616C209.41 198.616 220.153 209.351 220.153 222.557C220.153 235.754 209.41 246.499 196.195 246.499ZM196.195 201.877C184.781 201.877 175.501 211.152 175.501 222.557C175.501 233.963 184.781 243.237 196.195 243.237C207.608 243.237 216.889 233.963 216.889 222.557C216.889 211.152 207.608 201.877 196.195 201.877Z" fill="#0054A6"/>
<path d="M308.214 141.919C307.754 141.919 307.293 141.679 307.043 141.248C306.663 140.598 306.873 139.768 307.524 139.387L325.324 129.823C325.975 129.443 326.806 129.653 327.187 130.303C327.567 130.953 327.357 131.784 326.706 132.164L308.905 141.729C308.685 141.859 308.455 141.919 308.214 141.919Z" fill="#0054A6"/>
<path d="M332.173 168.681C331.952 168.681 331.722 168.631 331.512 168.511L309.737 156.436C309.076 156.075 308.846 155.245 309.206 154.585C309.566 153.924 310.397 153.694 311.058 154.054L332.833 166.13C333.494 166.49 333.724 167.321 333.364 167.981C333.114 168.431 332.643 168.681 332.173 168.681Z" fill="#0054A6"/>
<path d="M249.096 103.08C248.685 103.08 248.275 102.89 248.004 102.54L237.702 88.873C237.252 88.2727 237.372 87.4223 237.973 86.972C238.573 86.5218 239.424 86.6419 239.875 87.2422L250.177 100.909C250.627 101.509 250.507 102.359 249.906 102.81C249.676 102.99 249.386 103.08 249.096 103.08Z" fill="#ED1C24"/>
<path d="M116.822 187.14C116.312 187.14 115.821 186.85 115.591 186.35L107.031 167.901C106.71 167.221 107.011 166.41 107.692 166.09C108.372 165.77 109.183 166.07 109.504 166.751L118.064 185.199C118.384 185.88 118.084 186.69 117.403 187.01C117.213 187.1 117.012 187.14 116.822 187.14Z" fill="#0054A6"/>
<path d="M140.589 185.159C140.439 185.159 140.289 185.139 140.139 185.079C139.428 184.829 139.057 184.059 139.298 183.348L142.572 173.954C142.822 173.244 143.593 172.873 144.304 173.113C145.014 173.364 145.385 174.134 145.145 174.844L141.871 184.239C141.68 184.809 141.15 185.159 140.589 185.159Z" fill="#0054A6"/>
<path d="M160.753 200.196C160.293 200.196 159.852 199.966 159.592 199.546C159.201 198.906 159.402 198.065 160.032 197.675L175.881 187.92C176.522 187.53 177.363 187.73 177.753 188.361C178.143 189.001 177.943 189.841 177.312 190.232L161.464 199.986C161.244 200.136 160.994 200.196 160.753 200.196Z" fill="#0054A6"/>
<path d="M173.878 220.476H165.919C165.168 220.476 164.558 219.866 164.558 219.115C164.558 218.365 165.168 217.755 165.919 217.755H173.878C174.629 217.755 175.24 218.365 175.24 219.115C175.24 219.866 174.629 220.476 173.878 220.476Z" fill="#0054A6"/>
<path d="M164.298 267.029C163.857 267.029 163.427 266.819 163.167 266.428L149.691 246.469C149.27 245.849 149.431 244.998 150.061 244.578C150.682 244.158 151.533 244.318 151.954 244.948L165.429 264.908C165.85 265.528 165.69 266.378 165.059 266.799C164.819 266.949 164.558 267.029 164.298 267.029Z" fill="#0054A6"/>
<path d="M114.72 223.527C113.909 223.527 113.198 223.397 112.567 223.127C111.947 222.857 111.456 222.457 111.106 221.907C110.755 221.366 110.585 220.676 110.585 219.836C110.585 219.135 110.705 218.545 110.935 218.055C111.166 217.565 111.496 217.164 111.927 216.844C112.357 216.524 112.848 216.284 113.408 216.114C113.969 215.944 114.58 215.834 115.24 215.794C115.951 215.744 116.522 215.674 116.952 215.604C117.383 215.524 117.693 215.414 117.883 215.274C118.074 215.123 118.174 214.933 118.174 214.693V214.653C118.174 214.323 118.054 214.073 117.803 213.903C117.553 213.723 117.233 213.633 116.842 213.633C116.402 213.633 116.051 213.723 115.771 213.913C115.501 214.103 115.33 214.393 115.27 214.783H111.096C111.146 214.013 111.396 213.303 111.826 212.652C112.257 212.002 112.898 211.482 113.749 211.092C114.59 210.701 115.641 210.501 116.912 210.501C117.813 210.501 118.624 210.611 119.335 210.821C120.056 211.031 120.667 211.332 121.177 211.702C121.688 212.072 122.068 212.522 122.339 213.022C122.609 213.523 122.739 214.063 122.739 214.653V223.337H118.474V221.527H118.384C118.124 222.007 117.823 222.387 117.463 222.677C117.103 222.967 116.692 223.177 116.242 223.317C115.791 223.457 115.27 223.527 114.72 223.527ZM116.191 220.646C116.542 220.646 116.862 220.576 117.173 220.436C117.483 220.296 117.733 220.086 117.923 219.816C118.114 219.546 118.214 219.225 118.214 218.835V217.795C118.094 217.835 117.964 217.885 117.823 217.935C117.683 217.985 117.543 218.025 117.383 218.055C117.223 218.095 117.073 218.125 116.902 218.155C116.742 218.185 116.572 218.215 116.382 218.245C116.021 218.295 115.741 218.385 115.511 218.515C115.29 218.635 115.12 218.795 115.02 218.965C114.91 219.145 114.86 219.345 114.86 219.556C114.86 219.916 114.98 220.186 115.23 220.366C115.491 220.556 115.811 220.646 116.191 220.646Z" fill="#7C8EA1"/>
<path d="M124.501 228.06V210.641H129.016V212.862H129.126C129.297 212.432 129.537 212.032 129.847 211.672C130.168 211.312 130.558 211.022 131.029 210.801C131.499 210.591 132.05 210.481 132.68 210.481C133.521 210.481 134.312 210.701 135.063 211.152C135.814 211.602 136.435 212.302 136.905 213.253C137.376 214.203 137.616 215.454 137.616 216.984C137.616 218.445 137.386 219.656 136.935 220.616C136.485 221.577 135.874 222.297 135.123 222.767C134.362 223.237 133.531 223.477 132.63 223.477C132.04 223.477 131.509 223.377 131.049 223.187C130.588 222.987 130.188 222.727 129.867 222.387C129.537 222.047 129.297 221.667 129.116 221.236H129.046V228.06H124.501ZM130.968 219.986C131.389 219.986 131.749 219.866 132.04 219.626C132.33 219.386 132.55 219.045 132.711 218.595C132.861 218.145 132.941 217.615 132.941 216.994C132.941 216.364 132.861 215.824 132.711 215.374C132.55 214.923 132.33 214.583 132.04 214.333C131.749 214.093 131.389 213.973 130.968 213.973C130.548 213.973 130.198 214.093 129.887 214.333C129.587 214.573 129.357 214.923 129.186 215.374C129.026 215.824 128.946 216.364 128.946 216.994C128.946 217.605 129.026 218.135 129.186 218.585C129.347 219.035 129.577 219.376 129.887 219.626C130.188 219.866 130.548 219.986 130.968 219.986Z" fill="#7C8EA1"/>
<path d="M138.948 228.06V210.641H143.463V212.862H143.573C143.743 212.432 143.984 212.032 144.294 211.672C144.614 211.312 145.005 211.022 145.475 210.801C145.946 210.591 146.497 210.481 147.127 210.481C147.968 210.481 148.759 210.701 149.51 211.152C150.261 211.602 150.882 212.302 151.352 213.253C151.823 214.203 152.063 215.454 152.063 216.984C152.063 218.445 151.833 219.656 151.382 220.616C150.932 221.577 150.321 222.297 149.57 222.767C148.809 223.237 147.978 223.477 147.077 223.477C146.487 223.477 145.956 223.377 145.495 223.187C145.035 222.987 144.634 222.727 144.314 222.387C143.984 222.047 143.743 221.667 143.563 221.236H143.493V228.06H138.948ZM145.415 219.986C145.836 219.986 146.196 219.866 146.487 219.626C146.777 219.386 146.997 219.045 147.157 218.595C147.307 218.145 147.388 217.615 147.388 216.994C147.388 216.364 147.307 215.824 147.157 215.374C146.997 214.923 146.777 214.583 146.487 214.333C146.196 214.093 145.836 213.973 145.415 213.973C144.995 213.973 144.644 214.093 144.334 214.333C144.034 214.573 143.803 214.923 143.633 215.374C143.473 215.824 143.393 216.364 143.393 216.994C143.393 217.605 143.473 218.135 143.633 218.585C143.793 219.035 144.024 219.376 144.334 219.626C144.644 219.866 145.005 219.986 145.415 219.986Z" fill="#7C8EA1"/>
<path d="M164.077 165.15H138.488C137.737 165.15 137.126 164.539 137.126 163.789V148.011C137.126 147.261 137.737 146.651 138.488 146.651H164.077C164.828 146.651 165.439 147.261 165.439 148.011V163.789C165.439 164.539 164.828 165.15 164.077 165.15ZM139.849 162.428H162.716V149.372H139.849V162.428Z" fill="#7C8EA1"/>
<path d="M200.99 236.784C200.48 236.784 199.969 236.614 199.559 236.274L192.721 230.721H182.859C182.108 230.721 181.498 230.111 181.498 229.36V211.952C181.498 211.201 182.108 210.591 182.859 210.591H208.449C209.2 210.591 209.81 211.201 209.81 211.952V229.36C209.81 230.111 209.2 230.721 208.449 230.721H203.273V234.503C203.273 235.393 202.772 236.183 201.971 236.564C201.661 236.704 201.321 236.784 200.99 236.784ZM184.221 228H193.201C193.512 228 193.822 228.11 194.062 228.3L200.55 233.572V229.36C200.55 228.61 201.16 228 201.911 228H207.087V213.312H184.221V228Z" fill="#7C8EA1"/>
<path d="M156.448 149.372H146.106C145.355 149.372 144.745 148.762 144.745 148.011V142.399C144.745 140.248 146.497 138.487 148.659 138.487H153.905C156.058 138.487 157.82 140.238 157.82 142.399V148.011C157.81 148.762 157.199 149.372 156.448 149.372ZM147.468 146.651H155.087V142.399C155.087 141.748 154.556 141.208 153.895 141.208H148.649C147.998 141.208 147.458 141.738 147.458 142.399V146.651H147.468Z" fill="#7C8EA1"/>
<path d="M279.101 178.846C276.318 178.846 273.675 177.666 271.762 175.495L266.116 169.082C265.024 167.841 263.252 167.531 261.801 168.321L254.302 172.423C251.098 174.174 247.354 174.054 244.28 172.093C241.207 170.132 239.505 166.801 239.735 163.159L240.276 154.635C240.376 152.984 239.345 151.513 237.763 151.053L229.553 148.652C226.049 147.631 223.486 144.89 222.695 141.338C221.904 137.777 223.066 134.215 225.799 131.804L232.216 126.161C233.458 125.071 233.768 123.3 232.977 121.849L228.872 114.355C227.12 111.154 227.241 107.412 229.203 104.341C231.165 101.269 234.509 99.5683 238.143 99.7984L246.673 100.339C248.325 100.439 249.797 99.4082 250.257 97.8274L252.66 89.6235C253.681 86.1218 256.424 83.5606 259.979 82.7702C263.543 81.9798 267.107 83.1404 269.52 85.8717L275.166 92.2848C276.258 93.5254 278.03 93.8355 279.481 93.0451L286.98 88.9432C290.184 87.1923 293.928 87.3124 297.002 89.2733C300.075 91.2343 301.777 94.5659 301.547 98.2076L301.006 106.732C300.906 108.372 301.937 109.853 303.519 110.313L311.729 112.715C315.233 113.735 317.796 116.476 318.587 120.028C319.378 123.59 318.216 127.152 315.483 129.563L309.066 135.205C307.824 136.296 307.514 138.067 308.305 139.517L312.41 147.011C314.162 150.213 314.041 153.954 312.079 157.026C310.117 160.097 306.773 161.798 303.139 161.568L294.609 161.028C292.957 160.918 291.485 161.958 291.025 163.539L288.622 171.743C287.601 175.245 284.858 177.806 281.303 178.596C280.563 178.766 279.832 178.846 279.101 178.846ZM263.503 164.159C265.515 164.159 267.497 165.01 268.919 166.62L274.566 173.034C276.067 174.734 278.28 175.455 280.492 174.964C282.705 174.474 284.407 172.883 285.048 170.702L287.451 162.498C288.402 159.237 291.445 157.096 294.849 157.316L303.379 157.856C305.642 157.996 307.724 156.946 308.936 155.035C310.157 153.124 310.227 150.793 309.136 148.802L305.031 141.308C303.399 138.327 304.04 134.665 306.593 132.414L313.01 126.771C314.712 125.271 315.433 123.06 314.943 120.848C314.452 118.637 312.86 116.937 310.678 116.296L302.468 113.895C299.194 112.945 297.072 109.903 297.282 106.502L297.823 97.9775C297.963 95.7164 296.912 93.6354 294.999 92.4248C293.087 91.2043 290.754 91.1342 288.762 92.2247L281.263 96.3267C278.28 97.9575 274.616 97.3172 272.363 94.766L266.716 88.3529C265.215 86.6521 263.002 85.9317 260.79 86.422C258.577 86.9122 256.875 88.503 256.234 90.684L253.831 98.8879C252.88 102.15 249.837 104.291 246.433 104.07L237.903 103.53C235.64 103.38 233.558 104.441 232.346 106.352C231.125 108.262 231.055 110.594 232.146 112.585L236.251 120.078C237.883 123.06 237.242 126.721 234.689 128.972L228.272 134.615C226.57 136.116 225.849 138.327 226.339 140.538C226.83 142.749 228.422 144.45 230.604 145.09L238.814 147.491C242.088 148.442 244.21 151.483 244 154.885L243.459 163.409C243.319 165.67 244.37 167.751 246.283 168.962C248.195 170.182 250.528 170.252 252.52 169.172L260.019 165.07C261.12 164.449 262.311 164.159 263.503 164.159ZM270.601 156.225C265.905 156.225 261.16 154.935 256.925 152.244C245.031 144.68 241.517 128.862 249.086 116.987C256.655 105.101 272.483 101.589 284.367 109.153C296.261 116.717 299.775 132.534 292.206 144.41C287.34 152.043 279.061 156.225 270.601 156.225ZM270.681 108.883C263.463 108.883 256.384 112.454 252.23 118.978C245.772 129.122 248.776 142.639 258.927 149.092C269.079 155.545 282.605 152.544 289.062 142.399C295.52 132.254 292.516 118.737 282.365 112.284C278.74 109.983 274.686 108.883 270.681 108.883Z" fill="#ED1C24"/>
<path d="M185.852 194.474C191.382 194.474 195.864 189.994 195.864 184.469C195.864 178.943 191.382 174.464 185.852 174.464C180.323 174.464 175.841 178.943 175.841 184.469C175.841 189.994 180.323 194.474 185.852 194.474Z" fill="#ED1C24"/>
<path d="M185.852 196.435C179.245 196.435 173.878 191.062 173.878 184.469C173.878 177.866 179.255 172.503 185.852 172.503C192.46 172.503 197.826 177.876 197.826 184.469C197.836 191.072 192.46 196.435 185.852 196.435ZM185.852 175.765C181.047 175.765 177.142 179.666 177.142 184.469C177.142 189.271 181.047 193.173 185.852 193.173C190.658 193.173 194.562 189.271 194.562 184.469C194.562 179.666 190.658 175.765 185.852 175.765Z" fill="#0054A6"/>
</svg>
