<svg width="332" height="222" viewBox="0 0 332 222" fill="none" xmlns="http://www.w3.org/2000/svg">
<path d="M73.7016 44.2999C74.2016 44.1999 74.6016 44.4999 74.8016 44.9999C75.1016 45.9999 75.3016 47.0999 75.5016 48.0999C75.6016 48.5999 75.3016 49.0999 74.7016 49.1999C74.2016 49.2999 73.7016 48.8999 73.6016 48.3999C73.4016 47.3999 73.2016 46.3999 72.9016 45.3999C72.8016 44.9999 73.1016 44.4999 73.7016 44.2999ZM74.9016 52.3999H75.0016C75.5016 52.3999 76.0016 52.7999 76.0016 53.2999C76.0016 54.3999 76.0016 55.3999 76.0016 56.4999C76.0016 56.9999 75.5016 57.3999 75.0016 57.3999C74.5016 57.3999 74.1016 56.8999 74.1016 56.3999C74.1016 55.3999 74.1016 54.3999 74.1016 53.3999C74.1016 52.8999 74.5016 52.4999 74.9016 52.3999ZM74.4016 60.5999C74.5016 60.5999 74.6016 60.5999 74.7016 60.5999C75.2016 60.6999 75.5016 61.1999 75.5016 61.6999C75.3016 62.6999 75.1016 63.7999 74.8016 64.7999C74.7016 65.2999 74.1016 65.5999 73.6016 65.4999C73.1016 65.3999 72.8016 64.7999 72.9016 64.2999C73.2016 63.2999 73.4016 62.2999 73.6016 61.2999C73.7016 60.9999 74.0016 60.6999 74.4016 60.5999ZM72.0016 68.4999C72.2016 68.4999 72.4016 68.4999 72.5016 68.5999C73.0016 68.7999 73.2016 69.3999 73.0016 69.7999C72.6016 70.7999 72.1016 71.7999 71.6016 72.6999C71.4016 73.1999 70.8016 73.2999 70.3016 73.0999C69.8016 72.8999 69.7016 72.2999 69.9016 71.7999C70.4016 70.8999 70.8016 69.9999 71.2016 69.0999C71.4016 68.6999 71.7016 68.4999 72.0016 68.4999ZM67.9016 75.5999C68.1016 75.5999 68.4016 75.5999 68.6016 75.7999C69.0016 76.0999 69.1016 76.6999 68.8016 77.0999C68.2016 77.9999 67.5016 78.7999 66.8016 79.5999C66.5016 79.9999 65.9016 79.9999 65.5016 79.6999C65.1016 79.3999 65.1016 78.7999 65.4016 78.3999C66.1016 77.5999 66.7016 76.7999 67.3016 75.9999C67.5016 75.6999 67.7016 75.5999 67.9016 75.5999ZM62.4016 81.5999C62.7016 81.4999 63.0016 81.6999 63.3016 81.8999C63.6016 82.2999 63.6016 82.8999 63.2016 83.1999C62.4016 83.8999 61.6016 84.5999 60.7016 85.1999C60.3016 85.4999 59.7016 85.3999 59.4016 84.9999C59.1016 84.5999 59.2016 83.9999 59.6016 83.6999C60.4016 83.0999 61.2016 82.4999 62.0016 81.7999C62.0016 81.6999 62.2016 81.5999 62.4016 81.5999ZM28.7016 89.2999C28.8016 89.2999 29.0016 89.2999 29.1016 89.2999C30.1016 89.5999 31.1016 89.7999 32.1016 89.9999C32.6016 90.0999 33.0016 90.5999 32.9016 91.0999C32.8016 91.5999 32.3016 91.9999 31.8016 91.8999C30.7016 91.6999 29.7016 91.4999 28.7016 91.1999C28.2016 91.0999 27.9016 90.4999 28.0016 89.9999C28.0016 89.5999 28.3016 89.3999 28.7016 89.2999ZM55.6016 86.2999C56.0016 86.1999 56.4016 86.3999 56.6016 86.7999C56.8016 87.2999 56.7016 87.7999 56.2016 88.0999C55.3016 88.5999 54.3016 89.0999 53.3016 89.4999C52.8016 89.6999 52.3016 89.4999 52.1016 88.9999C51.9016 88.4999 52.1016 87.9999 52.6016 87.7999C53.5016 87.3999 54.5016 86.9999 55.3016 86.4999C55.4016 86.2999 55.5016 86.2999 55.6016 86.2999ZM36.8016 90.5999C36.9016 90.5999 36.9016 90.5999 37.0016 90.5999C38.0016 90.5999 39.0016 90.5999 40.0016 90.5999C40.5016 90.5999 41.0016 90.9999 41.0016 91.4999C41.0016 91.9999 40.6016 92.4999 40.1016 92.4999C39.0016 92.4999 38.0016 92.4999 36.9016 92.4999C36.4016 92.4999 36.0016 91.9999 36.0016 91.4999C36.0016 90.9999 36.4016 90.5999 36.8016 90.5999ZM48.0016 89.2999C48.5016 89.1999 48.9016 89.4999 49.1016 89.9999C49.2016 90.4999 48.9016 90.9999 48.4016 91.1999C47.4016 91.4999 46.3016 91.6999 45.3016 91.8999C44.8016 91.9999 44.3016 91.5999 44.2016 91.0999C44.1016 90.5999 44.4016 90.0999 45.0016 89.9999C45.9016 89.7999 46.9016 89.5999 48.0016 89.2999Z" fill="#D2D9DC"/>
<path d="M22.5007 87C22.7007 87 22.9007 87 23.1007 87.1C23.5007 87.3 24.0007 87.5 24.4007 87.7C24.9007 87.9 25.1007 88.5 24.9007 88.9C24.7007 89.4 24.1007 89.6 23.7007 89.4C23.2007 89.2 22.8007 89 22.3007 88.8C21.8007 88.6 21.6007 88 21.9007 87.5C21.9007 87.3 22.2007 87.1 22.5007 87Z" fill="#D2D9DC"/>
<path d="M3.50093 65.4999C3.90093 65.3999 4.40093 65.6998 4.50093 66.0998C4.70093 66.5998 4.80093 66.9999 5.00093 67.4999C5.20093 67.9999 4.90093 68.4998 4.50093 68.6998C4.00093 68.8998 3.50093 68.5998 3.30093 68.1998C3.10093 67.6998 2.90093 67.1998 2.80093 66.6998C2.60093 66.1998 2.90092 65.6999 3.40092 65.4999H3.50093Z" fill="#D2D9DC"/>
<path d="M32.4004 17.7998C32.8004 17.6998 33.3004 17.6998 33.7004 17.5998C34.2004 17.4998 34.7004 17.8998 34.8004 18.3998C34.9004 18.8998 34.5004 19.3998 34.0004 19.4998C33.0004 19.5998 32.0004 19.7998 31.0004 19.9998C30.5004 20.0998 30.0004 19.7998 29.9004 19.2998C29.8004 18.7998 30.1004 18.2998 30.6004 18.1998C31.2004 17.9998 31.8004 17.8998 32.4004 17.7998ZM38.7004 17.2998C38.8004 17.2998 38.8004 17.2998 38.9004 17.2998C39.9004 17.2998 41.0004 17.3998 42.1004 17.4998C42.6004 17.4998 43.0004 17.9998 42.9004 18.4998C42.9004 18.9998 42.4004 19.3998 41.9004 19.2998C40.9004 19.1998 39.9004 19.1998 38.9004 19.0998C38.4004 19.0998 38.0004 18.6998 38.0004 18.1998C37.9004 17.7998 38.3004 17.3998 38.7004 17.2998ZM25.9004 19.4998C26.3004 19.3998 26.8004 19.6998 26.9004 20.0998C27.1004 20.5998 26.8004 21.0998 26.3004 21.2998C25.4004 21.5998 24.4004 21.9998 23.5004 22.3998C23.0004 22.5998 22.5004 22.3998 22.3004 21.8998C22.1004 21.3998 22.3004 20.8998 22.8004 20.6998C23.8004 20.2998 24.7004 19.8998 25.7004 19.4998C25.7004 19.4998 25.8004 19.4998 25.9004 19.4998ZM46.7004 18.2998C46.8004 18.2998 46.9004 18.2998 47.1004 18.2998C48.1004 18.4998 49.1004 18.7998 50.1004 19.1998C50.6004 19.3998 50.9004 19.8998 50.7004 20.3998C50.5004 20.8998 50.0004 21.1998 49.5004 20.9998C48.6004 20.6998 47.6004 20.3998 46.6004 20.1998C46.1004 20.0998 45.8004 19.5998 45.9004 19.0998C46.0004 18.5998 46.3004 18.2998 46.7004 18.2998ZM18.6004 22.9998C19.0004 22.8998 19.3004 23.0998 19.5004 23.3998C19.8004 23.7998 19.7004 24.3998 19.2004 24.6998C18.4004 25.1998 17.5004 25.7998 16.7004 26.3998C16.3004 26.6998 15.7004 26.5998 15.4004 26.1998C15.1004 25.7998 15.2004 25.1998 15.6004 24.8998C16.4004 24.2998 17.3004 23.6998 18.2004 23.0998C18.4004 23.0998 18.5004 23.0998 18.6004 22.9998ZM12.3004 28.0998C12.6004 28.0998 12.9004 28.0998 13.1004 28.3998C13.5004 28.7998 13.5004 29.3998 13.1004 29.6998C12.4004 30.3998 11.7004 31.1998 11.1004 31.8998C10.8004 32.2998 10.2004 32.2998 9.8004 31.9998C9.4004 31.6998 9.40039 31.0998 9.70039 30.6998C10.4004 29.8998 11.1004 29.0998 11.8004 28.3998C12.0004 28.1998 12.2004 28.0998 12.3004 28.0998ZM7.3004 34.3998C7.5004 34.3998 7.7004 34.3998 8.0004 34.4998C8.4004 34.7998 8.6004 35.3998 8.3004 35.7998C7.8004 36.5998 7.3004 37.4998 6.8004 38.3998C6.6004 38.8998 6.0004 38.9998 5.5004 38.7998C5.0004 38.5998 4.9004 37.9998 5.1004 37.4998C5.6004 36.5998 6.10039 35.5998 6.70039 34.7998C6.80039 34.5998 7.1004 34.4998 7.3004 34.3998ZM3.8004 41.6998C4.0004 41.6998 4.1004 41.6998 4.3004 41.6998C4.8004 41.8998 5.00039 42.3998 4.90039 42.8998C4.60039 43.7998 4.3004 44.7998 4.0004 45.7998C3.9004 46.2998 3.40039 46.5998 2.90039 46.4998C2.40039 46.3998 2.10039 45.8998 2.20039 45.2998C2.50039 44.2998 2.8004 43.2998 3.1004 42.2998C3.2004 41.8998 3.5004 41.6998 3.8004 41.6998ZM1.90039 49.4998C2.00039 49.4998 2.10039 49.4998 2.20039 49.4998C2.70039 49.5998 3.1004 49.9998 3.0004 50.4998C2.9004 51.4998 2.8004 52.4998 2.8004 53.4998C2.8004 53.9998 2.3004 54.3998 1.8004 54.3998C1.3004 54.3998 0.900391 53.8998 0.900391 53.3998C0.900391 52.3998 1.0004 51.2998 1.1004 50.2998C1.2004 49.8998 1.50039 49.5998 1.90039 49.4998ZM1.90039 57.5998C2.50039 57.4998 2.9004 57.8998 3.0004 58.3998C3.1004 59.0998 3.2004 59.8998 3.3004 60.5998C3.3004 60.8998 3.40039 61.0998 3.40039 61.3998C3.50039 61.8998 3.2004 62.3998 2.6004 62.4998C2.1004 62.5998 1.6004 62.2998 1.5004 61.6998C1.4004 61.3998 1.40039 61.1998 1.40039 60.8998C1.30039 60.0998 1.2004 59.3998 1.1004 58.5998C1.0004 58.0998 1.40039 57.6998 1.90039 57.5998Z" fill="#D2D9DC"/>
<path d="M54.2996 21C54.4996 21 54.6995 21 54.8995 21.1C55.3995 21.3 55.7996 21.6 56.2996 21.8C56.7996 22 56.8995 22.6 56.6995 23.1C56.4995 23.6 55.8995 23.7 55.3995 23.5C54.9995 23.3 54.4996 23 54.0996 22.8C53.5996 22.6 53.3995 22 53.6995 21.5C53.7995 21.2 53.9996 21 54.2996 21Z" fill="#D2D9DC"/>
<path d="M66.5012 50.2998C66.5012 50.0998 66.4012 49.9998 66.2012 49.8998L61.0012 48.4998C60.3012 45.9998 59.1012 43.6998 57.7012 41.6998L59.8012 36.7998C59.9012 36.5998 59.8012 36.3998 59.7012 36.2998L54.9012 31.9998C54.8012 31.8998 54.6012 31.8998 54.4012 31.8998L49.7012 34.4998C47.5012 33.2998 45.1012 32.4998 42.6012 31.9998L40.6012 27.0998C40.5012 26.8998 40.4012 26.7998 40.2012 26.7998L33.8012 27.1998C33.6012 27.1998 33.5012 27.2998 33.4012 27.4998L32.0012 32.6998C29.5012 33.3998 27.2012 34.5998 25.2012 35.9998L20.2012 33.8998C20.0012 33.7998 19.8012 33.8998 19.7012 33.9998L15.4012 38.7998C15.3012 38.8998 15.3012 39.0998 15.4012 39.2998L18.0012 43.9998C16.8012 46.1998 16.0012 48.5998 15.5012 51.0998L10.5012 53.0998C10.3012 53.1998 10.2012 53.2998 10.2012 53.4998L10.6012 59.8998C10.6012 60.0998 10.7012 60.1998 10.9012 60.2998L16.0012 61.6998C16.7012 64.1998 17.9012 66.4998 19.3012 68.4998L17.2012 73.4998C17.1012 73.6998 17.2012 73.8998 17.3012 73.9998L22.1012 78.2998C22.2012 78.3998 22.4012 78.3998 22.6012 78.2998L27.3012 75.6998C29.5012 76.8998 31.9012 77.6998 34.4012 78.1998L36.4012 83.1998C36.5012 83.3998 36.6012 83.4998 36.8012 83.4998L43.2012 83.0998C43.4012 83.0998 43.5012 82.9998 43.6012 82.7998L45.0012 77.6998C47.5012 76.9998 49.8012 75.7998 51.8012 74.3998L56.7012 76.4998C56.9012 76.5998 57.1012 76.4998 57.2012 76.3998L61.5012 71.5998C61.6012 71.4998 61.6012 71.2998 61.6012 71.0998L59.0012 66.3998C60.2012 64.1998 61.0012 61.7998 61.5012 59.2998L66.4012 57.2998C66.6012 57.1998 66.7012 57.0998 66.7012 56.8998L66.5012 50.2998ZM38.5012 69.9998C30.3012 69.9998 23.7012 63.3998 23.7012 55.1998C23.7012 46.9998 30.3012 40.3998 38.5012 40.3998C46.7012 40.3998 53.3012 46.9998 53.3012 55.1998C53.3012 63.3998 46.7012 69.9998 38.5012 69.9998Z" fill="#839299"/>
<path d="M101.401 14.7002C101.601 14.7002 101.901 14.8002 102.001 15.0002C102.201 15.4002 102.401 15.9002 102.601 16.4002C102.701 16.7002 102.601 17.0002 102.301 17.2002C102.001 17.3002 101.701 17.2002 101.501 16.9002C101.301 16.5002 101.101 16.0002 100.901 15.6002C100.801 15.3002 100.901 15.0002 101.201 14.8002C101.301 14.8002 101.401 14.7002 101.401 14.7002Z" fill="#D2D9DC"/>
<path d="M103 18.9004C103.3 18.9004 103.6 19.0004 103.7 19.3004C103.9 20.1004 104.1 21.0004 104.2 21.8004C104.2 22.0004 104.3 22.2004 104.3 22.3004C104.3 22.6004 104.1 22.9004 103.8 23.0004C103.5 23.0004 103.2 22.8004 103.1 22.5004C103.1 22.3004 103.1 22.2004 103 22.0004C102.9 21.2004 102.7 20.4004 102.5 19.6004C102.4 19.3004 102.6 19.0004 103 18.9004ZM103.8 24.9004C103.9 24.9004 103.9 24.9004 103.8 24.9004C104.2 24.9004 104.5 25.1004 104.5 25.5004C104.5 26.5004 104.5 27.6004 104.4 28.6004C104.4 28.9004 104.1 29.1004 103.8 29.1004C103.5 29.1004 103.2 28.8004 103.3 28.5004C103.4 27.5004 103.4 26.5004 103.4 25.6004C103.3 25.2004 103.5 25.0004 103.8 24.9004ZM103.2 30.9004C103.3 30.9004 103.3 30.9004 103.4 30.9004C103.7 31.0004 103.9 31.3004 103.8 31.6004C103.6 32.6004 103.3 33.6004 102.9 34.6004C102.8 34.9004 102.5 35.1004 102.2 34.9004C101.9 34.8004 101.7 34.5004 101.9 34.2004C102.2 33.3004 102.5 32.3004 102.8 31.4004C102.8 31.1004 103 30.9004 103.2 30.9004ZM101.1 36.6004C101.2 36.6004 101.3 36.6004 101.5 36.7004C101.8 36.8004 101.9 37.2004 101.7 37.5004C101.2 38.4004 100.7 39.3004 100.1 40.2004C99.9004 40.5004 99.6004 40.5004 99.3004 40.4004C99.0004 40.2004 99.0004 39.9004 99.1004 39.6004C99.7004 38.8004 100.2 37.9004 100.6 37.1004C100.8 36.7004 100.9 36.6004 101.1 36.6004ZM97.7004 41.5004C97.9004 41.5004 98.0004 41.5004 98.2004 41.6004C98.4004 41.8004 98.5004 42.2004 98.3004 42.4004C97.6004 43.2004 96.9004 43.9004 96.1004 44.6004C95.9004 44.8004 95.5004 44.8004 95.3004 44.6004C95.1004 44.4004 95.1004 44.0004 95.3004 43.8004C96.0004 43.2004 96.7004 42.4004 97.4004 41.7004C97.4004 41.6004 97.6004 41.6004 97.7004 41.5004ZM93.2004 45.5004C93.4004 45.5004 93.6004 45.6004 93.8004 45.7004C94.0004 46.0004 93.9004 46.3004 93.6004 46.5004C92.8004 47.1004 91.9004 47.6004 90.9004 48.1004C90.6004 48.2004 90.3004 48.1004 90.1004 47.9004C90.0004 47.6004 90.1004 47.3004 90.3004 47.1004C91.2004 46.7004 92.0004 46.1004 92.8004 45.6004C93.0004 45.6004 93.1004 45.6004 93.2004 45.5004ZM87.8004 48.3004C88.1004 48.3004 88.3004 48.4004 88.4004 48.7004C88.5004 49.0004 88.4004 49.3004 88.1004 49.4004C87.1004 49.8004 86.1004 50.1004 85.1004 50.3004C84.8004 50.4004 84.5004 50.2004 84.4004 49.9004C84.3004 49.6004 84.5004 49.3004 84.8004 49.2004C85.8004 49.0004 86.7004 48.7004 87.6004 48.4004C87.7004 48.3004 87.8004 48.3004 87.8004 48.3004ZM78.9004 49.8004H79.0004C79.8004 49.8004 80.7004 49.8004 81.6004 49.7004C81.7004 49.7004 81.9004 49.7004 82.0004 49.7004C82.3004 49.7004 82.6004 49.9004 82.6004 50.2004C82.6004 50.5004 82.4004 50.8004 82.1004 50.8004C82.0004 50.8004 81.8004 50.8004 81.7004 50.8004C80.8004 50.9004 79.9004 50.9004 79.0004 50.9004C78.7004 50.9004 78.4004 50.6004 78.4004 50.3004C78.4004 50.1004 78.6004 49.9004 78.9004 49.8004Z" fill="#D2D9DC"/>
<path d="M75.1006 1.2001C75.4006 1.1001 75.7006 1.4001 75.8006 1.7001C75.9006 2.0001 75.6006 2.3001 75.3006 2.4001C74.3006 2.6001 73.4006 2.8001 72.5006 3.1001C72.2006 3.2001 71.9006 3.0001 71.8006 2.7001C71.7006 2.4001 71.9006 2.1001 72.2006 2.0001C73.1006 1.6001 74.1006 1.3001 75.1006 1.2001ZM78.0006 0.800098C79.1006 0.700098 80.1006 0.700098 81.1006 0.800098C81.4006 0.800098 81.7006 1.1001 81.6006 1.4001C81.6006 1.7001 81.3006 2.0001 81.0006 1.9001C80.0006 1.8001 79.1006 1.8001 78.1006 1.9001C77.8006 1.9001 77.5006 1.7001 77.5006 1.4001C77.5006 1.1001 77.7006 0.900098 78.0006 0.800098ZM69.4006 2.9001C69.7006 2.9001 69.9006 3.0001 70.0006 3.2001C70.1006 3.5001 70.0006 3.8001 69.7006 4.0001C68.8006 4.4001 67.9006 4.8001 67.1006 5.3001C66.8006 5.5001 66.5006 5.4001 66.3006 5.1001C66.1006 4.8001 66.2006 4.5001 66.5006 4.3001C67.4006 3.8001 68.3006 3.3001 69.2006 2.9001C69.3006 2.9001 69.3006 2.9001 69.4006 2.9001ZM83.9006 1.2001C84.0006 1.2001 84.0006 1.2001 84.1006 1.2001C85.1006 1.4001 86.1006 1.6001 87.1006 2.0001C87.4006 2.1001 87.6006 2.4001 87.5006 2.7001C87.4006 3.0001 87.1006 3.2001 86.8006 3.1001C85.9006 2.8001 84.9006 2.6001 84.0006 2.4001C83.7006 2.3001 83.5006 2.0001 83.5006 1.7001C83.5006 1.4001 83.7006 1.3001 83.9006 1.2001ZM64.3006 5.9001C64.5006 5.9001 64.7006 5.9001 64.9006 6.1001C65.1006 6.4001 65.1006 6.7001 64.8006 6.9001C64.0006 7.5001 63.3006 8.1001 62.6006 8.8001C62.4006 9.0001 62.0006 9.0001 61.8006 8.8001C61.6006 8.6001 61.6006 8.2001 61.8006 8.0001C62.5006 7.3001 63.3006 6.6001 64.1006 6.0001C64.1006 6.0001 64.2006 5.9001 64.3006 5.9001ZM60.1006 10.1001C60.3006 10.1001 60.4006 10.1001 60.6006 10.2001C60.9006 10.4001 60.9006 10.8001 60.7006 11.0001C60.1006 11.8001 59.5006 12.6001 59.0006 13.4001C58.8006 13.7001 58.5006 13.8001 58.2006 13.6001C57.9006 13.4001 57.8006 13.1001 58.0006 12.8001C58.5006 11.9001 59.1006 11.1001 59.7006 10.3001C59.8006 10.2001 59.9006 10.1001 60.1006 10.1001ZM57.0006 15.2001C57.1006 15.2001 57.2006 15.2001 57.3006 15.2001C57.6006 15.3001 57.7006 15.7001 57.6006 16.0001C57.2006 16.9001 56.8006 17.8001 56.6006 18.7001C56.5006 19.0001 56.2006 19.2001 55.9006 19.1001C55.6006 19.0001 55.4006 18.7001 55.5006 18.4001C55.8006 17.4001 56.2006 16.5001 56.6006 15.6001C56.6006 15.3001 56.8006 15.2001 57.0006 15.2001Z" fill="#D2D9DC"/>
<path d="M89.6004 3.1001C89.7004 3.1001 89.8004 3.1001 89.9004 3.1001C90.4004 3.3001 90.8004 3.5001 91.2004 3.8001C91.5004 4.0001 91.6004 4.3001 91.4004 4.6001C91.2004 4.9001 90.9004 5.0001 90.6004 4.8001C90.2004 4.6001 89.8004 4.4001 89.3004 4.2001C89.0004 4.1001 88.9004 3.7001 89.0004 3.4001C89.3004 3.2001 89.4004 3.1001 89.6004 3.1001Z" fill="#D2D9DC"/>
<path d="M98.1 22.8001C98.1 22.7001 98 22.6001 97.9 22.5001L94.5 21.5001C94 19.8001 93.3 18.3001 92.3 17.0001L93.7 13.7001C93.7 13.6001 93.7 13.5001 93.6 13.4001L90.4 10.5001C90.3 10.4001 90.2 10.4001 90.1 10.5001L87 12.3001C85.5 11.5001 83.9 10.9001 82.2 10.6001L80.8 7.3001C80.8 7.2001 80.6 7.1001 80.5 7.1001L76.2 7.3001C76.1 7.3001 76 7.4001 75.9 7.5001L74.9 10.9001C73.2 11.4001 71.7 12.1001 70.4 13.1001L67.1 11.7001C67 11.7001 66.9 11.7001 66.8 11.8001L63.9 15.0001C63.8 15.1001 63.8 15.2001 63.9 15.3001L65.7 18.4001C64.9 19.9001 64.3 21.5001 64 23.2001L60.7 24.6001C60.6 24.6001 60.5 24.8001 60.5 24.9001L60.7 29.2001C60.7 29.3001 60.8 29.4001 60.9 29.5001L64.3 30.5001C64.8 32.2001 65.5 33.7001 66.5 35.0001L65.1 38.3001C65.1 38.4001 65.1 38.5001 65.2 38.6001L68.4 41.5001C68.5 41.6001 68.6 41.6001 68.7 41.5001L71.8 39.7001C73.3 40.5001 74.9 41.1001 76.6 41.4001L78 44.7001C78 44.8001 78.2 44.9001 78.3 44.9001L82.6 44.7001C82.7 44.7001 82.8 44.6001 82.9 44.5001L83.9 41.1001C85.6 40.6001 87.1 39.9001 88.4 38.9001L91.7 40.3001C91.8 40.3001 91.9 40.3001 92 40.2001L94.9 37.0001C95 36.9001 95 36.8001 94.9 36.7001L93.1 33.6001C93.9 32.1001 94.5 30.5001 94.8 28.8001L98.1 27.4001C98.2 27.4001 98.3 27.2001 98.3 27.1001L98.1 22.8001ZM79.4 35.9001C74 35.9001 69.6 31.5001 69.6 26.1001C69.6 20.7001 74 16.3001 79.4 16.3001C84.8 16.3001 89.2 20.7001 89.2 26.1001C89.2 31.5001 84.9 35.9001 79.4 35.9001Z" fill="#839299"/>
<path d="M328 155.9C328.2 155.9 328.5 156 328.6 156.2C328.8 156.6 329 157.1 329.2 157.6C329.3 157.9 329.2 158.2 328.9 158.4C328.6 158.5 328.3 158.4 328.1 158.1C327.9 157.7 327.7 157.2 327.5 156.8C327.4 156.5 327.5 156.2 327.8 156C327.9 156 328 156 328 155.9Z" fill="#D2D9DC"/>
<path d="M329.6 160.1C329.9 160.1 330.2 160.2 330.3 160.5C330.5 161.3 330.7 162.2 330.8 163C330.8 163.2 330.9 163.4 330.9 163.5C330.9 163.8 330.7 164.1 330.4 164.2C330.1 164.2 329.8 164 329.7 163.7C329.7 163.5 329.7 163.4 329.6 163.2C329.5 162.4 329.3 161.6 329.1 160.8C329 160.6 329.2 160.2 329.6 160.1ZM330.4 166.1C330.8 166.1 331.1 166.3 331.1 166.7C331.1 167.7 331.1 168.8 331 169.8C331 170.1 330.7 170.3 330.4 170.3C330.1 170.3 329.8 170 329.9 169.7C330 168.7 330 167.7 330 166.8C329.9 166.4 330.1 166.2 330.4 166.1ZM329.8 172.1C329.9 172.1 329.9 172.1 330 172.1C330.3 172.2 330.5 172.5 330.4 172.8C330.2 173.8 329.9 174.8 329.5 175.8C329.4 176.1 329.1 176.3 328.8 176.1C328.5 176 328.3 175.7 328.5 175.4C328.8 174.5 329.1 173.5 329.4 172.6C329.4 172.3 329.5 172.2 329.8 172.1ZM327.7 177.8C327.8 177.8 327.9 177.8 328.1 177.9C328.4 178 328.5 178.4 328.3 178.7C327.8 179.6 327.3 180.5 326.7 181.4C326.5 181.7 326.2 181.7 325.9 181.6C325.6 181.4 325.6 181.1 325.7 180.8C326.3 180 326.8 179.1 327.2 178.3C327.3 177.9 327.5 177.8 327.7 177.8ZM324.3 182.8C324.5 182.8 324.6 182.8 324.8 182.9C325 183.1 325.1 183.5 324.9 183.7C324.2 184.5 323.5 185.2 322.7 185.9C322.5 186.1 322.1 186.1 321.9 185.9C321.7 185.7 321.7 185.3 321.9 185.1C322.6 184.5 323.3 183.7 324 183C324 182.8 324.1 182.8 324.3 182.8ZM319.7 186.8C319.9 186.8 320.1 186.9 320.3 187C320.5 187.3 320.4 187.6 320.1 187.8C319.3 188.4 318.4 188.9 317.4 189.4C317.1 189.5 316.8 189.4 316.6 189.2C316.5 188.9 316.6 188.6 316.8 188.4C317.7 188 318.5 187.4 319.3 186.9C319.6 186.8 319.7 186.8 319.7 186.8ZM314.4 189.5C314.7 189.5 314.9 189.6 315 189.9C315.1 190.2 315 190.5 314.7 190.6C313.7 191 312.7 191.3 311.7 191.5C311.4 191.6 311.1 191.4 311 191.1C310.9 190.8 311.1 190.5 311.4 190.4C312.4 190.2 313.3 189.9 314.2 189.6C314.3 189.5 314.4 189.5 314.4 189.5ZM305.5 191H305.6C306.4 191 307.3 191 308.2 190.9C308.3 190.9 308.5 190.9 308.6 190.9C308.9 190.9 309.2 191.1 309.2 191.4C309.2 191.7 309 192 308.7 192C308.6 192 308.4 192 308.3 192C307.4 192.1 306.5 192.1 305.6 192.1C305.3 192.1 305 191.8 305 191.5C305 191.3 305.2 191.1 305.5 191Z" fill="#D2D9DC"/>
<path d="M301.6 142.4C301.9 142.3 302.2 142.6 302.3 142.9C302.4 143.2 302.1 143.5 301.8 143.6C300.8 143.8 299.9 144 299 144.3C298.7 144.4 298.4 144.2 298.3 143.9C298.2 143.6 298.4 143.3 298.7 143.2C299.6 142.8 300.6 142.5 301.6 142.4ZM304.6 142C305.7 141.9 306.7 141.9 307.7 142C308 142 308.3 142.3 308.2 142.6C308.2 142.9 307.9 143.2 307.6 143.1C306.6 143 305.7 143 304.7 143.1C304.4 143.1 304.1 142.9 304.1 142.6C304.1 142.3 304.3 142.1 304.6 142ZM296 144.1C296.3 144.1 296.5 144.2 296.6 144.4C296.7 144.7 296.6 145 296.3 145.2C295.4 145.6 294.5 146 293.7 146.5C293.4 146.7 293.1 146.6 292.9 146.3C292.7 146 292.8 145.7 293.1 145.5C294 145 294.9 144.5 295.8 144.1C295.9 144.1 295.9 144.1 296 144.1ZM310.5 142.4C310.6 142.4 310.6 142.4 310.7 142.4C311.7 142.6 312.7 142.8 313.7 143.2C314 143.3 314.2 143.6 314.1 143.9C314 144.2 313.7 144.4 313.4 144.3C312.5 144 311.5 143.8 310.6 143.6C310.3 143.5 310.1 143.2 310.1 142.9C310.1 142.6 310.3 142.5 310.5 142.4ZM290.9 147.1C291.1 147.1 291.3 147.1 291.5 147.3C291.7 147.6 291.7 147.9 291.4 148.1C290.6 148.7 289.9 149.3 289.2 150C289 150.2 288.6 150.2 288.4 150C288.2 149.8 288.2 149.4 288.4 149.2C289.1 148.5 289.9 147.8 290.7 147.2C290.7 147.2 290.8 147.1 290.9 147.1ZM286.7 151.3C286.9 151.3 287 151.3 287.2 151.4C287.5 151.6 287.5 152 287.3 152.2C286.7 153 286.1 153.8 285.6 154.6C285.4 154.9 285.1 155 284.8 154.8C284.5 154.6 284.4 154.3 284.6 154C285.1 153.1 285.7 152.3 286.3 151.5C286.4 151.4 286.5 151.3 286.7 151.3ZM283.6 156.4C283.7 156.4 283.8 156.4 283.9 156.4C284.2 156.5 284.3 156.9 284.2 157.2C283.8 158.1 283.4 159 283.2 159.9C283.1 160.2 282.8 160.4 282.5 160.3C282.2 160.2 282 159.9 282.1 159.6C282.4 158.6 282.8 157.7 283.2 156.8C283.2 156.5 283.4 156.4 283.6 156.4Z" fill="#D2D9DC"/>
<path d="M316.2 144.3C316.3 144.3 316.4 144.3 316.5 144.3C317 144.5 317.4 144.7 317.8 145C318.1 145.2 318.2 145.5 318 145.8C317.8 146.1 317.5 146.2 317.2 146C316.8 145.8 316.4 145.6 315.9 145.4C315.6 145.3 315.5 144.9 315.6 144.6C315.9 144.4 316 144.3 316.2 144.3Z" fill="#D2D9DC"/>
<path d="M324.7 164C324.7 163.9 324.6 163.8 324.5 163.7L321.1 162.7C320.6 161 319.9 159.5 318.9 158.2L320.3 154.9C320.3 154.8 320.3 154.7 320.2 154.6L317 151.7C316.9 151.6 316.8 151.6 316.7 151.7L313.6 153.5C312.1 152.7 310.5 152.1 308.8 151.8L307.4 148.5C307.4 148.4 307.2 148.3 307.1 148.3L302.8 148.5C302.7 148.5 302.6 148.6 302.5 148.7L301.5 152.1C299.8 152.6 298.3 153.3 297 154.3L293.7 152.9C293.6 152.9 293.5 152.9 293.4 153L290.5 156.2C290.4 156.3 290.4 156.4 290.5 156.5L292.3 159.6C291.5 161.1 290.9 162.7 290.6 164.4L287.3 165.8C287.2 165.8 287.1 166 287.1 166.1L287.3 170.4C287.3 170.5 287.4 170.6 287.5 170.7L290.9 171.7C291.4 173.4 292.1 174.9 293.1 176.2L291.7 179.5C291.7 179.6 291.7 179.7 291.8 179.8L295 182.7C295.1 182.8 295.2 182.8 295.3 182.7L298.4 180.9C299.9 181.7 301.5 182.3 303.2 182.6L304.6 185.9C304.6 186 304.8 186.1 304.9 186.1L309.2 185.9C309.3 185.9 309.4 185.8 309.5 185.7L310.5 182.3C312.2 181.8 313.7 181.1 315 180.1L318.3 181.5C318.4 181.5 318.5 181.5 318.6 181.4L321.5 178.2C321.6 178.1 321.6 178 321.5 177.9L319.7 174.8C320.5 173.3 321.1 171.7 321.4 170L324.7 168.6C324.8 168.6 324.9 168.4 324.9 168.3L324.7 164ZM306 177.1C300.6 177.1 296.2 172.7 296.2 167.3C296.2 161.9 300.6 157.5 306 157.5C311.4 157.5 315.8 161.9 315.8 167.3C315.8 172.7 311.4 177.1 306 177.1Z" fill="#839299"/>
<path fill-rule="evenodd" clip-rule="evenodd" d="M148.6 160.9H150.6H197.7H199.7L207.7 212.6H189.7H158.6H140.6L148.6 160.9Z" fill="#5F737C"/>
<path fill-rule="evenodd" clip-rule="evenodd" d="M133.399 211.8H214.799C219.099 211.8 222.599 215.3 222.599 219.6C222.599 220.9 221.499 222 220.199 222H128.099C126.799 222 125.699 220.9 125.699 219.6C125.699 215.3 129.199 211.8 133.399 211.8Z" fill="#839299"/>
<path fill-rule="evenodd" clip-rule="evenodd" d="M67.5 40.6001H278.6C283 40.6001 286.6 44.2001 286.6 48.6001V174.7C286.6 179.1 283 182.7 278.6 182.7H67.5C63.1 182.7 59.5 179.1 59.5 174.7V48.5001C59.6 44.2001 63.2 40.6001 67.5 40.6001Z" fill="#D2D9DC"/>
<path fill-rule="evenodd" clip-rule="evenodd" d="M286.6 170.7V186C286.6 190.4 283 194 278.6 194H67.5C63.1 194 59.5 190.4 59.5 186V170.7H286.6Z" fill="#839299"/>
<path d="M279 48.1001H67.0996V163.1H279V48.1001Z" fill="#0054A6"/>
<path fill-rule="evenodd" clip-rule="evenodd" d="M173.101 175.5C176.601 175.5 179.401 178.3 179.401 181.8C179.401 185.3 176.601 188.1 173.101 188.1C169.601 188.1 166.801 185.3 166.801 181.8C166.801 178.4 169.601 175.5 173.101 175.5Z" fill="#5F737C"/>
<path d="M119.801 140.3L81.9008 140.2C81.3008 140.2 80.8008 139.7 80.8008 139.2V136.8C80.8008 136.2 81.3008 135.8 81.9008 135.8L119.801 136C120.401 136 120.801 136.4 120.801 137V139.3C120.801 139.8 120.301 140.3 119.801 140.3Z" fill="#F9FAFB"/>
<path d="M83.4004 141.1L86.7004 153C86.9004 153.8 87.6004 154.3 88.5004 154.3L113.7 154C114.5 154 115.2 153.5 115.4 152.7L118.5 141.1H83.4004ZM92.7004 152.4C92.7004 152.9 92.3004 153.3 91.8004 153.3H90.9004C90.4004 153.3 90.0004 152.9 90.0004 152.4V143.1C90.0004 142.6 90.4004 142.2 90.9004 142.2H91.8004C92.3004 142.2 92.7004 142.6 92.7004 143.1V152.4ZM97.6004 152.3C97.6004 152.8 97.2004 153.2 96.7004 153.2H95.8004C95.3004 153.2 94.9004 152.8 94.9004 152.4V143.2C94.9004 142.7 95.3004 142.3 95.8004 142.3H96.7004C97.2004 142.3 97.6004 142.7 97.6004 143.2V152.3ZM102.5 152.3C102.5 152.8 102.1 153.2 101.6 153.2H100.7C100.2 153.2 99.8004 152.8 99.8004 152.4V143.2C99.8004 142.7 100.2 142.3 100.7 142.3H101.6C102.1 142.3 102.5 142.7 102.5 143.2V152.3ZM107.3 152.2C107.3 152.7 106.9 153.1 106.4 153.1H105.5C105 153.1 104.6 152.7 104.6 152.3V143.2C104.6 142.7 105 142.4 105.5 142.4H106.4C106.9 142.4 107.3 142.8 107.3 143.2V152.2ZM112.1 152.2C112.1 152.7 111.7 153 111.2 153.1H110.3C109.8 153.1 109.4 152.7 109.4 152.3V143.2C109.4 142.7 109.8 142.4 110.3 142.4H111.2C111.7 142.4 112.1 142.8 112.1 143.2V152.2Z" fill="#F9FAFB"/>
<path d="M87.6002 134.6C87.0002 135.1 86.2002 135 85.6002 134.5C85.1002 134 85.2002 133.2 85.7002 132.7C86.3002 132.2 87.2002 132.3 87.7002 132.8C88.3002 133.3 88.2002 134.1 87.6002 134.6Z" fill="#F9FAFB"/>
<path d="M99.7997 123.2C99.5997 123 99.1997 123 98.8997 123.2L86.8997 132.7C86.5997 132.9 86.4998 133.3 86.6998 133.5C86.8998 133.7 87.2998 133.7 87.5998 133.4L99.5998 123.9C99.8998 123.8 99.9997 123.4 99.7997 123.2Z" fill="#F9FAFB"/>
<path d="M114.399 134.7C114.899 135.2 115.799 135.1 116.299 134.6C116.799 134.1 116.699 133.3 116.199 132.9C115.699 132.4 114.799 132.5 114.299 133C113.799 133.5 113.799 134.3 114.399 134.7Z" fill="#F9FAFB"/>
<path d="M102.499 123.3C102.699 123.1 103.099 123.1 103.399 123.4L114.999 133.1C115.299 133.3 115.399 133.7 115.199 133.9C114.999 134.1 114.599 134.1 114.299 133.8L102.599 124.1C102.399 123.8 102.399 123.5 102.499 123.3Z" fill="#F9FAFB"/>
<path d="M253.5 106.3C264.27 106.3 273 97.5694 273 86.7998C273 76.0303 264.27 67.2998 253.5 67.2998C242.73 67.2998 234 76.0303 234 86.7998C234 97.5694 242.73 106.3 253.5 106.3Z" fill="#54CC5A"/>
<path d="M253.6 99.6998C253.4 99.6998 253.2 99.6998 252.9 99.6998C245.4 99.3998 239.6 93.3998 239.9 86.4998C240 83.0998 241.6 79.9998 244.3 77.6998C247 75.3998 250.4 74.2998 254 74.3998C261.5 74.6998 267.3 80.6998 267 87.5998C266.9 90.9998 265.3 94.0998 262.6 96.3998C260.2 98.5998 257 99.6998 253.6 99.6998ZM253.4 76.1998C250.5 76.1998 247.7 77.1998 245.5 78.9998C243.2 80.9998 241.9 83.5998 241.7 86.4998C241.4 92.4998 246.5 97.5998 253 97.8998C256.1 97.9998 259.2 96.9998 261.5 95.0998C263.8 93.0998 265.1 90.4998 265.3 87.5998C265.6 81.5998 260.5 76.4998 254 76.1998C253.8 76.1998 253.6 76.1998 253.4 76.1998Z" fill="#F9FAFB"/>
<path d="M256.701 87.1C256.701 89.2 256.601 91.3 256.201 93.3C256.101 93.8 256.001 94.3 255.901 94.8C255.801 95.3 255.601 95.8 255.401 96.3C255.201 96.8 255.001 97.3 254.701 97.7C254.601 97.9 254.401 98.1 254.201 98.3C254.101 98.4 254.001 98.5 253.901 98.5C253.801 98.6 253.601 98.6 253.501 98.6C253.401 98.6 253.201 98.6 253.101 98.5C253.001 98.5 252.901 98.4 252.801 98.3C252.601 98.1 252.401 97.9 252.301 97.7C252.001 97.3 251.801 96.8 251.601 96.3C251.401 95.8 251.301 95.3 251.101 94.8C251.001 94.3 250.901 93.8 250.801 93.3C250.601 92.3 250.501 91.2 250.401 90.2C250.301 89.2 250.301 88.1 250.301 87.1C250.301 86.6 250.301 86.1 250.301 85.5C250.301 85 250.301 84.5 250.401 83.9C250.501 82.9 250.601 81.8 250.801 80.8C250.901 80.3 251.001 79.8 251.101 79.3C251.201 78.8 251.401 78.3 251.501 77.8C251.601 77.6 251.701 77.3 251.801 77.1C251.901 76.9 252.001 76.6 252.201 76.4C252.301 76.2 252.501 76 252.701 75.8C252.801 75.7 252.901 75.6 253.001 75.6C253.101 75.6 253.301 75.5 253.401 75.5C253.501 75.5 253.701 75.5 253.801 75.6C253.901 75.7 254.001 75.7 254.101 75.8C254.301 76 254.501 76.2 254.601 76.4C254.901 76.8 255.101 77.3 255.301 77.8C255.501 78.3 255.701 78.8 255.801 79.3C255.901 79.8 256.101 80.3 256.201 80.8C256.601 83 256.701 85 256.701 87.1ZM256.601 87.1C256.601 86.1 256.601 85 256.501 84C256.401 83 256.301 81.9 256.101 80.9C256.001 80.4 255.901 79.9 255.801 79.4C255.701 78.9 255.501 78.4 255.301 77.9C255.101 77.4 254.901 76.9 254.601 76.5C254.501 76.3 254.301 76.1 254.101 75.9C254.001 75.8 253.901 75.7 253.801 75.7C253.701 75.6 253.601 75.6 253.401 75.6C253.301 75.6 253.101 75.6 253.001 75.7C252.901 75.7 252.801 75.8 252.701 75.9C252.501 76.1 252.301 76.3 252.201 76.5C252.101 76.7 251.901 76.9 251.801 77.2C251.701 77.4 251.601 77.7 251.501 77.9C251.301 78.4 251.201 78.9 251.101 79.4C251.001 79.9 250.901 80.4 250.801 80.9C250.601 81.9 250.501 83 250.501 84C250.401 85 250.401 86.1 250.401 87.1C250.401 88.1 250.401 89.2 250.501 90.2C250.601 91.2 250.701 92.3 250.901 93.3C251.001 93.8 251.101 94.3 251.201 94.8C251.301 95.3 251.501 95.8 251.601 96.3C251.801 96.8 252.001 97.3 252.301 97.7C252.401 97.9 252.601 98.1 252.801 98.3C252.901 98.4 253.001 98.4 253.101 98.5C253.201 98.5 253.301 98.6 253.501 98.6C253.601 98.6 253.701 98.6 253.901 98.5C254.001 98.4 254.101 98.4 254.201 98.3C254.401 98.1 254.501 97.9 254.701 97.7C255.001 97.3 255.201 96.8 255.401 96.3C255.601 95.8 255.701 95.3 255.801 94.8C255.901 94.3 256.001 93.8 256.101 93.3C256.301 92.3 256.401 91.3 256.501 90.2C256.601 89.2 256.601 88.2 256.601 87.1Z" fill="#F9FAFB"/>
<path d="M253.5 99.0001C253.3 99.0001 253.2 99.0001 253 98.9001C252.9 98.8001 252.7 98.8001 252.6 98.7001C252.4 98.5001 252.2 98.3001 252 98.0001C251.7 97.6001 251.5 97.1001 251.3 96.5001C251.1 96.0001 251 95.5001 250.8 95.0001C250.7 94.5001 250.6 94.0001 250.5 93.5001C250.3 92.5001 250.2 91.5001 250.1 90.4001C250 89.4001 250 88.3001 250 87.3001C250 86.7001 250 86.2001 250 85.7001C250 85.2001 250 84.6001 250.1 84.1001C250.2 83.0001 250.3 82.0001 250.5 81.0001C250.6 80.4001 250.7 79.9001 250.8 79.5001C250.9 78.9001 251.1 78.4001 251.2 78.0001C251.3 77.7001 251.4 77.5001 251.5 77.3001C251.6 77.0001 251.8 76.8001 251.9 76.6001C252.1 76.3001 252.3 76.1001 252.5 75.9001C252.6 75.8001 252.8 75.7001 252.9 75.7001C253.1 75.6001 253.2 75.6001 253.4 75.6001C253.6 75.6001 253.7 75.6001 253.9 75.7001C254 75.8001 254.2 75.8001 254.3 76.0001C254.5 76.2001 254.7 76.4001 254.9 76.6001C255.2 77.0001 255.4 77.4001 255.6 78.0001C255.8 78.5001 255.9 79.0001 256.1 79.5001C256.2 80.0001 256.4 80.5001 256.5 81.0001C256.9 82.9001 257.1 85.0001 257.1 87.3001C257.1 89.6001 256.9 91.6001 256.6 93.6001C256.5 94.2001 256.4 94.7001 256.3 95.1001C256.2 95.7001 256 96.2001 255.8 96.6001C255.6 97.2001 255.3 97.7001 255.1 98.1001C254.9 98.4001 254.7 98.6001 254.5 98.8001C254.4 98.9001 254.2 99.0001 254.1 99.1001C253.9 98.9001 253.7 98.9001 253.5 99.0001ZM253.4 76.0001C253.3 76.0001 253.2 76.0001 253.2 76.0001C253.1 76.0001 253 76.1001 253 76.2001C252.9 76.3001 252.7 76.5001 252.6 76.7001C252.5 76.9001 252.4 77.1001 252.3 77.3001C252.2 77.5001 252.1 77.7001 252 78.0001C251.9 78.4001 251.7 78.9001 251.6 79.5001C251.5 80.0001 251.4 80.5001 251.3 81.0001C251.2 82.0001 251 83.0001 251 84.1001C250.9 85.0001 250.9 86.0001 250.9 87.2001C250.9 88.2001 250.9 89.3001 251 90.3001C251.1 91.4001 251.2 92.4001 251.4 93.3001C251.5 93.8001 251.6 94.3001 251.7 94.8001C251.8 95.3001 252 95.8001 252.1 96.2001C252.3 96.8001 252.5 97.2001 252.7 97.5001C252.8 97.7001 253 97.9001 253.1 98.0001C253.2 98.1001 253.3 98.1001 253.3 98.1001C253.4 98.1001 253.5 98.1001 253.5 98.1001C253.6 98.1001 253.7 98.1001 253.7 98.0001C253.8 98.0001 253.9 97.9001 253.9 97.8001C254 97.7001 254.2 97.5001 254.3 97.3001C254.5 96.9001 254.7 96.5001 254.9 96.0001C255.1 95.6001 255.2 95.1001 255.3 94.5001C255.4 94.0001 255.5 93.5001 255.6 93.0001C255.8 92.1001 255.9 91.1001 256 90.0001C256.1 89.0001 256.1 88.0001 256.1 86.9001C256.1 85.9001 256.1 84.8001 256 83.8001C255.9 82.7001 255.8 81.7001 255.6 80.8001C255.5 80.3001 255.4 79.8001 255.3 79.3001C255.2 78.8001 255 78.3001 254.8 77.9001C254.6 77.4001 254.4 76.9001 254.1 76.6001C253.9 76.4001 253.8 76.2001 253.7 76.1001C253.6 76.0001 253.5 76.0001 253.4 75.9001C253.5 76.0001 253.5 76.0001 253.4 76.0001Z" fill="#F9FAFB"/>
<path d="M261.999 87.0997C261.999 88.3997 261.799 89.7997 261.499 91.0997C261.099 92.3997 260.599 93.5997 259.799 94.6997C259.399 95.2997 258.999 95.7997 258.499 96.2997C257.999 96.7997 257.499 97.1997 256.899 97.5997C256.299 97.9997 255.699 98.1997 255.099 98.3997C254.499 98.5997 253.799 98.6997 253.099 98.6997C252.399 98.6997 251.799 98.5997 251.099 98.3997C250.499 98.1997 249.899 97.8997 249.299 97.5997C248.699 97.1997 248.199 96.7997 247.699 96.2997C247.199 95.7997 246.799 95.2997 246.399 94.7997C245.699 93.6997 245.099 92.4997 244.699 91.1997C244.499 90.5997 244.399 89.8997 244.299 89.1997C244.199 88.4997 244.199 87.8997 244.199 87.1997C244.199 86.4997 244.199 85.8997 244.299 85.1997C244.399 84.4997 244.499 83.8997 244.699 83.1997C245.099 81.8997 245.599 80.6997 246.399 79.5997C246.799 78.9997 247.199 78.4997 247.699 78.0997C248.199 77.5997 248.699 77.1997 249.299 76.7997C249.899 76.3997 250.499 76.1997 251.099 75.9997C251.699 75.7997 252.399 75.6997 253.099 75.6997C253.799 75.6997 254.399 75.7997 255.099 75.9997C255.699 76.1997 256.299 76.4997 256.899 76.7997C257.499 77.1997 257.999 77.5997 258.499 78.0997C258.999 78.5997 259.399 79.0997 259.799 79.5997C260.499 80.6997 261.099 81.8997 261.499 83.1997C261.799 84.4997 261.999 85.7997 261.999 87.0997ZM261.799 87.0997C261.799 85.7997 261.599 84.4997 261.299 83.1997C260.999 81.8997 260.399 80.6997 259.699 79.5997C259.299 78.9997 258.899 78.4997 258.499 78.0997C257.999 77.5997 257.499 77.1997 256.999 76.7997C256.399 76.3997 255.799 76.1997 255.199 75.9997C254.599 75.7997 253.899 75.6997 253.299 75.6997C252.599 75.6997 251.999 75.7997 251.399 75.9997C250.799 76.1997 250.199 76.4997 249.599 76.7997C248.999 77.1997 248.499 77.5997 248.099 78.0997C247.599 78.5997 247.199 79.0997 246.899 79.5997C246.199 80.6997 245.699 81.8997 245.299 83.1997C245.099 83.7997 244.999 84.4997 244.899 85.0997C244.799 85.7997 244.799 86.3997 244.799 87.0997C244.799 87.7997 244.799 88.3997 244.899 89.0997C244.999 89.7997 245.099 90.3997 245.299 90.9997C245.599 92.2997 246.199 93.4997 246.899 94.5997C247.299 95.1997 247.699 95.6997 248.099 96.0997C248.599 96.5997 249.099 96.9997 249.599 97.3997C250.199 97.7997 250.799 97.9997 251.399 98.1997C251.999 98.3997 252.699 98.4997 253.299 98.4997C253.999 98.4997 254.599 98.3997 255.199 98.1997C255.799 97.9997 256.399 97.6997 256.999 97.3997C257.599 96.9997 258.099 96.5997 258.499 96.0997C258.999 95.5997 259.399 95.0997 259.699 94.5997C260.399 93.4997 260.999 92.2997 261.299 90.9997C261.599 89.7997 261.799 88.3997 261.799 87.0997Z" fill="#F9FAFB"/>
<path d="M253.2 98.9999C252.5 98.9999 251.8 98.8999 251.1 98.6999C250.5 98.4999 249.8 98.1999 249.2 97.7999C248.6 97.3999 248.1 96.9999 247.6 96.4999C247.1 95.9999 246.7 95.4999 246.3 94.8999C245.6 93.7999 245 92.4999 244.6 91.1999C244.4 90.4999 244.3 89.8999 244.2 89.1999C244.1 88.4999 244.1 87.7999 244.1 87.1999C244.1 86.4999 244.2 85.7999 244.2 85.1999C244.3 84.4999 244.4 83.7999 244.6 83.1999C245 81.7999 245.6 80.5999 246.3 79.4999C246.7 78.8999 247.1 78.3999 247.6 77.8999C248.1 77.3999 248.6 76.9999 249.2 76.5999C249.8 76.1999 250.4 75.8999 251.1 75.6999C251.8 75.4999 252.5 75.3999 253.2 75.3999C253.9 75.3999 254.6 75.4999 255.3 75.6999C256 75.8999 256.6 76.1999 257.2 76.5999C257.8 76.9999 258.3 77.3999 258.8 77.8999C259.3 78.3999 259.7 78.8999 260.1 79.4999C260.8 80.5999 261.4 81.8999 261.8 83.1999C262.2 84.4999 262.3 85.7999 262.3 87.1999C262.3 88.5999 262.1 89.9999 261.8 91.1999C261.4 92.5999 260.8 93.7999 260.1 94.8999C259.7 95.4999 259.3 95.9999 258.8 96.4999C258.3 96.9999 257.8 97.3999 257.2 97.7999C256.6 98.1999 256 98.4999 255.3 98.6999C254.6 98.7999 253.9 98.8999 253.2 98.9999ZM253.2 75.9999C252.6 75.9999 252 76.0999 251.3 76.2999C250.7 76.4999 250.1 76.6999 249.6 77.0999C249.1 77.3999 248.6 77.7999 248.1 78.2999C247.7 78.6999 247.3 79.2999 246.9 79.7999C246.2 80.7999 245.7 81.9999 245.3 83.2999C245.1 83.8999 245 84.4999 244.9 85.1999C244.8 85.7999 244.8 86.4999 244.8 87.0999C244.8 87.7999 244.8 88.3999 244.9 88.9999C245 89.6999 245.1 90.2999 245.3 90.8999C245.7 92.1999 246.2 93.3999 246.9 94.3999C247.3 94.8999 247.7 95.4999 248.1 95.8999C248.6 96.3999 249.1 96.7999 249.6 97.0999C250.1 97.3999 250.7 97.6999 251.3 97.8999C251.9 98.0999 252.5 98.1999 253.2 98.1999C253.8 98.1999 254.4 98.0999 255.1 97.8999C255.7 97.6999 256.3 97.4999 256.8 97.0999C257.3 96.7999 257.8 96.3999 258.3 95.8999C258.7 95.4999 259.1 94.9999 259.5 94.3999C260.2 93.3999 260.7 92.1999 261.1 90.8999C261.4 89.6999 261.6 88.3999 261.6 87.0999C261.6 85.7999 261.4 84.4999 261.1 83.2999C260.7 81.9999 260.2 80.7999 259.5 79.7999C259.1 79.2999 258.7 78.6999 258.3 78.2999C257.8 77.7999 257.3 77.3999 256.8 77.0999C256.3 76.7999 255.7 76.4999 255.1 76.2999C254.4 76.0999 253.8 75.9999 253.2 75.9999Z" fill="#F9FAFB"/>
<path d="M253.5 82.8997H245.6H242.8L242.6 82.6997V82.5997V82.2997H242.9L248.2 82.1997H253.5H261.4L264.3 82.2997V82.8997H264H258.8H253.5Z" fill="#F9FAFB"/>
<path d="M246 78.1001C246.6 78.1001 247.2 78.1001 247.9 78.1001H249.8C250.4 78.1001 251 78.1001 251.7 78.1001H253.6H257.3H259.2C259.8 78.1001 260.4 78.1001 261.1 78.1001C260.5 78.1001 259.9 78.1001 259.2 78.1001H257.3H253.6H251.7C251.1 78.1001 250.5 78.1001 249.8 78.1001H247.9C247.2 78.2001 246.6 78.2001 246 78.1001Z" fill="#F9FAFB"/>
<path d="M253.499 78.4999H251.099C250.599 78.4999 250.199 78.4999 249.699 78.4999H247.199C246.799 78.4999 246.399 78.4999 245.999 78.4999H245.699V77.8999H245.999C246.399 77.8999 246.799 77.8999 247.199 77.8999H249.699C250.099 77.8999 250.599 77.8999 250.999 77.8999H253.399H259.699C260.099 77.8999 260.499 77.8999 260.899 77.8999H261.199V78.4999H260.899C260.499 78.4999 260.099 78.4999 259.699 78.4999H257.199H253.499Z" fill="#F9FAFB"/>
<path d="M253.499 87.3997L244.899 87.2997H241.699V86.6997H241.999H247.799H253.499H262.099H265.099L265.299 86.8997L265.199 87.2997H264.899L259.199 87.3997H253.499Z" fill="#F9FAFB"/>
<path d="M253.5 91.8001H245.6H242.8L242.6 91.6001V91.4001V91.1001H242.9H248.2H253.5H261.4H264.3V91.7001L264 91.8001H258.8H253.5Z" fill="#F9FAFB"/>
<path d="M261.301 95.8999C261.401 95.7999 261.401 95.8999 261.301 95.8999C261.401 95.8999 261.401 95.8999 261.301 95.8999Z" fill="#F9FAFB"/>
<path d="M261.3 96.2001H246.3C246.1 96.2001 246 96.0001 246 95.9001C246 95.7001 246.2 95.6001 246.3 95.6001H261.3C261.5 95.6001 261.6 95.8001 261.6 95.9001C261.7 96.1001 261.5 96.2001 261.3 96.2001Z" fill="#F9FAFB"/>
<path d="M216.8 47.3998C228.011 47.3998 237.1 38.3112 237.1 27.0998C237.1 15.8884 228.011 6.7998 216.8 6.7998C205.589 6.7998 196.5 15.8884 196.5 27.0998C196.5 38.3112 205.589 47.3998 216.8 47.3998Z" fill="#ED1C24"/>
<path d="M221.1 33.0999H209.3C209 33.0999 208.7 32.8999 208.6 32.5999C208.6 32.4999 208.5 32.3999 208.5 32.2999C208.5 32.1999 208.4 32.0999 208.3 31.9999C207.9 31.3999 207.2 31.0999 206.5 31.0999C205.8 31.0999 205.1 31.4999 204.7 31.9999C204.6 32.0999 204.6 32.1999 204.5 32.2999C204.5 32.3999 204.4 32.4999 204.4 32.5999C204.3 32.8999 204 33.0999 203.7 33.0999H203.1C202.5 33.0999 202 32.5999 202 31.9999V21.4999C202 20.8999 202.5 20.3999 203.1 20.3999H221C221.6 20.3999 222.1 20.8999 222.1 21.4999V31.9999C222.2 32.5999 221.7 33.0999 221.1 33.0999ZM209.8 31.6999H220.9V21.7999H203.6V31.3999C203.6 31.2999 203.7 31.2999 203.7 31.1999C204.4 30.1999 205.5 29.6999 206.6 29.6999C207.8 29.6999 208.9 30.2999 209.5 31.2999C209.6 31.3999 209.7 31.4999 209.8 31.6999Z" fill="url(#paint0_linear_6087_15563)"/>
<path d="M229.9 33.0997H229.4C229.1 33.0997 228.8 32.8997 228.7 32.5997C228.7 32.4997 228.6 32.3997 228.6 32.2997C228.6 32.1997 228.5 32.0997 228.4 31.9997C228 31.3997 227.3 31.0997 226.6 31.0997C225.9 31.0997 225.2 31.4997 224.8 31.9997C224.7 32.0997 224.7 32.1997 224.6 32.2997C224.6 32.3997 224.5 32.4997 224.5 32.5997C224.4 32.8997 224.1 33.0997 223.8 33.0997H223.6C223 33.0997 222.5 32.5997 222.5 31.9997V23.7997C222.5 23.1997 223 22.6997 223.6 22.6997H225.4C225.8 22.6997 227.9 22.6997 229.5 24.3997C231 25.9997 230.9 28.0997 230.9 28.5997V31.9997C231 32.5997 230.5 33.0997 229.9 33.0997ZM226.6 29.6997C227.8 29.6997 228.9 30.2997 229.5 31.1997C229.5 31.1997 229.5 31.1997 229.5 31.2997V28.4997V28.3997C229.5 28.0997 229.7 26.4997 228.5 25.2997C227.3 24.0997 225.8 24.0997 225.5 24.0997H224V30.7997C224.7 30.0997 225.6 29.6997 226.6 29.6997Z" fill="url(#paint1_linear_6087_15563)"/>
<path d="M206.599 35.9001C205.599 35.9001 204.699 35.1001 204.699 34.0001C204.699 33.6001 204.899 33.1001 205.199 32.8001C205.499 32.4001 206.099 32.1001 206.599 32.1001C207.199 32.1001 207.699 32.3001 207.999 32.8001C208.299 33.1001 208.499 33.6001 208.499 34.0001C208.399 35.1001 207.599 35.9001 206.599 35.9001ZM206.599 33.5001C206.499 33.5001 206.299 33.6001 206.199 33.7001C206.099 33.8001 206.099 33.9001 206.099 34.0001C206.099 34.3001 206.299 34.5001 206.599 34.5001C206.899 34.5001 207.099 34.3001 207.099 34.0001C207.099 33.9001 206.999 33.8001 206.999 33.7001C206.799 33.6001 206.699 33.5001 206.599 33.5001Z" fill="url(#paint2_linear_6087_15563)"/>
<path d="M226.599 35.9001C225.599 35.9001 224.699 35.1001 224.699 34.0001C224.699 33.6001 224.899 33.1001 225.199 32.8001C225.499 32.4001 226.099 32.1001 226.599 32.1001C227.199 32.1001 227.699 32.3001 227.999 32.8001C228.299 33.1001 228.499 33.6001 228.499 34.0001C228.499 35.1001 227.699 35.9001 226.599 35.9001ZM226.599 33.5001C226.499 33.5001 226.299 33.6001 226.199 33.7001C226.099 33.8001 226.099 33.9001 226.099 34.0001C226.099 34.3001 226.299 34.5001 226.599 34.5001C226.899 34.5001 227.099 34.3001 227.099 34.0001C227.099 33.9001 226.999 33.8001 226.999 33.7001C226.899 33.6001 226.799 33.5001 226.599 33.5001Z" fill="url(#paint3_linear_6087_15563)"/>
<path d="M141.501 40.4C152.657 40.4 161.701 31.3562 161.701 20.2C161.701 9.04385 152.657 0 141.501 0C130.345 0 121.301 9.04385 121.301 20.2C121.301 31.3562 130.345 40.4 141.501 40.4Z" fill="#002548"/>
<path d="M140.502 15.9H147.102C147.602 15.9 148.002 15.5 148.002 15V10.9C148.002 10.4 147.602 10 147.102 10H140.502C140.002 10 139.602 10.4 139.602 10.9V15C139.602 15.5 140.002 15.9 140.502 15.9ZM140.902 14.6V11.4H146.602V14.6H140.902Z" fill="#F9FAFB"/>
<path d="M157.601 18.9999C157.301 18.4999 156.801 18.1999 156.301 18.1999H152.701V17.2999C152.701 16.7999 152.301 16.3999 151.801 16.3999H145.201C144.701 16.3999 144.301 16.7999 144.301 17.2999V21.0999H143.801V17.2999C143.801 16.7999 143.401 16.3999 142.901 16.3999H136.301C135.801 16.3999 135.401 16.7999 135.401 17.2999V21.1999L127.601 21.2999C127.101 21.2999 126.601 21.5999 126.401 22.0999C126.201 22.5999 126.201 23.0999 126.501 23.5999L129.701 28.1999C130.301 29.0999 131.301 29.5999 132.301 29.5999H150.501C151.401 29.5999 152.301 29.0999 152.801 28.2999L157.501 20.5999C157.901 19.9999 157.901 19.4999 157.601 18.9999ZM145.701 21.0999V17.7999H151.401V18.2999H149.601C148.801 18.2999 148.001 18.6999 147.601 19.3999L146.401 21.1999L145.701 21.0999ZM136.801 17.7999H142.501V21.1999H137.001H136.901V17.7999H136.801ZM156.401 19.7999L151.701 27.4999C151.501 27.8999 151.001 28.0999 150.601 28.0999H132.401C131.801 28.0999 131.201 27.7999 130.901 27.2999L127.701 22.6999C127.701 22.6999 127.701 22.6999 127.701 22.5999C127.701 22.5999 127.701 22.5999 127.801 22.5999L137.101 22.4999H144.101H145.201H146.801C147.001 22.4999 147.201 22.3999 147.301 22.1999L148.701 20.0999C148.901 19.7999 149.301 19.5999 149.601 19.5999H156.301C156.401 19.5999 156.401 19.5999 156.401 19.6999C156.501 19.6999 156.501 19.6999 156.401 19.7999Z" fill="#F9FAFB"/>
<path d="M91.4008 94.4002C102.226 94.4002 111.001 85.625 111.001 74.8002C111.001 63.9754 102.226 55.2002 91.4008 55.2002C80.576 55.2002 71.8008 63.9754 71.8008 74.8002C71.8008 85.625 80.576 94.4002 91.4008 94.4002Z" fill="#002548"/>
<path d="M102.1 74.2003H87.2C86.8 74.2003 86.5 73.9003 86.5 73.5003C86.5 73.1003 86.8 72.8003 87.2 72.8003H102.1C102.5 72.8003 102.8 73.1003 102.8 73.5003C102.8 73.9003 102.5 74.2003 102.1 74.2003Z" fill="#F9FAFB"/>
<path d="M91.9012 83.8002C91.5012 83.8002 91.2012 83.3002 91.2012 82.6002V69.9002C91.2012 69.3002 91.5012 68.7002 91.9012 68.7002C92.3012 68.7002 92.6012 69.2002 92.6012 69.9002V82.6002C92.6012 83.3002 92.3012 83.8002 91.9012 83.8002Z" fill="#F9FAFB"/>
<path d="M97.3015 83.8002C96.9015 83.8002 96.6016 83.3002 96.6016 82.6002V69.9002C96.6016 69.3002 96.9015 68.7002 97.3015 68.7002C97.7015 68.7002 98.0016 69.2002 98.0016 69.9002V82.6002C98.0016 83.3002 97.7015 83.8002 97.3015 83.8002Z" fill="#F9FAFB"/>
<path d="M101.6 79.2003H87.3C86.9 79.2003 86.5 78.9003 86.5 78.5003C86.5 78.1003 86.9 77.8003 87.3 77.8003H101.6C102 77.8003 102.4 78.1003 102.4 78.5003C102.4 78.9003 102.1 79.2003 101.6 79.2003Z" fill="#F9FAFB"/>
<path d="M102.401 84.3003H86.7008C86.2008 84.3003 85.8008 83.9003 85.8008 83.4003V69.2003C85.8008 68.7003 86.2008 68.3003 86.7008 68.3003H102.401C102.901 68.3003 103.301 68.7003 103.301 69.2003V83.4003C103.401 83.9003 102.901 84.3003 102.401 84.3003ZM87.7008 82.4003H101.501V70.1003H87.7008V82.4003Z" fill="#F9FAFB"/>
<path d="M86.8013 84.3001H80.1013C79.8013 84.3001 79.6013 84.2001 79.4013 84.0001C79.2013 83.8001 79.1013 83.5001 79.2013 83.3001L81.0013 64.4001C81.0013 63.9001 81.4013 63.6001 81.9013 63.6001H85.1013C85.6013 63.6001 86.0013 64.0001 86.0013 64.4001L87.7013 83.3001C87.7013 83.6001 87.6013 83.8001 87.5013 84.0001C87.3013 84.2001 87.0013 84.3001 86.8013 84.3001ZM81.1013 82.4001H85.8013L84.3013 65.4001H82.7013L81.1013 82.4001Z" fill="#F9FAFB"/>
<path d="M211.9 98.6998C211.9 98.3998 211.7 98.1998 211.5 98.1998L204.4 96.1998C203.4 92.7998 201.8 89.5998 199.8 86.7998L202.6 79.9998C202.7 79.7998 202.6 79.4998 202.4 79.2998L195.8 73.3998C195.6 73.1998 195.3 73.1998 195.1 73.2998L188.7 76.8998C185.7 75.2998 182.3 74.0998 178.8 73.4998L176 66.6998C175.9 66.4998 175.7 66.2998 175.4 66.2998L166.5 66.7998C166.3 66.7998 166 66.9998 166 67.1998L164 74.2998C160.6 75.2998 157.4 76.8998 154.6 78.8998L147.8 76.0998C147.6 75.9998 147.3 76.0998 147.1 76.2998L141.2 82.8998C141 83.0998 141 83.3998 141.1 83.5998L144.7 89.9998C143.1 92.9998 141.9 96.3998 141.3 99.8998L134.5 102.7C134.3 102.8 134.1 103 134.1 103.3L134.6 112.2C134.6 112.4 134.8 112.7 135 112.7L142.1 114.7C143.1 118.1 144.7 121.3 146.7 124.1L143.9 130.9C143.8 131.1 143.9 131.4 144.1 131.6L150.7 137.5C150.9 137.7 151.2 137.7 151.4 137.6L157.9 134C160.9 135.6 164.2 136.8 167.8 137.4L170.6 144.2C170.7 144.4 170.9 144.6 171.2 144.6L180.1 144.1C180.4 144.1 180.6 143.9 180.6 143.7L182.6 136.6C186 135.6 189.2 134 192 132L198.8 134.8C199 134.9 199.3 134.8 199.5 134.6L205.4 128C205.6 127.8 205.6 127.5 205.5 127.3L201.9 120.8C203.5 117.8 204.7 114.5 205.3 110.9L212.1 108.1C212.3 108 212.5 107.8 212.5 107.5L211.9 98.6998ZM173.3 125.8C162 125.8 152.9 116.7 152.9 105.4C152.9 94.0998 162 84.9998 173.3 84.9998C184.6 84.9998 193.7 94.0998 193.7 105.4C193.7 116.7 184.5 125.8 173.3 125.8Z" fill="#D2D9DC"/>
<defs>
<linearGradient id="paint0_linear_6087_15563" x1="202.128" y1="26.7704" x2="222.248" y2="26.7704" gradientUnits="userSpaceOnUse">
<stop stop-color="#DAE3FE"/>
<stop offset="1" stop-color="#E9EFFD"/>
</linearGradient>
<linearGradient id="paint1_linear_6087_15563" x1="222.609" y1="27.9131" x2="230.998" y2="27.9131" gradientUnits="userSpaceOnUse">
<stop stop-color="#DAE3FE"/>
<stop offset="1" stop-color="#E9EFFD"/>
</linearGradient>
<linearGradient id="paint2_linear_6087_15563" x1="204.692" y1="34.0375" x2="208.436" y2="34.0375" gradientUnits="userSpaceOnUse">
<stop stop-color="#DAE3FE"/>
<stop offset="1" stop-color="#E9EFFD"/>
</linearGradient>
<linearGradient id="paint3_linear_6087_15563" x1="224.74" y1="34.0375" x2="228.493" y2="34.0375" gradientUnits="userSpaceOnUse">
<stop stop-color="#DAE3FE"/>
<stop offset="1" stop-color="#E9EFFD"/>
</linearGradient>
</defs>
</svg>
