<svg width="64" height="64" viewBox="0 0 64 64" fill="none" xmlns="http://www.w3.org/2000/svg">
<path d="M62 36V28L57.515 27C56.8534 23.5966 55.5139 20.361 53.576 17.486L56.042 13.612L50.385 7.958L46.511 10.424C43.6369 8.4865 40.4024 7.14693 37 6.485L36 2H28L27 6.485C23.5966 7.14655 20.361 8.48613 17.486 10.424L13.615 7.958L7.958 13.615L10.424 17.489C8.4865 20.3631 7.14693 23.5976 6.485 27L2 28V36L6.485 37C7.14655 40.4034 8.48613 43.639 10.424 46.514L7.958 50.385L13.615 56.042L17.489 53.576C20.3631 55.5135 23.5976 56.8531 27 57.515L28 62H36L37 57.515C40.4034 56.8534 43.639 55.5139 46.514 53.576L50.388 56.042L56.045 50.385L53.579 46.511C55.5154 43.6366 56.854 40.4022 57.515 37L62 36Z" fill="#0054A6"/>
<path d="M32 35L38 41H41V38L35 32" fill="#FFDD33"/>
<path d="M30 30V25L32 23L34 25V30" fill="#ED1C24"/>
<path d="M32 51C28.2422 51 24.5687 49.8857 21.4442 47.7979C18.3196 45.7102 15.8844 42.7428 14.4463 39.271C13.0082 35.7992 12.632 31.9789 13.3651 28.2933C14.0982 24.6077 15.9078 21.2222 18.565 18.565C21.2222 15.9078 24.6077 14.0982 28.2933 13.3651C31.9789 12.632 35.7992 13.0082 39.271 14.4463C42.7428 15.8844 45.7102 18.3196 47.7979 21.4442C49.8857 24.5687 51 28.2422 51 32H54L48 38L42 32H45C45 29.4289 44.2376 26.9154 42.8091 24.7776C41.3807 22.6398 39.3503 20.9735 36.9749 19.9896C34.5995 19.0056 31.9856 18.7482 29.4638 19.2498C26.9421 19.7514 24.6257 20.9895 22.8076 22.8076C20.9895 24.6257 19.7514 26.9421 19.2498 29.4638C18.7482 31.9856 19.0056 34.5995 19.9896 36.9749C20.9735 39.3503 22.6398 41.3807 24.7776 42.8091C26.9154 44.2376 29.4289 45 32 45V51Z" fill="#F8F9FA"/>
<path d="M32 35C33.6569 35 35 33.6569 35 32C35 30.3431 33.6569 29 32 29C30.3431 29 29 30.3431 29 32C29 33.6569 30.3431 35 32 35Z" fill="#CCCCCC"/>
<path d="M29 32C29.0018 32.5493 29.1563 33.0873 29.446 33.554C29.9127 33.8437 30.4507 33.9982 31 34C31.7956 34 32.5587 33.6839 33.1213 33.1213C33.6839 32.5587 34 31.7956 34 31C33.9982 30.4507 33.8437 29.9127 33.554 29.446C33.0873 29.1563 32.5493 29.0018 32 29C31.2044 29 30.4413 29.3161 29.8787 29.8787C29.3161 30.4413 29 31.2044 29 32Z" fill="#F2F2F2"/>
</svg>
