<svg width="50" height="50" viewBox="0 0 50 50" fill="none" xmlns="http://www.w3.org/2000/svg">
<path opacity="0.999" fill-rule="evenodd" clip-rule="evenodd" d="M31.5921 0.439453C31.527 1.04078 31.4944 1.65928 31.4944 2.29492C31.4834 3.01837 31.5322 3.73451 31.6409 4.44336C31.7916 4.62679 31.9706 4.77327 32.178 4.88281C33.4797 4.93163 34.7818 4.94791 36.0842 4.93164C36.178 5.57401 36.2105 6.22506 36.1819 6.88477C36.085 7.58277 36.0525 8.29892 36.0842 9.0332C36.1324 15.4215 36.0836 21.8018 35.9378 28.1738C35.8089 28.3679 35.6299 28.4818 35.4006 28.5156C28.4019 28.5808 21.4033 28.5808 14.4046 28.5156C14.2301 28.439 14.0837 28.3251 13.9651 28.1738C13.8193 21.8018 13.7705 15.4215 13.8186 9.0332C13.8504 8.29892 13.8178 7.58277 13.721 6.88477C13.7047 4.93137 13.721 2.97824 13.7698 1.02539C13.8838 0.651042 14.1279 0.406902 14.5022 0.292969C20.1338 0.227865 25.7652 0.227865 31.3967 0.292969C31.4862 0.320158 31.5512 0.368987 31.5921 0.439453Z" fill="#F1F1F1"/>
<g clip-path="url(#clip0_14818_7397)">
<path opacity="0.966" fill-rule="evenodd" clip-rule="evenodd" d="M24.2656 6.98438C24.5052 6.98438 24.7448 6.98438 24.9844 6.98438C24.9844 7.29688 24.9844 7.60938 24.9844 7.92188C24.3855 7.93574 23.797 8.01907 23.2188 8.17188C23.1159 7.8544 23.0378 7.53148 22.9844 7.20312C23.4126 7.11268 23.8397 7.03976 24.2656 6.98438Z" fill="#65CBFF"/>
<path fill-rule="evenodd" clip-rule="evenodd" d="M24.9844 6.98438C25.2135 6.98438 25.4427 6.98438 25.6719 6.98438C27.7835 7.22505 29.5492 8.1313 30.9688 9.70312C30.9844 9.42207 30.9896 9.14082 30.9844 8.85938C31.3073 8.85938 31.6302 8.85938 31.9531 8.85938C31.9531 9.79688 31.9531 10.7344 31.9531 11.6719C31.0365 11.6719 30.1198 11.6719 29.2031 11.6719C29.2031 11.3594 29.2031 11.0469 29.2031 10.7344C29.6515 10.7448 30.0994 10.7343 30.5469 10.7031C29.1246 8.92949 27.2704 8.00241 24.9844 7.92188C24.9844 7.60938 24.9844 7.29688 24.9844 6.98438Z" fill="#59ABFF"/>
<path opacity="0.98" fill-rule="evenodd" clip-rule="evenodd" d="M16.9844 15.7031C16.9844 15.224 16.9844 14.7448 16.9844 14.2656C17.2206 12.142 18.1373 10.3763 19.7344 8.96875C19.4429 8.95313 19.1512 8.94792 18.8594 8.95312C18.8594 8.64062 18.8594 8.32812 18.8594 8.01562C19.7969 8.01562 20.7344 8.01562 21.6719 8.01562C21.6719 8.93229 21.6719 9.84896 21.6719 10.7656C21.3594 10.7656 21.0469 10.7656 20.7344 10.7656C20.7396 10.3072 20.7344 9.84884 20.7188 9.39062C18.3834 11.3236 17.5344 13.7768 18.1719 16.75C17.8521 16.843 17.5292 16.9211 17.2031 16.9844C17.1194 16.5551 17.0465 16.128 16.9844 15.7031Z" fill="#66CCFF"/>
<path opacity="0.993" fill-rule="evenodd" clip-rule="evenodd" d="M24.9844 10.7656C24.9844 11.7031 24.9844 12.6406 24.9844 13.5781C24.1494 13.6736 23.691 14.1423 23.6094 14.9844C23.691 15.8264 24.1494 16.2952 24.9844 16.3906C24.9844 17.3281 24.9844 18.2656 24.9844 19.2031C24.5156 19.2031 24.0469 19.2031 23.5781 19.2031C23.5833 18.7863 23.5781 18.3697 23.5625 17.9531C23.4178 17.876 23.2772 17.7927 23.1406 17.7031C22.7811 17.9194 22.4165 18.1277 22.0469 18.3281C21.5661 17.528 21.0973 16.7207 20.6406 15.9062C20.6487 15.8668 20.6696 15.8356 20.7031 15.8125C21.039 15.6316 21.3671 15.4389 21.6875 15.2344C21.7083 15.0677 21.7083 14.901 21.6875 14.7344C21.3671 14.5298 21.039 14.3371 20.7031 14.1562C20.6497 14.1208 20.634 14.074 20.6562 14.0156C21.1119 13.2188 21.5754 12.4272 22.0469 11.6406C22.4165 11.8411 22.7811 12.0494 23.1406 12.2656C23.2772 12.1761 23.4178 12.0927 23.5625 12.0156C23.5781 11.5991 23.5833 11.1824 23.5781 10.7656C24.0469 10.7656 24.5156 10.7656 24.9844 10.7656Z" fill="#465C8C"/>
<path fill-rule="evenodd" clip-rule="evenodd" d="M24.9844 10.7656C25.4635 10.7656 25.9427 10.7656 26.4219 10.7656C26.4167 11.1824 26.4219 11.5991 26.4375 12.0156C26.5756 12.1029 26.7162 12.1862 26.8594 12.2656C27.2189 12.0494 27.5835 11.8411 27.9531 11.6406C28.4219 12.4531 28.8906 13.2656 29.3594 14.0781C29.0323 14.3096 28.6886 14.5179 28.3281 14.7031C28.2865 14.8906 28.2865 15.0781 28.3281 15.2656C28.6744 15.4517 29.0129 15.6496 29.3438 15.8594C29.3321 15.9461 29.3008 16.0294 29.25 16.1094C28.8177 16.849 28.3854 17.5885 27.9531 18.3281C27.5835 18.1277 27.2189 17.9194 26.8594 17.7031C26.7162 17.7825 26.5756 17.8658 26.4375 17.9531C26.4219 18.3697 26.4167 18.7863 26.4219 19.2031C25.9427 19.2031 25.4635 19.2031 24.9844 19.2031C24.9844 18.2656 24.9844 17.3281 24.9844 16.3906C25.8283 16.2967 26.2971 15.8279 26.3906 14.9844C26.2962 14.1399 25.8274 13.6712 24.9844 13.5781C24.9844 12.6406 24.9844 11.7031 24.9844 10.7656Z" fill="#333B66"/>
<path opacity="0.981" fill-rule="evenodd" clip-rule="evenodd" d="M32.9844 14.2656C32.9844 14.7344 32.9844 15.2031 32.9844 15.6719C32.7565 17.7787 31.8606 19.5444 30.2969 20.9688C30.5675 20.9844 30.8383 20.9896 31.1094 20.9844C31.1094 21.3073 31.1094 21.6302 31.1094 21.9531C30.1719 21.9531 29.2344 21.9531 28.2969 21.9531C28.2969 21.0365 28.2969 20.1198 28.2969 19.2031C28.6094 19.2031 28.9219 19.2031 29.2344 19.2031C29.2292 19.6616 29.2344 20.1199 29.25 20.5781C31.5853 18.6452 32.4343 16.1921 31.7969 13.2188C32.1167 13.1258 32.4396 13.0477 32.7656 12.9844C32.8493 13.4137 32.9222 13.8408 32.9844 14.2656Z" fill="#59ABFF"/>
<path opacity="0.975" fill-rule="evenodd" clip-rule="evenodd" d="M24.9844 22.0469C24.9844 22.3594 24.9844 22.6719 24.9844 22.9844C24.7552 22.9844 24.526 22.9844 24.2969 22.9844C22.1739 22.7537 20.3979 21.8474 18.9688 20.2656C18.9531 20.5467 18.9479 20.8279 18.9531 21.1094C18.6302 21.1094 18.3073 21.1094 17.9844 21.1094C17.9844 20.1719 17.9844 19.2344 17.9844 18.2969C18.9115 18.2969 19.8385 18.2969 20.7656 18.2969C20.7656 18.6094 20.7656 18.9219 20.7656 19.2344C20.3072 19.2292 19.8488 19.2344 19.3906 19.25C20.8223 21.0283 22.6869 21.9606 24.9844 22.0469Z" fill="#65CCFF"/>
<path fill-rule="evenodd" clip-rule="evenodd" d="M25.6719 22.9844C25.4427 22.9844 25.2135 22.9844 24.9844 22.9844C24.9844 22.6719 24.9844 22.3594 24.9844 22.0469C25.5759 22.0302 26.1593 21.9469 26.7344 21.7969C26.8324 22.116 26.9157 22.4389 26.9844 22.7656C26.545 22.8528 26.1075 22.9257 25.6719 22.9844Z" fill="#59ABFF"/>
</g>
<path fill-rule="evenodd" clip-rule="evenodd" d="M31.5914 0.439453C33.0804 1.78175 34.529 3.18148 35.9371 4.63867C35.9872 4.73893 36.036 4.83658 36.0836 4.93164C34.7811 4.94791 33.479 4.93163 32.1773 4.88281C31.9699 4.77327 31.7909 4.62679 31.6402 4.44336C31.5315 3.73451 31.4827 3.01837 31.4937 2.29492C31.4937 1.65928 31.5263 1.04078 31.5914 0.439453Z" fill="#CDCDCD"/>
<path opacity="0.998" fill-rule="evenodd" clip-rule="evenodd" d="M13.721 6.88501C13.8179 7.58302 13.8504 8.29916 13.8187 9.03345C10.4005 9.01717 6.98257 9.03345 3.56476 9.08228C3.38573 9.19621 3.23924 9.3427 3.12531 9.52173C3.07648 17.1388 3.0602 24.756 3.07648 32.3733C17.6598 32.3733 32.2432 32.3733 46.8265 32.3733C46.8428 24.756 46.8265 17.1388 46.7776 9.52173C46.6578 9.30434 46.4787 9.15785 46.2405 9.08228C42.8553 9.03345 39.4698 9.01717 36.0843 9.03345C36.0526 8.29916 36.0851 7.58302 36.1819 6.88501C39.6978 6.86873 43.2134 6.88501 46.7288 6.93384C47.7341 7.18378 48.434 7.786 48.8284 8.74048C48.9741 17.3287 49.023 25.9224 48.9749 34.5217C32.9593 34.5217 16.9437 34.5217 0.92804 34.5217C0.879973 25.9224 0.928801 17.3287 1.07452 8.74048C1.46897 7.786 2.16883 7.18378 3.17413 6.93384C6.68961 6.88501 10.2052 6.86873 13.721 6.88501Z" fill="#6A676B"/>
<path fill-rule="evenodd" clip-rule="evenodd" d="M13.8186 9.03345C13.7705 15.4217 13.8193 21.802 13.9651 28.1741C14.0836 28.3253 14.2301 28.4392 14.4045 28.5159C21.4033 28.581 28.4019 28.581 35.4006 28.5159C35.6299 28.4821 35.8089 28.3681 35.9377 28.1741C36.0835 21.802 36.1324 15.4217 36.0842 9.03345C39.4698 9.01717 42.8552 9.03345 46.2405 9.08228C46.4787 9.15785 46.6578 9.30434 46.7776 9.52173C46.8264 17.1388 46.8427 24.756 46.8264 32.3733C32.2431 32.3733 17.6597 32.3733 3.07642 32.3733C3.06014 24.756 3.07642 17.1388 3.12525 9.52173C3.23918 9.3427 3.38567 9.19621 3.5647 9.08228C6.98251 9.03345 10.4004 9.01717 13.8186 9.03345Z" fill="#92D1FD"/>
<path fill-rule="evenodd" clip-rule="evenodd" d="M0.927974 34.5215C16.9436 34.5215 32.9592 34.5215 48.9748 34.5215C48.9912 35.9541 48.9748 37.3864 48.926 38.8184C48.4789 40.307 47.4861 41.1697 45.9475 41.4062C40.902 41.4551 35.8565 41.4714 30.8108 41.4551C26.872 41.4551 22.9331 41.4551 18.9944 41.4551C13.9813 41.4714 8.96824 41.4551 3.95532 41.4062C2.41678 41.1697 1.42395 40.307 0.976802 38.8184C0.927982 37.3864 0.911706 35.9541 0.927974 34.5215Z" fill="#E5E5E5"/>
<path opacity="0.993" fill-rule="evenodd" clip-rule="evenodd" d="M18.9941 41.4551C22.9329 41.4551 26.8718 41.4551 30.8105 41.4551C30.6304 43.3609 30.728 45.249 31.1035 47.1191C27.002 47.1191 22.9004 47.1191 18.7988 47.1191C19.0822 45.2383 19.1474 43.3503 18.9941 41.4551Z" fill="#646464"/>
<path opacity="0.991" fill-rule="evenodd" clip-rule="evenodd" d="M18.7993 47.1188C22.9008 47.1188 27.0024 47.1188 31.1039 47.1188C32.966 47.0737 34.8215 47.1225 36.6703 47.2653C37.4756 48.0605 37.4431 48.8092 36.5727 49.5114C32.6871 49.6242 28.7971 49.673 24.9028 49.6579C21.0397 49.6733 17.1823 49.6245 13.3305 49.5114C12.6541 49.0643 12.4751 48.4621 12.7934 47.7047C12.9558 47.4687 13.1673 47.2897 13.4282 47.1676C15.2182 47.1188 17.0086 47.1025 18.7993 47.1188Z" fill="#515151"/>
<defs>
<clipPath id="clip0_14818_7397">
<rect width="16" height="16" fill="white" transform="translate(17 7)"/>
</clipPath>
</defs>
</svg>
