<svg width="72" height="72" viewBox="0 0 72 72" fill="none" xmlns="http://www.w3.org/2000/svg">
<g id="man 1" clip-path="url(#clip0_5588_11174)">
<path id="Vector" d="M36 72C55.8823 72 72 55.8823 72 36C72 16.1177 55.8823 0 36 0C16.1177 0 0 16.1177 0 36C0 55.8823 16.1177 72 36 72Z" fill="#FF6838"/>
<path id="Vector_2" d="M19.1602 37.7391L50.4156 68.9945C62.7605 63.593 71.4904 51.4684 71.9755 37.2496L47.9949 13.2689L19.1602 37.7391Z" fill="#E86035"/>
<path id="Vector_3" d="M35.9994 45.4147C26.6993 45.4147 19.1602 37.8755 19.1602 28.5754V25.0856C19.1602 15.7855 26.6993 8.24634 35.9994 8.24634C45.2995 8.24634 52.8387 15.7855 52.8387 25.0856V28.5754C52.8387 37.8755 45.2995 45.4147 35.9994 45.4147Z" fill="#4D4D4D"/>
<path id="Vector_4" d="M35.9989 8.24634C35.9967 8.24634 35.9944 8.24648 35.9922 8.24648V45.4147C35.9944 45.4147 35.9967 45.4148 35.9988 45.4148C45.2989 45.4148 52.8381 37.8756 52.8381 28.5755V25.0858C52.8382 15.7855 45.299 8.24634 35.9989 8.24634Z" fill="#333333"/>
<path id="Vector_5" d="M22.0589 38.9447C24.3135 38.9447 26.1413 37.117 26.1413 34.8624C26.1413 32.6078 24.3135 30.78 22.0589 30.78C19.8043 30.78 17.9766 32.6078 17.9766 34.8624C17.9766 37.117 19.8043 38.9447 22.0589 38.9447Z" fill="#FFCDBE"/>
<path id="Vector_6" d="M49.9417 38.9447C52.1963 38.9447 54.0241 37.117 54.0241 34.8624C54.0241 32.6078 52.1963 30.78 49.9417 30.78C47.6871 30.78 45.8594 32.6078 45.8594 34.8624C45.8594 37.117 47.6871 38.9447 49.9417 38.9447Z" fill="#FAA68E"/>
<path id="Vector_7" d="M36.0024 72C44.4673 72 52.2486 69.077 58.3955 64.187L57.5053 56.0045C57.275 53.8875 55.6211 52.2056 53.5083 51.9398L41.2278 50.5197V43.1674H30.777V50.5197L18.4965 51.9398C16.3836 52.2056 14.7297 53.8875 14.4995 56.0045L13.6094 64.1869C19.7561 69.0768 27.5374 72 36.0024 72Z" fill="#FFCDBE"/>
<path id="Vector_8" d="M58.3919 64.187L57.5018 56.0045C57.2714 53.8875 55.6175 52.2056 53.5048 51.9398L41.2243 50.5197V43.1674H35.9922V72C35.9944 72 35.9967 72 35.9989 72C44.4637 72 52.2451 69.077 58.3919 64.187Z" fill="#FAA68E"/>
<path id="Vector_9" d="M36.0013 48.1958C28.0485 48.1958 21.6016 41.7488 21.6016 33.7961V25.5677C21.6016 17.6149 28.0485 11.168 36.0013 11.168C43.954 11.168 50.401 17.6149 50.401 25.5677V33.7961C50.401 41.7488 43.954 48.1958 36.0013 48.1958Z" fill="#FFDECF"/>
<path id="Vector_10" d="M35.9989 11.1682C35.9967 11.1682 35.9944 11.1684 35.9922 11.1684V48.196C35.9944 48.196 35.9967 48.1962 35.9988 48.1962C43.9516 48.1962 50.3985 41.7492 50.3985 33.7965V25.5681C50.3987 17.6152 43.9517 11.1682 35.9989 11.1682Z" fill="#FFBEAA"/>
<path id="Vector_11" d="M35.9988 44.2016C33.643 44.2016 31.7266 42.2851 31.7266 39.9294H33.4141C33.4141 41.3547 34.5737 42.5141 35.9988 42.5141C37.4238 42.5141 38.5834 41.3547 38.5834 39.9294H40.2709C40.2709 42.2851 38.3545 44.2016 35.9988 44.2016Z" fill="#FF9451"/>
<path id="Vector_12" d="M38.5836 39.9293C38.5836 41.3546 37.424 42.514 35.9989 42.514C35.9967 42.514 35.9944 42.5137 35.9922 42.5137V44.2014C35.9944 44.2014 35.9967 44.2015 35.9989 44.2015C38.3547 44.2015 40.2711 42.2849 40.2711 39.9293H38.5836Z" fill="#F7674F"/>
<path id="Vector_13" d="M48.8657 28.8919V38.7681C50.0463 38.7681 51.0032 37.8111 51.0032 36.6306V22.4071C51.0032 18.9152 49.1304 15.6915 46.0968 13.9621L44.3151 12.9464C43.8306 10.8966 41.8847 9.33542 39.57 9.58222L33.725 10.2055C25.747 11.0561 19.6953 17.7874 19.6953 25.8108V29.682L20.9962 29.2814V36.6306C20.9962 37.8111 21.9532 38.7681 23.1337 38.7681V35.0448C23.1337 31.4143 26.0769 28.4711 29.7074 28.4711H37.8982C40.8107 28.4711 43.1717 26.1102 43.1717 23.1977C46.3165 23.1978 48.8657 25.7472 48.8657 28.8919Z" fill="#4D4D4D"/>
<path id="Vector_14" d="M46.096 13.9621L44.3142 12.9464C43.8298 10.8966 41.8838 9.33542 39.5691 9.58222L35.9922 9.9636V28.4711H37.8972C40.8097 28.4711 43.1707 26.1102 43.1707 23.1977C46.3155 23.1977 48.8647 25.7471 48.8647 28.8917V38.768C50.0453 38.768 51.0022 37.811 51.0022 36.6305V22.4071C51.0024 18.9152 49.1295 15.6915 46.096 13.9621Z" fill="#333333"/>
<path id="Vector_15" d="M57.5055 56.0045C57.2751 53.8876 55.6212 52.2057 53.5085 51.9399L41.8619 50.593C40.7475 52.6893 38.5422 54.1172 36.0025 54.1172C33.4628 54.1172 31.2575 52.6893 30.1431 50.593L18.4965 51.9399C16.3836 52.2057 14.7297 53.8876 14.4995 56.0045L13.6094 64.187C19.7562 69.0768 27.5376 71.9999 36.0025 71.9999C44.4674 71.9999 52.2488 69.0769 58.3956 64.187L57.5055 56.0045Z" fill="#0066AA"/>
<path id="Vector_16" d="M58.3921 64.187L57.5019 56.0044C57.2716 53.8875 55.6177 52.2056 53.5049 51.9398L41.8584 50.5929C40.7439 52.6892 38.5386 54.1171 35.9989 54.1171C35.9967 54.1171 35.9944 54.117 35.9922 54.117V72C35.9944 72 35.9967 72 35.9989 72C44.4639 72 52.2452 69.0769 58.3921 64.187Z" fill="#1E2D64"/>
<path id="Vector_17" d="M29.8856 36.1988C29.2541 36.1988 28.7422 35.6868 28.7422 35.0554V33.3821C28.7422 32.7505 29.2542 32.2386 29.8856 32.2386C30.5172 32.2386 31.029 32.7505 31.029 33.3821V35.0554C31.029 35.6869 30.5172 36.1988 29.8856 36.1988Z" fill="#4D4D4D"/>
<path id="Vector_18" d="M42.1122 36.1988C41.4806 36.1988 40.9688 35.6868 40.9688 35.0554V33.3821C40.9688 32.7505 41.4808 32.2386 42.1122 32.2386C42.7437 32.2386 43.2556 32.7505 43.2556 33.3821V35.0554C43.2557 35.6869 42.7437 36.1988 42.1122 36.1988Z" fill="#333333"/>
</g>
<defs>
<clipPath id="clip0_5588_11174">
<rect width="72" height="72" fill="white"/>
</clipPath>
</defs>
</svg>
