<svg width="1600" height="446" viewBox="0 0 1600 446" fill="none" xmlns="http://www.w3.org/2000/svg">
<mask id="mask0_655_2796" style="mask-type:luminance" maskUnits="userSpaceOnUse" x="0" y="0" width="1600" height="446">
<path d="M1600 0H0V446H1600V0Z" fill="white"/>
</mask>
<g mask="url(#mask0_655_2796)">
<mask id="mask1_655_2796" style="mask-type:alpha" maskUnits="userSpaceOnUse" x="0" y="-35" width="1600" height="538">
<path d="M1600 -35H0V503H1600V-35Z" fill="black"/>
</mask>
<g mask="url(#mask1_655_2796)">
<g opacity="0.7">
<path d="M848.214 151.472C848.214 -207.307 557.087 -498.137 198 -498.137" stroke="#D2D9DC" stroke-width="2" stroke-miterlimit="10"/>
<path d="M-362.952 437.428C-258.725 641.07 -46.6697 780.489 198 780.489C301.589 780.489 399.329 755.509 485.5 711.213" stroke="#D2D9DC" stroke-width="2" stroke-miterlimit="10"/>
<path d="M22.0063 -399.059C-211.324 -324.654 -380.294 -106.315 -380.294 151.472C-380.294 214.624 -370.155 275.402 -351.409 332.277" stroke="#D2D9DC" stroke-width="2" stroke-miterlimit="10"/>
<path opacity="0.5" d="M591.719 548.192C693.903 446.971 757.19 306.608 757.19 151.472C757.19 -3.66475 694.593 -142.471 593.405 -243.565" stroke="#D2D9DC" stroke-width="2" stroke-miterlimit="10"/>
<path d="M-314.989 -17.9028C-332.586 35.3743 -342.138 92.3002 -342.138 151.472C-342.138 392.877 -183.486 597.234 35.3379 666.203" stroke="#D2D9DC" stroke-width="2" stroke-miterlimit="10"/>
<path opacity="0.5" d="M564.264 417.934C618.842 343.173 651.048 251.086 651.048 151.472C651.048 1.69368 578.234 -131.091 466.038 -213.482" stroke="#D2D9DC" stroke-width="2" stroke-miterlimit="10"/>
<path d="M-93.8157 442.71C-19.1634 517.369 84.0167 563.553 198 563.553C311.983 563.553 416.39 516.808 491.144 441.357" stroke="#D2D9DC" stroke-width="2" stroke-miterlimit="10"/>
<path d="M323.578 -225.576C284.12 -238.691 241.903 -245.785 198.026 -245.785C20.3463 -245.785 -130.133 -129.356 -181.085 31.3175" stroke="#D2D9DC" stroke-width="2" stroke-miterlimit="10"/>
<path d="M-156.746 151.472C-156.746 347.204 2.08547 505.887 198 505.887" stroke="#D2D9DC" stroke-width="2" stroke-miterlimit="10"/>
<path d="M293.697 450.875C420.604 410.432 512.521 291.681 512.521 151.472C512.521 117.28 507.055 84.3649 496.942 53.5417" stroke="#D2D9DC" stroke-width="2" stroke-miterlimit="10"/>
<path d="M198 -107.412C54.9014 -107.412 -61.1251 8.48075 -61.1251 151.472" stroke="#D2D9DC" stroke-width="2" stroke-miterlimit="10"/>
<path d="M311.396 378.155C394.528 336.564 451.609 250.678 451.609 151.472C451.609 109.983 441.623 70.8416 423.949 36.2676" stroke="#D2D9DC" stroke-width="2" stroke-miterlimit="10"/>
<path d="M432.735 193.292C435.136 179.718 436.387 165.735 436.387 151.472C436.387 31.7258 347.943 -67.3524 232.785 -84.1929" stroke="#D2D9DC" stroke-width="2" stroke-miterlimit="10"/>
<path d="M2.67293 6.38843C-27.5149 46.8821 -45.3927 97.0974 -45.3927 151.472C-45.3927 233.633 -4.60587 306.251 57.813 350.266" stroke="#D2D9DC" stroke-width="2" stroke-miterlimit="10"/>
<path d="M-21.3345 219.701C7.75518 313.115 94.9474 380.91 198 380.91C223.642 380.91 248.287 376.726 271.324 368.969" stroke="#D2D9DC" stroke-width="2" stroke-miterlimit="10"/>
<path d="M129.656 358.635C151.16 365.703 174.146 369.53 198 369.53C295.689 369.53 378.387 305.434 406.25 217.022" stroke="#D2D9DC" stroke-width="2" stroke-miterlimit="10"/>
<path d="M168.885 -55.9978C66.8797 -41.8365 -11.6547 45.6575 -11.6547 151.472C-11.6547 164.026 -10.5564 176.35 -8.43665 188.291" stroke="#D2D9DC" stroke-width="2" stroke-miterlimit="10"/>
<path d="M316.402 317.937C368.451 280.914 402.394 220.16 402.394 151.472C402.394 106.411 387.785 64.7688 363.037 30.9858" stroke="#D2D9DC" stroke-width="2" stroke-miterlimit="10"/>
<path d="M24.8157 57.6753C9.64519 85.5641 1.03833 117.51 1.03833 151.472C1.03833 228.861 45.7327 295.789 110.757 327.939" stroke="#D2D9DC" stroke-width="2" stroke-miterlimit="10"/>
<path d="M389.113 151.472C389.113 46.0146 303.555 -39.4636 198 -39.4636" stroke="#D2D9DC" stroke-width="2" stroke-miterlimit="10"/>
<path d="M30.2301 234.704C60.8777 296.274 124.497 338.579 198 338.579C230.027 338.579 260.189 330.542 286.572 316.381" stroke="#D2D9DC" stroke-width="2" stroke-miterlimit="10"/>
<path d="M125.927 304.797C147.815 315.079 172.23 320.82 198.025 320.82C270.839 320.82 332.926 274.968 356.933 210.566" stroke="#D2D9DC" stroke-width="2" stroke-miterlimit="10"/>
<path d="M149.73 -10.937C79.6237 9.83291 28.4678 74.6688 28.4678 151.472C28.4678 171.425 31.9157 190.587 38.2751 208.372" stroke="#D2D9DC" stroke-width="2" stroke-miterlimit="10"/>
<path d="M352.668 131.493C342.835 54.8941 277.352 -4.30273 198 -4.30273C189.368 -4.30273 180.914 -3.61376 172.665 -2.26142" stroke="#D2D9DC" stroke-width="2" stroke-miterlimit="10"/>
<path d="M49.3338 139.505C49.0273 143.46 48.8485 147.44 48.8485 151.472C48.8485 227.101 105.266 289.589 178.334 299.183" stroke="#D2D9DC" stroke-width="2" stroke-miterlimit="10"/>
<path d="M198 294.182C276.892 294.182 340.843 230.29 340.843 151.472" stroke="#D2D9DC" stroke-width="2" stroke-miterlimit="10"/>
<path d="M139.719 29.4038C94.1303 51.1688 62.6398 97.6587 62.6398 151.472C62.6398 175.533 68.9226 198.14 79.9557 217.711" stroke="#D2D9DC" stroke-width="2" stroke-miterlimit="10"/>
<path d="M318.879 117.23C303.964 64.5647 255.49 26.0103 198.026 26.0103C183.826 26.0103 170.162 28.3577 157.418 32.7209" stroke="#D2D9DC" stroke-width="2" stroke-miterlimit="10"/>
<path d="M109.199 240.19C131.929 262.9 163.317 276.933 198 276.933C232.683 276.933 265.603 262.211 288.461 238.506" stroke="#D2D9DC" stroke-width="2" stroke-miterlimit="10"/>
</g>
<g opacity="0.75">
<g opacity="0.7">
<path d="M1310.99 402.792C1297.2 444.559 1289.71 489.187 1289.71 535.575C1289.71 724.827 1414.04 885.034 1585.53 939.103" stroke="#D2D9DC" stroke-width="2" stroke-miterlimit="10"/>
<path d="M1890.51 192.616C1837.37 165.092 1777.01 149.529 1713 149.529C1562.25 149.529 1431.67 235.844 1368.03 361.725" stroke="#D2D9DC" stroke-width="2" stroke-miterlimit="10"/>
<path d="M1549.82 210.339C1430.75 270.13 1349.05 393.31 1349.05 535.575C1349.05 596.085 1363.82 653.135 1389.98 703.323" stroke="#D2D9DC" stroke-width="2" stroke-miterlimit="10"/>
<path d="M1811.41 239.984C1780.49 229.703 1747.41 224.142 1713.02 224.142C1573.78 224.142 1455.85 315.417 1415.92 441.378" stroke="#D2D9DC" stroke-width="2" stroke-miterlimit="10"/>
<path d="M1541.94 296.734C1467.58 350.023 1419.13 437.158 1419.13 535.574C1419.13 601.326 1440.74 662.016 1477.25 710.964" stroke="#D2D9DC" stroke-width="2" stroke-miterlimit="10"/>
<path d="M1953.1 416.354C1909.2 328.239 1818.18 267.709 1713.02 267.709C1668.87 267.709 1627.2 278.391 1590.47 297.294" stroke="#D2D9DC" stroke-width="2" stroke-miterlimit="10"/>
<path d="M1547.84 365.306C1503.37 408.413 1475.73 468.763 1475.73 535.575C1475.73 602.386 1503.67 663.396 1548.58 706.544" stroke="#D2D9DC" stroke-width="2" stroke-miterlimit="10"/>
<path d="M1713 332.62C1600.86 332.62 1509.93 423.476 1509.93 535.575" stroke="#D2D9DC" stroke-width="2" stroke-miterlimit="10"/>
<path d="M1559.93 421.835C1536.27 453.58 1522.26 492.947 1522.26 535.574C1522.26 599.985 1554.22 656.915 1603.14 691.421" stroke="#D2D9DC" stroke-width="2" stroke-miterlimit="10"/>
<path d="M1839.97 414.114C1807.97 380.708 1762.92 359.905 1713 359.905C1663.08 359.905 1618.63 380.428 1586.69 413.414" stroke="#D2D9DC" stroke-width="2" stroke-miterlimit="10"/>
<path d="M1690.18 372.927C1610.24 384.029 1548.7 452.62 1548.7 535.574C1548.7 545.416 1549.56 555.078 1551.22 564.439" stroke="#D2D9DC" stroke-width="2" stroke-miterlimit="10"/>
<path d="M1675.17 408.253C1620.23 424.536 1580.14 475.364 1580.14 535.575C1580.14 551.217 1582.84 566.24 1587.83 580.182" stroke="#D2D9DC" stroke-width="2" stroke-miterlimit="10"/>
</g>
</g>
</g>
</g>
</svg>
