<svg width="72" height="72" viewBox="0 0 72 72" fill="none" xmlns="http://www.w3.org/2000/svg">
<mask id="mask0_7626_37125" style="mask-type:luminance" maskUnits="userSpaceOnUse" x="0" y="0" width="72" height="72">
<path d="M72 0H0V72H72V0Z" fill="white"/>
</mask>
<g mask="url(#mask0_7626_37125)">
<path d="M48.9618 0H0V49.2022L22.7978 72H72V23.0383L48.9618 0Z" fill="white"/>
<path d="M48.3716 1.5082L70.5137 23.6503V70.5137H23.4098L1.5082 48.5902V1.5082H48.3716ZM48.9617 0H0V49.2022L22.7978 72H72V23.0383L48.9617 0Z" fill="#F49819"/>
<path d="M11.4863 40.5466V43.1914H10V36.0001H12.7541C13.4098 35.9564 14.0437 36.175 14.5464 36.5903C14.8962 36.9182 15.1366 37.3553 15.224 37.8143C15.3115 38.2734 15.2678 38.7761 15.071 39.2132C14.8743 39.6504 14.5464 40.022 14.1311 40.2624C13.7158 40.5029 13.235 40.6122 12.7541 40.5466H11.4863ZM11.4863 39.41H12.6011C12.7541 39.4318 12.9071 39.41 13.0382 39.3663C13.1694 39.3225 13.3005 39.2351 13.4098 39.1258C13.5847 38.8854 13.6721 38.5794 13.6721 38.2952C13.6721 37.9892 13.5847 37.7051 13.4098 37.4646C13.1913 37.2679 12.9071 37.1586 12.6011 37.1586H11.5082L11.4863 39.41ZM21.5191 43.1914L21.0383 41.5958H18.5902L18.1093 43.1914H16.5137L19.0273 36.0001H20.776L23.224 43.1914H21.5191ZM18.8743 40.4373H20.6667L19.7705 37.4428L18.8743 40.4373ZM25.3661 43.1914V36.0001H28.1202C28.776 35.9564 29.4098 36.175 29.9126 36.5903C30.3279 37.0056 30.5683 37.5958 30.5683 38.1859C30.5683 38.6012 30.4372 38.9947 30.1967 39.3225C29.9563 39.6723 29.6284 39.9346 29.235 40.1313L31.0273 43.2351H29.4317L27.8361 40.4154H26.8087V43.1695H25.3661V43.1914ZM26.8525 39.2788H27.9454C28.0765 39.3007 28.1858 39.3007 28.3169 39.257C28.4481 39.2351 28.5574 39.1695 28.6448 39.104C28.7541 39.0384 28.8197 38.9291 28.8852 38.8198C28.9508 38.7105 28.9945 38.6012 29.0164 38.4701V38.1641C29.0601 37.9236 28.9945 37.6613 28.8415 37.4646C28.6885 37.2679 28.4699 37.1367 28.2076 37.093H26.8962V39.3007L26.8525 39.2788ZM34.7213 43.1914V37.246H32.4918V36.0001H38.4372V37.246H36.2076V43.1914H34.7213ZM42.2186 38.2078V43.1914H40.8415V36.0001H42.5246L45.4535 41.0493V36.0001H46.8306V43.1914H45.1475L42.2186 38.2078ZM49.6066 43.1914V36.0001H54.3497V37.2023H51.1585V38.8854H53.7377V40.0876H51.1585V42.0111H54.3497V43.2132H49.6066V43.1914ZM57.082 43.1914V36.0001H59.8361C60.4918 35.9564 61.1257 36.175 61.6284 36.5903C62.0437 37.0056 62.2841 37.5958 62.2841 38.1859C62.2841 38.6012 62.153 38.9947 61.9344 39.3225C61.694 39.6723 61.3661 39.9346 60.9727 40.1313L62.765 43.2351H61.1694L59.5738 40.4154H58.5683V43.1695H57.082V43.1914ZM58.5902 39.2788H59.6612C59.9016 39.3225 60.1639 39.257 60.3607 39.104C60.5574 38.951 60.6885 38.7324 60.7322 38.4701V38.1641C60.776 37.9236 60.7104 37.6613 60.5574 37.4646C60.4044 37.2679 60.1858 37.1367 59.9454 37.093H58.5683L58.5902 39.2788Z" fill="#242E3D"/>
<path d="M29.2354 51H28.5352L30.1055 46.6348H30.8672L32.4346 51H31.7373L30.501 47.4287H30.4658L29.2354 51ZM29.3525 49.292H31.6172V49.8428H29.3525V49.292ZM32.7598 51V47.7246H33.3662V48.2637H33.4102C33.4785 48.082 33.5898 47.9404 33.7441 47.8389C33.9004 47.7354 34.0859 47.6836 34.3008 47.6836C34.5195 47.6836 34.7021 47.7354 34.8486 47.8389C34.9971 47.9404 35.1074 48.082 35.1797 48.2637H35.2148C35.293 48.0859 35.417 47.9453 35.5869 47.8418C35.7568 47.7363 35.959 47.6836 36.1934 47.6836C36.4902 47.6836 36.7334 47.7773 36.9229 47.9648C37.1123 48.1504 37.207 48.4307 37.207 48.8057V51H36.5684V48.8643C36.5684 48.6416 36.5078 48.4814 36.3867 48.3838C36.2656 48.2842 36.1211 48.2344 35.9531 48.2344C35.7461 48.2344 35.585 48.2988 35.4697 48.4277C35.3564 48.5547 35.2998 48.7158 35.2998 48.9111V51H34.6611V48.8232C34.6611 48.6455 34.6064 48.5029 34.4971 48.3955C34.3877 48.2881 34.2441 48.2344 34.0664 48.2344C33.9453 48.2344 33.833 48.2666 33.7295 48.3311C33.6279 48.3936 33.5459 48.4814 33.4834 48.5947C33.4229 48.7061 33.3926 48.835 33.3926 48.9814V51H32.7598ZM38.7656 51.0703C38.5586 51.0703 38.3711 51.0322 38.2031 50.9561C38.0352 50.8779 37.9023 50.7646 37.8047 50.6162C37.707 50.4678 37.6582 50.2871 37.6582 50.0742C37.6582 49.8887 37.6934 49.7373 37.7637 49.6201C37.8359 49.501 37.9326 49.4062 38.0537 49.3359C38.1748 49.2656 38.3096 49.2129 38.458 49.1777C38.6064 49.1426 38.7588 49.1152 38.915 49.0957C39.1123 49.0742 39.2715 49.0557 39.3926 49.04C39.5137 49.0244 39.6016 49 39.6562 48.9668C39.7129 48.9316 39.7412 48.876 39.7412 48.7998V48.7852C39.7412 48.5996 39.6885 48.4561 39.583 48.3545C39.4795 48.2529 39.3252 48.2021 39.1201 48.2021C38.9072 48.2021 38.7383 48.249 38.6133 48.3428C38.4902 48.4346 38.4053 48.5391 38.3584 48.6562L37.7578 48.5186C37.8301 48.3193 37.9346 48.1592 38.0713 48.0381C38.21 47.915 38.3682 47.8252 38.5459 47.7686C38.7256 47.7119 38.9131 47.6836 39.1084 47.6836C39.2393 47.6836 39.3779 47.6992 39.5244 47.7305C39.6709 47.7598 39.8086 47.8154 39.9375 47.8975C40.0684 47.9775 40.1748 48.0928 40.2568 48.2432C40.3389 48.3936 40.3799 48.5879 40.3799 48.8262V51H39.7559V50.5518H39.7324C39.6934 50.6318 39.6318 50.7119 39.5479 50.792C39.4658 50.8721 39.3604 50.9385 39.2314 50.9912C39.1025 51.0439 38.9473 51.0703 38.7656 51.0703ZM38.9033 50.5605C39.0811 50.5605 39.2324 50.5264 39.3574 50.458C39.4824 50.3877 39.5781 50.2959 39.6445 50.1826C39.7109 50.0693 39.7441 49.9492 39.7441 49.8223V49.3975C39.7207 49.4189 39.6768 49.4395 39.6123 49.459C39.5479 49.4785 39.4746 49.4951 39.3926 49.5088C39.3105 49.5225 39.2305 49.5352 39.1523 49.5469C39.0742 49.5566 39.0088 49.5645 38.9561 49.5703C38.833 49.5879 38.7207 49.6152 38.6191 49.6523C38.5176 49.6875 38.4355 49.7402 38.373 49.8105C38.3125 49.8789 38.2822 49.9697 38.2822 50.083C38.2822 50.2412 38.3408 50.3604 38.458 50.4404C38.5752 50.5205 38.7236 50.5605 38.9033 50.5605ZM40.9219 51V50.5664L42.6943 48.3105V48.2783H40.9805V47.7246H43.4883V48.1934L41.7832 50.4141V50.4463H43.5469V51H40.9219ZM45.3311 51.0674C45.0244 51.0674 44.7559 50.9971 44.5254 50.8564C44.2969 50.7158 44.1191 50.5186 43.9922 50.2646C43.8672 50.0107 43.8047 49.7158 43.8047 49.3799C43.8047 49.04 43.8672 48.7432 43.9922 48.4893C44.1191 48.2334 44.2969 48.0352 44.5254 47.8945C44.7559 47.7539 45.0244 47.6836 45.3311 47.6836C45.6396 47.6836 45.9082 47.7539 46.1367 47.8945C46.3652 48.0352 46.543 48.2334 46.6699 48.4893C46.7969 48.7432 46.8604 49.04 46.8604 49.3799C46.8604 49.7158 46.7969 50.0107 46.6699 50.2646C46.543 50.5186 46.3652 50.7158 46.1367 50.8564C45.9082 50.9971 45.6396 51.0674 45.3311 51.0674ZM45.3311 50.5312C45.5322 50.5312 45.6982 50.4785 45.8291 50.373C45.96 50.2676 46.0566 50.1279 46.1191 49.9541C46.1836 49.7783 46.2158 49.5869 46.2158 49.3799C46.2158 49.1689 46.1836 48.9756 46.1191 48.7998C46.0566 48.624 45.96 48.4834 45.8291 48.3779C45.6982 48.2725 45.5322 48.2197 45.3311 48.2197C45.1318 48.2197 44.9668 48.2725 44.8359 48.3779C44.707 48.4834 44.6104 48.624 44.5459 48.7998C44.4814 48.9756 44.4492 49.1689 44.4492 49.3799C44.4492 49.5869 44.4814 49.7783 44.5459 49.9541C44.6104 50.1279 44.707 50.2676 44.8359 50.373C44.9668 50.4785 45.1318 50.5312 45.3311 50.5312ZM47.9531 49.0576V51H47.3203V47.7246H47.9355V48.2637H47.9795C48.0537 48.0859 48.1699 47.9453 48.3281 47.8418C48.4863 47.7363 48.6895 47.6836 48.9375 47.6836C49.1602 47.6836 49.3545 47.7305 49.5205 47.8242C49.6885 47.916 49.8184 48.0537 49.9102 48.2373C50.0039 48.4209 50.0508 48.6484 50.0508 48.9199V51H49.418V48.9961C49.418 48.7598 49.3555 48.5742 49.2305 48.4395C49.1055 48.3027 48.9355 48.2344 48.7207 48.2344C48.5742 48.2344 48.4424 48.2676 48.3252 48.334C48.21 48.3984 48.1191 48.4912 48.0527 48.6123C47.9863 48.7334 47.9531 48.8818 47.9531 49.0576ZM52.043 51V46.6348H53.6016C53.9395 46.6348 54.2197 46.6934 54.4424 46.8105C54.665 46.9258 54.832 47.0869 54.9434 47.2939C55.0547 47.499 55.1104 47.7363 55.1104 48.0059C55.1104 48.2715 55.0547 48.5059 54.9434 48.709C54.832 48.9121 54.6641 49.0693 54.4395 49.1807C54.2168 49.292 53.9355 49.3477 53.5957 49.3477H52.4209V48.7852H53.5342C53.751 48.7852 53.9258 48.7539 54.0586 48.6914C54.1934 48.6289 54.291 48.54 54.3516 48.4248C54.4141 48.3096 54.4453 48.1699 54.4453 48.0059C54.4453 47.8398 54.4141 47.6973 54.3516 47.5781C54.2891 47.457 54.1904 47.3643 54.0557 47.2998C53.9229 47.2334 53.748 47.2002 53.5312 47.2002H52.7021V51H52.043ZM54.5273 51L53.4697 49.0283H54.1992L55.2773 51H54.5273ZM57.0791 51H56.001V50.4229H57.041C57.373 50.4229 57.6494 50.3613 57.8701 50.2383C58.0908 50.1133 58.2559 49.9307 58.3652 49.6904C58.4746 49.4482 58.5293 49.1553 58.5293 48.8115C58.5293 48.4697 58.4746 48.1797 58.3652 47.9414C58.2578 47.7031 58.0967 47.5225 57.8818 47.3994C57.667 47.2744 57.4004 47.2119 57.082 47.2119H55.9775V46.6348H57.123C57.5508 46.6348 57.918 46.7217 58.2246 46.8955C58.5312 47.0693 58.7666 47.3193 58.9307 47.6455C59.0947 47.9697 59.1768 48.3584 59.1768 48.8115C59.1768 49.2666 59.0938 49.6572 58.9277 49.9834C58.7637 50.3096 58.5254 50.5605 58.2129 50.7363C57.9004 50.9121 57.5225 51 57.0791 51ZM56.3232 46.6348V51H55.6641V46.6348H56.3232ZM61.2041 51.0703C60.8779 51.0703 60.5947 51.0195 60.3545 50.918C60.1162 50.8145 59.9297 50.667 59.7949 50.4756C59.6602 50.2842 59.585 50.0566 59.5693 49.793H60.2314C60.2451 49.9512 60.2959 50.083 60.3838 50.1885C60.4736 50.292 60.5898 50.3691 60.7324 50.4199C60.875 50.4707 61.0312 50.4961 61.2012 50.4961C61.3867 50.4961 61.5527 50.4668 61.6992 50.4082C61.8457 50.3496 61.96 50.2676 62.042 50.1621C62.126 50.0547 62.168 49.9297 62.168 49.7871C62.168 49.6582 62.1309 49.5527 62.0566 49.4707C61.9844 49.3887 61.8857 49.3213 61.7607 49.2686C61.6357 49.2139 61.4951 49.166 61.3389 49.125L60.8262 48.9844C60.4746 48.8906 60.1973 48.751 59.9941 48.5654C59.791 48.3779 59.6895 48.1328 59.6895 47.8301C59.6895 47.5781 59.7568 47.3584 59.8916 47.1709C60.0283 46.9834 60.2129 46.8379 60.4453 46.7344C60.6797 46.6289 60.9424 46.5762 61.2334 46.5762C61.5303 46.5762 61.791 46.6289 62.0156 46.7344C62.2422 46.8379 62.4209 46.9805 62.5518 47.1621C62.6846 47.3418 62.7539 47.5479 62.7598 47.7803H62.1211C62.0977 47.5791 62.0039 47.4229 61.8398 47.3115C61.6777 47.2002 61.4707 47.1445 61.2188 47.1445C61.043 47.1445 60.8887 47.1729 60.7559 47.2295C60.625 47.2842 60.5234 47.3604 60.4512 47.458C60.3809 47.5557 60.3457 47.668 60.3457 47.7949C60.3457 47.9316 60.3877 48.043 60.4717 48.1289C60.5576 48.2148 60.6611 48.2832 60.7822 48.334C60.9053 48.3828 61.0234 48.4229 61.1367 48.4541L61.5615 48.5684C61.7002 48.6035 61.8428 48.6504 61.9893 48.709C62.1357 48.7676 62.2715 48.8447 62.3965 48.9404C62.5234 49.0342 62.625 49.1514 62.7012 49.292C62.7793 49.4307 62.8184 49.5986 62.8184 49.7959C62.8184 50.04 62.7549 50.2588 62.6279 50.4521C62.501 50.6436 62.3174 50.7949 62.0771 50.9062C61.8369 51.0156 61.5459 51.0703 61.2041 51.0703ZM43.3506 58H42.2725V57.4229H43.3125C43.6445 57.4229 43.9209 57.3613 44.1416 57.2383C44.3623 57.1133 44.5273 56.9307 44.6367 56.6904C44.7461 56.4482 44.8008 56.1553 44.8008 55.8115C44.8008 55.4697 44.7461 55.1797 44.6367 54.9414C44.5293 54.7031 44.3682 54.5225 44.1533 54.3994C43.9385 54.2744 43.6719 54.2119 43.3535 54.2119H42.249V53.6348H43.3945C43.8223 53.6348 44.1895 53.7217 44.4961 53.8955C44.8027 54.0693 45.0381 54.3193 45.2021 54.6455C45.3662 54.9697 45.4482 55.3584 45.4482 55.8115C45.4482 56.2666 45.3652 56.6572 45.1992 56.9834C45.0352 57.3096 44.7969 57.5605 44.4844 57.7363C44.1719 57.9121 43.7939 58 43.3506 58ZM42.5947 53.6348V58H41.9355V53.6348H42.5947ZM47.376 58.0674C47.0557 58.0674 46.7783 57.998 46.5439 57.8594C46.3096 57.7207 46.1289 57.5254 46.002 57.2734C45.877 57.0195 45.8145 56.7236 45.8145 56.3857C45.8145 56.0498 45.876 55.7539 45.999 55.498C46.124 55.2422 46.2988 55.043 46.5234 54.9004C46.75 54.7559 47.0156 54.6836 47.3203 54.6836C47.5059 54.6836 47.6855 54.7139 47.8594 54.7744C48.0332 54.835 48.1895 54.9307 48.3281 55.0615C48.4668 55.1924 48.5762 55.3623 48.6562 55.5713C48.7383 55.7803 48.7793 56.0322 48.7793 56.3271V56.5557H46.1748V56.0781H48.4512L48.1553 56.2363C48.1553 56.0352 48.124 55.8574 48.0615 55.7031C47.999 55.5488 47.9053 55.4287 47.7803 55.3428C47.6572 55.2549 47.5039 55.2109 47.3203 55.2109C47.1367 55.2109 46.9795 55.2549 46.8486 55.3428C46.7197 55.4307 46.6211 55.5469 46.5527 55.6914C46.4844 55.8359 46.4502 55.9941 46.4502 56.166V56.4912C46.4502 56.7158 46.4893 56.9062 46.5674 57.0625C46.6455 57.2188 46.7539 57.3379 46.8926 57.4199C47.0332 57.502 47.1963 57.543 47.3818 57.543C47.5029 57.543 47.6123 57.5254 47.71 57.4902C47.8096 57.4551 47.8955 57.4023 47.9678 57.332C48.04 57.2617 48.0947 57.1748 48.1318 57.0713L48.7354 57.1855C48.6865 57.3613 48.6006 57.5156 48.4775 57.6484C48.3545 57.7812 48.1992 57.8848 48.0117 57.959C47.8262 58.0312 47.6143 58.0674 47.376 58.0674ZM49.8574 53.6348V58H49.2246V53.6348H49.8574ZM50.4668 58V54.7246H51.0996V58H50.4668ZM50.7861 54.2207C50.6748 54.2207 50.5801 54.1836 50.502 54.1094C50.4238 54.0352 50.3848 53.9463 50.3848 53.8428C50.3848 53.7373 50.4238 53.6475 50.502 53.5732C50.5801 53.499 50.6748 53.4619 50.7861 53.4619C50.8955 53.4619 50.9893 53.499 51.0674 53.5732C51.1475 53.6475 51.1875 53.7373 51.1875 53.8428C51.1875 53.9463 51.1475 54.0352 51.0674 54.1094C50.9893 54.1836 50.8955 54.2207 50.7861 54.2207ZM54.5039 54.7246L53.3203 58H52.6348L51.4482 54.7246H52.1309L52.9629 57.25H52.998L53.8242 54.7246H54.5039ZM56.1533 58.0674C55.833 58.0674 55.5557 57.998 55.3213 57.8594C55.0869 57.7207 54.9062 57.5254 54.7793 57.2734C54.6543 57.0195 54.5918 56.7236 54.5918 56.3857C54.5918 56.0498 54.6533 55.7539 54.7764 55.498C54.9014 55.2422 55.0762 55.043 55.3008 54.9004C55.5273 54.7559 55.793 54.6836 56.0977 54.6836C56.2832 54.6836 56.4629 54.7139 56.6367 54.7744C56.8105 54.835 56.9668 54.9307 57.1055 55.0615C57.2441 55.1924 57.3535 55.3623 57.4336 55.5713C57.5156 55.7803 57.5566 56.0322 57.5566 56.3271V56.5557H54.9521V56.0781H57.2285L56.9326 56.2363C56.9326 56.0352 56.9014 55.8574 56.8389 55.7031C56.7764 55.5488 56.6826 55.4287 56.5576 55.3428C56.4346 55.2549 56.2812 55.2109 56.0977 55.2109C55.9141 55.2109 55.7568 55.2549 55.626 55.3428C55.4971 55.4307 55.3984 55.5469 55.3301 55.6914C55.2617 55.8359 55.2275 55.9941 55.2275 56.166V56.4912C55.2275 56.7158 55.2666 56.9062 55.3447 57.0625C55.4229 57.2188 55.5312 57.3379 55.6699 57.4199C55.8105 57.502 55.9736 57.543 56.1592 57.543C56.2803 57.543 56.3896 57.5254 56.4873 57.4902C56.5869 57.4551 56.6729 57.4023 56.7451 57.332C56.8174 57.2617 56.8721 57.1748 56.9092 57.0713L57.5127 57.1855C57.4639 57.3613 57.3779 57.5156 57.2549 57.6484C57.1318 57.7812 56.9766 57.8848 56.7891 57.959C56.6035 58.0312 56.3916 58.0674 56.1533 58.0674ZM58.002 58V54.7246H58.6143V55.249H58.6494C58.71 55.0732 58.8154 54.9346 58.9658 54.833C59.1182 54.7295 59.29 54.6777 59.4814 54.6777C59.5205 54.6777 59.5664 54.6797 59.6191 54.6836C59.6738 54.6855 59.7178 54.6885 59.751 54.6924V55.3018C59.7256 55.2939 59.6797 55.2861 59.6133 55.2783C59.5488 55.2705 59.4834 55.2666 59.417 55.2666C59.2666 55.2666 59.1318 55.2988 59.0127 55.3633C58.8955 55.4258 58.8027 55.5127 58.7344 55.624C58.668 55.7334 58.6348 55.8604 58.6348 56.0049V58H58.002ZM60.5566 59.2246C60.4609 59.2266 60.374 59.2197 60.2959 59.2041C60.2197 59.1904 60.1611 59.1738 60.1201 59.1543L60.2754 58.6357L60.3193 58.6475C60.4814 58.6885 60.6182 58.6855 60.7295 58.6387C60.8428 58.5938 60.9375 58.4678 61.0137 58.2607L61.0928 58.0439L59.8975 54.7246H60.5801L61.4062 57.2676H61.4414L62.2705 54.7246H62.9531L61.6055 58.4336C61.543 58.6055 61.4639 58.75 61.3682 58.8672C61.2725 58.9863 61.1572 59.0752 61.0225 59.1338C60.8896 59.1943 60.7344 59.2246 60.5566 59.2246Z" fill="#242E3D"/>
<path d="M15.9985 16.4808C15.9767 16.7213 16.0204 16.9835 16.1297 17.2021C16.1952 17.377 16.3045 17.6174 16.3701 17.7923C16.392 17.8142 16.4138 17.8579 16.4138 17.8797C16.4138 17.9016 16.4357 17.9453 16.4138 17.9672C16.4138 18.0764 16.3483 18.142 16.239 18.2076L15.6925 18.5573H15.5177C15.4739 18.5573 15.4302 18.5573 15.3865 18.5355C15.3428 18.5136 15.2991 18.4917 15.2772 18.448C15.1679 18.3387 15.0586 18.2295 14.9712 18.0983C14.8838 17.9453 14.7963 17.7923 14.7308 17.6174C14.4466 17.9672 14.075 18.2732 13.6597 18.4699C13.2444 18.6666 12.7854 18.7759 12.3264 18.7759C12.0422 18.7978 11.7362 18.754 11.4521 18.6448C11.1679 18.5355 10.9275 18.3825 10.7089 18.1639C10.5122 17.9453 10.3373 17.7049 10.2499 17.4207C10.1406 17.1366 10.0969 16.8524 10.1187 16.5682C10.1187 16.2622 10.1625 15.9344 10.2936 15.6502C10.4248 15.3661 10.5996 15.1038 10.8401 14.8852C11.4084 14.448 12.1078 14.2295 12.8291 14.2295C13.0914 14.2295 13.3756 14.2513 13.6379 14.295L14.534 14.4699V13.8797C14.5559 13.6393 14.5559 13.3988 14.4903 13.1803C14.4248 12.9617 14.3155 12.7431 14.1625 12.5682C13.9876 12.4152 13.769 12.306 13.5286 12.2622C13.31 12.1967 13.0696 12.1748 12.8291 12.2185C12.5231 12.2404 12.2171 12.2622 11.933 12.3278C11.6269 12.3934 11.3209 12.5027 11.0368 12.6338C10.9275 12.6994 10.8619 12.6994 10.7308 12.765H10.6215C10.5122 12.765 10.4466 12.6994 10.4466 12.5245V12.0874C10.4466 11.9781 10.4685 11.8688 10.5122 11.7814C10.5778 11.7158 10.6652 11.6502 10.7526 11.6065C11.0586 11.4316 11.4084 11.3005 11.7581 11.2568C12.1734 11.1475 12.5887 11.0819 13.0259 11.0819C13.7909 11.0163 14.534 11.2568 15.1242 11.7376C15.3646 11.9999 15.5395 12.3278 15.6488 12.6557C15.7581 13.0054 15.8018 13.3551 15.7799 13.7049L15.9985 16.4808ZM12.7198 17.683C12.9821 17.6611 13.2663 17.6393 13.5286 17.5737C13.8346 17.4426 14.0969 17.2677 14.3373 17.0273C14.4903 16.8743 14.5778 16.6775 14.6433 16.4808C14.6871 16.2404 14.7089 15.9999 14.7089 15.7595V15.3879C14.2062 15.2786 13.7034 15.2131 13.2007 15.2131C12.7854 15.1693 12.3483 15.2786 11.9985 15.5191C11.7581 15.7595 11.6269 16.0655 11.6051 16.3934C11.5832 16.7213 11.6925 17.0491 11.8892 17.3114C11.9767 17.4426 12.1078 17.5519 12.2608 17.6174C12.4138 17.683 12.5668 17.7049 12.7417 17.6611H12.7198V17.683ZM19.2554 18.601C19.1461 18.601 19.0149 18.601 18.9493 18.5355C18.8838 18.448 18.8182 18.3387 18.7745 18.2295L16.851 11.9344C16.8073 11.8469 16.7854 11.7376 16.7854 11.6284C16.7854 11.5191 16.851 11.4535 16.8947 11.4535H17.7034C17.8127 11.4535 17.9439 11.4535 18.0095 11.5191C18.0969 11.6065 18.1406 11.7158 18.1843 11.8251L19.5614 17.1584L20.8291 11.8251C20.8291 11.7595 20.851 11.7158 20.8728 11.6502C20.8947 11.6065 20.9384 11.5628 21.004 11.5191C21.0914 11.4754 21.2007 11.4535 21.31 11.4535H21.9657C22.075 11.4316 22.1843 11.4535 22.2718 11.5191C22.3373 11.6065 22.4029 11.7158 22.4466 11.8251L23.7144 17.2896L25.0914 11.8251C25.0914 11.7595 25.1133 11.6939 25.1351 11.6502C25.157 11.6065 25.2007 11.5628 25.2663 11.5191C25.3537 11.4754 25.463 11.4535 25.5723 11.4535H26.381C26.4903 11.4535 26.5559 11.5191 26.5559 11.5846V11.7595C26.5559 11.8251 26.4903 11.8688 26.4903 11.9344L24.5668 18.1639C24.5668 18.2295 24.545 18.295 24.5231 18.3387C24.5013 18.3825 24.4357 18.4262 24.392 18.4699C24.3264 18.5792 24.2171 18.5792 24.086 18.5792H23.3646C23.2554 18.5792 23.1242 18.5792 23.0586 18.5136C22.9931 18.448 22.9493 18.3387 22.8838 18.2076L21.616 12.9835L20.3701 18.2076C20.3701 18.2732 20.3483 18.3387 20.3264 18.3825C20.3045 18.4262 20.239 18.4699 20.1952 18.5136C20.1297 18.5573 20.0422 18.5792 19.9548 18.5792H19.2554V18.601ZM29.6379 18.8415C29.2226 18.8415 28.8073 18.7978 28.392 18.7322C28.0641 18.6666 27.7362 18.5573 27.4302 18.4262C27.3428 18.3825 27.2554 18.3169 27.2116 18.2513C27.1679 18.1639 27.1242 18.0546 27.1461 17.9672V17.5519C27.1461 17.377 27.2116 17.3114 27.3209 17.3114H27.4302C27.4958 17.3114 27.5395 17.377 27.6051 17.377C27.8892 17.5081 28.1952 17.5956 28.5013 17.683C28.8073 17.7486 29.1351 17.7923 29.463 17.7923C29.8783 17.8142 30.2936 17.7049 30.6652 17.4863C30.7963 17.3988 30.9056 17.2677 30.9712 17.1366C31.0368 17.0054 31.0805 16.8524 31.0805 16.6775C31.1024 16.5682 31.0805 16.459 31.0368 16.3715C30.9931 16.2841 30.9275 16.1967 30.8401 16.1311C30.5996 15.9344 30.3373 15.7814 30.0313 15.7158L28.8291 15.3661C28.3264 15.2349 27.8674 14.9508 27.5177 14.5573C27.2554 14.2076 27.1024 13.7923 27.1024 13.3551C27.1024 13.0273 27.1898 12.7213 27.3428 12.459C27.6707 11.9344 28.1953 11.5628 28.7854 11.3879C29.1133 11.2786 29.463 11.2349 29.7909 11.2568C29.9657 11.2568 30.1625 11.2786 30.3373 11.3223C30.5122 11.3442 30.7089 11.3661 30.8838 11.4316C31.0586 11.4972 31.1898 11.4972 31.3646 11.5409C31.5395 11.6065 31.6051 11.6065 31.7144 11.6502C31.8018 11.6939 31.8892 11.7595 31.9548 11.8251C31.9985 11.9125 32.0204 12.0218 32.0204 12.1311V12.4808C32.0204 12.6557 31.9548 12.7213 31.8455 12.7213C31.7362 12.7213 31.6269 12.6775 31.5395 12.612C31.0368 12.3934 30.4903 12.2841 29.9439 12.306C29.5723 12.306 29.2007 12.3715 28.8728 12.5464C28.7417 12.612 28.6324 12.7213 28.5668 12.8524C28.5013 12.9835 28.4794 13.1366 28.5013 13.2677C28.5013 13.377 28.5013 13.4863 28.545 13.5956C28.5887 13.7049 28.6543 13.7923 28.7417 13.8579C28.9821 14.0983 29.31 14.2295 29.6379 14.2732L30.7745 14.6229C31.2554 14.7759 31.6925 15.0382 32.0204 15.4316C32.2608 15.7595 32.392 16.1748 32.3701 16.5682C32.3701 16.8961 32.3045 17.2458 32.1297 17.53C31.9985 17.8141 31.78 18.0764 31.5395 18.2513C31.2554 18.448 30.9493 18.601 30.6433 18.7322C30.3155 18.8196 29.9657 18.8415 29.616 18.8415H29.6379Z" fill="#242E3D"/>
<path d="M31.2137 22.7323C28.2847 24.6995 24.8311 25.7487 21.312 25.7268C16.853 25.7268 12.5689 24.0875 9.24645 21.0929C9.00601 20.8525 9.24645 20.5465 9.55246 20.7432C13.2027 22.8853 17.3776 24 21.618 23.9782C24.7874 23.9563 27.935 23.3443 30.8639 22.1203C31.2574 21.9454 31.6508 22.4263 31.2137 22.7323ZM31.629 24.5465C31.5197 24.7869 31.7601 24.8962 32.0005 24.7213C33.4432 23.5192 33.7929 21.0055 33.4869 20.6339C33.1809 20.2842 30.6672 19.9782 29.159 21.0492C28.9186 21.2241 28.9842 21.4645 29.2246 21.3989C30.0333 21.2897 32.0005 21.0492 32.3503 21.5301C32.7 22.0328 31.935 23.7596 31.629 24.5465Z" fill="#F49819"/>
</g>
</svg>
