<svg width="58" height="65" viewBox="0 0 58 65" fill="none" xmlns="http://www.w3.org/2000/svg">
<g clip-path="url(#clip0_5122_12445)">
<path d="M37.4414 64.8878H38.2362L51.2094 58.4476L51.4253 58.1446V6.73931L51.2094 6.43478L38.2362 0H37.4316L37.4414 64.8878Z" fill="#5294CF"/>
<path d="M20.559 64.8878H19.7531L6.79102 58.4476L6.52798 57.9984L6.39453 7.00111L6.79102 6.43478L19.7531 0H20.569L20.559 64.8878Z" fill="#1F5B98"/>
<path d="M19.7754 0H38.2235V64.8878H19.7754V0Z" fill="#2D72B8"/>
<path d="M58 30.9859L57.5616 30.8894L51.3021 30.31L51.2092 30.3559L38.2245 29.8404H19.7755L6.79053 30.3559V20.5263L6.77694 20.5335L6.79053 20.5047L19.7755 17.5179H38.2245L51.2092 20.5047L55.9827 23.0235V21.4041L58 21.1851L57.7911 20.7807L51.4039 16.2466L51.2092 16.3094L38.2245 12.3152H19.7755L6.79053 16.3094V6.43457L0 14.332V21.2292L0.0525625 21.1914L2.01731 21.4041V23.0568L0 24.1285V30.9913L0.0525625 30.9859L2.01731 31.0147V33.8952L0.322172 33.9203L0 33.8898V40.7552L2.01731 41.8321V43.5039L0.0845078 43.7158L0 43.6528V50.5489L6.79053 58.4474V48.5735L19.7755 52.5677H38.2245L51.2475 48.5618L51.4206 48.6371L57.7238 44.1699L58 43.7248L55.9827 43.5039V41.8656L55.7183 41.7608L51.4039 44.0696L51.2475 44.3934L38.2245 47.363V47.3666H19.7755V47.363L6.79053 44.3808V34.5152L19.7755 35.0289V35.0415H38.2245L51.2092 34.5152L51.5049 34.6502L57.572 34.1315L58 33.9239L55.9827 33.8952V31.0147L58 30.9859Z" fill="#1A476F"/>
<path d="M51.209 48.5739V58.4478L57.9997 50.5493V43.6982L51.2482 48.5622L51.209 48.5739Z" fill="#2D72B8"/>
<path d="M51.209 44.4028L51.2482 44.3938L57.9997 40.7889V33.8955L51.209 34.5156V44.4028Z" fill="#2D72B8"/>
<path d="M51.2482 20.5139L51.209 20.5049V30.3561L57.9997 30.9861V24.0961L51.2482 20.5139Z" fill="#2D72B8"/>
<path d="M51.2482 16.3481L57.9997 21.1851V14.3338L51.209 6.43457V16.3094L51.2482 16.3229V16.3481Z" fill="#2D72B8"/>
</g>
<defs>
<clipPath id="clip0_5122_12445">
<rect width="58" height="65" fill="white"/>
</clipPath>
</defs>
</svg>
