<svg width="100" height="60" viewBox="0 0 100 60" fill="none" xmlns="http://www.w3.org/2000/svg">
<path d="M28.181 21.7909C28.181 23.0256 28.314 24.0267 28.5468 24.7608C28.8129 25.495 29.1455 26.2959 29.6111 27.1635C29.7774 27.4305 29.8439 27.6974 29.8439 27.931C29.8439 28.2647 29.6444 28.5984 29.212 28.9321L27.1167 30.3337C26.8174 30.5339 26.518 30.634 26.252 30.634C25.9194 30.634 25.5868 30.4672 25.2542 30.1669C24.7886 29.6663 24.3895 29.1324 24.0569 28.5984C23.7243 28.0311 23.3917 27.3971 23.0258 26.6296C20.4317 29.6997 17.1723 31.2347 13.2477 31.2347C10.454 31.2347 8.22562 30.4338 6.59593 28.832C4.96624 27.2303 4.13477 25.0945 4.13477 22.4249C4.13477 19.5884 5.13253 17.2859 7.16133 15.5506C9.19013 13.8153 11.8841 12.9477 15.3098 12.9477C16.4406 12.9477 17.6046 13.0478 18.8352 13.2147C20.0658 13.3815 21.3296 13.6485 22.66 13.9488V11.5128C22.66 8.97664 22.1279 7.20801 21.0968 6.17353C20.0325 5.13904 18.2366 4.63849 15.6756 4.63849C14.5116 4.63849 13.3142 4.77197 12.0837 5.0723C10.8531 5.37264 9.65575 5.73971 8.49169 6.2069C7.95954 6.44049 7.56044 6.57397 7.32762 6.64071C7.09481 6.70745 6.92852 6.74082 6.79548 6.74082C6.32986 6.74082 6.09704 6.40712 6.09704 5.70634V4.07119C6.09704 3.53726 6.16356 3.13682 6.32986 2.90323C6.49615 2.66963 6.79548 2.43604 7.26111 2.20245C8.42517 1.60178 9.82205 1.10122 11.4517 0.700779C13.0814 0.266963 14.8109 0.0667408 16.6401 0.0667408C20.5979 0.0667408 23.4915 0.967742 25.354 2.76974C27.1832 4.57175 28.1145 7.30812 28.1145 10.9789V21.7909H28.181ZM14.6779 26.8632C15.7754 26.8632 16.9062 26.663 18.1035 26.2625C19.3008 25.8621 20.3651 25.1279 21.2631 24.1268C21.7953 23.4928 22.1944 22.792 22.3939 21.9911C22.5935 21.1902 22.7265 20.2225 22.7265 19.0879V17.6863C21.762 17.4527 20.731 17.2525 19.6667 17.119C18.6024 16.9855 17.5714 16.9188 16.5404 16.9188C14.312 16.9188 12.6823 17.3526 11.5848 18.2536C10.4872 19.1546 9.95508 20.4227 9.95508 22.0912C9.95508 23.6596 10.3542 24.8276 11.1857 25.6285C11.9839 26.4627 13.1479 26.8632 14.6779 26.8632ZM41.3848 30.4672C40.7861 30.4672 40.387 30.3671 40.1209 30.1335C39.8549 29.9333 39.6221 29.4661 39.4225 28.832L31.6067 3.03671C31.4071 2.3693 31.3073 1.93548 31.3073 1.70189C31.3073 1.16796 31.5734 0.867631 32.1055 0.867631H35.3649C35.9968 0.867631 36.4292 0.967742 36.662 1.20133C36.9281 1.40156 37.1276 1.86874 37.3272 2.50278L42.9147 24.594L48.1031 2.50278C48.2694 1.83537 48.4689 1.40156 48.735 1.20133C49.0011 1.00111 49.4667 0.867631 50.0654 0.867631H52.7261C53.358 0.867631 53.7904 0.967742 54.0564 1.20133C54.3225 1.40156 54.5553 1.86874 54.6884 2.50278L59.9433 24.861L65.6971 2.50278C65.8966 1.83537 66.1294 1.40156 66.3623 1.20133C66.6283 1.00111 67.0607 0.867631 67.6594 0.867631H70.7524C71.2846 0.867631 71.5839 1.13459 71.5839 1.70189C71.5839 1.86874 71.5507 2.03559 71.5174 2.23582C71.4841 2.43604 71.4176 2.703 71.2846 3.07008L63.2692 28.8654C63.0696 29.5328 62.8368 29.9666 62.5707 30.1669C62.3047 30.3671 61.8723 30.5006 61.3069 30.5006H58.4466C57.8147 30.5006 57.3823 30.4004 57.1163 30.1669C56.8502 29.9333 56.6174 29.4994 56.4843 28.832L51.3292 7.30812L46.2073 28.7987C46.041 29.4661 45.8415 29.8999 45.5754 30.1335C45.3093 30.3671 44.8437 30.4672 44.2451 30.4672H41.3848ZM84.1225 31.3682C82.3931 31.3682 80.6636 31.168 79.0007 30.7675C77.3377 30.3671 76.0406 29.9333 75.1759 29.4327C74.6437 29.1324 74.2779 28.7987 74.1449 28.4983C74.0118 28.198 73.9453 27.8643 73.9453 27.564V25.8621C73.9453 25.1613 74.2114 24.8276 74.7103 24.8276C74.9098 24.8276 75.1094 24.861 75.3089 24.9277C75.5085 24.9944 75.8078 25.1279 76.1404 25.2614C77.2712 25.762 78.5018 26.1624 79.7989 26.4294C81.1292 26.6963 82.4263 26.8298 83.7567 26.8298C85.852 26.8298 87.4817 26.4627 88.6125 25.7286C89.7433 24.9944 90.342 23.9266 90.342 22.5584C90.342 21.624 90.0426 20.8565 89.444 20.2225C88.8453 19.5884 87.7145 19.0211 86.0848 18.4872L81.2623 16.9855C78.8344 16.218 77.0384 15.0834 75.9408 13.5818C74.8433 12.1135 74.2779 10.4783 74.2779 8.74305C74.2779 7.34149 74.5772 6.10679 75.1759 5.03893C75.7745 3.97108 76.5727 3.03671 77.5705 2.30256C78.5683 1.53504 79.6991 0.967742 81.0295 0.567297C82.3598 0.166852 83.7567 0 85.2201 0C85.9518 0 86.7167 0.0333704 87.4484 0.133482C88.2134 0.233593 88.9118 0.367075 89.6103 0.500556C90.2754 0.667408 90.9074 0.83426 91.506 1.03448C92.1047 1.23471 92.5703 1.43493 92.9029 1.63515C93.3685 1.90211 93.7011 2.16908 93.9007 2.46941C94.1002 2.73637 94.2 3.10345 94.2 3.57063V5.13904C94.2 5.83982 93.9339 6.2069 93.435 6.2069C93.169 6.2069 92.7366 6.07341 92.1712 5.80645C90.2754 4.93882 88.1469 4.50501 85.7855 4.50501C83.8897 4.50501 82.3931 4.80534 81.362 5.43938C80.331 6.07341 79.7989 7.04116 79.7989 8.40934C79.7989 9.34372 80.1315 10.1446 80.7966 10.7786C81.4618 11.4127 82.6924 12.0467 84.4551 12.614L89.1779 14.1157C91.5725 14.8832 93.302 15.9511 94.333 17.3192C95.3641 18.6874 95.863 20.2558 95.863 21.9911C95.863 23.426 95.5636 24.7275 94.9982 25.8621C94.3996 26.9967 93.6013 27.9978 92.5703 28.7987C91.5393 29.6329 90.3087 30.2336 88.8786 30.6674C87.3819 31.1346 85.8187 31.3682 84.1225 31.3682Z" fill="#252F3E"/>
<path d="M90.4085 47.5858C79.4663 55.6948 63.5685 59.9996 49.8991 59.9996C30.7419 59.9996 13.4805 52.8917 0.443015 41.0786C-0.588013 40.1442 0.343238 38.8762 1.57382 39.6103C15.6756 47.8194 33.07 52.7916 51.0631 52.7916C63.2026 52.7916 76.5395 50.2555 88.812 45.0497C90.6413 44.2154 92.2044 46.251 90.4085 47.5858ZM94.9649 42.3801C93.5681 40.5781 85.719 41.5124 82.1602 41.9462C81.096 42.0797 80.9297 41.1453 81.8942 40.4446C88.1469 36.0397 98.4239 37.3077 99.6212 38.776C100.819 40.2777 99.2886 50.5892 93.435 55.528C92.537 56.2955 91.6723 55.8951 92.0714 54.894C93.4018 51.5903 96.3618 44.1487 94.9649 42.3801Z" fill="#FF9900"/>
</svg>
