<svg width="100" height="100" viewBox="0 0 100 100" fill="none" xmlns="http://www.w3.org/2000/svg">
<rect width="100" height="100" fill="white"/>
<path d="M57.3896 43.985V42.1737C57.3896 39.9025 55.5208 38.0337 53.2496 38.0337H42.957V48.125H53.2496C55.5208 48.125 57.3896 46.2561 57.3896 43.985Z" fill="black"/>
<path d="M57.3896 53.875H42.957V63.9663H57.3896C59.6896 63.9663 61.5584 62.0975 61.5584 59.8263V58.015C61.5584 55.7436 59.6896 53.875 57.3896 53.875Z" fill="black"/>
<path d="M50 10.75C27.8051 10.75 9.75 28.8049 9.75 51C9.75 73.1949 27.8051 91.25 50 91.25C72.1949 91.25 90.25 73.1949 90.25 51C90.25 28.8049 72.1949 10.75 50 10.75ZM67.3076 59.8263C67.3076 65.2887 62.8512 69.7163 57.3888 69.7163H50.9776V71.7574C50.9776 73.3386 49.6838 74.6324 48.1026 74.6324C46.5212 74.6324 45.2276 73.3386 45.2276 71.7574V69.7163H35.5674C33.9862 69.7163 32.6924 68.4225 32.6924 66.8413C32.6924 65.2599 33.9862 63.9663 35.5674 63.9663H37.2062V38.0337H35.5674C33.9862 38.0337 32.6924 36.7399 32.6924 35.1587C32.6924 33.5775 33.9862 32.2837 35.5674 32.2837H45.2276V30.2424C45.2276 28.6612 46.5212 27.3674 48.1026 27.3674C49.6838 27.3674 50.9776 28.6612 50.9776 30.2424V32.2837H53.2488C58.7113 32.2837 63.1388 36.7112 63.1388 42.1737V43.985C63.1388 45.8536 62.5925 47.6075 61.6437 49.1312C64.9788 50.7124 67.3076 54.1049 67.3076 58.015V59.8263Z" fill="black"/>
</svg>
