<svg width="48" height="48" viewBox="0 0 48 48" fill="none" xmlns="http://www.w3.org/2000/svg">
<path d="M42.1969 14.2C42.1969 15.4 41.6969 16.5 40.8969 17.3C40.0969 18.1 38.8969 18.6 37.7969 18.6H10.1969C7.79687 18.6 5.79688 16.6 5.79688 14.2C5.79688 13 6.29687 11.9 7.09687 11.1C7.89687 10.3 9.09687 9.8 10.1969 9.8H10.2969C10.2969 9.6 10.2969 9.4 10.2969 9.2C10.2969 6.6 12.3969 4.5 14.9969 4.5C15.4969 4.5 15.9969 4.6 16.3969 4.7C17.7969 1.8 20.6969 0 23.9969 0C27.1969 0 30.0969 1.8 31.5969 4.6C32.1969 4.4 32.7969 4.3 33.3969 4.3C36.3969 4.3 38.8969 6.8 38.8969 9.8C38.8969 9.9 38.8969 9.9 38.8969 10C40.7969 10.5 42.1969 12.2 42.1969 14.2Z" fill="#0054A6"/>
<path d="M41.5984 31.9V47.3C41.5984 47.7 41.2984 48 40.8984 48H27.5984C27.1984 48 26.8984 47.7 26.8984 47.3V31.9C26.8984 31.5 27.1984 31.1 27.6984 31.1H40.8984C41.1984 31.1 41.5984 31.5 41.5984 31.9Z" fill="#002548"/>
<path d="M22.3953 31.9V33.4H7.69531V31.9C7.69531 31.5 7.99531 31.1 8.49531 31.1H21.6953C22.0953 31.1 22.3953 31.5 22.3953 31.9Z" fill="#002548"/>
<path d="M7.69531 33.4H22.3953V47.3C22.3953 47.7 22.0953 48 21.6953 48H8.39531C7.99531 48 7.69531 47.7 7.69531 47.3V33.4Z" fill="#D2D9DC"/>
<path d="M10.1969 32.6C10.0969 32.6 9.99687 32.6 9.89687 32.5C9.79687 32.4 9.79688 32.3 9.79688 32.2V32.1C9.79688 32.1 9.79687 32 9.89687 32C9.99687 31.9 10.2969 31.9 10.3969 32L10.4969 32.1V32.2C10.4969 32.3 10.4969 32.4 10.3969 32.5C10.3969 32.5 10.3969 32.5 10.2969 32.5C10.2969 32.5 10.2969 32.5 10.1969 32.5C10.2969 32.6 10.2969 32.6 10.1969 32.6Z" fill="#FFD33F"/>
<path d="M11.3 32.6C11.2 32.6 11.1 32.6 11 32.5C11 32.5 11 32.5 11 32.4C11 32.4 11 32.4 11 32.3C11 32.3 11 32.3 11 32.2C11 32.2 11 32.2 11 32.1V32C11 32 11 31.9 11.1 31.9C11.2 31.8 11.5 31.8 11.6 31.9L11.7 32V32.1C11.7 32.1 11.7 32.1 11.7 32.2C11.7 32.2 11.7 32.2 11.7 32.3C11.7 32.3 11.7 32.3 11.7 32.4V32.5C11.5 32.6 11.4 32.6 11.3 32.6Z" fill="#3FD100"/>
<path d="M9.09531 32.6C8.99531 32.6 8.89531 32.6 8.79531 32.5L8.69531 32.4C8.69531 32.3 8.69531 32.2 8.69531 32.1C8.69531 32.1 8.69531 32 8.79531 32C8.89531 31.9 9.19531 31.9 9.29531 32C9.39531 32.1 9.39531 32.4 9.29531 32.5C9.29531 32.6 9.19531 32.6 9.09531 32.6Z" fill="#EE2849"/>
<path d="M29.2984 32.6C29.1984 32.6 29.0984 32.6 28.9984 32.5C28.8984 32.4 28.8984 32.3 28.8984 32.2V32.1C28.8984 32.1 28.8984 32 28.9984 32C29.0984 31.9 29.3984 31.9 29.4984 32L29.5984 32.1V32.2C29.5984 32.3 29.5984 32.4 29.4984 32.5C29.4984 32.5 29.4984 32.5 29.3984 32.5C29.3984 32.5 29.3984 32.5 29.2984 32.5C29.3984 32.6 29.3984 32.6 29.2984 32.6Z" fill="#FFD33F"/>
<path d="M30.3937 32.6C30.2937 32.6 30.1938 32.6 30.0938 32.5C30.0938 32.5 30.0938 32.5 30.0938 32.4C30.0938 32.4 30.0938 32.4 30.0938 32.3C30.0938 32.3 30.0938 32.3 30.0938 32.2C30.0938 32.2 30.0938 32.2 30.0938 32.1V32C30.0938 32 30.0938 31.9 30.1938 31.9C30.2938 31.8 30.5938 31.8 30.6938 31.9L30.7937 32V32.1C30.7937 32.1 30.7937 32.1 30.7937 32.2C30.7937 32.2 30.7937 32.2 30.7937 32.3C30.7937 32.3 30.7937 32.3 30.7937 32.4V32.5C30.5937 32.6 30.4937 32.6 30.3937 32.6Z" fill="#3FD100"/>
<path d="M28.1969 32.6C28.0969 32.6 27.9969 32.6 27.8969 32.5L27.7969 32.4C27.7969 32.3 27.7969 32.2 27.7969 32.1C27.7969 32.1 27.7969 32 27.8969 32C27.9969 31.9 28.2969 31.9 28.3969 32C28.4969 32.1 28.4969 32.4 28.3969 32.5C28.3969 32.6 28.2969 32.6 28.1969 32.6Z" fill="#EE2849"/>
<path d="M15.0984 40.7C16.3135 40.7 17.2984 39.715 17.2984 38.5C17.2984 37.285 16.3135 36.3 15.0984 36.3C13.8834 36.3 12.8984 37.285 12.8984 38.5C12.8984 39.715 13.8834 40.7 15.0984 40.7Z" fill="#FFBD86"/>
<path d="M10.6953 45.9C10.6953 43.5 12.6953 41.5 15.0953 41.5C17.4953 41.5 19.4953 43.5 19.4953 45.9H10.6953Z" fill="#54CC5A"/>
<path d="M41.5984 33.4V47.3C41.5984 47.7 41.2984 48 40.8984 48H27.5984C27.1984 48 26.8984 47.7 26.8984 47.3V33.4H41.5984Z" fill="#D2D9DC"/>
<path d="M34.2 40.7C35.415 40.7 36.4 39.715 36.4 38.5C36.4 37.285 35.415 36.3 34.2 36.3C32.985 36.3 32 37.285 32 38.5C32 39.715 32.985 40.7 34.2 40.7Z" fill="#FFBD86"/>
<path d="M29.7969 45.9C29.7969 43.5 31.7969 41.5 34.1969 41.5C36.5969 41.5 38.5969 43.5 38.5969 45.9H29.7969Z" fill="#002548"/>
<path d="M20.9969 27.5C20.5969 27.5 20.2969 27.2 20.2969 26.8V21.7C20.2969 21.3 20.5969 21 20.9969 21C21.3969 21 21.6969 21.3 21.6969 21.7V26.8C21.6969 27.2 21.3969 27.5 20.9969 27.5Z" fill="#54CC5A"/>
<path d="M20.9953 27.5C20.7953 27.5 20.5953 27.4 20.4953 27.3L18.2953 25.1C17.9953 24.8 17.9953 24.3 18.2953 24.1C18.5953 23.8 18.9953 23.8 19.2953 24.1L20.9953 25.8L22.6953 24.1C22.9953 23.8 23.4953 23.8 23.6953 24.1C23.9953 24.4 23.9953 24.8 23.6953 25.1L21.4953 27.3C21.2953 27.4 21.1953 27.5 20.9953 27.5Z" fill="#54CC5A"/>
<path d="M28.2937 27.5C27.8937 27.5 27.5938 27.2 27.5938 26.8V21.7C27.5938 21.3 27.8937 21 28.2937 21C28.6937 21 28.9937 21.3 28.9937 21.7V26.8C29.0937 27.2 28.6937 27.5 28.2937 27.5Z" fill="#54CC5A"/>
<path d="M30.4922 24.6C30.2922 24.6 30.0922 24.5 29.9922 24.4L28.2922 22.7L26.5922 24.4C26.2922 24.7 25.7922 24.7 25.5922 24.4C25.2922 24.1 25.2922 23.7 25.5922 23.4L27.7922 21.2C28.0922 20.9 28.5922 20.9 28.7922 21.2L30.9922 23.4C31.2922 23.7 31.2922 24.2 30.9922 24.4C30.8922 24.5 30.6922 24.6 30.4922 24.6Z" fill="#54CC5A"/>
</svg>
