<svg width="40" height="40" viewBox="0 0 40 40" fill="none" xmlns="http://www.w3.org/2000/svg">
<path d="M15 32C23.2843 32 30 25.2843 30 17C30 8.71573 23.2843 2 15 2C6.71573 2 0 8.71573 0 17C0 25.2843 6.71573 32 15 32Z" fill="#3D6687"/>
<path d="M14.9051 29.7217C21.931 29.7217 27.6266 24.026 27.6266 17C27.6266 9.97402 21.931 4.27832 14.9051 4.27832C7.87921 4.27832 2.18359 9.97402 2.18359 17C2.18359 24.026 7.87921 29.7217 14.9051 29.7217Z" fill="white"/>
<path d="M14.9058 18.9942C16.0069 18.9942 16.8995 18.1016 16.8995 17.0005C16.8995 15.8994 16.0069 15.0068 14.9058 15.0068C13.8047 15.0068 12.9121 15.8994 12.9121 17.0005C12.9121 18.1016 13.8047 18.9942 14.9058 18.9942Z" fill="#3D6687"/>
<path d="M7.31099 16.9993C7.31099 16.6847 7.02326 16.4297 6.66819 16.4297H5.1057C4.75062 16.4297 4.46289 16.6847 4.46289 16.9993C4.46289 17.314 4.75062 17.5689 5.1057 17.5689H6.66819C7.02318 17.5689 7.31099 17.314 7.31099 16.9993Z" fill="#FF4C4C"/>
<path fill-rule="evenodd" clip-rule="evenodd" d="M15.0037 7.55762C15.0037 7.00533 15.4525 6.55256 16.0022 6.60638C17.3561 6.73894 18.6744 7.14021 19.8798 7.79074C21.38 8.60031 22.6593 9.77092 23.6044 11.1989C24.5495 12.6268 25.1311 14.2681 25.2979 15.9772C25.4646 17.6863 25.2113 19.4106 24.5603 20.9972C23.9093 22.5839 22.8808 23.984 21.5659 25.0735C20.2509 26.163 18.6901 26.9083 17.0217 27.2433C15.3533 27.5784 13.6289 27.4928 12.001 26.9943C10.6886 26.5924 9.47168 25.932 8.41898 25.0547C7.99757 24.7035 8.00046 24.0713 8.38649 23.6815L10.1362 21.915C10.5275 21.52 11.1621 21.5283 11.615 21.8509C12.1264 22.2151 12.6941 22.4959 13.2972 22.6806C14.2223 22.9639 15.2024 23.0125 16.1507 22.8221C17.0989 22.6317 17.9859 22.2081 18.7333 21.5889C19.4806 20.9697 20.0652 20.1739 20.4352 19.2722C20.8051 18.3704 20.9491 17.3904 20.8544 16.419C20.7596 15.4477 20.429 14.5149 19.8919 13.7033C19.3548 12.8917 18.6277 12.2264 17.775 11.7663C17.2175 11.4655 16.6176 11.2584 15.9988 11.1511C15.4547 11.0568 15.0037 10.6178 15.0037 10.0655V7.55762Z" fill="#54CC5A"/>
<path fill-rule="evenodd" clip-rule="evenodd" d="M35.9765 19.9741C35.7813 18.5705 35.2734 17.5635 34.6813 17.5635H30.7217H25.0145H21.055C20.4629 17.5635 19.955 18.5705 19.7598 19.9741H35.9765Z" fill="#FABE2C"/>
<path fill-rule="evenodd" clip-rule="evenodd" d="M25.373 17.6816H30.3651V19.9745H25.373V17.6816Z" fill="#FEB992"/>
<path fill-rule="evenodd" clip-rule="evenodd" d="M30.978 33.7489H24.7583H17.2804C16.4311 33.7489 15.7363 33.0414 15.7363 32.1767V21.4218C15.7363 20.5571 16.4311 19.8496 17.2804 19.8496H38.4559C39.3051 19.8496 39.9999 20.5571 39.9999 21.4218V32.1757C39.9999 33.0405 39.3051 33.7479 38.4559 33.7479H30.978V33.7489Z" fill="url(#paint0_linear_9133_3285)"/>
<path fill-rule="evenodd" clip-rule="evenodd" d="M25.3835 24.6465C25.1384 24.6465 24.9395 24.444 24.9395 24.1943C24.9395 23.9447 25.1384 23.7422 25.3835 23.7422H30.3524C30.5976 23.7422 30.7965 23.9447 30.7965 24.1943C30.7965 24.444 30.5976 24.6465 30.3524 24.6465H25.3835Z" fill="#7C8EA1"/>
<path fill-rule="evenodd" clip-rule="evenodd" d="M25.505 28.5391L24.7584 33.7493L24.3652 36.4943H31.3713L30.9781 33.7493L30.2315 28.5391H25.505Z" fill="#7C8EA1"/>
<path fill-rule="evenodd" clip-rule="evenodd" d="M23.8211 8.22661C22.7341 9.16767 22.4593 11.2495 22.4593 11.2495C22.4519 11.3889 22.4473 11.5246 22.4473 11.6649C22.4473 20.5857 33.289 20.5857 33.289 11.6649C33.289 11.5472 33.2862 11.4313 33.2806 11.3145C33.3408 8.45646 32.4721 7.37504 32.4721 7.37504C26.5521 9.72251 25.0478 6.23145 25.0478 6.23145C25.0478 7.27424 24.4465 7.6859 23.8211 8.22661Z" fill="#FFCC99"/>
<path fill-rule="evenodd" clip-rule="evenodd" d="M37.7124 3.31375C37.7124 3.31375 34.1571 -3.04195 26.8606 1.85081C26.8606 1.85081 26.9133 0.646932 27.7283 0.136366C27.7283 0.136366 23.1776 0.829681 24.1138 4.19829C24.1138 4.19829 21.6816 2.48384 21.6816 7.18538C21.6816 7.18538 21.7714 9.7872 22.4606 11.2501C22.4606 11.2501 22.7354 9.1683 23.8224 8.22724C24.4478 7.68653 25.0491 7.27393 25.0491 6.23207C25.0491 6.23207 26.5534 9.7222 32.4734 7.37567C32.4734 7.37567 33.3412 8.45803 33.282 11.3151C33.282 11.3151 34.9065 6.48359 34.2173 5.34C34.2173 5.34094 36.4024 2.87195 37.7124 3.31375Z" fill="#9A4738"/>
<path fill-rule="evenodd" clip-rule="evenodd" d="M8.24717 36.3184H38.192C39.1866 36.3184 39.9998 37.1464 39.9998 38.159C39.9998 39.1717 39.1866 39.9997 38.192 39.9997H8.24717C7.25265 39.9997 6.43945 39.1717 6.43945 38.159C6.44038 37.1464 7.25357 36.3184 8.24717 36.3184Z" fill="#5F737C"/>
<defs>
<linearGradient id="paint0_linear_9133_3285" x1="27.8681" y1="19.8496" x2="27.8681" y2="33.7489" gradientUnits="userSpaceOnUse">
<stop stop-color="#002548"/>
<stop offset="1" stop-color="#0054A6"/>
</linearGradient>
</defs>
</svg>
