<svg width="24" height="24" viewBox="0 0 24 24" fill="none" xmlns="http://www.w3.org/2000/svg">
<g clip-path="url(#clip0_15248_62017)">
<path d="M12 24C18.6274 24 24 18.6274 24 12C24 5.37258 18.6274 0 12 0C5.37258 0 0 5.37258 0 12C0 18.6274 5.37258 24 12 24Z" fill="white"/>
<path d="M16.3017 9.91283C12.8356 9.91283 12.8312 13.3658 12.8312 13.3835C12.8312 13.3835 12.5937 16.8408 16.3017 16.8408C16.3017 16.8408 19.394 17.0166 19.394 14.4347H17.8061C17.8061 14.4347 17.8587 15.4067 16.3545 15.4067C16.3545 15.4067 14.7666 15.5124 14.7666 13.8364H19.4468C19.4468 13.8364 19.9615 9.91283 16.3017 9.91283ZM14.7489 12.6267C14.7489 12.6267 14.9425 11.2367 16.3369 11.2367C17.7357 11.2367 17.7137 12.6267 17.7137 12.6267H14.7489ZM10.7817 11.7383C10.7817 11.7383 12.1584 11.6372 12.1584 10.0185C12.1584 8.40433 11.0324 7.61243 9.6028 7.61243H4.90039V16.6515H9.60238C9.60238 16.6515 12.4748 16.7396 12.4748 13.9816C12.4748 13.9816 12.5982 11.7383 10.7817 11.7383ZM6.97234 9.21783H9.60259C9.60259 9.21783 10.2405 9.21783 10.2405 10.159C10.2405 11.1003 9.86656 11.2367 9.4398 11.2367H6.97234V9.21783ZM9.47082 15.0461H6.97234V12.6267H9.60259C9.60259 12.6267 10.5573 12.618 10.5528 13.8715C10.5528 14.9273 9.84474 15.0373 9.47082 15.0461ZM14.3574 8.14464V9.25762H18.0876V8.14464H14.3574Z" fill="#0054A6"/>
</g>
<defs>
<clipPath id="clip0_15248_62017">
<rect width="24" height="24" fill="white"/>
</clipPath>
</defs>
</svg>
