<svg width="24" height="24" viewBox="0 0 24 24" fill="none" xmlns="http://www.w3.org/2000/svg">
<g id="Group">
<g id="Group_2">
<path id="Vector" d="M16.3036 9.91286C12.8376 9.91286 12.8331 13.3658 12.8331 13.3836C12.8331 13.3836 12.5957 16.8408 16.3036 16.8408C16.3036 16.8408 19.3959 17.0166 19.3959 14.4347H17.808C17.808 14.4347 17.8607 15.4067 16.3564 15.4067C16.3564 15.4067 14.7686 15.5124 14.7686 13.8364H19.4487C19.4487 13.8364 19.9634 9.91286 16.3036 9.91286ZM14.7508 12.6268C14.7508 12.6268 14.9444 11.2368 16.3389 11.2368C17.7377 11.2368 17.7156 12.6268 17.7156 12.6268H14.7508ZM10.7836 11.7384C10.7836 11.7384 12.1604 11.6372 12.1604 10.0185C12.1604 8.40436 11.0343 7.61246 9.60476 7.61246H4.90234V16.6515H9.60433C9.60433 16.6515 12.4767 16.7396 12.4767 13.9817C12.4767 13.9817 12.6002 11.7384 10.7836 11.7384ZM6.97429 9.21786H9.60454C9.60454 9.21786 10.2424 9.21786 10.2424 10.1591C10.2424 11.1003 9.86851 11.2368 9.44176 11.2368H6.97429V9.21786ZM9.47277 15.0461H6.97429V12.6268H9.60454C9.60454 12.6268 10.5592 12.618 10.5547 13.8715C10.5547 14.9274 9.84669 15.0373 9.47277 15.0461ZM14.3594 8.14467V9.25765H18.0896V8.14467H14.3594Z" fill="#7C8EA1"/>
</g>
</g>
</svg>
