<svg width="80" height="65" viewBox="0 0 80 65" fill="none" xmlns="http://www.w3.org/2000/svg">
<path fill-rule="evenodd" clip-rule="evenodd" d="M51.0538 33.7405C49.8353 32.7094 48.2602 32.0159 46.3263 31.662C47.8396 31.3102 49.1075 30.6248 50.1322 29.606C51.1548 28.5873 51.6661 27.2493 51.6661 25.5903C51.6661 23.0372 50.5878 21.198 48.4292 20.0688C46.2706 18.9416 43.1451 18.379 39.0547 18.379L27.1938 18.3851V19.6024C27.1938 21.5417 28.8163 23.1047 30.8141 23.1047V23.1129H35.6467L30.8141 24.4262V41.901C28.8143 41.901 27.1938 43.4742 27.1938 45.4135V46.6205H30.8141H40.1886C44.1966 46.6205 47.3139 46.0027 49.5405 44.765C51.7692 43.5294 52.8846 41.4039 52.8846 38.3884C52.8825 36.3243 52.2722 34.7756 51.0538 33.7405ZM37.7064 23.1047H39.7248C41.4339 23.1047 42.6833 23.344 43.4667 23.8186C44.2502 24.2932 44.644 25.1013 44.644 26.2449C44.644 28.5259 43.1864 29.6654 40.2711 29.6654H37.7064V23.1047ZM44.3698 40.9743C43.4317 41.5061 42.0504 41.77 40.2299 41.77H37.7064V34.1087H40.7329C44.0956 34.1087 45.7779 35.4139 45.7779 38.0202C45.7779 39.4604 45.3099 40.4444 44.3698 40.9743ZM42.8709 0.450085C41.4463 -0.145227 39.8402 -0.151364 38.4135 0.439856L3.78734 14.5862C1.69471 15.4474 0 17.438 0 19.6412V45.3665C0 47.5656 1.69265 49.5521 3.77703 50.4174L37.9538 64.5535C39.3784 65.1488 41.0793 65.1488 42.506 64.5535L76.5549 50.4174C78.6393 49.5521 80 47.5636 80 45.3665V19.6228C80 17.4277 78.6888 15.4454 76.6106 14.576L42.8709 0.450085Z" fill="#E9004C"/>
</svg>
