<svg width="1600" height="402" viewBox="0 0 1600 402" fill="none" xmlns="http://www.w3.org/2000/svg">
<g clip-path="url(#clip0_15079_29352)">
<path d="M1600 -65H0V604H1600V-65Z" fill="#0A2545"/>
<mask id="mask0_15079_29352" style="mask-type:luminance" maskUnits="userSpaceOnUse" x="0" y="-65" width="1600" height="669">
<path d="M1600 -65H0V604H1600V-65Z" fill="white"/>
</mask>
<g mask="url(#mask0_15079_29352)">
<g opacity="0.1">
<path d="M1232 60.21C1078.04 60.21 952.789 -65.04 952.789 -219C952.789 -372.96 1078.04 -498.21 1232 -498.21C1385.96 -498.21 1511.21 -372.96 1511.21 -219C1511.21 -65.04 1385.96 60.21 1232 60.21ZM1232 -495.56C1079.5 -495.56 955.439 -371.49 955.439 -219C955.439 -66.51 1079.5 57.5601 1232 57.5601C1384.5 57.5601 1508.56 -66.5 1508.56 -219C1508.56 -371.5 1384.5 -495.56 1232 -495.56Z" fill="white"/>
<path d="M1232 124.87C1140.15 124.87 1053.8 89.0999 988.853 24.1499C923.903 -40.8001 888.133 -127.15 888.133 -219C888.133 -310.85 923.903 -397.2 988.853 -462.15C1053.8 -527.1 1140.15 -562.87 1232 -562.87C1323.85 -562.87 1410.2 -527.1 1475.15 -462.15C1540.1 -397.2 1575.87 -310.85 1575.87 -219C1575.87 -127.15 1540.1 -40.8001 1475.15 24.1499C1410.2 89.0999 1323.85 124.87 1232 124.87ZM1232 -560.22C1140.86 -560.22 1055.17 -524.73 990.723 -460.28C926.273 -395.83 890.783 -310.14 890.783 -219C890.783 -127.86 926.273 -42.1701 990.723 22.2799C1055.17 86.7299 1140.86 122.22 1232 122.22C1323.14 122.22 1408.83 86.7299 1473.28 22.2799C1537.73 -42.1701 1573.22 -127.86 1573.22 -219C1573.22 -310.14 1537.73 -395.83 1473.28 -460.28C1408.83 -524.73 1323.14 -560.22 1232 -560.22Z" fill="white"/>
<path d="M1232 189.53C1122.88 189.53 1020.29 147.04 943.129 69.88C865.969 -7.28 823.469 -109.88 823.469 -219C823.469 -328.12 865.959 -430.71 943.119 -507.87C1020.28 -585.03 1122.88 -627.53 1232 -627.53C1341.12 -627.53 1443.71 -585.04 1520.87 -507.88C1598.03 -430.72 1640.53 -328.12 1640.53 -219C1640.53 -109.88 1598.04 -7.29001 1520.88 69.87C1443.72 147.03 1341.12 189.53 1232 189.53ZM1232 -624.88C1123.59 -624.88 1021.66 -582.66 944.999 -506C868.339 -429.34 826.119 -327.41 826.119 -219C826.119 -110.59 868.339 -8.66 944.999 68C1021.66 144.66 1123.59 186.88 1232 186.88C1340.41 186.88 1442.34 144.66 1519 68C1595.66 -8.66 1637.88 -110.59 1637.88 -219C1637.88 -327.41 1595.66 -429.34 1519 -506C1442.34 -582.66 1340.41 -624.88 1232 -624.88Z" fill="white"/>
<path d="M1232 254.18C1168.12 254.18 1106.15 241.67 1047.82 216.99C991.47 193.16 940.87 159.04 897.41 115.58C853.95 72.1401 819.83 21.5301 796 -34.8199C771.33 -93.1499 758.82 -155.12 758.82 -219C758.82 -282.88 771.33 -344.85 796 -403.18C819.83 -459.53 853.95 -510.13 897.41 -553.59C940.87 -597.05 991.47 -631.16 1047.82 -655C1106.16 -679.68 1168.13 -692.19 1232 -692.19C1295.87 -692.19 1357.85 -679.68 1416.18 -655C1472.53 -631.17 1523.13 -597.05 1566.59 -553.59C1610.05 -510.13 1644.16 -459.53 1668 -403.18C1692.68 -344.84 1705.19 -282.87 1705.19 -219C1705.19 -155.13 1692.67 -93.1499 1668 -34.8199C1644.17 21.5301 1610.05 72.1301 1566.59 115.59C1523.13 159.05 1472.53 193.16 1416.18 217C1357.85 241.67 1295.88 254.18 1232 254.18ZM1232 -689.54C1106.31 -689.54 988.15 -640.6 899.28 -551.72C810.41 -462.84 761.46 -344.69 761.46 -219C761.46 -93.3099 810.4 24.8501 899.28 113.72C988.16 202.59 1106.31 251.54 1232 251.54C1357.69 251.54 1475.85 202.6 1564.72 113.72C1653.59 24.8501 1702.54 -93.3199 1702.54 -219C1702.54 -344.68 1653.6 -462.85 1564.72 -551.72C1475.85 -640.59 1357.69 -689.54 1232 -689.54Z" fill="white"/>
<path d="M1232 318.84C1159.39 318.84 1088.96 304.62 1022.65 276.57C958.596 249.48 901.076 210.7 851.686 161.31C802.296 111.92 763.516 54.3999 736.426 -9.65009C708.376 -75.9601 694.156 -146.39 694.156 -219C694.156 -291.61 708.376 -362.04 736.426 -428.35C763.516 -492.4 802.296 -549.92 851.686 -599.31C901.076 -648.7 958.596 -687.48 1022.65 -714.57C1088.96 -742.62 1159.39 -756.84 1232 -756.84C1304.61 -756.84 1375.04 -742.62 1441.35 -714.57C1505.4 -687.48 1562.92 -648.7 1612.31 -599.31C1661.7 -549.92 1700.48 -492.4 1727.57 -428.35C1755.62 -362.04 1769.84 -291.61 1769.84 -219C1769.84 -146.39 1755.62 -75.9601 1727.57 -9.65009C1700.48 54.3999 1661.7 111.92 1612.31 161.31C1562.92 210.7 1505.4 249.48 1441.35 276.57C1375.04 304.62 1304.61 318.84 1232 318.84ZM1232 -754.2C1159.75 -754.2 1089.66 -740.05 1023.68 -712.14C959.946 -685.18 902.706 -646.59 853.556 -597.44C804.406 -548.29 765.816 -491.05 738.856 -427.32C710.946 -361.34 696.796 -291.25 696.796 -219C696.796 -146.75 710.946 -76.6601 738.856 -10.6801C765.816 53.0499 804.406 110.29 853.556 159.44C902.706 208.59 959.946 247.18 1023.68 274.14C1089.66 302.05 1159.75 316.2 1232 316.2C1304.25 316.2 1374.34 302.05 1440.32 274.14C1504.05 247.18 1561.29 208.59 1610.44 159.44C1659.59 110.29 1698.18 53.0499 1725.14 -10.6801C1753.05 -76.6601 1767.2 -146.75 1767.2 -219C1767.2 -291.25 1753.05 -361.34 1725.14 -427.32C1698.18 -491.05 1659.59 -548.29 1610.44 -597.44C1561.29 -646.59 1504.05 -685.18 1440.32 -712.14C1374.34 -740.05 1304.25 -754.2 1232 -754.2Z" fill="white"/>
<path d="M1232 383.5C1150.66 383.5 1071.76 367.57 997.48 336.15C925.73 305.8 861.3 262.36 805.97 207.03C750.64 151.7 707.19 87.27 676.85 15.52C645.43 -58.76 629.5 -137.66 629.5 -219C629.5 -300.34 645.43 -379.24 676.85 -453.52C707.2 -525.27 750.64 -589.7 805.97 -645.03C861.3 -700.36 925.74 -743.8 997.48 -774.15C1071.76 -805.57 1150.66 -821.5 1232 -821.5C1313.34 -821.5 1392.24 -805.57 1466.52 -774.15C1538.27 -743.8 1602.7 -700.36 1658.03 -645.03C1713.36 -589.7 1756.8 -525.26 1787.15 -453.52C1818.57 -379.24 1834.5 -300.34 1834.5 -219C1834.5 -137.66 1818.57 -58.76 1787.15 15.52C1756.8 87.27 1713.36 151.7 1658.03 207.03C1602.7 262.36 1538.26 305.81 1466.52 336.15C1392.24 367.57 1313.34 383.5 1232 383.5ZM1232 -818.85C1151.02 -818.85 1072.46 -802.99 998.51 -771.71C927.08 -741.5 862.93 -698.25 807.84 -643.16C752.75 -588.07 709.5 -523.92 679.28 -452.49C648 -378.54 632.14 -299.98 632.14 -219C632.14 -138.02 648.01 -59.46 679.28 14.49C709.49 85.92 752.74 150.07 807.83 205.16C862.92 260.25 927.07 303.5 998.5 333.71C1072.45 364.99 1151.01 380.85 1231.99 380.85C1312.97 380.85 1391.53 364.99 1465.48 333.71C1536.91 303.5 1601.06 260.25 1656.15 205.16C1711.24 150.07 1754.49 85.92 1784.7 14.49C1815.98 -59.46 1831.84 -138.02 1831.84 -219C1831.84 -299.98 1815.98 -378.54 1784.7 -452.49C1754.49 -523.92 1711.24 -588.07 1656.15 -643.16C1601.06 -698.25 1536.91 -741.5 1465.48 -771.71C1391.54 -802.99 1312.98 -818.85 1232 -818.85Z" fill="white"/>
</g>
</g>
<mask id="mask1_15079_29352" style="mask-type:luminance" maskUnits="userSpaceOnUse" x="0" y="-65" width="1600" height="669">
<path d="M1600 -65H0V604H1600V-65Z" fill="white"/>
</mask>
<g mask="url(#mask1_15079_29352)">
<g opacity="0.7">
<path d="M569.693 383.88L-40.5469 994.12" stroke="#0054A6" stroke-width="2" stroke-miterlimit="10"/>
<path d="M511.006 383.88L-99.2344 994.12" stroke="#0054A6" stroke-width="2" stroke-miterlimit="10"/>
<path d="M452.31 383.88L-157.93 994.12" stroke="#0054A6" stroke-width="2" stroke-miterlimit="10"/>
<path d="M393.623 383.88L-216.617 994.12" stroke="#0054A6" stroke-width="2" stroke-miterlimit="10"/>
<path d="M334.935 383.88L-275.305 994.12" stroke="#0054A6" stroke-width="2" stroke-miterlimit="10"/>
<path d="M276.24 383.88L-334 994.12" stroke="#0054A6" stroke-width="2" stroke-miterlimit="10"/>
<path d="M217.552 383.88L-392.688 994.12" stroke="#0054A6" stroke-width="2" stroke-miterlimit="10"/>
</g>
</g>
</g>
<defs>
<clipPath id="clip0_15079_29352">
<rect width="1600" height="402" fill="white"/>
</clipPath>
</defs>
</svg>
