<svg width="1600" height="414" viewBox="0 0 1600 414" fill="none" xmlns="http://www.w3.org/2000/svg">
<g clip-path="url(#clip0_18045_29277)">
<path d="M1600 -114.422H0V525.589H1600V-114.422Z" fill="#0A2545"/>
<mask id="mask0_18045_29277" style="mask-type:luminance" maskUnits="userSpaceOnUse" x="0" y="-115" width="1600" height="641">
<path d="M1600 -114.422H0V525.589H1600V-114.422Z" fill="white"/>
</mask>
<g mask="url(#mask0_18045_29277)">
<g opacity="0.1">
<path d="M1232 5.36224C1078.04 5.36224 952.789 -114.461 952.789 -261.749C952.789 -409.038 1078.04 -528.861 1232 -528.861C1385.96 -528.861 1511.21 -409.038 1511.21 -261.749C1511.21 -114.461 1385.96 5.36224 1232 5.36224ZM1232 -526.326C1079.5 -526.326 955.439 -407.632 955.439 -261.749C955.439 -115.867 1079.5 2.82709 1232 2.82709C1384.5 2.82709 1508.56 -115.857 1508.56 -261.749C1508.56 -407.641 1384.5 -526.326 1232 -526.326Z" fill="white"/>
<path d="M1232 67.2208C1140.15 67.2208 1053.8 33.0008 988.853 -29.1348C923.903 -91.2705 888.133 -173.879 888.133 -261.749C888.133 -349.619 923.903 -432.227 988.853 -494.363C1053.8 -556.499 1140.15 -590.719 1232 -590.719C1323.85 -590.719 1410.2 -556.499 1475.15 -494.363C1540.1 -432.227 1575.87 -349.619 1575.87 -261.749C1575.87 -173.879 1540.1 -91.2705 1475.15 -29.1348C1410.2 33.0008 1323.85 67.2208 1232 67.2208ZM1232 -588.184C1140.86 -588.184 1055.17 -554.231 990.723 -492.574C926.273 -430.917 890.783 -348.94 890.783 -261.749C890.783 -174.558 926.273 -92.5811 990.723 -30.9238C1055.17 30.7335 1140.86 64.6857 1232 64.6857C1323.14 64.6857 1408.83 30.7335 1473.28 -30.9238C1537.73 -92.5811 1573.22 -174.558 1573.22 -261.749C1573.22 -348.94 1537.73 -430.917 1473.28 -492.574C1408.83 -554.231 1323.14 -588.184 1232 -588.184Z" fill="white"/>
<path d="M1232 129.079C1122.88 129.079 1020.29 88.4299 943.129 14.6133C865.969 -59.2032 823.469 -157.357 823.469 -261.749C823.469 -366.141 865.959 -464.286 943.119 -538.102C1020.28 -611.919 1122.88 -652.577 1232 -652.577C1341.12 -652.577 1443.71 -611.928 1520.87 -538.112C1598.03 -464.295 1640.53 -366.141 1640.53 -261.749C1640.53 -157.357 1598.04 -59.2128 1520.88 14.6038C1443.72 88.4203 1341.12 129.079 1232 129.079ZM1232 -650.042C1123.59 -650.042 1021.66 -609.651 944.999 -536.313C868.339 -462.975 826.119 -365.462 826.119 -261.749C826.119 -158.037 868.339 -60.5234 944.999 12.8148C1021.66 86.1531 1123.59 126.544 1232 126.544C1340.41 126.544 1442.34 86.1531 1519 12.8148C1595.66 -60.5234 1637.88 -158.037 1637.88 -261.749C1637.88 -365.462 1595.66 -462.975 1519 -536.313C1442.34 -609.651 1340.41 -650.042 1232 -650.042Z" fill="white"/>
<path d="M1232 190.928C1168.12 190.928 1106.15 178.96 1047.82 155.349C991.47 132.552 940.87 99.9105 897.41 58.3337C853.95 16.7759 819.83 -31.6411 796 -85.5494C771.33 -141.352 758.82 -200.637 758.82 -261.749C758.82 -322.861 771.33 -382.146 796 -437.948C819.83 -491.856 853.95 -540.264 897.41 -581.841C940.87 -623.418 991.47 -656.05 1047.82 -678.857C1106.16 -702.467 1168.13 -714.435 1232 -714.435C1295.87 -714.435 1357.85 -702.467 1416.18 -678.857C1472.53 -656.059 1523.13 -623.418 1566.59 -581.841C1610.05 -540.264 1644.16 -491.856 1668 -437.948C1692.68 -382.136 1705.19 -322.851 1705.19 -261.749C1705.19 -200.646 1692.67 -141.352 1668 -85.5494C1644.17 -31.6411 1610.05 16.7664 1566.59 58.3432C1523.13 99.92 1472.53 132.552 1416.18 155.359C1357.85 178.96 1295.88 190.928 1232 190.928ZM1232 -711.9C1106.31 -711.9 988.15 -665.08 899.28 -580.052C810.41 -495.023 761.46 -381.992 761.46 -261.749C761.46 -141.505 810.4 -28.465 899.28 56.5543C988.16 141.573 1106.31 188.402 1232 188.402C1357.69 188.402 1475.85 141.583 1564.72 56.5543C1653.59 -28.465 1702.54 -141.515 1702.54 -261.749C1702.54 -381.983 1653.6 -495.033 1564.72 -580.052C1475.85 -665.071 1357.69 -711.9 1232 -711.9Z" fill="white"/>
<path d="M1232 252.786C1159.39 252.786 1088.96 239.182 1022.65 212.347C958.6 186.431 901.08 149.332 851.69 102.082C802.3 54.8317 763.52 -0.195862 736.43 -61.4706C708.38 -124.907 694.16 -192.285 694.16 -261.749C694.16 -331.213 708.38 -398.591 736.43 -462.028C763.52 -523.303 802.3 -578.33 851.69 -625.58C901.08 -672.83 958.6 -709.93 1022.65 -735.846C1088.96 -762.68 1159.39 -776.284 1232 -776.284C1304.61 -776.284 1375.04 -762.68 1441.35 -735.846C1505.4 -709.93 1562.92 -672.83 1612.31 -625.58C1661.7 -578.33 1700.48 -523.303 1727.57 -462.028C1755.62 -398.591 1769.84 -331.213 1769.84 -261.749C1769.84 -192.285 1755.62 -124.907 1727.57 -61.4706C1700.48 -0.195862 1661.7 54.8317 1612.31 102.082C1562.92 149.332 1505.4 186.431 1441.35 212.347C1375.04 239.182 1304.61 252.786 1232 252.786ZM1232 -773.759C1159.75 -773.759 1089.66 -760.222 1023.68 -733.521C959.95 -707.729 902.71 -670.811 853.56 -623.791C804.41 -576.771 765.82 -522.011 738.86 -461.043C710.95 -397.922 696.8 -330.869 696.8 -261.749C696.8 -192.63 710.95 -125.577 738.86 -62.4559C765.82 -1.48737 804.41 53.2723 853.56 100.293C902.71 147.313 959.95 184.231 1023.68 210.023C1089.66 236.723 1159.75 250.26 1232 250.26C1304.25 250.26 1374.34 236.723 1440.32 210.023C1504.05 184.231 1561.29 147.313 1610.44 100.293C1659.59 53.2723 1698.18 -1.48737 1725.14 -62.4559C1753.05 -125.577 1767.2 -192.63 1767.2 -261.749C1767.2 -330.869 1753.05 -397.922 1725.14 -461.043C1698.18 -522.011 1659.59 -576.771 1610.44 -623.791C1561.29 -670.811 1504.05 -707.729 1440.32 -733.521C1374.34 -760.222 1304.25 -773.759 1232 -773.759Z" fill="white"/>
<path d="M1232 314.644C1150.66 314.644 1071.76 299.405 997.48 269.346C925.73 240.311 861.3 198.753 805.97 145.821C750.64 92.8884 707.19 31.2502 676.85 -37.3908C645.43 -108.452 629.5 -183.933 629.5 -261.749C629.5 -339.564 645.43 -415.046 676.85 -486.107C707.2 -554.748 750.64 -616.386 805.97 -669.319C861.3 -722.251 925.74 -763.809 997.48 -792.844C1071.76 -822.902 1150.66 -838.142 1232 -838.142C1313.34 -838.142 1392.24 -822.902 1466.52 -792.844C1538.27 -763.809 1602.7 -722.251 1658.03 -669.319C1713.36 -616.386 1756.8 -554.738 1787.15 -486.107C1818.57 -415.046 1834.5 -339.564 1834.5 -261.749C1834.5 -183.933 1818.57 -108.452 1787.15 -37.3908C1756.8 31.2502 1713.36 92.8884 1658.03 145.821C1602.7 198.753 1538.26 240.321 1466.52 269.346C1392.24 299.405 1313.34 314.644 1232 314.644ZM1232 -835.607C1151.02 -835.607 1072.46 -820.434 998.51 -790.51C927.08 -761.609 862.93 -720.233 807.84 -667.53C752.75 -614.827 709.5 -553.456 679.28 -485.122C648 -414.376 632.14 -339.22 632.14 -261.749C632.14 -184.278 648.01 -109.122 679.28 -38.3762C709.49 29.9587 752.74 91.329 807.83 144.032C862.92 196.735 927.07 238.111 998.5 267.012C1072.45 296.936 1151.01 312.109 1231.99 312.109C1312.97 312.109 1391.53 296.936 1465.48 267.012C1536.91 238.111 1601.06 196.735 1656.15 144.032C1711.24 91.329 1754.49 29.9587 1784.7 -38.3762C1815.98 -109.122 1831.84 -184.278 1831.84 -261.749C1831.84 -339.22 1815.98 -414.376 1784.7 -485.122C1754.49 -553.456 1711.24 -614.827 1656.15 -667.53C1601.06 -720.233 1536.91 -761.609 1465.48 -790.51C1391.54 -820.434 1312.98 -835.607 1232 -835.607Z" fill="white"/>
</g>
</g>
<mask id="mask1_18045_29277" style="mask-type:luminance" maskUnits="userSpaceOnUse" x="0" y="-115" width="1600" height="641">
<path d="M1600 -114.422H0V525.589H1600V-114.422Z" fill="white"/>
</mask>
<g mask="url(#mask1_18045_29277)">
<g opacity="0.7">
<path d="M569.693 315.007L-40.5469 898.805" stroke="#0054A6" stroke-width="2" stroke-miterlimit="10"/>
<path d="M511.002 315.007L-99.2383 898.805" stroke="#0054A6" stroke-width="2" stroke-miterlimit="10"/>
<path d="M452.31 315.007L-157.93 898.805" stroke="#0054A6" stroke-width="2" stroke-miterlimit="10"/>
<path d="M393.623 315.007L-216.617 898.805" stroke="#0054A6" stroke-width="2" stroke-miterlimit="10"/>
<path d="M334.935 315.007L-275.305 898.805" stroke="#0054A6" stroke-width="2" stroke-miterlimit="10"/>
<path d="M276.24 315.007L-334 898.805" stroke="#0054A6" stroke-width="2" stroke-miterlimit="10"/>
<path d="M217.552 315.007L-392.688 898.805" stroke="#0054A6" stroke-width="2" stroke-miterlimit="10"/>
</g>
</g>
<mask id="mask2_18045_29277" style="mask-type:luminance" maskUnits="userSpaceOnUse" x="0" y="-115" width="1600" height="641">
<path d="M1600 -114.422H0V525.589H1600V-114.422Z" fill="white"/>
</mask>
<g mask="url(#mask2_18045_29277)">
<path d="M1499.5 583.946C1555 583.946 1600 540.472 1600 486.844C1600 433.216 1555 389.742 1499.5 389.742C1444 389.742 1399 433.216 1399 486.844C1399 540.472 1444 583.946 1499.5 583.946Z" fill="#0054A6"/>
</g>
</g>
<defs>
<clipPath id="clip0_18045_29277">
<rect width="1600" height="414" fill="white"/>
</clipPath>
</defs>
</svg>
