<svg width="64" height="64" viewBox="0 0 64 64" fill="none" xmlns="http://www.w3.org/2000/svg">
<g id="enterprise-software-development-expertise_bi-services" clip-path="url(#clip0_7641_7136)">
<g id="Group">
<path id="Vector" d="M41.4003 57.1001C47.6003 57.1001 52.7003 52.1001 52.7003 45.8001C52.7003 40.3001 48.7003 35.5001 43.2003 34.7001C45.4003 28.9001 42.4003 22.4001 36.6003 20.2001C32.0003 18.5001 26.8003 20.0001 23.8003 23.8001C18.6003 20.4001 11.6003 21.9001 8.20032 27.1001C7.00032 28.9001 6.40032 31.1001 6.40032 33.3001C6.40032 34.1001 6.50032 34.9001 6.60032 35.6001C1.00032 38.2001 -1.49968 44.9001 1.10032 50.6001C3.00032 54.6001 6.90032 57.1001 11.3003 57.1001H41.4003Z" fill="#D2D9DC"/>
<path id="Vector_2" d="M63.9996 31.7V27.4C63.9996 26.5 63.2996 25.8 62.3996 25.8C61.6996 25.8 60.9996 25.3 60.8996 24.6C60.3996 22.7 59.6996 20.9 58.6996 19.2C58.2996 18.6 58.4996 17.8 58.9996 17.3C59.5996 16.7 59.5996 15.7 58.9996 15L55.7996 12C55.1996 11.4 54.1996 11.4 53.4996 12C52.9996 12.5 52.1996 12.6 51.5996 12.3C49.8996 11.3 48.0996 10.6 46.1996 10.1C45.4996 9.9 44.9996 9.3 44.9996 8.6C44.9996 7.7 44.2996 7 43.3996 7H39.0996C38.1996 7 37.4996 7.7 37.4996 8.6C37.4996 9.3 36.9996 10 36.2996 10.1C34.3996 10.6 32.5996 11.3 30.8996 12.3C30.2996 12.7 29.4996 12.5 28.9996 12C28.3996 11.4 27.3996 11.4 26.6996 12L23.5996 15.1C22.9996 15.7 22.9996 16.7 23.5996 17.4C24.0996 17.9 24.1996 18.7 23.8996 19.3C22.8996 21 22.1996 22.8 21.6996 24.7C21.4996 25.4 20.8996 25.9 20.1996 25.9C19.2996 25.9 18.5996 26.6 18.5996 27.5V31.8C18.5996 32.7 19.2996 33.4 20.1996 33.4C20.8996 33.4 21.5996 33.9 21.6996 34.6C22.1996 36.5 22.8996 38.3 23.8996 40C24.2996 40.6 24.0996 41.4 23.5996 41.9C22.9996 42.5 22.9996 43.5 23.5996 44.2L26.9996 47C27.5996 47.6 28.5996 47.6 29.2996 47C29.7996 46.5 30.5996 46.4 31.1996 46.7C32.8996 47.7 34.6996 48.4 36.5996 48.9C37.2996 49.1 37.7996 49.7 37.7996 50.4C37.7996 51.3 38.4996 52 39.3996 52H43.6996C44.5996 52 45.2996 51.3 45.2996 50.4C45.2996 49.7 45.7996 49 46.4996 48.9C48.3996 48.4 50.1996 47.7 51.8996 46.7C52.4996 46.3 53.2996 46.5 53.7996 47C54.3996 47.6 55.3996 47.6 56.0996 47L59.1996 43.9C59.7996 43.3 59.7996 42.3 59.1996 41.6C58.6996 41.1 58.5996 40.3 58.8996 39.7C59.8996 38 60.5996 36.2 61.0996 34.3C61.2996 33.6 61.8996 33.1 62.5996 33.1C63.2996 33.3 63.9996 32.5 63.9996 31.7Z" fill="#839299"/>
<path id="Vector_3" d="M41.3996 43.2999C49.0211 43.2999 55.1996 37.1215 55.1996 29.5C55.1996 21.8784 49.0211 15.7 41.3996 15.7C33.7781 15.7 27.5996 21.8784 27.5996 29.5C27.5996 37.1215 33.7781 43.2999 41.3996 43.2999Z" fill="#F9FAFB"/>
<path id="Vector_4" d="M45.2004 42.8001C42.7004 43.5001 40.1004 43.5001 37.7004 42.8001V35.7001C37.7004 34.9001 37.4004 34.2001 36.9004 33.7001L35.3004 32.1001C34.4004 31.2001 33.9004 30.0001 33.9004 28.8001V26.0001C33.9004 25.0001 34.2004 24.0001 34.8004 23.2001L36.3004 21.2001C36.4004 21.0001 36.7004 21.1001 36.7004 21.3001V26.0001C36.7004 27.3001 37.2004 28.4001 38.1004 29.3001C39.9004 31.1001 42.9004 31.1001 44.8004 29.3001C45.7004 28.4001 46.2004 27.2001 46.2004 26.0001V21.4001C46.2004 21.2001 46.5004 21.1001 46.6004 21.3001L48.1004 23.3001C48.7004 24.1001 49.0004 25.1001 49.0004 26.1001V28.9001C49.0004 30.1001 48.5004 31.3001 47.6004 32.2001L46.0004 33.7001C45.5004 34.2001 45.2004 35.0001 45.2004 35.7001V42.8001Z" fill="#0054A6"/>
</g>
</g>
<defs>
<clipPath id="clip0_7641_7136">
<rect width="64" height="64" fill="white"/>
</clipPath>
</defs>
</svg>
