<svg width="48" height="48" viewBox="0 0 48 48" fill="none" xmlns="http://www.w3.org/2000/svg">
<g clip-path="url(#clip0_5571_18553)">
<path d="M9.60035 18.4002C9.20035 17.7002 9.40035 16.9002 10.1004 16.5002L17.2004 12.4002C17.9004 12.0002 18.7004 12.2002 19.1004 12.9002C19.5004 13.6002 19.3004 14.4002 18.6004 14.8002L11.5004 18.9002C10.8004 19.4002 9.90035 19.0002 9.60035 18.4002Z" fill="#002548"/>
<path d="M17.3 35.6001L10.2 31.5001C9.49996 31.1001 9.29996 30.3001 9.69996 29.6001C10.1 28.9001 10.9 28.7001 11.6 29.1001L18.7 33.2001C19.4 33.6001 19.6 34.4001 19.2 35.1001C18.8 35.7001 18 36.1001 17.3 35.6001Z" fill="#002548"/>
<path d="M37.1992 19.1002C36.9992 19.1002 36.6992 19.0002 36.4992 18.9002L29.3992 14.8002C28.6992 14.4002 28.4992 13.6002 28.8992 12.9002C29.2992 12.2002 30.0992 12.0002 30.7992 12.4002L37.8992 16.5002C38.5992 16.9002 38.7992 17.7002 38.3992 18.4002C38.0992 18.9002 37.6992 19.1002 37.1992 19.1002Z" fill="#002548"/>
<path d="M29.9996 35.8001C29.4996 35.8001 28.9996 35.5001 28.7996 35.1001C28.3996 34.4001 28.5996 33.6001 29.2996 33.2001L36.3996 29.1001C37.0996 28.7001 37.8996 28.9001 38.2996 29.6001C38.6996 30.3001 38.4996 31.1001 37.7996 31.5001L30.6996 35.6001C30.4996 35.8001 30.2996 35.8001 29.9996 35.8001Z" fill="#002548"/>
<path d="M31.5008 4.1001L24.7008 0.200098C24.3008 -0.0999023 23.7008 -0.0999023 23.3008 0.200098L16.5008 4.1001C16.1008 4.4001 15.8008 4.8001 15.8008 5.3001V13.1001C15.8008 13.6001 16.1008 14.1001 16.5008 14.3001L23.3008 18.2001C23.7008 18.5001 24.3008 18.5001 24.7008 18.2001L31.5008 14.3001C31.9008 14.0001 32.2008 13.6001 32.2008 13.1001V5.3001C32.2008 4.8001 31.9008 4.4001 31.5008 4.1001Z" fill="#FFDD33"/>
<path opacity="0.19" d="M24 0C23.8 0 23.5 0.1 23.3 0.2L16.5 4.1C16.3 4.2 16.1 4.4 16 4.6L24 9.2V0Z" fill="#F9FAFB"/>
<path opacity="0.19" d="M24 9.2001V18.4001C24.2 18.4001 24.5 18.3001 24.7 18.2001L31.5 14.3001C31.9 14.0001 32.2 13.6001 32.2 13.1001V5.3001C32.2 5.0001 32.1 4.8001 32 4.6001L24 9.2001Z" fill="#2D2F31"/>
<path d="M31.5008 33.6001L24.7008 29.7001C24.3008 29.4001 23.7008 29.4001 23.3008 29.7001L16.5008 33.6001C16.1008 33.9001 15.8008 34.3001 15.8008 34.8001V42.6001C15.8008 43.1001 16.1008 43.6001 16.5008 43.8001L23.3008 47.7001C23.7008 48.0001 24.3008 48.0001 24.7008 47.7001L31.5008 43.8001C31.9008 43.5001 32.2008 43.1001 32.2008 42.6001V34.8001C32.2008 34.4001 31.9008 33.9001 31.5008 33.6001Z" fill="#54CC5A"/>
<path opacity="0.19" d="M24 29.5C23.8 29.5 23.5 29.6 23.3 29.7L16.5 33.6C16.3 33.7 16.1 33.9 16 34.1L24 38.7V29.5Z" fill="#F9FAFB"/>
<path opacity="0.19" d="M24 38.8002V48.0002C24.2 48.0002 24.5 47.9002 24.7 47.8002L31.5 43.9002C31.9 43.6002 32.2 43.2002 32.2 42.7002V34.9002C32.2 34.6002 32.1 34.4002 32 34.2002L24 38.8002Z" fill="#2D2F31"/>
<path d="M15.7 18.9001L8.9 15.0001C8.5 14.7001 7.9 14.7001 7.5 15.0001L0.7 18.9001C0.3 19.1001 0 19.6001 0 20.1001V27.9001C0 28.4001 0.3 28.9001 0.7 29.1001L7.5 33.0001C7.9 33.3001 8.5 33.3001 8.9 33.0001L15.7 29.1001C16.1 28.8001 16.4 28.4001 16.4 27.9001V20.1001C16.4 19.6001 16.1 19.1001 15.7 18.9001Z" fill="#0054A6"/>
<path opacity="0.19" d="M8.19922 14.8C7.99922 14.8 7.69922 14.9 7.49922 15L0.699219 18.9C0.499219 19 0.299219 19.2 0.199219 19.4L8.19922 24V14.8Z" fill="#F9FAFB"/>
<path opacity="0.19" d="M8.19922 24.0001V33.2001C8.39922 33.2001 8.69922 33.1001 8.89922 33.0001L15.6992 29.1001C16.0992 28.8001 16.3992 28.4001 16.3992 27.9001V20.1001C16.3992 19.8001 16.2992 19.6001 16.1992 19.4001L8.19922 24.0001Z" fill="#2D2F31"/>
<path d="M47.2996 18.9001L40.4996 15.0001C40.0996 14.7001 39.4996 14.7001 39.0996 15.0001L32.2996 18.9001C31.8996 19.2001 31.5996 19.6001 31.5996 20.1001V27.9001C31.5996 28.4001 31.8996 28.9001 32.2996 29.1001L39.0996 33.0001C39.4996 33.3001 40.0996 33.3001 40.4996 33.0001L47.2996 29.1001C47.6996 28.8001 47.9996 28.4001 47.9996 27.9001V20.1001C47.9996 19.6001 47.6996 19.1001 47.2996 18.9001Z" fill="#ED1C24"/>
<path opacity="0.19" d="M39.8008 14.8C39.6008 14.8 39.3008 14.9 39.1008 15L32.3008 18.9C32.1008 19 31.9008 19.2 31.8008 19.4L39.8008 24V14.8Z" fill="#F9FAFB"/>
<path opacity="0.19" d="M39.8008 24.0001V33.2001C40.0008 33.2001 40.3008 33.1001 40.5008 33.0001L47.3008 29.1001C47.7008 28.8001 48.0008 28.4001 48.0008 27.9001V20.1001C48.0008 19.8001 47.9008 19.6001 47.8008 19.4001L39.8008 24.0001Z" fill="#2D2F31"/>
</g>
<defs>
<clipPath id="clip0_5571_18553">
<rect width="48" height="48" fill="white"/>
</clipPath>
</defs>
</svg>
