<svg width="420" height="280" viewBox="0 0 420 280" fill="none" xmlns="http://www.w3.org/2000/svg">
<g clip-path="url(#clip0_18062_9373)">
<path opacity="0.1" d="M75.6008 251.754C59.8211 241.604 42.8341 229.864 37.9262 211.756C35.3099 202.103 38.8138 189.058 48.69 187.478C57.9882 185.991 67.5329 195.665 75.9665 191.477C85.5425 186.721 85.2356 174.48 82.5717 165.838C80.7007 159.769 78.2305 153.884 75.2088 148.297C70.7439 140.043 65.0958 132.465 60.7709 124.136C56.446 115.807 53.4466 106.364 54.8774 97.0894C56.3082 87.8141 63.0881 78.9353 72.3365 77.3421C83.2134 75.4684 93.135 83.5458 100.62 91.6568C106.869 98.4272 114.217 107.98 123.752 110.093C133.445 112.242 142.128 102.171 145.609 94.0424C149.972 83.8566 149.837 72.3906 152.268 61.7069C155.004 49.6832 159.233 32.9453 169.29 25.1154C177.786 18.5018 185.196 14.8064 196.416 16.8481C212.753 19.8206 217.503 36.7802 220.239 50.8956C222.643 63.2951 223.221 78.0595 233.085 87.3958C236.202 90.3453 240.34 91.9587 244.469 93.1263C263.234 98.434 280.093 78.8373 292.766 67.5511C297.598 63.2486 302.429 58.9461 307.26 54.6436C317.43 45.5868 325.648 33.3032 340.154 30.7798C347.935 29.4263 357.125 33.2875 359.239 40.9001C362.354 52.1304 355.33 62.2451 347.852 69.9216C339.526 78.4694 331.754 87.0637 325.06 97.0401C322.155 101.369 319.349 106.767 321.417 111.553C322.615 114.327 325.289 116.246 328.145 117.233C335.071 119.626 339.219 118.12 345.804 116.35C351.222 114.894 356.559 114.535 360.685 119.039C374.488 134.105 344.696 151.012 336.558 159.26C333.012 162.854 329.235 166.968 329.122 172.015C328.932 180.529 339.515 185.561 347.899 184.06C360.296 181.84 368.975 171.375 381.959 177.863C391.51 182.637 391.598 196.772 388.59 205.576C386.056 212.993 381.18 219.375 375.946 225.208C362.725 239.943 346.813 252.011 330.442 263.142" fill="#839299"/>
<path d="M213.186 257.047C284.413 257.047 342.154 254.833 342.154 252.103C342.154 249.373 284.413 247.159 213.186 247.159C141.959 247.159 84.2188 249.373 84.2188 252.103C84.2188 254.833 141.959 257.047 213.186 257.047Z" fill="#0054A6"/>
<path d="M307.219 218.334H107.996C104.754 218.334 102.125 215.705 102.125 212.462V91.5361C102.125 88.2937 104.754 85.665 107.996 85.665H307.219C310.461 85.665 313.09 88.2937 313.09 91.5361V212.462C313.09 215.705 310.462 218.334 307.219 218.334Z" fill="#D7D8DC"/>
<path d="M313.09 198.349H102.125V71.5507C102.125 68.3083 104.754 65.6797 107.996 65.6797H307.219C310.461 65.6797 313.09 68.3083 313.09 71.5507L313.09 198.349Z" fill="#494982"/>
<path d="M305.602 191.023V72.9561L109.239 72.9561L109.239 191.023L305.602 191.023Z" fill="#D4F9FF"/>
<mask id="mask0_18062_9373" style="mask-type:luminance" maskUnits="userSpaceOnUse" x="108" y="85" width="198" height="115">
<path d="M297.26 199.087H117.731C112.907 199.087 108.996 195.176 108.996 190.352V94.2371C108.996 89.4127 112.907 85.5021 117.731 85.5021H297.26C302.085 85.5021 305.996 89.4127 305.996 94.2371V190.352C305.996 195.176 302.085 199.087 297.26 199.087Z" fill="white"/>
</mask>
<g mask="url(#mask0_18062_9373)">
<path d="M106.129 146.142L101.215 145.993C99.3844 145.939 97.9395 144.403 97.995 142.573C98.0497 140.742 99.5841 139.298 101.415 139.352L106.329 139.501C107.696 139.542 108.847 140.408 109.319 141.607L111.902 141.685C111.386 139.103 109.145 137.115 106.403 137.032L101.489 136.884C98.2977 136.788 95.6228 139.307 95.5261 142.499C95.4302 145.691 97.949 148.366 101.141 148.461L106.055 148.61C108.797 148.691 111.153 146.842 111.824 144.296L109.241 144.219C108.697 145.387 107.496 146.182 106.129 146.142Z" fill="#FBDF62"/>
<path d="M119.472 139.896L124.386 140.043C125.753 140.084 126.904 140.951 127.376 142.151L129.96 142.228C129.443 139.646 127.203 137.658 124.461 137.576L119.547 137.428C116.804 137.345 114.449 139.194 113.777 141.741L116.36 141.819C116.904 140.651 118.105 139.855 119.472 139.896Z" fill="#FBDF62"/>
<path d="M124.187 146.685L119.273 146.537C117.906 146.496 116.755 145.629 116.283 144.431L113.699 144.353C114.217 146.935 116.457 148.922 119.199 149.005L124.114 149.154C126.855 149.235 129.211 147.386 129.882 144.84L127.299 144.762C126.755 145.93 125.555 146.726 124.187 146.685Z" fill="#FBDF62"/>
<path d="M107.129 142.848C107.108 143.57 107.675 144.171 108.396 144.193L109.241 144.219C109.426 143.822 109.536 143.384 109.549 142.921C109.564 142.457 109.479 142.014 109.319 141.607L108.475 141.582C107.753 141.56 107.151 142.126 107.129 142.848Z" fill="#FBDF62"/>
<path d="M113.585 143.042C113.598 142.592 113.668 142.158 113.778 141.741L111.903 141.685C111.987 142.108 112.031 142.545 112.018 142.995C112.004 143.444 111.934 143.879 111.824 144.296L113.699 144.353C113.615 143.929 113.571 143.492 113.585 143.042Z" fill="#FBDF62"/>
<path d="M118.558 143.192C118.58 142.472 118.012 141.869 117.291 141.848L116.361 141.82C116.176 142.216 116.066 142.653 116.052 143.117C116.038 143.58 116.122 144.025 116.282 144.432L117.213 144.459C117.934 144.481 118.536 143.913 118.558 143.192Z" fill="#FBDF62"/>
<path d="M111.904 141.685L109.321 141.608C109.481 142.014 109.565 142.457 109.55 142.921C109.537 143.385 109.427 143.823 109.242 144.219L111.825 144.297C111.935 143.879 112.005 143.445 112.019 142.995C112.032 142.546 111.988 142.109 111.904 141.685Z" fill="#FBDF62"/>
<path d="M116.053 143.117C116.066 142.653 116.176 142.216 116.361 141.82L113.778 141.742C113.668 142.159 113.598 142.593 113.584 143.043C113.571 143.492 113.615 143.93 113.699 144.353L116.282 144.432C116.122 144.025 116.038 143.58 116.053 143.117Z" fill="#FBDF62"/>
<path d="M132.383 143.608C132.397 143.159 132.467 142.724 132.577 142.307L129.962 142.228C130.047 142.651 130.09 143.089 130.077 143.539C130.064 143.988 129.994 144.423 129.883 144.84L132.498 144.919C132.414 144.496 132.37 144.058 132.383 143.608Z" fill="#FBDF62"/>
<path d="M136.844 143.743C136.866 143.021 136.299 142.419 135.578 142.398L135.158 142.384C134.973 142.78 134.863 143.219 134.849 143.682C134.834 144.146 134.918 144.59 135.079 144.997L135.499 145.009C136.221 145.031 136.823 144.464 136.844 143.743Z" fill="#FBDF62"/>
<path d="M125.419 143.398C125.396 144.12 125.964 144.722 126.684 144.743L127.299 144.762C127.484 144.365 127.594 143.928 127.608 143.464C127.622 143.001 127.538 142.557 127.378 142.151L126.763 142.132C126.042 142.111 125.44 142.677 125.419 143.398Z" fill="#FBDF62"/>
<path d="M129.959 142.228L127.375 142.151C127.535 142.557 127.619 143.001 127.605 143.465C127.592 143.928 127.482 144.366 127.297 144.762L129.88 144.84C129.991 144.423 130.061 143.989 130.074 143.539C130.088 143.089 130.044 142.652 129.959 142.228Z" fill="#FBDF62"/>
<path d="M142.984 147.251L138.07 147.104C136.702 147.062 135.552 146.195 135.08 144.997L132.496 144.919C133.014 147.501 135.253 149.488 137.996 149.572L142.91 149.719C145.652 149.801 148.008 147.952 148.679 145.406L146.096 145.328C145.551 146.496 144.352 147.292 142.984 147.251Z" fill="#FBDF62"/>
<path d="M138.269 140.462L143.184 140.61C144.551 140.651 145.701 141.518 146.174 142.716L148.757 142.794C148.24 140.212 146 138.224 143.258 138.141L138.343 137.993C135.602 137.912 133.246 139.761 132.574 142.307L135.158 142.384C135.702 141.217 136.903 140.421 138.269 140.462Z" fill="#FBDF62"/>
<path d="M134.85 143.682C134.864 143.218 134.974 142.78 135.159 142.384L132.575 142.307C132.465 142.724 132.395 143.158 132.381 143.607C132.368 144.058 132.411 144.495 132.496 144.918L135.08 144.996C134.919 144.589 134.835 144.146 134.85 143.682Z" fill="#FBDF62"/>
<path d="M161.043 147.794L156.129 147.646C154.762 147.604 153.611 146.738 153.138 145.54L150.555 145.461C151.072 148.044 153.312 150.031 156.054 150.114L160.968 150.262C163.711 150.344 166.066 148.495 166.738 145.949L164.155 145.871C163.611 147.039 162.41 147.834 161.043 147.794Z" fill="#FBDF62"/>
<path d="M156.328 141.005L161.242 141.154C162.609 141.195 163.76 142.061 164.232 143.26L166.816 143.338C166.298 140.756 164.058 138.768 161.316 138.685L156.402 138.537C153.66 138.455 151.304 140.304 150.633 142.85L153.216 142.929C153.76 141.761 154.96 140.964 156.328 141.005Z" fill="#FBDF62"/>
<path d="M155.413 144.301C155.435 143.58 154.868 142.978 154.147 142.956L153.216 142.928C153.031 143.324 152.921 143.762 152.908 144.226C152.894 144.69 152.978 145.133 153.138 145.54L154.068 145.568C154.789 145.589 155.392 145.022 155.413 144.301Z" fill="#FBDF62"/>
<path d="M143.985 143.958C143.963 144.679 144.53 145.281 145.252 145.303L146.096 145.328C146.28 144.932 146.391 144.494 146.405 144.031C146.419 143.567 146.335 143.123 146.175 142.717L145.33 142.691C144.609 142.67 144.006 143.237 143.985 143.958Z" fill="#FBDF62"/>
<path d="M150.439 144.152C150.453 143.702 150.523 143.268 150.633 142.85L148.758 142.794C148.843 143.217 148.887 143.655 148.873 144.104C148.86 144.554 148.79 144.989 148.68 145.406L150.554 145.462C150.47 145.039 150.426 144.601 150.439 144.152Z" fill="#FBDF62"/>
<path d="M148.759 142.794L146.176 142.716C146.336 143.123 146.42 143.566 146.406 144.03C146.392 144.494 146.282 144.931 146.098 145.328L148.681 145.405C148.791 144.988 148.861 144.554 148.874 144.104C148.888 143.654 148.844 143.217 148.759 142.794Z" fill="#FBDF62"/>
<path d="M152.909 144.226C152.922 143.762 153.032 143.324 153.217 142.928L150.634 142.85C150.524 143.268 150.454 143.702 150.44 144.151C150.426 144.601 150.471 145.038 150.555 145.462L153.139 145.54C152.979 145.133 152.895 144.69 152.909 144.226Z" fill="#FBDF62"/>
<path d="M172.436 143.506L166.818 143.337C166.902 143.76 166.946 144.198 166.932 144.647C166.918 145.097 166.848 145.531 166.738 145.949L172.358 146.118C173.078 146.14 173.681 145.572 173.703 144.852C173.724 144.131 173.157 143.528 172.436 143.506Z" fill="#FBDF62"/>
<path d="M162.274 144.508C162.253 145.229 162.82 145.832 163.541 145.853L164.156 145.872C164.34 145.476 164.45 145.037 164.464 144.574C164.478 144.11 164.394 143.667 164.234 143.261L163.619 143.242C162.899 143.22 162.295 143.787 162.274 144.508Z" fill="#FBDF62"/>
<path d="M166.815 143.338L164.231 143.26C164.391 143.667 164.475 144.11 164.461 144.573C164.447 145.037 164.337 145.475 164.152 145.872L166.735 145.949C166.846 145.532 166.915 145.097 166.93 144.648C166.943 144.198 166.899 143.761 166.815 143.338Z" fill="#FBDF62"/>
<path d="M224.672 185.73L252.724 172.188L252.433 105.539L224.383 119.082L224.672 185.73Z" fill="#054482"/>
<path d="M224.382 119.082L252.432 105.539L189.031 101.497L160.98 115.039L224.382 119.082Z" fill="#1371C5"/>
<path d="M160.98 115.039L161.271 181.688L224.671 185.73L224.382 119.082L160.98 115.039Z" fill="#0054A6"/>
<path d="M233.007 161.659L244.217 156.247L244.102 129.61L232.891 135.022L233.007 161.659Z" fill="#25275C"/>
<path d="M244.173 146.029C244.088 146.19 244.022 146.36 243.965 146.536L244.176 146.543L244.173 146.029Z" fill="white"/>
<path d="M244.173 146.029C244.088 146.19 244.022 146.36 243.965 146.536L244.176 146.543L244.173 146.029Z" stroke="#100F0D" stroke-width="1.33333" stroke-miterlimit="10"/>
<path d="M247.209 144.233L252.123 144.381C253.49 144.422 254.641 145.289 255.113 146.488L257.697 146.565C257.18 143.983 254.939 141.995 252.198 141.913L247.283 141.765C246.142 141.731 245.07 142.035 244.156 142.58L244.171 146.029C244.742 144.934 245.894 144.194 247.209 144.233Z" fill="#FBDF62"/>
<path d="M251.925 151.022L247.011 150.874C245.8 150.838 244.769 150.147 244.218 149.157L244.188 149.157L244.203 152.56C245.009 153.031 245.94 153.313 246.937 153.343L251.852 153.491C254.593 153.573 256.95 151.724 257.62 149.177L255.038 149.1C254.493 150.268 253.293 151.064 251.925 151.022Z" fill="#FBDF62"/>
<path d="M241.43 146.46L243.964 146.536C244.021 146.36 244.087 146.191 244.172 146.029L244.157 142.58C242.764 143.409 241.748 144.806 241.43 146.46Z" fill="#FBDF62"/>
<path d="M241.523 149.078C241.927 150.553 242.901 151.802 244.201 152.561L244.186 149.157L241.523 149.078Z" fill="#FBDF62"/>
<path d="M269.984 151.566L265.07 151.418C263.702 151.377 262.552 150.51 262.079 149.312L259.496 149.234C260.014 151.816 262.253 153.804 264.995 153.886L269.91 154.034C272.651 154.117 275.008 152.267 275.679 149.72L273.096 149.644C272.551 150.811 271.352 151.607 269.984 151.566Z" fill="#FBDF62"/>
<path d="M265.27 144.777L270.184 144.925C271.551 144.965 272.702 145.832 273.174 147.032L275.757 147.108C275.24 144.527 273 142.539 270.258 142.457L265.344 142.309C262.602 142.226 260.246 144.075 259.574 146.622L262.157 146.699C262.702 145.532 263.902 144.735 265.27 144.777Z" fill="#FBDF62"/>
<path d="M252.926 147.729C252.904 148.45 253.471 149.053 254.192 149.074L255.038 149.1C255.222 148.703 255.332 148.265 255.345 147.801C255.36 147.338 255.276 146.895 255.116 146.488L254.271 146.463C253.55 146.441 252.948 147.007 252.926 147.729Z" fill="#FBDF62"/>
<path d="M264.355 148.074C264.377 147.352 263.81 146.75 263.089 146.729L262.157 146.7C261.973 147.096 261.863 147.535 261.849 147.998C261.836 148.461 261.919 148.906 262.079 149.312L263.009 149.34C263.731 149.362 264.333 148.794 264.355 148.074Z" fill="#FBDF62"/>
<path d="M259.378 147.923C259.391 147.473 259.462 147.04 259.571 146.622L257.696 146.566C257.781 146.989 257.825 147.426 257.811 147.876C257.798 148.326 257.728 148.759 257.617 149.177L259.492 149.233C259.408 148.81 259.365 148.373 259.378 147.923Z" fill="#FBDF62"/>
<path d="M257.701 146.565L255.117 146.488C255.277 146.894 255.362 147.337 255.347 147.801C255.333 148.264 255.223 148.703 255.039 149.099L257.621 149.177C257.732 148.759 257.802 148.326 257.815 147.875C257.829 147.426 257.785 146.988 257.701 146.565Z" fill="#FBDF62"/>
<path d="M261.849 147.998C261.863 147.535 261.974 147.096 262.157 146.7L259.574 146.622C259.465 147.04 259.395 147.474 259.381 147.924C259.368 148.373 259.411 148.811 259.496 149.234L262.079 149.312C261.919 148.906 261.836 148.461 261.849 147.998Z" fill="#FBDF62"/>
<path d="M271.212 148.28C271.19 149.001 271.757 149.603 272.478 149.625L273.093 149.644C273.277 149.247 273.387 148.809 273.402 148.345C273.415 147.882 273.332 147.438 273.172 147.032L272.557 147.013C271.835 146.992 271.233 147.558 271.212 148.28Z" fill="#FBDF62"/>
<path d="M282.642 148.624C282.663 147.902 282.096 147.301 281.374 147.278L280.954 147.266C280.77 147.662 280.66 148.1 280.646 148.563C280.632 149.027 280.716 149.471 280.876 149.877L281.297 149.89C282.018 149.912 282.62 149.345 282.642 148.624Z" fill="#FBDF62"/>
<path d="M278.18 148.49C278.194 148.039 278.263 147.605 278.374 147.188L275.758 147.109C275.843 147.533 275.887 147.97 275.873 148.42C275.86 148.869 275.79 149.304 275.68 149.721L278.294 149.8C278.21 149.377 278.166 148.939 278.18 148.49Z" fill="#FBDF62"/>
<path d="M275.755 147.108L273.172 147.031C273.332 147.437 273.416 147.881 273.403 148.345C273.388 148.808 273.278 149.247 273.094 149.643L275.677 149.72C275.787 149.303 275.857 148.868 275.87 148.419C275.884 147.969 275.84 147.532 275.755 147.108Z" fill="#FBDF62"/>
<path d="M288.781 152.131L283.867 151.984C282.5 151.942 281.349 151.075 280.877 149.877L278.293 149.799C278.811 152.382 281.051 154.369 283.793 154.452L288.707 154.6C291.449 154.682 293.805 152.832 294.476 150.286L291.894 150.209C291.349 151.377 290.148 152.172 288.781 152.131Z" fill="#FBDF62"/>
<path d="M284.066 145.343L288.981 145.49C290.347 145.532 291.498 146.399 291.97 147.598L294.554 147.675C294.036 145.093 291.797 143.106 289.055 143.022L284.14 142.875C281.398 142.793 279.042 144.642 278.371 147.188L280.954 147.266C281.498 146.098 282.699 145.302 284.066 145.343Z" fill="#FBDF62"/>
<path d="M280.647 148.563C280.661 148.099 280.77 147.662 280.955 147.265L278.372 147.188C278.261 147.605 278.192 148.039 278.178 148.489C278.164 148.939 278.209 149.376 278.293 149.799L280.876 149.877C280.716 149.47 280.632 149.027 280.647 148.563Z" fill="#FBDF62"/>
<path d="M306.839 152.675L301.925 152.526C300.558 152.486 299.407 151.619 298.935 150.421L296.352 150.342C296.868 152.924 299.109 154.912 301.85 154.995L306.764 155.143C309.507 155.226 311.863 153.376 312.534 150.83L309.951 150.752C309.407 151.92 308.207 152.716 306.839 152.675Z" fill="#FBDF62"/>
<path d="M302.124 145.885L307.039 146.033C308.406 146.075 309.556 146.941 310.029 148.14L312.613 148.218C312.095 145.636 309.855 143.648 307.114 143.566L302.199 143.417C299.457 143.335 297.101 145.185 296.43 147.731L299.013 147.808C299.557 146.641 300.757 145.845 302.124 145.885Z" fill="#FBDF62"/>
<path d="M301.211 149.183V149.182C301.232 148.461 300.665 147.859 299.944 147.837L299.013 147.809C298.829 148.205 298.719 148.643 298.705 149.107C298.69 149.57 298.774 150.013 298.935 150.421L299.865 150.449C300.586 150.471 301.189 149.903 301.211 149.183Z" fill="#FBDF62"/>
<path d="M296.237 149.032C296.25 148.582 296.32 148.148 296.43 147.731L294.556 147.674C294.64 148.097 294.683 148.535 294.671 148.985C294.657 149.434 294.587 149.869 294.477 150.286L296.352 150.342C296.267 149.919 296.223 149.482 296.237 149.032Z" fill="#FBDF62"/>
<path d="M289.782 148.838C289.76 149.559 290.327 150.161 291.048 150.183L291.894 150.209C292.078 149.813 292.188 149.374 292.202 148.911C292.216 148.447 292.132 148.003 291.972 147.597L291.127 147.571C290.406 147.55 289.804 148.117 289.782 148.838Z" fill="#FBDF62"/>
<path d="M294.552 147.675L291.968 147.598C292.128 148.003 292.212 148.447 292.198 148.911C292.185 149.375 292.075 149.813 291.891 150.209L294.473 150.286C294.583 149.869 294.654 149.435 294.667 148.986C294.68 148.535 294.636 148.098 294.552 147.675Z" fill="#FBDF62"/>
<path d="M298.705 149.107C298.719 148.643 298.829 148.205 299.013 147.809L296.43 147.732C296.32 148.149 296.25 148.583 296.237 149.032C296.223 149.482 296.267 149.919 296.352 150.342L298.935 150.421C298.775 150.014 298.691 149.57 298.705 149.107Z" fill="#FBDF62"/>
<path d="M234.037 144.221C235.404 144.262 236.554 145.128 237.027 146.328L239.611 146.405C239.094 143.823 236.853 141.835 234.112 141.753L232.922 141.717L232.932 144.188L234.037 144.221Z" fill="#FBDF62"/>
<path d="M239.531 149.017L236.948 148.939C236.405 150.108 235.204 150.903 233.837 150.862L232.961 150.836L232.972 153.307L233.762 153.33C236.505 153.413 238.86 151.564 239.531 149.017Z" fill="#FBDF62"/>
<path d="M246.494 147.92C246.516 147.199 245.95 146.597 245.228 146.575L244.176 146.544L244.186 149.097C244.197 149.118 244.207 149.139 244.217 149.158L245.15 149.187C245.87 149.208 246.473 148.641 246.494 147.92Z" fill="#FBDF62"/>
<path d="M241.323 147.379C241.333 147.066 241.374 146.76 241.432 146.46L239.611 146.405C239.695 146.829 239.738 147.266 239.725 147.715C239.711 148.165 239.641 148.599 239.531 149.017L241.525 149.077C241.377 148.537 241.305 147.967 241.323 147.379Z" fill="#FBDF62"/>
<path d="M244.186 149.098L244.176 146.544L243.965 146.537C243.87 146.829 243.8 147.133 243.79 147.455C243.773 148.05 243.926 148.605 244.186 149.098Z" fill="#FBDF62"/>
<path d="M237.027 146.328L236.413 146.31C235.692 146.287 235.089 146.854 235.067 147.575C235.046 148.297 235.612 148.899 236.334 148.921L236.949 148.939C237.133 148.543 237.243 148.105 237.257 147.641C237.271 147.178 237.187 146.734 237.027 146.328Z" fill="#FBDF62"/>
<path d="M244.188 149.156L244.219 149.157C244.208 149.138 244.199 149.117 244.188 149.096L244.188 149.156Z" fill="#FBDF62"/>
<path d="M243.791 147.454C243.801 147.132 243.87 146.828 243.966 146.536L241.432 146.46C241.374 146.759 241.333 147.065 241.323 147.379C241.305 147.967 241.377 148.536 241.525 149.077L244.187 149.156L244.187 149.097C243.927 148.605 243.774 148.049 243.791 147.454Z" fill="#FBDF62"/>
<path d="M239.608 146.405L237.024 146.327C237.184 146.734 237.268 147.177 237.254 147.641C237.24 148.104 237.13 148.543 236.945 148.939L239.528 149.017C239.638 148.599 239.708 148.165 239.722 147.715C239.735 147.266 239.692 146.828 239.608 146.405Z" fill="#FBDF62"/>
<path d="M244.218 156.247L233.043 156.06L233.008 161.659L244.218 156.247Z" fill="#0054A6"/>
</g>
<path d="M191.9 160.616C193.747 160.801 195.449 159.635 195.428 157.379C195.408 155.248 194.118 153.572 191.7 153.326L188.316 152.984L188.383 160.263L191.9 160.616ZM188.271 148.256L190.953 148.529C193.284 148.767 193.933 147.623 193.914 145.616C193.896 143.693 192.654 142.439 190.984 142.267L188.213 141.983L188.271 148.256ZM176.734 159.094L179.284 159.35L179.112 140.922L176.562 140.66L176.512 135.257L192.911 136.953C200.209 137.707 203.707 140.655 203.749 145.204C203.781 148.71 202.786 150.318 199.501 151.236C202.672 152.392 205.331 154.872 205.368 158.922C205.423 164.807 201.973 167.05 193.49 166.205L176.784 164.541L176.734 159.094Z" fill="white"/>
<path d="M186.246 141.145L183.357 140.847L183.27 131.403L186.158 131.703L186.246 141.145Z" fill="white"/>
<path d="M192.487 141.786L189.599 141.489L189.512 132.052L192.4 132.352L192.487 141.786Z" fill="white"/>
<path d="M186.518 170.503L183.63 170.218L183.543 160.771L186.43 161.06L186.518 170.503Z" fill="white"/>
<path d="M192.76 171.121L189.872 170.835L189.785 161.396L192.673 161.685L192.76 171.121Z" fill="white"/>
<path d="M305.745 72.9805H109.383V83.1159H305.745V72.9805Z" fill="#D7D8DC"/>
<path d="M118.515 78.7059C118.515 79.6087 117.783 80.3406 116.881 80.3406C115.978 80.3406 115.246 79.6087 115.246 78.7059C115.246 77.8032 115.978 77.0713 116.881 77.0713C117.783 77.0713 118.515 77.8027 118.515 78.7059Z" fill="#0054A6"/>
<path d="M126.426 78.7059C126.426 79.6087 125.694 80.3406 124.791 80.3406C123.888 80.3406 123.156 79.6087 123.156 78.7059C123.156 77.8032 123.888 77.0713 124.791 77.0713C125.694 77.0713 126.426 77.8027 126.426 78.7059Z" fill="#FFD417"/>
<path d="M134.336 78.7059C134.336 79.6087 133.604 80.3406 132.701 80.3406C131.798 80.3406 131.066 79.6087 131.066 78.7059C131.066 77.8032 131.798 77.0713 132.701 77.0713C133.604 77.0713 134.336 77.8027 134.336 78.7059Z" fill="#94C420"/>
<path d="M284.206 76.0166H140.98V80.3409H284.206V76.0166Z" fill="white"/>
<path d="M302.119 78.6042L298.148 76.3115V80.8962L302.119 78.6042Z" fill="#494982"/>
<path d="M291.305 78.6042L295.275 76.3115V80.8962L291.305 78.6042Z" fill="#494982"/>
<path d="M221.474 218.333H191.25V243.416H221.474V218.333Z" fill="#D7D8DC"/>
<path d="M221.474 218.333H191.25V226.386H221.474V218.333Z" fill="#ADACB2"/>
<path d="M249.73 250.694H165.086C165.086 246.675 168.345 243.416 172.364 243.416H242.452C246.472 243.416 249.73 246.675 249.73 250.694Z" fill="#ECEDEF"/>
<path d="M358.257 106.855C358.33 116.023 350.981 123.482 341.812 123.555C332.68 123.627 325.222 116.242 325.149 107.109C325.076 97.941 332.426 90.4825 341.594 90.4097C350.726 90.3369 358.221 97.7227 358.257 106.855Z" fill="#FFDD33"/>
<path d="M354.982 106.892C355.055 114.241 349.124 120.208 341.811 120.281C334.462 120.317 328.459 114.423 328.423 107.074C328.35 99.7243 334.28 93.7575 341.593 93.6847C348.943 93.6484 354.946 99.5424 354.982 106.892Z" fill="#FFEAA9"/>
<path d="M353.201 106.891C353.274 113.258 348.144 118.461 341.777 118.497C335.446 118.534 330.244 113.44 330.207 107.073C330.171 100.706 335.264 95.5034 341.631 95.467C347.962 95.4306 353.165 100.561 353.201 106.891Z" fill="#FFDF7E"/>
<path d="M364.77 137.271C361.277 145.748 351.636 149.823 343.158 146.367C334.681 142.874 330.643 133.232 334.099 124.755C337.556 116.278 347.197 112.239 355.674 115.696C364.151 119.152 368.226 128.794 364.77 137.271Z" fill="#FFDD33"/>
<path d="M361.715 136.034C358.95 142.838 351.2 146.076 344.397 143.311C337.593 140.546 334.355 132.796 337.12 125.992C339.885 119.189 347.635 115.951 354.438 118.716C361.242 121.481 364.48 129.23 361.715 136.034Z" fill="#FFEAA9"/>
<path d="M360.077 135.378C357.676 141.236 350.945 144.074 345.051 141.673C339.193 139.271 336.355 132.541 338.757 126.647C341.158 120.789 347.889 117.951 353.783 120.352C359.64 122.754 362.478 129.484 360.077 135.378Z" fill="#FFDF7E"/>
<path d="M50.8945 65.5973L87.4594 43.7676L100.193 65.0516L63.5922 86.8813L50.8945 65.5973Z" fill="#FFDD33"/>
<path d="M100.195 65.0518L75.5273 65.3428L63.5938 86.8815L100.195 65.0518Z" fill="#FFDD33"/>
<path d="M87.4594 43.7676L77.4541 68.5443L50.8945 65.5973L87.4594 43.7676Z" fill="#FFDD33"/>
<path d="M49.5117 63.487L86.0766 41.6572L98.7742 62.9776L62.2094 84.771L49.5117 63.487Z" fill="#FFDD33"/>
<path d="M98.7758 62.9775L74.1445 63.2322L62.2109 84.7709L98.7758 62.9775Z" fill="#F2D038"/>
<path d="M86.0766 41.6572L76.0349 66.434L49.5117 63.487L86.0766 41.6572Z" fill="#E4C435"/>
<path fill-rule="evenodd" clip-rule="evenodd" d="M224.513 38.9643L218.218 39.8011C211.851 40.6743 205.994 36.2356 205.121 29.8686L203.847 20.5182C202.974 14.1875 207.449 8.32989 213.78 7.4567L220.074 6.58351C226.405 5.71032 232.299 10.1854 233.135 16.516L234.445 25.8665C235.282 32.1971 230.843 38.0911 224.513 38.9643ZM214.362 11.6044C210.287 12.1501 207.449 15.8975 207.995 19.9724L209.268 29.3228C209.814 33.3613 213.598 36.2356 217.636 35.6535L223.931 34.8167C228.005 34.2345 230.843 30.4871 230.298 26.4486L229.024 17.0982C228.442 13.0233 224.695 10.1854 220.656 10.7312L214.362 11.6044Z" fill="#C7D6D6"/>
<path d="M228.08 55.2281L219.129 56.4651C211.125 57.5566 203.703 51.9536 202.612 43.913L202.175 40.7113C201.083 32.7071 206.686 25.285 214.727 24.1935L223.641 22.9564C231.681 21.865 239.104 27.5043 240.195 35.5449L240.632 38.7103C241.723 46.7509 236.12 54.1366 228.08 55.2281Z" fill="#C7D6D6"/>
<path d="M206.94 42.0205C205.412 40.8562 203.774 39.4736 202.246 37.9092C202.137 39.1462 202.137 40.3832 202.319 41.6566L202.465 42.9664C203.665 51.5164 211.524 57.5196 220.074 56.3189L227.132 55.373C234.409 54.3906 239.794 48.533 240.521 41.5475C230.334 48.2419 216.727 48.5694 206.94 42.0205Z" fill="#C7D6D6"/>
<path fill-rule="evenodd" clip-rule="evenodd" d="M223.238 36.454L216.98 37.2908C210.613 38.164 204.755 33.7253 203.882 27.3583L202.609 18.0443C201.736 11.6773 206.211 5.81961 212.541 4.94642L218.836 4.10961C225.166 3.23642 231.024 7.67514 231.897 14.0421L233.171 23.3562C234.044 29.7232 229.605 35.5808 223.238 36.454ZM213.087 9.09407C209.049 9.63981 206.211 13.4236 206.757 17.4621L208.03 26.8125C208.576 30.8511 212.323 33.7253 216.398 33.1796L222.692 32.3064C226.731 31.7606 229.605 27.9768 229.059 23.9383L227.75 14.5879C227.204 10.5494 223.456 7.67514 219.381 8.22088L213.087 9.09407Z" fill="#BF981E"/>
<path d="M226.841 52.7532L217.891 53.9539C209.85 55.0453 202.465 49.4424 201.373 41.4018L200.937 38.2364C199.845 30.1958 205.448 22.7737 213.489 21.6822L222.403 20.4816C230.443 19.3901 237.865 24.9931 238.957 33.0337L239.393 36.199C240.485 44.2396 234.846 51.6254 226.841 52.7532Z" fill="#FFD553"/>
<path d="M205.701 39.5107C204.173 38.3464 202.536 36.9639 201.007 35.3994C200.898 36.6364 200.898 37.8734 201.044 39.1469L201.226 40.4566C202.39 49.0066 210.285 55.0098 218.835 53.8456L225.893 52.8632C233.17 51.8809 238.555 46.0232 239.282 39.0377C229.095 45.7322 215.488 46.0596 205.701 39.5107Z" fill="#FFDD33"/>
<path d="M223.529 31.688C223.82 33.8709 222.292 35.872 220.109 36.1995C217.926 36.4905 215.925 34.9624 215.634 32.7794C215.307 30.5965 216.835 28.559 219.018 28.268C221.201 27.9769 223.238 29.505 223.529 31.688Z" fill="#806514"/>
<path d="M219.563 32.2334L217.816 44.8947L225.202 43.8759L219.563 32.2334Z" fill="#806514"/>
<path d="M72.9403 154.408C72.9403 154.384 72.9403 154.372 72.9403 154.372C71.1939 146.622 65.2635 141.128 58.8965 140.837C61.1522 139.055 62.3528 135.926 61.6252 132.797C60.6792 128.503 56.6407 125.775 52.6386 126.648C48.6001 127.558 46.1261 131.742 47.072 136.035C47.7997 139.2 50.1646 141.492 52.9661 142.147C47.3631 145.13 44.3069 152.625 46.0533 160.375C46.0533 160.375 46.0533 160.387 46.0533 160.411C46.1988 161.139 46.8537 161.612 47.4722 161.466L72.1035 155.973C72.722 155.827 73.0858 155.136 72.9403 154.408Z" fill="#C7D6D6"/>
<path d="M58.8965 140.837C61.1522 139.055 62.3528 135.926 61.6252 132.797C60.6792 128.503 56.6407 125.775 52.6386 126.648C48.6001 127.558 46.1261 131.742 47.072 136.035C47.7997 139.2 50.1646 141.492 52.966 142.147C47.3631 145.13 44.3069 152.625 46.0533 160.375C46.0533 160.375 46.0533 160.387 46.0533 160.411C46.1988 161.139 46.8537 161.612 47.4722 161.466L55.6584 159.647C56.8954 153.28 58.7146 146.95 62.0618 141.419C61.0067 141.092 59.9516 140.874 58.8965 140.837Z" fill="#C7D6D6"/>
<path d="M92.588 155.682C90.8416 147.896 84.9112 142.402 78.5442 142.111C80.8 140.329 81.9642 137.236 81.2729 134.071C80.327 129.814 76.2885 127.049 72.2864 127.958C68.2479 128.832 65.7738 133.052 66.7198 137.309C67.4474 140.474 69.8123 142.803 72.6138 143.421C66.9744 146.405 63.9547 153.899 65.701 161.685C65.8466 162.413 66.5015 162.886 67.12 162.777L91.7512 157.283C92.3697 157.137 92.7336 156.41 92.588 155.682Z" fill="#C7D6D6"/>
<path d="M83.7106 143.53C82.0734 142.693 80.327 142.184 78.5442 142.111C80.8 140.329 81.9642 137.236 81.2729 134.071C80.327 129.814 76.2885 127.049 72.2864 127.958C68.2479 128.832 65.7738 133.052 66.7198 137.309C67.4474 140.474 69.8123 142.803 72.6138 143.421C66.9744 146.405 63.9547 153.899 65.701 161.685C65.8466 162.413 66.5015 162.886 67.12 162.777L68.6117 162.449C75.2698 157.756 80.9455 151.134 83.7106 143.53Z" fill="#C7D6D6"/>
<path d="M70.2857 105.837L63.8095 107.255C60.1712 108.092 57.9155 111.658 58.7159 115.296C59.5163 118.898 63.1182 121.154 66.7201 120.353L72.505 119.08C72.9416 120.208 73.0871 121.481 72.8325 122.682C73.451 121.445 73.8876 120.062 74.0331 118.68C77.162 117.552 79.0539 114.241 78.2899 110.894C77.4895 107.292 73.924 105 70.2857 105.837Z" fill="#C7D6D6"/>
<path d="M66.3932 113.914C66.3932 114.605 65.8475 115.151 65.1562 115.151C64.4649 115.151 63.8828 114.605 63.8828 113.914C63.8828 113.186 64.4649 112.641 65.1562 112.641C65.8475 112.641 66.3932 113.186 66.3932 113.914Z" fill="#C7D6D6"/>
<path d="M70.5417 112.641C70.5417 113.332 69.9959 113.914 69.2683 113.914C68.577 113.914 68.0312 113.332 68.0312 112.641C68.0312 111.949 68.577 111.367 69.2683 111.367C69.9959 111.367 70.5417 111.949 70.5417 112.641Z" fill="#C7D6D6"/>
<path d="M74.5065 111.513C74.5065 112.204 73.9608 112.75 73.2695 112.75C72.5418 112.75 71.9961 112.204 71.9961 111.513C71.9961 110.785 72.5418 110.239 73.2695 110.239C73.9608 110.239 74.5065 110.785 74.5065 111.513Z" fill="#C7D6D6"/>
<path d="M71.3775 152.08C71.3775 152.08 71.3775 152.068 71.3775 152.044C69.6311 144.294 63.7007 138.8 57.3337 138.509C59.6258 136.727 60.7901 133.634 60.0988 130.469C59.1165 126.176 55.1144 123.447 51.0759 124.356C47.0737 125.23 44.5633 129.45 45.5456 133.707C46.2369 136.872 48.6382 139.201 51.4397 139.819C45.8003 142.803 42.7442 150.297 44.4905 158.047C44.4905 158.071 44.4905 158.083 44.4905 158.083C44.6725 158.811 45.291 159.284 45.9095 159.139L70.5407 153.645C71.1592 153.536 71.5594 152.808 71.3775 152.08Z" fill="#0054A6"/>
<path d="M57.3337 138.509C59.6258 136.727 60.7901 133.634 60.0988 130.469C59.1165 126.176 55.1144 123.447 51.0759 124.356C47.0737 125.23 44.5633 129.45 45.5456 133.707C46.2369 136.872 48.6382 139.201 51.4397 139.819C45.8003 142.803 42.7442 150.297 44.4905 158.047C44.4905 158.071 44.4905 158.083 44.4905 158.083C44.6725 158.811 45.291 159.284 45.9095 159.139L54.0956 157.319C55.3327 150.952 57.1518 144.658 60.499 139.092C59.4803 138.764 58.4252 138.546 57.3337 138.509Z" fill="#4783BE"/>
<path d="M91.026 153.353C89.2796 145.567 83.3492 140.073 76.9822 139.782C79.2743 137.999 80.4385 134.907 79.7473 131.742C78.7649 127.485 74.7264 124.72 70.7243 125.629C66.7222 126.539 64.2117 130.723 65.1941 134.98C65.8854 138.145 68.2503 140.474 71.0881 141.092C65.4488 144.075 62.3926 151.57 64.139 159.356C64.3209 160.084 64.9394 160.593 65.5579 160.448L90.1892 154.954C90.8077 154.808 91.2079 154.117 91.026 153.353Z" fill="#8CC63F"/>
<path d="M82.1849 141.201C80.5477 140.364 78.8013 139.855 76.9822 139.782C79.2743 137.999 80.4385 134.907 79.7473 131.742C78.7649 127.485 74.7264 124.72 70.7243 125.629C66.7222 126.539 64.2117 130.723 65.1941 135.016C65.8854 138.145 68.2503 140.474 71.0881 141.092C65.4488 144.075 62.3926 151.57 64.139 159.356C64.3209 160.084 64.9394 160.593 65.5579 160.448L67.0496 160.12C73.7441 155.463 79.3834 148.805 82.1849 141.201Z" fill="#A3D165"/>
<path d="M68.7578 103.508L62.2453 104.964C58.6434 105.764 56.3512 109.33 57.1517 112.968C57.9885 116.57 61.554 118.862 65.1923 118.025L70.9408 116.752C71.4138 117.88 71.5593 119.153 71.2682 120.354C71.9231 119.117 72.3233 117.734 72.5053 116.352C75.6342 115.224 77.4897 111.913 76.7621 108.566C75.9616 104.964 72.3597 102.672 68.7578 103.508Z" fill="#E55652"/>
<path d="M64.0642 111.185C63.9915 111.877 63.3729 112.386 62.6817 112.313C61.9904 112.24 61.481 111.622 61.5538 110.931C61.6266 110.239 62.2451 109.73 62.9363 109.803C63.6276 109.876 64.137 110.458 64.0642 111.185Z" fill="white"/>
<path d="M68.3221 110.312C68.2493 111.004 67.6308 111.513 66.9395 111.44C66.2482 111.367 65.7389 110.749 65.7753 110.058C65.848 109.366 66.4665 108.857 67.1578 108.93C67.8491 109.003 68.3585 109.621 68.3221 110.312Z" fill="white"/>
<path d="M72.3611 109.549C72.2883 110.24 71.6698 110.749 70.9785 110.677C70.2873 110.604 69.7779 109.985 69.8507 109.294C69.9234 108.603 70.5419 108.093 71.2332 108.166C71.9245 108.239 72.4339 108.857 72.3611 109.549Z" fill="white"/>
<path fill-rule="evenodd" clip-rule="evenodd" d="M330.895 36.5272C331.004 38.5282 330.749 40.4929 330.131 42.3485L333.587 44.5678L330.094 50.0253L326.893 47.9514C325.474 49.5159 323.764 50.7893 321.835 51.6989L322.599 55.2644L316.269 56.6469L315.541 53.1906C313.322 53.2633 311.175 52.8267 309.211 52.0263L307.282 55.0461L301.825 51.5533L303.826 48.4244C302.407 46.9691 301.243 45.1863 300.479 43.2216L296.586 44.0584L295.203 37.7642L299.387 36.8182C299.46 34.8536 299.897 32.9617 300.661 31.2153L296.804 28.7412L300.297 23.2838L304.372 25.9034C305.645 24.7027 307.173 23.684 308.847 22.9564L307.792 18.081L314.086 16.6621L315.214 21.6466C316.996 21.6466 318.743 21.974 320.38 22.5561L323.109 18.263L328.566 21.7557L325.91 25.9034C327.22 27.1404 328.348 28.5957 329.185 30.2693L333.769 29.2506L335.188 35.5812L330.895 36.5272ZM326.019 35.0355C324.71 28.9959 318.743 25.2121 312.74 26.5219C306.7 27.8681 302.916 33.7985 304.226 39.838C305.572 45.8412 311.503 49.6614 317.542 48.3153C323.545 47.0055 327.366 41.0387 326.019 35.0355Z" fill="#808080"/>
<path fill-rule="evenodd" clip-rule="evenodd" d="M326.019 35.0353C327.365 41.0385 323.545 47.0053 317.542 48.315C311.539 49.6612 305.572 45.841 304.262 39.8378C302.916 33.7983 306.736 27.8678 312.739 26.5217C318.743 25.2119 324.709 28.9957 326.019 35.0353ZM319.361 36.4906C318.852 34.1621 316.56 32.6704 314.195 33.1797C311.866 33.6891 310.375 36.0176 310.884 38.3461C311.43 40.711 313.722 42.1663 316.087 41.657C318.415 41.1476 319.907 38.8191 319.361 36.4906Z" fill="#B3B3B3"/>
<path fill-rule="evenodd" clip-rule="evenodd" d="M354.469 41.5846C354.797 42.7489 354.906 43.9495 354.797 45.1138L357.125 45.9869L355.779 49.6616L353.596 48.8612C352.978 49.9527 352.141 50.935 351.122 51.7354L352.032 53.7365L348.502 55.3737L347.593 53.4454C346.283 53.7729 344.973 53.8093 343.7 53.591L342.972 55.592L339.298 54.2459L340.062 52.1357C339.043 51.4808 338.133 50.5712 337.406 49.5161L335.223 50.5348L333.585 46.9693L335.914 45.8778C335.696 44.7135 335.732 43.5493 335.95 42.4214L333.367 41.4755L334.677 37.8008L337.442 38.7831C338.061 37.9099 338.788 37.1095 339.698 36.4546L338.424 33.7259L341.99 32.0887L343.263 34.8538C344.318 34.6355 345.41 34.5991 346.429 34.7082L347.484 31.834L351.158 33.1801L350.14 35.9816C351.086 36.5274 351.959 37.255 352.65 38.1282L355.233 36.9276L356.871 40.4567L354.469 41.5846ZM351.413 41.3299C349.849 37.9827 345.847 36.491 342.463 38.0918C339.079 39.6563 337.624 43.6584 339.188 47.042C340.753 50.4257 344.755 51.881 348.139 50.3165C351.522 48.752 352.978 44.7135 351.413 41.3299Z" fill="#B3B3B3"/>
<path d="M346.396 46.5696C345.086 47.1881 343.521 46.606 342.939 45.2962C342.321 43.9864 342.903 42.4219 344.213 41.8034C345.522 41.1849 347.087 41.767 347.669 43.0768C348.287 44.3866 347.742 45.9511 346.396 46.5696Z" fill="#808080"/>
<path fill-rule="evenodd" clip-rule="evenodd" d="M335.297 55.4102C336.134 55.8832 336.862 56.5381 337.408 57.3021L339.227 56.5017L340.464 59.3759L338.754 60.1036C339.008 61.0859 339.045 62.1046 338.899 63.1234L340.5 63.7783L339.336 66.6525L337.771 66.034C337.189 66.9072 336.462 67.6712 335.588 68.217L336.28 69.7814L333.405 71.0185L332.714 69.3812C331.732 69.5631 330.713 69.5268 329.731 69.3085L329.003 71.0548L326.129 69.927L326.893 67.9987C326.129 67.4529 325.51 66.7617 325.001 65.9612L323 66.8344L321.763 63.9966L323.91 63.0506C323.764 62.2138 323.8 61.3406 323.946 60.4674L321.727 59.5942L322.891 56.6836L325.147 57.5932C325.62 56.9019 326.238 56.2834 326.893 55.8104L325.947 53.5547L328.821 52.3176L329.731 54.5006C330.604 54.3187 331.477 54.2459 332.35 54.3915L333.187 52.2812L336.098 53.4455L335.297 55.4102ZM333.369 56.9383C330.64 55.8104 327.511 57.1566 326.42 59.9217C325.292 62.6504 326.638 65.7793 329.403 66.9072C332.132 67.9987 335.261 66.6525 336.353 63.9238C337.48 61.1587 336.134 58.0298 333.369 56.9383Z" fill="#808080"/>
<path d="M333.333 62.6865C332.896 63.7417 331.696 64.2874 330.64 63.8508C329.549 63.4142 329.04 62.2136 329.476 61.1221C329.876 60.067 331.113 59.5212 332.169 59.9578C333.26 60.3944 333.769 61.5951 333.333 62.6865Z" fill="#B3B3B3"/>
<path d="M174.452 39.6192C173.688 33.3613 168.449 28.5588 162.409 28.5952C160.117 28.5952 158.771 29.2137 156.988 30.3416C155.533 23.5743 149.529 18.699 142.689 19.2084C135.267 19.7541 129.664 26.485 130.21 34.2709C130.137 33.3977 126.899 32.0879 126.172 31.906C124.425 31.433 122.097 31.2875 120.46 32.1971C117.622 33.7616 115.475 36.6358 114.784 39.8011C113.692 45.0039 116.53 52.0622 122.679 51.6256L167.866 48.2783C171.832 47.9873 174.852 44.3854 174.525 40.2377C174.5 40.0437 174.476 39.8375 174.452 39.6192Z" fill="#4783BE"/>
<path d="M117.331 34.7798C116.094 36.2351 115.184 37.9451 114.784 39.8006C113.692 45.0034 116.53 52.0617 122.679 51.6251L167.866 48.2778C171.832 47.9868 174.852 44.3849 174.525 40.2372C174.5 40.0432 174.476 39.837 174.452 39.6187C174.088 36.5262 172.633 33.8338 170.522 31.8691C156.733 45.2944 132.211 47.5138 117.331 34.7798Z" fill="#0054A6"/>
<path d="M140.907 47.9512L135.74 48.3514L134.758 34.9625L139.924 34.5986L140.907 47.9512Z" fill="#8CC63F"/>
<path d="M136.867 28.3037L132.938 35.6167L141.815 34.9618L136.867 28.3037Z" fill="#8CC63F"/>
<path d="M146.328 27.6129L151.494 27.249L152.477 40.6015L147.31 40.9654L146.328 27.6129Z" fill="#E55652"/>
<path d="M150.366 47.2593L154.295 39.9463L145.418 40.6012L150.366 47.2593Z" fill="#E55652"/>
</g>
<defs>
<clipPath id="clip0_18062_9373">
<rect width="420" height="280" fill="white"/>
</clipPath>
</defs>
</svg>
