<svg width="145" height="30" viewBox="0 0 145 30" fill="none" xmlns="http://www.w3.org/2000/svg">
<mask id="mask0_14497_1157" style="mask-type:luminance" maskUnits="userSpaceOnUse" x="0" y="0" width="26" height="30">
<path d="M12.9275 30L0 22.4997V13.4975L3.45301 15.5008V20.4966L11.201 24.9918V16.0013L0 9.49094V7.49992L12.9275 0L20.6862 4.50111L17.233 6.50423L12.9275 4.00659L5.17934 8.50139L12.9275 12.9967L24.1389 6.50423L25.8548 7.49992V22.4997L18.0965 27.0009V22.9944L22.402 20.4966V11.5063L14.654 16.0015L14.6435 29.0041L12.9275 30ZM0.246741 13.9268V22.3568L12.9275 29.7134L13.914 29.1413L2.21982 22.3568V15.0714L0.246741 13.9268ZM24.1389 6.79034L13.915 12.7109L14.9004 13.2826L25.1245 7.36206L24.1389 6.79034ZM14.9006 3.72031L13.914 4.2927L17.233 6.21812L18.2195 5.6459L14.9006 3.72031Z" fill="white"/>
</mask>
<g mask="url(#mask0_14497_1157)">
<path d="M12.9275 30L0 22.4997V13.4975L3.45301 15.5008V20.4966L11.201 24.9918V16.0013L0 9.49094V7.49992L12.9275 0L20.6862 4.50111L17.233 6.50423L12.9275 4.00659L5.17934 8.50139L12.9275 12.9967L24.1389 6.50423L25.8548 7.49992V22.4997L18.0965 27.0009V22.9944L22.402 20.4966V11.5063L14.654 16.0015L14.6435 29.0041L12.9275 30ZM0.246741 13.9268V22.3568L12.9275 29.7134L13.914 29.1413L2.21982 22.3568V15.0714L0.246741 13.9268ZM24.1389 6.79034L13.915 12.7109L14.9004 13.2826L25.1245 7.36206L24.1389 6.79034ZM14.9006 3.72031L13.914 4.2927L17.233 6.21812L18.2195 5.6459L14.9006 3.72031Z" fill="url(#paint0_linear_14497_1157)"/>
</g>
<mask id="mask1_14497_1157" style="mask-type:luminance" maskUnits="userSpaceOnUse" x="13" y="6" width="13" height="8">
<path d="M14.8878 13.2734L13.9023 12.7017L24.1262 6.78114L25.1118 7.35285L14.8878 13.2734Z" fill="white"/>
</mask>
<g mask="url(#mask1_14497_1157)">
<mask id="mask2_14497_1157" style="mask-type:luminance" maskUnits="userSpaceOnUse" x="13" y="6" width="13" height="8">
<path d="M13.9053 13.2729H25.1147V6.78061H13.9053V13.2729Z" fill="white"/>
</mask>
<g mask="url(#mask2_14497_1157)">
<path d="M13.7822 6.66711H25.2663V13.4016H13.7822V6.66711Z" fill="url(#paint1_linear_14497_1157)"/>
</g>
</g>
<mask id="mask3_14497_1157" style="mask-type:luminance" maskUnits="userSpaceOnUse" x="13" y="3" width="6" height="4">
<path d="M17.2342 6.21753L13.915 4.29211L14.9017 3.71972L18.2207 5.6453L17.2342 6.21753Z" fill="white"/>
</mask>
<g mask="url(#mask3_14497_1157)">
<path d="M13.792 3.578H18.3573V6.37607H13.792V3.578Z" fill="url(#paint2_linear_14497_1157)"/>
</g>
<mask id="mask4_14497_1157" style="mask-type:luminance" maskUnits="userSpaceOnUse" x="0" y="13" width="14" height="17">
<path d="M12.9171 29.6963L0.236328 22.3397V13.9097L2.2094 15.0543V22.3397L13.9035 29.1242L12.9171 29.6963Z" fill="white"/>
</mask>
<g mask="url(#mask4_14497_1157)">
<path d="M0.0966797 13.7883H14.0396V29.844H0.0966797V13.7883Z" fill="url(#paint3_linear_14497_1157)"/>
</g>
<path d="M34.2192 20.8164V9.14131H39.1379C40.0416 9.14131 40.7954 9.26863 41.3992 9.52326C42.0031 9.77789 42.4569 10.1313 42.7608 10.5836C43.0648 11.032 43.2167 11.5489 43.2167 12.1342C43.2167 12.5902 43.1207 12.9912 42.9288 13.337C42.7368 13.6791 42.4729 13.9603 42.137 14.1807C41.8051 14.3974 41.4252 14.5513 40.9973 14.6425V14.7565C41.4652 14.7755 41.9031 14.9009 42.311 15.1328C42.7228 15.3646 43.0568 15.6895 43.3127 16.1076C43.5686 16.5218 43.6966 17.0159 43.6966 17.5898C43.6966 18.2092 43.5346 18.7622 43.2107 19.2487C42.8908 19.7313 42.4169 20.1133 41.7891 20.3945C41.1613 20.6757 40.3875 20.8164 39.4678 20.8164H34.2192ZM36.8165 18.7983H38.9339C39.6577 18.7983 40.1856 18.6672 40.5175 18.405C40.8494 18.1389 41.0153 17.7855 41.0153 17.3446C41.0153 17.0216 40.9334 16.7366 40.7694 16.4895C40.6054 16.2425 40.3715 16.0487 40.0676 15.9081C39.7677 15.7674 39.4098 15.6971 38.9939 15.6971H36.8165V18.7983ZM36.8165 14.0268H38.742C39.0979 14.0268 39.4138 13.9679 39.6897 13.8501C39.9696 13.7285 40.1896 13.5575 40.3495 13.337C40.5135 13.1166 40.5954 12.8525 40.5954 12.5446C40.5954 12.1228 40.4375 11.7826 40.1216 11.5242C39.8097 11.2658 39.3658 11.1366 38.79 11.1366H36.8165V14.0268Z" fill="url(#paint4_linear_14497_1157)"/>
<path d="M45.7244 20.8164V9.14131H48.3217V18.7812H53.5882V20.8164H45.7244Z" fill="url(#paint5_linear_14497_1157)"/>
<path d="M66.4565 14.9788C66.4565 16.252 66.2026 17.3351 65.6947 18.2282C65.1909 19.1214 64.5031 19.8035 63.6313 20.2748C62.7636 20.7423 61.7878 20.976 60.7041 20.976C59.6124 20.976 58.6327 20.7404 57.765 20.2691C56.8972 19.7978 56.2114 19.1157 55.7075 18.2225C55.2037 17.3294 54.9518 16.2482 54.9518 14.9788C54.9518 13.7057 55.2037 12.6225 55.7075 11.7294C56.2114 10.8363 56.8972 10.156 57.765 9.68858C58.6327 9.21732 59.6124 8.98169 60.7041 8.98169C61.7878 8.98169 62.7636 9.21732 63.6313 9.68858C64.5031 10.156 65.1909 10.8363 65.6947 11.7294C66.2026 12.6225 66.4565 13.7057 66.4565 14.9788ZM63.8233 14.9788C63.8233 14.1541 63.6933 13.4586 63.4334 12.8924C63.1774 12.3261 62.8155 11.8967 62.3477 11.604C61.8798 11.3114 61.332 11.1651 60.7041 11.1651C60.0763 11.1651 59.5285 11.3114 59.0606 11.604C58.5927 11.8967 58.2288 12.3261 57.9689 12.8924C57.713 13.4586 57.585 14.1541 57.585 14.9788C57.585 15.8035 57.713 16.499 57.9689 17.0653C58.2288 17.6316 58.5927 18.061 59.0606 18.3537C59.5285 18.6463 60.0763 18.7926 60.7041 18.7926C61.332 18.7926 61.8798 18.6463 62.3477 18.3537C62.8155 18.061 63.1774 17.6316 63.4334 17.0653C63.6933 16.499 63.8233 15.8035 63.8233 14.9788Z" fill="url(#paint6_linear_14497_1157)"/>
<path d="M79.5573 13.2287H76.93C76.882 12.9057 76.784 12.6187 76.6361 12.3679C76.4881 12.1133 76.2982 11.8967 76.0662 11.718C75.8343 11.5394 75.5664 11.4026 75.2625 11.3076C74.9625 11.2126 74.6366 11.1651 74.2847 11.1651C73.6489 11.1651 73.0951 11.3152 72.6232 11.6154C72.1513 11.9119 71.7854 12.3451 71.5255 12.9152C71.2656 13.4815 71.1356 14.1693 71.1356 14.9788C71.1356 15.8111 71.2656 16.5104 71.5255 17.0767C71.7894 17.643 72.1573 18.0705 72.6292 18.3594C73.1011 18.6482 73.6469 18.7926 74.2667 18.7926C74.6147 18.7926 74.9366 18.7489 75.2325 18.6615C75.5324 18.5741 75.7983 18.4468 76.0303 18.2795C76.2622 18.1085 76.4541 17.9014 76.6061 17.6582C76.762 17.4149 76.87 17.1375 76.93 16.8259L79.5573 16.8373C79.4893 17.3731 79.3193 17.89 79.0474 18.3879C78.7795 18.8819 78.4176 19.3247 77.9617 19.7161C77.5098 20.1038 76.97 20.4116 76.3422 20.6396C75.7183 20.8639 75.0125 20.976 74.2248 20.976C73.1291 20.976 72.1493 20.7404 71.2856 20.2691C70.4258 19.7978 69.746 19.1157 69.2462 18.2225C68.7503 17.3294 68.5024 16.2482 68.5024 14.9788C68.5024 13.7057 68.7543 12.6225 69.2582 11.7294C69.762 10.8363 70.4458 10.156 71.3096 9.68858C72.1733 9.21732 73.1451 8.98169 74.2248 8.98169C74.9366 8.98169 75.5964 9.0767 76.2042 9.26672C76.816 9.45675 77.3579 9.73418 77.8297 10.099C78.3016 10.4601 78.6855 10.9028 78.9814 11.4273C79.2813 11.9518 79.4733 12.5522 79.5573 13.2287Z" fill="url(#paint7_linear_14497_1157)"/>
<path d="M81.7576 20.8164V9.14131H84.3548V14.2891H84.5168L88.9375 9.14131H92.0507L87.4919 14.3689L92.1046 20.8164H88.9975L85.6325 16.0164L84.3548 17.4986V20.8164H81.7576Z" fill="url(#paint8_linear_14497_1157)"/>
<path d="M102.343 20.8164H97.9883V9.14131H102.379C103.615 9.14131 104.678 9.37504 105.57 9.8425C106.462 10.3062 107.148 10.9731 107.628 11.8434C108.111 12.7138 108.353 13.7551 108.353 14.9674C108.353 16.1836 108.111 17.2287 107.628 18.1028C107.148 18.9769 106.458 19.6477 105.558 20.1152C104.662 20.5826 103.591 20.8164 102.343 20.8164ZM100.586 18.7014H102.235C103.003 18.7014 103.649 18.5722 104.173 18.3138C104.7 18.0515 105.096 17.6468 105.36 17.0995C105.628 16.5484 105.762 15.8377 105.762 14.9674C105.762 14.1047 105.628 13.3997 105.36 12.8525C105.096 12.3052 104.702 11.9024 104.179 11.6439C103.655 11.3855 103.009 11.2563 102.241 11.2563H100.586V18.7014Z" fill="url(#paint9_linear_14497_1157)"/>
<path d="M112.04 20.8164H109.257L113.497 9.14131H116.844L121.079 20.8164H118.296L115.219 11.8092H115.123L112.04 20.8164ZM111.866 16.2273H118.44V18.1541H111.866V16.2273Z" fill="url(#paint10_linear_14497_1157)"/>
<path d="M129.279 12.499C129.231 12.0392 129.025 11.6819 128.662 11.4273C128.298 11.1727 127.804 11.0453 127.18 11.0453C126.756 11.0453 126.398 11.1024 126.106 11.2164C125.814 11.3266 125.59 11.4805 125.434 11.6781C125.283 11.8758 125.207 12.1 125.207 12.3508C125.199 12.5598 125.245 12.7423 125.344 12.8981C125.448 13.0539 125.59 13.1888 125.77 13.3028C125.95 13.413 126.158 13.51 126.394 13.5936C126.63 13.6734 126.882 13.7418 127.15 13.7988L128.254 14.0496C128.79 14.1636 129.281 14.3157 129.729 14.5057C130.177 14.6957 130.565 14.9294 130.893 15.2069C131.221 15.4843 131.475 15.8111 131.655 16.1874C131.839 16.5636 131.933 16.995 131.937 17.4815C131.933 18.1959 131.741 18.8154 131.361 19.3399C130.985 19.8605 130.441 20.2653 129.729 20.5541C129.021 20.8392 128.168 20.9817 127.168 20.9817C126.176 20.9817 125.312 20.8373 124.577 20.5484C123.845 20.2596 123.273 19.832 122.861 19.2658C122.453 18.6957 122.239 17.9907 122.219 17.1508H124.733C124.761 17.5423 124.879 17.8691 125.087 18.1313C125.299 18.3898 125.58 18.5855 125.932 18.7185C126.288 18.8477 126.69 18.9123 127.138 18.9123C127.578 18.9123 127.96 18.8515 128.284 18.7299C128.612 18.6083 128.865 18.4392 129.045 18.2225C129.225 18.0059 129.315 17.757 129.315 17.4757C129.315 17.2135 129.233 16.9931 129.069 16.8145C128.909 16.6358 128.674 16.4838 128.362 16.3584C128.054 16.233 127.676 16.119 127.228 16.0164L125.89 15.6971C124.855 15.4577 124.037 15.0834 123.437 14.5741C122.837 14.0648 122.539 13.3788 122.543 12.5161C122.539 11.8092 122.737 11.1917 123.137 10.6634C123.541 10.1351 124.095 9.72278 124.799 9.42635C125.502 9.12991 126.302 8.98169 127.198 8.98169C128.11 8.98169 128.905 9.12991 129.585 9.42635C130.269 9.72278 130.801 10.1351 131.181 10.6634C131.561 11.1917 131.757 11.8035 131.769 12.499H129.279Z" fill="url(#paint11_linear_14497_1157)"/>
<path d="M134.021 20.8164V9.14131H136.619V13.9584H141.891V9.14131H144.483V20.8164H141.891V15.9936H136.619V20.8164H134.021Z" fill="url(#paint12_linear_14497_1157)"/>
<defs>
<linearGradient id="paint0_linear_14497_1157" x1="0" y1="12.8125" x2="25.8548" y2="12.8125" gradientUnits="userSpaceOnUse">
<stop stop-color="#1976D2"/>
<stop offset="1" stop-color="#009470"/>
</linearGradient>
<linearGradient id="paint1_linear_14497_1157" x1="13.7822" y1="10.5254" x2="25.2663" y2="10.5254" gradientUnits="userSpaceOnUse">
<stop stop-color="#077089"/>
<stop offset="1" stop-color="#01AC86"/>
</linearGradient>
<linearGradient id="paint2_linear_14497_1157" x1="13.3555" y1="5.96208" x2="18.3693" y2="5.2674" gradientUnits="userSpaceOnUse">
<stop stop-color="#076276"/>
<stop offset="1" stop-color="#078C8B"/>
</linearGradient>
<linearGradient id="paint3_linear_14497_1157" x1="0.0966797" y1="22.9869" x2="14.0396" y2="22.9869" gradientUnits="userSpaceOnUse">
<stop stop-color="#2593FF"/>
<stop offset="1" stop-color="#047257"/>
</linearGradient>
<linearGradient id="paint4_linear_14497_1157" x1="34.2192" y1="15.8567" x2="144.483" y2="15.8567" gradientUnits="userSpaceOnUse">
<stop stop-color="#1976D2"/>
<stop offset="1" stop-color="#009470"/>
</linearGradient>
<linearGradient id="paint5_linear_14497_1157" x1="34.2192" y1="15.8567" x2="144.483" y2="15.8567" gradientUnits="userSpaceOnUse">
<stop stop-color="#1976D2"/>
<stop offset="1" stop-color="#009470"/>
</linearGradient>
<linearGradient id="paint6_linear_14497_1157" x1="34.2192" y1="15.8567" x2="144.483" y2="15.8567" gradientUnits="userSpaceOnUse">
<stop stop-color="#1976D2"/>
<stop offset="1" stop-color="#009470"/>
</linearGradient>
<linearGradient id="paint7_linear_14497_1157" x1="34.2192" y1="15.8567" x2="144.483" y2="15.8567" gradientUnits="userSpaceOnUse">
<stop stop-color="#1976D2"/>
<stop offset="1" stop-color="#009470"/>
</linearGradient>
<linearGradient id="paint8_linear_14497_1157" x1="34.2192" y1="15.8567" x2="144.483" y2="15.8567" gradientUnits="userSpaceOnUse">
<stop stop-color="#1976D2"/>
<stop offset="1" stop-color="#009470"/>
</linearGradient>
<linearGradient id="paint9_linear_14497_1157" x1="34.2192" y1="15.8567" x2="144.483" y2="15.8567" gradientUnits="userSpaceOnUse">
<stop stop-color="#1976D2"/>
<stop offset="1" stop-color="#009470"/>
</linearGradient>
<linearGradient id="paint10_linear_14497_1157" x1="34.2192" y1="15.8567" x2="144.483" y2="15.8567" gradientUnits="userSpaceOnUse">
<stop stop-color="#1976D2"/>
<stop offset="1" stop-color="#009470"/>
</linearGradient>
<linearGradient id="paint11_linear_14497_1157" x1="34.2192" y1="15.8567" x2="144.483" y2="15.8567" gradientUnits="userSpaceOnUse">
<stop stop-color="#1976D2"/>
<stop offset="1" stop-color="#009470"/>
</linearGradient>
<linearGradient id="paint12_linear_14497_1157" x1="34.2192" y1="15.8567" x2="144.483" y2="15.8567" gradientUnits="userSpaceOnUse">
<stop stop-color="#1976D2"/>
<stop offset="1" stop-color="#009470"/>
</linearGradient>
</defs>
</svg>
