<svg width="64" height="64" viewBox="0 0 64 64" fill="none" xmlns="http://www.w3.org/2000/svg">
<path d="M51 25H13C10.7909 25 9 26.7909 9 29V57C9 59.2091 10.7909 61 13 61H51C53.2091 61 55 59.2091 55 57V29C55 26.7909 53.2091 25 51 25Z" fill="#2488FF"/>
<path d="M27 61H51C52.0609 61 53.0783 60.5786 53.8284 59.8284C54.5786 59.0783 55 58.0609 55 57V33C55 40.4261 52.05 47.548 46.799 52.799C41.548 58.05 34.4261 61 27 61Z" fill="#006DF0"/>
<path d="M49 44H40C39.7348 44 39.4804 43.8946 39.2929 43.7071C39.1054 43.5196 39 43.2652 39 43C39 42.7348 39.1054 42.4804 39.2929 42.2929C39.4804 42.1054 39.7348 42 40 42H49C49.2652 42 49.5196 42.1054 49.7071 42.2929C49.8946 42.4804 50 42.7348 50 43C50 43.2652 49.8946 43.5196 49.7071 43.7071C49.5196 43.8946 49.2652 44 49 44Z" fill="#7ED63E"/>
<path d="M44.0002 40H39.1602C38.8949 40 38.6406 39.8946 38.453 39.7071C38.2655 39.5196 38.1602 39.2652 38.1602 39C38.1602 38.7348 38.2655 38.4804 38.453 38.2929C38.6406 38.1054 38.8949 38 39.1602 38H43.5002L46.2002 34.4C46.279 34.2949 46.3777 34.2064 46.4907 34.1395C46.6037 34.0726 46.7287 34.0286 46.8587 34.0101C46.9887 33.9915 47.1211 33.9987 47.2483 34.0313C47.3756 34.0639 47.4951 34.1212 47.6002 34.2C47.7052 34.2788 47.7937 34.3775 47.8606 34.4905C47.9275 34.6035 47.9715 34.7286 47.9901 34.8586C48.0087 34.9886 48.0015 35.121 47.9689 35.2482C47.9363 35.3754 47.8789 35.4949 47.8002 35.6L44.8002 39.6C44.707 39.7242 44.5862 39.825 44.4474 39.8944C44.3085 39.9639 44.1554 40 44.0002 40Z" fill="#7ED63E"/>
<path d="M47.0002 52C46.8449 52 46.6918 51.9639 46.5529 51.8944C46.4141 51.825 46.2933 51.7242 46.2002 51.6L43.5002 48H39.1602C38.8949 48 38.6406 47.8946 38.453 47.7071C38.2655 47.5196 38.1602 47.2652 38.1602 47C38.1602 46.7348 38.2655 46.4804 38.453 46.2929C38.6406 46.1054 38.8949 46 39.1602 46H44.0002C44.1554 46 44.3085 46.0361 44.4474 46.1056C44.5862 46.175 44.707 46.2758 44.8002 46.4L47.8002 50.4C47.9116 50.5486 47.9794 50.7252 47.9961 50.9102C48.0128 51.0952 47.9776 51.2811 47.8946 51.4472C47.8115 51.6133 47.6839 51.753 47.5259 51.8507C47.3679 51.9483 47.1859 52 47.0002 52Z" fill="#7ED63E"/>
<path d="M15 44H24C24.2652 44 24.5196 43.8946 24.7071 43.7071C24.8946 43.5196 25 43.2652 25 43C25 42.7348 24.8946 42.4804 24.7071 42.2929C24.5196 42.1054 24.2652 42 24 42H15C14.7348 42 14.4804 42.1054 14.2929 42.2929C14.1054 42.4804 14 42.7348 14 43C14 43.2652 14.1054 43.5196 14.2929 43.7071C14.4804 43.8946 14.7348 44 15 44Z" fill="#7ED63E"/>
<path d="M20 40H24.84C25.1052 40 25.3596 39.8946 25.5471 39.7071C25.7346 39.5196 25.84 39.2652 25.84 39C25.84 38.7348 25.7346 38.4804 25.5471 38.2929C25.3596 38.1054 25.1052 38 24.84 38H20.5L17.8 34.4C17.6409 34.1878 17.404 34.0476 17.1414 34.0101C16.8789 33.9725 16.6122 34.0409 16.4 34.2C16.1878 34.3591 16.0476 34.596 16.0101 34.8586C15.9725 35.1211 16.0409 35.3878 16.2 35.6L19.2 39.6C19.2932 39.7242 19.4139 39.825 19.5528 39.8944C19.6916 39.9639 19.8448 40 20 40Z" fill="#7ED63E"/>
<path d="M17 52C17.1552 52 17.3084 51.9639 17.4472 51.8944C17.5861 51.825 17.7069 51.7242 17.8 51.6L20.5 48H24.84C25.1052 48 25.3596 47.8946 25.5471 47.7071C25.7346 47.5196 25.84 47.2652 25.84 47C25.84 46.7348 25.7346 46.4804 25.5471 46.2929C25.3596 46.1054 25.1052 46 24.84 46H20C19.8448 46 19.6916 46.0361 19.5528 46.1056C19.4139 46.175 19.2931 46.2758 19.2 46.4L16.2 50.4C16.0886 50.5486 16.0207 50.7252 16.004 50.9102C15.9874 51.0952 16.0225 51.2811 16.1056 51.4472C16.1886 51.6133 16.3163 51.753 16.4743 51.8507C16.6322 51.9483 16.8143 52 17 52Z" fill="#7ED63E"/>
<path d="M22 19C22 16.3478 23.0536 13.8043 24.9289 11.9289C26.8043 10.0536 29.3478 9 32 9C34.6522 9 37.1957 10.0536 39.0711 11.9289C40.9464 13.8043 42 16.3478 42 19V25H48V19C48 14.7565 46.3143 10.6869 43.3137 7.68629C40.3131 4.68571 36.2435 3 32 3C27.7565 3 23.6869 4.68571 20.6863 7.68629C17.6857 10.6869 16 14.7565 16 19V25H22V19Z" fill="#FF9811"/>
<path d="M49 45C50.1046 45 51 44.1046 51 43C51 41.8954 50.1046 41 49 41C47.8954 41 47 41.8954 47 43C47 44.1046 47.8954 45 49 45Z" fill="#FF6243"/>
<path d="M47 37C48.1046 37 49 36.1046 49 35C49 33.8954 48.1046 33 47 33C45.8954 33 45 33.8954 45 35C45 36.1046 45.8954 37 47 37Z" fill="#FF6243"/>
<path d="M47 53C48.1046 53 49 52.1046 49 51C49 49.8954 48.1046 49 47 49C45.8954 49 45 49.8954 45 51C45 52.1046 45.8954 53 47 53Z" fill="#FF6243"/>
<path d="M15 45C16.1046 45 17 44.1046 17 43C17 41.8954 16.1046 41 15 41C13.8954 41 13 41.8954 13 43C13 44.1046 13.8954 45 15 45Z" fill="#FF6243"/>
<path d="M17 37C18.1046 37 19 36.1046 19 35C19 33.8954 18.1046 33 17 33C15.8954 33 15 33.8954 15 35C15 36.1046 15.8954 37 17 37Z" fill="#FF6243"/>
<path d="M17 53C18.1046 53 19 52.1046 19 51C19 49.8954 18.1046 49 17 49C15.8954 49 15 49.8954 15 51C15 52.1046 15.8954 53 17 53Z" fill="#FF6243"/>
<path d="M32 53C37.5228 53 42 48.5228 42 43C42 37.4772 37.5228 33 32 33C26.4772 33 22 37.4772 22 43C22 48.5228 26.4772 53 32 53Z" fill="#FFA733"/>
<path d="M32.9509 33.0481C32.9809 33.3621 32.9989 33.6791 32.9989 34.0001C32.9989 36.6523 31.9453 39.1958 30.0699 41.0712C28.1946 42.9465 25.651 44.0001 22.9989 44.0001C22.6779 44.0001 22.3609 43.9821 22.0469 43.9521C22.2261 45.8409 22.939 47.6398 24.1023 49.1386C25.2656 50.6375 26.8312 51.7744 28.6165 52.4168C30.4017 53.0592 32.3329 53.1804 34.1845 52.7663C36.036 52.3523 37.7316 51.42 39.0732 50.0784C40.4148 48.7368 41.3471 47.0413 41.7611 45.1897C42.1752 43.3381 42.0539 41.407 41.4116 39.6217C40.7692 37.8365 39.6322 36.2708 38.1334 35.1075C36.6345 33.9442 34.8357 33.2313 32.9469 33.0521L32.9509 33.0481Z" fill="#FF9811"/>
<path d="M35.78 42.12C35.9334 41.743 36.0081 41.3385 35.9993 40.9316C35.9905 40.5246 35.8985 40.1238 35.7289 39.7537C35.5593 39.3837 35.3158 39.0522 35.0133 38.7799C34.7108 38.5075 34.3558 38.3 33.97 38.17C33.9848 38.1143 33.9949 38.0574 34 38V37C34 36.7348 33.8946 36.4804 33.7071 36.2929C33.5196 36.1054 33.2652 36 33 36C32.7348 36 32.4804 36.1054 32.2929 36.2929C32.1054 36.4804 32 36.7348 32 37V38H31V37C31 36.7348 30.8946 36.4804 30.7071 36.2929C30.5196 36.1054 30.2652 36 30 36C29.7348 36 29.4804 36.1054 29.2929 36.2929C29.1054 36.4804 29 36.7348 29 37V38H27C26.7348 38 26.4804 38.1054 26.2929 38.2929C26.1054 38.4804 26 38.7348 26 39C26 39.2652 26.1054 39.5196 26.2929 39.7071C26.4804 39.8946 26.7348 40 27 40H28V46H27C26.7348 46 26.4804 46.1054 26.2929 46.2929C26.1054 46.4804 26 46.7348 26 47C26 47.2652 26.1054 47.5196 26.2929 47.7071C26.4804 47.8946 26.7348 48 27 48H29V49C29 49.2652 29.1054 49.5196 29.2929 49.7071C29.4804 49.8946 29.7348 50 30 50C30.2652 50 30.5196 49.8946 30.7071 49.7071C30.8946 49.5196 31 49.2652 31 49V48H32V49C32 49.2652 32.1054 49.5196 32.2929 49.7071C32.4804 49.8946 32.7348 50 33 50C33.2652 50 33.5196 49.8946 33.7071 49.7071C33.8946 49.5196 34 49.2652 34 49V48H35C35.7272 48.0032 36.4306 47.7414 36.9786 47.2634C37.5267 46.7854 37.8817 46.1241 37.9773 45.4032C38.073 44.6823 37.9026 43.9513 37.4981 43.347C37.0937 42.7427 36.4829 42.3065 35.78 42.12ZM30 40H33C33.2652 40 33.5196 40.1054 33.7071 40.2929C33.8946 40.4804 34 40.7348 34 41C34 41.2652 33.8946 41.5196 33.7071 41.7071C33.5196 41.8946 33.2652 42 33 42H30V40ZM35 46H30V44H35C35.2652 44 35.5196 44.1054 35.7071 44.2929C35.8946 44.4804 36 44.7348 36 45C36 45.2652 35.8946 45.5196 35.7071 45.7071C35.5196 45.8946 35.2652 46 35 46Z" fill="#F1F2F2"/>
</svg>
