<svg width="1600" height="368" viewBox="0 0 1600 368" fill="none" xmlns="http://www.w3.org/2000/svg">
<path d="M1600 0H0V368H1600V0Z" fill="#0A2545"/>
<mask id="mask0_18062_12139" style="mask-type:luminance" maskUnits="userSpaceOnUse" x="0" y="0" width="1600" height="368">
<path d="M1600 0H0V368H1600V0Z" fill="white"/>
</mask>
<g mask="url(#mask0_18062_12139)">
<path d="M1600.5 207.374C1785.24 207.374 1935 117.615 1935 6.89221C1935 -103.831 1785.24 -193.59 1600.5 -193.59C1415.76 -193.59 1266 -103.831 1266 6.89221C1266 117.615 1415.76 207.374 1600.5 207.374Z" fill="#0054A6"/>
</g>
<mask id="mask1_18062_12139" style="mask-type:luminance" maskUnits="userSpaceOnUse" x="0" y="0" width="1600" height="368">
<path d="M1600 0H0V368H1600V0Z" fill="white"/>
</mask>
<g mask="url(#mask1_18062_12139)">
<path d="M245 -501.804V15.4335" stroke="#0054A6" stroke-width="2" stroke-miterlimit="10"/>
<path d="M203.5 -476.931V40.3068" stroke="#0054A6" stroke-width="2" stroke-miterlimit="10"/>
<path d="M162 -452.059V65.1787" stroke="#0054A6" stroke-width="2" stroke-miterlimit="10"/>
<path d="M120.5 -427.186V90.0517" stroke="#0054A6" stroke-width="2" stroke-miterlimit="10"/>
<path d="M79 -402.313V114.925" stroke="#0054A6" stroke-width="2" stroke-miterlimit="10"/>
<path d="M37.5 -377.44V139.798" stroke="#0054A6" stroke-width="2" stroke-miterlimit="10"/>
</g>
<mask id="mask2_18062_12139" style="mask-type:luminance" maskUnits="userSpaceOnUse" x="0" y="0" width="1600" height="368">
<path d="M1600 0H0V368H1600V0Z" fill="white"/>
</mask>
<g mask="url(#mask2_18062_12139)">
<path opacity="0.1" d="M1599.5 377.842C1590.17 377.842 1582.58 373.292 1582.58 367.701C1582.58 362.109 1590.17 357.56 1599.5 357.56C1608.83 357.56 1616.42 362.109 1616.42 367.701C1616.42 373.292 1608.83 377.842 1599.5 377.842ZM1599.5 358.86C1591.37 358.86 1584.75 362.828 1584.75 367.701C1584.75 372.573 1591.37 376.541 1599.5 376.541C1607.63 376.541 1614.25 372.573 1614.25 367.701C1614.25 362.828 1607.63 358.86 1599.5 358.86Z" fill="white"/>
<path opacity="0.1" d="M1599.5 409.714C1560.85 409.714 1529.4 390.865 1529.4 367.7C1529.4 344.535 1560.85 325.686 1599.5 325.686C1638.15 325.686 1669.6 344.535 1669.6 367.7C1669.6 390.865 1638.15 409.714 1599.5 409.714ZM1599.5 326.992C1562.05 326.992 1531.58 345.255 1531.58 367.7C1531.58 390.146 1562.05 408.408 1599.5 408.408C1636.95 408.408 1667.42 390.146 1667.42 367.7C1667.42 345.255 1636.95 326.992 1599.5 326.992Z" fill="white"/>
<path opacity="0.1" d="M1599.5 441.582C1531.53 441.582 1476.23 408.438 1476.23 367.7C1476.23 326.962 1531.53 293.818 1599.5 293.818C1667.47 293.818 1722.77 326.962 1722.77 367.7C1722.77 408.438 1667.47 441.582 1599.5 441.582ZM1599.5 295.119C1532.73 295.119 1478.4 327.675 1478.4 367.7C1478.4 407.724 1532.72 440.281 1599.5 440.281C1666.28 440.281 1720.6 407.724 1720.6 367.7C1720.6 327.675 1666.27 295.119 1599.5 295.119Z" fill="white"/>
<path opacity="0.1" d="M1599.5 473.456C1502.21 473.456 1423.05 426.017 1423.05 367.701C1423.05 309.384 1502.2 261.946 1599.5 261.946C1696.8 261.946 1775.95 309.384 1775.95 367.701C1775.95 426.017 1696.79 473.456 1599.5 473.456ZM1599.5 263.252C1503.41 263.252 1425.23 310.109 1425.23 367.701C1425.23 425.292 1503.41 472.149 1599.5 472.149C1695.59 472.149 1773.77 425.292 1773.77 367.701C1773.77 310.109 1695.59 263.252 1599.5 263.252Z" fill="white"/>
<path opacity="0.1" d="M1599.49 505.323C1472.87 505.323 1369.88 443.584 1369.88 367.701C1369.88 291.817 1472.88 230.078 1599.49 230.078C1726.1 230.078 1829.11 291.817 1829.11 367.701C1829.11 443.584 1726.11 505.323 1599.49 505.323ZM1599.49 231.379C1474.07 231.379 1372.05 292.53 1372.05 367.701C1372.05 442.871 1474.07 504.022 1599.49 504.022C1724.91 504.022 1826.94 442.871 1826.94 367.701C1826.94 292.53 1724.91 231.379 1599.49 231.379Z" fill="white"/>
<path opacity="0.1" d="M1599.5 537.196C1523.96 537.196 1452.94 519.563 1399.53 487.552C1346.12 455.541 1316.7 412.975 1316.7 367.7C1316.7 322.426 1346.12 279.86 1399.53 247.849C1452.94 215.837 1523.96 198.205 1599.5 198.205C1675.04 198.205 1746.06 215.837 1799.47 247.849C1852.88 279.86 1882.3 322.426 1882.3 367.7C1882.3 412.975 1852.88 455.541 1799.47 487.552C1746.06 519.563 1675.04 537.196 1599.5 537.196ZM1599.5 199.511C1524.54 199.511 1454.07 217.006 1401.07 248.772C1348.07 280.537 1318.88 322.773 1318.88 367.7C1318.88 412.628 1348.07 454.864 1401.07 486.629C1454.07 518.395 1524.54 535.89 1599.5 535.89C1674.46 535.89 1744.93 518.395 1797.93 486.629C1850.93 454.864 1880.12 412.628 1880.12 367.7C1880.12 322.773 1850.93 280.537 1797.93 248.772C1744.93 217.006 1674.46 199.511 1599.5 199.511Z" fill="white"/>
<path opacity="0.1" d="M1599.5 569.063C1509.76 569.063 1425.39 548.115 1361.93 510.087C1298.47 472.058 1263.53 421.485 1263.53 367.7C1263.53 313.914 1298.48 263.347 1361.93 225.312C1425.38 187.278 1509.76 166.336 1599.5 166.336C1689.24 166.336 1773.61 187.284 1837.07 225.312C1900.53 263.341 1935.47 313.914 1935.47 367.7C1935.47 421.485 1900.52 472.052 1837.07 510.087C1773.62 548.121 1689.24 569.063 1599.5 569.063ZM1599.5 167.637C1510.34 167.637 1426.52 188.446 1363.47 226.235C1300.42 264.024 1265.7 314.262 1265.7 367.7C1265.7 421.137 1300.42 471.375 1363.47 509.164C1426.52 546.953 1510.34 567.762 1599.5 567.762C1688.66 567.762 1772.48 546.953 1835.53 509.164C1898.58 471.375 1933.3 421.137 1933.3 367.7C1933.3 314.262 1898.58 264.024 1835.53 226.235C1772.48 188.446 1688.66 167.637 1599.5 167.637Z" fill="white"/>
<path opacity="0.1" d="M1599.5 600.937C1546.97 600.937 1496 594.77 1448.03 582.609C1401.69 570.862 1360.07 554.044 1324.33 532.623C1288.59 511.203 1260.53 486.258 1240.93 458.484C1220.64 429.727 1210.35 399.185 1210.35 367.701C1210.35 336.217 1220.64 305.668 1240.93 276.917C1260.53 249.144 1288.59 224.199 1324.33 202.778C1360.07 181.357 1401.69 164.54 1448.03 152.792C1496.01 140.632 1546.97 134.464 1599.5 134.464C1652.03 134.464 1703 140.632 1750.97 152.792C1797.31 164.54 1838.93 181.357 1874.67 202.778C1910.41 224.199 1938.47 249.144 1958.07 276.917C1978.36 305.674 1988.65 336.217 1988.65 367.701C1988.65 399.185 1978.36 429.733 1958.07 458.484C1938.47 486.258 1910.41 511.203 1874.67 532.623C1838.93 554.044 1797.31 570.862 1750.97 582.609C1703 594.77 1652.03 600.937 1599.5 600.937ZM1599.5 135.771C1496.14 135.771 1398.96 159.895 1325.87 203.701C1252.78 247.507 1212.53 305.752 1212.53 367.701C1212.53 429.649 1252.78 487.894 1325.87 531.701C1398.96 575.507 1496.14 599.631 1599.5 599.631C1702.86 599.631 1800.04 575.507 1873.13 531.701C1946.22 487.894 1986.47 429.649 1986.47 367.701C1986.47 305.752 1946.22 247.507 1873.13 203.701C1800.04 159.895 1702.86 135.771 1599.5 135.771Z" fill="white"/>
<path opacity="0.1" d="M1599.5 632.804C1539.79 632.804 1481.86 625.792 1427.33 611.971C1374.66 598.618 1327.35 579.504 1286.73 555.159C1246.11 530.813 1214.21 502.458 1191.94 470.89C1168.87 438.208 1157.18 403.488 1157.18 367.701C1157.18 331.913 1168.88 297.193 1191.94 264.511C1214.22 232.943 1246.11 204.588 1286.73 180.242C1327.35 155.897 1374.66 136.778 1427.33 123.43C1481.86 109.603 1539.79 102.597 1599.5 102.597C1659.21 102.597 1717.14 109.609 1771.67 123.43C1824.34 136.784 1871.65 155.897 1912.27 180.242C1952.89 204.588 1984.79 232.943 2007.06 264.511C2030.13 297.193 2041.82 331.913 2041.82 367.701C2041.82 403.488 2030.12 438.208 2007.06 470.89C1984.78 502.458 1952.89 530.813 1912.27 555.159C1871.65 579.504 1824.34 598.624 1771.67 611.971C1717.14 625.798 1659.21 632.804 1599.5 632.804ZM1599.5 103.897C1540.08 103.897 1482.44 110.874 1428.17 124.629C1375.76 137.916 1328.69 156.94 1288.26 181.165C1247.83 205.391 1216.1 233.602 1193.93 265.02C1170.98 297.541 1159.34 332.093 1159.34 367.707C1159.34 403.32 1170.98 437.866 1193.93 470.393C1216.1 501.805 1247.84 530.016 1288.26 554.248C1328.68 578.48 1375.75 597.497 1428.17 610.784C1482.43 624.539 1540.08 631.516 1599.5 631.516C1658.92 631.516 1716.56 624.539 1770.83 610.784C1823.24 597.497 1870.31 578.474 1910.74 554.248C1951.17 530.022 1982.9 501.811 2005.07 470.393C2028.02 437.872 2039.66 403.32 2039.66 367.707C2039.66 332.093 2028.02 297.547 2005.07 265.02C1982.9 233.608 1951.16 205.397 1910.74 181.165C1870.32 156.934 1823.25 137.916 1770.83 124.629C1716.56 110.874 1658.92 103.897 1599.5 103.897Z" fill="white"/>
<path opacity="0.1" d="M1599.5 664.677C1532.61 664.677 1467.72 656.826 1406.63 641.339C1347.63 626.379 1294.64 604.97 1249.13 577.694C1203.62 550.418 1167.9 518.658 1142.94 483.297C1117.1 446.682 1104 407.791 1104 367.7C1104 327.61 1117.1 288.718 1142.94 252.104C1167.9 216.742 1203.62 184.983 1249.13 157.706C1294.64 130.43 1347.63 109.021 1406.63 94.0615C1467.72 78.5744 1532.61 70.7229 1599.5 70.7229C1666.39 70.7229 1731.28 78.5744 1792.37 94.0615C1851.37 109.021 1904.36 130.43 1949.87 157.706C1995.38 184.983 2031.1 216.742 2056.06 252.104C2081.9 288.718 2095 327.61 2095 367.7C2095 407.791 2081.9 446.682 2056.06 483.297C2031.1 518.658 1995.38 550.418 1949.87 577.694C1904.36 604.97 1851.37 626.379 1792.37 641.339C1731.28 656.826 1666.39 664.677 1599.5 664.677ZM1599.5 72.0295C1532.9 72.0295 1468.3 79.845 1407.48 95.2662C1348.74 110.16 1295.98 131.479 1250.67 158.629C1205.36 185.786 1169.79 217.401 1144.95 252.613C1119.23 289.066 1106.18 327.784 1106.18 367.7C1106.18 407.617 1119.22 446.341 1144.95 482.787C1169.8 517.993 1205.37 549.614 1250.67 576.771C1295.98 603.927 1348.73 625.246 1407.48 640.134C1468.3 655.549 1532.9 663.371 1599.5 663.371C1666.1 663.371 1730.7 655.555 1791.52 640.134C1850.26 625.24 1903.02 603.921 1948.33 576.771C1993.64 549.614 2029.21 517.999 2054.05 482.787C2079.77 446.335 2092.82 407.617 2092.82 367.7C2092.82 327.784 2079.78 289.06 2054.05 252.613C2029.2 217.407 1993.63 185.786 1948.33 158.629C1903.02 131.473 1850.27 110.154 1791.52 95.2662C1730.7 79.845 1666.1 72.0295 1599.5 72.0295Z" fill="white"/>
</g>
</svg>
