<svg width="114" height="114" viewBox="0 0 114 114" fill="none" xmlns="http://www.w3.org/2000/svg">
<g clip-path="url(#clip0_14818_10931)">
<path opacity="0.996" fill-rule="evenodd" clip-rule="evenodd" d="M53.1031 -0.111328C54.3648 -0.111328 55.6264 -0.111328 56.8882 -0.111328C56.9606 6.65896 56.8864 13.4129 56.6656 20.1504C52.4193 20.4249 49.4134 22.503 47.648 26.3848C46.056 32.2172 47.9486 36.4847 53.3257 39.1875C54.4 39.6094 55.5133 39.7949 56.6656 39.7441C56.8873 55.3884 56.9617 71.0487 56.8882 86.7246C56.0579 86.7077 55.3158 86.4478 54.6616 85.9453C53.13 84.1549 51.6455 82.3367 50.2085 80.4902C48.796 78.7003 47.3857 76.9191 45.9781 75.1465C44.199 72.4811 42.4178 69.8092 40.6343 67.1309C39.2449 65.0221 37.909 62.8697 36.6265 60.6738C36.5247 60.4961 36.3762 60.422 36.1812 60.4512C34.1165 56.6925 32.2239 52.8332 30.5034 48.873C26.0312 38.6979 25.66 28.3815 29.3902 17.9238C33.9927 7.56927 41.897 1.55755 53.1031 -0.111328Z" fill="#0054A6"/>
<path fill-rule="evenodd" clip-rule="evenodd" d="M56.8887 -0.111328C58.1505 -0.111328 59.412 -0.111328 60.6738 -0.111328C75.3979 2.70118 84.0443 11.5332 86.6133 26.3848C87.3256 30.9238 87.177 35.4513 86.168 39.9668C85.3212 43.3979 84.2079 46.7378 82.8281 49.9863C81.1954 53.5486 79.4513 57.0367 77.5957 60.4512C76.075 62.6007 74.6649 64.8273 73.3652 67.1309C72.8676 67.7523 72.4223 68.4203 72.0293 69.1348C67.9609 75.0254 63.5819 80.7031 58.8926 86.168C58.2665 86.5129 57.5985 86.6983 56.8887 86.7246C56.9621 71.0487 56.8878 55.3884 56.666 39.7441C61.1459 39.6807 64.3 37.6026 66.1289 33.5098C67.7345 27.3328 65.6192 22.991 59.7832 20.4844C58.7623 20.2116 57.7232 20.1002 56.666 20.1504C56.8869 13.4129 56.961 6.65896 56.8887 -0.111328Z" fill="#0054A6"/>
<path opacity="0.997" fill-rule="evenodd" clip-rule="evenodd" d="M36.1818 60.4512C36.3768 60.422 36.5253 60.4962 36.6271 60.6739C37.9096 62.8697 39.2455 65.0221 40.6349 67.1309C35.6617 67.0937 30.6891 67.1309 25.7169 67.2422C22.2843 74.9606 18.9445 82.7166 15.6974 90.5098C14.2742 93.6666 12.9383 96.8579 11.6896 100.084C10.5964 102.346 9.55735 104.646 8.57241 106.986C21.931 107.209 35.2903 107.283 48.6505 107.209C51.3966 107.209 54.1428 107.209 56.8888 107.209C56.8888 109.436 56.8888 111.662 56.8888 113.889C38.631 113.889 20.3732 113.889 2.11538 113.889C0.272259 112.869 -0.358599 111.31 0.222803 109.213C7.07614 93.1696 14.0156 77.1756 21.0412 61.2305C21.4123 61.0078 21.7833 60.7852 22.1544 60.5625C26.8296 60.4512 31.5053 60.414 36.1818 60.4512Z" fill="#DFF3FD"/>
<path fill-rule="evenodd" clip-rule="evenodd" d="M77.5957 60.4512C82.2722 60.414 86.9479 60.4512 91.623 60.5625C92.0312 60.8224 92.4395 61.082 92.8477 61.3418C100.056 77.6111 107.07 93.9391 113.889 110.326C113.889 110.4 113.889 110.475 113.889 110.549C113.684 112.016 112.942 113.129 111.662 113.889C93.4043 113.889 75.1465 113.889 56.8887 113.889C56.8887 111.662 56.8887 109.436 56.8887 107.209C57.334 107.209 57.7793 107.209 58.2246 107.209C60.6738 107.209 63.123 107.209 65.5723 107.209C70.4133 107.281 75.2376 107.206 80.0449 106.986C88.395 107.282 96.7818 107.282 105.205 106.986C103.696 103.452 102.138 99.9633 100.529 96.5215C99.801 94.4107 98.9845 92.3327 98.0801 90.2871C94.6908 82.6184 91.4253 74.8996 88.2832 67.1309C84.2012 67.1309 80.1191 67.1309 76.0371 67.1309C75.1465 67.1309 74.2559 67.1309 73.3652 67.1309C74.6649 64.8273 76.075 62.6007 77.5957 60.4512Z" fill="#BCDCFD"/>
<path fill-rule="evenodd" clip-rule="evenodd" d="M40.6348 67.1309C42.4182 69.8092 44.1995 72.4811 45.9785 75.1465C35.8788 80.2705 25.7852 85.3916 15.6973 90.5098C18.9444 82.7166 22.2841 74.9606 25.7168 67.2422C30.6889 67.1309 35.6615 67.0937 40.6348 67.1309Z" fill="#13AB61"/>
<path fill-rule="evenodd" clip-rule="evenodd" d="M73.3652 67.1309C74.2559 67.1309 75.1465 67.1309 76.0371 67.1309C74.772 67.9119 73.436 68.5799 72.0293 69.1348C72.4223 68.4203 72.8676 67.7523 73.3652 67.1309Z" fill="#F6BD2B"/>
<path fill-rule="evenodd" clip-rule="evenodd" d="M76.0371 67.1309C80.1191 67.1309 84.2012 67.1309 88.2832 67.1309C91.4253 74.8996 94.6908 82.6184 98.0801 90.2871C87.1724 95.815 76.3364 101.456 65.5723 107.209C63.123 107.209 60.6738 107.209 58.2246 107.209C57.8534 106.69 57.4081 106.244 56.8887 105.873C56.8887 105.799 56.8887 105.725 56.8887 105.65C56.8887 99.3419 56.8887 93.0331 56.8887 86.7246C57.5985 86.6983 58.2665 86.5129 58.8926 86.168C63.5819 80.7031 67.9609 75.0254 72.0293 69.1348C73.436 68.5799 74.772 67.9119 76.0371 67.1309Z" fill="#0FAB60"/>
<path fill-rule="evenodd" clip-rule="evenodd" d="M45.9785 75.1465C47.3861 76.9191 48.7965 78.7003 50.209 80.4902C46.1041 82.5057 42.0221 84.5838 37.9629 86.7246C44.2019 93.1122 50.5105 99.4207 56.8887 105.65C56.8887 105.725 56.8887 105.799 56.8887 105.873C56.8887 106.318 56.8887 106.764 56.8887 107.209C54.1427 107.209 51.3964 107.209 48.6504 107.209C43.0085 101.382 37.2566 95.6667 31.3945 90.0645C24.8064 93.3771 18.238 96.717 11.6895 100.084C12.9381 96.8579 14.274 93.6666 15.6973 90.5098C25.7852 85.3916 35.8788 80.2705 45.9785 75.1465Z" fill="#FCD842"/>
<path fill-rule="evenodd" clip-rule="evenodd" d="M50.209 80.4902C51.646 82.3367 53.1305 84.1549 54.6621 85.9453C55.3163 86.4478 56.0584 86.7077 56.8887 86.7246C56.8887 93.0331 56.8887 99.3419 56.8887 105.65C50.5105 99.4207 44.2019 93.1122 37.9629 86.7246C42.0221 84.5838 46.1041 82.5057 50.209 80.4902Z" fill="#5DC882"/>
<path fill-rule="evenodd" clip-rule="evenodd" d="M48.6504 107.209C35.2901 107.283 21.9308 107.209 8.57227 106.986C9.55721 104.646 10.5963 102.346 11.6895 100.084C18.238 96.717 24.8064 93.3771 31.3945 90.0645C37.2566 95.6667 43.0085 101.382 48.6504 107.209Z" fill="#169BE0"/>
<path fill-rule="evenodd" clip-rule="evenodd" d="M98.0801 90.2871C98.9845 92.3327 99.801 94.4107 100.529 96.5215C93.7011 100.01 86.8731 103.498 80.0449 106.986C75.2376 107.206 70.4133 107.281 65.5723 107.209C76.3364 101.456 87.1724 95.815 98.0801 90.2871Z" fill="#FABD2A"/>
<path fill-rule="evenodd" clip-rule="evenodd" d="M100.529 96.5215C102.138 99.9633 103.696 103.452 105.205 106.986C96.7818 107.282 88.395 107.282 80.0449 106.986C86.8731 103.498 93.7011 100.01 100.529 96.5215Z" fill="#199BE0"/>
<path fill-rule="evenodd" clip-rule="evenodd" d="M56.8887 105.873C57.4081 106.244 57.8534 106.69 58.2246 107.209C57.7793 107.209 57.334 107.209 56.8887 107.209C56.8887 106.764 56.8887 106.318 56.8887 105.873Z" fill="#F8BA97"/>
</g>
<defs>
<clipPath id="clip0_14818_10931">
<rect width="114" height="114" fill="white"/>
</clipPath>
</defs>
</svg>
