<svg width="436" height="295" viewBox="0 0 436 295" fill="none" xmlns="http://www.w3.org/2000/svg">
<path fill-rule="evenodd" clip-rule="evenodd" d="M220.494 241.356C221.825 270.254 225.349 277.562 249.769 294.029H195.642H141.516C165.936 277.562 169.46 270.254 170.791 241.356L195.642 239.008L220.494 241.356Z" fill="#B1D2FC"/>
<path fill-rule="evenodd" clip-rule="evenodd" d="M340.232 12.8455H49.1836C38.7509 12.8455 30.2148 22.3483 30.2148 33.9626V220.817V223.505C30.2148 235.119 38.7507 244.622 49.1834 244.622H340.232C350.665 244.622 359.201 235.12 359.201 223.505V220.817V209.627V33.9626C359.201 22.3485 350.665 12.8455 340.232 12.8455Z" fill="#B1D2FC"/>
<path d="M385.421 228.581H303.713V294.03H385.421V228.581Z" fill="#7BA9E3"/>
<path d="M349.831 23.8586H39.9521C39.8249 23.8586 39.7207 23.9746 39.7207 24.1163V209.627H350.063V24.1163C350.063 23.9746 349.959 23.8586 349.831 23.8586Z" fill="#2A4589"/>
<path d="M159.765 115.473H151.172V131.489H159.765V115.473Z" fill="#7BA9E3"/>
<path fill-rule="evenodd" clip-rule="evenodd" d="M194.708 221.667C191.332 221.667 188.596 224.403 188.596 227.778C188.596 231.154 191.332 233.89 194.708 233.89C198.083 233.89 200.819 231.154 200.819 227.778C200.819 224.403 198.083 221.667 194.708 221.667Z" fill="#7BA9E3"/>
<path d="M221.351 244.622H169.965V253.78H221.351V244.622Z" fill="#7BA9E3"/>
<path d="M221.351 244.622H169.965V253.78H221.351V244.622Z" stroke="#7BA9E3" stroke-width="0.0468835" stroke-miterlimit="22.9256"/>
<path d="M331.312 67.6538H272.65V196.731H331.312V67.6538Z" fill="#4D69AF"/>
<path fill-rule="evenodd" clip-rule="evenodd" d="M89.2258 85.6295H113.425C114.34 85.6295 115.089 84.8812 115.089 83.9663C115.089 83.0514 114.34 82.303 113.425 82.303H89.2258C88.3109 82.303 87.5625 83.0514 87.5625 83.9663C87.5625 84.8812 88.3109 85.6295 89.2258 85.6295Z" fill="#E8F6FD"/>
<path d="M134.95 67.6538H19.3633V160.24H134.95V67.6538Z" fill="#1661AC"/>
<path fill-rule="evenodd" clip-rule="evenodd" d="M95.8929 109.316L124.946 153.692H104.667H66.8399H27.3125L65.9897 94.6162L85.7533 124.804L95.8929 109.316ZM104.281 81.9668C110.29 81.9668 115.162 86.8386 115.162 92.8483C115.162 98.8581 110.29 103.73 104.281 103.73C98.2709 103.73 93.3992 98.8579 93.3992 92.8483C93.3992 86.8388 98.2711 81.9668 104.281 81.9668Z" fill="white"/>
<path fill-rule="evenodd" clip-rule="evenodd" d="M388.025 64.9768L389.59 63.3923C390.243 62.7294 390.385 61.708 389.919 60.9031C389.021 59.3434 388.334 57.699 387.857 56.0044C387.602 55.1078 386.774 54.4942 385.843 54.5022L383.616 54.512C382.461 54.5207 381.516 53.5917 381.508 52.437L381.482 48.1708C381.475 47.0152 382.408 46.0732 383.563 46.0662L385.791 46.0519C386.724 46.0456 387.543 45.4233 387.785 44.5236C388.241 42.823 388.909 41.1697 389.788 39.6006C390.244 38.7884 390.089 37.7722 389.424 37.1171L387.841 35.5511C387.018 34.7402 387.012 33.4155 387.822 32.5931L390.821 29.558C391.631 28.7352 392.956 28.7282 393.779 29.5389L395.363 31.1037C396.026 31.7572 397.046 31.9011 397.852 31.4364C399.41 30.5374 401.055 29.8508 402.747 29.3722C403.647 29.1198 404.258 28.2904 404.253 27.3575L404.239 25.1301C404.231 23.975 405.162 23.0319 406.317 23.0277L410.583 22.9993C411.739 22.9919 412.68 23.9244 412.688 25.0793L412.702 27.3067C412.708 28.2394 413.331 29.0607 414.231 29.2997C415.93 29.7581 417.584 30.4258 419.155 31.3025C419.965 31.7605 420.983 31.604 421.638 30.9424L423.202 29.3574C424.013 28.5346 425.337 28.5277 426.16 29.339L429.195 32.3365C430.017 33.1494 430.025 34.4723 429.214 35.2951L427.65 36.8788C426.996 37.5423 426.853 38.5599 427.318 39.3697C428.218 40.924 428.903 42.5706 429.381 44.2631C429.633 45.1635 430.463 45.7749 431.395 45.771L433.623 45.755C434.779 45.7469 435.72 46.6796 435.727 47.8345L435.756 52.0977C435.762 53.2546 434.829 54.1957 433.674 54.204L431.448 54.2155C430.513 54.2231 429.694 54.8447 429.453 55.7472C428.995 57.4459 428.33 59.1011 427.451 60.6672C426.994 61.4787 427.148 62.5006 427.812 63.1542L429.395 64.7185C430.218 65.529 430.227 66.8547 429.414 67.6765L426.418 70.7133C425.607 71.532 424.281 71.5409 423.457 70.7302L421.875 69.1642C421.212 68.51 420.193 68.3695 419.383 68.8344C417.827 69.7324 416.182 70.4181 414.49 70.8969C413.592 71.1498 412.98 71.977 412.985 72.9103L413 75.1371C413.006 76.2939 412.075 77.237 410.92 77.2446L406.654 77.2692C405.499 77.2772 404.555 76.3471 404.549 75.19L404.535 72.9617C404.529 72.029 403.908 71.2103 403.007 70.9668C401.305 70.5136 399.652 69.8459 398.084 68.9651C397.27 68.5104 396.256 68.6628 395.602 69.327L394.034 70.9119C393.224 71.7345 391.898 71.7432 391.076 70.9306L388.042 67.9324C387.219 67.1224 387.212 65.7977 388.025 64.9768ZM401.992 59.6353C405.959 62.4479 411.432 62.414 415.365 59.5517C421.856 54.8289 421.795 45.2796 415.246 40.6355C411.278 37.8256 405.807 37.8575 401.876 40.7193C395.383 45.4435 395.441 54.9923 401.992 59.6353Z" fill="#C3DCFA"/>
<path d="M331.047 37.1665H102.471V52.8944H331.047V37.1665Z" fill="#E7EFF9"/>
<path d="M331.047 37.1665H310.205V52.8944H331.047V37.1665Z" fill="#B1D2FC"/>
<path d="M172.273 102.118H163.68V131.489H172.273V102.118Z" fill="#7BA9E3"/>
<path d="M184.781 95.8433H176.188V131.489H184.781V95.8433Z" fill="#7BA9E3"/>
<path d="M197.289 91.3875H188.695V131.489H197.289V91.3875Z" fill="#7BA9E3"/>
<path d="M209.796 95.8433H201.203V131.489H209.796V95.8433Z" fill="#7BA9E3"/>
<path d="M222.304 83.5325H213.711V131.488H222.304V83.5325Z" fill="#7BA9E3"/>
<path d="M234.81 73.5647H226.217V131.489H234.81V73.5647Z" fill="#7BA9E3"/>
<path d="M256.097 79.6982H380.404C383.884 79.6982 386.732 82.5458 386.732 86.026V127.157C386.732 130.637 383.884 133.484 380.404 133.484C355.432 133.484 296.347 133.484 256.097 133.484C252.617 133.484 249.77 130.637 249.77 127.157V86.026C249.769 82.5458 252.617 79.6982 256.097 79.6982Z" fill="#CCE1F9"/>
<path fill-rule="evenodd" clip-rule="evenodd" d="M310.6 92.7424H372.971C374.288 92.7424 375.366 93.8203 375.366 95.1376C375.366 96.4551 374.288 97.533 372.971 97.533H310.6C309.283 97.533 308.205 96.4551 308.205 95.1376C308.205 93.8201 309.283 92.7424 310.6 92.7424Z" fill="#7BA9E3"/>
<path fill-rule="evenodd" clip-rule="evenodd" d="M310.6 104.215H372.971C374.288 104.215 375.366 105.292 375.366 106.61C375.366 107.928 374.288 109.005 372.971 109.005H310.6C309.283 109.005 308.205 107.927 308.205 106.61C308.205 105.292 309.283 104.215 310.6 104.215Z" fill="#7BA9E3"/>
<path d="M310.601 115.687H338.118C339.435 115.687 340.513 116.765 340.513 118.082C340.513 119.4 339.435 120.478 338.118 120.478H310.601C309.283 120.478 308.205 119.4 308.205 118.082C308.205 116.765 309.283 115.687 310.601 115.687Z" fill="#7BA9E3"/>
<path fill-rule="evenodd" clip-rule="evenodd" d="M280.172 88.8977C270.084 88.8977 261.906 97.0752 261.906 107.163C261.906 117.251 270.084 125.428 280.172 125.428C290.259 125.428 298.437 117.251 298.437 107.163C298.437 97.0752 290.259 88.8977 280.172 88.8977Z" fill="#7BA9E3"/>
<path fill-rule="evenodd" clip-rule="evenodd" d="M268.221 117.034C271.022 120.525 275.322 122.76 280.146 122.76C284.685 122.76 288.762 120.78 291.561 117.637C291.135 112.945 291.341 110.731 285.852 106.821C284.667 108.906 282.427 110.312 279.858 110.312C277.292 110.312 275.054 108.909 273.868 106.829C268.469 110.82 268.778 112.598 268.221 117.034Z" fill="white"/>
<path fill-rule="evenodd" clip-rule="evenodd" d="M279.858 98.2134C276.982 98.2134 274.65 100.545 274.65 103.421C274.65 106.297 276.982 108.628 279.858 108.628C282.734 108.628 285.065 106.297 285.065 103.421C285.065 100.545 282.734 98.2134 279.858 98.2134Z" fill="white"/>
<path fill-rule="evenodd" clip-rule="evenodd" d="M330.11 273.662L331.209 272.55C331.668 272.085 331.767 271.368 331.44 270.803C330.81 269.708 330.327 268.553 329.993 267.364C329.813 266.734 329.233 266.304 328.579 266.309L327.015 266.316C326.205 266.322 325.541 265.67 325.536 264.859L325.518 261.864C325.513 261.053 326.168 260.392 326.978 260.387L328.542 260.377C329.197 260.373 329.773 259.936 329.942 259.304C330.262 258.11 330.731 256.95 331.348 255.848C331.668 255.278 331.559 254.564 331.093 254.105L329.982 253.005C329.403 252.436 329.399 251.506 329.968 250.929L332.073 248.798C332.642 248.221 333.572 248.216 334.15 248.785L335.262 249.883C335.727 250.342 336.443 250.443 337.009 250.117C338.103 249.486 339.258 249.004 340.446 248.668C341.078 248.491 341.507 247.908 341.503 247.253L341.493 245.69C341.488 244.879 342.141 244.217 342.952 244.214L345.947 244.194C346.758 244.189 347.419 244.843 347.424 245.654L347.434 247.218C347.438 247.873 347.876 248.449 348.508 248.617C349.701 248.939 350.862 249.407 351.964 250.023C352.533 250.345 353.248 250.235 353.708 249.77L354.806 248.658C355.375 248.08 356.304 248.075 356.882 248.645L359.013 250.749C359.59 251.32 359.595 252.248 359.026 252.826L357.928 253.938C357.468 254.404 357.368 255.118 357.695 255.686C358.327 256.778 358.807 257.934 359.143 259.122C359.32 259.754 359.903 260.183 360.557 260.18L362.121 260.169C362.932 260.163 363.594 260.818 363.598 261.629L363.618 264.622C363.623 265.434 362.968 266.095 362.157 266.101L360.595 266.109C359.938 266.114 359.363 266.551 359.194 267.184C358.873 268.377 358.405 269.539 357.788 270.638C357.468 271.208 357.576 271.925 358.042 272.384L359.153 273.482C359.731 274.051 359.738 274.982 359.167 275.559L357.063 277.691C356.494 278.265 355.563 278.272 354.985 277.703L353.874 276.603C353.409 276.144 352.693 276.045 352.124 276.372C351.033 277.002 349.877 277.483 348.69 277.819C348.06 277.997 347.629 278.577 347.633 279.233L347.644 280.796C347.648 281.608 346.995 282.27 346.183 282.276L343.188 282.293C342.377 282.298 341.715 281.646 341.711 280.833L341.701 279.269C341.697 278.614 341.261 278.039 340.628 277.868C339.434 277.55 338.273 277.081 337.172 276.463C336.601 276.144 335.889 276.251 335.43 276.717L334.329 277.83C333.76 278.407 332.829 278.413 332.253 277.843L330.122 275.738C329.545 275.168 329.54 274.239 330.11 273.662ZM339.915 269.913C342.701 271.887 346.542 271.863 349.303 269.854C353.86 266.538 353.818 259.834 349.22 256.574C346.435 254.602 342.594 254.624 339.834 256.633C335.276 259.95 335.316 266.653 339.915 269.913Z" fill="white"/>
<path d="M309.384 148.57H249.258V196.731H309.384V148.57Z" fill="#7BA9E3"/>
<path fill-rule="evenodd" clip-rule="evenodd" d="M271.553 181.462V166.812L286.203 158.589L289.697 156.582V174.983C290.155 176.813 288.329 179.316 285.172 180.869C282.014 182.421 279.612 181.872 278.788 180.031C277.963 178.189 279.858 175.343 282.185 174.199C284.512 173.056 284.988 173.156 286.203 173.118V162.742L275.047 169.003V183.443C275.398 185.264 273.622 187.676 270.497 189.213C267.371 190.75 265.138 190.267 264.314 188.425C263.489 186.584 265.178 183.69 267.51 182.544C269.842 181.397 270.332 181.496 271.553 181.462Z" fill="white"/>
<path d="M66.9681 0.0473633H0.146484V53.5721H66.9681V0.0473633Z" fill="#7BA9E3"/>
<path fill-rule="evenodd" clip-rule="evenodd" d="M16.5762 27.3638C16.5762 38.0276 25.221 46.6724 35.8848 46.6724C46.5486 46.6724 55.1934 38.0276 55.1934 27.3638C55.1934 16.7 46.5486 8.05518 35.8848 8.05518V16.7108C41.7683 16.7108 46.5378 21.4804 46.5378 27.3638C46.5378 33.2473 41.7683 38.017 35.8848 38.017C30.0014 38.017 25.2318 33.2475 25.2318 27.3638H16.5762Z" fill="white"/>
<path fill-rule="evenodd" clip-rule="evenodd" d="M33.8779 6.81616C23.8398 7.21858 15.7752 15.283 15.373 25.321H24.0404C24.4239 20.0646 28.6215 15.867 33.8779 15.4835V6.81616Z" fill="#1661AC"/>
<path d="M152.574 127.781L193.107 104.379L205.601 116.873L235.666 99.4912L236.4 100.769L205.354 118.718L192.862 106.226L153.314 129.058L152.574 127.781Z" fill="#1661AC"/>
<path fill-rule="evenodd" clip-rule="evenodd" d="M192.966 102.527C194.56 102.527 195.853 103.82 195.853 105.414C195.853 107.009 194.56 108.302 192.966 108.302C191.371 108.302 190.078 107.009 190.078 105.414C190.078 103.82 191.371 102.527 192.966 102.527Z" fill="#1661AC"/>
<path fill-rule="evenodd" clip-rule="evenodd" d="M205.536 114.636C207.131 114.636 208.424 115.929 208.424 117.523C208.424 119.118 207.131 120.411 205.536 120.411C203.941 120.411 202.648 119.118 202.648 117.523C202.648 115.929 203.941 114.636 205.536 114.636Z" fill="#1661AC"/>
<path fill-rule="evenodd" clip-rule="evenodd" d="M235.759 97.3442C237.354 97.3442 238.646 98.637 238.646 100.232C238.646 101.827 237.354 103.12 235.759 103.12C234.164 103.12 232.871 101.827 232.871 100.232C232.871 98.637 234.164 97.3442 235.759 97.3442Z" fill="#1661AC"/>
<path fill-rule="evenodd" clip-rule="evenodd" d="M152.571 126.038C154.166 126.038 155.459 127.331 155.459 128.926C155.459 130.521 154.166 131.814 152.571 131.814C150.977 131.814 149.684 130.521 149.684 128.926C149.683 127.331 150.976 126.038 152.571 126.038Z" fill="#1661AC"/>
<path d="M147.809 48.223C147.809 48.3622 147.783 48.4948 147.73 48.6209C147.677 48.7468 147.604 48.8562 147.511 48.9491C147.418 49.042 147.309 49.1149 147.183 49.1679C147.057 49.2211 146.924 49.2475 146.785 49.2475C146.646 49.2475 146.515 49.2211 146.392 49.1679C146.269 49.1149 146.161 49.042 146.069 48.9491C145.976 48.8562 145.903 48.7468 145.85 48.6209C145.797 48.495 145.77 48.3624 145.77 48.223C145.77 48.0839 145.797 47.9545 145.85 47.8352C145.903 47.7158 145.976 47.6096 146.069 47.5169C146.161 47.4243 146.269 47.3514 146.392 47.2982C146.515 47.245 146.645 47.2187 146.785 47.2187C146.924 47.2187 147.057 47.2452 147.183 47.2982C147.309 47.3511 147.418 47.424 147.511 47.5169C147.604 47.6098 147.677 47.716 147.73 47.8352C147.783 47.9545 147.809 48.0837 147.809 48.223ZM135.039 42.1859C135.006 42.1065 135.004 42.0385 135.034 41.9821C135.064 41.9257 135.115 41.8975 135.188 41.8975H136.809C136.875 41.8975 136.939 41.9189 136.998 41.9621C137.058 42.0051 137.098 42.0565 137.118 42.1162L138.252 45.4283C138.272 45.4947 138.306 45.5277 138.356 45.5277C138.406 45.5277 138.441 45.4945 138.46 45.4283L139.555 42.1262C139.574 42.0598 139.614 42.0051 139.674 41.9621C139.734 41.9189 139.8 41.8975 139.873 41.8975H141.196C141.269 41.8975 141.335 41.9189 141.395 41.9621C141.454 42.0051 141.494 42.0598 141.514 42.1262L142.608 45.4482C142.628 45.5144 142.663 45.5476 142.712 45.5476C142.762 45.5476 142.8 45.5144 142.827 45.4482L143.97 42.1162C143.997 42.0565 144.04 42.0051 144.1 41.9621C144.159 41.9189 144.226 41.8975 144.298 41.8975H145.91C145.983 41.8975 146.032 41.9257 146.059 41.9821C146.085 42.0385 146.089 42.0965 146.069 42.1562L143.662 48.9491C143.636 49.0155 143.592 49.0702 143.533 49.1132C143.473 49.1561 143.407 49.1779 143.334 49.1779H142.051C141.978 49.1779 141.912 49.1564 141.852 49.1132C141.792 49.07 141.752 49.0153 141.732 48.9491L140.638 45.6373C140.619 45.5709 140.584 45.5379 140.534 45.5379C140.484 45.5379 140.449 45.5711 140.429 45.6373L139.336 48.9491C139.316 49.0155 139.276 49.0702 139.216 49.1132C139.156 49.1561 139.09 49.1779 139.017 49.1779H137.734C137.661 49.1779 137.595 49.1529 137.535 49.1032C137.475 49.0535 137.439 49.002 137.426 48.9491L135.039 42.1859ZM123.681 42.1859C123.648 42.1065 123.646 42.0385 123.676 41.9821C123.706 41.9257 123.757 41.8975 123.83 41.8975H125.451C125.517 41.8975 125.581 41.9189 125.64 41.9621C125.7 42.0051 125.74 42.0565 125.76 42.1162L126.893 45.4283C126.913 45.4947 126.948 45.5277 126.998 45.5277C127.047 45.5277 127.082 45.4945 127.102 45.4283L128.196 42.1262C128.216 42.0598 128.256 42.0051 128.316 41.9621C128.375 41.9189 128.442 41.8975 128.515 41.8975H129.837C129.91 41.8975 129.977 41.9189 130.036 41.9621C130.096 42.0051 130.136 42.0598 130.156 42.1262L131.25 45.4482C131.27 45.5144 131.304 45.5476 131.354 45.5476C131.404 45.5476 131.442 45.5144 131.468 45.4482L132.612 42.1162C132.639 42.0565 132.682 42.0051 132.741 41.9621C132.801 41.9189 132.867 41.8975 132.941 41.8975H134.552C134.625 41.8975 134.674 41.9257 134.701 41.9821C134.727 42.0385 134.731 42.0965 134.711 42.1562L132.304 48.9491C132.277 49.0155 132.234 49.0702 132.175 49.1132C132.115 49.1561 132.049 49.1779 131.976 49.1779H130.693C130.62 49.1779 130.553 49.1564 130.494 49.1132C130.434 49.07 130.394 49.0153 130.374 48.9491L129.281 45.6373C129.261 45.5709 129.226 45.5379 129.176 45.5379C129.126 45.5379 129.092 45.5711 129.072 45.6373L127.978 48.9491C127.958 49.0155 127.918 49.0702 127.858 49.1132C127.799 49.1561 127.732 49.1779 127.66 49.1779H126.377C126.304 49.1779 126.237 49.1529 126.178 49.1032C126.118 49.0535 126.081 49.002 126.068 48.9491L123.681 42.1859ZM112.323 42.1859C112.29 42.1065 112.288 42.0385 112.318 41.9821C112.348 41.9257 112.399 41.8975 112.472 41.8975H114.093C114.16 41.8975 114.222 41.9189 114.282 41.9621C114.342 42.0051 114.382 42.0565 114.402 42.1162L115.535 45.4283C115.555 45.4947 115.59 45.5277 115.64 45.5277C115.689 45.5277 115.724 45.4945 115.744 45.4283L116.838 42.1262C116.858 42.0598 116.898 42.0051 116.957 41.9621C117.017 41.9189 117.083 41.8975 117.156 41.8975H118.479C118.552 41.8975 118.618 41.9189 118.678 41.9621C118.738 42.0051 118.777 42.0598 118.797 42.1262L119.891 45.4482C119.911 45.5144 119.946 45.5476 119.996 45.5476C120.045 45.5476 120.084 45.5144 120.11 45.4482L121.254 42.1162C121.28 42.0565 121.324 42.0051 121.383 41.9621C121.443 41.9189 121.509 41.8975 121.582 41.8975H123.194C123.266 41.8975 123.316 41.9257 123.343 41.9821C123.369 42.0385 123.372 42.0965 123.353 42.1562L120.946 48.9491C120.919 49.0155 120.876 49.0702 120.816 49.1132C120.757 49.1561 120.69 49.1779 120.617 49.1779H119.334C119.261 49.1779 119.195 49.1564 119.135 49.1132C119.076 49.07 119.036 49.0153 119.016 48.9491L117.922 45.6373C117.902 45.5709 117.867 45.5379 117.817 45.5379C117.768 45.5379 117.733 45.5711 117.713 45.6373L116.619 48.9491C116.599 49.0155 116.559 49.0702 116.5 49.1132C116.44 49.1561 116.374 49.1779 116.301 49.1779H115.018C114.945 49.1779 114.878 49.1529 114.819 49.1032C114.759 49.0535 114.723 49.002 114.709 48.9491L112.323 42.1859Z" fill="#2A4589"/>
<path d="M175.08 180.024H87.5625V244.622H175.08V180.024Z" fill="#1661AC"/>
<path fill-rule="evenodd" clip-rule="evenodd" d="M130.052 196.169C138.755 196.169 145.809 203.224 145.809 211.926C145.809 220.629 138.754 227.684 130.052 227.684C121.35 227.684 114.295 220.629 114.295 211.926C114.295 203.224 121.35 196.169 130.052 196.169Z" fill="#8EB3D7"/>
<path fill-rule="evenodd" clip-rule="evenodd" d="M125.088 204.035L138.41 211.926L125.088 219.817V204.035Z" fill="white"/>
<path fill-rule="evenodd" clip-rule="evenodd" d="M196.763 154.766H225.976C230.835 154.766 234.811 158.742 234.811 163.601C234.811 168.461 230.835 172.437 225.976 172.437H196.763C191.904 172.437 187.928 168.461 187.928 163.602C187.928 158.742 191.904 154.766 196.763 154.766Z" fill="#7BA9E3"/>
<path fill-rule="evenodd" clip-rule="evenodd" d="M197.189 157.809H225.551C228.736 157.809 231.343 160.415 231.343 163.601C231.343 166.787 228.737 169.394 225.551 169.394H197.189C194.003 169.394 191.396 166.787 191.396 163.601C191.396 160.416 194.003 157.809 197.189 157.809Z" fill="#B1D2FC"/>
<path fill-rule="evenodd" clip-rule="evenodd" d="M197.344 159.208C199.771 159.208 201.738 161.175 201.738 163.602C201.738 166.028 199.771 167.995 197.344 167.995C194.918 167.995 192.951 166.028 192.951 163.602C192.951 161.175 194.918 159.208 197.344 159.208Z" fill="white"/>
<path fill-rule="evenodd" clip-rule="evenodd" d="M196.763 177.202H225.976C230.835 177.202 234.811 181.178 234.811 186.037C234.811 190.897 230.835 194.872 225.976 194.872H196.763C191.904 194.872 187.928 190.896 187.928 186.037C187.928 181.178 191.904 177.202 196.763 177.202Z" fill="#7BA9E3"/>
<path fill-rule="evenodd" clip-rule="evenodd" d="M197.189 180.245H225.551C228.736 180.245 231.343 182.852 231.343 186.037C231.343 189.223 228.737 191.83 225.551 191.83H197.189C194.003 191.83 191.396 189.223 191.396 186.037C191.396 182.852 194.003 180.245 197.189 180.245Z" fill="#B1D2FC"/>
<path fill-rule="evenodd" clip-rule="evenodd" d="M197.344 181.644C199.771 181.644 201.738 183.611 201.738 186.037C201.738 188.464 199.771 190.431 197.344 190.431C194.918 190.431 192.951 188.464 192.951 186.037C192.951 183.611 194.918 181.644 197.344 181.644Z" fill="white"/>
<path d="M321.462 42.0455C321.999 42.0455 322.536 42.2504 322.946 42.66C323.355 43.0696 323.56 43.6068 323.56 44.1438C323.56 44.6808 323.355 45.218 322.946 45.6276C322.536 46.0371 321.999 46.242 321.462 46.242C320.925 46.242 320.388 46.0371 319.978 45.6276C319.569 45.218 319.364 44.6808 319.364 44.1438C319.364 43.6068 319.569 43.0696 319.978 42.66C320.388 42.2504 320.925 42.0455 321.462 42.0455ZM323.518 42.0881C322.95 41.5205 322.206 41.2366 321.462 41.2366C320.718 41.2366 319.974 41.5205 319.406 42.0881C318.839 42.6559 318.555 43.3997 318.555 44.1438C318.555 44.7923 318.77 45.4407 319.202 45.9725L316.681 48.4933C316.528 48.6459 316.528 48.8953 316.681 49.0477C316.833 49.2 317.083 49.2 317.235 49.0477L319.772 46.5105C320.276 46.8711 320.869 47.0512 321.462 47.0512C322.205 47.0512 322.95 46.7673 323.517 46.1997C324.085 45.6321 324.369 44.8881 324.369 44.144C324.369 43.3999 324.085 42.6559 323.518 42.0881Z" fill="white"/>
<path d="M386.731 148.57H322.617V196.731H386.731V148.57Z" fill="#C3DCFA"/>
<path fill-rule="evenodd" clip-rule="evenodd" d="M352.581 160.883L351.363 156.881H339.225V160.883V185.345H370.257V160.883H352.581Z" fill="#F48120"/>
<path fill-rule="evenodd" clip-rule="evenodd" d="M339.855 162.028H369.653L369.261 183.348H340.218L339.855 162.028Z" fill="white"/>
<path fill-rule="evenodd" clip-rule="evenodd" d="M338.193 164.192H371.157L370.257 183.348H339.225L338.193 164.192Z" fill="#FFDD33"/>
</svg>
