<svg width="420" height="244" viewBox="0 0 420 244" fill="none" xmlns="http://www.w3.org/2000/svg">
<g clip-path="url(#clip0_11826_18329)">
<path d="M285.769 118.154C279.207 126.3 270.722 131.957 262.237 136.935C253.751 142.026 245.04 146.665 237.459 153.566C230.897 159.45 224.901 165.898 222.186 172.121C218.226 181.285 232.029 203.121 216.303 222.128C213.248 225.748 208.27 227.106 203.857 225.748L200.011 224.504C196.503 223.373 193.788 220.657 192.544 217.15C188.697 206.176 179.306 192.26 184.963 174.949C191.525 154.585 214.379 143.497 223.317 132.183C241.306 109.556 254.883 55.0231 244.361 18.4795C243.229 14.4065 241.872 9.88103 243.569 5.80806C246.284 -0.640813 254.091 -0.867088 259.634 1.05626C271.401 5.01609 282.149 14.2934 284.977 28.0963C287.353 39.6363 279.32 54.118 282.036 65.5449C284.072 74.1434 294.255 79.6872 295.499 88.512C296.857 98.8075 292.444 110.008 285.769 118.154Z" fill="#D2D9DC"/>
<path d="M258.398 116.004C260.661 110.913 262.698 104.917 264.395 97.676C274.69 55.3624 264.168 25.3808 263.942 24.9282C264.395 28.6618 270.504 47.2164 264.168 82.5155C259.077 107.745 251.836 120.417 243.464 129.241C243.804 100.957 250.592 86.7016 251.384 83.4206C251.384 83.4206 241.88 101.975 240.636 131.957C230.906 141.008 219.705 146.325 208.391 160.354C185.99 188.186 203.979 199.274 196.625 224.843C202.961 226.993 202.056 226.088 207.486 227.332C210.315 215.34 209.183 208.099 207.147 196.559C205.337 185.924 206.581 183.661 206.807 181.398C207.713 176.42 211.786 169.406 214.84 165.333C228.643 146.325 244.369 142.479 255.683 121.435C279.442 104.464 289.511 86.1359 289.511 86.0228C287.362 88.5118 279.668 101.523 258.398 116.004Z" fill="#839299"/>
<path d="M173.652 70.4092C139.371 153.792 175.915 185.584 187.908 193.39C196.393 198.934 199.448 210.7 191.867 219.525L181.119 222.806C167.769 219.525 142.087 210.361 131.565 179.814C127.266 167.255 127.944 147.456 130.66 135.011C134.167 118.945 124.098 110.46 123.419 92.2448C123.306 89.6426 123.532 87.0405 124.098 84.5514C128.284 68.8252 143.444 53.099 161.094 54.9093C168.787 55.5881 177.046 62.3764 173.652 70.4092Z" fill="#D2D9DC"/>
<path d="M145.366 144.515C145.366 144.515 145.366 143.497 145.366 143.383C146.271 126.073 154.191 117.701 150.231 97.7888C148.987 91.5662 148.081 87.267 150.797 78.4422C153.173 70.9751 157.019 63.9605 158.151 61.6978C154.078 69.0517 147.063 79.913 147.176 90.7742C147.176 93.3764 147.516 95.6392 147.855 98.1282C149.439 110.008 146.95 117.588 144.235 125.621C143.33 121.774 141.859 117.588 139.483 112.949C136.541 107.292 134.505 103.446 134.618 94.2815C134.731 86.475 136.541 78.6685 136.994 76.0663C135.071 84.2122 131.45 96.6574 134.618 107.066C135.41 109.555 136.315 111.705 137.333 113.968C140.727 121.661 141.633 127.884 141.746 133.88C140.954 136.821 140.388 139.989 139.936 143.61V144.175C137.899 168.613 153.173 186.036 165.731 199.5C164.486 198.934 163.129 198.255 161.771 197.463C154.757 193.617 149.439 189.657 144.008 185.81C143.556 186.263 154.078 196.219 162.111 200.858L162.563 201.197C165.618 202.894 168.559 204.365 171.275 205.609C172.067 206.514 172.859 207.42 173.651 208.325C173.651 208.325 173.877 208.551 173.99 208.664C173.99 208.777 178.063 212.85 180.665 222.014C181.57 224.956 184.625 226.653 187.567 225.748C190.621 224.843 192.205 221.562 191.187 218.62C187.227 207.08 181.57 201.876 178.855 199.274C170.822 191.58 161.771 183.774 155.096 174.496C155.322 172.799 155.435 170.989 155.549 169.179V168.613C155.888 159.336 153.286 145.194 152.607 145.194C152.833 151.869 153.286 158.431 152.72 166.464C152.607 167.821 152.494 169.179 152.381 170.423C148.081 163.183 145.14 154.697 145.366 144.515Z" fill="#839299"/>
<path d="M198.314 74.5955C189.942 87.1538 186.774 93.1501 185.643 109.555V109.668V110.913C185.303 124.603 187.679 131.617 193.336 142.591C200.125 155.829 204.65 166.124 202.614 186.489L201.935 193.617H187.566C189.49 184.113 194.128 170.537 186.887 152.774C181.796 139.65 174.555 128.449 179.76 102.201C180.099 100.957 181.231 93.6027 186.209 84.891C193.563 71.767 204.424 65.205 208.157 45.519C210.081 35.676 210.081 29.4534 209.402 23.1177C209.515 23.7965 210.081 26.5118 210.307 30.2454C210.42 32.5081 210.533 35.3366 210.42 38.6176C209.515 55.2489 205.442 63.8474 198.314 74.5955Z" fill="#002548"/>
<path d="M183.719 127.884C192.544 116.57 203.518 111.252 209.401 92.8108C212.456 83.3072 213.361 77.0846 213.474 70.6357C213.7 76.0664 213.7 79.7999 212.569 86.1357C209.74 102.314 204.649 110.347 196.164 120.303C191.978 125.168 188.923 128.902 186.547 132.862C185.529 131.278 184.624 129.581 183.719 127.884Z" fill="#002548"/>
<path d="M170.712 60.7926C172.409 62.3765 174.445 64.2999 176.595 66.7889C182.478 73.5772 185.985 79.2341 188.361 85.1173C187.569 86.0224 186.89 86.9275 186.325 87.8326C185.08 83.3071 183.044 78.5553 179.649 73.3509C174.219 64.9787 170.033 60.3401 165.055 56.2671C165.734 56.7196 167.996 58.3036 170.712 60.7926Z" fill="#002548"/>
<path d="M169.925 150.738C157.932 147.457 154.425 129.468 153.407 124.716C152.728 121.435 151.484 119.964 150.805 119.285C151.597 119.738 153.294 120.53 156.348 120.19C160.874 119.738 177.732 117.475 184.52 128.562C188.932 135.69 188.932 141.121 188.593 144.402C188.367 146.778 186.896 148.814 184.859 149.832C181.918 151.303 177.279 152.774 169.925 150.738Z" fill="#0054A6"/>
<path d="M209.184 73.3513C207.6 69.052 212.126 64.074 213.257 62.7163C214.049 61.8112 214.275 61.1324 214.275 60.793C214.275 61.1324 214.502 61.8112 215.181 62.6032C216.312 63.8477 220.724 68.3732 218.914 72.7856C217.783 75.614 216.199 76.8586 215.067 77.5374C214.275 77.9899 213.37 77.99 212.578 77.6505C211.673 77.0848 210.202 76.0666 209.184 73.3513Z" fill="#0054A6"/>
<path d="M202.056 111.365C210.428 106.613 222.194 114.646 225.362 116.683C227.512 118.04 228.982 118.267 229.774 118.267C229.096 118.38 227.738 118.945 226.154 120.869C224.004 123.584 215.858 133.993 206.015 131.617C199.68 130.033 196.738 127.205 195.041 125.168C193.91 123.697 193.57 121.774 194.136 120.077C195.154 117.588 196.851 114.307 202.056 111.365Z" fill="#0054A6"/>
<path d="M166.074 68.1464C158.607 64.9785 157.815 52.9859 157.588 49.818C157.362 47.6684 156.796 46.537 156.344 46.0845C156.796 46.4239 157.928 47.1027 159.851 47.1027C162.793 47.1027 173.993 47.1027 177.387 55.0224C179.65 60.0004 179.198 63.5077 178.745 65.6573C178.406 67.1281 177.274 68.3727 175.803 68.9384C173.88 69.504 170.825 70.0697 166.074 68.1464Z" fill="#0054A6"/>
<path d="M192.887 56.6067C186.778 51.1761 189.946 39.5229 190.738 36.4681C191.303 34.3185 190.964 33.074 190.738 32.5083C191.077 33.074 191.869 33.9791 193.792 34.6579C196.621 35.6762 207.143 39.1834 207.935 47.7819C208.387 53.2126 206.916 56.4936 205.785 58.3038C204.993 59.6614 203.522 60.4534 201.938 60.4534C199.789 60.3403 196.621 59.8877 192.887 56.6067Z" fill="#0054A6"/>
<path d="M198.091 103.333C195.263 99.5994 198.318 93.3768 199.11 91.6798C199.675 90.5484 199.675 89.7564 199.562 89.417C199.675 89.7564 200.015 90.3221 201.033 91.0009C202.504 91.906 208.161 95.0739 207.595 100.052C207.256 103.22 206.124 104.804 205.219 105.822C204.653 106.501 203.635 106.727 202.843 106.614C201.599 106.275 199.902 105.709 198.091 103.333Z" fill="#0054A6"/>
<path d="M220.256 224.643C233.555 211.344 233.555 189.782 220.256 176.483C206.957 163.184 185.395 163.184 172.096 176.483C158.797 189.782 158.797 211.344 172.096 224.643C185.395 237.942 206.957 237.942 220.256 224.643Z" fill="#FFDD33"/>
<path opacity="0.19" d="M220.256 224.643C233.555 211.344 233.555 189.782 220.256 176.483C206.957 163.184 185.395 163.184 172.096 176.483C158.797 189.782 158.797 211.344 172.096 224.643C185.395 237.942 206.957 237.942 220.256 224.643Z" fill="#F9FAFB"/>
<path opacity="0.19" d="M220.256 224.643C233.555 211.344 233.555 189.782 220.256 176.483C206.957 163.184 185.395 163.184 172.096 176.483C158.797 189.782 158.797 211.344 172.096 224.643C185.395 237.942 206.957 237.942 220.256 224.643Z" fill="#F9FAFB"/>
<path d="M196.18 229.595C191.202 229.595 186.337 228.35 181.925 225.861C167.896 218.055 162.918 200.179 170.837 186.263C175.928 177.099 185.771 171.442 196.293 171.442C201.271 171.442 206.136 172.686 210.549 175.175C217.337 179.022 222.202 185.245 224.352 192.712C226.501 200.179 225.483 208.099 221.749 214.774C216.432 223.938 206.702 229.595 196.18 229.595Z" fill="#FFDD33"/>
<path opacity="0.19" d="M195.153 223.033C190.74 223.033 186.215 222.014 184.405 220.883L183.047 219.525L184.405 214.887C187.459 216.358 191.08 217.263 195.153 217.263V204.704C193.795 204.365 192.437 204.026 191.193 203.573C180.897 200.066 181.916 182.869 195.153 181.172L198.321 175.175L199.678 176.533V180.945C202.62 181.172 207.824 181.624 207.824 181.624L209.182 182.982V189.091C205.109 187.507 202.393 187.055 199.678 186.829V199.274C204.091 200.292 207.937 201.536 209.974 205.609C211.784 209.343 212.576 220.544 199.678 222.693V227.445H195.153L193.795 226.087L195.153 223.033ZM191.08 196.445C191.985 197.237 193.342 197.916 195.153 198.369V187.055C188.478 188.073 189.043 194.522 191.08 196.445ZM205.561 210.701C205.561 208.325 204.543 206.515 199.678 205.383V216.697C203.185 215.905 205.561 214.321 205.561 210.701Z" fill="#2D2F31"/>
<path opacity="0.19" d="M218.241 181.398C216.77 180.04 215.073 178.909 213.376 177.891C209.077 175.402 204.098 174.157 199.12 174.157C188.599 174.157 178.869 179.814 173.664 188.978C167.442 199.953 169.252 213.303 177.058 222.354C166.876 213.529 163.934 198.369 170.836 186.15C175.927 176.986 185.77 171.329 196.292 171.329C201.27 171.329 206.135 172.573 210.547 175.062C213.489 176.872 216.091 178.909 218.241 181.398Z" fill="#2D2F31"/>
<path d="M193.802 221.675C189.39 221.675 184.864 220.656 183.054 219.525V213.529C186.109 215 189.729 215.905 193.802 215.905V203.346C192.444 203.007 191.087 202.667 189.842 202.215C179.547 198.708 180.565 181.511 193.802 179.814V175.288H198.328V179.7C201.609 179.927 204.89 180.492 207.831 181.737V187.846C203.758 186.262 201.043 185.81 198.328 185.584V198.029C202.74 199.047 206.587 200.292 208.623 204.365C210.433 208.098 211.225 219.299 198.328 221.448V226.2H193.802V221.675ZM189.729 195.087C190.634 195.879 191.992 196.558 193.802 197.011V185.697C187.127 186.602 187.693 193.051 189.729 195.087ZM204.211 209.343C204.211 206.967 203.192 205.157 198.328 204.025V215.339C201.722 214.547 204.211 212.85 204.211 209.343Z" fill="#FFDD33"/>
<path opacity="0.19" d="M193.802 221.675C189.39 221.675 184.864 220.656 183.054 219.525V213.529C186.109 215 189.729 215.905 193.802 215.905V203.346C192.444 203.007 191.087 202.667 189.842 202.215C179.547 198.708 180.565 181.511 193.802 179.814V175.288H198.328V179.7C201.609 179.927 204.89 180.492 207.831 181.737V187.846C203.758 186.262 201.043 185.81 198.328 185.584V198.029C202.74 199.047 206.587 200.292 208.623 204.365C210.433 208.098 211.225 219.299 198.328 221.448V226.2H193.802V221.675ZM189.729 195.087C190.634 195.879 191.992 196.558 193.802 197.011V185.697C187.127 186.602 187.693 193.051 189.729 195.087ZM204.211 209.343C204.211 206.967 203.192 205.157 198.328 204.025V215.339C201.722 214.547 204.211 212.85 204.211 209.343Z" fill="#F9FAFB"/>
<path opacity="0.19" d="M193.802 221.675C189.39 221.675 184.864 220.656 183.054 219.525V213.529C186.109 215 189.729 215.905 193.802 215.905V203.346C192.444 203.007 191.087 202.667 189.842 202.215C179.547 198.708 180.565 181.511 193.802 179.814V175.288H198.328V179.7C201.609 179.927 204.89 180.492 207.831 181.737V187.846C203.758 186.262 201.043 185.81 198.328 185.584V198.029C202.74 199.047 206.587 200.292 208.623 204.365C210.433 208.098 211.225 219.299 198.328 221.448V226.2H193.802V221.675ZM189.729 195.087C190.634 195.879 191.992 196.558 193.802 197.011V185.697C187.127 186.602 187.693 193.051 189.729 195.087ZM204.211 209.343C204.211 206.967 203.192 205.157 198.328 204.025V215.339C201.722 214.547 204.211 212.85 204.211 209.343Z" fill="#F9FAFB"/>
<path d="M178.743 166.69C177.159 168.274 175.915 169.971 175.349 171.442C174.783 169.971 173.539 168.274 171.955 166.69C170.371 165.106 168.674 163.862 167.203 163.296C168.674 162.73 170.371 161.486 171.955 159.902C173.539 158.318 174.783 156.621 175.349 155.15C175.915 156.621 177.159 158.318 178.743 159.902C180.327 161.486 182.024 162.73 183.495 163.296C182.024 163.862 180.327 165.106 178.743 166.69Z" fill="#D2D9DC"/>
<path d="M227.735 24.0229C226.49 25.2674 225.585 26.625 225.133 27.7564C224.68 26.625 223.775 25.2674 222.53 24.0229C221.286 22.7783 219.928 21.8732 218.797 21.4207C219.928 20.9681 221.286 20.063 222.53 18.8185C223.775 17.574 224.68 16.2163 225.133 15.085C225.585 16.2163 226.49 17.574 227.735 18.8185C228.979 20.063 230.337 20.9681 231.468 21.4207C230.337 21.8732 228.979 22.7783 227.735 24.0229Z" fill="#D2D9DC"/>
<path d="M162.906 82.9679C161.888 84.4387 161.209 85.9095 160.983 87.154C160.304 86.1358 159.173 85.0044 157.702 83.9862C156.231 82.9679 154.76 82.2891 153.516 82.0628C154.534 81.384 155.665 80.2526 156.683 78.7818C157.702 77.311 158.381 75.8402 158.607 74.5957C159.286 75.6139 160.417 76.7453 161.888 77.7636C163.359 78.7818 164.829 79.4606 166.074 79.6869C165.056 80.3657 163.924 81.4971 162.906 82.9679Z" fill="#F9FAFB"/>
<path d="M179.43 39.4096C178.186 40.6541 177.28 42.0118 176.828 43.1431C176.375 42.0118 175.47 40.6541 174.226 39.4096C172.981 38.1651 171.624 37.26 170.492 36.8074C171.624 36.3549 172.981 35.4498 174.226 34.2052C175.47 32.9607 176.375 31.6031 176.828 30.4717C177.28 31.6031 178.186 32.9607 179.43 34.2052C180.675 35.4498 182.032 36.3549 183.164 36.8074C182.032 37.26 180.675 38.1651 179.43 39.4096Z" fill="#D2D9DC"/>
<path d="M207.039 143.384C205.795 144.628 204.89 145.986 204.437 147.117C203.985 145.986 203.08 144.628 201.835 143.384C200.591 142.139 199.233 141.234 198.102 140.782C199.233 140.329 200.591 139.424 201.835 138.179C203.08 136.935 203.985 135.577 204.437 134.446C204.89 135.577 205.795 136.935 207.039 138.179C208.284 139.424 209.642 140.329 210.773 140.782C209.642 141.121 208.397 142.026 207.039 143.384Z" fill="#D2D9DC"/>
<path d="M276.837 81.3836C275.819 81.9493 274.914 82.6281 274.348 83.1938C274.235 82.4018 274.009 81.2704 273.443 80.2522C272.877 79.234 272.199 78.3289 271.633 77.7632C272.425 77.65 273.556 77.4237 274.574 76.8581C275.593 76.2924 276.498 75.6135 277.063 75.0479C277.177 75.8398 277.403 76.9712 277.969 77.9894C278.534 79.0077 279.213 79.9128 279.779 80.4785C278.987 80.5916 277.969 80.931 276.837 81.3836Z" fill="#F9FAFB"/>
</g>
<defs>
<clipPath id="clip0_11826_18329">
<rect width="420" height="244" fill="white"/>
</clipPath>
</defs>
</svg>
