<svg width="48" height="48" viewBox="0 0 48 48" fill="none" xmlns="http://www.w3.org/2000/svg">
<g clip-path="url(#clip0_9463_18354)">
<path fill-rule="evenodd" clip-rule="evenodd" d="M40.4016 8.40001V39.6C40.4016 40 40.0016 40.4 39.6016 40.4H8.40156C8.00156 40.4 7.60156 40 7.60156 39.6V8.40001C7.60156 8.00001 8.00156 7.60001 8.40156 7.60001H39.6016C40.1016 7.60001 40.4016 7.90001 40.4016 8.40001ZM38.8016 9.20001H9.20156V38.8H38.8016V9.20001Z" fill="#002548"/>
<path fill-rule="evenodd" clip-rule="evenodd" d="M19.6008 18.4L24.0008 22.8L28.4008 18.4C28.0008 18.3 27.8008 18 27.8008 17.6C27.8008 17.2 28.2008 16.8 28.6008 16.8L30.3008 16.9C30.7008 16.9 31.1008 17.3 31.1008 17.7L31.2008 19.4C31.2008 19.8 30.9008 20.2 30.4008 20.2C30.0008 20.2 29.7008 19.9 29.6008 19.6L25.1008 24L29.5008 28.4C29.6008 28 29.9008 27.8 30.3008 27.8C30.7008 27.8 31.1008 28.2 31.1008 28.6L31.0008 30.3C31.0008 30.7 30.6008 31.1 30.2008 31.1L28.5008 31.2C28.1008 31.2 27.7008 30.9 27.7008 30.4C27.7008 30 28.0008 29.7 28.3008 29.6L24.0008 25.1L19.6008 29.5C20.0008 29.6 20.2008 29.9 20.2008 30.3C20.2008 30.7 19.8008 31.1 19.4008 31.1L17.7008 31C17.3008 31 16.9008 30.6 16.9008 30.2L16.8008 28.5C16.8008 28.1 17.1008 27.7 17.6008 27.7C18.0008 27.7 18.3008 28 18.4008 28.3L22.8008 23.9L18.4008 19.5C18.3008 19.9 18.0008 20.1 17.6008 20.1C17.2008 20.1 16.8008 19.7 16.8008 19.3L16.9008 17.6C16.9008 17.2 17.3008 16.8 17.7008 16.8L19.4008 16.7C19.8008 16.7 20.2008 17 20.2008 17.5C20.2008 18 19.9008 18.4 19.6008 18.4Z" fill="#002548"/>
<path fill-rule="evenodd" clip-rule="evenodd" d="M39.5992 48C44.1992 48 47.9992 44.2 47.9992 39.6C47.9992 35 44.1992 31.2 39.5992 31.2C34.9992 31.2 31.1992 35 31.1992 39.6C31.1992 44.2 34.9992 48 39.5992 48Z" fill="#54CC5A"/>
<path fill-rule="evenodd" clip-rule="evenodd" d="M39.6008 40.4C36.6008 40.4 34.1008 42.7 33.8008 45.6C35.3008 47.1 37.4008 48 39.6008 48C40.0008 48 40.4008 48 40.8008 47.9C42.6008 47.6 44.2008 46.8 45.4008 45.6C45.1008 42.7 42.6008 40.4 39.6008 40.4Z" fill="#0054A6"/>
<path fill-rule="evenodd" clip-rule="evenodd" d="M39.6016 40C41.2016 40 42.6016 38.7 42.6016 37C42.6016 35.4 41.3016 34 39.6016 34C38.0016 34 36.6016 35.3 36.6016 37C36.7016 38.7 38.0016 40 39.6016 40Z" fill="#FFBD86"/>
<path fill-rule="evenodd" clip-rule="evenodd" d="M8.4 16.8C13 16.8 16.8 13 16.8 8.4C16.8 3.8 13 0 8.4 0C3.8 0 0 3.8 0 8.4C0 13 3.8 16.8 8.4 16.8Z" fill="#54CC5A"/>
<path fill-rule="evenodd" clip-rule="evenodd" d="M8.40156 9.2C5.40156 9.2 2.90156 11.5 2.60156 14.4C4.10156 15.9 6.20156 16.8 8.40156 16.8C8.80156 16.8 9.20156 16.8 9.60156 16.7C11.4016 16.4 13.0016 15.6 14.2016 14.4C13.9016 11.5 11.4016 9.2 8.40156 9.2Z" fill="#0054A6"/>
<path fill-rule="evenodd" clip-rule="evenodd" d="M8.39844 8.8C9.99844 8.8 11.3984 7.5 11.3984 5.8C11.3984 4.2 10.0984 2.8 8.39844 2.8C6.79844 2.8 5.39844 4.1 5.39844 5.8C5.39844 7.4 6.79844 8.8 8.39844 8.8Z" fill="#FFBD86"/>
<path fill-rule="evenodd" clip-rule="evenodd" d="M8.4 48C13 48 16.8 44.2 16.8 39.6C16.8 35 13 31.2 8.4 31.2C3.8 31.2 0 35 0 39.6C0 44.2 3.8 48 8.4 48Z" fill="#54CC5A"/>
<path fill-rule="evenodd" clip-rule="evenodd" d="M8.40156 40.4C5.40156 40.4 2.90156 42.7 2.60156 45.6C4.10156 47.1 6.10156 48 8.40156 48C8.80156 48 9.20156 48 9.60156 47.9C11.4016 47.6 13.0016 46.8 14.2016 45.6C13.9016 42.7 11.4016 40.4 8.40156 40.4Z" fill="#0054A6"/>
<path fill-rule="evenodd" clip-rule="evenodd" d="M8.39844 40C9.99844 40 11.3984 38.7 11.3984 37C11.3984 35.4 10.0984 34 8.39844 34C6.79844 34 5.39844 35.3 5.39844 37C5.39844 38.7 6.79844 40 8.39844 40Z" fill="#FFBD86"/>
<path fill-rule="evenodd" clip-rule="evenodd" d="M39.5992 16.8C44.1992 16.8 47.9992 13 47.9992 8.4C47.9992 3.8 44.1992 0 39.5992 0C34.9992 0 31.1992 3.8 31.1992 8.4C31.1992 13 34.9992 16.8 39.5992 16.8Z" fill="#54CC5A"/>
<path fill-rule="evenodd" clip-rule="evenodd" d="M39.6008 9.2C36.6008 9.2 34.1008 11.5 33.8008 14.4C35.3008 15.9 37.4008 16.8 39.6008 16.8C40.0008 16.8 40.4008 16.8 40.8008 16.7C42.6008 16.4 44.2008 15.6 45.4008 14.4C45.1008 11.5 42.6008 9.2 39.6008 9.2Z" fill="#0054A6"/>
<path fill-rule="evenodd" clip-rule="evenodd" d="M39.6016 8.8C41.2016 8.8 42.6016 7.5 42.6016 5.8C42.6016 4.2 41.3016 2.8 39.6016 2.8C38.0016 2.8 36.6016 4.1 36.6016 5.8C36.7016 7.4 38.0016 8.8 39.6016 8.8Z" fill="#FFBD86"/>
</g>
<defs>
<clipPath id="clip0_9463_18354">
<rect width="48" height="48" fill="white"/>
</clipPath>
</defs>
</svg>
