<svg width="48" height="48" viewBox="0 0 48 48" fill="none" xmlns="http://www.w3.org/2000/svg">
<g id="your-personal-assistant-to_build-custom-data-pipelines 1">
<g id="Group">
<path id="Vector" d="M17.3008 22.7001H38.6008V25.4001H17.3008V22.7001Z" fill="#5F737C"/>
<path id="Vector_2" d="M29.3992 40.9001H26.6992V32.9001C26.6992 31.3001 25.3992 30 23.7992 30H19.1992L17.1992 27.3H23.7992C26.8992 27.3 29.3992 29.8001 29.3992 32.9001V40.9001Z" fill="#5F737C"/>
<path id="Vector_3" d="M29.3992 7.1001H26.6992V15.1001C26.6992 16.7001 25.3992 18.0001 23.7992 18.0001H19.1992L17.1992 20.7001H23.7992C26.8992 20.7001 29.3992 18.2001 29.3992 15.1001V7.1001Z" fill="#5F737C"/>
<path id="Vector_4" d="M33.8004 46.7H22.4004V38.5H33.8004V46.7Z" fill="#FFDD33"/>
<path id="Vector_5" d="M33.8004 9.60005H22.4004V1.30005H33.8004V9.60005Z" fill="#ED1C24"/>
<path id="Vector_6" d="M36.5996 19.9H47.9996V28.1H36.5996V19.9Z" fill="#54CC5A"/>
<path id="Vector_7" d="M0 16.1001H21.9V32.0001H0V16.1001Z" fill="#0054A6"/>
<path id="Vector_8" d="M5.69922 22.2001H9.19922V25.7001H5.69922V22.2001Z" fill="#F9FAFB"/>
<path id="Vector_9" d="M12.6992 22.2001H16.1992V25.7001H12.6992V22.2001Z" fill="#F9FAFB"/>
</g>
</g>
</svg>
