<svg width="50" height="50" viewBox="0 0 50 50" fill="none" xmlns="http://www.w3.org/2000/svg">
<g clip-path="url(#clip0_5349_17281)">
<path d="M38.1803 50H11.8203V42.48C11.8203 38.44 15.1003 35.16 19.1403 35.16H30.8603C34.9003 35.16 38.1803 38.45 38.1803 42.48V50Z" fill="#002548"/>
<path d="M41.1098 8.79005H38.1798V7.32005C38.1798 6.51005 37.5198 5.86005 36.7198 5.86005H35.2598V2.93005H36.7198C39.1398 2.93005 41.1098 4.90005 41.1098 7.32005V8.79005Z" fill="#839299"/>
<path d="M45.6291 20.51H42.6791C41.8691 20.51 41.2191 19.85 41.2191 19.05C41.2191 18.25 41.8791 17.59 42.6791 17.59H45.6091C45.9991 17.59 46.3691 17.74 46.6391 18.02L47.6791 19.06L49.7491 16.99L48.7191 15.95C47.8891 15.12 46.7891 14.66 45.6091 14.66V11.73H42.6791V14.66H42.6591C40.2491 14.67 38.2891 16.64 38.2891 19.05C38.2891 21.47 40.2591 23.44 42.6791 23.44H45.6091C46.4191 23.44 47.0691 24.1 47.0691 24.9C47.0691 25.7 46.4091 26.36 45.6091 26.36H42.6791C42.2891 26.36 41.9191 26.21 41.6491 25.93L40.6091 24.89L38.5391 26.96L39.5691 28C40.3891 28.83 41.4891 29.28 42.6591 29.29H42.6791V32.22H45.6091V29.3C48.0291 29.3 49.9991 27.33 49.9991 24.91C49.9991 22.49 48.0391 20.52 45.6291 20.51Z" fill="#FFDD33"/>
<path d="M11.8206 8.79005H8.89062V7.32005C8.89062 4.90005 10.8606 2.93005 13.2806 2.93005H14.7406V5.86005H13.2806C12.4706 5.86005 11.8206 6.52005 11.8206 7.32005V8.79005Z" fill="#839299"/>
<path d="M25.0002 13.54L18.9602 7.49996C17.2502 5.78996 17.2502 2.99996 18.9602 1.28996C20.6102 -0.370042 23.2702 -0.420042 25.0002 1.11996C26.7202 -0.420042 29.3802 -0.370042 31.0402 1.28996C32.7502 2.99996 32.7502 5.78996 31.0402 7.49996L25.0002 13.54Z" fill="#ED1C24"/>
<path d="M24.9997 35.16C20.9597 35.16 17.6797 31.87 17.6797 27.84C17.6797 23.81 20.9597 20.52 24.9997 20.52C29.0397 20.52 32.3197 23.81 32.3197 27.84C32.3197 31.87 29.0397 35.16 24.9997 35.16Z" fill="#002548"/>
<path d="M8.79 11.72L7.33 14.65L5.87 11.72H4.39C1.96 11.72 0 13.68 0 16.11V24.9C0 27.33 1.96 29.29 4.39 29.29H14.64V11.72H8.79Z" fill="#54CC5A"/>
<path d="M5.85938 11.72H8.78937V17.58H5.85938V11.72Z" fill="#D2D9DC"/>
</g>
<defs>
<clipPath id="clip0_5349_17281">
<rect width="50" height="50" fill="white"/>
</clipPath>
</defs>
</svg>
