<svg width="19" height="19" viewBox="0 0 19 19" fill="none" xmlns="http://www.w3.org/2000/svg">
<mask id="mask0_14553_6152" style="mask-type:alpha" maskUnits="userSpaceOnUse" x="0" y="0" width="19" height="19">
<rect width="19" height="19" fill="#D9D9D9"/>
</mask>
<g mask="url(#mask0_14553_6152)">
<path d="M3.03472 17.8125C2.52674 17.8125 2.09187 17.6497 1.73012 17.3241C1.36837 16.9986 1.1875 16.6072 1.1875 16.15V4.5125C1.1875 4.05531 1.36837 3.66393 1.73012 3.33836C2.09187 3.01279 2.52674 2.85 3.03472 2.85H3.95833V1.1875H5.80556V2.85H13.1944V1.1875H15.0417V2.85H15.9653C16.4733 2.85 16.9081 3.01279 17.2699 3.33836C17.6316 3.66393 17.8125 4.05531 17.8125 4.5125V16.15C17.8125 16.6072 17.6316 16.9986 17.2699 17.3241C16.9081 17.6497 16.4733 17.8125 15.9653 17.8125H3.03472ZM3.03472 16.15H15.9653V7.8375H3.03472V16.15ZM3.03472 6.175H15.9653V4.5125H3.03472V6.175ZM9.5 11.1625C9.23831 11.1625 9.01895 11.0828 8.84193 10.9235C8.6649 10.7642 8.57639 10.5668 8.57639 10.3313C8.57639 10.0957 8.6649 9.89831 8.84193 9.73899C9.01895 9.57966 9.23831 9.5 9.5 9.5C9.76169 9.5 9.98105 9.57966 10.1581 9.73899C10.3351 9.89831 10.4236 10.0957 10.4236 10.3313C10.4236 10.5668 10.3351 10.7642 10.1581 10.9235C9.98105 11.0828 9.76169 11.1625 9.5 11.1625ZM5.80556 11.1625C5.54387 11.1625 5.32451 11.0828 5.14748 10.9235C4.97046 10.7642 4.88194 10.5668 4.88194 10.3313C4.88194 10.0957 4.97046 9.89831 5.14748 9.73899C5.32451 9.57966 5.54387 9.5 5.80556 9.5C6.06725 9.5 6.2866 9.57966 6.46363 9.73899C6.64065 9.89831 6.72917 10.0957 6.72917 10.3313C6.72917 10.5668 6.64065 10.7642 6.46363 10.9235C6.2866 11.0828 6.06725 11.1625 5.80556 11.1625ZM13.1944 11.1625C12.9328 11.1625 12.7134 11.0828 12.5364 10.9235C12.3593 10.7642 12.2708 10.5668 12.2708 10.3313C12.2708 10.0957 12.3593 9.89831 12.5364 9.73899C12.7134 9.57966 12.9328 9.5 13.1944 9.5C13.4561 9.5 13.6755 9.57966 13.8525 9.73899C14.0295 9.89831 14.1181 10.0957 14.1181 10.3313C14.1181 10.5668 14.0295 10.7642 13.8525 10.9235C13.6755 11.0828 13.4561 11.1625 13.1944 11.1625ZM9.5 14.4875C9.23831 14.4875 9.01895 14.4078 8.84193 14.2485C8.6649 14.0892 8.57639 13.8918 8.57639 13.6562C8.57639 13.4207 8.6649 13.2233 8.84193 13.064C9.01895 12.9047 9.23831 12.825 9.5 12.825C9.76169 12.825 9.98105 12.9047 10.1581 13.064C10.3351 13.2233 10.4236 13.4207 10.4236 13.6562C10.4236 13.8918 10.3351 14.0892 10.1581 14.2485C9.98105 14.4078 9.76169 14.4875 9.5 14.4875ZM5.80556 14.4875C5.54387 14.4875 5.32451 14.4078 5.14748 14.2485C4.97046 14.0892 4.88194 13.8918 4.88194 13.6562C4.88194 13.4207 4.97046 13.2233 5.14748 13.064C5.32451 12.9047 5.54387 12.825 5.80556 12.825C6.06725 12.825 6.2866 12.9047 6.46363 13.064C6.64065 13.2233 6.72917 13.4207 6.72917 13.6562C6.72917 13.8918 6.64065 14.0892 6.46363 14.2485C6.2866 14.4078 6.06725 14.4875 5.80556 14.4875ZM13.1944 14.4875C12.9328 14.4875 12.7134 14.4078 12.5364 14.2485C12.3593 14.0892 12.2708 13.8918 12.2708 13.6562C12.2708 13.4207 12.3593 13.2233 12.5364 13.064C12.7134 12.9047 12.9328 12.825 13.1944 12.825C13.4561 12.825 13.6755 12.9047 13.8525 13.064C14.0295 13.2233 14.1181 13.4207 14.1181 13.6562C14.1181 13.8918 14.0295 14.0892 13.8525 14.2485C13.6755 14.4078 13.4561 14.4875 13.1944 14.4875Z" fill="white"/>
</g>
</svg>
