<svg width="642" height="654" viewBox="0 0 642 654" fill="none" xmlns="http://www.w3.org/2000/svg">
<path d="M352.309 204.749C351.871 217.146 341.548 226.929 329.107 226.658C323.66 226.541 318.703 224.514 314.86 221.235C311.754 218.584 307.839 217.155 303.824 217.066C302.531 217.038 301.23 217.149 299.941 217.404C291.732 219.019 285.754 226.128 285.571 234.492L284.099 302.236L218.232 300.806C209.076 300.607 201.292 294.062 199.525 285.076C199.271 283.786 199.161 282.485 199.189 281.193C199.276 277.177 200.705 273.263 203.356 270.156C206.638 266.313 208.662 261.357 208.78 255.911C209.052 243.47 199.269 233.146 186.87 232.708C174.364 232.268 163.764 242.153 163.351 254.661C163.169 260.186 164.969 265.303 168.107 269.343C171.431 273.624 172.601 279.196 171.326 284.462L171.326 284.466C169.169 293.365 161.108 299.565 151.953 299.365L85.7777 297.929L87.2207 231.482C87.4148 222.568 93.787 214.99 102.536 213.268C107.833 212.226 113.35 213.595 117.455 217.1C121.299 220.379 126.255 222.405 131.701 222.523C144.142 222.795 154.466 213.012 154.904 200.613C155.345 188.105 145.459 177.507 132.951 177.094C127.426 176.912 122.309 178.712 118.269 181.85C113.988 185.175 108.416 186.344 103.151 185.067L103.149 185.067C94.4827 182.968 88.4452 175.12 88.6392 166.205L90.086 99.6068L156.679 101.052C165.293 101.24 172.945 95.5747 175.278 87.2783L175.47 86.597C176.914 81.4693 175.836 75.937 172.496 71.7863C169.14 67.6174 167.23 62.2436 167.512 56.4421C168.099 44.2617 178.342 34.6514 190.537 34.8307C203.161 35.0165 213.199 45.4445 212.925 58.0463C212.806 63.4919 210.783 68.4483 207.502 72.2927C204.849 75.3979 203.42 79.3121 203.334 83.3279C203.305 84.6199 203.416 85.9212 203.671 87.2103C205.385 95.9271 212.936 102.275 221.816 102.468L288.408 103.914L286.94 171.505C286.758 179.87 292.423 187.232 300.553 189.202L300.555 189.203C305.821 190.478 311.394 189.308 315.673 185.985C319.713 182.847 324.83 181.047 330.355 181.23C342.864 181.643 352.75 192.241 352.309 204.749Z" fill="#FFD433"/>
<g opacity="0.5">
<path d="M216.691 193.689C220.798 187.888 224.789 182.25 228.884 176.465C229.945 176.963 231.082 177.473 232.198 178.025C235.709 179.764 239.143 181.678 242.736 183.225C246.987 185.056 249.327 188.072 249.866 192.669C250.332 196.641 251.259 200.57 251.538 204.549C251.844 208.896 248.867 211.765 244.496 211.87C243.571 211.892 242.643 211.807 241.716 211.771C222.324 211.021 202.932 210.269 183.54 209.522C181.981 209.463 180.419 209.415 178.859 209.421C173.548 209.442 170.909 204.292 171.804 200.503C172.85 196.077 174.034 191.682 175.237 187.295C175.936 184.743 177.6 182.91 180.026 181.895C185.31 179.683 190.632 177.563 195.926 175.373C196.673 175.064 196.865 175.47 197.165 175.984C200.463 181.625 203.778 187.255 207.094 192.886C207.172 193.018 207.319 193.112 207.564 193.349C207.984 190.782 208.381 188.357 208.777 185.931C209.109 183.905 209.602 181.913 208.868 179.83C208.516 178.83 209.582 177.722 210.799 177.664C211.89 177.611 212.992 177.669 214.083 177.761C215.645 177.893 216.805 179.253 216.199 180.633C215.441 182.36 215.749 184.018 215.854 185.714C216.008 188.196 216.242 190.673 216.449 193.152C216.459 193.267 216.547 193.376 216.691 193.689Z" fill="black"/>
<path d="M214.187 124.013C219.183 124.52 223.158 125.612 226.096 128.845C227.898 130.829 229.221 133.211 230.942 135.312C233.006 137.831 232.353 141.068 231.563 144.071C231.478 144.396 231.38 144.723 231.243 145.029C230.845 145.915 230.841 146.536 231.409 147.564C232.035 148.698 231.895 150.412 231.683 151.812C231.42 153.556 230.698 155.204 229.311 156.462C229.028 156.72 228.911 157.187 228.776 157.578C227.304 161.839 225.142 165.656 221.579 168.526C214.255 174.425 206.001 171.357 201.744 164.841C200.088 162.307 198.984 159.549 198.237 156.623C198.059 155.924 197.652 155.267 197.274 154.637C195.953 152.429 195.386 150.042 195.653 147.497C195.713 146.925 196.065 146.225 196.511 145.887C197.183 145.378 197.114 144.864 196.92 144.247C193.751 134.17 200.802 127.233 208.36 125.026C210.476 124.408 212.729 124.257 214.187 124.013Z" fill="black"/>
</g>
<path opacity="0.5" d="M278.56 323.427C290.965 323.596 300.97 333.704 300.97 346.148C300.97 351.595 299.051 356.594 295.857 360.508C293.273 363.671 291.929 367.615 291.929 371.632C291.929 372.925 292.066 374.224 292.35 375.507C294.143 383.678 301.38 389.502 309.746 389.502H377.507V455.384C377.507 464.542 371.132 472.468 362.187 474.429C360.903 474.712 359.604 474.85 358.312 474.85C354.296 474.85 350.351 473.507 347.188 470.923C343.275 467.726 338.275 465.81 332.827 465.81C320.384 465.81 310.275 475.814 310.106 488.218C309.937 500.732 320.05 511.114 332.566 511.255C338.093 511.317 343.17 509.407 347.141 506.183C351.347 502.766 356.894 501.475 362.185 502.635H362.188C371.134 504.599 377.507 512.522 377.507 521.679V587.872H311.045C302.129 587.872 294.414 581.665 292.503 572.955C291.345 567.683 292.595 562.137 296.01 557.956C299.204 554.042 301.123 549.044 301.123 543.596C301.123 531.152 291.118 521.042 278.714 520.873C266.2 520.704 255.819 530.819 255.677 543.333C255.614 548.861 257.527 553.937 260.75 557.908C264.167 562.115 265.458 567.661 264.295 572.954V572.955C262.384 581.665 254.669 587.872 245.753 587.872H179.138V521.263C179.138 512.646 173.309 505.12 164.964 502.967L164.277 502.79C159.12 501.458 153.613 502.655 149.534 506.086C145.44 509.53 140.108 511.555 134.302 511.4C122.111 511.078 112.282 501.046 112.196 488.85C112.107 476.225 122.316 465.963 134.919 465.963C140.367 465.963 145.367 467.879 149.279 471.076C152.442 473.66 156.388 475.003 160.403 475.003C161.696 475.003 162.995 474.865 164.278 474.583C172.955 472.679 179.138 464.993 179.138 456.108V389.502H246.745C255.11 389.502 262.348 383.678 264.142 375.507V375.506C265.305 370.213 264.014 364.668 260.597 360.461C257.372 356.491 255.461 351.412 255.523 345.886C255.666 333.371 266.045 323.258 278.56 323.427Z" fill="white"/>
<path d="M474.839 455.514C462.434 455.345 452.429 445.236 452.429 432.791C452.429 427.345 454.346 422.345 457.542 418.431C460.126 415.269 461.469 411.324 461.469 407.308C461.469 406.015 461.331 404.716 461.049 403.433C459.256 395.261 452.018 389.437 443.651 389.437H375.891V323.555C375.891 314.396 382.267 306.473 391.211 304.51C392.496 304.229 393.794 304.089 395.087 304.089C399.103 304.089 403.047 305.434 406.21 308.017C410.124 311.213 415.122 313.13 420.57 313.13C433.015 313.13 443.124 303.125 443.293 290.721C443.462 278.209 433.347 267.826 420.833 267.685C415.306 267.621 410.229 269.534 406.258 272.758C402.052 276.174 396.505 277.465 391.212 276.304H391.209C382.265 274.34 375.891 266.416 375.891 257.259V191.069H442.352C451.27 191.069 458.985 197.274 460.896 205.985C462.053 211.257 460.804 216.802 457.389 220.984C454.193 224.896 452.276 229.897 452.276 235.344C452.276 247.788 462.279 257.896 474.684 258.065C487.199 258.234 497.58 248.121 497.721 235.606C497.783 230.08 495.872 225.001 492.649 221.031C489.232 216.824 487.941 211.278 489.102 205.986L489.104 205.985C491.013 197.276 498.729 191.069 507.646 191.069H574.261V257.677C574.261 266.294 580.09 273.82 588.435 275.972L589.121 276.151C594.279 277.482 599.786 276.284 603.863 272.855C607.959 269.409 613.289 267.383 619.097 267.538C631.287 267.861 641.117 277.892 641.203 290.089C641.292 302.714 631.083 312.977 618.479 312.977C613.031 312.977 608.032 311.06 604.118 307.864C600.955 305.28 597.011 303.936 592.996 303.936C591.703 303.936 590.404 304.074 589.119 304.357C580.443 306.261 574.261 313.947 574.261 322.83V389.437H506.654C498.287 389.437 491.051 395.261 489.257 403.433V403.435C488.094 408.726 489.385 414.272 492.802 418.479C496.026 422.45 497.938 427.526 497.874 433.054C497.733 445.569 487.353 455.683 474.839 455.514Z" fill="#0054A6"/>
<path opacity="0.5" d="M309.596 487.635C309.765 475.231 319.873 465.228 332.318 465.228C337.766 465.228 342.765 467.145 346.679 470.339C349.842 472.924 353.786 474.267 357.801 474.267C359.094 474.267 360.393 474.129 361.676 473.846C369.849 472.053 375.672 464.816 375.672 456.449V388.689H441.555C450.713 388.689 458.637 395.063 460.599 404.009C460.881 405.292 461.02 406.591 461.02 407.884C461.02 411.901 459.676 415.845 457.092 419.008C453.896 422.922 451.979 427.921 451.979 433.369C451.979 445.812 461.984 455.921 474.389 456.09C486.901 456.259 497.283 446.145 497.426 433.63C497.488 428.104 495.576 423.026 492.352 419.055C488.935 414.848 487.644 409.303 488.806 404.011V404.007C490.77 395.062 498.693 388.689 507.85 388.689H574.041V455.151C574.041 464.068 567.836 471.782 559.125 473.693C553.852 474.851 548.307 473.6 544.126 470.186C540.213 466.991 535.213 465.073 529.765 465.073C517.322 465.073 507.213 475.078 507.044 487.482C506.875 499.998 516.988 510.377 529.504 510.519C535.031 510.582 540.108 508.669 544.079 505.445C548.285 502.029 553.832 500.738 559.123 501.901H559.125C567.834 503.811 574.041 511.527 574.041 520.443V587.058H507.432C498.815 587.058 491.289 592.887 489.137 601.232L488.959 601.919C487.627 607.076 488.826 612.583 492.255 616.661C495.701 620.757 497.726 626.087 497.571 631.894C497.249 644.085 487.217 653.913 475.021 653.999C462.396 654.089 452.133 643.88 452.133 631.277C452.133 625.829 454.05 620.831 457.245 616.916C459.829 613.754 461.174 609.81 461.174 605.792C461.174 604.5 461.036 603.201 460.753 601.917C458.85 593.241 451.162 587.058 442.279 587.058H375.672V519.451C375.672 511.086 369.849 503.847 361.676 502.054C356.384 500.891 350.837 502.184 346.63 505.599C342.66 508.824 337.583 510.735 332.055 510.672C319.54 510.532 309.427 500.151 309.596 487.635Z" fill="#ED1C24"/>
</svg>
