<svg width="454" height="232" viewBox="0 0 454 232" fill="none" xmlns="http://www.w3.org/2000/svg">
<path fill-rule="evenodd" clip-rule="evenodd" d="M227 196.23C314.26 196.23 385 199.53 385 203.61C385 207.69 314.26 210.99 227 210.99C139.74 210.99 69 207.69 69 203.61C69 199.53 139.74 196.23 227 196.23Z" fill="#D2D9DC"/>
<path fill-rule="evenodd" clip-rule="evenodd" d="M151.89 128.56C139.84 128.56 130.11 118.77 130.11 106.77C130.11 94.7199 139.85 84.9899 151.89 84.9899C163.93 84.9899 173.67 94.7199 173.67 106.77C173.67 118.77 163.93 128.56 151.89 128.56ZM199.02 106.77C199.02 99.1599 204.09 92.7799 211.03 90.7999C209.64 85.6499 207.59 80.7399 204.97 76.2299C198.71 79.6799 190.62 78.7999 185.32 73.5399L185.21 73.4199L185.1 73.2699H185.06C184.54 72.7599 183.99 72.2299 183.48 71.7299C183.9 72.1199 184.38 72.5499 184.82 72.9799C179.82 67.6799 178.98 59.7999 182.41 53.6899C177.89 51.0699 173.02 49.0099 167.86 47.6299C165.84 54.5599 159.47 59.6299 151.9 59.6299C144.33 59.6299 137.95 54.5599 135.94 47.6299C130.79 49.0099 125.92 51.0699 121.36 53.6899C124.81 59.8699 123.98 67.7999 118.83 73.1399L120.17 71.8599C119.66 72.3799 119.11 72.8999 118.58 73.4099L118.32 73.6999C112.93 78.7999 105 79.6799 98.8198 76.2299C96.2098 80.7499 94.1398 85.6599 92.7598 90.7999C99.6998 92.7799 104.77 99.1999 104.77 106.77C104.77 114.34 99.6998 120.71 92.7598 122.69C94.1398 127.85 96.2098 132.75 98.8198 137.28C105.09 133.83 113.08 134.71 118.44 139.93L118.55 140.09L118.67 140.17C123.93 145.52 124.85 153.55 121.36 159.81C125.92 162.43 130.8 164.49 135.94 165.87C137.91 159.15 143.98 154.16 151.27 153.88H152.53C159.83 154.16 165.88 159.16 167.86 165.87C173.01 164.49 177.89 162.43 182.41 159.81C178.99 153.6 179.87 145.63 185.02 140.29L185.06 140.25L185.42 139.9C190.76 134.72 198.73 133.83 204.98 137.29C207.6 132.77 209.62 127.86 211.04 122.7C204.09 120.71 199.02 114.34 199.02 106.77Z" fill="#839299"/>
<path fill-rule="evenodd" clip-rule="evenodd" d="M316.82 155.67C311.74 155.67 307.64 151.55 307.64 146.49C307.64 141.41 311.74 137.31 316.82 137.31C321.89 137.31 326 141.41 326 146.49C326 151.55 321.89 155.67 316.82 155.67ZM336.68 146.49C336.68 143.29 338.82 140.6 341.74 139.76C341.16 137.59 340.29 135.52 339.19 133.62C336.55 135.07 333.15 134.7 330.91 132.49L330.86 132.44L330.81 132.37H330.79C330.57 132.15 330.34 131.93 330.13 131.72C330.31 131.89 330.51 132.07 330.69 132.25C328.59 130.02 328.23 126.7 329.67 124.12C327.77 123.02 325.71 122.15 323.54 121.57C322.69 124.49 320 126.62 316.82 126.62C313.63 126.62 310.94 124.48 310.09 121.57C307.92 122.15 305.87 123.02 303.95 124.12C305.41 126.72 305.05 130.06 302.88 132.31L303.44 131.77C303.23 131.99 302.99 132.21 302.77 132.42L302.66 132.54C300.39 134.69 297.05 135.06 294.44 133.61C293.34 135.51 292.47 137.58 291.89 139.75C294.81 140.58 296.95 143.29 296.95 146.48C296.95 149.67 294.81 152.35 291.89 153.19C292.47 155.36 293.34 157.43 294.44 159.33C297.08 157.88 300.45 158.25 302.71 160.45L302.75 160.52L302.8 160.55C305.02 162.8 305.4 166.19 303.93 168.82C305.85 169.92 307.91 170.79 310.07 171.37C310.9 168.54 313.46 166.44 316.53 166.32H317.06C320.13 166.44 322.69 168.54 323.52 171.37C325.69 170.79 327.74 169.92 329.65 168.82C328.21 166.2 328.58 162.85 330.75 160.59L330.77 160.57L330.92 160.42C333.17 158.24 336.53 157.86 339.16 159.32C340.26 157.41 341.12 155.35 341.71 153.18C338.82 152.36 336.68 149.68 336.68 146.49Z" fill="#839299"/>
<path fill-rule="evenodd" clip-rule="evenodd" d="M98.8201 137.67C93.7401 137.67 89.6401 133.55 89.6401 128.49C89.6401 123.41 93.7401 119.31 98.8201 119.31C103.89 119.31 108 123.41 108 128.49C108 133.55 103.89 137.67 98.8201 137.67ZM118.68 128.49C118.68 125.29 120.82 122.6 123.74 121.76C123.16 119.59 122.29 117.52 121.19 115.62C118.55 117.07 115.15 116.7 112.91 114.49L112.86 114.44L112.81 114.38H112.79C112.57 114.16 112.34 113.94 112.13 113.73C112.31 113.9 112.51 114.08 112.69 114.26C110.59 112.03 110.23 108.71 111.67 106.13C109.77 105.03 107.71 104.16 105.54 103.58C104.69 106.5 102 108.63 98.8201 108.63C95.6301 108.63 92.9401 106.49 92.0901 103.58C89.9201 104.16 87.8701 105.03 85.9501 106.13C87.4101 108.73 87.0501 112.07 84.8801 114.32L85.4401 113.78C85.2301 114 84.9901 114.22 84.7701 114.43L84.6601 114.55C82.3901 116.7 79.0501 117.07 76.4401 115.62C75.3401 117.52 74.4701 119.59 73.8901 121.76C76.8101 122.59 78.9501 125.3 78.9501 128.49C78.9501 131.68 76.8101 134.36 73.8901 135.2C74.4701 137.37 75.3401 139.44 76.4401 141.34C79.0801 139.89 82.4501 140.26 84.7101 142.46L84.7501 142.53L84.8001 142.56C87.0201 144.81 87.4001 148.2 85.9301 150.83C87.8501 151.93 89.9101 152.8 92.0701 153.38C92.9001 150.55 95.4601 148.45 98.5301 148.33H99.0601C102.13 148.45 104.69 150.55 105.52 153.38C107.69 152.8 109.74 151.93 111.65 150.83C110.21 148.21 110.58 144.86 112.75 142.6L112.77 142.58L112.92 142.43C115.17 140.25 118.53 139.87 121.16 141.33C122.26 139.42 123.12 137.36 123.71 135.19C120.82 134.36 118.68 131.68 118.68 128.49Z" fill="#D2D9DC"/>
<path d="M352.07 46.9702C351.47 43.1202 350.18 39.5802 348.37 36.4302C347.57 35.0302 345.54 35.0202 344.68 36.3802L340.05 43.6502L345.39 47.0602C345.83 47.3402 345.96 47.9302 345.68 48.3702C345.4 48.8102 344.81 48.9402 344.37 48.6602L339.03 45.2502L336.93 48.5502L342.27 51.9502C342.71 52.2302 342.84 52.8202 342.56 53.2602C342.28 53.7002 341.69 53.8302 341.25 53.5502L335.91 50.1502L334.29 52.7002L339.63 56.1002C340.07 56.3802 340.2 56.9702 339.92 57.4102C339.64 57.8502 339.05 57.9802 338.61 57.7002L333.28 54.3002L331.38 57.2902C330.02 59.4302 328.01 61.1402 325.61 61.9602C322.38 63.0702 318.95 62.6502 316.12 60.8602L291.85 45.4302L292.87 43.8302L309.94 54.6902L316.94 43.6802C316.74 43.6902 316.54 43.6502 316.36 43.5402L310.23 39.6302C309.79 39.3502 309.66 38.7602 309.94 38.3202C310.22 37.8802 310.81 37.7502 311.25 38.0302L317.38 41.9402C317.56 42.0502 317.68 42.2202 317.75 42.4002L319.57 39.5402C319.38 39.5502 319.18 39.5102 319 39.4002L312.87 35.4902C312.43 35.2102 312.3 34.6202 312.58 34.1802C312.86 33.7402 313.45 33.6102 313.89 33.8902L320.02 37.8002C320.2 37.9102 320.32 38.0702 320.39 38.2502L322.69 34.6402C322.5 34.6502 322.3 34.6102 322.13 34.4902L316 30.5802C315.56 30.3002 315.43 29.7102 315.71 29.2702C315.99 28.8302 316.58 28.7002 317.02 28.9802L323.15 32.8902C323.32 33.0002 323.45 33.1602 323.52 33.3402L329.82 23.4302C330.18 22.8602 329.88 22.1102 329.22 21.9502C324.3 20.7102 318.99 20.6802 313.7 22.1102C298.45 26.2502 288.75 41.6302 291.6 57.1802C292.28 60.9202 293.62 64.3702 295.45 67.4402C294.95 68.0102 294.49 68.6202 294.07 69.2702L242.26 150.55C238.19 156.94 239.44 165.52 245.45 170.14C252.31 175.42 262.06 173.59 266.61 166.45L318.59 84.8902C319.12 84.0502 319.56 83.1802 319.91 82.2902C323.33 82.5002 326.86 82.1302 330.37 81.1202C345.07 76.8402 354.44 62.0902 352.07 46.9702Z" fill="#D2D9DC"/>
<path d="M237.22 107.74C258.676 107.74 276.07 90.3463 276.07 68.89C276.07 47.4338 258.676 30.04 237.22 30.04C215.764 30.04 198.37 47.4338 198.37 68.89C198.37 90.3463 215.764 107.74 237.22 107.74Z" fill="#002548"/>
<path d="M237.22 100.1C254.457 100.1 268.43 86.1265 268.43 68.8897C268.43 51.6529 254.457 37.6797 237.22 37.6797C219.983 37.6797 206.01 51.6529 206.01 68.8897C206.01 86.1265 219.983 100.1 237.22 100.1Z" fill="#D2D9DC"/>
<path d="M236.04 75.3297C235.75 75.3097 235.46 75.2297 235.19 75.0897C234.37 74.6697 233.88 73.8097 233.95 72.8997L235.55 51.8097C235.62 50.9397 236.37 50.2897 237.24 50.3597C238.11 50.4297 238.76 51.1797 238.69 52.0497L237.25 71.0197L249.35 60.6197C250.01 60.0497 251 60.1297 251.57 60.7897C252.14 61.4497 252.06 62.4397 251.4 63.0097L237.69 74.7897C237.22 75.1897 236.62 75.3697 236.04 75.3297Z" fill="#0054A6"/>
<path d="M306.81 163.72H161.74V81.3802C161.74 78.9402 163.72 76.9502 166.17 76.9502H302.38C304.82 76.9502 306.81 78.9302 306.81 81.3802V163.72Z" fill="#0054A6"/>
<path d="M300.41 157.09H168.14C167.73 157.09 167.39 156.75 167.39 156.34V83.7305C167.39 83.3205 167.73 82.9805 168.14 82.9805H300.41C300.82 82.9805 301.16 83.3205 301.16 83.7305V156.34C301.16 156.76 300.82 157.09 300.41 157.09Z" fill="#F9FAFB"/>
<path d="M161.67 163.72H306.8L330.85 201.93C331.97 203.81 330.62 206.2 328.43 206.2H141.12C138.1 206.2 136.28 202.85 137.92 200.31L161.67 163.72Z" fill="#002548"/>
<path d="M161.93 163.72H306.85L329.23 198.88C330.33 200.61 329 202.81 326.85 202.81H142.68C139.71 202.81 137.92 199.73 139.54 197.39L161.93 163.72Z" fill="#0054A6"/>
<path d="M234.27 81.2503C235.021 81.2503 235.63 80.6414 235.63 79.8903C235.63 79.1392 235.021 78.5303 234.27 78.5303C233.519 78.5303 232.91 79.1392 232.91 79.8903C232.91 80.6414 233.519 81.2503 234.27 81.2503Z" fill="#FAF4DA"/>
<path d="M267.74 200.09H200.8C199.15 200.09 197.96 198.53 198.39 196.94L200.21 190.19C200.5 189.1 201.49 188.34 202.62 188.34H264.63C265.61 188.34 266.49 188.91 266.9 189.79L270.01 196.54C270.78 198.2 269.57 200.09 267.74 200.09Z" fill="#D2D9DC"/>
<path d="M173.75 165.3H295.83C296.8 165.3 297.69 165.86 298.11 166.73L306.08 183.37C306.88 185.05 305.66 186.99 303.8 186.99H164.74C162.83 186.99 161.61 184.95 162.52 183.26L171.53 166.62C171.97 165.8 172.83 165.3 173.75 165.3Z" fill="#D2D9DC"/>
<path d="M170.28 168.94H176.49H188.5H200.31H213.61H225.63H238.5H251.8H265.1H276.91H288.92H299.18" stroke="#839299" stroke-miterlimit="10" stroke-linecap="round"/>
<path d="M167.34 174.36H174.24H186.89H199.02H212.97H225.63H238.5H252.44H266.39H278.52H291.17H301.77" stroke="#839299" stroke-miterlimit="10" stroke-linecap="round"/>
<path d="M163.67 181.14H171.42H184.88H197.41H212.16H225.63H238.5H253.25H268H280.53H293.99H305.02" stroke="#839299" stroke-miterlimit="10" stroke-linecap="round"/>
<path d="M225.62 165.3L223.62 186.99" stroke="#839299" stroke-miterlimit="10" stroke-linecap="round"/>
<path d="M238.5 165.3V186.99" stroke="#839299" stroke-miterlimit="10" stroke-linecap="round"/>
<path d="M201.17 165.3L196.02 186.99" stroke="#839299" stroke-miterlimit="10" stroke-linecap="round"/>
<path d="M214.04 165.3L209.46 186.99" stroke="#839299" stroke-miterlimit="10" stroke-linecap="round"/>
<path d="M178 165.3L168.99 186.99" stroke="#839299" stroke-miterlimit="10" stroke-linecap="round"/>
<path d="M189.58 165.3L183.15 186.99" stroke="#839299" stroke-miterlimit="10" stroke-linecap="round"/>
<path d="M264.24 165.3L269.39 186.99" stroke="#839299" stroke-miterlimit="10" stroke-linecap="round"/>
<path d="M251.37 165.3L253.94 186.99" stroke="#839299" stroke-miterlimit="10" stroke-linecap="round"/>
<path d="M287.41 165.3L296.42 186.99" stroke="#839299" stroke-miterlimit="10" stroke-linecap="round"/>
<path d="M275.82 165.3L282.26 186.99" stroke="#839299" stroke-miterlimit="10" stroke-linecap="round"/>
<path d="M205.55 117.08H180.03C178.94 117.08 178.06 116.2 178.06 115.11V94.01C178.06 92.92 178.94 92.04 180.03 92.04H205.55C206.64 92.04 207.52 92.92 207.52 94.01V115.11C207.52 116.2 206.64 117.08 205.55 117.08Z" fill="#D2D9DC"/>
<path d="M290.86 150.96H228.76C228.42 150.96 228.14 150.68 228.14 150.34V92.66C228.14 92.32 228.42 92.04 228.76 92.04H290.86C291.2 92.04 291.48 92.32 291.48 92.66V150.34C291.48 150.68 291.2 150.96 290.86 150.96Z" fill="#D2D9DC"/>
<path d="M291.91 121.92V132.64C291.91 133.81 290.96 134.75 289.8 134.75H254.76C253.59 134.75 252.65 135.7 252.65 136.86V138.53C252.65 139.7 253.6 140.64 254.76 140.64H294.02C295.19 140.64 296.13 139.69 296.13 138.53V121.92C296.13 120.84 295.32 119.94 294.25 119.82C293 119.69 291.91 120.67 291.91 121.92Z" fill="#54CC5A"/>
<path d="M246.43 138.06L254.76 129.73C255.08 129.41 255.63 129.64 255.63 130.09V146.11C255.63 146.55 255.1 146.79 254.77 146.48L246.44 138.79C246.24 138.6 246.23 138.27 246.43 138.06Z" fill="#54CC5A"/>
<path d="M223.59 150.96H220.91C220.84 150.96 220.78 150.9 220.78 150.83V92.17C220.78 92.1 220.84 92.04 220.91 92.04H223.59C223.66 92.04 223.72 92.1 223.72 92.17V150.82C223.73 150.9 223.67 150.96 223.59 150.96Z" fill="#839299"/>
<path d="M216.1 125.92H178.33C178.18 125.92 178.07 125.8 178.07 125.66V123.24C178.07 123.09 178.19 122.98 178.33 122.98H216.1C216.25 122.98 216.36 123.1 216.36 123.24V125.66C216.36 125.8 216.24 125.92 216.1 125.92Z" fill="#839299"/>
<path d="M216.1 133.28H178.33C178.18 133.28 178.07 133.16 178.07 133.02V130.6C178.07 130.45 178.19 130.34 178.33 130.34H216.1C216.25 130.34 216.36 130.46 216.36 130.6V133.02C216.36 133.17 216.24 133.28 216.1 133.28Z" fill="#839299"/>
<path d="M216.1 140.65H178.33C178.18 140.65 178.07 140.53 178.07 140.39V137.97C178.07 137.82 178.19 137.71 178.33 137.71H216.1C216.25 137.71 216.36 137.83 216.36 137.97V140.39C216.36 140.53 216.24 140.65 216.1 140.65Z" fill="#839299"/>
<path d="M175.9 105.22V96.9398C175.9 96.0398 176.63 95.3098 177.53 95.3098H204.58C205.48 95.3098 206.21 94.5798 206.21 93.6798V92.3898C206.21 91.4898 205.48 90.7598 204.58 90.7598H174.26C173.36 90.7598 172.63 91.4898 172.63 92.3898V105.22C172.63 106.05 173.26 106.75 174.09 106.84C175.06 106.95 175.9 106.19 175.9 105.22Z" fill="#54CC5A"/>
<path d="M211.02 92.7596L204.59 99.1896C204.34 99.4396 203.92 99.2596 203.92 98.9096V86.5396C203.92 86.1996 204.33 86.0196 204.58 86.2496L211.01 92.1896C211.17 92.3396 211.18 92.5996 211.02 92.7596Z" fill="#54CC5A"/>
<path d="M377.42 122.97H279.67C278.19 122.97 276.99 121.77 276.99 120.29V94.72C276.99 93.24 278.19 92.04 279.67 92.04H377.42C378.9 92.04 380.1 93.24 380.1 94.72V120.3C380.1 121.77 378.9 122.97 377.42 122.97Z" fill="#54CC5A"/>
<path d="M372.16 104.56H311.44C311.12 104.56 310.87 104.3 310.87 103.99V102.19C310.87 101.87 311.13 101.62 311.44 101.62H372.16C372.48 101.62 372.73 101.88 372.73 102.19V103.99C372.73 104.3 372.47 104.56 372.16 104.56Z" fill="#F9FAFB"/>
<path d="M372.16 113.4H311.44C311.12 113.4 310.87 113.14 310.87 112.83V111.03C310.87 110.71 311.13 110.46 311.44 110.46H372.16C372.48 110.46 372.73 110.72 372.73 111.03V112.83C372.73 113.14 372.47 113.4 372.16 113.4Z" fill="#F9FAFB"/>
<path d="M294.67 116.35C299.552 116.35 303.51 112.392 303.51 107.51C303.51 102.628 299.552 98.6699 294.67 98.6699C289.788 98.6699 285.83 102.628 285.83 107.51C285.83 112.392 289.788 116.35 294.67 116.35Z" fill="#F9FAFB"/>
<path d="M179.07 153.91H139.18C137.98 153.91 137 152.93 137 151.73V113.37C137 112.17 137.98 111.19 139.18 111.19H179.07C180.27 111.19 181.25 112.17 181.25 113.37V151.73C181.25 152.93 180.27 153.91 179.07 153.91Z" fill="#53C7B4"/>
<path d="M179.07 153.91H139.18C137.98 153.91 137 152.93 137 151.73V113.37C137 112.17 137.98 111.19 139.18 111.19H179.07C180.27 111.19 181.25 112.17 181.25 113.37V151.73C181.25 152.93 180.27 153.91 179.07 153.91Z" fill="#002548"/>
<path d="M153.83 129.88H142.29C141.82 129.88 141.43 129.5 141.43 129.02V117.93C141.43 117.46 141.81 117.07 142.29 117.07H153.83C154.3 117.07 154.69 117.45 154.69 117.93V129.02C154.68 129.5 154.3 129.88 153.83 129.88Z" fill="#F9FAFB"/>
<path d="M177.2 122H158.05C157.77 122 157.55 121.78 157.55 121.5C157.55 121.22 157.77 121 158.05 121H177.2C177.48 121 177.7 121.22 177.7 121.5C177.7 121.78 177.47 122 177.2 122Z" fill="#F9FAFB"/>
<path d="M177.2 127.16H158.05C157.77 127.16 157.55 126.94 157.55 126.66C157.55 126.38 157.77 126.16 158.05 126.16H177.2C177.48 126.16 177.7 126.38 177.7 126.66C177.7 126.94 177.47 127.16 177.2 127.16Z" fill="#F9FAFB"/>
<path d="M177.27 147.65H142.51C142.14 147.65 141.84 147.35 141.84 146.98V135.78C141.84 135.41 142.14 135.11 142.51 135.11H177.27C177.64 135.11 177.94 135.41 177.94 135.78V146.98C177.94 147.35 177.64 147.65 177.27 147.65ZM142.59 146.9H177.19V135.87H142.59V146.9Z" fill="#F9FAFB"/>
</svg>
