<svg width="91" height="60" viewBox="0 0 91 60" fill="none" xmlns="http://www.w3.org/2000/svg">
<g clip-path="url(#clip0_5122_12455)">
<path d="M10.9852 50.4854C11.7672 50.4854 12.4781 50.6629 12.8691 51.0179C12.9402 51.5859 12.407 52.509 12.0871 52.509C11.6961 52.367 11.3406 52.296 10.8785 52.296C9.03008 52.296 8.10586 54.2132 8.10586 56.0948C8.10586 57.2664 8.49688 57.9765 9.45664 57.9765C10.452 57.9765 11.4473 57.3019 12.016 56.8049C12.1582 56.9114 12.3359 57.2309 12.3359 57.5859C12.3359 57.9765 12.2293 58.367 11.8383 58.7575C11.1984 59.3966 10.0965 59.9646 8.49688 59.9646C6.68398 59.9646 5.4043 58.9351 5.4043 56.5209C5.47539 53.3256 7.53711 50.4854 10.9852 50.4854Z" fill="#373535"/>
<path d="M16.9578 57.87C17.9531 57.87 19.766 56.1303 20.2637 52.793C20.2992 52.58 20.2992 52.5445 20.3348 52.3315C20.1215 52.2605 19.8016 52.1895 19.5172 52.1895C18.7707 52.1895 17.9887 52.4025 17.3133 53.3611C16.6023 54.3552 16.2824 55.5978 16.2824 56.5919C16.2824 57.4084 16.5312 57.87 16.9578 57.87ZM13.6875 56.9469C13.6875 55.7398 14.0785 53.6806 15.607 52.154C16.9223 50.8049 18.4863 50.4854 19.9437 50.4854C20.9035 50.4854 22.1832 50.8049 23.0008 50.9469C22.7875 51.8345 22.3254 55.2072 22.0766 57.1599C21.9699 57.9765 21.9344 59.1481 21.9699 59.5741C21.2945 59.8581 20.0504 59.9291 19.6949 59.9291C19.5172 59.9291 19.4816 59.1126 19.5172 58.296C19.5527 58.0475 19.5883 57.6569 19.5883 57.4794C18.8062 58.793 17.2422 59.8936 15.607 59.8936C14.434 59.9291 13.6875 58.9351 13.6875 56.9469Z" fill="#373535"/>
<path d="M28.0485 50.4854C28.8661 50.4854 29.6836 50.8049 30.0391 51.1599C30.0036 51.728 29.577 52.6865 28.8661 52.4025C28.5461 52.296 28.2618 52.225 27.8352 52.225C27.302 52.225 26.8044 52.4735 26.8044 52.9706C26.8044 53.3611 27.0887 53.6451 28.4395 54.6037C29.3993 55.3138 29.7903 55.9528 29.7903 56.8404C29.7903 58.3315 28.404 59.9291 25.9512 59.9291C24.9559 59.9291 24.0672 59.5386 23.8184 59.1481C23.4629 58.5445 23.7473 57.3374 24.1383 57.5504C24.6715 57.799 25.5247 58.083 26.2356 58.083C26.911 58.083 27.3376 57.7635 27.3376 57.3729C27.3376 57.0179 27.0176 56.7339 25.809 55.8463C24.7782 55.0652 24.4583 54.3552 24.4583 53.5741C24.4583 51.87 25.9157 50.4854 28.0485 50.4854Z" fill="#373535"/>
<path d="M35.0504 50.4854C35.868 50.4854 36.6856 50.8049 37.0411 51.1599C37.0055 51.728 36.579 52.6865 35.868 52.4025C35.5481 52.296 35.2637 52.225 34.8372 52.225C34.304 52.225 33.8063 52.4735 33.8063 52.9706C33.8063 53.3611 34.0907 53.6451 35.4415 54.6037C36.4012 55.3138 36.7922 55.9528 36.7922 56.8404C36.7922 58.3315 35.4059 59.9291 32.9532 59.9291C31.9579 59.9291 31.1047 59.5386 30.8204 59.1481C30.4649 58.5445 30.7493 57.3374 31.1403 57.5504C31.6735 57.799 32.5266 58.083 33.2376 58.083C33.9129 58.083 34.3395 57.7635 34.3395 57.3729C34.3395 57.0179 34.0196 56.7339 32.811 55.8463C31.7801 55.0652 31.4602 54.3552 31.4602 53.5741C31.4602 51.87 32.9176 50.4854 35.0504 50.4854Z" fill="#373535"/>
<path d="M41.4129 57.87C42.4082 57.87 44.2211 56.1303 44.7188 52.793C44.7543 52.58 44.7543 52.5445 44.7898 52.3315C44.5766 52.2605 44.2566 52.1895 43.9723 52.1895C43.2258 52.1895 42.4437 52.4025 41.7684 53.3611C41.0574 54.3552 40.7375 55.5978 40.7375 56.5919C40.773 57.4084 40.9863 57.87 41.4129 57.87ZM38.1426 56.9469C38.1426 55.7398 38.5336 53.6806 40.0621 52.154C41.3773 50.8049 42.9414 50.4854 44.3988 50.4854C45.3586 50.4854 46.6383 50.8049 47.4559 50.9469C47.2426 51.8345 46.7805 55.2072 46.5316 57.1599C46.425 57.9765 46.3895 59.1481 46.425 59.5741C45.7496 59.8581 44.5055 59.9291 44.15 59.9291C43.9723 59.9291 43.9367 59.1126 43.9723 58.296C44.0078 58.0475 44.0434 57.6569 44.0434 57.4794C43.2613 58.793 41.6973 59.8936 40.0621 59.8936C38.9246 59.9291 38.1426 58.9351 38.1426 56.9469Z" fill="#373535"/>
<path d="M52.0418 53.1133C52.966 51.6221 54.1746 50.486 55.8809 50.486C57.3383 50.486 57.8004 51.8352 57.516 53.7168C57.3738 54.6044 57.125 55.8825 56.9828 57.0541C56.8406 58.0482 56.734 58.9357 56.7695 59.5393C56.2363 59.7878 54.7078 59.8943 54.3523 59.8943C54.2102 59.8943 54.1746 58.7937 54.3879 57.6221C54.5656 56.6636 54.8855 54.8884 55.0633 53.8588C55.1699 53.2553 55.1344 52.5452 54.5656 52.5452C53.8191 52.5452 52.0418 53.7523 51.1531 58.6517C51.082 59.0423 50.9398 59.2908 50.691 59.4328C50.3711 59.6103 49.7313 59.7878 48.416 59.7878C48.6648 58.5452 49.0559 56.0245 49.3402 54.1428C49.5891 52.4387 49.6957 51.3381 49.6602 50.9121C50.0156 50.8056 51.8285 50.415 52.0063 50.415C52.2195 50.415 52.2551 51.0541 52.0773 52.5452C52.0418 52.6872 52.0418 52.9002 52.0063 53.0423H52.0418V53.1133Z" fill="#373535"/>
<path d="M62.35 57.8349C63.2387 57.8349 65.0516 56.1663 65.5492 53.2195C65.5848 53.042 65.6203 52.758 65.6559 52.5805C65.407 52.3319 65.0516 52.1899 64.4828 52.1899C62.4211 52.1899 61.5324 54.6396 61.5324 56.4148C61.568 57.3379 61.8879 57.8349 62.35 57.8349ZM61.0348 59.9296C59.7195 59.9296 58.9375 58.758 58.9375 56.8053C58.9375 53.539 60.9992 50.5213 64.4473 50.5213C65.0516 50.5213 65.6203 50.6988 65.9402 50.8763C66.118 49.9532 66.5445 47.0775 66.5801 46.2254C67.1488 46.1189 68.3574 45.9414 68.9262 45.9414C69.1395 45.9414 69.2105 46.1544 69.1395 46.687C68.6418 49.7402 67.7887 55.5627 67.6109 56.8408C67.5043 57.9414 67.4687 59.0065 67.5043 59.61C66.8644 59.8941 65.5492 59.9651 65.1937 59.9651C65.0516 59.9651 64.9805 59.042 65.016 58.1899C65.0516 57.9414 65.0871 57.5509 65.0871 57.4799C63.9852 59.113 62.5988 59.9296 61.0348 59.9296Z" fill="#373535"/>
<path d="M72.9086 53.3969C73.975 51.0182 75.2547 50.4857 76.1078 50.4857C76.3566 50.4857 76.7832 50.6632 76.9609 50.8407C77.032 51.5153 76.4988 52.8289 76.0367 53.3614C75.7879 53.2549 75.5035 53.1129 75.148 53.1129C74.4727 53.1129 73.0863 54.178 72.2332 58.7934C72.1621 59.1839 72.0555 59.3259 71.8422 59.4324C71.4867 59.6455 70.1359 59.7875 69.4961 59.823C69.816 58.1543 70.3137 54.7816 70.527 52.7934C70.598 52.2963 70.598 51.3378 70.5625 50.9827C70.9535 50.8052 72.482 50.4502 72.802 50.4502C72.9797 50.4502 73.1219 51.5508 72.8375 53.3614H72.9086V53.3969Z" fill="#373535"/>
<path d="M80.0535 57.87C81.0488 57.87 82.8617 56.1303 83.3594 52.793C83.3949 52.58 83.3949 52.5445 83.4305 52.3315C83.2172 52.2605 82.8973 52.1895 82.6129 52.1895C81.8664 52.1895 81.0844 52.4025 80.409 53.3611C79.698 54.3552 79.3781 55.5978 79.3781 56.5919C79.4137 57.4084 79.627 57.87 80.0535 57.87ZM76.7832 56.9469C76.7832 55.7398 77.1742 53.6806 78.7027 52.154C80.018 50.8049 81.582 50.4854 83.0395 50.4854C83.9992 50.4854 85.2789 50.8049 86.0965 50.9469C85.8832 51.8345 85.4211 55.2072 85.1723 57.1599C85.0656 57.9765 85.0301 59.1481 85.0656 59.5741C84.3902 59.8581 83.1461 59.9291 82.7906 59.9291C82.6129 59.9291 82.5773 59.1126 82.6129 58.296C82.6484 58.0475 82.684 57.6569 82.684 57.4794C81.902 58.793 80.3379 59.8936 78.7027 59.8936C77.5652 59.9291 76.7832 58.9351 76.7832 56.9469Z" fill="#373535"/>
<path d="M73.05 16.1543C73.7254 23.9295 61.4618 31.3496 45.6434 32.6987C29.825 34.0478 16.495 28.8289 15.8196 21.0538C15.1442 13.2786 27.4079 5.85849 43.2262 4.50938C59.009 3.16026 72.3747 8.3437 73.05 16.1543Z" fill="#BBE6FB"/>
<path d="M43.6523 5.39696C37.6094 5.29045 30.5711 7.70465 25.3102 9.94133C24.777 11.5035 24.457 13.1721 24.457 14.9117C24.457 24.1425 32.8105 31.6336 43.1191 31.6336C53.4277 31.6336 61.8168 24.178 61.8168 14.9117C61.8168 12.0005 60.9637 9.23128 59.5062 6.85258C55.3117 6.21352 49.5176 5.50346 43.6523 5.39696Z" fill="white"/>
<path d="M43.1535 5.39667C39.8121 5.18365 34.0535 6.92329 29.2547 8.66294C28.5082 10.3671 28.1172 12.2487 28.1172 14.2369C28.1172 22.3316 35.4754 28.8996 43.2246 28.8996C50.9383 28.8996 57.7633 22.3316 58.332 14.2369C58.5098 11.6097 57.6211 9.12448 56.3414 6.9943C51.4004 6.14223 46.1395 5.60968 43.1535 5.39667Z" fill="white"/>
<path d="M34.5875 13.2078C35.0141 12.2847 35.6184 11.8587 36.2227 11.1131C36.1516 10.9356 36.0094 10.3321 36.0094 10.1545C36.0094 9.23147 36.7559 8.52141 37.6445 8.52141C37.8578 8.52141 38.0711 8.55691 38.2488 8.62792C40.9859 6.53324 44.5762 5.64567 48.202 6.46224C48.5219 6.53324 48.8418 6.63975 49.1617 6.71076C45.607 6.21371 41.5547 7.49182 38.8176 9.693C38.8887 9.90602 39.1375 10.4386 39.1375 10.6871C39.1375 11.6102 38.5332 11.8232 37.6445 11.8232C37.4313 11.8232 37.2535 11.7877 37.0402 11.7167C36.4359 12.5332 35.6539 14.1309 35.2984 15.125C36.827 16.4741 38.1777 16.9711 39.9551 17.6457C39.9551 17.5747 40.0262 17.4682 40.0262 17.3971C40.0262 14.6634 42.4434 12.4267 45.1805 12.4267C47.6332 12.4267 49.6949 14.2019 50.0859 16.5451C51.3301 15.764 52.5031 15.1605 53.3918 14.0244C53.1785 13.7758 52.9652 13.0303 52.9652 12.6753C52.9652 11.8587 53.6406 11.1841 54.4582 11.1841C54.5648 11.1841 54.6715 11.1841 54.8137 11.2196C55.2758 10.2611 55.6313 9.26697 55.8445 8.23738C51.5434 5.04212 43.2254 5.50366 43.2254 5.50366C43.2254 5.50366 36.6137 5.14863 32.1348 7.34981C32.4547 9.40898 33.3078 11.4682 34.5875 13.2078Z" fill="#373535"/>
<path d="M55.134 11.9651C55.4539 12.2491 55.5961 12.4621 55.7383 12.7106C56.1293 13.4207 55.3473 14.0952 54.4941 14.0952C54.423 14.0952 54.3164 14.0952 54.2453 14.0597C53.3211 15.5153 51.6859 17.3615 50.2285 18.3201C52.468 18.6751 54.5652 19.5627 56.2004 20.9473C57.409 18.7816 58.3332 15.6219 58.3332 12.9591C58.3332 10.9355 57.4445 9.44434 56.0938 8.34375C56.0582 9.44434 55.4539 10.971 55.134 11.9651Z" fill="#373535"/>
<path d="M37.075 25.7403C37.8215 23.6812 39.6344 22.119 41.3762 20.7344C41.1273 20.3794 40.7363 19.5273 40.5941 19.1368C38.4969 18.4977 36.6484 17.2906 35.191 15.7285C35.191 15.764 35.1555 15.835 35.1555 15.8705C34.8711 17.0776 34.8355 18.3202 34.9777 19.4918C35.973 19.6693 36.7551 20.5569 36.7551 21.622C36.7551 22.2611 36.1863 23.1486 35.7597 23.5747C36.1863 24.4977 36.5062 24.9948 37.075 25.7403Z" fill="#373535"/>
<path d="M36.9328 27.4437C36.0441 26.5561 35.4398 24.8164 34.8711 23.7158C34.7645 23.7158 34.6578 23.7513 34.5512 23.7513C33.3426 23.7513 32.0984 22.7573 32.3828 21.5857C32.525 20.9466 32.9871 20.5206 33.698 20.1655C33.5203 18.8164 33.4848 16.9348 33.8047 15.5502C33.8758 15.1596 34.0891 14.9821 34.1957 14.5916C32.8805 12.6744 32.0273 10.1182 32.0273 7.5975V7.31348C29.7879 8.44957 28.1172 10.1892 28.1172 12.9584C28.1172 19.1005 31.6719 25.136 36.9328 27.4792V27.4437Z" fill="#373535"/>
<path d="M49.9078 18.959C49.2324 20.8761 47.384 22.2963 45.2156 22.2963C44.0426 22.2963 42.9762 21.9057 42.1586 21.2312C40.4168 22.5803 38.8172 24.959 38.0352 27.0537C38.3906 27.4442 38.6395 27.7637 39.066 28.1187C40.2746 28.4383 41.9809 28.1187 43.2961 28.1187C48.5926 28.1187 53.3203 25.7756 56.0219 21.6217C54.1734 20.3436 52.0406 19.1365 49.9078 18.959Z" fill="#373535"/>
<path d="M34.4461 13.9178C34.8727 12.9947 35.3703 12.1782 35.9746 11.3971C35.9035 11.2196 35.868 11.0066 35.868 10.8291C35.868 9.90599 36.6145 9.19593 37.5031 9.19593C37.7164 9.19593 37.9297 9.23143 38.1074 9.30244C40.8445 7.20776 44.4348 6.32019 48.0605 7.13676C48.3805 7.20776 48.7004 7.31427 49.0203 7.38528C45.4656 6.88824 41.7688 7.98883 39.0316 10.19C39.1027 10.403 39.1738 10.616 39.1738 10.8291C39.1738 11.7521 38.4273 12.4622 37.5387 12.4622C37.3254 12.4622 37.1477 12.4267 36.9344 12.3557C36.3301 13.1723 35.7969 14.0953 35.4414 15.0894C36.7566 16.474 38.3563 17.6101 40.1336 18.2492V18.0007C40.1336 15.2669 42.373 13.0302 45.1102 13.0302C47.5629 13.0302 49.6246 14.8054 50.0156 17.1486C51.2598 16.3675 52.3262 15.3734 53.2504 14.2018C53.0371 13.9533 52.8949 13.6338 52.8949 13.2788C52.8949 12.4622 53.5703 11.7876 54.3879 11.7876C54.4945 11.7876 54.6012 11.7876 54.7434 11.8231C55.2055 10.8646 55.5609 9.87048 55.7742 8.8409C51.473 5.64563 43.1551 6.10717 43.1551 6.10717C43.1551 6.10717 36.5434 5.75214 32.0645 7.95332C32.3133 10.119 33.1664 12.1782 34.4461 13.9178Z" fill="#1287B1"/>
<path d="M55.3465 12.2135C55.6664 12.4975 55.8441 12.888 55.8441 13.3141C55.8441 14.1306 55.1687 14.8052 54.3512 14.8052C54.2801 14.8052 54.1734 14.8052 54.1023 14.7697C53.1781 16.2253 51.934 17.4679 50.4766 18.391C52.6094 18.7105 54.6355 19.6336 56.3062 21.0182C57.5148 18.8525 58.2258 16.3318 58.2258 13.6691C58.2258 11.6454 57.3371 10.1543 55.9863 9.05371C55.9152 10.1543 55.702 11.2194 55.3465 12.2135Z" fill="#1287B1"/>
<path d="M37.2898 26.2012C38.0363 24.142 39.316 22.3313 41.0578 20.9467C40.809 20.5917 40.5957 20.2367 40.4535 19.8106C38.3562 19.1716 36.5078 17.9645 35.0504 16.4023C35.0504 16.4378 35.0148 16.5089 35.0148 16.5444C34.7305 17.7515 34.6949 18.9941 34.8371 20.1657C35.8324 20.3432 36.6144 21.2307 36.6144 22.2958C36.6144 22.9349 36.3301 23.5029 35.9035 23.8935C36.259 24.71 36.7566 25.4911 37.2898 26.2012Z" fill="#1287B1"/>
<path d="M36.9344 27.409C36.0457 26.5215 35.2992 25.5274 34.7305 24.4268C34.6238 24.4268 34.5172 24.4623 34.4105 24.4623C33.202 24.4623 32.2422 23.5037 32.2422 22.2966C32.2422 21.4445 32.7398 20.699 33.4508 20.3439C33.273 18.9948 33.3441 17.6457 33.6641 16.2611C33.7352 15.8706 33.8773 15.48 33.984 15.0895C32.6688 13.1723 31.8867 10.8291 31.8867 8.30844V8.02441C29.6473 9.16051 27.9766 10.9002 27.9766 13.6694C27.9766 19.8114 31.6379 25.1013 36.8988 27.4445C36.9344 27.4445 36.9344 27.4445 36.9344 27.409Z" fill="#1287B1"/>
<path d="M49.7664 19.6689C49.091 21.5861 47.2426 23.0062 45.0742 23.0062C43.9012 23.0062 42.8348 22.6157 42.0172 21.9411C40.2754 23.2902 38.9602 25.1364 38.1426 27.2311C38.498 27.6216 38.8891 27.9766 39.2801 28.3317C40.4887 28.6512 41.7684 28.8287 43.0836 28.8287C48.3801 28.8287 53.0723 26.095 55.7738 21.9411C53.9965 20.663 51.8992 19.8465 49.7664 19.6689Z" fill="#1287B1"/>
<path d="M49.9445 18.3912L54.5301 17.2907L49.909 17.0421L53.677 14.2019L49.4113 15.7285L52.2906 11.7167L48.2738 14.3794L49.6602 9.69302L46.923 13.5628L46.852 8.66343L45.0391 13.0303L43.5461 8.62793L43.6172 13.8114L41.0223 9.16047L42.4441 14.0954L38.2141 11.0421L41.5199 15.196L36.259 13.2788L40.3824 16.3321L35.0859 16.5096L40.5246 17.8942L35.0859 19.0658L40.4535 19.4563L35.9391 22.3321L40.5957 20.6634L37.3609 24.7463L41.4488 21.4445L39.9914 26.912L43.1551 22.4386L42.7285 27.693L44.5059 22.9001L46.0344 27.906L46.3898 22.8646L48.6648 27.1605L47.3141 22.2611L51.4375 25.4563L48.7715 21.3735L53.3215 23.1486L49.8379 19.7404L54.4945 20.0954L49.9445 18.3912Z" fill="white"/>
<path d="M0.996094 27.1601C15.2504 12.9234 26.6254 8.52105 36.9695 6.53289C38.3203 6.28436 38.6047 3.26661 38.6047 3.26661C38.6047 3.26661 38.7824 5.4678 39.7422 5.75182C40.702 6.03584 41.9461 2.30803 41.9461 2.30803C41.9461 2.30803 40.8086 5.64531 41.9461 5.85833C43.0836 6.03584 45.2164 2.59206 45.2164 2.59206C45.2164 2.59206 44.3633 5.5388 44.932 5.75182C45.5008 5.92934 48.3801 1.45596 48.3801 1.45596C48.3801 1.45596 46.6738 4.40271 48.2734 4.72223C49.9086 5.00626 52.2902 2.69857 52.2902 2.69857C52.2902 2.69857 50.4418 4.79324 51.2594 5.11277C54.8141 6.35537 57.6578 1.77549 57.6578 1.77549C57.6578 1.77549 56.9824 3.79916 55.2762 6.00034C59.0086 6.95892 61.7812 1.34945 61.7812 1.34945L59.0086 6.95892C60.4305 7.66898 66.1535 1.06543 66.1535 1.06543C66.1535 1.06543 63.2031 6.21336 61.4613 7.27845C62.4211 8.05951 65.8691 4.97076 65.8691 4.97076C65.8691 4.97076 63.0965 8.41454 64.1629 8.59206C65.6914 9.83466 71.3434 2.20152 71.3434 2.20152C71.3434 2.20152 69.1394 6.7104 65.9047 10.2252C68.6062 11.6098 75.3601 2.91158 75.3601 2.91158C75.3601 2.91158 75.1824 5.68081 70.2769 10.0832C73.9027 9.62164 78.5949 2.73407 78.5949 2.73407C78.5949 2.73407 76.8887 7.882 72.7652 11.5388C76.3199 11.1838 82.043 2.37904 82.043 2.37904C82.043 2.37904 79.8391 8.48555 75.3601 12.0358C80.3367 13.1364 87.5172 5.71632 87.5172 5.71632C87.5172 5.71632 84.709 10.9708 81.0121 13.1364C85.1355 14.6986 90.7875 8.20152 90.7875 8.20152C90.7875 8.20152 85.1355 16.8997 76.1422 16.5092C73.1918 16.3672 64.2695 7.56247 45.1453 8.27253C19.8359 9.19561 14.5039 19.9175 0.996094 27.1601Z" fill="#373535" fill-opacity="0.35"/>
<path d="M1.56445 26.095C15.8187 11.8583 27.1937 7.4559 37.5379 5.46774C38.8887 5.21922 39.173 2.20147 39.173 2.20147C39.173 2.20147 39.3508 4.40265 40.3105 4.68667C41.2703 4.9707 42.5145 1.24289 42.5145 1.24289C42.5145 1.24289 41.377 4.58016 42.5145 4.79318C43.652 4.9707 45.7848 1.52691 45.7848 1.52691C45.7848 1.52691 44.9316 4.47366 45.5004 4.68667C46.0691 4.86419 48.9484 0.390816 48.9484 0.390816C48.9484 0.390816 47.2422 3.33756 48.8418 3.65709C50.477 3.94111 52.8586 1.63342 52.8586 1.63342C52.8586 1.63342 51.0102 3.72809 51.8277 4.04762C55.3824 5.29022 58.2262 0.710342 58.2262 0.710342C58.2262 0.710342 57.5508 2.73401 55.8445 4.93519C59.577 5.89377 62.3496 0.284307 62.3496 0.284307L59.577 5.89377C60.9988 6.67484 66.7574 0.0712891 66.7574 0.0712891C66.7574 0.0712891 63.807 5.21922 62.0652 6.28431C63.025 6.95886 66.473 3.90561 66.473 3.90561C66.473 3.90561 63.7004 7.3494 64.7668 7.52691C66.2953 8.76951 71.9473 1.13638 71.9473 1.13638C71.9473 1.13638 69.7078 5.64525 66.473 9.16005C69.1746 10.5092 75.9641 1.81093 75.9641 1.81093C75.9641 1.81093 75.7863 4.58016 70.8809 8.98253C74.5066 8.52099 79.1988 1.63342 79.1988 1.63342C79.1988 1.63342 77.4926 6.78135 73.3691 10.4382C76.9238 10.0831 82.6469 1.27839 82.6469 1.27839C82.6469 1.27839 80.443 7.3849 75.9641 10.9352C80.9406 12.0358 88.1211 4.61567 88.1211 4.61567C88.1211 4.61567 85.3129 9.87011 81.616 12.0358C85.7395 13.5979 91.3914 7.10087 91.3914 7.10087C91.3914 7.10087 85.7395 15.7991 76.7461 15.4086C73.7957 15.2666 64.8734 6.46182 45.7492 7.17188C20.4398 8.13046 15.0723 18.8169 1.56445 26.095Z" fill="#373535"/>
<path d="M0.640625 28.7225C8.17656 32.4858 15.0727 28.1544 23.7461 30.6041C30.3578 32.4503 38.3914 34.758 49.3043 33.1603C60.2172 31.5982 69.5305 26.8408 74.0094 18.3911C75.3957 14.6278 81.0477 19.2432 81.0477 19.2432C81.0477 19.2432 76.9242 17.539 77.0309 18.3201C77.1375 19.1367 83.216 21.9414 83.216 21.9414C83.216 21.9414 77.7063 20.2373 78.0617 21.5154C78.3816 22.7935 84.9578 27.9769 84.9578 27.9769C84.9578 27.9769 77.4574 22.3674 76.8531 23.1485C76.2133 23.9296 80.0168 27.0183 80.0168 27.0183C80.0168 27.0183 73.7605 23.1485 71.5566 24.2846C69.957 25.1012 78.0617 30.3911 78.0617 30.3911C78.0617 30.3911 72.8008 26.3793 71.5566 27.4444C70.3125 28.5095 77.493 37.1012 77.493 37.1012C77.493 37.1012 69.3172 28.2964 68.4996 28.7225C67.682 29.1485 70.7391 33.3734 70.7391 33.3734C70.7391 33.3734 66.7578 28.971 65.6559 29.7166C64.5539 30.4976 71.4145 41.8941 71.4145 41.8941C71.4145 41.8941 63.9852 30.2136 60.8926 32.1663C65.6914 42.7106 63.9141 44.2018 63.9141 44.2018C63.9141 44.2018 63.3098 33.4444 57.3023 33.7284C54.2809 33.8704 58.7242 41.7521 58.7242 41.7521C58.7242 41.7521 54.6363 34.545 51.8992 34.687C56.9113 44.2018 55.134 48.0361 55.134 48.0361C55.134 48.0361 55.9516 39.9059 49.1621 35.397C51.757 37.7047 47.527 48.0361 47.527 48.0361C47.527 48.0361 51.2238 32.8053 44.7898 35.7166C43.759 36.1781 44.7188 43.3142 44.7188 43.3142C44.7188 43.3142 43.4391 35.1485 41.484 35.5745C40.3465 35.8231 34.3035 46.9 34.3035 46.9C34.3035 46.9 39.2445 34.9355 37.7516 35.4325C36.6496 35.7876 34.5879 40.7225 34.5879 40.7225C34.5879 40.7225 35.5832 35.8586 34.5879 35.5745C33.5926 35.2905 27.9762 40.7225 27.9762 40.7225C27.9762 40.7225 32.1352 35.8586 31.4242 34.829C30.3223 33.3024 29.0781 33.2314 27.5496 33.8349C25.3457 34.687 22.3953 38.6988 22.3953 38.6988C22.3953 38.6988 25.3457 34.616 24.848 33.1248C24.0305 30.6751 15.5348 37.8467 15.5348 37.8467C15.5348 37.8467 20.5469 33.1248 19.4094 32.0953C18.2719 31.1012 12.0156 31.3852 10.0961 31.3852C4.37305 31.4562 2.38242 30.1071 0.640625 28.7225Z" fill="#373535" fill-opacity="0.35"/>
<path d="M0.320312 27.8699C7.85625 31.6332 14.7523 27.3019 23.4258 29.7516C30.0375 31.5977 38.0711 33.9054 48.984 32.3078C59.8969 30.7457 69.2102 25.9883 73.6891 17.5386C75.0754 13.7753 80.7273 18.3906 80.7273 18.3906C80.7273 18.3906 76.6039 16.6865 76.7105 17.4676C76.8172 18.2841 82.8957 21.0889 82.8957 21.0889C82.8957 21.0889 77.3859 19.3847 77.7414 20.6628C78.0613 21.9409 84.6375 27.1244 84.6375 27.1244C84.6375 27.1244 77.2082 21.4794 76.6039 22.2605C75.9996 23.0415 79.7676 26.1303 79.7676 26.1303C79.7676 26.1303 73.5113 22.2605 71.3074 23.3966C69.7078 24.2131 77.8125 29.5031 77.8125 29.5031C77.8125 29.5031 72.5516 25.4912 71.3074 26.5563C70.0633 27.6214 77.2438 36.2131 77.2438 36.2131C77.2438 36.2131 69.1035 27.4084 68.2859 27.8344C67.4684 28.2605 70.5254 32.4853 70.5254 32.4853C70.5254 32.4853 66.473 28.1185 65.3711 28.864C64.2691 29.6451 71.0941 41.0415 71.0941 41.0415C71.0941 41.0415 63.6648 29.3256 60.6078 31.2782C65.4422 41.8581 63.6293 43.3492 63.6293 43.3492C63.6293 43.3492 63.025 32.5918 57.0176 32.8759C53.9961 33.0179 58.4395 40.8995 58.4395 40.8995C58.4395 40.8995 54.3871 33.7279 51.65 33.8699C56.6621 43.3847 54.8848 47.219 54.8848 47.219C54.8848 47.219 55.7023 39.0889 48.9129 34.58C51.5078 36.8877 47.2777 47.219 47.2777 47.219C47.2777 47.219 50.9746 31.9883 44.5406 34.8995C43.5098 35.3611 44.4695 42.4972 44.4695 42.4972C44.4695 42.4972 43.1898 34.3315 41.2348 34.7575C40.0973 35.006 34.0543 46.083 34.0543 46.083C34.0543 46.083 38.9953 34.1185 37.5023 34.6155C36.4004 34.9705 34.3387 39.9054 34.3387 39.9054C34.3387 39.9054 35.334 35.0415 34.3387 34.7575C33.3434 34.4735 27.727 39.9054 27.727 39.9054C27.727 39.9054 31.8859 35.0415 31.175 34.0119C30.073 32.4853 28.8289 32.4143 27.3004 33.0179C25.0965 33.8699 22.1461 37.8818 22.1461 37.8818C22.1461 37.8818 25.0965 33.7989 24.5988 32.3078C23.7812 29.8581 15.2855 37.0297 15.2855 37.0297C15.2855 37.0297 20.2977 32.3078 19.1602 31.2782C18.0227 30.2841 11.7664 30.5682 9.84688 30.5682C4.05274 30.6037 2.06211 29.2546 0.320312 27.8699Z" fill="#373535"/>
</g>
<defs>
<clipPath id="clip0_5122_12455">
<rect width="91" height="60" fill="white"/>
</clipPath>
</defs>
</svg>
