<svg width="50" height="50" viewBox="0 0 50 50" fill="none" xmlns="http://www.w3.org/2000/svg">
<g clip-path="url(#clip0_14677_5988)">
<path fill-rule="evenodd" clip-rule="evenodd" d="M22.3145 -0.0488281C25.0489 -0.0488281 27.7832 -0.0488281 30.5176 -0.0488281C29.9165 1.21787 29.5422 2.55251 29.3946 3.95508C28.8216 8.56176 29.9283 12.6959 32.7149 16.3574C33.3368 16.9631 33.9391 17.5815 34.5215 18.2129C33.9347 18.1967 33.3488 18.213 32.7637 18.2617C32.4945 18.3533 32.2666 18.4998 32.0801 18.7012C30.928 19.8045 29.7886 20.9275 28.6621 22.0703C28.0843 22.5727 27.6123 22.4912 27.2461 21.8262C27.2136 20.9473 27.181 20.0684 27.1485 19.1895C26.9207 18.6363 26.5138 18.2945 25.9278 18.1641C23.8524 18.4588 21.9644 18.0193 20.2637 16.8457C19.135 15.8586 18.4352 14.6216 18.1641 13.1348C18.099 10.1726 18.099 7.21028 18.1641 4.24805C18.6755 1.96272 20.0589 0.530428 22.3145 -0.0488281Z" fill="#81D7E6"/>
<path opacity="0.996" fill-rule="evenodd" clip-rule="evenodd" d="M30.5177 -0.0488281C35.5958 -0.0488281 40.6739 -0.0488281 45.752 -0.0488281C47.9656 0.537109 49.3653 1.93685 49.9513 4.15039C49.9513 7.4056 49.9513 10.6608 49.9513 13.916C49.2805 16.4257 47.6528 17.8417 45.0685 18.1641C41.553 18.2129 38.0374 18.2292 34.5216 18.2129C33.9392 17.5815 33.3369 16.9631 32.7149 16.3574C29.9284 12.6959 28.8217 8.56176 29.3946 3.95508C29.5423 2.55251 29.9166 1.21787 30.5177 -0.0488281Z" fill="#B3E8F0"/>
<path fill-rule="evenodd" clip-rule="evenodd" d="M24.3651 6.7871C26.0353 6.63544 26.9794 7.38414 27.1971 9.0332C26.9665 10.7436 25.9899 11.4761 24.2674 11.2305C22.9107 10.6165 22.4387 9.59108 22.8514 8.15429C23.1924 7.50335 23.697 7.04763 24.3651 6.7871Z" fill="#5972A5"/>
<path fill-rule="evenodd" clip-rule="evenodd" d="M33.4471 6.7871C34.7715 6.6109 35.6993 7.13173 36.2303 8.3496C36.4305 10.4725 35.4703 11.4328 33.3494 11.2305C31.9343 10.5332 31.4949 9.44267 32.0311 7.95897C32.3769 7.40038 32.8489 7.00976 33.4471 6.7871Z" fill="#7888AF"/>
<path fill-rule="evenodd" clip-rule="evenodd" d="M42.5292 6.7871C43.8536 6.6109 44.7814 7.13173 45.3124 8.3496C45.5219 10.4839 44.5616 11.4441 42.4316 11.2305C41.0171 10.5357 40.5777 9.44523 41.1132 7.95897C41.459 7.40038 41.931 7.00976 42.5292 6.7871Z" fill="#7888AF"/>
<path opacity="0.973" fill-rule="evenodd" clip-rule="evenodd" d="M3.75964 21.0449C3.23881 21.1751 2.71797 21.1751 2.19714 21.0449C1.0693 20.5809 0.564741 19.7345 0.683465 18.5059C1.15608 16.9585 2.18147 16.3564 3.75964 16.6992C5.30103 17.5081 5.67538 18.6962 4.88268 20.2637C4.59903 20.6623 4.22469 20.9228 3.75964 21.0449Z" fill="#5971A5"/>
<path fill-rule="evenodd" clip-rule="evenodd" d="M20.2637 16.8457C21.9644 18.0193 23.8524 18.4588 25.9278 18.1641C26.5138 18.2945 26.9208 18.6363 27.1485 19.1895C27.181 20.0684 27.2136 20.9473 27.2462 21.8262C27.6124 22.4912 28.0844 22.5727 28.6622 22.0703C29.7886 20.9275 30.928 19.8045 32.0802 18.7012C33.0045 19.1066 33.8509 19.6274 34.6192 20.2637C33.8945 20.2255 33.1784 20.2743 32.4708 20.4102C30.9761 21.807 29.5113 23.2394 28.0762 24.707C27.0786 25.1761 26.3136 24.9319 25.7813 23.9746C25.7488 23.1282 25.7162 22.2819 25.6837 21.4355C25.5047 20.8659 25.1303 20.4915 24.5606 20.3125C23.4503 20.2955 22.3435 20.2304 21.2403 20.1172C20.3412 19.8302 19.4948 19.4396 18.7012 18.9453C17.8795 18.7523 17.2772 19.029 16.8946 19.7754C16.0954 22.0933 15.5583 24.4695 15.2833 26.9043C11.8214 28.2023 9.75428 30.6764 9.08211 34.3262C8.75102 38.3679 10.2972 41.444 13.7208 43.5547C15.8186 44.5776 18.0321 44.952 20.3614 44.6777C20.9379 45.5316 21.5726 46.3454 22.2657 47.1191C23.2132 48.0503 24.1409 48.9943 25.0489 49.9512C22.4447 49.9512 19.8406 49.9512 17.2364 49.9512C11.9747 49.1616 8.16607 46.3947 5.81062 41.6504C4.13726 37.7052 4.00706 33.7013 5.42 29.6387C5.37538 29.5607 5.31027 29.5282 5.22468 29.541C5.8177 28.355 6.41992 27.1506 7.03132 25.9277C10.092 20.9674 14.5028 17.94 20.2637 16.8457Z" fill="#5972A5"/>
<path opacity="0.998" fill-rule="evenodd" clip-rule="evenodd" d="M34.6191 20.2637C37.8423 22.6031 40.1209 25.6631 41.4551 29.4433C41.7445 30.5037 41.9887 31.5779 42.1875 32.666C42.6616 35.7742 42.2872 38.769 41.0645 41.6504C38.7046 46.3962 34.896 49.1632 29.6387 49.9512C28.1087 49.9512 26.5788 49.9512 25.0488 49.9512C24.1408 48.9943 23.2131 48.0503 22.2656 47.1191C21.5726 46.3454 20.9378 45.5316 20.3613 44.6777C23.3729 44.71 26.3677 44.6775 29.3457 44.5801C33.0019 44.2587 35.5897 42.4358 37.1094 39.1113C38.6003 35.0001 37.7376 31.4682 34.5215 28.5156C33.2228 27.5069 31.7579 26.8559 30.127 26.5625C25.6348 26.4974 21.1426 26.4974 16.6504 26.5625C16.1851 26.6463 15.7294 26.7601 15.2832 26.9043C15.5582 24.4695 16.0953 22.0932 16.8945 19.7754C17.2771 19.029 17.8794 18.7523 18.7012 18.9453C19.4947 19.4395 20.3411 19.8302 21.2402 20.1172C22.3435 20.2304 23.4502 20.2955 24.5605 20.3125C25.1302 20.4915 25.5046 20.8659 25.6836 21.4355C25.7161 22.2819 25.7487 23.1282 25.7812 23.9746C26.3136 24.9319 27.0785 25.1761 28.0762 24.707C29.5112 23.2393 30.9761 21.807 32.4707 20.4101C33.1783 20.2743 33.8944 20.2255 34.6191 20.2637Z" fill="#7888AF"/>
<path opacity="0.979" fill-rule="evenodd" clip-rule="evenodd" d="M2.19727 21.0449C2.7181 21.1751 3.23894 21.1751 3.75977 21.0449C3.75977 23.9746 3.75977 26.9043 3.75977 29.834C3.24246 30.1581 2.72163 30.4837 2.19727 30.8105C2.19727 27.5554 2.19727 24.3001 2.19727 21.0449Z" fill="#DDDCDF"/>
<path fill-rule="evenodd" clip-rule="evenodd" d="M29.3459 44.5801C26.3184 44.5964 23.2911 44.5801 20.2639 44.5312C18.8918 42.6827 17.785 40.6808 16.9436 38.5254C18.4986 37.389 18.5962 36.1357 17.2366 34.7656C16.9003 34.5398 16.5423 34.3607 16.1623 34.2285C16.0724 33.6582 16.3003 33.3001 16.8459 33.1543C17.4495 33.2527 17.7261 33.6108 17.676 34.2285C18.1318 34.7493 18.5874 34.7493 19.0432 34.2285C19.1838 32.9679 18.6467 32.1378 17.4319 31.7383C16.7033 31.5756 16.0522 31.7221 15.4788 32.1777C15.4185 32.1669 15.3697 32.1344 15.3323 32.0801C15.1618 30.3555 15.1455 28.6303 15.2834 26.9043C15.7296 26.7602 16.1853 26.6463 16.6506 26.5625C21.1428 26.4974 25.635 26.4974 30.1272 26.5625C31.7581 26.856 33.223 27.5069 34.5217 28.5156C37.7378 31.4682 38.6005 35.0001 37.1096 39.1113C35.59 42.4358 33.0021 44.2587 29.3459 44.5801Z" fill="#F3F3F4"/>
<path fill-rule="evenodd" clip-rule="evenodd" d="M15.2831 26.9043C15.1452 28.6303 15.1614 30.3555 15.3319 32.0801C15.3693 32.1344 15.4181 32.1669 15.4784 32.1777C14.8937 32.6964 14.6332 33.3475 14.6971 34.1309C13.6033 34.2457 12.7732 34.7666 12.2069 35.6934C11.87 37.4763 12.6024 38.5668 14.4041 38.9648C15.298 39.0757 16.1443 38.9292 16.9432 38.5254C17.7846 40.6808 18.8914 42.6827 20.2635 44.5312C23.2907 44.5801 26.318 44.5964 29.3456 44.5801C26.3675 44.6775 23.3727 44.7101 20.3612 44.6777C18.0319 44.952 15.8184 44.5776 13.7206 43.5547C10.297 41.444 8.75079 38.3679 9.08188 34.3262C9.75406 30.6764 11.8211 28.2023 15.2831 26.9043Z" fill="#DDDCDF"/>
<path opacity="0.987" fill-rule="evenodd" clip-rule="evenodd" d="M41.4551 29.4434C44.0212 29.8117 45.7627 31.2115 46.6797 33.6426C47.4367 36.5806 46.6066 38.9405 44.1895 40.7227C43.2259 41.2989 42.1842 41.6081 41.0645 41.6504C42.2872 38.769 42.6616 35.7742 42.1875 32.666C41.9887 31.5779 41.7445 30.5037 41.4551 29.4434Z" fill="#5971A5"/>
<path opacity="0.987" fill-rule="evenodd" clip-rule="evenodd" d="M5.22461 29.541C5.3102 29.5282 5.3753 29.5607 5.41992 29.6387C4.00698 33.7013 4.13719 37.7052 5.81055 41.6504C3.50076 41.4809 1.75922 40.4067 0.585938 38.4277C0.32252 37.8481 0.110932 37.2622 -0.0488281 36.6699C-0.0488281 35.9212 -0.0488281 35.1726 -0.0488281 34.4238C0.278351 32.9554 1.02705 31.7509 2.19727 30.8105C2.72163 30.4837 3.24246 30.1581 3.75977 29.834C4.23178 29.6591 4.72006 29.5614 5.22461 29.541Z" fill="#3B5A9B"/>
<path fill-rule="evenodd" clip-rule="evenodd" d="M16.1623 34.2285C15.631 34.7756 15.1427 34.743 14.6974 34.1309C14.6336 33.3475 14.894 32.6964 15.4787 32.1777C16.0521 31.7221 16.7032 31.5756 17.4318 31.7383C18.6466 32.1378 19.1838 32.9679 19.0431 34.2285C18.5874 34.7493 18.1317 34.7493 17.6759 34.2285C17.726 33.6108 17.4494 33.2527 16.8459 33.1543C16.3003 33.3001 16.0723 33.6582 16.1623 34.2285Z" fill="#4B5661"/>
<path fill-rule="evenodd" clip-rule="evenodd" d="M32.1778 34.1309C31.7372 34.7422 31.2489 34.7747 30.713 34.2285C30.7588 33.6683 30.5146 33.3102 29.9806 33.1543C29.4437 33.2487 29.1833 33.5742 29.1993 34.1309C28.7924 34.7421 28.3367 34.7746 27.8321 34.2285C27.7813 32.3915 28.6766 31.5614 30.5177 31.7383C31.6701 32.125 32.2235 32.9225 32.1778 34.1309Z" fill="#4B5661"/>
<path fill-rule="evenodd" clip-rule="evenodd" d="M21.9239 33.4473C23.0034 33.4103 24.0777 33.4591 25.1465 33.5938C26.0536 33.8773 26.4768 34.4958 26.416 35.4492C26.2934 37.7534 25.0889 38.8603 22.8028 38.7695C20.9917 38.0298 20.2267 36.6789 20.5078 34.7168C20.7514 34.0343 21.2234 33.6111 21.9239 33.4473Z" fill="#4A5661"/>
<path fill-rule="evenodd" clip-rule="evenodd" d="M14.6973 34.1309C15.1426 34.743 15.6309 34.7756 16.1621 34.2285C16.5421 34.3607 16.9001 34.5398 17.2364 34.7656C18.596 36.1357 18.4984 37.389 16.9434 38.5254C16.1445 38.9292 15.2982 39.0757 14.4043 38.9648C12.6026 38.5668 11.8701 37.4763 12.2071 35.6934C12.7734 34.7666 13.6034 34.2457 14.6973 34.1309Z" fill="#FEA1AC"/>
<path fill-rule="evenodd" clip-rule="evenodd" d="M32.1777 34.1309C33.4157 34.2483 34.2784 34.8669 34.7656 35.9863C34.9575 37.3759 34.3878 38.3036 33.0566 38.7695C31.5966 39.2711 30.3109 38.9943 29.1992 37.9395C28.3119 36.1631 28.8163 34.9261 30.7128 34.2285C31.2488 34.7747 31.737 34.7422 32.1777 34.1309Z" fill="#FEA1AC"/>
</g>
<defs>
<clipPath id="clip0_14677_5988">
<rect width="50" height="50" fill="white"/>
</clipPath>
</defs>
</svg>
