<svg width="16" height="16" viewBox="0 0 16 16" fill="none" xmlns="http://www.w3.org/2000/svg">
<g clip-path="url(#clip0_9495_16373)">
<path d="M8 0C3.58862 0 0 3.58862 0 8C0 12.4114 3.58862 16 8 16C12.4114 16 16 12.4114 16 8C16 3.58862 12.4114 0 8 0Z" fill="#39B54A"/>
<path d="M12.0542 6.3042L7.72083 10.6375C7.59082 10.7675 7.42017 10.8329 7.24951 10.8329C7.07886 10.8329 6.9082 10.7675 6.7782 10.6375L4.61157 8.47083C4.35083 8.21021 4.35083 7.78882 4.61157 7.5282C4.87219 7.26746 5.29346 7.26746 5.5542 7.5282L7.24951 9.22351L11.1116 5.36157C11.3722 5.10083 11.7935 5.10083 12.0542 5.36157C12.3148 5.62219 12.3148 6.04346 12.0542 6.3042Z" fill="white"/>
</g>
<defs>
<clipPath id="clip0_9495_16373">
<rect width="16" height="16" fill="white"/>
</clipPath>
</defs>
</svg>
