<svg width="150" height="55" viewBox="0 0 150 55" fill="none" xmlns="http://www.w3.org/2000/svg">
<path d="M145.849 18.6562V18.9047H146.474V20.6684H146.724V18.9047H147.349V18.6562C147.374 18.6562 145.849 18.6562 145.849 18.6562ZM149.749 18.6562L148.999 19.7741L148.249 18.6562H147.999V20.6684H148.249V19.1531L148.999 20.271L149.749 19.1531V20.6684H149.999V18.6562C150.024 18.6562 149.749 18.6562 149.749 18.6562Z" fill="#3F5464"/>
<path d="M66.374 27.5493C66.374 22.1586 70.399 17.8857 76.2239 17.8857C79.7489 17.8857 81.8989 19.0036 83.6739 20.7674L81.0239 23.7733C79.6239 22.5312 78.1239 21.6369 76.2239 21.6369C73.074 21.6369 70.799 24.2701 70.799 27.4002C70.799 30.6545 73.074 33.2877 76.2239 33.2877C78.3739 33.2877 79.6239 32.4183 81.1489 31.1513L83.7989 33.7846C81.8989 35.7968 79.7739 37.1631 76.0989 37.1631C70.524 37.2128 66.374 32.9399 66.374 27.5493Z" fill="#3F5464"/>
<path d="M88.4492 18.2842H92.5992V25.538H100.299V18.2842H104.349V36.8162H100.299V29.4382H92.5992V36.8162H88.4492V18.2842Z" fill="#3F5464"/>
<path d="M109.398 18.2842H123.648V21.9111H113.548V25.6622H122.373V29.314H113.548V33.1893H123.773V36.8162H109.398V18.2842Z" fill="#3F5464"/>
<path d="M129.198 18.2842H143.448V21.9111H133.223V25.9106H142.323V29.6866H133.223V36.8162H129.198V18.2842Z" fill="#3F5464"/>
<path d="M27.7748 39.9708C20.8249 39.9708 15.275 34.4558 15.275 27.5498C15.275 20.6437 20.8249 15.1288 27.7748 15.1288C33.4498 15.1288 38.2497 18.88 39.7497 24.1465H44.5497C43.0247 16.2467 36.0998 10.4834 27.7748 10.4834C18.3249 10.4834 10.625 18.1347 10.625 27.525C10.625 36.9152 18.3249 44.5665 27.7748 44.5665C36.0998 44.5665 43.0497 38.679 44.6747 30.9035H39.8747C38.2497 36.1948 33.4498 39.9708 27.7748 39.9708Z" fill="#3F5464"/>
<path d="M19.3252 35.9461C21.4752 38.0825 24.5001 39.4488 27.7751 39.4488V34.4556C25.8751 34.4556 24.1252 33.7103 22.8502 32.4434L19.3252 35.9461Z" fill="#3F5464"/>
<path d="M15.7744 27.5501C15.7744 29.3139 16.1494 30.8044 16.7744 32.3197L21.3244 30.3075C20.9494 29.4381 20.6994 28.5438 20.6994 27.5501C20.6994 23.799 23.8493 20.644 27.6493 20.644V15.626C21.1994 15.6508 15.7744 21.0415 15.7744 27.5501Z" fill="#F09820"/>
<path d="M32.0494 16.5195L30.2744 21.165C31.7994 21.786 32.9244 22.8045 33.7994 24.1708H39.0993C38.0993 20.6433 35.4494 17.7616 32.0494 16.5195Z" fill="#3F5464"/>
<path d="M30.2998 33.9336L32.0748 38.579C35.4748 37.337 38.1247 34.4304 39.1497 30.9277H33.7248C32.9498 32.3189 31.7998 33.4368 30.2998 33.9336Z" fill="#F09820"/>
<path d="M27.7744 50.4783C21.4745 50.4783 15.6745 47.8451 11.4996 43.7213L8.22461 46.9756C13.2746 51.9937 20.1995 54.9996 27.8994 54.9996C42.0243 54.9996 53.7492 44.4666 55.3992 30.9277H50.5992C48.8242 41.9575 39.2493 50.4783 27.7744 50.4783Z" fill="#F09820"/>
<path d="M27.7746 4.62059C32.9495 4.62059 37.7495 6.38437 41.5244 9.14182L44.2994 5.39069C39.7494 2.01219 33.9495 0 27.7746 0C16.0497 0 5.94977 7.27868 1.9248 17.5384L6.34976 19.3022C9.59973 10.7565 18.0496 4.62059 27.7746 4.62059Z" fill="#F09820"/>
<path d="M50.5996 24.1716H55.3995C54.8995 20.172 53.4995 16.2719 51.3746 13.0176L47.3496 15.5266C48.9496 18.0356 50.0996 20.9173 50.5996 24.1716Z" fill="#3F5464"/>
<path d="M45.1741 24.1708H49.9741C48.7241 16.2711 43.2991 9.63831 35.9742 6.88086L34.1992 11.2779C39.7492 13.2652 44.0491 18.1591 45.1741 24.1708Z" fill="#F09820"/>
<path d="M27.775 9.88763V5.24219C18.3251 5.24219 10.1252 11.1297 6.8252 19.5263L11.2502 21.1659C13.7751 14.5082 20.2001 9.88763 27.775 9.88763Z" fill="#3F5464"/>
<path d="M9.97476 27.5498H5.2998C5.2998 36.94 11.0997 44.964 19.4247 48.2431L21.1996 43.8461C14.6497 41.3371 9.97476 34.9527 9.97476 27.5498Z" fill="#F09820"/>
<path d="M27.7754 45.2367V49.8573C39.0003 49.8573 48.3502 41.7091 49.9752 30.9277H45.1752C43.5252 39.0759 36.3503 45.2367 27.7754 45.2367Z" fill="#3F5464"/>
<path d="M2.39998 38.7038C0.749993 35.0769 0 31.3009 0 27.5498H4.67495C4.67495 30.6799 5.29995 33.81 6.57494 36.8158L2.39998 38.7038Z" fill="#3F5464"/>
</svg>
