<svg width="60" height="60" viewBox="0 0 60 60" fill="none" xmlns="http://www.w3.org/2000/svg">
<g clip-path="url(#clip0_9463_45085)">
<path d="M50.2984 13.6C52.4523 13.6 54.1984 11.8539 54.1984 9.69999C54.1984 7.54608 52.4523 5.79999 50.2984 5.79999C48.1445 5.79999 46.3984 7.54608 46.3984 9.69999C46.3984 11.8539 48.1445 13.6 50.2984 13.6Z" fill="#54CC5A"/>
<path d="M9.70078 54.2C11.8547 54.2 13.6008 52.4539 13.6008 50.3C13.6008 48.1461 11.8547 46.4 9.70078 46.4C7.54687 46.4 5.80078 48.1461 5.80078 50.3C5.80078 52.4539 7.54687 54.2 9.70078 54.2Z" fill="#54CC5A"/>
<path d="M32.3991 24.2V31.1C32.3991 31.7 31.8991 32.1 31.3991 32.1H28.1991C27.5991 32.1 27.1991 31.6 27.1991 31.1V24.2C23.6991 25.6 21.8991 29.7 23.3991 33.2C23.9991 34.8 25.1991 36.1 26.7991 36.8V44.5H32.8991V36.8C36.2991 35.1 37.7991 31 36.0991 27.6C35.2991 26 33.9991 24.8 32.3991 24.2Z" fill="#839299"/>
<path d="M48.7992 26.3H47.4992C46.6992 26.3 45.9992 25.7 45.6992 25C45.3992 24.1 44.9992 23.2 44.5992 22.4C44.1992 21.7 44.2992 20.8 44.8992 20.2L45.7992 19.3C44.3992 17.2 42.5992 15.4 40.4992 14L39.5992 14.9C38.9992 15.5 38.0992 15.6 37.3992 15.2C36.5992 14.8 35.6992 14.4 34.7992 14.1C33.9992 13.9 33.4992 13.2 33.4992 12.3V11C30.9992 10.5 28.4992 10.5 25.9992 11V12.3C25.9992 13.1 25.3992 13.8 24.6992 14.1C23.7992 14.4 22.8992 14.8 22.0992 15.2C21.3992 15.6 20.4992 15.5 19.8992 14.9L18.9992 13.9C16.8992 15.3 15.0992 17.1 13.6992 19.2L14.5992 20.1C15.1992 20.7 15.2992 21.6 14.8992 22.3C14.4992 23.1 14.0992 24 13.7992 24.9C13.5992 25.7 12.8992 26.2 11.9992 26.2H10.6992C10.1992 28.7 10.1992 31.2 10.6992 33.7H11.9992C12.7992 33.7 13.4992 34.3 13.7992 35C14.0992 35.9 14.4992 36.8 14.8992 37.6C15.2992 38.3 15.1992 39.2 14.5992 39.8L13.6992 40.7C15.0992 42.8 16.8992 44.6 18.9992 46L19.8992 45.1C20.4992 44.5 21.3992 44.4 22.0992 44.8C22.8992 45.2 23.7992 45.6 24.6992 45.9C25.4992 46.1 25.9992 46.8 25.9992 47.7V49C28.4992 49.5 30.9992 49.5 33.4992 49V47.7C33.4992 46.9 34.0992 46.2 34.7992 45.9C35.6992 45.6 36.5992 45.2 37.3992 44.8C38.0992 44.4 38.9992 44.5 39.5992 45.1L40.4992 46C42.5992 44.6 44.3992 42.8 45.7992 40.7L44.9992 39.9C44.3992 39.3 44.2992 38.4 44.6992 37.7C45.0992 36.9 45.4992 36 45.7992 35.1C45.9992 34.3 46.6992 33.8 47.5992 33.8H48.8992C49.2992 31.3 49.2992 28.7 48.7992 26.3ZM29.7992 42.6C22.8992 42.6 17.1992 37 17.1992 30C17.1992 23 22.7992 17.4 29.7992 17.4C36.7992 17.4 42.3992 23.1 42.3992 30C42.3992 36.9 36.6992 42.6 29.7992 42.6Z" fill="#D2D9DC"/>
<path opacity="0.19" d="M48.7992 26.3H47.4992C46.6992 26.3 45.9992 25.7 45.6992 25C45.3992 24.1 44.9992 23.2 44.5992 22.4C44.1992 21.7 44.2992 20.8 44.8992 20.2L45.7992 19.3C44.3992 17.2 42.5992 15.4 40.4992 14L39.5992 14.9C38.9992 15.5 38.0992 15.6 37.3992 15.2C36.5992 14.8 35.6992 14.4 34.7992 14.1C33.9992 13.9 33.4992 13.2 33.4992 12.3V11C30.9992 10.5 28.4992 10.5 25.9992 11V12.3C25.9992 13.1 25.3992 13.8 24.6992 14.1C23.7992 14.4 22.8992 14.8 22.0992 15.2C21.3992 15.6 20.4992 15.5 19.8992 14.9L18.9992 13.9C16.8992 15.3 15.0992 17.1 13.6992 19.2L14.5992 20.1C15.1992 20.7 15.2992 21.6 14.8992 22.3C14.4992 23.1 14.0992 24 13.7992 24.9C13.5992 25.7 12.8992 26.2 11.9992 26.2H10.6992C10.1992 28.7 10.1992 31.2 10.6992 33.7H11.9992C12.7992 33.7 13.4992 34.3 13.7992 35C14.0992 35.9 14.4992 36.8 14.8992 37.6C15.2992 38.3 15.1992 39.2 14.5992 39.8L13.6992 40.7C15.0992 42.8 16.8992 44.6 18.9992 46L19.8992 45.1C20.4992 44.5 21.3992 44.4 22.0992 44.8C22.8992 45.2 23.7992 45.6 24.6992 45.9C25.4992 46.1 25.9992 46.8 25.9992 47.7V49C28.4992 49.5 30.9992 49.5 33.4992 49V47.7C33.4992 46.9 34.0992 46.2 34.7992 45.9C35.6992 45.6 36.5992 45.2 37.3992 44.8C38.0992 44.4 38.9992 44.5 39.5992 45.1L40.4992 46C42.5992 44.6 44.3992 42.8 45.7992 40.7L44.9992 39.9C44.3992 39.3 44.2992 38.4 44.6992 37.7C45.0992 36.9 45.4992 36 45.7992 35.1C45.9992 34.3 46.6992 33.8 47.5992 33.8H48.8992C49.2992 31.3 49.2992 28.7 48.7992 26.3ZM29.7992 42.6C22.8992 42.6 17.1992 37 17.1992 30C17.1992 23 22.7992 17.4 29.7992 17.4C36.7992 17.4 42.3992 23.1 42.3992 30C42.3992 36.9 36.6992 42.6 29.7992 42.6Z" fill="#2D2F31"/>
<path d="M4.00013 45C-4.29987 30.6 0.700126 12.3 15.0001 4.00001C24.3001 -1.39999 35.7001 -1.39999 45.0001 4.00001L44.0001 5.70001C30.6001 -2.09999 13.4001 2.60001 5.70013 16C0.700126 24.7 0.700126 35.4 5.70013 44L4.00013 45Z" fill="#0054A6"/>
<path d="M30 60C24.7 60 19.6 58.6 15 56L16 54.3C29.4 62 46.6 57.4 54.3 44C59.3 35.3 59.3 24.6 54.3 16L56 15C64.3 29.4 59.4 47.7 45 56C40.4 58.6 35.3 60 30 60Z" fill="#0054A6"/>
</g>
<defs>
<clipPath id="clip0_9463_45085">
<rect width="60" height="60" fill="white"/>
</clipPath>
</defs>
</svg>
