<svg width="421" height="332" viewBox="0 0 421 332" fill="none" xmlns="http://www.w3.org/2000/svg">
<g opacity="0.5">
<path d="M365.389 135.8H219.289C213.189 135.8 208.289 140.7 208.289 146.8V245.3C208.289 251.4 213.189 256.3 219.289 256.3H365.389C371.489 256.3 376.389 251.4 376.389 245.3V146.8C376.389 140.7 371.489 135.8 365.389 135.8Z" fill="#D2D9DC"/>
<path d="M265.49 192.8H217.09V195.3H265.49V192.8Z" fill="#839299"/>
<path d="M297.79 186.6H217.09V189.1H297.79V186.6Z" fill="#839299"/>
<path d="M350.592 192.8H272.992V195.3H350.592V192.8Z" fill="#839299"/>
<path d="M367.389 199H323.289V201.5H367.389V199Z" fill="#839299"/>
<path d="M367.389 205.2H279.789V207.7H367.389V205.2Z" fill="#839299"/>
<path d="M344.99 211.4H260.59V213.9H344.99V211.4Z" fill="#839299"/>
<path d="M367.389 186.6H305.289V189.1H367.389V186.6Z" fill="#839299"/>
<path d="M367.388 226.3H320.188V228.8H367.388V226.3Z" fill="#839299"/>
<path d="M355.592 232.5H270.492V235H355.592V232.5Z" fill="#839299"/>
<path d="M367.39 238.7H312.09V241.2H367.39V238.7Z" fill="#839299"/>
<path d="M336.891 245H262.391V247.5H336.891V245Z" fill="#839299"/>
<path d="M367.291 220.1H280.391V222.6H367.291V220.1Z" fill="#839299"/>
<path d="M315.79 199H217.09V201.5H315.79V199Z" fill="#839299"/>
<path d="M272.39 205.2H217.09V207.7H272.39V205.2Z" fill="#839299"/>
<path d="M253.09 211.4H217.09V213.9H253.09V211.4Z" fill="#839299"/>
<path d="M312.69 226.3H217.09V228.8H312.69V226.3Z" fill="#839299"/>
<path d="M272.99 220.1H217.09V222.6H272.99V220.1Z" fill="#839299"/>
<path d="M331.99 175.4H260.59V177.9H331.99V175.4Z" fill="#839299"/>
<path d="M262.99 232.5H217.09V235H262.99V232.5Z" fill="#839299"/>
<path d="M304.69 238.7H217.09V241.2H304.69V238.7Z" fill="#839299"/>
<path d="M254.99 245H217.09V247.5H254.99V245Z" fill="#839299"/>
</g>
<path d="M297.191 212.5H124.691C119.191 212.5 114.691 208 114.691 202.5V85.9C114.691 80.4 119.191 75.9 124.691 75.9H297.191C302.691 75.9 307.191 80.4 307.191 85.9V202.5C307.191 208 302.691 212.5 297.191 212.5Z" fill="#002548"/>
<path d="M294.789 147.3H223.389C221.689 147.3 220.289 148.7 220.289 150.4V200.1C220.289 201.8 221.689 203.2 223.389 203.2H294.789C296.489 203.2 297.889 201.8 297.889 200.1V150.4C297.889 148.7 296.489 147.3 294.789 147.3ZM224.889 149.8H293.789L259.389 173.7L224.889 149.8ZM257.189 175.2L222.689 199.1V151.2L257.189 175.2ZM259.389 176.7L293.889 200.6H224.989L259.389 176.7ZM261.589 175.2L295.389 151.7V198.7L261.589 175.2Z" fill="#FFDD33"/>
<path d="M205.99 203.2H129.09C126.29 203.2 124.09 201 124.09 198.2V152.3C124.09 149.5 126.29 147.3 129.09 147.3H205.99C208.79 147.3 210.99 149.5 210.99 152.3V198.2C210.99 200.9 208.69 203.2 205.99 203.2Z" fill="#0054A6"/>
<path d="M154.891 157.5H130.191V159.1H154.891V157.5Z" fill="#D2D9DC"/>
<path d="M164.091 152.3H130.191V153.9H164.091V152.3Z" fill="#D2D9DC"/>
<path d="M195.592 157.5H158.992V159.1H195.592V157.5Z" fill="#D2D9DC"/>
<path d="M204.792 162.2H177.992V163.8H204.792V162.2Z" fill="#D2D9DC"/>
<path d="M204.789 166.9H162.789V168.5H204.789V166.9Z" fill="#D2D9DC"/>
<path d="M192.589 171.6H152.289V173.2H192.589V171.6Z" fill="#D2D9DC"/>
<path d="M204.791 152.3H168.191V153.9H204.791V152.3Z" fill="#D2D9DC"/>
<path d="M204.789 182.5H176.289V184.1H204.789V182.5Z" fill="#D2D9DC"/>
<path d="M198.291 187.2H157.691V188.8H198.291V187.2Z" fill="#D2D9DC"/>
<path d="M204.791 191.9H171.891V193.5H204.791V191.9Z" fill="#D2D9DC"/>
<path d="M188.189 196.6H153.289V198.2H188.189V196.6Z" fill="#D2D9DC"/>
<path d="M204.794 177.8H163.094V179.4H204.794V177.8Z" fill="#D2D9DC"/>
<path d="M173.891 162.2H130.191V163.8H173.891V162.2Z" fill="#D2D9DC"/>
<path d="M158.691 166.9H130.191V168.5H158.691V166.9Z" fill="#D2D9DC"/>
<path d="M148.191 171.6H130.191V173.2H148.191V171.6Z" fill="#D2D9DC"/>
<path d="M172.191 182.5H130.191V184.1H172.191V182.5Z" fill="#D2D9DC"/>
<path d="M158.991 177.8H130.191V179.4H158.991V177.8Z" fill="#D2D9DC"/>
<path d="M153.591 187.2H130.191V188.8H153.591V187.2Z" fill="#D2D9DC"/>
<path d="M167.791 191.9H130.191V193.5H167.791V191.9Z" fill="#D2D9DC"/>
<path d="M149.191 196.6H130.191V198.2H149.191V196.6Z" fill="#D2D9DC"/>
<path d="M51.1906 196.4H95.6906C99.3906 196.4 102.491 193.4 102.491 189.6V146C102.491 142.3 99.4906 139.2 95.6906 139.2H51.1906C47.4906 139.2 44.3906 142.2 44.3906 146V189.6C44.3906 193.4 47.3906 196.4 51.1906 196.4Z" fill="#0054A6"/>
<path d="M95.6906 202.5H51.7906C49.2906 202.5 47.3906 204.5 47.3906 206.9V216C47.3906 217.3 47.8906 218.5 48.6906 219.5L47.3906 225.5L54.8906 221.3H95.4906C97.6906 221.3 99.5906 219.5 99.5906 217.2V206.3C99.4906 204.2 97.7906 202.5 95.6906 202.5Z" fill="#0054A6"/>
<path d="M56.4922 210.3L55.3922 208.2L54.3922 210.3L51.9922 210.7L53.6922 212.4L53.2922 214.7L55.3922 213.6L57.5922 214.7L57.1922 212.4L58.8922 210.7L56.4922 210.3Z" fill="#FFDD33"/>
<path d="M65.4922 210.3L64.3922 208.2L63.3922 210.3L60.9922 210.7L62.6922 212.4L62.2922 214.7L64.3922 213.6L66.5922 214.7L66.1922 212.4L67.8922 210.7L65.4922 210.3Z" fill="#FFDD33"/>
<path d="M74.4922 210.3L73.3922 208.2L72.3922 210.3L69.9922 210.7L71.6922 212.4L71.2922 214.7L73.3922 213.6L75.5922 214.7L75.0922 212.4L76.8922 210.7L74.4922 210.3Z" fill="#FFDD33"/>
<path d="M83.4922 210.3L82.3922 208.2L81.2922 210.3L78.9922 210.7L80.6922 212.4L80.2922 214.7L82.3922 213.6L84.4922 214.7L84.0922 212.4L85.8922 210.7L83.4922 210.3Z" fill="#FFDD33"/>
<path d="M92.4906 210.3L91.3906 208.2L90.2906 210.3L87.8906 210.7L89.6906 212.4L89.2906 214.7L91.3906 213.6L93.4906 214.7L93.0906 212.4L94.7906 210.7L92.4906 210.3Z" fill="#FFDD33"/>
<path d="M77.7922 167.7H52.5922C51.9922 167.7 51.4922 167.2 51.4922 166.6C51.4922 166 51.9922 165.5 52.5922 165.5H77.7922C78.3922 165.5 78.8922 166 78.8922 166.6C78.8922 167.2 78.4922 167.7 77.7922 167.7Z" fill="#D2D9DC"/>
<path d="M77.7922 178.7H52.5922C51.9922 178.7 51.4922 178.2 51.4922 177.6C51.4922 177 51.9922 176.5 52.5922 176.5H77.7922C78.3922 176.5 78.8922 177 78.8922 177.6C78.8922 178.2 78.4922 178.7 77.7922 178.7Z" fill="#D2D9DC"/>
<path d="M77.7922 189.7H52.5922C51.9922 189.7 51.4922 189.2 51.4922 188.6C51.4922 188 51.9922 187.5 52.5922 187.5H77.7922C78.3922 187.5 78.8922 188 78.8922 188.6C78.8922 189.2 78.4922 189.7 77.7922 189.7Z" fill="#F9FAFB"/>
<path d="M88.3922 173.1H52.5922C51.9922 173.1 51.4922 172.6 51.4922 172C51.4922 171.4 51.9922 170.9 52.5922 170.9H88.3922C88.9922 170.9 89.4922 171.4 89.4922 172C89.4922 172.6 88.9922 173.1 88.3922 173.1Z" fill="#D2D9DC"/>
<path d="M92.6922 161.8H54.0922C51.8922 161.8 49.9922 160 49.9922 157.7V149C49.9922 146.8 51.7922 144.9 54.0922 144.9H92.6922C94.8922 144.9 96.7922 146.7 96.7922 149V157.7C96.7922 160 94.9922 161.8 92.6922 161.8ZM54.0922 145.8C52.2922 145.8 50.8922 147.2 50.8922 149V157.7C50.8922 159.5 52.2922 160.9 54.0922 160.9H92.6922C94.4922 160.9 95.8922 159.5 95.8922 157.7V149C95.8922 147.2 94.4922 145.8 92.6922 145.8H54.0922Z" fill="#F9FAFB"/>
<path d="M292.889 138H225.289C222.489 138 220.289 135.8 220.289 133V90.1998C220.289 87.3998 222.489 85.1998 225.289 85.1998H292.889C295.689 85.1998 297.889 87.3998 297.889 90.1998V133C297.889 135.7 295.589 138 292.889 138Z" fill="#D2D9DC"/>
<path d="M276.192 111.6C276.192 121 268.592 128.7 259.092 128.7C249.692 128.7 241.992 121.1 241.992 111.6C241.992 102.2 249.592 94.5001 259.092 94.5001C268.492 94.5001 276.192 102.2 276.192 111.6Z" fill="#ED1C24"/>
<path d="M253.789 119.2V103.9C253.789 102.6 255.289 101.8 256.389 102.5L267.289 110.2C268.189 110.9 268.189 112.3 267.289 112.9L256.389 120.6C255.289 121.4 253.789 120.6 253.789 119.2Z" fill="#F9FAFB"/>
<path d="M207.891 85.2H167.491C165.791 85.2 164.391 86.6 164.391 88.3V134.9C164.391 136.6 165.791 138 167.491 138H207.891C209.591 138 210.991 136.6 210.991 134.9V88.3C210.991 86.6 209.591 85.2 207.891 85.2ZM166.891 89.6L186.091 111.6L166.891 133.6V89.6ZM168.491 87.7H206.791L187.591 109.7L168.491 87.7ZM187.691 113.5L206.891 135.5H168.591L187.691 113.5ZM189.291 111.6L208.491 89.6V133.6L189.291 111.6Z" fill="#FFDD33"/>
<path d="M150.09 138H129.09C126.29 138 124.09 135.8 124.09 133V90.2C124.09 87.4 126.29 85.2 129.09 85.2H150.09C152.89 85.2 155.09 87.4 155.09 90.2V133C155.09 135.7 152.79 138 150.09 138Z" fill="#D2D9DC"/>
<path d="M139.489 111.9C145.675 111.9 150.689 106.886 150.689 100.7C150.689 94.5145 145.675 89.5001 139.489 89.5001C133.303 89.5001 128.289 94.5145 128.289 100.7C128.289 106.886 133.303 111.9 139.489 111.9Z" fill="#0054A6"/>
<path d="M129.992 100.7C129.992 106 134.292 110.3 139.592 110.3C144.892 110.3 149.192 106 149.192 100.7C149.192 95.4002 144.892 91.1002 139.592 91.1002C134.292 91.1002 129.992 95.4002 129.992 100.7Z" fill="#839299"/>
<path d="M138.792 115.3L128.792 115.4C128.592 115.4 128.292 115.6 128.292 115.9C128.192 116.1 128.392 116.3 128.592 116.3L138.592 116.2C138.792 116.2 139.092 116 139.192 115.7C139.092 115.5 138.992 115.3 138.792 115.3Z" fill="#839299"/>
<path d="M150.59 115.3H140.99C140.79 115.3 140.49 115.5 140.39 115.8C140.29 116.1 140.49 116.3 140.69 116.3H150.29C150.49 116.3 150.79 116.1 150.89 115.8C150.99 115.5 150.89 115.3 150.59 115.3Z" fill="#839299"/>
<path d="M142.591 118.9H128.691C128.491 118.9 128.191 119.1 128.191 119.4C128.091 119.7 128.291 119.9 128.491 119.9H142.391C142.591 119.9 142.891 119.7 142.991 119.4C142.991 119.1 142.791 118.9 142.591 118.9Z" fill="#839299"/>
<path d="M150.49 118.8L144.99 118.9C144.79 118.9 144.49 119.1 144.39 119.4C144.29 119.7 144.49 119.9 144.69 119.9L150.19 119.8C150.39 119.8 150.69 119.6 150.79 119.3C150.89 119 150.79 118.8 150.49 118.8Z" fill="#839299"/>
<path d="M135.391 122.2H128.691C128.491 122.2 128.191 122.4 128.191 122.7C128.091 123 128.291 123.2 128.491 123.2H135.191C135.391 123.2 135.691 123 135.791 122.7C135.791 122.4 135.591 122.2 135.391 122.2Z" fill="#839299"/>
<path d="M147.39 122.1H137.99C137.79 122.1 137.49 122.3 137.39 122.6C137.29 122.9 137.49 123.1 137.69 123.1H147.09C147.29 123.1 147.59 122.9 147.69 122.6C147.69 122.3 147.59 122.1 147.39 122.1Z" fill="#839299"/>
<path d="M150.492 129.1H137.392C137.192 129.1 136.892 129.3 136.792 129.6C136.692 129.9 136.892 130.1 137.092 130.1H150.192C150.392 130.1 150.692 129.9 150.792 129.6C150.892 129.3 150.792 129.1 150.492 129.1Z" fill="#839299"/>
<path d="M150.489 125.4H143.189C142.989 125.4 142.689 125.6 142.589 125.9C142.489 126.2 142.689 126.4 142.889 126.4H150.189C150.389 126.4 150.689 126.2 150.789 125.9C150.889 125.6 150.789 125.4 150.489 125.4Z" fill="#839299"/>
<path d="M134.791 129.1L128.791 129.2C128.591 129.2 128.291 129.4 128.191 129.7C128.091 130 128.291 130.2 128.491 130.2L134.491 130.1C134.691 130.1 134.991 129.9 135.091 129.6C135.191 129.3 135.091 129.1 134.791 129.1Z" fill="#839299"/>
<path d="M140.892 125.4H128.792C128.592 125.4 128.292 125.6 128.292 125.9C128.192 126.1 128.392 126.4 128.592 126.4H140.692C140.892 126.4 141.192 126.2 141.292 125.9C141.292 125.6 141.192 125.4 140.892 125.4Z" fill="#839299"/>
<path d="M146.792 132.9H141.392C141.192 132.9 140.892 133.1 140.792 133.4C140.692 133.7 140.892 133.9 141.092 133.9H146.492C146.692 133.9 146.992 133.7 147.092 133.4C147.192 133.1 146.992 132.9 146.792 132.9Z" fill="#839299"/>
<path d="M139.09 132.9H128.89C128.69 132.9 128.39 133.1 128.39 133.4C128.29 133.6 128.49 133.9 128.69 133.9H138.89C139.09 133.9 139.39 133.7 139.49 133.4C139.39 133.1 139.29 132.9 139.09 132.9Z" fill="#839299"/>
</svg>
