<svg width="420" height="280" viewBox="0 0 420 280" fill="none" xmlns="http://www.w3.org/2000/svg">
<g clip-path="url(#clip0_18062_8761)">
<path opacity="0.1" d="M75.6008 251.754C59.8211 241.604 42.8341 229.864 37.9262 211.756C35.3099 202.103 38.8138 189.058 48.69 187.478C57.9882 185.991 67.5329 195.665 75.9665 191.477C85.5425 186.721 85.2356 174.48 82.5717 165.838C80.7007 159.769 78.2305 153.884 75.2088 148.297C70.7439 140.043 65.0958 132.465 60.7709 124.136C56.446 115.807 53.4466 106.364 54.8774 97.0894C56.3082 87.8141 63.0881 78.9353 72.3365 77.3421C83.2134 75.4684 93.135 83.5458 100.62 91.6568C106.869 98.4272 114.217 107.98 123.752 110.093C133.445 112.242 142.128 102.171 145.609 94.0424C149.972 83.8566 149.837 72.3906 152.268 61.7069C155.004 49.6832 159.233 32.9453 169.29 25.1154C177.786 18.5018 185.196 14.8064 196.416 16.8481C212.753 19.8206 217.503 36.7802 220.239 50.8956C222.643 63.2951 223.221 78.0595 233.085 87.3958C236.202 90.3453 240.34 91.9587 244.469 93.1263C263.234 98.434 280.093 78.8373 292.766 67.5511C297.598 63.2486 302.429 58.9461 307.26 54.6436C317.43 45.5868 325.648 33.3032 340.154 30.7798C347.935 29.4263 357.125 33.2875 359.239 40.9001C362.354 52.1304 355.33 62.2451 347.852 69.9216C339.526 78.4694 331.754 87.0637 325.06 97.0401C322.155 101.369 319.349 106.767 321.417 111.553C322.615 114.327 325.289 116.246 328.145 117.233C335.071 119.626 339.219 118.12 345.804 116.35C351.222 114.894 356.559 114.535 360.685 119.039C374.488 134.105 344.696 151.012 336.558 159.26C333.012 162.854 329.235 166.968 329.122 172.015C328.932 180.529 339.515 185.561 347.899 184.06C360.296 181.84 368.975 171.375 381.959 177.863C391.51 182.637 391.598 196.772 388.59 205.576C386.056 212.993 381.18 219.375 375.946 225.208C362.725 239.943 346.813 252.011 330.442 263.142" fill="#839299"/>
<path d="M313.3 193.1C313.2 193.1 313.1 193.1 313.1 193C313 192.9 313.1 192.8 313.2 192.7C314 192.3 314.8 191.9 315.6 191.5C315.7 191.4 315.8 191.5 315.9 191.6C316 191.7 315.9 191.8 315.8 191.9C315.1 192.2 314.3 192.7 313.3 193.1C313.4 193.1 313.4 193.1 313.3 193.1ZM318.1 190.4C318 190.4 318 190.4 317.9 190.3C317.8 190.2 317.9 190.1 318 190C318.8 189.5 319.5 189 320.3 188.5C320.4 188.4 320.5 188.5 320.6 188.6C320.7 188.7 320.6 188.8 320.5 188.9C319.8 189.4 319 189.9 318.2 190.4H318.1ZM322.5 187.3C322.4 187.3 322.4 187.3 322.3 187.2C322.2 187.1 322.2 187 322.3 186.9C323 186.3 323.7 185.8 324.4 185.2C324.5 185.1 324.6 185.1 324.7 185.2C324.8 185.3 324.8 185.4 324.7 185.5C324 186.1 323.3 186.7 322.6 187.3C322.6 187.3 322.6 187.3 322.5 187.3ZM326.6 183.7C326.5 183.7 326.5 183.7 326.4 183.6C326.3 183.5 326.3 183.4 326.4 183.3C327 182.7 327.7 182 328.3 181.3C328.4 181.2 328.5 181.2 328.6 181.3C328.7 181.4 328.7 181.5 328.6 181.6C328 182.3 327.4 182.9 326.7 183.6C326.7 183.7 326.7 183.7 326.6 183.7ZM330.2 179.7C330.1 179.7 330.1 179.7 330.1 179.6C330 179.5 330 179.4 330.1 179.3C330.7 178.6 331.2 177.9 331.7 177.1C331.8 177 331.9 177 332 177C332.1 177.1 332.1 177.2 332.1 177.3C331.6 178 331 178.8 330.4 179.5C330.4 179.6 330.3 179.7 330.2 179.7ZM333.4 175.3H333.3C333.2 175.2 333.2 175.1 333.2 175C333.7 174.2 334.2 173.5 334.6 172.7C334.7 172.6 334.8 172.6 334.9 172.6C335 172.7 335 172.8 335 172.9C334.6 173.7 334.1 174.5 333.6 175.2C333.6 175.2 333.5 175.3 333.4 175.3ZM336.1 170.5C335.9 170.4 335.8 170.3 335.9 170.2C336.3 169.4 336.7 168.6 337 167.7C337 167.6 337.2 167.5 337.3 167.6C337.4 167.6 337.5 167.8 337.4 167.9C337 168.7 336.7 169.6 336.3 170.4C336.3 170.5 336.2 170.5 336.1 170.5ZM338.2 165.5C338 165.4 337.9 165.3 338 165.2C338.3 164.4 338.6 163.5 338.8 162.6C338.8 162.5 339 162.4 339.1 162.4C339.2 162.4 339.3 162.6 339.3 162.7C339 163.6 338.8 164.5 338.5 165.3C338.4 165.4 338.3 165.5 338.2 165.5ZM339.7 160.3C339.5 160.3 339.5 160.1 339.5 160C339.7 159.1 339.9 158.2 340 157.3C340 157.2 340.1 157.1 340.3 157.1C340.4 157.1 340.5 157.2 340.5 157.4C340.3 158.3 340.2 159.2 340 160.1C339.9 160.2 339.8 160.3 339.7 160.3ZM97.3 157.3C96.4 157.3 95.5 157.3 94.6 157.3C94.5 157.3 94.4 157.2 94.4 157.1C94.4 157 94.5 156.9 94.6 156.9C95.5 156.9 96.4 156.9 97.3 156.9C97.4 156.9 97.5 157 97.5 157.1C97.6 157.2 97.5 157.3 97.3 157.3ZM100.1 157.3C100 157.3 99.9 157.2 99.9 157.1C99.9 157 100 156.9 100.1 156.9C101 156.9 101.9 156.9 102.8 156.8C102.9 156.8 103 156.9 103 157C103 157.1 102.9 157.2 102.8 157.2C101.9 157.2 101 157.2 100.1 157.3ZM91.9 157.2C91 157.2 90.1 157.1 89.2 157.1C89.1 157.1 89 157 89 156.9C89 156.8 89.1 156.7 89.2 156.7C90.1 156.7 91 156.8 91.9 156.8C92 156.8 92.1 156.9 92.1 157C92.1 157.1 92 157.2 91.9 157.2ZM105.5 157.1C105.4 157.1 105.3 157 105.3 156.9C105.3 156.8 105.4 156.7 105.5 156.7C106.4 156.7 107.3 156.6 108.2 156.6C108.3 156.6 108.4 156.7 108.4 156.8C108.4 156.9 108.3 157 108.2 157C107.3 157 106.4 157.1 105.5 157.1ZM86.5 156.9C85.6 156.8 84.7 156.8 83.8 156.7C83.7 156.7 83.6 156.6 83.6 156.5C83.6 156.4 83.7 156.3 83.8 156.3C84.7 156.4 85.6 156.5 86.5 156.5C86.6 156.5 86.7 156.6 86.7 156.7C86.7 156.8 86.6 156.9 86.5 156.9ZM110.9 156.8C110.8 156.8 110.7 156.7 110.7 156.6C110.7 156.5 110.8 156.4 110.9 156.4C111.8 156.3 112.7 156.3 113.6 156.2C113.7 156.2 113.8 156.3 113.8 156.4C113.8 156.5 113.7 156.6 113.6 156.6C112.8 156.7 111.9 156.7 110.9 156.8ZM81 156.4C80.1 156.3 79.2 156.2 78.3 156.1C78.2 156.1 78.1 156 78.1 155.8C78.1 155.7 78.2 155.6 78.4 155.6C79.3 155.7 80.2 155.8 81.1 155.9C81.2 155.9 81.3 156 81.3 156.1C81.2 156.3 81.2 156.4 81 156.4ZM116.4 156.3C116.3 156.3 116.2 156.2 116.2 156.1C116.2 156 116.3 155.9 116.4 155.9C117.3 155.8 118.2 155.7 119.1 155.6C119.2 155.6 119.3 155.7 119.4 155.8C119.5 155.9 119.3 156 119.2 156.1C118.2 156.2 117.3 156.3 116.4 156.3ZM121.8 155.7C121.7 155.7 121.6 155.6 121.6 155.5C121.6 155.4 121.7 155.3 121.8 155.2C122.7 155.1 123.6 155 124.5 154.9C124.6 154.9 124.7 155 124.8 155.1C124.8 155.2 124.7 155.3 124.6 155.4C123.6 155.5 122.7 155.6 121.8 155.7ZM75.6 155.7C74.7 155.6 73.8 155.4 72.9 155.3C72.8 155.3 72.7 155.2 72.7 155C72.7 154.9 72.8 154.8 73 154.8C73.9 155 74.8 155.1 75.7 155.2C75.8 155.2 75.9 155.3 75.9 155.5C75.8 155.6 75.7 155.7 75.6 155.7ZM127.2 155C127.1 155 127 154.9 127 154.8C127 154.7 127.1 154.6 127.2 154.5C128.1 154.4 129 154.2 129.9 154.1C130 154.1 130.1 154.2 130.2 154.3C130.2 154.4 130.1 154.5 130 154.6C129 154.7 128.1 154.9 127.2 155ZM340.6 154.9C340.4 154.9 340.4 154.8 340.4 154.6C340.5 153.7 340.6 152.8 340.7 151.9C340.7 151.8 340.8 151.7 340.9 151.7C341 151.7 341.1 151.8 341.1 151.9C341 152.8 341 153.7 340.8 154.6C340.8 154.8 340.7 154.9 340.6 154.9ZM70.3 154.8C69.4 154.6 68.5 154.4 67.6 154.3C67.5 154.3 67.4 154.2 67.4 154C67.4 153.9 67.5 153.8 67.7 153.8C68.6 154 69.5 154.2 70.4 154.3C70.5 154.3 70.6 154.4 70.6 154.6C70.5 154.7 70.4 154.8 70.3 154.8ZM132.5 154.2C132.4 154.2 132.3 154.1 132.3 154C132.3 153.9 132.4 153.8 132.5 153.7C133.4 153.5 134.3 153.4 135.2 153.2C135.3 153.2 135.4 153.3 135.5 153.4C135.5 153.5 135.4 153.6 135.3 153.7C134.4 153.9 133.5 154 132.5 154.2C132.6 154.2 132.6 154.2 132.5 154.2ZM65 153.6C64.9 153.6 64.9 153.6 65 153.6C64.1 153.4 63.2 153.2 62.3 152.9C62.2 152.9 62.1 152.7 62.1 152.6C62.1 152.5 62.3 152.4 62.4 152.4C63.3 152.6 64.2 152.8 65 153.1C65.1 153.1 65.2 153.3 65.2 153.4C65.1 153.6 65.1 153.6 65 153.6ZM137.9 153.2C137.8 153.2 137.7 153.1 137.7 153C137.7 152.9 137.8 152.8 137.9 152.7C138.8 152.5 139.7 152.4 140.6 152.2C140.7 152.2 140.8 152.3 140.9 152.4C140.9 152.5 140.8 152.6 140.7 152.7C139.7 152.9 138.8 153 137.9 153.2ZM59.7 152.3C58.8 152 57.9 151.8 57 151.5C56.9 151.5 56.8 151.3 56.8 151.2C56.8 151.1 57 151 57.1 151C58 151.3 58.8 151.5 59.7 151.8C59.8 151.8 59.9 152 59.9 152.1C59.9 152.2 59.8 152.3 59.7 152.3ZM143.2 152.1C143.1 152.1 143 152 143 151.9C143 151.8 143.1 151.7 143.2 151.6C144.1 151.4 145 151.2 145.9 151C146 151 146.1 151.1 146.2 151.2C146.2 151.3 146.1 151.4 146 151.5C145.1 151.8 144.2 151.9 143.2 152.1ZM148.5 151C148.4 151 148.3 150.9 148.3 150.8C148.3 150.7 148.3 150.6 148.5 150.5C149.4 150.3 150.3 150.1 151.1 149.9C151.2 149.9 151.3 149.9 151.4 150.1C151.4 150.2 151.4 150.3 151.2 150.4C150.4 150.6 149.5 150.8 148.5 151C148.6 151 148.6 151 148.5 151ZM54.5 150.7C53.6 150.4 52.7 150.1 51.9 149.8C51.8 149.8 51.7 149.6 51.8 149.5C51.8 149.4 52 149.3 52.1 149.4C52.9 149.7 53.8 150 54.7 150.3C54.8 150.3 54.9 150.5 54.8 150.6C54.7 150.6 54.6 150.7 54.5 150.7ZM153.8 149.7C153.7 149.7 153.6 149.6 153.6 149.5C153.6 149.4 153.6 149.3 153.8 149.2C154.7 149 155.6 148.8 156.4 148.5C156.5 148.5 156.6 148.5 156.7 148.7C156.7 148.8 156.7 148.9 156.5 149C155.7 149.3 154.8 149.5 153.8 149.7C153.9 149.7 153.9 149.7 153.8 149.7ZM341 149.5C340.9 149.5 340.8 149.4 340.8 149.3C340.8 148.9 340.8 148.6 340.8 148.2C340.8 147.7 340.8 147.1 340.8 146.6C340.8 146.5 340.9 146.4 341 146.4C341.1 146.4 341.2 146.5 341.2 146.6C341.2 147.1 341.2 147.7 341.2 148.2C341.2 148.6 341.2 148.9 341.2 149.3C341.2 149.4 341.1 149.5 341 149.5ZM49.4 148.8C49.3 148.8 49.3 148.8 49.4 148.8C48.5 148.5 47.6 148.1 46.8 147.8C46.7 147.8 46.6 147.6 46.7 147.5C46.7 147.4 46.9 147.3 47 147.4C47.8 147.7 48.7 148.1 49.5 148.4C49.6 148.4 49.7 148.6 49.6 148.7C49.5 148.8 49.5 148.8 49.4 148.8ZM159.1 148.4C159 148.4 158.9 148.3 158.9 148.2C158.9 148.1 158.9 148 159.1 147.9C160 147.7 160.9 147.4 161.7 147.2C161.8 147.2 161.9 147.2 162 147.4C162 147.5 162 147.6 161.8 147.7C160.9 147.9 160.1 148.1 159.1 148.4ZM164.4 147C164.3 147 164.2 146.9 164.2 146.8C164.2 146.7 164.2 146.6 164.4 146.5C165.3 146.3 166.1 146 167 145.8C167.1 145.8 167.2 145.8 167.3 146C167.3 146.1 167.3 146.2 167.1 146.3C166.2 146.5 165.3 146.7 164.4 147ZM44.3 146.8C43.4 146.4 42.5 146 41.7 145.6C41.6 145.5 41.5 145.4 41.6 145.3C41.7 145.2 41.8 145.1 41.9 145.2C42.7 145.6 43.5 146 44.4 146.3C44.5 146.4 44.6 146.5 44.5 146.6C44.5 146.7 44.4 146.8 44.3 146.8ZM169.6 145.5C169.5 145.5 169.4 145.4 169.4 145.3C169.4 145.2 169.4 145.1 169.6 145C170.5 144.7 171.3 144.5 172.2 144.2C172.3 144.2 172.4 144.2 172.5 144.3C172.5 144.4 172.5 144.5 172.4 144.6C171.4 144.9 170.5 145.2 169.6 145.5ZM39.4 144.5H39.3C38.8 144.2 38.2 144 37.7 143.7C37.6 143.6 37.5 143.5 37.6 143.4C37.7 143.3 37.8 143.2 37.9 143.3C38.4 143.6 39 143.9 39.5 144.1C39.6 144.2 39.7 144.3 39.6 144.4C39.6 144.4 39.5 144.5 39.4 144.5ZM340.9 144C340.8 144 340.7 143.9 340.7 143.8C340.6 142.9 340.5 142 340.4 141.1C340.4 141 340.5 140.9 340.6 140.8C340.7 140.8 340.8 140.9 340.9 141C341 141.9 341.1 142.8 341.2 143.7C341.1 143.9 341 144 340.9 144ZM174.8 143.9C174.7 143.9 174.6 143.8 174.6 143.7C174.6 143.6 174.6 143.5 174.7 143.4C175.6 143.1 176.4 142.8 177.3 142.5C177.4 142.5 177.5 142.5 177.6 142.6C177.6 142.7 177.6 142.8 177.5 142.9C176.6 143.3 175.7 143.6 174.8 143.9ZM180 142.1C179.9 142.1 179.8 142 179.8 141.9C179.8 141.8 179.8 141.7 179.9 141.6C180.8 141.3 181.6 141 182.4 140.7C182.5 140.7 182.6 140.7 182.7 140.8C182.7 140.9 182.7 141 182.6 141.1C181.7 141.5 180.9 141.8 180 142.1ZM185 140.2C184.9 140.2 184.8 140.1 184.8 140.1C184.8 140 184.8 139.9 184.9 139.8C185.7 139.5 186.6 139.1 187.4 138.8C187.5 138.8 187.6 138.8 187.7 138.9C187.7 139 187.7 139.1 187.6 139.2C186.8 139.5 186 139.8 185 140.2C185.1 140.2 185.1 140.2 185 140.2ZM340.2 138.6C340.1 138.6 340 138.5 340 138.4C339.9 137.5 339.7 136.6 339.5 135.7C339.5 135.6 339.6 135.5 339.7 135.4C339.8 135.4 339.9 135.5 340 135.6C340.2 136.5 340.4 137.4 340.5 138.3C340.4 138.5 340.4 138.6 340.2 138.6ZM190 138C189.9 138 189.8 138 189.8 137.9C189.7 137.8 189.8 137.7 189.9 137.6C190.7 137.2 191.6 136.8 192.4 136.4C192.5 136.3 192.6 136.4 192.7 136.5C192.8 136.6 192.7 136.7 192.6 136.8C191.8 137.2 191 137.6 190 138C190.1 138 190.1 138 190 138ZM194.9 135.6C194.8 135.6 194.7 135.6 194.7 135.5C194.6 135.4 194.7 135.3 194.8 135.2C195.6 134.8 196.4 134.3 197.2 133.9C197.3 133.8 197.4 133.9 197.5 134C197.6 134.1 197.5 134.2 197.4 134.3C196.6 134.7 195.8 135.2 195 135.6H194.9ZM339 133.3C338.9 133.3 338.8 133.2 338.8 133.1C338.6 132.2 338.3 131.4 338.1 130.5C338.1 130.4 338.1 130.3 338.2 130.2C338.3 130.2 338.4 130.2 338.5 130.3C338.8 131.2 339 132.1 339.3 132.9C339.3 133.2 339.2 133.3 339 133.3C339.1 133.3 339.1 133.3 339 133.3ZM199.6 132.9C199.5 132.9 199.4 132.9 199.4 132.8C199.3 132.7 199.4 132.6 199.5 132.5C200.3 132 201 131.6 201.8 131.1C201.9 131 202 131.1 202.1 131.2C202.2 131.3 202.1 131.4 202 131.5C201.2 132 200.4 132.5 199.7 133C199.7 132.9 199.7 132.9 199.6 132.9ZM204.2 130C204.1 130 204.1 130 204 129.9C203.9 129.8 204 129.7 204.1 129.6C204.8 129.1 205.6 128.6 206.3 128C206.4 127.9 206.5 128 206.6 128.1C206.7 128.2 206.6 128.3 206.5 128.4C205.8 128.9 205 129.5 204.3 130C204.3 130 204.3 130 204.2 130ZM337.4 128.1C337.3 128.1 337.2 128 337.2 128C336.9 127.1 336.6 126.3 336.2 125.5C336.2 125.4 336.2 125.3 336.3 125.2C336.4 125.2 336.5 125.2 336.6 125.3C336.9 126.1 337.3 127 337.6 127.8C337.7 127.9 337.6 128.1 337.4 128.1ZM208.6 126.8C208.5 126.8 208.5 126.8 208.4 126.7C208.3 126.6 208.3 126.5 208.4 126.4C209.1 125.9 209.8 125.3 210.6 124.8C210.7 124.7 210.8 124.7 210.9 124.8C211 124.9 211 125 210.9 125.1C210.2 125.7 209.5 126.2 208.7 126.7C208.7 126.8 208.7 126.8 208.6 126.8ZM212.9 123.5C212.8 123.5 212.8 123.5 212.7 123.4C212.6 123.3 212.6 123.2 212.7 123.1C213.4 122.5 214.1 122 214.8 121.4C214.9 121.3 215 121.3 215.1 121.4C215.2 121.5 215.2 121.6 215.1 121.7C214.4 122.3 213.7 122.8 213 123.4C213 123.5 213 123.5 212.9 123.5ZM335.3 123.1C335.2 123.1 335.1 123.1 335.1 123C334.7 122.2 334.3 121.4 333.9 120.6C333.8 120.5 333.9 120.4 334 120.3C334.1 120.2 334.2 120.3 334.3 120.4C334.7 121.2 335.1 122 335.5 122.8C335.6 122.9 335.5 123 335.3 123.1C335.4 123.1 335.4 123.1 335.3 123.1ZM217.2 120.1C217.1 120.1 217.1 120.1 217 120C216.9 119.9 216.9 119.8 217 119.7L219.1 118C219.2 117.9 219.3 117.9 219.4 118C219.5 118.1 219.5 118.2 219.4 118.3L217.3 120C217.3 120.1 217.2 120.1 217.2 120.1ZM332.8 118.3C332.7 118.3 332.6 118.3 332.6 118.2C332.1 117.4 331.7 116.7 331.2 115.9C331.1 115.8 331.2 115.7 331.3 115.6C331.4 115.5 331.5 115.6 331.6 115.7C332.1 116.5 332.6 117.2 333.1 118C333.2 118.1 333.1 118.2 333 118.3C332.9 118.3 332.8 118.3 332.8 118.3ZM221.4 116.7C221.3 116.7 221.3 116.7 221.2 116.6C221.1 116.5 221.1 116.4 221.2 116.3C221.9 115.7 222.6 115.2 223.3 114.6C223.4 114.5 223.5 114.5 223.6 114.6C223.7 114.7 223.7 114.8 223.6 114.9C222.9 115.5 222.2 116 221.5 116.6C221.5 116.6 221.5 116.7 221.4 116.7ZM329.8 113.8C329.7 113.8 329.7 113.8 329.6 113.7C329.5 113.6 329.4 113.4 329.3 113.3C328.9 112.7 328.4 112.1 327.9 111.5C327.8 111.4 327.8 111.3 327.9 111.2C328 111.1 328.1 111.1 328.2 111.2C328.7 111.8 329.1 112.4 329.6 113C329.7 113.1 329.8 113.3 329.9 113.4C330 113.5 330 113.6 329.9 113.7C329.8 113.8 329.8 113.8 329.8 113.8ZM225.7 113.3C225.6 113.3 225.6 113.3 225.5 113.2C225.4 113.1 225.4 113 225.5 112.9C226.2 112.3 226.9 111.8 227.6 111.2C227.7 111.1 227.8 111.1 227.9 111.2C228 111.3 228 111.4 227.9 111.5C227.2 112.1 226.5 112.6 225.8 113.2L225.7 113.3ZM230 109.9C229.9 109.9 229.9 109.9 229.8 109.8C229.7 109.7 229.7 109.6 229.8 109.5C230.5 109 231.3 108.4 232 107.9C232.1 107.8 232.2 107.9 232.3 108C232.4 108.1 232.3 108.2 232.2 108.3C231.5 108.8 230.7 109.4 230 109.9ZM326.3 109.6C326.2 109.6 326.2 109.6 326.1 109.5C325.5 108.8 324.9 108.2 324.2 107.5C324.1 107.4 324.1 107.3 324.2 107.2C324.3 107.1 324.4 107.1 324.5 107.2C325.1 107.8 325.8 108.5 326.4 109.2C326.5 109.3 326.5 109.4 326.4 109.5C326.4 109.6 326.3 109.6 326.3 109.6ZM234.4 106.8C234.3 106.8 234.3 106.8 234.2 106.7C234.1 106.6 234.2 106.5 234.3 106.4C235.1 105.9 235.8 105.4 236.6 104.9C236.7 104.8 236.8 104.9 236.9 105C237 105.1 236.9 105.2 236.8 105.3C236 105.8 235.3 106.3 234.5 106.8C234.5 106.8 234.5 106.8 234.4 106.8ZM322.4 105.7C322.3 105.7 322.3 105.7 322.2 105.6C321.5 105 320.8 104.4 320.1 103.8C320 103.7 320 103.6 320.1 103.5C320.2 103.4 320.3 103.4 320.4 103.5C321.1 104.1 321.8 104.7 322.5 105.3C322.6 105.4 322.6 105.5 322.5 105.6C322.6 105.7 322.5 105.7 322.4 105.7ZM239 103.8C238.9 103.8 238.8 103.8 238.8 103.7C238.7 103.6 238.8 103.5 238.9 103.4C239.7 102.9 240.5 102.5 241.2 102C241.3 101.9 241.4 102 241.5 102.1C241.6 102.2 241.5 102.3 241.4 102.4C240.6 102.9 239.8 103.3 239.1 103.8H239ZM318.2 102.3H318.1C317.4 101.8 316.6 101.2 315.9 100.7C315.8 100.6 315.8 100.5 315.8 100.4C315.9 100.3 316 100.3 316.1 100.3C316.9 100.8 317.6 101.3 318.3 101.9C318.4 102 318.4 102.1 318.3 102.2C318.4 102.3 318.3 102.3 318.2 102.3ZM243.7 101.1C243.6 101.1 243.5 101.1 243.5 101C243.4 100.9 243.5 100.8 243.6 100.7C244.4 100.3 245.2 99.7996 246 99.3996C246.1 99.2996 246.2 99.3996 246.3 99.4996C246.4 99.5996 246.3 99.6996 246.2 99.7996C245.4 100.2 244.6 100.6 243.8 101.1H243.7ZM313.7 99.2996H313.6C312.8 98.7996 312 98.3996 311.2 97.8996C311.1 97.7996 311 97.6996 311.1 97.5996C311.2 97.4996 311.3 97.3996 311.4 97.4996C312.2 97.8996 313 98.3996 313.8 98.8996C313.9 98.9996 313.9 99.0996 313.9 99.1996C313.9 99.1996 313.8 99.2996 313.7 99.2996ZM248.5 98.5996C248.4 98.5996 248.3 98.5996 248.3 98.4996C248.2 98.3996 248.3 98.2996 248.4 98.1996C249.2 97.7996 250.1 97.3996 250.9 97.0996C251 96.9996 251.1 97.0996 251.2 97.1996C251.3 97.2996 251.2 97.3996 251.1 97.4996C250.3 97.7996 249.4 98.1996 248.5 98.5996C248.6 98.5996 248.6 98.5996 248.5 98.5996ZM308.9 96.6996C308 96.2996 307.2 95.8996 306.3 95.4996C306.2 95.4996 306.1 95.2996 306.2 95.1996C306.2 95.0996 306.4 94.9996 306.5 95.0996C307.3 95.4996 308.2 95.7996 309 96.1996C309.1 96.2996 309.2 96.3996 309.1 96.4996C309.1 96.5996 309 96.6996 308.9 96.6996ZM253.5 96.3996C253.4 96.3996 253.3 96.2996 253.3 96.2996C253.3 96.1996 253.3 96.0996 253.4 95.9996C254.2 95.6996 255.1 95.2996 255.9 94.9996C256 94.9996 256.1 94.9996 256.2 95.0996C256.2 95.1996 256.2 95.2996 256.1 95.3996C255.3 95.6996 254.4 96.0996 253.5 96.3996ZM258.6 94.4996C258.5 94.4996 258.4 94.3996 258.4 94.2996C258.4 94.1996 258.4 94.0996 258.5 93.9996C259.4 93.6996 260.2 93.3996 261.1 93.1996C261.2 93.1996 261.3 93.1996 261.4 93.3996C261.4 93.4996 261.4 93.5996 261.2 93.6996C260.4 93.8996 259.5 94.1996 258.6 94.4996ZM303.9 94.4996C303 94.1996 302.1 93.8996 301.3 93.5996C301.2 93.5996 301.1 93.3996 301.2 93.2996C301.2 93.1996 301.4 93.0996 301.5 93.1996C302.4 93.4996 303.2 93.7996 304.1 94.0996C304.2 94.0996 304.3 94.2996 304.2 94.3996C304.1 94.3996 304 94.4996 303.9 94.4996ZM263.8 92.8996C263.7 92.8996 263.6 92.7996 263.6 92.6996C263.6 92.5996 263.6 92.4996 263.8 92.3996C264.7 92.1996 265.6 91.8996 266.4 91.6996C266.5 91.6996 266.6 91.6996 266.7 91.8996C266.7 91.9996 266.7 92.0996 266.5 92.1996C265.6 92.4996 264.8 92.6996 263.8 92.8996ZM298.8 92.7996C298.7 92.7996 298.7 92.7996 298.8 92.7996C297.9 92.4996 297 92.2996 296.1 92.0996C296 92.0996 295.9 91.8996 295.9 91.7996C295.9 91.6996 296.1 91.5996 296.2 91.5996C297.1 91.7996 298 91.9996 298.8 92.2996C298.9 92.2996 299 92.4996 299 92.5996C299 92.6996 298.9 92.7996 298.8 92.7996ZM269.1 91.6996C269 91.6996 268.9 91.5996 268.9 91.4996C268.9 91.3996 269 91.2996 269.1 91.1996C270 90.9996 270.9 90.8996 271.8 90.6996C271.9 90.6996 272 90.7996 272.1 90.8996C272.1 90.9996 272 91.0996 271.9 91.1996C271 91.3996 270.1 91.5996 269.1 91.6996ZM293.5 91.5996C292.6 91.3996 291.7 91.2996 290.8 91.1996C290.7 91.1996 290.6 91.0996 290.6 90.8996C290.6 90.7996 290.7 90.6996 290.9 90.6996C291.8 90.7996 292.7 90.9996 293.6 91.0996C293.7 91.0996 293.8 91.1996 293.8 91.3996C293.7 91.4996 293.6 91.5996 293.5 91.5996ZM274.5 90.8996C274.4 90.8996 274.3 90.7996 274.3 90.6996C274.3 90.5996 274.4 90.4996 274.5 90.3996C275.4 90.2996 276.3 90.1996 277.2 90.0996C277.3 90.0996 277.4 90.1996 277.4 90.2996C277.4 90.3996 277.3 90.4996 277.2 90.4996C276.3 90.6996 275.4 90.7996 274.5 90.8996ZM288.1 90.7996C287.2 90.6996 286.3 90.5996 285.4 90.5996C285.3 90.5996 285.2 90.4996 285.2 90.3996C285.2 90.2996 285.3 90.1996 285.4 90.1996C286.3 90.1996 287.2 90.2996 288.1 90.3996C288.2 90.3996 288.3 90.4996 288.3 90.5996C288.3 90.6996 288.2 90.7996 288.1 90.7996ZM279.9 90.4996C279.8 90.4996 279.7 90.3996 279.7 90.2996C279.7 90.1996 279.8 90.0996 279.9 90.0996C280.8 90.0996 281.7 90.0996 282.6 90.0996C282.7 90.0996 282.8 90.1996 282.8 90.2996C282.8 90.3996 282.7 90.4996 282.6 90.4996C281.7 90.4996 280.8 90.4996 279.9 90.4996Z" fill="#839299"/>
<path d="M213.186 257.046C284.413 257.046 342.154 254.832 342.154 252.102C342.154 249.372 284.413 247.158 213.186 247.158C141.959 247.158 84.2188 249.372 84.2188 252.102C84.2188 254.832 141.959 257.046 213.186 257.046Z" fill="#0054A6"/>
<path d="M307.219 218.333H107.996C104.754 218.333 102.125 215.704 102.125 212.462V91.5351C102.125 88.2927 104.754 85.6641 107.996 85.6641H307.219C310.461 85.6641 313.09 88.2927 313.09 91.5351V212.462C313.09 215.704 310.462 218.333 307.219 218.333Z" fill="#D7D8DC"/>
<path d="M313.09 198.348H102.125V71.5498C102.125 68.3074 104.754 65.6787 107.996 65.6787H307.219C310.461 65.6787 313.09 68.3074 313.09 71.5498L313.09 198.348Z" fill="#494982"/>
<path d="M305.602 191.022V72.9551L109.239 72.9551L109.239 191.022L305.602 191.022Z" fill="#D4F9FF"/>
<path d="M305.745 72.9795H109.383V83.1149H305.745V72.9795Z" fill="#D7D8DC"/>
<path d="M118.515 78.705C118.515 79.6077 117.783 80.3396 116.881 80.3396C115.978 80.3396 115.246 79.6077 115.246 78.705C115.246 77.8022 115.978 77.0703 116.881 77.0703C117.783 77.0703 118.515 77.8017 118.515 78.705Z" fill="#0054A6"/>
<path d="M126.426 78.705C126.426 79.6077 125.694 80.3396 124.791 80.3396C123.888 80.3396 123.156 79.6077 123.156 78.705C123.156 77.8022 123.888 77.0703 124.791 77.0703C125.694 77.0703 126.426 77.8017 126.426 78.705Z" fill="#FFD417"/>
<path d="M134.336 78.705C134.336 79.6077 133.604 80.3396 132.701 80.3396C131.798 80.3396 131.066 79.6077 131.066 78.705C131.066 77.8022 131.798 77.0703 132.701 77.0703C133.604 77.0703 134.336 77.8017 134.336 78.705Z" fill="#94C420"/>
<path d="M284.206 76.0156H140.98V80.3399H284.206V76.0156Z" fill="white"/>
<path d="M302.119 78.6032L298.148 76.3105V80.8953L302.119 78.6032Z" fill="#494982"/>
<path d="M291.305 78.6032L295.275 76.3105V80.8953L291.305 78.6032Z" fill="#494982"/>
<path d="M221.474 218.332H191.25V243.415H221.474V218.332Z" fill="#D7D8DC"/>
<path d="M221.474 218.332H191.25V226.385H221.474V218.332Z" fill="#ADACB2"/>
<path d="M249.73 250.693H165.086C165.086 246.674 168.345 243.415 172.364 243.415H242.452C246.472 243.415 249.73 246.674 249.73 250.693Z" fill="#ECEDEF"/>
<path d="M258.544 142.032L239.73 123.628L258.544 105.224V114.967H267.397C269.057 114.967 270.44 116.32 270.44 117.944C270.44 119.568 269.057 120.921 267.397 120.921H252.734V119.298L248.03 123.628L252.734 128.229V126.605H267.397C269.057 126.605 270.44 127.958 270.44 129.582C270.44 131.206 269.057 132.56 267.397 132.56H258.544V142.032Z" fill="#0054A6"/>
<path d="M258.544 176.677L239.73 158.273L258.544 139.868V149.612H267.397C269.057 149.612 270.44 150.965 270.44 152.589C270.44 154.213 269.057 155.566 267.397 155.566H252.734V153.942L248.03 158.273L252.734 162.874V161.25H267.397C269.057 161.25 270.44 162.603 270.44 164.227C270.44 165.851 269.057 167.204 267.397 167.204H258.544V176.677Z" fill="#0054A6"/>
<path d="M146.783 142.034V132.29H137.93C136.27 132.29 134.887 130.937 134.887 129.313C134.887 127.689 136.27 126.336 137.93 126.336H152.593V127.96L157.297 123.359L152.593 118.758V120.381H137.93C136.27 120.381 134.887 119.028 134.887 117.404C134.887 115.78 136.27 114.427 137.93 114.427H146.783V104.684L165.597 123.088L146.783 142.034Z" fill="#0054A6"/>
<path d="M146.783 176.677V166.934H137.93C136.27 166.934 134.887 165.58 134.887 163.956C134.887 162.333 136.27 160.979 137.93 160.979H152.593V162.603L157.297 158.002L152.593 153.401V155.025H137.93C136.27 155.025 134.887 153.672 134.887 152.048C134.887 150.424 136.27 149.071 137.93 149.071H146.783V139.327L165.597 157.731L146.783 176.677Z" fill="#0054A6"/>
<path d="M230.889 138.514C230.889 137.972 230.335 137.431 229.782 137.16L225.079 135.266C224.525 133.101 223.695 130.935 222.312 129.041L224.249 124.71C224.525 124.169 224.525 123.628 223.972 123.086C223.419 122.545 222.865 122.004 222.312 121.462C221.759 120.921 221.205 120.38 220.652 119.839C220.099 119.568 219.545 119.297 218.992 119.568L214.565 121.462C212.629 120.38 210.415 119.297 208.202 118.756L206.265 114.155C205.989 113.614 205.435 113.343 204.882 113.072C204.052 113.072 203.222 113.072 202.392 113.072C201.562 113.072 200.732 113.072 199.902 113.072C199.349 113.072 198.795 113.614 198.519 114.155L196.582 118.756C194.369 119.297 192.155 120.109 190.219 121.462L185.792 119.568C185.239 119.297 184.685 119.297 184.132 119.839C183.579 120.38 183.025 120.921 182.472 121.462C181.919 122.004 181.642 122.545 181.089 123.086C180.812 123.628 180.535 124.169 180.812 124.71L182.749 129.041C181.642 130.935 180.535 133.101 179.982 135.266L175.279 137.16C174.725 137.431 174.449 137.972 174.172 138.514C174.172 139.326 174.172 140.137 174.172 140.949C174.172 141.761 174.172 142.573 174.172 143.385C174.172 143.927 174.725 144.468 175.279 144.739L179.982 146.633C180.535 148.798 181.365 150.964 182.749 152.858L180.812 157.189C180.535 157.73 180.535 158.271 181.089 158.812C181.642 159.354 182.195 159.895 182.749 160.436C183.302 160.978 183.855 161.519 184.409 162.06C184.962 162.331 185.515 162.602 186.069 162.331L190.495 160.436C192.432 161.519 194.645 162.602 196.859 163.143L198.795 167.744C199.072 168.285 199.625 168.556 200.179 168.827C201.009 168.827 201.839 168.827 202.669 168.827C203.499 168.827 204.329 168.827 205.159 168.827C205.712 168.827 206.265 168.285 206.542 167.744L208.479 163.143C210.692 162.602 212.905 161.79 214.842 160.436L219.269 162.331C219.822 162.602 220.375 162.602 220.929 162.06C221.482 161.519 222.035 160.978 222.589 160.436C223.142 159.895 223.695 159.354 224.249 158.812C224.525 158.271 224.802 157.73 224.525 157.189L222.589 152.858C223.695 150.964 224.802 148.798 225.355 146.633L230.059 144.739C230.612 144.468 230.889 143.927 231.165 143.385C231.165 142.573 231.165 141.761 231.165 140.949C230.889 140.137 230.889 139.326 230.889 138.514ZM202.669 153.399C195.475 153.399 189.942 147.716 189.942 140.949C189.942 134.183 195.475 128.499 202.669 128.499C209.862 128.499 215.395 134.183 215.395 140.949C215.395 147.716 209.585 153.399 202.669 153.399Z" fill="#839299"/>
<path d="M237.003 84.469H203.481V71.5449C203.481 70.6217 202.788 70.1602 202.094 70.1602C201.17 70.1602 200.707 70.8525 200.707 71.5449V84.469H164.873C159.787 84.469 155.395 88.854 155.395 93.9313V99.2394C155.395 100.163 155.857 100.624 156.782 100.624C157.706 100.624 158.169 100.163 158.169 99.2394V94.1621C158.169 90.7003 160.943 87.7 164.642 87.7H236.772C240.24 87.7 243.245 90.4695 243.245 94.1621V105.24C243.245 106.163 243.939 106.625 244.633 106.625C245.557 106.625 246.02 106.163 246.02 105.24V94.1621C246.713 88.6232 242.321 84.469 237.003 84.469Z" fill="#002548"/>
<path d="M250.174 43.6189C250.174 53.0812 242.313 60.928 232.835 60.928H218.732H185.904H174.344C167.409 60.4664 160.936 56.543 157.468 50.7733C155.387 47.3115 154 43.3881 154 39.0031C154 28.6177 161.167 19.617 171.108 17.7707C172.957 17.5399 174.344 17.3091 175.963 17.3091C181.049 17.3091 186.135 19.1554 189.834 22.1556C189.834 21.2325 189.603 20.5401 189.603 19.8478C189.603 13.8473 192.377 8.30836 196.77 4.61576C197.001 4.38497 197.694 3.92339 197.925 3.69261C200.237 1.8463 202.78 1.15394 205.786 0.461576C206.942 0 208.098 0 209.254 0C212.49 0 215.264 0.923151 218.039 2.07709C224.512 5.30812 229.136 11.7702 229.136 19.3862V19.617C229.136 22.1556 228.673 24.6943 227.749 27.0022C229.367 26.5406 231.216 26.079 232.835 26.079C235.378 26.079 237.69 26.5406 239.77 27.4638C245.781 30.464 250.174 36.6953 250.174 43.6189Z" fill="#F4A533"/>
<g opacity="0.19">
<path d="M201.614 15.2318C201.614 23.5402 194.909 30.233 186.355 30.233C178.957 30.233 172.484 24.6941 171.328 17.5397C173.178 17.3089 174.565 17.0781 176.183 17.0781C181.269 17.0781 186.355 18.9244 190.054 21.9246C190.054 21.0015 189.823 20.3091 189.823 19.6168C189.823 13.6163 192.597 8.07737 196.99 4.38477C199.764 7.15422 201.614 11.0776 201.614 15.2318Z" fill="#F9FAFB"/>
</g>
<path d="M250.174 43.617C250.174 53.0793 242.313 60.9261 232.835 60.9261H218.732H185.904H174.344C167.409 60.4645 160.936 56.5411 157.468 50.7714C155.387 47.3096 154 43.3862 154 39.0012C154 34.6162 155.156 30.2313 157.468 27.0002C159.78 42.6938 173.42 54.464 189.603 54.464C207.635 54.464 222.2 40.1552 222.2 21.9229C222.2 13.8453 218.963 6.22934 214.109 0.69043C215.264 0.921218 216.652 1.61358 217.808 2.07516C224.281 5.30619 228.904 11.7682 228.904 19.3842V19.615C228.904 22.1537 228.211 24.9232 227.517 27.231C229.136 26.7695 230.985 26.3079 232.603 26.3079C235.147 26.3079 237.458 26.7695 239.539 27.6926C245.781 30.4621 249.942 36.6933 250.174 43.617Z" fill="#FFDD33"/>
<path d="M190.036 21.9235C189.805 21.9235 189.805 21.6927 189.344 21.6927C189.344 21.4619 189.575 21.2311 189.575 20.7695C189.575 21.0003 189.575 21.6927 190.036 21.9235Z" fill="#DBE2F2"/>
<path d="M227.754 27.0023H227.523C227.523 26.7715 227.754 26.5407 227.754 26.0791V27.0023Z" fill="#DBE2F2"/>
<path d="M223.355 48.6967C223.355 48.2352 222.893 47.7736 222.662 47.7736L219.194 46.3889C218.732 44.7733 218.038 42.927 217.113 41.5423L218.501 38.0805C218.732 37.6189 218.732 37.1573 218.269 36.6958C217.807 36.2342 217.576 35.7726 217.113 35.311C216.651 34.8495 216.189 34.3879 215.726 34.1571C215.264 33.9263 214.802 33.6955 214.339 33.9263L210.871 35.311C209.253 34.3879 207.635 33.6955 206.016 33.2339L204.861 30.0029C204.629 29.5413 204.398 29.3105 203.936 29.3105C203.242 29.3105 202.78 29.3105 202.086 29.3105C201.393 29.3105 200.93 29.3105 200.237 29.3105C199.774 29.3105 199.312 29.7721 199.312 30.0029L197.925 33.4647C196.307 33.9263 194.457 34.6187 193.07 35.5418L189.602 34.1571C189.14 33.9263 188.677 33.9263 188.215 34.3879C187.753 34.8495 187.29 35.0802 186.828 35.5418C186.366 36.0034 185.903 36.465 185.672 36.9265C185.441 37.3881 185.21 37.8497 185.441 38.3113L186.828 41.7731C185.903 43.3886 185.21 45.0041 184.747 46.6196L181.279 47.7736C180.817 48.0044 180.586 48.2352 180.586 48.6967C180.586 49.3891 180.586 49.8507 180.586 50.543C180.586 51.2354 180.586 51.697 180.586 52.3893C180.586 52.8509 181.048 53.3125 181.279 53.3125L184.747 54.6972C185.21 56.3127 185.903 58.159 186.828 59.5438L185.441 63.0056C185.21 63.4672 185.21 63.9287 185.672 64.3903C186.134 64.8519 186.366 65.3135 186.828 65.775C187.29 66.2366 187.753 66.6982 188.215 66.929C188.677 67.1598 189.14 67.3906 189.602 67.1598L193.07 65.775C194.688 66.6982 196.307 67.3906 197.925 67.8521L199.312 71.3139C199.543 71.7755 199.774 72.0063 200.237 72.0063C200.93 72.0063 201.393 72.0063 202.086 72.0063C202.78 72.0063 203.242 72.0063 203.936 72.0063C204.398 72.0063 204.861 71.5447 204.861 71.3139L206.248 67.8521C207.866 67.3906 209.715 66.6982 211.103 65.775L214.57 67.1598C215.033 67.3906 215.495 67.3905 215.958 66.929C216.42 66.4674 216.882 66.2366 217.345 65.775C217.807 65.3135 218.269 64.8519 218.501 64.3903C218.732 63.9287 218.963 63.4672 218.732 63.0056L217.345 59.5438C218.269 57.9282 218.963 56.3127 219.425 54.6972L222.893 53.3125C223.355 53.0817 223.587 52.8509 223.587 52.3893C223.587 51.697 223.587 51.2354 223.587 50.543C223.587 49.8507 223.587 49.3891 223.355 48.6967ZM201.855 60.4669C196.538 60.4669 192.145 56.0819 192.145 50.7738C192.145 45.4657 196.538 41.0807 201.855 41.0807C207.172 41.0807 211.565 45.4657 211.565 50.7738C211.565 56.0819 207.404 60.4669 201.855 60.4669Z" fill="#839299"/>
<path d="M42.9 153.599L27 133.899L53.6 137.199L42.9 153.599Z" fill="#D2D9DC"/>
<path d="M27 133.899L47.1 147.199L50.1 150.099L49.8 142.999L27 133.899Z" fill="#839299"/>
<path d="M50.0984 150.1L45.8984 149.1L47.0984 147.3L50.0984 150.1Z" fill="#5F737C"/>
</g>
<defs>
<clipPath id="clip0_18062_8761">
<rect width="420" height="280" fill="white"/>
</clipPath>
</defs>
</svg>
