<svg width="50" height="50" viewBox="0 0 50 50" fill="none" xmlns="http://www.w3.org/2000/svg">
<g clip-path="url(#clip0_14405_62624)">
<path fill-rule="evenodd" clip-rule="evenodd" d="M21.6309 -0.0488281C22.8353 -0.0488281 24.0397 -0.0488281 25.2441 -0.0488281C29.4429 0.528826 32.9748 2.3843 35.8398 5.51758C35.8852 5.57562 35.9015 5.64073 35.8887 5.71289C30.9535 1.90645 25.5173 1.01126 19.5801 3.02734C13.0603 5.89027 9.5609 10.887 9.08203 18.0176C5.23826 18.8666 2.89451 21.2104 2.05078 25.0488C1.77425 27.1837 2.2137 29.1531 3.36914 30.957C3.31109 31.0023 3.24599 31.0187 3.17383 31.0059C1.4254 29.6257 0.351185 27.8354 -0.0488281 25.6348C-0.0488281 24.7559 -0.0488281 23.877 -0.0488281 22.998C0.826138 19.1771 3.18616 16.8334 7.03125 15.9668C7.52864 8.70158 11.1257 3.67229 17.8223 0.878906C19.076 0.44968 20.3455 0.140435 21.6309 -0.0488281Z" fill="#50C4FE"/>
<path opacity="0.998" fill-rule="evenodd" clip-rule="evenodd" d="M35.8887 5.71289C36.5466 6.38805 37.1162 7.13675 37.5977 7.95898C38.0853 8.91781 38.5573 9.87813 39.0137 10.8398C43.7031 11.0425 47.0723 13.2397 49.1211 17.4316C49.4916 18.3945 49.7684 19.3711 49.9512 20.3613C49.9512 21.3379 49.9512 22.3145 49.9512 23.291C49.1195 27.8186 46.5153 30.8296 42.1387 32.3242C40.8555 32.6304 39.5533 32.7442 38.2324 32.666C37.7116 32.666 37.1907 32.666 36.6699 32.666C35.14 32.666 33.6101 32.666 32.0801 32.666C31.5267 32.666 30.9734 32.666 30.4199 32.666C28.8574 32.666 27.2949 32.666 25.7324 32.666C25.179 32.666 24.6257 32.666 24.0723 32.666C22.5098 32.666 20.9473 32.666 19.3848 32.666C18.8314 32.666 18.2781 32.666 17.7246 32.666C16.1947 32.666 14.6648 32.666 13.1348 32.666C12.5814 32.666 12.0281 32.666 11.4746 32.666C10.0745 32.6823 8.67478 32.666 7.27542 32.6172C5.73577 32.4808 4.36858 31.9437 3.17385 31.0059C3.24601 31.0187 3.31112 31.0023 3.36917 30.957C2.21373 29.1531 1.77427 27.1837 2.05081 25.0488C2.89454 21.2104 5.23829 18.8666 9.08206 18.0176C9.56092 10.887 13.0603 5.89027 19.5801 3.02734C25.5173 1.01126 30.9535 1.90645 35.8887 5.71289Z" fill="#50C4FE"/>
<path opacity="0.968" fill-rule="evenodd" clip-rule="evenodd" d="M11.4746 32.666C12.028 32.666 12.5813 32.666 13.1348 32.666C13.1511 34.3591 13.1348 36.0518 13.0859 37.7441C12.8903 38.5256 12.4184 39.0627 11.6699 39.3555C10.6998 39.4917 9.72321 39.5405 8.74023 39.502C8.74023 39.4694 8.74023 39.4368 8.74023 39.4043C8.9957 38.8942 8.9957 38.3733 8.74023 37.8418C9.55469 37.858 10.3685 37.8418 11.1816 37.793C11.263 37.7116 11.3444 37.6302 11.4258 37.5488C11.4746 35.9216 11.4909 34.2939 11.4746 32.666Z" fill="#3C6A73"/>
<path opacity="0.951" fill-rule="evenodd" clip-rule="evenodd" d="M17.7246 32.666C18.278 32.666 18.8313 32.666 19.3848 32.666C19.4312 36.3491 19.3823 40.0275 19.2383 43.7012C18.8548 44.5688 18.1874 45.0408 17.2363 45.1172C16.4884 45.166 15.7396 45.1822 14.9902 45.166C15.0228 45.0358 15.0554 44.9056 15.0879 44.7754C15.1142 44.3427 15.0816 43.9194 14.9902 43.5059C15.7722 43.5221 16.5534 43.5059 17.334 43.457C17.4737 43.4116 17.5876 43.3302 17.6758 43.2129C17.7246 39.6975 17.7409 36.1818 17.7246 32.666Z" fill="#3C6A73"/>
<path opacity="0.95" fill-rule="evenodd" clip-rule="evenodd" d="M24.0723 32.666C24.6257 32.666 25.179 32.666 25.7324 32.666C25.7324 37.1257 25.7324 41.5853 25.7324 46.0449C25.2292 45.9356 24.7409 45.9356 24.2676 46.0449C24.2024 46.0449 24.1374 46.0449 24.0723 46.0449C24.0723 41.5853 24.0723 37.1257 24.0723 32.666Z" fill="#3C6A72"/>
<path opacity="0.925" fill-rule="evenodd" clip-rule="evenodd" d="M30.4193 32.666C30.9727 32.666 31.526 32.666 32.0794 32.666C32.0631 36.1818 32.0794 39.6975 32.1283 43.2129C32.2165 43.3302 32.3303 43.4116 32.4701 43.457C33.2506 43.5059 34.0319 43.5221 34.8138 43.5059C34.5608 44.056 34.5608 44.6094 34.8138 45.166C33.7587 45.2214 32.717 45.14 31.6888 44.9219C31.1458 44.6717 30.7714 44.2648 30.5658 43.7012C30.4217 40.0275 30.3729 36.3491 30.4193 32.666Z" fill="#3C6972"/>
<path opacity="0.949" fill-rule="evenodd" clip-rule="evenodd" d="M36.6702 32.666C37.191 32.666 37.7119 32.666 38.2327 32.666C38.2164 34.1963 38.2327 35.7263 38.2815 37.2559C38.3103 37.4933 38.4243 37.6723 38.6233 37.793C39.4039 37.8418 40.1851 37.858 40.9671 37.8418C40.8369 38.3952 40.8369 38.9485 40.9671 39.502C40.0166 39.5401 39.0725 39.4913 38.135 39.3555C37.3866 39.0627 36.9146 38.5256 36.719 37.7441C36.6702 36.0518 36.6539 34.3591 36.6702 32.666Z" fill="#3C6972"/>
<path opacity="0.983" fill-rule="evenodd" clip-rule="evenodd" d="M6.20117 36.7675C7.139 36.4699 7.93653 36.6978 8.59375 37.4511C8.67104 37.5727 8.71986 37.7029 8.74023 37.8418C8.9957 38.3733 8.9957 38.8942 8.74023 39.4043C7.22984 39.1634 6.38349 38.2845 6.20117 36.7675Z" fill="#FDCE63"/>
<path opacity="0.972" fill-rule="evenodd" clip-rule="evenodd" d="M42.2363 36.7676C44.1049 36.4558 44.9838 37.2371 44.873 39.1114C44.0139 39.3076 43.3141 39.0471 42.7734 38.3301C42.5514 37.7995 42.3724 37.2787 42.2363 36.7676Z" fill="#FFCF63"/>
<path opacity="0.999" fill-rule="evenodd" clip-rule="evenodd" d="M6.20122 36.7676C6.38353 38.2846 7.22989 39.1635 8.74028 39.4043C8.74028 39.4368 8.74028 39.4694 8.74028 39.502C8.41472 40.3335 7.79623 40.7566 6.88481 40.7715C5.19608 40.4875 4.56132 39.5109 4.98052 37.8418C5.22215 37.2906 5.62905 36.9325 6.20122 36.7676Z" fill="#FFC250"/>
<path fill-rule="evenodd" clip-rule="evenodd" d="M42.2363 36.7676C42.3723 37.2786 42.5513 37.7994 42.7734 38.3301C43.314 39.0471 44.0138 39.3075 44.873 39.1113C44.6483 40.1488 43.9972 40.7022 42.9199 40.7715C42.0065 40.7347 41.3554 40.3115 40.9668 39.502C40.8366 38.9485 40.8366 38.3952 40.9668 37.8418C41.2387 37.3098 41.6619 36.9517 42.2363 36.7676Z" fill="#FEC250"/>
<path opacity="0.982" fill-rule="evenodd" clip-rule="evenodd" d="M14.9916 43.5058C15.083 43.9194 15.1155 44.3427 15.0892 44.7754C13.3996 44.8435 12.5858 44.0298 12.6478 42.334C13.7408 42.1118 14.522 42.5024 14.9916 43.5058Z" fill="#FECF63"/>
<path opacity="0.969" fill-rule="evenodd" clip-rule="evenodd" d="M38.6228 44.873C36.951 44.8613 36.1372 44.0149 36.1814 42.3339C37.4266 42.1024 38.2567 42.5907 38.6716 43.7988C38.7507 44.1755 38.7344 44.5335 38.6228 44.873Z" fill="#FFD063"/>
<path fill-rule="evenodd" clip-rule="evenodd" d="M12.6469 42.334C12.5849 44.0298 13.3986 44.8436 15.0883 44.7754C15.0558 44.9056 15.0231 45.0358 14.9906 45.166C14.4872 46.1658 13.6733 46.5401 12.5492 46.2891C11.2596 45.7765 10.8201 44.8487 11.2309 43.5059C11.5151 42.8791 11.9871 42.4885 12.6469 42.334Z" fill="#FEC250"/>
<path opacity="0.999" fill-rule="evenodd" clip-rule="evenodd" d="M36.182 42.334C36.1377 44.0149 36.9516 44.8613 38.6234 44.873C38.3374 45.8314 37.6864 46.3197 36.6702 46.3379C35.7932 46.337 35.1746 45.9464 34.8148 45.166C34.5617 44.6094 34.5617 44.056 34.8148 43.5059C35.0599 42.8701 35.5156 42.4795 36.182 42.334Z" fill="#FEC250"/>
<path opacity="0.982" fill-rule="evenodd" clip-rule="evenodd" d="M24.2676 46.045C24.7409 45.9357 25.2292 45.9357 25.7324 46.045C26.6941 46.536 27.0848 47.3172 26.9043 48.3887C25.8759 48.566 25.1109 48.208 24.6094 47.3145C24.4548 46.8887 24.3408 46.4655 24.2676 46.045Z" fill="#FECF63"/>
<path opacity="0.999" fill-rule="evenodd" clip-rule="evenodd" d="M24.0732 46.0449C24.1383 46.0449 24.2034 46.0449 24.2685 46.0449C24.3418 46.4654 24.4557 46.8887 24.6103 47.3145C25.1119 48.2079 25.8768 48.5659 26.9052 48.3887C26.6893 49.1251 26.2336 49.6459 25.538 49.9512C25.1149 49.9512 24.6917 49.9512 24.2685 49.9512C22.918 49.2692 22.5436 48.2275 23.1455 46.8262C23.3685 46.4625 23.6778 46.2021 24.0732 46.0449Z" fill="#FEC250"/>
</g>
<defs>
<clipPath id="clip0_14405_62624">
<rect width="50" height="50" fill="white"/>
</clipPath>
</defs>
</svg>
