<svg width="48" height="48" viewBox="0 0 48 48" fill="none" xmlns="http://www.w3.org/2000/svg">
<g id="technological-capacity-to-bring-that-change_cloud-computing">
<g id="Group">
<path id="Vector" d="M32.2988 44.7001C32.2988 44.7001 28.1988 43.9 28.1988 40.6V39.8H19.8988V40.6C19.8988 43.9 15.7988 44.7001 15.7988 44.7001V45.5H32.3988V44.7001H32.2988Z" fill="#839299"/>
<path id="Vector_2" d="M46.2996 36.3999V38.8999C46.2996 39.7999 45.5996 40.5999 44.5996 40.5999H3.29961C2.39961 40.5999 1.59961 39.8999 1.59961 38.8999V36.3999H46.2996Z" fill="#D2D9DC"/>
<path id="Vector_3" d="M46.2992 6.6V36.4H1.69922V6.6C1.69922 5.7 2.39922 5 3.29922 5H44.6992C45.5992 5 46.2992 5.7 46.2992 6.6Z" fill="#002548"/>
<path id="Vector_4" d="M3.69883 7.19995H44.1988C44.6988 7.19995 45.0988 7.59995 45.0988 8.09995V33.2C45.0988 33.7 44.6988 34.0999 44.1988 34.0999H3.69883C3.19883 34.0999 2.79883 33.7 2.79883 33.2V8.09995C2.79883 7.59995 3.19883 7.19995 3.69883 7.19995Z" fill="#F9FAFB"/>
<path id="Vector_5" d="M15.6988 44.7H32.2988C33.6988 44.7 34.7988 45.8 34.7988 47.2C34.7988 47.7 34.3988 48 33.9988 48H14.0988C13.5988 48 13.2988 47.6 13.2988 47.2C13.1988 45.8 14.3988 44.7 15.6988 44.7Z" fill="#D2D9DC"/>
<g id="Group_2">
<path id="Vector_6" d="M15.6996 27.3H11.5996V25.6H15.6996C16.1996 25.6 16.4996 25.2 16.4996 24.8V19H18.1996V24.8C18.1996 26.2 17.0996 27.3 15.6996 27.3Z" fill="#0054A6"/>
<path id="Vector_7" d="M36.3988 27.3H32.2988C30.8988 27.3 29.7988 26.2 29.7988 24.8V19H31.4988V24.8C31.4988 25.3 31.8988 25.6 32.2988 25.6H36.3988V27.3Z" fill="#0054A6"/>
<path id="Vector_8" d="M23.1992 19H24.8992V25.6H23.1992V19Z" fill="#0054A6"/>
</g>
<path id="Vector_9" d="M14.0993 19C10.8993 19 8.29928 16.4 8.39928 13.2C8.39928 10.4 10.4993 7.9 13.2993 7.5V7.4C13.2993 3.3 16.5993 0 20.6993 0C23.3993 0 25.8993 1.5 27.1993 3.8C28.0993 2.9 29.2993 2.4 30.5993 2.4C33.2993 2.4 35.5993 4.6 35.5993 7.4C35.5993 7.5 35.5993 7.6 35.5993 7.6C38.6993 8.5 40.3993 11.7 39.4993 14.8C38.7993 17.3 36.4993 18.9 33.9993 18.9H14.0993V19Z" fill="#D2D9DC"/>
<path id="Vector_10" d="M10.7988 29C12.1795 29 13.2988 27.8807 13.2988 26.5C13.2988 25.1193 12.1795 24 10.7988 24C9.41812 24 8.29883 25.1193 8.29883 26.5C8.29883 27.8807 9.41812 29 10.7988 29Z" fill="#FFDD33"/>
<path id="Vector_11" d="M24 29C25.3807 29 26.5 27.8807 26.5 26.5C26.5 25.1193 25.3807 24 24 24C22.6193 24 21.5 25.1193 21.5 26.5C21.5 27.8807 22.6193 29 24 29Z" fill="#FFDD33"/>
<path id="Vector_12" d="M37.1992 29C38.5799 29 39.6992 27.8807 39.6992 26.5C39.6992 25.1193 38.5799 24 37.1992 24C35.8185 24 34.6992 25.1193 34.6992 26.5C34.6992 27.8807 35.8185 29 37.1992 29Z" fill="#FFDD33"/>
</g>
</g>
</svg>
