<svg width="64" height="64" viewBox="0 0 64 64" fill="none" xmlns="http://www.w3.org/2000/svg">
<path opacity="0.977" fill-rule="evenodd" clip-rule="evenodd" d="M52.1882 12.1875C51.7863 8.34727 49.7447 5.82645 46.0632 4.62498C45.6967 4.50582 45.3217 4.44332 44.9382 4.43748C44.2178 4.27701 43.4887 4.15201 42.7507 4.06248C42.4508 4.07663 42.2217 4.20163 42.0632 4.43748C38.8305 5.10693 36.6012 6.98193 35.3757 10.0625C35.082 11.0061 34.8528 11.9644 34.6882 12.9375C32.5761 10.6704 30.2011 10.3579 27.5632 12C26.0506 13.4004 25.4672 15.1295 25.8132 17.1875C22.4868 17.4501 20.3827 19.2001 19.5007 22.4375C19.2182 26.5879 21.0723 29.1712 25.0632 30.1875C22.2002 30.7299 19.7627 29.9799 17.7507 27.9375C15.7376 25.1761 15.696 22.3845 17.6257 19.5625C18.9422 18.0292 20.6088 17.196 22.6257 17.0625C22.1905 14.1179 23.1696 11.7637 25.5632 9.99998C28.2247 8.72978 30.7455 8.95895 33.1257 10.6875C33.8961 6.04208 36.5836 3.22958 41.1882 2.24998C46.1582 1.82773 49.6373 3.89023 51.6257 8.43748C51.9972 9.65946 52.1847 10.9095 52.1882 12.1875Z" fill="#0054A6"/>
<path fill-rule="evenodd" clip-rule="evenodd" d="M44.9382 4.4375C47.4913 5.42843 49.1581 7.24093 49.9382 9.875C49.7508 10.6669 49.3133 10.8544 48.6257 10.4375C47.6051 7.33196 45.4592 5.64446 42.1882 5.375C41.9323 5.08371 41.8907 4.77121 42.0632 4.4375C42.2217 4.20165 42.4508 4.07665 42.7507 4.0625C43.4887 4.15202 44.2178 4.27702 44.9382 4.4375Z" fill="#BADDFF"/>
<path fill-rule="evenodd" clip-rule="evenodd" d="M42.0632 4.4375C41.8907 4.77121 41.9323 5.08371 42.1882 5.375C45.4592 5.64446 47.605 7.33196 48.6257 10.4375C49.3133 10.8544 49.7508 10.6669 49.9382 9.875C49.158 7.24093 47.4913 5.42843 44.9382 4.4375C45.3217 4.44334 45.6967 4.50584 46.0632 4.625C49.7447 5.82646 51.7863 8.34729 52.1882 12.1875C55.5065 12.3358 58.069 13.7941 59.8757 16.5625C61.4929 19.7498 61.4512 22.9164 59.7507 26.0625C57.2629 29.47 53.9088 30.845 49.6882 30.1875C49.5648 29.5869 49.523 28.9619 49.5632 28.3125C48.8022 28.2646 48.073 28.0979 47.3757 27.8125C47.087 27.071 46.7745 26.3417 46.4382 25.625C46.8548 25 47.2715 24.375 47.6882 23.75C46.8548 22.9166 46.0215 22.0834 45.1882 21.25C44.4925 21.5268 43.8468 21.9226 43.2507 22.4375C42.5007 22.1041 41.7507 21.7709 41.0007 21.4375C40.8348 20.7078 40.6473 19.9994 40.4382 19.3125C39.2524 19.1882 38.0442 19.1466 36.8132 19.1875C36.6757 19.9374 36.5299 20.6874 36.3757 21.4375C35.6307 21.7611 34.9014 22.0944 34.1882 22.4375C33.686 22.1424 33.186 21.8507 32.6882 21.5625C32.5863 21.3954 32.4404 21.2704 32.2507 21.1875C31.3738 22.0435 30.5197 22.9185 29.6882 23.8125C30.1175 24.4077 30.4925 25.0327 30.8132 25.6875C30.5564 26.4095 30.2648 27.1178 29.9382 27.8125C29.3064 28.0893 28.6397 28.2559 27.9382 28.3125C27.6954 28.882 27.6122 29.507 27.6882 30.1875C26.8132 30.1875 25.9382 30.1875 25.0632 30.1875C21.0723 29.1712 19.2182 26.5879 19.5007 22.4375C20.3827 19.2001 22.4868 17.4501 25.8132 17.1875C25.4672 15.1295 26.0505 13.4004 27.5632 12C30.201 10.3579 32.576 10.6704 34.6882 12.9375C34.8528 11.9644 35.0819 11.0061 35.3757 10.0625C36.6012 6.98195 38.8304 5.10695 42.0632 4.4375Z" fill="#0054A6"/>
<path fill-rule="evenodd" clip-rule="evenodd" d="M40.4375 19.3126C39.5209 19.3126 38.6041 19.3126 37.6875 19.3126C37.6396 20.0736 37.4729 20.8027 37.1875 21.5001C36.2657 21.8837 35.349 22.2796 34.4375 22.6876C34.3098 22.6432 34.2264 22.5598 34.1875 22.4376C34.9007 22.0944 35.63 21.7612 36.375 21.4376C36.5292 20.6874 36.675 19.9374 36.8125 19.1876C38.0435 19.1467 39.2517 19.1883 40.4375 19.3126Z" fill="#DF8726"/>
<path fill-rule="evenodd" clip-rule="evenodd" d="M40.4375 19.3125C40.6466 19.9994 40.8341 20.7078 41 21.4375C41.75 21.7709 42.5 22.1041 43.25 22.4375C43.8461 21.9226 44.4919 21.5268 45.1875 21.25C46.0209 22.0834 46.8541 22.9166 47.6875 23.75C47.2709 24.375 46.8541 25 46.4375 25.625C46.7739 26.3418 47.0864 27.071 47.375 27.8125C48.0724 28.0979 48.8015 28.2646 49.5625 28.3125C49.5224 28.9619 49.5641 29.5869 49.6875 30.1875C49.7284 30.818 49.6868 31.443 49.5625 32.0625C48.9025 32.232 48.2358 32.3779 47.5625 32.5C47.1336 33.2019 46.8002 33.9519 46.5625 34.75C46.8586 35.2378 47.1711 35.7169 47.5 36.1875C47.6484 36.3805 47.69 36.5889 47.625 36.8125C46.7916 37.6459 45.9584 38.4791 45.125 39.3125C44.4897 38.8803 43.844 38.4636 43.1875 38.0625C42.4528 38.4045 41.7028 38.6961 40.9375 38.9375C40.8395 39.6924 40.7145 40.4424 40.5625 41.1875C39.6041 41.1875 38.6459 41.1875 37.6875 41.1875C37.6866 40.37 37.52 39.5991 37.1875 38.875C36.2248 38.3918 35.2248 38.0584 34.1875 37.875C34.118 37.9229 34.0764 37.9854 34.0625 38.0625C33.6459 38.3541 33.2291 38.6459 32.8125 38.9375C32.0879 38.1502 31.3379 37.3794 30.5625 36.625C30.9799 35.9979 31.3966 35.3729 31.8125 34.75C31.5173 34.0136 31.2048 33.2844 30.875 32.5625C30.1776 32.2771 29.4485 32.1104 28.6875 32.0625C28.6875 30.8125 28.6875 29.5625 28.6875 28.3125C29.4485 28.2646 30.1776 28.0979 30.875 27.8125C31.1636 27.071 31.4761 26.3418 31.8125 25.625C31.3959 25 30.9791 24.375 30.5625 23.75C31.2962 23.0373 32.0045 22.3081 32.6875 21.5625C33.1854 21.8507 33.6854 22.1424 34.1875 22.4375C34.2264 22.5598 34.3098 22.6431 34.4375 22.6875C35.349 22.2795 36.2657 21.8836 37.1875 21.5C37.4729 20.8026 37.6396 20.0735 37.6875 19.3125C38.6041 19.3125 39.5209 19.3125 40.4375 19.3125Z" fill="#FC9F2F"/>
<path fill-rule="evenodd" clip-rule="evenodd" d="M40.9371 24.9375C44.0665 26.6368 45.0458 29.1785 43.8746 32.5625C43.1209 34.1708 41.8918 35.2125 40.1871 35.6875C36.4043 36.3002 34.0084 34.7586 32.9996 31.0625C32.7764 27.863 34.1723 25.7171 37.1871 24.625C38.4706 24.3431 39.7206 24.4472 40.9371 24.9375Z" fill="#FFFEFD"/>
<path fill-rule="evenodd" clip-rule="evenodd" d="M40.9375 24.9375C41.0751 24.8003 41.2418 24.7794 41.4375 24.875C44.641 26.4842 45.7035 29.005 44.625 32.4375C43.7371 34.3953 42.258 35.4787 40.1875 35.6875C41.8921 35.2125 43.1212 34.1709 43.875 32.5625C45.0461 29.1785 44.0669 26.6369 40.9375 24.9375Z" fill="#E78613"/>
<path fill-rule="evenodd" clip-rule="evenodd" d="M27.9374 28.3125C27.8597 28.9503 27.7765 29.5753 27.6874 30.1875C27.6114 29.507 27.6946 28.882 27.9374 28.3125Z" fill="#BE8E4F"/>
<path opacity="0.946" fill-rule="evenodd" clip-rule="evenodd" d="M32.6871 21.5625C32.0041 22.3081 31.2958 23.0373 30.5621 23.75C30.9787 24.375 31.3954 25 31.8121 25.625C31.4757 26.3418 31.1632 27.071 30.8746 27.8125C30.1772 28.0979 29.4481 28.2646 28.6871 28.3125C28.6871 29.5625 28.6871 30.8125 28.6871 32.0625C29.4481 32.1104 30.1772 32.2771 30.8746 32.5625C31.2043 33.2844 31.5168 34.0136 31.8121 34.75C31.3962 35.3729 30.9794 35.9979 30.5621 36.625C31.3374 37.3794 32.0874 38.1502 32.8121 38.9375C32.6389 39.0767 32.4514 39.2017 32.2496 39.3125C31.3537 38.4166 30.4579 37.5209 29.5621 36.625C29.9787 36 30.3954 35.375 30.8121 34.75C30.5131 33.9853 30.1797 33.2353 29.8121 32.5C29.1388 32.3779 28.4721 32.232 27.8121 32.0625C27.6878 31.443 27.6462 30.818 27.6871 30.1875C27.7762 29.5752 27.8594 28.9503 27.9371 28.3125C28.6386 28.2559 29.3053 28.0893 29.9371 27.8125C30.2637 27.1178 30.5553 26.4095 30.8121 25.6875C30.4914 25.0328 30.1164 24.4078 29.6871 23.8125C30.5186 22.9185 31.3727 22.0435 32.2496 21.1875C32.4393 21.2704 32.5852 21.3954 32.6871 21.5625Z" fill="#E6830B"/>
<path opacity="0.939" fill-rule="evenodd" clip-rule="evenodd" d="M37.6875 41.1875C37.3601 41.221 37.0476 41.1794 36.75 41.0625C36.6484 40.3224 36.4609 39.614 36.1875 38.9375C35.4862 38.6206 34.7779 38.329 34.0625 38.0625C34.0764 37.9854 34.118 37.9229 34.1875 37.875C35.2248 38.0584 36.2248 38.3917 37.1875 38.875C37.52 39.5991 37.6866 40.37 37.6875 41.1875Z" fill="#E78308"/>
<path fill-rule="evenodd" clip-rule="evenodd" d="M40.8125 49.3125C39.9945 50.3688 38.9112 51.0145 37.5625 51.25C36.4431 51.4264 35.3181 51.5514 34.1875 51.625C31.8116 51.6699 29.4366 51.6699 27.0625 51.625C26.3781 52.6731 26.6699 53.2565 27.9375 53.375C31.3349 53.7349 34.7099 53.6099 38.0625 53C39.8339 52.6255 41.2714 51.7296 42.375 50.3125C42.6692 49.8498 42.8567 49.3498 42.9375 48.8125C44.3629 48.4555 45.7795 48.0598 47.1875 47.625C50.3809 46.5328 53.5892 45.4911 56.8125 44.5C57.9317 44.3158 59.0567 44.2741 60.1875 44.375C61.0346 44.4854 61.7014 44.8813 62.1875 45.5625C62.2061 45.694 62.1854 45.819 62.125 45.9375C60.7995 46.8194 59.4037 47.5901 57.9375 48.25C50.9375 51.2916 43.9375 54.3334 36.9375 57.375C34.9395 58.3329 32.8352 58.8536 30.625 58.9375C29.5615 58.8916 28.499 58.8291 27.4375 58.75C23.444 58.1121 19.444 57.5289 15.4375 57C12.6995 56.797 9.9912 56.9845 7.3125 57.5625C7.3125 58.4375 7.3125 59.3125 7.3125 60.1875C7.14583 55.3541 7.14583 50.5209 7.3125 45.6875C8.65093 45.6051 9.98426 45.4592 11.3125 45.25C13.692 44.728 16.067 44.1864 18.4375 43.625C19.2032 43.5047 19.9741 43.4422 20.75 43.4375C24.0209 43.7408 27.2917 44.0533 30.5625 44.375C32.8104 44.5369 35.0604 44.6619 37.3125 44.75C40.2359 44.9806 41.4025 46.5015 40.8125 49.3125Z" fill="#F8C694"/>
<path opacity="0.99" fill-rule="evenodd" clip-rule="evenodd" d="M4.3125 44.4374C3.98259 44.6636 3.71177 44.9552 3.5 45.3124C3.41667 50.4791 3.41667 55.6458 3.5 60.8124C3.61729 61.1997 3.84645 61.4913 4.1875 61.6874C3.43635 61.7082 2.68635 61.6873 1.9375 61.6249C1.66667 61.5208 1.47917 61.3333 1.375 61.0624C1.29167 55.7291 1.29167 50.3958 1.375 45.0624C1.57968 44.7737 1.8505 44.5862 2.1875 44.4999C2.89462 44.4376 3.60295 44.4167 4.3125 44.4374Z" fill="#0054A6"/>
<path fill-rule="evenodd" clip-rule="evenodd" d="M4.3125 44.4375C5.11564 44.3912 5.9073 44.4537 6.6875 44.625C7.07033 44.8787 7.27867 45.233 7.3125 45.6875C7.14584 50.5209 7.14584 55.3541 7.3125 60.1875C7.38015 60.8424 7.13015 61.3215 6.5625 61.625C5.77193 61.6875 4.98027 61.7082 4.1875 61.6875C3.84645 61.4914 3.61729 61.1997 3.5 60.8125C3.41667 55.6459 3.41667 50.4791 3.5 45.3125C3.71177 44.9552 3.98259 44.6636 4.3125 44.4375Z" fill="#0054A6"/>
<path opacity="0.985" fill-rule="evenodd" clip-rule="evenodd" d="M62.1875 45.5625C62.4893 46.0026 62.6143 46.5026 62.5625 47.0625C62.5991 47.5562 62.495 48.0145 62.25 48.4375C61.5124 48.9661 60.7415 49.4454 59.9375 49.875C52.3749 53.2569 44.7916 56.5903 37.1875 59.875C35.1112 60.8784 32.9237 61.4409 30.625 61.5625C29.7686 61.5301 28.9145 61.4676 28.0625 61.375C23.9469 60.7238 19.8219 60.1405 15.6875 59.625C12.8655 59.4146 10.0738 59.6021 7.3125 60.1875C7.3125 59.3125 7.3125 58.4375 7.3125 57.5625C9.9912 56.9845 12.6995 56.797 15.4375 57C19.444 57.5289 23.444 58.1121 27.4375 58.75C28.499 58.8291 29.5615 58.8916 30.625 58.9375C32.8353 58.8536 34.9395 58.3329 36.9375 57.375C43.9375 54.3334 50.9375 51.2916 57.9375 48.25C59.4038 47.5901 60.7995 46.8194 62.125 45.9375C62.1854 45.819 62.2061 45.694 62.1875 45.5625Z" fill="#E6B17C"/>
<path fill-rule="evenodd" clip-rule="evenodd" d="M42.938 48.8125C42.8573 49.3497 42.6698 49.8498 42.3755 50.3125C41.2719 51.7296 39.8344 52.6255 38.063 53C34.7104 53.6099 31.3354 53.7349 27.938 53.375C26.6704 53.2565 26.3786 52.6731 27.063 51.625C29.4371 51.6699 31.8121 51.6699 34.188 51.625C35.3186 51.5514 36.4436 51.4264 37.563 51.25C38.9118 51.0145 39.995 50.3687 40.813 49.3125C41.5214 49.1459 42.2296 48.9791 42.938 48.8125Z" fill="#E6B17C"/>
</svg>
