<svg width="48" height="48" viewBox="0 0 48 48" fill="none" xmlns="http://www.w3.org/2000/svg">
<path d="M12.7207 1.5H35.2207V46.5H12.7207V1.5Z" fill="#E56353"/>
<path d="M46.4997 17.7L36.1797 13.8V46.5H46.4997V17.7Z" fill="#FCD462"/>
<path d="M35.2793 13.44V46.5H36.1793V13.8L35.2793 13.44Z" fill="#F6C358"/>
<path d="M1.5 17.7V46.5H11.82V13.8L1.5 17.7Z" fill="#FCD462"/>
<path d="M12.7803 13.44L11.8203 13.8V46.5H12.7803V13.44Z" fill="#F6C358"/>
<path d="M33.1484 4.1676V10.7676H14.7884V4.1676H33.1484Z" fill="#D15241"/>
<path d="M15.7793 5.10001H32.2193V9.84001H15.7793V5.10001Z" fill="#54C5ED"/>
<path d="M33.1914 11.7108V18.3108H14.8314V11.7108H33.1914Z" fill="#D15241"/>
<path d="M15.7793 12.66H32.2193V17.4H15.7793V12.66Z" fill="#54C5ED"/>
<path d="M33.1738 19.2546V25.8546H14.8138V19.2546H33.1738Z" fill="#D15241"/>
<path d="M15.7793 20.16H32.2193V24.9H15.7793V20.16Z" fill="#54C5ED"/>
<path d="M12.7793 45.72H15.7793V46.5H12.7793V45.72Z" fill="#D15241"/>
<path d="M32.2207 45.72H35.2207V46.5H32.2207V45.72Z" fill="#D15241"/>
<path d="M15.7793 29.04H32.2193V45.78H15.7793V29.04Z" fill="white"/>
<path d="M15.7793 45.72H32.2193V46.5H15.7793V45.72Z" fill="#EBF0F3"/>
<path d="M44.7969 19.5894V26.1894H37.8969V19.5894H44.7969Z" fill="#F6C358"/>
<path d="M38.8203 20.52H43.8003V25.26H38.8203V20.52Z" fill="#EBF0F3"/>
<path d="M44.8027 28.416V35.016H37.9027V28.416H44.8027Z" fill="#F6C358"/>
<path d="M38.8203 29.34H43.8003V34.08H38.8203V29.34Z" fill="#EBF0F3"/>
<path d="M44.8086 37.2426V43.8426H37.9086V37.2426H44.8086Z" fill="#F6C358"/>
<path d="M38.8203 38.16H43.8003V42.9H38.8203V38.16Z" fill="#EBF0F3"/>
<path d="M10.1094 19.5966V26.1966H3.20937V19.5966H10.1094Z" fill="#F6C358"/>
<path d="M4.14062 20.52H9.12062V25.26H4.14062V20.52Z" fill="#EBF0F3"/>
<path d="M10.1172 28.4232V35.0232H3.21719V28.4232H10.1172Z" fill="#F6C358"/>
<path d="M4.14062 29.34H9.12062V34.08H4.14062V29.34Z" fill="#EBF0F3"/>
<path d="M10.123 37.2498V43.8498H3.22304V37.2498H10.123Z" fill="#F6C358"/>
<path d="M4.14062 38.16H9.12062V42.9H4.14062V38.16Z" fill="#EBF0F3"/>
<path d="M23.5195 29.04H24.4795V46.5H23.5195V29.04Z" fill="#E1E6E9"/>
</svg>
