<svg width="114" height="114" viewBox="0 0 114 114" fill="none" xmlns="http://www.w3.org/2000/svg">
<path d="M32.1381 67.856L23.312 76.682C20.7352 76.3173 18.1083 76.593 15.6633 77.4846C13.2183 78.3762 11.0306 79.8564 9.29355 81.7942C3.59355 88.1177 4.13683 97.9145 10.1575 103.934C12.5028 106.315 15.54 107.895 18.836 108.448C22.1319 109.001 25.5183 108.499 28.5124 107.015C31.5066 105.53 33.9555 103.138 35.5101 100.179C37.0648 97.221 37.6457 93.8473 37.1701 90.5393L45.7914 81.91L32.1381 67.856ZM26.1442 97.8433C25.1412 98.8435 23.8642 99.524 22.4746 99.7986C21.085 100.073 19.6452 99.9297 18.3372 99.3861C17.0291 98.8426 15.9116 97.9235 15.1258 96.745C14.34 95.5664 13.9213 94.1814 13.9226 92.7649C13.9238 91.3484 14.345 89.9641 15.1328 88.787C15.9207 87.6098 17.0398 86.6926 18.3488 86.1514C19.6578 85.6102 21.0979 85.4692 22.487 85.7463C23.8761 86.0233 25.1519 86.706 26.1531 87.708C26.8186 88.3736 27.3463 89.164 27.7061 90.0338C28.0659 90.9036 28.2506 91.8358 28.2498 92.777C28.249 93.7183 28.0626 94.6502 27.7013 95.5194C27.34 96.3885 26.8109 97.1788 26.1442 97.8433Z" fill="#0054A6"/>
<path d="M112.665 30.0755L110.581 19.86C110.514 19.5276 110.359 19.2194 110.131 18.9683C109.903 18.7171 109.612 18.5324 109.287 18.4337C108.963 18.335 108.618 18.3261 108.289 18.4079C107.96 18.4897 107.659 18.6591 107.419 18.8981L97.2479 29.0691L84.1379 30.0568L83.7995 29.7183L84.7792 16.6003L94.9501 6.42938C95.1909 6.19034 95.3621 5.89031 95.4454 5.56142C95.5288 5.23253 95.5211 4.88717 95.4232 4.56232C95.3252 4.23747 95.1408 3.94538 94.8896 3.71732C94.6384 3.48925 94.3299 3.33382 93.9971 3.26766L83.7763 1.1827C83.4722 1.1222 83.1578 1.13768 82.861 1.22779C82.5643 1.3179 82.2944 1.47985 82.0752 1.69927L66.9702 16.8043C66.6655 17.1051 66.4736 17.5017 66.427 17.9273L64.4676 35.535L58.5449 41.4577L72.1982 55.5108L78.3168 49.3833L95.9334 47.424C96.3568 47.377 96.7521 47.1887 97.0555 46.8896L112.161 31.7846C112.38 31.5641 112.541 31.2924 112.629 30.9939C112.717 30.6955 112.729 30.3798 112.665 30.0755Z" fill="#0054A6"/>
<path d="M96.6325 87.0428L93.1297 83.4375L72.7344 103.255L76.2372 106.86C82.9089 113.728 92.8919 114.861 98.5251 109.389C99.894 108 100.934 106.323 101.569 104.48C102.204 102.636 102.417 100.674 102.194 98.7375C101.738 94.3162 99.7745 90.1865 96.6325 87.0428Z" fill="#FFDD33"/>
<path d="M30.3249 19.43L3.82876 9.51555C3.49546 9.39059 3.13352 9.3629 2.7851 9.43572C2.43668 9.50853 2.11612 9.67885 1.86076 9.92683C1.60541 10.1748 1.42577 10.4903 1.34278 10.8364C1.25979 11.1825 1.27686 11.5451 1.39201 11.8819L10.5396 38.6532L30.3249 19.43Z" fill="#FFDD33"/>
<path d="M26.3809 31.1453L34.5521 23.2019L89.1956 79.4134L81.0244 87.3567L26.3809 31.1453Z" fill="#FFDD33"/>
<path d="M14.166 42.9709L22.3373 35.0276L76.9808 91.2391L68.8095 99.1824L14.166 42.9709Z" fill="#FFDD33"/>
</svg>
