<svg width="64" height="64" viewBox="0 0 64 64" fill="none" xmlns="http://www.w3.org/2000/svg">
<path d="M23.0005 48.2899V60.9999H6.98047L7.00047 48.2299V48.2199L14.9405 43.6199L23.0005 48.2899Z" fill="#FFCD00"/>
<path d="M32 29C32.5523 29 33 28.5523 33 28C33 27.4477 32.5523 27 32 27C31.4477 27 31 27.4477 31 28C31 28.5523 31.4477 29 32 29Z" fill="#9BC9FF"/>
<path d="M42 55V59C42 59.5304 42.2107 60.0391 42.5858 60.4142C42.9609 60.7893 43.4696 61 44 61H54C54.5304 61 55.0391 60.7893 55.4142 60.4142C55.7893 60.0391 56 59.5304 56 59V55H42Z" fill="#6D6E71"/>
<path d="M56 41C56 40.4696 55.7893 39.9609 55.4142 39.5858C55.0391 39.2107 54.5304 39 54 39H44C43.4696 39 42.9609 39.2107 42.5858 39.5858C42.2107 39.9609 42 40.4696 42 41V55H56V41Z" fill="#2488FF"/>
<path d="M42 55H56V41C56 44.713 54.525 48.274 51.8995 50.8995C49.274 53.525 45.713 55 42 55Z" fill="#006DF0"/>
<path d="M6.99891 48.225L14.9389 43.62L22.9989 48.294L25.0089 49.46L26.9989 46L14.9389 39L2.87891 46L4.86891 49.46L6.99891 48.225Z" fill="#ED1C24"/>
<path d="M12 51H18V61H12V51Z" fill="#004FAC"/>
<path d="M47.9991 12.9999C46.898 12.9993 45.8032 13.1641 44.7511 13.4889C44.1641 10.5393 42.5726 7.88445 40.2478 5.97665C37.9229 4.06885 35.0085 3.02612 32.0011 3.02612C28.9936 3.02612 26.0792 4.06885 23.7544 5.97665C21.4295 7.88445 19.838 10.5393 19.2511 13.4889C17.7386 13.0222 16.1433 12.8874 14.574 13.0938C13.0047 13.3001 11.4984 13.8426 10.1579 14.6844C8.81752 15.5261 7.67454 16.6472 6.80705 17.9711C5.93956 19.2951 5.368 20.7906 5.1314 22.3556C4.8948 23.9207 4.99874 25.5183 5.43611 27.0395C5.87348 28.5607 6.63399 29.9695 7.66569 31.1699C8.6974 32.3703 9.976 33.3339 11.4142 33.9948C12.8524 34.6558 14.4163 34.9986 15.9991 34.9999H47.9991C50.9165 34.9999 53.7144 33.841 55.7773 31.7781C57.8402 29.7152 58.9991 26.9173 58.9991 23.9999C58.9991 21.0825 57.8402 18.2846 55.7773 16.2217C53.7144 14.1588 50.9165 12.9999 47.9991 12.9999Z" fill="#006DF0"/>
<path d="M39.7781 19.2218C39.9667 19.404 40.2193 19.5048 40.4815 19.5025C40.7437 19.5002 40.9945 19.395 41.1799 19.2096C41.3653 19.0242 41.4705 18.7734 41.4727 18.5112C41.475 18.249 41.3742 17.9964 41.1921 17.8078C38.7527 15.3728 35.4468 14.0051 32.0001 14.0051C28.5533 14.0051 25.2474 15.3728 22.8081 17.8078C22.6259 17.9964 22.5251 18.249 22.5274 18.5112C22.5297 18.7734 22.6348 19.0242 22.8202 19.2096C23.0056 19.395 23.2565 19.5002 23.5187 19.5025C23.7809 19.5048 24.0335 19.404 24.2221 19.2218C26.2865 17.1619 29.0837 16.0051 32.0001 16.0051C34.9164 16.0051 37.7136 17.1619 39.7781 19.2218Z" fill="#F1F2F2"/>
<path d="M29.8783 24.8779C30.1569 24.5991 30.4877 24.378 30.8518 24.2271C31.2159 24.0762 31.6062 23.9986 32.0003 23.9986C32.3944 23.9986 32.7847 24.0762 33.1488 24.2271C33.5129 24.378 33.8437 24.5991 34.1223 24.8779C34.3109 25.0601 34.5635 25.1609 34.8257 25.1586C35.0879 25.1563 35.3387 25.0511 35.5241 24.8657C35.7095 24.6803 35.8147 24.4295 35.817 24.1673C35.8193 23.9051 35.7185 23.6525 35.5363 23.4639C34.5978 22.5274 33.3261 22.0015 32.0003 22.0015C30.6745 22.0015 29.4028 22.5274 28.4643 23.4639C28.2821 23.6525 28.1814 23.9051 28.1836 24.1673C28.1859 24.4295 28.2911 24.6803 28.4765 24.8657C28.6619 25.0511 28.9127 25.1563 29.1749 25.1586C29.4371 25.1609 29.6897 25.0601 29.8783 24.8779Z" fill="#F1F2F2"/>
<path d="M27.0502 22.0498C28.3641 20.7391 30.1443 20.0031 32.0002 20.0031C33.8561 20.0031 35.6362 20.7391 36.9502 22.0498C37.1388 22.232 37.3914 22.3328 37.6536 22.3305C37.9158 22.3282 38.1666 22.2231 38.352 22.0377C38.5374 21.8523 38.6426 21.6014 38.6449 21.3393C38.6471 21.0771 38.5463 20.8245 38.3642 20.6358C36.6751 18.9504 34.3863 18.0039 32.0002 18.0039C29.614 18.0039 27.3253 18.9504 25.6362 20.6358C25.454 20.8245 25.3532 21.0771 25.3555 21.3393C25.3578 21.6014 25.463 21.8523 25.6484 22.0377C25.8338 22.2231 26.0846 22.3282 26.3468 22.3305C26.609 22.3328 26.8616 22.232 27.0502 22.0498Z" fill="#F1F2F2"/>
<path d="M32 29.9998C33.1046 29.9998 34 29.1043 34 27.9998C34 26.8952 33.1046 25.9998 32 25.9998C30.8954 25.9998 30 26.8952 30 27.9998C30 29.1043 30.8954 29.9998 32 29.9998Z" fill="#F1F2F2"/>
<path d="M50 57H48C47.7348 57 47.4804 57.1054 47.2929 57.2929C47.1054 57.4804 47 57.7348 47 58C47 58.2652 47.1054 58.5196 47.2929 58.7071C47.4804 58.8946 47.7348 59 48 59H50C50.2652 59 50.5196 58.8946 50.7071 58.7071C50.8946 58.5196 51 58.2652 51 58C51 57.7348 50.8946 57.4804 50.7071 57.2929C50.5196 57.1054 50.2652 57 50 57Z" fill="#58595B"/>
<path d="M33 54V33C33 32.7348 32.8946 32.4804 32.7071 32.2929C32.5196 32.1054 32.2652 32 32 32C31.7348 32 31.4804 32.1054 31.2929 32.2929C31.1054 32.4804 31 32.7348 31 33V54H23V56H42V54H33Z" fill="#9BC9FF"/>
<path d="M32 57C33.1046 57 34 56.1046 34 55C34 53.8954 33.1046 53 32 53C30.8954 53 30 53.8954 30 55C30 56.1046 30.8954 57 32 57Z" fill="#ED1C24"/>
</svg>
