<svg width="64" height="64" viewBox="0 0 64 64" fill="none" xmlns="http://www.w3.org/2000/svg">
<path d="M51 25V30C51 30.7956 50.6839 31.5587 50.1213 32.1213C49.5587 32.6839 48.7957 33 48 33H36C35.2044 33 34.4413 32.6839 33.8787 32.1213C33.3161 31.5587 33 30.7956 33 30V11C32.9984 9.67441 32.4711 8.40356 31.5338 7.46622C30.5964 6.52888 29.3256 6.00159 28 6H19C17.6744 6.00159 16.4036 6.52888 15.4662 7.46622C14.5289 8.40356 14.0016 9.67441 14 11V15H16V11C16 10.2044 16.3161 9.44129 16.8787 8.87868C17.4413 8.31607 18.2044 8 19 8H28C28.7956 8 29.5587 8.31607 30.1213 8.87868C30.6839 9.44129 31 10.2044 31 11V30C31.0016 31.3256 31.5289 32.5964 32.4662 33.5338C33.4036 34.4711 34.6744 34.9984 36 35H48C49.3256 34.9984 50.5964 34.4711 51.5338 33.5338C52.4711 32.5964 52.9984 31.3256 53 30V25H51Z" fill="#A7A9AC"/>
<path d="M15 15C12.6266 15 10.3066 15.7038 8.33316 17.0224C6.35977 18.3409 4.8217 20.2151 3.91345 22.4078C3.0052 24.6005 2.76756 27.0133 3.23058 29.3411C3.6936 31.6689 4.83649 33.8071 6.51472 35.4853C8.19295 37.1635 10.3312 38.3064 12.6589 38.7694C14.9867 39.2324 17.3995 38.9948 19.5922 38.0866C21.7849 37.1783 23.6591 35.6402 24.9776 33.6668C26.2962 31.6935 27 29.3734 27 27C27 23.8174 25.7357 20.7652 23.4853 18.5147C21.2348 16.2643 18.1826 15 15 15Z" fill="#006DF0"/>
<path d="M15 35C15.5523 35 16 34.5523 16 34C16 33.4477 15.5523 33 15 33C14.4477 33 14 33.4477 14 34C14 34.5523 14.4477 35 15 35Z" fill="#ED1C24"/>
<path d="M61 12C61 16.97 52 27 52 27C52 27 43 16.97 43 12C43 9.61305 43.9482 7.32387 45.636 5.63604C47.3239 3.94821 49.6131 3 52 3C54.3869 3 56.6761 3.94821 58.364 5.63604C60.0518 7.32387 61 9.61305 61 12Z" fill="#ED1C24"/>
<path d="M52 15C53.6569 15 55 13.6569 55 12C55 10.3431 53.6569 9 52 9C50.3431 9 49 10.3431 49 12C49 13.6569 50.3431 15 52 15Z" fill="#F1F2F2"/>
<path d="M61 46.95V56L52.91 56.94L44.41 58H3.00001V55C2.99817 53.6227 3.28429 52.2602 3.84001 51C4.61702 49.2168 5.89766 47.6991 7.52482 46.6333C9.15197 45.5675 11.0549 44.9998 13 45H45L54.02 41.72L58.28 43.16C59.0729 43.4278 59.7618 43.9375 60.2497 44.6174C60.7377 45.2973 61.0001 46.1131 61 46.95Z" fill="#EF353C"/>
<path d="M58.28 43.16L54.02 41.72L45 45C45 46.5913 44.3679 48.1174 43.2426 49.2426C42.1174 50.3678 40.5913 51 39 51H3.84001C3.28429 52.2602 2.99817 53.6227 3.00001 55V58H44.41L52.91 56.94L61 56V46.95C61.0001 46.1131 60.7377 45.2973 60.2497 44.6174C59.7618 43.9375 59.0729 43.4278 58.28 43.16Z" fill="#ED1C24"/>
<path d="M6.00001 54L8.00001 51H3.84001C3.28429 52.2602 2.99817 53.6227 3.00001 55L6.00001 54Z" fill="#BDDBFF"/>
<path d="M15 61C17.7614 61 20 58.7614 20 56C20 53.2386 17.7614 51 15 51C12.2386 51 10 53.2386 10 56C10 58.7614 12.2386 61 15 61Z" fill="#414042"/>
<path d="M48 61C50.7614 61 53 58.7614 53 56C53 53.2386 50.7614 51 48 51C45.2386 51 43 53.2386 43 56C43 58.7614 45.2386 61 48 61Z" fill="#414042"/>
<path d="M56 51H61V47L57 48L56 51Z" fill="#FF6243"/>
<path d="M39.056 38H34L33 45H45L43.194 38.368C41.8279 38.1259 40.4434 38.0027 39.056 38Z" fill="#BDDBFF"/>
<path d="M34 38L33 45H34L35 38H34Z" fill="#9BC9FF"/>
<path d="M46.7373 39.2619C45.5811 38.8742 44.397 38.5753 43.1953 38.3679L45.0013 44.9999L54.0183 41.7209L46.7373 39.2619Z" fill="#BDDBFF"/>
<path d="M44.2563 38.5939C43.9033 38.5159 43.5513 38.4309 43.1953 38.3679L45.0013 44.9999L45.9113 44.6689L44.2563 38.5939Z" fill="#9BC9FF"/>
<path d="M30.971 38C29.395 37.9999 27.8344 38.3103 26.3784 38.9134C24.9223 39.5165 23.5994 40.4006 22.485 41.515L19 45H33L34 38H30.971Z" fill="#BDDBFF"/>
<path d="M48 58C49.1046 58 50 57.1046 50 56C50 54.8954 49.1046 54 48 54C46.8954 54 46 54.8954 46 56C46 57.1046 46.8954 58 48 58Z" fill="#58595B"/>
<path d="M15 58C16.1046 58 17 57.1046 17 56C17 54.8954 16.1046 54 15 54C13.8954 54 13 54.8954 13 56C13 57.1046 13.8954 58 15 58Z" fill="#58595B"/>
<path d="M29 49H31C31.2652 49 31.5196 48.8946 31.7071 48.7071C31.8946 48.5196 32 48.2652 32 48C32 47.7348 31.8946 47.4804 31.7071 47.2929C31.5196 47.1054 31.2652 47 31 47H29C28.7348 47 28.4804 47.1054 28.2929 47.2929C28.1054 47.4804 28 47.7348 28 48C28 48.2652 28.1054 48.5196 28.2929 48.7071C28.4804 48.8946 28.7348 49 29 49Z" fill="#CF1820"/>
<path d="M43 47H41C40.7348 47 40.4804 47.1054 40.2929 47.2929C40.1054 47.4804 40 47.7348 40 48C40 48.2652 40.1054 48.5196 40.2929 48.7071C40.4804 48.8946 40.7348 49 41 49H43C43.2652 49 43.5196 48.8946 43.7071 48.7071C43.8946 48.5196 44 48.2652 44 48C44 47.7348 43.8946 47.4804 43.7071 47.2929C43.5196 47.1054 43.2652 47 43 47Z" fill="#CF1820"/>
<path d="M39 53H24C23.7348 53 23.4804 53.1054 23.2929 53.2929C23.1054 53.4804 23 53.7348 23 54C23 54.2652 23.1054 54.5196 23.2929 54.7071C23.4804 54.8946 23.7348 55 24 55H39C39.2652 55 39.5196 54.8946 39.7071 54.7071C39.8946 54.5196 40 54.2652 40 54C40 53.7348 39.8946 53.4804 39.7071 53.2929C39.5196 53.1054 39.2652 53 39 53Z" fill="#CF1820"/>
<path d="M15.0001 21.9999C16.4446 21.9954 17.8756 22.2783 19.2097 22.8322C20.5438 23.386 21.7545 24.1997 22.7711 25.2259C22.9583 25.414 23.2126 25.5199 23.478 25.5205C23.7433 25.5211 23.9981 25.4162 24.1861 25.2289C24.3741 25.0417 24.4801 24.7874 24.4806 24.5221C24.4812 24.2567 24.3763 24.002 24.1891 23.8139C22.9837 22.6049 21.5515 21.6457 19.9747 20.9912C18.3978 20.3367 16.7074 19.9998 15.0001 19.9998C13.2928 19.9998 11.6023 20.3367 10.0255 20.9912C8.44869 21.6457 7.01652 22.6049 5.81109 23.8139C5.62385 24.002 5.51897 24.2567 5.51953 24.5221C5.5201 24.7874 5.62605 25.0417 5.81409 25.2289C6.00213 25.4162 6.25685 25.5211 6.52221 25.5205C6.78757 25.5199 7.04185 25.414 7.22909 25.2259C8.24572 24.1997 9.45635 23.386 10.7905 22.8322C12.1246 22.2783 13.5556 21.9954 15.0001 21.9999Z" fill="#F1F2F2"/>
<path d="M14.9982 24C13.8165 23.9981 12.646 24.2307 11.5548 24.6844C10.4636 25.138 9.47327 25.8038 8.64123 26.643C8.54572 26.7353 8.46953 26.8456 8.41712 26.9676C8.36472 27.0896 8.33713 27.2208 8.33598 27.3536C8.33482 27.4864 8.36012 27.6181 8.4104 27.741C8.46068 27.8639 8.53494 27.9755 8.62883 28.0694C8.72272 28.1633 8.83438 28.2376 8.95727 28.2878C9.08017 28.3381 9.21185 28.3634 9.34463 28.3623C9.47741 28.3611 9.60863 28.3335 9.73063 28.2811C9.85263 28.2287 9.96298 28.1525 10.0552 28.057C10.7028 27.4052 11.473 26.8879 12.3213 26.5349C13.1696 26.1819 14.0794 26.0002 14.9982 26.0002C15.9171 26.0002 16.8268 26.1819 17.6752 26.5349C18.5235 26.8879 19.2936 27.4052 19.9412 28.057C20.1298 28.2392 20.3824 28.34 20.6446 28.3377C20.9068 28.3354 21.1576 28.2302 21.343 28.0448C21.5285 27.8594 21.6336 27.6086 21.6359 27.3464C21.6382 27.0842 21.5374 26.8316 21.3552 26.643C20.5232 25.8038 19.5329 25.138 18.4416 24.6844C17.3504 24.2307 16.18 23.9981 14.9982 24Z" fill="#F1F2F2"/>
<path d="M14.9996 28C13.6759 28.0003 12.4061 28.5245 11.4676 29.458C11.2955 29.647 11.2023 29.8948 11.2072 30.1504C11.2121 30.406 11.3147 30.65 11.4939 30.8323C11.6732 31.0146 11.9154 31.1214 12.1709 31.1306C12.4264 31.1398 12.6757 31.0509 12.8676 30.882C13.4409 30.3348 14.203 30.0294 14.9956 30.0294C15.7882 30.0294 16.5503 30.3348 17.1236 30.882C17.3155 31.0509 17.5649 31.1398 17.8203 31.1306C18.0758 31.1214 18.3181 31.0146 18.4973 30.8323C18.6765 30.65 18.7791 30.406 18.784 30.1504C18.7889 29.8948 18.6957 29.647 18.5236 29.458C17.5871 28.5264 16.3206 28.0024 14.9996 28Z" fill="#F1F2F2"/>
<path d="M15 36C16.1046 36 17 35.1046 17 34C17 32.8954 16.1046 32 15 32C13.8954 32 13 32.8954 13 34C13 35.1046 13.8954 36 15 36Z" fill="#F1F2F2"/>
</svg>
