<svg width="114" height="114" viewBox="0 0 114 114" fill="none" xmlns="http://www.w3.org/2000/svg">
<path d="M92.4636 46.8158V82.2395H31.4082V46.8158C31.4082 45.3758 32.5602 44.1519 34.0722 44.1519H89.7997C91.3116 44.1519 92.4636 45.3038 92.4636 46.8158Z" fill="#D2D9DC"/>
<path d="M25.9368 84.1115L26.4408 85.1915C27.5208 87.4234 29.8248 88.8634 32.3447 88.8634H91.4562C93.9762 88.8634 96.2802 87.4234 97.3602 85.1915L97.8641 84.1115C98.2961 83.2475 97.6481 82.1675 96.7122 82.1675H27.1608C26.1528 82.1675 25.5048 83.2475 25.9368 84.1115Z" fill="#839299"/>
<path opacity="0.19" d="M51.7832 82.1675L52.2152 83.0315C52.5032 83.6795 53.2232 84.1115 53.9432 84.1115H69.999C70.719 84.1115 71.367 83.6795 71.727 83.0315L72.159 82.1675H51.7832Z" fill="#2D2F31"/>
<path d="M34.0723 46.8159H89.7998V79.5756H34.0723V46.8159Z" fill="#0054A6"/>
<path d="M70.7197 43.6478C70.7197 47.2478 67.8397 50.1278 64.2397 50.1278H27.8081C24.2081 50.1278 21.3281 47.2478 21.3281 43.6478C21.3281 40.0479 24.2081 37.1679 27.8081 37.1679C28.4561 37.1679 29.0321 37.2399 29.608 37.4559C29.4641 37.0239 29.4641 36.5199 29.4641 36.0159C29.4641 32.8479 32.056 30.256 35.224 30.256C36.736 30.256 38.176 30.9039 39.184 31.8399C39.4 28.024 42.5679 25 46.4559 25C50.1279 25 53.1518 27.736 53.6558 31.2639C54.5918 30.6159 55.6718 30.256 56.8958 30.256C60.0638 30.256 62.6557 32.8479 62.6557 36.0159C62.6557 36.5199 62.5837 36.9519 62.5117 37.4559C63.0877 37.3119 63.6637 37.1679 64.3117 37.1679C67.8397 37.1679 70.7197 40.0479 70.7197 43.6478Z" fill="#839299"/>
<path d="M50.92 35.2958C50.632 35.5838 50.272 35.5838 49.984 35.2958C47.824 33.1358 44.2961 33.1358 42.0641 35.2958C41.7761 35.5838 41.4161 35.5838 41.1281 35.2958C40.8401 35.0078 40.8401 34.6478 41.1281 34.3598C43.7921 31.6958 48.184 31.6958 50.92 34.3598C51.208 34.6478 51.208 35.0078 50.92 35.2958Z" fill="white"/>
<path d="M43.4292 35.7999L39.6133 36.8079L40.6213 32.9919L43.4292 35.7999Z" fill="white"/>
<path d="M50.922 44.1517C48.186 46.8877 43.794 46.8877 41.1301 44.1517C40.8421 43.8637 40.8421 43.5038 41.1301 43.2158C41.4181 42.9278 41.7781 42.9278 42.0661 43.2158C44.226 45.3757 47.826 45.3757 49.986 43.2158C50.274 42.9278 50.634 42.9278 50.922 43.2158C51.21 43.4318 51.21 43.8637 50.922 44.1517Z" fill="white"/>
<path d="M48.6152 42.7116L52.4312 41.7036L51.4232 45.5196L48.6152 42.7116Z" fill="white"/>
<path d="M81.8806 61.3597H80.8726V41.6319C80.8726 40.4799 79.9366 39.5439 78.7846 39.5439H46.9609V38.5359H78.7126C80.4406 38.5359 81.8086 39.9039 81.8086 41.6319V61.3597H81.8806Z" fill="#002548"/>
<path d="M83.6063 62.5838C83.6063 63.8078 82.5983 64.8157 81.3743 64.8157C80.1503 64.8157 79.0703 63.8078 79.0703 62.5838C79.0703 61.3598 80.0783 60.2798 81.3743 60.2798C82.5983 60.2798 83.6063 61.2878 83.6063 62.5838Z" fill="#002548"/>
<path d="M48.2567 39.1118C48.2567 40.3358 47.2487 41.3438 46.0247 41.3438C44.8007 41.3438 43.7207 40.3358 43.7207 39.1118C43.7207 37.8879 44.7287 36.8079 46.0247 36.8079C47.3207 36.8079 48.2567 37.8159 48.2567 39.1118Z" fill="#002548"/>
<path d="M39.3998 49.5518V75.5436C39.3998 76.7676 38.3918 77.7755 37.1678 77.7755H18.232C17.008 77.7755 16 76.7676 16 75.5436V54.7358L23.4159 47.3198H37.1678C38.3918 47.3198 39.3998 48.3278 39.3998 49.5518Z" fill="#54CC5A"/>
<path d="M23.4159 47.3198V52.4318C23.4159 53.6558 22.4079 54.6638 21.184 54.6638H16L23.4159 47.3198Z" fill="#54CC5A"/>
<path opacity="0.19" d="M23.4159 47.3198V52.4318C23.4159 53.6558 22.4079 54.6638 21.184 54.6638H16L23.4159 47.3198Z" fill="#2D2F31"/>
<path d="M29.8976 62.4395V67.9834C29.8976 68.3434 29.6096 68.7034 29.1776 68.7034H26.1536C25.7936 68.7034 25.4336 68.4154 25.4336 67.9834V62.4395H29.8976Z" fill="#F9FAFB"/>
<path d="M28.3132 56.7515L31.0492 61.2874C31.3372 61.7914 30.9772 62.3674 30.4732 62.3674H24.9292C24.3532 62.3674 24.0652 61.7914 24.3532 61.2874L27.0892 56.7515C27.3772 56.3195 28.0252 56.3195 28.3132 56.7515Z" fill="#F9FAFB"/>
<path d="M70.8636 63.1596C70.8636 68.1276 66.8317 72.0875 61.9357 72.0875C56.9678 72.0875 53.0078 68.0556 53.0078 63.1596C53.0078 58.2637 56.9678 54.2317 61.9357 54.2317C66.8317 54.2317 70.8636 58.2637 70.8636 63.1596Z" fill="#ED1C24"/>
<path d="M66.1829 64.0235L60.6389 67.3355C59.9909 67.7675 59.127 67.2635 59.127 66.4715V59.7755C59.127 58.9835 59.9909 58.5515 60.6389 58.9115L66.1829 62.2955C66.8309 62.7275 66.8309 63.5915 66.1829 64.0235Z" fill="#F9FAFB"/>
</svg>
