<svg width="334" height="240" viewBox="0 0 334 240" fill="none" xmlns="http://www.w3.org/2000/svg">
<path d="M233.7 122.1L273.9 79.3999C270.5 73.1999 271.201 66.4999 276.701 60.5999C281.701 55.2999 289 53.5999 295.6 55.5999C296.8 55.9999 297.2 57.5999 296.3 58.4999L285.701 69.6999C284.9 70.4999 285 71.7999 285.8 72.5999L291 77.4999C291.9 78.2999 293.3 78.2999 294.1 77.3999L304.5 66.2999C305.4 65.2999 307.1 65.5999 307.5 66.8999C310.1 73.8999 308.3 82.1999 302 87.4999C297.1 91.5999 291.3 93.0999 285 89.9999L244.8 132.7C248.2 138.9 247.5 145.6 242 151.5C237 156.8 229.7 158.5 223.1 156.5C221.9 156.1 221.5 154.5 222.4 153.6L233 142.4C233.8 141.6 233.7 140.3 232.9 139.5L227.7 134.6C226.8 133.8 225.4 133.8 224.6 134.7L214.2 145.8C213.3 146.8 211.6 146.5 211.2 145.2C208.6 138.2 210.4 129.9 216.7 124.6C221.6 120.5 227.3 119 233.7 122.1Z" fill="#5F737C"/>
<path d="M92.1991 42.3C92.0991 40.7 90.9991 39.3 89.3991 39.1L86.2991 38.5C85.1991 38.3 84.2991 37.6 83.7991 36.6C83.6991 36.3 83.4991 35.9 83.2991 35.5C82.7991 34.5 82.8991 33.3 83.3991 32.3L84.9991 29.6C85.7991 28.2 85.5991 26.4 84.3991 25.4L77.1991 18.7C75.9991 17.6 74.1991 17.4 72.8991 18.4L70.2991 20C69.3991 20.6 68.1991 20.8 67.0991 20.4C66.7991 20.2 66.3991 20.1 65.9991 19.9C64.8991 19.5 64.0991 18.6 63.7991 17.6L62.9991 14.6C62.5991 13 61.1991 12 59.4991 12L49.6991 12.3C48.0991 12.4 46.7991 13.5 46.4991 15.1L45.8991 18.3C45.6991 19.4 44.9991 20.3 43.8991 20.8C43.4991 21 43.1991 21.1 42.7991 21.3C41.7991 21.8 40.5991 21.7 39.5991 21.2L36.9991 19.5C35.5991 18.7 33.8991 18.9 32.7991 20.1L25.9991 27.3C24.8991 28.4 24.7991 30.2 25.6991 31.6L27.4991 34.2C28.0991 35.1 28.2991 36.3 27.7991 37.3C27.6991 37.7 27.4991 38.1 27.3991 38.4C27.0991 39.5 26.0991 40.2 25.0991 40.5L21.9991 41.4C20.3991 41.8 19.3991 43.3 19.4991 44.8L19.7991 54.6C19.8991 56.2 20.9991 57.6 22.5991 57.9L25.6991 58.5C26.7991 58.7 27.7991 59.4 28.1991 60.5C28.2991 60.9 28.4991 61.2 28.6991 61.6C29.1991 62.6 29.0991 63.8 28.4991 64.8L26.8991 67.5C26.0991 68.9 26.3991 70.6 27.4991 71.7L34.6991 78.4C35.8991 79.5 37.6991 79.6 38.9991 78.7L41.5991 76.9C42.4991 76.3 43.6991 76.1 44.6991 76.5C44.9991 76.6 45.3991 76.8 45.7991 76.9C46.8991 77.3 47.5991 78.2 47.8991 79.2L48.6991 82.3C49.0991 83.9 50.4991 84.9 52.0991 84.9L61.8991 84.6C63.4991 84.5 64.8991 83.4 65.0991 81.8L65.6991 78.7C65.8991 77.6 66.5991 76.7 67.5991 76.2C67.9991 76 68.3991 75.9 68.6991 75.7C69.6991 75.2 70.8991 75.3 71.8991 75.8L74.5991 77.4C75.9991 78.2 77.7991 77.9 78.7991 76.8L85.4991 69.6C86.5991 68.4 86.6991 66.6 85.7991 65.3L83.9991 62.7C83.3991 61.8 83.1991 60.6 83.6991 59.6C83.799 59.2 83.9991 58.8 84.0991 58.5C84.3991 57.4 85.3991 56.7 86.4991 56.4L89.5991 55.6C91.0991 55.2 92.1991 53.8 92.0991 52.2L92.1991 42.3ZM55.9991 65.4C46.6991 65.4 39.0991 57.8 39.0991 48.5C39.0991 39.2 46.6991 31.6 55.9991 31.6C65.2991 31.6 72.8991 39.2 72.8991 48.5C72.8991 57.8 65.2991 65.4 55.9991 65.4Z" fill="#D2D9DC"/>
<path d="M262.198 53.7998V197.4C262.198 200.5 259.798 202.9 256.698 202.9H62.0977C59.0977 202.9 56.5977 200.4 56.5977 197.4V53.7998C56.5977 50.7998 59.0977 48.2998 62.0977 48.2998H256.698C259.698 48.2998 262.198 50.6998 262.198 53.7998Z" fill="#F9FAFB"/>
<path d="M262.198 53.7998V63.1998H56.5977V53.7998C56.5977 50.7998 59.0977 48.2998 62.0977 48.2998H256.698C259.698 48.2998 262.198 50.6998 262.198 53.7998Z" fill="#002548"/>
<path d="M66.9992 58.0004C68.2695 58.0004 69.2992 56.9706 69.2992 55.7004C69.2992 54.4301 68.2695 53.4004 66.9992 53.4004C65.729 53.4004 64.6992 54.4301 64.6992 55.7004C64.6992 56.9706 65.729 58.0004 66.9992 58.0004Z" fill="white"/>
<path d="M75.3977 58.0004C76.6679 58.0004 77.6977 56.9706 77.6977 55.7004C77.6977 54.4301 76.6679 53.4004 75.3977 53.4004C74.1274 53.4004 73.0977 54.4301 73.0977 55.7004C73.0977 56.9706 74.1274 58.0004 75.3977 58.0004Z" fill="white"/>
<path d="M83.8 58.0004C85.0703 58.0004 86.1 56.9706 86.1 55.7004C86.1 54.4301 85.0703 53.4004 83.8 53.4004C82.5297 53.4004 81.5 54.4301 81.5 55.7004C81.5 56.9706 82.5297 58.0004 83.8 58.0004Z" fill="white"/>
<path d="M63.4016 173.9C63.4016 172.8 62.5016 172 61.5016 172H33.5016C32.4016 172 31.6016 172.9 31.6016 173.9V175.8V180.2V226C31.6016 227.1 32.5016 227.9 33.5016 227.9H95.7016C96.8016 227.9 97.6016 227 97.6016 226V177.7C97.6016 176.6 96.7016 175.8 95.7016 175.8H65.3016C64.2016 175.8 63.4016 175 63.4016 173.9Z" fill="#FFBD86"/>
<path d="M94.6008 179.5H34.3008V228H94.6008V179.5Z" fill="#F9FAFB"/>
<path d="M62.7 185.8C62.7 187.4 61.4 188.8 59.7 188.8H34.5C32.9 188.8 31.5 190.1 31.5 191.8V225C31.5 226.6 32.8 228 34.5 228H94.6C96.2 228 97.6 226.7 97.6 225V191.5V188.7V185.7C97.6 184.1 96.3 182.7 94.6 182.7H65.7C64 182.8 62.7 184.1 62.7 185.8Z" fill="#FED2A4"/>
<path d="M224.999 145.3C218.299 152 209.399 155.7 199.999 155.7C190.499 155.7 181.699 152 174.999 145.3L159.399 129.7L143.799 145.3C137.099 152 128.199 155.7 118.799 155.7C109.299 155.7 100.499 152 93.7992 145.3C79.9992 131.5 79.9992 109 93.7992 95.1998C100.699 88.2998 109.799 84.7998 118.799 84.7998C127.899 84.7998 136.899 88.2998 143.799 95.1998L159.399 110.8L174.999 95.1998C181.899 88.2998 190.999 84.7998 199.999 84.7998C209.099 84.7998 218.099 88.2998 224.999 95.1998C231.699 101.9 235.399 110.8 235.399 120.2C235.399 129.7 231.699 138.6 224.999 145.3ZM134.299 104.7C130.099 100.5 124.599 98.1998 118.699 98.1998C112.799 98.1998 107.299 100.5 103.099 104.7C98.8992 108.9 96.5992 114.4 96.5992 120.3C96.5992 126.2 98.8992 131.7 103.099 135.9C107.299 140.1 112.799 142.4 118.699 142.4C124.599 142.4 130.099 140.1 134.299 135.9L149.899 120.3L134.299 104.7ZM149.899 120.3L134.299 104.7L149.899 120.3ZM215.499 104.7C206.899 96.0998 192.899 96.0998 184.299 104.7L168.699 120.3L184.299 135.9C188.499 140.1 193.999 142.4 199.899 142.4C205.799 142.4 211.299 140.1 215.499 135.9C219.699 131.7 221.999 126.2 221.999 120.3C221.999 114.4 219.699 108.8 215.499 104.7Z" fill="#0054A6"/>
<path d="M118.798 84.9004C109.698 84.9004 100.698 88.4004 93.7977 95.3004C87.5977 101.5 84.1977 109.4 83.5977 117.5L90.0977 124.2L96.8977 118.2C97.3977 113.1 99.5977 108.5 103.198 104.8C107.398 100.6 112.898 98.3004 118.798 98.3004C124.698 98.3004 130.198 100.6 134.398 104.8L139.798 110.2L147.598 99.1004L143.798 95.3004C136.898 88.3004 127.798 84.9004 118.798 84.9004Z" fill="#FFDD33"/>
<path d="M168.799 120.3L172.599 116.5L162.499 107.7L159.299 110.9L145.299 96.8998L134.699 96.2998L135.299 105.8L149.899 120.4L148.299 122L157.999 131.2L159.299 129.9L174.899 145.5C174.999 145.6 175.199 145.7 175.299 145.9L181.699 133.4L168.799 120.3Z" fill="#0054A6"/>
<path d="M235.201 117.1L222.001 120.2C222.001 126.1 219.701 131.6 215.501 135.8C211.301 140 205.801 142.3 199.901 142.3C194.001 142.3 188.501 140 184.301 135.8L179.901 131.4L171.301 132.4L172.401 142.9L174.801 145.3C181.501 152 190.401 155.7 199.801 155.7C209.301 155.7 218.101 152 224.801 145.3C231.501 138.6 235.201 129.7 235.201 120.3C235.401 119.2 235.301 118.2 235.201 117.1Z" fill="#FFDD33"/>
<path opacity="0.19" d="M170.398 121.9L160.798 131.1L148.098 118.3L157.698 109.1L170.398 121.9Z" fill="#2D2F31"/>
<path d="M229.499 125.5L235.299 118.2C234.799 109.5 231.199 101.5 224.999 95.3004C218.099 88.4004 208.999 84.9004 199.999 84.9004C190.899 84.9004 181.899 88.4004 174.999 95.3004L165.199 105.1L176.999 112.2L184.399 104.8C192.999 96.2004 206.999 96.2004 215.599 104.8C219.799 109 222.099 114.5 222.099 120.4C222.099 120.4 222.099 120.4 222.099 120.5L229.499 125.5Z" fill="#0054A6"/>
<path d="M181 108.1L181.8 98.0996L170.9 99.2996L139 131.2L147.8 132.4L147.3 141.7L181 108.1Z" fill="#FFDD33"/>
<path opacity="0.5" d="M130.798 177.2H101.898C99.0984 177.2 96.8984 175 96.8984 172.2C96.8984 169.4 99.0984 167.2 101.898 167.2H130.798C133.598 167.2 135.798 169.4 135.798 172.2C135.798 174.9 133.598 177.2 130.798 177.2Z" fill="#839299"/>
<path opacity="0.5" d="M174.099 177.2H145.199C142.399 177.2 140.199 175 140.199 172.2C140.199 169.4 142.399 167.2 145.199 167.2H174.099C176.899 167.2 179.099 169.4 179.099 172.2C179.099 174.9 176.799 177.2 174.099 177.2Z" fill="#839299"/>
<path opacity="0.5" d="M216.8 177.2H188C185.2 177.2 183 175 183 172.2C183 169.4 185.2 167.2 188 167.2H216.9C219.7 167.2 221.9 169.4 221.9 172.2C221.8 174.9 219.6 177.2 216.8 177.2Z" fill="#839299"/>
<path d="M238.467 191.475L234.012 196.208L243.697 205.324L248.152 200.591L238.467 191.475Z" fill="#5F737C"/>
<path d="M270.901 223.3L267.801 226.6C266.401 228 264.201 228.1 262.701 226.8L240.901 206.3C239.501 204.9 239.401 202.7 240.701 201.2L243.801 197.9C245.201 196.5 247.401 196.4 248.901 197.7L270.701 218.2C272.201 219.6 272.301 221.8 270.901 223.3Z" fill="#0054A6"/>
<path d="M237.399 162.3C228.099 153.6 213.499 154 204.799 163.3C196.099 172.6 196.499 187.2 205.799 195.9C215.099 204.6 229.699 204.2 238.399 194.9C247.099 185.6 246.599 171 237.399 162.3ZM234.699 191.4C227.899 198.6 216.499 199 209.299 192.2C202.099 185.4 201.699 174 208.499 166.8C215.299 159.6 226.699 159.2 233.899 166C241.099 172.8 241.499 184.2 234.699 191.4Z" fill="#839299"/>
<path d="M314.598 103.4V147.7C314.598 149.4 313.198 150.8 311.498 150.8H251.998C250.298 150.8 248.898 149.4 248.898 147.7V103.4C248.898 101.7 250.298 100.3 251.998 100.3H311.498C313.198 100.3 314.598 101.7 314.598 103.4Z" fill="#D2D9DC"/>
<path d="M189.2 26.3002V70.6002C189.2 72.3002 187.8 73.7002 186.1 73.7002H126.6C124.9 73.7002 123.5 72.3002 123.5 70.6002V26.3002C123.5 24.6002 124.9 23.2002 126.6 23.2002H186.1C187.8 23.2002 189.2 24.6002 189.2 26.3002Z" fill="#D2D9DC"/>
<path d="M280.501 129.4C280.401 129.4 280.401 129.4 280.501 129.4C280.301 129.3 280.201 129.2 280.301 129.1L283.001 121.9C283.001 121.8 283.201 121.7 283.301 121.8C283.401 121.8 283.501 122 283.401 122.1L280.701 129.3C280.701 129.3 280.601 129.4 280.501 129.4Z" fill="#839299"/>
<path d="M279.201 127.501C279.101 127.501 279.101 127.501 279.201 127.501L275.001 125.801C274.901 125.801 274.901 125.601 275.001 125.501L279.101 123.701C279.201 123.601 279.401 123.701 279.401 123.801C279.501 123.901 279.401 124.101 279.301 124.101L276.301 125.401C276.201 125.401 276.201 125.601 276.301 125.701L279.401 127.001C279.501 127.101 279.601 127.201 279.501 127.301C279.301 127.501 279.301 127.501 279.201 127.501Z" fill="#839299"/>
<path d="M284.201 127.501C284.301 127.501 284.301 127.501 284.201 127.501L288.401 125.801C288.501 125.801 288.501 125.601 288.401 125.501L284.301 123.701C284.201 123.601 284.001 123.701 284.001 123.801C283.901 123.901 284.001 124.101 284.101 124.101L287.101 125.401C287.201 125.401 287.201 125.601 287.101 125.701L284.001 127.001C283.901 127.101 283.801 127.201 283.901 127.301C284.001 127.501 284.101 127.501 284.201 127.501Z" fill="#839299"/>
<path d="M301.1 122.2C301.1 121.4 300.4 120.6 299.6 120.5L297.9 120.2C297.3 120.1 296.8 119.7 296.6 119.2C296.5 119 296.4 118.8 296.3 118.6C296 118.1 296.1 117.4 296.4 116.9L297.2 115.4C297.6 114.7 297.5 113.7 296.9 113.1L293 109.5C292.4 108.9 291.4 108.8 290.7 109.3L289.3 110.3C288.8 110.6 288.2 110.7 287.6 110.5C287.4 110.4 287.2 110.3 287 110.3C286.4 110.1 286 109.6 285.8 109L285.4 107.4C285.2 106.6 284.4 106 283.5 106L278.2 106.2C277.4 106.2 276.6 106.8 276.5 107.7L276.2 109.4C276.1 110 275.7 110.5 275.1 110.7C274.9 110.8 274.7 110.9 274.5 111C274 111.3 273.3 111.2 272.8 110.9L271.3 110.1C270.6 109.7 269.6 109.8 269 110.4L265.4 114.2C264.8 114.8 264.8 115.8 265.2 116.5L266.2 117.9C266.5 118.4 266.6 119 266.4 119.6C266.3 119.8 266.2 120 266.2 120.2C266 120.8 265.5 121.2 265 121.3L263.4 121.7C262.6 121.9 262 122.7 262 123.5L262.2 128.8C262.2 129.7 262.8 130.4 263.7 130.5L265.4 130.8C266 130.9 266.5 131.3 266.7 131.9C266.8 132.1 266.9 132.3 267 132.5C267.3 133 267.2 133.7 266.9 134.2L266 135.7C265.6 136.4 265.7 137.4 266.3 138L270.2 141.6C270.8 142.2 271.8 142.2 272.5 141.8L273.9 140.9C274.4 140.6 275 140.5 275.6 140.7C275.8 140.8 276 140.9 276.2 140.9C276.8 141.1 277.2 141.6 277.3 142.2L277.7 143.8C277.9 144.6 278.7 145.2 279.5 145.2L284.8 145C285.7 145 286.4 144.4 286.5 143.5L286.8 141.8C286.9 141.2 287.3 140.7 287.8 140.5C288 140.4 288.2 140.3 288.4 140.2C288.9 139.9 289.6 140 290.1 140.3L291.6 141.2C292.4 141.6 293.3 141.5 293.9 140.9L297.5 137C298.1 136.4 298.2 135.4 297.7 134.7L296.7 133.3C296.4 132.8 296.3 132.2 296.5 131.6C296.6 131.4 296.7 131.2 296.7 131C296.9 130.4 297.4 130 298 129.9L299.6 129.5C300.4 129.3 301 128.5 301 127.7L301.1 122.2ZM281.7 134.6C276.7 134.6 272.6 130.5 272.6 125.5C272.6 120.5 276.7 116.4 281.7 116.4C286.7 116.4 290.8 120.5 290.8 125.5C290.8 130.5 286.7 134.6 281.7 134.6Z" fill="#839299"/>
<path d="M170.401 37.8998C170.301 38.5998 169.701 39.1998 168.901 39.0998C168.201 38.9998 167.601 38.3998 167.701 37.5998L161.501 35.4998C161.201 35.8998 160.801 36.0998 160.301 35.9998C160.101 35.9998 160.001 35.8998 159.801 35.8998L153.301 42.2998C153.401 42.4998 153.401 42.5998 153.301 42.7998C153.201 43.4998 152.601 44.0998 151.801 43.9998C151.201 43.8998 150.701 43.4998 150.601 42.8998L144.501 41.1998C144.201 41.4998 143.801 41.7998 143.301 41.6998C142.601 41.5998 142.001 40.9998 142.101 40.1998C142.201 39.4998 142.801 38.8998 143.601 38.9998C144.301 39.0998 144.801 39.6998 144.801 40.3998L150.801 42.0998C151.001 41.5998 151.601 41.2998 152.101 41.3998C152.401 41.3998 152.601 41.4998 152.801 41.6998L159.201 35.4998C159.101 35.2998 159.001 34.9998 159.101 34.7998C159.201 34.0998 159.801 33.4998 160.601 33.5998C161.301 33.6998 161.801 34.2998 161.801 34.8998L168.101 36.9998C168.401 36.6998 168.801 36.5998 169.201 36.5998C170.001 36.4998 170.501 37.1998 170.401 37.8998Z" fill="#54CC5A"/>
<path d="M169.297 63.1004C168.197 63.1004 167.297 62.2004 167.297 61.1004V45.4004C167.297 44.3004 168.197 43.4004 169.297 43.4004C170.397 43.4004 171.297 44.3004 171.297 45.4004V61.1004C171.197 62.2004 170.297 63.1004 169.297 63.1004Z" fill="#0054A6"/>
<path d="M160.797 63.1C159.697 63.1 158.797 62.2 158.797 61.1V42C158.797 40.9 159.697 40 160.797 40C161.897 40 162.797 40.9 162.797 42V61.1C162.797 62.2 161.897 63.1 160.797 63.1Z" fill="#0054A6"/>
<path d="M152 63.1004C150.9 63.1004 150 62.2004 150 61.1004V49.4004C150 48.3004 150.9 47.4004 152 47.4004C153.1 47.4004 154 48.3004 154 49.4004V61.2004C154 62.2004 153.1 63.1004 152 63.1004Z" fill="#0054A6"/>
<path d="M143.398 63.0996C142.298 63.0996 141.398 62.1996 141.398 61.0996V47.0996C141.398 45.9996 142.298 45.0996 143.398 45.0996C144.498 45.0996 145.398 45.9996 145.398 47.0996V61.0996C145.398 62.1996 144.498 63.0996 143.398 63.0996Z" fill="#0054A6"/>
</svg>
