<svg width="420" height="332" viewBox="0 0 420 332" fill="none" xmlns="http://www.w3.org/2000/svg">
<path d="M153.598 240.8C152.798 240.1 151.798 239.5 150.898 239L150.398 235.4L146.898 234.8L144.998 238C143.998 238.1 142.998 238.3 141.998 238.6L138.898 236.3L135.998 238.3L136.998 242.2C136.398 242.9 135.898 243.6 135.598 244.4L131.398 245.2L130.898 248.7L134.298 250.5C134.398 251.5 134.598 252.5 134.898 253.4L132.498 256.8L134.598 259.7L138.298 258.6C138.998 259.2 139.698 259.7 140.498 260.1L141.298 264.3L144.798 264.8L146.598 261.4C147.598 261.3 148.598 261.2 149.598 260.8L152.798 263.2L155.698 261.1L154.698 257.5C155.398 256.7 155.998 255.8 156.498 254.9L160.298 254.3L160.798 250.8L157.698 249C157.598 247.9 157.398 246.8 156.998 245.8L159.198 242.9L157.198 240L153.598 240.8ZM148.998 252.9C147.198 254.6 144.398 254.5 142.698 252.8C140.998 251 141.098 248.2 142.798 246.5C144.598 244.8 147.398 244.9 149.098 246.6C150.798 248.4 150.698 251.2 148.998 252.9Z" fill="#D2D9DC"/>
<path d="M122.4 209.2C121 208 119.4 206.9 117.7 206.2L116.8 200L110.8 199L107.6 204.5C105.9 204.6 104.1 205 102.5 205.6L97.2 201.6L92.2 205.1L93.9 211.7C92.9 212.9 92.1 214.1 91.4 215.4L84.3 216.7L83.5 222.7L89.2 225.8C89.3 227.5 89.6 229.2 90.2 230.8L86.1 236.6L89.7 241.5L96.1 239.7C97.3 240.7 98.6 241.6 99.9 242.3L101.2 249.5L107.2 250.4L110.3 244.6C112 244.5 113.7 244.2 115.4 243.6L120.9 247.6L125.8 244L124.1 237.8C125.3 236.4 126.3 234.9 127.1 233.3L133.5 232.2L134.4 226.2L129.1 223.2C129 221.3 128.6 219.5 128 217.7L131.7 212.7L128.2 207.7L122.4 209.2ZM114.5 229.8C111.5 232.7 106.7 232.6 103.8 229.6C100.9 226.6 101 221.8 104 218.9C107 216 111.8 216.1 114.7 219.1C117.6 222.2 117.5 226.9 114.5 229.8Z" fill="#839299"/>
<path d="M213.922 226.621V264.621H244.322V226.621H213.922Z" fill="#002548"/>
<path opacity="0.19" d="M213.922 226.621V264.621H244.322V226.621H213.922Z" fill="#F9FAFB"/>
<path d="M171.203 272.8V268.3L187.603 264.7H270.703L287.203 268.3V272.8H171.203Z" fill="#002548"/>
<path d="M325.82 235.679V108.279L132.52 108.279L132.52 235.679L325.82 235.679Z" fill="#002548"/>
<path d="M324.006 110.1H134.406V228.3H324.006V110.1Z" fill="#839299"/>
<path d="M314.997 117.5H152.497C150.997 117.5 149.797 118.7 149.797 120.2V220.6C149.797 222.1 150.997 223.3 152.497 223.3H314.997C316.497 223.3 317.697 222.1 317.697 220.6V120.2C317.697 118.7 316.497 117.5 314.997 117.5Z" fill="#F9FAFB"/>
<path d="M254.698 123.7H161.698C159.298 123.7 157.398 125.6 157.398 128V188.3C157.398 190.7 159.298 192.6 161.698 192.6H254.698C257.098 192.6 258.998 190.7 258.998 188.3V128C259.098 125.6 257.098 123.7 254.698 123.7Z" fill="#D2D9DC"/>
<path d="M306.403 123.7H271.503C269.103 123.7 267.203 125.6 267.203 128V210.7C267.203 213.1 269.103 215 271.503 215H306.403C308.803 215 310.703 213.1 310.703 210.7V128C310.703 125.6 308.703 123.7 306.403 123.7Z" fill="#D2D9DC"/>
<path d="M185.402 198.5H258.202C258.602 198.5 259.002 198.2 259.002 197.7C259.002 197.3 258.702 196.9 258.202 196.9H185.402C185.002 196.9 184.602 197.2 184.602 197.7C184.702 198.1 185.002 198.5 185.402 198.5Z" fill="#D2D9DC"/>
<path d="M158.198 198.5H179.798C180.198 198.5 180.598 198.2 180.598 197.7C180.598 197.3 180.298 196.9 179.798 196.9H158.198C157.798 196.9 157.398 197.2 157.398 197.7C157.398 198.1 157.798 198.5 158.198 198.5Z" fill="#D2D9DC"/>
<path d="M258.298 202.4H158.198C157.798 202.4 157.398 202.7 157.398 203.2C157.398 203.6 157.698 204 158.198 204H258.298C258.698 204 259.098 203.7 259.098 203.2C259.098 202.8 258.698 202.4 258.298 202.4Z" fill="#D2D9DC"/>
<path d="M258.295 207.9H248.995C248.595 207.9 248.195 208.2 248.195 208.7C248.195 209.1 248.495 209.5 248.995 209.5H258.295C258.695 209.5 259.095 209.2 259.095 208.7C259.095 208.3 258.695 207.9 258.295 207.9Z" fill="#D2D9DC"/>
<path d="M244.395 209.5C244.795 209.5 245.195 209.2 245.195 208.7C245.195 208.3 244.895 207.9 244.395 207.9H197.995C197.595 207.9 197.195 208.2 197.195 208.7C197.195 209.1 197.495 209.5 197.995 209.5H244.395Z" fill="#D2D9DC"/>
<path d="M158.198 209.5H192.798C193.198 209.5 193.598 209.2 193.598 208.7C193.598 208.3 193.298 207.9 192.798 207.9H158.198C157.798 207.9 157.398 208.2 157.398 208.7C157.398 209.1 157.798 209.5 158.198 209.5Z" fill="#D2D9DC"/>
<path d="M258.298 213.4H158.198C157.798 213.4 157.398 213.7 157.398 214.2C157.398 214.7 157.698 215 158.198 215H258.298C258.698 215 259.098 214.7 259.098 214.2C259.098 213.7 258.698 213.4 258.298 213.4Z" fill="#D2D9DC"/>
<path d="M280.003 156.5H271.903C271.303 156.5 270.703 157 270.703 157.7V165.8C270.703 166.4 271.203 167 271.903 167H280.003C280.603 167 281.203 166.5 281.203 165.8V157.7C281.203 157 280.703 156.5 280.003 156.5Z" fill="#0054A6"/>
<path d="M280.003 170.8H271.903C271.303 170.8 270.703 171.3 270.703 172V180.1C270.703 180.7 271.203 181.3 271.903 181.3H280.003C280.603 181.3 281.203 180.8 281.203 180.1V172C281.203 171.3 280.703 170.8 280.003 170.8Z" fill="#0054A6"/>
<path d="M280.003 185.4H271.903C271.303 185.4 270.703 185.9 270.703 186.6V194.7C270.703 195.3 271.203 195.9 271.903 195.9H280.003C280.603 195.9 281.203 195.4 281.203 194.7V186.6C281.203 185.9 280.703 185.4 280.003 185.4Z" fill="#0054A6"/>
<path d="M280.003 200.8H271.903C271.303 200.8 270.703 201.3 270.703 202V210.1C270.703 210.7 271.203 211.3 271.903 211.3H280.003C280.603 211.3 281.203 210.8 281.203 210.1V202C281.203 201.4 280.703 200.8 280.003 200.8Z" fill="#0054A6"/>
<path d="M284.898 159.3H306.598C306.898 159.3 307.098 159.1 307.098 158.8C307.098 158.5 306.898 158.3 306.598 158.3H284.898C284.598 158.3 284.398 158.5 284.398 158.8C284.398 159 284.598 159.3 284.898 159.3Z" fill="#839299"/>
<path d="M306.6 161.2H294C293.7 161.2 293.5 161.4 293.5 161.7C293.5 162 293.7 162.2 294 162.2H306.6C306.9 162.2 307.1 162 307.1 161.7C307.1 161.4 306.9 161.2 306.6 161.2Z" fill="#839299"/>
<path d="M284.898 162.3H291.598C291.898 162.3 292.098 162.1 292.098 161.8C292.098 161.5 291.898 161.3 291.598 161.3H284.898C284.598 161.3 284.398 161.5 284.398 161.8C284.398 162.1 284.598 162.3 284.898 162.3Z" fill="#839299"/>
<path d="M306.598 164.2H284.898C284.598 164.2 284.398 164.4 284.398 164.7C284.398 165 284.598 165.2 284.898 165.2H306.598C306.898 165.2 307.098 165 307.098 164.7C307.098 164.4 306.898 164.2 306.598 164.2Z" fill="#839299"/>
<path d="M284.898 173.5H306.598C306.898 173.5 307.098 173.3 307.098 173C307.098 172.7 306.898 172.5 306.598 172.5H284.898C284.598 172.5 284.398 172.7 284.398 173C284.398 173.3 284.598 173.5 284.898 173.5Z" fill="#839299"/>
<path d="M306.6 175.4H294C293.7 175.4 293.5 175.6 293.5 175.9C293.5 176.2 293.7 176.4 294 176.4H306.6C306.9 176.4 307.1 176.2 307.1 175.9C307.1 175.6 306.9 175.4 306.6 175.4Z" fill="#839299"/>
<path d="M284.898 176.5H291.598C291.898 176.5 292.098 176.3 292.098 176C292.098 175.7 291.898 175.5 291.598 175.5H284.898C284.598 175.5 284.398 175.7 284.398 176C284.398 176.3 284.598 176.5 284.898 176.5Z" fill="#839299"/>
<path d="M306.598 178.4H284.898C284.598 178.4 284.398 178.6 284.398 178.9C284.398 179.2 284.598 179.4 284.898 179.4H306.598C306.898 179.4 307.098 179.2 307.098 178.9C307.098 178.7 306.898 178.4 306.598 178.4Z" fill="#839299"/>
<path d="M284.898 188.1H306.598C306.898 188.1 307.098 187.9 307.098 187.6C307.098 187.3 306.898 187.1 306.598 187.1H284.898C284.598 187.1 284.398 187.3 284.398 187.6C284.398 187.9 284.598 188.1 284.898 188.1Z" fill="#839299"/>
<path d="M306.6 190H294C293.7 190 293.5 190.2 293.5 190.5C293.5 190.8 293.7 191 294 191H306.6C306.9 191 307.1 190.8 307.1 190.5C307.1 190.2 306.9 190 306.6 190Z" fill="#839299"/>
<path d="M284.898 191.1H291.598C291.898 191.1 292.098 190.9 292.098 190.6C292.098 190.3 291.898 190.1 291.598 190.1H284.898C284.598 190.1 284.398 190.3 284.398 190.6C284.398 190.9 284.598 191.1 284.898 191.1Z" fill="#839299"/>
<path d="M306.598 193H284.898C284.598 193 284.398 193.2 284.398 193.5C284.398 193.8 284.598 194 284.898 194H306.598C306.898 194 307.098 193.8 307.098 193.5C307.098 193.2 306.898 193 306.598 193Z" fill="#839299"/>
<path d="M284.898 203.6H306.598C306.898 203.6 307.098 203.4 307.098 203.1C307.098 202.8 306.898 202.6 306.598 202.6H284.898C284.598 202.6 284.398 202.8 284.398 203.1C284.398 203.4 284.598 203.6 284.898 203.6Z" fill="#839299"/>
<path d="M306.6 205.5H294C293.7 205.5 293.5 205.7 293.5 206C293.5 206.3 293.7 206.5 294 206.5H306.6C306.9 206.5 307.1 206.3 307.1 206C307.1 205.7 306.9 205.5 306.6 205.5Z" fill="#839299"/>
<path d="M284.898 206.6H291.598C291.898 206.6 292.098 206.4 292.098 206.1C292.098 205.8 291.898 205.6 291.598 205.6H284.898C284.598 205.6 284.398 205.8 284.398 206.1C284.398 206.4 284.598 206.6 284.898 206.6Z" fill="#839299"/>
<path d="M306.598 208.5H284.898C284.598 208.5 284.398 208.7 284.398 209C284.398 209.3 284.598 209.5 284.898 209.5H306.598C306.898 209.5 307.098 209.3 307.098 209C307.098 208.7 306.898 208.5 306.598 208.5Z" fill="#839299"/>
<path d="M250.197 129H218.897C217.697 129 216.797 130 216.797 131.1V157.7C216.797 158.9 217.797 159.8 218.897 159.8H250.197C251.397 159.8 252.297 158.8 252.297 157.7V131.1C252.397 130 251.397 129 250.197 129Z" fill="#FFDD33"/>
<path d="M163.803 166.6H251.703C252.003 166.6 252.303 166.3 252.303 166C252.303 165.7 252.003 165.4 251.703 165.4H163.803C163.503 165.4 163.203 165.7 163.203 166C163.203 166.3 163.503 166.6 163.803 166.6Z" fill="#839299"/>
<path d="M251.703 169.7H163.803C163.503 169.7 163.203 170 163.203 170.3C163.203 170.6 163.503 170.9 163.803 170.9H251.703C252.003 170.9 252.303 170.6 252.303 170.3C252.403 170 252.103 169.7 251.703 169.7Z" fill="#839299"/>
<path d="M251.703 174.2H163.803C163.503 174.2 163.203 174.5 163.203 174.8C163.203 175.1 163.503 175.4 163.803 175.4H251.703C252.003 175.4 252.303 175.1 252.303 174.8C252.403 174.5 252.103 174.2 251.703 174.2Z" fill="#839299"/>
<path d="M271.797 132.5H305.997C306.297 132.5 306.497 132.3 306.497 132C306.497 131.7 306.297 131.5 305.997 131.5H271.797C271.497 131.5 271.297 131.7 271.297 132C271.297 132.3 271.497 132.5 271.797 132.5Z" fill="#839299"/>
<path d="M305.997 135.2H271.797C271.497 135.2 271.297 135.4 271.297 135.7C271.297 136 271.497 136.2 271.797 136.2H305.997C306.297 136.2 306.497 136 306.497 135.7C306.497 135.5 306.297 135.2 305.997 135.2Z" fill="#839299"/>
<path d="M305.997 139H271.797C271.497 139 271.297 139.2 271.297 139.5C271.297 139.8 271.497 140 271.797 140H305.997C306.297 140 306.497 139.8 306.497 139.5C306.497 139.2 306.297 139 305.997 139Z" fill="#839299"/>
<path d="M271.797 145.1H305.997C306.297 145.1 306.497 144.9 306.497 144.6C306.497 144.3 306.297 144.1 305.997 144.1H271.797C271.497 144.1 271.297 144.3 271.297 144.6C271.297 144.8 271.497 145.1 271.797 145.1Z" fill="#839299"/>
<path d="M305.997 147.8H271.797C271.497 147.8 271.297 148 271.297 148.3C271.297 148.6 271.497 148.8 271.797 148.8H305.997C306.297 148.8 306.497 148.6 306.497 148.3C306.497 148 306.297 147.8 305.997 147.8Z" fill="#839299"/>
<path d="M305.997 151.5H271.797C271.497 151.5 271.297 151.7 271.297 152C271.297 152.3 271.497 152.5 271.797 152.5H305.997C306.297 152.5 306.497 152.3 306.497 152C306.497 151.8 306.297 151.5 305.997 151.5Z" fill="#839299"/>
<path d="M188.502 178.5H164.702C163.802 178.5 163.102 179.2 163.102 180.1V186.2C163.102 187.1 163.802 187.8 164.702 187.8H188.502C189.402 187.8 190.102 187.1 190.102 186.2V180.1C190.102 179.2 189.402 178.5 188.502 178.5Z" fill="#0054A6"/>
<path d="M219.603 178.5H195.803C194.903 178.5 194.203 179.2 194.203 180.1V186.2C194.203 187.1 194.903 187.8 195.803 187.8H219.603C220.503 187.8 221.203 187.1 221.203 186.2V180.1C221.203 179.2 220.503 178.5 219.603 178.5Z" fill="#0054A6"/>
<path d="M250.798 178.5H226.998C226.098 178.5 225.398 179.2 225.398 180.1V186.2C225.398 187.1 226.098 187.8 226.998 187.8H250.798C251.698 187.8 252.398 187.1 252.398 186.2V180.1C252.398 179.2 251.598 178.5 250.798 178.5Z" fill="#0054A6"/>
<path d="M282.4 59.2H240.3C236 59.2 232.5 62.7 232.5 67V87.8C232.5 92.1 236 95.6 240.3 95.6V101.8L247.9 95.6H282.4C286.7 95.6 290.2 92.1 290.2 87.8V67C290.2 62.7 286.7 59.2 282.4 59.2Z" fill="#0054A6"/>
<path d="M252.102 86.2C251.802 86.2 251.602 86.1 251.402 85.9L242.902 77.4C242.702 77.2 242.602 76.9 242.602 76.7C242.602 76.4 242.702 76.2 242.902 76L251.402 67.5C251.802 67.1 252.502 67.1 252.902 67.5C253.302 67.9 253.302 68.6 252.902 69L245.202 76.7L252.902 84.4C253.302 84.8 253.302 85.5 252.902 85.9C252.602 86.1 252.302 86.2 252.102 86.2Z" fill="#F9FAFB"/>
<path d="M270.6 86.2C270.9 86.2 271.1 86.1 271.3 85.9L279.8 77.4C280 77.2 280.1 76.9 280.1 76.7C280.1 76.4 280 76.2 279.8 76L271.3 67.5C270.9 67.1 270.2 67.1 269.8 67.5C269.4 67.9 269.4 68.6 269.8 69L277.5 76.7L269.8 84.4C269.4 84.8 269.4 85.5 269.8 85.9C270.1 86.1 270.4 86.2 270.6 86.2Z" fill="#F9FAFB"/>
<path d="M257.199 86.2C257.099 86.2 256.899 86.2 256.799 86.1C256.299 85.9 255.999 85.3 256.299 84.7L263.699 67.8C263.899 67.3 264.499 67 265.099 67.3C265.599 67.5 265.899 68.1 265.599 68.7L258.199 85.6C257.999 86 257.599 86.2 257.199 86.2Z" fill="#F9FAFB"/>
<path d="M218.302 68.9H81.7016C77.5016 68.9 74.1016 72.6 74.1016 77.1V79H226.002V77.1C225.902 72.6 222.502 68.9 218.302 68.9Z" fill="#002548"/>
<path d="M221 177.1H79C76.3 177.1 74 174.9 74 172.1V79.1H226V172.1C226 174.9 223.8 177.1 221 177.1Z" fill="#0054A6"/>
<path d="M98.9984 73.8C98.9984 73 98.3984 72.4 97.6984 72.4C96.9984 72.4 96.3984 73 96.3984 73.8C96.3984 74.6 96.9984 75.2 97.6984 75.2C98.3984 75.2 98.9984 74.6 98.9984 73.8Z" fill="#54CC5A"/>
<path d="M92.4984 73.8C92.4984 73 91.8984 72.4 91.1984 72.4C90.4984 72.4 89.8984 73 89.8984 73.8C89.8984 74.6 90.4984 75.2 91.1984 75.2C91.8984 75.2 92.4984 74.6 92.4984 73.8Z" fill="#FFDD33"/>
<path d="M86.1 73.8C86.1 73 85.5 72.4 84.8 72.4C84.1 72.4 83.5 73 83.5 73.8C83.5 74.6 84.1 75.2 84.8 75.2C85.5 75.2 86.1 74.6 86.1 73.8Z" fill="#ED1C24"/>
<path d="M183.9 75.2H213.2C214 75.2 214.6 74.6 214.6 73.8C214.6 73 214 72.4 213.2 72.4H183.9C183.1 72.4 182.5 73 182.5 73.8C182.6 74.6 183.2 75.2 183.9 75.2Z" fill="#D2D9DC"/>
<path d="M200.205 89C203.605 89 206.805 90.2 209.405 92.3L200.005 102.2L188.305 95.2C189.505 93.4 191.105 92 193.005 90.9C195.205 89.7 197.705 89 200.205 89Z" fill="#D2D9DC"/>
<path d="M199.406 104.2V117.6C192.206 117.2 186.406 111.4 185.906 104.2H199.406Z" fill="#D2D9DC"/>
<path d="M194.403 102H183.203C183.303 100 183.903 98 184.803 96.3L194.403 102Z" fill="#FFDD33"/>
<path d="M210.702 93.6C213.202 96.3 214.602 99.7 214.602 103.4C214.602 111 208.602 117.2 201.102 117.7V103.8L210.702 93.6Z" fill="#ED1C24"/>
<path d="M150.898 95.5C153.198 91.6 157.498 89 162.398 89C165.998 89 169.198 90.4 171.598 92.6L162.398 102.3L150.898 95.5Z" fill="#FFDD33"/>
<path d="M147.602 103.6H161.002V117C153.602 117 147.602 111 147.602 103.6Z" fill="#54CC5A"/>
<path d="M149.102 102.3C149.102 99.8 149.802 97.5 151.002 95.5L162.502 102.3H149.202H149.102Z" fill="#FFDD33"/>
<path d="M162.398 115.7V102.4L171.598 92.7C174.198 95.1 175.798 98.6 175.798 102.4C175.798 109.7 169.798 115.7 162.398 115.7Z" fill="#FFDD33"/>
<path d="M86.7031 169.7H212.303C213.403 169.7 214.303 168.8 214.303 167.7V128.5C214.303 127.4 213.403 126.5 212.303 126.5H86.7031C85.6031 126.5 84.7031 127.4 84.7031 128.5V167.7C84.8031 168.8 85.7031 169.7 86.7031 169.7Z" fill="#D2D9DC"/>
<path d="M85.7969 91.1H138.397C138.997 91.1 139.397 90.6 139.397 90.1C139.397 89.5 138.897 89.1 138.397 89.1H85.7969C85.1969 89.1 84.7969 89.6 84.7969 90.1C84.7969 90.6 85.1969 91.1 85.7969 91.1Z" fill="#F9FAFB"/>
<path d="M138.397 97.1H85.7969C85.1969 97.1 84.7969 97.6 84.7969 98.1C84.7969 98.7 85.2969 99.1 85.7969 99.1H138.397C138.997 99.1 139.397 98.6 139.397 98.1C139.397 97.5 138.997 97.1 138.397 97.1Z" fill="#F9FAFB"/>
<path d="M138.397 105.1H85.7969C85.1969 105.1 84.7969 105.6 84.7969 106.1C84.7969 106.7 85.2969 107.1 85.7969 107.1H138.397C138.997 107.1 139.397 106.6 139.397 106.1C139.397 105.6 138.997 105.1 138.397 105.1Z" fill="#F9FAFB"/>
<path d="M138.397 113.2H85.7969C85.1969 113.2 84.7969 113.7 84.7969 114.2C84.7969 114.8 85.2969 115.2 85.7969 115.2H138.397C138.997 115.2 139.397 114.7 139.397 114.2C139.397 113.6 138.997 113.2 138.397 113.2Z" fill="#F9FAFB"/>
<path d="M208.498 131.4H90.4984C90.1984 131.4 89.8984 131.6 89.8984 132V132.3C89.8984 132.6 90.1984 132.9 90.4984 132.9H208.498C208.798 132.9 209.098 132.7 209.098 132.3V132C209.098 131.7 208.898 131.4 208.498 131.4Z" fill="#839299"/>
<path d="M208.498 137.3H90.4984C90.1984 137.3 89.8984 137.5 89.8984 137.9V138.2C89.8984 138.5 90.1984 138.8 90.4984 138.8H208.498C208.798 138.8 209.098 138.6 209.098 138.2V137.9C209.098 137.5 208.898 137.3 208.498 137.3Z" fill="#839299"/>
<path d="M208.498 143.1H90.4984C90.1984 143.1 89.8984 143.3 89.8984 143.7V144C89.8984 144.3 90.1984 144.6 90.4984 144.6H208.498C208.798 144.6 209.098 144.4 209.098 144V143.7C209.098 143.4 208.898 143.1 208.498 143.1Z" fill="#839299"/>
<path d="M208.498 149H90.4984C90.1984 149 89.8984 149.2 89.8984 149.6V149.9C89.8984 150.2 90.1984 150.5 90.4984 150.5H208.498C208.798 150.5 209.098 150.3 209.098 149.9V149.6C209.098 149.3 208.898 149 208.498 149Z" fill="#839299"/>
<path d="M208.498 154.9H90.4984C90.1984 154.9 89.8984 155.1 89.8984 155.5V155.8C89.8984 156.1 90.1984 156.4 90.4984 156.4H208.498C208.798 156.4 209.098 156.2 209.098 155.8V155.5C209.098 155.1 208.898 154.9 208.498 154.9Z" fill="#839299"/>
<path d="M208.498 160.7H90.4984C90.1984 160.7 89.8984 160.9 89.8984 161.3V161.6C89.8984 161.9 90.1984 162.2 90.4984 162.2H208.498C208.798 162.2 209.098 162 209.098 161.6V161.3C209.098 161 208.898 160.7 208.498 160.7Z" fill="#839299"/>
<path d="M324.802 252.1C336.51 252.1 346.002 242.608 346.002 230.9C346.002 219.192 336.51 209.7 324.802 209.7C313.093 209.7 303.602 219.192 303.602 230.9C303.602 242.608 313.093 252.1 324.802 252.1Z" fill="#54CC5A"/>
<path d="M333.202 219.7C329.602 224.8 325.902 229.8 322.302 234.9C319.802 232.5 317.202 230.2 314.702 227.8C313.202 229.7 311.702 231.7 310.102 233.6C314.402 236.4 318.702 239.3 322.902 242.1C328.402 236.2 333.802 230.4 339.302 224.5C337.302 222.9 335.302 221.3 333.202 219.7Z" fill="#F9FAFB"/>
</svg>
