<svg width="275" height="204" viewBox="0 0 275 204" fill="none" xmlns="http://www.w3.org/2000/svg">
<path d="M0.5 20C0.5 9.23045 9.23045 0.5 20 0.5H255C265.77 0.5 274.5 9.23045 274.5 20V203.5H20C9.23044 203.5 0.5 194.77 0.5 184V20Z" stroke="#DEDEDE"/>
<path d="M138 171.79C87.7426 171.79 47 169.592 47 166.882C47 164.816 70.6722 163.048 104.184 162.324C109.402 165.229 115.261 167.086 121.548 167.685C122.923 167.817 124.284 167.88 125.633 167.88C132.377 167.88 138.83 166.3 145.122 163.7C146.57 163.145 147.948 162.573 149.255 162.011C158.347 162.072 167.021 162.205 175.079 162.398C175.36 162.441 175.629 162.46 175.886 162.46C176.07 162.46 176.247 162.451 176.419 162.432C207.479 163.213 229 164.912 229 166.882C229 169.592 188.258 171.79 138 171.79Z" fill="#D2D9DC"/>
<path d="M65.9097 167.278C65.9097 167.278 67.3939 163.158 71.6819 164.805C71.6819 164.805 70.6925 152.444 78.9384 151.95C87.1853 151.456 86.6906 162.169 86.6906 162.169C86.6906 162.169 88.3394 160.026 90.9786 160.85C93.6169 161.674 93.2868 164.971 93.2868 164.971C93.2868 164.971 96.369 161.349 99.2246 162.169C102.08 162.988 100.049 165.794 100.049 165.794C100.049 165.794 105.986 163.816 107.306 167.278H65.9097Z" fill="#FFB2B5"/>
<path fill-rule="evenodd" clip-rule="evenodd" d="M121.485 83.5962C121.695 88.3756 117.988 92.421 113.207 92.6315C108.424 92.8421 104.376 89.1379 104.165 84.3585C103.954 79.58 107.66 75.5346 112.443 75.3241C117.226 75.1126 121.274 78.8168 121.485 83.5962ZM128.637 78.7858C128.219 77.5141 127.653 76.3129 126.96 75.2L129.945 71.9404C130.356 71.4911 130.325 70.789 129.876 70.3783L124.88 65.8075C124.431 65.3958 123.728 65.4269 123.317 65.8761L120.331 69.1348C119.16 68.5436 117.912 68.0849 116.608 67.7813L116.413 63.3685C116.387 62.7603 115.868 62.2857 115.259 62.312L108.492 62.61C107.884 62.6372 107.408 63.156 107.435 63.7642L107.63 68.177C106.356 68.5943 105.153 69.1592 104.041 69.8519L100.779 66.8687C100.33 66.4579 99.6267 66.489 99.2157 66.9373L94.6417 71.9301C94.2307 72.3794 94.2617 73.0815 94.7104 73.4932L97.9723 76.4774C97.3797 77.6466 96.9207 78.8929 96.6169 80.1966L92.2009 80.3911C91.5933 80.4184 91.1174 80.9372 91.1447 81.5444L91.4428 88.307C91.4692 88.9152 91.9884 89.3898 92.5969 89.3635L97.0129 89.1689C97.4305 90.4406 97.9967 91.6428 98.6899 92.7547L95.7036 96.0143C95.2926 96.4626 95.3236 97.1666 95.7732 97.5764L100.769 102.148C101.218 102.559 101.922 102.528 102.333 102.079L105.318 98.8199C106.489 99.412 107.736 99.8707 109.041 100.174L109.236 104.586C109.263 105.194 109.782 105.67 110.391 105.643L117.157 105.345C117.766 105.317 118.241 104.799 118.214 104.191L118.02 99.7777C119.292 99.3613 120.495 98.7955 121.609 98.1027L124.87 101.086C125.319 101.497 126.023 101.466 126.434 101.017L131.008 96.0246C131.419 95.5763 131.388 94.8732 130.938 94.4625L127.677 91.4783C128.27 90.309 128.728 89.0618 129.032 87.7581L133.448 87.5636C134.056 87.5372 134.532 87.0175 134.505 86.4103L134.207 79.6477C134.18 79.0395 133.66 78.5649 133.053 78.5912L128.637 78.7858Z" fill="#E99121"/>
<path fill-rule="evenodd" clip-rule="evenodd" d="M121.485 83.5962C121.695 88.3756 117.988 92.421 113.207 92.6315C108.424 92.8421 104.376 89.1379 104.165 84.3585C103.954 79.58 107.66 75.5346 112.443 75.3241C117.226 75.1126 121.274 78.8168 121.485 83.5962ZM128.637 78.7858C128.219 77.5141 127.653 76.3129 126.96 75.2L129.945 71.9404C130.356 71.4911 130.325 70.789 129.876 70.3783L124.88 65.8075C124.431 65.3958 123.728 65.4269 123.317 65.8761L120.331 69.1348C119.16 68.5436 117.912 68.0849 116.608 67.7813L116.413 63.3685C116.387 62.7603 115.868 62.2857 115.259 62.312L108.492 62.61C107.884 62.6372 107.408 63.156 107.435 63.7642L107.63 68.177C106.356 68.5943 105.153 69.1592 104.041 69.8519L100.779 66.8687C100.33 66.4579 99.6267 66.489 99.2157 66.9373L94.6417 71.9301C94.2307 72.3794 94.2617 73.0815 94.7104 73.4932L97.9723 76.4774C97.3797 77.6466 96.9207 78.8929 96.6169 80.1966L92.2009 80.3911C91.5933 80.4184 91.1174 80.9372 91.1447 81.5444L91.4428 88.307C91.4692 88.9152 91.9884 89.3898 92.5969 89.3635L97.0129 89.1689C97.4305 90.4406 97.9967 91.6428 98.6899 92.7547L95.7036 96.0143C95.2926 96.4626 95.3236 97.1666 95.7732 97.5764L100.769 102.148C101.218 102.559 101.922 102.528 102.333 102.079L105.318 98.8199C106.489 99.412 107.736 99.8707 109.041 100.174L109.236 104.586C109.263 105.194 109.782 105.67 110.391 105.643L117.157 105.345C117.766 105.317 118.241 104.799 118.214 104.191L118.02 99.7777C119.292 99.3613 120.495 98.7955 121.609 98.1027L124.87 101.086C125.319 101.497 126.023 101.466 126.434 101.017L131.008 96.0246C131.419 95.5763 131.388 94.8732 130.938 94.4625L127.677 91.4783C128.27 90.309 128.728 89.0618 129.032 87.7581L133.448 87.5636C134.056 87.5372 134.532 87.0175 134.505 86.4103L134.207 79.6477C134.18 79.0395 133.66 78.5649 133.053 78.5912L128.637 78.7858Z" fill="#0054A6"/>
<path fill-rule="evenodd" clip-rule="evenodd" d="M119.892 76.2636C121.867 78.0711 123.152 80.6314 123.279 83.516C123.406 86.4015 122.352 89.0652 120.543 91.039C118.735 93.0128 116.173 94.2976 113.286 94.4245C110.399 94.5514 107.734 93.4978 105.759 91.6903C103.782 89.8829 102.498 87.3226 102.37 84.4371C102.243 81.5525 103.298 78.8888 105.107 76.915C106.914 74.9421 109.478 73.6573 112.364 73.5294C115.251 73.4025 117.916 74.4571 119.892 76.2636ZM122.701 83.5423C122.581 80.8165 121.366 78.3982 119.5 76.6913C117.635 74.9844 115.117 73.9881 112.39 74.1075C109.662 74.2278 107.242 75.4421 105.534 77.306C103.825 79.1708 102.829 81.6869 102.949 84.4117C103.069 87.1374 104.283 89.5558 106.149 91.2636C108.015 92.9705 110.533 93.9668 113.261 93.8465C115.987 93.7262 118.408 92.5127 120.116 90.648C121.824 88.7832 122.821 86.2671 122.701 83.5423Z" fill="#7D97F4"/>
<path fill-rule="evenodd" clip-rule="evenodd" d="M123.311 72.5312C126.243 75.2128 128.15 79.0128 128.339 83.2932C128.528 87.5744 126.963 91.5277 124.278 94.4564C121.595 97.3852 117.793 99.2913 113.509 99.4802C109.224 99.6692 105.269 98.1042 102.338 95.4227C99.4067 92.7411 97.4992 88.9411 97.3102 84.6598C97.122 80.3794 98.6872 76.4271 101.371 73.4974C104.055 70.5687 107.857 68.6626 112.141 68.4736C116.424 68.2847 120.38 69.8497 123.311 72.5312ZM127.76 83.3185C127.579 79.198 125.742 75.5399 122.92 72.9579C120.098 70.376 116.291 68.8703 112.166 69.0517C108.042 69.234 104.381 71.0687 101.799 73.8884C99.2148 76.7082 97.7071 80.5138 97.8896 84.6344C98.0711 88.7559 99.9071 92.414 102.729 94.9959C105.551 97.5779 109.359 99.0836 113.483 98.9022C117.608 98.7199 121.267 96.8852 123.851 94.0654C126.435 91.2457 127.942 87.441 127.76 83.3185Z" fill="#7D97F4"/>
<path fill-rule="evenodd" clip-rule="evenodd" d="M80.3669 74.0684C80.5023 77.1353 78.1236 79.7314 75.0546 79.8667C71.9855 80.0021 69.3876 77.625 69.2522 74.5581C69.1168 71.4912 71.4954 68.8952 74.5645 68.7598C77.6336 68.6254 80.2315 71.0015 80.3669 74.0684ZM84.9559 70.9818C84.6888 70.1659 84.3248 69.3943 83.8799 68.6809L85.7959 66.5896C86.0602 66.301 86.0404 65.8499 85.7516 65.5867L82.5462 62.6532C82.2574 62.3891 81.806 62.4098 81.5426 62.6974L79.6257 64.7887C78.8752 64.409 78.0747 64.1148 77.2376 63.9202L77.1125 61.0883C77.0956 60.6982 76.7617 60.3928 76.3714 60.4106L72.0288 60.6014C71.6384 60.6193 71.3337 60.952 71.3506 61.3421L71.4757 64.174C70.6593 64.4419 69.8871 64.8047 69.1722 65.2493L67.0795 63.3347C66.7917 63.0706 66.3402 63.0903 66.0759 63.3789L63.1404 66.5821C62.877 66.8706 62.8968 67.3218 63.1855 67.5849L65.2783 69.5005C64.8974 70.2505 64.6039 71.0504 64.4083 71.8878L61.5743 72.0119C61.184 72.0298 60.8793 72.3625 60.8962 72.7526L61.0881 77.0921C61.105 77.4822 61.4389 77.7867 61.8283 77.7698L64.6622 77.6448C64.9303 78.4615 65.2933 79.2323 65.7392 79.9466L63.8223 82.0379C63.5589 82.3255 63.5787 82.7776 63.8665 83.0408L67.0729 85.9742C67.3607 86.2374 67.8122 86.2177 68.0765 85.9301L69.9924 83.8388C70.7439 84.2185 71.5444 84.5127 72.3815 84.7072L72.5066 87.5392C72.5235 87.9292 72.8565 88.2338 73.2468 88.2169L77.5894 88.0251C77.9797 88.0082 78.2854 87.6755 78.2685 87.2854L78.1434 84.4535C78.9598 84.1856 79.732 83.8228 80.4468 83.3782L82.5396 85.2928C82.8274 85.556 83.2789 85.5362 83.5422 85.2486L86.4778 82.0445C86.7421 81.7569 86.7223 81.3057 86.4336 81.0416L84.3408 79.127C84.7208 78.377 85.0152 77.5762 85.2099 76.7396L88.0438 76.6156C88.4342 76.5977 88.7398 76.265 88.722 75.8749L88.531 71.5354C88.5141 71.1453 88.1802 70.8398 87.7899 70.8577L84.9559 70.9818Z" fill="#E99121"/>
<path fill-rule="evenodd" clip-rule="evenodd" d="M80.3669 74.0684C80.5023 77.1353 78.1236 79.7314 75.0546 79.8667C71.9855 80.0021 69.3876 77.625 69.2522 74.5581C69.1168 71.4912 71.4954 68.8952 74.5645 68.7598C77.6336 68.6254 80.2315 71.0015 80.3669 74.0684ZM84.9559 70.9818C84.6888 70.1659 84.3248 69.3943 83.8799 68.6809L85.7959 66.5896C86.0602 66.301 86.0404 65.8499 85.7516 65.5867L82.5462 62.6532C82.2574 62.3891 81.806 62.4098 81.5426 62.6974L79.6257 64.7887C78.8752 64.409 78.0747 64.1148 77.2376 63.9202L77.1125 61.0883C77.0956 60.6982 76.7617 60.3928 76.3714 60.4106L72.0288 60.6014C71.6384 60.6193 71.3337 60.952 71.3506 61.3421L71.4757 64.174C70.6593 64.4419 69.8871 64.8047 69.1722 65.2493L67.0795 63.3347C66.7917 63.0706 66.3402 63.0903 66.0759 63.3789L63.1404 66.5821C62.877 66.8706 62.8968 67.3218 63.1855 67.5849L65.2783 69.5005C64.8974 70.2505 64.6039 71.0504 64.4083 71.8878L61.5743 72.0119C61.184 72.0298 60.8793 72.3625 60.8962 72.7526L61.0881 77.0921C61.105 77.4822 61.4389 77.7867 61.8283 77.7698L64.6622 77.6448C64.9303 78.4615 65.2933 79.2323 65.7392 79.9466L63.8223 82.0379C63.5589 82.3255 63.5787 82.7776 63.8665 83.0408L67.0729 85.9742C67.3607 86.2374 67.8122 86.2177 68.0765 85.9301L69.9924 83.8388C70.7439 84.2185 71.5444 84.5127 72.3815 84.7072L72.5066 87.5392C72.5235 87.9292 72.8565 88.2338 73.2468 88.2169L77.5894 88.0251C77.9797 88.0082 78.2854 87.6755 78.2685 87.2854L78.1434 84.4535C78.9598 84.1856 79.732 83.8228 80.4468 83.3782L82.5396 85.2928C82.8274 85.556 83.2789 85.5362 83.5422 85.2486L86.4778 82.0445C86.7421 81.7569 86.7223 81.3057 86.4336 81.0416L84.3408 79.127C84.7208 78.377 85.0152 77.5762 85.2099 76.7396L88.0438 76.6156C88.4342 76.5977 88.7398 76.265 88.722 75.8749L88.531 71.5354C88.5141 71.1453 88.1802 70.8398 87.7899 70.8577L84.9559 70.9818Z" fill="#0054A6"/>
<path fill-rule="evenodd" clip-rule="evenodd" d="M79.3444 69.3646C80.6123 70.5244 81.4372 72.1674 81.5181 74.0181C81.5999 75.8697 80.9227 77.5794 79.762 78.8454C78.6023 80.1124 76.9573 80.9367 75.1053 81.0185C73.2524 81.1003 71.5424 80.4235 70.2745 79.2637C69.0066 78.1038 68.1818 76.4609 68.0999 74.6093C68.0181 72.7586 68.6953 71.0489 69.856 69.7819C71.0166 68.5158 72.6607 67.6915 74.5137 67.6098C76.3666 67.528 78.0765 68.2047 79.3444 69.3646ZM81.1475 74.035C81.0704 72.2858 80.2906 70.734 79.0933 69.6381C77.8959 68.5431 76.28 67.904 74.5296 67.981C72.7802 68.0581 71.2264 68.8363 70.1306 70.0328C69.0339 71.2293 68.3943 72.8441 68.4714 74.5933C68.5486 76.3425 69.3283 77.8942 70.5257 78.9902C71.723 80.0852 73.3389 80.7243 75.0883 80.6472C76.8387 80.5702 78.3926 79.7919 79.4883 78.5954C80.585 77.398 81.2246 75.7841 81.1475 74.035Z" fill="#7D97F4"/>
<path fill-rule="evenodd" clip-rule="evenodd" d="M81.5393 66.9685C83.4204 68.6895 84.6441 71.1276 84.7654 73.875C84.8868 76.6223 83.8823 79.1592 82.1601 81.039C80.4379 82.9178 77.9981 84.1416 75.2488 84.2628C72.4995 84.3841 69.9609 83.3793 68.0807 81.6593C66.1996 79.9383 64.9749 77.4993 64.8536 74.7519C64.7323 72.0055 65.7378 69.4687 67.4599 67.5889C69.1821 65.7091 71.6219 64.4862 74.3712 64.365C77.1205 64.2437 79.6582 65.2476 81.5393 66.9685ZM84.3949 73.8919C84.2773 71.247 83.0997 68.8991 81.2882 67.243C79.4776 65.5859 77.034 64.6197 74.3872 64.7363C71.7405 64.8528 69.3919 66.0305 67.7336 67.8398C66.0754 69.6492 65.1085 72.091 65.2251 74.7359C65.3418 77.3808 66.5203 79.7278 68.3309 81.3848C70.1424 83.0419 72.5851 84.0081 75.2328 83.8916C77.8786 83.775 80.2281 82.5973 81.8854 80.788C83.5436 78.9787 84.5115 76.5368 84.3949 73.8919Z" fill="#7D97F4"/>
<path fill-rule="evenodd" clip-rule="evenodd" d="M81.9716 115.011C82.1654 119.409 78.7549 123.132 74.354 123.325C69.953 123.519 66.2284 120.111 66.0346 115.713C65.8399 111.315 69.2504 107.592 73.6514 107.399C78.0523 107.205 81.7779 110.613 81.9716 115.011ZM88.5528 110.585C88.169 109.415 87.648 108.308 87.0103 107.285L89.7577 104.286C90.1358 103.872 90.1075 103.226 89.6937 102.848L85.0962 98.6415C84.6833 98.2637 84.0362 98.2919 83.6581 98.7054L80.9097 101.704C79.8328 101.16 78.6853 100.737 77.4842 100.458L77.3055 96.3979C77.281 95.8387 76.8032 95.4007 76.2426 95.4251L70.0161 95.6996C69.4564 95.724 69.0191 96.2024 69.0435 96.7617L69.2222 100.822C68.0512 101.207 66.9442 101.726 65.9199 102.364L62.9185 99.619C62.5056 99.2402 61.8585 99.2694 61.4795 99.682L57.2704 104.276C56.8923 104.689 56.9205 105.336 57.3344 105.714L60.3357 108.46C59.7902 109.536 59.3688 110.684 59.0885 111.883L55.0253 112.062C54.4656 112.087 54.0283 112.564 54.0527 113.124L54.3274 119.346C54.3518 119.905 54.8296 120.343 55.3893 120.318L59.4525 120.139C59.8372 121.309 60.3583 122.416 60.996 123.439L58.2486 126.438C57.8705 126.851 57.8987 127.499 58.3116 127.876L62.9091 132.082C63.323 132.46 63.9701 132.432 64.3482 132.019L67.0956 129.02C68.1726 129.565 69.321 129.986 70.5212 130.267L70.7008 134.326C70.7253 134.885 71.2031 135.323 71.7627 135.299L77.9902 135.024C78.5498 135 78.9872 134.522 78.9628 133.962L78.7831 129.902C79.955 129.518 81.0612 128.998 82.0864 128.36L85.0868 131.106C85.5006 131.484 86.1478 131.456 86.5259 131.042L90.7349 126.448C91.114 126.035 91.0848 125.388 90.6719 125.011L87.6705 122.264C88.2161 121.188 88.6374 120.04 88.9168 118.841L92.981 118.662C93.5406 118.638 93.978 118.16 93.9535 117.6L93.6789 111.378C93.6544 110.818 93.1766 110.381 92.617 110.406L88.5528 110.585Z" fill="#E99121"/>
<path fill-rule="evenodd" clip-rule="evenodd" d="M81.9716 115.011C82.1654 119.409 78.7549 123.132 74.354 123.325C69.953 123.519 66.2284 120.111 66.0346 115.713C65.8399 111.315 69.2504 107.592 73.6514 107.399C78.0523 107.205 81.7779 110.613 81.9716 115.011ZM88.5528 110.585C88.169 109.415 87.648 108.308 87.0103 107.285L89.7577 104.286C90.1358 103.872 90.1075 103.226 89.6937 102.848L85.0962 98.6415C84.6833 98.2637 84.0362 98.2919 83.6581 98.7054L80.9097 101.704C79.8328 101.16 78.6853 100.737 77.4842 100.458L77.3055 96.3979C77.281 95.8387 76.8032 95.4007 76.2426 95.4251L70.0161 95.6996C69.4564 95.724 69.0191 96.2024 69.0435 96.7617L69.2222 100.822C68.0512 101.207 66.9442 101.726 65.9199 102.364L62.9185 99.619C62.5056 99.2402 61.8585 99.2694 61.4795 99.682L57.2704 104.276C56.8923 104.689 56.9205 105.336 57.3344 105.714L60.3357 108.46C59.7902 109.536 59.3688 110.684 59.0885 111.883L55.0253 112.062C54.4656 112.087 54.0283 112.564 54.0527 113.124L54.3274 119.346C54.3518 119.905 54.8296 120.343 55.3893 120.318L59.4525 120.139C59.8372 121.309 60.3583 122.416 60.996 123.439L58.2486 126.438C57.8705 126.851 57.8987 127.499 58.3116 127.876L62.9091 132.082C63.323 132.46 63.9701 132.432 64.3482 132.019L67.0956 129.02C68.1726 129.565 69.321 129.986 70.5212 130.267L70.7008 134.326C70.7253 134.885 71.2031 135.323 71.7627 135.299L77.9902 135.024C78.5498 135 78.9872 134.522 78.9628 133.962L78.7831 129.902C79.955 129.518 81.0612 128.998 82.0864 128.36L85.0868 131.106C85.5006 131.484 86.1478 131.456 86.5259 131.042L90.7349 126.448C91.114 126.035 91.0848 125.388 90.6719 125.011L87.6705 122.264C88.2161 121.188 88.6374 120.04 88.9168 118.841L92.981 118.662C93.5406 118.638 93.978 118.16 93.9535 117.6L93.6789 111.378C93.6544 110.818 93.1766 110.381 92.617 110.406L88.5528 110.585Z" fill="#0054A6"/>
<path fill-rule="evenodd" clip-rule="evenodd" d="M80.5062 108.265C82.3233 109.927 83.5066 112.284 83.6232 114.939C83.7408 117.593 82.7692 120.044 81.1053 121.86C79.4414 123.677 77.0834 124.859 74.4273 124.976C71.7702 125.093 69.3181 124.123 67.5 122.46C65.6819 120.796 64.4996 118.441 64.382 115.786C64.2654 113.131 65.236 110.68 66.8999 108.864C68.5647 107.048 70.9227 105.866 73.5789 105.748C76.235 105.632 78.688 106.602 80.5062 108.265ZM83.0908 114.961C82.9799 112.454 81.8625 110.228 80.1459 108.657C78.4285 107.087 76.1118 106.17 73.6024 106.28C71.093 106.391 68.8657 107.508 67.2931 109.223C65.7214 110.94 64.8043 113.255 64.9153 115.762C65.0254 118.271 66.1427 120.497 67.8602 122.067C69.5768 123.638 71.8934 124.554 74.4038 124.444C76.9132 124.333 79.1405 123.217 80.7122 121.501C82.2848 119.785 83.2018 117.47 83.0908 114.961Z" fill="#7D97F4"/>
<path fill-rule="evenodd" clip-rule="evenodd" d="M83.6526 104.83C86.3501 107.298 88.1053 110.794 88.2793 114.733C88.4533 118.673 87.0123 122.31 84.5433 125.005C82.0734 127.701 78.5745 129.455 74.6325 129.629C70.6906 129.802 67.0506 128.363 64.3531 125.896C61.6555 123.427 59.9004 119.931 59.7264 115.991C59.5534 112.053 60.9934 108.415 63.4633 105.719C65.9332 103.024 69.4312 101.27 73.3741 101.096C77.316 100.922 80.956 102.362 83.6526 104.83ZM87.7469 114.757C87.5795 110.965 85.8893 107.598 83.2933 105.223C80.6964 102.847 77.1928 101.462 73.3976 101.629C69.6024 101.795 66.2342 103.484 63.8565 106.079C61.4787 108.674 60.0923 112.176 60.2597 115.967C60.4271 119.761 62.1164 123.127 64.7133 125.503C67.3102 127.878 70.8138 129.264 74.609 129.097C78.4042 128.93 81.7724 127.241 84.1502 124.646C86.527 122.051 87.9143 118.549 87.7469 114.757Z" fill="#7D97F4"/>
<path d="M185.228 90.4648C185.469 90.9225 185.702 91.384 185.928 91.8511C187.45 95.0073 188.601 98.3581 189.391 101.816C189.52 102.382 189.64 102.949 189.75 103.52C190.394 106.869 190.707 110.302 190.695 113.745C190.693 114.362 190.682 114.978 190.659 115.595C190.515 119.499 189.957 123.396 188.994 127.174C188.835 127.804 188.662 128.432 188.48 129.055C187.094 133.779 185.067 138.283 182.421 142.338C181.949 143.062 181.459 143.772 180.946 144.464C180.359 145.263 179.747 146.041 179.107 146.796C178.296 147.752 177.042 149.35 175.655 150.1C175.205 150.343 174.739 150.499 174.273 150.513C174.173 150.515 174.074 150.512 173.975 150.501C171.267 150.223 169.59 144.694 168.848 142.485C168.581 141.693 168.338 140.897 168.116 140.098C167.845 139.129 167.606 138.155 167.396 137.176C166.746 134.154 166.369 131.087 166.198 128C166.155 127.27 166.127 126.538 166.108 125.806C166.107 125.78 166.107 125.755 166.107 125.728C166.028 122.512 166.154 119.281 166.408 116.065C166.453 115.462 166.505 114.855 166.563 114.25C166.749 112.226 166.981 110.209 167.239 108.206C167.331 107.492 167.426 106.78 167.521 106.068C167.594 105.533 167.665 104.999 167.738 104.466C168.151 101.401 168.563 98.3459 168.854 95.2686C168.906 94.7273 168.953 94.1868 168.995 93.6445C169.063 92.8014 169.118 91.9574 169.162 91.1105C169.263 89.117 169.306 87.1178 169.26 85.1233C169.248 84.5208 169.225 83.9183 169.195 83.3168C169.176 82.9248 169.152 82.5329 169.124 82.141C169.064 81.2875 168.982 77.8146 168.576 75.4798C168.548 75.3116 168.563 75.1527 168.613 75.0118C168.793 74.4882 169.43 74.195 169.975 74.507L169.993 74.5174C173.067 76.2778 175.786 78.3907 178.16 80.78C178.521 81.1437 178.876 81.514 179.22 81.8909C181.6 84.4851 183.599 87.3715 185.228 90.4648Z" fill="#FFE459"/>
<path d="M178.404 98.7092C180.68 95.9609 182.954 93.2126 185.229 90.4643C185.47 90.9221 185.703 91.3836 185.929 91.8507C183.492 94.7954 181.055 97.7392 178.617 100.683C178.965 104.418 179.026 108.187 178.863 111.948C179.299 111.577 179.733 111.204 180.165 110.826C181.087 110.02 181.995 109.2 182.891 108.365C185.144 106.268 187.313 104.082 189.392 101.816C189.521 102.381 189.64 102.948 189.75 103.52C189.252 104.055 188.748 104.585 188.24 105.11C186.391 107.024 184.477 108.873 182.503 110.655C181.532 111.533 180.548 112.395 179.547 113.24C179.303 113.446 179.047 113.704 178.759 113.89C178.557 117.082 178.206 120.263 177.741 123.41C177.729 123.496 177.714 123.583 177.701 123.669C182.095 120.441 186.426 117.133 190.695 113.745C190.693 114.361 190.682 114.977 190.66 115.595C186.299 119.037 181.871 122.396 177.383 125.67C176.882 128.668 176.294 131.66 175.849 134.666C180.14 132.012 184.525 129.514 188.995 127.173C188.836 127.804 188.663 128.432 188.48 129.055C184.101 131.381 179.804 133.861 175.598 136.49C175.353 138.434 175.187 140.388 175.165 142.354C175.153 143.253 175.172 144.152 175.211 145.048C175.734 144.892 176.25 144.684 176.761 144.503C178.666 143.829 180.554 143.107 182.421 142.338C181.95 143.062 181.459 143.771 180.946 144.464C179.375 145.079 177.789 145.659 176.192 146.206C175.88 146.313 175.58 146.415 175.293 146.483C175.377 147.691 175.501 148.897 175.656 150.1C175.205 150.343 174.74 150.498 174.273 150.512C174.091 149.118 173.947 147.72 173.854 146.319C173.726 146.24 173.6 146.143 173.474 146.017C172.529 145.069 171.668 144.024 170.771 143.032C169.886 142.055 169.001 141.076 168.116 140.097C167.845 139.129 167.606 138.154 167.397 137.176C168.742 138.664 170.087 140.151 171.433 141.639C172.207 142.493 172.982 143.349 173.756 144.204C173.723 143.016 173.731 141.827 173.789 140.636C173.854 139.276 173.981 137.922 174.145 136.574C171.496 133.716 168.847 130.858 166.198 128C166.156 127.269 166.128 126.538 166.109 125.806C168.868 128.783 171.627 131.761 174.388 134.74C174.83 131.686 175.424 128.651 175.943 125.607C172.826 122.364 169.648 119.182 166.408 116.065C166.453 115.461 166.506 114.855 166.563 114.25C169.849 117.386 173.069 120.589 176.228 123.856C176.328 123.227 176.423 122.597 176.509 121.966C176.876 119.285 177.158 116.588 177.332 113.885C177.192 113.79 177.06 113.678 176.931 113.565C173.918 110.91 170.784 108.404 167.522 106.068C167.594 105.533 167.666 104.998 167.738 104.465C169.173 105.478 170.586 106.524 171.975 107.602C173.839 109.05 175.658 110.556 177.429 112.117C177.557 109.351 177.564 106.582 177.423 103.818C177.377 102.913 177.313 102.007 177.23 101.103C174.468 99.1152 171.676 97.1696 168.854 95.2682C168.906 94.7268 168.953 94.1864 168.995 93.644C171.702 95.459 174.382 97.3144 177.035 99.2083C176.635 95.8331 175.98 92.4776 175.044 89.2105C174.946 89.1936 174.853 89.1569 174.778 89.1034C172.94 87.7771 171.1 86.4491 169.261 85.1228C169.249 84.5204 169.226 83.9179 169.196 83.3163C170.924 84.5627 172.651 85.809 174.38 87.0553C172.978 82.8078 171.078 78.7399 168.614 75.0113C168.793 74.4878 169.43 74.1945 169.976 74.5066L169.993 74.5169C172.347 78.1403 174.201 82.0804 175.595 86.1812C176.499 84.4029 177.353 82.6011 178.16 80.7795C178.522 81.1433 178.876 81.5136 179.22 81.8905C178.279 83.9855 177.273 86.0515 176.208 88.0873C177.258 91.5678 177.97 95.1197 178.404 98.7092Z" fill="#EDCD2E"/>
<path d="M202.676 103.052C202.708 103.433 202.732 103.815 202.749 104.199C202.866 106.791 202.675 109.408 202.205 111.991C202.128 112.414 202.044 112.835 201.953 113.257C201.417 115.724 200.63 118.153 199.619 120.494C199.438 120.913 199.251 121.329 199.056 121.742C197.82 124.359 196.306 126.85 194.551 129.143C194.258 129.526 193.958 129.903 193.652 130.275C191.333 133.088 188.641 135.564 185.658 137.557C185.126 137.913 184.586 138.253 184.034 138.576C183.402 138.949 182.759 139.3 182.103 139.628C181.273 140.043 179.953 140.767 178.791 140.874C178.413 140.91 178.051 140.879 177.729 140.753C177.661 140.725 177.594 140.694 177.529 140.659C175.767 139.682 176.236 135.429 176.373 133.709C176.422 133.092 176.488 132.48 176.57 131.87C176.667 131.133 176.789 130.4 176.931 129.672C177.369 127.426 178.004 125.227 178.787 123.075C178.971 122.566 179.165 122.06 179.365 121.556C179.372 121.538 179.38 121.52 179.387 121.502C180.27 119.289 181.296 117.126 182.405 115.009C182.612 114.612 182.825 114.214 183.04 113.819C183.756 112.495 184.502 111.19 185.261 109.901C185.532 109.441 185.804 108.984 186.075 108.527C186.281 108.184 186.486 107.841 186.69 107.499C187.864 105.531 189.034 103.572 190.128 101.56C190.321 101.207 190.51 100.853 190.697 100.495C190.989 99.9409 191.273 99.3826 191.549 98.8186C192.199 97.4906 192.81 96.1427 193.359 94.7705C193.527 94.3569 193.687 93.9405 193.842 93.5223C193.942 93.2487 194.04 92.9752 194.135 92.7008C194.343 92.1011 195.299 89.7128 195.702 88.005C195.732 87.8828 195.789 87.7785 195.864 87.6977C196.139 87.3931 196.658 87.379 196.938 87.7503L196.947 87.7616C198.528 89.8547 199.764 92.0842 200.684 94.4011C200.825 94.7545 200.958 95.1098 201.082 95.466C201.948 97.9248 202.469 100.472 202.676 103.052Z" fill="#FCE883"/>
<path d="M195.631 106.681C197.981 105.471 200.33 104.262 202.678 103.052C202.709 103.433 202.734 103.815 202.751 104.199C200.235 105.495 197.718 106.791 195.201 108.086C194.349 110.732 193.293 113.316 192.087 115.829C192.492 115.703 192.896 115.575 193.301 115.444C194.162 115.163 195.021 114.868 195.874 114.561C198.019 113.788 200.132 112.93 202.207 111.991C202.13 112.414 202.046 112.835 201.955 113.257C201.459 113.476 200.963 113.69 200.463 113.9C198.648 114.665 196.805 115.368 194.942 116.008C194.025 116.323 193.104 116.623 192.177 116.907C191.95 116.977 191.701 117.078 191.451 117.121C190.384 119.235 189.219 121.299 187.986 123.308C187.952 123.362 187.917 123.417 187.883 123.472C191.814 122.551 195.727 121.56 199.62 120.494C199.44 120.913 199.253 121.329 199.058 121.742C195.086 122.818 191.093 123.818 187.084 124.742C185.869 126.638 184.598 128.504 183.419 130.421C187.114 129.863 190.827 129.436 194.553 129.143C194.26 129.526 193.96 129.903 193.653 130.275C189.995 130.585 186.346 131.024 182.717 131.59C181.984 132.843 181.302 134.124 180.714 135.457C180.444 136.066 180.195 136.684 179.961 137.305C180.362 137.351 180.774 137.36 181.175 137.385C182.669 137.48 184.164 137.537 185.66 137.557C185.128 137.913 184.587 138.253 184.036 138.576C182.787 138.536 181.538 138.471 180.291 138.379C180.048 138.361 179.815 138.344 179.599 138.305C179.304 139.153 179.037 140.01 178.792 140.874C178.414 140.91 178.053 140.879 177.731 140.753C178.012 139.751 178.322 138.756 178.666 137.776C178.602 137.685 178.545 137.581 178.495 137.459C178.128 136.54 177.846 135.577 177.525 134.642C177.207 133.718 176.889 132.794 176.572 131.87C176.669 131.133 176.791 130.4 176.933 129.672C177.415 131.076 177.897 132.48 178.381 133.885C178.66 134.692 178.937 135.5 179.216 136.307C179.539 135.489 179.891 134.682 180.278 133.888C180.719 132.981 181.198 132.096 181.703 131.226C180.732 128.508 179.76 125.792 178.789 123.075C178.973 122.566 179.167 122.06 179.367 121.556C180.378 124.386 181.39 127.216 182.402 130.046C183.593 128.096 184.882 126.202 186.12 124.281C184.944 121.166 183.706 118.075 182.407 115.009C182.614 114.612 182.827 114.214 183.042 113.819C184.365 116.91 185.626 120.029 186.825 123.172C187.076 122.771 187.324 122.37 187.566 121.966C188.598 120.247 189.575 118.493 190.481 116.702C190.413 116.597 190.356 116.483 190.3 116.369C189.023 113.684 187.618 111.067 186.077 108.527C186.282 108.184 186.487 107.841 186.691 107.499C187.373 108.606 188.031 109.728 188.664 110.866C189.51 112.395 190.31 113.949 191.061 115.526C191.954 113.68 192.766 111.798 193.475 109.874C193.706 109.245 193.927 108.61 194.134 107.97C192.831 105.812 191.498 103.676 190.13 101.56C190.323 101.207 190.512 100.853 190.699 100.495C192.014 102.518 193.298 104.561 194.553 106.623C195.264 104.208 195.794 101.732 196.109 99.2369C196.047 99.1955 195.995 99.1438 195.959 99.0856C195.093 97.6475 194.228 96.2095 193.361 94.7705C193.528 94.3569 193.689 93.9405 193.843 93.5223C194.657 94.8729 195.471 96.2236 196.284 97.5761C196.566 94.2751 196.458 90.9526 195.866 87.6977C196.14 87.3931 196.659 87.379 196.94 87.7503L196.949 87.7616C197.496 90.914 197.611 94.136 197.366 97.3336C198.5 96.3862 199.606 95.4068 200.686 94.4011C200.826 94.7545 200.96 95.1098 201.084 95.466C199.833 96.6193 198.546 97.733 197.229 98.8102C196.93 101.485 196.38 104.111 195.631 106.681Z" fill="#EDCD2E"/>
<path d="M187.498 164.025L192.243 166.135C199.202 169.231 207.431 166.071 210.527 159.117C213.623 152.163 210.463 143.94 203.504 140.846L198.759 138.736L187.498 164.025Z" fill="#475877"/>
<path d="M85.5663 142.577C79.6746 130.774 78.1753 116.542 83.5544 104.213C86.6668 97.0826 91.0132 90.0559 97.2755 85.2802C102.74 81.1117 109.158 78.151 115.806 76.4488C127.26 73.5163 139.952 74.6085 150.108 80.6596C158.588 85.7116 164.758 93.8597 168.796 102.745C172.734 111.41 174.341 122.153 182.924 127.788C185.374 129.397 189.462 130.089 190.651 133.062C192.067 136.599 189.417 140.083 187.993 143.132C186.3 146.76 184.615 150.392 182.93 154.024C181.723 156.628 180.539 161.131 177.386 162.073C174.358 163.119 171.158 160.484 168.336 159.685C160.894 157.579 152.781 160.424 145.97 163.343C138.153 166.694 130.099 168.501 121.548 167.686C105.717 166.178 92.614 156.697 85.5663 142.577Z" fill="#DFE3E7"/>
<path d="M123.653 120.963C123.604 121.074 123.561 121.186 123.524 121.298C123.137 122.475 123.309 124.101 124.951 125.133C128.287 127.227 133.329 128.345 137.676 127.212C137.561 127.003 137.442 126.804 137.324 126.616C134.689 122.435 129.314 119.039 127.113 118.878C125.391 118.752 124.176 119.788 123.653 120.963ZM123.578 135.819C123.509 135.974 123.459 136.135 123.431 136.301C123.259 137.281 123.843 138.385 124.994 139.257C126.417 140.334 128.956 141.173 131.432 139.989C134.306 138.613 136.629 136.41 137.95 133.842C134.143 132.951 130.095 132.61 126.672 133.679C125.032 134.192 123.976 134.925 123.578 135.819ZM144.703 121.779C145.942 119.8 146.798 117.553 146.827 115.831C146.869 113.283 144.783 109.297 142.289 108.277C141.005 107.753 139.787 108.084 138.666 109.262C137.93 110.037 137.592 110.921 137.631 111.969C137.754 115.206 141.568 118.995 143.204 120.473C143.719 120.938 144.218 121.373 144.703 121.779ZM188.826 146.25L188.438 147.023C188.198 146.902 164.345 134.906 153.034 128.406L152.612 128.164C150.247 126.807 147.818 125.414 144.883 123.048C143.96 124.367 142.893 125.519 141.81 126.274C140.909 126.901 139.93 127.385 138.905 127.739C139.749 129.661 139.867 131.487 139.238 133.093C139.217 133.147 139.195 133.201 139.173 133.255C141.322 133.815 143.364 134.526 145.151 135.235C155.588 139.376 164.421 143.115 173.774 147.072C177.625 148.702 181.585 150.378 185.816 152.148L185.481 152.946C181.249 151.175 177.288 149.499 173.437 147.868C164.089 143.913 155.259 140.177 144.831 136.039C143.035 135.326 140.974 134.61 138.813 134.053C137.422 136.867 134.918 139.279 131.806 140.769C128.979 142.121 126.088 141.17 124.471 139.945C123.057 138.875 122.35 137.457 122.577 136.152C122.754 135.14 123.564 133.744 126.414 132.855C130.058 131.716 134.336 132.093 138.324 133.043C138.361 132.955 138.397 132.866 138.433 132.777C139.082 131.122 138.708 129.411 138.071 127.996C133.434 129.262 128.039 128.091 124.491 125.865C122.789 124.797 122.087 122.898 122.702 121.028C123.236 119.402 124.825 117.843 127.176 118.015C129.89 118.215 135.444 122.009 138.056 126.154C138.226 126.424 138.382 126.692 138.525 126.958C139.511 126.625 140.452 126.165 141.316 125.563C142.342 124.85 143.353 123.756 144.224 122.505C143.706 122.074 143.174 121.612 142.623 121.114C140.492 119.186 136.896 115.438 136.766 112.001C136.719 110.726 137.148 109.604 138.039 108.667C139.771 106.845 141.485 107.014 142.616 107.476C145.486 108.648 147.739 113.014 147.692 115.846C147.661 117.722 146.719 120.176 145.364 122.323C148.279 124.681 150.693 126.066 153.042 127.414L153.466 127.656C164.755 134.144 188.588 146.13 188.826 146.25Z" fill="#0054A6"/>
<path d="M182.4 161.446L193.684 136.769L191.248 135.656L179.963 160.333L182.4 161.446Z" fill="#475877"/>
<path d="M190.177 166.719C189.86 166.058 189.013 165.696 188.325 165.927L188.091 166.005C187.414 166.233 186.582 165.887 186.253 165.242L186.053 164.849C185.709 164.175 184.824 163.834 184.14 164.112C183.471 164.386 182.602 164.063 182.245 163.408L181.666 162.345C181.454 161.957 181.438 161.493 181.622 161.09L192.835 136.569C193.019 136.168 193.381 135.875 193.813 135.781L194.997 135.524C195.725 135.365 196.538 135.81 196.77 136.495C197.006 137.193 197.844 137.639 198.579 137.457L199.007 137.351C199.711 137.178 200.517 137.579 200.787 138.24L200.882 138.468C201.158 139.14 201.986 139.542 202.693 139.348L203.017 139.26C203.741 139.063 204.586 139.487 204.843 140.179L204.899 140.328C205.184 141.09 205.169 141.882 204.856 142.565L194.026 166.249C193.713 166.932 193.124 167.461 192.361 167.745L192.212 167.8C191.52 168.058 190.646 167.698 190.322 167.022L190.177 166.719Z" fill="#7793AD"/>
<path d="M149.255 162.012C149.243 162.012 149.231 162.012 149.219 162.012C149.333 161.968 149.449 161.923 149.565 161.879C149.559 161.882 149.553 161.884 149.547 161.887C149.45 161.929 149.353 161.971 149.255 162.012Z" fill="#5998D8"/>
<path d="M145.122 163.701C145.405 163.583 145.687 163.465 145.969 163.344C147.023 162.892 148.109 162.442 149.218 162.012C149.23 162.012 149.242 162.012 149.254 162.012C147.948 162.574 146.57 163.146 145.122 163.701Z" fill="#518CD0"/>
<path d="M176.42 162.432C175.976 162.421 175.527 162.409 175.08 162.398C174.397 162.296 173.641 162.058 172.809 161.639C169.928 160.186 166.409 159.016 162.065 159.016C161.59 159.016 161.105 159.03 160.61 159.059C161.36 158.992 162.11 158.956 162.858 158.956C164.704 158.956 166.541 159.176 168.337 159.685C170.702 160.354 173.333 162.314 175.905 162.313C176.402 162.313 176.896 162.241 177.386 162.072C178.568 161.718 179.474 160.865 180.208 159.798L180.161 159.9C179.802 160.502 178.614 162.189 176.42 162.432Z" fill="#5998D8"/>
<path d="M175.886 162.46C175.629 162.46 175.36 162.441 175.079 162.398C175.526 162.409 175.975 162.421 176.419 162.432C176.247 162.451 176.069 162.46 175.886 162.46Z" fill="#518CD0"/>
<path d="M103.887 162.158C98.917 159.653 94.5321 155.755 90.9325 151.025C94.5415 155.57 98.9198 159.342 103.887 162.158ZM80.2881 118.366C80.3558 116.067 80.6051 113.807 81.0481 111.622C81.0782 111.677 81.1073 111.734 81.1355 111.791C80.6765 113.96 80.3981 116.159 80.2881 118.366Z" fill="#5998D8"/>
<path d="M81.1353 111.791C81.1071 111.734 81.0779 111.678 81.0479 111.622C81.1532 111.1 81.2708 110.582 81.3987 110.068C81.4335 110.117 81.4683 110.166 81.5022 110.216C81.3695 110.739 81.2473 111.265 81.1353 111.791ZM81.6771 109.55C81.6423 109.503 81.6056 109.457 81.5699 109.41C81.9762 107.906 82.4803 106.446 83.087 105.04C83.1162 105.065 83.1453 105.091 83.1745 105.117C82.5829 106.572 82.0853 108.051 81.6771 109.55ZM83.3908 104.597C83.3645 104.575 83.3391 104.552 83.3127 104.53C83.6231 103.846 83.958 103.176 84.3182 102.521C84.0558 103.084 83.8018 103.649 83.5545 104.214C83.499 104.342 83.4444 104.469 83.3908 104.597Z" fill="#E5CB49"/>
<path d="M81.5014 110.215C81.4676 110.165 81.4328 110.116 81.3979 110.068C81.4525 109.847 81.5099 109.628 81.5691 109.409C81.6049 109.456 81.6416 109.502 81.6764 109.549C81.6162 109.771 81.5578 109.991 81.5014 110.215Z" fill="#D09F29"/>
<path d="M83.1744 105.116C83.1452 105.089 83.1161 105.064 83.0869 105.039C83.1612 104.868 83.2365 104.697 83.3127 104.528C83.339 104.551 83.3644 104.573 83.3907 104.596C83.3174 104.769 83.2449 104.942 83.1744 105.116Z" fill="#D09F29"/>
<path d="M125.772 167.628C119.192 167.628 111.889 166.179 103.918 162.173C103.908 162.168 103.899 162.163 103.887 162.157C98.9202 159.341 94.5419 155.57 90.9329 151.025C83.9784 141.888 79.9527 129.649 80.2885 118.366C80.3986 116.158 80.677 113.96 81.136 111.791C81.2479 111.264 81.3702 110.738 81.5028 110.215C81.5592 109.992 81.6175 109.771 81.6777 109.549C82.0859 108.051 82.5835 106.571 83.1751 105.116C83.2457 104.942 83.3181 104.769 83.3915 104.597C83.4451 104.469 83.4996 104.341 83.5551 104.213C83.8025 103.648 84.0564 103.083 84.3188 102.52C84.3377 102.487 84.3555 102.454 84.3743 102.422C84.3743 102.422 84.6819 134.787 112.148 147C118.354 149.759 123.595 150.712 128.401 150.712C133.763 150.712 138.582 149.527 143.602 148.343C148.621 147.157 153.84 145.973 159.994 145.973C163.915 145.973 168.216 146.453 173.089 147.721C173.205 147.77 173.322 147.82 173.438 147.869C176.721 149.259 180.084 150.682 183.627 152.169L181.028 158.006L180.208 159.799C179.474 160.866 178.569 161.719 177.386 162.073C176.896 162.242 176.402 162.314 175.906 162.314C173.333 162.315 170.703 160.355 168.337 159.685C166.541 159.177 164.705 158.957 162.858 158.957C162.11 158.957 161.361 158.993 160.61 159.06C157.382 159.25 153.724 160.082 149.565 161.878C149.449 161.922 149.334 161.968 149.219 162.012C148.11 162.442 147.025 162.891 145.97 163.344C145.688 163.465 145.406 163.583 145.123 163.701C139.65 165.795 133.167 167.628 125.772 167.628Z" fill="#CDD5DD"/>
<path d="M183.626 152.169C180.083 150.682 176.72 149.259 173.437 147.869C173.321 147.82 173.205 147.77 173.088 147.721C176.412 148.586 180.002 149.818 183.918 151.513L183.626 152.169Z" fill="#E7EBEF"/>
<path d="M180.16 159.901L180.207 159.799L181.027 158.006L180.278 159.687C180.278 159.687 180.239 159.768 180.16 159.901Z" fill="#4F6280"/>
<path d="M147.149 94.4434L144.386 93.9114C144.386 93.9114 143.2 85.5387 143.326 75.2974L139.006 75.492L130.844 67.4859C130.844 67.4859 140.109 66.3664 146.526 69.1504C148.872 70.1684 150.166 72.6939 149.636 75.1941C148.874 78.7854 148.746 82.5441 147.149 94.4434Z" fill="#3E4445"/>
<path d="M129.37 49.0135L129.318 45.1683L125.951 42.9088V49.5154L129.37 49.0135Z" fill="#E8A486"/>
<path d="M136.569 97.7491L136.099 99.2557C135.93 99.7943 136.333 100.342 136.898 100.342H143.867C143.867 100.342 144.03 99.0452 142.407 98.7219C140.786 98.3976 139.327 97.7491 139.327 97.7491H136.569Z" fill="#252929"/>
<path d="M144.438 93.7571L143.663 95.1322C143.385 95.6237 143.665 96.2441 144.218 96.3616L151.034 97.8137C151.034 97.8137 151.463 96.5787 149.945 95.9245C148.426 95.2694 147.133 94.3314 147.133 94.3314L144.438 93.7571Z" fill="#252929"/>
<path d="M125.71 42.5687C125.71 42.5687 126.094 45.6901 128.398 45.6901C130.7 45.6901 131.851 45.8978 131.851 43.4014C131.851 40.905 132.427 38.4086 130.892 37.5759C129.357 36.7441 125.518 36.5354 125.71 40.0723C125.71 40.0723 124.751 39.2405 124.751 40.4887C124.751 41.7369 124.751 42.985 125.71 42.5687Z" fill="#F1C3A8"/>
<path d="M125.71 43.1934C125.71 43.1934 119.761 38.4092 123.791 35.0801C127.821 31.7509 128.972 35.7042 132.618 33.0001C132.618 33.0001 136.072 36.1206 131.659 38.2006C131.659 38.2006 126.189 37.4721 126.573 40.8013C126.573 40.8013 125.997 39.9695 125.038 40.1772C124.079 40.3849 125.422 42.4659 125.71 43.1934Z" fill="#3E4445"/>
<path d="M142.829 57.8723L139.604 51.3541C138.398 48.9169 136.094 47.2016 133.407 46.7683C130.217 46.2532 125.935 45.8293 122.909 46.5521C117.494 47.8463 118.08 50.5448 118.15 51.5928C118.22 52.6399 118.892 60.6808 118.892 60.6808H123.451L123.117 68.1737L133.448 68.6531L135.811 54.7142L137.661 57.581L142.829 57.8723Z" fill="#F5C24A"/>
<path d="M133.448 68.6531L123.624 66.2986V54.437L124.853 65.2102L133.598 67.7639L133.448 68.6531Z" fill="#DAA221"/>
<path d="M120.475 68.898C120.475 68.898 118.851 73.7235 122.129 75.4933C125.408 77.2622 134.691 76.0131 134.691 76.0131C134.691 76.0131 133.575 84.1546 136.573 97.74H139.408L140.33 74.623C140.409 72.652 139.209 70.8539 137.357 70.1687L133.924 68.898H120.475Z" fill="#575E61"/>
<path d="M153.15 69.3352L157.344 56.9124H137.801L133.877 69.353L153.15 69.3352Z" fill="#E6E7EA"/>
<path d="M118.892 60.6809L120.476 68.8976C120.476 68.8976 128.343 70.612 132.622 70.096C132.622 70.096 136.635 70.7013 137.964 69.5809C139.293 68.4615 135.493 69.5029 134.618 68.9371C133.743 68.3703 123.624 66.2988 123.624 66.2988L123.451 60.6809H118.892Z" fill="#F1C3A8"/>
<path d="M92.7174 157.677L95.1996 149.758H109.431L106.937 157.677H92.7174ZM128.966 87.7455L126.621 95.1887H112.309L114.644 87.7455H128.966ZM115.025 132.002L112.495 140.034H98.2489L100.767 132.002H115.025ZM117.926 122.792L115.433 130.706H101.173L103.655 122.792H117.926ZM120.753 113.818L118.334 121.497H104.062L106.469 113.818H120.753ZM123.545 104.956L121.161 112.521H106.875L109.247 104.956H123.545ZM111.903 96.4848H126.213L123.953 103.66H109.653L111.903 96.4848ZM109.84 148.463H95.6059L97.8426 141.329H112.087L109.84 148.463ZM92.3111 158.973H106.529L103.218 169.484L104.455 169.872L132.336 81.3636L131.098 80.9744L129.374 86.4494H115.05L116.645 81.3626L115.408 80.9754L87.6562 169.484L88.8931 169.872L92.3111 158.973Z" fill="#475877"/>
<path d="M114.452 168.067C114.452 168.067 116.28 162.993 121.561 165.022C121.561 165.022 122.584 157.008 129.784 155.949C136.984 154.891 140.045 161.774 140.045 161.774C140.045 161.774 142.076 159.136 145.327 160.151C148.576 161.165 148.551 163.462 148.551 163.462C148.551 163.462 150.021 161.44 153.538 162.449C157.055 163.459 156.498 166.24 156.498 166.24C156.498 166.24 163.811 163.805 165.435 168.067H114.452Z" fill="#FFB2B5"/>
</svg>
