<svg width="343" height="96" viewBox="0 0 343 96" fill="none" xmlns="http://www.w3.org/2000/svg">
<path fill-rule="evenodd" clip-rule="evenodd" d="M337.757 42.6963L342.53 47.4692C342.823 47.7621 342.823 48.237 342.53 48.5299L337.757 53.3029C337.464 53.5957 336.99 53.5957 336.697 53.3029C336.404 53.01 336.404 52.5351 336.697 52.2422L340.189 48.7496L112 48.7495L112 47.2495L340.189 47.2496L336.697 43.7569C336.404 43.464 336.404 42.9891 336.697 42.6963C336.99 42.4034 337.464 42.4034 337.757 42.6963Z" fill="url(#paint0_linear_9540_39056)"/>
<path d="M96 48C96 74.5097 74.5097 96 48 96C21.4903 96 0 74.5097 0 48C0 21.4903 21.4903 0 48 0C74.5097 0 96 21.4903 96 48Z" fill="white"/>
<path fill-rule="evenodd" clip-rule="evenodd" d="M48 94.5C73.6812 94.5 94.5 73.6812 94.5 48C94.5 22.3188 73.6812 1.5 48 1.5C22.3188 1.5 1.5 22.3188 1.5 48C1.5 73.6812 22.3188 94.5 48 94.5ZM48 96C74.5097 96 96 74.5097 96 48C96 21.4903 74.5097 0 48 0C21.4903 0 0 21.4903 0 48C0 74.5097 21.4903 96 48 96Z" fill="#0054A6"/>
<path d="M38.5273 63V59.8359L48.3711 49.6016C49.4128 48.5078 50.2721 47.5443 50.9492 46.7109C51.6393 45.8646 52.1536 45.0638 52.4922 44.3086C52.8438 43.5534 53.0195 42.7526 53.0195 41.9062C53.0195 40.9297 52.7917 40.0898 52.3359 39.3867C51.8802 38.6836 51.2617 38.1432 50.4805 37.7656C49.6992 37.388 48.8138 37.1992 47.8242 37.1992C46.7826 37.1992 45.8776 37.4141 45.1094 37.8438C44.3411 38.2604 43.7422 38.8594 43.3125 39.6406C42.8958 40.4089 42.6875 41.3138 42.6875 42.3555H38.5078C38.5078 40.5846 38.9115 39.0352 39.7188 37.707C40.5391 36.3789 41.6589 35.3503 43.0781 34.6211C44.5104 33.8789 46.125 33.5078 47.9219 33.5078C49.7578 33.5078 51.3724 33.8724 52.7656 34.6016C54.1589 35.3307 55.2461 36.3203 56.0273 37.5703C56.8086 38.8073 57.1992 40.207 57.1992 41.7695C57.1992 42.8503 56.9974 43.9049 56.5938 44.9336C56.2031 45.9622 55.5065 47.1146 54.5039 48.3906C53.5143 49.6536 52.1341 51.1771 50.3633 52.9609L44.582 59.0156V59.25H57.668V63H38.5273Z" fill="#2D2F31"/>
<defs>
<linearGradient id="paint0_linear_9540_39056" x1="112" y1="42.4766" x2="342.75" y2="42.4766" gradientUnits="userSpaceOnUse">
<stop stop-color="#ED1C24"/>
<stop offset="1" stop-color="#0054A6"/>
</linearGradient>
</defs>
</svg>
