<svg width="343" height="96" viewBox="0 0 343 96" fill="none" xmlns="http://www.w3.org/2000/svg">
<path fill-rule="evenodd" clip-rule="evenodd" d="M337.757 42.6963L342.53 47.4692C342.823 47.7621 342.823 48.237 342.53 48.5299L337.757 53.3029C337.464 53.5957 336.99 53.5957 336.697 53.3029C336.404 53.01 336.404 52.5351 336.697 52.2422L340.189 48.7496L112 48.7495L112 47.2495L340.189 47.2496L336.697 43.7569C336.404 43.464 336.404 42.9891 336.697 42.6963C336.99 42.4034 337.464 42.4034 337.757 42.6963Z" fill="url(#paint0_linear_9540_39061)"/>
<path d="M96 48C96 74.5097 74.5097 96 48 96C21.4903 96 0 74.5097 0 48C0 21.4903 21.4903 0 48 0C74.5097 0 96 21.4903 96 48Z" fill="white"/>
<path fill-rule="evenodd" clip-rule="evenodd" d="M48 94.5C73.6812 94.5 94.5 73.6812 94.5 48C94.5 22.3188 73.6812 1.5 48 1.5C22.3188 1.5 1.5 22.3188 1.5 48C1.5 73.6812 22.3188 94.5 48 94.5ZM48 96C74.5097 96 96 74.5097 96 48C96 21.4903 74.5097 0 48 0C21.4903 0 0 21.4903 0 48C0 74.5097 21.4903 96 48 96Z" fill="#0054A6"/>
<path d="M48.0391 63.3906C46.0729 63.3906 44.3281 63.0586 42.8047 62.3945C41.2812 61.7174 40.0768 60.7799 39.1914 59.582C38.306 58.3841 37.8372 56.9974 37.7852 55.4219H42.1992C42.2643 56.2812 42.5573 57.0234 43.0781 57.6484C43.599 58.2734 44.2826 58.7617 45.1289 59.1133C45.9883 59.4518 46.9453 59.6211 48 59.6211C49.1458 59.6211 50.1615 59.4193 51.0469 59.0156C51.9323 58.612 52.6224 58.0586 53.1172 57.3555C53.625 56.6393 53.8789 55.8125 53.8789 54.875C53.8789 53.8984 53.6315 53.0391 53.1367 52.2969C52.6419 51.5417 51.9193 50.9557 50.9688 50.5391C50.0182 50.1224 48.8724 49.9141 47.5312 49.9141H45.0508V46.3203H47.5312C48.599 46.3203 49.543 46.125 50.3633 45.7344C51.1836 45.3438 51.8216 44.8034 52.2773 44.1133C52.7461 43.4232 52.9805 42.6094 52.9805 41.6719C52.9805 40.7734 52.7786 39.9922 52.375 39.3281C51.9714 38.651 51.4049 38.1302 50.6758 37.7656C49.9466 37.388 49.0872 37.1992 48.0977 37.1992C47.1471 37.1992 46.2617 37.3685 45.4414 37.707C44.6211 38.0456 43.9505 38.5339 43.4297 39.1719C42.9219 39.7969 42.6549 40.5586 42.6289 41.457H38.3906C38.4297 39.8815 38.8854 38.5013 39.7578 37.3164C40.6432 36.1185 41.8151 35.1875 43.2734 34.5234C44.7448 33.8464 46.3724 33.5078 48.1562 33.5078C50.0182 33.5078 51.6263 33.8724 52.9805 34.6016C54.3477 35.3177 55.4023 36.2812 56.1445 37.4922C56.8867 38.6901 57.2578 39.9987 57.2578 41.418C57.2578 43.0716 56.8021 44.4648 55.8906 45.5977C54.9792 46.7174 53.7617 47.4792 52.2383 47.8828V48.0977C54.1654 48.3971 55.6562 49.1654 56.7109 50.4023C57.7786 51.6393 58.3125 53.1758 58.3125 55.0117C58.3125 56.6133 57.8633 58.0456 56.9648 59.3086C56.0794 60.5716 54.862 61.5677 53.3125 62.2969C51.776 63.026 50.0182 63.3906 48.0391 63.3906Z" fill="#2D2F31"/>
<defs>
<linearGradient id="paint0_linear_9540_39061" x1="112" y1="42.4766" x2="342.75" y2="42.4766" gradientUnits="userSpaceOnUse">
<stop stop-color="#ED1C24"/>
<stop offset="1" stop-color="#0054A6"/>
</linearGradient>
</defs>
</svg>
