<svg width="343" height="96" viewBox="0 0 343 96" fill="none" xmlns="http://www.w3.org/2000/svg">
<path fill-rule="evenodd" clip-rule="evenodd" d="M337.757 42.6963L342.53 47.4692C342.823 47.7621 342.823 48.237 342.53 48.5299L337.757 53.3029C337.464 53.5957 336.99 53.5957 336.697 53.3029C336.404 53.01 336.404 52.5351 336.697 52.2422L340.189 48.7496L112 48.7495L112 47.2495L340.189 47.2496L336.697 43.7569C336.404 43.464 336.404 42.9891 336.697 42.6963C336.99 42.4034 337.464 42.4034 337.757 42.6963Z" fill="url(#paint0_linear_9540_39051)"/>
<path d="M96 48C96 74.5097 74.5097 96 48 96C21.4903 96 0 74.5097 0 48C0 21.4903 21.4903 0 48 0C74.5097 0 96 21.4903 96 48Z" fill="white"/>
<path fill-rule="evenodd" clip-rule="evenodd" d="M48 94.5C73.6812 94.5 94.5 73.6812 94.5 48C94.5 22.3188 73.6812 1.5 48 1.5C22.3188 1.5 1.5 22.3188 1.5 48C1.5 73.6812 22.3188 94.5 48 94.5ZM48 96C74.5097 96 96 74.5097 96 48C96 21.4903 74.5097 0 48 0C21.4903 0 0 21.4903 0 48C0 74.5097 21.4903 96 48 96Z" fill="#0054A6"/>
<path d="M53.0586 33.8984V63H48.7227V38.3125H48.5273L41.6133 42.8633V38.6445L48.8398 33.8984H53.0586Z" fill="#2D2F31"/>
<defs>
<linearGradient id="paint0_linear_9540_39051" x1="112" y1="42.4766" x2="342.75" y2="42.4766" gradientUnits="userSpaceOnUse">
<stop stop-color="#ED1C24"/>
<stop offset="1" stop-color="#0054A6"/>
</linearGradient>
</defs>
</svg>
