<svg width="1600" height="344" viewBox="0 0 1600 344" fill="none" xmlns="http://www.w3.org/2000/svg">
<path d="M1600 0H0V344H1600V0Z" fill="#002548"/>
<mask id="mask0_6519_14272" style="mask-type:luminance" maskUnits="userSpaceOnUse" x="0" y="0" width="1600" height="344">
<path d="M1600 0H0V344H1600V0Z" fill="white"/>
</mask>
<g mask="url(#mask0_6519_14272)">
<mask id="mask1_6519_14272" style="mask-type:alpha" maskUnits="userSpaceOnUse" x="0" y="-68" width="1600" height="538">
<path d="M1600 -68H0V470H1600V-68Z" fill="black"/>
</mask>
<g mask="url(#mask1_6519_14272)">
<g clip-path="url(#clip0_6519_14272)">
<path fill-rule="evenodd" clip-rule="evenodd" d="M-141.516 172.644C-141.516 -49.2698 -8.85364 -240.227 181.53 -325.319L180.714 -327.145C-10.3632 -241.743 -143.516 -50.0876 -143.516 172.644C-143.516 300.696 -99.5034 418.468 -25.7836 511.687L-24.2149 510.447C-97.6654 417.567 -141.516 300.23 -141.516 172.644ZM793.949 -208.616C890.185 -110.317 949.516 24.2408 949.516 172.644C949.516 303.22 903.592 423.06 827 516.947L828.55 518.211C905.422 423.981 951.516 303.698 951.516 172.644C951.516 23.6968 891.965 -111.357 795.378 -210.015L793.949 -208.616ZM849.705 172.644C849.705 -73.3786 650.162 -272.811 404 -272.811C157.838 -272.811 -41.7055 -73.3786 -41.7055 172.644H-43.7055C-43.7055 -74.4842 156.735 -274.811 404 -274.811C651.265 -274.811 851.705 -74.4842 851.705 172.644C851.705 419.772 651.265 620.098 404 620.098V618.098C650.162 618.098 849.705 418.666 849.705 172.644ZM404 -203.999C612.122 -203.999 780.855 -35.3754 780.855 172.644H782.855C782.855 -36.4811 613.226 -205.999 404 -205.999V-203.999ZM78.9072 338.426C139.312 456.49 262.206 537.316 404 537.316C464.035 537.316 520.678 522.834 570.616 497.154L571.53 498.933C521.316 524.754 464.36 539.316 404 539.316C261.427 539.316 137.86 458.043 77.1267 339.337L78.9072 338.426ZM68.9395 172.643C68.9395 23.23 166.838 -103.323 302.03 -146.449L301.422 -148.354C165.426 -104.972 66.9395 22.3339 66.9395 172.643C66.9395 209.464 72.849 244.902 83.7757 278.066L85.6752 277.44C74.8143 244.476 68.9395 209.248 68.9395 172.643ZM727.959 172.644C727.959 82.7337 691.696 2.29135 633.072 -56.2993L634.486 -57.7139C693.468 1.23514 729.959 82.1799 729.959 172.644C729.959 263.108 693.067 344.959 633.504 403.983L632.096 402.562C691.296 343.899 727.959 262.553 727.959 172.644ZM91.113 172.644C91.113 138.353 96.6461 105.366 106.839 74.4933L104.94 73.8662C94.6813 104.938 89.113 138.137 89.113 172.644C89.113 313.431 181.605 432.609 309.172 472.831L309.774 470.923C183.014 430.956 91.113 312.533 91.113 172.644ZM165.16 345.77C218.781 419.54 305.784 467.495 404 467.495C469.01 467.495 529.122 446.474 577.874 410.861L579.054 412.476C529.97 448.331 469.448 469.495 404 469.495C305.118 469.495 217.523 421.212 163.542 346.945L165.16 345.77ZM404 -112.625C451.3 -112.625 495.905 -101.125 535.171 -80.7865L536.091 -82.5624C496.547 -103.045 451.628 -114.625 404 -114.625C291.821 -114.625 194.656 -50.3943 147.296 43.2757L149.081 44.1781C196.114 -48.8447 292.604 -112.625 404 -112.625ZM283.444 -67.6385C195.476 -23.4646 135.119 67.5415 135.119 172.644C135.119 217.35 146.031 259.497 165.357 296.574L163.583 297.498C144.112 260.142 133.119 217.679 133.119 172.644C133.119 66.7559 193.929 -24.9258 282.547 -69.4258L283.444 -67.6385ZM559.172 -38.7119C624.126 9.00482 666.277 85.9038 666.277 172.644C666.277 230.334 647.633 283.663 616.037 326.959L617.653 328.138C649.49 284.511 668.277 230.772 668.277 172.644C668.277 85.2402 625.801 7.75345 560.356 -40.3237L559.172 -38.7119ZM404 411.203C469.962 411.203 530.382 384.142 573.642 340.462L575.063 341.869C531.441 385.914 470.515 413.203 404 413.203C337.486 413.203 277.274 386.241 233.711 342.659L235.126 341.245C278.328 384.467 338.037 411.203 404 411.203ZM404.015 -57.2969C429.405 -57.2969 453.831 -53.1908 476.661 -45.5999L477.292 -47.4977C454.261 -55.1555 429.621 -59.2969 404.015 -59.2969C300.313 -59.2969 212.489 8.68173 182.752 102.491L184.658 103.096C214.139 10.0939 301.209 -57.2969 404.015 -57.2969ZM277.73 -3.65417C222.844 35.6823 187.079 99.9995 187.079 172.643C187.079 221.178 203.034 265.974 229.981 302.105L228.378 303.3C201.182 266.836 185.079 221.624 185.079 172.643C185.079 99.3271 221.178 34.416 276.565 -5.27979L277.73 -3.65417ZM404 377.679C290.701 377.679 198.849 285.878 198.849 172.644H196.849C196.849 286.983 289.598 379.679 404 379.679V377.679ZM581.146 84.6829C548.761 19.6685 481.6 -24.9897 404.015 -24.9897C371.437 -24.9897 340.693 -17.1085 313.597 -3.16205L312.681 -4.94034C340.054 -19.029 371.111 -26.9897 404.015 -26.9897C482.387 -26.9897 550.225 18.1235 582.936 83.7911L581.146 84.6829ZM576.772 116.025C582.617 133.844 585.776 152.874 585.776 172.643C585.776 253.705 532.654 322.363 459.308 345.745L459.916 347.651C534.066 324.012 587.776 254.601 587.776 172.643C587.776 152.66 584.582 133.419 578.672 115.401L576.772 116.025ZM282.222 47.1002C249.43 78.8856 229.052 123.382 229.052 172.644C229.052 221.905 249.652 266.889 282.768 298.703L281.383 300.146C247.889 267.969 227.052 222.47 227.052 172.644C227.052 122.819 247.666 77.8105 280.83 45.6641L282.222 47.1002ZM254.416 172.644C254.416 90.0706 321.394 23.1445 404 23.1445V21.1445C320.29 21.1445 252.416 88.9648 252.416 172.644H254.416ZM550.378 172.644C550.378 148.687 544.614 126.088 534.414 106.126L536.195 105.216C546.535 125.452 552.378 148.362 552.378 172.644C552.378 230.709 518.979 280.976 470.345 305.317L469.449 303.529C517.434 279.513 550.378 229.922 550.378 172.644ZM424.07 36.6323C490.508 46.3516 541.532 103.535 541.532 172.644C541.532 180.877 540.81 188.948 539.425 196.782L541.395 197.13C542.8 189.181 543.532 180.994 543.532 172.644C543.532 102.527 491.764 44.5141 424.359 34.6533L424.07 36.6323ZM291.293 88.8987C273.874 112.273 263.559 141.257 263.559 172.644C263.559 220.068 287.091 261.985 323.11 287.393L321.958 289.028C285.43 263.261 261.559 220.746 261.559 172.644C261.559 140.811 272.022 111.411 289.689 87.7036L291.293 88.8987ZM404 305.025C344.563 305.025 294.272 265.909 277.494 212.011L275.585 212.605C292.616 267.317 343.664 307.025 404 307.025C419.011 307.025 433.441 304.575 446.93 300.031L446.291 298.135C433.006 302.611 418.791 305.025 404 305.025ZM497.434 83.2672C473.883 58.6841 440.731 43.377 404 43.377C367.268 43.377 334.56 58.4774 311.052 82.7519L309.616 81.3605C333.483 56.7146 366.702 41.377 404 41.377C441.299 41.377 474.965 56.9232 498.878 81.8836L497.434 83.2672ZM524.066 210.45C508.001 261.443 460.321 298.41 404 298.41C390.246 298.41 376.993 296.202 364.596 292.126L363.971 294.026C376.568 298.167 390.03 300.41 404 300.41C461.218 300.41 509.653 262.854 525.973 211.051L524.066 210.45ZM387.218 53.024C328.427 61.1888 283.164 111.636 283.164 172.644C283.164 179.883 283.798 186.989 285.019 193.873L283.05 194.223C281.808 187.223 281.164 180 281.164 172.644C281.164 110.623 327.178 59.3431 386.943 51.043L387.218 53.024ZM499.1 103.191C513.361 122.665 521.778 146.668 521.778 172.644C521.778 212.238 502.222 247.258 472.226 268.602L473.386 270.231C503.885 248.529 523.778 212.913 523.778 172.644C523.778 146.228 515.217 121.815 500.714 102.01L499.1 103.191ZM304.237 118.594C295.499 134.664 290.541 153.072 290.541 172.644C290.541 217.238 316.285 255.807 353.744 274.335L352.857 276.128C314.743 257.276 288.541 218.029 288.541 172.644C288.541 152.73 293.586 133.995 302.48 117.639L304.237 118.594ZM404 62.6455C464.789 62.6455 514.061 111.89 514.061 172.644H516.061C516.061 110.785 465.893 60.6455 404 60.6455V62.6455ZM307.4 220.584C325.047 256.05 361.679 280.417 404 280.417C422.442 280.417 439.808 275.787 454.998 267.63L455.944 269.393C440.471 277.701 422.781 282.417 404 282.417C360.892 282.417 323.582 257.595 305.61 221.475L307.4 220.584ZM495.423 206.648C481.613 243.709 445.898 270.093 404.015 270.093C389.175 270.093 375.131 266.789 362.542 260.872L361.691 262.682C374.541 268.721 388.875 272.093 404.015 272.093C446.759 272.093 483.204 245.165 497.297 207.347L495.423 206.648ZM376.233 79.188C335.905 91.1402 306.481 128.451 306.481 172.644C306.481 184.128 308.464 195.154 312.122 205.385L310.238 206.059C306.505 195.613 304.481 184.359 304.481 172.644C304.481 127.54 334.512 89.4671 375.665 77.2705L376.233 79.188ZM404 83.0859C449.604 83.0859 487.239 117.12 492.89 161.156L494.873 160.902C489.096 115.879 450.622 81.0859 404 81.0859C398.93 81.0859 393.964 81.4908 389.115 82.2858L389.439 84.2595C394.179 83.4822 399.037 83.0859 404 83.0859ZM318.604 165.764C318.427 168.041 318.324 170.329 318.324 172.643C318.324 216.101 350.731 252.009 392.702 257.522L392.442 259.505C349.489 253.863 316.324 217.118 316.324 172.643C316.324 170.27 316.43 167.93 316.609 165.609L318.604 165.764ZM486.01 172.644C486.01 217.911 449.294 254.607 404 254.607V256.607C450.398 256.607 488.01 219.017 488.01 172.644H486.01ZM370.562 102.583C344.404 115.076 326.339 141.76 326.339 172.644C326.339 186.455 329.944 199.429 336.273 210.66L334.531 211.642C328.036 200.118 324.339 186.807 324.339 172.644C324.339 140.96 342.874 113.591 369.7 100.778L370.562 102.583ZM404.015 100.708C436.95 100.708 464.735 122.813 473.284 153.01L475.208 152.465C466.422 121.429 437.867 98.708 404.015 98.708C395.652 98.708 387.602 100.091 380.093 102.663L380.741 104.555C388.043 102.054 395.874 100.708 404.015 100.708ZM404 244.579C423.876 244.579 442.749 236.136 455.849 222.546L457.289 223.934C443.823 237.905 424.434 246.579 404 246.579C383.569 246.579 365.078 238.308 351.689 224.927L353.102 223.512C366.131 236.534 384.121 244.579 404 244.579Z" fill="url(#paint0_radial_6519_14272)"/>
</g>
<g opacity="0.2">
<path fill-rule="evenodd" clip-rule="evenodd" d="M784.251 156.768C784.251 -312.355 1064.7 -716.035 1467.17 -895.919L1465.44 -899.779C1061.51 -719.24 780.023 -314.083 780.023 156.768C780.023 427.469 873.065 676.436 1028.91 873.502L1032.22 870.879C876.951 674.533 784.251 426.483 784.251 156.768ZM2761.81 -649.21C2965.25 -441.407 3090.68 -156.954 3090.68 156.768C3090.68 432.805 2993.6 686.145 2831.68 884.62L2834.96 887.293C2997.46 688.091 3094.91 433.815 3094.91 156.768C3094.91 -158.104 2969.02 -443.606 2764.83 -652.168L2761.81 -649.21ZM2879.68 156.768C2879.68 -363.32 2457.85 -784.918 1937.47 -784.918C1417.08 -784.918 995.25 -363.32 995.25 156.768H991.021C991.021 -365.657 1414.75 -789.146 1937.47 -789.146C2460.18 -789.146 2883.91 -365.657 2883.91 156.768C2883.91 679.193 2460.18 1102.68 1937.47 1102.68V1098.45C2457.85 1098.45 2879.68 676.856 2879.68 156.768ZM1937.47 -639.45C2377.43 -639.45 2734.13 -282.982 2734.13 156.768H2738.36C2738.36 -285.319 2379.77 -643.678 1937.47 -643.678V-639.45ZM1250.22 507.229C1377.92 756.814 1637.71 927.68 1937.47 927.68C2064.38 927.68 2184.12 897.065 2289.69 842.778L2291.62 846.538C2185.47 901.125 2065.07 931.908 1937.47 931.908C1636.07 931.908 1374.85 760.099 1246.46 509.155L1250.22 507.229ZM1229.15 156.767C1229.15 -159.091 1436.11 -426.622 1721.9 -517.789L1720.62 -521.817C1433.12 -430.107 1224.92 -160.985 1224.92 156.767C1224.92 234.605 1237.42 309.521 1260.52 379.628L1264.53 378.305C1241.57 308.62 1229.15 234.15 1229.15 156.767ZM2622.31 156.768C2622.31 -33.3008 2545.65 -203.355 2421.72 -327.215L2424.71 -330.205C2549.4 -205.588 2626.54 -34.4716 2626.54 156.768C2626.54 348.009 2548.55 521.041 2422.63 645.817L2419.66 642.813C2544.8 518.799 2622.31 346.835 2622.31 156.768ZM1276.03 156.767C1276.03 84.278 1287.72 14.5428 1309.27 -50.7213L1305.26 -52.0469C1283.57 13.6381 1271.8 83.8204 1271.8 156.767C1271.8 454.391 1467.32 706.331 1737 791.36L1738.27 787.327C1470.3 702.837 1276.03 452.492 1276.03 156.767ZM1432.56 522.754C1545.91 678.704 1729.84 780.081 1937.47 780.081C2074.9 780.081 2201.97 735.642 2305.03 660.357L2307.53 663.771C2203.76 739.567 2075.82 784.309 1937.47 784.309C1728.43 784.309 1543.26 682.238 1429.14 525.24L1432.56 522.754ZM1937.46 -446.288C2037.46 -446.288 2131.75 -421.976 2214.76 -378.98L2216.7 -382.735C2133.11 -426.034 2038.15 -450.516 1937.46 -450.516C1700.32 -450.516 1494.91 -314.732 1394.8 -116.715L1398.57 -114.807C1498 -311.456 1701.97 -446.288 1937.46 -446.288ZM1682.61 -351.186C1496.65 -257.803 1369.05 -65.4169 1369.05 156.768C1369.05 251.276 1392.12 340.374 1432.98 418.755L1429.23 420.709C1388.07 341.738 1364.83 251.972 1364.83 156.768C1364.83 -67.0776 1493.38 -260.892 1680.71 -354.964L1682.61 -351.186ZM2265.5 -290.035C2402.81 -189.163 2491.92 -26.5992 2491.92 156.768C2491.92 278.725 2452.5 391.461 2385.71 482.989L2389.12 485.481C2456.43 393.254 2496.14 279.651 2496.14 156.768C2496.14 -28.0022 2406.35 -191.808 2268 -293.443L2265.5 -290.035ZM1937.47 661.078C2076.91 661.078 2204.63 603.872 2296.09 511.533L2299.09 514.509C2206.87 607.619 2078.08 665.306 1937.47 665.306C1796.85 665.306 1669.57 608.31 1577.48 516.177L1580.47 513.188C1671.8 604.56 1798.02 661.078 1937.47 661.078ZM1937.5 -329.324C1991.17 -329.324 2042.81 -320.643 2091.07 -304.596L2092.4 -308.608C2043.72 -324.797 1991.63 -333.552 1937.5 -333.552C1718.27 -333.552 1532.61 -189.846 1469.75 8.46667L1473.78 9.74426C1536.1 -186.86 1720.17 -329.324 1937.5 -329.324ZM1670.53 -215.924C1554.5 -132.767 1478.9 3.19879 1478.9 156.767C1478.9 259.369 1512.63 354.067 1569.59 430.447L1566.2 432.974C1508.71 355.89 1474.67 260.311 1474.67 156.767C1474.67 1.77747 1550.98 -135.444 1668.07 -219.36L1670.53 -215.924ZM1937.47 590.21C1697.95 590.21 1503.78 396.143 1503.78 156.768H1499.55C1499.55 398.48 1695.62 594.438 1937.47 594.438V590.21ZM2311.95 -29.1802C2243.49 -166.62 2101.51 -261.027 1937.5 -261.027C1868.63 -261.027 1803.64 -244.366 1746.35 -214.883L1744.42 -218.643C1802.28 -248.426 1867.94 -265.255 1937.5 -265.255C2103.17 -265.255 2246.58 -169.886 2315.73 -31.0654L2311.95 -29.1802ZM2302.7 37.0759C2315.06 74.7458 2321.74 114.975 2321.74 156.767C2321.74 328.13 2209.44 473.272 2054.39 522.703L2055.67 526.731C2212.42 476.758 2325.96 330.025 2325.96 156.767C2325.96 114.522 2319.21 73.8483 2306.72 35.7582L2302.7 37.0759ZM1680.03 -108.63C1610.71 -41.4362 1567.63 52.6288 1567.63 156.767C1567.63 260.905 1611.18 356.001 1681.18 423.256L1678.25 426.305C1607.45 358.283 1563.4 262.099 1563.4 156.767C1563.4 51.4376 1606.98 -43.709 1677.09 -111.666L1680.03 -108.63ZM1621.25 156.768C1621.25 -17.7912 1762.84 -159.272 1937.47 -159.272V-163.5C1760.5 -163.5 1617.02 -20.1287 1617.02 156.768H1621.25ZM2246.91 156.767C2246.91 106.123 2234.72 58.3492 2213.16 16.1498L2216.92 14.226C2238.78 57.0057 2251.13 105.437 2251.13 156.767C2251.13 279.517 2180.53 385.781 2077.72 437.238L2075.82 433.457C2177.26 382.689 2246.91 277.854 2246.91 156.767ZM1979.89 -130.759C2120.34 -110.212 2228.21 10.6726 2228.21 156.768C2228.21 174.173 2226.68 191.234 2223.75 207.795L2227.92 208.531C2230.89 191.727 2232.44 174.42 2232.44 156.768C2232.44 8.54095 2123 -114.097 1980.5 -134.942L1979.89 -130.759ZM1699.2 -20.2681C1662.38 29.144 1640.57 90.4156 1640.57 156.768C1640.57 257.022 1690.32 345.634 1766.47 399.347L1764.03 402.802C1686.81 348.331 1636.35 258.456 1636.35 156.768C1636.35 89.474 1658.47 27.3221 1695.81 -22.7946L1699.2 -20.2681ZM1937.46 436.621C1811.82 436.621 1705.5 353.93 1670.03 239.989L1666 241.246C1702 356.905 1809.92 440.849 1937.46 440.849C1969.2 440.849 1999.7 435.668 2028.22 426.063L2026.87 422.056C1998.78 431.516 1968.73 436.621 1937.46 436.621ZM2134.98 -32.173C2085.2 -84.1414 2015.12 -116.5 1937.47 -116.5C1859.81 -116.5 1790.67 -84.5783 1740.98 -33.2624L1737.94 -36.2036C1788.39 -88.3049 1858.62 -120.728 1937.47 -120.728C2016.32 -120.728 2087.49 -87.8638 2138.04 -35.0979L2134.98 -32.173ZM2191.28 236.69C2157.32 344.489 2056.53 422.636 1937.47 422.636C1908.39 422.636 1880.37 417.969 1854.17 409.352L1852.85 413.368C1879.47 422.123 1907.93 426.864 1937.47 426.864C2058.42 426.864 2160.82 347.47 2195.31 237.961L2191.28 236.69ZM1901.99 -96.1068C1777.71 -78.8464 1682.02 27.7985 1682.02 156.768C1682.02 172.073 1683.36 187.094 1685.94 201.647L1681.78 202.386C1679.15 187.588 1677.79 172.319 1677.79 156.768C1677.79 25.6573 1775.06 -82.7481 1901.41 -100.295L1901.99 -96.1068ZM2138.51 9.94617C2168.65 51.1137 2186.45 101.854 2186.45 156.768C2186.45 240.469 2145.1 314.501 2081.69 359.622L2084.15 363.067C2148.62 317.188 2190.67 241.896 2190.67 156.768C2190.67 100.926 2172.58 49.3156 2141.92 7.44824L2138.51 9.94617ZM1726.57 42.5076C1708.1 76.4791 1697.61 115.393 1697.61 156.768C1697.61 251.041 1752.04 332.574 1831.22 371.742L1829.35 375.532C1748.78 335.679 1693.39 252.711 1693.39 156.768C1693.39 114.67 1704.05 75.064 1722.85 40.4879L1726.57 42.5076ZM1937.47 -75.7671C2065.97 -75.7671 2170.13 28.3354 2170.13 156.768H2174.36C2174.36 25.9982 2068.31 -79.9951 1937.47 -79.9951V-75.7671ZM1733.25 258.114C1770.56 333.089 1848 384.598 1937.47 384.598C1976.45 384.598 2013.16 374.811 2045.27 357.569L2047.27 361.294C2014.56 378.858 1977.17 388.826 1937.47 388.826C1846.34 388.826 1767.46 336.354 1729.47 259.998L1733.25 258.114ZM2130.73 228.653C2101.54 306.999 2026.04 362.774 1937.5 362.774C1906.12 362.774 1876.44 355.789 1849.82 343.282L1848.03 347.108C1875.19 359.875 1905.49 367.002 1937.5 367.002C2027.86 367.002 2104.9 310.077 2134.69 230.13L2130.73 228.653ZM1878.77 -40.7963C1793.51 -15.5297 1731.31 63.3442 1731.31 156.768C1731.31 181.045 1735.5 204.354 1743.24 225.984L1739.25 227.407C1731.36 205.324 1727.08 181.534 1727.08 156.768C1727.08 61.4189 1790.57 -19.0665 1877.57 -44.85L1878.77 -40.7963ZM1937.47 -32.5562C2033.87 -32.5562 2113.43 39.3904 2125.38 132.484L2129.57 131.946C2117.36 36.7684 2036.02 -36.7841 1937.47 -36.7841C1926.75 -36.7841 1916.25 -35.9283 1906 -34.2476L1906.68 -30.0754C1916.7 -31.7184 1926.97 -32.5562 1937.47 -32.5562ZM1756.94 142.224C1756.57 147.039 1756.35 151.875 1756.35 156.767C1756.35 248.636 1824.85 324.546 1913.58 336.2L1913.03 340.392C1822.23 328.465 1752.12 250.787 1752.12 156.767C1752.12 151.75 1752.34 146.803 1752.72 141.897L1756.94 142.224ZM2110.83 156.768C2110.83 252.462 2033.22 330.036 1937.47 330.036V334.264C2035.55 334.264 2115.06 254.8 2115.06 156.768H2110.83ZM1866.78 8.66046C1811.48 35.071 1773.29 91.48 1773.29 156.767C1773.29 185.965 1780.91 213.392 1794.29 237.134L1790.61 239.209C1776.88 214.849 1769.06 186.71 1769.06 156.767C1769.06 89.7886 1808.24 31.9307 1864.96 4.84528L1866.78 8.66046ZM1937.5 4.69659C2007.12 4.69659 2065.86 51.4271 2083.93 115.262L2088 114.11C2069.42 48.5007 2009.06 0.468628 1937.5 0.468628C1919.82 0.468628 1902.8 3.39252 1886.93 8.82971L1888.3 12.8296C1903.73 7.54254 1920.29 4.69659 1937.5 4.69659ZM1937.47 308.839C1979.48 308.839 2019.38 290.99 2047.07 262.261L2050.12 265.196C2021.65 294.729 1980.66 313.067 1937.47 313.067C1894.28 313.067 1855.18 295.582 1826.88 267.293L1829.87 264.303C1857.41 291.831 1895.44 308.839 1937.47 308.839Z" fill="url(#paint1_radial_6519_14272)"/>
</g>
</g>
</g>
<defs>
<radialGradient id="paint0_radial_6519_14272" cx="0" cy="0" r="1" gradientUnits="userSpaceOnUse" gradientTransform="translate(404 146.477) rotate(90) scale(473.622 547.516)">
<stop stop-color="white" stop-opacity="0.3"/>
<stop offset="0.458333" stop-color="white" stop-opacity="0.1"/>
<stop offset="0.869792" stop-color="white" stop-opacity="0"/>
</radialGradient>
<radialGradient id="paint1_radial_6519_14272" cx="0" cy="0" r="1" gradientUnits="userSpaceOnUse" gradientTransform="translate(1937.47 101.451) rotate(90) scale(1001.23 1157.44)">
<stop stop-color="white" stop-opacity="0.3"/>
<stop offset="0.458333" stop-color="white" stop-opacity="0.1"/>
<stop offset="0.869792" stop-color="white" stop-opacity="0"/>
</radialGradient>
<clipPath id="clip0_6519_14272">
<rect width="1096" height="948.164" fill="white" transform="matrix(-1 0 0 1 952 -327.582)"/>
</clipPath>
</defs>
</svg>
