<svg width="60" height="60" viewBox="0 0 60 60" fill="none" xmlns="http://www.w3.org/2000/svg">
<path d="M24.9299 45.8H35.1899V54.09H24.9299V45.8Z" fill="#ABB1C3"/>
<path d="M24.9299 45.8H29.8599V54.09H24.9299V45.8Z" fill="#9399AE"/>
<path d="M58.9001 39.92H1.22008L0.640083 40V43.52C0.636119 43.8329 0.694163 44.1435 0.810865 44.4338C0.927567 44.7242 1.10062 44.9886 1.32003 45.2117C1.53944 45.4348 1.80086 45.6123 2.08922 45.7339C2.37758 45.8554 2.68715 45.9187 3.00008 45.92H57.1001C57.7286 45.92 58.3315 45.6703 58.7759 45.2258C59.2204 44.7814 59.4701 44.1785 59.4701 43.55V40L58.9001 39.92Z" fill="#C6CADC"/>
<path d="M40.3601 57.23H19.7601C19.4471 57.23 19.147 57.1057 18.9257 56.8844C18.7044 56.6631 18.5801 56.363 18.5801 56.05V55.16C18.5853 54.8505 18.712 54.5555 18.9327 54.3385C19.1534 54.1215 19.4506 54 19.7601 54H40.3601C40.673 54 40.9732 54.1243 41.1945 54.3456C41.4158 54.5669 41.5401 54.867 41.5401 55.18V56.07C41.5348 56.3795 41.4082 56.6745 41.1875 56.8915C40.9667 57.1085 40.6696 57.23 40.3601 57.23Z" fill="#C6CADC"/>
<path d="M24.5001 56.05V55.16C24.5053 54.8505 24.632 54.5555 24.8527 54.3385C25.0734 54.1215 25.3706 54 25.6801 54H19.7601C19.4471 54 19.147 54.1243 18.9257 54.3456C18.7044 54.5669 18.5801 54.867 18.5801 55.18V56.07C18.5801 56.383 18.7044 56.6831 18.9257 56.9044C19.147 57.1257 19.4471 57.25 19.7601 57.25H25.6801C25.5234 57.25 25.3683 57.2188 25.2238 57.1583C25.0794 57.0978 24.9484 57.009 24.8385 56.8973C24.7287 56.7856 24.6422 56.6532 24.5841 56.5077C24.526 56.3622 24.4974 56.2066 24.5001 56.05Z" fill="#ABB1C3"/>
<path d="M6.62006 43.55V40H0.620063V43.52C0.616078 43.8346 0.674769 44.1468 0.792714 44.4385C0.91066 44.7302 1.0855 44.9954 1.30703 45.2188C1.52857 45.4422 1.79236 45.6193 2.08304 45.7397C2.37371 45.8601 2.68545 45.9214 3.00006 45.92H9.00006C8.68799 45.9213 8.37873 45.861 8.09003 45.7425C7.80134 45.624 7.53889 45.4496 7.31775 45.2294C7.09662 45.0092 6.92115 44.7475 6.80142 44.4593C6.68169 44.1711 6.62006 43.8621 6.62006 43.55Z" fill="#ABB1C3"/>
<path d="M32.1899 43.77H27.9299C27.7166 43.747 27.5192 43.646 27.3758 43.4863C27.2324 43.3267 27.1531 43.1196 27.1531 42.905C27.1531 42.6904 27.2324 42.4834 27.3758 42.3237C27.5192 42.164 27.7166 42.063 27.9299 42.04H32.1899C32.4033 42.063 32.6007 42.164 32.7441 42.3237C32.8875 42.4834 32.9668 42.6904 32.9668 42.905C32.9668 43.1196 32.8875 43.3267 32.7441 43.4863C32.6007 43.646 32.4033 43.747 32.1899 43.77Z" fill="#E3E3E3"/>
<path d="M59.4799 40H0.639893V5.44001C0.642535 4.96966 0.831236 4.51948 1.16476 4.18782C1.49829 3.85617 1.94953 3.67001 2.41989 3.67001H57.7099C58.1793 3.67001 58.6295 3.85649 58.9615 4.18843C59.2934 4.52037 59.4799 4.97058 59.4799 5.44001V40Z" fill="#737784"/>
<path d="M4.35989 36.9C4.28204 36.9014 4.20471 36.887 4.13252 36.8579C4.06032 36.8287 3.99474 36.7853 3.93968 36.7302C3.88462 36.6752 3.84122 36.6096 3.81204 36.5374C3.78287 36.4652 3.76854 36.3879 3.76989 36.31V7.39001C3.76857 7.3117 3.78285 7.2339 3.8119 7.16116C3.84096 7.08842 3.8842 7.02219 3.93912 6.96634C3.99404 6.91049 4.05953 6.86614 4.13178 6.83586C4.20402 6.80559 4.28156 6.79 4.35989 6.79001H6.61989V5.44001C6.61989 4.97058 6.80637 4.52037 7.13831 4.18843C7.47025 3.85649 7.92046 3.67001 8.38989 3.67001H2.38989C1.92475 3.67785 1.48116 3.86747 1.15408 4.19828C0.827008 4.5291 0.64244 4.97481 0.639893 5.44001V40H6.63989V36.9H4.35989Z" fill="#686A74"/>
<path d="M3.77011 36.31V7.39001C3.76878 7.31169 3.78306 7.23389 3.81212 7.16115C3.84117 7.08841 3.88442 7.02219 3.93934 6.96634C3.99426 6.91049 4.05975 6.86613 4.13199 6.83586C4.20423 6.80558 4.28178 6.79 4.36011 6.79001H55.7601C55.8384 6.79 55.916 6.80558 55.9882 6.83586C56.0605 6.86613 56.126 6.91049 56.1809 6.96634C56.2358 7.02219 56.279 7.08841 56.3081 7.16115C56.3372 7.23389 56.3514 7.31169 56.3501 7.39001V36.31C56.3515 36.3879 56.3371 36.4652 56.308 36.5374C56.2788 36.6096 56.2354 36.6752 56.1803 36.7302C56.1253 36.7853 56.0597 36.8287 55.9875 36.8579C55.9153 36.887 55.838 36.9014 55.7601 36.9H4.36011C4.28225 36.9014 4.20493 36.887 4.13273 36.8579C4.06054 36.8287 3.99496 36.7853 3.9399 36.7302C3.88484 36.6752 3.84143 36.6096 3.81226 36.5374C3.78309 36.4652 3.76875 36.3879 3.77011 36.31Z" fill="#E3E3E3"/>
<path d="M10.2701 36.31V34.65H6.75011C6.598 34.65 6.45197 34.5903 6.34348 34.4837C6.23499 34.3771 6.17273 34.2321 6.17011 34.08V9.82001C6.17273 9.66792 6.23499 9.52295 6.34348 9.41634C6.45197 9.30972 6.598 9.24999 6.75011 9.25001H10.2701V7.39001C10.2701 7.23088 10.3333 7.07827 10.4458 6.96574C10.5584 6.85322 10.711 6.79001 10.8701 6.79001H4.36011C4.28178 6.79 4.20423 6.80558 4.13199 6.83586C4.05975 6.86613 3.99426 6.91049 3.93934 6.96634C3.88442 7.02219 3.84117 7.08841 3.81212 7.16115C3.78306 7.23389 3.76878 7.31169 3.77011 7.39001V36.31C3.76875 36.3879 3.78309 36.4652 3.81226 36.5374C3.84143 36.6096 3.88484 36.6752 3.9399 36.7302C3.99496 36.7853 4.06054 36.8287 4.13273 36.8579C4.20493 36.887 4.28225 36.9014 4.36011 36.9H10.8701C10.7918 36.9013 10.714 36.8871 10.6413 36.858C10.5685 36.8289 10.5023 36.7857 10.4464 36.7308C10.3906 36.6759 10.3462 36.6104 10.316 36.5381C10.2857 36.4659 10.2701 36.3883 10.2701 36.31Z" fill="#D7DAE2"/>
<path d="M38.8801 33.79H17.16C17.0646 33.79 16.973 33.7521 16.9055 33.6846C16.838 33.6171 16.8 33.5255 16.8 33.43V10.43C16.8 10.3345 16.838 10.243 16.9055 10.1754C16.973 10.1079 17.0646 10.07 17.16 10.07H38.8801C38.9755 10.07 39.0671 10.1079 39.1346 10.1754C39.2021 10.243 39.2401 10.3345 39.2401 10.43V33.43C39.2401 33.5255 39.2021 33.6171 39.1346 33.6846C39.0671 33.7521 38.9755 33.79 38.8801 33.79Z" fill="white"/>
<path d="M20.5201 33.43V10.43C20.5201 10.3345 20.558 10.243 20.6255 10.1754C20.693 10.1079 20.7846 10.07 20.88 10.07H17.16C17.0646 10.07 16.973 10.1079 16.9055 10.1754C16.838 10.243 16.8 10.3345 16.8 10.43V33.43C16.8 33.5255 16.838 33.6171 16.9055 33.6846C16.973 33.7521 17.0646 33.79 17.16 33.79H20.88C20.7846 33.79 20.693 33.7521 20.6255 33.6846C20.558 33.6171 20.5201 33.5255 20.5201 33.43Z" fill="#FFF3DE"/>
<path d="M43.14 26.69H52.73C52.7768 26.6887 52.8234 26.6967 52.8671 26.7137C52.9107 26.7307 52.9504 26.7563 52.984 26.7889C53.0176 26.8215 53.0443 26.8606 53.0625 26.9037C53.0807 26.9468 53.0901 26.9932 53.09 27.04V33.43C53.09 33.5255 53.0521 33.617 52.9846 33.6846C52.9171 33.7521 52.8255 33.79 52.73 33.79H43.14C43.0463 33.7874 42.9573 33.7483 42.8919 33.6811C42.8266 33.6138 42.79 33.5238 42.79 33.43V27C42.79 26.9072 42.8269 26.8181 42.8926 26.7525C42.9582 26.6869 43.0472 26.65 43.14 26.65V26.69Z" fill="#E30E08"/>
<path d="M46.4 33.43V27C46.4 26.9062 46.4366 26.8162 46.5019 26.7489C46.5673 26.6817 46.6563 26.6426 46.75 26.64H43.14C43.0463 26.6426 42.9573 26.6817 42.8919 26.7489C42.8266 26.8162 42.79 26.9062 42.79 27V33.39C42.79 33.4838 42.8266 33.5739 42.8919 33.6411C42.9573 33.7083 43.0463 33.7474 43.14 33.75H46.75C46.6628 33.7481 46.5793 33.7146 46.5149 33.6558C46.4505 33.5969 46.4097 33.5167 46.4 33.43Z" fill="#C40606"/>
<path d="M43.14 17.45H52.73C52.8255 17.45 52.9171 17.4879 52.9846 17.5555C53.0521 17.623 53.09 17.7145 53.09 17.81V23C53.09 23.0955 53.0521 23.1871 52.9846 23.2546C52.9171 23.3221 52.8255 23.36 52.73 23.36H43.14C43.0463 23.3574 42.9573 23.3183 42.8919 23.2511C42.8266 23.1839 42.79 23.0938 42.79 23V17.8C42.7926 17.708 42.8302 17.6204 42.8953 17.5553C42.9604 17.4902 43.048 17.4525 43.14 17.45Z" fill="#FED402"/>
<path d="M46.4 23V17.8C46.4 17.7062 46.4366 17.6161 46.5019 17.5489C46.5673 17.4817 46.6563 17.4426 46.75 17.44H43.14C43.0463 17.4426 42.9573 17.4817 42.8919 17.5489C42.8266 17.6161 42.79 17.7062 42.79 17.8V23C42.79 23.0938 42.8266 23.1839 42.8919 23.2511C42.9573 23.3183 43.0463 23.3574 43.14 23.36H46.75C46.6563 23.3574 46.5673 23.3183 46.5019 23.2511C46.4366 23.1839 46.4 23.0938 46.4 23Z" fill="#FAC600"/>
<path d="M43.14 10.11H52.73C52.8255 10.11 52.9171 10.1479 52.9846 10.2154C53.0521 10.2829 53.09 10.3745 53.09 10.47V13.78C53.09 13.8755 53.0521 13.967 52.9846 14.0345C52.9171 14.1021 52.8255 14.14 52.73 14.14H43.14C43.0463 14.1374 42.9573 14.0983 42.8919 14.0311C42.8266 13.9638 42.79 13.8738 42.79 13.78V10.47C42.79 10.3762 42.8266 10.2861 42.8919 10.2189C42.9573 10.1517 43.0463 10.1126 43.14 10.11Z" fill="#46CC8D"/>
<path d="M46.4 13.78V10.47C46.4 10.3762 46.4366 10.2861 46.5019 10.2189C46.5673 10.1517 46.6563 10.1126 46.75 10.11H43.14C43.0463 10.1126 42.9573 10.1517 42.8919 10.2189C42.8266 10.2861 42.79 10.3762 42.79 10.47V13.78C42.79 13.8738 42.8266 13.9638 42.8919 14.0311C42.9573 14.0983 43.0463 14.1374 43.14 14.14H46.75C46.6563 14.1374 46.5673 14.0983 46.5019 14.0311C46.4366 13.9638 46.4 13.8738 46.4 13.78Z" fill="#08B865"/>
<path d="M25.55 21.14C25.5255 21.1048 25.5123 21.0629 25.5123 21.02C25.5123 20.9771 25.5255 20.9352 25.55 20.9C25.5687 20.8633 25.5974 20.8325 25.6328 20.8113C25.6681 20.7901 25.7088 20.7793 25.75 20.78H29.13V17C29.13 16.9045 29.0921 16.813 29.0245 16.7455C28.957 16.6779 28.8655 16.64 28.77 16.64H21.6C21.5045 16.64 21.4129 16.6779 21.3454 16.7455C21.2779 16.813 21.24 16.9045 21.24 17V24.17C21.24 24.2655 21.2779 24.3571 21.3454 24.4246C21.4129 24.4921 21.5045 24.53 21.6 24.53H27.51L25.55 21.14Z" fill="#FED402"/>
<path d="M23.72 24.18V17C23.7187 16.9532 23.7267 16.9066 23.7437 16.863C23.7607 16.8194 23.7863 16.7796 23.8189 16.746C23.8515 16.7125 23.8906 16.6858 23.9337 16.6676C23.9768 16.6494 24.0232 16.64 24.07 16.64H21.6C21.5045 16.64 21.4129 16.6779 21.3454 16.7455C21.2779 16.813 21.24 16.9045 21.24 17V24.17C21.24 24.2655 21.2779 24.3571 21.3454 24.4246C21.4129 24.4921 21.5045 24.53 21.6 24.53H24.07C23.9772 24.53 23.8881 24.4931 23.8225 24.4275C23.7569 24.3619 23.72 24.2728 23.72 24.18Z" fill="#FAC600"/>
<path d="M30.27 28.49L34.49 21.2C34.5215 21.1454 34.5381 21.0835 34.5382 21.0204C34.5383 20.9574 34.5218 20.8954 34.4904 20.8408C34.459 20.7861 34.4138 20.7406 34.3593 20.7089C34.3048 20.6772 34.243 20.6603 34.18 20.66H25.75C25.6878 20.662 25.6272 20.6801 25.574 20.7125C25.5209 20.745 25.4771 20.7906 25.4469 20.845C25.4167 20.8994 25.4011 20.9607 25.4016 21.0229C25.4022 21.0851 25.4188 21.1461 25.45 21.2L29.66 28.49C29.6904 28.5441 29.7347 28.5891 29.7883 28.6205C29.8419 28.6518 29.9029 28.6683 29.965 28.6683C30.027 28.6683 30.088 28.6518 30.1416 28.6205C30.1952 28.5891 30.2395 28.5441 30.27 28.49Z" fill="#006EE5"/>
<path d="M28.69 21.2C28.6584 21.1454 28.6418 21.0835 28.6417 21.0204C28.6416 20.9574 28.6581 20.8954 28.6895 20.8408C28.7209 20.7861 28.7661 20.7406 28.8206 20.7089C28.8751 20.6772 28.9369 20.6603 29 20.66H25.75C25.6878 20.662 25.6272 20.6801 25.574 20.7125C25.5209 20.745 25.4771 20.7906 25.4469 20.845C25.4167 20.8994 25.4011 20.9607 25.4016 21.0229C25.4022 21.0851 25.4188 21.1461 25.45 21.2L29.66 28.49C29.6904 28.5441 29.7347 28.5891 29.7883 28.6205C29.8419 28.6518 29.9029 28.6683 29.965 28.6683C30.027 28.6683 30.088 28.6518 30.1416 28.6205C30.1952 28.5891 30.2395 28.5441 30.27 28.49L31.59 26.22L28.69 21.2Z" fill="#0062BA"/>
<path d="M13.07 33.79H7.39C7.34027 33.7942 7.29021 33.7879 7.24301 33.7717C7.19581 33.7555 7.15249 33.7296 7.11582 33.6958C7.07915 33.6619 7.04991 33.6208 7.02997 33.5751C7.01003 33.5293 6.99983 33.4799 7 33.43V13.78H13.4V33.43C13.4003 33.5205 13.3665 33.6078 13.3054 33.6745C13.2442 33.7412 13.1602 33.7825 13.07 33.79Z" fill="white"/>
<path d="M14.0899 12.8H6.36992L6.16992 12.92V34.08C6.17254 34.2321 6.23481 34.377 6.3433 34.4837C6.45178 34.5903 6.59781 34.65 6.74992 34.65H13.7499C13.902 34.65 14.0481 34.5903 14.1565 34.4837C14.265 34.377 14.3273 34.2321 14.3299 34.08V12.92L14.0899 12.8ZM9.36992 32.93H7.89992V31.22H9.36992V32.93ZM9.36992 29.49H7.89992V27.9H9.36992V29.49ZM9.36992 26.18H7.89992V24.59H9.36992V26.18ZM9.36992 22.86H7.89992V21.27H9.36992V22.86ZM9.36992 19.55H7.89992V18H9.36992V19.55ZM9.36992 16.23H7.89992V14.64H9.36992V16.23ZM12.5599 32.93H11.0899V31.22H12.5599V32.93ZM12.5599 29.49H11.0899V27.9H12.5599V29.49ZM12.5599 26.18H11.0899V24.59H12.5599V26.18ZM12.5599 22.86H11.0899V21.27H12.5599V22.86ZM12.5599 19.55H11.0899V18H12.5599V19.59V19.55ZM12.5599 16.23H11.0899V14.64H12.5599V16.23Z" fill="#8DB3DF"/>
<path d="M13.7099 9.25H6.70988C6.55777 9.24998 6.41174 9.30971 6.30326 9.41633C6.19477 9.52295 6.13251 9.66791 6.12988 9.82V12.92H14.2499V9.82C14.2477 9.67459 14.191 9.5353 14.091 9.42973C13.991 9.32416 13.855 9.26001 13.7099 9.25Z" fill="#006EE5"/>
<path d="M9.13992 9.25H6.74992C6.59781 9.24998 6.45178 9.30971 6.3433 9.41633C6.23481 9.52295 6.17254 9.66791 6.16992 9.82V12.92H8.56992V9.82C8.57249 9.66963 8.63337 9.52614 8.73972 9.41979C8.84606 9.31345 8.98955 9.25257 9.13992 9.25Z" fill="#0062BA"/>
</svg>
