<svg width="453" height="202" viewBox="0 0 453 202" fill="none" xmlns="http://www.w3.org/2000/svg">
<g clip-path="url(#clip0_14257_83387)">
<path d="M0 10C0 4.47715 4.47715 0 10 0H443C448.523 0 453 4.47715 453 10V202H0V10Z" fill="#F0F0F0"/>
<path d="M317.802 69.9065V151.855C317.802 157.988 312.878 162.912 306.745 162.912H147.4C141.268 162.912 136.344 157.988 136.344 151.855V69.9065C136.344 63.7743 141.268 58.8499 147.4 58.8499H306.745C312.785 58.757 317.802 63.7743 317.802 69.9065Z" fill="#002548"/>
<path d="M306.924 162.54H147.207C143.583 162.54 140.703 159.66 140.703 156.037V70.0925C140.703 66.4689 143.583 63.5886 147.207 63.5886H306.924C310.547 63.5886 313.428 66.4689 313.428 70.0925V156.13C313.428 159.66 310.547 162.54 306.924 162.54Z" fill="#D2D9DC"/>
<path d="M196.086 155.014L250.997 155.2" stroke="white" stroke-miterlimit="10"/>
<path d="M204.812 157.802L259.724 157.988" stroke="white" stroke-miterlimit="10"/>
<path d="M317.802 148.51V151.855C317.802 157.988 312.878 162.912 306.745 162.912H147.4C141.268 162.912 136.344 157.988 136.344 151.855V148.51H317.802Z" fill="#002548"/>
<path d="M188.282 76.689H151.117V107.443H188.282V76.689Z" fill="#F9FAFB"/>
<path d="M159.483 88.5819L158.74 86.7236H156.417L155.674 88.5819H155.023L157.346 82.8213H157.904L160.134 88.5819H159.483ZM158.554 86.0732L157.904 84.3079C157.811 84.1221 157.718 83.8433 157.625 83.4717C157.532 83.7504 157.439 84.0292 157.346 84.3079L156.696 86.0732H158.554Z" fill="#0054A6"/>
<path d="M163.575 88.582L163.482 87.9316C163.296 88.2103 163.017 88.3962 162.831 88.4891C162.646 88.582 162.367 88.6749 161.995 88.6749C161.531 88.6749 161.252 88.582 160.973 88.3032C160.694 88.1174 160.602 87.7458 160.602 87.3741C160.602 86.5379 161.345 86.0733 162.739 85.9804H163.482V85.7017C163.482 85.33 163.389 85.1442 163.296 84.9584C163.11 84.7726 162.924 84.6797 162.553 84.6797C162.181 84.6797 161.809 84.7726 161.345 85.0513L161.159 84.5867C161.345 84.4938 161.624 84.4009 161.902 84.308C162.181 84.2151 162.367 84.2151 162.646 84.2151C163.203 84.2151 163.575 84.308 163.761 84.5867C164.039 84.7726 164.132 85.1442 164.132 85.7017V88.6749H163.575V88.582ZM162.088 88.1174C162.46 88.1174 162.831 88.0245 163.017 87.7458C163.296 87.5599 163.389 87.1883 163.389 86.8166V86.445H162.739C162.181 86.445 161.809 86.5379 161.624 86.7237C161.438 86.9096 161.252 87.0954 161.252 87.3741C161.252 87.6529 161.345 87.7458 161.438 87.9316C161.624 88.0245 161.809 88.1174 162.088 88.1174Z" fill="#0054A6"/>
<path d="M182.797 88.21H165.516V88.6745H182.797V88.21Z" fill="#0054A6"/>
<path d="M183.356 93.6919H155.297V94.1565H183.356V93.6919Z" fill="#D2D9DC"/>
<path d="M174.158 97.873H155.297V98.3376H174.158V97.873Z" fill="#D2D9DC"/>
<path d="M183.356 101.961H155.297V102.426H183.356V101.961Z" fill="#D2D9DC"/>
<path d="M292.525 125.747H255.453V126.305H292.525V125.747Z" fill="#5F737C"/>
<path d="M292.525 128.999H255.453V129.556H292.525V128.999Z" fill="#5F737C"/>
<path d="M292.525 132.344H255.453V132.901H292.525V132.344Z" fill="#5F737C"/>
<path d="M218.194 118.314V135.317H202.492V113.947H213.456L218.194 118.314Z" fill="#839299"/>
<path opacity="0.19" d="M218.197 118.314L213.18 118.965L213.366 113.947H213.458L218.197 118.314Z" fill="#F9FAFB"/>
<path d="M240.312 118.314V135.317H224.609V113.947H235.573L240.312 118.314Z" fill="#839299"/>
<path opacity="0.19" d="M240.314 118.314L235.297 118.965L235.483 113.947H235.576L240.314 118.314Z" fill="#F9FAFB"/>
<path d="M188.189 115.062H151.117V115.619H188.189V115.062Z" fill="#5F737C"/>
<path d="M173.788 118.314H151.117V118.871H173.788V118.314Z" fill="#5F737C"/>
<path d="M188.189 125.189H151.117V125.747H188.189V125.189Z" fill="#5F737C"/>
<path d="M188.189 134.759H151.117V135.317H188.189V134.759Z" fill="#5F737C"/>
<path d="M173.788 128.534H151.117V129.092H173.788V128.534Z" fill="#5F737C"/>
<path d="M173.788 131.507H151.117V132.065H173.788V131.507Z" fill="#5F737C"/>
<path d="M188.189 121.566H151.117V122.123H188.189V121.566Z" fill="#5F737C"/>
<path d="M239.75 79.3838H202.492V105.492H239.75V79.3838Z" fill="#0054A6"/>
<path opacity="0.19" d="M216.616 85.8877L203.516 105.399H229.717L216.616 85.8877Z" fill="#2D2F31"/>
<path d="M210.016 84.5869C210.016 85.9806 208.808 87.1885 207.414 87.1885C206.02 87.1885 204.812 85.9806 204.812 84.5869C204.812 83.1932 206.02 81.9854 207.414 81.9854C208.808 81.9854 210.016 83.1003 210.016 84.5869Z" fill="#FFDD33"/>
<path opacity="0.19" d="M203.234 105.399H210.482L216.614 85.8877L203.234 105.399Z" fill="#2D2F31"/>
<path d="M223.114 85.8877L209.734 105.399H236.493L223.114 85.8877Z" fill="#002548"/>
<path opacity="0.19" d="M209.734 105.399H217.074L223.114 85.8877L209.734 105.399Z" fill="#F9FAFB"/>
<path d="M130.026 71.7647H75.3008C74.5575 71.7647 74 71.2072 74 70.4639V37.6658H131.234V70.5568C131.234 71.2072 130.677 71.7647 130.026 71.7647Z" fill="#D2D9DC"/>
<path d="M95.2798 50.1161L87.1035 54.8546L95.2798 59.5931V62.7522L83.8516 56.2483V53.5538L95.2798 46.957V50.1161Z" fill="#54CC5A"/>
<path d="M109.961 50.4875L118.23 55.2261L109.961 59.9646V63.1236L121.389 56.5268V53.9253L109.961 47.3285V50.4875Z" fill="#54CC5A"/>
<path d="M98.4542 42.6857L95.8438 43.903L106.485 66.723L109.095 65.5058L98.4542 42.6857Z" fill="#54CC5A"/>
<path d="M131.327 38.0373H74V32.1838C74 31.4405 74.5575 30.8831 75.3008 30.8831H130.026C130.77 30.8831 131.327 31.4405 131.327 32.1838V38.0373Z" fill="#002548"/>
<path d="M78.091 34.5067C78.091 35.0641 77.6264 35.5287 77.0689 35.5287C76.5114 35.5287 76.0469 35.0641 76.0469 34.5067C76.0469 33.9492 76.5114 33.4846 77.0689 33.4846C77.6264 33.4846 78.091 33.9492 78.091 34.5067Z" fill="#EB2F06"/>
<path d="M81.6144 34.5067C81.6144 35.0641 81.1498 35.5287 80.5923 35.5287C80.0349 35.5287 79.5703 35.0641 79.5703 34.5067C79.5703 33.9492 80.0349 33.4846 80.5923 33.4846C81.1498 33.4846 81.6144 33.9492 81.6144 34.5067Z" fill="#F6B93B"/>
<path d="M85.1534 34.5067C85.1534 35.0641 84.6889 35.5287 84.1314 35.5287C83.5739 35.5287 83.1094 35.0641 83.1094 34.5067C83.1094 33.9492 83.5739 33.4846 84.1314 33.4846C84.7818 33.4846 85.1534 33.9492 85.1534 34.5067Z" fill="#2BCBBA"/>
<path d="M339.073 51.7886H284.348C283.604 51.7886 283.047 51.2311 283.047 50.4878V17.6897H340.281V50.5807C340.281 51.2311 339.724 51.7886 339.073 51.7886Z" fill="#D2D9DC"/>
<path d="M340.374 18.0614H283.047V12.3008C283.047 11.5575 283.604 11 284.348 11H339.073C339.816 11 340.374 11.5575 340.374 12.3008V18.0614Z" fill="#002548"/>
<path d="M287.146 14.5306C287.146 15.0881 286.681 15.5526 286.124 15.5526C285.566 15.5526 285.102 15.0881 285.102 14.5306C285.102 13.9731 285.566 13.5085 286.124 13.5085C286.681 13.5085 287.146 13.9731 287.146 14.5306Z" fill="#EB2F06"/>
<path d="M290.669 14.5306C290.669 15.0881 290.205 15.5526 289.647 15.5526C289.09 15.5526 288.625 15.0881 288.625 14.5306C288.625 13.9731 289.09 13.5085 289.647 13.5085C290.205 13.5085 290.669 13.9731 290.669 14.5306Z" fill="#F6B93B"/>
<path d="M294.2 14.5306C294.2 15.0881 293.736 15.5526 293.178 15.5526C292.621 15.5526 292.156 15.0881 292.156 14.5306C292.156 13.9731 292.621 13.5085 293.178 13.5085C293.736 13.5085 294.2 13.9731 294.2 14.5306Z" fill="#2BCBBA"/>
<path d="M297.55 76.8748H251.094V119.615H297.55V76.8748Z" fill="#F9FAFB"/>
<path d="M287.144 98.2445C287.144 99.5453 286.958 100.753 286.586 101.868C285.936 104.098 284.728 105.956 283.149 107.536C280.919 109.673 277.853 110.974 274.508 111.066C274.415 111.066 274.415 111.066 274.322 111.066C274.229 111.066 274.229 111.066 274.136 111.066C270.791 110.974 267.818 109.673 265.495 107.536C263.916 105.956 262.708 104.098 262.057 101.868C261.686 100.753 261.5 99.5453 261.5 98.2445C261.5 97.6871 261.5 97.0367 261.593 96.4792C262.057 93.4131 263.451 90.7186 265.681 88.7675C267.911 86.7234 270.884 85.5155 274.136 85.4226C274.229 85.4226 274.229 85.4226 274.322 85.4226C274.415 85.4226 274.415 85.4226 274.508 85.4226C277.76 85.5155 280.733 86.7234 282.963 88.7675C285.1 90.7186 286.586 93.4131 287.051 96.4792C287.051 97.0367 287.144 97.5941 287.144 98.2445Z" fill="#54CC5A"/>
<path d="M274.32 111.16C274.227 111.16 274.227 111.16 274.134 111.16C270.882 111.16 267.816 109.859 265.401 107.629C263.728 106.049 262.52 104.098 261.87 101.868C261.498 100.66 261.312 99.4525 261.312 98.2447C261.312 97.5943 261.313 97.0368 261.405 96.4793C261.777 93.5061 263.264 90.7188 265.494 88.6747C267.816 86.5377 270.882 85.3298 274.042 85.3298C274.134 85.3298 274.32 85.3298 274.413 85.3298C277.572 85.3298 280.545 86.5377 282.868 88.6747C285.098 90.7188 286.585 93.5061 286.956 96.4793C287.049 97.0368 287.049 97.6872 287.049 98.2447C287.049 99.4525 286.863 100.753 286.492 101.868C285.841 104.005 284.634 106.049 282.961 107.629C280.638 109.859 277.479 111.16 274.227 111.16C274.506 111.16 274.413 111.16 274.32 111.16ZM274.32 110.881C274.413 110.881 274.413 110.881 274.506 110.881C277.665 110.881 280.731 109.58 283.054 107.443C284.634 105.864 285.841 103.912 286.492 101.868C286.863 100.753 287.049 99.5455 287.049 98.3376C287.049 97.6872 287.049 97.1297 286.956 96.5723C286.585 93.692 285.098 90.9975 282.961 88.9534C280.731 86.9093 277.758 85.7015 274.692 85.7015C274.599 85.7015 274.599 85.7015 274.506 85.7015C274.413 85.7015 274.413 85.7015 274.32 85.7015C271.254 85.7015 268.281 86.9093 265.958 88.9534C263.821 90.9046 262.335 93.5991 261.963 96.5723C261.87 97.1297 261.87 97.6872 261.87 98.3376C261.87 99.5455 262.056 100.753 262.427 101.868C263.078 104.005 264.193 105.956 265.865 107.443C268.188 109.673 271.161 110.881 274.413 110.881C274.227 110.881 274.32 110.881 274.32 110.881Z" fill="#2D2F31"/>
<path d="M274.32 92.2983C272.183 92.2983 270.046 91.7408 268.187 90.7188C267.258 90.2542 266.422 89.6038 265.679 88.8605L265.586 88.7676L265.679 88.6747C268.002 86.5377 271.068 85.3298 274.227 85.3298C274.32 85.3298 274.506 85.3298 274.598 85.3298C277.757 85.4227 280.824 86.5377 283.146 88.6747L283.239 88.7676L283.146 88.8605C282.403 89.6038 281.567 90.1613 280.638 90.7188C278.594 91.7408 276.457 92.2983 274.32 92.2983ZM265.958 88.7676C266.701 89.418 267.444 89.9755 268.373 90.44C270.232 91.4621 272.276 91.9266 274.413 91.9266C276.55 91.9266 278.594 91.3692 280.452 90.44C281.288 89.9755 282.124 89.418 282.775 88.7676C280.545 86.7235 277.665 85.6086 274.598 85.6086C274.506 85.6086 274.506 85.6086 274.413 85.6086C274.32 85.6086 274.32 85.6086 274.227 85.6086C271.068 85.6086 268.187 86.8164 265.958 88.7676Z" fill="#2D2F31"/>
<path d="M274.317 111.159C274.224 111.159 274.224 111.159 274.131 111.159C270.879 111.067 267.813 109.859 265.398 107.629L265.305 107.536L265.398 107.443C266.141 106.7 267.07 106.049 267.999 105.492C269.95 104.47 272.087 103.819 274.317 103.819C276.547 103.819 278.684 104.377 280.635 105.492C281.564 106.049 282.494 106.7 283.237 107.443L283.33 107.536L283.237 107.629C280.914 109.859 277.755 111.159 274.503 111.159C274.503 111.159 274.41 111.159 274.317 111.159ZM274.317 110.881C274.41 110.881 274.41 110.881 274.503 110.881C277.662 110.881 280.635 109.673 282.865 107.536C282.122 106.885 281.286 106.235 280.449 105.771C278.591 104.748 276.454 104.191 274.317 104.191C272.18 104.191 270.043 104.748 268.185 105.771C267.256 106.235 266.513 106.885 265.769 107.536C268.092 109.673 271.065 110.881 274.131 110.881C274.224 110.881 274.317 110.881 274.317 110.881Z" fill="#2D2F31"/>
<path d="M274.321 111.16C274.228 111.16 274.228 111.16 274.135 111.16C271.72 111.067 269.397 109.023 268.003 105.678C267.074 103.541 266.609 100.939 266.609 98.2447C266.609 95.4573 267.167 92.7628 268.096 90.5329C269.49 87.281 271.72 85.4227 274.135 85.3298C274.228 85.3298 274.414 85.3298 274.507 85.3298C276.923 85.4227 279.06 87.3739 280.546 90.5329C281.568 92.7628 282.033 95.4573 282.033 98.2447C282.033 100.939 281.568 103.448 280.639 105.678C279.245 109.023 276.923 111.067 274.507 111.16C274.507 111.16 274.414 111.16 274.321 111.16ZM274.321 110.881C274.414 110.881 274.414 110.881 274.507 110.881C276.83 110.788 279.06 108.744 280.36 105.585C281.29 103.448 281.754 100.939 281.754 98.2447C281.754 95.4573 281.197 92.8557 280.268 90.6258C278.874 87.5597 276.83 85.7015 274.507 85.6086C274.414 85.6086 274.414 85.6086 274.321 85.6086C274.228 85.6086 274.228 85.6086 274.135 85.6086C271.812 85.7015 269.768 87.5597 268.375 90.6258C267.353 92.8557 266.888 95.4573 266.888 98.2447C266.888 100.846 267.353 103.448 268.282 105.585C269.676 108.837 271.812 110.788 274.135 110.881C274.228 110.881 274.228 110.881 274.321 110.881Z" fill="#2D2F31"/>
<path d="M274.505 85.4226H274.227V110.974H274.505V85.4226Z" fill="#2D2F31"/>
<path d="M287.145 98.0588H261.594V98.3376H287.145V98.0588Z" fill="#2D2F31"/>
<path d="M166.449 161.983V177.035C166.449 178.336 165.334 179.451 164.033 179.451H155.764L153.069 184.189C152.512 185.118 151.211 185.118 150.654 184.189L147.959 179.451H139.783C138.482 179.451 137.367 178.336 137.367 177.035V162.076C137.367 160.775 138.482 159.66 139.783 159.66H164.033C165.334 159.567 166.449 160.682 166.449 161.983Z" fill="#0054A6"/>
<path d="M133.279 144.237V168.951C133.279 171.181 131.513 172.947 129.284 172.947H115.625L111.166 180.658C110.329 182.145 108.1 182.145 107.263 180.658L102.804 172.947H89.3312C87.1013 172.947 85.3359 171.181 85.3359 168.951V144.237C85.3359 142.007 87.1013 140.241 89.3312 140.241H129.284C131.421 140.241 133.279 142.007 133.279 144.237Z" fill="#0054A6"/>
<path d="M99.173 157.059C99.173 158.731 97.8722 160.032 96.1998 160.032C94.5273 160.032 93.2266 158.731 93.2266 157.059C93.2266 155.386 94.5273 154.085 96.1998 154.085C97.8722 153.993 99.173 155.386 99.173 157.059Z" fill="#F9FAFB"/>
<path d="M112.275 157.059C112.275 158.731 110.974 160.032 109.301 160.032C107.629 160.032 106.328 158.731 106.328 157.059C106.328 155.386 107.629 154.085 109.301 154.085C110.974 153.993 112.275 155.386 112.275 157.059Z" fill="#F9FAFB"/>
<path d="M125.376 157.059C125.376 158.731 124.075 160.032 122.403 160.032C120.73 160.032 119.43 158.731 119.43 157.059C119.43 155.386 120.73 154.085 122.403 154.085C123.982 153.993 125.376 155.386 125.376 157.059Z" fill="#F9FAFB"/>
<path d="M144.979 169.602C144.979 170.717 144.05 171.646 142.935 171.646C141.82 171.646 140.891 170.717 140.891 169.602C140.891 168.487 141.82 167.558 142.935 167.558C144.05 167.558 144.979 168.487 144.979 169.602Z" fill="#F9FAFB"/>
<path d="M153.901 169.602C153.901 170.717 152.972 171.646 151.857 171.646C150.742 171.646 149.812 170.717 149.812 169.602C149.812 168.487 150.742 167.558 151.857 167.558C152.972 167.558 153.901 168.487 153.901 169.602Z" fill="#F9FAFB"/>
<path d="M162.823 169.602C162.823 170.717 161.893 171.646 160.778 171.646C159.663 171.646 158.734 170.717 158.734 169.602C158.734 168.487 159.663 167.558 160.778 167.558C161.893 167.558 162.823 168.487 162.823 169.602Z" fill="#F9FAFB"/>
<path d="M102.805 109.58H101.969V109.487C102.247 109.58 102.526 109.58 102.805 109.58Z" fill="#1ABC9C"/>
<path d="M108.844 111.16L109.68 111.253C109.401 111.16 109.122 111.16 108.844 111.16Z" fill="#2C3E50"/>
<path d="M379.679 102.891C379.679 106.607 376.706 109.58 372.989 109.58H372.896H338.612C338.333 109.58 338.054 109.58 337.775 109.488C334.523 109.023 331.922 106.236 331.922 102.891C331.922 99.1743 334.895 96.2011 338.612 96.2011C339.448 96.2011 340.191 96.3869 340.934 96.6656C340.749 95.9223 340.656 95.0861 340.656 94.3428C340.656 88.768 345.208 84.2153 350.783 84.2153C355.243 84.2153 358.959 87.0956 360.353 90.998C361.468 90.2547 362.769 89.7901 364.163 89.7901C367.879 89.7901 370.852 92.7633 370.852 96.4798C370.852 96.5727 370.852 96.5727 370.852 96.6656C371.503 96.4798 372.153 96.294 372.896 96.294C376.706 96.294 379.679 99.2672 379.679 102.891Z" fill="#0054A6"/>
<path d="M354.78 98.6168H351.714V105.864H349.112V98.6168H345.953L350.32 93.5066L354.78 98.6168Z" fill="#F9FAFB"/>
<path d="M364.444 100.754H361.471V93.5066H358.869V100.754H355.617L360.077 105.864L364.444 100.754Z" fill="#F9FAFB"/>
<path d="M318.173 32.3699L306.188 39.3384V25.4944L318.173 32.3699Z" fill="#ED1C24"/>
<path d="M337.68 47.3289H285.742V48.7225H337.68V47.3289Z" fill="#2D2F31"/>
<path d="M314.173 47.3289H285.742V48.7225H314.173V47.3289Z" fill="#ED1C24"/>
<path d="M241.237 33.1131C241.237 38.6878 239.007 43.7051 235.384 47.3287C235.198 47.5145 235.105 47.6074 234.919 47.7932C231.296 51.231 226.371 53.368 220.982 53.368C215.779 53.368 211.041 51.4168 207.417 48.1649C207.324 48.072 207.324 48.072 207.231 47.9791C203.236 44.2626 200.82 39.0595 200.82 33.206C200.82 22.0565 209.833 13.0439 220.982 13.0439C232.132 13.0439 241.237 21.9636 241.237 33.1131Z" fill="#D2D9DC"/>
<path d="M221.07 34.7856C225.381 34.7856 228.875 31.2913 228.875 26.9809C228.875 22.6705 225.381 19.1763 221.07 19.1763C216.76 19.1763 213.266 22.6705 213.266 26.9809C213.266 31.2913 216.76 34.7856 221.07 34.7856Z" fill="#0054A6"/>
<path d="M235.016 47.7004C231.392 51.1382 226.468 53.2752 221.079 53.2752C215.876 53.2752 211.138 51.324 207.514 48.0721C207.421 47.9791 207.421 47.9791 207.328 47.8862C208.815 42.8689 212.717 38.9666 217.734 37.7588C218.849 37.48 220.057 37.2942 221.265 37.2942C222.194 37.2942 223.123 37.3871 224.052 37.5729C229.163 38.6879 233.437 42.5902 235.016 47.7004Z" fill="#0054A6"/>
<path d="M304.978 165.978C305.071 165.049 304.978 164.12 304.978 163.098C304.885 161.89 305.536 160.682 306.651 160.218L306.93 160.032C308.416 159.381 309.066 157.616 308.416 156.222L306.837 152.599C306.186 151.112 304.421 150.462 303.027 151.112C301.819 151.67 300.519 151.298 299.589 150.369C298.846 149.533 298.01 148.696 297.081 147.953C296.152 147.117 295.78 145.816 296.245 144.701L296.337 144.329C296.895 142.843 296.152 141.17 294.665 140.613L290.949 139.219C289.462 138.662 287.79 139.405 287.232 140.892L287.139 141.078C286.675 142.285 285.56 143.029 284.259 142.936C283.051 142.843 281.843 142.936 280.728 143.029C279.427 143.215 278.22 142.471 277.755 141.356L277.569 141.078C276.919 139.591 275.153 138.941 273.76 139.591L270.136 141.17C268.65 141.821 267.999 143.586 268.65 144.98L268.835 145.444C269.393 146.559 269.021 147.953 268.185 148.789C267.535 149.44 266.884 150.09 266.327 150.74C265.491 151.67 264.19 152.041 263.075 151.67L262.703 151.577C261.217 151.019 259.544 151.762 258.987 153.249L257.593 156.966C257.035 158.452 257.779 160.125 259.265 160.682L259.544 160.775C260.752 161.24 261.495 162.355 261.402 163.655C261.402 164.491 261.402 165.235 261.402 166.071C261.495 167.279 260.752 168.394 259.73 168.858L258.801 169.323C257.314 169.973 256.664 171.739 257.314 173.132L258.894 176.756C259.544 178.243 261.309 178.893 262.703 178.243L263.075 178.057C264.283 177.499 265.676 177.871 266.513 178.893C267.349 179.915 268.278 180.844 269.3 181.68C270.229 182.517 270.601 183.817 270.229 184.932L270.043 185.304C269.486 186.79 270.229 188.463 271.716 189.02L275.432 190.414C276.919 190.972 278.591 190.228 279.149 188.742L279.242 188.463C279.706 187.255 280.821 186.512 282.122 186.605C283.516 186.698 284.816 186.605 286.117 186.419C287.418 186.233 288.626 186.883 289.183 188.091L289.276 188.277C289.927 189.764 291.692 190.414 293.086 189.764L296.709 188.184C298.196 187.534 298.846 185.768 298.196 184.375L297.917 183.724C297.452 182.609 297.638 181.309 298.567 180.472C299.125 179.915 299.589 179.357 300.147 178.8C300.983 177.871 302.284 177.499 303.399 177.964L303.77 178.057C305.257 178.614 306.929 177.871 307.487 176.384L308.881 172.668C309.438 171.181 308.695 169.509 307.208 168.951L307.022 168.858C305.722 168.394 304.978 167.279 304.978 165.978ZM293.55 168.858C291.32 174.619 284.909 177.592 279.056 175.362C273.295 173.132 270.322 166.721 272.552 160.868C274.782 155.107 281.193 152.134 287.046 154.364C292.807 156.594 295.78 163.098 293.55 168.858Z" fill="#839299"/>
<path d="M330.621 145.816C330.621 145.259 330.621 144.701 330.621 144.144C330.528 143.4 330.993 142.75 331.643 142.471L331.829 142.378C332.665 142.007 333.037 140.985 332.665 140.148L331.736 138.104C331.364 137.268 330.342 136.896 329.506 137.268C328.856 137.547 328.02 137.361 327.555 136.804C327.09 136.339 326.626 135.874 326.161 135.41C325.604 134.945 325.418 134.202 325.604 133.459L325.697 133.273C326.068 132.437 325.604 131.415 324.675 131.136L322.538 130.3C321.701 129.928 320.679 130.393 320.401 131.322L320.308 131.415C320.029 132.065 319.379 132.53 318.635 132.53C317.985 132.53 317.242 132.53 316.591 132.622C315.848 132.715 315.105 132.344 314.826 131.6L314.733 131.415C314.361 130.578 313.339 130.207 312.503 130.578L310.459 131.508C309.623 131.879 309.251 132.901 309.623 133.737L309.716 134.016C309.994 134.667 309.809 135.41 309.344 135.967C308.972 136.339 308.601 136.711 308.229 137.082C307.765 137.64 307.021 137.826 306.278 137.64L306.092 137.547C305.256 137.175 304.234 137.64 303.955 138.569L303.119 140.706C302.747 141.542 303.212 142.564 304.141 142.843L304.234 142.936C304.884 143.215 305.349 143.865 305.349 144.608C305.349 145.073 305.349 145.537 305.349 146.002C305.349 146.745 304.977 147.396 304.327 147.674L303.769 147.953C302.933 148.325 302.561 149.347 302.933 150.183L303.862 152.227C304.234 153.063 305.256 153.435 306.092 153.063L306.278 152.97C306.928 152.692 307.765 152.877 308.229 153.435C308.694 153.992 309.251 154.55 309.809 155.014C310.366 155.479 310.552 156.222 310.366 156.873L310.273 157.059C309.902 157.895 310.366 158.917 311.295 159.195L313.432 160.032C314.268 160.403 315.291 159.939 315.569 159.01L315.662 158.824C315.941 158.173 316.591 157.709 317.335 157.709C318.078 157.709 318.914 157.709 319.657 157.616C320.401 157.523 321.144 157.895 321.423 158.638V158.731C321.794 159.567 322.816 159.939 323.653 159.567L325.697 158.638C326.533 158.266 326.905 157.244 326.533 156.408L326.347 156.036C326.068 155.386 326.161 154.643 326.719 154.178C326.997 153.899 327.369 153.528 327.648 153.249C328.112 152.692 328.856 152.506 329.506 152.785L329.692 152.877C330.528 153.249 331.55 152.785 331.829 151.855L332.665 149.718C333.037 148.882 332.572 147.86 331.643 147.581L331.55 147.489C330.993 147.21 330.528 146.559 330.621 145.816ZM323.931 147.489C322.631 150.833 318.914 152.506 315.569 151.298C312.224 149.997 310.552 146.281 311.76 142.936C313.061 139.591 316.777 137.919 320.122 139.126C323.56 140.427 325.232 144.144 323.931 147.489Z" fill="#5F737C"/>
</g>
<defs>
<clipPath id="clip0_14257_83387">
<path d="M0 10C0 4.47715 4.47715 0 10 0H443C448.523 0 453 4.47715 453 10V202H0V10Z" fill="white"/>
</clipPath>
</defs>
</svg>
