<svg width="50" height="50" viewBox="0 0 50 50" fill="none" xmlns="http://www.w3.org/2000/svg">
<g clip-path="url(#clip0_5327_17206)">
<path d="M3.04 15.3H17.14C18.82 15.3 20.18 16.66 20.18 18.34V46.96C20.18 48.64 18.82 50 17.14 50H3.04C1.36 50 0 48.64 0 46.96V18.34C0 16.66 1.36 15.3 3.04 15.3Z" fill="#002548"/>
<path d="M12.9604 18.18C13.8004 18.18 14.4804 17.56 14.4804 16.8V16.35H16.9504C18.2104 16.35 19.2404 17.28 19.2404 18.42V46.73C19.2404 47.87 18.2204 48.8 16.9504 48.8H3.23043C1.97043 48.8 0.94043 47.87 0.94043 46.73V18.42C0.94043 17.28 1.96043 16.35 3.23043 16.35H5.70043V16.8C5.70043 17.56 6.38043 18.18 7.22043 18.18H12.9604Z" fill="#3DDC84"/>
<path d="M5.68004 23.5H10.73C11.78 23.5 12.62 24.35 12.62 25.39V36.12C12.62 37.17 11.77 38.01 10.73 38.01H5.68004C4.63004 38.01 3.79004 37.16 3.79004 36.12V25.39C3.79004 24.35 4.63004 23.5 5.68004 23.5Z" fill="#F9FAFB"/>
<path d="M9.15008 16.01H11.0401C11.2101 16.01 11.3601 16.15 11.3601 16.33C11.3601 16.5 11.2201 16.65 11.0401 16.65H9.15008C8.98008 16.65 8.83008 16.51 8.83008 16.33C8.83008 16.15 8.97008 16.01 9.15008 16.01Z" fill="#839299"/>
<path d="M4.41992 27.28H14.5199V28.54H4.41992V27.28Z" fill="#839299"/>
<path d="M4.41992 29.8099H15.7799V31.0699H4.41992V29.8099Z" fill="#839299"/>
<path d="M4.41992 32.33H15.7799V33.59H4.41992V32.33Z" fill="#839299"/>
<path d="M4.41992 34.86H13.2499V36.12H4.41992V34.86Z" fill="#839299"/>
<path d="M14.5098 34.86H15.7698V36.12H14.5098V34.86Z" fill="#839299"/>
<path d="M32.8504 0H46.9504C48.6404 0 50.0004 1.36 50.0004 3.04V31.66C50.0004 33.34 48.6404 34.7 46.9604 34.7H32.8604C31.1804 34.7 29.8204 33.34 29.8204 31.66V3.04C29.8104 1.36 31.1704 0 32.8504 0Z" fill="#002548"/>
<path d="M42.77 2.87999C43.61 2.87999 44.29 2.25999 44.29 1.49999V1.04999H46.76C48.02 1.04999 49.05 1.97999 49.05 3.11999V31.43C49.05 32.57 48.03 33.5 46.76 33.5H33.04C31.78 33.5 30.75 32.57 30.75 31.43V3.11999C30.75 1.97999 31.77 1.04999 33.04 1.04999H35.51V1.49999C35.51 2.25999 36.19 2.87999 37.03 2.87999H42.77Z" fill="#A2AAAD"/>
<path d="M35.4907 8.20001H40.5407C41.5907 8.20001 42.4307 9.05001 42.4307 10.09V20.82C42.4307 21.87 41.5807 22.71 40.5407 22.71H35.4907C34.4407 22.71 33.6007 21.86 33.6007 20.82V10.1C33.5907 9.05001 34.4407 8.20001 35.4907 8.20001Z" fill="#F9FAFB"/>
<path d="M38.9606 0.710022H40.8506C41.0206 0.710022 41.1706 0.850022 41.1706 1.03002C41.1706 1.20002 41.0306 1.35002 40.8506 1.35002H38.9606C38.7906 1.35002 38.6406 1.21002 38.6406 1.03002C38.6406 0.850022 38.7806 0.710022 38.9606 0.710022Z" fill="#839299"/>
<path d="M34.2305 11.99H44.3305V13.25H34.2305V11.99Z" fill="#839299"/>
<path d="M34.2305 14.51H45.5905V15.77H34.2305V14.51Z" fill="#839299"/>
<path d="M34.2305 17.04H45.5905V18.3H34.2305V17.04Z" fill="#839299"/>
<path d="M34.2305 19.56H43.0605V20.82H34.2305V19.56Z" fill="#839299"/>
<path d="M44.3203 19.56H45.5803V20.82H44.3203V19.56Z" fill="#839299"/>
<path d="M24.9998 16.8C20.4698 16.8 16.7998 20.47 16.7998 25C16.7998 26.67 17.3098 28.3 18.2598 29.67L16.7998 32.58L20.4698 31.84C24.2498 34.34 29.3398 33.31 31.8398 29.54C34.3398 25.77 33.3098 20.67 29.5398 18.17C28.1898 17.27 26.6098 16.8 24.9998 16.8Z" fill="#0054A6"/>
<path d="M25.0002 33.2C29.5302 33.2 33.2002 29.53 33.2002 25C33.2002 23.33 32.6902 21.7 31.7402 20.33L33.2002 17.42L29.5302 18.16C25.7502 15.66 20.6602 16.69 18.1602 20.46C15.6602 24.23 16.6902 29.33 20.4602 31.83C21.8102 32.73 23.3902 33.2 25.0002 33.2Z" fill="#0054A6"/>
<path d="M21.3999 27.97L18.8799 25.45C18.6299 25.2 18.6299 24.8 18.8799 24.56L21.3999 22.04L22.2899 22.93L20.2099 25L22.2899 27.08L21.3999 27.97Z" fill="#F9FAFB"/>
<path d="M28.6002 27.97L27.7102 27.08L29.7802 25L27.7002 22.92L28.5902 22.03L31.1102 24.55C31.3602 24.8 31.3602 25.2 31.1102 25.44L28.6002 27.97Z" fill="#F9FAFB"/>
<path d="M23.7402 28.02L25.0002 21.7L26.2402 21.95L24.9802 28.26L23.7402 28.02Z" fill="#F9FAFB"/>
</g>
<defs>
<clipPath id="clip0_5327_17206">
<rect width="50" height="50" fill="white"/>
</clipPath>
</defs>
</svg>
