<svg width="48" height="48" viewBox="0 0 48 48" fill="none" xmlns="http://www.w3.org/2000/svg">
<g clip-path="url(#clip0_12083_17649)">
<path d="M43.4937 12.0001C43.1938 11.0001 42.7938 9.9001 42.1938 9.0001L44.2937 6.4001L41.1938 3.2001L38.5937 5.2001C37.6937 4.7001 36.5937 4.2001 35.5937 3.9001L35.1938 0.600098H30.7937L30.3937 4.0001C29.3937 4.3001 28.2937 4.7001 27.3937 5.3001L24.7937 3.3001L21.6938 6.5001L23.6938 9.1001C23.1938 10.0001 22.6937 11.1001 22.3937 12.1001L19.0938 12.5001V14.8001H27.4937V14.7001C27.4937 14.5001 27.4937 14.2001 27.4937 14.0001C27.7937 11.3001 30.1938 9.2001 32.8938 9.2001C35.6938 9.2001 37.9937 11.3001 38.2937 14.0001C38.2937 14.2001 38.2937 14.5001 38.2937 14.7001V14.8001H46.6938V12.5001L43.4937 12.0001Z" fill="#839299"/>
<path d="M46.8969 11.6L44.1969 11.3C43.9969 10.5 43.6969 9.8 43.2969 9.1L44.9969 6.8C45.1969 6.5 45.1969 6.1 44.8969 5.8L41.6969 2.7C41.3969 2.4 40.9969 2.4 40.6969 2.6L38.4969 4.3C37.7969 3.9 36.9969 3.6 36.2969 3.4L35.9969 0.7C35.8969 0.3 35.5969 0 35.1969 0H30.7969C30.3969 0 30.0969 0.3 29.9969 0.7L29.5969 3.5C28.7969 3.7 28.0969 4 27.3969 4.4L25.1969 2.7C24.9969 2.5 24.4969 2.5 24.1969 2.6L20.9969 5.7C20.6969 6 20.6969 6.4 20.8969 6.7L22.5969 8.9C22.1969 9.6 21.8969 10.4 21.6969 11.1L18.9969 11.5C18.5969 11.6 18.2969 11.9 18.2969 12.3V14.5C18.2969 15 18.6969 15.3 19.0969 15.3H28.1969C27.7969 15.3 27.4969 15 27.4969 14.6V14.5C27.4969 14.3 27.4969 14 27.4969 13.8H19.9969V12.8L22.5969 12.5C22.8969 12.5 23.0969 12.3 23.1969 12C23.3969 11 23.7969 10.1 24.2969 9.2C24.3969 9 24.3969 8.6 24.1969 8.4L22.4969 6.3L24.6969 4L26.9969 5.8C27.1969 6 27.5969 6 27.7969 5.8C28.5969 5.3 29.5969 4.9 30.5969 4.7C30.8969 4.6 31.0969 4.4 31.0969 4.1L31.3969 1.5H34.4969L34.7969 4.1C34.8969 4.4 35.0969 4.6 35.4969 4.9C36.4969 5.1 37.3969 5.5 38.2969 6C38.4969 6.1 38.8969 6.1 39.0969 5.9L41.1969 4.2L43.3969 6.4L41.6969 8.5C41.4969 8.7 41.4969 9.1 41.5969 9.3C42.0969 10.1 42.4969 11.1 42.6969 12.1C42.7969 12.4 42.9969 12.6 43.2969 12.6L45.8969 12.9V13.7H38.1969C38.1969 13.9 38.1969 14.2 38.1969 14.4V14.5C38.1969 14.9 37.8969 15.2 37.4969 15.2H46.5969C46.9969 15.2 47.3969 14.9 47.3969 14.5V12.3C47.5969 12 47.2969 11.7 46.8969 11.6Z" fill="#839299"/>
<path d="M44.0962 24.1L43.9962 24.2C41.1962 27.3 37.1962 29.2 32.9962 29.2C30.0962 29.2 27.1962 28.3 24.7962 26.7C24.4962 26.5 24.3962 26 24.5962 25.7L31.1962 15H35.6962L44.0962 23.1C44.2962 23.4 44.2962 23.8 44.0962 24.1Z" fill="#0054A6"/>
<path d="M19.4 24.9998C19.4 28.9998 16.2 32.8998 12.2 32.8998C8.2 32.8998 5 28.9998 5 24.9998C5 20.9998 8.2 17.7998 12.2 17.7998C16.2 17.7998 19.4 20.9998 19.4 24.9998Z" fill="#FFBD86"/>
<path d="M24.3016 44.1999V47.2999C24.3016 47.6999 24.0016 47.9999 23.6016 47.9999H0.801562C0.501562 47.9999 0.101562 47.6999 0.101562 47.2999V44.1999C0.101562 39.2999 3.10156 34.8999 7.60156 32.9999C7.90156 32.8999 8.20156 32.9999 8.40156 33.2999C9.30156 34.5999 10.6016 35.2999 12.2016 35.2999C13.7016 35.2999 15.2016 34.4999 16.0016 33.2999C16.2016 32.9999 16.5016 32.9999 16.8016 32.9999C21.4016 34.8999 24.3016 39.2999 24.3016 44.1999Z" fill="#0054A6"/>
<path d="M47.6016 15C47.5016 18.3 46.2016 21.5 44.1016 24.1L44.0016 24.2C43.9016 24.2 43.7016 24.3 43.5016 24.4C43.3016 24.4 43.1016 24.3 43.0016 24.2L33.7016 15.2L33.6016 15.1H47.6016V15Z" fill="#FFDD33"/>
<path d="M32.9984 15L25.8984 26.5C25.7984 26.7 25.5984 26.8 25.4984 26.8C25.2984 26.8 25.2984 26.9 25.2984 26.9C25.1984 26.9 24.9984 26.8 24.7984 26.8C20.8984 24.2 18.4984 19.8 18.3984 15.1H32.9984V15Z" fill="#183651"/>
</g>
<defs>
<clipPath id="clip0_12083_17649">
<rect width="48" height="48" fill="white"/>
</clipPath>
</defs>
</svg>
