<svg width="453" height="202" viewBox="0 0 453 202" fill="none" xmlns="http://www.w3.org/2000/svg">
<path d="M0 10C0 4.47715 4.47715 0 10 0H443C448.523 0 453 4.47715 453 10V202H0V10Z" fill="#F0F0F0"/>
<path d="M178.078 141.778H181.825C183.946 141.778 185.855 142.634 187.246 144.023C188.635 145.415 189.491 147.324 189.492 149.445C189.491 151.566 188.635 153.476 187.246 154.867C185.855 156.256 183.946 157.112 181.825 157.113H178.078V159.273H181.825C187.253 159.273 191.652 154.873 191.653 149.445C191.652 144.017 187.253 139.618 181.825 139.617H178.078V141.778Z" fill="#FFDD33"/>
<path d="M178.078 159.273H181.825C183.946 159.274 185.855 160.13 187.246 161.519C188.635 162.91 189.491 164.82 189.492 166.941C189.491 169.061 188.635 170.972 187.246 172.362C185.855 173.752 183.946 174.607 181.825 174.608H178.078V176.769H225.058V174.608H178.078V176.769H181.825C187.253 176.768 191.652 172.369 191.653 166.941C191.652 161.512 187.253 157.113 181.825 157.113H178.078V159.273Z" fill="#FFDD33"/>
<path d="M230.772 175.688H229.692C229.691 176.971 229.175 178.123 228.335 178.964C227.493 179.804 226.341 180.32 225.059 180.321C223.776 180.32 222.625 179.804 221.784 178.964C220.943 178.123 220.427 176.971 220.426 175.688C220.427 174.406 220.943 173.254 221.783 172.412C222.625 171.572 223.776 171.056 225.059 171.056C226.341 171.056 227.493 171.572 228.335 172.412C229.175 173.254 229.691 174.406 229.692 175.688H230.772H231.853C231.852 171.936 228.812 168.895 225.059 168.894C221.306 168.896 218.266 171.936 218.266 175.688C218.266 179.441 221.306 182.482 225.059 182.482C228.812 182.482 231.852 179.441 231.853 175.688H230.772Z" fill="#E1CD4C"/>
<path d="M169.109 95.6196H171.817V93.4585H169.109V95.6196Z" fill="#FFDD33"/>
<path d="M164.571 93.4585H160.031V95.6196H164.571V93.4585ZM155.49 93.4585H150.949V95.6196H155.49V93.4585Z" fill="#FFDD33"/>
<path d="M146.405 93.4585H144.778V91.8319H142.617V95.6196H146.405V93.4585Z" fill="#FFDD33"/>
<path d="M144.778 80.3158H142.617V86.0742H144.778V80.3158ZM144.778 68.7995H142.617V74.5575H144.778V68.7995ZM144.778 57.2826H142.617V63.041H144.778V57.2826ZM144.778 45.7662H142.617V51.5246H144.778V45.7662Z" fill="#FFDD33"/>
<path d="M144.778 40.0073V38.3808H146.405V36.2196H142.617V40.0073H144.778Z" fill="#FFDD33"/>
<path d="M152.426 38.3809H158.443V36.2198H152.426V38.3809Z" fill="#FFDD33"/>
<path d="M164.457 38.3809H167.164V36.2198H164.457V38.3809Z" fill="#FFDD33"/>
<path d="M231.855 37.751H237.27V35.5905H231.855V37.751ZM242.685 37.751H247.973V35.4641H245.812V35.5903H242.685V37.751ZM247.973 24.635H245.812V30.0494H247.973V24.635ZM248.448 21.8563H253.862V19.6951H248.448V21.8563ZM259.277 21.8563H264.691V19.6951H259.277V21.8563ZM270.106 21.8563H275.521V19.6951H270.106V21.8563ZM280.935 21.8563H286.35V19.6951H280.935V21.8563ZM288.732 28.1427H290.892V22.7278H288.732V28.1427Z" fill="#FFDD33"/>
<path d="M262.117 105.625H271.288C271.901 105.626 272.445 105.87 272.847 106.271C273.248 106.673 273.492 107.218 273.493 107.83C273.494 110.257 275.46 112.224 277.888 112.225H315.128V81.9092H290.906V73.8043H288.715V84.1003H312.937V110.033H277.888C277.276 110.033 276.732 109.789 276.33 109.388C275.929 108.986 275.685 108.441 275.684 107.83C275.683 105.402 273.717 103.434 271.288 103.434H262.117V105.625Z" fill="#213869"/>
<path d="M196.325 125.134H192.212C191.61 125.134 191.075 124.893 190.679 124.499C190.285 124.104 190.046 123.569 190.045 122.968C190.044 120.56 188.094 118.61 185.686 118.609H154.805V134.984H156.996V120.8H185.686C186.288 120.801 186.823 121.041 187.219 121.435C187.613 121.83 187.853 122.365 187.853 122.968C187.854 125.375 189.804 127.324 192.212 127.325H196.325V125.134Z" fill="#213869"/>
<path d="M196.324 103.434H191.941C189.533 103.434 187.583 105.385 187.583 107.792V107.866C187.582 108.468 187.341 109.004 186.948 109.399C186.552 109.793 186.017 110.033 185.415 110.033H172.914V72.5697H201.083C206.726 72.5687 211.3 67.9955 211.3 62.3526V59.8071H209.109V62.3526C209.108 64.5723 208.212 66.5715 206.758 68.0275C205.302 69.4815 203.303 70.3775 201.083 70.378H170.723V112.225H185.415C187.823 112.224 189.773 110.274 189.774 107.866V107.792C189.774 107.191 190.015 106.656 190.409 106.26C190.804 105.866 191.339 105.626 191.941 105.625H196.324V103.434Z" fill="#213869"/>
<path d="M225.059 176.784H230.473V174.593H225.059V176.784ZM235.888 176.784H241.303V174.593H235.888V176.784ZM246.718 176.784H252.133V174.593H246.718V176.784ZM257.547 176.784H262.962V174.593H257.547V176.784ZM268.377 176.784H273.792V174.593H268.377V176.784ZM279.207 176.784H284.621V174.593H279.207V176.784Z" fill="#213869"/>
<path d="M307.633 176.784H318.165V126.248H294.058V111.601H291.867V128.44H315.974V174.593H307.633V176.784Z" fill="#213869"/>
<path d="M262.115 141.995H201.328V81.2075H262.115V141.995Z" fill="#213869"/>
<path d="M257.111 141.995H196.324V81.2075H257.111V141.995Z" fill="#0054A6"/>
<path d="M250.163 111.293C250.163 122.957 240.707 132.413 229.043 132.413C217.378 132.413 207.922 122.957 207.922 111.293C207.922 99.6285 217.378 90.1725 229.043 90.1725C240.707 90.1725 250.163 99.6285 250.163 111.293Z" fill="#FBD223"/>
<path d="M246.889 111.293C246.889 122.957 237.433 132.413 225.768 132.413C214.104 132.413 204.648 122.957 204.648 111.293C204.648 99.6285 214.104 90.1725 225.768 90.1725C237.433 90.1725 246.889 99.6285 246.889 111.293Z" fill="#FFDD33"/>
<path d="M242.523 111.293C242.523 120.546 235.022 128.047 225.769 128.047C216.517 128.047 209.016 120.546 209.016 111.293C209.016 102.04 216.517 94.5394 225.769 94.5394C235.022 94.5394 242.523 102.04 242.523 111.293Z" fill="#F9F8F7"/>
<path d="M221.1 104.529H220.02V119.752H229.568C232.118 119.752 234.183 117.686 234.184 115.136C234.183 112.587 232.118 110.521 229.568 110.52H221.1V112.682H226.715C229.265 112.681 231.331 110.615 231.332 108.065C231.331 105.515 229.265 103.45 226.715 103.448H220.02V104.529H221.1V105.61H226.715C227.397 105.61 228.004 105.883 228.452 106.329C228.898 106.776 229.17 107.383 229.171 108.065C229.17 108.747 228.898 109.354 228.452 109.801C228.004 110.248 227.397 110.52 226.715 110.52H221.1V112.682H229.568C230.249 112.682 230.856 112.954 231.304 113.4C231.75 113.848 232.023 114.455 232.023 115.136C232.023 115.818 231.75 116.425 231.304 116.872C230.856 117.318 230.249 117.591 229.568 117.592H222.181V104.529H221.1Z" fill="#1661AC"/>
<path d="M218.434 105.61H221.101V103.449H218.434V105.61Z" fill="#1661AC"/>
<path d="M218.434 119.752H221.101V117.592H218.434V119.752Z" fill="#1661AC"/>
<path d="M225.188 104.53H227.349V99.1948H225.188V104.53Z" fill="#1661AC"/>
<path d="M221.598 123.391H223.759V118.056H221.598V123.391Z" fill="#1661AC"/>
<path d="M221.598 104.53H223.759V99.1948H221.598V104.53Z" fill="#1661AC"/>
<path d="M225.188 123.391H227.349V118.056H225.188V123.391Z" fill="#1661AC"/>
<path d="M182.698 181.402H141.617V169.976H182.698V181.402Z" fill="#FBD223"/>
<path d="M171.819 181.402H130.738V169.976H171.819V181.402Z" fill="#213869"/>
<path d="M139.929 175.689C139.929 177.145 138.749 178.325 137.293 178.325C135.837 178.325 134.656 177.145 134.656 175.689C134.656 174.233 135.837 173.052 137.293 173.052C138.749 173.052 139.929 174.233 139.929 175.689Z" fill="#FBD223"/>
<path d="M148.972 175.689C148.972 177.145 147.792 178.325 146.336 178.325C144.88 178.325 143.699 177.145 143.699 175.689C143.699 174.233 144.88 173.052 146.336 173.052C147.792 173.052 148.972 174.233 148.972 175.689Z" fill="#0054A6"/>
<path d="M163.043 178.325H161.324V173.052H163.043V178.325Z" fill="#F9F8F7"/>
<path d="M166.715 178.325H164.996V173.052H166.715V178.325Z" fill="#F9F8F7"/>
<path d="M170.387 178.325H168.668V173.052H170.387V178.325Z" fill="#F9F8F7"/>
<path d="M182.698 163.906H141.617V152.479H182.698V163.906Z" fill="#213869"/>
<path d="M171.819 163.906H130.738V152.479H171.819V163.906Z" fill="#FFDD33"/>
<path d="M139.929 158.193C139.929 159.649 138.749 160.83 137.293 160.83C135.837 160.83 134.656 159.649 134.656 158.193C134.656 156.737 135.837 155.557 137.293 155.557C138.749 155.557 139.929 156.737 139.929 158.193Z" fill="#F9F8F7"/>
<path d="M148.972 158.193C148.972 159.649 147.792 160.83 146.336 160.83C144.88 160.83 143.699 159.649 143.699 158.193C143.699 156.737 144.88 155.557 146.336 155.557C147.792 155.557 148.972 156.737 148.972 158.193Z" fill="#0054A6"/>
<path d="M163.043 160.83H161.324V155.557H163.043V160.83Z" fill="#0054A6"/>
<path d="M166.715 160.83H164.996V155.557H166.715V160.83Z" fill="#0054A6"/>
<path d="M170.387 160.83H168.668V155.557H170.387V160.83Z" fill="#0054A6"/>
<path d="M182.698 146.411H141.617V134.984H182.698V146.411Z" fill="#FBD223"/>
<path d="M171.819 146.411H130.738V134.984H171.819V146.411Z" fill="#FFDD33"/>
<path d="M139.929 140.697C139.929 142.153 138.749 143.333 137.293 143.333C135.837 143.333 134.656 142.153 134.656 140.697C134.656 139.241 135.837 138.061 137.293 138.061C138.749 138.061 139.929 139.241 139.929 140.697Z" fill="#FBD223"/>
<path d="M148.972 140.697C148.972 142.153 147.792 143.333 146.336 143.333C144.88 143.333 143.699 142.153 143.699 140.697C143.699 139.241 144.88 138.061 146.336 138.061C147.792 138.061 148.972 139.241 148.972 140.697Z" fill="#F9F8F7"/>
<path d="M163.043 143.333H161.324V138.061H163.043V143.333Z" fill="#0054A6"/>
<path d="M166.715 143.333H164.996V138.061H166.715V143.333Z" fill="#213869"/>
<path d="M170.387 143.333H168.668V138.061H170.387V143.333Z" fill="#0054A6"/>
<path d="M230.141 59.8066H166.715V55.6702H231.853V58.0945C231.853 59.0399 231.087 59.8066 230.141 59.8066Z" fill="#FBD223"/>
<path d="M231.853 55.6704H166.715V19.3822C166.715 18.4368 167.481 17.6701 168.426 17.6701H230.141C231.087 17.6701 231.853 18.4368 231.853 19.3822V55.6704Z" fill="#0054A6"/>
<path d="M231.852 55.6704H228.168V19.5126C228.168 18.4954 228.993 17.6701 230.01 17.6701C231.028 17.6701 231.852 18.4954 231.852 19.5126V55.6704Z" fill="#213869"/>
<path d="M225.122 51.7417H170.383V20.7757H225.122V51.7417Z" fill="#F9F8F7"/>
<path d="M219.768 59.8066H156.341C155.395 59.8066 154.629 59.0399 154.629 58.0945V55.6702H219.768V59.8066Z" fill="#FFDD33"/>
<path d="M192.884 57.5942H180.69C179.627 57.5942 178.766 56.7328 178.766 55.6703H194.808C194.808 56.7328 193.946 57.5942 192.884 57.5942Z" fill="#FBD223"/>
<path d="M176.113 29.6143H204.651V27.9708H176.113V29.6143Z" fill="#FFDD33"/>
<path d="M176.113 34.1421H204.651V31.9504H176.113V34.1421Z" fill="#213869"/>
<path d="M176.113 38.396H204.651V36.2043H176.113V38.396Z" fill="#213869"/>
<path d="M176.113 42.6504H204.651V40.4587H176.113V42.6504Z" fill="#213869"/>
<path d="M206.676 30.1621H210.203V27.4227H206.676V30.1621Z" fill="#0054A6"/>
<path d="M206.676 34.416H210.203V31.6766H206.676V34.416Z" fill="#0054A6"/>
<path d="M206.676 38.6704H210.203V35.9308H206.676V38.6704Z" fill="#0054A6"/>
<path d="M206.676 42.9243H210.203V40.1849H206.676V42.9243Z" fill="#0054A6"/>
<path d="M212.438 30.1621H215.964V27.4227H212.438V30.1621Z" fill="#0054A6"/>
<path d="M212.438 34.416H215.964V31.6766H212.438V34.416Z" fill="#0054A6"/>
<path d="M212.438 38.6704H215.964V35.9308H212.438V38.6704Z" fill="#0054A6"/>
<path d="M212.438 42.9243H215.964V40.1849H212.438V42.9243Z" fill="#0054A6"/>
<path d="M176.113 47.2876H191.045V45.0965H176.113V47.2876Z" fill="#213869"/>
<mask id="mask0_18051_16899" style="mask-type:luminance" maskUnits="userSpaceOnUse" x="270" y="29" width="46" height="46">
<path d="M315.685 51.7417C315.685 64.2905 305.512 74.4634 292.963 74.4634C280.415 74.4634 270.242 64.2905 270.242 51.7417C270.242 39.1929 280.415 29.02 292.963 29.02C305.512 29.02 315.685 39.1929 315.685 51.7417Z" fill="white"/>
</mask>
<g mask="url(#mask0_18051_16899)">
<path d="M315.685 51.7417C315.685 64.2905 305.513 74.4634 292.963 74.4634C280.415 74.4634 270.242 64.2905 270.242 51.7417C270.242 39.1929 280.415 29.02 292.963 29.02C305.513 29.02 315.685 39.1929 315.685 51.7417Z" fill="#FBD223"/>
<path d="M268.207 40.7568H319.203V38.5961H268.207V40.7568Z" fill="#1661AC"/>
<path d="M268.207 52.8218H319.203V50.6605H268.207V52.8218Z" fill="#1661AC"/>
<path d="M268.207 64.8862H319.203V62.7249H268.207V64.8862Z" fill="#1661AC"/>
</g>
<mask id="mask1_18051_16899" style="mask-type:luminance" maskUnits="userSpaceOnUse" x="267" y="29" width="46" height="46">
<path d="M312.533 51.7417C312.533 64.2905 302.36 74.4634 289.812 74.4634C277.263 74.4634 267.09 64.2905 267.09 51.7417C267.09 39.1929 277.263 29.02 289.812 29.02C302.36 29.02 312.533 39.1929 312.533 51.7417Z" fill="white"/>
</mask>
<g mask="url(#mask1_18051_16899)">
<path d="M312.533 51.7417C312.533 64.2905 302.36 74.4634 289.812 74.4634C277.263 74.4634 267.09 64.2905 267.09 51.7417C267.09 39.1929 277.263 29.02 289.812 29.02C302.36 29.02 312.533 39.1929 312.533 51.7417Z" fill="#FFDD33"/>
<path d="M265.055 40.7568H316.05V38.5961H265.055V40.7568Z" fill="#0062BA"/>
<path d="M265.055 52.8218H316.05V50.6605H265.055V52.8218Z" fill="#0062BA"/>
<path d="M288.461 74.4634H290.622V29.02H288.461V74.4634Z" fill="#0062BA"/>
<path d="M289.54 73.3823C287.705 73.3777 286.147 72.7744 284.743 71.6646C282.643 70.0039 280.951 67.1275 279.825 63.5938C278.694 60.0647 278.117 55.9023 278.118 51.7415C278.114 46.1938 279.149 40.6425 281.134 36.5952C282.123 34.5695 283.344 32.9287 284.743 31.8183C286.147 30.7085 287.705 30.1052 289.54 30.1006V27.9395C287.207 27.9349 285.119 28.752 283.398 30.1271C280.809 32.194 278.984 35.4416 277.767 39.2303C276.554 43.0236 275.958 47.382 275.957 51.7415C275.961 57.5544 277.01 63.3642 279.192 67.8372C280.286 70.0721 281.671 71.9813 283.398 73.3558C285.119 74.7309 287.207 75.548 289.54 75.5434V73.3823Z" fill="#0062BA"/>
<path d="M289.543 75.5434C291.836 75.548 293.889 74.7263 295.575 73.3487C296.844 72.3168 297.923 70.9829 298.834 69.4403C300.2 67.125 301.197 64.3341 301.862 61.3054C302.525 58.2773 302.854 55.0094 302.854 51.7415C302.85 45.9311 301.824 40.1248 299.69 35.6539C298.621 33.4204 297.267 31.5113 295.575 30.1342C293.889 28.7566 291.836 27.9349 289.543 27.9395V30.1006C291.327 30.1052 292.841 30.7034 294.212 31.8112C295.237 32.6431 296.165 33.7717 296.973 35.1417C298.187 37.1949 299.125 39.7837 299.75 42.6398C300.377 45.4963 300.693 48.6191 300.693 51.7415C300.697 57.2917 299.684 62.8465 297.741 66.8959C296.773 68.9226 295.578 70.5639 294.212 71.6717C292.841 72.7795 291.327 73.3777 289.543 73.3823V75.5434Z" fill="#0062BA"/>
<path d="M265.055 64.8862H316.05V62.7249H265.055V64.8862Z" fill="#0062BA"/>
</g>
<path d="M307.632 192.05H278.293V162.711H307.632V192.05Z" fill="#FBD223"/>
<path d="M299.581 192.05H270.242V162.711H299.581V192.05Z" fill="#FFDD33"/>
<path d="M290.008 175.367C290.008 173.013 288.099 171.103 285.744 171.103C283.389 171.103 281.48 173.013 281.48 175.367C281.48 177.163 282.592 178.697 284.163 179.325V183.657H287.325V179.325C288.896 178.697 290.008 177.163 290.008 175.367Z" fill="#FBD223"/>
<path d="M280.118 162.711V152.475C280.119 149.831 281.187 147.447 282.919 145.713C284.653 143.981 287.037 142.913 289.681 142.913C292.325 142.913 294.709 143.981 296.443 145.713C298.175 147.447 299.244 149.831 299.244 152.475V162.711H301.405V152.475C301.404 146 296.157 140.752 289.681 140.751C283.206 140.752 277.958 146 277.957 152.475V162.711H280.118Z" fill="#1661AC"/>
<path d="M278.29 162.711V152.475C278.29 149.831 279.358 147.447 281.091 145.713C282.825 143.981 285.208 142.913 287.852 142.913C290.497 142.913 292.88 143.981 294.614 145.713C296.347 147.447 297.415 149.831 297.415 152.475V162.711H299.577V152.475C299.576 146 294.328 140.752 287.852 140.751C281.377 140.752 276.129 146 276.129 152.475V162.711H278.29Z" fill="#0062BA"/>
</svg>
