<svg width="47" height="65" viewBox="0 0 47 65" fill="none" xmlns="http://www.w3.org/2000/svg">
<g clip-path="url(#clip0_4038_11799)">
<path d="M23.0202 64.8362L4.26121 59.6283L0.0830078 12.7426H46.0172L41.8338 59.6206L23.0202 64.8362Z" fill="#264DE4"/>
<path d="M38.2484 56.6358L41.8234 16.575H23.0488V60.8503L38.2484 56.6358Z" fill="#2965F1"/>
<path d="M9.66419 33.9638L10.179 39.715H23.0464V33.9638H9.66419ZM8.62939 22.3262L9.15199 28.0774H23.049V22.3262H8.62939ZM23.049 48.8982L23.023 48.906L16.6192 47.177L16.211 42.5906H10.439L11.245 51.6204L23.0256 54.8912L23.0516 54.8834V48.8982H23.049Z" fill="#EBEBEB"/>
<path d="M10.8916 0H17.857V2.912H13.8062V5.824H17.8596V8.736H10.8916V0ZM19.2506 0H26.216V2.5324H22.1626V3.0394H26.216V8.8634H19.2506V6.2036H23.304V5.6966H19.2506V0ZM27.607 0H34.5724V2.5324H30.519V3.0394H34.5724V8.8634H27.607V6.2036H31.6604V5.6966H27.6096L27.607 0Z" fill="black"/>
<path d="M36.3946 33.9638L37.432 22.3236H23.028V28.0748H31.1296L30.607 33.9638H23.028V39.715H30.1078L29.4396 47.1718L23.0254 48.9034V54.886L34.8138 51.6178L34.8996 50.6454L36.2516 35.5056L36.3946 33.9638Z" fill="white"/>
</g>
<defs>
<clipPath id="clip0_4038_11799">
<rect width="46.098" height="65" fill="white"/>
</clipPath>
</defs>
</svg>
