<svg width="72" height="72" viewBox="0 0 72 72" fill="none" xmlns="http://www.w3.org/2000/svg">
<path d="M42 20.9949C42 21.3499 41.9899 21.7049 41.9696 22.0599C41.9594 22.2425 41.9594 22.425 41.929 22.6177C41.1077 33.46 32.0526 42 21 42C9.95751 42 0.892322 33.46 0.0709801 22.6177C0.0507001 22.4352 0.0405601 22.2526 0.0304201 22.0599C0.01014 21.7049 0 21.3499 0 20.9949C0 20.7414 0.01014 20.4878 0.01014 20.2342C0.425881 8.99638 9.67359 0 21.0101 0C32.3467 0 41.5843 8.99638 41.9899 20.2342C41.9899 20.4878 42 20.7414 42 20.9949Z" fill="#0054A6"/>
<path d="M38.522 20.9951C38.522 30.671 30.6736 38.5213 21 38.5213C11.3264 38.5213 3.47803 30.6811 3.47803 20.9951C3.47803 20.7516 3.48817 20.5082 3.48817 20.2749V20.2344C3.89377 10.9134 11.5698 3.479 20.9899 3.479C30.4099 3.479 38.0859 10.9134 38.4915 20.2344V20.2749C38.522 20.5082 38.522 20.7618 38.522 20.9951Z" fill="#E6E9EB"/>
<path d="M21.0102 6.11572V35.8839C12.7866 35.8839 6.13477 29.2203 6.13477 21.0049C6.13477 20.7919 6.13477 20.589 6.14491 20.3862V20.3558C6.47953 12.4345 13.0097 6.11572 21.0102 6.11572Z" fill="#FFCC15"/>
<path d="M20.3611 20.5588L18.8401 21.076L17.6537 20.0212L10.7585 13.8749C10.2312 13.4083 10.1907 12.6071 10.6571 12.0796C11.1235 11.5522 11.9246 11.5117 12.4519 11.9782L19.2051 17.9927L20.28 18.9461L20.3611 20.5588Z" fill="#5F737C"/>
<path d="M27.3781 16.6439L24.2854 19.788L23.17 20.9139H21.5881V18.9057L22.592 17.8813L25.5732 14.8588C26.07 14.3618 26.8711 14.3517 27.368 14.8487C27.8648 15.3456 27.875 16.1469 27.3781 16.6439Z" fill="#5F737C"/>
<path d="M23.17 20.9947C23.17 22.2017 22.1966 23.1652 21 23.1652C19.8035 23.1652 18.8301 22.1915 18.8301 20.9947C18.8301 20.731 18.8706 20.4673 18.9619 20.234C19.2661 19.4125 20.057 18.8242 20.9899 18.8242C21.9126 18.8242 22.7137 19.4023 23.0179 20.234C23.1294 20.4774 23.17 20.7411 23.17 20.9947Z" fill="#ED1C24"/>
<path d="M21.6388 7.67791V5.71027C21.6388 5.35528 21.3549 5.07129 21.0102 5.07129C20.6654 5.07129 20.3713 5.35528 20.3713 5.71027V7.67791C20.3713 8.03289 20.6553 8.31688 21.0102 8.31688C21.3651 8.31688 21.6388 8.03289 21.6388 7.67791Z" fill="#5F737C"/>
<path d="M20.3713 34.3221V36.2897C20.3713 36.6447 20.6553 36.9287 21.0102 36.9287C21.3651 36.9287 21.649 36.6447 21.649 36.2897V34.3221C21.649 33.9671 21.3651 33.6831 21.0102 33.6831C20.6553 33.6831 20.3713 33.9772 20.3713 34.3221Z" fill="#5F737C"/>
<path d="M36.3013 21.6339C36.6562 21.6339 36.9401 21.3499 36.9401 20.9949C36.9401 20.6399 36.6562 20.356 36.3013 20.356H34.3341C33.9792 20.356 33.6953 20.6399 33.6953 20.9949C33.6953 21.3499 33.9792 21.6339 34.3341 21.6339H36.3013Z" fill="#5F737C"/>
<path d="M5.7189 20.3662C5.364 20.3662 5.08008 20.6502 5.08008 21.0052C5.08008 21.3602 5.364 21.6442 5.7189 21.6442H7.68607C8.04097 21.6442 8.32489 21.3602 8.32489 21.0052C8.32489 20.6502 8.04097 20.3662 7.68607 20.3662H5.7189Z" fill="#5F737C"/>
<path fill-rule="evenodd" clip-rule="evenodd" d="M36 28C36 21.387 41.387 16 48 16C54.613 16 60 21.387 60 28C60 34.613 54.613 40 48 40C41.387 40 36 34.613 36 28ZM34.9271 44H61.0927C67.1051 44 72.0099 49.1612 72 55.5343V72H24V55.5448C24 49.1821 28.9048 44 34.9271 44Z" fill="#002548"/>
</svg>
