<svg width="72" height="72" viewBox="0 0 72 72" fill="none" xmlns="http://www.w3.org/2000/svg">
<path fill-rule="evenodd" clip-rule="evenodd" d="M36 28C36 21.387 41.387 16 48 16C54.613 16 60 21.387 60 28C60 34.613 54.613 40 48 40C41.387 40 36 34.613 36 28ZM34.9271 44H61.0927C67.1051 44 72.0099 49.1612 72 55.5343V72H24V55.5448C24 49.1821 28.9048 44 34.9271 44Z" fill="#002548"/>
<path d="M1.66558 7.61739L7.26285 1.90674L26.5434 2.53906L32.7604 7.61739V24.7494L32.1407 35.5384L27.7829 39.9745L12.2307 40.6068L4.7741 38.7197L1.03613 32.357L1.66558 7.61739Z" fill="#E6E9EB"/>
<path d="M24.3839 42H9.62575C4.319 42 0 37.5836 0 32.1595V9.84051C0.00968385 4.41637 4.319 0 9.62575 0H24.3743C29.681 0 34 4.41637 34 9.84051V32.1496C34 37.5836 29.6907 42 24.3839 42ZM9.62575 3.28017C6.09114 3.28017 3.21504 6.22442 3.21504 9.84051V32.1496C3.21504 35.7657 6.09114 38.71 9.62575 38.71H24.3743C27.9089 38.71 30.785 35.7657 30.785 32.1496V9.84051C30.785 6.22442 27.9089 3.28017 24.3743 3.28017H9.62575Z" fill="#0054A6"/>
<path d="M24.9554 10.7888H9.05447C8.30881 10.7888 7.69873 10.1663 7.69873 9.40559V8.99063C7.69873 8.22986 8.30881 7.60742 9.05447 7.60742H24.9554C25.701 7.60742 26.3111 8.22986 26.3111 8.99063V9.40559C26.3111 10.1663 25.701 10.7888 24.9554 10.7888Z" fill="#54CC5A"/>
<path d="M24.9554 15.8674H9.05447C8.30881 15.8674 7.69873 15.245 7.69873 14.4842V14.0692C7.69873 13.3085 8.30881 12.686 9.05447 12.686H24.9554C25.701 12.686 26.3111 13.3085 26.3111 14.0692V14.4842C26.3111 15.245 25.701 15.8674 24.9554 15.8674Z" fill="#54CC5A"/>
<path d="M22.9701 27.4565C23.0089 27.1996 23.0476 26.9526 23.0476 26.6859C23.0476 26.4191 23.0089 26.1721 22.9701 25.9152L24.4227 24.7889C24.7519 24.5419 24.8391 24.0874 24.6357 23.712L23.3284 21.4C23.1347 21.0345 22.699 20.8962 22.3213 21.0542L20.6557 21.7755C20.249 21.4593 19.8035 21.1827 19.329 20.9653L19.1063 19.1573C19.0578 18.7423 18.7189 18.436 18.3025 18.436H15.6975C15.2908 18.436 14.9519 18.7423 14.8938 19.1573L14.6711 20.9653C14.1965 21.1728 13.7608 21.4494 13.3541 21.7755L11.6787 21.0542C11.6303 21.0246 11.5722 21.0147 11.5238 21.0048C11.3979 20.9752 11.272 20.9851 11.1558 21.0147C11.088 21.0345 11.0299 21.0641 10.9621 21.0938C10.904 21.1333 10.8459 21.1728 10.7975 21.2222C10.7394 21.2716 10.7007 21.3408 10.6716 21.3902L9.36431 23.712C9.16095 24.0775 9.2481 24.532 9.57735 24.7889L11.0299 25.9152C11.0009 26.1721 10.9525 26.4191 10.9525 26.6859C10.9525 26.9526 10.9912 27.2095 11.0299 27.4565L9.57735 28.5828C9.2481 28.8397 9.17063 29.2942 9.36431 29.6597L10.6716 31.9717C10.8169 32.2286 11.088 32.3768 11.3689 32.3768C11.4754 32.3768 11.5722 32.357 11.6787 32.3175L13.3541 31.5962C13.7608 31.9124 14.1965 32.1989 14.6711 32.4064L14.8938 34.2243C14.9422 34.6393 15.2811 34.9456 15.6975 34.9456H18.3025C18.7092 34.9456 19.0482 34.6393 19.1063 34.2243L19.329 32.4064C19.8035 32.1989 20.2393 31.9223 20.6557 31.5962L22.3213 32.3175C22.6893 32.4756 23.1347 32.3274 23.3381 31.9717L24.6454 29.64C24.8488 29.2744 24.7616 28.8199 24.4324 28.5631L22.9701 27.4565ZM17.0049 29.9759C15.223 29.9759 13.7705 28.4939 13.7705 26.6661C13.7705 24.8482 15.2134 23.3662 17.0049 23.3662C18.7867 23.3662 20.2296 24.8482 20.2296 26.6661C20.2199 28.5038 18.777 29.9759 17.0049 29.9759Z" fill="#839299"/>
</svg>
