<svg width="72" height="72" viewBox="0 0 72 72" fill="none" xmlns="http://www.w3.org/2000/svg">
<path d="M42 20.995C42 21.1253 42 21.2656 41.99 21.3958C41.9599 23.1596 41.7094 24.8733 41.2584 26.5168C41.1983 26.7573 41.1281 26.9979 41.058 27.2384C39.8354 31.1868 37.4703 34.6242 34.3636 37.1997C34.1131 37.4102 33.8425 37.6206 33.5719 37.821C32.7602 38.4324 31.9184 38.9635 31.0265 39.4545C30.4452 39.7752 29.844 40.0659 29.2226 40.3264C28.8117 40.5068 28.3808 40.6671 27.9599 40.8074C27.7294 40.8976 27.4989 40.9778 27.2584 41.048C26.9277 41.1482 26.597 41.2484 26.2663 41.3286C25.9356 41.4188 25.5848 41.4989 25.2441 41.5691C24.2419 41.7695 23.2097 41.9098 22.1575 41.9599C21.9871 41.9699 21.8268 41.98 21.6664 41.98H21.486V41.99C21.3457 42 21.2155 42 21.0752 42H21.015C20.9148 42 20.7946 42 20.6943 41.99C9.36006 41.8096 0.220472 32.7001 0.0100215 21.3958C-9.33323e-09 21.2656 0 21.1253 0 20.995C0 20.8647 -9.33323e-09 20.7244 0.0100215 20.5941C0.220472 9.28991 9.36006 0.180387 20.6743 0.0100215C20.7745 0 20.8948 0 21.005 0H21.0651C21.1353 0 21.1954 0 21.2656 0.0100215C21.2956 0.0100215 21.3357 0 21.3758 0C21.4059 0 21.446 0.0100215 21.476 0.0200429H21.6564C21.8167 0.0200429 21.9771 0.0300644 22.1475 0.0400859C23.1997 0.100215 24.2319 0.230494 25.2341 0.430923C25.5748 0.501074 25.9256 0.571224 26.2563 0.671439C26.587 0.761632 26.9177 0.851825 27.2484 0.95204C27.4889 1.02219 27.7194 1.10236 27.9499 1.19256C28.7115 1.45311 29.4431 1.75376 30.1546 2.10451C30.4653 2.23479 30.7559 2.39513 31.0465 2.5655C31.3372 2.71582 31.6378 2.88618 31.9184 3.06657C32.199 3.23694 32.4896 3.41732 32.7602 3.60773C33.0308 3.78812 33.3014 3.97853 33.5619 4.16893C33.7323 4.29921 33.9127 4.44953 34.0931 4.58984C34.1833 4.67001 34.2935 4.74016 34.3737 4.82033C34.8848 5.25125 35.3858 5.70222 35.8568 6.18325C36.6586 6.96492 37.3801 7.82677 38.0215 8.7287C38.3522 9.16965 38.6628 9.64066 38.9535 10.1117C39.5247 11.0437 40.0157 12.0258 40.4266 13.048C40.617 13.5089 40.7874 13.98 40.9477 14.451C41.5791 16.3951 41.9499 18.4495 41.98 20.5941C42 20.7244 42 20.8647 42 20.995Z" fill="#0054A6"/>
<path d="M38.8432 20.9148C38.8432 21.0852 38.8432 21.2555 38.8332 21.4259C38.7731 24.3221 38.0014 27.058 36.7087 29.4732C36.6986 29.4832 36.6986 29.4832 36.6986 29.4932C35.8669 31.0064 34.8346 32.3794 33.6421 33.582C33.2412 33.9728 32.8203 34.3737 32.3794 34.7344C32.3694 34.7344 32.3593 34.7444 32.3493 34.7645C31.6979 35.2956 31.0064 35.7867 30.2949 36.2276C29.8039 36.5182 29.3028 36.7989 28.7817 37.0494C28.3307 37.2699 27.8597 37.4703 27.3887 37.6507C27.2985 37.6807 27.2183 37.7208 27.1281 37.7509C26.597 37.9413 26.0659 38.1117 25.5047 38.262C24.5225 38.5225 23.5004 38.6929 22.4381 38.7731C22.2577 38.7931 22.0773 38.8031 21.9069 38.8031C21.7666 38.8132 21.6364 38.8232 21.4961 38.8132C21.3457 38.8332 21.2054 38.8332 21.0551 38.8332H20.985C20.8647 38.8332 20.7444 38.8332 20.6242 38.8232C11.0737 38.6328 3.36721 30.9664 3.14674 21.4259C3.13672 21.2756 3.13672 21.1353 3.13672 20.985C3.13672 20.8346 3.13672 20.6943 3.14674 20.544C3.36721 11.0036 11.0837 3.32713 20.6342 3.14674C20.7444 3.13672 20.8647 3.13672 20.985 3.13672H21.0551C21.2054 3.13672 21.3558 3.13672 21.5061 3.14674C21.6364 3.14674 21.7666 3.15676 21.8969 3.16678C22.0573 3.1768 22.2276 3.18683 22.388 3.19685C23.2498 3.267 24.0716 3.38726 24.8733 3.57766C25.0837 3.60773 25.2842 3.66786 25.4746 3.71796C25.7552 3.79814 26.0458 3.86829 26.3264 3.95848C26.7172 4.08876 27.1081 4.21904 27.4789 4.36936C27.6392 4.42949 27.7996 4.48962 27.9599 4.56979C28.471 4.78024 28.9821 5.02076 29.4732 5.29134C29.7437 5.44166 29.9943 5.59198 30.2548 5.7423C31.4674 6.48389 32.5999 7.3758 33.602 8.37795C34.6041 9.3801 35.486 10.5125 36.2376 11.7251C36.3779 11.9656 36.5182 12.2162 36.6586 12.4667C36.6586 12.4767 36.6686 12.4868 36.6886 12.4968C37.0795 13.2384 37.4302 14.02 37.7409 14.8218C37.7409 14.8418 37.7509 14.8518 37.7609 14.8618C38.0415 15.6636 38.282 16.4953 38.4524 17.3371C38.6328 18.199 38.743 19.1009 38.8031 19.9928C38.8132 20.1732 38.8232 20.3737 38.8232 20.554C38.8432 20.6743 38.8432 20.7946 38.8432 20.9148Z" fill="#E6E9EB"/>
<path d="M38.8434 20.915C38.8434 21.0853 38.8434 21.2557 38.8333 21.4261H35.8369V20.5542H38.8333C38.8434 20.6745 38.8434 20.7947 38.8434 20.915Z" fill="#5F737C"/>
<path d="M21.5062 35.8867V38.823C21.3558 38.8431 21.2155 38.8431 21.0652 38.8431H20.9951C20.8748 38.8431 20.7545 38.8431 20.6343 38.833L20.6243 35.8867H21.5062Z" fill="#5F737C"/>
<path d="M21.5262 3.15699V6.25363H20.6643L20.6543 3.15699C20.7645 3.14697 20.8848 3.14697 21.005 3.14697H21.0752C21.2255 3.14697 21.3758 3.14697 21.5262 3.15699Z" fill="#5F737C"/>
<path d="M6.56404 20.554V21.4258H3.16676C3.15674 21.2755 3.15674 21.1352 3.15674 20.9849C3.15674 20.8346 3.15674 20.6943 3.16676 20.5439H6.56404V20.554Z" fill="#5F737C"/>
<path d="M26.83 9.55545L21.5303 20.9257L20.7368 20.5617L26.0365 9.19138L26.83 9.55545Z" fill="#5F737C"/>
<path d="M27.8082 9.89406C27.8182 10.7559 27.247 11.4875 26.4753 11.738C26.355 11.7781 26.2248 11.7981 26.1045 11.8182C26.0444 11.8282 25.9742 11.8282 25.9141 11.8282C24.8618 11.8282 24 10.9664 24 9.9141C24 8.86185 24.8618 8 25.9141 8C26.2448 8 26.5555 8.09019 26.8261 8.23049C26.9263 8.29062 27.0165 8.36077 27.1167 8.43092C27.1167 8.43092 27.1167 8.44094 27.1267 8.43092C27.5376 8.78167 27.7981 9.30279 27.8082 9.89406Z" fill="#54CC5A"/>
<path d="M20.5242 21.8632L8.49469 25.384L8.25373 24.5478L20.2719 21.0185L20.5242 21.8632Z" fill="#5F737C"/>
<path d="M22.8082 20.8941C22.8182 21.7559 22.247 22.4875 21.4753 22.738C21.355 22.7781 21.2248 22.7981 21.1045 22.8182C21.0444 22.8182 20.9742 22.8282 20.9141 22.8282C19.8618 22.8282 19 21.9664 19 20.9141C19 19.8618 19.8618 19 20.9141 19C20.9742 19 21.0444 19.01 21.1045 19.01C21.2248 19.0301 21.355 19.0501 21.4653 19.0902C21.4753 19.0902 21.4753 19.0902 21.4753 19.0902C22.247 19.3307 22.7981 20.0422 22.8082 20.8941Z" fill="#FFDD33"/>
<path d="M10.8182 24.9042C10.8182 25.9664 9.96636 26.8183 8.9141 26.8183C7.85183 26.8183 7 25.9664 7 24.9042C7 23.8519 7.85183 23.0001 8.9141 23.0001C9.96636 22.9901 10.8182 23.8419 10.8182 24.9042Z" fill="#FFDD33"/>
<path fill-rule="evenodd" clip-rule="evenodd" d="M36 28C36 21.387 41.387 16 48 16C54.613 16 60 21.387 60 28C60 34.613 54.613 40 48 40C41.387 40 36 34.613 36 28ZM34.9271 44H61.0927C67.1051 44 72.0099 49.1612 72 55.5343V72H24V55.5448C24 49.1821 28.9048 44 34.9271 44Z" fill="#002548"/>
</svg>
