<svg width="48" height="48" viewBox="0 0 48 48" fill="none" xmlns="http://www.w3.org/2000/svg">
<g clip-path="url(#clip0_14282_22590)">
<path opacity="0.992" fill-rule="evenodd" clip-rule="evenodd" d="M33.8905 0.796781C39.0195 0.415962 42.9415 2.38471 45.6561 6.70303C47.1529 9.4935 47.5279 12.431 46.7811 15.5155C45.265 20.4379 41.9681 23.3286 36.8905 24.1874C31.7593 24.614 27.8375 22.6609 25.1248 18.328C23.628 15.5375 23.253 12.5999 23.9998 9.51553C25.5321 4.59185 28.829 1.6856 33.8905 0.796781Z" fill="#FFD92C"/>
<path opacity="0.983" fill-rule="evenodd" clip-rule="evenodd" d="M15.8906 1.64063C16.0806 1.62543 16.2681 1.64105 16.4531 1.68751C18.088 2.91922 19.6974 4.18485 21.2812 5.48438C21.3437 5.67188 21.3437 5.85938 21.2812 6.04688C19.6987 7.34824 18.0894 8.61387 16.4531 9.84376C16.1862 9.93225 15.9518 9.88538 15.7499 9.70313C15.6207 9.27788 15.5738 8.84038 15.6093 8.39063C11.3904 9.13363 8.43728 11.4773 6.74993 15.4219C5.78727 17.86 5.25602 20.3913 5.15618 23.0156C3.94327 20.3814 3.59951 17.6315 4.12493 14.7656C5.22109 9.32702 8.36171 5.65515 13.5468 3.75001C14.2233 3.54959 14.9108 3.40896 15.6093 3.32813C15.5937 2.88952 15.6094 2.45202 15.6562 2.01563C15.7182 1.87651 15.7964 1.75152 15.8906 1.64063Z" fill="#71D561"/>
<path fill-rule="evenodd" clip-rule="evenodd" d="M34.1718 4.35946C37.7568 4.06625 40.5224 5.40999 42.4686 8.39071C44.0562 11.5344 43.8687 14.5656 41.9061 17.4845C39.2631 20.5165 36.0288 21.3758 32.203 20.0626C28.5533 18.2494 26.9127 15.2962 27.2811 11.2032C28.1368 7.4569 30.4337 5.17566 34.1718 4.35946Z" fill="#FDB800"/>
<path fill-rule="evenodd" clip-rule="evenodd" d="M35.2034 7.172C37.0469 6.97676 38.5 7.63301 39.5627 9.14075C39.7186 9.95329 39.3905 10.3126 38.5784 10.2189C38.0976 9.54069 37.4727 9.04071 36.7034 8.71888C35.3268 8.53214 34.2956 9.04776 33.6096 10.2658C34.7646 10.3438 35.9208 10.3907 37.0784 10.4064C37.6087 10.9441 37.5463 11.4129 36.8909 11.8126C35.6413 11.8595 34.3912 11.8752 33.1409 11.8595C33.1409 12.297 33.1409 12.7345 33.1409 13.172C34.3912 13.1563 35.6413 13.172 36.8909 13.2189C37.5641 13.6024 37.6266 14.0712 37.0784 14.6251C35.9208 14.6408 34.7646 14.6877 33.6096 14.7658C34.2988 15.9853 35.33 16.501 36.7034 16.3126C37.4727 15.9908 38.0976 15.4908 38.5784 14.8126C39.344 14.7032 39.6721 15.0313 39.5627 15.797C38.544 17.3921 37.0909 18.064 35.2034 17.8126C33.5946 17.3132 32.5321 16.2664 32.0159 14.672C31.5461 14.6876 31.0773 14.6719 30.6096 14.6251C30.2616 14.3895 30.1523 14.0614 30.2815 13.6408C30.5948 13.2262 31.0167 13.0699 31.5471 13.172C31.5471 12.7345 31.5471 12.297 31.5471 11.8595C31.0167 11.9616 30.5948 11.8053 30.2815 11.3908C30.1523 10.9701 30.2616 10.642 30.6096 10.4064C31.0773 10.3596 31.5461 10.3439 32.0159 10.3595C32.5493 8.76358 33.6118 7.70107 35.2034 7.172Z" fill="white"/>
<path opacity="0.992" fill-rule="evenodd" clip-rule="evenodd" d="M11.0156 23.6719C16.238 23.2906 20.1911 25.3218 22.875 29.7657C24.5798 33.2849 24.6736 36.8474 23.1562 40.4532C21.2302 44.2527 18.1521 46.4558 13.9219 47.0625C8.82725 47.4606 4.93662 45.5074 2.25 41.2032C0.1875 37.3282 0.1875 33.4531 2.25 29.5782C4.25379 26.2462 7.17567 24.2774 11.0156 23.6719Z" fill="#FED92C"/>
<path opacity="0.982" fill-rule="evenodd" clip-rule="evenodd" d="M42.7031 24.8906C43.2357 25.8472 43.5951 26.8784 43.7813 27.9844C44.5937 33.9025 42.6718 38.6994 38.0156 42.375C36.2939 43.5792 34.3877 44.3137 32.2969 44.5781C32.3341 45.0899 32.2872 45.5899 32.1563 46.0781C31.9544 46.2604 31.7201 46.3072 31.4531 46.2188C29.8182 44.9871 28.2088 43.7214 26.625 42.4219C26.5625 42.2344 26.5625 42.0469 26.625 41.8594C28.2075 40.558 29.8168 39.2924 31.4531 38.0625C31.7201 37.974 31.9544 38.0209 32.1563 38.2031C32.2856 38.6284 32.3324 39.0659 32.2969 39.5156C36.5062 38.7599 39.4593 36.4162 41.1563 32.4844C42.1341 30.0486 42.6497 27.5173 42.7031 24.8906Z" fill="#71D560"/>
<path fill-rule="evenodd" clip-rule="evenodd" d="M11.2969 27.2342C16.2263 27.001 19.3357 29.251 20.6251 33.9842C21.0215 37.5496 19.7559 40.3465 16.8282 42.3748C13.0144 44.356 9.56134 43.8717 6.46881 40.9217C4.05311 37.9307 3.70935 34.712 5.43756 31.2655C6.82423 29.0958 8.77737 27.752 11.2969 27.2342Z" fill="#FDB800"/>
<path fill-rule="evenodd" clip-rule="evenodd" d="M12.2344 29.7656C12.6744 29.6906 13.0026 29.8468 13.2188 30.2343C13.25 30.5781 13.2813 30.9218 13.3125 31.2656C14.1602 31.4265 14.7071 31.9109 14.9531 32.7187C14.8563 33.3144 14.5125 33.5332 13.9219 33.3749C13.3924 32.7956 12.7361 32.6081 11.9531 32.8124C11.3207 33.238 11.2269 33.7692 11.6719 34.4062C11.7817 34.4455 11.8755 34.5079 11.9531 34.5937C13.4558 34.4458 14.5027 35.0552 15.0938 36.4218C15.3029 37.5772 14.9435 38.499 14.0156 39.1874C13.7792 39.3131 13.5292 39.3912 13.2656 39.4218C13.2811 39.767 13.2655 40.1107 13.2188 40.4531C12.9113 41.0745 12.4895 41.1683 11.9531 40.7343C11.7862 40.3475 11.7236 39.9413 11.7656 39.5156C11.1456 39.3848 10.6299 39.0723 10.2188 38.5781C9.91547 37.7255 10.2124 37.3348 11.1094 37.4062C11.6313 37.9937 12.2875 38.1812 13.0781 37.9687C13.5595 37.6823 13.7314 37.2604 13.5938 36.7031C13.4765 36.433 13.2734 36.2611 12.9844 36.1874C11.1759 36.2991 10.1447 35.4709 9.89062 33.7031C9.97706 32.4992 10.5864 31.6868 11.7188 31.2656C11.75 30.9218 11.7813 30.5781 11.8125 30.2343C11.9243 30.0471 12.065 29.8908 12.2344 29.7656Z" fill="white"/>
</g>
<defs>
<clipPath id="clip0_14282_22590">
<rect width="48" height="48" fill="white"/>
</clipPath>
</defs>
</svg>
