<svg width="40" height="40" viewBox="0 0 40 40" fill="none" xmlns="http://www.w3.org/2000/svg">
<path d="M28.428 33.9442H20.4745V31.4791C20.4745 31.2186 20.2605 30.9954 19.9908 30.9954C19.7303 30.9954 19.507 31.2093 19.507 31.4791V33.9442H11.5535C11.2931 33.9442 11.0698 34.1582 11.0698 34.4279V37.2C11.0698 37.4605 11.2838 37.6837 11.5535 37.6837C11.814 37.6837 12.0373 37.4698 12.0373 37.2V34.9116H19.507V37.2C19.507 37.4605 19.721 37.6837 19.9908 37.6837C20.2512 37.6837 20.4745 37.4698 20.4745 37.2V34.9116H27.9349V37.2C27.9349 37.4605 28.1489 37.6837 28.4187 37.6837C28.6884 37.6837 28.9024 37.4698 28.9024 37.2V34.4279C28.9117 34.1582 28.6977 33.9442 28.428 33.9442Z" fill="#D2D9DC"/>
<path d="M33.6651 16.8744C33.2558 16.8744 32.8465 16.7163 32.5302 16.4093L20 3.86977L7.46977 16.4093C6.83721 17.0419 5.82326 17.0419 5.2 16.4093C4.56745 15.7767 4.56745 14.7628 5.2 14.1395L18.8744 0.465116C19.1721 0.167442 19.5721 0 20.0093 0C20.4372 0 20.8465 0.167442 21.1442 0.465116L34.8 14.1395C35.4326 14.7721 35.4326 15.786 34.8 16.4093C34.4837 16.7256 34.0744 16.8744 33.6651 16.8744Z" fill="#ED1C24"/>
<path d="M19.9998 3.86987L8.44629 15.4234V26.6978H17.4695C16.9858 26.2141 16.6416 25.6001 16.4649 24.9396C16.0835 24.4001 15.8509 23.6838 15.8509 23.0513C15.8323 22.6048 15.9254 22.1955 16.13 21.8141C16.2602 21.4141 16.4835 21.0699 16.7905 20.7815C17.4602 19.9164 18.6975 19.4606 19.7579 19.4513C20.8835 19.442 21.8602 19.8978 22.6881 20.6141C24.2137 21.935 24.3998 24.2606 23.4137 25.9443C23.2463 26.2234 23.0509 26.4745 22.8184 26.6978H31.5254V15.4234L19.9998 3.86987Z" fill="#D2D9DC"/>
<path d="M25.7395 20.1396L26.6604 18.9024L24.5953 16.8372L23.3581 17.7582C22.8371 17.4512 22.2697 17.2093 21.665 17.0605L21.4511 15.5349H18.5395L18.3255 17.0605C17.7209 17.2186 17.1534 17.4512 16.6325 17.7582L15.3953 16.8372L13.3302 18.9024L14.2511 20.1396C13.9534 20.6605 13.7023 21.2279 13.5534 21.8326L12.0278 22.0465V24.9582L13.5534 25.1721C13.7116 25.7768 13.9534 26.3442 14.2511 26.8651L13.3302 28.1024L15.3953 30.1675L16.6325 29.2465C17.1534 29.5442 17.7209 29.7954 18.3255 29.9442L18.5395 31.4698H21.4511L21.665 29.9442C22.279 29.7861 22.8371 29.5442 23.3581 29.2465L24.5953 30.1675L26.6604 28.1024L25.7395 26.8651C26.0464 26.3442 26.2883 25.7768 26.4371 25.1721L27.9627 24.9582V22.0465L26.4371 21.8326C26.2883 21.2279 26.0464 20.6605 25.7395 20.1396ZM19.9999 26.7628C18.2046 26.7628 16.7441 25.3024 16.7441 23.507C16.7441 21.7024 18.2046 20.2419 19.9999 20.2419C21.8046 20.2419 23.265 21.7024 23.265 23.507C23.265 25.3024 21.8046 26.7628 19.9999 26.7628Z" fill="#839299"/>
<path d="M19.9999 40C20.7756 40 21.4045 39.3711 21.4045 38.5953C21.4045 37.8196 20.7756 37.1907 19.9999 37.1907C19.2241 37.1907 18.5952 37.8196 18.5952 38.5953C18.5952 39.3711 19.2241 40 19.9999 40Z" fill="#54CC5A"/>
<path d="M11.5721 40C12.3479 40 12.9768 39.3711 12.9768 38.5953C12.9768 37.8196 12.3479 37.1907 11.5721 37.1907C10.7964 37.1907 10.1675 37.8196 10.1675 38.5953C10.1675 39.3711 10.7964 40 11.5721 40Z" fill="#54CC5A"/>
<path d="M28.4281 40C29.2039 40 29.8327 39.3711 29.8327 38.5953C29.8327 37.8196 29.2039 37.1907 28.4281 37.1907C27.6523 37.1907 27.0234 37.8196 27.0234 38.5953C27.0234 39.3711 27.6523 40 28.4281 40Z" fill="#54CC5A"/>
<path opacity="0.1" d="M8.44629 15.4234V17.2373L19.9998 5.69313L31.5533 17.2466V15.4327L19.9998 3.86987L8.44629 15.4234Z" fill="black"/>
</svg>
