<svg width="40" height="40" viewBox="0 0 40 40" fill="none" xmlns="http://www.w3.org/2000/svg">
<path fill-rule="evenodd" clip-rule="evenodd" d="M9.97195 8.90237C9.99986 8.6326 10.0092 8.36284 9.99986 8.09307L10.3999 7.8047C10.5952 7.66516 10.6882 7.4233 10.6324 7.19074C10.5208 6.66981 10.3347 6.17679 10.0836 5.71167C9.96265 5.50702 9.73939 5.38609 9.49753 5.4047L9.00451 5.45121C8.83706 5.23726 8.65102 5.04191 8.45567 4.86516L8.53009 4.37214C8.5673 4.13958 8.46497 3.90702 8.26032 3.76749C7.81381 3.47912 7.33009 3.26516 6.82776 3.11633C6.5952 3.05121 6.35334 3.13493 6.1952 3.32098L5.87893 3.69307C5.61846 3.66516 5.34869 3.65586 5.07893 3.66516L4.78125 3.26516C4.64172 3.07912 4.39986 2.98609 4.1673 3.0326C3.65567 3.14423 3.15334 3.33028 2.69753 3.59074C2.48358 3.70237 2.36265 3.93493 2.39055 4.17679L2.43706 4.66981C2.21381 4.82795 2.01846 5.014 1.84172 5.21865L1.35799 5.13493C1.11613 5.09772 0.883576 5.20005 0.753344 5.4047C0.464972 5.85121 0.251018 6.33493 0.102181 6.83726C0.0370646 7.06981 0.111483 7.32098 0.29753 7.46981L0.678925 7.78609C0.641716 8.05586 0.632413 8.32563 0.641716 8.5954L0.251018 8.88377C0.0556693 9.0233 -0.037354 9.26516 0.01846 9.49772C0.130088 10.0093 0.316134 10.5117 0.567297 10.9675C0.688227 11.1721 0.911483 11.2931 1.15334 11.2745L1.64637 11.228C1.81381 11.4419 1.99986 11.6373 2.1952 11.814L2.12079 12.2977C2.08358 12.5396 2.1952 12.7721 2.39055 12.9024C2.83706 13.1907 3.32079 13.4047 3.82311 13.5535C4.05567 13.6187 4.29753 13.5442 4.45567 13.3582L4.77195 12.9768C5.03241 13.0233 5.30218 13.0326 5.57195 13.0233L5.86032 13.4233C5.99986 13.6187 6.24172 13.7117 6.47427 13.6559C6.9952 13.5442 7.48823 13.3582 7.95334 13.107C8.15799 12.9954 8.27892 12.7628 8.26032 12.521L8.21381 12.028C8.42776 11.8605 8.62311 11.6745 8.80916 11.4791L9.29288 11.5535C9.53474 11.5907 9.7673 11.4791 9.89753 11.2838C10.1859 10.8373 10.3999 10.3535 10.5487 9.85121C10.6138 9.62795 10.5394 9.37679 10.3533 9.22795L9.97195 8.90237ZM7.66497 9.4047C7.07892 10.6977 5.55334 11.2745 4.26032 10.6884C2.9673 10.1024 2.39055 8.57679 2.9766 7.28377C3.56265 5.99074 5.08823 5.414 6.38125 6.00005C7.68358 6.58609 8.25102 8.11167 7.66497 9.4047Z" fill="#839299"/>
<path d="M21.3767 33.386H24.6418C24.9953 33.386 25.2837 33.6744 25.2837 34.0278V37.9813C25.2837 38.3348 24.9953 38.6232 24.6418 38.6232H21.3767C21.0232 38.6232 20.7349 38.3348 20.7349 37.9813V34.0278C20.7349 33.6744 21.0232 33.386 21.3767 33.386Z" fill="#839299"/>
<path d="M26.2791 31.7488H29.5442C29.8977 31.7488 30.186 32.0372 30.186 32.3906V37.9813C30.186 38.3348 29.8977 38.6232 29.5442 38.6232H26.2791C25.9256 38.6232 25.6372 38.3348 25.6372 37.9813V32.3906C25.6372 32.0372 25.9256 31.7488 26.2791 31.7488Z" fill="#0054A6"/>
<path d="M31.1814 29.2092H34.4465C34.8 29.2092 35.0884 29.4976 35.0884 29.8511V37.9813C35.0884 38.3348 34.8 38.6232 34.4465 38.6232H31.1814C30.8279 38.6232 30.5396 38.3348 30.5396 37.9813V29.8511C30.5396 29.4976 30.8279 29.2092 31.1814 29.2092Z" fill="#FFDD33"/>
<path d="M36.093 27.0605H39.3581C39.7116 27.0605 40 27.3489 40 27.7024V37.9722C40 38.3257 39.7116 38.614 39.3581 38.614H36.093C35.7395 38.614 35.4512 38.3257 35.4512 37.9722V27.7024C35.4512 27.3489 35.7302 27.0605 36.093 27.0605Z" fill="#ED1C24"/>
<path fill-rule="evenodd" clip-rule="evenodd" d="M14.2415 22.4929L18.5671 24.8371C18.3997 25.1534 18.5113 25.5348 18.8276 25.7115C18.9206 25.758 19.0229 25.786 19.1346 25.786H39.3578C39.7113 25.786 39.9997 25.4976 39.9997 25.1441V4.58595C39.9997 4.23246 39.7113 3.94409 39.3578 3.94409H13.6741C13.3206 3.94409 13.0322 4.23246 13.0322 4.58595V22.1766C13.0322 22.5301 13.3206 22.8185 13.6741 22.8185C13.9066 22.8278 14.1206 22.6976 14.2415 22.4929Z" fill="white"/>
<path fill-rule="evenodd" clip-rule="evenodd" d="M21.3767 22.5674H31.6465C32 22.5674 32.2884 22.279 32.2884 21.9256C32.2884 21.5721 32 21.2837 31.6465 21.2837H21.3767C21.0232 21.2837 20.7349 21.5721 20.7349 21.9256C20.7349 22.279 21.0232 22.5674 21.3767 22.5674Z" fill="#839299"/>
<path d="M26.5113 18.7163C29.3473 18.7163 31.6462 16.4173 31.6462 13.5814C31.6462 10.7455 29.3473 8.44653 26.5113 8.44653C23.6754 8.44653 21.3765 10.7455 21.3765 13.5814C21.3765 16.4173 23.6754 18.7163 26.5113 18.7163Z" fill="#0054A6"/>
<path fill-rule="evenodd" clip-rule="evenodd" d="M25.2276 11.2092C24.9113 11.051 24.5206 11.1813 24.3625 11.4975C24.316 11.5906 24.2974 11.6836 24.2974 11.7859V15.3859C24.2974 15.7394 24.5857 16.0278 24.9392 16.0278C25.0415 16.0278 25.1346 16.0092 25.2276 15.9627L28.8276 14.1673C29.1439 14.0092 29.2741 13.6185 29.116 13.3022C29.0509 13.1813 28.9578 13.0789 28.8276 13.0138L25.2276 11.2092Z" fill="white"/>
<path fill-rule="evenodd" clip-rule="evenodd" d="M7.68346 30.6882V24.8836C7.96253 24.8836 8.18579 24.6603 8.18579 24.3812C8.18579 24.1022 7.96253 23.8789 7.68346 23.8789H6.54858C4.39044 23.8789 2.6416 25.6277 2.6416 27.7859C2.6416 29.944 4.39044 31.6929 6.54858 31.6929H7.68346C7.96253 31.6929 8.18579 31.4696 8.18579 31.1905C8.18579 30.9115 7.96253 30.6882 7.68346 30.6882Z" fill="#FFDD33"/>
<path fill-rule="evenodd" clip-rule="evenodd" d="M8.37199 30.744C8.11153 30.6417 7.82315 30.7626 7.71153 31.0231C7.68362 31.0789 7.67432 31.144 7.67432 31.2091V38.0184C7.67432 38.2975 7.89757 38.5208 8.17664 38.5208H10.4464C10.7255 38.5208 10.9487 38.2975 10.9487 38.0184V32.1115C10.9487 31.9068 10.8278 31.7208 10.6325 31.6463L8.37199 30.744Z" fill="#FFDD33"/>
<path fill-rule="evenodd" clip-rule="evenodd" d="M17.0883 20.0743C16.8929 20.1487 16.772 20.3347 16.772 20.5394V35.0231C16.772 35.2278 16.8929 35.4138 17.0883 35.4882L18.8557 36.1952C19.1162 36.2975 19.4045 36.1766 19.5162 35.9161C19.5441 35.8603 19.5534 35.7952 19.5534 35.7301V19.8324C19.5534 19.5533 19.3301 19.3301 19.051 19.3301C18.9859 19.3301 18.9208 19.3394 18.865 19.3673L17.0883 20.0743Z" fill="#FFDD33"/>
<path fill-rule="evenodd" clip-rule="evenodd" d="M13.0322 4.38136H39.9997V2.01857C39.9997 1.66508 39.7113 1.37671 39.3578 1.37671H13.6741C13.3206 1.37671 13.0322 1.66508 13.0322 2.01857V4.38136Z" fill="#54CC5A"/>
<g opacity="0.19">
<path fill-rule="evenodd" clip-rule="evenodd" d="M7.68346 30.6882V24.8836C7.96253 24.8836 8.18579 24.6603 8.18579 24.3812C8.18579 24.1022 7.96253 23.8789 7.68346 23.8789H6.54858C4.39044 23.8789 2.6416 25.6277 2.6416 27.7859C2.6416 29.944 4.39044 31.6929 6.54858 31.6929H7.68346C7.96253 31.6929 8.18579 31.4696 8.18579 31.1905C8.18579 30.9115 7.96253 30.6882 7.68346 30.6882Z" fill="#2D2F31"/>
<path fill-rule="evenodd" clip-rule="evenodd" d="M8.37199 30.744C8.11153 30.6417 7.82315 30.7626 7.71153 31.0231C7.68362 31.0789 7.67432 31.144 7.67432 31.2091V38.0184C7.67432 38.2975 7.89757 38.5208 8.17664 38.5208H10.4464C10.7255 38.5208 10.9487 38.2975 10.9487 38.0184V32.1115C10.9487 31.9068 10.8278 31.7208 10.6325 31.6463L8.37199 30.744Z" fill="#2D2F31"/>
<path fill-rule="evenodd" clip-rule="evenodd" d="M17.0883 20.0743C16.8929 20.1487 16.772 20.3347 16.772 20.5394V35.0231C16.772 35.2278 16.8929 35.4138 17.0883 35.4882L18.8557 36.1952C19.1162 36.2975 19.4045 36.1766 19.5162 35.9161C19.5441 35.8603 19.5534 35.7952 19.5534 35.7301V19.8324C19.5534 19.5533 19.3301 19.3301 19.051 19.3301C18.9859 19.3301 18.9208 19.3394 18.865 19.3673L17.0883 20.0743Z" fill="#2D2F31"/>
</g>
<path fill-rule="evenodd" clip-rule="evenodd" d="M7.68359 23.8325V31.6929L17.0882 35.4883C17.3487 35.5906 17.6371 35.4697 17.7487 35.2092C17.7766 35.1534 17.7859 35.0883 17.7859 35.0232V20.5394C17.7859 20.2604 17.5627 20.0371 17.2836 20.0371C17.2185 20.0371 17.1534 20.0464 17.0975 20.0743L7.68359 23.8325Z" fill="#FFDD33"/>
</svg>
