<svg width="40" height="40" viewBox="0 0 40 40" fill="none" xmlns="http://www.w3.org/2000/svg">
<g clip-path="url(#clip0_4220_6143)">
<path fill-rule="evenodd" clip-rule="evenodd" d="M33.4883 39.9349V32.9116C35.4139 32.9302 37.0046 34.493 37.0046 36.4279C37.0046 38.3628 35.4511 39.9256 33.5255 39.9442H33.4883V39.9349Z" fill="#ED1C24"/>
<path fill-rule="evenodd" clip-rule="evenodd" d="M8.76265 28.3628H6.57661C6.30684 28.3628 6.06498 28.2139 5.93475 27.9814C5.80451 27.7488 5.82312 27.4605 5.97196 27.2372L8.88358 22.8744C9.01382 22.6698 9.24637 22.5488 9.48823 22.5488C9.7301 22.5488 9.96265 22.6698 10.0929 22.8744L13.0045 27.2372C13.1534 27.4605 13.172 27.7488 13.0417 27.9814C12.9115 28.2139 12.6696 28.3628 12.3999 28.3628H10.2138V38.5488H19.665V35.0232C19.665 34.6232 19.9906 34.2977 20.3906 34.2977C20.7906 34.2977 21.1161 34.6232 21.1161 35.0232V38.9116C21.1161 38.9767 21.1068 39.0325 21.0882 39.0977C21.1068 39.1535 21.1161 39.2186 21.1161 39.2837C21.1161 39.6837 20.7906 40.0093 20.3906 40.0093H9.48823C9.08823 40.0093 8.76265 39.6837 8.76265 39.2837C8.76265 39.1535 8.79986 39.0232 8.85568 38.9209H8.76265V28.3628Z" fill="#D2D9DC"/>
<path fill-rule="evenodd" clip-rule="evenodd" d="M27.2464 24.8C27.2091 24.5302 27.0138 24.307 26.744 24.2325L26.0836 24.0558C25.9812 23.693 25.8324 23.3488 25.6557 23.0139L25.9905 22.4186C26.1208 22.1767 26.1115 21.8883 25.944 21.6651C25.544 21.1256 25.0603 20.6511 24.5301 20.2511C24.3068 20.0837 24.0091 20.0651 23.7766 20.2046L23.1812 20.5395C22.8557 20.3628 22.5022 20.2232 22.1394 20.1116L21.9626 19.4511C21.8882 19.1907 21.665 18.9953 21.3952 18.9488C20.7347 18.8465 20.0557 18.8465 19.3952 18.9488C19.1254 18.986 18.9022 19.1814 18.8277 19.4511L18.6417 20.1116C18.2789 20.2232 17.9347 20.3628 17.6091 20.5395L17.0138 20.2046C16.7719 20.0744 16.4743 20.093 16.2603 20.2511C15.7208 20.6511 15.2464 21.1349 14.8464 21.6651C14.6789 21.8883 14.6603 22.186 14.7998 22.4186L15.1347 23.0139C14.958 23.3395 14.8091 23.693 14.7068 24.0558L14.0464 24.2325C13.7859 24.307 13.5812 24.5302 13.544 24.8C13.4417 25.4604 13.4417 26.1395 13.544 26.8093C13.5812 27.079 13.7766 27.3023 14.0464 27.3767L14.7068 27.5628C14.8091 27.9256 14.958 28.2697 15.1347 28.5953L14.7998 29.1907C14.6696 29.4325 14.6789 29.7302 14.8464 29.9442C15.2464 30.4837 15.7301 30.9581 16.2603 31.3581C16.4836 31.5256 16.7812 31.5442 17.0138 31.4046L17.6091 31.0697C17.9347 31.2465 18.2882 31.3953 18.6417 31.4977L18.8277 32.1488C18.9022 32.4093 19.1254 32.6139 19.3952 32.6511C20.0557 32.7535 20.7347 32.7535 21.3952 32.6511C21.665 32.6139 21.8882 32.4186 21.9626 32.1488L22.1394 31.4977C22.5022 31.386 22.8464 31.2372 23.1812 31.0697L23.7766 31.4046C24.0184 31.5349 24.3161 31.5256 24.5301 31.3581C25.0696 30.9581 25.544 30.4744 25.944 29.9442C26.1115 29.7209 26.1301 29.4232 25.9905 29.1907L25.6557 28.5953C25.8324 28.2697 25.9812 27.9163 26.0836 27.5628L26.744 27.3767C27.0045 27.3023 27.1998 27.079 27.2464 26.8093C27.3487 26.1395 27.3487 25.4604 27.2464 24.8ZM20.3998 29.0325C18.6138 29.0325 17.1626 27.5814 17.1626 25.7953C17.1626 24.0093 18.6138 22.5581 20.3998 22.5581C22.1859 22.5581 23.6371 24.0093 23.6371 25.7953C23.6277 27.5814 22.1859 29.0325 20.3998 29.0325Z" fill="#839299"/>
<path fill-rule="evenodd" clip-rule="evenodd" d="M32.7627 26.186V30.0744C32.7627 30.4744 33.0883 30.7999 33.4883 30.7999C33.8883 30.7999 34.2139 30.4744 34.2139 30.0744V26.186C34.2139 25.786 33.8883 25.4604 33.4883 25.4604C33.0883 25.4511 32.7627 25.7767 32.7627 26.186Z" fill="#D2D9DC"/>
<path fill-rule="evenodd" clip-rule="evenodd" d="M39.6187 16.9674C39.8699 16.8186 40.0001 16.5302 39.9536 16.2511C39.8513 15.5535 39.6559 14.8744 39.3582 14.2325C39.2373 13.9721 38.9768 13.8046 38.6885 13.8139L37.9722 13.8232C37.7582 13.4977 37.5071 13.1907 37.2373 12.9116L37.4048 12.2139C37.4699 11.9349 37.3582 11.6372 37.135 11.4697C36.5675 11.0418 35.9536 10.707 35.2931 10.4558C35.0234 10.3535 34.7164 10.4279 34.5117 10.6325L34.0187 11.1442C33.628 11.0697 33.2373 11.0232 32.8466 11.0232L32.4652 10.4093C32.3164 10.1674 32.0373 10.0372 31.7489 10.0744C31.0513 10.1767 30.3722 10.3721 29.7303 10.6697C29.4699 10.7907 29.3024 11.0511 29.3117 11.3488L29.321 12.0651C28.9955 12.279 28.6885 12.5302 28.4094 12.8L27.7117 12.6418C27.4327 12.5767 27.135 12.679 26.9675 12.9116C26.5396 13.479 26.2048 14.1023 25.9536 14.7628C25.8513 15.0325 25.9257 15.3395 26.1303 15.5349L26.642 16.0372C26.5675 16.4186 26.521 16.8186 26.521 17.2093L25.9071 17.5814C25.6652 17.7395 25.535 18.0186 25.5722 18.307C25.6745 19.0046 25.8699 19.6837 26.1675 20.3256C26.2885 20.586 26.5489 20.7535 26.8466 20.7442L27.5629 20.7349C27.7768 21.0604 28.028 21.3674 28.2978 21.6558L28.121 22.3256C28.0559 22.6046 28.1582 22.9023 28.3908 23.0697C28.9582 23.4883 29.5815 23.8325 30.242 24.0744C30.5117 24.1767 30.8187 24.1023 31.0141 23.8977L31.5164 23.3767C31.8978 23.4604 32.2978 23.4977 32.6885 23.507L33.0606 24.1116C33.2187 24.3628 33.4978 24.493 33.7862 24.4465C34.4838 24.3442 35.1629 24.1488 35.8048 23.8511C36.0652 23.7302 36.2327 23.4697 36.2234 23.1814L36.2141 22.4651C36.5396 22.2511 36.8466 22 37.135 21.7302L37.8327 21.8977C38.1117 21.9628 38.4094 21.8511 38.5769 21.6279C38.9955 21.0604 39.3396 20.4372 39.5815 19.786C39.6838 19.5163 39.6094 19.2093 39.4048 19.0046L38.8838 18.5116C38.9675 18.1209 39.0048 17.7302 39.0141 17.3395L39.6187 16.9674ZM35.7396 18.893C34.8373 20.5395 32.7722 21.1442 31.1257 20.2511C29.4792 19.3488 28.8652 17.2837 29.7675 15.6372C30.6606 13.9907 32.735 13.3767 34.3815 14.279C36.0373 15.1814 36.642 17.2465 35.7396 18.893Z" fill="#839299"/>
<path fill-rule="evenodd" clip-rule="evenodd" d="M14.1021 15.6651C14.1393 15.386 14.1393 15.1069 14.13 14.8278L14.5393 14.5302C14.7347 14.3906 14.8277 14.1302 14.7812 13.8976C14.6603 13.3674 14.4742 12.8465 14.2138 12.372C14.0928 12.1581 13.8603 12.0278 13.6091 12.0558L13.1068 12.1023C12.9393 11.879 12.744 11.6744 12.5393 11.4883L12.6231 10.986C12.6603 10.7441 12.5579 10.5023 12.344 10.3627C11.8882 10.0744 11.3858 9.8418 10.8649 9.69296C10.6231 9.62785 10.3719 9.70227 10.2138 9.89762L9.88817 10.2883C9.6091 10.2511 9.33933 10.2511 9.06027 10.2604L8.74399 9.8418C8.59515 9.64645 8.34399 9.55343 8.11143 9.59994C7.5812 9.72087 7.06957 9.90692 6.59515 10.1674C6.3812 10.2883 6.25096 10.5209 6.27887 10.772L6.32538 11.2744C6.10213 11.4418 5.90678 11.6372 5.72073 11.8418L5.2184 11.7581C4.97654 11.7209 4.73468 11.8232 4.59515 12.0372C4.30678 12.493 4.07422 12.9953 3.92538 13.5162C3.86027 13.7581 3.93468 14.0092 4.12073 14.1674L4.51143 14.493C4.47422 14.772 4.46492 15.0418 4.48352 15.3302L4.07422 15.6278C3.86957 15.7767 3.77654 16.0278 3.83236 16.2604C3.94399 16.7906 4.13934 17.3023 4.3998 17.7767C4.52073 17.9906 4.75329 18.1209 5.00445 18.093L5.50678 18.0465C5.67422 18.2697 5.86957 18.4651 6.07422 18.6511L5.9905 19.1534C5.95329 19.3953 6.06492 19.6465 6.26957 19.7767C6.72538 20.0744 7.22771 20.2976 7.74864 20.4465C7.9905 20.5116 8.24166 20.4372 8.3998 20.2511L8.72538 19.8604C9.00445 19.8976 9.28352 19.9069 9.56259 19.8883L9.86027 20.2976C9.9998 20.5023 10.2603 20.5953 10.4928 20.5395C11.0231 20.4278 11.544 20.2325 12.0184 19.972C12.2324 19.8511 12.3626 19.6185 12.3347 19.3674L12.2789 18.8837C12.5021 18.7162 12.7068 18.5209 12.8928 18.3162L13.3951 18.3999C13.637 18.4372 13.8789 18.3255 14.0184 18.1209C14.3068 17.6558 14.5393 17.1627 14.6882 16.6418C14.7533 16.4092 14.6789 16.1488 14.4835 15.9906L14.1021 15.6651ZM11.7207 16.1767C11.1161 17.5162 9.53468 18.1023 8.20445 17.4976C6.86492 16.893 6.27887 15.3116 6.88352 13.9813C7.48817 12.6511 9.06957 12.0558 10.3998 12.6604C11.73 13.2744 12.3254 14.8465 11.7207 16.1767Z" fill="#839299"/>
<path fill-rule="evenodd" clip-rule="evenodd" d="M19.6651 1.45117C19.6651 1.05117 19.9907 0.725586 20.3907 0.725586H33.4884C33.8884 0.725586 34.214 1.05117 34.214 1.45117V8.72559C34.214 9.12559 33.8884 9.45117 33.4884 9.45117C33.0884 9.45117 32.7628 9.12559 32.7628 8.72559V2.18605H21.1256V11.6651H23.4326C23.7023 11.6651 23.9442 11.814 24.0744 12.0465C24.2047 12.2791 24.1861 12.5674 24.0372 12.7907L21.1256 17.1535C20.9954 17.3581 20.7628 17.4791 20.5209 17.4791C20.2791 17.4791 20.0465 17.3581 19.9163 17.1535L17.0047 12.7907C16.8558 12.5674 16.8372 12.2791 16.9675 12.0465C17.0977 11.814 17.3396 11.6651 17.6093 11.6651H19.6651V1.45117Z" fill="#D2D9DC"/>
<path fill-rule="evenodd" clip-rule="evenodd" d="M5.85109 4.36274V6.54879C5.85109 6.81856 5.70225 7.06042 5.46969 7.19065C5.23713 7.32088 4.94876 7.30228 4.72551 7.15344L0.353413 4.24181C0.158065 4.11158 0.027832 3.87902 0.027832 3.63716C0.027832 3.3953 0.158065 3.16274 0.353413 3.03251L4.7162 0.120882C4.93946 -0.0279552 5.22783 -0.0465598 5.46039 0.0836728C5.69295 0.213905 5.84179 0.455766 5.84179 0.725533V2.91158H9.47899C9.69295 2.91158 9.8883 3.0046 10.0185 3.15344L10.0557 3.19995C10.1395 3.31158 10.1953 3.45111 10.1953 3.60925V3.63716V7.99995C10.1953 8.39995 9.86969 8.72553 9.46969 8.72553C9.06969 8.72553 8.74411 8.39995 8.74411 7.99995V4.36274H5.85109Z" fill="#D2D9DC"/>
<g opacity="0.2">
<path fill-rule="evenodd" clip-rule="evenodd" d="M33.4883 32.9023H33.5255C35.4511 32.9209 37.0046 34.4837 37.0046 36.4186C37.0046 38.3535 35.4511 39.9163 33.5255 39.9349H33.4883V32.9023Z" fill="#2D2F31"/>
</g>
<path fill-rule="evenodd" clip-rule="evenodd" d="M33.4884 32.9024V39.9256C31.5629 39.907 29.9722 38.3442 29.9722 36.4093C29.9722 34.4745 31.5257 32.9117 33.4512 32.8931H33.4884V32.9024Z" fill="#ED1C24"/>
</g>
<defs>
<clipPath id="clip0_4220_6143">
<rect width="40" height="40" fill="white"/>
</clipPath>
</defs>
</svg>
