<svg width="40" height="40" viewBox="0 0 40 40" fill="none" xmlns="http://www.w3.org/2000/svg">
<path d="M13.3208 26.6511H26.6696V40H13.3208V26.6511Z" fill="#FFBD86"/>
<path d="M20 26.6511H26.6791V40H20V26.6511Z" fill="#F6A96C"/>
<path d="M19.9997 12.1861C23.0411 12.1861 25.5066 9.72052 25.5066 6.6791C25.5066 3.63768 23.0411 1.17212 19.9997 1.17212C16.9582 1.17212 14.4927 3.63768 14.4927 6.6791C14.4927 9.72052 16.9582 12.1861 19.9997 12.1861Z" fill="#FFEE99"/>
<path d="M19.9999 13.3488C16.3161 13.3488 13.3208 10.3535 13.3208 6.66977C13.3208 2.98605 16.3161 0 19.9999 0C23.6836 0 26.6789 2.99535 26.6789 6.67907C26.6789 10.3628 23.6836 13.3488 19.9999 13.3488ZM19.9999 2.34419C17.6092 2.34419 15.665 4.28837 15.665 6.67907C15.665 9.06977 17.6092 11.014 19.9999 11.014C22.3906 11.014 24.3348 9.06977 24.3348 6.67907C24.3348 4.28837 22.3906 2.34419 19.9999 2.34419Z" fill="#FFDD33"/>
<path d="M18.8276 26.6511H21.1718V30.0651H18.8276V26.6511Z" fill="#ED1C24"/>
<path d="M36.8651 18.5861C36.6791 16.2048 36.0093 13.9536 34.8838 11.8699C33.7954 9.86057 32.3349 8.11173 30.5396 6.68848L29.0791 8.52103C30.6233 9.75824 31.8884 11.2559 32.8186 12.9862C33.7861 14.7815 34.3628 16.7257 34.5303 18.7722C34.8186 22.3815 33.7768 25.8978 31.6372 28.7257V26.8094H29.2931V32.5861H35.0698V30.2327H33.4326C35.9721 26.9396 37.2093 22.8187 36.8651 18.5861Z" fill="#30CAF3"/>
<path d="M7.17188 26.7162C6.20444 24.9209 5.6277 22.9767 5.46025 20.9302C5.17188 17.3209 6.21374 13.8046 8.35328 10.9767V12.893H10.6975V7.11621H4.93002V9.4604H6.56723C4.0277 12.7627 2.79049 16.8837 3.13467 21.1162C3.32072 23.4976 3.99049 25.7488 5.11607 27.8325C6.20444 29.8418 7.66491 31.5906 9.46026 33.0139L10.9207 31.1813C9.36723 29.9534 8.11142 28.4464 7.17188 26.7162Z" fill="#54CC5A"/>
<path d="M36.8651 18.5861C36.6791 16.2048 36.0093 13.9536 34.8838 11.8699C33.7954 9.86057 32.3349 8.11173 30.5396 6.68848L29.0791 8.52103C30.6233 9.75824 31.8884 11.2559 32.8186 12.9862C33.7861 14.7815 34.3628 16.7257 34.5303 18.7722C34.8186 22.3815 33.7768 25.8978 31.6372 28.7257V26.8094H29.2931V32.5861H35.0698V30.2327H33.4326C35.9721 26.9396 37.2093 22.8187 36.8651 18.5861Z" fill="#54CC5A"/>
<path d="M25.507 6.6791C25.507 3.63724 23.0419 1.17212 20 1.17212V12.1768C23.0419 12.1768 25.507 9.72096 25.507 6.6791Z" fill="#FFDD33"/>
<path d="M26.6791 6.67907C26.6791 2.99535 23.6837 0 20 0V2.34419C22.3907 2.34419 24.3349 4.28837 24.3349 6.67907C24.3349 9.06977 22.3907 11.014 20 11.014V13.3581C23.6837 13.3488 26.6791 10.3535 26.6791 6.67907Z" fill="#FFBB33"/>
<path d="M20 26.6511H21.1721V30.0651H20V26.6511Z" fill="#ED1C24"/>
<g opacity="0.19">
<path d="M26.6791 6.67907C26.6791 10.3628 23.6837 13.3581 20 13.3581V0C23.6837 0 26.6791 2.99535 26.6791 6.67907Z" fill="#2D2F31"/>
</g>
</svg>
