<svg width="453" height="333" viewBox="0 0 453 333" fill="none" xmlns="http://www.w3.org/2000/svg">
<path d="M0 24C0 10.7452 10.7452 0 24 0H429C442.255 0 453 10.7452 453 24V333H0V24Z" fill="#002548"/>
<mask id="mask0_4091_8061" style="mask-type:alpha" maskUnits="userSpaceOnUse" x="0" y="0" width="453" height="333">
<path d="M0 24C0 10.7452 10.7452 0 24 0H429C442.255 0 453 10.7452 453 24V333H0V24Z" fill="#002548"/>
</mask>
<g mask="url(#mask0_4091_8061)">
<path d="M93.9973 270.5C92.2735 270.5 90.6299 269.77 89.4472 268.43L85.9495 264.46C85.278 263.69 84.1756 263.5 83.2736 263.99L78.6233 266.53C76.639 267.61 74.3138 267.54 72.4096 266.33C70.5054 265.12 69.4531 263.05 69.5934 260.8L69.9342 255.52C69.9943 254.5 69.3629 253.59 68.3807 253.3L63.2995 251.82C61.1247 251.19 59.5412 249.49 59.0501 247.29C58.5591 245.09 59.2806 242.88 60.9744 241.39L64.9532 237.9C65.7249 237.23 65.9153 236.13 65.4242 235.23L62.8786 230.59C61.7962 228.61 61.8664 226.29 63.079 224.39C64.2917 222.49 66.3663 221.44 68.6213 221.58L73.9129 221.92C74.9452 221.99 75.8472 221.35 76.1379 220.37L77.6211 215.29C78.2525 213.12 79.9563 211.54 82.1612 211.05C84.366 210.56 86.5809 211.28 88.0742 212.97L91.5719 216.94C92.2434 217.71 93.3458 217.9 94.2478 217.41L98.8981 214.87C100.882 213.79 103.208 213.86 105.112 215.07C107.016 216.28 108.068 218.35 107.928 220.6L107.587 225.88C107.527 226.9 108.159 227.81 109.141 228.1L114.222 229.58C116.397 230.21 117.98 231.91 118.471 234.11C118.962 236.31 118.241 238.52 116.547 240.01L112.568 243.5C111.797 244.17 111.606 245.27 112.097 246.17L114.643 250.81C115.725 252.79 115.655 255.11 114.442 257.01C113.23 258.91 111.155 259.97 108.9 259.82L103.608 259.48C102.586 259.41 101.674 260.05 101.384 261.03L99.9003 266.1C99.2689 268.27 97.5652 269.85 95.3603 270.34C94.8993 270.45 94.4483 270.5 93.9973 270.5ZM84.3259 261.41C85.5787 261.41 86.8014 261.94 87.6833 262.93L91.1811 266.9C92.1131 267.95 93.4862 268.4 94.8592 268.1C96.2322 267.8 97.2845 266.81 97.6854 265.46L99.1687 260.39C99.76 258.37 101.644 257.05 103.749 257.18L109.04 257.52C110.444 257.61 111.736 256.96 112.488 255.77C113.24 254.59 113.29 253.14 112.618 251.91L110.073 247.27C109.061 245.42 109.461 243.16 111.045 241.77L115.024 238.28C116.076 237.35 116.527 235.98 116.226 234.61C115.926 233.24 114.934 232.19 113.581 231.79L108.499 230.31C106.475 229.72 105.152 227.84 105.282 225.74L105.623 220.46C105.713 219.06 105.062 217.77 103.869 217.02C102.686 216.27 101.243 216.22 100.001 216.89L95.3503 219.43C93.4962 220.44 91.2312 220.04 89.8381 218.46L86.3404 214.49C85.4083 213.44 84.0353 212.99 82.6623 213.29C81.2892 213.59 80.2369 214.58 79.836 215.93L78.3527 221.01C77.7614 223.03 75.8773 224.35 73.7726 224.22L68.481 223.88C67.0779 223.79 65.785 224.44 65.0333 225.63C64.2817 226.81 64.2316 228.25 64.9031 229.49L67.4487 234.13C68.4609 235.98 68.06 238.24 66.4765 239.63L62.4977 243.12C61.4454 244.05 60.9944 245.42 61.2951 246.79C61.5958 248.16 62.5879 249.21 63.9409 249.61L69.0222 251.09C71.0466 251.68 72.3695 253.56 72.2393 255.66L71.8985 260.94C71.8083 262.34 72.4597 263.63 73.6524 264.38C74.835 265.13 76.2882 265.18 77.5209 264.51L82.1712 261.97C82.8527 261.6 83.5943 261.41 84.3259 261.41ZM88.7256 256.51C85.7491 256.51 82.8226 255.67 80.257 254.03C72.8907 249.35 70.7059 239.56 75.3962 232.21C80.0866 224.86 89.8982 222.68 97.2645 227.36C104.631 232.04 106.816 241.83 102.125 249.18C99.8502 252.74 96.3324 255.21 92.1933 256.12C91.0408 256.39 89.8782 256.51 88.7256 256.51ZM88.7758 227.2C84.2959 227.2 79.9162 229.41 77.3405 233.45C73.3317 239.73 75.1958 248.09 81.4897 252.09C87.7836 256.09 96.1621 254.23 100.171 247.95C104.18 241.67 102.316 233.31 96.0218 229.31C93.7668 227.88 91.2612 227.2 88.7758 227.2Z" fill="#0054A6"/>
<path d="M180.849 223.64C178.704 223.64 176.77 222.56 175.648 220.71L172.891 216.19C172.36 215.32 171.318 214.94 170.346 215.26L165.325 216.95C163.18 217.67 160.905 217.19 159.241 215.66C157.578 214.13 156.896 211.92 157.437 209.72L158.69 204.58C158.931 203.59 158.46 202.58 157.548 202.13L152.797 199.78C150.773 198.78 149.5 196.83 149.41 194.58C149.309 192.33 150.412 190.28 152.336 189.11L156.866 186.36C157.738 185.83 158.119 184.78 157.798 183.82L156.104 178.81C155.383 176.67 155.864 174.4 157.397 172.74C158.931 171.08 161.146 170.41 163.35 170.94L168.502 172.19C169.494 172.43 170.506 171.96 170.957 171.05L173.312 166.31C174.315 164.29 176.269 163.02 178.524 162.93C180.789 162.83 182.833 163.93 184.006 165.85L186.762 170.37C187.293 171.24 188.346 171.62 189.308 171.3L194.329 169.61C196.473 168.89 198.749 169.37 200.412 170.9C202.076 172.43 202.747 174.64 202.216 176.84L200.963 181.98C200.723 182.97 201.194 183.98 202.106 184.43L206.856 186.78C208.881 187.78 210.154 189.73 210.244 191.98C210.344 194.23 209.242 196.28 207.317 197.45L202.787 200.2C201.916 200.73 201.535 201.78 201.855 202.74L203.549 207.75C204.271 209.89 203.79 212.16 202.256 213.82C200.723 215.48 198.508 216.16 196.303 215.62L191.152 214.37C190.16 214.13 189.147 214.6 188.696 215.51L186.341 220.25C185.339 222.27 183.385 223.54 181.13 223.63C181.039 223.64 180.939 223.64 180.849 223.64ZM171.047 212.84C172.571 212.84 174.024 213.62 174.866 214.99L177.622 219.51C178.354 220.71 179.636 221.38 181.029 221.33C182.433 221.27 183.645 220.48 184.267 219.23L186.622 214.49C187.564 212.6 189.648 211.63 191.693 212.13L196.844 213.38C198.207 213.71 199.59 213.29 200.542 212.26C201.495 211.23 201.795 209.82 201.344 208.49L199.651 203.48C198.979 201.48 199.761 199.33 201.565 198.23L206.095 195.48C207.297 194.75 207.979 193.48 207.919 192.08C207.859 190.68 207.067 189.47 205.814 188.85L201.064 186.5C199.169 185.56 198.197 183.48 198.698 181.44L199.951 176.3C200.282 174.94 199.861 173.56 198.829 172.61C197.796 171.66 196.383 171.36 195.05 171.81L190.029 173.5C188.025 174.17 185.87 173.39 184.768 171.59L182.012 167.07C181.28 165.87 180.017 165.19 178.604 165.25C177.201 165.31 175.988 166.1 175.367 167.35L173.012 172.09C172.07 173.98 169.985 174.95 167.941 174.45L162.789 173.2C161.426 172.87 160.043 173.29 159.091 174.32C158.139 175.35 157.838 176.76 158.289 178.09L159.983 183.1C160.654 185.1 159.873 187.25 158.069 188.35L153.539 191.1C152.336 191.83 151.655 193.1 151.715 194.5C151.775 195.9 152.567 197.11 153.819 197.73L158.57 200.08C160.464 201.02 161.436 203.1 160.935 205.14L159.682 210.28C159.352 211.64 159.772 213.02 160.805 213.97C161.837 214.92 163.25 215.22 164.583 214.77L169.604 213.08C170.085 212.92 170.576 212.84 171.047 212.84ZM179.817 209.09C175.988 209.09 172.15 207.72 169.113 204.94C165.996 202.09 164.182 198.19 164.002 193.97C163.821 189.75 165.295 185.72 168.161 182.61C174.064 176.19 184.106 175.76 190.54 181.65C196.975 187.54 197.406 197.56 191.503 203.98C188.376 207.37 184.096 209.09 179.817 209.09ZM179.827 179.8C176.169 179.8 172.521 181.27 169.855 184.17C164.814 189.65 165.174 198.21 170.677 203.25C176.179 208.28 184.748 207.92 189.799 202.43C194.84 196.95 194.479 188.39 188.977 183.35C186.381 180.97 183.094 179.8 179.827 179.8Z" fill="white"/>
<path d="M180.849 223.64C178.704 223.64 176.77 222.56 175.648 220.71L172.891 216.19C172.36 215.32 171.318 214.94 170.346 215.26L165.325 216.95C163.18 217.67 160.905 217.19 159.241 215.66C157.578 214.13 156.896 211.92 157.437 209.72L158.69 204.58C158.931 203.59 158.46 202.58 157.548 202.13L152.797 199.78C150.773 198.78 149.5 196.83 149.41 194.58C149.309 192.33 150.412 190.28 152.336 189.11L156.866 186.36C157.738 185.83 158.119 184.78 157.798 183.82L156.104 178.81C155.383 176.67 155.864 174.4 157.397 172.74C158.931 171.08 161.146 170.41 163.35 170.94L168.502 172.19C169.494 172.43 170.506 171.96 170.957 171.05L173.312 166.31C174.315 164.29 176.269 163.02 178.524 162.93C180.789 162.83 182.833 163.93 184.006 165.85L186.762 170.37C187.293 171.24 188.346 171.62 189.308 171.3L194.329 169.61C196.473 168.89 198.749 169.37 200.412 170.9C202.076 172.43 202.747 174.64 202.216 176.84L200.963 181.98C200.723 182.97 201.194 183.98 202.106 184.43L206.856 186.78C208.881 187.78 210.154 189.73 210.244 191.98C210.344 194.23 209.242 196.28 207.317 197.45L202.787 200.2C201.916 200.73 201.535 201.78 201.855 202.74L203.549 207.75C204.271 209.89 203.79 212.16 202.256 213.82C200.723 215.48 198.508 216.16 196.303 215.62L191.152 214.37C190.16 214.13 189.147 214.6 188.696 215.51L186.341 220.25C185.339 222.27 183.385 223.54 181.13 223.63C181.039 223.64 180.939 223.64 180.849 223.64ZM171.047 212.84C172.571 212.84 174.024 213.62 174.866 214.99L177.622 219.51C178.354 220.71 179.636 221.38 181.029 221.33C182.433 221.27 183.645 220.48 184.267 219.23L186.622 214.49C187.564 212.6 189.648 211.63 191.693 212.13L196.844 213.38C198.207 213.71 199.59 213.29 200.542 212.26C201.495 211.23 201.795 209.82 201.344 208.49L199.651 203.48C198.979 201.48 199.761 199.33 201.565 198.23L206.095 195.48C207.297 194.75 207.979 193.48 207.919 192.08C207.859 190.68 207.067 189.47 205.814 188.85L201.064 186.5C199.169 185.56 198.197 183.48 198.698 181.44L199.951 176.3C200.282 174.94 199.861 173.56 198.829 172.61C197.796 171.66 196.383 171.36 195.05 171.81L190.029 173.5C188.025 174.17 185.87 173.39 184.768 171.59L182.012 167.07C181.28 165.87 180.017 165.19 178.604 165.25C177.201 165.31 175.988 166.1 175.367 167.35L173.012 172.09C172.07 173.98 169.985 174.95 167.941 174.45L162.789 173.2C161.426 172.87 160.043 173.29 159.091 174.32C158.139 175.35 157.838 176.76 158.289 178.09L159.983 183.1C160.654 185.1 159.873 187.25 158.069 188.35L153.539 191.1C152.336 191.83 151.655 193.1 151.715 194.5C151.775 195.9 152.567 197.11 153.819 197.73L158.57 200.08C160.464 201.02 161.436 203.1 160.935 205.14L159.682 210.28C159.352 211.64 159.772 213.02 160.805 213.97C161.837 214.92 163.25 215.22 164.583 214.77L169.604 213.08C170.085 212.92 170.576 212.84 171.047 212.84ZM179.817 209.09C175.988 209.09 172.15 207.72 169.113 204.94C165.996 202.09 164.182 198.19 164.002 193.97C163.821 189.75 165.295 185.72 168.161 182.61C174.064 176.19 184.106 175.76 190.54 181.65C196.975 187.54 197.406 197.56 191.503 203.98C188.376 207.37 184.096 209.09 179.817 209.09ZM179.827 179.8C176.169 179.8 172.521 181.27 169.855 184.17C164.814 189.65 165.174 198.21 170.677 203.25C176.179 208.28 184.748 207.92 189.799 202.43C194.84 196.95 194.479 188.39 188.977 183.35C186.381 180.97 183.094 179.8 179.827 179.8Z" fill="#ED1C24"/>
<path d="M87.7741 170.29C87.5336 170.29 87.283 170.28 87.0325 170.25C84.7875 169.99 82.9334 168.58 82.0816 166.5L80.0872 161.6C79.6963 160.65 78.7242 160.11 77.7219 160.28L72.5004 161.15C70.2655 161.52 68.1007 160.69 66.6976 158.92C65.2945 157.15 64.9838 154.85 65.8557 152.77L67.9103 147.9C68.3112 146.96 68.0005 145.89 67.1686 145.3L62.8591 142.23C61.0151 140.92 60.073 138.8 60.3436 136.56C60.6042 134.32 62.0173 132.47 64.1019 131.62L69.0127 129.63C69.9548 129.25 70.506 128.27 70.3356 127.27L69.4637 122.05C69.0929 119.82 69.9247 117.66 71.6986 116.26C73.4726 114.86 75.7777 114.55 77.8623 115.42L82.743 117.47C83.6851 117.87 84.7575 117.56 85.3488 116.73L88.4256 112.43C89.7385 110.59 91.8632 109.65 94.1081 109.92C96.3531 110.18 98.2072 111.59 99.059 113.67L101.053 118.57C101.434 119.51 102.416 120.06 103.419 119.89L108.65 119.02C110.885 118.65 113.05 119.48 114.453 121.25C115.856 123.02 116.167 125.32 115.295 127.4L113.24 132.27C112.839 133.21 113.15 134.28 113.982 134.87L118.292 137.94C120.136 139.25 121.078 141.37 120.807 143.61C120.546 145.85 119.133 147.7 117.049 148.55L112.138 150.54C111.196 150.92 110.645 151.9 110.815 152.9L111.687 158.12C112.058 160.35 111.226 162.51 109.452 163.91C107.678 165.31 105.373 165.62 103.288 164.75L98.4076 162.7C97.4655 162.3 96.3932 162.61 95.8019 163.44L92.7251 167.74C91.5525 169.37 89.7385 170.29 87.7741 170.29ZM78.0928 157.94C79.8867 157.94 81.5303 159.01 82.2219 160.73L84.2163 165.63C84.7474 166.93 85.9 167.8 87.2931 167.97C88.6861 168.13 90.0091 167.55 90.8309 166.41L93.9077 162.11C95.1304 160.4 97.3453 159.77 99.2896 160.59L104.17 162.64C105.463 163.18 106.896 162.99 107.999 162.12C109.101 161.25 109.622 159.9 109.392 158.52L108.52 153.3C108.169 151.22 109.292 149.22 111.246 148.42L116.157 146.43C117.46 145.9 118.332 144.75 118.502 143.36C118.662 141.97 118.081 140.65 116.939 139.83L112.629 136.76C110.905 135.54 110.284 133.33 111.106 131.39L113.16 126.52C113.701 125.23 113.511 123.8 112.639 122.7C111.767 121.6 110.414 121.08 109.031 121.31L103.8 122.18C101.715 122.53 99.7105 121.41 98.9087 119.46L96.9143 114.56C96.3831 113.26 95.2306 112.39 93.8375 112.22C92.4444 112.06 91.1215 112.64 90.2997 113.78L87.2229 118.08C86.0002 119.79 83.7853 120.42 81.841 119.6L76.9603 117.55C75.6674 117 74.2342 117.2 73.1318 118.07C72.0294 118.94 71.5082 120.29 71.7387 121.67L72.6107 126.89C72.9614 128.97 71.839 130.97 69.8846 131.77L64.9738 133.76C63.6709 134.29 62.799 135.44 62.6286 136.83C62.4683 138.22 63.0496 139.54 64.1921 140.36L68.5016 143.43C70.2154 144.65 70.8468 146.86 70.025 148.8L67.9704 153.67C67.4292 154.96 67.6196 156.39 68.4916 157.49C69.3635 158.59 70.7165 159.11 72.0995 158.88L77.3211 158.01C77.5917 157.96 77.8422 157.94 78.0928 157.94ZM90.6004 155.89C89.979 155.89 89.3576 155.85 88.7262 155.78C84.527 155.29 80.7687 153.2 78.1429 149.88C72.7209 143.04 73.8935 133.08 80.7486 127.68C84.0659 125.06 88.2051 123.89 92.4144 124.38C96.6136 124.87 100.372 126.96 102.998 130.28C108.42 137.12 107.247 147.08 100.392 152.48C97.5657 154.71 94.1482 155.89 90.6004 155.89ZM90.5402 126.58C87.5136 126.58 84.5871 127.59 82.1718 129.49C76.3188 134.11 75.3267 142.61 79.9468 148.45C82.1918 151.28 85.3989 153.07 88.9868 153.49C92.5747 153.91 96.1125 152.91 98.9488 150.67C101.785 148.43 103.579 145.23 104 141.65C104.421 138.07 103.419 134.54 101.174 131.71C98.9288 128.88 95.7217 127.09 92.1338 126.67C91.6026 126.61 91.0714 126.58 90.5402 126.58Z" fill="#0054A6"/>
<path d="M377.593 300.53C376.912 300.53 376.22 300.35 375.599 299.99C374.356 299.27 373.604 297.98 373.604 296.55V281.43C373.604 279.99 374.346 278.71 375.599 277.99C376.842 277.27 378.335 277.27 379.588 277.99L392.707 285.55C393.949 286.27 394.701 287.56 394.701 288.99C394.701 290.43 393.959 291.71 392.707 292.43L379.588 299.99C378.956 300.35 378.275 300.53 377.593 300.53ZM377.593 280.48C377.373 280.48 377.202 280.56 377.112 280.61C376.972 280.69 376.641 280.94 376.641 281.43V296.55C376.641 297.04 376.972 297.29 377.112 297.37C377.253 297.45 377.633 297.62 378.054 297.37L391.173 289.81C391.604 289.56 391.644 289.16 391.644 288.99C391.644 288.83 391.594 288.42 391.173 288.17L378.054 280.61C377.894 280.52 377.734 280.48 377.593 280.48Z" fill="#7C8EA1"/>
<path d="M376.361 290.08H195.682C186.041 290.08 176.931 284.95 171.298 276.35L127.652 211.17C122.44 203.22 114.042 198.46 105.162 198.44L-21.0464 198.15L-21.0364 195.96L105.172 196.26C114.783 196.28 123.874 201.41 129.496 209.99L173.142 275.17C178.364 283.14 186.792 287.9 195.682 287.9H376.361V290.08Z" fill="#7C8EA1"/>
<path d="M237.985 92.3102H234.939H218.783C208.921 92.3102 199.581 97.0802 193.788 105.07L145.211 168.04C139.027 176.59 129.005 181.72 118.421 181.75L-21.0464 182.05V179.74L118.411 179.44C128.263 179.41 137.574 174.66 143.347 166.68L191.924 103.71C198.127 95.1302 208.17 90.0002 218.783 90.0002H234.949H237.995V92.3102H237.985Z" fill="#7C8EA1"/>
<path d="M238.938 102.7C238.256 102.7 237.565 102.52 236.943 102.16C235.7 101.44 234.949 100.15 234.949 98.7202V83.6002C234.949 82.1602 235.69 80.8802 236.943 80.1602C238.186 79.4402 239.679 79.4402 240.932 80.1602L254.051 87.7202C255.294 88.4402 256.045 89.7302 256.045 91.1602C256.045 92.6002 255.304 93.8802 254.051 94.6002L240.932 102.16C240.301 102.52 239.619 102.7 238.938 102.7ZM238.938 82.6502C238.717 82.6502 238.547 82.7302 238.456 82.7802C238.316 82.8602 237.985 83.1102 237.985 83.6002V98.7202C237.985 99.2102 238.316 99.4602 238.456 99.5402C238.597 99.6202 238.978 99.7902 239.399 99.5402L252.518 91.9802C252.948 91.7302 252.989 91.3302 252.989 91.1602C252.989 90.9902 252.938 90.5902 252.518 90.3402L239.399 82.7802C239.238 82.6802 239.078 82.6502 238.938 82.6502Z" fill="#7C8EA1"/>
<path d="M358 64.5002C359.724 64.5002 361.368 65.2302 362.55 66.5702L366.048 70.5402C366.719 71.3102 367.822 71.5002 368.724 71.0102L373.374 68.4702C375.359 67.3902 377.684 67.4602 379.588 68.6702C381.492 69.8802 382.544 71.9502 382.404 74.2002L382.063 79.4802C382.003 80.5002 382.635 81.4102 383.617 81.7002L388.698 83.1802C390.873 83.8102 392.456 85.5102 392.947 87.7102C393.438 89.9102 392.717 92.1202 391.023 93.6102L387.044 97.1002C386.273 97.7702 386.082 98.8702 386.573 99.7702L389.119 104.41C390.201 106.39 390.131 108.71 388.918 110.61C387.706 112.51 385.631 113.56 383.376 113.42L378.085 113.08C377.052 113.01 376.15 113.65 375.86 114.63L374.376 119.71C373.745 121.88 372.041 123.46 369.836 123.95C367.631 124.44 365.417 123.72 363.923 122.03L360.426 118.06C359.754 117.29 358.652 117.1 357.75 117.59L353.099 120.13C351.115 121.21 348.79 121.14 346.886 119.93C344.981 118.72 343.929 116.65 344.069 114.4L344.41 109.12C344.47 108.1 343.839 107.19 342.857 106.9L337.776 105.42C335.601 104.79 334.017 103.09 333.526 100.89C333.035 98.6902 333.757 96.4802 335.45 94.9902L339.429 91.5002C340.201 90.8302 340.391 89.7302 339.9 88.8302L337.355 84.1902C336.272 82.2102 336.342 79.8902 337.555 77.9902C338.768 76.0902 340.842 75.0302 343.097 75.1802L348.389 75.5202C349.411 75.5902 350.323 74.9502 350.614 73.9702L352.097 68.9002C352.729 66.7302 354.432 65.1502 356.637 64.6602C357.098 64.5502 357.549 64.5002 358 64.5002ZM367.672 73.5902C366.419 73.5902 365.196 73.0602 364.314 72.0702L360.816 68.1002C359.884 67.0502 358.511 66.6002 357.138 66.9002C355.765 67.2002 354.713 68.1902 354.312 69.5402L352.829 74.6102C352.237 76.6302 350.353 77.9502 348.249 77.8202L342.957 77.4802C341.554 77.3902 340.261 78.0402 339.509 79.2302C338.758 80.4102 338.708 81.8602 339.379 83.0902L341.925 87.7302C342.937 89.5802 342.536 91.8402 340.953 93.2302L336.974 96.7202C335.922 97.6502 335.47 99.0202 335.771 100.39C336.072 101.76 337.064 102.81 338.417 103.21L343.498 104.69C345.523 105.28 346.846 107.16 346.715 109.26L346.375 114.54C346.284 115.94 346.936 117.23 348.128 117.98C349.311 118.73 350.754 118.78 351.997 118.11L356.647 115.57C358.501 114.56 360.766 114.96 362.159 116.54L365.657 120.51C366.589 121.56 367.962 122.01 369.335 121.71C370.708 121.41 371.761 120.42 372.161 119.07L373.645 113.99C374.236 111.97 376.12 110.65 378.225 110.78L383.517 111.12C384.92 111.21 386.212 110.56 386.964 109.37C387.716 108.19 387.766 106.75 387.094 105.51L384.549 100.87C383.537 99.0202 383.938 96.7602 385.521 95.3702L389.5 91.8802C390.552 90.9502 391.003 89.5802 390.702 88.2102C390.402 86.8402 389.41 85.7902 388.057 85.3902L382.975 83.9102C380.951 83.3202 379.628 81.4402 379.758 79.3402L380.099 74.0602C380.189 72.6602 379.538 71.3702 378.345 70.6202C377.163 69.8702 375.709 69.8202 374.477 70.4902L369.826 73.0302C369.145 73.4002 368.403 73.5902 367.672 73.5902ZM363.272 78.4902C366.248 78.4902 369.175 79.3302 371.741 80.9702C379.107 85.6502 381.292 95.4402 376.601 102.79C371.911 110.14 362.099 112.32 354.733 107.64C347.367 102.96 345.182 93.1702 349.872 85.8202C352.147 82.2602 355.665 79.7902 359.804 78.8802C360.957 78.6102 362.119 78.4902 363.272 78.4902ZM363.222 107.8C367.702 107.8 372.081 105.59 374.657 101.55C378.666 95.2702 376.802 86.9102 370.508 82.9102C364.214 78.9102 355.835 80.7702 351.827 87.0502C347.818 93.3302 349.682 101.69 355.976 105.69C358.231 107.12 360.736 107.8 363.222 107.8Z" fill="#0054A6"/>
<path d="M271.149 111.36C273.293 111.36 275.228 112.44 276.35 114.29L279.106 118.81C279.637 119.68 280.68 120.06 281.652 119.74L286.673 118.05C288.818 117.33 291.093 117.81 292.756 119.34C294.42 120.87 295.102 123.08 294.56 125.28L293.308 130.42C293.067 131.41 293.538 132.42 294.45 132.87L299.201 135.22C301.225 136.22 302.498 138.17 302.588 140.42C302.678 142.67 301.586 144.72 299.662 145.89L295.132 148.64C294.26 149.17 293.879 150.22 294.2 151.18L295.893 156.19C296.615 158.33 296.134 160.6 294.601 162.26C293.067 163.92 290.852 164.59 288.647 164.06L283.496 162.81C282.504 162.57 281.492 163.04 281.041 163.95L278.685 168.69C277.683 170.71 275.729 171.98 273.474 172.07C271.209 172.17 269.164 171.07 267.992 169.15L265.236 164.63C264.705 163.76 263.652 163.38 262.69 163.7L257.669 165.39C255.524 166.11 253.249 165.63 251.586 164.1C249.922 162.57 249.25 160.36 249.782 158.16L251.034 153.02C251.275 152.03 250.804 151.02 249.892 150.57L245.141 148.22C243.117 147.22 241.844 145.27 241.754 143.02C241.654 140.77 242.756 138.72 244.68 137.55L249.21 134.8C250.082 134.27 250.463 133.22 250.142 132.26L248.449 127.25C247.727 125.11 248.208 122.84 249.741 121.18C251.275 119.52 253.49 118.84 255.695 119.38L260.846 120.63C261.838 120.87 262.85 120.4 263.301 119.49L265.657 114.75C266.659 112.73 268.613 111.46 270.868 111.37C270.958 111.36 271.059 111.36 271.149 111.36ZM280.95 122.16C279.427 122.16 277.974 121.38 277.132 120.01L274.376 115.49C273.644 114.29 272.361 113.62 270.968 113.67C269.565 113.73 268.353 114.52 267.731 115.77L265.376 120.51C264.434 122.4 262.349 123.37 260.305 122.87L255.153 121.62C253.79 121.29 252.407 121.71 251.455 122.74C250.503 123.77 250.203 125.18 250.654 126.51L252.347 131.52C253.019 133.52 252.237 135.67 250.433 136.77L245.903 139.52C244.7 140.25 244.019 141.52 244.079 142.92C244.139 144.32 244.931 145.53 246.184 146.15L250.934 148.5C252.828 149.44 253.8 151.52 253.299 153.56L252.047 158.7C251.716 160.06 252.137 161.44 253.169 162.39C254.201 163.34 255.614 163.64 256.947 163.19L261.968 161.5C263.973 160.83 266.128 161.61 267.23 163.41L269.986 167.93C270.718 169.13 271.981 169.81 273.394 169.75C274.797 169.69 276.009 168.9 276.631 167.65L278.986 162.91C279.928 161.02 282.013 160.05 284.057 160.55L289.209 161.8C290.572 162.13 291.955 161.71 292.907 160.68C293.859 159.65 294.16 158.24 293.709 156.91L292.015 151.9C291.343 149.9 292.125 147.75 293.929 146.65L298.459 143.9C299.662 143.17 300.343 141.9 300.283 140.5C300.223 139.1 299.431 137.89 298.178 137.27L293.428 134.92C291.534 133.98 290.562 131.9 291.063 129.86L292.315 124.72C292.646 123.36 292.225 121.98 291.193 121.03C290.161 120.08 288.748 119.78 287.415 120.23L282.394 121.92C281.912 122.08 281.421 122.16 280.95 122.16ZM272.181 125.91C276.009 125.91 279.848 127.28 282.885 130.06C286.002 132.91 287.816 136.81 287.996 141.03C288.176 145.25 286.703 149.28 283.837 152.39C277.934 158.81 267.892 159.24 261.457 153.35C255.023 147.46 254.592 137.44 260.495 131.02C263.622 127.63 267.902 125.91 272.181 125.91ZM272.171 155.2C275.829 155.2 279.477 153.73 282.143 150.83C287.184 145.35 286.823 136.79 281.321 131.75C275.819 126.72 267.25 127.08 262.199 132.57C257.158 138.05 257.519 146.61 263.021 151.65C265.617 154.03 268.904 155.2 272.171 155.2Z" fill="white"/>
<path d="M271.149 111.36C273.293 111.36 275.228 112.44 276.35 114.29L279.106 118.81C279.637 119.68 280.68 120.06 281.652 119.74L286.673 118.05C288.818 117.33 291.093 117.81 292.756 119.34C294.42 120.87 295.102 123.08 294.56 125.28L293.308 130.42C293.067 131.41 293.538 132.42 294.45 132.87L299.201 135.22C301.225 136.22 302.498 138.17 302.588 140.42C302.678 142.67 301.586 144.72 299.662 145.89L295.132 148.64C294.26 149.17 293.879 150.22 294.2 151.18L295.893 156.19C296.615 158.33 296.134 160.6 294.601 162.26C293.067 163.92 290.852 164.59 288.647 164.06L283.496 162.81C282.504 162.57 281.492 163.04 281.041 163.95L278.685 168.69C277.683 170.71 275.729 171.98 273.474 172.07C271.209 172.17 269.164 171.07 267.992 169.15L265.236 164.63C264.705 163.76 263.652 163.38 262.69 163.7L257.669 165.39C255.524 166.11 253.249 165.63 251.586 164.1C249.922 162.57 249.25 160.36 249.782 158.16L251.034 153.02C251.275 152.03 250.804 151.02 249.892 150.57L245.141 148.22C243.117 147.22 241.844 145.27 241.754 143.02C241.654 140.77 242.756 138.72 244.68 137.55L249.21 134.8C250.082 134.27 250.463 133.22 250.142 132.26L248.449 127.25C247.727 125.11 248.208 122.84 249.741 121.18C251.275 119.52 253.49 118.84 255.695 119.38L260.846 120.63C261.838 120.87 262.85 120.4 263.301 119.49L265.657 114.75C266.659 112.73 268.613 111.46 270.868 111.37C270.958 111.36 271.059 111.36 271.149 111.36ZM280.95 122.16C279.427 122.16 277.974 121.38 277.132 120.01L274.376 115.49C273.644 114.29 272.361 113.62 270.968 113.67C269.565 113.73 268.353 114.52 267.731 115.77L265.376 120.51C264.434 122.4 262.349 123.37 260.305 122.87L255.153 121.62C253.79 121.29 252.407 121.71 251.455 122.74C250.503 123.77 250.203 125.18 250.654 126.51L252.347 131.52C253.019 133.52 252.237 135.67 250.433 136.77L245.903 139.52C244.7 140.25 244.019 141.52 244.079 142.92C244.139 144.32 244.931 145.53 246.184 146.15L250.934 148.5C252.828 149.44 253.8 151.52 253.299 153.56L252.047 158.7C251.716 160.06 252.137 161.44 253.169 162.39C254.201 163.34 255.614 163.64 256.947 163.19L261.968 161.5C263.973 160.83 266.128 161.61 267.23 163.41L269.986 167.93C270.718 169.13 271.981 169.81 273.394 169.75C274.797 169.69 276.009 168.9 276.631 167.65L278.986 162.91C279.928 161.02 282.013 160.05 284.057 160.55L289.209 161.8C290.572 162.13 291.955 161.71 292.907 160.68C293.859 159.65 294.16 158.24 293.709 156.91L292.015 151.9C291.343 149.9 292.125 147.75 293.929 146.65L298.459 143.9C299.662 143.17 300.343 141.9 300.283 140.5C300.223 139.1 299.431 137.89 298.178 137.27L293.428 134.92C291.534 133.98 290.562 131.9 291.063 129.86L292.315 124.72C292.646 123.36 292.225 121.98 291.193 121.03C290.161 120.08 288.748 119.78 287.415 120.23L282.394 121.92C281.912 122.08 281.421 122.16 280.95 122.16ZM272.181 125.91C276.009 125.91 279.848 127.28 282.885 130.06C286.002 132.91 287.816 136.81 287.996 141.03C288.176 145.25 286.703 149.28 283.837 152.39C277.934 158.81 267.892 159.24 261.457 153.35C255.023 147.46 254.592 137.44 260.495 131.02C263.622 127.63 267.902 125.91 272.181 125.91ZM272.171 155.2C275.829 155.2 279.477 153.73 282.143 150.83C287.184 145.35 286.823 136.79 281.321 131.75C275.819 126.72 267.25 127.08 262.199 132.57C257.158 138.05 257.519 146.61 263.021 151.65C265.617 154.03 268.904 155.2 272.171 155.2Z" fill="#ED1C24"/>
<path d="M364.224 164.71C364.465 164.71 364.715 164.72 364.966 164.75C367.211 165.01 369.065 166.42 369.917 168.5L371.911 173.4C372.302 174.35 373.274 174.89 374.276 174.72L379.498 173.85C381.733 173.48 383.898 174.31 385.301 176.08C386.704 177.85 387.014 180.15 386.143 182.23L384.088 187.1C383.687 188.04 383.998 189.11 384.83 189.7L389.139 192.77C390.983 194.08 391.925 196.2 391.655 198.44C391.394 200.68 389.981 202.53 387.896 203.38L382.986 205.37C382.044 205.75 381.492 206.73 381.663 207.73L382.535 212.95C382.905 215.18 382.074 217.34 380.3 218.74C378.526 220.14 376.221 220.45 374.136 219.58L369.255 217.53C368.313 217.13 367.241 217.44 366.65 218.27L363.573 222.57C362.26 224.41 360.135 225.35 357.89 225.08C355.645 224.82 353.791 223.41 352.939 221.33L350.945 216.43C350.564 215.49 349.582 214.94 348.58 215.11L343.348 215.98C341.113 216.35 338.948 215.52 337.545 213.75C336.142 211.98 335.831 209.68 336.703 207.6L338.758 202.73C339.159 201.79 338.848 200.72 338.016 200.13L333.707 197.06C331.863 195.75 330.921 193.63 331.191 191.39C331.452 189.15 332.865 187.3 334.95 186.45L339.86 184.46C340.802 184.08 341.354 183.1 341.183 182.1L340.311 176.88C339.941 174.65 340.772 172.49 342.546 171.09C344.32 169.69 346.625 169.38 348.71 170.25L353.591 172.3C354.533 172.7 355.605 172.39 356.196 171.56L359.273 167.26C360.446 165.63 362.26 164.71 364.224 164.71ZM373.906 177.06C372.112 177.06 370.468 175.99 369.776 174.27L367.782 169.37C367.251 168.07 366.098 167.2 364.705 167.03C363.312 166.87 361.989 167.45 361.167 168.59L358.091 172.89C356.868 174.6 354.653 175.23 352.709 174.41L347.828 172.36C346.535 171.82 345.102 172.01 344 172.88C342.897 173.75 342.376 175.1 342.606 176.48L343.478 181.7C343.829 183.78 342.707 185.78 340.752 186.58L335.842 188.57C334.539 189.1 333.667 190.25 333.496 191.64C333.336 193.03 333.917 194.35 335.06 195.17L339.369 198.24C341.093 199.46 341.714 201.67 340.893 203.61L338.838 208.48C338.297 209.77 338.487 211.2 339.359 212.3C340.231 213.4 341.584 213.92 342.967 213.69L348.199 212.82C350.283 212.47 352.288 213.59 353.09 215.54L355.084 220.44C355.615 221.74 356.768 222.61 358.161 222.78C359.554 222.94 360.877 222.36 361.699 221.22L364.775 216.92C365.998 215.21 368.213 214.58 370.157 215.4L375.038 217.45C376.331 218 377.764 217.8 378.866 216.93C379.969 216.06 380.49 214.71 380.26 213.33L379.388 208.11C379.037 206.03 380.159 204.03 382.114 203.23L387.025 201.24C388.327 200.71 389.199 199.56 389.37 198.17C389.53 196.78 388.949 195.46 387.806 194.64L383.497 191.57C381.783 190.35 381.152 188.14 381.973 186.2L384.028 181.33C384.569 180.04 384.379 178.61 383.507 177.51C382.635 176.41 381.282 175.89 379.899 176.12L374.677 176.99C374.407 177.04 374.156 177.06 373.906 177.06ZM361.398 179.11C362.019 179.11 362.641 179.15 363.272 179.22C367.471 179.71 371.23 181.8 373.855 185.12C379.277 191.96 378.105 201.92 371.25 207.32C367.932 209.94 363.793 211.11 359.584 210.62C355.385 210.13 351.626 208.04 349.001 204.72C343.579 197.88 344.751 187.92 351.606 182.52C354.433 180.29 357.85 179.11 361.398 179.11ZM361.458 208.42C364.485 208.42 367.411 207.41 369.827 205.51C375.679 200.89 376.672 192.39 372.051 186.55C369.806 183.72 366.599 181.93 363.011 181.51C359.424 181.09 355.886 182.09 353.049 184.33C350.213 186.57 348.419 189.77 347.998 193.35C347.577 196.93 348.58 200.46 350.825 203.29C353.07 206.12 356.277 207.91 359.865 208.33C360.396 208.39 360.927 208.42 361.458 208.42Z" fill="#0054A6"/>
<path d="M74.4042 34.4702C75.0857 34.4702 75.7772 34.6502 76.3986 35.0102C77.6413 35.7302 78.393 37.0202 78.393 38.4502V53.5702C78.393 55.0102 77.6513 56.2902 76.3986 57.0102C75.1558 57.7302 73.6625 57.7302 72.4098 57.0102L59.2908 49.4502C58.048 48.7302 57.2964 47.4402 57.2964 46.0102C57.2964 44.5702 58.038 43.2902 59.2908 42.5702L72.4098 35.0102C73.0411 34.6502 73.7226 34.4702 74.4042 34.4702ZM74.4042 54.5202C74.6246 54.5202 74.795 54.4402 74.8852 54.3902C75.0255 54.3102 75.3563 54.0602 75.3563 53.5702V38.4502C75.3563 37.9602 75.0255 37.7102 74.8852 37.6302C74.7449 37.5502 74.3641 37.3802 73.9431 37.6302L60.8242 45.1902C60.3932 45.4402 60.3531 45.8402 60.3531 46.0102C60.3531 46.1702 60.4032 46.5802 60.8242 46.8302L73.9431 54.3902C74.1035 54.4802 74.2638 54.5202 74.4042 54.5202Z" fill="#7C8EA1"/>
<path d="M75.6372 44.9202H256.316C265.957 44.9202 275.067 50.0502 280.7 58.6502L324.346 123.83C329.558 131.78 337.956 136.54 346.836 136.56L473.044 136.86L473.034 139.05L346.826 138.75C337.215 138.73 328.125 133.6 322.502 125.02L278.856 59.8402C273.634 51.8702 265.206 47.1102 256.316 47.1102H75.6372V44.9202Z" fill="#7C8EA1"/>
<path d="M214.013 242.69H217.059H233.225C243.087 242.69 252.427 237.92 258.22 229.93L306.798 166.96C312.981 158.41 323.003 153.28 333.587 153.25L473.055 152.95V155.26L333.597 155.56C323.745 155.59 314.434 160.34 308.662 168.32L260.084 231.29C253.881 239.87 243.839 245 233.225 245H217.059H214.013V242.69Z" fill="#7C8EA1"/>
<path d="M213.06 232.3C213.742 232.3 214.433 232.48 215.055 232.84C216.298 233.56 217.049 234.85 217.049 236.28V251.4C217.049 252.84 216.308 254.12 215.055 254.84C213.812 255.56 212.319 255.56 211.066 254.84L197.947 247.28C196.704 246.56 195.953 245.27 195.953 243.84C195.953 242.41 196.694 241.12 197.947 240.4L211.066 232.84C211.697 232.48 212.379 232.3 213.06 232.3ZM213.06 252.35C213.281 252.35 213.451 252.27 213.541 252.22C213.682 252.14 214.012 251.89 214.012 251.4V236.28C214.012 235.79 213.682 235.54 213.541 235.46C213.401 235.38 213.02 235.21 212.599 235.46L199.48 243.02C199.049 243.27 199.009 243.67 199.009 243.84C199.009 244 199.059 244.41 199.48 244.66L212.599 252.22C212.76 252.32 212.92 252.35 213.06 252.35Z" fill="#7C8EA1"/>
</g>
</svg>
