<svg width="497" height="376" viewBox="0 0 497 376" fill="none" xmlns="http://www.w3.org/2000/svg">
<path d="M281 267.1H217.6V341.6H281V267.1Z" fill="#002548"/>
<path d="M402.4 284.6H96.0999C90.7999 284.6 86.3999 280.3 86.3999 274.9V66.5C86.3999 61.2 90.6999 56.8 96.0999 56.8H402.4C407.7 56.8 412.1 61.1 412.1 66.5V275C412.1 280.3 407.8 284.6 402.4 284.6Z" fill="#002548"/>
<path d="M403 252.3H95.5999C93.2999 252.3 91.3999 250.4 91.3999 248.1V68.5C91.3999 64.3 94.7999 61 98.8999 61H399.6C403.8 61 407.1 64.4 407.1 68.5V248.1C407.2 250.4 405.3 252.3 403 252.3Z" fill="#D2D9DC"/>
<path d="M318.9 341.6H179.7C178.3 341.6 177.3 340.2 177.7 338.9L179.1 334.3C179.7 332.3 181.5 331 183.6 331H315C317.1 331 318.9 332.3 319.5 334.3L320.9 338.9C321.3 340.2 320.3 341.6 318.9 341.6Z" fill="#002548"/>
<path opacity="0.19" d="M281 284.6H217.6V295.1H281V284.6Z" fill="#F9FAFB"/>
<path d="M328.6 272.8C330.92 272.8 332.8 270.92 332.8 268.6C332.8 266.281 330.92 264.4 328.6 264.4C326.28 264.4 324.4 266.281 324.4 268.6C324.4 270.92 326.28 272.8 328.6 272.8Z" fill="#0054A6"/>
<path d="M348.6 272.8C350.92 272.8 352.8 270.92 352.8 268.6C352.8 266.281 350.92 264.4 348.6 264.4C346.28 264.4 344.4 266.281 344.4 268.6C344.4 270.92 346.28 272.8 348.6 272.8Z" fill="#0054A6"/>
<path d="M368.6 272.8C370.92 272.8 372.8 270.92 372.8 268.6C372.8 266.281 370.92 264.4 368.6 264.4C366.28 264.4 364.4 266.281 364.4 268.6C364.4 270.92 366.28 272.8 368.6 272.8Z" fill="#0054A6"/>
<path d="M97.9001 289.1C99.4465 289.1 100.7 287.846 100.7 286.3C100.7 284.754 99.4465 283.5 97.9001 283.5C96.3537 283.5 95.1001 284.754 95.1001 286.3C95.1001 287.846 96.3537 289.1 97.9001 289.1Z" fill="#002548"/>
<path d="M343.7 316H341.2V315.1H343.7V315.5H344.1V315.9L343.7 316ZM338.6 316H336V315.1H338.6V316ZM333.4 316H330.8V315.1H333.4V316ZM328.3 316H325.7V315.1H328.3V316ZM323.1 316H320.5V315.1H323.1V316ZM317.9 316H315.3V315.1H317.9V316ZM312.8 316H310.2V315.1H312.8V316ZM307.6 316H305V315.1H307.6V316ZM302.4 316H299.8V315.1H302.4V316ZM297.3 316H294.7V315.1H297.3V316ZM292.1 316H289.5V315.1H292.1V316ZM286.9 316H284.3V315.1H286.9V316ZM281.8 316H279.2V315.1H281.8V316ZM276.6 316H274V315.1H276.6V316ZM271.4 316H268.8V315.1H271.4V316ZM266.3 316H263.7V315.1H266.3V316ZM261.1 316H258.5V315.1H261.1V316ZM255.9 316H253.3V315.1H255.9V316ZM250.8 316H248.2V315.1H250.8V316ZM245.6 316H243V315.1H245.6V316ZM240.4 316H237.8V315.1H240.4V316ZM235.3 316H232.7V315.1H235.3V316ZM230.1 316H227.5V315.1H230.1V316ZM224.9 316H222.3V315.1H224.9V316ZM219.8 316H217.2V315.1H219.8V316ZM214.6 316H212V315.1H214.6V316ZM209.4 316H206.8V315.1H209.4V316ZM204.3 316H201.7V315.1H204.3V316ZM199.1 316H196.5V315.1H199.1V316ZM193.9 316H191.3V315.1H193.9V316ZM188.8 316H186.2V315.1H188.8V316ZM183.6 316H181V315.1H183.6V316ZM178.4 316H175.8V315.1H178.4V316ZM173.3 316H170.7V315.1H173.3V316ZM168.1 316H165.5V315.1H168.1V316ZM162.9 316H160.3V315.1H162.9V316ZM157.8 316H155.2V315.1H157.8V316ZM152.6 316H150V315.1H152.6V316ZM147.4 316H144.8V315.1H147.4V316ZM142.3 316H139.7V315.1H142.3V316ZM137.1 316H134.5V315.1H137.1V316ZM131.9 316H129.3V315.1H131.9V316ZM126.8 316H124.2V315.1H126.8V316ZM121.6 316H119V315.1H121.6V316ZM116.4 316H113.8V315.1H116.4V316ZM111.3 316H108.7V315.1H111.3V316ZM106.1 316H103.5V315.1H106.1V316ZM100.9 316H98.3003V315.1H100.9V316ZM98.7003 313H97.8003V310.4H98.7003V313ZM344.1 312.9H343.2V310.3H344.1V312.9ZM98.7003 307.8H97.8003V305.2H98.7003V307.8ZM344.1 307.7H343.2V305.1H344.1V307.7ZM98.7003 302.7H97.8003V300.1H98.7003V302.7ZM344.1 302.6H343.2V300H344.1V302.6ZM98.7003 297.5H97.8003V294.9H98.7003V297.5ZM344.1 297.4H343.2V294.8H344.1V297.4ZM98.7003 292.3H97.8003V289.7H98.7003V292.3ZM344.1 292.2H343.2V289.6H344.1V292.2ZM98.7003 287.2H97.8003V284.6H98.7003V287.2ZM344.1 287.1H343.2V284.5H344.1V287.1ZM344.1 281.9H343.2V279.3H344.1V281.9ZM344.1 276.7H343.2V274.1H344.1V276.7Z" fill="#002548"/>
<path d="M343.7 282.6C345.247 282.6 346.5 281.346 346.5 279.8C346.5 278.254 345.247 277 343.7 277C342.154 277 340.9 278.254 340.9 279.8C340.9 281.346 342.154 282.6 343.7 282.6Z" fill="#002548"/>
<path d="M401.6 78.5H97V235.6H401.6V78.5Z" fill="#F9FAFB"/>
<path d="M401.6 78.5H97V92.5H401.6V78.5Z" fill="#0054A6"/>
<path d="M164.1 97.7H103.7V229.5H164.1V97.7Z" fill="#D2D9DC"/>
<path opacity="0.19" d="M160.5 101.8H107.2V105.8H160.5V101.8Z" fill="#2D2F31"/>
<path opacity="0.19" d="M160.5 109.3H107.2V113.3H160.5V109.3Z" fill="#2D2F31"/>
<path d="M160.5 169.2H107.2V173.2H160.5V169.2Z" fill="#839299"/>
<path opacity="0.19" d="M160.5 180.3H107.2V182.6H160.5V180.3Z" fill="#2D2F31"/>
<path opacity="0.19" d="M160.5 185.5H107.2V187.8H160.5V185.5Z" fill="#2D2F31"/>
<path opacity="0.19" d="M160.5 190.6H107.2V192.9H160.5V190.6Z" fill="#2D2F31"/>
<path opacity="0.19" d="M160.5 195.8H107.2V198.1H160.5V195.8Z" fill="#2D2F31"/>
<path d="M153.7 121.9H114V162.1H153.7V121.9Z" fill="#0054A6"/>
<path d="M118 203.6V222.1L134 212.8L118 203.6Z" fill="#ED1C24"/>
<path d="M133.7 203.6V222.1L149.7 212.8L133.7 203.6Z" fill="#ED1C24"/>
<path d="M393.4 98.7H170.6V228.5H393.4V98.7Z" fill="#D2D9DC"/>
<path d="M211.3 121.9C211.3 130.5 204.3 137.5 195.7 137.5C187.1 137.5 180.1 130.5 180.1 121.9C180.1 113.3 187.1 106.3 195.7 106.3C204.3 106.3 211.3 113.3 211.3 121.9Z" fill="#0054A6"/>
<path d="M252 121.9C252 130.5 245 137.5 236.4 137.5C227.8 137.5 220.8 130.5 220.8 121.9C220.8 113.3 227.8 106.3 236.4 106.3C245.1 106.3 252 113.3 252 121.9Z" fill="#0054A6"/>
<path d="M292.8 121.9C292.8 130.5 285.8 137.5 277.2 137.5C268.6 137.5 261.6 130.5 261.6 121.9C261.6 113.3 268.6 106.3 277.2 106.3C285.8 106.3 292.8 113.3 292.8 121.9Z" fill="#0054A6"/>
<path d="M325.5 112H303.8V115H325.5V112Z" fill="#FFDD33"/>
<path d="M355.9 112H334.2V115H355.9V112Z" fill="#FFDD33"/>
<path d="M386.3 112H364.6V115H386.3V112Z" fill="#FFDD33"/>
<path d="M280.8 148.3H180.1V152.3H280.8V148.3Z" fill="#839299"/>
<path d="M269.8 157.2H180.1V161.2H269.8V157.2Z" fill="#839299"/>
<path d="M317.6 166H180.1V170H317.6V166Z" fill="#839299"/>
<path opacity="0.19" d="M220.9 176H180.1V181H220.9V176Z" fill="#2D2F31"/>
<path d="M292.9 187.1H180.1V192.3H292.9V187.1Z" fill="#839299"/>
<path d="M280.1 195.9H180.1V201.1H280.1V195.9Z" fill="#839299"/>
<path d="M238.9 204.8H180.1V210H238.9V204.8Z" fill="#839299"/>
<path opacity="0.19" d="M271.4 216.6H180.1V222.6H271.4V216.6Z" fill="#2D2F31"/>
<path opacity="0.19" d="M382.4 142H356.2V218.9H382.4V142Z" fill="#2D2F31"/>
<path d="M350.5 119.7H300V148H350.5V119.7Z" fill="#2E6ADB"/>
<path d="M316.2 140.9L306.7 133L316.7 124.8L318.8 126.9L311.1 132.9L318.1 138.6L316.2 140.9Z" fill="white"/>
<path d="M334.3 141.5L332.5 139.2L339.5 133.5L331.8 127.6L333.8 125.4L343.9 133.7L334.3 141.5Z" fill="white"/>
<path d="M328.857 121.999L317.603 144.433L320.195 145.733L331.449 123.299L328.857 121.999Z" fill="white"/>
<path d="M342.4 165.7H341.5V163.1H342.4V165.7ZM342.4 160.6H341.5V158H342.4V160.6ZM342.4 155.4H341.5V152.8H342.4V155.4ZM342.4 150.2H341.5V147.6H342.4V150.2ZM342.4 145.1H341.5V142.5H342.4V145.1ZM342.4 139.9H341.5V137.3H342.4V139.9ZM342.4 134.7H341.5V132.1H342.4V134.7ZM342.4 129.6H341.5V127H342.4V129.6ZM342.4 124.4H341.5V121.8H342.4V124.4ZM342.4 119.2H341.5V116.6H342.4V119.2ZM342.4 114.1H341.5V111.5H342.4V114.1ZM342.4 108.9H341.5V106.3H342.4V108.9ZM342.4 103.7H341.5V101.1H342.4V103.7ZM342.4 98.5999H341.5V96H342.4V98.5999ZM342.4 93.4H341.5V90.8H342.4V93.4ZM342.4 88.1999H341.5V85.5999H342.4V88.1999ZM342.4 83.0999H341.5V80.5H342.4V83.0999ZM342.4 77.9H341.5V75.3H342.4V77.9ZM342.4 72.6999H341.5V70.0999H342.4V72.6999ZM342.4 67.5999H341.5V65H342.4V67.5999ZM342.4 62.4H341.5V59.7999H342.4V62.4ZM264 62.4H263.1V59.7999H264V62.4ZM342.4 57.2H341.5V54.5999H342.4V57.2ZM264 57.2H263.1V54.5999H264V57.2ZM342.4 52.0999H341.5V49.5H342.4V52.0999ZM264 52.0999H263.1V49.5H264V52.0999ZM342.4 46.9H341.5V44.2999H342.4V46.9ZM264 46.9H263.1V44.2999H264V46.9ZM342.4 41.7H341.5V39.0999H342.4V41.7ZM264 41.7H263.1V39.0999H264V41.7ZM342.4 36.5999H341.5V36.2H340.2V35.2999H342.4V36.5999ZM264 36.5999H263.1V35.2999H265.3V36.2H264V36.5999ZM337.7 36.0999H335.1V35.2H337.7V36.0999ZM332.5 36.0999H329.9V35.2H332.5V36.0999ZM327.3 36.0999H324.7V35.2H327.3V36.0999ZM322.2 36.0999H319.6V35.2H322.2V36.0999ZM317 36.0999H314.4V35.2H317V36.0999ZM311.8 36.0999H309.2V35.2H311.8V36.0999ZM306.7 36.0999H304.1V35.2H306.7V36.0999ZM301.5 36.0999H298.9V35.2H301.5V36.0999ZM296.3 36.0999H293.7V35.2H296.3V36.0999ZM291.2 36.0999H288.6V35.2H291.2V36.0999ZM286 36.0999H283.4V35.2H286V36.0999ZM280.8 36.0999H278.2V35.2H280.8V36.0999ZM275.7 36.0999H273.1V35.2H275.7V36.0999ZM270.5 36.0999H267.9V35.2H270.5V36.0999Z" fill="#002548"/>
<path d="M124.6 163.1H123.7V160.5H124.6V163.1ZM124.6 158H123.7V155.4H124.6V158ZM124.6 152.8H123.7V150.2H124.6V152.8ZM124.6 147.6H123.7V145H124.6V147.6ZM124.6 142.5H123.7V139.9H124.6V142.5ZM124.6 137.3H123.7V134.7H124.6V137.3ZM124.6 132.1H123.7V129.5H124.6V132.1ZM124.6 127H123.7V124.4H124.6V127ZM124.6 121.8H123.7V119.2H124.6V121.8ZM124.6 116.6H123.7V114H124.6V116.6ZM124.6 111.5H123.7V108.9H124.6V111.5ZM124.6 106.3H123.7V103.7H124.6V106.3ZM124.6 101.1H123.7V98.5001H124.6V101.1ZM124.6 96.0001H123.7V93.4001H124.6V96.0001ZM124.6 90.8001H123.7V88.2001H124.6V90.8001ZM124.6 85.6001H123.7V83.0001H124.6V85.6001ZM172.8 84.8001H171.9V82.2001H172.8V84.8001ZM124.6 80.5001H123.7V77.9001H124.6V80.5001ZM172.8 79.6001H171.9V77.0001H172.8V79.6001ZM124.6 75.3001H123.7V72.7001H124.6V75.3001ZM172.8 74.4001H171.9V71.8001H172.8V74.4001ZM124.6 70.1001H123.7V67.5001H124.6V70.1001ZM172.8 69.3001H171.9V66.7001H172.8V69.3001ZM124.6 65.0001H123.7V63.7001H125.9V64.6001H124.6V65.0001ZM172.3 64.5001H169.7V63.6001H172.3V64.5001ZM167.2 64.5001H164.6V63.6001H167.2V64.5001ZM162 64.5001H159.4V63.6001H162V64.5001ZM156.8 64.5001H154.2V63.6001H156.8V64.5001ZM151.7 64.5001H149.1V63.6001H151.7V64.5001ZM146.5 64.5001H143.9V63.6001H146.5V64.5001ZM141.3 64.5001H138.7V63.6001H141.3V64.5001ZM136.2 64.5001H133.6V63.6001H136.2V64.5001ZM131 64.5001H128.4V63.6001H131V64.5001Z" fill="#002548"/>
<path d="M172.6 84.8002C174.146 84.8002 175.4 83.5466 175.4 82.0002C175.4 80.4538 174.146 79.2002 172.6 79.2002C171.053 79.2002 169.8 80.4538 169.8 82.0002C169.8 83.5466 171.053 84.8002 172.6 84.8002Z" fill="#002548"/>
<path d="M123.7 161.2C125.246 161.2 126.5 159.946 126.5 158.4C126.5 156.854 125.246 155.6 123.7 155.6C122.154 155.6 120.9 156.854 120.9 158.4C120.9 159.946 122.154 161.2 123.7 161.2Z" fill="#002548"/>
<path d="M439.3 300H306.3C302.1 300 298.6 296.6 298.6 292.3V163.1C298.6 158.9 302 155.4 306.3 155.4H439.3C443.5 155.4 447 158.8 447 163.1V292.4C447 296.6 443.6 300 439.3 300Z" fill="#F9FAFB"/>
<path d="M447 173.4H298.6V162.8C298.6 158.7 301.9 155.5 305.9 155.5H439.5C443.6 155.5 446.8 158.8 446.8 162.8V173.4H447Z" fill="#002548"/>
<path d="M312 164.4C312 165.9 310.8 167.2 309.2 167.2C307.7 167.2 306.4 166 306.4 164.4C306.4 162.9 307.6 161.6 309.2 161.6C310.7 161.6 312 162.8 312 164.4Z" fill="#ED1C24"/>
<path d="M324.8 164.4C324.8 165.9 323.6 167.2 322 167.2C320.5 167.2 319.2 166 319.2 164.4C319.2 162.9 320.4 161.6 322 161.6C323.5 161.6 324.8 162.8 324.8 164.4Z" fill="#FFDD33"/>
<path d="M337.6 164.4C337.6 165.9 336.4 167.2 334.8 167.2C333.3 167.2 332 166 332 164.4C332 162.9 333.2 161.6 334.8 161.6C336.4 161.6 337.6 162.8 337.6 164.4Z" fill="#54CC5A"/>
<path d="M435.8 189.8H360.5V195H435.8V189.8Z" fill="#D2D9DC"/>
<path d="M435.8 200.7H360.5V205.9H435.8V200.7Z" fill="#D2D9DC"/>
<path d="M409.4 214.5H360.5V219.7H409.4V214.5Z" fill="#D2D9DC"/>
<path d="M434.7 229.7H360.5V234.9H434.7V229.7Z" fill="#D2D9DC"/>
<path d="M434.7 242.1H360.5V247.3H434.7V242.1Z" fill="#D2D9DC"/>
<path d="M434.7 255.6H360.5V260.8H434.7V255.6Z" fill="#D2D9DC"/>
<path d="M434.7 274.5H360.5V279.7H434.7V274.5Z" fill="#D2D9DC"/>
<path d="M349.8 214.5H329.3V219.7H349.8V214.5Z" fill="#D2D9DC"/>
<path d="M349.8 200.7H329.3V205.9H349.8V200.7Z" fill="#D2D9DC"/>
<path d="M349.7 189.8H309.7V195H349.7V189.8Z" fill="#D2D9DC"/>
<path d="M349.7 229.7H313.8V234.9H349.7V229.7Z" fill="#D2D9DC"/>
<path d="M349.8 242.1H333.4V247.3H349.8V242.1Z" fill="#D2D9DC"/>
<path d="M349.8 255.6H321.5V260.8H349.8V255.6Z" fill="#D2D9DC"/>
<path d="M349.8 274.5H327.2V279.7H349.8V274.5Z" fill="#D2D9DC"/>
<path d="M151.4 193.3C151.4 197.2 148.2 200.4 144.3 200.4H120.9C117 200.4 113.8 197.2 113.8 193.3V186.9C113.8 183 117 179.8 120.9 179.8H144.3C148.2 179.8 151.4 183 151.4 186.9V193.3Z" fill="#002548"/>
<path d="M151.4 216.3C151.4 220.2 148.2 223.4 144.3 223.4H120.9C117 223.4 113.8 220.2 113.8 216.3V209.9C113.8 206 117 202.8 120.9 202.8H144.3C148.2 202.8 151.4 206 151.4 209.9V216.3Z" fill="#002548"/>
<path d="M50 293.3V146.9C50 139.6 55.9 133.7 63.2 133.7H135.1C142.4 133.7 148.3 139.6 148.3 146.9V293.3C148.3 300.6 142.4 306.5 135.1 306.5H63.2C55.9 306.5 50 300.6 50 293.3ZM63.2 138.8C58.7 138.8 55.1 142.4 55.1 146.9V293.3C55.1 297.8 58.7 301.4 63.2 301.4H135.1C139.6 301.4 143.2 297.8 143.2 293.3V146.9C143.2 142.4 139.6 138.8 135.1 138.8H63.2Z" fill="#002548"/>
<path d="M54.7998 291.6C54.7998 297.4 59.3998 302.1 64.9998 302.1H133.8C139.4 302.1 144 297.4 144 291.6V147.5C144 141.7 139.4 137 133.8 137H64.9998C59.3998 137 54.7998 141.7 54.7998 147.5V291.6Z" fill="#F9FAFB"/>
<path d="M130.3 196.3L125.9 190.5C124.9 189.2 122.9 188.9 121.5 190L119.6 191.4C118.4 192.3 116.8 192.4 115.6 191.6C114.7 191 113.7 190.5 112.7 190C111.4 189.4 110.7 187.9 110.9 186.5L111.3 184.2C111.6 182.5 110.4 180.9 108.7 180.8L101.3 179.9C99.5999 179.7 97.9999 180.9 97.6999 182.6L97.2999 184.9C97.0999 186.4 95.8999 187.6 94.4999 187.9C93.3999 188.1 92.2999 188.4 91.1999 188.8C89.7999 189.3 88.1999 188.8 87.3999 187.7L85.9999 185.9C84.9999 184.6 82.9999 184.3 81.5999 185.4L75.4999 190C74.0999 191.1 73.7999 193 74.7999 194.4L76.1999 196.2C77.0999 197.4 77.0999 199 76.1999 200.2C75.5999 201.1 74.9999 202.1 74.3999 203.1C73.6999 204.4 72.1999 205.2 70.7999 205L68.4999 204.7C66.7999 204.5 65.1999 205.7 64.8999 207.4L63.6999 214.8C63.3999 216.5 64.5999 218.1 66.2999 218.3L68.5999 218.6C70.0999 218.8 71.1999 219.8 71.4999 221.3C71.6999 222.4 71.9999 223.4 72.2999 224.5C72.6999 225.9 72.1999 227.4 70.9999 228.3L69.0999 229.7C67.6999 230.8 67.3999 232.7 68.3999 234.1L72.7999 239.9C73.7999 241.3 75.7999 241.5 77.1999 240.4L79.0999 239C80.2999 238.1 81.8999 238 83.0999 238.8C83.9999 239.4 84.9999 239.9 85.9999 240.4C87.2999 241 87.9999 242.5 87.7999 243.9L87.3999 246.2C87.0999 247.9 88.2999 249.5 89.9999 249.7L97.3999 250.6C99.0999 250.8 100.7 249.6 101 247.9L101.4 245.6C101.6 244.1 102.8 242.9 104.2 242.6C105.3 242.4 106.4 242.1 107.5 241.7C108.9 241.2 110.5 241.7 111.3 242.8L112.7 244.6C113.7 246 115.7 246.2 117.1 245.1L123.2 240.5C124.6 239.4 124.9 237.5 123.9 236.1L122.5 234.3C121.6 233.2 121.6 231.5 122.4 230.3C123 229.3 123.6 228.4 124.2 227.4C124.9 226.1 126.4 225.3 127.8 225.5L130.1 225.8C131.8 226 133.4 224.8 133.7 223.1L134.9 215.7C135.2 214 134 212.4 132.3 212.2L130 211.9C128.5 211.7 127.4 210.7 127.1 209.2C126.9 208.1 126.6 207.1 126.3 206C125.9 204.6 126.4 203.1 127.6 202.2L129.5 200.8C131 199.6 131.4 197.7 130.3 196.3ZM110.5 227.6C102.5 234.7 90.1999 233.3 84.6999 224.6C80.2999 217.8 81.7999 208.4 88.1999 202.8C96.1999 195.7 108.4 197.1 114 205.8C118.3 212.7 116.9 222 110.5 227.6Z" fill="#839299"/>
<path d="M133 152.1H65.7998V159H133V152.1Z" fill="#D2D9DC"/>
<path d="M108.9 163.6H65.7998V170.5H108.9V163.6Z" fill="#D2D9DC"/>
<path d="M127.8 259.4H65.7998V266.3H127.8V259.4Z" fill="#D2D9DC"/>
<path d="M127.8 270.9H65.7998V277.8H127.8V270.9Z" fill="#D2D9DC"/>
<path d="M115.7 283H65.7998V289.9H115.7V283Z" fill="#D2D9DC"/>
<path d="M223.9 54.7001L220.3 48.3001C219.5 46.8001 217.5 46.3001 216 47.2001L213.9 48.4001C212.6 49.1001 211 49.0001 209.9 48.1001C209.1 47.4001 208.2 46.7001 207.3 46.1001C206.1 45.3001 205.5 43.8001 206 42.4001L206.7 40.2001C207.2 38.6001 206.2 36.8001 204.6 36.4001L197.4 34.5001C195.7 34.1001 194 35.1001 193.5 36.7001L192.8 38.9001C192.4 40.3001 191.1 41.3001 189.6 41.5001C188.5 41.6001 187.3 41.7001 186.2 41.9001C184.7 42.2001 183.3 41.5001 182.6 40.3001L181.5 38.3001C180.7 36.8001 178.7 36.3001 177.2 37.2001L170.6 40.9001C169.1 41.8001 168.5 43.7001 169.3 45.1001L170.4 47.1001C171.1 48.4001 170.9 50.0001 169.9 51.1001C169.1 51.9001 168.4 52.8001 167.8 53.7001C166.9 54.9001 165.4 55.5001 163.9 55.1001L161.6 54.5001C159.9 54.1001 158.1 55.1001 157.7 56.7001L155.6 63.9001C155.1 65.5001 156.1 67.2001 157.7 67.7001L160 68.3001C161.4 68.7001 162.5 69.9001 162.5 71.4001C162.6 72.5001 162.7 73.6001 162.9 74.7001C163.1 76.1001 162.4 77.6001 161.1 78.3001L159 79.5001C157.5 80.4001 156.9 82.3001 157.7 83.7001L161.3 90.1001C162.1 91.6001 164.1 92.1001 165.6 91.2001L167.7 90.0001C169 89.3001 170.6 89.4001 171.7 90.3001C172.5 91.0001 173.4 91.7001 174.3 92.3001C175.5 93.1001 176 94.6001 175.6 96.0001L174.9 98.2001C174.4 99.9001 175.4 101.6 177 102L184.2 103.8C185.9 104.2 187.6 103.2 188.1 101.6L188.8 99.4001C189.2 98.0001 190.5 96.9001 192 96.8001C193.1 96.7001 194.3 96.6001 195.4 96.3001C196.9 96.0001 198.3 96.7001 199.1 97.9001L200.2 99.9001C201 101.4 203 101.9 204.5 101L211.1 97.3001C212.6 96.4001 213.2 94.5001 212.4 93.1001L211.3 91.1001C210.6 89.8001 210.8 88.2001 211.8 87.1001C212.6 86.2001 213.3 85.4001 213.9 84.4001C214.8 83.2001 216.3 82.6001 217.8 83.0001L220.1 83.6001C221.8 84.0001 223.5 83.0001 224 81.4001L226.1 74.3001C226.6 72.6001 225.6 71.0001 224 70.5001L221.7 69.9001C220.3 69.5001 219.3 68.3001 219.2 66.8001C219.1 65.7001 219 64.6001 218.8 63.5001C218.5 62.1001 219.3 60.6001 220.6 59.9001L222.7 58.7001C224.2 58.1001 224.8 56.2001 223.9 54.7001ZM200.1 83.0001C191.2 89.0001 179.3 85.9001 174.9 76.6001C171.5 69.2001 174.2 60.2001 181.2 55.5001C190.1 49.5001 202 52.6001 206.3 61.9001C209.8 69.2001 207.1 78.3001 200.1 83.0001Z" fill="#5F737C"/>
<path d="M272 50.2001L269.6 45.9001C269 44.9001 267.7 44.6001 266.7 45.2001L265.3 46.0001C264.4 46.5001 263.3 46.4001 262.6 45.8001C262 45.3001 261.4 44.9001 260.8 44.5001C260 44.0001 259.6 43.0001 259.9 42.0001L260.3 40.5001C260.6 39.4001 260 38.2001 258.9 38.0001L254 36.8001C252.9 36.5001 251.7 37.2001 251.4 38.3001L250.9 39.8001C250.6 40.8001 249.8 41.4001 248.7 41.5001C248 41.6001 247.2 41.7001 246.4 41.8001C245.4 42.0001 244.4 41.6001 244 40.7001L243.2 39.4001C242.6 38.4001 241.3 38.1001 240.3 38.7001L236 41.0001C235 41.6001 234.6 42.9001 235.1 43.8001L235.9 45.1001C236.4 45.9001 236.2 47.0001 235.6 47.8001C235.1 48.4001 234.6 49.0001 234.2 49.6001C233.6 50.4001 232.6 50.8001 231.6 50.5001L230.1 50.1001C229 49.8001 227.8 50.5001 227.5 51.6001L226.1 56.4001C225.8 57.5001 226.4 58.6001 227.5 58.9001L229 59.3001C230 59.5001 230.6 60.4001 230.7 61.3001C230.7 62.0001 230.8 62.8001 230.9 63.5001C231.1 64.5001 230.6 65.4001 229.7 65.9001L228.3 66.7001C227.3 67.3001 226.9 68.6001 227.4 69.5001L229.8 73.8001C230.4 74.8001 231.7 75.1001 232.7 74.5001L234.1 73.7001C235 73.2001 236.1 73.3001 236.8 73.9001C237.4 74.4001 238 74.8001 238.6 75.2001C239.4 75.7001 239.8 76.7001 239.5 77.7001L239.1 79.2001C238.8 80.3001 239.4 81.4001 240.5 81.7001L245.4 82.9001C246.5 83.2001 247.7 82.5001 248 81.4001L248.4 79.9001C248.7 79.0001 249.5 78.3001 250.6 78.2001C251.4 78.1001 252.1 78.0001 252.9 77.9001C253.9 77.7001 254.9 78.1001 255.4 79.0001L256.1 80.3001C256.7 81.3001 258 81.6001 259 81.0001L263.5 78.5001C264.5 77.9001 264.9 76.6001 264.4 75.6001L263.7 74.3001C263.2 73.5001 263.3 72.4001 264 71.6001C264.5 71.0001 265 70.4001 265.4 69.8001C266 69.0001 267 68.6001 268 68.9001L269.5 69.3001C270.6 69.6001 271.8 68.9001 272.1 67.8001L273.5 63.0001C273.8 61.9001 273.2 60.8001 272.1 60.5001L270.6 60.1001C269.6 59.9001 269 59.0001 268.9 58.0001C268.9 57.3001 268.8 56.5001 268.7 55.8001C268.5 54.8001 269 53.9001 269.9 53.4001L271.3 52.6001C272.2 52.5001 272.5 51.2001 272 50.2001ZM256 69.2001C250 73.2001 242 71.2001 239.1 64.9001C236.8 60.0001 238.6 53.9001 243.4 50.7001C249.4 46.7001 257.4 48.7001 260.3 55.0001C262.5 60.0001 260.7 66.1001 256 69.2001Z" fill="#839299"/>
</svg>
