<svg width="40" height="40" viewBox="0 0 40 40" fill="none" xmlns="http://www.w3.org/2000/svg">
<path d="M34.5 21.0998V27.0998C34.5 27.3998 34.2 27.6998 33.9 27.6998C33.6 27.6998 33.3 27.3998 33.3 27.0998V21.6998H20.6V26.8998C20.6 27.1998 20.3 27.4998 20 27.4998C19.7 27.4998 19.4 27.1998 19.4 26.8998V21.6998H6.7V27.0998C6.7 27.3998 6.4 27.6998 6.1 27.6998C5.8 27.6998 5.5 27.3998 5.5 27.0998V21.0998C5.5 20.7998 5.8 20.4998 6.1 20.4998H19.4V15.3998C19.4 15.0998 19.7 14.7998 20 14.7998C20.3 14.7998 20.6 15.0998 20.6 15.3998V20.4998H33.9C34.2 20.4998 34.5 20.7998 34.5 21.0998Z" fill="#002548"/>
<path d="M29.3031 4.3V17C29.3031 17.4 29.0031 17.8 28.5031 17.8H11.1031C10.9031 17.8 10.7031 17.6 10.7031 17.4V4.3C10.7031 4.1 10.9031 3.9 11.1031 3.9H12.3031C12.4031 3.7 12.7031 3.5 13.0031 3.5H28.5031C28.9031 3.5 29.3031 3.8 29.3031 4.3Z" fill="#D2D9DC"/>
<path d="M23.4969 2.4999C23.4969 2.7999 23.1969 3.0999 22.8969 3.0999C22.5969 3.0999 22.2969 2.7999 22.2969 2.4999C22.2969 2.1999 22.5969 1.8999 22.8969 1.8999C23.1969 1.8999 23.4969 2.1999 23.4969 2.4999Z" fill="#203E76"/>
<path d="M25.8016 2.4999C25.8016 2.7999 25.5016 3.0999 25.2016 3.0999C24.9016 3.0999 24.6016 2.7999 24.6016 2.4999C24.6016 2.1999 24.9016 1.8999 25.2016 1.8999C25.5016 1.8999 25.8016 2.1999 25.8016 2.4999Z" fill="#203E76"/>
<path d="M28.0984 2.4999C28.0984 2.7999 27.7984 3.0999 27.4984 3.0999C27.1984 3.0999 26.8984 2.7999 26.8984 2.4999C26.8984 2.1999 27.1984 1.8999 27.4984 1.8999C27.8984 1.8999 28.0984 2.1999 28.0984 2.4999Z" fill="#203E76"/>
<path d="M28.9031 0.600098H11.1031C10.9031 0.600098 10.7031 0.800098 10.7031 1.0001V4.2001H29.3031V1.1001C29.3031 0.800098 29.1031 0.600098 28.9031 0.600098ZM22.9031 3.1001C22.6031 3.1001 22.3031 2.8001 22.3031 2.5001C22.3031 2.2001 22.6031 1.9001 22.9031 1.9001C23.2031 1.9001 23.5031 2.2001 23.5031 2.5001C23.5031 2.8001 23.2031 3.1001 22.9031 3.1001ZM25.2031 3.1001C24.9031 3.1001 24.6031 2.8001 24.6031 2.5001C24.6031 2.2001 24.9031 1.9001 25.2031 1.9001C25.5031 1.9001 25.8031 2.2001 25.8031 2.5001C25.8031 2.8001 25.5031 3.1001 25.2031 3.1001ZM27.6031 3.1001C27.3031 3.1001 27.0031 2.8001 27.0031 2.5001C27.0031 2.2001 27.3031 1.9001 27.6031 1.9001C27.9031 1.9001 28.2031 2.2001 28.2031 2.5001C28.1031 2.8001 27.9031 3.1001 27.6031 3.1001Z" fill="#002548"/>
<path d="M22.8969 1.8999C22.5969 1.8999 22.2969 2.1999 22.2969 2.4999C22.2969 2.7999 22.5969 3.0999 22.8969 3.0999C23.1969 3.0999 23.4969 2.7999 23.4969 2.4999C23.4969 2.1999 23.1969 1.8999 22.8969 1.8999Z" fill="#54CC5A"/>
<path d="M25.2016 1.8999C24.9016 1.8999 24.6016 2.1999 24.6016 2.4999C24.6016 2.7999 24.9016 3.0999 25.2016 3.0999C25.5016 3.0999 25.8016 2.7999 25.8016 2.4999C25.8016 2.1999 25.5016 1.8999 25.2016 1.8999Z" fill="#FFDD33"/>
<path d="M27.6 1.8999C27.3 1.8999 27 2.1999 27 2.4999C27 2.7999 27.3 3.0999 27.6 3.0999C27.9 3.0999 28.2 2.7999 28.2 2.4999C28.1 2.1999 27.9 1.8999 27.6 1.8999Z" fill="#ED1C24"/>
<path d="M13.1984 11.2999C13.1984 11.5999 12.8984 11.8999 12.5984 11.8999H12.4984C12.1984 11.8999 11.8984 11.5999 11.8984 11.2999C11.8984 10.9999 12.1984 10.6999 12.4984 10.6999H12.5984C12.8984 10.6999 13.1984 10.9999 13.1984 11.2999ZM12.5984 15.3999H12.4984C12.1984 15.3999 11.8984 15.6999 11.8984 15.9999C11.8984 16.2999 12.1984 16.5999 12.4984 16.5999H12.5984C12.8984 16.5999 13.1984 16.2999 13.1984 15.9999C13.1984 15.6999 12.8984 15.3999 12.5984 15.3999ZM12.5984 8.3999H12.4984C12.1984 8.3999 11.8984 8.6999 11.8984 8.9999C11.8984 9.2999 12.1984 9.5999 12.4984 9.5999H12.5984C12.8984 9.5999 13.1984 9.2999 13.1984 8.9999C13.1984 8.5999 12.8984 8.3999 12.5984 8.3999ZM15.0984 15.3999H14.9984C14.6984 15.3999 14.3984 15.6999 14.3984 15.9999C14.3984 16.2999 14.6984 16.5999 14.9984 16.5999H15.0984C15.3984 16.5999 15.6984 16.2999 15.6984 15.9999C15.6984 15.6999 15.4984 15.3999 15.0984 15.3999Z" fill="#5F737C"/>
<path d="M11.8984 6.6C11.8984 6.3 12.1984 6 12.4984 6H17.1984C17.4984 6 17.7984 6.3 17.7984 6.6C17.7984 6.9 17.4984 7.2 17.1984 7.2H12.4984C12.0984 7.2 11.8984 6.9 11.8984 6.6ZM14.1984 8.9C14.1984 9.2 14.4984 9.5 14.7984 9.5H18.5984C18.8984 9.5 19.1984 9.2 19.1984 8.9C19.1984 8.6 18.8984 8.3 18.5984 8.3H14.7984C14.4984 8.4 14.1984 8.6 14.1984 8.9ZM17.1984 13H12.4984C12.1984 13 11.8984 13.3 11.8984 13.6C11.8984 13.9 12.1984 14.2 12.4984 14.2H17.1984C17.4984 14.2 17.7984 13.9 17.7984 13.6C17.7984 13.3 17.4984 13 17.1984 13ZM18.5984 10.7H14.7984C14.4984 10.7 14.1984 11 14.1984 11.3C14.1984 11.6 14.4984 11.9 14.7984 11.9H18.5984C18.8984 11.9 19.1984 11.6 19.1984 11.3C19.1984 11 18.8984 10.7 18.5984 10.7Z" fill="#839299"/>
<path d="M11.7 26.7002V36.1002C11.7 36.7002 11.2 37.3002 10.5 37.3002H1C0.4 37.3002 0 36.8002 0 36.3002V26.7002C0 26.1002 0.5 25.7002 1 25.7002H10.5C11.2 25.5002 11.7 26.0002 11.7 26.7002Z" fill="#ED1C24"/>
<path d="M25.9031 26.7002V36.1002C25.9031 36.7002 25.4031 37.3002 24.7031 37.3002H15.2031C14.6031 37.3002 14.2031 36.8002 14.2031 36.3002V26.7002C14.2031 26.1002 14.7031 25.7002 15.2031 25.7002H24.7031C25.3031 25.5002 25.9031 26.0002 25.9031 26.7002Z" fill="#FFDD33"/>
<path d="M39.9969 26.7002V36.1002C39.9969 36.7002 39.4969 37.3002 38.7969 37.3002H29.2969C28.6969 37.3002 28.2969 36.8002 28.2969 36.3002V26.7002C28.2969 26.1002 28.7969 25.7002 29.2969 25.7002H38.7969C39.4969 25.5002 39.9969 26.0002 39.9969 26.7002Z" fill="#54CC5A"/>
<path d="M32.8 12.0999V13.0999C32.8 13.5999 32.5 13.9999 32 14.0999C31.9 14.6999 31.6 15.2999 31.3 15.7999C31.6 16.1999 31.5 16.6999 31.2 16.9999L30.5 17.6999C30.2 17.9999 29.6 18.0999 29.3 17.7999C28.8 18.0999 28.2 18.2999 27.6 18.4999C27.5 18.8999 27.1 19.2999 26.6 19.2999H25.6C25.1 19.2999 24.7 18.9999 24.6 18.4999C24 18.3999 23.4 18.0999 22.9 17.7999C22.5 18.0999 22 17.9999 21.7 17.6999L21.1 16.9999C20.8 16.6999 20.7 16.0999 21 15.7999C20.7 15.2999 20.5 14.6999 20.3 14.0999C19.9 13.9999 19.5 13.5999 19.5 13.0999V12.0999C19.5 11.5999 19.8 11.1999 20.3 11.0999C20.4 10.4999 20.7 9.8999 21 9.3999C20.7 8.9999 20.8 8.4999 21.1 8.1999L21.8 7.4999C22.1 7.1999 22.7 7.0999 23 7.3999C23.5 7.0999 24.1 6.8999 24.7 6.6999C24.8 6.2999 25.2 5.8999 25.7 5.8999H26.7C27.2 5.8999 27.6 6.1999 27.7 6.6999C28.3 6.7999 28.9 7.0999 29.4 7.3999C29.8 7.0999 30.3 7.1999 30.6 7.4999L31.3 8.1999C31.6 8.4999 31.7 9.0999 31.4 9.3999C31.7 9.8999 31.9 10.4999 32.1 11.0999C32.5 11.2999 32.8 11.6999 32.8 12.0999Z" fill="#0054A6"/>
<path d="M24.4984 9.2002C24.4984 9.2002 24.3984 9.2002 24.3984 9.3002C24.3984 9.3002 24.3984 9.3002 24.4984 9.2002C24.4984 9.3002 24.4984 9.3002 24.4984 9.2002Z" fill="#82CD64"/>
<path d="M29.8969 12.3998C29.8969 13.0998 29.7969 13.6998 29.4969 14.2998C29.4969 14.2998 29.4969 14.3998 29.3969 14.3998C28.7969 15.5998 27.4969 16.3998 26.0969 16.3998C23.9969 16.3998 22.2969 14.6998 22.2969 12.5998C22.2969 11.1998 23.0969 9.8998 24.2969 9.2998C24.2969 9.2998 24.3969 9.2998 24.3969 9.1998C24.9969 8.8998 25.5969 8.7998 26.2969 8.7998C28.2969 8.9998 29.7969 10.4998 29.8969 12.3998Z" fill="#54CC5A"/>
<path d="M3.99688 29.3998V28.7998C3.99688 27.7998 4.79688 26.9998 5.79688 26.9998C6.79688 26.9998 7.59688 27.7998 7.59688 28.7998V29.3998C7.59688 30.3998 6.79688 31.1998 5.79688 31.1998C4.79688 31.1998 3.99688 30.4998 3.99688 29.3998ZM3.09687 35.7998H8.49687C8.69687 35.7998 8.89687 35.5998 8.89687 35.3998V34.4998C8.89687 33.1998 7.89687 32.1998 6.59687 32.1998H5.09687C3.79688 32.1998 2.79688 33.1998 2.79688 34.4998V35.3998C2.79688 35.5998 2.89687 35.7998 3.09687 35.7998ZM19.9969 31.2998C20.9969 31.2998 21.7969 30.4998 21.7969 29.4998V28.8998C21.7969 27.8998 20.9969 27.0998 19.9969 27.0998C18.9969 27.0998 18.1969 27.8998 18.1969 28.8998V29.4998C18.1969 30.4998 18.9969 31.2998 19.9969 31.2998ZM17.2969 35.7998H22.6969C22.8969 35.7998 23.0969 35.5998 23.0969 35.3998V34.4998C23.0969 33.1998 22.0969 32.1998 20.7969 32.1998H19.2969C17.9969 32.1998 16.9969 33.1998 16.9969 34.4998V35.3998C16.8969 35.5998 17.0969 35.7998 17.2969 35.7998ZM34.0969 31.2998C35.0969 31.2998 35.8969 30.4998 35.8969 29.4998V28.8998C35.8969 27.8998 35.0969 27.0998 34.0969 27.0998C33.0969 27.0998 32.2969 27.8998 32.2969 28.8998V29.4998C32.2969 30.4998 33.0969 31.2998 34.0969 31.2998ZM31.3969 35.7998H36.7969C36.9969 35.7998 37.1969 35.5998 37.1969 35.3998V34.4998C37.1969 33.1998 36.1969 32.1998 34.8969 32.1998H33.3969C32.0969 32.1998 31.0969 33.1998 31.0969 34.4998V35.3998C30.9969 35.5998 31.1969 35.7998 31.3969 35.7998ZM30.9969 9.9998L26.5969 14.3998C26.4969 14.4998 26.2969 14.5998 26.1969 14.5998C26.0969 14.5998 25.8969 14.4998 25.7969 14.3998L23.5969 12.1998C23.3969 11.9998 23.3969 11.5998 23.5969 11.3998C23.7969 11.1998 24.1969 11.1998 24.3969 11.3998L26.1969 13.1998L30.1969 9.1998C30.3969 8.9998 30.7969 8.9998 30.9969 9.1998C31.1969 9.3998 31.1969 9.7998 30.9969 9.9998Z" fill="#F9FAFB"/>
</svg>
