<svg width="40" height="40" viewBox="0 0 40 40" fill="none" xmlns="http://www.w3.org/2000/svg">
<g clip-path="url(#clip0_4220_6036)">
<path d="M28.1208 26.3722V29.3768H11.8789V26.3722C11.8789 24.8001 12.865 23.3861 14.344 22.8466L18.7533 21.2466H21.2557L25.665 22.8466C27.1347 23.3954 28.1208 24.8001 28.1208 26.3722Z" fill="#FFDD33"/>
<path d="M28.1208 28.121V29.3675H11.8789V26.3628C11.8789 25.0512 12.5673 23.8419 13.6836 23.1628C13.3208 23.7489 13.1254 24.428 13.1254 25.1163C13.1254 25.907 13.4417 26.6698 14.0091 27.2373C14.4463 27.6745 15.0138 27.9721 15.6277 28.0745C15.7952 28.1024 15.9626 28.121 16.1301 28.121H28.1208Z" fill="#FFDD33"/>
<path d="M21.2464 20V22.5023C21.2464 23.1907 20.6883 23.7488 19.9999 23.7488C19.3116 23.7488 18.7534 23.1907 18.7534 22.5023V20H21.2464Z" fill="#FED2A4"/>
<path d="M16.1393 18.6976C15.9719 18.7348 15.7951 18.7534 15.6184 18.7534C15.5626 18.7534 15.5161 18.7534 15.4602 18.7441C14.0835 18.6604 13.0323 17.4697 13.1254 16.093C13.1905 15.0139 13.944 14.1023 14.9951 13.8325C15.1998 13.7767 15.4044 13.7488 15.6184 13.7488L16.1393 18.6976Z" fill="#0054A6"/>
<path d="M26.8743 16.2513C26.8743 17.5723 25.8511 18.6606 24.5301 18.7443C24.4743 18.7536 24.4278 18.7536 24.372 18.7536C24.1953 18.7536 24.0278 18.735 23.8511 18.6978L24.372 13.7583C24.586 13.7583 24.7906 13.7862 24.9953 13.842C26.1022 14.1118 26.8743 15.1071 26.8743 16.2513Z" fill="#0054A6"/>
<path d="M26.251 16.5675C25.9069 16.5675 25.6278 16.2884 25.6278 15.9442V13.1256C25.5999 10.0187 23.0603 7.52564 19.9534 7.55355C16.8929 7.58145 14.4092 10.0559 14.3813 13.1256V15.9442C14.3813 16.2884 14.1022 16.5675 13.758 16.5675C13.4138 16.5675 13.1348 16.2884 13.1348 15.9442V13.1256C13.1348 9.33029 16.2138 6.25122 20.0092 6.25122C23.8045 6.25122 26.8836 9.33029 26.8836 13.1256V15.9442C26.8743 16.2884 26.5952 16.5675 26.251 16.5675Z" fill="#0054A6"/>
<path d="M24.3721 13.7488H21.8698L21.2465 12.5023L20.6233 13.7488H15.6279C15.6279 11.3302 17.5907 9.37671 20 9.37671C22.4186 9.37671 24.3721 11.3302 24.3721 13.7488Z" fill="#ED1C24"/>
<path opacity="0.19" d="M17.2186 10.3814C16.3256 11.4791 17.1721 13.1256 18.5861 13.1256H20.9396L20.6233 13.7488H15.6279C15.6279 12.4372 16.214 11.1907 17.2372 10.3628L17.2186 10.3814Z" fill="#2D2F31"/>
<path opacity="0.19" d="M24.3723 13.7487H21.87L21.5537 13.1255H24.3165C24.363 13.3301 24.3816 13.5441 24.3723 13.7487Z" fill="#2D2F31"/>
<path d="M21.2464 20V21.7767C20.8371 21.8512 20.4185 21.8791 19.9999 21.8791C19.5813 21.8791 19.1627 21.8512 18.7534 21.786V20H21.2464Z" fill="#FFBD86"/>
<path d="M15.6281 13.7488L16.1491 18.6883C15.9816 18.7255 15.8049 18.7441 15.6281 18.7441C15.5723 18.7441 15.5258 18.7441 15.47 18.7348C15.1909 18.1488 15.0328 17.5162 15.0049 16.8651V13.8232C15.2002 13.7767 15.4142 13.7488 15.6281 13.7488Z" fill="#002548"/>
<path d="M24.9953 13.8325V16.8744C24.986 17.2744 24.9116 17.6744 24.7906 18.0558C24.772 18.1209 24.7534 18.1581 24.7441 18.2046C24.6883 18.3907 24.6139 18.5674 24.5209 18.7442C24.4651 18.7535 24.4185 18.7535 24.3627 18.7535C24.186 18.7535 24.0185 18.7349 23.8418 18.6976L24.3627 13.7581C24.586 13.7488 24.7999 13.7767 24.9953 13.8325Z" fill="#002548"/>
<path d="M24.3721 13.7487V16.8743C24.3628 17.2185 24.2977 17.5534 24.1954 17.8697C24.1861 17.9069 24.1768 17.9441 24.1582 17.972C23.8047 19.079 22.8 20.6138 20 20.6138C15.6279 20.6138 15.6279 16.865 15.6279 16.865V13.7394H20.6326L21.2558 12.4929L21.8791 13.7394L24.3721 13.7487Z" fill="#FED2A4"/>
<path d="M21.8791 13.749L21.2558 12.5024L20.6326 13.749H15.6279V16.8745C15.6279 16.8745 15.6279 19.6001 18.3349 20.4001C16.8744 19.3024 16.8744 17.4978 16.8744 17.4978C16.8744 15.7676 18.2698 14.3722 20 14.3722H24.3721V13.749H21.8791Z" fill="#FFBD86"/>
<path d="M24.372 16.4651V16.8744C24.3627 17.2186 24.2976 17.5535 24.1953 17.8697C24.186 17.9069 24.1767 17.9442 24.1581 17.9721C22.8186 18.5209 21.2186 18.6883 20.7162 18.7442H20.6511C20.3162 18.7535 20.0372 18.5023 19.9907 18.1767C19.972 17.8232 20.2418 17.5162 20.5953 17.4976C21.9069 17.386 23.572 17.0046 24.372 16.4651Z" fill="#002548"/>
<path opacity="0.19" d="M15.6279 26.2512V29.3768H14.3813V26.2512C14.3813 25.907 14.6604 25.6279 15.0046 25.6279C15.3488 25.6279 15.6279 25.907 15.6279 26.2512Z" fill="#2D2F31"/>
<path opacity="0.19" d="M25.6279 26.2512V29.3768H24.3721V26.2512C24.3721 25.907 24.6511 25.6279 24.9953 25.6279C25.3488 25.6279 25.6279 25.907 25.6279 26.2512Z" fill="#2D2F31"/>
<path opacity="0.19" d="M15.6279 28.0837V29.3767H14.3813V27.5535C14.7441 27.8232 15.172 28.0093 15.6279 28.0837Z" fill="#2D2F31"/>
<path opacity="0.19" d="M24.3721 28.1208H25.6186V29.3674H24.3721V28.1208Z" fill="#2D2F31"/>
<path d="M18.1954 35.6559L15.0326 33.5443C14.6512 33.2931 14.1396 33.3396 13.814 33.6652L13.3489 34.1303C13.3489 34.1303 11.6465 35.8326 7.907 32.0931C4.16747 28.3536 5.86979 26.6513 5.86979 26.6513L6.33491 26.1861C6.66049 25.8606 6.707 25.3489 6.45584 24.9675L4.34421 21.8047C4.13026 21.3396 3.58142 21.1257 3.107 21.321C2.48375 21.5722 1.77677 21.8885 0.762816 22.9024C-1.63718 25.3024 2.12096 31.7489 5.19072 34.8094C8.26049 37.8699 14.6977 41.6373 17.0977 39.2373C18.1024 38.2326 18.4186 37.5164 18.6791 36.8931C18.8744 36.4187 18.6605 35.8699 18.1954 35.6559Z" fill="#0054A6"/>
<path opacity="0.19" d="M17.8697 38.3534C17.6371 38.6697 17.3767 38.9673 17.0976 39.2371C14.6976 41.6371 8.25109 37.879 5.19063 34.8092C2.13016 31.7394 -1.63728 25.3022 0.762721 22.9022C1.04179 22.6232 1.33947 22.3627 1.64644 22.1301C0.0557445 24.8092 3.55342 30.679 6.43714 33.5627C9.32086 36.4464 15.1906 39.9348 17.8697 38.3534Z" fill="#2D2F31"/>
<path d="M3.74884 18.1208C3.50698 18.1208 3.28372 17.9813 3.1814 17.7581L1.6 14.3627C1.45117 14.0557 1.5814 13.6743 1.89768 13.5255C2.20465 13.3767 2.58605 13.5069 2.73489 13.8139C2.73489 13.8139 2.73489 13.8232 2.74419 13.8232L4.06512 16.6511L6.88372 15.3488C7.2 15.2092 7.5721 15.3488 7.71163 15.665C7.85117 15.972 7.72093 16.3348 7.41396 16.4836L4.01861 18.065C3.93489 18.1022 3.84186 18.1208 3.74884 18.1208Z" fill="#ED1C24"/>
<path d="M37.8325 26.5209C37.5906 26.5209 37.3674 26.3814 37.265 26.1581L35.9441 23.3302L33.1162 24.6512C32.7999 24.7907 32.4278 24.6512 32.2883 24.3349C32.1487 24.0279 32.279 23.6651 32.586 23.5163L35.9813 21.9349C36.2976 21.786 36.6697 21.9256 36.8092 22.2326L38.3906 25.6279C38.5394 25.9442 38.3999 26.3163 38.0836 26.4558C38.0185 26.5023 37.9255 26.5209 37.8325 26.5209Z" fill="#54CC5A"/>
<path d="M3.93472 18.1489C3.90682 18.1489 3.86961 18.1489 3.8417 18.1396C3.49751 18.0838 3.26496 17.7676 3.32077 17.4234C4.40914 10.1396 10.1208 4.41871 17.4045 3.31174C17.7487 3.25592 18.065 3.48848 18.1208 3.83267C18.1766 4.17685 17.944 4.49313 17.5998 4.54895C10.9394 5.59081 5.57193 10.9582 4.55798 17.6187C4.51147 17.9257 4.251 18.1489 3.93472 18.1489Z" fill="#ED1C24"/>
<path d="M22.5022 36.6884C22.158 36.6884 21.8789 36.4093 21.8789 36.0651C21.8789 35.7581 22.1022 35.4977 22.4091 35.4512C29.1068 34.4279 34.3719 29.2 35.4324 22.5116C35.4882 22.1674 35.8045 21.9349 36.1487 21.9907C36.4929 22.0465 36.7254 22.3628 36.6696 22.707C35.5254 29.9349 29.8324 35.5907 22.6045 36.6884C22.5673 36.6791 22.5301 36.6884 22.5022 36.6884Z" fill="#54CC5A"/>
<path d="M33.7487 0C30.2976 0 27.4976 2.7907 27.4976 6.24186C27.4976 8.21395 28.4185 10.0651 29.9999 11.2465V13.7581L31.9999 12.2605C35.3115 13.2279 38.7813 11.3209 39.7487 8.0093C40.7162 4.69767 38.8092 1.22791 35.4976 0.260465C34.9301 0.0837209 34.3441 0 33.7487 0Z" fill="#ED1C24"/>
<path opacity="0.19" d="M31.2465 11.2465V12.8186L30 13.7581V11.2558C27.2372 9.1907 26.679 5.27442 28.7442 2.51163C29.9256 0.92093 31.786 0 33.7488 0C33.9535 0 34.1581 0.00930233 34.3628 0.027907C30.9302 0.381395 28.4279 3.44186 28.7814 6.87442C28.9581 8.61395 29.8511 10.1953 31.2465 11.2465Z" fill="#2D2F31"/>
<path fill-rule="evenodd" clip-rule="evenodd" d="M36.8373 6.59537C36.8559 6.41862 36.8652 6.24188 36.8559 6.05583L37.1256 5.86049C37.2559 5.76746 37.3117 5.60932 37.2838 5.45118C37.2094 5.107 37.0884 4.78142 36.921 4.47444C36.8466 4.3349 36.6884 4.25118 36.5303 4.26979L36.2047 4.29769C36.0931 4.15816 35.9721 4.02793 35.8419 3.907L35.8977 3.58142C35.9256 3.42328 35.8512 3.26514 35.721 3.18142C35.4233 2.99537 35.107 2.84653 34.7721 2.75351C34.6233 2.707 34.4559 2.76281 34.3535 2.88374L34.1396 3.1349C33.9628 3.1163 33.7861 3.107 33.6094 3.1163L33.3954 2.85583C33.3024 2.7256 33.1442 2.66979 32.9861 2.69769C32.6419 2.77211 32.3163 2.89304 32.0094 3.06048C31.8698 3.1349 31.7861 3.29304 31.8047 3.45118L31.8326 3.77676C31.6931 3.88839 31.5628 4.00932 31.4419 4.13955L31.1163 4.09304C30.9582 4.06514 30.8 4.13955 30.7163 4.26979C30.5303 4.56746 30.3814 4.88374 30.2884 5.21862C30.2419 5.36746 30.2977 5.5349 30.4187 5.63723L30.6698 5.85118C30.6512 6.02793 30.6419 6.20467 30.6512 6.39072L30.3907 6.57676C30.2605 6.66979 30.2047 6.82793 30.2326 6.98607C30.307 7.33025 30.428 7.65583 30.5954 7.96281C30.6698 8.10235 30.828 8.18607 30.9768 8.16746L31.3024 8.13955C31.414 8.27909 31.5349 8.40932 31.6652 8.53025L31.6094 8.85583C31.5814 9.01397 31.6559 9.17211 31.7861 9.25583C32.0838 9.44188 32.4 9.59072 32.7349 9.68374C32.8838 9.73025 33.0512 9.67444 33.1535 9.55351L33.3582 9.30235C33.5349 9.32095 33.7117 9.33025 33.8977 9.32095L34.0931 9.58142C34.1861 9.71165 34.3442 9.76746 34.5024 9.73956C34.8466 9.66514 35.1721 9.54421 35.4791 9.37676C35.6187 9.30235 35.7024 9.14421 35.6838 8.99537L35.6559 8.66979C35.7954 8.55816 35.9256 8.43723 36.0466 8.307L36.3721 8.36281C36.5303 8.39072 36.6884 8.3163 36.7721 8.18607C36.9582 7.88839 37.107 7.57211 37.2 7.23723C37.2559 7.06979 37.2093 6.90235 37.0884 6.80002L36.8373 6.59537ZM35.3024 6.93025C34.9117 7.78607 33.8977 8.16746 33.0419 7.77676C32.1861 7.38607 31.8047 6.37211 32.1954 5.5163C32.5861 4.66048 33.6 4.27909 34.4559 4.66979C35.3117 5.06048 35.6931 6.07444 35.3024 6.93025Z" fill="#839299"/>
</g>
<defs>
<clipPath id="clip0_4220_6036">
<rect width="40" height="40" fill="white"/>
</clipPath>
</defs>
</svg>
