<svg width="50" height="50" viewBox="0 0 50 50" fill="none" xmlns="http://www.w3.org/2000/svg">
<g id="web-data-extraction-services_custom-ai-solutions 1" clip-path="url(#clip0_6034_13089)">
<g id="Group">
<path id="Vector" d="M8.59922 28.4V37.9H41.3992V28.4C41.3992 27.9 41.7992 27.5 42.2992 27.5H47.8992C48.1992 26.1 48.2992 24.6 48.2992 23.2C48.2992 10.4 37.8992 0 24.9992 0C12.0992 0 1.69922 10.4 1.69922 23.3C1.69922 24.7 1.79922 26.2 2.09922 27.6H7.69922C8.19922 27.6 8.59922 28 8.59922 28.4Z" fill="#0054A6"/>
<path id="Vector_2" d="M36.2 25.8999C35.7 32.0999 30.3 36.6999 24.1 36.0999C18.6 35.5999 14.3 31.2999 13.9 25.8999H0V28.7999C0 29.5999 0.6 30.1999 1.4 30.1999H3C3.6 30.1999 4.2 30.5999 4.4 31.1999C4.8 32.5999 5.4 33.8999 6 35.1999C6.3 35.7999 6.2 36.4999 5.8 36.8999L4.7 37.9999C4.1 38.5999 4.1 39.4999 4.7 39.9999L10 45.2999C10.6 45.8999 11.5 45.8999 12 45.2999L13.1 44.1999C13.6 43.6999 14.2 43.6999 14.8 43.9999C16.1 44.6999 17.4 45.1999 18.8 45.5999C19.4 45.7999 19.8 46.2999 19.8 46.9999V48.5999C19.8 49.3999 20.4 49.9999 21.2 49.9999H28.7C29.5 49.9999 30.1 49.3999 30.1 48.5999V46.9999C30.1 46.3999 30.5 45.7999 31.1 45.5999C32.5 45.1999 33.8 44.5999 35.1 43.9999C35.7 43.6999 36.4 43.7999 36.8 44.1999L37.9 45.2999C38.5 45.8999 39.4 45.8999 39.9 45.2999L45.2 39.9999C45.8 39.3999 45.8 38.4999 45.2 37.9999L44.1 36.8999C43.6 36.3999 43.6 35.7999 43.9 35.1999C44.6 33.8999 45.1 32.5999 45.5 31.1999C45.7 30.5999 46.2 30.1999 46.9 30.1999H48.5C49.3 30.1999 49.9 29.5999 49.9 28.7999V25.8999H36.2Z" fill="#D2D9DC"/>
<g id="Group_2">
<path id="Vector_3" d="M24.0996 6H25.7996V19.8H24.0996V6Z" fill="#D2D9DC"/>
<path id="Vector_4" d="M31.0008 21.6H29.3008V14.7C29.3008 14.4 29.4008 14.2 29.7008 14L35.7008 9.69995L36.7008 11.1L31.0008 15.1V21.6Z" fill="#D2D9DC"/>
<path id="Vector_5" d="M20.7008 21.6001H19.0008V15.1001L13.3008 11.0001L14.3008 9.6001L20.3008 13.9001C20.5008 14.1001 20.7008 14.3001 20.7008 14.6001V21.6001Z" fill="#D2D9DC"/>
<path id="Vector_6" d="M38.0996 24.1001H31.5996V22.4001H37.5996L41.3996 17.6001L42.6996 18.7001L38.5996 23.9001C38.5996 24.0001 38.3996 24.1001 38.0996 24.1001Z" fill="#D2D9DC"/>
<path id="Vector_7" d="M18.1 24.1001H11.6C11.3 24.1001 11.1 24.0001 10.9 23.8001L7 18.6001L8.4 17.6001L12 22.4001H18V24.1001H18.1Z" fill="#D2D9DC"/>
</g>
<path id="Vector_8" d="M25.0004 7.8001C26.4363 7.8001 27.6004 6.63604 27.6004 5.2001C27.6004 3.76416 26.4363 2.6001 25.0004 2.6001C23.5645 2.6001 22.4004 3.76416 22.4004 5.2001C22.4004 6.63604 23.5645 7.8001 25.0004 7.8001Z" fill="#ED1C24"/>
<path id="Vector_9" d="M36.1996 12.9C37.6356 12.9 38.7996 11.7359 38.7996 10.3C38.7996 8.86401 37.6356 7.69995 36.1996 7.69995C34.7637 7.69995 33.5996 8.86401 33.5996 10.3C33.5996 11.7359 34.7637 12.9 36.1996 12.9Z" fill="#002548"/>
<path id="Vector_10" d="M13.7992 12.9C15.2352 12.9 16.3992 11.7359 16.3992 10.3C16.3992 8.86401 15.2352 7.69995 13.7992 7.69995C12.3633 7.69995 11.1992 8.86401 11.1992 10.3C11.1992 11.7359 12.3633 12.9 13.7992 12.9Z" fill="#002548"/>
<path id="Vector_11" d="M42.1996 20.7C43.6356 20.7 44.7996 19.5359 44.7996 18.1C44.7996 16.6641 43.6356 15.5 42.1996 15.5C40.7637 15.5 39.5996 16.6641 39.5996 18.1C39.5996 19.5359 40.7637 20.7 42.1996 20.7Z" fill="#54CC5A"/>
<path id="Vector_12" d="M7.79922 20.7C9.23516 20.7 10.3992 19.5359 10.3992 18.1C10.3992 16.6641 9.23516 15.5 7.79922 15.5C6.36328 15.5 5.19922 16.6641 5.19922 18.1C5.19922 19.5359 6.36328 20.7 7.79922 20.7Z" fill="#54CC5A"/>
<path id="Vector_13" d="M24.9992 32.7999C29.307 32.7999 32.7992 29.3078 32.7992 25C32.7992 20.6921 29.307 17.2 24.9992 17.2C20.6914 17.2 17.1992 20.6921 17.1992 25C17.1992 29.3078 20.6914 32.7999 24.9992 32.7999Z" fill="#FFDD33"/>
</g>
</g>
<defs>
<clipPath id="clip0_6034_13089">
<rect width="50" height="50" fill="white"/>
</clipPath>
</defs>
</svg>
