<svg width="40" height="40" viewBox="0 0 40 40" fill="none" xmlns="http://www.w3.org/2000/svg">
<g clip-path="url(#clip0_4220_5947)">
<path d="M35.3768 33.014H4.65121C3.87912 33.014 3.25586 32.3908 3.25586 31.6187V7.87915H36.7721V31.6187C36.7721 32.3908 36.1489 33.014 35.3768 33.014Z" fill="white"/>
<path d="M36.7721 7.87916H3.25586V5.08846C3.25586 4.31637 3.87912 3.69312 4.65121 3.69312H35.3768C36.1489 3.69312 36.7721 4.31637 36.7721 5.08846V7.87916Z" fill="#0054A6"/>
<path d="M33.9814 6.48373C34.3667 6.48373 34.679 6.17137 34.679 5.78605C34.679 5.40074 34.3667 5.08838 33.9814 5.08838C33.5961 5.08838 33.2837 5.40074 33.2837 5.78605C33.2837 6.17137 33.5961 6.48373 33.9814 6.48373Z" fill="#ED1C24"/>
<path d="M31.1908 6.48373C31.5762 6.48373 31.8885 6.17137 31.8885 5.78605C31.8885 5.40074 31.5762 5.08838 31.1908 5.08838C30.8055 5.08838 30.4932 5.40074 30.4932 5.78605C30.4932 6.17137 30.8055 6.48373 31.1908 6.48373Z" fill="#FFDD33"/>
<path d="M28.391 6.48373C28.7763 6.48373 29.0887 6.17137 29.0887 5.78605C29.0887 5.40074 28.7763 5.08838 28.391 5.08838C28.0057 5.08838 27.6934 5.40074 27.6934 5.78605C27.6934 6.17137 28.0057 6.48373 28.391 6.48373Z" fill="#54CC5A"/>
<path d="M7.44174 30.2233C8.21237 30.2233 8.83708 29.5986 8.83708 28.828C8.83708 28.0573 8.21237 27.4326 7.44174 27.4326C6.67111 27.4326 6.04639 28.0573 6.04639 28.828C6.04639 29.5986 6.67111 30.2233 7.44174 30.2233Z" fill="#0A5078"/>
<path d="M32.5863 30.2233C33.3569 30.2233 33.9816 29.5986 33.9816 28.828C33.9816 28.0573 33.3569 27.4326 32.5863 27.4326C31.8156 27.4326 31.1909 28.0573 31.1909 28.828C31.1909 29.5986 31.8156 30.2233 32.5863 30.2233Z" fill="#0A5078"/>
<path d="M15.079 10.4094C14.9767 10.1396 14.7162 9.97217 14.4278 9.97217C14.1395 9.97217 13.8883 10.1489 13.7767 10.4094L10.986 17.3954C10.8464 17.7582 11.0139 18.1582 11.3767 18.3071C11.7302 18.4466 12.1395 18.2791 12.2883 17.9164L12.6697 16.9582H16.1953L16.5767 17.9164C16.6883 18.1861 16.9488 18.3536 17.2278 18.3536C17.3116 18.3536 17.4046 18.335 17.4883 18.3071C17.8511 18.1675 18.0185 17.7582 17.879 17.3954L15.079 10.4094ZM13.2278 15.5629L14.4278 12.5582L15.6278 15.5629H13.2278Z" fill="#002548"/>
<path d="M22.1115 9.97217H20.0185C19.6278 9.97217 19.3208 10.2884 19.3208 10.6698V17.6559C19.3208 18.0466 19.6371 18.3536 20.0185 18.3536C20.4092 18.3536 20.7161 18.0373 20.7161 17.6559V15.5629H22.1115C23.6557 15.5629 24.9022 14.3071 24.9022 12.7722C24.9022 11.2373 23.6464 9.97217 22.1115 9.97217ZM22.1115 14.1582H20.7161V11.3675H22.1115C22.8836 11.3675 23.5068 11.9908 23.5068 12.7629C23.5068 13.535 22.8836 14.1582 22.1115 14.1582Z" fill="#002548"/>
<path d="M26.9955 9.97217C26.6048 9.97217 26.2979 10.2884 26.2979 10.6698V17.6559C26.2979 18.0466 26.6141 18.3536 26.9955 18.3536C27.3862 18.3536 27.6932 18.0373 27.6932 17.6559V10.6698C27.6932 10.2884 27.3862 9.97217 26.9955 9.97217Z" fill="#002548"/>
<path fill-rule="evenodd" clip-rule="evenodd" d="M14.6792 28.4838C14.9397 28.3257 15.0792 28.028 15.0327 27.7396C14.9304 27.0048 14.7164 26.2978 14.4094 25.628C14.2885 25.349 14.0094 25.1815 13.7117 25.1908L12.9676 25.2001C12.7443 24.8652 12.4838 24.5396 12.1955 24.242L12.3722 23.5071C12.4373 23.2187 12.3257 22.9117 12.0838 22.735C11.4978 22.2885 10.8466 21.935 10.1583 21.6745C9.86989 21.5722 9.55361 21.6466 9.34896 21.8606L8.82803 22.3908C8.41872 22.3071 8.01872 22.2699 7.60942 22.2606L7.20942 21.6187C7.05128 21.3676 6.76291 21.228 6.46524 21.2652C5.73035 21.3676 5.02337 21.5815 4.35361 21.8885C4.07454 22.0094 3.9071 22.2885 3.9164 22.5955L3.9257 23.3396C3.59082 23.5629 3.26524 23.8234 2.96756 24.1117L2.24198 23.9443C1.94431 23.8699 1.63733 23.9815 1.46058 24.2234C1.01407 24.8094 0.660584 25.4606 0.400119 26.149C0.297793 26.428 0.372212 26.7443 0.586166 26.9583L1.1164 27.4792C1.03268 27.8792 0.995468 28.2885 0.986165 28.6978L0.344305 29.0885C0.0931422 29.2466 -0.0463926 29.5443 -0.00918332 29.842C0.0931423 30.5676 0.307096 31.2838 0.614073 31.9536C0.735003 32.2234 1.01407 32.4001 1.32105 32.3908L2.06524 32.3815C2.28849 32.7257 2.54896 33.042 2.83733 33.3396L2.66989 34.0652C2.59547 34.3629 2.7071 34.6606 2.94896 34.8466C3.535 35.2838 4.18617 35.6466 4.87454 35.8978C5.15361 36.0001 5.46989 35.9257 5.68384 35.7117L6.20477 35.1722C6.60477 35.2559 7.01407 35.3024 7.42338 35.3024L7.81407 35.935C7.97221 36.1955 8.26989 36.335 8.56756 36.2885C9.29314 36.1862 10.0094 35.9722 10.6792 35.6652C10.949 35.5443 11.1257 35.2652 11.1164 34.9676L11.1071 34.2234C11.4513 34.0001 11.7676 33.7396 12.0652 33.4513L12.7908 33.628C13.0885 33.6931 13.3862 33.5815 13.5722 33.3396C14.0094 32.7536 14.3722 32.1024 14.6234 31.4141C14.7257 31.1257 14.6513 30.8094 14.4373 30.6048L13.8978 30.0838C13.9815 29.6745 14.028 29.2745 14.028 28.8559L14.6792 28.4838ZM10.6327 30.4931C9.69314 32.2048 7.535 32.8466 5.82338 31.9071C4.10244 30.9676 3.46989 28.8094 4.40942 27.0978C5.34896 25.3769 7.5071 24.7443 9.21872 25.6838C10.9397 26.6234 11.5722 28.7722 10.6327 30.4931Z" fill="#839299"/>
<path fill-rule="evenodd" clip-rule="evenodd" d="M39.6372 28.4838C39.8977 28.3257 40.0372 28.028 39.9907 27.7396C39.8884 27.0048 39.6744 26.2978 39.3674 25.628C39.2465 25.349 38.9674 25.1815 38.6698 25.1908L37.9256 25.2001C37.7023 24.8652 37.4418 24.5396 37.1535 24.242L37.3302 23.5071C37.3953 23.2187 37.2837 22.9117 37.0418 22.735C36.4558 22.2885 35.8046 21.935 35.1163 21.6745C34.8279 21.5722 34.5116 21.6466 34.307 21.8606L33.786 22.3908C33.3767 22.3071 32.9767 22.2699 32.5674 22.2606L32.1674 21.6187C32.0093 21.3676 31.7209 21.228 31.4232 21.2652C30.6884 21.3676 29.9814 21.5815 29.3116 21.8885C29.0325 22.0094 28.8651 22.2885 28.8744 22.5955L28.8837 23.3396C28.5488 23.5629 28.2232 23.8234 27.9256 24.1117L27.2 23.9443C26.9023 23.8699 26.5953 23.9815 26.4186 24.2234C25.9721 24.8094 25.6186 25.4606 25.3581 26.149C25.2558 26.428 25.3302 26.7443 25.5442 26.9583L26.0744 27.4792C25.9907 27.8792 25.9535 28.2885 25.9442 28.6978L25.3023 29.0885C25.0512 29.2466 24.9116 29.5443 24.9488 29.842C25.0512 30.5676 25.2651 31.2838 25.5721 31.9536C25.693 32.2234 25.9721 32.4001 26.2791 32.3908L27.0232 32.3815C27.2465 32.7257 27.507 33.042 27.7953 33.3396L27.6279 34.0652C27.5535 34.3629 27.6651 34.6606 27.907 34.8466C28.493 35.2838 29.1442 35.6466 29.8325 35.8978C30.1116 36.0001 30.4279 35.9257 30.6418 35.7117L31.1628 35.1722C31.5628 35.2559 31.9721 35.3024 32.3814 35.3024L32.7721 35.935C32.9302 36.1955 33.2279 36.335 33.5256 36.2885C34.2512 36.1862 34.9674 35.9722 35.6372 35.6652C35.907 35.5443 36.0837 35.2652 36.0744 34.9676L36.0651 34.2234C36.4093 34.0001 36.7256 33.7396 37.0232 33.4513L37.7488 33.628C38.0465 33.6931 38.3442 33.5815 38.5302 33.3396C38.9674 32.7536 39.3302 32.1024 39.5814 31.4141C39.6837 31.1257 39.6093 30.8094 39.3953 30.6048L38.8558 30.0838C38.9395 29.6745 38.986 29.2745 38.986 28.8559L39.6372 28.4838ZM35.5907 30.4931C34.6511 32.2048 32.493 32.8466 30.7814 31.9071C29.0605 30.9676 28.4279 28.8094 29.3674 27.0978C30.307 25.3769 32.4651 24.7443 34.1767 25.6838C35.8977 26.6234 36.5302 28.7722 35.5907 30.4931Z" fill="#839299"/>
<path d="M15.8233 19.749H11.6373C11.3582 19.749 11.0977 19.9165 10.9954 20.1769C10.8838 20.4374 10.9489 20.7351 11.1443 20.9397L12.7443 22.5397L6.94891 28.3351C6.67914 28.6048 6.67914 29.0514 6.94891 29.3211C7.08844 29.4607 7.26519 29.5258 7.44193 29.5258C7.61868 29.5258 7.79542 29.4607 7.93495 29.3211L13.7303 23.5258L15.3303 25.1258C15.4605 25.256 15.6466 25.3304 15.8233 25.3304C15.9163 25.3304 16.0001 25.3118 16.0931 25.2746C16.3536 25.163 16.521 24.9118 16.521 24.6327V20.4467C16.521 20.0653 16.214 19.749 15.8233 19.749Z" fill="#0054A6"/>
<path d="M33.0794 28.3351L27.2841 22.5397L28.8841 20.9397C29.0794 20.7444 29.1445 20.4374 29.0329 20.1769C28.9213 19.9165 28.6701 19.749 28.391 19.749H24.205C23.8143 19.749 23.5073 20.0653 23.5073 20.4467V24.6327C23.5073 24.9118 23.6748 25.1723 23.9352 25.2746C24.019 25.3118 24.112 25.3304 24.205 25.3304C24.391 25.3304 24.5678 25.256 24.698 25.1258L26.298 23.5258L32.0934 29.3211C32.2329 29.4607 32.4096 29.5258 32.5864 29.5258C32.7631 29.5258 32.9399 29.4607 33.0794 29.3211C33.3492 29.0514 33.3492 28.6048 33.0794 28.3351Z" fill="#0054A6"/>
</g>
<defs>
<clipPath id="clip0_4220_5947">
<rect width="40" height="40" fill="white"/>
</clipPath>
</defs>
</svg>
