<svg width="50" height="50" viewBox="0 0 50 50" fill="none" xmlns="http://www.w3.org/2000/svg">
<g clip-path="url(#clip0_14405_62490)">
<path opacity="0.988" fill-rule="evenodd" clip-rule="evenodd" d="M27.393 10.1074C26.7988 10.272 26.2128 10.4347 25.6352 10.5957C25.1794 10.5957 24.7238 10.5957 24.268 10.5957C23.6793 10.4581 23.0934 10.2954 22.5102 10.1074C19.8777 8.26915 19.2755 5.89285 20.7035 2.97849C22.4638 0.753692 24.6611 0.18403 27.2953 1.2695C29.7039 2.79792 30.4689 4.93008 29.5903 7.66599C29.11 8.71549 28.3776 9.52929 27.393 10.1074Z" fill="#FEDFC5"/>
<path fill-rule="evenodd" clip-rule="evenodd" d="M22.5098 10.1074C23.093 10.2954 23.6789 10.4581 24.2676 10.5957C23.7659 12.2959 23.2451 13.9886 22.7051 15.6738C21.8446 14.0016 21.3889 12.2111 21.3379 10.3027C21.7262 10.2251 22.1168 10.16 22.5098 10.1074Z" fill="#EEEFEF"/>
<path fill-rule="evenodd" clip-rule="evenodd" d="M27.3926 10.1074C27.7855 10.16 28.1762 10.2251 28.5645 10.3027C28.5135 12.2104 28.0578 14.0007 27.1973 15.6738C26.6572 13.9885 26.1364 12.2958 25.6348 10.5957C26.2124 10.4348 26.7983 10.2721 27.3926 10.1074Z" fill="#EEEEEF"/>
<path opacity="0.994" fill-rule="evenodd" clip-rule="evenodd" d="M21.3381 10.3027C21.3891 12.2111 21.8449 14.0016 22.7053 15.6738C23.331 16.9583 24.0797 18.1627 24.9514 19.2871C25.8232 18.1627 26.5718 16.9583 27.1975 15.6738C28.0581 14.0007 28.5137 12.2104 28.5647 10.3027C31.3343 11.2163 33.0271 13.1043 33.6428 15.9668C33.7185 16.4841 33.751 17.0049 33.7405 17.5293C33.7568 18.7667 33.7405 20.0037 33.6917 21.2402C33.6103 21.3216 33.5289 21.403 33.4475 21.4844C31.8853 21.5332 30.3228 21.5495 28.76 21.5332C27.4361 21.0601 26.0689 20.7997 24.6585 20.752C24.1983 20.7604 23.7425 20.8092 23.2913 20.8984C22.5643 21.0835 21.8481 21.295 21.1428 21.5332C19.58 21.5495 18.0175 21.5332 16.4553 21.4844C16.374 21.403 16.2925 21.3216 16.2112 21.2402C16.1624 20.0037 16.1461 18.7667 16.1624 17.5293C16.1518 17.0049 16.1843 16.4841 16.26 15.9668C16.8757 13.1043 18.5685 11.2163 21.3381 10.3027Z" fill="#488AFE"/>
<path fill-rule="evenodd" clip-rule="evenodd" d="M24.2676 10.5957C24.7233 10.5957 25.179 10.5957 25.6348 10.5957C26.1364 12.2958 26.6572 13.9885 27.1973 15.6738C26.5716 16.9583 25.8229 18.1627 24.9512 19.2871C24.0794 18.1627 23.3308 16.9583 22.7051 15.6738C23.2451 13.9886 23.7659 12.2959 24.2676 10.5957Z" fill="#FED551"/>
<path opacity="0.964" fill-rule="evenodd" clip-rule="evenodd" d="M16.2599 15.9668C16.1842 16.4841 16.1517 17.0049 16.1622 17.5293C14.2091 17.5293 12.256 17.5293 10.3029 17.5293C10.2866 19.2224 10.3029 20.9151 10.3517 22.6074C10.6974 22.1468 11.1368 21.8213 11.6701 21.6309C12.3324 21.7498 12.5765 22.1404 12.4025 22.8027C11.5724 23.6328 10.7423 24.4629 9.91224 25.293C9.65182 25.3581 9.39141 25.3581 9.13099 25.293C8.33346 24.4954 7.53594 23.698 6.73841 22.9004C6.45819 21.8785 6.83253 21.5042 7.86146 21.7774C8.13815 22.054 8.41485 22.3308 8.69154 22.6074C8.69364 20.4829 8.75874 18.367 8.88685 16.2598C9.00121 16.1237 9.1477 16.0423 9.3263 16.0156C11.6372 15.9668 13.9485 15.9505 16.2599 15.9668Z" fill="#C7C9CD"/>
<path opacity="0.966" fill-rule="evenodd" clip-rule="evenodd" d="M33.6426 15.9668C35.954 15.9505 38.2652 15.9668 40.5762 16.0156C40.8528 16.097 41.0319 16.2761 41.1133 16.5527C41.1458 18.571 41.1784 20.5892 41.2109 22.6074C41.5588 22.144 41.9982 21.8184 42.5293 21.6309C43.2591 21.7883 43.4706 22.2114 43.1641 22.9004C42.3665 23.698 41.569 24.4954 40.7715 25.293C40.511 25.3581 40.2507 25.3581 39.9902 25.293C39.1602 24.4629 38.3301 23.6328 37.5 22.8027C37.4066 21.7378 37.8461 21.4286 38.8184 21.875C39.0625 22.1192 39.3066 22.3633 39.5508 22.6074C39.5996 20.9151 39.6159 19.2224 39.5996 17.5293C37.6465 17.5293 35.6934 17.5293 33.7402 17.5293C33.7508 17.0049 33.7183 16.4841 33.6426 15.9668Z" fill="#C7C9CD"/>
<path opacity="0.987" fill-rule="evenodd" clip-rule="evenodd" d="M28.7601 21.5332C32.2741 23.5809 33.7878 26.6407 33.3011 30.7129C32.4817 34.3644 30.2518 36.6268 26.6117 37.5C22.3306 38.0696 19.1893 36.4583 17.1879 32.666C15.7506 28.816 16.5156 25.4795 19.4828 22.6563C20.0425 22.2797 20.596 21.9053 21.1429 21.5332C21.8482 21.295 22.5644 21.0835 23.2914 20.8984C23.7426 20.8092 24.1984 20.7604 24.6586 20.752C26.069 20.7997 27.4362 21.0601 28.7601 21.5332Z" fill="#FED44E"/>
<path fill-rule="evenodd" clip-rule="evenodd" d="M23.9747 23.2911C27.4661 23.1059 29.7285 24.6684 30.7618 27.9786C31.1413 31.502 29.6602 33.8295 26.3185 34.961C23.2513 35.4375 20.9889 34.3144 19.5313 31.5919C18.3743 28.098 19.3997 25.4775 22.6075 23.7305C23.0718 23.5702 23.5275 23.4237 23.9747 23.2911Z" fill="#FFB701"/>
<path fill-rule="evenodd" clip-rule="evenodd" d="M24.6583 24.6582C25.4246 24.5906 25.7827 24.9486 25.7325 25.7324C26.6897 26.1834 27.1291 26.9321 27.0509 27.9785C26.8486 28.4319 26.5068 28.5784 26.0255 28.418C25.7118 28.1513 25.5653 27.8095 25.5861 27.3926C25.1303 27.0019 24.6746 27.0019 24.2189 27.3926C24.0843 27.8308 24.1982 28.1725 24.5607 28.418C26.6293 28.4666 27.4594 29.492 27.0509 31.4941C26.7788 32.0756 26.3394 32.4662 25.7325 32.666C25.7224 33.6383 25.2829 33.9312 24.4142 33.5449C24.3041 33.264 24.239 32.971 24.2189 32.666C23.21 32.2111 22.7543 31.4299 22.8517 30.3223C23.3028 29.8024 23.7585 29.8024 24.2189 30.3223C24.2149 31.1594 24.6218 31.4686 25.4396 31.25C25.7862 30.8856 25.8188 30.495 25.5372 30.0781C24.607 30.1094 23.8094 29.8001 23.1446 29.1504C22.4359 27.9686 22.5823 26.9107 23.5841 25.9766C23.7941 25.8388 24.022 25.7573 24.2677 25.7324C24.1853 25.2795 24.3154 24.9214 24.6583 24.6582Z" fill="#FFD44E"/>
<path opacity="0.988" fill-rule="evenodd" clip-rule="evenodd" d="M11.9629 37.7441C11.5905 37.8086 11.2325 37.9225 10.8887 38.0859C9.57986 38.3605 8.31033 38.2467 7.08007 37.7441C4.94389 36.3992 4.14637 34.4786 4.68749 31.9824C5.50054 29.722 7.11187 28.5176 9.52147 28.3691C12.5693 28.6501 14.262 30.3103 14.5996 33.3496C14.4813 35.2867 13.6024 36.7516 11.9629 37.7441Z" fill="#FEDFC4"/>
<path opacity="0.989" fill-rule="evenodd" clip-rule="evenodd" d="M42.8225 37.7441C42.4501 37.8086 42.0921 37.9224 41.7482 38.0859C40.4378 38.3658 39.1683 38.2518 37.9397 37.7441C35.289 35.8944 34.6867 33.518 36.133 30.6152C37.6208 28.6652 39.5576 27.9979 41.9436 28.6132C44.5301 29.6405 45.6531 31.5448 45.3127 34.3261C44.9456 35.8143 44.1155 36.9537 42.8225 37.7441Z" fill="#FEDFC4"/>
<path opacity="0.99" fill-rule="evenodd" clip-rule="evenodd" d="M7.08008 37.7441C8.31034 38.2467 9.57987 38.3605 10.8887 38.0859C11.2325 37.9225 11.5905 37.8086 11.9629 37.7441C15.4797 38.2823 17.5793 40.3006 18.2617 43.7988C18.3269 45.4915 18.3269 47.1843 18.2617 48.877C18.1804 48.9583 18.0989 49.0397 18.0176 49.1211C12.3535 49.1862 6.68945 49.1862 1.02539 49.1211C0.944011 49.0397 0.86263 48.9583 0.78125 48.877C0.716146 47.2493 0.716146 45.6218 0.78125 43.9941C1.19047 41.2394 2.67159 39.3025 5.22461 38.1836C5.82591 37.9601 6.44439 37.8136 7.08008 37.7441Z" fill="#41B737"/>
<path opacity="0.99" fill-rule="evenodd" clip-rule="evenodd" d="M37.9395 37.7441C39.1681 38.2519 40.4376 38.3658 41.7481 38.0859C42.0919 37.9225 42.4499 37.8086 42.8223 37.7441C45.5422 38.1192 47.479 39.5515 48.6328 42.041C48.8876 42.6693 49.0503 43.3204 49.1211 43.9941C49.1863 45.6218 49.1863 47.2493 49.1211 48.877C49.0398 48.9583 48.9583 49.0397 48.877 49.1211C43.2129 49.1862 37.5489 49.1862 31.8848 49.1211C31.8034 49.0397 31.722 48.9583 31.6406 48.877C31.5755 47.1843 31.5755 45.4915 31.6406 43.7988C32.3231 40.3006 34.4227 38.2823 37.9395 37.7441Z" fill="#F28A29"/>
</g>
<defs>
<clipPath id="clip0_14405_62490">
<rect width="50" height="50" fill="white"/>
</clipPath>
</defs>
</svg>
