<svg width="115" height="114" viewBox="0 0 115 114" fill="none" xmlns="http://www.w3.org/2000/svg">
<path d="M57.5008 62.3883C74.7288 62.3883 88.6949 48.4222 88.6949 31.1941C88.6949 13.9661 74.7288 0 57.5008 0C40.2727 0 26.3066 13.9661 26.3066 31.1941C26.3066 48.4222 40.2727 62.3883 57.5008 62.3883Z" fill="white"/>
<path d="M57.5008 61.0523C73.991 61.0523 87.359 47.6844 87.359 31.1941C87.359 14.7039 73.991 1.33594 57.5008 1.33594C41.0106 1.33594 27.6426 14.7039 27.6426 31.1941C27.6426 47.6844 41.0106 61.0523 57.5008 61.0523Z" fill="#FFDD33"/>
<path d="M53.2936 53.1258V49.7859C50.1987 48.8063 47.9054 47.0695 46.2577 44.4422C45.2112 42.7723 44.6323 40.8352 44.6323 38.8535L44.61 36.7828H53.0042L53.0932 38.7199C53.1155 39.0539 53.1823 39.3656 53.2936 39.6773V34.3336H53.2714C51.9577 33.7992 50.6886 33.1758 49.4639 32.441C46.7698 30.7488 45.1444 28.3219 44.6991 25.4719C44.2538 22.5328 45.2112 19.3266 47.2597 16.9219C48.8405 15.0516 50.9335 13.6934 53.2714 12.9809V9.24023H61.4651V12.9141C64.6268 13.8492 67.0093 15.6082 68.7237 18.2801C69.7925 19.9723 70.3714 21.9316 70.3714 23.9355L70.3936 26.0063H62.0218L61.9104 24.0914C61.8882 23.6016 61.7323 23.1117 61.4651 22.6887V28.2773C62.9124 28.8117 64.2929 29.502 65.5843 30.348C68.2561 32.0848 69.8815 34.5117 70.3046 37.384C70.7276 40.2785 69.7925 43.4402 67.7663 45.8227C66.1409 47.7598 64.0702 49.0957 61.4651 49.8527V53.1258H53.2936ZM61.4874 40.1004C61.5987 39.9223 61.6878 39.7219 61.7768 39.5215C62.0663 38.7645 61.9327 38.3859 61.5987 38.0297C61.5764 37.9852 61.5319 37.9629 61.5097 37.9184L61.4874 40.1004ZM53.2936 23.1117L53.2491 23.223C52.9819 23.9578 53.1155 24.3141 53.2936 24.559V23.1117Z" fill="white"/>
<path d="M55.0524 51.7898H54.6294V48.7617C51.3786 47.9602 49.0184 46.3125 47.3708 43.7297C46.4579 42.2602 45.9458 40.568 45.9458 38.8312V38.1187H51.7126L51.7571 38.7867C51.8017 39.9668 52.3583 41.0578 53.2712 41.7926C53.672 42.1488 54.1395 42.4383 54.6294 42.6609V33.443C54.3622 33.3094 54.0727 33.198 53.8056 33.0867C52.5587 32.5969 51.3341 31.9957 50.1763 31.3055C47.8384 29.8137 46.3911 27.743 46.0126 25.2715C45.6341 22.7109 46.4802 19.9055 48.2837 17.7902C49.9313 15.8754 52.1579 14.5395 54.6294 14.0051V10.5762H60.1513V13.916C63.4911 14.673 65.9181 16.3207 67.6102 18.9703C68.5454 20.4398 69.0575 22.1766 69.0575 23.9133V24.6258H63.2907L63.2462 23.9578C63.2016 22.8445 62.7118 21.8203 61.888 21.0855C61.3759 20.618 60.797 20.2395 60.1513 19.9723V29.168C61.8212 29.7023 63.402 30.4594 64.8716 31.4168C67.2095 32.9531 68.6345 35.0684 68.9907 37.5176C69.3692 40.0559 68.5231 42.8168 66.7642 44.9098C65.1165 46.8469 62.979 48.116 60.2181 48.7617L60.1513 48.784V51.7676H55.0524V51.7898ZM60.1513 42.75C61.6208 42.1488 62.5337 41.2805 63.0235 39.9891C63.4688 38.8535 63.313 37.8961 62.5782 37.1168C61.888 36.4266 61.0642 35.8699 60.1735 35.4914L60.1513 42.75ZM54.6294 20.0836C53.4493 20.618 52.3806 21.6867 51.9798 22.8C51.579 23.9133 51.7126 24.8039 52.3806 25.5832C53.004 26.2734 53.7833 26.8078 54.6294 27.1863V20.0836Z" fill="#0054A6"/>
<path d="M15.2414 114V78.0188H4.57617L23.5687 50.3649L42.5836 78.0188H31.9629V114H15.2414Z" fill="white"/>
<path d="M7.11523 76.6828H16.5781V112.664H30.6277V76.6828H40.0461L23.5695 52.725L7.11523 76.6828Z" fill="#0054A6"/>
<path d="M83.0852 114V78.0188H72.4199L91.4125 50.3649L110.427 78.0188H99.8066V114H83.0852Z" fill="white"/>
<path d="M91.4113 52.725L74.957 76.6828H84.4199V112.664H98.4695V76.6828H107.888L91.4113 52.725Z" fill="#0054A6"/>
<path d="M49.1527 114V94.3394H38.5098L57.5023 66.7078L76.4949 94.3394H65.8742V114H49.1527Z" fill="white"/>
<path d="M41.0469 93.0035H50.4875V112.664H64.5371V93.0035H73.9555L57.5012 69.068L41.0469 93.0035Z" fill="#0054A6"/>
</svg>
