<svg width="48" height="48" viewBox="0 0 48 48" fill="none" xmlns="http://www.w3.org/2000/svg">
<path d="M38.8 1.5V46.5C38.8 47.3 38.1 48 37.3 48H1.5C0.7 48 0 47.3 0 46.5V10.1H6.3C6.4 10.1 6.6 10.1 6.7 10.1C6.8 10.1 6.9 10.1 7 10C8.2 9.6 9 8.4 9 7V0H37.4C38.2 0 38.8 0.7 38.8 1.5Z" fill="#D2D9DC"/>
<path d="M10.2001 26.3C11.3001 28.2 16.3001 27.5 21.3001 24.6C26.3001 21.7 29.4001 17.8 28.3001 15.8C27.2001 13.9 22.2001 14.6 17.2001 17.5C12.2001 20.4 9.10005 24.3 10.2001 26.3ZM26.6001 16.8C27.5001 18.4 25.0001 21.6 20.9001 23.9C16.8001 26.2 12.8001 26.9 11.9001 25.3C11.0001 23.7 13.5001 20.5 17.6001 18.2C21.7001 15.9 25.7001 15.2 26.6001 16.8Z" fill="#ED1C24"/>
<path d="M28.3001 26.3C29.4001 24.4 26.3001 20.4 21.3001 17.5C16.3001 14.6 11.3001 13.9 10.2001 15.8C9.10005 17.7 12.2001 21.7 17.2001 24.6C22.2001 27.5 27.2001 28.2 28.3001 26.3ZM11.9001 16.8C12.8001 15.2 16.9001 15.8 20.9001 18.2C24.9001 20.6 27.5001 23.7 26.6001 25.3C25.7001 26.9 21.6001 26.3 17.6001 23.9C13.6001 21.5 11.0001 18.4 11.9001 16.8Z" fill="#0054A6"/>
<path d="M19.2992 10.6001C17.0992 10.6001 15.1992 15.3001 15.1992 21.1001C15.1992 26.9001 16.9992 31.6001 19.2992 31.6001C21.5992 31.6001 23.3992 26.9001 23.3992 21.1001C23.2992 15.3001 21.4992 10.6001 19.2992 10.6001ZM19.2992 29.6001C17.4992 29.6001 15.9992 25.8001 15.9992 21.1001C15.9992 16.4001 17.4992 12.6001 19.2992 12.6001C21.0992 12.6001 22.5992 16.4001 22.5992 21.1001C22.5992 25.8001 21.0992 29.6001 19.2992 29.6001Z" fill="#FFDD33"/>
<path d="M20.5004 21.1C20.5004 21.8001 19.9004 22.4 19.2004 22.4C18.5004 22.4 17.9004 21.8001 17.9004 21.1C17.9004 20.4 18.5004 19.8 19.2004 19.8C20.0004 19.8 20.5004 20.3 20.5004 21.1Z" fill="#002548"/>
<path d="M4.90039 37.5V38.4001C4.90039 38.5001 5.00039 38.6 5.10039 38.6H33.8004C33.9004 38.6 34.0004 38.5001 34.0004 38.4001V37.5C34.0004 37.4 33.9004 37.3 33.8004 37.3H5.10039C5.00039 37.3 4.90039 37.4 4.90039 37.5Z" fill="#839299"/>
<path d="M4.90039 41.4V42.2999C4.90039 42.3999 5.00039 42.5 5.10039 42.5H26.8004C26.9004 42.5 27.0004 42.3999 27.0004 42.2999V41.4C27.0004 41.3 26.9004 41.2 26.8004 41.2H5.10039C5.00039 41.2 4.90039 41.3 4.90039 41.4Z" fill="#839299"/>
<path d="M4.90039 33.6001V34.5001C4.90039 34.6001 5.00039 34.7001 5.10039 34.7001H33.8004C33.9004 34.7001 34.0004 34.6001 34.0004 34.5001V33.6001C34.0004 33.5001 33.9004 33.4001 33.8004 33.4001H5.10039C5.00039 33.3001 4.90039 33.5001 4.90039 33.6001Z" fill="#839299"/>
<path d="M9 0V8.5C9 9.3 8.3 10 7.5 10H0L9 0Z" fill="#839299"/>
<path d="M19.9008 7.0999V7.9999C19.9008 8.0999 19.8008 8.1999 19.7008 8.1999H12.5008C12.4008 8.1999 12.3008 8.0999 12.3008 7.9999V7.0999C12.3008 6.9999 12.4008 6.8999 12.5008 6.8999H19.7008C19.8008 6.8999 19.9008 6.9999 19.9008 7.0999Z" fill="#0054A6"/>
<path d="M24.9008 3.5999V4.4999C24.9008 4.5999 24.8008 4.6999 24.7008 4.6999H12.5008C12.4008 4.6999 12.3008 4.5999 12.3008 4.4999V3.5999C12.3008 3.4999 12.4008 3.3999 12.5008 3.3999H24.6008C24.8008 3.3999 24.9008 3.4999 24.9008 3.5999Z" fill="#ED1C24"/>
<path d="M47.9992 32.7001V37.8001C47.9992 38.4001 47.4992 38.9001 46.8992 38.9001H23.7992C23.1992 38.9001 22.6992 38.4001 22.6992 37.8001V32.7001C22.6992 32.1001 23.1992 31.6001 23.7992 31.6001H46.8992C47.4992 31.6001 47.9992 32.1001 47.9992 32.7001Z" fill="#0054A6"/>
<path d="M24.0996 39H46.6996V40.8H24.0996V39Z" fill="#002548"/>
<path d="M47.9992 41.7001V46.8001C47.9992 47.4001 47.4992 47.9001 46.8992 47.9001H23.7992C23.1992 47.9001 22.6992 47.4001 22.6992 46.8001V41.7001C22.6992 41.1001 23.1992 40.6001 23.7992 40.6001H46.8992C47.4992 40.6001 47.9992 41.1001 47.9992 41.7001Z" fill="#0054A6"/>
<path d="M45.5004 34.9001V35.7001C45.5004 35.9001 45.4004 36.0001 45.2004 36.0001H36.7004C36.5004 36.0001 36.4004 35.9001 36.4004 35.7001V34.9001C36.4004 34.7001 36.5004 34.6001 36.7004 34.6001H45.2004C45.4004 34.6001 45.5004 34.8001 45.5004 34.9001Z" fill="#002548"/>
<path d="M27.7008 35.3001C27.7008 36.0001 27.1008 36.5001 26.5008 36.5001C25.8008 36.5001 25.3008 35.9001 25.3008 35.3001C25.3008 34.6001 25.9008 34.1001 26.5008 34.1001C27.1008 34.1001 27.7008 34.6001 27.7008 35.3001Z" fill="#ED1C24"/>
<path d="M30.4 35.3001C30.4 35.7001 30.1 36.0001 29.7 36.0001C29.3 36.0001 29 35.7001 29 35.3001C29 34.9001 29.3 34.6001 29.7 34.6001C30.1 34.6001 30.4 34.9001 30.4 35.3001Z" fill="#FDC72E"/>
<path d="M33.0992 35.3001C33.0992 35.7001 32.7992 36.0001 32.3992 36.0001C31.9992 36.0001 31.6992 35.7001 31.6992 35.3001C31.6992 34.9001 31.9992 34.6001 32.3992 34.6001C32.7992 34.6001 33.0992 34.9001 33.0992 35.3001Z" fill="#E9E9FF"/>
<path d="M45.5004 43.8V44.6C45.5004 44.8 45.4004 44.9 45.2004 44.9H36.7004C36.5004 44.9 36.4004 44.8 36.4004 44.6V43.8C36.4004 43.6 36.5004 43.5 36.7004 43.5H45.2004C45.4004 43.5 45.5004 43.6 45.5004 43.8Z" fill="#002548"/>
<path d="M27.7008 44.2C27.7008 44.9 27.1008 45.4 26.5008 45.4C25.8008 45.4 25.3008 44.8 25.3008 44.2C25.3008 43.5 25.9008 43 26.5008 43C27.1008 42.9 27.7008 43.5 27.7008 44.2Z" fill="#ED1C24"/>
<path d="M30.4 44.2C30.4 44.6 30.1 44.9 29.7 44.9C29.3 44.9 29 44.6 29 44.2C29 43.8 29.3 43.5 29.7 43.5C30.1 43.5 30.4 43.8 30.4 44.2Z" fill="#FDC72E"/>
<path d="M33.0992 44.2C33.0992 44.6 32.7992 44.9 32.3992 44.9C31.9992 44.9 31.6992 44.6 31.6992 44.2C31.6992 43.8 31.9992 43.5 32.3992 43.5C32.7992 43.5 33.0992 43.8 33.0992 44.2Z" fill="#E9E9FF"/>
</svg>
