<svg width="114" height="114" viewBox="0 0 114 114" fill="none" xmlns="http://www.w3.org/2000/svg">
<path d="M53.6839 54.4105H44.1005C42.8035 54.4105 41.7227 53.3316 41.7227 52.0369V26.4298C41.7227 25.1351 42.8035 24.0562 44.1005 24.0562H56.1338V52.1088C56.1338 53.3316 55.053 54.4105 53.6839 54.4105Z" fill="#002548"/>
<path d="M70.5468 16H56.1357C54.8387 16 53.7578 17.0789 53.7578 18.3737V54.4105H60.9634L63.3412 52.8281L65.7191 54.4105H70.5468C71.8438 54.4105 72.9246 53.3316 72.9246 52.0368V18.3737C72.9967 17.0789 71.9159 16 70.5468 16Z" fill="#0054A6"/>
<path d="M63.3407 29.5945C64.654 29.5945 65.7186 28.5318 65.7186 27.2209C65.7186 25.9099 64.654 24.8472 63.3407 24.8472C62.0275 24.8472 60.9629 25.9099 60.9629 27.2209C60.9629 28.5318 62.0275 29.5945 63.3407 29.5945Z" fill="#D2D9DC"/>
<path d="M63.3407 39.1614C64.654 39.1614 65.7186 38.0987 65.7186 36.7877C65.7186 35.4768 64.654 34.4141 63.3407 34.4141C62.0275 34.4141 60.9629 35.4768 60.9629 36.7877C60.9629 38.0987 62.0275 39.1614 63.3407 39.1614Z" fill="#54CC5A"/>
<path d="M63.3407 43.2612C62.0437 43.2612 60.9629 44.3402 60.9629 45.6349V54.4104H65.7906V45.6349C65.7186 44.2682 64.7098 43.2612 63.3407 43.2612Z" fill="#ED1C24"/>
<path d="M21.4774 44.8439C20.1804 44.8439 19.0996 43.765 19.0996 42.4702V31.2492C19.0996 29.9544 20.1804 28.8755 21.4774 28.8755H31.1329C32.4299 28.8755 33.5108 29.9544 33.5108 31.2492C33.5108 32.5439 32.4299 33.6229 31.1329 33.6229H23.9273V42.3983C23.8553 43.765 22.7745 44.8439 21.4774 44.8439Z" fill="#002548"/>
<path d="M92.3792 44.8439C91.0822 44.8439 90.0014 43.765 90.0014 42.4702V33.6229H82.7958C81.4988 33.6229 80.418 32.5439 80.418 31.2492C80.418 29.9544 81.4988 28.8755 82.7958 28.8755H92.4513C93.7483 28.8755 94.8291 29.9544 94.8291 31.2492V42.4702C94.7571 43.765 93.7483 44.8439 92.3792 44.8439Z" fill="#002548"/>
<path d="M31.1329 97.9997H21.4774C20.1804 97.9997 19.0996 96.9207 19.0996 95.626V84.4049C19.0996 83.1102 20.1804 82.0312 21.4774 82.0312C22.7745 82.0312 23.8553 83.1102 23.8553 84.4049V93.1804H31.0609C32.3579 93.1804 33.4387 94.2593 33.4387 95.5541C33.4387 96.8488 32.4299 97.9997 31.1329 97.9997Z" fill="#002548"/>
<path d="M92.381 97.9997H82.7255C81.4285 97.9997 80.3477 96.9207 80.3477 95.626C80.3477 94.3312 81.4285 93.2523 82.7255 93.2523H89.9311V84.4049C89.9311 83.1102 91.0119 82.0312 92.3089 82.0312C93.6059 82.0312 94.6868 83.1102 94.6868 84.4049V95.626C94.7588 96.9207 93.75 97.9997 92.381 97.9997Z" fill="#002548"/>
<path d="M87.5516 75.2703C93.3219 75.2703 97.9997 70.6007 97.9997 64.8405C97.9997 59.0802 93.3219 54.4106 87.5516 54.4106C81.7813 54.4106 77.1035 59.0802 77.1035 64.8405C77.1035 70.6007 81.7813 75.2703 87.5516 75.2703Z" fill="#ED1C24"/>
<path d="M69.7523 97.9997H44.1005C42.8035 97.9997 41.7227 96.9207 41.7227 95.626V94.0435C41.7227 87.426 47.1268 82.0312 53.756 82.0312H60.1689C66.7981 82.0312 72.2022 87.426 72.2022 94.0435V95.626C72.2022 96.9207 71.1214 97.9997 69.7523 97.9997Z" fill="#0054A6"/>
<path d="M56.9275 85.1246C61.7825 85.1246 65.7183 81.1957 65.7183 76.3492C65.7183 71.5026 61.7825 67.5737 56.9275 67.5737C52.0725 67.5737 48.1367 71.5026 48.1367 76.3492C48.1367 81.1957 52.0725 85.1246 56.9275 85.1246Z" fill="#0054A6"/>
<path d="M43.9576 59.2296C42.6606 59.2296 41.5798 60.3086 41.5798 61.6033V63.977H38.5534V61.6033C38.5534 60.3086 37.4726 59.2296 36.1756 59.2296C34.8786 59.2296 33.7978 60.3086 33.7978 61.6033V63.977H29.9788C28.97 61.1717 26.304 59.1577 23.2056 59.1577C19.2425 59.1577 16 62.3946 16 66.3507C16 70.3068 19.2425 73.5437 23.2056 73.5437C26.376 73.5437 29.0421 71.5296 29.9788 68.7244H43.9576C45.2546 68.7244 46.3355 67.6454 46.3355 66.3507V61.5314C46.3355 60.3086 45.2546 59.2296 43.9576 59.2296ZM23.0615 68.8682C21.7645 68.8682 20.6836 67.7893 20.6836 66.4946C20.6836 65.1998 21.7645 64.1209 23.0615 64.1209C24.3585 64.1209 25.4393 65.1998 25.4393 66.4946C25.4393 67.7893 24.4305 68.8682 23.0615 68.8682Z" fill="#FFDD33"/>
</svg>
