<svg width="140" height="112" viewBox="0 0 140 112" fill="none" xmlns="http://www.w3.org/2000/svg">
<path d="M68.041 112C105.619 112 136.082 110.34 136.082 108.292C136.082 106.244 105.619 104.583 68.041 104.583C30.463 104.583 0 106.244 0 108.292C0 110.34 30.463 112 68.041 112Z" fill="#D2D9DC"/>
<path d="M42.8088 76.7588H0.880192C0.413645 76.7588 0.0361328 76.3812 0.0361328 75.9146V2.86402C0.0361328 2.39737 0.413645 2.01978 0.880192 2.01978H42.8088C43.2754 2.01978 43.6529 2.39737 43.6529 2.86402V75.9146C43.6529 76.3812 43.2754 76.7588 42.8088 76.7588Z" fill="#0054A6"/>
<path opacity="0.7" d="M42.8088 76.7588H0.880192C0.413645 76.7588 0.0361328 76.3812 0.0361328 75.9146V2.86402C0.0361328 2.39737 0.413645 2.01978 0.880192 2.01978H42.8088C43.2754 2.01978 43.6529 2.39737 43.6529 2.86402V75.9146C43.6529 76.3812 43.2754 76.7588 42.8088 76.7588Z" fill="white"/>
<path d="M11.2152 11.4849H2.99902V12.5998H11.2152V11.4849Z" fill="#0054A6"/>
<path d="M11.2152 13.9927H2.99902V15.1077H11.2152V13.9927Z" fill="#0054A6"/>
<path d="M40.4726 11.4849H32.2563V12.5998H40.4726V11.4849Z" fill="#0054A6"/>
<path d="M25.1547 6.33057H16.9385V7.44554H25.1547V6.33057Z" fill="#0054A6"/>
<path d="M40.4723 4.38184H2.99902V5.49681H40.4723V4.38184Z" fill="#0054A6"/>
<path d="M40.4685 17.4695H7.17627V18.5845H40.4685V17.4695Z" fill="#0054A6"/>
<path d="M40.4723 19.6995H2.99902V20.8144H40.4723V19.6995Z" fill="#0054A6"/>
<path d="M40.4723 21.9258H2.99902V23.0408H40.4723V21.9258Z" fill="#0054A6"/>
<path d="M40.4723 24.1558H2.99902V25.2707H40.4723V24.1558Z" fill="#0054A6"/>
<path d="M36.2912 26.3821H2.99902V27.4971H36.2912V26.3821Z" fill="#0054A6"/>
<path d="M40.4685 30.429H7.17627V31.5439H40.4685V30.429Z" fill="#0054A6"/>
<path d="M40.4723 32.6589H2.99902V33.7739H40.4723V32.6589Z" fill="#0054A6"/>
<path d="M40.4723 34.8853H2.99902V36.0002H40.4723V34.8853Z" fill="#0054A6"/>
<path d="M40.4723 37.115H2.99902V38.23H40.4723V37.115Z" fill="#0054A6"/>
<path d="M36.2912 39.345H2.99902V40.4599H36.2912V39.345Z" fill="#0054A6"/>
<path d="M40.4685 43.3918H7.17627V44.5068H40.4685V43.3918Z" fill="#0054A6"/>
<path d="M40.4723 45.6182H2.99902V46.7331H40.4723V45.6182Z" fill="#0054A6"/>
<path d="M40.4723 47.8481H2.99902V48.9631H40.4723V47.8481Z" fill="#0054A6"/>
<path d="M40.4723 50.0745H2.99902V51.1894H40.4723V50.0745Z" fill="#0054A6"/>
<path d="M36.2912 52.3042H2.99902V53.4192H36.2912V52.3042Z" fill="#0054A6"/>
<path d="M40.4685 56.7678H7.17627V57.8828H40.4685V56.7678Z" fill="#0054A6"/>
<path d="M40.4723 58.9944H2.99902V60.1094H40.4723V58.9944Z" fill="#0054A6"/>
<path d="M40.4723 61.2244H2.99902V62.3393H40.4723V61.2244Z" fill="#0054A6"/>
<path d="M40.4723 63.4543H2.99902V64.5693H40.4723V63.4543Z" fill="#0054A6"/>
<path d="M36.2912 65.6807H2.99902V66.7956H36.2912V65.6807Z" fill="#0054A6"/>
<path d="M40.4726 72.1035H32.2563V73.2185H40.4726V72.1035Z" fill="#0054A6"/>
<g opacity="0.2">
<path d="M11.2152 11.4849H2.99902V12.5998H11.2152V11.4849Z" fill="white"/>
<path d="M11.2152 13.9927H2.99902V15.1077H11.2152V13.9927Z" fill="white"/>
<path d="M40.4726 11.4849H32.2563V12.5998H40.4726V11.4849Z" fill="white"/>
<path d="M25.1547 6.33057H16.9385V7.44554H25.1547V6.33057Z" fill="white"/>
<path d="M40.4723 4.38184H2.99902V5.49681H40.4723V4.38184Z" fill="white"/>
<path d="M40.4685 17.4695H7.17627V18.5845H40.4685V17.4695Z" fill="white"/>
<path d="M40.4723 19.6995H2.99902V20.8144H40.4723V19.6995Z" fill="white"/>
<path d="M40.4723 21.9258H2.99902V23.0408H40.4723V21.9258Z" fill="white"/>
<path d="M40.4723 24.1558H2.99902V25.2707H40.4723V24.1558Z" fill="white"/>
<path d="M36.2912 26.3821H2.99902V27.4971H36.2912V26.3821Z" fill="white"/>
<path d="M40.4685 30.429H7.17627V31.5439H40.4685V30.429Z" fill="white"/>
<path d="M40.4723 32.6589H2.99902V33.7739H40.4723V32.6589Z" fill="white"/>
<path d="M40.4723 34.8853H2.99902V36.0002H40.4723V34.8853Z" fill="white"/>
<path d="M40.4723 37.115H2.99902V38.23H40.4723V37.115Z" fill="white"/>
<path d="M36.2912 39.345H2.99902V40.4599H36.2912V39.345Z" fill="white"/>
<path d="M40.4685 43.3918H7.17627V44.5068H40.4685V43.3918Z" fill="white"/>
<path d="M40.4723 45.6182H2.99902V46.7331H40.4723V45.6182Z" fill="white"/>
<path d="M40.4723 47.8481H2.99902V48.9631H40.4723V47.8481Z" fill="white"/>
<path d="M40.4723 50.0745H2.99902V51.1894H40.4723V50.0745Z" fill="white"/>
<path d="M36.2912 52.3042H2.99902V53.4192H36.2912V52.3042Z" fill="white"/>
<path d="M40.4685 56.7678H7.17627V57.8828H40.4685V56.7678Z" fill="white"/>
<path d="M40.4723 58.9944H2.99902V60.1094H40.4723V58.9944Z" fill="white"/>
<path d="M40.4723 61.2244H2.99902V62.3393H40.4723V61.2244Z" fill="white"/>
<path d="M40.4723 63.4543H2.99902V64.5693H40.4723V63.4543Z" fill="white"/>
<path d="M36.2912 65.6807H2.99902V66.7956H36.2912V65.6807Z" fill="white"/>
<path d="M40.4726 72.1035H32.2563V73.2185H40.4726V72.1035Z" fill="white"/>
</g>
<path d="M52.9727 32.4556H26.5897C26.1231 32.4556 25.7456 32.078 25.7456 31.6113V9.97437C25.7456 9.50772 26.1231 9.13013 26.5897 9.13013H52.9727C53.4392 9.13013 53.8168 9.50772 53.8168 9.97437V31.6113C53.8168 32.078 53.4392 32.4556 52.9727 32.4556Z" fill="#0054A6"/>
<path opacity="0.3" d="M52.9727 32.4556H26.5897C26.1231 32.4556 25.7456 32.078 25.7456 31.6113V9.97437C25.7456 9.50772 26.1231 9.13013 26.5897 9.13013H52.9727C53.4392 9.13013 53.8168 9.50772 53.8168 9.97437V31.6113C53.8168 32.078 53.4392 32.4556 52.9727 32.4556Z" fill="white"/>
<path d="M45.7042 12.1648H36.8647V14.4909H45.7042V12.1648Z" fill="#0054A6"/>
<path d="M41.0504 14.9541H36.8647V29.3776H41.0504V14.9541Z" fill="#0054A6"/>
<path d="M50.8182 12.1648H46.167V14.4909H50.8182V12.1648Z" fill="#0054A6"/>
<path d="M50.8182 14.9541H46.167V29.3776H50.8182V14.9541Z" fill="#0054A6"/>
<path d="M45.7012 14.9541H41.5156V29.3776H45.7012V14.9541Z" fill="#0054A6"/>
<path d="M36.4019 14.9541H28.9585V29.3776H36.4019V14.9541Z" fill="#0054A6"/>
<path d="M36.4019 12.1648H28.9585V14.4909H36.4019V12.1648Z" fill="#0054A6"/>
<path d="M133.736 84.5565H101.038C100.112 84.5565 99.3608 83.8049 99.3608 82.8787V50.1739C99.3608 49.2477 100.112 48.4961 101.038 48.4961H133.736C134.662 48.4961 135.413 49.2477 135.413 50.1739V82.8787C135.413 83.8049 134.662 84.5565 133.736 84.5565Z" fill="#0054A6"/>
<path opacity="0.25" d="M130.854 53.2087H104.072V79.8435H130.854V53.2087Z" fill="white"/>
<path opacity="0.25" d="M104.072 79.8116L110.892 74.2047L113.122 76L120.181 70.0369L123.649 73.4531L130.854 67.408V79.8116H104.072Z" fill="white"/>
<path opacity="0.25" d="M104.072 79.8115L109.845 68.9823L116.591 70.0332L121.63 63.4466L126.823 64.3799L130.854 60.3511V79.8115H104.072Z" fill="white"/>
<path opacity="0.25" d="M104.072 79.8117L117.388 78.1696L121.705 76.0073L126.36 76.4739L130.854 74.2297V79.8117H104.072Z" fill="white"/>
<path d="M138.323 42.9532H105.625C104.699 42.9532 103.948 42.2016 103.948 41.2754V8.57063C103.948 7.64445 104.699 6.89282 105.625 6.89282H138.323C139.249 6.89282 140 7.64445 140 8.57063V41.2754C140 42.2016 139.249 42.9532 138.323 42.9532Z" fill="#0054A6"/>
<path opacity="0.25" d="M135.367 11.6055H108.585V38.2402H135.367V11.6055Z" fill="white"/>
<path opacity="0.35" d="M114.014 27.9814H111.317V34.8993H114.014V27.9814Z" fill="white"/>
<path opacity="0.35" d="M114.014 27.9814H111.317V38.2442H114.014V27.9814Z" fill="white"/>
<path opacity="0.35" d="M118.668 23.1296H115.972V33.314H118.668V23.1296Z" fill="white"/>
<path opacity="0.35" d="M118.668 23.1296H115.972V38.2406H118.668V23.1296Z" fill="white"/>
<path opacity="0.35" d="M123.323 26.1111H120.626V34.2864H123.323V26.1111Z" fill="white"/>
<path opacity="0.35" d="M123.323 26.1111H120.626V38.2405H123.323V26.1111Z" fill="white"/>
<path opacity="0.35" d="M127.977 21.9253H125.281V32.9219H127.977V21.9253Z" fill="white"/>
<path opacity="0.35" d="M127.977 21.9253H125.281V38.2403H127.977V21.9253Z" fill="white"/>
<path opacity="0.35" d="M132.632 15.5278H129.936V30.8347H132.632V15.5278Z" fill="white"/>
<path opacity="0.35" d="M132.632 15.5278H129.936V38.2406H132.632V15.5278Z" fill="white"/>
<path d="M95.4574 36.0604H62.7599C61.834 36.0604 61.0825 35.3088 61.0825 34.3826V1.67781C61.0825 0.751629 61.834 0 62.7599 0H95.4574C96.3834 0 97.1348 0.751629 97.1348 1.67781V34.3826C97.1348 35.3088 96.3834 36.0604 95.4574 36.0604Z" fill="#0054A6"/>
<path opacity="0.25" d="M90.7802 19.9225C91.8263 13.4771 87.4504 7.40425 81.0063 6.35842C74.5623 5.31259 68.4904 9.68982 67.4443 16.1352C66.3983 22.5806 70.7742 28.6535 77.2182 29.6993C83.6623 30.7451 89.7342 26.3679 90.7802 19.9225Z" fill="white"/>
<path opacity="0.25" d="M79.1104 18.0283L90.7242 20.2369C89.6665 25.794 84.766 29.8514 79.1104 29.8514C72.6251 29.8514 67.29 24.5152 67.29 18.0283C67.29 11.5415 72.6251 6.20532 79.1104 6.20532V18.0283Z" fill="white"/>
<path opacity="0.25" d="M79.1106 18.0283L79.0749 29.8514C72.6038 29.8336 67.2866 24.5009 67.2866 18.0283C67.2866 11.5415 72.6216 6.20532 79.107 6.20532V18.0283H79.1106Z" fill="white"/>
<path opacity="0.25" d="M79.1109 18.0282L72.8784 7.97921C73.8044 7.40569 74.8052 6.96041 75.8522 6.66119C76.8993 6.36196 77.9819 6.20522 79.0717 6.20166L79.1109 18.0282Z" fill="white"/>
<path d="M90.6636 89.8927H27.8579C26.4582 89.8927 25.3257 88.7599 25.3257 87.3599V46.6223C25.3257 45.2224 26.4582 44.0896 27.8579 44.0896H90.66C92.0597 44.0896 93.1922 45.2224 93.1922 46.6223V87.3599C93.1958 88.7599 92.0597 89.8927 90.6636 89.8927Z" fill="#002548"/>
<path d="M90.6636 88.4286H27.8579C26.4582 88.4286 25.3257 87.2958 25.3257 85.8958V45.1582C25.3257 43.7583 26.4582 42.6255 27.8579 42.6255H90.66C92.0597 42.6255 93.1922 43.7583 93.1922 45.1582V85.8958C93.1958 87.2958 92.0597 88.4286 90.6636 88.4286Z" fill="#FFDD33"/>
<path d="M29.3721 46.6685V84.1252H88.8906V46.6685H29.3721ZM88.2317 54.028H81.5327V47.3275H88.2317V54.028ZM44.7467 62.0466H51.4458V68.7471H44.7467V62.0466ZM44.0879 68.7471H37.3888V62.0466H44.0879V68.7471ZM66.158 61.3876H59.459V54.687H66.158V61.3876ZM66.8169 54.687H73.5159V61.3876H66.8169V54.687ZM59.459 62.0466H66.158V68.7471H59.459V62.0466ZM58.8001 68.7471H52.1011V62.0466H58.8001V68.7471ZM58.8001 61.3876H52.1011V54.687H58.8001V61.3876ZM51.4422 61.3876H44.7432V54.687H51.4422V61.3876ZM51.4422 69.4061V76.1067H44.7432V69.4061H51.4422ZM52.1011 69.4061H58.8001V76.1067H52.1011V69.4061ZM59.459 69.4061H66.158V76.1067H59.459V69.4061ZM66.8169 69.4061H73.5159V76.1067H66.8169V69.4061ZM66.8169 68.7471V62.0466H73.5159V68.7471H66.8169ZM74.1748 62.0466H80.8738V68.7471H74.1748V62.0466ZM74.1748 61.3876V54.687H80.8738V61.3876H74.1748ZM74.1748 54.028V47.3275H80.8738V54.028H74.1748ZM73.5159 54.028H66.8169V47.3275H73.5159V54.028ZM66.158 54.028H59.459V47.3275H66.158V54.028ZM58.8001 54.028H52.1011V47.3275H58.8001V54.028ZM51.4422 54.028H44.7432V47.3275H51.4422V54.028ZM44.0843 54.028H37.3853V47.3275H44.0843V54.028ZM44.0879 54.687V61.3876H37.3888V54.687H44.0879ZM36.73 61.3876H30.0309V54.687H36.73V61.3876ZM36.73 62.0466V68.7471H30.0309V62.0466H36.73ZM36.73 69.4061V76.1067H30.0309V69.4061H36.73ZM37.3888 69.4061H44.0879V76.1067H37.3888V69.4061ZM44.0879 76.7657V83.4662H37.3888V76.7657H44.0879ZM44.7467 76.7657H51.4458V83.4662H44.7467V76.7657ZM52.1011 76.7657H58.8001V83.4662H52.1011V76.7657ZM59.459 76.7657H66.158V83.4662H59.459V76.7657ZM66.8169 76.7657H73.5159V83.4662H66.8169V76.7657ZM74.1748 76.7657H80.8738V83.4662H74.1748V76.7657ZM74.1748 76.1067V69.4061H80.8738V76.1067H74.1748ZM81.5327 69.4061H88.2317V76.1067H81.5327V69.4061ZM81.5327 68.7471V62.0466H88.2317V68.7471H81.5327ZM81.5327 61.3876V54.687H88.2317V61.3876H81.5327ZM36.73 47.3275V54.028H30.0309V47.3275H36.73ZM30.0309 76.7657H36.73V83.4662H30.0309V76.7657ZM81.5327 83.4662V76.7657H88.2317V83.4662H81.5327Z" fill="white"/>
<path opacity="0.8" d="M29.3721 46.6685V84.1252H88.8906V46.6685H29.3721ZM88.2317 54.028H81.5327V47.3275H88.2317V54.028ZM44.7467 62.0466H51.4458V68.7471H44.7467V62.0466ZM44.0879 68.7471H37.3888V62.0466H44.0879V68.7471ZM66.158 61.3876H59.459V54.687H66.158V61.3876ZM66.8169 54.687H73.5159V61.3876H66.8169V54.687ZM59.459 62.0466H66.158V68.7471H59.459V62.0466ZM58.8001 68.7471H52.1011V62.0466H58.8001V68.7471ZM58.8001 61.3876H52.1011V54.687H58.8001V61.3876ZM51.4422 61.3876H44.7432V54.687H51.4422V61.3876ZM51.4422 69.4061V76.1067H44.7432V69.4061H51.4422ZM52.1011 69.4061H58.8001V76.1067H52.1011V69.4061ZM59.459 69.4061H66.158V76.1067H59.459V69.4061ZM66.8169 69.4061H73.5159V76.1067H66.8169V69.4061ZM66.8169 68.7471V62.0466H73.5159V68.7471H66.8169ZM74.1748 62.0466H80.8738V68.7471H74.1748V62.0466ZM74.1748 61.3876V54.687H80.8738V61.3876H74.1748ZM74.1748 54.028V47.3275H80.8738V54.028H74.1748ZM73.5159 54.028H66.8169V47.3275H73.5159V54.028ZM66.158 54.028H59.459V47.3275H66.158V54.028ZM58.8001 54.028H52.1011V47.3275H58.8001V54.028ZM51.4422 54.028H44.7432V47.3275H51.4422V54.028ZM44.0843 54.028H37.3853V47.3275H44.0843V54.028ZM44.0879 54.687V61.3876H37.3888V54.687H44.0879ZM36.73 61.3876H30.0309V54.687H36.73V61.3876ZM36.73 62.0466V68.7471H30.0309V62.0466H36.73ZM36.73 69.4061V76.1067H30.0309V69.4061H36.73ZM37.3888 69.4061H44.0879V76.1067H37.3888V69.4061ZM44.0879 76.7657V83.4662H37.3888V76.7657H44.0879ZM44.7467 76.7657H51.4458V83.4662H44.7467V76.7657ZM52.1011 76.7657H58.8001V83.4662H52.1011V76.7657ZM59.459 76.7657H66.158V83.4662H59.459V76.7657ZM66.8169 76.7657H73.5159V83.4662H66.8169V76.7657ZM74.1748 76.7657H80.8738V83.4662H74.1748V76.7657ZM74.1748 76.1067V69.4061H80.8738V76.1067H74.1748ZM81.5327 69.4061H88.2317V76.1067H81.5327V69.4061ZM81.5327 68.7471V62.0466H88.2317V68.7471H81.5327ZM81.5327 61.3876V54.687H88.2317V61.3876H81.5327ZM36.73 47.3275V54.028H30.0309V47.3275H36.73ZM30.0309 76.7657H36.73V83.4662H30.0309V76.7657ZM81.5327 83.4662V76.7657H88.2317V83.4662H81.5327Z" fill="white"/>
<path d="M59.4308 69.3098L58.8965 68.8431L59.4273 68.3765L59.9616 68.8431L59.4308 69.3098Z" fill="#1A2E35"/>
<path d="M61.0228 67.9135L60.4922 67.4469L61.5535 66.5171L62.0841 66.9838L61.0228 67.9135ZM63.1455 66.0505L62.6148 65.5838L63.6761 64.6541L64.2068 65.1207L63.1455 66.0505ZM65.2681 64.1874L64.7374 63.7208L65.7987 62.791L66.3294 63.2577L65.2681 64.1874ZM67.3907 62.3244L66.86 61.8577L67.3301 61.4445L68.1884 61.0669L68.5232 61.6583L67.7753 61.986L67.3907 62.3244ZM69.8623 61.0705L69.5275 60.4792L70.8702 59.8914L71.2049 60.4827L69.8623 61.0705ZM72.5476 59.8914L72.2128 59.3001L73.5555 58.7123L73.8903 59.3036L72.5476 59.8914ZM75.2329 58.7123L74.8982 58.121L75.7137 57.7647L76.0449 57.4762L76.5756 57.9429L76.1589 58.3098L75.2329 58.7123ZM77.6369 57.0131L77.1062 56.5465L78.1675 55.6167L78.6982 56.0834L77.6369 57.0131ZM79.7595 55.1501L79.2288 54.6834L80.2901 53.7537L80.8208 54.2203L79.7595 55.1501ZM81.8821 53.287L81.3515 52.8204L82.4128 51.8906L82.9434 52.3573L81.8821 53.287ZM84.0047 51.424L83.4741 50.9573L84.5354 50.0276L85.066 50.4942L84.0047 51.424ZM86.1273 49.5609L85.5967 49.0943L86.658 48.1646L87.1886 48.6312L86.1273 49.5609Z" fill="#1A2E35"/>
<path d="M88.8916 49.4185H88.14V47.3275H85.7568V46.6685H88.8916V49.4185Z" fill="#1A2E35"/>
<g opacity="0.5">
<path d="M79.1428 64.2441L78.6763 63.7774L79.5951 62.8584L80.0617 63.325L79.1428 64.2441ZM80.9805 62.406L80.514 61.9393L81.4328 61.0203L81.8994 61.4869L80.9805 62.406ZM82.8182 60.5679L82.3517 60.1012L83.2705 59.1822L83.7371 59.6488L82.8182 60.5679ZM84.6523 58.7333L84.1858 58.2667L85.1046 57.3476L85.5712 57.8143L84.6523 58.7333ZM86.49 56.8952L86.0235 56.4286L86.9423 55.5095L87.4089 55.9762L86.49 56.8952Z" fill="#2D2F31"/>
<path d="M77.6616 65.7258H76.8672V65.0668H77.3873L77.7577 64.6963L78.2244 65.1629L77.6616 65.7258Z" fill="#2D2F31"/>
<path d="M66.6238 69.4057H65.9899V68.7467H66.3531L66.7805 68.3192L67.2471 68.7859L66.6238 69.4057ZM64.7505 69.4057H63.5111V68.7467H64.7505V69.4057ZM62.2682 69.4057H61.0288V68.7467H62.2682V69.4057ZM68.1232 67.9096L67.6566 67.4429L68.5327 66.5666L68.9993 67.0332L68.1232 67.9096ZM69.8754 66.1534L69.4088 65.6867L70.0285 65.0669H70.6625V65.7259H70.2992L69.8754 66.1534ZM75.6235 65.7259H74.3842V65.0669H75.6235V65.7259ZM73.1448 65.7259H71.9054V65.0669H73.1448V65.7259Z" fill="#2D2F31"/>
<path d="M59.7899 68.7471H59.1309V69.4061H59.7899V68.7471Z" fill="#2D2F31"/>
<path d="M88.8902 56.7779H88.2312V54.6868H86.1401V54.0278H88.8902V56.7779Z" fill="#2D2F31"/>
<g opacity="0.2">
<path d="M79.1428 64.2441L78.6763 63.7774L79.5951 62.8584L80.0617 63.325L79.1428 64.2441ZM80.9805 62.406L80.514 61.9393L81.4328 61.0203L81.8994 61.4869L80.9805 62.406ZM82.8182 60.5679L82.3517 60.1012L83.2705 59.1822L83.7371 59.6488L82.8182 60.5679ZM84.6523 58.7333L84.1858 58.2667L85.1046 57.3476L85.5712 57.8143L84.6523 58.7333ZM86.49 56.8952L86.0235 56.4286L86.9423 55.5095L87.4089 55.9762L86.49 56.8952Z" fill="#2D2F31"/>
<path d="M77.6616 65.7258H76.8672V65.0668H77.3873L77.7577 64.6963L78.2244 65.1629L77.6616 65.7258Z" fill="#2D2F31"/>
<path d="M66.6238 69.4057H65.9899V68.7467H66.3531L66.7805 68.3192L67.2471 68.7859L66.6238 69.4057ZM64.7505 69.4057H63.5111V68.7467H64.7505V69.4057ZM62.2682 69.4057H61.0288V68.7467H62.2682V69.4057ZM68.1232 67.9096L67.6566 67.4429L68.5327 66.5666L68.9993 67.0332L68.1232 67.9096ZM69.8754 66.1534L69.4088 65.6867L70.0285 65.0669H70.6625V65.7259H70.2992L69.8754 66.1534ZM75.6235 65.7259H74.3842V65.0669H75.6235V65.7259ZM73.1448 65.7259H71.9054V65.0669H73.1448V65.7259Z" fill="#2D2F31"/>
<path d="M59.7899 68.7471H59.1309V69.4061H59.7899V68.7471Z" fill="#2D2F31"/>
<path d="M88.8902 56.7779H88.2312V54.6868H86.1401V54.0278H88.8902V56.7779Z" fill="#2D2F31"/>
</g>
</g>
<g opacity="0.3">
<path d="M59.3615 68.8455L58.8955 69.3115L59.3615 69.7775L59.8275 69.3115L59.3615 68.8455Z" fill="#2D2F31"/>
<path d="M69.2137 73.0859H67.8462V72.4269H69.2137V73.0859ZM66.475 73.0859H65.1074V72.4269H66.475V73.0859ZM63.7398 73.0859H62.675L62.269 72.6798L62.7355 72.2132L62.9492 72.4269H63.7434L63.7398 73.0859ZM70.6917 72.6976L70.2252 72.231L71.1939 71.2621L71.6604 71.7287L70.6917 72.6976ZM61.3003 71.7109L60.3315 70.742L60.7981 70.2753L61.7668 71.2443L61.3003 71.7109ZM72.6291 70.7598L72.1626 70.2931L73.1313 69.3242L73.5979 69.7909L72.6291 70.7598ZM81.3404 69.4061H80.0049V68.7471H81.0697L81.0911 68.7258L81.1125 68.7471H81.2051V68.8398L81.5576 69.1924L81.3404 69.4061ZM78.6337 69.4061H77.2661V68.7471H78.6337V69.4061ZM75.8985 69.4061H74.531V68.7471H75.8985V69.4061ZM82.5228 68.2235L82.0562 67.7568L83.0249 66.7879L83.4915 67.2546L82.5228 68.2235ZM84.4566 66.2892L83.9901 65.8225L84.9588 64.8536L85.4254 65.3203L84.4566 66.2892ZM86.3941 64.3513L85.9275 63.8847L86.8962 62.9158L87.3628 63.3824L86.3941 64.3513Z" fill="#2D2F31"/>
<path d="M88.8912 64.1375H88.2321V62.0465H86.1411V61.3875H88.8912V64.1375Z" fill="#2D2F31"/>
<g opacity="0.3">
<path d="M59.3615 68.8455L58.8955 69.3115L59.3615 69.7775L59.8275 69.3115L59.3615 68.8455Z" fill="#2D2F31"/>
<path d="M69.2137 73.0859H67.8462V72.4269H69.2137V73.0859ZM66.475 73.0859H65.1074V72.4269H66.475V73.0859ZM63.7398 73.0859H62.675L62.269 72.6798L62.7355 72.2132L62.9492 72.4269H63.7434L63.7398 73.0859ZM70.6917 72.6976L70.2252 72.231L71.1939 71.2621L71.6604 71.7287L70.6917 72.6976ZM61.3003 71.7109L60.3315 70.742L60.7981 70.2753L61.7668 71.2443L61.3003 71.7109ZM72.6291 70.7598L72.1626 70.2931L73.1313 69.3242L73.5979 69.7909L72.6291 70.7598ZM81.3404 69.4061H80.0049V68.7471H81.0697L81.0911 68.7258L81.1125 68.7471H81.2051V68.8398L81.5576 69.1924L81.3404 69.4061ZM78.6337 69.4061H77.2661V68.7471H78.6337V69.4061ZM75.8985 69.4061H74.531V68.7471H75.8985V69.4061ZM82.5228 68.2235L82.0562 67.7568L83.0249 66.7879L83.4915 67.2546L82.5228 68.2235ZM84.4566 66.2892L83.9901 65.8225L84.9588 64.8536L85.4254 65.3203L84.4566 66.2892ZM86.3941 64.3513L85.9275 63.8847L86.8962 62.9158L87.3628 63.3824L86.3941 64.3513Z" fill="#2D2F31"/>
<path d="M88.8912 64.1375H88.2321V62.0465H86.1411V61.3875H88.8912V64.1375Z" fill="#2D2F31"/>
</g>
</g>
<path d="M33.5807 84.1254H29.6987V83.4664H33.1747L36.786 76.2422L40.6003 72.4271H47.9582L51.6371 68.7473H59.1303V69.4063H51.9078L48.2288 73.0861H40.8709L37.3273 76.6305L33.5807 84.1254Z" fill="#0054A6"/>
<g opacity="0.3">
<path d="M33.5807 84.1254H29.6987V83.4664H33.1747L36.786 76.2422L40.6003 72.4271H47.9582L51.6371 68.7473H59.1303V69.4063H51.9078L48.2288 73.0861H40.8709L37.3273 76.6305L33.5807 84.1254Z" fill="#1A2E35"/>
</g>
<path d="M73.7968 69.798C73.8004 69.9191 73.804 70.0402 73.804 70.1614C73.804 71.23 73.6579 72.2595 73.3873 73.2391C73.1166 74.2187 72.7213 75.1485 72.2156 76.0034C72.2298 76.0034 72.2405 76.0034 72.2547 75.9999C72.1372 76.2029 72.0126 76.3988 71.8844 76.5912C71.8701 76.5912 71.8594 76.5947 71.8452 76.5947C70.2924 78.8924 67.9347 80.6022 65.1746 81.3147L64.9467 81.3681C64.904 81.3788 64.8612 81.3895 64.8185 81.3966C64.0029 81.5819 63.1589 81.678 62.2863 81.678C61.6809 81.678 61.0861 81.6317 60.5056 81.5427C60.1317 81.4857 59.7613 81.4073 59.4016 81.3147C59.1238 81.2434 58.8495 81.1615 58.5789 81.0689V81.0938C58.3688 81.0226 58.1586 80.9442 57.9556 80.8623C56.0289 80.075 54.3621 78.7819 53.1228 77.1433C52.9732 76.9474 52.8307 76.7479 52.699 76.5449C52.6099 76.4095 52.5245 76.2741 52.4425 76.1352C52.3108 75.9179 52.1861 75.6971 52.0686 75.4691C52.0081 75.3515 51.9511 75.234 51.8941 75.1164C51.862 75.0559 51.8335 74.9917 51.805 74.9312C51.7623 74.8386 51.7231 74.7495 51.684 74.6569C51.1106 73.2854 50.79 71.7751 50.79 70.197C50.79 69.9761 50.7972 69.7553 50.8078 69.538C50.8221 69.2886 50.8435 69.0357 50.8755 68.7899C51.2601 65.6267 52.9269 62.8588 55.3415 61.0243C55.6977 60.7535 56.0681 60.5042 56.4563 60.2762C56.905 60.009 57.368 59.7775 57.8523 59.5709C58.1016 59.4676 58.3545 59.3678 58.6145 59.2823C59.7755 58.8905 61.0185 58.6768 62.3077 58.6768C63.6753 58.6768 64.9894 58.9154 66.2039 59.3536C66.4532 59.4426 66.6989 59.5388 66.9411 59.6492C67.3329 59.8202 67.7139 60.0161 68.0843 60.2299C68.0914 60.2263 68.0986 60.2263 68.1057 60.2228C68.2197 60.2869 68.3301 60.3546 68.4405 60.4294C68.5544 60.4971 68.6648 60.5719 68.7752 60.6467C68.7824 60.6574 68.7895 60.6716 68.7966 60.6823C69.0281 60.8426 69.256 61.0065 69.4768 61.181C70.2283 61.7759 70.9014 62.467 71.4819 63.2293C71.5959 63.3753 71.7027 63.5249 71.806 63.6781C71.8238 63.7031 71.8416 63.7316 71.8594 63.76C71.9485 63.8954 72.0375 64.0272 72.123 64.1626C72.2263 64.3336 72.3295 64.5046 72.4221 64.6791C72.4257 64.6862 72.4293 64.6898 72.4293 64.6969C72.4399 64.7076 72.4756 64.7753 72.5183 64.8608C72.5325 64.8893 72.5468 64.9213 72.5646 64.9534C72.6109 65.0425 72.6572 65.1351 72.6999 65.2277C72.7035 65.2313 72.7035 65.2348 72.707 65.2419C72.707 65.2455 72.7106 65.2491 72.7106 65.2526C72.7142 65.2597 72.7177 65.2669 72.7213 65.274C72.7249 65.2776 72.7248 65.2847 72.7284 65.2918C72.732 65.2989 72.7355 65.3096 72.7391 65.3167C72.7427 65.3203 72.7427 65.3239 72.7462 65.331C72.764 65.3666 72.7783 65.3987 72.7925 65.4343C73.2484 66.4317 73.5654 67.504 73.7185 68.6296L73.747 68.9787C73.7577 69.0963 73.7684 69.2138 73.779 69.3314C73.7862 69.4382 73.7933 69.5451 73.7968 69.652C73.7968 69.652 73.7968 69.6555 73.8004 69.6555C73.8004 69.6662 73.8004 69.6769 73.8004 69.684C73.7968 69.7161 73.7968 69.7588 73.7968 69.798Z" fill="#1A2E35"/>
<path d="M73.7968 69.798C73.8004 69.9191 73.804 70.0402 73.804 70.1614C73.804 71.23 73.6579 72.2595 73.3873 73.2391C73.1166 74.2187 72.7213 75.1485 72.2156 76.0034C72.2298 76.0034 72.2405 76.0034 72.2547 75.9999C72.1372 76.2029 72.0126 76.3988 71.8844 76.5912C71.8701 76.5912 71.8594 76.5947 71.8452 76.5947C70.2924 78.8924 67.9347 80.6022 65.1746 81.3147L64.9467 81.3681C64.904 81.3788 64.8612 81.3895 64.8185 81.3966C64.0029 81.5819 63.1589 81.678 62.2863 81.678C61.6809 81.678 61.0861 81.6317 60.5056 81.5427C60.1317 81.4857 59.7613 81.4073 59.4016 81.3147C59.1238 81.2434 58.8495 81.1615 58.5789 81.0689V81.0938C58.3688 81.0226 58.1586 80.9442 57.9556 80.8623C56.0289 80.075 54.3621 78.7819 53.1228 77.1433C52.9732 76.9474 52.8307 76.7479 52.699 76.5449C52.6099 76.4095 52.5245 76.2741 52.4425 76.1352C52.3108 75.9179 52.1861 75.6971 52.0686 75.4691C52.0081 75.3515 51.9511 75.234 51.8941 75.1164C51.862 75.0559 51.8335 74.9917 51.805 74.9312C51.7623 74.8386 51.7231 74.7495 51.684 74.6569C51.1106 73.2854 50.79 71.7751 50.79 70.197C50.79 69.9761 50.7972 69.7553 50.8078 69.538C50.8221 69.2886 50.8435 69.0357 50.8755 68.7899C51.2601 65.6267 52.9269 62.8588 55.3415 61.0243C55.6977 60.7535 56.0681 60.5042 56.4563 60.2762C56.905 60.009 57.368 59.7775 57.8523 59.5709C58.1016 59.4676 58.3545 59.3678 58.6145 59.2823C59.7755 58.8905 61.0185 58.6768 62.3077 58.6768C63.6753 58.6768 64.9894 58.9154 66.2039 59.3536C66.4532 59.4426 66.6989 59.5388 66.9411 59.6492C67.3329 59.8202 67.7139 60.0161 68.0843 60.2299C68.0914 60.2263 68.0986 60.2263 68.1057 60.2228C68.2197 60.2869 68.3301 60.3546 68.4405 60.4294C68.5544 60.4971 68.6648 60.5719 68.7752 60.6467C68.7824 60.6574 68.7895 60.6716 68.7966 60.6823C69.0281 60.8426 69.256 61.0065 69.4768 61.181C70.2283 61.7759 70.9014 62.467 71.4819 63.2293C71.5959 63.3753 71.7027 63.5249 71.806 63.6781C71.8238 63.7031 71.8416 63.7316 71.8594 63.76C71.9485 63.8954 72.0375 64.0272 72.123 64.1626C72.2263 64.3336 72.3295 64.5046 72.4221 64.6791C72.4257 64.6862 72.4293 64.6898 72.4293 64.6969L72.6999 65.2277C72.7035 65.2313 72.7035 65.2348 72.707 65.2419C72.707 65.2455 72.7106 65.2491 72.7106 65.2526C72.7142 65.2597 72.7177 65.2669 72.7213 65.274C72.7249 65.2776 72.7248 65.2847 72.7284 65.2918C72.732 65.2989 72.7355 65.3096 72.7391 65.3167C72.7427 65.3203 72.7427 65.3239 72.7462 65.331C72.764 65.3666 72.7783 65.3987 72.7925 65.4343C73.2484 66.4317 73.5654 67.504 73.7185 68.6296L73.747 68.9787C73.7577 69.0963 73.7684 69.2138 73.779 69.3314C73.7862 69.4382 73.7933 69.5451 73.7968 69.652C73.7968 69.652 73.7968 69.6555 73.8004 69.6555C73.8004 69.6662 73.8004 69.6769 73.8004 69.684C73.7968 69.7161 73.7968 69.7588 73.7968 69.798Z" fill="#0054A6"/>
<path d="M64.0381 68.8043C63.9598 68.8043 63.8814 68.8043 63.8066 68.8043C63.6464 68.8043 63.4897 68.8079 63.3294 68.8079C62.8522 68.8114 62.3749 68.815 61.8977 68.815C61.4169 68.8185 60.9361 68.8185 60.4518 68.8221C59.9923 68.8221 59.5329 68.8257 59.0735 68.8257H59.0023C59.0023 68.9183 59.0023 69.0145 59.0023 69.1106C59.0023 69.2175 59.0023 69.3244 59.0023 69.4312C59.0165 69.4455 59.0307 69.4597 59.0486 69.474C59.0343 69.4918 59.0201 69.5025 59.0023 69.5203V69.5844H58.9346C58.8277 69.5844 58.7209 69.5844 58.6176 69.5844H59.0023C59.4831 69.5844 59.9674 69.5844 60.4482 69.5809H60.5728C61.0145 69.5809 61.4525 69.5773 61.8906 69.5737C62.3678 69.5702 62.845 69.5666 63.3187 69.563C63.7924 69.5595 64.2625 69.5524 64.729 69.5452C65.1956 69.5381 65.6621 69.531 66.1215 69.5239C66.1287 69.2745 66.1394 69.0251 66.1429 68.7722C66.207 68.7722 66.2676 68.7722 66.3317 68.7687C65.5766 68.79 64.8109 68.7972 64.0381 68.8043ZM73.7929 69.677C73.7893 69.7233 73.7857 69.7697 73.7822 69.816C73.6896 70.9986 73.5578 72.1492 73.3868 73.2393C73.6611 72.2597 73.8035 71.2266 73.8035 70.1615C73.8035 70.0404 73.8035 69.9193 73.7964 69.7982C73.7964 69.759 73.7964 69.7162 73.7929 69.677ZM64.0381 68.8043C63.9598 68.8043 63.8814 68.8043 63.8066 68.8043C63.6464 68.8043 63.4897 68.8079 63.3294 68.8079C62.8522 68.8114 62.3749 68.815 61.8977 68.815C61.4169 68.8185 60.9361 68.8185 60.4518 68.8221C59.9923 68.8221 59.5329 68.8257 59.0735 68.8257H59.0023C59.0023 68.9183 59.0023 69.0145 59.0023 69.1106C59.0023 69.2175 59.0023 69.3244 59.0023 69.4312C59.0165 69.4455 59.0307 69.4597 59.0486 69.474C59.0343 69.4918 59.0201 69.5025 59.0023 69.5203V69.5844H58.9346C58.8277 69.5844 58.7209 69.5844 58.6176 69.5844H59.0023C59.4831 69.5844 59.9674 69.5844 60.4482 69.5809H60.5728C61.0145 69.5809 61.4525 69.5773 61.8906 69.5737C62.3678 69.5702 62.845 69.5666 63.3187 69.563C63.7924 69.5595 64.2625 69.5524 64.729 69.5452C65.1956 69.5381 65.6621 69.531 66.1215 69.5239C66.1287 69.2745 66.1394 69.0251 66.1429 68.7722C66.207 68.7722 66.2676 68.7722 66.3317 68.7687C65.5766 68.79 64.8109 68.7972 64.0381 68.8043ZM64.0381 68.8043C63.9598 68.8043 63.8814 68.8043 63.8066 68.8043C63.6464 68.8043 63.4897 68.8079 63.3294 68.8079C62.8522 68.8114 62.3749 68.815 61.8977 68.815C61.4169 68.8185 60.9361 68.8185 60.4518 68.8221C59.9923 68.8221 59.5329 68.8257 59.0735 68.8257H59.0023C59.0023 68.9183 59.0023 69.0145 59.0023 69.1106C59.0023 69.2175 59.0023 69.3244 59.0023 69.4312C59.0165 69.4455 59.0307 69.4597 59.0486 69.474C59.0343 69.4918 59.0201 69.5025 59.0023 69.5203V69.5844H58.9346C58.8277 69.5844 58.7209 69.5844 58.6176 69.5844H59.0023C59.4831 69.5844 59.9674 69.5844 60.4482 69.5809H60.5728C61.0145 69.5809 61.4525 69.5773 61.8906 69.5737C62.3678 69.5702 62.845 69.5666 63.3187 69.563C63.7924 69.5595 64.2625 69.5524 64.729 69.5452C65.1956 69.5381 65.6621 69.531 66.1215 69.5239C66.1287 69.2745 66.1394 69.0251 66.1429 68.7722C66.207 68.7722 66.2676 68.7722 66.3317 68.7687C65.5766 68.79 64.8109 68.7972 64.0381 68.8043ZM64.0381 68.8043C63.9598 68.8043 63.8814 68.8043 63.8066 68.8043C63.6464 68.8043 63.4897 68.8079 63.3294 68.8079C62.8522 68.8114 62.3749 68.815 61.8977 68.815C61.4169 68.8185 60.9361 68.8185 60.4518 68.8221C59.9923 68.8221 59.5329 68.8257 59.0735 68.8257H59.0023C59.0023 68.9183 59.0023 69.0145 59.0023 69.1106C59.0023 69.2175 59.0023 69.3244 59.0023 69.4312C59.0165 69.4455 59.0307 69.4597 59.0486 69.474C59.0343 69.4918 59.0201 69.5025 59.0023 69.5203V69.5844H58.9346C58.8277 69.5844 58.7209 69.5844 58.6176 69.5844H59.0023C59.4831 69.5844 59.9674 69.5844 60.4482 69.5809H60.5728C61.0145 69.5809 61.4525 69.5773 61.8906 69.5737C62.3678 69.5702 62.845 69.5666 63.3187 69.563C63.7924 69.5595 64.2625 69.5524 64.729 69.5452C65.1956 69.5381 65.6621 69.531 66.1215 69.5239C66.1287 69.2745 66.1394 69.0251 66.1429 68.7722C66.207 68.7722 66.2676 68.7722 66.3317 68.7687C65.5766 68.79 64.8109 68.7972 64.0381 68.8043ZM64.0381 68.8043C63.9598 68.8043 63.8814 68.8043 63.8066 68.8043C63.6464 68.8043 63.4897 68.8079 63.3294 68.8079C62.8522 68.8114 62.3749 68.815 61.8977 68.815C61.4169 68.8185 60.9361 68.8185 60.4518 68.8221C59.9923 68.8221 59.5329 68.8257 59.0735 68.8257H59.0023C59.0023 68.9183 59.0023 69.0145 59.0023 69.1106C59.0023 69.2175 59.0023 69.3244 59.0023 69.4312C59.0165 69.4455 59.0307 69.4597 59.0486 69.474C59.0343 69.4918 59.0201 69.5025 59.0023 69.5203V69.5844H58.9346C58.8277 69.5844 58.7209 69.5844 58.6176 69.5844H59.0023C59.4831 69.5844 59.9674 69.5844 60.4482 69.5809H60.5728C61.0145 69.5809 61.4525 69.5773 61.8906 69.5737C62.3678 69.5702 62.845 69.5666 63.3187 69.563C63.7924 69.5595 64.2625 69.5524 64.729 69.5452C65.1956 69.5381 65.6621 69.531 66.1215 69.5239C66.1287 69.2745 66.1394 69.0251 66.1429 68.7722C66.207 68.7722 66.2676 68.7722 66.3317 68.7687C65.5766 68.79 64.8109 68.7972 64.0381 68.8043ZM64.0381 68.8043C63.9598 68.8043 63.8814 68.8043 63.8066 68.8043C63.6464 68.8043 63.4897 68.8079 63.3294 68.8079C62.8522 68.8114 62.3749 68.815 61.8977 68.815C61.4169 68.8185 60.9361 68.8185 60.4518 68.8221C59.9923 68.8221 59.5329 68.8257 59.0735 68.8257H59.0023C59.0023 68.9183 59.0023 69.0145 59.0023 69.1106C59.0023 69.2175 59.0023 69.3244 59.0023 69.4312C59.0165 69.4455 59.0307 69.4597 59.0486 69.474C59.0343 69.4918 59.0201 69.5025 59.0023 69.5203V69.5844H58.9346C58.8277 69.5844 58.7209 69.5844 58.6176 69.5844H59.0023C59.4831 69.5844 59.9674 69.5844 60.4482 69.5809H60.5728C61.0145 69.5809 61.4525 69.5773 61.8906 69.5737C62.3678 69.5702 62.845 69.5666 63.3187 69.563C63.7924 69.5595 64.2625 69.5524 64.729 69.5452C65.1956 69.5381 65.6621 69.531 66.1215 69.5239C66.1287 69.2745 66.1394 69.0251 66.1429 68.7722C66.207 68.7722 66.2676 68.7722 66.3317 68.7687C65.5766 68.79 64.8109 68.7972 64.0381 68.8043ZM64.0381 68.8043C63.9598 68.8043 63.8814 68.8043 63.8066 68.8043C63.6464 68.8043 63.4897 68.8079 63.3294 68.8079C62.8522 68.8114 62.3749 68.815 61.8977 68.815C61.4169 68.8185 60.9361 68.8185 60.4518 68.8221C59.9923 68.8221 59.5329 68.8257 59.0735 68.8257H59.0023C59.0023 68.9183 59.0023 69.0145 59.0023 69.1106C59.0023 69.2175 59.0023 69.3244 59.0023 69.4312C59.0165 69.4455 59.0307 69.4597 59.0486 69.474C59.0343 69.4918 59.0201 69.5025 59.0023 69.5203V69.5844H58.9346C58.8277 69.5844 58.7209 69.5844 58.6176 69.5844H59.0023C59.4831 69.5844 59.9674 69.5844 60.4482 69.5809H60.5728C61.0145 69.5809 61.4525 69.5773 61.8906 69.5737C62.3678 69.5702 62.845 69.5666 63.3187 69.563C63.7924 69.5595 64.2625 69.5524 64.729 69.5452C65.1956 69.5381 65.6621 69.531 66.1215 69.5239C66.1287 69.2745 66.1394 69.0251 66.1429 68.7722C66.207 68.7722 66.2676 68.7722 66.3317 68.7687C65.5766 68.79 64.8109 68.7972 64.0381 68.8043ZM64.0381 68.8043C63.9598 68.8043 63.8814 68.8043 63.8066 68.8043C63.6464 68.8043 63.4897 68.8079 63.3294 68.8079C62.8522 68.8114 62.3749 68.815 61.8977 68.815C61.4169 68.8185 60.9361 68.8185 60.4518 68.8221C59.9923 68.8221 59.5329 68.8257 59.0735 68.8257H59.0023C59.0023 68.9183 59.0023 69.0145 59.0023 69.1106C59.0023 69.2175 59.0023 69.3244 59.0023 69.4312C59.0165 69.4455 59.0307 69.4597 59.0486 69.474C59.0343 69.4918 59.0201 69.5025 59.0023 69.5203V69.5844H58.9346C58.8277 69.5844 58.7209 69.5844 58.6176 69.5844H59.0023C59.4831 69.5844 59.9674 69.5844 60.4482 69.5809H60.5728C61.0145 69.5809 61.4525 69.5773 61.8906 69.5737C62.3678 69.5702 62.845 69.5666 63.3187 69.563C63.7924 69.5595 64.2625 69.5524 64.729 69.5452C65.1956 69.5381 65.6621 69.531 66.1215 69.5239C66.1287 69.2745 66.1394 69.0251 66.1429 68.7722C66.207 68.7722 66.2676 68.7722 66.3317 68.7687C65.5766 68.79 64.8109 68.7972 64.0381 68.8043ZM64.0381 68.8043C63.9598 68.8043 63.8814 68.8043 63.8066 68.8043C63.6464 68.8043 63.4897 68.8079 63.3294 68.8079C62.8522 68.8114 62.3749 68.815 61.8977 68.815C61.4169 68.8185 60.9361 68.8185 60.4518 68.8221C59.9923 68.8221 59.5329 68.8257 59.0735 68.8257H59.0023C59.0023 68.9183 59.0023 69.0145 59.0023 69.1106C59.0023 69.2175 59.0023 69.3244 59.0023 69.4312C59.0165 69.4455 59.0307 69.4597 59.0486 69.474C59.0343 69.4882 59.0165 69.5025 59.0023 69.5203V69.588C59.4831 69.588 59.9674 69.588 60.4482 69.5844H60.5728C61.0145 69.5844 61.4525 69.5809 61.8906 69.5773C62.3678 69.5737 62.845 69.5702 63.3187 69.5666C63.7924 69.563 64.2625 69.5559 64.729 69.5488C65.1956 69.5417 65.6621 69.5345 66.1215 69.5274C66.1287 69.2781 66.1394 69.0287 66.1429 68.7758C66.207 68.7758 66.2676 68.7758 66.3317 68.7722C65.5766 68.79 64.8109 68.7972 64.0381 68.8043ZM64.0381 68.8043C63.9598 68.8043 63.8814 68.8043 63.8066 68.8043C63.6464 68.8043 63.4897 68.8079 63.3294 68.8079C62.8522 68.8114 62.3749 68.815 61.8977 68.815C61.4169 68.8185 60.9361 68.8185 60.4518 68.8221C59.9923 68.8221 59.5329 68.8257 59.0735 68.8257H59.0023C59.0023 68.9183 59.0023 69.0145 59.0023 69.1106C59.0023 69.2175 59.0023 69.3244 59.0023 69.4312C59.0165 69.4455 59.0307 69.4597 59.0486 69.474C59.0343 69.4882 59.0165 69.5025 59.0023 69.5203V69.588C59.4831 69.588 59.9674 69.588 60.4482 69.5844H60.5728C61.0145 69.5844 61.4525 69.5809 61.8906 69.5773C62.3678 69.5737 62.845 69.5702 63.3187 69.5666C63.7924 69.563 64.2625 69.5559 64.729 69.5488C65.1956 69.5417 65.6621 69.5345 66.1215 69.5274C66.1287 69.2781 66.1394 69.0287 66.1429 68.7758C66.207 68.7758 66.2676 68.7758 66.3317 68.7722C65.5766 68.79 64.8109 68.7972 64.0381 68.8043ZM66.1393 68.7829C66.2035 68.7829 66.264 68.7829 66.3281 68.7794C65.5767 68.79 64.8109 68.7972 64.0381 68.8043C63.9598 68.8043 63.8814 68.8043 63.8066 68.8043C63.6464 68.8043 63.4897 68.8079 63.3294 68.8079C62.8522 68.8114 62.3749 68.815 61.8977 68.815C61.4169 68.8185 60.9361 68.8185 60.4518 68.8221C59.9923 68.8221 59.5329 68.8257 59.0735 68.8257H59.0023C59.0023 68.9183 59.0023 69.0145 59.0023 69.1106C59.0023 69.2175 59.0023 69.3244 59.0023 69.4312C59.0165 69.4455 59.0307 69.4597 59.0486 69.474C59.0343 69.4882 59.0165 69.5025 59.0023 69.5203V69.588H58.6176V69.9015C58.6141 72.3594 58.6105 74.682 58.6034 76.6412C61.0323 76.6376 63.4576 76.5842 65.7725 76.4738C65.89 75.5654 65.9969 74.5751 66.0788 73.5314C66.0966 73.3034 66.1144 73.0754 66.1322 72.8403C66.2106 71.7752 66.2676 70.6602 66.3103 69.5203C66.2462 69.5203 66.1856 69.5203 66.1215 69.5239C66.1251 69.2816 66.1322 69.0323 66.1393 68.7829ZM66.3388 62.6167C66.3352 62.5027 66.3352 62.3923 66.3317 62.2819C66.3174 61.8793 66.3067 61.4804 66.2889 61.085C63.8173 61.0315 61.2175 61.003 58.6105 61.003C58.6141 63.4075 58.6141 65.9616 58.6105 68.4303V68.8292C58.6105 68.8292 58.6105 68.8292 58.6141 68.8292C58.6141 68.8292 58.6141 68.8292 58.6176 68.8292C58.6176 68.8292 58.6176 68.8292 58.6212 68.8292C58.6212 68.8292 58.6212 68.8292 58.6247 68.8292C58.6247 68.8292 58.6247 68.8292 58.6283 68.8292C58.6283 68.8292 58.6283 68.8292 58.6319 68.8292C58.6319 68.8292 58.6319 68.8292 58.6354 68.8292C58.6354 68.8292 58.6354 68.8292 58.639 68.8292C58.639 68.8292 58.639 68.8292 58.6426 68.8292C58.6426 68.8292 58.6426 68.8292 58.6461 68.8292C58.6461 68.8292 58.6461 68.8292 58.6497 68.8292C58.6497 68.8292 58.6497 68.8292 58.6532 68.8292C58.6532 68.8292 58.6532 68.8292 58.6568 68.8292C58.6568 68.8292 58.6568 68.8292 58.6604 68.8292C58.6604 68.8292 58.6604 68.8292 58.6639 68.8292C58.6639 68.8292 58.6639 68.8292 58.6675 68.8292C58.6675 68.8292 58.6675 68.8292 58.671 68.8292C58.671 68.8292 58.671 68.8292 58.6746 68.8292C58.6746 68.8292 58.6746 68.8292 58.6782 68.8292C58.6782 68.8292 58.6782 68.8292 58.6817 68.8292C58.6817 68.8292 58.6817 68.8292 58.6853 68.8292C58.6853 68.8292 58.6853 68.8292 58.6889 68.8292C58.6889 68.8292 58.6889 68.8292 58.6924 68.8292C58.6924 68.8292 58.6924 68.8292 58.696 68.8292C58.696 68.8292 58.696 68.8292 58.6995 68.8292C58.6995 68.8292 58.6995 68.8292 58.7031 68.8292C58.7031 68.8292 58.7031 68.8292 58.7067 68.8292C58.7067 68.8292 58.7067 68.8292 58.7102 68.8292C58.7102 68.8292 58.7102 68.8292 58.7138 68.8292C58.7138 68.8292 58.7138 68.8292 58.7173 68.8292C58.7173 68.8292 58.7173 68.8292 58.7209 68.8292C58.7209 68.8292 58.7209 68.8292 58.7245 68.8292C58.7245 68.8292 58.7245 68.8292 58.728 68.8292C58.728 68.8292 58.728 68.8292 58.7316 68.8292C58.7316 68.8292 58.7316 68.8292 58.7352 68.8292C58.7352 68.8292 58.7352 68.8292 58.7387 68.8292C58.7387 68.8292 58.7387 68.8292 58.7423 68.8292C58.7423 68.8292 58.7423 68.8292 58.7458 68.8292C58.7458 68.8292 58.7458 68.8292 58.7494 68.8292C58.7494 68.8292 58.7494 68.8292 58.753 68.8292C58.753 68.8292 58.753 68.8292 58.7565 68.8292C58.7565 68.8292 58.7565 68.8292 58.7601 68.8292C58.7601 68.8292 58.7601 68.8292 58.7636 68.8292C58.7636 68.8292 58.7636 68.8292 58.7672 68.8292C58.7672 68.8292 58.7672 68.8292 58.7708 68.8292C58.7708 68.8292 58.7708 68.8292 58.7743 68.8292C58.7743 68.8292 58.7743 68.8292 58.7779 68.8292C58.7779 68.8292 58.7779 68.8292 58.7814 68.8292C58.7814 68.8292 58.7815 68.8292 58.785 68.8292C58.785 68.8292 58.785 68.8292 58.7886 68.8292C58.7886 68.8292 58.7886 68.8292 58.7921 68.8292C58.7921 68.8292 58.7921 68.8292 58.7957 68.8292C58.7957 68.8292 58.7957 68.8292 58.7993 68.8292C58.7993 68.8292 58.7993 68.8292 58.8028 68.8292C58.8028 68.8292 58.8028 68.8292 58.8064 68.8292C58.8064 68.8292 58.8064 68.8292 58.8099 68.8292C58.8099 68.8292 58.8135 68.8292 58.8171 68.8292C58.8171 68.8292 58.8171 68.8292 58.8206 68.8292C58.8206 68.8292 58.8206 68.8292 58.8242 68.8292C58.8242 68.8292 58.8242 68.8292 58.8277 68.8292C58.8277 68.8292 58.8313 68.8292 58.8349 68.8292H58.9025C58.9346 68.8292 58.9631 68.8292 58.9951 68.8292H59.0664C59.5258 68.8292 59.9852 68.8292 60.4446 68.8257C60.929 68.8257 61.4098 68.8221 61.8906 68.8185C62.3714 68.8185 62.8486 68.815 63.3223 68.8114C63.4825 68.8114 63.6428 68.8079 63.7995 68.8079C63.8779 68.8079 63.9562 68.8079 64.031 68.8079C64.8038 68.8007 65.5695 68.79 66.321 68.7829C66.3887 66.7453 66.3922 64.6472 66.3388 62.6167ZM64.0381 68.8043C63.9598 68.8043 63.8814 68.8043 63.8066 68.8043C63.6464 68.8043 63.4897 68.8079 63.3294 68.8079C62.8522 68.8114 62.3749 68.815 61.8977 68.815C61.4169 68.8185 60.9361 68.8185 60.4518 68.8221C59.9923 68.8221 59.5329 68.8257 59.0735 68.8257H59.0023C59.0023 68.9183 59.0023 69.0145 59.0023 69.1106C59.0023 69.2175 59.0023 69.3244 59.0023 69.4312C59.0165 69.4455 59.0307 69.4597 59.0486 69.474C59.0343 69.4882 59.0165 69.5025 59.0023 69.5203V69.588C59.4831 69.588 59.9674 69.588 60.4482 69.5844H60.5728C61.0145 69.5844 61.4525 69.5809 61.8906 69.5773C62.3678 69.5737 62.845 69.5702 63.3187 69.5666C63.7924 69.563 64.2625 69.5559 64.729 69.5488C65.1956 69.5417 65.6621 69.5345 66.1215 69.5274C66.1287 69.2781 66.1394 69.0287 66.1429 68.7758C66.207 68.7758 66.2676 68.7758 66.3317 68.7722C65.5766 68.79 64.8109 68.7972 64.0381 68.8043ZM64.0381 68.8043C63.9598 68.8043 63.8814 68.8043 63.8066 68.8043C63.6464 68.8043 63.4897 68.8079 63.3294 68.8079C62.8522 68.8114 62.3749 68.815 61.8977 68.815C61.4169 68.8185 60.9361 68.8185 60.4518 68.8221C59.9923 68.8221 59.5329 68.8257 59.0735 68.8257H59.0023C59.0023 68.9183 59.0023 69.0145 59.0023 69.1106C59.0023 69.2175 59.0023 69.3244 59.0023 69.4312C59.0165 69.4455 59.0307 69.4597 59.0486 69.474C59.0343 69.4882 59.0165 69.5025 59.0023 69.5203V69.588C59.4831 69.588 59.9674 69.588 60.4482 69.5844H60.5728C61.0145 69.5844 61.4525 69.5809 61.8906 69.5773C62.3678 69.5737 62.845 69.5702 63.3187 69.5666C63.7924 69.563 64.2625 69.5559 64.729 69.5488C65.1956 69.5417 65.6621 69.5345 66.1215 69.5274C66.1287 69.2781 66.1394 69.0287 66.1429 68.7758C66.207 68.7758 66.2676 68.7758 66.3317 68.7722C65.5766 68.79 64.8109 68.7972 64.0381 68.8043ZM64.0381 68.8043C63.9598 68.8043 63.8814 68.8043 63.8066 68.8043C63.6464 68.8043 63.4897 68.8079 63.3294 68.8079C62.8522 68.8114 62.3749 68.815 61.8977 68.815C61.4169 68.8185 60.9361 68.8185 60.4518 68.8221C59.9923 68.8221 59.5329 68.8257 59.0735 68.8257H59.0023C59.0023 68.9183 59.0023 69.0145 59.0023 69.1106C59.0023 69.2175 59.0023 69.3244 59.0023 69.4312C59.0165 69.4455 59.0307 69.4597 59.0486 69.474C59.0343 69.4882 59.0165 69.5025 59.0023 69.5203V69.588C59.4831 69.588 59.9674 69.588 60.4482 69.5844H60.5728C61.0145 69.5844 61.4525 69.5809 61.8906 69.5773C62.3678 69.5737 62.845 69.5702 63.3187 69.5666C63.7924 69.563 64.2625 69.5559 64.729 69.5488C65.1956 69.5417 65.6621 69.5345 66.1215 69.5274C66.1287 69.2781 66.1394 69.0287 66.1429 68.7758C66.207 68.7758 66.2676 68.7758 66.3317 68.7722C65.5766 68.79 64.8109 68.7972 64.0381 68.8043ZM64.0381 68.8043C63.9598 68.8043 63.8814 68.8043 63.8066 68.8043C63.6464 68.8043 63.4897 68.8079 63.3294 68.8079C62.8522 68.8114 62.3749 68.815 61.8977 68.815C61.4169 68.8185 60.9361 68.8185 60.4518 68.8221C59.9923 68.8221 59.5329 68.8257 59.0735 68.8257H59.0023C59.0023 68.9183 59.0023 69.0145 59.0023 69.1106C59.0023 69.2175 59.0023 69.3244 59.0023 69.4312C59.0165 69.4455 59.0307 69.4597 59.0486 69.474C59.0343 69.4918 59.0201 69.5025 59.0023 69.5203V69.5844H58.9346C58.8277 69.5844 58.7209 69.5844 58.6176 69.5844H59.0023C59.4831 69.5844 59.9674 69.5844 60.4482 69.5809H60.5728C61.0145 69.5809 61.4525 69.5773 61.8906 69.5737C62.3678 69.5702 62.845 69.5666 63.3187 69.563C63.7924 69.5595 64.2625 69.5524 64.729 69.5452C65.1956 69.5381 65.6621 69.531 66.1215 69.5239C66.1287 69.2745 66.1394 69.0251 66.1429 68.7722C66.207 68.7722 66.2676 68.7722 66.3317 68.7687C65.5766 68.79 64.8109 68.7972 64.0381 68.8043ZM64.0381 68.8043C63.9598 68.8043 63.8814 68.8043 63.8066 68.8043C63.6464 68.8043 63.4897 68.8079 63.3294 68.8079C62.8522 68.8114 62.3749 68.815 61.8977 68.815C61.4169 68.8185 60.9361 68.8185 60.4518 68.8221C59.9923 68.8221 59.5329 68.8257 59.0735 68.8257H59.0023C59.0023 68.9183 59.0023 69.0145 59.0023 69.1106C59.0023 69.2175 59.0023 69.3244 59.0023 69.4312C59.0165 69.4455 59.0307 69.4597 59.0486 69.474C59.0343 69.4918 59.0201 69.5025 59.0023 69.5203V69.5844H58.9346C58.8277 69.5844 58.7209 69.5844 58.6176 69.5844H59.0023C59.4831 69.5844 59.9674 69.5844 60.4482 69.5809H60.5728C61.0145 69.5809 61.4525 69.5773 61.8906 69.5737C62.3678 69.5702 62.845 69.5666 63.3187 69.563C63.7924 69.5595 64.2625 69.5524 64.729 69.5452C65.1956 69.5381 65.6621 69.531 66.1215 69.5239C66.1287 69.2745 66.1394 69.0251 66.1429 68.7722C66.207 68.7722 66.2676 68.7722 66.3317 68.7687C65.5766 68.79 64.8109 68.7972 64.0381 68.8043ZM64.0381 68.8043C63.9598 68.8043 63.8814 68.8043 63.8066 68.8043C63.6464 68.8043 63.4897 68.8079 63.3294 68.8079C62.8522 68.8114 62.3749 68.815 61.8977 68.815C61.4169 68.8185 60.9361 68.8185 60.4518 68.8221C59.9923 68.8221 59.5329 68.8257 59.0735 68.8257H59.0023C59.0023 68.9183 59.0023 69.0145 59.0023 69.1106C59.0023 69.2175 59.0023 69.3244 59.0023 69.4312C59.0165 69.4455 59.0307 69.4597 59.0486 69.474C59.0343 69.4918 59.0201 69.5025 59.0023 69.5203V69.5844H58.9346C58.8277 69.5844 58.7209 69.5844 58.6176 69.5844H59.0023C59.4831 69.5844 59.9674 69.5844 60.4482 69.5809H60.5728C61.0145 69.5809 61.4525 69.5773 61.8906 69.5737C62.3678 69.5702 62.845 69.5666 63.3187 69.563C63.7924 69.5595 64.2625 69.5524 64.729 69.5452C65.1956 69.5381 65.6621 69.531 66.1215 69.5239C66.1287 69.2745 66.1394 69.0251 66.1429 68.7722C66.207 68.7722 66.2676 68.7722 66.3317 68.7687C65.5766 68.79 64.8109 68.7972 64.0381 68.8043ZM64.0381 68.8043C63.9598 68.8043 63.8814 68.8043 63.8066 68.8043C63.6464 68.8043 63.4897 68.8079 63.3294 68.8079C62.8522 68.8114 62.3749 68.815 61.8977 68.815C61.4169 68.8185 60.9361 68.8185 60.4518 68.8221C59.9923 68.8221 59.5329 68.8257 59.0735 68.8257H59.0023C59.0023 68.9183 59.0023 69.0145 59.0023 69.1106C59.0023 69.2175 59.0023 69.3244 59.0023 69.4312C59.0165 69.4455 59.0307 69.4597 59.0486 69.474C59.0343 69.4918 59.0201 69.5025 59.0023 69.5203V69.5844H58.9346C58.8277 69.5844 58.7209 69.5844 58.6176 69.5844H59.0023C59.4831 69.5844 59.9674 69.5844 60.4482 69.5809H60.5728C61.0145 69.5809 61.4525 69.5773 61.8906 69.5737C62.3678 69.5702 62.845 69.5666 63.3187 69.563C63.7924 69.5595 64.2625 69.5524 64.729 69.5452C65.1956 69.5381 65.6621 69.531 66.1215 69.5239C66.1287 69.2745 66.1394 69.0251 66.1429 68.7722C66.207 68.7722 66.2676 68.7722 66.3317 68.7687C65.5766 68.79 64.8109 68.7972 64.0381 68.8043ZM64.0381 68.8043C63.9598 68.8043 63.8814 68.8043 63.8066 68.8043C63.6464 68.8043 63.4897 68.8079 63.3294 68.8079C62.8522 68.8114 62.3749 68.815 61.8977 68.815C61.4169 68.8185 60.9361 68.8185 60.4518 68.8221C59.9923 68.8221 59.5329 68.8257 59.0735 68.8257H59.0023C59.0023 68.9183 59.0023 69.0145 59.0023 69.1106C59.0023 69.2175 59.0023 69.3244 59.0023 69.4312C59.0165 69.4455 59.0307 69.4597 59.0486 69.474C59.0343 69.4918 59.0201 69.5025 59.0023 69.5203V69.5844H58.9346C58.8277 69.5844 58.7209 69.5844 58.6176 69.5844H59.0023C59.4831 69.5844 59.9674 69.5844 60.4482 69.5809H60.5728C61.0145 69.5809 61.4525 69.5773 61.8906 69.5737C62.3678 69.5702 62.845 69.5666 63.3187 69.563C63.7924 69.5595 64.2625 69.5524 64.729 69.5452C65.1956 69.5381 65.6621 69.531 66.1215 69.5239C66.1287 69.2745 66.1394 69.0251 66.1429 68.7722C66.207 68.7722 66.2676 68.7722 66.3317 68.7687C65.5766 68.79 64.8109 68.7972 64.0381 68.8043ZM64.0381 68.8043C63.9598 68.8043 63.8814 68.8043 63.8066 68.8043C63.6464 68.8043 63.4897 68.8079 63.3294 68.8079C62.8522 68.8114 62.3749 68.815 61.8977 68.815C61.4169 68.8185 60.9361 68.8185 60.4518 68.8221C59.9923 68.8221 59.5329 68.8257 59.0735 68.8257H59.0023C59.0023 68.9183 59.0023 69.0145 59.0023 69.1106C59.0023 69.2175 59.0023 69.3244 59.0023 69.4312C59.0165 69.4455 59.0307 69.4597 59.0486 69.474C59.0343 69.4918 59.0201 69.5025 59.0023 69.5203V69.5844H58.9346C58.8277 69.5844 58.7209 69.5844 58.6176 69.5844H59.0023C59.4831 69.5844 59.9674 69.5844 60.4482 69.5809H60.5728C61.0145 69.5809 61.4525 69.5773 61.8906 69.5737C62.3678 69.5702 62.845 69.5666 63.3187 69.563C63.7924 69.5595 64.2625 69.5524 64.729 69.5452C65.1956 69.5381 65.6621 69.531 66.1215 69.5239C66.1287 69.2745 66.1394 69.0251 66.1429 68.7722C66.207 68.7722 66.2676 68.7722 66.3317 68.7687C65.5766 68.79 64.8109 68.7972 64.0381 68.8043ZM64.0381 68.8043C63.9598 68.8043 63.8814 68.8043 63.8066 68.8043C63.6464 68.8043 63.4897 68.8079 63.3294 68.8079C62.8522 68.8114 62.3749 68.815 61.8977 68.815C61.4169 68.8185 60.9361 68.8185 60.4518 68.8221C59.9923 68.8221 59.5329 68.8257 59.0735 68.8257H59.0023C59.0023 68.9183 59.0023 69.0145 59.0023 69.1106C59.0023 69.2175 59.0023 69.3244 59.0023 69.4312C59.0165 69.4455 59.0307 69.4597 59.0486 69.474C59.0343 69.4918 59.0201 69.5025 59.0023 69.5203V69.5844H58.9346C58.8277 69.5844 58.7209 69.5844 58.6176 69.5844H59.0023C59.4831 69.5844 59.9674 69.5844 60.4482 69.5809H60.5728C61.0145 69.5809 61.4525 69.5773 61.8906 69.5737C62.3678 69.5702 62.845 69.5666 63.3187 69.563C63.7924 69.5595 64.2625 69.5524 64.729 69.5452C65.1956 69.5381 65.6621 69.531 66.1215 69.5239C66.1287 69.2745 66.1394 69.0251 66.1429 68.7722C66.207 68.7722 66.2676 68.7722 66.3317 68.7687C65.5766 68.79 64.8109 68.7972 64.0381 68.8043ZM73.743 68.9646L73.7145 68.6155H73.7038C71.8234 68.6796 69.7186 68.7295 67.4891 68.7615C67.3467 68.7615 67.2042 68.7651 67.0618 68.7687C67.0653 68.6226 67.0724 68.473 67.076 68.3234C67.1437 65.9189 67.1223 63.4396 67.0155 61.0992C67.1081 61.0992 67.2007 61.1028 67.2933 61.1063C67.5212 61.1135 67.7527 61.117 67.977 61.1241C68.4792 61.1384 68.9778 61.1526 69.4693 61.1704C69.2485 60.9959 69.0241 60.8285 68.789 60.6717C68.7819 60.661 68.7748 60.6468 68.7677 60.6361C68.6573 60.5613 68.5469 60.4901 68.4329 60.4188C68.4222 60.4188 68.4115 60.4188 68.4009 60.4188C68.1622 60.4117 67.9201 60.4046 67.6743 60.3974C67.4428 60.3903 67.2113 60.3832 66.9763 60.3761C66.962 60.1303 66.9514 59.8845 66.9335 59.6458C66.6914 59.5389 66.4456 59.4428 66.1963 59.3502C66.2177 59.6814 66.2355 60.0163 66.2498 60.3583C63.7888 60.2977 61.1997 60.2656 58.6069 60.2656C58.6069 59.9344 58.6069 59.6066 58.6069 59.2825C58.3505 59.368 58.0941 59.4641 57.8448 59.571C57.8448 59.8026 57.8448 60.0341 57.8412 60.2692C57.3747 60.2692 56.9117 60.2728 56.4487 60.2763C56.0641 60.5043 55.6901 60.7537 55.334 61.0244C56.1638 61.0173 57.0007 61.0137 57.8377 61.0137C57.8305 63.5464 57.827 66.2466 57.8341 68.8399C55.5405 68.8364 53.2612 68.8221 51.071 68.7936C51.0033 68.7936 50.9356 68.7936 50.868 68.79C50.8359 69.0358 50.8145 69.2888 50.8003 69.5381C50.8965 69.5417 50.9962 69.5417 51.0959 69.5417C52.3424 69.563 53.6209 69.5773 54.9137 69.5844C55.0633 69.5844 55.2093 69.588 55.3589 69.588C55.6082 69.588 55.8611 69.5915 56.1139 69.5915C56.3632 69.5915 56.6125 69.5951 56.8583 69.5951C57.1824 69.5951 57.51 69.5951 57.8377 69.5951C57.8448 72.167 57.859 74.6072 57.8804 76.6447C56.1353 76.6376 54.3938 76.6056 52.695 76.545C52.695 76.545 52.695 76.545 52.6914 76.545C52.8267 76.7481 52.9656 76.9511 53.1152 77.1435H53.1223C54.6858 77.2005 56.2849 77.229 57.884 77.2361C57.9018 78.7215 57.9231 79.9612 57.9481 80.8375V80.8624C58.1511 80.9479 58.3612 81.0227 58.5713 81.094V81.069C58.582 80.1856 58.5891 78.8569 58.5927 77.2361C60.9931 77.2325 63.3899 77.1755 65.6799 77.0651C65.6229 77.4641 65.5588 77.8452 65.4912 78.205C65.4698 78.319 65.4484 78.433 65.4271 78.5434C65.1849 79.7831 64.8964 80.7698 64.5616 81.3968C63.2297 81.468 61.8692 81.5179 60.4981 81.5392C61.0786 81.6319 61.6733 81.6746 62.2788 81.6746C63.1478 81.6746 63.9954 81.5784 64.8109 81.3932C64.8537 81.3861 64.8964 81.3754 64.9391 81.3647L65.1671 81.3113C65.6514 80.435 66.0503 78.9246 66.353 77.0259C68.2869 76.919 70.1388 76.7766 71.8376 76.5913C71.8519 76.5913 71.8626 76.5878 71.8768 76.5878C72.005 76.3954 72.1297 76.1995 72.2472 75.9964C72.233 75.9964 72.2223 76 72.208 76C70.4309 76.1888 68.4828 76.3384 66.4385 76.4453C66.7306 74.429 66.9229 72.0352 67.0261 69.5132C69.3055 69.4704 71.4601 69.4099 73.3868 69.3315C73.4367 69.3315 73.483 69.3279 73.5329 69.3244C73.6148 69.3208 73.6931 69.3172 73.7715 69.3137C73.7644 69.2033 73.7537 69.0821 73.743 68.9646Z" fill="#0054A6"/>
<path opacity="0.8" d="M64.0381 68.8043C63.9598 68.8043 63.8814 68.8043 63.8066 68.8043C63.6464 68.8043 63.4897 68.8079 63.3294 68.8079C62.8522 68.8114 62.3749 68.815 61.8977 68.815C61.4169 68.8185 60.9361 68.8185 60.4518 68.8221C59.9923 68.8221 59.5329 68.8257 59.0735 68.8257H59.0023C59.0023 68.9183 59.0023 69.0145 59.0023 69.1106C59.0023 69.2175 59.0023 69.3244 59.0023 69.4312C59.0165 69.4455 59.0307 69.4597 59.0486 69.474C59.0343 69.4918 59.0201 69.5025 59.0023 69.5203V69.5844H58.9346C58.8277 69.5844 58.7209 69.5844 58.6176 69.5844H59.0023C59.4831 69.5844 59.9674 69.5844 60.4482 69.5809H60.5728C61.0145 69.5809 61.4525 69.5773 61.8906 69.5737C62.3678 69.5702 62.845 69.5666 63.3187 69.563C63.7924 69.5595 64.2625 69.5524 64.729 69.5452C65.1956 69.5381 65.6621 69.531 66.1215 69.5239C66.1287 69.2745 66.1394 69.0251 66.1429 68.7722C66.207 68.7722 66.2676 68.7722 66.3317 68.7687C65.5766 68.79 64.8109 68.7972 64.0381 68.8043ZM73.7964 69.7982C73.7964 69.759 73.7964 69.7162 73.7929 69.677C73.7893 69.7233 73.7857 69.7697 73.7822 69.816C73.6896 70.9986 73.5578 72.1492 73.3868 73.2393C73.6611 72.2597 73.8035 71.2266 73.8035 70.1615C73.8035 70.0368 73.8035 69.9193 73.7964 69.7982ZM64.0381 68.8043C63.9598 68.8043 63.8814 68.8043 63.8066 68.8043C63.6464 68.8043 63.4897 68.8079 63.3294 68.8079C62.8522 68.8114 62.3749 68.815 61.8977 68.815C61.4169 68.8185 60.9361 68.8185 60.4518 68.8221C59.9923 68.8221 59.5329 68.8257 59.0735 68.8257H59.0023C59.0023 68.9183 59.0023 69.0145 59.0023 69.1106C59.0023 69.2175 59.0023 69.3244 59.0023 69.4312C59.0165 69.4455 59.0307 69.4597 59.0486 69.474C59.0343 69.4918 59.0201 69.5025 59.0023 69.5203V69.5844H58.9346C58.8277 69.5844 58.7209 69.5844 58.6176 69.5844H59.0023C59.4831 69.5844 59.9674 69.5844 60.4482 69.5809H60.5728C61.0145 69.5809 61.4525 69.5773 61.8906 69.5737C62.3678 69.5702 62.845 69.5666 63.3187 69.563C63.7924 69.5595 64.2625 69.5524 64.729 69.5452C65.1956 69.5381 65.6621 69.531 66.1215 69.5239C66.1287 69.2745 66.1394 69.0251 66.1429 68.7722C66.207 68.7722 66.2676 68.7722 66.3317 68.7687C65.5766 68.79 64.8109 68.7972 64.0381 68.8043ZM64.0381 68.8043C63.9598 68.8043 63.8814 68.8043 63.8066 68.8043C63.6464 68.8043 63.4897 68.8079 63.3294 68.8079C62.8522 68.8114 62.3749 68.815 61.8977 68.815C61.4169 68.8185 60.9361 68.8185 60.4518 68.8221C59.9923 68.8221 59.5329 68.8257 59.0735 68.8257H59.0023C59.0023 68.9183 59.0023 69.0145 59.0023 69.1106C59.0023 69.2175 59.0023 69.3244 59.0023 69.4312C59.0165 69.4455 59.0307 69.4597 59.0486 69.474C59.0343 69.4918 59.0201 69.5025 59.0023 69.5203V69.5844H58.9346C58.8277 69.5844 58.7209 69.5844 58.6176 69.5844H59.0023C59.4831 69.5844 59.9674 69.5844 60.4482 69.5809H60.5728C61.0145 69.5809 61.4525 69.5773 61.8906 69.5737C62.3678 69.5702 62.845 69.5666 63.3187 69.563C63.7924 69.5595 64.2625 69.5524 64.729 69.5452C65.1956 69.5381 65.6621 69.531 66.1215 69.5239C66.1287 69.2745 66.1394 69.0251 66.1429 68.7722C66.207 68.7722 66.2676 68.7722 66.3317 68.7687C65.5766 68.79 64.8109 68.7972 64.0381 68.8043ZM64.0381 68.8043C63.9598 68.8043 63.8814 68.8043 63.8066 68.8043C63.6464 68.8043 63.4897 68.8079 63.3294 68.8079C62.8522 68.8114 62.3749 68.815 61.8977 68.815C61.4169 68.8185 60.9361 68.8185 60.4518 68.8221C59.9923 68.8221 59.5329 68.8257 59.0735 68.8257H59.0023C59.0023 68.9183 59.0023 69.0145 59.0023 69.1106C59.0023 69.2175 59.0023 69.3244 59.0023 69.4312C59.0165 69.4455 59.0307 69.4597 59.0486 69.474C59.0343 69.4918 59.0201 69.5025 59.0023 69.5203V69.5844H58.9346C58.8277 69.5844 58.7209 69.5844 58.6176 69.5844H59.0023C59.4831 69.5844 59.9674 69.5844 60.4482 69.5809H60.5728C61.0145 69.5809 61.4525 69.5773 61.8906 69.5737C62.3678 69.5702 62.845 69.5666 63.3187 69.563C63.7924 69.5595 64.2625 69.5524 64.729 69.5452C65.1956 69.5381 65.6621 69.531 66.1215 69.5239C66.1287 69.2745 66.1394 69.0251 66.1429 68.7722C66.207 68.7722 66.2676 68.7722 66.3317 68.7687C65.5766 68.79 64.8109 68.7972 64.0381 68.8043ZM64.0381 68.8043C63.9598 68.8043 63.8814 68.8043 63.8066 68.8043C63.6464 68.8043 63.4897 68.8079 63.3294 68.8079C62.8522 68.8114 62.3749 68.815 61.8977 68.815C61.4169 68.8185 60.9361 68.8185 60.4518 68.8221C59.9923 68.8221 59.5329 68.8257 59.0735 68.8257H59.0023C59.0023 68.9183 59.0023 69.0145 59.0023 69.1106C59.0023 69.2175 59.0023 69.3244 59.0023 69.4312C59.0165 69.4455 59.0307 69.4597 59.0486 69.474C59.0343 69.4918 59.0201 69.5025 59.0023 69.5203V69.5844H58.9346C58.8277 69.5844 58.7209 69.5844 58.6176 69.5844H59.0023C59.4831 69.5844 59.9674 69.5844 60.4482 69.5809H60.5728C61.0145 69.5809 61.4525 69.5773 61.8906 69.5737C62.3678 69.5702 62.845 69.5666 63.3187 69.563C63.7924 69.5595 64.2625 69.5524 64.729 69.5452C65.1956 69.5381 65.6621 69.531 66.1215 69.5239C66.1287 69.2745 66.1394 69.0251 66.1429 68.7722C66.207 68.7722 66.2676 68.7722 66.3317 68.7687C65.5766 68.79 64.8109 68.7972 64.0381 68.8043ZM64.0381 68.8043C63.9598 68.8043 63.8814 68.8043 63.8066 68.8043C63.6464 68.8043 63.4897 68.8079 63.3294 68.8079C62.8522 68.8114 62.3749 68.815 61.8977 68.815C61.4169 68.8185 60.9361 68.8185 60.4518 68.8221C59.9923 68.8221 59.5329 68.8257 59.0735 68.8257H59.0023C59.0023 68.9183 59.0023 69.0145 59.0023 69.1106C59.0023 69.2175 59.0023 69.3244 59.0023 69.4312C59.0165 69.4455 59.0307 69.4597 59.0486 69.474C59.0343 69.4918 59.0201 69.5025 59.0023 69.5203V69.5844H58.9346C58.8277 69.5844 58.7209 69.5844 58.6176 69.5844H59.0023C59.4831 69.5844 59.9674 69.5844 60.4482 69.5809H60.5728C61.0145 69.5809 61.4525 69.5773 61.8906 69.5737C62.3678 69.5702 62.845 69.5666 63.3187 69.563C63.7924 69.5595 64.2625 69.5524 64.729 69.5452C65.1956 69.5381 65.6621 69.531 66.1215 69.5239C66.1287 69.2745 66.1394 69.0251 66.1429 68.7722C66.207 68.7722 66.2676 68.7722 66.3317 68.7687C65.5766 68.79 64.8109 68.7972 64.0381 68.8043ZM64.0381 68.8043C63.9598 68.8043 63.8814 68.8043 63.8066 68.8043C63.6464 68.8043 63.4897 68.8079 63.3294 68.8079C62.8522 68.8114 62.3749 68.815 61.8977 68.815C61.4169 68.8185 60.9361 68.8185 60.4518 68.8221C59.9923 68.8221 59.5329 68.8257 59.0735 68.8257H59.0023C59.0023 68.9183 59.0023 69.0145 59.0023 69.1106C59.0023 69.2175 59.0023 69.3244 59.0023 69.4312C59.0165 69.4455 59.0307 69.4597 59.0486 69.474C59.0343 69.4918 59.0201 69.5025 59.0023 69.5203V69.5844H58.9346C58.8277 69.5844 58.7209 69.5844 58.6176 69.5844H59.0023C59.4831 69.5844 59.9674 69.5844 60.4482 69.5809H60.5728C61.0145 69.5809 61.4525 69.5773 61.8906 69.5737C62.3678 69.5702 62.845 69.5666 63.3187 69.563C63.7924 69.5595 64.2625 69.5524 64.729 69.5452C65.1956 69.5381 65.6621 69.531 66.1215 69.5239C66.1287 69.2745 66.1394 69.0251 66.1429 68.7722C66.207 68.7722 66.2676 68.7722 66.3317 68.7687C65.5766 68.79 64.8109 68.7972 64.0381 68.8043ZM64.0381 68.8043C63.9598 68.8043 63.8814 68.8043 63.8066 68.8043C63.6464 68.8043 63.4897 68.8079 63.3294 68.8079C62.8522 68.8114 62.3749 68.815 61.8977 68.815C61.4169 68.8185 60.9361 68.8185 60.4518 68.8221C59.9923 68.8221 59.5329 68.8257 59.0735 68.8257H59.0023C59.0023 68.9183 59.0023 69.0145 59.0023 69.1106C59.0023 69.2175 59.0023 69.3244 59.0023 69.4312C59.0165 69.4455 59.0307 69.4597 59.0486 69.474C59.0343 69.4918 59.0201 69.5025 59.0023 69.5203V69.5844H58.9346C58.8277 69.5844 58.7209 69.5844 58.6176 69.5844H59.0023C59.4831 69.5844 59.9674 69.5844 60.4482 69.5809H60.5728C61.0145 69.5809 61.4525 69.5773 61.8906 69.5737C62.3678 69.5702 62.845 69.5666 63.3187 69.563C63.7924 69.5595 64.2625 69.5524 64.729 69.5452C65.1956 69.5381 65.6621 69.531 66.1215 69.5239C66.1287 69.2745 66.1394 69.0251 66.1429 68.7722C66.207 68.7722 66.2676 68.7722 66.3317 68.7687C65.5766 68.79 64.8109 68.7972 64.0381 68.8043ZM64.0381 68.8043C63.9598 68.8043 63.8814 68.8043 63.8066 68.8043C63.6464 68.8043 63.4897 68.8079 63.3294 68.8079C62.8522 68.8114 62.3749 68.815 61.8977 68.815C61.4169 68.8185 60.9361 68.8185 60.4518 68.8221C59.9923 68.8221 59.5329 68.8257 59.0735 68.8257H59.0023C59.0023 68.9183 59.0023 69.0145 59.0023 69.1106C59.0023 69.2175 59.0023 69.3244 59.0023 69.4312C59.0165 69.4455 59.0307 69.4597 59.0486 69.474C59.0343 69.4882 59.0165 69.5025 59.0023 69.5203V69.588C59.4831 69.588 59.9674 69.588 60.4482 69.5844H60.5728C61.0145 69.5844 61.4525 69.5809 61.8906 69.5773C62.3678 69.5737 62.845 69.5702 63.3187 69.5666C63.7924 69.563 64.2625 69.5559 64.729 69.5488C65.1956 69.5417 65.6621 69.5345 66.1215 69.5274C66.1287 69.2781 66.1394 69.0287 66.1429 68.7758C66.207 68.7758 66.2676 68.7758 66.3317 68.7722C65.5766 68.79 64.8109 68.7972 64.0381 68.8043ZM64.0381 68.8043C63.9598 68.8043 63.8814 68.8043 63.8066 68.8043C63.6464 68.8043 63.4897 68.8079 63.3294 68.8079C62.8522 68.8114 62.3749 68.815 61.8977 68.815C61.4169 68.8185 60.9361 68.8185 60.4518 68.8221C59.9923 68.8221 59.5329 68.8257 59.0735 68.8257H59.0023C59.0023 68.9183 59.0023 69.0145 59.0023 69.1106C59.0023 69.2175 59.0023 69.3244 59.0023 69.4312C59.0165 69.4455 59.0307 69.4597 59.0486 69.474C59.0343 69.4882 59.0165 69.5025 59.0023 69.5203V69.588C59.4831 69.588 59.9674 69.588 60.4482 69.5844H60.5728C61.0145 69.5844 61.4525 69.5809 61.8906 69.5773C62.3678 69.5737 62.845 69.5702 63.3187 69.5666C63.7924 69.563 64.2625 69.5559 64.729 69.5488C65.1956 69.5417 65.6621 69.5345 66.1215 69.5274C66.1287 69.2781 66.1394 69.0287 66.1429 68.7758C66.207 68.7758 66.2676 68.7758 66.3317 68.7722C65.5766 68.79 64.8109 68.7972 64.0381 68.8043ZM64.0381 68.8043C63.9598 68.8043 63.8814 68.8043 63.8066 68.8043C63.6464 68.8043 63.4897 68.8079 63.3294 68.8079C62.8522 68.8114 62.3749 68.815 61.8977 68.815C61.4169 68.8185 60.9361 68.8185 60.4518 68.8221C59.9923 68.8221 59.5329 68.8257 59.0735 68.8257H59.0023C59.0023 68.9183 59.0023 69.0145 59.0023 69.1106C59.0023 69.2175 59.0023 69.3244 59.0023 69.4312C59.0165 69.4455 59.0307 69.4597 59.0486 69.474C59.0343 69.4882 59.0165 69.5025 59.0023 69.5203V69.588C59.4831 69.588 59.9674 69.588 60.4482 69.5844H60.5728C61.0145 69.5844 61.4525 69.5809 61.8906 69.5773C62.3678 69.5737 62.845 69.5702 63.3187 69.5666C63.7924 69.563 64.2625 69.5559 64.729 69.5488C65.1956 69.5417 65.6621 69.5345 66.1215 69.5274C66.1287 69.2781 66.1394 69.0287 66.1429 68.7758C66.207 68.7758 66.2676 68.7758 66.3317 68.7722C65.5766 68.79 64.8109 68.7972 64.0381 68.8043ZM64.0381 68.8043C63.9598 68.8043 63.8814 68.8043 63.8066 68.8043C63.6464 68.8043 63.4897 68.8079 63.3294 68.8079C62.8522 68.8114 62.3749 68.815 61.8977 68.815C61.4169 68.8185 60.9361 68.8185 60.4518 68.8221C59.9923 68.8221 59.5329 68.8257 59.0735 68.8257H59.0023C59.0023 68.9183 59.0023 69.0145 59.0023 69.1106C59.0023 69.2175 59.0023 69.3244 59.0023 69.4312C59.0165 69.4455 59.0307 69.4597 59.0486 69.474C59.0343 69.4882 59.0165 69.5025 59.0023 69.5203V69.588C59.4831 69.588 59.9674 69.588 60.4482 69.5844H60.5728C61.0145 69.5844 61.4525 69.5809 61.8906 69.5773C62.3678 69.5737 62.845 69.5702 63.3187 69.5666C63.7924 69.563 64.2625 69.5559 64.729 69.5488C65.1956 69.5417 65.6621 69.5345 66.1215 69.5274C66.1287 69.2781 66.1394 69.0287 66.1429 68.7758C66.207 68.7758 66.2676 68.7758 66.3317 68.7722C65.5766 68.79 64.8109 68.7972 64.0381 68.8043ZM64.0381 68.8043C63.9598 68.8043 63.8814 68.8043 63.8066 68.8043C63.6464 68.8043 63.4897 68.8079 63.3294 68.8079C62.8522 68.8114 62.3749 68.815 61.8977 68.815C61.4169 68.8185 60.9361 68.8185 60.4518 68.8221C59.9923 68.8221 59.5329 68.8257 59.0735 68.8257H59.0023C59.0023 68.9183 59.0023 69.0145 59.0023 69.1106C59.0023 69.2175 59.0023 69.3244 59.0023 69.4312C59.0165 69.4455 59.0307 69.4597 59.0486 69.474C59.0343 69.4882 59.0165 69.5025 59.0023 69.5203V69.588C59.4831 69.588 59.9674 69.588 60.4482 69.5844H60.5728C61.0145 69.5844 61.4525 69.5809 61.8906 69.5773C62.3678 69.5737 62.845 69.5702 63.3187 69.5666C63.7924 69.563 64.2625 69.5559 64.729 69.5488C65.1956 69.5417 65.6621 69.5345 66.1215 69.5274C66.1287 69.2781 66.1394 69.0287 66.1429 68.7758C66.207 68.7758 66.2676 68.7758 66.3317 68.7722C65.5766 68.79 64.8109 68.7972 64.0381 68.8043ZM64.0381 68.8043C63.9598 68.8043 63.8814 68.8043 63.8066 68.8043C63.6464 68.8043 63.4897 68.8079 63.3294 68.8079C62.8522 68.8114 62.3749 68.815 61.8977 68.815C61.4169 68.8185 60.9361 68.8185 60.4518 68.8221C59.9923 68.8221 59.5329 68.8257 59.0735 68.8257H59.0023C59.0023 68.9183 59.0023 69.0145 59.0023 69.1106C59.0023 69.2175 59.0023 69.3244 59.0023 69.4312C59.0165 69.4455 59.0307 69.4597 59.0486 69.474C59.0343 69.4882 59.0165 69.5025 59.0023 69.5203V69.588C59.4831 69.588 59.9674 69.588 60.4482 69.5844H60.5728C61.0145 69.5844 61.4525 69.5809 61.8906 69.5773C62.3678 69.5737 62.845 69.5702 63.3187 69.5666C63.7924 69.563 64.2625 69.5559 64.729 69.5488C65.1956 69.5417 65.6621 69.5345 66.1215 69.5274C66.1287 69.2781 66.1394 69.0287 66.1429 68.7758C66.207 68.7758 66.2676 68.7758 66.3317 68.7722C65.5766 68.79 64.8109 68.7972 64.0381 68.8043ZM64.0381 68.8043C63.9598 68.8043 63.8814 68.8043 63.8066 68.8043C63.6464 68.8043 63.4897 68.8079 63.3294 68.8079C62.8522 68.8114 62.3749 68.815 61.8977 68.815C61.4169 68.8185 60.9361 68.8185 60.4518 68.8221C59.9923 68.8221 59.5329 68.8257 59.0735 68.8257H59.0023C59.0023 68.9183 59.0023 69.0145 59.0023 69.1106C59.0023 69.2175 59.0023 69.3244 59.0023 69.4312C59.0165 69.4455 59.0307 69.4597 59.0486 69.474C59.0343 69.4918 59.0201 69.5025 59.0023 69.5203V69.5844H58.9346C58.8277 69.5844 58.7209 69.5844 58.6176 69.5844H59.0023C59.4831 69.5844 59.9674 69.5844 60.4482 69.5809H60.5728C61.0145 69.5809 61.4525 69.5773 61.8906 69.5737C62.3678 69.5702 62.845 69.5666 63.3187 69.563C63.7924 69.5595 64.2625 69.5524 64.729 69.5452C65.1956 69.5381 65.6621 69.531 66.1215 69.5239C66.1287 69.2745 66.1394 69.0251 66.1429 68.7722C66.207 68.7722 66.2676 68.7722 66.3317 68.7687C65.5766 68.79 64.8109 68.7972 64.0381 68.8043ZM64.0381 68.8043C63.9598 68.8043 63.8814 68.8043 63.8066 68.8043C63.6464 68.8043 63.4897 68.8079 63.3294 68.8079C62.8522 68.8114 62.3749 68.815 61.8977 68.815C61.4169 68.8185 60.9361 68.8185 60.4518 68.8221C59.9923 68.8221 59.5329 68.8257 59.0735 68.8257H59.0023C59.0023 68.9183 59.0023 69.0145 59.0023 69.1106C59.0023 69.2175 59.0023 69.3244 59.0023 69.4312C59.0165 69.4455 59.0307 69.4597 59.0486 69.474C59.0343 69.4918 59.0201 69.5025 59.0023 69.5203V69.5844H58.9346C58.8277 69.5844 58.7209 69.5844 58.6176 69.5844H59.0023C59.4831 69.5844 59.9674 69.5844 60.4482 69.5809H60.5728C61.0145 69.5809 61.4525 69.5773 61.8906 69.5737C62.3678 69.5702 62.845 69.5666 63.3187 69.563C63.7924 69.5595 64.2625 69.5524 64.729 69.5452C65.1956 69.5381 65.6621 69.531 66.1215 69.5239C66.1287 69.2745 66.1394 69.0251 66.1429 68.7722C66.207 68.7722 66.2676 68.7722 66.3317 68.7687C65.5766 68.79 64.8109 68.7972 64.0381 68.8043ZM64.0381 68.8043C63.9598 68.8043 63.8814 68.8043 63.8066 68.8043C63.6464 68.8043 63.4897 68.8079 63.3294 68.8079C62.8522 68.8114 62.3749 68.815 61.8977 68.815C61.4169 68.8185 60.9361 68.8185 60.4518 68.8221C59.9923 68.8221 59.5329 68.8257 59.0735 68.8257H59.0023C59.0023 68.9183 59.0023 69.0145 59.0023 69.1106C59.0023 69.2175 59.0023 69.3244 59.0023 69.4312C59.0165 69.4455 59.0307 69.4597 59.0486 69.474C59.0343 69.4918 59.0201 69.5025 59.0023 69.5203V69.5844H58.9346C58.8277 69.5844 58.7209 69.5844 58.6176 69.5844H59.0023C59.4831 69.5844 59.9674 69.5844 60.4482 69.5809H60.5728C61.0145 69.5809 61.4525 69.5773 61.8906 69.5737C62.3678 69.5702 62.845 69.5666 63.3187 69.563C63.7924 69.5595 64.2625 69.5524 64.729 69.5452C65.1956 69.5381 65.6621 69.531 66.1215 69.5239C66.1287 69.2745 66.1394 69.0251 66.1429 68.7722C66.207 68.7722 66.2676 68.7722 66.3317 68.7687C65.5766 68.79 64.8109 68.7972 64.0381 68.8043ZM64.0381 68.8043C63.9598 68.8043 63.8814 68.8043 63.8066 68.8043C63.6464 68.8043 63.4897 68.8079 63.3294 68.8079C62.8522 68.8114 62.3749 68.815 61.8977 68.815C61.4169 68.8185 60.9361 68.8185 60.4518 68.8221C59.9923 68.8221 59.5329 68.8257 59.0735 68.8257H59.0023C59.0023 68.9183 59.0023 69.0145 59.0023 69.1106C59.0023 69.2175 59.0023 69.3244 59.0023 69.4312C59.0165 69.4455 59.0307 69.4597 59.0486 69.474C59.0343 69.4918 59.0201 69.5025 59.0023 69.5203V69.5844H58.9346C58.8277 69.5844 58.7209 69.5844 58.6176 69.5844H59.0023C59.4831 69.5844 59.9674 69.5844 60.4482 69.5809H60.5728C61.0145 69.5809 61.4525 69.5773 61.8906 69.5737C62.3678 69.5702 62.845 69.5666 63.3187 69.563C63.7924 69.5595 64.2625 69.5524 64.729 69.5452C65.1956 69.5381 65.6621 69.531 66.1215 69.5239C66.1287 69.2745 66.1394 69.0251 66.1429 68.7722C66.207 68.7722 66.2676 68.7722 66.3317 68.7687C65.5766 68.79 64.8109 68.7972 64.0381 68.8043ZM64.0381 68.8043C63.9598 68.8043 63.8814 68.8043 63.8066 68.8043C63.6464 68.8043 63.4897 68.8079 63.3294 68.8079C62.8522 68.8114 62.3749 68.815 61.8977 68.815C61.4169 68.8185 60.9361 68.8185 60.4518 68.8221C59.9923 68.8221 59.5329 68.8257 59.0735 68.8257H59.0023C59.0023 68.9183 59.0023 69.0145 59.0023 69.1106C59.0023 69.2175 59.0023 69.3244 59.0023 69.4312C59.0165 69.4455 59.0307 69.4597 59.0486 69.474C59.0343 69.4918 59.0201 69.5025 59.0023 69.5203V69.5844H58.9346C58.8277 69.5844 58.7209 69.5844 58.6176 69.5844H59.0023C59.4831 69.5844 59.9674 69.5844 60.4482 69.5809H60.5728C61.0145 69.5809 61.4525 69.5773 61.8906 69.5737C62.3678 69.5702 62.845 69.5666 63.3187 69.563C63.7924 69.5595 64.2625 69.5524 64.729 69.5452C65.1956 69.5381 65.6621 69.531 66.1215 69.5239C66.1287 69.2745 66.1394 69.0251 66.1429 68.7722C66.207 68.7722 66.2676 68.7722 66.3317 68.7687C65.5766 68.79 64.8109 68.7972 64.0381 68.8043ZM64.0381 68.8043C63.9598 68.8043 63.8814 68.8043 63.8066 68.8043C63.6464 68.8043 63.4897 68.8079 63.3294 68.8079C62.8522 68.8114 62.3749 68.815 61.8977 68.815C61.4169 68.8185 60.9361 68.8185 60.4518 68.8221C59.9923 68.8221 59.5329 68.8257 59.0735 68.8257H59.0023C59.0023 68.9183 59.0023 69.0145 59.0023 69.1106C59.0023 69.2175 59.0023 69.3244 59.0023 69.4312C59.0165 69.4455 59.0307 69.4597 59.0486 69.474C59.0343 69.4918 59.0201 69.5025 59.0023 69.5203V69.5844H58.9346C58.8277 69.5844 58.7209 69.5844 58.6176 69.5844H59.0023C59.4831 69.5844 59.9674 69.5844 60.4482 69.5809H60.5728C61.0145 69.5809 61.4525 69.5773 61.8906 69.5737C62.3678 69.5702 62.845 69.5666 63.3187 69.563C63.7924 69.5595 64.2625 69.5524 64.729 69.5452C65.1956 69.5381 65.6621 69.531 66.1215 69.5239C66.1287 69.2745 66.1394 69.0251 66.1429 68.7722C66.207 68.7722 66.2676 68.7722 66.3317 68.7687C65.5766 68.79 64.8109 68.7972 64.0381 68.8043ZM64.0381 68.8043C63.9598 68.8043 63.8814 68.8043 63.8066 68.8043C63.6464 68.8043 63.4897 68.8079 63.3294 68.8079C62.8522 68.8114 62.3749 68.815 61.8977 68.815C61.4169 68.8185 60.9361 68.8185 60.4518 68.8221C59.9923 68.8221 59.5329 68.8257 59.0735 68.8257H59.0023C59.0023 68.9183 59.0023 69.0145 59.0023 69.1106C59.0023 69.2175 59.0023 69.3244 59.0023 69.4312C59.0165 69.4455 59.0307 69.4597 59.0486 69.474C59.0343 69.4918 59.0201 69.5025 59.0023 69.5203V69.5844H58.9346C58.8277 69.5844 58.7209 69.5844 58.6176 69.5844H59.0023C59.4831 69.5844 59.9674 69.5844 60.4482 69.5809H60.5728C61.0145 69.5809 61.4525 69.5773 61.8906 69.5737C62.3678 69.5702 62.845 69.5666 63.3187 69.563C63.7924 69.5595 64.2625 69.5524 64.729 69.5452C65.1956 69.5381 65.6621 69.531 66.1215 69.5239C66.1287 69.2745 66.1394 69.0251 66.1429 68.7722C66.207 68.7722 66.2676 68.7722 66.3317 68.7687C65.5766 68.79 64.8109 68.7972 64.0381 68.8043ZM73.743 68.9646L73.7145 68.6155H73.7038C71.8234 68.6796 69.7186 68.7295 67.4891 68.7615C67.3467 68.7615 67.2042 68.7651 67.0618 68.7687C67.0653 68.6226 67.0724 68.473 67.076 68.3234C67.1437 65.9189 67.1223 63.4396 67.0155 61.0992C67.1081 61.0992 67.2007 61.1028 67.2933 61.1063C67.5212 61.1135 67.7527 61.117 67.977 61.1241C68.4792 61.1384 68.9778 61.1526 69.4693 61.1704C69.2485 60.9959 69.0241 60.8285 68.789 60.6717C68.7819 60.661 68.7748 60.6468 68.7677 60.6361C68.6573 60.5613 68.5469 60.4901 68.4329 60.4188C68.4222 60.4188 68.4115 60.4188 68.4009 60.4188C68.1622 60.4117 67.9201 60.4046 67.6743 60.3974C67.4428 60.3903 67.2113 60.3832 66.9763 60.3761C66.962 60.1303 66.9514 59.8845 66.9335 59.6458C66.6914 59.5389 66.4456 59.4428 66.1963 59.3502C66.2177 59.6814 66.2355 60.0163 66.2498 60.3583C63.7888 60.2977 61.1997 60.2656 58.6069 60.2656C58.6069 59.9344 58.6069 59.6066 58.6069 59.2825C58.3505 59.368 58.0941 59.4641 57.8448 59.571C57.8448 59.8026 57.8448 60.0341 57.8412 60.2692C57.3747 60.2692 56.9117 60.2728 56.4487 60.2763C56.0641 60.5043 55.6901 60.7537 55.334 61.0244C56.1638 61.0173 57.0007 61.0137 57.8377 61.0137C57.8305 63.5464 57.827 66.2466 57.8341 68.8399C55.5405 68.8364 53.2612 68.8221 51.071 68.7936C51.0033 68.7936 50.9356 68.7936 50.868 68.79C50.8359 69.0358 50.8145 69.2888 50.8003 69.5381C50.8965 69.5417 50.9962 69.5417 51.0959 69.5417C52.3424 69.563 53.6209 69.5773 54.9137 69.5844C55.0633 69.5844 55.2093 69.588 55.3589 69.588C55.6082 69.588 55.8611 69.5915 56.1139 69.5915C56.3632 69.5915 56.6125 69.5951 56.8583 69.5951C57.1824 69.5951 57.51 69.5951 57.8377 69.5951C57.8448 72.167 57.859 74.6072 57.8804 76.6447C56.1353 76.6376 54.3938 76.6056 52.695 76.545C52.695 76.545 52.695 76.545 52.6914 76.545C52.8267 76.7481 52.9656 76.9511 53.1152 77.1435H53.1223C54.6858 77.2005 56.2849 77.229 57.884 77.2361C57.9018 78.7215 57.9231 79.9612 57.9481 80.8375V80.8624C58.1511 80.9479 58.3612 81.0227 58.5713 81.094V81.069C58.582 80.1856 58.5891 78.8569 58.5927 77.2361C60.9931 77.2325 63.3899 77.1755 65.6799 77.0651C65.6229 77.4641 65.5588 77.8452 65.4912 78.205C65.4698 78.319 65.4484 78.433 65.4271 78.5434C65.1849 79.7831 64.8964 80.7698 64.5616 81.3968C63.2297 81.468 61.8692 81.5179 60.4981 81.5392C61.0786 81.6319 61.6733 81.6746 62.2788 81.6746C63.1478 81.6746 63.9954 81.5784 64.8109 81.3932C64.8537 81.3861 64.8964 81.3754 64.9391 81.3647L65.1671 81.3113C65.6514 80.435 66.0503 78.9246 66.353 77.0259C68.2869 76.919 70.1388 76.7766 71.8376 76.5913C71.8519 76.5913 71.8626 76.5878 71.8768 76.5878C72.005 76.3954 72.1297 76.1995 72.2472 75.9964C72.233 75.9964 72.2223 76 72.208 76C70.4309 76.1888 68.4828 76.3384 66.4385 76.4453C66.7306 74.429 66.9229 72.0352 67.0261 69.5132C69.3055 69.4704 71.4601 69.4099 73.3868 69.3315C73.4367 69.3315 73.483 69.3279 73.5329 69.3244C73.6148 69.3208 73.6931 69.3172 73.7715 69.3137C73.7644 69.2033 73.7537 69.0821 73.743 68.9646ZM66.1287 72.8474C66.1109 73.079 66.0931 73.3105 66.0752 73.5385C65.9898 74.5822 65.8865 75.569 65.769 76.4809C63.454 76.5913 61.0287 76.6448 58.5998 76.6483C58.6069 74.6891 58.6105 72.363 58.6141 69.9086V69.5951H58.9987C59.4795 69.5951 59.9638 69.5951 60.4446 69.5915H60.5693C61.0109 69.5915 61.449 69.588 61.887 69.5844C62.3642 69.5809 62.8415 69.5773 63.3151 69.5737C63.7888 69.5702 64.2589 69.563 64.7255 69.5559C65.192 69.5488 65.6586 69.5417 66.118 69.5346C66.1821 69.5346 66.2426 69.5345 66.3067 69.531C66.264 70.6673 66.2035 71.7823 66.1287 72.8474ZM66.3281 68.7794C65.5767 68.79 64.8109 68.7972 64.0381 68.8043C63.9598 68.8043 63.8814 68.8043 63.8066 68.8043C63.6464 68.8043 63.4897 68.8079 63.3294 68.8079C62.8522 68.8114 62.3749 68.815 61.8977 68.815C61.4169 68.8185 60.9361 68.8185 60.4518 68.8221C59.9923 68.8221 59.5329 68.8257 59.0735 68.8257H59.0023C58.9702 68.8257 58.9417 68.8257 58.9097 68.8257H58.842C58.842 68.8257 58.8384 68.8257 58.8349 68.8257C58.8349 68.8257 58.8349 68.8257 58.8313 68.8257C58.8313 68.8257 58.8313 68.8257 58.8277 68.8257C58.8277 68.8257 58.8277 68.8257 58.8242 68.8257C58.8242 68.8257 58.8206 68.8257 58.8171 68.8257C58.8171 68.8257 58.8171 68.8257 58.8135 68.8257C58.8135 68.8257 58.8135 68.8257 58.8099 68.8257C58.8099 68.8257 58.8099 68.8257 58.8064 68.8257C58.8064 68.8257 58.8064 68.8257 58.8028 68.8257C58.8028 68.8257 58.8028 68.8257 58.7993 68.8257C58.7993 68.8257 58.7993 68.8257 58.7957 68.8257C58.7957 68.8257 58.7957 68.8257 58.7921 68.8257C58.7921 68.8257 58.7921 68.8257 58.7886 68.8257C58.7886 68.8257 58.7886 68.8257 58.785 68.8257C58.785 68.8257 58.785 68.8257 58.7814 68.8257C58.7814 68.8257 58.7814 68.8257 58.7779 68.8257C58.7779 68.8257 58.7779 68.8257 58.7743 68.8257C58.7743 68.8257 58.7743 68.8257 58.7708 68.8257C58.7708 68.8257 58.7708 68.8257 58.7672 68.8257C58.7672 68.8257 58.7672 68.8257 58.7636 68.8257C58.7636 68.8257 58.7636 68.8257 58.7601 68.8257C58.7601 68.8257 58.7601 68.8257 58.7565 68.8257C58.7565 68.8257 58.7565 68.8257 58.753 68.8257C58.753 68.8257 58.753 68.8257 58.7494 68.8257C58.7494 68.8257 58.7494 68.8257 58.7458 68.8257C58.7458 68.8257 58.7458 68.8257 58.7423 68.8257C58.7423 68.8257 58.7423 68.8257 58.7387 68.8257C58.7387 68.8257 58.7387 68.8257 58.7352 68.8257C58.7352 68.8257 58.7351 68.8257 58.7316 68.8257C58.7316 68.8257 58.7316 68.8257 58.728 68.8257C58.728 68.8257 58.728 68.8257 58.7245 68.8257C58.7245 68.8257 58.7245 68.8257 58.7209 68.8257C58.7209 68.8257 58.7209 68.8257 58.7173 68.8257C58.7173 68.8257 58.7173 68.8257 58.7138 68.8257C58.7138 68.8257 58.7138 68.8257 58.7102 68.8257C58.7102 68.8257 58.7102 68.8257 58.7067 68.8257C58.7067 68.8257 58.7067 68.8257 58.7031 68.8257C58.7031 68.8257 58.7031 68.8257 58.6995 68.8257C58.6995 68.8257 58.6995 68.8257 58.696 68.8257C58.696 68.8257 58.696 68.8257 58.6924 68.8257C58.6924 68.8257 58.6924 68.8257 58.6889 68.8257C58.6889 68.8257 58.6888 68.8257 58.6853 68.8257C58.6853 68.8257 58.6853 68.8257 58.6817 68.8257C58.6817 68.8257 58.6817 68.8257 58.6782 68.8257C58.6782 68.8257 58.6782 68.8257 58.6746 68.8257C58.6746 68.8257 58.6746 68.8257 58.671 68.8257C58.671 68.8257 58.671 68.8257 58.6675 68.8257C58.6675 68.8257 58.6675 68.8257 58.6639 68.8257C58.6639 68.8257 58.6639 68.8257 58.6604 68.8257C58.6604 68.8257 58.6604 68.8257 58.6568 68.8257C58.6568 68.8257 58.6568 68.8257 58.6532 68.8257C58.6532 68.8257 58.6532 68.8257 58.6497 68.8257C58.6497 68.8257 58.6497 68.8257 58.6461 68.8257C58.6461 68.8257 58.6461 68.8257 58.6426 68.8257C58.6426 68.8257 58.6426 68.8257 58.639 68.8257C58.639 68.8257 58.639 68.8257 58.6354 68.8257C58.6354 68.8257 58.6354 68.8257 58.6319 68.8257C58.6319 68.8257 58.6319 68.8257 58.6283 68.8257C58.6283 68.8257 58.6283 68.8257 58.6247 68.8257C58.6247 68.8257 58.6247 68.8257 58.6212 68.8257C58.6212 68.8257 58.6212 68.8257 58.6176 68.8257V68.4267C58.6176 65.9545 58.6176 63.4004 58.6176 60.9995C61.221 60.9995 63.8244 61.028 66.2961 61.0814C66.3139 61.4768 66.3246 61.8758 66.3388 62.2783C66.3424 62.3887 66.3424 62.5027 66.3459 62.6131C66.3922 64.6472 66.3887 66.7453 66.3281 68.7794Z" fill="white"/>
<path d="M66.3065 69.531C66.2638 70.6709 66.2068 71.7823 66.1285 72.851C66.1106 73.0825 66.0928 73.3141 66.075 73.5421C65.9896 74.5858 65.8863 75.5725 65.7688 76.4845C63.4538 76.5949 61.0285 76.6483 58.5996 76.6519C58.6067 74.6927 58.6103 72.3665 58.6139 69.9122V69.5987H58.9985C59.4793 69.5987 59.9636 69.5987 60.4444 69.5951H60.5691C61.0107 69.5951 61.4488 69.5916 61.8868 69.588C62.364 69.5844 62.8413 69.5809 63.3149 69.5773C63.7886 69.5738 64.2587 69.5666 64.7253 69.5595C65.1918 69.5524 65.6583 69.5453 66.1178 69.5381C66.1783 69.531 66.2424 69.531 66.3065 69.531Z" fill="#0054A6"/>
<path d="M66.3287 68.7794C65.5772 68.7901 64.8115 68.7972 64.0386 68.8043C63.9603 68.8043 63.8819 68.8043 63.8072 68.8043C63.6469 68.8043 63.4902 68.8079 63.3299 68.8079C62.8527 68.8115 62.3755 68.815 61.8982 68.815C61.4174 68.8186 60.9367 68.8186 60.4523 68.8222C59.9929 68.8222 59.5334 68.8257 59.074 68.8257H59.0028C58.9707 68.8257 58.9423 68.8257 58.9102 68.8257H58.8425C58.8425 68.8257 58.839 68.8257 58.8354 68.8257C58.8354 68.8257 58.8354 68.8257 58.8318 68.8257C58.8318 68.8257 58.8318 68.8257 58.8283 68.8257C58.8283 68.8257 58.8283 68.8257 58.8247 68.8257C58.8247 68.8257 58.8212 68.8257 58.8176 68.8257C58.8176 68.8257 58.8176 68.8257 58.814 68.8257C58.814 68.8257 58.814 68.8257 58.8105 68.8257C58.8105 68.8257 58.8105 68.8257 58.8069 68.8257C58.8069 68.8257 58.8069 68.8257 58.8034 68.8257C58.8034 68.8257 58.8034 68.8257 58.7998 68.8257C58.7998 68.8257 58.7998 68.8257 58.7962 68.8257C58.7962 68.8257 58.7962 68.8257 58.7927 68.8257C58.7927 68.8257 58.7927 68.8257 58.7891 68.8257C58.7891 68.8257 58.7891 68.8257 58.7856 68.8257C58.7856 68.8257 58.7855 68.8257 58.782 68.8257C58.782 68.8257 58.782 68.8257 58.7784 68.8257C58.7784 68.8257 58.7784 68.8257 58.7749 68.8257C58.7749 68.8257 58.7749 68.8257 58.7713 68.8257C58.7713 68.8257 58.7713 68.8257 58.7677 68.8257C58.7677 68.8257 58.7677 68.8257 58.7642 68.8257C58.7642 68.8257 58.7642 68.8257 58.7606 68.8257C58.7606 68.8257 58.7606 68.8257 58.7571 68.8257C58.7571 68.8257 58.7571 68.8257 58.7535 68.8257C58.7535 68.8257 58.7535 68.8257 58.7499 68.8257C58.7499 68.8257 58.7499 68.8257 58.7464 68.8257C58.7464 68.8257 58.7464 68.8257 58.7428 68.8257C58.7428 68.8257 58.7428 68.8257 58.7393 68.8257C58.7393 68.8257 58.7393 68.8257 58.7357 68.8257C58.7357 68.8257 58.7357 68.8257 58.7321 68.8257C58.7321 68.8257 58.7321 68.8257 58.7286 68.8257C58.7286 68.8257 58.7286 68.8257 58.725 68.8257C58.725 68.8257 58.725 68.8257 58.7214 68.8257C58.7214 68.8257 58.7214 68.8257 58.7179 68.8257C58.7179 68.8257 58.7179 68.8257 58.7143 68.8257C58.7143 68.8257 58.7143 68.8257 58.7108 68.8257C58.7108 68.8257 58.7108 68.8257 58.7072 68.8257C58.7072 68.8257 58.7072 68.8257 58.7036 68.8257C58.7036 68.8257 58.7036 68.8257 58.7001 68.8257C58.7001 68.8257 58.7001 68.8257 58.6965 68.8257C58.6965 68.8257 58.6965 68.8257 58.693 68.8257C58.693 68.8257 58.693 68.8257 58.6894 68.8257C58.6894 68.8257 58.6894 68.8257 58.6858 68.8257C58.6858 68.8257 58.6858 68.8257 58.6823 68.8257C58.6823 68.8257 58.6823 68.8257 58.6787 68.8257C58.6787 68.8257 58.6787 68.8257 58.6751 68.8257C58.6751 68.8257 58.6751 68.8257 58.6716 68.8257C58.6716 68.8257 58.6716 68.8257 58.668 68.8257C58.668 68.8257 58.668 68.8257 58.6645 68.8257C58.6645 68.8257 58.6645 68.8257 58.6609 68.8257C58.6609 68.8257 58.6609 68.8257 58.6573 68.8257C58.6573 68.8257 58.6573 68.8257 58.6538 68.8257C58.6538 68.8257 58.6538 68.8257 58.6502 68.8257C58.6502 68.8257 58.6502 68.8257 58.6467 68.8257C58.6467 68.8257 58.6467 68.8257 58.6431 68.8257C58.6431 68.8257 58.6431 68.8257 58.6395 68.8257C58.6395 68.8257 58.6395 68.8257 58.636 68.8257C58.636 68.8257 58.636 68.8257 58.6324 68.8257C58.6324 68.8257 58.6324 68.8257 58.6288 68.8257C58.6288 68.8257 58.6288 68.8257 58.6253 68.8257C58.6253 68.8257 58.6253 68.8257 58.6217 68.8257C58.6217 68.8257 58.6217 68.8257 58.6182 68.8257V68.4268C58.6182 65.9546 58.6182 63.4005 58.6182 60.9995C61.2216 60.9995 63.825 61.028 66.2966 61.0814C66.3144 61.4769 66.3251 61.8758 66.3393 62.2783C66.3429 62.3888 66.3429 62.5028 66.3465 62.6132C66.3928 64.6472 66.3892 66.7454 66.3287 68.7794Z" fill="#0054A6"/>
<path d="M58.575 69.481C58.3684 69.3029 58.1618 69.1212 57.9517 68.9431C58.1583 68.7614 58.3649 68.5833 58.575 68.4016C58.7817 68.5833 58.9918 68.765 59.1984 68.9431C58.9883 69.1247 58.7817 69.3029 58.575 69.481Z" fill="#1A2E35"/>
<path d="M68.7893 60.6717C68.7822 60.661 68.7751 60.6468 68.7679 60.6361C68.6575 60.5613 68.5471 60.49 68.4332 60.4188C68.3227 60.3475 68.2088 60.2798 68.0984 60.2122C68.0913 60.2157 68.0841 60.2157 68.077 60.2193C67.9417 60.2763 67.8099 60.3333 67.6746 60.3903C67.6283 60.4116 67.582 60.433 67.5321 60.4508C67.3718 60.5969 67.208 60.7429 67.0442 60.889C67.1261 60.9602 67.208 61.0315 67.2899 61.1027C67.411 61.2096 67.5286 61.3129 67.6496 61.4198C67.76 61.32 67.8669 61.2203 67.9773 61.1205C67.9987 61.0991 68.0236 61.0778 68.045 61.0564C68.3085 60.9424 68.5685 60.8284 68.8214 60.718C68.8107 60.7073 68.8 60.6895 68.7893 60.6717ZM66.3319 62.2818C66.193 62.1571 66.0541 62.036 65.9152 61.9149C65.5306 62.2604 65.1424 62.6095 64.7435 62.9622C64.9501 63.1439 65.1531 63.3255 65.3561 63.5072C65.6873 63.208 66.015 62.9123 66.339 62.6202C66.3996 62.5668 66.4601 62.5098 66.5207 62.4564C66.4601 62.3958 66.396 62.3388 66.3319 62.2818ZM63.5398 64.0309C63.1338 64.3906 62.7242 64.754 62.3146 65.1173C62.5212 65.299 62.7278 65.4807 62.9308 65.6624C63.3403 65.299 63.7499 64.9357 64.1559 64.5759C63.9529 64.3942 63.7463 64.2125 63.5398 64.0309ZM61.0753 66.2109C60.6621 66.5743 60.2419 66.9412 59.8252 67.3081C60.0318 67.4898 60.2383 67.6715 60.4449 67.8531C60.8616 67.4898 61.2783 67.1229 61.6949 66.7595C61.4884 66.5779 61.2818 66.3926 61.0753 66.2109Z" fill="#1A2E35"/>
<g opacity="0.5">
<path d="M71.1893 64.5723C70.9756 64.5687 70.7584 64.5687 70.5411 64.5652C70.331 64.7967 70.1173 65.0283 69.9036 65.2634C70.0639 65.4415 70.2277 65.616 70.388 65.7906C70.5376 65.6303 70.6836 65.47 70.8296 65.3097C70.9507 65.3097 71.0753 65.3097 71.1964 65.3097C71.1964 65.0639 71.1929 64.8181 71.1893 64.5723ZM68.9705 66.2572C68.6536 66.5921 68.333 66.9305 68.0125 67.2653C68.1799 67.4435 68.3437 67.618 68.504 67.7926C68.8281 67.4541 69.145 67.1193 69.4584 66.7845C69.2982 66.6135 69.1379 66.4354 68.9705 66.2572ZM60.448 68.8256C60.448 69.0785 60.4445 69.335 60.4409 69.5879H60.5656C61.0072 69.5879 61.4452 69.5844 61.8833 69.5808C61.8869 69.3314 61.8904 69.075 61.894 68.822C61.4132 68.8256 60.9324 68.8256 60.448 68.8256ZM64.038 68.8042C63.9596 68.8042 63.8813 68.8042 63.8065 68.8042C63.6462 68.8042 63.4895 68.8042 63.3292 68.8078C63.3257 69.0607 63.3186 69.3136 63.315 69.563C63.7887 69.5594 64.2588 69.5523 64.7253 69.5452C64.7324 69.2958 64.7396 69.0429 64.7467 68.7935C64.5116 68.8042 64.273 68.8042 64.038 68.8042ZM67.4854 68.7615C67.3501 68.6154 67.2112 68.4694 67.0723 68.3233C67.0581 68.3091 67.0438 68.2948 67.0296 68.2806C66.8693 68.4444 66.7055 68.6119 66.5416 68.7757C66.4704 68.7757 66.3992 68.7757 66.328 68.7793C66.2639 68.7793 66.2033 68.7829 66.1392 68.7829C66.1321 69.0322 66.125 69.2816 66.1178 69.5345C66.1819 69.5345 66.2425 69.5345 66.3066 69.5309C66.4775 69.5274 66.6485 69.5238 66.8194 69.5238C67.058 69.2851 67.2931 69.0465 67.5246 68.8078C67.5139 68.79 67.4997 68.7793 67.4854 68.7615Z" fill="#2D2F31"/>
<path d="M58.9955 69.5948C58.739 69.5948 58.4826 69.5948 58.2261 69.5948C58.2261 69.3419 58.2261 69.089 58.2261 68.8325C58.4826 68.8325 58.7426 68.8325 58.9991 68.8325C58.9991 69.0854 58.9955 69.3419 58.9955 69.5948Z" fill="#2D2F31"/>
<g opacity="0.2">
<path d="M71.1893 64.5723C70.9756 64.5687 70.7584 64.5687 70.5411 64.5652C70.331 64.7967 70.1173 65.0283 69.9036 65.2634C70.0639 65.4415 70.2277 65.616 70.388 65.7906C70.5376 65.6303 70.6836 65.47 70.8296 65.3097C70.9507 65.3097 71.0753 65.3097 71.1964 65.3097C71.1964 65.0639 71.1929 64.8181 71.1893 64.5723ZM68.9705 66.2572C68.6536 66.5921 68.333 66.9305 68.0125 67.2653C68.1799 67.4435 68.3437 67.618 68.504 67.7926C68.8281 67.4541 69.145 67.1193 69.4584 66.7845C69.2982 66.6135 69.1379 66.4354 68.9705 66.2572ZM60.448 68.8256C60.448 69.0785 60.4445 69.335 60.4409 69.5879H60.5656C61.0072 69.5879 61.4452 69.5844 61.8833 69.5808C61.8869 69.3314 61.8904 69.075 61.894 68.822C61.4132 68.8256 60.9324 68.8256 60.448 68.8256ZM64.038 68.8042C63.9596 68.8042 63.8813 68.8042 63.8065 68.8042C63.6462 68.8042 63.4895 68.8042 63.3292 68.8078C63.3257 69.0607 63.3186 69.3136 63.315 69.563C63.7887 69.5594 64.2588 69.5523 64.7253 69.5452C64.7324 69.2958 64.7396 69.0429 64.7467 68.7935C64.5116 68.8042 64.273 68.8042 64.038 68.8042ZM67.4854 68.7615C67.3501 68.6154 67.2112 68.4694 67.0723 68.3233C67.0581 68.3091 67.0438 68.2948 67.0296 68.2806C66.8693 68.4444 66.7055 68.6119 66.5416 68.7757C66.4704 68.7757 66.3992 68.7757 66.328 68.7793C66.2639 68.7793 66.2033 68.7829 66.1392 68.7829C66.1321 69.0322 66.125 69.2816 66.1178 69.5345C66.1819 69.5345 66.2425 69.5345 66.3066 69.5309C66.4775 69.5274 66.6485 69.5238 66.8194 69.5238C67.058 69.2851 67.2931 69.0465 67.5246 68.8078C67.5139 68.79 67.4997 68.7793 67.4854 68.7615Z" fill="#2D2F31"/>
<path d="M58.9955 69.5948C58.739 69.5948 58.4826 69.5948 58.2261 69.5948C58.2261 69.3419 58.2261 69.089 58.2261 68.8325C58.4826 68.8325 58.7426 68.8325 58.9991 68.8325C58.9991 69.0854 58.9955 69.3419 58.9955 69.5948Z" fill="#2D2F31"/>
</g>
</g>
<g opacity="0.3">
<path d="M58.4967 70.0188C58.315 69.8407 58.1333 69.6625 57.9517 69.4844C58.1333 69.3063 58.315 69.1246 58.4967 68.9465C58.6784 69.1282 58.86 69.3063 59.0417 69.4844C58.86 69.6625 58.6784 69.8407 58.4967 70.0188Z" fill="#2D2F31"/>
<path d="M73.7936 69.677C73.7936 69.6663 73.7936 69.6556 73.7936 69.6485L73.7901 69.6449C73.7046 69.5416 73.6191 69.4383 73.5336 69.3314C73.5123 69.3065 73.4909 69.278 73.466 69.2495C73.441 69.278 73.4125 69.3065 73.3876 69.3386C73.092 69.6663 72.7893 69.9976 72.4795 70.3289C72.6148 70.4892 72.7466 70.6459 72.8783 70.8026C73.1846 70.4749 73.4873 70.1472 73.7794 69.8195C73.7865 69.8123 73.7901 69.8088 73.7936 69.8017C73.7972 69.7589 73.7972 69.7162 73.7936 69.677ZM60.164 70.5853C59.9824 70.7635 59.8008 70.938 59.6191 71.1126C59.9895 71.4723 60.3564 71.8286 60.7196 72.1812C60.9013 72.0102 61.0829 71.8392 61.2645 71.6647C60.9013 71.3085 60.5344 70.9487 60.164 70.5853ZM71.4609 71.3975C71.1119 71.7538 70.7593 72.11 70.3996 72.4626C70.5385 72.6158 70.6738 72.7654 70.8091 72.9186C71.1653 72.5695 71.5179 72.2168 71.8633 71.8642C71.7315 71.711 71.5962 71.5543 71.4609 71.3975ZM62.568 72.9329C62.4896 72.858 62.4113 72.7832 62.3365 72.7049C62.1549 72.8759 61.9732 73.0433 61.7916 73.2107C61.9412 73.3532 62.0872 73.4921 62.2332 73.6311C62.6321 73.6239 63.031 73.6168 63.4228 73.6097C63.4334 73.3817 63.4441 73.1466 63.4584 72.9115C63.1628 72.9222 62.8672 72.9293 62.568 72.9329ZM66.1294 72.8474C65.7484 72.8616 65.3637 72.8723 64.9791 72.883C64.9648 73.1145 64.9506 73.3461 64.9328 73.5741C65.3174 73.5634 65.6985 73.5527 66.076 73.5384C66.19 73.5349 66.3039 73.5313 66.4179 73.5277C66.4393 73.2998 66.4571 73.0718 66.4749 72.8402C66.3574 72.8402 66.2434 72.8474 66.1294 72.8474ZM67.9315 72.7832C67.9101 73.0148 67.8888 73.2428 67.8674 73.4672C68.3446 73.4458 68.8183 73.4244 69.2813 73.3995C69.3062 73.1751 69.3312 72.9471 69.3525 72.7191C68.886 72.7441 68.4123 72.7619 67.9315 72.7832Z" fill="#2D2F31"/>
<g opacity="0.3">
<path d="M58.4967 70.0188C58.315 69.8407 58.1333 69.6625 57.9517 69.4844C58.1333 69.3063 58.315 69.1246 58.4967 68.9465C58.6784 69.1282 58.86 69.3063 59.0417 69.4844C58.86 69.6625 58.6784 69.8407 58.4967 70.0188Z" fill="#2D2F31"/>
<path d="M73.7936 69.677C73.7936 69.6663 73.7936 69.6556 73.7936 69.6485L73.7901 69.6449C73.7046 69.5416 73.6191 69.4383 73.5336 69.3314C73.5123 69.3065 73.4909 69.278 73.466 69.2495C73.441 69.278 73.4125 69.3065 73.3876 69.3386C73.092 69.6663 72.7893 69.9976 72.4795 70.3289C72.6148 70.4892 72.7466 70.6459 72.8783 70.8026C73.1846 70.4749 73.4873 70.1472 73.7794 69.8195C73.7865 69.8123 73.7901 69.8088 73.7936 69.8017C73.7972 69.7589 73.7972 69.7162 73.7936 69.677ZM60.164 70.5853C59.9824 70.7635 59.8008 70.938 59.6191 71.1126C59.9895 71.4723 60.3564 71.8286 60.7196 72.1812C60.9013 72.0102 61.0829 71.8392 61.2645 71.6647C60.9013 71.3085 60.5344 70.9487 60.164 70.5853ZM71.4609 71.3975C71.1119 71.7538 70.7593 72.11 70.3996 72.4626C70.5385 72.6158 70.6738 72.7654 70.8091 72.9186C71.1653 72.5695 71.5179 72.2168 71.8633 71.8642C71.7315 71.711 71.5962 71.5543 71.4609 71.3975ZM62.568 72.9329C62.4896 72.858 62.4113 72.7832 62.3365 72.7049C62.1549 72.8759 61.9732 73.0433 61.7916 73.2107C61.9412 73.3532 62.0872 73.4921 62.2332 73.6311C62.6321 73.6239 63.031 73.6168 63.4228 73.6097C63.4334 73.3817 63.4441 73.1466 63.4584 72.9115C63.1628 72.9222 62.8672 72.9293 62.568 72.9329ZM66.1294 72.8474C65.7484 72.8616 65.3637 72.8723 64.9791 72.883C64.9648 73.1145 64.9506 73.3461 64.9328 73.5741C65.3174 73.5634 65.6985 73.5527 66.076 73.5384C66.19 73.5349 66.3039 73.5313 66.4179 73.5277C66.4393 73.2998 66.4571 73.0718 66.4749 72.8402C66.3574 72.8402 66.2434 72.8474 66.1294 72.8474ZM67.9315 72.7832C67.9101 73.0148 67.8888 73.2428 67.8674 73.4672C68.3446 73.4458 68.8183 73.4244 69.2813 73.3995C69.3062 73.1751 69.3312 72.9471 69.3525 72.7191C68.886 72.7441 68.4123 72.7619 67.9315 72.7832Z" fill="#2D2F31"/>
</g>
</g>
<path d="M58.2267 68.8329V69.5952H57.8421C57.518 69.5952 57.1903 69.5952 56.8627 69.5917C56.6134 69.5917 56.3641 69.5917 56.1183 69.5881C55.8655 69.5881 55.6126 69.5881 55.3633 69.5846C55.2137 69.5846 55.0677 69.5846 54.9181 69.581C53.6253 69.5739 52.3503 69.5596 51.1003 69.5382C51.0006 69.5382 50.9008 69.5383 50.8047 69.5347C50.8189 69.2853 50.8403 69.0324 50.8724 68.7866C50.94 68.7866 51.0077 68.7866 51.0754 68.7866C53.2656 68.8151 55.5485 68.8294 57.8385 68.8329H58.2267Z" fill="#1A2E35"/>
<path d="M58.2267 70.0404C58.6753 70.0404 59.0389 69.6768 59.0389 69.2282C59.0389 68.7796 58.6753 68.416 58.2267 68.416C57.7782 68.416 57.4146 68.7796 57.4146 69.2282C57.4146 69.6768 57.7782 70.0404 58.2267 70.0404Z" fill="#1A2E35"/>
<path opacity="0.2" d="M73.8188 70.1722C73.8188 76.5344 68.6619 81.6925 62.3012 81.6925C60.232 81.6925 58.2946 81.1474 56.6172 80.1928C55.6591 79.6477 54.783 78.9674 54.0244 78.1765C52.0194 76.1069 50.7871 73.2821 50.7871 70.1687C50.7871 63.8065 55.9441 58.6484 62.3048 58.6484C65.51 58.6484 68.409 59.9593 70.496 62.0717C71.2902 62.8732 71.9633 63.7887 72.494 64.7933C73.3381 66.3998 73.8188 68.2308 73.8188 70.1722Z" fill="white"/>
<path opacity="0.2" d="M73.8184 70.1724C73.8184 76.5345 68.6615 81.6926 62.3008 81.6926L73.8184 70.1724Z" fill="white"/>
<path opacity="0.2" d="M51.1041 72.8759C50.8975 72.0103 50.7871 71.1055 50.7871 70.1757C50.7871 63.8136 55.9441 58.6555 62.3048 58.6555C63.423 58.6555 64.5057 58.8158 65.5279 59.1115L51.1041 72.8759Z" fill="white"/>
<path opacity="0.2" d="M72.4899 64.7967L56.6166 80.1962C55.6586 79.6512 54.7825 78.9708 54.0239 78.18L70.492 62.0752C71.2861 62.8767 71.9593 63.7922 72.4899 64.7967Z" fill="white"/>
<path d="M68.9177 81.8171L64.2736 85.2191H60.3276L55.687 81.8171H68.9177Z" fill="#D2D9DC"/>
<path d="M62.301 56.7854C54.9074 56.7854 48.9136 62.7806 48.9136 70.1758C48.9136 75.1629 51.6416 79.516 55.6838 81.8207C57.6355 82.9321 59.8934 83.5662 62.2974 83.5662C64.7014 83.5662 66.9593 82.9321 68.911 81.8207C72.9568 79.5195 75.6848 75.1665 75.6848 70.1758C75.6884 62.7771 69.6945 56.7854 62.301 56.7854ZM62.301 81.696C55.9403 81.696 50.7833 76.5379 50.7833 70.1758C50.7833 63.8137 55.9403 58.6556 62.301 58.6556C68.6617 58.6556 73.8186 63.8137 73.8186 70.1758C73.8186 76.5379 68.6617 81.696 62.301 81.696Z" fill="#D2D9DC"/>
<path d="M60.3271 85.2192V106.799C60.3271 107.839 61.1714 108.684 62.2116 108.684C63.2517 108.684 64.096 107.839 64.096 106.799V85.2192H60.3271Z" fill="#002548"/>
</svg>
