<svg width="114" height="114" viewBox="0 0 114 114" fill="none" xmlns="http://www.w3.org/2000/svg">
<path d="M16 26.7333C16 25.2228 17.2228 24 18.7333 24H95.2667C96.7772 24 98 25.2228 98 26.7333V86.8667C98 88.3772 96.7772 89.6 95.2667 89.6H18.7333C17.2228 89.6 16 88.3772 16 86.8667" fill="#D2D9DC"/>
<path d="M92.5335 40.4001H21.4668V84.1335H92.5335V40.4001Z" fill="#0054A6"/>
<path d="M76.1345 67.7334C82.1728 67.7334 87.0678 62.8383 87.0678 56.8C87.0678 50.7617 82.1728 45.8667 76.1345 45.8667C70.0962 45.8667 65.2012 50.7617 65.2012 56.8C65.2012 62.8383 70.0962 67.7334 76.1345 67.7334Z" fill="#D2D9DC"/>
<path d="M87.0679 56.8C87.0679 62.8422 82.1766 67.7334 76.1345 67.7334C72.8977 67.7334 69.8047 66.2948 67.7188 63.7772L76.1345 56.8H87.0679Z" fill="#839299"/>
<path d="M87.0661 56.8H76.1328V45.8667C82.1749 45.8667 87.0661 50.7579 87.0661 56.8Z" fill="#5F737C"/>
<path d="M16 26.7333C16 25.2228 17.2228 24 18.7333 24H95.2667C96.7772 24 98 25.2228 98 26.7333V32.2H43.9088C42.686 32.2 41.4632 32.7035 40.6 33.5667C39.7368 34.4298 38.514 34.9333 37.2912 34.9333H16V26.7333Z" fill="#002548"/>
<path d="M33.7665 29.4665C33.7665 30.1858 33.1192 30.8332 32.3999 30.8332C31.6806 30.8332 31.0332 30.1858 31.0332 29.4665C31.0332 28.7472 31.6806 28.0999 32.3999 28.0999C33.1192 28.0999 33.7665 28.7472 33.7665 29.4665Z" fill="#54CC5A"/>
<path d="M28.2997 29.4665C28.2997 30.1858 27.6524 30.8332 26.9331 30.8332C26.2138 30.8332 25.5664 30.1858 25.5664 29.4665C25.5664 28.7472 26.2138 28.0999 26.9331 28.0999C27.6524 28.0999 28.2997 28.7472 28.2997 29.4665Z" fill="#FFDD33"/>
<path d="M22.8329 29.4665C22.8329 30.1858 22.1856 30.8332 21.4663 30.8332C20.747 30.8332 20.0996 30.1858 20.0996 29.4665C20.0996 28.7472 20.747 28.0999 21.4663 28.0999C22.1856 28.0999 22.8329 28.7472 22.8329 29.4665Z" fill="#ED1C24"/>
<path d="M32.4004 78.6667V67.7334H37.8671V78.6667" fill="#54CC5A"/>
<path d="M43.334 78.6667V56.8H48.8007V78.6667" fill="#54CC5A"/>
<path d="M54.2656 78.6667V45.8667H59.7323V78.6667" fill="#54CC5A"/>
<path d="M63.8331 80.0333H26.9331C26.2138 80.0333 25.5664 79.386 25.5664 78.6667V44.5H28.2997V77.3H63.8331V80.0333Z" fill="#F9FAFB"/>
</svg>
