<svg width="114" height="114" viewBox="0 0 114 114" fill="none" xmlns="http://www.w3.org/2000/svg">
<path fill-rule="evenodd" clip-rule="evenodd" d="M27.9603 42.4096L21.3157 39.024L14.9144 45.4255L18.3002 52.0708C17.006 54.2578 16.0072 56.6404 15.3592 59.1637L8.26953 61.4672V70.5204L15.3592 72.8238C16.0074 75.3469 17.006 77.7295 18.3002 79.9169L14.9144 86.5622L21.3157 92.9635L27.961 89.5777C30.1482 90.8719 32.5308 91.8714 35.0543 92.5194L37.3575 99.6084H46.4105L48.7142 92.5187C51.2373 91.8705 53.6201 90.8719 55.8071 89.5777L62.4521 92.9635L68.8537 86.5622L65.4679 79.9169C66.762 77.7297 67.7616 75.3471 68.4095 72.8236L75.4985 70.5204V61.4672L68.4086 59.1637C67.7604 56.6406 66.7618 54.2578 65.4677 52.0708L68.8535 45.4255L62.4519 39.024L55.8068 42.4098C53.6196 41.1157 51.237 40.1161 48.7135 39.4681L46.4103 32.3792H37.3573L35.0541 39.4681C32.5303 40.1161 30.1477 41.1154 27.9603 42.4096ZM41.884 49.3095C51.0984 49.3095 58.5682 56.7793 58.5682 65.9936C58.5682 75.208 51.0984 82.6778 41.884 82.6778C32.6696 82.6778 25.1999 75.208 25.1999 65.9936C25.1999 56.7793 32.6694 49.3095 41.884 49.3095Z" fill="#60B7FE"/>
<path fill-rule="evenodd" clip-rule="evenodd" d="M21.8557 42.4367L18.3265 45.966L21.4882 52.1712C19.2214 56.0021 18.7911 57.0351 17.6842 61.3473L11.0645 63.4982V68.4894L17.684 70.6401C18.7918 74.9527 19.2214 75.9849 21.4882 79.8164L18.3265 86.0217L21.8557 89.5509L28.0609 86.3892C31.8923 88.6564 32.9244 89.0867 37.2373 90.1939L39.3878 96.8129H44.3789L46.5299 90.1936C50.842 89.0858 51.8749 88.6558 55.7059 86.3892L61.9112 89.5509L65.4404 86.0217L62.2787 79.8164C64.5457 75.9853 64.9764 74.9527 66.0836 70.6401L72.7027 68.4896V63.4985L66.0831 61.3477C64.9753 57.0354 64.5457 56.003 62.279 52.1717L65.4406 45.9664L61.9114 42.4372L55.7062 45.5989C51.8749 43.3319 50.8425 42.9014 46.5296 41.794L44.3789 35.1752H39.3878L37.2373 41.794C32.9244 42.9014 31.8918 43.3316 28.0603 45.5986L21.8557 42.4367ZM41.8837 46.5143C52.6409 46.5143 61.3633 55.2364 61.3633 65.9939C61.3633 76.7512 52.6412 85.4733 41.8837 85.4733C31.1264 85.4733 22.404 76.7512 22.404 65.9939C22.404 55.2364 31.1262 46.5143 41.8837 46.5143Z" fill="#60B7FE"/>
<path fill-rule="evenodd" clip-rule="evenodd" d="M45.8919 14.3916H101.723C103.927 14.3916 105.73 16.1949 105.73 18.3987V95.6011C105.73 97.8049 103.927 99.6082 101.723 99.6082H45.8919C43.688 99.6082 41.8848 97.8049 41.8848 95.6011V18.3987C41.8848 16.1949 43.688 14.3916 45.8919 14.3916Z" fill="#CCCCCC"/>
<path fill-rule="evenodd" clip-rule="evenodd" d="M45.8901 14.3916H101.722C101.778 14.3916 101.834 14.3932 101.89 14.3955C101.911 14.5596 101.922 14.7268 101.922 14.8962V92.0988C101.922 94.3026 100.119 96.1059 97.9147 96.1059H42.083C42.0265 96.1059 41.9704 96.1043 41.9143 96.102C41.8935 95.9379 41.8828 95.7707 41.8828 95.6013V18.3987C41.883 16.1949 43.6863 14.3916 45.8901 14.3916Z" fill="#E6E6E6"/>
<path fill-rule="evenodd" clip-rule="evenodd" d="M41.8841 75.4113C49.4517 75.4113 55.6432 81.6028 55.6432 89.1704V97.3195C55.6432 98.5802 54.6152 99.6082 53.3546 99.6082H30.4137C29.1531 99.6082 28.125 98.5802 28.125 97.3195V89.1704C28.125 81.6028 34.3166 75.4113 41.8841 75.4113Z" fill="#E33F65"/>
<path fill-rule="evenodd" clip-rule="evenodd" d="M48.3876 99.6084H30.4137C29.1531 99.6084 28.125 98.5803 28.125 97.3197V89.1706C28.125 82.4505 33.0076 76.8159 39.4005 75.6383C45.7934 76.8162 50.676 82.4505 50.676 89.1706V97.3197C50.6763 98.5803 49.6482 99.6084 48.3876 99.6084Z" fill="#FA6E85"/>
<path d="M45.5642 74.44C49.339 72.42 50.7615 67.7223 48.7414 63.9475C46.7214 60.1727 42.0237 58.7503 38.2489 60.7703C34.4741 62.7904 33.0517 67.488 35.0717 71.2628C37.0918 75.0376 41.7894 76.4601 45.5642 74.44Z" fill="#F0B16E"/>
<path fill-rule="evenodd" clip-rule="evenodd" d="M38.312 74.4671C35.8299 73.1754 34.1348 70.5803 34.1348 67.589C34.1348 64.5976 35.8299 62.0023 38.312 60.7109C38.7479 60.6261 39.1977 60.5812 39.6585 60.5812C43.5288 60.5812 46.6666 63.7187 46.6666 67.5892C46.6666 72.0083 42.6321 75.3079 38.312 74.4671Z" fill="#FCD4A9"/>
<path d="M89.3418 41.4006C93.9561 41.0164 97.3854 36.9643 97.0013 32.35C96.6171 27.7357 92.565 24.3064 87.9507 24.6906C83.3364 25.0747 79.9071 29.1268 80.2913 33.7411C80.6754 38.3554 84.7275 41.7847 89.3418 41.4006Z" fill="#14B5A2"/>
<path fill-rule="evenodd" clip-rule="evenodd" d="M88.593 24.6981C89.6206 24.6981 90.6049 24.8835 91.5146 25.2218C92.9166 26.7198 93.7752 28.7326 93.7752 30.9462C93.7752 35.5744 90.0233 39.3264 85.3951 39.3264C84.3675 39.3264 83.3832 39.141 82.4735 38.8027C81.0715 37.3047 80.2129 35.2919 80.2129 33.0783C80.2131 28.4499 83.9649 24.6981 88.593 24.6981Z" fill="#19CFBA"/>
<path d="M89.3555 66.9322C93.9698 66.548 97.3991 62.496 97.0149 57.8816C96.6308 53.2673 92.5787 49.838 87.9644 50.2222C83.35 50.6063 79.9208 54.6584 80.3049 59.2727C80.6891 63.8871 84.7411 67.3163 89.3555 66.9322Z" fill="#FFBF31"/>
<path fill-rule="evenodd" clip-rule="evenodd" d="M88.593 50.2192C89.6206 50.2192 90.6049 50.4046 91.5146 50.743C92.9166 52.2409 93.7752 54.2537 93.7752 56.4674C93.7752 61.0955 90.0233 64.8475 85.3951 64.8475C84.3675 64.8475 83.3832 64.6621 82.4735 64.3238C81.0715 62.8258 80.2129 60.813 80.2129 58.5994C80.2131 53.9712 83.9649 50.2192 88.593 50.2192Z" fill="#FFE177"/>
<path d="M89.3692 92.4642C93.9835 92.08 97.4127 88.0279 97.0286 83.4136C96.6445 78.7993 92.5924 75.37 87.978 75.7542C83.3637 76.1383 79.9345 80.1904 80.3186 84.8047C80.7027 89.419 84.7548 92.8483 89.3692 92.4642Z" fill="#60B7FE"/>
<path fill-rule="evenodd" clip-rule="evenodd" d="M88.593 75.7407C89.6206 75.7407 90.6049 75.9261 91.5146 76.2644C92.9166 77.7624 93.7752 79.7752 93.7752 81.9888C93.7752 86.617 90.0233 90.369 85.3951 90.369C84.3675 90.369 83.3832 90.1836 82.4735 89.8453C81.0715 88.3473 80.2129 86.3345 80.2129 84.1209C80.2131 79.4927 83.9649 75.7407 88.593 75.7407Z" fill="#88C8FE"/>
<path fill-rule="evenodd" clip-rule="evenodd" d="M83.3108 83.5071C82.8181 82.8272 82.97 81.8762 83.6499 81.3835C84.3298 80.8908 85.2807 81.0426 85.7735 81.7225L87.9798 84.7679L97.2095 73.5888C97.7416 72.9415 98.6979 72.8485 99.3449 73.3807C99.9922 73.9128 100.085 74.8691 99.5531 75.5161L89.1374 88.1316C88.5106 88.9478 87.302 89.0162 86.6677 88.1409L83.3108 83.5071ZM83.3108 32.4645C82.8181 31.7846 82.97 30.8336 83.6499 30.3409C84.3298 29.8482 85.2807 30 85.7735 30.6799L87.9798 33.7253L97.2095 22.5462C97.7416 21.8989 98.6979 21.8059 99.3449 22.3381C99.9922 22.8702 100.085 23.8265 99.5531 24.4735L89.1374 37.089C88.5106 37.9052 87.302 37.9736 86.6677 37.0983L83.3108 32.4645ZM83.3108 57.9859C82.8181 57.306 82.97 56.355 83.6499 55.8623C84.3298 55.3696 85.2807 55.5214 85.7735 56.2013L87.9798 59.2467L97.2095 48.0676C97.7416 47.4204 98.6979 47.3273 99.3449 47.8595C99.9922 48.3916 100.085 49.3479 99.5531 49.9949L89.1374 62.6104C88.5106 63.4266 87.302 63.495 86.6677 62.6198L83.3108 57.9859Z" fill="#41678A"/>
<path fill-rule="evenodd" clip-rule="evenodd" d="M73.5654 27.2234C74.4065 27.2234 75.0883 27.9053 75.0883 28.7462C75.0883 29.5871 74.4063 30.269 73.5654 30.269H51.7787C50.9378 30.269 50.2559 29.5871 50.2559 28.7462C50.2559 27.9051 50.9378 27.2234 51.7787 27.2234H73.5654ZM73.5654 78.266C74.4065 78.266 75.0883 78.9479 75.0883 79.7888C75.0883 80.6299 74.4063 81.3116 73.5654 81.3116H60.1237C59.2826 81.3116 58.6009 80.6297 58.6009 79.7888C58.6009 78.9477 59.2828 78.266 60.1237 78.266H73.5654ZM73.5654 86.9297C74.4065 86.9297 75.0883 87.6117 75.0883 88.4526C75.0883 89.2934 74.4063 89.9754 73.5654 89.9754H62.1949C61.3538 89.9754 60.672 89.2934 60.672 88.4526C60.672 87.6117 61.354 86.9297 62.1949 86.9297H73.5654ZM73.5654 52.7448C74.4065 52.7448 75.0883 53.4267 75.0883 54.2676C75.0883 55.1087 74.4063 55.7904 73.5654 55.7904H51.7787C50.9378 55.7904 50.2559 55.1085 50.2559 54.2676C50.2559 53.4265 50.9378 52.7448 51.7787 52.7448H73.5654ZM73.5654 61.4083C74.4065 61.4083 75.0883 62.0903 75.0883 62.9312C75.0883 63.772 74.4063 64.454 73.5654 64.454H56.4689C55.6278 64.454 54.946 63.772 54.946 62.9312C54.946 62.0903 55.628 61.4083 56.4689 61.4083H73.5654ZM73.5654 35.8869C74.4065 35.8869 75.0883 36.5689 75.0883 37.4097C75.0883 38.2508 74.4063 38.9326 73.5654 38.9326H51.7787C50.9378 38.9326 50.2559 38.2506 50.2559 37.4097C50.2559 36.5687 50.9378 35.8869 51.7787 35.8869H73.5654Z" fill="#ADA0AD"/>
</svg>
