<svg width="283" height="192" viewBox="0 0 283 192" fill="none" xmlns="http://www.w3.org/2000/svg">
<path d="M275.786 189.994H4.60973C3.26985 189.994 2.18359 188.908 2.18359 187.568V187.383C2.18359 186.043 3.26985 184.957 4.60973 184.957H275.786C277.126 184.957 278.212 186.043 278.212 187.383V187.568C278.212 188.908 277.126 189.994 275.786 189.994Z" fill="#0775EF"/>
<path d="M23.2136 97.7425H17.357L13.1732 90.496C13.0763 90.3283 12.8619 90.2707 12.694 90.3676L12.0787 90.7228C11.981 90.7792 11.9221 90.8758 11.9079 90.9795C11.8937 90.8758 11.8348 90.7792 11.7371 90.7228L11.1218 90.3676C10.9541 90.2707 10.7395 90.3282 10.6426 90.496L6.45886 97.7425H0.602256C0.269658 97.7425 0 98.0122 0 98.3446V99.5992C0 99.9318 0.269658 100.201 0.602256 100.201H1.4993L1.66713 101.779H1.6674L2.56564 110.229H21.2491L22.3151 100.202L22.3163 100.201H23.2133C23.5459 100.201 23.8156 99.9317 23.8156 99.5992V98.3446C23.8157 98.012 23.546 97.7425 23.2136 97.7425ZM3.72713 105.42L3.43221 103.038C3.40869 102.855 3.54179 102.686 3.72445 102.662C3.73755 102.659 3.75318 102.659 3.76628 102.659C3.93331 102.659 4.07937 102.785 4.10035 102.954L4.39513 105.339C4.41597 105.522 4.28556 105.691 4.10289 105.712C3.91755 105.736 3.75051 105.603 3.72713 105.42ZM4.56216 109.428C4.37682 109.452 4.20992 109.319 4.1864 109.136L3.89149 106.754C3.86797 106.568 4.00106 106.401 4.18373 106.378C4.19682 106.375 4.21246 106.375 4.22556 106.375C4.39259 106.375 4.53864 106.5 4.55962 106.67L4.8544 109.052C4.87525 109.238 4.7447 109.405 4.56216 109.428ZM4.8961 105.42L4.60118 103.038C4.57766 102.855 4.71075 102.686 4.89342 102.662C4.90652 102.659 4.92202 102.659 4.93512 102.659C5.10215 102.659 5.2482 102.785 5.26918 102.954L5.5641 105.339C5.58494 105.522 5.45452 105.691 5.26918 105.712C5.08665 105.736 4.91962 105.603 4.8961 105.42ZM5.73113 109.428C5.54593 109.452 5.37889 109.319 5.35537 109.136L5.06046 106.754C5.03694 106.568 5.17003 106.401 5.3527 106.378C5.36566 106.375 5.38143 106.375 5.39439 106.375C5.56142 106.375 5.70748 106.5 5.72846 106.67L6.02324 109.052C6.04422 109.238 5.9138 109.405 5.73113 109.428ZM6.06507 105.42L5.77015 103.038C5.74663 102.855 5.87719 102.686 6.06239 102.662C6.07549 102.659 6.09112 102.659 6.10408 102.659C6.27112 102.659 6.41717 102.785 6.43548 102.954L6.7304 105.339C6.75391 105.522 6.62336 105.691 6.43815 105.712C6.25562 105.736 6.08605 105.603 6.06507 105.42ZM6.89756 109.428C6.7149 109.452 6.54532 109.319 6.52447 109.136L6.22956 106.754C6.20604 106.568 6.3366 106.401 6.5218 106.378C6.5349 106.375 6.55053 106.375 6.5635 106.375C6.73053 106.375 6.87658 106.5 6.89489 106.67L7.1898 109.052C7.21319 109.238 7.08277 109.405 6.89756 109.428ZM7.2315 105.42L6.93925 103.038C6.91573 102.855 7.04629 102.686 7.2315 102.662C7.24459 102.659 7.26022 102.659 7.27319 102.659C7.44022 102.659 7.58628 102.785 7.60458 102.954L7.8995 105.339C7.92302 105.522 7.78992 105.691 7.60725 105.712C7.42459 105.736 7.25502 105.603 7.2315 105.42ZM8.06653 109.428C7.88386 109.452 7.71429 109.319 7.69345 109.136L7.39853 106.754C7.37515 106.568 7.50556 106.401 7.69077 106.378C7.70373 106.375 7.7195 106.375 7.73246 106.375C7.8995 106.375 8.04555 106.5 8.06386 106.67L8.35878 109.052C8.38229 109.238 8.25174 109.405 8.06653 109.428ZM8.4006 105.42L8.10568 103.038C8.08484 102.855 8.21526 102.686 8.39793 102.662C8.41102 102.659 8.42666 102.659 8.43962 102.659C8.60932 102.659 8.75284 102.785 8.77368 102.954L9.0686 105.339C9.09198 105.522 8.95889 105.691 8.77636 105.712C8.59369 105.736 8.42398 105.603 8.4006 105.42ZM9.2355 109.428C9.05284 109.452 8.88326 109.319 8.85974 109.136L8.56483 106.754C8.54398 106.568 8.6744 106.401 8.85707 106.378C8.87017 106.375 8.8858 106.375 8.89876 106.375C9.06847 106.375 9.21198 106.5 9.23283 106.67L9.52774 109.052C9.55126 109.238 9.41817 109.405 9.2355 109.428ZM15.2503 106.754L14.9554 109.136C14.9319 109.319 14.7649 109.452 14.5796 109.428C14.397 109.405 14.2639 109.238 14.2874 109.052L14.5822 106.67C14.603 106.5 14.7466 106.375 14.9163 106.375C14.9294 106.375 14.945 106.375 14.9581 106.378C15.1406 106.401 15.2737 106.568 15.2503 106.754ZM15.0389 105.712C14.8563 105.692 14.7258 105.522 14.7467 105.339L15.0415 102.954C15.0623 102.785 15.2058 102.659 15.3755 102.659C15.3886 102.659 15.4043 102.659 15.4172 102.662C15.5999 102.686 15.733 102.855 15.7095 103.038L15.4146 105.42C15.3912 105.603 15.2241 105.736 15.0389 105.712ZM16.4193 106.754L16.1244 109.136C16.1009 109.319 15.9313 109.452 15.7486 109.428C15.566 109.405 15.4329 109.238 15.4564 109.052L15.7512 106.67C15.772 106.5 15.9155 106.375 16.0852 106.375C16.0983 106.375 16.114 106.375 16.1271 106.378C16.3097 106.401 16.4401 106.568 16.4193 106.754ZM16.2079 105.712C16.0252 105.692 15.8921 105.522 15.9157 105.339L16.2104 102.954C16.2313 102.785 16.3748 102.659 16.5445 102.659C16.5576 102.659 16.5732 102.659 16.5863 102.662C16.769 102.686 16.8994 102.855 16.8786 103.038L16.5837 105.42C16.5603 105.603 16.3906 105.736 16.2079 105.712ZM17.5883 106.754L17.2933 109.136C17.2698 109.319 17.1003 109.452 16.9176 109.428C16.7349 109.405 16.6018 109.238 16.6253 109.052L16.9203 106.67C16.9386 106.5 17.0846 106.375 17.2517 106.375C17.2648 106.375 17.2804 106.375 17.2935 106.378C17.4787 106.401 17.6092 106.568 17.5883 106.754ZM17.3769 105.712C17.1942 105.692 17.0611 105.522 17.0846 105.339L17.3794 102.954C17.3977 102.785 17.5438 102.659 17.7108 102.659C17.7239 102.659 17.7395 102.659 17.7526 102.662C17.938 102.686 18.0684 102.855 18.0475 103.038L17.7526 105.42C17.7292 105.603 17.5597 105.736 17.3769 105.712ZM18.7547 106.754L18.4598 109.136C18.4389 109.319 18.2694 109.452 18.0867 109.428C17.9014 109.405 17.7709 109.238 17.7945 109.052L18.0894 106.67C18.1077 106.5 18.2537 106.375 18.4208 106.375C18.4339 106.375 18.4495 106.375 18.4626 106.378C18.6478 106.401 18.7782 106.568 18.7547 106.754ZM18.546 105.712C18.3606 105.692 18.2302 105.522 18.2537 105.339L18.5485 102.954C18.5668 102.785 18.7129 102.659 18.8799 102.659C18.893 102.659 18.9086 102.659 18.9217 102.662C19.1069 102.686 19.2375 102.855 19.214 103.038L18.9192 105.42C18.8982 105.603 18.7286 105.736 18.546 105.712ZM19.9237 106.754L19.6289 109.136C19.608 109.319 19.4383 109.452 19.2557 109.428C19.0703 109.405 18.9399 109.238 18.9634 109.052L19.2557 106.67C19.2765 106.5 19.4227 106.375 19.5897 106.375C19.6028 106.375 19.6185 106.375 19.6316 106.378C19.8141 106.401 19.9472 106.568 19.9237 106.754ZM20.3829 103.038L20.0882 105.42C20.0673 105.603 19.8976 105.736 19.7149 105.712C19.5296 105.692 19.3992 105.522 19.4227 105.339L19.7149 102.954C19.7358 102.785 19.882 102.659 20.0489 102.659C20.062 102.659 20.0776 102.659 20.0907 102.662C20.2734 102.686 20.4065 102.855 20.3829 103.038ZM11.8655 91.202C11.8881 91.1628 11.9016 91.121 11.9079 91.0789C11.9143 91.1211 11.9277 91.1628 11.9503 91.202L15.7264 97.7424H8.08951L11.8655 91.202Z" fill="#D2D9DC"/>
<path d="M259.491 106.589C259.346 106.789 258.945 107.245 258.945 107.245C258.945 107.245 258.817 106.735 258.416 106.607C258.016 106.48 257.214 106.552 256.521 106.225C255.83 105.897 255.501 105.277 255.501 105.277C255.501 105.277 255.046 106.053 255.811 106.995C256.576 107.937 258.526 110.385 258.289 113.17H252.003C252.003 113.17 249.489 108.72 251.311 104.967C253.133 101.214 257.287 100.821 257.287 100.821L256.813 101.939L258.271 103.273C258.271 103.273 258.325 104.73 259.109 105.423C259.892 106.115 259.638 106.389 259.491 106.589Z" fill="#D2D9DC"/>
<path d="M259.464 113.902C259.464 114.103 259.382 114.286 259.249 114.418C259.117 114.551 258.934 114.633 258.733 114.633H251.38C250.978 114.633 250.648 114.304 250.648 113.902C250.648 113.7 250.731 113.517 250.863 113.385C250.996 113.252 251.179 113.17 251.38 113.17H258.733C259.135 113.17 259.464 113.499 259.464 113.902Z" fill="white"/>
<path d="M259.921 115.312V118.711H250.191V115.312C250.191 114.939 250.496 114.633 250.87 114.633H259.242C259.615 114.633 259.921 114.939 259.921 115.312Z" fill="#D2D9DC"/>
<path d="M196.816 31.49C196.816 30.9065 196.927 30.3623 197.148 29.8569C197.369 29.3522 197.669 28.9104 198.047 28.5316C198.426 28.1528 198.867 27.8533 199.372 27.6324C199.877 27.4115 200.422 27.3009 201.005 27.3009C201.589 27.3009 202.134 27.4115 202.639 27.6324C203.144 27.8533 203.585 28.1528 203.964 28.5316C204.343 28.9104 204.642 29.3521 204.863 29.8569C205.084 30.3623 205.194 30.9065 205.194 31.49C205.194 32.0739 205.084 32.6183 204.863 33.123C204.642 33.628 204.343 34.0695 203.964 34.4483C203.585 34.8272 203.144 35.1269 202.639 35.3478C202.134 35.5687 201.589 35.6789 201.005 35.6789C200.422 35.6789 199.877 35.5687 199.372 35.3478C198.867 35.1269 198.426 34.827 198.047 34.4483C197.669 34.0695 197.369 33.6281 197.148 33.123C196.927 32.6183 196.816 32.0739 196.816 31.49ZM198.663 31.49C198.663 32.1526 198.888 32.7089 199.337 33.1583C199.787 33.6081 200.343 33.8328 201.005 33.8328C201.668 33.8328 202.224 33.6079 202.674 33.1583C203.124 32.7089 203.349 32.1525 203.349 31.49C203.349 30.8274 203.124 30.271 202.674 29.8216C202.224 29.3718 201.668 29.1471 201.005 29.1471C200.343 29.1471 199.787 29.372 199.337 29.8216C198.888 30.271 198.663 30.8273 198.663 31.49ZM201.502 45.2164L200.083 44.4828L210.614 26.9695L212.034 27.7034L201.502 45.2164ZM206.851 40.72C206.851 40.1363 206.961 39.5919 207.183 39.0869C207.403 38.5822 207.703 38.1402 208.082 37.7617C208.46 37.3829 208.902 37.0834 209.407 36.8623C209.912 36.6414 210.456 36.5312 211.04 36.5312C211.624 36.5312 212.168 36.6414 212.673 36.8623C213.178 37.0834 213.62 37.383 213.999 37.7617C214.377 38.1402 214.677 38.5822 214.898 39.0869C215.119 39.5919 215.229 40.1363 215.229 40.72C215.229 41.3037 215.118 41.8481 214.898 42.3528C214.677 42.8581 214.377 43.2995 213.999 43.6784C213.619 44.0568 213.178 44.3569 212.673 44.5775C212.168 44.7984 211.624 44.9091 211.04 44.9091C210.456 44.9091 209.912 44.7984 209.407 44.5775C208.902 44.3569 208.461 44.0568 208.082 43.6784C207.703 43.2997 207.403 42.8581 207.183 42.3528C206.961 41.8481 206.851 41.3037 206.851 40.72ZM208.697 40.72C208.697 41.3826 208.922 41.9387 209.371 42.3883C209.821 42.838 210.377 43.0629 211.04 43.0629C211.703 43.0629 212.259 42.838 212.708 42.3883C213.158 41.9385 213.383 41.3825 213.383 40.72C213.383 40.0575 213.158 39.501 212.708 39.0512C212.259 38.6019 211.702 38.377 211.04 38.377C210.377 38.377 209.821 38.6019 209.371 39.0512C208.922 39.501 208.697 40.0575 208.697 40.72Z" fill="#E5F0F8"/>
<path opacity="0.5" d="M161.002 5.27258H104.623C103.955 5.27258 103.414 5.96918 103.414 6.8284V10.4307V42.4797H162.211V10.4307V6.8284C162.211 5.96918 161.67 5.27258 161.002 5.27258Z" fill="#719BD8"/>
<path d="M165.084 1.84009H108.705C108.037 1.84009 107.496 2.53669 107.496 3.39591V6.99823V39.0474H166.293V6.99823V3.39591C166.293 2.53669 165.752 1.84009 165.084 1.84009Z" fill="#719BD8"/>
<path d="M165.636 6.12939H108.152V38.1383H165.636V6.12939Z" fill="white"/>
<path d="M112.937 12.0084H110.746V35.7434H112.937V12.0084Z" fill="#719BD8"/>
<path d="M115.55 23.3406H113.359V35.7435H115.55V23.3406Z" fill="#F9ECB8"/>
<path d="M120.851 15.2212H118.66V35.7435H120.851V15.2212Z" fill="#719BD8"/>
<path d="M123.464 8.52393H121.273V35.7434H123.464V8.52393Z" fill="#F9ECB8"/>
<path d="M128.765 23.1031H126.574V35.7433H128.765V23.1031Z" fill="#719BD8"/>
<path d="M131.378 14.4307H129.188V35.7434H131.378V14.4307Z" fill="#F9ECB8"/>
<path d="M136.679 10.5366H134.488V35.7435H136.679V10.5366Z" fill="#719BD8"/>
<path d="M139.293 13.9277H137.102V35.7434H139.293V13.9277Z" fill="#F9ECB8"/>
<path d="M144.593 28.5492H142.402V35.7435H144.593V28.5492Z" fill="#719BD8"/>
<path d="M152.507 22.832H150.316V35.7435H152.507V22.832Z" fill="#719BD8"/>
<path d="M147.207 17.0422H145.016V35.7436H147.207V17.0422Z" fill="#F9ECB8"/>
<path d="M155.121 30.4487H152.93V35.7434H155.121V30.4487Z" fill="#F9ECB8"/>
<path d="M160.421 9.04565H158.23V35.7433H160.421V9.04565Z" fill="#719BD8"/>
<path d="M163.035 12.9873H160.844V35.7433H163.035V12.9873Z" fill="#F9ECB8"/>
<path d="M238.891 184.948H29.1168C23.8121 184.948 19.5117 180.648 19.5117 175.343V175.092C19.5117 174.302 20.1522 173.661 20.9423 173.661H247.066C247.856 173.661 248.496 174.302 248.496 175.092V175.343C248.496 180.648 244.196 184.948 238.891 184.948Z" fill="#002548"/>
<path d="M242.253 70.2323V173.661H25.5898V70.2323C25.5898 58.54 34.6906 49.0635 45.9305 49.0635H221.913C230.254 49.0635 237.431 54.2924 240.559 61.7754C241.648 64.3592 242.253 67.2267 242.253 70.2323Z" fill="#002548"/>
<path d="M234.647 70.23V173.661H33.1914V70.23C33.1914 62.9246 38.9084 56.9751 45.9281 56.9751H221.911C228.931 56.9751 234.647 62.9246 234.647 70.23Z" fill="#E5F0F8"/>
<path d="M227.044 70.2271V74.4776H40.7969V70.2271C40.7969 67.2907 43.101 64.8853 45.9299 64.8853H221.911C224.74 64.8854 227.044 67.2907 227.044 70.2271Z" fill="#719BD8"/>
<path d="M227.044 74.4775H40.7969V173.663H227.044V74.4775Z" fill="white"/>
<path d="M132.814 78.3872H43.5078V84.9717H132.814V78.3872Z" fill="#719BD8"/>
<path d="M132.814 84.9717H43.5078V108.47H132.814V84.9717Z" fill="#E5F0F8"/>
<path d="M75.6695 80.9348H46.6953V82.4006H75.6695V80.9348Z" fill="white"/>
<path d="M97.0537 80.9348H77.4336V82.4006H97.0537V80.9348Z" fill="white"/>
<path d="M129.613 87.3145H46.7109V106.128H129.613V87.3145Z" stroke="#719BD8" stroke-width="0.393291" stroke-miterlimit="10"/>
<path d="M53.9042 87.3145H46.7109V106.128H53.9042V87.3145Z" stroke="#719BD8" stroke-width="0.393291" stroke-miterlimit="10"/>
<path d="M95.4827 87.3145H53.9023V106.128H95.4827V87.3145Z" stroke="#719BD8" stroke-width="0.393291" stroke-miterlimit="10"/>
<path d="M129.612 87.3145H123.051V106.128H129.612V87.3145Z" stroke="#719BD8" stroke-width="0.393291" stroke-miterlimit="10"/>
<path d="M123.05 87.3145H116.488V106.128H123.05V87.3145Z" stroke="#719BD8" stroke-width="0.393291" stroke-miterlimit="10"/>
<path d="M116.487 87.3145H108.289V106.128H116.487V87.3145Z" stroke="#719BD8" stroke-width="0.393291" stroke-miterlimit="10"/>
<path d="M108.292 87.3145H95.4844V106.128H108.292V87.3145Z" stroke="#719BD8" stroke-width="0.393291" stroke-miterlimit="10"/>
<path d="M129.613 92.9255H46.7109V97.3263H129.613V92.9255Z" stroke="#719BD8" stroke-width="0.393291" stroke-miterlimit="10"/>
<path d="M129.613 97.3264H46.7109V101.727H129.613V97.3264Z" stroke="#719BD8" stroke-width="0.393291" stroke-miterlimit="10"/>
<path d="M129.613 101.727H46.7109V106.128H129.613V101.727Z" stroke="#719BD8" stroke-width="0.393291" stroke-miterlimit="10"/>
<path d="M132.814 110.484H43.5078V114.307H132.814V110.484Z" fill="#719BD8"/>
<path d="M132.814 114.307H43.5078V127.954H132.814V114.307Z" fill="#E5F0F8"/>
<path d="M75.6695 111.963H46.6953V112.814H75.6695V111.963Z" fill="white"/>
<path d="M97.0537 111.963H77.4336V112.814H97.0537V111.963Z" fill="white"/>
<path d="M129.613 115.668H46.7109V126.594H129.613V115.668Z" stroke="#719BD8" stroke-width="0.299712" stroke-miterlimit="10"/>
<path d="M53.9042 115.668H46.7109V126.594H53.9042V115.668Z" stroke="#719BD8" stroke-width="0.299712" stroke-miterlimit="10"/>
<path d="M95.4827 115.668H53.9023V126.594H95.4827V115.668Z" stroke="#719BD8" stroke-width="0.299712" stroke-miterlimit="10"/>
<path d="M129.612 115.668H123.051V126.594H129.612V115.668Z" stroke="#719BD8" stroke-width="0.299712" stroke-miterlimit="10"/>
<path d="M123.05 115.668H116.488V126.594H123.05V115.668Z" stroke="#719BD8" stroke-width="0.299712" stroke-miterlimit="10"/>
<path d="M116.487 115.668H108.289V126.594H116.487V115.668Z" stroke="#719BD8" stroke-width="0.299712" stroke-miterlimit="10"/>
<path d="M108.292 115.668H95.4844V126.594H108.292V115.668Z" stroke="#719BD8" stroke-width="0.299712" stroke-miterlimit="10"/>
<path d="M129.613 118.927H46.7109V121.482H129.613V118.927Z" stroke="#719BD8" stroke-width="0.299712" stroke-miterlimit="10"/>
<path d="M129.613 121.482H46.7109V124.038H129.613V121.482Z" stroke="#719BD8" stroke-width="0.299712" stroke-miterlimit="10"/>
<path d="M129.613 124.038H46.7109V126.594H129.613V124.038Z" stroke="#719BD8" stroke-width="0.299712" stroke-miterlimit="10"/>
<path d="M221.912 78.3872H137.719C136.722 78.3872 135.914 79.1953 135.914 80.1921V84.3709V121.549H223.717V84.3709V80.1921C223.717 79.1954 222.908 78.3872 221.912 78.3872Z" fill="#719BD8"/>
<path d="M222.735 83.3628H136.895V120.494H222.735V83.3628Z" fill="white"/>
<path d="M167.511 110.484H161.098V117.134H167.511V110.484Z" fill="white" stroke="#719BD8" stroke-width="0.511244" stroke-miterlimit="10"/>
<path d="M161.098 110.484H145.207V117.134H161.098V110.484Z" fill="white" stroke="#719BD8" stroke-width="0.511244" stroke-miterlimit="10"/>
<path d="M145.206 110.484H139.43V117.134H145.206V110.484Z" fill="white" stroke="#719BD8" stroke-width="0.511244" stroke-miterlimit="10"/>
<path d="M172.74 110.484H167.512V117.134H172.74V110.484Z" fill="white" stroke="#719BD8" stroke-width="0.511244" stroke-miterlimit="10"/>
<path d="M178.377 110.484H172.738V117.134H178.377V110.484Z" fill="white" stroke="#719BD8" stroke-width="0.511244" stroke-miterlimit="10"/>
<path d="M167.511 103.833H161.098V110.484H167.511V103.833Z" fill="white" stroke="#719BD8" stroke-width="0.511244" stroke-miterlimit="10"/>
<path d="M161.098 103.833H145.207V110.484H161.098V103.833Z" fill="white" stroke="#719BD8" stroke-width="0.511244" stroke-miterlimit="10"/>
<path d="M145.206 103.833H139.43V110.484H145.206V103.833Z" fill="white" stroke="#719BD8" stroke-width="0.511244" stroke-miterlimit="10"/>
<path d="M172.74 103.833H167.512V110.484H172.74V103.833Z" fill="white" stroke="#719BD8" stroke-width="0.511244" stroke-miterlimit="10"/>
<path d="M178.377 103.833H172.738V110.484H178.377V103.833Z" fill="white" stroke="#719BD8" stroke-width="0.511244" stroke-miterlimit="10"/>
<path d="M159.262 106.525H147.039V107.793H159.262V106.525Z" fill="#E5F0F8"/>
<path d="M159.262 113.175H147.039V114.443H159.262V113.175Z" fill="#E5F0F8"/>
<path d="M173.077 86.4138H139.43V88.1698H173.077V86.4138Z" fill="#E5F0F8"/>
<path d="M156.253 90.811H139.43V92.567H156.253V90.811Z" fill="#E5F0F8"/>
<path d="M178.54 90.811H171.227V92.567H178.54V90.811Z" fill="#E5F0F8"/>
<path d="M162.964 94.1929H139.43V95.9489H162.964V94.1929Z" fill="#E5F0F8"/>
<path d="M178.538 94.1929H169.273V95.9489H178.538V94.1929Z" fill="#E5F0F8"/>
<path d="M159.946 97.575H139.43V99.3311H159.946V97.575Z" fill="#E5F0F8"/>
<path d="M178.54 97.575H171.227V99.3311H178.54V97.575Z" fill="#E5F0F8"/>
<path d="M180.332 109.766H219.942" stroke="#ADD0FA" stroke-width="0.176321" stroke-miterlimit="10" stroke-linecap="round" stroke-linejoin="round" stroke-dasharray="1.05 1.05"/>
<path d="M180.332 107.194H219.942" stroke="#ADD0FA" stroke-width="0.176321" stroke-miterlimit="10" stroke-linecap="round" stroke-linejoin="round" stroke-dasharray="1.05 1.05"/>
<path d="M180.332 104.622H219.942" stroke="#ADD0FA" stroke-width="0.176321" stroke-miterlimit="10" stroke-linecap="round" stroke-linejoin="round" stroke-dasharray="1.05 1.05"/>
<path d="M180.332 102.049H219.942" stroke="#ADD0FA" stroke-width="0.176321" stroke-miterlimit="10" stroke-linecap="round" stroke-linejoin="round" stroke-dasharray="1.05 1.05"/>
<path d="M180.332 99.4772H219.942" stroke="#ADD0FA" stroke-width="0.176321" stroke-miterlimit="10" stroke-linecap="round" stroke-linejoin="round" stroke-dasharray="1.05 1.05"/>
<path d="M180.332 96.9048H219.942" stroke="#ADD0FA" stroke-width="0.176321" stroke-miterlimit="10" stroke-linecap="round" stroke-linejoin="round" stroke-dasharray="1.05 1.05"/>
<path d="M180.332 94.3327H219.942" stroke="#ADD0FA" stroke-width="0.176321" stroke-miterlimit="10" stroke-linecap="round" stroke-linejoin="round" stroke-dasharray="1.05 1.05"/>
<path d="M180.391 91.6633V112.193H220.331" stroke="#719BD8" stroke-width="0.352642" stroke-miterlimit="10" stroke-linecap="round" stroke-linejoin="round"/>
<path d="M183.176 108.325L190.755 97.2955L195.733 104.352H203.263L210.539 94.8423L219.941 108.895" stroke="#FFDD33" stroke-width="0.352642" stroke-miterlimit="10" stroke-linecap="round" stroke-linejoin="round"/>
<path d="M190.757 98.3498C191.34 98.3498 191.812 97.8779 191.812 97.2956C191.812 96.7134 191.34 96.2415 190.757 96.2415C190.175 96.2415 189.703 96.7134 189.703 97.2956C189.703 97.8779 190.175 98.3498 190.757 98.3498Z" fill="white" stroke="#E30E08" stroke-width="0.352642" stroke-miterlimit="10" stroke-linecap="round" stroke-linejoin="round"/>
<path d="M195.695 105.444C196.277 105.444 196.749 104.972 196.749 104.39C196.749 103.808 196.277 103.336 195.695 103.336C195.113 103.336 194.641 103.808 194.641 104.39C194.641 104.972 195.113 105.444 195.695 105.444Z" fill="white" stroke="#E30E08" stroke-width="0.352642" stroke-miterlimit="10" stroke-linecap="round" stroke-linejoin="round"/>
<path d="M203.16 105.444C203.742 105.444 204.214 104.972 204.214 104.39C204.214 103.808 203.742 103.336 203.16 103.336C202.577 103.336 202.105 103.808 202.105 104.39C202.105 104.972 202.577 105.444 203.16 105.444Z" fill="white" stroke="#E30E08" stroke-width="0.352642" stroke-miterlimit="10" stroke-linecap="round" stroke-linejoin="round"/>
<path d="M211.676 95.4839C211.769 94.9092 211.379 94.3677 210.804 94.2745C210.229 94.1812 209.688 94.5715 209.595 95.1462C209.501 95.7209 209.892 96.2624 210.466 96.3556C211.041 96.4489 211.582 96.0586 211.676 95.4839Z" fill="white" stroke="#E30E08" stroke-width="0.352642" stroke-miterlimit="10" stroke-linecap="round" stroke-linejoin="round"/>
<path d="M172.496 152.77C172.496 162.739 164.413 170.813 154.453 170.813C144.493 170.813 136.41 162.739 136.41 152.77H139.949C139.949 160.768 146.455 167.273 154.453 167.273C162.451 167.273 168.957 160.768 168.957 152.77C168.957 144.781 162.451 138.275 154.453 138.275V134.736C164.413 134.736 172.496 142.809 172.496 152.77Z" fill="#719BD8"/>
<path d="M154.453 134.736V138.275C146.455 138.275 139.949 144.781 139.949 152.77H136.41C136.41 142.809 144.493 134.736 154.453 134.736Z" fill="#FFDD33"/>
<path d="M154.453 138.275V142.227C148.642 142.227 143.911 146.959 143.911 152.769H139.949C139.949 144.781 146.455 138.275 154.453 138.275Z" fill="#F9ECB8"/>
<path d="M168.957 152.769C168.957 160.768 162.451 167.273 154.453 167.273C146.455 167.273 139.949 160.768 139.949 152.769H143.911C143.911 158.58 148.642 163.312 154.453 163.312C160.264 163.312 164.995 158.58 164.995 152.769C164.995 146.959 160.264 142.227 154.453 142.227V138.275C162.451 138.275 168.957 144.781 168.957 152.769Z" fill="#E5F0F8"/>
<path d="M216.567 152.77C216.567 162.739 208.484 170.813 198.523 170.813C188.563 170.813 180.48 162.739 180.48 152.77C180.48 146.799 183.381 141.504 187.859 138.228L189.952 141.082C186.357 143.729 184.02 147.982 184.02 152.77C184.02 160.768 190.525 167.274 198.523 167.274C206.522 167.274 213.027 160.768 213.027 152.77C213.027 144.781 206.522 138.275 198.523 138.275V134.736C208.484 134.736 216.567 142.809 216.567 152.77Z" fill="#719BD8"/>
<path d="M213.027 152.77C213.027 160.768 206.522 167.274 198.523 167.274C190.525 167.274 184.02 160.768 184.02 152.77C184.02 147.982 186.357 143.729 189.952 141.082L192.29 144.264C189.68 146.189 187.981 149.287 187.981 152.77C187.981 158.581 192.712 163.312 198.523 163.312C204.334 163.312 209.066 158.581 209.066 152.77C209.066 146.959 204.334 142.227 198.523 142.227V138.275C206.522 138.275 213.027 144.781 213.027 152.77Z" fill="#E5F0F8"/>
<path d="M198.524 134.736V138.275C195.323 138.275 192.356 139.317 189.953 141.082L187.859 138.228C190.845 136.031 194.534 134.736 198.524 134.736Z" fill="#FFDD33"/>
<path d="M198.524 138.275V142.227C196.196 142.227 194.037 142.988 192.291 144.264L189.953 141.082C192.356 139.317 195.323 138.275 198.524 138.275Z" fill="#F9ECB8"/>
<path d="M166.483 130.435H142.418V131.835H166.483V130.435Z" fill="#E5F0F8"/>
<path d="M210.557 130.435H186.492V131.835H210.557V130.435Z" fill="#E5F0F8"/>
<path d="M87.3633 152.769C87.3633 162.739 79.2806 170.813 69.3203 170.813C59.36 170.813 51.2773 162.739 51.2773 152.769H54.8165C54.8165 160.768 61.3221 167.273 69.3203 167.273C77.3186 167.273 83.8242 160.768 83.8242 152.769C83.8242 144.781 77.3186 138.275 69.3203 138.275V134.736C79.2806 134.736 87.3633 142.809 87.3633 152.769Z" fill="#719BD8"/>
<path d="M69.3203 134.736V138.275C61.3221 138.275 54.8165 144.781 54.8165 152.769H51.2773C51.2773 142.809 59.36 134.736 69.3203 134.736Z" fill="#FFDD33"/>
<path d="M69.3203 138.275V142.227C63.5094 142.227 58.7779 146.959 58.7779 152.769H54.8164C54.8164 144.781 61.322 138.275 69.3203 138.275Z" fill="#F9ECB8"/>
<path d="M83.8242 152.769C83.8242 160.768 77.3185 167.273 69.3203 167.273C61.322 167.273 54.8164 160.768 54.8164 152.769H58.7779C58.7779 158.58 63.5094 163.312 69.3203 163.312C75.1312 163.312 79.8625 158.58 79.8625 152.769C79.8625 146.959 75.1311 142.227 69.3203 142.227V138.275C77.3185 138.275 83.8242 144.781 83.8242 152.769Z" fill="#E5F0F8"/>
<path d="M131.434 152.77C131.434 162.74 123.351 170.813 113.391 170.813C103.43 170.813 95.3477 162.74 95.3477 152.77C95.3477 146.799 98.2484 141.505 102.726 138.228L104.82 141.082C101.224 143.73 98.8868 147.982 98.8868 152.77C98.8868 160.768 105.392 167.274 113.391 167.274C121.389 167.274 127.895 160.768 127.895 152.77C127.895 144.781 121.389 138.276 113.391 138.276V134.736C123.351 134.736 131.434 142.809 131.434 152.77Z" fill="#719BD8"/>
<path d="M127.895 152.77C127.895 160.768 121.389 167.274 113.391 167.274C105.392 167.274 98.8867 160.768 98.8867 152.77C98.8867 147.982 101.224 143.73 104.82 141.082L107.157 144.265C104.547 146.189 102.848 149.287 102.848 152.77C102.848 158.581 107.58 163.312 113.391 163.312C119.202 163.312 123.933 158.581 123.933 152.77C123.933 146.959 119.202 142.227 113.391 142.227V138.275C121.389 138.275 127.895 144.781 127.895 152.77Z" fill="#E5F0F8"/>
<path d="M113.391 134.736V138.275C110.19 138.275 107.223 139.317 104.82 141.082L102.727 138.228C105.712 136.032 109.401 134.736 113.391 134.736Z" fill="#FFDD33"/>
<path d="M113.391 138.275V142.228C111.063 142.228 108.904 142.988 107.158 144.265L104.82 141.082C107.224 139.317 110.19 138.275 113.391 138.275Z" fill="#F9ECB8"/>
<path d="M81.3499 130.435H57.2852V131.835H81.3499V130.435Z" fill="#E5F0F8"/>
<path d="M125.424 130.435H101.359V131.835H125.424V130.435Z" fill="#E5F0F8"/>
<path d="M87.6367 83.4009L86.3616 84.7559L73.2695 71.7413L74.6224 70.4648L87.6367 83.4009Z" fill="#93ACBF"/>
<path d="M115.712 112.724C115.708 112.731 115.703 112.732 115.698 112.738C114.84 113.607 113.44 113.611 112.57 112.748L85.4141 85.7646L86.362 84.7558L86.9405 84.137L87.6371 83.4008L88.4453 82.543L115.689 109.611C116.551 110.464 116.563 111.851 115.712 112.724Z" fill="#719BD8"/>
<path d="M115.713 112.724C115.707 112.72 115.699 112.71 115.691 112.7L86.9414 84.137L87.638 83.4008L88.4462 82.543L115.69 109.611C116.552 110.464 116.564 111.851 115.713 112.724Z" fill="#93ACBF"/>
<path d="M88.3566 17.6832C71.2853 -3.02098 40.5674 -5.97268 19.8631 11.0987C-0.829489 28.1688 -3.7928 58.8881 13.2785 79.5923C30.3486 100.285 61.0783 103.235 81.7722 86.1768C102.476 69.1054 105.427 38.3756 88.3566 17.6832ZM78.7657 82.5482C60.0399 97.9909 32.3509 95.3237 16.8953 76.5874C1.46462 57.8601 4.13168 30.1712 22.8575 14.7287C41.5716 -0.712446 69.2841 1.95195 84.7268 20.6778C100.171 39.4154 97.4917 67.1056 78.7657 82.5482Z" fill="#93ACBF"/>
<path d="M86.5295 19.19C70.2651 -0.532305 41.078 -3.33848 21.3681 12.9243C1.64582 29.1886 -1.16302 58.3508 15.0887 78.0744C31.3666 97.8077 60.5289 100.617 80.2511 84.3525C99.9734 68.0883 102.795 38.9246 86.5295 19.19ZM78.6518 82.4061C60.0054 97.7836 32.4265 95.132 17.0352 76.4749C1.67027 57.8272 4.3217 30.2483 22.968 14.8708C41.6143 -0.506649 69.2055 2.14344 84.5828 20.7896C99.9618 39.4483 97.2977 67.0286 78.6518 82.4061Z" fill="#719BD8"/>
<path opacity="0.3" d="M82.8804 22.1971C86.6496 26.772 89.2771 31.9085 90.7933 37.2652C91.7078 40.4868 92.2221 43.7865 92.3424 47.0876C92.4154 49.0963 92.3443 51.1012 92.1253 53.0955C91.6887 57.1931 90.6367 61.2276 88.9985 65.0507C87.4134 68.7453 85.2805 72.241 82.5982 75.41C81.0083 77.2993 79.22 79.071 77.2475 80.6991C76.8378 81.0344 76.4243 81.3624 76.0072 81.6833C74.1342 83.1131 72.1734 84.3634 70.1391 85.4269C64.3153 88.5009 57.9545 90.0717 51.5988 90.1854C39.3598 90.4123 27.1399 85.2519 18.744 75.0718C12.7539 67.8025 9.65264 59.1069 9.29345 50.3728C9.0274 43.9444 10.2529 37.4895 12.9111 31.5711C13.8545 29.4691 14.983 27.4325 16.2876 25.4883C17.9574 23.007 19.9155 20.6661 22.1641 18.5331C22.8758 17.8584 23.6099 17.2089 24.375 16.5756C26.8149 14.5641 29.4103 12.8806 32.1156 11.517C35.8681 9.62186 39.8238 8.34238 43.8471 7.66583C45.8323 7.32508 47.8359 7.13546 49.8412 7.09163C53.1719 7.01105 56.5006 7.33523 59.752 8.05241C68.5152 9.9721 76.7274 14.7366 82.8804 22.1971Z" fill="#E5F0F8"/>
<path d="M7.56641 55.3828C10.5801 74.7919 26.473 90.401 46.9178 92.227C57.2511 93.1498 67.0601 90.3945 75.0677 85.0536L50.8112 48.6348L7.56641 55.3828Z" fill="#E30E08"/>
<path d="M18.2261 19.4164C12.1289 26.206 8.09521 34.9527 7.22089 44.7415C6.89658 48.372 7.03301 51.9362 7.56818 55.3827L50.813 48.6348L53.3894 4.95838C39.6061 4.13871 26.8506 9.81266 18.2261 19.4164Z" fill="#088CFC"/>
<path d="M53.389 4.95825L50.8125 48.6347L84.2846 20.4435C77.1038 11.917 66.6863 6.11239 54.7059 5.04244C54.2652 5.00315 53.8277 4.98431 53.389 4.95825Z" fill="#54CC5A"/>
<path d="M50.8125 48.6348L75.069 85.0535C85.7183 77.9511 93.1772 66.2701 94.4046 52.5281C94.8235 47.8372 94.4771 43.2564 93.484 38.8998C91.9167 32.0236 88.7222 25.7131 84.2846 20.4436L50.8125 48.6348Z" fill="#FFDD33"/>
<path d="M76.4322 18.2449H55.6133V18.9775H76.4322V18.2449Z" fill="white"/>
<path d="M76.4322 19.7507H55.6133V20.4834H76.4322V19.7507Z" fill="white"/>
<path d="M76.4322 21.2568H55.6133V21.9895H76.4322V21.2568Z" fill="white"/>
<path d="M38.7447 31.946H17.9258V32.6787H38.7447V31.946Z" fill="white"/>
<path d="M38.7447 33.4519H17.9258V34.1846H38.7447V33.4519Z" fill="white"/>
<path d="M38.7447 34.958H17.9258V35.6907H38.7447V34.958Z" fill="white"/>
<path d="M88.3697 49.4685H67.5508V50.2012H88.3697V49.4685Z" fill="white"/>
<path d="M88.3697 50.9744H67.5508V51.707H88.3697V50.9744Z" fill="white"/>
<path d="M88.3697 52.4802H67.5508V53.2129H88.3697V52.4802Z" fill="white"/>
<path d="M48.6197 69.6814H27.8008V70.4141H48.6197V69.6814Z" fill="white"/>
<path d="M48.6197 71.1873H27.8008V71.9199H48.6197V71.1873Z" fill="white"/>
<path d="M48.6197 72.6934H27.8008V73.426H48.6197V72.6934Z" fill="white"/>
<path d="M197.069 158.791L214.035 145.516L208.368 137.524L182.715 142.801L197.069 158.791Z" fill="#0775EF"/>
<path d="M175.934 141.715C175.934 141.715 192.382 139.553 201.216 155.884C201.732 156.837 201.416 158.028 200.493 158.595L194.695 162.155L175.934 141.715Z" fill="#088CFC"/>
<path d="M175.933 184.94C187.87 184.94 197.546 175.264 197.546 163.327C197.546 151.391 187.87 141.715 175.933 141.715C163.997 141.715 154.32 151.391 154.32 163.327C154.32 175.264 163.997 184.94 175.933 184.94Z" fill="#2EC6FC"/>
<path d="M189.886 177.283C197.593 169.575 197.593 157.079 189.886 149.372C182.178 141.664 169.682 141.664 161.975 149.372C154.268 157.079 154.268 169.575 161.975 177.283C169.682 184.99 182.179 184.99 189.886 177.283Z" fill="#54667A"/>
<path d="M194.733 163.329C194.733 168.765 192.413 173.671 188.712 177.1C185.355 180.219 180.863 182.126 175.933 182.126C165.568 182.126 157.137 173.694 157.137 163.329C157.137 155.354 162.125 148.525 169.147 145.797C171.252 144.979 173.54 144.529 175.933 144.529C186.298 144.529 194.733 152.961 194.733 163.329Z" fill="#E5F0F8"/>
<path d="M194.732 163.329C194.732 168.765 192.411 173.671 188.71 177.1C186.601 177.925 184.307 178.375 181.914 178.375C171.549 178.375 163.117 169.943 163.117 159.578C163.117 154.139 165.438 149.233 169.146 145.797C171.251 144.979 173.539 144.529 175.932 144.529C186.297 144.529 194.732 152.961 194.732 163.329Z" fill="white"/>
<path d="M175.947 179.147C184.646 179.147 191.698 172.095 191.698 163.395C191.698 154.696 184.646 147.644 175.947 147.644C167.248 147.644 160.195 154.696 160.195 163.395C160.195 172.095 167.248 179.147 175.947 179.147Z" stroke="#719BD8" stroke-width="0.62142" stroke-miterlimit="10"/>
<path d="M175.943 175.878C182.837 175.878 188.425 170.289 188.425 163.395C188.425 156.502 182.837 150.913 175.943 150.913C169.049 150.913 163.461 156.502 163.461 163.395C163.461 170.289 169.049 175.878 175.943 175.878Z" stroke="#719BD8" stroke-width="0.62142" stroke-miterlimit="10"/>
<path d="M184.853 163.395C184.853 168.313 180.865 172.3 175.948 172.3C173.266 172.3 170.861 171.114 169.231 169.236C167.865 167.675 167.043 165.631 167.043 163.395C167.043 158.478 171.03 154.49 175.948 154.49C180.865 154.49 184.853 158.478 184.853 163.395Z" fill="#719BD8"/>
<path d="M175.947 163.06C172.111 162.844 170.175 166.312 169.23 169.236C170.86 171.114 173.265 172.3 175.947 172.3C178.629 172.3 181.034 171.114 182.663 169.236C181.719 166.312 179.783 162.844 175.947 163.06Z" fill="#E5F0F8"/>
<path d="M179.189 160.243C179.189 162.879 177.738 165.638 175.948 165.638C174.158 165.638 172.707 162.879 172.707 160.243C172.707 157.608 174.158 156.095 175.948 156.095C177.738 156.095 179.189 157.608 179.189 160.243Z" fill="#E5F0F8" stroke="#719BD8" stroke-width="0.31071" stroke-miterlimit="10"/>
<path d="M175.948 152.5C175.665 152.5 175.434 152.269 175.434 151.986V146.521C175.434 146.238 175.665 146.007 175.948 146.007C176.231 146.007 176.462 146.238 176.462 146.521V151.986C176.462 152.269 176.231 152.5 175.948 152.5Z" fill="#719BD8"/>
<path d="M165.103 163.395C165.103 163.678 164.871 163.91 164.588 163.91H159.124C158.841 163.91 158.609 163.678 158.609 163.395C158.609 163.112 158.841 162.881 159.124 162.881H164.588C164.871 162.881 165.103 163.112 165.103 163.395Z" fill="#719BD8"/>
<path d="M175.94 174.154C176.223 174.154 176.454 174.385 176.454 174.668V180.133C176.454 180.416 176.223 180.647 175.94 180.647C175.657 180.647 175.426 180.416 175.426 180.133V174.668C175.426 174.385 175.657 174.154 175.94 174.154Z" fill="#719BD8"/>
<path d="M186.773 163.395C186.773 163.112 187.005 162.881 187.288 162.881H192.752C193.035 162.881 193.267 163.112 193.267 163.395C193.267 163.678 193.035 163.909 192.752 163.909H187.288C187.005 163.909 186.773 163.678 186.773 163.395Z" fill="#719BD8"/>
<path d="M210.928 149.439C206.668 149.439 203.203 145.974 203.203 141.715C203.203 137.455 206.668 133.989 210.928 133.989C215.188 133.989 218.653 137.455 218.653 141.715C218.653 145.974 215.188 149.439 210.928 149.439Z" fill="#7992B0"/>
<path d="M215.708 142.865C216.331 140.227 214.697 137.582 212.058 136.959C209.419 136.336 206.775 137.97 206.152 140.609C205.529 143.248 207.163 145.892 209.802 146.515C212.441 147.139 215.085 145.504 215.708 142.865Z" fill="#54667A"/>
<path d="M224.786 158.791L207.82 145.516L213.487 137.524L239.14 142.801L224.786 158.791Z" fill="#0775EF"/>
<path d="M245.92 141.715C245.92 141.715 229.471 139.553 220.637 155.884C220.122 156.837 220.438 158.028 221.361 158.595L227.159 162.155L245.92 141.715Z" fill="#088CFC"/>
<path d="M245.918 184.94C257.854 184.94 267.53 175.264 267.53 163.327C267.53 151.391 257.854 141.715 245.918 141.715C233.981 141.715 224.305 151.391 224.305 163.327C224.305 175.264 233.981 184.94 245.918 184.94Z" fill="#2EC6FC"/>
<path d="M259.87 177.283C267.578 169.576 267.578 157.08 259.87 149.372C252.163 141.665 239.667 141.665 231.959 149.372C224.252 157.08 224.252 169.576 231.959 177.283C239.667 184.991 252.163 184.991 259.87 177.283Z" fill="#54667A"/>
<path d="M264.718 163.329C264.718 168.765 262.397 173.671 258.696 177.1C255.339 180.219 250.847 182.126 245.918 182.126C235.553 182.126 227.121 173.694 227.121 163.329C227.121 155.354 232.11 148.525 239.131 145.797C241.237 144.979 243.524 144.529 245.918 144.529C256.283 144.529 264.718 152.961 264.718 163.329Z" fill="#E5F0F8"/>
<path d="M264.716 163.329C264.716 168.765 262.396 173.671 258.694 177.1C256.586 177.925 254.292 178.375 251.898 178.375C241.533 178.375 233.102 169.943 233.102 159.578C233.102 154.139 235.422 149.233 239.13 145.797C241.235 144.979 243.523 144.529 245.916 144.529C256.281 144.529 264.716 152.961 264.716 163.329Z" fill="white"/>
<path d="M245.931 179.147C254.631 179.147 261.683 172.095 261.683 163.396C261.683 154.696 254.631 147.644 245.931 147.644C237.232 147.644 230.18 154.696 230.18 163.396C230.18 172.095 237.232 179.147 245.931 179.147Z" stroke="#719BD8" stroke-width="0.62142" stroke-miterlimit="10"/>
<path d="M245.928 175.878C252.821 175.878 258.41 170.289 258.41 163.396C258.41 156.502 252.821 150.913 245.928 150.913C239.034 150.913 233.445 156.502 233.445 163.396C233.445 170.289 239.034 175.878 245.928 175.878Z" stroke="#719BD8" stroke-width="0.62142" stroke-miterlimit="10"/>
<path d="M254.837 163.396C254.837 168.313 250.85 172.301 245.932 172.301C243.25 172.301 240.845 171.115 239.216 169.236C237.849 167.675 237.027 165.631 237.027 163.396C237.027 158.478 241.015 154.491 245.932 154.491C250.85 154.491 254.837 158.478 254.837 163.396Z" fill="#719BD8"/>
<path d="M245.931 163.061C242.095 162.844 240.159 166.313 239.215 169.236C240.844 171.115 243.249 172.301 245.931 172.301C248.614 172.301 251.018 171.115 252.648 169.236C251.703 166.313 249.767 162.844 245.931 163.061Z" fill="#E5F0F8"/>
<path d="M249.174 160.244C249.174 162.879 247.723 165.638 245.933 165.638C244.142 165.638 242.691 162.879 242.691 160.244C242.691 157.609 244.142 156.095 245.933 156.095C247.723 156.095 249.174 157.609 249.174 160.244Z" fill="#E5F0F8" stroke="#719BD8" stroke-width="0.31071" stroke-miterlimit="10"/>
<path d="M245.932 152.501C245.649 152.501 245.418 152.269 245.418 151.986V146.522C245.418 146.239 245.649 146.007 245.932 146.007C246.215 146.007 246.447 146.239 246.447 146.522V151.986C246.447 152.269 246.215 152.501 245.932 152.501Z" fill="#719BD8"/>
<path d="M235.087 163.396C235.087 163.678 234.856 163.91 234.573 163.91H229.108C228.825 163.91 228.594 163.678 228.594 163.396C228.594 163.113 228.825 162.881 229.108 162.881H234.573C234.856 162.881 235.087 163.113 235.087 163.396Z" fill="#719BD8"/>
<path d="M245.928 174.154C246.211 174.154 246.443 174.385 246.443 174.668V180.133C246.443 180.416 246.211 180.647 245.928 180.647C245.646 180.647 245.414 180.416 245.414 180.133V174.668C245.414 174.385 245.645 174.154 245.928 174.154Z" fill="#719BD8"/>
<path d="M256.758 163.395C256.758 163.113 256.989 162.881 257.272 162.881H262.737C263.02 162.881 263.251 163.113 263.251 163.395C263.251 163.678 263.02 163.91 262.737 163.91H257.272C256.989 163.91 256.758 163.678 256.758 163.395Z" fill="#719BD8"/>
<path d="M210.928 149.439C215.188 149.439 218.653 145.974 218.653 141.715C218.653 137.455 215.188 133.989 210.928 133.989C206.668 133.989 203.203 137.455 203.203 141.715C203.203 145.974 206.668 149.439 210.928 149.439Z" fill="#2EC6FC"/>
<path d="M214.396 145.186C216.313 143.269 216.313 140.16 214.396 138.243C212.478 136.325 209.37 136.325 207.452 138.243C205.535 140.16 205.535 143.269 207.452 145.186C209.37 147.104 212.478 147.104 214.396 145.186Z" fill="#0775EF"/>
<path d="M249.248 13.3767L240.065 23.5956C238.934 22.5817 237.44 21.9656 235.805 21.9656C232.926 21.9656 230.493 23.8745 229.705 26.499L216.539 22.5356C219.035 14.2596 226.726 8.21509 235.805 8.21509C240.967 8.21509 245.68 10.1676 249.248 13.3767Z" fill="#E5F0F8"/>
<path d="M255.759 25.7156C255.123 20.8402 252.737 16.5105 249.251 13.3767L240.068 23.5956C241.169 24.59 241.926 25.9605 242.125 27.5056C242.161 27.7773 242.181 28.0562 242.181 28.3376C242.181 31.8547 239.328 34.7072 235.809 34.7072V48.4577C246.906 48.4577 255.931 39.4321 255.931 28.3376C255.931 27.4499 255.873 26.5743 255.759 25.7156Z" fill="#719BD8"/>
<path d="M229.714 30.1956C229.535 29.6085 229.438 28.9828 229.438 28.3376C229.438 27.6973 229.533 27.0811 229.707 26.499L216.541 22.5356C215.986 24.3718 215.688 26.322 215.688 28.3376C215.688 30.38 215.993 32.3543 216.563 34.2124C219.081 42.4496 226.755 48.4577 235.808 48.4577V34.7072C232.936 34.7072 230.508 32.8056 229.714 30.1956Z" fill="#A0C9E8"/>
<path opacity="0.5" d="M242.255 70.2322V96.722H218.816V63.2399C218.816 62.4348 219.376 61.7755 220.066 61.7755H240.56C241.649 64.3592 242.255 67.2267 242.255 70.2322Z" fill="#93ACBF"/>
<path d="M281.753 58.6245H223.545C222.856 58.6245 222.297 59.2788 222.297 60.0857V63.4689V93.5682H283.001V63.4689V60.0857C283.001 59.2786 282.442 58.6245 281.753 58.6245Z" fill="#719BD8"/>
<path d="M282.324 62.6526H222.977V92.7141H282.324V62.6526Z" fill="white"/>
<path d="M227.156 78.4233C227.156 78.4233 229.363 73.6603 233.567 74.5501C237.771 75.44 234.855 84.3224 239.533 85.2038C244.212 86.0854 246.789 72.3539 257.366 74.4394C267.944 76.5249 277.716 69.8799 277.716 69.8799V90.805H227.156V78.4233Z" fill="#F9ECB8"/>
<path d="M227.156 86.6956C230.312 86.4244 230.719 77.8336 235.804 77.2809C240.89 76.7283 240.212 84.5259 243.127 85.543C246.043 86.56 247.189 83.0341 252.684 83.3054C258.18 83.5766 258.722 87.7025 261.909 87.7025C265.096 87.7025 270.875 84.7971 277.716 85.3396V90.8051H227.156V86.6956Z" fill="#E7888B"/>
<path d="M227.082 87.7024H277.716" stroke="#719BD8" stroke-width="0.225389" stroke-miterlimit="10" stroke-linecap="round" stroke-linejoin="round" stroke-dasharray="1.35 1.35"/>
<path d="M227.082 81.1262H277.716" stroke="#719BD8" stroke-width="0.225389" stroke-miterlimit="10" stroke-linecap="round" stroke-linejoin="round" stroke-dasharray="1.35 1.35"/>
<path d="M227.082 77.8381H277.716" stroke="#719BD8" stroke-width="0.225389" stroke-miterlimit="10" stroke-linecap="round" stroke-linejoin="round" stroke-dasharray="1.35 1.35"/>
<path d="M277.716 84.4144H227.082" stroke="#719BD8" stroke-width="0.225389" stroke-miterlimit="10" stroke-linecap="round" stroke-linejoin="round" stroke-dasharray="1.35 1.35"/>
<path d="M227.082 74.55H277.716" stroke="#719BD8" stroke-width="0.225389" stroke-miterlimit="10" stroke-linecap="round" stroke-linejoin="round" stroke-dasharray="1.35 1.35"/>
<path d="M227.082 71.262H277.716" stroke="#719BD8" stroke-width="0.225389" stroke-miterlimit="10" stroke-linecap="round" stroke-linejoin="round" stroke-dasharray="1.35 1.35"/>
<path d="M227.082 67.9739H277.716" stroke="#719BD8" stroke-width="0.225389" stroke-miterlimit="10" stroke-linecap="round" stroke-linejoin="round" stroke-dasharray="1.35 1.35"/>
<path d="M227.156 64.5615V90.8048H278.212" stroke="#719BD8" stroke-width="0.450791" stroke-miterlimit="10" stroke-linecap="round" stroke-linejoin="round"/>
</svg>
