<svg width="50" height="50" viewBox="0 0 50 50" fill="none" xmlns="http://www.w3.org/2000/svg">
<path d="M32.2598 19.7676C32.4224 19.7676 32.5814 19.8158 32.7166 19.9062C32.8518 19.9965 32.9572 20.1249 33.0194 20.2752C33.0817 20.4254 33.098 20.5908 33.0662 20.7503C33.0345 20.9098 32.9562 21.0563 32.8412 21.1713C32.7262 21.2863 32.5797 21.3646 32.4202 21.3963C32.2607 21.428 32.0953 21.4118 31.9451 21.3495C31.7948 21.2873 31.6664 21.1819 31.5761 21.0467C31.4857 20.9114 31.4375 20.7525 31.4375 20.5898C31.4376 20.3718 31.5242 20.1627 31.6784 20.0085C31.8326 19.8543 32.0417 19.7676 32.2598 19.7676Z" fill="#F8EC7D"/>
<path d="M24.6426 2.44141V5.05859H21.1777H21.1523V2.44141H24.6426Z" fill="#6FE3FF"/>
<path d="M45.2559 38.5098C45.4276 38.5098 45.5963 38.5548 45.7453 38.6402C45.8943 38.7256 46.0184 38.8485 46.1052 38.9966C46.1921 39.1448 46.2387 39.313 46.2405 39.4848C46.2422 39.6565 46.1991 39.8257 46.1152 39.9756L43.3691 46.8594C43.2835 47.0121 43.1588 47.1392 43.0077 47.2278C42.8567 47.3164 42.6848 47.3631 42.5098 47.3633H28.4824C28.3408 47.3633 28.2008 47.3328 28.0721 47.2738C27.9433 47.2148 27.8288 47.1288 27.7363 47.0215L27.7373 47.0205L31.7188 39.3516C31.9002 39.0917 32.1417 38.8794 32.4227 38.7329C32.7038 38.5863 33.016 38.5098 33.333 38.5098H45.2559Z" fill="#E48E66"/>
<path d="M21.71 38.5098C21.8816 38.51 22.0503 38.5551 22.1992 38.6405C22.3481 38.726 22.4721 38.8488 22.559 38.9968C22.6459 39.1449 22.6927 39.313 22.6946 39.4847C22.6966 39.6564 22.6538 39.8256 22.5703 39.9756L19.8242 46.8594C19.7384 47.0122 19.6135 47.1393 19.4623 47.2279C19.3111 47.3165 19.1391 47.3632 18.9639 47.3633H4.9375C4.79574 47.3636 4.6556 47.3331 4.52679 47.2739C4.39797 47.2147 4.28354 47.1282 4.19141 47.0205L8.17285 39.3516C8.35436 39.0917 8.59587 38.8795 8.8769 38.733C9.15793 38.5864 9.47017 38.5099 9.78711 38.5098H21.71Z" fill="#E48E66"/>
<path d="M18.6602 6.58008V15.2549H16.042C15.5862 15.2557 15.1492 15.4372 14.8269 15.7595C14.5046 16.0818 14.3231 16.5188 14.3223 16.9746V5.50781C14.3231 5.05188 14.5045 4.61484 14.8268 4.29235C15.1491 3.96986 15.5861 3.78819 16.042 3.78711H18.6602V6.58008Z" fill="#6FE3FF"/>
<path d="M34.6172 18.0469V22.9082H29.9648V8.62402H34.6172V18.0469ZM33.0811 20.5898C33.0812 20.4271 33.033 20.268 32.9427 20.1327C32.8523 19.9973 32.7239 19.8918 32.5736 19.8294C32.4233 19.7671 32.2579 19.7507 32.0983 19.7823C31.9386 19.814 31.792 19.8922 31.6769 20.0072C31.5617 20.1222 31.4833 20.2688 31.4515 20.4284C31.4196 20.5879 31.4358 20.7534 31.498 20.9038C31.5602 21.0541 31.6656 21.1827 31.8008 21.2732C31.936 21.3637 32.0951 21.412 32.2578 21.4121C32.3659 21.4122 32.4729 21.391 32.5727 21.3497C32.6726 21.3085 32.7634 21.2479 32.8398 21.1716C32.9163 21.0952 32.9769 21.0045 33.0183 20.9047C33.0597 20.8049 33.081 20.6979 33.0811 20.5898Z" fill="#E48E66"/>
<path d="M24.6426 6.62988V13.585L22.8975 16.4766L21.1523 13.585V6.60449V5.05859H21.1777H24.6426V6.62988Z" fill="#E48E66"/>
<path d="M43.0869 38.3584V38.5098H33.333C33.016 38.5098 32.7038 38.5863 32.4227 38.7329C32.1417 38.8794 31.9002 39.0917 31.7188 39.3516L27.7373 47.0205L27.7363 47.0215C27.5824 46.8428 27.4979 46.6147 27.498 46.3789V33.2187C27.498 33.0894 27.5234 32.9613 27.5728 32.8418C27.6223 32.7223 27.6948 32.6137 27.7862 32.5222C27.8776 32.4307 27.9861 32.3581 28.1056 32.3086C28.225 32.259 28.3531 32.2335 28.4824 32.2334H32.4639C32.6893 32.2336 32.9079 32.3112 33.083 32.4531L34.9209 33.9385C35.0961 34.0802 35.3147 34.1574 35.54 34.1572H42.1025C42.2318 34.1572 42.3599 34.1826 42.4793 34.2321C42.5988 34.2815 42.7073 34.354 42.7987 34.4454C42.8901 34.5368 42.9626 34.6454 43.0121 34.7648C43.0615 34.8843 43.087 35.0123 43.0869 35.1416V38.3584Z" fill="#F8EC7D"/>
<path d="M34.6182 13.5098V8.62402H29.9658V19.5928H16.042C15.586 19.5919 15.149 19.4103 14.8266 19.0877C14.5043 18.7652 14.3229 18.3281 14.3223 17.8721V16.9746C14.3231 16.5188 14.5046 16.0818 14.8269 15.7595C15.1492 15.4372 15.5862 15.2557 16.042 15.2549H18.6602V6.58008L21.0781 6.60449H21.1523V13.585L22.8975 16.4766L24.6426 13.585V6.62988H24.7422L36.9453 6.67969V19.5928H34.6182V13.5098Z" fill="#F8EC7D"/>
<path d="M11.8066 34.1377C11.8686 34.151 11.9318 34.1576 11.9951 34.1572H18.5586C18.6879 34.1572 18.8159 34.1826 18.9354 34.2321C19.0548 34.2815 19.1633 34.354 19.2548 34.4454C19.3462 34.5368 19.4187 34.6454 19.4681 34.7648C19.5176 34.8843 19.543 35.0123 19.543 35.1416V38.5098H9.78809C9.47114 38.5099 9.15891 38.5864 8.87788 38.733C8.59685 38.8795 8.35533 39.0917 8.17383 39.3516L4.19238 47.0205C4.03781 46.8425 3.95283 46.6146 3.95313 46.3789V33.2187C3.9532 32.9574 4.05704 32.7069 4.24181 32.5221C4.42659 32.3373 4.67717 32.2335 4.93848 32.2334H8.91992C9.14535 32.2337 9.36386 32.3113 9.53906 32.4531L11.376 33.9385C11.5008 34.0396 11.6488 34.108 11.8066 34.1377Z" fill="#F8EC7D"/>
<path d="M24.6836 19.9531H25.8555V25.5742H24.6836V19.9531Z" fill="#E48E66"/>
<path d="M13.2246 26.5039H23.8027V27.6758H13.2246V26.5039Z" fill="#E48E66"/>
<path d="M11.2207 28.5576H12.3926V34.1572H11.2207V28.5576Z" fill="#E48E66"/>
<path d="M26.7383 26.5039H37.3174V27.6758H26.7383V26.5039Z" fill="#E48E66"/>
<path d="M38.1484 28.5576H39.3203V34.1572H38.1484V28.5576Z" fill="#E48E66"/>
<path d="M34.6279 18.6328H33.0078C32.8524 18.6328 32.7034 18.5711 32.5935 18.4612C32.4836 18.3513 32.4219 18.2023 32.4219 18.0469C32.4219 17.8915 32.4836 17.7424 32.5935 17.6326C32.7034 17.5227 32.8524 17.4609 33.0078 17.4609H34.6191C34.775 17.4608 34.9246 17.5223 35.0352 17.6321C35.1458 17.7419 35.2085 17.891 35.2095 18.0469C35.21 18.1236 35.1953 18.1996 35.1663 18.2707C35.1373 18.3417 35.0945 18.4063 35.0405 18.4607C34.9865 18.5152 34.9222 18.5584 34.8514 18.5879C34.7806 18.6175 34.7046 18.6327 34.6279 18.6328Z" fill="#F8EC7D"/>
<path d="M34.6279 16.3643H33.0078C32.8524 16.3643 32.7034 16.3025 32.5935 16.1926C32.4836 16.0828 32.4219 15.9337 32.4219 15.7783C32.4219 15.6229 32.4836 15.4739 32.5935 15.364C32.7034 15.2541 32.8524 15.1924 33.0078 15.1924H34.6191C34.775 15.1922 34.9246 15.2538 35.0352 15.3636C35.1458 15.4734 35.2085 15.6225 35.2095 15.7783C35.21 15.855 35.1953 15.9311 35.1663 16.0021C35.1373 16.0732 35.0946 16.1378 35.0405 16.1922C34.9865 16.2467 34.9222 16.2899 34.8514 16.3194C34.7806 16.3489 34.7046 16.3642 34.6279 16.3643Z" fill="#F8EC7D"/>
<path d="M34.6279 14.0957H33.0078C32.8524 14.0957 32.7034 14.034 32.5935 13.9241C32.4836 13.8142 32.4219 13.6652 32.4219 13.5098C32.4219 13.3544 32.4836 13.2053 32.5935 13.0954C32.7034 12.9856 32.8524 12.9238 33.0078 12.9238H34.6191C34.775 12.9236 34.9246 12.9852 35.0352 13.095C35.1458 13.2048 35.2085 13.3539 35.2095 13.5098C35.21 13.5865 35.1953 13.6625 35.1663 13.7336C35.1373 13.8046 35.0945 13.8692 35.0405 13.9236C34.9865 13.9781 34.9222 14.0213 34.8514 14.0508C34.7806 14.0804 34.7046 14.0956 34.6279 14.0957Z" fill="#F8EC7D"/>
<path d="M34.6279 11.8027H33.0078C32.8524 11.8027 32.7034 11.741 32.5935 11.6311C32.4836 11.5212 32.4219 11.3722 32.4219 11.2168C32.4219 11.0614 32.4836 10.9124 32.5935 10.8025C32.7034 10.6926 32.8524 10.6309 33.0078 10.6309H34.6191C34.775 10.6307 34.9246 10.6922 35.0352 10.802C35.1458 10.9118 35.2085 11.0609 35.2095 11.2168C35.21 11.2935 35.1953 11.3696 35.1663 11.4406C35.1373 11.5116 35.0946 11.5762 35.0405 11.6307C34.9865 11.6851 34.9222 11.7284 34.8514 11.7579C34.7806 11.7874 34.7046 11.8027 34.6279 11.8027Z" fill="#F8EC7D"/>
<path d="M25.2705 25.0361C24.8643 25.0361 24.4673 25.1566 24.1295 25.3822C23.7918 25.6079 23.5286 25.9287 23.3731 26.3039C23.2177 26.6792 23.177 27.0921 23.2563 27.4905C23.3355 27.8889 23.5311 28.2548 23.8183 28.542C24.1055 28.8293 24.4715 29.0249 24.8698 29.1041C25.2682 29.1833 25.6812 29.1427 26.0564 28.9872C26.4317 28.8318 26.7524 28.5686 26.9781 28.2308C27.2038 27.8931 27.3242 27.496 27.3242 27.0898C27.3236 26.5454 27.107 26.0233 26.722 25.6383C26.337 25.2533 25.815 25.0368 25.2705 25.0361Z" fill="#6FE3FF"/>
<path d="M11.8057 25.0361C11.3995 25.0361 11.0024 25.1566 10.6647 25.3822C10.327 25.6079 10.0637 25.9287 9.90828 26.3039C9.75284 26.6792 9.71217 27.0921 9.79142 27.4905C9.87066 27.8889 10.0663 28.2548 10.3535 28.542C10.6407 28.8293 11.0066 29.0249 11.405 29.1041C11.8034 29.1833 12.2163 29.1427 12.5916 28.9872C12.9669 28.8318 13.2876 28.5686 13.5133 28.2308C13.7389 27.8931 13.8594 27.496 13.8594 27.0898C13.8587 26.5454 13.6422 26.0234 13.2571 25.6384C12.8721 25.2534 12.3501 25.0368 11.8057 25.0361Z" fill="#6FE3FF"/>
<path d="M38.7334 25.0361C38.3272 25.0361 37.9301 25.1566 37.5924 25.3822C37.2547 25.6079 36.9915 25.9287 36.836 26.3039C36.6806 26.6792 36.6399 27.0921 36.7192 27.4905C36.7984 27.8889 36.994 28.2548 37.2812 28.542C37.5684 28.8293 37.9344 29.0249 38.3327 29.1041C38.7311 29.1833 39.1441 29.1427 39.5193 28.9872C39.8946 28.8318 40.2153 28.5686 40.441 28.2308C40.6667 27.8931 40.7871 27.496 40.7871 27.0898C40.7865 26.5454 40.5699 26.0233 40.1849 25.6383C39.7999 25.2533 39.2779 25.0368 38.7334 25.0361Z" fill="#6FE3FF"/>
</svg>
