<svg width="76" height="76" viewBox="0 0 76 76" fill="none" xmlns="http://www.w3.org/2000/svg">
<rect width="76" height="76" rx="38" fill="url(#paint0_linear_14314_28965)"/>
<path d="M55.8025 38.2623C55.0792 38.2624 54.3629 38.1193 53.6951 37.8415C53.0272 37.5636 52.4209 37.1564 51.911 36.6433C51.4012 36.1302 50.9978 35.5213 50.7241 34.8517C50.4505 34.1821 50.312 33.465 50.3165 32.7417V29.197C50.312 28.526 50.4402 27.8608 50.6938 27.2395C50.9474 26.6183 51.3214 26.0534 51.7943 25.5773C52.2671 25.1012 52.8295 24.7234 53.449 24.4656C54.0685 24.2077 54.7329 24.075 55.4039 24.075H56.2012C56.87 24.075 57.5322 24.2069 58.15 24.4631C58.7678 24.7193 59.329 25.0948 59.8015 25.5681C60.2741 26.0414 60.6486 26.6033 60.9038 27.2215C61.1589 27.8397 61.2897 28.5022 61.2885 29.171V32.7417C61.2919 33.4647 61.1526 34.1813 60.8786 34.8504C60.6045 35.5195 60.2011 36.1279 59.6915 36.6407C59.1818 37.1536 58.5759 37.5609 57.9086 37.8391C57.2413 38.1174 56.5256 38.2612 55.8025 38.2623Z" fill="#FCD0AE"/>
<path d="M57.9834 40.9578H53.5981C52.1584 40.9578 50.7775 41.5291 49.7587 42.5463C48.7399 43.5635 48.1664 44.9435 48.1641 46.3832V51.5832C48.1641 51.6958 48.2088 51.8038 48.2884 51.8834C48.3681 51.9631 48.4761 52.0078 48.5887 52.0078H62.9841C63.0967 52.0078 63.2047 51.9631 63.2843 51.8834C63.364 51.8038 63.4087 51.6958 63.4087 51.5832V46.3832C63.4087 44.9443 62.8371 43.5643 61.8197 42.5469C60.8022 41.5294 59.4223 40.9578 57.9834 40.9578Z" fill="#ECEFF1"/>
<path d="M56.2019 24.075H55.3959C54.7271 24.075 54.0649 24.2069 53.4471 24.4631C52.8293 24.7193 52.2681 25.0948 51.7956 25.5681C51.3231 26.0414 50.9485 26.6033 50.6934 27.2215C50.4382 27.8397 50.3075 28.5022 50.3086 29.171V30.1417C52.8393 30.8957 56.7826 29.639 57.8919 28.0443C58.2906 29.275 59.9633 30.055 61.2893 30.419V29.197C61.2938 28.526 61.1656 27.8608 60.912 27.2395C60.6584 26.6183 60.2844 26.0534 59.8115 25.5773C59.3387 25.1012 58.7763 24.7234 58.1568 24.4656C57.5373 24.2077 56.8729 24.075 56.2019 24.075Z" fill="#FCAB29"/>
<path d="M56.5016 40.9578H55.1063L53.7109 46.8425L55.7996 49.0438L57.8883 46.8425L56.5016 40.9578Z" fill="#E30E08"/>
<path d="M20.3377 38.2625C19.6143 38.2625 18.8981 38.1194 18.2302 37.8416C17.5624 37.5637 16.9561 37.1565 16.4462 36.6434C15.9363 36.1303 15.5329 35.5214 15.2593 34.8518C14.9856 34.1822 14.8471 33.4651 14.8517 32.7418V29.1971C14.8471 28.5261 14.9753 27.8609 15.2289 27.2396C15.4826 26.6184 15.8566 26.0535 16.3294 25.5774C16.8023 25.1013 17.3646 24.7235 17.9841 24.4657C18.6036 24.2078 19.268 24.0751 19.939 24.0751H20.745C21.4189 24.0705 22.087 24.1999 22.7106 24.4556C23.3341 24.7114 23.9005 25.0885 24.3771 25.5651C24.8536 26.0416 25.2307 26.6081 25.4865 27.2316C25.7423 27.8551 25.8716 28.5232 25.867 29.1971V32.7418C25.8705 33.4685 25.7297 34.1886 25.453 34.8606C25.1762 35.5325 24.7689 36.1428 24.2547 36.6563C23.7404 37.1697 23.1294 37.576 22.4571 37.8518C21.7847 38.1275 21.0644 38.2671 20.3377 38.2625Z" fill="#FCD0AE"/>
<path d="M22.523 40.9579H18.1897C17.4751 40.9545 16.7668 41.0923 16.1055 41.3634C15.4443 41.6345 14.8431 42.0336 14.3366 42.5377C13.8301 43.0418 13.4281 43.6411 13.1538 44.301C12.8796 44.9609 12.7384 45.6686 12.7384 46.3832V51.5832C12.7372 51.6386 12.7471 51.6936 12.7675 51.7451C12.7879 51.7966 12.8184 51.8434 12.8571 51.883C12.8959 51.9225 12.9421 51.954 12.9931 51.9754C13.0442 51.9969 13.099 52.0079 13.1544 52.0079H27.5324C27.5877 52.0079 27.6426 51.9969 27.6936 51.9754C27.7446 51.954 27.7909 51.9225 27.8296 51.883C27.8684 51.8434 27.8988 51.7966 27.9192 51.7451C27.9396 51.6936 27.9495 51.6386 27.9484 51.5832V46.3832C27.9484 45.6708 27.808 44.9653 27.5354 44.307C27.2627 43.6488 26.8631 43.0507 26.3593 42.5469C25.8555 42.0431 25.2575 41.6435 24.5992 41.3709C23.941 41.0982 23.2355 40.9579 22.523 40.9579Z" fill="#ECEFF1"/>
<path d="M21.0407 40.9578H19.6453L18.25 46.8425L20.3473 49.0438L22.436 46.8425L21.0407 40.9578Z" fill="#E30E08"/>
<path d="M41.1292 41.7375H35.0625C33.9726 41.6699 32.8811 41.8414 31.8645 42.2402C30.5421 42.8515 29.4232 43.83 28.6411 45.0593C27.859 46.2885 27.4467 47.7166 27.4532 49.1735V56.1068C27.4643 56.369 27.5758 56.6168 27.7645 56.7991C27.9532 56.9814 28.2048 57.0842 28.4672 57.0862H47.7159C47.8498 57.0862 47.9823 57.0597 48.1059 57.0082C48.2295 56.9567 48.3417 56.8812 48.436 56.7861C48.5302 56.691 48.6047 56.5782 48.6552 56.4542C48.7056 56.3302 48.731 56.1974 48.7299 56.0635V49.1302C48.7401 47.6747 48.3312 46.247 47.5521 45.0176C46.7729 43.7882 45.6564 42.8089 44.3359 42.1968C43.3141 41.8085 42.2189 41.6517 41.1292 41.7375Z" fill="#006EE5"/>
<path d="M41.1286 41.7377H39.5859C41.1051 41.6655 42.596 42.1666 43.7633 43.1417C44.5925 43.898 45.2527 44.8208 45.7008 45.8498C46.1488 46.8788 46.3746 47.9908 46.3633 49.113V56.0464C46.378 56.2956 46.2962 56.5409 46.1348 56.7313C45.9734 56.9218 45.7449 57.0427 45.4966 57.069H47.7846C47.9185 57.069 48.0511 57.0425 48.1747 56.991C48.2983 56.9395 48.4104 56.864 48.5047 56.769C48.599 56.6739 48.6735 56.5611 48.7239 56.4371C48.7744 56.313 48.7997 56.1802 48.7986 56.0464V49.113C48.8088 47.6575 48.3999 46.2299 47.6208 45.0004C46.8417 43.771 45.7252 42.7918 44.4046 42.1797C43.36 41.787 42.24 41.6359 41.1286 41.7377Z" fill="#0062BA"/>
<path d="M38.0686 53.6457L44.3173 42.2751C43.3183 41.8106 42.2296 41.571 41.1279 41.5731H35.0613C33.9569 41.5711 32.8654 41.8107 31.8633 42.2751L38.0686 53.6457Z" fill="#EBEEF2"/>
<path d="M39.1882 44.3377C39.7481 44.1143 40.2282 43.7281 40.5665 43.2291C40.9048 42.7302 41.0858 42.1412 41.0862 41.5384H35.0195C35.0199 42.1412 35.2009 42.7302 35.5392 43.2291C35.8775 43.7281 36.3576 44.1143 36.9175 44.3377L35.9209 49.8064L38.0269 53.6457L40.1329 49.8064L39.1882 44.3377Z" fill="#E30E08"/>
<path d="M38.0515 38.5658C37.1137 38.5658 36.1851 38.3811 35.3186 38.0222C34.4522 37.6633 33.6649 37.1373 33.0018 36.4741C31.6626 35.1349 30.9102 33.3184 30.9102 31.4244V26.8311C30.909 25.9665 31.0783 25.1102 31.4084 24.3112C31.7385 23.5121 32.2228 22.7859 32.8337 22.1742C33.4447 21.5624 34.1702 21.0771 34.9689 20.746C35.7675 20.4149 36.6236 20.2444 37.4882 20.2444H38.6148C39.4794 20.2444 40.3355 20.4149 41.1341 20.746C41.9328 21.0771 42.6583 21.5624 43.2692 22.1742C43.8802 22.7859 44.3645 23.5121 44.6946 24.3112C45.0247 25.1102 45.194 25.9665 45.1928 26.8311V31.4244C45.1928 33.3184 44.4404 35.1349 43.1012 36.4741C41.7619 37.8134 39.9455 38.5658 38.0515 38.5658Z" fill="#FCD0AE"/>
<path d="M38.6152 20.2444H37.3672C38.7811 20.2761 40.1266 20.8595 41.1161 21.8701C42.1056 22.8806 42.6606 24.2381 42.6625 25.6524V32.6811C42.66 34.1343 42.1207 35.5353 41.1481 36.6151C40.1755 37.6948 38.8382 38.3772 37.3932 38.5311C37.6099 38.5311 37.8265 38.5311 38.0519 38.5311C39.9459 38.5311 41.7623 37.7787 43.1015 36.4394C44.4408 35.1001 45.1932 33.2837 45.1932 31.3897V26.7964C45.1863 25.0563 44.4902 23.3898 43.2574 22.1618C42.0245 20.9338 40.3553 20.2444 38.6152 20.2444Z" fill="#E59F6A"/>
<path d="M38.6148 20.2444H37.4882C35.7606 20.2465 34.1031 20.9272 32.8726 22.1398C31.6422 23.3524 30.9374 24.9998 30.9102 26.7271C32.1054 28.0476 33.6267 29.0308 35.3215 29.5784C34.6448 28.3508 34.392 26.9343 34.6022 25.5484C35.7982 27.1604 41.3102 29.8038 45.1928 30.7484V26.8311C45.194 25.9665 45.0247 25.1102 44.6946 24.3112C44.3645 23.5121 43.8802 22.7859 43.2692 22.1742C42.6583 21.5624 41.9328 21.0771 41.1341 20.746C40.3355 20.4149 39.4794 20.2444 38.6148 20.2444Z" fill="#495256"/>
<path d="M38.6152 20.2444H37.3672C38.7811 20.2761 40.1266 20.8595 41.1161 21.8701C42.1056 22.8806 42.6606 24.2381 42.6625 25.6524V29.9857C43.5292 30.2977 44.3959 30.5664 45.1932 30.7657V26.8311C45.1943 25.9665 45.025 25.1102 44.695 24.3111C44.3649 23.512 43.8805 22.7858 43.2696 22.1741C42.6587 21.5624 41.9331 21.0771 41.1345 20.7459C40.3358 20.4148 39.4798 20.2444 38.6152 20.2444Z" fill="#2E344C"/>
<path d="M14.8516 29.197H23.4489C24.6235 29.197 25.7499 28.7304 26.5804 27.8999C27.411 27.0694 27.8776 25.9429 27.8776 24.7684V22.983H19.2716C18.6904 22.983 18.1149 23.0976 17.5781 23.3203C17.0413 23.543 16.5536 23.8693 16.1431 24.2807C15.7325 24.692 15.4071 25.1803 15.1855 25.7176C14.9639 26.2548 14.8504 26.8305 14.8516 27.4117V29.197Z" fill="#FCAB29"/>
<defs>
<linearGradient id="paint0_linear_14314_28965" x1="38" y1="0" x2="38" y2="76" gradientUnits="userSpaceOnUse">
<stop stop-color="#002548"/>
<stop offset="1" stop-color="#0054A6"/>
</linearGradient>
</defs>
</svg>
