<svg width="114" height="114" viewBox="0 0 114 114" fill="none" xmlns="http://www.w3.org/2000/svg">
<path fill-rule="evenodd" clip-rule="evenodd" d="M72.7197 113.994C71.3499 72.4982 61.765 81.5367 42.3271 67.8977H32.1192C28.6958 70.2713 25.0748 72.3464 21.2961 74.1C9.05848 79.9603 2.80317 81.0894 1.71973 113.994H72.7197Z" fill="#D5E3F2"/>
<path fill-rule="evenodd" clip-rule="evenodd" d="M29.459 58.2362H44.9864V75.788C44.9796 77.8458 44.1591 79.8174 42.704 81.2726C41.2489 82.7277 39.2773 83.5483 37.2194 83.5551C35.1623 83.5481 33.1914 82.7273 31.7374 81.272C30.2834 79.8167 29.4643 77.8452 29.459 75.788V58.2362Z" fill="#F5AD65"/>
<path fill-rule="evenodd" clip-rule="evenodd" d="M30.1271 114L33.8904 89.2455L29.1797 79.7786H45.265L40.5478 89.2455L44.3112 114H30.1271Z" fill="#FB4455"/>
<path fill-rule="evenodd" clip-rule="evenodd" d="M33.8904 89.2455L29.1797 79.7786H45.265L40.5478 89.2455H33.8904Z" fill="#E82E41"/>
<path fill-rule="evenodd" clip-rule="evenodd" d="M14.6191 41.0605H59.787V25.6368C59.787 17.1561 52.9089 10.4661 44.6553 12.4128C42.1506 13.0033 39.7174 11.8613 37.9328 10.9656C25.9539 4.95719 14.6191 14.5281 14.6191 25.6366V41.0605Z" fill="#AC611D"/>
<path fill-rule="evenodd" clip-rule="evenodd" d="M21.8998 34.4485C22.9855 35.0638 23.8643 35.9872 24.4251 37.102C24.9859 38.2168 25.2034 39.4729 25.0503 40.7114C24.8971 41.9498 24.3801 43.1151 23.5646 44.0597C22.7491 45.0042 21.6718 45.6858 20.469 46.018C19.2661 46.3503 17.9917 46.3184 16.807 45.9263C15.6223 45.5342 14.5805 44.7996 13.8134 43.8153C13.0462 42.8311 12.5882 41.6414 12.4972 40.3968C12.4063 39.1522 12.6865 37.9086 13.3024 36.8233C13.7108 36.1027 14.2572 35.4697 14.9104 34.9603C15.5636 34.4509 16.3107 34.0752 17.1091 33.8547C17.9075 33.6341 18.7415 33.5731 19.5635 33.675C20.3856 33.7768 21.1794 34.0397 21.8998 34.4485ZM58.7686 34.4485C59.8543 35.0638 60.7331 35.9872 61.2938 37.102C61.8546 38.2168 62.0722 39.4729 61.919 40.7114C61.7658 41.9498 61.2488 43.1151 60.4333 44.0597C59.6179 45.0042 58.5406 45.6858 57.3377 46.018C56.1349 46.3503 54.8605 46.3184 53.6758 45.9263C52.4911 45.5342 51.4493 44.7996 50.6821 43.8153C49.915 42.8311 49.457 41.6414 49.366 40.3968C49.2751 39.1522 49.5553 37.9086 50.1712 36.8233C50.5796 36.1027 51.126 35.4697 51.7792 34.9603C52.4323 34.4509 53.1795 34.0752 53.9779 33.8547C54.7763 33.6341 55.6103 33.5731 56.4323 33.675C57.2543 33.7768 58.0482 34.0397 58.7686 34.4485Z" fill="#F5AD65"/>
<path fill-rule="evenodd" clip-rule="evenodd" d="M37.2197 79.7777L27.9795 84.8908L23.3467 73.1009C25.3778 72.0691 27.5188 70.8881 29.459 69.6682L37.2197 79.7777Z" fill="#B7CFE8"/>
<path fill-rule="evenodd" clip-rule="evenodd" d="M37.2197 79.7777L46.46 84.8908L51.0928 73.0942C49.0552 72.0627 46.914 70.8817 44.9869 69.6682L37.2197 79.7777Z" fill="#B7CFE8"/>
<path fill-rule="evenodd" clip-rule="evenodd" d="M44.9864 67.171C42.5661 68.683 39.9321 69.6108 37.2194 69.6369H37.1869C34.4941 69.6108 31.8655 68.6895 29.459 67.1841V58.2362H44.9864V67.171Z" fill="#E89F56"/>
<path fill-rule="evenodd" clip-rule="evenodd" d="M20.5236 28.9073C17.8439 41.2293 18.525 46.0051 19.6216 50.826C21.3995 58.6515 29.2118 67.9499 37.2061 68.0276C45.1995 67.9499 53.0125 58.6515 54.7904 50.826C55.887 46.0051 56.5683 41.2295 53.8819 28.9073C45.2001 30.2504 37.2773 29.1077 31.7296 22.8079C28.1349 27.1813 25.2604 28.0247 20.5236 28.9073Z" fill="#FBBD80"/>
<path fill-rule="evenodd" clip-rule="evenodd" d="M71.3048 0H109.725C110.403 0.00392942 111.052 0.275425 111.531 0.755414C112.01 1.2354 112.28 1.88505 112.282 2.563V29.6404C112.279 30.3176 112.009 30.9662 111.53 31.445C111.051 31.9237 110.403 32.1937 109.725 32.1961H92.3412L85.5279 36.1282L78.7213 40.0603V32.1961H71.3046C70.6269 32.195 69.9772 31.9253 69.498 31.4461C69.0188 30.9669 68.7491 30.3173 68.748 29.6396V2.563C68.7492 1.88467 69.0187 1.23435 69.4978 0.754114C69.9768 0.273879 70.6265 0.00276418 71.3048 0Z" fill="#69A7FF"/>
<path d="M74.5035 9.69404C74.0783 9.69404 73.6706 9.52514 73.3699 9.2245C73.0693 8.92385 72.9004 8.51609 72.9004 8.09092C72.9004 7.66574 73.0693 7.25798 73.3699 6.95734C73.6706 6.65669 74.0783 6.48779 74.5035 6.48779H90.5112C90.9363 6.48779 91.3441 6.65669 91.6447 6.95734C91.9454 7.25798 92.1143 7.66574 92.1143 8.09092C92.1143 8.51609 91.9454 8.92385 91.6447 9.2245C91.3441 9.52514 90.9363 9.69404 90.5112 9.69404H74.5035ZM74.5035 25.7084C74.0783 25.7084 73.6706 25.5395 73.3699 25.2388C73.0693 24.9382 72.9004 24.5304 72.9004 24.1052C72.9004 23.6801 73.0693 23.2723 73.3699 22.9717C73.6706 22.671 74.0783 22.5021 74.5035 22.5021H106.519C106.944 22.5021 107.352 22.671 107.653 22.9717C107.953 23.2723 108.122 23.6801 108.122 24.1052C108.122 24.5304 107.953 24.9382 107.653 25.2388C107.352 25.5395 106.944 25.7084 106.519 25.7084H74.5035ZM74.5035 17.7012C74.0783 17.7012 73.6706 17.5323 73.3699 17.2317C73.0693 16.931 72.9004 16.5233 72.9004 16.0981C72.9004 15.6729 73.0693 15.2651 73.3699 14.9645C73.6706 14.6639 74.0783 14.495 74.5035 14.495H106.519C106.944 14.495 107.352 14.6639 107.653 14.9645C107.953 15.2651 108.122 15.6729 108.122 16.0981C108.122 16.5233 107.953 16.931 107.653 17.2317C107.352 17.5323 106.944 17.7012 106.519 17.7012H74.5035Z" fill="#D5E3F2"/>
<path fill-rule="evenodd" clip-rule="evenodd" d="M70.8574 69.0657C70.8574 65.2255 72.3829 61.5426 75.0984 58.8271C77.8138 56.1117 81.4968 54.5862 85.337 54.5862C89.1772 54.5862 92.8601 56.1117 95.5756 58.8271C98.291 61.5426 99.8165 65.2255 99.8165 69.0657C99.8165 78.7339 90.3365 81.1932 90.3365 91.1143C90.3326 92.4382 89.805 93.7067 88.8689 94.6429C87.9328 95.5791 86.6642 96.1067 85.3403 96.1107C84.0154 96.1081 82.7454 95.5811 81.8079 94.6448C80.8704 93.7085 80.3418 92.4392 80.3375 91.1143C80.3375 81.1867 70.8574 78.7404 70.8574 69.0657Z" fill="#FFD23B"/>
<path d="M86.9348 73.0313V87.5708C86.9348 87.995 86.7662 88.4019 86.4663 88.7018C86.1663 89.0018 85.7594 89.1703 85.3352 89.1703C84.911 89.1703 84.5041 89.0018 84.2041 88.7018C83.9042 88.4019 83.7356 87.995 83.7356 87.5708V73.0313C82.5084 72.6831 81.4282 71.9442 80.6589 70.9266C79.8896 69.909 79.4731 68.6682 79.4727 67.3925C79.4727 66.9674 79.6416 66.5596 79.9422 66.259C80.2428 65.9583 80.6506 65.7894 81.0758 65.7894C81.501 65.7894 81.9087 65.9583 82.2094 66.259C82.51 66.5596 82.6789 66.9674 82.6789 67.3925C82.6757 67.7435 82.742 68.0917 82.8741 68.4169C83.0062 68.742 83.2014 69.0378 83.4485 69.2872C83.6955 69.5365 83.9895 69.7344 84.3135 69.8695C84.6375 70.0045 84.985 70.0741 85.336 70.0741C85.687 70.0741 86.0345 70.0045 86.3584 69.8695C86.6824 69.7344 86.9764 69.5365 87.2235 69.2872C87.4705 69.0378 87.6657 68.742 87.7978 68.4169C87.9299 68.0917 87.9963 67.7435 87.993 67.3925C87.993 66.9674 88.1619 66.5596 88.4626 66.259C88.7632 65.9583 89.171 65.7894 89.5962 65.7894C90.0213 65.7894 90.4291 65.9583 90.7297 66.259C91.0304 66.5596 91.1993 66.9674 91.1993 67.3925C91.1989 68.6685 90.7822 69.9094 90.0126 70.9271C89.243 71.9447 88.1623 72.6835 86.9348 73.0313Z" fill="#E8BD31"/>
<path d="M76.5653 50.7351C76.6733 50.9171 76.744 51.1189 76.7733 51.3285C76.8026 51.5381 76.7899 51.7515 76.736 51.9562C76.6821 52.1609 76.5881 52.3528 76.4593 52.5208C76.3306 52.6889 76.1698 52.8296 75.9862 52.935C75.8025 53.0403 75.5998 53.108 75.3898 53.1343C75.1798 53.1606 74.9666 53.1449 74.7627 53.088C74.5588 53.0312 74.3682 52.9344 74.2021 52.8033C74.0359 52.6721 73.8975 52.5093 73.7948 52.3242L72.9189 50.8123C72.8145 50.6304 72.747 50.4297 72.7201 50.2217C72.6933 50.0137 72.7077 49.8024 72.7626 49.6C72.8733 49.1911 73.1419 48.843 73.5093 48.6322C73.8767 48.4214 74.3127 48.3651 74.7216 48.4758C75.1305 48.5866 75.4786 48.8552 75.6894 49.2226L76.5653 50.7351ZM96.6545 52.4611C96.5508 52.644 96.412 52.8045 96.246 52.9336C96.0801 53.0626 95.8902 53.1575 95.6875 53.2129C95.4847 53.2683 95.2729 53.283 95.0644 53.2562C94.8559 53.2295 94.6548 53.1617 94.4725 53.0569C94.2903 52.9521 94.1306 52.8123 94.0026 52.6456C93.8746 52.4788 93.7809 52.2884 93.7267 52.0853C93.6726 51.8821 93.6592 51.6703 93.6873 51.462C93.7153 51.2536 93.7843 51.0529 93.8902 50.8713L94.9868 48.9703C95.1999 48.6084 95.5473 48.3452 95.9533 48.2379C96.3594 48.1306 96.7914 48.1878 97.1555 48.3972C97.5196 48.6066 97.7864 48.9511 97.8979 49.3561C98.0094 49.761 97.9567 50.1936 97.7511 50.5598L96.6545 52.4611ZM86.863 48.9117C86.8655 49.1234 86.8259 49.3334 86.7467 49.5296C86.6674 49.7259 86.55 49.9044 86.4012 50.055C86.2525 50.2055 86.0753 50.325 85.88 50.4066C85.6847 50.4882 85.4752 50.5302 85.2635 50.5302C85.0519 50.5302 84.8423 50.4882 84.647 50.4066C84.4517 50.325 84.2746 50.2055 84.1258 50.055C83.977 49.9044 83.8596 49.7259 83.7803 49.5296C83.7011 49.3334 83.6616 49.1234 83.6641 48.9117V46.9782C83.6616 46.7665 83.7011 46.5565 83.7803 46.3603C83.8596 46.164 83.977 45.9855 84.1258 45.8349C84.2746 45.6844 84.4517 45.5649 84.647 45.4833C84.8423 45.4017 85.0519 45.3597 85.2635 45.3597C85.4752 45.3597 85.6847 45.4017 85.88 45.4833C86.0753 45.5649 86.2525 45.6844 86.4012 45.8349C86.55 45.9855 86.6674 46.164 86.7467 46.3603C86.8259 46.5565 86.8655 46.7665 86.863 46.9782V48.9117Z" fill="#FFD23B"/>
<path fill-rule="evenodd" clip-rule="evenodd" d="M90.783 87.5707C90.48 88.727 90.3294 89.918 90.3353 91.1134C90.3314 92.4373 89.8038 93.7058 88.8676 94.642C87.9315 95.5782 86.663 96.1058 85.3391 96.1098C84.0141 96.1072 82.7441 95.5802 81.8066 94.6439C80.8692 93.7076 80.3405 92.4383 80.3362 91.1134C80.3421 89.918 80.1916 88.727 79.8887 87.5707H90.783Z" fill="#4D6C8F"/>
<path fill-rule="evenodd" clip-rule="evenodd" d="M82.0182 87.5707H79.8965C80.1944 88.7279 80.3427 89.9185 80.3376 91.1134C80.3419 92.4383 80.8705 93.7077 81.808 94.6439C82.7455 95.5802 84.0155 96.1072 85.3404 96.1098C85.6959 96.1095 86.0503 96.0722 86.398 95.9985C85.2859 95.7503 84.2911 95.1316 83.5766 94.2439C82.8622 93.3561 82.4706 92.252 82.4659 91.1125C82.4722 89.9171 82.3216 88.7261 82.0182 87.5698V87.5707Z" fill="#426082"/>
<path fill-rule="evenodd" clip-rule="evenodd" d="M79.8955 87.5707H82.0172C80.1485 80.4201 72.9774 77.4741 72.9774 69.0648C72.9771 65.4078 74.3604 61.8862 76.8494 59.207C79.3384 56.5278 82.7489 54.8894 86.396 54.6209C86.0455 54.595 85.6951 54.5819 85.3384 54.5819C83.4364 54.5816 81.5529 54.956 79.7956 55.6837C78.0383 56.4114 76.4416 57.4782 75.0967 58.8231C73.7518 60.1681 72.685 61.7648 71.9573 63.5221C71.2295 65.2794 70.8551 67.1628 70.8555 69.0648C70.8555 77.4741 78.019 80.4203 79.8953 87.5707H79.8955Z" fill="#E8BD31"/>
<path fill-rule="evenodd" clip-rule="evenodd" d="M80.8749 32.197H78.7207V40.0612L80.8749 38.8155V32.197Z" fill="#5F96E6"/>
<path fill-rule="evenodd" clip-rule="evenodd" d="M70.9011 29.6404V2.563C70.9037 1.884 71.1746 1.23356 71.6547 0.753457C72.1349 0.273354 72.7854 0.00252187 73.4644 0L71.3046 0C70.6263 0.00282285 69.9767 0.273963 69.4977 0.754192C69.0187 1.23442 68.7492 1.88471 68.748 2.563V29.6404C68.7493 30.3178 69.019 30.9671 69.4979 31.4461C69.9769 31.925 70.6261 32.1947 71.3035 32.1961H73.4632C72.7849 32.195 72.1346 31.9256 71.6543 31.4465C71.174 30.9675 70.9028 30.3179 70.9 29.6396L70.9011 29.6404Z" fill="#5F96E6"/>
<path fill-rule="evenodd" clip-rule="evenodd" d="M4.8928 113.994C6.02835 82.0755 12.1665 80.622 24.0733 74.951L23.3465 73.1018C22.6456 73.452 21.9578 73.7829 21.2961 74.1009C9.05848 79.9603 2.80317 81.0894 1.71973 113.994H4.8928Z" fill="#B7CFE8"/>
</svg>
