<svg width="48" height="48" viewBox="0 0 48 48" fill="none" xmlns="http://www.w3.org/2000/svg">
<g id="your-personal-assistant-to_deep-cloud-integration 1" clip-path="url(#clip0_6034_12865)">
<g id="Group">
<path id="Vector" d="M47.8996 21.1C47.8996 25.6 44.8996 29.3 40.8996 30.5V25.5C40.8996 22.9 38.7996 20.8 36.1996 20.8H11.7996C9.19961 20.8 7.09961 22.9 7.09961 25.5V30.5C2.99961 29.3 0.0996094 25.5 0.0996094 21.1C0.0996094 18.7 0.999609 16.3 2.59961 14.5C3.89961 13 5.69961 12 7.59961 11.5C7.69961 5.2 12.8996 0 19.2996 0C22.9996 0 26.4996 1.8 28.6996 4.7C29.7996 4.1 31.0996 3.8 32.4996 3.8C36.7996 3.8 40.3996 7.3 40.4996 11.6C42.3996 12.1 44.0996 13.1 45.3996 14.5C46.9996 16.3 47.8996 18.6 47.8996 21.1Z" fill="#839299"/>
<path id="Vector_2" d="M38.1004 25.5V46.1C38.1004 47.1 37.3004 48 36.2004 48H11.8004C10.8004 48 9.90039 47.2 9.90039 46.1V25.5C9.90039 24.5 10.7004 23.6 11.8004 23.6H36.2004C37.2004 23.6 38.1004 24.5 38.1004 25.5Z" fill="#0054A6"/>
<path id="Vector_3" d="M24.0996 34C24.5996 33.5 24.5996 32.6 24.0996 32L20.2996 28.2C19.7996 27.7 18.8996 27.7 18.2996 28.2L14.5996 32C14.0996 32.5 14.0996 33.4 14.5996 34C15.0996 34.5 15.9996 34.5 16.5996 34L17.8996 32.7V42.4C17.8996 43.2 18.4996 43.7999 19.2996 43.7999C20.0996 43.7999 20.6996 43.2 20.6996 42.4V32.7L21.9996 34C22.5996 34.5 23.4996 34.5 24.0996 34Z" fill="#54CC5A"/>
<path id="Vector_4" d="M33.4 37.6C32.9 37.1 32 37.1 31.4 37.6L30.1 39V29.3C30.1 28.5 29.5 27.9 28.7 27.9C27.9 27.9 27.3 28.5 27.3 29.3V39L26 37.7C25.5 37.2 24.6 37.2 24 37.7C23.5 38.2 23.5 39.1 24 39.7L27.8 43.5C28.3 44 29.2 44 29.8 43.5L33.6 39.7C34 39.1 34 38.2 33.4 37.6Z" fill="#54CC5A"/>
</g>
</g>
<defs>
<clipPath id="clip0_6034_12865">
<rect width="48" height="48" fill="white"/>
</clipPath>
</defs>
</svg>
