<svg width="475" height="373" viewBox="0 0 475 373" fill="none" xmlns="http://www.w3.org/2000/svg">
<path d="M139.002 317.12C137.605 315.897 135.859 314.85 134.287 313.977L133.414 307.69L127.302 306.642L123.984 312.23C122.238 312.405 120.492 312.754 118.745 313.278L113.332 309.262L108.268 312.754L110.014 319.565C108.966 320.787 108.093 322.009 107.569 323.406L100.235 324.803L99.3618 330.915L105.299 334.059C105.474 335.805 105.823 337.551 106.347 339.123L102.156 345.06L105.823 350.124L112.284 348.203C113.506 349.251 114.729 350.124 116.126 350.823L117.523 358.157L123.635 359.03L126.778 353.093C128.524 352.918 130.271 352.743 132.017 352.045L137.605 356.236L142.669 352.569L140.923 346.282C142.145 344.885 143.193 343.314 144.066 341.742L150.702 340.694L151.575 334.582L146.161 331.439C145.987 329.518 145.638 327.597 144.939 325.851L148.781 320.787L145.288 315.723L139.002 317.12ZM130.969 338.25C127.826 341.218 122.936 341.044 119.968 338.075C116.999 334.932 117.174 330.042 120.142 327.074C123.286 324.105 128.175 324.28 131.144 327.248C134.112 330.391 133.938 335.281 130.969 338.25Z" fill="#D2D9DC"/>
<path d="M84.5187 261.938C82.0739 259.843 79.2799 257.922 76.3113 256.699L74.7396 245.873L64.2621 244.126L58.6741 253.731C55.7055 253.905 52.5622 254.604 49.7682 255.652L40.513 248.667L31.7818 254.779L34.7504 266.304C33.0042 268.399 31.6071 270.495 30.3848 272.765L17.9864 275.035L16.5894 285.513L26.543 290.926C26.7176 293.895 27.2415 296.863 28.2893 299.657L21.1296 309.786L27.4161 318.342L38.5922 315.199C40.6877 316.945 42.9578 318.517 45.2279 319.739L47.4981 332.312L57.9756 333.884L63.389 323.756C66.3576 323.581 69.3262 323.057 72.2949 322.009L81.8993 328.994L90.4559 322.708L87.4873 311.881C89.5828 309.436 91.3291 306.817 92.7261 304.023L103.902 302.102L105.474 291.625L96.2186 286.386C96.044 283.068 95.3454 279.925 94.2977 276.781L100.759 268.05L94.6469 259.319L84.5187 261.938ZM70.7233 297.911C65.4845 302.975 57.1025 302.801 52.0383 297.562C46.9742 292.323 47.1488 283.941 52.3876 278.877C57.6263 273.813 66.0084 273.987 71.0725 279.226C76.1366 284.64 75.962 292.847 70.7233 297.911Z" fill="#839299"/>
<path d="M244.337 292.361V358.718H297.424V292.361H244.337Z" fill="#002548"/>
<path opacity="0.19" d="M244.337 292.361V358.718H297.424V292.361H244.337Z" fill="#F9FAFB"/>
<path d="M169.736 373V365.142L198.374 358.855H343.488L372.301 365.142V373H169.736Z" fill="#002548"/>
<path d="M439.744 308.177L439.744 85.7039L102.193 85.7039L102.193 308.177L439.744 308.177Z" fill="#002548"/>
<path d="M436.564 88.8843H105.474V295.292H436.564V88.8843Z" fill="#839299"/>
<path d="M420.848 101.807H137.081C134.462 101.807 132.366 103.902 132.366 106.522V281.846C132.366 284.465 134.462 286.56 137.081 286.56H420.848C423.467 286.56 425.562 284.465 425.562 281.846V106.522C425.562 103.902 423.467 101.807 420.848 101.807Z" fill="#F9FAFB"/>
<path d="M315.548 112.633H153.147C148.956 112.633 145.638 115.951 145.638 120.142V225.441C145.638 229.633 148.956 232.95 153.147 232.95H315.548C319.739 232.95 323.057 229.633 323.057 225.441V120.142C323.232 115.951 319.739 112.633 315.548 112.633Z" fill="#D2D9DC"/>
<path d="M405.83 112.633H344.885C340.694 112.633 337.376 115.951 337.376 120.142V264.558C337.376 268.749 340.694 272.066 344.885 272.066H405.83C410.021 272.066 413.339 268.749 413.339 264.558V120.142C413.339 115.951 409.846 112.633 405.83 112.633Z" fill="#D2D9DC"/>
<path d="M194.533 243.253H321.66C322.359 243.253 323.057 242.729 323.057 241.856C323.057 241.158 322.533 240.459 321.66 240.459H194.533C193.834 240.459 193.136 240.983 193.136 241.856C193.31 242.555 193.834 243.253 194.533 243.253Z" fill="#D2D9DC"/>
<path d="M147.035 243.253H184.754C185.452 243.253 186.151 242.729 186.151 241.856C186.151 241.158 185.627 240.459 184.754 240.459H147.035C146.336 240.459 145.638 240.983 145.638 241.856C145.638 242.555 146.336 243.253 147.035 243.253Z" fill="#D2D9DC"/>
<path d="M321.835 250.064H147.035C146.336 250.064 145.638 250.587 145.638 251.461C145.638 252.159 146.162 252.858 147.035 252.858H321.835C322.533 252.858 323.232 252.334 323.232 251.461C323.232 250.762 322.533 250.064 321.835 250.064Z" fill="#D2D9DC"/>
<path d="M321.834 259.668H305.594C304.896 259.668 304.197 260.192 304.197 261.065C304.197 261.763 304.721 262.462 305.594 262.462H321.834C322.533 262.462 323.231 261.938 323.231 261.065C323.231 260.366 322.533 259.668 321.834 259.668Z" fill="#D2D9DC"/>
<path d="M297.561 262.462C298.26 262.462 298.958 261.938 298.958 261.065C298.958 260.366 298.435 259.668 297.561 259.668H216.535C215.837 259.668 215.138 260.192 215.138 261.065C215.138 261.763 215.662 262.462 216.535 262.462H297.561Z" fill="#D2D9DC"/>
<path d="M147.035 262.462H207.455C208.154 262.462 208.852 261.938 208.852 261.065C208.852 260.367 208.328 259.668 207.455 259.668H147.035C146.336 259.668 145.638 260.192 145.638 261.065C145.638 261.764 146.336 262.462 147.035 262.462Z" fill="#D2D9DC"/>
<path d="M321.835 269.272H147.035C146.336 269.272 145.638 269.796 145.638 270.669C145.638 271.543 146.162 272.066 147.035 272.066H321.835C322.533 272.066 323.232 271.543 323.232 270.669C323.232 269.796 322.533 269.272 321.835 269.272Z" fill="#D2D9DC"/>
<path d="M359.728 169.911H345.584C344.536 169.911 343.488 170.784 343.488 172.006V186.151C343.488 187.199 344.361 188.246 345.584 188.246H359.728C360.776 188.246 361.824 187.373 361.824 186.151V172.006C361.824 170.784 360.951 169.911 359.728 169.911Z" fill="#0054A6"/>
<path d="M359.728 194.882H345.584C344.536 194.882 343.488 195.755 343.488 196.978V211.122C343.488 212.17 344.361 213.218 345.584 213.218H359.728C360.776 213.218 361.824 212.345 361.824 211.122V196.978C361.824 195.755 360.951 194.882 359.728 194.882Z" fill="#0054A6"/>
<path d="M359.728 220.377H345.584C344.536 220.377 343.488 221.25 343.488 222.473V236.617C343.488 237.665 344.361 238.713 345.584 238.713H359.728C360.776 238.713 361.824 237.84 361.824 236.617V222.473C361.824 221.25 360.951 220.377 359.728 220.377Z" fill="#0054A6"/>
<path d="M359.728 247.27H345.584C344.536 247.27 343.488 248.143 343.488 249.365V263.51C343.488 264.558 344.361 265.605 345.584 265.605H359.728C360.776 265.605 361.824 264.732 361.824 263.51V249.365C361.824 248.317 360.951 247.27 359.728 247.27Z" fill="#0054A6"/>
<path d="M368.285 174.8H406.179C406.703 174.8 407.052 174.451 407.052 173.927C407.052 173.403 406.703 173.054 406.179 173.054H368.285C367.761 173.054 367.412 173.403 367.412 173.927C367.412 174.276 367.761 174.8 368.285 174.8Z" fill="#839299"/>
<path d="M406.179 178.118H384.176C383.652 178.118 383.303 178.467 383.303 178.991C383.303 179.515 383.652 179.864 384.176 179.864H406.179C406.703 179.864 407.052 179.515 407.052 178.991C407.052 178.467 406.703 178.118 406.179 178.118Z" fill="#839299"/>
<path d="M368.285 180.039H379.985C380.509 180.039 380.858 179.69 380.858 179.166C380.858 178.642 380.509 178.293 379.985 178.293H368.285C367.761 178.293 367.412 178.642 367.412 179.166C367.412 179.69 367.761 180.039 368.285 180.039Z" fill="#839299"/>
<path d="M406.179 183.357H368.285C367.761 183.357 367.412 183.706 367.412 184.23C367.412 184.754 367.761 185.103 368.285 185.103H406.179C406.703 185.103 407.052 184.754 407.052 184.23C407.052 183.706 406.703 183.357 406.179 183.357Z" fill="#839299"/>
<path d="M368.285 199.597H406.179C406.703 199.597 407.052 199.248 407.052 198.724C407.052 198.2 406.703 197.851 406.179 197.851H368.285C367.761 197.851 367.412 198.2 367.412 198.724C367.412 199.248 367.761 199.597 368.285 199.597Z" fill="#839299"/>
<path d="M406.179 202.915H384.176C383.652 202.915 383.303 203.264 383.303 203.788C383.303 204.312 383.652 204.661 384.176 204.661H406.179C406.703 204.661 407.052 204.312 407.052 203.788C407.052 203.264 406.703 202.915 406.179 202.915Z" fill="#839299"/>
<path d="M368.285 204.836H379.985C380.509 204.836 380.858 204.486 380.858 203.963C380.858 203.439 380.509 203.089 379.985 203.089H368.285C367.761 203.089 367.412 203.439 367.412 203.963C367.412 204.486 367.761 204.836 368.285 204.836Z" fill="#839299"/>
<path d="M406.179 208.154H368.285C367.761 208.154 367.412 208.503 367.412 209.027C367.412 209.551 367.761 209.9 368.285 209.9H406.179C406.703 209.9 407.052 209.551 407.052 209.027C407.052 208.677 406.703 208.154 406.179 208.154Z" fill="#839299"/>
<path d="M368.285 225.092H406.179C406.703 225.092 407.052 224.743 407.052 224.219C407.052 223.695 406.703 223.346 406.179 223.346H368.285C367.761 223.346 367.412 223.695 367.412 224.219C367.412 224.743 367.761 225.092 368.285 225.092Z" fill="#839299"/>
<path d="M406.179 228.41H384.176C383.652 228.41 383.303 228.759 383.303 229.283C383.303 229.807 383.652 230.156 384.176 230.156H406.179C406.703 230.156 407.052 229.807 407.052 229.283C407.052 228.759 406.703 228.41 406.179 228.41Z" fill="#839299"/>
<path d="M368.285 230.331H379.985C380.509 230.331 380.858 229.982 380.858 229.458C380.858 228.934 380.509 228.585 379.985 228.585H368.285C367.761 228.585 367.412 228.934 367.412 229.458C367.412 229.982 367.761 230.331 368.285 230.331Z" fill="#839299"/>
<path d="M406.179 233.649H368.285C367.761 233.649 367.412 233.998 367.412 234.522C367.412 235.046 367.761 235.395 368.285 235.395H406.179C406.703 235.395 407.052 235.046 407.052 234.522C407.052 233.998 406.703 233.649 406.179 233.649Z" fill="#839299"/>
<path d="M368.285 252.159H406.179C406.703 252.159 407.052 251.81 407.052 251.286C407.052 250.762 406.703 250.413 406.179 250.413H368.285C367.761 250.413 367.412 250.762 367.412 251.286C367.412 251.81 367.761 252.159 368.285 252.159Z" fill="#839299"/>
<path d="M406.179 255.477H384.176C383.652 255.477 383.303 255.826 383.303 256.35C383.303 256.874 383.652 257.223 384.176 257.223H406.179C406.703 257.223 407.052 256.874 407.052 256.35C407.052 255.826 406.703 255.477 406.179 255.477Z" fill="#839299"/>
<path d="M368.285 257.398H379.985C380.509 257.398 380.858 257.049 380.858 256.525C380.858 256.001 380.509 255.652 379.985 255.652H368.285C367.761 255.652 367.412 256.001 367.412 256.525C367.412 257.049 367.761 257.398 368.285 257.398Z" fill="#839299"/>
<path d="M406.179 260.716H368.285C367.761 260.716 367.412 261.065 367.412 261.589C367.412 262.113 367.761 262.462 368.285 262.462H406.179C406.703 262.462 407.052 262.113 407.052 261.589C407.052 261.065 406.703 260.716 406.179 260.716Z" fill="#839299"/>
<path d="M307.69 121.889H253.032C250.937 121.889 249.365 123.635 249.365 125.556V172.006C249.365 174.102 251.111 175.673 253.032 175.673H307.69C309.786 175.673 311.357 173.927 311.357 172.006V125.556C311.532 123.635 309.786 121.889 307.69 121.889Z" fill="#FFDD33"/>
<path d="M156.814 187.548H310.31C310.834 187.548 311.357 187.024 311.357 186.5C311.357 185.976 310.834 185.452 310.31 185.452H156.814C156.29 185.452 155.766 185.976 155.766 186.5C155.766 187.024 156.29 187.548 156.814 187.548Z" fill="#839299"/>
<path d="M310.31 192.961H156.814C156.29 192.961 155.766 193.485 155.766 194.009C155.766 194.533 156.29 195.057 156.814 195.057H310.31C310.834 195.057 311.357 194.533 311.357 194.009C311.532 193.485 311.008 192.961 310.31 192.961Z" fill="#839299"/>
<path d="M310.31 200.819H156.814C156.29 200.819 155.766 201.343 155.766 201.867C155.766 202.391 156.29 202.915 156.814 202.915H310.31C310.834 202.915 311.357 202.391 311.357 201.867C311.532 201.343 311.008 200.819 310.31 200.819Z" fill="#839299"/>
<path d="M345.409 128H405.131C405.655 128 406.004 127.651 406.004 127.127C406.004 126.603 405.655 126.254 405.131 126.254H345.409C344.885 126.254 344.536 126.603 344.536 127.127C344.536 127.651 344.885 128 345.409 128Z" fill="#839299"/>
<path d="M405.131 132.715H345.409C344.885 132.715 344.536 133.065 344.536 133.588C344.536 134.112 344.885 134.462 345.409 134.462H405.131C405.655 134.462 406.004 134.112 406.004 133.588C406.004 133.239 405.655 132.715 405.131 132.715Z" fill="#839299"/>
<path d="M405.131 139.351H345.409C344.885 139.351 344.536 139.7 344.536 140.224C344.536 140.748 344.885 141.097 345.409 141.097H405.131C405.655 141.097 406.004 140.748 406.004 140.224C406.004 139.7 405.655 139.351 405.131 139.351Z" fill="#839299"/>
<path d="M345.409 150.003H405.131C405.655 150.003 406.004 149.654 406.004 149.13C406.004 148.606 405.655 148.257 405.131 148.257H345.409C344.885 148.257 344.536 148.606 344.536 149.13C344.536 149.479 344.885 150.003 345.409 150.003Z" fill="#839299"/>
<path d="M405.131 154.718H345.409C344.885 154.718 344.536 155.067 344.536 155.591C344.536 156.115 344.885 156.464 345.409 156.464H405.131C405.655 156.464 406.004 156.115 406.004 155.591C406.004 155.067 405.655 154.718 405.131 154.718Z" fill="#839299"/>
<path d="M405.131 161.179H345.409C344.885 161.179 344.536 161.529 344.536 162.052C344.536 162.576 344.885 162.926 345.409 162.926H405.131C405.655 162.926 406.004 162.576 406.004 162.052C406.004 161.703 405.655 161.179 405.131 161.179Z" fill="#839299"/>
<path d="M199.946 208.328H158.385C156.814 208.328 155.591 209.551 155.591 211.122V221.774C155.591 223.346 156.814 224.568 158.385 224.568H199.946C201.518 224.568 202.74 223.346 202.74 221.774V211.122C202.74 209.551 201.518 208.328 199.946 208.328Z" fill="#0054A6"/>
<path d="M254.255 208.328H212.694C211.122 208.328 209.9 209.551 209.9 211.122V221.774C209.9 223.346 211.122 224.568 212.694 224.568H254.255C255.826 224.568 257.049 223.346 257.049 221.774V211.122C257.049 209.551 255.826 208.328 254.255 208.328Z" fill="#0054A6"/>
<path d="M308.738 208.328H267.177C265.605 208.328 264.383 209.551 264.383 211.122V221.774C264.383 223.346 265.605 224.568 267.177 224.568H308.738C310.309 224.568 311.532 223.346 311.532 221.774V211.122C311.532 209.551 310.135 208.328 308.738 208.328Z" fill="#0054A6"/>
<path d="M363.919 0H290.402C282.893 0 276.781 6.11189 276.781 13.6208V49.9429C276.781 57.4518 282.893 63.5637 290.402 63.5637V74.3905L303.674 63.5637H363.919C371.428 63.5637 377.54 57.4518 377.54 49.9429V13.6208C377.54 6.11189 371.428 0 363.919 0Z" fill="#0054A6"/>
<path d="M311.008 47.1489C310.484 47.1489 310.135 46.9742 309.785 46.625L294.942 31.7818C294.593 31.4326 294.418 30.9087 294.418 30.5594C294.418 30.0356 294.593 29.6863 294.942 29.3371L309.785 14.4939C310.484 13.7954 311.706 13.7954 312.405 14.4939C313.103 15.1924 313.103 16.4148 312.405 17.1133L298.959 30.5594L312.405 44.0056C313.103 44.7041 313.103 45.9265 312.405 46.625C311.881 46.9742 311.357 47.1489 311.008 47.1489Z" fill="#F9FAFB"/>
<path d="M343.314 47.1487C343.838 47.1487 344.187 46.9741 344.536 46.6249L359.379 31.7817C359.729 31.4325 359.903 30.9086 359.903 30.5593C359.903 30.0354 359.729 29.6862 359.379 29.337L344.536 14.4938C343.838 13.7953 342.615 13.7953 341.917 14.4938C341.218 15.1923 341.218 16.4147 341.917 17.1132L355.363 30.5593L341.917 44.0055C341.218 44.704 341.218 45.9264 341.917 46.6249C342.441 46.9741 342.965 47.1487 343.314 47.1487Z" fill="#F9FAFB"/>
<path d="M319.914 47.1489C319.739 47.1489 319.39 47.1489 319.215 46.9743C318.342 46.625 317.818 45.5773 318.342 44.5295L331.265 15.0178C331.614 14.1447 332.662 13.6208 333.709 14.1447C334.583 14.4939 335.106 15.5417 334.583 16.5894L321.66 46.1011C321.311 46.7996 320.612 47.1489 319.914 47.1489Z" fill="#F9FAFB"/>
<path d="M251.985 16.9387H13.4463C6.11207 16.9387 0.174805 23.3998 0.174805 31.2579V34.5758H265.431V31.2579C265.256 23.3998 259.319 16.9387 251.985 16.9387Z" fill="#002548"/>
<path d="M256.699 205.883H8.73127C4.01639 205.883 0 202.042 0 197.152V34.7505H265.431V197.152C265.431 202.042 261.589 205.883 256.699 205.883Z" fill="#0054A6"/>
<path d="M43.6565 25.4953C43.6565 24.0983 42.6087 23.0505 41.3863 23.0505C40.164 23.0505 39.1162 24.0983 39.1162 25.4953C39.1162 26.8923 40.164 27.94 41.3863 27.94C42.6087 27.94 43.6565 26.8923 43.6565 25.4953Z" fill="#54CC5A"/>
<path d="M32.3059 25.4953C32.3059 24.0983 31.2581 23.0505 30.0357 23.0505C28.8134 23.0505 27.7656 24.0983 27.7656 25.4953C27.7656 26.8923 28.8134 27.94 30.0357 27.94C31.2581 27.94 32.3059 26.8923 32.3059 25.4953Z" fill="#FFDD33"/>
<path d="M21.1296 25.4953C21.1296 24.0983 20.0819 23.0505 18.8595 23.0505C17.6371 23.0505 16.5894 24.0983 16.5894 25.4953C16.5894 26.8923 17.6371 27.94 18.8595 27.94C20.0819 27.94 21.1296 26.8923 21.1296 25.4953Z" fill="#ED1C24"/>
<path d="M191.913 27.94H243.079C244.476 27.94 245.524 26.8923 245.524 25.4953C245.524 24.0983 244.476 23.0505 243.079 23.0505H191.913C190.516 23.0505 189.469 24.0983 189.469 25.4953C189.643 26.8923 190.691 27.94 191.913 27.94Z" fill="#D2D9DC"/>
<path d="M220.378 52.0381C226.315 52.0381 231.903 54.1337 236.444 57.8008L220.029 75.0887L199.598 62.8649C201.693 59.7217 204.487 57.2769 207.805 55.356C211.647 53.2605 216.012 52.0381 220.378 52.0381Z" fill="#D2D9DC"/>
<path d="M218.981 78.5812V101.981C206.408 101.283 196.28 91.1543 195.407 78.5812H218.981Z" fill="#D2D9DC"/>
<path d="M210.249 74.7397H190.691C190.866 71.2472 191.913 67.7547 193.485 64.7861L210.249 74.7397Z" fill="#FFDD33"/>
<path d="M238.713 60.0711C243.079 64.786 245.524 70.7233 245.524 77.1844C245.524 90.4559 235.046 101.283 221.949 102.156V77.8829L238.713 60.0711Z" fill="#ED1C24"/>
<path d="M134.287 63.389C138.303 56.5787 145.812 52.0384 154.369 52.0384C160.656 52.0384 166.244 54.4831 170.435 58.3249L154.369 75.2636L134.287 63.389Z" fill="#FFDD33"/>
<path d="M128.524 77.5337H151.924V100.934C139.002 100.934 128.524 90.456 128.524 77.5337Z" fill="#54CC5A"/>
<path d="M131.144 75.2636C131.144 70.8979 132.366 66.8815 134.462 63.389L154.544 75.2636H131.319H131.144Z" fill="#FFDD33"/>
<path d="M154.369 98.6634V75.4382L170.435 58.4995C174.975 62.6905 177.769 68.8024 177.769 75.4382C177.769 88.1859 167.291 98.6634 154.369 98.6634Z" fill="#FFDD33"/>
<path d="M22.1776 192.961H241.507C243.428 192.961 245 191.39 245 189.469V121.015C245 119.095 243.428 117.523 241.507 117.523H22.1776C20.2567 117.523 18.6851 119.095 18.6851 121.015V189.469C18.8597 191.39 20.4313 192.961 22.1776 192.961Z" fill="#D2D9DC"/>
<path d="M20.6061 55.7055H112.459C113.507 55.7055 114.205 54.8323 114.205 53.9592C114.205 52.9115 113.332 52.213 112.459 52.213H20.6061C19.5584 52.213 18.8599 53.0861 18.8599 53.9592C18.8599 54.8323 19.5584 55.7055 20.6061 55.7055Z" fill="#F9FAFB"/>
<path d="M112.459 66.183H20.6061C19.5584 66.183 18.8599 67.0561 18.8599 67.9292C18.8599 68.977 19.733 69.6755 20.6061 69.6755H112.459C113.507 69.6755 114.205 68.8024 114.205 67.9292C114.205 66.8815 113.507 66.183 112.459 66.183Z" fill="#F9FAFB"/>
<path d="M112.459 80.153H20.6061C19.5584 80.153 18.8599 81.0261 18.8599 81.8993C18.8599 82.947 19.733 83.6455 20.6061 83.6455H112.459C113.507 83.6455 114.205 82.7724 114.205 81.8993C114.205 81.0261 113.507 80.153 112.459 80.153Z" fill="#F9FAFB"/>
<path d="M112.459 94.2977H20.6061C19.5584 94.2977 18.8599 95.1709 18.8599 96.044C18.8599 97.0917 19.733 97.7902 20.6061 97.7902H112.459C113.507 97.7902 114.205 96.9171 114.205 96.044C114.205 94.9962 113.507 94.2977 112.459 94.2977Z" fill="#F9FAFB"/>
<path d="M234.871 126.08H28.8134C28.2895 126.08 27.7656 126.429 27.7656 127.127V127.651C27.7656 128.175 28.2895 128.699 28.8134 128.699H234.871C235.395 128.699 235.919 128.35 235.919 127.651V127.127C235.919 126.603 235.57 126.08 234.871 126.08Z" fill="#839299"/>
<path d="M234.871 136.383H28.8134C28.2895 136.383 27.7656 136.732 27.7656 137.43V137.954C27.7656 138.478 28.2895 139.002 28.8134 139.002H234.871C235.395 139.002 235.919 138.653 235.919 137.954V137.43C235.919 136.732 235.57 136.383 234.871 136.383Z" fill="#839299"/>
<path d="M234.871 146.511H28.8134C28.2895 146.511 27.7656 146.86 27.7656 147.558V148.082C27.7656 148.606 28.2895 149.13 28.8134 149.13H234.871C235.395 149.13 235.919 148.781 235.919 148.082V147.558C235.919 147.035 235.57 146.511 234.871 146.511Z" fill="#839299"/>
<path d="M234.871 156.814H28.8134C28.2895 156.814 27.7656 157.163 27.7656 157.861V158.385C27.7656 158.909 28.2895 159.433 28.8134 159.433H234.871C235.395 159.433 235.919 159.084 235.919 158.385V157.861C235.919 157.338 235.57 156.814 234.871 156.814Z" fill="#839299"/>
<path d="M234.871 167.117H28.8134C28.2895 167.117 27.7656 167.466 27.7656 168.164V168.688C27.7656 169.212 28.2895 169.736 28.8134 169.736H234.871C235.395 169.736 235.919 169.387 235.919 168.688V168.164C235.919 167.466 235.57 167.117 234.871 167.117Z" fill="#839299"/>
<path d="M234.871 177.245H28.8134C28.2895 177.245 27.7656 177.594 27.7656 178.293V178.817C27.7656 179.34 28.2895 179.864 28.8134 179.864H234.871C235.395 179.864 235.919 179.515 235.919 178.817V178.293C235.919 177.769 235.57 177.245 234.871 177.245Z" fill="#839299"/>
<path d="M437.961 336.852C458.406 336.852 474.981 320.278 474.981 299.832C474.981 279.386 458.406 262.811 437.961 262.811C417.515 262.811 400.94 279.386 400.94 299.832C400.94 320.278 417.515 336.852 437.961 336.852Z" fill="#54CC5A"/>
<path d="M452.63 280.274C446.343 289.18 439.882 297.911 433.595 306.817C429.23 302.626 424.689 298.61 420.324 294.419C417.704 297.736 415.085 301.229 412.291 304.547C419.8 309.436 427.309 314.501 434.643 319.39C444.247 309.087 453.677 298.959 463.282 288.656C459.789 285.862 456.297 283.068 452.63 280.274Z" fill="#F9FAFB"/>
</svg>
