<svg width="32" height="32" viewBox="0 0 32 32" fill="none" xmlns="http://www.w3.org/2000/svg">
<path d="M16.8907 5.2054H14.9333V2.26673L15.9147 1.2854L16.8907 2.26673V5.2054Z" fill="#60B7FF"/>
<path d="M11.4081 6.66665L10.0161 8.05332L8.16008 6.19732C8.10145 6.1375 8.0686 6.05708 8.0686 5.97332C8.0686 5.88956 8.10145 5.80914 8.16008 5.74932L9.10408 4.79998C9.16299 4.74169 9.24253 4.70898 9.32541 4.70898C9.40829 4.70898 9.48783 4.74169 9.54674 4.79998L11.4081 6.66665Z" fill="#39B54A"/>
<path d="M20.4214 6.66664L21.8081 8.0533L23.6641 6.1973C23.7227 6.13749 23.7555 6.05706 23.7555 5.9733C23.7555 5.88954 23.7227 5.80912 23.6641 5.7493L22.7254 4.79997C22.6656 4.74134 22.5851 4.7085 22.5014 4.7085C22.4176 4.7085 22.3372 4.74134 22.2774 4.79997L20.4214 6.66664Z" fill="#60B7FF"/>
<path d="M15.9146 20.9012C20.5185 20.9012 24.2506 17.1691 24.2506 12.5652C24.2506 7.9614 20.5185 4.22925 15.9146 4.22925C11.3108 4.22925 7.57861 7.9614 7.57861 12.5652C7.57861 17.1691 11.3108 20.9012 15.9146 20.9012Z" fill="#8AC9FE"/>
<path d="M15.9146 18.9386C19.4345 18.9386 22.2879 16.0851 22.2879 12.5652C22.2879 9.04533 19.4345 6.19189 15.9146 6.19189C12.3947 6.19189 9.54126 9.04533 9.54126 12.5652C9.54126 16.0851 12.3947 18.9386 15.9146 18.9386Z" fill="#EAF6FF"/>
<path d="M19.9199 7.60522C20.8523 8.83748 21.3073 10.3655 21.2011 11.907C21.0948 13.4486 20.4343 14.8997 19.3417 15.9923C18.249 17.085 16.798 17.7454 15.2564 17.8517C13.7148 17.958 12.1868 17.5029 10.9546 16.5706C11.5065 17.3 12.2083 17.9026 13.0128 18.3378C13.8172 18.7731 14.7056 19.0309 15.6181 19.0938C16.5306 19.1567 17.446 19.0233 18.3026 18.7025C19.1591 18.3818 19.937 17.8812 20.5838 17.2344C21.2305 16.5877 21.7312 15.8098 22.0519 14.9532C22.3726 14.0966 22.5061 13.1812 22.4431 12.2687C22.3802 11.3563 22.1225 10.4678 21.6872 9.66339C21.252 8.85893 20.6493 8.15711 19.9199 7.60522Z" fill="#D8ECFE"/>
<path d="M17.5572 2.26662H14.2666C14.1831 2.26662 14.1031 2.23347 14.0441 2.17446C13.9851 2.11545 13.9519 2.03541 13.9519 1.95196V0.618622C13.9519 0.535167 13.9851 0.45513 14.0441 0.396119C14.1031 0.337107 14.1831 0.303955 14.2666 0.303955H17.5572C17.6407 0.303955 17.7207 0.337107 17.7797 0.396119C17.8388 0.45513 17.8719 0.535167 17.8719 0.618622V1.95196C17.8719 2.03541 17.8388 2.11545 17.7797 2.17446C17.7207 2.23347 17.6407 2.26662 17.5572 2.26662Z" fill="#C4E2FF"/>
<path d="M18.2667 15.0134H29.2587C29.29 15.0139 29.3205 15.0235 29.3464 15.0411C29.3723 15.0587 29.3925 15.0835 29.4044 15.1125C29.4163 15.1415 29.4195 15.1733 29.4135 15.204C29.4075 15.2348 29.3926 15.2631 29.3707 15.2854L26.704 17.9521L20.8 18.9388L14.9333 17.9574L17.6 15.2908C17.7793 15.1143 18.0204 15.0148 18.272 15.0134H18.2667Z" fill="#ECA026"/>
<path d="M11.6 15.0134H2.34135C2.31003 15.0139 2.27953 15.0235 2.25363 15.0411C2.22773 15.0587 2.20757 15.0835 2.19565 15.1125C2.18372 15.1415 2.18056 15.1733 2.18655 15.204C2.19254 15.2348 2.20742 15.2631 2.22935 15.2854L4.89601 17.9521L9.06668 18.9388L14.9333 17.9574L12.2667 15.2908C12.09 15.1136 11.8502 15.0139 11.6 15.0134Z" fill="#FEB237"/>
<path d="M26.3839 31.6853H14.9332L13.9519 21.8666L14.9332 17.9573H26.6986V31.3706C26.6986 31.4541 26.6654 31.5341 26.6064 31.5931C26.5474 31.6521 26.4674 31.6853 26.3839 31.6853Z" fill="#FEB237"/>
<path d="M24.5814 29.7227H21.952C21.911 29.7227 21.8717 29.7064 21.8427 29.6774C21.8137 29.6484 21.7974 29.609 21.7974 29.568V27.92C21.7973 27.8785 21.8135 27.8386 21.8423 27.8087C21.8712 27.7789 21.9105 27.7614 21.952 27.76H24.5814C24.6229 27.7614 24.6622 27.7789 24.6911 27.8087C24.7199 27.8386 24.7361 27.8785 24.736 27.92V29.568C24.736 29.609 24.7197 29.6484 24.6907 29.6774C24.6617 29.7064 24.6224 29.7227 24.5814 29.7227Z" fill="#EAF6FF"/>
<path d="M5.21603 31.6853H14.9334V17.9573H4.90137V31.3706C4.90274 31.4536 4.93633 31.5329 4.99505 31.5916C5.05377 31.6503 5.13301 31.6839 5.21603 31.6853Z" fill="#FFC344"/>
<path d="M7.46671 21.9786L4.80004 24.6453C4.78459 24.6616 4.76598 24.6746 4.74535 24.6834C4.72472 24.6923 4.7025 24.6969 4.68004 24.6969C4.65758 24.6969 4.63536 24.6923 4.61473 24.6834C4.5941 24.6746 4.57549 24.6616 4.56004 24.6453L3.17337 23.264C3.10857 23.2004 3.02145 23.1649 2.93071 23.1649C2.83996 23.1649 2.75284 23.2004 2.68804 23.264L1.66404 24.2613C1.60052 24.3261 1.56494 24.4132 1.56494 24.504C1.56494 24.5947 1.60052 24.6818 1.66404 24.7466L4.43204 27.5146C4.49684 27.5781 4.58396 27.6137 4.67471 27.6137C4.76545 27.6137 4.85257 27.5781 4.91737 27.5146L8.94937 23.4666C9.01289 23.4018 9.04847 23.3147 9.04847 23.224C9.04847 23.1332 9.01289 23.0461 8.94937 22.9813L7.92537 21.9626C7.86057 21.8991 7.77345 21.8635 7.68271 21.8635C7.59196 21.8635 7.50484 21.8991 7.44004 21.9626L7.46671 21.9786Z" fill="#39B54A"/>
<path d="M15.4666 0.303955H16.4106V2.26662H15.4666V0.303955Z" fill="#B3DAFE"/>
<path d="M15.9146 9.60009C15.8523 9.60009 15.7905 9.58781 15.7329 9.56396C15.6754 9.5401 15.623 9.50514 15.5789 9.46106C15.5349 9.41699 15.4999 9.36466 15.4761 9.30707C15.4522 9.24948 15.4399 9.18776 15.4399 9.12542V8.14942C15.4329 8.08322 15.4398 8.01628 15.4603 7.95295C15.4808 7.88961 15.5145 7.8313 15.559 7.7818C15.6035 7.7323 15.6579 7.69271 15.7187 7.66561C15.7795 7.63852 15.8453 7.62451 15.9119 7.62451C15.9785 7.62451 16.0443 7.63852 16.1051 7.66561C16.1659 7.69271 16.2204 7.7323 16.2649 7.7818C16.3094 7.8313 16.343 7.88961 16.3635 7.95295C16.384 8.01628 16.391 8.08322 16.3839 8.14942V9.13076C16.3839 9.25523 16.3345 9.37461 16.2465 9.46262C16.1584 9.55064 16.0391 9.60009 15.9146 9.60009Z" fill="#554E56"/>
<path d="M16.1388 12.896C16.0762 12.8973 16.0141 12.8856 15.9562 12.8618C15.8984 12.8379 15.8462 12.8023 15.8028 12.7573C15.7587 12.7137 15.7238 12.6617 15.6999 12.6045C15.6761 12.5473 15.6638 12.4859 15.6638 12.424C15.6638 12.362 15.6761 12.3006 15.6999 12.2434C15.7238 12.1862 15.7587 12.1343 15.8028 12.0906L18.7254 9.16795C18.7695 9.12377 18.8219 9.08871 18.8795 9.06479C18.9372 9.04088 18.999 9.02856 19.0614 9.02856C19.1238 9.02856 19.1856 9.04088 19.2433 9.06479C19.301 9.08871 19.3533 9.12377 19.3974 9.16795C19.4414 9.21159 19.4764 9.26351 19.5002 9.32072C19.5241 9.37793 19.5364 9.4393 19.5364 9.50128C19.5364 9.56327 19.5241 9.62464 19.5002 9.68185C19.4764 9.73906 19.4414 9.79098 19.3974 9.83462L16.4748 12.7573C16.431 12.8018 16.3786 12.8371 16.3209 12.8609C16.2632 12.8847 16.2012 12.8966 16.1388 12.896Z" fill="#39B54A"/>
<path d="M20.3253 13.0346H19.344C19.2778 13.0416 19.2109 13.0346 19.1475 13.0141C19.0842 12.9936 19.0259 12.96 18.9764 12.9155C18.9269 12.871 18.8873 12.8166 18.8602 12.7558C18.8331 12.695 18.8191 12.6291 18.8191 12.5626C18.8191 12.496 18.8331 12.4302 18.8602 12.3693C18.8873 12.3085 18.9269 12.2541 18.9764 12.2096C19.0259 12.1651 19.0842 12.1315 19.1475 12.111C19.2109 12.0905 19.2778 12.0835 19.344 12.0906H20.3253C20.3915 12.0835 20.4585 12.0905 20.5218 12.111C20.5851 12.1315 20.6435 12.1651 20.693 12.2096C20.7425 12.2541 20.782 12.3085 20.8091 12.3693C20.8362 12.4302 20.8502 12.496 20.8502 12.5626C20.8502 12.6291 20.8362 12.695 20.8091 12.7558C20.782 12.8166 20.7425 12.871 20.693 12.9155C20.6435 12.96 20.5851 12.9936 20.5218 13.0141C20.4585 13.0346 20.3915 13.0416 20.3253 13.0346Z" fill="#554E56"/>
<path d="M13.5413 10.6667C13.4789 10.6668 13.4171 10.6546 13.3595 10.6308C13.3018 10.607 13.2494 10.5721 13.2053 10.528L12.5119 9.8347C12.4678 9.79061 12.4327 9.73824 12.4088 9.68059C12.3849 9.62293 12.3726 9.56112 12.3726 9.4987C12.3726 9.43628 12.3849 9.37448 12.4088 9.31682C12.4327 9.25917 12.4678 9.20679 12.5119 9.1627C12.6023 9.076 12.7227 9.02759 12.8479 9.02759C12.9732 9.02759 13.0936 9.076 13.1839 9.1627L13.8773 9.85604C13.9438 9.92242 13.9891 10.0071 14.0075 10.0992C14.0259 10.1914 14.0165 10.287 13.9805 10.3738C13.9445 10.4606 13.8836 10.5348 13.8054 10.5869C13.7272 10.6391 13.6353 10.6668 13.5413 10.6667Z" fill="#554E56"/>
<path d="M12.4801 13.0346H11.4988C11.4326 13.0416 11.3656 13.0346 11.3023 13.0141C11.239 12.9936 11.1807 12.96 11.1312 12.9155C11.0817 12.871 11.0421 12.8166 11.015 12.7558C10.9879 12.695 10.9739 12.6291 10.9739 12.5626C10.9739 12.496 10.9879 12.4302 11.015 12.3693C11.0421 12.3085 11.0817 12.2541 11.1312 12.2096C11.1807 12.1651 11.239 12.1315 11.3023 12.111C11.3656 12.0905 11.4326 12.0835 11.4988 12.0906H12.4801C12.5463 12.0835 12.6133 12.0905 12.6766 12.111C12.7399 12.1315 12.7982 12.1651 12.8477 12.2096C12.8972 12.2541 12.9368 12.3085 12.9639 12.3693C12.991 12.4302 13.005 12.496 13.005 12.5626C13.005 12.6291 12.991 12.695 12.9639 12.7558C12.9368 12.8166 12.8972 12.871 12.8477 12.9155C12.7982 12.96 12.7399 12.9936 12.6766 13.0141C12.6133 13.0346 12.5463 13.0416 12.4801 13.0346Z" fill="#554E56"/>
<path d="M15.9999 13.5467C16.5419 13.5467 16.9812 13.1073 16.9812 12.5653C16.9812 12.0233 16.5419 11.584 15.9999 11.584C15.4579 11.584 15.0186 12.0233 15.0186 12.5653C15.0186 13.1073 15.4579 13.5467 15.9999 13.5467Z" fill="#8CC63F"/>
</svg>
