<svg width="32" height="32" viewBox="0 0 32 32" fill="none" xmlns="http://www.w3.org/2000/svg">
<path d="M16.9334 5.17855H14.9761V2.23988L15.9574 1.25854L16.9334 2.23988V5.17855Z" fill="#60B7FF"/>
<path d="M11.456 6.63997L10.0693 7.99997L8.21331 6.1653C8.15502 6.10639 8.12231 6.02685 8.12231 5.94397C8.12231 5.86109 8.15502 5.78155 8.21331 5.72264L9.15198 4.79997C9.2118 4.74134 9.29222 4.7085 9.37598 4.7085C9.45974 4.7085 9.54016 4.74134 9.59998 4.79997L11.456 6.63997Z" fill="#EE6161"/>
<path d="M20.4587 6.63998L21.8667 7.99998L23.7227 6.14399C23.781 6.08507 23.8137 6.00553 23.8137 5.92265C23.8137 5.83977 23.781 5.76023 23.7227 5.70132L22.7574 4.79998C22.6985 4.74169 22.619 4.70898 22.5361 4.70898C22.4532 4.70898 22.3737 4.74169 22.3147 4.79998L20.4587 6.63998Z" fill="#60B7FF"/>
<path d="M15.9574 20.8479C20.5554 20.8479 24.2827 17.1206 24.2827 12.5226C24.2827 7.92464 20.5554 4.19727 15.9574 4.19727C11.3595 4.19727 7.63208 7.92464 7.63208 12.5226C7.63208 17.1206 11.3595 20.8479 15.9574 20.8479Z" fill="#8AC9FE"/>
<path d="M15.9574 18.8908C19.4743 18.8908 22.3254 16.0397 22.3254 12.5228C22.3254 9.00584 19.4743 6.15479 15.9574 6.15479C12.4404 6.15479 9.58936 9.00584 9.58936 12.5228C9.58936 16.0397 12.4404 18.8908 15.9574 18.8908Z" fill="#EAF6FF"/>
<path d="M19.9627 7.57324C20.9554 8.79576 21.4598 10.3427 21.3787 11.9154C21.2975 13.4881 20.6365 14.9749 19.5233 16.0888C18.4101 17.2027 16.9237 17.8645 15.3511 17.9466C13.7784 18.0287 12.2312 17.5252 11.0081 16.5332C11.5702 17.2256 12.2716 17.7922 13.0667 18.1962C13.8617 18.6003 14.7328 18.8328 15.6235 18.8787C16.5142 18.9247 17.4046 18.7831 18.237 18.463C19.0695 18.1429 19.8254 17.6516 20.4558 17.0207C21.0863 16.3899 21.5772 15.6337 21.8968 14.801C22.2164 13.9684 22.3575 13.0779 22.311 12.1873C22.2645 11.2966 22.0314 10.4257 21.6269 9.63085C21.2224 8.83601 20.6554 8.13501 19.9627 7.57324Z" fill="#D8ECFE"/>
<path d="M17.6 2.2401H14.3146C14.2307 2.24011 14.1501 2.20713 14.0902 2.14826C14.0304 2.0894 13.996 2.00937 13.9946 1.92543V0.597428C13.9946 0.555653 14.0029 0.514295 14.0191 0.475766C14.0352 0.437237 14.0589 0.402309 14.0887 0.373018C14.1185 0.343728 14.1538 0.320662 14.1926 0.305166C14.2314 0.28967 14.2729 0.282054 14.3146 0.282762H17.6C17.6415 0.282039 17.6827 0.289685 17.7212 0.305243C17.7597 0.320801 17.7947 0.343952 17.8241 0.373317C17.8534 0.402681 17.8766 0.437658 17.8921 0.476161C17.9077 0.514665 17.9154 0.555907 17.9146 0.597428V1.92543C17.9146 1.96675 17.9065 2.00767 17.8907 2.04585C17.8749 2.08402 17.8517 2.11871 17.8225 2.14793C17.7932 2.17715 17.7586 2.20033 17.7204 2.21614C17.6822 2.23196 17.6413 2.2401 17.6 2.2401Z" fill="#C4E2FF"/>
<path d="M18.3094 14.976H29.2907C29.3221 14.9749 29.353 14.9834 29.3795 15.0003C29.4059 15.0172 29.4266 15.0418 29.4387 15.0707C29.4509 15.0997 29.4539 15.1316 29.4475 15.1623C29.4411 15.193 29.4254 15.2211 29.4027 15.2427L26.736 17.9094L20.8694 18.8854L15.0027 17.9094L17.6694 15.2427C17.7571 15.1539 17.8618 15.0836 17.9772 15.0359C18.0927 14.9883 18.2165 14.9643 18.3414 14.9654L18.3094 14.976Z" fill="#ECA026"/>
<path d="M11.6481 14.9759H2.40009C2.36872 14.9748 2.33776 14.9833 2.31132 15.0002C2.28488 15.0171 2.26421 15.0417 2.25206 15.0706C2.2399 15.0995 2.23684 15.1315 2.24328 15.1622C2.24971 15.1929 2.26534 15.221 2.28809 15.2426L4.95476 17.9093L9.09342 18.8853L14.9601 17.9093L12.2934 15.2426C12.1216 15.0726 11.8898 14.9768 11.6481 14.9759Z" fill="#FEB237"/>
<path d="M26.416 31.6266H14.976L13.9946 21.8292L14.976 17.9146H26.7093V31.3119C26.7108 31.3921 26.681 31.4698 26.6263 31.5286C26.5715 31.5873 26.4961 31.6224 26.416 31.6266Z" fill="#FEB237"/>
<path d="M24.6134 29.6695H21.9894C21.9479 29.6681 21.9085 29.6506 21.8797 29.6207C21.8508 29.5909 21.8347 29.551 21.8347 29.5095V27.8668C21.8347 27.8253 21.8508 27.7854 21.8797 27.7555C21.9085 27.7256 21.9479 27.7082 21.9894 27.7068H24.6134C24.6558 27.7068 24.6965 27.7236 24.7265 27.7536C24.7565 27.7837 24.7734 27.8244 24.7734 27.8668V29.5095C24.7734 29.5519 24.7565 29.5926 24.7265 29.6226C24.6965 29.6526 24.6558 29.6695 24.6134 29.6695Z" fill="#EAF6FF"/>
<path d="M5.27467 31.6266H14.976V17.9146H4.96001V31.3119C4.95929 31.3534 4.96693 31.3946 4.98249 31.4332C4.99805 31.4717 5.0212 31.5066 5.05056 31.536C5.07993 31.5654 5.1149 31.5885 5.15341 31.6041C5.19191 31.6196 5.23315 31.6273 5.27467 31.6266Z" fill="#FFC344"/>
<path d="M7.4933 21.9306L4.82663 24.5973C4.79405 24.6277 4.75117 24.6446 4.70663 24.6446C4.66209 24.6446 4.61921 24.6277 4.58663 24.5973L3.22663 23.1946C3.16183 23.1311 3.07471 23.0955 2.98397 23.0955C2.89322 23.0955 2.8061 23.1311 2.7413 23.1946L1.72263 24.2133C1.65911 24.2781 1.62354 24.3652 1.62354 24.456C1.62354 24.5467 1.65911 24.6338 1.72263 24.6986L4.4853 27.4613C4.5501 27.5248 4.63722 27.5604 4.72797 27.5604C4.81871 27.5604 4.90583 27.5248 4.97063 27.4613L8.9973 23.4346C9.06082 23.3698 9.0964 23.2827 9.0964 23.192C9.0964 23.1012 9.06082 23.0141 8.9973 22.9493L7.99997 21.9306C7.93516 21.8671 7.84804 21.8315 7.7573 21.8315C7.66656 21.8315 7.57943 21.8671 7.51463 21.9306H7.4933Z" fill="#E94444"/>
<path d="M15.4666 0.282715H16.4266V2.24005H15.4666V0.282715Z" fill="#B3DAFE"/>
<path d="M15.9573 9.56811C15.8952 9.56881 15.8336 9.55719 15.7761 9.53392C15.7185 9.51065 15.6661 9.47619 15.622 9.43254C15.5778 9.38889 15.5428 9.33691 15.5189 9.27962C15.495 9.22233 15.4826 9.16086 15.4826 9.09877V8.11744C15.4756 8.05124 15.4826 7.9843 15.5031 7.92097C15.5236 7.85763 15.5572 7.79932 15.6017 7.74982C15.6462 7.70031 15.7006 7.66073 15.7614 7.63363C15.8222 7.60653 15.8881 7.59253 15.9546 7.59253C16.0212 7.59253 16.087 7.60653 16.1479 7.63363C16.2087 7.66073 16.2631 7.70031 16.3076 7.74982C16.3521 7.79932 16.3857 7.85763 16.4062 7.92097C16.4267 7.9843 16.4337 8.05124 16.4266 8.11744V9.09877C16.4274 9.1606 16.4157 9.22196 16.3924 9.27922C16.369 9.33649 16.3345 9.38851 16.2908 9.43224C16.2471 9.47596 16.195 9.5105 16.1378 9.53384C16.0805 9.55717 16.0191 9.56882 15.9573 9.56811Z" fill="#554E56"/>
<path d="M15.4666 12.72L12.5439 9.80263C12.4941 9.76024 12.4536 9.70804 12.425 9.64928C12.3963 9.59052 12.3801 9.52647 12.3774 9.46116C12.3746 9.39584 12.3854 9.33066 12.409 9.26971C12.4326 9.20875 12.4686 9.15333 12.5146 9.10692C12.5607 9.06051 12.6158 9.02411 12.6766 9C12.7374 8.9759 12.8024 8.9646 12.8678 8.96683C12.9331 8.96905 12.9973 8.98475 13.0563 9.01294C13.1153 9.04112 13.1678 9.08119 13.2106 9.13063L16.1332 12.0533C16.1773 12.0969 16.2122 12.1488 16.236 12.2061C16.2599 12.2633 16.2722 12.3246 16.2722 12.3866C16.2722 12.4486 16.2599 12.51 16.236 12.5672C16.2122 12.6244 16.1773 12.6763 16.1332 12.72C16.0896 12.764 16.0377 12.7989 15.9805 12.8228C15.9232 12.8466 15.8619 12.8589 15.7999 12.8589C15.7379 12.8589 15.6765 12.8466 15.6193 12.8228C15.5621 12.7989 15.5102 12.764 15.4666 12.72Z" fill="#E94444"/>
<path d="M20.3627 12.9974H19.3867C19.3205 13.0045 19.2536 12.9975 19.1903 12.977C19.1269 12.9565 19.0686 12.9229 19.0191 12.8784C18.9696 12.8339 18.93 12.7795 18.9029 12.7187C18.8758 12.6578 18.8618 12.592 18.8618 12.5254C18.8618 12.4589 18.8758 12.393 18.9029 12.3322C18.93 12.2714 18.9696 12.217 19.0191 12.1725C19.0686 12.128 19.1269 12.0944 19.1903 12.0739C19.2536 12.0534 19.3205 12.0464 19.3867 12.0534H20.3627C20.4289 12.0464 20.4959 12.0534 20.5592 12.0739C20.6225 12.0944 20.6808 12.128 20.7304 12.1725C20.7799 12.217 20.8194 12.2714 20.8465 12.3322C20.8736 12.393 20.8876 12.4589 20.8876 12.5254C20.8876 12.592 20.8736 12.6578 20.8465 12.7187C20.8194 12.7795 20.7799 12.8339 20.7304 12.8784C20.6808 12.9229 20.6225 12.9565 20.5592 12.977C20.4959 12.9975 20.4289 13.0045 20.3627 12.9974Z" fill="#554E56"/>
<path d="M18.0747 10.5066C17.9871 10.4178 17.938 10.298 17.938 10.1733C17.938 10.0485 17.9871 9.92877 18.0747 9.83995L18.7681 9.14662C18.8565 9.05821 18.9764 9.00854 19.1014 9.00854C19.2264 9.00854 19.3463 9.05821 19.4347 9.14662C19.5231 9.23502 19.5728 9.35492 19.5728 9.47995C19.5728 9.60497 19.5231 9.72488 19.4347 9.81328L18.7467 10.5066C18.6569 10.5946 18.5365 10.6443 18.4107 10.6453C18.3484 10.6454 18.2866 10.6332 18.2289 10.6094C18.1713 10.5856 18.1189 10.5507 18.0747 10.5066Z" fill="#554E56"/>
<path d="M12.5281 12.9974H11.5467C11.4302 12.985 11.3224 12.93 11.244 12.8428C11.1657 12.7557 11.1223 12.6426 11.1223 12.5254C11.1223 12.4083 11.1657 12.2952 11.244 12.2081C11.3224 12.1209 11.4302 12.0659 11.5467 12.0534H12.5281C12.5943 12.0464 12.6612 12.0534 12.7245 12.0739C12.7879 12.0944 12.8462 12.128 12.8957 12.1725C12.9452 12.217 12.9848 12.2714 13.0119 12.3322C13.039 12.393 13.053 12.4589 13.053 12.5254C13.053 12.592 13.039 12.6578 13.0119 12.7187C12.9848 12.7795 12.9452 12.8339 12.8957 12.8784C12.8462 12.9229 12.7879 12.9565 12.7245 12.977C12.6612 12.9975 12.5943 13.0045 12.5281 12.9974Z" fill="#554E56"/>
<path d="M15.9574 13.5039C16.4994 13.5039 16.9387 13.0646 16.9387 12.5226C16.9387 11.9806 16.4994 11.5413 15.9574 11.5413C15.4154 11.5413 14.9761 11.9806 14.9761 12.5226C14.9761 13.0646 15.4154 13.5039 15.9574 13.5039Z" fill="#EE6161"/>
</svg>
