<svg width="48" height="48" viewBox="0 0 48 48" fill="none" xmlns="http://www.w3.org/2000/svg">
<path d="M21.5137 29.8611H43.4062V43.8031H21.5137V29.8611Z" fill="#ACACAC"/>
<path d="M40.627 29.8611H43.406V43.8031H40.627V29.8611Z" fill="#9C9C9C"/>
<path d="M26.9541 19.8614H32.3944V29.8611H26.9541V19.8614Z" fill="#82AEE3"/>
<path d="M32.3936 19.8614H37.8339V29.8611H32.3936V19.8614Z" fill="#C0D6F2"/>
<path d="M37.834 19.8614H43.2743V29.8611H37.834V19.8614Z" fill="#82AEE3"/>
<path d="M45.0394 43.8031H2.94895C2.56991 43.8031 2.2627 43.4959 2.2627 43.1168V33.4025C2.2627 33.0234 2.56991 32.7162 2.94895 32.7162H45.0394C45.4184 32.7162 45.7257 33.0234 45.7257 33.4025V43.1167C45.7258 43.4958 45.4184 43.8031 45.0394 43.8031Z" fill="#EBEBEB"/>
<path d="M4.58301 22.7165H10.8005V32.7162H4.58301V22.7165Z" fill="#82AEE3"/>
<path d="M10.8008 22.7165H17.0183V32.7162H10.8008V22.7165Z" fill="#C0D6F2"/>
<path d="M17.0186 22.7165H23.2361V32.7162H17.0186V22.7165Z" fill="#82AEE3"/>
<path d="M23.2354 22.7165H29.4529V32.7162H23.2354V22.7165Z" fill="#C0D6F2"/>
<path d="M11.7029 43.8031H5.8584V37.8141C5.8584 37.2727 6.29734 36.8338 6.83874 36.8338H10.7224C11.2638 36.8338 11.7028 37.2727 11.7028 37.8141L11.7029 43.8031Z" fill="#82AEE3"/>
<path d="M21.8464 43.8031H16.002V37.8141C16.002 37.2727 16.4409 36.8338 16.9823 36.8338H20.866C21.4074 36.8338 21.8463 37.2727 21.8463 37.8141V43.8031H21.8464Z" fill="#82AEE3"/>
<path d="M31.989 43.8031H26.1445V37.8141C26.1445 37.2727 26.5835 36.8338 27.1249 36.8338H31.0086C31.55 36.8338 31.9889 37.2727 31.9889 37.8141V43.8031H31.989Z" fill="#82AEE3"/>
<path d="M42.1316 43.8031H36.2871V37.8141C36.2871 37.2727 36.726 36.8338 37.2675 36.8338H41.1511C41.6925 36.8338 42.1315 37.2727 42.1315 37.8141V43.8031H42.1316Z" fill="#82AEE3"/>
<path d="M40.627 19.8614H43.406V29.8611H40.627V19.8614Z" fill="#528FD8"/>
<path d="M43.4062 5.94608H21.5137V2.71677C21.5137 2.33774 21.8209 2.03052 22.1999 2.03052H42.7198C43.0989 2.03052 43.4061 2.33774 43.4061 2.71677V5.94608H43.4062Z" fill="#ACACAC"/>
<path d="M21.5137 5.94608H26.954V15.9458H21.5137V5.94608Z" fill="#82AEE3"/>
<path d="M26.9541 5.94608H32.3944V15.9458H26.9541V5.94608Z" fill="#C0D6F2"/>
<path d="M32.3936 5.94608H37.8339V15.9458H32.3936V5.94608Z" fill="#82AEE3"/>
<path d="M37.834 5.94608H43.2743V15.9458H37.834V5.94608Z" fill="#C0D6F2"/>
<path d="M21.5137 15.9458H43.4062V19.8614H21.5137V15.9458Z" fill="#ACACAC"/>
<path d="M42.7195 2.03052H39.9404C40.3195 2.03052 40.6267 2.33774 40.6267 2.71677V5.94608H43.4057V2.71677C43.4057 2.33774 43.0984 2.03052 42.7195 2.03052Z" fill="#9C9C9C"/>
<path d="M40.627 5.94608H43.406V15.9458H40.627V5.94608Z" fill="#B2CAEC"/>
<path d="M40.627 15.9458H43.406V19.8613H40.627V15.9458Z" fill="#9C9C9C"/>
<path d="M29.4528 22.7165H4.58301V19.4872C4.58301 19.1081 4.89023 18.8009 5.26926 18.8009H28.7666C29.1456 18.8009 29.4528 19.1081 29.4528 19.4872V22.7165Z" fill="#CECECE"/>
<path d="M23.5368 25.205H10.5001C10.067 25.205 9.71582 24.8539 9.71582 24.4206V12.3082C9.71582 11.8751 10.067 11.5239 10.5001 11.5239H23.5368C23.9699 11.5239 24.3211 11.875 24.3211 12.3082V24.4206C24.3211 24.8538 23.9699 25.205 23.5368 25.205Z" fill="#FEE8C7"/>
<path d="M18.2142 17.2866C17.808 17.2866 17.4789 16.9575 17.4789 16.5514V15.3926C17.4789 15.1389 17.2725 14.9325 17.0187 14.9325C16.7649 14.9325 16.5585 15.1389 16.5585 15.3926V16.5514C16.5585 16.9575 16.2293 17.2866 15.8232 17.2866C15.417 17.2866 15.0879 16.9575 15.0879 16.5514V15.3926C15.0879 14.328 15.954 13.4619 17.0187 13.4619C18.0833 13.4619 18.9495 14.328 18.9495 15.3926V16.5514C18.9495 16.9575 18.6203 17.2866 18.2142 17.2866Z" fill="#5A5A5A"/>
<path d="M20.5742 22.5316H13.4615C13.1645 22.5316 12.9238 22.2908 12.9238 21.9939V17.0891C12.9238 16.7921 13.1646 16.5515 13.4615 16.5515H20.5742C20.8712 16.5515 21.1119 16.7922 21.1119 17.0891V21.9939C21.112 22.2909 20.8712 22.5316 20.5742 22.5316Z" fill="#E94444"/>
<path d="M26.6738 22.7165H29.4529V32.7162H26.6738V22.7165Z" fill="#B2CAEC"/>
<path d="M28.7663 18.8009H25.9873C26.3663 18.8009 26.6736 19.1082 26.6736 19.4872V22.7165H29.4526V19.4872C29.4526 19.1082 29.1454 18.8009 28.7663 18.8009Z" fill="#BFBFBF"/>
<path d="M45.1869 32.7162H3.09641C2.71737 32.7162 2.41016 33.0235 2.41016 33.4025V35.2174H41.4452C41.8242 35.2174 42.1315 35.5246 42.1315 35.9036V43.8031H45.187C45.566 43.8031 45.8732 43.4958 45.8732 43.1168V33.4025C45.8731 33.0235 45.5659 32.7162 45.1869 32.7162Z" fill="#E2E2E2"/>
<path d="M10.7214 36.8338H7.94238C8.48379 36.8338 8.92273 37.2727 8.92273 37.8141V43.8031H11.7018V37.8141C11.7018 37.2726 11.2628 36.8338 10.7214 36.8338Z" fill="#528FD8"/>
<path d="M20.865 36.8338H18.0859C18.6273 36.8338 19.0663 37.2727 19.0663 37.8141V43.8031H21.8453V37.8141C21.8453 37.2726 21.4064 36.8338 20.865 36.8338Z" fill="#528FD8"/>
<path d="M31.0075 36.8338H28.2285C28.7699 36.8338 29.2089 37.2727 29.2089 37.8141V43.8031H31.9879V37.8141C31.988 37.2726 31.549 36.8338 31.0075 36.8338Z" fill="#528FD8"/>
<path d="M41.1511 36.8338H38.3721C38.9135 36.8338 39.3524 37.2727 39.3524 37.8141V43.8031H42.1314V37.8141C42.1314 37.2726 41.6925 36.8338 41.1511 36.8338Z" fill="#528FD8"/>
<path d="M47.324 45.9695H0.676031C0.302625 45.9695 0 45.6667 0 45.2934V42.3128C0 41.9394 0.302719 41.6368 0.676031 41.6368H47.3239C47.6973 41.6368 47.9999 41.9395 47.9999 42.3128V45.2934C48 45.6667 47.6973 45.9695 47.324 45.9695Z" fill="#9C9C9C"/>
<path d="M47.324 41.6367H43.9893C44.3627 41.6367 44.6653 41.9394 44.6653 42.3127V45.2934C44.6653 45.6667 44.3626 45.9695 43.9893 45.9695H47.324C47.6974 45.9695 48.0001 45.6667 48.0001 45.2934V42.3127C48.0001 41.9393 47.6974 41.6367 47.324 41.6367Z" fill="#838383"/>
</svg>
