<svg width="48" height="48" viewBox="0 0 48 48" fill="none" xmlns="http://www.w3.org/2000/svg">
<g clip-path="url(#clip0_12083_17674)">
<path fill-rule="evenodd" clip-rule="evenodd" d="M45.9 9.5001C46.1 9.3001 46.4 9.3001 46.6 9.5001C46.8 9.7001 46.8 10.0001 46.6 10.2001L36.1 20.7001C35.9 20.9001 35.6 20.9001 35.4 20.7001C35.2 20.5001 35.2 20.2001 35.4 20.0001L42.8 12.6001L40.7 10.5001L41.4 9.8001L43.5 11.9001L45.9 9.5001Z" fill="#0054A6"/>
<path fill-rule="evenodd" clip-rule="evenodd" d="M33.7985 38.6999L9.2985 14.1999C8.09851 14.5999 6.6985 14.5999 5.3985 14.1999C1.4985 13.1999 -0.801495 9.19987 0.298505 5.29987C1.2985 1.39987 5.2985 -0.900128 9.1985 0.199872C13.0985 1.29987 15.3985 5.19987 14.2985 9.09987C14.2985 9.19987 14.2985 9.19987 14.2985 9.29987L38.7985 33.7999C39.9985 33.3999 41.3985 33.3999 42.6985 33.7999C46.5985 34.7999 48.8985 38.7999 47.7985 42.6999C47.7985 42.7999 47.7985 42.7999 47.6985 42.8999L42.9985 38.0999L39.0985 39.0999L38.0985 42.9999L42.7985 47.6999C41.5985 48.0999 40.1985 48.0999 38.8985 47.7999C34.9985 46.7999 32.6985 42.7999 33.7985 38.8999C33.6985 38.7999 33.7985 38.6999 33.7985 38.6999ZM8.2985 3.19987L4.2985 4.29987L3.1985 8.29987L6.1985 11.2999L10.1985 10.1999L11.2985 6.19987L8.2985 3.19987Z" fill="#839299"/>
<path fill-rule="evenodd" clip-rule="evenodd" d="M39.7016 19.2001C39.6016 18.9001 39.8016 18.7001 40.0016 18.6001C40.3016 18.5001 40.5016 18.7001 40.6016 18.9001C40.8016 19.7001 41.0016 20.6001 41.2016 21.4001C41.3016 22.2001 41.4016 23.1001 41.4016 24.0001C41.4016 25.2001 41.3016 26.4001 41.0016 27.6001C40.8016 28.8001 40.4016 29.9001 39.9016 31.0001C39.8016 31.2001 39.5016 31.4001 39.3016 31.3001C39.1016 31.2001 38.9016 30.9001 39.0016 30.7001C39.4016 29.7001 39.8016 28.6001 40.0016 27.5001C40.2016 26.4001 40.3016 25.3001 40.3016 24.1001C40.3016 23.3001 40.2016 22.5001 40.1016 21.7001C40.1016 20.8001 40.0016 20.0001 39.7016 19.2001ZM30.8016 39.0001C31.0016 38.9001 31.3016 39.0001 31.4016 39.2001C31.5016 39.4001 31.4016 39.7001 31.2016 39.8001C30.1016 40.3001 28.9016 40.7001 27.7016 40.9001C26.5016 41.2001 25.3016 41.3001 24.0016 41.3001C22.7016 41.3001 21.5016 41.2001 20.3016 40.9001C19.1016 40.6001 17.9016 40.3001 16.8016 39.8001C16.6016 39.7001 16.4016 39.4001 16.6016 39.2001C16.7016 39.0001 17.0016 38.8001 17.2016 39.0001C18.2016 39.5001 19.3016 39.8001 20.5016 40.1001C21.6016 40.3001 22.8016 40.5001 24.0016 40.5001C25.2016 40.5001 26.3016 40.4001 27.5016 40.1001C28.6016 39.8001 29.7016 39.5001 30.8016 39.0001ZM9.00156 30.8001C9.10156 31.0001 9.00156 31.3001 8.80156 31.4001C8.60156 31.5001 8.30156 31.4001 8.20156 31.2001C7.60156 30.0001 7.20156 28.9001 7.00156 27.7001C6.70156 26.5001 6.60156 25.3001 6.60156 24.0001C6.60156 22.7001 6.70156 21.5001 7.00156 20.3001C7.30156 19.1001 7.60156 17.9001 8.10156 16.8001C8.20156 16.6001 8.50156 16.4001 8.70156 16.6001C9.00156 16.7001 9.10156 17.0001 9.00156 17.2001C8.50156 18.2001 8.20156 19.3001 7.90156 20.5001C7.70156 21.6001 7.50156 22.8001 7.50156 24.0001C7.50156 25.2001 7.60156 26.3001 7.90156 27.5001C8.20156 28.6001 8.50156 29.7001 9.00156 30.8001ZM17.2016 9.0001C17.0016 9.1001 16.7016 9.0001 16.6016 8.8001C16.5016 8.6001 16.6016 8.3001 16.8016 8.2001C18.0016 7.6001 19.1016 7.2001 20.3016 7.0001C21.5016 6.7001 22.7016 6.6001 24.0016 6.6001C25.3016 6.6001 26.5016 6.7001 27.7016 7.0001C28.9016 7.3001 30.1016 7.6001 31.2016 8.1001C31.4016 8.2001 31.6016 8.5001 31.4016 8.7001C31.3016 9.0001 31.0016 9.1001 30.8016 9.0001C29.8016 8.5001 28.7016 8.2001 27.5016 7.9001C26.4016 7.7001 25.2016 7.5001 24.0016 7.5001C22.8016 7.5001 21.7016 7.6001 20.5016 7.9001C19.4016 8.2001 18.3016 8.5001 17.2016 9.0001Z" fill="#002548"/>
<path fill-rule="evenodd" clip-rule="evenodd" d="M39.2969 4.6998L43.0969 8.4998L46.2969 5.2998C47.3969 4.1998 47.3969 2.4998 46.2969 1.4998C45.1969 0.399805 43.4969 0.399805 42.4969 1.4998L39.2969 4.6998Z" fill="#0054A6"/>
<path fill-rule="evenodd" clip-rule="evenodd" d="M6.69687 40.4C6.89687 40.2 7.19688 40.2 7.39687 40.4C7.59687 40.6 7.59687 40.9 7.39687 41.1L2.89688 45.6C2.69688 45.8 2.39688 45.8 2.19688 45.6C1.99688 45.4 1.99688 45.1 2.19688 44.9L6.69687 40.4Z" fill="#556987"/>
<path fill-rule="evenodd" clip-rule="evenodd" d="M10.8984 40.9002L30.2984 21.5002L30.8984 22.1002L45.0984 7.9002L39.8984 2.7002L25.6984 16.9002L26.2984 17.5002L6.89844 36.9002L10.8984 40.9002Z" fill="#0054A6"/>
<path fill-rule="evenodd" clip-rule="evenodd" d="M6.89844 36.8999L10.8984 40.8999L4.29844 44.8999L2.89844 43.4999L6.89844 36.8999Z" fill="#FFDD33"/>
<path fill-rule="evenodd" clip-rule="evenodd" d="M25.7031 16.9002L30.9031 22.1002L32.3031 20.7002L27.1031 15.5002L25.7031 16.9002ZM38.5031 4.1002L43.7031 9.3002L45.1031 7.9002L39.9031 2.7002L38.5031 4.1002Z" fill="#FFDD33"/>
</g>
<defs>
<clipPath id="clip0_12083_17674">
<rect width="48" height="48" fill="white"/>
</clipPath>
</defs>
</svg>
