<svg width="275" height="204" viewBox="0 0 275 204" fill="none" xmlns="http://www.w3.org/2000/svg">
<path d="M0.5 20C0.5 9.23045 9.23045 0.5 20 0.5H255C265.77 0.5 274.5 9.23045 274.5 20V203.5H20C9.23044 203.5 0.5 194.77 0.5 184V20Z" stroke="#DEDEDE"/>
<path d="M84.8804 33.8757L77.5282 29.3096L76.2126 31.5539C75.8256 32.2504 75.0517 32.56 74.2778 32.4826C73.8135 32.4826 73.4265 32.4052 72.9622 32.4052C72.1882 32.4052 71.4917 32.0183 71.1048 31.3217L69.8665 29L62.2822 33.1017L63.5204 35.4235C63.9074 36.12 63.83 36.8939 63.3656 37.5904C63.1335 37.9774 62.9013 38.287 62.6691 38.6739C62.2822 39.3704 61.5856 39.7574 60.8117 39.7574L58.1804 39.68L57.9482 48.2704L60.5795 48.3478C61.3535 48.3478 62.05 48.8122 62.3595 49.5861C62.4369 49.7409 62.5143 49.973 62.6691 50.1278C62.7465 50.2826 62.9013 50.5148 62.9787 50.6696C63.3656 51.3661 63.3656 52.14 62.9787 52.8365L61.5856 55.0809L68.9378 59.6469L70.3308 57.4026C70.7178 56.7061 71.4917 56.3965 72.2656 56.4739C72.73 56.4739 73.1169 56.5513 73.5813 56.5513C74.3552 56.5513 75.0517 56.9383 75.4387 57.6348L76.6769 59.9565L84.2613 55.8548L83.023 53.533C82.6361 52.8365 82.7135 52.0626 83.1778 51.3661C83.41 50.9791 83.6421 50.6696 83.8743 50.2826C84.2613 49.5861 84.9578 49.1991 85.7317 49.1991L88.363 49.2765L88.5952 40.6861L85.9639 40.6087C85.19 40.6087 84.4935 40.1443 84.1839 39.3704C84.1065 39.2157 84.0291 38.9835 83.8743 38.8287C83.7969 38.6739 83.6421 38.4417 83.5648 38.287C83.1778 37.5904 83.1778 36.8165 83.5648 36.12L84.8804 33.8757ZM79.463 41.1504C81.3204 44.5556 80.0048 48.8896 76.5995 50.747C73.1943 52.6043 68.8604 51.2887 67.003 47.8835C65.1456 44.4783 66.4613 40.1443 69.8665 38.287C73.3491 36.4296 77.6056 37.7452 79.463 41.1504Z" fill="#D1D8DB"/>
<path d="M62.36 60.6534L59.3417 55.3908L57.7165 56.3195C57.2522 56.6291 56.633 56.5517 56.2461 56.2421C56.0139 56.0873 55.7043 55.9326 55.4722 55.7778C55.0078 55.5456 54.6983 55.0813 54.6983 54.4621V52.6047H48.6617V54.4621C48.6617 55.0039 48.3522 55.4682 47.8878 55.7778C47.6557 55.9326 47.3461 56.0873 47.1139 56.2421C46.6496 56.5517 46.1078 56.5517 45.6435 56.3195L44.0183 55.3908L41 60.6534L42.6252 61.5821C43.0896 61.8917 43.3217 62.356 43.3217 62.8978C43.3217 63.0526 43.3217 63.2073 43.3217 63.3621C43.3217 63.5169 43.3217 63.6717 43.3217 63.8265C43.3217 64.3682 43.0896 64.91 42.6252 65.1421L41 66.0708L44.0183 71.3334L45.6435 70.4047C46.1078 70.0952 46.727 70.1726 47.1139 70.4821C47.3461 70.6369 47.6557 70.7917 47.8878 70.9465C48.3522 71.1786 48.6617 71.643 48.6617 72.2621V74.1195H54.6983V72.1073C54.6983 71.5656 55.0078 71.1013 55.4722 70.7917C55.7043 70.6369 56.0139 70.4821 56.2461 70.3273C56.7104 70.0178 57.2522 70.0178 57.7165 70.25L59.3417 71.1786L62.36 65.916L60.7348 65.1421C60.2704 64.8326 60.0383 64.3682 60.0383 63.8265C60.0383 63.6717 60.0383 63.5169 60.0383 63.3621C60.0383 63.2073 60.0383 63.0526 60.0383 62.8978C60.0383 62.356 60.2704 61.8143 60.7348 61.5821L62.36 60.6534ZM56.633 63.3621C56.633 66.0708 54.3887 68.3152 51.68 68.3152C48.9713 68.3152 46.727 66.0708 46.727 63.3621C46.727 60.6534 48.9713 58.4091 51.68 58.4091C54.3887 58.4091 56.633 60.576 56.633 63.3621Z" fill="#D1D8DB"/>
<path d="M215.362 169.078H70.486C66.3068 169.078 62.8242 165.673 62.8242 161.416V64.058C62.8242 59.8015 66.2294 56.3962 70.486 56.3962H215.44C219.696 56.3962 223.102 59.8015 223.102 64.058V161.416C223.024 165.595 219.619 169.078 215.362 169.078Z" fill="#829198"/>
<path d="M221.863 175.501H63.9849C58.0258 175.501 53.2275 170.703 53.2275 164.744H232.698C232.621 170.703 227.822 175.501 221.863 175.501Z" fill="#5F737C"/>
<path d="M217.374 62.3552H68.6284V161.261H217.374V62.3552Z" fill="#F8F9FA"/>
<path d="M217.298 62.3552H68.4741V65.9926H217.298V62.3552Z" fill="#002548"/>
<path d="M70.4858 65.0632C70.9987 65.0632 71.4145 64.6474 71.4145 64.1345C71.4145 63.6216 70.9987 63.2058 70.4858 63.2058C69.9729 63.2058 69.5571 63.6216 69.5571 64.1345C69.5571 64.6474 69.9729 65.0632 70.4858 65.0632Z" fill="#EC1C24"/>
<path d="M74.1235 65.063C74.6364 65.063 75.0522 64.6472 75.0522 64.1343C75.0522 63.6214 74.6364 63.2056 74.1235 63.2056C73.6106 63.2056 73.1948 63.6214 73.1948 64.1343C73.1948 64.6472 73.6106 65.063 74.1235 65.063Z" fill="#FFDC33"/>
<path d="M77.8384 65.063C78.3513 65.063 78.7671 64.6472 78.7671 64.1343C78.7671 63.6214 78.3513 63.2056 77.8384 63.2056C77.3255 63.2056 76.9097 63.6214 76.9097 64.1343C76.9097 64.6472 77.3255 65.063 77.8384 65.063Z" fill="#54CB5A"/>
<path d="M168.773 142.842H112.045C111.504 142.842 111.117 142.455 111.117 141.914V141.604C111.117 141.062 111.504 140.675 112.045 140.675H168.773C169.315 140.675 169.702 141.062 169.702 141.604V141.914C169.702 142.455 169.238 142.842 168.773 142.842Z" fill="#D1D8DB"/>
<path d="M152.366 142.842H111.968C111.426 142.842 111.039 142.455 111.039 141.914V141.604C111.039 141.062 111.426 140.675 111.968 140.675H152.366C152.908 140.675 153.295 141.062 153.295 141.604V141.914C153.295 142.455 152.908 142.842 152.366 142.842Z" fill="#0054A5"/>
<path d="M220.574 67.1539C218.329 67.1539 216.085 66.5347 214.15 65.4513C211.132 63.7486 209.042 60.9626 208.114 57.6347C207.185 54.3069 207.649 50.8243 209.429 47.806C211.751 43.7817 216.008 41.3052 220.651 41.3052C222.895 41.3052 225.14 41.9243 227.075 43.0078C233.266 46.5678 235.355 54.5391 231.795 60.653C229.474 64.6773 225.217 67.1539 220.574 67.1539Z" fill="#002548"/>
<path d="M232.469 55.2004C232.99 48.6385 228.093 42.8965 221.532 42.3753C214.97 41.854 209.228 46.7509 208.707 53.3128C208.185 59.8747 213.082 65.6166 219.644 66.1379C226.206 66.6592 231.948 61.7623 232.469 55.2004Z" fill="#0054A5"/>
<g opacity="0.19">
<path d="M232.469 55.2004C232.99 48.6385 228.093 42.8965 221.532 42.3753C214.97 41.854 209.228 46.7509 208.707 53.3128C208.185 59.8747 213.082 65.6166 219.644 66.1379C226.206 66.6592 231.948 61.7623 232.469 55.2004Z" fill="#F8F9FA"/>
</g>
<path d="M234.504 50.5147C233.498 46.7999 231.099 43.7043 227.771 41.7695C225.604 40.5312 223.127 39.8347 220.574 39.8347C215.466 39.8347 210.668 42.6208 208.114 47.0321C206.179 50.3599 205.714 54.2295 206.643 57.9443C207.649 61.6591 210.048 64.7547 213.376 66.6895C215.543 67.9278 218.02 68.6243 220.574 68.6243C225.681 68.6243 230.48 65.8382 233.034 61.4269C234.968 58.0991 235.51 54.2295 234.504 50.5147ZM231.254 60.4208C229.009 64.3678 224.83 66.6121 220.574 66.6121C218.484 66.6121 216.394 66.0704 214.46 64.9869C208.578 61.5817 206.566 54.0747 209.971 48.193C212.215 44.246 216.394 42.0017 220.651 42.0017C222.741 42.0017 224.83 42.5434 226.765 43.6269C232.647 46.9547 234.659 54.5391 231.254 60.4208Z" fill="#0054A5"/>
<path d="M220.574 45.2524C220.419 45.2524 220.264 45.0976 220.264 44.9428V43.008C220.264 42.8533 220.419 42.6985 220.574 42.6985C220.729 42.6985 220.883 42.8533 220.883 43.008V44.9428C220.883 45.0976 220.729 45.2524 220.574 45.2524Z" fill="#D1D8DB"/>
<path d="M211.286 54.5393H209.352C209.197 54.5393 209.042 54.3845 209.042 54.2297C209.042 54.0749 209.197 53.9202 209.352 53.9202H211.286C211.441 53.9202 211.596 54.0749 211.596 54.2297C211.596 54.3845 211.441 54.5393 211.286 54.5393Z" fill="#D1D8DB"/>
<path d="M220.574 65.7609C220.419 65.7609 220.264 65.6062 220.264 65.4514V63.5166C220.264 63.3618 220.419 63.207 220.574 63.207C220.729 63.207 220.883 63.3618 220.883 63.5166V65.4514C220.883 65.6836 220.729 65.7609 220.574 65.7609Z" fill="#D1D8DB"/>
<path d="M231.873 54.5393H229.938C229.783 54.5393 229.628 54.3845 229.628 54.2297C229.628 54.0749 229.783 53.9202 229.938 53.9202H231.873C232.028 53.9202 232.182 54.0749 232.182 54.2297C232.182 54.3845 232.028 54.5393 231.873 54.5393Z" fill="#D1D8DB"/>
<path d="M220.573 54.4619L214.459 54.3845C214.304 54.3845 214.072 54.2297 214.15 53.9976C214.15 53.8428 214.304 53.688 214.537 53.688L220.651 53.7654C220.883 53.7654 221.037 53.9202 220.96 54.1523C220.96 54.3071 220.728 54.4619 220.573 54.4619Z" fill="#EC1C24"/>
<path d="M220.574 54.5393H220.496C220.419 54.4619 220.341 54.3071 220.419 54.2297L224.056 47.574C224.134 47.4967 224.288 47.4193 224.366 47.4967C224.443 47.574 224.521 47.7288 224.443 47.8062L220.806 54.4619C220.728 54.5393 220.651 54.5393 220.574 54.5393Z" fill="#EC1C24"/>
<path d="M220.96 54.9262C220.573 55.1584 220.109 55.0036 219.877 54.6166C219.644 54.2297 219.799 53.7653 220.186 53.5332C220.573 53.301 221.038 53.4558 221.27 53.8427C221.502 54.2297 221.347 54.694 220.96 54.9262Z" fill="#EC1C24"/>
<path d="M220.806 54.6168C220.651 54.6942 220.341 54.6942 220.264 54.4621C220.187 54.3073 220.187 53.9977 220.419 53.9203C220.574 53.8429 220.883 53.8429 220.961 54.0751C221.038 54.2299 220.961 54.462 220.806 54.6168Z" fill="#D1D8DB"/>
<path d="M185.983 132.628H180.875V152.517H185.983V132.628Z" fill="#54CB5A"/>
<path d="M185.983 153.523H180.875V156.773H185.983V153.523Z" fill="#54CB5A"/>
<path d="M185.983 157.78H180.875V159.792H185.983V157.78Z" fill="#54CB5A"/>
<path d="M185.983 160.798H180.875V161.804H185.983V160.798Z" fill="#54CB5A"/>
<path d="M187.685 132.628H179.172L183.428 126.746L187.685 132.628Z" fill="#54CB5A"/>
<path d="M196.121 126.281H191.013V152.517H196.121V126.281Z" fill="#54CB5A"/>
<path d="M196.121 153.523H191.013V156.773H196.121V153.523Z" fill="#54CB5A"/>
<path d="M196.121 157.78H191.013V159.792H196.121V157.78Z" fill="#54CB5A"/>
<path d="M196.121 160.798H191.013V161.804H196.121V160.798Z" fill="#54CB5A"/>
<path d="M197.824 126.281H189.311L193.567 120.399L197.824 126.281Z" fill="#54CB5A"/>
<path d="M206.337 119.935H201.229V152.517H206.337V119.935Z" fill="#54CB5A"/>
<path d="M206.337 153.523H201.229V156.773H206.337V153.523Z" fill="#54CB5A"/>
<path d="M206.337 157.779H201.229V159.791H206.337V157.779Z" fill="#54CB5A"/>
<path d="M206.337 160.798H201.229V161.804H206.337V160.798Z" fill="#54CB5A"/>
<path d="M207.962 119.935H199.526L203.782 114.053L207.962 119.935Z" fill="#54CB5A"/>
<path d="M216.475 113.589H211.367V152.517H216.475V113.589Z" fill="#54CB5A"/>
<path d="M216.475 153.523H211.367V156.773H216.475V153.523Z" fill="#54CB5A"/>
<path d="M216.475 157.779H211.367V159.791H216.475V157.779Z" fill="#54CB5A"/>
<path d="M216.475 160.798H211.367V161.804H216.475V160.798Z" fill="#54CB5A"/>
<path d="M218.178 113.589H209.665L213.921 107.707L218.178 113.589Z" fill="#54CB5A"/>
<path d="M76.6283 119H70.7466V161.101H76.6283V119Z" fill="#0054A5"/>
<path d="M86.8441 129H80.9624V160.885H86.8441V129Z" fill="#0054A5"/>
<path d="M104.636 92.5467L102.592 90.2732L101.888 90.9152C101.704 91.0886 101.408 91.1528 101.117 91.0376C100.971 90.9801 100.826 90.9225 100.69 90.9075C100.408 90.8349 100.226 90.6072 100.17 90.352L99.9679 89.4164L97.0027 90.058L97.2052 90.9936C97.2604 91.2488 97.1462 91.5406 96.962 91.714C96.8533 91.8266 96.7354 91.8966 96.6268 92.0091C96.4426 92.1826 96.1553 92.2892 95.8735 92.2166L94.9675 91.923L94.0462 94.838L94.9522 95.1317C95.1916 95.2135 95.4163 95.432 95.4384 95.7388C95.4568 95.8239 95.466 95.8664 95.4844 95.9515C95.5028 96.0365 95.512 96.0791 95.5304 96.1641C95.5856 96.4193 95.5137 96.702 95.3295 96.8754L94.6259 97.5173L96.6698 99.7908L97.3734 99.1489C97.5576 98.9755 97.8541 98.9113 98.1451 99.0264C98.2906 99.084 98.436 99.1416 98.5723 99.1566C98.8541 99.2292 99.0364 99.4569 99.0916 99.7121L99.294 100.648L102.259 100.006L102.057 99.0705C102.001 98.8153 102.116 98.5235 102.3 98.3501C102.409 98.2375 102.526 98.1675 102.635 98.0549C102.819 97.8815 103.107 97.7748 103.388 97.8474L104.294 98.1411L105.216 95.2261L104.31 94.9324C104.07 94.8506 103.888 94.6229 103.833 94.3678C103.814 94.2827 103.805 94.2402 103.787 94.1551C103.768 94.0701 103.759 94.0275 103.741 93.9425C103.685 93.6873 103.757 93.4046 103.932 93.1887L104.636 92.5467ZM102.041 94.4884C102.335 95.8493 101.473 97.1933 100.118 97.4866C98.7622 97.7799 97.4216 96.9124 97.1272 95.5515C96.8327 94.1906 97.6948 92.8465 99.0503 92.5533C100.448 92.2508 101.746 93.1274 102.041 94.4884Z" fill="#829198"/>
<path d="M209.045 76.7507L202.467 72.6489L201.229 74.6611C200.842 75.2802 200.223 75.5898 199.526 75.5124C199.139 75.5124 198.752 75.435 198.365 75.5124C197.669 75.5124 197.05 75.1254 196.663 74.5837L195.502 72.4941L188.614 76.1315L189.775 78.2211C190.084 78.8402 190.084 79.6141 189.62 80.1559C189.388 80.4654 189.156 80.775 189.001 81.162C188.691 81.7811 187.995 82.1681 187.298 82.1681L184.899 82.0907L184.667 89.8298L187.066 89.9072C187.763 89.9072 188.382 90.3715 188.691 90.9907C188.769 91.1454 188.846 91.3002 188.924 91.5324C189.001 91.6872 189.078 91.842 189.233 91.9967C189.62 92.6159 189.62 93.3124 189.233 93.9315L187.995 95.9437L194.573 100.045L195.811 98.0333C196.198 97.4141 196.817 97.1046 197.514 97.182C197.901 97.182 198.288 97.2594 198.675 97.182C199.371 97.182 199.99 97.5689 200.377 98.1107L201.538 100.2L208.426 96.5628L207.265 94.4733C206.956 93.8541 206.956 93.0802 207.42 92.5385C207.652 92.2289 207.807 91.9194 208.039 91.5324C208.349 90.9133 209.045 90.5263 209.742 90.5263L212.141 90.6037L212.373 82.8646L209.974 82.7872C209.277 82.7872 208.658 82.3228 208.349 81.7037C208.271 81.5489 208.194 81.3941 208.117 81.162C208.039 81.0072 207.962 80.8524 207.807 80.6976C207.42 80.0785 207.42 79.382 207.807 78.7628L209.045 76.7507ZM204.092 83.3289C205.717 86.4246 204.557 90.2941 201.461 91.9194C198.365 93.5446 194.496 92.3837 192.87 89.2881C191.245 86.1924 192.406 82.3228 195.502 80.6976C198.597 79.0724 202.467 80.2333 204.092 83.3289Z" fill="#829198"/>
<path d="M188.769 100.897L186.061 96.176L184.59 97.0273C184.203 97.2595 183.661 97.2595 183.197 96.9499C182.965 96.7951 182.733 96.6403 182.501 96.5629C182.036 96.3308 181.804 95.8664 181.804 95.4021V93.6995H176.387V95.4021C176.387 95.8664 176.077 96.3308 175.69 96.5629C175.458 96.7177 175.226 96.7951 174.994 96.9499C174.607 97.1821 174.065 97.2595 173.601 97.0273L172.13 96.176L169.421 100.897L170.892 101.748C171.279 101.98 171.588 102.445 171.511 102.986C171.511 103.141 171.511 103.219 171.511 103.373C171.511 103.528 171.511 103.606 171.511 103.76C171.511 104.225 171.279 104.689 170.892 104.921L169.421 105.773L172.13 110.493L173.601 109.642C173.987 109.41 174.529 109.41 174.994 109.719C175.226 109.874 175.458 110.029 175.69 110.106C176.154 110.339 176.387 110.803 176.387 111.267V112.97H181.804V111.267C181.804 110.803 182.114 110.339 182.501 110.106C182.733 109.952 182.965 109.874 183.197 109.719C183.584 109.487 184.126 109.41 184.59 109.642L186.061 110.493L188.769 105.773L187.299 104.921C186.912 104.689 186.68 104.225 186.68 103.76C186.68 103.606 186.68 103.528 186.68 103.373C186.68 103.219 186.68 103.141 186.68 102.986C186.68 102.522 186.912 102.058 187.299 101.748L188.769 100.897ZM183.507 103.296C183.507 105.773 181.494 107.785 179.018 107.785C176.541 107.785 174.529 105.773 174.529 103.296C174.529 100.819 176.541 98.8073 179.018 98.8073C181.572 98.8073 183.507 100.819 183.507 103.296Z" fill="#829198"/>
<path opacity="0.6" d="M187.995 160.333C187.995 161.107 187.376 161.803 186.525 161.803H95.6672C94.8933 161.803 94.1968 161.184 94.1968 160.333C94.1968 159.559 94.8159 158.862 95.6672 158.862C95.822 158.862 95.8994 158.862 95.9768 158.94C95.9768 157.315 97.2924 156.076 98.8403 156.076C99.6142 156.076 100.388 156.386 100.93 156.928C100.93 156.773 100.93 156.541 100.93 156.386C100.93 153.368 103.329 150.968 106.347 150.968C107.199 150.968 108.05 151.201 108.746 151.51C108.901 149.498 110.526 147.873 112.616 147.873C114.241 147.873 115.634 148.879 116.253 150.349C117.182 148.801 118.885 147.795 120.819 147.795C121.206 147.795 121.516 147.795 121.825 147.873C121.748 147.486 121.748 147.021 121.748 146.635C121.748 142.61 124.999 139.282 129.1 139.282C130.958 139.282 132.583 139.979 133.899 141.062C134.131 140.598 134.595 140.288 135.214 140.288C135.446 140.288 135.601 140.366 135.756 140.366L137.149 103.915H145.12L146.513 140.366C146.668 140.288 146.9 140.288 147.055 140.288C147.597 140.288 148.138 140.598 148.371 141.062C149.686 139.979 151.312 139.282 153.169 139.282C157.193 139.282 160.521 142.533 160.521 146.635C160.521 147.099 160.521 147.486 160.444 147.873C160.753 147.795 161.14 147.795 161.45 147.795C163.385 147.795 165.087 148.801 166.016 150.349C166.558 148.879 167.951 147.873 169.653 147.873C171.743 147.873 173.368 149.498 173.523 151.51C174.219 151.123 175.071 150.968 175.922 150.968C178.94 150.968 181.339 153.368 181.339 156.386C181.339 156.541 181.339 156.773 181.339 156.928C181.881 156.386 182.578 156.076 183.429 156.076C185.054 156.076 186.292 157.392 186.292 158.94C186.37 158.94 186.525 158.862 186.602 158.862C187.298 158.862 187.995 159.481 187.995 160.333Z" fill="#FFDC33"/>
<path opacity="0.6" d="M108.668 146.789C108.668 148.182 107.508 149.266 106.192 149.266C104.876 149.266 103.715 148.105 103.715 146.789C103.715 145.396 104.876 144.312 106.192 144.312C107.508 144.312 108.668 145.396 108.668 146.789Z" fill="#FFDC33"/>
<path opacity="0.6" d="M111.765 141.991C111.765 142.687 111.223 143.229 110.526 143.229C109.83 143.229 109.288 142.687 109.288 141.991C109.288 141.294 109.83 140.753 110.526 140.753C111.145 140.753 111.765 141.294 111.765 141.991Z" fill="#FFDC33"/>
<path opacity="0.6" d="M165.396 145.551C165.396 146.247 164.855 146.789 164.158 146.789C163.462 146.789 162.92 146.247 162.92 145.551C162.92 144.854 163.462 144.312 164.158 144.312C164.855 144.312 165.396 144.932 165.396 145.551Z" fill="#FFDC33"/>
<path opacity="0.6" d="M189.852 156.695C189.852 157.392 189.31 157.934 188.614 157.934C187.917 157.934 187.375 157.392 187.375 156.695C187.375 155.999 187.917 155.457 188.614 155.457C189.31 155.534 189.852 156.076 189.852 156.695Z" fill="#FFDC33"/>
<path d="M127.475 75.1252C127.165 75.1252 116.485 80.0783 115.866 92.2287C115.247 103.373 122.986 113.976 123.992 113.279C125.231 112.428 123.141 105.463 125.54 97.4913C126.391 94.7052 130.029 92.1513 130.029 92.1513L127.475 75.1252Z" fill="#0054A5"/>
<path opacity="0.19" d="M130.029 92.1513C130.029 92.1513 128.403 93.2348 127.088 94.7826C125.463 91.2226 122.522 84.6444 120.587 80.3105C123.683 76.6731 127.243 75.1252 127.397 75.1252L130.029 92.1513Z" fill="#2D2F31"/>
<path d="M154.639 75.1252C154.948 75.1252 165.628 80.0783 166.247 92.2287C166.789 103.373 159.05 113.976 158.121 113.279C156.883 112.428 158.973 105.463 156.651 97.4913C155.8 94.7052 152.162 92.1513 152.162 92.1513L154.639 75.1252Z" fill="#0054A5"/>
<path opacity="0.19" d="M161.527 80.3879C159.592 84.7218 156.652 91.3774 155.026 94.86C153.711 93.3122 152.085 92.1513 152.085 92.1513L154.639 75.1252C154.794 75.1252 158.354 76.7505 161.527 80.3879Z" fill="#2D2F31"/>
<path d="M149.145 102.986H133.047C133.047 102.986 125.463 89.4427 126.392 73.1905C126.856 65.1418 128.946 57.0157 131.5 50.2827C134.982 40.9957 139.316 34.4175 141.174 34.4175C143.031 34.4175 147.365 40.9957 150.847 50.2827C153.401 57.0157 155.491 65.1418 155.878 73.2679C156.729 89.4427 149.145 102.986 149.145 102.986Z" fill="#D1D8DB"/>
<path opacity="0.19" d="M150.77 71.1781C150.77 76.2859 146.591 80.465 141.483 80.465C136.375 80.465 132.196 76.2859 132.196 71.1781C132.196 66.0702 136.375 61.8911 141.483 61.8911C146.591 61.8911 150.77 66.0702 150.77 71.1781Z" fill="#2D2F31"/>
<path d="M150.383 70.2494C150.383 75.3572 146.204 79.5363 141.096 79.5363C135.988 79.5363 131.809 75.3572 131.809 70.2494C131.809 65.1415 135.988 60.9624 141.096 60.9624C146.281 60.9624 150.383 65.0641 150.383 70.2494Z" fill="#EC1C24"/>
<path d="M147.596 70.2497C147.596 73.8097 144.733 76.6732 141.173 76.6732C137.613 76.6732 134.75 73.8097 134.75 70.2497C134.75 66.6897 137.613 63.8262 141.173 63.8262C144.656 63.7488 147.596 66.6897 147.596 70.2497Z" fill="#F8F9FA"/>
<g opacity="0.19">
<path d="M147.597 70.2497C147.597 71.101 147.443 71.8749 147.133 72.5715L143.496 76.2089C142.799 76.5184 141.948 76.6732 141.174 76.6732C140.555 76.6732 140.013 76.5958 139.471 76.441L147.365 68.4697C147.52 69.0115 147.597 69.6306 147.597 70.2497Z" fill="#2D2F31"/>
<path d="M142.102 63.8257L134.75 71.1778C134.672 70.8683 134.672 70.5587 134.672 70.2491C134.672 66.6891 137.536 63.8257 141.096 63.8257C141.405 63.7483 141.792 63.8257 142.102 63.8257Z" fill="#2D2F31"/>
<path d="M146.746 67.0766L138 75.8219C137.846 75.7445 137.691 75.6671 137.536 75.5123L146.514 66.5349C146.591 66.7671 146.668 66.9219 146.746 67.0766Z" fill="#2D2F31"/>
</g>
<path d="M150.77 50.2827H131.422C134.904 40.9957 139.238 34.4175 141.096 34.4175C143.031 34.4175 147.287 40.9957 150.77 50.2827Z" fill="#EC1C24"/>
<path d="M134.75 48.2703C134.75 48.5798 134.518 48.812 134.208 48.812C133.899 48.812 133.667 48.5798 133.667 48.2703C133.667 47.9607 133.899 47.7285 134.208 47.7285C134.518 47.7285 134.75 48.0381 134.75 48.2703Z" fill="#D1D8DB"/>
<path d="M138.232 48.2705C138.232 48.5801 138 48.8122 137.691 48.8122C137.381 48.8122 137.149 48.5801 137.149 48.2705C137.149 47.9609 137.381 47.7288 137.691 47.7288C138 47.7288 138.232 48.0383 138.232 48.2705Z" fill="#D1D8DB"/>
<path d="M141.637 48.3484C141.637 48.6579 141.405 48.8901 141.095 48.8901C140.786 48.8901 140.554 48.6579 140.554 48.3484C140.554 48.0388 140.786 47.8066 141.095 47.8066C141.405 47.8066 141.637 48.0388 141.637 48.3484Z" fill="#D1D8DB"/>
<path d="M145.12 48.3484C145.12 48.6579 144.888 48.8901 144.578 48.8901C144.269 48.8901 144.037 48.6579 144.037 48.3484C144.037 48.0388 144.269 47.8066 144.578 47.8066C144.888 47.8066 145.12 48.0388 145.12 48.3484Z" fill="#D1D8DB"/>
<path d="M148.525 48.3484C148.525 48.6579 148.293 48.8901 147.983 48.8901C147.674 48.8901 147.441 48.6579 147.441 48.3484C147.441 48.0388 147.674 47.8066 147.983 47.8066C148.293 47.8066 148.525 48.0388 148.525 48.3484Z" fill="#D1D8DB"/>
<path d="M134.75 100.51C134.75 100.819 134.518 101.051 134.208 101.051C133.899 101.051 133.667 100.819 133.667 100.51C133.667 100.2 133.899 99.9678 134.208 99.9678C134.518 99.9678 134.75 100.2 134.75 100.51Z" fill="#829198"/>
<path d="M138.155 100.509C138.155 100.819 137.923 101.051 137.613 101.051C137.303 101.051 137.071 100.819 137.071 100.509C137.071 100.2 137.303 99.9675 137.613 99.9675C137.923 99.9675 138.155 100.2 138.155 100.509Z" fill="#829198"/>
<path d="M141.637 100.509C141.637 100.819 141.405 101.051 141.095 101.051C140.786 101.051 140.554 100.819 140.554 100.509C140.554 100.2 140.786 99.9675 141.095 99.9675C141.405 99.9675 141.637 100.2 141.637 100.509Z" fill="#829198"/>
<path d="M145.12 100.509C145.12 100.819 144.888 101.051 144.578 101.051C144.269 101.051 144.037 100.819 144.037 100.509C144.037 100.2 144.269 99.9675 144.578 99.9675C144.811 99.9675 145.12 100.2 145.12 100.509Z" fill="#829198"/>
<path d="M148.525 100.509C148.525 100.819 148.293 101.051 147.983 101.051C147.674 101.051 147.441 100.819 147.441 100.509C147.441 100.2 147.674 99.9675 147.983 99.9675C148.293 99.9675 148.525 100.2 148.525 100.509Z" fill="#829198"/>
<path d="M147.675 107.862H134.518L133.899 102.986H148.294L147.675 107.862Z" fill="#EC1C24"/>
<path opacity="0.19" d="M148.294 102.986L147.984 105.385L134.131 104.843L133.899 102.986H148.294Z" fill="#2D2F31"/>
<path d="M103.454 98.5748L96.1022 105.772C95.5605 106.314 94.6318 106.314 94.0127 105.772L89.137 100.819C88.5953 100.277 88.5953 99.3487 89.137 98.7296L96.4892 91.5322C92.6196 90.2165 88.2083 91.0678 85.1127 94.0861C81.3979 97.7235 80.7787 103.218 83.2553 107.475C83.2553 107.475 83.2553 107.552 83.3327 107.552L49.3579 139.979C47.9648 141.295 47.9648 143.462 49.2805 144.777C50.5961 146.093 52.7631 146.093 54.0788 144.777L87.2022 111.499C87.2022 111.499 87.2796 111.499 87.2796 111.577C91.5361 114.13 97.0309 113.589 100.746 109.951C103.764 106.933 104.693 102.522 103.454 98.5748ZM53.1501 143.152C52.6083 143.849 51.6022 144.003 50.9057 143.462C50.2092 142.92 50.0544 141.914 50.5961 141.217C51.1379 140.521 52.144 140.366 52.8405 140.908C53.537 141.45 53.6918 142.456 53.1501 143.152Z" fill="#D1D8DB"/>
<path d="M96.9828 145H91.1011V160.943H96.9828V145Z" fill="#0054A5"/>
<path d="M107.198 136H101.316V161.075H107.198V136Z" fill="#0054A5"/>
<path d="M116.475 121H110.593V161.243H116.475V121Z" fill="#0054A5"/>
</svg>
