<svg width="48" height="48" viewBox="0 0 48 48" fill="none" xmlns="http://www.w3.org/2000/svg">
<path d="M28.1977 42.5C27.6977 42 26.8977 42 26.3977 42.5L25.1977 43.7V40.4C25.1977 39.7 24.5977 39.1 23.8977 39.1C23.1977 39.1 22.5977 39.7 22.5977 40.4V43.7L21.3977 42.5C20.8977 42 20.0977 42 19.5977 42.5C19.0977 43 19.0977 43.8 19.5977 44.3L22.8977 47.6C23.0977 47.8 23.4977 48 23.7977 48C24.0977 48 24.3977 47.9 24.6977 47.6L27.9977 44.3C28.6977 43.8 28.6977 43 28.1977 42.5Z" fill="#0054A6"/>
<path d="M10.8968 31.6C10.5968 31 9.7968 30.8 9.1968 31.1L6.6968 32.5L7.0968 31C7.2968 30.3 6.8968 29.6 6.1968 29.5C5.4968 29.3 4.7968 29.7 4.6968 30.4L3.4968 34.9C3.2968 35.6 3.6968 36.3 4.3968 36.4L8.8968 37.6C8.9968 37.6 9.0968 37.6 9.1968 37.6C9.7968 37.6 10.2968 37.2 10.3968 36.7C10.5968 36 10.1968 35.3 9.4968 35.2L7.8968 34.8L10.3968 33.4C10.9968 33 11.1968 32.2 10.8968 31.6Z" fill="#0054A6"/>
<path d="M10.3985 14.7L7.5985 13.1L9.2985 12.6C9.9985 12.4 10.3985 11.7 10.1985 11.1C9.9985 10.4 9.2985 10 8.5985 10.2L4.0985 11.4C3.7985 11.5 3.4985 11.7 3.2985 12C3.0985 12.3 3.0985 12.6 3.1985 13L4.3985 17.5C4.5985 18.1 5.0985 18.4 5.5985 18.4C5.6985 18.4 5.7985 18.4 5.8985 18.4C6.5985 18.2 6.9985 17.5 6.7985 16.9L6.3985 15.4L9.0985 16.9C9.2985 17 9.5985 17 9.7985 17C10.1985 17 10.6985 16.8 10.8985 16.4C11.1985 15.8 10.9985 15 10.3985 14.7Z" fill="#0054A6"/>
<path d="M44.698 12.1C44.498 11.8 44.298 11.6 43.898 11.5L39.398 10.3C38.698 10.1 37.998 10.5 37.898 11.2C37.698 11.9 38.098 12.6 38.798 12.7L40.398 13.1L37.798 14.6C37.198 14.9 36.998 15.7 37.298 16.3C37.498 16.7 37.998 16.9 38.398 16.9C38.598 16.9 38.798 16.8 38.998 16.7L41.698 15.1L41.098 17C40.898 17.7 41.298 18.4 41.998 18.5C42.098 18.5 42.198 18.5 42.298 18.5C42.898 18.5 43.398 18.1 43.498 17.6L44.698 13.1C44.898 12.8 44.798 12.4 44.698 12.1Z" fill="#0054A6"/>
<path d="M44.6003 34.8L43.4003 30.3C43.2003 29.6 42.5003 29.2 41.9003 29.4C41.3003 29.6 40.8003 30.3 41.0003 30.9L41.4003 32.6L38.9003 31.2C38.3003 30.9 37.5003 31.1 37.2003 31.7C36.9003 32.3 37.1003 33.1 37.7003 33.4L40.1003 34.8L38.6003 35.2C37.9003 35.4 37.5003 36.1 37.7003 36.7C37.9003 37.3 38.4003 37.6 38.9003 37.6C39.0003 37.6 39.1003 37.6 39.2003 37.6L43.7003 36.4C44.4003 36.2 44.8003 35.5 44.6003 34.8Z" fill="#0054A6"/>
<path d="M28.1969 3.7L24.8969 0.4C24.3969 -0.1 23.5969 -0.1 23.0969 0.4L19.7969 3.7C19.2969 4.2 19.2969 5 19.7969 5.5C20.2969 6 21.0969 6 21.5969 5.5L22.7969 4.3V7.6C22.7969 8.3 23.3969 8.9 24.0969 8.9C24.7969 8.9 25.3969 8.3 25.3969 7.6V4.3L26.5969 5.5C26.7969 5.7 27.1969 5.9 27.4969 5.9C27.7969 5.9 28.0969 5.8 28.3969 5.5C28.6969 5 28.6969 4.2 28.1969 3.7Z" fill="#0054A6"/>
<path d="M35.8992 21.6C35.5992 21.6 35.2992 21.5 34.9992 21.3C34.6992 21.1 34.4992 20.9 34.3992 20.5C34.1992 20 34.0992 19.6 33.7992 19.1C33.4992 18.5 33.5992 17.8 34.0992 17.3C34.6992 16.7 34.6992 15.7 34.0992 15.1L32.7992 13.8C32.1992 13.2 31.1992 13.2 30.5992 13.8C30.0992 14.3 29.3992 14.4 28.7992 14.1C28.3992 13.9 27.8992 13.7 27.3992 13.5C26.7992 13.3 26.2992 12.7 26.2992 12C26.2992 11.6 26.0992 11.2 25.7992 10.9C25.4992 10.6 25.0992 10.4 24.6992 10.4H22.8992C21.9992 10.4 21.3992 11.1 21.3992 11.9C21.3992 12.2 21.2992 12.5 21.0992 12.8C20.8992 13.1 20.6992 13.3 20.2992 13.4C19.7992 13.6 19.3992 13.7 18.8992 14C18.2992 14.3 17.5992 14.2 17.0992 13.7C16.4992 13.1 15.4992 13.1 14.8992 13.7L13.5992 15C12.9992 15.6 12.9992 16.6 13.5992 17.2C14.0992 17.7 14.1992 18.4 13.8992 19C13.6992 19.4 13.4992 19.9 13.2992 20.4C13.0992 21 12.4992 21.5 11.7992 21.5C11.3992 21.5 10.9992 21.7 10.6992 22C10.3992 22.3 10.1992 22.7 10.1992 23.1V24.9C10.1992 25.8 10.8992 26.4 11.6992 26.4C11.9992 26.4 12.2992 26.5 12.5992 26.7C12.8992 26.9 13.0992 27.1 13.1992 27.5C13.3992 28 13.4992 28.4 13.7992 28.9C14.0992 29.5 13.9992 30.2 13.4992 30.7C12.8992 31.3 12.8992 32.3 13.4992 32.9L14.7992 34.2C15.3992 34.8 16.3992 34.8 16.9992 34.2C17.4992 33.7 18.1992 33.6 18.7992 33.9C19.1992 34.1 19.6992 34.3 20.1992 34.5C20.7992 34.7 21.2992 35.3 21.2992 36C21.2992 36.4 21.4992 36.8 21.7992 37.1C22.0992 37.4 22.4992 37.6 22.8992 37.6H24.6992C25.5992 37.6 26.1992 36.9 26.1992 36.1C26.1992 35.8 26.2992 35.5 26.4992 35.2C26.6992 34.9 26.8992 34.7 27.2992 34.6C27.7992 34.4 28.1992 34.3 28.6992 34C29.2992 33.7 29.9992 33.8 30.4992 34.3C31.0992 34.9 32.0992 34.9 32.6992 34.3L33.9992 33C34.5992 32.4 34.5992 31.4 33.9992 30.8C33.4992 30.3 33.3992 29.6 33.6992 29C33.8992 28.6 34.0992 28.1 34.2992 27.6C34.4992 27 35.0992 26.5 35.7992 26.5C36.1992 26.5 36.5992 26.3 36.8992 26C37.1992 25.7 37.3992 25.3 37.3992 24.9V23.1C37.3992 22.3 36.6992 21.6 35.8992 21.6ZM23.9992 28.9C21.2992 28.9 19.0992 26.7 19.0992 24C19.0992 21.3 21.2992 19.1 23.9992 19.1C26.6992 19.1 28.8992 21.3 28.8992 24C28.8992 26.7 26.6992 28.9 23.9992 28.9Z" fill="#839299"/>
</svg>
