<svg width="66" height="84" viewBox="0 0 66 84" fill="none" xmlns="http://www.w3.org/2000/svg">
<path d="M57.5228 81.4163H62.3698L60.557 76.8932L62.3698 72.3701H55.5581L57.5228 74.524V81.4163Z" fill="#0460B5"/>
<path d="M8.23255 81.4163H3.38574L5.19839 76.8932L3.38574 72.3701H10.1972L8.23255 74.524V81.4163Z" fill="#0460B5"/>
<path d="M56.6496 74.9541H9.06152V84.0003H56.6496V74.9541Z" fill="#0460B5"/>
<path d="M15.4514 78.2043C15.6896 78.3219 15.888 78.5179 16.0071 78.7134C16.1261 78.9486 16.2055 79.2226 16.2055 79.4578C16.2055 79.7318 16.1261 79.9665 16.0071 80.2017C15.888 80.4365 15.6896 80.5933 15.4514 80.7109C15.2133 80.8281 14.9354 80.9065 14.6576 80.9065H13.4272V77.9695H14.6576C14.9354 78.0087 15.2133 78.0479 15.4514 78.2043ZM15.1736 80.3193C15.3323 80.2409 15.4514 80.1233 15.5308 79.9665C15.6896 79.6534 15.6896 79.2618 15.5308 78.9486C15.4514 78.7918 15.3323 78.6742 15.1736 78.5963C15.0149 78.5179 14.8561 78.4787 14.6576 78.4787H13.9829V80.4365H14.6576C14.8164 80.4365 15.0149 80.3973 15.1736 80.3193Z" fill="white"/>
<path d="M16.6821 78.0083H18.8651V78.4783H17.2775V79.2222H18.7063V79.6922H17.2775V80.4361H18.9445V80.9061H16.6821V78.0083Z" fill="white"/>
<path d="M20.9287 78.5567C20.8097 78.5175 20.6509 78.4783 20.4921 78.4783C20.3731 78.4783 20.254 78.5175 20.1746 78.5567C20.0952 78.5954 20.0555 78.6738 20.0555 78.7522C20.0555 78.8306 20.0952 78.909 20.1349 78.9482C20.1746 78.9874 20.254 79.0654 20.3334 79.0654C20.4525 79.1046 20.5715 79.1438 20.6906 79.183C20.8494 79.2222 21.0081 79.3006 21.1668 79.3398C21.2859 79.4182 21.405 79.4962 21.4844 79.6138C21.5637 79.7314 21.6432 79.8877 21.6034 80.0837C21.6034 80.2405 21.5637 80.4361 21.4447 80.5537C21.3256 80.6713 21.2066 80.7885 21.0478 80.8669C20.8494 80.9453 20.6509 80.9845 20.4525 80.9845C20.2143 80.9845 19.9762 80.9453 19.7777 80.8669C19.5793 80.7885 19.3808 80.6713 19.1824 80.5145L19.4205 80.0445C19.5793 80.1621 19.738 80.2797 19.9365 80.3577C20.0952 80.4361 20.2937 80.4753 20.4525 80.4753C20.5715 80.4753 20.7303 80.4361 20.8097 80.3969C20.9684 80.3185 20.9684 80.1229 20.889 79.9661L20.8494 79.9269C20.77 79.8877 20.7303 79.8098 20.6509 79.8098C20.5715 79.7706 20.4525 79.7314 20.2937 79.6922C20.1349 79.653 19.9762 79.5746 19.8174 79.5354C19.6983 79.4962 19.5793 79.379 19.4999 79.3006C19.4205 79.183 19.3411 79.0262 19.3808 78.8698C19.3808 78.713 19.4205 78.5567 19.4999 78.4391C19.619 78.3215 19.738 78.2039 19.8968 78.1259C20.0952 78.0475 20.2937 78.0083 20.4921 78.0083C20.6906 78.0083 20.889 78.0475 21.0478 78.0867C21.2066 78.1259 21.405 78.2039 21.5637 78.3215L21.3256 78.7914C21.2463 78.6738 21.0875 78.5954 20.9287 78.5567Z" fill="white"/>
<path d="M22.1987 78.0083H22.7544V80.9453H22.1987V78.0083Z" fill="white"/>
<path d="M25.4931 79.4578H25.9693V80.5933C25.8106 80.7109 25.6121 80.7889 25.4137 80.8673C25.2152 80.9457 25.0168 80.9849 24.7786 80.9849C24.5008 80.9849 24.223 80.9065 23.9848 80.7889C23.7467 80.6717 23.5482 80.4757 23.4292 80.2409C23.2704 80.0057 23.2307 79.7318 23.2307 79.4578C23.2307 79.1834 23.3101 78.9094 23.4292 78.7134C23.5879 78.4787 23.7864 78.2827 24.0245 78.1655C24.2627 78.0479 24.5405 77.9695 24.8183 77.9695C25.0168 77.9695 25.2549 78.0087 25.4533 78.0871C25.6518 78.1655 25.8502 78.2435 25.9693 78.4003L25.6518 78.831C25.5328 78.7134 25.4137 78.635 25.2549 78.5963C25.0962 78.5571 24.9771 78.5178 24.8183 78.5178C24.6199 78.5178 24.4611 78.5571 24.3024 78.635C23.8261 78.9094 23.6673 79.5358 23.9451 80.0057C24.1436 80.3193 24.4611 80.5149 24.8183 80.5149C24.9374 80.5149 25.0168 80.5149 25.1359 80.4757C25.2549 80.4365 25.374 80.3973 25.4533 80.3193L25.4931 79.4578Z" fill="white"/>
<path d="M28.7477 78.0083H29.3034V80.9453H28.7874L27.2395 78.909V80.9453H26.6838V78.0083H27.2395L28.7874 80.0445L28.7477 78.0083Z" fill="white"/>
<path d="M31.8833 80.9448L31.3673 80.0833H30.5735V80.9448H30.0178V78.0078H31.2482C31.5657 77.9686 31.8833 78.0862 32.1611 78.2426C32.3596 78.4386 32.4786 78.7126 32.4786 78.987C32.4786 79.1825 32.4389 79.3786 32.3199 79.5741C32.2008 79.7309 32.042 79.8485 31.8833 79.9265L32.558 80.9056L31.8833 80.9448ZM30.5735 79.5741H31.2482C31.4467 79.5741 31.6054 79.5349 31.7642 79.4177C31.8833 79.3001 31.923 79.1825 31.923 79.0262C31.923 78.8694 31.8833 78.7126 31.7642 78.6342C31.6054 78.5562 31.4467 78.4778 31.2879 78.517H30.5735V79.5741Z" fill="white"/>
<path d="M33.7881 80.2797C33.9469 80.3969 34.1454 80.4753 34.3041 80.4753C34.5026 80.4753 34.7011 80.3969 34.8201 80.2797C34.9392 80.1229 35.0185 79.9269 35.0185 79.7314V78.0083H35.5742V79.7314C35.5742 79.9661 35.5345 80.2013 35.4154 80.3969C35.2964 80.5929 35.1376 80.7493 34.9789 80.8277C34.7804 80.9453 34.5423 80.9845 34.3041 80.9845C34.066 80.9845 33.8279 80.9453 33.5897 80.8277C33.3913 80.7493 33.2325 80.5929 33.1531 80.3969C33.0341 80.2013 32.9944 79.9661 32.9944 79.7314V78.0083H33.55V79.7314C33.5897 79.9269 33.6691 80.1229 33.7881 80.2797Z" fill="white"/>
<path d="M37.7175 78.5567C37.5985 78.5175 37.4397 78.4783 37.281 78.4783C37.1619 78.4783 37.0428 78.5175 36.9634 78.5567C36.8841 78.5954 36.8444 78.6738 36.8444 78.7522C36.8444 78.8306 36.8841 78.909 36.9237 78.9482C36.9634 78.9874 37.0428 79.0654 37.1222 79.0654C37.2413 79.1046 37.3603 79.1438 37.4794 79.183C37.6382 79.2222 37.7969 79.3006 37.9557 79.3398C38.0748 79.4182 38.1938 79.4962 38.2732 79.6138C38.3526 79.7314 38.432 79.8877 38.3923 80.0837C38.3923 80.2405 38.3526 80.4361 38.2335 80.5537C38.1144 80.6713 37.9954 80.7885 37.8366 80.8669C37.6382 80.9453 37.4397 80.9845 37.2413 80.9845C37.0031 80.9845 36.765 80.9453 36.5665 80.8669C36.3681 80.7885 36.1696 80.6713 35.9712 80.5145L36.2094 80.0445C36.3681 80.1621 36.5268 80.2797 36.7253 80.3577C36.8841 80.4361 37.0825 80.4753 37.2413 80.4753C37.3603 80.4753 37.5191 80.4361 37.5985 80.3969C37.7572 80.3185 37.7572 80.1229 37.6779 79.9661L37.6382 79.9269C37.5588 79.8877 37.5191 79.8098 37.4397 79.8098C37.3603 79.7706 37.2413 79.7314 37.0825 79.6922C36.9237 79.653 36.765 79.5746 36.6062 79.5354C36.4872 79.4962 36.3681 79.379 36.2887 79.3006C36.2094 79.183 36.1299 79.0262 36.1696 78.8698C36.1696 78.713 36.2094 78.5567 36.2887 78.4391C36.4078 78.3215 36.5268 78.2039 36.6856 78.1259C36.8841 78.0475 37.0825 78.0083 37.281 78.0083C37.4794 78.0083 37.6779 78.0475 37.8366 78.0867C37.9954 78.1259 38.1938 78.2039 38.3526 78.3215L38.1144 78.7914C38.0351 78.6738 37.8763 78.5954 37.7175 78.5567Z" fill="white"/>
<path d="M38.9878 78.0083H39.5434V79.2614H41.0119V78.0083H41.5676V80.9453H41.0119V79.7706H39.5434V80.9453H38.9878V78.0083Z" fill="white"/>
<path d="M42.6391 80.437C42.6788 80.4762 42.7185 80.5542 42.7185 80.6718C42.7185 80.7502 42.6788 80.8286 42.6391 80.907C42.5994 80.9462 42.5201 80.985 42.4407 80.985C42.3613 80.985 42.2819 80.9462 42.2422 80.907C42.2025 80.8286 42.1628 80.7502 42.1628 80.6718C42.1628 80.5934 42.2025 80.5154 42.2422 80.437C42.2819 80.3978 42.3613 80.3586 42.4407 80.3586C42.5201 80.3586 42.5994 80.3978 42.6391 80.437Z" fill="white"/>
<path d="M44.2263 79.1448C44.0678 79.1448 43.9089 79.2227 43.7897 79.3403C43.6709 79.4579 43.6312 79.6535 43.6312 79.8103C43.6312 80.0063 43.6709 80.1627 43.7897 80.2803C43.9089 80.3979 44.0678 80.4763 44.2263 80.4763C44.4646 80.4763 44.7026 80.3979 44.8218 80.2019L45.1789 80.4763C45.0597 80.6327 44.941 80.7503 44.782 80.8287C44.5838 80.9071 44.3852 80.9458 44.1865 80.9458C43.9883 80.9458 43.7897 80.9071 43.5915 80.7895C43.4326 80.7111 43.2738 80.5543 43.1945 80.3979C42.996 80.0455 42.996 79.5755 43.1945 79.2227C43.2738 79.0664 43.4326 78.9096 43.5915 78.8312C43.7897 78.7532 43.9883 78.6748 44.1865 78.6748C44.3852 78.6748 44.5838 78.714 44.7423 78.792C44.9012 78.8704 45.0204 78.9488 45.1392 79.1056L44.8218 79.4187C44.7026 79.2619 44.4646 79.1448 44.2263 79.1448Z" fill="white"/>
<path d="M47.2037 78.8312C47.3626 78.9096 47.5211 79.0664 47.6403 79.2227C47.7595 79.4187 47.7992 79.6147 47.7992 79.8103C47.7992 80.0063 47.7595 80.2411 47.6403 80.3979C47.5211 80.5543 47.4023 80.7111 47.2037 80.7895C47.005 80.8679 46.8068 80.9458 46.5684 80.9458C46.3305 80.9458 46.1319 80.9071 45.9336 80.7895C45.7747 80.7111 45.6162 80.5543 45.4971 80.3979C45.3779 80.2019 45.3381 80.0063 45.3381 79.8103C45.3381 79.6147 45.3779 79.3795 45.4971 79.2227C45.6162 79.0664 45.735 78.9096 45.9336 78.8312C46.1319 78.714 46.3305 78.6748 46.5684 78.6748C46.8068 78.6748 47.005 78.714 47.2037 78.8312ZM46.1318 79.3403C45.8939 79.6147 45.8939 80.0455 46.1318 80.3195C46.251 80.4371 46.41 80.5151 46.6082 80.5151C46.7671 80.5151 46.9657 80.4371 47.0845 80.3195C47.3229 80.0455 47.3229 79.6147 47.0845 79.3403C46.9657 79.2227 46.8068 79.1448 46.6082 79.1448C46.41 79.1448 46.251 79.184 46.1318 79.3403Z" fill="white"/>
<path d="M51.8469 78.9092C52.0058 79.066 52.0853 79.3008 52.0853 79.536V80.9459H51.5295V79.6924C51.5295 79.536 51.4898 79.4184 51.4103 79.3008C51.3313 79.2228 51.1724 79.1444 51.0532 79.1444C50.8947 79.1444 50.7358 79.2228 50.6166 79.34C50.4974 79.4576 50.4581 79.6144 50.4581 79.81V80.9067H49.9023V79.6924C49.9023 79.536 49.8626 79.4184 49.7831 79.3008C49.7037 79.2228 49.5452 79.1444 49.426 79.1444C49.2671 79.1444 49.1086 79.2228 48.9894 79.34C48.8702 79.4576 48.8305 79.6536 48.8702 79.81V80.9067H48.3145V78.6745H48.8702V79.1052C49.1483 78.6745 49.7434 78.5569 50.18 78.7921C50.2992 78.87 50.4184 79.0268 50.4581 79.1836C50.5769 78.8308 50.934 78.6353 51.2915 78.6353C51.4898 78.6353 51.6884 78.7529 51.8469 78.9092Z" fill="white"/>
<path d="M28.7716 56.0006V52.1134H30.1826V51.4035H26.5432V52.1134H27.9543V56.0006H28.7716ZM32.8773 56.0833C34.2674 56.0833 35.2593 55.0771 35.2593 53.7055C35.2593 52.3339 34.2674 51.3276 32.8773 51.3276C31.4802 51.3276 30.4953 52.3339 30.4953 53.7055C30.4953 55.0771 31.4802 56.0833 32.8773 56.0833ZM32.8773 55.3665C31.9343 55.3665 31.3335 54.6497 31.3335 53.7055C31.3335 52.7543 31.9343 52.0444 32.8773 52.0444C33.8134 52.0444 34.4211 52.7543 34.4211 53.7055C34.4211 54.6497 33.8134 55.3665 32.8773 55.3665ZM36.8566 56.0006V54.2775H38.093C39.0639 54.2775 39.6088 53.6228 39.6088 52.8439C39.6088 52.0582 39.0709 51.4035 38.093 51.4035H36.0393V56.0006H36.8566ZM37.9812 53.5676H36.8566V52.1134H37.9812C38.4422 52.1134 38.7706 52.4028 38.7706 52.8439C38.7706 53.2782 38.4422 53.5676 37.9812 53.5676ZM4.8828 63.7545L6.21701 59.1573H5.30192L4.39382 62.6931L3.42984 59.1573H2.78019L1.81621 62.6931L0.908102 59.1573H0L1.32723 63.7545H2.2004L3.10851 60.3566L4.00962 63.7545H4.8828ZM9.94945 63.7545V63.0446H7.57441V61.7626H9.90055V61.0527H7.57441V59.8672H9.94945V59.1573H6.75711V63.7545H9.94945ZM13.1428 63.7545C14.023 63.7545 14.498 63.2238 14.498 62.507C14.498 61.9487 14.0998 61.4593 13.5969 61.3835C14.03 61.2939 14.4072 60.9011 14.4072 60.329C14.4072 59.6811 13.9392 59.1573 13.08 59.1573H10.7887V63.7545H13.1428ZM12.9193 61.0527H11.606V59.8672H12.9193C13.3314 59.8672 13.5689 60.1222 13.5689 60.4599C13.5689 60.8115 13.3314 61.0527 12.9193 61.0527ZM12.9542 63.0446H11.606V61.7626H12.9542C13.4153 61.7626 13.6597 62.059 13.6597 62.4036C13.6597 62.8033 13.3943 63.0446 12.9542 63.0446ZM18.8655 63.7545C20.3184 63.7545 21.2964 62.8102 21.2964 61.4524C21.2964 60.1084 20.3184 59.1573 18.8585 59.1573H17.1261V63.7545H18.8655ZM18.8585 63.0446H17.9434V59.8672H18.8655C19.8993 59.8672 20.4581 60.5702 20.4581 61.4524C20.4581 62.3278 19.8714 63.0446 18.8585 63.0446ZM25.2778 63.7545V63.0446H22.9028V61.7626H25.2289V61.0527H22.9028V59.8672H25.2778V59.1573H22.0855V63.7545H25.2778ZM28.4851 63.7545L30.3153 59.1573H29.3863L27.9752 62.8723L26.5642 59.1573H25.6351L27.4653 63.7545H28.4851ZM34.0096 63.7545V63.0446H31.6345V61.7626H33.9607V61.0527H31.6345V59.8672H34.0096V59.1573H30.8172V63.7545H34.0096ZM37.664 63.7545V63.0446H35.6103V59.1573H34.793V63.7545H37.664ZM40.3505 63.8372C41.7406 63.8372 42.7325 62.8309 42.7325 61.4593C42.7325 60.0878 41.7406 59.0815 40.3505 59.0815C38.9534 59.0815 37.9685 60.0878 37.9685 61.4593C37.9685 62.8309 38.9534 63.8372 40.3505 63.8372ZM40.3505 63.1204C39.4075 63.1204 38.8067 62.4036 38.8067 61.4593C38.8067 60.5082 39.4075 59.7983 40.3505 59.7983C41.2865 59.7983 41.8943 60.5082 41.8943 61.4593C41.8943 62.4036 41.2865 63.1204 40.3505 63.1204ZM44.3295 63.7545V62.0314H45.5659C46.5369 62.0314 47.0818 61.3766 47.0818 60.5978C47.0818 59.8121 46.5439 59.1573 45.5659 59.1573H43.5124V63.7545H44.3295ZM45.4542 61.3215H44.3295V59.8672H45.4542C45.9152 59.8672 46.2435 60.1567 46.2435 60.5978C46.2435 61.032 45.9152 61.3215 45.4542 61.3215ZM52.6098 63.7545V59.1573H51.4572L50.1929 62.314L48.9215 59.1573H47.7689V63.7545H48.5862V60.2049L50.0182 63.7545H50.3675L51.7925 60.2049V63.7545H52.6098ZM56.7941 63.7545V63.0446H54.4191V61.7626H56.7452V61.0527H54.4191V59.8672H56.7941V59.1573H53.6018V63.7545H56.7941ZM61.6708 63.7545V59.1573H60.8535V62.3415L58.4715 59.1573H57.6332V63.7545H58.4505V60.4668L60.8814 63.7545H61.6708ZM64.5889 63.7545V59.8672H66V59.1573H62.3606V59.8672H63.7717V63.7545H64.5889ZM16.1213 71.591C17.0573 71.591 17.6371 71.1017 17.9934 70.5503L17.2948 70.2057C17.0713 70.5847 16.6172 70.8742 16.1213 70.8742C15.1992 70.8742 14.5146 70.1712 14.5146 69.2132C14.5146 68.2414 15.1992 67.5521 16.1213 67.5521C16.6172 67.5521 17.0713 67.8347 17.2948 68.2207L17.9864 67.8623C17.6441 67.3109 17.0573 66.8353 16.1213 66.8353C14.7452 66.8353 13.6764 67.7934 13.6764 69.2132C13.6764 70.6261 14.7452 71.591 16.1213 71.591ZM20.82 71.591C22.2101 71.591 23.202 70.5847 23.202 69.2132C23.202 67.8416 22.2101 66.8353 20.82 66.8353C19.4229 66.8353 18.4379 67.8416 18.4379 69.2132C18.4379 70.5847 19.4229 71.591 20.82 71.591ZM20.82 70.8742C19.8769 70.8742 19.2762 70.1574 19.2762 69.2132C19.2762 68.262 19.8769 67.5521 20.82 67.5521C21.756 67.5521 22.3637 68.262 22.3637 69.2132C22.3637 70.1574 21.756 70.8742 20.82 70.8742ZM28.8228 71.5083V66.9111H27.6702L26.4059 70.0678L25.1345 66.9111H23.9819V71.5083H24.7992V67.9588L26.2312 71.5083H26.5805L28.0055 67.9588V71.5083H28.8228ZM30.6317 71.5083V69.7852H31.8681C32.8391 69.7852 33.384 69.1305 33.384 68.3516C33.384 67.5659 32.8461 66.9111 31.8681 66.9111H29.8144V71.5083H30.6317ZM31.7564 69.0753H30.6317V67.6211H31.7564C32.2174 67.6211 32.5457 67.9105 32.5457 68.3516C32.5457 68.7859 32.2174 69.0753 31.7564 69.0753ZM37.7441 71.5083L35.914 66.9111H34.8941L33.0639 71.5083H33.993L34.3353 70.6192H36.4728L36.8151 71.5083H37.7441ZM36.2423 69.9093H34.5658L35.404 67.7175L36.2423 69.9093ZM42.2836 71.5083V66.9111H41.4663V70.0954L39.0843 66.9111H38.246V71.5083H39.0633V68.2207L41.4943 71.5083H42.2836ZM44.0911 71.5083V66.9111H43.2737V71.5083H44.0911ZM48.2736 71.5083V70.7984H45.8986V69.5164H48.2247V68.8065H45.8986V67.6211H48.2736V66.9111H45.0813V71.5083H48.2736ZM50.7129 71.591C51.9632 71.591 52.5151 70.9294 52.5151 70.1643C52.5151 68.455 49.8048 68.9857 49.8048 68.1242C49.8048 67.7865 50.1121 67.5521 50.5871 67.5521C51.0761 67.5521 51.5721 67.7175 51.9423 68.0828L52.4033 67.4832C51.9772 67.0697 51.3835 66.8353 50.664 66.8353C49.6371 66.8353 48.9665 67.4212 48.9665 68.1862C48.9665 69.8748 51.6768 69.2752 51.6768 70.2401C51.6768 70.5503 51.4184 70.8742 50.7478 70.8742C50.0981 70.8742 49.5882 70.571 49.2739 70.2332L48.8128 70.8604C49.232 71.2878 49.8537 71.591 50.7129 71.591Z" fill="black"/>
<path d="M32.9712 29.5786C32.8893 29.4921 32.8893 29.5786 32.9712 29.5786L32.5617 29.3191L32.4798 29.2326L22.8155 21.9676C22.8155 21.9676 22.7337 21.9676 22.7337 21.8811L22.5699 21.7081L22.488 21.6216H22.3242L19.5396 19.5459L25.0269 20.4108C25.2726 20.4108 25.3545 20.4973 25.6001 20.5838C25.682 20.5838 25.8458 20.6702 25.8458 20.6702C26.0916 20.7567 26.1735 20.8432 26.3373 20.9297C26.5011 21.0162 26.5829 21.1027 26.7467 21.1892C26.8287 21.2757 26.9925 21.3622 26.9925 21.4486C27.0744 21.5351 27.1563 21.5351 27.2382 21.6216C27.402 21.7081 27.4838 21.7946 27.4838 21.8811C27.7296 22.1406 27.8934 22.4 28.1391 22.573L32.4798 29.0597L32.5617 29.1462L32.9712 29.5786Z" fill="#18AAD1"/>
<path d="M32.9711 39.6113L32.5616 38.9194L32.4796 38.8329L19.6213 19.5459L22.4059 21.6216L22.8974 21.9676L32.5616 29.2326H32.6435L32.9711 29.4921C32.9711 29.4921 33.053 29.4921 33.053 29.5786L33.4625 29.2326L46.4844 19.5459L33.3805 38.9194L33.2987 39.0059L32.9711 39.6113Z" fill="#2AD2FF"/>
<path d="M32.9712 26.2926L32.5617 25.6007L32.4798 25.5142L29.2856 20.8438L32.4798 21.5357H32.5617L32.9712 21.6222L33.3807 21.5357L36.4929 20.7573L33.3807 25.6007V25.6872L32.9712 26.2926Z" fill="#18AAD1"/>
<path d="M46.5666 19.46L42.4716 20.0654L40.9155 20.3249C39.687 20.4978 38.5404 21.1898 37.8033 22.3141L33.4626 28.8872L33.3807 28.9737L32.9712 29.5792L33.4626 29.0602L33.5445 28.9737L32.9712 29.5792L44.0278 21.2762L46.5666 19.46Z" fill="#18AAD1"/>
<path d="M35.0186 5.79475C35.0186 9.60021 28.7942 11.5895 28.7942 15.6544C28.7123 16.6058 28.958 17.5572 29.3675 18.4221C29.3675 18.4221 26.9924 16.0004 26.9924 13.4057C26.9924 10.8111 29.2856 6.9191 29.2856 6.9191C29.2856 8.64886 29.9408 9.1678 30.596 9.25426H30.6779C31.415 9.25426 31.8245 8.64886 31.8245 7.78396C31.8245 6.9191 30.9236 6.0542 30.9236 4.32445C30.9236 2.68115 32.8893 0 32.8893 0C34.2815 1.72977 35.0186 3.71901 35.0186 5.79475Z" fill="#2AD2FF"/>
<path d="M33.2987 19.6331C31.3331 19.6331 29.8589 17.9898 29.8589 16.0006V15.9141C29.8589 11.5032 35.6738 11.0707 35.6738 5.10303C35.8376 5.36248 37.3937 7.61118 37.3937 10.0329C37.3937 13.06 34.691 13.8384 34.691 15.3087C34.691 15.9141 34.9367 16.3466 35.7557 16.3466C35.8376 16.3466 35.9195 16.3466 36.0014 16.2601C37.5575 15.5682 38.6222 14.0114 38.7041 12.1951C38.7041 12.2816 39.5231 19.6331 33.2987 19.6331Z" fill="#2AD2FF"/>
<path d="M35.8377 16.3466C35.9196 16.3466 36.0015 16.3466 36.0834 16.2601C35.2644 16.5195 32.2341 17.2979 32.2341 15.0492C32.2341 12.2816 36.7386 11.6762 36.7386 9.34098C36.7386 7.87068 36.411 6.40038 35.6739 5.10303C35.8377 5.36248 37.3938 7.61118 37.3938 10.0329C37.3938 13.06 34.6911 13.8384 34.6911 15.3087C34.773 15.9141 35.1006 16.3466 35.8377 16.3466Z" fill="#18AAD1"/>
<path d="M33.2389 7.35155C33.2389 9.51375 30.6182 9.3408 30.4543 9.2543H30.7001C31.4371 9.2543 31.8466 8.6489 31.8466 7.784C31.8466 6.9191 30.9457 6.0542 30.9457 4.32445C30.9457 2.68115 32.9113 0 32.9113 0C32.2561 1.12436 31.9285 2.3352 31.8466 3.54604C31.8466 5.5353 33.2389 5.70825 33.2389 7.35155Z" fill="#18AAD1"/>
<path d="M31.8348 45.2395L29.9409 43.9093H32.2653L33.0401 41.5146L33.7288 43.9093H36.0532L34.1592 45.2395L34.8479 47.5454L32.954 46.1265L30.974 47.5454L31.8348 45.2395Z" fill="#2AD2FF"/>
<path d="M41.9528 45.2395L40.0588 43.9093H42.3832L43.158 41.5146L43.8467 43.9093H46.1711L44.2772 45.2395L44.9657 47.5454L43.0719 46.1265L41.0919 47.5454L41.9528 45.2395Z" fill="#2AD2FF"/>
<path d="M51.9947 45.2395L50.1008 43.9093H52.4252L53.2002 41.5146L53.8887 43.9093H56.2131L54.3191 45.2395L55.0076 47.5454L53.1137 46.1265L51.1338 47.5454L51.9947 45.2395Z" fill="#2AD2FF"/>
<path d="M21.4335 45.2395L19.5396 43.9093H21.8639L22.6387 41.5146L23.3274 43.9093H25.6518L23.7579 45.2395L24.4465 47.5454L22.5526 46.1265L20.6587 47.5454L21.4335 45.2395Z" fill="#2AD2FF"/>
<path d="M11.3922 45.2395L9.49829 43.9093H11.8226L12.5975 41.5146L13.2862 43.9093H15.6105L13.7166 45.2395L14.4053 47.5454L12.5114 46.1265L10.6174 47.5454L11.3922 45.2395Z" fill="#2AD2FF"/>
</svg>
