<svg width="275" height="204" viewBox="0 0 275 204" fill="none" xmlns="http://www.w3.org/2000/svg">
<path d="M0.5 20C0.5 9.23045 9.23045 0.5 20 0.5H255C265.77 0.5 274.5 9.23045 274.5 20V203.5H20C9.23044 203.5 0.5 194.77 0.5 184V20Z" stroke="#DEDEDE"/>
<path d="M218.875 160.283H57.1244C52.936 160.283 49.5852 156.932 49.5852 152.744V43.539C49.5852 39.3505 52.936 35.9998 57.1244 35.9998H218.875C223.064 35.9998 226.414 39.3505 226.414 43.539V152.744C226.414 156.932 223.064 160.283 218.875 160.283Z" fill="#829198"/>
<path d="M225.653 167.441H50.3469C44.1023 167.441 39 162.339 39 156.094V155.561H237V156.094C237 162.339 231.898 167.441 225.653 167.441Z" fill="#5F737C"/>
<path d="M220.094 42.3203H56.1345V151.373H220.094V42.3203Z" fill="#F8F9FA"/>
<path d="M220.246 42.3203H56.1345V46.2803H220.246V42.3203Z" fill="#002548"/>
<path d="M59.8657 45.2901C60.4125 45.2901 60.8557 44.8468 60.8557 44.3001C60.8557 43.7533 60.4125 43.3101 59.8657 43.3101C59.319 43.3101 58.8757 43.7533 58.8757 44.3001C58.8757 44.8468 59.319 45.2901 59.8657 45.2901Z" fill="#EC1C24"/>
<path d="M63.9021 45.2901C64.4489 45.2901 64.8921 44.8468 64.8921 44.3001C64.8921 43.7533 64.4489 43.3101 63.9021 43.3101C63.3553 43.3101 62.9121 43.7533 62.9121 44.3001C62.9121 44.8468 63.3553 45.2901 63.9021 45.2901Z" fill="#FFDC33"/>
<path d="M68.0142 45.2901C68.5609 45.2901 69.0042 44.8468 69.0042 44.3001C69.0042 43.7533 68.5609 43.3101 68.0142 43.3101C67.4674 43.3101 67.0242 43.7533 67.0242 44.3001C67.0242 44.8468 67.4674 45.2901 68.0142 45.2901Z" fill="#54CB5A"/>
<path d="M70.1971 46.3066L61.366 55.1377L62.6045 56.3762L71.4356 47.5451L70.1971 46.3066Z" fill="#F8F9FA"/>
<path d="M66.7964 46.2045C65.8064 46.6614 65.8064 46.6614 65.3495 47.6514C64.8926 46.6614 64.8926 46.6614 63.9026 46.2045C64.8926 45.7476 64.8926 45.7476 65.3495 44.7576C65.8064 45.7476 65.8064 45.7476 66.7964 46.2045Z" fill="#F8F9FA"/>
<path d="M74.0312 51.5357C72.8889 52.0688 72.8889 52.0688 72.3558 53.2111C71.8227 52.0688 71.8227 52.0688 70.6804 51.5357C71.8227 51.0027 71.8227 51.0027 72.3558 49.8604C72.8889 51.0788 72.8889 51.0027 74.0312 51.5357Z" fill="#F8F9FA"/>
<path d="M70.3755 44.6052C69.6901 44.9098 69.6901 44.9098 69.3855 45.5952C69.0809 44.9098 69.0809 44.9098 68.3955 44.6052C69.0809 44.3006 69.0809 44.3006 69.3855 43.6152C69.6901 44.3006 69.6901 44.3006 70.3755 44.6052Z" fill="#F8F9FA"/>
<path d="M187.89 73.5435H92.2846C89.3429 73.5435 86.9583 75.9227 86.9583 78.8575V134.238C86.9583 137.173 89.3429 139.552 92.2846 139.552H187.89C190.832 139.552 193.217 137.173 193.217 134.238V78.8575C193.217 75.9227 190.832 73.5435 187.89 73.5435Z" fill="#0054A6"/>
<path d="M189.472 80.9664V116.029C189.472 116.971 189.097 117.874 188.429 118.54C187.762 119.206 186.857 119.58 185.913 119.58H96.1223C95.6549 119.58 95.192 119.488 94.76 119.31C94.3281 119.131 93.9356 118.87 93.605 118.54C93.2744 118.21 93.0122 117.819 92.8333 117.388C92.6543 116.957 92.5623 116.495 92.5623 116.029V80.9664C92.5623 80.5 92.6543 80.0382 92.8333 79.6073C93.0122 79.1765 93.2744 78.785 93.605 78.4552C93.9356 78.1255 94.3281 77.8639 94.76 77.6855C95.192 77.5072 95.6549 77.4154 96.1223 77.4155H185.913C186.856 77.416 187.761 77.7903 188.429 78.4561C189.096 79.1219 189.471 80.0248 189.472 80.9664Z" fill="white"/>
<path d="M189.473 80.9656V116.028C189.473 116.97 189.098 117.873 188.43 118.539C187.763 119.205 186.857 119.579 185.913 119.579H141.183C141.466 117.87 142.103 116.239 143.053 114.79C144.003 113.34 145.245 112.105 146.701 111.161C148.157 110.218 149.793 109.587 151.507 109.31C153.22 109.033 154.973 109.116 156.652 109.553C157.252 107.43 158.345 105.479 159.842 103.856C161.339 102.233 163.198 100.986 165.268 100.213C164.413 99.0922 163.958 97.7181 163.975 96.3093C163.992 94.9005 164.48 93.5377 165.361 92.4372C166.243 91.3367 167.468 90.5615 168.842 90.2348C170.215 89.908 171.659 90.0484 172.943 90.6337C174.515 87.6507 176.672 85.0139 179.287 82.8804C181.902 80.7468 184.92 79.1601 188.162 78.2148C188.572 78.5471 188.902 78.9665 189.129 79.4424C189.356 79.9183 189.473 80.4387 189.473 80.9656Z" fill="white"/>
<path d="M139.924 119.576H96.1223C95.6549 119.576 95.192 119.484 94.76 119.306C94.3281 119.127 93.9356 118.866 93.605 118.536C93.2744 118.206 93.0122 117.815 92.8333 117.384C92.6543 116.953 92.5623 116.491 92.5623 116.025V80.9662C92.5617 80.4927 92.6564 80.0239 92.8406 79.5875C93.0248 79.1511 93.2949 78.756 93.6348 78.4255C99.8887 80.4473 105.102 84.8289 108.162 90.6343C109.446 90.049 110.89 89.9086 112.263 90.2354C113.637 90.5621 114.862 91.3373 115.744 92.4378C116.625 93.5383 117.113 94.9011 117.13 96.3099C117.147 97.7187 116.692 99.0928 115.837 100.214C117.907 100.986 119.766 102.234 121.263 103.857C122.76 105.479 123.852 107.431 124.452 109.553C126.132 109.116 127.884 109.034 129.598 109.31C131.311 109.587 132.948 110.217 134.404 111.16C135.859 112.103 137.102 113.338 138.053 114.787C139.003 116.236 139.64 117.867 139.924 119.576Z" fill="white"/>
<path d="M177.406 105.268C178.866 105.268 180.05 104.087 180.05 102.631C180.05 101.174 178.866 99.9927 177.406 99.9927C175.946 99.9927 174.762 101.174 174.762 102.631C174.762 104.087 175.946 105.268 177.406 105.268Z" fill="#FFDD33"/>
<path d="M108.433 100.485C108.983 100.485 109.428 100.04 109.428 99.4913C109.428 98.9426 108.983 98.4978 108.433 98.4978C107.883 98.4978 107.437 98.9426 107.437 99.4913C107.437 100.04 107.883 100.485 108.433 100.485Z" fill="#FFDD33"/>
<path d="M115.922 110.548C116.4 108.562 115.173 106.565 113.182 106.088C111.191 105.611 109.189 106.835 108.711 108.821C108.233 110.808 109.46 112.805 111.451 113.282C113.442 113.759 115.444 112.535 115.922 110.548Z" fill="#FFDD33"/>
<path d="M98.2731 102.915C98.7989 102.288 98.7155 101.355 98.0869 100.83C97.4583 100.305 96.5225 100.389 95.9967 101.016C95.4709 101.643 95.5543 102.577 96.1829 103.101C96.8115 103.626 97.7473 103.543 98.2731 102.915Z" fill="#FFDD33"/>
<path d="M139.924 119.576H138.183C137.279 116.454 135.19 113.807 132.36 112.199C129.529 110.591 126.181 110.149 123.029 110.968C122.429 108.846 121.337 106.894 119.84 105.272C118.343 103.65 116.485 102.402 114.415 101.63C115.268 100.508 115.722 99.1344 115.705 97.7263C115.687 96.3181 115.199 94.956 114.318 93.856C113.437 92.7559 112.213 91.9808 110.84 91.6534C109.467 91.3261 108.024 91.4653 106.739 92.0489C103.761 86.3996 98.7381 82.0936 92.6919 80.0061C92.8614 79.4062 93.1858 78.8612 93.6326 78.4255C99.8872 80.4469 105.101 84.8285 108.161 90.6343C109.446 90.049 110.889 89.9086 112.263 90.2354C113.637 90.5621 114.862 91.3373 115.743 92.4378C116.625 93.5383 117.113 94.9011 117.13 96.3099C117.147 97.7187 116.692 99.0928 115.836 100.214C117.907 100.986 119.766 102.234 121.263 103.857C122.76 105.479 123.852 107.431 124.452 109.553C126.132 109.116 127.884 109.034 129.598 109.31C131.311 109.587 132.948 110.217 134.404 111.16C135.859 112.103 137.102 113.338 138.052 114.787C139.003 116.236 139.64 117.867 139.924 119.576Z" fill="#969696"/>
<path d="M141.183 119.576H142.925C143.827 116.453 145.916 113.806 148.747 112.198C151.578 110.59 154.926 110.148 158.078 110.968C158.678 108.846 159.771 106.895 161.268 105.272C162.764 103.65 164.623 102.402 166.693 101.63C165.839 100.508 165.385 99.1347 165.403 97.7265C165.42 96.3184 165.908 94.9563 166.79 93.8562C167.671 92.7562 168.895 91.981 170.268 91.6537C171.641 91.3264 173.084 91.4656 174.368 92.0492C177.345 86.3989 182.367 82.0915 188.413 80.0025C188.244 79.4024 187.919 78.8573 187.472 78.4219C181.218 80.4444 176.004 84.8276 172.946 90.6345C171.662 90.0503 170.219 89.9106 168.846 90.2377C167.472 90.5647 166.248 91.3398 165.367 92.4399C164.485 93.5401 163.997 94.9024 163.98 96.3107C163.963 97.7191 164.417 99.0929 165.271 100.214C163.201 100.987 161.342 102.234 159.846 103.857C158.349 105.48 157.256 107.431 156.656 109.553C154.977 109.116 153.224 109.034 151.511 109.31C149.797 109.587 148.16 110.217 146.704 111.16C145.248 112.103 144.005 113.338 143.055 114.787C142.104 116.236 141.467 117.867 141.183 119.576Z" fill="#969696"/>
<path d="M164.925 113.243C165.091 112.541 164.655 111.837 163.951 111.671C163.247 111.505 162.542 111.94 162.376 112.643C162.21 113.345 162.646 114.049 163.35 114.215C164.054 114.38 164.759 113.945 164.925 113.243Z" fill="#FFDD33"/>
<path d="M187.904 122.35H95.0334V122.998H187.904V122.35Z" fill="white"/>
<path d="M99.9296 120.25H99.2566V125.098H99.9296V120.25Z" fill="white"/>
<path d="M145.133 131.623C145.501 129.358 143.959 127.224 141.689 126.856C139.419 126.488 137.28 128.026 136.912 130.291C136.543 132.556 138.085 134.69 140.355 135.058C142.625 135.426 144.764 133.888 145.133 131.623Z" fill="white"/>
<path d="M141.95 132.978H140.08C139.861 132.977 139.65 132.89 139.495 132.735C139.34 132.58 139.252 132.37 139.252 132.151V130.286C139.252 130.067 139.34 129.856 139.495 129.701C139.65 129.546 139.861 129.459 140.08 129.458H141.95C142.17 129.459 142.381 129.546 142.536 129.701C142.692 129.856 142.779 130.066 142.78 130.286V132.151C142.779 132.37 142.692 132.581 142.536 132.736C142.381 132.891 142.17 132.978 141.95 132.978ZM140.08 129.598C139.896 129.598 139.72 129.671 139.59 129.8C139.46 129.93 139.387 130.106 139.387 130.29V132.155C139.387 132.339 139.46 132.515 139.59 132.644C139.72 132.774 139.896 132.847 140.08 132.847H141.95C142.134 132.847 142.31 132.774 142.441 132.644C142.571 132.515 142.644 132.339 142.644 132.155V130.29C142.644 130.106 142.571 129.93 142.441 129.8C142.31 129.671 142.134 129.598 141.95 129.598H140.08Z" fill="#292929"/>
<g clip-path="url(#clip0_14553_10370)">
<path d="M149.685 96.7365C149.686 95.2 149.287 93.6901 148.528 92.3571C147.768 91.0241 146.674 89.9146 145.356 89.139C144.037 88.3635 142.54 87.949 141.012 87.9368C139.485 87.9246 137.981 88.3152 136.65 89.0696C135.32 89.824 134.209 90.916 133.428 92.2367C132.648 93.5574 132.225 95.0608 132.201 96.5971C132.178 98.1333 132.556 99.6489 133.296 100.993C134.036 102.337 135.114 103.462 136.421 104.257C136.972 104.595 137.427 105.07 137.742 105.637C138.057 106.203 138.222 106.842 138.22 107.491V109.211H143.671V107.491C143.671 106.839 143.839 106.199 144.156 105.632C144.474 105.064 144.931 104.588 145.484 104.25C146.767 103.466 147.828 102.363 148.563 101.047C149.299 99.7308 149.686 98.2463 149.685 96.7365Z" fill="#FFDD33"/>
<path d="M141.669 107.134C141.655 107.134 141.642 107.129 141.632 107.12C141.622 107.112 141.615 107.099 141.613 107.086C141.423 105.264 141.366 103.431 141.442 101.601C141.471 101.013 141.517 100.459 141.579 99.9364C141.162 99.9364 140.738 99.9364 140.321 99.9364C140.383 100.459 140.429 101.013 140.458 101.601C140.534 103.431 140.477 105.264 140.287 107.086C140.286 107.093 140.284 107.1 140.28 107.107C140.276 107.113 140.271 107.119 140.266 107.123C140.26 107.128 140.253 107.131 140.246 107.133C140.239 107.135 140.231 107.135 140.224 107.134C140.21 107.132 140.197 107.125 140.188 107.114C140.179 107.102 140.174 107.088 140.176 107.074C140.369 105.257 140.426 103.428 140.347 101.603C140.318 101.016 140.273 100.46 140.212 99.9364C138.099 99.9364 136.787 98.4808 136.262 97.1271C136.07 96.6512 135.976 96.1413 135.984 95.6279C135.979 95.4329 136.012 95.2388 136.082 95.0572C136.153 94.8755 136.259 94.7098 136.394 94.5702C136.635 94.3542 137.096 94.1844 137.897 94.6162C138.697 95.0481 139.378 96.0087 139.812 97.4109C140.049 98.203 140.216 99.0149 140.308 99.8369C140.731 99.8369 141.157 99.8369 141.577 99.8369C141.671 99.0151 141.837 98.2033 142.074 97.4109C142.51 96.0087 143.154 95.0675 143.991 94.6162C144.789 94.1844 145.248 94.3542 145.494 94.5702C145.629 94.71 145.734 94.8757 145.804 95.0574C145.874 95.2391 145.907 95.4331 145.901 95.6279C145.911 96.1411 145.817 96.6511 145.626 97.1271C145.098 98.4881 143.789 99.9267 141.676 99.9364C141.613 100.46 141.567 101.017 141.538 101.605C141.462 103.43 141.52 105.257 141.71 107.074C141.711 107.088 141.707 107.102 141.698 107.114C141.689 107.125 141.676 107.132 141.661 107.134H141.669ZM144.896 94.4586C144.601 94.4704 144.313 94.5536 144.056 94.7012C143.248 95.1403 142.609 96.0573 142.192 97.4304C141.963 98.2097 141.801 99.0076 141.71 99.8151C143.76 99.7981 145.033 98.3983 145.544 97.0737C145.94 96.05 145.899 95.0481 145.441 94.6478C145.287 94.5158 145.09 94.4481 144.888 94.4586H144.896ZM137.004 94.4586C136.807 94.4531 136.615 94.5224 136.467 94.6526C136.008 95.0602 135.967 96.0621 136.363 97.0786C136.874 98.4032 138.148 99.8029 140.198 99.8199C140.106 99.0124 139.945 98.2144 139.715 97.4352C139.288 96.0621 138.661 95.1451 137.851 94.706C137.591 94.5539 137.298 94.4689 136.997 94.4586H137.004Z" fill="white"/>
<path d="M140.945 113.359C140.118 113.359 139.324 113.028 138.739 112.44C138.153 111.851 137.824 111.053 137.824 110.22V107.078H144.068V110.22C144.068 110.632 143.988 111.041 143.831 111.422C143.674 111.803 143.444 112.149 143.154 112.441C142.863 112.732 142.519 112.963 142.14 113.121C141.761 113.279 141.355 113.359 140.945 113.359Z" fill="#1B1A2E"/>
<path d="M144.066 108.163H137.822C137.768 108.157 137.717 108.131 137.68 108.09C137.644 108.049 137.623 107.996 137.623 107.941C137.623 107.886 137.644 107.832 137.68 107.791C137.717 107.75 137.768 107.724 137.822 107.719H144.066C144.121 107.724 144.171 107.75 144.208 107.791C144.244 107.832 144.265 107.886 144.265 107.941C144.265 107.996 144.244 108.049 144.208 108.09C144.171 108.131 144.121 108.157 144.066 108.163Z" fill="#1F4168"/>
<path d="M144.066 109.235H137.822C137.764 109.235 137.708 109.212 137.667 109.17C137.626 109.129 137.603 109.073 137.603 109.014C137.603 108.956 137.626 108.9 137.667 108.858C137.708 108.817 137.764 108.793 137.822 108.793H144.066C144.124 108.793 144.18 108.817 144.221 108.858C144.262 108.9 144.285 108.956 144.285 109.014C144.285 109.073 144.262 109.129 144.221 109.17C144.18 109.212 144.124 109.235 144.066 109.235Z" fill="#1F4168"/>
<path d="M144.066 110.324H137.822C137.764 110.324 137.708 110.301 137.667 110.259C137.626 110.218 137.603 110.162 137.603 110.103C137.603 110.045 137.626 109.989 137.667 109.947C137.708 109.906 137.764 109.883 137.822 109.883H144.066C144.124 109.883 144.18 109.906 144.221 109.947C144.262 109.989 144.285 110.045 144.285 110.103C144.285 110.162 144.262 110.218 144.221 110.259C144.18 110.301 144.124 110.324 144.066 110.324Z" fill="#1F4168"/>
<path d="M141.112 85.3661C141.104 85.3664 141.097 85.3652 141.091 85.3627C141.084 85.3602 141.078 85.3563 141.073 85.3513C141.067 85.3463 141.063 85.3403 141.06 85.3337C141.058 85.3271 141.056 85.3199 141.056 85.3127V79.7548C141.056 79.7476 141.058 79.7405 141.06 79.7338C141.063 79.7272 141.067 79.7212 141.073 79.7162C141.078 79.7112 141.084 79.7074 141.091 79.7048C141.097 79.7023 141.104 79.7011 141.112 79.7015C141.126 79.7015 141.14 79.707 141.15 79.7169C141.16 79.7269 141.166 79.7405 141.167 79.7548V85.3127C141.166 85.3271 141.16 85.3406 141.15 85.3506C141.14 85.3605 141.126 85.3661 141.112 85.3661Z" fill="#FFDD33"/>
<path d="M157.533 97.0469H152.008C152.001 97.0469 151.994 97.0455 151.987 97.0426C151.98 97.0398 151.975 97.0356 151.97 97.0304C151.965 97.0252 151.961 97.019 151.958 97.0123C151.956 97.0055 151.955 96.9983 151.955 96.9911C151.955 96.9767 151.96 96.9629 151.97 96.9525C151.98 96.9421 151.994 96.9359 152.008 96.9353H157.533C157.548 96.9359 157.561 96.9421 157.571 96.9525C157.581 96.9629 157.586 96.9767 157.586 96.9911C157.587 96.9983 157.585 97.0055 157.583 97.0123C157.58 97.019 157.577 97.0252 157.572 97.0304C157.567 97.0356 157.561 97.0398 157.554 97.0426C157.547 97.0455 157.54 97.0469 157.533 97.0469Z" fill="#FFDD33"/>
<path d="M130.213 97.0469H124.69C124.676 97.0469 124.661 97.041 124.651 97.0306C124.641 97.0201 124.635 97.0059 124.635 96.9911C124.635 96.9763 124.641 96.9621 124.651 96.9516C124.661 96.9412 124.676 96.9353 124.69 96.9353H130.213C130.228 96.9353 130.242 96.9412 130.252 96.9516C130.263 96.9621 130.269 96.9763 130.269 96.9911C130.269 97.0059 130.263 97.0201 130.252 97.0306C130.242 97.041 130.228 97.0469 130.213 97.0469Z" fill="#FFDD33"/>
<path d="M148.817 89.2961C148.81 89.2964 148.803 89.295 148.796 89.2921C148.789 89.2891 148.783 89.2847 148.779 89.2791C148.773 89.2741 148.769 89.2681 148.766 89.2614C148.763 89.2548 148.762 89.2476 148.762 89.2403C148.762 89.233 148.763 89.2258 148.766 89.2192C148.769 89.2125 148.773 89.2065 148.779 89.2015L152.683 85.2715C152.688 85.2662 152.695 85.262 152.701 85.2592C152.708 85.2563 152.716 85.2549 152.723 85.2549C152.73 85.2549 152.738 85.2563 152.745 85.2592C152.751 85.262 152.758 85.2662 152.763 85.2715C152.768 85.2767 152.772 85.283 152.775 85.2898C152.778 85.2967 152.779 85.3041 152.779 85.3115C152.779 85.3189 152.778 85.3263 152.775 85.3332C152.772 85.34 152.768 85.3463 152.763 85.3515L148.856 89.2791C148.851 89.2847 148.845 89.2891 148.838 89.2921C148.832 89.295 148.824 89.2964 148.817 89.2961Z" fill="#FFDD33"/>
<path d="M129.499 108.728C129.485 108.727 129.471 108.721 129.461 108.711C129.455 108.706 129.451 108.7 129.448 108.693C129.446 108.687 129.444 108.679 129.444 108.672C129.444 108.665 129.446 108.658 129.448 108.651C129.451 108.644 129.455 108.638 129.461 108.633L133.365 104.703C133.376 104.693 133.39 104.687 133.405 104.687C133.42 104.687 133.434 104.693 133.445 104.703C133.455 104.714 133.461 104.728 133.461 104.743C133.461 104.758 133.455 104.773 133.445 104.783L129.538 108.711C129.528 108.721 129.514 108.727 129.499 108.728Z" fill="#FFDD33"/>
<path d="M152.722 108.728C152.707 108.727 152.694 108.721 152.683 108.711L148.779 104.783C148.768 104.773 148.763 104.758 148.763 104.743C148.763 104.728 148.768 104.714 148.779 104.703C148.783 104.698 148.789 104.694 148.796 104.691C148.803 104.688 148.81 104.687 148.817 104.687C148.824 104.687 148.832 104.688 148.838 104.691C148.845 104.694 148.851 104.698 148.856 104.703L152.763 108.633C152.772 108.644 152.777 108.658 152.777 108.672C152.777 108.686 152.772 108.7 152.763 108.711C152.751 108.721 152.737 108.727 152.722 108.728Z" fill="#FFDD33"/>
<path d="M133.406 89.2961C133.399 89.2962 133.391 89.2948 133.384 89.2919C133.377 89.289 133.371 89.2846 133.365 89.2791L129.461 85.3515C129.451 85.3407 129.445 85.3263 129.445 85.3115C129.445 85.2966 129.451 85.2822 129.461 85.2714C129.471 85.2619 129.485 85.2566 129.499 85.2566C129.514 85.2566 129.527 85.2619 129.538 85.2714L133.445 89.2015C133.45 89.2064 133.454 89.2125 133.457 89.2191C133.46 89.2258 133.461 89.233 133.461 89.2403C133.461 89.2475 133.46 89.2547 133.457 89.2614C133.454 89.2681 133.45 89.2741 133.445 89.2791C133.435 89.2896 133.421 89.2957 133.406 89.2961Z" fill="#FFDD33"/>
</g>
<path d="M214.687 52.7536V87.7083C214.687 88.3175 214.154 88.8506 213.545 88.8506H182.017C181.408 88.8506 180.875 88.3175 180.875 87.7083V52.7536C180.875 52.1444 181.408 51.6113 182.017 51.6113H213.545C214.154 51.6113 214.687 52.0683 214.687 52.7536Z" fill="#D1D8DB"/>
<path d="M214.687 52.7539V57.5516H180.951V52.6777C180.951 52.0685 181.484 51.5354 182.093 51.5354H213.621C214.154 51.6116 214.687 52.0685 214.687 52.7539Z" fill="#002548"/>
<path d="M212.021 55.419C211.945 55.419 211.945 55.419 211.869 55.3429L210.574 54.0483C210.498 53.9721 210.498 53.8198 210.574 53.7436C210.651 53.6675 210.803 53.6675 210.879 53.7436L212.174 55.0383C212.25 55.1144 212.25 55.2667 212.174 55.3429C212.098 55.419 212.021 55.419 212.021 55.419Z" fill="#EC1C24"/>
<path d="M210.651 55.419C210.575 55.419 210.575 55.419 210.499 55.3429C210.422 55.2667 210.422 55.1144 210.499 55.0383L211.869 53.7436C211.945 53.6675 212.098 53.6675 212.174 53.7436C212.25 53.8198 212.25 53.9721 212.174 54.0483L210.879 55.3429C210.727 55.419 210.727 55.419 210.651 55.419Z" fill="#EC1C24"/>
<path d="M186.891 60.4451H184.149V63.1866H186.891V60.4451Z" fill="#54CB5A"/>
<path d="M210.27 62.5015H189.328V62.8822H210.27V62.5015Z" fill="#829198"/>
<path d="M210.27 60.7498H189.327V61.1305H210.27V60.7498Z" fill="#829198"/>
<path d="M186.891 66.0803H184.149V68.8219H186.891V66.0803Z" fill="#54CB5A"/>
<path d="M210.27 68.0603H189.328V68.4411H210.27V68.0603Z" fill="#829198"/>
<path d="M210.27 66.385H189.327V66.7658H210.27V66.385Z" fill="#829198"/>
<path d="M186.891 71.6396H184.149V74.3812H186.891V71.6396Z" fill="#54CB5A"/>
<path d="M210.27 73.6953H189.328V74.0761H210.27V73.6953Z" fill="#829198"/>
<path d="M210.27 71.9443H189.327V72.3251H210.27V71.9443Z" fill="#829198"/>
<path d="M186.891 77.2749H184.149V80.0164H186.891V77.2749Z" fill="#54CB5A"/>
<path d="M210.27 79.2551H189.328V79.6359H210.27V79.2551Z" fill="#829198"/>
<path d="M210.27 77.5796H189.327V77.9604H210.27V77.5796Z" fill="#829198"/>
<path d="M186.891 82.9106H184.149V85.6522H186.891V82.9106Z" fill="#54CB5A"/>
<path d="M210.27 84.8909H189.328V85.2716H210.27V84.8909Z" fill="#829198"/>
<path d="M210.27 83.2148H189.327V83.5956H210.27V83.2148Z" fill="#829198"/>
<path d="M81.1126 64.0242H61.6934V126.623H81.1126V64.0242Z" fill="#0054A5"/>
<path d="M81.1126 64.0242H61.6934V67.7557H81.1126V64.0242Z" fill="#002548"/>
<path d="M63.7498 66.7659L62.8359 65.8521L63.7498 65.0144L63.5213 65.8521L63.7498 66.7659Z" fill="#F8F9FA"/>
<path d="M64.8162 66.7662L63.9023 65.8523L64.8162 65.0146L64.5877 65.8523L64.8162 66.7662Z" fill="#F8F9FA"/>
<path d="M70.4516 69.8118H64.0547V76.2087H70.4516V69.8118Z" fill="#002548"/>
<path d="M78.8283 69.8118H72.4314V76.2087H78.8283V69.8118Z" fill="#002548"/>
<path d="M70.4516 78.189H64.0547V84.5859H70.4516V78.189Z" fill="#002548"/>
<path d="M78.8283 78.189H72.4314V84.5859H78.8283V78.189Z" fill="#002548"/>
<path d="M70.4516 86.6416H64.0547V93.0385H70.4516V86.6416Z" fill="#002548"/>
<path d="M78.8283 86.6416H72.4314V93.0385H78.8283V86.6416Z" fill="#002548"/>
<path d="M70.4516 95.0955H64.0547V101.492H70.4516V95.0955Z" fill="#002548"/>
<path d="M78.8283 95.0955H72.4314V101.492H78.8283V95.0955Z" fill="#002548"/>
<path d="M70.4516 103.549H64.0547V109.946H70.4516V103.549Z" fill="#002548"/>
<path d="M78.8283 103.549H72.4314V109.946H78.8283V103.549Z" fill="#002548"/>
<path d="M70.4516 112.001H64.0547V118.398H70.4516V112.001Z" fill="#002548"/>
<path d="M78.8283 112.001H72.4314V118.398H78.8283V112.001Z" fill="#002548"/>
<path d="M66.4155 70.8779V75.0664L67.4817 73.7718L69.3855 73.6956L66.4155 70.8779Z" fill="#F8F9FA"/>
<path d="M74.1833 70.8779V75.0664L75.2495 73.7718L77.1534 73.6956L74.1833 70.8779Z" fill="white"/>
<path d="M65.5015 79.8645V80.7783H65.8061V80.1691H67.1007V82.9868H66.5676V83.2914H68.0145V82.9868H67.4053V80.1691H68.6999V80.7783H69.0045V79.8645H65.5015Z" fill="#F8F9FA"/>
<path d="M77.3798 79.5267L73.7715 83.134L73.933 83.2956L77.5414 79.6883L77.3798 79.5267Z" fill="#F8F9FA"/>
<path d="M69.4618 91.744H65.0449V88.0125H69.4618V91.744ZM65.3495 91.4394H69.2334V88.2409H65.3495V91.4394Z" fill="#F8F9FA"/>
<path d="M77.9144 87.7083H74.3352V89.5359H73.269V91.9729H75.8583V91.059H77.8383V87.7083H77.9144ZM75.7821 91.8206H73.5737V89.7644H74.4114V91.059H75.7821V91.8206ZM75.7821 90.7544H74.6398V89.6883H75.7821V90.7544ZM77.686 90.7544H75.9344V89.5359H74.6398V88.0129H77.686V90.7544Z" fill="#F8F9FA"/>
<path d="M67.9325 97.2885L65.4016 99.8193L65.7786 100.196L68.3094 97.6654L67.9325 97.2885Z" fill="#F8F9FA"/>
<path d="M67.0244 97.2269C66.7198 97.3792 66.7198 97.3792 66.5675 97.6839C66.4152 97.3792 66.4152 97.3792 66.1106 97.2269C66.4152 97.0746 66.4152 97.0746 66.5675 96.77C66.7198 97.0746 66.7198 97.0746 67.0244 97.2269Z" fill="#F8F9FA"/>
<path d="M69.0806 98.7501C68.776 98.9024 68.776 98.9024 68.6237 99.2071C68.4714 98.9024 68.4714 98.9024 68.1667 98.7501C68.4714 98.5978 68.4714 98.5978 68.6237 98.2932C68.776 98.5978 68.776 98.5978 69.0806 98.7501Z" fill="#F8F9FA"/>
<path d="M68.014 96.7699C67.7856 96.8461 67.7855 96.8461 67.7094 97.0746C67.6332 96.8461 67.6332 96.8461 67.4048 96.7699C67.6332 96.6938 67.6332 96.6938 67.7094 96.4653C67.8617 96.6938 67.8617 96.6176 68.014 96.7699Z" fill="#F8F9FA"/>
<path d="M73.8027 97.0748C73.955 97.0748 74.1835 97.0748 74.3358 97.0748C74.3358 96.9225 74.3358 96.6941 74.3358 96.5417C74.4881 96.5417 74.7166 96.5417 74.8689 96.5417C74.8689 97.3033 74.8689 98.0648 74.945 98.8264C75.3258 98.3694 75.7066 97.9887 76.0873 97.6079C75.7827 97.6079 75.402 97.6079 75.0974 97.6079C75.0974 97.4556 75.0974 97.2271 75.0974 97.0748C75.0974 97.0748 75.0974 97.0748 75.1735 97.0748C75.6304 97.0748 76.1635 97.0748 76.6204 97.0748H76.6966C76.8489 96.9225 77.0012 96.7702 77.1535 96.5417C77.2297 96.6179 77.3058 96.6941 77.382 96.7702C77.2297 96.9225 77.0774 97.0748 76.925 97.3033C76.925 97.3033 76.925 97.3033 76.925 97.3794C76.925 97.8364 76.925 98.3694 76.925 98.8264C76.925 98.8264 76.925 98.8264 76.925 98.9025C76.7727 98.9025 76.5443 98.9025 76.392 98.9025C76.392 98.5979 76.392 98.2171 76.392 97.9125C76.0112 98.2933 75.6304 98.7502 75.1735 99.131C75.935 99.131 76.6966 99.131 77.4581 99.0548C77.4581 99.2071 77.4581 99.4356 77.4581 99.5879C77.3058 99.5879 77.0774 99.5879 76.925 99.5879C76.925 99.7402 76.925 99.9687 76.925 100.121C76.7727 100.121 76.5443 100.121 76.392 100.121C76.392 99.9687 76.392 99.7402 76.392 99.5879C75.7066 99.5879 75.0974 99.5879 74.412 99.5879C74.412 98.9025 74.412 98.2933 74.412 97.6079C74.2597 97.6079 74.0312 97.6079 73.8789 97.6079C73.8789 97.4556 73.8789 97.3033 73.8027 97.0748Z" fill="#F8F9FA"/>
<path d="M74.6401 104.31H74.3354V105.376H74.6401V104.31Z" fill="#F8F9FA"/>
<path d="M74.1072 105.529H73.041V105.833H74.1072V105.529Z" fill="#F8F9FA"/>
<path d="M74.3354 105.529V108.803H77.8385V106.823L77.1531 106.214L76.4678 105.605H74.3354V105.529ZM77.8385 106.823L76.3916 105.529L77.077 106.138L77.8385 106.823ZM74.6401 108.499V105.833H76.5439V106.823H77.6101V108.499H74.6401Z" fill="#F8F9FA"/>
<path d="M67.2529 109.031C66.0344 109.031 64.9683 108.041 64.9683 106.746C64.9683 105.452 65.9583 104.462 67.2529 104.462C68.4713 104.462 69.5375 105.452 69.5375 106.746C69.5375 108.041 68.4713 109.031 67.2529 109.031ZM67.2529 104.919C66.2629 104.919 65.4252 105.756 65.4252 106.746C65.4252 107.736 66.2629 108.574 67.2529 108.574C68.2429 108.574 69.0806 107.736 69.0806 106.746C69.0806 105.756 68.2429 104.919 67.2529 104.919Z" fill="#F8F9FA"/>
<g clip-path="url(#clip1_14553_10370)">
<path d="M82.5319 39.3396H45.158V53.4848H82.5319V39.3396Z" fill="white"/>
<path d="M82.5319 39.3396H45.158V42.1749H82.5319V39.3396Z" fill="#F0F2F5"/>
<path d="M82.5973 53.549H45.0935V39.2742H82.5973V53.549ZM45.2246 53.418H82.4661V39.4051H45.2246V53.418Z" fill="#1B1A2E"/>
<path d="M51.5427 46.7259V44.9802H48.0493V48.4704H49.796V50.2148H53.2894V46.7259H51.5427Z" fill="#ED1C24"/>
<path d="M60.3469 46.6487V44.9802H56.8916V48.4311H58.5688H60.3469V46.7639H62.0162V50.0995H58.6763V48.4311H58.5609V50.2148H62.1316V46.6487H60.3469Z" fill="#ED1C24"/>
<path d="M69.0895 46.6866V44.9841H65.5581V48.5109H67.2628V50.2134H70.7942V46.6866H69.0895ZM65.6722 48.3891V45.0941H68.9754V46.6866H67.2707V48.3891H65.6722ZM70.6841 50.0916H67.3809V48.507H69.0856V46.8045H70.6801L70.6841 50.0916Z" fill="#ED1C24"/>
<path d="M77.8937 46.7246V44.9802H74.4004V48.4704H76.1471V46.7246H77.8937Z" fill="#ED1C24"/>
<path d="M77.8937 46.7246V48.4703H76.147V50.2147H79.6403V46.7246H77.8937Z" fill="#ED1C24"/>
<path d="M46.8771 41.3027C47.1436 41.3027 47.3597 41.087 47.3597 40.8208C47.3597 40.5546 47.1436 40.3389 46.8771 40.3389C46.6106 40.3389 46.3945 40.5546 46.3945 40.8208C46.3945 41.087 46.6106 41.3027 46.8771 41.3027Z" fill="#1F4168"/>
<path d="M49.0145 41.3027C49.2811 41.3027 49.4971 41.087 49.4971 40.8208C49.4971 40.5546 49.2811 40.3389 49.0145 40.3389C48.748 40.3389 48.532 40.5546 48.532 40.8208C48.532 41.087 48.748 41.3027 49.0145 41.3027Z" fill="#1F4168"/>
<path d="M51.152 41.3027C51.4185 41.3027 51.6346 41.087 51.6346 40.8208C51.6346 40.5546 51.4185 40.3389 51.152 40.3389C50.8855 40.3389 50.6694 40.5546 50.6694 40.8208C50.6694 41.087 50.8855 41.3027 51.152 41.3027Z" fill="#1F4168"/>
</g>
<defs>
<clipPath id="clip0_14553_10370">
<rect width="32.9514" height="33.6601" fill="white" transform="translate(124.635 79.7014)"/>
</clipPath>
<clipPath id="clip1_14553_10370">
<rect width="37.5051" height="14.2761" fill="white" transform="translate(45.0923 39.2742)"/>
</clipPath>
</defs>
</svg>
