<svg width="334" height="248" viewBox="0 0 334 248" fill="none" xmlns="http://www.w3.org/2000/svg">
<path d="M273.2 200.9H60.8004C55.3004 200.9 50.9004 196.5 50.9004 191V47.5999C50.9004 42.0999 55.3004 37.7 60.8004 37.7H273.2C278.7 37.7 283.1 42.0999 283.1 47.5999V191C283.1 196.5 278.7 200.9 273.2 200.9Z" fill="#829198"/>
<path d="M282.1 210.3H51.9C43.7 210.3 37 203.6 37 195.4V194.7H297V195.4C297 203.6 290.3 210.3 282.1 210.3Z" fill="#5F737C"/>
<path d="M274.8 46H59.5V189.2H274.8V46Z" fill="#F8F9FA"/>
<path d="M275 46H59.5V51.2H275V46Z" fill="#002548"/>
<path d="M64.3996 49.9001C65.1176 49.9001 65.6996 49.318 65.6996 48.6C65.6996 47.8821 65.1176 47.3 64.3996 47.3C63.6816 47.3 63.0996 47.8821 63.0996 48.6C63.0996 49.318 63.6816 49.9001 64.3996 49.9001Z" fill="#EC1C24"/>
<path d="M69.6994 49.9001C70.4174 49.9001 70.9994 49.318 70.9994 48.6C70.9994 47.8821 70.4174 47.3 69.6994 47.3C68.9814 47.3 68.3994 47.8821 68.3994 48.6C68.3994 49.318 68.9814 49.9001 69.6994 49.9001Z" fill="#FFDC33"/>
<path d="M75.0998 49.9001C75.8178 49.9001 76.3998 49.318 76.3998 48.6C76.3998 47.8821 75.8178 47.3 75.0998 47.3C74.3818 47.3 73.7998 47.8821 73.7998 48.6C73.7998 49.318 74.3818 49.9001 75.0998 49.9001Z" fill="#54CB5A"/>
<path d="M191 94.3C186.7 89.1 181 85 174.4 83.4C167.7 81.7 159.6 82.4 153.5 85.7C140.6 92.5 132.6 108.5 137.9 122.6C139.1 125.8 140.9 128.8 143 131.6C145 134.2 147.5 136.4 149.8 138.8C152.1 141.2 154.3 143.9 155.2 147.2C155.9 149.8 154.6 153.6 157.5 155.2C158.9 156 161.2 155.6 162.8 155.6C165 155.6 167.3 155.5 169.5 155.5C171.1 155.5 172.8 155.6 174.5 155.5C175.6 155.4 177 155.3 177.8 154.5C178.7 153.6 178.8 152.2 178.8 151.1C178.8 149.2 178.9 147.6 179.6 145.8C181 142.2 183.7 139.4 186.5 136.8C191.8 131.9 196 126.2 197.4 119C198.8 112.1 197.6 105 194.1 98.9C193.1 97.2 192.1 95.7 191 94.3C190.8 94 190.4 94.4 190.6 94.7C195.1 100.3 197.6 107.3 197.3 114.5C197 121.6 193.9 128.2 189.1 133.3C185 137.7 179.2 141.7 178.3 148.2C178.1 149.6 178.4 151.1 178.1 152.6C177.6 154.7 175.5 154.9 173.7 154.9C170.1 155 166.6 154.9 163 155C161.2 155 158.3 155.6 157 154.1C155.7 152.7 156.2 150.6 156.1 149C155.9 146.4 154.7 143.8 153.2 141.7C151.5 139.5 149.5 137.6 147.5 135.6C145.2 133.3 143.1 130.8 141.3 128.1C137.4 121.9 135.8 114.6 137.5 107.3C139.1 100.3 143.2 94.1 148.7 89.6C155.2 84.3 163.7 82.2 171.9 83.4C179.4 84.5 186 88.9 190.7 94.6C190.8 95 191.2 94.6 191 94.3Z" fill="#FFDC33"/>
<path d="M176 156.7H157.8V155.1H176V156.7ZM158.3 156.2H175.5V155.5H158.3V156.2Z" fill="#FFDC33"/>
<path d="M175.5 165.5H158.5C157.9 165.5 157.4 165.3 157 164.8L156.9 164.7C156.5 164.3 156.4 163.5 156.8 163L156.9 162.8C157.1 162.5 157.1 162.1 156.9 161.8L156.8 161.7C156.4 161.3 156.4 160.5 156.7 160L156.9 159.8C157.1 159.5 157.1 159.1 156.8 158.8C156.4 158.4 156.3 157.6 156.7 157.1L157.2 156.5C157.4 156.2 157.8 156 158.2 156H175.8C176.2 156 176.5 156.2 176.8 156.5L177.3 157.1C177.7 157.6 177.6 158.4 177.2 158.8C177 159 176.9 159.5 177.1 159.8L177.3 160C177.7 160.5 177.6 161.2 177.2 161.7L177.1 161.8C176.9 162 176.9 162.5 177.1 162.8L177.2 163C177.6 163.5 177.6 164.3 177.1 164.7L177 164.8C176.6 165.3 176 165.5 175.5 165.5ZM158.2 156.7C158 156.7 157.8 156.8 157.7 157L157.2 157.6C157 157.9 157 158.3 157.3 158.6C157.8 159 157.8 159.8 157.4 160.3L157.2 160.5C157 160.8 157 161.2 157.2 161.4L157.3 161.5C157.7 161.9 157.7 162.7 157.3 163.2L157.2 163.4C157 163.7 157 164.1 157.2 164.4L157.3 164.5C157.6 164.8 158 165 158.4 165H175.4C175.8 165 176.2 164.8 176.5 164.5L176.6 164.4C176.8 164.2 176.9 163.7 176.6 163.4L176.5 163.2C176.1 162.7 176.1 162 176.5 161.5L176.6 161.4C176.8 161.2 176.8 160.7 176.6 160.5L176.4 160.3C176 159.8 176.1 159 176.5 158.6C176.7 158.4 176.8 157.9 176.6 157.6L176.1 157C176 156.8 175.8 156.7 175.6 156.7H158.2Z" fill="#FFDC33"/>
<path d="M165.3 155.4C165.2 147.9 165 140.2 164 132.8C163.7 130.3 163.1 127.5 161.7 125.3C161 124.3 159.9 123.2 158.5 123.5C157.2 123.7 156.4 125 156.6 126.3C157 128.2 158.9 129.6 160.8 129.8C165.6 130.5 169.1 126.8 169.3 122.1C169.3 120.6 168.9 119.1 167.2 118.8C165.8 118.6 165 119.7 164.8 121C164.5 123.7 165.9 128.5 169 129.1C171.3 129.6 173.7 128.3 175.3 126.7C176.4 125.6 178.1 123.3 176.9 121.7C175.4 119.7 172.9 121.9 172 123.2C170.2 125.8 169.4 128.9 169.2 132C168.7 139.7 168.6 147.5 168.5 155.2C168.5 155.4 168.8 155.4 168.8 155.2C169 150.2 169.1 145.3 169.3 140.3C169.5 135.6 169.1 130.3 171.1 125.8C171.5 124.8 172.1 123.8 172.8 122.9C173.8 121.7 176.4 120.1 176.9 122.6C177.3 124.6 174.6 127 173 127.8C171.2 128.8 168.8 129.1 167.3 127.5C166.3 126.3 165.7 124.7 165.4 123.2C165.1 122 164.8 119.5 166.5 119.1C169 118.5 169 121.9 168.7 123.3C168.3 125.4 167.2 127.5 165.3 128.5C163.5 129.5 160.8 129.7 159 128.6C157.5 127.7 155.7 124.7 158.3 123.8C159.9 123.3 161.2 124.9 161.8 126.1C163.6 129.5 163.8 133.7 164.1 137.5C164.5 143.4 164.8 149.3 165.1 155.3C165.1 155.5 165.3 155.5 165.3 155.4Z" fill="#FFDC33"/>
<path d="M174.8 159.5H157.3C157.1 159.5 157 159.4 157 159.2C157 159 157.1 158.9 157.3 158.9H174.8C175 158.9 175.1 159 175.1 159.2C175.1 159.4 175 159.5 174.8 159.5Z" fill="#FFDC33"/>
<path d="M176.6 162.4H162.6C162.4 162.4 162.3 162.3 162.3 162.1C162.3 161.9 162.4 161.8 162.6 161.8H176.6C176.8 161.8 176.9 161.9 176.9 162.1C176.9 162.3 176.8 162.4 176.6 162.4Z" fill="#FFDC33"/>
<path d="M213.899 171H212.399V170.5H213.399V169.5H213.899V171Z" fill="#0054A5"/>
<path d="M210 171H207.5V170.5H210V171ZM205.1 171H202.6V170.5H205.1V171ZM200.2 171H197.7V170.5H200.2V171ZM195.3 171H192.8V170.5H195.3V171ZM190.3 171H187.8V170.5H190.3V171ZM185.4 171H183V170.5H185.5V171H185.4ZM180.5 171H178V170.5H180.5V171ZM175.6 171H173.1V170.5H175.6V171ZM170.7 171H168.2V170.5H170.7V171ZM165.8 171H163.3V170.5H165.8V171ZM160.9 171H158.4V170.5H160.9V171ZM155.9 171H153.4V170.5H155.9V171ZM151 171H148.5V170.5H151V171ZM146.1 171H143.6V170.5H146.1V171ZM141.2 171H138.7V170.5H141.2V171ZM136.3 171H133.8V170.5H136.3V171ZM131.4 171H128.9V170.5H131.4V171ZM126.5 171H124V170.5H126.5V171Z" fill="#0054A5"/>
<path d="M121.6 171H120.1V169.5H120.6V170.5H121.6V171Z" fill="#0054A5"/>
<path d="M120.6 167H120.1V164.5H120.6V167ZM120.6 162.1H120.1V159.6H120.6V162.1ZM120.6 157.2H120.1V154.7H120.6V157.2ZM120.6 152.3H120.1V149.8H120.6V152.3ZM120.6 147.4H120.1V144.9H120.6V147.4ZM120.6 142.5H120.1V140H120.6V142.5ZM120.6 137.6H120.1V135.1H120.6V137.6ZM120.6 132.6H120.1V130.1H120.6V132.6ZM120.6 127.7H120.1V125.2H120.6V127.7ZM120.6 122.8H120.1V120.3H120.6V122.8ZM120.6 117.9H120.1V115.4H120.6V117.9ZM120.6 113H120.1V110.5H120.6V113ZM120.6 108.1H120.1V105.6H120.6V108.1ZM120.6 103.2H120.1V100.7H120.6V103.2ZM120.6 98.2H120.1V95.7H120.6V98.2ZM120.6 93.3H120.1V90.8H120.6V93.3ZM120.6 88.4H120.1V86H120.6V88.4ZM120.6 83.5H120.1V81H120.6V83.5Z" fill="#0054A5"/>
<path d="M120.6 78.6001H120.1V77.1001H121.6V77.6001H120.6V78.6001Z" fill="#0054A5"/>
<path d="M210 77.6001H207.5V77.1001H210V77.6001ZM205.1 77.6001H202.6V77.1001H205.1V77.6001ZM200.2 77.6001H197.7V77.1001H200.2V77.6001ZM195.3 77.6001H192.8V77.1001H195.3V77.6001ZM190.3 77.6001H187.8V77.1001H190.3V77.6001ZM185.4 77.6001H183V77.1001H185.5V77.6001H185.4ZM180.5 77.6001H178V77.1001H180.5V77.6001ZM175.6 77.6001H173.1V77.1001H175.6V77.6001ZM170.7 77.6001H168.2V77.1001H170.7V77.6001ZM165.8 77.6001H163.3V77.1001H165.8V77.6001ZM160.9 77.6001H158.4V77.1001H160.9V77.6001ZM155.9 77.6001H153.4V77.1001H155.9V77.6001ZM151 77.6001H148.5V77.1001H151V77.6001ZM146.1 77.6001H143.6V77.1001H146.1V77.6001ZM141.2 77.6001H138.7V77.1001H141.2V77.6001ZM136.3 77.6001H133.8V77.1001H136.3V77.6001ZM131.4 77.6001H128.9V77.1001H131.4V77.6001ZM126.5 77.6001H124V77.1001H126.5V77.6001Z" fill="#0054A5"/>
<path d="M213.899 78.6001H213.399V77.6001H212.399V77.1001H213.899V78.6001Z" fill="#0054A5"/>
<path d="M213.899 167H213.399V164.5H213.899V167ZM213.899 162.1H213.399V159.6H213.899V162.1ZM213.899 157.2H213.399V154.7H213.899V157.2ZM213.899 152.3H213.399V149.8H213.899V152.3ZM213.899 147.4H213.399V144.9H213.899V147.4ZM213.899 142.5H213.399V140H213.899V142.5ZM213.899 137.6H213.399V135.1H213.899V137.6ZM213.899 132.6H213.399V130.1H213.899V132.6ZM213.899 127.7H213.399V125.2H213.899V127.7ZM213.899 122.8H213.399V120.3H213.899V122.8ZM213.899 117.9H213.399V115.4H213.899V117.9ZM213.899 113H213.399V110.5H213.899V113ZM213.899 108.1H213.399V105.6H213.899V108.1ZM213.899 103.2H213.399V100.7H213.899V103.2ZM213.899 98.2H213.399V95.7H213.899V98.2ZM213.899 93.3H213.399V90.8H213.899V93.3ZM213.899 88.4H213.399V86H213.899V88.4ZM213.899 83.5H213.399V81H213.899V83.5Z" fill="#0054A5"/>
<path d="M168.8 75.3H165.2V78.9H168.8V75.3Z" fill="#0054A5"/>
<path d="M122.1 75.3H118.5V78.9H122.1V75.3Z" fill="#0054A5"/>
<path d="M122.1 128.9H118.5V132.5H122.1V128.9Z" fill="#0054A5"/>
<path d="M215.5 75.3H211.9V78.9H215.5V75.3Z" fill="#0054A5"/>
<path d="M215.5 128.9H211.9V132.5H215.5V128.9Z" fill="#0054A5"/>
<path d="M168.8 168.7H165.2V172.3H168.8V168.7Z" fill="#0054A5"/>
<path d="M122.1 168.7H118.5V172.3H122.1V168.7Z" fill="#0054A5"/>
<path d="M215.5 168.7H211.9V172.3H215.5V168.7Z" fill="#0054A5"/>
<path d="M121.126 41.3626L95.9609 46.0627L100.661 71.2275L125.826 66.5274L121.126 41.3626Z" fill="#0054A5"/>
<path d="M103 52.7999C103.7 52.6999 104.4 52.6 105.1 52.4C105 51.7 104.9 50.9999 104.7 50.2999C105.4 50.1999 106.1 50.1 106.7 49.9C107.2 52.8 107.8 55.7999 108.3 58.7999C109.6 56.9 110.9 55 112.1 53.2C110.9 53.4 109.6 53.7 108.2 53.9C108.1 53.2 108 52.4999 107.8 51.7999C107.9 51.7999 107.9 51.7999 108 51.7999C109.9 51.4999 111.8 51.0999 113.7 50.7999C113.8 50.7999 113.9 50.6999 114 50.5999C114.5 49.7999 115.1 49.0999 115.6 48.2999L115.7 48.2C116 48.4 116.4 48.7 116.7 48.9L116.6 49C116.1 49.8 115.5 50.4999 115 51.2999C114.9 51.3999 114.9 51.4999 114.9 51.5999C115.2 53.4999 115.6 55.3999 115.9 57.2999C115.9 57.4 115.9 57.4 115.9 57.5C115.2 57.6 114.5 57.7 113.8 57.9C113.6 56.6 113.3 55.3 113.1 54C111.8 55.8 110.5 57.7 109.2 59.5C112.1 59 115.1 58.4 118 57.9C118.1 58.6 118.2 59.3 118.4 59.9C117.7 60 117.1 60.0999 116.4 60.2999C116.5 60.9999 116.7 61.7 116.8 62.4C116.1 62.5 115.4 62.5999 114.7 62.7999C114.6 62.0999 114.5 61.4 114.3 60.7C111.7 61.2 109.2 61.5999 106.6 62.0999C106.1 59.5999 105.7 57 105.2 54.5C104.5 54.6 103.8 54.7 103.1 54.9C103.3 54.2 103.2 53.4999 103 52.7999Z" fill="#F8F9FA"/>
<path d="M87.5004 43.3H61.9004V68.9001H87.5004V43.3Z" fill="#54CB5A"/>
<path d="M77.9656 51.2349L66.3691 62.8313L67.9955 64.4576L79.5919 52.8612L77.9656 51.2349Z" fill="#F8F9FA"/>
<path d="M73.5002 51.0999C72.2002 51.6999 72.2002 51.7 71.6002 53C71.0002 51.7 71.0002 51.6999 69.7002 51.0999C71.0002 50.4999 71.0002 50.5 71.6002 49.2C72.2002 50.5 72.2002 50.4999 73.5002 51.0999Z" fill="#F8F9FA"/>
<path d="M82.9996 58.0999C81.4996 58.7999 81.4996 58.7999 80.7996 60.2999C80.0996 58.7999 80.0996 58.7999 78.5996 58.0999C80.0996 57.3999 80.0996 57.3999 80.7996 55.8999C81.4996 57.4999 81.4996 57.3999 82.9996 58.0999Z" fill="#F8F9FA"/>
<path d="M78.1996 49C77.2996 49.4 77.2996 49.3999 76.8996 50.2999C76.4996 49.3999 76.4996 49.4 75.5996 49C76.4996 48.6 76.4996 48.6 76.8996 47.7C77.2996 48.6 77.2996 48.6 78.1996 49Z" fill="#F8F9FA"/>
<path d="M267.7 59.7V105.6C267.7 106.4 267 107.1 266.2 107.1H224.8C224 107.1 223.3 106.4 223.3 105.6V59.7C223.3 58.9 224 58.2 224.8 58.2H266.2C267 58.2 267.7 58.8 267.7 59.7Z" fill="#D1D8DB"/>
<path d="M267.7 59.6999V65.9999H223.4V59.5999C223.4 58.7999 224.1 58.0999 224.9 58.0999H266.3C267 58.1999 267.7 58.7999 267.7 59.6999Z" fill="#002548"/>
<path d="M264.2 63.2C264.1 63.2 264.1 63.2 264 63.1L262.3 61.4001C262.2 61.3001 262.2 61.1 262.3 61C262.4 60.9 262.6 60.9 262.7 61L264.4 62.7C264.5 62.8 264.5 63 264.4 63.1C264.3 63.2 264.2 63.2 264.2 63.2Z" fill="#EC1C24"/>
<path d="M262.4 63.2C262.3 63.2 262.3 63.2 262.2 63.1C262.1 63 262.1 62.8 262.2 62.7L264 61C264.1 60.9 264.3 60.9 264.4 61C264.5 61.1 264.5 61.3001 264.4 61.4001L262.7 63.1C262.5 63.2 262.5 63.2 262.4 63.2Z" fill="#EC1C24"/>
<path d="M231.2 69.8H227.6V73.4H231.2V69.8Z" fill="#54CB5A"/>
<path d="M261.9 72.5H234.4V73H261.9V72.5Z" fill="#829198"/>
<path d="M261.9 70.2H234.4V70.7H261.9V70.2Z" fill="#829198"/>
<path d="M231.2 77.2H227.6V80.8H231.2V77.2Z" fill="#54CB5A"/>
<path d="M261.9 79.7998H234.4V80.2998H261.9V79.7998Z" fill="#829198"/>
<path d="M261.9 77.5999H234.4V78.0999H261.9V77.5999Z" fill="#829198"/>
<path d="M231.2 84.5H227.6V88.1H231.2V84.5Z" fill="#54CB5A"/>
<path d="M261.9 87.2H234.4V87.7H261.9V87.2Z" fill="#829198"/>
<path d="M261.9 84.8999H234.4V85.3999H261.9V84.8999Z" fill="#829198"/>
<path d="M231.2 91.8999H227.6V95.4999H231.2V91.8999Z" fill="#54CB5A"/>
<path d="M261.9 94.5H234.4V95H261.9V94.5Z" fill="#829198"/>
<path d="M261.9 92.3H234.4V92.8H261.9V92.3Z" fill="#829198"/>
<path d="M231.2 99.3H227.6V102.9H231.2V99.3Z" fill="#54CB5A"/>
<path d="M261.9 101.9H234.4V102.4H261.9V101.9Z" fill="#829198"/>
<path d="M261.9 99.7H234.4V100.2H261.9V99.7Z" fill="#829198"/>
<path d="M92.2998 74.5H66.7998V156.7H92.2998V74.5Z" fill="#0054A5"/>
<path d="M92.2998 74.5H66.7998V79.4H92.2998V74.5Z" fill="#002548"/>
<path d="M69.4998 78.1L68.2998 76.9L69.4998 75.8L69.1998 76.9L69.4998 78.1Z" fill="#F8F9FA"/>
<path d="M70.9002 78.1L69.7002 76.9L70.9002 75.8L70.6002 76.9L70.9002 78.1Z" fill="#F8F9FA"/>
<path d="M78.3004 82.0999H69.9004V90.4999H78.3004V82.0999Z" fill="#002548"/>
<path d="M89.3004 82.0999H80.9004V90.4999H89.3004V82.0999Z" fill="#002548"/>
<path d="M78.3004 93.0999H69.9004V101.5H78.3004V93.0999Z" fill="#002548"/>
<path d="M89.3004 93.0999H80.9004V101.5H89.3004V93.0999Z" fill="#002548"/>
<path d="M78.3004 104.2H69.9004V112.6H78.3004V104.2Z" fill="#002548"/>
<path d="M89.3004 104.2H80.9004V112.6H89.3004V104.2Z" fill="#002548"/>
<path d="M78.3004 115.3H69.9004V123.7H78.3004V115.3Z" fill="#002548"/>
<path d="M89.3004 115.3H80.9004V123.7H89.3004V115.3Z" fill="#002548"/>
<path d="M78.3004 126.4H69.9004V134.8H78.3004V126.4Z" fill="#002548"/>
<path d="M89.3004 126.4H80.9004V134.8H89.3004V126.4Z" fill="#002548"/>
<path d="M78.3004 137.5H69.9004V145.9H78.3004V137.5Z" fill="#002548"/>
<path d="M89.3004 137.5H80.9004V145.9H89.3004V137.5Z" fill="#002548"/>
<path d="M73 83.5V89L74.4 87.3L76.9 87.2L73 83.5Z" fill="#F8F9FA"/>
<path d="M83.2002 83.5V89L84.6002 87.3L87.1002 87.2L83.2002 83.5Z" fill="white"/>
<path d="M71.7998 95.3V96.5H72.1998V95.7H73.8998V99.4H73.1998V99.8H75.0998V99.4H74.2998V95.7H75.9998V96.5H76.3998V95.3H71.7998Z" fill="#F8F9FA"/>
<path d="M87.3994 94.8566L82.6611 99.5935L82.8732 99.8057L87.6115 95.0688L87.3994 94.8566Z" fill="#F8F9FA"/>
<path d="M77.0002 110.9H71.2002V106H77.0002V110.9ZM71.6002 110.5H76.7002V106.3H71.6002V110.5Z" fill="#F8F9FA"/>
<path d="M88.1 105.6H83.4V108H82V111.2H85.4V110H88V105.6H88.1ZM85.3 111H82.4V108.3H83.5V110H85.3V111ZM85.3 109.6H83.8V108.2H85.3V109.6ZM87.8 109.6H85.5V108H83.8V106H87.8V109.6Z" fill="#F8F9FA"/>
<path d="M74.9933 118.181L71.6699 121.505L72.1649 122L75.4883 118.676L74.9933 118.181Z" fill="#F8F9FA"/>
<path d="M73.8006 118.1C73.4006 118.3 73.4006 118.3 73.2006 118.7C73.0006 118.3 73.0006 118.3 72.6006 118.1C73.0006 117.9 73.0006 117.9 73.2006 117.5C73.4006 117.9 73.4006 117.9 73.8006 118.1Z" fill="#F8F9FA"/>
<path d="M76.5008 120.1C76.1008 120.3 76.1008 120.3 75.9008 120.7C75.7008 120.3 75.7008 120.3 75.3008 120.1C75.7008 119.9 75.7008 119.9 75.9008 119.5C76.1008 119.9 76.1008 119.9 76.5008 120.1Z" fill="#F8F9FA"/>
<path d="M75.1008 117.5C74.8008 117.6 74.8008 117.6 74.7008 117.9C74.6008 117.6 74.6008 117.6 74.3008 117.5C74.6008 117.4 74.6008 117.4 74.7008 117.1C74.9008 117.4 74.9008 117.3 75.1008 117.5Z" fill="#F8F9FA"/>
<path d="M82.7002 117.9C82.9002 117.9 83.2002 117.9 83.4002 117.9C83.4002 117.7 83.4002 117.4 83.4002 117.2C83.6002 117.2 83.9002 117.2 84.1002 117.2C84.1002 118.2 84.1002 119.2 84.2002 120.2C84.7002 119.6 85.2002 119.1 85.7002 118.6C85.3002 118.6 84.8002 118.6 84.4002 118.6C84.4002 118.4 84.4002 118.1 84.4002 117.9C84.4002 117.9 84.4002 117.9 84.5002 117.9C85.1002 117.9 85.8002 117.9 86.4002 117.9H86.5002C86.7002 117.7 86.9002 117.5 87.1002 117.2C87.2002 117.3 87.3002 117.4 87.4002 117.5C87.2002 117.7 87.0002 117.9 86.8002 118.2C86.8002 118.2 86.8002 118.2 86.8002 118.3C86.8002 118.9 86.8002 119.6 86.8002 120.2C86.8002 120.2 86.8002 120.2 86.8002 120.3C86.6002 120.3 86.3002 120.3 86.1002 120.3C86.1002 119.9 86.1002 119.4 86.1002 119C85.6002 119.5 85.1002 120.1 84.5002 120.6C85.5002 120.6 86.5002 120.6 87.5002 120.5C87.5002 120.7 87.5002 121 87.5002 121.2C87.3002 121.2 87.0002 121.2 86.8002 121.2C86.8002 121.4 86.8002 121.7 86.8002 121.9C86.6002 121.9 86.3002 121.9 86.1002 121.9C86.1002 121.7 86.1002 121.4 86.1002 121.2C85.2002 121.2 84.4002 121.2 83.5002 121.2C83.5002 120.3 83.5002 119.5 83.5002 118.6C83.3002 118.6 83.0002 118.6 82.8002 118.6C82.8002 118.4 82.8002 118.2 82.7002 117.9Z" fill="#F8F9FA"/>
<path d="M83.8004 127.4H83.4004V128.8H83.8004V127.4Z" fill="#F8F9FA"/>
<path d="M83.1002 129H81.7002V129.4H83.1002V129Z" fill="#F8F9FA"/>
<path d="M83.4004 129V133.3H88.0004V130.7L87.1004 129.9L86.2004 129.1H83.4004V129ZM88.0004 130.7L86.1004 129L87.0004 129.8L88.0004 130.7ZM83.8004 132.9V129.4H86.3004V130.7H87.7004V132.9H83.8004Z" fill="#F8F9FA"/>
<path d="M74.0996 133.6C72.4996 133.6 71.0996 132.3 71.0996 130.6C71.0996 128.9 72.3996 127.6 74.0996 127.6C75.6996 127.6 77.0996 128.9 77.0996 130.6C77.0996 132.3 75.6996 133.6 74.0996 133.6ZM74.0996 128.2C72.7996 128.2 71.6996 129.3 71.6996 130.6C71.6996 131.9 72.7996 133 74.0996 133C75.3996 133 76.4996 131.9 76.4996 130.6C76.4996 129.3 75.3996 128.2 74.0996 128.2Z" fill="#F8F9FA"/>
</svg>
