<svg width="474" height="373" viewBox="0 0 474 373" fill="none" xmlns="http://www.w3.org/2000/svg">
<path d="M138.715 317.12C137.321 315.897 135.578 314.85 134.01 313.977L133.138 307.69L127.039 306.642L123.728 312.23C121.985 312.405 120.243 312.754 118.5 313.278L113.098 309.262L108.044 312.754L109.787 319.565C108.741 320.787 107.87 322.009 107.347 323.406L100.028 324.803L99.1567 330.915L105.082 334.059C105.256 335.805 105.605 337.551 106.127 339.123L101.945 345.06L105.605 350.124L112.052 348.203C113.272 349.251 114.492 350.124 115.886 350.823L117.28 358.157L123.38 359.03L126.516 353.093C128.259 352.918 130.002 352.743 131.744 352.045L137.321 356.236L142.374 352.569L140.632 346.282C141.852 344.885 142.897 343.314 143.769 341.742L150.391 340.694L151.262 334.582L145.86 331.439C145.685 329.518 145.337 327.597 144.64 325.851L148.474 320.787L144.988 315.723L138.715 317.12ZM130.699 338.25C127.562 341.218 122.682 341.044 119.72 338.075C116.757 334.932 116.932 330.042 119.894 327.074C123.031 324.105 127.91 324.28 130.873 327.248C133.835 330.391 133.661 335.281 130.699 338.25Z" fill="#D2D9DC"/>
<path d="M84.3441 261.938C81.9044 259.843 79.1162 257.922 76.1537 256.699L74.5853 245.873L64.1294 244.126L58.553 253.731C55.5905 253.905 52.4537 254.604 49.6655 255.652L40.4294 248.667L31.7162 254.779L34.6787 266.304C32.9361 268.399 31.5419 270.495 30.3221 272.765L17.9493 275.035L16.5552 285.513L26.4883 290.926C26.6625 293.895 27.1853 296.863 28.2309 299.657L21.0861 309.786L27.3596 318.342L38.5125 315.199C40.6037 316.945 42.8691 318.517 45.1346 319.739L47.4 332.312L57.8559 333.884L63.2581 323.756C66.2206 323.581 69.1831 323.057 72.1456 322.009L81.7302 328.994L90.2691 322.708L87.3066 311.881C89.3978 309.436 91.1405 306.817 92.5346 304.023L103.688 302.102L105.256 291.625L96.0199 286.386C95.8456 283.068 95.1486 279.925 94.103 276.781L100.551 268.05L94.4515 259.319L84.3441 261.938ZM70.5772 297.911C65.3493 302.975 56.9846 302.801 51.9309 297.562C46.8772 292.323 47.0515 283.941 52.2794 278.877C57.5074 273.813 65.8721 273.987 70.9258 279.226C75.9794 284.64 75.8052 292.847 70.5772 297.911Z" fill="#839299"/>
<path d="M243.833 292.361V358.718H296.809V292.361H243.833Z" fill="#002548"/>
<path opacity="0.19" d="M243.833 292.361V358.718H296.809V292.361H243.833Z" fill="#F9FAFB"/>
<path d="M169.385 373V365.142L197.965 358.855H342.779L371.532 365.142V373H169.385Z" fill="#002548"/>
<path d="M438.835 308.177L438.835 85.7039L101.981 85.7039L101.981 308.177L438.835 308.177Z" fill="#002548"/>
<path d="M435.662 88.8843H105.256V295.292H435.662V88.8843Z" fill="#839299"/>
<path d="M419.978 101.807H136.798C134.184 101.807 132.093 103.902 132.093 106.522V281.846C132.093 284.465 134.184 286.56 136.798 286.56H419.978C422.592 286.56 424.683 284.465 424.683 281.846V106.522C424.683 103.902 422.592 101.807 419.978 101.807Z" fill="#F9FAFB"/>
<path d="M314.896 112.633H152.83C148.648 112.633 145.337 115.951 145.337 120.142V225.441C145.337 229.633 148.648 232.95 152.83 232.95H314.896C319.079 232.95 322.39 229.633 322.39 225.441V120.142C322.564 115.951 319.079 112.633 314.896 112.633Z" fill="#D2D9DC"/>
<path d="M404.991 112.633H344.173C339.991 112.633 336.68 115.951 336.68 120.142V264.558C336.68 268.749 339.991 272.066 344.173 272.066H404.991C409.174 272.066 412.485 268.749 412.485 264.558V120.142C412.485 115.951 409 112.633 404.991 112.633Z" fill="#D2D9DC"/>
<path d="M194.131 243.253H320.996C321.693 243.253 322.39 242.729 322.39 241.856C322.39 241.158 321.867 240.459 320.996 240.459H194.131C193.434 240.459 192.737 240.983 192.737 241.856C192.911 242.555 193.434 243.253 194.131 243.253Z" fill="#D2D9DC"/>
<path d="M146.731 243.253H184.372C185.069 243.253 185.766 242.729 185.766 241.856C185.766 241.158 185.244 240.459 184.372 240.459H146.731C146.034 240.459 145.337 240.983 145.337 241.856C145.337 242.555 146.034 243.253 146.731 243.253Z" fill="#D2D9DC"/>
<path d="M321.17 250.064H146.731C146.034 250.064 145.337 250.587 145.337 251.461C145.337 252.159 145.86 252.858 146.731 252.858H321.17C321.867 252.858 322.564 252.334 322.564 251.461C322.564 250.762 321.867 250.064 321.17 250.064Z" fill="#D2D9DC"/>
<path d="M321.17 259.668H304.963C304.266 259.668 303.569 260.192 303.569 261.065C303.569 261.763 304.092 262.462 304.963 262.462H321.17C321.867 262.462 322.564 261.938 322.564 261.065C322.564 260.366 321.867 259.668 321.17 259.668Z" fill="#D2D9DC"/>
<path d="M296.947 262.462C297.644 262.462 298.341 261.938 298.341 261.065C298.341 260.366 297.818 259.668 296.947 259.668H216.088C215.391 259.668 214.694 260.192 214.694 261.065C214.694 261.763 215.217 262.462 216.088 262.462H296.947Z" fill="#D2D9DC"/>
<path d="M146.731 262.462H207.027C207.724 262.462 208.421 261.938 208.421 261.065C208.421 260.367 207.898 259.668 207.027 259.668H146.731C146.034 259.668 145.337 260.192 145.337 261.065C145.337 261.764 146.034 262.462 146.731 262.462Z" fill="#D2D9DC"/>
<path d="M321.17 269.272H146.731C146.034 269.272 145.337 269.796 145.337 270.669C145.337 271.543 145.86 272.066 146.731 272.066H321.17C321.867 272.066 322.564 271.543 322.564 270.669C322.564 269.796 321.867 269.272 321.17 269.272Z" fill="#D2D9DC"/>
<path d="M358.985 169.911H344.87C343.824 169.911 342.779 170.784 342.779 172.006V186.151C342.779 187.199 343.65 188.246 344.87 188.246H358.985C360.031 188.246 361.077 187.373 361.077 186.151V172.006C361.077 170.784 360.205 169.911 358.985 169.911Z" fill="#0054A6"/>
<path d="M358.985 194.882H344.87C343.824 194.882 342.779 195.755 342.779 196.978V211.122C342.779 212.17 343.65 213.218 344.87 213.218H358.985C360.031 213.218 361.077 212.345 361.077 211.122V196.978C361.077 195.755 360.205 194.882 358.985 194.882Z" fill="#0054A6"/>
<path d="M358.985 220.377H344.87C343.824 220.377 342.779 221.25 342.779 222.473V236.617C342.779 237.665 343.65 238.713 344.87 238.713H358.985C360.031 238.713 361.077 237.84 361.077 236.617V222.473C361.077 221.25 360.205 220.377 358.985 220.377Z" fill="#0054A6"/>
<path d="M358.985 247.27H344.87C343.824 247.27 342.779 248.143 342.779 249.365V263.51C342.779 264.558 343.65 265.605 344.87 265.605H358.985C360.031 265.605 361.077 264.732 361.077 263.51V249.365C361.077 248.317 360.205 247.27 358.985 247.27Z" fill="#0054A6"/>
<path d="M367.524 174.8H405.34C405.862 174.8 406.211 174.451 406.211 173.927C406.211 173.403 405.862 173.054 405.34 173.054H367.524C367.001 173.054 366.653 173.403 366.653 173.927C366.653 174.276 367.001 174.8 367.524 174.8Z" fill="#839299"/>
<path d="M405.34 178.118H383.383C382.86 178.118 382.511 178.467 382.511 178.991C382.511 179.515 382.86 179.864 383.383 179.864H405.34C405.863 179.864 406.211 179.515 406.211 178.991C406.211 178.467 405.863 178.118 405.34 178.118Z" fill="#839299"/>
<path d="M367.524 180.039H379.2C379.723 180.039 380.071 179.69 380.071 179.166C380.071 178.642 379.723 178.293 379.2 178.293H367.524C367.001 178.293 366.653 178.642 366.653 179.166C366.653 179.69 367.001 180.039 367.524 180.039Z" fill="#839299"/>
<path d="M405.34 183.357H367.524C367.001 183.357 366.653 183.706 366.653 184.23C366.653 184.754 367.001 185.103 367.524 185.103H405.34C405.862 185.103 406.211 184.754 406.211 184.23C406.211 183.706 405.862 183.357 405.34 183.357Z" fill="#839299"/>
<path d="M367.524 199.597H405.34C405.862 199.597 406.211 199.248 406.211 198.724C406.211 198.2 405.862 197.851 405.34 197.851H367.524C367.001 197.851 366.653 198.2 366.653 198.724C366.653 199.248 367.001 199.597 367.524 199.597Z" fill="#839299"/>
<path d="M405.34 202.915H383.383C382.86 202.915 382.511 203.264 382.511 203.788C382.511 204.312 382.86 204.661 383.383 204.661H405.34C405.863 204.661 406.211 204.312 406.211 203.788C406.211 203.264 405.863 202.915 405.34 202.915Z" fill="#839299"/>
<path d="M367.524 204.836H379.2C379.723 204.836 380.071 204.486 380.071 203.963C380.071 203.439 379.723 203.089 379.2 203.089H367.524C367.001 203.089 366.653 203.439 366.653 203.963C366.653 204.486 367.001 204.836 367.524 204.836Z" fill="#839299"/>
<path d="M405.34 208.154H367.524C367.001 208.154 366.653 208.503 366.653 209.027C366.653 209.551 367.001 209.9 367.524 209.9H405.34C405.862 209.9 406.211 209.551 406.211 209.027C406.211 208.677 405.862 208.154 405.34 208.154Z" fill="#839299"/>
<path d="M367.524 225.092H405.34C405.862 225.092 406.211 224.743 406.211 224.219C406.211 223.695 405.862 223.346 405.34 223.346H367.524C367.001 223.346 366.653 223.695 366.653 224.219C366.653 224.743 367.001 225.092 367.524 225.092Z" fill="#839299"/>
<path d="M405.34 228.41H383.383C382.86 228.41 382.511 228.759 382.511 229.283C382.511 229.807 382.86 230.156 383.383 230.156H405.34C405.863 230.156 406.211 229.807 406.211 229.283C406.211 228.759 405.863 228.41 405.34 228.41Z" fill="#839299"/>
<path d="M367.524 230.331H379.2C379.723 230.331 380.071 229.982 380.071 229.458C380.071 228.934 379.723 228.585 379.2 228.585H367.524C367.001 228.585 366.653 228.934 366.653 229.458C366.653 229.982 367.001 230.331 367.524 230.331Z" fill="#839299"/>
<path d="M405.34 233.649H367.524C367.001 233.649 366.653 233.998 366.653 234.522C366.653 235.046 367.001 235.395 367.524 235.395H405.34C405.862 235.395 406.211 235.046 406.211 234.522C406.211 233.998 405.862 233.649 405.34 233.649Z" fill="#839299"/>
<path d="M367.524 252.159H405.34C405.862 252.159 406.211 251.81 406.211 251.286C406.211 250.762 405.862 250.413 405.34 250.413H367.524C367.001 250.413 366.653 250.762 366.653 251.286C366.653 251.81 367.001 252.159 367.524 252.159Z" fill="#839299"/>
<path d="M405.34 255.477H383.383C382.86 255.477 382.511 255.826 382.511 256.35C382.511 256.874 382.86 257.223 383.383 257.223H405.34C405.863 257.223 406.211 256.874 406.211 256.35C406.211 255.826 405.863 255.477 405.34 255.477Z" fill="#839299"/>
<path d="M367.524 257.398H379.2C379.723 257.398 380.071 257.049 380.071 256.525C380.071 256.001 379.723 255.652 379.2 255.652H367.524C367.001 255.652 366.653 256.001 366.653 256.525C366.653 257.049 367.001 257.398 367.524 257.398Z" fill="#839299"/>
<path d="M405.34 260.716H367.524C367.001 260.716 366.653 261.065 366.653 261.589C366.653 262.113 367.001 262.462 367.524 262.462H405.34C405.862 262.462 406.211 262.113 406.211 261.589C406.211 261.065 405.862 260.716 405.34 260.716Z" fill="#839299"/>
<path d="M307.054 121.889H252.51C250.418 121.889 248.85 123.635 248.85 125.556V172.006C248.85 174.102 250.593 175.673 252.51 175.673H307.054C309.146 175.673 310.714 173.927 310.714 172.006V125.556C310.888 123.635 309.146 121.889 307.054 121.889Z" fill="#FFDD33"/>
<path d="M156.49 187.548H309.669C310.191 187.548 310.714 187.024 310.714 186.5C310.714 185.976 310.191 185.452 309.669 185.452H156.49C155.967 185.452 155.444 185.976 155.444 186.5C155.444 187.024 155.967 187.548 156.49 187.548Z" fill="#839299"/>
<path d="M309.669 192.961H156.49C155.967 192.961 155.444 193.485 155.444 194.009C155.444 194.533 155.967 195.057 156.49 195.057H309.669C310.191 195.057 310.714 194.533 310.714 194.009C310.888 193.485 310.366 192.961 309.669 192.961Z" fill="#839299"/>
<path d="M309.669 200.819H156.49C155.967 200.819 155.444 201.343 155.444 201.867C155.444 202.391 155.967 202.915 156.49 202.915H309.669C310.191 202.915 310.714 202.391 310.714 201.867C310.888 201.343 310.366 200.819 309.669 200.819Z" fill="#839299"/>
<path d="M344.696 128H404.294C404.817 128 405.165 127.651 405.165 127.127C405.165 126.603 404.817 126.254 404.294 126.254H344.696C344.173 126.254 343.824 126.603 343.824 127.127C343.824 127.651 344.173 128 344.696 128Z" fill="#839299"/>
<path d="M404.294 132.715H344.696C344.173 132.715 343.824 133.065 343.824 133.588C343.824 134.112 344.173 134.462 344.696 134.462H404.294C404.817 134.462 405.165 134.112 405.165 133.588C405.165 133.239 404.817 132.715 404.294 132.715Z" fill="#839299"/>
<path d="M404.294 139.351H344.696C344.173 139.351 343.824 139.7 343.824 140.224C343.824 140.748 344.173 141.097 344.696 141.097H404.294C404.817 141.097 405.165 140.748 405.165 140.224C405.165 139.7 404.817 139.351 404.294 139.351Z" fill="#839299"/>
<path d="M344.696 150.003H404.294C404.817 150.003 405.165 149.654 405.165 149.13C405.165 148.606 404.817 148.257 404.294 148.257H344.696C344.173 148.257 343.824 148.606 343.824 149.13C343.824 149.479 344.173 150.003 344.696 150.003Z" fill="#839299"/>
<path d="M404.294 154.718H344.696C344.173 154.718 343.824 155.067 343.824 155.591C343.824 156.115 344.173 156.464 344.696 156.464H404.294C404.817 156.464 405.165 156.115 405.165 155.591C405.165 155.067 404.817 154.718 404.294 154.718Z" fill="#839299"/>
<path d="M404.294 161.179H344.696C344.173 161.179 343.824 161.529 343.824 162.052C343.824 162.576 344.173 162.926 344.696 162.926H404.294C404.817 162.926 405.165 162.576 405.165 162.052C405.165 161.703 404.817 161.179 404.294 161.179Z" fill="#839299"/>
<path d="M199.533 208.328H158.058C156.49 208.328 155.27 209.551 155.27 211.122V221.774C155.27 223.346 156.49 224.568 158.058 224.568H199.533C201.102 224.568 202.321 223.346 202.321 221.774V211.122C202.321 209.551 201.102 208.328 199.533 208.328Z" fill="#0054A6"/>
<path d="M253.73 208.328H212.255C210.686 208.328 209.466 209.551 209.466 211.122V221.774C209.466 223.346 210.686 224.568 212.255 224.568H253.73C255.298 224.568 256.518 223.346 256.518 221.774V211.122C256.518 209.551 255.298 208.328 253.73 208.328Z" fill="#0054A6"/>
<path d="M308.1 208.328H266.625C265.056 208.328 263.836 209.551 263.836 211.122V221.774C263.836 223.346 265.056 224.568 266.625 224.568H308.1C309.668 224.568 310.888 223.346 310.888 221.774V211.122C310.888 209.551 309.494 208.328 308.1 208.328Z" fill="#0054A6"/>
<path d="M363.168 0H289.802C282.309 0 276.209 6.11189 276.209 13.6208V49.9429C276.209 57.4518 282.309 63.5637 289.802 63.5637V74.3905L303.046 63.5637H363.168C370.661 63.5637 376.76 57.4518 376.76 49.9429V13.6208C376.76 6.11189 370.661 0 363.168 0Z" fill="#0054A6"/>
<path d="M310.365 47.1489C309.842 47.1489 309.494 46.9742 309.145 46.625L294.333 31.7818C293.984 31.4326 293.81 30.9087 293.81 30.5594C293.81 30.0356 293.984 29.6863 294.333 29.3371L309.145 14.4939C309.842 13.7954 311.062 13.7954 311.759 14.4939C312.456 15.1924 312.456 16.4148 311.759 17.1133L298.341 30.5594L311.759 44.0056C312.456 44.7041 312.456 45.9265 311.759 46.625C311.237 46.9742 310.714 47.1489 310.365 47.1489Z" fill="#F9FAFB"/>
<path d="M342.605 47.1487C343.128 47.1487 343.476 46.9741 343.825 46.6249L358.637 31.7817C358.986 31.4325 359.16 30.9086 359.16 30.5593C359.16 30.0354 358.986 29.6862 358.637 29.337L343.825 14.4938C343.128 13.7953 341.908 13.7953 341.211 14.4938C340.514 15.1923 340.514 16.4147 341.211 17.1132L354.629 30.5593L341.211 44.0055C340.514 44.704 340.514 45.9264 341.211 46.6249C341.734 46.9741 342.256 47.1487 342.605 47.1487Z" fill="#F9FAFB"/>
<path d="M319.253 47.1489C319.079 47.1489 318.73 47.1489 318.556 46.9743C317.685 46.625 317.162 45.5773 317.685 44.5295L330.58 15.0178C330.929 14.1447 331.974 13.6208 333.02 14.1447C333.891 14.4939 334.414 15.5417 333.891 16.5894L320.996 46.1011C320.647 46.7996 319.95 47.1489 319.253 47.1489Z" fill="#F9FAFB"/>
<path d="M251.465 16.9387H13.4189C6.0998 16.9387 0.174805 23.3998 0.174805 31.2579V34.5758H264.883V31.2579C264.709 23.3998 258.784 16.9387 251.465 16.9387Z" fill="#002548"/>
<path d="M256.169 205.883H8.71323C4.00809 205.883 0 202.042 0 197.152V34.7505H264.882V197.152C264.882 202.042 261.049 205.883 256.169 205.883Z" fill="#0054A6"/>
<path d="M43.566 25.4953C43.566 24.0983 42.5204 23.0505 41.3006 23.0505C40.0807 23.0505 39.0352 24.0983 39.0352 25.4953C39.0352 26.8923 40.0807 27.94 41.3006 27.94C42.5204 27.94 43.566 26.8923 43.566 25.4953Z" fill="#54CC5A"/>
<path d="M32.2394 25.4953C32.2394 24.0983 31.1938 23.0505 29.9739 23.0505C28.7541 23.0505 27.7085 24.0983 27.7085 25.4953C27.7085 26.8923 28.7541 27.94 29.9739 27.94C31.1938 27.94 32.2394 26.8923 32.2394 25.4953Z" fill="#FFDD33"/>
<path d="M21.0861 25.4953C21.0861 24.0983 20.0405 23.0505 18.8206 23.0505C17.6008 23.0505 16.5552 24.0983 16.5552 25.4953C16.5552 26.8923 17.6008 27.94 18.8206 27.94C20.0405 27.94 21.0861 26.8923 21.0861 25.4953Z" fill="#ED1C24"/>
<path d="M191.517 27.94H242.576C243.971 27.94 245.016 26.8923 245.016 25.4953C245.016 24.0983 243.971 23.0505 242.576 23.0505H191.517C190.123 23.0505 189.077 24.0983 189.077 25.4953C189.251 26.8923 190.297 27.94 191.517 27.94Z" fill="#D2D9DC"/>
<path d="M219.923 52.0381C225.848 52.0381 231.424 54.1337 235.955 57.8008L219.574 75.0887L199.185 62.8649C201.276 59.7217 204.064 57.2769 207.375 55.356C211.209 53.2605 215.566 52.0381 219.923 52.0381Z" fill="#D2D9DC"/>
<path d="M218.529 78.5812V101.981C205.982 101.283 195.874 91.1543 195.003 78.5812H218.529Z" fill="#D2D9DC"/>
<path d="M209.815 74.7397H190.297C190.471 71.2472 191.517 67.7547 193.085 64.7861L209.815 74.7397Z" fill="#FFDD33"/>
<path d="M238.22 60.0711C242.577 64.786 245.016 70.7233 245.016 77.1844C245.016 90.4559 234.561 101.283 221.491 102.156V77.8829L238.22 60.0711Z" fill="#ED1C24"/>
<path d="M134.01 63.389C138.018 56.5787 145.511 52.0384 154.05 52.0384C160.324 52.0384 165.9 54.4831 170.083 58.3249L154.05 75.2636L134.01 63.389Z" fill="#FFDD33"/>
<path d="M128.259 77.5337H151.61V100.934C138.715 100.934 128.259 90.456 128.259 77.5337Z" fill="#54CC5A"/>
<path d="M130.873 75.2636C130.873 70.8979 132.093 66.8815 134.184 63.389L154.225 75.2636H131.047H130.873Z" fill="#FFDD33"/>
<path d="M154.05 98.6634V75.4382L170.083 58.4995C174.614 62.6905 177.402 68.8024 177.402 75.4382C177.402 88.1859 166.946 98.6634 154.05 98.6634Z" fill="#FFDD33"/>
<path d="M22.1318 192.961H241.008C242.925 192.961 244.494 191.39 244.494 189.469V121.015C244.494 119.095 242.925 117.523 241.008 117.523H22.1318C20.2149 117.523 18.6465 119.095 18.6465 121.015V189.469C18.8207 191.39 20.3891 192.961 22.1318 192.961Z" fill="#D2D9DC"/>
<path d="M20.5634 55.7055H112.227C113.272 55.7055 113.969 54.8323 113.969 53.9592C113.969 52.9115 113.098 52.213 112.227 52.213H20.5634C19.5179 52.213 18.8208 53.0861 18.8208 53.9592C18.8208 54.8323 19.5179 55.7055 20.5634 55.7055Z" fill="#F9FAFB"/>
<path d="M112.227 66.183H20.5634C19.5179 66.183 18.8208 67.0561 18.8208 67.9292C18.8208 68.977 19.6921 69.6755 20.5634 69.6755H112.227C113.272 69.6755 113.969 68.8024 113.969 67.9292C113.969 66.8815 113.272 66.183 112.227 66.183Z" fill="#F9FAFB"/>
<path d="M112.227 80.153H20.5634C19.5179 80.153 18.8208 81.0261 18.8208 81.8993C18.8208 82.947 19.6921 83.6455 20.5634 83.6455H112.227C113.272 83.6455 113.969 82.7724 113.969 81.8993C113.969 81.0261 113.272 80.153 112.227 80.153Z" fill="#F9FAFB"/>
<path d="M112.227 94.2977H20.5634C19.5179 94.2977 18.8208 95.1709 18.8208 96.044C18.8208 97.0917 19.6921 97.7902 20.5634 97.7902H112.227C113.272 97.7902 113.969 96.9171 113.969 96.044C113.969 94.9962 113.272 94.2977 112.227 94.2977Z" fill="#F9FAFB"/>
<path d="M234.386 126.08H28.7541C28.2313 126.08 27.7085 126.429 27.7085 127.127V127.651C27.7085 128.175 28.2313 128.699 28.7541 128.699H234.386C234.909 128.699 235.432 128.35 235.432 127.651V127.127C235.432 126.603 235.083 126.08 234.386 126.08Z" fill="#839299"/>
<path d="M234.386 136.383H28.7541C28.2313 136.383 27.7085 136.732 27.7085 137.43V137.954C27.7085 138.478 28.2313 139.002 28.7541 139.002H234.386C234.909 139.002 235.432 138.653 235.432 137.954V137.43C235.432 136.732 235.083 136.383 234.386 136.383Z" fill="#839299"/>
<path d="M234.386 146.511H28.7541C28.2313 146.511 27.7085 146.86 27.7085 147.558V148.082C27.7085 148.606 28.2313 149.13 28.7541 149.13H234.386C234.909 149.13 235.432 148.781 235.432 148.082V147.558C235.432 147.035 235.083 146.511 234.386 146.511Z" fill="#839299"/>
<path d="M234.386 156.814H28.7541C28.2313 156.814 27.7085 157.163 27.7085 157.861V158.385C27.7085 158.909 28.2313 159.433 28.7541 159.433H234.386C234.909 159.433 235.432 159.084 235.432 158.385V157.861C235.432 157.338 235.083 156.814 234.386 156.814Z" fill="#839299"/>
<path d="M234.386 167.117H28.7541C28.2313 167.117 27.7085 167.466 27.7085 168.164V168.688C27.7085 169.212 28.2313 169.736 28.7541 169.736H234.386C234.909 169.736 235.432 169.387 235.432 168.688V168.164C235.432 167.466 235.083 167.117 234.386 167.117Z" fill="#839299"/>
<path d="M234.386 177.245H28.7541C28.2313 177.245 27.7085 177.594 27.7085 178.293V178.817C27.7085 179.34 28.2313 179.864 28.7541 179.864H234.386C234.909 179.864 235.432 179.515 235.432 178.817V178.293C235.432 177.769 235.083 177.245 234.386 177.245Z" fill="#839299"/>
<path d="M437.056 336.852C457.46 336.852 474 320.278 474 299.832C474 279.386 457.46 262.811 437.056 262.811C416.652 262.811 400.112 279.386 400.112 299.832C400.112 320.278 416.652 336.852 437.056 336.852Z" fill="#54CC5A"/>
<path d="M451.695 280.274C445.421 289.18 438.973 297.911 432.7 306.817C428.343 302.626 423.812 298.61 419.456 294.419C416.842 297.736 414.228 301.229 411.439 304.547C418.933 309.436 426.426 314.501 433.745 319.39C443.33 309.087 452.74 298.959 462.325 288.656C458.839 285.862 455.354 283.068 451.695 280.274Z" fill="#F9FAFB"/>
</svg>
