<svg width="32" height="32" viewBox="0 0 32 32" fill="none" xmlns="http://www.w3.org/2000/svg">
<g clip-path="url(#clip0_495_4070)">
<path d="M31.7174 4.18135V23.744C31.7182 23.8432 31.6992 23.9416 31.6617 24.0334C31.6243 24.1253 31.569 24.2088 31.4991 24.2792C31.4292 24.3496 31.3461 24.4055 31.2545 24.4436C31.1629 24.4817 31.0647 24.5013 30.9655 24.5013H2.08545L0.533447 4.18135L2.35211 2.94401L28.9655 2.34668L31.7174 4.18135Z" fill="#E5ECEF"/>
<path d="M2.83211 24.5014H1.26411C1.06791 24.4945 0.882066 24.4117 0.745756 24.2704C0.609445 24.1291 0.533326 23.9404 0.533447 23.7441V4.18143L1.37611 2.94409L2.08011 4.18143V23.7441C2.07941 23.8433 2.09834 23.9417 2.13582 24.0335C2.1733 24.1254 2.22858 24.2089 2.29848 24.2793C2.36838 24.3497 2.45151 24.4056 2.5431 24.4437C2.63469 24.4818 2.73291 24.5014 2.83211 24.5014Z" fill="#87C5FE"/>
<path d="M31.7174 1.26945V4.18145H0.533447L1.95745 0.533447H30.9654C31.1654 0.534855 31.3566 0.615267 31.4975 0.757142C31.6384 0.899017 31.7175 1.09084 31.7174 1.29078" fill="#5BB0FE"/>
<path d="M2.83211 0.533447C2.63582 0.534752 2.44771 0.61222 2.30742 0.749521C2.16713 0.886823 2.08564 1.07323 2.08011 1.26945V4.18145H0.533447V1.26945C0.540007 1.07725 0.618935 0.894618 0.754426 0.758139C0.889917 0.621659 1.07197 0.541404 1.26411 0.533447H2.83211Z" fill="#6BBBFE"/>
<path d="M8.41602 18.7042C8.46935 17.8562 8.34135 17.0616 8.60268 16.2722C9.71202 12.9069 12.8373 10.2722 16.112 10.2722C19.3867 10.2722 22.6827 12.8802 23.7067 16.3682C23.92 17.0776 23.6587 17.9682 23.7067 18.7042H8.41602Z" fill="#FCEE21"/>
<path d="M16.848 10.8108C13.1733 11.2268 10.256 14.5441 9.98402 18.7041H8.41602C8.53335 16.8748 8.72535 14.9708 9.70135 13.6641C10.4642 12.6896 11.4342 11.897 12.541 11.3435C13.6479 10.7901 14.8641 10.4897 16.1013 10.4641C16.368 10.4641 16.5867 10.7788 16.848 10.8108Z" fill="#6CE66F"/>
<path d="M23.8827 12.8801C23.7493 12.6828 23.6107 12.4961 23.4667 12.3148C23.3227 12.1334 23.0827 11.8561 22.88 11.6428C22.0158 10.6935 20.9629 9.93521 19.7888 9.41631C18.6146 8.89742 17.345 8.62939 16.0613 8.62939C14.7776 8.62939 13.5081 8.89742 12.3339 9.41631C11.1598 9.93521 10.1069 10.6935 9.24268 11.6428C7.4473 13.5699 6.39617 16.0729 6.27734 18.7041H8.41068C8.69868 14.2348 12.0213 10.7628 16.0587 10.7628C17.1494 10.7749 18.2235 11.0307 19.2026 11.5115C20.1817 11.9922 21.0409 12.6858 21.7173 13.5414C21.8187 13.6694 21.9147 13.7921 22.0107 13.9254C22.5173 14.6188 23.8187 14.4854 23.8187 14.4854C23.9877 14.2554 24.0837 13.9798 24.0942 13.6945C24.1046 13.4091 24.0291 13.1273 23.8773 12.8854" fill="#5BB0FE"/>
<path d="M25.8507 18.704H23.7174C23.6099 16.8185 22.9163 15.0136 21.7334 13.5414L23.4667 12.3147C24.9083 14.1478 25.7417 16.3852 25.8507 18.7147" fill="#FD535E"/>
<path d="M27.2374 19.1361H17.4401C17.3185 19.1361 17.2018 19.0878 17.1158 19.0017C17.0298 18.9157 16.9814 18.7991 16.9814 18.6774C16.9814 18.5558 17.0298 18.4391 17.1158 18.3531C17.2018 18.2671 17.3185 18.2188 17.4401 18.2188H27.2374C27.3591 18.2188 27.4758 18.2671 27.5618 18.3531C27.6478 18.4391 27.6961 18.5558 27.6961 18.6774C27.6961 18.7991 27.6478 18.9157 27.5618 19.0017C27.4758 19.0878 27.3591 19.1361 27.2374 19.1361Z" fill="#80B6DD"/>
<path d="M14.7841 19.1361H4.98674C4.8651 19.1361 4.74843 19.0878 4.66242 19.0017C4.5764 18.9157 4.52808 18.7991 4.52808 18.6774C4.52808 18.5558 4.5764 18.4391 4.66242 18.3531C4.74843 18.2671 4.8651 18.2188 4.98674 18.2188H14.7841C14.9057 18.2188 15.0224 18.2671 15.1084 18.3531C15.1944 18.4391 15.2427 18.5558 15.2427 18.6774C15.2427 18.7991 15.1944 18.9157 15.1084 19.0017C15.0224 19.0878 14.9057 19.1361 14.7841 19.1361Z" fill="#80B6DD"/>
<path d="M16.4748 18.2934C16.3214 18.2935 16.1711 18.2503 16.0411 18.1688C15.9111 18.0874 15.8067 17.9709 15.7399 17.8328C15.6731 17.6948 15.6466 17.5406 15.6633 17.3882C15.6801 17.2357 15.7396 17.091 15.8348 16.9708L18.5761 13.5041C18.7105 13.3336 18.9071 13.2236 19.1226 13.1981C19.3382 13.1726 19.555 13.2337 19.7255 13.3681C19.8959 13.5025 20.006 13.699 20.0315 13.9146C20.057 14.1301 19.9958 14.347 19.8615 14.5174L17.1148 17.9841C17.0384 18.0806 16.9411 18.1585 16.8303 18.2121C16.7194 18.2657 16.5979 18.2935 16.4748 18.2934Z" fill="#5BB0FE"/>
<path d="M17.6001 18.7041C17.6001 19.1044 17.441 19.4883 17.158 19.7714C16.8749 20.0544 16.491 20.2135 16.0907 20.2135C15.2534 20.2135 15.0561 19.0935 15.0614 18.7041C15.0667 18.3148 15.2534 17.1895 16.0907 17.1895C16.4915 17.1909 16.8754 17.3511 17.1583 17.635C17.4412 17.9189 17.6001 18.3033 17.6001 18.7041Z" fill="#5B9CCF"/>
<path d="M16.7521 20.0482C16.5214 20.1726 16.2623 20.2349 16.0002 20.2292C15.7382 20.2234 15.4821 20.1498 15.257 20.0154C15.032 19.881 14.8456 19.6905 14.7162 19.4626C14.5868 19.2346 14.5188 18.977 14.5188 18.7149C14.5188 18.4527 14.5868 18.1951 14.7162 17.9671C14.8456 17.7392 15.032 17.5487 15.257 17.4143C15.4821 17.28 15.7382 17.2063 16.0002 17.2006C16.2623 17.1948 16.5214 17.2572 16.7521 17.3815C16.5099 17.51 16.3073 17.702 16.166 17.9369C16.0247 18.1718 15.9501 18.4407 15.9501 18.7149C15.9501 18.989 16.0247 19.2579 16.166 19.4928C16.3073 19.7277 16.5099 19.9197 16.7521 20.0482Z" fill="#5686BA"/>
<path d="M28.8001 27.2749V20.8749C28.8001 20.8079 28.7739 20.7436 28.727 20.6957C28.6802 20.6479 28.6164 20.6203 28.5494 20.6189H27.0988L26.6028 28.4109L28.1014 30.8482L29.9948 27.8989C30.0184 27.8613 30.0316 27.818 30.0331 27.7736C30.0345 27.7292 30.0241 27.6852 30.0029 27.6461C29.9818 27.6071 29.9506 27.5743 29.9126 27.5513C29.8746 27.5282 29.8312 27.5156 29.7868 27.5149H29.0615C28.995 27.5149 28.9312 27.4885 28.8842 27.4415C28.8372 27.3945 28.8108 27.3307 28.8108 27.2642" fill="#FD535E"/>
<path d="M28.2081 30.6882L27.7281 31.4349C27.7054 31.4701 27.6742 31.4991 27.6374 31.5191C27.6006 31.5392 27.5593 31.5497 27.5174 31.5497C27.4755 31.5497 27.4342 31.5392 27.3974 31.5191C27.3606 31.4991 27.3295 31.4701 27.3067 31.4349L25.0347 27.9095C25.0109 27.8715 24.9976 27.8278 24.9964 27.7829C24.9952 27.7381 25.0061 27.6937 25.0279 27.6545C25.0497 27.6152 25.0816 27.5826 25.1203 27.5599C25.1591 27.5372 25.2032 27.5253 25.2481 27.5255H25.9681C26.0014 27.5255 26.0345 27.5189 26.0652 27.5059C26.096 27.493 26.1239 27.4741 26.1472 27.4502C26.1706 27.4264 26.1889 27.3981 26.2012 27.3671C26.2135 27.3361 26.2195 27.3029 26.2187 27.2695V20.8695C26.2187 20.8025 26.245 20.7382 26.2918 20.6904C26.3387 20.6425 26.4024 20.6149 26.4694 20.6135H27.8561C27.7886 20.6149 27.7243 20.6423 27.6766 20.69C27.6288 20.7377 27.6014 20.8021 27.6001 20.8695V27.2695C27.6008 27.3029 27.5948 27.3361 27.5825 27.3671C27.5703 27.3981 27.5519 27.4264 27.5286 27.4502C27.5052 27.4741 27.4773 27.493 27.4466 27.5059C27.4158 27.5189 27.3828 27.5255 27.3494 27.5255H27.3067C27.1943 27.523 27.0833 27.5511 26.9857 27.607C26.8881 27.6628 26.8075 27.7441 26.7527 27.8423C26.6978 27.9405 26.6708 28.0517 26.6744 28.1641C26.6781 28.2765 26.7123 28.3858 26.7734 28.4802L28.2081 30.6882Z" fill="#FD4751"/>
<path d="M29.0189 2.85874H28.8002C28.74 2.85874 28.6803 2.84688 28.6247 2.82383C28.569 2.80078 28.5185 2.76699 28.4759 2.7244C28.4333 2.68181 28.3995 2.63125 28.3765 2.5756C28.3534 2.51995 28.3416 2.46031 28.3416 2.40007C28.3416 2.33984 28.3534 2.2802 28.3765 2.22455C28.3995 2.1689 28.4333 2.11834 28.4759 2.07575C28.5185 2.03316 28.569 1.99937 28.6247 1.97632C28.6803 1.95327 28.74 1.94141 28.8002 1.94141H29.0136C29.0738 1.94141 29.1334 1.95327 29.1891 1.97632C29.2447 1.99937 29.2953 2.03316 29.3379 2.07575C29.3805 2.11834 29.4143 2.1689 29.4373 2.22455C29.4604 2.2802 29.4722 2.33984 29.4722 2.40007C29.4722 2.46031 29.4604 2.51995 29.4373 2.5756C29.4143 2.63125 29.3805 2.68181 29.3379 2.7244C29.2953 2.76699 29.2447 2.80078 29.1891 2.82383C29.1334 2.84688 29.0738 2.85874 29.0136 2.85874H29.0189Z" fill="#FF949B"/>
<path d="M27.2321 2.85874H27.0187C26.8971 2.85874 26.7804 2.81042 26.6944 2.7244C26.6084 2.63838 26.5601 2.52172 26.5601 2.40007C26.5601 2.27843 26.6084 2.16176 26.6944 2.07575C26.7804 1.98973 26.8971 1.94141 27.0187 1.94141H27.2321C27.3537 1.94141 27.4704 1.98973 27.5564 2.07575C27.6424 2.16176 27.6907 2.27843 27.6907 2.40007C27.6907 2.52172 27.6424 2.63838 27.5564 2.7244C27.4704 2.81042 27.3537 2.85874 27.2321 2.85874Z" fill="#B3FD8B"/>
<path d="M25.4508 2.85874H25.2375C25.1772 2.85874 25.1176 2.84688 25.062 2.82383C25.0063 2.80078 24.9557 2.76699 24.9131 2.7244C24.8706 2.68181 24.8368 2.63125 24.8137 2.5756C24.7907 2.51995 24.7788 2.46031 24.7788 2.40007C24.7788 2.33984 24.7907 2.2802 24.8137 2.22455C24.8368 2.1689 24.8706 2.11834 24.9131 2.07575C24.9557 2.03316 25.0063 1.99937 25.062 1.97632C25.1176 1.95327 25.1772 1.94141 25.2375 1.94141H25.4508C25.5725 1.94141 25.6891 1.98973 25.7751 2.07575C25.8612 2.16176 25.9095 2.27843 25.9095 2.40007C25.9095 2.52172 25.8612 2.63838 25.7751 2.7244C25.6891 2.81042 25.5725 2.85874 25.4508 2.85874Z" fill="#87C5FE"/>
<path d="M19.7335 2.85874H3.20012C3.07848 2.85874 2.96181 2.81042 2.8758 2.7244C2.78978 2.63838 2.74146 2.52172 2.74146 2.40007C2.74146 2.27843 2.78978 2.16176 2.8758 2.07575C2.96181 1.98973 3.07848 1.94141 3.20012 1.94141H19.7335C19.8551 1.94141 19.9718 1.98973 20.0578 2.07575C20.1438 2.16176 20.1921 2.27843 20.1921 2.40007C20.1921 2.52172 20.1438 2.63838 20.0578 2.7244C19.9718 2.81042 19.8551 2.85874 19.7335 2.85874Z" fill="#80B6DD"/>
</g>
<defs>
<clipPath id="clip0_495_4070">
<rect width="32" height="32" fill="white"/>
</clipPath>
</defs>
</svg>
