<svg width="60" height="60" viewBox="0 0 60 60" fill="none" xmlns="http://www.w3.org/2000/svg">
<path d="M60 51.9V53C60 55.5 58 57.5 55.5 57.5H4.5C2 57.5 0 55.5 0 53V51.9C0 51.4 0.4 51 0.9 51H59C59.6 50.9 60 51.4 60 51.9Z" fill="#D2D9DC"/>
<path d="M39 50.9V52.1C39 53 38.3 53.8 37.3 53.8H22.7C21.8 53.8 21 53.1 21 52.1V50.9H39Z" fill="#5F737C"/>
<path d="M56.9016 17.8V51H3.10156V17.8C3.10156 15.7 4.80156 14 6.90156 14H53.1016C55.2016 14 56.9016 15.7 56.9016 17.8Z" fill="#002548"/>
<path d="M52.7008 20V47H7.30078V20C7.30078 19 8.10078 18.1 9.20078 18.1H50.9008C51.9008 18.1 52.7008 19 52.7008 20Z" fill="#F9FAFB"/>
<path d="M5.89922 54.2C5.89922 54.8 5.39922 55.3 4.79922 55.3C4.19922 55.3 3.69922 54.8 3.69922 54.2C3.69922 53.6 4.19922 53.1 4.79922 53.1C5.39922 53.2 5.89922 53.6 5.89922 54.2Z" fill="#54CC5A"/>
<path d="M10.0008 54.2C10.0008 54.8 9.50078 55.3 8.90078 55.3C8.30078 55.3 7.80078 54.8 7.80078 54.2C7.80078 53.6 8.30078 53.1 8.90078 53.1C9.50078 53.2 10.0008 53.6 10.0008 54.2Z" fill="#FFDD33"/>
<path d="M14.2 54.2C14.2 54.8 13.7 55.3 13.1 55.3C12.5 55.3 12 54.8 12 54.2C12 53.6 12.5 53.1 13.1 53.1C13.7 53.2 14.2 53.6 14.2 54.2Z" fill="#ED1C24"/>
<path d="M29.3008 23.9H30.5008V41.7H29.3008V23.9Z" fill="#4F5D99"/>
<path d="M29.8008 43.7C28.7008 43.7 27.8008 42.8 27.8008 41.7C27.8008 40.6 28.7008 39.7 29.8008 39.7C30.9008 39.7 31.8008 40.6 31.8008 41.7C31.8008 42.8 30.9008 43.7 29.8008 43.7Z" fill="#54CC5A"/>
<path d="M34.1016 33.1V23.9C34.1016 23.6 34.4016 23.3 34.7016 23.3C35.0016 23.3 35.3016 23.6 35.3016 23.9V32.9L39.4016 37C39.6016 37.2 39.6016 37.6 39.4016 37.8C39.2016 38 38.8016 38 38.6016 37.8L34.3016 33.5C34.2016 33.4 34.1016 33.3 34.1016 33.1Z" fill="#4F5D99"/>
<path d="M39.1992 39.7C38.0992 39.7 37.1992 38.8 37.1992 37.7C37.1992 36.6 38.0992 35.7 39.1992 35.7C40.2992 35.7 41.1992 36.6 41.1992 37.7C41.1992 38.8 40.2992 39.7 39.1992 39.7Z" fill="#FFDD33"/>
<path d="M20.3984 37.4C20.3984 37.3 20.4984 37.1 20.5984 37L24.6984 32.9V23.9C24.6984 23.6 24.9984 23.3 25.2984 23.3C25.5984 23.3 25.8984 23.6 25.8984 23.9V33.1C25.8984 33.3 25.7984 33.4 25.6984 33.5L21.3984 37.8C21.1984 38 20.7984 38 20.5984 37.8C20.4984 37.7 20.3984 37.6 20.3984 37.4Z" fill="#4F5D99"/>
<path d="M20.8008 39.7C21.9008 39.7 22.8008 38.8 22.8008 37.7C22.8008 36.6 21.9008 35.7 20.8008 35.7C19.7008 35.7 18.8008 36.6 18.8008 37.7C18.8008 38.8 19.7008 39.7 20.8008 39.7Z" fill="#ED1C24"/>
<path d="M50.4984 21C50.4984 22.8 49.7984 24.5 48.4984 25.7C47.2984 26.9 45.5984 27.7 43.7984 27.7H16.7984C12.6984 27.7 9.39844 24.4 9.39844 20.3C9.39844 18.3 10.1984 16.4 11.5984 15.1C12.5984 14.1 13.8984 13.4 15.3984 13.1C15.6984 10.5 17.7984 8.5 20.4984 8.5C21.1984 8.5 21.8984 8.6 22.4984 8.9C24.5984 5.1 28.5984 2.5 33.1984 2.5C39.8984 2.5 45.2984 7.8 45.3984 14.5C48.2984 15.2 50.4984 17.8 50.4984 21Z" fill="#839299"/>
</svg>
