<svg width="67" height="65" viewBox="0 0 67 65" fill="none" xmlns="http://www.w3.org/2000/svg">
<path d="M20.9341 65C19.3287 65 17.8125 64.2877 16.7868 62.9966L1.17907 43.6301C0.153414 42.339 -0.247929 40.6918 0.153414 39.089L5.72762 14.9144C6.08437 13.3116 7.15462 12.0205 8.62621 11.3082L31.1906 0.534247C31.9041 0.178082 32.7068 0 33.5095 0C34.3121 0 35.1148 0.178082 35.8283 0.534247L58.3927 11.2637C59.8643 11.976 60.9346 13.2671 61.2913 14.8699L66.8655 39.0445C67.2223 40.6473 66.8655 42.2945 65.8399 43.5856L50.2321 62.9521C49.2064 64.1986 47.6902 64.9555 46.0849 64.9555L20.9341 65Z" fill="#326DE6"/>
<path d="M56.0725 37.3972C56.0279 37.3972 56.0279 37.3972 56.0725 37.3972H56.0279C55.9833 37.3972 55.9387 37.3972 55.9387 37.3526C55.8495 37.3526 55.7603 37.3081 55.6711 37.3081C55.359 37.2636 55.0914 37.2191 54.8239 37.2191C54.6901 37.2191 54.5563 37.2191 54.3779 37.1745H54.3333C53.3969 37.0855 52.6388 36.9965 51.9253 36.7739C51.6131 36.6403 51.5239 36.4622 51.4347 36.2841C51.4347 36.2396 51.3901 36.2396 51.3901 36.1951L50.8104 36.017C51.078 33.9691 50.9888 31.8321 50.4983 29.7396C50.0077 27.6472 49.1605 25.6882 48.001 23.9074L48.447 23.5067V23.4177C48.447 23.1951 48.4916 22.9725 48.6699 22.7499C49.2051 22.2602 49.874 21.8595 50.6767 21.3698C50.8104 21.2807 50.9442 21.2362 51.078 21.1472C51.3456 21.0136 51.5685 20.88 51.8361 20.7019C51.8807 20.6574 51.9699 20.6129 52.0591 20.5239C52.1036 20.4793 52.1482 20.4793 52.1482 20.4348C52.7725 19.9006 52.9063 19.0102 52.4604 18.4314C52.2374 18.1198 51.8361 17.9417 51.4347 17.9417C51.078 17.9417 50.7658 18.0752 50.4537 18.2978C50.4091 18.3424 50.4091 18.3424 50.3645 18.3869C50.2753 18.4314 50.2307 18.5204 50.1415 18.565C49.9186 18.7876 49.7402 18.9656 49.5618 19.1882C49.4726 19.2773 49.3834 19.4109 49.2497 19.4999C48.6253 20.1677 48.0456 20.7019 47.4659 21.1026C47.3321 21.1917 47.1983 21.2362 47.0646 21.2362C46.9754 21.2362 46.8862 21.2362 46.797 21.1917H46.7078L46.1727 21.5478C45.593 20.9245 44.9687 20.3903 44.3444 19.8561C41.6687 17.7636 38.4134 16.4725 35.0243 16.1609L34.9797 15.5821C34.9351 15.5376 34.9351 15.5376 34.8905 15.493C34.7567 15.3595 34.5783 15.2259 34.5338 14.9143C34.4892 14.2019 34.5783 13.4006 34.6675 12.5102V12.4656C34.6675 12.3321 34.7121 12.154 34.7567 12.0204C34.8013 11.7533 34.8459 11.4862 34.8905 11.1745V10.9074V10.7739C34.8905 9.9725 34.2662 9.30469 33.5081 9.30469C33.1513 9.30469 32.7946 9.48277 32.527 9.74989C32.2595 10.017 32.1257 10.3732 32.1257 10.7739V10.8629V11.13C32.1257 11.4417 32.1703 11.7088 32.2595 11.9759C32.3041 12.1095 32.3041 12.243 32.3487 12.4211V12.4656C32.4379 13.3561 32.5716 14.1574 32.4824 14.8698C32.4379 15.1814 32.2595 15.315 32.1257 15.4485C32.0811 15.493 32.0811 15.493 32.0365 15.5376L31.9919 16.1163C31.1892 16.2054 30.3865 16.2944 29.5839 16.4725C26.1501 17.2293 23.1178 18.9656 20.7543 21.4588L20.3084 21.1472H20.2192C20.13 21.1472 20.0408 21.1917 19.9516 21.1917C19.8178 21.1917 19.6841 21.1472 19.5503 21.0581C18.9706 20.6574 18.3909 20.0787 17.7665 19.4108C17.6774 19.3218 17.5882 19.1882 17.4544 19.0992C17.276 18.8766 17.0976 18.6985 16.8747 18.4759C16.8301 18.4314 16.7409 18.3869 16.6517 18.2978C16.6071 18.2533 16.5625 18.2533 16.5625 18.2088C16.2949 17.9862 15.9382 17.8526 15.5815 17.8526C15.1801 17.8526 14.7788 18.0307 14.5558 18.3424C14.1099 18.9211 14.2436 19.8115 14.868 20.3458C14.9125 20.3458 14.9125 20.3903 14.9571 20.3903C15.0463 20.4348 15.0909 20.5239 15.1801 20.5684C15.4477 20.7465 15.6706 20.88 15.9382 21.0136C16.072 21.0581 16.2058 21.1472 16.3395 21.2362C17.1422 21.7259 17.8111 22.1266 18.3463 22.6163C18.5692 22.8389 18.5692 23.0615 18.5692 23.2841V23.3732L19.0152 23.7739C18.926 23.9074 18.8368 23.9965 18.7922 24.13C16.5625 27.6472 15.7152 31.7876 16.2949 35.8835L15.7152 36.0615C15.7152 36.1061 15.6706 36.1061 15.6706 36.1506C15.5815 36.3287 15.4477 36.5067 15.1801 36.6403C14.5112 36.8629 13.7085 36.9519 12.7721 37.041H12.7275C12.5937 37.041 12.4153 37.041 12.2815 37.0855C12.014 37.0855 11.7464 37.13 11.4342 37.1745C11.3451 37.1745 11.2559 37.2191 11.1667 37.2191C11.1221 37.2191 11.0775 37.2191 11.0329 37.2636C10.2302 37.4417 9.73968 38.1985 9.87346 38.9108C10.0072 39.5341 10.587 39.9348 11.3005 39.9348C11.4342 39.9348 11.5234 39.9348 11.6572 39.8903C11.7018 39.8903 11.7464 39.8903 11.7464 39.8458C11.8356 39.8458 11.9248 39.8013 12.014 39.8013C12.3261 39.7122 12.5491 39.6232 12.8166 39.4896C12.9504 39.4451 13.0842 39.3561 13.218 39.3115H13.2626C14.1099 38.9999 14.868 38.7328 15.5815 38.6437H15.6706C15.9382 38.6437 16.1166 38.7773 16.2504 38.8663C16.2949 38.8663 16.2949 38.9108 16.3395 38.9108L16.9639 38.8218C18.0341 42.1163 20.0854 45.0547 22.8056 47.1917C23.4299 47.6814 24.0542 48.0821 24.7231 48.4828L24.4556 49.0615C24.4556 49.1061 24.5002 49.1061 24.5002 49.1506C24.5894 49.3287 24.6786 49.5513 24.5894 49.8629C24.3218 50.5307 23.9205 51.1985 23.4299 51.9554V51.9999C23.3407 52.1335 23.2516 52.2225 23.1624 52.3561C22.984 52.5787 22.8502 52.8013 22.6718 53.0684C22.6272 53.1129 22.5827 53.2019 22.5381 53.291C22.5381 53.3355 22.4935 53.38 22.4935 53.38C22.1367 54.1369 22.4043 54.9828 23.0732 55.2944C23.2516 55.3834 23.4299 55.428 23.6083 55.428C24.1434 55.428 24.6786 55.0718 24.9461 54.5821C24.9461 54.5376 24.9907 54.493 24.9907 54.493C25.0353 54.404 25.0799 54.315 25.1245 54.2704C25.2583 53.9588 25.3029 53.7362 25.3921 53.4691C25.4366 53.3355 25.4812 53.2019 25.5258 53.0684C25.838 52.178 26.061 51.4656 26.4623 50.8424C26.6407 50.5752 26.8636 50.5307 27.042 50.4417C27.0866 50.4417 27.0866 50.4417 27.1312 50.3972L27.4434 49.8184C29.4055 50.5752 31.546 50.9759 33.6865 50.9759C34.9797 50.9759 36.3175 50.8424 37.5661 50.5307C38.3688 50.3526 39.1269 50.13 39.885 49.8629L40.1526 50.3526C40.1971 50.3526 40.1971 50.3526 40.2417 50.3972C40.4647 50.4417 40.6431 50.5307 40.8215 50.7978C41.1782 51.4211 41.4458 52.178 41.7579 53.0239V53.0684C41.8025 53.2019 41.8471 53.3355 41.8917 53.4691C41.9809 53.7362 42.0255 54.0033 42.1593 54.2704C42.2039 54.3595 42.2485 54.404 42.293 54.493C42.293 54.5376 42.3376 54.5821 42.3376 54.5821C42.6052 55.1163 43.1403 55.428 43.6754 55.428C43.8538 55.428 44.0322 55.3834 44.2106 55.2944C44.5227 55.1163 44.7903 54.8492 44.8795 54.493C44.9687 54.1369 44.9687 53.7362 44.7903 53.38C44.7903 53.3355 44.7457 53.3355 44.7457 53.291C44.7011 53.2019 44.6565 53.1129 44.6119 53.0684C44.4781 52.8013 44.2998 52.5787 44.1214 52.3561C44.0322 52.2225 43.943 52.1335 43.8538 51.9999V51.9554C43.3633 51.1985 42.9174 50.5307 42.6944 49.8629C42.6052 49.5513 42.6944 49.3732 42.739 49.1506C42.739 49.1061 42.7836 49.1061 42.7836 49.0615L42.5606 48.5273C44.9241 47.1471 46.9308 45.1882 48.447 42.7841C49.2497 41.5376 49.874 40.1574 50.3199 38.7773L50.855 38.8663C50.8996 38.8663 50.8996 38.8218 50.9442 38.8218C51.1226 38.7328 51.2564 38.5992 51.5239 38.5992H51.6131C52.3266 38.6882 53.0847 38.9554 53.932 39.267H53.9766C54.1104 39.3115 54.2441 39.4006 54.3779 39.4451C54.6455 39.5787 54.8685 39.6677 55.1806 39.7567C55.2698 39.7567 55.359 39.8013 55.4482 39.8013C55.4928 39.8013 55.5374 39.8013 55.582 39.8458C55.7157 39.8903 55.8049 39.8903 55.9387 39.8903C56.6076 39.8903 57.1873 39.4451 57.3657 38.8663C57.3657 38.3321 56.8752 37.6198 56.0725 37.3972ZM35.4256 35.2156L33.4635 36.1506L31.5014 35.2156L31.0109 33.1232L32.3487 31.4314H34.5338L35.8716 33.1232L35.4256 35.2156ZM47.0646 30.5855C47.4213 32.0992 47.5105 33.6129 47.3767 35.0821L40.5539 33.1232C39.9296 32.9451 39.5728 32.3218 39.7066 31.6985C39.7512 31.5204 39.8404 31.3424 39.9742 31.2088L45.37 26.3561C46.1281 27.6026 46.7078 29.0273 47.0646 30.5855ZM43.2295 23.6848L37.3877 27.8252C36.8972 28.1369 36.2283 28.0478 35.827 27.5581C35.6932 27.4245 35.6486 27.2465 35.604 27.0684L35.2027 19.8115C38.2796 20.1677 41.089 21.5478 43.2295 23.6848ZM30.2974 20.0341C30.7879 19.9451 31.2338 19.8561 31.7244 19.767L31.323 26.8903C31.2784 27.5136 30.7879 28.0478 30.119 28.0478C29.9406 28.0478 29.7176 28.0033 29.5839 27.9143L23.6529 23.6848C25.4812 21.8595 27.7555 20.6129 30.2974 20.0341ZM21.5124 26.3561L26.819 31.0752C27.3096 31.4759 27.3542 32.2328 26.9528 32.7225C26.819 32.9006 26.6407 33.0341 26.4177 33.0787L19.5057 35.0821C19.2381 32.0547 19.907 28.9828 21.5124 26.3561ZM20.3084 38.4211L27.3988 37.2191C27.9785 37.1745 28.5136 37.5752 28.6474 38.154C28.692 38.4211 28.692 38.6437 28.6028 38.8663L25.8826 45.4108C23.3853 43.8081 21.3786 41.3595 20.3084 38.4211ZM36.5851 47.2807C35.5594 47.5033 34.5338 47.6369 33.4635 47.6369C31.9027 47.6369 30.3865 47.3698 28.9595 46.9245L32.4824 40.5581C32.8392 40.1574 33.4189 39.9793 33.9094 40.2465C34.1324 40.38 34.3108 40.5581 34.4446 40.7362L37.8783 46.9245C37.4769 47.0581 37.031 47.1471 36.5851 47.2807ZM45.2808 41.0924C44.166 42.8732 42.6944 44.2978 40.9998 45.4108L38.1904 38.6882C38.0567 38.154 38.2796 37.5752 38.8147 37.3081C38.9931 37.2191 39.2161 37.1745 39.4391 37.1745L46.574 38.3766C46.3065 39.3561 45.8605 40.2465 45.2808 41.0924Z" fill="white"/>
</svg>
