<svg width="150" height="55" viewBox="0 0 150 55" fill="none" xmlns="http://www.w3.org/2000/svg">
<path d="M145.848 18.6562V18.9047H146.473V20.6684H146.723V18.9047H147.348V18.6562C147.373 18.6562 145.848 18.6562 145.848 18.6562ZM149.748 18.6562L148.998 19.7741L148.248 18.6562H147.998V20.6684H148.248V19.1531L148.998 20.271L149.748 19.1531V20.6684H149.998V18.6562C150.023 18.6562 149.748 18.6562 149.748 18.6562Z" fill="#3F5464"/>
<path d="M66.375 27.5493C66.375 22.1586 70.4 17.8857 76.2249 17.8857C79.7499 17.8857 81.8999 19.0036 83.6748 20.7674L81.0249 23.7733C79.6249 22.5312 78.1249 21.6369 76.2249 21.6369C73.0749 21.6369 70.8 24.2701 70.8 27.4002C70.8 30.6545 73.0749 33.2877 76.2249 33.2877C78.3749 33.2877 79.6249 32.4183 81.1499 31.1513L83.7998 33.7846C81.8999 35.7968 79.7749 37.1631 76.0999 37.1631C70.525 37.2128 66.375 32.9399 66.375 27.5493Z" fill="#3F5464"/>
<path d="M88.4492 18.2842H92.5992V25.538H100.299V18.2842H104.349V36.8162H100.299V29.4382H92.5992V36.8162H88.4492V18.2842Z" fill="#3F5464"/>
<path d="M109.398 18.2842H123.648V21.9111H113.548V25.6622H122.373V29.314H113.548V33.1893H123.773V36.8162H109.398V18.2842Z" fill="#3F5464"/>
<path d="M129.199 18.2842H143.449V21.9111H133.224V25.9106H142.324V29.6866H133.224V36.8162H129.199V18.2842Z" fill="#3F5464"/>
<path d="M27.7748 39.9708C20.8249 39.9708 15.275 34.4558 15.275 27.5498C15.275 20.6437 20.8249 15.1288 27.7748 15.1288C33.4498 15.1288 38.2497 18.88 39.7497 24.1465H44.5497C43.0247 16.2467 36.0998 10.4834 27.7748 10.4834C18.3249 10.4834 10.625 18.1347 10.625 27.525C10.625 36.9152 18.3249 44.5665 27.7748 44.5665C36.0998 44.5665 43.0497 38.679 44.6747 30.9035H39.8747C38.2497 36.1948 33.4498 39.9708 27.7748 39.9708Z" fill="#3F5464"/>
<path d="M19.3242 35.9461C21.4742 38.0825 24.4992 39.4488 27.7741 39.4488V34.4556C25.8742 34.4556 24.1242 33.7103 22.8492 32.4434L19.3242 35.9461Z" fill="#3F5464"/>
<path d="M15.7734 27.5501C15.7734 29.3139 16.1484 30.8044 16.7734 32.3197L21.3234 30.3075C20.9484 29.4381 20.6984 28.5438 20.6984 27.5501C20.6984 23.799 23.8484 20.644 27.6483 20.644V15.626C21.1984 15.6508 15.7734 21.0415 15.7734 27.5501Z" fill="#F09820"/>
<path d="M32.0484 16.5195L30.2734 21.165C31.7984 21.786 32.9234 22.8045 33.7984 24.1708H39.0984C38.0984 20.6433 35.4484 17.7616 32.0484 16.5195Z" fill="#3F5464"/>
<path d="M30.3008 33.9336L32.0758 38.579C35.4757 37.337 38.1257 34.4304 39.1507 30.9277H33.7257C32.9508 32.3189 31.8008 33.4368 30.3008 33.9336Z" fill="#F09820"/>
<path d="M27.7764 50.4783C21.4764 50.4783 15.6765 47.8451 11.5015 43.7213L8.22656 46.9756C13.2765 51.9937 20.2014 54.9996 27.9014 54.9996C42.0262 54.9996 53.7511 44.4666 55.4011 30.9277H50.6012C48.8262 41.9575 39.2513 50.4783 27.7764 50.4783Z" fill="#F09820"/>
<path d="M27.7755 4.62059C32.9505 4.62059 37.7504 6.38437 41.5254 9.14182L44.3004 5.39069C39.7504 2.01219 33.9505 0 27.7755 0C16.0506 0 5.95074 7.27868 1.92578 17.5384L6.35074 19.3022C9.60071 10.7565 18.0506 4.62059 27.7755 4.62059Z" fill="#F09820"/>
<path d="M50.6015 24.1716H55.4015C54.9015 20.172 53.5015 16.2719 51.3765 13.0176L47.3516 15.5266C48.9515 18.0356 50.1015 20.9173 50.6015 24.1716Z" fill="#3F5464"/>
<path d="M45.1741 24.1708H49.9741C48.7241 16.2711 43.2991 9.63831 35.9742 6.88086L34.1992 11.2779C39.7492 13.2652 44.0491 18.1591 45.1741 24.1708Z" fill="#F09820"/>
<path d="M27.774 9.88763V5.24219C18.3241 5.24219 10.1242 11.1297 6.82422 19.5263L11.2492 21.1659C13.7742 14.5082 20.1991 9.88763 27.774 9.88763Z" fill="#3F5464"/>
<path d="M9.97574 27.5498H5.30078C5.30078 36.94 11.1007 44.964 19.4256 48.2431L21.2006 43.8461C14.6507 41.3371 9.97574 34.9527 9.97574 27.5498Z" fill="#F09820"/>
<path d="M27.7734 45.2367V49.8573C38.9983 49.8573 48.3482 41.7091 49.9732 30.9277H45.1733C43.5233 39.0759 36.3484 45.2367 27.7734 45.2367Z" fill="#3F5464"/>
<path d="M2.39998 38.7038C0.749993 35.0769 0 31.3009 0 27.5498H4.67495C4.67495 30.6799 5.29995 33.81 6.57494 36.8158L2.39998 38.7038Z" fill="#3F5464"/>
</svg>
