<svg width="220" height="50" viewBox="0 0 220 50" fill="none" xmlns="http://www.w3.org/2000/svg">
<g clip-path="url(#clip0_7556_37037)">
<path d="M-0.00457468 47.1142C1.20313 45.049 3.62178 44.0164 5.86559 44.5327C11.2177 45.049 16.7447 45.049 22.0968 44.3617C23.8225 44.1906 25.7232 44.1906 27.4489 44.3617C30.2108 44.707 32.9759 44.878 35.7377 45.049C36.6022 45.049 37.4635 45.22 38.328 45.3943C39.0176 45.5653 39.7105 46.0816 39.8821 46.7722C40.0537 47.6338 39.7105 48.4921 38.846 48.6664C38.1564 49.0117 37.2919 49.3537 36.4274 49.3537C33.4907 49.3537 30.5572 49.0085 27.4489 49.0085C24.8587 49.0085 22.2684 49.0085 19.6781 49.1795C16.0518 49.5248 12.597 49.5248 8.97066 49.1795C7.07006 49.0085 4.99786 49.1795 3.1005 49.0085C1.89279 49.1795 0.681843 48.6632 -0.0078125 47.8048V47.1142H-0.00457468Z" fill="#0D0600"/>
<path d="M39.8874 12.0055C40.059 14.2417 40.059 16.4812 40.2339 18.7175C40.2339 20.0954 40.2339 21.6443 40.0623 23.019C39.7158 25.9458 39.7158 29.0437 40.0623 32.1416C40.2339 33.5195 40.2339 34.7231 39.8907 36.101C39.7191 37.9952 38.1649 39.3699 36.2643 39.1989C36.2643 39.1989 36.2643 39.1989 36.0927 39.1989C33.8489 39.0278 31.7767 38.6825 29.7045 38.3373C28.1503 37.821 26.7678 36.7883 26.0781 35.4104C25.2136 34.2068 24.3524 32.8289 23.6595 31.6252C22.4518 29.2147 20.8976 27.1495 18.997 25.2585C17.9609 24.0548 16.9248 22.6769 16.0603 21.299C15.8887 20.9538 15.7139 20.6117 15.3707 20.2664C14.8526 19.7501 14.163 19.5791 13.4701 19.9211C13.2985 20.0922 13.1236 20.2664 12.952 20.6085C12.7804 21.1248 12.7804 21.6411 12.7804 22.1574C12.7804 25.2553 12.6088 28.1821 12.6088 31.28C12.6088 31.7963 12.4372 32.3126 12.2624 32.8289C11.5727 34.0325 11.5727 35.4104 12.0908 36.6141C12.4372 37.3014 12.0908 38.334 11.4011 38.6793C11.2295 38.6793 11.0547 38.8503 11.0547 38.8503C8.81084 39.7119 6.22059 39.7119 4.14838 38.6793C2.94067 38.163 2.24778 36.9594 2.24778 35.7525C2.24778 33.5162 2.07618 31.451 2.07618 29.2115C1.90457 27.8336 2.42262 26.4589 3.45873 25.5973C3.97678 25.252 4.32322 24.7357 4.49483 24.2194C5.18448 23.1868 5.18448 21.9832 4.32322 21.1216C2.25102 18.54 1.38652 15.2711 1.90457 11.999C2.0697 9.7692 2.0697 7.70396 2.0697 5.46447C2.0697 4.94816 2.0697 4.43185 2.0697 3.91554C1.8981 2.88292 2.58775 1.8503 3.62385 1.67927C3.9703 1.67927 4.31351 1.67927 4.48835 1.67927C6.21411 1.67927 7.76826 1.33399 9.32242 0.817679C10.8766 0.130342 12.6023 0.81768 13.2952 2.19558C13.2952 2.36661 13.4668 2.36661 13.4668 2.54086C13.6384 3.05717 13.9849 3.57348 14.1565 4.26082C14.5029 5.29344 15.1926 5.98078 16.2287 6.32606C17.2648 6.67134 18.1293 7.35868 18.6473 8.3913C20.7195 11.3181 22.7918 14.416 24.864 17.3396C25.5536 18.2012 26.2465 19.0595 27.1078 19.9211C27.9723 20.7827 28.6619 20.4375 28.8335 19.2338C29.18 17.3396 29.18 15.4486 29.18 13.5544C29.0084 10.6276 29.0084 7.70396 29.3516 4.6061C29.0051 3.05717 30.0412 1.50824 31.7702 1.16296C32.2883 1.16296 32.6347 1.16296 33.1528 1.16296C33.8424 1.16296 34.5353 1.16296 35.3966 1.33399C37.4688 1.16296 39.541 2.71189 39.8874 4.77713C40.059 5.63872 40.2339 6.49709 40.2339 7.35868C39.8874 8.73658 39.8874 10.2855 39.8874 12.0055Z" fill="#0D0600"/>
<path d="M87.3758 22.6768C87.2042 20.6116 87.3758 18.3753 87.8939 16.4811C88.93 13.2122 91.8667 10.9727 95.1466 10.6307C98.2549 10.1144 101.535 10.6307 104.125 12.5249C104.472 12.6959 104.643 12.8702 104.99 13.0412C105.854 13.7285 106.89 13.5575 107.58 12.6959C107.58 12.6959 107.58 12.6959 107.751 12.5249C109.995 10.8049 113.104 10.4596 115.694 11.8375C117.42 13.0412 117.938 15.2807 117.248 17.1717C116.04 19.9242 115.865 23.1964 116.558 26.12C116.905 28.1852 117.076 30.2504 117.248 32.1447C117.42 34.3809 117.594 36.6204 117.766 38.8567C117.766 41.093 117.076 43.3324 115.694 45.0524C114.311 46.7724 112.757 48.1503 110.86 49.1829C109.824 49.8702 108.616 50.0445 107.405 49.5282C104.986 48.4955 102.224 48.4955 99.8058 49.3571C97.7336 50.0445 95.6614 50.2187 93.5892 49.7024C90.8273 49.1861 88.4087 47.2919 87.3726 44.7104C86.6829 43.6777 86.6829 42.2998 87.5442 41.4415C88.4087 40.5799 89.788 40.4088 90.8241 40.9252C91.1705 41.0962 91.5137 41.0962 91.6886 41.2704C92.035 41.4415 92.2066 41.6157 92.5531 41.7867C95.3149 42.8194 98.2517 43.5067 101.014 44.3683C103.604 45.0556 106.022 43.5067 106.712 40.9252C106.712 40.7541 106.884 40.5799 106.884 40.2378C107.055 39.0342 107.055 37.8273 107.055 36.4526C107.055 35.7653 106.537 35.0747 105.848 35.0747C105.676 35.0747 105.33 35.0747 105.158 35.2457C104.122 35.591 103.257 35.9331 102.221 36.4494C100.495 37.482 98.5949 37.8273 96.6943 37.482C93.9324 37.1367 91.6854 35.2457 90.6493 32.4899C90.1312 30.941 89.2667 29.5631 88.2306 28.1884C87.7125 27.5011 87.5409 26.8105 87.5409 25.9522C87.201 25.2584 87.3758 23.8805 87.3758 22.6768ZM107.233 24.7421C107.062 23.5384 106.715 22.3315 106.369 21.1279C105.679 18.8916 103.607 17.3427 101.36 17.3427C99.1162 17.688 97.2156 19.2369 96.6975 21.4732C96.6975 21.6442 96.5259 21.8185 96.5259 21.9895C96.5259 23.7094 96.5259 25.2584 96.6975 26.8073C96.8691 28.7015 98.2517 30.2504 99.9774 30.5925C101.878 31.1088 104.122 30.5925 105.504 29.0436C106.544 28.011 107.233 26.291 107.233 24.7421Z" fill="#0D0600"/>
<path d="M48.1748 31.625C48.1748 31.1087 48.1748 30.5924 48.1748 30.0761C48.0032 27.3235 49.9006 24.913 52.6657 24.742C53.1837 24.742 53.5302 24.742 54.0482 24.742C54.3947 24.742 54.7379 24.742 55.0843 24.913C56.4669 25.2583 57.8462 24.913 59.0571 24.0514C60.6113 22.8477 62.6835 22.1572 64.5841 22.1572C65.4486 22.1572 66.4847 21.9862 67.346 21.6409C69.0717 21.2956 70.1078 19.4046 69.7646 17.6814C69.7646 16.4778 68.7285 15.6162 67.5208 15.6162C67.5208 15.6162 67.5208 15.6162 67.3492 15.6162C64.0693 15.4452 60.7861 16.4778 58.1959 18.714C57.8494 19.0593 57.3314 19.4014 56.8133 19.4014C54.9127 19.4014 53.0154 19.2304 51.1148 18.8851C49.7322 18.714 48.6961 17.5072 48.871 16.1325C49.0426 15.2709 49.5606 14.5836 50.2535 14.2383C53.1902 11.6567 57.1598 10.6241 60.961 10.9694C63.0332 11.3147 65.277 11.3147 67.3492 10.7984C72.3581 10.2821 77.1922 13.5509 78.2283 18.543C78.3999 19.4046 78.2283 20.4372 77.8818 21.2956C77.1922 23.1898 77.3638 25.255 78.2283 27.146C78.5747 28.0076 78.5747 29.0402 78.3999 30.0729C78.0534 31.6218 78.0534 33.1707 78.3999 34.7196C78.9179 36.0975 78.2283 37.8175 76.8457 38.3338C76.3277 38.5048 75.8096 38.5048 75.4632 38.5048C74.4271 38.5048 73.391 38.5048 72.3549 38.5048C71.1472 38.6759 69.9362 38.3338 69.075 37.4722C68.3853 36.7849 67.3492 36.6106 66.6563 37.3012C66.3099 37.6465 65.9666 37.8175 65.4486 37.9885C62.3403 38.6759 59.0604 39.3664 55.9521 39.7085C54.5695 39.7085 53.1902 39.5375 51.9793 38.8469C49.7355 38.1596 48.1813 35.9201 48.3529 33.5128C48.1748 32.8287 48.1748 32.1413 48.1748 31.625ZM61.6442 34.2066C61.9906 34.2066 62.3338 34.2066 62.6803 34.2066C65.0989 33.1739 67.5143 32.3124 69.7614 31.2797C70.6259 30.9344 70.7975 29.9018 70.451 29.0435C70.2794 28.8724 70.1046 28.6982 69.933 28.5272C68.7253 26.9782 66.8247 26.1166 64.9241 26.8072C64.2344 26.6362 63.3699 26.8072 62.6803 26.8072C61.8158 26.8072 60.9545 26.9782 60.09 26.9782C58.3642 27.4945 57.3281 29.2145 57.6714 30.9377C57.6714 32.4866 58.8791 33.8645 60.4332 34.0355C60.9545 34.0355 61.2977 34.0355 61.6442 34.2066Z" fill="#0D0600"/>
<path d="M175.786 24.5676C175.614 27.4945 174.922 30.247 173.714 32.8286C172.849 34.3775 171.47 35.7554 169.916 36.6138C168.88 37.3011 167.672 37.4754 166.461 37.1301C165.253 36.6138 163.699 36.9591 162.835 37.9917C161.799 39.0243 160.416 39.3696 159.037 38.8533C157.311 38.508 155.582 38.337 153.685 38.337C152.302 38.337 151.094 37.8207 150.058 36.9591C148.676 35.9265 147.296 34.8938 145.914 34.0322C145.049 33.5159 144.531 32.4833 144.36 31.4507C144.188 29.3855 143.842 27.3202 142.977 25.426C142.113 22.8445 142.631 20.2629 144.36 18.1977C144.531 17.8524 145.049 17.5103 145.396 17.3361C146.95 16.8198 148.333 15.7871 149.022 14.2382C149.887 12.173 152.131 10.9693 154.374 11.6567C154.721 11.8277 155.239 11.8277 155.582 11.6567C158.519 11.3114 161.281 11.3114 164.217 11.6567C168.362 11.6567 172.16 14.0672 173.889 17.8524C175.096 20.0951 175.786 22.3314 175.786 24.5676ZM164.907 25.7745C165.079 23.7093 164.735 21.644 163.699 19.9241C162.492 17.5136 159.383 16.4809 156.965 17.6878C156.447 18.0331 155.929 18.3751 155.41 18.8915C152.649 22.3346 152.302 27.1524 154.546 30.9376C156.1 32.8318 158.519 33.5192 160.763 32.8318C163.006 32.1445 164.561 30.2503 164.735 27.8398C164.907 26.9782 164.907 26.2908 164.907 25.7745Z" fill="#0D0600"/>
<path d="M195.301 10.2856C197.545 10.4567 199.792 10.6309 202.036 11.1472C203.419 11.4925 204.626 12.0088 205.834 12.8672C206.524 13.3835 207.042 13.8998 207.388 14.5872C208.078 15.4487 207.906 16.6524 207.042 17.1687C206.695 17.3397 206.352 17.514 206.006 17.514C203.415 18.5466 200.479 18.3756 198.235 16.9977C197.37 16.4814 196.509 16.1361 195.473 15.9651C194.265 15.6198 193.054 15.9651 192.018 16.6524C191.154 17.1687 190.81 18.3723 191.329 19.2339C191.5 19.5792 191.675 19.7502 192.018 19.9213C192.19 20.0923 192.536 20.2666 192.883 20.4376C195.126 21.2992 197.545 21.8155 199.964 21.9865C201.346 21.9865 202.901 22.3318 204.108 23.1902C205.144 23.8775 206.18 24.3938 207.217 24.9101C209.117 25.7717 210.153 27.4917 210.153 29.5569C209.982 34.0327 208.253 36.9563 203.937 37.6468C202.211 37.8179 200.657 38.1631 199.274 39.0247C198.756 39.1958 198.238 39.37 197.72 39.37C196.337 39.541 194.783 39.541 193.404 39.7153C190.124 39.5443 186.841 38.5117 183.733 36.9627C183.386 36.7917 183.043 36.4464 182.868 36.1011C181.66 35.4138 181.486 33.8649 182.178 32.658C182.525 31.9707 183.215 31.6254 184.079 31.6254C185.805 31.2801 187.705 31.1091 189.606 31.2801C190.642 31.4511 191.507 32.1417 192.025 32.829C193.407 34.2069 195.479 34.7232 197.377 34.378C198.241 34.2069 199.103 34.0327 199.795 33.5164C200.832 33 201.35 31.6221 200.832 30.5895C200.66 30.0732 200.142 29.7279 199.624 29.5569C199.277 29.3859 198.934 29.3859 198.588 29.2116C197.38 28.6953 196.169 28.179 194.961 27.6627C193.407 26.6301 191.507 26.2848 189.609 26.459C186.329 26.9754 183.221 25.0811 182.185 22.1575C181.149 19.0597 182.185 15.6165 184.775 13.7256C187.019 11.8313 189.956 10.7987 192.892 10.7987C193.401 10.6277 194.265 10.4567 195.301 10.2856Z" fill="#0D0600"/>
<path d="M135.209 22.1604C135.209 23.022 135.209 23.8804 135.209 24.7419C135.381 28.1851 135.899 31.625 135.899 35.0681C136.07 37.1334 134.691 39.0276 132.444 39.1986C132.098 39.1986 131.754 39.1986 131.408 39.1986C127.953 39.1986 125.191 36.6171 125.191 33.1739C125.191 32.1413 125.363 31.1087 125.881 30.0761C126.746 28.1819 126.917 26.2909 126.399 24.2256C125.881 21.4731 125.535 18.7173 125.191 15.7936C125.191 15.1063 125.191 14.4157 125.363 13.5574C125.535 12.0084 126.917 10.9758 128.471 10.9758C129.679 10.9758 131.062 10.9758 132.269 10.9758C134.17 10.9758 135.724 12.5248 135.549 14.419V14.59C135.549 15.4516 135.549 16.1389 135.549 17.0005C135.899 17.3394 135.381 20.6115 135.209 22.1604Z" fill="#0D0600"/>
<path d="M130.892 0.130224H131.41C133.31 -0.0408038 135.036 1.33387 135.208 3.22808C135.379 4.08967 135.036 5.12229 134.518 5.80963C134.172 6.49697 133.31 7.01328 132.617 7.01328C131.235 7.01328 130.027 7.01328 128.645 6.84225C127.091 6.84225 125.883 5.46435 125.883 4.08967C125.883 3.91865 125.883 3.91865 125.883 3.74439C125.883 2.02444 127.265 0.475506 128.991 0.130224C129.681 -0.0408038 130.199 -0.0408038 130.892 0.130224Z" fill="#0D0600"/>
<path d="M216.712 10.802C216.712 10.6309 216.541 10.6309 216.541 10.4567C216.369 10.2857 216.369 10.2857 216.194 10.2857C216.366 10.2857 216.541 10.1146 216.712 10.1146C216.884 9.9436 217.059 9.76935 217.23 9.59832C217.402 9.42729 217.402 9.08201 217.402 8.73673C217.402 8.39145 217.402 8.04939 217.23 7.87514C217.059 7.70411 216.884 7.52985 216.712 7.35883C216.366 7.1878 216.023 7.1878 215.676 7.1878H213.433V12.6962H214.815V10.4567H214.987C215.158 10.4567 215.158 10.4567 215.333 10.6277C215.505 10.7987 215.505 10.973 215.505 10.973L216.194 12.693H217.749L217.059 11.144C216.887 10.973 216.712 10.802 216.712 10.802ZM215.676 9.07878C215.676 9.24981 215.505 9.24981 215.505 9.24981C215.333 9.24981 215.333 9.24981 215.158 9.24981H214.64V8.04616H215.158C215.33 8.04616 215.505 8.04616 215.676 8.21719C215.848 8.38822 215.848 8.56247 215.848 8.56247C215.851 8.90776 215.851 9.07878 215.676 9.07878ZM215.158 5.12256C212.568 5.12256 210.324 7.1878 210.324 9.94037C210.324 12.693 212.396 14.7582 215.158 14.7582C217.749 14.7582 219.992 12.693 219.992 9.94037C219.996 7.35883 217.749 5.12256 215.158 5.12256ZM215.158 13.8998C212.914 13.8998 211.185 12.1799 211.185 9.94037C211.185 7.70411 212.911 5.98092 215.158 5.98092C217.405 5.98092 219.131 7.70088 219.131 9.94037C219.131 12.1766 217.405 13.8998 215.158 13.8998Z" fill="#0D0600"/>
</g>
<defs>
<clipPath id="clip0_7556_37037">
<rect width="220" height="50" fill="white"/>
</clipPath>
</defs>
</svg>
