<svg width="220" height="65" viewBox="0 0 220 65" fill="none" xmlns="http://www.w3.org/2000/svg">
<path d="M129.298 26.3628C129.298 37.1986 120.637 45.9912 109.946 45.9912C99.2555 45.9912 90.5938 37.1986 90.5938 26.3628C90.5938 15.5269 99.2555 6.73438 109.946 6.73438C120.637 6.73438 129.298 15.5269 129.298 26.3628Z" fill="#D33833"/>
<path d="M91.3894 31.2233C91.3894 31.2233 89.9848 10.759 109.009 10.1708L107.683 7.97266L97.3668 11.4092L94.4171 14.7683L91.842 19.6599L90.375 25.3565L90.812 29.1645" fill="#EF3D3A"/>
<path d="M96.6953 12.9727C93.3086 16.4247 91.2017 21.177 91.2017 26.4401C91.2017 31.7033 93.3086 36.4556 96.6953 39.9076C100.098 43.3596 104.764 45.4803 109.945 45.4803C115.127 45.4803 119.793 43.3596 123.195 39.9076C126.582 36.4556 128.689 31.7033 128.689 26.4401C128.689 21.177 126.582 16.4247 123.195 12.9727C119.793 9.53617 115.127 7.39995 109.945 7.39995C104.78 7.39995 100.098 9.52069 96.6953 12.9727ZM95.8369 40.728C92.2318 37.0748 90 32.0129 90 26.4401C90 20.8674 92.2318 15.8055 95.8369 12.1368C99.4421 8.48354 104.436 6.20801 109.945 6.20801C115.455 6.20801 120.449 8.48354 124.054 12.1368C127.659 15.79 129.891 20.8519 129.891 26.4401C129.891 32.0129 127.659 37.0748 124.054 40.728C120.449 44.3967 115.455 46.6568 109.945 46.6568C104.436 46.6568 99.4421 44.3967 95.8369 40.728Z" fill="#231F20"/>
<path d="M118.093 26.4708L115.143 26.9042L111.163 27.3531L108.588 27.415L106.076 27.3376L104.156 26.7494L102.455 24.9228L101.128 21.1921L100.832 20.3872L99.0682 19.799L98.0382 18.1117L97.3047 15.6968L98.1162 13.5761L100.036 12.9104L101.581 13.638L102.314 15.2479L103.204 15.1086L103.501 14.7371L103.204 13.0498L103.126 10.929L103.563 8.00334L103.547 6.33152L104.89 4.19531L107.246 2.50801L111.366 0.758789L115.939 1.42442L119.919 4.27271L121.76 7.19839L122.947 9.31913L123.243 14.5823L122.353 19.1178L120.73 23.1426L119.201 25.2943" fill="#F0D6B7"/>
<path d="M115.593 39.1177L105.058 39.5512V41.3004L105.948 47.4459L105.511 47.9567L98.1445 45.4645L97.6295 44.5821L96.896 36.3159L95.1636 31.3624L94.7891 30.1859L100.688 26.1611L102.53 25.4336L104.153 27.415L105.558 28.6534L107.181 29.1642L107.914 29.3809L108.804 33.189L109.475 33.9939L111.176 33.4057L109.99 35.6812L116.389 38.6843L115.593 39.1177Z" fill="#335061"/>
<path d="M98.1168 13.6067L100.036 12.9411L101.582 13.6687L102.315 15.2786L103.205 15.1392L103.423 14.2569L102.986 12.5696L103.423 8.54483L103.049 6.3467L104.375 4.8142L107.247 2.55414L106.435 1.45508L102.377 3.43649L100.676 4.75228L99.7243 6.79561L98.2573 8.77703L97.8203 11.1145L98.1168 13.6067Z" fill="#6D6B6D"/>
<path d="M101.143 6.73421C101.143 6.73421 102.251 4.02524 106.667 2.70946C111.084 1.39367 106.886 1.76519 106.886 1.76519L102.095 3.5918L100.253 5.41842L99.4414 6.87353L101.143 6.73421Z" fill="#DCD9D8"/>
<path d="M98.9284 13.096C98.9284 13.096 97.3833 7.97221 103.283 7.24465L103.064 6.3623L99.0064 7.30657L97.8203 11.1146L98.1168 13.6069L98.9284 13.096Z" fill="#DCD9D8"/>
<path d="M101.281 19.8917L102.249 18.9629C102.249 18.9629 102.686 19.0093 102.764 19.5202C102.842 20.031 103.06 24.644 106.229 27.1208C106.525 27.353 103.872 26.7492 103.872 26.7492L101.515 23.096" fill="#F7E4CD"/>
<path d="M114.847 18.499C114.847 18.499 115.018 16.2854 115.627 16.4556C116.236 16.6259 116.236 17.2296 116.236 17.2296C116.236 17.2296 114.769 18.1584 114.847 18.499Z" fill="#F7E4CD"/>
<path d="M120.965 10.3867C120.965 10.3867 119.748 10.6344 119.639 11.7025C119.529 12.7706 120.965 11.9192 121.184 11.8418" fill="#F7E4CD"/>
<path d="M112.053 10.4648C112.053 10.4648 110.43 10.6816 110.43 11.7032C110.43 12.7249 112.271 12.6475 112.786 12.2141" fill="#F7E4CD"/>
<path d="M102.033 15.2174C102.033 15.2174 99.2398 13.5301 98.9433 15.14C98.6468 16.7499 97.9913 17.9109 99.3803 19.5982L98.4283 19.3041L97.5387 17.044L97.2422 14.8459L98.9433 13.0967L100.863 13.236L101.971 14.1183L102.033 15.2174Z" fill="#F7E4CD"/>
<path d="M103.361 10.6035C103.361 10.6035 104.609 4.16386 110.946 2.92547C116.158 1.90381 118.905 3.14219 119.935 4.31866C119.935 4.31866 115.284 -1.1612 110.867 0.510622C106.451 2.19792 103.205 5.26293 103.283 7.22886C103.407 10.6035 103.361 10.6035 103.361 10.6035Z" fill="#F7E4CD"/>
<path d="M120.451 5.04634C120.451 5.04634 118.312 4.96894 118.234 6.87295C118.234 6.87295 118.234 7.16707 118.375 7.46119C118.375 7.46119 120.076 5.55717 121.106 6.57884" fill="#F7E4CD"/>
<path d="M111.099 7.66317C111.099 7.66317 110.725 4.75296 108.228 6.44026C106.605 7.53933 106.761 9.07183 107.042 9.36595C107.338 9.66006 107.26 10.2483 107.479 9.84582C107.697 9.44335 107.635 8.12756 108.446 7.75605C109.242 7.38453 110.584 6.98205 111.099 7.66317Z" fill="#F7E4CD"/>
<path d="M104.173 27.4154L97.2432 30.4804C97.2432 30.4804 100.115 41.8116 98.6478 45.3256L97.6178 44.954L97.5398 40.6352L95.6201 32.4618L94.8086 30.2018L102.035 25.3721L104.173 27.4154Z" fill="#49728B"/>
<path d="M104.875 33.6846L105.858 34.8765V39.2573H104.687C104.687 39.2573 104.547 36.1923 104.547 35.8208C104.547 35.4493 104.687 34.1335 104.687 34.1335" fill="#49728B"/>
<path d="M104.902 39.9229L101.578 40.0622L102.53 40.7278L104.887 41.0993" fill="#49728B"/>
<path d="M116.25 39.1956L118.981 39.1182L119.652 45.8364L116.859 46.2079L116.25 39.1956Z" fill="#335061"/>
<path d="M116.984 39.1948L121.105 38.978C121.105 38.978 122.806 34.7366 122.806 34.5198C122.806 34.3031 124.273 28.3744 124.273 28.3744L120.948 24.9378L120.277 24.3496L118.514 26.0988V32.8945L116.984 39.1948Z" fill="#335061"/>
<path d="M118.825 38.6846L116.25 39.1954L116.625 41.2387C117.577 41.6722 119.2 40.5112 119.2 40.5112" fill="#49728B"/>
<path d="M118.906 25.8823L124.072 29.6903L124.213 27.9411L120.311 24.3652L118.906 25.8823Z" fill="#49728B"/>
<path d="M107.466 53.5914L105.936 47.4459L105.172 42.9103L105.047 39.5512L111.961 39.1797H116.253L115.862 46.8577L116.533 52.7864L116.455 53.8855L110.853 54.3189L107.466 53.5914Z" fill="white"/>
<path d="M115.299 39.118C115.299 39.118 114.925 46.7186 116.033 52.1365C116.033 52.1365 113.817 53.5297 110.586 53.8857L116.782 53.669L117.515 53.2356L116.626 41.2542L116.392 38.6846" fill="#DCD9D8"/>
<path d="M119.761 45.2636L122.632 44.4587L128.079 44.1646L128.891 41.6723L127.424 37.3534L125.723 37.1367L123.366 37.8643L121.119 38.9633L119.917 38.7466L118.98 39.1181" fill="white"/>
<path d="M119.715 43.793C119.715 43.793 121.634 42.9107 121.931 42.9881L121.119 38.9633L122.071 38.5918C122.071 38.5918 122.743 42.3998 122.743 42.8333C122.743 42.8333 126.863 43.05 127.237 43.05C127.237 43.05 128.127 41.3627 127.908 39.6135L128.72 41.9509L128.798 43.2667L127.612 45.0159L126.285 45.31L124.069 45.2326L123.336 44.2884L120.76 44.6599L119.949 44.954" fill="#DCD9D8"/>
<path d="M116.813 38.6072L115.189 34.5205L113.488 32.1057C113.488 32.1057 113.863 31.084 114.378 31.084H116.079L117.702 31.6722L117.562 34.3812L116.813 38.6072Z" fill="white"/>
<path d="M117.14 37.2134C117.14 37.2134 115.08 33.266 115.08 32.6778C115.08 32.6778 115.455 31.7954 115.97 32.0122C116.485 32.2289 117.593 32.8171 117.593 32.8171V31.4239L115.08 30.9131L113.379 31.1298L116.251 37.879L116.844 37.9564" fill="#DCD9D8"/>
<path d="M108.12 27.5696L106.076 27.3529L104.156 26.7646V27.4303L105.093 28.4519L108.042 29.7677" fill="white"/>
<path d="M104.828 27.7861C104.828 27.7861 107.106 28.7304 107.856 28.5137L107.934 29.396L105.874 28.9626L104.625 28.0802L104.828 27.7861Z" fill="#DCD9D8"/>
<path d="M119.761 31.3319C118.513 31.3009 117.374 31.1461 116.39 30.8675C116.453 30.465 116.328 30.078 116.437 29.7839C116.718 29.5826 117.171 29.5826 117.592 29.5362C117.233 29.3659 116.718 29.2885 116.312 29.3969C116.297 29.1183 116.172 28.948 116.094 28.7313C116.796 28.4836 118.45 26.8582 119.387 27.3845C119.839 27.6477 120.027 29.1028 120.058 29.8303C120.089 30.4186 119.995 31.0068 119.761 31.3319Z" fill="#D33833"/>
<path d="M119.761 31.3319C118.513 31.3009 117.374 31.1461 116.39 30.8675C116.453 30.465 116.328 30.078 116.437 29.7839C116.718 29.5826 117.171 29.5826 117.592 29.5362C117.233 29.3659 116.718 29.2885 116.312 29.3969C116.297 29.1183 116.172 28.948 116.094 28.7313C116.796 28.4836 118.45 26.8582 119.387 27.3845C119.839 27.6477 120.027 29.1028 120.058 29.8303C120.089 30.4186 119.995 31.0068 119.761 31.3319Z" fill="black" stroke="#D33833" stroke-width="2"/>
<path d="M113.787 29.3033C113.787 29.3961 113.787 29.489 113.771 29.5819C113.381 29.8296 112.757 29.8296 112.32 30.0463C112.944 30.0772 113.443 30.232 113.88 30.4333C113.865 30.6655 113.865 30.9132 113.849 31.1454C113.131 31.6252 112.476 32.3528 111.633 32.8172C111.227 33.0339 109.838 33.5912 109.417 33.4828C109.183 33.4209 109.151 33.1268 109.058 32.8481C108.855 32.2599 108.387 31.3002 108.34 30.4023C108.293 29.2723 108.168 27.3683 109.401 27.6005C110.4 27.7862 111.555 28.2352 112.32 28.6531C112.803 28.9317 113.069 29.2413 113.787 29.3033Z" fill="#D33833"/>
<path d="M113.787 29.3033C113.787 29.3961 113.787 29.489 113.771 29.5819C113.381 29.8296 112.757 29.8296 112.32 30.0463C112.944 30.0772 113.443 30.232 113.88 30.4333C113.865 30.6655 113.865 30.9132 113.849 31.1454C113.131 31.6252 112.476 32.3528 111.633 32.8172C111.227 33.0339 109.838 33.5912 109.417 33.4828C109.183 33.4209 109.151 33.1268 109.058 32.8481C108.855 32.2599 108.387 31.3002 108.34 30.4023C108.293 29.2723 108.168 27.3683 109.401 27.6005C110.4 27.7862 111.555 28.2352 112.32 28.6531C112.803 28.9317 113.069 29.2413 113.787 29.3033Z" fill="black" stroke="#D33833" stroke-width="2"/>
<path d="M114.486 30.6505C114.377 30.0313 114.252 29.861 114.299 29.3192C115.969 28.2202 116.266 31.2078 114.486 30.6505Z" fill="#D33833"/>
<path d="M114.486 30.6505C114.377 30.0313 114.252 29.861 114.299 29.3192C115.969 28.2202 116.266 31.2078 114.486 30.6505Z" fill="black" stroke="#D33833" stroke-width="2"/>
<path d="M116.889 31.1453C116.889 31.1453 116.374 30.4177 116.749 30.201C117.124 29.9843 117.482 30.201 117.701 29.8295C117.919 29.458 117.701 29.2413 117.779 28.8078C117.857 28.3744 118.216 28.297 118.591 28.2196C118.965 28.1422 119.995 28.0029 120.136 28.3589L119.699 27.0431L118.809 26.749L116.015 28.3589L115.875 29.1639V30.7738" fill="#EF3D3A"/>
<path d="M109.152 33.5602C109.058 32.4147 108.965 31.2847 108.871 30.1391C108.715 28.4364 109.277 28.7305 110.775 28.7305C111.009 28.7305 112.18 28.9936 112.258 29.1639C112.663 29.9844 111.587 29.7986 112.726 30.4178C113.678 30.9286 115.379 30.1082 114.989 28.9472C114.77 28.684 113.865 28.8698 113.537 28.6995C112.96 28.4054 112.382 28.1113 111.805 27.8172C111.072 27.4457 109.386 26.8884 108.606 27.4147C106.624 28.746 108.731 32.0896 109.433 33.4828" fill="#EF3D3A"/>
<path d="M111.101 7.66306C109.088 7.19866 108.089 8.49897 107.48 9.84571C106.934 9.72187 107.152 8.97884 107.293 8.60733C107.652 7.6321 109.103 6.31632 110.289 6.50207C110.789 6.56399 111.476 7.02839 111.101 7.66306Z" fill="#231F20"/>
<path d="M120.885 9.92285H120.979C121.432 10.8516 121.822 11.8423 122.399 12.6783C122.009 13.5761 119.496 14.3501 119.528 12.7711C120.074 12.5389 121.01 12.7247 121.494 12.4151C121.213 11.6566 120.823 11.0064 120.885 9.92285Z" fill="#231F20"/>
<path d="M112.114 9.9541C112.551 10.7436 112.692 11.564 113.3 12.1522C113.581 12.4154 114.112 12.7405 113.847 13.4835C113.784 13.6538 113.331 14.0408 113.066 14.1182C112.114 14.3968 109.882 14.1801 110.632 12.9881C111.427 13.0191 112.489 13.499 113.082 12.9262C112.629 12.2142 111.818 10.79 112.114 9.9541Z" fill="#231F20"/>
<path d="M120.528 17.9103C119.092 18.8236 117.484 19.8298 115.112 19.5976C114.613 19.1642 114.41 18.1889 114.909 17.5543C115.159 17.9877 115.003 18.7926 115.721 18.9165C117.063 19.1487 118.624 18.0961 119.591 17.74C120.184 16.7338 119.544 16.3778 118.998 15.7276C117.89 14.4119 116.423 12.771 116.47 10.8051C116.923 10.48 116.954 11.3004 117.016 11.4397C117.594 12.771 119.045 14.4893 120.091 15.6348C120.356 15.9134 120.777 16.192 120.824 16.3778C120.965 16.9041 120.465 17.5543 120.528 17.9103Z" fill="#231F20"/>
<path d="M101.516 16.9508C101.064 16.6876 100.954 15.5731 100.424 15.5421C99.659 15.4957 99.7995 16.9972 99.7995 17.8796C99.2845 17.4152 99.1908 15.9601 99.5654 15.217C99.1284 15.0003 98.9411 15.4492 98.6914 15.604C99.0191 13.3595 102.016 14.5669 101.516 16.9508Z" fill="#231F20"/>
<path d="M121.43 18.8545C120.759 20.1238 119.807 21.517 117.84 21.5635C117.794 21.161 117.762 20.5263 117.84 20.2786C119.354 20.1238 120.291 19.3653 121.43 18.8545Z" fill="#231F20"/>
<path d="M112.004 19.6748C113.252 20.325 115.562 20.4024 117.279 20.3559C117.373 20.7274 117.373 21.1918 117.373 21.6407C115.172 21.7336 112.581 21.1918 112.004 19.6748Z" fill="#231F20"/>
<path d="M111.771 20.8828C112.645 23.05 115.626 22.8023 118.139 22.7404C118.029 23.019 117.795 23.3596 117.483 23.4679C116.672 23.793 114.456 24.0407 113.332 23.4525C112.63 23.0809 112.161 22.2296 111.771 21.7342C111.6 21.502 110.663 20.8983 111.771 20.8828Z" fill="#231F20"/>
<path d="M120.418 32.8172C119.404 34.551 118.42 36.3312 117.219 37.8482C117.718 36.3776 117.937 33.9008 118.015 32.0123C119.076 31.5169 119.981 32.1206 120.418 32.8172Z" fill="#81B0C4"/>
<path d="M125.895 39.04C124.756 39.2722 123.96 40.3713 122.836 40.2939C123.46 39.4425 124.521 39.071 125.895 39.04Z" fill="#231F20"/>
<path d="M126.395 40.8047C125.459 40.8976 124.366 41.0524 123.43 40.975C123.882 40.2939 125.599 40.5415 126.395 40.8047Z" fill="#231F20"/>
<path d="M126.723 42.3376C125.677 42.3531 124.382 42.3376 123.383 42.2602C123.976 41.6255 126.052 42.028 126.723 42.3376Z" fill="#231F20"/>
<path d="M118.452 46.5172C118.608 47.8175 119.123 49.1333 119.061 50.5575C118.483 50.7432 118.155 50.9135 117.375 50.9135C117.328 49.7061 117.157 47.8485 117.203 46.6875C117.578 46.7185 118.14 46.4244 118.452 46.5172Z" fill="#DCD9D8"/>
<path d="M116.765 27.3223C116.234 27.6628 115.797 28.0808 115.282 28.4523C114.158 28.5142 113.55 28.3749 112.738 27.7402C112.754 27.6938 112.832 27.7093 112.832 27.6473C114.034 28.1737 115.563 27.4306 116.765 27.3223Z" fill="#F0D6B7"/>
<path d="M110.492 35.4179C110.82 34.0092 112.115 33.2662 113.286 32.4922C114.488 34.0092 115.221 35.9597 116.033 37.8482C114.113 37.2755 112.162 36.3621 110.492 35.4179Z" fill="#81B0C4"/>
<path d="M117.205 46.7029C117.158 47.8638 117.314 49.7059 117.377 50.9289C118.157 50.9289 118.485 50.7586 119.062 50.5728C119.125 49.1487 118.61 47.8329 118.454 46.5326C118.141 46.4242 117.58 46.7183 117.205 46.7029ZM105.157 40.1394C105.672 44.7988 106.405 48.6998 107.763 52.8329C110.775 53.7462 114.396 53.8236 117.065 53.0031C116.581 50.6812 116.784 47.8484 116.503 45.3561C116.284 43.4831 116.393 41.61 116.097 39.706C112.866 39.0404 108.309 39.5512 105.157 40.1394ZM116.862 39.7369C116.83 41.7338 116.955 43.7153 117.111 45.7122C117.892 45.6038 118.407 45.5264 119.125 45.3561C118.891 43.4366 118.922 41.254 118.438 39.5512C117.892 39.5667 117.408 39.5512 116.862 39.7369ZM120.779 39.4119C120.404 39.3345 119.983 39.4119 119.64 39.4119C119.811 41.0373 120.201 42.8329 120.342 44.5512C120.888 44.5667 121.185 44.3035 121.637 44.2261C121.669 42.7246 121.512 40.6503 120.779 39.4119ZM126.725 44.7988C127.88 44.5202 128.598 43.127 128.27 41.6874C128.052 40.7277 127.677 38.901 127.256 38.2818C126.959 37.8329 126.132 37.2292 125.461 37.6472C124.384 38.3283 122.496 38.5295 121.715 39.35C122.106 40.6503 122.23 42.415 122.386 44.0558C123.729 44.1332 125.367 43.6843 126.491 44.1642C125.711 44.4119 124.712 44.4119 124.041 44.7834C124.603 45.0465 125.882 45.0001 126.725 44.7988ZM116.019 37.8484C115.207 35.9599 114.474 34.0094 113.272 32.4924C112.102 33.2664 110.822 34.0094 110.479 35.4181C112.164 36.3624 114.115 37.2757 116.019 37.8484ZM118.017 32.0125C117.939 33.9011 117.72 36.3778 117.221 37.8484C118.422 36.3159 119.406 34.5512 120.42 32.8175C119.983 32.1209 119.078 31.5172 118.017 32.0125ZM115.754 31.2231C115.301 31.1766 114.911 31.7494 114.318 31.5017C114.177 31.6565 114.052 31.8113 113.912 31.9661C115.223 33.545 115.832 35.7741 116.846 37.6162C117.392 35.836 117.33 33.9011 117.455 31.9661C116.706 31.997 116.284 31.2695 115.754 31.2231ZM114.302 29.319C114.255 29.8608 114.38 30.0311 114.489 30.6503C116.269 31.2076 115.972 28.22 114.302 29.319ZM112.32 28.6689C111.555 28.2509 110.4 27.802 109.402 27.6163C108.169 27.3841 108.294 29.2881 108.34 30.4181C108.387 31.3159 108.855 32.2602 109.058 32.8639C109.152 33.1425 109.183 33.4367 109.417 33.4986C109.839 33.5915 111.243 33.0497 111.633 32.833C112.476 32.384 113.132 31.6565 113.85 31.1611C113.865 30.9289 113.865 30.6813 113.881 30.4491C113.444 30.2323 112.96 30.093 112.32 30.0621C112.741 29.8453 113.381 29.8453 113.772 29.5977C113.772 29.5048 113.772 29.4119 113.787 29.319C113.069 29.2416 112.804 28.932 112.32 28.6689ZM104.985 27.3531C104.345 28.0033 106.78 28.8701 107.544 28.9166C107.544 28.5141 107.779 28.1271 107.732 27.833C106.811 27.6782 105.609 27.7865 104.985 27.3531ZM112.851 27.6472C112.851 27.7091 112.773 27.6937 112.757 27.7401C113.584 28.3748 114.193 28.5141 115.301 28.4522C115.8 28.0961 116.253 27.6627 116.784 27.3221C115.566 27.4305 114.037 28.1735 112.851 27.6472ZM120.061 29.8144C120.03 29.1023 119.843 27.6317 119.39 27.3686C118.454 26.8268 116.799 28.4676 116.097 28.7153C116.175 28.932 116.3 29.1023 116.315 29.381C116.737 29.2726 117.236 29.35 117.595 29.5203C117.174 29.5667 116.721 29.5667 116.44 29.7679C116.347 30.0621 116.471 30.4491 116.393 30.8515C117.377 31.1302 118.516 31.2695 119.764 31.3159C119.999 31.0063 120.092 30.4181 120.061 29.8144ZM103.908 27.9723C103.705 27.833 102.347 26.0838 102.16 26.1611C99.7099 27.1209 97.4157 28.7772 95.3712 30.3562C97.322 34.5203 98.118 39.6131 98.2584 44.5202C100.49 45.5574 102.457 47.0589 105.5 47.2137C105.141 44.7524 104.829 42.5388 104.626 40.2168C103.861 39.8917 102.769 40.2323 102.051 40.1239C102.051 39.2726 103.143 39.7524 103.237 39.1797C103.299 38.7462 102.628 38.7153 102.847 38.0342C103.409 38.2354 103.705 38.6843 104.298 38.8546C104.844 37.6781 104.298 35.5884 104.376 34.5976C104.392 34.4119 104.47 33.576 104.891 33.7153C105.266 33.8391 104.876 35.9599 104.907 36.8887C104.938 37.7555 104.798 38.576 105.157 39.1178C108.091 38.7153 111.072 38.4676 114.255 38.3747C113.553 38.0806 112.726 37.802 111.821 37.2911C111.321 37.0125 109.776 36.4397 109.636 35.9754C109.402 35.2323 110.229 34.8453 110.369 34.2107C108.887 35.0156 108.606 33.4367 108.247 32.3376C107.935 31.3314 107.747 30.5729 107.669 30.0001C106.374 29.35 105.001 28.7463 103.908 27.9723ZM118.766 26.3624C120.81 25.3872 121.185 30.0311 120.373 31.5326C120.498 31.9816 120.919 32.1518 121.091 32.5543C119.952 34.5822 118.688 36.4707 117.517 38.4676C118.375 37.9258 119.624 38.3747 120.638 37.9722C121.013 37.8329 121.278 36.9815 121.559 36.3004C122.34 34.4429 123.151 32.0899 123.51 30.3252C123.588 29.9227 123.822 29.0404 123.76 28.6844C123.666 28.0342 122.792 27.5543 122.34 27.1673C121.512 26.4243 120.997 25.7896 120.123 25.093C119.796 25.6039 119.047 25.9444 118.766 26.3624ZM99.2417 8.39032C98.274 9.45843 98.4769 11.4398 98.5862 12.864C100.35 11.7649 102.675 12.9569 102.66 14.8144C103.502 14.799 102.972 13.7773 102.816 13.1117C102.316 10.96 103.658 8.638 102.878 6.67206C101.364 6.7959 100.131 7.39961 99.2417 8.39032ZM106.202 2.21388C104.002 2.83307 101.177 4.42749 100.272 6.39343C100.974 6.28507 101.458 5.94451 102.145 5.89807C102.41 5.88259 102.753 6.00643 103.05 5.92903C103.643 5.77423 104.158 4.44297 104.61 3.94762C105.047 3.46774 105.578 3.25102 105.937 2.81759C106.171 2.70923 106.514 2.70923 106.53 2.36867C106.436 2.26031 106.327 2.18292 106.202 2.21388ZM117.673 2.80211C115.379 1.51728 111.509 0.557535 109.074 1.76496C107.107 2.74019 104.454 4.35009 103.549 6.37795C104.392 8.34388 103.299 10.1395 103.221 12.1364C103.19 13.2045 103.721 14.1179 103.768 15.2788C103.471 15.7587 102.597 15.8052 101.988 15.7742C101.786 14.7525 101.427 13.607 100.365 13.4832C98.8671 13.3129 97.759 14.5513 97.6966 15.8361C97.6186 17.3531 98.8671 19.8609 100.646 19.6906C101.333 19.6287 101.505 18.9476 102.254 18.9476C102.66 19.7525 101.629 20.0002 101.52 20.5729C101.489 20.7277 101.598 21.3005 101.676 21.5791C102.004 22.8949 102.722 24.6132 103.424 25.6194C104.329 26.9042 106.093 27.0899 107.997 27.2138C108.34 26.4862 109.589 26.5481 110.4 26.7339C109.417 26.3469 108.512 25.4181 107.763 24.5977C106.905 23.6534 106.031 22.6472 105.984 21.4088C107.622 23.6534 108.965 25.6194 111.93 26.6101C114.177 27.3531 116.799 26.2695 118.532 25.0621C119.249 24.5667 119.671 23.7618 120.186 23.0497C122.09 20.3253 122.979 16.4553 122.792 12.6937C122.714 11.1457 122.714 9.59775 122.184 8.5606C121.637 7.47701 119.78 6.4863 118.688 7.47701C118.485 6.40891 119.593 5.75875 120.888 6.14575C119.967 4.9538 119 3.54514 117.673 2.80211ZM121.949 37.802C123.744 36.9196 127.084 35.4336 128.192 37.802C128.614 38.6843 129.097 40.1549 129.3 41.0682C129.597 42.3376 128.972 45.031 127.646 45.449C126.475 45.8205 125.118 45.805 123.713 45.5264C123.541 45.3871 123.37 45.1549 123.229 44.9072C122.23 44.8762 121.278 44.9536 120.498 45.3716C120.576 46.1146 120.077 46.223 119.593 46.3778C119.249 47.7555 120.295 49.5512 120.045 50.7895C119.874 51.6874 118.766 51.8267 117.954 51.9815C117.923 52.4768 117.985 52.8948 118.048 53.3127C117.86 53.9939 117.033 54.3809 116.237 54.4737C113.631 54.7833 109.683 54.9226 107.185 54.0248C106.483 52.322 105.937 50.2632 105.359 48.3282C102.925 48.5914 100.943 47.2911 99.0856 46.4242C98.4457 46.1301 97.5561 45.9598 97.3064 45.449C97.0723 44.9536 97.166 44.0094 97.1035 43.127C96.9631 40.8515 96.8226 38.6534 96.2296 36.3314C95.9642 35.2788 95.4804 34.3655 95.1527 33.3593C94.8406 32.4305 94.3099 31.2695 94.1695 30.3407C93.9666 28.963 95.2776 28.8856 96.1047 28.2819C97.4001 27.3531 98.4145 26.8423 99.8191 26.0064C100.24 25.7587 101.489 25.1395 101.629 24.8454C101.91 24.2726 101.146 23.4677 100.943 23.0187C100.615 22.3067 100.443 21.703 100.397 21.0064C99.2261 20.8206 98.3209 20.124 97.7902 19.35C96.9007 18.0497 96.2764 15.6504 97.0567 13.8392C97.1191 13.6999 97.4157 13.4058 97.4625 13.1891C97.5561 12.7556 97.2908 12.1829 97.2752 11.7185C97.1972 9.35007 97.681 7.30673 99.2885 6.59466C99.944 4.00953 102.285 3.15814 104.486 1.87332C105.313 1.39345 106.218 1.08385 107.154 0.743293C110.51 -0.479612 115.676 -0.247415 118.469 1.84236C119.655 2.72471 121.544 4.59777 122.215 5.95999C124.01 9.53583 123.869 15.5265 122.621 19.8918C122.449 20.4801 122.215 21.3314 121.871 22.0435C121.637 22.5389 120.904 23.5141 120.982 23.9475C121.075 24.3965 122.667 25.5884 123.011 25.9135C123.619 26.5017 124.79 27.2757 124.884 28.0187C124.993 28.8082 124.54 29.8918 124.306 30.6503C123.557 33.189 122.808 35.5264 121.949 37.802Z" fill="#231F20"/>
<path d="M110.008 20.2166C110.102 20.0928 110.632 19.8916 111.381 20.2476C111.381 20.2476 110.492 20.3869 110.57 21.8575L110.195 21.7801C110.211 21.7956 109.821 20.4643 110.008 20.2166Z" fill="#F7E4CD"/>
<path d="M116.468 32.7863C116.468 33.003 116.281 33.1887 116.062 33.1887C115.844 33.1887 115.656 33.003 115.656 32.7863C115.656 32.5695 115.844 32.3838 116.062 32.3838C116.296 32.3838 116.468 32.5695 116.468 32.7863Z" fill="#1D1919"/>
<path d="M116.874 34.6593C116.874 34.876 116.687 35.0618 116.468 35.0618C116.25 35.0618 116.062 34.876 116.062 34.6593C116.062 34.4426 116.25 34.2568 116.468 34.2568C116.702 34.2568 116.874 34.4271 116.874 34.6593Z" fill="#1D1919"/>
<path d="M95.6184 58.3431C95.4936 58.3585 95.3843 58.374 95.2907 58.3895C95.1971 58.405 95.1034 58.4204 94.9786 58.4514C94.8381 58.4824 94.7601 58.5443 94.7289 58.6372C94.6976 58.73 94.6664 58.8229 94.6664 58.9468V62.7238C94.6664 63.0644 94.5884 63.3895 94.4479 63.6836C94.3075 63.9777 94.1202 64.2099 93.8705 64.4111C93.6208 64.5969 93.3399 64.7517 93.0277 64.8446C92.7156 64.9375 92.3878 64.9994 92.0445 64.9994C91.4358 64.9994 90.952 64.8601 90.5775 64.5659C90.2029 64.2718 90.0156 63.8848 90.0156 63.374C90.0156 63.0799 90.0937 62.8322 90.2653 62.631C90.437 62.4297 90.6711 62.3368 90.9676 62.3368C91.2486 62.3368 91.4671 62.4142 91.6387 62.5845C91.8104 62.7548 91.8884 62.956 91.8884 63.1882C91.8884 63.3895 91.8104 63.5907 91.6699 63.761C91.5295 63.9313 91.3578 64.1015 91.1705 64.2409V64.3028C91.2017 64.3647 91.2642 64.4266 91.3578 64.4731C91.4514 64.5195 91.5607 64.535 91.6543 64.535C92.0445 64.535 92.3566 64.3957 92.5751 64.117C92.7936 63.8384 92.9029 63.4204 92.9029 62.8632V58.9932C92.9029 58.8848 92.8873 58.7765 92.856 58.6991C92.8248 58.6217 92.7312 58.5598 92.5907 58.4978C92.4971 58.4514 92.3722 58.4204 92.2318 58.3895C92.0913 58.3585 91.9821 58.3431 91.8884 58.3276V57.9561H95.5716V58.3431H95.6184Z" fill="#231F20"/>
<path d="M101.392 63.6678C101.283 63.8536 101.143 64.0239 100.987 64.1942C100.831 64.3644 100.643 64.4883 100.44 64.6121C100.222 64.736 100.003 64.8288 99.7849 64.8908C99.5664 64.9527 99.3011 64.9836 99.0202 64.9836C98.5364 64.9836 98.1306 64.9217 97.7716 64.7824C97.4283 64.6431 97.1318 64.4728 96.9133 64.2406C96.6792 64.0084 96.5231 63.7452 96.3982 63.4356C96.289 63.1261 96.2266 62.7855 96.2266 62.4295C96.2266 62.1044 96.289 61.7793 96.4138 61.4852C96.5387 61.1911 96.7104 60.9124 96.9289 60.6802C97.1474 60.448 97.4283 60.2623 97.7716 60.123C98.115 59.9836 98.4895 59.9062 98.8953 59.9062C99.3479 59.9062 99.7225 59.9682 100.019 60.0765C100.316 60.1849 100.55 60.3397 100.737 60.5254C100.924 60.7112 101.049 60.9279 101.143 61.1756C101.221 61.4233 101.268 61.6864 101.268 61.9651V62.2747H97.9745C97.9745 62.9403 98.0994 63.4356 98.3647 63.7762C98.6144 64.1168 99.0358 64.287 99.582 64.287C99.8941 64.287 100.159 64.2096 100.409 64.0394C100.659 63.8691 100.862 63.6678 101.033 63.4047L101.392 63.6678ZM99.5352 61.8257C99.5352 61.64 99.5196 61.4388 99.504 61.2375C99.4884 61.0363 99.4572 60.866 99.3947 60.7422C99.3323 60.5874 99.2699 60.479 99.1606 60.4016C99.067 60.3242 98.9421 60.2932 98.8017 60.2932C98.552 60.2932 98.3491 60.4171 98.2086 60.6648C98.0525 60.9124 97.9745 61.3149 97.9589 61.8567L99.5352 61.8257Z" fill="#231F20"/>
<path d="M108.274 64.8131H105.34V64.457C105.402 64.457 105.48 64.4415 105.558 64.4261C105.652 64.4106 105.714 64.3951 105.761 64.3796C105.823 64.3487 105.87 64.2867 105.901 64.2248C105.933 64.1629 105.948 64.0546 105.948 63.9307V61.6707C105.948 61.3456 105.886 61.0979 105.761 60.9276C105.636 60.7573 105.464 60.68 105.215 60.68C105.09 60.68 104.965 60.6954 104.856 60.7419C104.747 60.7728 104.637 60.8347 104.528 60.9121C104.434 60.9741 104.356 61.036 104.294 61.1134C104.231 61.1753 104.185 61.2372 104.153 61.2991V63.8843C104.153 63.9926 104.169 64.0855 104.2 64.1629C104.231 64.2403 104.294 64.3022 104.356 64.3332C104.403 64.3641 104.466 64.3951 104.544 64.4106C104.622 64.4261 104.7 64.4415 104.778 64.457V64.8131H101.812V64.457C101.89 64.457 101.969 64.4415 102.062 64.4261C102.14 64.4106 102.218 64.3951 102.281 64.3796C102.39 64.3487 102.452 64.2867 102.499 64.2093C102.53 64.1319 102.562 64.0391 102.562 63.9152V61.0979C102.562 61.005 102.53 60.8967 102.484 60.8038C102.437 60.7109 102.359 60.6335 102.281 60.5716C102.218 60.5406 102.156 60.4942 102.062 60.4787C101.969 60.4478 101.875 60.4323 101.766 60.4323V60.0762L104.091 59.9524L104.169 60.0298V60.7264H104.185C104.278 60.649 104.388 60.5561 104.512 60.4323C104.637 60.3239 104.762 60.231 104.871 60.1536C104.996 60.0762 105.152 60.0143 105.34 59.9524C105.527 59.8905 105.745 59.875 105.964 59.875C106.494 59.875 106.885 60.0298 107.15 60.3239C107.415 60.618 107.54 61.0205 107.54 61.5159V63.8843C107.54 64.0081 107.556 64.101 107.587 64.1629C107.618 64.2403 107.696 64.2867 107.79 64.3332C107.837 64.3487 107.899 64.3796 107.977 64.3951C108.055 64.4106 108.133 64.4261 108.242 64.4415V64.8131H108.274Z" fill="#231F20"/>
<path d="M114.985 64.8135H112.69C112.409 64.3182 112.144 63.9002 111.91 63.5597C111.676 63.2191 111.457 62.894 111.255 62.6154L110.974 62.8631V63.9157C110.974 64.024 110.989 64.1324 111.02 64.1943C111.052 64.2717 111.114 64.3182 111.223 64.3646C111.286 64.3956 111.348 64.411 111.426 64.4265C111.504 64.442 111.582 64.4575 111.66 64.4575V64.8135H108.633V64.4575C108.711 64.4575 108.789 64.442 108.882 64.4265C108.96 64.411 109.038 64.3956 109.101 64.3801C109.21 64.3491 109.273 64.2872 109.319 64.2098C109.351 64.1324 109.382 64.0395 109.382 63.9157V58.5287C109.382 58.4204 109.351 58.312 109.304 58.2036C109.257 58.0953 109.194 58.0024 109.101 57.9405C109.038 57.9095 108.945 57.8631 108.82 57.8476C108.695 57.8166 108.586 57.8012 108.477 57.8012V57.4451L110.896 57.3213L110.974 57.3987V62.3832C111.208 62.1665 111.489 61.9188 111.785 61.6402C112.082 61.3615 112.331 61.1293 112.503 60.9436C112.612 60.8352 112.675 60.7578 112.675 60.6959C112.69 60.634 112.69 60.603 112.69 60.5875C112.69 60.5256 112.644 60.4792 112.534 60.4482C112.425 60.4173 112.285 60.3708 112.066 60.3399V59.9993H114.532V60.3399C114.204 60.4327 113.955 60.5101 113.783 60.5875C113.611 60.6649 113.424 60.7733 113.221 60.8971C113.081 60.99 112.956 61.0829 112.831 61.1758C112.706 61.2686 112.566 61.3925 112.394 61.5318C112.706 61.9962 113.003 62.4141 113.268 62.8011C113.533 63.1881 113.814 63.6061 114.111 64.0395C114.204 64.1943 114.329 64.2872 114.485 64.3491C114.641 64.3956 114.782 64.4265 114.938 64.442V64.8135H114.985Z" fill="#231F20"/>
<path d="M118.106 64.8137H115.031V64.4576C115.109 64.4576 115.203 64.4421 115.281 64.4267C115.359 64.4112 115.437 64.3957 115.484 64.3802C115.593 64.3493 115.655 64.2874 115.702 64.21C115.749 64.1326 115.765 64.0397 115.765 63.9158V61.0985C115.765 60.9902 115.733 60.8818 115.687 60.8044C115.64 60.7115 115.577 60.6496 115.499 60.6032C115.437 60.5722 115.359 60.5258 115.234 60.4948C115.109 60.4638 115 60.4329 114.906 60.4329V60.0768L117.294 59.953L117.372 60.0304V63.8694C117.372 63.9778 117.403 64.0706 117.45 64.1635C117.497 64.2409 117.575 64.3028 117.653 64.3338C117.715 64.3648 117.793 64.3957 117.872 64.4112C117.95 64.4267 118.028 64.4421 118.121 64.4576V64.8137H118.106ZM117.403 58.2347C117.403 58.4824 117.31 58.6837 117.122 58.8539C116.935 59.0242 116.701 59.1171 116.451 59.1171C116.186 59.1171 115.968 59.0242 115.765 58.8539C115.577 58.6837 115.484 58.4669 115.484 58.2347C115.484 57.9871 115.577 57.7858 115.765 57.6001C115.952 57.4298 116.186 57.3369 116.451 57.3369C116.717 57.3369 116.935 57.4298 117.122 57.6001C117.31 57.7703 117.403 57.9871 117.403 58.2347Z" fill="#231F20"/>
<path d="M124.992 64.8131H122.058V64.457C122.121 64.457 122.199 64.4415 122.277 64.4261C122.37 64.4106 122.433 64.3951 122.48 64.3796C122.542 64.3487 122.589 64.2867 122.62 64.2248C122.651 64.1629 122.667 64.0546 122.667 63.9307V61.6707C122.667 61.3456 122.605 61.0979 122.48 60.9276C122.355 60.7573 122.183 60.68 121.933 60.68C121.809 60.68 121.684 60.6954 121.575 60.7419C121.465 60.7883 121.356 60.8347 121.247 60.9121C121.153 60.9741 121.075 61.036 121.013 61.1134C120.95 61.1753 120.903 61.2372 120.872 61.2991V63.8843C120.872 63.9926 120.888 64.0855 120.919 64.1629C120.95 64.2403 121.013 64.3022 121.075 64.3332C121.122 64.3641 121.184 64.3951 121.262 64.4106C121.34 64.4261 121.418 64.4415 121.496 64.457V64.8131H118.531V64.457C118.609 64.457 118.687 64.4415 118.781 64.4261C118.859 64.4106 118.937 64.3951 118.999 64.3796C119.109 64.3487 119.171 64.2867 119.218 64.2093C119.249 64.1319 119.28 64.0391 119.28 63.9152V61.0979C119.28 61.005 119.249 60.8967 119.202 60.8038C119.155 60.7109 119.077 60.6335 118.999 60.5716C118.937 60.5406 118.875 60.4942 118.781 60.4787C118.687 60.4478 118.594 60.4323 118.484 60.4323V60.0762L120.81 59.9524L120.888 60.0298V60.7264H120.903C120.997 60.649 121.106 60.5561 121.231 60.4323C121.356 60.3239 121.481 60.231 121.59 60.1536C121.715 60.0762 121.871 60.0143 122.058 59.9524C122.246 59.8905 122.464 59.875 122.683 59.875C123.213 59.875 123.603 60.0298 123.869 60.3239C124.134 60.618 124.259 61.0205 124.259 61.5159V63.8843C124.259 64.0081 124.274 64.101 124.306 64.1629C124.337 64.2403 124.415 64.2867 124.509 64.3332C124.555 64.3487 124.618 64.3796 124.696 64.3951C124.774 64.4106 124.852 64.4261 124.961 64.4415V64.8131H124.992Z" fill="#231F20"/>
<path d="M127.693 64.9836C127.381 64.9836 127.068 64.9372 126.772 64.8443C126.475 64.7514 126.241 64.6586 126.07 64.5502L125.929 64.8753H125.555L125.492 63.0796H125.851C125.898 63.2189 125.976 63.3892 126.101 63.575C126.21 63.7607 126.351 63.9155 126.491 64.0703C126.647 64.2096 126.819 64.3335 127.022 64.4418C127.225 64.5347 127.427 64.5966 127.646 64.5966C127.942 64.5966 128.161 64.5347 128.301 64.4264C128.442 64.318 128.52 64.1322 128.52 63.9C128.52 63.7762 128.489 63.6678 128.426 63.575C128.364 63.4976 128.27 63.4202 128.161 63.3582C128.036 63.2963 127.896 63.2344 127.74 63.188C127.583 63.1415 127.396 63.0951 127.178 63.0177C126.959 62.9558 126.772 62.8939 126.616 62.8165C126.46 62.7545 126.288 62.6462 126.132 62.5069C125.992 62.383 125.867 62.2282 125.789 62.0579C125.695 61.8877 125.664 61.6709 125.664 61.4233C125.664 60.9744 125.851 60.6028 126.241 60.3242C126.631 60.0456 127.131 59.9062 127.755 59.9062C128.052 59.9062 128.317 59.9372 128.567 59.9991C128.816 60.061 129.019 60.123 129.191 60.2004L129.3 59.9217H129.675L129.753 61.5626H129.409C129.3 61.222 129.097 60.9434 128.832 60.6957C128.551 60.448 128.255 60.3242 127.942 60.3242C127.693 60.3242 127.49 60.3706 127.349 60.479C127.209 60.5874 127.131 60.7267 127.131 60.9124C127.131 61.1601 127.24 61.3304 127.443 61.4388C127.646 61.5471 127.942 61.6555 128.317 61.7483C128.894 61.9031 129.316 62.1044 129.597 62.3521C129.862 62.6152 130.003 62.9403 130.003 63.3273C130.003 63.8536 129.8 64.2716 129.378 64.5502C128.91 64.8288 128.364 64.9836 127.693 64.9836Z" fill="#231F20"/>
</svg>
