<svg width="60" height="60" viewBox="0 0 60 60" fill="none" xmlns="http://www.w3.org/2000/svg">
<g clip-path="url(#clip0_9463_45131)">
<path d="M37.8993 47.8C37.7993 47.8 37.6993 47.8 37.5993 47.7C37.2993 47.5 37.0993 47.1 37.2993 46.8L43.5993 34.6C43.7993 34.3 44.1993 34.1 44.5993 34.3C44.8993 34.5 45.0993 34.9 44.8993 35.3L38.5993 47.5C38.3993 47.7 38.1993 47.8 37.8993 47.8Z" fill="#0054A6"/>
<path d="M44.6 46C44.4 46 44.2 45.9 44.1 45.8C43.8 45.5 43.8 45.1 44.1 44.8L46.1 42.8L44.1 40.8C43.8 40.5 43.8 40.1 44.1 39.8C44.4 39.5 44.8 39.5 45.1 39.8L47.6 42.3C47.9 42.6 47.9 43 47.6 43.3L45.1 45.8C45 45.9 44.8 46 44.6 46Z" fill="#0054A6"/>
<path d="M37.4984 42.4C37.2984 42.4 37.0984 42.3 36.9984 42.2L34.4984 39.7C34.1984 39.4 34.1984 39 34.4984 38.7L36.9984 36.2C37.2984 35.9 37.6984 35.9 37.9984 36.2C38.2984 36.5 38.2984 36.9 37.9984 37.2L35.9984 39.2L37.9984 41.2C38.2984 41.5 38.2984 41.9 37.9984 42.2C37.8984 42.3 37.6984 42.4 37.4984 42.4Z" fill="#0054A6"/>
<path d="M54.3984 45.7C54.5984 45.1 55.1984 44.7 55.8984 44.7H58.4984C59.3984 44.7 60.0984 43.9999 60.0984 43.0999V38.9C60.0984 38 59.3984 37.4 58.5984 37.4H55.9984C55.3984 37.4 54.7984 37 54.5984 36.4C54.3984 35.9 54.1984 35.4 53.9984 34.9C53.6984 34.3 53.8984 33.6 54.2984 33.2L56.0984 31.4C56.6984 30.7999 56.6984 29.8 56.0984 29.2L53.0984 26.2C52.4984 25.6 51.4984 25.6 50.8984 26.2L48.8984 28C48.3984 28.5 47.6984 28.5999 47.0984 28.2999C46.5984 28.0999 46.1984 27.9 45.6984 27.7C45.0984 27.5 44.6984 26.8999 44.6984 26.2999V23.7C44.6984 22.8 43.9984 22.2 43.1984 22.2H38.9984C38.0984 22.2 37.4984 22.9 37.4984 23.7V26.2999C37.4984 26.8999 37.0984 27.5 36.4984 27.7C35.9984 27.9 35.4984 28.0999 35.0984 28.2999C34.4984 28.5999 33.7984 28.4 33.3984 28L31.5984 26.2C30.9984 25.6 29.9984 25.6 29.3984 26.2L26.3984 29.2C25.7984 29.8 25.7984 30.7999 26.3984 31.4L28.1984 33.2C28.6984 33.7 28.7984 34.4 28.4984 34.9C28.2984 35.4 28.0984 35.7999 27.8984 36.2999C27.6984 36.9 27.0984 37.2999 26.4984 37.2999H23.8984C22.9984 37.2999 22.3984 37.9999 22.3984 38.7999V43C22.3984 43.9 23.0984 44.5 23.8984 44.5H26.4984C27.1984 44.5 27.6984 44.9 27.8984 45.5C28.0984 46 28.2984 46.5 28.4984 46.9C28.7984 47.5 28.5984 48.1999 28.1984 48.5999L26.3984 50.4C25.7984 51 25.7984 51.9999 26.3984 52.5999L29.3984 55.5999C29.9984 56.1999 30.9984 56.1999 31.5984 55.5999L33.4984 53.7999C33.9984 53.4 34.5984 53.2 35.1984 53.5C35.6984 53.7 36.1984 53.8999 36.5984 54.0999C37.1984 54.2999 37.5984 54.9 37.5984 55.5V58.0999C37.5984 59 38.2984 59.5999 39.0984 59.5999H43.2984C44.1984 59.5999 44.7984 58.8999 44.7984 58.0999V55.5C44.7984 54.7999 45.1984 54.2999 45.7984 54.0999C46.2984 53.8999 46.7984 53.7 47.1984 53.5C47.7984 53.2 48.4984 53.2999 48.8984 53.7999L50.6984 55.5999C51.2984 56.1999 52.2984 56.1999 52.8984 55.5999L55.8984 52.5999C56.4984 51.9999 56.4984 51 55.8984 50.4C55.8984 50.4 54.7984 49.2999 54.0984 48.5999C53.5984 48.0999 53.4984 47.4 53.7984 46.7999C53.9984 46.5999 54.1984 46.1 54.3984 45.7ZM41.0984 51.2C35.4984 51.2 30.8984 46.6 30.8984 41C30.8984 35.4 35.4984 30.7999 41.0984 30.7999C46.6984 30.7999 51.2984 35.4 51.2984 41C51.2984 46.6 46.6984 51.2 41.0984 51.2Z" fill="#839299"/>
<path d="M27.0992 10.9H24.9992C24.5992 10.9 24.1992 10.7 24.0992 10.3C23.9992 9.9 23.7992 9.5 23.5992 9.1C23.3992 8.7 23.4992 8.3 23.7992 8L25.2992 6.5C25.6992 6.1 25.6992 5.5 25.2992 5.1L22.9992 2.9C22.5992 2.5 21.9992 2.5 21.5992 2.9L20.0992 4.4C19.7992 4.7 19.3992 4.8 18.9992 4.6C18.5992 4.4 18.1992 4.3 17.7992 4.1C17.3992 4 17.1992 3.6 17.1992 3.2V1C17.1992 0.5 16.7992 0 16.1992 0H12.9992C12.4992 0 11.9992 0.4 11.9992 1V3.1C11.9992 3.5 11.7992 3.9 11.3992 4C10.9992 4.1 10.5992 4.3 10.1992 4.5C9.89922 4.7 9.49922 4.6 9.19922 4.3L7.69922 2.8C7.29922 2.4 6.69922 2.4 6.29922 2.8L3.99922 5.2C3.59922 5.6 3.59922 6.2 3.99922 6.6L5.49922 8C5.79922 8.3 5.89922 8.7 5.69922 9.1C5.49922 9.5 5.29922 9.9 5.19922 10.3C5.09922 10.7 4.69922 10.9 4.29922 10.9H2.19922C1.69922 10.9 1.19922 11.3 1.19922 11.9V15.1C1.19922 15.6 1.59922 16.1 2.19922 16.1H4.29922C4.69922 16.1 5.09922 16.3 5.19922 16.7C5.29922 17.1 5.49922 17.5 5.69922 17.9C5.89922 18.3 5.79922 18.7 5.49922 19L3.99922 20.4C3.59922 20.8 3.59922 21.4 3.99922 21.8L6.29922 24.1C6.69922 24.5 7.29922 24.5 7.69922 24.1L9.19922 22.6C9.49922 22.3 9.89922 22.2 10.2992 22.4C10.6992 22.6 11.0992 22.8 11.4992 22.9C11.8992 23 12.0992 23.4 12.0992 23.8V26C12.0992 26.5 12.4992 27 13.0992 27H16.2992C16.7992 27 17.2992 26.6 17.2992 26V23.9C17.2992 23.5 17.4992 23.1 17.8992 23C18.2992 22.9 18.6992 22.7 19.0992 22.5C19.4992 22.3 19.8992 22.4 20.1992 22.7L21.6992 24.2C22.0992 24.6 22.6992 24.6 23.0992 24.2L25.3992 21.9C25.7992 21.5 25.7992 20.9 25.3992 20.5L23.8992 19C23.5992 18.7 23.4992 18.3 23.6992 17.9C23.8992 17.5 24.0992 17.1 24.1992 16.7C24.2992 16.3 24.6992 16.1 25.0992 16.1H27.1992C27.6992 16.1 28.1992 15.7 28.1992 15.1V11.9C28.0992 11.3 27.6992 10.9 27.0992 10.9ZM14.6992 19.7C11.2992 19.7 8.49922 16.9 8.49922 13.5C8.49922 10.1 11.2992 7.3 14.6992 7.3C18.0992 7.3 20.8992 10.1 20.8992 13.5C20.7992 16.9 18.0992 19.7 14.6992 19.7Z" fill="#D2D9DC"/>
<path d="M55.8008 17.4001C55.4008 17.2001 54.9008 17.4001 54.7008 17.8001L53.5008 20.2001C51.2008 8.30005 40.2008 -0.199948 27.8008 0.900052H27.6008C27.1008 0.900052 26.8008 1.30005 26.8008 1.80005C26.8008 2.30005 27.2008 2.60005 27.7008 2.60005H27.9008C39.4008 1.60005 49.7008 9.50005 51.9008 20.6001L50.1008 18.8001C49.8008 18.5001 49.3008 18.5001 48.9008 18.8001C48.6008 19.1 48.6008 19.6001 48.9008 20.0001L52.5008 23.7001C52.9008 24.1001 53.6008 24.0001 53.8008 23.5001L56.1008 18.7001C56.4008 18.1001 56.2008 17.6001 55.8008 17.4001Z" fill="#002548"/>
<path d="M22.7992 54.2C16.8992 53 11.6992 49.5 8.39922 44.4C5.59922 40.1 4.39922 35 4.89922 30L6.09922 32.3C6.29922 32.7 6.79922 32.9 7.19922 32.7C7.59922 32.5 7.79922 32 7.59922 31.6L5.19922 27C4.99922 26.5 4.19922 26.4 3.89922 26.8L0.299219 30.7C-0.000781253 31 -0.000781253 31.6 0.299219 31.9C0.599219 32.2 1.19922 32.2 1.49922 31.9L3.29922 29.9C2.69922 35.3 3.99922 40.7 6.99922 45.3C10.4992 50.8 15.9992 54.5 22.3992 55.8C22.7992 55.9 23.2992 55.6 23.3992 55.2C23.4992 54.7 23.1992 54.3 22.7992 54.2Z" fill="#002548"/>
</g>
<defs>
<clipPath id="clip0_9463_45131">
<rect width="60" height="60" fill="white"/>
</clipPath>
</defs>
</svg>
