<svg width="1600" height="404" viewBox="0 0 1600 404" fill="none" xmlns="http://www.w3.org/2000/svg">
<mask id="mask0_7527_17703" style="mask-type:luminance" maskUnits="userSpaceOnUse" x="0" y="0" width="1600" height="404">
<path d="M1600 0H0V404H1600V0Z" fill="white"/>
</mask>
<g mask="url(#mask0_7527_17703)">
<path d="M799.997 1035.46C742.107 1035.46 685.948 1024.12 633.088 1001.76C582.028 980.16 536.168 949.24 496.788 909.86C457.408 870.48 426.488 824.62 404.888 773.56C382.528 720.69 371.188 664.54 371.188 606.65C371.188 548.76 382.528 492.6 404.888 439.74C426.488 388.68 457.408 342.82 496.788 303.44C536.168 264.06 582.028 233.14 633.088 211.54C685.958 189.18 742.107 177.84 799.997 177.84C857.888 177.84 914.047 189.18 966.907 211.54C1017.97 233.14 1063.83 264.06 1103.21 303.44C1142.59 342.82 1173.51 388.68 1195.11 439.74C1217.47 492.61 1228.81 548.76 1228.81 606.65C1228.81 664.54 1217.47 720.7 1195.11 773.56C1173.51 824.62 1142.59 870.48 1103.21 909.86C1063.83 949.24 1017.97 980.16 966.907 1001.76C914.047 1024.12 857.888 1035.46 799.997 1035.46ZM799.997 180.23C686.098 180.23 579.018 224.58 498.478 305.12C417.938 385.66 373.587 492.74 373.587 606.64C373.587 720.54 417.938 827.62 498.478 908.16C579.018 988.7 686.098 1033.06 799.997 1033.06C913.898 1033.06 1020.98 988.71 1101.52 908.17C1182.06 827.63 1226.41 720.55 1226.41 606.65C1226.41 492.75 1182.06 385.67 1101.52 305.13C1020.98 224.59 913.898 180.23 799.997 180.23Z" fill="#D2D9DC"/>
<path d="M800.002 1094.05C734.202 1094.05 670.372 1081.16 610.282 1055.75C552.242 1031.2 500.112 996.06 455.352 951.3C410.592 906.54 375.442 854.41 350.902 796.37C325.482 736.28 312.602 672.45 312.602 606.65C312.602 540.85 325.492 477.02 350.902 416.93C375.452 358.89 410.592 306.76 455.352 262C500.112 217.24 552.242 182.09 610.282 157.55C670.372 132.13 734.202 119.25 800.002 119.25C865.802 119.25 929.632 132.14 989.722 157.55C1047.76 182.1 1099.89 217.24 1144.65 262C1189.41 306.76 1224.56 358.89 1249.1 416.93C1274.52 477.02 1287.4 540.85 1287.4 606.65C1287.4 672.45 1274.51 736.28 1249.1 796.37C1224.55 854.41 1189.41 906.54 1144.65 951.3C1099.89 996.06 1047.76 1031.21 989.722 1055.75C929.632 1081.16 865.802 1094.05 800.002 1094.05ZM800.002 121.64C734.522 121.64 671.012 134.46 611.212 159.75C553.462 184.18 501.592 219.15 457.042 263.69C412.492 308.23 377.532 360.1 353.102 417.86C327.812 477.65 314.992 541.17 314.992 606.65C314.992 672.13 327.812 735.64 353.102 795.44C377.532 853.19 412.502 905.06 457.042 949.61C501.582 994.16 553.452 1029.12 611.212 1053.55C671.002 1078.84 734.522 1091.66 800.002 1091.66C865.482 1091.66 928.992 1078.84 988.792 1053.55C1046.54 1029.12 1098.41 994.15 1142.96 949.61C1187.5 905.07 1222.47 853.2 1246.9 795.44C1272.19 735.65 1285.01 672.13 1285.01 606.65C1285.01 541.17 1272.19 477.66 1246.9 417.86C1222.47 360.11 1187.5 308.24 1142.96 263.69C1098.42 219.15 1046.55 184.18 988.792 159.75C928.992 134.46 865.482 121.64 800.002 121.64Z" fill="#D2D9DC"/>
<path d="M800 1152.65C726.29 1152.65 654.79 1138.21 587.47 1109.74C522.45 1082.24 464.06 1042.87 413.92 992.73C363.78 942.59 324.41 884.2 296.91 819.18C268.44 751.87 254 680.36 254 606.65C254 532.94 268.44 461.44 296.91 394.12C324.41 329.1 363.78 270.71 413.92 220.57C464.06 170.43 522.45 131.06 587.47 103.56C654.78 75.0899 726.29 60.6499 800 60.6499C873.71 60.6499 945.21 75.0899 1012.53 103.56C1077.55 131.06 1135.94 170.43 1186.08 220.57C1236.22 270.71 1275.59 329.1 1303.09 394.12C1331.56 461.43 1346 532.94 1346 606.65C1346 680.36 1331.56 751.86 1303.09 819.18C1275.59 884.2 1236.22 942.59 1186.08 992.73C1135.94 1042.87 1077.55 1082.24 1012.53 1109.74C945.21 1138.21 873.71 1152.65 800 1152.65ZM800 63.0399C726.61 63.0399 655.42 77.4099 588.41 105.76C523.68 133.14 465.54 172.34 415.62 222.26C365.7 272.18 326.5 330.32 299.12 395.05C270.77 462.07 256.4 533.26 256.4 606.64C256.4 680.02 270.77 751.22 299.12 818.23C326.5 882.96 365.7 941.1 415.62 991.02C465.54 1040.94 523.68 1080.14 588.41 1107.52C655.43 1135.87 726.62 1150.24 800 1150.24C873.38 1150.24 944.58 1135.87 1011.59 1107.52C1076.32 1080.14 1134.46 1040.94 1184.38 991.02C1234.3 941.1 1273.5 882.96 1300.88 818.23C1329.23 751.21 1343.6 680.02 1343.6 606.64C1343.6 533.26 1329.23 462.06 1300.88 395.05C1273.5 330.32 1234.3 272.18 1184.38 222.26C1134.46 172.34 1076.32 133.14 1011.59 105.76C944.58 77.4099 873.39 63.0399 800 63.0399Z" fill="#D2D9DC"/>
</g>
</svg>
