<svg width="78" height="65" viewBox="0 0 78 65" fill="none" xmlns="http://www.w3.org/2000/svg">
<path fill-rule="evenodd" clip-rule="evenodd" d="M11.7819 52.7198V47.7617C11.7819 47.1106 12.192 46.5869 12.8709 46.5869H13.0591C13.7378 46.5869 14.1459 47.1109 14.1459 47.7617V58.1998C14.1459 60.7452 12.8797 62.7704 10.6737 64.0607C9.65074 64.6586 8.52045 64.9653 7.3346 64.9653H6.86585C4.30268 64.9653 2.26609 63.7068 0.965065 61.5167C0.36136 60.5 0.0546875 59.379 0.0546875 58.1998V57.7345C0.0546875 55.1883 1.32157 53.1643 3.52595 51.8717C4.54972 51.2714 5.67838 50.9671 6.86585 50.9671H7.3346C9.06925 50.9671 10.541 51.6349 11.7819 52.7198ZM2.41837 57.9668C2.41837 59.8055 3.31568 61.1878 4.93775 62.0693C5.59358 62.4259 6.30577 62.6173 7.05407 62.6173C8.87107 62.6173 10.2187 61.766 11.1483 60.2366C11.5806 59.525 11.7819 58.7469 11.7819 57.9192C11.7819 56.3253 11.0222 55.0815 9.72916 54.1576C8.94508 53.5976 8.06248 53.3167 7.09998 53.3167C5.1196 53.3167 3.6944 54.3103 2.83892 56.0758C2.55022 56.6727 2.41837 57.3066 2.41837 57.9668ZM22.3468 50.9671H22.6744C25.4134 50.9671 27.4962 52.2868 28.8164 54.6615C29.3443 55.6115 29.6266 56.6482 29.6266 57.7345V58.1998C29.6266 60.7451 28.363 62.7733 26.1534 64.061C25.1304 64.6569 24.0005 64.9653 22.8149 64.9653H22.3468C19.7837 64.9653 17.7468 63.7068 16.4461 61.5167C15.8424 60.5 15.535 59.379 15.535 58.1998V57.7345C15.535 55.188 16.8066 53.1706 19.0056 51.8723C20.0281 51.2688 21.1587 50.9671 22.3468 50.9671ZM17.8987 57.9668C17.8987 59.7516 18.7807 61.0644 20.2983 61.9875C21.011 62.4211 21.7957 62.6173 22.6285 62.6173C24.404 62.6173 25.7163 61.7232 26.6298 60.2347C27.0654 59.525 27.2624 58.7456 27.2624 57.9192C27.2624 56.2597 26.4576 54.9918 25.0819 54.0729C24.3279 53.569 23.4886 53.3167 22.5806 53.3167C20.6003 53.3167 19.1751 54.3103 18.3199 56.0758C18.0306 56.6727 17.8987 57.3066 17.8987 57.9668ZM39.454 53.5043C39.0972 53.3383 38.4289 53.2831 38.0432 53.2685C36.0682 53.1946 34.6392 54.2993 33.8009 56.0299C33.5115 56.6268 33.3794 57.2587 33.3794 57.9192C33.3794 59.9304 34.4423 61.3384 36.2497 62.1967C36.9099 62.5101 37.7623 62.5698 38.4838 62.5698C39.1186 62.5698 40.0152 62.1834 40.5784 61.9177L40.6761 61.8718H41.113L41.1612 61.8816C41.6989 61.9926 42.1047 62.3311 42.1047 62.9057V63.1381C42.1047 64.5675 39.4744 64.895 38.4708 64.9645C34.9289 65.2081 32.28 63.2759 31.2701 59.9202C31.0946 59.3377 31.0157 58.7589 31.0157 58.1516V57.687C31.0157 55.1408 32.2876 53.124 34.4863 51.8266C35.5088 51.2235 36.6394 50.9207 37.8272 50.9207H38.2956C39.5555 50.9207 40.716 51.2761 41.7562 51.9819L41.8419 52.0406L41.8958 52.1291C42.008 52.3141 42.1047 52.5278 42.1047 52.748V52.9804C42.1047 53.5797 41.6533 53.902 41.1083 54.0064L41.0632 54.0143H40.9235C40.5706 54.0143 39.7688 53.6515 39.454 53.5043ZM47.1215 55.0942C48.0395 54.181 48.9612 53.2695 49.8929 52.3712C50.1527 52.1208 51.136 51.0603 51.523 51.0603H51.9465L51.9947 51.07C52.5339 51.1813 52.9379 51.5205 52.9379 52.0961V52.3284C52.9379 52.7211 52.4749 53.1773 52.2195 53.446C51.6765 54.0177 51.1046 54.571 50.5488 55.131L47.693 58.0106C48.9226 59.2347 50.1511 60.4601 51.3708 61.6936C51.7081 62.0347 52.0457 62.3764 52.3779 62.7225C52.4953 62.8452 52.6687 62.9979 52.7672 63.1681C52.8729 63.3273 52.9379 63.507 52.9379 63.6988V63.9416L52.9242 63.9974C52.7914 64.533 52.4491 64.9653 51.8514 64.9653H51.6634C51.2722 64.9653 50.8306 64.5256 50.5625 64.2748C50.0107 63.7577 49.4775 63.2141 48.9363 62.686L47.1215 60.9164V63.7447C47.1215 64.3961 46.7109 64.9197 46.0327 64.9197H45.8464C45.1675 64.9197 44.7576 64.3961 44.7576 63.7447V47.8073C44.7576 47.1556 45.1679 46.6345 45.8464 46.6345H46.0327C46.7109 46.6345 47.1215 47.1556 47.1215 47.8073V55.0942ZM76.5842 51.0603H76.8188C77.5279 51.0603 78.0011 51.5348 78.0011 52.2349C78.0011 53.207 77.0656 53.4558 76.256 53.4558C75.1943 53.4558 74.1808 54.0942 73.4491 54.8102C72.5364 55.7037 72.1369 56.8483 72.1369 58.1063V63.7907C72.1369 64.4424 71.7275 64.9653 71.0478 64.9653H70.8614C70.182 64.9653 69.7726 64.4424 69.7726 63.7907V57.7801C69.7726 55.472 70.9038 53.588 72.7895 52.2665C73.9158 51.477 75.2054 51.0603 76.5842 51.0603ZM59.7826 62.3251C60.6428 62.6234 61.6238 62.5808 62.5064 62.4281C62.9576 62.2376 64.1123 61.7374 64.5369 61.8106L64.6033 61.8217L64.6642 61.8515C64.9233 61.9763 65.171 62.1529 65.3032 62.4148C65.6126 63.0294 65.464 63.6467 64.8563 63.9955L64.6541 64.1115C62.4116 65.3971 60.0267 65.2189 57.7916 64.0182C56.7229 63.4445 55.9053 62.5925 55.3023 61.5542L55.1611 61.3114C53.7217 58.8353 53.916 56.2305 55.5393 53.8757C56.0999 53.0619 56.8324 52.433 57.6888 51.9413L58.0128 51.7557C60.1246 50.5449 62.3878 50.6276 64.5567 51.6904C65.7228 52.2618 66.6676 53.1138 67.3187 54.2339L67.4357 54.4356C67.9087 55.2495 67.296 55.9588 66.6635 56.4436C65.9296 57.006 65.1885 57.6828 64.485 58.286C62.9165 59.6308 61.3503 60.9789 59.7826 62.3251ZM57.7524 60.9088C59.5068 59.4147 61.2616 57.9195 63.0109 56.4194C63.6087 55.9072 64.2644 55.3757 64.8577 54.8371C64.3815 54.2415 63.5867 53.8121 62.9111 53.556C61.5478 53.04 60.2032 53.2133 58.9528 53.9303C57.3158 54.8689 56.6188 56.3639 56.6801 58.2242C56.7041 58.9567 56.9026 59.6626 57.2941 60.286C57.432 60.5057 57.5861 60.712 57.7524 60.9088Z" fill="#364548"/>
<path fill-rule="evenodd" clip-rule="evenodd" d="M44.9948 13.8576H51.9705V20.9405H55.4977C57.1264 20.9405 58.8018 20.6523 60.3443 20.1331C61.1022 19.8779 61.953 19.5226 62.7006 19.0759C61.7159 17.7988 61.2132 16.1864 61.0651 14.597C60.8642 12.4352 61.3032 9.62134 62.7763 7.92937L63.5095 7.08695L64.3833 7.78461C66.5833 9.5402 68.4334 11.9933 68.7596 14.7898C71.4085 14.0158 74.5185 14.1989 76.8535 15.5374L77.8114 16.0864L77.3072 17.0639C75.3325 20.8918 71.2043 22.0776 67.1682 21.8678C61.1287 36.809 47.98 43.8826 32.0373 43.8826C23.8008 43.8826 16.2439 40.8244 11.9407 33.5659L11.8701 33.4474L11.2432 32.1805C9.7886 28.9854 9.30547 25.4853 9.63322 21.988L9.73158 20.9405H15.6966V13.8576H22.6721V6.92872H36.6238V0H44.9948V13.8576Z" fill="#364548"/>
<path fill-rule="evenodd" clip-rule="evenodd" d="M67.5929 16.4776C68.0607 12.8671 65.3403 10.031 63.6532 8.68457C61.7091 10.9171 61.407 16.7683 64.4571 19.2317C62.7549 20.7335 59.168 22.0948 55.4954 22.0948H10.7891C10.4319 25.9028 11.105 29.4094 12.6422 32.411L13.1508 33.3349C13.4728 33.8777 13.8246 34.4016 14.2048 34.906C16.0427 35.0231 17.7375 35.0637 19.2878 35.0296H19.2885C22.3353 34.9626 24.8212 34.6056 26.7053 33.9571C26.9858 33.8602 27.2915 34.008 27.3886 34.2864C27.4855 34.5647 27.3371 34.8685 27.0569 34.965C26.8064 35.0512 26.5452 35.1319 26.2754 35.2085C26.2751 35.2086 26.2748 35.2086 26.2745 35.2088C24.7909 35.6294 23.2002 35.9126 21.1476 36.0384C21.2693 36.0403 21.0207 36.0566 21.02 36.0567C20.9503 36.0609 20.8624 36.0708 20.7923 36.0747C19.9845 36.1197 19.1125 36.1291 18.2211 36.1291C17.2462 36.1291 16.286 36.1108 15.2125 36.0567L15.1851 36.0747C18.9101 40.2333 24.7344 42.7274 32.0351 42.7274C47.4863 42.7274 60.5922 35.9241 66.3956 20.6504C70.5131 21.0701 74.4701 20.0273 76.2701 16.5372C73.4028 14.8937 69.7159 15.4177 67.5929 16.4776Z" fill="#22A0C8"/>
<path fill-rule="evenodd" clip-rule="evenodd" d="M67.5968 16.4776C68.0646 12.8671 65.3442 10.031 63.6571 8.68457C61.713 10.9171 61.4109 16.7683 64.461 19.2317C62.7588 20.7335 59.1719 22.0948 55.4994 22.0948H13.4403C13.2578 27.9266 15.4367 32.3534 19.2918 35.0296H19.2924C22.3392 34.9626 24.8251 34.6056 26.7092 33.9571C26.9898 33.8602 27.2955 34.008 27.3925 34.2864C27.4894 34.5647 27.341 34.8685 27.0608 34.965C26.8104 35.0512 26.5491 35.1319 26.2794 35.2085L26.2784 35.2088C24.7949 35.6294 23.0674 35.949 21.0148 36.0747C21.0148 36.0747 20.9651 36.0275 20.9645 36.0277C26.2228 38.7068 33.8477 38.6972 42.5894 35.3618C52.3915 31.6217 61.5124 24.4958 67.8767 16.3455C67.7806 16.3885 67.6872 16.4327 67.5968 16.4776Z" fill="#37B1D9"/>
<path fill-rule="evenodd" clip-rule="evenodd" d="M10.875 26.7217C11.1529 28.7614 11.7535 30.6714 12.6445 32.4112L13.1531 33.3351C13.4751 33.8779 13.8269 34.4018 14.2072 34.9062C16.0455 35.0233 17.7402 35.0639 19.2908 35.0298C22.3376 34.9628 24.8234 34.6058 26.7076 33.9573C26.9881 33.8604 27.2938 34.0082 27.3909 34.2866C27.4878 34.5649 27.3394 34.8687 27.0592 34.9652C26.8087 35.0514 26.5475 35.1321 26.2777 35.2087L26.2767 35.209C24.7932 35.6296 23.0749 35.931 21.0223 36.0569C20.9519 36.0611 20.829 36.0619 20.758 36.0658C19.9505 36.111 19.0875 36.1384 18.1959 36.1384C17.2212 36.1384 16.2244 36.1199 15.1511 36.0658C18.8759 40.2244 24.7367 42.7276 32.0374 42.7276C45.2651 42.7276 56.7736 37.7406 63.4531 26.7217H10.875Z" fill="#1B81A5"/>
<path fill-rule="evenodd" clip-rule="evenodd" d="M13.8398 26.7217C14.6306 30.3031 16.5309 33.1149 19.2895 35.0298C22.3363 34.9628 24.8222 34.6058 26.7064 33.9573C26.9869 33.8604 27.2926 34.0082 27.3896 34.2866C27.4865 34.5649 27.3382 34.8687 27.058 34.9652C26.8075 35.0514 26.5462 35.1321 26.2765 35.2087L26.2755 35.209C24.792 35.6296 23.0372 35.931 20.9846 36.0569C26.2427 38.7356 33.8454 38.6971 42.5865 35.362C47.8746 33.344 52.964 30.3398 57.5301 26.7217H13.8398Z" fill="#1D91B4"/>
<path fill-rule="evenodd" clip-rule="evenodd" d="M16.8594 15.0127H22.9049V21.0179H16.8594V15.0127ZM17.3629 15.5132H17.84V20.5177H17.3629V15.5132ZM18.2599 15.5132H18.7561V20.5177H18.2599V15.5132ZM19.1757 15.5132H19.6719V20.5177H19.1757V15.5132ZM20.0919 15.5132H20.5881V20.5177H20.0919V15.5132ZM21.008 15.5132H21.5042V20.5177H21.008V15.5132ZM21.924 15.5132H22.4014V20.5177H21.924V15.5132Z" fill="#23A3C2"/>
<path fill-rule="evenodd" clip-rule="evenodd" d="M23.8359 8.08301H29.8821V14.0878H23.8359V8.08301ZM24.3401 8.58349H24.8169V13.5875H24.3401V8.58349ZM25.2371 8.58349H25.733V13.5875H25.2371V8.58349ZM26.1527 8.58349H26.6489V13.5875H26.1527V8.58349ZM27.0688 8.58349H27.565V13.5875H27.0688V8.58349ZM27.9851 8.58349H28.4813V13.5875H27.9851V8.58349ZM28.9009 8.58349H29.3786V13.5875H28.9009V8.58349Z" fill="#23A3C2"/>
<path fill-rule="evenodd" clip-rule="evenodd" d="M23.8359 15.0127H29.8821V21.0179H23.8359V15.0127ZM24.3401 15.5132H24.8169V20.5177H24.3401V15.5132ZM25.2371 15.5132H25.733V20.5177H25.2371V15.5132ZM26.1527 15.5132H26.6489V20.5177H26.1527V15.5132ZM27.0688 15.5132H27.565V20.5177H27.0688V15.5132ZM27.9851 15.5132H28.4813V20.5177H27.9851V15.5132ZM28.9009 15.5132H29.3786V20.5177H28.9009V15.5132Z" fill="#34BBDE"/>
<path fill-rule="evenodd" clip-rule="evenodd" d="M30.8086 15.0127H36.8545V21.0179H30.8086V15.0127ZM31.3125 15.5132H31.7892V20.5177H31.3125V15.5132ZM32.2093 15.5132H32.7055V20.5177H32.2093V15.5132ZM33.1254 15.5132H33.6216V20.5177H33.1254V15.5132ZM34.0415 15.5132H34.5377V20.5177H34.0415V15.5132ZM34.9574 15.5132H35.4539V20.5177H34.9574V15.5132ZM35.8735 15.5132H36.3506V20.5177H35.8735V15.5132Z" fill="#23A3C2"/>
<path fill-rule="evenodd" clip-rule="evenodd" d="M30.8086 8.08301H36.8545V14.0878H30.8086V8.08301ZM31.3125 8.58349H31.7892V13.5875H31.3125V8.58349ZM32.2093 8.58349H32.7055V13.5875H32.2093V8.58349ZM33.1254 8.58349H33.6216V13.5875H33.1254V8.58349ZM34.0415 8.58349H34.5377V13.5875H34.0415V8.58349ZM34.9574 8.58349H35.4539V13.5875H34.9574V8.58349ZM35.8735 8.58349H36.3506V13.5875H35.8735V8.58349Z" fill="#34BBDE"/>
<path fill-rule="evenodd" clip-rule="evenodd" d="M37.7852 15.0127H43.8309V21.0179H37.7852V15.0127ZM38.289 15.5132H38.766V20.5177H38.289V15.5132ZM39.186 15.5132H39.6822V20.5177H39.186V15.5132ZM40.1018 15.5132H40.598V20.5177H40.1018V15.5132ZM41.018 15.5132H41.5142V20.5177H41.018V15.5132ZM41.9341 15.5132H42.4303V20.5177H41.9341V15.5132ZM42.8501 15.5132H43.3273V20.5177H42.8501V15.5132Z" fill="#34BBDE"/>
<path fill-rule="evenodd" clip-rule="evenodd" d="M37.7852 8.08301H43.8309V14.0878H37.7852V8.08301ZM38.289 8.58349H38.766V13.5875H38.289V8.58349ZM39.186 8.58349H39.6822V13.5875H39.186V8.58349ZM40.1018 8.58349H40.598V13.5875H40.1018V8.58349ZM41.018 8.58349H41.5142V13.5875H41.018V8.58349ZM41.9341 8.58349H42.4303V13.5875H41.9341V8.58349ZM42.8501 8.58349H43.3273V13.5875H42.8501V8.58349Z" fill="#23A3C2"/>
<path fill-rule="evenodd" clip-rule="evenodd" d="M37.7852 1.1543H43.8309V7.15946H37.7852V1.1543ZM38.289 1.65446H38.766V6.65898H38.289V1.65446ZM39.186 1.65446H39.6822V6.65898H39.186V1.65446ZM40.1018 1.65446H40.598V6.65898H40.1018V1.65446ZM41.018 1.65446H41.5142V6.65898H41.018V1.65446ZM41.9341 1.65446H42.4303V6.65898H41.9341V1.65446ZM42.8501 1.65446H43.3273V6.65898H42.8501V1.65446Z" fill="#34BBDE"/>
<path fill-rule="evenodd" clip-rule="evenodd" d="M44.7617 15.0127H50.8076V21.0179H44.7617V15.0127ZM45.2653 15.5132H45.7427V20.5177H45.2653V15.5132ZM46.1622 15.5132H46.6584V20.5177H46.1622V15.5132ZM47.0785 15.5132H47.5747V20.5177H47.0785V15.5132ZM47.9943 15.5132H48.4905V20.5177H47.9943V15.5132ZM48.9107 15.5132H49.4067V20.5177H48.9107V15.5132ZM49.8266 15.5132H50.3037V20.5177H49.8266V15.5132Z" fill="#23A3C2"/>
<path fill-rule="evenodd" clip-rule="evenodd" d="M29.5 30.7529C30.421 30.7529 31.1677 31.4949 31.1677 32.4097C31.1677 33.3245 30.421 34.0661 29.5 34.0661C28.5789 34.0661 27.832 33.3245 27.832 32.4097C27.832 31.4949 28.5789 30.7529 29.5 30.7529Z" fill="#D3ECEC"/>
<path fill-rule="evenodd" clip-rule="evenodd" d="M29.5033 31.2236C29.6559 31.2236 29.8014 31.2522 29.9357 31.304C29.7902 31.3875 29.6916 31.5441 29.6916 31.7233C29.6916 31.9907 29.9099 32.2072 30.1792 32.2072C30.3636 32.2072 30.5239 32.1055 30.6068 31.9552C30.6652 32.0953 30.6978 32.2491 30.6978 32.4104C30.6978 33.0656 30.163 33.5967 29.5033 33.5967C28.8437 33.5967 28.3086 33.0656 28.3086 32.4104C28.3086 31.755 28.8437 31.2236 29.5033 31.2236Z" fill="#364548"/>
<path fill-rule="evenodd" clip-rule="evenodd" d="M0 27.3209H77.5875C75.8981 26.8952 72.2423 26.3202 72.8452 24.1211C69.7734 27.6517 62.3653 26.598 60.4957 24.8571C58.4137 27.8564 46.2933 26.7163 45.448 24.3798C42.8379 27.4223 34.75 27.4223 32.1398 24.3798C31.2941 26.7163 19.174 27.8564 17.0918 24.8571C15.2222 26.598 7.81467 27.6517 4.74256 24.1211C5.34544 26.3202 1.68972 26.8952 0 27.3209Z" fill="#364548"/>
<path fill-rule="evenodd" clip-rule="evenodd" d="M33.9359 42.6917C29.8054 40.7448 27.5381 38.0983 26.2766 35.209C24.7424 35.6441 22.898 35.9221 20.755 36.0415C19.9478 36.0865 19.0986 36.1095 18.2074 36.1095C17.18 36.1095 16.0974 36.0793 14.9609 36.0194C18.7488 39.7796 23.4089 42.6747 32.0372 42.7276C32.6742 42.7276 33.3067 42.7153 33.9359 42.6917Z" fill="#BDD9D7"/>
<path fill-rule="evenodd" clip-rule="evenodd" d="M27.8098 37.8753C27.2383 37.1048 26.6839 36.1364 26.2765 35.209C24.742 35.6442 22.8972 35.9224 20.7539 36.0418C22.226 36.8356 24.3315 37.571 27.8098 37.8753Z" fill="#D3ECEC"/>
</svg>
