<svg width="60" height="60" viewBox="0 0 60 60" fill="none" xmlns="http://www.w3.org/2000/svg">
<path d="M47.3984 30.5H45.1984C45.1984 30.2 45.2984 29.8 45.2984 29.4C45.2984 24.7 41.4984 21 36.8984 21C35.7984 21 34.6984 21.2 33.6984 21.6C31.9984 18.1 28.3984 15.7 24.2984 15.7C18.4984 15.7 13.7984 20.4 13.7984 26.2C13.7984 27.7 14.0984 29.1 14.6984 30.4H11.6984C8.79844 30.4 6.39844 32.8 6.39844 35.7C6.39844 38.6 8.79844 41 11.6984 41H47.4984C50.3984 41 52.7984 38.6 52.7984 35.7C52.7984 32.8 50.2984 30.5 47.3984 30.5Z" fill="#D2D9DC"/>
<path d="M51.5992 17.9C55.6861 17.9 58.9992 14.5869 58.9992 10.5C58.9992 6.41307 55.6861 3.09998 51.5992 3.09998C47.5123 3.09998 44.1992 6.41307 44.1992 10.5C44.1992 14.5869 47.5123 17.9 51.5992 17.9Z" fill="#0054A6"/>
<path d="M51.5984 13.7C53.3657 13.7 54.7984 12.2673 54.7984 10.5C54.7984 8.73268 53.3657 7.29999 51.5984 7.29999C49.8311 7.29999 48.3984 8.73268 48.3984 10.5C48.3984 12.2673 49.8311 13.7 51.5984 13.7Z" fill="#FED2A4"/>
<path d="M55.6016 16.7C54.4016 17.5 53.1016 17.9 51.6016 17.9C50.1016 17.9 48.7016 17.5 47.6016 16.7C48.1016 15 49.7016 13.7 51.6016 13.7C53.5016 13.7 55.1016 15 55.6016 16.7Z" fill="#002548"/>
<path d="M7.4 15.8C11.4869 15.8 14.8 12.4869 14.8 8.4C14.8 4.31309 11.4869 1 7.4 1C3.31309 1 0 4.31309 0 8.4C0 12.4869 3.31309 15.8 7.4 15.8Z" fill="#0054A6"/>
<path d="M7.39922 11.6C9.16653 11.6 10.5992 10.1673 10.5992 8.40001C10.5992 6.6327 9.16653 5.20001 7.39922 5.20001C5.63191 5.20001 4.19922 6.6327 4.19922 8.40001C4.19922 10.1673 5.63191 11.6 7.39922 11.6Z" fill="#FED2A4"/>
<path d="M11.3984 14.6C10.1984 15.4 8.89844 15.8 7.39844 15.8C5.89844 15.8 4.49844 15.4 3.39844 14.6C3.89844 12.9 5.49844 11.6 7.39844 11.6C9.29844 11.6 10.8984 12.8 11.3984 14.6Z" fill="#002548"/>
<path d="M58.8984 53.7H53.5984C52.9984 53.7 52.4984 53.2 52.4984 52.6C52.4984 52 52.9984 51.5 53.5984 51.5H57.7984V36.8H52.4984C51.8984 36.8 51.3984 36.3 51.3984 35.7C51.3984 35.1 51.8984 34.6 52.4984 34.6H58.7984C59.3984 34.6 59.8984 35.1 59.8984 35.7V52.5C59.9984 53.2 59.4984 53.7 58.8984 53.7Z" fill="#002548"/>
<path d="M18.9008 25.3H7.40078C6.80078 25.3 6.30078 24.8 6.30078 24.2V18.9C6.30078 18.3 6.80078 17.8 7.40078 17.8C8.00078 17.8 8.50078 18.3 8.50078 18.9V23.1H19.0008C19.6008 23.1 20.1008 23.6 20.1008 24.2C20.0008 24.8 19.5008 25.3 18.9008 25.3Z" fill="#002548"/>
<path d="M35.7992 22.1C35.1992 22.1 34.6992 21.6 34.6992 21V10.5C34.6992 9.90002 35.1992 9.40002 35.7992 9.40002H41.0992C41.6992 9.40002 42.1992 9.90002 42.1992 10.5C42.1992 11.1 41.6992 11.6 41.0992 11.6H36.8992V21.1C36.7992 21.6 36.3992 22.1 35.7992 22.1Z" fill="#002548"/>
<path d="M7.40078 20C8.56058 20 9.50078 19.0598 9.50078 17.9C9.50078 16.7402 8.56058 15.8 7.40078 15.8C6.24098 15.8 5.30078 16.7402 5.30078 17.9C5.30078 19.0598 6.24098 20 7.40078 20Z" fill="#0054A6"/>
<path d="M52.6 54.7C53.7598 54.7 54.7 53.7598 54.7 52.6C54.7 51.4402 53.7598 50.5 52.6 50.5C51.4402 50.5 50.5 51.4402 50.5 52.6C50.5 53.7598 51.4402 54.7 52.6 54.7Z" fill="#0054A6"/>
<path d="M42.1 12.6C43.2598 12.6 44.2 11.6598 44.2 10.5C44.2 9.34023 43.2598 8.40002 42.1 8.40002C40.9402 8.40002 40 9.34023 40 10.5C40 11.6598 40.9402 12.6 42.1 12.6Z" fill="#0054A6"/>
<path d="M52.6 37.9C53.7598 37.9 54.7 36.9598 54.7 35.8C54.7 34.6402 53.7598 33.7 52.6 33.7C51.4402 33.7 50.5 34.6402 50.5 35.8C50.5 36.9598 51.4402 37.9 52.6 37.9Z" fill="#0054A6"/>
<path d="M35.7992 23.2C36.959 23.2 37.8992 22.2598 37.8992 21.1C37.8992 19.9402 36.959 19 35.7992 19C34.6394 19 33.6992 19.9402 33.6992 21.1C33.6992 22.2598 34.6394 23.2 35.7992 23.2Z" fill="#0054A6"/>
<path d="M19.9984 26.3C21.1582 26.3 22.0984 25.3598 22.0984 24.2C22.0984 23.0402 21.1582 22.1 19.9984 22.1C18.8386 22.1 17.8984 23.0402 17.8984 24.2C17.8984 25.3598 18.8386 26.3 19.9984 26.3Z" fill="#0054A6"/>
<path d="M6.29922 56.8C5.69922 56.8 5.19922 56.3 5.19922 55.7V36.8C5.19922 36.2 5.69922 35.7 6.29922 35.7C6.89922 35.7 7.39922 36.2 7.39922 36.8V55.7C7.39922 56.4 6.89922 56.8 6.29922 56.8Z" fill="#002548"/>
<path d="M6.29922 37.9C7.45902 37.9 8.39922 36.9598 8.39922 35.8C8.39922 34.6402 7.45902 33.7 6.29922 33.7C5.13942 33.7 4.19922 34.6402 4.19922 35.8C4.19922 36.9598 5.13942 37.9 6.29922 37.9Z" fill="#0054A6"/>
<path d="M6.29922 58.9C7.45902 58.9 8.39922 57.9598 8.39922 56.8C8.39922 55.6402 7.45902 54.7 6.29922 54.7C5.13942 54.7 4.19922 55.6402 4.19922 56.8C4.19922 57.9598 5.13942 58.9 6.29922 58.9Z" fill="#0054A6"/>
<path d="M43.8 39.1C43.2 39.1 42.7 38.7 42.5 38.2C42.5 38.1 42.4 38 42.4 38C42.4 37.9 42.3 37.8 42.3 37.7C42.2 37.5 42.2 37.4 42.1 37.2C42 37 41.9 36.8 41.8 36.6C41.7 36.5 41.7 36.3 41.7 36.1C41.7 35.9 41.7 35.6 41.8 35.4C41.9 35.2 42 35.1 42.1 34.9L42.2 34.8C42.8 34.2 42.8 33.3 42.2 32.8L40 30.6C39.4 30 38.5 30 38 30.6L37.9 30.7C37.6 31 37.2 31.2 36.7 31.1C36.6 31.1 36.6 31.1 36.5 31.1C36.4 31.1 36.3 31 36.2 31C35.8 30.8 35.4 30.6 35 30.5C34.9 30.5 34.9 30.4 34.8 30.4C34.7 30.4 34.6 30.3 34.5 30.3C33.9 30.1 33.6 29.6 33.6 29C33.6 28.2 33 27.6 32.2 27.6H28.8C28 27.6 27.4 28.2 27.4 29C27.4 29.6 27 30.1 26.5 30.3C26.4 30.3 26.3 30.4 26.3 30.4C26.2 30.4 26.1 30.5 26 30.5C25.8 30.6 25.7 30.6 25.5 30.7C25.3 30.8 25.1 30.9 24.9 31C24.6 31.1 24.3 31.2 24 31.1C23.8 31.1 23.6 31 23.5 30.9C23.4 30.8 23.3 30.8 23.3 30.7L23.2 30.6C22.6 30 21.7 30 21.2 30.6L19 32.8C18.4 33.4 18.4 34.3 19 34.8L19.1 34.9C19.5 35.3 19.7 36 19.4 36.5C19.1 37 18.9 37.6 18.7 38.1C18.5 38.7 18 39 17.4 39C16.6 39 16 39.6 16 40.4V44C16 44.8 16.6 45.4 17.4 45.4C18 45.4 18.5 45.8 18.7 46.3C18.9 46.9 19.1 47.4 19.4 47.9C19.7 48.4 19.5 49.1 19.1 49.5L19 49.6C18.4 50.2 18.4 51.1 19 51.6L21.2 53.8C21.8 54.4 22.7 54.4 23.2 53.8L23.3 53.7C23.7 53.3 24.4 53.1 24.9 53.4C25.4 53.7 26 53.9 26.5 54.1C26.7 54.2 26.9 54.3 27 54.5C27.1 54.6 27.2 54.7 27.2 54.8C27.3 55 27.3 55.2 27.3 55.4C27.3 56.2 27.9 56.8 28.7 56.8H32.1C32.9 56.8 33.5 56.2 33.5 55.4C33.5 54.8 33.9 54.3 34.4 54.1C35 53.9 35.5 53.7 36 53.4C36.1 53.3 36.2 53.3 36.3 53.3C36.4 53.3 36.4 53.3 36.5 53.3C36.9 53.2 37.4 53.4 37.7 53.7L37.8 53.8C38.4 54.4 39.3 54.4 39.8 53.8L42 51.6C42.6 51 42.6 50.1 42 49.6C41.9 49.5 41.8 49.3 41.7 49.1C41.6 48.9 41.6 48.6 41.6 48.4C41.6 48.2 41.7 48.1 41.7 47.9C41.8 47.7 41.9 47.5 42 47.3C42.1 47.1 42.2 46.9 42.2 46.7V46.6C42.2 46.5 42.3 46.4 42.3 46.3C42.5 45.7 43 45.4 43.6 45.4C44.4 45.4 45 44.8 45 44V40.6C45.2 39.8 44.6 39.1 43.8 39.1ZM35.7 47.5C34.4 48.8 32.5 49.7 30.5 49.7C28.5 49.7 26.6 48.9 25.3 47.5C24 46.2 23.1 44.3 23.1 42.3C23.1 40.3 23.9 38.4 25.3 37.1C26.6 35.8 28.5 34.9 30.5 34.9C32.5 34.9 34.4 35.7 35.7 37.1C37 38.4 37.9 40.3 37.9 42.3C37.9 44.3 37 46.2 35.7 47.5Z" fill="#839299"/>
</svg>
