<svg width="497" height="376" viewBox="0 0 497 376" fill="none" xmlns="http://www.w3.org/2000/svg">
<path d="M401.132 208.902C404.618 129.507 337.938 62.0941 252.199 58.33C166.459 54.5659 94.1283 115.876 90.6428 195.271C87.1572 274.665 153.837 342.078 239.576 345.842C325.315 349.606 397.646 288.296 401.132 208.902Z" fill="#0054A6"/>
<path opacity="0.19" d="M286.5 202.1C286.5 228 284.7 254 280.1 279.5C278.9 285.9 277.6 292.2 276 298.5C274.4 304.8 272.5 311 270.3 317.1C268 323.2 265.4 329.2 261.8 334.6C260 337.3 257.9 339.9 255.4 342.1C254.1 343.2 252.7 344.1 251.2 344.8C249.7 345.5 248 345.9 246.3 346C244.6 346 242.9 345.7 241.4 345.1C239.8 344.5 238.4 343.6 237.1 342.5C234.5 340.4 232.4 337.8 230.6 335.2C226.9 329.8 224.3 323.8 221.9 317.7C219.6 311.6 217.7 305.4 216.1 299.1C214.5 292.8 213.1 286.5 212 280.1C209.7 267.3 208.1 254.5 207 241.5C205.9 228.6 205.4 215.6 205.3 202.7C205.3 196.2 205.4 189.7 205.7 183.3C205.9 176.8 206.3 170.4 206.8 163.9C207.8 151 209.2 138.1 211.3 125.3C212.4 118.9 213.6 112.5 215.1 106.2C216.6 99.9001 218.3 93.6001 220.5 87.5001C221.6 84.4001 222.8 81.4001 224.1 78.5001C225.5 75.5001 227 72.7001 228.8 69.9001C230.6 67.2001 232.6 64.6001 235.2 62.5001C236.5 61.5001 237.9 60.6001 239.4 60.0001C240.9 59.4001 242.6 59.1001 244.3 59.1001C246 59.1001 247.6 59.6001 249.1 60.2001C250.6 60.9001 252 61.8001 253.3 62.8001C255.9 64.9001 258 67.4001 259.8 70.1001C263.5 75.5001 266.3 81.4001 268.8 87.4001C271.2 93.4001 273.2 99.6001 274.9 105.9C276.6 112.2 278.1 118.5 279.4 124.8C284.4 150.2 286.4 176.2 286.5 202.1ZM284.6 202.1C284.6 189.2 284.1 176.3 283.1 163.4C282 150.5 280.4 137.7 278.1 125C276.9 118.7 275.5 112.4 273.9 106.1C272.2 99.9001 270.3 93.7001 268 87.7001C265.7 81.7001 262.9 75.8001 259.3 70.5001C257.5 67.9001 255.4 65.4001 253 63.3001C251.8 62.3001 250.4 61.4001 249 60.7001C247.6 60.1001 246 59.6001 244.4 59.6001C242.8 59.6001 241.2 59.9001 239.8 60.5001C238.3 61.1001 237 62.0001 235.8 63.0001C233.3 65.0001 231.4 67.6001 229.6 70.3001C227.9 73.0001 226.4 75.9001 225.1 78.8001C223.8 81.7001 222.6 84.8001 221.6 87.8001C219.5 93.9001 217.8 100.1 216.4 106.4C215 112.7 213.8 119 212.8 125.4C210.8 138.2 209.5 151 208.7 163.9C207.9 176.8 207.6 189.7 207.6 202.6C207.6 215.5 208 228.4 209 241.3C210 254.2 211.4 267 213.7 279.7C214.8 286.1 216.1 292.4 217.7 298.6C219.3 304.9 221.1 311.1 223.3 317.1C225.5 323.1 228.2 329.1 231.7 334.4C233.5 337 235.5 339.6 238 341.5C239.2 342.5 240.6 343.3 242 343.9C243.4 344.5 245 344.8 246.5 344.8C248 344.8 249.6 344.4 251 343.7C252.4 343 253.7 342.1 254.9 341.1C257.3 339 259.3 336.5 261 333.8C264.5 328.4 267 322.5 269.3 316.4C271.5 310.3 273.3 304.1 274.8 297.9C276.3 291.6 277.6 285.3 278.7 279C280.9 266.3 282.4 253.4 283.3 240.6C284.2 227.9 284.6 215 284.6 202.1Z" fill="#F9FAFB"/>
<path opacity="0.19" d="M356.1 202C356 218.7 353.9 235.4 349.4 251.5C344.9 267.6 338 283 328.7 296.9C324 303.8 318.8 310.4 312.9 316.3C307 322.2 300.5 327.5 293.4 332C286.3 336.4 278.7 340 270.7 342.4C262.7 344.8 254.4 346.1 246 346.1C237.6 346.1 229.3 344.8 221.3 342.4C213.3 340 205.6 336.5 198.6 332C191.5 327.6 185 322.2 179.1 316.3C173.2 310.4 167.9 303.9 163.3 296.9C154 283 147.1 267.6 142.5 251.5C140.3 243.4 138.6 235.2 137.5 227C136.4 218.7 135.8 210.4 135.8 202C135.8 193.6 136.4 185.3 137.5 177C138.6 168.7 140.3 160.5 142.5 152.5C147.1 136.4 154 121 163.3 107.1C168 100.2 173.3 93.7 179.2 87.8C185.1 81.9 191.6 76.5999 198.7 72.1999C205.8 67.7999 213.4 64.3 221.4 61.9C229.4 59.5 237.7 58.2 246.1 58.2C254.4 58.2 262.8 59.5 270.8 61.9C278.8 64.3 286.4 67.8 293.5 72.3C300.6 76.7 307.1 82 313 87.9C318.9 93.8 324.2 100.3 328.8 107.3C338.1 121.2 345 136.6 349.5 152.7C353.9 168.6 356 185.3 356.1 202ZM353.9 202C353.9 185.5 351.8 169 347.5 153C343.1 137.1 336.5 121.7 327.4 107.9C322.9 101 317.7 94.5 311.9 88.5999C306.1 82.6999 299.7 77.4 292.8 72.9C285.8 68.5 278.3 64.9 270.4 62.5C262.5 60.1 254.2 58.7999 246 58.7999C237.7 58.7999 229.5 60.1 221.6 62.5C213.7 64.9 206.2 68.5 199.2 72.9C192.2 77.3 185.9 82.6999 180.1 88.5999C174.3 94.5 169.2 101 164.7 107.9C155.6 121.7 149.1 137.1 144.7 153C142.5 161 141 169.1 139.9 177.3C138.8 185.5 138.3 193.7 138.3 202C138.3 210.2 138.9 218.5 139.9 226.7C141 234.9 142.5 243 144.7 250.9C149.1 266.8 155.7 282.1 164.7 295.9C169.2 302.8 174.4 309.3 180.1 315.2C185.9 321.1 192.2 326.4 199.2 330.9C206.2 335.3 213.7 338.8 221.6 341.2C229.5 343.6 237.7 344.9 246 344.9C254.3 344.9 262.5 343.6 270.4 341.2C278.3 338.8 285.8 335.3 292.8 330.9C299.8 326.5 306.1 321.1 311.9 315.2C317.7 309.3 322.8 302.8 327.4 295.9C336.5 282.1 343.1 266.8 347.5 250.8C351.8 235 353.9 218.5 353.9 202Z" fill="#F9FAFB"/>
<path opacity="0.19" d="M103.8 145.5L139.2 145.2L174.6 145L245.5 144.9L316.4 145L351.8 145.2L387.2 145.5C387.3 145.5 387.3 145.5 387.3 145.6C387.3 145.7 387.3 145.7 387.2 145.7L351.8 146L316.4 146.2L245.5 146.3L174.6 146.2L139.2 146L103.8 145.7C103.7 145.7 103.6 145.6 103.6 145.6C103.7 145.6 103.7 145.5 103.8 145.5Z" fill="#F9FAFB"/>
<path opacity="0.19" d="M148.1 89.9C156.2 89.8 164.3 89.7 172.5 89.6L196.9 89.4C205 89.3 213.1 89.3 221.3 89.3H245.7L294.4 89.4L318.8 89.6C326.9 89.7 335 89.8 343.2 89.9C343.3 89.9 343.3 89.9 343.3 90C343.3 90.1 343.3 90.1 343.2 90.1C335.1 90.2 327 90.3 318.8 90.4L294.4 90.6L245.7 90.7H221.3C213.2 90.7 205.1 90.7 196.9 90.6L172.5 90.4C164.4 90.3 156.3 90.3 148.1 90.1C148 90.1 148 90 148 90C147.9 90 148 89.9 148.1 89.9Z" fill="#F9FAFB"/>
<path opacity="0.19" d="M90.9998 201.1L129.6 200.8L168.2 200.6L245.5 200.5L322.8 200.6L361.4 200.8L400 201.1C400.1 201.1 400.1 201.1 400.1 201.2C400.1 201.3 400.1 201.3 400 201.3L361.4 201.6L322.8 201.8L245.5 201.9L168.2 201.8L129.6 201.6L90.9998 201.4C90.8998 201.4 90.7998 201.3 90.7998 201.3C90.8998 201.2 90.8998 201.1 90.9998 201.1Z" fill="#F9FAFB"/>
<path opacity="0.19" d="M102.7 256.8L138.4 256.5L174.1 256.3L245.5 256.2L316.9 256.3L352.6 256.5L388.3 256.8C388.4 256.8 388.4 256.8 388.4 256.9C388.4 257 388.4 257 388.3 257L352.6 257.3L316.9 257.5L245.5 257.6L174.1 257.5L138.4 257.3L102.7 257C102.6 257 102.5 256.9 102.5 256.9C102.5 256.8 102.6 256.8 102.7 256.8Z" fill="#F9FAFB"/>
<path opacity="0.19" d="M346.6 310.7H154C153.7 310.7 153.5 310.5 153.5 310.2C153.5 309.9 153.7 309.7 154 309.7H346.7C347 309.7 347.2 309.9 347.2 310.2C347.1 310.5 346.9 310.7 346.6 310.7Z" fill="#F9FAFB"/>
<path d="M435.4 253.8L407.2 324.7C405.8 328.3 402 330.5 398.2 329.9L324.3 324.4L350.9 249C351.6 247.1 353.4 245.9 355.4 246C368.4 246.3 415.6 247.5 432.5 249C434.8 249.2 436.3 251.6 435.4 253.8Z" fill="#002548"/>
<path d="M400.7 326.7L428.9 255.2C429.5 253.8 428.4 252.2 426.9 252.2L357.3 249.6C355.5 249.5 353.9 250.6 353.2 252.3L327.7 322L400.7 326.7Z" fill="#D2D9DC"/>
<path d="M265.4 327.6C265.4 328.9 266.5 330 267.8 330H398.8C400.8 330 402.4 328.4 402.4 326.4L403.9 324.6L269.2 323.7C267.1 323.8 265.4 325.5 265.4 327.6Z" fill="#002548"/>
<path d="M55.9999 253.8L84.1999 324.7C85.5999 328.3 89.3999 330.5 93.1999 329.9L167.1 324.4L140.5 249C139.8 247.1 138 245.9 136 246C123 246.3 75.7999 247.5 58.8999 249C56.4999 249.2 55.0999 251.6 55.9999 253.8Z" fill="#002548"/>
<path d="M90.6998 326.7L62.4998 255.2C61.8998 253.8 62.9998 252.2 64.4998 252.2L134.1 249.6C135.9 249.5 137.5 250.6 138.2 252.3L163.7 322L90.6998 326.7Z" fill="#D2D9DC"/>
<path d="M226 327.6C226 328.9 224.9 330 223.6 330H92.6C90.6 330 89 328.4 89 326.4L87.5 324.6L222.2 323.7C224.3 323.8 226 325.5 226 327.6Z" fill="#002548"/>
<path d="M55.9999 112.9L84.1999 183.8C85.5999 187.4 89.3999 189.6 93.1999 189L167.1 183.5L140.5 108.1C139.8 106.2 138 105 136 105.1C123 105.4 75.7999 106.6 58.8999 108.1C56.4999 108.3 55.0999 110.7 55.9999 112.9Z" fill="#002548"/>
<path d="M90.6998 185.7L62.4998 114.2C61.8998 112.8 62.9998 111.2 64.4998 111.2L134.1 108.6C135.9 108.5 137.5 109.6 138.2 111.3L163.7 181L90.6998 185.7Z" fill="#D2D9DC"/>
<path d="M226 186.7C226 188 224.9 189.1 223.6 189.1H92.6C90.6 189.1 89 187.5 89 185.5L87.5 183.7L222.2 182.8C224.3 182.8 226 184.5 226 186.7Z" fill="#002548"/>
<path d="M205.2 292.2H201.5C200.8 292.2 200.3 291.9 200.3 291.5L199.2 266.3C199.2 265.9 199.7 265.6 200.4 265.6H205.2C205.9 265.6 206.4 265.9 206.4 266.3V291.5C206.4 291.9 205.8 292.2 205.2 292.2Z" fill="#54CC5A"/>
<path d="M198.9 263.5V263.8C198.9 264.1 199.4 264.4 199.9 264.4L205.2 264.6C205.8 264.6 206.3 264.3 206.3 264V263.5C206.3 263.2 205.9 262.9 205.3 262.9C204 262.9 201.6 262.8 199.8 262.9C199.3 262.9 198.9 263.2 198.9 263.5Z" fill="#54CC5A"/>
<path d="M195 292.2H191.3C190.6 292.2 190.1 291.9 190.1 291.5L189 263.4C189 263 189.5 262.7 190.2 262.7H195C195.7 262.7 196.2 263 196.2 263.4V291.5C196.2 291.9 195.7 292.2 195 292.2Z" fill="#54CC5A"/>
<path d="M188.8 260.7V261C188.8 261.3 189.3 261.6 189.8 261.6L195.1 261.8C195.7 261.8 196.2 261.5 196.2 261.2V260.7C196.2 260.4 195.8 260.1 195.2 260.1C193.9 260.1 191.5 260 189.7 260.1C189.2 260 188.7 260.3 188.8 260.7Z" fill="#54CC5A"/>
<path d="M215.3 292.2H211.6C210.9 292.2 210.4 291.9 210.4 291.5L210 273.6C210 273.2 210.5 272.9 211.2 272.9H216C216.7 272.9 217.2 273.2 217.2 273.6L216.5 291.5C216.5 291.9 216 292.2 215.3 292.2Z" fill="#54CC5A"/>
<path d="M209.8 270.8V271.1C209.8 271.4 210.3 271.7 210.8 271.7L216.1 271.9C216.7 271.9 217.2 271.6 217.2 271.3V270.8C217.2 270.5 216.8 270.2 216.2 270.2C214.9 270.2 212.5 270.1 210.7 270.2C210.2 270.2 209.7 270.5 209.8 270.8Z" fill="#54CC5A"/>
<path d="M175.4 292.2H171.7C171 292.2 170.5 291.9 170.5 291.5L169.4 266.3C169.4 265.9 169.9 265.6 170.6 265.6H175.4C176.1 265.6 176.6 265.9 176.6 266.3V291.5C176.6 291.9 176.1 292.2 175.4 292.2Z" fill="#54CC5A"/>
<path d="M169.2 263.5V263.8C169.2 264.1 169.7 264.4 170.2 264.4L175.5 264.6C176.1 264.6 176.6 264.3 176.6 264V263.5C176.6 263.2 176.2 262.9 175.6 262.9C174.3 262.9 171.9 262.8 170.1 262.9C169.6 262.9 169.1 263.2 169.2 263.5Z" fill="#54CC5A"/>
<path d="M185.6 292.2H181.9C181.2 292.2 180.7 291.9 180.7 291.5L180.3 273.6C180.3 273.2 180.8 272.9 181.5 272.9H186.3C187 272.9 187.5 273.2 187.5 273.6L186.8 291.5C186.8 291.9 186.3 292.2 185.6 292.2Z" fill="#54CC5A"/>
<path d="M180 270.8V271.1C180 271.4 180.5 271.7 181 271.7L186.3 271.9C186.9 271.9 187.4 271.6 187.4 271.3V270.8C187.4 270.5 187 270.2 186.4 270.2C185.1 270.2 182.7 270.1 180.9 270.2C180.4 270.2 180 270.5 180 270.8Z" fill="#54CC5A"/>
<path d="M310.4 217H306V295.1H310.4V217Z" fill="#D2D9DC"/>
<path d="M317.7 217H313.3V295.1H317.7V217Z" fill="#D2D9DC"/>
<path d="M325.1 217H320.7V295.1H325.1V217Z" fill="#D2D9DC"/>
<path d="M332.5 217H328.1V295.1H332.5V217Z" fill="#D2D9DC"/>
<path d="M339.9 217H335.5V295.1H339.9V217Z" fill="#D2D9DC"/>
<path d="M347.3 217H342.9V295.1H347.3V217Z" fill="#D2D9DC"/>
<path d="M354.7 217H350.3V295.1H354.7V217Z" fill="#D2D9DC"/>
<path d="M310.4 254.2H306V295.1H310.4V254.2Z" fill="#54CC5A"/>
<path d="M317.7 268.2H313.3V295H317.7V268.2Z" fill="#54CC5A"/>
<path d="M325.1 233.5H320.7V295H325.1V233.5Z" fill="#54CC5A"/>
<path d="M332.5 280.2H328.1V295H332.5V280.2Z" fill="#54CC5A"/>
<path d="M339.9 241.7H335.5V295H339.9V241.7Z" fill="#54CC5A"/>
<path d="M347.3 251H342.9V295.1H347.3V251Z" fill="#54CC5A"/>
<path d="M354.7 261H350.3V295H354.7V261Z" fill="#54CC5A"/>
<path d="M126.4 132.7C125.1 126.9 119.9 122.6 113.8 122.6C107.6 122.6 102.5 126.9 101.2 132.7C101 133.6 100.9 134.6 100.9 135.6C100.9 142.8 106.7 148.6 113.9 148.6C121.1 148.6 126.9 142.8 126.9 135.6C126.7 134.5 126.6 133.6 126.4 132.7ZM113.8 142.9C109.7 142.9 106.4 139.6 106.4 135.5C106.4 134.5 106.6 133.5 107 132.6C108.1 129.9 110.7 128.1 113.8 128.1C116.9 128.1 119.5 130 120.6 132.6C121 133.5 121.2 134.4 121.2 135.5C121.1 139.6 117.8 142.9 113.8 142.9Z" fill="#F9FAFB"/>
<path d="M154.5 126.4C152.2 124 148.9 122.6 145.3 122.6C141.7 122.6 138.5 124.1 136.1 126.4C133.8 128.7 132.3 132 132.3 135.5C132.3 142.7 138.1 148.5 145.3 148.5C152.5 148.5 158.2 142.7 158.2 135.5C158.3 131.9 156.9 128.7 154.5 126.4ZM145.4 142.9C141.3 142.9 138 139.6 138 135.5C138 131.4 141.3 128.1 145.4 128.1C149.5 128.1 152.8 131.4 152.8 135.5C152.8 139.6 149.4 142.9 145.4 142.9Z" fill="#F9FAFB"/>
<path d="M176.9 122.6C169.7 122.6 163.9 128.4 163.9 135.6C163.9 137.5 164.3 139.3 165 140.9C167 145.4 171.6 148.6 176.8 148.6C182.1 148.6 186.6 145.5 188.6 140.9C189.3 139.3 189.7 137.5 189.7 135.6C189.9 128.4 184.1 122.6 176.9 122.6ZM176.9 142.9C174.9 142.9 173.1 142.1 171.8 140.8C170.4 139.5 169.6 137.6 169.6 135.5C169.6 131.4 172.9 128.1 177 128.1C181.1 128.1 184.4 131.4 184.4 135.5C184.4 137.6 183.5 139.4 182.2 140.8C180.7 142.1 178.9 142.9 176.9 142.9Z" fill="#F9FAFB"/>
<path d="M369.3 261.3C374.105 261.3 378 257.405 378 252.6C378 247.795 374.105 243.9 369.3 243.9C364.495 243.9 360.6 247.795 360.6 252.6C360.6 257.405 364.495 261.3 369.3 261.3Z" fill="#F9FAFB"/>
<path d="M374.5 250.7C374.8 251.4 374.9 252.1 374.9 252.8C374.9 255.9 372.4 258.4 369.3 258.4C366.2 258.4 363.7 255.9 363.7 252.8C363.7 249.7 366.2 247.2 369.3 247.2C369.4 247.2 369.5 247.2 369.6 247.2V245.8C369.5 245.8 369.4 245.8 369.3 245.8C365.4 245.8 362.3 249 362.3 252.8C362.3 256.7 365.5 259.8 369.3 259.8C373.1 259.8 376.3 256.6 376.3 252.8C376.3 251.8 376.1 250.9 375.8 250.1L374.5 250.7Z" fill="#FFDD33"/>
<path d="M376.5 265H362.2C361.3 265 360.6 265.7 360.6 266.6C360.6 267.5 361.3 268.2 362.2 268.2H376.5C377.4 268.2 378.1 267.5 378.1 266.6C378.1 265.8 377.4 265 376.5 265Z" fill="#839299"/>
<path d="M369.3 233.2C374.105 233.2 378 229.305 378 224.5C378 219.695 374.105 215.8 369.3 215.8C364.495 215.8 360.6 219.695 360.6 224.5C360.6 229.305 364.495 233.2 369.3 233.2Z" fill="#F9FAFB"/>
<path d="M372.2 229.5C371.3 230 370.3 230.4 369.2 230.4C366.1 230.4 363.6 227.9 363.6 224.8C363.6 221.7 366.1 219.2 369.2 219.2C369.3 219.2 369.4 219.2 369.5 219.2V217.8C369.4 217.8 369.3 217.8 369.2 217.8C365.3 217.8 362.2 221 362.2 224.8C362.2 228.6 365.4 231.8 369.2 231.8C370.6 231.8 371.8 231.4 372.9 230.8L372.2 229.5Z" fill="#FFDD33"/>
<path d="M376.5 236.9H362.2C361.3 236.9 360.6 237.6 360.6 238.5C360.6 239.4 361.3 240.1 362.2 240.1H376.5C377.4 240.1 378.1 239.4 378.1 238.5C378.1 237.6 377.4 236.9 376.5 236.9Z" fill="#839299"/>
<path d="M377.92 281.929C378.507 277.16 375.117 272.818 370.348 272.231C365.579 271.644 361.237 275.034 360.65 279.803C360.063 284.571 363.453 288.913 368.222 289.5C372.99 290.088 377.332 286.698 377.92 281.929Z" fill="#F9FAFB"/>
<path d="M374.1 284C373.1 285.5 371.4 286.5 369.5 286.5C366.4 286.5 363.9 284 363.9 280.9C363.9 277.8 366.4 275.3 369.5 275.3C369.6 275.3 369.7 275.3 369.8 275.3V273.9C369.7 273.9 369.6 273.9 369.5 273.9C365.6 273.9 362.5 277.1 362.5 280.9C362.5 284.8 365.7 287.9 369.5 287.9C371.9 287.9 374 286.7 375.3 284.9L374.1 284Z" fill="#FFDD33"/>
<path d="M362.2 296.2H376.5C377.4 296.2 378.1 295.5 378.1 294.6C378.1 293.7 377.4 293 376.5 293H362.2C361.3 293 360.6 293.7 360.6 294.6C360.6 295.5 361.3 296.2 362.2 296.2Z" fill="#839299"/>
<path d="M364.8 209.7L364.7 209.1C364.7 209 364.7 208.9 364.8 208.9C364.9 208.9 365 208.9 365 209L365.1 209.6C365.1 209.7 365.1 209.8 365 209.8C364.9 209.8 364.8 209.8 364.8 209.7Z" fill="#F9FAFB"/>
<path d="M364.2 206.3L364.1 205.7C364.1 205.6 364.1 205.5 364.2 205.5C364.3 205.5 364.4 205.5 364.4 205.6L364.5 206.2C364.5 206.3 364.5 206.4 364.4 206.4C364.3 206.4 364.2 206.4 364.2 206.3Z" fill="#F9FAFB"/>
<path d="M363.1 203L362.9 202.5C362.9 202.4 362.9 202.3 363 202.3C363.1 202.3 363.2 202.3 363.2 202.4L363.4 203C363.4 203.1 363.4 203.2 363.3 203.2C363.3 203.1 363.2 203.1 363.1 203Z" fill="#F9FAFB"/>
<path d="M361.7 199.8L361.4 199.3C361.3 199.2 361.4 199.1 361.5 199C361.6 198.9 361.7 199 361.8 199.1L362.1 199.6C362.2 199.7 362.1 199.8 362 199.9C361.9 199.9 361.8 199.9 361.7 199.8Z" fill="#F9FAFB"/>
<path d="M359.9 196.8L359.6 196.3C359.5 196.2 359.5 196 359.7 196C359.8 195.9 360 195.9 360 196.1L360.3 196.6C360.4 196.7 360.3 196.9 360.2 196.9C360.1 197 360 196.9 359.9 196.8Z" fill="#F9FAFB"/>
<path d="M357.7 194.2L357.3 193.8C357.2 193.7 357.2 193.5 357.3 193.4C357.4 193.3 357.6 193.3 357.7 193.4L358.1 193.8C358.2 193.9 358.2 194.1 358.1 194.2C358 194.3 357.8 194.3 357.7 194.2Z" fill="#F9FAFB"/>
<path d="M355.1 191.9L354.6 191.6C354.5 191.5 354.4 191.3 354.5 191.2C354.6 191.1 354.8 191 354.9 191.1L355.4 191.4C355.5 191.5 355.6 191.7 355.5 191.8C355.4 192 355.2 192 355.1 191.9Z" fill="#F9FAFB"/>
<path d="M352.1 190.1L351.6 189.9C351.4 189.8 351.4 189.6 351.5 189.5C351.6 189.3 351.8 189.3 351.9 189.4L352.4 189.7C352.5 189.8 352.6 190 352.5 190.1C352.5 190.1 352.3 190.2 352.1 190.1Z" fill="#F9FAFB"/>
<path d="M348.9 188.8L348.3 188.6C348.1 188.5 348 188.4 348.1 188.2C348.2 188 348.3 187.9 348.5 188L349.1 188.2C349.3 188.3 349.4 188.4 349.3 188.6C349.3 188.8 349.1 188.9 348.9 188.8Z" fill="#F9FAFB"/>
<path d="M345.6 188.1L345 188C344.8 188 344.7 187.8 344.7 187.6C344.7 187.4 344.9 187.3 345.1 187.3L345.7 187.4C345.9 187.4 346 187.6 346 187.8C345.9 188 345.8 188.1 345.6 188.1Z" fill="#F9FAFB"/>
<path d="M342.1 187.7H341.5C341.3 187.7 341.2 187.5 341.2 187.3C341.2 187.1 341.4 187 341.6 187H342.2C342.4 187 342.5 187.2 342.5 187.4C342.5 187.6 342.3 187.7 342.1 187.7Z" fill="#F9FAFB"/>
<path d="M338.7 187.8H338.1C337.9 187.8 337.7 187.7 337.7 187.5C337.7 187.3 337.8 187.1 338 187.1H338.6C338.8 187.1 339 187.2 339 187.4C339 187.6 338.9 187.8 338.7 187.8Z" fill="#F9FAFB"/>
<path d="M335.2 188.2L334.6 188.3C334.4 188.3 334.2 188.2 334.2 188C334.2 187.8 334.3 187.6 334.5 187.6L335.1 187.5C335.3 187.5 335.5 187.6 335.5 187.8C335.6 188 335.4 188.2 335.2 188.2Z" fill="#F9FAFB"/>
<path d="M331.8 188.9L331.2 189C331 189 330.8 188.9 330.7 188.7C330.7 188.5 330.8 188.3 331 188.2L331.6 188.1C331.8 188.1 332 188.2 332.1 188.4C332.1 188.6 332 188.8 331.8 188.9Z" fill="#F9FAFB"/>
<path d="M328.4 189.8L327.8 190C327.6 190.1 327.4 189.9 327.3 189.7C327.2 189.5 327.4 189.3 327.6 189.2L328.2 189C328.4 188.9 328.6 189.1 328.7 189.3C328.8 189.5 328.7 189.7 328.4 189.8Z" fill="#F9FAFB"/>
<path d="M325.1 190.8L324.6 191C324.4 191.1 324.2 191 324.1 190.8C324 190.6 324.1 190.4 324.3 190.3L324.9 190.1C325.1 190 325.3 190.1 325.4 190.4C325.5 190.5 325.3 190.7 325.1 190.8Z" fill="#F9FAFB"/>
<path d="M321.9 192.1L321.4 192.3C321.2 192.4 320.9 192.3 320.9 192.1C320.8 191.9 320.9 191.6 321.1 191.6L321.6 191.4C321.8 191.3 322.1 191.4 322.1 191.6C322.2 191.7 322.1 192 321.9 192.1Z" fill="#F9FAFB"/>
<path d="M318.7 193.4L318.2 193.6C318 193.7 317.7 193.6 317.6 193.4C317.5 193.2 317.6 192.9 317.8 192.8L318.3 192.6C318.5 192.5 318.8 192.6 318.9 192.8C319 193.1 318.9 193.3 318.7 193.4Z" fill="#F9FAFB"/>
<path d="M315.5 194.9L315 195.1C314.8 195.2 314.5 195.1 314.4 194.9C314.3 194.7 314.4 194.4 314.6 194.3L315.1 194.1C315.3 194 315.6 194.1 315.7 194.3C315.8 194.5 315.7 194.8 315.5 194.9Z" fill="#F9FAFB"/>
<path d="M312.2 196.2L311.7 196.4C311.5 196.5 311.2 196.4 311.1 196.1C311 195.9 311.1 195.6 311.4 195.5L311.9 195.3C312.1 195.2 312.4 195.3 312.5 195.6C312.6 195.9 312.4 196.1 312.2 196.2Z" fill="#F9FAFB"/>
<path d="M308.9 197.4L308.3 197.6C308.1 197.7 307.8 197.6 307.7 197.3C307.6 197.1 307.7 196.8 308 196.7L308.6 196.5C308.8 196.4 309.1 196.5 309.2 196.8C309.3 197.1 309.1 197.3 308.9 197.4Z" fill="#F9FAFB"/>
<path d="M305.6 198.5L305 198.7C304.8 198.8 304.5 198.6 304.4 198.4C304.3 198.2 304.5 197.9 304.7 197.8L305.3 197.6C305.5 197.5 305.8 197.7 305.9 197.9C305.9 198.2 305.8 198.4 305.6 198.5Z" fill="#F9FAFB"/>
<path d="M302.2 199.5L301.6 199.7C301.4 199.8 301.1 199.6 301 199.4C300.9 199.2 301.1 198.9 301.3 198.8L301.9 198.6C302.1 198.5 302.4 198.7 302.5 198.9C302.6 199.2 302.4 199.4 302.2 199.5Z" fill="#F9FAFB"/>
<path d="M298.8 200.4L298.2 200.5C298 200.6 297.7 200.4 297.6 200.2C297.5 200 297.7 199.7 297.9 199.6L298.5 199.5C298.7 199.4 299 199.6 299.1 199.8C299.2 200.1 299 200.4 298.8 200.4Z" fill="#F9FAFB"/>
<path d="M295.4 201.3L294.8 201.4C294.6 201.5 294.3 201.3 294.2 201.1C294.1 200.9 294.3 200.6 294.5 200.5L295.1 200.4C295.3 200.3 295.6 200.5 295.7 200.7C295.8 201 295.6 201.2 295.4 201.3Z" fill="#F9FAFB"/>
<path d="M292 202L291.4 202.1C291.1 202.2 290.9 202 290.8 201.7C290.7 201.4 290.9 201.2 291.2 201.1L291.8 201C292.1 200.9 292.3 201.1 292.4 201.4C292.4 201.7 292.2 202 292 202Z" fill="#F9FAFB"/>
<path d="M288.5 202.7L287.9 202.8C287.6 202.8 287.4 202.7 287.3 202.4C287.3 202.1 287.4 201.9 287.7 201.8L288.3 201.7C288.6 201.7 288.8 201.8 288.9 202.1C288.9 202.4 288.8 202.7 288.5 202.7Z" fill="#F9FAFB"/>
<path d="M285.1 203.4L284.5 203.5C284.2 203.5 284 203.4 284 203.1C284 202.8 284.1 202.6 284.4 202.6L285 202.5C285.3 202.5 285.5 202.6 285.5 202.9C285.5 203.1 285.3 203.3 285.1 203.4Z" fill="#F9FAFB"/>
<path d="M281.6 204L281 204.1C280.7 204.1 280.5 204 280.5 203.7C280.5 203.4 280.6 203.2 280.9 203.2L281.5 203.1C281.8 203.1 282 203.2 282 203.5C282.1 203.7 281.9 203.9 281.6 204Z" fill="#F9FAFB"/>
<path d="M278.1 204.5L277.5 204.6C277.2 204.6 277 204.5 277 204.2C277 203.9 277.1 203.7 277.4 203.7L278 203.6C278.3 203.6 278.5 203.7 278.5 204C278.6 204.3 278.4 204.5 278.1 204.5Z" fill="#F9FAFB"/>
<path d="M274.6 205L274 205.1C273.7 205.1 273.5 204.9 273.5 204.7C273.5 204.4 273.7 204.2 273.9 204.2L274.5 204.1C274.8 204.1 275 204.2 275 204.5C275 204.8 274.8 205 274.6 205Z" fill="#F9FAFB"/>
<path d="M271 205.5L270.4 205.6C270.1 205.6 269.9 205.4 269.9 205.2C269.9 204.9 270.1 204.7 270.3 204.7L270.9 204.6C271.2 204.6 271.4 204.8 271.4 205C271.5 205.2 271.3 205.4 271 205.5Z" fill="#F9FAFB"/>
<path d="M267.5 205.9L266.9 206C266.6 206 266.4 205.8 266.4 205.6C266.4 205.3 266.6 205.1 266.8 205.1L267.4 205C267.7 205 267.9 205.2 267.9 205.4C268 205.6 267.8 205.8 267.5 205.9Z" fill="#F9FAFB"/>
<path d="M264 206.2L263.4 206.3C263.1 206.3 262.9 206.1 262.9 205.9C262.9 205.6 263.1 205.4 263.3 205.4L263.9 205.3C264.2 205.3 264.4 205.5 264.4 205.7C264.5 206 264.3 206.2 264 206.2Z" fill="#F9FAFB"/>
<path d="M260.5 206.5H259.9C259.6 206.5 259.4 206.3 259.4 206C259.4 205.7 259.6 205.5 259.9 205.5H260.5C260.8 205.5 261 205.7 261 206C261 206.3 260.8 206.5 260.5 206.5Z" fill="#F9FAFB"/>
<path d="M257 206.8H256.4C256.1 206.8 255.9 206.6 255.9 206.3C255.9 206 256.1 205.8 256.4 205.8H257C257.3 205.8 257.5 206 257.5 206.3C257.5 206.5 257.3 206.7 257 206.8Z" fill="#F9FAFB"/>
<path d="M253.5 207H252.9C252.6 207 252.4 206.8 252.4 206.5C252.4 206.2 252.6 206 252.9 206H253.5C253.8 206 254 206.2 254 206.5C254 206.7 253.8 207 253.5 207Z" fill="#F9FAFB"/>
<path d="M250 207.1H249.4C249.1 207.1 248.9 206.9 248.9 206.6C248.9 206.3 249.1 206.1 249.4 206.1H250C250.3 206.1 250.5 206.3 250.5 206.6C250.5 206.9 250.3 207.1 250 207.1Z" fill="#F9FAFB"/>
<path d="M246.5 207.2H245.9C245.6 207.2 245.4 207 245.4 206.7C245.4 206.4 245.6 206.2 245.9 206.2H246.5C246.8 206.2 247 206.4 247 206.7C247 207 246.8 207.2 246.5 207.2Z" fill="#F9FAFB"/>
<path d="M243 207.3H242.4C242.1 207.3 241.9 207.1 241.9 206.8C241.9 206.5 242.1 206.3 242.4 206.3H243C243.3 206.3 243.5 206.5 243.5 206.8C243.5 207.1 243.3 207.3 243 207.3Z" fill="#F9FAFB"/>
<path d="M239.5 207.3H238.9C238.6 207.3 238.4 207.1 238.4 206.8C238.4 206.5 238.6 206.3 238.9 206.3H239.5C239.8 206.3 240 206.5 240 206.8C240 207.1 239.8 207.3 239.5 207.3Z" fill="#F9FAFB"/>
<path d="M236 207.2H235.4C235.1 207.2 234.9 207 234.9 206.7C234.9 206.4 235.1 206.2 235.4 206.2H236C236.3 206.2 236.5 206.4 236.5 206.7C236.5 207 236.2 207.3 236 207.2Z" fill="#F9FAFB"/>
<path d="M232.5 207.1H231.9C231.6 207.1 231.4 206.9 231.4 206.6C231.4 206.3 231.6 206.1 231.9 206.1H232.5C232.8 206.1 233 206.3 233 206.6C233 206.9 232.7 207.2 232.5 207.1Z" fill="#F9FAFB"/>
<path d="M229 207H228.4C228.1 207 227.9 206.8 227.9 206.5C227.9 206.2 228.1 206 228.4 206H229C229.3 206 229.5 206.2 229.5 206.5C229.5 206.8 229.2 207 229 207Z" fill="#F9FAFB"/>
<path d="M225.5 206.8H224.9C224.6 206.8 224.4 206.6 224.5 206.3C224.5 206 224.7 205.8 225 205.9H225.6C225.9 205.9 226.1 206.1 226 206.4C226 206.6 225.7 206.8 225.5 206.8Z" fill="#F9FAFB"/>
<path d="M222 206.5L221.4 206.4C221.1 206.4 220.9 206.1 221 205.9C221 205.6 221.3 205.4 221.5 205.5H222.1C222.4 205.5 222.6 205.8 222.5 206C222.5 206.3 222.2 206.5 222 206.5Z" fill="#F9FAFB"/>
<path d="M218.5 206.2L217.9 206.1C217.6 206.1 217.4 205.8 217.5 205.6C217.5 205.3 217.8 205.1 218 205.2L218.6 205.3C218.9 205.3 219.1 205.6 219 205.8C219 206 218.7 206.2 218.5 206.2Z" fill="#F9FAFB"/>
<path d="M215 205.8L214.4 205.7C214.1 205.7 214 205.4 214 205.2C214 204.9 214.3 204.8 214.5 204.8L215.1 204.9C215.4 204.9 215.5 205.2 215.5 205.4C215.5 205.6 215.2 205.8 215 205.8Z" fill="#F9FAFB"/>
<path d="M211.5 205.3L210.9 205.2C210.6 205.2 210.5 204.9 210.5 204.7C210.5 204.4 210.8 204.3 211 204.3L211.6 204.4C211.9 204.4 212 204.7 212 204.9C212 205.2 211.7 205.3 211.5 205.3Z" fill="#F9FAFB"/>
<path d="M208 204.8L207.4 204.7C207.1 204.7 207 204.4 207 204.2C207 203.9 207.3 203.8 207.5 203.8L208.1 203.9C208.4 203.9 208.5 204.2 208.5 204.4C208.5 204.6 208.3 204.8 208 204.8Z" fill="#F9FAFB"/>
<path d="M204.6 204.1L204 204C203.7 204 203.6 203.7 203.6 203.5C203.6 203.2 203.9 203.1 204.1 203.1L204.7 203.2C205 203.2 205.1 203.5 205.1 203.7C205.1 204 204.8 204.2 204.6 204.1Z" fill="#F9FAFB"/>
<path d="M201.1 203.4L200.5 203.3C200.3 203.2 200.1 203 200.1 202.7C200.2 202.5 200.4 202.3 200.7 202.3L201.3 202.4C201.5 202.5 201.7 202.7 201.7 203C201.6 203.3 201.4 203.5 201.1 203.4Z" fill="#F9FAFB"/>
<path d="M197.7 202.6L197.1 202.5C196.9 202.4 196.7 202.2 196.8 201.9C196.9 201.6 197.1 201.5 197.4 201.6L198 201.7C198.2 201.8 198.4 202 198.3 202.3C198.2 202.5 197.9 202.7 197.7 202.6Z" fill="#F9FAFB"/>
<path d="M194.3 201.7L193.7 201.5C193.5 201.4 193.3 201.2 193.4 200.9C193.5 200.7 193.7 200.5 194 200.6L194.6 200.8C194.8 200.9 195 201.1 194.9 201.4C194.8 201.6 194.5 201.8 194.3 201.7Z" fill="#F9FAFB"/>
<path d="M190.9 200.7L190.3 200.5C190.1 200.4 189.9 200.2 190 199.9C190.1 199.7 190.3 199.5 190.6 199.6L191.2 199.8C191.4 199.9 191.6 200.1 191.5 200.4C191.4 200.6 191.2 200.8 190.9 200.7Z" fill="#F9FAFB"/>
<path d="M187.6 199.6L187 199.4C186.8 199.3 186.6 199.1 186.7 198.8C186.8 198.6 187 198.4 187.3 198.5L187.8 198.7C188 198.8 188.2 199 188.1 199.3C188.1 199.5 187.8 199.6 187.6 199.6Z" fill="#F9FAFB"/>
<path d="M184.3 198.3L183.8 198.1C183.6 198 183.5 197.7 183.6 197.5C183.7 197.3 184 197.2 184.2 197.3L184.7 197.5C184.9 197.6 185 197.9 184.9 198.1C184.8 198.3 184.5 198.4 184.3 198.3Z" fill="#F9FAFB"/>
<path d="M181.1 196.9L180.6 196.6C180.4 196.5 180.3 196.2 180.4 196C180.5 195.8 180.8 195.7 181 195.8L181.5 196C181.7 196.1 181.8 196.4 181.7 196.6C181.6 196.9 181.3 197 181.1 196.9Z" fill="#F9FAFB"/>
<path d="M177.9 195.3L177.4 195C177.2 194.9 177.1 194.6 177.2 194.4C177.3 194.2 177.6 194.1 177.8 194.2L178.3 194.5C178.5 194.6 178.6 194.9 178.5 195.1C178.4 195.3 178.2 195.4 177.9 195.3Z" fill="#F9FAFB"/>
<path d="M174.9 193.5L174.4 193.2C174.2 193.1 174.1 192.8 174.3 192.6C174.4 192.4 174.7 192.3 174.9 192.5L175.4 192.8C175.6 192.9 175.7 193.2 175.5 193.4C175.3 193.6 175.1 193.6 174.9 193.5Z" fill="#F9FAFB"/>
<path d="M171.9 191.5L171.4 191.2C171.2 191.1 171.2 190.8 171.3 190.6C171.4 190.4 171.7 190.4 171.9 190.5L172.4 190.8C172.6 190.9 172.6 191.2 172.5 191.4C172.4 191.6 172.1 191.7 171.9 191.5Z" fill="#F9FAFB"/>
<path d="M169.2 189.4L168.8 189C168.6 188.9 168.6 188.6 168.8 188.4C168.9 188.2 169.2 188.2 169.4 188.4L169.8 188.8C170 188.9 170 189.2 169.8 189.4C169.6 189.6 169.3 189.5 169.2 189.4Z" fill="#F9FAFB"/>
<path d="M166.6 187L166.2 186.6C166 186.4 166.1 186.2 166.2 186C166.4 185.8 166.6 185.9 166.8 186L167.2 186.4C167.4 186.6 167.4 186.8 167.2 187C167 187.1 166.7 187.1 166.6 187Z" fill="#F9FAFB"/>
<path d="M164.2 184.3L163.8 183.8C163.7 183.6 163.7 183.4 163.9 183.3C164.1 183.2 164.3 183.2 164.4 183.4L164.8 183.8C164.9 184 164.9 184.2 164.7 184.4C164.6 184.5 164.3 184.5 164.2 184.3Z" fill="#F9FAFB"/>
<path d="M162.1 181.5L161.8 181C161.7 180.8 161.7 180.6 161.9 180.5C162.1 180.4 162.3 180.4 162.4 180.6L162.7 181.1C162.8 181.3 162.8 181.5 162.6 181.6C162.5 181.7 162.2 181.6 162.1 181.5Z" fill="#F9FAFB"/>
<path d="M160.4 178.4L160.1 177.9C160 177.7 160.1 177.5 160.3 177.4C160.5 177.3 160.7 177.4 160.8 177.6L161.1 178.1C161.2 178.3 161.1 178.5 160.9 178.6C160.7 178.6 160.5 178.6 160.4 178.4Z" fill="#F9FAFB"/>
<path d="M158.999 175.1L158.799 174.5C158.699 174.3 158.799 174.1 158.999 174C159.199 173.9 159.399 174 159.499 174.2L159.699 174.7C159.799 174.9 159.699 175.1 159.499 175.2C159.299 175.4 159.099 175.3 158.999 175.1Z" fill="#F9FAFB"/>
<path d="M158 171.7L157.9 171.1C157.9 170.9 158 170.7 158.2 170.7C158.4 170.7 158.6 170.8 158.6 171L158.7 171.6C158.7 171.8 158.6 172 158.4 172C158.3 172 158.1 171.9 158 171.7Z" fill="#F9FAFB"/>
<path d="M157.4 168.2L157.3 167.6C157.3 167.4 157.4 167.2 157.6 167.2C157.8 167.2 158 167.3 158 167.5L158.1 168.1C158.1 168.3 158 168.5 157.8 168.5C157.6 168.5 157.4 168.4 157.4 168.2Z" fill="#F9FAFB"/>
<path d="M157.2 164.7V164.1C157.2 163.9 157.4 163.8 157.5 163.8C157.7 163.8 157.8 164 157.8 164.1V164.7C157.8 164.9 157.7 165 157.5 165C157.4 165 157.2 164.9 157.2 164.7Z" fill="#F9FAFB"/>
<path d="M157.3 161.2L157.4 160.6C157.4 160.4 157.6 160.3 157.8 160.3C158 160.3 158.1 160.5 158.1 160.7V161.3C158.1 161.5 157.9 161.6 157.7 161.6C157.5 161.5 157.3 161.3 157.3 161.2Z" fill="#F9FAFB"/>
<path d="M157.8 157.7L157.9 157.1C157.9 156.9 158.1 156.8 158.3 156.8C158.5 156.8 158.6 157 158.6 157.2L158.5 157.8C158.5 158 158.3 158.1 158.1 158.1C157.9 158 157.7 157.8 157.8 157.7Z" fill="#F9FAFB"/>
<path d="M158.5 154.2L158.6 153.6C158.6 153.4 158.8 153.3 159 153.4C159.2 153.4 159.3 153.6 159.2 153.8L159.1 154.4C159.1 154.6 158.9 154.7 158.7 154.6C158.5 154.5 158.4 154.4 158.5 154.2Z" fill="#F9FAFB"/>
<path d="M159.4 150.8L159.6 150.2C159.6 150 159.8 150 160 150C160.2 150 160.2 150.2 160.2 150.4L160 151C160 151.2 159.8 151.2 159.6 151.2C159.4 151.1 159.3 151 159.4 150.8Z" fill="#F9FAFB"/>
<path d="M160.5 147.5L160.7 147C160.8 146.9 160.9 146.8 161 146.8C161.1 146.9 161.2 147 161.2 147.1L161 147.6C160.9 147.7 160.8 147.8 160.6 147.8C160.5 147.8 160.5 147.6 160.5 147.5Z" fill="#F9FAFB"/>
<path d="M161.8 144.2L162 143.7C162.1 143.6 162.2 143.5 162.3 143.6C162.4 143.7 162.5 143.8 162.4 143.9L162.2 144.4C162.1 144.5 162 144.6 161.9 144.5C161.8 144.5 161.7 144.3 161.8 144.2Z" fill="#F9FAFB"/>
<path d="M163.2 141L163.5 140.5C163.6 140.4 163.7 140.3 163.8 140.4C163.9 140.5 164 140.6 163.9 140.7L163.7 141.2C163.6 141.3 163.5 141.4 163.4 141.3C163.2 141.3 163.2 141.1 163.2 141Z" fill="#F9FAFB"/>
<path d="M164.8 137.8L165.1 137.3C165.2 137.2 165.3 137.1 165.4 137.2C165.5 137.3 165.6 137.4 165.5 137.5L165.2 138C165.1 138.1 165 138.2 164.9 138.1C164.8 138.1 164.7 138 164.8 137.8Z" fill="#F9FAFB"/>
<path d="M166.5 134.8L166.8 134.3C166.9 134.2 167 134.2 167.1 134.2C167.2 134.3 167.2 134.4 167.2 134.5L166.9 135C166.8 135.1 166.7 135.1 166.6 135.1C166.5 135 166.4 134.9 166.5 134.8Z" fill="#F9FAFB"/>
<path d="M168.3 131.7L168.6 131.2C168.7 131.1 168.8 131.1 168.9 131.1C169 131.2 169 131.3 169 131.4L168.7 131.9C168.6 132 168.5 132 168.4 132C168.2 132 168.2 131.8 168.3 131.7Z" fill="#F9FAFB"/>
<path d="M170.1 128.8L170.4 128.3C170.5 128.2 170.6 128.2 170.6 128.2C170.7 128.3 170.7 128.4 170.7 128.4L170.4 128.9C170.3 129 170.2 129 170.1 129V128.8Z" fill="#F9FAFB"/>
<path d="M172 125.8L172.3 125.3C172.4 125.2 172.5 125.2 172.5 125.3C172.6 125.4 172.6 125.5 172.5 125.5L172.2 126C172.1 126.1 172 126.1 172 126C172 126 172 125.9 172 125.8Z" fill="#F9FAFB"/>
<path d="M174 123L174.3 122.5C174.3 122.4 174.4 122.4 174.5 122.5C174.6 122.5 174.6 122.6 174.5 122.7L174.2 123.2C174.2 123.3 174.1 123.3 174 123.2C174 123.1 174 123 174 123Z" fill="#F9FAFB"/>
<path d="M176.7 115.1L178.8 120L181.3 116.5L176.7 115.1Z" fill="#839299"/>
<path d="M197.9 103.2L189.3 120.4C189.1 120.7 188.8 121 188.5 121.1C188.1 121.2 187.8 121.2 187.4 121L170.4 111.7C170.2 111.6 170.1 111.4 170.1 111.2C170.1 111 170.3 110.8 170.5 110.7L197.9 103.2Z" fill="#D2D9DC"/>
<path d="M176.7 115.1L197.9 103.2L179.5 116.6L180 118L176.7 115.1Z" fill="#839299"/>
<path d="M181.1 117.5L178.8 120L179.5 116.6L181.1 117.5Z" fill="#5F737C"/>
<path d="M128.1 279.2C138.207 279.2 146.4 271.007 146.4 260.9C146.4 250.793 138.207 242.6 128.1 242.6C117.993 242.6 109.8 250.793 109.8 260.9C109.8 271.007 117.993 279.2 128.1 279.2Z" fill="url(#paint0_linear_5494_16477)"/>
<path d="M128.586 276.804C137.147 276.757 144.049 269.78 144.002 261.22C143.956 252.659 136.978 245.757 128.418 245.804C119.858 245.85 112.956 252.828 113.002 261.388C113.049 269.948 120.026 276.85 128.586 276.804Z" fill="#91B3FA"/>
<path opacity="0.59" d="M133.2 255.4C133.2 258 131.1 260.9 128.4 260.9C125.8 260.9 123.6 258.1 123.6 255.4C123.6 252.7 125.7 250.9 128.4 250.9C131.1 250.9 133.2 252.8 133.2 255.4Z" fill="white"/>
<path opacity="0.59" d="M122.6 271H134.2C135.4 271 136.5 270.2 136.9 269L137.5 267C138 265.6 137.2 264 135.8 263.5C131.1 261.8 126.2 262 121.2 263.7C119.8 264.2 119 265.7 119.4 267.1L119.9 268.9C120.2 270.1 121.3 271 122.6 271Z" fill="white"/>
<path d="M128.1 292.2C110.8 292.2 96.6997 278.1 96.6997 260.8C96.6997 243.5 110.8 229.4 128.1 229.4C145.4 229.4 159.5 243.5 159.5 260.8C159.4 278.2 145.4 292.2 128.1 292.2ZM128.1 239.3C116.2 239.3 106.6 249 106.6 260.8C106.6 272.7 116.3 282.3 128.1 282.3C140 282.3 149.6 272.6 149.6 260.8C149.6 249 140 239.3 128.1 239.3Z" fill="#F9FAFB"/>
<path d="M159.4 258.5L149.6 259.2C149.6 259.7 149.7 260.3 149.7 260.8C149.7 263.4 149.2 265.8 148.4 268.1L157.7 271.4C158.9 268.1 159.6 264.5 159.6 260.8C159.4 260.1 159.4 259.3 159.4 258.5Z" fill="#FFDD33"/>
<path d="M128.1 282.4C116.2 282.4 106.6 272.7 106.6 260.9C106.6 249 116.3 239.4 128.1 239.4C129.9 239.4 131.7 239.6 133.3 240L135.7 230.5C133.3 229.9 130.7 229.6 128.1 229.6C110.8 229.6 96.6997 243.7 96.6997 261C96.6997 278.3 110.8 292.4 128.1 292.4C141.7 292.4 153.2 283.8 157.6 271.7L148.3 268.4C145.3 276.5 137.4 282.4 128.1 282.4Z" fill="#54CC5A"/>
<path d="M149.5 259.3L159.3 258.6C159 254.5 157.9 250.7 156.2 247.2L147.4 251.5C148.6 253.8 149.3 256.5 149.5 259.3Z" fill="#ED1C24"/>
<path d="M141.3 302.4L183.3 302.2C185 302.2 186.1 304.1 185.2 305.5L185 305.9C184.6 306.6 183.9 307 183.1 307H141.3C140.1 307 139.1 306 139.1 304.8V304.7C139.1 303.4 140.1 302.4 141.3 302.4Z" fill="#839299"/>
<path d="M135.4 304.7C135.4 306 134.4 307 133.2 307H123.9C122.9 307 122 306.3 121.8 305.4C121.4 304 122.5 302.6 123.9 302.6L133.2 302.5C134.4 302.5 135.4 303.5 135.4 304.7Z" fill="#839299"/>
<path d="M151.4 310.4L183.3 310.2C185 310.2 186.1 312.1 185.2 313.5L185 313.9C184.6 314.6 183.9 315 183.1 315H151.4C150.2 315 149.2 314 149.2 312.8V312.7C149.2 311.4 150.2 310.4 151.4 310.4Z" fill="#839299"/>
<path d="M145.5 312.6C145.5 313.9 144.5 314.9 143.3 314.9H134C133 314.9 132.1 314.2 131.9 313.3C131.5 311.9 132.6 310.5 134 310.5L143.3 310.4C144.5 310.4 145.5 311.4 145.5 312.6Z" fill="#839299"/>
<path d="M216 127L278.8 121.4C281.3 121.2 283.3 119 283.3 116.5L283.5 74.1C283.5 71.2 281.1 68.9 278.2 69.1L211.3 73.8C208.5 74 206.5 76.4 206.7 79.2L210.5 122.5C210.9 125.2 213.3 127.2 216 127Z" fill="#002548"/>
<path opacity="0.87" d="M279.9 78.3001L280.3 114.9C280.3 116.5 279.1 117.8 277.5 118L217.3 124C215.6 124.2 214.1 122.9 213.9 121.2L210.5 82.0001C210.3 80.3001 211.7 78.8001 213.4 78.7001L276.7 75.3001C278.4 75.1001 279.9 76.5001 279.9 78.3001Z" fill="white"/>
<path d="M251.3 110.2L217.2 112.2C216.9 112.2 216.6 112.5 216.6 112.9V113.4C216.6 113.7 216.9 114 217.3 114L251.3 111.5C251.6 111.5 251.9 111.2 251.9 110.8C252 110.4 251.7 110.2 251.3 110.2Z" fill="#839299"/>
<path d="M252.2 113.6V113.8C252.2 114.1 252 114.4 251.6 114.5L217.6 117.5C217.3 117.5 217 117.3 216.9 116.9V116.7C216.9 116.4 217.1 116.1 217.5 116L251.5 113C251.9 113 252.2 113.3 252.2 113.6Z" fill="#839299"/>
<path d="M242.2 117.6V117.7C242.2 118 242 118.3 241.6 118.4L217.9 120.5C217.6 120.5 217.3 120.3 217.2 119.9V119.4C217.2 119.1 217.4 118.8 217.8 118.7L241.5 117C241.9 117 242.2 117.3 242.2 117.6Z" fill="#839299"/>
<path opacity="0.19" d="M216 127L278.8 121.4C281.3 121.2 283.3 119 283.3 116.5L283.5 74.1C283.5 71.2 281.1 68.9 278.2 69.1L211.3 73.8C208.5 74 206.5 76.4 206.7 79.2L210.5 122.5C210.9 125.2 213.3 127.2 216 127Z" fill="#F9FAFB"/>
<path opacity="0.19" d="M216 127L278.8 121.4C281.3 121.2 283.3 119 283.3 116.5L283.5 74.1C283.5 71.2 281.1 68.9 278.2 69.1L211.3 73.8C208.5 74 206.5 76.4 206.7 79.2L210.5 122.5C210.9 125.2 213.3 127.2 216 127Z" fill="#F9FAFB"/>
<path d="M221.3 111.9L295.4 110.4C298.4 110.3 300.9 108 301.1 105L304.8 55.3C305 51.9 302.4 49 299 49L220.2 49.1C216.9 49.1 214.3 51.8 214.4 55L215.4 106.1C215.4 109.4 218 111.9 221.3 111.9Z" fill="#002548"/>
<path opacity="0.87" d="M300.1 59.8L297.7 102.7C297.6 104.6 296.1 106 294.2 106.1L223.1 108.3C221.1 108.4 219.4 106.8 219.4 104.8L218.5 58.7C218.5 56.7 220.1 55 222.2 55L296.7 56C298.6 56 300.2 57.8 300.1 59.8Z" fill="white"/>
<path d="M264.1 95.0001L223.9 94.6001C223.5 94.6001 223.2 94.9001 223.2 95.3001V95.9001C223.2 96.3001 223.5 96.6001 223.9 96.6001L264 96.3001C264.4 96.3001 264.7 96.0001 264.7 95.6001C264.8 95.3001 264.4 95.0001 264.1 95.0001Z" fill="#839299"/>
<path d="M264.8 99.1001V99.4001C264.8 99.8001 264.5 100.1 264.1 100.1L224 100.9C223.6 100.9 223.3 100.6 223.3 100.2V99.9001C223.3 99.5001 223.6 99.2001 224 99.2001L264.1 98.4001C264.5 98.4001 264.8 98.7001 264.8 99.1001Z" fill="#839299"/>
<path d="M252.7 102.9V103C252.7 103.4 252.4 103.7 252 103.7L224.1 104.3C223.7 104.3 223.4 104 223.4 103.6V103C223.4 102.6 223.7 102.3 224.1 102.3L252.1 102.2C252.4 102.2 252.7 102.5 252.7 102.9Z" fill="#839299"/>
<path opacity="0.19" d="M221.3 111.9L295.4 110.4C298.4 110.3 300.9 108 301.1 105L304.8 55.3C305 51.9 302.4 49 299 49L220.2 49.1C216.9 49.1 214.3 51.8 214.4 55L215.4 106.1C215.4 109.4 218 111.9 221.3 111.9Z" fill="#F9FAFB"/>
<path d="M232.2 99.6001H314.4C317.7 99.6001 320.5 97.1001 320.8 93.7001L326 38.7001C326.4 35.0001 323.4 31.7001 319.7 31.6001L232.3 30.0001C228.7 29.9001 225.7 32.8001 225.7 36.5001V93.2001C225.7 96.7001 228.6 99.6001 232.2 99.6001Z" fill="#002548"/>
<path d="M320.8 43.6001L317.1 91.2001C316.9 93.3001 315.2 94.9001 313.2 94.9001L234.3 95.7001C232.1 95.7001 230.3 93.9001 230.3 91.7001V40.5001C230.3 38.2001 232.2 36.4001 234.4 36.5001L317 39.3001C319.2 39.4001 321 41.4001 320.8 43.6001Z" fill="#D2D9DC"/>
<path d="M278.7 43.2001L234.2 41.9001C233.7 41.9001 233.4 42.3001 233.4 42.7001V43.4001C233.4 43.8001 233.8 44.2001 234.2 44.2001L278.7 44.8001C279.2 44.8001 279.5 44.4001 279.5 44.0001C279.5 43.6001 279.1 43.2001 278.7 43.2001Z" fill="#839299"/>
<path d="M279.5 47.7001V48.0001C279.5 48.4001 279.1 48.8001 278.7 48.8001H234.2C233.8 48.8001 233.4 48.4001 233.4 48.0001V47.7001C233.4 47.3001 233.8 46.9001 234.2 46.9001H278.7C279.1 46.9001 279.5 47.3001 279.5 47.7001Z" fill="#839299"/>
<path d="M265.9 51.7001V51.8001C265.9 52.2001 265.5 52.6001 265.1 52.6001H234.1C233.7 52.6001 233.3 52.2001 233.3 51.8001V51.2001C233.3 50.7001 233.7 50.4001 234.1 50.4001L265.1 50.9001C265.6 50.9001 265.9 51.3001 265.9 51.7001Z" fill="#839299"/>
<path d="M245.1 76.2C245.2 76.2 245.3 76.2 245.3 76.1L258.7 65.2L271.9 74.8001C272 74.9001 272.3 74.9 272.4 74.7L290.7 52.7001C292.8 54.5001 306.3 66.4001 308.1 67.9001C308.2 68.0001 308.5 68.0001 308.6 67.9001C308.7 67.8001 308.7 67.5001 308.6 67.4001C306.7 65.7001 291 51.9001 291 51.9001C290.9 51.8001 290.8 51.8 290.7 51.8C290.6 51.8 290.5 51.9001 290.5 51.9001L272.2 73.9001L259.1 64.3001C259 64.2001 258.8 64.2001 258.7 64.3001L245.4 75.1L238.3 68.9001C238.2 68.8001 237.9 68.8001 237.8 68.9001C237.7 69.0001 237.7 69.3001 237.8 69.4001L245.2 75.8001C245 76.1001 245 76.2 245.1 76.2Z" fill="#54CC5A"/>
<path d="M290.1 87.8V87.1C290.1 87 290.2 86.9 290.3 86.9C290.4 86.9 290.5 87 290.5 87.1V87.8C290.5 87.9 290.4 88 290.3 88C290.2 88 290.1 87.9 290.1 87.8ZM290.1 85.4V84.7C290.1 84.6 290.2 84.5 290.3 84.5C290.4 84.5 290.5 84.6 290.5 84.7V85.4C290.5 85.5 290.4 85.6 290.3 85.6C290.2 85.7 290.1 85.6 290.1 85.4ZM290.1 83.1V82.4C290.1 82.3 290.2 82.2 290.3 82.2C290.4 82.2 290.5 82.3 290.5 82.4V83.1C290.5 83.2 290.4 83.3 290.3 83.3C290.2 83.3 290.1 83.2 290.1 83.1ZM290.1 80.8V80.1C290.1 80 290.2 79.9 290.3 79.9C290.4 79.9 290.5 80 290.5 80.1V80.8C290.5 80.9 290.4 81 290.3 81C290.2 81 290.1 80.9 290.1 80.8ZM290.1 78.4V77.7C290.1 77.6 290.2 77.5 290.3 77.5C290.4 77.5 290.5 77.6 290.5 77.7V78.4C290.5 78.5 290.4 78.6 290.3 78.6C290.2 78.7 290.1 78.6 290.1 78.4ZM290.1 76.1V75.4C290.1 75.3 290.2 75.2 290.3 75.2C290.4 75.2 290.5 75.3 290.5 75.4V76.1C290.5 76.2 290.4 76.3 290.3 76.3C290.2 76.3 290.1 76.2 290.1 76.1ZM290.1 73.8V73.1C290.1 73 290.2 72.9 290.3 72.9C290.4 72.9 290.5 73 290.5 73.1V73.8C290.5 73.9 290.4 74 290.3 74C290.2 74 290.1 73.9 290.1 73.8ZM290.1 71.4V70.7C290.1 70.6 290.2 70.5 290.3 70.5C290.4 70.5 290.5 70.6 290.5 70.7V71.4C290.5 71.5 290.4 71.6 290.3 71.6C290.2 71.7 290.1 71.6 290.1 71.4ZM290.1 69.1V68.4C290.1 68.3 290.2 68.2 290.3 68.2C290.4 68.2 290.5 68.3 290.5 68.4V69.1C290.5 69.2 290.4 69.3 290.3 69.3C290.2 69.3 290.1 69.2 290.1 69.1ZM290.1 66.8V66.1C290.1 66 290.2 65.9 290.3 65.9C290.4 65.9 290.5 66 290.5 66.1V66.8C290.5 66.9 290.4 67 290.3 67C290.2 67 290.1 66.9 290.1 66.8ZM290.1 64.4V63.7C290.1 63.6 290.2 63.5 290.3 63.5C290.4 63.5 290.5 63.6 290.5 63.7V64.4C290.5 64.5 290.4 64.6 290.3 64.6C290.2 64.7 290.1 64.6 290.1 64.4ZM290.1 62.1V61.4C290.1 61.3 290.2 61.2 290.3 61.2C290.4 61.2 290.5 61.3 290.5 61.4V62.1C290.5 62.2 290.4 62.3 290.3 62.3C290.2 62.3 290.1 62.2 290.1 62.1ZM290.1 59.8V59.1C290.1 59 290.2 58.9 290.3 58.9C290.4 58.9 290.5 59 290.5 59.1V59.8C290.5 59.9 290.4 60 290.3 60C290.2 60 290.1 59.9 290.1 59.8ZM290.1 57.4V56.7C290.1 56.6 290.2 56.5 290.3 56.5C290.4 56.5 290.5 56.6 290.5 56.7V57.4C290.5 57.5 290.4 57.6 290.3 57.6C290.2 57.7 290.1 57.6 290.1 57.4Z" fill="#0054A6"/>
<path d="M271.9 88.2001V87.5001C271.9 87.4001 272 87.3001 272.1 87.3001C272.2 87.3001 272.3 87.4001 272.3 87.5001V88.2001C272.3 88.3001 272.2 88.4001 272.1 88.4001C272 88.4001 271.9 88.3001 271.9 88.2001ZM271.9 85.9001V85.2001C271.9 85.1001 272 85.0001 272.1 85.0001C272.2 85.0001 272.3 85.1001 272.3 85.2001V85.9001C272.3 86.0001 272.2 86.1001 272.1 86.1001C272 86.1001 271.9 86.0001 271.9 85.9001ZM271.9 83.5001V82.8001C271.9 82.7001 272 82.6001 272.1 82.6001C272.2 82.6001 272.3 82.7001 272.3 82.8001V83.5001C272.3 83.6001 272.2 83.7001 272.1 83.7001C272 83.7001 271.9 83.6001 271.9 83.5001ZM271.9 81.2001V80.5001C271.9 80.4001 272 80.3001 272.1 80.3001C272.2 80.3001 272.3 80.4001 272.3 80.5001V81.2001C272.3 81.3001 272.2 81.4001 272.1 81.4001C272 81.4001 271.9 81.3001 271.9 81.2001ZM271.9 78.9001V78.2001C271.9 78.1001 272 78.0001 272.1 78.0001C272.2 78.0001 272.3 78.1001 272.3 78.2001V78.9001C272.3 79.0001 272.2 79.1001 272.1 79.1001C272 79.1001 271.9 79.0001 271.9 78.9001ZM271.9 76.5001V75.8001C271.9 75.7001 272 75.6001 272.1 75.6001C272.2 75.6001 272.3 75.7001 272.3 75.8001V76.5001C272.3 76.6001 272.2 76.7001 272.1 76.7001C272 76.7001 271.9 76.6001 271.9 76.5001Z" fill="#0054A6"/>
<path d="M258.2 88.9C258.1 88.9 258 88.8 258 88.7V88C258 87.9 258.1 87.8 258.2 87.8C258.3 87.8 258.4 87.9 258.4 88V88.7C258.4 88.8 258.3 88.9 258.2 88.9ZM258.3 86.5C258.2 86.5 258.1 86.4 258.1 86.3V85.6C258.1 85.5 258.2 85.4 258.3 85.4C258.4 85.4 258.5 85.5 258.5 85.6V86.3C258.5 86.4 258.4 86.5 258.3 86.5ZM258.3 84.2C258.2 84.2 258.1 84.1 258.1 84V83.3C258.1 83.2 258.2 83.1 258.3 83.1C258.4 83.1 258.5 83.2 258.5 83.3V84C258.6 84.1 258.5 84.2 258.3 84.2ZM258.4 81.9C258.3 81.9 258.2 81.8 258.2 81.7V81C258.2 80.9 258.3 80.8 258.4 80.8C258.5 80.8 258.6 80.9 258.6 81V81.7C258.6 81.8 258.5 81.9 258.4 81.9ZM258.5 79.5C258.4 79.5 258.3 79.4 258.3 79.3V78.6C258.3 78.5 258.4 78.4 258.5 78.4C258.6 78.4 258.7 78.5 258.7 78.6V79.3C258.7 79.4 258.6 79.5 258.5 79.5ZM258.6 77.2C258.5 77.2 258.4 77.1 258.4 77V76.3C258.4 76.2 258.5 76.1 258.6 76.1C258.7 76.1 258.8 76.2 258.8 76.3V77C258.8 77.1 258.7 77.2 258.6 77.2ZM258.6 74.9C258.5 74.9 258.4 74.8 258.4 74.7V74C258.4 73.9 258.5 73.8 258.6 73.8C258.7 73.8 258.8 73.9 258.8 74V74.7C258.9 74.8 258.8 74.9 258.6 74.9ZM258.7 72.5C258.6 72.5 258.5 72.4 258.5 72.3V71.6C258.5 71.5 258.6 71.4 258.7 71.4C258.8 71.4 258.9 71.5 258.9 71.6V72.3C258.9 72.4 258.8 72.5 258.7 72.5ZM258.8 70.2C258.7 70.2 258.6 70.1 258.6 70V69.3C258.6 69.2 258.7 69.1 258.8 69.1C258.9 69.1 259 69.2 259 69.3V70C259 70.1 258.9 70.2 258.8 70.2ZM258.8 67.9C258.7 67.9 258.6 67.8 258.6 67.7V67C258.6 66.9 258.7 66.8 258.8 66.8C258.9 66.8 259 66.9 259 67V67.7C259.1 67.8 259 67.9 258.8 67.9Z" fill="#0054A6"/>
<path d="M244.7 86.7V86C244.7 85.9 244.8 85.8 244.9 85.8C245 85.8 245.1 85.9 245.1 86V86.7C245.1 86.8 245 86.9 244.9 86.9C244.8 86.9 244.7 86.8 244.7 86.7ZM244.7 84.4V83.7C244.7 83.6 244.8 83.5 244.9 83.5C245 83.5 245.1 83.6 245.1 83.7V84.4C245.1 84.5 245 84.6 244.9 84.6C244.8 84.6 244.7 84.5 244.7 84.4ZM244.7 82.1V81.4C244.7 81.3 244.8 81.2 244.9 81.2C245 81.2 245.1 81.3 245.1 81.4V82.1C245.1 82.2 245 82.3 244.9 82.3C244.8 82.3 244.7 82.2 244.7 82.1ZM244.7 79.7V79C244.7 78.9 244.8 78.8 244.9 78.8C245 78.8 245.1 78.9 245.1 79V79.7C245.1 79.8 245 79.9 244.9 79.9C244.8 79.9 244.7 79.8 244.7 79.7ZM244.7 77.4V76.7C244.7 76.6 244.8 76.5 244.9 76.5C245 76.5 245.1 76.6 245.1 76.7V77.4C245.1 77.5 245 77.6 244.9 77.6C244.8 77.6 244.7 77.5 244.7 77.4Z" fill="#0054A6"/>
<path d="M309.9 91.8C310.1 91.8 310.2 91.7 310.2 91.5L314 47.0999C314 46.8999 313.9 46.7 313.7 46.7C313.5 46.7 313.3 46.8 313.3 47L309.5 91.4C309.5 91.6 309.6 91.8 309.9 91.8C309.8 91.8 309.8 91.8 309.9 91.8Z" fill="#54CC5A"/>
<path d="M314.7 48.5L313.6 47.2L312.3 48.2999L312.4 47.2999L313.7 46.2L314.8 47.5L314.7 48.5Z" fill="#54CC5A"/>
<path d="M235.6 89.6999H312.7C312.9 89.6999 313 89.4999 313 89.3999C313 89.1999 312.8 89.0999 312.7 89.0999H235.6C235.4 89.0999 235.3 89.2999 235.3 89.3999C235.3 89.5999 235.4 89.6999 235.6 89.6999Z" fill="#0054A6"/>
<path d="M237 90.6L235.8 89.4L237 88.2H236L234.8 89.4L236 90.6H237Z" fill="#0054A6"/>
<path d="M126.7 135.5C126.7 142.7 120.9 148.5 113.7 148.5C106.5 148.5 100.7 142.7 100.7 135.5C100.7 134.5 100.8 133.6 101 132.6H106.8C106.4 133.5 106.2 134.4 106.2 135.5C106.2 139.6 109.5 142.9 113.6 142.9C117.7 142.9 121 139.6 121 135.5C121 134.5 120.8 133.5 120.4 132.6H126.2C126.6 133.6 126.7 134.5 126.7 135.5Z" fill="#FFDD33"/>
<path d="M154.5 126.4H136.2C133.9 128.7 132.4 132 132.4 135.5C132.4 142.7 138.2 148.5 145.4 148.5C152.6 148.5 158.3 142.7 158.3 135.5C158.3 131.9 156.9 128.7 154.5 126.4ZM145.4 142.9C141.3 142.9 138 139.6 138 135.5C138 131.4 141.3 128.1 145.4 128.1C149.5 128.1 152.8 131.4 152.8 135.5C152.8 139.6 149.4 142.9 145.4 142.9Z" fill="#FFDD33"/>
<path d="M188.7 140.8C186.7 145.3 182.1 148.5 176.9 148.5C171.6 148.5 167.1 145.4 165.1 140.8H171.8C173.1 142.1 174.9 142.9 176.9 142.9C178.9 142.9 180.7 142.1 182 140.8H188.7Z" fill="#FFDD33"/>
<path d="M372.3 165.6L374.6 166.2C376.1 166.6 377.1 167.8 377.2 169.2C377.3 170.3 377.5 171.4 377.7 172.5C378 173.9 377.3 175.4 376 176.1L374 177.3C372.5 178.2 372 180.1 372.9 181.5L376.7 187.9C377.6 189.4 379.5 189.9 381.1 189L383.1 187.8C384.4 187.1 386 187.2 387.2 188.1C388.1 188.8 389 189.5 389.9 190.1C391.1 190.9 391.7 192.4 391.4 193.8L390.8 196C390.4 197.7 391.4 199.4 393.1 199.8L400.4 201.7C402.1 202.1 403.8 201.1 404.3 199.5L404.9 197.3C405.3 195.9 406.5 194.9 408 194.7C409.1 194.6 410.3 194.5 411.4 194.2C412.9 193.9 414.4 194.6 415.1 195.8L416.3 197.8C417.2 199.3 419.1 199.8 420.6 198.9L427.1 195.2C428.6 194.3 429.1 192.4 428.2 191L427 189C426.2 187.7 426.4 186.1 427.3 185C428 184.2 428.7 183.3 429.3 182.4C430.1 181.2 431.7 180.6 433.1 181L435.4 181.6C437.1 182 438.8 181 439.3 179.4L441.2 172.2C441.6 170.5 440.6 168.8 438.9 168.4L436.6 167.8C435.2 167.4 434.1 166.2 434 164.7C433.9 163.6 433.7 162.5 433.5 161.4C433.2 160 433.9 158.5 435.2 157.8L437.2 156.6C438.7 155.7 439.2 153.8 438.3 152.4L434.4 146C433.5 144.5 431.6 144 430.1 144.9L428.1 146.1C426.8 146.8 425.2 146.7 424 145.7C423.1 145 422.2 144.3 421.3 143.7C420 142.9 419.5 141.4 419.8 140L420.4 137.8C420.8 136.1 419.8 134.5 418.1 134L410.8 132.1C409.1 131.7 407.4 132.7 406.9 134.3L406.3 136.5C405.9 137.9 404.7 138.9 403.2 139.1C402.1 139.2 400.9 139.3 399.8 139.6C398.3 139.9 396.8 139.2 396.1 138L394.9 136C394 134.5 392.1 134 390.5 134.9L384 138.6C382.5 139.5 382 141.4 382.9 142.8L384.1 144.8C384.9 146.1 384.7 147.7 383.8 148.8C383.1 149.6 382.4 150.5 381.8 151.4C381 152.6 379.5 153.2 378 152.8L375.7 152.2C374 151.8 372.3 152.8 371.8 154.4L369.9 161.6C369.6 163.5 370.6 165.2 372.3 165.6ZM388.6 164.2C390.4 154 401.1 147.8 411.2 151.2C419.1 153.9 424 162 422.6 170C420.8 180.2 410.1 186.4 400 183C392.1 180.3 387.2 172.2 388.6 164.2Z" fill="#839299"/>
<defs>
<linearGradient id="paint0_linear_5494_16477" x1="145.129" y1="236.565" x2="83.544" y2="324.334" gradientUnits="userSpaceOnUse">
<stop stop-color="#09005D"/>
<stop offset="1" stop-color="#1A0F91"/>
</linearGradient>
</defs>
</svg>
