<svg width="144" height="50" viewBox="0 0 144 50" fill="none" xmlns="http://www.w3.org/2000/svg">
<path d="M24.7438 49.618V39.9968C34.8994 39.9968 42.7826 29.8974 38.8831 19.179C37.4523 15.2406 34.2822 12.0616 30.3266 10.6269C19.6379 6.74466 9.56647 14.6216 9.56647 24.8055H0C0 8.57324 15.6542 -4.0862 32.627 1.23077C40.0333 3.56573 45.9527 9.47347 48.2532 16.9003C53.5554 33.9203 40.931 49.618 24.7438 49.618Z" fill="#0080FF"/>
<path fill-rule="evenodd" clip-rule="evenodd" d="M24.7702 30.46V40.053H15.2041V30.46H24.7702Z" fill="#0080FF"/>
<path fill-rule="evenodd" clip-rule="evenodd" d="M15.2008 40.0532V47.3957H7.87891V40.0532H15.2008Z" fill="#0080FF"/>
<path fill-rule="evenodd" clip-rule="evenodd" d="M7.88583 40.053H1.74219V33.8921H7.88583V40.053Z" fill="#0080FF"/>
<path d="M73.8696 2.95862C71.6982 1.42446 68.9346 0.682129 65.7762 0.682129H58.8672V22.7047H65.8255C68.9839 22.7047 71.7475 21.9129 73.9189 20.2797C75.1033 19.4384 76.041 18.2507 76.7319 16.766C77.3734 15.2814 77.7189 13.4998 77.7189 11.5697C77.7189 9.63962 77.3734 7.90751 76.7319 6.42284C76.041 4.93817 75.1033 3.75044 73.8696 2.95862ZM62.9139 4.39379H65.0853C67.5034 4.39379 69.4774 4.88869 71.0073 5.82897C72.6852 6.86824 73.5241 8.79831 73.5241 11.5697C73.5241 14.44 72.6852 16.4691 71.0073 17.5578C69.5761 18.4981 67.6021 18.993 65.1346 18.993H62.9139V4.39379Z" fill="#0080FF"/>
<path d="M82.509 0.385254C81.8181 0.385254 81.2752 0.6327 80.7817 1.0781C80.3376 1.5235 80.0908 2.06788 80.0908 2.76072C80.0908 3.45357 80.3376 3.99795 80.7817 4.49284C81.2259 4.93823 81.8181 5.18568 82.509 5.18568C83.1505 5.18568 83.7427 4.93823 84.2362 4.49284C84.6804 4.04743 84.9271 3.45357 84.9271 2.76072C84.9271 2.06788 84.6804 1.5235 84.2362 1.0781C83.7427 0.6327 83.1505 0.385254 82.509 0.385254Z" fill="#0080FF"/>
<path d="M84.4309 7.16504H80.5322V22.7046H84.4309V7.16504Z" fill="#0080FF"/>
<path d="M98.5976 8.45215C97.4132 7.41289 96.1301 6.76953 94.6989 6.76953C92.5275 6.76953 90.7509 7.51186 89.3691 8.99653C87.9873 10.4317 87.2471 12.3123 87.2471 14.5888C87.2471 16.7663 87.938 18.6469 89.3198 20.1315C90.7016 21.5667 92.5275 22.309 94.6496 22.309C96.1301 22.309 97.4625 21.9131 98.4989 21.0718V21.4182C98.4989 22.705 98.1534 23.6947 97.4625 24.3876C96.7716 25.0804 95.834 25.4268 94.6496 25.4268C92.873 25.4268 91.7379 24.734 90.3561 22.8534L87.6912 25.4268L87.7406 25.5258C88.3328 26.3176 89.1717 27.1095 90.3561 27.8518C91.4912 28.5941 92.9717 28.99 94.6989 28.99C97.0184 28.99 98.8937 28.2972 100.275 26.862C101.657 25.4268 102.348 23.5463 102.348 21.2203V7.11595H98.4989V8.45215H98.5976ZM97.5612 17.6571C96.8703 18.4489 95.982 18.7953 94.8963 18.7953C93.7613 18.7953 92.9223 18.3994 92.2314 17.6571C91.5405 16.8653 91.2444 15.8755 91.2444 14.6383C91.2444 13.3516 91.5899 12.3618 92.2314 11.57C92.873 10.7781 93.8106 10.4317 94.8963 10.4317C96.0314 10.4317 96.8703 10.8276 97.5612 11.57C98.2521 12.3618 98.5976 13.401 98.5976 14.6383C98.5976 15.8755 98.2521 16.8653 97.5612 17.6571Z" fill="#0080FF"/>
<path d="M109.651 7.16504H105.752V22.7046H109.651V7.16504Z" fill="#0080FF"/>
<path d="M107.725 0.385254C107.034 0.385254 106.491 0.6327 105.998 1.0781C105.553 1.5235 105.307 2.06788 105.307 2.76072C105.307 3.45357 105.553 3.99795 105.998 4.49284C106.442 4.93823 107.034 5.18568 107.725 5.18568C108.366 5.18568 108.959 4.93823 109.452 4.49284C109.896 4.04743 110.143 3.45357 110.143 2.76072C110.143 2.06788 109.896 1.5235 109.452 1.0781C108.959 0.6327 108.416 0.385254 107.725 0.385254Z" fill="#0080FF"/>
<path d="M118.189 2.9585H114.34V7.16505H112.119V10.7283H114.34V17.1618C114.34 19.1909 114.735 20.626 115.524 21.4673C116.314 22.3087 117.745 22.7046 119.719 22.7046C120.361 22.7046 121.002 22.7046 121.594 22.6551H121.792V19.0919L120.459 19.1414C119.522 19.1414 118.929 18.9929 118.633 18.6465C118.337 18.3001 118.189 17.6072 118.189 16.5679V10.6788H121.841V7.11556H118.189V2.9585Z" fill="#0080FF"/>
<path d="M143.995 0.632812H140.097V22.7049H143.995V0.632812Z" fill="#0080FF"/>
<path d="M135.216 8.35301C134.031 7.36323 132.403 6.81885 130.379 6.81885C129.096 6.81885 127.863 7.11578 126.777 7.66016C125.741 8.15505 124.754 9.04585 124.112 10.1346L124.161 10.1841L126.678 12.5596C127.715 10.9264 128.85 10.3326 130.379 10.3326C131.218 10.3326 131.86 10.5305 132.403 10.9759C132.896 11.4213 133.192 11.9657 133.192 12.6585V13.4009C132.205 13.1039 131.268 12.9555 130.33 12.9555C128.405 12.9555 126.826 13.4009 125.642 14.2917C124.457 15.1825 123.865 16.5187 123.865 18.2013C123.865 19.686 124.359 20.8242 125.395 21.715C126.431 22.5563 127.665 23.0017 129.146 23.0017C130.626 23.0017 132.008 22.4079 133.291 21.3686V22.6553H137.14V12.6585C136.992 10.8275 136.4 9.34278 135.216 8.35301ZM128.307 16.7661C128.751 16.4692 129.392 16.3207 130.182 16.3207C131.12 16.3207 132.107 16.5187 133.143 16.8651V18.3992C132.304 19.1911 131.169 19.587 129.787 19.587C129.096 19.587 128.603 19.4385 128.208 19.1416C127.863 18.8447 127.665 18.4982 127.665 18.0033C127.665 17.459 127.863 17.0631 128.307 16.7661Z" fill="#0080FF"/>
<path d="M93.6873 44.0613C92.9964 44.8531 92.2561 45.5459 91.7133 45.8924C91.1704 46.2388 90.4795 46.4367 89.6899 46.4367C88.5549 46.4367 87.6172 46.0408 86.877 45.15C86.1367 44.3087 85.7419 43.1705 85.7419 41.8838C85.7419 40.5476 86.1367 39.4588 86.877 38.6175C87.6172 37.7762 88.5549 37.3308 89.6899 37.3308C90.9237 37.3308 92.2561 38.1226 93.3912 39.4588L95.9574 36.9844C94.2795 34.8068 92.1574 33.7676 89.5912 33.7676C87.4692 33.7676 85.5939 34.5594 84.064 36.0936C82.5342 37.6277 81.7939 39.5578 81.7939 41.8838C81.7939 44.2097 82.5835 46.1398 84.064 47.674C85.5939 49.2081 87.4198 49.9999 89.5912 49.9999C92.4042 49.9999 94.6743 48.7627 96.2535 46.5357L93.6873 44.0613Z" fill="#0080FF"/>
<path d="M109.732 36.2417C109.189 35.4499 108.449 34.856 107.511 34.4106C106.573 33.9652 105.488 33.7178 104.303 33.7178C102.132 33.7178 100.355 34.5096 99.0228 36.0932C97.7397 37.6769 97.0488 39.607 97.0488 41.9329C97.0488 44.3084 97.7891 46.2385 99.1709 47.7231C100.602 49.2078 102.477 49.9501 104.797 49.9501C107.412 49.9501 109.584 48.8614 111.212 46.7828L111.311 46.6839L108.745 44.2094C108.498 44.5064 108.153 44.8033 107.856 45.1002C107.462 45.4466 107.116 45.7436 106.721 45.9415C106.129 46.2385 105.488 46.3869 104.747 46.3869C103.662 46.3869 102.773 46.09 102.083 45.4466C101.441 44.8528 101.046 44.061 100.947 43.0712H111.262L111.311 41.636C111.311 40.6462 111.163 39.6564 110.916 38.7656C110.669 37.8748 110.275 37.0335 109.732 36.2417ZM101.194 39.9039C101.392 39.1616 101.737 38.5182 102.231 38.0728C102.773 37.5284 103.464 37.281 104.254 37.281C105.192 37.281 105.932 37.5284 106.425 38.0728C106.869 38.5677 107.166 39.1616 107.215 39.9039H101.194Z" fill="#0080FF"/>
<path d="M124.681 35.2519C123.496 34.2622 121.868 33.7178 119.844 33.7178C118.561 33.7178 117.327 34.0147 116.242 34.5591C115.205 35.054 114.218 35.9448 113.577 37.0335L113.626 37.083L116.143 39.4585C117.179 37.8254 118.314 37.2315 119.844 37.2315C120.683 37.2315 121.325 37.4294 121.868 37.8748C122.361 38.3202 122.657 38.8646 122.657 39.5575V40.2998C121.67 40.0029 120.733 39.8544 119.795 39.8544C117.87 39.8544 116.291 40.2998 115.107 41.1906C113.922 42.0814 113.33 43.4176 113.33 45.1002C113.33 46.5849 113.824 47.7231 114.86 48.6139C115.896 49.4552 117.13 49.9006 118.611 49.9006C120.091 49.9006 121.473 49.3068 122.756 48.2675V49.5542H126.605V39.5575C126.457 37.7264 125.865 36.2417 124.681 35.2519ZM117.772 43.665C118.216 43.3681 118.857 43.2196 119.647 43.2196C120.585 43.2196 121.572 43.4176 122.608 43.764V45.2982C121.769 46.09 120.634 46.4859 119.252 46.4859C118.561 46.4859 118.068 46.3374 117.673 46.0405C117.327 45.7436 117.13 45.3972 117.13 44.9023C117.13 44.3579 117.327 43.962 117.772 43.665Z" fill="#0080FF"/>
<path d="M141.465 35.5489C140.379 34.3116 138.849 33.7178 136.925 33.7178C135.395 33.7178 134.112 34.1632 133.174 35.054V34.1137H129.374V49.6037H133.273V41.0421C133.273 39.8544 133.569 38.9141 134.112 38.2708C134.654 37.6274 135.395 37.281 136.431 37.281C137.319 37.281 137.961 37.5779 138.454 38.1718C138.948 38.7656 139.195 39.607 139.195 40.5967V49.6037H143.093V40.5967C143.093 38.4687 142.55 36.7366 141.465 35.5489Z" fill="#0080FF"/>
<path d="M68.4716 49.9504C62.2041 49.9504 57.1211 44.8531 57.1211 38.568C57.1211 32.2829 62.2041 27.1855 68.4716 27.1855C74.739 27.1855 79.8221 32.2829 79.8221 38.568C79.8221 44.8531 74.739 49.9504 68.4716 49.9504ZM68.4716 31.1941C64.4249 31.1941 61.1184 34.5099 61.1184 38.568C61.1184 42.6261 64.4249 45.9418 68.4716 45.9418C72.5183 45.9418 75.8248 42.6261 75.8248 38.568C75.8248 34.5099 72.5183 31.1941 68.4716 31.1941Z" fill="#0080FF"/>
</svg>
