<svg width="32" height="32" viewBox="0 0 32 32" fill="none" xmlns="http://www.w3.org/2000/svg">
<g clip-path="url(#clip0_5595_11247)">
<path d="M19.7993 22.2L19.666 16.4C21.7327 16.4 24.3993 15.9333 26.7327 15.7333C26.7327 15.5333 26.7327 15.3333 26.7993 15.1333C26.866 14.9333 26.9327 14.8 26.9993 14.6C27.3327 14.0667 28.266 13.8667 28.5993 14.4667L30.3327 19.4667L29.3993 23.2C29.3327 23.3333 29.266 23.4667 29.1993 23.6C29.1993 23.6 28.866 24.1333 28.5993 24.5333H20.9327C20.266 24 19.866 23.1333 19.7993 22.2Z" fill="#FED2A4"/>
<path d="M29.2661 26.8667C29.2661 27.0667 29.0661 27.2667 28.7328 27.2667H27.7328L20.6661 27.3333C20.3995 27.3333 20.1328 27.1333 20.1328 26.9333V24.9333C20.1328 24.7333 20.3328 24.5333 20.6661 24.5333L27.7328 24.4667H28.6661C28.9328 24.4667 29.1995 24.6667 29.1995 24.8667L29.2661 26.8667Z" fill="#D2D9DC"/>
<path d="M30.1318 32H19.4651L19.3984 27.3333L28.1984 27.2667H29.9984L30.1318 32Z" fill="#002548"/>
<path d="M16.799 17.7333L18.8656 22.4L30.8656 17.1333C31.4656 16.8667 31.7323 16.2 31.4656 15.6L26.199 3.8L21.399 5.93333C21.3323 6 21.199 5.93333 21.1323 5.86667C21.1323 5.86667 21.1323 5.8 21.1323 5.73333C21.199 5.2 21.2656 4.26667 20.9323 3.66667C20.3323 2.53333 18.8656 2.13333 17.7323 2.8C16.599 3.4 16.199 4.86667 16.8656 6C17.199 6.53333 17.6656 6.93333 18.2656 7.13333C18.3323 7.13333 18.399 7.2 18.399 7.33333C18.399 7.4 18.3323 7.4 18.3323 7.46667L13.2656 9.66667L15.4656 14.7333C15.4656 14.8 15.599 14.8667 15.6656 14.8C15.7323 14.8 15.7323 14.7333 15.7323 14.7333C16.0656 13.4667 17.399 12.8 18.599 13.1333C19.8656 13.4667 20.5323 14.8 20.199 16C19.999 16.6 19.599 17.0667 19.0656 17.4C18.4656 17.7333 17.4656 17.6667 16.999 17.6C16.8656 17.6 16.799 17.6667 16.799 17.8C16.799 17.6667 16.799 17.7333 16.799 17.7333Z" fill="#FFDD33"/>
<path d="M25.5332 20.8667C25.6665 20.6 25.7999 20.3334 25.9999 20C26.5332 19.1334 27.3999 18.8 27.3999 18.8C27.3999 18.8 26.9999 16.5334 26.9332 15.7334C26.8665 15.2 26.9332 14.6667 27.1999 14.2C27.5332 13.6 28.5332 13.4 28.8665 14.0667L30.5332 19.2667L29.4665 23.2" fill="#FED2A4"/>
<path d="M12.1993 10.5333L12.3327 16.3333C10.266 16.3333 7.59935 16.8 5.26602 17C5.26602 17.2 5.26602 17.4 5.19935 17.6C5.13268 17.8 5.06602 17.9333 4.99935 18.1333C4.66602 18.6667 3.73268 18.8667 3.39935 18.2667L1.66602 13.2667L2.59935 9.53335C2.66602 9.40001 2.73268 9.20001 2.79935 9.13335C2.79935 9.13335 3.13268 8.66668 3.39935 8.20001H11.1327C11.7993 8.80001 12.1993 9.66668 12.1993 10.5333Z" fill="#FED2A4"/>
<path d="M11.9322 7.80002V5.80002C11.9322 5.60002 11.6655 5.40002 11.3988 5.40002L3.33216 5.46669C3.06549 5.46669 2.79883 5.66669 2.79883 5.86669V7.86669C2.79883 8.06669 3.06549 8.26669 3.33216 8.26669L11.3988 8.20002C11.6655 8.20002 11.9322 8.06669 11.9322 7.80002Z" fill="#D2D9DC"/>
<path d="M12.665 5.4L3.79831 5.46667L1.99831 5.53333L1.93164 0H12.5983L12.665 5.4Z" fill="#002548"/>
<path d="M20.1325 14.5333C20.4659 15.6 19.9992 16.7333 19.0659 17.2667C18.4659 17.6 17.4659 17.5333 16.9992 17.4667C16.8659 17.4667 16.7992 17.5333 16.7992 17.6667V17.7333L18.5992 21.8C18.7992 22.2 18.5992 22.7333 18.1992 22.8667L13.9325 24.8C13.8659 24.8667 13.7992 24.8 13.7325 24.7333C13.7325 24.6667 13.7325 24.6667 13.7325 24.6C14.3325 23.4667 13.7992 22.0667 12.6659 21.4667C11.5325 20.8667 10.1325 21.4 9.53254 22.5333C9.26587 23.0667 9.1992 23.7333 9.3992 24.3333C9.5992 25 10.3992 25.6 10.7992 25.8667C10.8659 25.9333 10.9325 26.0667 10.8659 26.1333L10.7992 26.2L5.9992 28.3333L0.665868 16.4C0.399201 15.8 0.665868 15.1333 1.26587 14.8667L12.5992 9.8C12.9325 9.66666 13.3325 9.8 13.5325 10.1333C14.0659 11.3333 15.0659 13.5333 15.4659 14.5333C15.4659 14.6 15.5992 14.6667 15.6659 14.6C15.7325 14.6 15.7325 14.5333 15.7325 14.4667C16.0659 13.2 17.3992 12.4667 18.5992 12.8667C19.2659 13.2 19.8659 13.7333 20.1325 14.5333Z" fill="#0054A6"/>
<path d="M6.46654 11.8666C6.3332 12.1333 6.19987 12.4 5.99987 12.7333C5.5332 13.6 4.66654 14 4.66654 14C4.66654 14 5.06654 16.2666 5.1332 17.0666C5.19987 17.6 5.1332 18.1333 4.86654 18.6C4.5332 19.1333 3.5332 19.4 3.19987 18.7333L1.5332 13.5333L2.59987 9.59998" fill="#FED2A4"/>
</g>
<defs>
<clipPath id="clip0_5595_11247">
<rect width="32" height="32" fill="white"/>
</clipPath>
</defs>
</svg>
