<svg width="334" height="248" viewBox="0 0 334 248" fill="none" xmlns="http://www.w3.org/2000/svg">
<path d="M168.5 121.2L207.5 130V103.5L168.5 105.1V121.2Z" fill="#0054A5"/>
<path d="M191.599 108.2L200.899 116.6L190.199 123.2L190.699 118.5L175.899 117.1L176.399 111.6L191.199 112.9L191.599 108.2Z" fill="#F8F9FA"/>
<path d="M162.7 121.3L139.5 126.6V110.8L162.7 111.7V121.3Z" fill="#0054A5"/>
<path d="M148.899 113.6L143.399 118.6L149.799 122.5L149.499 119.7L158.299 118.9L157.999 115.6L149.199 116.4L148.899 113.6Z" fill="#F8F9FA"/>
<path d="M163.399 97.3998L123.699 101.4V76.2998L163.399 79.4998V97.3998Z" fill="#0054A5"/>
<path d="M139.4 81L129.5 88.5L139.4 96.1V91.3H154.3V85.7H139.4V81Z" fill="#F8F9FA"/>
<path d="M168.5 92.7L207.5 94.2V67.7L168.5 76.6V92.7Z" fill="#0054A5"/>
<path d="M191.8 75.3999L201.7 81.0999L191.8 88.9999V84.5999L177.8 86.0999V81.0999L191.8 79.6999V75.3999Z" fill="#F8F9FA"/>
<path d="M114.6 95.8999L86.0996 112C84.9996 112.6 83.4996 112.2 82.8996 111.1L69.6996 87.6999C69.0996 86.5999 69.4996 85.0999 70.5996 84.4999L98.9996 68.4999C100.1 67.8999 101.6 68.2999 102.2 69.3999L115.4 92.7999C116.1 93.7999 115.7 95.2999 114.6 95.8999Z" fill="#0054A5"/>
<path opacity="0.19" d="M113.699 95.0998L86.4993 110.7C85.5993 111.2 84.3993 110.9 83.8993 110L71.0993 87.5998C70.5993 86.6998 70.8993 85.4998 71.7993 84.9998L98.9993 69.3998C99.8993 68.8998 101.099 69.1998 101.599 70.0998L114.399 92.4998C114.999 93.3998 114.699 94.5998 113.699 95.0998Z" fill="#F8F9FA"/>
<path d="M89.205 96.6011L85.5615 98.6902L89.7894 106.064L93.4329 103.975L89.205 96.6011Z" fill="#54CB5A"/>
<path d="M92.7421 91.0144L89.0986 93.1035L94.8685 103.167L98.512 101.077L92.7421 91.0144Z" fill="#54CB5A"/>
<path d="M95.7301 84.7331L91.9131 86.9216L99.6228 100.368L103.44 98.1793L95.7301 84.7331Z" fill="#54CB5A"/>
<path d="M97.9055 76.0018L93.915 78.2898L104.858 97.3748L108.848 95.0868L97.9055 76.0018Z" fill="#54CB5A"/>
<path d="M90.6998 79.2998L87.1998 82.7998L89.2998 83.3998L87.6998 89.1998H83.7998L81.7998 96.4998L82.2998 96.5998L84.1998 89.6998H88.0998L89.7998 83.4998L91.8998 84.0998L90.6998 79.2998Z" fill="#54CB5A"/>
<path d="M237.599 102.6C246.104 102.6 252.999 95.705 252.999 87.1998C252.999 78.6946 246.104 71.7998 237.599 71.7998C229.094 71.7998 222.199 78.6946 222.199 87.1998C222.199 95.705 229.094 102.6 237.599 102.6Z" fill="#EC1C24"/>
<path d="M242.025 99.9752C249.07 97.5342 252.802 89.8442 250.361 82.7992C247.92 75.7541 240.23 72.0219 233.185 74.4629C226.14 76.904 222.408 84.5939 224.849 91.639C227.29 98.684 234.98 102.416 242.025 99.9752Z" fill="#F8F9FA"/>
<path d="M237.6 97.4999C243.288 97.4999 247.9 92.8884 247.9 87.1999C247.9 81.5114 243.288 76.8999 237.6 76.8999C231.911 76.8999 227.3 81.5114 227.3 87.1999C227.3 92.8884 231.911 97.4999 237.6 97.4999Z" fill="#EC1C24"/>
<path d="M237.6 94.7999C241.797 94.7999 245.2 91.3972 245.2 87.1999C245.2 83.0025 241.797 79.5999 237.6 79.5999C233.403 79.5999 230 83.0025 230 87.1999C230 91.3972 233.403 94.7999 237.6 94.7999Z" fill="#F8F9FA"/>
<path d="M240.199 90.7681C242.161 89.3344 242.589 86.5816 241.155 84.6196C239.721 82.6576 236.969 82.2293 235.007 83.663C233.045 85.0968 232.616 87.8496 234.05 89.8116C235.484 91.7736 238.237 92.2019 240.199 90.7681Z" fill="#EC1C24"/>
<path d="M261.499 85.1998L263.899 81.2998L256.399 82.2998L253.699 85.9998L261.499 85.1998Z" fill="#0054A5"/>
<path d="M261.599 86.2L264.599 89.6L256.999 89.8L253.699 86.6L261.599 86.2Z" fill="#0054A5"/>
<path d="M234.599 146C233.999 145.3 233.099 144.8 231.999 144.4C230.899 144.1 229.499 143.8 227.799 143.6C225.899 143.4 224.499 143.3 223.799 143.1C222.999 142.9 222.599 142.5 222.399 141.8C222.199 141.2 222.399 140.6 222.899 140C223.399 139.5 224.199 139 225.299 138.7C227.299 138.1 229.399 138 231.599 138.4L229.999 133.3C228.799 133.1 227.699 133.1 226.499 133.2C225.699 133.3 224.899 133.4 224.099 133.6L222.499 128.3L218.599 129.5L220.299 135C219.599 135.4 218.999 135.8 218.499 136.2C217.399 137.2 216.599 138.3 216.199 139.6C215.799 140.9 215.799 142.1 216.199 143.5C216.699 145.1 217.599 146.3 218.899 147.1C220.199 147.9 222.099 148.4 224.499 148.7C225.899 148.8 226.899 149 227.499 149.1C228.199 149.2 228.699 149.4 229.099 149.6C229.499 149.8 229.799 150.2 229.899 150.7C230.099 151.3 229.999 151.9 229.499 152.4C229.099 152.9 228.299 153.3 227.199 153.6C225.999 154 224.799 154.2 223.399 154.3C221.999 154.4 220.599 154.3 219.299 154.1L220.899 159.3C221.999 159.5 223.299 159.5 224.799 159.4C225.799 159.3 226.699 159.1 227.699 158.9L229.199 163.9L233.099 162.7L231.499 157.6C233.299 156.8 234.699 155.8 235.499 154.6C236.699 152.9 236.899 151 236.299 148.9C235.799 147.6 235.299 146.6 234.599 146Z" fill="#54CB5A"/>
<path d="M122.299 163.3C131.633 163.3 139.199 155.734 139.199 146.4C139.199 137.066 131.633 129.5 122.299 129.5C112.966 129.5 105.399 137.066 105.399 146.4C105.399 155.734 112.966 163.3 122.299 163.3Z" fill="#D1D8DB"/>
<path d="M122.299 164.3C112.399 164.3 104.399 156.3 104.399 146.4C104.399 136.5 112.399 128.5 122.299 128.5C132.199 128.5 140.199 136.5 140.199 146.4C140.199 156.2 132.199 164.3 122.299 164.3ZM122.299 130.5C113.599 130.5 106.499 137.6 106.499 146.3C106.499 155 113.599 162.1 122.299 162.1C130.999 162.1 138.099 155 138.099 146.3C138.099 137.6 130.999 130.5 122.299 130.5Z" fill="#002548"/>
<path d="M121.9 148C122.894 148 123.7 147.194 123.7 146.2C123.7 145.206 122.894 144.4 121.9 144.4C120.905 144.4 120.1 145.206 120.1 146.2C120.1 147.194 120.905 148 121.9 148Z" fill="#002548"/>
<path d="M131.2 134C131 133.8 130.7 133.9 130.5 134.1L121.7 145.2C121.5 145.4 121.6 145.7 121.8 145.9C122 146.1 122.3 146 122.5 145.8L131.3 134.7C131.5 134.4 131.4 134.1 131.2 134Z" fill="#002548"/>
<path d="M131 152L122.4 148.1C121.9 147.9 121.7 147.3 121.9 146.8C122.1 146.3 122.7 146.1 123.2 146.3L131.8 150.2C132.3 150.4 132.5 151 132.3 151.5C132.1 152 131.5 152.2 131 152Z" fill="#002548"/>
<path d="M165.899 70.2998H166.399C167.999 70.2998 169.399 71.5998 169.399 73.2998V218H162.999V73.2998C162.899 71.5998 164.299 70.2998 165.899 70.2998Z" fill="#002548"/>
<path d="M169.399 39.2999C170.799 38.9999 172.199 38.7999 173.599 38.4999C173.299 37.0999 173.099 35.6999 172.799 34.2999C174.199 33.9999 175.499 33.7999 176.899 33.4999C177.999 39.4999 179.099 45.3999 180.199 51.4999C182.799 47.6999 185.399 43.8999 187.899 40.1999C185.399 40.6999 182.699 41.0999 180.099 41.5999C179.799 40.1999 179.599 38.7999 179.299 37.3999C179.399 37.3999 179.499 37.3999 179.599 37.2999C183.499 36.5999 187.299 35.8999 191.199 35.1999C191.399 35.1999 191.599 35.0999 191.699 34.8999C192.799 33.2999 193.899 31.7999 194.899 30.1999C194.999 30.0999 194.999 29.9999 195.099 29.8999C195.799 30.3999 196.499 30.7999 197.199 31.2999C197.099 31.3999 196.999 31.4999 196.899 31.4999C195.799 33.0999 194.699 34.5999 193.599 36.1999C193.499 36.3999 193.499 36.4999 193.499 36.6999C194.199 40.5999 194.899 44.3999 195.599 48.2999C195.599 48.3999 195.599 48.4999 195.699 48.6999C194.299 48.9999 192.899 49.1999 191.499 49.4999C190.999 46.7999 190.499 44.1999 190.099 41.5999C187.499 45.2999 184.799 49.0999 182.199 52.7999C182.199 52.7999 182.199 52.7999 182.299 52.8999C188.299 51.7999 194.199 50.6999 200.199 49.6999C200.499 51.0999 200.699 52.4999 200.899 53.7999C199.499 53.9999 198.199 54.2999 196.799 54.4999C197.099 55.8999 197.299 57.2999 197.599 58.6999C196.199 58.9999 194.799 59.1999 193.399 59.4999C193.099 58.0999 192.899 56.6999 192.599 55.2999C187.399 56.1999 182.299 57.1999 177.099 58.0999C176.199 52.8999 175.199 47.7999 174.299 42.5999C172.899 42.8999 171.499 43.0999 170.099 43.3999C169.899 42.0999 169.599 40.6999 169.399 39.2999Z" fill="#D1D8DB"/>
<path d="M237.699 87.4C237.699 87.7 237.999 87.9 238.199 87.9L261.599 86.2C261.899 86.2 262.099 85.9 262.099 85.7C262.099 85.4 261.799 85.2 261.599 85.2L238.199 86.9C237.899 86.8 237.699 87.1 237.699 87.4Z" fill="#002548"/>
</svg>
