<svg width="275" height="204" viewBox="0 0 275 204" fill="none" xmlns="http://www.w3.org/2000/svg">
<path d="M0.5 20C0.5 9.23045 9.23045 0.5 20 0.5H255C265.77 0.5 274.5 9.23045 274.5 20V203.5H20C9.23044 203.5 0.5 194.77 0.5 184V20Z" stroke="#DEDEDE"/>
<path d="M229.24 189.777H247.445V189.915H229.24V189.777Z" fill="#EBEBEB"/>
<path d="M177.403 191.262H182.16V191.4H177.403V191.262Z" fill="#EBEBEB"/>
<path d="M218.13 184.662H228.69V184.8H218.13V184.662Z" fill="#EBEBEB"/>
<path d="M28.8475 185.597H52.6075V185.735H28.8475V185.597Z" fill="#EBEBEB"/>
<path d="M57.5024 185.597H60.9949V185.735H57.5024V185.597Z" fill="#EBEBEB"/>
<path d="M72.2975 187.907H123.833V188.045H72.2975V187.907Z" fill="#EBEBEB"/>
<path fill-rule="evenodd" clip-rule="evenodd" d="M131.12 156.392H24.915C23.1825 156.392 21.78 154.99 21.78 153.257V3.95995C21.78 2.22745 23.1825 0.824951 24.915 0.824951H131.12C132.852 0.824951 134.255 2.22745 134.255 3.95995V153.257C134.255 154.99 132.852 156.392 131.12 156.392ZM24.915 0.962451C23.265 0.962451 21.9175 2.30995 21.9175 3.95995V153.257C21.9175 154.907 23.265 156.255 24.915 156.255H131.12C132.77 156.255 134.118 154.907 134.118 153.257V3.95995C134.118 2.30995 132.77 0.962451 131.12 0.962451H24.915Z" fill="#EBEBEB"/>
<path fill-rule="evenodd" clip-rule="evenodd" d="M250.085 156.392H143.88C142.148 156.392 140.745 154.99 140.745 153.257V3.95995C140.745 2.22745 142.148 0.824951 143.88 0.824951H250.085C251.818 0.824951 253.22 2.22745 253.22 3.95995V153.257C253.22 154.99 251.818 156.392 250.085 156.392ZM143.88 0.962451C142.23 0.962451 140.882 2.30995 140.882 3.95995V153.257C140.882 154.907 142.23 156.255 143.88 156.255H250.085C251.735 156.255 253.082 154.907 253.082 153.257V3.95995C253.082 2.30995 251.735 0.962451 250.085 0.962451H143.88Z" fill="#EBEBEB"/>
<path d="M275 181.06H0V180.922H275V181.06Z" fill="#EBEBEB"/>
<path d="M227.068 164.67C227.068 164.67 226.71 145.832 232.238 134.2C237.765 122.595 242.935 112.997 246.455 109.12C246.455 109.12 236.115 135.327 234.63 142.89C233.145 150.452 229.46 164.67 229.46 164.67H227.068Z" fill="#F5F5F5"/>
<path d="M227.893 163.817C227.893 163.817 228.36 143.632 232.32 135.877C236.308 128.122 242.66 116.05 242.66 116.05C242.66 116.05 235.373 133.76 233.805 141.212C232.238 148.692 228.718 163.817 228.718 163.817H227.893Z" fill="#E6E6E6"/>
<path d="M224.263 165.495C224.263 165.495 224.648 146.685 219.093 135.052C213.565 123.42 208.395 113.822 204.903 109.945C204.903 109.945 215.215 136.152 216.7 143.715C218.185 151.305 221.87 165.495 221.87 165.495H224.263Z" fill="#F0F0F0"/>
<path d="M223.437 164.67C223.437 164.67 222.97 144.457 219.01 136.702C215.05 128.975 208.67 116.875 208.67 116.875C208.67 116.875 215.957 134.585 217.525 142.065C219.092 149.545 222.612 164.67 222.612 164.67H223.437Z" fill="#E0E0E0"/>
<path d="M223.658 165.082C223.658 165.082 229.02 147.015 226.765 134.337C224.51 121.66 222.09 111.045 219.725 106.37C219.725 106.37 222.723 134.392 222.145 142.065C221.568 149.765 221.348 164.45 221.348 164.45L223.658 165.082Z" fill="#EBEBEB"/>
<path d="M223.08 164.065C223.08 164.065 228.002 144.457 226.242 135.932C224.455 127.407 221.54 114.07 221.54 114.07C221.54 114.07 223.85 133.072 223.382 140.69C222.915 148.307 222.282 163.845 222.282 163.845L223.08 164.065Z" fill="#FAFAFA"/>
<path d="M225.473 165.962C225.473 165.962 221.678 147.51 225.005 135.08C228.333 122.65 231.688 112.255 234.41 107.827C234.41 107.827 229.02 135.465 228.965 143.165C228.883 150.892 227.838 165.522 227.838 165.522L225.473 165.962Z" fill="#F5F5F5"/>
<path d="M226.133 165C226.133 165 222.915 145.035 225.418 136.702C227.893 128.342 231.963 115.307 231.963 115.307C231.963 115.307 228.003 134.062 227.838 141.68C227.645 149.325 226.958 164.835 226.958 164.835L226.133 165Z" fill="#E6E6E6"/>
<path d="M227.975 181.252H222.173C219.89 181.252 217.993 179.465 217.855 177.182L216.783 163.57H233.393L232.293 177.182C232.155 179.465 230.285 181.252 227.975 181.252Z" fill="#EBEBEB"/>
<path d="M56.5125 148.417C56.595 148.5 56.21 149.022 57.75 148.802C61.5175 148.225 68.09 146.712 69.9325 142.807C72.545 137.252 64.4325 139.287 64.7075 136.455C64.9825 133.622 74.2225 134.117 75.2125 129.937C76.175 125.785 69.9325 127.765 69.85 125.73C69.7675 123.722 76.9725 124.96 78.4025 120.477C79.8325 115.995 74.3875 119.295 75.02 117.425C75.625 115.555 81.73 107.112 78.4025 106.15C75.1025 105.16 69.4925 113.822 67.3475 115.06C65.175 116.27 63.2775 109.202 60.6925 112.2C58.135 115.17 62.205 125.62 58.9325 127.655C56.485 129.167 57.1725 125.015 53.955 125.785C49.555 126.83 51.04 142.312 56.5125 148.417Z" fill="#E6E6E6"/>
<path d="M68.1725 125.757C66.6875 125.895 65.5875 126.197 64.9 126.445C66.2475 124.492 67.21 123.475 67.2375 123.447C67.3475 123.337 67.3475 123.172 67.2375 123.062C67.1275 122.952 66.935 122.952 66.825 123.062C66.7975 123.09 64.5975 125.345 62.1775 129.8C60.995 122.65 63.9925 116.38 64.02 116.325C64.075 116.215 64.02 116.105 63.9375 116.05C63.8275 115.995 63.69 116.022 63.635 116.132C63.6075 116.215 60.4175 122.897 61.875 130.405C61.4717 131.138 61.0775 131.927 60.6925 132.77C59.5925 135.217 58.4375 138.352 57.5025 142.12C56.87 140.965 55.4125 137.885 55.275 133.595C55.275 133.457 55.1925 133.375 55.055 133.375C54.945 133.375 54.8625 133.485 54.8625 133.595C55 138.572 56.925 141.982 57.365 142.725C56.155 147.95 55.4125 154.412 55.935 162.002C55.9625 162.167 56.1 162.277 56.2375 162.277C56.2559 162.277 56.265 162.277 56.265 162.277C56.4025 162.25 56.5125 162.112 56.5125 161.975C55.7975 151.91 57.31 143.825 59.4 137.692C59.9225 137.087 61.49 135.52 63.855 135.135C63.965 135.107 64.0475 135.025 64.0475 134.915C64.02 134.805 63.91 134.722 63.8 134.722C61.93 135.025 60.555 136.015 59.73 136.757C61.27 132.495 63.0575 129.277 64.4875 127.05C64.955 126.83 66.2475 126.335 68.2 126.17C68.3375 126.17 68.42 126.06 68.3925 125.95C68.3925 125.84 68.2825 125.757 68.1725 125.757Z" fill="#F5F5F5"/>
<path d="M51.6725 150.562C48.5375 150.645 43.175 147.702 41.0575 144.87C38.94 142.01 44.935 143.797 44.33 141.515C43.6975 139.26 36.3 140.937 34.925 137.692C33.55 134.447 38.9125 135.217 38.6925 133.54C38.4725 131.89 32.945 132.22 31.1575 128.782C29.3975 125.345 34.265 127.27 33.495 125.84C32.725 124.437 26.62 118.415 29.1775 117.177C31.735 115.912 37.455 122.182 39.38 122.87C41.305 123.557 41.745 119.24 44.2475 121.302C46.7225 123.392 44.8525 132.412 47.795 133.595C49.995 134.475 49.06 130.35 51.59 131.395C55.99 133.21 52.9375 150.535 51.6725 150.562Z" fill="#E0E0E0"/>
<g opacity="0.3">
<path d="M51.6725 150.562C48.5375 150.645 43.175 147.702 41.0575 144.87C38.94 142.01 44.935 143.797 44.33 141.515C43.6975 139.26 36.3 140.937 34.925 137.692C33.55 134.447 38.9125 135.217 38.6925 133.54C38.4725 131.89 32.945 132.22 31.1575 128.782C29.3975 125.345 34.265 127.27 33.495 125.84C32.725 124.437 26.62 118.415 29.1775 117.177C31.735 115.912 37.455 122.182 39.38 122.87C41.305 123.557 41.745 119.24 44.2475 121.302C46.7225 123.392 44.8525 132.412 47.795 133.595C49.995 134.475 49.06 130.35 51.59 131.395C55.99 133.21 52.9375 150.535 51.6725 150.562Z" fill="#E0E0E0"/>
</g>
<path d="M50.6276 146.795C50.6826 146.776 50.7192 146.749 50.7376 146.712C50.8201 146.575 52.5526 143.247 52.1676 138.297C52.1401 138.187 52.0576 138.105 51.9201 138.105C51.8101 138.105 51.7276 138.215 51.7276 138.325C52.0576 142.505 50.8201 145.557 50.4626 146.327C49.0601 142.505 47.3826 139.122 45.6776 136.207C46.2276 129.47 42.7901 123.942 42.7351 123.887C42.6801 123.805 42.5701 123.777 42.4601 123.832C42.3501 123.887 42.3226 124.025 42.4051 124.107C42.4326 124.162 45.5951 129.25 45.2926 135.575C41.2776 128.81 37.3451 124.905 37.2626 124.822C37.1526 124.712 36.9876 124.712 36.8776 124.822C36.7676 124.932 36.7676 125.125 36.8776 125.235C36.9601 125.29 39.7376 128.095 43.0101 132.99C41.0851 132.275 39.0226 131.89 37.0701 131.945C36.9601 131.945 36.8776 132.027 36.8776 132.137C36.8776 132.247 36.9601 132.357 37.0701 132.357C39.1601 132.302 41.3876 132.742 43.4226 133.595C44.5501 135.3 45.7051 137.28 46.8326 139.452C45.7601 138.737 43.6426 137.72 40.9751 138.435C40.8651 138.462 40.7826 138.572 40.8101 138.682C40.8651 138.792 40.9751 138.875 41.0851 138.847C44.4951 137.94 46.8876 139.975 47.2726 140.332C50.3526 146.52 52.9926 154.357 53.3501 163.35C53.3501 163.515 53.4876 163.625 53.6251 163.625C53.6434 163.625 53.6526 163.625 53.6526 163.625C53.7901 163.625 53.9276 163.487 53.9276 163.322C53.6801 157.245 52.3876 151.69 50.6276 146.795Z" fill="#F5F5F5"/>
<path d="M60.5 181.252C63.4975 175.615 65.4775 167.475 65.4775 163.9C65.4775 160.875 64.0475 158.18 61.82 156.282H46.4475C44.22 158.18 42.79 160.875 42.79 163.9C42.79 167.475 44.77 175.615 47.7675 181.252H60.5Z" fill="#E0E0E0"/>
<path d="M75.955 21.2575H75.3225V2.61255H75.955V21.2575Z" fill="#E6E6E6"/>
<path d="M55.715 31.6251L75.6525 19.5801L95.5625 31.6251H55.715Z" fill="#EBEBEB"/>
<path d="M77.0275 31.6251L75.6525 19.5801L84.6175 31.6251H77.0275Z" fill="#F5F5F5"/>
<path d="M199.677 21.2575H199.045V2.61255H199.677V21.2575Z" fill="#E6E6E6"/>
<path d="M179.437 31.6251L199.347 19.5801L219.285 31.6251H179.437Z" fill="#F0F0F0"/>
<path d="M200.722 31.6251L199.347 19.5801L208.312 31.6251H200.722Z" fill="#FAFAFA"/>
<path d="M241.478 197.422C241.478 200.86 193.738 203.637 134.86 203.637C75.955 203.637 28.215 200.86 28.215 197.422C28.215 193.985 75.955 191.18 134.86 191.18C193.738 191.18 241.478 193.985 241.478 197.422Z" fill="#F5F5F5"/>
<path fill-rule="evenodd" clip-rule="evenodd" d="M102.52 47.7949H99.5225L99.66 46.0349C99.715 45.3474 100.293 44.7974 101.008 44.7974C101.723 44.7974 102.3 45.3474 102.355 46.0349L102.52 47.7949ZM101.695 46.3099C101.695 45.9249 101.393 45.6499 101.035 45.6499C100.678 45.6499 100.375 45.9249 100.375 46.3099C100.375 46.6674 100.678 46.9699 101.035 46.9699C101.393 46.9699 101.695 46.6674 101.695 46.3099Z" fill="#0054A6"/>
<path fill-rule="evenodd" clip-rule="evenodd" d="M171.49 47.7949H168.492L168.63 46.0349C168.712 45.3474 169.29 44.7974 170.005 44.7974C170.72 44.7974 171.297 45.3474 171.352 46.0349L171.49 47.7949ZM170.665 46.3099C170.665 45.9249 170.362 45.6499 170.005 45.6499C169.62 45.6499 169.317 45.9249 169.317 46.3099C169.317 46.6674 169.62 46.9699 170.005 46.9699C170.362 46.9699 170.665 46.6674 170.665 46.3099Z" fill="#0054A6"/>
<path d="M183.068 106.92H87.2025V47.5198H183.068V106.92Z" fill="#263238"/>
<path opacity="0.6" d="M183.068 106.92H87.2025V47.5198H183.068V106.92Z" fill="white"/>
<path opacity="0.9" d="M89.6775 49.9673V104.445H180.62V49.9673H89.6775Z" fill="white"/>
<path d="M184.223 108.13H86.075V105.27H184.223V108.13Z" fill="#263238"/>
<path opacity="0.7" d="M184.223 108.13H86.075V105.27H184.223V108.13Z" fill="white"/>
<path opacity="0.2" d="M105.848 68.9699H98.8625V59.7849H105.848V68.9699Z" fill="#263238"/>
<path d="M108.543 68.9699C106.15 64.4049 106.893 59.7849 106.893 59.7849H98.9726C98.9726 59.7849 98.2301 64.4049 100.623 68.9699H108.543Z" fill="#0054A6"/>
<path opacity="0.5" d="M108.543 68.9699C106.15 64.4049 106.893 59.7849 106.893 59.7849H98.9726C98.9726 59.7849 98.2301 64.4049 100.623 68.9699H108.543Z" fill="white"/>
<path opacity="0.2" d="M173.03 68.9699H166.018V59.7849H173.03V68.9699Z" fill="#263238"/>
<path d="M175.697 68.9699C173.305 64.4049 174.047 59.7849 174.047 59.7849H166.127C166.127 59.7849 165.412 64.4049 167.777 68.9699H175.697Z" fill="#0054A6"/>
<path opacity="0.2" d="M175.697 68.9699C173.305 64.4049 174.047 59.7849 174.047 59.7849H166.127C166.127 59.7849 165.412 64.4049 167.777 68.9699H175.697Z" fill="white"/>
<path opacity="0.2" d="M122.265 69.1349H115.253V59.9224H122.265V69.1349Z" fill="#263238"/>
<path d="M124.933 69.1349C122.54 64.5699 123.283 59.9224 123.283 59.9224H115.363C115.363 59.9224 114.648 64.5699 117.013 69.1349H124.933Z" fill="#0054A6"/>
<path opacity="0.8" d="M124.933 69.1349C122.54 64.5699 123.283 59.9224 123.283 59.9224H115.363C115.363 59.9224 114.648 64.5699 117.013 69.1349H124.933Z" fill="white"/>
<path opacity="0.2" d="M158.73 68.9699H151.745V59.7849H158.73V68.9699Z" fill="#263238"/>
<path d="M161.397 68.9699C159.032 64.4049 159.747 59.7849 159.747 59.7849H151.855C151.855 59.7849 151.112 64.4049 153.505 68.9699H161.397Z" fill="#0054A6"/>
<path opacity="0.6" d="M161.397 68.9699C159.032 64.4049 159.747 59.7849 159.747 59.7849H151.855C151.855 59.7849 151.112 64.4049 153.505 68.9699H161.397Z" fill="white"/>
<path d="M148.197 67.6224C147.51 63.3599 149.847 59.3999 154.11 58.2724C158.427 57.1449 163.487 59.5924 163.927 64.3499C164.697 73.0674 151.25 75.2674 149.187 67.0174C149.105 66.6874 148.555 66.8249 148.665 67.1549C149.71 71.3349 153.23 72.9849 157.382 72.7099C161.782 72.4624 165.055 68.2824 164.422 63.9099C163.762 59.1799 158.702 56.7049 154.302 57.6674C149.545 58.7399 146.905 63.0849 147.675 67.7599C147.73 68.0899 148.252 67.9524 148.197 67.6224Z" fill="#0054A6"/>
<path d="M98.4224 74.9923C105.297 73.3423 112.42 72.6273 119.46 72.4073C119.845 72.4073 119.845 71.8298 119.46 71.8298C112.392 72.0498 105.187 72.7648 98.2849 74.4423C97.9274 74.5248 98.0649 75.0748 98.4224 74.9923Z" fill="#0054A6"/>
<path d="M103.538 75.9822C107.663 74.9922 111.925 74.5522 116.133 74.4422C116.49 74.4147 116.49 73.8372 116.133 73.8647C111.87 73.9747 107.553 74.4147 103.4 75.4322C103.043 75.5147 103.18 76.0647 103.538 75.9822Z" fill="#0054A6"/>
<path d="M207.213 66.6874C207.158 66.9624 206.965 67.1549 206.8 67.0999C206.608 67.0724 206.525 66.8249 206.58 66.5774C206.635 66.3024 206.8 66.1099 206.993 66.1374C207.158 66.1924 207.268 66.4399 207.213 66.6874Z" fill="#263238"/>
<path d="M206.993 67.1548C206.993 67.1548 206.085 68.5573 205.26 69.1623C205.645 69.6848 206.47 69.6573 206.47 69.6573L206.993 67.1548Z" fill="#A02724"/>
<path d="M208.478 65.4223C208.514 65.4223 208.551 65.4039 208.588 65.3673C208.643 65.3123 208.643 65.2298 208.588 65.1473C207.983 64.5148 207.268 64.6248 207.24 64.6248C207.158 64.6523 207.103 64.7348 207.103 64.8173C207.13 64.8998 207.213 64.9548 207.295 64.9273C207.323 64.9273 207.873 64.8448 208.34 65.3673C208.377 65.4039 208.423 65.4223 208.478 65.4223Z" fill="#263238"/>
<path d="M214.748 70.3999C214.253 72.8749 213.785 77.3574 215.49 78.9799C215.49 78.9799 214.83 81.4549 210.265 81.4549C205.26 81.4549 207.873 78.9799 207.873 78.9799C210.623 78.3199 210.54 76.3124 210.073 74.4149L214.748 70.3999Z" fill="#B55B52"/>
<path d="M216.15 67.9248C215.27 71.1423 214.94 73.0673 212.96 74.3873C209.99 76.3948 206.277 74.0848 206.167 70.7023C206.057 67.6223 207.487 62.8923 210.925 62.2598C214.307 61.5998 217.002 64.7073 216.15 67.9248Z" fill="#B55B52"/>
<path d="M209.303 69.2449C209.303 69.2449 210.018 73.6449 214.335 73.5074C214.335 73.5074 219.588 70.5649 219.038 65.0099C219.038 65.0099 220.688 62.8374 219.698 61.9574C219.038 61.3799 218.295 62.6174 218.295 62.6174C218.295 62.6174 218.653 59.4274 217.36 59.0699C216.04 58.7399 215.903 60.7749 215.903 60.7749C215.903 60.7749 215.6 57.5574 214.28 57.3924C212.713 57.1724 213.18 59.4549 213.18 59.4549C213.18 59.4549 212.658 56.7874 211.145 56.7874C209.88 56.7874 210.485 59.3449 210.485 59.3449C210.485 59.3449 209.303 56.6224 208.148 57.2549C206.993 57.8599 208.478 59.8674 208.478 59.8674C208.478 59.8674 206.278 58.3274 205.838 59.3724C205.37 60.4449 207.625 61.7649 207.625 61.7649C207.625 61.7649 205.48 62.0124 205.645 63.0299C205.81 64.0749 208.34 63.9099 208.34 63.9099C208.34 63.9099 207.35 66.2474 209.523 67.3474L209.303 69.2449Z" fill="#263238"/>
<path d="M210.678 68.0624C210.458 68.8874 209.908 69.6299 209.33 70.0424C208.45 70.7024 207.818 70.0699 207.873 69.0799C207.928 68.1999 208.45 66.7974 209.413 66.5224C210.348 66.2749 210.925 67.0999 210.678 68.0624Z" fill="#B55B52"/>
<path opacity="0.2" d="M209.11 73.8923C208.34 73.7548 207.955 73.9198 206.8 72.9023C207.543 74.1398 208.808 74.9923 210.21 75.1023C210.183 74.9923 209.825 74.0298 209.11 73.8923Z" fill="black"/>
<path d="M223.41 82.0598C224.263 83.7648 225.033 85.4423 225.803 87.1748C226.536 88.9165 227.223 90.6765 227.865 92.4548C228.195 93.3623 228.47 94.2698 228.773 95.1773L228.828 95.3698L228.855 95.4523L228.883 95.5898C228.938 95.7823 228.993 95.9748 229.02 96.1948C229.075 96.6073 229.075 97.0198 229.02 97.4323C228.938 98.2573 228.635 98.9723 228.25 99.5498C227.508 100.705 226.6 101.42 225.693 101.997C225.225 102.272 224.785 102.52 224.29 102.712C223.795 102.932 223.355 103.097 222.805 103.235L221.76 101.035C222.393 100.512 223.053 99.9073 223.575 99.3298C224.125 98.7523 224.538 98.1198 224.675 97.6523C224.758 97.4048 224.785 97.2398 224.73 97.1298C224.73 97.0748 224.703 97.0198 224.675 96.9923C224.675 96.9648 224.648 96.9373 224.62 96.9098L224.593 96.8273L224.538 96.6623C224.208 95.8373 223.85 95.0123 223.493 94.1598C222.778 92.5098 222.035 90.8598 221.265 89.2098L218.955 84.2598L223.41 82.0598Z" fill="#B55B52"/>
<path d="M222.888 100.732L220.495 100.127L220.358 103.977C220.358 103.977 222.255 104.252 223.383 103.125L222.888 100.732Z" fill="#B55B52"/>
<path d="M217.112 99.4673L217.662 102.85L220.357 103.977L220.495 100.127L217.112 99.4673Z" fill="#FFC3BD"/>
<path d="M202.538 80.4098C201.603 80.4098 200.53 80.3823 199.513 80.3548C198.495 80.2998 197.478 80.2173 196.46 80.1348C195.443 80.0248 194.425 79.9148 193.463 79.7498C192.968 79.6948 192.5 79.5848 192.005 79.5023C191.538 79.3923 191.043 79.2823 190.603 79.1448L189.915 78.9523L189.283 78.7323L189.09 78.6773C189.053 78.5673 189.026 78.439 189.008 78.2923C188.925 77.9348 188.898 77.4948 188.87 77.0273C188.843 75.1573 189.338 71.7748 189.64 69.7398L187.523 69.2998C186.478 71.3623 185.213 74.7173 184.8 77.1648C184.718 77.7698 184.635 78.4298 184.663 79.1448C184.69 79.8323 184.745 80.6298 185.158 81.5923C185.378 82.0873 185.515 82.1423 186.038 82.5823C186.285 82.8023 186.615 82.9948 186.89 83.1323L187.33 83.3523C187.605 83.4623 187.908 83.5998 188.183 83.7098L189.035 84.0398C191.318 84.8648 193.6 85.2773 195.855 85.5798C196.983 85.7173 198.11 85.8273 199.265 85.8823C200.393 85.9373 201.493 85.9648 202.703 85.9098L202.538 80.4098Z" fill="#B55B52"/>
<path d="M189.585 69.96L191.373 66.165L187.853 65.1475C187.853 65.1475 186.23 67.6225 187.633 69.6025L189.585 69.96Z" fill="#B55B52"/>
<path d="M191.152 64.4599L188.43 63.0574L187.852 65.1474L191.372 66.1649L191.152 64.4599Z" fill="#B55B52"/>
<path d="M207.57 79.2273C207.57 79.2273 208.368 78.4023 207.79 77.4673C207.79 77.4673 219.395 76.5048 216.37 79.5848L207.57 79.2273Z" fill="#0054A6"/>
<path opacity="0.3" d="M207.57 79.2273C207.57 79.2273 208.368 78.4023 207.79 77.4673C207.79 77.4673 219.395 76.5048 216.37 79.5848L207.57 79.2273Z" fill="white"/>
<path d="M220.522 93.3899C220.522 93.3899 224.537 91.6849 227.122 88.4674C227.122 88.4674 224.62 80.4924 221.787 79.9699C218.927 79.4474 220.522 93.3899 220.522 93.3899Z" fill="#0054A6"/>
<path opacity="0.5" d="M220.522 93.3899C220.522 93.3899 224.537 91.6849 227.122 88.4674C227.122 88.4674 224.62 80.4924 221.787 79.9699C218.927 79.4474 220.522 93.3899 220.522 93.3899Z" fill="white"/>
<path opacity="0.2" d="M220.083 85.6348C220.055 89.2923 220.523 93.3898 220.523 93.3898C220.523 93.3898 221.375 93.0048 222.53 92.3173C221.953 89.8423 220.853 87.2848 220.083 85.6348Z" fill="black"/>
<path d="M222.53 80.3C220.275 91.355 220.577 101.282 220.907 107.25C221.017 109.147 219.615 110.88 217.745 111.155C212.96 111.842 208.037 111.375 205.095 110.935C203.5 110.715 202.235 109.422 201.96 107.8C199.348 90.86 200.695 84.1225 201.548 80.8225C201.85 79.6675 202.868 78.8975 204.05 78.8975C208.698 78.87 220.688 78.98 222.53 80.3Z" fill="#0054A6"/>
<path opacity="0.5" d="M222.53 80.3C220.275 91.355 220.577 101.282 220.907 107.25C221.017 109.147 219.615 110.88 217.745 111.155C212.96 111.842 208.037 111.375 205.095 110.935C203.5 110.715 202.235 109.422 201.96 107.8C199.348 90.86 200.695 84.1225 201.548 80.8225C201.85 79.6675 202.868 78.8975 204.05 78.8975C208.698 78.87 220.688 78.98 222.53 80.3Z" fill="white"/>
<path opacity="0.2" d="M201.135 82.6098C200.723 84.8098 200.365 87.5323 200.42 92.4273C203.83 90.8873 204.655 85.6348 204.655 85.6348L203.115 82.1423L201.135 82.6098Z" fill="black"/>
<path d="M203.885 78.8973C202.318 78.0173 195.14 79.9973 195.14 79.9973V88.1373C195.14 88.1373 202.345 89.9523 203.858 87.4773C205.37 84.9748 205.783 79.9698 203.885 78.8973Z" fill="#0054A6"/>
<path opacity="0.5" d="M203.885 78.8973C202.318 78.0173 195.14 79.9973 195.14 79.9973V88.1373C195.14 88.1373 202.345 89.9523 203.858 87.4773C205.37 84.9748 205.783 79.9698 203.885 78.8973Z" fill="white"/>
<path d="M211.2 193.985H207.845L207.515 186.23H210.843L211.2 193.985Z" fill="#B55B52"/>
<path d="M235.757 192.445L232.485 193.132L229.212 185.927L232.457 185.212L235.757 192.445Z" fill="#B55B52"/>
<path opacity="0.2" d="M207.515 186.23L207.68 190.217H211.035L210.87 186.23H207.515Z" fill="black"/>
<path opacity="0.2" d="M232.485 185.212L229.213 185.927L230.89 189.64L234.163 188.925L232.485 185.212Z" fill="black"/>
<path d="M208.78 108.845C208.78 108.845 213.648 141.02 215.71 150.59C218.02 161.095 229.213 189.227 229.213 189.227L235.208 187.935C235.208 187.935 231.99 178.585 228.773 164.45C227.7 159.72 225.693 155.21 225.225 151.552C224.4 145.392 223.41 128.645 222.613 120.642C221.925 113.987 220.358 108.845 220.358 108.845H208.78Z" fill="#263238"/>
<path d="M227.783 187.22C227.755 187.22 228.883 189.392 228.883 189.392L235.62 187.935L235.07 185.9L227.783 187.22Z" fill="#263238"/>
<path opacity="0.5" d="M211.2 117.947C215.6 118.827 216.178 141.79 215.628 150.205C214.363 144.265 211.475 126.197 210.21 118.085C210.485 117.92 210.815 117.892 211.2 117.947Z" fill="black"/>
<path d="M202.455 108.845C202.455 108.845 203.033 140.442 203.39 150.672C203.775 161.287 206.443 189.447 206.443 189.447H212.108C212.108 189.447 213.785 180.015 213.95 166.567C214.005 160.38 212.988 154.742 213.07 151.47C213.208 145.887 213.62 130.515 214.528 123.007C215.49 115.225 215.298 108.845 215.298 108.845H202.455Z" fill="#263238"/>
<path d="M205.343 187.192C205.315 187.192 205.673 189.557 205.673 189.557H212.548L212.74 187.44L205.343 187.192Z" fill="#263238"/>
<path d="M207.928 192.665H211.778C211.943 192.665 212.053 192.802 212.08 192.967L212.74 196.652C212.74 196.982 212.493 197.285 212.163 197.367C212.126 197.367 212.08 197.367 212.025 197.367C210.43 197.312 209.055 197.202 207.048 197.175C204.71 197.147 205.26 197.422 202.483 197.422C200.833 197.422 200.888 195.525 201.603 195.442C204.903 195.085 205.425 194.122 206.91 192.995C207.213 192.775 207.57 192.665 207.928 192.665Z" fill="#263238"/>
<path d="M231.853 191.592L235.62 190.795C235.785 190.74 235.923 190.85 235.978 190.987L237.408 194.48C237.49 194.782 237.298 195.14 236.995 195.277C236.958 195.296 236.913 195.314 236.858 195.332C235.29 195.607 233.915 195.8 231.963 196.185C229.653 196.625 230.258 196.817 227.563 197.367C225.94 197.725 225.583 195.855 226.27 195.635C229.433 194.59 229.735 193.545 230.918 192.115C231.193 191.84 231.523 191.647 231.853 191.592Z" fill="#263238"/>
<path d="M158.895 95.8927L161.15 93.3077C161.15 93.3077 161.535 91.6027 161.782 91.0802C162.057 90.5027 162.607 89.2652 163.185 89.0727C163.817 88.8527 165.302 89.3202 165.715 89.8152C166.292 90.4752 166.54 92.4552 166.155 93.2527C165.77 94.0502 162.992 95.0677 162.992 95.0677L160.792 97.7902L158.895 95.8927Z" fill="#FFB573"/>
<path d="M158.4 95.7276L160.38 93.6101L162.992 95.8376L160.875 98.3401L158.4 95.7276Z" fill="#0054A6"/>
<path opacity="0.8" d="M158.4 95.7276L160.38 93.6101L162.992 95.8376L160.875 98.3401L158.4 95.7276Z" fill="white"/>
<path d="M144.347 83.1877C144.347 83.1877 146.41 85.5252 149.352 93.1427C152.322 100.76 155.595 98.5327 159.197 94.4352L162.14 97.1302C162.14 97.1302 156.612 104.005 153.147 104.005C149.27 104.005 145.502 98.0102 144.76 93.8027C143.99 89.6227 144.347 83.1877 144.347 83.1877Z" fill="#263238"/>
<path opacity="0.4" d="M145.09 87.5877L143.99 86.6802L143.467 89.6227C143.55 90.4477 143.632 91.3002 143.77 92.0427C144.21 94.4352 145.832 97.5702 147.565 100.183C146.932 94.3802 145.09 87.5877 145.09 87.5877Z" fill="black"/>
<path d="M129.415 65.3401C129.415 65.3401 127.847 65.3126 128.067 66.5501C128.315 68.0901 133.622 67.6501 133.622 67.6501L132.22 65.7801L129.415 65.3401Z" fill="#263238"/>
<path d="M151.25 185.763L151.772 192.968H148.582L147.015 186.01L151.25 185.763Z" fill="#FFB573"/>
<path d="M152.075 192.583H148.142C147.977 192.583 147.867 192.693 147.84 192.858L147.18 196.653C147.152 196.983 147.427 197.285 147.757 197.368C147.812 197.368 147.858 197.368 147.895 197.368C149.517 197.313 150.947 197.203 152.955 197.175C155.347 197.12 154.797 197.423 157.63 197.423C159.335 197.423 159.253 195.47 158.51 195.388C155.155 195.03 154.632 194.04 153.12 192.885C152.817 192.665 152.432 192.555 152.075 192.583Z" fill="#263238"/>
<path d="M152.432 191.455L147.4 191.703C147.4 191.703 142.34 173.635 141.405 162.69C141.332 161.92 141.286 161.196 141.267 160.518C141.157 157.3 140.827 154.11 140.14 151.003L139.92 149.903L137.142 136.978L136.62 134.503C136.62 134.503 133.485 129.25 133.595 121.248C133.622 119.213 133.87 117.013 134.42 114.675C134.438 114.62 134.457 114.556 134.475 114.483L146.547 114.84L147.015 120.808L152.432 191.455Z" fill="#0054A6"/>
<path opacity="0.2" d="M138.352 142.643C140.03 134.255 139.205 124.3 139.205 124.3L136.73 125.29L135.052 129.91C135.052 129.91 135.052 130.295 135.08 130.9C135.85 133.21 136.62 134.503 136.62 134.503L138.352 142.643Z" fill="black"/>
<path d="M128.232 185.763L127.187 192.968H123.997V186.01L128.232 185.763Z" fill="#FFB573"/>
<path d="M127.463 192.583H123.53C123.365 192.583 123.228 192.693 123.228 192.858L122.54 196.653C122.54 196.983 122.788 197.285 123.145 197.368C123.182 197.368 123.218 197.368 123.255 197.368C124.878 197.313 126.308 197.203 128.343 197.175C130.735 197.12 130.185 197.423 132.99 197.423C134.695 197.423 134.64 195.47 133.898 195.388C130.543 195.03 129.993 194.04 128.508 192.885C128.178 192.665 127.82 192.555 127.463 192.583Z" fill="#263238"/>
<path d="M141.817 114.84L140.91 119.213L137.142 136.978L136.537 139.893L128.177 191.565L123.172 191.345C123.172 191.345 122.072 174.68 123.557 163.598C123.686 162.718 123.823 161.883 123.97 161.095C124.685 157.383 125.097 153.615 125.042 149.848V148.775L124.877 134.503C124.877 134.503 124.217 127.573 125.427 120.093C125.73 118.223 126.142 116.325 126.747 114.483L134.42 114.675L141.817 114.84Z" fill="#0054A6"/>
<path opacity="0.2" d="M147.262 124.63L142.807 125.015C141.597 125.29 140.36 124.52 140.03 123.31L139.892 122.788L138.957 119.323L137.857 123.338C137.5 124.548 136.317 125.345 135.052 125.153L132.605 124.823L124.96 123.75C125.125 120.423 126.142 116.325 126.747 114.483L134.42 114.675C134.438 114.62 134.457 114.556 134.475 114.483L146.547 114.84L147.262 124.63Z" fill="black"/>
<path d="M126.445 105.875L124.355 121.715L135.135 123.365C136.317 123.53 137.445 122.815 137.775 121.66L138.82 117.865L139.837 121.633C140.14 122.788 141.295 123.475 142.45 123.255L147.675 122.348L146.3 103.978C146.3 103.978 147.097 92.2077 145.255 84.6727C144.897 83.2427 143.605 82.2527 142.148 81.8952C138.903 81.1252 131.862 80.1352 123.915 83.2702C123.172 83.5727 122.705 84.3427 122.815 85.1127L126.445 105.875Z" fill="#263238"/>
<path opacity="0.5" d="M138.545 99.1377C138.545 99.4127 138.325 99.6327 138.05 99.6327C137.775 99.6327 137.555 99.4127 137.555 99.1377C137.555 98.8902 137.775 98.6702 138.05 98.6702C138.325 98.6702 138.545 98.8902 138.545 99.1377Z" fill="black"/>
<path opacity="0.5" d="M139.012 105.875C139.012 106.123 138.792 106.343 138.517 106.343C138.27 106.343 138.05 106.123 138.05 105.875C138.05 105.6 138.27 105.38 138.517 105.38C138.792 105.38 139.012 105.6 139.012 105.875Z" fill="black"/>
<path opacity="0.5" d="M139.205 112.503C139.205 112.778 138.985 112.998 138.737 112.998C138.462 112.998 138.242 112.778 138.242 112.503C138.242 112.228 138.462 112.008 138.737 112.008C138.985 112.008 139.205 112.228 139.205 112.503Z" fill="black"/>
<path d="M130.735 80.9051C130.735 80.9051 133.32 79.8051 136.537 80.5201L137.72 81.1801L138.16 82.5276L136.647 83.7101L133.072 84.0676L130.13 82.8576L130.295 81.5376L130.735 80.9051Z" fill="#263238"/>
<path d="M130.432 81.5928C131.23 80.5478 131.587 79.5028 131.312 78.2378L136.647 73.8928C135.905 81.1253 136.262 79.8053 137.335 81.8678C137.335 81.8678 136.592 84.2878 132.44 83.5453C129.717 83.0503 130.432 81.5928 130.432 81.5928Z" fill="#FFB573"/>
<path opacity="0.2" d="M131.312 78.2378L136.647 73.8928C136.51 74.9378 136.4 75.8178 136.345 76.5878C135.767 77.7153 134.31 79.8328 131.285 79.9153C131.422 79.3928 131.45 78.8153 131.312 78.2378Z" fill="black"/>
<path d="M137.555 70.4827C136.785 73.9477 136.537 75.9827 134.502 77.4952C131.422 79.7777 127.38 77.4952 127.105 73.9202C126.83 70.6477 128.122 65.5602 131.725 64.7077C134.31 64.1027 136.922 65.6977 137.527 68.2827C137.72 68.9977 137.72 69.7677 137.555 70.4827Z" fill="#FFB573"/>
<path d="M131.945 70.6477C131.89 70.9227 131.725 71.1427 131.532 71.1152C131.34 71.0877 131.23 70.8127 131.285 70.5377C131.312 70.2627 131.505 70.0427 131.697 70.0702C131.89 70.0977 132 70.3727 131.945 70.6477Z" fill="#263238"/>
<path d="M128.755 70.1528C128.7 70.4278 128.507 70.6203 128.342 70.5928C128.15 70.5653 128.04 70.3178 128.067 70.0428C128.122 69.7678 128.315 69.5478 128.48 69.5753C128.672 69.6028 128.782 69.8503 128.755 70.1528Z" fill="#263238"/>
<path d="M129.91 70.4277C129.442 71.2527 128.865 71.9952 128.177 72.6552C128.617 73.2052 129.497 73.1227 129.497 73.1227L129.91 70.4277Z" fill="#ED893E"/>
<path d="M133.265 69.4928C133.283 69.4928 133.311 69.4928 133.347 69.4928C133.43 69.4378 133.457 69.3278 133.402 69.2453C133.155 68.7778 132.687 68.4478 132.165 68.3653C132.055 68.3378 131.972 68.4203 131.972 68.5028C131.972 68.6128 132.027 68.6953 132.137 68.6953C132.55 68.7503 132.907 69.0253 133.1 69.4103C133.155 69.4653 133.21 69.4928 133.265 69.4928Z" fill="#263238"/>
<path d="M127.71 68.6676C127.765 68.6676 127.82 68.6401 127.847 68.5851C128.067 68.2276 128.452 68.0076 128.892 67.9801C128.975 67.9801 129.057 67.8976 129.057 67.8151C129.057 67.7326 129.002 67.6501 128.892 67.6501C128.342 67.6501 127.847 67.9526 127.545 68.3926C127.49 68.4751 127.517 68.5851 127.6 68.6126C127.6 68.631 127.6 68.6401 127.6 68.6401C127.637 68.6585 127.673 68.6676 127.71 68.6676Z" fill="#263238"/>
<path d="M128.397 74.2501C128.397 74.2501 129.305 74.0851 131.835 74.1676C131.505 74.8276 130.927 75.3776 129.635 75.3501C128.342 75.2951 128.397 74.2501 128.397 74.2501Z" fill="#263238"/>
<path d="M130.267 74.8277C129.772 74.7727 129.277 74.8827 128.837 75.1027C129.057 75.2677 129.332 75.3502 129.635 75.3227C130.13 75.3777 130.625 75.2677 131.037 75.0477C130.817 74.8827 130.542 74.8002 130.267 74.8277Z" fill="#FF5652"/>
<path d="M128.535 74.2501C128.562 74.4151 128.727 74.5526 128.892 74.5801C129.644 74.5985 130.396 74.5618 131.147 74.4701C131.367 74.4701 131.587 74.3601 131.725 74.1676C130.662 74.1126 129.598 74.1401 128.535 74.2501Z" fill="white"/>
<path d="M130.432 85.4152L131.835 90.0352L135.135 94.7927L137.857 97.6252L138.875 93.5002L138.545 84.8652L138.49 83.0227L137.72 81.9502L136.537 83.0227L135.492 83.4077H134.007L130.047 82.2252L130.432 85.4152Z" fill="#0054A6"/>
<path opacity="0.8" d="M130.432 85.4152L131.835 90.0352L135.135 94.7927L137.857 97.6252L138.875 93.5002L138.545 84.8652L138.49 83.0227L137.72 81.9502L136.537 83.0227L135.492 83.4077H134.007L130.047 82.2252L130.432 85.4152Z" fill="#0054A6"/>
<path opacity="0.5" d="M130.432 85.4152L131.835 90.0352L135.135 94.7927L137.857 97.6252L138.875 93.5002L138.545 84.8652L138.49 83.0227L137.72 81.9502L136.537 83.0227L135.492 83.4077H134.007L130.047 82.2252L130.432 85.4152Z" fill="white"/>
<path d="M133.622 84.8652C133.622 84.8652 134.09 85.9377 135.135 86.8452C135.135 86.8452 134.475 91.5477 135.492 94.8477L137.857 97.6252L138.545 94.1877C138.545 94.1877 137.5 88.7152 136.07 86.6527C136.07 86.6527 136.675 85.5252 136.867 84.3977L136.015 83.7102C136.015 83.7102 134.832 84.5352 134.145 83.9577L133.622 84.8652Z" fill="#0054A6"/>
<path d="M130.322 81.3453C130.322 81.3453 132.522 83.1878 134.695 83.1878C136.867 83.1878 137.115 80.9053 137.115 80.9053L138.05 81.9228C138.05 81.9228 138.187 83.5178 137.28 85.2228L135.025 83.7103L133.457 85.9103C133.457 85.9103 131.037 84.7553 129.855 82.6653L130.322 81.3453Z" fill="#0054A6"/>
<path opacity="0.8" d="M130.322 81.3453C130.322 81.3453 132.522 83.1878 134.695 83.1878C136.867 83.1878 137.115 80.9053 137.115 80.9053L138.05 81.9228C138.05 81.9228 138.187 83.5178 137.28 85.2228L135.025 83.7103L133.457 85.9103C133.457 85.9103 131.037 84.7553 129.855 82.6653L130.322 81.3453Z" fill="white"/>
<path d="M130.735 80.9053C130.735 80.9053 128.947 86.4053 137.72 96.9103C137.72 96.9103 139.315 84.0403 136.537 80.5203L138.462 81.2628L140.47 84.2878L138.985 85.2228L140.8 86.0478C140.8 86.0478 140.552 90.2003 137.995 98.2303C137.995 98.2303 132.22 93.7478 128.452 87.7253L130.212 86.3228L127.847 85.9653L128.892 81.7853L130.735 80.9053Z" fill="#263238"/>
<path opacity="0.3" d="M130.735 80.9053C130.735 80.9053 128.947 86.4053 137.72 96.9103C137.72 96.9103 139.315 84.0403 136.537 80.5203L138.462 81.2628L140.47 84.2878L138.985 85.2228L140.8 86.0478C140.8 86.0478 140.552 90.2003 137.995 98.2303C137.995 98.2303 132.22 93.7478 128.452 87.7253L130.212 86.3228L127.847 85.9653L128.892 81.7853L130.735 80.9053Z" fill="black"/>
<path d="M135.85 73.4527C135.85 73.4527 134.447 74.1952 135.382 71.4452C136.29 68.7227 135.052 67.8152 134.887 66.5227C134.887 66.5227 126.885 66.7977 127.27 63.2502C127.627 59.6477 132.44 62.5352 132.44 62.5352C132.44 62.5352 132.082 60.9127 133.43 60.7477C135.217 60.5002 136.867 63.9652 139.095 65.0102C141.322 66.0277 140.085 69.4927 140.085 69.4927C140.085 69.4927 140.772 71.8027 136.675 76.2027C136.537 76.3402 136.29 76.2577 136.262 76.0652L135.85 73.4527Z" fill="#263238"/>
<path fill-rule="evenodd" clip-rule="evenodd" d="M136.317 72.8751L136.125 73.0676C136.097 73.0401 134.117 70.9226 133.347 70.3726C133.292 70.3451 133.21 70.2901 133.1 70.2351C133.118 70.3268 133.109 70.4368 133.072 70.5651C133.017 71.0326 132.742 71.5276 132.495 71.6926C132.385 71.7476 132.165 71.8026 131.945 71.8026C131.505 71.8026 130.955 71.6651 130.707 71.4451C130.432 71.1701 130.13 70.4551 130.13 69.9876C130.075 69.9051 129.992 69.8501 129.937 69.8501C129.882 69.8226 129.8 69.8501 129.772 69.8776C129.772 69.9601 129.772 70.0151 129.772 70.1251C129.69 70.5651 129.415 71.0601 129.167 71.2251C129.057 71.2801 128.865 71.3351 128.645 71.3351C128.177 71.3351 127.627 71.1976 127.407 70.9776C127.105 70.7026 126.802 69.9601 126.802 69.4926C126.802 69.3093 126.839 69.181 126.912 69.1076C127.105 68.9151 127.517 68.8326 128.012 68.8601C128.617 68.9151 129.387 69.1076 129.662 69.4651C129.69 69.5201 129.69 69.5751 129.717 69.6026C129.772 69.5751 129.855 69.5476 129.965 69.5751C130.057 69.5751 130.13 69.6026 130.185 69.6576C130.212 69.6301 130.212 69.6026 130.24 69.5751C130.432 69.3826 130.845 69.3001 131.34 69.3276C131.862 69.3826 132.495 69.5201 132.852 69.7951C133.045 69.9051 133.43 70.0976 133.512 70.1526C134.282 70.7301 136.235 72.7926 136.317 72.8751ZM129.552 69.5751C129.332 69.3001 128.672 69.0801 128.012 69.0251C127.939 69.0251 127.875 69.0251 127.82 69.0251C127.462 69.0251 127.16 69.1076 127.05 69.2176C126.995 69.2726 126.967 69.3643 126.967 69.4926C126.967 69.9601 127.27 70.6476 127.517 70.8401C127.82 71.1151 128.782 71.2526 129.085 71.0601C129.305 70.9501 129.525 70.4826 129.607 70.0976C129.635 69.8501 129.607 69.6851 129.552 69.5751ZM132.852 70.0426C132.632 69.7676 132 69.5476 131.34 69.4926C131.267 69.4926 131.193 69.4926 131.12 69.4926C130.762 69.4926 130.487 69.5751 130.35 69.6851C130.295 69.7401 130.277 69.8318 130.295 69.9601C130.295 70.4001 130.597 71.1151 130.817 71.3076C131.12 71.5826 132.11 71.7201 132.412 71.5276C132.605 71.4176 132.852 70.9501 132.935 70.5376C132.962 70.3176 132.935 70.1526 132.852 70.0426Z" fill="#263238"/>
<path d="M138.737 74.0028C138.16 74.6628 137.335 75.0753 136.455 75.1303C135.272 75.2128 134.942 74.1128 135.465 73.1228C135.932 72.2428 137.142 71.1428 138.215 71.5278C139.287 71.9128 139.452 73.1778 138.737 74.0028Z" fill="#FFB573"/>
<path opacity="0.4" d="M123.035 86.6528L125.317 99.3853L125.592 99.0553C126.857 92.5378 125.097 86.2678 125.097 86.2678L124.41 86.6528H123.035Z" fill="black"/>
<path d="M108.597 96.3328L105.93 94.1878C105.93 94.1878 105.242 92.5653 104.912 92.0978C104.555 91.6028 103.757 90.4753 103.152 90.3653C102.52 90.2553 101.145 90.9703 100.815 91.5478C100.375 92.2903 100.457 94.2978 100.98 94.9853C101.53 95.7278 104.417 96.2228 104.417 96.2228L107.057 98.5328L108.597 96.3328Z" fill="#FFB573"/>
<path d="M109.037 96.0852L106.727 94.3252L104.555 96.9927L107.085 99.0827L109.037 96.0852Z" fill="#0054A6"/>
<path opacity="0.8" d="M109.037 96.0852L106.727 94.3252L104.555 96.9927L107.085 99.0827L109.037 96.0852Z" fill="white"/>
<path d="M123.447 83.8204C123.227 83.5729 122.485 83.9029 122.32 84.1779C121.687 85.0304 118.277 93.4179 116.93 96.7454C116.6 97.5154 115.747 97.9279 114.95 97.7079C113.3 97.2679 110.522 96.3879 108.24 95.2329L105.297 97.9279C105.297 97.9279 112.97 104.06 117.205 104.06C121.082 104.06 124.712 95.8654 125.455 91.6579C126.06 88.3854 125.015 85.6904 123.447 83.8204Z" fill="#263238"/>
<path d="M179.822 84.8378L166.512 83.5728C166.512 83.5728 162.992 89.1003 161.48 101.695L174.817 102.96C176.165 91.9878 179.135 86.1303 179.822 84.8378Z" fill="#0054A6"/>
<path opacity="0.4" d="M179.822 84.8378L166.512 83.5728C166.512 83.5728 162.992 89.1003 161.48 101.695L174.817 102.96C176.165 91.9878 179.135 86.1303 179.822 84.8378Z" fill="white"/>
<path d="M179.822 84.8378L166.512 83.5728C166.512 83.5728 163.46 88.6328 161.975 101.228L175.312 102.465C176.66 91.4928 179.135 86.1303 179.822 84.8378Z" fill="#0054A6"/>
<path opacity="0.7" d="M179.822 84.8378L166.512 83.5728C166.512 83.5728 163.46 88.6328 161.975 101.228L175.312 102.465C176.66 91.4928 179.135 86.1303 179.822 84.8378Z" fill="white"/>
<path d="M168.272 83.6828C168.052 83.4078 167.667 83.3253 167.365 83.5178L166.072 84.4252C165.77 84.6452 165.687 85.0303 165.907 85.3328C166.1 85.6353 166.512 85.6902 166.815 85.4977C166.842 85.4702 166.87 85.3878 166.842 85.3328C166.787 85.3053 166.732 85.2778 166.677 85.3053C166.485 85.4428 166.21 85.4153 166.072 85.1953C165.935 85.0028 165.99 84.7553 166.182 84.6178L167.502 83.7102C167.695 83.5727 167.942 83.6278 168.08 83.8203C168.217 84.0128 168.19 84.2877 167.97 84.4252L167.53 84.7278L167.282 84.8928L167.227 84.9203C167.117 85.0028 166.98 84.9753 166.897 84.8653C166.815 84.7553 166.842 84.6177 166.952 84.5352L167.557 84.1227C167.612 84.0677 167.612 84.0128 167.585 83.9578C167.557 83.9028 167.475 83.9028 167.447 83.9303L166.842 84.3428C166.622 84.4803 166.567 84.7828 166.705 85.0028C166.87 85.1953 167.145 85.2502 167.365 85.1127L167.42 85.0578L167.667 84.8928L168.107 84.5903C168.41 84.3978 168.465 83.9853 168.272 83.6828Z" fill="#0054A6"/>
<path d="M30.9276 96.8927L28.6726 94.3077C28.6726 94.3077 28.2876 92.6027 28.0401 92.0802C27.7651 91.5027 27.2151 90.2652 26.6376 90.0727C26.0051 89.8527 24.5201 90.3202 24.1076 90.8152C23.5301 91.4752 23.2826 93.4552 23.6676 94.2527C24.0526 95.0502 26.8301 96.0677 26.8301 96.0677L29.0301 98.7902L30.9276 96.8927Z" fill="#FFB573"/>
<path d="M31.4226 96.7276L29.4426 94.6101L26.8301 96.8376L28.9476 99.3401L31.4226 96.7276Z" fill="#0054A6"/>
<path opacity="0.8" d="M31.4226 96.7276L29.4426 94.6101L26.8301 96.8376L28.9476 99.3401L31.4226 96.7276Z" fill="white"/>
<path d="M45.4751 84.1877C45.4751 84.1877 43.4126 86.5252 40.4701 94.1427C37.5001 101.76 34.2276 99.5327 30.6251 95.4352L27.6826 98.1302C27.6826 98.1302 33.2101 105.005 36.6751 105.005C40.5526 105.005 44.3201 99.0102 45.0626 94.8027C45.8326 90.6227 45.4751 84.1877 45.4751 84.1877Z" fill="#263238"/>
<path opacity="0.4" d="M44.7326 88.5877L45.8326 87.6802L46.355 90.6227C46.2725 91.4477 46.19 92.3002 46.0525 93.0427C45.6125 95.4352 43.9901 98.5702 42.2576 101.183C42.8901 95.3802 44.7326 88.5877 44.7326 88.5877Z" fill="black"/>
<path d="M60.4076 66.3401C60.4076 66.3401 61.9751 66.3126 61.7551 67.5501C61.5076 69.0901 56.2001 68.6501 56.2001 68.6501L57.6026 66.7801L60.4076 66.3401Z" fill="#263238"/>
<path d="M38.5725 186.763L38.05 193.968H41.2401L42.8076 187.01L38.5725 186.763Z" fill="#FFB573"/>
<path d="M37.7475 193.583H41.68C41.845 193.583 41.9551 193.693 41.9826 193.858L42.6425 197.653C42.67 197.983 42.395 198.285 42.065 198.368C42.01 198.368 41.9642 198.368 41.9275 198.368C40.305 198.313 38.875 198.203 36.8675 198.175C34.475 198.12 35.025 198.423 32.1925 198.423C30.4875 198.423 30.57 196.47 31.3125 196.388C34.6675 196.03 35.19 195.04 36.7025 193.885C37.005 193.665 37.39 193.555 37.7475 193.583Z" fill="#263238"/>
<path d="M37.39 192.455L42.4225 192.703C42.4225 192.703 47.4825 174.635 48.4175 163.69C48.4909 162.92 48.5367 162.196 48.555 161.518C48.665 158.3 48.995 155.11 49.6825 152.003L49.9025 150.903L52.68 137.978L53.2025 135.503C53.2025 135.503 56.3375 130.25 56.2275 122.248C56.2 120.213 55.9525 118.013 55.4025 115.675C55.3842 115.62 55.3659 115.556 55.3475 115.483L43.275 115.84L42.8076 121.808L37.39 192.455Z" fill="#0054A6"/>
<path opacity="0.2" d="M51.47 143.643C49.7926 135.255 50.6175 125.3 50.6175 125.3L53.0925 126.29L54.7701 130.91C54.7701 130.91 54.77 131.295 54.7425 131.9C53.9725 134.21 53.2026 135.503 53.2026 135.503L51.47 143.643Z" fill="black"/>
<path d="M61.5901 186.763L62.6351 193.968H65.8251V187.01L61.5901 186.763Z" fill="#FFB573"/>
<path d="M62.36 193.583H66.2925C66.4575 193.583 66.595 193.693 66.595 193.858L67.2825 197.653C67.2825 197.983 67.035 198.285 66.6775 198.368C66.6408 198.368 66.6041 198.368 66.5675 198.368C64.945 198.313 63.515 198.203 61.48 198.175C59.0875 198.12 59.6375 198.423 56.8325 198.423C55.1275 198.423 55.1825 196.47 55.925 196.388C59.28 196.03 59.83 195.04 61.315 193.885C61.645 193.665 62.0025 193.555 62.36 193.583Z" fill="#263238"/>
<path d="M48.005 115.84L48.9125 120.213L52.68 137.978L53.285 140.893L61.645 192.565L66.65 192.345C66.65 192.345 67.75 175.68 66.265 164.598C66.1367 163.718 65.9992 162.883 65.8525 162.095C65.1375 158.383 64.725 154.615 64.78 150.848V149.775L64.945 135.503C64.945 135.503 65.605 128.573 64.395 121.093C64.0925 119.223 63.68 117.325 63.075 115.483L55.4025 115.675L48.005 115.84Z" fill="#0054A6"/>
<path opacity="0.2" d="M42.5601 125.63L47.0151 126.015C48.2251 126.29 49.4626 125.52 49.7926 124.31L49.9301 123.788L50.8651 120.323L51.9651 124.338C52.3226 125.548 53.5051 126.345 54.7701 126.153L57.2176 125.823L64.8626 124.75C64.6976 121.423 63.6801 117.325 63.0751 115.483L55.4026 115.675C55.3843 115.62 55.3659 115.556 55.3476 115.483L43.2751 115.84L42.5601 125.63Z" fill="black"/>
<path d="M63.3775 106.875L65.4675 122.715L54.6875 124.365C53.505 124.53 52.3775 123.815 52.0475 122.66L51.0025 118.865L49.985 122.633C49.6825 123.788 48.5275 124.475 47.3725 124.255L42.1475 123.348L43.5225 104.978C43.5225 104.978 42.725 93.2077 44.5675 85.6727C44.925 84.2427 46.2175 83.2527 47.675 82.8952C50.92 82.1252 57.96 81.1352 65.9075 84.2702C66.65 84.5727 67.1175 85.3427 67.0075 86.1127L63.3775 106.875Z" fill="#263238"/>
<path opacity="0.5" d="M51.2776 100.138C51.2776 100.413 51.4976 100.633 51.7726 100.633C52.0476 100.633 52.2676 100.413 52.2676 100.138C52.2676 99.8902 52.0476 99.6702 51.7726 99.6702C51.4976 99.6702 51.2776 99.8902 51.2776 100.138Z" fill="black"/>
<path opacity="0.5" d="M50.8101 106.875C50.8101 107.123 51.0301 107.343 51.3051 107.343C51.5526 107.343 51.7726 107.123 51.7726 106.875C51.7726 106.6 51.5526 106.38 51.3051 106.38C51.0301 106.38 50.8101 106.6 50.8101 106.875Z" fill="black"/>
<path opacity="0.5" d="M50.6175 113.503C50.6175 113.778 50.8376 113.998 51.0851 113.998C51.3601 113.998 51.58 113.778 51.58 113.503C51.58 113.228 51.3601 113.008 51.0851 113.008C50.8376 113.008 50.6175 113.228 50.6175 113.503Z" fill="black"/>
<path d="M59.0875 81.9051C59.0875 81.9051 56.5025 80.8051 53.285 81.5201L52.1025 82.1801L51.6625 83.5276L53.175 84.7101L56.75 85.0676L59.6925 83.8576L59.5275 82.5376L59.0875 81.9051Z" fill="#263238"/>
<path d="M59.3901 82.5928C58.5926 81.5478 58.2351 80.5028 58.5101 79.2378L53.1751 74.8928C53.9176 82.1253 53.5601 80.8053 52.4876 82.8678C52.4876 82.8678 53.2301 85.2878 57.3826 84.5453C60.1051 84.0503 59.3901 82.5928 59.3901 82.5928Z" fill="#FFB573"/>
<path opacity="0.2" d="M58.5101 79.2378L53.1751 74.8928C53.3126 75.9378 53.4226 76.8178 53.4776 77.5878C54.0551 78.7153 55.5126 80.8328 58.5376 80.9153C58.4001 80.3928 58.3726 79.8153 58.5101 79.2378Z" fill="black"/>
<path d="M52.2676 71.4827C53.0376 74.9477 53.2851 76.9827 55.3201 78.4952C58.4001 80.7777 62.4426 78.4952 62.7176 74.9202C62.9926 71.6477 61.7001 66.5602 58.0976 65.7077C55.5126 65.1027 52.9001 66.6977 52.2951 69.2827C52.1026 69.9977 52.1026 70.7677 52.2676 71.4827Z" fill="#FFB573"/>
<path d="M57.8776 71.6477C57.9326 71.9227 58.0976 72.1427 58.2901 72.1152C58.4826 72.0877 58.5926 71.8127 58.5376 71.5377C58.5101 71.2627 58.3176 71.0427 58.1251 71.0702C57.9326 71.0977 57.8226 71.3727 57.8776 71.6477Z" fill="#263238"/>
<path d="M61.0675 71.1528C61.1225 71.4278 61.315 71.6203 61.48 71.5928C61.6725 71.5653 61.7825 71.3178 61.755 71.0428C61.7 70.7678 61.5075 70.5478 61.3425 70.5753C61.15 70.6028 61.04 70.8503 61.0675 71.1528Z" fill="#263238"/>
<path d="M59.9126 71.4277C60.3801 72.2527 60.9576 72.9952 61.6451 73.6552C61.2051 74.2052 60.3251 74.1227 60.3251 74.1227L59.9126 71.4277Z" fill="#ED893E"/>
<path d="M56.5576 70.4928C56.5393 70.4928 56.5118 70.4928 56.4751 70.4928C56.3926 70.4378 56.3651 70.3278 56.4201 70.2453C56.6676 69.7778 57.1351 69.4478 57.6576 69.3653C57.7676 69.3378 57.8501 69.4203 57.8501 69.5028C57.8501 69.6128 57.7951 69.6953 57.6851 69.6953C57.2726 69.7503 56.9151 70.0253 56.7226 70.4103C56.6676 70.4653 56.6126 70.4928 56.5576 70.4928Z" fill="#263238"/>
<path d="M62.1126 69.6676C62.0576 69.6676 62.0026 69.6401 61.9751 69.5851C61.7551 69.2276 61.3701 69.0076 60.9301 68.9801C60.8476 68.9801 60.7651 68.8976 60.7651 68.8151C60.7651 68.7326 60.8201 68.6501 60.9301 68.6501C61.4801 68.6501 61.9751 68.9526 62.2776 69.3926C62.3326 69.4751 62.3051 69.5851 62.2226 69.6126C62.2226 69.631 62.2226 69.6401 62.2226 69.6401C62.1859 69.6585 62.1493 69.6676 62.1126 69.6676Z" fill="#263238"/>
<path d="M61.4251 75.2501C61.4251 75.2501 60.5176 75.0851 57.9876 75.1676C58.3176 75.8276 58.8951 76.3776 60.1876 76.3501C61.4801 76.2951 61.4251 75.2501 61.4251 75.2501Z" fill="#263238"/>
<path d="M59.555 75.8277C60.05 75.7727 60.545 75.8827 60.985 76.1027C60.765 76.2677 60.49 76.3502 60.1875 76.3227C59.6925 76.3777 59.1975 76.2677 58.785 76.0477C59.005 75.8827 59.28 75.8002 59.555 75.8277Z" fill="#FF5652"/>
<path d="M61.2875 75.2501C61.26 75.4151 61.095 75.5526 60.93 75.5801C60.1784 75.5985 59.4267 75.5618 58.675 75.4701C58.455 75.4701 58.235 75.3601 58.0975 75.1676C59.1609 75.1126 60.2242 75.1401 61.2875 75.2501Z" fill="white"/>
<path d="M59.3901 86.4152L57.9876 91.0352L54.6876 95.7927L51.9651 98.6252L50.9476 94.5002L51.2776 85.8652L51.3326 84.0227L52.1026 82.9502L53.2851 84.0227L54.3301 84.4077H55.8151L59.7751 83.2252L59.3901 86.4152Z" fill="#0054A6"/>
<path opacity="0.8" d="M59.3901 86.4152L57.9876 91.0352L54.6876 95.7927L51.9651 98.6252L50.9476 94.5002L51.2776 85.8652L51.3326 84.0227L52.1026 82.9502L53.2851 84.0227L54.3301 84.4077H55.8151L59.7751 83.2252L59.3901 86.4152Z" fill="#0054A6"/>
<path opacity="0.5" d="M59.3901 86.4152L57.9876 91.0352L54.6876 95.7927L51.9651 98.6252L50.9476 94.5002L51.2776 85.8652L51.3326 84.0227L52.1026 82.9502L53.2851 84.0227L54.3301 84.4077H55.8151L59.7751 83.2252L59.3901 86.4152Z" fill="white"/>
<path d="M56.2001 85.8652C56.2001 85.8652 55.7326 86.9377 54.6876 87.8452C54.6876 87.8452 55.3476 92.5477 54.3301 95.8477L51.9651 98.6252L51.2776 95.1877C51.2776 95.1877 52.3226 89.7152 53.7526 87.6527C53.7526 87.6527 53.1476 86.5252 52.9551 85.3977L53.8076 84.7102C53.8076 84.7102 54.9901 85.5352 55.6776 84.9577L56.2001 85.8652Z" fill="#0054A6"/>
<path d="M59.5002 82.3453C59.5002 82.3453 57.3002 84.1878 55.1277 84.1878C52.9552 84.1878 52.7077 81.9053 52.7077 81.9053L51.7727 82.9228C51.7727 82.9228 51.6352 84.5178 52.5427 86.2228L54.7977 84.7103L56.3652 86.9103C56.3652 86.9103 58.7852 85.7553 59.9677 83.6653L59.5002 82.3453Z" fill="#0054A6"/>
<path opacity="0.8" d="M59.5002 82.3453C59.5002 82.3453 57.3002 84.1878 55.1277 84.1878C52.9552 84.1878 52.7077 81.9053 52.7077 81.9053L51.7727 82.9228C51.7727 82.9228 51.6352 84.5178 52.5427 86.2228L54.7977 84.7103L56.3652 86.9103C56.3652 86.9103 58.7852 85.7553 59.9677 83.6653L59.5002 82.3453Z" fill="white"/>
<path d="M59.0876 81.9053C59.0876 81.9053 60.8751 87.4053 52.1026 97.9103C52.1026 97.9103 50.5076 85.0403 53.2851 81.5203L51.3601 82.2628L49.3526 85.2878L50.8376 86.2228L49.0226 87.0478C49.0226 87.0478 49.2701 91.2003 51.8276 99.2303C51.8276 99.2303 57.6026 94.7478 61.3701 88.7253L59.6101 87.3228L61.9751 86.9653L60.9301 82.7853L59.0876 81.9053Z" fill="#263238"/>
<path opacity="0.3" d="M59.0876 81.9053C59.0876 81.9053 60.8751 87.4053 52.1026 97.9103C52.1026 97.9103 50.5076 85.0403 53.2851 81.5203L51.3601 82.2628L49.3526 85.2878L50.8376 86.2228L49.0226 87.0478C49.0226 87.0478 49.2701 91.2003 51.8276 99.2303C51.8276 99.2303 57.6026 94.7478 61.3701 88.7253L59.6101 87.3228L61.9751 86.9653L60.9301 82.7853L59.0876 81.9053Z" fill="black"/>
<path d="M53.9725 74.4527C53.9725 74.4527 55.375 75.1952 54.44 72.4452C53.5325 69.7227 54.77 68.8152 54.935 67.5227C54.935 67.5227 62.9375 67.7977 62.5525 64.2502C62.195 60.6477 57.3825 63.5352 57.3825 63.5352C57.3825 63.5352 57.74 61.9127 56.3925 61.7477C54.605 61.5002 52.955 64.9652 50.7275 66.0102C48.5 67.0277 49.7375 70.4927 49.7375 70.4927C49.7375 70.4927 49.05 72.8027 53.1475 77.2027C53.285 77.3402 53.5325 77.2577 53.56 77.0652L53.9725 74.4527Z" fill="#263238"/>
<path fill-rule="evenodd" clip-rule="evenodd" d="M53.505 73.8751L53.6975 74.0676C53.725 74.0401 55.705 71.9226 56.475 71.3726C56.53 71.3451 56.6125 71.2901 56.7225 71.2351C56.7042 71.3268 56.7134 71.4368 56.75 71.5651C56.805 72.0326 57.08 72.5276 57.3275 72.6926C57.4375 72.7476 57.6575 72.8026 57.8775 72.8026C58.3175 72.8026 58.8675 72.6651 59.115 72.4451C59.39 72.1701 59.6925 71.4551 59.6925 70.9876C59.7475 70.9051 59.83 70.8501 59.885 70.8501C59.94 70.8226 60.0225 70.8501 60.05 70.8776C60.05 70.9601 60.05 71.0151 60.05 71.1251C60.1325 71.5651 60.4075 72.0601 60.655 72.2251C60.765 72.2801 60.9575 72.3351 61.1775 72.3351C61.645 72.3351 62.195 72.1976 62.415 71.9776C62.7175 71.7026 63.02 70.9601 63.02 70.4926C63.02 70.3093 62.9834 70.181 62.91 70.1076C62.7175 69.9151 62.305 69.8326 61.81 69.8601C61.205 69.9151 60.435 70.1076 60.16 70.4651C60.1325 70.5201 60.1325 70.5751 60.105 70.6026C60.05 70.5751 59.9675 70.5476 59.8575 70.5751C59.7659 70.5751 59.6925 70.6026 59.6375 70.6576C59.61 70.6301 59.61 70.6026 59.5825 70.5751C59.39 70.3826 58.9775 70.3001 58.4825 70.3276C57.96 70.3826 57.3275 70.5201 56.97 70.7951C56.7775 70.9051 56.3925 71.0976 56.31 71.1526C55.54 71.7301 53.5875 73.7926 53.505 73.8751ZM60.27 70.5751C60.49 70.3001 61.15 70.0801 61.81 70.0251C61.8834 70.0251 61.9475 70.0251 62.0025 70.0251C62.36 70.0251 62.6625 70.1076 62.7725 70.2176C62.8275 70.2726 62.855 70.3643 62.855 70.4926C62.855 70.9601 62.5525 71.6476 62.305 71.8401C62.0025 72.1151 61.04 72.2526 60.7375 72.0601C60.5175 71.9501 60.2975 71.4826 60.215 71.0976C60.1875 70.8501 60.215 70.6851 60.27 70.5751ZM56.97 71.0426C57.19 70.7676 57.8225 70.5476 58.4825 70.4926C58.5559 70.4926 58.6292 70.4926 58.7025 70.4926C59.06 70.4926 59.335 70.5751 59.4725 70.6851C59.5275 70.7401 59.5459 70.8318 59.5275 70.9601C59.5275 71.4001 59.225 72.1151 59.005 72.3076C58.7025 72.5826 57.7125 72.7201 57.41 72.5276C57.2175 72.4176 56.97 71.9501 56.8875 71.5376C56.86 71.3176 56.8875 71.1526 56.97 71.0426Z" fill="#263238"/>
<path d="M51.0851 75.0028C51.6626 75.6628 52.4876 76.0753 53.3676 76.1303C54.5501 76.2128 54.8801 75.1128 54.3576 74.1228C53.8901 73.2428 52.6801 72.1428 51.6076 72.5278C50.5351 72.9128 50.3701 74.1778 51.0851 75.0028Z" fill="#FFB573"/>
<path opacity="0.4" d="M66.7875 87.6528L64.505 100.385L64.23 100.055C62.965 93.5378 64.725 87.2678 64.725 87.2678L65.4125 87.6528H66.7875Z" fill="black"/>
<path d="M81.2251 97.3328L83.8926 95.1878C83.8926 95.1878 84.5801 93.5653 84.9101 93.0978C85.2676 92.6028 86.0651 91.4753 86.6701 91.3653C87.3026 91.2553 88.6776 91.9703 89.0076 92.5478C89.4476 93.2903 89.3651 95.2978 88.8426 95.9853C88.2926 96.7278 85.4051 97.2228 85.4051 97.2228L82.7651 99.5328L81.2251 97.3328Z" fill="#FFB573"/>
<path d="M80.785 97.0852L83.095 95.3252L85.2675 97.9927L82.7375 100.083L80.785 97.0852Z" fill="#0054A6"/>
<path opacity="0.8" d="M80.785 97.0852L83.095 95.3252L85.2675 97.9927L82.7375 100.083L80.785 97.0852Z" fill="white"/>
<path d="M66.3751 84.8204C66.5951 84.5729 67.3376 84.9029 67.5026 85.1779C68.1351 86.0304 71.5451 94.4179 72.8926 97.7454C73.2226 98.5154 74.0751 98.9279 74.8726 98.7079C76.5226 98.2679 79.3001 97.3879 81.5826 96.2329L84.5251 98.9279C84.5251 98.9279 76.8526 105.06 72.6176 105.06C68.7401 105.06 65.1101 96.8654 64.3676 92.6579C63.7626 89.3854 64.8076 86.6904 66.3751 84.8204Z" fill="#263238"/>
<path d="M209.137 44.5499C209.137 40.0949 204.765 36.4924 199.348 36.4924C193.958 36.4924 189.557 40.0949 189.557 44.5499C189.557 49.0049 193.958 52.6074 199.348 52.6074C199.898 52.6074 200.429 52.5708 200.943 52.4974L204.93 54.5874L204.545 51.3974C207.322 49.9674 209.137 47.4374 209.137 44.5499Z" fill="#0054A6"/>
<path opacity="0.5" d="M209.137 44.5499C209.137 40.0949 204.765 36.4924 199.348 36.4924C193.958 36.4924 189.557 40.0949 189.557 44.5499C189.557 49.0049 193.958 52.6074 199.348 52.6074C199.898 52.6074 200.429 52.5708 200.943 52.4974L204.93 54.5874L204.545 51.3974C207.322 49.9674 209.137 47.4374 209.137 44.5499Z" fill="white"/>
<path d="M202.483 44.9899C202.483 43.3399 201.135 41.9924 199.458 42.0199C197.973 42.0474 196.598 43.3949 196.543 44.9074C196.515 45.8699 196.955 46.7499 197.67 47.3274C198.083 47.6299 198.358 48.0699 198.44 48.5649V48.6474C198.495 49.0049 198.798 49.2524 199.155 49.2524H199.87C200.228 49.2524 200.53 49.0049 200.585 48.6474V48.5649C200.668 48.0974 200.943 47.6299 201.328 47.3274C202.043 46.8049 202.483 45.9524 202.483 44.9899Z" fill="white"/>
<path d="M199.677 50.5174H199.347C198.907 50.5174 198.55 50.1599 198.55 49.7199C198.55 49.5824 198.66 49.4724 198.797 49.4724H200.227C200.365 49.4724 200.475 49.5824 200.475 49.7199C200.475 50.1599 200.117 50.5174 199.677 50.5174Z" fill="#0054A6"/>
<path opacity="0.2" d="M199.677 50.5174H199.347C198.907 50.5174 198.55 50.1599 198.55 49.7199C198.55 49.5824 198.66 49.4724 198.797 49.4724H200.227C200.365 49.4724 200.475 49.5824 200.475 49.7199C200.475 50.1599 200.117 50.5174 199.677 50.5174Z" fill="white"/>
<path d="M200.365 47.3823L200.062 47.2998L200.447 45.8423L200.062 46.0623L200.035 45.6223L199.512 46.0073L198.99 45.6223L198.962 46.0623L198.577 45.8423L198.962 47.2998L198.66 47.3823L198.055 45.1823L198.687 45.5398L198.715 45.0173L199.512 45.6223L200.31 45.0173L200.337 45.5398L200.97 45.1823L200.365 47.3823Z" fill="#0054A6"/>
<g opacity="0.5">
<path d="M200.365 47.3823L200.062 47.2998L200.447 45.8423L200.062 46.0623L200.035 45.6223L199.512 46.0073L198.99 45.6223L198.962 46.0623L198.577 45.8423L198.962 47.2998L198.66 47.3823L198.055 45.1823L198.687 45.5398L198.715 45.0173L199.512 45.6223L200.31 45.0173L200.337 45.5398L200.97 45.1823L200.365 47.3823Z" fill="white"/>
</g>
<path d="M199.705 41.3599H199.32V38.8574H199.705V41.3599Z" fill="white"/>
<path d="M205.755 45.2923H203.253V44.9348H205.755V45.2923Z" fill="white"/>
<path d="M195.773 45.2923H193.27V44.9348H195.773V45.2923Z" fill="white"/>
<path d="M202.29 42.5973L202.043 42.3223L203.803 40.5623L204.05 40.8373L202.29 42.5973Z" fill="white"/>
<path d="M195.222 49.6649L194.975 49.3899L196.735 47.6299L196.982 47.8774L195.222 49.6649Z" fill="white"/>
<path d="M203.803 49.6649L202.043 47.8774L202.29 47.6299L204.05 49.3899L203.803 49.6649Z" fill="white"/>
<path d="M196.735 42.5973L194.975 40.8373L195.222 40.5623L196.982 42.3223L196.735 42.5973Z" fill="white"/>
<path d="M54.6151 48.5099C54.6151 42.7074 60.3351 38.0049 67.4026 38.0049C74.4426 38.0049 80.1625 42.7074 80.1625 48.5099C80.1625 54.3124 74.4426 59.0149 67.4026 59.0149C66.6876 59.0149 65.9909 58.969 65.3125 58.8774L61.2151 61.5724L60.61 57.4199C57.0075 55.5774 54.6151 52.2774 54.6151 48.5099Z" fill="#0054A6"/>
<path opacity="0.5" d="M54.6151 48.5099C54.6151 42.7074 60.3351 38.0049 67.4026 38.0049C74.4426 38.0049 80.1625 42.7074 80.1625 48.5099C80.1625 54.3124 74.4426 59.0149 67.4026 59.0149C66.6876 59.0149 65.9909 58.969 65.3125 58.8774L61.2151 61.5724L60.61 57.4199C57.0075 55.5774 54.6151 52.2774 54.6151 48.5099Z" fill="white"/>
<path d="M63.305 49.0599C63.305 46.9149 65.065 45.1549 67.2375 45.1824C69.19 45.2374 71.005 46.9974 71.06 48.9499C71.0875 50.2424 70.51 51.3699 69.575 52.1124C69.0525 52.5249 68.695 53.1024 68.585 53.7624V53.8449C68.5025 54.3124 68.1175 54.6424 67.65 54.6424H66.715C66.2475 54.6424 65.8625 54.3124 65.78 53.8449V53.7624C65.67 53.1024 65.34 52.5249 64.8175 52.1399C63.91 51.4249 63.305 50.3249 63.305 49.0599Z" fill="white"/>
<path d="M66.9625 56.2925H67.4025C67.98 56.2925 68.4475 55.825 68.4475 55.275V55.2475C68.4475 55.055 68.2825 54.9175 68.1175 54.9175H66.2475C66.0825 54.9175 65.945 55.055 65.945 55.2475V55.275C65.945 55.825 66.385 56.2925 66.9625 56.2925Z" fill="#0054A6"/>
<path opacity="0.2" d="M66.9625 56.2925H67.4025C67.98 56.2925 68.4475 55.825 68.4475 55.275V55.2475C68.4475 55.055 68.2825 54.9175 68.1175 54.9175H66.2475C66.0825 54.9175 65.945 55.055 65.945 55.2475V55.275C65.945 55.825 66.385 56.2925 66.9625 56.2925Z" fill="white"/>
<path d="M66.0826 52.195L66.4676 52.085L65.9726 50.1875L66.4676 50.49L66.4951 49.9125L67.1826 50.4075L67.8701 49.9125L67.8976 50.49L68.3926 50.1875L67.8976 52.085L68.2826 52.195L69.0801 49.3075L68.2826 49.8025L68.2001 49.115L67.1826 49.885L66.1651 49.115L66.1101 49.8025L65.2851 49.3075L66.0826 52.195Z" fill="#0054A6"/>
<g opacity="0.5">
<path d="M66.0826 52.195L66.4676 52.085L65.9726 50.1875L66.4676 50.49L66.4951 49.9125L67.1826 50.4075L67.8701 49.9125L67.8976 50.49L68.3926 50.1875L67.8976 52.085L68.2826 52.195L69.0801 49.3075L68.2826 49.8025L68.2001 49.115L67.1826 49.885L66.1651 49.115L66.1101 49.8025L65.2851 49.3075L66.0826 52.195Z" fill="white"/>
</g>
<path d="M66.935 44.3575H67.43V41.085H66.935V44.3575Z" fill="white"/>
<path d="M59.0425 49.4724H62.2875V49.0049H59.0425V49.4724Z" fill="white"/>
<path d="M72.0775 49.4724H75.3225V49.0049H72.0775V49.4724Z" fill="white"/>
<path d="M63.5525 45.9525L63.91 45.6225L61.6 43.3125L61.27 43.6425L63.5525 45.9525Z" fill="white"/>
<path d="M72.765 55.1649L73.095 54.8074L70.8125 52.5249L70.455 52.8549L72.765 55.1649Z" fill="white"/>
<path d="M61.6 55.1649L63.91 52.8549L63.5525 52.5249L61.27 54.8074L61.6 55.1649Z" fill="white"/>
<path d="M70.8125 45.9525L73.095 43.6425L72.765 43.3125L70.455 45.6225L70.8125 45.9525Z" fill="white"/>
<path d="M108.762 132.138C108.46 132.138 108.185 131.89 108.185 131.588C108.185 131.258 108.46 131.01 108.762 131.01H124.107C124.41 131.01 124.657 131.258 124.657 131.588C124.657 131.89 124.41 132.138 124.107 132.138H108.762Z" fill="#0054A6"/>
<path opacity="0.5" d="M108.762 132.138C108.46 132.138 108.185 131.89 108.185 131.588C108.185 131.258 108.46 131.01 108.762 131.01H124.107C124.41 131.01 124.657 131.258 124.657 131.588C124.657 131.89 124.41 132.138 124.107 132.138H108.762Z" fill="white"/>
<path d="M110.055 131.175L108.02 116.628C107.938 116.105 107.443 115.665 106.92 115.665H104.968V132.138H109.23C109.753 132.138 110.138 131.698 110.055 131.175Z" fill="#0054A6"/>
<path opacity="0.6" d="M110.055 131.175L108.02 116.628C107.938 116.105 107.443 115.665 106.92 115.665H104.968V132.138H109.23C109.753 132.138 110.138 131.698 110.055 131.175Z" fill="white"/>
<path d="M108.378 132.138H91.0525C90.5025 132.138 90.0075 131.698 89.9525 131.175L87.89 116.628C87.835 116.105 88.1925 115.665 88.7425 115.665H106.068C106.618 115.665 107.113 116.105 107.168 116.628L109.23 131.175C109.285 131.698 108.928 132.138 108.378 132.138Z" fill="#0054A6"/>
<path opacity="0.5" d="M108.378 132.138H91.0525C90.5025 132.138 90.0075 131.698 89.9525 131.175L87.89 116.628C87.835 116.105 88.1925 115.665 88.7425 115.665H106.068C106.618 115.665 107.113 116.105 107.168 116.628L109.23 131.175C109.285 131.698 108.928 132.138 108.378 132.138Z" fill="white"/>
<path opacity="0.7" d="M99.99 124.658C100.128 125.483 99.55 126.143 98.725 126.143C97.9 126.143 97.13 125.483 97.02 124.658C96.91 123.833 97.46 123.173 98.285 123.173C99.11 123.173 99.88 123.833 99.99 124.658Z" fill="white"/>
<path d="M188.732 197.422H187.302L185.432 135.74H187.33L188.732 197.422Z" fill="#263238"/>
<path opacity="0.6" d="M188.732 197.422H187.302L185.432 135.74H187.33L188.732 197.422Z" fill="white"/>
<path d="M165.55 135.74V197.422H167.063L168.85 138.545H187.22L188.568 197.422H190.08V135.74H165.55Z" fill="#263238"/>
<path opacity="0.4" d="M165.55 135.74V197.422H167.063L168.85 138.545H187.22L188.568 197.422H190.08V135.74H165.55Z" fill="white"/>
<path d="M165.55 197.422H164.093L163.653 135.74H165.55V197.422Z" fill="#263238"/>
<path opacity="0.6" d="M165.55 197.422H164.093L163.653 135.74H165.55V197.422Z" fill="white"/>
<path d="M110.688 197.422H109.258L107.388 135.74H109.285L110.688 197.422Z" fill="#263238"/>
<path opacity="0.6" d="M110.688 197.422H109.258L107.388 135.74H109.285L110.688 197.422Z" fill="white"/>
<path d="M87.505 135.74V197.422H89.0175L90.805 138.545H109.175L110.523 197.422H112.035V135.74H87.505Z" fill="#263238"/>
<path opacity="0.4" d="M87.505 135.74V197.422H89.0175L90.805 138.545H109.175L110.523 197.422H112.035V135.74H87.505Z" fill="white"/>
<path d="M87.505 197.422H86.075L85.6075 135.74H87.505V197.422Z" fill="#263238"/>
<path opacity="0.6" d="M87.505 197.422H86.075L85.6075 135.74H87.505V197.422Z" fill="white"/>
<path d="M164.368 135.74H83.0776V132.192H164.368V135.74Z" fill="#263238"/>
<path opacity="0.4" d="M164.368 135.74H83.0776V132.192H164.368V135.74Z" fill="white"/>
<path d="M192.583 135.74H162.14V132.192H192.583V135.74Z" fill="#263238"/>
<path opacity="0.3" d="M192.583 135.74H162.14V132.192H192.583V135.74Z" fill="white"/>
<path d="M177.292 132.275H157.135C156.612 132.275 156.117 131.835 156.035 131.312L154 116.82C153.945 116.297 154.302 115.857 154.825 115.857H175.01C175.532 115.857 176.027 116.297 176.11 116.82L178.145 131.312C178.2 131.835 177.842 132.275 177.292 132.275Z" fill="#0054A6"/>
<path opacity="0.5" d="M177.292 132.275H157.135C156.612 132.275 156.117 131.835 156.035 131.312L154 116.82C153.945 116.297 154.302 115.857 154.825 115.857H175.01C175.532 115.857 176.027 116.297 176.11 116.82L178.145 131.312C178.2 131.835 177.842 132.275 177.292 132.275Z" fill="white"/>
<path d="M176.055 130.102L158.125 130.02C157.63 130.02 157.19 129.635 157.108 129.14L155.513 118.195C155.458 117.7 155.788 117.315 156.283 117.315L174.213 117.397C174.68 117.397 175.147 117.782 175.202 118.277L176.798 129.222C176.88 129.717 176.523 130.102 176.055 130.102Z" fill="#263238"/>
<path d="M189.86 132.192H165.468C165.083 132.192 164.78 131.89 164.78 131.532C164.78 131.147 165.083 130.845 165.468 130.845H189.86C190.245 130.845 190.548 131.147 190.548 131.532C190.548 131.89 190.245 132.192 189.86 132.192Z" fill="#0054A6"/>
<path opacity="0.7" d="M189.86 132.192H165.468C165.083 132.192 164.78 131.89 164.78 131.532C164.78 131.147 165.083 130.845 165.468 130.845H189.86C190.245 130.845 190.548 131.147 190.548 131.532C190.548 131.89 190.245 132.192 189.86 132.192Z" fill="white"/>
<path d="M170.61 132.192H157.603C157.218 132.192 156.915 131.89 156.915 131.532C156.915 131.147 157.218 130.845 157.603 130.845H170.61C170.995 130.845 171.298 131.147 171.298 131.532C171.298 131.89 170.995 132.192 170.61 132.192Z" fill="#0054A6"/>
<path opacity="0.6" d="M170.61 132.192H157.603C157.218 132.192 156.915 131.89 156.915 131.532C156.915 131.147 157.218 130.845 157.603 130.845H170.61C170.995 130.845 171.298 131.147 171.298 131.532C171.298 131.89 170.995 132.192 170.61 132.192Z" fill="white"/>
</svg>
