<svg width="236" height="252" viewBox="0 0 236 252" fill="none" xmlns="http://www.w3.org/2000/svg">
<path d="M118 252C183.032 252 235.75 248.92 235.75 245.12C235.75 241.321 183.032 238.24 118 238.24C52.9685 238.24 0.25 241.321 0.25 245.12C0.25 248.92 52.9685 252 118 252Z" fill="#D2D9DC"/>
<path d="M132.77 36.8702C132.34 36.8702 131.98 36.5202 131.98 36.0802V0.780235C131.98 0.350235 132.33 -0.00976562 132.77 -0.00976562C133.2 -0.00976562 133.56 0.340235 133.56 0.780235V36.0802C133.55 36.5202 133.2 36.8702 132.77 36.8702Z" fill="#54CC5A"/>
<path d="M101.09 15.4702C108.13 17.8702 115.17 13.0702 122.21 15.4702C122.21 11.4702 122.21 7.47016 122.21 3.47016C115.17 1.07016 108.13 5.87016 101.09 3.47016C101.09 7.47016 101.09 11.4702 101.09 15.4702Z" fill="#54CC5A"/>
<path opacity="0.19" d="M108.8 3.92054V15.9105C113.27 15.3205 117.74 13.9505 122.21 15.4705V3.47054C117.74 1.95054 113.27 3.32054 108.8 3.92054Z" fill="#2D2F31"/>
<path d="M111.65 12.7905C118.69 15.1905 125.73 10.3905 132.77 12.7905C132.77 8.79048 132.77 4.79048 132.77 0.790477C125.73 -1.60952 118.69 3.19048 111.65 0.790477C111.65 4.79048 111.65 8.79048 111.65 12.7905Z" fill="#54CC5A"/>
<path d="M146.74 42.2803H118.79L60.55 232.15C58.6 238.51 63.36 244.94 70.01 244.94H195.52C202.17 244.94 206.93 238.51 204.98 232.15L146.74 42.2803Z" fill="#0054A6"/>
<path opacity="0.19" d="M146.74 42.2803H132.76L115.04 244.95H195.51C202.16 244.95 206.92 238.52 204.97 232.16L146.74 42.2803Z" fill="#2D2F31"/>
<path d="M146.74 42.2803H140.18L160.17 244.95H195.52C202.17 244.95 206.93 238.52 204.98 232.16L146.74 42.2803Z" fill="#002548"/>
<path opacity="0.19" d="M118.79 42.2803H125.52L77.3402 244.95H70.0002C63.3502 244.95 58.5902 238.52 60.5402 232.16L118.79 42.2803Z" fill="#F9FAFB"/>
<path d="M132.55 34.7402C140.94 34.7402 148.28 40.3702 150.46 48.4702L159.48 82.0002L157.08 92.6002L147.91 83.8902L139.22 103.85L131.3 89.9702L121.47 103.85L117.19 83.0302L108.24 94.9002L106.12 81.2002L114.62 48.5902C116.73 40.4302 124.11 34.7402 132.55 34.7402Z" fill="#0054A6"/>
<path opacity="0.19" d="M132.55 34.7402C140.94 34.7402 148.28 40.3702 150.46 48.4702L159.48 82.0002L157.08 92.6002L147.91 83.8902L139.22 103.85L131.3 89.9702L121.47 103.85L117.19 83.0302L108.24 94.9002L106.12 81.2002L114.62 48.5902C116.73 40.4302 124.11 34.7402 132.55 34.7402Z" fill="#F9FAFB"/>
<path d="M115.05 245.74C114.75 245.74 114.47 245.57 114.34 245.28L101.03 216.42C100.89 216.11 100.96 215.75 101.21 215.52L153.03 166.96L120.83 104.21C120.75 104.06 120.73 103.89 120.75 103.72L132.01 36.6904C132.08 36.2604 132.49 35.9704 132.91 36.0504C133.34 36.1204 133.63 36.5304 133.55 36.9504L122.33 103.72L154.68 166.76C154.84 167.07 154.77 167.45 154.52 167.69L102.68 216.26L115.75 244.6C115.93 244.99 115.76 245.46 115.37 245.64C115.27 245.71 115.16 245.74 115.05 245.74Z" fill="white"/>
<path d="M161.767 168.989C162.781 164.695 160.121 160.391 155.827 159.377C151.532 158.363 147.229 161.022 146.215 165.317C145.201 169.611 147.86 173.915 152.155 174.929C156.449 175.943 160.753 173.284 161.767 168.989Z" fill="#839299"/>
<path d="M153.99 175.9C149.15 175.9 145.22 171.97 145.22 167.13C145.22 162.29 149.15 158.36 153.99 158.36C158.83 158.36 162.76 162.29 162.76 167.13C162.76 171.97 158.83 175.9 153.99 175.9ZM153.99 159.93C150.02 159.93 146.79 163.16 146.79 167.13C146.79 171.1 150.02 174.33 153.99 174.33C157.96 174.33 161.19 171.1 161.19 167.13C161.19 163.16 157.96 159.93 153.99 159.93Z" fill="white"/>
<path d="M109.632 217.376C110.339 213.02 107.381 208.916 103.025 208.209C98.6692 207.502 94.565 210.46 93.8581 214.816C93.1512 219.172 96.1092 223.276 100.465 223.983C104.821 224.69 108.925 221.732 109.632 217.376Z" fill="#839299"/>
<path d="M101.74 224.86C96.9002 224.86 92.9702 220.93 92.9702 216.09C92.9702 211.25 96.9002 207.32 101.74 207.32C106.58 207.32 110.51 211.25 110.51 216.09C110.51 220.93 106.58 224.86 101.74 224.86ZM101.74 208.89C97.7702 208.89 94.5402 212.12 94.5402 216.09C94.5402 220.06 97.7702 223.29 101.74 223.29C105.71 223.29 108.94 220.06 108.94 216.09C108.94 212.12 105.71 208.89 101.74 208.89Z" fill="white"/>
<path d="M121.53 111.85C125.943 111.85 129.52 108.273 129.52 103.86C129.52 99.4474 125.943 95.8701 121.53 95.8701C117.117 95.8701 113.54 99.4474 113.54 103.86C113.54 108.273 117.117 111.85 121.53 111.85Z" fill="#ED1C24"/>
<path d="M121.53 112.63C116.69 112.63 112.76 108.7 112.76 103.86C112.76 99.0198 116.69 95.0898 121.53 95.0898C126.37 95.0898 130.3 99.0198 130.3 103.86C130.3 108.69 126.36 112.63 121.53 112.63ZM121.53 96.6599C117.56 96.6599 114.33 99.8898 114.33 103.86C114.33 107.83 117.56 111.06 121.53 111.06C125.5 111.06 128.73 107.83 128.73 103.86C128.73 99.8898 125.5 96.6599 121.53 96.6599Z" fill="white"/>
<path d="M140.681 38.1096C141.388 33.7538 138.43 29.6496 134.074 28.9427C129.719 28.2357 125.614 31.1938 124.907 35.5496C124.201 39.9054 127.159 44.0096 131.514 44.7165C135.87 45.4234 139.974 42.4654 140.681 38.1096Z" fill="#839299"/>
<path d="M132.79 45.6005C127.95 45.6005 124.02 41.6705 124.02 36.8305C124.02 31.9905 127.95 28.0605 132.79 28.0605C137.63 28.0605 141.56 31.9905 141.56 36.8305C141.56 41.6705 137.63 45.6005 132.79 45.6005ZM132.79 29.6305C128.82 29.6305 125.59 32.8605 125.59 36.8305C125.59 40.8005 128.82 44.0305 132.79 44.0305C136.76 44.0305 139.99 40.8005 139.99 36.8305C139.99 32.8605 136.76 29.6305 132.79 29.6305Z" fill="white"/>
<path d="M58.2703 125.26C73.0384 125.26 85.0103 113.288 85.0103 98.5203C85.0103 83.7522 73.0384 71.7803 58.2703 71.7803C43.5022 71.7803 31.5303 83.7522 31.5303 98.5203C31.5303 113.288 43.5022 125.26 58.2703 125.26Z" fill="white"/>
<path d="M69.5302 123.831C55.5802 130.041 39.1802 123.731 32.9702 109.781C26.7602 95.8307 33.0702 79.4307 47.0202 73.2207C60.9702 67.0107 77.3702 73.3206 83.5802 87.2706C89.7902 101.221 83.4802 117.621 69.5302 123.831ZM47.8002 74.9707C34.8102 80.7407 28.9502 96.0107 34.7202 108.991C40.4902 121.981 55.7602 127.841 68.7402 122.071C81.7302 116.301 87.5902 101.031 81.8202 88.0507C76.0502 75.0607 60.7902 69.2007 47.8002 74.9707Z" fill="#ED1C24"/>
<path d="M61.7101 121.651L61.5301 121.681L61.3101 120.241L61.4801 120.211L61.7101 121.651ZM63.5401 121.291L63.2101 119.871L63.3801 119.831L63.7201 121.251L63.5401 121.291ZM59.6801 121.891L59.4901 121.901L59.3901 120.451L59.5601 120.441L59.6801 121.891ZM65.5101 120.751L65.0801 119.361L65.2501 119.311L65.6901 120.701L65.5101 120.751ZM57.6301 121.961H57.4401L57.4601 120.501H57.6301V121.961ZM67.4401 120.081L66.9201 118.721L67.0801 118.661L67.6101 120.011L67.4401 120.081ZM55.5801 121.861L55.3901 121.841L55.5401 120.391L55.7101 120.411L55.5801 121.861ZM69.3201 119.201L68.6401 117.911L68.7901 117.831L69.4801 119.111L69.3201 119.201ZM53.5401 121.561L53.3601 121.521L53.6501 120.091L53.8201 120.121L53.5401 121.561ZM71.0901 118.151L70.3001 116.931L70.4401 116.831L71.2501 118.041C71.1901 118.081 71.1401 118.121 71.0901 118.151ZM51.5401 121.081C51.4801 121.061 51.4201 121.041 51.3601 121.031L51.7801 119.641C51.8301 119.661 51.8901 119.671 51.9501 119.691L51.5401 121.081ZM72.7601 116.951L71.8601 115.811L72.0001 115.701L72.9101 116.841L72.7601 116.951ZM49.5901 120.411L49.4201 120.341L49.9701 118.991L50.1401 119.061L49.5901 120.411ZM74.3201 115.621L73.3201 114.561L73.4501 114.441L74.4501 115.491L74.3201 115.621ZM47.7201 119.561L47.5501 119.471L48.2201 118.181L48.3801 118.261L47.7201 119.561ZM75.7501 114.141L74.6601 113.171L74.7801 113.041L75.8701 114.001L75.7501 114.141ZM45.9301 118.531C45.8801 118.501 45.8201 118.461 45.7701 118.431L46.5701 117.211C46.6201 117.241 46.6701 117.271 46.7101 117.301L45.9301 118.531ZM77.0501 112.561L75.8801 111.691L75.9801 111.551L77.1501 112.411L77.0501 112.561ZM44.2501 117.351C44.2001 117.311 44.1501 117.271 44.1001 117.231L45.0001 116.091C45.0501 116.131 45.0901 116.161 45.1401 116.201L44.2501 117.351ZM78.2101 110.861L76.9701 110.101L77.0601 109.951L78.3001 110.701L78.2101 110.861ZM42.6801 116.021L42.5401 115.891L43.5401 114.831L43.6701 114.951L42.6801 116.021ZM79.2101 109.061L77.9101 108.411L77.9901 108.251L79.2901 108.891L79.2101 109.061ZM41.2301 114.561L41.1101 114.421L42.1901 113.451L42.3101 113.581L41.2301 114.561ZM80.0501 107.191L78.7001 106.651L78.7601 106.491L80.1201 107.021L80.0501 107.191ZM39.9201 112.981L39.8101 112.831L40.9701 111.951L41.0801 112.091L39.9201 112.981ZM80.7201 105.251L79.3301 104.831C79.3501 104.771 79.3601 104.721 79.3801 104.661L80.7801 105.071C80.7601 105.131 80.7401 105.191 80.7201 105.251ZM38.7501 111.301C38.7201 111.251 38.6801 111.191 38.6501 111.141L39.8801 110.371L39.9701 110.521L38.7501 111.301ZM81.2301 103.261L79.8001 102.961L79.8301 102.791L81.2601 103.071L81.2301 103.261ZM37.7101 109.531L37.6201 109.371L38.9101 108.701L38.9901 108.861L37.7101 109.531ZM81.5601 101.231L80.1101 101.061L80.1301 100.881L81.5801 101.041L81.5601 101.231ZM36.8301 107.681C36.8101 107.621 36.7801 107.561 36.7601 107.511L38.1001 106.951C38.1201 107.001 38.1401 107.061 38.1701 107.111L36.8301 107.681ZM81.7101 99.1806L80.2601 99.1406V98.9606L81.7201 98.9906L81.7101 99.1806ZM36.1001 105.761L36.0401 105.581L37.4201 105.131L37.4801 105.301L36.1001 105.761ZM81.6801 97.1306L80.2301 97.2206L80.2201 97.0506L81.6701 96.9506L81.6801 97.1306ZM35.5301 103.791L35.4901 103.611L36.9101 103.271L36.9501 103.441L35.5301 103.791ZM81.4601 95.0806L80.0201 95.2906L79.9901 95.1206L81.4301 94.8906L81.4601 95.0806ZM36.5601 101.551L35.1201 101.781L35.0901 101.591L36.5301 101.381L36.5601 101.551ZM79.6501 93.4006L79.6101 93.2306L81.0201 92.8806L81.0601 93.0606L79.6501 93.4006ZM36.3501 99.6406L34.9001 99.7406L34.8901 99.5606L36.3401 99.4706L36.3501 99.6406ZM79.1201 91.5506L79.0601 91.3806L80.4401 90.9006L80.5001 91.0806L79.1201 91.5506ZM36.2901 97.7106L34.8301 97.6906V97.5006L36.2801 97.5406L36.2901 97.7106ZM78.4301 89.7506L78.3601 89.5906L79.6901 89.0006L79.7601 89.1706L78.4301 89.7506ZM36.4101 95.7906L34.9601 95.6306L34.9801 95.4506L36.4301 95.6206L36.4101 95.7906ZM77.8901 88.5906L77.8101 88.4306L79.1001 87.7606L79.1901 87.9306L77.8901 88.5906ZM36.7001 93.8906L35.2701 93.6006L35.3101 93.4206L36.7301 93.7206L36.7001 93.8906ZM76.9401 86.9106L76.8501 86.7606L78.0801 85.9806C78.1101 86.0306 78.1501 86.0906 78.1801 86.1406L76.9401 86.9106ZM37.1701 92.0206L35.7801 91.6006C35.8001 91.5406 35.8201 91.4806 35.8301 91.4206L37.2201 91.8506L37.1701 92.0206ZM75.8601 85.3206L75.7601 85.1806L76.9201 84.3006C76.9601 84.3506 77.0001 84.4006 77.0301 84.4506L75.8601 85.3206ZM37.8101 90.2106L36.4601 89.6606L36.5301 89.4906L37.8701 90.0506L37.8101 90.2106ZM74.6301 83.8306L74.5101 83.7006L75.5801 82.7206C75.6201 82.7706 75.6601 82.8106 75.7101 82.8606L74.6301 83.8306ZM38.6201 88.4706L37.3301 87.8006C37.3601 87.7406 37.3901 87.6906 37.4201 87.6306L38.7001 88.3206L38.6201 88.4706ZM73.2901 82.4606L73.1601 82.3406L74.1501 81.2706L74.2901 81.4006L73.2901 82.4606ZM39.5801 86.8106L38.3601 86.0206L38.4601 85.8606L39.6801 86.6606L39.5801 86.8106ZM71.8201 81.2106L71.6801 81.1006L72.5701 79.9506L72.7201 80.0606L71.8201 81.2106ZM40.7001 85.2406L39.5601 84.3406L39.6801 84.1906L40.8201 85.1006L40.7001 85.2406ZM70.2501 80.0906L70.1001 80.0006L70.8801 78.7706L71.0401 78.8706L70.2501 80.0906ZM41.9601 83.7906L40.9001 82.7906C40.9401 82.7406 40.9901 82.7006 41.0301 82.6506L42.0801 83.6606L41.9601 83.7906ZM68.5901 79.1106C68.5401 79.0806 68.4901 79.0606 68.4401 79.0306L69.1101 77.7406C69.1701 77.7706 69.2201 77.8006 69.2801 77.8306L68.5901 79.1106ZM43.3401 82.4406L42.3701 81.3606L42.5101 81.2406L43.4801 82.3306L43.3401 82.4406ZM66.8501 78.2806L66.6901 78.2106L67.2501 76.8706L67.4201 76.9406L66.8501 78.2806ZM44.8301 81.2106L43.9501 80.0506L44.1001 79.9406L44.9701 81.1006L44.8301 81.2106ZM65.0501 77.6106L64.8801 77.5606L65.3201 76.1706L65.5001 76.2306L65.0501 77.6106ZM46.4201 80.1006L45.6301 78.8806L45.7901 78.7806L46.5701 80.0106L46.4201 80.1006ZM63.1901 77.1006L63.0201 77.0606L63.3401 75.6406L63.5201 75.6806L63.1901 77.1006ZM48.0801 79.1006L47.3801 77.8306L47.5401 77.7406L48.2401 79.0206L48.0801 79.1006ZM61.2901 76.7506L61.1201 76.7306L61.3101 75.2906L61.5001 75.3206L61.2901 76.7506ZM49.7901 78.2406L49.2301 76.9006L49.4001 76.8306L49.9501 78.1806L49.7901 78.2406ZM59.3801 76.5606L59.2101 76.5506L59.2701 75.1006L59.4601 75.1106L59.3801 76.5606ZM51.6001 77.5806L51.1601 76.1906L51.3401 76.1306L51.7701 77.5206L51.6001 77.5806ZM57.4501 76.5506L57.2701 76.5606L57.2001 75.1106L57.3901 75.1006L57.4501 76.5506ZM53.4601 77.0706L53.1401 75.6506L53.3201 75.6106L53.6301 77.0306L53.4601 77.0706ZM55.5301 76.7106L55.3601 76.7306L55.1701 75.2906L55.3601 75.2706L55.5301 76.7106Z" fill="#002548"/>
<path d="M43.5602 72.7103C42.3002 72.9203 41.0002 72.8003 39.7702 72.3203C37.9702 71.6303 36.5402 70.2703 35.7502 68.5003C34.9602 66.7303 34.9102 64.7703 35.6102 62.9603C36.3002 61.1603 37.6602 59.7303 39.4302 58.9403C43.0802 57.3203 47.3602 58.9703 48.9902 62.6103C49.7802 64.3803 49.8302 66.3403 49.1302 68.1503C48.4402 69.9503 47.0802 71.3803 45.3102 72.1703C44.7402 72.4403 44.1502 72.6103 43.5602 72.7103ZM41.4702 60.2103C41.0202 60.2903 40.5802 60.4203 40.1602 60.6103C38.8402 61.2003 37.8202 62.2703 37.3002 63.6203C36.7802 64.9703 36.8202 66.4503 37.4102 67.7703C38.6302 70.5003 41.8402 71.7403 44.5802 70.5203C45.9002 69.9303 46.9202 68.8603 47.4402 67.5103C47.9602 66.1603 47.9202 64.6803 47.3302 63.3603C46.7402 62.0403 45.6702 61.0203 44.3202 60.5003C43.3902 60.1503 42.4102 60.0503 41.4702 60.2103Z" fill="#D2D9DC"/>
<path d="M49.3901 72.5303L43.7801 75.0203L42.4201 71.9603C41.7301 70.4103 42.4301 68.6003 43.9801 67.9103C45.5301 67.2203 47.3401 67.9203 48.0301 69.4703L49.3901 72.5303Z" fill="#ED1C24"/>
<path d="M70.2766 102.826C72.6385 96.3449 69.299 89.1761 62.8176 86.8142C56.3362 84.4523 49.1673 87.7918 46.8054 94.2732C44.4435 100.755 47.783 107.923 54.2644 110.285C60.7458 112.647 67.9147 109.308 70.2766 102.826Z" fill="#F2F3F5"/>
<path d="M55.99 97.6602L52.23 84.7002L59.65 96.0302L55.99 97.6602Z" fill="#D2D9DC"/>
<path d="M58.5601 100.65L45.6001 104.41L56.9301 96.9902L58.5601 100.65Z" fill="#D2D9DC"/>
<path d="M61.1803 99.4805L64.9503 112.44L57.5303 101.11L61.1803 99.4805Z" fill="#D2D9DC"/>
<path d="M58.6201 96.4905L71.5701 92.7305L60.2501 100.15L58.6201 96.4905Z" fill="#D2D9DC"/>
<path d="M56.9801 98.8904L49.3301 94.3604L58.0101 96.4604L56.9801 98.8904Z" fill="#D2D9DC"/>
<path d="M59.5703 99.1804L55.0303 106.83L57.1403 98.1504L59.5703 99.1804Z" fill="#D2D9DC"/>
<path d="M60.3103 97.4307L67.9603 101.971L59.2803 99.8607L60.3103 97.4307Z" fill="#D2D9DC"/>
<path d="M57.7202 97.15L62.2602 89.5L60.1502 98.17L57.7202 97.15Z" fill="#D2D9DC"/>
<path d="M56.9401 98.4504L51.0601 91.1904L58.8401 96.4304L56.9401 98.4504Z" fill="#D2D9DC"/>
<path d="M59.3801 99.6705L52.1201 105.551L57.3601 97.7705L59.3801 99.6705Z" fill="#D2D9DC"/>
<path d="M60.7501 98.2207L66.6301 105.481L58.8501 100.241L60.7501 98.2207Z" fill="#D2D9DC"/>
<path d="M58.3003 97.0004L65.5603 91.1104L60.3303 98.8904L58.3003 97.0004Z" fill="#D2D9DC"/>
<path d="M57.33 100.02L48.04 99.0002L57.25 97.2402L57.33 100.02Z" fill="#D2D9DC"/>
<path d="M59.9199 99.1602L58.9099 108.45L57.1499 99.2402L59.9199 99.1602Z" fill="#D2D9DC"/>
<path d="M59.8701 97.1699L69.1601 98.1799L59.9401 99.9399L59.8701 97.1699Z" fill="#D2D9DC"/>
<path d="M57.27 98.0202L58.29 88.7402L60.05 97.9502L57.27 98.0202Z" fill="#D2D9DC"/>
<path d="M71.6304 92.5006C71.6304 92.5006 71.5904 92.4306 71.5204 92.3006C71.4504 92.1606 71.3404 91.9606 71.2004 91.6906C71.1304 91.5606 71.0504 91.4106 70.9704 91.2406C70.8804 91.0806 70.7604 90.9106 70.6404 90.7306C70.5204 90.5506 70.3904 90.3506 70.2504 90.1306C70.1204 89.9106 69.9304 89.7206 69.7604 89.4906C69.0804 88.5806 68.0604 87.5806 66.7504 86.6406C65.4304 85.7106 63.7404 84.8706 61.7604 84.4006C61.5104 84.3406 61.2604 84.2906 61.0004 84.2306C60.7404 84.1906 60.4804 84.1606 60.2104 84.1306C59.9404 84.1006 59.6804 84.0506 59.4104 84.0406C59.1404 84.0306 58.8604 84.0206 58.5804 84.0206C58.4404 84.0206 58.3004 84.0106 58.1604 84.0106C58.0204 84.0206 57.8804 84.0306 57.7404 84.0406C57.4604 84.0606 57.1704 84.0806 56.8804 84.1006C56.5904 84.1306 56.3104 84.1906 56.0204 84.2406C55.7304 84.3006 55.4304 84.3206 55.1504 84.4106C54.5704 84.5706 53.9804 84.7106 53.4104 84.9606C53.1204 85.0806 52.8304 85.1806 52.5404 85.3106C52.2604 85.4506 51.9804 85.6006 51.6904 85.7406C51.5504 85.8106 51.4004 85.8806 51.2604 85.9606L50.8504 86.2206C50.5804 86.4006 50.3004 86.5606 50.0304 86.7606C49.5204 87.1706 48.9704 87.5606 48.5104 88.0506C48.0104 88.5006 47.5804 89.0406 47.1404 89.5606C46.9304 89.8306 46.7404 90.1306 46.5404 90.4106C46.4404 90.5606 46.3304 90.6906 46.2504 90.8506L45.9904 91.3106C45.6204 91.9106 45.3604 92.5806 45.0704 93.2306C44.8504 93.9106 44.6004 94.6006 44.4604 95.3206L44.3404 95.8606L44.2704 96.4106L44.2004 96.9606C44.1704 97.1406 44.1504 97.3306 44.1504 97.5206C44.1404 97.8906 44.1304 98.2706 44.1204 98.6406C44.1504 99.0106 44.1704 99.3906 44.2004 99.7706C44.3604 101.271 44.7504 102.771 45.3604 104.201C46.0104 105.611 46.8604 106.911 47.8704 108.031C48.1304 108.301 48.4004 108.571 48.6604 108.841C48.9504 109.081 49.2304 109.331 49.5204 109.571L49.7304 109.751L49.9604 109.911L50.4204 110.231L50.8804 110.541L51.3604 110.811C51.9904 111.191 52.6604 111.471 53.3204 111.761C54.0004 111.981 54.6704 112.231 55.3704 112.361L55.8804 112.481C56.0504 112.521 56.2304 112.531 56.4004 112.561C56.7504 112.601 57.0904 112.661 57.4304 112.681C58.1204 112.701 58.8004 112.741 59.4704 112.671C60.1504 112.651 60.8004 112.511 61.4504 112.411C61.7704 112.341 62.0804 112.241 62.4004 112.161L62.8704 112.031C63.0204 111.981 63.1704 111.921 63.3204 111.861C63.6204 111.751 63.9104 111.631 64.2104 111.521C64.5004 111.401 64.7704 111.241 65.0504 111.111C65.6204 110.851 66.1104 110.501 66.6204 110.181C66.8804 110.031 67.1004 109.821 67.3304 109.651C67.5604 109.461 67.8004 109.291 68.0104 109.101C68.2204 108.901 68.4204 108.701 68.6304 108.501L68.9304 108.211L69.2004 107.891C69.3804 107.681 69.5604 107.471 69.7404 107.261C69.9204 107.061 70.0604 106.821 70.2204 106.611C70.3704 106.391 70.5304 106.181 70.6704 105.961C70.8004 105.731 70.9204 105.511 71.0504 105.291C72.0404 103.501 72.5404 101.691 72.7304 100.081C72.9104 98.4706 72.8604 97.0606 72.6304 95.9306C72.5804 95.6506 72.5604 95.3806 72.4804 95.1306C72.4104 94.8906 72.3504 94.6606 72.3004 94.4406C72.2404 94.2306 72.2004 94.0306 72.1404 93.8506C72.0704 93.6806 72.0204 93.5206 71.9604 93.3806C71.8604 93.1006 71.7804 92.8906 71.7204 92.7406C71.6504 92.5806 71.6304 92.5006 71.6304 92.5006C71.6304 92.5006 71.6604 92.5706 71.7204 92.7106C71.7804 92.8606 71.8704 93.0706 71.9804 93.3506C72.0404 93.4906 72.1004 93.6506 72.1704 93.8206C72.2304 94.0006 72.2804 94.1906 72.3404 94.4106C72.4004 94.6206 72.4604 94.8506 72.5304 95.1006C72.6104 95.3406 72.6304 95.6206 72.6904 95.9006C72.9204 97.0306 72.9904 98.4506 72.8204 100.071C72.6404 101.691 72.1404 103.521 71.1504 105.331C71.0204 105.551 70.9004 105.781 70.7704 106.011C70.6304 106.231 70.4704 106.451 70.3204 106.671C70.1604 106.891 70.0204 107.131 69.8404 107.331C69.6604 107.541 69.4804 107.751 69.3004 107.971L69.0204 108.291L68.7104 108.591C68.5004 108.791 68.3004 108.991 68.0904 109.201C67.8704 109.401 67.6304 109.571 67.4004 109.761C67.1604 109.941 66.9404 110.151 66.6804 110.301C66.1704 110.621 65.6604 110.981 65.0904 111.241C64.8104 111.381 64.5304 111.531 64.2404 111.661C63.9404 111.771 63.6404 111.891 63.3404 112.011C63.1904 112.071 63.0404 112.131 62.8804 112.181L62.4104 112.311C62.0904 112.391 61.7804 112.491 61.4504 112.561C60.7904 112.661 60.1304 112.811 59.4504 112.831C58.7704 112.911 58.0804 112.861 57.3804 112.841C57.0304 112.811 56.6804 112.761 56.3304 112.721C56.1604 112.691 55.9804 112.681 55.8004 112.641L55.2804 112.521C54.5804 112.391 53.9004 112.141 53.2104 111.911C52.5404 111.621 51.8604 111.341 51.2204 110.951L50.7304 110.681L50.2704 110.361L49.8104 110.041L49.5804 109.881L49.3604 109.701C49.0704 109.461 48.7804 109.211 48.4904 108.961C48.2304 108.691 47.9604 108.411 47.6904 108.141C46.6604 107.001 45.8004 105.691 45.1404 104.261C44.5204 102.811 44.1204 101.291 43.9604 99.7706C43.9304 99.3906 43.9104 99.0106 43.8804 98.6306C43.8904 98.2506 43.9004 97.8706 43.9104 97.4906C43.9104 97.3006 43.9304 97.1106 43.9604 96.9306L44.0304 96.3706L44.1004 95.8106L44.2204 95.2706C44.3604 94.5406 44.6104 93.8506 44.8404 93.1506C45.1404 92.4806 45.4004 91.8106 45.7804 91.2006L46.0404 90.7306C46.1304 90.5706 46.2404 90.4406 46.3404 90.2906C46.5404 90.0006 46.7304 89.7106 46.9504 89.4306C47.4004 88.9006 47.8304 88.3606 48.3404 87.9006C48.8104 87.4006 49.3604 87.0206 49.8804 86.6006C50.1504 86.4106 50.4304 86.2406 50.7104 86.0606L51.1204 85.8006C51.2604 85.7206 51.4104 85.6506 51.5504 85.5806C51.8404 85.4306 52.1204 85.2906 52.4104 85.1506C52.7004 85.0206 53.0004 84.9206 53.2904 84.8006C53.8704 84.5506 54.4704 84.4206 55.0504 84.2506C55.3404 84.1606 55.6404 84.1306 55.9304 84.0806C56.2204 84.0406 56.5104 83.9706 56.8004 83.9406C57.0904 83.9206 57.3804 83.9006 57.6704 83.8806C57.8104 83.8706 57.9604 83.8606 58.1004 83.8506C58.2404 83.8506 58.3804 83.8606 58.5204 83.8606C58.8004 83.8706 59.0804 83.8806 59.3504 83.8906C59.6304 83.8906 59.8904 83.9506 60.1604 83.9806C60.4304 84.0206 60.6904 84.0406 60.9504 84.0906C61.2104 84.1506 61.4604 84.2106 61.7104 84.2606C63.7204 84.7406 65.4104 85.5906 66.7304 86.5406C68.0504 87.5006 69.0604 88.5006 69.7404 89.4306C69.9104 89.6606 70.1004 89.8606 70.2304 90.0806C70.3704 90.3006 70.4904 90.5006 70.6104 90.6806C70.7304 90.8706 70.8404 91.0406 70.9304 91.2006C71.0104 91.3706 71.0904 91.5206 71.1604 91.6506C71.2904 91.9206 71.3904 92.1206 71.4604 92.2706C71.6004 92.4306 71.6304 92.5006 71.6304 92.5006Z" fill="#F2F3F5"/>
<path d="M51.7502 79.5605L53.1102 82.6105L52.5302 82.8706L50.1902 81.6906L51.0102 83.5406L50.3102 83.8505L48.9502 80.8006L49.5302 80.5406L51.8702 81.7206L51.0502 79.8706L51.7502 79.5605Z" fill="#002548"/>
<path d="M65.7003 116.66C65.4503 116.69 65.2303 116.69 65.0403 116.65V116.01C65.2103 116.05 65.4003 116.06 65.6103 116.03C65.8203 116.01 66.0103 115.96 66.1903 115.88C66.3903 115.79 66.5203 115.7 66.5903 115.59C66.6603 115.49 66.6703 115.39 66.6303 115.29C66.6003 115.22 66.5403 115.17 66.4603 115.15C66.3803 115.13 66.2903 115.12 66.1903 115.13C66.0903 115.14 65.9503 115.16 65.7903 115.19C65.5303 115.24 65.3203 115.27 65.1503 115.28C64.9803 115.29 64.8103 115.26 64.6503 115.18C64.4903 115.11 64.3603 114.97 64.2703 114.76C64.1903 114.58 64.1703 114.4 64.2003 114.21C64.2303 114.02 64.3303 113.85 64.4803 113.68C64.6403 113.51 64.8503 113.36 65.1303 113.24C65.3203 113.15 65.5303 113.09 65.7303 113.06C65.9403 113.02 66.1303 113.02 66.3103 113.04L66.3303 113.67C65.9803 113.64 65.6603 113.68 65.3803 113.81C65.1803 113.9 65.0503 113.99 64.9803 114.1C64.9103 114.21 64.9003 114.31 64.9503 114.42C65.0003 114.52 65.0903 114.58 65.2203 114.58C65.3503 114.58 65.5403 114.56 65.7903 114.51C66.0503 114.46 66.2603 114.43 66.4303 114.42C66.6003 114.41 66.7703 114.44 66.9303 114.51C67.0903 114.58 67.2103 114.72 67.3003 114.92C67.3803 115.09 67.4003 115.27 67.3703 115.46C67.3403 115.65 67.2403 115.83 67.0803 116C66.9203 116.17 66.7003 116.32 66.4303 116.44C66.2003 116.55 65.9503 116.62 65.7003 116.66Z" fill="#002548"/>
<path d="M73.7201 92.1301L73.1501 92.3801L72.1001 90.0201L75.1501 88.6602L76.1801 90.9602L75.6101 91.2102L74.9001 89.6102L74.2401 89.9002L74.8701 91.3202L74.3201 91.5602L73.6901 90.1402L72.9801 90.4501L73.7201 92.1301Z" fill="#002548"/>
<path d="M39.8403 103.26L43.3303 102.9L43.6703 103.66L41.9003 105.25L44.2703 105.02L44.6103 105.77L42.0103 108.13L41.6803 107.4L43.5203 105.76L41.0603 106L40.7703 105.35L42.6203 103.69L40.1403 103.94L39.8403 103.26Z" fill="#002548"/>
<path d="M56.8101 96.2901L59.0601 81.1201L60.2401 96.3201L56.8101 96.2901Z" fill="#ED1C24"/>
<path d="M60.0301 100.92L58.1301 116.14L56.6001 100.97L60.0301 100.92Z" fill="#839299"/>
<path d="M61.1903 97.2906C61.8803 98.8406 61.1803 100.651 59.6303 101.341C58.0803 102.031 56.2703 101.331 55.5803 99.7806C54.8903 98.2306 55.5903 96.4207 57.1403 95.7307C58.6803 95.0407 60.5003 95.7406 61.1903 97.2906Z" fill="#002548"/>
<path opacity="0.19" d="M132.55 34.7402C140.94 34.7402 148.28 40.3702 150.46 48.4702L159.48 82.0002L157.08 92.6002L147.91 83.8902L139.22 103.85L131.3 89.9702L121.47 103.85L117.19 83.0302L108.24 94.9002L106.12 81.2002L114.62 48.5902C116.73 40.4302 124.11 34.7402 132.55 34.7402Z" fill="#F9FAFB"/>
</svg>
