<svg width="51" height="65" viewBox="0 0 51 65" fill="none" xmlns="http://www.w3.org/2000/svg">
<path d="M22.6589 0H33.1762V48.7799C27.789 49.8111 23.823 50.2168 19.5321 50.2168C6.68668 50.2033 0 44.396 0 33.2427C0 22.4965 7.09275 15.5223 18.0838 15.5223C19.7893 15.5223 21.0888 15.658 22.6589 16.065V0ZM23.0275 24.8556C21.7957 24.4486 20.7806 24.3129 19.4811 24.3129C14.1616 24.3129 11.0889 27.5965 11.0889 33.3508C11.0889 38.9532 14.0262 42.0469 19.4134 42.0469C20.5775 42.0469 21.525 41.9804 23.0275 41.7768V24.8556Z" fill="#2BA977"/>
<path d="M50.3748 16.832V41.2552C50.3748 49.6663 49.7522 53.7111 47.9248 57.1982C46.2193 60.5509 43.9724 62.6649 39.3296 65L29.5703 60.346C34.2131 58.1629 36.46 56.2335 37.8948 53.2891C39.3973 50.2783 39.871 46.7912 39.871 37.6189V16.832H50.3748Z" fill="#2BA977"/>
<path d="M38.8115 0H49.3288V10.8141H38.8115V0Z" fill="#2BA977"/>
</svg>
