<svg width="78" height="65" viewBox="0 0 78 65" fill="none" xmlns="http://www.w3.org/2000/svg">
<path fill-rule="evenodd" clip-rule="evenodd" d="M11.7809 52.7198V47.7617C11.7809 47.1106 12.191 46.5869 12.8699 46.5869H13.0581C13.7368 46.5869 14.145 47.1109 14.145 47.7617V58.1998C14.145 60.7452 12.8787 62.7704 10.6727 64.0607C9.64976 64.6586 8.51947 64.9653 7.33363 64.9653H6.86488C4.3017 64.9653 2.26512 63.7068 0.964088 61.5167C0.360383 60.5 0.0537109 59.379 0.0537109 58.1998V57.7345C0.0537109 55.1883 1.32059 53.1643 3.52497 51.8717C4.54874 51.2714 5.6774 50.9671 6.86488 50.9671H7.33363C9.06828 50.9671 10.54 51.6349 11.7809 52.7198ZM2.41739 57.9668C2.41739 59.8055 3.3147 61.1878 4.93678 62.0693C5.5926 62.4259 6.30479 62.6173 7.05309 62.6173C8.87009 62.6173 10.2177 61.766 11.1473 60.2366C11.5797 59.525 11.7809 58.7469 11.7809 57.9192C11.7809 56.3253 11.0212 55.0815 9.72819 54.1576C8.94411 53.5976 8.0615 53.3167 7.09901 53.3167C5.11863 53.3167 3.69342 54.3103 2.83794 56.0758C2.54924 56.6727 2.41739 57.3066 2.41739 57.9668ZM22.3459 50.9671H22.6735C25.4124 50.9671 27.4952 52.2868 28.8154 54.6615C29.3433 55.6115 29.6256 56.6482 29.6256 57.7345V58.1998C29.6256 60.7451 28.362 62.7733 26.1524 64.061C25.1294 64.6569 23.9995 64.9653 22.814 64.9653H22.3459C19.7827 64.9653 17.7458 63.7068 16.4451 61.5167C15.8414 60.5 15.534 59.379 15.534 58.1998V57.7345C15.534 55.188 16.8057 53.1706 19.0047 51.8723C20.0271 51.2688 21.1577 50.9671 22.3459 50.9671ZM17.8977 57.9668C17.8977 59.7516 18.7797 61.0644 20.2974 61.9875C21.01 62.4211 21.7948 62.6173 22.6275 62.6173C24.403 62.6173 25.7153 61.7232 26.6288 60.2347C27.0644 59.525 27.2614 58.7456 27.2614 57.9192C27.2614 56.2597 26.4566 54.9918 25.0809 54.0729C24.3269 53.569 23.4876 53.3167 22.5797 53.3167C20.5993 53.3167 19.1741 54.3103 18.3189 56.0758C18.0296 56.6727 17.8977 57.3066 17.8977 57.9668ZM39.453 53.5043C39.0962 53.3383 38.4279 53.2831 38.0422 53.2685C36.0672 53.1946 34.6382 54.2993 33.7999 56.0299C33.5106 56.6268 33.3784 57.2587 33.3784 57.9192C33.3784 59.9304 34.4414 61.3384 36.2487 62.1967C36.909 62.5101 37.7613 62.5698 38.4828 62.5698C39.1176 62.5698 40.0142 62.1834 40.5774 61.9177L40.6751 61.8718H41.112L41.1602 61.8816C41.6979 61.9926 42.1038 62.3311 42.1038 62.9057V63.1381C42.1038 64.5675 39.4734 64.895 38.4698 64.9645C34.9279 65.2081 32.279 63.2759 31.2691 59.9202C31.0936 59.3377 31.0147 58.7589 31.0147 58.1516V57.687C31.0147 55.1408 32.2867 53.124 34.4853 51.8266C35.5078 51.2235 36.6384 50.9207 37.8262 50.9207H38.2946C39.5545 50.9207 40.715 51.2761 41.7553 51.9819L41.8409 52.0406L41.8948 52.1291C42.007 52.3141 42.1038 52.5278 42.1038 52.748V52.9804C42.1038 53.5797 41.6523 53.902 41.1073 54.0064L41.0622 54.0143H40.9225C40.5696 54.0143 39.7679 53.6515 39.453 53.5043ZM47.1205 55.0942C48.0385 54.181 48.9602 53.2695 49.892 52.3712C50.1518 52.1208 51.135 51.0603 51.5221 51.0603H51.9456L51.9937 51.07C52.5329 51.1813 52.937 51.5205 52.937 52.0961V52.3284C52.937 52.7211 52.4739 53.1773 52.2186 53.446C51.6755 54.0177 51.1036 54.571 50.5478 55.131L47.692 58.0106C48.9216 59.2347 50.1501 60.4601 51.3698 61.6936C51.7072 62.0347 52.0447 62.3764 52.3769 62.7225C52.4944 62.8452 52.6677 62.9979 52.7662 63.1681C52.8719 63.3273 52.937 63.507 52.937 63.6988V63.9416L52.9232 63.9974C52.7904 64.533 52.4481 64.9653 51.8505 64.9653H51.6624C51.2713 64.9653 50.8296 64.5256 50.5615 64.2748C50.0098 63.7577 49.4765 63.2141 48.9354 62.686L47.1205 60.9164V63.7447C47.1205 64.3961 46.7099 64.9197 46.0317 64.9197H45.8454C45.1666 64.9197 44.7566 64.3961 44.7566 63.7447V47.8073C44.7566 47.1556 45.1669 46.6345 45.8454 46.6345H46.0317C46.7099 46.6345 47.1205 47.1556 47.1205 47.8073V55.0942ZM76.5833 51.0603H76.8179C77.527 51.0603 78.0001 51.5348 78.0001 52.2349C78.0001 53.207 77.0646 53.4558 76.255 53.4558C75.1933 53.4558 74.1799 54.0942 73.4481 54.8102C72.5354 55.7037 72.1359 56.8483 72.1359 58.1063V63.7907C72.1359 64.4424 71.7265 64.9653 71.0468 64.9653H70.8604C70.181 64.9653 69.7716 64.4424 69.7716 63.7907V57.7801C69.7716 55.472 70.9029 53.588 72.7885 52.2665C73.9149 51.477 75.2045 51.0603 76.5833 51.0603ZM59.7816 62.3251C60.6418 62.6234 61.6228 62.5808 62.5054 62.4281C62.9567 62.2376 64.1113 61.7374 64.5359 61.8106L64.6023 61.8217L64.6632 61.8515C64.9223 61.9763 65.17 62.1529 65.3022 62.4148C65.6117 63.0294 65.463 63.6467 64.8554 63.9955L64.6531 64.1115C62.4106 65.3971 60.0257 65.2189 57.7906 64.0182C56.7219 63.4445 55.9044 62.5925 55.3013 61.5542L55.1601 61.3114C53.7207 58.8353 53.915 56.2305 55.5384 53.8757C56.0989 53.0619 56.8314 52.433 57.6879 51.9413L58.0118 51.7557C60.1236 50.5449 62.3868 50.6276 64.5557 51.6904C65.7218 52.2618 66.6666 53.1138 67.3177 54.2339L67.4347 54.4356C67.9077 55.2495 67.295 55.9588 66.6626 56.4436C65.9286 57.006 65.1875 57.6828 64.484 58.286C62.9155 59.6308 61.3493 60.9789 59.7816 62.3251ZM57.7514 60.9088C59.5058 59.4147 61.2606 57.9195 63.0099 56.4194C63.6078 55.9072 64.2634 55.3757 64.8567 54.8371C64.3806 54.2415 63.5857 53.8121 62.9101 53.556C61.5468 53.04 60.2022 53.2133 58.9518 53.9303C57.3148 54.8689 56.6179 56.3639 56.6791 58.2242C56.7031 58.9567 56.9016 59.6626 57.2931 60.286C57.431 60.5057 57.5851 60.712 57.7514 60.9088Z" fill="#364548"/>
<path fill-rule="evenodd" clip-rule="evenodd" d="M44.9938 13.8576H51.9695V20.9405H55.4967C57.1255 20.9405 58.8008 20.6523 60.3433 20.1331C61.1012 19.8779 61.952 19.5226 62.6996 19.0759C61.7149 17.7988 61.2122 16.1864 61.0642 14.597C60.8632 12.4352 61.3022 9.62134 62.7753 7.92937L63.5086 7.08695L64.3823 7.78461C66.5823 9.5402 68.4325 11.9933 68.7586 14.7898C71.4075 14.0158 74.5175 14.1989 76.8525 15.5374L77.8104 16.0864L77.3062 17.0639C75.3315 20.8918 71.2033 22.0776 67.1672 21.8678C61.1277 36.809 47.979 43.8826 32.0363 43.8826C23.7998 43.8826 16.2429 40.8244 11.9397 33.5659L11.8691 33.4474L11.2422 32.1805C9.78763 28.9854 9.3045 25.4853 9.63225 21.988L9.7306 20.9405H15.6956V13.8576H22.6711V6.92872H36.6228V0H44.9938V13.8576Z" fill="#364548"/>
<path fill-rule="evenodd" clip-rule="evenodd" d="M67.5948 16.4776C68.0626 12.8671 65.3423 10.031 63.6552 8.68457C61.711 10.9171 61.4089 16.7683 64.459 19.2317C62.7569 20.7335 59.1699 22.0948 55.4974 22.0948H10.791C10.4338 25.9028 11.107 29.4094 12.6441 32.411L13.1527 33.3349C13.4748 33.8777 13.8265 34.4016 14.2067 34.906C16.0446 35.0231 17.7394 35.0637 19.2898 35.0296H19.2904C22.3372 34.9626 24.8231 34.6056 26.7073 33.9571C26.9878 33.8602 27.2935 34.008 27.3905 34.2864C27.4874 34.5647 27.3391 34.8685 27.0589 34.965C26.8084 35.0512 26.5471 35.1319 26.2774 35.2085C26.2771 35.2086 26.2767 35.2086 26.2764 35.2088C24.7929 35.6294 23.2022 35.9126 21.1496 36.0384C21.2713 36.0403 21.0226 36.0566 21.022 36.0567C20.9522 36.0609 20.8643 36.0708 20.7942 36.0747C19.9864 36.1197 19.1145 36.1291 18.223 36.1291C17.2481 36.1291 16.2879 36.1108 15.2145 36.0567L15.187 36.0747C18.912 40.2333 24.7364 42.7274 32.037 42.7274C47.4883 42.7274 60.5942 35.9241 66.3976 20.6504C70.515 21.0701 74.472 20.0273 76.272 16.5372C73.4048 14.8937 69.7179 15.4177 67.5948 16.4776Z" fill="#22A0C8"/>
<path fill-rule="evenodd" clip-rule="evenodd" d="M67.5949 16.4776C68.0626 12.8671 65.3423 10.031 63.6552 8.68457C61.7111 10.9171 61.409 16.7683 64.459 19.2317C62.7569 20.7335 59.1699 22.0948 55.4974 22.0948H13.4384C13.2559 27.9266 15.4347 32.3534 19.2898 35.0296H19.2905C22.3372 34.9626 24.8231 34.6056 26.7073 33.9571C26.9878 33.8602 27.2935 34.008 27.3906 34.2864C27.4874 34.5647 27.3391 34.8685 27.0589 34.965C26.8084 35.0512 26.5472 35.1319 26.2774 35.2085L26.2764 35.2088C24.7929 35.6294 23.0654 35.949 21.0128 36.0747C21.0128 36.0747 20.9632 36.0275 20.9625 36.0277C26.2209 38.7068 33.8457 38.6972 42.5874 35.3618C52.3895 31.6217 61.5104 24.4958 67.8747 16.3455C67.7787 16.3885 67.6852 16.4327 67.5949 16.4776Z" fill="#37B1D9"/>
<path fill-rule="evenodd" clip-rule="evenodd" d="M10.874 26.7217C11.1519 28.7614 11.7525 30.6714 12.6435 32.4112L13.1521 33.3351C13.4741 33.8779 13.8259 34.4018 14.2062 34.9062C16.0445 35.0233 17.7393 35.0639 19.2898 35.0298C22.3366 34.9628 24.8225 34.6058 26.7066 33.9573C26.9871 33.8604 27.2928 34.0082 27.3899 34.2866C27.4868 34.5649 27.3384 34.8687 27.0582 34.9652C26.8078 35.0514 26.5465 35.1321 26.2768 35.2087L26.2758 35.209C24.7922 35.6296 23.0739 35.931 21.0213 36.0569C20.9509 36.0611 20.828 36.0619 20.757 36.0658C19.9495 36.111 19.0865 36.1384 18.1949 36.1384C17.2202 36.1384 16.2234 36.1199 15.1501 36.0658C18.875 40.2244 24.7357 42.7276 32.0364 42.7276C45.2641 42.7276 56.7726 37.7406 63.4521 26.7217H10.874Z" fill="#1B81A5"/>
<path fill-rule="evenodd" clip-rule="evenodd" d="M13.8398 26.7217C14.6306 30.3031 16.5309 33.1149 19.2895 35.0298C22.3363 34.9628 24.8222 34.6058 26.7064 33.9573C26.9869 33.8604 27.2926 34.0082 27.3896 34.2866C27.4865 34.5649 27.3382 34.8687 27.058 34.9652C26.8075 35.0514 26.5462 35.1321 26.2765 35.2087L26.2755 35.209C24.792 35.6296 23.0372 35.931 20.9846 36.0569C26.2427 38.7356 33.8454 38.6971 42.5865 35.362C47.8746 33.344 52.964 30.3398 57.5301 26.7217H13.8398Z" fill="#1D91B4"/>
<path fill-rule="evenodd" clip-rule="evenodd" d="M16.8584 15.0127H22.9039V21.0179H16.8584V15.0127ZM17.3619 15.5132H17.839V20.5177H17.3619V15.5132ZM18.2589 15.5132H18.7551V20.5177H18.2589V15.5132ZM19.1747 15.5132H19.6709V20.5177H19.1747V15.5132ZM20.091 15.5132H20.5872V20.5177H20.091V15.5132ZM21.0071 15.5132H21.5033V20.5177H21.0071V15.5132ZM21.923 15.5132H22.4004V20.5177H21.923V15.5132Z" fill="#23A3C2"/>
<path fill-rule="evenodd" clip-rule="evenodd" d="M23.834 8.08301H29.8802V14.0878H23.834V8.08301ZM24.3382 8.58349H24.8149V13.5875H24.3382V8.58349ZM25.2352 8.58349H25.731V13.5875H25.2352V8.58349ZM26.1508 8.58349H26.647V13.5875H26.1508V8.58349ZM27.0669 8.58349H27.5631V13.5875H27.0669V8.58349ZM27.9831 8.58349H28.4793V13.5875H27.9831V8.58349ZM28.8989 8.58349H29.3766V13.5875H28.8989V8.58349Z" fill="#23A3C2"/>
<path fill-rule="evenodd" clip-rule="evenodd" d="M23.834 15.0127H29.8802V21.0179H23.834V15.0127ZM24.3382 15.5132H24.8149V20.5177H24.3382V15.5132ZM25.2352 15.5132H25.731V20.5177H25.2352V15.5132ZM26.1508 15.5132H26.647V20.5177H26.1508V15.5132ZM27.0669 15.5132H27.5631V20.5177H27.0669V15.5132ZM27.9831 15.5132H28.4793V20.5177H27.9831V15.5132ZM28.8989 15.5132H29.3766V20.5177H28.8989V15.5132Z" fill="#34BBDE"/>
<path fill-rule="evenodd" clip-rule="evenodd" d="M30.8096 15.0127H36.8554V21.0179H30.8096V15.0127ZM31.3134 15.5132H31.7902V20.5177H31.3134V15.5132ZM32.2103 15.5132H32.7065V20.5177H32.2103V15.5132ZM33.1264 15.5132H33.6226V20.5177H33.1264V15.5132ZM34.0425 15.5132H34.5387V20.5177H34.0425V15.5132ZM34.9584 15.5132H35.4549V20.5177H34.9584V15.5132ZM35.8745 15.5132H36.3516V20.5177H35.8745V15.5132Z" fill="#23A3C2"/>
<path fill-rule="evenodd" clip-rule="evenodd" d="M30.8096 8.08301H36.8554V14.0878H30.8096V8.08301ZM31.3134 8.58349H31.7902V13.5875H31.3134V8.58349ZM32.2103 8.58349H32.7065V13.5875H32.2103V8.58349ZM33.1264 8.58349H33.6226V13.5875H33.1264V8.58349ZM34.0425 8.58349H34.5387V13.5875H34.0425V8.58349ZM34.9584 8.58349H35.4549V13.5875H34.9584V8.58349ZM35.8745 8.58349H36.3516V13.5875H35.8745V8.58349Z" fill="#34BBDE"/>
<path fill-rule="evenodd" clip-rule="evenodd" d="M37.7861 15.0127H43.8318V21.0179H37.7861V15.0127ZM38.29 15.5132H38.7669V20.5177H38.29V15.5132ZM39.187 15.5132H39.6832V20.5177H39.187V15.5132ZM40.1028 15.5132H40.599V20.5177H40.1028V15.5132ZM41.019 15.5132H41.5152V20.5177H41.019V15.5132ZM41.9351 15.5132H42.4313V20.5177H41.9351V15.5132ZM42.851 15.5132H43.3283V20.5177H42.851V15.5132Z" fill="#34BBDE"/>
<path fill-rule="evenodd" clip-rule="evenodd" d="M37.7861 8.08301H43.8318V14.0878H37.7861V8.08301ZM38.29 8.58349H38.7669V13.5875H38.29V8.58349ZM39.187 8.58349H39.6832V13.5875H39.187V8.58349ZM40.1028 8.58349H40.599V13.5875H40.1028V8.58349ZM41.019 8.58349H41.5152V13.5875H41.019V8.58349ZM41.9351 8.58349H42.4313V13.5875H41.9351V8.58349ZM42.851 8.58349H43.3283V13.5875H42.851V8.58349Z" fill="#23A3C2"/>
<path fill-rule="evenodd" clip-rule="evenodd" d="M37.7861 1.1543H43.8318V7.15946H37.7861V1.1543ZM38.29 1.65446H38.7669V6.65898H38.29V1.65446ZM39.187 1.65446H39.6832V6.65898H39.187V1.65446ZM40.1028 1.65446H40.599V6.65898H40.1028V1.65446ZM41.019 1.65446H41.5152V6.65898H41.019V1.65446ZM41.9351 1.65446H42.4313V6.65898H41.9351V1.65446ZM42.851 1.65446H43.3283V6.65898H42.851V1.65446Z" fill="#34BBDE"/>
<path fill-rule="evenodd" clip-rule="evenodd" d="M44.7617 15.0127H50.8076V21.0179H44.7617V15.0127ZM45.2653 15.5132H45.7427V20.5177H45.2653V15.5132ZM46.1622 15.5132H46.6584V20.5177H46.1622V15.5132ZM47.0785 15.5132H47.5747V20.5177H47.0785V15.5132ZM47.9943 15.5132H48.4905V20.5177H47.9943V15.5132ZM48.9107 15.5132H49.4067V20.5177H48.9107V15.5132ZM49.8266 15.5132H50.3037V20.5177H49.8266V15.5132Z" fill="#23A3C2"/>
<path fill-rule="evenodd" clip-rule="evenodd" d="M29.501 30.7529C30.422 30.7529 31.1687 31.4949 31.1687 32.4097C31.1687 33.3245 30.422 34.0661 29.501 34.0661C28.5798 34.0661 27.833 33.3245 27.833 32.4097C27.833 31.4949 28.5798 30.7529 29.501 30.7529Z" fill="#D3ECEC"/>
<path fill-rule="evenodd" clip-rule="evenodd" d="M29.5013 31.2236C29.6539 31.2236 29.7995 31.2522 29.9338 31.304C29.7882 31.3875 29.6897 31.5441 29.6897 31.7233C29.6897 31.9907 29.908 32.2072 30.1772 32.2072C30.3617 32.2072 30.522 32.1055 30.6048 31.9552C30.6633 32.0953 30.6958 32.2491 30.6958 32.4104C30.6958 33.0656 30.1611 33.5967 29.5013 33.5967C28.8417 33.5967 28.3066 33.0656 28.3066 32.4104C28.3066 31.755 28.8417 31.2236 29.5013 31.2236Z" fill="#364548"/>
<path fill-rule="evenodd" clip-rule="evenodd" d="M0 27.3209H77.5875C75.8981 26.8952 72.2423 26.3202 72.8452 24.1211C69.7734 27.6517 62.3653 26.598 60.4957 24.8571C58.4137 27.8564 46.2933 26.7163 45.448 24.3798C42.8379 27.4223 34.75 27.4223 32.1398 24.3798C31.2941 26.7163 19.174 27.8564 17.0918 24.8571C15.2222 26.598 7.81467 27.6517 4.74256 24.1211C5.34544 26.3202 1.68972 26.8952 0 27.3209Z" fill="#364548"/>
<path fill-rule="evenodd" clip-rule="evenodd" d="M33.9349 42.6917C29.8044 40.7448 27.5371 38.0983 26.2756 35.209C24.7415 35.6441 22.897 35.9221 20.7541 36.0415C19.9468 36.0865 19.0977 36.1095 18.2064 36.1095C17.179 36.1095 16.0965 36.0793 14.96 36.0194C18.7479 39.7796 23.4079 42.6747 32.0362 42.7276C32.6733 42.7276 33.3057 42.7153 33.9349 42.6917Z" fill="#BDD9D7"/>
<path fill-rule="evenodd" clip-rule="evenodd" d="M27.8098 37.8753C27.2383 37.1048 26.6839 36.1364 26.2765 35.209C24.742 35.6442 22.8972 35.9224 20.7539 36.0418C22.226 36.8356 24.3315 37.571 27.8098 37.8753Z" fill="#D3ECEC"/>
</svg>
