<svg width="64" height="64" viewBox="0 0 64 64" fill="none" xmlns="http://www.w3.org/2000/svg">
<path opacity="0.992" fill-rule="evenodd" clip-rule="evenodd" d="M44.8129 19.0627C44.343 20.4525 43.9055 21.8692 43.5004 23.3127C43.5463 20.6381 43.2129 18.0131 42.5004 15.4377C41.9801 13.4373 40.9801 11.729 39.5004 10.3127C38.2023 11.2464 36.7648 11.8922 35.1879 12.2502C32.0948 12.9671 28.9698 13.5088 25.8129 13.8752C22.5078 14.8263 20.6745 17.0138 20.3129 20.4377C20.2295 21.1043 20.1463 21.7711 20.0629 22.4377C19.7876 21.2945 19.4959 20.1695 19.1879 19.0627C18.6589 15.7691 18.9714 12.5607 20.1254 9.43771C22.2509 4.98881 25.73 2.25965 30.5629 1.25021C34.7351 0.932423 38.1934 2.34909 40.9379 5.50021C42.8675 5.92936 44.18 7.0752 44.8754 8.93771C45.4676 10.7682 45.676 12.6432 45.5004 14.5627C45.3658 16.0787 45.1366 17.5787 44.8129 19.0627Z" fill="#525252"/>
<path opacity="0.998" fill-rule="evenodd" clip-rule="evenodd" d="M44.8123 19.0625C45.391 19.2165 45.7453 19.5915 45.8748 20.1875C46.1798 21.6877 45.8255 23.0002 44.8123 24.125C44.3283 24.4626 43.7865 24.6501 43.1873 24.6875C42.4594 26.7682 41.501 28.7265 40.3123 30.5625C40.004 30.8425 39.754 31.1759 39.5623 31.5625C39.5704 31.5077 39.5497 31.466 39.4998 31.4375C34.3344 37.1742 29.251 37.0909 24.2498 31.1875C24.1999 31.216 24.1792 31.2577 24.1873 31.3125C24.0362 31.0074 23.8278 30.7574 23.5623 30.5625C22.396 28.7715 21.4585 26.8549 20.7498 24.8125C19.436 24.6671 18.561 23.9587 18.1248 22.6875C17.84 21.6693 17.8817 20.6693 18.2498 19.6875C18.4819 19.35 18.7944 19.1418 19.1873 19.0625C19.4953 20.1693 19.787 21.2943 20.0623 22.4375C20.0884 22.6152 20.1509 22.7819 20.2498 22.9375C20.3123 22.1053 20.333 21.2719 20.3123 20.4375C20.6739 17.0136 22.5072 14.8261 25.8123 13.875C28.9692 13.5086 32.0942 12.9669 35.1873 12.25C36.7642 11.892 38.2017 11.2462 39.4998 10.3125C40.9795 11.7288 41.9795 13.4371 42.4998 15.4375C43.2123 18.0129 43.5457 20.6379 43.4998 23.3125C43.9049 21.869 44.3424 20.4522 44.8123 19.0625Z" fill="#FEDFB1"/>
<path fill-rule="evenodd" clip-rule="evenodd" d="M20.3125 20.4375C20.3332 21.2719 20.3125 22.1053 20.25 22.9375C20.1511 22.7819 20.0886 22.6153 20.0625 22.4375C20.1459 21.7709 20.2291 21.1041 20.3125 20.4375Z" fill="#857B6E"/>
<path opacity="0.996" fill-rule="evenodd" clip-rule="evenodd" d="M23.5625 30.5625C23.828 30.7574 24.0364 31.0074 24.1875 31.3125C26.1163 35.0345 28.6996 38.2428 31.9375 40.9375C34.5404 38.73 36.7696 36.1883 38.625 33.3125C38.9725 32.7422 39.285 32.159 39.5625 31.5625C39.7542 31.1759 40.0042 30.8425 40.3125 30.5625C41.1559 32.1245 42.0309 33.6661 42.9375 35.1875C42.8612 35.2989 42.8196 35.4239 42.8125 35.5625C42.3541 36.2291 41.8959 36.8959 41.4375 37.5625C39.7397 39.9914 38.0105 42.408 36.25 44.8125C35.7009 44.3246 35.1384 43.8664 34.5625 43.4375C33.69 42.6904 32.815 41.9404 31.9375 41.1875C31.06 41.9404 30.185 42.6904 29.3125 43.4375C28.7343 43.8693 28.1718 44.3276 27.625 44.8125C25.8645 42.408 24.1353 39.9914 22.4375 37.5625C21.9571 36.7684 21.4154 36.0184 20.8125 35.3125C21.7825 33.7594 22.6992 32.176 23.5625 30.5625Z" fill="#97CFF0"/>
<path fill-rule="evenodd" clip-rule="evenodd" d="M39.5623 31.5625C39.2848 32.159 38.9723 32.7422 38.6248 33.3125C36.7694 36.1883 34.5401 38.73 31.9373 40.9375C28.6994 38.2428 26.116 35.0345 24.1873 31.3125C24.1791 31.2578 24.1999 31.216 24.2498 31.1875C29.251 37.0909 34.3344 37.1743 39.4998 31.4375C39.5496 31.466 39.5704 31.5078 39.5623 31.5625Z" fill="#FAC791"/>
<path opacity="0.997" fill-rule="evenodd" clip-rule="evenodd" d="M42.9371 35.1875C43.5875 35.2511 44.1709 35.4595 44.6871 35.8125C45.3733 37.1847 46.0608 38.5598 46.7496 39.9375C49.1593 40.1361 50.9509 41.3028 52.1246 43.4375C53.3694 45.7794 53.9319 48.2794 53.8121 50.9375C53.4508 50.8246 53.0758 50.783 52.6871 50.8125C52.9141 48.0115 52.2266 45.4699 50.6246 43.1875C49.5336 41.7351 48.0961 41.131 46.3121 41.375C44.7538 42.2168 43.8579 43.5293 43.6246 45.3125C43.316 47.7522 43.6703 50.0855 44.6871 52.3125C44.322 52.2854 43.9888 52.3686 43.6871 52.5625C42.2723 49.5951 42.0848 46.5535 43.1246 43.4375C43.2913 43.1041 43.458 42.7709 43.6246 42.4375C44.1864 41.6263 44.8323 40.897 45.5621 40.25C44.8794 38.5274 43.9628 36.9649 42.8121 35.5625C42.8193 35.4239 42.8609 35.2989 42.9371 35.1875Z" fill="#CDCCCC"/>
<path opacity="0.995" fill-rule="evenodd" clip-rule="evenodd" d="M20.6875 35.3125C20.7291 35.3125 20.7709 35.3125 20.8125 35.3125C21.4154 36.0184 21.9571 36.7684 22.4375 37.5625C24.7594 42.989 27.176 48.364 29.6875 53.6875C30.3395 55.434 31.0895 57.1423 31.9375 58.8125C32.7855 57.1423 33.5355 55.434 34.1875 53.6875C36.699 48.364 39.1156 42.989 41.4375 37.5625C41.8959 36.8959 42.3541 36.2291 42.8125 35.5625C43.9631 36.9649 44.8798 38.5274 45.5625 40.25C44.8326 40.897 44.1868 41.6263 43.625 42.4375C43.4584 42.7709 43.2916 43.1041 43.125 43.4375C42.0851 46.5535 42.2726 49.5951 43.6875 52.5625C43.1059 53.3434 43.2309 53.9891 44.0625 54.5C45.423 54.5958 45.8605 53.9916 45.375 52.6875C45.1771 52.5036 44.9479 52.3786 44.6875 52.3125C43.6706 50.0855 43.3164 47.7522 43.625 45.3125C43.8583 43.5293 44.7541 42.2168 46.3125 41.375C48.0965 41.131 49.534 41.7351 50.625 43.1875C52.227 45.4699 52.9145 48.0115 52.6875 50.8125C51.9109 51.4415 51.8691 52.129 52.5625 52.875C53.8085 53.2129 54.371 52.7337 54.25 51.4375C54.1675 51.2095 54.0216 51.0429 53.8125 50.9375C53.9323 48.2794 53.3698 45.7794 52.125 43.4375C50.9513 41.3028 49.1596 40.1361 46.75 39.9375C46.0611 38.5598 45.3736 37.1847 44.6875 35.8125C49.2886 37.3935 53.2679 39.9353 56.625 43.4375C58.222 45.2154 59.1386 47.2987 59.375 49.6875C59.4584 53.2709 59.4584 56.8541 59.375 60.4375C59.1726 61.5567 58.5268 62.2859 57.4375 62.625C40.4791 62.7084 23.5209 62.7084 6.5625 62.625C5.47327 62.2859 4.82743 61.5567 4.625 60.4375C4.54167 56.8541 4.54167 53.2709 4.625 49.6875C4.7761 47.6359 5.48443 45.8025 6.75 44.1875C9.98462 40.4117 13.9638 37.7035 18.6875 36.0625C17.262 38.1195 15.9911 40.2863 14.875 42.5625C14.0259 44.6634 13.4216 46.8301 13.0625 49.0625C11.2936 49.4356 10.5228 50.5189 10.75 52.3125C11.4985 54.0765 12.7694 54.5972 14.5625 53.875C15.8663 52.8791 16.1371 51.65 15.375 50.1875C14.9676 49.7801 14.5719 49.3844 14.1875 49C14.7293 45.8328 15.7918 42.8536 17.375 40.0625C18.4496 38.4538 19.5538 36.8704 20.6875 35.3125Z" fill="#E5E5E4"/>
<path opacity="0.997" fill-rule="evenodd" clip-rule="evenodd" d="M20.6872 35.3125C19.5535 36.8704 18.4494 38.4538 17.3747 40.0625C15.7915 42.8536 14.729 45.8328 14.1872 49C14.5716 49.3844 14.9674 49.7801 15.3747 50.1875C16.1369 51.65 15.866 52.8791 14.5622 53.875C12.7691 54.5972 11.4983 54.0765 10.7497 52.3125C10.5225 50.5189 11.2933 49.4356 13.0622 49.0625C13.4214 46.8301 14.0256 44.6634 14.8747 42.5625C15.9909 40.2863 17.2617 38.1195 18.6872 36.0625C18.7011 35.9854 18.7427 35.9229 18.8122 35.875C19.4432 35.6994 20.0682 35.5119 20.6872 35.3125Z" fill="#CDCCCC"/>
<path fill-rule="evenodd" clip-rule="evenodd" d="M22.4375 37.5625C24.1352 39.9914 25.8645 42.408 27.625 44.8125C28.1718 44.3276 28.7343 43.8692 29.3125 43.4375C29.683 44.0164 30.1414 44.5164 30.6875 44.9375C30.3872 47.8565 30.0539 50.7733 29.6875 53.6875C27.176 48.364 24.7594 42.989 22.4375 37.5625Z" fill="#57B2E4"/>
<path fill-rule="evenodd" clip-rule="evenodd" d="M41.4375 37.5625C39.1156 42.989 36.699 48.364 34.1875 53.6875C33.8211 50.7733 33.4877 47.8565 33.1875 44.9375C33.7336 44.5164 34.192 44.0164 34.5625 43.4375C35.1384 43.8664 35.7009 44.3246 36.25 44.8125C38.0105 42.408 39.7397 39.9914 41.4375 37.5625Z" fill="#57B2E4"/>
<path fill-rule="evenodd" clip-rule="evenodd" d="M34.5625 43.4375C34.192 44.0164 33.7336 44.5164 33.1875 44.9375C32.3541 44.9375 31.5209 44.9375 30.6875 44.9375C30.1414 44.5164 29.683 44.0164 29.3125 43.4375C30.185 42.6904 31.06 41.9404 31.9375 41.1875C32.815 41.9404 33.69 42.6904 34.5625 43.4375Z" fill="#525353"/>
<path fill-rule="evenodd" clip-rule="evenodd" d="M30.6875 44.9375C31.5209 44.9375 32.3541 44.9375 33.1875 44.9375C33.4878 47.8565 33.8211 50.7733 34.1875 53.6875C33.5355 55.434 32.7855 57.1423 31.9375 58.8125C31.0895 57.1423 30.3395 55.434 29.6875 53.6875C30.0539 50.7733 30.3873 47.8565 30.6875 44.9375Z" fill="#676768"/>
<path fill-rule="evenodd" clip-rule="evenodd" d="M12.6877 50.4376C14.1637 50.267 14.7262 50.892 14.3752 52.3126C13.6252 53.146 12.8752 53.146 12.1252 52.3126C11.8094 51.5295 11.9969 50.9045 12.6877 50.4376Z" fill="#B4B4B4"/>
<path fill-rule="evenodd" clip-rule="evenodd" d="M52.6878 50.8124C53.0764 50.7829 53.4514 50.8245 53.8128 50.9374C54.0219 51.0428 54.1678 51.2094 54.2503 51.4374C54.3713 52.7336 53.8088 53.2128 52.5628 52.8749C51.8694 52.1289 51.9112 51.4414 52.6878 50.8124Z" fill="#696969"/>
<path fill-rule="evenodd" clip-rule="evenodd" d="M44.6872 52.3126C44.9476 52.3787 45.1768 52.5037 45.3747 52.6876C45.8602 53.9917 45.4227 54.5959 44.0622 54.5001C43.2306 53.9892 43.1056 53.3435 43.6872 52.5626C43.9888 52.3687 44.3221 52.2855 44.6872 52.3126Z" fill="#696969"/>
</svg>
