<svg width="114" height="114" viewBox="0 0 114 114" fill="none" xmlns="http://www.w3.org/2000/svg">
<g clip-path="url(#clip0_14818_10266)">
<path fill-rule="evenodd" clip-rule="evenodd" d="M7.07931 51.0228C6.01077 51.0228 5.14258 50.1547 5.14258 49.0861V1.93673C5.14258 0.86819 6.01077 0 7.07931 0H60.9739C62.0424 0 62.9106 0.86819 62.9106 1.93673V10.2847C62.9106 11.3533 62.0424 12.2214 60.9739 12.2214C60.4396 12.2214 59.9721 12.0211 59.5714 11.6204L20.4361 45.2794L12.9563 56.6327L12.7559 56.8998L12.5556 56.6327L8.08107 50.7557C7.81393 50.9561 7.48001 51.0228 7.07931 51.0228Z" fill="#0E3EB7"/>
<path fill-rule="evenodd" clip-rule="evenodd" d="M86.0848 64.5799C85.0831 64.5799 84.2149 63.8453 84.1481 62.9103H46.2817L46.1481 62.8435L28.7843 49.6871H18.1657C17.9653 50.4885 17.2307 51.0228 16.3625 51.0228C15.294 51.0228 14.4258 50.1546 14.4258 49.086V10.2846C14.4258 9.21609 15.294 8.3479 16.3625 8.3479H70.1903C71.2588 8.3479 72.127 9.21609 72.127 10.2846C72.127 10.8189 71.9267 11.3532 71.5927 11.6871L84.7492 24.7099C85.0831 24.376 85.5506 24.1757 86.0848 24.1757C87.1534 24.1757 87.9548 25.0439 87.9548 26.1124V62.6432C87.9548 63.7117 87.1534 64.5799 86.0848 64.5799Z" fill="#002548"/>
<path fill-rule="evenodd" clip-rule="evenodd" d="M111.996 113.933H1.93673C0.86819 113.933 0 113.065 0 111.997V49.0861C0 48.0176 0.86819 47.1494 1.93673 47.1494H29.8524C30.3199 47.1494 30.7206 47.3498 31.0545 47.6169L46.5483 60.7733H111.996C113.065 60.7733 113.933 61.5747 113.933 62.6433V111.997C113.933 113.065 113.065 113.933 111.996 113.933Z" fill="#FFDD33"/>
<path fill-rule="evenodd" clip-rule="evenodd" d="M102.379 105.786H64.8469C63.7783 105.786 62.9102 104.918 62.9102 103.849V71.9931C62.9102 70.9246 63.7783 70.0564 64.8469 70.0564H102.379C103.448 70.0564 104.249 70.9246 104.249 71.9931V103.849C104.249 104.918 103.448 105.786 102.379 105.786Z" fill="#002548"/>
<path fill-rule="evenodd" clip-rule="evenodd" d="M50.2218 26.914H27.7824C26.7139 26.914 25.8457 26.0458 25.8457 24.9773C25.8457 23.9087 26.7139 23.0405 27.7824 23.0405H50.2218C51.2903 23.0405 52.1585 23.9087 52.1585 24.9773C52.1585 26.0458 51.2903 26.914 50.2218 26.914Z" fill="#FFDD33"/>
<path fill-rule="evenodd" clip-rule="evenodd" d="M74.5979 34.8613H27.7824C26.7139 34.8613 25.8457 33.9931 25.8457 32.9245C25.8457 31.856 26.7139 30.9878 27.7824 30.9878H74.5979C75.6664 30.9878 76.5346 31.856 76.5346 32.9245C76.5346 33.9931 75.6664 34.8613 74.5979 34.8613Z" fill="#FFDD33"/>
<path fill-rule="evenodd" clip-rule="evenodd" d="M74.5979 42.8085H27.7824C26.7139 42.8085 25.8457 41.9403 25.8457 40.8718C25.8457 39.8032 26.7139 38.9351 27.7824 38.9351H74.5979C75.6664 38.9351 76.5346 39.8032 76.5346 40.8718C76.5346 41.9403 75.6664 42.8085 74.5979 42.8085Z" fill="#FFDD33"/>
<path fill-rule="evenodd" clip-rule="evenodd" d="M86.0852 28.0492H70.1906C69.1221 28.0492 68.2539 27.181 68.2539 26.1125V10.2847C68.2539 9.48329 68.7214 8.81545 69.456 8.48153C70.1906 8.2144 71.0588 8.34797 71.5931 8.94902L87.4209 24.7768C87.9551 25.3111 88.1555 26.1792 87.8216 26.8471C87.5544 27.5817 86.8198 28.0492 86.0852 28.0492Z" fill="#FFDD33"/>
<path fill-rule="evenodd" clip-rule="evenodd" d="M32.9915 106.988H25.2445C24.176 106.988 23.3078 106.119 23.3078 104.984V100.777C22.9071 100.576 22.5064 100.443 22.1057 100.309L19.1004 103.314C18.3658 104.049 17.0969 104.049 16.3623 103.314L10.886 97.8382C10.4853 97.4375 10.2849 96.97 10.2849 96.4357C10.2849 95.9015 10.4853 95.434 10.886 95.0333L13.8913 92.028C13.6909 91.6273 13.5574 91.2934 13.4238 90.8927H9.14962C8.08108 90.8927 7.21289 90.0245 7.21289 88.8892V81.1422C7.21289 80.0737 8.08108 79.2055 9.14962 79.2055H13.4238C13.5574 78.8048 13.6909 78.4709 13.8913 78.0702L10.886 75.0649C10.0846 74.2635 10.0846 73.0614 10.886 72.26L16.3623 66.7837C17.0969 66.0491 18.3658 66.0491 19.1004 66.7837L22.1057 69.789C22.5064 69.6554 22.9071 69.4551 23.3078 69.3215V65.1141C23.3078 63.9788 24.176 63.1106 25.2445 63.1106H32.9915C34.06 63.1106 34.9282 63.9788 34.9282 65.1141V69.3215C35.3289 69.4551 35.7296 69.6554 36.1303 69.789L39.1356 66.7837C39.8702 66.0491 41.1391 66.0491 41.8737 66.7837L47.35 72.26C48.1514 73.0614 48.1514 74.2635 47.35 75.0649L44.3447 78.0702C44.5451 78.4709 44.6786 78.8048 44.8122 79.2055H49.0864C50.1549 79.2055 51.0231 80.0737 51.0231 81.1422V88.8892C51.0231 90.0245 50.1549 90.8927 49.0864 90.8927H44.8122C44.6786 91.2934 44.5451 91.6273 44.3447 92.028L47.35 95.0333C48.1514 95.8347 48.1514 97.0368 47.35 97.8382L41.8737 103.314C41.5398 103.648 41.0055 103.849 40.4712 103.849C40.0038 103.849 39.4695 103.648 39.1356 103.314L36.1303 100.309C35.7296 100.443 35.3289 100.643 34.9282 100.777V104.984C34.9282 106.119 34.06 106.988 32.9915 106.988Z" fill="#002548"/>
<path fill-rule="evenodd" clip-rule="evenodd" d="M29.1168 92.963C24.7759 92.963 21.2363 89.4235 21.2363 85.0157C21.2363 80.6748 24.7759 77.1353 29.1168 77.1353C33.4578 77.1353 36.9973 80.6748 36.9973 85.0157C36.9973 89.4235 33.4578 92.963 29.1168 92.963Z" fill="#FFDD33"/>
</g>
<defs>
<clipPath id="clip0_14818_10266">
<rect width="114" height="114" fill="white"/>
</clipPath>
</defs>
</svg>
