<svg width="1600" height="900" viewBox="0 0 1600 900" fill="none" xmlns="http://www.w3.org/2000/svg">
<mask id="mask0_1276_6198" style="mask-type:alpha" maskUnits="userSpaceOnUse" x="0" y="0" width="1600" height="900">
<rect width="1600" height="900" fill="#0C1721"/>
</mask>
<g mask="url(#mask0_1276_6198)">
<g opacity="0.05">
<path opacity="0.5" d="M1303.36 1101.39C1511.65 846.067 1636.54 520.155 1636.54 165.05C1636.54 -238.535 1475.19 -604.471 1213.47 -871.796" stroke="white" stroke-width="2" stroke-miterlimit="10"/>
<path opacity="0.5" d="M153 1376.97C822.716 1376.97 1365.6 834.39 1365.6 165.05C1365.6 -504.29 822.716 -1046.87 153 -1046.87C-516.716 -1046.87 -1059.6 -504.29 -1059.6 165.05" stroke="white" stroke-width="2" stroke-miterlimit="10"/>
<path d="M1178.71 165.05C1178.71 -401.128 719.456 -860.079 153 -860.079" stroke="white" stroke-width="2" stroke-miterlimit="10"/>
<path d="M-731.897 616.31C-567.479 937.672 -232.964 1157.69 153 1157.69C316.41 1157.69 470.594 1118.26 606.528 1048.36" stroke="white" stroke-width="2" stroke-miterlimit="10"/>
<path opacity="0.5" d="M774.088 791.104C935.282 631.37 1035.12 409.867 1035.12 165.05C1035.12 -79.7663 936.37 -298.813 776.747 -458.346" stroke="white" stroke-width="2" stroke-miterlimit="10"/>
<path d="M-497.538 636.604C-351.492 837.531 -114.515 968.154 153 968.154C330.068 968.154 493.801 910.896 626.592 813.895" stroke="white" stroke-width="2" stroke-miterlimit="10"/>
<path opacity="0.5" d="M730.778 585.547C816.874 467.568 867.678 322.248 867.678 165.05C867.678 -71.3105 752.816 -280.854 575.828 -410.873" stroke="white" stroke-width="2" stroke-miterlimit="10"/>
<path d="M-307.336 624.645C-189.573 742.463 -26.8075 815.345 153 815.345C332.808 815.345 497.507 741.577 615.432 622.511" stroke="white" stroke-width="2" stroke-miterlimit="10"/>
<path d="M-406.607 165.05C-406.607 473.93 -156.053 724.344 153 724.344" stroke="white" stroke-width="2" stroke-miterlimit="10"/>
<path d="M303.961 637.53C504.155 573.709 649.153 386.311 649.153 165.05C649.153 111.094 640.532 59.151 624.577 10.5098" stroke="white" stroke-width="2" stroke-miterlimit="10"/>
<path d="M153 -243.487C-72.7365 -243.487 -255.767 -60.5996 -255.767 165.051" stroke="white" stroke-width="2" stroke-miterlimit="10"/>
<path d="M331.881 522.773C463.02 457.139 553.065 321.604 553.065 165.05C553.065 99.578 537.312 37.81 509.432 -16.7502" stroke="white" stroke-width="2" stroke-miterlimit="10"/>
<path d="M523.292 231.046C527.079 209.625 529.053 187.559 529.053 165.05C529.053 -23.9174 389.534 -180.27 207.873 -206.845" stroke="white" stroke-width="2" stroke-miterlimit="10"/>
<path d="M-192.998 272.721C-147.109 420.135 -9.56404 527.121 153 527.121C193.45 527.121 232.328 520.518 268.668 508.277" stroke="white" stroke-width="2" stroke-miterlimit="10"/>
<path d="M45.1882 491.969C79.1112 503.123 115.371 509.163 153 509.163C307.104 509.163 437.558 408.015 481.513 268.494" stroke="white" stroke-width="2" stroke-miterlimit="10"/>
<path d="M107.071 -162.352C-53.841 -140.004 -177.728 -1.93218 -177.728 165.051C-177.728 184.861 -175.996 204.31 -172.652 223.154" stroke="white" stroke-width="2" stroke-miterlimit="10"/>
<path d="M339.778 427.745C421.886 369.319 475.429 273.446 475.429 165.05C475.429 93.9408 452.384 28.2268 413.345 -25.0852" stroke="white" stroke-width="2" stroke-miterlimit="10"/>
<path d="M-120.196 17.0332C-144.128 61.0438 -157.705 111.457 -157.705 165.051C-157.705 287.177 -87.2 392.795 15.3745 443.53" stroke="white" stroke-width="2" stroke-miterlimit="10"/>
<path d="M454.479 165.05C454.479 -1.36847 319.512 -136.259 153 -136.259" stroke="white" stroke-width="2" stroke-miterlimit="10"/>
<path d="M-111.655 296.398C-63.3089 393.559 37.0498 460.32 153 460.32C203.522 460.32 251.103 447.636 292.721 425.289" stroke="white" stroke-width="2" stroke-miterlimit="10"/>
<path d="M39.3062 407.008C73.8335 423.235 112.349 432.295 153.041 432.295C267.903 432.295 365.845 359.938 403.716 258.306" stroke="white" stroke-width="2" stroke-miterlimit="10"/>
<path d="M76.855 -91.2422C-33.737 -58.4657 -114.435 43.85 -114.435 165.05C-114.435 196.538 -108.996 226.778 -98.964 254.843" stroke="white" stroke-width="2" stroke-miterlimit="10"/>
<path d="M396.987 133.522C381.476 12.6439 278.177 -80.7729 153 -80.7729C139.383 -80.7729 126.047 -79.6857 113.034 -77.5516" stroke="white" stroke-width="2" stroke-miterlimit="10"/>
<path d="M-81.5188 146.166C-82.0022 152.407 -82.2843 158.688 -82.2843 165.05C-82.2843 284.399 6.7131 383.01 121.979 398.15" stroke="white" stroke-width="2" stroke-miterlimit="10"/>
<path d="M153 390.257C277.451 390.257 378.334 289.432 378.334 165.05" stroke="white" stroke-width="2" stroke-miterlimit="10"/>
<path d="M61.062 -27.5815C-10.853 6.76526 -60.5288 80.1297 -60.5288 165.05C-60.5288 203.021 -50.6178 238.697 -33.2132 269.581" stroke="white" stroke-width="2" stroke-miterlimit="10"/>
<path d="M343.686 111.014C320.157 27.9048 243.689 -32.937 153.04 -32.937C130.64 -32.937 109.086 -29.2325 88.9816 -22.3471" stroke="white" stroke-width="2" stroke-miterlimit="10"/>
<path d="M12.9171 305.055C48.7739 340.892 98.2884 363.038 153 363.038C207.712 363.038 259.644 339.804 295.702 302.397" stroke="white" stroke-width="2" stroke-miterlimit="10"/>
</g>
</g>
</svg>
