<svg width="48" height="48" viewBox="0 0 48 48" fill="none" xmlns="http://www.w3.org/2000/svg">
<g id="domain-specific-data-scraping-solutions_drop-shipping-automation 1" clip-path="url(#clip0_6034_16669)">
<g id="Group">
<path id="Vector" d="M5.3 21.1001H42.7C43.4 21.1001 44 21.7001 44 22.4001V45.0001C44 45.7001 43.4 46.3001 42.7 46.3001H5.3C4.6 46.3001 4 45.8001 4 45.0001V22.4001C4 21.7001 4.6 21.1001 5.3 21.1001Z" fill="#D2D9DC"/>
<path id="Vector_2" d="M6.5 23.7002H41.5V46.4002H6.5V23.7002Z" fill="#002548"/>
<path id="Vector_3" d="M16.6008 44.2002V44.3002C16.6008 44.7002 16.9008 45.0002 17.3008 45.0002H30.6008C31.0008 45.0002 31.3008 44.7002 31.3008 44.3002V44.2002H47.1008C47.1008 47.7002 44.3008 48.0002 40.8008 48.0002H7.10078C3.60078 48.0002 0.800781 47.7002 0.800781 44.2002H16.6008Z" fill="#839299"/>
<path id="Vector_4" d="M26.1008 36.9V29.5H21.9008V36.9H19.8008L24.0008 42.2L28.2008 36.9H26.1008Z" fill="#71C967"/>
<path id="Vector_5" d="M12.3008 0H35.6008C36.7008 0 37.6008 0.9 37.6008 2V23.2C37.6008 24.3 36.7008 25.2 35.6008 25.2H12.3008C11.2008 25.2 10.3008 24.3 10.3008 23.2V2C10.3008 0.9 11.2008 0 12.3008 0Z" fill="#FFBD86"/>
<path id="Vector_6" d="M28.2008 0V8.8L24.0008 5.6L19.8008 8.8V0" fill="#0054A6"/>
</g>
</g>
<defs>
<clipPath id="clip0_6034_16669">
<rect width="48" height="48" fill="white"/>
</clipPath>
</defs>
</svg>
