<svg width="50" height="50" viewBox="0 0 50 50" fill="none" xmlns="http://www.w3.org/2000/svg">
<path fill-rule="evenodd" clip-rule="evenodd" d="M26.251 42.6706C26.2193 43.4098 25.6195 44 24.8854 44C24.1309 44 23.5183 43.3768 23.5183 42.6091C23.5183 41.8414 24.1309 41.2182 24.8854 41.2182C25.1127 41.2182 25.3272 41.2747 25.5158 41.3748L31.0665 38.114C31.3512 38.5183 31.5984 38.9517 31.8033 39.4089L26.251 42.6706ZM31.0665 38.114C30.8539 37.8119 30.6204 37.526 30.3682 37.2586C30.3992 37.2218 30.4286 37.1835 30.4563 37.1435L38.5148 25.4719C43.4182 29.5158 46.5547 35.6926 46.5547 42.6091H32.4837C32.4837 41.4679 32.2402 40.3843 31.8033 39.4089L32.7829 38.8334C33.1344 38.6269 33.255 38.1689 33.0522 37.8114C32.8492 37.4538 32.3991 37.3311 32.0477 37.5375L31.0665 38.114ZM38.6723 31.2704C36.1294 31.2704 34.065 33.371 34.065 35.9584C34.065 38.5459 36.1294 40.6465 38.6723 40.6465C41.2151 40.6465 43.2795 38.5459 43.2795 35.9584C43.2795 33.371 41.2151 31.2704 38.6723 31.2704ZM41.0686 34.4651C41.0686 34.9313 40.6966 35.3098 40.2385 35.3098C39.7803 35.3098 39.4084 34.9313 39.4084 34.4651C39.4084 33.9989 39.7803 33.6204 40.2385 33.6204C40.6966 33.6204 41.0686 33.9989 41.0686 34.4651ZM39.5996 36.878C39.7334 36.4881 40.153 36.2821 40.536 36.418C40.9192 36.5541 41.1217 36.9811 40.9881 37.3709C40.6541 38.3449 39.7428 39.0446 38.6723 39.0446C37.6017 39.0446 36.6904 38.3449 36.3564 37.3709C36.2228 36.9811 36.4253 36.5541 36.8085 36.418C37.1916 36.2821 37.6112 36.4881 37.7449 36.878C37.8786 37.2681 38.2435 37.5483 38.6723 37.5483C39.101 37.5483 39.4659 37.2681 39.5996 36.878ZM37.9362 34.4651C37.9362 34.9313 37.5642 35.3098 37.1061 35.3098C36.6479 35.3098 36.2758 34.9313 36.2758 34.4651C36.2758 33.9989 36.6479 33.6204 37.1061 33.6204C37.5642 33.6204 37.9362 33.9989 37.9362 34.4651ZM19.3468 37.318C18.0695 38.7015 17.287 40.5628 17.287 42.6091H3.21613C3.21613 35.6586 6.38111 29.4567 11.3261 25.4141L19.3468 37.318ZM11.2307 31.2704C8.68783 31.2704 6.62343 33.371 6.62343 35.9584C6.62343 38.5459 8.68783 40.6465 11.2307 40.6465C13.7735 40.6465 15.8379 38.5459 15.8379 35.9584C15.8379 33.371 13.7735 31.2704 11.2307 31.2704ZM13.5465 37.8109C13.6803 38.2006 13.4776 38.6276 13.0946 38.7637C12.7114 38.8997 12.2918 38.6936 12.1581 38.3038C12.0243 37.9137 11.6594 37.6334 11.2307 37.6334C10.8019 37.6334 10.437 37.9137 10.3033 38.3038C10.1696 38.6936 9.74997 38.8997 9.3669 38.7637C8.98372 38.6276 8.78121 38.2006 8.91482 37.8109C9.24884 36.8368 10.1601 36.1371 11.2307 36.1371C12.3012 36.1371 13.2125 36.8368 13.5465 37.8109ZM10.4946 34.7043C10.4946 35.1705 10.1226 35.549 9.66447 35.549C9.2063 35.549 8.83436 35.1705 8.83436 34.7043C8.83436 34.2381 9.2063 33.8595 9.66447 33.8595C10.1226 33.8595 10.4946 34.2381 10.4946 34.7043ZM13.6271 34.7043C13.6271 35.1705 13.2551 35.549 12.7969 35.549C12.3387 35.549 11.9668 35.1705 11.9668 34.7043C11.9668 34.2381 12.3387 33.8595 12.7969 33.8595C13.2551 33.8595 13.6271 34.2381 13.6271 34.7043ZM20.5445 36.2642L12.5038 24.5161C16.0146 22.0227 20.2834 20.5599 24.8854 20.5599C29.5199 20.5599 33.8164 22.0435 37.3411 24.569L29.253 36.2833C28.0172 35.3982 26.5101 34.8776 24.8854 34.8776C23.272 34.8776 21.7755 35.3903 20.5445 36.2642ZM24.8854 23.0459C22.3426 23.0459 20.2782 25.1465 20.2782 27.7339C20.2782 30.3212 22.3426 32.4219 24.8854 32.4219C27.4281 32.4219 29.4926 30.3212 29.4926 27.7339C29.4926 25.1465 27.4281 23.0459 24.8854 23.0459ZM27.2817 26.2405C27.2817 26.7067 26.9098 27.0852 26.4516 27.0852C25.9934 27.0852 25.6215 26.7067 25.6215 26.2405C25.6215 25.7743 25.9934 25.3958 26.4516 25.3958C26.9098 25.3958 27.2817 25.7743 27.2817 26.2405ZM23.311 30.0081C22.9051 30.0081 22.5757 29.6728 22.5757 29.2599C22.5757 28.8469 22.9051 28.5118 23.311 28.5118H26.4598C26.8656 28.5118 27.1951 28.8469 27.1951 29.2599C27.1951 29.6728 26.8656 30.0081 26.4598 30.0081H23.311ZM24.1493 26.2405C24.1493 26.7067 23.7773 27.0852 23.3191 27.0852C22.8609 27.0852 22.489 26.7067 22.489 26.2405C22.489 25.7743 22.8609 25.3958 23.3191 25.3958C23.7773 25.3958 24.1493 25.7743 24.1493 26.2405ZM25.0018 8L26.309 12.0937H30.5391L27.1168 14.6237L28.424 18.7174L25.0018 16.1873L21.5795 18.7174L22.8867 14.6237L19.4643 12.0937H23.6946L25.0018 8ZM37.3423 11.7773L38.4135 15.132H41.8799L39.0755 17.2053L40.1467 20.5599L37.3423 18.4866L34.5378 20.5599L35.609 17.2053L32.8046 15.132H36.271L37.3423 11.7773ZM45.94 19.8758L46.8984 22.8773H50L47.4908 24.7323L48.4492 27.7339L45.94 25.8788L43.4308 27.7339L44.3891 24.7323L41.8799 22.8773H44.9815L45.94 19.8758ZM4.06 19.1168L5.01847 22.1183H8.12011L5.61088 23.9734L6.56923 26.9748L4.06 25.1199L1.55077 26.9748L2.50923 23.9734L0 22.1183H3.10164L4.06 19.1168ZM12.6577 11.7773L13.729 15.132H17.1954L14.391 17.2053L15.4622 20.5599L12.6577 18.4866L9.85333 20.5599L10.9245 17.2053L8.12011 15.132H11.5865L12.6577 11.7773Z" fill="#0054A6"/>
</svg>
