<svg width="1600" height="819" viewBox="0 0 1600 819" fill="none" xmlns="http://www.w3.org/2000/svg">
<g opacity="0.7">
<path d="M1335.1 627C1323.3 638.8 1307.6 645.3 1291 645.3C1274.3 645.3 1258.7 638.8 1246.9 627L1115 495.1L983.2 627C971.4 638.8 955.7 645.3 939.1 645.3C922.4 645.3 906.8 638.8 895 627C870.7 602.7 870.7 563.1 895 538.7L1115 318.6L1335.1 538.7C1359.4 563.1 1359.4 602.6 1335.1 627Z" fill="#0054A6"/>
</g>
<g opacity="0.6">
<path d="M1408.8 692.9C1412.2 696.3 1416.7 698 1421.2 698C1425.7 698 1430.2 696.3 1433.6 692.9L1468.9 657.6L1504.2 692.9C1507.6 696.3 1512.1 698 1516.6 698C1521.1 698 1525.6 696.3 1529 692.9C1535.8 686 1535.8 674.9 1529 668L1468.8 607.8L1408.6 668C1401.9 674.9 1401.9 686 1408.8 692.9Z" fill="white"/>
</g>
<g opacity="0.7">
<path d="M1408.8 767.9C1412.2 771.3 1416.7 773 1421.2 773C1425.7 773 1430.2 771.3 1433.6 767.9L1468.9 732.6L1504.2 767.9C1507.6 771.3 1512.1 773 1516.6 773C1521.1 773 1525.6 771.3 1529 767.9C1535.8 761 1535.8 749.9 1529 743L1468.8 682.8L1408.6 743C1401.9 749.9 1401.9 761 1408.8 767.9Z" fill="white"/>
</g>
<g opacity="0.45">
<path d="M1408.8 596.9C1412.2 600.3 1416.7 602 1421.2 602C1425.7 602 1430.2 600.3 1433.6 596.9L1468.9 561.6L1504.2 596.9C1507.6 600.3 1512.1 602 1516.6 602C1521.1 602 1525.6 600.3 1529 596.9C1535.8 590 1535.8 578.9 1529 572L1468.8 511.8L1408.6 572C1401.9 578.9 1401.9 590 1408.8 596.9Z" fill="white"/>
</g>
<g opacity="0.35">
<path d="M1408.8 473.9C1412.2 477.3 1416.7 479 1421.2 479C1425.7 479 1430.2 477.3 1433.6 473.9L1468.9 438.6L1504.2 473.9C1507.6 477.3 1512.1 479 1516.6 479C1521.1 479 1525.6 477.3 1529 473.9C1535.8 467 1535.8 455.9 1529 449L1468.8 388.8L1408.6 449C1401.9 455.9 1401.9 467.1 1408.8 473.9Z" fill="white"/>
</g>
<g opacity="0.25">
<path d="M1408.8 318.9C1412.2 322.3 1416.7 324 1421.2 324C1425.7 324 1430.2 322.3 1433.6 318.9L1468.9 283.6L1504.2 318.9C1507.6 322.3 1512.1 324 1516.6 324C1521.1 324 1525.6 322.3 1529 318.9C1535.8 312 1535.8 300.9 1529 294L1468.8 233.8L1408.6 294C1401.9 300.9 1401.9 312.1 1408.8 318.9Z" fill="white"/>
</g>
<g opacity="0.15">
<path d="M1408.8 130.9C1412.2 134.3 1416.7 136 1421.2 136C1425.7 136 1430.2 134.3 1433.6 130.9L1468.9 95.6004L1504.2 130.9C1507.6 134.3 1512.1 136 1516.6 136C1521.1 136 1525.6 134.3 1529 130.9C1535.8 124 1535.8 112.9 1529 106L1469 45.9004L1408.8 106.1C1401.9 112.9 1401.9 124.1 1408.8 130.9Z" fill="white"/>
</g>
<g opacity="0.6">
<path d="M1204.1 332.1C1206.4 334.4 1209.5 335.6 1212.6 335.6C1215.7 335.6 1218.7 334.4 1221.1 332.1L1245.2 308L1269.3 332.1C1271.6 334.4 1274.7 335.6 1277.8 335.6C1280.9 335.6 1283.9 334.4 1286.3 332.1C1291 327.4 1291 319.8 1286.3 315.1L1245.2 274L1204.1 315.1C1199.4 319.8 1199.4 327.4 1204.1 332.1Z" fill="#FFD433"/>
</g>
</svg>
