<svg width="114" height="114" viewBox="0 0 114 114" fill="none" xmlns="http://www.w3.org/2000/svg">
<path d="M94.6911 81.6807H19.3086V28.3088C19.3086 26.4386 20.8191 25 22.6174 25H91.3104C93.1805 25 94.6191 26.5105 94.6191 28.3088L94.6911 81.6807Z" fill="#D2D9DC"/>
<path d="M94.6912 88.2981H19.3088C17.5105 88.2981 16 86.7876 16 84.9893V82.9034C16 82.1841 16.5754 81.6086 17.2947 81.6086H96.7053C97.4246 81.6086 98 82.1841 98 82.9034V84.9893C98 86.7876 96.4895 88.2981 94.6912 88.2981Z" fill="#5F737C"/>
<path d="M24.3438 74.6316V31.9772C24.3438 30.8982 25.2069 29.9631 26.3578 29.9631H87.7139C88.7929 29.9631 89.728 30.8263 89.728 31.9772V74.6316C89.728 75.7105 88.8648 76.6456 87.7139 76.6456H26.3578C25.2069 76.6456 24.3438 75.7824 24.3438 74.6316Z" fill="#0054A6"/>
<path d="M75.3425 34.9263H69.732H60.3092C59.5179 34.9263 58.7267 35.214 58.1513 35.7175L57.36 39.9614L56.425 37.9473L55.7776 35.7175C55.2022 35.214 54.4829 34.9263 53.6197 34.9263H38.6583C37.7232 34.9263 37.0039 35.6456 37.0039 36.5807V57.5842C37.0039 58.5193 37.7232 59.2386 38.6583 59.2386H53.9793C54.6267 59.2386 55.2741 59.4543 55.8495 59.814L57.0004 58.807L58.2232 59.814C58.7986 59.4543 59.3741 59.2386 60.0934 59.2386H75.4144C76.3495 59.2386 77.0688 58.5193 77.0688 57.5842V36.5807C76.9969 35.6456 76.2776 34.9263 75.3425 34.9263Z" fill="#FED2A4"/>
<path d="M43.6934 43.3421V39.9614H50.3828V43.3421C50.3828 43.7018 50.167 44.0614 49.8074 44.2053L47.4337 45.3562C47.146 45.5 46.8583 45.5 46.5706 45.3562L44.1969 44.2053C43.9091 44.0614 43.6934 43.7018 43.6934 43.3421Z" fill="#ED1C24"/>
<path d="M52.6854 41.1121H41.3205C40.6731 41.1121 40.0977 40.6086 40.0977 39.8893C40.0977 39.17 40.6012 38.6665 41.3205 38.6665H52.6854C53.3327 38.6665 53.9082 39.17 53.9082 39.8893C53.9082 40.6086 53.3327 41.1121 52.6854 41.1121Z" fill="#ED1C24"/>
<path d="M58.223 35.7175C57.5037 36.3649 57.0002 37.2281 57.0002 38.307C57.0002 37.3 56.5686 36.3649 55.7773 35.7175V59.814C55.9931 59.9579 56.137 60.1017 56.2809 60.2456C56.6405 60.6052 57.2879 60.6052 57.6475 60.2456C57.7914 60.1017 58.0072 59.9579 58.151 59.814V35.7175H58.223Z" fill="#FFBD86"/>
<path d="M42.9748 56.1456H41.3205C40.6731 56.1456 40.0977 55.6421 40.0977 54.9228C40.0977 54.2035 40.6012 53.7 41.3205 53.7H42.9748C43.6222 53.7 44.1977 54.2035 44.1977 54.9228C44.1977 55.6421 43.6941 56.1456 42.9748 56.1456Z" fill="#F9FAFB"/>
<path d="M52.6851 56.1456H48.3693C47.7219 56.1456 47.1465 55.6421 47.1465 54.9228C47.1465 54.2035 47.65 53.7 48.3693 53.7H52.6851C53.3324 53.7 53.9079 54.2035 53.9079 54.9228C53.9079 55.6421 53.3324 56.1456 52.6851 56.1456Z" fill="#F9FAFB"/>
<path d="M52.6854 51.1107H41.3205C40.6731 51.1107 40.0977 50.6071 40.0977 49.8878C40.0977 49.1685 40.6012 48.665 41.3205 48.665H52.6854C53.3327 48.665 53.9082 49.1685 53.9082 49.8878C53.9082 50.6071 53.3327 51.1107 52.6854 51.1107Z" fill="#F9FAFB"/>
<path d="M72.6815 51.1105H61.3166C60.6692 51.1105 60.0938 50.607 60.0938 49.8877C60.0938 49.1684 60.6692 48.7368 61.3166 48.7368H72.6815C73.3288 48.7368 73.9043 49.2403 73.9043 49.9596C73.9043 50.6789 73.3288 51.1105 72.6815 51.1105Z" fill="#F9FAFB"/>
<path d="M72.6799 46.1475H71.0255C70.3782 46.1475 69.8027 45.644 69.8027 44.9247C69.8027 44.2054 70.3062 43.7019 71.0255 43.7019H72.6799C73.3273 43.7019 73.9027 44.2054 73.9027 44.9247C73.9027 45.644 73.3273 46.1475 72.6799 46.1475Z" fill="#F9FAFB"/>
<path d="M65.6323 46.1473H61.3166C60.6692 46.1473 60.0938 45.6438 60.0938 44.9245C60.0938 44.2052 60.6692 43.7017 61.3166 43.7017H65.6323C66.2797 43.7017 66.8552 44.2052 66.8552 44.9245C66.8552 45.6438 66.3516 46.1473 65.6323 46.1473Z" fill="#F9FAFB"/>
<path d="M72.6815 41.1124H61.3166C60.6692 41.1124 60.0938 40.6089 60.0938 39.8896C60.0938 39.1703 60.5973 38.6667 61.3166 38.6667H72.6815C73.3288 38.6667 73.9043 39.1703 73.9043 39.8896C73.9043 40.6089 73.3288 41.1124 72.6815 41.1124Z" fill="#F9FAFB"/>
<path d="M29.0918 69.9561V65.8561C29.0918 64.5614 30.5304 63.7702 31.6093 64.4175L35.062 66.5035C36.1409 67.1509 36.1409 68.7333 35.062 69.3807L31.6093 71.4666C30.4585 72.0421 29.0918 71.2509 29.0918 69.9561Z" fill="#839299"/>
<path d="M83.7565 69.0931H60.0197C59.3723 69.0931 58.7969 68.5896 58.7969 67.8703C58.7969 67.2229 59.3004 66.6475 60.0197 66.6475H83.7565C84.4039 66.6475 84.9793 67.151 84.9793 67.8703C84.9074 68.5896 84.4039 69.0931 83.7565 69.0931Z" fill="#F9FAFB"/>
<path d="M59.9499 69.0928H40.8166C40.1692 69.0928 39.5938 68.5893 39.5938 67.87C39.5938 67.2227 40.0973 66.6472 40.8166 66.6472H59.9499C60.5973 66.6472 61.1727 67.1507 61.1727 67.87C61.1727 68.5893 60.6692 69.0928 59.9499 69.0928Z" fill="#F9FAFB"/>
<path d="M59.7343 70.4596C61.1247 70.4596 62.2519 69.3325 62.2519 67.9421C62.2519 66.5517 61.1247 65.4246 59.7343 65.4246C58.3439 65.4246 57.2168 66.5517 57.2168 67.9421C57.2168 69.3325 58.3439 70.4596 59.7343 70.4596Z" fill="#839299"/>
</svg>
