<svg width="48" height="48" viewBox="0 0 48 48" fill="none" xmlns="http://www.w3.org/2000/svg">
<g clip-path="url(#clip0_12083_17547)">
<path fill-rule="evenodd" clip-rule="evenodd" d="M27.3 37C27.7 37 28 37.3 28 37.7C28 38.1 27.7 38.4 27.3 38.4H0.7C0.3 38.4 0 38.1 0 37.7C0 37.3 0.3 37 0.7 37H27.3Z" fill="#002548"/>
<path fill-rule="evenodd" clip-rule="evenodd" d="M45.7031 38.4H34.9031C34.5031 38.4 34.2031 38.1 34.2031 37.7C34.2031 37.3 34.5031 37 34.9031 37H45.7031L44.0031 35.3C43.7031 35 43.7031 34.6 44.0031 34.3C44.3031 34 44.7031 34 45.0031 34.3L47.9031 37.2C48.2031 37.5 48.2031 37.9 47.9031 38.2L45.0031 41.1C44.7031 41.4 44.3031 41.4 44.0031 41.1C43.7031 40.8 43.7031 40.4 44.0031 40.1L45.7031 38.4Z" fill="#002548"/>
<path fill-rule="evenodd" clip-rule="evenodd" d="M16.1 35.1999C16.4 35.3999 16.6 35.7999 16.4 36.0999C16.2 36.3999 15.8 36.5999 15.5 36.3999C12.4 34.7999 9.7 32.3999 7.9 29.2999C6.1 26.3999 5 22.9999 5 19.3999C5 14.1999 7.1 9.3999 10.6 5.9999C14 2.4999 18.7 0.399902 24 0.399902C29.2 0.399902 34 2.4999 37.4 5.9999C40.8 9.4999 43 14.0999 43 19.3999C43 24.6999 40.9 29.3999 37.4 32.7999C33.9 36.1999 29.2 38.3999 24 38.3999C23.6 38.3999 23.3 38.0999 23.3 37.6999C23.3 37.2999 23.6 36.9999 24 36.9999C28.9 36.9999 33.3 34.9999 36.5 31.7999C39.7 28.5999 41.7 24.1999 41.7 19.2999C41.7 14.3999 39.7 9.9999 36.5 6.7999C33.3 3.6999 28.9 1.6999 24 1.6999C19.1 1.6999 14.7 3.6999 11.5 6.8999C8.3 10.0999 6.3 14.4999 6.3 19.3999C6.3 22.7999 7.3 25.8999 8.9 28.5999C10.7 31.3999 13.2 33.6999 16.1 35.1999Z" fill="#002548"/>
<path fill-rule="evenodd" clip-rule="evenodd" d="M44.7025 14.6C45.0025 14.8 45.1025 15.2 44.9025 15.5C44.7025 15.8 44.3025 15.9 44.0025 15.7L41.5025 14.3L40.1025 16.7999C39.9025 17.0999 39.5025 17.2 39.2025 17C38.9025 16.8 38.8025 16.4 39.0025 16.1L40.8025 13.1C41.0025 12.8 41.4025 12.7 41.7025 12.9L44.7025 14.6Z" fill="#002548"/>
<path fill-rule="evenodd" clip-rule="evenodd" d="M3.6978 13.2001C3.4978 12.9001 3.5978 12.5001 3.8978 12.3001C4.1978 12.1001 4.5978 12.2001 4.7978 12.5001L6.2978 15.0001L8.7978 13.6001C9.0978 13.4001 9.4978 13.5001 9.6978 13.8001C9.8978 14.1001 9.7978 14.5001 9.4978 14.7001L6.4978 16.4001C6.1978 16.6001 5.7978 16.5001 5.5978 16.2001L3.6978 13.2001Z" fill="#002548"/>
<path fill-rule="evenodd" clip-rule="evenodd" d="M34.6984 21.3C32.3984 21.3 31.2984 24 32.8984 25.6C33.1984 25.9 33.1984 26.4001 32.8984 26.7001L31.2984 28.3C30.9984 28.6 30.4984 28.6 30.1984 28.3C28.5984 26.7 25.8984 27.8 25.8984 30.1C25.8984 30.5 25.5984 30.9 25.0984 30.9H22.7984C22.3984 30.9 21.9984 30.6 21.9984 30.1C21.9984 27.8 19.2984 26.7 17.6984 28.3C17.3984 28.6 16.8984 28.6 16.5984 28.3L14.9984 26.7001C14.6984 26.4001 14.6984 25.9 14.9984 25.6C16.5984 24 15.4984 21.3 13.1984 21.3C12.7984 21.3 12.3984 21 12.3984 20.5V18.2C12.3984 17.8 12.6984 17.4 13.1984 17.4C15.4984 17.4 16.5984 14.7 14.9984 13.1C14.6984 12.8 14.6984 12.3 14.9984 12L16.5984 10.4C16.8984 10.1 17.3984 10.1 17.6984 10.4C19.2984 12 21.9984 10.9 21.9984 8.60005C21.9984 8.20005 22.2984 7.80005 22.7984 7.80005H25.0984C25.4984 7.80005 25.8984 8.10005 25.8984 8.60005C25.8984 10.9 28.5984 12 30.1984 10.4C30.4984 10.1 30.9984 10.1 31.2984 10.4L32.8984 12C33.1984 12.3 33.1984 12.8 32.8984 13.1C31.2984 14.7 32.3984 17.4 34.6984 17.4C35.0984 17.4 35.4984 17.7 35.4984 18.2V20.5C35.4984 20.9 35.0984 21.3 34.6984 21.3ZM23.9984 13.9C20.9984 13.9 18.4984 16.4 18.4984 19.4C18.4984 22.4 20.9984 24.9 23.9984 24.9C26.9984 24.9 29.4984 22.4 29.4984 19.4C29.4984 16.4 26.9984 13.9 23.9984 13.9Z" fill="#839299"/>
<path fill-rule="evenodd" clip-rule="evenodd" d="M26.0018 33.6V22.8C26.0018 21.7 25.1018 20.8 24.0018 20.8C22.9018 20.8 22.0018 21.7 22.0018 22.8V38.4001C20.3018 37.8001 19.3018 38 18.7018 39C18.0018 40.1 18.3018 41.5 19.3018 42.3C23.9018 45.6 24.1018 47.3 29.7018 47.6C34.5018 47.9 38.1018 44 38.1018 39.6V33.6C38.1018 32.5 37.2018 31.6 36.1018 31.6C35.0018 31.6 34.1018 32.5 34.1018 33.6C34.1018 32.5 33.2018 31.6 32.1018 31.6C31.0018 31.6 30.1018 32.5 30.1018 33.6C30.1018 32.5 29.2018 31.6 28.1018 31.6C26.9018 31.5 26.0018 32.5 26.0018 33.6Z" fill="#FFBD86"/>
</g>
<defs>
<clipPath id="clip0_12083_17547">
<rect width="48" height="48" fill="white"/>
</clipPath>
</defs>
</svg>
