<svg width="114" height="114" viewBox="0 0 114 114" fill="none" xmlns="http://www.w3.org/2000/svg">
<path d="M98.439 10.0129H15.58C12.236 10.0129 9.5 12.7299 9.5 16.0739V24.0539H104.5V16.0739C104.5 12.7299 101.783 10.0129 98.439 10.0129ZM22.534 19.3039C22.192 19.6649 21.717 19.8549 21.204 19.8549C20.691 19.8549 20.216 19.6649 19.855 19.3039C19.494 18.9429 19.304 18.4679 19.304 17.9739C19.304 17.4609 19.513 16.9669 19.855 16.6249C20.026 16.4349 20.235 16.3019 20.463 16.2069C21.166 15.9219 22.021 16.0929 22.534 16.6249C22.895 16.9669 23.104 17.4609 23.104 17.9739C23.104 18.4679 22.895 18.9429 22.534 19.3039ZM31.141 18.6959C31.046 18.9239 30.913 19.1329 30.723 19.3039C30.362 19.6649 29.887 19.8549 29.393 19.8549C28.88 19.8549 28.405 19.6649 28.044 19.3039C27.873 19.1329 27.721 18.9239 27.626 18.6959C27.531 18.4679 27.493 18.2209 27.493 17.9549C27.493 17.7079 27.531 17.4609 27.626 17.2329C27.721 17.0049 27.873 16.7959 28.044 16.6249C28.12 16.5299 28.215 16.4539 28.329 16.3779C28.424 16.3209 28.538 16.2449 28.652 16.2069C29.355 15.9219 30.21 16.0929 30.723 16.6249C30.913 16.7959 31.046 17.0049 31.141 17.2329C31.236 17.4609 31.293 17.7079 31.293 17.9549C31.293 18.2209 31.236 18.4679 31.141 18.6959ZM38.912 19.3039C38.551 19.6649 38.076 19.8549 37.563 19.8549C37.069 19.8549 36.594 19.6649 36.233 19.3039C35.872 18.9429 35.663 18.4679 35.663 17.9549C35.663 17.7079 35.72 17.4609 35.815 17.2329C35.91 17.0049 36.043 16.7959 36.233 16.6249C36.936 15.9029 38.209 15.9029 38.912 16.6249C39.083 16.7959 39.235 17.0049 39.33 17.2329C39.425 17.4609 39.463 17.7079 39.463 17.9549C39.463 18.4679 39.273 18.9429 38.912 19.3039Z" fill="#44464A"/>
<path d="M46.0738 87.609C46.5868 87.609 47.0618 87.4 47.4228 87.058C47.7838 86.697 47.9738 86.222 47.9738 85.709C47.9738 85.462 47.9358 85.215 47.8408 84.987C47.7268 84.74 47.5938 84.531 47.4228 84.36C46.7198 83.657 45.4278 83.657 44.7438 84.36C44.5538 84.531 44.4208 84.74 44.3258 84.987C44.2308 85.215 44.1738 85.462 44.1738 85.709C44.1738 86.222 44.3828 86.697 44.7438 87.058C45.0858 87.381 45.5608 87.609 46.0738 87.609Z" fill="#44464A"/>
<path d="M55.6696 87.02C55.8406 87.21 56.0496 87.343 56.2776 87.438C56.5056 87.533 56.7526 87.59 57.0186 87.59C57.5126 87.59 57.9876 87.381 58.3486 87.02C58.5196 86.849 58.6716 86.64 58.7666 86.412C58.8616 86.184 58.9186 85.937 58.9186 85.69C58.9186 85.443 58.8616 85.196 58.7666 84.968C58.6716 84.721 58.5196 84.512 58.3486 84.341C58.2536 84.246 58.1586 84.17 58.0636 84.113C57.9686 84.037 57.8546 83.98 57.7406 83.923C57.6266 83.885 57.4936 83.847 57.3796 83.828C56.9996 83.752 56.6196 83.79 56.2776 83.923C56.0496 84.037 55.8406 84.17 55.6696 84.341C55.4796 84.512 55.3466 84.721 55.2516 84.968C55.1566 85.196 55.0996 85.443 55.0996 85.709C55.0996 85.956 55.1566 86.203 55.2516 86.431C55.3466 86.659 55.4796 86.849 55.6696 87.02Z" fill="#44464A"/>
<path d="M9.5 27.835V97.907C9.5 101.251 12.236 103.987 15.58 103.987H98.439C101.783 103.987 104.5 101.251 104.5 97.907V27.835H9.5ZM57 33.82C67.811 33.82 76.608 42.598 76.608 53.409C76.608 64.22 67.811 73.017 57 73.017C46.208 73.017 37.411 64.22 37.411 53.409C37.411 42.598 46.208 33.82 57 33.82ZM79.781 92.302C79.781 93.366 78.926 94.202 77.881 94.202H36.138C35.074 94.202 34.238 93.366 34.238 92.302V79.097C34.238 78.052 35.074 77.197 36.138 77.197H77.881C78.926 77.197 79.781 78.052 79.781 79.097V92.302Z" fill="#3773B5"/>
<path d="M56.9999 37.6199C48.2979 37.6199 41.2109 44.7069 41.2109 53.4089C41.2109 57.3229 42.6549 60.9139 45.0299 63.6689C45.6759 61.6739 46.8159 59.9069 48.2789 58.5009C50.3879 60.9519 53.5229 62.5099 56.9999 62.5099C60.4959 62.5099 63.6309 60.9519 65.7399 58.4819C67.2219 59.9069 68.3619 61.6739 69.0079 63.6689C71.3639 60.9139 72.8079 57.3229 72.8079 53.4089C72.8079 44.7069 65.7209 37.6199 56.9999 37.6199ZM56.9999 58.7099C52.7439 58.7099 49.2859 55.2519 49.2859 50.9959C49.2859 46.7209 52.7439 43.2629 56.9999 43.2629C61.2749 43.2629 64.7329 46.7209 64.7329 50.9959C64.7329 55.2709 61.2749 58.7099 56.9999 58.7099Z" fill="#3773B5"/>
<path d="M67.202 87.457C67.43 87.552 67.677 87.609 67.943 87.609C68.437 87.609 68.912 87.4 69.273 87.039C69.634 86.678 69.843 86.203 69.843 85.709C69.843 85.462 69.786 85.215 69.691 84.987C69.596 84.74 69.463 84.531 69.273 84.36C68.836 83.923 68.171 83.714 67.563 83.847C67.449 83.866 67.316 83.904 67.202 83.942C67.088 83.999 66.974 84.056 66.879 84.132C66.784 84.189 66.67 84.265 66.594 84.36C66.423 84.531 66.271 84.74 66.176 84.987C66.081 85.215 66.043 85.462 66.043 85.709C66.043 86.203 66.233 86.697 66.594 87.039C66.765 87.229 66.974 87.343 67.202 87.457Z" fill="#44464A"/>
</svg>
