<svg width="114" height="114" viewBox="0 0 114 114" fill="none" xmlns="http://www.w3.org/2000/svg">
<path d="M89.0002 114H25.0002C22.6002 114 20.7002 112.1 20.7002 109.7V5.6999C20.7002 3.2999 22.6002 1.3999 25.0002 1.3999H89.0002C91.4002 1.3999 93.3002 3.2999 93.3002 5.6999V109.6C93.3002 112.1 91.4002 114 89.0002 114Z" fill="#D2D9DC"/>
<path d="M83.9998 98H29.9998C28.7998 98 27.7998 97 27.7998 95.8V11.7C27.7998 10.5 28.7998 9.5 29.9998 9.5H83.9998C85.1998 9.5 86.1998 10.5 86.1998 11.7V95.8C86.1998 97 85.1998 98 83.9998 98Z" fill="#2D2F31"/>
<path d="M61.3004 107.8H52.7004C52.2004 107.8 51.8004 107.2 52.1004 106.7L56.4004 100.4C56.7004 100 57.2004 100 57.5004 100.4L61.8004 106.7C62.2004 107.2 61.8004 107.8 61.3004 107.8Z" fill="#D1D3D4"/>
<path d="M74.4996 70.9999C72.3997 70.9999 70.7997 72.6999 70.7997 74.6999V72.8999C70.7997 71.9999 70.4996 71.1999 69.8997 70.4999C67.6996 67.7999 63.2997 69.3999 63.2997 72.8999V70.9999C63.0996 66.0999 56.0997 65.9999 55.8997 70.9999V54.4999C55.6997 49.4999 48.5997 49.5999 48.4997 54.5999V80.6999C48.4997 81.0999 48.0997 81.3999 47.6997 81.2999L39.5996 78.7999C34.6996 77.4999 32.2997 84.1999 36.8997 86.2999C36.8997 86.2999 51.4997 92.7999 51.3997 96.3999H76.2997V94.3999C76.2997 93.2999 76.5997 92.0999 77.2997 91.1999C77.8997 90.2999 78.2997 89.0999 78.2997 87.9999V74.6999C78.1997 72.6999 76.4996 70.9999 74.4996 70.9999Z" fill="#FED2A4"/>
<path d="M52.5996 96.5H51.3996C51.2996 98.2 51.8996 97.6 52.5996 96.5Z" fill="#F7CB15"/>
<path d="M79.6 98.8999V109C79.6 110.4 78.5 111.5 77.1 111.5H50.5C49.1 111.5 48 110.4 48 109V98.8999C48 97.4999 49.1 96.3999 50.5 96.3999H77.2C78.5 96.4999 79.6 97.5999 79.6 98.8999Z" fill="#002548"/>
<path d="M111.5 38.5C111.5 38.9 111.3 39.3 111 39.7L99.4 50C98.4 50.9 96.9 50.2 96.9 48.9V44.4C96.9 44.2 96.7 44 96.5 44H64.5C63.7 44 63 43.3 63 42.5V34.7C63 33.8 63.7 33.2 64.5 33.2H96.4C96.6 33.2 96.8 33 96.8 32.8V28.3C96.8 27 98.4 26.3 99.3 27.2L111 37.3C111.3 37.7 111.5 38.1 111.5 38.5Z" fill="#FFDD33"/>
<path d="M67.3003 14.7H62.8002C62.6002 14.7 62.4002 14.9 62.4002 15.1V27.1C62.4002 27.9 61.7002 28.6 60.9002 28.6H53.0002C52.2002 28.6 51.5002 27.9 51.5002 27.1V15.1C51.5002 14.9 51.3002 14.7 51.1002 14.7H46.6002C45.3002 14.7 44.6002 13.1 45.5002 12.2L55.9002 0.5C56.2002 0.2 56.6002 0 57.0002 0C57.4002 0 57.8002 0.2 58.1002 0.5L68.4002 12.1C69.3002 13.1 68.7003 14.7 67.3003 14.7Z" fill="#FFDD33"/>
<path d="M51 34.6V42.4C51 43.2 50.3 43.9 49.5 43.9H17.6C17.4 43.9 17.2 44.1 17.2 44.3V48.8C17.2 50.1 15.6 50.8 14.7 49.9L3 39.6C2.7 39.3 2.5 38.9 2.5 38.5C2.5 38.1 2.7 37.7 3 37.4L14.7 27C15.7 26.1 17.2 26.8 17.2 28.1V32.6C17.2 32.8 17.4 33 17.6 33H49.5C50.3 33 51 33.7 51 34.6Z" fill="#FFDD33"/>
</svg>
