<svg width="420" height="280" viewBox="0 0 420 280" fill="none" xmlns="http://www.w3.org/2000/svg">
<g clip-path="url(#clip0_18103_13853)">
<path d="M330.226 18H234.391V212.118H330.226V18Z" fill="#1661AC"/>
<path d="M272.458 87.7852L269.246 88.6622L268.555 84.7697L269.606 84.583L270.093 87.3246L272.177 86.7554L272.458 87.7852Z" fill="#9ED16F"/>
<path d="M236.752 213.081C236.752 213.49 236.418 213.824 236.01 213.824H171.109C170.7 213.824 170.367 213.489 170.367 213.081V210.486C170.367 210.077 170.701 209.745 171.109 209.745H236.011C236.419 209.745 236.752 210.078 236.752 210.486V213.081H236.752Z" fill="#002548"/>
<path d="M215.381 190.502H204.229H202.9H191.747C191.747 201.239 175.605 210.286 175.605 210.286H202.9H204.229H231.523C231.523 210.286 215.381 201.239 215.381 190.502Z" fill="#D2D9DC"/>
<path opacity="0.4" d="M215.382 190.502H204.229H202.9H198.109C201.472 196.73 207.343 204.395 217.394 210.286H231.524C231.524 210.286 215.382 201.239 215.382 190.502Z" fill="#D2D9DC"/>
<path d="M303.898 189.215C303.898 189.923 303.319 190.502 302.611 190.502H104.497C103.79 190.502 103.211 189.923 103.211 189.215V69.2533C103.211 68.5457 103.79 67.9668 104.497 67.9668H302.611C303.319 67.9668 303.898 68.5457 303.898 69.2533V189.215Z" fill="#002548"/>
<path d="M296.309 182.46C296.309 183.168 295.73 183.747 295.023 183.747H112.083C111.376 183.747 110.797 183.168 110.797 182.46V76.0067C110.797 75.2991 111.376 74.7202 112.083 74.7202H295.023C295.731 74.7202 296.31 75.2991 296.31 76.0067V182.46H296.309Z" fill="white"/>
<path d="M296.309 83.5627V76.0076C296.309 75.3 295.73 74.7211 295.023 74.7211H112.083C111.376 74.7211 110.797 75.3 110.797 76.0076V83.5627H296.309Z" fill="#8EB3D7"/>
<path d="M124.183 80.997C125.208 80.997 126.038 80.1664 126.038 79.1418C126.038 78.1172 125.208 77.2866 124.183 77.2866C123.159 77.2866 122.328 78.1172 122.328 79.1418C122.328 80.1664 123.159 80.997 124.183 80.997Z" fill="white"/>
<path d="M116.465 80.997C117.489 80.997 118.32 80.1664 118.32 79.1418C118.32 78.1172 117.489 77.2866 116.465 77.2866C115.44 77.2866 114.609 78.1172 114.609 79.1418C114.609 80.1664 115.44 80.997 116.465 80.997Z" fill="white"/>
<path d="M131.902 80.997C132.927 80.997 133.757 80.1664 133.757 79.1418C133.757 78.1172 132.927 77.2866 131.902 77.2866C130.877 77.2866 130.047 78.1172 130.047 79.1418C130.047 80.1664 130.877 80.997 131.902 80.997Z" fill="white"/>
<path d="M282.31 90.4146H124.805V122.157H282.31V90.4146Z" fill="#8EB3D7"/>
<path d="M191.162 127.303H124.805V148.453H191.162V127.303Z" fill="#8EB3D7"/>
<path d="M191.154 153.134H124.797V156.255H191.154V153.134Z" fill="#8EB3D7"/>
<path d="M191.154 159.565H124.797V162.687H191.154V159.565Z" fill="#8EB3D7"/>
<path d="M191.154 165.998H124.797V169.119H191.154V165.998Z" fill="#8EB3D7"/>
<path d="M191.154 172.43H124.797V175.551H191.154V172.43Z" fill="#8EB3D7"/>
<path d="M229.931 127.303H197.125V162.687H229.931V127.303Z" fill="#8EB3D7"/>
<path d="M229.877 166H196.75V169.121H229.877V166Z" fill="#8EB3D7"/>
<path d="M229.877 172.431H196.75V175.552H229.877V172.431Z" fill="#8EB3D7"/>
<path d="M282.31 127.303H236.75V148.453H282.31V127.303Z" fill="#8EB3D7"/>
<path d="M281.516 153.134H236.75V156.255H281.516V153.134Z" fill="#8EB3D7"/>
<path d="M281.516 159.566H236.75V162.687H281.516V159.566Z" fill="#8EB3D7"/>
<path d="M281.516 165.998H236.75V169.119H281.516V165.998Z" fill="#8EB3D7"/>
<path d="M281.516 172.43H236.75V175.551H281.516V172.43Z" fill="#8EB3D7"/>
<path opacity="0.1" d="M303.893 189.215V69.2533C303.893 68.5457 303.314 67.9668 302.607 67.9668H285.198C279.869 163.476 183.18 190.501 183.18 190.501H302.607C303.314 190.502 303.893 189.922 303.893 189.215Z" fill="#F5F0F6"/>
<path d="M139.771 198.987H97.9561C95.0766 198.987 92.7422 201.408 92.7422 204.395C92.7422 207.382 95.0766 209.803 97.9561 209.803H139.775C137.821 206.485 137.825 202.296 139.771 198.987Z" fill="#FAE0B2"/>
<path d="M58 212.93C58 213.374 58.3599 213.734 58.8042 213.734H362.043V212.126H58.8042C58.3599 212.126 58 212.486 58 212.93Z" fill="#62BDF3"/>
<path d="M322.594 39.696H243.357C241.943 39.696 240.797 38.5497 240.797 37.1355V27.5022C240.797 26.088 241.943 24.9418 243.357 24.9418H322.594C324.008 24.9418 325.154 26.088 325.154 27.5022V37.1355C325.154 38.5497 324.008 39.696 322.594 39.696Z" fill="#62BDF3"/>
<path d="M311.367 45.5594C311.367 46.651 310.482 47.5358 309.39 47.5358C308.299 47.5358 307.414 46.651 307.414 45.5594C307.414 44.4678 308.299 43.583 309.39 43.583C310.482 43.583 311.367 44.468 311.367 45.5594Z" fill="#D1EAF2"/>
<path d="M317.429 45.5594C317.429 46.651 316.545 47.5358 315.453 47.5358C314.361 47.5358 313.477 46.651 313.477 45.5594C313.477 44.4678 314.361 43.583 315.453 43.583C316.545 43.583 317.429 44.468 317.429 45.5594Z" fill="#D1EAF2"/>
<path d="M323.289 45.5595C323.289 46.6511 322.404 47.536 321.312 47.536C320.221 47.536 319.336 46.6511 319.336 45.5595C319.336 44.468 320.221 43.5831 321.312 43.5831C322.404 43.5831 323.289 44.4681 323.289 45.5595Z" fill="#D1EAF2"/>
<path d="M323.147 32.3192C323.147 35.6679 320.432 38.3828 317.083 38.3828C313.734 38.3828 311.02 35.6679 311.02 32.3192C311.02 28.9703 313.734 26.2554 317.083 26.2554C320.432 26.2554 323.147 28.9701 323.147 32.3192Z" fill="#D1EAF2"/>
<path d="M97.3904 180.242C100.556 180.064 102.357 183.869 100.218 186.228C99.834 186.652 99.6264 187.206 99.6128 187.778L99.5664 189.745C99.5537 190.288 99.1264 190.729 98.5852 190.76L97.3857 190.827C96.8445 190.858 96.3705 190.467 96.2966 189.93C96.0279 187.969 96.0707 187.227 95.2536 186.508C92.8637 184.405 94.224 180.421 97.3904 180.242Z" fill="#F7CC7F"/>
<path d="M98.7229 188.476C98.5643 186.887 98.4506 185.131 98.4294 184.472C97.845 184.546 97.2495 184.511 96.6784 184.37C96.8742 185.68 97.0378 187.008 97.1653 188.323L96.9955 188.339C96.8658 187.003 96.6988 185.653 96.4985 184.322C96.1533 184.222 95.752 184.086 95.5621 183.787C95.473 183.647 95.4453 183.46 95.4893 183.299C95.6067 182.871 96.1286 182.867 96.3878 183.222C96.5594 183.457 96.5881 183.774 96.6508 184.187C97.2286 184.339 97.8338 184.378 98.4269 184.301C98.4278 183.967 98.4719 183.653 98.6545 183.388C99.2949 182.457 100.372 184.154 98.5998 184.448C98.615 184.963 98.7241 186.766 98.8931 188.459L98.7229 188.476ZM98.7947 183.484C98.6419 183.707 98.6007 183.98 98.5975 184.275C98.9818 184.208 99.2258 184.076 99.3438 183.874C99.542 183.534 99.1392 182.984 98.7947 183.484ZM95.7914 183.164C95.6158 183.253 95.5994 183.528 95.7059 183.696C95.8582 183.936 96.1884 184.049 96.4702 184.135C96.4202 183.808 96.3941 183.52 96.2498 183.323C96.1486 183.184 95.8102 183.154 95.7914 183.164Z" fill="white"/>
<path d="M99.612 187.729C99.6114 187.746 99.6091 187.762 99.6087 187.778L99.5623 189.745C99.5496 190.287 99.1223 190.729 98.5811 190.76L97.3817 190.827C96.8404 190.858 96.3662 190.467 96.2926 189.93C96.1731 189.058 96.1151 188.427 96.0156 187.932L99.612 187.729Z" fill="#3C8F7C"/>
<path d="M99.3448 178.345L99.886 176.475C99.9383 176.294 99.8343 176.104 99.6531 176.052C99.4722 176 99.283 176.104 99.2305 176.285L98.6893 178.155C98.637 178.336 98.7412 178.526 98.9222 178.578C99.1042 178.631 99.2927 178.525 99.3448 178.345Z" fill="#FAE0B2"/>
<path d="M102.233 181.932L104.185 181.314C104.365 181.257 104.464 181.065 104.407 180.886C104.351 180.706 104.159 180.606 103.979 180.663L102.027 181.281C101.848 181.338 101.748 181.53 101.805 181.71C101.862 181.889 102.053 181.989 102.233 181.932Z" fill="#FAE0B2"/>
<path d="M105.572 187.594C105.672 187.434 105.624 187.224 105.464 187.124C104.867 186.749 104.231 186.431 103.574 186.176C103.398 186.108 103.201 186.195 103.132 186.371C103.065 186.546 103.152 186.744 103.327 186.812C103.944 187.051 104.541 187.351 105.102 187.702C105.26 187.801 105.471 187.755 105.572 187.594Z" fill="#FAE0B2"/>
<path d="M94.4031 179.352C94.5702 179.265 94.6349 179.059 94.548 178.892C94.1342 178.098 93.802 177.259 93.5605 176.397C93.5096 176.216 93.3215 176.11 93.1399 176.161C92.9584 176.212 92.8525 176.4 92.9034 176.582C93.1576 177.489 93.5073 178.372 93.9428 179.207C94.0304 179.375 94.2372 179.439 94.4031 179.352Z" fill="#FAE0B2"/>
<path d="M92.9251 182.368C92.9389 182.18 92.7977 182.017 92.6098 182.003L90.4014 181.841C90.2133 181.827 90.0499 181.968 90.0361 182.156C90.0223 182.344 90.1635 182.508 90.3516 182.522L92.5598 182.684C92.7474 182.697 92.9111 182.557 92.9251 182.368Z" fill="#FAE0B2"/>
<path d="M90.7552 188.632C90.7851 188.625 90.8145 188.615 90.8428 188.599C91.515 188.238 92.1496 187.803 92.7297 187.306C92.8728 187.184 92.8896 186.969 92.7669 186.825C92.6444 186.682 92.4289 186.666 92.2857 186.788C91.7429 187.253 91.1486 187.66 90.5194 187.998C90.3535 188.088 90.2914 188.294 90.3806 188.46C90.4546 188.598 90.6097 188.665 90.7552 188.632Z" fill="#FAE0B2"/>
<path d="M357.157 200.573C357.341 200.316 357.061 200.018 356.636 200.018H289.654C284.404 200.018 280.148 202.872 280.148 206.391C280.148 209.911 284.404 212.764 289.654 212.764H356.654C357.082 212.764 357.362 212.464 357.176 212.206C354.524 208.523 354.531 204.241 357.157 200.573Z" fill="#9ED16F"/>
<path d="M356.623 201.39H311.683C308.363 201.39 305.672 203.576 305.672 206.273V206.64C305.672 209.336 308.363 211.522 311.683 211.522H356.719C354.706 208.275 354.684 204.636 356.623 201.39Z" fill="#D1EAF2"/>
<path d="M290.949 199.452H326.065C329.179 199.452 331.704 196.73 331.704 193.372C331.704 190.014 329.179 187.292 326.065 187.292H290.949C293.633 190.662 293.738 195.607 291.2 199.107L290.949 199.452Z" fill="#D1EAF2"/>
<path d="M331.242 193.372C331.242 190.014 328.688 187.292 325.538 187.292H290.311C290.147 187.292 290.014 187.149 290.016 186.974C290.017 186.801 290.149 186.662 290.311 186.662H346.194C349.671 186.662 352.488 189.666 352.488 193.372C352.488 197.078 349.671 200.083 346.194 200.083H290.311C290.149 200.083 290.017 199.943 290.016 199.771C290.014 199.595 290.147 199.453 290.311 199.453H325.538C328.688 199.452 331.242 196.73 331.242 193.372Z" fill="#7772D6"/>
<path d="M300.188 186.032H335.304C338.418 186.032 340.942 183.309 340.942 179.951C340.942 176.593 338.418 173.871 335.304 173.871H300.188C302.871 177.242 302.976 182.187 300.438 185.686L300.188 186.032Z" fill="#D1EAF2"/>
<path d="M340.48 179.951C340.48 176.593 337.927 173.871 334.777 173.871H299.549C299.385 173.871 299.252 173.728 299.254 173.553C299.256 173.38 299.387 173.241 299.549 173.241H355.433C358.909 173.241 361.727 176.246 361.727 179.951C361.727 183.658 358.909 186.662 355.433 186.662H299.55C299.387 186.662 299.255 186.523 299.254 186.35C299.253 186.174 299.385 186.032 299.55 186.032H334.777C337.927 186.032 340.48 183.309 340.48 179.951Z" fill="#45258F"/>
<path d="M333.729 206.495H329.971C329.163 206.495 328.508 206.746 328.508 207.055V207.105H333.729V206.495Z" fill="#3B77BE"/>
<path d="M336.936 207.899C336.936 207.124 335.955 206.495 334.744 206.495H329.922C330.84 206.495 331.584 206.972 331.584 207.56L331.562 222.608L334.226 220.673L336.942 222.608L336.936 207.899Z" fill="#3797DB"/>
<path d="M155.417 192.177C155.627 191.756 155.308 191.27 154.823 191.27H78.4551C72.4694 191.27 67.6172 195.938 67.6172 201.698C67.6172 207.457 72.4694 212.126 78.4551 212.126H154.844C155.331 212.126 155.651 211.636 155.439 211.213C152.415 205.185 152.423 198.178 155.417 192.177Z" fill="#7772D6"/>
<path d="M154.937 193.208H110.219C107.043 193.208 104.469 197.116 104.469 201.937C104.469 206.758 107.043 210.666 110.219 210.666H155.175C152.58 205.109 152.512 198.786 154.937 193.208Z" fill="#D1EAF2"/>
<path d="M129.684 199.829H124.755C123.695 199.829 122.836 200.079 122.836 200.388V200.438H129.684V199.829Z" fill="#3B77BE"/>
<path d="M133.888 201.231C133.888 200.457 132.601 199.829 131.013 199.829H124.688C125.892 199.829 126.868 200.305 126.868 200.892L126.838 215.925L130.333 213.992L133.896 215.925L133.888 201.231Z" fill="#3797DB"/>
<path d="M230.285 59.3128H119.091C118.178 59.3128 117.438 58.5726 117.438 57.6594V48.5502C117.438 47.6372 118.178 46.897 119.091 46.897H230.285C231.198 46.897 231.938 47.637 231.938 48.5502V57.6594C231.938 58.5726 231.198 59.3128 230.285 59.3128Z" fill="#62BDF3"/>
<path d="M205.073 57.6674H124.763C123.291 57.6674 122.094 56.4698 122.094 54.9979V51.1681C122.094 49.6962 123.291 48.4985 124.763 48.4985H205.074C206.546 48.4985 207.743 49.6962 207.743 51.1681V54.9979C207.743 56.4698 206.546 57.6674 205.073 57.6674ZM124.763 49.2375C123.699 49.2375 122.833 50.1036 122.833 51.1681V54.9979C122.833 56.0624 123.699 56.9284 124.763 56.9284H205.074C206.138 56.9284 207.004 56.0624 207.004 54.9979V51.1681C207.004 50.1036 206.138 49.2375 205.074 49.2375H124.763Z" fill="#3B77BE"/>
<path d="M219.129 54.3245C217.356 54.3245 215.914 52.8823 215.914 51.1097C215.914 49.337 217.356 47.895 219.129 47.895C220.902 47.895 222.344 49.3372 222.344 51.1097C222.344 52.8823 220.902 54.3245 219.129 54.3245ZM219.129 48.634C217.764 48.634 216.653 49.7446 216.653 51.1097C216.653 52.4749 217.764 53.5855 219.129 53.5855C220.494 53.5855 221.605 52.4749 221.605 51.1097C221.605 49.7446 220.494 48.634 219.129 48.634Z" fill="#3B77BE"/>
<path d="M223.34 57.5181L220.464 53.6598C220.342 53.4966 220.376 53.2655 220.539 53.1439C220.693 53.0294 220.906 53.0525 221.032 53.1915L221.056 53.2182L224.291 56.809C224.51 57.053 224.491 57.4289 224.247 57.6485C224.003 57.8682 223.627 57.8486 223.407 57.6046C223.395 57.5912 223.384 57.5772 223.373 57.5629L223.34 57.5181Z" fill="#3B77BE"/>
<path d="M266.498 219.113L237.764 211.081C236.318 210.677 235.474 209.177 235.878 207.732L247.4 166.519C247.804 165.074 249.303 164.23 250.749 164.634L279.483 172.667C280.928 173.071 281.772 174.57 281.368 176.015L269.847 217.228C269.443 218.673 267.944 219.517 266.498 219.113Z" fill="#D1EAF2"/>
<path d="M276.508 179.581L250.687 172.363C250.272 172.247 250.03 171.817 250.146 171.402C250.262 170.987 250.692 170.745 251.107 170.861L276.928 178.079C277.342 178.195 277.585 178.625 277.469 179.04C277.353 179.455 276.922 179.697 276.508 179.581Z" fill="#3797DB"/>
<path d="M271.027 181.351L249.828 175.424C249.413 175.309 249.171 174.878 249.287 174.464C249.403 174.049 249.833 173.806 250.248 173.922L271.447 179.849C271.862 179.965 272.104 180.395 271.988 180.81C271.872 181.225 271.442 181.467 271.027 181.351Z" fill="#3797DB"/>
<path d="M274.797 185.705L248.976 178.486C248.562 178.371 248.319 177.94 248.435 177.526C248.551 177.111 248.981 176.868 249.396 176.984L275.217 184.203C275.631 184.318 275.873 184.749 275.758 185.163C275.642 185.578 275.212 185.821 274.797 185.705Z" fill="#3797DB"/>
<path d="M268.046 187.119L248.117 181.548C247.702 181.432 247.46 181.002 247.576 180.587C247.692 180.172 248.122 179.93 248.537 180.046L268.466 185.617C268.88 185.733 269.122 186.163 269.006 186.578C268.89 186.993 268.46 187.235 268.046 187.119Z" fill="#3797DB"/>
<path d="M254.438 163.073L253.918 162.928C253.727 162.874 253.531 162.977 253.48 163.157L252.387 167.068C252.337 167.248 252.451 167.437 252.642 167.491L253.162 167.636C253.353 167.69 253.549 167.587 253.6 167.407L254.693 163.496C254.744 163.316 254.629 163.127 254.438 163.073Z" fill="#7772D6"/>
<path d="M256.661 163.695L256.141 163.549C255.949 163.496 255.753 163.599 255.703 163.778L254.61 167.69C254.559 167.87 254.674 168.059 254.865 168.113L255.385 168.258C255.576 168.312 255.772 168.209 255.823 168.029L256.916 164.118C256.966 163.938 256.852 163.748 256.661 163.695Z" fill="#7772D6"/>
<path d="M258.887 164.316L258.367 164.171C258.176 164.117 257.98 164.22 257.93 164.4L256.836 168.311C256.786 168.491 256.9 168.681 257.091 168.734L257.611 168.88C257.803 168.933 257.999 168.831 258.049 168.651L259.142 164.739C259.193 164.559 259.078 164.37 258.887 164.316Z" fill="#7772D6"/>
<path d="M261.11 164.938L260.59 164.792C260.399 164.739 260.203 164.842 260.152 165.021L259.059 168.933C259.008 169.113 259.123 169.302 259.314 169.356L259.834 169.501C260.025 169.555 260.222 169.452 260.272 169.272L261.365 165.361C261.415 165.181 261.301 164.991 261.11 164.938Z" fill="#7772D6"/>
<path d="M263.332 165.56L262.813 165.414C262.621 165.361 262.425 165.463 262.375 165.643L261.281 169.555C261.231 169.735 261.345 169.924 261.537 169.978L262.057 170.123C262.248 170.177 262.444 170.074 262.494 169.894L263.588 165.983C263.638 165.803 263.524 165.613 263.332 165.56Z" fill="#7772D6"/>
<path d="M265.559 166.182L265.039 166.036C264.848 165.983 264.652 166.085 264.601 166.265L263.508 170.177C263.458 170.357 263.572 170.546 263.763 170.6L264.283 170.745C264.475 170.799 264.671 170.696 264.721 170.516L265.814 166.604C265.865 166.425 265.75 166.235 265.559 166.182Z" fill="#7772D6"/>
<path d="M267.782 166.803L267.262 166.658C267.07 166.604 266.874 166.707 266.824 166.887L265.731 170.798C265.68 170.978 265.795 171.168 265.986 171.221L266.506 171.366C266.697 171.42 266.893 171.317 266.944 171.138L268.037 167.226C268.087 167.046 267.973 166.857 267.782 166.803Z" fill="#7772D6"/>
<path d="M270.008 167.425L269.488 167.28C269.297 167.226 269.101 167.329 269.051 167.509L267.957 171.42C267.907 171.6 268.021 171.79 268.213 171.843L268.733 171.988C268.924 172.042 269.12 171.939 269.17 171.759L270.264 167.848C270.314 167.668 270.199 167.478 270.008 167.425Z" fill="#7772D6"/>
<path d="M272.231 168.047L271.711 167.901C271.52 167.848 271.324 167.95 271.273 168.13L270.18 172.042C270.129 172.222 270.244 172.411 270.435 172.465L270.955 172.61C271.147 172.664 271.343 172.561 271.393 172.381L272.486 168.469C272.537 168.29 272.422 168.1 272.231 168.047Z" fill="#7772D6"/>
<path d="M274.454 168.668L273.934 168.523C273.742 168.469 273.546 168.572 273.496 168.752L272.402 172.663C272.352 172.843 272.467 173.033 272.658 173.086L273.178 173.232C273.369 173.285 273.565 173.183 273.615 173.003L274.709 169.091C274.76 168.911 274.645 168.722 274.454 168.668Z" fill="#7772D6"/>
<path d="M276.676 169.29L276.156 169.145C275.965 169.091 275.769 169.194 275.719 169.374L274.625 173.285C274.575 173.465 274.689 173.655 274.88 173.708L275.4 173.853C275.592 173.907 275.788 173.804 275.838 173.624L276.932 169.713C276.982 169.533 276.867 169.344 276.676 169.29Z" fill="#7772D6"/>
<path d="M278.899 169.912L278.379 169.766C278.188 169.713 277.991 169.815 277.941 169.995L276.848 173.907C276.797 174.087 276.912 174.276 277.103 174.329L277.623 174.475C277.814 174.529 278.011 174.426 278.061 174.246L279.154 170.334C279.204 170.154 279.09 169.965 278.899 169.912Z" fill="#7772D6"/>
<path d="M207.279 205.568L234.725 205.001C234.787 204.999 234.848 204.989 234.906 204.97L239.837 203.347C240.411 203.158 240.401 202.341 239.822 202.168L234.758 200.645C234.696 200.627 234.632 200.618 234.567 200.619L207.051 201.188C206.699 201.196 206.424 201.495 206.447 201.846L206.65 204.99C206.671 205.32 206.949 205.575 207.279 205.568Z" fill="#9ED16F"/>
<path d="M234.598 200.619L234.665 200.618L239.551 202.086L239.609 203.422L234.935 204.96C234.755 203.612 234.45 202.062 234.598 200.619Z" fill="#62BDF3"/>
<path d="M250.868 211.689C250.304 211.689 249.835 211.505 249.471 211.139C248.11 209.774 248.63 206.286 248.824 203.694C248.915 202.478 249.019 201.1 248.463 200.051C247.818 198.834 245.242 198.971 243.333 199.855C242.052 200.449 240.851 201.507 241.326 202.695C241.378 202.825 241.315 202.971 241.185 203.023C241.056 203.075 240.909 203.012 240.857 202.882C240.351 201.614 241.218 200.279 243.121 199.397C245.27 198.402 248.094 198.278 248.909 199.814C249.533 200.992 249.424 202.447 249.328 203.732C249.144 206.19 248.645 209.596 249.828 210.783C250.138 211.093 250.544 211.222 251.069 211.175C253.462 210.962 253.069 206.033 253.47 204.266C254.06 201.664 255.012 198.427 257.64 198.811C259.599 199.098 261.036 200.485 261.794 202.823C262.356 204.555 262.35 206.176 262.349 206.244C262.349 206.383 262.236 206.495 262.097 206.495C262.097 206.495 262.096 206.495 262.095 206.495C261.956 206.494 261.844 206.38 261.845 206.241C261.845 206.225 261.849 204.622 261.31 202.968C260.604 200.801 259.345 199.571 257.567 199.311C255.281 198.977 254.473 202.126 253.962 204.378C253.534 206.262 254.059 211.689 250.868 211.689Z" fill="#9ED16F"/>
<path d="M72.5854 87.0806L72.2542 91.8432L67.7812 93.5414L78.4249 101.12L82.9749 99.3477V94.5351L72.5854 87.0806Z" fill="#7772D6"/>
<path d="M118.596 112.191C119.499 101.73 111.75 92.5173 101.289 91.6143C90.8284 90.7113 81.6161 98.4596 80.7131 108.921C79.8101 119.382 87.5584 128.594 98.0194 129.497C108.48 130.4 117.693 122.652 118.596 112.191Z" fill="#3B77BE"/>
<path d="M112.061 119.158C116.811 112.305 115.105 102.899 108.252 98.1495C101.399 93.4001 91.9934 95.1055 87.244 101.959C82.4947 108.812 84.2 118.217 91.0531 122.967C97.9062 127.716 107.312 126.011 112.061 119.158Z" fill="#3797DB"/>
<path d="M109.345 110.554C109.345 115.907 105.006 120.246 99.6531 120.246C94.3002 120.246 89.9609 115.907 89.9609 110.554C89.9609 105.202 94.3002 100.862 99.6531 100.862C105.006 100.862 109.345 105.202 109.345 110.554Z" fill="#62BDF3"/>
<path d="M104.323 110.565C104.323 113.138 102.237 115.224 99.6637 115.224C97.0901 115.224 95.0039 113.138 95.0039 110.565C95.0039 107.991 97.0901 105.905 99.6637 105.905C102.237 105.905 104.323 107.991 104.323 110.565Z" fill="#9ED16F"/>
<path d="M99.3347 110.958C99.2562 110.958 99.1767 110.936 99.107 110.888L72.5507 92.6993C72.3667 92.5734 72.3196 92.322 72.4457 92.138C72.5719 91.954 72.823 91.9071 73.007 92.0331L99.3187 110.054C99.5027 110.18 99.4637 110.958 99.3347 110.958Z" fill="#96A65F"/>
<path d="M98.2624 108.275L98.3659 109.828L96.875 110.314L99.453 111.174L99.6021 109.953L98.2624 108.275Z" fill="#7772D6"/>
<path d="M277.712 113.324L258.633 113.204C258.25 113.202 257.942 112.889 257.944 112.506L258.024 99.6714C258.027 99.2883 258.34 98.9795 258.723 98.9818L277.802 99.1012C278.185 99.1037 278.493 99.4162 278.491 99.7994L278.411 112.634C278.408 113.017 278.096 113.326 277.712 113.324Z" fill="#3797DB"/>
<path d="M266.374 100.705L260.566 100.669C260.183 100.667 259.875 100.354 259.877 99.9709L259.889 98.0178C259.892 97.6347 260.204 97.3259 260.588 97.3284L266.395 97.3646C266.778 97.367 267.087 97.6796 267.084 98.0629L267.072 100.016C267.07 100.399 266.757 100.708 266.374 100.705Z" fill="#3797DB"/>
<path d="M278.467 112.697C278.432 113.054 278.131 113.326 277.772 113.324L258.568 113.204C258.211 113.202 257.914 112.928 257.882 112.573L256.853 101.265C256.835 101.071 256.901 100.877 257.033 100.733C257.166 100.589 257.353 100.508 257.548 100.509L278.882 100.642C279.077 100.643 279.262 100.727 279.392 100.872C279.523 101.016 279.587 101.209 279.568 101.403L278.467 112.697Z" fill="#62BDF3"/>
</g>
<defs>
<clipPath id="clip0_18103_13853">
<rect width="420" height="280" fill="white"/>
</clipPath>
</defs>
</svg>
