<svg width="40" height="40" viewBox="0 0 40 40" fill="none" xmlns="http://www.w3.org/2000/svg">
<g clip-path="url(#clip0_11903_50533)">
<path d="M38.5 9.40039H8V11.2004H38.2L35.2 24.7004H8V26.5004H35.3C36 26.5004 36.6 26.0004 36.8 25.3004L40 11.3004C40.2 10.3004 39.5 9.40039 38.5 9.40039Z" fill="#FFA91A"/>
<path d="M8 16.7V15H38.3V16.8L8 16.7Z" fill="#D2D9DC"/>
<path d="M8 21.7004V19.9004H37V21.7004H8Z" fill="#D2D9DC"/>
<path d="M38.5 9.40039H8V11.2004H38.2L35.2 24.7004H8V26.5004H35.3C36 26.5004 36.6 26.0004 36.8 25.3004L40 11.3004C40.2 10.3004 39.5 9.40039 38.5 9.40039Z" fill="#839299"/>
<path d="M11.9984 32.2002C9.99844 32.2002 8.39844 33.8002 8.39844 35.8002C8.39844 37.8002 9.99844 39.4002 11.9984 39.4002C13.9984 39.4002 15.5984 37.8002 15.5984 35.8002C15.5984 33.8002 13.9984 32.2002 11.9984 32.2002ZM11.9984 37.7002C10.9984 37.7002 10.0984 36.9002 10.0984 35.8002C10.0984 34.8002 10.8984 33.9002 11.9984 33.9002C13.0984 33.9002 13.8984 34.7002 13.8984 35.8002C13.8984 36.8002 12.9984 37.7002 11.9984 37.7002Z" fill="#2D2F31"/>
<path d="M11.9953 36.8003C11.3953 36.8003 10.8953 36.4003 10.6953 35.8003L9.69531 31.3003H14.1953L13.1953 35.8003C13.0953 36.4003 12.5953 36.8003 11.9953 36.8003Z" fill="#002548"/>
<path d="M32.1 32.2002C30.1 32.2002 28.5 33.8002 28.5 35.8002C28.5 37.8002 30.1 39.4002 32.1 39.4002C34.1 39.4002 35.7 37.8002 35.7 35.8002C35.7 33.8002 34.1 32.2002 32.1 32.2002ZM32.1 37.7002C31.1 37.7002 30.2 36.9002 30.2 35.8002C30.2 34.8002 31 33.9002 32.1 33.9002C33.1 33.9002 34 34.7002 34 35.8002C34 36.8002 33.2 37.7002 32.1 37.7002Z" fill="#2D2F31"/>
<path d="M32.0969 36.8003C31.4969 36.8003 30.9969 36.4003 30.7969 35.8003L29.7969 31.3003H34.2969L33.2969 35.8003C33.2969 36.4003 32.6969 36.8003 32.0969 36.8003Z" fill="#002548"/>
<path d="M35.2 29.1H9.4V5.5C9.4 4.9 9.1 4.4 8.5 4.1L3.7 2L3 3.6L7.2 5.5C7.5 5.6 7.6 5.9 7.6 6.1V29.9C7.6 30.4 8 30.8 8.5 30.8H35.3C35.8 30.8 36.2 30.4 36.2 29.8C36.1 29.4 35.7 29.1 35.2 29.1Z" fill="#839299"/>
<path d="M0.0984885 1.60015C0.398488 0.800149 1.29849 0.500149 2.09849 0.800149L6.69849 2.90015C7.49849 3.20015 7.79849 4.10015 7.49849 4.90015C7.19849 5.60015 6.29849 6.00015 5.49849 5.60015L0.898488 3.60015C0.0984885 3.20015 -0.201512 2.30015 0.0984885 1.60015Z" fill="#002548"/>
<path d="M23.4969 28.6998C29.4063 28.6998 34.1969 23.9093 34.1969 17.9998C34.1969 12.0904 29.4063 7.2998 23.4969 7.2998C17.5874 7.2998 12.7969 12.0904 12.7969 17.9998C12.7969 23.9093 17.5874 28.6998 23.4969 28.6998Z" fill="#0054A6"/>
<path d="M23.5 9C18.5 9 14.5 13 14.5 18C14.5 23 18.5 27 23.5 27C28.5 27 32.5 23 32.5 18C32.5 13 28.5 9 23.5 9ZM15.8 18C15.8 17.3 15.9 16.6 16.1 16H18.6C18.4 17.3 18.4 18.6 18.6 19.9H16.1C15.9 19.3 15.8 18.6 15.8 18ZM19.8 18C19.8 17.3 19.8 16.6 19.9 16H22.8V19.9H19.9C19.8 19.2 19.8 18.6 19.8 18ZM24.2 10.5C25.4 11 26.3 12.5 26.9 14.7H24.2V10.5ZM22.8 10.5V14.7H20.1C20.7 12.5 21.7 10.9 22.8 10.5ZM22.8 21.2V25.5C21.6 25 20.6 23.4 20.1 21.2H22.8ZM24.2 25.5V21.2H26.9C26.4 23.4 25.4 25.1 24.2 25.5ZM24.2 19.9V16H27.1C27.3 17.3 27.3 18.6 27.1 19.9H24.2ZM28.4 16H30.9C31.3 17.3 31.3 18.6 30.9 19.9H28.4C28.5 19.3 28.5 18.7 28.5 18C28.6 17.3 28.5 16.6 28.4 16ZM30.4 14.6H28.2C27.9 13.3 27.5 12.1 26.8 11C28.3 11.8 29.6 13.1 30.4 14.6ZM20.2 11C19.5 12.1 19 13.3 18.8 14.6H16.6C17.4 13.1 18.7 11.8 20.2 11ZM16.5 21.2H18.7C19 22.5 19.5 23.8 20.2 24.9C18.6 24.2 17.3 22.8 16.5 21.2ZM26.8 24.9C27.5 23.8 28 22.5 28.3 21.2H30.5C29.7 22.8 28.4 24.2 26.8 24.9Z" fill="#002548"/>
<path d="M22.9016 22.1C22.5016 22.1 22.1016 22 21.8016 21.7L18.8016 18.7C18.2016 18.1 18.2016 17.2 18.8016 16.6C19.4016 16 20.3016 16 20.9016 16.6L22.8016 18.5L26.6016 14.7C27.2016 14.1 28.1016 14.1 28.7016 14.7C29.3016 15.3 29.3016 16.2 28.7016 16.8L23.9016 21.6C23.6016 22 23.2016 22.1 22.9016 22.1Z" fill="#F9FAFB"/>
</g>
<defs>
<clipPath id="clip0_11903_50533">
<rect width="40" height="40" fill="white"/>
</clipPath>
</defs>
</svg>
