<svg width="420" height="280" viewBox="0 0 420 280" fill="none" xmlns="http://www.w3.org/2000/svg">
<g clip-path="url(#clip0_18103_15273)">
<path d="M420 0H0V280H420V0Z" fill="white"/>
<path d="M67.341 144.266L70.1685 144.547C70.2512 146.097 70.4976 147.609 70.9025 149.063L68.3207 150.23C67.9896 150.38 67.843 150.77 67.992 151.101L70.1095 155.783C70.2592 156.115 70.6489 156.261 70.9797 156.112L73.5564 154.947C74.3939 156.229 75.3667 157.417 76.4592 158.49L74.8108 160.788C74.5993 161.083 74.6665 161.494 74.9615 161.705L79.1369 164.701C79.4319 164.913 79.8429 164.846 80.0544 164.551L81.7062 162.249C83.0527 162.932 84.4859 163.47 85.99 163.856L85.7096 166.684C85.6735 167.045 85.9372 167.367 86.2993 167.403L91.413 167.91C91.7742 167.946 92.0967 167.682 92.1328 167.321L92.4132 164.493C93.9635 164.41 95.4744 164.164 96.9294 163.759L98.0969 166.341C98.2466 166.672 98.6363 166.819 98.9673 166.669L103.65 164.551C103.981 164.402 104.128 164.012 103.979 163.681L102.814 161.105C104.096 160.268 105.283 159.295 106.356 158.202L107.547 159.057C106.312 155.488 104.748 152.058 102.892 148.8C100.656 153.61 95.573 156.72 89.9978 156.167C82.9459 155.467 77.7963 149.183 78.4962 142.132C79.0326 136.727 82.8531 132.451 87.7808 131.058C85.2127 128.984 82.4851 127.103 79.6083 125.454L79.7156 125.692C78.4334 126.529 77.2461 127.502 76.1726 128.594L73.8753 126.945C73.5803 126.734 73.1693 126.801 72.9578 127.096L69.9608 131.271C69.7493 131.566 69.8165 131.977 70.1115 132.189L72.4134 133.841C71.7301 135.187 71.1922 136.62 70.8059 138.124L67.9784 137.844C67.6172 137.808 67.2949 138.072 67.2594 138.434L66.7518 143.548C66.7154 143.908 66.9791 144.23 67.341 144.266Z" fill="white"/>
<path d="M91.0468 145.528C92.2235 145.645 93.2723 144.785 93.3885 143.609C93.5054 142.432 92.6462 141.383 91.4694 141.267C90.2927 141.15 89.2439 142.009 89.1277 143.186C89.011 144.362 89.8702 145.411 91.0468 145.528Z" fill="white"/>
<path d="M102.952 168.729L102.671 171.557C101.121 171.639 99.6095 171.886 98.1552 172.291L96.9877 169.709C96.838 169.378 96.4483 169.231 96.1173 169.381L91.4344 171.498C91.1034 171.648 90.9568 172.038 91.1058 172.369L92.2708 174.945C90.9886 175.783 89.8013 176.756 88.7278 177.848L86.4305 176.199C86.1355 175.987 85.7245 176.055 85.513 176.35L82.5167 180.525C82.3052 180.82 82.3724 181.231 82.6674 181.443L84.9693 183.094C84.286 184.441 83.7481 185.874 83.3618 187.378L80.5343 187.098C80.1731 187.062 79.8508 187.325 79.8153 187.687L79.3077 192.802C79.2717 193.163 79.5354 193.485 79.8975 193.521L82.7249 193.801C82.8076 195.352 83.054 196.863 83.459 198.317L80.8771 199.485C80.5461 199.635 80.3995 200.024 80.5492 200.355L82.6666 205.038C82.8163 205.369 83.206 205.516 83.5369 205.367L86.1136 204.202C86.951 205.484 87.9239 206.671 89.0164 207.745L87.3679 210.042C87.1565 210.337 87.2236 210.748 87.5186 210.96L91.6941 213.956C91.9891 214.168 92.4001 214.1 92.6116 213.805L94.2634 211.504C95.6099 212.187 97.0431 212.725 98.5472 213.111L98.3701 214.898C100.592 211.924 102.554 208.766 104.227 205.466C103.675 205.483 103.118 205.477 102.554 205.421C95.5023 204.721 90.3527 198.437 91.0526 191.386C91.7527 184.334 98.0367 179.185 105.089 179.885C107.161 180.09 109.061 180.789 110.705 181.837C110.756 180.987 110.795 180.137 110.808 179.282C110.844 177.036 110.735 174.816 110.519 172.619C110.05 172.464 109.578 172.319 109.094 172.195L109.375 169.367C109.411 169.006 109.146 168.684 108.785 168.648L103.671 168.141C103.309 168.104 102.987 168.368 102.952 168.729Z" fill="white"/>
<path d="M101.69 192.441C101.573 193.617 102.433 194.666 103.609 194.782C104.786 194.899 105.835 194.04 105.951 192.863C106.068 191.687 105.209 190.638 104.032 190.522C102.856 190.405 101.807 191.264 101.69 192.441Z" fill="white"/>
<path d="M96.0968 204.482C90.1119 204.482 85.2422 199.613 85.2422 193.627V41.8546C85.2422 35.869 90.1119 31 96.0968 31H322.704C328.689 31 333.559 35.869 333.559 41.8546V193.628C333.559 199.614 328.689 204.483 322.704 204.483L96.0968 204.482Z" fill="#002548"/>
<path d="M322.702 203.016H96.0953C90.9103 203.016 86.707 198.813 86.707 193.628V41.8546C86.707 36.6696 90.9103 32.4663 96.0953 32.4663H322.702C327.887 32.4663 332.091 36.6696 332.091 41.8546V193.628C332.09 198.813 327.887 203.016 322.702 203.016Z" fill="#002548"/>
<path d="M96.0971 197.15C94.1549 197.15 92.5742 195.57 92.5742 193.627V41.8544C92.5742 39.9123 94.1542 38.3315 96.0971 38.3315H322.704C324.646 38.3315 326.227 39.9115 326.227 41.8544V193.628C326.227 195.57 324.647 197.151 322.704 197.151L96.0971 197.15Z" fill="#B2CBE3"/>
<path d="M326.226 58.7438V41.8544C326.226 39.9123 324.646 38.3315 322.703 38.3315H96.0971C94.1549 38.3315 92.5742 39.9115 92.5742 41.8544V58.7438H326.226Z" fill="white"/>
<path opacity="0.25" d="M96.101 197.15C94.1588 197.15 92.5781 195.57 92.5781 193.627V41.8544C92.5781 39.9123 94.1581 38.3315 96.101 38.3315H322.708C324.65 38.3315 326.231 39.9115 326.231 41.8544L98.2932 44.0804L96.101 197.15Z" fill="white"/>
<path d="M318.302 157.095H227.887V200.434H318.302V157.095Z" fill="#1E2778"/>
<path d="M318.302 194.03H227.887V200.435H318.302V194.03Z" fill="#DBDBDB"/>
<path d="M259.126 160.369H238.326C234.377 160.369 231.164 163.581 231.164 167.53V185.648H259.126V160.369Z" fill="#DBDBDB"/>
<path d="M307.867 160.369H260.621V185.648H315.028V167.53C315.028 163.581 311.816 160.369 307.867 160.369Z" fill="#DBDBDB"/>
<path d="M267.228 163.461H264.5V166.189H267.228V163.461Z" fill="#FFDD33"/>
<path d="M267.228 168.917H264.5V171.645H267.228V168.917Z" fill="#54CC5A"/>
<path d="M267.228 174.373H264.5V177.101H267.228V174.373Z" fill="#FFDD33"/>
<path d="M267.228 179.829H264.5V182.558H267.228V179.829Z" fill="#54CC5A"/>
<path d="M272.275 163.461H269.547V166.189H272.275V163.461Z" fill="white"/>
<path d="M272.275 168.917H269.547V171.645H272.275V168.917Z" fill="#FFDD33"/>
<path d="M272.275 174.373H269.547V177.101H272.275V174.373Z" fill="#54CC5A"/>
<path d="M272.275 179.829H269.547V182.558H272.275V179.829Z" fill="white"/>
<path d="M277.322 163.461H274.594V166.189H277.322V163.461Z" fill="#54CC5A"/>
<path d="M277.322 168.917H274.594V171.645H277.322V168.917Z" fill="white"/>
<path d="M277.322 174.373H274.594V177.101H277.322V174.373Z" fill="#54CC5A"/>
<path d="M277.322 179.829H274.594V182.558H277.322V179.829Z" fill="#FFDD33"/>
<path d="M305.78 163.461H279.641V166.189H305.78V163.461Z" fill="#1E2778"/>
<path d="M305.78 168.917H279.641V171.645H305.78V168.917Z" fill="#1E2778"/>
<path d="M305.78 174.373H279.641V177.101H305.78V174.373Z" fill="#1E2778"/>
<path d="M305.78 179.829H279.641V182.558H305.78V179.829Z" fill="#1E2778"/>
<path d="M252.339 180.211C256.316 176.233 256.316 169.785 252.339 165.808C248.362 161.831 241.913 161.831 237.936 165.808C233.959 169.785 233.959 176.233 237.936 180.211C241.913 184.188 248.362 184.188 252.339 180.211Z" fill="white"/>
<path d="M251.302 179.171C254.706 175.768 254.706 170.25 251.302 166.847C247.899 163.444 242.382 163.444 238.978 166.847C235.575 170.25 235.575 175.768 238.978 179.171C242.382 182.575 247.899 182.575 251.302 179.171Z" fill="#1E2778"/>
<path d="M241.051 173.008C241.051 170.749 242.883 168.916 245.143 168.916C247.402 168.916 249.234 170.749 249.234 173.008C249.234 175.268 247.402 177.1 245.143 177.1C242.883 177.1 241.051 175.268 241.051 173.008Z" fill="#DBDBDB"/>
<path d="M240.219 188.876H231.168V190.513H240.219V188.876Z" fill="#FFDD33"/>
<path d="M255.18 188.876H246.129V190.513H255.18V188.876Z" fill="#FFDD33"/>
<path d="M270.149 188.876H261.098V190.513H270.149V188.876Z" fill="#DBDBDB"/>
<path d="M285.106 188.876H276.055V190.513H285.106V188.876Z" fill="#DBDBDB"/>
<path d="M300.071 188.876H291.02V190.513H300.071V188.876Z" fill="#DBDBDB"/>
<path d="M315.039 188.876H305.988V190.513H315.039V188.876Z" fill="#DBDBDB"/>
<path d="M318.302 200.435H227.887V243.775H318.302V200.435Z" fill="#1E2778"/>
<path d="M318.302 237.369H227.887V243.774H318.302V237.369Z" fill="#002548"/>
<path d="M259.126 203.708H238.326C234.377 203.708 231.164 206.921 231.164 210.869V228.987H259.126V203.708Z" fill="#DBDBDB"/>
<path d="M307.867 203.708H260.621V228.987H315.028V210.869C315.028 206.921 311.816 203.708 307.867 203.708Z" fill="#DBDBDB"/>
<path d="M267.228 206.799H264.5V209.528H267.228V206.799Z" fill="#FFDD33"/>
<path d="M267.228 212.256H264.5V214.984H267.228V212.256Z" fill="#54CC5A"/>
<path d="M267.228 217.711H264.5V220.439H267.228V217.711Z" fill="#FFDD33"/>
<path d="M267.228 223.168H264.5V225.896H267.228V223.168Z" fill="#54CC5A"/>
<path d="M272.275 206.799H269.547V209.528H272.275V206.799Z" fill="white"/>
<path d="M272.275 212.256H269.547V214.984H272.275V212.256Z" fill="#FFDD33"/>
<path d="M272.275 217.711H269.547V220.439H272.275V217.711Z" fill="#54CC5A"/>
<path d="M272.275 223.168H269.547V225.896H272.275V223.168Z" fill="white"/>
<path d="M277.322 206.799H274.594V209.528H277.322V206.799Z" fill="#54CC5A"/>
<path d="M277.322 212.256H274.594V214.984H277.322V212.256Z" fill="white"/>
<path d="M277.322 217.711H274.594V220.439H277.322V217.711Z" fill="#54CC5A"/>
<path d="M277.322 223.168H274.594V225.896H277.322V223.168Z" fill="#FFDD33"/>
<path d="M305.78 206.799H279.641V209.528H305.78V206.799Z" fill="#1E2778"/>
<path d="M305.78 212.255H279.641V214.984H305.78V212.255Z" fill="#1E2778"/>
<path d="M305.78 217.711H279.641V220.439H305.78V217.711Z" fill="#1E2778"/>
<path d="M305.78 223.167H279.641V225.896H305.78V223.167Z" fill="#1E2778"/>
<path d="M252.339 223.55C256.316 219.573 256.316 213.124 252.339 209.147C248.362 205.17 241.913 205.17 237.936 209.147C233.959 213.124 233.959 219.573 237.936 223.55C241.913 227.527 248.362 227.527 252.339 223.55Z" fill="white"/>
<path d="M251.302 222.511C254.706 219.107 254.706 213.59 251.302 210.186C247.899 206.783 242.382 206.783 238.978 210.186C235.575 213.59 235.575 219.107 238.978 222.511C242.382 225.914 247.899 225.914 251.302 222.511Z" fill="#1E2778"/>
<path d="M241.051 216.348C241.051 214.088 242.883 212.256 245.143 212.256C247.402 212.256 249.234 214.088 249.234 216.348C249.234 218.608 247.402 220.44 245.143 220.44C242.883 220.44 241.051 218.608 241.051 216.348Z" fill="#DBDBDB"/>
<path d="M240.219 232.215H231.168V233.852H240.219V232.215Z" fill="#FFDD33"/>
<path d="M255.18 232.215H246.129V233.852H255.18V232.215Z" fill="#FFDD33"/>
<path d="M270.149 232.215H261.098V233.852H270.149V232.215Z" fill="#DBDBDB"/>
<path d="M285.106 232.215H276.055V233.852H285.106V232.215Z" fill="#DBDBDB"/>
<path d="M300.071 232.215H291.02V233.852H300.071V232.215Z" fill="#DBDBDB"/>
<path d="M315.039 232.215H305.988V233.852H315.039V232.215Z" fill="#DBDBDB"/>
<path d="M235.19 142.117C232.206 139.132 230.562 135.163 230.562 130.941C230.562 126.479 232.464 122.204 235.779 119.21L236.86 120.407C233.884 123.095 232.176 126.935 232.176 130.941C232.176 134.731 233.652 138.294 236.333 140.974L235.19 142.117Z" fill="white"/>
<path d="M240.056 137.255C238.37 135.569 237.441 133.327 237.441 130.942C237.441 128.429 238.518 126.016 240.395 124.322L240.827 124.801C239.086 126.373 238.087 128.612 238.087 130.942C238.087 133.155 238.949 135.234 240.513 136.799L240.056 137.255Z" fill="white"/>
<path d="M237.713 139.594C235.402 137.283 234.129 134.21 234.129 130.941C234.129 127.497 235.604 124.19 238.176 121.867L239.041 122.824C236.74 124.903 235.42 127.861 235.42 130.941C235.42 133.865 236.559 136.615 238.626 138.682L237.713 139.594Z" fill="white"/>
<path d="M239.819 137.483C238.072 135.736 237.109 133.413 237.109 130.942C237.109 128.338 238.225 125.837 240.169 124.082L241.034 125.04C239.36 126.551 238.4 128.702 238.4 130.942C238.4 133.068 239.228 135.067 240.731 136.57L239.819 137.483Z" fill="white"/>
<path d="M254.731 142.117L253.59 140.976C256.27 138.296 257.747 134.733 257.747 130.943C257.747 126.937 256.039 123.097 253.062 120.409L254.144 119.212C257.459 122.205 259.36 126.481 259.36 130.943C259.36 135.164 257.716 139.132 254.731 142.117Z" fill="white"/>
<path d="M249.868 137.255L249.411 136.799C250.976 135.235 251.838 133.155 251.838 130.943C251.838 128.612 250.839 126.374 249.098 124.801L249.53 124.322C251.407 126.017 252.483 128.43 252.483 130.943C252.483 133.327 251.555 135.569 249.868 137.255Z" fill="white"/>
<path d="M252.203 139.595L251.291 138.682C253.358 136.614 254.497 133.866 254.497 130.941C254.497 127.861 253.176 124.903 250.875 122.824L251.74 121.866C254.313 124.188 255.788 127.496 255.788 130.941C255.788 134.211 254.515 137.284 252.203 139.595Z" fill="white"/>
<path d="M250.098 137.484L249.185 136.571C250.688 135.067 251.516 133.069 251.516 130.942C251.516 128.703 250.557 126.552 248.883 125.04L249.748 124.082C251.692 125.838 252.807 128.338 252.807 130.942C252.808 133.414 251.845 135.737 250.098 137.484Z" fill="white"/>
<path d="M244.958 133.179C246.339 133.179 247.459 132.059 247.459 130.678C247.459 129.297 246.339 128.177 244.958 128.177C243.577 128.177 242.457 129.297 242.457 130.678C242.457 132.059 243.577 133.179 244.958 133.179Z" fill="white"/>
<path d="M247.219 157.095H242.691L244.149 130.678H245.762L247.219 157.095Z" fill="white"/>
<path d="M138.899 47.2173H109.734V54.3049H138.899V47.2173Z" fill="#54CC5A"/>
<path d="M177.493 47.2173H148.328V54.3049H177.493V47.2173Z" fill="#54CC5A"/>
<path d="M216.079 47.2173H186.914V54.3049H216.079V47.2173Z" fill="#54CC5A"/>
<path d="M254.681 47.2173H225.516V54.3049H254.681V47.2173Z" fill="#54CC5A"/>
<path d="M293.27 47.2174H264.105V54.305H293.27V47.2174Z" fill="#54CC5A"/>
<path d="M317.277 47.2174H302.695V54.305H317.277V47.2174Z" fill="#FFDD33"/>
<path d="M356.451 92.8435H286.799L282.656 107.993L282.785 67.8628H356.451V92.8435Z" fill="#54CC5A"/>
<path d="M350.58 73.4023H303.578V75.7331H350.58V73.4023Z" fill="white"/>
<path d="M350.58 78.2582H303.578V80.5889H350.58V78.2582Z" fill="white"/>
<path d="M321.377 83.1136H303.578V85.4444H321.377V83.1136Z" fill="white"/>
<path d="M298.008 84.2955C300.435 81.8684 300.435 77.9332 298.008 75.506C295.581 73.0789 291.646 73.0789 289.219 75.5061C286.792 77.9332 286.792 81.8683 289.219 84.2955C291.646 86.7226 295.581 86.7226 298.008 84.2955Z" fill="white"/>
<path d="M329.6 81.9188L330.195 83.7488H332.119L330.562 84.8794L331.157 86.7094L329.6 85.5781L328.044 86.7094L328.639 84.8794L327.082 83.7488H329.006L329.6 81.9188Z" fill="white"/>
<path d="M335.397 81.9188L335.992 83.7488H337.916L336.359 84.8794L336.954 86.7094L335.397 85.5781L333.841 86.7094L334.435 84.8794L332.879 83.7488H334.803L335.397 81.9188Z" fill="#1E2778"/>
<path d="M341.198 81.9188L341.793 83.7488H343.717L342.16 84.8794L342.755 86.7094L341.198 85.5781L339.642 86.7094L340.236 84.8794L338.68 83.7488H340.604L341.198 81.9188Z" fill="#1E2778"/>
<path d="M346.991 81.9188L347.586 83.7488H349.51L347.953 84.8794L348.548 86.7094L346.991 85.5781L345.435 86.7094L346.029 84.8794L344.473 83.7488H346.397L346.991 81.9188Z" fill="#1E2778"/>
<path d="M368.994 127.726H299.342L295.199 142.875L295.328 102.746H368.994V127.726Z" fill="#54CC5A"/>
<path d="M363.127 108.286H316.125V110.617H363.127V108.286Z" fill="white"/>
<path d="M363.127 113.142H316.125V115.472H363.127V113.142Z" fill="white"/>
<path d="M333.924 117.997H316.125V120.327H333.924V117.997Z" fill="white"/>
<path d="M310.551 119.178C312.978 116.751 312.978 112.816 310.551 110.389C308.124 107.961 304.189 107.961 301.762 110.389C299.335 112.816 299.335 116.751 301.762 119.178C304.189 121.605 308.124 121.605 310.551 119.178Z" fill="white"/>
<path d="M342.14 116.801L342.734 118.631H344.658L343.101 119.763L343.696 121.593L342.14 120.461L340.583 121.593L341.178 119.763L339.621 118.631H341.545L342.14 116.801Z" fill="white"/>
<path d="M347.936 116.801L348.531 118.631H350.455L348.898 119.763L349.493 121.593L347.936 120.461L346.38 121.593L346.974 119.763L345.418 118.631H347.342L347.936 116.801Z" fill="#1E2778"/>
<path d="M353.737 116.801L354.332 118.631H356.256L354.699 119.763L355.294 121.593L353.737 120.461L352.181 121.593L352.775 119.763L351.219 118.631H353.143L353.737 116.801Z" fill="#1E2778"/>
<path d="M359.53 116.801L360.125 118.631H362.049L360.492 119.763L361.087 121.593L359.53 120.461L357.974 121.593L358.568 119.763L357.012 118.631H358.936L359.53 116.801Z" fill="#1E2778"/>
<path d="M248.438 117.565V114.497C250.095 114.243 251.692 113.818 253.211 113.227L254.74 115.876C254.936 116.216 255.37 116.332 255.71 116.136L260.515 113.362C260.854 113.166 260.971 112.731 260.775 112.392L259.249 109.748C260.537 108.711 261.708 107.54 262.745 106.251L265.389 107.778C265.728 107.974 266.162 107.858 266.359 107.518L269.133 102.714C269.329 102.374 269.213 101.94 268.873 101.744L266.224 100.214C266.814 98.6953 267.24 97.0984 267.494 95.4414H270.562C270.954 95.4414 271.271 95.124 271.271 94.7317V89.1838C271.271 88.7916 270.954 88.4741 270.562 88.4741H267.494C267.24 86.8171 266.814 85.2203 266.224 83.7011L268.873 82.1717C269.213 81.976 269.329 81.5412 269.133 81.2017L266.359 76.3973C266.163 76.0578 265.728 75.9412 265.389 76.1377L262.745 77.6642C261.708 76.376 260.537 75.2044 259.249 74.1677L260.775 71.5238C260.971 71.1844 260.855 70.7504 260.515 70.5539L255.71 67.7803C255.371 67.5845 254.937 67.7004 254.74 68.0398L253.211 70.6888C251.692 70.0986 250.095 69.6733 248.438 69.4189V66.3513C248.438 65.9591 248.121 65.6416 247.728 65.6416H242.18C241.788 65.6416 241.471 65.9598 241.471 66.3513V69.4189C239.814 69.6733 238.217 70.0986 236.698 70.6888L235.168 68.0398C234.973 67.7004 234.538 67.5838 234.198 67.7803L229.394 70.5539C229.054 70.7496 228.938 71.1844 229.134 71.5238L230.661 74.1677C229.373 75.2044 228.201 76.376 227.164 77.6642L224.52 76.1377C224.181 75.942 223.747 76.0578 223.55 76.3973L220.776 81.2017C220.58 81.5412 220.696 81.9752 221.036 82.1717L223.685 83.7011C223.094 85.2203 222.668 86.8179 222.414 88.4741H219.346C218.954 88.4741 218.637 88.7923 218.637 89.1838V94.7317C218.637 95.124 218.955 95.4414 219.346 95.4414H222.414C222.668 97.0984 223.094 98.6953 223.685 100.214L221.036 101.744C220.696 101.94 220.58 102.374 220.776 102.714L223.55 107.518C223.746 107.858 224.18 107.974 224.52 107.778L227.164 106.251C228.201 107.54 229.373 108.711 230.661 109.748L229.134 112.392C228.939 112.731 229.054 113.165 229.394 113.362L234.198 116.136C234.538 116.332 234.972 116.216 235.168 115.876L236.698 113.227C238.217 113.818 239.814 114.244 241.471 114.497V117.565C241.471 117.957 241.789 118.275 242.18 118.275H247.728C248.12 118.275 248.438 117.957 248.438 117.565ZM231.102 91.9581C231.102 84.3082 237.304 78.1063 244.954 78.1063C252.604 78.1063 258.806 84.3082 258.806 91.9581C258.806 99.6081 252.604 105.81 244.954 105.81C237.303 105.81 231.102 99.6088 231.102 91.9581Z" fill="#5E7EFF"/>
<path d="M244.952 89.6475C246.228 89.6475 247.263 90.6827 247.263 91.9592C247.263 93.2356 246.228 94.2701 244.952 94.2701C243.675 94.2701 242.641 93.2356 242.641 91.9592C242.64 90.682 243.675 89.6475 244.952 89.6475Z" fill="#5E7EFF"/>
<path d="M203.162 124.326V122.455C204.173 122.299 205.148 122.04 206.075 121.68L207.008 123.296C207.128 123.504 207.393 123.574 207.6 123.455L210.532 121.762C210.74 121.642 210.81 121.377 210.69 121.17L209.759 119.557C210.545 118.924 211.26 118.21 211.893 117.424L213.506 118.355C213.713 118.474 213.978 118.403 214.097 118.196L215.79 115.264C215.91 115.057 215.839 114.792 215.632 114.673L214.015 113.739C214.375 112.813 214.636 111.838 214.79 110.827H216.662C216.901 110.827 217.095 110.633 217.095 110.393V107.007C217.095 106.768 216.902 106.574 216.662 106.574H214.79C214.635 105.563 214.375 104.589 214.015 103.661L215.632 102.728C215.839 102.608 215.91 102.343 215.79 102.136L214.097 99.2042C213.978 98.9967 213.713 98.9256 213.506 99.0459L211.893 99.977C211.26 99.191 210.545 98.4762 209.759 97.8435L210.69 96.2305C210.81 96.023 210.739 95.7583 210.532 95.6388L207.6 93.9459C207.393 93.8264 207.128 93.8975 207.008 94.1043L206.075 95.7209C205.148 95.3609 204.173 95.1007 203.162 94.946V93.0742C203.162 92.8352 202.969 92.6409 202.729 92.6409H199.343C199.104 92.6409 198.91 92.8344 198.91 93.0742V94.946C197.899 95.1014 196.924 95.3609 195.997 95.7209L195.064 94.1043C194.944 93.8968 194.679 93.8264 194.472 93.9459L191.54 95.6388C191.332 95.7583 191.262 96.0237 191.382 96.2305L192.313 97.8435C191.527 98.4762 190.812 99.191 190.179 99.977L188.566 99.0459C188.359 98.9264 188.094 98.9975 187.975 99.2042L186.282 102.136C186.162 102.344 186.233 102.608 186.44 102.728L188.057 103.661C187.697 104.588 187.437 105.563 187.282 106.574H185.41C185.171 106.574 184.977 106.768 184.977 107.007V110.393C184.977 110.632 185.171 110.827 185.41 110.827H187.282C187.437 111.838 187.697 112.812 188.057 113.739L186.44 114.673C186.232 114.792 186.162 115.058 186.282 115.264L187.975 118.196C188.094 118.403 188.359 118.474 188.566 118.355L190.179 117.424C190.812 118.21 191.527 118.924 192.313 119.557L191.382 121.17C191.262 121.378 191.333 121.642 191.54 121.762L194.472 123.455C194.679 123.574 194.944 123.503 195.064 123.296L195.997 121.68C196.924 122.04 197.899 122.3 198.91 122.455V124.326C198.91 124.565 199.104 124.76 199.343 124.76H202.729C202.968 124.76 203.162 124.565 203.162 124.326ZM192.583 108.7C192.583 104.032 196.368 100.248 201.036 100.248C205.704 100.248 209.489 104.032 209.489 108.7C209.489 113.368 205.704 117.153 201.036 117.153C196.368 117.153 192.583 113.368 192.583 108.7Z" fill="#5E7EFF"/>
<path d="M202.311 108.7C202.311 109.405 201.739 109.977 201.034 109.977C200.33 109.977 199.758 109.405 199.758 108.7C199.758 107.995 200.33 107.424 201.034 107.424C201.739 107.424 202.311 107.995 202.311 108.7Z" fill="#5E7EFF"/>
<path d="M219.824 137.483H188.227V175.614H219.824V137.483Z" fill="#5E7EFF"/>
<path d="M194.245 144.851C195.235 144.851 196.037 144.049 196.037 143.059C196.037 142.069 195.235 141.267 194.245 141.267C193.255 141.267 192.453 142.069 192.453 143.059C192.453 144.049 193.255 144.851 194.245 144.851Z" fill="#FFDD33"/>
<path d="M215.608 141.492H197.918V144.627H215.608V141.492Z" fill="white"/>
<path d="M194.245 152.234C195.235 152.234 196.037 151.432 196.037 150.442C196.037 149.452 195.235 148.65 194.245 148.65C193.255 148.65 192.453 149.452 192.453 150.442C192.453 151.432 193.255 152.234 194.245 152.234Z" fill="#F2CF54"/>
<path d="M215.608 148.875H197.918V152.01H215.608V148.875Z" fill="white"/>
<path d="M194.245 164.448C195.235 164.448 196.037 163.645 196.037 162.656C196.037 161.666 195.235 160.864 194.245 160.864C193.255 160.864 192.453 161.666 192.453 162.656C192.453 163.645 193.255 164.448 194.245 164.448Z" fill="#FFDD33"/>
<path d="M215.608 161.088H197.918V164.223H215.608V161.088Z" fill="white"/>
<path d="M194.245 171.831C195.235 171.831 196.037 171.029 196.037 170.039C196.037 169.05 195.235 168.247 194.245 168.247C193.255 168.247 192.453 169.05 192.453 170.039C192.453 171.029 193.255 171.831 194.245 171.831Z" fill="white"/>
<path d="M215.608 168.472H197.918V171.607H215.608V168.472Z" fill="white"/>
<path d="M188.227 156.691H219.824" stroke="white" stroke-width="0.488807" stroke-miterlimit="10"/>
<path d="M177.489 76.5078H148.324V105.673H177.489V76.5078Z" fill="#1E2778"/>
<path d="M177.489 105.673H148.324L160.397 91.3815L167.328 99.2558L177.489 87.9282V105.673Z" fill="#54CC5A"/>
<path d="M156.62 89.1602C158.999 89.1602 160.927 87.2317 160.927 84.8528C160.927 82.4739 158.999 80.5454 156.62 80.5454C154.241 80.5454 152.312 82.4739 152.312 84.8528C152.312 87.2317 154.241 89.1602 156.62 89.1602Z" fill="#FFDD33"/>
<path d="M177.489 113.659H148.324V142.824H177.489V113.659Z" fill="white"/>
<path d="M177.489 150.812H148.324V179.977H177.489V150.812Z" fill="#54CC5A"/>
<path d="M138.166 77.241V104.94H110.468V77.241H138.166ZM138.899 76.5078H109.734V105.673H138.899V76.5078Z" fill="#002548"/>
<path d="M138.899 113.659H109.734V142.824H138.899V113.659Z" fill="#FFDD33"/>
<path d="M138.899 150.811H109.734V179.976H138.899V150.811Z" fill="white"/>
<path d="M173.844 83.2214L176.798 91.9689L179.147 89.6206L182.161 92.6346L183.258 91.5378L180.243 88.5237L182.591 86.1754L173.844 83.2214Z" fill="#EDFCFF"/>
<g opacity="0.1">
<path d="M114.755 197.863L110 202.618L120.995 213.613L125.75 208.858L114.755 197.863Z" fill="black"/>
<path d="M160.513 243.302L155.441 248.374C154.542 249.273 153.085 249.273 152.186 248.374L120.783 216.971C119.885 216.072 119.885 214.615 120.783 213.716L125.856 208.644C126.755 207.745 128.211 207.745 129.11 208.644L160.513 240.047C161.412 240.946 161.412 242.403 160.513 243.302Z" fill="black"/>
<path d="M66.5932 154.452C53.5835 167.462 53.5835 188.556 66.5932 201.565C79.6029 214.575 100.696 214.575 113.706 201.565C126.716 188.556 126.716 167.462 113.706 154.452C100.696 141.443 79.6029 141.443 66.5932 154.452ZM109.741 197.6C98.9207 208.42 81.3786 208.42 70.5587 197.6C59.7387 186.78 59.7387 169.238 70.5587 158.418C81.3786 147.598 98.9207 147.598 109.741 158.418C120.56 169.238 120.56 186.78 109.741 197.6Z" fill="black"/>
<path opacity="0.7" d="M95.9306 173.089C100.217 171.291 102.234 166.358 100.435 162.071C98.6369 157.785 93.704 155.768 89.4176 157.567C85.1311 159.365 83.1143 164.298 84.9128 168.584C86.7113 172.871 91.6442 174.888 95.9306 173.089Z" fill="black"/>
</g>
<path d="M114.751 195.178L109.996 199.933L120.992 210.928L125.746 206.173L114.751 195.178Z" fill="#69B9C5"/>
<path d="M160.505 240.615L155.433 245.688C154.534 246.586 153.077 246.586 152.179 245.688L120.776 214.285C119.877 213.386 119.877 211.929 120.776 211.031L125.848 205.958C126.747 205.059 128.204 205.059 129.102 205.958L160.505 237.361C161.404 238.26 161.404 239.717 160.505 240.615Z" fill="#3C3C6B"/>
<path d="M66.5854 151.766C53.5757 164.776 53.5757 185.87 66.5854 198.879C79.5951 211.889 100.689 211.889 113.698 198.879C126.708 185.87 126.708 164.776 113.698 151.766C100.688 138.756 79.5951 138.756 66.5854 151.766ZM109.733 194.914C98.9129 205.734 81.3708 205.734 70.5509 194.914C59.7309 184.094 59.7309 166.552 70.5509 155.732C81.3708 144.912 98.9129 144.912 109.733 155.732C120.552 166.551 120.552 184.094 109.733 194.914Z" fill="#3C3C6B"/>
<path opacity="0.7" d="M95.9228 170.404C100.209 168.605 102.226 163.672 100.428 159.386C98.6291 155.099 93.6962 153.083 89.4098 154.881C85.1233 156.68 83.1064 161.613 84.905 165.899C86.7035 170.185 91.6364 172.202 95.9228 170.404Z" fill="white"/>
</g>
<defs>
<clipPath id="clip0_18103_15273">
<rect width="420" height="280" fill="white"/>
</clipPath>
</defs>
</svg>
