<svg width="420" height="280" viewBox="0 0 420 280" fill="none" xmlns="http://www.w3.org/2000/svg">
<g clip-path="url(#clip0_18103_12078)">
<path d="M184.083 23H140.696C136.064 23 132.309 26.7556 132.309 31.3878V74.7746C132.309 79.4068 136.064 83.1613 140.696 83.1613H184.083C188.715 83.1613 192.471 79.4058 192.471 74.7746V31.3878C192.471 26.7556 188.715 23 184.083 23Z" fill="#8EB3D7"/>
<path d="M145.156 59.6679L147.712 56.6014C148.791 58.0495 149.984 58.7881 151.403 58.7881C153.249 58.7881 154.214 57.6807 154.214 55.494V46.0388H147.229V42.3479H158.785V55.2385C158.785 60.151 156.315 62.5652 151.63 62.5652C148.96 62.5641 146.603 61.5419 145.156 59.6679Z" fill="white"/>
<path d="M161.766 60.264L163.327 56.7995C165.003 58.0212 167.501 58.873 169.886 58.873C172.612 58.873 173.719 57.964 173.719 56.7435C173.719 53.0235 162.162 55.5789 162.162 48.1961C162.162 44.8169 164.888 42.0059 170.539 42.0059C173.038 42.0059 175.593 42.6021 177.439 43.7666L176.019 47.2591C174.174 46.2078 172.271 45.6967 170.511 45.6967C167.784 45.6967 166.734 46.7189 166.734 47.9686C166.734 51.6315 178.291 49.104 178.291 56.4027C178.291 59.7248 175.536 62.565 169.858 62.565C166.707 62.5639 163.526 61.6269 161.766 60.264Z" fill="white"/>
<path d="M259.099 61.8743V53.6677H254.51C254.145 52.2929 253.598 50.9914 252.901 49.7892L256.148 46.5415L250.345 40.7383L247.097 43.986C245.895 43.2884 244.594 42.7417 243.219 42.3762V37.7871H235.012V42.3762C233.636 42.7417 232.336 43.2884 231.134 43.986L227.886 40.7383L222.084 46.5415L225.332 49.7892C224.634 50.9914 224.087 52.2929 223.722 53.6677H219.133V61.8743H223.722C224.087 63.249 224.634 64.5505 225.332 65.7527L222.084 69.0005L227.886 74.8036L231.134 71.5559C232.336 72.2536 233.638 72.8002 235.012 73.1658V77.7548H243.219V73.1658C244.594 72.8002 245.895 72.2536 247.097 71.5559L250.345 74.8036L256.148 69.0005L252.901 65.7527C253.598 64.5505 254.145 63.249 254.51 61.8743H259.099ZM239.116 64.888C235.186 64.888 231.999 61.7017 231.999 57.7715C231.999 53.8413 235.185 50.6539 239.116 50.6539C243.047 50.6539 246.233 53.8402 246.233 57.7715C246.233 61.7028 243.047 64.888 239.116 64.888Z" fill="white"/>
<path d="M276.616 40.9172V36.8144H274.322C274.138 36.1265 273.865 35.4763 273.517 34.8746L275.141 33.2508L272.239 30.3492L270.616 31.973C270.014 31.6237 269.364 31.3509 268.676 31.1676V28.873H264.573V31.1676C263.885 31.3509 263.235 31.6237 262.634 31.973L261.011 30.3492L258.109 33.2508L259.733 34.8746C259.383 35.4763 259.111 36.1265 258.927 36.8144H256.633V40.9172H258.927C259.111 41.6051 259.383 42.2553 259.733 42.8569L258.109 44.4808L261.011 47.3824L262.634 45.7585C263.236 46.1079 263.886 46.3807 264.573 46.564V48.8585H268.676V46.564C269.364 46.3818 270.014 46.1079 270.616 45.7585L272.239 47.3824L275.141 44.4808L273.517 42.8569C273.867 42.2553 274.139 41.6051 274.322 40.9172H276.616ZM266.624 42.4246C264.658 42.4246 263.066 40.8309 263.066 38.8663C263.066 36.9007 264.659 35.3081 266.624 35.3081C268.589 35.3081 270.182 36.9017 270.182 38.8663C270.183 40.8309 268.59 42.4246 266.624 42.4246Z" fill="white"/>
<path d="M110.775 89.0245C106.941 89.0245 103.805 92.1612 103.805 95.9944V237.604C103.805 241.437 106.941 244.574 110.775 244.574H316.495C320.328 244.574 323.465 241.437 323.465 237.604V95.9933C323.465 92.1601 320.328 89.0234 316.495 89.0234L110.775 89.0245Z" fill="#002548"/>
<path d="M290.264 241.337H137.294H78.8047C78.8047 241.337 81.7289 244.573 90.6148 244.573H137.294H290.264H336.942C345.827 244.573 348.753 241.337 348.753 241.337H290.264Z" fill="#719BD8"/>
<path d="M348.753 236.165H78.8047V241.338H348.753V236.165Z" fill="#D4DAFD"/>
<path d="M232.902 236.8H195.035C195.035 238.106 196.093 239.163 197.397 239.163H230.54C231.845 239.163 232.902 238.106 232.902 236.8Z" fill="#719BD8"/>
<mask id="mask0_18103_12078" style="mask-type:luminance" maskUnits="userSpaceOnUse" x="109" y="97" width="210" height="135">
<path d="M318.069 97.2754H109.48V231.836H318.069V97.2754Z" fill="white"/>
</mask>
<g mask="url(#mask0_18103_12078)">
<path d="M321.21 97.4746H108.414V105.876H321.21V97.4746Z" fill="#719BD8"/>
</g>
<mask id="mask1_18103_12078" style="mask-type:luminance" maskUnits="userSpaceOnUse" x="109" y="97" width="210" height="135">
<path d="M318.069 97.2754H109.48V231.836H318.069V97.2754Z" fill="white"/>
</mask>
<g mask="url(#mask1_18103_12078)">
<path d="M114.218 101.769C114.218 102.752 113.422 103.548 112.439 103.548C111.457 103.548 110.66 102.752 110.66 101.769C110.66 100.787 111.457 99.9902 112.439 99.9902C113.422 99.9913 114.218 100.787 114.218 101.769Z" fill="#BCC4F7"/>
</g>
<mask id="mask2_18103_12078" style="mask-type:luminance" maskUnits="userSpaceOnUse" x="109" y="97" width="210" height="135">
<path d="M318.069 97.2754H109.48V231.836H318.069V97.2754Z" fill="white"/>
</mask>
<g mask="url(#mask2_18103_12078)">
<path d="M120.062 101.769C120.062 102.752 119.265 103.548 118.283 103.548C117.301 103.548 116.504 102.752 116.504 101.769C116.504 100.787 117.301 99.9902 118.283 99.9902C119.265 99.9913 120.062 100.787 120.062 101.769Z" fill="#BCC4F7"/>
</g>
<mask id="mask3_18103_12078" style="mask-type:luminance" maskUnits="userSpaceOnUse" x="109" y="97" width="210" height="135">
<path d="M318.069 97.2754H109.48V231.836H318.069V97.2754Z" fill="white"/>
</mask>
<g mask="url(#mask3_18103_12078)">
<path d="M125.914 101.769C125.914 102.752 125.117 103.548 124.135 103.548C123.152 103.548 122.355 102.752 122.355 101.769C122.355 100.787 123.152 99.9902 124.135 99.9902C125.117 99.9913 125.914 100.787 125.914 101.769Z" fill="#BCC4F7"/>
</g>
<mask id="mask4_18103_12078" style="mask-type:luminance" maskUnits="userSpaceOnUse" x="109" y="97" width="210" height="135">
<path d="M318.069 97.2754H109.48V231.836H318.069V97.2754Z" fill="white"/>
</mask>
<g mask="url(#mask4_18103_12078)">
<path d="M321.21 105.876H108.414V231.837H321.21V105.876Z" fill="#B2CBE3"/>
</g>
<path opacity="0.62" d="M306.356 114.428H216.207V221.02H306.356V114.428Z" fill="white"/>
<path d="M263.88 174.373H223.137V176.602H263.88V174.373Z" fill="white"/>
<path d="M297.645 174.373H269.016V176.602H297.645V174.373Z" fill="#719BD8"/>
<path d="M289.778 192.327H261.148V194.555H289.778V192.327Z" fill="#E30E08"/>
<path d="M257.931 195.028H223.383V197.257H257.931V195.028Z" fill="white"/>
<path d="M263.883 180.837H233.77V183.066H263.883V180.837Z" fill="#E30E08"/>
<path d="M242.19 187.301H223.383V189.53H242.19V187.301Z" fill="white"/>
<path d="M263.877 187.301H247.875V189.53H263.877V187.301Z" fill="#719BD8"/>
<path d="M246.744 208.89H223.137V211.119H246.744V208.89Z" fill="#719BD8"/>
<path d="M294.085 186.725H271.824V188.954H294.085V186.725Z" fill="white"/>
<path d="M281.29 208.891H251.727V211.119H281.29V208.891Z" fill="#E30E08"/>
<path d="M271.826 202.427H223.137V204.655H271.826V202.427Z" fill="#E30E08"/>
<path d="M272.305 180.837H268.609V183.066H272.305V180.837Z" fill="white"/>
<path d="M280.531 180.837H276.836V183.066H280.531V180.837Z" fill="white"/>
<path d="M275.031 213.706H271.336V215.934H275.031V213.706Z" fill="white"/>
<path d="M264.907 213.706H223.137V215.934H264.907V213.706Z" fill="white"/>
<path d="M294.982 199.71H275.977V201.939H294.982V199.71Z" fill="#719BD8"/>
<path d="M294.573 213.706H279.562V215.934H294.573V213.706Z" fill="#719BD8"/>
<path d="M265.276 120.37H223.137V122.599H265.276V120.37Z" fill="white"/>
<path d="M265.276 126.835H242.707V129.064H265.276V126.835Z" fill="#719BD8"/>
<path d="M229.586 126.766H223.137V128.995H229.586V126.766Z" fill="white"/>
<path d="M239.105 126.766H232.656V128.994H239.105V126.766Z" fill="white"/>
<path d="M300.409 126.835H270.617V129.064H300.409V126.835Z" fill="white"/>
<path d="M300.409 120.37H270.617V122.599H300.409V120.37Z" fill="#E30E08"/>
<path d="M292.23 144.786H262.438V147.014H292.23V144.786Z" fill="#719BD8"/>
<path d="M259.087 147.49H223.137V149.718H259.087V147.49Z" fill="white"/>
<path d="M265.276 133.298H223.137V135.527H265.276V133.298Z" fill="#E30E08"/>
<path d="M242.707 139.763H223.137V141.991H242.707V139.763Z" fill="#E30E08"/>
<path d="M265.278 139.763H248.625V141.991H265.278V139.763Z" fill="white"/>
<path d="M247.445 161.351H224.281V163.58H247.445V161.351Z" fill="#719BD8"/>
<path d="M296.711 139.186H273.547V141.414H296.711V139.186Z" fill="white"/>
<path d="M283.397 161.351H252.633V163.58H283.397V161.351Z" fill="white"/>
<path d="M273.546 154.887H224.59V157.115H273.546V154.887Z" fill="white"/>
<path d="M274.04 133.298H270.195V135.527H274.04V133.298Z" fill="white"/>
<path d="M282.603 133.298H278.758V135.527H282.603V133.298Z" fill="white"/>
<path d="M276.884 166.167H273.039V168.396H276.884V166.167Z" fill="#719BD8"/>
<path d="M266.346 166.167H224.281V168.396H266.346V166.167Z" fill="white"/>
<path d="M297.64 152.171H277.863V154.4H297.64V152.171Z" fill="#E30E08"/>
<path d="M297.217 166.167H281.598V168.396H297.217V166.167Z" fill="#E30E08"/>
<path opacity="0.76" d="M190.041 215.705C190.041 220.455 186.19 224.306 181.442 224.306H143.319C138.569 224.306 134.719 220.455 134.719 215.705V123.242C134.719 118.492 138.569 114.642 143.319 114.642H181.442C186.191 114.642 190.041 118.492 190.041 123.242V215.705Z" fill="white"/>
<path d="M180.919 112.026H143.85C137.568 112.026 132.477 117.118 132.477 123.4V215.548C132.477 221.828 137.568 226.921 143.85 226.921H180.919C187.2 226.921 192.293 221.829 192.293 215.548V123.4C192.293 117.119 187.2 112.026 180.919 112.026ZM190.046 215.706C190.046 220.456 186.195 224.306 181.447 224.306H143.324C138.574 224.306 134.724 220.456 134.724 215.706V123.242C134.724 118.493 138.574 114.642 143.324 114.642H181.447C186.196 114.642 190.046 118.493 190.046 123.242V215.706Z" fill="#002548"/>
<path d="M168.671 118.506H156.104C153.501 118.506 151.391 116.396 151.391 113.793H173.383C173.384 116.396 171.274 118.506 168.671 118.506Z" fill="#002548"/>
<path d="M165.126 115.188H156.023V115.927H165.126V115.188Z" fill="white"/>
<path d="M168.75 115.558C168.75 115.847 168.516 116.082 168.226 116.082C167.936 116.082 167.703 115.848 167.703 115.558C167.703 115.269 167.937 115.035 168.226 115.035C168.515 115.035 168.75 115.269 168.75 115.558Z" fill="white"/>
<path d="M178.841 145.148H145.926C143.408 145.148 141.367 147.189 141.367 149.707V182.622C141.367 185.14 143.408 187.181 145.926 187.181H178.841C181.359 187.181 183.4 185.14 183.4 182.622V149.708C183.401 147.189 181.36 145.148 178.841 145.148Z" fill="#91B9F7"/>
<path d="M179.109 160.788L162.845 153.778L146.578 160.788H150.933V178.551H159.803V168.818H165.885V178.551H174.755V160.788H179.109Z" fill="#F3F3F3"/>
<path opacity="0.18" d="M175.275 204.089H150.2C147.917 204.089 146.066 202.238 146.066 199.955C146.066 197.671 147.918 195.821 150.2 195.821H175.275C177.559 195.821 179.409 197.672 179.409 199.955C179.409 202.239 177.558 204.089 175.275 204.089Z" fill="#606060"/>
<path d="M174.277 203.298H149.497C147.214 203.298 145.363 201.446 145.363 199.164C145.363 196.88 147.215 195.03 149.497 195.03H174.277C176.56 195.03 178.411 196.881 178.411 199.164C178.412 201.446 176.56 203.298 174.277 203.298Z" fill="#719BD8"/>
<path d="M155.746 200.229L157.682 197.21H158.523L159.252 200.229H158.403L157.863 197.616H158.2L156.647 200.229H155.746ZM156.591 199.643L156.936 199.013H158.411L158.506 199.643H156.591ZM159.499 200.229L160.103 197.21H161.379C161.77 197.21 162.072 197.295 162.285 197.465C162.498 197.634 162.604 197.873 162.604 198.181C162.604 198.434 162.544 198.655 162.423 198.845C162.302 199.035 162.13 199.181 161.905 199.285C161.681 199.388 161.417 199.44 161.112 199.44H160.133L160.586 199.061L160.353 200.229H159.499ZM160.564 199.16L160.266 198.767H161.151C161.337 198.767 161.483 198.723 161.586 198.634C161.69 198.545 161.741 198.418 161.741 198.254C161.741 198.128 161.7 198.034 161.616 197.974C161.533 197.913 161.417 197.883 161.267 197.883H160.448L160.9 197.478L160.564 199.16ZM162.637 200.229L163.24 197.21H164.517C164.908 197.21 165.21 197.295 165.423 197.465C165.636 197.634 165.742 197.873 165.742 198.181C165.742 198.434 165.682 198.655 165.561 198.845C165.44 199.035 165.268 199.181 165.043 199.285C164.819 199.388 164.554 199.44 164.25 199.44H163.271L163.723 199.061L163.491 200.229H162.637ZM163.702 199.16L163.404 198.767H164.288C164.475 198.767 164.621 198.723 164.724 198.634C164.828 198.545 164.879 198.418 164.879 198.254C164.879 198.128 164.838 198.034 164.754 197.974C164.671 197.913 164.554 197.883 164.405 197.883H163.585L164.038 197.478L163.702 199.16Z" fill="white"/>
<path d="M348.613 139.185H310.408C306.329 139.185 303.023 142.491 303.023 146.57V184.774C303.023 188.853 306.33 192.159 310.408 192.159H348.613C352.692 192.159 355.998 188.852 355.998 184.774V146.57C355.998 142.491 352.692 139.185 348.613 139.185Z" fill="#719BD8"/>
<path d="M318.882 173.33C317.872 173.33 316.93 173.168 316.057 172.844C315.197 172.507 314.449 172.033 313.813 171.422C313.176 170.811 312.678 170.094 312.316 169.271C311.967 168.448 311.792 167.544 311.792 166.558C311.792 165.573 311.967 164.669 312.316 163.846C312.678 163.022 313.176 162.305 313.813 161.694C314.461 161.083 315.216 160.615 316.076 160.291C316.937 159.954 317.878 159.786 318.901 159.786C320.036 159.786 321.059 159.986 321.969 160.385C322.892 160.771 323.665 161.345 324.289 162.106L322.343 163.902C321.894 163.39 321.395 163.01 320.847 162.761C320.298 162.499 319.699 162.368 319.051 162.368C318.44 162.368 317.878 162.467 317.367 162.667C316.856 162.867 316.413 163.153 316.039 163.528C315.665 163.902 315.372 164.344 315.159 164.856C314.96 165.367 314.86 165.935 314.86 166.558C314.86 167.182 314.96 167.749 315.159 168.261C315.372 168.772 315.665 169.215 316.039 169.589C316.413 169.963 316.856 170.25 317.367 170.449C317.878 170.649 318.44 170.749 319.051 170.749C319.699 170.749 320.298 170.624 320.847 170.375C321.395 170.113 321.894 169.72 322.343 169.196L324.289 170.992C323.665 171.753 322.892 172.333 321.969 172.732C321.059 173.131 320.03 173.33 318.882 173.33ZM329.106 170.88V162.237H331.519V170.88H329.106ZM325.87 167.699V165.417H334.774V167.699H325.87ZM340.378 170.88V162.237H342.791V170.88H340.378ZM337.142 167.699V165.417H346.047V167.699H337.142Z" fill="white"/>
<path d="M113.632 149.717H72.0406C67.6003 149.717 64 153.316 64 157.757V199.349C64 203.789 67.5992 207.389 72.0406 207.389H113.632C118.072 207.389 121.673 203.79 121.673 199.349V157.757C121.673 153.317 118.072 149.717 113.632 149.717Z" fill="#4783BE"/>
<path d="M75.6827 184.716V173.16H80.6849C81.7194 173.16 82.6109 173.331 83.3593 173.672C84.1077 174.002 84.6855 174.481 85.0927 175.108C85.4999 175.736 85.7035 176.484 85.7035 177.353C85.7035 178.212 85.4999 178.955 85.0927 179.582C84.6855 180.209 84.1077 180.694 83.3593 181.035C82.6109 181.365 81.7194 181.53 80.6849 181.53H77.1685L78.3571 180.325V184.716H75.6827ZM78.3571 180.622L77.1685 179.351H80.5363C81.3617 179.351 81.9781 179.175 82.3853 178.823C82.7925 178.47 82.9961 177.981 82.9961 177.353C82.9961 176.715 82.7925 176.22 82.3853 175.868C81.9781 175.515 81.3617 175.339 80.5363 175.339H77.1685L78.3571 174.068V180.622ZM95.5371 173.16H98.2115V184.716H95.5371V173.16ZM90.2873 184.716H87.6129V173.16H90.2873V184.716ZM95.7352 179.978H90.0892V177.717H95.7352V179.978ZM100.946 184.716V173.16H105.948C106.982 173.16 107.874 173.331 108.622 173.672C109.371 174.002 109.948 174.481 110.356 175.108C110.763 175.736 110.966 176.484 110.966 177.353C110.966 178.212 110.763 178.955 110.356 179.582C109.948 180.209 109.371 180.694 108.622 181.035C107.874 181.365 106.982 181.53 105.948 181.53H102.431L103.62 180.325V184.716H100.946ZM103.62 180.622L102.431 179.351H105.799C106.625 179.351 107.241 179.175 107.648 178.823C108.055 178.47 108.259 177.981 108.259 177.353C108.259 176.715 108.055 176.22 107.648 175.868C107.241 175.515 106.625 175.339 105.799 175.339H102.431L103.62 174.068V180.622Z" fill="white"/>
<path d="M323.576 59.4688H289.115C285.436 59.4688 282.453 62.4512 282.453 66.1302V100.591C282.453 104.27 285.436 107.253 289.115 107.253H323.576C327.255 107.253 330.237 104.27 330.237 100.591V66.1302C330.237 62.4512 327.255 59.4688 323.576 59.4688Z" fill="#4783BE"/>
<path d="M295.08 78.7504H297.083V87.4072H295.08V78.7504ZM291.147 87.4072H289.144V78.7504H291.147V87.4072ZM295.228 83.8579H290.999V82.1637H295.228V83.8579ZM300.925 87.4072V80.3829H298.154V78.7504H305.698V80.3829H302.928V87.4072H300.925ZM306.776 87.4072V78.7504H308.433L312.119 84.8597H311.24L314.864 78.7504H316.509L316.533 87.4072H314.654L314.641 81.6319H314.988L312.094 86.4921H311.191L308.235 81.6319H308.656V87.4072H306.776ZM318.587 87.4072V78.7504H320.591V85.7748H324.932V87.4072H318.587Z" fill="white"/>
<path d="M265.519 207.368H230.228C226.461 207.368 223.406 210.423 223.406 214.19V249.479C223.406 253.247 226.461 256.302 230.228 256.302H265.519C269.286 256.302 272.341 253.248 272.341 249.479V214.19C272.341 210.423 269.286 207.368 265.519 207.368Z" fill="#8EB3D7"/>
<path d="M232.212 235.598C231.552 235.598 230.944 235.477 230.387 235.236C229.838 234.985 229.388 234.632 229.035 234.176L230.289 232.672C230.558 233.025 230.842 233.294 231.139 233.48C231.436 233.656 231.757 233.745 232.101 233.745C233.02 233.745 233.48 233.206 233.48 232.128V227.488H230.052V225.676H235.724V232.003C235.724 233.21 235.426 234.111 234.832 234.706C234.237 235.301 233.364 235.598 232.212 235.598ZM236.467 235.431L240.815 225.676H243.045L247.407 235.431H245.038L241.47 226.819H242.362L238.781 235.431H236.467ZM238.641 233.34L239.241 231.626H244.257L244.87 233.34H238.641ZM250.814 235.431L246.606 225.676H249.044L252.723 234.316H251.288L255.023 225.676H257.266L253.044 235.431H250.814ZM256.472 235.431L260.82 225.676H263.049L267.411 235.431H265.042L261.475 226.819H262.367L258.785 235.431H256.472ZM258.646 233.34L259.245 231.626H264.262L264.875 233.34H258.646Z" fill="white"/>
</g>
<defs>
<clipPath id="clip0_18103_12078">
<rect width="420" height="280" fill="white"/>
</clipPath>
</defs>
</svg>
