<svg width="40" height="40" viewBox="0 0 40 40" fill="none" xmlns="http://www.w3.org/2000/svg">
<path fill-rule="evenodd" clip-rule="evenodd" d="M21.6749 1.15023L36.2246 8.89449C37.3657 9.50302 38.0209 10.5475 38.0209 11.7631V27.2501C38.0209 28.4672 37.3657 29.5101 36.2246 30.1187L21.6749 37.8629C20.5323 38.4715 19.225 38.4715 18.0823 37.8629L3.53264 30.1187C2.38997 29.5101 1.73633 28.4672 1.73633 27.2501V11.7631C1.73633 10.5475 2.38997 9.50302 3.53264 8.89449L18.0823 1.15023C19.225 0.543186 20.5323 0.543186 21.6749 1.15023Z" fill="#FFC42E"/>
<path d="M34.3823 7.21765H7.75557C7.03625 7.21765 6.45312 7.81251 6.45312 8.5463V25.8991C6.45312 26.6329 7.03625 27.2278 7.75557 27.2278H34.3823C35.1017 27.2278 35.6848 26.6329 35.6848 25.8991V8.5463C35.6848 7.81251 35.1017 7.21765 34.3823 7.21765Z" fill="white"/>
<path fill-rule="evenodd" clip-rule="evenodd" d="M7.89437 7.21765H34.2419C35.036 7.21765 35.6848 7.81577 35.6848 8.5463V24.1598H6.45312V8.5463C6.45312 7.81577 7.10193 7.21765 7.89437 7.21765Z" fill="#1C3B5C"/>
<path fill-rule="evenodd" clip-rule="evenodd" d="M7.51953 8.37671H34.6192V23.0677H7.51953V8.37671Z" fill="#00DCAB"/>
<path d="M21.0687 26.2442C21.4681 26.2442 21.7918 25.9458 21.7918 25.5777C21.7918 25.2096 21.4681 24.9111 21.0687 24.9111C20.6694 24.9111 20.3457 25.2096 20.3457 25.5777C20.3457 25.9458 20.6694 26.2442 21.0687 26.2442Z" fill="#AFB0B5"/>
<path fill-rule="evenodd" clip-rule="evenodd" d="M18.0098 27.2278H24.1282V29.6262H18.0098V27.2278Z" fill="white"/>
<path fill-rule="evenodd" clip-rule="evenodd" d="M18.0098 27.2277H24.1282V28.2067H18.0098V27.2277Z" fill="#E1E3E8"/>
<path fill-rule="evenodd" clip-rule="evenodd" d="M16.9232 31.7969H25.2495C25.674 31.7969 25.8773 31.3089 25.5933 31.0351L24.1262 29.6261H18.0094L16.5923 30.9756C16.3422 31.2136 16.5084 31.7969 16.9232 31.7969Z" fill="#E1E3E8"/>
<path fill-rule="evenodd" clip-rule="evenodd" d="M7.51953 10.8822H34.6192V17.0553H7.51953V10.8822Z" fill="white"/>
<path fill-rule="evenodd" clip-rule="evenodd" d="M11.4453 20.9253H15.2913V21.2437H11.4453V20.9253ZM11.4453 21.7109H14.0066V22.0293H11.4453V21.7109Z" fill="white"/>
<path fill-rule="evenodd" clip-rule="evenodd" d="M11.4453 18.2947H16.2581V20.4997H11.4453V18.2947Z" fill="#FFD467"/>
<path fill-rule="evenodd" clip-rule="evenodd" d="M18.502 18.2947H23.3147V20.4997H18.502V18.2947Z" fill="#4288C7"/>
<path fill-rule="evenodd" clip-rule="evenodd" d="M25.5547 18.2947H30.3675V20.4997H25.5547V18.2947Z" fill="#FF576B"/>
<path d="M37.8596 19.6503H32.9387C32.444 19.6503 32.043 20.0526 32.043 20.5489V30.4416C32.043 30.938 32.444 31.3403 32.9387 31.3403H37.8596C38.3543 31.3403 38.7553 30.938 38.7553 30.4416V20.5489C38.7553 20.0526 38.3543 19.6503 37.8596 19.6503Z" fill="#1C3B5C"/>
<path d="M38.4036 21.266H32.3933C32.3745 21.266 32.3594 21.278 32.3594 21.2928V29.6976C32.3594 29.7124 32.3745 29.7244 32.3933 29.7244H38.4036C38.4223 29.7244 38.4375 29.7124 38.4375 29.6976V21.2928C38.4375 21.278 38.4223 21.266 38.4036 21.266Z" fill="#00DCAB"/>
<path d="M35.397 30.8658C35.6368 30.8658 35.8312 30.6866 35.8312 30.4655C35.8312 30.2445 35.6368 30.0653 35.397 30.0653C35.1573 30.0653 34.9629 30.2445 34.9629 30.4655C34.9629 30.6866 35.1573 30.8658 35.397 30.8658Z" fill="#8E8E93"/>
<path d="M34.361 20.6561C34.4439 20.6561 34.5111 20.5942 34.5111 20.5178C34.5111 20.4413 34.4439 20.3794 34.361 20.3794C34.2781 20.3794 34.2109 20.4413 34.2109 20.5178C34.2109 20.5942 34.2781 20.6561 34.361 20.6561Z" fill="#8E8E93"/>
<path d="M35.9319 20.3794H34.9071C34.8322 20.3794 34.7715 20.4353 34.7715 20.5044C34.7715 20.5734 34.8322 20.6294 34.9071 20.6294H35.9319C36.0068 20.6294 36.0675 20.5734 36.0675 20.5044C36.0675 20.4353 36.0068 20.3794 35.9319 20.3794Z" fill="#8E8E93"/>
<path d="M1 16.2503V30.1228C1 30.795 1.59112 31.34 2.32031 31.34H11.2515C11.9807 31.34 12.5718 30.795 12.5718 30.1228V16.2503C12.5718 15.5781 11.9807 15.0332 11.2515 15.0332H2.32031C1.59112 15.0332 1 15.5781 1 16.2503Z" fill="#1C3B5C"/>
<path fill-rule="evenodd" clip-rule="evenodd" d="M1.52734 29.6357V16.7262H12.051V29.6357H1.52734Z" fill="#00DCAB"/>
<path d="M7.25771 30.4868C7.25771 30.2487 7.0483 30.0556 6.78999 30.0556C6.53167 30.0556 6.32227 30.2487 6.32227 30.4868C6.32227 30.7249 6.53167 30.918 6.78999 30.918C7.0483 30.918 7.25771 30.7249 7.25771 30.4868Z" fill="#AFB0B5"/>
<path fill-rule="evenodd" clip-rule="evenodd" d="M5.13281 15.9246C5.13281 15.8368 5.21028 15.7654 5.3055 15.7654C5.39911 15.7654 5.47658 15.8368 5.47658 15.9246C5.47658 16.0124 5.39911 16.0838 5.3055 16.0838C5.21028 16.0838 5.13281 16.0124 5.13281 15.9246ZM6.15282 15.8145H7.27451C7.47948 15.8145 7.47948 16.0362 7.27451 16.0362H6.15282C5.94624 16.0362 5.94624 15.8145 6.15282 15.8145Z" fill="#AFB0B5"/>
<path fill-rule="evenodd" clip-rule="evenodd" d="M12.8711 9.59985H15.6148V10.1385H12.8711V9.59985Z" fill="#205081"/>
<path fill-rule="evenodd" clip-rule="evenodd" d="M18.4688 9.59985H21.2124V10.1385H18.4688V9.59985Z" fill="#205081"/>
<path fill-rule="evenodd" clip-rule="evenodd" d="M24.0645 9.59985H26.8082V10.1385H24.0645V9.59985Z" fill="#205081"/>
<path fill-rule="evenodd" clip-rule="evenodd" d="M29.6621 9.59985H32.4058V10.1385H29.6621V9.59985Z" fill="#205081"/>
<path fill-rule="evenodd" clip-rule="evenodd" d="M25.5508 20.9254H29.3968V21.2438H25.5508V20.9254ZM25.5508 21.711H28.1121V22.0294H25.5508V21.711Z" fill="white"/>
<path fill-rule="evenodd" clip-rule="evenodd" d="M18.498 20.9254H22.3441V21.2438H18.498V20.9254ZM18.498 21.711H21.0594V22.0294H18.498V21.711Z" fill="white"/>
<path fill-rule="evenodd" clip-rule="evenodd" d="M32.3574 21.2661H38.4355V24.529H32.3574V21.2661Z" fill="white"/>
<path fill-rule="evenodd" clip-rule="evenodd" d="M37.2168 22.4087H37.9802V22.6125H37.2168V22.4087ZM37.2168 21.5249H37.9802V21.7287H37.2168V21.5249ZM37.2168 21.9668H37.9802V22.1706H37.2168V21.9668Z" fill="#205081"/>
<path fill-rule="evenodd" clip-rule="evenodd" d="M1.52734 18.8512H12.047V24.1598H1.52734V18.8512Z" fill="white"/>
<path fill-rule="evenodd" clip-rule="evenodd" d="M2.23047 27.4004H5.33407V27.7173H2.23047V27.4004ZM2.23047 28.1845H4.29631V28.5029H2.23047V28.1845Z" fill="white"/>
<path fill-rule="evenodd" clip-rule="evenodd" d="M2.23047 24.7684H6.29437V26.9734H2.23047V24.7684Z" fill="#FFD467"/>
<path fill-rule="evenodd" clip-rule="evenodd" d="M7.27734 27.4004H10.3809V27.7173H7.27734V27.4004ZM7.27734 28.1845H9.34319V28.5029H7.27734V28.1845Z" fill="white"/>
<path fill-rule="evenodd" clip-rule="evenodd" d="M7.27734 24.7684H11.3412V26.9734H7.27734V24.7684Z" fill="#4288C7"/>
<path fill-rule="evenodd" clip-rule="evenodd" d="M3.25586 17.7219H4.57445V18.384H3.25586V17.7219Z" fill="#205081"/>
<path fill-rule="evenodd" clip-rule="evenodd" d="M5.45508 17.7219H6.77367V18.384H5.45508V17.7219Z" fill="#205081"/>
<path fill-rule="evenodd" clip-rule="evenodd" d="M7.6543 17.7219H8.97289V18.384H7.6543V17.7219Z" fill="#205081"/>
<path fill-rule="evenodd" clip-rule="evenodd" d="M9.85547 17.7219H11.1741V18.384H9.85547V17.7219Z" fill="#205081"/>
<path fill-rule="evenodd" clip-rule="evenodd" d="M33.3691 27.9197H36.4727V28.2366H33.3691V27.9197ZM33.3691 28.7038H35.435V29.0222H33.3691V28.7038Z" fill="white"/>
<path fill-rule="evenodd" clip-rule="evenodd" d="M33.3691 25.2892H37.433V27.4942H33.3691V25.2892Z" fill="#FFD467"/>
</svg>
