<svg width="96" height="78" viewBox="0 0 96 78" fill="none" xmlns="http://www.w3.org/2000/svg">
<path d="M44.0619 34.9138L37.8783 25.2594C37.7462 25.0645 37.5704 24.9062 37.3661 24.7985C37.1618 24.6907 36.9354 24.6368 36.7065 24.6413C36.476 24.6363 36.248 24.6916 36.0433 24.8022C35.8386 24.9127 35.6637 25.075 35.5347 25.2741L29.3511 34.9138H22.5887C22.2143 34.9138 21.8552 35.0688 21.5904 35.3448C21.3256 35.6208 21.1769 35.9951 21.1769 36.3855C21.1749 36.5202 21.1939 36.6544 21.2334 36.7828L24.8193 50.4255C24.9829 51.0437 25.3368 51.5888 25.8265 51.977C26.3162 52.3652 26.9147 52.575 27.5299 52.5741H45.8831C46.4995 52.5731 47.0988 52.3628 47.5904 51.9752C48.082 51.5875 48.4391 51.0435 48.6078 50.4255L52.1937 36.7828L52.2361 36.3855C52.2361 35.9951 52.0873 35.6208 51.8226 35.3448C51.5578 35.0688 51.1987 34.9138 50.8243 34.9138H44.0619ZM32.4711 34.9138L36.7065 28.4383L40.9418 34.9138H32.4711ZM36.7065 46.6873C36.148 46.6873 35.6021 46.5147 35.1378 46.1913C34.6735 45.8679 34.3116 45.4082 34.0979 44.8703C33.8841 44.3325 33.8282 43.7407 33.9372 43.1697C34.0461 42.5988 34.315 42.0743 34.7099 41.6627C35.1048 41.251 35.6079 40.9707 36.1556 40.8571C36.7034 40.7435 37.2711 40.8018 37.787 41.0246C38.303 41.2474 38.7439 41.6246 39.0542 42.1087C39.3645 42.5927 39.53 43.1618 39.53 43.7439C39.5278 44.5239 39.2296 45.2712 38.7006 45.8227C38.1715 46.3742 37.4547 46.685 36.7065 46.6873Z" fill="#333B4E"/>
<path d="M37.4133 75.0551C56.5161 75.0551 72.0019 58.912 72.0019 38.9985C72.0019 19.085 56.5161 2.94189 37.4133 2.94189C18.3106 2.94189 2.82471 19.085 2.82471 38.9985C2.82471 58.912 18.3106 75.0551 37.4133 75.0551Z" stroke="#556FE6" stroke-width="1.69712"/>
<path d="M76.9415 56.2907C85.9081 56.2907 93.177 48.7133 93.177 39.3662C93.177 30.019 85.9081 22.4417 76.9415 22.4417C67.9749 22.4417 60.7061 30.019 60.7061 39.3662C60.7061 48.7133 67.9749 56.2907 76.9415 56.2907Z" stroke="#556FE6" stroke-width="1.69712"/>
</svg>
