<svg width="472" height="394" viewBox="0 0 472 394" fill="none" xmlns="http://www.w3.org/2000/svg">
<g clip-path="url(#clip0_18100_7189)">
<path opacity="0.5" d="M204.25 52.3871H177.561C173.599 52.3871 170.387 49.1756 170.387 45.2127V30.0152C170.387 26.0533 173.598 22.8408 177.561 22.8408H204.25C208.212 22.8408 211.424 26.0523 211.424 30.0152V45.2127C211.423 49.1756 208.212 52.3871 204.25 52.3871Z" fill="#719BD8"/>
<path d="M208.973 48.8578H182.284C178.322 48.8578 175.109 45.6463 175.109 41.6843V26.4859C175.109 22.524 178.321 19.3115 182.284 19.3115H208.973C212.935 19.3115 216.147 22.523 216.147 26.4859V41.6834C216.147 45.6463 212.935 48.8578 208.973 48.8578Z" fill="white"/>
<path d="M216.146 24.817C216.146 21.7773 213.681 19.3125 210.642 19.3125H180.614C177.574 19.3125 175.109 21.7773 175.109 24.817V25.0936H216.146V24.817Z" fill="#0054A6"/>
<path opacity="0.5" d="M366.384 62.7162H339.695C335.733 62.7162 332.521 59.5037 332.521 55.5418V40.3443C332.521 36.3824 335.733 33.1699 339.695 33.1699H366.384C370.346 33.1699 373.558 36.3814 373.558 40.3443V55.5418C373.557 59.5047 370.346 62.7162 366.384 62.7162Z" fill="#719BD8"/>
<path d="M369.639 58.4125H342.95C338.988 58.4125 335.775 55.201 335.775 51.2381V36.0406C335.775 32.0786 338.987 28.8662 342.95 28.8662H369.639C373.601 28.8662 376.813 32.0777 376.813 36.0406V51.2381C376.813 55.2 373.601 58.4125 369.639 58.4125Z" fill="white"/>
<path d="M376.811 34.3707C376.811 31.331 374.346 28.8662 371.307 28.8662H341.278C338.238 28.8662 335.773 31.331 335.773 34.3707V34.6473H376.81V34.3707H376.811Z" fill="#0054A6"/>
<path opacity="0.5" d="M413.898 172.936H332.76C327.731 172.936 323.654 168.86 323.654 163.83V89.0043C323.654 83.9756 327.731 79.8984 332.76 79.8984H413.898C418.927 79.8984 423.004 83.9746 423.004 89.0043V163.83C423.003 168.86 418.927 172.936 413.898 172.936Z" fill="#719BD8"/>
<path d="M420.409 166.968H339.272C334.243 166.968 330.166 162.892 330.166 157.863V83.0365C330.166 78.0078 334.243 73.9307 339.272 73.9307H420.41C425.438 73.9307 429.515 78.0069 429.515 83.0365V157.863C429.514 162.891 425.438 166.968 420.409 166.968Z" fill="#F9FAFB"/>
<path d="M429.515 82.1869C429.515 77.6274 425.819 73.9307 421.259 73.9307H338.424C333.865 73.9307 330.168 77.6274 330.168 82.1869V85.5928H429.516V82.1869H429.515Z" fill="#0054A6"/>
<path opacity="0.5" d="M340.39 79.5376C340.39 80.7346 339.419 81.7041 338.223 81.7041C337.027 81.7041 336.057 80.7336 336.057 79.5376C336.057 78.3406 337.027 77.3711 338.223 77.3711C339.419 77.3711 340.39 78.3406 340.39 79.5376Z" fill="#F9FAFB"/>
<path opacity="0.5" d="M347.431 79.5376C347.431 80.7346 346.46 81.7041 345.264 81.7041C344.068 81.7041 343.098 80.7336 343.098 79.5376C343.098 78.3406 344.068 77.3711 345.264 77.3711C346.46 77.3711 347.431 78.3406 347.431 79.5376Z" fill="#F9FAFB"/>
<path opacity="0.5" d="M354.05 79.5376C354.05 80.7346 353.079 81.7041 351.883 81.7041C350.687 81.7041 349.717 80.7336 349.717 79.5376C349.717 78.3406 350.687 77.3711 351.883 77.3711C353.079 77.3711 354.05 78.3406 354.05 79.5376Z" fill="#F9FAFB"/>
<path d="M366.695 101.544C367.682 102.983 368.262 104.723 368.262 106.6C368.262 111.544 364.255 115.551 359.311 115.551C354.367 115.551 350.36 111.544 350.36 106.6C350.36 101.656 354.367 97.6491 359.311 97.6491V91.6387C351.048 91.6387 344.35 98.3373 344.35 106.6C344.35 114.863 351.048 121.562 359.311 121.562C367.574 121.562 374.273 114.863 374.273 106.6C374.273 103.462 373.305 100.552 371.655 98.1466L366.695 101.544Z" fill="#80B6DD"/>
<path d="M366.696 101.544L371.656 98.1466C368.96 94.2167 364.438 91.6387 359.312 91.6387V97.6491C362.38 97.6491 365.083 99.1926 366.696 101.544Z" fill="#719BD8"/>
<path d="M359.836 108.633V108.3C359.836 108.069 359.884 107.858 359.978 107.667C360.075 107.473 360.215 107.319 360.398 107.203C360.584 107.086 360.808 107.027 361.072 107.027C361.339 107.027 361.564 107.086 361.745 107.203C361.926 107.319 362.063 107.473 362.156 107.667C362.248 107.858 362.295 108.069 362.295 108.3V108.633C362.295 108.864 362.247 109.076 362.153 109.27C362.06 109.461 361.922 109.615 361.739 109.733C361.558 109.848 361.335 109.906 361.072 109.906C360.804 109.906 360.579 109.848 360.395 109.733C360.212 109.615 360.073 109.461 359.978 109.27C359.884 109.076 359.836 108.864 359.836 108.633ZM360.466 108.3V108.633C360.466 108.825 360.512 108.997 360.602 109.149C360.693 109.299 360.849 109.375 361.072 109.375C361.288 109.375 361.44 109.299 361.529 109.149C361.619 108.997 361.665 108.825 361.665 108.633V108.3C361.665 108.108 361.621 107.937 361.535 107.787C361.448 107.635 361.294 107.559 361.072 107.559C360.855 107.559 360.7 107.635 360.605 107.787C360.513 107.937 360.466 108.108 360.466 108.3ZM356.686 105.014V104.68C356.686 104.449 356.733 104.238 356.828 104.047C356.925 103.853 357.065 103.699 357.248 103.584C357.433 103.466 357.658 103.408 357.921 103.408C358.189 103.408 358.413 103.466 358.595 103.584C358.776 103.699 358.913 103.853 359.005 104.047C359.098 104.238 359.144 104.449 359.144 104.68V105.014C359.144 105.244 359.097 105.456 359.002 105.65C358.91 105.841 358.772 105.996 358.588 106.113C358.407 106.228 358.185 106.286 357.921 106.286C357.654 106.286 357.428 106.228 357.245 106.113C357.062 105.996 356.923 105.841 356.828 105.65C356.733 105.456 356.686 105.244 356.686 105.014ZM357.316 104.68V105.014C357.316 105.205 357.361 105.377 357.452 105.529C357.542 105.68 357.699 105.755 357.921 105.755C358.138 105.755 358.29 105.68 358.378 105.529C358.469 105.377 358.514 105.205 358.514 105.014V104.68C358.514 104.488 358.471 104.318 358.385 104.167C358.298 104.015 358.144 103.939 357.921 103.939C357.705 103.939 357.55 104.015 357.455 104.167C357.362 104.318 357.316 104.488 357.316 104.68ZM356.921 109.819L361.269 103.494H361.974L357.625 109.819H356.921Z" fill="#719BD8"/>
<path d="M400.373 91.6387V97.6491C405.317 97.6491 409.324 101.656 409.324 106.6H415.335C415.335 98.3373 408.636 91.6387 400.373 91.6387Z" fill="#719BD8"/>
<path d="M400.372 115.551C395.428 115.551 391.421 111.544 391.421 106.6C391.421 101.656 395.428 97.6491 400.372 97.6491V91.6387C392.109 91.6387 385.41 98.3373 385.41 106.6C385.41 114.863 392.109 121.562 400.372 121.562C408.634 121.562 415.333 114.863 415.333 106.6H409.323C409.323 111.544 405.315 115.551 400.372 115.551Z" fill="#80B6DD"/>
<path d="M400.735 108.634V108.301C400.735 108.07 400.782 107.859 400.877 107.668C400.974 107.474 401.114 107.32 401.297 107.204C401.482 107.087 401.707 107.028 401.97 107.028C402.238 107.028 402.462 107.087 402.643 107.204C402.825 107.32 402.962 107.474 403.054 107.668C403.147 107.859 403.193 108.07 403.193 108.301V108.634C403.193 108.865 403.146 109.077 403.051 109.271C402.958 109.462 402.82 109.616 402.637 109.734C402.456 109.849 402.234 109.907 401.97 109.907C401.702 109.907 401.477 109.849 401.294 109.734C401.11 109.616 400.971 109.462 400.877 109.271C400.782 109.077 400.735 108.865 400.735 108.634ZM401.365 108.301V108.634C401.365 108.826 401.41 108.998 401.501 109.15C401.591 109.3 401.748 109.376 401.97 109.376C402.186 109.376 402.339 109.3 402.427 109.15C402.518 108.998 402.563 108.826 402.563 108.634V108.301C402.563 108.109 402.52 107.938 402.433 107.788C402.347 107.636 402.192 107.559 401.97 107.559C401.754 107.559 401.598 107.636 401.504 107.788C401.411 107.938 401.365 108.109 401.365 108.301ZM397.584 105.015V104.681C397.584 104.45 397.632 104.239 397.726 104.048C397.823 103.854 397.963 103.7 398.146 103.585C398.332 103.467 398.556 103.408 398.82 103.408C399.087 103.408 399.312 103.467 399.493 103.585C399.674 103.7 399.811 103.854 399.904 104.048C399.997 104.239 400.043 104.45 400.043 104.681V105.015C400.043 105.245 399.995 105.457 399.901 105.651C399.808 105.842 399.67 105.997 399.487 106.114C399.306 106.229 399.083 106.287 398.82 106.287C398.552 106.287 398.327 106.229 398.143 106.114C397.96 105.997 397.821 105.842 397.726 105.651C397.632 105.457 397.584 105.245 397.584 105.015ZM398.214 104.681V105.015C398.214 105.206 398.26 105.378 398.35 105.53C398.441 105.681 398.597 105.756 398.82 105.756C399.036 105.756 399.188 105.681 399.277 105.53C399.367 105.378 399.413 105.206 399.413 105.015V104.681C399.413 104.489 399.37 104.319 399.283 104.168C399.197 104.016 399.042 103.94 398.82 103.94C398.604 103.94 398.448 104.016 398.353 104.168C398.261 104.319 398.214 104.489 398.214 104.681ZM397.819 109.82L402.168 103.495H402.872L398.523 109.82H397.819Z" fill="#719BD8"/>
<path d="M368.264 143.477C368.264 146.014 367.204 148.298 365.509 149.927L369.888 154.06C372.597 151.353 374.274 147.611 374.274 143.478C374.274 135.215 367.575 128.517 359.312 128.517V134.527C364.256 134.526 368.264 138.533 368.264 143.477Z" fill="#719BD8"/>
<path d="M365.509 149.926C363.901 151.473 361.72 152.428 359.313 152.428C354.369 152.428 350.362 148.421 350.362 143.477C350.362 138.533 354.369 134.526 359.313 134.526V128.516C351.05 128.516 344.352 135.214 344.352 143.477C344.352 151.74 351.05 158.439 359.313 158.439C363.443 158.439 367.182 156.765 369.89 154.059L365.509 149.926Z" fill="#80B6DD"/>
<path d="M359.838 144.719V144.386C359.838 144.155 359.886 143.944 359.98 143.753C360.077 143.559 360.217 143.405 360.4 143.289C360.586 143.172 360.81 143.113 361.074 143.113C361.341 143.113 361.566 143.172 361.747 143.289C361.928 143.405 362.065 143.559 362.158 143.753C362.25 143.944 362.297 144.155 362.297 144.386V144.719C362.297 144.95 362.249 145.162 362.155 145.356C362.062 145.547 361.924 145.701 361.741 145.819C361.56 145.934 361.337 145.992 361.074 145.992C360.806 145.992 360.58 145.934 360.397 145.819C360.214 145.701 360.075 145.547 359.98 145.356C359.886 145.162 359.838 144.95 359.838 144.719ZM360.468 144.386V144.719C360.468 144.911 360.514 145.083 360.604 145.235C360.695 145.385 360.851 145.461 361.074 145.461C361.29 145.461 361.442 145.385 361.531 145.235C361.621 145.083 361.667 144.911 361.667 144.719V144.386C361.667 144.194 361.623 144.023 361.537 143.873C361.45 143.721 361.296 143.644 361.074 143.644C360.857 143.644 360.702 143.721 360.607 143.873C360.515 144.023 360.468 144.194 360.468 144.386ZM356.688 141.099V140.766C356.688 140.535 356.735 140.324 356.83 140.133C356.927 139.939 357.067 139.785 357.25 139.669C357.435 139.552 357.66 139.493 357.923 139.493C358.191 139.493 358.415 139.552 358.597 139.669C358.778 139.785 358.915 139.939 359.007 140.133C359.1 140.324 359.146 140.535 359.146 140.766V141.099C359.146 141.33 359.099 141.542 359.004 141.736C358.912 141.927 358.774 142.082 358.59 142.199C358.409 142.314 358.187 142.372 357.923 142.372C357.656 142.372 357.43 142.314 357.247 142.199C357.064 142.082 356.925 141.927 356.83 141.736C356.735 141.542 356.688 141.33 356.688 141.099ZM357.318 140.766V141.099C357.318 141.291 357.363 141.463 357.454 141.615C357.544 141.766 357.701 141.841 357.923 141.841C358.14 141.841 358.292 141.766 358.38 141.615C358.471 141.463 358.516 141.291 358.516 141.099V140.766C358.516 140.574 358.473 140.404 358.387 140.253C358.3 140.101 358.146 140.025 357.923 140.025C357.707 140.025 357.552 140.101 357.457 140.253C357.364 140.404 357.318 140.574 357.318 140.766ZM356.923 145.905L361.271 139.58H361.975L357.627 145.905H356.923Z" fill="#719BD8"/>
<path d="M400.373 128.517V134.527C405.317 134.527 409.324 138.534 409.324 143.478C409.324 148.422 405.317 152.429 400.373 152.429V158.44C408.636 158.44 415.335 151.741 415.335 143.478C415.335 135.215 408.636 128.517 400.373 128.517Z" fill="#719BD8"/>
<path d="M391.421 143.478C391.421 138.534 395.428 134.527 400.372 134.527V128.517C392.109 128.517 385.41 135.215 385.41 143.478C385.41 151.741 392.109 158.44 400.372 158.44V152.429C395.428 152.429 391.421 148.422 391.421 143.478Z" fill="#80B6DD"/>
<path d="M400.735 144.72V144.387C400.735 144.156 400.782 143.945 400.877 143.754C400.974 143.56 401.114 143.406 401.297 143.29C401.482 143.173 401.707 143.114 401.97 143.114C402.238 143.114 402.462 143.173 402.643 143.29C402.825 143.406 402.962 143.56 403.054 143.754C403.147 143.945 403.193 144.156 403.193 144.387V144.72C403.193 144.951 403.146 145.163 403.051 145.356C402.958 145.548 402.82 145.702 402.637 145.82C402.456 145.935 402.234 145.993 401.97 145.993C401.702 145.993 401.477 145.935 401.294 145.82C401.11 145.702 400.971 145.548 400.877 145.356C400.782 145.163 400.735 144.951 400.735 144.72ZM401.365 144.387V144.72C401.365 144.912 401.41 145.084 401.501 145.236C401.591 145.386 401.748 145.461 401.97 145.461C402.186 145.461 402.339 145.386 402.427 145.236C402.518 145.084 402.563 144.912 402.563 144.72V144.387C402.563 144.195 402.52 144.024 402.433 143.874C402.347 143.722 402.192 143.645 401.97 143.645C401.754 143.645 401.598 143.722 401.504 143.874C401.411 144.024 401.365 144.195 401.365 144.387ZM397.584 141.1V140.767C397.584 140.536 397.632 140.325 397.726 140.134C397.823 139.94 397.963 139.786 398.146 139.67C398.332 139.553 398.556 139.494 398.82 139.494C399.087 139.494 399.312 139.553 399.493 139.67C399.674 139.786 399.811 139.94 399.904 140.134C399.997 140.325 400.043 140.536 400.043 140.767V141.1C400.043 141.331 399.995 141.543 399.901 141.737C399.808 141.928 399.67 142.083 399.487 142.2C399.306 142.315 399.083 142.373 398.82 142.373C398.552 142.373 398.327 142.315 398.143 142.2C397.96 142.083 397.821 141.928 397.726 141.737C397.632 141.543 397.584 141.331 397.584 141.1ZM398.214 140.767V141.1C398.214 141.292 398.26 141.464 398.35 141.616C398.441 141.767 398.597 141.842 398.82 141.842C399.036 141.842 399.188 141.767 399.277 141.616C399.367 141.464 399.413 141.292 399.413 141.1V140.767C399.413 140.575 399.37 140.405 399.283 140.254C399.197 140.102 399.042 140.026 398.82 140.026C398.604 140.026 398.448 140.102 398.353 140.254C398.261 140.405 398.214 140.575 398.214 140.767ZM397.819 145.906L402.168 139.581H402.872L398.523 145.906H397.819Z" fill="#719BD8"/>
<path opacity="0.5" d="M187.85 162.347H70.5531C65.5244 162.347 61.4473 158.27 61.4473 153.241V77.5423C61.4473 72.5137 65.5244 68.4365 70.5531 68.4365H187.85C192.878 68.4365 196.956 72.5127 196.956 77.5423V153.241C196.956 158.27 192.878 162.347 187.85 162.347Z" fill="#719BD8"/>
<path d="M194.805 154.547H77.5082C72.4795 154.547 68.4023 150.47 68.4023 145.441V69.7425C68.4023 64.7139 72.4785 60.6367 77.5082 60.6367H194.806C199.835 60.6367 203.912 64.7129 203.912 69.7425V145.441C203.911 150.47 199.834 154.547 194.805 154.547Z" fill="#F9FAFB"/>
<path d="M203.911 68.5389C203.911 63.8302 200.093 60.0127 195.385 60.0127H76.9286C72.2199 60.0127 68.4023 63.8302 68.4023 68.5389V72.1308H203.911V68.5389Z" fill="#0054A6"/>
<path opacity="0.5" d="M80.5888 66.8628C80.5888 68.0598 79.6184 69.0292 78.4223 69.0292C77.2263 69.0292 76.2559 68.0588 76.2559 66.8628C76.2559 65.6667 77.2263 64.6963 78.4223 64.6963C79.6184 64.6963 80.5888 65.6667 80.5888 66.8628Z" fill="#F9FAFB"/>
<path opacity="0.5" d="M87.6298 66.8628C87.6298 68.0598 86.6594 69.0292 85.4634 69.0292C84.2673 69.0292 83.2969 68.0588 83.2969 66.8628C83.2969 65.6667 84.2673 64.6963 85.4634 64.6963C86.6594 64.6963 87.6298 65.6667 87.6298 66.8628Z" fill="#F9FAFB"/>
<path opacity="0.5" d="M94.249 66.8628C94.249 68.0598 93.2785 69.0292 92.0825 69.0292C90.8855 69.0292 89.916 68.0588 89.916 66.8628C89.916 65.6667 90.8865 64.6963 92.0825 64.6963C93.2785 64.6963 94.249 65.6667 94.249 66.8628Z" fill="#F9FAFB"/>
<path d="M88.0215 97.3955C92.8529 97.3955 96.7695 93.4789 96.7695 88.6475C96.7695 83.816 92.8529 79.8994 88.0215 79.8994C83.1901 79.8994 79.2734 83.816 79.2734 88.6475C79.2734 93.4789 83.1901 97.3955 88.0215 97.3955Z" fill="#80B6DD"/>
<path d="M91.2536 86.9862C91.2536 88.7713 89.8064 90.2184 88.0213 90.2184C86.2362 90.2184 84.7891 88.7713 84.7891 86.9862C84.7891 85.2011 86.2362 83.7539 88.0213 83.7539C89.8064 83.7539 91.2536 85.2011 91.2536 86.9862Z" fill="#F9FAFB"/>
<path d="M88.021 97.3958C90.5263 97.3958 92.7834 96.3414 94.3778 94.6535C94.1909 92.7636 93.1827 91.1154 91.7129 90.0723C90.8303 91.1277 89.504 91.7988 88.021 91.7988C86.5379 91.7988 85.2116 91.1277 84.329 90.0723C82.8592 91.1144 81.851 92.7636 81.6641 94.6535C83.2585 96.3414 85.5165 97.3958 88.021 97.3958Z" fill="#F9FAFB"/>
<path d="M88.0215 97.3955C92.8529 97.3955 96.7695 93.4789 96.7695 88.6475C96.7695 83.816 92.8529 79.8994 88.0215 79.8994C83.1901 79.8994 79.2734 83.816 79.2734 88.6475C79.2734 93.4789 83.1901 97.3955 88.0215 97.3955Z" stroke="#719BD8" stroke-width="0.944" stroke-miterlimit="10"/>
<path d="M184.912 93.7742H108.307C105.475 93.7742 103.18 91.4784 103.18 88.6464C103.18 85.8144 105.475 83.5195 108.307 83.5195H184.912C187.744 83.5195 190.039 85.8153 190.039 88.6464C190.04 91.4793 187.744 93.7742 184.912 93.7742Z" fill="#80B6DD"/>
<path d="M108.307 83.5195C105.475 83.5195 103.18 85.8153 103.18 88.6464C103.18 91.4784 105.475 93.7742 108.307 93.7742H148.71V83.5195H108.307Z" fill="#719BD8"/>
<path d="M88.0215 121.934C92.8529 121.934 96.7695 118.017 96.7695 113.186C96.7695 108.354 92.8529 104.438 88.0215 104.438C83.1901 104.438 79.2734 108.354 79.2734 113.186C79.2734 118.017 83.1901 121.934 88.0215 121.934Z" fill="#80B6DD"/>
<path d="M91.2536 111.525C91.2536 113.31 89.8064 114.757 88.0213 114.757C86.2362 114.757 84.7891 113.31 84.7891 111.525C84.7891 109.74 86.2362 108.293 88.0213 108.293C89.8064 108.292 91.2536 109.739 91.2536 111.525Z" fill="#F9FAFB"/>
<path d="M88.0229 121.934C90.5283 121.934 92.7854 120.879 94.3798 119.192C94.1929 117.302 93.1847 115.653 91.7149 114.61C90.8323 115.666 89.5059 116.337 88.0229 116.337C86.5399 116.337 85.2136 115.666 84.3309 114.61C82.8611 115.653 81.8529 117.302 81.666 119.192C83.2604 120.879 85.5185 121.934 88.0229 121.934Z" fill="#F9FAFB"/>
<path d="M88.0215 121.934C92.8529 121.934 96.7695 118.017 96.7695 113.186C96.7695 108.354 92.8529 104.438 88.0215 104.438C83.1901 104.438 79.2734 108.354 79.2734 113.186C79.2734 118.017 83.1901 121.934 88.0215 121.934Z" stroke="#719BD8" stroke-width="0.944" stroke-miterlimit="10"/>
<path d="M184.914 118.313H108.309C105.477 118.313 103.182 116.017 103.182 113.185C103.182 110.353 105.477 108.059 108.309 108.059H184.914C187.746 108.059 190.041 110.354 190.041 113.185C190.042 116.017 187.746 118.313 184.914 118.313Z" fill="#80B6DD"/>
<path d="M108.309 108.059C105.477 108.059 103.182 110.354 103.182 113.185C103.182 116.017 105.477 118.313 108.309 118.313H168.239V108.059H108.309Z" fill="#719BD8"/>
<path d="M88.0215 146.816C92.8529 146.816 96.7695 142.9 96.7695 138.068C96.7695 133.237 92.8529 129.32 88.0215 129.32C83.1901 129.32 79.2734 133.237 79.2734 138.068C79.2734 142.9 83.1901 146.816 88.0215 146.816Z" fill="#80B6DD"/>
<path d="M91.2536 136.408C91.2536 138.193 89.8064 139.64 88.0213 139.64C86.2362 139.64 84.7891 138.193 84.7891 136.408C84.7891 134.623 86.2362 133.176 88.0213 133.176C89.8064 133.175 91.2536 134.623 91.2536 136.408Z" fill="#F9FAFB"/>
<path d="M88.021 146.817C90.5263 146.817 92.7834 145.762 94.3778 144.074C94.1909 142.184 93.1827 140.536 91.7129 139.493C90.8303 140.549 89.504 141.22 88.021 141.22C86.5379 141.22 85.2116 140.549 84.329 139.493C82.8592 140.536 81.851 142.185 81.6641 144.074C83.2585 145.761 85.5165 146.817 88.021 146.817Z" fill="#F9FAFB"/>
<path d="M88.0215 146.816C92.8529 146.816 96.7695 142.9 96.7695 138.068C96.7695 133.237 92.8529 129.32 88.0215 129.32C83.1901 129.32 79.2734 133.237 79.2734 138.068C79.2734 142.9 83.1901 146.816 88.0215 146.816Z" stroke="#719BD8" stroke-width="0.944" stroke-miterlimit="10"/>
<path d="M184.912 143.196H108.307C105.475 143.196 103.18 140.9 103.18 138.068C103.18 135.236 105.475 132.941 108.307 132.941H184.912C187.744 132.941 190.039 135.237 190.039 138.068C190.04 140.9 187.744 143.196 184.912 143.196Z" fill="#80B6DD"/>
<path d="M108.307 132.941C105.475 132.941 103.18 135.237 103.18 138.068C103.18 140.9 105.475 143.196 108.307 143.196H182.355V132.941H108.307Z" fill="#719BD8"/>
<path opacity="0.5" d="M341.633 269.451H140.821C136.612 269.451 133.199 266.038 133.199 261.829V115.68C133.199 111.471 136.612 108.059 140.821 108.059H341.633C345.843 108.059 349.255 111.471 349.255 115.68V261.83C349.255 266.039 345.843 269.451 341.633 269.451Z" fill="#719BD8"/>
<path d="M334.248 274.437H149.274C145.065 274.437 141.652 271.024 141.652 266.815V122.277C141.652 118.068 145.065 114.655 149.274 114.655H334.248C338.457 114.655 341.87 118.068 341.87 122.277V266.815C341.87 271.024 338.457 274.437 334.248 274.437Z" fill="#F9FAFB"/>
<path d="M318.478 259.045L302.693 180.523L287.13 233.391L271.62 149.666L255.747 221.853L240.237 233.391L225.136 208.539L209.171 221.135L193.614 184.219L178.104 198.795L165.217 161.631L164.996 259.008L318.478 259.045Z" fill="#80B6DD"/>
<path d="M329.051 259.951H164.997C164.476 259.951 164.053 259.529 164.053 259.007V145.92C164.053 145.398 164.476 144.976 164.997 144.976C165.518 144.976 165.941 145.398 165.941 145.92V258.063H329.052C329.574 258.063 329.996 258.485 329.996 259.007C329.995 259.529 329.573 259.951 329.051 259.951Z" fill="#719BD8"/>
<path d="M164.578 152.404H160.743C160.222 152.404 159.799 151.981 159.799 151.46C159.799 150.939 160.222 150.516 160.743 150.516H164.578C165.099 150.516 165.522 150.939 165.522 151.46C165.522 151.982 165.099 152.404 164.578 152.404Z" fill="#719BD8"/>
<path d="M164.578 162.461H160.743C160.222 162.461 159.799 162.038 159.799 161.517C159.799 160.996 160.222 160.573 160.743 160.573H164.578C165.099 160.573 165.522 160.996 165.522 161.517C165.522 162.038 165.099 162.461 164.578 162.461Z" fill="#719BD8"/>
<path d="M164.578 172.349H160.743C160.222 172.349 159.799 171.926 159.799 171.405C159.799 170.884 160.222 170.461 160.743 170.461H164.578C165.099 170.461 165.522 170.884 165.522 171.405C165.522 171.927 165.099 172.349 164.578 172.349Z" fill="#719BD8"/>
<path d="M164.578 182.266H160.743C160.222 182.266 159.799 181.843 159.799 181.322C159.799 180.801 160.222 180.378 160.743 180.378H164.578C165.099 180.378 165.522 180.801 165.522 181.322C165.522 181.843 165.099 182.266 164.578 182.266Z" fill="#719BD8"/>
<path d="M164.578 192.154H160.743C160.222 192.154 159.799 191.731 159.799 191.21C159.799 190.689 160.222 190.266 160.743 190.266H164.578C165.099 190.266 165.522 190.689 165.522 191.21C165.522 191.731 165.099 192.154 164.578 192.154Z" fill="#719BD8"/>
<path d="M164.578 202.274H160.743C160.222 202.274 159.799 201.851 159.799 201.33C159.799 200.809 160.222 200.386 160.743 200.386H164.578C165.099 200.386 165.522 200.809 165.522 201.33C165.522 201.851 165.099 202.274 164.578 202.274Z" fill="#719BD8"/>
<path d="M164.578 212.162H160.743C160.222 212.162 159.799 211.74 159.799 211.218C159.799 210.697 160.222 210.274 160.743 210.274H164.578C165.099 210.274 165.522 210.697 165.522 211.218C165.522 211.74 165.099 212.162 164.578 212.162Z" fill="#719BD8"/>
<path d="M164.578 222.078H160.743C160.222 222.078 159.799 221.656 159.799 221.134C159.799 220.613 160.222 220.19 160.743 220.19H164.578C165.099 220.19 165.522 220.613 165.522 221.134C165.522 221.656 165.099 222.078 164.578 222.078Z" fill="#719BD8"/>
<path d="M164.578 231.966H160.743C160.222 231.966 159.799 231.543 159.799 231.022C159.799 230.501 160.222 230.078 160.743 230.078H164.578C165.099 230.078 165.522 230.501 165.522 231.022C165.522 231.544 165.099 231.966 164.578 231.966Z" fill="#719BD8"/>
<path d="M164.578 241.884H160.743C160.222 241.884 159.799 241.461 159.799 240.94C159.799 240.419 160.222 239.996 160.743 239.996H164.578C165.099 239.996 165.522 240.419 165.522 240.94C165.522 241.461 165.099 241.884 164.578 241.884Z" fill="#719BD8"/>
<path d="M164.578 251.771H160.743C160.222 251.771 159.799 251.349 159.799 250.827C159.799 250.305 160.222 249.883 160.743 249.883H164.578C165.099 249.883 165.522 250.305 165.522 250.827C165.522 251.349 165.099 251.771 164.578 251.771Z" fill="#719BD8"/>
<path d="M302.686 262.434C302.164 262.434 301.742 262.012 301.742 261.49V259.044C301.742 258.522 302.164 258.1 302.686 258.1C303.208 258.1 303.63 258.522 303.63 259.044V261.49C303.63 262.012 303.207 262.434 302.686 262.434Z" fill="#719BD8"/>
<path d="M287.13 262.434C286.608 262.434 286.186 262.012 286.186 261.49V259.044C286.186 258.522 286.608 258.1 287.13 258.1C287.652 258.1 288.074 258.522 288.074 259.044V261.49C288.074 262.012 287.652 262.434 287.13 262.434Z" fill="#719BD8"/>
<path d="M271.62 262.434C271.098 262.434 270.676 262.012 270.676 261.49V259.044C270.676 258.522 271.098 258.1 271.62 258.1C272.142 258.1 272.564 258.522 272.564 259.044V261.49C272.564 262.012 272.142 262.434 271.62 262.434Z" fill="#719BD8"/>
<path d="M318.477 262.434C317.955 262.434 317.533 262.012 317.533 261.49V259.044C317.533 258.522 317.955 258.1 318.477 258.1C318.999 258.1 319.421 258.522 319.421 259.044V261.49C319.421 262.012 318.999 262.434 318.477 262.434Z" fill="#719BD8"/>
<path d="M255.747 262.434C255.225 262.434 254.803 262.012 254.803 261.49V259.044C254.803 258.522 255.225 258.1 255.747 258.1C256.269 258.1 256.691 258.522 256.691 259.044V261.49C256.691 262.012 256.269 262.434 255.747 262.434Z" fill="#719BD8"/>
<path d="M240.237 262.434C239.715 262.434 239.293 262.012 239.293 261.49V259.044C239.293 258.522 239.715 258.1 240.237 258.1C240.759 258.1 241.181 258.522 241.181 259.044V261.49C241.181 262.012 240.759 262.434 240.237 262.434Z" fill="#719BD8"/>
<path d="M224.68 262.434C224.159 262.434 223.736 262.012 223.736 261.49V259.044C223.736 258.522 224.159 258.1 224.68 258.1C225.201 258.1 225.624 258.522 225.624 259.044V261.49C225.624 262.012 225.201 262.434 224.68 262.434Z" fill="#719BD8"/>
<path d="M209.169 262.434C208.648 262.434 208.225 262.012 208.225 261.49V259.044C208.225 258.522 208.648 258.1 209.169 258.1C209.69 258.1 210.113 258.522 210.113 259.044V261.49C210.113 262.012 209.69 262.434 209.169 262.434Z" fill="#719BD8"/>
<path d="M193.614 262.434C193.093 262.434 192.67 262.012 192.67 261.49V259.044C192.67 258.522 193.093 258.1 193.614 258.1C194.135 258.1 194.558 258.522 194.558 259.044V261.49C194.558 262.012 194.135 262.434 193.614 262.434Z" fill="#719BD8"/>
<path d="M178.102 262.434C177.581 262.434 177.158 262.012 177.158 261.49V259.044C177.158 258.522 177.581 258.1 178.102 258.1C178.623 258.1 179.046 258.522 179.046 259.044V261.49C179.046 262.012 178.624 262.434 178.102 262.434Z" fill="#719BD8"/>
<path d="M178.575 257.322H177.631V255.434H178.575V257.322ZM178.575 253.546H177.631V251.658H178.575V253.546ZM178.575 249.77H177.631V247.882H178.575V249.77ZM178.575 245.994H177.631V244.106H178.575V245.994ZM178.575 242.218H177.631V240.33H178.575V242.218ZM178.575 238.442H177.631V236.554H178.575V238.442ZM178.575 234.666H177.631V232.778H178.575V234.666ZM178.575 230.89H177.631V229.002H178.575V230.89ZM178.575 227.114H177.631V225.226H178.575V227.114ZM178.575 223.338H177.631V221.45H178.575V223.338ZM178.575 219.562H177.631V217.674H178.575V219.562ZM178.575 215.786H177.631V213.898H178.575V215.786ZM178.575 212.01H177.631V210.122H178.575V212.01ZM178.575 208.234H177.631V206.346H178.575V208.234ZM178.575 204.458H177.631V202.57H178.575V204.458ZM178.575 200.682H177.631V198.794H178.575V200.682Z" fill="#719BD8"/>
<path d="M193.704 258.225H192.76V256.337H193.704V258.225ZM193.704 254.449H192.76V252.561H193.704V254.449ZM193.704 250.673H192.76V248.785H193.704V250.673ZM193.704 246.897H192.76V245.009H193.704V246.897ZM193.704 243.121H192.76V241.233H193.704V243.121ZM193.704 239.345H192.76V237.457H193.704V239.345ZM193.704 235.569H192.76V233.681H193.704V235.569ZM193.704 231.793H192.76V229.905H193.704V231.793ZM193.704 228.017H192.76V226.129H193.704V228.017ZM193.704 224.241H192.76V222.353H193.704V224.241ZM193.704 220.465H192.76V218.577H193.704V220.465ZM193.704 216.689H192.76V214.801H193.704V216.689ZM193.704 212.913H192.76V211.025H193.704V212.913ZM193.704 209.137H192.76V207.249H193.704V209.137ZM193.704 205.361H192.76V203.473H193.704V205.361ZM193.704 201.585H192.76V199.697H193.704V201.585ZM193.704 197.809H192.76V195.921H193.704V197.809ZM193.704 194.033H192.76V192.145H193.704V194.033ZM193.704 190.257H192.76V188.369H193.704V190.257ZM193.704 186.481H192.76V184.593H193.704V186.481Z" fill="#719BD8"/>
<path d="M209.655 258.274H208.711V257.932H209.655V258.274ZM209.655 256.043H208.711V254.155H209.655V256.043ZM209.655 252.267H208.711V250.379H209.655V252.267ZM209.655 248.491H208.711V246.603H209.655V248.491ZM209.655 244.715H208.711V242.827H209.655V244.715ZM209.655 240.939H208.711V239.051H209.655V240.939ZM209.655 237.163H208.711V235.275H209.655V237.163ZM209.655 233.387H208.711V231.499H209.655V233.387ZM209.655 229.611H208.711V227.723H209.655V229.611ZM209.655 225.835H208.711V223.947H209.655V225.835ZM209.655 222.059H208.711V220.171H209.655V222.059Z" fill="#719BD8"/>
<path d="M240.708 256.706H239.764V254.818H240.708V256.706ZM240.708 252.93H239.764V251.042H240.708V252.93ZM240.708 249.154H239.764V247.266H240.708V249.154ZM240.708 245.378H239.764V243.49H240.708V245.378ZM240.708 241.603H239.764V239.715H240.708V241.603ZM240.708 237.827H239.764V235.939H240.708V237.827ZM240.708 234.051H239.764V232.163H240.708V234.051Z" fill="#719BD8"/>
<path d="M256.825 257.007H255.881V255.119H256.825V257.007ZM256.825 253.231H255.881V251.343H256.825V253.231ZM256.825 249.455H255.881V247.567H256.825V249.455ZM256.825 245.679H255.881V243.791H256.825V245.679ZM256.825 241.903H255.881V240.015H256.825V241.903ZM256.825 238.127H255.881V236.239H256.825V238.127ZM256.825 234.351H255.881V232.463H256.825V234.351ZM256.825 230.575H255.881V228.687H256.825V230.575ZM256.825 226.799H255.881V224.911H256.825V226.799ZM256.825 223.023H255.881V221.135H256.825V223.023Z" fill="#719BD8"/>
<path d="M272.092 257.283H271.148V255.395H272.092V257.283ZM272.092 253.507H271.148V251.619H272.092V253.507ZM272.092 249.731H271.148V247.843H272.092V249.731ZM272.092 245.955H271.148V244.067H272.092V245.955ZM272.092 242.178H271.148V240.29H272.092V242.178ZM272.092 238.402H271.148V236.514H272.092V238.402ZM272.092 234.626H271.148V232.738H272.092V234.626ZM272.092 230.85H271.148V228.962H272.092V230.85ZM272.092 227.074H271.148V225.186H272.092V227.074ZM272.092 223.298H271.148V221.41H272.092V223.298ZM272.092 219.522H271.148V217.634H272.092V219.522ZM272.092 215.746H271.148V213.858H272.092V215.746ZM272.092 211.97H271.148V210.082H272.092V211.97ZM272.092 208.194H271.148V206.306H272.092V208.194ZM272.092 204.418H271.148V202.53H272.092V204.418ZM272.092 200.642H271.148V198.754H272.092V200.642ZM272.092 196.866H271.148V194.978H272.092V196.866ZM272.092 193.09H271.148V191.202H272.092V193.09ZM272.092 189.314H271.148V187.426H272.092V189.314ZM272.092 185.538H271.148V183.65H272.092V185.538ZM272.092 181.762H271.148V179.874H272.092V181.762ZM272.092 177.986H271.148V176.098H272.092V177.986ZM272.092 174.21H271.148V172.322H272.092V174.21ZM272.092 170.434H271.148V168.546H272.092V170.434ZM272.092 166.658H271.148V164.77H272.092V166.658ZM272.092 162.882H271.148V160.994H272.092V162.882ZM272.092 159.106H271.148V157.218H272.092V159.106ZM272.092 155.33H271.148V153.442H272.092V155.33ZM272.092 151.554H271.148V149.666H272.092V151.554Z" fill="#719BD8"/>
<path d="M288.442 258.274H287.498V257.455H288.442V258.274ZM288.442 255.567H287.498V253.679H288.442V255.567ZM288.442 251.791H287.498V249.903H288.442V251.791ZM288.442 248.015H287.498V246.127H288.442V248.015ZM288.442 244.239H287.498V242.351H288.442V244.239ZM288.442 240.462H287.498V238.574H288.442V240.462ZM288.442 236.686H287.498V234.798H288.442V236.686ZM288.442 232.91H287.498V231.022H288.442V232.91Z" fill="#719BD8"/>
<path d="M303.159 258.274H302.215V256.585H303.159V258.274ZM303.159 254.697H302.215V252.809H303.159V254.697ZM303.159 250.921H302.215V249.033H303.159V250.921ZM303.159 247.145H302.215V245.257H303.159V247.145ZM303.159 243.369H302.215V241.481H303.159V243.369ZM303.159 239.593H302.215V237.705H303.159V239.593ZM303.159 235.817H302.215V233.929H303.159V235.817ZM303.159 232.041H302.215V230.153H303.159V232.041ZM303.159 228.265H302.215V226.377H303.159V228.265ZM303.159 224.489H302.215V222.601H303.159V224.489ZM303.159 220.713H302.215V218.825H303.159V220.713ZM303.159 216.937H302.215V215.049H303.159V216.937ZM303.159 213.161H302.215V211.273H303.159V213.161ZM303.159 209.385H302.215V207.497H303.159V209.385ZM303.159 205.609H302.215V203.721H303.159V205.609ZM303.159 201.833H302.215V199.945H303.159V201.833ZM303.159 198.057H302.215V196.169H303.159V198.057ZM303.159 194.281H302.215V192.393H303.159V194.281ZM303.159 190.505H302.215V188.617H303.159V190.505ZM303.159 186.729H302.215V184.841H303.159V186.729ZM303.159 182.953H302.215V181.065H303.159V182.953Z" fill="#719BD8"/>
<path d="M225.151 258.274H224.207V257.626H225.151V258.274ZM225.151 255.737H224.207V253.849H225.151V255.737ZM225.151 251.961H224.207V250.073H225.151V251.961ZM225.151 248.185H224.207V246.297H225.151V248.185ZM225.151 244.41H224.207V242.522H225.151V244.41ZM225.151 240.634H224.207V238.746H225.151V240.634ZM225.151 236.858H224.207V234.97H225.151V236.858ZM225.151 233.082H224.207V231.194H225.151V233.082ZM225.151 229.306H224.207V227.418H225.151V229.306ZM225.151 225.53H224.207V223.642H225.151V225.53ZM225.151 221.754H224.207V219.866H225.151V221.754ZM225.151 217.978H224.207V216.09H225.151V217.978ZM225.151 214.202H224.207V212.314H225.151V214.202ZM225.151 210.426H224.207V208.538H225.151V210.426Z" fill="#719BD8"/>
<path d="M195.626 184.84C195.626 186.144 194.569 187.201 193.265 187.201C191.962 187.201 190.904 186.144 190.904 184.84C190.904 183.537 191.962 182.479 193.265 182.479C194.569 182.479 195.626 183.536 195.626 184.84Z" fill="#719BD8"/>
<path d="M258.839 221.756C258.839 223.06 257.782 224.117 256.478 224.117C255.174 224.117 254.117 223.06 254.117 221.756C254.117 220.453 255.174 219.396 256.478 219.396C257.782 219.396 258.839 220.453 258.839 221.756Z" fill="#719BD8"/>
<path d="M305.046 181.323C305.046 182.627 303.989 183.684 302.685 183.684C301.382 183.684 300.324 182.627 300.324 181.323C300.324 180.019 301.382 178.962 302.685 178.962C303.99 178.962 305.046 180.019 305.046 181.323Z" fill="#719BD8"/>
<path d="M180.464 198.211C180.464 199.514 179.407 200.571 178.103 200.571C176.799 200.571 175.742 199.514 175.742 198.211C175.742 196.907 176.799 195.85 178.103 195.85C179.407 195.851 180.464 196.907 180.464 198.211Z" fill="#719BD8"/>
<path d="M209.308 223.155C210.612 223.155 211.669 222.097 211.669 220.794C211.669 219.49 210.612 218.433 209.308 218.433C208.004 218.433 206.947 219.49 206.947 220.794C206.947 222.097 208.004 223.155 209.308 223.155Z" fill="#719BD8"/>
<path d="M227.042 209.136C227.042 210.44 225.985 211.497 224.681 211.497C223.378 211.497 222.32 210.44 222.32 209.136C222.32 207.833 223.378 206.775 224.681 206.775C225.985 206.775 227.042 207.833 227.042 209.136Z" fill="#719BD8"/>
<path d="M243.07 231.793C243.07 233.096 242.012 234.154 240.709 234.154C239.405 234.154 238.348 233.096 238.348 231.793C238.348 230.489 239.405 229.432 240.709 229.432C242.012 229.432 243.07 230.489 243.07 231.793Z" fill="#719BD8"/>
<path d="M290.329 231.793C290.329 233.096 289.272 234.154 287.968 234.154C286.665 234.154 285.607 233.096 285.607 231.793C285.607 230.489 286.665 229.432 287.968 229.432C289.272 229.432 290.329 230.489 290.329 231.793Z" fill="#719BD8"/>
<path d="M273.98 150.902C273.98 152.206 272.922 153.263 271.619 153.263C270.315 153.263 269.258 152.206 269.258 150.902C269.258 149.598 270.315 148.541 271.619 148.541C272.922 148.541 273.98 149.598 273.98 150.902Z" fill="#719BD8"/>
<path d="M341.868 122.277C341.868 118.068 338.456 114.655 334.246 114.655H149.272C145.063 114.655 141.65 118.068 141.65 122.277V130.979H341.868V122.277Z" fill="#0054A6"/>
<path opacity="0.5" d="M154.058 122.778C154.058 124.254 152.861 125.451 151.384 125.451C149.908 125.451 148.711 124.254 148.711 122.778C148.711 121.301 149.908 120.104 151.384 120.104C152.861 120.104 154.058 121.301 154.058 122.778Z" fill="#F9FAFB"/>
<path opacity="0.5" d="M162.745 122.778C162.745 124.254 161.548 125.451 160.072 125.451C158.595 125.451 157.398 124.254 157.398 122.778C157.398 121.301 158.595 120.104 160.072 120.104C161.547 120.104 162.745 121.301 162.745 122.778Z" fill="#F9FAFB"/>
<path opacity="0.5" d="M170.911 122.778C170.911 124.254 169.714 125.451 168.238 125.451C166.761 125.451 165.564 124.254 165.564 122.778C165.564 121.301 166.761 120.104 168.238 120.104C169.713 120.104 170.911 121.301 170.911 122.778Z" fill="#F9FAFB"/>
<path opacity="0.5" d="M330.756 392.334H239.405C234.376 392.334 230.299 388.257 230.299 383.228V308.206C230.299 303.177 234.375 299.1 239.405 299.1H330.756C335.785 299.1 339.862 303.177 339.862 308.206V383.228C339.862 388.258 335.785 392.334 330.756 392.334Z" fill="#719BD8"/>
<path d="M337.48 384.501H246.127C241.099 384.501 237.021 380.424 237.021 375.395V300.373C237.021 295.344 241.098 291.267 246.127 291.267H337.479C342.508 291.267 346.585 295.344 346.585 300.373V375.395C346.585 380.424 342.509 384.501 337.48 384.501Z" fill="#F9FAFB"/>
<path d="M346.585 300.372C346.585 295.344 342.508 291.267 337.479 291.267H246.127C241.099 291.267 237.021 295.344 237.021 300.372V304.129H346.585V300.372Z" fill="#0054A6"/>
<path opacity="0.5" d="M248.296 297.449C248.296 298.769 247.227 299.838 245.907 299.838C244.587 299.838 243.518 298.769 243.518 297.449C243.518 296.129 244.587 295.06 245.907 295.06C247.227 295.06 248.296 296.129 248.296 297.449Z" fill="#F9FAFB"/>
<path opacity="0.5" d="M256.062 297.449C256.062 298.769 254.992 299.838 253.672 299.838C252.353 299.838 251.283 298.769 251.283 297.449C251.283 296.129 252.353 295.06 253.672 295.06C254.992 295.06 256.062 296.129 256.062 297.449Z" fill="#F9FAFB"/>
<path opacity="0.5" d="M263.359 297.449C263.359 298.769 262.289 299.838 260.969 299.838C259.65 299.838 258.58 298.769 258.58 297.449C258.58 296.129 259.65 295.06 260.969 295.06C262.289 295.06 263.359 296.129 263.359 297.449Z" fill="#F9FAFB"/>
<path d="M291.807 346.679L301.898 372.232C312.077 368.208 319.281 358.288 319.281 346.679C319.281 340.216 317.044 334.28 313.31 329.588L291.807 346.679Z" fill="#0054A6"/>
<path d="M304.465 322.295C300.676 320.324 296.373 319.204 291.807 319.204V346.678L304.465 322.295Z" fill="#0054A6"/>
<path d="M313.31 329.588C310.915 326.578 307.904 324.085 304.465 322.295L291.807 346.678L313.31 329.588Z" fill="#0054A6"/>
<path d="M291.806 319.204C276.632 319.204 264.332 331.504 264.332 346.678C264.332 361.852 276.632 374.152 291.806 374.152C295.371 374.152 298.773 373.466 301.898 372.231L291.806 346.678V319.204Z" fill="#80B6DD"/>
<path opacity="0.8" d="M291.807 346.679L301.898 372.232C312.077 368.208 319.281 358.288 319.281 346.679C319.281 340.216 317.044 334.28 313.31 329.588L291.807 346.679Z" fill="#80B6DD"/>
<path opacity="0.5" d="M304.465 322.295C300.676 320.324 296.373 319.204 291.807 319.204V346.678L313.311 329.588C310.915 326.578 307.904 324.085 304.465 322.295Z" fill="#80B6DD"/>
<path opacity="0.5" d="M205.394 393.847H111.758C106.729 393.847 102.652 389.77 102.652 384.741V307.775C102.652 302.747 106.729 298.669 111.758 298.669H205.394C210.423 298.669 214.5 302.746 214.5 307.775V384.741C214.5 389.77 210.423 393.847 205.394 393.847Z" fill="#719BD8"/>
<path d="M211.369 385.304H117.733C112.704 385.304 108.627 381.227 108.627 376.198V299.232C108.627 294.204 112.703 290.126 117.733 290.126H211.369C216.398 290.126 220.475 294.204 220.475 299.232V376.198C220.474 381.228 216.398 385.304 211.369 385.304Z" fill="#F9FAFB"/>
<path d="M220.473 299.422C220.473 294.289 216.311 290.126 211.177 290.126H117.921C112.787 290.126 108.625 294.289 108.625 299.422V303.257H220.472L220.473 299.422Z" fill="#0054A6"/>
<path opacity="0.5" d="M120.138 296.438C120.138 297.785 119.046 298.877 117.699 298.877C116.352 298.877 115.26 297.785 115.26 296.438C115.26 295.091 116.352 293.999 117.699 293.999C119.046 293.999 120.138 295.091 120.138 296.438Z" fill="#F9FAFB"/>
<path opacity="0.5" d="M128.064 296.438C128.064 297.785 126.972 298.877 125.625 298.877C124.278 298.877 123.186 297.785 123.186 296.438C123.186 295.091 124.278 293.999 125.625 293.999C126.972 293.999 128.064 295.091 128.064 296.438Z" fill="#F9FAFB"/>
<path opacity="0.5" d="M135.515 296.438C135.515 297.785 134.423 298.877 133.076 298.877C131.729 298.877 130.637 297.785 130.637 296.438C130.637 295.091 131.729 293.999 133.076 293.999C134.423 293.999 135.515 295.091 135.515 296.438Z" fill="#F9FAFB"/>
<path d="M170.042 316.74H161.043V375.778H170.042V316.74Z" fill="#80B6DD"/>
<path d="M140.482 316.74H131.482V375.778H140.482V316.74Z" fill="#80B6DD"/>
<path d="M185.847 336.58H176.848V375.777H185.847V336.58Z" fill="#80B6DD"/>
<path d="M153.841 341.252H144.842V375.777H153.841V341.252Z" fill="#80B6DD"/>
<path d="M201.333 328.593H192.334V375.777H201.333V328.593Z" fill="#80B6DD"/>
<path d="M125.502 306.727V375.777H207.516" stroke="#719BD8" stroke-width="1.888" stroke-miterlimit="10" stroke-linecap="round" stroke-linejoin="round"/>
<path opacity="0.5" d="M269.26 98.9639C287.015 98.9639 301.407 84.5712 301.407 66.8169C301.407 49.0626 287.015 34.6699 269.26 34.6699C251.506 34.6699 237.113 49.0626 237.113 66.8169C237.113 84.5712 251.506 98.9639 269.26 98.9639Z" fill="#719BD8"/>
<path d="M273.191 90.9571C289.741 90.9571 303.157 77.5407 303.157 60.9907C303.157 44.4408 289.741 31.0244 273.191 31.0244C256.641 31.0244 243.225 44.4408 243.225 60.9907C243.225 77.5407 256.641 90.9571 273.191 90.9571Z" fill="#0054A6"/>
<path d="M273.192 86.6552C287.366 86.6552 298.856 75.1648 298.856 60.9907C298.856 46.8166 287.366 35.3262 273.192 35.3262C259.018 35.3262 247.527 46.8166 247.527 60.9907C247.527 75.1648 259.018 86.6552 273.192 86.6552Z" fill="white"/>
<path d="M290.079 65.017C292.298 55.6946 286.54 46.3381 277.218 44.1186C267.895 41.8992 258.539 47.6573 256.319 56.9797C254.1 66.3021 259.858 75.6586 269.18 77.878C278.503 80.0975 287.859 74.3394 290.079 65.017Z" fill="#719BD8"/>
<path d="M273.193 70.3166C278.343 70.3166 282.519 66.1413 282.519 60.9908C282.519 55.8403 278.343 51.665 273.193 51.665C268.042 51.665 263.867 55.8403 263.867 60.9908C263.867 66.1413 268.042 70.3166 273.193 70.3166Z" fill="white"/>
<path d="M278.006 60.9912C278.006 63.6504 275.851 65.8056 273.191 65.8056C270.532 65.8056 268.377 63.6504 268.377 60.9912C268.377 58.3319 270.532 56.1768 273.191 56.1768C275.851 56.1768 278.006 58.3329 278.006 60.9912Z" fill="#719BD8"/>
<path d="M273.191 60.9913L311.683 29.7959" stroke="#0054A6" stroke-width="1.888" stroke-miterlimit="10" stroke-linecap="round" stroke-linejoin="round"/>
<path d="M316.439 35.2406L306.928 33.8623L308.306 24.3506" stroke="#0054A6" stroke-width="1.888" stroke-miterlimit="10" stroke-linecap="round" stroke-linejoin="round"/>
<path d="M310.442 39.8998L300.932 38.5215L302.31 29.0098" stroke="#0054A6" stroke-width="1.888" stroke-miterlimit="10" stroke-linecap="round" stroke-linejoin="round"/>
<path d="M51.4461 40.0559H48.6613C48.3658 40.0559 48.127 39.8161 48.127 39.5216C48.127 39.2261 48.3667 38.9873 48.6613 38.9873H51.4461C51.7415 38.9873 51.9804 39.2271 51.9804 39.5216C51.9804 39.8171 51.7406 40.0559 51.4461 40.0559Z" fill="white"/>
<path d="M45.6268 40.0559H42.8429C42.5474 40.0559 42.3086 39.8161 42.3086 39.5216C42.3086 39.2261 42.5484 38.9873 42.8429 38.9873H45.6268C45.9222 38.9873 46.1611 39.2271 46.1611 39.5216C46.1611 39.8171 45.9213 40.0559 45.6268 40.0559Z" fill="white"/>
<path d="M47.1456 44.3573C46.8502 44.3573 46.6113 44.1175 46.6113 43.823V41.0382C46.6113 40.7427 46.8511 40.5039 47.1456 40.5039C47.4411 40.5039 47.6799 40.7437 47.6799 41.0382V43.823C47.6799 44.1185 47.4402 44.3573 47.1456 44.3573Z" fill="white"/>
<path d="M47.1456 38.5399C46.8502 38.5399 46.6113 38.3002 46.6113 38.0056V35.2208C46.6113 34.9254 46.8511 34.6865 47.1456 34.6865C47.4411 34.6865 47.6799 34.9263 47.6799 35.2208V38.0047C47.6799 38.3002 47.4402 38.5399 47.1456 38.5399Z" fill="white"/>
<path d="M449.593 247.431H446.808C446.512 247.431 446.273 247.191 446.273 246.897C446.273 246.601 446.513 246.362 446.808 246.362H449.593C449.888 246.362 450.127 246.602 450.127 246.897C450.128 247.192 449.888 247.431 449.593 247.431Z" fill="white"/>
<path d="M443.773 247.431H440.989C440.694 247.431 440.455 247.191 440.455 246.897C440.455 246.601 440.695 246.362 440.989 246.362H443.773C444.069 246.362 444.308 246.602 444.308 246.897C444.308 247.192 444.069 247.431 443.773 247.431Z" fill="white"/>
<path d="M445.292 251.732C444.997 251.732 444.758 251.493 444.758 251.198V248.413C444.758 248.118 444.998 247.879 445.292 247.879C445.588 247.879 445.826 248.119 445.826 248.413V251.198C445.826 251.493 445.588 251.732 445.292 251.732Z" fill="white"/>
<path d="M445.292 245.915C444.997 245.915 444.758 245.675 444.758 245.381V242.597C444.758 242.301 444.998 242.062 445.292 242.062C445.588 242.062 445.826 242.302 445.826 242.597V245.381C445.826 245.675 445.588 245.915 445.292 245.915Z" fill="white"/>
<path d="M229.927 77.1077H227.142C226.846 77.1077 226.607 76.8679 226.607 76.5734C226.607 76.2779 226.847 76.0391 227.142 76.0391H229.927C230.222 76.0391 230.461 76.2788 230.461 76.5734C230.462 76.8679 230.222 77.1077 229.927 77.1077Z" fill="white"/>
<path d="M224.107 77.1077H221.323C221.028 77.1077 220.789 76.8679 220.789 76.5734C220.789 76.2779 221.029 76.0391 221.323 76.0391H224.107C224.403 76.0391 224.642 76.2788 224.642 76.5734C224.642 76.8679 224.403 77.1077 224.107 77.1077Z" fill="white"/>
<path d="M225.626 81.4091C225.331 81.4091 225.092 81.1693 225.092 80.8748V78.09C225.092 77.7945 225.332 77.5557 225.626 77.5557C225.922 77.5557 226.16 77.7954 226.16 78.09V80.8748C226.161 81.1693 225.922 81.4091 225.626 81.4091Z" fill="white"/>
<path d="M225.626 75.5907C225.331 75.5907 225.092 75.351 225.092 75.0564V72.2726C225.092 71.9771 225.332 71.7383 225.626 71.7383C225.922 71.7383 226.16 71.9781 226.16 72.2726V75.0564C226.161 75.351 225.922 75.5907 225.626 75.5907Z" fill="white"/>
<path d="M450.126 338.468H447.341C447.045 338.468 446.807 338.229 446.807 337.934C446.807 337.639 447.046 337.4 447.341 337.4H450.126C450.421 337.4 450.66 337.64 450.66 337.934C450.66 338.23 450.42 338.468 450.126 338.468Z" fill="white"/>
<path d="M444.306 338.468H441.523C441.227 338.468 440.988 338.229 440.988 337.934C440.988 337.639 441.228 337.4 441.523 337.4H444.306C444.602 337.4 444.841 337.64 444.841 337.934C444.841 338.23 444.601 338.468 444.306 338.468Z" fill="white"/>
<path d="M445.823 342.77C445.528 342.77 445.289 342.531 445.289 342.236V339.451C445.289 339.156 445.529 338.917 445.823 338.917C446.119 338.917 446.358 339.157 446.358 339.451V342.236C446.359 342.531 446.119 342.77 445.823 342.77Z" fill="white"/>
<path d="M445.823 336.953C445.528 336.953 445.289 336.713 445.289 336.418V333.634C445.289 333.339 445.529 333.1 445.823 333.1C446.119 333.1 446.358 333.34 446.358 333.634V336.418C446.359 336.713 446.119 336.953 445.823 336.953Z" fill="white"/>
<path d="M39.2957 228.799H36.5109C36.2154 228.799 35.9766 228.559 35.9766 228.265C35.9766 227.969 36.2163 227.73 36.5109 227.73H39.2957C39.5911 227.73 39.83 227.97 39.83 228.265C39.83 228.559 39.5911 228.799 39.2957 228.799Z" fill="white"/>
<path d="M33.4764 228.799H30.6925C30.397 228.799 30.1582 228.559 30.1582 228.265C30.1582 227.969 30.398 227.73 30.6925 227.73H33.4764C33.7718 227.73 34.0107 227.97 34.0107 228.265C34.0107 228.559 33.7718 228.799 33.4764 228.799Z" fill="white"/>
<path d="M34.9952 233.1C34.6998 233.1 34.4609 232.861 34.4609 232.566V229.781C34.4609 229.486 34.7007 229.247 34.9952 229.247C35.2907 229.247 35.5295 229.487 35.5295 229.781V232.566C35.5295 232.861 35.2898 233.1 34.9952 233.1Z" fill="white"/>
<path d="M34.9952 227.282C34.6998 227.282 34.4609 227.042 34.4609 226.748V223.964C34.4609 223.669 34.7007 223.43 34.9952 223.43C35.2907 223.43 35.5295 223.669 35.5295 223.964V226.748C35.5295 227.043 35.2898 227.282 34.9952 227.282Z" fill="white"/>
<path d="M60.5066 361.205H57.7218C57.4263 361.205 57.1875 360.966 57.1875 360.671C57.1875 360.376 57.4273 360.137 57.7218 360.137H60.5066C60.8021 360.137 61.0409 360.376 61.0409 360.671C61.0409 360.966 60.8011 361.205 60.5066 361.205Z" fill="white"/>
<path d="M54.6873 361.205H51.9034C51.608 361.205 51.3691 360.966 51.3691 360.671C51.3691 360.376 51.6089 360.137 51.9034 360.137H54.6873C54.9828 360.137 55.2216 360.376 55.2216 360.671C55.2216 360.966 54.9828 361.205 54.6873 361.205Z" fill="white"/>
<path d="M56.2062 365.506C55.9107 365.506 55.6719 365.266 55.6719 364.972V362.187C55.6719 361.892 55.9117 361.653 56.2062 361.653C56.5017 361.653 56.7405 361.893 56.7405 362.187V364.972C56.7405 365.267 56.5007 365.506 56.2062 365.506Z" fill="white"/>
<path d="M56.2062 359.688C55.9107 359.688 55.6719 359.449 55.6719 359.154V356.37C55.6719 356.075 55.9117 355.836 56.2062 355.836C56.5017 355.836 56.7405 356.076 56.7405 356.37V359.154C56.7405 359.45 56.5007 359.688 56.2062 359.688Z" fill="white"/>
<path d="M50.8346 181.678C48.7984 181.678 47.1426 180.021 47.1426 177.986C47.1426 175.95 48.7993 174.293 50.8346 174.293C52.8708 174.293 54.5275 175.95 54.5275 177.986C54.5265 180.021 52.8708 181.678 50.8346 181.678ZM50.8346 175.227C49.3138 175.227 48.0762 176.464 48.0762 177.985C48.0762 179.506 49.3138 180.743 50.8346 180.743C52.3553 180.743 53.5929 179.506 53.5929 177.985C53.5929 176.464 52.3553 175.227 50.8346 175.227Z" fill="white"/>
<path d="M34.9967 94.6505C32.9605 94.6505 31.3047 92.9938 31.3047 90.9586C31.3047 88.9223 32.9614 87.2656 34.9967 87.2656C37.0329 87.2656 38.6896 88.9223 38.6896 90.9586C38.6887 92.9938 37.0329 94.6505 34.9967 94.6505ZM34.9967 88.1992C33.4759 88.1992 32.2383 89.4368 32.2383 90.9576C32.2383 92.4784 33.4759 93.716 34.9967 93.716C36.5175 93.716 37.755 92.4784 37.755 90.9576C37.755 89.4368 36.5175 88.1992 34.9967 88.1992Z" fill="white"/>
<path d="M416.837 42.0783C414.8 42.0783 413.145 40.4216 413.145 38.3863C413.145 36.3501 414.801 34.6934 416.837 34.6934C418.873 34.6934 420.529 36.3501 420.529 38.3863C420.528 40.4216 418.873 42.0783 416.837 42.0783ZM416.837 35.6279C415.316 35.6279 414.078 36.8655 414.078 38.3863C414.078 39.9071 415.316 41.1447 416.837 41.1447C418.357 41.1447 419.595 39.9071 419.595 38.3863C419.595 36.8646 418.357 35.6279 416.837 35.6279Z" fill="white"/>
<path d="M32.0846 293.82C30.0484 293.82 28.3926 292.163 28.3926 290.128C28.3926 288.092 30.0493 286.436 32.0846 286.436C34.1208 286.436 35.7765 288.093 35.7765 290.128C35.7775 292.163 34.1208 293.82 32.0846 293.82ZM32.0846 287.37C30.5638 287.37 29.3262 288.607 29.3262 290.128C29.3262 291.649 30.5638 292.886 32.0846 292.886C33.6053 292.886 34.8429 291.649 34.8429 290.128C34.8429 288.606 33.6063 287.37 32.0846 287.37Z" fill="white"/>
<path d="M436.913 385.61C434.876 385.61 433.221 383.953 433.221 381.918C433.221 379.881 434.877 378.226 436.913 378.226C438.949 378.226 440.606 379.882 440.606 381.918C440.606 383.953 438.949 385.61 436.913 385.61ZM436.913 379.158C435.392 379.158 434.154 380.396 434.154 381.917C434.154 383.437 435.392 384.675 436.913 384.675C438.433 384.675 439.671 383.437 439.671 381.917C439.672 380.396 438.434 379.158 436.913 379.158Z" fill="white"/>
<path d="M442.532 150.135C440.496 150.135 438.84 148.478 438.84 146.443C438.84 144.407 440.497 142.75 442.532 142.75C444.568 142.75 446.225 144.407 446.225 146.443C446.225 148.478 444.568 150.135 442.532 150.135ZM442.532 143.684C441.011 143.684 439.773 144.921 439.773 146.442C439.773 147.963 441.011 149.2 442.532 149.2C444.053 149.2 445.29 147.963 445.29 146.442C445.29 144.921 444.053 143.684 442.532 143.684Z" fill="white"/>
<path d="M99.197 31.9345C99.197 32.5622 98.6882 33.0701 98.0614 33.0701C97.4336 33.0701 96.9258 32.5613 96.9258 31.9345C96.9258 31.3067 97.4346 30.7988 98.0614 30.7988C98.6892 30.7988 99.197 31.3076 99.197 31.9345Z" fill="white"/>
<path d="M32.7224 324.546C32.7224 325.174 32.2136 325.682 31.5868 325.682C30.96 325.682 30.4512 325.173 30.4512 324.546C30.4512 323.919 30.96 323.411 31.5868 323.411C32.2136 323.411 32.7224 323.919 32.7224 324.546Z" fill="white"/>
<path d="M29.5291 381.917C29.5291 382.544 29.0203 383.053 28.3934 383.053C27.7657 383.053 27.2578 382.544 27.2578 381.917C27.2578 381.289 27.7666 380.781 28.3934 380.781C29.0212 380.781 29.5291 381.29 29.5291 381.917Z" fill="white"/>
<path d="M432.23 293.903C432.23 294.53 431.721 295.038 431.095 295.038C430.467 295.038 429.959 294.53 429.959 293.903C429.959 293.276 430.468 292.767 431.095 292.767C431.721 292.767 432.23 293.276 432.23 293.903Z" fill="white"/>
<path d="M450.234 195.85C450.234 196.478 449.725 196.986 449.099 196.986C448.471 196.986 447.963 196.477 447.963 195.85C447.963 195.223 448.472 194.715 449.099 194.715C449.725 194.714 450.234 195.223 450.234 195.85Z" fill="white"/>
<path d="M21.9295 128.363C21.9295 128.991 21.4207 129.499 20.7938 129.499C20.167 129.499 19.6582 128.99 19.6582 128.363C19.6582 127.736 20.167 127.228 20.7938 127.228C21.4207 127.228 21.9295 127.736 21.9295 128.363Z" fill="white"/>
<path d="M394.027 56.1776C394.027 56.8054 393.518 57.3133 392.891 57.3133C392.265 57.3133 391.756 56.8044 391.756 56.1776C391.756 55.5499 392.265 55.042 392.891 55.042C393.518 55.042 394.027 55.5508 394.027 56.1776Z" fill="white"/>
<path d="M235.684 34.2068C236.312 34.2068 236.82 33.6984 236.82 33.0712C236.82 32.444 236.312 31.9355 235.684 31.9355C235.057 31.9355 234.549 32.444 234.549 33.0712C234.549 33.6984 235.057 34.2068 235.684 34.2068Z" fill="white"/>
<path d="M451.371 39.5214C451.371 40.1482 450.862 40.657 450.235 40.657C449.607 40.657 449.1 40.1482 449.1 39.5214C449.1 38.8936 449.608 38.3857 450.235 38.3857C450.862 38.3857 451.371 38.8936 451.371 39.5214Z" fill="white"/>
<path d="M319.658 75.4364C319.658 76.0642 319.149 76.572 318.522 76.572C317.895 76.572 317.387 76.0632 317.387 75.4364C317.387 74.8087 317.896 74.3008 318.522 74.3008C319.149 74.3008 319.658 74.8087 319.658 75.4364Z" fill="white"/>
<path d="M147.748 38.3856C147.748 39.0134 147.239 39.5213 146.612 39.5213C145.984 39.5213 145.477 39.0124 145.477 38.3856C145.477 37.7579 145.985 37.25 146.612 37.25C147.24 37.2491 147.748 37.7579 147.748 38.3856Z" fill="white"/>
<path d="M450.234 75.4364C450.234 76.0642 449.725 76.572 449.099 76.572C448.471 76.572 447.963 76.0632 447.963 75.4364C447.963 74.8087 448.472 74.3008 449.099 74.3008C449.725 74.3008 450.234 74.8087 450.234 75.4364Z" fill="white"/>
<path d="M27.7536 357.395L19.2042 355.616C19.146 355.154 19.0991 354.69 19.0624 354.213C18.9873 353.102 18.9713 352.004 19.0173 350.915L27.3864 348.463C27.4841 347.944 27.6043 347.438 27.7357 346.934L21.2232 341.13C21.8383 339.677 22.5661 338.28 23.4075 336.961L31.8958 339.02C32.2358 338.624 32.587 338.246 32.9561 337.876L30.2214 329.591C31.4695 328.646 32.7983 327.798 34.1984 327.071L40.5184 333.089C41.0096 332.918 41.5082 332.763 42.0125 332.628L43.7892 324.086C44.2559 324.032 44.7245 323.985 45.1988 323.949C46.3106 323.865 47.4103 323.858 48.4987 323.901L50.96 332.264C51.4746 332.358 51.9845 332.477 52.4822 332.611L58.2951 326.102C59.7497 326.719 61.1461 327.451 62.4702 328.287L60.409 336.768C60.8062 337.104 61.1846 337.46 61.5546 337.825L69.8476 335.093C70.7951 336.341 71.6384 337.668 72.3709 339.065L66.342 345.381C66.5167 345.87 66.6707 346.367 66.8078 346.872L75.3562 348.647C75.4135 349.111 75.4605 349.581 75.4943 350.05C75.576 351.164 75.5872 352.262 75.5422 353.352L67.1684 355.807C67.0745 356.32 66.9571 356.828 66.8219 357.329L73.3381 363.136C72.7202 364.588 71.9915 365.986 71.1501 367.305L62.6637 365.247C62.3247 365.641 61.9697 366.02 61.6034 366.39L64.3362 374.675C63.09 375.617 61.7612 376.463 60.362 377.198L54.0402 371.172C53.55 371.348 53.0541 371.5 52.5461 371.637L50.7694 380.174C50.3045 380.232 49.8369 380.282 49.3607 380.315C48.2498 380.4 47.1473 380.406 46.0571 380.361L43.5976 372.002C43.083 371.905 42.5787 371.787 42.0745 371.655L36.2635 378.162C34.807 377.544 33.4134 376.815 32.0874 375.974L34.1515 367.494C33.7543 367.159 33.3749 366.803 33.0077 366.437L24.7119 369.172C23.7653 367.926 22.922 366.596 22.1867 365.199L28.2175 358.883C28.0466 358.396 27.8888 357.899 27.7536 357.395ZM48.5015 368.644C57.633 367.972 64.4874 360.037 63.8103 350.911C63.1379 341.797 55.1887 334.945 46.0637 335.62C36.9274 336.291 30.075 344.23 30.7455 353.347C31.4225 362.474 39.3699 369.32 48.5015 368.644Z" fill="#FFDD33"/>
<path d="M77.3532 388.237L80.2568 383.336C80.0718 383.049 79.8944 382.755 79.7366 382.458L74.0392 382.584C73.6861 381.615 73.4128 380.625 73.2307 379.617L78.1993 376.825C78.1843 376.487 78.1796 376.146 78.1899 375.807L73.1903 373.068C73.365 372.062 73.6251 371.068 73.965 370.094L79.6671 370.156C79.8192 369.856 79.992 369.559 80.1742 369.27L77.2142 364.407C77.5457 364.015 77.8857 363.635 78.2491 363.264C78.6134 362.895 78.9938 362.55 79.3816 362.217L84.2855 365.12C84.5766 364.933 84.8658 364.761 85.1644 364.599L85.0348 358.905C86.0068 358.552 87.0022 358.284 88.0061 358.098L90.8064 363.061C91.1454 363.046 91.4844 363.044 91.8234 363.057L94.5617 358.059C95.5703 358.235 96.5676 358.493 97.5424 358.834L97.4804 364.529C97.7828 364.685 98.0758 364.855 98.3669 365.039L103.238 362.081C103.626 362.409 104.01 362.75 104.378 363.113C104.749 363.479 105.093 363.858 105.426 364.246L102.522 369.144C102.708 369.432 102.883 369.724 103.042 370.022L108.741 369.894C109.096 370.865 109.364 371.857 109.55 372.861L104.579 375.655C104.598 375.994 104.598 376.335 104.587 376.674L109.588 379.411C109.415 380.418 109.156 381.414 108.812 382.385L103.113 382.326C102.957 382.624 102.785 382.92 102.605 383.209L105.563 388.074C105.233 388.464 104.893 388.848 104.529 389.216C104.165 389.585 103.783 389.929 103.397 390.261L98.4927 387.362C98.2025 387.547 97.9124 387.722 97.6119 387.882L97.7396 393.576C96.7686 393.928 95.7779 394.198 94.7721 394.383L91.9718 389.42C91.6347 389.433 91.2957 389.436 90.9557 389.427L88.2136 394.42C87.2051 394.246 86.2115 393.989 85.2349 393.647L85.2959 387.954C85.0001 387.796 84.7033 387.625 84.4104 387.444L79.5403 390.398C79.1525 390.073 78.7675 389.732 78.3993 389.367C78.0331 389.003 77.6847 388.623 77.3532 388.237ZM86.3683 381.319C89.1724 384.089 93.6978 384.064 96.4747 381.259C99.2487 378.455 99.2243 373.933 96.4136 371.161C93.6067 368.389 89.0822 368.416 86.3073 371.22C83.5314 374.026 83.5577 378.544 86.3683 381.319Z" fill="#002548"/>
<path d="M184.694 36.7306V35.5783L193.97 30.8539V32.6976L186.854 36.1257L186.912 36.0104V36.2985L186.854 36.1833L193.97 39.6114V41.4551L184.694 36.7306ZM213.042 36.7306L203.766 41.4551V39.6114L210.882 36.1833L210.824 36.2985V36.0104L210.882 36.1257L203.766 32.6976V30.8539L213.042 35.5783V36.7306Z" fill="#0054A6"/>
<path d="M343.774 50.0371V39.0524H350.403V40.2324H345.104V43.944H350.06V45.124H345.104V48.8571H350.489V50.0371H343.774ZM352.801 50.0371V39.0524H356.512C357.37 39.0524 358.075 39.199 358.625 39.4922C359.176 39.7818 359.584 40.1805 359.848 40.6883C360.113 41.196 360.245 41.7735 360.245 42.4207C360.245 43.068 360.113 43.6419 359.848 44.1425C359.584 44.6431 359.178 45.0364 358.631 45.3225C358.084 45.605 357.385 45.7462 356.534 45.7462H353.53V44.5447H356.491C357.077 44.5447 357.549 44.4589 357.907 44.2873C358.268 44.1157 358.529 43.8725 358.69 43.5578C358.854 43.2396 358.937 42.8606 358.937 42.4207C358.937 41.9809 358.854 41.5965 358.69 41.2676C358.525 40.9386 358.263 40.6847 357.901 40.5059C357.54 40.3236 357.063 40.2324 356.469 40.2324H354.131V50.0371H352.801ZM357.971 45.1026L360.674 50.0371H359.13L356.469 45.1026H357.971ZM362.462 50.0371V39.0524H366.173C367.035 39.0524 367.74 39.2079 368.287 39.519C368.837 39.8265 369.245 40.2431 369.51 40.7687C369.774 41.2944 369.907 41.8808 369.907 42.528C369.907 43.1752 369.774 43.7634 369.51 44.2927C369.249 44.8219 368.845 45.2438 368.297 45.5585C367.75 45.8696 367.049 46.0251 366.195 46.0251H363.535V44.8451H366.152C366.742 44.8451 367.216 44.7432 367.573 44.5394C367.931 44.3356 368.19 44.0602 368.351 43.7134C368.516 43.363 368.598 42.9678 368.598 42.528C368.598 42.0882 368.516 41.6949 368.351 41.348C368.19 41.0012 367.929 40.7294 367.568 40.5327C367.207 40.3325 366.728 40.2324 366.131 40.2324H363.792V50.0371H362.462Z" fill="#0054A6"/>
</g>
<defs>
<clipPath id="clip0_18100_7189">
<rect width="472" height="394" fill="white"/>
</clipPath>
</defs>
</svg>
