<svg width="40" height="40" viewBox="0 0 40 40" fill="none" xmlns="http://www.w3.org/2000/svg">
<g clip-path="url(#clip0_14405_62066)">
<path opacity="0.995" fill-rule="evenodd" clip-rule="evenodd" d="M4.72656 -0.0390625C14.8828 -0.0390625 25.0391 -0.0390625 35.1953 -0.0390625C35.3755 0.0763588 35.5188 0.232609 35.625 0.429688C35.6771 1.3151 35.6771 2.20052 35.625 3.08594C35.5599 3.35938 35.3906 3.52865 35.1172 3.59375C33.2684 3.63281 31.4195 3.64583 29.5703 3.63281C29.2578 3.63281 28.9453 3.63281 28.6328 3.63281C22.8516 3.63281 17.0703 3.63281 11.2891 3.63281C10.9766 3.63281 10.6641 3.63281 10.3516 3.63281C8.50242 3.64583 6.65346 3.63281 4.80469 3.59375C4.53125 3.52865 4.36198 3.35938 4.29688 3.08594C4.24479 2.20052 4.24479 1.3151 4.29688 0.429688C4.4031 0.232609 4.54633 0.0763588 4.72656 -0.0390625Z" fill="#6261F4"/>
<path opacity="0.912" fill-rule="evenodd" clip-rule="evenodd" d="M10.3516 3.63281C10.6641 3.63281 10.9766 3.63281 11.2891 3.63281C11.2891 4.46615 11.2891 5.29948 11.2891 6.13281C10.9766 6.13281 10.6641 6.13281 10.3516 6.13281C10.3516 5.29948 10.3516 4.46615 10.3516 3.63281Z" fill="#AC9EF8"/>
<path opacity="0.912" fill-rule="evenodd" clip-rule="evenodd" d="M28.6328 3.63281C28.9453 3.63281 29.2578 3.63281 29.5703 3.63281C29.5703 4.46615 29.5703 5.29948 29.5703 6.13281C29.2578 6.13281 28.9453 6.13281 28.6328 6.13281C28.6328 5.29948 28.6328 4.46615 28.6328 3.63281Z" fill="#AC9EF8"/>
<path opacity="0.995" fill-rule="evenodd" clip-rule="evenodd" d="M10.3516 6.13281C10.6641 6.13281 10.9766 6.13281 11.2891 6.13281C11.3412 6.13281 11.3932 6.13281 11.4453 6.13281C10.7679 8.55554 10.0908 10.9774 9.41406 13.3984C9.41406 13.5547 9.41406 13.7109 9.41406 13.8672C9.38805 13.8672 9.36195 13.8672 9.33594 13.8672C9.33594 13.7109 9.33594 13.5547 9.33594 13.3984C6.96558 13.4098 4.59578 13.3837 2.22656 13.3203C3.16474 11.1448 4.1413 8.98328 5.15625 6.83593C5.38976 6.52417 5.68923 6.30281 6.05469 6.17187C7.48674 6.13282 8.91906 6.11979 10.3516 6.13281Z" fill="#FECF84"/>
<path fill-rule="evenodd" clip-rule="evenodd" d="M11.4453 6.13281C13.4245 6.13281 15.4037 6.13281 17.3828 6.13281C17.0384 8.54992 16.7259 10.9718 16.4453 13.3984C16.4453 13.5547 16.4453 13.7109 16.4453 13.8672C16.4193 13.8672 16.3932 13.8672 16.3672 13.8672C16.3672 13.7109 16.3672 13.5547 16.3672 13.3984C14.0495 13.3984 11.7318 13.3984 9.41406 13.3984C10.0908 10.9774 10.7679 8.55555 11.4453 6.13281Z" fill="#F661A6"/>
<path fill-rule="evenodd" clip-rule="evenodd" d="M17.3828 6.13281C19.1016 6.13281 20.8203 6.13281 22.5391 6.13281C22.8807 8.55023 23.1932 10.9721 23.4766 13.3984C21.1328 13.3984 18.7891 13.3984 16.4453 13.3984C16.7259 10.9718 17.0384 8.54992 17.3828 6.13281Z" fill="#FECF84"/>
<path fill-rule="evenodd" clip-rule="evenodd" d="M22.5391 6.13281C24.5182 6.13281 26.4974 6.13281 28.4766 6.13281C29.154 8.55555 29.8311 10.9774 30.5078 13.3984C28.1901 13.3984 25.8724 13.3984 23.5547 13.3984C23.5547 13.5547 23.5547 13.7109 23.5547 13.8672C23.5287 13.8672 23.5026 13.8672 23.4766 13.8672C23.4766 13.7109 23.4766 13.5547 23.4766 13.3984C23.1932 10.9721 22.8807 8.55023 22.5391 6.13281Z" fill="#F661A6"/>
<path opacity="0.995" fill-rule="evenodd" clip-rule="evenodd" d="M28.4766 6.13281C28.5287 6.13281 28.5807 6.13281 28.6328 6.13281C28.9453 6.13281 29.2578 6.13281 29.5703 6.13281C31.0028 6.11979 32.4352 6.13282 33.8672 6.17187C34.3145 6.35879 34.6661 6.65826 34.9219 7.07031C35.8393 9.15922 36.7638 11.2425 37.6953 13.3203C35.3261 13.3837 32.9563 13.4098 30.5859 13.3984C30.5859 13.5547 30.5859 13.7109 30.5859 13.8672C30.5599 13.8672 30.5338 13.8672 30.5078 13.8672C30.5078 13.7109 30.5078 13.5547 30.5078 13.3984C29.8311 10.9774 29.154 8.55554 28.4766 6.13281Z" fill="#FECF84"/>
<path opacity="0.995" fill-rule="evenodd" clip-rule="evenodd" d="M2.22614 13.3203C4.59536 13.3837 6.96516 13.4098 9.33552 13.3984C9.33552 13.5547 9.33552 13.7109 9.33552 13.8672C9.10974 15.3295 8.30247 16.3061 6.91364 16.7969C6.40361 16.9486 5.88278 17.0137 5.35114 16.9922C4.79328 16.8927 4.27244 16.6844 3.78864 16.3672C2.71328 15.649 2.19246 14.6334 2.22614 13.3203Z" fill="#FCBF39"/>
<path fill-rule="evenodd" clip-rule="evenodd" d="M9.41406 13.3984C11.7318 13.3984 14.0495 13.3984 16.3672 13.3984C16.3672 13.5547 16.3672 13.7109 16.3672 13.8672C16.0279 15.8597 14.843 16.9013 12.8125 16.9922C10.8651 16.8284 9.73227 15.7867 9.41406 13.8672C9.41406 13.7109 9.41406 13.5547 9.41406 13.3984Z" fill="#E54B91"/>
<path fill-rule="evenodd" clip-rule="evenodd" d="M16.4453 13.3984C18.7891 13.3984 21.1328 13.3984 23.4766 13.3984C23.4766 13.5547 23.4766 13.7109 23.4766 13.8672C23.2516 15.3288 22.4443 16.3054 21.0547 16.7969C19.2187 17.2788 17.7994 16.719 16.7969 15.1172C16.6077 14.7192 16.4905 14.3025 16.4453 13.8672C16.4453 13.7109 16.4453 13.5547 16.4453 13.3984Z" fill="#FDBF39"/>
<path fill-rule="evenodd" clip-rule="evenodd" d="M30.5078 13.3984C30.5078 13.5547 30.5078 13.7109 30.5078 13.8672C30.1523 15.8374 28.9674 16.8791 26.9531 16.9922C25.0057 16.8284 23.8729 15.7867 23.5547 13.8672C23.5547 13.7109 23.5547 13.5547 23.5547 13.3984C25.8724 13.3984 28.1901 13.3984 30.5078 13.3984Z" fill="#E54B91"/>
<path opacity="0.996" fill-rule="evenodd" clip-rule="evenodd" d="M37.6953 13.3203C37.729 14.6334 37.2082 15.649 36.1328 16.3672C35.6384 16.6533 35.1176 16.8616 34.5703 16.9922C33.0467 17.0962 31.8619 16.5233 31.0156 15.2734C30.7855 14.8304 30.6422 14.3616 30.5859 13.8672C30.5859 13.7109 30.5859 13.5547 30.5859 13.3984C32.9563 13.4098 35.3261 13.3837 37.6953 13.3203Z" fill="#FDBF39"/>
<path fill-rule="evenodd" clip-rule="evenodd" d="M9.33594 13.8672C9.36195 13.8672 9.38805 13.8672 9.41406 13.8672C9.73227 15.7867 10.8651 16.8284 12.8125 16.9922C14.843 16.9013 16.0279 15.8597 16.3672 13.8672C16.3932 13.8672 16.4193 13.8672 16.4453 13.8672C16.4905 14.3025 16.6077 14.7192 16.7969 15.1172C17.7994 16.719 19.2187 17.2788 21.0547 16.7969C22.4443 16.3054 23.2516 15.3288 23.4766 13.8672C23.5026 13.8672 23.5287 13.8672 23.5547 13.8672C23.8729 15.7867 25.0057 16.8284 26.9531 16.9922C28.9674 16.8791 30.1523 15.8374 30.5078 13.8672C30.5338 13.8672 30.5599 13.8672 30.5859 13.8672C30.6422 14.3616 30.7855 14.8304 31.0156 15.2734C31.8619 16.5233 33.0467 17.0962 34.5703 16.9922C34.5703 20.8724 34.5703 24.7526 34.5703 28.6328C31.7318 28.6328 28.8932 28.6328 26.0547 28.6328C26.2442 27.5144 26.4265 26.3946 26.6016 25.2734C26.7265 25.2944 26.8306 25.2683 26.9141 25.1953C27.9759 24.8966 28.4056 24.1934 28.2031 23.0859C27.9919 22.5099 27.5883 22.1584 26.9922 22.0312C26.0811 21.9922 25.1696 21.9791 24.2578 21.9922C23.8417 21.0309 23.425 20.0674 23.0078 19.1016C22.6444 18.8459 22.384 18.9241 22.2266 19.3359C22.5763 20.2295 22.9409 21.1149 23.3203 21.9922C21.0807 21.9922 18.8412 21.9922 16.6016 21.9922C16.9809 21.1149 17.3455 20.2295 17.6953 19.3359C17.5379 18.9241 17.2775 18.8459 16.9141 19.1016C16.4748 20.058 16.058 21.0216 15.6641 21.9922C14.7002 21.9791 13.7366 21.9922 12.7734 22.0312C11.7748 22.5059 11.4492 23.2741 11.7969 24.3359C12.0541 24.7894 12.4317 25.0759 12.9297 25.1953C13.0405 25.2696 13.1707 25.2956 13.3203 25.2734C13.6704 27.2472 13.9959 29.2263 14.2969 31.2109C14.382 31.4989 14.5512 31.7202 14.8047 31.875C17.3566 31.9141 19.9088 31.9271 22.4609 31.9141C22.4609 32.4609 22.4609 33.0078 22.4609 33.5547C18.737 33.5547 15.013 33.5547 11.2891 33.5547C11.3148 32.2129 11.2888 30.8848 11.2109 29.5703C11.0234 29.1694 10.8152 28.7788 10.5859 28.3984C10.7905 27.95 11.0249 27.5203 11.2891 27.1094C9.31008 27.0703 7.3309 27.0573 5.35156 27.0703C5.35156 23.7109 5.35156 20.3516 5.35156 16.9922C5.8832 17.0137 6.40403 16.9486 6.91406 16.7969C8.30289 16.3061 9.11016 15.3295 9.33594 13.8672Z" fill="#FEFEFE"/>
<path opacity="0.975" fill-rule="evenodd" clip-rule="evenodd" d="M3.78906 16.3672C4.27286 16.6844 4.7937 16.8927 5.35156 16.9922C5.35156 20.3516 5.35156 23.7109 5.35156 27.0703C4.83073 27.0703 4.3099 27.0703 3.78906 27.0703C3.78906 23.5026 3.78906 19.9349 3.78906 16.3672Z" fill="#AC9EF8"/>
<path opacity="0.975" fill-rule="evenodd" clip-rule="evenodd" d="M36.1328 16.3672C36.1328 20.4297 36.1328 24.4922 36.1328 28.5547C35.6266 28.6321 35.1058 28.6581 34.5703 28.6328C34.5703 24.7526 34.5703 20.8724 34.5703 16.9922C35.1176 16.8616 35.6384 16.6533 36.1328 16.3672Z" fill="#AB9EF8"/>
<path fill-rule="evenodd" clip-rule="evenodd" d="M16.6025 21.9921C16.4517 22.3203 16.3214 22.6589 16.2119 23.0077C16.421 23.7105 16.1737 24.1272 15.4697 24.2577C14.8327 24.1038 14.6244 23.7131 14.8447 23.0858C15.0206 22.8882 15.2159 22.7189 15.4306 22.578C15.517 22.3835 15.5952 22.1882 15.665 21.9921C16.059 21.0214 16.4757 20.0579 16.915 19.1014C17.2784 18.8458 17.5388 18.9239 17.6963 19.3358C17.3465 20.2293 16.9819 21.1148 16.6025 21.9921Z" fill="#DFDDF8"/>
<path fill-rule="evenodd" clip-rule="evenodd" d="M24.2578 21.9921C24.348 22.2248 24.4391 22.4592 24.5312 22.6952C25.223 22.979 25.3663 23.4347 24.9609 24.0624C23.9558 24.4306 23.5391 24.0791 23.7109 23.0077C23.6014 22.6589 23.4712 22.3203 23.3203 21.9921C22.9409 21.1148 22.5763 20.2293 22.2266 19.3358C22.384 18.9239 22.6444 18.8458 23.0078 19.1014C23.425 20.0673 23.8417 21.0308 24.2578 21.9921Z" fill="#DFDDF8"/>
<path fill-rule="evenodd" clip-rule="evenodd" d="M15.664 21.9922C15.5941 22.1884 15.516 22.3837 15.4296 22.5781C15.2149 22.7191 15.0196 22.8884 14.8436 23.0859C14.6233 23.7133 14.8316 24.1039 15.4686 24.2578C16.1726 24.1274 16.42 23.7106 16.2108 23.0078C16.3204 22.659 16.4506 22.3205 16.6015 21.9922C18.8411 21.9922 21.0806 21.9922 23.3202 21.9922C23.4711 22.3205 23.6013 22.659 23.7108 23.0078C23.539 24.0792 23.9557 24.4308 24.9608 24.0625C25.3661 23.4349 25.2229 22.9792 24.5311 22.6953C24.439 22.4593 24.3479 22.2249 24.2577 21.9922C25.1695 21.9792 26.081 21.9922 26.9921 22.0313C27.5882 22.1584 27.9918 22.5099 28.203 23.0859C28.4055 24.1934 27.9758 24.8966 26.914 25.1953C22.2525 25.1953 17.5911 25.1953 12.9296 25.1953C12.4316 25.0759 12.054 24.7894 11.7968 24.3359C11.4491 23.2742 11.7747 22.5059 12.7733 22.0313C13.7365 21.9922 14.7 21.9792 15.664 21.9922Z" fill="#E54A91"/>
<path fill-rule="evenodd" clip-rule="evenodd" d="M12.9297 25.1953C17.5912 25.1953 22.2526 25.1953 26.9141 25.1953C26.8306 25.2683 26.7265 25.2944 26.6016 25.2734C26.4265 26.3946 26.2442 27.5144 26.0547 28.6328C25.215 28.6087 24.3816 28.6347 23.5547 28.7109C23.508 28.6926 23.482 28.6535 23.4766 28.5938C23.6764 28.1261 23.7936 27.6443 23.8281 27.1484C23.5714 26.8371 23.311 26.8371 23.0469 27.1484C22.7316 28.0683 22.4321 28.9927 22.1484 29.9219C22.1772 30.1199 22.2813 30.2631 22.4609 30.3516C22.4609 30.8724 22.4609 31.3932 22.4609 31.9141C19.9088 31.9271 17.3566 31.9141 14.8047 31.875C14.5512 31.7202 14.382 31.4989 14.2969 31.2109C13.9959 29.2263 13.6704 27.2472 13.3203 25.2734C13.1707 25.2956 13.0405 25.2696 12.9297 25.1953Z" fill="#F662A6"/>
<path fill-rule="evenodd" clip-rule="evenodd" d="M16.2887 26.914C16.535 26.8717 16.7303 26.9498 16.8746 27.1483C17.1611 28.0077 17.4475 28.8671 17.734 29.7265C17.7991 30.1822 17.6038 30.3775 17.1481 30.3124C17.083 30.2473 17.0179 30.1822 16.9528 30.1171C16.6663 29.2577 16.3799 28.3983 16.0934 27.539C16.0171 27.2798 16.0821 27.0715 16.2887 26.914Z" fill="#FEFAFC"/>
<path fill-rule="evenodd" clip-rule="evenodd" d="M19.7266 26.9142C19.9504 26.8795 20.1457 26.9316 20.3125 27.0705C20.3646 28.1121 20.3646 29.1539 20.3125 30.1955C20.0781 30.4039 19.8438 30.4039 19.6094 30.1955C19.5573 29.1539 19.5573 28.1121 19.6094 27.0705C19.6654 27.028 19.7045 26.9759 19.7266 26.9142Z" fill="#FEFDFE"/>
<path fill-rule="evenodd" clip-rule="evenodd" d="M23.5547 28.711C22.8871 29.0427 22.5225 29.5896 22.4609 30.3517C22.2813 30.2632 22.1772 30.12 22.1484 29.922C22.4321 28.9928 22.7316 28.0684 23.0469 27.1485C23.311 26.8372 23.5714 26.8372 23.8281 27.1485C23.7936 27.6444 23.6764 28.1262 23.4766 28.5938C23.482 28.6536 23.508 28.6927 23.5547 28.711Z" fill="#FEF9FB"/>
<path opacity="0.995" fill-rule="evenodd" clip-rule="evenodd" d="M-0.0390625 27.1484C-0.0390625 27.1224 -0.0390625 27.0963 -0.0390625 27.0703C1.23698 27.0703 2.51302 27.0703 3.78906 27.0703C4.3099 27.0703 4.83073 27.0703 5.35156 27.0703C7.3309 27.0573 9.31008 27.0703 11.2891 27.1094C11.0249 27.5203 10.7905 27.95 10.5859 28.3984C10.8152 28.7788 11.0234 29.1694 11.2109 29.5703C7.47409 29.6492 3.72409 29.7013 -0.0390625 29.7266C-0.0390625 29.7006 -0.0390625 29.6745 -0.0390625 29.6484C0.203029 29.2299 0.437404 28.8002 0.664062 28.3594C0.417737 27.9572 0.183362 27.5536 -0.0390625 27.1484Z" fill="#FDBF39"/>
<path opacity="0.996" fill-rule="evenodd" clip-rule="evenodd" d="M36.1336 28.5547C36.9414 28.5417 37.7486 28.5547 38.5555 28.5937C39.3075 28.8116 39.7762 29.2934 39.9618 30.039C39.9618 32.8776 39.9618 35.7162 39.9618 38.5547C39.7932 39.2441 39.3764 39.7129 38.7118 39.9609C33.6857 39.9609 28.6596 39.9609 23.6336 39.9609C23.1411 39.7287 22.7764 39.3641 22.5399 38.8672C22.4675 37.5409 22.4414 36.2128 22.4618 34.8828C22.4618 34.4401 22.4618 33.9974 22.4618 33.5547C22.4618 33.0078 22.4618 32.4609 22.4618 31.914C22.4618 31.3932 22.4618 30.8724 22.4618 30.3515C22.5233 29.5894 22.8879 29.0426 23.5555 28.7109C24.3825 28.6347 25.2158 28.6086 26.0555 28.6328C28.894 28.6328 31.7326 28.6328 34.5711 28.6328C35.1066 28.6581 35.6275 28.6321 36.1336 28.5547Z" fill="#35C9AD"/>
<path opacity="0.994" fill-rule="evenodd" clip-rule="evenodd" d="M11.2109 29.5703C11.2888 30.8848 11.3148 32.2129 11.2891 33.5547C11.2891 33.9974 11.2891 34.4401 11.2891 34.8828C11.2891 36.2109 11.2891 37.5391 11.2891 38.8672C11.2891 39.2318 11.2891 39.5963 11.2891 39.9609C7.51302 39.9609 3.73698 39.9609 -0.0390625 39.9609C-0.0390625 36.5495 -0.0390625 33.138 -0.0390625 29.7266C3.72409 29.7013 7.47409 29.6491 11.2109 29.5703Z" fill="#FED085"/>
<path fill-rule="evenodd" clip-rule="evenodd" d="M25.1175 31.4453C27.7739 31.4323 30.4302 31.4453 33.0863 31.4844C33.4176 31.7808 33.3916 32.0412 33.0082 32.2656C30.404 32.3177 27.7998 32.3177 25.1957 32.2656C24.8196 32.0245 24.7935 31.7511 25.1175 31.4453Z" fill="#F8FDFC"/>
<path fill-rule="evenodd" clip-rule="evenodd" d="M2.69589 32.1483C3.51942 32.0732 3.87098 32.4377 3.75057 33.242C3.70251 33.3683 3.62439 33.4724 3.5162 33.5545C3.46411 34.1795 3.46411 34.8045 3.5162 35.4295C4.10464 37.0062 5.18537 37.488 6.75839 36.8749C7.59667 36.2742 7.96128 35.4539 7.85214 34.4139C7.83909 34.1274 7.82612 33.841 7.81308 33.5545C7.3163 33.0485 7.35536 32.5928 7.93026 32.1874C8.55651 32.031 8.92112 32.2654 9.02401 32.8905C9.00839 33.1431 8.91722 33.3645 8.75058 33.5545C9.00495 35.1286 8.54925 36.4437 7.38339 37.4999C5.72653 38.4082 4.30725 38.1348 3.12557 36.6795C2.86165 36.2749 2.7054 35.8321 2.65682 35.3514C2.63079 34.7524 2.60474 34.1535 2.5787 33.5545C2.32008 33.2643 2.24196 32.9258 2.34432 32.5389C2.47771 32.4188 2.5949 32.2886 2.69589 32.1483Z" fill="#FFFDFC"/>
<path fill-rule="evenodd" clip-rule="evenodd" d="M11.2891 33.5547C15.013 33.5547 18.737 33.5547 22.4609 33.5547C22.4609 33.9974 22.4609 34.4401 22.4609 34.8828C18.737 34.8828 15.013 34.8828 11.2891 34.8828C11.2891 34.4401 11.2891 33.9974 11.2891 33.5547Z" fill="#ADA0F9"/>
<path fill-rule="evenodd" clip-rule="evenodd" d="M25.1947 34.5703C25.6122 34.5573 26.0288 34.5704 26.4447 34.6093C26.8613 34.8697 26.8613 35.1302 26.4447 35.3906C26.0019 35.4427 25.5593 35.4427 25.1165 35.3906C24.7912 35.0785 24.8172 34.805 25.1947 34.5703Z" fill="#F8FDFC"/>
<path fill-rule="evenodd" clip-rule="evenodd" d="M28.0869 34.5703C28.8425 34.5573 29.5978 34.5703 30.3525 34.6094C30.7223 34.8376 30.7483 35.098 30.4307 35.3906C29.6494 35.4427 28.8682 35.4427 28.0869 35.3906C27.7783 35.1211 27.7783 34.8477 28.0869 34.5703Z" fill="#FAFDFC"/>
<path fill-rule="evenodd" clip-rule="evenodd" d="M31.9923 34.5703C32.7479 34.5573 33.5031 34.5703 34.2579 34.6094C34.6277 34.8376 34.6537 35.098 34.336 35.3906C33.5548 35.4427 32.7735 35.4427 31.9923 35.3906C31.6849 35.1175 31.6849 34.844 31.9923 34.5703Z" fill="#FAFDFD"/>
<path fill-rule="evenodd" clip-rule="evenodd" d="M35.8985 34.5703C36.342 34.5573 36.7847 34.5704 37.2267 34.6093C37.4444 34.7786 37.5095 35 37.422 35.2734C37.3634 35.3223 37.2982 35.3614 37.2267 35.3906C36.7839 35.4427 36.3413 35.4427 35.8985 35.3906C35.5911 35.1175 35.5911 34.844 35.8985 34.5703Z" fill="#F9FDFC"/>
<path opacity="0.991" fill-rule="evenodd" clip-rule="evenodd" d="M11.2891 34.8828C15.013 34.8828 18.737 34.8828 22.4609 34.8828C22.4406 36.2128 22.4666 37.5409 22.5391 38.8672C18.7891 38.8672 15.0391 38.8672 11.2891 38.8672C11.2891 37.5391 11.2891 36.2109 11.2891 34.8828Z" fill="#6162F3"/>
</g>
<defs>
<clipPath id="clip0_14405_62066">
<rect width="40" height="40" fill="white"/>
</clipPath>
</defs>
</svg>
