<svg width="420" height="332" viewBox="0 0 420 332" fill="none" xmlns="http://www.w3.org/2000/svg">
<path d="M182.469 232.646V274.946H216.269V232.646H182.469Z" fill="#002548"/>
<path opacity="0.19" d="M182.469 232.646V274.946H216.269V232.646H182.469Z" fill="#F9FAFB"/>
<path d="M134.898 284V279L153.198 274.9H245.498L263.898 278.9V284H134.898Z" fill="#002548"/>
<path d="M306.812 242.699V101.099L91.9125 101.099L91.9125 242.699L306.812 242.699Z" fill="#002548"/>
<path d="M304.8 103.1H94V234.5H304.8V103.1Z" fill="#5F737C"/>
<path d="M303.194 105.3H95.5938V232.2H303.194V105.3Z" fill="#D2D9DC"/>
<path d="M253.297 101H145.297V231.6H253.297V101Z" fill="#F9FAFB"/>
<path d="M206 110.3H156V113.6H206V110.3Z" fill="#D2D9DC"/>
<path d="M181 123.9H156V127.2H181V123.9Z" fill="#D2D9DC"/>
<path d="M212.797 123.9H187.797V127.2H212.797V123.9Z" fill="#D2D9DC"/>
<path d="M242.695 123.9H217.695V127.2H242.695V123.9Z" fill="#D2D9DC"/>
<path d="M169.5 130.9H156V134.2H169.5V130.9Z" fill="#D2D9DC"/>
<path d="M224.397 130.9H176.297V134.2H224.397V130.9Z" fill="#D2D9DC"/>
<path d="M242.697 130.9H229.297V134.2H242.697V130.9Z" fill="#D2D9DC"/>
<path d="M181 137.9H156V141.2H181V137.9Z" fill="#D2D9DC"/>
<path d="M212.797 137.9H187.797V141.2H212.797V137.9Z" fill="#D2D9DC"/>
<path d="M242.695 137.9H217.695V141.2H242.695V137.9Z" fill="#D2D9DC"/>
<path d="M169.5 145H156V148.3H169.5V145Z" fill="#D2D9DC"/>
<path d="M224.397 145H176.297V148.3H224.397V145Z" fill="#D2D9DC"/>
<path d="M242.697 145H229.297V148.3H242.697V145Z" fill="#D2D9DC"/>
<path d="M160.8 152H156V155.3H160.8V152Z" fill="#D2D9DC"/>
<path d="M200.294 152H167.594V155.3H200.294V152Z" fill="#D2D9DC"/>
<path d="M242.595 152H205.195V155.3H242.595V152Z" fill="#D2D9DC"/>
<path d="M181 159H156V162.3H181V159Z" fill="#D2D9DC"/>
<path d="M212.797 159H187.797V162.3H212.797V159Z" fill="#D2D9DC"/>
<path d="M242.695 159H217.695V162.3H242.695V159Z" fill="#D2D9DC"/>
<path d="M169.5 166.1H156V169.4H169.5V166.1Z" fill="#D2D9DC"/>
<path d="M224.397 166.1H176.297V169.4H224.397V166.1Z" fill="#D2D9DC"/>
<path d="M242.697 166.1H229.297V169.4H242.697V166.1Z" fill="#D2D9DC"/>
<path d="M181 173.1H156V176.4H181V173.1Z" fill="#D2D9DC"/>
<path d="M212.797 173.1H187.797V176.4H212.797V173.1Z" fill="#D2D9DC"/>
<path d="M242.695 173.1H217.695V176.4H242.695V173.1Z" fill="#D2D9DC"/>
<path d="M160.8 193H156V196.3H160.8V193Z" fill="#D2D9DC"/>
<path d="M200.294 193H167.594V196.3H200.294V193Z" fill="#D2D9DC"/>
<path d="M242.595 193H205.195V196.3H242.595V193Z" fill="#D2D9DC"/>
<path d="M181 200.1H156V203.4H181V200.1Z" fill="#D2D9DC"/>
<path d="M212.797 200.1H187.797V203.4H212.797V200.1Z" fill="#D2D9DC"/>
<path d="M242.695 200.1H217.695V203.4H242.695V200.1Z" fill="#D2D9DC"/>
<path d="M169.5 207.1H156V210.4H169.5V207.1Z" fill="#D2D9DC"/>
<path d="M224.397 207.1H176.297V210.4H224.397V207.1Z" fill="#D2D9DC"/>
<path d="M242.697 207.1H229.297V210.4H242.697V207.1Z" fill="#D2D9DC"/>
<path d="M181 214.1H156V217.4H181V214.1Z" fill="#D2D9DC"/>
<path d="M169.5 180.1H156V183.4H169.5V180.1Z" fill="#D2D9DC"/>
<path d="M200.397 180.1H176.297V183.4H200.397V180.1Z" fill="#D2D9DC"/>
<path d="M326.425 187.532L318.859 195.098L357.608 233.847L365.174 226.281L326.425 187.532Z" fill="#D2D9DC"/>
<path opacity="0.19" d="M326.412 187.679L322.664 191.427L361.413 230.176L365.161 226.428L326.412 187.679Z" fill="#2D2F31"/>
<path d="M359.422 229.297L356.594 232.125L357.089 232.62L359.917 229.792L359.422 229.297Z" fill="#0F303F"/>
<path d="M355.414 228.085L354 229.499L354.495 229.994L355.909 228.58L355.414 228.085Z" fill="#0F303F"/>
<path d="M354.227 224.071L351.398 226.899L351.893 227.394L354.722 224.566L354.227 224.071Z" fill="#0F303F"/>
<path d="M350.219 222.86L348.805 224.274L349.3 224.769L350.714 223.355L350.219 222.86Z" fill="#0F303F"/>
<path d="M348.969 218.93L346.141 221.758L346.636 222.253L349.464 219.425L348.969 218.93Z" fill="#0F303F"/>
<path d="M344.961 217.718L343.547 219.133L344.042 219.628L345.456 218.213L344.961 217.718Z" fill="#0F303F"/>
<path d="M343.774 213.704L340.945 216.533L341.44 217.028L344.269 214.199L343.774 213.704Z" fill="#0F303F"/>
<path d="M339.766 212.493L338.352 213.907L338.847 214.402L340.261 212.988L339.766 212.493Z" fill="#0F303F"/>
<path d="M338.581 208.48L335.75 211.306L336.245 211.802L339.075 208.976L338.581 208.48Z" fill="#0F303F"/>
<path d="M334.57 207.275L333.156 208.689L333.651 209.184L335.065 207.77L334.57 207.275Z" fill="#0F303F"/>
<path d="M333.39 203.269L330.562 206.099L331.058 206.594L333.885 203.764L333.39 203.269Z" fill="#0F303F"/>
<path d="M329.312 202.01L327.898 203.425L328.394 203.92L329.807 202.505L329.312 202.01Z" fill="#0F303F"/>
<path d="M328.125 197.977L325.297 200.806L325.792 201.301L328.62 198.472L328.125 197.977Z" fill="#0F303F"/>
<path d="M324.117 196.779L322.703 198.193L323.198 198.688L324.612 197.274L324.117 196.779Z" fill="#0F303F"/>
<path d="M322.96 192.75L320.133 195.58L320.628 196.075L323.456 193.245L322.96 192.75Z" fill="#0F303F"/>
<path d="M319.797 233L331.397 229.2L332.097 220.7L323.597 221.4L319.797 233Z" fill="#FFDD33"/>
<path d="M346.098 206.6C343.998 204.5 343.998 200.9 346.098 198.8L354.898 190C356.998 187.9 360.598 187.9 362.698 190C364.798 192.1 364.798 195.7 362.698 197.8L353.898 206.6C351.798 208.8 348.298 208.8 346.098 206.6Z" fill="#002548"/>
<path d="M353.657 191.349L346.586 198.42L354.364 206.199L361.435 199.128L353.657 191.349Z" fill="#FFDD33"/>
<path d="M352.041 192.887L350.344 194.584L358.122 202.362L359.819 200.665L352.041 192.887Z" fill="#0F303F"/>
<path d="M331.3 229.2L329.2 223.5L323.5 221.4L348.6 196.3L356.4 204.1L331.3 229.2Z" fill="#0054A6"/>
<path d="M352.495 200.2L329.195 223.5L331.295 229.2L356.395 204.1L352.495 200.2Z" fill="#002548"/>
<path d="M319.797 233L324.297 231.5C324.197 230.8 323.897 230 323.297 229.5C322.697 228.9 321.997 228.6 321.297 228.5L319.797 233Z" fill="#002548"/>
<path d="M234.2 104.6C234.2 104.6 218.9 103.7 222.7 112.2C226.5 120.7 238.5 146.1 238.5 146.1L238.2 117.1L234.2 104.6Z" fill="#ED1C24"/>
<path d="M260.198 104.6C260.198 104.6 275.498 103.7 271.698 112.2C267.898 120.7 255.898 146.1 255.898 146.1L256.198 117.1L260.198 104.6Z" fill="#ED1C24"/>
<path d="M256.394 117.1C258.294 113.5 265.794 87.6 265.794 75.9C265.794 56 247.194 30 247.194 30C247.194 30 228.594 56 228.594 75.9C228.594 87.6 236.094 113.5 237.994 117.1H256.394Z" fill="#0054A6"/>
<path d="M260.498 73.6C260.498 80.9 254.598 86.9001 247.198 86.9001C239.898 86.9001 233.898 81 233.898 73.6C233.898 66.3 239.798 60.3 247.198 60.3C254.598 60.3 260.498 66.2 260.498 73.6Z" fill="#ED1C24"/>
<path d="M257.9 73.5999C257.9 79.4999 253.1 84.2999 247.2 84.2999C241.3 84.2999 236.5 79.4999 236.5 73.5999C236.5 67.6999 241.3 62.8999 247.2 62.8999C253.1 62.8999 257.9 67.6999 257.9 73.5999Z" fill="#AEDEF8"/>
<path d="M247.2 62.8999C241.3 62.8999 236.5 67.6999 236.5 73.5999C236.5 79.4999 241.3 84.2999 247.2 84.2999C253.1 84.2999 257.9 79.4999 257.9 73.5999C257.9 67.6999 253.1 62.8999 247.2 62.8999ZM247.2 83.5999C241.7 83.5999 237.2 79.0999 237.2 73.5999C237.2 68.0999 241.7 63.5999 247.2 63.5999C252.7 63.5999 257.2 68.0999 257.2 73.5999C257.3 79.0999 252.8 83.5999 247.2 83.5999Z" fill="#839299"/>
<path opacity="0.19" d="M252.397 64.2L238.297 79.4C238.597 79.9 238.997 80.4 239.497 80.9L253.997 65.3C253.497 64.9 252.997 64.5 252.397 64.2Z" fill="#F9FAFB"/>
<path opacity="0.19" d="M256.697 68.7001C256.397 68.1001 256.097 67.6001 255.697 67.1001L241.297 82.5001C241.897 82.9001 242.397 83.2001 243.097 83.4001L256.697 68.7001Z" fill="#F9FAFB"/>
<path d="M247.195 53C252.095 53 256.895 53.9 261.195 55.6C255.695 41.8 247.195 30 247.195 30C247.195 30 238.695 41.8 233.195 55.6C237.595 53.9 242.295 53 247.195 53Z" fill="#ED1C24"/>
<path opacity="0.19" d="M239.595 51C239.595 51.6 239.095 52.2001 238.395 52.2001C237.795 52.2001 237.195 51.7 237.195 51C237.195 50.4 237.695 49.8 238.395 49.8C238.995 49.9 239.595 50.4 239.595 51Z" fill="#2D2F31"/>
<path opacity="0.19" d="M242.494 45.9C242.494 46.5 241.994 47.0999 241.294 47.0999C240.694 47.0999 240.094 46.6 240.094 45.9C240.094 45.3 240.594 44.7 241.294 44.7C241.994 44.8 242.494 45.3 242.494 45.9Z" fill="#2D2F31"/>
<path opacity="0.19" d="M245.494 40.8001C245.494 41.4001 244.994 42.0001 244.294 42.0001C243.694 42.0001 243.094 41.5001 243.094 40.8001C243.094 40.2001 243.594 39.6001 244.294 39.6001C244.994 39.7001 245.494 40.2001 245.494 40.8001Z" fill="#2D2F31"/>
<path opacity="0.19" d="M248.494 35.8001C248.494 36.4001 247.994 37.0001 247.294 37.0001C246.694 37.0001 246.094 36.5001 246.094 35.8001C246.094 35.2001 246.594 34.6001 247.294 34.6001C247.994 34.6001 248.494 35.1001 248.494 35.8001Z" fill="#2D2F31"/>
<path d="M253.997 126.7C253.997 130.9 246.897 154 246.897 154C246.897 154 239.797 130.9 239.797 126.7C239.797 122.5 242.997 119.2 246.897 119.2C250.897 119.2 253.997 122.6 253.997 126.7Z" fill="#ED1C24"/>
<path d="M250.197 125.5C250.197 127.4 246.997 138 246.997 138C246.997 138 243.797 127.4 243.797 125.5C243.797 123.6 245.297 122 246.997 122C248.797 122 250.197 123.6 250.197 125.5Z" fill="#FFDD33"/>
<path d="M106.8 127.8L105.5 124.7C105.5 124.7 83.5 125.1 82.5 131.5V136.3L106.8 127.8Z" fill="#839299"/>
<path d="M56.5938 127.8L57.8938 124.7C57.8938 124.7 79.8938 125.1 80.8938 131.5V136.3L56.5938 127.8Z" fill="#839299"/>
<path d="M85.6 134.1C85.6 136.2 83.9 137.9 81.8 137.9C79.7 137.9 78 136.2 78 134.1C78 132 79.7 130.3 81.8 130.3C83.9 130.2 85.6 132 85.6 134.1Z" fill="#839299"/>
<path d="M108.698 127.5L84.2984 132.7C84.1984 134 83.0984 134.9 81.7984 134.9C80.4984 134.9 79.3984 133.9 79.2984 132.7L54.8984 127.5V159L79.2984 164.2V164.3C79.2984 165.7 80.3984 166.8 81.7984 166.8C83.1984 166.8 84.2984 165.7 84.2984 164.3V164.2L108.698 159V127.5Z" fill="#002548"/>
<path d="M79.2969 165.5L54.7969 160.2V128.8L79.2969 134.1V165.5Z" fill="#0054A6"/>
<path d="M84.1953 165.5L108.695 160.2V128.8L84.1953 134.1V165.5Z" fill="#0054A6"/>
<path d="M81.6953 136.3C80.3953 136.3 79.2953 135.3 79.1953 134C79.1953 134.1 79.1953 134.2 79.1953 134.3V165.5C79.1953 166.9 80.2953 168 81.6953 168C83.0953 168 84.1953 166.9 84.1953 165.5V134.3C84.1953 134.2 84.1953 134.1 84.1953 134C84.0953 135.3 82.9953 136.3 81.6953 136.3Z" fill="#002548"/>
<path d="M81.6953 164.5C80.2953 164.5 79.1953 163.4 79.1953 162V163C79.1953 164.4 80.2953 165.5 81.6953 165.5C83.0953 165.5 84.1953 164.4 84.1953 163V162C84.2953 163.4 83.0953 164.5 81.6953 164.5Z" fill="#FFDD33"/>
<path d="M81.6953 162.1C80.2953 162.1 79.1953 161 79.1953 159.6V160.6C79.1953 162 80.2953 163.1 81.6953 163.1C83.0953 163.1 84.1953 162 84.1953 160.6V159.6C84.2953 161 83.0953 162.1 81.6953 162.1Z" fill="#FFDD33"/>
<path d="M81.6953 143.4C80.2953 143.4 79.1953 142.3 79.1953 140.9V141.9C79.1953 143.3 80.2953 144.4 81.6953 144.4C83.0953 144.4 84.1953 143.3 84.1953 141.9V140.9C84.2953 142.3 83.0953 143.4 81.6953 143.4Z" fill="#FFDD33"/>
<path d="M81.6953 141.1C80.2953 141.1 79.1953 140 79.1953 138.6V139.6C79.1953 141 80.2953 142.1 81.6953 142.1C83.0953 142.1 84.1953 141 84.1953 139.6V138.6C84.2953 139.9 83.0953 141.1 81.6953 141.1Z" fill="#FFDD33"/>
</svg>
