<svg width="60" height="60" viewBox="0 0 60 60" fill="none" xmlns="http://www.w3.org/2000/svg">
<g clip-path="url(#clip0_19176_8004)">
<path opacity="0.992" fill-rule="evenodd" clip-rule="evenodd" d="M56.7799 10.6054C56.6404 10.8227 56.4842 11.0376 56.3111 11.2499C55.7885 11.4478 55.2807 11.6627 54.7877 11.8945C52.5314 12.6986 50.2658 13.4799 47.9908 14.2382C48.2403 11.933 47.2638 10.4681 45.0611 9.84367C34.0435 7.89276 23.0279 7.89276 12.0143 9.84367C9.96418 10.587 9.02668 12.0518 9.20177 14.2382C6.42224 13.2856 3.64881 12.3091 0.88146 11.3085C0.382192 10.6659 0.421254 10.0604 0.998647 9.49211C9.67931 6.50741 18.3512 3.49961 27.0143 0.468669C27.9405 0.139399 28.878 0.100337 29.8268 0.351482C38.7419 3.38823 47.6286 6.4937 56.4869 9.66789C56.687 9.95017 56.7846 10.2627 56.7799 10.6054Z" fill="#868490"/>
<path opacity="0.998" fill-rule="evenodd" clip-rule="evenodd" d="M47.9909 14.2381C47.3115 14.5384 46.6084 14.7728 45.8815 14.9412C45.7845 14.2593 45.7259 13.5562 45.7057 12.8318C45.5299 12.4998 45.276 12.2459 44.944 12.0701C36.4416 10.527 27.8869 10.1754 19.2799 11.0154C17.3956 11.2119 15.5206 11.4658 13.6549 11.7772C13.6549 14.7068 13.6549 17.6365 13.6549 20.5662C12.9128 20.5662 12.1705 20.5662 11.4284 20.5662C11.3893 20.5662 11.3503 20.5662 11.3112 20.5662C11.3502 18.6896 11.3111 16.8146 11.194 14.9412C10.5266 14.7058 9.86256 14.4714 9.20182 14.2381C9.02673 12.0517 9.96423 10.5869 12.0143 9.84356C23.028 7.89264 34.0436 7.89264 45.0612 9.84356C47.2638 10.468 48.2404 11.9329 47.9909 14.2381Z" fill="#77777F"/>
<path opacity="0.999" fill-rule="evenodd" clip-rule="evenodd" d="M45.8813 14.9412C45.8813 16.8162 45.8813 18.6912 45.8813 20.5662C35.1391 20.5662 24.397 20.5662 13.6548 20.5662C13.6548 17.6365 13.6548 14.7068 13.6548 11.7771C15.5204 11.4658 17.3954 11.2119 19.2798 11.0154C27.8867 10.1754 36.4414 10.527 44.9438 12.0701C45.2758 12.2459 45.5298 12.4998 45.7056 12.8318C45.7257 13.5562 45.7843 14.2593 45.8813 14.9412Z" fill="#858390"/>
<path opacity="0.949" fill-rule="evenodd" clip-rule="evenodd" d="M56.7798 10.6055C56.7798 13.0664 56.7798 15.5273 56.7798 17.9883C56.1157 17.9883 55.4517 17.9883 54.7876 17.9883C54.7876 15.9571 54.7876 13.9257 54.7876 11.8945C55.2806 11.6627 55.7884 11.4479 56.311 11.25C56.4841 11.0376 56.6403 10.8228 56.7798 10.6055Z" fill="#77777E"/>
<path opacity="0.99" fill-rule="evenodd" clip-rule="evenodd" d="M54.7876 17.9883C55.4517 17.9883 56.1157 17.9883 56.7798 17.9883C56.7798 18.0273 56.7798 18.0664 56.7798 18.1055C55.3566 18.6134 54.7121 19.629 54.8462 21.1523C55.0094 22.2623 55.6149 23.0046 56.6626 23.3789C56.977 23.2605 57.2894 23.1434 57.6001 23.0273C57.8552 23.5562 58.0896 24.1031 58.3032 24.668C57.3195 25.1971 56.2648 25.451 55.1391 25.4297C54.426 26.5915 53.9183 27.8415 53.6157 29.1797C53.618 30.0984 54.0478 30.7039 54.9048 30.9961C54.2006 31.0155 53.4975 30.996 52.7954 30.9375C52.0593 30.6526 51.6687 30.1253 51.6235 29.3555C51.6142 29.0307 51.6728 28.7183 51.7993 28.418C52.2056 27.4916 52.5767 26.5541 52.9126 25.6055C53.2176 24.7301 53.5692 23.8706 53.9673 23.0273C52.795 21.8331 52.6192 20.505 53.4399 19.043C53.8129 18.5698 54.2621 18.2182 54.7876 17.9883Z" fill="#F9AB18"/>
<path opacity="0.98" fill-rule="evenodd" clip-rule="evenodd" d="M56.78 18.1055C57.775 18.457 58.3806 19.1602 58.5964 20.2148C58.7598 21.3325 58.4277 22.27 57.6003 23.0273C57.2897 23.1434 56.9772 23.2605 56.6628 23.3789C55.6152 23.0046 55.0097 22.2623 54.8464 21.1523C54.7124 19.629 55.3569 18.6134 56.78 18.1055Z" fill="#FCCC08"/>
<path opacity="0.998" fill-rule="evenodd" clip-rule="evenodd" d="M11.311 20.5664C11.3501 20.5664 11.3892 20.5664 11.4282 20.5664C12.1483 20.6824 12.8905 20.7214 13.6548 20.6836C13.6353 21.4658 13.6548 22.2471 13.7134 23.0273C13.811 23.125 13.9087 23.2227 14.0063 23.3203C24.6313 23.3789 35.2563 23.3985 45.8813 23.3789C45.9008 23.9272 45.8812 24.474 45.8227 25.0195C45.7452 25.1934 45.6474 25.3496 45.5298 25.4883C34.2798 25.4883 23.0298 25.4883 11.7798 25.4883C11.5724 25.2993 11.4357 25.0649 11.3696 24.7852C11.311 23.3795 11.2915 21.9732 11.311 20.5664Z" fill="#FAAB17"/>
<path opacity="0.998" fill-rule="evenodd" clip-rule="evenodd" d="M11.4282 20.5664C12.1704 20.5664 12.9126 20.5664 13.6548 20.5664C24.397 20.5664 35.1391 20.5664 45.8813 20.5664C45.8813 21.5039 45.8813 22.4414 45.8813 23.3789C35.2563 23.3985 24.6313 23.3789 14.0063 23.3203C13.9087 23.2227 13.811 23.125 13.7134 23.0273C13.6548 22.2471 13.6353 21.4658 13.6548 20.6836C12.8905 20.7214 12.1483 20.6824 11.4282 20.5664Z" fill="#FBCB0C"/>
<path opacity="0.983" fill-rule="evenodd" clip-rule="evenodd" d="M58.3032 24.668C58.8065 25.9846 59.3533 27.2736 59.9438 28.5352C59.9438 29.0039 59.9438 29.4727 59.9438 29.9414C59.6475 30.3737 59.2569 30.7057 58.772 30.9375C57.4835 30.9961 56.1944 31.0157 54.9048 30.9961C54.0478 30.7039 53.6181 30.0984 53.6157 29.1797C53.9183 27.8415 54.4261 26.5915 55.1392 25.4297C56.2649 25.451 57.3196 25.1971 58.3032 24.668Z" fill="#FDCC08"/>
<path opacity="0.998" fill-rule="evenodd" clip-rule="evenodd" d="M11.7798 25.4883C23.0298 25.4883 34.2798 25.4883 45.5298 25.4883C47.9961 25.4518 50.4571 25.491 52.9126 25.6055C52.5767 26.5541 52.2056 27.4916 51.7993 28.418C51.6729 28.7183 51.6143 29.0307 51.6235 29.3555C51.5454 29.3555 51.4673 29.3555 51.3892 29.3555C41.4282 29.3555 31.4673 29.3555 21.5063 29.3555C20.1783 29.3555 18.8501 29.3555 17.522 29.3555C16.9751 29.3555 16.4283 29.3555 15.8813 29.3555C14.1622 29.3359 12.4434 29.3555 10.7251 29.4141C7.57789 30.5326 6.46461 32.7006 7.38525 35.918C8.00639 37.2159 9.00249 38.0948 10.3735 38.5547C17.302 38.6905 24.2356 38.7491 31.1743 38.7305C37.9713 38.7305 44.7486 38.6914 51.5063 38.6133C53.1444 38.5346 53.9647 39.2768 53.9673 40.8398C39.6704 40.8594 25.3735 40.8398 11.0767 40.7812C7.84402 40.1272 5.59792 38.2718 4.33838 35.2148C3.98452 33.7723 3.76967 32.327 3.69385 30.8789C5.2277 27.357 7.92302 25.5601 11.7798 25.4883Z" fill="#B7E446"/>
<path fill-rule="evenodd" clip-rule="evenodd" d="M15.8814 29.3555C15.8814 30.0196 15.8814 30.6836 15.8814 31.3477C14.2013 31.3281 12.5215 31.3477 10.8423 31.4063C9.21355 32.1444 8.64715 33.3749 9.14311 35.0977C9.52087 35.8269 10.0873 36.3543 10.8423 36.6797C24.1626 36.7383 37.4829 36.7579 50.8033 36.7383C50.9706 37.3975 51.205 38.0226 51.5064 38.6133C44.7487 38.6915 37.9714 38.7305 31.1744 38.7305C24.2357 38.7491 17.3021 38.6905 10.3736 38.5547C9.00253 38.0949 8.00644 37.216 7.3853 35.918C6.46465 32.7006 7.57793 30.5326 10.7251 29.4141C12.4435 29.3555 14.1623 29.3359 15.8814 29.3555Z" fill="#DEE1E0"/>
<path fill-rule="evenodd" clip-rule="evenodd" d="M15.8814 29.3555C16.4283 29.3555 16.9751 29.3555 17.522 29.3555C17.522 31.1133 17.522 32.8711 17.522 34.6289C17.0992 34.8555 16.6499 35.0509 16.1743 35.2148C16.0839 35.1979 16.0057 35.1588 15.94 35.0977C15.8814 33.8483 15.8618 32.5983 15.8814 31.3477C15.8814 30.6836 15.8814 30.0196 15.8814 29.3555Z" fill="#D93D29"/>
<path fill-rule="evenodd" clip-rule="evenodd" d="M17.522 29.3555C18.8501 29.3555 20.1783 29.3555 21.5063 29.3555C21.5063 30.0196 21.5063 30.6836 21.5063 31.3477C21.5438 32.6268 21.5048 33.8963 21.3892 35.1562C20.4894 34.902 19.591 34.609 18.6938 34.2773C18.3031 34.3945 17.9124 34.5117 17.522 34.6289C17.522 32.8711 17.522 31.1133 17.522 29.3555Z" fill="#EF5227"/>
<path fill-rule="evenodd" clip-rule="evenodd" d="M21.5063 29.3555C31.4673 29.3555 41.4282 29.3555 51.3892 29.3555C51.1701 30.0125 50.9748 30.6766 50.8032 31.3477C41.0376 31.3477 31.2719 31.3477 21.5063 31.3477C21.5063 30.6836 21.5063 30.0196 21.5063 29.3555Z" fill="#DEE1E1"/>
<path opacity="0.992" fill-rule="evenodd" clip-rule="evenodd" d="M3.69372 30.8789C3.76954 32.327 3.98439 33.7723 4.33825 35.2148C5.59779 38.2718 7.84389 40.1272 11.0765 40.7812C25.3734 40.8398 39.6703 40.8594 53.9672 40.8398C53.8979 41.5723 53.5463 42.1192 52.9125 42.4805C38.5393 42.6359 24.1643 42.6359 9.78747 42.4805C5.11784 40.9973 2.91081 37.7943 3.16638 32.8711C3.25144 32.179 3.42722 31.515 3.69372 30.8789Z" fill="#ACD440"/>
<path opacity="0.999" fill-rule="evenodd" clip-rule="evenodd" d="M15.8812 31.3477C15.8616 32.5983 15.8812 33.8483 15.9398 35.0977C16.0055 35.1588 16.0837 35.1979 16.1741 35.2149C16.6497 35.0509 17.099 34.8556 17.5218 34.6289C17.9123 34.5117 18.303 34.3945 18.6937 34.2774C19.5909 34.609 20.4892 34.902 21.389 35.1563C21.5046 33.8963 21.5437 32.6268 21.5062 31.3477C31.2718 31.3477 41.0375 31.3477 50.803 31.3477C50.6443 32.2386 50.5271 33.1371 50.4515 34.043C50.5366 34.9466 50.6538 35.845 50.803 36.7383C37.4827 36.7579 24.1623 36.7383 10.8421 36.6797C10.087 36.3543 9.52065 35.8269 9.14289 35.0977C8.64693 33.3749 9.21333 32.1444 10.8421 31.4063C12.5213 31.3477 14.2011 31.3281 15.8812 31.3477Z" fill="#F0F1F1"/>
<path opacity="0.997" fill-rule="evenodd" clip-rule="evenodd" d="M9.7876 42.4803C24.1644 42.6357 38.5394 42.6357 52.9126 42.4803C53.9753 42.4357 55.0299 42.4942 56.0767 42.6561C57.311 43.4442 57.5648 44.4793 56.8384 45.7616C56.2447 46.3801 55.522 46.6144 54.6704 46.4647C51.0376 46.4647 47.4048 46.4647 43.772 46.4647C43.7329 46.4647 43.6938 46.4647 43.6548 46.4647C41.8394 46.348 40.0035 46.3088 38.147 46.3475C28.0492 46.3085 17.971 46.3476 7.9126 46.4647C5.40611 46.9237 4.03892 48.4276 3.81104 50.9764C3.91964 53.6555 5.28682 55.2571 7.9126 55.7811C23.5181 55.8787 39.104 55.8591 54.6704 55.7225C56.3919 55.5694 57.2513 56.3506 57.2485 58.0662C40.8392 58.1235 24.433 58.065 8.02979 57.8905C4.17052 56.8048 1.92443 54.2853 1.2915 50.3319C1.27162 49.1005 1.21302 47.8896 1.11572 46.6991C2.40562 44.4895 4.31968 43.1418 6.85791 42.6561C7.82961 42.5173 8.80616 42.4587 9.7876 42.4803Z" fill="#EE5227"/>
<path fill-rule="evenodd" clip-rule="evenodd" d="M7.9126 46.4648C17.9517 46.4648 27.9907 46.4648 38.0298 46.4648C38.0298 47.0898 38.0298 47.7149 38.0298 48.3398C27.9907 48.3203 17.9516 48.3398 7.9126 48.3984C5.83602 49.213 5.26961 50.6388 6.21338 52.6758C6.55568 53.0967 6.96584 53.4287 7.44385 53.6719C22.9841 53.8471 38.531 53.9057 54.0845 53.8477C54.2796 54.4721 54.4749 55.0972 54.6704 55.7227C39.104 55.8593 23.5181 55.8789 7.9126 55.7812C5.28682 55.2573 3.91964 53.6557 3.81104 50.9766C4.03892 48.4277 5.40611 46.9239 7.9126 46.4648Z" fill="#DEDEDD"/>
<path fill-rule="evenodd" clip-rule="evenodd" d="M38.147 46.3474C40.0035 46.3088 41.8394 46.3479 43.6548 46.4646C42.4047 46.4646 41.1548 46.4646 39.9048 46.4646C39.9048 48.2224 39.9048 49.9802 39.9048 51.7381C39.3763 51.9209 38.8489 52.1162 38.3228 52.324C38.2331 52.3158 38.1745 52.2768 38.147 52.2068C38.147 50.2536 38.147 48.3006 38.147 46.3474Z" fill="#F9A819"/>
<path fill-rule="evenodd" clip-rule="evenodd" d="M43.6548 46.4648C43.6744 48.3793 43.6548 50.2934 43.5962 52.207C43.5304 52.2682 43.4523 52.3072 43.3618 52.3242C42.5349 51.977 41.6951 51.6645 40.8423 51.3867C40.5271 51.5047 40.2146 51.6219 39.9048 51.7383C39.9048 49.9805 39.9048 48.2227 39.9048 46.4648C41.1548 46.4648 42.4047 46.4648 43.6548 46.4648Z" fill="#FCCD0A"/>
<path fill-rule="evenodd" clip-rule="evenodd" d="M43.772 46.4648C47.4048 46.4648 51.0376 46.4648 54.6704 46.4648C54.4749 47.0903 54.2796 47.7154 54.0845 48.3398C50.647 48.3398 47.2094 48.3398 43.772 48.3398C43.772 47.7149 43.772 47.0898 43.772 46.4648Z" fill="#DEE1E1"/>
<path opacity="0.962" fill-rule="evenodd" clip-rule="evenodd" d="M1.11572 46.6992C1.21302 47.8897 1.27162 49.1006 1.2915 50.332C1.92443 54.2855 4.17052 56.805 8.02979 57.8906C24.433 58.0651 40.8392 58.1237 57.2485 58.0664C57.0704 58.9106 56.5626 59.438 55.7251 59.6484C39.6704 59.7266 23.6157 59.7266 7.56104 59.6484C3.45405 58.9591 0.914989 56.5958 -0.0561523 52.5586C-0.0561523 51.5821 -0.0561523 50.6054 -0.0561523 49.6289C0.169829 48.5904 0.560453 47.6137 1.11572 46.6992Z" fill="#D83723"/>
<path opacity="0.999" fill-rule="evenodd" clip-rule="evenodd" d="M43.6547 46.4648C43.6938 46.4648 43.7329 46.4648 43.7719 46.4648C43.7719 47.0898 43.7719 47.7149 43.7719 48.3398C47.2094 48.3398 50.647 48.3398 54.0844 48.3398C53.6204 50.1745 53.6204 52.0105 54.0844 53.8477C38.531 53.9057 22.984 53.8471 7.44381 53.6719C6.96581 53.4287 6.55565 53.0967 6.21334 52.6758C5.26957 50.6388 5.83599 49.213 7.91256 48.3984C17.9515 48.3398 27.9906 48.3203 38.0297 48.3398C37.9913 49.6499 38.0303 50.9389 38.1469 52.207C38.1745 52.277 38.2331 52.316 38.3227 52.3242C38.8489 52.1164 39.3762 51.9211 39.9047 51.7383C40.2146 51.6219 40.527 51.5047 40.8422 51.3867C41.695 51.6645 42.5349 51.977 43.3618 52.3242C43.4522 52.3072 43.5304 52.2682 43.5962 52.207C43.6547 50.2934 43.6743 48.3793 43.6547 46.4648Z" fill="#F0F1F1"/>
<path fill-rule="evenodd" clip-rule="evenodd" d="M7.9126 46.4648C17.971 46.3477 28.0492 46.3086 38.147 46.3476C38.147 48.3008 38.147 50.2538 38.147 52.207C38.0304 50.9389 37.9913 49.6498 38.0298 48.3398C38.0298 47.7148 38.0298 47.0898 38.0298 46.4648C27.9907 46.4648 17.9517 46.4648 7.9126 46.4648Z" fill="#EFAF7D"/>
</g>
<defs>
<clipPath id="clip0_19176_8004">
<rect width="60" height="60" fill="white" transform="translate(0.00244141)"/>
</clipPath>
</defs>
</svg>
