<svg width="695" height="564" viewBox="0 0 695 564" fill="none" xmlns="http://www.w3.org/2000/svg">
<g clip-path="url(#clip0_12311_16827)">
<path d="M574.718 277.506C580.283 258.791 570.063 239.217 551.891 233.784C533.719 228.352 514.476 239.12 508.912 257.835C503.347 276.549 513.567 296.124 531.739 301.556C549.911 306.988 569.154 296.221 574.718 277.506Z" fill="#FFDD33"/>
<path d="M513.603 306.752L544.594 316.016L552.502 289.419L521.512 280.155L513.603 306.752Z" fill="#FFDD33"/>
<path d="M540.935 246.97C544.679 246.79 547.606 244.377 547.473 241.579C547.339 238.782 544.196 236.66 540.452 236.84C536.707 237.019 533.78 239.432 533.914 242.23C534.047 245.027 537.19 247.149 540.935 246.97Z" fill="white"/>
<path d="M509.868 315.079L543.664 325.181L547.618 311.883L513.822 301.78L509.868 315.079Z" fill="#0054A6"/>
<path d="M515.865 333.157L530.77 337.56L543.014 326.752L509.211 316.611L515.865 333.157Z" fill="#0054A6"/>
<path d="M507.575 317.692L543.922 328.557L545.253 324.081L508.906 313.216L507.575 317.692Z" fill="#002547"/>
<path d="M437.218 401.075H267.672C257.025 401.075 248.508 392.535 248.508 381.861V104.448C248.508 93.773 257.025 85.2332 267.672 85.2332H437.218C447.865 85.2332 456.382 93.773 456.382 104.448V381.861C456.382 392.402 447.865 401.075 437.218 401.075Z" fill="white"/>
<path d="M428.299 392.002H276.851C266.205 392.002 257.688 383.462 257.688 372.787V113.522C257.688 102.847 266.205 94.3069 276.851 94.3069H428.299C438.945 94.3069 447.462 102.847 447.462 113.522V372.787C447.462 383.462 438.812 392.002 428.299 392.002Z" fill="#0054A6"/>
<path d="M385.979 239.351H319.039V246.023H385.979V239.351Z" fill="#2693DD"/>
<path d="M384.642 209.44C402.364 191.671 402.364 162.861 384.642 145.092C366.92 127.323 338.186 127.323 320.464 145.092C302.742 162.861 302.742 191.671 320.464 209.441C338.186 227.21 366.92 227.21 384.642 209.44Z" fill="#2693DD"/>
<path d="M373.601 191.314L352.574 198.653L331.414 191.314V165.695H373.601V191.314Z" fill="#002547"/>
<path d="M352.574 173.968L312.25 165.695L352.574 157.422L392.898 165.695L352.574 173.968Z" fill="#002547"/>
<path d="M354.963 165.695C354.963 167.029 353.899 168.23 352.435 168.23C350.971 168.23 349.906 167.162 349.906 165.695C349.906 164.36 350.971 163.159 352.435 163.159C353.899 163.159 354.963 164.227 354.963 165.695Z" fill="#001728"/>
<path d="M367.343 191.982H366.012V172.1L352.305 166.229L352.837 165.028L367.343 171.299V191.982Z" fill="#001728"/>
<path d="M368.139 201.189H365.078V192.115C365.078 191.314 365.744 190.647 366.542 190.647C367.341 190.647 368.006 191.314 368.006 192.115V201.189H368.139Z" fill="#001728"/>
<path d="M352.571 112.321C363.484 112.321 366.811 100.445 375.993 94.3069H352.571H329.148C338.331 100.445 341.658 112.321 352.571 112.321Z" fill="#D6EBFF"/>
<path d="M295.081 462.589H185.82V288.455C185.82 274.178 197.265 262.702 211.505 262.702H346.45L320.766 334.758V436.969C320.899 451.113 309.32 462.589 295.081 462.589Z" fill="white"/>
<path d="M283.506 394.003H222.82V401.075H283.506V394.003Z" fill="#002547"/>
<path d="M255.292 409.482H222.82V416.554H255.292V409.482Z" fill="#002547"/>
<path d="M275.916 409.482H259.68V416.554H275.916V409.482Z" fill="#002547"/>
<path d="M167.591 462.589C153.351 462.589 141.906 451.114 141.906 436.836H264.608C264.608 451.114 276.053 462.589 290.293 462.589H167.591Z" fill="#2693DD"/>
<path d="M372.143 334.758H320.906V288.455C320.906 274.178 332.351 262.702 346.591 262.702C360.831 262.702 372.276 274.178 372.276 288.455V334.758H372.143Z" fill="#2693DD"/>
<path d="M150.027 274.979C157.48 267.506 169.59 267.373 177.176 274.712L232.405 327.552L202.328 357.709L149.628 302.333C142.441 294.594 142.574 282.451 150.027 274.979Z" fill="#FFDD33"/>
<path d="M150.027 274.979C153.354 271.643 162.137 274.845 169.59 282.318L224.02 335.825L210.579 349.302L157.213 294.727C149.894 287.121 146.7 278.315 150.027 274.979Z" fill="#E0BC27"/>
<path d="M202.328 357.575L232.405 327.419C232.405 327.419 235.865 332.623 239.99 339.695C242.652 344.232 245.58 349.436 247.975 354.64C252.367 364.114 255.162 373.321 251.568 376.79C248.108 380.259 239.458 377.724 230.275 373.588C216.834 367.45 202.328 357.575 202.328 357.575Z" fill="#D4ECFF"/>
<path d="M230.273 373.588C230.806 372.12 231.471 370.786 232.27 369.451C235.996 363.18 241.452 357.976 247.973 354.506C252.365 363.98 255.16 373.187 251.567 376.657C248.106 380.259 239.456 377.724 230.273 373.588Z" fill="#002547"/>
<path d="M232.94 336.359C235.202 334.091 234.936 330.088 232.407 327.419L224.156 335.692C226.685 338.361 230.677 338.628 232.94 336.359Z" fill="#FFDD33"/>
<path d="M211.252 358.243C213.515 355.974 213.248 351.971 210.72 349.302L202.469 357.575C204.864 360.244 208.857 360.511 211.252 358.243Z" fill="#FFDD33"/>
<path d="M222.023 347.301C225.749 343.564 226.681 338.494 224.019 335.825L210.578 349.302C213.24 351.837 218.297 351.037 222.023 347.301Z" fill="#E0BC27"/>
<path d="M210.042 48.5385V136.606C210.042 142.744 205.118 147.681 198.996 147.681H65.249C59.1272 147.681 54.2031 142.744 54.2031 136.606V48.5385C54.2031 42.4005 59.1272 37.4634 65.249 37.4634H198.996C205.118 37.4634 210.042 42.5339 210.042 48.5385Z" fill="#2693DD"/>
<path d="M210.042 48.5385V62.149H54.2031V48.5385C54.2031 42.4005 59.1272 37.4634 65.249 37.4634H198.996C205.118 37.4634 210.042 42.5339 210.042 48.5385Z" fill="#E0BC27"/>
<path d="M193.269 30.6582V118.726C193.269 124.864 188.345 129.801 182.223 129.801H48.4756C42.3538 129.801 37.4297 124.864 37.4297 118.726V30.6582C37.4297 24.5201 42.3538 19.583 48.4756 19.583H182.223C188.345 19.583 193.269 24.5201 193.269 30.6582Z" fill="white"/>
<path d="M193.269 30.6582V44.2686H37.4297V30.6582C37.4297 24.5201 42.3538 19.583 48.4756 19.583H182.223C188.345 19.583 193.269 24.5201 193.269 30.6582Z" fill="#FFDD33"/>
<path d="M183.026 63.3499H47.0156V91.5048H183.026V63.3499Z" fill="#2693DD"/>
<path d="M183.023 109.385H148.422V113.655H183.023V109.385Z" fill="#2693DD"/>
<path d="M181.294 51.7412H151.883V57.4789H181.294V51.7412Z" fill="#2693DD"/>
<path d="M91.332 98.0432H47.0156V113.655H91.332V98.0432Z" fill="#2693DD"/>
<path d="M180.631 36.3959H166.525C164.129 36.3959 162.133 34.3943 162.133 31.9925C162.133 29.5906 164.129 27.5891 166.525 27.5891H180.631C183.027 27.5891 185.023 29.5906 185.023 31.9925C185.023 34.3943 183.027 36.3959 180.631 36.3959Z" fill="#E0BC27"/>
<g opacity="0.4">
<path d="M488.047 489.143C488.047 493.546 489.777 497.816 492.838 500.885C495.899 503.954 500.157 505.689 504.549 505.689C508.941 505.689 513.199 503.954 516.26 500.885L560.177 456.851L604.095 500.885C610.616 507.424 621.129 507.424 627.517 500.885C630.711 497.683 632.308 493.546 632.308 489.143C632.308 484.739 630.578 480.469 627.517 477.4L560.177 409.882L492.838 477.4C489.644 480.603 488.047 484.739 488.047 489.143Z" fill="#0054A6"/>
</g>
<path d="M581.734 433.1C581.734 436.036 582.932 438.838 584.928 440.973C586.925 443.108 589.852 444.175 592.78 444.175C595.708 444.175 598.503 442.974 600.632 440.973L629.91 411.617L659.188 440.973C663.447 445.243 670.5 445.243 674.892 440.973C677.021 438.838 678.086 436.036 678.086 433.1C678.086 430.164 676.888 427.362 674.892 425.227L629.91 380.126L584.928 425.227C582.932 427.362 581.734 430.164 581.734 433.1Z" fill="#FFD433"/>
</g>
<defs>
<clipPath id="clip0_12311_16827">
<rect width="695" height="564" fill="white"/>
</clipPath>
</defs>
</svg>
