<svg width="80" height="80" viewBox="0 0 80 80" fill="none" xmlns="http://www.w3.org/2000/svg">
<g id="choose-qbatch-as-your-growth-partner_efficient-talent-pool 1" clip-path="url(#clip0_6034_17351)">
<g id="Group">
<path id="Vector" d="M66.6996 12.2996L39.2996 1.59961L12.2996 13.2996L1.59961 40.6996L13.3996 67.5996L40.7996 78.2996L67.6996 66.4996L78.3996 39.0996L66.6996 12.2996ZM72.2996 39.3996L72.1996 39.6996V39.1996L72.2996 39.3996ZM71.2996 37.1996H46.7996L63.8996 20.0996L71.2996 37.1996ZM62.4996 16.9996L62.1996 16.6996L62.3996 16.7996L62.4996 16.9996ZM42.7996 33.1996V9.09961L60.0996 15.8996L42.7996 33.1996ZM39.3996 7.69961L39.6996 7.79961H39.1996L39.3996 7.69961ZM37.1996 33.1996L20.0996 16.0996L37.1996 8.69961V33.1996ZM16.9996 17.4996L16.6996 17.7996L16.7996 17.5996L16.9996 17.4996ZM15.8996 19.8996L33.1996 37.1996H9.09961L15.8996 19.8996ZM7.79961 40.3996V40.8996L7.69961 40.6996L7.79961 40.3996ZM8.69961 42.7996H33.1996L16.0996 59.8996L8.69961 42.7996ZM17.4996 62.9996L17.7996 63.2996L17.5996 63.1996L17.4996 62.9996ZM37.1996 46.7996V70.8996L19.8996 64.0996L37.1996 46.7996ZM40.5996 72.2996L40.2996 72.1996H40.7996L40.5996 72.2996ZM42.7996 46.7996L59.8996 63.8996L42.7996 71.2996V46.7996ZM62.9996 62.4996L63.2996 62.1996L63.1996 62.3996L62.9996 62.4996ZM64.0996 60.0996L46.7996 42.7996H70.8996L64.0996 60.0996Z" fill="#839299"/>
<path id="Vector_2" d="M55.7008 39.9998C55.7008 48.6998 48.7008 55.6998 40.0008 55.6998C31.3008 55.6998 24.3008 48.6998 24.3008 39.9998C24.3008 31.2998 31.3008 24.2998 40.0008 24.2998C48.7008 24.2998 55.7008 31.2998 55.7008 39.9998Z" fill="#0054A6"/>
<path id="Vector_3" d="M46.7992 36.7004C46.7992 40.5004 43.6992 43.5004 39.9992 43.5004C36.2992 43.5004 33.1992 40.4004 33.1992 36.7004C33.1992 32.9004 36.2992 29.9004 39.9992 29.9004C43.6992 29.9004 46.7992 33.0004 46.7992 36.7004Z" fill="#FED2A4"/>
<path id="Vector_4" d="M29.1992 51.3C31.9992 54 35.7992 55.7 39.9992 55.7C44.1992 55.7 47.9992 54 50.7992 51.4C49.0992 47.1 44.8992 44 39.9992 44C35.0992 44 30.8992 47.1 29.1992 51.3Z" fill="#FFDD33"/>
<path id="Vector_5" d="M46.8996 6.9C46.8996 10.7 43.7996 13.8 39.9996 13.8C36.1996 13.8 33.0996 10.7 33.0996 6.9C33.0996 3.1 36.1996 0 39.9996 0C43.7996 0 46.8996 3.1 46.8996 6.9Z" fill="#0054A6"/>
<path id="Vector_6" d="M46.8996 73.1002C46.8996 76.9002 43.7996 80.0002 39.9996 80.0002C36.1996 80.0002 33.0996 76.9002 33.0996 73.1002C33.0996 69.3002 36.1996 66.2002 39.9996 66.2002C43.7996 66.2002 46.8996 69.2002 46.8996 73.1002Z" fill="#0054A6"/>
<path id="Vector_7" d="M79.9992 39.9996C79.9992 43.7996 76.8992 46.8996 73.0992 46.8996C69.2992 46.8996 66.1992 43.7996 66.1992 39.9996C66.1992 36.1996 69.2992 33.0996 73.0992 33.0996C76.8992 33.0996 79.9992 36.1996 79.9992 39.9996Z" fill="#0054A6"/>
<path id="Vector_8" d="M13.9 39.9996C13.9 43.7996 10.8 46.8996 7 46.8996C3.2 46.8996 0 43.7996 0 39.9996C0 36.1996 3.1 33.0996 6.9 33.0996C10.7 33.0996 13.9 36.1996 13.9 39.9996Z" fill="#0054A6"/>
<path id="Vector_9" d="M68.2996 11.6998C65.5996 8.9998 61.1996 8.9998 58.4996 11.6998C55.7996 14.3998 55.7996 18.7998 58.4996 21.4998C61.1996 24.1998 65.5996 24.1998 68.2996 21.4998C70.9996 18.7998 70.9996 14.3998 68.2996 11.6998Z" fill="#0054A6"/>
<path id="Vector_10" d="M21.5008 58.4996C18.8008 55.7996 14.4008 55.7996 11.7008 58.4996C9.00078 61.1996 9.00078 65.5996 11.7008 68.2996C14.4008 70.9996 18.8008 70.9996 21.5008 68.2996C24.2008 65.5996 24.2008 61.1996 21.5008 58.4996Z" fill="#0054A6"/>
<path id="Vector_11" d="M21.5008 11.6998C18.8008 8.9998 14.4008 8.9998 11.7008 11.6998C9.00078 14.3998 9.00078 18.7998 11.7008 21.4998C14.4008 24.1998 18.8008 24.1998 21.5008 21.4998C24.2008 18.7998 24.2008 14.3998 21.5008 11.6998Z" fill="#0054A6"/>
<path id="Vector_12" d="M68.2996 58.4996C65.5996 55.7996 61.1996 55.7996 58.4996 58.4996C55.7996 61.1996 55.7996 65.5996 58.4996 68.2996C61.1996 70.9996 65.5996 70.9996 68.2996 68.2996C70.9996 65.5996 70.9996 61.1996 68.2996 58.4996Z" fill="#0054A6"/>
</g>
</g>
<defs>
<clipPath id="clip0_6034_17351">
<rect width="80" height="80" fill="white"/>
</clipPath>
</defs>
</svg>
