<svg width="420" height="280" viewBox="0 0 420 280" fill="none" xmlns="http://www.w3.org/2000/svg">
<g clip-path="url(#clip0_18062_9983)">
<path opacity="0.1" d="M75.6008 251.754C59.8211 241.604 42.8341 229.864 37.9262 211.756C35.3099 202.103 38.8138 189.058 48.69 187.478C57.9882 185.991 67.5329 195.665 75.9665 191.477C85.5425 186.721 85.2356 174.48 82.5717 165.838C80.7007 159.769 78.2305 153.884 75.2088 148.297C70.7439 140.043 65.0958 132.465 60.7709 124.136C56.446 115.807 53.4466 106.364 54.8774 97.0894C56.3082 87.8141 63.0881 78.9353 72.3365 77.3421C83.2134 75.4684 93.135 83.5458 100.62 91.6568C106.869 98.4272 114.217 107.98 123.752 110.093C133.445 112.242 142.128 102.171 145.609 94.0424C149.972 83.8566 149.837 72.3906 152.268 61.7069C155.004 49.6832 159.233 32.9453 169.29 25.1154C177.786 18.5018 185.196 14.8064 196.416 16.8481C212.753 19.8206 217.503 36.7802 220.239 50.8956C222.643 63.2951 223.221 78.0595 233.085 87.3958C236.202 90.3453 240.34 91.9587 244.469 93.1263C263.234 98.434 280.093 78.8373 292.766 67.5511C297.598 63.2486 302.429 58.9461 307.26 54.6436C317.43 45.5868 325.648 33.3032 340.154 30.7798C347.935 29.4263 357.125 33.2875 359.239 40.9001C362.354 52.1304 355.33 62.2451 347.852 69.9216C339.526 78.4694 331.754 87.0637 325.06 97.0401C322.155 101.369 319.349 106.767 321.417 111.553C322.615 114.327 325.289 116.246 328.145 117.233C335.071 119.626 339.219 118.12 345.804 116.35C351.222 114.894 356.559 114.535 360.685 119.039C374.488 134.105 344.696 151.012 336.558 159.26C333.012 162.854 329.235 166.968 329.122 172.015C328.932 180.529 339.515 185.561 347.899 184.06C360.296 181.84 368.975 171.375 381.959 177.863C391.51 182.637 391.598 196.772 388.59 205.576C386.056 212.993 381.18 219.375 375.946 225.208C362.725 239.943 346.813 252.011 330.442 263.142" fill="#839299"/>
<path d="M210.807 244.952C282.034 244.952 339.775 242.738 339.775 240.008C339.775 237.278 282.034 235.064 210.807 235.064C139.581 235.064 81.8398 237.278 81.8398 240.008C81.8398 242.738 139.581 244.952 210.807 244.952Z" fill="#8EB3D7"/>
<path d="M304.84 206.239H105.617C102.375 206.239 99.7461 203.61 99.7461 200.368V79.4413C99.7461 76.1989 102.375 73.5703 105.617 73.5703H304.84C308.082 73.5703 310.711 76.1989 310.711 79.4413V200.368C310.712 203.61 308.083 206.239 304.84 206.239Z" fill="#D7D8DC"/>
<path d="M310.712 186.254H99.7461V59.456C99.7461 56.2136 102.375 53.585 105.617 53.585H304.84C308.082 53.585 310.711 56.2136 310.711 59.456L310.712 186.254Z" fill="#494982"/>
<path d="M303.223 178.928V60.8613L106.86 60.8613L106.86 178.928L303.223 178.928Z" fill="#D4F9FF"/>
<path d="M303.366 60.8857H107.004V71.0212H303.366V60.8857Z" fill="#D7D8DC"/>
<path d="M116.136 66.6112C116.136 67.5139 115.405 68.2458 114.502 68.2458C113.599 68.2458 112.867 67.5139 112.867 66.6112C112.867 65.7085 113.599 64.9766 114.502 64.9766C115.405 64.9766 116.136 65.7079 116.136 66.6112Z" fill="#0054A6"/>
<path d="M124.047 66.6112C124.047 67.5139 123.315 68.2458 122.412 68.2458C121.509 68.2458 120.777 67.5139 120.777 66.6112C120.777 65.7085 121.509 64.9766 122.412 64.9766C123.315 64.9766 124.047 65.7079 124.047 66.6112Z" fill="#FFD417"/>
<path d="M131.957 66.6112C131.957 67.5139 131.225 68.2458 130.322 68.2458C129.419 68.2458 128.688 67.5139 128.688 66.6112C128.688 65.7085 129.419 64.9766 130.322 64.9766C131.225 64.9766 131.957 65.7079 131.957 66.6112Z" fill="#94C420"/>
<path d="M281.827 63.9219H138.602V68.2462H281.827V63.9219Z" fill="white"/>
<path d="M299.74 66.5094L295.77 64.2168V68.8015L299.74 66.5094Z" fill="#494982"/>
<path d="M288.926 66.5094L292.896 64.2168V68.8015L288.926 66.5094Z" fill="#494982"/>
<path d="M219.095 206.238H188.871V231.321H219.095V206.238Z" fill="#D7D8DC"/>
<path d="M219.095 206.238H188.871V214.292H219.095V206.238Z" fill="#ADACB2"/>
<path d="M247.352 238.6H162.707C162.707 234.58 165.966 231.321 169.985 231.321H240.073C244.093 231.321 247.352 234.58 247.352 238.6Z" fill="#ECEDEF"/>
<path d="M77 124V34H315" stroke="#0054A6" stroke-miterlimit="10" stroke-linejoin="round" stroke-dasharray="20 20"/>
<path fill-rule="evenodd" clip-rule="evenodd" d="M77.3989 7.02324C92.0617 7.02324 103.966 18.9283 103.966 33.5892C103.966 48.2522 92.0617 60.1572 77.3989 60.1572C62.7363 60.1572 50.832 48.2522 50.832 33.5892C50.832 18.9283 62.7363 7.02324 77.3989 7.02324Z" fill="#BEDAFE"/>
<path d="M77.3989 7.02324C92.0617 7.02324 103.966 18.9283 103.966 33.5892C103.966 48.2522 92.0617 60.1572 77.3989 60.1572C62.7363 60.1572 50.832 48.2522 50.832 33.5892C50.832 18.9283 62.7363 7.02324 77.3989 7.02324Z" stroke="#0054A6" stroke-miterlimit="10" stroke-linecap="round" stroke-linejoin="round"/>
<path d="M76.5083 60.1431C67.6667 59.8512 59.9124 55.2293 55.3 48.3327C55.1482 48.1052 55 47.8757 54.8551 47.6442C54.7216 47.4308 54.591 47.2154 54.4636 46.998C52.1556 43.0605 50.832 38.4789 50.832 33.5892C50.832 28.5647 52.2307 23.8623 54.66 19.8523C59.2924 12.2068 67.6725 7.0776 77.2449 7.02324C77.2962 7.02324 77.3476 7.02324 77.3989 7.02324C77.697 7.02324 77.994 7.02727 78.2895 7.03734C87.5543 7.34332 95.6245 12.4021 100.138 19.8523C102.567 23.8623 103.966 28.5647 103.966 33.5892C103.966 38.4789 102.642 43.0605 100.334 46.998C100.093 47.4107 99.8401 47.8153 99.5771 48.2139C99.5508 48.2542 99.5244 48.2924 99.498 48.3327C94.7579 55.4206 86.6997 60.1049 77.5529 60.1572C77.5016 60.1572 77.4504 60.1572 77.3989 60.1572C77.101 60.1572 76.804 60.1512 76.5083 60.1431Z" stroke="#0054A6" stroke-miterlimit="10" stroke-linecap="round" stroke-linejoin="round"/>
<path d="M78.2903 7.03734C87.5616 7.34332 95.6304 12.4001 100.142 19.8503C102.569 23.8582 103.967 28.5607 103.967 33.5892C103.967 38.4809 102.645 43.0646 100.338 47.0021C95.7512 54.8307 87.2703 60.1009 77.5537 60.1572C77.5024 60.1572 77.4513 60.1572 77.3997 60.1572C77.1018 60.1572 76.8049 60.1512 76.5092 60.1431C76.5058 60.1391 76.5021 60.1371 76.4987 60.1351C76.3135 59.9962 76.1299 59.8553 75.9479 59.7144C75.8972 59.6741 75.8467 59.6338 75.7961 59.5936C75.399 59.2795 75.0095 58.9575 74.6274 58.6253C74.6012 58.6032 74.575 58.581 74.5489 58.5569C69.7653 54.3778 66.2044 48.8339 64.4766 42.5351C64.371 42.1506 64.2721 41.7621 64.1803 41.3716C64.1125 41.0817 64.0483 40.7919 63.9881 40.5C63.948 40.3047 63.9096 40.1094 63.8727 39.9142C63.519 38.0239 63.3278 36.0793 63.3133 34.0905C63.3129 34.0099 63.3125 33.9314 63.3125 33.8509C63.3125 33.4483 63.3197 33.0497 63.334 32.6511C63.4105 30.5254 63.6899 28.452 64.1529 26.447C64.1678 26.3826 64.1829 26.3182 64.1982 26.2537C64.2969 25.8391 64.4036 25.4264 64.5177 25.0177C64.9181 23.5845 65.4135 22.1914 65.9965 20.8447C68.0719 16.0497 71.259 11.8485 75.2317 8.56321C75.2317 8.56321 75.24 8.55516 75.244 8.55315C75.5576 8.29347 75.8759 8.03983 76.1992 7.79223C76.3552 7.67346 76.5124 7.55468 76.6706 7.43792C76.6738 7.43591 76.6769 7.4339 76.6801 7.43188C76.8659 7.295 77.0533 7.16013 77.2419 7.02727L77.2457 7.02324C77.2971 7.02324 77.3484 7.02324 77.3997 7.02324C77.6979 7.02324 77.9948 7.02727 78.2903 7.03734Z" stroke="#0054A6" stroke-miterlimit="10" stroke-linecap="round" stroke-linejoin="round"/>
<path d="M54.6562 19.851C59.2864 12.2035 67.6649 7.07833 77.2442 7.02398C77.2955 7.02398 77.3468 7.02398 77.3981 7.02398C77.6963 7.02398 77.9932 7.02801 78.2887 7.03808C87.56 7.34406 95.6288 12.4008 100.14 19.851L100.137 19.853C100.039 19.9476 99.9397 20.0423 99.8403 20.1349C99.5836 20.3764 99.3229 20.614 99.0586 20.8455C97.7636 21.9868 96.3781 23.0256 94.9142 23.9536C94.0035 24.5313 93.0626 25.0628 92.0941 25.5499C91.6597 25.7693 91.2199 25.9767 90.7746 26.176C90.7524 26.186 90.7303 26.1961 90.7082 26.2062C86.8464 27.9253 82.5918 28.9197 78.118 29.0164C77.8787 29.0204 77.6387 29.0244 77.3981 29.0244C77.1578 29.0244 76.9176 29.0204 76.6785 29.0164C72.2464 28.9197 68.0297 27.9434 64.1966 26.2545C64.1383 26.2283 64.0799 26.2021 64.0217 26.176C63.5766 25.9767 63.1366 25.7693 62.7022 25.5499C61.7339 25.0628 60.793 24.5313 59.8823 23.9536C58.4182 23.0256 57.0326 21.9868 55.7377 20.8455C55.4733 20.614 55.2129 20.3764 54.9562 20.1349C54.8565 20.0423 54.7575 19.9476 54.6593 19.853L54.6562 19.851Z" stroke="#0054A6" stroke-miterlimit="10" stroke-linecap="round" stroke-linejoin="round"/>
<path d="M100.339 47.0001C95.7503 54.8303 87.2701 60.1015 77.5533 60.1562C77.5022 60.1562 77.4509 60.1562 77.3995 60.1562C77.1014 60.1562 76.8044 60.1526 76.5089 60.1417C67.1014 59.8314 58.9318 54.6313 54.4609 47.0001L54.464 46.9982C54.5621 46.9015 54.6606 46.8066 54.7599 46.7117C54.8985 46.5803 55.0379 46.4489 55.1788 46.3193C55.2984 46.2079 55.4188 46.0984 55.54 45.9907C57.6591 44.0943 60.0259 42.4699 62.5856 41.1703C63.022 40.9476 63.4641 40.7359 63.9114 40.5333C63.937 40.5224 63.9623 40.5114 63.9877 40.4986C67.8767 38.7519 72.1665 37.7426 76.6798 37.644C76.9191 37.6385 77.1589 37.6367 77.3995 37.6367C77.6398 37.6367 77.8799 37.6385 78.1192 37.644C82.5932 37.7407 86.8476 38.7355 90.7094 40.453C90.7691 40.4804 90.8284 40.5078 90.8877 40.5333C91.3351 40.7359 91.7771 40.9476 92.2135 41.1703C94.7731 42.4699 97.1393 44.0943 99.2584 45.9907C99.3807 46.0984 99.5011 46.2079 99.6198 46.3193C99.7603 46.4489 99.9009 46.5803 100.04 46.7117C100.138 46.8066 100.237 46.9015 100.335 46.9982L100.339 47.0001Z" stroke="#0054A6" stroke-miterlimit="10" stroke-linecap="round" stroke-linejoin="round"/>
<path d="M50.832 33.5892C50.832 28.5607 52.2293 23.8582 54.657 19.8503C59.2872 12.2028 67.6657 7.0776 77.2449 7.02324C77.2962 7.02324 77.3476 7.02324 77.3989 7.02324C77.697 7.02324 77.994 7.02727 78.2895 7.03734C78.2935 7.04136 78.2973 7.04338 78.3013 7.0474C78.4865 7.1863 78.6705 7.32519 78.8527 7.46812C78.9022 7.50636 78.9517 7.54664 79.0011 7.58489C79.3962 7.89691 79.7841 8.21898 80.1644 8.54912C80.1924 8.57327 80.2202 8.59744 80.248 8.6216C84.9961 12.7684 88.5397 18.26 90.2821 24.5004C90.3244 24.6514 90.3655 24.8044 90.4055 24.9553C90.5146 25.368 90.6159 25.7867 90.7089 26.2054C90.723 26.2699 90.7371 26.3323 90.7508 26.3967C91.1673 28.3292 91.4133 30.3241 91.4723 32.3673C91.4815 32.6874 91.4861 33.0075 91.4861 33.3295C91.4861 33.4886 91.4851 33.6476 91.4829 33.8066C91.4531 35.878 91.2311 37.9052 90.8335 39.8679C90.7936 40.0631 90.7522 40.2584 90.7089 40.4537C90.6451 40.7415 90.5772 41.0294 90.5058 41.3132C90.083 43.0022 89.5291 44.6388 88.8557 46.2129C86.7799 51.0623 83.5685 55.3119 79.5567 58.6253C79.243 58.885 78.9246 59.1386 78.6013 59.3862C78.4441 59.507 78.2856 59.6258 78.1262 59.7425C78.1236 59.7446 78.1212 59.7466 78.1188 59.7486C77.9325 59.8855 77.7449 60.0203 77.5559 60.1552L77.5529 60.1572C77.5016 60.1572 77.4504 60.1572 77.3989 60.1572C77.101 60.1572 76.804 60.1512 76.5083 60.1431C67.1008 59.8331 58.9313 54.6315 54.4605 47.0021C52.154 43.0646 50.832 38.4809 50.832 33.5892Z" stroke="#0054A6" stroke-miterlimit="10" stroke-linecap="round" stroke-linejoin="round"/>
<path d="M77.3984 7.02324V60.1572" stroke="#0054A6" stroke-miterlimit="10" stroke-linecap="round" stroke-linejoin="round"/>
<path fill-rule="evenodd" clip-rule="evenodd" d="M300.985 52.5615C294.588 52.5615 289.395 47.3603 289.395 40.9521C289.395 34.5439 294.588 29.3427 300.985 29.3427C301.105 29.3427 301.226 29.3446 301.346 29.3485C302.631 23.3445 308.9 16.4431 308.9 16.4431C310.238 16.0872 315.844 16.4431 317.294 16.4431C326.296 16.4431 333.604 23.7662 333.604 32.7837V36.219C334.442 36.219 335.293 36.3486 336.132 36.6232C340.411 38.0198 342.753 42.6349 341.359 46.9212C340.237 50.37 337.039 52.5615 333.604 52.5615H300.985Z" fill="#B1CEF3"/>
<path d="M300.985 52.5615C294.588 52.5615 289.395 47.3603 289.395 40.9521C289.395 34.5439 294.588 29.3427 300.985 29.3427C301.105 29.3427 301.226 29.3446 301.346 29.3485C302.631 23.3445 308.9 16.4431 308.9 16.4431C310.238 16.0872 315.844 16.4431 317.294 16.4431C326.296 16.4431 333.604 23.7662 333.604 32.7837V36.219C334.442 36.219 335.293 36.3486 336.132 36.6232C340.411 38.0198 342.753 42.6349 341.359 46.9212C340.237 50.37 337.039 52.5615 333.604 52.5615H300.985Z" stroke="#0054A6" stroke-miterlimit="10" stroke-linecap="round" stroke-linejoin="round"/>
<path fill-rule="evenodd" clip-rule="evenodd" d="M292.588 52.5635C286.193 52.5635 281 47.3614 281 40.9525C281 34.5455 286.193 29.3435 292.588 29.3435C292.709 29.3435 292.829 29.3454 292.95 29.3491C294.528 21.9782 301.074 16.4448 308.899 16.4448C317.9 16.4448 325.209 23.7668 325.209 32.7852V36.2193C326.047 36.2193 326.898 36.3492 327.736 36.6241C332.015 38.0211 334.357 42.6357 332.962 46.9228C331.842 50.3701 328.643 52.5616 325.209 52.5635H292.588Z" fill="#BEDAFE"/>
<path d="M292.588 52.5635C286.193 52.5635 281 47.3614 281 40.9525C281 34.5455 286.193 29.3435 292.588 29.3435C292.709 29.3435 292.829 29.3454 292.95 29.3491C294.528 21.9782 301.074 16.4448 308.899 16.4448C317.9 16.4448 325.209 23.7668 325.209 32.7852V36.2193C326.047 36.2193 326.898 36.3492 327.736 36.6241C332.015 38.0211 334.357 42.6357 332.962 46.9228C331.842 50.3701 328.643 52.5616 325.209 52.5635H292.588Z" stroke="#0054A6" stroke-miterlimit="10" stroke-linecap="round" stroke-linejoin="round"/>
<path fill-rule="evenodd" clip-rule="evenodd" d="M287.509 8.00046C294.801 8.00046 300.72 13.9198 300.72 21.2121C300.72 28.5045 294.801 34.4238 287.509 34.4238C280.216 34.4238 274.297 28.5045 274.297 21.2121C274.297 13.9198 280.216 8.00046 287.509 8.00046Z" fill="#FFD240"/>
<path d="M287.509 8.00046C294.801 8.00046 300.72 13.9198 300.72 21.2121C300.72 28.5045 294.801 34.4238 287.509 34.4238C280.216 34.4238 274.297 28.5045 274.297 21.2121C274.297 13.9198 280.216 8.00046 287.509 8.00046Z" stroke="#0054A6" stroke-miterlimit="10" stroke-linecap="round" stroke-linejoin="round"/>
<path fill-rule="evenodd" clip-rule="evenodd" d="M293.202 21.2117L284.656 26.5361V15.8888L293.202 21.2117Z" fill="white"/>
<path d="M293.202 21.2117L284.656 26.5361V15.8888L293.202 21.2117Z" stroke="#0054A6" stroke-miterlimit="10" stroke-linecap="round" stroke-linejoin="round"/>
<path fill-rule="evenodd" clip-rule="evenodd" d="M104.53 135.527L90.3014 146H61.8456L47.6172 135.527V128.698L61.8456 125.054H90.3014L104.53 128.698V135.527Z" fill="#C5BEBE"/>
<path d="M104.53 135.527L90.3014 146H61.8456L47.6172 135.527V128.698L61.8456 125.054H90.3014L104.53 128.698V135.527Z" stroke="#0054A6" stroke-miterlimit="10" stroke-linecap="round" stroke-linejoin="round"/>
<path fill-rule="evenodd" clip-rule="evenodd" d="M65.7527 140.875C66.7795 140.875 67.6138 141.709 67.6138 142.737C67.6138 143.764 66.7795 144.599 65.7527 144.599C64.7249 144.599 63.8906 143.764 63.8906 142.737C63.8906 141.709 64.7249 140.875 65.7527 140.875Z" fill="#DC2E2E"/>
<path d="M65.7527 140.875C66.7795 140.875 67.6138 141.709 67.6138 142.737C67.6138 143.764 66.7795 144.599 65.7527 144.599C64.7249 144.599 63.8906 143.764 63.8906 142.737C63.8906 141.709 64.7249 140.875 65.7527 140.875Z" stroke="#0054A6" stroke-miterlimit="10" stroke-linecap="round" stroke-linejoin="round"/>
<path fill-rule="evenodd" clip-rule="evenodd" d="M72.3581 140.875C73.385 140.875 74.2192 141.709 74.2192 142.737C74.2192 143.764 73.385 144.599 72.3581 144.599C71.3303 144.599 70.4961 143.764 70.4961 142.737C70.4961 141.709 71.3303 140.875 72.3581 140.875Z" fill="#FFD240"/>
<path d="M72.3581 140.875C73.385 140.875 74.2192 141.709 74.2192 142.737C74.2192 143.764 73.385 144.599 72.3581 144.599C71.3303 144.599 70.4961 143.764 70.4961 142.737C70.4961 141.709 71.3303 140.875 72.3581 140.875Z" stroke="#0054A6" stroke-miterlimit="10" stroke-linecap="round" stroke-linejoin="round"/>
<path fill-rule="evenodd" clip-rule="evenodd" d="M78.9636 140.875C79.9905 140.875 80.8247 141.709 80.8247 142.737C80.8247 143.764 79.9905 144.599 78.9636 144.599C77.9358 144.599 77.1016 143.764 77.1016 142.737C77.1016 141.709 77.9358 140.875 78.9636 140.875Z" fill="#4FC761"/>
<path d="M78.9636 140.875C79.9905 140.875 80.8247 141.709 80.8247 142.737C80.8247 143.764 79.9905 144.599 78.9636 144.599C77.9358 144.599 77.1016 143.764 77.1016 142.737C77.1016 141.709 77.9358 140.875 78.9636 140.875Z" stroke="#0054A6" stroke-miterlimit="10" stroke-linecap="round" stroke-linejoin="round"/>
<path fill-rule="evenodd" clip-rule="evenodd" d="M104.529 128.698L90.3016 139.171H61.845L47.6172 128.698L61.845 118.225H90.3016L104.529 128.698Z" fill="white"/>
<path d="M104.529 128.698L90.3016 139.171H61.845L47.6172 128.698L61.845 118.225H90.3016L104.529 128.698Z" stroke="#0054A6" stroke-miterlimit="10" stroke-linecap="round" stroke-linejoin="round"/>
<path fill-rule="evenodd" clip-rule="evenodd" d="M104.529 121.639L90.3014 132.112H61.8458L47.6172 121.639V114.81L61.8458 111.166H90.3014L104.529 114.81V121.639Z" fill="#C5BEBE"/>
<path d="M104.529 121.639L90.3014 132.112H61.8458L47.6172 121.639V114.81L61.8458 111.166H90.3014L104.529 114.81V121.639Z" stroke="#0054A6" stroke-miterlimit="10" stroke-linecap="round" stroke-linejoin="round"/>
<path fill-rule="evenodd" clip-rule="evenodd" d="M65.7556 126.866C66.7831 126.866 67.6177 127.7 67.6177 128.728C67.6177 129.755 66.7831 130.59 65.7556 130.59C64.7281 130.59 63.8945 129.755 63.8945 128.728C63.8945 127.7 64.7281 126.866 65.7556 126.866Z" fill="#DC2E2E"/>
<path d="M65.7556 126.866C66.7831 126.866 67.6177 127.7 67.6177 128.728C67.6177 129.755 66.7831 130.59 65.7556 130.59C64.7281 130.59 63.8945 129.755 63.8945 128.728C63.8945 127.7 64.7281 126.866 65.7556 126.866Z" stroke="#0054A6" stroke-miterlimit="10" stroke-linecap="round" stroke-linejoin="round"/>
<path fill-rule="evenodd" clip-rule="evenodd" d="M72.3582 126.866C73.3857 126.866 74.2192 127.7 74.2192 128.728C74.2192 129.755 73.3857 130.59 72.3582 130.59C71.3296 130.59 70.4961 129.755 70.4961 128.728C70.4961 127.7 71.3296 126.866 72.3582 126.866Z" fill="#FFD240"/>
<path d="M72.3582 126.866C73.3857 126.866 74.2192 127.7 74.2192 128.728C74.2192 129.755 73.3857 130.59 72.3582 130.59C71.3296 130.59 70.4961 129.755 70.4961 128.728C70.4961 127.7 71.3296 126.866 72.3582 126.866Z" stroke="#0054A6" stroke-miterlimit="10" stroke-linecap="round" stroke-linejoin="round"/>
<path fill-rule="evenodd" clip-rule="evenodd" d="M78.9636 126.866C79.9911 126.866 80.8247 127.7 80.8247 128.728C80.8247 129.755 79.9911 130.59 78.9636 130.59C77.9351 130.59 77.1016 129.755 77.1016 128.728C77.1016 127.7 77.9351 126.866 78.9636 126.866Z" fill="#4FC761"/>
<path d="M78.9636 126.866C79.9911 126.866 80.8247 127.7 80.8247 128.728C80.8247 129.755 79.9911 130.59 78.9636 130.59C77.9351 130.59 77.1016 129.755 77.1016 128.728C77.1016 127.7 77.9351 126.866 78.9636 126.866Z" stroke="#0054A6" stroke-miterlimit="10" stroke-linecap="round" stroke-linejoin="round"/>
<path fill-rule="evenodd" clip-rule="evenodd" d="M104.53 114.812L90.3014 125.285H61.8453L47.6172 114.812L61.8453 104.339H90.3014L104.53 114.812Z" fill="white"/>
<path d="M104.53 114.812L90.3014 125.285H61.8453L47.6172 114.812L61.8453 104.339H90.3014L104.53 114.812Z" stroke="#0054A6" stroke-miterlimit="10" stroke-linecap="round" stroke-linejoin="round"/>
<path fill-rule="evenodd" clip-rule="evenodd" d="M104.529 107.753L90.3009 118.226H61.8449L47.6172 107.753V100.924L61.8449 97.2798H90.3009L104.529 100.924V107.753Z" fill="#C5BEBE"/>
<path d="M104.529 107.753L90.3009 118.226H61.8449L47.6172 107.753V100.924L61.8449 97.2798H90.3009L104.529 100.924V107.753Z" stroke="#0054A6" stroke-miterlimit="10" stroke-linecap="round" stroke-linejoin="round"/>
<path fill-rule="evenodd" clip-rule="evenodd" d="M65.7526 112.856C66.7803 112.856 67.6145 113.69 67.6145 114.718C67.6145 115.746 66.7803 116.58 65.7526 116.58C64.7249 116.58 63.8906 115.746 63.8906 114.718C63.8906 113.69 64.7249 112.856 65.7526 112.856Z" fill="#DC2E2E"/>
<path d="M65.7526 112.856C66.7803 112.856 67.6145 113.69 67.6145 114.718C67.6145 115.746 66.7803 116.58 65.7526 116.58C64.7249 116.58 63.8906 115.746 63.8906 114.718C63.8906 113.69 64.7249 112.856 65.7526 112.856Z" stroke="#0054A6" stroke-miterlimit="10" stroke-linecap="round" stroke-linejoin="round"/>
<path fill-rule="evenodd" clip-rule="evenodd" d="M72.358 112.856C73.3857 112.856 74.22 113.69 74.22 114.718C74.22 115.746 73.3857 116.58 72.358 116.58C71.3303 116.58 70.4961 115.746 70.4961 114.718C70.4961 113.69 71.3303 112.856 72.358 112.856Z" fill="#FFD240"/>
<path d="M72.358 112.856C73.3857 112.856 74.22 113.69 74.22 114.718C74.22 115.746 73.3857 116.58 72.358 116.58C71.3303 116.58 70.4961 115.746 70.4961 114.718C70.4961 113.69 71.3303 112.856 72.358 112.856Z" stroke="#0054A6" stroke-miterlimit="10" stroke-linecap="round" stroke-linejoin="round"/>
<path fill-rule="evenodd" clip-rule="evenodd" d="M78.9635 112.856C79.9912 112.856 80.8255 113.69 80.8255 114.718C80.8255 115.746 79.9912 116.58 78.9635 116.58C77.9358 116.58 77.1016 115.746 77.1016 114.718C77.1016 113.69 77.9358 112.856 78.9635 112.856Z" fill="#4FC761"/>
<path d="M78.9635 112.856C79.9912 112.856 80.8255 113.69 80.8255 114.718C80.8255 115.746 79.9912 116.58 78.9635 116.58C77.9358 116.58 77.1016 115.746 77.1016 114.718C77.1016 113.69 77.9358 112.856 78.9635 112.856Z" stroke="#0054A6" stroke-miterlimit="10" stroke-linecap="round" stroke-linejoin="round"/>
<path fill-rule="evenodd" clip-rule="evenodd" d="M104.53 100.925L90.3011 111.396H61.8452L47.6172 100.925L61.8452 90.4514H90.3011L104.53 100.925Z" fill="white"/>
<path d="M104.53 100.925L90.3011 111.396H61.8452L47.6172 100.925L61.8452 90.4514H90.3011L104.53 100.925Z" stroke="#0054A6" stroke-miterlimit="10" stroke-linecap="round" stroke-linejoin="round"/>
<path fill-rule="evenodd" clip-rule="evenodd" d="M130.38 178.274V243.93H44V178.274H130.38Z" fill="#0054A6"/>
<path fill-rule="evenodd" clip-rule="evenodd" d="M64.0552 186.18V187.658H49.2734V186.18H64.0552Z" fill="#F2A71A"/>
<path fill-rule="evenodd" clip-rule="evenodd" d="M84.4074 186.179V187.658H69.625V186.179H84.4074Z" fill="#F2A71A"/>
<path fill-rule="evenodd" clip-rule="evenodd" d="M104.759 186.179V187.658H89.9766V186.179H104.759Z" fill="#A6CCFF"/>
<path fill-rule="evenodd" clip-rule="evenodd" d="M125.107 186.179V187.657H110.324V186.179H125.107Z" fill="#0EACE2"/>
<path fill-rule="evenodd" clip-rule="evenodd" d="M74.3468 195.118V196.596H53.9961V195.118H74.3468Z" fill="#F2911C"/>
<path fill-rule="evenodd" clip-rule="evenodd" d="M97.3672 195.117V196.595H77.0156V195.117H97.3672Z" fill="#F2911C"/>
<path fill-rule="evenodd" clip-rule="evenodd" d="M110.33 203.003V204.481H74.3477V203.003H110.33Z" fill="#00BFFF"/>
<path fill-rule="evenodd" clip-rule="evenodd" d="M71.3123 203.003V204.481H53.9961V203.003H71.3123Z" fill="#00BFFF"/>
<path fill-rule="evenodd" clip-rule="evenodd" d="M78.7613 211.214V212.692H49.2734V211.214H78.7613Z" fill="#FF1300"/>
<path fill-rule="evenodd" clip-rule="evenodd" d="M68.7398 218.774V220.253H53.9961V218.774H68.7398Z" fill="#C1E5F1"/>
<path fill-rule="evenodd" clip-rule="evenodd" d="M77.2502 226.66V228.138H53.9961V226.66H77.2502Z" fill="#8EB3D7"/>
<path fill-rule="evenodd" clip-rule="evenodd" d="M94.6984 234.546V236.024H53.9961V234.546H94.6984Z" fill="#8EB3D7"/>
<path fill-rule="evenodd" clip-rule="evenodd" d="M120.621 195.117V196.595H100.27V195.117H120.621Z" fill="#F2911C"/>
<path fill-rule="evenodd" clip-rule="evenodd" d="M115.894 211.214V212.692H82.4648V211.214H115.894Z" fill="#FF1300"/>
<path fill-rule="evenodd" clip-rule="evenodd" d="M95.1136 218.774V220.252H71.8594V218.774H95.1136Z" fill="#C1E5F1"/>
<path fill-rule="evenodd" clip-rule="evenodd" d="M106.738 226.66V228.139H83.4844V226.66H106.738Z" fill="#8EB3D7"/>
<path fill-rule="evenodd" clip-rule="evenodd" d="M120.621 234.546V236.024H97.3672V234.546H120.621Z" fill="#8EB3D7"/>
<path d="M130.38 178.274V243.93H44V178.274H130.38Z" stroke="#0054A6" stroke-miterlimit="10" stroke-linecap="round" stroke-linejoin="round"/>
<path fill-rule="evenodd" clip-rule="evenodd" d="M130.38 168.328V178.273H44V168.328H130.38Z" fill="#0E4582"/>
<path d="M130.38 168.328V178.273H44V168.328H130.38Z" stroke="#0054A6" stroke-miterlimit="10" stroke-linecap="round" stroke-linejoin="round"/>
<path fill-rule="evenodd" clip-rule="evenodd" d="M48.7756 170.814C50.1479 170.814 51.2622 171.928 51.2622 173.301C51.2622 174.673 50.1479 175.787 48.7756 175.787C47.4034 175.787 46.2891 174.673 46.2891 173.301C46.2891 171.928 47.4034 170.814 48.7756 170.814Z" fill="white"/>
<path d="M48.7756 170.814C50.1479 170.814 51.2622 171.928 51.2622 173.301C51.2622 174.673 50.1479 175.787 48.7756 175.787C47.4034 175.787 46.2891 174.673 46.2891 173.301C46.2891 171.928 47.4034 170.814 48.7756 170.814Z" stroke="#0054A6" stroke-miterlimit="10" stroke-linecap="round" stroke-linejoin="round"/>
<path fill-rule="evenodd" clip-rule="evenodd" d="M55.5608 170.814C56.933 170.814 58.0464 171.928 58.0464 173.301C58.0464 174.673 56.933 175.787 55.5608 175.787C54.1886 175.787 53.0742 174.673 53.0742 173.301C53.0742 171.928 54.1886 170.814 55.5608 170.814Z" fill="white"/>
<path d="M55.5608 170.814C56.933 170.814 58.0464 171.928 58.0464 173.301C58.0464 174.673 56.933 175.787 55.5608 175.787C54.1886 175.787 53.0742 174.673 53.0742 173.301C53.0742 171.928 54.1886 170.814 55.5608 170.814Z" stroke="#0054A6" stroke-miterlimit="10" stroke-linecap="round" stroke-linejoin="round"/>
<path fill-rule="evenodd" clip-rule="evenodd" d="M62.346 170.814C63.7182 170.814 64.8325 171.928 64.8325 173.301C64.8325 174.673 63.7182 175.787 62.346 175.787C60.9738 175.787 59.8594 174.673 59.8594 173.301C59.8594 171.928 60.9738 170.814 62.346 170.814Z" fill="white"/>
<path d="M62.346 170.814C63.7182 170.814 64.8325 171.928 64.8325 173.301C64.8325 174.673 63.7182 175.787 62.346 175.787C60.9738 175.787 59.8594 174.673 59.8594 173.301C59.8594 171.928 60.9738 170.814 62.346 170.814Z" stroke="#0054A6" stroke-miterlimit="10" stroke-linecap="round" stroke-linejoin="round"/>
<path d="M204.497 16.2531L205.819 22.6867C208.377 23.0785 210.884 23.7498 213.294 24.6899L217.656 19.7785C220.097 20.8885 222.424 22.2324 224.604 23.7908L222.532 30.0238C224.551 31.6417 226.387 33.4768 228.004 35.4961L234.238 33.4236C235.796 35.605 237.14 37.9322 238.25 40.3729L233.339 44.7345C234.279 47.1452 234.95 49.652 235.342 52.2097L241.776 53.5313C242.035 56.1998 242.035 58.8872 241.776 61.5556L235.342 62.8773C234.95 65.435 234.279 67.9418 233.339 70.3525L238.25 74.714C237.14 77.1546 235.796 79.482 234.238 81.6633L228.004 79.5909C226.387 81.6102 224.551 83.4453 222.532 85.0631L224.604 91.2959C222.424 92.8547 220.097 94.1984 217.656 95.308L213.294 90.3969C210.884 91.3367 208.377 92.0085 205.819 92.3999L204.497 98.8339C201.829 99.0931 199.141 99.0931 196.472 98.8339L195.151 92.3999C192.594 92.0085 190.087 91.3367 187.676 90.3969L183.315 95.308C180.874 94.1984 178.547 92.8547 176.365 91.2959L178.438 85.0631C176.418 83.4453 174.582 81.6102 172.965 79.5909L166.733 81.6633C165.173 79.482 163.83 77.1546 162.72 74.714L167.632 70.3525C166.692 67.9418 166.02 65.435 165.628 62.8773L159.194 61.5556C158.935 58.8872 158.935 56.1998 159.194 53.5313L165.628 52.2097C166.02 49.652 166.692 47.1452 167.632 44.7345L162.72 40.3729C163.83 37.9322 165.173 35.605 166.733 33.4236L172.965 35.4961C174.582 33.4768 176.418 31.6417 178.438 30.0238L176.365 23.7908C178.547 22.2324 180.874 20.8885 183.315 19.7785L187.676 24.6899C190.087 23.7498 192.594 23.0785 195.151 22.6867L196.472 16.2531C199.141 15.994 201.829 15.994 204.497 16.2531ZM200.485 33.1271C213.961 33.1271 224.901 44.0677 224.901 57.5434C224.901 71.0191 213.961 81.9598 200.485 81.9598C187.009 81.9598 176.069 71.0191 176.069 57.5434C176.069 44.0677 187.009 33.1271 200.485 33.1271Z" stroke="#0054A6" stroke-width="3" stroke-miterlimit="10" stroke-linecap="round" stroke-linejoin="round"/>
<path fill-rule="evenodd" clip-rule="evenodd" d="M200.486 33.2925C213.87 33.2925 224.736 44.1593 224.736 57.5435C224.736 70.9276 213.87 81.7939 200.486 81.7939C187.101 81.7939 176.234 70.9276 176.234 57.5435C176.234 44.1593 187.101 33.2925 200.486 33.2925Z" fill="#D91A24"/>
<mask id="mask0_18062_9983" style="mask-type:luminance" maskUnits="userSpaceOnUse" x="176" y="33" width="49" height="49">
<path fill-rule="evenodd" clip-rule="evenodd" d="M200.485 33.2931C213.869 33.2931 224.735 44.1593 224.735 57.5438C224.735 70.9277 213.869 81.7939 200.485 81.7939C187.101 81.7939 176.234 70.9277 176.234 57.5438C176.234 44.1593 187.101 33.2931 200.485 33.2931Z" fill="white"/>
</mask>
<g mask="url(#mask0_18062_9983)">
<path fill-rule="evenodd" clip-rule="evenodd" d="M223.433 49.6856C224.279 52.1504 224.737 54.7938 224.737 57.5435C224.737 70.9276 213.871 81.7939 200.487 81.7939C188.608 81.7939 178.714 73.2359 176.637 61.955C179.904 71.4874 188.949 78.3475 199.584 78.3475C212.968 78.3475 223.835 67.4813 223.835 54.0971C223.835 52.5908 223.697 51.1163 223.433 49.6856Z" fill="#A3242B"/>
<path fill-rule="evenodd" clip-rule="evenodd" d="M177.538 65.4014C176.693 62.9366 176.234 60.2932 176.234 57.5435C176.234 44.1594 187.1 33.2928 200.485 33.2928C212.363 33.2928 222.257 41.851 224.334 53.132C221.066 43.5996 212.022 36.7396 201.388 36.7396C188.003 36.7396 177.137 47.6057 177.137 60.9898C177.137 62.4962 177.274 63.9707 177.538 65.4014Z" fill="#E94851"/>
<path fill-rule="evenodd" clip-rule="evenodd" d="M198.924 33.3231C206.694 32.3143 213.207 33.0662 213.458 35.0003C213.71 36.9353 207.605 39.3253 199.835 40.3351C192.064 41.3439 185.552 40.5919 185.3 38.6569C185.05 36.7218 191.154 34.3319 198.924 33.3231Z" fill="#E94851"/>
</g>
<path d="M200.486 33.2925C213.87 33.2925 224.736 44.1593 224.736 57.5435C224.736 70.9276 213.87 81.7939 200.486 81.7939C187.101 81.7939 176.234 70.9276 176.234 57.5435C176.234 44.1593 187.101 33.2925 200.486 33.2925Z" stroke="#0054A6" stroke-width="3" stroke-miterlimit="10" stroke-linecap="round" stroke-linejoin="round"/>
<path d="M185.293 63.5889H188.523L189.166 61.3398H193.174L193.816 63.5889H197.486L193.647 51.4979H189.166L185.293 63.5889ZM191.178 54.3049L192.497 58.9554H189.842L191.178 54.3049Z" fill="white"/>
<path d="M198.871 63.5889H202.321V59.5134H203.624C206.616 59.5134 208.324 58.1437 208.324 55.6072V55.5395C208.324 52.9691 206.786 51.4979 203.471 51.4979H198.871V63.5889ZM202.321 57.146V54.1021H203.336C204.418 54.1021 205.027 54.5249 205.027 55.5564V55.624C205.027 56.6218 204.435 57.146 203.319 57.146H202.321Z" fill="white"/>
<path d="M209.965 63.5889H213.466V51.498H209.965V63.5889Z" fill="white"/>
<path fill-rule="evenodd" clip-rule="evenodd" d="M204.528 16.1935L205.85 22.6272C208.408 23.0189 210.915 23.6902 213.325 24.6303L217.687 19.7189C220.128 20.8289 222.455 22.1728 224.636 23.7312L222.564 29.9643C224.583 31.5821 226.418 33.4172 228.036 35.4365L234.269 33.3641C235.828 35.5455 237.171 37.8727 238.281 40.3133L233.37 44.6749C234.31 47.0856 234.981 49.5925 235.373 52.1501L241.807 53.4717C242.066 56.1402 242.066 58.8276 241.807 61.496L235.373 62.8177C234.981 65.3754 234.31 67.8822 233.37 70.2929L238.281 74.6544C237.171 77.095 235.828 79.4224 234.269 81.6038L228.036 79.5313C226.418 81.5506 224.583 83.3857 222.564 85.0036L224.636 91.2363C222.455 92.7952 220.128 94.1388 217.687 95.2485L213.325 90.3373C210.915 91.2771 208.408 91.949 205.85 92.3403L204.528 98.7743C201.86 99.0336 199.172 99.0336 196.504 98.7743L195.183 92.3403C192.625 91.949 190.118 91.2771 187.708 90.3373L183.346 95.2485C180.905 94.1388 178.578 92.7952 176.396 91.2363L178.469 85.0036C176.449 83.3857 174.614 81.5506 172.996 79.5313L166.764 81.6038C165.205 79.4224 163.861 77.095 162.751 74.6544L167.663 70.2929C166.723 67.8822 166.051 65.3754 165.66 62.8177L159.226 61.496C158.966 58.8276 158.966 56.1402 159.226 53.4717L165.66 52.1501C166.051 49.5925 166.723 47.0856 167.663 44.6749L162.751 40.3133C163.861 37.8727 165.205 35.5455 166.764 33.3641L172.996 35.4365C174.614 33.4172 176.449 31.5821 178.469 29.9643L176.396 23.7312C178.578 22.1728 180.905 20.8289 183.346 19.7189L187.708 24.6303C190.118 23.6902 192.625 23.0189 195.183 22.6272L196.504 16.1935C199.172 15.9344 201.86 15.9344 204.528 16.1935ZM200.516 33.0676C213.992 33.0676 224.932 44.0081 224.932 57.4839C224.932 70.9596 213.992 81.9003 200.516 81.9003C187.04 81.9003 176.1 70.9596 176.1 57.4839C176.1 44.0081 187.04 33.0676 200.516 33.0676Z" fill="#4783BE"/>
<path d="M296.598 98.596H334.974V225.682" stroke="#0054A6" stroke-miterlimit="10" stroke-linejoin="round" stroke-dasharray="20 20"/>
<path fill-rule="evenodd" clip-rule="evenodd" d="M317.601 79.5731C319.563 79.5731 321.153 81.1626 321.153 83.1251C321.153 90.3764 321.153 106.814 321.153 114.066C321.153 116.027 319.563 117.617 317.601 117.617C310.292 117.617 293.638 117.617 286.327 117.617C284.367 117.617 282.777 116.027 282.777 114.066C282.777 106.814 282.777 90.3764 282.777 83.1251C282.777 81.1626 284.367 79.5731 286.327 79.5731C293.638 79.5731 310.292 79.5731 317.601 79.5731Z" fill="white"/>
<mask id="mask1_18062_9983" style="mask-type:luminance" maskUnits="userSpaceOnUse" x="282" y="79" width="40" height="39">
<path fill-rule="evenodd" clip-rule="evenodd" d="M317.602 79.5734C319.564 79.5734 321.153 81.1634 321.153 83.1245C321.153 90.3762 321.153 106.814 321.153 114.066C321.153 116.027 319.564 117.617 317.602 117.617C310.293 117.617 293.639 117.617 286.329 117.617C284.367 117.617 282.777 116.027 282.777 114.066C282.777 106.814 282.777 90.3762 282.777 83.1245C282.777 81.1634 284.367 79.5734 286.329 79.5734C293.639 79.5734 310.293 79.5734 317.602 79.5734Z" fill="white"/>
</mask>
<g mask="url(#mask1_18062_9983)">
<path d="M296.468 106.264V103.01L292.554 100.827L296.468 98.7668V95.4321L287.797 100.497V101.197L296.468 106.264Z" fill="black"/>
<path d="M297.004 110.526H299.929L306.478 91.4966H303.534L297.004 110.526Z" fill="black"/>
<path d="M307.445 106.243L316.136 101.177V100.477L307.445 95.4106V98.6645L311.379 100.848L307.445 102.886V106.243Z" fill="black"/>
</g>
<path d="M317.601 79.5731C319.563 79.5731 321.153 81.1626 321.153 83.1251C321.153 90.3764 321.153 106.814 321.153 114.066C321.153 116.027 319.563 117.617 317.601 117.617C310.292 117.617 293.638 117.617 286.327 117.617C284.367 117.617 282.777 116.027 282.777 114.066C282.777 106.814 282.777 90.3764 282.777 83.1251C282.777 81.1626 284.367 79.5731 286.327 79.5731C293.638 79.5731 310.292 79.5731 317.601 79.5731Z" stroke="#0054A6" stroke-miterlimit="10" stroke-linecap="round" stroke-linejoin="round"/>
<path fill-rule="evenodd" clip-rule="evenodd" d="M286.327 79.573H317.601C319.563 79.573 321.153 81.1625 321.153 83.1249V84.4941H282.777V83.1249C282.777 81.1625 284.367 79.573 286.327 79.573Z" fill="#135BBA"/>
<path d="M286.327 79.573H317.601C319.563 79.573 321.153 81.1625 321.153 83.1249V84.4941H282.777V83.1249C282.777 81.1625 284.367 79.573 286.327 79.573Z" stroke="#0054A6" stroke-miterlimit="10" stroke-linecap="round" stroke-linejoin="round"/>
<path fill-rule="evenodd" clip-rule="evenodd" d="M351.329 152.837C355.619 152.837 359.095 156.569 359.095 161.172V246.466C359.095 251.069 355.619 254.801 351.329 254.801H311.914C307.626 254.801 304.148 251.069 304.148 246.466V161.172C304.148 156.569 307.626 152.837 311.914 152.837H351.329Z" fill="#011F30"/>
<path d="M351.329 152.837C355.619 152.837 359.095 156.569 359.095 161.172V246.466C359.095 251.069 355.619 254.801 351.329 254.801H311.914C307.626 254.801 304.148 251.069 304.148 246.466V161.172C304.148 156.569 307.626 152.837 311.914 152.837H351.329Z" stroke="#0054A6" stroke-miterlimit="10" stroke-linecap="round" stroke-linejoin="round"/>
<path fill-rule="evenodd" clip-rule="evenodd" d="M351.329 153.9C355.053 153.9 358.031 157.176 358.031 161.172V246.466C358.031 250.462 355.053 253.738 351.329 253.738H311.913C308.19 253.738 305.211 250.462 305.211 246.466V161.172C305.211 157.176 308.19 153.9 311.913 153.9H351.329Z" fill="#367CC0"/>
<path d="M351.329 153.9C355.053 153.9 358.031 157.176 358.031 161.172V246.466C358.031 250.462 355.053 253.738 351.329 253.738H311.913C308.19 253.738 305.211 250.462 305.211 246.466V161.172C305.211 157.176 308.19 153.9 311.913 153.9H351.329Z" stroke="#0054A6" stroke-miterlimit="10" stroke-linecap="round" stroke-linejoin="round"/>
<path fill-rule="evenodd" clip-rule="evenodd" d="M333.644 182.98L334.312 186.227C335.602 186.425 336.867 186.764 338.085 187.238L340.285 184.76C341.516 185.32 342.692 185.998 343.793 186.785L342.747 189.93C343.765 190.747 344.691 191.673 345.508 192.692L348.654 191.646C349.44 192.747 350.119 193.921 350.68 195.153L348.201 197.354C348.674 198.571 349.013 199.836 349.21 201.127L352.458 201.794C352.589 203.141 352.589 204.497 352.458 205.843L349.21 206.51C349.013 207.801 348.674 209.066 348.201 210.283L350.68 212.484C350.119 213.716 349.44 214.89 348.654 215.991L345.508 214.945C344.691 215.964 343.765 216.891 342.747 217.707L343.793 220.853C342.692 221.639 341.516 222.317 340.285 222.877L338.085 220.399C336.867 220.873 335.602 221.212 334.312 221.41L333.644 224.657C332.298 224.788 330.942 224.788 329.596 224.657L328.928 221.41C327.636 221.212 326.373 220.873 325.155 220.399L322.955 222.877C321.722 222.317 320.548 221.639 319.447 220.853L320.494 217.707C319.473 216.891 318.547 215.964 317.73 214.945L314.586 215.991C313.8 214.89 313.121 213.716 312.561 212.484L315.039 210.283C314.564 209.066 314.227 207.801 314.028 206.51L310.78 205.843C310.651 204.497 310.651 203.141 310.78 201.794L314.028 201.127C314.227 199.836 314.564 198.571 315.039 197.354L312.561 195.153C313.121 193.921 313.8 192.747 314.586 191.646L317.73 192.692C318.547 191.673 319.473 190.747 320.494 189.93L319.447 186.785C320.548 185.998 321.722 185.32 322.955 184.76L325.155 187.238C326.373 186.764 327.636 186.425 328.928 186.227L329.596 182.98C330.942 182.85 332.298 182.85 333.644 182.98ZM331.619 194.558C336.732 194.558 340.881 198.707 340.881 203.819C340.881 208.93 336.732 213.08 331.619 213.08C326.508 213.08 322.359 208.93 322.359 203.819C322.359 198.707 326.508 194.558 331.619 194.558Z" fill="white"/>
<path d="M333.644 182.98L334.312 186.227C335.602 186.425 336.867 186.764 338.085 187.238L340.285 184.76C341.516 185.32 342.692 185.998 343.793 186.785L342.747 189.93C343.765 190.747 344.691 191.673 345.508 192.692L348.654 191.646C349.44 192.747 350.119 193.921 350.68 195.153L348.201 197.354C348.674 198.571 349.013 199.836 349.21 201.127L352.458 201.794C352.589 203.141 352.589 204.497 352.458 205.843L349.21 206.51C349.013 207.801 348.674 209.066 348.201 210.283L350.68 212.484C350.119 213.716 349.44 214.89 348.654 215.991L345.508 214.945C344.691 215.964 343.765 216.891 342.747 217.707L343.793 220.853C342.692 221.639 341.516 222.317 340.285 222.877L338.085 220.399C336.867 220.873 335.602 221.212 334.312 221.41L333.644 224.657C332.298 224.788 330.942 224.788 329.596 224.657L328.928 221.41C327.636 221.212 326.373 220.873 325.155 220.399L322.955 222.877C321.722 222.317 320.548 221.639 319.447 220.853L320.494 217.707C319.473 216.891 318.547 215.964 317.73 214.945L314.586 215.991C313.8 214.89 313.121 213.716 312.561 212.484L315.039 210.283C314.564 209.066 314.227 207.801 314.028 206.51L310.78 205.843C310.651 204.497 310.651 203.141 310.78 201.794L314.028 201.127C314.227 199.836 314.564 198.571 315.039 197.354L312.561 195.153C313.121 193.921 313.8 192.747 314.586 191.646L317.73 192.692C318.547 191.673 319.473 190.747 320.494 189.93L319.447 186.785C320.548 185.998 321.722 185.32 322.955 184.76L325.155 187.238C326.373 186.764 327.636 186.425 328.928 186.227L329.596 182.98C330.942 182.85 332.298 182.85 333.644 182.98ZM331.619 194.558C336.732 194.558 340.881 198.707 340.881 203.819C340.881 208.93 336.732 213.08 331.619 213.08C326.508 213.08 322.359 208.93 322.359 203.819C322.359 198.707 326.508 194.558 331.619 194.558Z" stroke="#0054A6" stroke-miterlimit="10" stroke-linecap="round" stroke-linejoin="round"/>
<path fill-rule="evenodd" clip-rule="evenodd" d="M351.327 150.637C356.746 150.637 361.141 155.354 361.141 161.172V246.465C361.141 252.284 356.746 257 351.327 257H311.911C306.492 257 302.098 252.284 302.098 246.465V161.172C302.098 155.354 306.492 150.637 311.911 150.637H351.327ZM351.327 152.837H311.911C307.622 152.837 304.147 156.569 304.147 161.172V246.465C304.147 251.069 307.622 254.801 311.911 254.801H351.327C355.616 254.801 359.091 251.069 359.091 246.465V161.172C359.091 156.569 355.616 152.837 351.327 152.837Z" fill="#3D5A6A"/>
<path d="M351.327 150.637C356.746 150.637 361.141 155.354 361.141 161.172V246.465C361.141 252.284 356.746 257 351.327 257H311.911C306.492 257 302.098 252.284 302.098 246.465V161.172C302.098 155.354 306.492 150.637 311.911 150.637H351.327ZM351.327 152.837H311.911C307.622 152.837 304.147 156.569 304.147 161.172V246.465C304.147 251.069 307.622 254.801 311.911 254.801H351.327C355.616 254.801 359.091 251.069 359.091 246.465V161.172C359.091 156.569 355.616 152.837 351.327 152.837Z" stroke="#0054A6" stroke-miterlimit="10" stroke-linejoin="round"/>
<path fill-rule="evenodd" clip-rule="evenodd" d="M332.907 155.582C333.797 155.582 334.516 156.302 334.516 157.19C334.516 158.079 333.797 158.799 332.907 158.799C330.837 158.799 327.257 158.799 325.187 158.799C324.299 158.799 323.578 158.079 323.578 157.19C323.578 156.302 324.299 155.582 325.187 155.582C327.257 155.582 330.837 155.582 332.907 155.582Z" fill="#3D5A6A"/>
<path d="M332.907 155.582C333.797 155.582 334.516 156.302 334.516 157.19C334.516 158.079 333.797 158.799 332.907 158.799C330.837 158.799 327.257 158.799 325.187 158.799C324.299 158.799 323.578 158.079 323.578 157.19C323.578 156.302 324.299 155.582 325.187 155.582C327.257 155.582 330.837 155.582 332.907 155.582Z" stroke="#0054A6" stroke-miterlimit="10" stroke-linecap="round" stroke-linejoin="round"/>
<path fill-rule="evenodd" clip-rule="evenodd" d="M338.055 155.582C338.943 155.582 339.663 156.302 339.663 157.19C339.663 157.19 339.663 157.19 339.663 157.19C339.663 158.079 338.943 158.799 338.055 158.799C338.038 158.799 338.023 158.799 338.006 158.799C337.118 158.799 336.398 158.079 336.398 157.19C336.398 157.19 336.398 157.19 336.398 157.19C336.398 156.302 337.118 155.582 338.006 155.582C338.023 155.582 338.038 155.582 338.055 155.582Z" fill="#3D5A6A"/>
<path d="M338.055 155.582C338.943 155.582 339.663 156.302 339.663 157.19C339.663 157.19 339.663 157.19 339.663 157.19C339.663 158.079 338.943 158.799 338.055 158.799C338.038 158.799 338.023 158.799 338.006 158.799C337.118 158.799 336.398 158.079 336.398 157.19C336.398 157.19 336.398 157.19 336.398 157.19C336.398 156.302 337.118 155.582 338.006 155.582C338.023 155.582 338.038 155.582 338.055 155.582Z" stroke="#0054A6" stroke-miterlimit="10" stroke-linecap="round" stroke-linejoin="round"/>
<path fill-rule="evenodd" clip-rule="evenodd" d="M361.141 168.487C361.937 168.487 362.583 169.132 362.583 169.929C362.583 171.946 362.583 175.589 362.583 177.606C362.583 178.403 361.937 179.049 361.141 179.049V168.487Z" fill="#192E39"/>
<path d="M361.141 168.487C361.937 168.487 362.583 169.132 362.583 169.929C362.583 171.946 362.583 175.589 362.583 177.606C362.583 178.403 361.937 179.049 361.141 179.049V168.487Z" stroke="#0054A6" stroke-miterlimit="10" stroke-linecap="round" stroke-linejoin="round"/>
<path fill-rule="evenodd" clip-rule="evenodd" d="M361.141 183.228C361.937 183.228 362.583 183.874 362.583 184.67C362.583 186.688 362.583 190.33 362.583 192.347C362.583 193.144 361.937 193.79 361.141 193.79V183.228Z" fill="#192E39"/>
<path d="M361.141 183.228C361.937 183.228 362.583 183.874 362.583 184.67C362.583 186.688 362.583 190.33 362.583 192.347C362.583 193.144 361.937 193.79 361.141 193.79V183.228Z" stroke="#0054A6" stroke-miterlimit="10" stroke-linecap="round" stroke-linejoin="round"/>
<path fill-rule="evenodd" clip-rule="evenodd" d="M361.141 200.108C361.937 200.108 362.583 200.753 362.583 201.55C362.583 203.949 362.583 208.731 362.583 211.13C362.583 211.926 361.937 212.572 361.141 212.572V200.108Z" fill="#C45706"/>
<path d="M361.141 200.108C361.937 200.108 362.583 200.753 362.583 201.55C362.583 203.949 362.583 208.731 362.583 211.13C362.583 211.926 361.937 212.572 361.141 212.572V200.108Z" stroke="#0054A6" stroke-miterlimit="10" stroke-linecap="round" stroke-linejoin="round"/>
</g>
<defs>
<clipPath id="clip0_18062_9983">
<rect width="420" height="280" fill="white"/>
</clipPath>
</defs>
</svg>
