<svg width="64" height="64" viewBox="0 0 64 64" fill="none" xmlns="http://www.w3.org/2000/svg">
<g id="enterprise-software-development-expertise_ehr-development" clip-path="url(#clip0_7641_8010)">
<g id="Group">
<path id="Vector" fill-rule="evenodd" clip-rule="evenodd" d="M45.5 4.2C47 4.6 48.5 5.2 49.9 6C50.4 6.3 51 6.3 51.5 6.1L53.5 5.2C54.2 4.9 55 5 55.5 5.6L58.4 8.5C58.9 9 59.1 9.8 58.8 10.5L57.9 12.5C57.7 13 57.7 13.6 58 14.1C58.8 15.5 59.4 17 59.8 18.5C60 19 60.3 19.5 60.9 19.7L62.9 20.5C63.6 20.8 64 21.4 64 22.2V26.3C64 27 63.5 27.7 62.9 28L60.9 28.8C60.4 29 60 29.5 59.8 30C59.4 31.5 58.8 33 58 34.4C57.7 34.9 57.7 35.5 57.9 36L58.8 38C59.1 38.7 59 39.5 58.4 40L55.5 42.9C55 43.4 54.2 43.6 53.5 43.3L51.5 42.4C51 42.2 50.4 42.2 49.9 42.5C48.5 43.3 47 43.9 45.5 44.3C45 44.5 44.5 44.8 44.3 45.4L43.5 47.4C43.2 48.1 42.6 48.5 41.8 48.5H37.7C37 48.5 36.3 48 36 47.4L35.2 45.4C35 44.9 34.5 44.5 34 44.3C32.5 43.9 31 43.3 29.6 42.5C29.1 42.2 28.5 42.2 28 42.4L26 43.3C25.3 43.6 24.5 43.5 24 42.9L21.1 40C20.6 39.5 20.4 38.7 20.7 38L21.6 36C21.8 35.5 21.8 34.9 21.5 34.4C20.7 33 20.1 31.5 19.7 30C19.5 29.5 19.2 29 18.6 28.8L16.6 28C15.9 27.7 15.5 27.1 15.5 26.3V22.2C15.5 21.5 16 20.8 16.6 20.5L18.6 19.7C19.1 19.5 19.5 19 19.7 18.5C20.1 17 20.7 15.5 21.5 14.1C21.8 13.6 21.8 13 21.6 12.5L20.7 10.5C20.4 9.8 20.5 9 21.1 8.5L24 5.6C24.5 5.1 25.3 4.9 26 5.2L28 6.1C28.5 6.3 29.1 6.3 29.6 6C31 5.2 32.5 4.6 34 4.2C34.5 4 35 3.7 35.2 3.1L36 1.1C36.4 0.5 37.1 0 37.8 0H41.9C42.6 0 43.3 0.5 43.6 1.1L44.4 3.1C44.5 3.7 45 4.1 45.5 4.2Z" fill="#839299"/>
<path id="Vector_2" fill-rule="evenodd" clip-rule="evenodd" d="M20.1012 48.2999L16.2012 44.1999L21.1012 39.3999L25.1012 43.3999L20.1012 48.2999Z" fill="#5F737C"/>
<path id="Vector_3" fill-rule="evenodd" clip-rule="evenodd" d="M5.00039 63.4L0.500391 58.8C-0.299609 58 -0.299609 56.7 0.500391 55.9L12.8004 43.9C13.6004 43.1 14.9004 43.1 15.7004 43.9L20.2004 48.5C21.0004 49.3 21.0004 50.6 20.2004 51.4L7.90039 63.4C7.10039 64.2 5.80039 64.2 5.00039 63.4Z" fill="#002548"/>
<path id="Vector_4" fill-rule="evenodd" clip-rule="evenodd" d="M39.8 40C48.5 40 55.6 32.9 55.6 24.2C55.6 15.5 48.5 8.39997 39.8 8.39997C31.1 8.29997 24 15.4 24 24.2C24 32.9 31.1 40 39.8 40Z" fill="#D2D9DC"/>
<path id="Vector_5" fill-rule="evenodd" clip-rule="evenodd" d="M39.8008 25.7C34.1008 25.7 29.4008 29.9999 28.8008 35.5999C31.6008 38.2999 35.5008 40 39.8008 40C40.6008 40 41.3008 39.9 42.1008 39.7999C45.5008 39.2999 48.5008 37.8 50.8008 35.5C50.2008 30 45.5008 25.7 39.8008 25.7Z" fill="#0054A6"/>
<path id="Vector_6" fill-rule="evenodd" clip-rule="evenodd" d="M39.8012 24.8001C42.9012 24.8001 45.4012 22.3001 45.4012 19.2001C45.4012 16.1001 42.9012 13.6001 39.8012 13.6001C36.7012 13.6001 34.2012 16.1001 34.2012 19.2001C34.3012 22.3001 36.8012 24.8001 39.8012 24.8001Z" fill="#0054A6"/>
</g>
</g>
<defs>
<clipPath id="clip0_7641_8010">
<rect width="64" height="64" fill="white"/>
</clipPath>
</defs>
</svg>
