<svg width="61" height="65" viewBox="0 0 61 65" fill="none" xmlns="http://www.w3.org/2000/svg">
<g clip-path="url(#clip0_4038_11787)">
<path d="M21.4459 14.1003C12.9972 12.5616 6.31693 14.1725 3.65459 18.7833C1.66789 22.224 2.23503 26.7867 5.03101 31.6636C5.08758 31.7624 5.16306 31.849 5.25314 31.9186C5.34322 31.9882 5.44614 32.0394 5.55601 32.0692C5.66588 32.099 5.78054 32.1069 5.89345 32.0923C6.00636 32.0778 6.11529 32.0412 6.21403 31.9845C6.41342 31.8701 6.55924 31.6812 6.61941 31.4593C6.67959 31.2375 6.64922 31.0008 6.53496 30.8013C4.0161 26.4087 3.5252 22.4711 5.15531 19.6497C7.36665 15.8192 13.3245 14.3824 21.1348 15.8051C21.276 15.833 21.4219 15.8254 21.5594 15.7828C21.6968 15.7402 21.8216 15.664 21.9222 15.5612C22.0229 15.4584 22.0964 15.3321 22.1361 15.1938C22.1758 15.0554 22.1804 14.9094 22.1495 14.7688C22.1123 14.5998 22.0252 14.4459 21.8997 14.3267C21.7741 14.2076 21.6158 14.1288 21.445 14.1005L21.4459 14.1003ZM9.4245 37.5909C12.8404 41.3452 17.2787 44.8665 22.3404 47.7891C34.5956 54.8648 47.6426 56.7561 54.0724 52.3716C54.2576 52.2403 54.3838 52.0415 54.424 51.8181C54.4642 51.5946 54.4151 51.3643 54.2872 51.1767C54.1593 50.9891 53.9629 50.8592 53.7403 50.8149C53.5176 50.7706 53.2865 50.8154 53.0965 50.9398C47.3415 54.864 34.948 53.0673 23.2069 46.2884C18.296 43.4528 13.9987 40.0435 10.7063 36.4252C10.5919 36.2953 10.4411 36.2027 10.2735 36.1592C10.1059 36.1157 9.92917 36.1234 9.76597 36.1812C9.63032 36.2294 9.50882 36.3106 9.41244 36.4176C9.31606 36.5245 9.24784 36.6538 9.21395 36.7937C9.18006 36.9336 9.18156 37.0797 9.21832 37.2189C9.25508 37.3581 9.32594 37.486 9.4245 37.5909Z" fill="#2DD0ED"/>
<path d="M52.0223 36.5371C57.5541 30.002 59.486 23.4288 56.8294 18.8271C54.8745 15.4412 50.7413 13.6535 45.2492 13.5822C45.0194 13.5793 44.7979 13.6676 44.6332 13.8279C44.4686 13.9882 44.3743 14.2073 44.3711 14.437C44.3686 14.6084 44.4171 14.7767 44.5104 14.9205C44.6037 15.0643 44.7377 15.1771 44.8953 15.2446C44.9999 15.2896 45.1122 15.3135 45.2261 15.3151C50.1658 15.3789 53.7269 16.9194 55.3288 19.6936C57.5351 23.5159 55.813 29.3777 50.6998 35.4179C50.6237 35.5043 50.5656 35.6051 50.5289 35.7143C50.4922 35.8234 50.4776 35.9388 50.4861 36.0537C50.4945 36.1686 50.5258 36.2806 50.5781 36.3832C50.6304 36.4859 50.7027 36.577 50.7907 36.6513C50.8787 36.7256 50.9805 36.7816 51.0904 36.816C51.2002 36.8505 51.3158 36.8628 51.4304 36.8522C51.545 36.8415 51.6564 36.8082 51.758 36.7541C51.8596 36.7 51.9495 36.6262 52.0223 36.5371ZM37.8053 14.389C32.8033 15.4609 27.4796 17.5561 22.3672 20.5078C9.71495 27.8124 1.46184 38.5825 2.60852 46.3928C2.62278 46.5073 2.65976 46.6178 2.71731 46.7178C2.77485 46.8178 2.85179 46.9053 2.94361 46.9752C3.03543 47.045 3.14028 47.0958 3.252 47.1246C3.36373 47.1534 3.48008 47.1596 3.59424 47.1428C3.70839 47.126 3.81803 47.0866 3.91674 47.0269C4.01545 46.9672 4.10124 46.8883 4.16906 46.795C4.23688 46.7016 4.28538 46.5957 4.3117 46.4833C4.33802 46.371 4.34164 46.2546 4.32234 46.1408C3.30505 39.2069 11.1277 28.9971 23.2328 22.0085C28.1926 19.1448 33.348 17.1167 38.1685 16.0827C38.3864 16.028 38.5744 15.8908 38.6931 15.7001C38.8118 15.5094 38.8518 15.2801 38.8047 15.0605C38.7576 14.8409 38.6271 14.6481 38.4407 14.5228C38.2542 14.3976 38.0265 14.3496 37.8053 14.389Z" fill="#2DD0ED"/>
<path d="M17.3086 51.807C20.2022 59.8827 24.9332 64.8557 30.2545 64.8557C34.1347 64.8557 37.7249 62.2108 40.5247 57.5536C40.5875 57.4561 40.6301 57.3469 40.6499 57.2326C40.6697 57.1183 40.6664 57.0012 40.6402 56.8882C40.6074 56.7466 40.5395 56.6156 40.4427 56.5071C40.346 56.3987 40.2235 56.3163 40.0865 56.2677C39.9496 56.219 39.8026 56.2056 39.6591 56.2287C39.5156 56.2517 39.3803 56.3105 39.2655 56.3997C39.1738 56.4708 39.0974 56.5594 39.0407 56.6606C36.5242 60.8461 33.4332 63.1237 30.2545 63.1237C25.8352 63.1237 21.6143 58.6879 18.9404 51.2225C18.9037 51.1132 18.8456 51.0122 18.7695 50.9256C18.6933 50.839 18.6007 50.7683 18.497 50.7179C18.3933 50.6676 18.2805 50.6384 18.1654 50.6321C18.0503 50.626 17.9351 50.643 17.8265 50.682C17.718 50.7209 17.6184 50.7811 17.5334 50.8591C17.4484 50.937 17.3798 51.0311 17.3316 51.1358C17.2834 51.2406 17.2566 51.3539 17.2527 51.4691C17.2489 51.5844 17.2682 51.6992 17.3094 51.807H17.3086ZM43.7293 50.2266C45.2266 45.4428 46.0301 39.9225 46.0301 34.17C46.0301 19.8179 41.0073 7.44506 33.852 4.26787C33.6429 4.1799 33.4076 4.17745 33.1967 4.26104C32.9858 4.34463 32.8161 4.50759 32.724 4.71493C32.632 4.92227 32.6249 5.15745 32.7043 5.36995C32.7837 5.58245 32.9433 5.75533 33.1488 5.85146C39.5305 8.68547 44.2981 20.4274 44.2981 34.17C44.2981 39.7499 43.5187 45.0962 42.0761 49.7094C42.0387 49.8188 42.0237 49.9346 42.0319 50.0498C42.04 50.1651 42.0712 50.2776 42.1236 50.3806C42.2024 50.5359 42.3262 50.6637 42.4788 50.7476C42.6313 50.8315 42.8056 50.8674 42.9789 50.8508C43.1522 50.8342 43.3165 50.7658 43.4503 50.6544C43.5842 50.5431 43.6814 50.394 43.7293 50.2266ZM60.0455 49.3785C60.049 48.8317 59.9443 48.2897 59.7375 47.7836C59.5307 47.2775 59.2258 46.8172 58.8404 46.4294C58.455 46.0416 57.9968 45.7338 57.492 45.5237C56.9872 45.3137 56.4458 45.2056 55.8991 45.2056C55.3523 45.2056 54.811 45.3137 54.3062 45.5238C53.8014 45.7338 53.3431 46.0417 52.9577 46.4295C52.5724 46.8174 52.2675 47.2776 52.0607 47.7837C51.8539 48.2899 51.7493 48.8319 51.7528 49.3786C51.7598 50.4737 52.1998 51.5215 52.9766 52.2934C53.7535 53.0653 54.8041 53.4985 55.8992 53.4984C56.9943 53.4984 58.045 53.0652 58.8218 52.2933C59.5986 51.5214 60.0385 50.4735 60.0455 49.3785ZM58.3126 49.3785C58.3125 50.0185 58.0582 50.6324 57.6056 51.085C57.153 51.5376 56.5391 51.7919 55.8991 51.792C55.4217 51.792 54.9552 51.6504 54.5583 51.3852C54.1614 51.12 53.8521 50.7431 53.6695 50.3021C53.4868 49.8611 53.4391 49.3759 53.5322 48.9078C53.6253 48.4396 53.8552 48.0096 54.1927 47.6721C54.5302 47.3346 54.9602 47.1047 55.4283 47.0116C55.8965 46.9185 56.3817 46.9663 56.8227 47.1489C57.2637 47.3315 57.6406 47.6409 57.9058 48.0377C58.171 48.4346 58.3126 48.9011 58.3126 49.3785ZM4.55023 53.5249C5.09477 53.525 5.63398 53.4177 6.13708 53.2094C6.64018 53.001 7.0973 52.6956 7.48235 52.3106C7.86739 51.9255 8.17281 51.4684 8.38117 50.9653C8.58952 50.4622 8.69672 49.923 8.69666 49.3785C8.6967 48.8339 8.58948 48.2947 8.3811 47.7916C8.17273 47.2885 7.86729 46.8314 7.48224 46.4463C7.09718 46.0613 6.64004 45.7559 6.13694 45.5475C5.63383 45.3392 5.09461 45.232 4.55006 45.232C4.00555 45.232 3.46636 45.3393 2.96329 45.5476C2.46023 45.756 2.00313 46.0614 1.61811 46.4465C1.23309 46.8315 0.92768 47.2886 0.719329 47.7917C0.510978 48.2948 0.403764 48.834 0.403809 49.3785C0.403764 49.923 0.510984 50.4622 0.719346 50.9653C0.927707 51.4684 1.23313 51.9255 1.61817 52.3105C2.00321 52.6956 2.46032 53.001 2.96341 53.2094C3.4665 53.4177 4.0057 53.5249 4.55023 53.5249ZM4.55023 51.792C3.90998 51.792 3.29594 51.5377 2.84321 51.085C2.39048 50.6322 2.13614 50.0182 2.13614 49.378C2.13614 48.7377 2.39048 48.1237 2.84321 47.6709C3.29594 47.2182 3.90998 46.9639 4.55023 46.9639C5.19049 46.9639 5.80452 47.2182 6.25725 47.6709C6.70998 48.1237 6.96432 48.7377 6.96432 49.378C6.96432 50.0182 6.70998 50.6322 6.25725 51.085C5.80452 51.5377 5.19049 51.792 4.55023 51.792Z" fill="#2DD0ED"/>
<path d="M30.2547 8.49732C31.0748 8.49739 31.8765 8.25422 32.5584 7.79857C33.2403 7.34292 33.7717 6.69526 34.0855 5.93753C34.3462 5.30756 34.4477 4.623 34.3808 3.94447C34.3139 3.26594 34.0807 2.61438 33.7019 2.04747C33.3231 1.48056 32.8103 1.01579 32.2091 0.694327C31.6078 0.37286 30.9365 0.204608 30.2547 0.204468C29.4346 0.204329 28.6328 0.447423 27.9509 0.903001C27.2689 1.35858 26.7374 2.00618 26.4235 2.76387C26.1097 3.52157 26.0276 4.35533 26.1876 5.1597C26.3477 5.96406 26.7427 6.70288 27.3227 7.28271C27.7077 7.66775 28.1648 7.97318 28.6679 8.18155C29.171 8.38992 29.7102 8.49733 30.2547 8.49732ZM30.2547 6.7643C29.7774 6.76424 29.3108 6.62268 28.9139 6.35749C28.517 6.09231 28.2076 5.71542 28.0248 5.27445C27.9034 4.98165 27.8409 4.66778 27.8409 4.35081C27.8409 4.03383 27.9034 3.71996 28.0248 3.42716C28.1461 3.13433 28.3238 2.86825 28.5479 2.64414C28.7721 2.42003 29.0381 2.24227 29.331 2.12104C29.6607 1.98445 30.0167 1.9227 30.3732 1.94022C30.7297 1.95774 31.0779 2.0541 31.3926 2.22236C31.7074 2.39062 31.981 2.62659 32.1936 2.91328C32.4062 3.19998 32.5526 3.53025 32.6222 3.88032C32.6919 4.23039 32.683 4.59155 32.5963 4.93778C32.5095 5.28401 32.3471 5.6067 32.1207 5.88261C31.8942 6.15852 31.6094 6.38078 31.2868 6.53339C30.9641 6.686 30.6116 6.76515 30.2547 6.76515V6.7643ZM30.8881 37.1034C30.1102 37.2713 29.2975 37.1234 28.6287 36.6923C28.1298 36.3708 27.7375 35.9085 27.5013 35.364C27.2652 34.8194 27.1959 34.2171 27.3021 33.6332C27.4084 33.0492 27.6854 32.5099 28.0982 32.0835C28.511 31.657 29.041 31.3626 29.6212 31.2374C30.3937 31.083 31.1959 31.2386 31.8547 31.6705C32.5135 32.1025 32.9761 32.7762 33.1425 33.5462C33.3087 34.3162 33.1655 35.1207 32.7437 35.7861C32.3219 36.4514 31.6554 36.9243 30.8881 37.1025V37.1034Z" fill="#2DD0ED"/>
</g>
<defs>
<clipPath id="clip0_4038_11787">
<rect width="60.06" height="65" fill="white"/>
</clipPath>
</defs>
</svg>
