<svg width="24" height="24" viewBox="0 0 24 24" fill="none" xmlns="http://www.w3.org/2000/svg">
<path d="M20.8801 5.76001H6.00008C4.94408 5.76001 4.08008 6.62401 4.08008 7.68001V8.40001C4.08008 8.66401 4.29608 8.88001 4.56008 8.88001C4.82408 8.88001 5.04008 8.66401 5.04008 8.40001V7.68001C5.04008 7.58401 5.06408 7.48801 5.08808 7.39201L10.4641 12L5.08808 16.608C5.06408 16.512 5.04008 16.416 5.04008 16.32V15.6C5.04008 15.336 4.82408 15.12 4.56008 15.12C4.29608 15.12 4.08008 15.336 4.08008 15.6V16.32C4.08008 17.376 4.94408 18.24 6.00008 18.24H20.8801C21.9361 18.24 22.8001 17.376 22.8001 16.32V7.68001C22.8001 6.62401 21.9361 5.76001 20.8801 5.76001ZM5.80808 6.74401C5.85608 6.72001 5.92808 6.72001 6.00008 6.72001H20.8801C20.9521 6.72001 21.0241 6.72001 21.0721 6.74401L13.7521 13.008C13.5601 13.152 13.3201 13.152 13.1281 13.008L5.80808 6.74401ZM20.8801 17.28H6.00008C5.92808 17.28 5.85608 17.28 5.80808 17.256L11.2081 12.624L12.5041 13.752C12.7681 13.992 13.1041 14.112 13.4401 14.112C13.7761 14.112 14.1121 13.992 14.3761 13.752L15.6721 12.624L21.0721 17.256C21.0241 17.28 20.9521 17.28 20.8801 17.28ZM21.8401 16.32C21.8401 16.416 21.8161 16.512 21.7921 16.608L16.4161 12L21.7921 7.39201C21.8161 7.48801 21.8401 7.58401 21.8401 7.68001V16.32Z" fill="#0054A6"/>
<path d="M5.99922 13.6802H1.67922C1.41522 13.6802 1.19922 13.4642 1.19922 13.2002C1.19922 12.9362 1.41522 12.7202 1.67922 12.7202H5.99922C6.26322 12.7202 6.47922 12.9362 6.47922 13.2002C6.47922 13.4642 6.26322 13.6802 5.99922 13.6802Z" fill="#ED1C24"/>
<path d="M2.64062 10.7998C2.64062 10.5358 2.85663 10.3198 3.12063 10.3198H6.00062C6.26462 10.3198 6.48062 10.5358 6.48062 10.7998C6.48062 11.0638 6.26462 11.2798 6.00062 11.2798H3.12063C2.85663 11.2798 2.64062 11.0638 2.64062 10.7998Z" fill="#FFC107"/>
</svg>
