<svg width="50" height="50" viewBox="0 0 50 50" fill="none" xmlns="http://www.w3.org/2000/svg">
<path d="M9.22852 45.2588C9.22852 46.2313 9.61486 47.164 10.3026 47.8517C10.6431 48.1923 11.0473 48.4624 11.4922 48.6466C11.9371 48.8309 12.414 48.9258 12.8955 48.9258H37.1094C38.082 48.9258 39.0148 48.5395 39.7027 47.8518C40.3905 47.1641 40.7771 46.2314 40.7773 45.2588V40.9277H9.22852V45.2588Z" fill="#4A5058"/>
<path d="M37.1094 1.07422H12.8955C11.923 1.07422 10.9902 1.46056 10.3026 2.14826C9.61486 2.83595 9.22852 3.76866 9.22852 4.74121V6.8457H40.7715V4.74121C40.7712 3.76959 40.3855 2.83776 39.6989 2.15027C39.0123 1.46277 38.081 1.07577 37.1094 1.07422Z" fill="#4A5058"/>
<path d="M27.8984 34.2773L26.1191 37.3584C26.0058 37.5549 25.8427 37.7181 25.6462 37.8316C25.4497 37.9451 25.2269 38.0048 25 38.0048C24.7731 38.0048 24.5503 37.9451 24.3538 37.8316C24.1573 37.7181 23.9942 37.5549 23.8809 37.3584L22.1016 34.2773C21.8798 33.8934 21.5609 33.5746 21.1769 33.353C20.793 33.1314 20.3574 33.0147 19.9141 33.0146H9.22852V40.9248H40.7715V33.0146H30.0859C29.6426 33.0147 29.207 33.1314 28.8231 33.353C28.4391 33.5746 28.1202 33.8934 27.8984 34.2773Z" fill="#F6F4F9"/>
<path d="M9.22852 6.8457H40.7725V12.376H9.22852V6.8457Z" fill="#F6F4F9"/>
<path d="M28.4668 43.6611H21.5332C20.6703 43.6611 19.9707 44.3607 19.9707 45.2236V45.2246C19.9707 46.0876 20.6703 46.7871 21.5332 46.7871H28.4668C29.3297 46.7871 30.0293 46.0876 30.0293 45.2246V45.2236C30.0293 44.3607 29.3297 43.6611 28.4668 43.6611Z" fill="#CFDCE5"/>
<path d="M42.2119 12.375H7.78809C7.11813 12.3753 6.47569 12.6415 6.00196 13.1152C5.52823 13.589 5.26198 14.2314 5.26172 14.9014V30.4902C5.26172 31.1603 5.52789 31.8029 6.00167 32.2766C6.47546 32.7504 7.11805 33.0166 7.78809 33.0166H19.9141C20.3572 33.0164 20.7926 33.1328 21.1766 33.3541C21.5606 33.5754 21.8796 33.8938 22.1016 34.2773L23.8809 37.3584C23.9942 37.5549 24.1573 37.7181 24.3538 37.8316C24.5503 37.9451 24.7731 38.0048 25 38.0048C25.2269 38.0048 25.4497 37.9451 25.6462 37.8316C25.8427 37.7181 26.0058 37.5549 26.1191 37.3584L27.8984 34.2773C28.1202 33.8934 28.4391 33.5746 28.8231 33.353C29.207 33.1314 29.6426 33.0147 30.0859 33.0146H42.2119C42.8819 33.0146 43.5245 32.7485 43.9983 32.2747C44.4721 31.8009 44.7383 31.1583 44.7383 30.4883V14.9014C44.738 14.2314 44.4718 13.589 43.998 13.1152C43.5243 12.6415 42.8819 12.3753 42.2119 12.375Z" fill="#77CBCD"/>
<path d="M26.0254 16.4561L27.3555 19.1524C27.4377 19.3185 27.5591 19.4621 27.7091 19.571C27.8592 19.6799 28.0334 19.7507 28.2168 19.7774L31.1914 20.2149C31.4031 20.2452 31.602 20.3343 31.7656 20.472C31.9293 20.6097 32.051 20.7905 32.117 20.994C32.183 21.1974 32.1906 21.4152 32.1391 21.6227C32.0875 21.8303 31.9787 22.0192 31.8252 22.168L29.6767 24.2667C29.5439 24.396 29.4446 24.5556 29.3873 24.7319C29.3299 24.9081 29.3163 25.0957 29.3476 25.2784L29.8564 28.2413C29.8927 28.4518 29.8694 28.6682 29.789 28.8661C29.7086 29.064 29.5744 29.2354 29.4016 29.3609C29.2288 29.4864 29.0243 29.5611 28.8113 29.5764C28.5983 29.5916 28.3852 29.5469 28.1963 29.4473L25.5351 28.0479C25.371 27.9618 25.1883 27.9168 25.0029 27.9168C24.8175 27.9168 24.6349 27.9618 24.4707 28.0479L21.8105 29.4473C21.6216 29.5465 21.4086 29.5909 21.1957 29.5755C20.9829 29.56 20.7786 29.4854 20.6059 29.3599C20.4332 29.2345 20.299 29.0632 20.2186 28.8656C20.1381 28.6679 20.1144 28.4517 20.1504 28.2413L20.6592 25.2784C20.6905 25.0957 20.6769 24.9081 20.6196 24.7319C20.5622 24.5556 20.4629 24.396 20.3301 24.2667L18.1816 22.168C18.0281 22.0192 17.9193 21.8303 17.8677 21.6227C17.8162 21.4152 17.8238 21.1974 17.8898 20.994C17.9558 20.7905 18.0775 20.6097 18.2412 20.472C18.4048 20.3343 18.6037 20.2452 18.8154 20.2149L21.79 19.7823C21.9734 19.7556 22.1476 19.6848 22.2977 19.5759C22.4477 19.467 22.5691 19.3234 22.6514 19.1573L23.9814 16.461C24.0761 16.2713 24.2217 16.1116 24.4019 15.9999C24.5821 15.8881 24.7899 15.8286 25.0019 15.8281C25.2139 15.8276 25.422 15.8861 25.6027 15.997C25.7834 16.1079 25.9298 16.2669 26.0254 16.4561Z" fill="#F5D267"/>
<path d="M30.9199 48.9258H12.8955C11.923 48.9258 10.9902 48.5394 10.3026 47.8517C9.61486 47.164 9.22852 46.2313 9.22852 45.2588V40.9277H19.375C20.4023 41.8835 21.4697 42.7949 22.5771 43.6621H21.5342C21.1198 43.6621 20.7224 43.8267 20.4293 44.1198C20.1363 44.4128 19.9717 44.8102 19.9717 45.2246C19.9717 45.639 20.1363 46.0364 20.4293 46.3295C20.7224 46.6225 21.1198 46.7871 21.5342 46.7871H27.0664C28.3145 47.556 29.599 48.2689 30.9199 48.9258Z" fill="#404449"/>
<path d="M19.375 40.9277H9.22852V33.0176H12.5146C14.5125 35.8916 16.8124 38.5435 19.375 40.9277Z" fill="#E3E2E7"/>
<path d="M27.0703 46.7871H21.5352C21.1208 46.7871 20.7233 46.6225 20.4303 46.3295C20.1373 46.0364 19.9727 45.639 19.9727 45.2246C19.9727 44.8102 20.1373 44.4128 20.4303 44.1198C20.7233 43.8267 21.1208 43.6621 21.5352 43.6621H22.5781C24.0154 44.7877 25.5152 45.831 27.0703 46.7871Z" fill="#BAC5CB"/>
<path d="M12.5137 33.0166H7.78809C7.11805 33.0166 6.47546 32.7504 6.00167 32.2766C5.52789 31.8029 5.26172 31.1603 5.26172 30.4902V17.0586C6.69116 22.7737 9.14849 28.1811 12.5137 33.0166Z" fill="#6DBBB9"/>
</svg>
