<svg width="50" height="50" viewBox="0 0 50 50" fill="none" xmlns="http://www.w3.org/2000/svg">
<g clip-path="url(#clip0_18202_7745)">
<path d="M25 41.4062C34.0609 41.4062 41.4062 34.0609 41.4062 25C41.4062 15.9391 34.0609 8.59375 25 8.59375C15.9391 8.59375 8.59375 15.9391 8.59375 25C8.59375 34.0609 15.9391 41.4062 25 41.4062Z" fill="#6BB7FC"/>
<path d="M28.1265 11.7188C25.0699 11.7185 22.0741 12.5721 19.4767 14.1833C16.8793 15.7945 14.7837 18.0992 13.426 20.8377C12.0684 23.5761 11.5027 26.6394 11.7928 29.6821C12.0829 32.7248 13.2172 35.626 15.0679 38.0586C18.2263 40.4638 22.1497 41.6422 26.1106 41.3753C30.0716 41.1083 33.8014 39.4143 36.6085 36.6071C39.4157 33.7999 41.1098 30.0701 41.3767 26.1092C41.6436 22.1482 40.4652 18.2248 38.0601 15.0664C35.2064 12.8899 31.7155 11.7134 28.1265 11.7188Z" fill="#8FC5FF"/>
<path d="M33.9844 20.3125V29.4977C33.9844 30.5486 33.7775 31.5892 33.3753 32.5601C32.9732 33.531 32.3837 34.4132 31.6406 35.1562V40.625H18.3594V35.1562C17.6163 34.4132 17.0268 33.531 16.6247 32.5601C16.2225 31.5892 16.0156 30.5486 16.0156 29.4977V22.6562L19.1406 20.3125H33.9844Z" fill="#FFE6D6"/>
<path d="M33.9844 29.4977V20.3125H20.7031L17.5781 22.6562V29.4977C17.5781 30.5486 17.785 31.5892 18.1872 32.5601C18.5893 33.531 19.1788 34.4132 19.9219 35.1562V40.625H31.6406V35.1562C32.3837 34.4132 32.9732 33.531 33.3753 32.5601C33.7775 31.5892 33.9844 30.5486 33.9844 29.4977Z" fill="#FFDEC9"/>
<path d="M21.0938 25.4922V24.6094H24.2188C25.0476 24.6094 25.8424 24.2801 26.4285 23.6941C27.0145 23.108 27.3438 22.3132 27.3438 21.4844H26.1719C26.1719 22.0024 25.9661 22.4992 25.5998 22.8654C25.2335 23.2317 24.7368 23.4375 24.2188 23.4375H19.9219V26.5375L20.4531 26.5875C21.696 26.7064 22.8604 27.248 23.7522 28.1218C24.6439 28.9957 25.209 30.1489 25.3531 31.3891C25.3724 31.5307 25.4436 31.6601 25.5529 31.7522C25.6621 31.8443 25.8017 31.8925 25.9445 31.8875C26.0278 31.8847 26.1096 31.8644 26.1845 31.8279C26.2594 31.7915 26.3258 31.7397 26.3794 31.6758C26.4329 31.612 26.4725 31.5377 26.4954 31.4576C26.5183 31.3775 26.5242 31.2934 26.5125 31.2109C26.3397 29.8035 25.7202 28.4886 24.7448 27.4592C23.7695 26.4299 22.4898 25.7405 21.0938 25.4922Z" fill="#F9C1A2"/>
<path d="M18.3594 21.4844C18.3594 22.5631 19.2338 23.4375 20.3125 23.4375C21.3912 23.4375 22.2656 22.5631 22.2656 21.4844V16.7969C22.2656 15.7182 21.3912 14.8438 20.3125 14.8438C19.2338 14.8438 18.3594 15.7182 18.3594 16.7969V21.4844Z" fill="#FFD6BB"/>
<path d="M20.3125 14.8438C20.0436 14.8435 19.7776 14.8991 19.5312 15.007C19.8795 15.159 20.1759 15.4093 20.384 15.7272C20.5922 16.0452 20.7031 16.4169 20.7031 16.7969V21.4844C20.7031 21.8644 20.5922 22.2361 20.384 22.554C20.1759 22.8719 19.8795 23.1222 19.5312 23.2742C19.8285 23.4039 20.1533 23.4576 20.4764 23.4304C20.7996 23.4032 21.1109 23.2959 21.3822 23.1183C21.6535 22.9407 21.8763 22.6983 22.0306 22.4131C22.1848 22.1278 22.2656 21.8087 22.2656 21.4844V16.7969C22.2656 16.2789 22.0598 15.7821 21.6936 15.4158C21.3273 15.0495 20.8305 14.8438 20.3125 14.8438Z" fill="#F9C1A2"/>
<path d="M22.2656 21.4844C22.2656 22.5631 23.1401 23.4375 24.2188 23.4375C25.2974 23.4375 26.1719 22.5631 26.1719 21.4844V16.0156C26.1719 14.9369 25.2974 14.0625 24.2188 14.0625C23.1401 14.0625 22.2656 14.9369 22.2656 16.0156V21.4844Z" fill="#FFD6BB"/>
<path d="M24.2188 14.0625C23.9498 14.0623 23.6838 14.1179 23.4375 14.2258C23.7858 14.3778 24.0821 14.6281 24.2903 14.946C24.4984 15.2639 24.6093 15.6356 24.6094 16.0156V21.4844C24.6093 21.8644 24.4984 22.2361 24.2903 22.554C24.0821 22.8719 23.7858 23.1222 23.4375 23.2742C23.7347 23.4039 24.0595 23.4576 24.3827 23.4304C24.7058 23.4032 25.0171 23.2959 25.2884 23.1183C25.5598 22.9407 25.7826 22.6983 25.9368 22.4131C26.0911 22.1278 26.1718 21.8087 26.1719 21.4844V16.0156C26.1719 15.4976 25.9661 15.0008 25.5998 14.6346C25.2335 14.2683 24.7368 14.0625 24.2188 14.0625Z" fill="#F9C1A2"/>
<path d="M26.1719 21.4844C26.1719 22.5631 27.0463 23.4375 28.125 23.4375C29.2037 23.4375 30.0781 22.5631 30.0781 21.4844V16.7969C30.0781 15.7182 29.2037 14.8438 28.125 14.8438C27.0463 14.8438 26.1719 15.7182 26.1719 16.7969V21.4844Z" fill="#FFD6BB"/>
<path d="M28.125 14.8438C27.8561 14.8435 27.5901 14.8991 27.3438 15.007C27.692 15.159 27.9884 15.4093 28.1965 15.7272C28.4047 16.0452 28.5156 16.4169 28.5156 16.7969V21.4844C28.5156 21.8644 28.4047 22.2361 28.1965 22.554C27.9884 22.8719 27.692 23.1222 27.3438 23.2742C27.641 23.4039 27.9658 23.4576 28.2889 23.4304C28.6121 23.4032 28.9234 23.2959 29.1947 23.1183C29.466 22.9407 29.6888 22.6983 29.8431 22.4131C29.9973 22.1278 30.0781 21.8087 30.0781 21.4844V16.7969C30.0781 16.2789 29.8724 15.7821 29.5061 15.4158C29.1398 15.0495 28.643 14.8438 28.125 14.8438Z" fill="#F9C1A2"/>
<path d="M30.0781 21.4844C30.0781 22.5631 30.9526 23.4375 32.0312 23.4375C33.1099 23.4375 33.9844 22.5631 33.9844 21.4844V17.5781C33.9844 16.4994 33.1099 15.625 32.0312 15.625C30.9526 15.625 30.0781 16.4994 30.0781 17.5781V21.4844Z" fill="#FFD6BB"/>
<path d="M32.0312 15.625C31.7623 15.6248 31.4963 15.6804 31.25 15.7883C31.5983 15.9403 31.8946 16.1906 32.1028 16.5085C32.3109 16.8264 32.4218 17.1981 32.4219 17.5781V21.4844C32.4218 21.8644 32.3109 22.2361 32.1028 22.554C31.8946 22.8719 31.5983 23.1222 31.25 23.2742C31.5472 23.4039 31.872 23.4576 32.1952 23.4304C32.5183 23.4032 32.8296 23.2959 33.1009 23.1183C33.3723 22.9407 33.5951 22.6983 33.7493 22.4131C33.9036 22.1278 33.9843 21.8087 33.9844 21.4844V17.5781C33.9844 17.0601 33.7786 16.5633 33.4123 16.1971C33.046 15.8308 32.5493 15.625 32.0312 15.625Z" fill="#F9C1A2"/>
<path d="M24.2188 19.5312H19.1406C18.3118 19.5312 17.517 19.8605 16.9309 20.4465C16.3449 21.0326 16.0156 21.8274 16.0156 22.6562V28.9062L19.9219 26.5625V23.4375H24.2188C24.7368 23.4375 25.2335 23.2317 25.5998 22.8654C25.9661 22.4992 26.1719 22.0024 26.1719 21.4844C26.1719 20.9664 25.9661 20.4696 25.5998 20.1033C25.2335 19.737 24.7368 19.5312 24.2188 19.5312Z" fill="#FFE6D6"/>
<path d="M17.5781 22.6562V29.4273L24.8695 31.8578L25.3891 31.9008C25.355 30.4734 24.764 29.1159 23.7425 28.1184C22.7209 27.1209 21.3497 26.5625 19.9219 26.5625V23.4375H24.2188C24.7368 23.4375 25.2335 23.2317 25.5998 22.8654C25.9661 22.4992 26.1719 22.0024 26.1719 21.4844C26.1719 20.9664 25.9661 20.4696 25.5998 20.1033C25.2335 19.737 24.7368 19.5312 24.2188 19.5312H20.7031C19.8743 19.5312 19.0795 19.8605 18.4934 20.4465C17.9074 21.0326 17.5781 21.8274 17.5781 22.6562Z" fill="#FFDEC9"/>
<path d="M49.2188 28.125V21.875H45.8594C45.6258 20.2991 45.2133 18.755 44.6297 17.2727L47.5328 15.5969L44.4078 10.1844L41.5 11.8633C40.5077 10.6179 39.3782 9.48836 38.1328 8.49609L39.8117 5.58828L34.3992 2.46328L32.7273 5.36641C31.2448 4.78415 29.7007 4.3729 28.125 4.14063V0.78125H21.875V4.14063C20.2991 4.37416 18.755 4.78672 17.2727 5.37031L15.5969 2.46328L10.1844 5.58828L11.8633 8.49609C10.6179 9.48836 9.48836 10.6179 8.49609 11.8633L5.58828 10.1844L2.46328 15.5969L5.36641 17.2727C4.78415 18.7552 4.3729 20.2993 4.14063 21.875H0.78125V28.125H4.14063C4.37416 29.7009 4.78672 31.245 5.37031 32.7273L2.46328 34.4031L5.58828 39.8156L8.49609 38.1367C9.48836 39.3821 10.6179 40.5116 11.8633 41.5039L10.1844 44.4117L15.5969 47.5367L17.2727 44.6336C18.755 45.2172 20.2991 45.6297 21.875 45.8633V49.2188H28.125V45.8594C29.7009 45.6258 31.245 45.2133 32.7273 44.6297L34.4031 47.5328L39.8156 44.4078L38.1367 41.5C39.3821 40.5077 40.5116 39.3782 41.5039 38.1328L44.4117 39.8117L47.5367 34.3992L44.6336 32.7234C45.2169 31.2423 45.6295 29.6996 45.8633 28.125H49.2188ZM25 39.8438C22.0642 39.8438 19.1943 38.9732 16.7533 37.3421C14.3122 35.7111 12.4097 33.3928 11.2862 30.6805C10.1627 27.9681 9.86872 24.9835 10.4415 22.1041C11.0142 19.2247 12.4279 16.5798 14.5039 14.5039C16.5798 12.4279 19.2247 11.0142 22.1041 10.4415C24.9835 9.86872 27.9681 10.1627 30.6805 11.2862C33.3928 12.4097 35.7111 14.3122 37.3421 16.7533C38.9732 19.1943 39.8438 22.0642 39.8438 25C39.8392 28.9354 38.2738 32.7083 35.4911 35.4911C32.7083 38.2738 28.9354 39.8392 25 39.8438Z" fill="#877E99"/>
<path d="M25 7.03125C21.4461 7.03125 17.9721 8.0851 15.0171 10.0595C12.0622 12.034 9.75906 14.8403 8.39905 18.1237C7.03904 21.407 6.68319 25.0199 7.37652 28.5055C8.06985 31.9911 9.78121 35.1929 12.2942 37.7058C14.8072 40.2188 18.0089 41.9302 21.4945 42.6235C24.9801 43.3168 28.593 42.961 31.8764 41.601C35.1597 40.241 37.966 37.9378 39.9405 34.9829C41.9149 32.028 42.9688 28.5539 42.9688 25C42.9688 20.2344 41.0756 15.664 37.7058 12.2942C34.336 8.92438 29.7656 7.03125 25 7.03125ZM25 39.8438C22.0642 39.8438 19.1943 38.9732 16.7533 37.3421C14.3122 35.7111 12.4097 33.3928 11.2862 30.6805C10.1627 27.9681 9.86873 24.9835 10.4415 22.1041C11.0142 19.2247 12.428 16.5798 14.5039 14.5039C16.5798 12.4279 19.2247 11.0142 22.1041 10.4415C24.9835 9.86872 27.9681 10.1627 30.6805 11.2862C33.3928 12.4097 35.7111 14.3122 37.3421 16.7533C38.9732 19.1943 39.8438 22.0642 39.8438 25C39.8392 28.9354 38.2739 32.7083 35.4911 35.4911C32.7083 38.2739 28.9354 39.8392 25 39.8438Z" fill="#968CA9"/>
</g>
<defs>
<clipPath id="clip0_18202_7745">
<rect width="50" height="50" fill="white"/>
</clipPath>
</defs>
</svg>
