<svg width="453" height="333" viewBox="0 0 453 333" fill="none" xmlns="http://www.w3.org/2000/svg">
<path d="M0 24C0 10.7452 10.7452 0 24 0H429C442.255 0 453 10.7452 453 24V333H0V24Z" fill="#002548"/>
<mask id="mask0_14923_28567" style="mask-type:alpha" maskUnits="userSpaceOnUse" x="0" y="0" width="453" height="333">
<path d="M0 24C0 10.7452 10.7452 0 24 0H429C442.255 0 453 10.7452 453 24V333H0V24Z" fill="#002548"/>
</mask>
<g mask="url(#mask0_14923_28567)">
</g>
<g clip-path="url(#clip0_14923_28567)">
<path d="M263.764 145.643C262.537 144.937 261.183 144.483 259.779 144.305C258.376 144.127 256.951 144.229 255.587 144.606C254.224 144.982 252.948 145.626 251.835 146.499C250.722 147.372 249.793 148.458 249.103 149.693L247.685 152.123C247.643 152.223 247.565 152.304 247.467 152.351C247.369 152.398 247.257 152.408 247.152 152.378C247.048 152.348 246.957 152.281 246.899 152.189C246.84 152.097 246.818 151.987 246.835 151.88V116.159C246.907 115.224 246.785 114.284 246.477 113.398C246.169 112.513 245.681 111.7 245.044 111.012C244.407 110.324 243.635 109.775 242.776 109.399C241.916 109.024 240.989 108.83 240.051 108.83C239.113 108.83 238.186 109.024 237.326 109.399C236.467 109.775 235.695 110.324 235.058 111.012C234.421 111.7 233.933 112.513 233.625 113.398C233.317 114.284 233.195 115.224 233.267 116.159V108.059C233.339 107.124 233.218 106.184 232.91 105.298C232.601 104.413 232.114 103.6 231.477 102.912C230.84 102.224 230.067 101.675 229.208 101.299C228.349 100.924 227.421 100.73 226.483 100.73C225.546 100.73 224.618 100.924 223.759 101.299C222.9 101.675 222.127 102.224 221.49 102.912C220.853 103.6 220.365 104.413 220.057 105.298C219.749 106.184 219.627 107.124 219.7 108.059V116.159C219.701 115.242 219.516 114.336 219.156 113.493C218.796 112.651 218.268 111.89 217.606 111.258C216.943 110.625 216.158 110.134 215.3 109.814C214.442 109.494 213.527 109.351 212.612 109.395C210.872 109.528 209.247 110.318 208.067 111.603C206.886 112.889 206.238 114.575 206.254 116.321V125.19C206.254 123.396 205.541 121.676 204.273 120.408C203.004 119.139 201.284 118.427 199.49 118.427C197.696 118.427 195.976 119.139 194.708 120.408C193.439 121.676 192.727 123.396 192.727 125.19V173.345C192.707 179.358 194.703 185.204 198.397 189.95C200.617 192.81 201.815 196.332 201.799 199.953V280.305C201.799 280.391 201.833 280.473 201.894 280.534C201.954 280.595 202.037 280.629 202.123 280.629H237.439C237.525 280.629 237.607 280.595 237.668 280.534C237.729 280.473 237.763 280.391 237.763 280.305V199.953C237.744 196.351 238.927 192.845 241.124 189.99C242.054 188.794 242.881 187.52 243.595 186.183L264.776 149.733C264.992 149.405 265.138 149.036 265.204 148.65C265.269 148.263 265.254 147.866 265.159 147.486C265.064 147.105 264.891 146.748 264.651 146.438C264.41 146.128 264.108 145.871 263.764 145.683V145.643Z" fill="#C2DBF4"/>
<path d="M216.216 147.951C217.14 147.951 218.026 147.584 218.679 146.931C219.332 146.278 219.699 145.392 219.699 144.468V116.118C219.699 115.214 219.519 114.319 219.17 113.486C218.82 112.652 218.308 111.897 217.664 111.263C217.019 110.63 216.254 110.131 215.415 109.797C214.575 109.462 213.677 109.298 212.774 109.314V144.428C212.768 144.885 212.853 145.339 213.023 145.764C213.193 146.188 213.445 146.575 213.765 146.902C214.085 147.23 214.466 147.491 214.886 147.671C215.307 147.85 215.759 147.946 216.216 147.951Z" fill="#97C2EE" fill-opacity="0.6"/>
<path d="M206.253 144.468V125.19C206.253 123.396 205.54 121.676 204.272 120.407C203.003 119.139 201.283 118.427 199.489 118.427V144.468C199.436 144.954 199.487 145.446 199.637 145.911C199.787 146.377 200.033 146.806 200.36 147.17C200.686 147.533 201.086 147.825 201.533 148.024C201.979 148.223 202.463 148.326 202.952 148.326C203.441 148.326 203.924 148.223 204.371 148.024C204.818 147.825 205.217 147.533 205.544 147.17C205.87 146.806 206.117 146.377 206.267 145.911C206.417 145.446 206.467 144.954 206.415 144.468H206.253Z" fill="#97C2EE" fill-opacity="0.6"/>
<path d="M229.78 147.951C230.704 147.951 231.59 147.584 232.243 146.931C232.897 146.278 233.263 145.392 233.263 144.468V108.018C233.253 106.228 232.537 104.513 231.271 103.247C230.005 101.981 228.291 101.265 226.5 101.255V144.468C226.511 145.389 226.881 146.268 227.532 146.919C228.183 147.57 229.063 147.94 229.983 147.951H229.78Z" fill="#97C2EE" fill-opacity="0.6"/>
<path d="M107.592 223.2C107.541 223.238 107.501 223.287 107.472 223.343C107.444 223.399 107.43 223.461 107.43 223.524C107.43 223.587 107.444 223.649 107.472 223.705C107.501 223.761 107.541 223.81 107.592 223.848L116.259 232.515C116.296 232.565 116.345 232.606 116.402 232.634C116.458 232.662 116.52 232.677 116.583 232.677C116.646 232.677 116.708 232.662 116.764 232.634C116.82 232.606 116.869 232.565 116.907 232.515L122.536 226.845V219.595L115.692 215.1L107.592 223.2Z" fill="#ED1C24"/>
<path d="M243.712 285.813H197.056C196.999 285.813 196.943 285.802 196.891 285.779C196.839 285.756 196.792 285.723 196.754 285.681C196.716 285.638 196.687 285.589 196.669 285.535C196.652 285.481 196.645 285.424 196.651 285.368V208.418C196.644 208.363 196.65 208.307 196.669 208.255C196.687 208.203 196.716 208.156 196.755 208.117C196.794 208.078 196.842 208.048 196.894 208.03C196.946 208.012 197.001 208.006 197.056 208.013H243.712C243.768 208.007 243.826 208.013 243.879 208.031C243.933 208.049 243.983 208.078 244.025 208.116C244.067 208.154 244.1 208.201 244.123 208.253C244.146 208.305 244.158 208.361 244.157 208.418V285.368C244.157 285.486 244.111 285.599 244.027 285.683C243.943 285.766 243.83 285.813 243.712 285.813Z" fill="#136EC6"/>
<path d="M342.941 92.871C341.727 92.1576 340.383 91.6911 338.988 91.4984C337.593 91.3056 336.173 91.3904 334.811 91.748C333.449 92.1055 332.171 92.7286 331.05 93.5817C329.929 94.4347 328.988 95.5007 328.28 96.7185L326.863 99.189C326.82 99.2894 326.743 99.3707 326.645 99.4178C326.546 99.4648 326.434 99.4743 326.33 99.4444C326.225 99.4145 326.135 99.3473 326.076 99.2555C326.018 99.1636 325.995 99.0536 326.012 98.946V63.387C326.084 62.4521 325.963 61.5123 325.655 60.6267C325.346 59.7411 324.859 58.9287 324.222 58.2405C323.585 57.5524 322.812 57.0033 321.953 56.6278C321.094 56.2523 320.166 56.0585 319.228 56.0585C318.291 56.0585 317.363 56.2523 316.504 56.6278C315.645 57.0033 314.872 57.5524 314.235 58.2405C313.598 58.9287 313.11 59.7411 312.802 60.6267C312.494 61.5123 312.372 62.4521 312.445 63.387V55.287C312.517 54.3521 312.395 53.4123 312.087 52.5267C311.779 51.6411 311.291 50.8287 310.654 50.1405C310.017 49.4524 309.245 48.9033 308.386 48.5278C307.526 48.1523 306.599 47.9585 305.661 47.9585C304.723 47.9585 303.796 48.1523 302.936 48.5278C302.077 48.9033 301.305 49.4524 300.668 50.1405C300.031 50.8287 299.543 51.6411 299.235 52.5267C298.927 53.4123 298.805 54.3521 298.877 55.287V63.387C298.878 62.4692 298.693 61.5606 298.334 60.7161C297.974 59.8715 297.447 59.1085 296.785 58.4728C296.123 57.8372 295.339 57.342 294.481 57.0173C293.622 56.6925 292.707 56.5448 291.79 56.583C290.028 56.7063 288.378 57.4942 287.175 58.7875C285.972 60.0808 285.305 61.7827 285.31 63.549V72.4185C285.178 70.7099 284.406 69.1141 283.148 67.9499C281.89 66.7858 280.24 66.1391 278.526 66.1391C276.812 66.1391 275.162 66.7858 273.904 67.9499C272.646 69.1141 271.874 70.7099 271.742 72.4185V120.573C271.743 126.59 273.753 132.433 277.453 137.178C279.673 140.039 280.871 143.561 280.855 147.182V170.55C280.854 170.591 280.863 170.631 280.879 170.669C280.896 170.706 280.921 170.739 280.951 170.766C280.982 170.793 281.019 170.813 281.058 170.825C281.097 170.836 281.138 170.839 281.179 170.834H316.616C316.653 170.834 316.69 170.826 316.725 170.812C316.759 170.798 316.79 170.777 316.817 170.751C316.843 170.724 316.864 170.693 316.878 170.659C316.892 170.624 316.9 170.587 316.9 170.55V147.182C316.881 143.579 318.064 140.073 320.261 137.219C321.228 136.025 322.069 134.736 322.772 133.371L343.954 96.921C344.324 96.2752 344.425 95.5097 344.236 94.7899C344.046 94.07 343.581 93.4535 342.941 93.0735V92.871Z" fill="#C2DBF4"/>
<path d="M285.31 91.6965V72.4185C285.31 70.6247 284.597 68.9044 283.329 67.636C282.06 66.3676 280.34 65.655 278.546 65.655H278.344V91.6965C278.344 92.6203 278.711 93.5062 279.364 94.1594C280.017 94.8126 280.903 95.1795 281.827 95.1795C282.751 95.1795 283.636 94.8126 284.29 94.1594C284.943 93.5062 285.31 92.6203 285.31 91.6965Z" fill="#97C2EE" fill-opacity="0.6"/>
<path d="M295.35 95.139C295.805 95.1443 296.257 95.0592 296.68 94.8886C297.102 94.718 297.486 94.4653 297.81 94.1451C298.134 93.8249 298.392 93.4436 298.567 93.0233C298.743 92.6029 298.833 92.152 298.833 91.6965V63.3465C298.833 62.4391 298.652 61.5409 298.3 60.7047C297.948 59.8685 297.432 59.1111 296.783 58.4771C296.134 57.8431 295.365 57.3454 294.521 57.0131C293.676 56.6809 292.774 56.5209 291.867 56.5425V91.656C291.867 92.5797 292.234 93.4656 292.887 94.1188C293.54 94.772 294.426 95.139 295.35 95.139Z" fill="#97C2EE" fill-opacity="0.6"/>
<path d="M308.96 95.1389C309.416 95.1443 309.868 95.0592 310.29 94.8886C310.712 94.718 311.097 94.4653 311.421 94.1451C311.745 93.8249 312.002 93.4436 312.177 93.0232C312.353 92.6029 312.443 92.1519 312.443 91.6964V55.2464C312.443 54.3582 312.268 53.4787 311.928 52.6581C311.588 51.8375 311.09 51.0919 310.462 50.4639C309.834 49.8358 309.089 49.3376 308.268 48.9978C307.447 48.6579 306.568 48.4829 305.68 48.4829V91.6964C305.688 92.5791 306.032 93.4256 306.641 94.0646C307.25 94.7037 308.079 95.0876 308.96 95.1389Z" fill="#97C2EE" fill-opacity="0.6"/>
<path d="M322.891 285.813H276.235C276.116 285.813 276.003 285.766 275.92 285.682C275.836 285.599 275.789 285.486 275.789 285.367V155.524C275.789 155.406 275.836 155.293 275.92 155.209C276.003 155.126 276.116 155.079 276.235 155.079H322.891C323.009 155.079 323.122 155.126 323.206 155.209C323.289 155.293 323.336 155.406 323.336 155.524V285.367C323.336 285.486 323.289 285.599 323.206 285.682C323.122 285.766 323.009 285.813 322.891 285.813Z" fill="#136EC6"/>
<path d="M235.882 286C157.523 286 94 285.647 94 284.86C94 284.238 146.804 283.093 201.953 283C202.3 283.33 201.997 283.325 202.453 283.5C211.518 282.392 202.489 283.5 202.953 283.5L204.264 284.875L204.857 283.84C214.842 283.83 225.227 283.825 235.882 283.825C247.107 283.825 258.025 283.829 268.498 283.839L282.453 283.825L285.872 284.873L284.895 283.858C339.101 283.942 377.766 284.204 377.766 284.86C377.766 285.7 314.241 286 235.882 286Z" fill="#B6E6F8"/>
<path d="M108.197 196.429C109.424 195.724 110.778 195.27 112.182 195.092C113.585 194.914 115.01 195.016 116.374 195.393C117.737 195.769 119.013 196.413 120.126 197.286C121.239 198.159 122.168 199.245 122.858 200.479L124.276 202.909C124.33 203.038 124.432 203.141 124.561 203.194C124.691 203.247 124.836 203.247 124.964 203.193C125.093 203.139 125.196 203.037 125.249 202.907C125.302 202.778 125.302 202.633 125.248 202.504V166.945C125.176 166.011 125.297 165.071 125.605 164.185C125.914 163.3 126.401 162.487 127.038 161.799C127.675 161.111 128.448 160.562 129.307 160.186C130.166 159.811 131.094 159.617 132.032 159.617C132.969 159.617 133.897 159.811 134.756 160.186C135.615 160.562 136.388 161.111 137.025 161.799C137.662 162.487 138.15 163.3 138.458 164.185C138.766 165.071 138.888 166.011 138.815 166.945V158.845C138.948 157.137 139.72 155.541 140.977 154.377C142.235 153.213 143.885 152.566 145.599 152.566C147.313 152.566 148.963 153.213 150.221 154.377C151.479 155.541 152.251 157.137 152.383 158.845V166.945C152.382 166.026 152.568 165.115 152.93 164.27C153.293 163.425 153.824 162.662 154.491 162.029C155.158 161.396 155.947 160.906 156.811 160.588C157.674 160.271 158.593 160.132 159.511 160.182C161.236 160.345 162.837 161.153 163.993 162.444C165.149 163.735 165.776 165.415 165.748 167.148V176.017C165.676 175.083 165.797 174.143 166.105 173.257C166.414 172.372 166.901 171.559 167.538 170.871C168.175 170.183 168.948 169.634 169.807 169.258C170.666 168.883 171.594 168.689 172.532 168.689C173.469 168.689 174.397 168.883 175.256 169.258C176.115 169.634 176.888 170.183 177.525 170.871C178.162 171.559 178.65 172.372 178.958 173.257C179.266 174.143 179.388 175.083 179.315 176.017V224.131C179.384 230.132 177.461 235.986 173.848 240.777C171.636 243.627 170.439 247.133 170.446 250.74V280.305C170.452 280.345 170.449 280.387 170.437 280.426C170.426 280.465 170.406 280.501 170.379 280.532C170.352 280.563 170.318 280.588 170.281 280.604C170.244 280.621 170.203 280.629 170.162 280.629H134.522C134.482 280.629 134.441 280.621 134.404 280.604C134.366 280.588 134.333 280.563 134.306 280.532C134.279 280.501 134.259 280.465 134.248 280.426C134.236 280.387 134.233 280.345 134.239 280.305V250.74C134.248 247.151 133.066 243.661 130.877 240.817C129.934 239.537 129.094 238.182 128.366 236.767L107.185 200.317C106.975 199.988 106.834 199.619 106.772 199.234C106.709 198.848 106.725 198.454 106.82 198.075C106.915 197.696 107.086 197.34 107.323 197.029C107.56 196.719 107.857 196.459 108.197 196.267V196.429Z" fill="#C2DBF4"/>
<path d="M148.783 199.9C149.707 199.9 150.593 199.533 151.246 198.88C151.899 198.227 152.266 197.341 152.266 196.417V159.967C152.282 159.069 152.119 158.176 151.786 157.341C151.454 156.507 150.958 155.747 150.328 155.106C149.699 154.465 148.948 153.956 148.119 153.608C147.29 153.261 146.401 153.082 145.502 153.082V196.255C145.469 197.17 145.792 198.062 146.405 198.742C147.017 199.422 147.87 199.838 148.783 199.9Z" fill="#97C2EE" fill-opacity="0.6"/>
<path d="M138.693 195.255V166.905C138.693 165.108 137.981 163.383 136.714 162.108C135.447 160.833 133.727 160.112 131.929 160.101H131.727V195.255C131.727 196.179 132.094 197.065 132.747 197.718C133.4 198.371 134.286 198.738 135.21 198.738C136.133 198.738 137.019 198.371 137.672 197.718C138.326 197.065 138.693 196.179 138.693 195.255Z" fill="#97C2EE" fill-opacity="0.6"/>
<path d="M162.347 198.9C162.81 198.884 163.265 198.778 163.687 198.586C164.108 198.394 164.488 198.121 164.804 197.783C165.12 197.444 165.366 197.047 165.528 196.613C165.69 196.179 165.766 195.718 165.749 195.255V166.905C165.761 165.124 165.078 163.409 163.845 162.123C162.613 160.838 160.928 160.083 159.148 160.02C159.03 159.98 158.902 159.98 158.783 160.02V195.255C158.767 195.731 158.847 196.206 159.019 196.65C159.192 197.095 159.452 197.499 159.785 197.84C160.119 198.181 160.517 198.451 160.958 198.633C161.398 198.815 161.871 198.906 162.347 198.9Z" fill="#97C2EE" fill-opacity="0.6"/>
<path d="M174.906 285.813H128.25C128.132 285.813 128.019 285.766 127.935 285.683C127.852 285.599 127.805 285.486 127.805 285.368V259.083C127.804 259.026 127.816 258.97 127.839 258.918C127.862 258.866 127.895 258.82 127.937 258.781C127.979 258.743 128.029 258.714 128.083 258.696C128.137 258.679 128.194 258.672 128.25 258.678H174.906C174.963 258.672 175.02 258.679 175.074 258.696C175.128 258.714 175.177 258.743 175.219 258.781C175.261 258.82 175.295 258.866 175.317 258.918C175.34 258.97 175.352 259.026 175.352 259.083V285.368C175.352 285.486 175.305 285.599 175.221 285.683C175.138 285.766 175.024 285.813 174.906 285.813Z" fill="#136EC6"/>
<path d="M175.102 259.002H156.431V268.925C156.431 270.955 155.625 272.902 154.189 274.337C152.754 275.773 150.807 276.579 148.777 276.579H128V285.692C128 285.81 128.047 285.923 128.13 286.007C128.214 286.09 128.327 286.137 128.445 286.137H175.102C175.22 286.137 175.333 286.09 175.417 286.007C175.5 285.923 175.547 285.81 175.547 285.692V259.407C175.547 259.35 175.536 259.294 175.513 259.242C175.49 259.19 175.456 259.144 175.414 259.105C175.372 259.067 175.323 259.038 175.269 259.02C175.215 259.003 175.158 258.996 175.102 259.002Z" fill="#0054A6"/>
<path d="M343.629 48.321L312.363 54.477C312.279 54.4962 312.202 54.5372 312.139 54.5959C312.076 54.6546 312.03 54.7289 312.005 54.8112C311.98 54.8936 311.978 54.981 311.998 55.0646C312.018 55.1482 312.06 55.225 312.12 55.287L319.977 63.387L227.88 155.322L201.636 129.078L125.617 205.097L130.477 213.521C132.821 211.789 135.663 210.865 138.577 210.888L201.757 147.749L221.521 167.513C222.665 165.276 224.406 163.4 226.55 162.092C228.695 160.784 231.159 160.095 233.671 160.101C235.955 160.096 238.201 160.682 240.192 161.802L244.89 157.104L249.264 149.531C250.141 148.008 251.38 146.724 252.87 145.792C254.36 144.86 256.056 144.308 257.809 144.185L329.008 72.8235C329.097 72.7438 329.213 72.6998 329.332 72.6998C329.452 72.6998 329.567 72.7438 329.656 72.8235L337.189 80.397C337.255 80.455 337.335 80.4954 337.421 80.5146C337.507 80.5339 337.596 80.5313 337.681 80.5071C337.765 80.483 337.842 80.438 337.905 80.3763C337.968 80.3146 338.014 80.2382 338.04 80.154L344.196 49.05C344.21 48.9724 344.206 48.8924 344.182 48.817C344.159 48.7416 344.117 48.673 344.062 48.6171C344.006 48.5613 343.937 48.5199 343.862 48.4965C343.786 48.4732 343.706 48.4685 343.629 48.483V48.321Z" fill="#ED1C24"/>
<path d="M310.132 183.712H288.991C288.505 183.765 288.013 183.715 287.547 183.565C287.082 183.415 286.653 183.168 286.289 182.842C285.925 182.515 285.634 182.115 285.435 181.669C285.236 181.222 285.133 180.739 285.133 180.25C285.133 179.761 285.236 179.277 285.435 178.831C285.634 178.384 285.925 177.984 286.289 177.658C286.653 177.331 287.082 177.085 287.547 176.935C288.013 176.785 288.505 176.734 288.991 176.787H310.132C310.618 176.734 311.11 176.785 311.575 176.935C312.041 177.085 312.469 177.331 312.833 177.658C313.197 177.984 313.488 178.384 313.688 178.831C313.887 179.277 313.99 179.761 313.99 180.25C313.99 180.739 313.887 181.222 313.688 181.669C313.488 182.115 313.197 182.515 312.833 182.842C312.469 183.168 312.041 183.415 311.575 183.565C311.11 183.715 310.618 183.765 310.132 183.712Z" fill="#0062BA"/>
<path d="M310.132 176.787H304.219V183.712H310.132C310.618 183.765 311.11 183.715 311.575 183.565C312.041 183.415 312.469 183.168 312.833 182.842C313.197 182.515 313.488 182.115 313.688 181.669C313.887 181.222 313.99 180.739 313.99 180.25C313.99 179.761 313.887 179.277 313.688 178.831C313.488 178.384 313.197 177.984 312.833 177.658C312.469 177.331 312.041 177.085 311.575 176.935C311.11 176.785 310.618 176.734 310.132 176.787Z" fill="#0290CF"/>
<path d="M230.952 236.524H209.811C208.887 236.524 208.001 236.158 207.348 235.504C206.695 234.851 206.328 233.965 206.328 233.041C206.328 232.118 206.695 231.232 207.348 230.579C208.001 229.925 208.887 229.558 209.811 229.558H230.952C231.876 229.558 232.762 229.925 233.415 230.579C234.068 231.232 234.435 232.118 234.435 233.041C234.435 233.965 234.068 234.851 233.415 235.504C232.762 236.158 231.876 236.524 230.952 236.524Z" fill="#0062BA"/>
<path d="M230.952 229.558H225.039V236.524H230.952C231.876 236.524 232.762 236.158 233.415 235.504C234.068 234.851 234.435 233.965 234.435 233.041C234.435 232.118 234.068 231.232 233.415 230.579C232.762 229.925 231.876 229.558 230.952 229.558Z" fill="#1F6CB2"/>
<path d="M209.413 224.132C211.336 224.132 212.896 222.572 212.896 220.649C212.896 218.725 211.336 217.166 209.413 217.166C207.489 217.166 205.93 218.725 205.93 220.649C205.93 222.572 207.489 224.132 209.413 224.132Z" fill="#F2FBFF"/>
<path d="M288.71 171.482C290.633 171.482 292.193 169.922 292.193 167.999C292.193 166.075 290.633 164.516 288.71 164.516C286.786 164.516 285.227 166.075 285.227 167.999C285.227 169.922 286.786 171.482 288.71 171.482Z" fill="#F2FBFF"/>
<path d="M140.6 275.81C142.524 275.81 144.083 274.25 144.083 272.327C144.083 270.403 142.524 268.844 140.6 268.844C138.677 268.844 137.117 270.403 137.117 272.327C137.117 274.25 138.677 275.81 140.6 275.81Z" fill="#F2FBFF"/>
<path d="M323.102 155H304.431V268.4C304.42 270.434 303.605 272.381 302.163 273.815C300.721 275.249 298.77 276.055 296.736 276.055H276V285.167C276 285.285 276.047 285.398 276.13 285.482C276.214 285.566 276.327 285.613 276.446 285.613H323.102C323.22 285.613 323.333 285.566 323.417 285.482C323.5 285.398 323.547 285.285 323.547 285.167V155.446C323.547 155.327 323.5 155.214 323.417 155.13C323.333 155.047 323.22 155 323.102 155Z" fill="#0054A6"/>
<path d="M244.063 208H225.393V268.75C225.393 270.78 224.586 272.727 223.151 274.163C221.715 275.598 219.768 276.405 217.738 276.405H197.002V285.517C196.996 285.573 197.003 285.631 197.02 285.684C197.038 285.738 197.067 285.788 197.105 285.83C197.144 285.872 197.19 285.905 197.242 285.928C197.294 285.951 197.35 285.963 197.407 285.963H244.063C244.181 285.963 244.295 285.916 244.378 285.832C244.462 285.748 244.509 285.635 244.509 285.517V208.567C244.509 208.51 244.497 208.454 244.474 208.402C244.451 208.35 244.418 208.303 244.376 208.265C244.334 208.227 244.284 208.198 244.23 208.18C244.177 208.163 244.12 208.156 244.063 208.162V208Z" fill="#0054A6"/>
</g>
<defs>
<clipPath id="clip0_14923_28567">
<rect width="243" height="243" fill="white" transform="translate(105 45)"/>
</clipPath>
</defs>
</svg>
