<svg width="462" height="350" viewBox="0 0 462 350" fill="none" xmlns="http://www.w3.org/2000/svg">
<path fill-rule="evenodd" clip-rule="evenodd" d="M231.472 322.434C358.772 322.434 461.97 328.472 461.97 335.92C461.97 343.368 358.772 349.408 231.472 349.408C104.172 349.408 0.974609 343.368 0.974609 335.92C0.974609 328.472 104.172 322.434 231.472 322.434Z" fill="#B2CBE3"/>
<path fill-rule="evenodd" clip-rule="evenodd" d="M237.336 19.4059C246.621 15.2798 257.496 19.4621 261.622 28.7496C265.749 38.0366 261.566 48.9093 252.279 53.036C242.992 57.1643 232.117 52.9799 227.991 43.6928C223.864 34.4053 228.048 23.5327 237.336 19.4059ZM198.591 28.5667C203.38 26.4378 208.989 28.5962 211.118 33.3856C213.245 38.1754 211.088 43.7839 206.297 45.9127C201.508 48.0405 195.899 45.8835 193.772 41.0937C191.643 36.3027 193.8 30.6939 198.591 28.5667Z" fill="#B2CBE3"/>
<path fill-rule="evenodd" clip-rule="evenodd" d="M423.162 238.347C431.131 238.347 437.591 244.807 437.591 252.776C437.591 260.743 431.131 267.203 423.162 267.203C415.195 267.203 408.734 260.743 408.734 252.776C408.734 244.807 415.195 238.347 423.162 238.347ZM442.675 215.895C447.541 215.895 451.487 219.84 451.487 224.708C451.487 229.574 447.541 233.519 442.675 233.519C437.807 233.519 433.862 229.574 433.862 224.708C433.862 219.84 437.807 215.895 442.675 215.895Z" fill="#B2CBE3"/>
<path fill-rule="evenodd" clip-rule="evenodd" d="M153.643 229.964V202.173H146.345V201.027H144.036V199.923L137.061 193.75V198.248L131.564 193.001V229.964H153.643Z" fill="#4783BE"/>
<path fill-rule="evenodd" clip-rule="evenodd" d="M136.969 229.964V198.159L131.564 193.001V229.964H136.969Z" fill="#B2CBE3"/>
<path fill-rule="evenodd" clip-rule="evenodd" d="M131.725 201.908H122.488L122.529 229.964H131.737L131.725 201.908Z" fill="#D5E2EF"/>
<path fill-rule="evenodd" clip-rule="evenodd" d="M137.061 207.069H141.31V208.17H137.061V207.069ZM137.061 228.233H141.31V229.336H137.061V228.233ZM137.061 226.469H141.31V227.573H137.061V226.469ZM137.061 224.706H141.31V225.808H137.061V224.706ZM137.061 222.943H141.31V224.044H137.061V222.943ZM137.061 221.178H141.31V222.281H137.061V221.178ZM137.061 219.414H141.31V220.518H137.061V219.414ZM137.061 217.651H141.31V218.753H137.061V217.651ZM137.061 215.887H141.31V216.989H137.061V215.887ZM137.061 214.124H141.31V215.226H137.061V214.124ZM137.061 212.359H141.31V213.462H137.061V212.359ZM137.061 210.595H141.31V211.697H137.061V210.595ZM137.061 208.832H141.31V209.934H137.061V208.832Z" fill="#F5F0F6"/>
<path d="M126.252 207.443H124.357V218.732H126.252V207.443Z" fill="#F5F0F6"/>
<path d="M126.252 221.642H124.357V229.964H126.252V221.642Z" fill="#F5F0F6"/>
<path fill-rule="evenodd" clip-rule="evenodd" d="M118.178 229.964V218.751L117.501 218.579V199.512H116.838V186.1L113.326 181.438V206.616H111.837V224.121H109.812V229.964H118.178Z" fill="#F5F0F6"/>
<path fill-rule="evenodd" clip-rule="evenodd" d="M91.337 175.245L94.7092 175.523V174.119H98.8918V175.339L102.299 175.449V181.403L104.622 181.477L106.171 222.369L103.926 222.073L102.531 183.473L101.872 183.417L103.392 229.964H99.5046L99.3924 181.014L98.7971 229.964H83.6934L83.9413 174.358H87.5431V175.467H89.3627V171.843H91.337V175.245Z" fill="#F5F0F6"/>
<path fill-rule="evenodd" clip-rule="evenodd" d="M87.5415 177.87H85.4512V183.415H87.5415V177.87ZM97.6111 221.646H95.5208V227.191H97.6111V221.646ZM97.6111 213.364H95.5208V218.91H97.6111V213.364ZM97.6111 205.082H95.5208V210.629H97.6111V205.082ZM97.6111 196.8H95.5208V202.345H97.6111V196.8ZM97.6111 188.517H95.5208V194.064H97.6111V188.517ZM97.6111 180.236H95.5208V185.783H97.6111V180.236ZM87.5415 215.213H85.4512V220.759H87.5415V215.213ZM87.5415 207.745H85.4512V213.291H87.5415V207.745ZM87.5415 200.275H85.4512V205.822H87.5415V200.275ZM87.5415 192.806H85.4512V198.353H87.5415V192.806ZM87.5415 185.338H85.4512V190.885H87.5415V185.338Z" fill="#F5F0F6"/>
<path d="M69.1939 172.594H63.3008V178.165H69.1939V172.594Z" fill="#F5F0F6"/>
<path d="M69.7896 184.416H63.8965V199.705H69.7896V184.416Z" fill="white"/>
<path fill-rule="evenodd" clip-rule="evenodd" d="M61.5389 178.408L61.5525 185.753L67.4259 185.88V198.383H61.473L61.3477 229.964H81.058V163.889L61.7704 164V173.092H67.5439V176.503H62.3067V178.605L61.5389 178.408Z" fill="#D5E2EF"/>
<path fill-rule="evenodd" clip-rule="evenodd" d="M77.469 200.898H67.5879V202.774H77.469V200.898ZM77.469 227.156H67.5879V229.031H77.469V227.156ZM77.469 223.404H67.5879V225.28H77.469V223.404ZM77.469 219.654H67.5879V221.529H77.469V219.654ZM77.469 215.902H67.5879V217.778H77.469V215.902ZM77.469 212.151H67.5879V214.028H77.469V212.151ZM77.469 208.4H67.5879V210.276H77.469V208.4ZM77.469 204.649H67.5879V206.525H77.469V204.649Z" fill="#F5F0F6"/>
<path fill-rule="evenodd" clip-rule="evenodd" d="M67.6181 202.716H61.3965V204.592H67.6181V202.716ZM67.6181 228.379H61.3965V229.964H67.6181V228.379ZM67.6181 224.712H61.3965V226.587H67.6181V224.712ZM67.6181 221.047H61.3965V222.922H67.6181V221.047ZM67.6181 217.381H61.3965V219.255H67.6181V217.381ZM67.6181 213.714H61.3965V215.591H67.6181V213.714ZM67.6181 210.049H61.3965V211.924H67.6181V210.049ZM67.6181 206.383H61.3965V208.259H67.6181V206.383Z" fill="#F5F0F6"/>
<path fill-rule="evenodd" clip-rule="evenodd" d="M21.9277 229.964V205.826H30.6701V204.453H33.4349V203.133L41.7886 195.739V201.126L48.3726 194.84V229.964H21.9277Z" fill="#4783BE"/>
<path fill-rule="evenodd" clip-rule="evenodd" d="M41.8965 229.964V201.019L48.3703 194.84V229.964H41.8965Z" fill="white"/>
<path d="M59.2452 205.51H48.1797V229.964H59.2452V205.51Z" fill="#D5E2EF"/>
<path fill-rule="evenodd" clip-rule="evenodd" d="M41.7895 211.69H36.6992V213.01H41.7895V211.69ZM41.7895 228.591H36.6992V229.911H41.7895V228.591ZM41.7895 226.478H36.6992V227.798H41.7895V226.478ZM41.7895 224.366H36.6992V225.686H41.7895V224.366ZM41.7895 222.253H36.6992V223.573H41.7895V222.253ZM41.7895 220.14H36.6992V221.46H41.7895V220.14ZM41.7895 218.028H36.6992V219.348H41.7895V218.028ZM41.7895 215.915H36.6992V217.235H41.7895V215.915ZM41.7895 213.801H36.6992V215.123H41.7895V213.801Z" fill="#F5F0F6"/>
<path d="M57.003 212.138H54.7344V225.659H57.003V212.138Z" fill="#F5F0F6"/>
<path d="M57.003 229.147H54.7344V229.964H57.003V229.147Z" fill="#F5F0F6"/>
<path fill-rule="evenodd" clip-rule="evenodd" d="M288.289 229.964V203.456H280.99V202.308H278.682V201.207L271.708 195.033V199.531L266.211 194.284V229.964H288.289Z" fill="#4783BE"/>
<path fill-rule="evenodd" clip-rule="evenodd" d="M271.615 229.964V199.443L266.211 194.284V229.964H271.615Z" fill="#B2CBE3"/>
<path fill-rule="evenodd" clip-rule="evenodd" d="M266.37 203.191H257.133L257.172 229.964H266.38L266.37 203.191Z" fill="#4783BE"/>
<path fill-rule="evenodd" clip-rule="evenodd" d="M271.707 208.35H275.956V209.452H271.707V208.35ZM271.707 229.516H275.956V229.964H271.707V229.516ZM271.707 227.753H275.956V228.854H271.707V227.753ZM271.707 225.989H275.956V227.091H271.707V225.989ZM271.707 224.224H275.956V225.326H271.707V224.224ZM271.707 222.461H275.956V223.564H271.707V222.461ZM271.707 220.696H275.956V221.799H271.707V220.696ZM271.707 218.934H275.956V220.036H271.707V218.934ZM271.707 217.169H275.956V218.272H271.707V217.169ZM271.707 215.405H275.956V216.509H271.707V215.405ZM271.707 213.642H275.956V214.744H271.707V213.642ZM271.707 211.879H275.956V212.98H271.707V211.879ZM271.707 210.114H275.956V211.217H271.707V210.114Z" fill="#F5F0F6"/>
<path d="M260.898 208.726H259.004V220.014H260.898V208.726Z" fill="#F5F0F6"/>
<path d="M260.898 222.925H259.004V229.964H260.898V222.925Z" fill="#F5F0F6"/>
<path fill-rule="evenodd" clip-rule="evenodd" d="M252.822 229.964V220.033L252.146 219.861V200.796H251.482V187.381L247.969 182.721V207.899H246.481V225.405H244.457V229.964H252.822Z" fill="#F5F0F6"/>
<path fill-rule="evenodd" clip-rule="evenodd" d="M225.981 176.528L229.354 176.806V175.401H233.536V176.622L236.944 176.732V182.685L239.266 182.758L240.815 223.651L238.57 223.356L237.175 184.756L236.515 184.7L237.996 229.964H234.146L234.037 182.297L233.458 229.964H218.344L218.586 175.64H222.188V176.749H224.007V173.126H225.981V176.528Z" fill="#4783BE"/>
<path fill-rule="evenodd" clip-rule="evenodd" d="M222.186 179.153H220.096V184.698H222.186V179.153ZM232.256 222.928H230.164V228.475H232.256V222.928ZM232.256 214.645H230.164V220.193H232.256V214.645ZM232.256 206.364H230.164V211.911H232.256V206.364ZM232.256 198.083H230.164V203.629H232.256V198.083ZM232.256 189.801H230.164V195.347H232.256V189.801ZM232.256 181.519H230.164V187.066H232.256V181.519ZM222.186 216.495H220.096V222.041H222.186V216.495ZM222.186 209.028H220.096V214.573H222.186V209.028ZM222.186 201.558H220.096V207.104H222.186V201.558ZM222.186 194.089H220.096V199.636H222.186V194.089ZM222.186 186.621H220.096V192.168H222.186V186.621Z" fill="#F5F0F6"/>
<path d="M203.838 173.876H197.945V179.447H203.838V173.876Z" fill="#F5F0F6"/>
<path d="M204.432 185.699H198.539V200.987H204.432V185.699Z" fill="white"/>
<path fill-rule="evenodd" clip-rule="evenodd" d="M196.183 179.691L196.195 187.035L202.069 187.162V199.667H196.117L195.996 229.964H215.702V165.813L196.414 165.281V174.374H202.188V177.785H196.949V179.887L196.183 179.691Z" fill="#D5E2EF"/>
<path fill-rule="evenodd" clip-rule="evenodd" d="M212.114 202.18H202.232V204.056H212.114V202.18ZM212.114 228.438H202.232V229.964H212.114V228.438ZM212.114 224.687H202.232V226.564H212.114V224.687ZM212.114 220.936H202.232V222.812H212.114V220.936ZM212.114 217.185H202.232V219.061H212.114V217.185ZM212.114 213.434H202.232V215.31H212.114V213.434ZM212.114 209.683H202.232V211.557H212.114V209.683ZM212.114 205.933H202.232V207.808H212.114V205.933Z" fill="#F5F0F6"/>
<path fill-rule="evenodd" clip-rule="evenodd" d="M202.261 204H196.039V205.875H202.261V204ZM202.261 229.661H196.039V229.964H202.261V229.661ZM202.261 225.995H196.039V227.871H202.261V225.995ZM202.261 222.33H196.039V224.204H202.261V222.33ZM202.261 218.663H196.039V220.538H202.261V218.663ZM202.261 214.998H196.039V216.873H202.261V214.998ZM202.261 211.332H196.039V213.206H202.261V211.332ZM202.261 207.665H196.039V209.541H202.261V207.665Z" fill="#F5F0F6"/>
<path fill-rule="evenodd" clip-rule="evenodd" d="M156.572 229.964V207.11H165.313V205.737H168.08V204.415L176.433 197.021V202.409L183.017 196.122V229.964H156.572Z" fill="#F5F0F6"/>
<path fill-rule="evenodd" clip-rule="evenodd" d="M176.543 229.964V202.303L183.017 196.122V229.964H176.543Z" fill="white"/>
<path d="M193.888 206.792H182.822V229.964H193.888V206.792Z" fill="#4783BE"/>
<path fill-rule="evenodd" clip-rule="evenodd" d="M176.432 212.972H171.344V214.293H176.432V212.972ZM176.432 229.873H171.344V229.964H176.432V229.873ZM176.432 227.76H171.344V229.082H176.432V227.76ZM176.432 225.649H171.344V226.967H176.432V225.649ZM176.432 223.535H171.344V224.856H176.432V223.535ZM176.432 221.424H171.344V222.742H176.432V221.424ZM176.432 219.31H171.344V220.631H176.432V219.31ZM176.432 217.197H171.344V218.518H176.432V217.197ZM176.432 215.084H171.344V216.404H176.432V215.084Z" fill="#F5F0F6"/>
<path d="M191.648 213.421H189.379V226.942H191.648V213.421Z" fill="#F5F0F6"/>
<path fill-rule="evenodd" clip-rule="evenodd" d="M170.314 256.253V228.461H163.016V227.314H160.706V226.212L153.733 220.039V224.537L148.236 219.289V256.253H170.314Z" fill="#4783BE"/>
<path fill-rule="evenodd" clip-rule="evenodd" d="M153.64 256.253V224.448L148.236 219.289V256.253H153.64Z" fill="#B2CBE3"/>
<path fill-rule="evenodd" clip-rule="evenodd" d="M148.395 228.196H139.158L139.199 256.253H148.406L148.395 228.196Z" fill="#D5E2EF"/>
<path fill-rule="evenodd" clip-rule="evenodd" d="M153.73 233.357H157.981V234.457H153.73V233.357ZM153.73 254.522H157.981V255.624H153.73V254.522ZM153.73 252.758H157.981V253.86H153.73V252.758ZM153.73 250.995H157.981V252.097H153.73V250.995ZM153.73 249.229H157.981V250.332H153.73V249.229ZM153.73 247.466H157.981V248.57H153.73V247.466ZM153.73 245.701H157.981V246.805H153.73V245.701ZM153.73 243.939H157.981V245.041H153.73V243.939ZM153.73 242.174H157.981V243.278H153.73V242.174ZM153.73 240.411H157.981V241.514H153.73V240.411ZM153.73 238.647H157.981V239.75H153.73V238.647ZM153.73 236.884H157.981V237.986H153.73V236.884ZM153.73 235.119H157.981V236.222H153.73V235.119Z" fill="#F5F0F6"/>
<path d="M142.924 233.731H141.029V245.019H142.924V233.731Z" fill="#F5F0F6"/>
<path d="M142.924 247.93H141.029V256.253H142.924V247.93Z" fill="#F5F0F6"/>
<path fill-rule="evenodd" clip-rule="evenodd" d="M134.848 256.253V245.04L134.171 244.866V225.801H133.507V212.387L129.994 207.727V232.905H128.506V250.41H126.482V256.253H134.848Z" fill="#F5F0F6"/>
<path fill-rule="evenodd" clip-rule="evenodd" d="M108.007 201.533L111.377 201.812V200.408H115.561V201.628L118.969 201.738V207.69L121.291 207.764L122.841 248.657L120.594 248.362L119.2 209.761L118.54 209.706L120.062 256.253H116.174L116.062 207.302L115.467 256.253H100.363L100.611 200.646H104.213V201.756H106.031V198.132H108.007V201.533Z" fill="#4783BE"/>
<path fill-rule="evenodd" clip-rule="evenodd" d="M104.211 204.159H102.121V209.704H104.211V204.159ZM114.281 247.933H112.189V253.48H114.281V247.933ZM114.281 239.652H112.189V245.199H114.281V239.652ZM114.281 231.369H112.189V236.917H114.281V231.369ZM114.281 223.089H112.189V228.634H114.281V223.089ZM114.281 214.806H112.189V220.353H114.281V214.806ZM114.281 206.525H112.189V212.071H114.281V206.525ZM104.211 241.501H102.121V247.047H104.211V241.501ZM104.211 234.033H102.121V239.579H104.211V234.033ZM104.211 226.564H102.121V232.109H104.211V226.564ZM104.211 219.095H102.121V224.641H104.211V219.095ZM104.211 211.627H102.121V217.173H104.211V211.627Z" fill="#F5F0F6"/>
<path d="M85.8639 198.881H79.9707V204.452H85.8639V198.881Z" fill="#F5F0F6"/>
<path d="M86.4592 210.704H80.5645V225.993H86.4592V210.704Z" fill="white"/>
<path fill-rule="evenodd" clip-rule="evenodd" d="M78.2059 204.697L78.2195 212.041L84.0929 212.169V224.672H78.141L78.0156 256.253H97.7265V211.656L78.4387 190.288V199.381H84.2125V202.79H78.9736V204.893L78.2059 204.697Z" fill="#4783BE"/>
<path fill-rule="evenodd" clip-rule="evenodd" d="M94.1389 227.186H84.2578V229.061H94.1389V227.186ZM94.1389 253.444H84.2578V255.32H94.1389V253.444ZM94.1389 249.693H84.2578V251.569H94.1389V249.693ZM94.1389 245.942H84.2578V247.817H94.1389V245.942ZM94.1389 242.191H84.2578V244.066H94.1389V242.191ZM94.1389 238.44H84.2578V240.315H94.1389V238.44ZM94.1389 234.689H84.2578V236.564H94.1389V234.689ZM94.1389 230.938H84.2578V232.813H94.1389V230.938Z" fill="#F5F0F6"/>
<path fill-rule="evenodd" clip-rule="evenodd" d="M84.2861 229.005H78.0645V230.88H84.2861V229.005ZM84.2861 254.666H78.0645V256.253H84.2861V254.666ZM84.2861 251.001H78.0645V252.876H84.2861V251.001ZM84.2861 247.335H78.0645V249.209H84.2861V247.335ZM84.2861 243.668H78.0645V245.544H84.2861V243.668ZM84.2861 240.003H78.0645V241.878H84.2861V240.003ZM84.2861 236.337H78.0645V238.213H84.2861V236.337ZM84.2861 232.67H78.0645V234.546H84.2861V232.67Z" fill="#F5F0F6"/>
<path fill-rule="evenodd" clip-rule="evenodd" d="M38.5977 243.823V232.115H47.3385V230.742H50.1034V229.421L58.4587 222.026V227.414L65.0411 221.129V256.253H60.3709C52.6714 252.503 45.3919 248.361 38.5977 243.823Z" fill="#4783BE"/>
<path fill-rule="evenodd" clip-rule="evenodd" d="M58.5684 255.35V227.308L65.0405 221.129V256.253H60.3703C59.7632 255.957 59.1696 255.65 58.5684 255.35Z" fill="white"/>
<path d="M75.9132 231.798H64.8477V256.253H75.9132V231.798Z" fill="#D5E2EF"/>
<path fill-rule="evenodd" clip-rule="evenodd" d="M58.4575 237.977H53.3672V239.299H58.4575V237.977ZM53.5663 252.766C54.3957 253.209 55.2263 253.654 56.0661 254.087H58.4573V252.766H53.5663ZM57.6353 254.88L58.4575 255.294V254.88H57.6353ZM58.4575 250.655H53.3672V251.973H58.4575V250.655ZM58.4575 248.54H53.3672V249.862H58.4575V248.54ZM58.4575 246.429H53.3672V247.749H58.4575V246.429ZM58.4575 244.317H53.3672V245.637H58.4575V244.317ZM58.4575 242.202H53.3672V243.524H58.4575V242.202ZM58.4575 240.09H53.3672V241.41H58.4575V240.09Z" fill="#F5F0F6"/>
<path d="M73.6745 238.426H71.4043V251.948H73.6745V238.426Z" fill="#F5F0F6"/>
<path d="M73.6745 255.434H71.4043V256.253H73.6745V255.434Z" fill="#F5F0F6"/>
<path fill-rule="evenodd" clip-rule="evenodd" d="M304.959 258.817V231.026H297.66V229.878H295.352V228.777L288.377 222.602V227.1L282.881 221.852V258.817H304.959Z" fill="#F5F0F6"/>
<path fill-rule="evenodd" clip-rule="evenodd" d="M288.284 258.817V227.013L282.881 221.852V258.817H288.284Z" fill="#B2CBE3"/>
<path fill-rule="evenodd" clip-rule="evenodd" d="M283.04 230.76H273.803L273.844 258.817H283.05L283.04 230.76Z" fill="#4783BE"/>
<path fill-rule="evenodd" clip-rule="evenodd" d="M288.377 235.92H292.626V237.023H288.377V235.92ZM288.377 257.087H292.626V258.189H288.377V257.087ZM288.377 255.323H292.626V256.425H288.377V255.323ZM288.377 253.559H292.626V254.662H288.377V253.559ZM288.377 251.795H292.626V252.897H288.377V251.795ZM288.377 250.032H292.626V251.133H288.377V250.032ZM288.377 248.266H292.626V249.37H288.377V248.266ZM288.377 246.503H292.626V247.605H288.377V246.503ZM288.377 244.739H292.626V245.841H288.377V244.739ZM288.377 242.976H292.626V244.078H288.377V242.976ZM288.377 241.211H292.626V242.315H288.377V241.211ZM288.377 239.447H292.626V240.55H288.377V239.447ZM288.377 237.684H292.626V238.786H288.377V237.684Z" fill="#F5F0F6"/>
<path d="M277.568 236.294H275.674V247.584H277.568V236.294Z" fill="#F5F0F6"/>
<path d="M277.568 250.495H275.674V258.817H277.568V250.495Z" fill="#F5F0F6"/>
<path fill-rule="evenodd" clip-rule="evenodd" d="M269.492 258.817V247.603L268.816 247.431V228.366H268.151V214.952L264.639 210.292V235.47H263.151V252.975H261.127V258.817H269.492Z" fill="#F5F0F6"/>
<path fill-rule="evenodd" clip-rule="evenodd" d="M242.651 204.098L246.023 204.377V202.971H250.206V204.191L253.614 204.303V210.255L255.935 210.329L257.485 251.222L255.238 250.925L253.845 212.325L253.185 212.271L254.707 258.817H250.818L250.707 209.866L250.112 258.817H235.008L235.255 203.21H238.857V204.319H240.677V200.697H242.651V204.098Z" fill="#F5F0F6"/>
<path fill-rule="evenodd" clip-rule="evenodd" d="M238.856 206.723H236.766V212.267H238.856V206.723ZM248.926 250.498H246.834V256.044H248.926V250.498ZM248.926 242.216H246.834V247.762H248.926V242.216ZM248.926 233.934H246.834V239.482H248.926V233.934ZM248.926 225.654H246.834V231.199H248.926V225.654ZM248.926 217.371H246.834V222.916H248.926V217.371ZM248.926 209.088H246.834V214.635H248.926V209.088ZM238.856 244.066H236.766V249.611H238.856V244.066ZM238.856 236.598H236.766V242.144H238.856V236.598ZM238.856 229.129H236.766V234.674H238.856V229.129ZM238.856 221.66H236.766V227.206H238.856V221.66ZM238.856 214.192H236.766V219.737H238.856V214.192Z" fill="#F5F0F6"/>
<path d="M220.508 201.447H214.615V207.017H220.508V201.447Z" fill="#F5F0F6"/>
<path d="M221.106 213.27H215.213V228.557H221.106V213.27Z" fill="white"/>
<path fill-rule="evenodd" clip-rule="evenodd" d="M212.852 207.261L212.863 214.606L218.737 214.732V227.237H212.785L212.66 258.818H232.371V214.221L213.083 192.851V201.945H218.857V205.355H213.618V207.457L212.852 207.261Z" fill="#4783BE"/>
<path fill-rule="evenodd" clip-rule="evenodd" d="M228.783 229.751H218.902V231.626H228.783V229.751ZM228.783 256.008H218.902V257.884H228.783V256.008ZM228.783 252.257H218.902V254.133H228.783V252.257ZM228.783 248.506H218.902V250.382H228.783V248.506ZM228.783 244.756H218.902V246.629H228.783V244.756ZM228.783 241.005H218.902V242.88H228.783V241.005ZM228.783 237.254H218.902V239.128H228.783V237.254ZM228.783 233.503H218.902V235.377H228.783V233.503Z" fill="#F5F0F6"/>
<path fill-rule="evenodd" clip-rule="evenodd" d="M218.93 231.569H212.709V233.445H218.93V231.569ZM218.93 257.231H212.709V258.817H218.93V257.231ZM218.93 253.566H212.709V255.441H218.93V253.566ZM218.93 249.898H212.709V251.774H218.93V249.898ZM218.93 246.233H212.709V248.109H218.93V246.233ZM218.93 242.568H212.709V244.443H218.93V242.568ZM218.93 238.901H212.709V240.776H218.93V238.901ZM218.93 235.235H212.709V237.111H218.93V235.235Z" fill="#F5F0F6"/>
<path fill-rule="evenodd" clip-rule="evenodd" d="M173.24 258.818V234.68H181.981V233.306H184.748V231.986L193.101 224.591V229.979L199.685 223.693V258.818H173.24Z" fill="#4783BE"/>
<path fill-rule="evenodd" clip-rule="evenodd" d="M193.213 258.818V229.873L199.686 223.693V258.818H193.213Z" fill="white"/>
<path d="M210.556 234.362H199.49V258.818H210.556V234.362Z" fill="#D5E2EF"/>
<path fill-rule="evenodd" clip-rule="evenodd" d="M193.102 240.542H188.014V241.863H193.102V240.542ZM193.102 257.443H188.014V258.765H193.102V257.443ZM193.102 255.331H188.014V256.651H193.102V255.331ZM193.102 253.218H188.014V254.538H193.102V253.218ZM193.102 251.105H188.014V252.427H193.102V251.105ZM193.102 248.994H188.014V250.313H193.102V248.994ZM193.102 246.88H188.014V248.201H193.102V246.88ZM193.102 244.767H188.014V246.087H193.102V244.767ZM193.102 242.654H188.014V243.975H193.102V242.654Z" fill="#F5F0F6"/>
<path d="M208.318 240.99H206.049V254.513H208.318V240.99Z" fill="#F5F0F6"/>
<path d="M208.318 257.998H206.049V258.818H208.318V257.998Z" fill="#F5F0F6"/>
<path fill-rule="evenodd" clip-rule="evenodd" d="M310.73 280.906V257.313H303.432V256.166H301.122V255.064L294.149 248.891V253.389L288.652 248.141V284.476C296.59 283.459 303.992 282.257 310.73 280.906Z" fill="#F5F0F6"/>
<path fill-rule="evenodd" clip-rule="evenodd" d="M294.057 283.74V253.3L288.652 248.141V284.476C290.485 284.241 292.281 283.994 294.057 283.74Z" fill="#B2CBE3"/>
<path fill-rule="evenodd" clip-rule="evenodd" d="M288.813 257.048H279.576L279.617 285.105H283.442C285.26 284.895 287.057 284.681 288.824 284.453L288.813 257.048Z" fill="#4783BE"/>
<path fill-rule="evenodd" clip-rule="evenodd" d="M294.148 262.209H298.399V263.309H294.148V262.209ZM294.148 283.727C294.951 283.612 295.742 283.493 296.532 283.373H294.148V283.727ZM294.148 281.61H298.399V282.712H294.148V281.61ZM294.148 279.847H298.399V280.948H294.148V279.847ZM294.148 278.082H298.399V279.183H294.148V278.082ZM294.148 276.318H298.399V277.422H294.148V276.318ZM294.148 274.553H298.399V275.657H294.148V274.553ZM294.148 272.791H298.399V273.893H294.148V272.791ZM294.148 271.026H298.399V272.13H294.148V271.026ZM294.148 269.263H298.399V270.366H294.148V269.263ZM294.148 267.5H298.399V268.601H294.148V267.5ZM294.148 265.736H298.399V266.838H294.148V265.736ZM294.148 263.971H298.399V265.074H294.148V263.971Z" fill="#F5F0F6"/>
<path d="M283.338 262.583H281.443V273.871H283.338V262.583Z" fill="#F5F0F6"/>
<path d="M283.338 276.782H281.443V285.105H283.338V276.782Z" fill="#F5F0F6"/>
<path fill-rule="evenodd" clip-rule="evenodd" d="M275.265 285.105V273.892L274.589 273.718V254.653H273.924V241.239L270.412 236.579V261.757H268.924V279.262H266.9V285.105H275.265Z" fill="#4783BE"/>
<path fill-rule="evenodd" clip-rule="evenodd" d="M248.424 230.386L251.795 230.664V229.258H255.979V230.48L259.387 230.59V236.542L261.709 236.616L263.258 277.508L261.012 277.214L259.618 238.614L258.958 238.557L260.48 285.105H256.592L256.48 236.155L255.885 285.105H240.781L241.029 229.498H244.631V230.607H246.449V226.984H248.424V230.386Z" fill="#4783BE"/>
<path fill-rule="evenodd" clip-rule="evenodd" d="M244.629 233.011H242.539V238.556H244.629V233.011ZM254.699 276.785H252.607V282.332H254.699V276.785ZM254.699 268.504H252.607V274.051H254.699V268.504ZM254.699 260.222H252.607V265.768H254.699V260.222ZM254.699 251.94H252.607V257.486H254.699V251.94ZM254.699 243.658H252.607V249.204H254.699V243.658ZM254.699 235.377H252.607V240.924H254.699V235.377ZM244.629 270.353H242.539V275.898H244.629V270.353ZM244.629 262.885H242.539V268.43H244.629V262.885ZM244.629 255.416H242.539V260.961H244.629V255.416ZM244.629 247.946H242.539V253.493H244.629V247.946ZM244.629 240.479H242.539V246.025H244.629V240.479Z" fill="#F5F0F6"/>
<path d="M226.282 227.734H220.389V233.304H226.282V227.734Z" fill="#F5F0F6"/>
<path d="M226.877 239.556H220.982V254.846H226.877V239.556Z" fill="white"/>
<path fill-rule="evenodd" clip-rule="evenodd" d="M218.625 233.549L218.637 240.893L224.511 241.021V253.524H218.559L218.434 285.105H238.144V240.508L218.857 219.139V228.231H224.63V231.642H219.391V233.745L218.625 233.549Z" fill="#4783BE"/>
<path fill-rule="evenodd" clip-rule="evenodd" d="M234.555 256.038H224.674V257.913H234.555V256.038ZM234.555 282.295H224.674V284.172H234.555V282.295ZM234.555 278.544H224.674V280.422H234.555V278.544ZM234.555 274.793H224.674V276.669H234.555V274.793ZM234.555 271.042H224.674V272.918H234.555V271.042ZM234.555 267.292H224.674V269.167H234.555V267.292ZM234.555 263.541H224.674V265.416H234.555V263.541ZM234.555 259.79H224.674V261.666H234.555V259.79Z" fill="#F5F0F6"/>
<path fill-rule="evenodd" clip-rule="evenodd" d="M224.704 257.857H218.482V259.733H224.704V257.857ZM224.704 283.518H218.482V285.105H224.704V283.518ZM224.704 279.852H218.482V281.728H224.704V279.852ZM224.704 276.187H218.482V278.061H224.704V276.187ZM224.704 272.52H218.482V274.396H224.704V272.52ZM224.704 268.855H218.482V270.73H224.704V268.855ZM224.704 265.189H218.482V267.064H224.704V265.189ZM224.704 261.523H218.482V263.398H224.704V261.523Z" fill="#F5F0F6"/>
<path fill-rule="evenodd" clip-rule="evenodd" d="M179.012 285.105V260.967H187.753V259.594H190.518V258.273L198.873 250.878V256.266L205.455 249.979V285.105H179.012Z" fill="#F5F0F6"/>
<path fill-rule="evenodd" clip-rule="evenodd" d="M198.982 285.105V256.16L205.455 249.979V285.105H198.982Z" fill="white"/>
<path d="M216.329 260.649H205.264V285.105H216.329V260.649Z" fill="#D5E2EF"/>
<path fill-rule="evenodd" clip-rule="evenodd" d="M198.874 266.829H193.783V268.151H198.874V266.829ZM198.874 283.732H193.783V285.052H198.874V283.732ZM198.874 281.617H193.783V282.939H198.874V281.617ZM198.874 279.506H193.783V280.825H198.874V279.506ZM198.874 277.392H193.783V278.714H198.874V277.392ZM198.874 275.281H193.783V276.6H198.874V275.281ZM198.874 273.169H193.783V274.488H198.874V273.169ZM198.874 271.054H193.783V272.376H198.874V271.054ZM198.874 268.942H193.783V270.262H198.874V268.942Z" fill="#F5F0F6"/>
<path d="M214.089 267.279H211.818V280.8H214.089V267.279Z" fill="#F5F0F6"/>
<path d="M214.089 284.286H211.818V285.105H214.089V284.286Z" fill="#F5F0F6"/>
<path fill-rule="evenodd" clip-rule="evenodd" d="M204.295 285.105V257.313H196.998V256.166H194.688V255.064L187.713 248.891V253.389L182.217 248.141V285.105H204.295Z" fill="#F5F0F6"/>
<path fill-rule="evenodd" clip-rule="evenodd" d="M187.621 285.105V253.3L182.217 248.141V285.105H187.621Z" fill="#F5F0F6"/>
<path fill-rule="evenodd" clip-rule="evenodd" d="M182.378 257.048H173.141L173.183 285.105H182.39L182.378 257.048Z" fill="#4783BE"/>
<path fill-rule="evenodd" clip-rule="evenodd" d="M187.715 262.209H191.964V263.309H187.715V262.209ZM187.715 283.374H191.964V284.476H187.715V283.374ZM187.715 281.61H191.964V282.712H187.715V281.61ZM187.715 279.847H191.964V280.949H187.715V279.847ZM187.715 278.082H191.964V279.183H187.715V278.082ZM187.715 276.318H191.964V277.422H187.715V276.318ZM187.715 274.553H191.964V275.657H187.715V274.553ZM187.715 272.791H191.964V273.893H187.715V272.791ZM187.715 271.026H191.964V272.13H187.715V271.026ZM187.715 269.263H191.964V270.366H187.715V269.263ZM187.715 267.5H191.964V268.601H187.715V267.5ZM187.715 265.736H191.964V266.838H187.715V265.736ZM187.715 263.971H191.964V265.074H187.715V263.971Z" fill="#F5F0F6"/>
<path d="M176.905 262.583H175.012V273.871H176.905V262.583Z" fill="#F5F0F6"/>
<path d="M176.905 276.782H175.012V285.105H176.905V276.782Z" fill="#F5F0F6"/>
<path fill-rule="evenodd" clip-rule="evenodd" d="M168.83 284.919V273.892L168.154 273.718V254.653H167.491V241.239L163.978 236.579V261.757H162.489V279.262H160.465V283.9C163.252 284.263 166.041 284.607 168.83 284.919Z" fill="white"/>
<path fill-rule="evenodd" clip-rule="evenodd" d="M141.989 230.386L145.36 230.664V229.258H149.542V230.48L152.95 230.59V236.542L155.273 236.616L156.821 277.508L154.576 277.214L153.181 238.613L152.523 238.557L153.975 283.008C152.7 282.823 151.423 282.636 150.149 282.441L150.045 236.155L149.482 282.337C144.418 281.551 139.377 280.68 134.369 279.718L134.592 229.498H138.194V230.607H140.013V226.984H141.989L141.989 230.386Z" fill="#4783BE"/>
<path fill-rule="evenodd" clip-rule="evenodd" d="M138.194 233.011H136.105V238.556H138.194V233.011ZM146.173 281.814C146.869 281.927 147.567 282.033 148.264 282.144V276.786H146.173V281.814ZM148.264 268.504H146.174V274.051H148.264V268.504ZM148.264 260.222H146.174V265.768H148.264V260.222ZM148.264 251.94H146.174V257.486H148.264V251.94ZM148.264 243.658H146.174V249.205H148.264V243.658ZM148.264 235.377H146.174V240.924H148.264V235.377ZM138.194 270.353H136.105V275.898H138.194V270.353ZM138.194 262.885H136.105V268.43H138.194V262.885ZM138.194 255.416H136.105V260.961H138.194V255.416ZM138.194 247.946H136.105V253.493H138.194V247.946ZM138.194 240.479H136.105V246.025H138.194V240.479Z" fill="#F5F0F6"/>
<path d="M119.846 227.734H113.953V233.304H119.846V227.734Z" fill="#F5F0F6"/>
<path d="M120.44 239.556H114.547V254.846H120.44V239.556Z" fill="white"/>
<path fill-rule="evenodd" clip-rule="evenodd" d="M112.189 233.549L112.202 240.893L118.076 241.021V253.524H112.123L112.039 274.729C118.503 276.386 125.07 277.873 131.71 279.197V240.508L112.421 219.139V228.232H118.194V231.642H112.957V233.745L112.189 233.549Z" fill="#4783BE"/>
<path fill-rule="evenodd" clip-rule="evenodd" d="M128.121 256.038H118.238V257.913H128.121V256.038ZM118.238 276.258C118.818 276.395 119.393 276.535 119.974 276.669H128.121V274.793H118.238L118.238 276.258ZM128.121 271.042H118.238V272.918H128.121V271.042ZM128.121 267.292H118.238V269.167H128.121V267.292ZM128.121 263.541H118.238V265.416H128.121V263.541ZM128.121 259.79H118.238V261.666H128.121V259.79Z" fill="#F5F0F6"/>
<path fill-rule="evenodd" clip-rule="evenodd" d="M118.268 257.857H112.047V259.733H118.268V257.857ZM117.938 276.187L118.268 276.265V276.187H117.938ZM118.268 272.52H112.047V274.396H118.268V272.52ZM118.268 268.855H112.047V270.73H118.268V268.855ZM118.268 265.189H112.047V267.064H118.268V265.189ZM118.268 261.523H112.047V263.398H118.268V261.523Z" fill="#F5F0F6"/>
<path fill-rule="evenodd" clip-rule="evenodd" d="M72.5781 261.733V260.967H81.3205V259.594H84.0855V258.273L92.4392 250.878V256.266L99.023 249.979V271.118C89.8944 268.375 81.0462 265.253 72.5781 261.733Z" fill="#4783BE"/>
<path fill-rule="evenodd" clip-rule="evenodd" d="M92.5508 269.101V256.16L99.023 249.979V271.118C96.85 270.465 94.69 269.796 92.5508 269.101Z" fill="white"/>
<path fill-rule="evenodd" clip-rule="evenodd" d="M98.8281 260.649H109.894V274.181C106.165 273.201 102.476 272.159 98.8281 271.06V260.649Z" fill="#D5E2EF"/>
<path fill-rule="evenodd" clip-rule="evenodd" d="M92.4419 266.829H87.3516V267.352C88.1353 267.623 88.9263 267.886 89.7158 268.151H92.4419V266.829ZM92.0589 268.942L92.4419 269.065V268.942H92.0589Z" fill="#F5F0F6"/>
<path fill-rule="evenodd" clip-rule="evenodd" d="M105.385 267.279H107.653V273.577C106.896 273.372 106.139 273.164 105.385 272.955V267.279Z" fill="#F5F0F6"/>
<path fill-rule="evenodd" clip-rule="evenodd" d="M250.235 90.2591C257.347 90.2591 263.321 95.1358 264.994 101.729C269.137 104.449 271.874 109.136 271.874 114.463C271.874 122.874 265.056 129.69 256.647 129.69C252.754 129.69 249.204 128.231 246.513 125.829C243.191 128.637 238.896 130.331 234.205 130.331C223.67 130.331 215.131 121.793 215.131 111.257C215.131 100.724 223.67 92.1831 234.205 92.1831C236.583 92.1831 238.858 92.6192 240.955 93.4132C243.525 91.4361 246.742 90.2591 250.235 90.2591Z" fill="white"/>
<path fill-rule="evenodd" clip-rule="evenodd" d="M408.217 45.0568C410.835 45.0568 413.034 46.8514 413.65 49.2779C415.174 50.2778 416.182 52.0034 416.182 53.9643C416.182 57.0593 413.673 59.5685 410.578 59.5685C409.146 59.5685 407.839 59.0306 406.848 58.1465C405.626 59.1808 404.046 59.8039 402.319 59.8039C398.443 59.8039 395.299 56.6616 395.299 52.7841C395.299 48.9079 398.443 45.764 402.319 45.764C403.194 45.764 404.031 45.9245 404.803 46.2176C405.748 45.49 406.933 45.0568 408.217 45.0568Z" fill="white"/>
<path fill-rule="evenodd" clip-rule="evenodd" d="M330.246 326.412C336.637 328.523 342.366 328.626 341.161 323.554C340.824 320.673 340.681 318.366 340.657 312.68C336.056 310.277 332.644 310.138 329.184 313.067C330.227 320.236 330.133 322.44 330.246 326.412Z" fill="#FCAB8D"/>
<path fill-rule="evenodd" clip-rule="evenodd" d="M328.248 332.987C328.292 333.729 328.266 334.528 328.413 335.348C329.104 336.758 330.719 337.672 332.643 338.443C337.036 340.206 343.135 339.778 346.018 337.39C347.209 336.403 347.976 335.284 347.736 333.757C347.68 333.474 347.246 332.823 347.156 332.5C346.82 333.328 346.362 334.097 345.825 334.682C344.138 336.519 341.846 337.292 339.122 337.433C336.88 337.525 334.583 336.997 332.485 336.107C330.885 335.43 329.384 334.187 328.248 332.987Z" fill="#0054A6"/>
<path fill-rule="evenodd" clip-rule="evenodd" d="M329.173 326.253C328.79 328.262 328.32 330.294 328.271 332.671C329.374 334.195 331.006 335.372 332.862 336.16C334.829 336.994 337.043 337.392 339.147 337.305C341.229 337.22 343.194 336.66 344.688 335.581C345.774 334.798 346.612 333.734 347.064 332.373C346.106 329.663 344.467 326.416 343.184 325.016C342.711 323.661 342.063 322.599 341.304 321.791C337.279 317.519 329.419 320.483 329.173 326.253Z" fill="#0054A6"/>
<path fill-rule="evenodd" clip-rule="evenodd" d="M328.271 332.671C328.194 332.77 328.186 332.876 328.25 332.987C329.385 334.187 330.887 335.43 332.486 336.107C334.585 336.997 336.881 337.526 339.123 337.433C341.848 337.292 344.14 336.519 345.827 334.682C346.363 334.097 346.821 333.328 347.157 332.5C347.15 332.436 347.119 332.393 347.064 332.372C346.612 333.734 345.774 334.798 344.688 335.581C343.194 336.66 341.229 337.22 339.147 337.305C337.043 337.392 334.829 336.994 332.862 336.16C331.006 335.372 329.374 334.195 328.271 332.671Z" fill="white"/>
<path fill-rule="evenodd" clip-rule="evenodd" d="M291.242 311.151C293.148 308.718 297.164 308.509 303.292 310.526C303.236 316.414 303.723 320.266 304.752 322.076C295.67 324.535 290.945 323.798 290.574 319.866C291.454 316.718 291.676 314.035 291.242 311.151Z" fill="#FCAB8D"/>
<path fill-rule="evenodd" clip-rule="evenodd" d="M295.014 334.546L296.338 334.84L306.103 332.256V329.464C297.576 332.278 290.071 334.068 283.641 334.693C277.528 335.287 272.379 334.824 268.24 333.189C268.288 333.72 268.374 334.279 268.5 334.864C274.382 337.365 283.242 337.162 295.014 334.546Z" fill="#0054A6"/>
<path fill-rule="evenodd" clip-rule="evenodd" d="M295.744 318.483C298.266 322.271 301.21 322.781 304.573 320.018C305.96 322.799 306.53 325.794 306.226 329.279C297.583 332.158 290.009 333.946 283.551 334.572C277.389 335.169 272.25 334.715 268.199 333.002C268.467 329.452 273.069 328.523 279.131 327.215C286.55 325.523 288.095 319.89 290.261 317.826C292.861 317.361 294.689 317.581 295.744 318.483Z" fill="#0054A6"/>
<path fill-rule="evenodd" clip-rule="evenodd" d="M268.241 333.189C268.158 333.124 268.147 333.062 268.201 333.001C272.253 334.715 277.391 335.169 283.554 334.572C290.011 333.946 297.585 332.157 306.228 329.279C306.248 329.369 306.205 329.43 306.104 329.464C297.576 332.278 290.072 334.068 283.642 334.693C277.528 335.287 272.38 334.824 268.241 333.189Z" fill="white"/>
<path fill-rule="evenodd" clip-rule="evenodd" d="M284.023 172.882C282.52 177.617 281.844 183.48 281.825 184.706C281.688 192.359 281.617 199.047 281.617 202.582C281.617 206.447 282.59 249.439 285.483 259.103C288.378 268.76 293.727 307.663 291.788 310.564C289.862 313.48 285.723 321.481 285.723 321.481C285.723 321.481 305.528 319.483 306.017 323.346C306.017 323.346 306.743 319.24 307.222 310.79C308.174 294.046 308.268 282.197 306.409 259.192C305.065 242.594 306.037 220.098 306.037 214.305C306.039 209.977 315.675 257.171 319.538 270.695C319.538 270.695 327.249 299.668 325.641 312.127C324.19 323.359 327.634 326.263 327.634 326.263C327.634 326.263 336.582 319.707 343.345 323.57C343.577 319.707 344.41 317.042 343.534 310.065C342.455 301.378 341.837 282.562 338.131 266.243C334.915 252.107 334.825 219.625 333.86 202.245C332.893 184.846 326.656 169.541 324.674 166.068C322.693 162.594 284.023 172.883 284.023 172.882Z" fill="#0054A6"/>
<path fill-rule="evenodd" clip-rule="evenodd" d="M306.038 214.305C301.387 198.357 298.402 185.16 297.083 174.713C295.813 179.078 292.568 186.468 291.822 186.72C290.14 187.278 284.696 184.974 281.893 183.697C281.851 184.151 281.828 184.497 281.825 184.706C281.688 192.359 281.617 199.046 281.617 202.582C281.617 206.446 282.59 249.439 285.483 259.103C287.771 266.691 288.681 292.192 288.005 304.13C287.693 309.652 286.418 315.878 285.723 321.48C285.723 321.48 305.528 319.483 306.017 323.346C306.017 323.346 306.743 319.24 307.222 310.789C308.174 294.044 308.268 282.196 306.409 259.191C305.065 242.594 306.038 220.098 306.038 214.305Z" fill="#0054A6"/>
<path fill-rule="evenodd" clip-rule="evenodd" d="M285.281 157.361C282.601 156.82 274.127 150.78 271.957 146.973C271.741 142.721 275.867 134.221 276.951 131.756C278.036 129.297 286.075 133.101 286.075 133.101C286.075 133.101 282.601 144.734 283.035 145.858C283.469 146.972 285.423 151.229 285.423 151.229L285.281 157.361Z" fill="#ED9B7D"/>
<path fill-rule="evenodd" clip-rule="evenodd" d="M284.917 105.014C281.28 107.357 281.147 107.7 279.122 113.071C277.099 118.442 274.046 134.106 273.46 136.08C273.002 139.516 281.15 141.715 282.307 141.715C283.469 141.714 288.391 133.66 289.258 130.675C290.128 127.693 284.917 105.014 284.917 105.014Z" fill="#0054A6"/>
<path fill-rule="evenodd" clip-rule="evenodd" d="M301.124 91.9564C301.603 87.3391 301.214 82.8648 299.954 78.535C297.57 72.3607 315.657 72.71 315.22 79.4321C315.139 81.8515 315.07 83.827 315.049 85.4874V85.5607L315.048 85.6657L315.046 85.7879V85.841C315.033 89.4532 315.629 91.8226 316.836 92.9494C320.428 101.166 313.269 106.179 305.292 105.634C299.136 105.213 294.044 101.325 299.045 95.0387C300.196 94.6154 300.888 93.5869 301.124 91.9564Z" fill="#ED9B7D"/>
<path fill-rule="evenodd" clip-rule="evenodd" d="M317.964 92.1815C317.204 90.716 316.778 89.8704 316.113 88.6987C315.005 89.5988 307.243 95.7234 304.548 98.3101C303.548 97.7664 298.371 96.5009 300.389 94.0057C300.537 93.8228 299.038 94.4843 298.842 94.5639C298.157 95.6705 297.894 96.4116 297.736 98.1012C297.737 99.2826 298.157 101.27 298.632 102.804C298.632 104.918 299.109 112.732 299.426 116.48C300.484 111.832 301.961 106.659 302.595 105.019C301.591 104.491 300.484 103.542 299.847 102.854C300.852 101.639 302.857 99.7395 304.548 98.7905C306.557 100.003 308.881 101.217 310.306 102.645C309.407 103.331 307.348 104.545 306.081 105.285C306.45 107.925 307.189 114.475 307.295 117.168C307.98 115.687 309.563 110.144 310.462 107.978C311.361 105.814 316.644 94.1337 317.964 92.1815Z" fill="white"/>
<path fill-rule="evenodd" clip-rule="evenodd" d="M309.443 103.241C309.784 103.021 310.08 102.816 310.306 102.645C310.929 103.24 311.531 104.016 311.817 104.46C311.118 103.904 310.111 103.402 309.443 103.241Z" fill="#719BD8"/>
<path fill-rule="evenodd" clip-rule="evenodd" d="M300.601 103.589C300.312 103.331 300.053 103.079 299.847 102.854C299.337 103.365 299.02 103.922 298.734 104.427C299.449 103.985 300.058 103.747 300.601 103.589Z" fill="#719BD8"/>
<path fill-rule="evenodd" clip-rule="evenodd" d="M299.426 116.48C299.74 119.472 300.977 125.362 302.876 129.307C304.635 125.222 305.681 122.133 307.294 117.168C307.188 114.475 306.45 107.925 306.08 105.285C307.347 104.545 309.407 103.331 310.306 102.645C308.881 101.217 306.556 100.003 304.548 98.7902C302.857 99.7392 300.852 101.638 299.847 102.853C300.483 103.541 301.591 104.491 302.594 105.019C301.961 106.659 300.483 111.832 299.426 116.48Z" fill="#ED1C24"/>
<path fill-rule="evenodd" clip-rule="evenodd" d="M315.764 115.108C312.897 118.894 308.601 123.627 302.876 129.307C299.078 127.463 295.723 122.589 292.812 114.687C294.331 112.281 295.577 109.828 296.554 107.331C296.047 107.005 295.137 106.881 293.821 106.952C293.618 105.446 294.306 102.496 295.887 98.1012C295.145 98.8923 293.881 99.4759 292.665 100.161C291.451 100.849 286.225 104.659 284.917 105.014C280.858 109.979 285.317 132.656 284.569 147.618C284.058 157.799 282.191 180.314 279.523 188.15C283.319 189.718 289.363 195.58 293.369 195.984C295.922 195.17 297.476 188.881 298.027 178.363C299.231 188.006 301.18 195.506 303.877 196.524C316.064 197.451 325.922 196.437 334.845 192.715C335.029 192.377 332.977 170.122 332.502 166.639C332.077 163.54 332.84 154.244 333.401 149.737C329.235 118.034 331.638 102.588 340.61 103.399C340.529 103.143 340.267 102.95 340.053 102.844C337.805 101.702 334.938 101.338 333.099 100.42C330.463 99.1073 328.003 97.6665 325.306 96.414C323.997 95.8086 322.221 94.2676 320.549 93.2219C319.147 96.5112 317.72 101.199 316.267 107.288C315.202 107.391 314.221 107.504 313.325 107.626C314.081 109.391 314.893 111.885 315.764 115.108Z" fill="#0054A6"/>
<path fill-rule="evenodd" clip-rule="evenodd" d="M320.548 93.222C319.146 96.5113 317.719 101.199 316.268 107.29C315.201 107.392 314.22 107.504 313.325 107.626C314.08 109.393 314.892 111.885 315.763 115.108C312.896 118.895 308.6 123.628 302.875 129.308C304.634 125.223 305.68 122.133 307.293 117.168C307.978 115.687 309.562 110.144 310.461 107.978C310.693 107.418 311.219 106.22 311.894 104.721C313.435 101.295 315.75 96.2891 317.122 93.6638C317.473 92.9918 317.764 92.4762 317.962 92.1815C318.727 92.2143 319.621 92.6425 320.548 93.222Z" fill="#0054A6"/>
<path fill-rule="evenodd" clip-rule="evenodd" d="M298.638 103.234C298.688 105.822 299.128 112.951 299.426 116.48C299.74 119.472 300.977 125.362 302.877 129.307C299.078 127.463 295.723 122.589 292.812 114.687C294.332 112.281 295.578 109.828 296.554 107.331C296.048 107.005 295.137 106.881 293.822 106.952C293.619 105.447 294.306 102.496 295.887 98.1012C296.625 97.3087 298.157 94.6683 298.842 94.5639C298.39 95.2931 298.122 95.8633 297.947 96.6526C297.855 97.0595 297.789 97.5263 297.736 98.1012C297.737 99.2826 298.158 101.27 298.632 102.804C298.632 102.927 298.633 103.072 298.638 103.234Z" fill="#0054A6"/>
<path fill-rule="evenodd" clip-rule="evenodd" d="M282.335 137.585C277.961 136.23 275.003 135.73 273.46 136.08C271.526 143.116 270.916 146.981 271.632 147.674C276.906 153.687 281.008 157.227 283.935 158.297C288.239 158.373 289.33 155.145 287.208 148.613C285.796 143.769 284.172 140.092 282.335 137.585Z" fill="#0054A6"/>
<path fill-rule="evenodd" clip-rule="evenodd" d="M315.602 84.7022C322.099 83.8728 323.587 73.6321 319.852 74.9255C324.002 55.0677 300.285 52.1198 294.564 67.3234C293.888 70.5514 293.575 73.2182 293.762 74.6749C294.011 76.6077 294.829 76.1942 294.411 77.7865C293.543 81.1014 293.411 81.9116 295.836 86.9842C296.588 88.5574 296.468 90.4606 297.623 91.9267C299.095 93.792 302.906 93.6107 306.302 92.5587C314.232 90.1032 312.48 89.0336 315.602 84.7022Z" fill="#FCAB8D"/>
<path fill-rule="evenodd" clip-rule="evenodd" d="M294.422 77.8098C294.478 78.3535 294.624 78.921 294.624 78.921C294.626 78.921 295.232 79.1154 296.287 78.9427C296.644 78.8824 297.052 78.7806 297.507 78.6159C297.703 77.4506 297.753 76.9007 297.753 76.9007L297.529 76.4533C297.529 76.4533 297.268 76.3914 296.946 76.3233L296.324 76.2364C295.687 76.1979 295.05 76.2952 294.456 76.5368L294.44 76.5455C294.44 76.5459 294.36 77.1737 294.422 77.8098Z" fill="white"/>
<path fill-rule="evenodd" clip-rule="evenodd" d="M301.08 78.3494C301.08 78.3494 301.55 78.4965 302.226 78.681C302.798 78.8312 303.518 79.0078 304.222 79.1388C304.787 79.2433 305.339 79.3171 305.796 79.3243C307.568 79.0108 308.682 78.4152 308.682 78.4152C307.648 77.0058 306.079 76.0743 304.576 75.8665C303.707 75.7427 302.91 75.8134 302.388 76.0334L301.915 76.546C301.334 77.337 301.078 78.3494 301.08 78.3494Z" fill="white"/>
<path fill-rule="evenodd" clip-rule="evenodd" d="M301.812 77.3562C301.827 77.8614 301.982 78.3244 302.226 78.681C302.798 78.8311 303.518 79.0078 304.222 79.1388C304.731 78.778 305.067 78.065 305.044 77.2606C305.028 76.7201 304.85 76.2279 304.576 75.8667C303.707 75.7429 302.91 75.8136 302.388 76.0336L301.915 76.5462C301.842 76.7949 301.802 77.0703 301.812 77.3562Z" fill="#0054A6"/>
<path fill-rule="evenodd" clip-rule="evenodd" d="M294.422 77.8098C294.478 78.3535 294.624 78.921 294.624 78.921C294.626 78.921 295.232 79.1154 296.287 78.9427C296.483 78.5316 296.594 78.0145 296.576 77.4578C296.563 77.0082 296.47 76.5899 296.324 76.2364C295.687 76.1979 295.05 76.2952 294.456 76.5368L294.44 76.5455C294.44 76.5459 294.36 77.1737 294.422 77.8098Z" fill="#0054A6"/>
<path fill-rule="evenodd" clip-rule="evenodd" d="M308.685 78.4154C308.235 78.0209 307.764 77.6671 307.273 77.3504C306.782 77.0308 306.277 76.7387 305.756 76.5003C305.493 76.3797 305.225 76.2762 304.96 76.1958L304.557 76.1027L304.131 76.044C303.847 76.0129 303.561 75.9983 303.275 76.0071L302.849 76.0408L302.428 76.1219L302.453 76.1083L301.918 76.546L302.331 75.9566L302.332 75.954L302.354 75.9436L302.786 75.7637L303.24 75.6531C303.545 75.6 303.855 75.587 304.163 75.5973L304.623 75.6343L305.091 75.7325C305.395 75.8168 305.684 75.9374 305.958 76.0688C306.509 76.3395 307.015 76.6831 307.481 77.0719C307.939 77.4654 308.367 77.9061 308.685 78.4154Z" fill="#0054A6"/>
<path fill-rule="evenodd" clip-rule="evenodd" d="M311.656 75.2611C310.814 74.9077 309.81 74.5037 309.155 74.2799C308.251 74.1104 301.408 74.6058 301.408 74.6058C300.954 74.4894 300.452 74.3522 300.074 74.2436C299.819 74.1729 299.658 73.9401 299.658 73.6937L299.707 73.4639C299.874 73.0823 300.303 72.8906 300.695 73.0236L301.855 73.4155C301.855 73.4155 305.735 72.9056 308.355 73.0953C310.092 73.638 311.335 74.3408 311.656 75.2611Z" fill="#0054A6"/>
<path fill-rule="evenodd" clip-rule="evenodd" d="M295.772 73.0825L294.788 72.9837C294.308 72.9614 293.819 73.069 293.487 73.3154C293.091 73.6127 293.155 73.9 293.4 74.1282C293.705 74.4141 294.233 74.5293 294.724 74.4573C295.082 74.4027 295.489 74.3169 295.885 74.2212C296.683 74.0254 296.596 73.2061 295.772 73.0825Z" fill="#0054A6"/>
<path fill-rule="evenodd" clip-rule="evenodd" d="M305.298 77.6026C305.298 77.9249 305.037 78.1904 304.711 78.1904C304.385 78.1904 304.121 77.9265 304.121 77.6026C304.121 77.2736 304.385 77.0132 304.711 77.0132C305.038 77.0132 305.298 77.2736 305.298 77.6026Z" fill="white"/>
<path fill-rule="evenodd" clip-rule="evenodd" d="M296.96 77.5715C296.96 77.8484 296.736 78.0756 296.454 78.0756C296.174 78.0756 295.947 77.85 295.947 77.5715C295.947 77.2887 296.174 77.0647 296.454 77.0647C296.736 77.0647 296.96 77.2887 296.96 77.5715Z" fill="white"/>
<path fill-rule="evenodd" clip-rule="evenodd" d="M297.528 76.4535C297.254 76.4811 296.985 76.4593 296.733 76.4447C296.476 76.4298 296.228 76.4312 295.977 76.4344C295.73 76.4415 295.476 76.4505 295.222 76.4723C294.968 76.4931 294.713 76.5242 294.438 76.5462C294.65 76.3663 294.899 76.2401 295.159 76.159C295.42 76.0748 295.694 76.0264 295.97 76.0248C296.245 76.0186 296.522 76.0556 296.786 76.1277C297.052 76.2055 297.288 76.3164 297.528 76.4535Z" fill="#0054A6"/>
<path fill-rule="evenodd" clip-rule="evenodd" d="M321.132 77.8717C321.278 76.8744 320.824 76.0745 320.231 75.8842C319.431 75.6826 318.467 76.2454 317.756 77.209C317.034 78.2491 316.91 79.0931 316.759 80.4766C316.616 81.4739 315.857 82.0487 315.229 82.0883C315.229 82.0883 314.618 82.3622 314.859 82.8414C315.101 83.32 315.665 82.6553 316.167 82.7629C316.67 82.8706 317.373 83.3763 318.805 82.4536C320.235 81.5328 320.801 79.7869 321.043 78.4851L321.132 77.8717Z" fill="#FF957B"/>
<path fill-rule="evenodd" clip-rule="evenodd" d="M317.373 81.764C317.634 81.3237 317.677 80.6139 317.606 80.1393C317.529 79.615 317.22 79.2866 317.639 78.7381C317.912 78.3785 318.369 78.5292 318.539 78.8603C318.724 79.2199 318.749 79.6783 318.668 80.1611C318.628 80.3987 318.566 80.6325 318.502 80.8637C318.472 80.9713 318.36 81.2025 318.392 81.3092C318.459 81.5124 318.58 81.1528 318.618 81.0436C318.751 80.671 318.849 80.2246 318.878 79.8284C318.93 79.1524 318.599 78.7173 318.723 78.0396C319.004 76.5106 320.299 76.256 320.884 77.0792C321.01 77.5143 321.037 78.074 321.016 78.6145C321.025 78.5719 321.034 78.5276 321.042 78.4851L321.132 77.8717C321.277 76.8744 320.823 76.0745 320.23 75.8842C319.43 75.6826 318.466 76.2454 317.755 77.209C317.033 78.2491 316.909 79.0931 316.759 80.4766C316.653 81.2025 316.223 81.7037 315.754 81.9381C316.178 82.4585 316.927 82.5124 317.373 81.764Z" fill="#FF8C72"/>
<path fill-rule="evenodd" clip-rule="evenodd" d="M318.805 82.4537C320.1 81.62 320.686 80.1098 320.964 78.8665C319.589 82.3049 317.298 82.847 316.736 82.9297C317.2 83.0473 317.835 83.0784 318.805 82.4537Z" fill="#FF7760"/>
<path fill-rule="evenodd" clip-rule="evenodd" d="M321.135 77.8717C321.284 76.8848 320.907 76.1067 320.325 75.8239C319.65 75.4971 318.759 76.0068 318.122 76.639C317.437 77.3209 316.998 78.311 316.811 79.4176C316.705 80.0495 316.724 80.6934 316.399 81.2445C316.102 81.7465 315.626 81.9721 315.226 82.037C315.186 82.0442 315.181 82.143 315.22 82.1414C315.742 82.1294 316.398 81.7718 316.701 81.0069C316.883 80.5433 316.889 80.0231 316.96 79.534C317.043 78.9727 317.184 78.4348 317.423 77.9368C317.922 76.8954 318.756 76.1911 319.551 75.9863C320.422 75.7638 321.267 76.4889 321.131 77.8719C321.129 77.8765 321.133 77.8765 321.135 77.8717Z" fill="#FF7760"/>
<path fill-rule="evenodd" clip-rule="evenodd" d="M297.127 81.9912C297.881 81.4579 298.475 80.5708 298.696 79.8578C297.923 80.7315 297.103 81.5594 296.188 81.5214C295.83 82.2636 297.099 83.0738 298.528 83.341C297.628 82.9219 296.889 82.2458 297.127 81.9912Z" fill="#FF7760"/>
<path fill-rule="evenodd" clip-rule="evenodd" d="M298.695 79.8592L298.694 79.8576C297.922 80.7313 297.101 81.5592 296.187 81.5212C296.133 81.6344 296.117 81.751 296.133 81.8658C296.917 81.8627 297.646 81.4635 298.324 80.6653C298.489 80.3913 298.616 80.1144 298.695 79.8592Z" fill="#FF8C72"/>
<path fill-rule="evenodd" clip-rule="evenodd" d="M294.431 61.3407C294.427 61.7826 294.474 62.9554 294.862 63.3474C297.671 66.1918 309.096 65.2843 310.397 65.2256C310.973 65.1991 312.753 63.1645 313.276 63.3795C313.276 63.3795 309.842 66.7842 315.437 70.5543C315.909 70.8708 315.54 75.7782 316.097 76.5843C316.645 76.6478 319.316 74.6483 319.853 74.9252C320.712 73.6821 322.758 67.6516 322.326 66.068C322.269 65.8502 322.186 65.6216 322.077 65.37C321.225 63.4003 319.484 61.0885 316.769 61.302C316.551 60.4153 315.708 59.2055 314.556 58.6592C312.563 57.7134 309.549 57.457 307.405 57.5407C305.239 57.6263 303.333 58.1197 301.378 58.6175C299.986 58.9725 298.679 59.4381 297.273 59.7769C296.362 59.9967 295.124 60.3236 294.155 60.2088C294.117 60.5321 294.207 60.9192 294.431 61.3407Z" fill="#0054A6"/>
<path fill-rule="evenodd" clip-rule="evenodd" d="M294.431 61.3408C292.683 69.6922 306.12 65.4186 310.397 65.2257C310.973 65.1991 312.753 63.1645 313.276 63.3796C313.276 63.3796 309.842 66.7843 315.437 70.5544C315.909 70.8709 313.98 74.5391 316.097 76.5843C316.645 76.6478 319.316 74.6483 319.853 74.9253C320.712 73.6822 322.758 67.6516 322.326 66.0681C322.193 66.582 321.947 67.0728 321.55 67.5103C321.002 68.1117 320.742 68.9427 319.596 68.8969C319.157 68.0258 318.728 66.8783 318.755 66.0136C317.969 66.615 317.753 67.4074 317.157 68.038C315.832 67.446 315.103 65.7075 314.83 64.7617C314.509 63.6417 314.832 62.531 314.453 61.4734C309.995 64.0293 295.597 67.0744 294.431 61.3408Z" fill="#0054A6"/>
<path fill-rule="evenodd" clip-rule="evenodd" d="M297.632 87.2108C297.164 86.6655 296.42 86.0044 296.42 86.0044L297.583 86.2398C297.583 86.2398 298.639 86.0174 298.723 85.9892C298.806 85.9611 301.662 86.0937 301.662 86.0937L303.464 86.3608L304.409 86.0807C304.409 86.0807 303.314 86.8821 302.737 87.2122C300.947 88.2379 299.181 89.0096 297.632 87.2108Z" fill="#FF7760"/>
<path fill-rule="evenodd" clip-rule="evenodd" d="M297.584 86.24C297.584 86.24 298.64 86.0175 298.724 85.9894C298.807 85.9612 301.664 86.0938 301.664 86.0938L303.466 86.361L304.411 86.0808C304.411 86.0808 303.809 86.5215 303.262 86.8839C302.926 86.8278 301.87 86.6657 301.041 86.6599C300.042 86.6541 299.08 86.8765 298.377 86.6823C297.964 86.5669 297.564 86.6641 297.243 86.7867C296.836 86.3724 296.422 86.0046 296.422 86.0046L297.584 86.24Z" fill="#FF7760"/>
<path fill-rule="evenodd" clip-rule="evenodd" d="M300.709 86.3532C301.966 86.361 304.109 86.7176 305.003 85.5815C305.003 85.5815 304.186 86.3652 303.132 86.1308C302.08 85.897 301.055 85.4901 300.196 85.3725C300.196 85.3725 299.918 85.5695 299.667 85.5959C299.418 85.6239 299.059 85.3365 299.059 85.3365C299.059 85.3365 298.421 85.3605 298.058 85.6728C297.696 85.9837 297.5 86.125 297.14 86.0937C296.779 86.0645 296.234 85.8703 296.234 85.8703C297.23 86.5226 297.934 86.3371 298.785 86.3047H298.933C299.67 86.7272 299.745 86.4623 300.486 86.352L300.709 86.3532Z" fill="#FF7760"/>
<path fill-rule="evenodd" clip-rule="evenodd" d="M298.948 86.2811C299.206 86.4037 299.453 86.4847 299.736 86.5009C299.814 86.5051 299.9 86.4921 299.985 86.4728C299.948 86.5243 299.842 86.5668 299.73 86.582C299.4 86.6247 299.203 86.5097 298.92 86.3284C298.89 86.309 298.917 86.2665 298.948 86.2811ZM300.504 86.4063C300.393 86.4254 300.243 86.4095 300.131 86.4358C300.25 86.3885 300.392 86.3683 300.495 86.3532C300.549 86.3402 300.53 86.3989 300.504 86.4063ZM302.846 86.3622C303.611 86.2931 304.456 86.2016 305 85.5759C305.006 85.5697 305.015 85.5801 305.01 85.5863C304.02 86.8647 302.061 86.4053 300.696 86.3887C300.664 86.3933 300.655 86.3534 300.71 86.3476C301.423 86.3532 302.134 86.4271 302.846 86.3622ZM296.24 85.8626C296.698 86.1132 297.13 86.2429 297.641 86.3064C298.027 86.3532 298.412 86.2649 298.793 86.2899C298.825 86.2889 298.833 86.3242 298.784 86.3242C298.366 86.3226 298.234 86.3991 297.653 86.3965C297.205 86.3711 296.591 86.1413 296.232 85.8778C296.224 85.8714 296.231 85.8584 296.24 85.8626Z" fill="#C13A49"/>
<path fill-rule="evenodd" clip-rule="evenodd" d="M299.064 88.6416C299.064 88.6416 300.284 88.6312 300.744 88.5502C300.744 88.5502 299.985 89.39 299.064 88.6416Z" fill="#FF957B"/>
<path fill-rule="evenodd" clip-rule="evenodd" d="M299.595 86.9957C299.009 86.9973 298.686 86.8544 298.409 86.8559C298.275 86.8575 298.095 86.8721 298.042 86.9338C297.89 87.1095 298.169 87.3257 298.306 87.438C298.589 87.6708 299.092 87.8766 299.595 87.9094C300.642 87.9755 301.46 87.7265 302.095 87.1195C302.571 86.6643 301.47 86.8783 300.501 86.9869C300.173 87.0221 299.81 86.9957 299.595 86.9957Z" fill="#FF8C72"/>
<path fill-rule="evenodd" clip-rule="evenodd" d="M293.99 163.662C293.63 163.733 293.238 163.612 293.102 163.384L275.007 134.502C274.842 134.23 275.106 133.344 275.496 133.264L307.253 128.966C307.641 128.891 308.065 129.058 308.199 129.337L323.37 160.207C323.692 160.766 323.2 161.308 322.684 161.424L293.99 163.662Z" fill="#0062BA"/>
<path fill-rule="evenodd" clip-rule="evenodd" d="M274.959 134.315C275.04 133.923 275.249 133.762 275.488 133.714L306.659 129.629C307.048 129.554 307.469 129.716 307.605 130.003L322.796 160.833C322.962 161.149 322.506 161.408 322.307 161.453L293.602 163.375C293.242 163.445 292.85 163.324 292.712 163.096L275.202 134.486C275.152 134.402 275.015 134.509 274.959 134.315Z" fill="white"/>
<path fill-rule="evenodd" clip-rule="evenodd" d="M293.749 164.157C293.39 164.232 292.992 164.107 292.855 163.88L274.942 134.699C274.778 134.425 274.965 134.134 275.362 134.051L306.533 129.967C306.923 129.894 307.343 130.054 307.479 130.342L322.547 160.911C322.65 161.146 322.452 161.387 322.108 161.464L293.749 164.157Z" fill="#80B6DD"/>
<path fill-rule="evenodd" clip-rule="evenodd" d="M282.51 151.548C283.471 149.98 284.303 150.382 285.616 149.861C286.897 149.336 288.254 147.194 288.671 147.228C289.351 147.281 289.298 148.882 288.216 150.219C287.284 151.41 287.491 151.237 287.491 151.237C287.491 151.237 289.825 151.445 290.931 151.39C292.03 151.328 293.798 150.838 294.458 150.476C295.108 150.122 297.048 149.024 297.459 149.44C298.214 150.222 296.11 151.422 295 152.144C293.87 152.863 291.92 152.986 291.92 152.986C291.92 152.986 295.033 152.958 295.605 152.605C296.154 152.25 299.364 150.852 299.598 151.544C299.926 152.559 296.745 153.774 295.909 154.309C295.072 154.848 292.539 155.461 292.265 155.643C291.983 155.825 295.167 154.93 296.21 154.515C297.938 153.812 298.817 152.647 299.323 153.422C299.622 153.893 297.319 155.863 296.025 156.391C294.728 156.922 293.232 157.811 293.232 157.811C293.232 157.811 297.259 156.086 297.976 156.399C298.701 156.695 296.507 157.925 295.168 158.435C293.506 159.082 291.989 159.689 291.251 159.861C290.522 160.019 286.67 158.611 284.656 157.145C281.099 154.587 282.511 151.548 282.51 151.548Z" fill="#FCAB8D"/>
<path fill-rule="evenodd" clip-rule="evenodd" d="M356.611 137.356V137.357C357.203 138.383 358.47 139.935 358.607 140.644C359.464 145.114 358.696 148.13 357.702 152.047C357.702 152.045 357.439 155.829 355.916 155.817C354.388 155.817 349.311 155.811 343.733 153.718C338.163 151.612 321.437 136.999 321.437 136.999C321.085 136.149 321.135 124.432 322.963 123.152C324.319 122.684 330.352 126.081 334.225 128.398C335.754 129.51 337.562 130.448 337.562 130.448C347.537 131.56 353.887 133.863 356.611 137.356Z" fill="#0054A6"/>
<path fill-rule="evenodd" clip-rule="evenodd" d="M308.294 117.88C307.695 118.086 305.831 118.199 304.607 119.661C302.929 121.643 301.362 123.795 301.717 124.691C302.278 126.133 305.674 121.703 305.674 121.703L308.368 121.207C308.368 121.207 306.114 122.229 304.594 123.815C303.066 125.421 302.602 127.146 303.096 128.323C303.488 129.279 304.669 126.981 306.166 125.872C307.372 124.97 307.891 125.062 307.891 125.062C307.89 125.062 306.978 125.708 306.031 126.607C304.97 127.625 303.766 128.267 303.828 129.338C303.86 130.386 305.905 128.942 307.723 127.862C309.127 127.03 310.531 127.259 310.531 127.259C310.531 127.259 309.086 127.402 307.751 128.177C306.35 128.996 304.986 130.023 305.33 130.798C305.71 131.638 307.309 130.564 309.139 129.948C310.522 129.471 312.23 129.994 313.014 129.689C314.509 129.141 315.273 129.472 315.639 127.598C315.701 127.261 315.599 126.848 315.565 126.214C315.542 125.826 316.091 124.917 315.95 123.736C315.86 122.803 314.809 121.871 314.906 121.249C315.259 119.098 313.818 119.197 313.442 118.821C312.795 118.204 312.655 116.403 308.294 117.88Z" fill="#FCAB8D"/>
<path fill-rule="evenodd" clip-rule="evenodd" d="M323.542 123.87C322.158 123.245 321.764 136.733 323.491 136.766C326.391 135.373 326.067 124.661 323.542 123.87Z" fill="#0054A6"/>
<path fill-rule="evenodd" clip-rule="evenodd" d="M311.926 117.62C313.663 117.562 316.473 120.005 320.238 122.818C321.185 123.519 323.858 124.871 324.665 125.477C326.899 127.856 325.511 135.613 323.789 135.106C320.995 134.281 318.347 131.042 317.707 131.271C313.963 132.643 310.18 129.036 309.47 127.915C308.583 126.516 311.926 117.62 311.926 117.62Z" fill="#FCAB8D"/>
<path fill-rule="evenodd" clip-rule="evenodd" d="M356.611 137.357C353.888 133.863 347.538 131.56 337.562 130.448C337.562 130.448 335.752 129.508 334.223 128.397C332.955 127.316 332.155 126.022 331.422 124.727C331.211 124.356 331.051 123.967 330.96 123.554C330.07 119.574 332.259 101.683 340.611 103.399C348.048 104.286 354.582 129.563 356.329 136.74C356.37 136.905 356.472 137.117 356.611 137.357Z" fill="#0054A6"/>
<path fill-rule="evenodd" clip-rule="evenodd" d="M284.121 150.257C283.554 150.407 283.053 150.665 282.512 151.548C282.513 151.548 281.291 154.177 283.984 156.604C284.066 156.677 284.153 156.753 284.243 156.826C284.15 156.825 284.058 156.819 283.968 156.809C283.887 156.8 283.809 156.789 283.731 156.774C283.117 156.662 282.602 156.375 282.213 155.951C280.648 154.245 281.527 149.844 284.121 150.257Z" fill="#0054A6"/>
<path fill-rule="evenodd" clip-rule="evenodd" d="M213.565 181.452C215.99 183.877 217.381 186.945 217.74 190.107C222.286 187.086 228.48 187.58 232.488 191.589C235.89 194.99 236.76 199.963 235.101 204.171H182.486C181.897 200.194 183.133 196.001 186.193 192.941C186.965 192.17 187.809 191.514 188.704 190.975C188.889 187.51 190.305 184.097 192.951 181.452C198.643 175.759 207.872 175.759 213.565 181.452Z" fill="white"/>
<path fill-rule="evenodd" clip-rule="evenodd" d="M117.171 154.917C117.2 151.913 118.495 149.486 120.211 148.99C118.33 148.61 116.951 147.613 116.951 146.514C116.951 145.189 118.952 144.22 121.42 144.348C122.209 144.389 122.952 144.538 123.596 144.764C124.748 143.95 126.184 143.505 127.741 143.586C130.442 143.726 132.778 145.407 133.899 147.733C134.725 147.557 135.624 147.482 136.568 147.53C140.541 147.736 143.761 150.051 143.761 152.698C143.761 154.132 142.819 155.367 141.325 156.169L117.171 154.917Z" fill="white"/>
<path fill-rule="evenodd" clip-rule="evenodd" d="M115.322 44.9009L145.431 62.2852L175.542 79.6696V114.435V149.202L145.431 166.587L115.322 183.971L85.214 166.587L55.1035 149.202V114.435V79.6696L85.214 62.2852L115.322 44.9009ZM115.322 49.3664L87.1468 65.6339L58.9709 81.9013V114.435V146.97L87.1468 163.238L115.322 179.505L143.499 163.238L171.676 146.97V114.435V81.9013L143.499 65.6339L115.322 49.3664Z" fill="#80B6DD"/>
<path fill-rule="evenodd" clip-rule="evenodd" d="M115.322 49.3665L143.498 65.6339L171.674 81.9013V114.435V146.97L143.498 163.238L115.322 179.505L87.1467 163.238L58.9707 146.97V114.435V81.9013L87.1467 65.6339L115.322 49.3665Z" fill="white"/>
<path fill-rule="evenodd" clip-rule="evenodd" d="M221.76 0.310181L244.217 13.2747L266.675 26.2419V52.1728V78.1047L244.217 91.0709L221.76 104.037L199.302 91.0709L176.844 78.1047V52.1728V26.2421L199.302 13.2749L221.76 0.310181ZM221.76 3.63962L200.745 15.7732L179.729 27.9067V52.1728V76.4399L200.745 88.5734L221.76 100.707L242.776 88.5734L263.792 76.4399V52.1728V27.9067L242.776 15.7732L221.76 3.63962Z" fill="#80B6DD"/>
<path fill-rule="evenodd" clip-rule="evenodd" d="M221.76 3.63959L242.776 15.7731L263.792 27.9067V52.173V76.4401L242.776 88.5736L221.76 100.707L200.744 88.5736L179.729 76.4401V52.173V27.9067L200.744 15.7731L221.76 3.63959Z" fill="white"/>
<path fill-rule="evenodd" clip-rule="evenodd" d="M59.3383 159.153L81.7948 172.118L104.253 185.085V211.017V236.949L81.7948 249.915L59.3383 262.881L36.8804 249.915L14.4219 236.949V211.017V185.085L36.8804 172.118L59.3383 159.153ZM59.3383 162.484L38.3226 174.617L17.3063 186.749V211.016V235.284L38.3226 247.418L59.3383 259.551L80.354 247.418L101.37 235.284V211.016V186.749L80.354 174.617L59.3383 162.484Z" fill="#80B6DD"/>
<path fill-rule="evenodd" clip-rule="evenodd" d="M59.3367 162.484L80.3524 174.616L101.368 186.749V211.017V235.284L80.3524 247.418L59.3367 259.551L38.321 247.418L17.3047 235.284V211.017V186.749L38.321 174.616L59.3367 162.484Z" fill="white"/>
<path fill-rule="evenodd" clip-rule="evenodd" d="M210.166 239.18L232.623 252.145L255.081 265.111V291.043V316.976L232.623 329.942L210.166 342.908L187.709 329.942L165.25 316.976V291.043V265.111L187.709 252.145L210.166 239.18ZM210.166 242.509L189.151 254.643L168.135 266.776V291.043V315.31L189.151 327.443L210.166 339.577L231.182 327.443L252.198 315.31V291.043V266.776L231.182 254.643L210.166 242.509Z" fill="#0062BA"/>
<path fill-rule="evenodd" clip-rule="evenodd" d="M210.166 242.509L231.182 254.643L252.198 266.776V291.043V315.309L231.182 327.443L210.166 339.577L189.15 327.443L168.135 315.309V291.043V266.776L189.15 254.643L210.166 242.509Z" fill="white"/>
<path fill-rule="evenodd" clip-rule="evenodd" d="M115.724 242.132L138.182 255.098L160.64 268.064V293.996V319.927L138.182 332.894L115.724 345.86L93.2671 332.894L70.8086 319.927V293.996V268.064L93.2671 255.098L115.724 242.132ZM115.724 245.461L94.7079 257.595L73.6922 269.729V293.996V318.262L94.7079 330.396L115.724 342.529L136.739 330.396L157.756 318.262V293.996V269.729L136.739 257.595L115.724 245.461Z" fill="#80B6DD"/>
<path fill-rule="evenodd" clip-rule="evenodd" d="M115.724 245.461L136.74 257.595L157.756 269.729V293.996V318.261L136.74 330.396L115.724 342.529L94.7081 330.396L73.6934 318.261V293.996V269.729L94.7081 257.595L115.724 245.461Z" fill="white"/>
<path fill-rule="evenodd" clip-rule="evenodd" d="M128.481 292.63L117.653 298.88L106.828 305.131V292.63V280.13L117.653 286.379L128.481 292.63Z" fill="white"/>
<path fill-rule="evenodd" clip-rule="evenodd" d="M209.138 262.526H209.172L209.188 262.527C209.291 262.529 209.396 262.531 209.499 262.533L209.578 262.535C209.675 262.538 209.771 262.541 209.867 262.544L209.973 262.548C210.065 262.551 210.154 262.555 210.244 262.559L210.368 262.566C210.448 262.57 210.527 262.574 210.608 262.579L210.768 262.589H210.772L210.969 262.604H210.976C218.288 263.137 224.864 266.324 229.744 271.205C230.22 271.679 230.678 272.171 231.121 272.678L231.713 273.33L231.684 273.344C235.896 278.462 238.425 285.016 238.425 292.16C238.425 298.812 236.234 304.951 232.536 309.896L232.56 309.908L231.916 310.695C231.236 311.542 230.512 312.351 229.744 313.117C224.382 318.481 216.972 321.799 208.789 321.799C200.604 321.799 193.194 318.481 187.832 313.119C186.911 312.198 186.052 311.218 185.258 310.184L184.737 309.527L184.762 309.515C181.232 304.637 179.15 298.642 179.15 292.16C179.15 285.18 181.565 278.764 185.603 273.7L185.575 273.687L186.133 273.052C186.674 272.411 187.24 271.795 187.832 271.205C192.386 266.651 198.414 263.572 205.141 262.747L205.24 262.735C205.336 262.723 205.433 262.713 205.53 262.701L205.612 262.692L205.862 262.667L206.049 262.649L206.208 262.635L206.423 262.617L206.554 262.607C206.65 262.599 206.746 262.594 206.842 262.587L206.913 262.582C207.017 262.576 207.12 262.57 207.223 262.565L207.299 262.561C207.403 262.555 207.506 262.551 207.609 262.548L207.687 262.545C207.789 262.54 207.892 262.538 207.993 262.534L208.069 262.533C208.175 262.53 208.281 262.529 208.385 262.527L208.447 262.525C208.561 262.524 208.674 262.524 208.789 262.524C208.905 262.524 209.022 262.524 209.138 262.526ZM229.236 310.618C226.982 309.599 224.572 308.738 222.033 308.061C221.459 309.79 220.793 311.396 220.049 312.852C218.798 315.301 217.32 317.334 215.676 318.84C220.516 317.594 224.841 315.066 228.266 311.64C228.555 311.351 228.838 311.056 229.114 310.754L229.211 310.646L229.236 310.618ZM220.006 307.563L219.913 307.543C216.719 306.837 213.341 306.414 209.833 306.317V319.625C213.041 319.112 215.971 316.258 218.195 311.906C218.87 310.584 219.477 309.13 220.006 307.563ZM207.742 306.297C204.191 306.332 200.758 306.701 197.504 307.363C198.047 309.007 198.678 310.528 199.38 311.906C201.605 316.258 204.537 319.112 207.742 319.625L207.742 306.297ZM195.463 307.822C192.854 308.465 190.372 309.298 188.053 310.297L188.21 310.477L188.216 310.484L188.223 310.492L188.227 310.495L188.23 310.498L188.237 310.505L188.243 310.512L188.249 310.52C188.592 310.903 188.946 311.277 189.309 311.641C192.735 315.066 197.06 317.594 201.9 318.84C200.256 317.334 198.778 315.3 197.527 312.852C196.749 311.33 196.057 309.643 195.463 307.822ZM186.696 308.619C189.249 307.481 191.988 306.537 194.867 305.82C193.836 302.025 193.221 297.744 193.138 293.206H181.259C181.475 298.974 183.463 304.288 186.696 308.619ZM196.899 305.358C200.353 304.641 203.989 304.242 207.742 304.209V293.206H195.229C195.31 297.597 195.905 301.723 196.899 305.358ZM209.833 304.226C213.477 304.325 217.007 304.767 220.363 305.511L220.619 305.568C221.647 301.882 222.263 297.682 222.347 293.207H209.833V304.226ZM222.64 306.068C225.46 306.826 228.132 307.801 230.618 308.964C234.005 304.571 236.095 299.127 236.315 293.206H224.438C224.354 297.842 223.713 302.212 222.64 306.068ZM229.715 274.247C227.365 275.284 224.856 276.156 222.222 276.84C223.545 281.027 224.343 285.902 224.438 291.115H236.315C236.076 284.683 233.631 278.817 229.715 274.247ZM181.26 291.116H193.139C193.231 285.999 194.002 281.208 195.28 277.074C192.576 276.426 190.002 275.582 187.59 274.568C183.832 279.091 181.494 284.833 181.26 291.116ZM195.229 291.116H207.742V278.589C204.15 278.555 200.657 278.185 197.322 277.522C196.075 281.492 195.321 286.134 195.229 291.116ZM209.833 291.116H222.347C222.253 286.051 221.475 281.34 220.191 277.325C220.066 277.353 219.941 277.379 219.816 277.406C216.626 278.076 213.282 278.477 209.833 278.569L209.833 291.116ZM209.833 264.697V276.479C213.148 276.387 216.351 276.004 219.392 275.365L219.495 275.343C219.096 274.307 218.663 273.33 218.195 272.417C215.971 268.065 213.041 265.212 209.833 264.697ZM207.742 276.498V264.697C204.537 265.212 201.605 268.065 199.381 272.417C198.885 273.387 198.426 274.43 198.008 275.536C201.104 276.133 204.367 276.466 207.742 276.498ZM215.676 265.483C217.32 266.99 218.797 269.023 220.049 271.47C220.588 272.526 221.086 273.661 221.538 274.864C223.872 274.266 226.104 273.513 228.209 272.625C224.791 269.228 220.488 266.722 215.676 265.483ZM195.951 275.094C196.427 273.805 196.954 272.592 197.527 271.47C198.779 269.023 200.256 266.99 201.9 265.483C197.06 266.728 192.735 269.256 189.309 272.682C189.23 272.762 189.15 272.842 189.072 272.921C191.25 273.796 193.551 274.527 195.951 275.094Z" fill="#0062BA"/>
<path fill-rule="evenodd" clip-rule="evenodd" d="M48.2442 196.695C57.508 196.695 65.0184 202.802 65.0184 210.336C65.0184 217.24 58.7115 222.946 50.5278 223.852C48.0174 227.259 44.2547 229.59 40.0086 230.283C34.8763 231.119 29.6505 229.464 25.9395 225.822C28.6322 228.138 32.3493 228.862 35.7155 227.727C38.2231 226.883 40.2605 225.1 41.4434 222.809C35.5668 220.688 31.4682 215.902 31.4682 210.337C31.4684 202.802 38.9789 196.695 48.2442 196.695Z" fill="#B2CBE3"/>
<path fill-rule="evenodd" clip-rule="evenodd" d="M68.3347 183.423C59.071 183.423 51.5605 189.529 51.5605 197.064C51.5605 203.967 57.8674 209.671 66.0512 210.579C68.562 213.985 72.3259 216.317 76.572 217.01C81.7042 217.847 86.9287 216.191 90.6411 212.549C87.9468 214.865 84.2298 215.59 80.8634 214.454C78.3558 213.61 76.32 211.827 75.1356 209.537C81.0122 207.415 85.1107 202.63 85.1107 197.064C85.1105 189.529 77.6001 183.423 68.3347 183.423Z" fill="#B2CBE3"/>
<path fill-rule="evenodd" clip-rule="evenodd" d="M39.8578 208.677C40.9259 208.677 41.7918 209.544 41.7918 210.613C41.7918 211.681 40.9261 212.549 39.8578 212.549C38.7882 212.549 37.9219 211.681 37.9219 210.613C37.9219 209.544 38.7882 208.677 39.8578 208.677Z" fill="white"/>
<path fill-rule="evenodd" clip-rule="evenodd" d="M47.5981 208.677C48.6661 208.677 49.5336 209.544 49.5336 210.613C49.5336 211.681 48.6663 212.549 47.5981 212.549C46.5285 212.549 45.6621 211.681 45.6621 210.613C45.6621 209.544 46.5285 208.677 47.5981 208.677Z" fill="white"/>
<path fill-rule="evenodd" clip-rule="evenodd" d="M54.6016 208.677C55.6696 208.677 56.536 209.544 56.536 210.613C56.536 211.681 55.6696 212.549 54.6016 212.549C53.532 212.549 52.666 211.681 52.666 210.613C52.6662 209.544 53.532 208.677 54.6016 208.677Z" fill="white"/>
<path fill-rule="evenodd" clip-rule="evenodd" d="M61.4242 194.852C62.4939 194.852 63.3602 195.718 63.3602 196.788C63.3602 197.856 62.4939 198.722 61.4242 198.722C60.3562 198.722 59.4883 197.856 59.4883 196.788C59.4883 195.718 60.3562 194.852 61.4242 194.852Z" fill="#B2CBE3"/>
<path fill-rule="evenodd" clip-rule="evenodd" d="M69.1648 194.852C70.2345 194.852 71.1008 195.718 71.1008 196.788C71.1008 197.856 70.2345 198.722 69.1648 198.722C68.0968 198.722 67.2305 197.856 67.2305 196.788C67.2303 195.718 68.0968 194.852 69.1648 194.852Z" fill="#B2CBE3"/>
<path fill-rule="evenodd" clip-rule="evenodd" d="M76.1703 194.852C77.24 194.852 78.1057 195.718 78.1057 196.788C78.1057 197.856 77.2398 198.722 76.1703 198.722C75.1023 198.722 74.2344 197.856 74.2344 196.788C74.2344 195.718 75.1023 194.852 76.1703 194.852Z" fill="#B2CBE3"/>
<path fill-rule="evenodd" clip-rule="evenodd" d="M191.097 134.813C189.924 134.422 189.35 136.191 190.501 136.575L192.262 137.167C193.436 137.558 194.01 135.79 192.857 135.405L191.097 134.813ZM140.707 249.457C139.735 250.103 140.751 251.662 141.77 250.982L143.296 249.916C144.268 249.268 143.252 247.711 142.234 248.392L140.707 249.457ZM149.859 243.07C148.887 243.717 149.903 245.275 150.923 244.595L152.446 243.531C153.418 242.885 152.402 241.327 151.384 242.006L149.859 243.07ZM159.008 236.688C158.035 237.335 159.052 238.894 160.07 238.213L161.595 237.149C162.567 236.503 161.551 234.945 160.531 235.625L159.008 236.688ZM168.155 230.306C167.183 230.953 168.201 232.511 169.219 231.831L170.744 230.767C171.716 230.12 170.7 228.561 169.68 229.242L168.155 230.306ZM177.304 223.924C176.332 224.571 177.35 226.129 178.368 225.449L179.893 224.385C180.865 223.738 179.847 222.18 178.829 222.86L177.304 223.924ZM186.453 217.542C185.481 218.188 186.497 219.747 187.517 219.066L189.042 218.003C190.014 217.356 188.996 215.798 187.978 216.478L186.453 217.542ZM195.602 211.159C194.63 211.807 195.646 213.364 196.666 212.684L198.189 211.621C199.161 210.974 198.145 209.415 197.127 210.096L195.602 211.159ZM204.751 204.778C203.779 205.424 204.795 206.981 205.813 206.303L207.338 205.239C208.31 204.592 207.294 203.033 206.274 203.714L204.751 204.778ZM213.898 198.395C212.926 199.042 213.944 200.6 214.962 199.919L216.487 198.856C217.459 198.208 216.443 196.651 215.423 197.332L213.898 198.395ZM223.046 192.013C222.073 192.66 223.09 194.217 224.109 193.536L225.632 192.474C226.605 191.826 225.588 190.269 224.571 190.95L223.046 192.013ZM232.191 185.63C231.219 186.278 232.237 187.835 233.255 187.155L234.78 186.091C235.753 185.444 234.736 183.887 233.716 184.568L232.191 185.63ZM241.339 179.248C240.367 179.896 241.383 181.453 242.402 180.772L243.927 179.709C244.898 179.062 243.882 177.505 242.863 178.185L241.339 179.248ZM250.485 172.865C249.514 173.512 250.531 175.071 251.549 174.39L253.073 173.327C254.046 172.68 253.029 171.123 252.01 171.803L250.485 172.865ZM259.632 166.485C258.66 167.133 259.676 168.69 260.696 168.01L262.221 166.946C263.193 166.299 262.175 164.742 261.157 165.423L259.632 166.485ZM266.241 162.143C267.414 162.534 267.988 160.766 266.837 160.38L265.074 159.786C263.9 159.395 263.326 161.164 264.479 161.548L266.241 162.143ZM255.669 158.574C256.842 158.964 257.416 157.196 256.263 156.811L254.502 156.216C253.33 155.826 252.755 157.594 253.909 157.978L255.669 158.574ZM245.1 155.004C246.273 155.394 246.847 153.627 245.696 153.242L243.935 152.647C242.761 152.257 242.186 154.024 243.34 154.409L245.1 155.004ZM234.531 151.434C235.704 151.825 236.278 150.056 235.126 149.672L233.365 149.077C232.191 148.686 231.618 150.455 232.77 150.839L234.531 151.434ZM223.964 147.865C225.138 148.255 225.711 146.487 224.559 146.102L222.798 145.51C221.625 145.12 221.051 146.888 222.203 147.272L223.964 147.865ZM213.397 144.3C214.57 144.69 215.144 142.922 213.991 142.537L212.231 141.943C211.058 141.553 210.484 143.321 211.637 143.705L213.397 144.3ZM202.83 140.734C204.002 141.124 204.577 139.356 203.425 138.971L201.664 138.378C200.492 137.988 199.917 139.756 201.069 140.14L202.83 140.734Z" fill="#0062BA"/>
<path fill-rule="evenodd" clip-rule="evenodd" d="M230.285 243.525C229.822 244.916 231.668 245.231 231.981 244.292L232.744 242.599C233.208 241.208 231.362 240.894 231.049 241.833L230.285 243.525ZM264.782 163.176C263.621 163.563 264.208 165.326 265.369 164.939L267.132 164.352C268.291 163.965 267.707 162.202 266.544 162.59L264.782 163.176ZM264.855 171.431C265.317 170.04 263.471 169.726 263.159 170.664L262.394 172.359C261.931 173.75 263.778 174.063 264.09 173.125L264.855 171.431ZM260.267 181.6C260.73 180.21 258.884 179.896 258.571 180.834L257.807 182.527C257.344 183.918 259.19 184.233 259.503 183.293L260.267 181.6ZM255.678 191.767C256.14 190.376 254.294 190.063 253.982 191.001L253.219 192.696C252.756 194.086 254.603 194.4 254.915 193.462L255.678 191.767ZM251.09 201.934C251.553 200.543 249.707 200.23 249.394 201.168L248.63 202.863C248.167 204.253 250.013 204.567 250.326 203.629L251.09 201.934ZM246.504 212.103C246.967 210.712 245.121 210.396 244.808 211.337L244.044 213.029C243.581 214.42 245.427 214.734 245.739 213.796L246.504 212.103ZM241.917 222.268C242.38 220.877 240.534 220.563 240.222 221.502L239.457 223.195C238.994 224.586 240.84 224.901 241.153 223.961L241.917 222.268ZM237.331 232.433C237.794 231.043 235.948 230.729 235.635 231.667L234.871 233.36C234.408 234.751 236.254 235.066 236.567 234.126L237.331 232.433Z" fill="#0062BA"/>
<path fill-rule="evenodd" clip-rule="evenodd" d="M248.73 110.774C248.372 109.696 246.579 110.205 246.972 111.381L247.635 113.167C247.994 114.245 249.786 113.735 249.394 112.561L248.73 110.774ZM269.134 157.967C269.607 156.543 267.754 156.272 267.453 157.175L266.66 158.857C266.186 160.28 268.041 160.552 268.342 159.648L269.134 157.967ZM263.209 154.976C263.567 156.054 265.359 155.545 264.967 154.37L264.303 152.583C263.945 151.505 262.152 152.015 262.544 153.189L263.209 154.976ZM259.314 144.522C259.673 145.6 261.465 145.092 261.073 143.917L260.408 142.129C260.05 141.051 258.257 141.561 258.65 142.736L259.314 144.522ZM255.421 134.071C255.779 135.149 257.572 134.639 257.18 133.465L256.516 131.678C256.158 130.599 254.364 131.109 254.756 132.283L255.421 134.071ZM251.528 123.619C251.887 124.698 253.678 124.188 253.286 123.012L252.624 121.227C252.264 120.148 250.472 120.657 250.864 121.832L251.528 123.619Z" fill="#0062BA"/>
<path fill-rule="evenodd" clip-rule="evenodd" d="M267.903 166.8C271.051 166.8 273.619 164.232 273.619 161.084C273.619 157.935 271.051 155.366 267.903 155.366C264.754 155.366 262.186 157.936 262.186 161.084C262.185 164.232 264.754 166.8 267.903 166.8Z" fill="#0062BA"/>
<path fill-rule="evenodd" clip-rule="evenodd" d="M105.175 285.865C108.842 287.446 113.041 287.366 116.71 285.645C116.71 285.645 118.387 280.853 121.739 271.268C119.763 269.668 117.612 268.296 115.324 267.18C112.023 271.706 110.373 273.969 110.373 273.969C108.126 269.491 107.002 267.254 107.002 267.254C102.868 269.588 100.803 270.757 100.803 270.757C103.717 280.828 105.175 285.865 105.175 285.865Z" fill="#4783BE"/>
<path fill-rule="evenodd" clip-rule="evenodd" d="M111.382 256.086C108.196 256.086 105.615 258.669 105.615 261.853C105.615 265.036 108.196 267.619 111.382 267.619C114.565 267.619 117.146 265.036 117.146 261.853C117.146 258.669 114.565 256.086 111.382 256.086Z" fill="#4783BE"/>
<path fill-rule="evenodd" clip-rule="evenodd" d="M108.618 289.253V295.814H105.557L110.44 303.314L110.586 303.536L110.732 303.314L115.616 295.814H112.554V289.253C111.243 289.253 109.931 289.253 108.618 289.253Z" fill="#4783BE"/>
<path fill-rule="evenodd" clip-rule="evenodd" d="M117.844 286.487L123.526 289.766L121.994 292.418L130.93 291.938L131.197 291.923L131.076 291.684L127.025 283.705L125.494 286.357L119.812 283.077C119.157 284.214 118.5 285.349 117.844 286.487Z" fill="#4783BE"/>
<path fill-rule="evenodd" clip-rule="evenodd" d="M101.606 282.646L95.9236 285.927L94.3925 283.275L90.3413 291.255L90.2207 291.493L90.4859 291.506L99.4225 291.988L97.8919 289.336L103.574 286.055C102.919 284.919 102.261 283.782 101.606 282.646Z" fill="#4783BE"/>
<path fill-rule="evenodd" clip-rule="evenodd" d="M134.077 305.831C136.306 306.791 138.861 306.742 141.091 305.697C141.091 305.697 142.111 302.782 144.148 296.954C142.948 295.982 141.639 295.148 140.249 294.469C138.241 297.221 137.237 298.597 137.237 298.597C135.872 295.874 135.188 294.513 135.188 294.513C132.675 295.933 131.418 296.643 131.418 296.643C133.19 302.767 134.077 305.831 134.077 305.831Z" fill="#4783BE"/>
<path fill-rule="evenodd" clip-rule="evenodd" d="M137.85 287.723C135.914 287.723 134.344 289.293 134.344 291.229C134.344 293.165 135.914 294.736 137.85 294.736C139.786 294.736 141.356 293.165 141.356 291.229C141.356 289.293 139.786 287.723 137.85 287.723Z" fill="#4783BE"/>
<path fill-rule="evenodd" clip-rule="evenodd" d="M107.562 323.325C109.793 324.286 112.346 324.237 114.578 323.191C114.578 323.191 115.596 320.277 117.635 314.449C116.434 313.477 115.126 312.643 113.734 311.963C111.727 314.715 110.724 316.092 110.724 316.092C109.357 313.369 108.674 312.008 108.674 312.008C106.161 313.428 104.904 314.138 104.904 314.138C106.677 320.263 107.562 323.325 107.562 323.325Z" fill="#4783BE"/>
<path fill-rule="evenodd" clip-rule="evenodd" d="M111.335 305.219C109.399 305.219 107.83 306.788 107.83 308.724C107.83 310.661 109.399 312.23 111.335 312.23C113.272 312.23 114.841 310.661 114.841 308.724C114.841 306.788 113.272 305.219 111.335 305.219Z" fill="#4783BE"/>
<path fill-rule="evenodd" clip-rule="evenodd" d="M79.8424 305.831C82.0714 306.791 84.6264 306.742 86.8566 305.697C86.8566 305.697 87.8763 302.782 89.9153 296.954C88.7131 295.982 87.4051 295.148 86.0142 294.469C84.0076 297.221 83.0029 298.597 83.0029 298.597C81.637 295.874 80.9537 294.513 80.9537 294.513C78.4403 295.933 77.1836 296.643 77.1836 296.643C78.9556 302.767 79.8424 305.831 79.8424 305.831Z" fill="#4783BE"/>
<path fill-rule="evenodd" clip-rule="evenodd" d="M83.6155 287.723C81.6796 287.723 80.1094 289.293 80.1094 291.229C80.1094 293.165 81.6796 294.736 83.6155 294.736C85.5515 294.736 87.1217 293.165 87.1217 291.229C87.1215 289.293 85.5515 287.723 83.6155 287.723Z" fill="#4783BE"/>
<path fill-rule="evenodd" clip-rule="evenodd" d="M223.744 71.5416L229.936 53.8407C227.417 51.8013 224.671 50.0483 221.748 48.6223C217.534 54.4006 215.428 57.2892 215.428 57.2892C212.557 51.5747 211.125 48.7167 211.125 48.7167C205.847 51.6967 203.207 53.192 203.207 53.192L208.523 71.5416H223.744Z" fill="#4783BE"/>
<path fill-rule="evenodd" clip-rule="evenodd" d="M216.714 34.4625C212.65 34.4625 209.352 37.757 209.352 41.8228C209.352 45.8876 212.65 49.1847 216.714 49.1847C220.776 49.1847 224.076 45.8876 224.076 41.8228C224.077 37.7572 220.776 34.4625 216.714 34.4625Z" fill="#4783BE"/>
<path fill-rule="evenodd" clip-rule="evenodd" d="M228.86 50.9821L227.723 48.7167L226.504 49.406C227.304 49.9053 228.09 50.4359 228.86 50.9821Z" fill="#B2CBE3"/>
<path fill-rule="evenodd" clip-rule="evenodd" d="M240.345 71.5416L246.533 53.8407C244.014 51.7987 241.267 50.0483 238.342 48.6223C234.131 54.4006 232.026 57.2892 232.026 57.2892L231.095 55.4421L225.469 71.5418L240.345 71.5416Z" fill="#B2CBE3"/>
<path fill-rule="evenodd" clip-rule="evenodd" d="M233.31 34.4625C229.245 34.4625 225.953 37.757 225.953 41.8228C225.953 45.8876 229.245 49.1847 233.31 49.1847C237.375 49.1847 240.672 45.8876 240.672 41.8228C240.673 37.7572 237.375 34.4625 233.31 34.4625Z" fill="#4783BE"/>
<path fill-rule="evenodd" clip-rule="evenodd" d="M205.307 71.5416L206.144 69.1446C204.653 63.9764 203.147 58.8083 201.653 53.6417L201.295 52.4057L202.413 51.7764L205.728 49.9053C204.939 49.4501 204.129 49.0228 203.302 48.6221C199.09 54.4004 196.986 57.289 196.986 57.289C194.116 51.5729 192.684 48.7165 192.684 48.7165C187.404 51.6965 184.766 53.1918 184.766 53.1918L190.081 71.5414L205.307 71.5416Z" fill="#B2CBE3"/>
<path fill-rule="evenodd" clip-rule="evenodd" d="M198.27 34.4625C194.206 34.4625 190.908 37.757 190.908 41.8228C190.908 45.8876 194.205 49.1847 198.27 49.1847C202.332 49.1847 205.627 45.8876 205.627 41.8228C205.628 37.7572 202.332 34.4625 198.27 34.4625Z" fill="#4783BE"/>
<path fill-rule="evenodd" clip-rule="evenodd" d="M111.448 209.706C111.186 209.794 110.965 209.974 110.831 210.221C110.364 211.089 111.198 212.088 112.131 211.777L114.2 211.095C114.463 211.008 114.685 210.828 114.818 210.58C115.285 209.713 114.451 208.714 113.518 209.025L111.448 209.706ZM263.299 162.002C263.561 161.915 263.782 161.735 263.916 161.486C264.383 160.619 263.55 159.62 262.617 159.93L260.546 160.613C260.283 160.701 260.062 160.881 259.93 161.128C259.463 161.996 260.297 162.995 261.228 162.684L263.299 162.002ZM255.015 164.73C255.277 164.642 255.498 164.462 255.632 164.214C256.099 163.347 255.265 162.348 254.333 162.659L252.263 163.341C251.999 163.428 251.778 163.608 251.646 163.857C251.178 164.724 252.012 165.723 252.945 165.412L255.015 164.73ZM246.731 167.457C246.993 167.37 247.214 167.191 247.348 166.943C247.815 166.076 246.981 165.077 246.049 165.388L243.978 166.068C243.716 166.156 243.495 166.336 243.361 166.584C242.894 167.451 243.728 168.45 244.661 168.14L246.731 167.457ZM238.448 170.186C238.71 170.097 238.932 169.919 239.066 169.67C239.532 168.802 238.699 167.804 237.766 168.114L235.695 168.796C235.432 168.885 235.211 169.063 235.077 169.312C234.61 170.18 235.444 171.179 236.377 170.868L238.448 170.186ZM230.164 172.914C230.426 172.826 230.647 172.646 230.781 172.399C231.248 171.531 230.415 170.532 229.482 170.843L227.412 171.525C227.15 171.612 226.927 171.792 226.795 172.039C226.328 172.907 227.162 173.906 228.094 173.595L230.164 172.914ZM221.881 175.641C222.144 175.554 222.365 175.375 222.497 175.126C222.966 174.258 222.132 173.259 221.199 173.57L219.128 174.252C218.866 174.341 218.645 174.52 218.511 174.768C218.043 175.636 218.877 176.634 219.81 176.323L221.881 175.641ZM213.597 178.37C213.86 178.281 214.081 178.102 214.215 177.854C214.682 176.986 213.848 175.987 212.915 176.298L210.845 176.981C210.582 177.068 210.361 177.247 210.228 177.496C209.761 178.364 210.595 179.363 211.527 179.052L213.597 178.37ZM205.315 181.097C205.577 181.009 205.798 180.83 205.931 180.581C206.399 179.715 205.564 178.714 204.633 179.025L202.561 179.707C202.299 179.796 202.078 179.975 201.944 180.223C201.477 181.09 202.311 182.089 203.243 181.779L205.315 181.097ZM197.031 183.825C197.293 183.736 197.514 183.557 197.648 183.309C198.115 182.442 197.281 181.443 196.349 181.754L194.279 182.435C194.015 182.523 193.794 182.702 193.662 182.951C193.194 183.819 194.029 184.818 194.959 184.507L197.031 183.825ZM188.747 186.552C189.011 186.465 189.232 186.285 189.364 186.038C189.832 185.17 188.997 184.172 188.066 184.482L185.995 185.163C185.733 185.251 185.511 185.431 185.377 185.678C184.91 186.546 185.744 187.545 186.677 187.234L188.747 186.552ZM180.464 189.279C180.726 189.192 180.948 189.012 181.082 188.765C181.548 187.897 180.715 186.898 179.782 187.209L177.712 187.89C177.45 187.978 177.229 188.158 177.095 188.405C176.628 189.273 177.462 190.272 178.394 189.961L180.464 189.279ZM172.182 192.006C172.444 191.919 172.665 191.739 172.799 191.492C173.266 190.624 172.432 189.625 171.5 189.936L169.429 190.617C169.166 190.705 168.945 190.885 168.813 191.132C168.345 192 169.18 192.999 170.11 192.688L172.182 192.006ZM163.899 194.733C164.161 194.646 164.382 194.466 164.516 194.219C164.983 193.351 164.149 192.352 163.217 192.663L161.145 193.344C160.883 193.432 160.662 193.612 160.528 193.859C160.063 194.727 160.895 195.726 161.828 195.415L163.899 194.733ZM155.617 197.46C155.878 197.373 156.1 197.193 156.233 196.946C156.701 196.078 155.866 195.079 154.934 195.39L152.863 196.071C152.601 196.159 152.38 196.339 152.246 196.586C151.779 197.454 152.613 198.453 153.545 198.142L155.617 197.46ZM147.333 200.187C147.595 200.1 147.815 199.921 147.95 199.673C148.417 198.805 147.583 197.806 146.65 198.117L144.58 198.798C144.318 198.886 144.097 199.066 143.963 199.314C143.496 200.181 144.33 201.18 145.262 200.869L147.333 200.187ZM139.05 202.914C139.312 202.827 139.533 202.647 139.667 202.4C140.134 201.532 139.3 200.533 138.368 200.844L136.298 201.525C136.034 201.613 135.813 201.793 135.68 202.04C135.213 202.908 136.047 203.907 136.978 203.596L139.05 202.914ZM130.767 205.641C131.029 205.554 131.251 205.374 131.385 205.127C131.851 204.259 131.018 203.26 130.085 203.571L128.014 204.252C127.751 204.34 127.53 204.52 127.398 204.767C126.931 205.635 127.763 206.634 128.696 206.323L130.767 205.641ZM122.484 208.368C122.747 208.281 122.968 208.101 123.1 207.853C123.569 206.986 122.733 205.987 121.802 206.298L119.731 206.979C119.469 207.067 119.248 207.247 119.114 207.494C118.647 208.362 119.481 209.361 120.413 209.05L122.484 208.368Z" fill="#0062BA"/>
<path fill-rule="evenodd" clip-rule="evenodd" d="M406.219 318.194C405.916 317.926 405.831 317.38 405.829 317.377C405.831 317.381 405.919 317.924 406.221 318.191C406.363 318.07 406.473 317.972 406.538 317.908C406.473 317.973 406.363 318.07 406.219 318.194Z" fill="#FFE0D8"/>
<path fill-rule="evenodd" clip-rule="evenodd" d="M456.098 282.055V330.986C456.098 333.158 454.33 334.922 452.158 334.922H366.037C363.869 334.922 362.104 333.158 362.104 330.986V282.055C362.104 279.882 363.869 278.119 366.037 278.119H452.158C453.087 278.119 453.987 278.447 454.696 279.042C455.585 279.794 456.098 280.893 456.098 282.055Z" fill="#FEFEFE"/>
<path fill-rule="evenodd" clip-rule="evenodd" d="M401.748 305.038C401.748 307.49 401.28 309.832 400.427 311.983C399.91 313.282 399.257 314.517 398.475 315.655C395.082 320.638 389.36 323.906 382.879 323.906C377.232 323.906 372.164 321.42 368.706 317.488C365.783 314.168 364.016 309.811 364.016 305.038C364.016 294.619 372.46 286.174 382.879 286.174C393.302 286.174 401.748 294.619 401.748 305.038Z" fill="#B2CBE3"/>
<path fill-rule="evenodd" clip-rule="evenodd" d="M400.426 311.983C399.909 313.282 399.256 314.517 398.474 315.655C395.081 320.638 389.359 323.906 382.878 323.906C377.231 323.906 372.163 321.42 368.705 317.488L382.878 305.038H394.639L400.426 311.983Z" fill="#80B6DD"/>
<path fill-rule="evenodd" clip-rule="evenodd" d="M401.749 305.038C401.749 307.49 401.28 309.832 400.427 311.983C399.91 313.282 399.257 314.517 398.475 315.655L382.879 305.038V286.174C393.303 286.174 401.749 294.619 401.749 305.038Z" fill="#719BD8"/>
<path d="M450.474 292.717H445.186V324.607H450.474V292.717Z" fill="#719BD8"/>
<path d="M442.654 297.318H437.365V324.607H442.654V297.318Z" fill="#719BD8"/>
<path d="M434.831 301.922H429.541V324.607H434.831V301.922Z" fill="#80B6DD"/>
<path d="M427.006 305.512H421.717V324.607H427.006V305.512Z" fill="#719BD8"/>
<path d="M419.183 311.125H413.893V324.607H419.183V311.125Z" fill="#80B6DD"/>
<path d="M411.359 315.728H406.07V324.607H411.359V315.728Z" fill="#719BD8"/>
<path fill-rule="evenodd" clip-rule="evenodd" d="M411.819 311.356C411.819 311.481 411.718 311.587 411.589 311.587H406.07V311.127H411.589C411.718 311.127 411.819 311.228 411.819 311.356ZM443.634 292.718H406.07V293.178H443.634C443.764 293.178 443.864 293.072 443.864 292.948C443.864 292.82 443.764 292.718 443.634 292.718ZM420.214 305.742C420.214 305.872 420.112 305.973 419.984 305.973H406.07V305.512H419.984C420.112 305.512 420.214 305.614 420.214 305.742ZM427.729 302.152C427.729 302.277 427.622 302.383 427.497 302.383H406.07V301.922H427.497C427.622 301.922 427.729 302.023 427.729 302.152ZM436.444 297.549C436.444 297.674 436.343 297.779 436.215 297.779H406.071V297.32H436.215C436.343 297.32 436.444 297.421 436.444 297.549Z" fill="#719BD8"/>
<path fill-rule="evenodd" clip-rule="evenodd" d="M362.104 282.055C362.104 279.882 363.869 278.117 366.038 278.117H452.158C453.087 278.117 453.988 278.447 454.695 279.042C455.586 279.794 456.097 280.891 456.097 282.055V330.986C456.097 332.349 455.399 333.552 454.343 334.261C453.718 334.679 452.967 334.922 452.158 334.922H366.038C365.854 334.922 365.671 334.909 365.495 334.884C363.583 334.619 362.104 332.971 362.104 330.986V282.055ZM456.629 276.747C455.634 275.907 454.418 275.368 453.136 275.185C452.814 275.139 452.488 275.115 452.158 275.115H366.038C362.213 275.115 359.102 278.229 359.102 282.055V330.986C359.102 332.996 359.962 334.811 361.332 336.079C362.163 336.848 363.181 337.417 364.311 337.709C364.863 337.85 365.441 337.925 366.038 337.925H452.158C452.231 337.925 452.304 337.924 452.374 337.922C452.588 337.916 452.797 337.898 453.005 337.873C453.353 337.831 453.693 337.761 454.024 337.672C454.225 337.614 454.421 337.551 454.611 337.477C454.868 337.381 455.115 337.269 455.355 337.144C455.484 337.077 455.613 337.006 455.738 336.93V336.929C456.115 336.704 456.467 336.442 456.791 336.148C457.699 335.333 458.389 334.284 458.768 333.096C458.845 332.864 458.905 332.625 458.956 332.384C458.998 332.184 459.032 331.981 459.053 331.774C459.082 331.515 459.098 331.252 459.098 330.986V282.055C459.099 280.006 458.2 278.071 456.629 276.747Z" fill="#80B6DD"/>
<path fill-rule="evenodd" clip-rule="evenodd" d="M456.126 328.159V330.986C456.126 333.987 453.763 336.425 450.851 336.425H367.332C364.421 336.425 362.062 333.987 362.062 330.986V328.159H456.126Z" fill="#719BD8"/>
<path fill-rule="evenodd" clip-rule="evenodd" d="M411.386 333.058C411.386 334.32 410.363 335.345 409.099 335.345C407.836 335.345 406.812 334.32 406.812 333.058C406.812 331.795 407.835 330.771 409.099 330.771C410.363 330.771 411.386 331.795 411.386 333.058Z" fill="white"/>
<path d="M451.399 281.199H401.746V287.024H451.399V281.199Z" fill="#719BD8"/>
<path fill-rule="evenodd" clip-rule="evenodd" d="M444.684 289.652L444.387 287.963L431.684 298.781L428.237 296.247L415.326 308.759L408.922 306.483L400.861 317.814L399.924 317.149L408.49 305.11L415.041 307.437L428.135 294.746L431.631 297.318L443.792 286.961L441.97 286.108L446.906 285.138L444.684 289.652Z" fill="#80B6DD"/>
<path d="M160.41 87.996H72.3379V140.109H160.41V87.996Z" fill="white"/>
<path d="M162.486 87.8283H71.9238V141.733H162.486V87.8283Z" fill="#80B6DD"/>
<path d="M161.242 88.7238H73.1699V140.837H161.242V88.7238Z" fill="white"/>
<path d="M161.242 88.7238H73.1699V94.7615H161.242V88.7238Z" fill="#4783BE"/>
<path fill-rule="evenodd" clip-rule="evenodd" d="M160.326 91.7428C160.326 92.7563 159.622 93.5779 158.754 93.5779C157.882 93.5779 157.179 92.7563 157.179 91.7428C157.179 90.7273 157.882 89.907 158.754 89.907C159.622 89.9072 160.326 90.7289 160.326 91.7428ZM151.596 91.7428C151.596 92.7563 150.892 93.5779 150.021 93.5779C149.151 93.5779 148.447 92.7563 148.447 91.7428C148.447 90.7273 149.151 89.907 150.021 89.907C150.892 89.9072 151.596 90.7289 151.596 91.7428ZM155.963 91.7428C155.963 92.7563 155.257 93.5779 154.388 93.5779C153.518 93.5779 152.812 92.7563 152.812 91.7428C152.812 90.7273 153.518 89.907 154.388 89.907C155.257 89.9072 155.963 90.7289 155.963 91.7428Z" fill="white"/>
<path d="M158.754 98.1028H76.2461V102.718H158.754V98.1028Z" fill="#B2CBE3"/>
<path d="M90.1389 105.871H78.8613V118.557H90.1389V105.871Z" fill="#B2CBE3"/>
<path d="M103.922 105.871H92.6445V118.557H103.922V105.871Z" fill="#B2CBE3"/>
<path d="M117.703 105.871H106.426V118.557H117.703V105.871Z" fill="#B2CBE3"/>
<path fill-rule="evenodd" clip-rule="evenodd" d="M156.927 108.985H121.131V106.337H156.927V108.985ZM156.927 118.092H121.131V115.446H156.927V118.092ZM156.927 113.539H121.131V110.89H156.927V113.539Z" fill="#B2CBE3"/>
<path fill-rule="evenodd" clip-rule="evenodd" d="M101.103 132.503L92.6066 127.595L78.7064 127.713L78.6992 126.292L92.8877 126.172L101.179 130.961L120.893 122.712L131.182 129.469L141.462 123.251L142.025 124.512L131.158 131.084L120.782 124.271L101.103 132.503Z" fill="#4783BE"/>
<path fill-rule="evenodd" clip-rule="evenodd" d="M143.744 123.881C143.744 125.168 142.848 126.212 141.745 126.212C140.641 126.212 139.749 125.168 139.749 123.881C139.749 122.595 140.641 121.552 141.745 121.552C142.848 121.552 143.744 122.595 143.744 123.881ZM80.7024 127.002C80.7024 128.288 79.8065 129.333 78.703 129.333C77.5996 129.333 76.7051 128.288 76.7051 127.002C76.7051 125.715 77.5996 124.673 78.703 124.673C79.8065 124.673 80.701 125.715 80.7024 127.002ZM94.9281 127.002C94.9281 128.288 94.0326 129.333 92.9302 129.333C91.8252 129.333 90.9329 128.288 90.9329 127.002C90.9329 125.715 91.8252 124.673 92.9302 124.673C94.0326 124.673 94.9281 125.715 94.9281 127.002ZM103.242 131.659C103.242 132.948 102.349 133.991 101.244 133.991C100.142 133.991 99.2464 132.948 99.2464 131.66C99.2464 130.375 100.142 129.333 101.244 129.333C102.349 129.333 103.242 130.375 103.242 131.659ZM122.939 123.472C122.939 124.761 122.043 125.801 120.94 125.801C119.837 125.801 118.942 124.761 118.942 123.472C118.942 122.187 119.836 121.143 120.94 121.143C122.043 121.143 122.939 122.187 122.939 123.472ZM133.351 129.999C133.351 131.286 132.456 132.327 131.353 132.327C130.249 132.327 129.355 131.286 129.355 129.999C129.355 128.712 130.249 127.669 131.353 127.669C132.456 127.669 133.351 128.712 133.351 129.999Z" fill="#B2CBE3"/>
<path fill-rule="evenodd" clip-rule="evenodd" d="M78.7031 132.327V138.212H141.745V129.999L131.353 135.726L120.94 129.333L101.244 135.844L92.9302 132.327H78.7031Z" fill="#B2CBE3"/>
<path d="M148.649 129.999H145.197V138.212H148.649V129.999Z" fill="#4783BE"/>
<path d="M153.421 132.327H149.969V138.212H153.421V132.327Z" fill="#4783BE"/>
<path fill-rule="evenodd" clip-rule="evenodd" d="M153.421 132.503H149.969V130.931H153.421V132.503ZM158.194 127.724H154.743V124.774H158.194V127.724ZM148.649 130.47H145.197V128.195H148.649V130.47Z" fill="#B2CBE3"/>
<path d="M158.194 127.669H154.742V138.212H158.194V127.669Z" fill="#4783BE"/>
</svg>
