<svg width="48" height="48" viewBox="0 0 48 48" fill="none" xmlns="http://www.w3.org/2000/svg">
<g clip-path="url(#clip0_14476_48671)">
<path fill-rule="evenodd" clip-rule="evenodd" d="M39.7969 9.89055C30.825 2.27774 21.2313 1.44961 11.0156 7.40618C10.069 8.06609 9.10028 8.67546 8.10938 9.2343C8.06375 9.14305 8.01687 9.0493 7.96875 8.95305C7.90625 6.95306 7.90625 4.95305 7.96875 2.95305C8.49737 1.90387 9.29425 1.63825 10.3594 2.15618C11.1914 3.0196 12.0508 3.84772 12.9375 4.64055C19.5337 1.34933 26.268 1.05245 33.1406 3.74993C35.5702 4.79958 37.7733 6.1902 39.75 7.9218C40.0644 8.40608 40.1582 8.93733 40.0313 9.51555C39.9743 9.66237 39.8961 9.78743 39.7969 9.89055Z" fill="#546D79"/>
<path opacity="0.983" fill-rule="evenodd" clip-rule="evenodd" d="M39.7969 9.89089C39.2265 10.5643 38.539 10.7049 37.7344 10.3128C32.4084 5.7311 26.2835 4.13735 19.3594 5.53152C17.9126 5.84698 16.5376 6.34698 15.2344 7.03152C16.0092 7.65943 16.1811 8.42506 15.75 9.32839C15.5378 9.60336 15.2721 9.80652 14.9531 9.93777C12.9532 10.0003 10.9531 10.0003 8.95312 9.93777C8.59924 9.78673 8.31799 9.55236 8.10938 9.23464C9.10028 8.6758 10.069 8.06642 11.0156 7.40652C21.2313 1.44995 30.825 2.27807 39.7969 9.89089Z" fill="#607C8A"/>
<path opacity="0.994" fill-rule="evenodd" clip-rule="evenodd" d="M9.98438 13.9219C13.0702 14.1796 14.7264 15.8514 14.9531 18.9375C14.8547 21.5989 13.511 23.2552 10.9219 23.9062C10.6109 23.9529 10.2984 23.9686 9.98438 23.9531C9.98438 20.6093 9.98438 17.2657 9.98438 13.9219Z" fill="#00A1FE"/>
<path opacity="0.989" fill-rule="evenodd" clip-rule="evenodd" d="M37.9219 13.9219C40.4395 14.0173 42.0802 15.2673 42.8438 17.6719C43.343 20.4077 42.3586 22.392 39.8906 23.625C39.261 23.8939 38.6047 24.0033 37.9219 23.9531C37.9219 20.6093 37.9219 17.2657 37.9219 13.9219Z" fill="#4BAE4F"/>
<path fill-rule="evenodd" clip-rule="evenodd" d="M9.98438 13.9216C9.98438 17.2654 9.98438 20.6091 9.98438 23.9529C6.85216 23.7425 5.16466 22.0706 4.92188 18.9372C5.03992 16.4439 6.28991 14.8189 8.67188 14.0622C9.10327 13.957 9.54075 13.9102 9.98438 13.9216Z" fill="#00A1FE"/>
<path fill-rule="evenodd" clip-rule="evenodd" d="M37.9218 13.9216C37.9218 17.2654 37.9218 20.6091 37.9218 23.9528C35.2829 23.8297 33.6423 22.4859 32.9999 19.9216C32.6788 16.9654 33.9132 15.0123 36.703 14.0622C37.1033 13.9614 37.5096 13.9146 37.9218 13.9216Z" fill="#4BAE4F"/>
<path opacity="0.991" fill-rule="evenodd" clip-rule="evenodd" d="M9.98438 25.9219C11.7659 25.9062 13.5472 25.9219 15.3281 25.9688C18.3953 26.7105 19.9579 28.6636 20.0156 31.8281C20.1226 32.5855 19.9038 33.2262 19.3594 33.75C19.2106 33.8308 19.0543 33.8934 18.8906 33.9375C15.922 33.9844 12.9532 34 9.98438 33.9844C9.98438 31.2969 9.98438 28.6094 9.98438 25.9219Z" fill="#00A1FE"/>
<path opacity="0.991" fill-rule="evenodd" clip-rule="evenodd" d="M37.9219 25.9219C39.7034 25.9062 41.4847 25.9219 43.2656 25.9688C45.7927 26.4492 47.3552 27.9336 47.9531 30.4219C47.9531 31.2969 47.9531 32.1719 47.9531 33.0469C47.7327 33.472 47.3889 33.769 46.9219 33.9375C43.9221 33.9844 40.9221 34 37.9219 33.9844C37.9219 31.2969 37.9219 28.6094 37.9219 25.9219Z" fill="#4BAE4F"/>
<path fill-rule="evenodd" clip-rule="evenodd" d="M9.98438 25.9219C9.98438 28.6094 9.98438 31.2969 9.98438 33.9844C6.98422 34 3.98422 33.9844 0.984375 33.9375C0.504546 33.785 0.160795 33.4882 -0.046875 33.0469C-0.046875 32.1719 -0.046875 31.2969 -0.046875 30.4219C0.551048 27.9336 2.11355 26.4492 4.64062 25.9688C6.4216 25.9219 8.20285 25.9062 9.98438 25.9219Z" fill="#00A1FE"/>
<path fill-rule="evenodd" clip-rule="evenodd" d="M37.9222 25.9219C37.9222 28.6094 37.9222 31.2969 37.9222 33.9844C34.9533 34 31.9845 33.9844 29.0159 33.9375C28.4309 33.7586 28.0716 33.368 27.9378 32.7656C27.5548 29.5919 28.8205 27.3888 31.7347 26.1563C32.0132 26.0818 32.2945 26.0193 32.5784 25.9688C34.3594 25.9219 36.1407 25.9062 37.9222 25.9219Z" fill="#4BAE4F"/>
<path opacity="0.984" fill-rule="evenodd" clip-rule="evenodd" d="M39.7969 38.578C35.0744 42.2775 29.6994 44.2151 23.6719 44.3905C17.7892 44.2068 12.7267 42.0975 8.48438 38.0624C8.3955 38.0171 8.30175 38.0015 8.20312 38.0155C8.70894 37.4357 9.33395 37.2639 10.0781 37.4999C16.3299 42.7815 23.3612 44.1564 31.1719 41.6249C31.7304 41.4285 32.2616 41.1785 32.7656 40.8749C31.8083 39.9912 31.7771 39.0849 32.6719 38.1561C32.8207 38.0753 32.9769 38.0128 33.1406 37.9686C35.1094 37.9061 37.0781 37.9061 39.0469 37.9686C39.3757 38.096 39.6256 38.2992 39.7969 38.578Z" fill="#5F7C8A"/>
<path opacity="0.999" fill-rule="evenodd" clip-rule="evenodd" d="M8.20293 38.0157C8.30156 38.0017 8.39531 38.0173 8.48418 38.0626C12.7266 42.0977 17.7891 44.207 23.6717 44.3907C29.6992 44.2153 35.0742 42.2778 39.7967 38.5782C39.9341 38.6576 40.0123 38.7826 40.0311 38.9532C40.0936 40.9532 40.0936 42.9532 40.0311 44.9532C39.6632 45.7857 39.0225 46.1138 38.1092 45.9376C37.9006 45.885 37.7131 45.7912 37.5467 45.6563C36.7485 44.8425 35.936 44.0456 35.1092 43.2657C28.9587 46.3744 22.6149 46.8276 16.0779 44.6251C13.1862 43.5552 10.5924 42.0083 8.29668 39.9844C7.83567 39.3448 7.80442 38.6885 8.20293 38.0157Z" fill="#546D79"/>
</g>
<defs>
<clipPath id="clip0_14476_48671">
<rect width="48" height="48" fill="white"/>
</clipPath>
</defs>
</svg>
