<svg width="50" height="50" viewBox="0 0 50 50" fill="none" xmlns="http://www.w3.org/2000/svg">
<g clip-path="url(#clip0_18202_7408)">
<path d="M49.4922 25.5078C49.4922 39.0234 38.5547 50 25 50C11.4844 50 0.507812 39.0234 0.507812 25.5078C0.507812 11.9531 11.4844 1.01562 25 1.01562C38.5156 1.01562 49.4922 11.9531 49.4922 25.5078Z" fill="#FDDA7F"/>
<path d="M47.5 8.51562C47.5 7.61719 46.7969 6.91406 45.8984 6.91406H4.10156C3.20312 6.91406 2.5 7.61719 2.5 8.51562V35.6641H47.5V8.51562Z" fill="#464E58"/>
<path d="M4.33594 8.71094H45.7031V33.7891H4.33594V8.71094Z" fill="#F2F2F2"/>
<path d="M2.5 35.625V39.2578C2.5 40.1563 3.20312 40.8594 4.10156 40.8594H45.8984C46.7969 40.8594 47.5 40.1563 47.5 39.2578V35.625H2.5Z" fill="#F2F2F2"/>
<path d="M25 39.375C25.6256 39.375 26.1328 38.8678 26.1328 38.2422C26.1328 37.6166 25.6256 37.1094 25 37.1094C24.3744 37.1094 23.8672 37.6166 23.8672 38.2422C23.8672 38.8678 24.3744 39.375 25 39.375Z" fill="#464E58"/>
<path d="M31.1719 45.5469H18.8281L20.1172 40.8594H29.8828L31.1719 45.5469Z" fill="#DAD9D8"/>
<path d="M16.8359 45.5469H33.1641V47.3828H16.8359V45.5469Z" fill="white"/>
<path d="M45.6641 12.3828C45.3516 12.3438 45.0391 12.3047 44.7266 12.2656C44.6875 12.3828 44.6094 12.5391 44.5312 12.6953C44.2578 12.6172 44.2188 12.4219 44.2188 12.1875C44.2188 11.9141 44.1797 11.6016 43.9453 11.4063C43.7891 11.2891 43.5938 11.25 43.3984 11.2109C43.3594 11.2109 43.2422 11.3672 43.2031 11.4844C43.0859 11.7188 42.8125 11.8359 42.6562 11.6797C42.3828 11.4453 42.0312 11.2891 41.6797 11.1719C41.3281 11.0547 41.0938 11.1328 40.8594 11.3672C40.7812 11.4453 40.6641 11.4453 40.5469 11.5234C40.5078 11.4844 40.5078 11.4453 40.5078 11.4453C40.8203 11.1328 41.1719 10.8203 41.4844 10.5078C41.9141 10.1172 41.8359 9.49219 41.25 9.33594C41.0547 9.25781 40.8203 9.33594 40.5859 9.33594C40.5469 9.25781 40.4688 9.10156 40.4297 8.90625C40.5078 8.94531 40.5859 8.94531 40.7031 8.98438C40.6641 8.86719 40.6641 8.78906 40.625 8.75H39.8438C39.6484 8.90625 39.4922 9.10156 39.5312 9.41406C39.375 9.49219 39.2969 9.57031 39.1797 9.60938C39.1016 9.64844 38.9844 9.60938 38.9453 9.57031C38.8672 9.41406 38.8281 9.25781 38.75 9.10156C38.5547 9.21875 38.3594 9.29688 38.3984 9.57031C38.3984 9.60938 38.3203 9.6875 38.2422 9.72656C37.9688 9.92188 37.6953 10.0781 37.4219 10.2344C37.1094 10.4297 37.1094 10.7813 37.1484 11.1328C36.9141 11.1719 36.7578 11.2109 36.5625 11.25C36.3281 11.2891 36.2109 11.4453 36.2891 11.6406C36.3281 11.7969 36.4063 11.9531 36.5234 12.0703C36.7188 12.3047 36.7969 12.6563 36.6016 12.9688C36.5625 12.8516 36.5625 12.7344 36.5625 12.6172C36.5234 12.2656 36.25 12.0703 36.0156 11.9141C35.9375 11.875 35.7422 11.9531 35.5469 11.9922C35.5078 11.9531 35.4688 11.8359 35.3906 11.7578C34.9609 12.3047 35.1953 12.8906 35.1953 13.4375C35.3516 13.5156 35.5078 13.5547 35.625 13.5938C35.3125 13.5938 35.1953 13.75 35.1953 14.0234C35.1953 14.1406 35.1563 14.2578 35.1563 14.375C35 14.7266 34.8438 14.7656 34.5313 14.5703C35 14.375 35.0781 14.1406 35.0391 13.6328C34.9609 13.0859 34.8828 12.5 35.1172 11.9531C35.1563 11.9141 35.1172 11.7969 35.0781 11.7578C35 11.6016 34.8828 11.4844 34.7656 11.2891C34.5313 11.4844 34.4531 11.7188 34.375 11.9922C34.3359 12.1484 34.3359 12.2656 34.2188 12.3828C34.0234 12.6563 33.9844 12.9297 34.1406 13.2422C34.2188 13.3594 34.2188 13.5547 34.2578 13.6719C34.2188 13.7109 34.2188 13.7109 34.1797 13.7109C33.7109 13.4375 33.2422 13.1641 32.7344 12.8906C32.7344 12.9297 32.6953 12.9297 32.6953 12.9688C32.7734 13.1641 32.8516 13.3594 32.9297 13.5156H32.1875C32.1094 13.5937 32.0312 13.6719 32.0312 13.7109C31.3672 13.5547 31.0938 14.0625 30.6641 14.4141C30.6641 14.2578 30.625 14.1797 30.625 14.1016C30.7422 13.7891 30.6641 13.7109 30.2734 13.75C30.2734 13.9453 30.3125 14.1406 30.3125 14.3359C30.3125 14.4141 30.2344 14.6094 30.1562 14.6094C30 14.6484 29.8828 14.7656 29.8047 14.9219C29.6484 15.3125 29.6094 15.3125 29.1797 15.2344H29.1406C29.0625 15.3516 28.9844 15.4297 28.9453 15.5078C28.9062 15.4297 28.8672 15.3125 28.8281 15.2344C28.7891 15.0781 28.75 14.9219 28.6719 14.7656C28.6328 14.6875 28.6328 14.6484 28.5547 14.4922C28.7109 14.5703 28.8281 14.6094 28.9453 14.6484C29.2188 14.7656 29.4922 14.8047 29.7266 14.5703C29.8438 14.4531 29.8828 14.3359 29.8047 14.2188C29.4141 13.7891 29.0234 13.3594 28.3984 13.2422C28.3203 13.2031 28.2031 13.0859 28.1641 13.0078C28.0469 12.8906 28.0078 12.7344 27.8906 12.6953C27.5 12.5781 27.1094 12.4609 26.7578 12.8125C26.7188 12.8516 26.6016 12.8906 26.5625 12.8906C25.9766 13.0469 25.5469 13.3594 25.2344 13.9062C25.5078 13.9844 25.5078 14.1797 25.3906 14.375C25.2344 14.6875 25.0781 14.9609 24.9219 15.2344C24.8828 15.3125 24.8438 15.4297 24.7656 15.4687C24.2188 15.7422 23.8672 16.1328 23.9844 16.7578C24.0234 16.8359 23.9844 16.9141 23.9844 17.0312C23.9844 17.5391 24.1406 17.6562 24.6094 17.4219C24.9219 17.2656 25.0391 17.3438 25.1172 17.6953C25.1172 17.7734 25.1172 17.8906 25.1563 17.9688C25.1953 18.125 25.2734 18.2422 25.3125 18.3984C25.3516 18.4375 25.4687 18.4375 25.4687 18.4375C25.625 18.2031 25.9375 18.0859 25.8594 17.7734C25.8594 17.6562 25.9375 17.5391 26.0156 17.4219C26.1328 17.2656 26.2891 17.1094 26.1328 16.9531C25.8203 16.6016 26.0156 16.2891 26.2109 16.0156C26.3672 15.7422 26.6797 15.5469 26.6797 15.1953C26.6797 15.1563 26.875 15.0391 26.9922 15.0781C27.1875 15.0781 27.1094 15.2344 27.0703 15.3516C27.0313 15.4297 26.9922 15.5078 26.9531 15.5859C26.6797 15.8984 26.5625 16.2109 26.6016 16.6406C26.6406 17.0312 26.8359 17.1875 27.2266 17.0312C27.3828 16.9922 27.5781 16.9922 27.7344 16.9922C27.7344 17.0312 27.7344 17.0703 27.7734 17.1094C27.6172 17.1484 27.5 17.1875 27.3438 17.2266C26.875 17.3047 26.7969 17.3828 26.9141 17.7344C26.6797 18.125 26.4844 18.4766 26.2891 18.8281C26.25 18.7891 26.25 18.7891 26.25 18.75C26.0937 18.7891 25.8984 18.7891 25.7813 18.8672C25.3516 19.0625 25.0391 18.9062 25 18.4375C24.9609 18.2812 24.9219 18.0859 24.8828 17.8906C24.4922 18.1641 24.4531 18.2422 24.5313 18.6328C24.5313 18.7109 24.4922 18.8672 24.4922 18.8672C24.1406 18.9453 23.9063 19.2188 23.75 19.5312C23.75 19.5312 23.7109 19.5312 23.7109 19.5703C23.5547 19.7266 23.4375 19.8438 23.3203 20C23.2422 20.0391 23.1641 20.0781 23.0859 20.1172C22.8516 20.1953 22.6563 20.2734 22.3438 20.3516C22.5391 20.5469 22.6563 20.625 22.7734 20.7422C23.0078 20.9375 23.0469 21.1719 22.9297 21.4063C22.8906 21.5234 22.6562 21.5625 22.5 21.5625C22.3828 21.6016 22.2266 21.5234 22.1094 21.5234C21.8359 21.5234 21.7578 21.6406 21.7969 21.9141C21.8359 22.0703 21.7969 22.2266 21.7578 22.3828C21.7578 22.5 21.6797 22.6172 21.6406 22.7734C21.8359 22.8125 22.0313 22.8516 22.1484 22.9297C22.4609 23.125 23.0078 22.9688 23.125 22.6172C23.2031 22.4609 23.3203 22.3047 23.4375 22.1484C23.5938 21.9531 23.75 21.7578 23.9063 21.6016C24.0625 21.5625 24.2578 21.5625 24.375 21.5234C24.6094 21.4453 24.7656 21.4062 24.9609 21.6406C25.1172 21.8359 25.3906 21.9922 25.5859 22.1484C25.6641 22.2266 25.7813 22.3438 25.7813 22.4219C25.7813 22.5 25.625 22.6172 25.5469 22.6562C25.5078 22.6953 25.3906 22.6953 25.3125 22.6953C25.4688 22.9687 25.5469 22.9688 25.7031 22.7734C25.8594 22.5781 26.0156 22.4219 26.1719 22.1875C26.1719 22.1875 26.1719 22.1484 26.1328 22.1484C25.8984 21.9531 25.625 21.7578 25.3906 21.5625C25.3125 21.5234 25.3125 21.4062 25.2734 21.3281C25.3516 21.3672 25.4688 21.3281 25.5469 21.3672C25.7031 21.4453 25.8203 21.6016 25.9766 21.6406C26.2109 21.7188 26.3281 21.875 26.4062 22.1484C26.4453 22.6172 26.7188 22.9297 27.1094 23.1641C27.1875 23.2031 27.4219 23.2422 27.5 23.1641C27.7734 22.8906 28.125 23.0859 28.4375 23.0078C28.4766 23.0078 28.5156 23.0469 28.5156 23.0859C28.5938 23.2422 28.6719 23.3203 28.8281 23.2031C28.9063 23.1641 28.9844 23.1641 29.1016 23.1641C29.1016 23.2813 29.1406 23.4375 29.1016 23.5156C28.9062 23.7891 28.7109 24.0234 28.3203 23.9453C28.2422 23.9063 28.125 23.9063 28.0469 23.9453C27.7344 24.1016 27.4609 23.9453 27.2266 23.75C27.0312 23.5938 26.875 23.5938 26.7188 23.75C26.4844 23.9453 26.2109 24.0234 25.9766 23.9063C25.5469 23.6719 25.1953 23.3594 24.9219 22.9688C24.8828 22.8906 24.8047 22.7734 24.7656 22.8125C24.2188 22.8516 23.6328 22.7734 23.125 23.125C22.9297 23.2813 22.7344 23.3203 22.5 23.2031C22.4609 23.1641 22.3437 23.1641 22.3047 23.2031C22.1484 23.3984 21.9531 23.5938 21.875 23.7891C21.7188 24.1406 21.6016 24.4531 21.2891 24.7266C20.8594 25.0781 20.7031 25.625 20.625 26.1719C20.5859 26.5234 20.4687 26.9141 20.7422 27.2266C21.0156 27.5781 21.25 27.9688 21.5625 28.2812C21.7188 28.4375 21.9531 28.5547 22.1484 28.5937C22.6953 28.6328 23.2031 28.6328 23.7109 28.3984C23.8672 28.3203 24.0234 28.3594 24.1406 28.5156C24.2188 28.6328 24.375 28.75 24.4922 28.75C24.8047 28.7891 24.8438 28.9844 24.7656 29.1406C24.6484 29.4141 24.7656 29.6094 24.9609 29.7656C25.4688 30.3125 25.5078 30.8984 25.3125 31.5625C25.2344 31.8359 25.2344 32.1094 25.3516 32.3828C25.5078 32.7734 25.7031 33.125 25.6641 33.5938C25.6641 33.7109 25.7031 33.8281 25.7422 33.9453H28.5937C28.6328 33.8281 28.7109 33.75 28.7891 33.6719C29.0625 33.3984 29.0625 33.0859 29.1016 32.7734C29.1016 32.6562 29.1797 32.5 29.2969 32.4219C29.6484 32.2266 29.8828 31.9531 29.9219 31.5234C29.9609 31.25 29.8828 30.9766 29.8047 30.7422C29.6875 30.2344 29.8437 29.8438 30.1562 29.4531C30.625 28.9062 31.2891 28.5547 31.5234 27.7734C31.6016 27.4609 31.6016 27.3828 31.25 27.3828C31.0547 27.3437 30.8594 27.3047 30.6641 27.2656C30.6641 27.2266 30.6641 27.2266 30.6641 27.1875C30.8594 27.1094 31.0547 27.0703 31.2109 26.9531C31.6797 26.7188 32.1094 26.5234 32.5391 26.25C32.6953 26.1328 32.7734 25.8594 32.8906 25.7031C33.0078 25.5469 33.0078 25.4297 32.8516 25.3125C32.7344 25.2344 32.5781 25.1172 32.4609 25.0391C32.5781 25 32.6953 25 32.7734 25.0391C32.9688 25.0781 33.1641 25.1953 33.3203 25.1172C33.8672 24.8828 34.2188 25.1562 34.5313 25.625C34.6484 25.7812 34.7656 25.8984 34.9609 25.7812C35.0391 26.0156 35.0781 26.25 35.1563 26.4844C35.3125 26.875 35.5078 27.2656 35.6641 27.6562C35.8203 28.0078 35.8594 28.0078 36.1328 27.7734C36.1719 27.7344 36.1719 27.7734 36.2109 27.7344C36.25 27.5391 36.3672 27.3437 36.3672 27.1875C36.4062 26.8359 36.5234 26.6016 36.8359 26.4453C36.9922 26.3672 37.1094 26.2891 37.2266 26.1719C37.5 25.8984 37.8516 25.8984 38.1641 25.9375C38.3984 25.9766 38.5938 26.0937 38.5547 26.4062C38.5547 26.6016 38.5938 26.7578 38.8672 26.6016C38.9062 26.6016 39.0234 26.6016 39.0625 26.6797C39.1797 26.9531 39.3359 27.1875 39.2188 27.5C39.1406 27.6953 39.2188 27.8516 39.2969 28.0078C39.4531 28.2422 39.5703 28.5156 39.7266 28.8281C39.3359 28.75 39.2188 28.2422 38.7891 28.3984C38.9453 28.7109 39.0625 29.0625 39.2578 29.2969C39.6094 29.6875 40 30.0391 40.3906 30.3906C40.4688 30.4688 40.625 30.5469 40.7422 30.5859C41.4844 30.7422 42.2266 30.8594 42.9297 31.0156C43.125 30.7422 43.3203 30.9766 43.5156 31.0156C43.75 31.0547 43.9844 30.9375 44.2578 30.8594C44.2578 30.8203 44.2578 30.8203 44.2578 30.7812C44.3359 30.8203 44.375 30.8594 44.4531 30.8984C44.5313 30.7812 44.6094 30.7031 44.6875 30.5859C44.6484 30.5469 44.6484 30.5078 44.6484 30.4688C44.2969 30.5078 43.9062 30.5859 43.5547 30.5859C42.7344 30.5469 41.9531 30.4688 41.1328 30.3906C40.8594 30.3516 40.7031 30.1953 40.5859 29.9609C40.6641 29.9219 40.7031 29.8438 40.7813 29.8047C40.3125 29.2969 40.3125 29.2969 40.1563 28.5937C40.1172 28.4766 40.0391 28.3984 39.9609 28.3203C39.7656 28.0859 39.5313 27.8906 39.5703 27.5781C39.5703 27.5 39.6094 27.3438 39.6484 27.3438C39.7266 27.3047 39.8828 27.3437 39.9609 27.3828C40 27.3828 40.0391 27.5 40.0781 27.5391C40.3516 27.8906 40.3516 27.8906 40.7422 27.6562C40.7813 27.6172 40.7812 27.6172 40.8203 27.6172C41.2109 27.3828 41.25 26.9922 40.9375 26.6406C40.8203 26.5234 40.7031 26.4062 40.5859 26.2891C40.4688 26.0938 40.5859 25.9375 40.7422 25.8594C40.8203 25.8203 40.9375 25.8594 41.0156 25.8594C40.9766 25.9375 40.9766 26.0547 40.9766 26.25C41.0547 26.2891 41.1719 26.2891 41.3281 26.3281C41.3281 26.1328 41.3672 26.0156 41.3672 25.8984C41.6016 25.8203 41.7969 25.7031 41.9922 25.625C42.9688 25.2734 43.3594 24.2969 42.9297 23.3594C42.8906 23.2813 42.8906 23.1641 42.9297 23.125C43.1641 22.8125 43.1641 22.8125 42.8125 22.7344C42.7734 22.7344 42.7734 22.6953 42.7344 22.6562C42.8125 22.5781 42.9297 22.3828 43.0469 22.3828C43.2812 22.3438 43.5156 22.3047 43.6719 22.5781C43.75 22.7734 43.7891 22.9688 43.9063 23.125C43.9453 23.2031 44.0625 23.3203 44.1406 23.3203C44.2188 23.3203 44.3359 23.2422 44.375 23.1641C44.4531 22.9688 44.4141 22.8125 44.2578 22.6562C44.1016 22.5391 44.1016 22.4219 44.2969 22.2656C44.4141 22.1875 44.4531 22.0312 44.5703 21.9141C44.6484 21.8359 44.7656 21.7578 44.8828 21.6797C45.0391 21.6016 45.2344 21.5625 45.3516 21.4453C45.5469 21.2891 45.6641 21.0547 45.8203 20.8594V18.75C45.5859 18.6328 45.5859 18.3984 45.8203 18.2031V12.3828H45.6641ZM29.0625 21.6797C28.8281 21.6016 28.6328 21.4063 28.3594 21.6016C28.2812 21.6406 28.1641 21.6406 28.0469 21.6406C27.8516 21.3281 27.9688 20.8594 28.2422 20.7031C28.3594 20.6641 28.4375 20.625 28.5156 20.7812C28.6328 21.1328 28.6719 21.1719 29.0625 21.0547C29.1797 21.0156 29.3359 21.0547 29.4531 21.0938C29.6094 21.1719 29.7266 21.2891 29.8828 21.3281C30.0781 21.4062 30.1562 21.5625 30.0781 21.6797C30 21.7578 29.7656 21.8359 29.6484 21.7969C29.4141 21.8359 29.2578 21.7578 29.0625 21.6797ZM29.0625 24.6094C29.2578 25 29.6094 25.2734 29.7656 25.7422C29.9219 26.1719 30.1953 26.5625 30.3906 26.9531C29.7656 26.6797 28.9453 25.2344 29.0625 24.6094ZM31.0938 20.8594C31.25 20.625 31.6406 20.5859 31.8359 20.7031C31.7969 20.7812 31.7578 20.8203 31.6797 20.8594C31.4062 21.0938 31.4063 21.2109 31.6016 21.4844C31.6406 21.5625 31.6797 21.6406 31.7578 21.7187C31.875 21.875 31.875 22.0313 31.7187 22.1484C31.6016 22.2266 31.2891 22.1484 31.25 21.9531C31.1328 21.6406 31.0156 21.3672 30.9766 21.0547C31.0156 21.0156 31.0547 20.9375 31.0938 20.8594ZM31.5234 24.7266C31.4453 24.5703 31.2891 24.4141 31.1719 24.2578C31.2109 24.2187 31.2109 24.1797 31.25 24.1406C31.3672 24.1797 31.4844 24.1797 31.5625 24.2578C31.6797 24.3359 31.7969 24.4922 31.9141 24.5703C32.0312 24.6484 32.1484 24.7266 32.3047 24.8047C31.9922 25.1172 31.7187 25.0781 31.5234 24.7266ZM33.0859 21.2891C32.9297 21.2109 32.6953 21.1328 32.8516 20.9375C33.0078 20.7031 33.125 20.9375 33.3203 20.9766C33.2031 21.0938 33.125 21.1719 33.0859 21.2891Z" fill="white"/>
<path d="M17.5781 30.8202C17.1094 31.2108 17.1094 31.7187 16.9922 32.1874C16.8359 32.6562 16.6406 33.0858 16.0547 33.1249C15.7422 33.1249 15.5859 33.3593 15.5469 33.6327C15.5469 33.7108 15.5469 33.789 15.5078 33.8671H11.8359C11.875 33.5155 11.9141 33.1249 11.9922 32.7733C12.0312 32.4999 11.9531 32.2655 11.7188 32.1483C11.2109 31.953 11.0156 31.5233 10.8203 31.0937C10.7031 30.8202 10.5469 30.5858 10.3906 30.3515C10.1562 29.9999 10.1953 29.5312 10.4687 29.1796C10.5859 29.0233 10.7031 28.828 10.7422 28.6327C10.8203 28.3202 10.7812 28.2421 10.4297 28.203C10.1562 28.164 9.92187 28.0468 9.72656 27.8124C9.49219 27.578 9.25781 27.2655 8.98438 27.0312C8.94531 26.9921 8.90625 26.9921 8.86719 26.9921C8.63281 27.1093 8.51562 26.953 8.32031 26.8358C8.20312 26.7577 8.00781 26.7577 7.85156 26.7187C7.42188 26.5624 6.99219 26.4062 6.5625 26.2108C6.40625 26.1327 6.28906 25.8983 6.25 25.703C6.17187 25.4687 6.09375 25.3124 5.89844 25.1171C5.54688 24.7655 5.27344 24.414 5 24.0233C4.96094 23.9843 4.92187 23.9062 4.84375 23.8671C4.80469 23.8671 4.80469 23.8671 4.76562 23.9062C4.80469 24.0233 4.80469 24.1405 4.88281 24.2187C5.11719 24.5702 5.35156 24.8827 5.58594 25.2343C5.625 25.2733 5.625 25.3515 5.625 25.5077C5.3125 25.2343 5.07812 24.9608 4.80469 24.7265C4.76562 24.6874 4.76562 24.6483 4.76562 24.5702C4.76562 24.414 4.72656 24.3358 4.57031 24.2577C4.45312 24.1796 4.41406 23.9843 4.33594 23.8671V13.5155H4.375C4.57031 13.5937 4.84375 13.5546 4.76562 13.9062C4.76562 13.9452 4.92187 14.0624 5 14.0624C5.23437 13.9843 5.46875 13.9452 5.625 13.789C5.9375 13.5546 6.17187 13.5155 6.44531 13.789C6.83594 14.2187 7.03125 14.1796 7.38281 13.7499C7.30469 13.6718 7.22656 13.5937 7.10938 13.4374C7.26563 13.3593 7.42187 13.203 7.57812 13.203C7.73437 13.2421 7.85156 13.3983 8.00781 13.4765C8.04687 13.4374 8.04688 13.4374 8.08594 13.4374C8.04688 13.3593 8.00781 13.2421 7.92969 13.203C7.61719 13.0077 7.57812 12.8515 7.73437 12.4999C7.8125 12.2655 7.8125 11.9921 7.85156 11.7577C7.89062 11.5233 7.92969 11.289 7.96875 11.0155C7.96875 10.8202 8.08594 10.8202 8.24219 10.8593C8.39844 10.8593 8.55469 10.8983 8.75 10.9374C8.67187 11.1718 8.59375 11.4062 8.51562 11.6796C8.20312 11.8358 8.16406 11.953 8.28125 12.3046C8.35938 12.6171 8.47656 12.8905 8.55469 13.164C8.59375 13.2421 8.71094 13.3202 8.78906 13.3202C9.0625 13.3983 9.17969 13.5937 9.14062 13.8671C9.14062 13.9452 9.17969 14.0624 9.29687 14.1405C9.375 13.828 9.45312 13.5546 9.57031 13.2812C9.60938 13.203 9.80469 13.164 9.96094 13.1249C9.84375 13.0858 9.72656 13.0468 9.64844 13.0468C9.21875 13.0077 8.86719 12.7343 8.86719 12.3046C8.82812 11.914 8.82812 11.5233 9.17969 11.2499C9.21875 11.2108 9.29687 11.1327 9.33594 11.1327C9.49219 11.0937 9.64844 11.0155 9.76562 11.0546C10.1562 11.289 10.7812 10.8202 11.0547 11.4843C11.1719 11.7187 11.3281 11.914 11.5234 12.0702C11.7578 12.3046 12.0312 12.4608 12.2656 12.6562C12.3828 12.7733 12.5 12.9296 12.5 13.0468C12.4609 13.5937 12.7734 13.8671 13.1641 14.1796C13.5938 14.5312 13.5938 14.6483 13.2422 15.078C13.2031 15.1171 13.1641 15.1562 13.0859 15.2733C12.9297 15.039 12.8125 14.8827 12.6953 14.6874C12.6562 14.7265 12.6172 14.7655 12.5781 14.7655C12.6562 14.9218 12.7344 15.039 12.8516 15.1562C13.125 15.4296 13.1641 15.7421 12.9297 15.9765C12.8906 16.0155 12.8516 16.0155 12.8125 16.0546V16.3671C12.3047 16.2499 11.875 16.0546 11.5625 15.664C11.3281 15.3515 11.1328 15.4296 10.9766 15.8202C10.9375 15.7421 10.8984 15.664 10.8984 15.5858C10.8984 15.5077 10.9375 15.4296 10.8984 15.3905C10.8594 15.1562 10.9766 15.039 11.1719 15.039C11.3672 15.039 11.4453 14.9608 11.4844 14.7655C11.4844 14.6874 11.5625 14.6093 11.6016 14.5312C11.6406 14.414 11.6406 14.2577 11.6797 14.1405C11.5625 14.1796 11.4453 14.1796 11.3281 14.1796C11.25 14.1796 11.1328 14.2187 11.0547 14.2187C11.0547 14.1405 10.9766 14.0233 11.0156 13.9843C11.0547 13.9452 11.1719 13.9062 11.25 13.9062C11.2891 13.8671 11.3672 13.828 11.4453 13.828C11.4062 13.789 11.3281 13.7499 11.2891 13.7108C11.1719 13.6327 11.0547 13.5546 10.9375 13.4765C10.8984 13.4374 10.8594 13.4765 10.7422 13.4765C10.7812 13.3593 10.8203 13.2421 10.8984 13.0858C10.7031 13.164 10.5469 13.203 10.3906 13.2812C10.3125 13.3202 10.2734 13.4374 10.2344 13.5155C10.1562 13.9452 10.4297 14.414 9.96094 14.7265C9.92188 14.7655 9.96094 14.9999 10.0391 15.1171C10.1172 15.2733 10.2734 15.3515 10.3516 15.4687C10.3906 15.5468 10.3906 15.6249 10.3906 15.703H10.1562C10.0391 15.703 9.88281 15.6249 9.84375 15.664C9.53125 15.8593 9.375 15.664 9.21875 15.4296C8.98438 15.664 8.78906 15.8983 8.55469 16.1327C8.24219 16.4062 8.125 16.7577 8.16406 17.0702C8.20312 17.3437 8.4375 17.6171 8.71094 17.7733C9.0625 18.0077 9.49219 18.164 9.88281 18.3593C10 18.3983 10.0391 18.5546 10.1172 18.6718C10.1953 18.8671 10.1953 19.0624 10.3125 19.2577C10.3516 19.3358 10.4688 19.3749 10.5859 19.414C10.625 19.3358 10.6641 19.2577 10.7031 19.1405C10.7422 19.1015 10.7031 19.0233 10.6641 18.9843C10.625 18.7108 10.625 18.4374 10.8594 18.203C11.0547 18.0468 11.1328 17.8124 10.9375 17.578C10.8594 17.4608 10.8203 17.3046 10.8203 17.1874C10.8203 16.914 10.8594 16.6015 10.8594 16.328C10.8594 16.1718 10.9375 16.0937 11.0937 16.0937C11.7578 16.0937 12.0703 16.328 12.2656 16.953C12.3047 17.0702 12.4219 17.1874 12.5 17.3046C12.5781 17.1874 12.6953 17.0702 12.8125 16.953C12.8906 16.8749 12.9297 16.7577 13.0078 16.6405C13.1641 16.9921 13.2812 17.2655 13.3984 17.578C13.5156 17.9296 13.6719 18.2421 13.9844 18.4765C14.2969 18.7108 14.4141 19.0233 14.375 19.414C14.375 19.5312 14.4531 19.7265 14.5312 19.7655C14.9609 19.9218 14.8828 20.2733 14.8828 20.664C14.6875 20.5858 14.5703 20.5077 14.4141 20.4296C14.3359 20.3905 14.2578 20.3515 14.1797 20.3515C13.8672 20.3124 13.8281 20.1952 13.9844 19.8827C14.0625 19.7655 14.1016 19.6874 14.1797 19.5702C14.1797 19.5312 14.1406 19.5312 14.1406 19.4921C13.9453 19.6093 13.7109 19.6874 13.5938 19.8437C13.4375 20.039 13.3594 19.9999 13.2422 19.8827C13.0078 19.6483 13.0078 19.6483 12.8125 19.8046C12.9688 19.9999 13.0859 20.1952 13.2031 20.3515C13.3594 20.5077 13.5156 20.6249 13.7109 20.7812C13.5156 21.0155 13.2422 21.1327 12.9688 21.1718C12.9297 21.1718 12.8516 21.2108 12.8516 21.1718C12.6953 21.0155 12.5391 21.0937 12.4219 21.2108C12.3047 21.328 12.1094 21.3671 12.1875 21.6015C12.1875 21.6405 12.1484 21.6796 12.1094 21.7187C11.6797 21.9921 11.4062 22.3046 11.2891 22.8124C11.2109 23.2421 10.7422 23.3202 10.5469 23.6327C10.5078 23.7108 10.3906 23.789 10.2734 23.8671C10.3516 24.2187 10.8594 24.4921 10.5078 24.9218C10.3125 24.9218 10.1562 24.8827 10.1953 24.6093C10.1953 24.3358 9.96094 24.2187 9.76562 24.1405C9.57031 24.0233 9.33594 23.9452 9.10156 24.1015C9.02344 24.1405 8.82812 24.1405 8.71094 24.1015C8.28125 24.0233 7.85156 24.3358 7.77344 24.7655C7.69531 25.2343 7.8125 25.6249 8.00781 26.0546C8.08594 26.289 8.59375 26.2108 8.75 25.9765C8.90625 25.7421 9.0625 25.5077 9.41406 25.664C9.45312 25.8202 9.45312 25.8202 8.98438 26.0937C9.21875 26.5624 9.64844 26.3671 10.0391 26.4452C10.0781 26.6796 10.0781 26.8749 10.1172 27.0702C10.1172 27.3827 10.2344 27.578 10.5859 27.6171C10.9375 27.6562 11.25 27.6952 11.4844 27.3437C11.7187 27.0312 12.1094 27.1093 12.4219 26.9921C12.4609 26.953 12.5781 27.0702 12.6172 27.1093C12.8906 27.3437 13.1641 27.4218 13.5156 27.3827C13.6328 27.3827 13.75 27.4608 13.8281 27.539C14.0625 27.8124 14.2969 28.0468 14.6875 28.1249C15.0781 28.203 15.3516 28.4765 15.5078 28.789C15.5859 28.9843 15.7422 29.0624 15.9375 29.1405C16.5234 29.3749 17.1094 29.6093 17.6562 29.8827C17.7734 30.1171 17.8906 30.5468 17.5781 30.8202Z" fill="white"/>
<path d="M19.6094 11.4063C19.6875 11.5625 19.8047 11.6797 19.8828 11.8359C19.8047 11.875 19.7266 11.9141 19.6875 11.9531C19.7266 12.2266 19.7266 12.5 19.7656 12.8125C19.5703 12.7344 19.4531 12.6953 19.2969 12.6563C19.1797 12.9688 19.4922 12.8906 19.6094 13.0469C19.3359 13.4766 18.9844 13.8281 18.4375 13.8672C18.1641 13.9063 18.0859 14.0234 17.9687 14.2578C17.8125 14.6094 17.5781 14.9219 17.1484 15C16.9922 15.0391 16.8359 15.1953 16.7969 15.3516C16.6406 15.7813 16.5625 16.2109 16.4453 16.6406C16.4062 16.7969 16.2891 16.875 16.2109 17.0312C15.9375 16.7969 15.625 16.7188 15.3906 16.4063C14.9219 15.7031 14.7266 14.9609 14.6484 14.1406C14.6484 13.9453 14.7656 13.7891 14.8438 13.5938C14.8828 13.4766 14.9219 13.3984 15 13.2813C14.8438 13.3203 14.7266 13.3594 14.5703 13.3984C14.5312 13.1641 14.5312 12.9688 14.4922 12.7734C14.6484 12.7344 14.7266 12.6953 14.8047 12.6953C14.8047 12.6563 14.8438 12.6563 14.8438 12.6172C14.7656 12.5781 14.6875 12.5 14.5703 12.5C14.3359 12.5 14.2578 12.4219 14.2969 12.1484C14.3359 11.9141 14.2578 11.6406 14.2188 11.4063C14.1797 11.1328 14.0625 10.8984 14.0625 10.625C13.9844 10.0781 13.3594 9.60938 12.7344 9.72656C12.2656 9.80469 11.9531 9.53125 11.875 9.02344C11.9922 8.94531 12.1094 8.86719 12.2266 8.82813C12.1875 8.78906 12.1875 8.78906 12.1484 8.75H20.2344C20.4297 9.02344 20.4688 9.29688 20.2734 9.60938C20.1562 9.84375 20.1562 10 20.3906 10.1563C20.4688 10.1953 20.5078 10.2734 20.5859 10.3906C20.3906 10.4297 20.3125 10.4297 20.1953 10.4297C20.1953 10.8594 19.9219 11.3281 19.6094 11.4063Z" fill="white"/>
<path d="M9.10078 9.53125C8.98359 9.53125 8.86641 9.57031 8.78828 9.57031C8.78828 9.96094 9.06172 10.1172 9.37422 10C9.60859 9.92187 9.88203 9.84375 10.0773 9.92187C10.2336 10 10.3898 10.2734 10.3898 10.4687C10.3898 10.7031 10.1555 10.7031 9.96016 10.7031C9.84297 10.7031 9.72578 10.7422 9.60859 10.7422C9.56953 10.7422 9.53047 10.7812 9.49141 10.7812C9.17891 10.7422 8.90547 10.7031 8.59297 10.5859C8.31953 10.5078 8.31953 10.2344 8.31953 10C8.31953 9.64844 8.31953 9.64844 8.00703 9.57031C8.08516 9.76562 8.12422 9.92187 8.16328 10.0781C8.20234 10.1953 8.24141 10.3125 8.24141 10.4297C8.24141 10.5078 8.16328 10.625 8.08516 10.625C8.00703 10.625 7.85078 10.5859 7.81172 10.5469C7.73359 10.4687 7.65547 10.3125 7.57734 10.1562C7.53828 10.1953 7.49922 10.2344 7.42109 10.2734C7.22578 10.4687 7.06953 10.4687 6.95234 10.2344C6.87422 10.1172 6.79609 10.0391 6.71797 9.96094C6.60078 9.76562 6.48359 9.60937 6.36641 9.41406C6.32734 9.375 6.40547 9.33594 6.40547 9.25781C6.44453 9.25781 6.52266 9.25781 6.56172 9.29687C6.67891 9.45312 6.79609 9.375 6.91328 9.29687C7.18672 9.10156 7.38203 9.17969 7.49922 9.49219C7.57734 9.64844 7.69453 9.76562 7.77266 9.88281C7.81172 9.84375 7.85078 9.84375 7.85078 9.80469C7.73359 9.53125 7.61641 9.29687 7.53828 8.98437C7.73359 8.78906 7.88984 8.94531 8.08516 9.02344C8.35859 9.14062 8.67109 9.17969 8.90547 8.98437C8.98359 8.94531 9.06172 8.78906 9.02266 8.75C9.02266 8.71094 8.98359 8.71094 8.98359 8.67188H10.5852C10.5461 8.75 10.507 8.82812 10.468 8.86719C10.8586 9.14062 10.5852 9.45312 10.4289 9.76562C10.3898 9.76562 10.3898 9.72656 10.3898 9.72656C10.2727 9.45312 10.1164 9.33594 9.76484 9.45312C9.56953 9.60937 9.33516 9.53125 9.10078 9.53125Z" fill="white"/>
<path d="M45.6641 29.4141V30.1563C45.625 30.1172 45.5859 30.0782 45.5078 30.0782C45.4297 30.0391 45.3516 30 45.2734 30C44.8438 30.0391 44.7266 29.7266 44.6094 29.336C44.7656 29.2188 44.9219 29.2188 45.0781 29.375C45.1563 29.4141 45.2734 29.4532 45.3516 29.4532C45.5078 29.4141 45.5859 29.4141 45.6641 29.4141Z" fill="white"/>
<path d="M45.6641 30.3906V30.7031C45.625 30.7031 45.5859 30.7422 45.5469 30.7422C45.5859 30.625 45.625 30.5078 45.6641 30.3906Z" fill="white"/>
<path d="M45.5067 31.6405C45.5848 31.6796 45.6239 31.7186 45.663 31.7577V33.8671H41.7958C41.7958 33.828 41.7567 33.828 41.7567 33.7889C41.6005 33.4764 41.7176 33.203 41.7958 32.8905C41.8348 32.8124 41.913 32.7343 42.0301 32.6561C42.1864 32.578 42.3426 32.578 42.4989 32.4999C42.6551 32.4218 42.8895 32.3827 42.9676 32.2655C43.0848 31.9139 43.3973 31.8358 43.5926 31.6405C43.8661 31.3671 43.8661 31.3671 44.1786 31.6796C44.2176 31.6014 44.2567 31.5233 44.2958 31.4452C44.413 31.0546 44.5692 30.9764 44.9598 31.0546C45.077 31.0936 45.1942 31.0936 45.3114 31.0936C45.4676 31.0936 45.5458 31.1327 45.5458 31.2889C45.4676 31.4061 45.4676 31.6014 45.5067 31.6405Z" fill="white"/>
<path d="M7.03125 13.0469C6.95312 13.2031 6.875 13.3984 6.79687 13.5547C6.48437 13.5156 6.21094 13.5156 5.9375 13.4766C5.78125 13.4766 5.66406 13.5156 5.50781 13.6328C5.39063 13.7109 5.15625 13.7109 5 13.6719C4.76563 13.5547 4.53125 13.3984 4.29688 13.2812C4.29688 13.2812 4.25781 13.2813 4.25781 13.2422C4.21875 13.2031 4.17969 13.2031 4.10156 13.125C4.17969 13.125 4.21875 13.125 4.29688 13.0859C4.53125 13.0469 4.76562 13.0469 4.96094 13.0078V12.8906C4.84375 12.8906 4.72656 12.8516 4.57031 12.8906C4.45312 12.9297 4.33594 12.8906 4.29688 12.8516V10.9766C4.33594 11.0547 4.41406 11.1328 4.45312 11.1719C4.6875 11.4062 4.88281 11.6406 5.23437 11.7187C5.39062 11.7578 5.58594 11.7187 5.74219 11.7187C5.82031 11.5625 5.89844 11.3672 6.01562 11.2109C6.05469 11.1719 6.21094 11.1328 6.28906 11.1719C6.36719 11.2109 6.40625 11.3281 6.40625 11.4063C6.17187 11.8359 6.44531 12.2266 6.5625 12.5781C6.60156 12.7734 6.83594 12.8906 7.03125 13.0469Z" fill="white"/>
<path d="M43.7109 27.2656C43.6719 26.9922 43.5156 26.875 43.2813 26.7969C43.2422 26.7578 43.1641 26.7578 43.1641 26.7188C43.2031 26.6016 43.2031 26.4844 43.2031 26.3672C43.2031 26.2891 43.125 26.1719 43.125 26.1719C43.0469 26.1719 42.8906 26.2109 42.8906 26.2891C42.8125 26.4453 42.7734 26.6016 42.8125 26.7578C42.8516 26.9922 42.8125 27.1484 42.6562 27.3438C42.5391 27.5 42.4219 27.6563 42.2656 27.8516C42.1094 28.0859 41.9531 28.3203 41.7969 28.5547C41.6016 28.75 41.3672 28.8672 41.0937 28.7109C41.0156 28.6719 40.9375 28.6719 40.8594 28.6719C40.8203 28.7109 40.8203 28.7109 40.7812 28.75C40.9375 29.0625 41.0547 29.4531 41.2891 29.6484C41.6016 29.8438 42.0312 29.8828 42.4609 30C42.4219 29.9219 42.3828 29.8438 42.3828 29.8047C42.2266 29.6094 42.2266 29.375 42.4219 29.2188C42.5781 29.0625 42.6172 28.9453 42.5781 28.75C42.5781 28.6719 42.5781 28.5547 42.6172 28.5156C42.8516 28.3594 43.0859 28.2422 43.3203 28.125C43.5547 28.2031 43.6328 28.4375 43.7109 28.6719C43.7891 28.3984 43.9062 28.125 43.9453 27.8516C43.9453 27.6172 43.75 27.4219 43.7109 27.2656Z" fill="white"/>
<path d="M25.5078 8.71094H26.2109C26.1328 8.90625 26.0547 9.10156 26.0156 9.29688C25.7422 9.17969 25.625 8.94531 25.5078 8.71094Z" fill="white"/>
<path d="M27.1484 8.71094C27.1094 8.75 27.0703 8.78906 26.9922 8.82813C26.9531 8.78906 26.875 8.75 26.7969 8.71094H27.1484Z" fill="white"/>
<path d="M45.6631 22.6172V23.2031C45.2334 23.3594 44.8428 23.5937 44.4521 23.8281C44.2178 23.5937 44.2959 23.2031 44.6865 23.0078C44.8818 22.9297 45.0771 22.8906 45.2725 22.8125C45.4287 22.7734 45.585 22.6953 45.6631 22.6172Z" fill="white"/>
<path d="M32.6558 10.0781C32.6558 10.1172 32.5386 10.1953 32.4995 10.1953C32.2261 10.1563 32.2652 10.3516 32.2261 10.5469C32.1871 10.8203 32.0699 11.1328 31.9917 11.4063C31.9136 11.6016 31.7574 11.7188 31.7183 11.9141C31.6011 12.2656 31.9527 12.7734 32.3042 12.7734C32.3824 12.7734 32.4605 12.7344 32.5386 12.6953C32.4996 12.6172 32.4995 12.5391 32.4605 12.4609C32.3824 12.3047 32.2261 12.0703 32.3042 11.9922C32.5386 11.5234 32.6558 11.0547 32.9683 10.625C33.3589 10.1563 33.8667 9.92188 34.2964 9.57031C34.5699 9.375 34.5699 9.25781 34.3746 9.10156C34.023 9.25781 33.7105 9.375 33.398 9.53125C33.0855 9.64844 32.6949 9.60938 32.6558 10.0781Z" fill="white"/>
<path d="M21.9533 19.4141C22.2268 19.3359 22.2658 19.1016 22.3049 18.8672C22.383 18.6719 22.4611 18.5937 22.6955 18.6719C22.6174 19.0234 22.5393 19.3359 22.4221 19.7266C22.6955 19.6875 22.969 19.7266 23.1643 19.6484C23.4377 19.5703 23.633 19.1797 23.4377 18.9063C23.2815 18.7109 23.1643 18.5156 23.0471 18.3203C23.008 18.2031 23.008 18.0859 22.969 17.9688C22.9299 17.8125 22.8908 17.6562 22.8127 17.5C22.7737 17.5 22.7736 17.5 22.7346 17.5C22.7736 17.4219 22.8518 17.3047 22.8908 17.2266L22.8518 17.1875C22.6565 17.3047 22.4611 17.4609 22.2658 17.5391C22.0315 17.5781 22.0705 17.6953 22.1096 17.8516C22.1877 18.0469 22.1486 18.2422 21.9924 18.3594C21.6018 18.5547 21.5627 18.8672 21.6018 19.2578C21.6799 19.4141 21.758 19.4531 21.9533 19.4141Z" fill="white"/>
<path d="M4.41602 10.0781C4.29883 10.3125 4.37695 10.4297 4.65039 10.4297H4.88477C4.88477 10.7031 5.11914 10.8594 5.31445 10.7422C5.50977 10.6641 5.70508 10.5859 5.90039 10.5078C6.13477 10.4297 6.25195 10.2344 6.29102 10.0391C6.29102 9.96094 6.21289 9.80469 6.13477 9.72656C5.97852 9.53125 5.7832 9.375 5.62695 9.21875C5.58789 9.25781 5.50977 9.375 5.39258 9.49219C5.43164 9.57031 5.4707 9.64844 5.4707 9.72656C5.4707 9.80469 5.43164 9.88281 5.43164 9.96094C5.35352 9.92187 5.27539 9.88281 5.23633 9.80469C5.11914 9.6875 5.04102 9.53125 4.92383 9.45313C4.72852 9.33594 4.57227 9.41406 4.5332 9.64844C4.49414 9.84375 4.45508 9.96094 4.41602 10.0781Z" fill="white"/>
<path d="M31.0937 31.4062C31.0156 31.6406 30.8594 31.8359 30.625 31.9141C30.5859 31.9141 30.5469 32.0703 30.5469 32.1484C30.5078 32.3828 30.4297 32.6172 30.4297 32.8125C30.4297 33.0078 30.4687 33.2422 30.5469 33.4375C30.5469 33.4766 30.7422 33.5156 30.8203 33.5156C31.1719 33.3984 31.2891 33.0859 31.3281 32.7734C31.3672 32.5391 31.4062 32.3437 31.5234 32.1094C31.6797 31.7578 31.6797 31.4062 31.4844 31.0156C31.25 31.1719 31.1328 31.25 31.0937 31.4062Z" fill="white"/>
<path d="M20.7813 15.4688C20.9766 15.4298 21.0938 15.1954 21.0547 15.0001C21.0156 14.922 21.0156 14.8829 20.9766 14.8048C20.9375 14.5704 20.7812 14.4532 20.5469 14.5704C20.2734 14.6876 20.0391 14.6876 19.7656 14.5704C19.6094 14.4923 19.4922 14.5704 19.4531 14.7266C19.4531 14.8438 19.4922 15.0001 19.5313 15.1563L19.4922 15.1954C19.5313 15.3516 19.5703 15.5079 19.6094 15.6641C19.9609 15.6641 20.3516 15.9376 20.625 15.4688H20.7813Z" fill="white"/>
<path d="M7.30469 12.5783C7.42188 12.422 7.46094 12.2658 7.57812 12.2267C7.77344 12.1486 7.73437 12.0314 7.73437 11.8752C7.73437 11.6799 7.69531 11.4845 7.69531 11.2892C7.65625 11.0939 7.46094 10.9377 7.34375 10.9767C7.03125 11.0939 6.95313 11.2502 7.07031 11.6017C6.99219 11.6408 6.91406 11.6408 6.79688 11.6799C6.79688 12.0705 7.1875 12.1877 7.30469 12.5783Z" fill="white"/>
<path d="M45.6654 9.72656V10.5859C45.4701 10.3906 45.431 10 45.6654 9.72656Z" fill="white"/>
<path d="M4.33594 9.60938V8.71094H4.53125C4.60938 9.0625 4.45313 9.33594 4.33594 9.60938Z" fill="white"/>
<path d="M42.8141 29.0625C42.5797 29.375 42.6187 29.7656 42.8922 30.1562C42.8922 30.0391 42.8922 29.9219 42.9312 29.8047C43.2828 30.0781 43.2828 30.0781 43.4781 30.0391C43.3219 29.8047 43.2047 29.5703 43.0484 29.3359C43.0094 29.2969 42.9703 29.2188 43.0094 29.1797C43.0094 29.1406 43.1266 29.1016 43.1656 29.1016C43.5562 29.1016 43.6734 28.9844 43.6734 28.5938C43.4781 28.7891 43.2437 28.9453 42.9312 28.9453C42.8922 28.9453 42.8531 29.0234 42.8141 29.0625Z" fill="white"/>
<path d="M10.1953 25.1954C10.0391 25.1173 9.88281 25.1564 9.88281 25.3517L11.4063 25.9376C11.4063 25.8986 11.4453 25.8595 11.4453 25.8204C11.4062 25.7814 11.4063 25.7423 11.3672 25.7423C10.9766 25.547 10.5859 25.3517 10.1953 25.1954Z" fill="white"/>
<path d="M44.1414 29.6484C44.1414 29.3359 44.1414 29.0234 44.1414 28.7109C44.1023 28.7109 44.0633 28.7109 44.0242 28.7109C44.0633 29.1406 43.5945 29.4531 43.7508 29.9609C43.9461 29.8047 44.0633 29.7266 44.1414 29.6484Z" fill="white"/>
<path d="M5.35156 8.71094C5.3125 8.75 5.27344 8.75 5.27344 8.75C5.15625 8.78906 5.03906 8.75 4.96094 8.71094H5.35156Z" fill="white"/>
<path d="M13.4766 26.4453C13.3594 26.1719 13.0859 26.0156 12.7734 26.0156C12.6953 26.0156 12.6172 26.0547 12.5391 26.0938C12.5391 26.1328 12.5391 26.1328 12.5781 26.1719C13.4375 26.25 13.5156 26.5234 13.4766 27.0703C13.5547 26.9531 13.5547 26.6406 13.4766 26.4453Z" fill="white"/>
<path d="M36.6406 27.9686C36.5625 27.8514 36.5625 27.4998 36.25 27.6561C36.2891 27.8904 36.3281 28.0857 36.4062 28.3592C36.5625 28.2029 36.7578 28.1639 36.6406 27.9686Z" fill="white"/>
<path d="M43.2021 25.0002C42.8896 24.883 42.8505 25.1174 42.7724 25.2346C42.7333 25.3127 42.8114 25.4299 42.8505 25.5471H42.9677C43.0458 25.3518 43.1239 25.1565 43.2021 25.0002Z" fill="white"/>
<path d="M11.5234 26.2111C11.7969 26.2111 11.9922 26.1721 12.2656 26.1721C11.9141 25.8205 11.6406 25.8205 11.5234 26.2111Z" fill="white"/>
<path d="M6.52491 9.02344C6.21241 9.0625 6.13428 9.02344 6.17334 8.71094H6.40772C6.44678 8.82813 6.48584 8.90625 6.52491 9.02344Z" fill="white"/>
<path d="M8.04687 8.71094C8.00781 8.75 8.00781 8.75 7.96875 8.78906C7.92969 8.75 7.89062 8.75 7.89062 8.71094H8.04687Z" fill="white"/>
<path d="M44.4531 29.8438C44.4922 29.6094 44.4922 29.375 44.5312 29.1016C44.2578 29.2969 44.4141 29.5703 44.3359 29.8047C44.375 29.8438 44.4141 29.8438 44.4531 29.8438Z" fill="white"/>
<path d="M23.125 16.9531C23.1641 16.8359 23.1641 16.7188 23.2031 16.6016C23.1641 16.6016 23.125 16.6016 23.125 16.6016C23.0469 16.7188 22.9688 16.7969 22.8906 16.9531H23.125Z" fill="white"/>
<path d="M27.2656 21.9116L28.6741 20.5031L31.5187 23.3477L30.1102 24.7562L27.2656 21.9116Z" fill="#464E58"/>
<path d="M38.7102 27.3049L31.9524 22.0315C31.6008 21.7581 31.1321 21.7971 30.8196 22.1096L28.8665 24.0627C28.554 24.3752 28.5149 24.844 28.7883 25.1956L34.1399 32.0315C35.3899 33.6331 37.7727 33.7502 39.179 32.2268C40.5071 30.7815 40.2336 28.5159 38.7102 27.3049Z" fill="#7CCEDC"/>
<path d="M13.7891 7.03125C9.64844 11.1719 9.64844 17.8516 13.7891 21.9922C17.9297 26.1328 24.6094 26.1328 28.75 21.9922C32.8906 17.8516 32.8906 11.1719 28.75 7.03125C24.6094 2.89062 17.9297 2.89062 13.7891 7.03125ZM27.2266 20.4688C23.9453 23.75 18.5938 23.75 15.3125 20.4688C12.0313 17.1875 12.0313 11.8359 15.3125 8.55469C18.5938 5.27344 23.9453 5.27344 27.2266 8.55469C30.5078 11.8359 30.5078 17.1875 27.2266 20.4688Z" fill="#7CCEDC"/>
<path d="M20.8203 0C18.2422 0 16.1328 2.10938 16.1328 4.6875C16.1328 7.26562 20.8203 14.4922 20.8203 14.4922C20.8203 14.4922 25.5078 7.26562 25.5078 4.6875C25.5078 2.10938 23.3984 0 20.8203 0ZM20.8203 7.10938C19.4922 7.10938 18.3984 6.01562 18.3984 4.6875C18.3984 3.35938 19.4922 2.26562 20.8203 2.26562C22.1484 2.26562 23.2422 3.35938 23.2422 4.6875C23.2031 6.01562 22.1484 7.10938 20.8203 7.10938Z" fill="#F37C5A"/>
</g>
<defs>
<clipPath id="clip0_18202_7408">
<rect width="50" height="50" fill="white"/>
</clipPath>
</defs>
</svg>
