<svg width="50" height="50" viewBox="0 0 50 50" fill="none" xmlns="http://www.w3.org/2000/svg">
<path fill-rule="evenodd" clip-rule="evenodd" d="M4.65 23.03C4.76 22.9 4.78 22.72 4.7 22.57C4.63 22.42 4.47 22.32 4.3 22.32H2.42C1.08 22.32 0 23.4 0 24.74C0 26.08 1.08 27.16 2.42 27.16H4.3C4.47 27.16 4.62 27.06 4.7 26.91C4.77 26.76 4.75 26.58 4.65 26.45C4.27 25.98 4.05 25.39 4.05 24.74C4.05 24.09 4.27 23.5 4.65 23.03ZM40.94 22.32C40.77 22.32 40.62 22.42 40.54 22.57C40.47 22.72 40.49 22.9 40.59 23.03C40.97 23.5 41.19 24.09 41.19 24.74C41.19 25.39 40.97 25.98 40.59 26.45C40.48 26.58 40.46 26.76 40.54 26.91C40.61 27.06 40.77 27.16 40.94 27.16H47.58C48.92 27.16 50 26.08 50 24.74C50 23.4 48.92 22.32 47.58 22.32H40.94ZM36.34 23.03C36.45 22.9 36.47 22.72 36.39 22.57C36.32 22.42 36.16 22.32 35.99 22.32H25.1C24.93 22.32 24.78 22.42 24.7 22.57C24.63 22.72 24.65 22.9 24.75 23.03C25.13 23.5 25.35 24.09 25.35 24.74C25.35 25.39 25.13 25.98 24.75 26.45C24.64 26.58 24.62 26.76 24.7 26.91C24.77 27.06 24.93 27.16 25.1 27.16H36C36.17 27.16 36.32 27.06 36.4 26.91C36.47 26.76 36.45 26.58 36.35 26.45C35.97 25.98 35.75 25.39 35.75 24.74C35.74 24.09 35.96 23.5 36.34 23.03ZM20.49 23.03C20.6 22.9 20.62 22.72 20.54 22.57C20.47 22.42 20.31 22.32 20.14 22.32H9.25C9.08 22.32 8.93 22.42 8.85 22.57C8.78 22.72 8.8 22.9 8.9 23.03C9.28 23.5 9.5 24.09 9.5 24.74C9.5 25.39 9.28 25.98 8.9 26.45C8.79 26.58 8.77 26.76 8.85 26.91C8.92 27.06 9.08 27.16 9.25 27.16H20.15C20.32 27.16 20.47 27.06 20.55 26.91C20.62 26.76 20.6 26.58 20.5 26.45C20.12 25.98 19.9 25.39 19.9 24.74C19.89 24.09 20.12 23.5 20.49 23.03Z" fill="#D2D9DC"/>
<path fill-rule="evenodd" clip-rule="evenodd" d="M22.6199 21.13C20.6299 21.13 19.0099 22.75 19.0099 24.74C19.0099 26.73 20.6299 28.35 22.6199 28.35C24.6099 28.35 26.2299 26.73 26.2299 24.74C26.2299 22.75 24.6099 21.13 22.6199 21.13ZM6.77992 21.13C4.78992 21.13 3.16992 22.75 3.16992 24.74C3.16992 26.73 4.78992 28.35 6.77992 28.35C8.76992 28.35 10.3899 26.73 10.3899 24.74C10.3799 22.75 8.76992 21.13 6.77992 21.13ZM38.4699 21.13C36.4799 21.13 34.8599 22.75 34.8599 24.74C34.8599 26.73 36.4799 28.35 38.4699 28.35C40.4599 28.35 42.0799 26.73 42.0799 24.74C42.0799 22.75 40.4599 21.13 38.4699 21.13Z" fill="#839299"/>
<path fill-rule="evenodd" clip-rule="evenodd" d="M49.9994 10.2C49.9994 8.51001 48.6294 7.14001 46.9394 7.14001H37.9194C36.2294 7.14001 34.8594 8.51001 34.8594 10.2V15.44C34.8594 17.13 36.2294 18.5 37.9194 18.5H38.7894L39.3894 19.78C39.4894 19.99 39.7294 20.09 39.9394 20.01L43.9494 18.51H46.9394C48.6294 18.51 49.9994 17.14 49.9994 15.45V10.2Z" fill="#54CC5A"/>
<path fill-rule="evenodd" clip-rule="evenodd" d="M18.3099 10.2C18.3099 8.51001 16.9399 7.14001 15.2499 7.14001H6.22992C4.53992 7.14001 3.16992 8.51001 3.16992 10.2V15.44C3.16992 17.13 4.53992 18.5 6.22992 18.5H7.09992L7.69992 19.78C7.79992 19.99 8.03992 20.09 8.24992 20.01L12.2599 18.51H15.2499C16.9399 18.51 18.3099 17.14 18.3099 15.45V10.2Z" fill="#0054A6"/>
<path fill-rule="evenodd" clip-rule="evenodd" d="M34.1498 39.8V34.56C34.1498 32.87 32.7798 31.5 31.0898 31.5H28.0998L24.0898 30C23.8798 29.92 23.6398 30.02 23.5398 30.23L22.9398 31.51H22.0698C20.3798 31.51 19.0098 32.88 19.0098 34.57V39.81C19.0098 41.5 20.3798 42.87 22.0698 42.87H31.0898C32.7798 42.86 34.1498 41.49 34.1498 39.8Z" fill="#FFDD33"/>
</svg>
