<svg width="497" height="376" viewBox="0 0 497 376" fill="none" xmlns="http://www.w3.org/2000/svg">
<path d="M279.1 262.2H227.8V322.4H279.1V262.2Z" fill="#002548"/>
<path d="M375.3 276.4H131.6C126.3 276.4 121.9 272.1 121.9 266.7V102C121.9 96.7 126.2 92.3 131.6 92.3H375.4C380.7 92.3 385.1 96.6 385.1 102V266.7C385 272.1 380.7 276.4 375.3 276.4Z" fill="#002548"/>
<path d="M376.8 250.3H130.1C127.8 250.3 125.9 248.4 125.9 246.1V103.2C125.9 99 129.3 95.7 133.4 95.7H373.5C377.7 95.7 381 99.1 381 103.2V246.1C381 248.4 379.1 250.3 376.8 250.3Z" fill="#F9FAFB"/>
<path d="M309.7 322.5H197.2C196.1 322.5 195.2 321.4 195.6 320.3L196.8 316.6C197.3 315 198.8 313.9 200.4 313.9H306.5C308.2 313.9 309.6 315 310.1 316.6L311.3 320.3C311.6 321.4 310.8 322.5 309.7 322.5Z" fill="#002548"/>
<path opacity="0.19" d="M279.1 276.4H227.8V284.9H279.1V276.4Z" fill="#F9FAFB"/>
<path d="M317.5 266.9C319.378 266.9 320.9 265.378 320.9 263.5C320.9 261.622 319.378 260.1 317.5 260.1C315.622 260.1 314.1 261.622 314.1 263.5C314.1 265.378 315.622 266.9 317.5 266.9Z" fill="#0054A6"/>
<path d="M333.7 266.9C335.578 266.9 337.1 265.378 337.1 263.5C337.1 261.622 335.578 260.1 333.7 260.1C331.823 260.1 330.3 261.622 330.3 263.5C330.3 265.378 331.823 266.9 333.7 266.9Z" fill="#0054A6"/>
<path d="M349.9 266.9C351.778 266.9 353.3 265.378 353.3 263.5C353.3 261.622 351.778 260.1 349.9 260.1C348.022 260.1 346.5 261.622 346.5 263.5C346.5 265.378 348.022 266.9 349.9 266.9Z" fill="#0054A6"/>
<path d="M443.4 139.8L355.9 139.2C354.1 139.2 352.7 137.7 352.7 135.9L353.1 76.1003C353.1 74.0003 354.8 72.3003 356.9 72.3003L443.3 72.9003C445.4 72.9003 447.1 74.6003 447.1 76.7003L446.7 136.5C446.6 138.4 445.1 139.8 443.4 139.8Z" fill="#D2D9DC"/>
<path d="M447 81.2003L353 80.6003V76.1003C353 74.0003 354.7 72.3003 356.8 72.3003L443.2 72.9003C445.3 72.9003 447 74.6003 447 76.7003V81.2003Z" fill="#0054A6"/>
<path d="M399.548 88.224L399.546 88.624L400.246 88.6285L400.248 88.2285L399.548 88.224Z" fill="#9EC0FF"/>
<path d="M358.65 88.2859L358.564 101.286L374.664 101.392L374.75 88.3916L358.65 88.2859Z" fill="#0054A6"/>
<path d="M380.779 88.405L380.693 101.405L396.793 101.511L396.879 88.5107L380.779 88.405Z" fill="#0054A6"/>
<path d="M403.007 88.5234L402.921 101.523L419.021 101.629L419.107 88.6291L403.007 88.5234Z" fill="#0054A6"/>
<path d="M425.136 88.6426L425.051 101.643L441.151 101.748L441.236 88.7483L425.136 88.6426Z" fill="#0054A6"/>
<path d="M358.549 104.277L358.464 117.277L374.564 117.383L374.649 104.383L358.549 104.277Z" fill="#0054A6"/>
<path d="M380.679 104.396L380.594 117.396L396.694 117.502L396.779 104.502L380.679 104.396Z" fill="#0054A6"/>
<path d="M402.907 104.514L402.821 117.514L418.921 117.62L419.007 104.62L402.907 104.514Z" fill="#0054A6"/>
<path d="M425.036 104.634L424.951 117.634L441.051 117.739L441.136 104.739L425.036 104.634Z" fill="#0054A6"/>
<path d="M358.449 120.268L358.363 133.268L374.463 133.374L374.549 120.374L358.449 120.268Z" fill="#0054A6"/>
<path d="M380.578 120.387L380.493 133.387L396.593 133.493L396.678 120.493L380.578 120.387Z" fill="#0054A6"/>
<path d="M402.806 120.505L402.721 133.505L418.821 133.611L418.906 120.611L402.806 120.505Z" fill="#0054A6"/>
<path d="M424.935 120.625L424.85 133.625L440.95 133.73L441.035 120.73L424.935 120.625Z" fill="#0054A6"/>
<path d="M359.8 75.3002C359.8 76.0002 359.3 76.5002 358.6 76.5002C357.9 76.5002 357.4 76.0002 357.4 75.3002V70.9002C357.4 70.2002 357.9 69.7002 358.6 69.7002C359.3 69.7002 359.8 70.2002 359.8 70.9002V75.3002Z" fill="#839299"/>
<path d="M367.3 75.4003C367.3 76.1003 366.8 76.6003 366.1 76.6003C365.4 76.6003 364.9 76.1003 364.9 75.4003V71.0003C364.9 70.3003 365.4 69.8003 366.1 69.8003C366.8 69.8003 367.3 70.3003 367.3 71.0003V75.4003Z" fill="#839299"/>
<path d="M374.8 75.4003C374.8 76.1003 374.3 76.6003 373.6 76.6003C372.9 76.6003 372.4 76.1003 372.4 75.4003V71.0003C372.4 70.3003 372.9 69.8003 373.6 69.8003C374.3 69.8003 374.8 70.3003 374.8 71.0003V75.4003Z" fill="#839299"/>
<path d="M382.3 75.5001C382.3 76.2001 381.8 76.7001 381.1 76.7001C380.4 76.7001 379.9 76.2001 379.9 75.5001V71.1001C379.9 70.4001 380.4 69.9001 381.1 69.9001C381.8 69.9001 382.3 70.4001 382.3 71.1001V75.5001Z" fill="#839299"/>
<path d="M389.8 75.5001C389.8 76.2001 389.3 76.7001 388.6 76.7001C387.9 76.7001 387.4 76.2001 387.4 75.5001V71.1001C387.4 70.4001 387.9 69.9001 388.6 69.9001C389.3 69.9001 389.8 70.4001 389.8 71.1001V75.5001Z" fill="#839299"/>
<path d="M397.3 75.6002C397.3 76.3002 396.8 76.8002 396.1 76.8002C395.4 76.8002 394.9 76.3002 394.9 75.6002V71.2002C394.9 70.5002 395.4 70.0002 396.1 70.0002C396.8 70.0002 397.3 70.5002 397.3 71.2002V75.6002Z" fill="#839299"/>
<path d="M405.501 75.6002C405.501 76.3002 405.001 76.8002 404.301 76.8002C403.601 76.8002 403.101 76.3002 403.101 75.6002V71.2002C403.101 70.5002 403.601 70.0002 404.301 70.0002C405.001 70.0002 405.501 70.5002 405.501 71.2002V75.6002Z" fill="#839299"/>
<path d="M413.001 75.6002C413.001 76.3002 412.501 76.8002 411.801 76.8002C411.101 76.8002 410.601 76.3002 410.601 75.6002V71.2002C410.601 70.5002 411.101 70.0002 411.801 70.0002C412.501 70.0002 413.001 70.5002 413.001 71.2002V75.6002Z" fill="#839299"/>
<path d="M420.501 75.7003C420.501 76.4003 420.001 76.9003 419.301 76.9003C418.601 76.9003 418.101 76.4003 418.101 75.7003V71.3003C418.101 70.6003 418.601 70.1003 419.301 70.1003C420.001 70.1003 420.501 70.6003 420.501 71.3003V75.7003Z" fill="#839299"/>
<path d="M428.001 75.7003C428.001 76.4003 427.501 76.9003 426.801 76.9003C426.101 76.9003 425.601 76.4003 425.601 75.7003V71.3003C425.601 70.6003 426.101 70.1003 426.801 70.1003C427.501 70.1003 428.001 70.6003 428.001 71.3003V75.7003Z" fill="#839299"/>
<path d="M435.501 75.8002C435.501 76.5002 435.001 77.0002 434.301 77.0002C433.601 77.0002 433.101 76.5002 433.101 75.8002V71.4002C433.101 70.7002 433.601 70.2002 434.301 70.2002C435.001 70.2002 435.501 70.7002 435.501 71.4002V75.8002Z" fill="#839299"/>
<path d="M443.001 75.8002C443.001 76.5002 442.501 77.0002 441.801 77.0002C441.101 77.0002 440.601 76.5002 440.601 75.8002V71.4002C440.601 70.7002 441.101 70.2002 441.801 70.2002C442.501 70.2002 443.001 70.7002 443.001 71.4002V75.8002Z" fill="#839299"/>
<path d="M245.6 238.9H175C173.7 238.9 172.6 237.8 172.6 236.5V189.8C172.6 188.5 173.7 187.4 175 187.4H245.6C246.9 187.4 248 188.5 248 189.8V236.5C247.9 237.8 246.9 238.9 245.6 238.9Z" fill="#D2D9DC"/>
<path d="M247.9 193.6H172.6V189.9C172.6 188.6 173.7 187.5 175 187.5H245.6C246.9 187.5 248 188.6 248 189.9V193.6H247.9Z" fill="#0054A6"/>
<path d="M180.9 190.6C180.9 191.6 180.1 192.4 179.1 192.4C178.1 192.4 177.3 191.6 177.3 190.6C177.3 189.6 178.1 188.8 179.1 188.8C180.1 188.8 180.9 189.6 180.9 190.6Z" fill="#ED1C24"/>
<path d="M186.8 190.6C186.8 191.6 186 192.4 185 192.4C184 192.4 183.2 191.6 183.2 190.6C183.2 189.6 184 188.8 185 188.8C186 188.8 186.8 189.6 186.8 190.6Z" fill="#FFDD33"/>
<path d="M192.9 190.6C192.9 191.6 192.1 192.4 191.1 192.4C190.1 192.4 189.3 191.6 189.3 190.6C189.3 189.6 190.1 188.8 191.1 188.8C192.1 188.8 192.9 189.6 192.9 190.6Z" fill="#54CC5A"/>
<path d="M237.8 196.3H226.3V234.3H237.8V196.3Z" fill="#54CC5A"/>
<path d="M223.3 206.2H211.8V234.3H223.3V206.2Z" fill="#54CC5A"/>
<path d="M208.8 216.5H197.3V234.2H208.8V216.5Z" fill="#FFDD33"/>
<path d="M194.3 225.2H182.8V234.3H194.3V225.2Z" fill="#FFDD33"/>
<path d="M240.5 234.1H180.1V234.5H240.5V234.1Z" fill="#839299"/>
<path d="M434.5 240.3C435.8 249.9 429.2 258.8 419.5 260.1C409.9 261.4 401 254.8 399.7 245.1C398.4 235.5 405 226.6 414.7 225.3C424.2 224 433.1 230.6 434.5 240.3Z" fill="#54CC5A"/>
<path d="M417.1 256.1C410.5 256.1 404.8 251.3 403.9 244.6C402.9 237.3 408 230.5 415.3 229.5C418.8 229 422.4 229.9 425.2 232.1C428.1 234.2 429.9 237.4 430.4 240.9C430.9 244.4 430 248 427.8 250.8C425.7 253.7 422.5 255.5 419 256C418.3 256 417.7 256.1 417.1 256.1ZM417.1 229.7C416.5 229.7 415.9 229.7 415.3 229.8C408.2 230.8 403.3 237.4 404.2 244.5C405.2 251.6 411.8 256.5 418.9 255.6C422.3 255.1 425.4 253.3 427.5 250.6C429.6 247.8 430.5 244.4 430 241C429.5 237.6 427.7 234.5 425 232.4C422.6 230.6 419.9 229.7 417.1 229.7Z" fill="#F9FAFB"/>
<path d="M416.5 241.9L425.4 263L427.9 253.2L437.7 250.4L416.5 241.9Z" fill="#D2D9DC"/>
<path d="M417.3 161V212.8C417.3 214.6 415.8 216.1 414 216.1H328.6C326.8 216.1 325.3 214.6 325.3 212.8V161C325.3 160.2 325.6 159.4 326.1 158.8C326.3 158.5 326.6 158.3 326.9 158.1C327.4 157.8 328 157.6 328.6 157.6H414C414.6 157.6 415.2 157.8 415.7 158.1C416 158.3 416.3 158.5 416.5 158.8C417 159.5 417.3 160.2 417.3 161Z" fill="#FFDD33"/>
<path opacity="0.19" d="M416.5 158.9L372.4 190.2L326 158.9C326.2 158.6 326.5 158.4 326.8 158.2L372.3 189L415.6 158.2C416 158.4 416.3 158.6 416.5 158.9Z" fill="#2D2F31"/>
<path d="M152.4 262H53.4C51.5 262 50 260.5 50 258.6V192.2C50 190.3 51.5 188.8 53.4 188.8H152.3C154.2 188.8 155.7 190.3 155.7 192.2V258.6C155.8 260.4 154.3 262 152.4 262Z" fill="#D2D9DC"/>
<path d="M155.8 198.9H50V192.2C50 190.3 51.5 188.8 53.4 188.8H152.3C154.2 188.8 155.7 190.3 155.7 192.2V198.9H155.8Z" fill="#0054A6"/>
<path d="M62.2999 193.8C62.2999 195.3 61.0999 196.5 59.5999 196.5C58.0999 196.5 56.8999 195.3 56.8999 193.8C56.8999 192.3 58.0999 191.1 59.5999 191.1C61.0999 191.2 62.2999 192.3 62.2999 193.8Z" fill="#ED1C24"/>
<path d="M70.7999 193.8C70.7999 195.3 69.5999 196.5 68.0999 196.5C66.5999 196.5 65.3999 195.3 65.3999 193.8C65.3999 192.3 66.5999 191.1 68.0999 191.1C69.5999 191.2 70.7999 192.3 70.7999 193.8Z" fill="#FFDD33"/>
<path d="M79.6002 193.8C79.6002 195.3 78.4002 196.5 76.9002 196.5C75.4002 196.5 74.2002 195.3 74.2002 193.8C74.2002 192.3 75.4002 191.1 76.9002 191.1C78.4002 191.2 79.6002 192.3 79.6002 193.8Z" fill="#54CC5A"/>
<path d="M80.5999 224.3C83.5999 223.3 85.7999 220.4 85.7999 216.8C85.7999 212.5 82.5999 209 78.5999 209C74.5999 209 71.2999 212.5 71.2999 216.8C71.2999 220.3 73.4999 223.3 76.3999 224.3C67.8999 225.3 61.3999 232 61.3999 240.2V250.9L95.5999 251V240.3C95.5999 232 89.0999 225.3 80.5999 224.3Z" fill="#839299"/>
<path d="M129.1 224.3C132.1 223.3 134.3 220.4 134.3 216.8C134.3 212.5 131.1 209 127.1 209C123.1 209 119.8 212.5 119.8 216.8C119.8 220.3 122 223.3 124.9 224.3C116.4 225.3 109.9 232 109.9 240.2V250.9L144.1 251V240.3C144.1 232.1 137.6 225.3 129.1 224.3Z" fill="#839299"/>
<path d="M105 225.1C108.2 224.1 110.6 220.8 110.6 217C110.6 212.3 107.1 208.5 102.8 208.5C98.5002 208.5 94.9002 212.3 94.9002 216.9C94.9002 220.7 97.2002 224 100.5 225C91.4002 226 84.3002 233.3 84.2002 242.2V253.8L121.2 253.9V242.3C121.3 233.4 114.2 226.1 105 225.1Z" fill="#F9FAFB"/>
<path d="M212.6 149.7H82.7002C80.2002 149.7 78.2002 147.7 78.2002 145.2V58.1001C78.2002 55.6001 80.2002 53.6001 82.7002 53.6001H212.5C215 53.6001 217 55.6001 217 58.1001V145.2C217.1 147.7 215.1 149.7 212.6 149.7Z" fill="#D2D9DC"/>
<path d="M217.1 66.9001H78.2002V58.1001C78.2002 55.6001 80.2002 53.6001 82.7002 53.6001H212.6C215.1 53.6001 217.1 55.6001 217.1 58.1001V66.9001Z" fill="#0054A6"/>
<path d="M94.3003 60.3C94.3003 62.2 92.7003 63.8 90.8003 63.8C88.9003 63.8 87.3003 62.2 87.3003 60.3C87.3003 58.4 88.9003 56.8 90.8003 56.8C92.7003 56.8 94.3003 58.3 94.3003 60.3Z" fill="#ED1C24"/>
<path d="M105.5 60.3C105.5 62.2 103.9 63.8 102 63.8C100.1 63.8 98.5 62.2 98.5 60.3C98.5 58.4 100.1 56.8 102 56.8C103.9 56.8 105.5 58.3 105.5 60.3Z" fill="#FFDD33"/>
<path d="M117 60.3C117 62.2 115.4 63.8 113.5 63.8C111.6 63.8 110 62.2 110 60.3C110 58.4 111.6 56.8 113.5 56.8C115.5 56.8 117 58.3 117 60.3Z" fill="#54CC5A"/>
<path d="M131.294 75.3537L115.368 102.761L122.112 106.68L138.038 79.2724L131.294 75.3537Z" fill="#FFDD33"/>
<path opacity="0.19" d="M134.655 77.2751L118.735 104.689L122.108 106.648L138.027 79.2336L134.655 77.2751Z" fill="#2D2F31"/>
<path d="M164.006 75.2829L157.262 79.2024L173.191 106.61L179.935 102.691L164.006 75.2829Z" fill="#FFDD33"/>
<path opacity="0.19" d="M160.678 77.241L157.305 79.2L173.228 106.611L176.6 104.652L160.678 77.241Z" fill="#2D2F31"/>
<path d="M185.9 95.8H109.1V109.5H185.9V95.8Z" fill="#FFDD33"/>
<path opacity="0.19" d="M185.9 106.4H109.1V109.4H185.9V106.4Z" fill="#2D2F31"/>
<path d="M115.4 109.5L121.1 142.5H174.6L179.9 109.5H115.4Z" fill="#FFDD33"/>
<g opacity="0.19">
<path d="M133.7 114.2H129.6V135.1H133.7V114.2Z" fill="#2D2F31"/>
<path d="M144.4 114.2H140.3V135.1H144.4V114.2Z" fill="#2D2F31"/>
<path d="M155 114.2H150.9V135.1H155V114.2Z" fill="#2D2F31"/>
<path d="M165.7 114.2H161.6V135.1H165.7V114.2Z" fill="#2D2F31"/>
</g>
<path d="M123.4 101.3C123.4 102.2 122.7 103 121.7 103C120.8 103 120 102.3 120 101.3C120 100.4 120.7 99.6001 121.7 99.6001C122.7 99.7001 123.4 100.4 123.4 101.3Z" fill="#F9FAFB"/>
<path d="M175.2 101.3C175.2 102.2 174.5 103 173.5 103C172.6 103 171.8 102.3 171.8 101.3C171.8 100.4 172.5 99.6001 173.5 99.6001C174.4 99.7001 175.2 100.4 175.2 101.3Z" fill="#F9FAFB"/>
<path d="M312.9 230.4C314 232.5 313.2 235 311.1 236.1C309 237.2 306.5 236.4 305.4 234.3L276 178.5C274.9 176.4 275.7 173.9 277.8 172.8C279.9 171.7 282.4 172.5 283.5 174.6L312.9 230.4Z" fill="#002548"/>
<path d="M278.1 189.6L302.8 236.5C304.8 240.2 309.3 241.6 313.1 239.7C316.8 237.7 318.2 233.2 316.3 229.4L291.6 182.5L278.1 189.6Z" fill="#0054A6"/>
<path d="M295.3 142.4C303.3 156.1 298.6 173.7 284.8 181.7C271.1 189.7 253.5 185 245.5 171.2C237.5 157.5 242.2 139.9 256 131.9C269.8 123.9 287.4 128.6 295.3 142.4Z" fill="#839299"/>
<path d="M291.6 144.4C298.4 156.1 294.4 171.1 282.7 177.9C271 184.7 256 180.7 249.2 169C242.4 157.3 246.4 142.3 258.1 135.5C269.8 128.7 284.8 132.7 291.6 144.4Z" fill="#D2D9DC"/>
<path d="M258.2 157.5L259.3 157.8C260 158 260.5 158.5 260.5 159.2C260.5 159.7 260.6 160.2 260.7 160.7C260.8 161.4 260.5 162 259.9 162.4L259 162.9C258.3 163.3 258.1 164.2 258.5 164.9L260.3 167.9C260.7 168.6 261.6 168.8 262.3 168.4L263.2 167.9C263.8 167.6 264.6 167.6 265.1 168.1C265.5 168.4 265.9 168.7 266.4 169C267 169.4 267.2 170.1 267.1 170.7L266.8 171.7C266.6 172.5 267.1 173.3 267.9 173.5L271.3 174.4C272.1 174.6 272.9 174.1 273.1 173.4L273.4 172.4C273.6 171.7 274.2 171.3 274.8 171.2C275.3 171.2 275.8 171.1 276.4 171C277.1 170.9 277.8 171.2 278.1 171.8L278.7 172.7C279.1 173.4 280 173.6 280.7 173.2L283.7 171.5C284.4 171.1 284.6 170.2 284.2 169.5L283.6 168.6C283.2 168 283.3 167.3 283.8 166.8C284.1 166.4 284.5 166 284.7 165.6C285.1 165 285.8 164.8 286.5 164.9L287.6 165.2C288.4 165.4 289.2 164.9 289.4 164.2L290.3 160.9C290.5 160.1 290 159.3 289.2 159.1L288.1 158.8C287.4 158.6 286.9 158.1 286.9 157.4C286.9 156.9 286.8 156.4 286.7 155.9C286.6 155.2 286.9 154.6 287.5 154.2L288.4 153.7C289.1 153.3 289.3 152.4 288.9 151.7L287.1 148.7C286.7 148 285.8 147.8 285.1 148.2L284.2 148.7C283.6 149 282.8 149 282.3 148.5C281.9 148.2 281.5 147.9 281 147.6C280.4 147.2 280.1 146.5 280.3 145.9L280.6 144.9C280.8 144.1 280.3 143.3 279.5 143.1L276.1 142.2C275.3 142 274.5 142.5 274.3 143.2L274 144.2C273.8 144.9 273.2 145.3 272.6 145.4C272.1 145.4 271.6 145.5 271 145.6C270.3 145.7 269.6 145.4 269.3 144.8L268.7 143.9C268.3 143.2 267.4 143 266.7 143.4L263.7 145.1C263 145.5 262.8 146.4 263.2 147.1L263.8 148C264.2 148.6 264.1 149.3 263.6 149.8C263.3 150.2 262.9 150.6 262.7 151C262.3 151.6 261.6 151.8 260.9 151.7L259.8 151.4C259 151.2 258.2 151.7 258 152.4L257.1 155.7C257 156.5 257.5 157.3 258.2 157.5ZM265.8 156.8C266.6 152 271.6 149.2 276.3 150.8C280 152 282.2 155.8 281.6 159.5C280.8 164.3 275.8 167.1 271.1 165.5C267.4 164.3 265.2 160.5 265.8 156.8Z" fill="#839299"/>
<path d="M249.9 153L250.6 153.2C251.1 153.3 251.4 153.7 251.4 154.2C251.4 154.6 251.5 154.9 251.6 155.3C251.7 155.8 251.5 156.2 251.1 156.5L250.4 156.9C249.9 157.2 249.8 157.8 250 158.3L251.2 160.4C251.5 160.9 252.1 161 252.6 160.8L253.3 160.4C253.7 160.2 254.2 160.2 254.6 160.5C254.9 160.7 255.2 160.9 255.5 161.1C255.9 161.4 256.1 161.8 256 162.3L255.8 163C255.7 163.5 256 164.1 256.5 164.2L258.9 164.8C259.4 164.9 260 164.6 260.1 164.1L260.3 163.4C260.4 162.9 260.8 162.6 261.3 162.6C261.7 162.6 262 162.5 262.4 162.5C262.9 162.4 263.4 162.6 263.6 163L264 163.6C264.3 164.1 264.9 164.2 265.4 164L267.5 162.8C268 162.5 268.1 161.9 267.9 161.4L267.5 160.8C267.3 160.4 267.3 159.9 267.6 159.5C267.8 159.2 268.1 158.9 268.3 158.6C268.6 158.2 269.1 158 269.5 158.1L270.2 158.3C270.7 158.4 271.3 158.1 271.4 157.6L272 155.3C272.1 154.8 271.8 154.2 271.3 154.1L270.6 153.9C270.1 153.8 269.8 153.4 269.8 152.9C269.8 152.5 269.7 152.2 269.6 151.8C269.5 151.3 269.7 150.9 270.1 150.6L270.8 150.2C271.3 149.9 271.4 149.3 271.2 148.8L270 146.7C269.7 146.2 269.1 146.1 268.6 146.3L267.9 146.7C267.5 146.9 267 146.9 266.6 146.6C266.3 146.4 266 146.2 265.7 146C265.3 145.7 265.1 145.3 265.2 144.8L265.4 144.1C265.5 143.6 265.2 143 264.7 142.9L262.3 142.3C261.8 142.2 261.2 142.5 261.1 143L260.9 143.7C260.8 144.2 260.4 144.5 259.9 144.5C259.5 144.5 259.2 144.6 258.8 144.6C258.3 144.7 257.8 144.5 257.6 144.1L257.2 143.5C256.9 143 256.3 142.9 255.8 143.1L253.7 144.3C253.2 144.6 253.1 145.2 253.3 145.7L253.7 146.3C253.9 146.7 253.9 147.2 253.6 147.6C253.4 147.9 253.1 148.2 252.9 148.4C252.6 148.8 252.1 149 251.7 148.9L251 148.7C250.5 148.6 249.9 148.9 249.8 149.4L249.2 151.7C249 152.3 249.3 152.8 249.9 153ZM255.1 152.5C255.7 149.2 259.1 147.2 262.4 148.3C265 149.2 266.5 151.8 266.1 154.4C265.5 157.7 262.1 159.7 258.8 158.6C256.2 157.7 254.7 155.1 255.1 152.5Z" fill="#5F737C"/>
</svg>
