<svg width="452" height="376" viewBox="0 0 452 376" fill="none" xmlns="http://www.w3.org/2000/svg">
<path d="M163.1 346H157.5L196.5 189.6H210.4L163.1 346Z" fill="#002548"/>
<path d="M222.099 345.9H216.499L215.699 189.6H229.599L222.099 345.9Z" fill="#002548"/>
<path d="M271.4 346H277L246.2 189.6H232.4L271.4 346Z" fill="#002548"/>
<path d="M260 279H179V282.1H260V279Z" fill="#002548"/>
<path d="M310.9 36.5H123.5V207.6H310.9V36.5Z" fill="#D2D9DC"/>
<path d="M319 30H115.4V42.1H319V30Z" fill="#002548"/>
<path d="M132 134.2L131.9 109.3L156.4 108.8L156.2 134L132 134.2Z" fill="#F15657"/>
<path d="M132 134.2L131.9 109.3L156.4 108.8L156.2 134L132 134.2Z" fill="#ED1C24"/>
<path opacity="0.19" d="M150.1 108.1L157.9 114V113.1L158.6 113.3L158.4 112.8L159.2 112.7L158.9 111.6H159.7L153.8 106.5V107.3L152.7 107L152.9 107.5L150.7 107.2L151.2 107.9L150.1 108.1Z" fill="#2D2F31"/>
<path d="M133.7 173.7L133.5 148.8L158 148.3L157.9 173.5L133.7 173.7Z" fill="#F9FAFB"/>
<path d="M134.899 94.9999L134.799 70.0999L159.299 69.5999L159.099 94.7999L134.899 94.9999Z" fill="#F9FAFB"/>
<path opacity="0.19" d="M133.299 76.8L140.199 69.8L139.299 69.7L139.499 68.9L138.999 69.1V68.3L137.899 68.4L137.999 67.7L132.299 73H133.099L132.599 74.1L133.099 74L132.499 76.1L133.299 75.7V76.8Z" fill="#2D2F31"/>
<path d="M187.099 118.7L207.799 118.8L207.499 98.3999C207.499 98.4999 186.399 97.4999 187.099 118.7Z" fill="#F15657"/>
<path d="M187.099 118.7L207.799 118.8L207.499 98.3999C207.499 98.4999 186.399 97.4999 187.099 118.7Z" fill="#002548"/>
<path d="M190.7 121.3L209.3 121.2L209.9 101.6C209.9 101.6 230.3 105.1 228.1 122.3C226.6 133.9 217.7 138.4 211.3 139C206.7 139.4 202.1 139.3 198.2 136.9C194.3 134.4 190.4 129.8 190.7 121.3Z" fill="#0054A6"/>
<path d="M204.799 87.9V59.0999L285.599 58.7L284.499 87.5L204.799 87.9Z" fill="#0054A6"/>
<path d="M217.6 62.7L281.7 62.9V64.1999H217.6V62.7Z" fill="#D2D9DC"/>
<path d="M217.6 69.1001L281.7 69.3001V70.6001H217.6V69.1001Z" fill="#D2D9DC"/>
<path d="M217.6 75.5L281.7 75.7V77H217.6V75.5Z" fill="#D2D9DC"/>
<path d="M217.6 81.8999L244.2 82.0999V83.3999L217.6 83.2999V81.8999Z" fill="#D2D9DC"/>
<path d="M183.4 176.3L200.3 155.1L215.2 165.2L236 145.8L249.4 166.3L290 111.8C290 111.8 291.6 113.4 291.6 112.9C291.6 112.4 249.9 169.3 249.9 169.3L235.6 149.5L216.6 168.3L200.3 157.8L185.1 177L183.4 176.3Z" fill="#54CC5A"/>
<path d="M169.099 184.9L307.799 184.4L307.599 181.2L173.899 180.5L170.799 66.2L168.199 65.5L169.099 184.9Z" fill="#002548"/>
<path d="M200.8 154.8C203.1 155.6 202.5 160 199.4 159.1C196.5 158.3 197.1 153.6 200.8 154.8Z" fill="#0054A6"/>
<path d="M236.599 145.1C238.899 145.9 238.299 150.3 235.199 149.4C232.299 148.6 232.899 143.8 236.599 145.1Z" fill="#0054A6"/>
<path d="M291.4 110.3C293.7 111.1 293.1 115.5 290 114.6C287.1 113.8 287.7 109 291.4 110.3Z" fill="#0054A6"/>
<path d="M250.999 165.3C253.299 166.1 252.699 170.5 249.599 169.6C246.699 168.8 247.199 164 250.999 165.3Z" fill="#0054A6"/>
<path d="M216.4 163.9C218.7 164.7 218.1 169.1 215 168.2C212.1 167.5 212.7 162.7 216.4 163.9Z" fill="#0054A6"/>
<path d="M73.7997 135.8C76.7997 133.2 119.5 131.7 122.6 138.2C125.7 144.7 125.9 165.3 121.3 167.6C116.8 169.9 99.6997 170 99.6997 170L85.6997 179.6L89.1997 168.8C89.1997 168.8 79.5997 170.5 75.5997 166.5C71.5997 162.4 68.8997 140.2 73.7997 135.8Z" fill="#0054A6"/>
<path d="M88.9998 148.3C90.9998 149 90.4998 152.8 87.7998 152.1C85.2998 151.4 85.7998 147.2 88.9998 148.3Z" fill="#D2D9DC"/>
<path opacity="0.54" d="M88.9998 148.3C90.9998 149 90.4998 152.8 87.7998 152.1C85.2998 151.4 85.7998 147.2 88.9998 148.3Z" fill="#D2D9DC"/>
<path d="M98.4001 148.3C100.4 149 99.9001 152.8 97.2001 152.1C94.7001 151.4 95.2001 147.2 98.4001 148.3Z" fill="#D2D9DC"/>
<path opacity="0.54" d="M98.4001 148.3C100.4 149 99.9001 152.8 97.2001 152.1C94.7001 151.4 95.2001 147.2 98.4001 148.3Z" fill="#D2D9DC"/>
<path d="M107.801 148.3C109.801 149 109.301 152.8 106.601 152.1C104.101 151.4 104.601 147.2 107.801 148.3Z" fill="#D2D9DC"/>
<path opacity="0.54" d="M107.801 148.3C109.801 149 109.301 152.8 106.601 152.1C104.101 151.4 104.601 147.2 107.801 148.3Z" fill="#D2D9DC"/>
<path d="M287.6 194.6C291.3 189.1 332.5 190.7 334.6 194.6C336.7 198.5 336.6 221.9 334 223.7C331.4 225.5 321.5 226.3 321.5 226.3L325.7 235.1L310.6 226.5C310.6 226.5 292.7 227.9 288.7 224C284.6 220.1 285.2 198.1 287.6 194.6Z" fill="#0054A6"/>
<path d="M301.999 205.5C303.999 206.2 303.499 210 300.799 209.3C298.199 208.6 298.799 204.5 301.999 205.5Z" fill="#D2D9DC"/>
<path opacity="0.54" d="M301.999 205.5C303.999 206.2 303.499 210 300.799 209.3C298.199 208.6 298.799 204.5 301.999 205.5Z" fill="#D2D9DC"/>
<path d="M311.399 205.5C313.399 206.2 312.899 210 310.199 209.3C307.599 208.6 308.099 204.5 311.399 205.5Z" fill="#D2D9DC"/>
<path opacity="0.54" d="M311.399 205.5C313.399 206.2 312.899 210 310.199 209.3C307.599 208.6 308.099 204.5 311.399 205.5Z" fill="#D2D9DC"/>
<path d="M320.8 205.5C322.8 206.2 322.3 210 319.6 209.3C317 208.6 317.5 204.5 320.8 205.5Z" fill="#D2D9DC"/>
<path opacity="0.54" d="M320.8 205.5C322.8 206.2 322.3 210 319.6 209.3C317 208.6 317.5 204.5 320.8 205.5Z" fill="#D2D9DC"/>
<path d="M332.399 117.1C336.099 111.6 377.299 113.2 379.399 117.1C381.499 121 381.399 144.4 378.799 146.2C376.199 148 366.299 148.8 366.299 148.8L370.499 157.6L355.399 149C355.399 149 337.499 150.4 333.499 146.5C329.399 142.6 329.999 120.6 332.399 117.1Z" fill="#0054A6"/>
<path d="M346.099 127.9C348.099 128.6 347.599 132.4 344.899 131.7C342.399 131 342.899 126.8 346.099 127.9Z" fill="#D2D9DC"/>
<path opacity="0.54" d="M346.099 127.9C348.099 128.6 347.599 132.4 344.899 131.7C342.399 131 342.899 126.8 346.099 127.9Z" fill="#D2D9DC"/>
<path d="M355.5 127.9C357.5 128.6 357 132.4 354.3 131.7C351.8 131 352.3 126.8 355.5 127.9Z" fill="#D2D9DC"/>
<path opacity="0.54" d="M355.5 127.9C357.5 128.6 357 132.4 354.3 131.7C351.8 131 352.3 126.8 355.5 127.9Z" fill="#D2D9DC"/>
<path d="M364.899 127.9C366.899 128.6 366.399 132.4 363.699 131.7C361.099 131 361.699 126.8 364.899 127.9Z" fill="#D2D9DC"/>
<path opacity="0.54" d="M364.899 127.9C366.899 128.6 366.399 132.4 363.699 131.7C361.099 131 361.699 126.8 364.899 127.9Z" fill="#D2D9DC"/>
</svg>
