<svg width="40" height="40" viewBox="0 0 40 40" fill="none" xmlns="http://www.w3.org/2000/svg">
<g clip-path="url(#clip0_11903_51016)">
<path fill-rule="evenodd" clip-rule="evenodd" d="M28.597 33.7002L16.497 33.9002L13.797 38.5002C13.697 38.7002 13.797 38.9002 13.997 38.9002H31.097C31.297 38.9002 31.497 38.7002 31.297 38.5002L28.597 33.7002Z" fill="#002548"/>
<path fill-rule="evenodd" clip-rule="evenodd" d="M38.2031 9.2002C39.2031 9.2002 40.0031 10.0002 40.0031 11.0002V32.2002C40.0031 33.2002 39.2031 34.0002 38.2031 34.0002H7.00313C6.00313 34.0002 5.20312 33.2002 5.20312 32.2002V11.0002C5.20312 10.0002 6.00313 9.2002 7.00313 9.2002H38.2031Z" fill="#D2D9DC"/>
<path fill-rule="evenodd" clip-rule="evenodd" d="M40.0031 31.6001H5.20312V32.8001C5.20312 33.8001 6.00313 34.6001 7.00313 34.6001H38.1031C39.1031 34.6001 39.9031 33.8001 39.9031 32.8001V31.6001H40.0031Z" fill="#002548"/>
<path fill-rule="evenodd" clip-rule="evenodd" d="M23.7016 11.9002C23.3016 11.9002 23.1016 11.6002 23.1016 11.3002C23.1016 10.9002 23.4016 10.7002 23.7016 10.7002H32.3016C32.7016 10.7002 32.9016 11.0002 32.9016 11.3002C32.9016 11.7002 32.6016 11.9002 32.3016 11.9002H23.7016ZM23.7016 14.3002C23.3016 14.3002 23.1016 14.0002 23.1016 13.7002C23.1016 13.3002 23.4016 13.1002 23.7016 13.1002H32.3016C32.7016 13.1002 32.9016 13.4002 32.9016 13.7002C32.9016 14.1002 32.6016 14.3002 32.3016 14.3002H23.7016Z" fill="#839299"/>
<path fill-rule="evenodd" clip-rule="evenodd" d="M10.7984 28.6C11.0984 28.9 11.0984 29.3 10.7984 29.5C10.4984 29.8 10.0984 29.8 9.89844 29.5L7.99844 27.6C7.69844 27.3 7.69844 26.9 7.99844 26.7L9.89844 24.8C10.1984 24.5 10.5984 24.5 10.7984 24.8C11.0984 25.1 11.0984 25.5 10.7984 25.7L9.29844 27.2L10.7984 28.6ZM12.6984 29.8C12.5984 30.1 12.2984 30.3 11.8984 30.3C11.5984 30.2 11.3984 29.9 11.3984 29.5L12.7984 24.5C12.8984 24.2 13.1984 24 13.5984 24C13.8984 24.1 14.0984 24.4 14.0984 24.8L12.6984 29.8ZM15.5984 29.5C15.2984 29.8 14.8984 29.8 14.6984 29.5C14.3984 29.2 14.3984 28.8 14.6984 28.6L16.1984 27.1L14.6984 25.6C14.3984 25.3 14.3984 24.9 14.6984 24.7C14.9984 24.4 15.3984 24.4 15.5984 24.7L17.4984 26.6C17.7984 26.9 17.7984 27.3 17.4984 27.5L15.5984 29.5Z" fill="#54CC5A"/>
<path fill-rule="evenodd" clip-rule="evenodd" d="M15.2 20.6001C15.5 20.4001 15.9 20.6001 16.1 20.9001C16.3 21.2001 16.1 21.6001 15.8 21.8001C15.1 22.2001 14.3 22.5001 13.5 22.6001C12.7 22.8001 11.9 22.9001 11 22.9001C9.6 22.9001 8.2 22.6001 6.9 22.1001C5.9 21.7001 5 21.2001 4.2 20.5001V21.0001C4.2 21.4001 4 21.7001 3.6 21.7001C3.2 21.7001 2.9 21.5001 2.9 21.1001L2.7 19.0001C2.7 18.6001 2.9 18.3001 3.3 18.3001H3.4L5.5 18.5001C5.9 18.5001 6.1 18.8001 6.1 19.2001C6.1 19.6001 5.8 19.8001 5.4 19.8001H5.2C5.9 20.3001 6.6 20.7001 7.4 21.0001C8.5 21.4001 9.7 21.7001 11 21.7001C11.8 21.7001 12.5 21.6001 13.2 21.4001C13.8 21.2001 14.5 21.0001 15.2 20.6001ZM19.9 18.8001C20.3 18.8001 20.6 19.0001 20.6 19.4001C20.6 19.8001 20.4 20.1001 20 20.1001L17.9 20.3001C17.5 20.3001 17.2 20.1001 17.2 19.7001V19.6001L17.4 17.5001C17.4 17.1001 17.7 16.9001 18.1 16.9001C18.5 16.9001 18.7 17.2001 18.7 17.6001V17.8001C19.2 17.1001 19.6 16.4001 19.9 15.6001C20.3 14.5001 20.6 13.3001 20.6 12.0001C20.6 11.2001 20.5 10.5001 20.3 9.8001C20.1 9.1001 19.9 8.4001 19.6 7.7001C19.4 7.4001 19.6 7.0001 19.9 6.8001C20.2 6.6001 20.6 6.8001 20.8 7.1001C21.2 7.8001 21.5 8.6001 21.6 9.4001C21.8 10.2001 21.9 11.0001 21.9 11.9001C21.9 13.3001 21.6 14.7001 21.1 16.0001C20.7 17.0001 20.2 17.9001 19.5 18.7001L19.9 18.8001ZM17.7 3.0001C17.7 2.6001 17.9 2.3001 18.3 2.3001C18.7 2.3001 19 2.5001 19 2.9001L19.1 5.0001C19.1 5.4001 18.9 5.7001 18.5 5.7001H18.4L16.3 5.5001C15.9 5.5001 15.7 5.2001 15.7 4.8001C15.7 4.4001 16 4.2001 16.4 4.2001H16.6C15.9 3.7001 15.2 3.3001 14.4 3.0001C13.3 2.6001 12.1 2.3001 10.8 2.3001C10 2.3001 9.3 2.4001 8.6 2.6001C8 2.8001 7.3 3.0001 6.6 3.4001C6.3 3.6001 5.9 3.4001 5.7 3.1001C5.5 2.8001 5.7 2.4001 6 2.2001C6.7 1.8001 7.5 1.5001 8.3 1.4001C9.1 1.2001 9.9 1.1001 10.8 1.1001C12.2 1.1001 13.6 1.4001 14.9 1.9001C15.9 2.3001 16.8 2.8001 17.6 3.5001L17.7 3.0001ZM1.9 5.2001C1.6 5.2001 1.3 5.0001 1.2 4.6001C1.1 4.2001 1.5 4.0001 1.8 3.9001L3.9 3.7001C4.3 3.7001 4.6 3.9001 4.6 4.3001V4.4001L4.5 6.6001C4.5 7.0001 4.2 7.2001 3.8 7.2001C3.4 7.2001 3.2 6.9001 3.2 6.5001V6.3001C2.7 6.9001 2.3 7.6001 2 8.4001C1.5 9.5001 1.3 10.7001 1.3 12.0001C1.3 12.8001 1.4 13.5001 1.6 14.2001C1.8 14.9001 2 15.6001 2.3 16.3001C2.5 16.6001 2.3 17.0001 2 17.2001C1.7 17.4001 1.3 17.2001 1.1 16.9001C0.7 16.2001 0.4 15.4001 0.3 14.6001C0.1 13.7001 0 12.9001 0 12.0001C0 10.6001 0.3 9.2001 0.8 7.9001C1.2 6.9001 1.7 6.0001 2.4 5.2001H1.9Z" fill="#0054A6"/>
<path fill-rule="evenodd" clip-rule="evenodd" d="M16.7969 10.7999C16.6969 9.9999 16.3969 9.2999 15.9969 8.5999L16.7969 7.7999L15.0969 6.0999L14.2969 6.9999C13.5969 6.5999 12.8969 6.2999 12.0969 6.0999V4.8999H9.69687V6.0999C8.89687 6.1999 8.19688 6.4999 7.59687 6.9999L6.69687 6.0999L4.99688 7.7999L5.79688 8.5999C5.39688 9.2999 5.09688 9.9999 4.99688 10.7999H3.79688V13.1999H4.99688C5.19688 13.9999 5.49688 14.6999 5.89688 15.3999L4.99688 16.1999L6.69687 17.8999L7.59687 16.9999C8.19688 17.3999 8.99687 17.6999 9.79688 17.8999V19.0999H12.1969V17.8999C12.9969 17.6999 13.6969 17.3999 14.3969 16.9999L15.1969 17.8999L16.8969 16.1999L15.9969 15.3999C16.3969 14.6999 16.6969 13.9999 16.8969 13.1999H17.9969V10.7999H16.7969ZM10.8969 15.6999C8.89687 15.6999 7.19687 13.9999 7.19687 11.9999C7.19687 9.9999 8.89687 8.2999 10.8969 8.2999C12.8969 8.2999 14.5969 9.8999 14.5969 11.9999C14.5969 13.9999 12.9969 15.6999 10.8969 15.6999Z" fill="#839299"/>
<path fill-rule="evenodd" clip-rule="evenodd" d="M20.7002 26.2998H23.0002C23.1002 26.2998 23.2002 26.3998 23.2002 26.4998V30.8998C23.2002 30.9998 23.1002 31.0998 23.0002 31.0998H20.7002C20.6002 31.0998 20.5002 30.9998 20.5002 30.8998V26.4998C20.4002 26.3998 20.5002 26.2998 20.7002 26.2998Z" fill="#FFDD33"/>
<path fill-rule="evenodd" clip-rule="evenodd" d="M25.4969 21H27.7969C27.8969 21 27.9969 21.1 27.9969 21.2V30.9C27.9969 31 27.8969 31.1 27.7969 31.1H25.4969C25.3969 31.1 25.2969 31 25.2969 30.9V21.2C25.2969 21.1 25.3969 21 25.4969 21Z" fill="#FFDD33"/>
<path fill-rule="evenodd" clip-rule="evenodd" d="M30.3016 23.2998H32.6016C32.7016 23.2998 32.8016 23.3998 32.8016 23.4998V30.8998C32.8016 30.9998 32.7016 31.0998 32.6016 31.0998H30.3016C30.2016 31.0998 30.1016 30.9998 30.1016 30.8998V23.4998C30.1016 23.3998 30.2016 23.2998 30.3016 23.2998Z" fill="#FFDD33"/>
<path fill-rule="evenodd" clip-rule="evenodd" d="M35.2002 18.7998H37.5002C37.6002 18.7998 37.7002 18.8998 37.7002 18.9998V30.8998C37.7002 30.9998 37.6002 31.0998 37.5002 31.0998H35.2002C35.1002 31.0998 35.0002 30.9998 35.0002 30.8998V18.9998C34.9002 18.8998 35.0002 18.7998 35.2002 18.7998Z" fill="#FFDD33"/>
<path fill-rule="evenodd" clip-rule="evenodd" d="M22.3034 23.4002C22.1035 23.7002 21.7035 23.7002 21.4035 23.5002C21.1035 23.3002 21.1035 22.9002 21.3035 22.6002L26.1035 16.3002C26.3035 16.0002 26.7035 16.0002 27.0035 16.2002L31.4035 19.2002L34.9035 16.0002H34.5035C34.1035 16.0002 33.9035 15.7002 33.9035 15.3002C33.9035 14.9002 34.2034 14.7002 34.6034 14.7002L36.6034 14.8002C37.0034 14.8002 37.2035 15.1002 37.2035 15.5002V15.6002L36.8034 17.6002C36.7034 17.9002 36.4034 18.2002 36.1034 18.1002C35.8034 18.0002 35.5034 17.7002 35.6034 17.4002V17.2002L31.9035 20.6002C31.7035 20.8002 31.4035 20.8002 31.1035 20.7002L26.8035 17.8002L22.3034 23.4002Z" fill="#54CC5A"/>
</g>
<defs>
<clipPath id="clip0_11903_51016">
<rect width="40" height="40" fill="white"/>
</clipPath>
</defs>
</svg>
