<svg width="50" height="50" viewBox="0 0 50 50" fill="none" xmlns="http://www.w3.org/2000/svg">
<path d="M24.9966 46.6217C36.9379 46.6217 46.6182 36.9413 46.6182 25C46.6182 13.0587 36.9379 3.37842 24.9966 3.37842C13.0553 3.37842 3.375 13.0587 3.375 25C3.375 36.9413 13.0553 46.6217 24.9966 46.6217Z" fill="#F3F3F3"/>
<path d="M19.0544 24.3919C18.5814 23.5473 17.9733 23.3446 17.9733 22.7027C17.9733 22.0608 17.7706 20.2027 17.1963 19.5608C17.23 19.527 17.2976 19.4594 17.3314 19.3919C16.926 19.2567 16.5882 18.9189 16.5544 18.3446C16.5544 18.5473 16.3179 18.277 16.1827 18.2432C15.8449 18.1419 14.9665 17.7703 14.0206 17.7365C12.7706 17.6689 11.4192 18.1757 10.5409 19.054C8.68275 20.9121 9.35843 24.3919 10.5409 26.3851C10.9125 27.027 10.8111 27.6689 10.2706 27.9392C10.2706 28.0067 10.1017 28.0743 10.1017 28.1081C10.3044 29.2905 8.68275 29.8986 8.44626 32.0946L8.27734 32.9392H14.5949C14.6287 32.1284 14.9327 31.25 15.5746 30.6419C15.5746 30.6419 15.7773 30.3378 15.7098 29.8649C15.6084 29.3919 16.0138 28.9865 17.1287 28.9865C17.1287 28.9865 18.5138 29.2567 18.2773 28.0405C17.8382 27.0946 18.5814 26.9932 18.0746 26.4865C18.2436 26.3851 18.4125 26.2838 18.2773 26.0473C18.2773 26.0473 18.2098 25.7094 18.3787 25.5743C18.3787 25.5743 19.5611 25.2365 19.0544 24.3919Z" fill="#FDDA7F"/>
<path d="M16.148 16.9257C13.3777 15.6081 9.96555 17.8378 9.0196 19.1554C8.03987 20.473 8.07366 23.3108 8.78312 24.9324C9.35744 26.25 9.99933 27.3649 10.1345 28.1419C11.1142 27.9392 11.452 27.9392 11.6885 27.6351C12.6345 26.3513 11.6547 24.7635 11.9926 23.0405C12.0939 22.5 12.7696 21.8581 13.8169 23.277C14.0534 23.5811 14.2899 23.4459 14.6277 23.3108C14.7628 23.2432 14.898 23.1081 14.898 22.9392C14.9993 21.8243 16.0466 21.6216 15.6074 21.0811C15.3034 20.7432 14.9655 20.1689 15.3034 19.6622C15.7426 19.054 16.8237 19.4257 17.2291 19.5946C17.5669 19.1892 18.4453 18.0067 16.148 16.9257Z" fill="#474F59"/>
<path d="M14.6618 32.0273C11.52 31.5205 9.9659 29.8989 9.66185 29.5273C9.62806 29.4935 9.56049 29.4935 9.52671 29.5273C9.01995 30.2368 6.82401 33.1084 8.34428 33.1084H14.2227C14.8308 33.1084 14.7632 32.5003 14.7632 32.1624C14.797 32.0949 14.7294 32.0273 14.6618 32.0273Z" fill="#F37C5A"/>
<path d="M40.8078 28.8173C39.7605 28.1417 39.4903 26.8579 39.7605 25.6417C39.7605 25.6417 39.7605 25.6079 39.7943 25.5741C39.1524 24.493 39.1524 23.1079 40.3686 22.0268C41.6862 20.8444 39.6254 18.4119 38.5105 18.0403C37.3619 17.6349 35.9092 17.6011 34.693 17.3984C34.2876 17.3308 33.5781 17.466 33.2741 17.3984C33.0713 18.1079 32.8349 18.4457 32.3619 18.7498C31.9903 19.2565 31.5173 20.7092 31.6186 21.3511C31.7538 22.0944 31.3822 22.5673 30.8078 23.0403C30.2335 23.5133 30.7741 23.9187 31.0781 24.0876C31.3822 24.2227 31.2132 24.6619 31.2132 24.6619C30.943 24.7633 31.1457 24.9998 31.2808 25.2362C31.1795 25.3714 31.2132 25.5403 31.3484 25.6079C31.6186 25.7768 31.5173 26.0471 31.5173 26.0471C31.2132 27.2971 32.3957 27.4998 33.2741 27.4998C34.1524 27.4998 34.0849 27.8038 34.0849 27.8038C33.8484 28.9525 34.9295 29.8308 34.9295 29.8308C35.1659 30.3714 35.3011 30.8444 35.3349 31.216C35.3686 31.52 35.3349 31.7903 35.2673 32.0268C35.1997 32.3308 35.4362 32.6349 35.7403 32.6349C39.2538 32.6349 38.0038 32.7025 41.72 32.2633C41.7538 32.2295 42.3957 29.8308 40.8078 28.8173Z" fill="#FDDA7F"/>
<path d="M41.3491 18.378C40.3693 15.5402 35.6058 15.0334 33.1734 16.182C31.1464 17.128 31.9572 18.378 32.3288 18.7496C32.8693 18.5131 34.1193 17.9388 34.6937 18.0402C34.6937 18.0402 34.8626 18.682 34.2545 19.4253C34.1193 19.5942 34.1531 19.7969 34.2883 19.932C34.6937 20.3375 35.4369 21.182 35.268 22.0604H35.9775C35.9775 22.0604 37.9031 20.3375 38.4775 21.7902C38.8829 22.8712 38.7139 24.3239 38.5788 24.9996C38.4775 25.5064 39.0518 25.5739 39.7612 25.7429C39.795 25.6415 39.795 25.6077 39.795 25.6077C39.795 25.6077 42.3288 21.2158 41.3491 18.378Z" fill="#474F59"/>
<path d="M43.0376 31.8914C41.9565 29.2225 40.8754 28.9184 40.47 28.513C40.3687 28.4117 40.2336 28.4117 40.1322 28.513C39.2876 29.2563 37.5646 30.5738 35.4363 31.1819C35.3349 31.2157 35.2673 31.3171 35.2673 31.4184C35.2673 31.7225 35.2336 31.9928 35.1322 32.2292C35.0646 32.4657 35.2336 32.7022 35.47 32.7022H42.4971C42.9025 32.6684 43.1727 32.263 43.0376 31.8914Z" fill="#7DCEDC"/>
<path d="M36.5189 12.5674C29.7621 12.5674 24.2554 18.0741 24.2554 24.8309C24.2554 30.7768 19.4243 35.6079 13.4784 35.6079C7.53241 35.6079 2.70133 30.7768 2.70133 24.8647C2.70133 18.9525 7.53241 14.0876 13.4784 14.0876C14.9648 14.0876 16.4175 14.3917 17.8027 14.9998L17.3973 15.9457C17.2621 16.3174 17.6 16.6552 17.9378 16.5539L20.404 15.7093C20.6405 15.6079 20.7757 15.3376 20.6743 15.1012L19.5594 12.7363C19.3905 12.3985 18.8838 12.3985 18.7486 12.7363L18.377 13.5809C16.823 12.9052 15.2013 12.5674 13.4784 12.5674C6.7216 12.5674 1.21484 18.0741 1.21484 24.8309C1.21484 31.5876 6.7216 37.0944 13.4784 37.0944C20.2351 37.0944 25.7419 31.5876 25.7419 24.8309C25.7419 18.8849 30.573 14.0539 36.5189 14.0539C42.4648 14.0539 47.2959 18.9187 47.2959 24.8647C47.2959 30.8106 42.4648 35.6417 36.5189 35.6417C35.2689 35.6417 34.0527 35.439 32.8703 34.9998L33.2419 34.0876C33.377 33.716 33.0392 33.3782 32.6675 33.5133L30.2351 34.3917C29.9986 34.493 29.8635 34.7633 29.9986 34.9998L31.1473 37.3309C31.3162 37.6687 31.823 37.6687 31.9581 37.2971L32.3297 36.4187C33.6811 36.9255 35.1 37.162 36.5527 37.162C43.3094 37.162 48.8162 31.6552 48.8162 24.8984C48.8162 18.1417 43.2757 12.5674 36.5189 12.5674Z" fill="#474F59"/>
<path d="M27.5665 10.1688L26.7557 10.6079C24.1206 6.5201 19.6949 6.85794 18.0057 7.162C17.9043 7.19578 17.9043 7.33091 18.0057 7.3647C22.4989 7.7701 23.6138 11.1823 23.8503 12.1958L22.9044 12.7025C22.7016 12.8039 22.7354 13.1417 22.9719 13.2093L26.553 14.2904C26.6881 14.3242 26.8571 14.2566 26.8908 14.1215L27.9719 10.5404C28.0057 10.2701 27.7692 10.0674 27.5665 10.1688Z" fill="#F37C5A"/>
<path d="M23.3418 39.2904L24.1526 38.8512C26.7877 42.939 31.2134 42.6012 32.9026 42.2971C33.0039 42.2634 33.0039 42.1282 32.9026 42.0944C28.4093 41.689 27.2945 38.2769 27.058 37.2634L28.0039 36.7566C28.2066 36.6553 28.1728 36.3174 27.9364 36.2498L24.3553 35.1688C24.2201 35.135 24.0512 35.2025 24.0174 35.3377L22.9364 38.9188C22.8688 39.189 23.1391 39.3917 23.3418 39.2904Z" fill="#7DCEDC"/>
</svg>
