<svg width="50" height="50" viewBox="0 0 50 50" fill="none" xmlns="http://www.w3.org/2000/svg">
<path d="M25.0002 2.14795C23.2896 2.14795 21.6214 2.32891 20.0124 2.67012L8.22451 9.0165C3.81172 13.3569 1.07422 19.3953 1.07422 26.0739C1.07422 33.5744 4.52656 40.2677 9.92764 44.6545L27.5297 49.8669C39.5544 48.6032 48.9261 38.4334 48.9261 26.0739C48.9262 12.86 38.2142 2.14795 25.0002 2.14795Z" fill="#1D2E79"/>
<path d="M40.6166 23.7287C40.0402 23.0323 39.8387 22.0993 40.0753 21.2269C40.1886 20.6843 40.6544 19.6459 40.4962 18.059C39.596 9.02783 31.2634 2.59033 21.9506 2.59033C21.2117 2.59033 20.4836 2.63604 19.7682 2.72314C19.6947 2.73955 19.6218 2.75713 19.5486 2.77422V9.99463C19.1528 10.2621 17.309 11.6679 18.3331 14.0119C19.3287 16.2906 20.0311 19.5426 20.14 20.0633C19.8664 20.3849 18.7079 21.9405 20.2997 23.5801V31.415C20.2151 31.6099 19.7898 32.6715 19.9054 34.0644C20.115 36.5905 21.9412 38.1596 23.4362 39.031C26.5047 40.8194 28.2994 42.125 29.2398 42.8783C29.4445 42.7106 29.7272 42.6541 29.9891 42.7454C31.6511 43.2496 32.8024 43.9679 34.7372 43.8815C35.7322 43.8372 36.6415 43.3038 37.2025 42.481C38.3431 40.8082 38.0255 39.2404 38.0795 38.7241C38.0795 37.2369 39.2517 36.6105 39.6529 36.1231C39.9507 35.8353 40.0718 35.4102 39.9705 35.0086L39.8776 34.6402C39.8461 34.515 39.8897 34.3828 39.9896 34.301L41.0997 33.3907C41.198 33.3102 41.2549 33.1897 41.2549 33.0626V31.4689C41.2549 31.3549 41.327 31.2536 41.4348 31.2162C42.1112 30.9816 44.4644 30.0967 44.4644 29.1371C44.4644 28.5158 42.4303 25.9198 40.6166 23.7287Z" fill="#E8F8FC"/>
<path d="M19.6961 10.0743V2.74023C15.2858 3.73857 11.3381 5.9542 8.22461 9.0166C5.63506 12.1179 4.07617 16.1096 4.07617 20.4657C4.07617 25.6657 6.29707 30.3465 9.8417 33.6127C11.1935 34.8583 11.7705 36.7338 11.306 38.5124L9.92773 44.6546C14.0421 47.9962 19.2868 50 25.0003 50C25.8548 50 26.6985 49.9543 27.5299 49.867C27.5426 48.223 27.5502 46.2777 27.552 46.225C27.5843 45.2355 28.0166 45.0239 29.0626 43.0865C29.138 42.958 29.2459 42.8587 29.3704 42.793C28.4382 42.0418 26.6373 40.7268 23.5109 38.9045C18.3729 35.9097 20.4471 31.4463 20.4471 31.4463V23.52C18.68 21.7529 20.2992 20.1057 20.2992 20.1057C20.2992 20.1057 19.5668 16.468 18.4682 13.9533C17.3695 11.4387 19.6961 10.0743 19.6961 10.0743Z" fill="#ADE9F7"/>
<path d="M33.3688 17.7734H28.7324C28.1932 17.7734 27.7559 17.3362 27.7559 16.7969C27.7559 16.2575 28.1932 15.8203 28.7324 15.8203H33.3688C33.9081 15.8203 34.3454 16.2575 34.3454 16.7969C34.3454 17.3362 33.9081 17.7734 33.3688 17.7734Z" fill="#1D8DF2"/>
<path d="M34.3028 18.989C35.5132 18.989 36.4943 18.0078 36.4943 16.7975C36.4943 15.5871 35.5132 14.606 34.3028 14.606C33.0925 14.606 32.1113 15.5871 32.1113 16.7975C32.1113 18.0078 33.0925 18.989 34.3028 18.989Z" fill="#3FEADD"/>
<path d="M32.3915 8.75586L31.4864 9.74131H28.7659C28.2458 9.74131 27.7916 10.1338 27.758 10.6529C27.7211 11.2217 28.1716 11.6944 28.7324 11.6944H31.9154C32.1888 11.6944 32.4497 11.5798 32.6346 11.3784L33.8915 10.01C33.2173 9.8498 32.6639 9.37852 32.3915 8.75586Z" fill="#1D8DF2"/>
<path d="M34.3028 10.1677C35.5132 10.1677 36.4943 9.18651 36.4943 7.97617C36.4943 6.76584 35.5132 5.78467 34.3028 5.78467C33.0925 5.78467 32.1113 6.76584 32.1113 7.97617C32.1113 9.18651 33.0925 10.1677 34.3028 10.1677Z" fill="#FEF156"/>
<path d="M32.3915 24.8385L31.4864 23.853H28.7659C28.2458 23.853 27.7916 23.4605 27.758 22.9414C27.7211 22.3727 28.1716 21.8999 28.7324 21.8999H31.9154C32.1888 21.8999 32.4497 22.0146 32.6346 22.2159L33.8915 23.5844C33.2173 23.7445 32.6639 24.2158 32.3915 24.8385Z" fill="#1D8DF2"/>
<path d="M34.3028 27.8098C35.5132 27.8098 36.4943 26.8286 36.4943 25.6183C36.4943 24.4079 35.5132 23.4268 34.3028 23.4268C33.0925 23.4268 32.1113 24.4079 32.1113 25.6183C32.1113 26.8286 33.0925 27.8098 34.3028 27.8098Z" fill="#AE79FD"/>
<path d="M6.02344 17.7739H10.6599C11.1991 17.7739 11.6364 17.3367 11.6364 16.7974C11.6364 16.258 11.1991 15.8208 10.6599 15.8208H6.02344C5.48418 15.8208 5.04688 16.258 5.04688 16.7974C5.04688 17.3367 5.48408 17.7739 6.02344 17.7739Z" fill="#1D8DF2"/>
<path d="M5.08994 18.9885C6.30028 18.9885 7.28145 18.0073 7.28145 16.797C7.28145 15.5866 6.30028 14.6055 5.08994 14.6055C3.87961 14.6055 2.89844 15.5866 2.89844 16.797C2.89844 18.0073 3.87961 18.9885 5.08994 18.9885Z" fill="#3FEADD"/>
<path d="M7 8.75586L7.90508 9.74131H10.6256C11.1457 9.74131 11.5999 10.1338 11.6335 10.6529C11.6703 11.2217 11.2198 11.6944 10.6591 11.6944H7.47607C7.20264 11.6944 6.9418 11.5798 6.75684 11.3784L5.5 10.01C6.17412 9.8498 6.72754 9.37852 7 8.75586Z" fill="#1D8DF2"/>
<path d="M5.08994 10.1677C6.30028 10.1677 7.28145 9.18651 7.28145 7.97617C7.28145 6.76584 6.30028 5.78467 5.08994 5.78467C3.87961 5.78467 2.89844 6.76584 2.89844 7.97617C2.89844 9.18651 3.87961 10.1677 5.08994 10.1677Z" fill="#AE79FD"/>
<path d="M7 24.8385L7.90508 23.853H10.6256C11.1457 23.853 11.5999 23.4605 11.6335 22.9414C11.6703 22.3727 11.2198 21.8999 10.6591 21.8999H7.47607C7.20264 21.8999 6.9418 22.0146 6.75684 22.2159L5.5 23.5844C6.17412 23.7445 6.72754 24.2158 7 24.8385Z" fill="#1D8DF2"/>
<path d="M5.08994 27.8098C6.30028 27.8098 7.28145 26.8286 7.28145 25.6183C7.28145 24.4079 6.30028 23.4268 5.08994 23.4268C3.87961 23.4268 2.89844 24.4079 2.89844 25.6183C2.89844 26.8286 3.87961 27.8098 5.08994 27.8098Z" fill="#FEF156"/>
<path d="M18.7207 30.4694V25.833C18.7207 25.2937 19.1579 24.8564 19.6973 24.8564C20.2366 24.8564 20.6738 25.2937 20.6738 25.833V30.4694C20.6738 31.0087 20.2366 31.446 19.6973 31.446C19.1579 31.446 18.7207 31.0088 18.7207 30.4694Z" fill="#1D8DF2"/>
<path d="M19.6954 33.5944C20.9057 33.5944 21.8869 32.6133 21.8869 31.4029C21.8869 30.1926 20.9057 29.2114 19.6954 29.2114C18.4851 29.2114 17.5039 30.1926 17.5039 31.4029C17.5039 32.6133 18.4851 33.5944 19.6954 33.5944Z" fill="#3FEADD"/>
<path d="M27.7374 29.492L26.752 28.587V25.8665C26.752 25.3463 26.3595 24.8921 25.8403 24.8586C25.2716 24.8217 24.7988 25.2722 24.7988 25.8331V29.0161C24.7988 29.2895 24.9135 29.5503 25.1148 29.7353L26.4833 30.9921C26.6435 30.3179 27.1146 29.7646 27.7374 29.492Z" fill="#1D8DF2"/>
<path d="M28.5157 33.5944C29.7261 33.5944 30.7072 32.6133 30.7072 31.4029C30.7072 30.1926 29.7261 29.2114 28.5157 29.2114C27.3054 29.2114 26.3242 30.1926 26.3242 31.4029C26.3242 32.6133 27.3054 33.5944 28.5157 33.5944Z" fill="#FEF156"/>
<path d="M11.6543 29.492L12.6397 28.587V25.8665C12.6397 25.3463 13.0322 24.8921 13.5514 24.8586C14.1201 24.8217 14.5929 25.2722 14.5929 25.8331V29.0161C14.5929 29.2895 14.4782 29.5503 14.2769 29.7353L12.9084 30.9921C12.7482 30.3179 12.277 29.7646 11.6543 29.492Z" fill="#1D8DF2"/>
<path d="M10.8751 33.5944C12.0854 33.5944 13.0666 32.6133 13.0666 31.4029C13.0666 30.1926 12.0854 29.2114 10.8751 29.2114C9.66476 29.2114 8.68359 30.1926 8.68359 31.4029C8.68359 32.6133 9.66476 33.5944 10.8751 33.5944Z" fill="#AE79FD"/>
<path d="M18.7207 3.12451V7.76094C18.7207 8.3002 19.1579 8.7375 19.6973 8.7375C20.2366 8.7375 20.6738 8.3002 20.6738 7.76094V3.12451C20.6738 2.58525 20.2366 2.14795 19.6973 2.14795C19.1579 2.14795 18.7207 2.58525 18.7207 3.12451Z" fill="#1D8DF2"/>
<path d="M19.6954 4.38301C20.9057 4.38301 21.8869 3.40184 21.8869 2.1915C21.8869 0.98117 20.9057 0 19.6954 0C18.4851 0 17.5039 0.98117 17.5039 2.1915C17.5039 3.40184 18.4851 4.38301 19.6954 4.38301Z" fill="#3FEADD"/>
<path d="M27.7374 4.10215L26.752 5.00723V7.72764C26.752 8.24775 26.3595 8.70195 25.8403 8.73555C25.2716 8.77236 24.7988 8.32188 24.7988 7.76104V4.57813C24.7988 4.30469 24.9135 4.04385 25.1148 3.85889L26.4833 2.60205C26.6435 3.27627 27.1146 3.82969 27.7374 4.10215Z" fill="#1D8DF2"/>
<path d="M28.5157 4.38301C29.7261 4.38301 30.7072 3.40184 30.7072 2.1915C30.7072 0.98117 29.7261 0 28.5157 0C27.3054 0 26.3242 0.98117 26.3242 2.1915C26.3242 3.40184 27.3054 4.38301 28.5157 4.38301Z" fill="#AE79FD"/>
<path d="M11.6543 4.10215L12.6397 5.00723V7.72764C12.6397 8.24775 13.0322 8.70195 13.5514 8.73555C14.1201 8.77236 14.5929 8.32188 14.5929 7.76104V4.57813C14.5929 4.30469 14.4782 4.04385 14.2769 3.85889L12.9084 2.60205C12.7482 3.27627 12.277 3.82969 11.6543 4.10215Z" fill="#1D8DF2"/>
<path d="M10.8751 4.38301C12.0854 4.38301 13.0666 3.40184 13.0666 2.1915C13.0666 0.98117 12.0854 0 10.8751 0C9.66476 0 8.68359 0.98117 8.68359 2.1915C8.68359 3.40184 9.66476 4.38301 10.8751 4.38301Z" fill="#FEF156"/>
<path d="M24.2349 23.5199C25.4514 23.5199 26.4376 22.5338 26.4376 21.3172V12.2771C26.4376 11.0604 25.4514 10.0742 24.2348 10.0742H15.1578C13.9413 10.0742 12.9551 11.0604 12.9551 12.277V21.3172C12.9551 22.5337 13.9412 23.5199 15.1578 23.5199H24.2349Z" fill="#AE79FD"/>
<path d="M15.1578 23.5199H20.4475C18.6804 21.7528 20.2996 20.1056 20.2996 20.1056C20.2996 20.1056 19.5672 16.4679 18.4686 13.9532C17.3699 11.4386 19.6963 10.0742 19.6963 10.0742H15.1578C13.9413 10.0742 12.9551 11.0604 12.9551 12.277V21.3172C12.9551 22.5337 13.9413 23.5199 15.1578 23.5199Z" fill="#9C58FE"/>
<path d="M20.4083 20.4425C20.1123 20.4425 19.8335 20.2617 19.7228 19.9685L18.039 15.5066L16.3389 19.9705C16.1949 20.3485 15.7716 20.5383 15.3938 20.3943C15.0158 20.2503 14.826 19.8271 14.9701 19.4492L17.2309 13.5132C17.233 13.5076 17.2352 13.5021 17.2374 13.4967C17.3713 13.169 17.6867 12.957 18.0406 12.9565H18.0417C18.3953 12.9565 18.7105 13.1677 18.8452 13.4947C18.8479 13.5015 18.8505 13.5082 18.8531 13.5149L21.0934 19.4513C21.2362 19.8298 21.0452 20.2523 20.6668 20.3951C20.5816 20.4272 20.4941 20.4425 20.4083 20.4425Z" fill="#2FD0E2"/>
<path d="M19.7143 18.9639H16.3594C15.9549 18.9639 15.627 18.6359 15.627 18.2314C15.627 17.8269 15.9549 17.499 16.3594 17.499H19.7143C20.1188 17.499 20.4467 17.8269 20.4467 18.2314C20.4467 18.636 20.1188 18.9639 19.7143 18.9639Z" fill="#2FD0E2"/>
<path d="M22.7773 20.4428C22.3729 20.4428 22.0449 20.1149 22.0449 19.7104V13.6895C22.0449 13.2849 22.3729 12.957 22.7773 12.957C23.1818 12.957 23.5098 13.2849 23.5098 13.6895V19.7104C23.5098 20.1149 23.1818 20.4428 22.7773 20.4428Z" fill="#3FEADD"/>
</svg>
