<svg width="357" height="48" viewBox="0 0 357 48" fill="none" xmlns="http://www.w3.org/2000/svg">
<path d="M80.4843 20.9528C78.9964 20.9528 77.7028 20.5868 76.5996 19.8547C75.4965 19.1226 74.6426 18.116 74.036 16.8368C73.4295 15.5576 73.1272 14.107 73.1272 12.4851C73.1272 10.8535 73.4295 9.39907 74.036 8.11986C74.6426 6.84066 75.4729 5.83404 76.5329 5.10195C77.5909 4.36986 78.8001 4.00381 80.1585 4.00381C81.0948 4.00381 81.9761 4.18489 82.8025 4.54509C83.6289 4.90724 84.3611 5.43684 84.9951 6.13388C85.6311 6.83286 86.1297 7.68177 86.4948 8.68255C86.8599 9.68333 87.0405 10.8185 87.0405 12.0899V12.7051H73.9673V11.533H86.3299L85.7391 12.0023C85.7391 10.7328 85.5075 9.58209 85.0442 8.5521C84.581 7.52212 83.9312 6.70631 83.095 6.10467C82.2588 5.50304 81.2773 5.20319 80.1565 5.20319C79.0631 5.20319 78.0856 5.50888 77.2239 6.1183C76.3621 6.72967 75.681 7.54743 75.1785 8.57158C74.676 9.59767 74.4247 10.7445 74.4247 12.0139V12.5552C74.4247 13.922 74.6661 15.1487 75.149 16.2332C75.6319 17.3177 76.3248 18.1744 77.2317 18.8052C78.1366 19.4361 79.2202 19.7495 80.4823 19.7495C81.3873 19.7495 82.1607 19.5977 82.8006 19.2959C83.4405 18.9941 83.9666 18.6222 84.3807 18.1822C84.7949 17.7421 85.0992 17.3235 85.2974 16.9224L86.4948 17.4053C86.2495 17.9524 85.8628 18.4995 85.3347 19.0467C84.8087 19.5938 84.1413 20.0474 83.3325 20.4096C82.5277 20.7717 81.5777 20.9528 80.4843 20.9528Z" fill="#00604E"/>
<path d="M100.051 14.7982V4.21994H101.336V20.6004H100.051V17.9329H99.9329C99.5383 18.7819 98.9102 19.477 98.0504 20.0143C97.1887 20.5517 96.168 20.8146 94.9863 20.8048C93.9126 20.8048 92.9605 20.5731 92.1282 20.1097C91.296 19.6463 90.6462 18.9824 90.179 18.1179C89.7119 17.2534 89.4783 16.2254 89.4783 15.0338V4.22189H90.764V14.991C90.764 16.3481 91.1821 17.4481 92.0203 18.2873C92.8565 19.1265 93.94 19.547 95.269 19.547C96.1346 19.547 96.9316 19.3543 97.6539 18.9688C98.3782 18.5833 98.9593 18.0342 99.397 17.3196C99.8308 16.6051 100.051 15.7659 100.051 14.7982Z" fill="#00604E"/>
<path d="M104.814 20.6005V4.22002H106.071V6.78427H106.189C106.554 5.95483 107.16 5.2831 108.012 4.76908C108.864 4.25701 109.832 4 110.915 4C111.033 4 111.149 4.00195 111.263 4.00779C111.377 4.01363 111.487 4.01557 111.594 4.01557V5.32009C111.536 5.31036 111.437 5.29868 111.298 5.2831C111.161 5.26947 111.008 5.26168 110.841 5.26168C109.924 5.26168 109.109 5.46028 108.397 5.85553C107.682 6.25078 107.121 6.79011 106.713 7.47547C106.304 8.15888 106.1 8.94548 106.1 9.83528V20.6044H104.814V20.6005Z" fill="#00604E"/>
<path d="M118.754 20.9531C117.395 20.9531 116.184 20.587 115.12 19.8549C114.056 19.1229 113.22 18.1182 112.61 16.8448C111.999 15.5695 111.693 14.1131 111.693 12.4718C111.693 10.8304 111.997 9.37207 112.61 8.09871C113.22 6.82339 114.056 5.82262 115.12 5.09442C116.184 4.36623 117.395 4.00214 118.754 4.00214C120.112 4.00214 121.323 4.36623 122.387 5.09442C123.451 5.82262 124.287 6.82534 124.898 8.10455C125.508 9.38375 125.814 10.8401 125.814 12.4698C125.814 14.1112 125.508 15.5676 124.898 16.8429C124.287 18.1182 123.453 19.1209 122.395 19.853C121.337 20.587 120.122 20.9531 118.754 20.9531ZM118.754 19.7517C119.916 19.7517 120.927 19.4266 121.788 18.7782C122.65 18.1279 123.319 17.2537 123.796 16.1556C124.273 15.0574 124.513 13.8289 124.513 12.4718C124.513 11.1244 124.271 9.89972 123.789 8.80159C123.306 7.70346 122.636 6.82924 121.78 6.17893C120.925 5.52861 119.914 5.20541 118.752 5.20541C117.609 5.20541 116.604 5.53056 115.738 6.17893C114.871 6.82924 114.198 7.70346 113.715 8.80159C113.232 9.89972 112.99 11.1244 112.99 12.4718C112.99 13.8289 113.232 15.0574 113.715 16.1556C114.198 17.2537 114.869 18.1279 115.731 18.7782C116.594 19.4266 117.601 19.7517 118.754 19.7517Z" fill="#00604E"/>
<path d="M128.349 26.7259V4.22002H129.605V7.8824H129.768C130.013 7.17952 130.377 6.5331 130.854 5.9412C131.331 5.35125 131.921 4.87811 132.626 4.52765C133.331 4.17523 134.155 4 135.099 4C136.419 4 137.571 4.36215 138.556 5.0845C139.542 5.80686 140.307 6.80568 140.853 8.081C141.399 9.35631 141.673 10.8127 141.673 12.4541C141.673 14.1051 141.402 15.5693 140.861 16.8505C140.319 18.1297 139.555 19.1343 138.572 19.8606C137.586 20.5888 136.434 20.9529 135.115 20.9529C134.169 20.9529 133.345 20.7718 132.642 20.4116C131.937 20.0495 131.346 19.5724 130.869 18.9766C130.392 18.3808 130.025 17.7305 129.768 17.0277H129.635V26.7259H128.349ZM134.997 19.7516C136.13 19.7516 137.096 19.4284 137.893 18.7839C138.69 18.1394 139.304 17.2652 139.732 16.1612C140.16 15.0572 140.374 13.817 140.374 12.4404C140.374 11.0736 140.162 9.84307 139.738 8.74884C139.314 7.6546 138.701 6.79011 137.899 6.15538C137.096 5.52064 136.128 5.20327 134.995 5.20327C133.882 5.20327 132.925 5.51674 132.122 6.14174C131.319 6.76675 130.7 7.62734 130.269 8.71962C129.835 9.81386 129.619 11.0541 129.619 12.4404C129.619 13.8365 129.835 15.0884 130.269 16.1904C130.702 17.2944 131.319 18.1628 132.122 18.7975C132.926 19.4342 133.884 19.7516 134.997 19.7516Z" fill="#00604E"/>
<path d="M150.632 20.9528C149.144 20.9528 147.851 20.5868 146.747 19.8547C145.644 19.1226 144.79 18.116 144.184 16.8368C143.577 15.5576 143.275 14.107 143.275 12.4851C143.275 10.8535 143.577 9.39907 144.184 8.11986C144.79 6.84066 145.621 5.83404 146.681 5.10195C147.739 4.36986 148.948 4.00381 150.306 4.00381C151.242 4.00381 152.124 4.18489 152.95 4.54509C153.777 4.90724 154.509 5.43684 155.143 6.13388C155.779 6.83286 156.277 7.68177 156.643 8.68255C157.008 9.68333 157.188 10.8185 157.188 12.0899V12.7051H144.115V11.533H156.478L155.887 12.0023C155.887 10.7328 155.655 9.58209 155.192 8.5521C154.729 7.52212 154.079 6.70631 153.243 6.10467C152.407 5.50304 151.425 5.20319 150.302 5.20319C149.209 5.20319 148.231 5.50888 147.37 6.1183C146.508 6.72967 145.827 7.54743 145.324 8.57158C144.822 9.59767 144.57 10.7445 144.57 12.0139V12.5552C144.57 13.922 144.812 15.1487 145.295 16.2332C145.778 17.3177 146.471 18.1744 147.377 18.8052C148.282 19.4361 149.366 19.7495 150.626 19.7495C151.533 19.7495 152.304 19.5977 152.944 19.2959C153.584 18.9941 154.112 18.6222 154.525 18.1822C154.939 17.7421 155.243 17.3235 155.441 16.9224L156.639 17.4053C156.393 17.9524 156.007 18.4995 155.479 19.0467C154.952 19.5938 154.285 20.0474 153.476 20.4096C152.675 20.7717 151.725 20.9528 150.632 20.9528Z" fill="#00604E"/>
<path d="M163.995 20.9667C163.039 20.9667 162.164 20.7759 161.367 20.3962C160.57 20.0146 159.932 19.4616 159.455 18.7334C158.978 18.0053 158.739 17.1291 158.739 16.103C158.739 15.4196 158.862 14.816 159.108 14.2942C159.353 13.7724 159.73 13.3226 160.238 12.9468C160.745 12.5711 161.394 12.2615 162.187 12.0162C162.98 11.7728 163.929 11.582 165.032 11.4457C165.878 11.3483 166.632 11.251 167.291 11.1536C167.951 11.0563 168.467 10.9024 168.842 10.6922C169.217 10.4819 169.403 10.1723 169.403 9.76148V9.08781C169.403 7.89622 169.024 6.94801 168.267 6.24513C167.509 5.54224 166.465 5.18983 165.136 5.18983C163.964 5.18983 162.973 5.44684 162.16 5.95891C161.347 6.47098 160.778 7.13298 160.454 7.94489L159.214 7.49123C159.539 6.70073 160.001 6.04848 160.601 5.53446C161.202 5.02238 161.891 4.63882 162.668 4.38375C163.446 4.13064 164.258 4.00214 165.106 4.00214C165.844 4.00214 166.549 4.10143 167.218 4.30198C167.888 4.50252 168.487 4.81405 169.013 5.24045C169.539 5.66491 169.953 6.20229 170.253 6.8526C170.553 7.50291 170.703 8.27589 170.703 9.17542V20.6046H169.401V17.6587H169.313C169.026 18.2642 168.634 18.8152 168.131 19.3137C167.629 19.8121 167.03 20.2132 166.337 20.515C165.642 20.8148 164.861 20.9667 163.995 20.9667ZM164.113 19.7654C165.148 19.7654 166.06 19.5123 166.853 19.0041C167.646 18.4959 168.269 17.8047 168.722 16.9305C169.175 16.0563 169.401 15.0672 169.401 13.9632V11.545C169.234 11.6813 168.995 11.8059 168.685 11.9188C168.375 12.0317 168.025 12.131 167.637 12.2186C167.248 12.3063 166.842 12.3802 166.418 12.4387C165.994 12.4971 165.581 12.5516 165.177 12.6003C163.966 12.7366 162.984 12.9546 162.231 13.2525C161.477 13.5504 160.923 13.9359 160.568 14.4091C160.213 14.8822 160.036 15.4624 160.036 16.1458C160.036 17.2595 160.427 18.1415 161.21 18.7899C161.993 19.4402 162.961 19.7654 164.113 19.7654Z" fill="#00604E"/>
<path d="M175.465 9.99313V20.6006H174.179V4.22016H175.436V6.81362H175.569C175.964 5.97444 176.586 5.29687 177.438 4.7848C178.29 4.27273 179.301 4.01572 180.473 4.01572C181.586 4.01572 182.563 4.24742 183.405 4.71081C184.247 5.17421 184.905 5.83815 185.378 6.70264C185.851 7.56712 186.087 8.59905 186.087 9.80232V20.6006H184.801V9.86074C184.801 8.46471 184.381 7.34127 183.539 6.49041C182.697 5.6415 181.592 5.21509 180.223 5.21509C179.316 5.21509 178.506 5.41564 177.785 5.81479C177.067 6.21588 176.5 6.77273 176.087 7.48534C175.673 8.19991 175.465 9.03519 175.465 9.99313Z" fill="#00604E"/>
<path d="M80.1903 44C78.832 44 77.6209 43.6339 76.5569 42.9019C75.493 42.1698 74.6568 41.1651 74.0463 39.8917C73.4359 38.6164 73.1296 37.16 73.1296 35.5187C73.1296 33.8773 73.4339 32.419 74.0463 31.1456C74.6568 29.8703 75.493 28.8695 76.5569 28.1413C77.6209 27.4131 78.832 27.049 80.1903 27.049C81.5487 27.049 82.7598 27.4131 83.8238 28.1413C84.8877 28.8695 85.7239 29.8723 86.3344 31.1515C86.9448 32.4307 87.251 33.8871 87.251 35.5167C87.251 37.1581 86.9448 38.6145 86.3344 39.8898C85.7239 41.1651 84.8896 42.1678 83.8316 42.8999C82.7716 43.6339 81.5585 44 80.1903 44ZM80.1903 42.7987C81.3524 42.7987 82.3633 42.4735 83.2251 41.8251C84.0868 41.1748 84.7561 40.3006 85.2331 39.2025C85.7101 38.1043 85.9496 36.8758 85.9496 35.5187C85.9496 34.1713 85.7082 32.9466 85.2253 31.8485C84.7424 30.7504 84.073 29.8762 83.2172 29.2258C82.3614 28.5755 81.3504 28.2523 80.1884 28.2523C79.046 28.2523 78.0409 28.5775 77.1753 29.2258C76.3096 29.8762 75.6344 30.7504 75.1515 31.8485C74.6686 32.9466 74.4271 34.1713 74.4271 35.5187C74.4271 36.8758 74.6686 38.1043 75.1515 39.2025C75.6344 40.3006 76.3057 41.1748 77.1674 41.8251C78.0311 42.4735 79.0381 42.7987 80.1903 42.7987Z" fill="#00604E"/>
<path d="M100.361 37.8451V27.2669H101.647V43.6473H100.361V40.9799H100.244C99.8491 41.8288 99.221 42.5239 98.3612 43.0613C97.4995 43.5987 96.4788 43.8615 95.2971 43.8518C94.2233 43.8518 93.2713 43.6201 92.439 43.1567C91.6067 42.6933 90.957 42.0293 90.4898 41.1648C90.0227 40.3004 89.7891 39.2723 89.7891 38.0807V27.2688H91.0748V38.0379C91.0748 39.395 91.4929 40.4951 92.3311 41.3342C93.1673 42.1734 94.2508 42.594 95.5797 42.594C96.4454 42.594 97.2424 42.4012 97.9647 42.0157C98.689 41.6302 99.2701 41.0811 99.7078 40.3666C100.142 39.652 100.361 38.8128 100.361 37.8451Z" fill="#00604E"/>
<path d="M110.932 27.2672V28.4238H103.738V27.2672H110.932ZM106.176 23.3712H107.461V39.7809C107.461 40.6999 107.726 41.4067 108.258 41.9051C108.79 42.4035 109.46 42.6528 110.266 42.6528C110.463 42.6528 110.651 42.6372 110.828 42.608C111.004 42.5788 111.193 42.534 111.389 42.4756L111.715 43.6341C111.489 43.7217 111.25 43.7898 110.998 43.8385C110.747 43.8872 110.478 43.9125 110.194 43.9125C109.071 43.9125 108.121 43.5581 107.343 42.8494C106.566 42.1407 106.177 41.1905 106.177 39.9989V23.3712H106.176Z" fill="#00604E"/>
<path d="M119.287 44.0001C117.967 44.0001 116.813 43.636 115.822 42.9078C114.833 42.1796 114.067 41.1769 113.525 39.8977C112.984 38.6185 112.713 37.1524 112.713 35.5013C112.713 33.8599 112.985 32.4016 113.533 31.1282C114.079 29.8529 114.848 28.8541 115.838 28.1317C116.827 27.4094 117.981 27.0472 119.302 27.0472C120.248 27.0472 121.073 27.2224 121.776 27.5749C122.48 27.9273 123.071 28.3985 123.548 28.9884C124.025 29.5803 124.388 30.2267 124.634 30.9296H124.767V21.8155H126.053V43.6457H124.797V40.071H124.634C124.376 40.7738 124.011 41.4242 123.532 42.02C123.055 42.6157 122.465 43.0947 121.76 43.4549C121.057 43.819 120.233 44.0001 119.287 44.0001ZM119.391 42.7988C120.513 42.7988 121.475 42.4814 122.278 41.8467C123.081 41.2119 123.695 40.3436 124.125 39.2396C124.553 38.1356 124.767 36.8856 124.767 35.4896C124.767 34.1033 124.553 32.863 124.125 31.7688C123.697 30.6746 123.081 29.8159 122.278 29.1909C121.475 28.5659 120.513 28.2524 119.391 28.2524C118.268 28.2524 117.306 28.5698 116.503 29.2045C115.7 29.8393 115.086 30.7038 114.656 31.798C114.228 32.8922 114.014 34.1228 114.014 35.4896C114.014 36.8661 114.228 38.1064 114.656 39.2104C115.084 40.3143 115.7 41.1886 116.503 41.833C117.304 42.4756 118.268 42.7988 119.391 42.7988Z" fill="#00604E"/>
<path d="M135.648 44C134.29 44 133.079 43.6339 132.015 42.9019C130.951 42.1698 130.115 41.1651 129.504 39.8917C128.894 38.6164 128.587 37.16 128.587 35.5187C128.587 33.8773 128.892 32.419 129.504 31.1456C130.115 29.8703 130.951 28.8695 132.015 28.1413C133.079 27.4131 134.29 27.049 135.648 27.049C137.006 27.049 138.218 27.4131 139.282 28.1413C140.345 28.8695 141.182 29.8723 141.792 31.1515C142.403 32.4307 142.709 33.8871 142.709 35.5167C142.709 37.1581 142.403 38.6145 141.792 39.8898C141.182 41.1651 140.347 42.1678 139.289 42.8999C138.229 43.6339 137.016 44 135.648 44ZM135.648 42.7987C136.81 42.7987 137.821 42.4735 138.683 41.8251C139.545 41.1748 140.214 40.3006 140.691 39.2025C141.168 38.1043 141.407 36.8758 141.407 35.5187C141.407 34.1713 141.166 32.9466 140.683 31.8485C140.2 30.7504 139.531 29.8762 138.675 29.2258C137.819 28.5755 136.808 28.2523 135.646 28.2523C134.504 28.2523 133.499 28.5775 132.633 29.2258C131.765 29.8762 131.092 30.7504 130.609 31.8485C130.126 32.9466 129.885 34.1713 129.885 35.5187C129.885 36.8758 130.126 38.1043 130.609 39.2025C131.092 40.3006 131.763 41.1748 132.625 41.8251C133.489 42.4735 134.496 42.7987 135.648 42.7987Z" fill="#00604E"/>
<path d="M151.357 44C149.999 44 148.788 43.6339 147.724 42.9019C146.66 42.1698 145.824 41.1651 145.213 39.8917C144.603 38.6164 144.296 37.16 144.296 35.5187C144.296 33.8773 144.601 32.419 145.213 31.1456C145.824 29.8703 146.66 28.8695 147.724 28.1413C148.788 27.4131 149.999 27.049 151.357 27.049C152.715 27.049 153.927 27.4131 154.991 28.1413C156.054 28.8695 156.891 29.8723 157.501 31.1515C158.112 32.4307 158.418 33.8871 158.418 35.5167C158.418 37.1581 158.112 38.6145 157.501 39.8898C156.891 41.1651 156.056 42.1678 154.998 42.8999C153.94 43.6339 152.727 44 151.357 44ZM151.357 42.7987C152.519 42.7987 153.53 42.4735 154.392 41.8251C155.254 41.1748 155.923 40.3006 156.4 39.2025C156.877 38.1043 157.116 36.8758 157.116 35.5187C157.116 34.1713 156.875 32.9466 156.392 31.8485C155.909 30.7504 155.24 29.8762 154.384 29.2258C153.528 28.5755 152.517 28.2523 151.355 28.2523C150.213 28.2523 149.208 28.5775 148.342 29.2258C147.474 29.8762 146.801 30.7504 146.318 31.8485C145.835 32.9466 145.594 34.1713 145.594 35.5187C145.594 36.8758 145.835 38.1043 146.318 39.2025C146.801 40.3006 147.472 41.1748 148.334 41.8251C149.198 42.4735 150.205 42.7987 151.357 42.7987Z" fill="#00604E"/>
<path d="M160.952 43.6478V27.2674H162.209V29.8316H162.326C162.692 29.0022 163.298 28.3305 164.15 27.8164C165.002 27.3044 165.97 27.0474 167.053 27.0474C167.171 27.0474 167.287 27.0493 167.401 27.0551C167.515 27.061 167.624 27.0629 167.732 27.0629V28.3675C167.674 28.3577 167.575 28.346 167.438 28.3305C167.301 28.3168 167.147 28.309 166.981 28.309C166.064 28.309 165.249 28.5076 164.537 28.9029C163.822 29.2981 163.261 29.8375 162.853 30.5209C162.444 31.2043 162.24 31.9909 162.24 32.8807V43.6498H160.952V43.6478Z" fill="#00604E"/>
<path d="M179.735 30.799L178.524 31.1223C178.23 30.2344 177.753 29.5276 177.099 29.0058C176.443 28.484 175.55 28.2212 174.418 28.2212C173.207 28.2212 172.217 28.5191 171.448 29.1149C170.68 29.7107 170.296 30.4875 170.296 31.4435C170.296 32.2243 170.555 32.8746 171.071 33.3925C171.587 33.9104 172.378 34.3018 173.442 34.5646L175.998 35.1955C177.288 35.5089 178.267 36.0191 178.936 36.7258C179.606 37.4346 179.941 38.3146 179.941 39.3699C179.941 40.2792 179.696 41.0794 179.203 41.7726C178.711 42.4657 178.026 43.0109 177.15 43.4061C176.273 43.8014 175.264 44 174.121 44C172.584 44 171.322 43.6378 170.333 42.9155C169.343 42.1931 168.706 41.167 168.421 39.8392L169.661 39.5315C169.907 40.6063 170.407 41.4221 171.161 41.979C171.915 42.5358 172.902 42.8142 174.123 42.8142C175.462 42.8142 176.546 42.4949 177.374 41.8543C178.2 41.2138 178.614 40.4018 178.614 39.4147C178.614 37.8707 177.635 36.8602 175.676 36.3812L173.048 35.7367C171.699 35.4058 170.686 34.8781 170.013 34.1538C169.338 33.4315 169.002 32.5475 169.002 31.5019C169.002 30.6141 169.234 29.8372 169.697 29.1733C170.16 28.5093 170.8 27.9895 171.617 27.6137C172.433 27.2379 173.369 27.049 174.424 27.049C175.821 27.049 176.96 27.3742 177.835 28.0226C178.707 28.6709 179.343 29.5977 179.735 30.799Z" fill="#00604E"/>
<path d="M49.6861 43.9321C38.621 43.9321 29.6169 35.003 29.6169 24.0256C29.6169 13.0482 38.621 4.121 49.6861 4.121C60.7512 4.121 69.7552 13.0501 69.7552 24.0275C69.7552 35.005 60.7512 43.9321 49.6861 43.9321ZM49.6861 10.5423C42.1896 10.5423 36.0907 16.5918 36.0907 24.0275C36.0907 31.4633 42.1896 37.5128 49.6861 37.5128C57.1825 37.5128 63.2814 31.4633 63.2814 24.0275C63.2814 16.5918 57.1825 10.5423 49.6861 10.5423Z" fill="#00604E"/>
<path d="M31.0734 5.50095C29.1713 7.37984 27.5578 9.543 26.3015 11.9223H0V5.50095H31.0734Z" fill="#00604E"/>
<path d="M23.306 24.0272C23.306 25.1467 23.3767 26.2507 23.5141 27.3333H0V20.9119H23.4925C23.3688 21.9322 23.306 22.9738 23.306 24.0272Z" fill="#00604E"/>
<path d="M31.2697 42.7439H0V36.3225H26.4055C27.6893 38.7076 29.3362 40.8708 31.2697 42.7439Z" fill="#00604E"/>
</svg>
