<svg width="1365" height="350" viewBox="0 0 1365 350" fill="none" xmlns="http://www.w3.org/2000/svg">
<path d="M1365 36V72H1329V36H1365ZM1334.01 66.9879H1359.98V41.0121H1334L1334.01 66.9879Z" fill="#FF9D00"/>
<path d="M18 0V18H0V0H18ZM2.50603 15.494H15.4893V2.50604H2.50142L2.50603 15.494Z" fill="#EC008B"/>
<path d="M1329 326H1281L1305 350L1329 326Z" fill="#EA3351"/>
<path d="M98 300C101.164 300 104.258 300.938 106.889 302.696C109.52 304.455 111.571 306.953 112.782 309.877C113.993 312.801 114.31 316.018 113.693 319.121C113.075 322.225 111.551 325.076 109.314 327.314C107.076 329.551 104.225 331.075 101.121 331.693C98.0177 332.31 94.8006 331.993 91.877 330.782C88.9534 329.571 86.4546 327.52 84.6965 324.889C82.9384 322.258 82 319.164 82 316C82 313.899 82.4138 311.818 83.2179 309.877C84.022 307.936 85.2005 306.172 86.6863 304.686C88.172 303.201 89.9358 302.022 91.877 301.218C93.8182 300.414 95.8988 300 98 300ZM98 323.616C99.5106 323.616 100.987 323.167 102.243 322.328C103.499 321.488 104.477 320.295 105.054 318.899C105.632 317.503 105.782 315.967 105.486 314.486C105.19 313.004 104.461 311.644 103.391 310.577C102.322 309.51 100.96 308.785 99.478 308.492C97.996 308.2 96.4605 308.354 95.0659 308.934C93.6713 309.515 92.4803 310.496 91.6437 311.754C90.8071 313.012 90.3625 314.489 90.3661 316C90.3854 318.012 91.1982 319.935 92.6278 321.351C94.0573 322.767 95.988 323.616 98 323.616Z" fill="#FFC200"/>
</svg>
