<svg width="530" height="417" viewBox="0 0 530 417" fill="none" xmlns="http://www.w3.org/2000/svg">
<g opacity="0.4">
<path opacity="0.5" d="M382.813 416.864L37.3988 295.235C6.49016 284.333 -8.16134 254.238 4.61691 228.004C17.4621 201.771 52.92 189.335 83.8287 200.181L317.182 282.345L413.32 85.8771C426.165 59.6435 461.623 47.2081 492.532 58.0536C523.44 68.9559 538.092 99.0507 525.314 125.284L382.813 416.864Z" fill="white"/>
<path opacity="0.7" d="M318.294 281.838L107.551 149.328C88.6976 137.447 84.739 114.879 98.7617 98.9048C112.784 82.9309 139.421 79.5769 158.274 91.4579L300.648 180.991L405.516 61.3291C419.539 45.3552 446.175 42.0012 465.028 53.8822C483.882 65.7631 487.84 88.3313 473.818 104.305L318.294 281.838Z" fill="#0054A6"/>
<path opacity="0.7" d="M299.945 181.796L188.737 68.7968C178.749 58.6639 180.358 43.6353 192.29 35.1533C204.222 26.6713 221.918 28.0375 231.906 38.1704L307.051 114.509L396.272 51.2066C408.204 42.7245 425.901 44.0908 435.889 54.2237C445.876 64.3566 444.268 79.3851 432.336 87.8672L299.945 181.796Z" fill="#0054A6"/>
<path opacity="0.7" d="M307.491 114.896L263.854 26.0174C259.948 18.0614 264.393 8.91214 273.821 5.61611C283.248 2.32009 294.09 6.07074 297.996 14.0267L327.492 74.0939L398.066 49.4305C407.493 46.1345 418.335 49.8851 422.241 57.8411C426.147 65.797 421.702 74.9463 412.275 78.2423L307.491 114.896Z" fill="#0054A6"/>
<path opacity="0.7" d="M326.901 73.775L319.618 11.836C318.944 6.31387 323.731 1.36103 330.34 0.79174C336.881 0.222448 342.747 4.26442 343.422 9.84348L348.344 51.6865L397.503 47.5876C404.044 47.0183 409.91 51.0602 410.584 56.6393C411.259 62.1614 406.471 67.1143 399.863 67.6836L326.901 73.775Z" fill="#0054A6"/>
</g>
</svg>
