<svg width="604" height="187" viewBox="0 0 604 187" fill="none" xmlns="http://www.w3.org/2000/svg">
<path d="M-218 1.44067H419.937" stroke="#D2D9DC" stroke-width="2" stroke-miterlimit="10"/>
<path d="M-187.32 32.1178H450.617" stroke="#D2D9DC" stroke-width="2" stroke-miterlimit="10"/>
<path d="M-156.648 62.7949H481.289" stroke="#D2D9DC" stroke-width="2" stroke-miterlimit="10"/>
<path d="M-125.969 93.4721H511.968" stroke="#D2D9DC" stroke-width="2" stroke-miterlimit="10"/>
<path d="M-95.2891 124.149H542.648" stroke="#D2D9DC" stroke-width="2" stroke-miterlimit="10"/>
<path d="M-64.6133 154.826H573.324" stroke="#D2D9DC" stroke-width="2" stroke-miterlimit="10"/>
<path d="M-33.9375 185.504H604" stroke="#D2D9DC" stroke-width="2" stroke-miterlimit="10"/>
<path d="M449.007 93.8417C449.007 138.882 412.495 175.394 367.455 175.394C322.414 175.394 285.902 138.882 285.902 93.8417C285.902 48.8017 322.414 12.2896 367.455 12.2896C412.495 12.2896 449.007 48.8017 449.007 93.8417Z" fill="white" stroke="#D2D9DC"/>
<path d="M367.456 175.894C378.887 175.894 388.153 166.627 388.153 155.196C388.153 143.765 378.887 134.498 367.456 134.498C356.025 134.498 346.758 143.765 346.758 155.196C346.758 166.627 356.025 175.894 367.456 175.894Z" fill="#ED1C24"/>
</svg>
