<svg width="120" height="67" viewBox="0 0 120 67" fill="none" xmlns="http://www.w3.org/2000/svg">
<path d="M7.70081 67.0004C5.70081 67.0004 3.80078 66.2004 2.30078 64.8004C0.900781 63.4004 0.100769 61.5004 0.100769 59.4004C0.100769 57.4004 0.900781 55.5004 2.30078 54.0004L22.4008 33.9004L2.30078 13.8004C-0.699219 10.8004 -0.699219 6.0004 2.30078 3.1004C3.70078 1.7004 5.60081 0.900391 7.70081 0.900391C9.70081 0.900391 11.6008 1.7004 13.1008 3.1004L43.9008 33.9004L13.0008 64.8004C11.6008 66.2004 9.70081 67.0004 7.70081 67.0004Z" fill="white"/>
<g opacity="0.6">
<path d="M45.7008 67.0004C43.7008 67.0004 41.8008 66.2004 40.3008 64.8004C38.9008 63.4004 38.1008 61.5004 38.1008 59.4004C38.1008 57.4004 38.9008 55.5004 40.3008 54.0004L60.4008 33.9004L40.3008 13.8004C37.3008 10.8004 37.3008 6.0004 40.3008 3.1004C41.7008 1.7004 43.6008 0.900391 45.7008 0.900391C47.7008 0.900391 49.6008 1.7004 51.1008 3.1004L81.9008 33.9004L51.0008 64.8004C49.6008 66.2004 47.7008 67.0004 45.7008 67.0004Z" fill="white"/>
</g>
<g opacity="0.2">
<path d="M83.7008 67.0004C81.7008 67.0004 79.8008 66.2004 78.3008 64.8004C76.9008 63.4004 76.1008 61.5004 76.1008 59.4004C76.1008 57.4004 76.9008 55.5004 78.3008 54.0004L98.4008 33.9004L78.3008 13.8004C75.3008 10.8004 75.3008 6.0004 78.3008 3.1004C79.7008 1.7004 81.6008 0.900391 83.7008 0.900391C85.7008 0.900391 87.6008 1.7004 89.1008 3.1004L119.901 33.9004L89.0008 64.8004C87.6008 66.2004 85.7008 67.0004 83.7008 67.0004Z" fill="white"/>
</g>
</svg>
