<svg width="50" height="50" viewBox="0 0 50 50" fill="none" xmlns="http://www.w3.org/2000/svg">
<path fill-rule="evenodd" clip-rule="evenodd" d="M34.0301 21.49H32.1301C31.9801 20.99 31.7801 20.51 31.5401 20.06L32.8801 18.72C33.2501 18.35 33.2501 17.74 32.8801 17.37L31.4001 15.89C31.0301 15.52 30.4201 15.52 30.0501 15.89L28.7001 17.23C28.2501 16.98 27.7701 16.78 27.2701 16.64V14.74C27.2701 14.22 26.8401 13.79 26.3201 13.79H24.2301C23.7101 13.79 23.2801 14.22 23.2801 14.74V16.64C22.7801 16.79 22.3001 16.99 21.8501 17.23L20.5101 15.89C20.1401 15.52 19.5301 15.52 19.1601 15.89L17.6801 17.37C17.3101 17.74 17.3101 18.34 17.6801 18.72L19.0201 20.06C18.7701 20.51 18.5701 20.99 18.4301 21.49H16.5301C16.0101 21.49 15.5801 21.92 15.5801 22.44V24.53C15.5801 25.05 16.0101 25.48 16.5301 25.48H18.4301C18.5801 25.98 18.7801 26.46 19.0201 26.91L17.6801 28.25C17.3101 28.62 17.3101 29.23 17.6801 29.6L19.1601 31.08C19.5301 31.45 20.1401 31.45 20.5101 31.08L21.8501 29.73C22.3001 29.98 22.7801 30.18 23.2801 30.32V32.22C23.2801 32.74 23.7101 33.17 24.2301 33.17H26.3201C26.8401 33.17 27.2701 32.74 27.2701 32.22V30.32C27.7701 30.17 28.2501 29.97 28.7001 29.73L30.0401 31.08C30.4101 31.45 31.0201 31.45 31.3901 31.08L32.8701 29.6C33.2401 29.23 33.2401 28.63 32.8701 28.25L31.5201 26.91C31.7701 26.46 31.9701 25.98 32.1201 25.48H34.0201C34.5401 25.48 34.9701 25.05 34.9701 24.53V22.44C34.9801 21.91 34.5601 21.49 34.0301 21.49ZM25.2801 27.61C23.0001 27.61 21.1601 25.76 21.1601 23.49C21.1601 21.21 23.0101 19.37 25.2801 19.37C27.5601 19.37 29.4001 21.22 29.4001 23.49C29.4001 25.76 27.5501 27.61 25.2801 27.61Z" fill="#839299"/>
<path fill-rule="evenodd" clip-rule="evenodd" d="M42.3993 21.48L40.6593 24.5L38.9193 27.52H41.0793C40.4593 30.89 38.8093 33.91 36.4793 36.24C33.7493 38.97 30.0793 40.75 25.9893 41.07C24.1393 41.21 24.3793 43.97 26.1993 43.84C30.9693 43.48 35.2493 41.39 38.4393 38.21C41.2693 35.38 43.2293 31.67 43.8893 27.53H45.8793L44.1393 24.51L42.3993 21.48Z" fill="#54CC5A"/>
<path fill-rule="evenodd" clip-rule="evenodd" d="M10.5506 42.77H6.95062C6.85062 44.1 6.42062 45.19 5.64062 46.03H11.8606C11.0806 45.19 10.6506 44.1 10.5506 42.77Z" fill="#002548"/>
<path fill-rule="evenodd" clip-rule="evenodd" d="M0.66 31.91H16.84C17.2 31.91 17.5 32.2 17.5 32.57V42.3C17.5 42.66 17.21 42.96 16.84 42.96H0.66C0.29 42.95 0 42.66 0 42.3V32.57C0 32.2 0.29 31.91 0.66 31.91Z" fill="#0054A6"/>
<path fill-rule="evenodd" clip-rule="evenodd" d="M4.6807 45.84H12.8107C13.0707 45.84 13.2707 45.94 13.2707 46.07V46.75C13.2707 46.88 13.0607 46.98 12.8107 46.98H4.6807C4.4207 46.98 4.2207 46.88 4.2207 46.75V46.07C4.2207 45.95 4.4307 45.84 4.6807 45.84Z" fill="#0054A6"/>
<path fill-rule="evenodd" clip-rule="evenodd" d="M0.5 32.5H17V42.35H0.5V32.5Z" fill="#62DBFB"/>
<path fill-rule="evenodd" clip-rule="evenodd" d="M43.0506 13.87H39.4506C39.3506 15.2 38.9206 16.29 38.1406 17.13H44.3606C43.5906 16.29 43.1506 15.2 43.0506 13.87Z" fill="#002548"/>
<path fill-rule="evenodd" clip-rule="evenodd" d="M33.16 3.01001H49.34C49.71 3.01001 50 3.30001 50 3.67001V13.4C50 13.76 49.71 14.06 49.34 14.06H33.16C32.8 14.06 32.5 13.77 32.5 13.4V3.67001C32.5 3.30001 32.8 3.01001 33.16 3.01001Z" fill="#0054A6"/>
<path fill-rule="evenodd" clip-rule="evenodd" d="M33 3.60999H49.5V13.46H33V3.60999Z" fill="#62DBFB"/>
<path fill-rule="evenodd" clip-rule="evenodd" d="M37.1908 16.94H45.3208C45.5808 16.94 45.7808 17.05 45.7808 17.18V17.9C45.7808 18.03 45.5708 18.14 45.3208 18.14H37.1908C36.9308 18.14 36.7308 18.03 36.7308 17.9V17.18C36.7208 17.05 36.9308 16.94 37.1908 16.94Z" fill="#0054A6"/>
<path fill-rule="evenodd" clip-rule="evenodd" d="M8.14992 27.16L9.88992 24.14L11.6299 21.12H9.46992C10.0899 17.75 11.7399 14.73 14.0699 12.4C16.7999 9.66998 20.4699 7.88998 24.5599 7.56998C26.4099 7.42998 26.1699 4.66998 24.3499 4.79998C19.5799 5.15998 15.2999 7.24998 12.1099 10.43C9.27992 13.26 7.31992 16.97 6.65992 21.11H4.66992L6.40992 24.13L8.14992 27.16Z" fill="#54CC5A"/>
</svg>
