<svg width="1600" height="916" viewBox="0 0 1600 916" fill="none" xmlns="http://www.w3.org/2000/svg">
<path d="M1600 -4H0V916H1600V-4Z" fill="#026363"/>
<mask id="mask0_8114_16475" style="mask-type:luminance" maskUnits="userSpaceOnUse" x="0" y="-4" width="1600" height="920">
<path d="M1600 -4H0V916H1600V-4Z" fill="white"/>
</mask>
<g mask="url(#mask0_8114_16475)">
<g opacity="0.5">
<path d="M1552 230.55C1433.7 230.55 1337.45 134.3 1337.45 15.9999C1337.45 -102.3 1433.7 -198.55 1552 -198.55C1670.3 -198.55 1766.55 -102.3 1766.55 15.9999C1766.55 134.3 1670.3 230.55 1552 230.55ZM1552 -195.91C1435.15 -195.91 1340.09 -100.85 1340.09 15.9999C1340.09 132.85 1435.15 227.91 1552 227.91C1668.85 227.91 1763.91 132.85 1763.91 15.9999C1763.91 -100.85 1668.85 -195.91 1552 -195.91Z" fill="#D2D9DC" fill-opacity="0.25"/>
<path d="M1552 295.21C1398.04 295.21 1272.79 169.96 1272.79 16C1272.79 -137.96 1398.04 -263.21 1552 -263.21C1705.96 -263.21 1831.21 -137.96 1831.21 16C1831.21 169.96 1705.96 295.21 1552 295.21ZM1552 -260.56C1399.5 -260.56 1275.44 -136.49 1275.44 16C1275.44 168.49 1399.5 292.56 1552 292.56C1704.5 292.56 1828.56 168.5 1828.56 16C1828.56 -136.5 1704.5 -260.56 1552 -260.56Z" fill="#D2D9DC" fill-opacity="0.25"/>
<path d="M1552 359.87C1460.15 359.87 1373.8 324.1 1308.85 259.15C1243.9 194.2 1208.13 107.85 1208.13 15.9999C1208.13 -75.8501 1243.9 -162.2 1308.85 -227.15C1373.8 -292.1 1460.15 -327.87 1552 -327.87C1643.85 -327.87 1730.2 -292.1 1795.15 -227.15C1860.1 -162.2 1895.87 -75.8501 1895.87 15.9999C1895.87 107.85 1860.1 194.2 1795.15 259.15C1730.2 324.1 1643.85 359.87 1552 359.87ZM1552 -325.22C1460.86 -325.22 1375.17 -289.73 1310.72 -225.28C1246.27 -160.83 1210.78 -75.1401 1210.78 15.9999C1210.78 107.14 1246.27 192.83 1310.72 257.28C1375.17 321.73 1460.86 357.22 1552 357.22C1643.14 357.22 1728.83 321.73 1793.28 257.28C1857.73 192.83 1893.22 107.14 1893.22 15.9999C1893.22 -75.1401 1857.73 -160.83 1793.28 -225.28C1728.83 -289.73 1643.14 -325.22 1552 -325.22Z" fill="#D2D9DC" fill-opacity="0.25"/>
<path d="M1552 424.53C1442.88 424.53 1340.29 382.04 1263.13 304.88C1185.97 227.72 1143.47 125.12 1143.47 16C1143.47 -93.12 1185.96 -195.71 1263.12 -272.87C1340.28 -350.03 1442.88 -392.53 1552 -392.53C1661.12 -392.53 1763.71 -350.04 1840.87 -272.88C1918.03 -195.72 1960.53 -93.12 1960.53 16C1960.53 125.12 1918.04 227.71 1840.88 304.87C1763.72 382.03 1661.12 424.53 1552 424.53ZM1552 -389.88C1443.59 -389.88 1341.66 -347.66 1265 -271C1188.34 -194.34 1146.12 -92.41 1146.12 16C1146.12 124.41 1188.34 226.34 1265 303C1341.66 379.66 1443.59 421.88 1552 421.88C1660.41 421.88 1762.34 379.66 1839 303C1915.66 226.34 1957.88 124.41 1957.88 16C1957.88 -92.41 1915.66 -194.34 1839 -271C1762.34 -347.66 1660.41 -389.88 1552 -389.88Z" fill="#D2D9DC" fill-opacity="0.25"/>
<path d="M1552 489.18C1488.12 489.18 1426.15 476.67 1367.82 451.99C1311.47 428.16 1260.87 394.04 1217.41 350.58C1173.95 307.14 1139.83 256.53 1116 200.18C1091.33 141.85 1078.82 79.8801 1078.82 16.0001C1078.82 -47.8799 1091.33 -109.85 1116 -168.18C1139.83 -224.53 1173.95 -275.13 1217.41 -318.59C1260.87 -362.05 1311.47 -396.16 1367.82 -420C1426.16 -444.68 1488.13 -457.19 1552 -457.19C1615.87 -457.19 1677.85 -444.68 1736.18 -420C1792.53 -396.17 1843.13 -362.05 1886.59 -318.59C1930.05 -275.13 1964.16 -224.53 1988 -168.18C2012.68 -109.84 2025.19 -47.8699 2025.19 16.0001C2025.19 79.8701 2012.67 141.85 1988 200.18C1964.17 256.53 1930.05 307.13 1886.59 350.59C1843.13 394.05 1792.53 428.16 1736.18 452C1677.85 476.67 1615.88 489.18 1552 489.18ZM1552 -454.54C1426.31 -454.54 1308.15 -405.6 1219.28 -316.72C1130.41 -227.84 1081.46 -109.69 1081.46 16.0001C1081.46 141.69 1130.4 259.85 1219.28 348.72C1308.16 437.59 1426.31 486.54 1552 486.54C1677.69 486.54 1795.85 437.6 1884.72 348.72C1973.59 259.85 2022.54 141.68 2022.54 16.0001C2022.54 -109.68 1973.6 -227.85 1884.72 -316.72C1795.85 -405.59 1677.69 -454.54 1552 -454.54Z" fill="#D2D9DC" fill-opacity="0.25"/>
<path d="M1552 553.84C1479.39 553.84 1408.96 539.62 1342.65 511.57C1278.6 484.48 1221.08 445.7 1171.69 396.31C1122.3 346.92 1083.52 289.4 1056.43 225.35C1028.38 159.04 1014.16 88.61 1014.16 16C1014.16 -56.61 1028.38 -127.04 1056.43 -193.35C1083.52 -257.4 1122.3 -314.92 1171.69 -364.31C1221.08 -413.7 1278.6 -452.48 1342.65 -479.57C1408.96 -507.62 1479.39 -521.84 1552 -521.84C1624.61 -521.84 1695.04 -507.62 1761.35 -479.57C1825.4 -452.48 1882.92 -413.7 1932.31 -364.31C1981.7 -314.92 2020.48 -257.4 2047.57 -193.35C2075.62 -127.04 2089.84 -56.61 2089.84 16C2089.84 88.61 2075.62 159.04 2047.57 225.35C2020.48 289.4 1981.7 346.92 1932.31 396.31C1882.92 445.7 1825.4 484.48 1761.35 511.57C1695.04 539.62 1624.61 553.84 1552 553.84ZM1552 -519.2C1479.75 -519.2 1409.66 -505.05 1343.68 -477.14C1279.95 -450.18 1222.71 -411.59 1173.56 -362.44C1124.41 -313.29 1085.82 -256.05 1058.86 -192.32C1030.95 -126.34 1016.8 -56.25 1016.8 16C1016.8 88.25 1030.95 158.34 1058.86 224.32C1085.82 288.05 1124.41 345.29 1173.56 394.44C1222.71 443.59 1279.95 482.18 1343.68 509.14C1409.66 537.05 1479.75 551.2 1552 551.2C1624.25 551.2 1694.34 537.05 1760.32 509.14C1824.05 482.18 1881.29 443.59 1930.44 394.44C1979.59 345.29 2018.18 288.05 2045.14 224.32C2073.05 158.34 2087.2 88.25 2087.2 16C2087.2 -56.25 2073.05 -126.34 2045.14 -192.32C2018.18 -256.05 1979.59 -313.29 1930.44 -362.44C1881.29 -411.59 1824.05 -450.18 1760.32 -477.14C1694.34 -505.05 1624.25 -519.2 1552 -519.2Z" fill="#D2D9DC" fill-opacity="0.25"/>
<path d="M1552 618.5C1470.66 618.5 1391.76 602.57 1317.48 571.15C1245.73 540.8 1181.3 497.36 1125.97 442.03C1070.64 386.7 1027.19 322.27 996.85 250.52C965.43 176.24 949.5 97.34 949.5 16C949.5 -65.34 965.43 -144.24 996.85 -218.52C1027.2 -290.27 1070.64 -354.7 1125.97 -410.03C1181.3 -465.36 1245.74 -508.8 1317.48 -539.15C1391.76 -570.57 1470.66 -586.5 1552 -586.5C1633.34 -586.5 1712.24 -570.57 1786.52 -539.15C1858.27 -508.8 1922.7 -465.36 1978.03 -410.03C2033.36 -354.7 2076.8 -290.26 2107.15 -218.52C2138.57 -144.24 2154.5 -65.34 2154.5 16C2154.5 97.34 2138.57 176.24 2107.15 250.52C2076.8 322.27 2033.36 386.7 1978.03 442.03C1922.7 497.36 1858.26 540.81 1786.52 571.15C1712.24 602.57 1633.34 618.5 1552 618.5ZM1552 -583.85C1471.02 -583.85 1392.46 -567.99 1318.51 -536.71C1247.08 -506.5 1182.93 -463.25 1127.84 -408.16C1072.75 -353.07 1029.5 -288.92 999.28 -217.49C968 -143.54 952.14 -64.98 952.14 16C952.14 96.98 968.01 175.54 999.28 249.49C1029.49 320.92 1072.74 385.07 1127.83 440.16C1182.92 495.25 1247.07 538.5 1318.5 568.71C1392.45 599.99 1471.01 615.85 1551.99 615.85C1632.97 615.85 1711.53 599.99 1785.48 568.71C1856.91 538.5 1921.06 495.25 1976.15 440.16C2031.24 385.07 2074.49 320.92 2104.7 249.49C2135.98 175.54 2151.84 96.98 2151.84 16C2151.84 -64.98 2135.98 -143.54 2104.7 -217.49C2074.49 -288.92 2031.24 -353.07 1976.15 -408.16C1921.06 -463.25 1856.91 -506.5 1785.48 -536.71C1711.54 -567.99 1632.98 -583.85 1552 -583.85Z" fill="#D2D9DC" fill-opacity="0.25"/>
</g>
</g>
<mask id="mask1_8114_16475" style="mask-type:luminance" maskUnits="userSpaceOnUse" x="0" y="-4" width="1600" height="920">
<path d="M1600 -4H0V916H1600V-4Z" fill="white"/>
</mask>
<g mask="url(#mask1_8114_16475)">
<g opacity="0.25">
<path d="M569.693 618.88L-40.5469 1229.12" stroke="#D2D9DC" stroke-width="2" stroke-miterlimit="10"/>
<path d="M511.002 618.88L-99.2383 1229.12" stroke="#D2D9DC" stroke-width="2" stroke-miterlimit="10"/>
<path d="M452.31 618.88L-157.93 1229.12" stroke="#D2D9DC" stroke-width="2" stroke-miterlimit="10"/>
<path d="M393.623 618.88L-216.617 1229.12" stroke="#D2D9DC" stroke-width="2" stroke-miterlimit="10"/>
<path d="M334.935 618.88L-275.305 1229.12" stroke="#D2D9DC" stroke-width="2" stroke-miterlimit="10"/>
<path d="M276.24 618.88L-334 1229.12" stroke="#D2D9DC" stroke-width="2" stroke-miterlimit="10"/>
<path d="M217.552 618.88L-392.688 1229.12" stroke="#D2D9DC" stroke-width="2" stroke-miterlimit="10"/>
</g>
</g>
<mask id="mask2_8114_16475" style="mask-type:luminance" maskUnits="userSpaceOnUse" x="0" y="0" width="1600" height="916">
<path d="M1600 0H0V916H1600V0Z" fill="white"/>
</mask>
<g mask="url(#mask2_8114_16475)">
<path opacity="0.25" d="M1671 884C1671 932.049 1632.05 971 1584 971C1535.95 971 1497 932.049 1497 884C1497 835.951 1535.95 797 1584 797C1632.05 797 1671 835.951 1671 884Z" stroke="white" stroke-width="2"/>
</g>
</svg>
