<svg width="65" height="65" viewBox="0 0 65 65" fill="none" xmlns="http://www.w3.org/2000/svg">
<path d="M64.6477 14.3001H63.5427C62.1764 14.3001 60.8894 14.9372 60.0587 16.0214L48.7487 30.8114L37.4387 16.0214C36.6106 14.9372 35.3223 14.3001 33.9573 14.3001H32.8523L47.1146 32.9499L32.5468 52.0001H33.6518C35.0181 52.0001 36.3051 51.3631 37.1345 50.2789L48.75 35.0898L60.3655 50.2789C61.1949 51.3631 62.4819 52.0001 63.8482 52.0001H64.9532L50.3854 32.9499L64.6477 14.3001ZM27.6757 44.5148C24.3555 49.5601 17.8191 52.1458 11.57 49.8656C6.0723 47.8597 2.6 42.3944 2.6 36.5418V35.1002H18.2H32.5V29.7259C32.5 21.2694 26.2366 13.866 17.8165 13.0743C8.1549 12.1656 0 19.7731 0 29.2501V36.4951C0 43.4774 4.1795 49.9683 10.7497 52.333C19.3336 55.4217 28.3621 50.812 31.4145 42.9002H30.5851C29.4008 42.9002 28.3257 43.5255 27.6757 44.5148ZM2.6 29.2501C2.6 21.7231 8.723 15.6001 16.25 15.6001C23.777 15.6001 29.9 21.7231 29.9 29.2501V32.5001H2.6V29.2501Z" fill="black"/>
</svg>
