<svg width="50" height="50" viewBox="0 0 50 50" fill="none" xmlns="http://www.w3.org/2000/svg">
<path d="M44.043 4.49219V30.8594L41.2014 33.7891H2.66609L0 30.8594V4.49219H44.043Z" fill="#47568C"/>
<path d="M44.043 4.49219V30.8594L41.2014 33.7891H22.0703V4.49219H44.043Z" fill="#2C3B73"/>
<path d="M2.92969 7.42188H41.1133V33.7891H2.92969V7.42188Z" fill="#25D9F8"/>
<path d="M22.0703 7.42188H41.1133V33.7891H22.0703V7.42188Z" fill="#00C0F1"/>
<path d="M17.6758 38.1836H26.4648V44.043H17.6758V38.1836Z" fill="#47568C"/>
<path d="M22.0703 38.1836H26.4648V44.043H22.0703V38.1836Z" fill="#2C3B73"/>
<path d="M1.46484 30.8594H30.8594V33.7891H1.46484V30.8594Z" fill="black"/>
<path d="M11.8164 42.5781H30.8594V45.5078H11.8164V42.5781Z" fill="#61729B"/>
<path d="M22.0703 42.5781H30.8594V45.5078H22.0703V42.5781Z" fill="#47568C"/>
<path d="M0 30.8594H44.043V39.6484H0V30.8594Z" fill="#61729B"/>
<path d="M22.0703 30.8594H44.043V39.6484H22.0703V30.8594Z" fill="#47568C"/>
<path d="M29.3945 13.2812V39.6484L32.3242 42.5781H47.0703L50 39.6484V13.2812H29.3945Z" fill="#2C3B73"/>
<path d="M32.3242 16.2109H47.0703V42.5781H32.3242V16.2109Z" fill="#25D9F8"/>
<path d="M29.3945 39.6484H50V45.5078H29.3945V39.6484Z" fill="#47568C"/>
<path d="M39.2164 18.105L37.1451 20.1764L39.0391 22.0704H22.674L24.568 20.1764L22.4966 18.105L17.0664 23.5352L22.4966 28.9654L24.568 26.894L22.674 25H39.0391L37.1451 26.894L39.2164 28.9654L44.6467 23.5352L39.2164 18.105Z" fill="#E0F4FF"/>
</svg>
