<svg width="40" height="40" viewBox="0 0 40 40" fill="none" xmlns="http://www.w3.org/2000/svg">
<g clip-path="url(#clip0_11642_34954)">
<path d="M20 40C31.0457 40 40 31.0457 40 20C40 8.9543 31.0457 0 20 0C8.9543 0 0 8.9543 0 20C0 31.0457 8.9543 40 20 40Z" fill="#3579EA"/>
<path d="M26.3336 17.6318L25.9313 21.1159C25.9146 21.2749 25.8401 21.4222 25.722 21.5299C25.6038 21.6375 25.4502 21.6981 25.2904 21.7H21.654L21.6359 32.0295C21.6371 32.152 21.5901 32.2699 21.505 32.358C21.42 32.446 21.3037 32.497 21.1813 32.5H17.4972C17.436 32.5 17.3753 32.4877 17.319 32.4637C17.2626 32.4398 17.2117 32.4047 17.1692 32.3605C17.1268 32.3164 17.0937 32.2641 17.0719 32.2068C17.0502 32.1495 17.0402 32.0885 17.0427 32.0273V21.7H14.3154C14.2297 21.6991 14.1451 21.6814 14.0663 21.6477C13.9875 21.6141 13.9161 21.5653 13.8562 21.5041C13.7962 21.4429 13.7489 21.3705 13.717 21.291C13.685 21.2116 13.6691 21.1266 13.67 21.0409L13.6563 17.5568C13.6551 17.4709 13.6709 17.3855 13.7026 17.3056C13.7344 17.2258 13.7816 17.1529 13.8416 17.0913C13.9015 17.0297 13.973 16.9805 14.052 16.9465C14.1309 16.9125 14.2158 16.8944 14.3018 16.8932H17.0427V13.5295C17.0427 9.625 19.3609 7.5 22.7609 7.5H25.5472C25.6334 7.50089 25.7185 7.51878 25.7977 7.55264C25.877 7.5865 25.9487 7.63567 26.0089 7.69733C26.0691 7.75898 26.1165 7.83191 26.1484 7.91193C26.1803 7.99195 26.1962 8.07749 26.195 8.16364V11.0955C26.1962 11.1816 26.1803 11.2671 26.1484 11.3472C26.1165 11.4272 26.0691 11.5001 26.0089 11.5618C25.9487 11.6234 25.877 11.6726 25.7977 11.7065C25.7185 11.7403 25.6334 11.7582 25.5472 11.7591H23.8381C21.9904 11.7591 21.6313 12.6682 21.6313 13.9818V16.8932H25.6927C25.785 16.8943 25.8761 16.915 25.9599 16.9539C26.0437 16.9928 26.1183 17.0489 26.1789 17.1187C26.2394 17.1885 26.2845 17.2703 26.3111 17.3587C26.3378 17.4471 26.3455 17.5402 26.3336 17.6318Z" fill="white"/>
</g>
<defs>
<clipPath id="clip0_11642_34954">
<rect width="40" height="40" fill="white"/>
</clipPath>
</defs>
</svg>
