<svg width="420" height="338" viewBox="0 0 420 338" fill="none" xmlns="http://www.w3.org/2000/svg">
<path d="M210.002 264.197C293.596 264.197 361.363 261.02 361.363 257.102C361.363 253.183 293.596 250.006 210.002 250.006C126.407 250.006 58.6406 253.183 58.6406 257.102C58.6406 261.02 126.407 264.197 210.002 264.197Z" fill="#D2D9DC"/>
<path d="M80.1318 159.769C80.5422 159.512 81.048 159.527 81.4585 159.776C81.5684 159.842 81.6857 159.908 81.7956 159.967C81.9129 160.033 82.0302 160.091 82.1475 160.143C82.5799 160.348 82.8731 160.766 82.8878 161.242L82.9391 162.877L88.2606 162.708L88.2092 161.073C88.1946 160.597 88.4585 160.157 88.8763 159.923C89.1108 159.798 89.3307 159.659 89.5506 159.505C89.9391 159.234 90.4522 159.197 90.87 159.417L92.3066 160.187L94.8208 155.495L93.3841 154.726C92.9663 154.499 92.7171 154.059 92.7244 153.575C92.7318 153.311 92.7244 153.047 92.6951 152.783C92.6511 152.307 92.871 151.845 93.2815 151.589L94.6668 150.724L91.8595 146.201L90.4668 147.066C90.0637 147.315 89.5506 147.301 89.1475 147.059C89.0375 146.993 88.9202 146.927 88.8103 146.868C88.693 146.81 88.5757 146.751 88.4585 146.692C88.026 146.487 87.7328 146.069 87.7181 145.593L87.6668 143.958L82.3454 144.127L82.3967 145.754C82.4113 146.231 82.1475 146.67 81.7297 146.905C81.4951 147.029 81.2679 147.169 81.0553 147.323C80.6595 147.594 80.1537 147.631 79.7359 147.411L78.2993 146.641L75.7852 151.332L77.2218 152.102C77.6396 152.329 77.8962 152.769 77.8815 153.252C77.8742 153.516 77.8815 153.788 77.9035 154.051C77.9475 154.528 77.7202 154.99 77.3171 155.239L75.9318 156.096L78.7391 160.619L80.1318 159.769ZM81.4658 151.361C82.6019 149.243 85.248 148.444 87.3736 149.58C89.4993 150.716 90.2909 153.362 89.1548 155.481C88.0187 157.599 85.3799 158.398 83.2543 157.262C81.1286 156.126 80.3297 153.487 81.4658 151.361Z" fill="#839299"/>
<path d="M286.856 91.5203C287.149 91.6889 287.311 92.0114 287.289 92.3412C287.281 92.4292 287.281 92.5245 287.281 92.6124C287.281 92.7077 287.281 92.7957 287.289 92.891C287.303 93.2282 287.149 93.5433 286.856 93.7119L285.867 94.2837L287.728 97.5161L288.718 96.9444C289.011 96.7758 289.363 96.7905 289.649 96.9737C289.803 97.0763 289.964 97.1643 290.133 97.2522C290.433 97.4062 290.624 97.7067 290.624 98.0365V99.18H294.355V98.0365C294.355 97.6994 294.545 97.3988 294.846 97.2522C295.014 97.1643 295.168 97.0763 295.33 96.9737C295.608 96.7905 295.967 96.7758 296.26 96.9444L297.25 97.5161L299.112 94.2837L298.115 93.7119C297.829 93.5433 297.668 93.2282 297.682 92.891C297.69 92.803 297.69 92.7077 297.69 92.6198C297.69 92.5245 297.69 92.4365 297.682 92.3486C297.668 92.0114 297.829 91.6962 298.115 91.5276L299.104 90.9559L297.243 87.7234L296.253 88.2952C295.96 88.4638 295.608 88.4491 295.322 88.2658C295.168 88.1632 295.007 88.0679 294.838 87.9873C294.538 87.8334 294.347 87.5329 294.347 87.203V86.0596H290.616V87.203C290.616 87.5402 290.426 87.8407 290.125 87.9873C289.957 88.0753 289.796 88.1632 289.642 88.2658C289.363 88.4491 289.004 88.4638 288.711 88.2952L287.721 87.7234L285.859 90.9559L286.856 91.5203ZM292.486 89.5632C294.171 89.5632 295.542 90.9339 295.542 92.6198C295.542 94.3056 294.171 95.6763 292.486 95.6763C290.8 95.6763 289.429 94.313 289.429 92.6198C289.429 90.9339 290.8 89.5632 292.486 89.5632Z" fill="#839299"/>
<path d="M314.023 90.8533C314.023 98.8722 320.525 105.374 328.544 105.374C336.563 105.374 343.064 98.8722 343.064 90.8533C343.064 82.8345 336.563 76.3329 328.544 76.3329C320.525 76.3329 314.023 82.8271 314.023 90.8533ZM321.764 90.8533C321.764 87.1078 324.798 84.0659 328.551 84.0659C332.297 84.0659 335.339 87.1004 335.339 90.8533C335.339 94.5989 332.304 97.6334 328.551 97.6334C324.798 97.6334 321.764 94.5989 321.764 90.8533Z" fill="#839299"/>
<path d="M325.75 76.9338H331.335L331.027 72.9757H326.058L325.75 76.9338Z" fill="#839299"/>
<path d="M336.379 78.8104L340.33 82.7612L342.91 79.7487L339.399 76.2377L336.379 78.8104Z" fill="#839299"/>
<path d="M342.566 87.6576V93.2429L346.525 92.9351V87.9655L342.566 87.6576Z" fill="#839299"/>
<path d="M340.689 98.293L336.738 102.236L339.751 104.817L343.262 101.306L340.689 98.293Z" fill="#839299"/>
<path d="M331.843 104.48H326.258L326.566 108.431H331.535L331.843 104.48Z" fill="#839299"/>
<path d="M321.207 102.595L317.264 98.6445L314.684 101.657L318.195 105.168L321.207 102.595Z" fill="#839299"/>
<path d="M315.021 93.7483V88.163L311.07 88.4708V93.4405L315.021 93.7483Z" fill="#839299"/>
<path d="M316.905 83.12L320.856 79.1692L317.843 76.5891L314.332 80.1001L316.905 83.12Z" fill="#839299"/>
<path d="M353.3 246.1H69.0195V256.457H353.3V246.1Z" fill="#839299"/>
<path d="M238.866 246.1H183.445V250.314H238.866V246.1Z" fill="#5F737C"/>
<path d="M323.923 95.2294H98.3906V246.092H323.923V95.2294Z" fill="#D2D9DC"/>
<path d="M322.287 97.069H100.031V244.252H322.287V97.069Z" fill="#002548"/>
<path d="M312.443 106.532H109.875V234.797H312.443V106.532Z" fill="#F9FAFB"/>
<path d="M312.443 106.532H109.875V111.465H312.443V106.532Z" fill="#839299"/>
<path d="M114.522 109.002C114.522 109.515 114.104 109.933 113.591 109.933C113.078 109.933 112.66 109.515 112.66 109.002C112.66 108.489 113.078 108.071 113.591 108.071C114.104 108.064 114.522 108.482 114.522 109.002Z" fill="#C8C8C8"/>
<path d="M118.334 109.002C118.334 109.515 117.917 109.933 117.404 109.933C116.89 109.933 116.473 109.515 116.473 109.002C116.473 108.489 116.89 108.071 117.404 108.071C117.917 108.064 118.334 108.482 118.334 109.002Z" fill="white"/>
<path d="M122.147 109.002C122.147 109.515 121.729 109.933 121.216 109.933C120.703 109.933 120.285 109.515 120.285 109.002C120.285 108.489 120.703 108.071 121.216 108.071C121.729 108.064 122.147 108.482 122.147 109.002Z" fill="#0054A6"/>
<path d="M309.261 111.465H109.875V138.937H309.261V111.465Z" fill="#0054A6"/>
<path d="M312.442 111.465H309.254V220.746H312.442V111.465Z" fill="#DCDCDC"/>
<path d="M310.852 149.353C310.398 149.353 310.031 148.986 310.031 148.532V112.931C310.031 112.476 310.398 112.11 310.852 112.11C311.307 112.11 311.673 112.476 311.673 112.931V148.532C311.673 148.986 311.307 149.353 310.852 149.353Z" fill="#A8A8A8"/>
<path d="M300.46 116.801H257.559V122.526H300.46V116.801Z" fill="white"/>
<path d="M300.526 122.585H257.5V116.743H300.526V122.585ZM257.617 122.467H300.402V116.86H257.617V122.467Z" fill="#C8C8C8"/>
<path d="M300.525 116.743H294.676V122.592H300.525V116.743Z" fill="#839299"/>
<path d="M299.42 121.266L298.892 121.669L297.91 120.379L297.551 119.902C297.624 119.873 297.69 119.836 297.756 119.785C297.881 119.69 297.969 119.565 298.027 119.433L298.408 119.932L299.42 121.266Z" fill="white"/>
<path d="M298.381 118.224C297.897 117.593 296.988 117.469 296.358 117.96C295.728 118.443 295.603 119.352 296.094 119.983C296.527 120.554 297.304 120.708 297.919 120.379C297.985 120.342 298.059 120.298 298.117 120.247C298.234 120.159 298.337 120.049 298.418 119.939C298.77 119.433 298.77 118.737 298.381 118.224ZM297.758 119.785C297.692 119.836 297.626 119.873 297.553 119.902C297.201 120.041 296.79 119.939 296.549 119.624C296.255 119.242 296.329 118.7 296.71 118.414C297.091 118.121 297.633 118.194 297.919 118.575C298.117 118.832 298.146 119.154 298.029 119.433C297.971 119.572 297.883 119.69 297.758 119.785Z" fill="white"/>
<path d="M259.07 117.923H258.762V121.398H259.07V117.923Z" fill="#C8C8C8"/>
<path d="M249.99 116.802H133.277V122.526H249.99V116.802Z" fill="white"/>
<path d="M250.042 122.585H133.219V116.743H250.042V122.585ZM133.336 122.468H249.932V116.86H133.336V122.468Z" fill="#C8C8C8"/>
<path d="M134.781 117.923H134.473V121.398H134.781V117.923Z" fill="#C8C8C8"/>
<path d="M122.468 121.624L120.387 119.704L122.468 117.71L122.791 118.047L121.068 119.696L122.791 121.28L122.468 121.624Z" fill="white"/>
<path d="M127.503 117.703L129.592 119.623L127.51 121.617L127.188 121.28L128.91 119.631L127.188 118.047L127.503 117.703Z" fill="white"/>
<path d="M188.975 210.78H212.086V186.203H188.975V210.78Z" fill="#D2D9DC"/>
<path d="M192.16 191.581C191.771 193.626 193.53 195.392 195.583 195.004C196.726 194.784 197.65 193.86 197.87 192.717C198.258 190.672 196.492 188.905 194.447 189.294C193.303 189.514 192.38 190.437 192.16 191.581Z" fill="#F9FAFB"/>
<path d="M212.084 205.485H188.973V210.777H212.084V205.485Z" fill="#839299"/>
<path d="M196.602 205.507L212.082 205.485L204.357 195.956L196.602 205.507Z" fill="#5F737C"/>
<path d="M188.973 205.507H202.723L195.848 199.284L188.973 205.507Z" fill="#839299"/>
<path d="M119.063 181.333H164.508V146.465H119.063V181.333Z" fill="#D2D9DC"/>
<path d="M123.588 154.088C123.038 156.991 125.538 159.497 128.44 158.94C130.068 158.633 131.372 157.32 131.68 155.701C132.23 152.798 129.731 150.291 126.828 150.848C125.201 151.156 123.896 152.468 123.588 154.088Z" fill="#F9FAFB"/>
<path d="M134.055 173.82H164.51L149.279 155.056L134.055 173.82Z" fill="#5F737C"/>
<path d="M119.066 173.82H146.07L132.568 161.601L119.066 173.82Z" fill="#839299"/>
<path d="M164.511 173.82H119.066V181.333H164.511V173.82Z" fill="#839299"/>
<path d="M142.814 186.207H118.75V188.23H142.814V186.207Z" fill="#D2D9DC"/>
<path d="M183.209 190.899H118.75V192.922H183.209V190.899Z" fill="#D2D9DC"/>
<path d="M183.209 195.355H118.75V197.378H183.209V195.355Z" fill="#D2D9DC"/>
<path d="M183.209 199.811H118.75V201.834H183.209V199.811Z" fill="#D2D9DC"/>
<path d="M183.209 204.261H118.75V206.284H183.209V204.261Z" fill="#D2D9DC"/>
<path d="M183.209 208.717H118.75V210.74H183.209V208.717Z" fill="#D2D9DC"/>
<path d="M244.941 146.465H219.844V148.488H244.941V146.465Z" fill="#D2D9DC"/>
<path d="M256.383 151.164H219.844V153.187H256.383V151.164Z" fill="#D2D9DC"/>
<path d="M256.383 155.613H219.844V157.636H256.383V155.613Z" fill="#D2D9DC"/>
<path d="M256.383 160.069H219.844V162.092H256.383V160.069Z" fill="#D2D9DC"/>
<path d="M256.383 164.526H219.844V166.549H256.383V164.526Z" fill="#D2D9DC"/>
<path d="M256.383 173.432H219.844V175.455H256.383V173.432Z" fill="#D2D9DC"/>
<path d="M256.383 177.888H219.844V179.911H256.383V177.888Z" fill="#D2D9DC"/>
<path d="M256.383 182.338H219.844V184.361H256.383V182.338Z" fill="#D2D9DC"/>
<path d="M256.383 186.794H219.844V188.817H256.383V186.794Z" fill="#D2D9DC"/>
<path d="M256.383 195.7H219.844V197.723H256.383V195.7Z" fill="#D2D9DC"/>
<path d="M256.383 200.156H219.844V202.179H256.383V200.156Z" fill="#D2D9DC"/>
<path d="M256.383 204.606H219.844V206.629H256.383V204.606Z" fill="#D2D9DC"/>
<path d="M256.383 209.062H219.844V211.085H256.383V209.062Z" fill="#D2D9DC"/>
<path d="M300.524 151.164H263.984V153.187H300.524V151.164Z" fill="#D2D9DC"/>
<path d="M300.524 155.613H263.984V157.636H300.524V155.613Z" fill="#D2D9DC"/>
<path d="M300.524 146.707H263.984V148.73H300.524V146.707Z" fill="#D2D9DC"/>
<path d="M300.524 160.07H263.984V162.093H300.524V160.07Z" fill="#D2D9DC"/>
<path d="M300.524 164.526H263.984V166.549H300.524V164.526Z" fill="#D2D9DC"/>
<path d="M300.524 168.975H263.984V170.998H300.524V168.975Z" fill="#D2D9DC"/>
<path d="M300.524 173.432H263.984V175.455H300.524V173.432Z" fill="#D2D9DC"/>
<path d="M300.524 182.338H263.984V184.361H300.524V182.338Z" fill="#D2D9DC"/>
<path d="M300.524 186.794H263.984V188.817H300.524V186.794Z" fill="#D2D9DC"/>
<path d="M300.524 191.25H263.984V193.273H300.524V191.25Z" fill="#D2D9DC"/>
<path d="M300.524 195.7H263.984V197.723H300.524V195.7Z" fill="#D2D9DC"/>
<path d="M300.524 200.156H263.984V202.179H300.524V200.156Z" fill="#D2D9DC"/>
<path d="M195.634 146.465H171.57V151.882H195.634V146.465Z" fill="#D2D9DC"/>
<path d="M212.082 155.613H171.57V157.636H212.082V155.613Z" fill="#D2D9DC"/>
<path d="M212.082 160.069H171.57V162.092H212.082V160.069Z" fill="#D2D9DC"/>
<path d="M212.082 164.525H171.57V166.548H212.082V164.525Z" fill="#D2D9DC"/>
<path d="M212.082 168.975H171.57V170.998H212.082V168.975Z" fill="#D2D9DC"/>
<path d="M212.082 174.905H171.57V176.928H212.082V174.905Z" fill="#D2D9DC"/>
<path d="M212.082 179.354H171.57V181.377H212.082V179.354Z" fill="#D2D9DC"/>
<path d="M200.844 159.241L203.988 159.373V167.48H200.844V159.241Z" fill="#2D2F31"/>
<path d="M221.473 160.084V167.479H218.328V159.952L221.473 160.084Z" fill="#2D2F31"/>
<path d="M211.246 124.666L212.345 127.276L215.167 127.517L213.019 129.365L213.665 132.128L211.246 130.662L208.82 132.128L209.465 129.365L207.324 127.517L210.146 127.276L211.246 124.666Z" fill="#FFDD33"/>
<path d="M189.526 130.442L191.784 132.15L194.342 130.948L193.411 133.623L195.354 135.69L192.517 135.632L191.154 138.109L190.333 135.397L187.555 134.869L189.878 133.249L189.526 130.442Z" fill="#FFDD33"/>
<path d="M173.598 146.297L176.412 146.656L178.025 144.325L178.56 147.11L181.272 147.931L178.787 149.295L178.846 152.131L176.779 150.189L174.103 151.12L175.313 148.554L173.598 146.297Z" fill="#FFDD33"/>
<path d="M167.742 167.993L170.352 166.893L170.593 164.071L172.441 166.219L175.204 165.574L173.731 167.993L175.204 170.419L172.441 169.774L170.593 171.914L170.352 169.092L167.742 167.993Z" fill="#FFDD33"/>
<path d="M173.512 189.718L175.227 187.461L174.025 184.895L176.7 185.826L178.767 183.884L178.709 186.721L181.186 188.084L178.474 188.905L177.946 191.69L176.326 189.359L173.512 189.718Z" fill="#FFDD33"/>
<path d="M189.374 205.639L189.726 202.824L187.402 201.212L190.188 200.677L191.009 197.965L192.372 200.449L195.201 200.391L193.266 202.458L194.197 205.133L191.632 203.924L189.374 205.639Z" fill="#FFDD33"/>
<path d="M211.07 211.495L209.97 208.886L207.148 208.651L209.296 206.797L208.644 204.041L211.07 205.507L213.496 204.041L212.851 206.797L214.991 208.651L212.169 208.886L211.07 211.495Z" fill="#FFDD33"/>
<path d="M232.788 205.727L230.531 204.012L227.972 205.221L228.903 202.546L226.961 200.479L229.79 200.537L231.161 198.053L231.982 200.765L234.76 201.3L232.436 202.912L232.788 205.727Z" fill="#FFDD33"/>
<path d="M248.713 189.865L245.899 189.513L244.279 191.837L243.751 189.051L241.039 188.238L243.524 186.867L243.465 184.038L245.525 185.973L248.2 185.042L246.998 187.607L248.713 189.865Z" fill="#FFDD33"/>
<path d="M254.571 168.169L251.962 169.268L251.72 172.09L249.873 169.95L247.109 170.595L248.575 168.169L247.109 165.743L249.873 166.388L251.72 164.247L251.962 167.069L254.571 168.169Z" fill="#FFDD33"/>
<path d="M248.796 146.451L247.088 148.708L248.29 151.274L245.615 150.343L243.548 152.278L243.606 149.449L241.129 148.078L243.841 147.264L244.369 144.479L245.989 146.802L248.796 146.451Z" fill="#FFDD33"/>
<path d="M232.94 130.53L232.581 133.337L234.912 134.957L232.127 135.485L231.306 138.197L229.943 135.72L227.113 135.778L229.048 133.711L228.117 131.036L230.683 132.238L232.94 130.53Z" fill="#FFDD33"/>
<path d="M138.221 236.461C152.523 236.461 164.117 224.867 164.117 210.565C164.117 196.263 152.523 184.668 138.221 184.668C123.918 184.668 112.324 196.263 112.324 210.565C112.324 224.867 123.918 236.461 138.221 236.461Z" fill="#D2D9DC"/>
<path d="M154.535 202.34C154.535 202.34 152.226 220.834 148.429 224.99C143.87 229.981 140.564 229.248 138.725 231.821C138.717 231.821 138.717 231.828 138.717 231.828C136.877 229.248 133.572 229.981 129.012 224.99C125.216 220.826 122.914 202.34 122.914 202.34C132.919 197.488 138.725 192.042 138.725 192.042C138.725 192.042 138.725 192.042 138.732 192.049C138.908 192.211 144.691 197.561 154.535 202.34Z" fill="#0054A6"/>
<path opacity="0.19" d="M138.732 192.042V231.821C138.725 231.821 138.725 231.828 138.725 231.828C136.885 229.248 133.579 229.981 129.02 224.99C125.223 220.826 122.922 202.34 122.922 202.34C132.92 197.481 138.725 192.042 138.732 192.042C138.725 192.042 138.725 192.042 138.732 192.042Z" fill="#2D2F31"/>
<path d="M125.371 203.828C125.371 203.828 127.321 219.448 130.531 222.967C134.387 227.189 137.179 226.566 138.733 228.742C140.287 226.566 143.08 227.189 146.936 222.967C150.139 219.448 152.088 203.828 152.088 203.828C143.637 199.724 138.733 195.128 138.733 195.128C138.733 195.128 133.822 199.724 125.371 203.828Z" fill="#0054A6"/>
<path opacity="0.19" d="M152.082 203.828C152.082 203.828 150.132 219.448 146.921 222.966C143.073 227.188 140.28 226.573 138.727 228.735V195.135C138.873 195.274 143.762 199.789 152.082 203.828Z" fill="#2D2F31"/>
<path d="M141.634 208.747V211.173H140.762V208.747C140.762 207.567 139.868 206.614 138.768 206.614C137.669 206.614 136.775 207.574 136.775 208.747V211.173H135.902V208.747C135.902 207.061 137.192 205.691 138.776 205.691C140.344 205.691 141.634 207.061 141.634 208.747Z" fill="white"/>
<path d="M134.773 209.355V216.605H142.763V209.355H134.773ZM139.435 214.831H138.013L138.35 213.247C138.152 213.123 138.013 212.903 138.013 212.646C138.013 212.251 138.328 211.935 138.724 211.935C139.113 211.935 139.435 212.251 139.435 212.646C139.435 212.896 139.303 213.116 139.098 213.247L139.435 214.831Z" fill="white"/>
<path d="M123.577 105.89C126.935 91.9864 118.386 77.9934 104.483 74.6353C90.5801 71.2771 76.587 79.8255 73.2289 93.7286C69.8708 107.632 78.4191 121.625 92.3223 124.983C106.225 128.341 120.218 119.793 123.577 105.89Z" fill="#D2D9DC"/>
<path d="M81.1408 112.352H114.03L113.854 89.6145H80.9648L81.1408 112.352Z" fill="#002548"/>
<path d="M102.105 87.2616H113.73L113.855 89.6145H101.562L102.105 87.2616Z" fill="#002548"/>
<g opacity="0.1">
<path d="M81.1408 112.352H114.03L113.854 89.6145H80.9648L81.1408 112.352Z" fill="#002548"/>
<path d="M102.105 87.2616H113.73L113.855 89.6145H101.562L102.105 87.2616Z" fill="#002548"/>
</g>
<path d="M81.1641 112.353H114.053L116.597 90.9495H83.7002L81.1641 112.353Z" fill="#0054A6"/>
<path d="M105.236 88.7362H116.853L116.597 90.9498H104.305L105.236 88.7362Z" fill="#0054A6"/>
<path d="M101.983 98.0658V100.58H101.074V98.0658C101.074 96.849 100.151 95.8522 99.0072 95.8522C97.8711 95.8522 96.9402 96.8417 96.9402 98.0658V100.58H96.0312V98.0658C96.0312 96.3213 97.3653 94.8993 98.9998 94.8993C100.649 94.8993 101.983 96.3139 101.983 98.0658Z" fill="white"/>
<path d="M94.8789 98.6888V106.187H103.147V98.6888H94.8789ZM99.7093 104.355H98.2433L98.5878 102.713C98.3826 102.581 98.2433 102.354 98.2433 102.09C98.2433 101.679 98.5731 101.357 98.9763 101.357C99.3794 101.357 99.7093 101.679 99.7093 102.09C99.7093 102.354 99.57 102.581 99.3648 102.713L99.7093 104.355Z" fill="white"/>
<path d="M335.467 181.245C349.769 181.245 361.363 169.651 361.363 155.349C361.363 141.047 349.769 129.453 335.467 129.453C321.165 129.453 309.57 141.047 309.57 155.349C309.57 169.651 321.165 181.245 335.467 181.245Z" fill="#D2D9DC"/>
<path d="M332.785 152.058L344.909 139.941H350.817V145.717H347.034V149.639H343.252V153.56H339.323V157.408L338.693 158.039L332.785 152.058Z" fill="#0054A6"/>
<path d="M350.815 139.941V145.717H347.033V149.639H343.25V153.56H339.329V157.408L338.713 158.024L335.723 155.033L350.815 139.941Z" fill="#0054A6"/>
<path d="M322.933 167.949C326.686 171.702 332.763 171.695 336.515 167.949C340.261 164.204 340.268 158.12 336.515 154.374C332.763 150.621 326.686 150.629 322.941 154.374C319.188 158.12 319.188 164.196 322.933 167.949ZM328.533 162.356C329.515 163.339 329.515 164.922 328.533 165.904C327.551 166.886 325.96 166.886 324.986 165.904C324.003 164.922 324.003 163.331 324.986 162.356C325.96 161.374 327.551 161.374 328.533 162.356Z" fill="#0054A6"/>
<path opacity="0.19" d="M350.815 139.941V145.717H347.033V149.639H343.25V153.56H339.329V157.408L338.713 158.024L335.723 155.033L350.815 139.941Z" fill="#2D2F31"/>
<path d="M234.959 147.017H190V191.975H234.959V147.017Z" fill="#0054A6"/>
<path d="M216.145 184.036L215.601 180.787C217.206 179.716 219.214 177.781 221.092 174.29L221.344 171.16C221.571 171.337 221.849 171.437 222.126 171.233C222.759 170.765 222.477 169.868 222.391 169.397C222.306 168.926 222.717 168.518 222.717 168.518C223.975 166.768 222.253 165.978 221.789 165.804C221.803 165.594 221.816 165.38 221.828 165.165L221.865 164.698L221.867 164.698C221.867 164.698 222.482 158.525 221.899 156.877C221.375 155.396 219.77 155.454 219.45 155.481C220.045 155.421 219.818 154.457 219.818 154.457C219.47 154.92 218.775 154.2 218.929 153.942C219.084 153.685 218.672 152.449 218.466 152.861C218.26 153.273 217.642 153.427 217.642 153.427C217.487 151.728 216.149 151.162 216.149 151.162C214.81 150.853 213.111 151.78 213.111 151.78C211.309 151.78 209.044 153.376 209.044 153.376C208.735 153.17 209.919 152.552 209.919 152.552C209.868 152.294 208.58 152.809 208.58 152.809C209.095 152.191 210.64 152.14 210.64 152.14C207.242 151.574 206.624 154.508 205.389 154.747C204.153 154.985 203.592 156.065 204.159 155.55C204.725 155.035 205.131 155.281 205.131 155.281C205.131 155.281 203.278 155.693 203.039 158.885C202.8 162.077 203.026 164.137 203.026 164.137L203.037 164.136L203.17 165.804C202.706 165.978 200.985 166.768 202.243 168.518C202.243 168.518 202.655 168.925 202.569 169.396C202.483 169.867 202.201 170.765 202.835 171.233C203.102 171.431 203.373 171.343 203.596 171.177L203.887 174.846C203.887 174.846 205.916 178.218 208.602 180.367H208.601L208.167 184.035H208.017L196.762 188.118V191.975H228.199V188.005L216.145 184.036Z" fill="white"/>
<path d="M217.694 163.204C217.628 162.3 217.359 160.939 216.411 159.891C215.532 158.92 214.275 158.428 212.674 158.428C211.079 158.428 209.791 158.917 208.846 159.88C207.815 160.933 207.447 162.306 207.316 163.202C206.376 163.245 205.629 163.907 205.629 164.72V171.605C205.629 172.445 206.428 173.127 207.414 173.127H217.543C218.529 173.127 219.328 172.445 219.328 171.605V164.72C219.329 163.922 218.609 163.269 217.694 163.204ZM209.716 160.733C210.423 160.012 211.419 159.646 212.674 159.646C213.914 159.646 214.866 160.002 215.503 160.703C216.189 161.458 216.407 162.481 216.47 163.198H208.55C208.674 162.484 208.978 161.486 209.716 160.733Z" fill="#0054A6"/>
<path d="M212.509 166.141C211.878 166.141 211.367 166.652 211.367 167.282C211.367 167.72 211.614 168.1 211.976 168.291V169.794H212.972V168.325C213.372 168.147 213.65 167.747 213.65 167.282C213.651 166.652 213.139 166.141 212.509 166.141Z" fill="#CCDAFD"/>
<path d="M190 146.538V144" stroke="#0054A6" stroke-width="0.287282" stroke-miterlimit="10"/>
<path d="M190.551 146.538V144" stroke="#0054A6" stroke-width="0.287282" stroke-miterlimit="10"/>
<path d="M191.098 146.538V144" stroke="#0054A6" stroke-width="0.287282" stroke-miterlimit="10"/>
<path d="M191.648 146.538V144" stroke="#0054A6" stroke-width="0.287282" stroke-miterlimit="10"/>
<path d="M192.195 146.538V144" stroke="#0054A6" stroke-width="0.287282" stroke-miterlimit="10"/>
<path d="M192.742 146.538V144" stroke="#0054A6" stroke-width="0.287282" stroke-miterlimit="10"/>
<path d="M193.293 146.538V144" stroke="#0054A6" stroke-width="0.287282" stroke-miterlimit="10"/>
<path d="M193.84 146.538V144" stroke="#0054A6" stroke-width="0.287282" stroke-miterlimit="10"/>
<path d="M194.391 146.538V144" stroke="#0054A6" stroke-width="0.287282" stroke-miterlimit="10"/>
<path d="M194.938 146.538V144" stroke="#0054A6" stroke-width="0.287282" stroke-miterlimit="10"/>
<path d="M195.488 146.538V144" stroke="#0054A6" stroke-width="0.287282" stroke-miterlimit="10"/>
<path d="M196.035 146.538V144" stroke="#0054A6" stroke-width="0.287282" stroke-miterlimit="10"/>
<path d="M196.586 146.538V144" stroke="#0054A6" stroke-width="0.287282" stroke-miterlimit="10"/>
<path d="M197.133 146.538V144" stroke="#0054A6" stroke-width="0.287282" stroke-miterlimit="10"/>
<path d="M197.684 146.538V144" stroke="#0054A6" stroke-width="0.287282" stroke-miterlimit="10"/>
<path d="M198.23 146.538V144" stroke="#0054A6" stroke-width="0.287282" stroke-miterlimit="10"/>
<path d="M198.781 146.538V144" stroke="#0054A6" stroke-width="0.287282" stroke-miterlimit="10"/>
<path d="M199.328 146.538V144" stroke="#0054A6" stroke-width="0.287282" stroke-miterlimit="10"/>
<path d="M199.879 146.538V144" stroke="#0054A6" stroke-width="0.287282" stroke-miterlimit="10"/>
<path d="M200.426 146.538V144" stroke="#0054A6" stroke-width="0.287282" stroke-miterlimit="10"/>
<path d="M200.977 146.538V144" stroke="#0054A6" stroke-width="0.287282" stroke-miterlimit="10"/>
<path d="M201.523 146.538V144" stroke="#0054A6" stroke-width="0.287282" stroke-miterlimit="10"/>
<path d="M202.074 146.538V144" stroke="#0054A6" stroke-width="0.287282" stroke-miterlimit="10"/>
<path d="M202.621 146.538V144" stroke="#0054A6" stroke-width="0.287282" stroke-miterlimit="10"/>
<path d="M203.172 146.538V144" stroke="#0054A6" stroke-width="0.287282" stroke-miterlimit="10"/>
<path d="M203.719 146.538V144" stroke="#0054A6" stroke-width="0.287282" stroke-miterlimit="10"/>
<path d="M204.27 146.538V144" stroke="#0054A6" stroke-width="0.287282" stroke-miterlimit="10"/>
<path d="M204.816 146.538V144" stroke="#0054A6" stroke-width="0.287282" stroke-miterlimit="10"/>
<path d="M205.367 146.538V144" stroke="#0054A6" stroke-width="0.287282" stroke-miterlimit="10"/>
<path d="M205.914 146.538V144" stroke="#0054A6" stroke-width="0.287282" stroke-miterlimit="10"/>
<path d="M206.465 146.538V144" stroke="#0054A6" stroke-width="0.287282" stroke-miterlimit="10"/>
<path d="M207.012 146.538V144" stroke="#0054A6" stroke-width="0.287282" stroke-miterlimit="10"/>
<path d="M207.562 146.538V144" stroke="#0054A6" stroke-width="0.287282" stroke-miterlimit="10"/>
<path d="M208.109 146.538V144" stroke="#0054A6" stroke-width="0.287282" stroke-miterlimit="10"/>
<path d="M208.66 146.538V144" stroke="#0054A6" stroke-width="0.287282" stroke-miterlimit="10"/>
<path d="M209.207 146.538V144" stroke="#0054A6" stroke-width="0.287282" stroke-miterlimit="10"/>
<path d="M209.758 146.538V144" stroke="#0054A6" stroke-width="0.287282" stroke-miterlimit="10"/>
<path d="M210.305 146.538V144" stroke="#0054A6" stroke-width="0.287282" stroke-miterlimit="10"/>
<path d="M210.852 146.538V144" stroke="#0054A6" stroke-width="0.287282" stroke-miterlimit="10"/>
<path d="M211.402 146.538V144" stroke="#0054A6" stroke-width="0.287282" stroke-miterlimit="10"/>
<path d="M211.949 146.538V144" stroke="#0054A6" stroke-width="0.287282" stroke-miterlimit="10"/>
<path d="M212.5 146.538V144" stroke="#0054A6" stroke-width="0.287282" stroke-miterlimit="10"/>
<path d="M213.051 146.538V144" stroke="#0054A6" stroke-width="0.287282" stroke-miterlimit="10"/>
<path d="M213.598 146.538V144" stroke="#0054A6" stroke-width="0.287282" stroke-miterlimit="10"/>
<path d="M214.145 146.538V144" stroke="#0054A6" stroke-width="0.287282" stroke-miterlimit="10"/>
<path d="M214.695 146.538V144" stroke="#0054A6" stroke-width="0.287282" stroke-miterlimit="10"/>
<path d="M215.242 146.538V144" stroke="#0054A6" stroke-width="0.287282" stroke-miterlimit="10"/>
<path d="M215.793 146.538V144" stroke="#0054A6" stroke-width="0.287282" stroke-miterlimit="10"/>
<path d="M216.34 146.538V144" stroke="#0054A6" stroke-width="0.287282" stroke-miterlimit="10"/>
<path d="M216.891 146.538V144" stroke="#0054A6" stroke-width="0.287282" stroke-miterlimit="10"/>
<path d="M217.438 146.538V144" stroke="#0054A6" stroke-width="0.287282" stroke-miterlimit="10"/>
<path d="M217.988 146.538V144" stroke="#0054A6" stroke-width="0.287282" stroke-miterlimit="10"/>
<path d="M218.535 146.538V144" stroke="#0054A6" stroke-width="0.287282" stroke-miterlimit="10"/>
<path d="M219.086 146.538V144" stroke="#0054A6" stroke-width="0.287282" stroke-miterlimit="10"/>
<path d="M219.633 146.538V144" stroke="#0054A6" stroke-width="0.287282" stroke-miterlimit="10"/>
<path d="M220.184 146.538V144" stroke="#0054A6" stroke-width="0.287282" stroke-miterlimit="10"/>
<path d="M220.73 146.538V144" stroke="#0054A6" stroke-width="0.287282" stroke-miterlimit="10"/>
<path d="M221.281 146.538V144" stroke="#0054A6" stroke-width="0.287282" stroke-miterlimit="10"/>
<path d="M221.828 146.538V144" stroke="#0054A6" stroke-width="0.287282" stroke-miterlimit="10"/>
<path d="M222.379 146.538V144" stroke="#0054A6" stroke-width="0.287282" stroke-miterlimit="10"/>
<path d="M222.926 146.538V144" stroke="#0054A6" stroke-width="0.287282" stroke-miterlimit="10"/>
<path d="M223.477 146.538V144" stroke="#0054A6" stroke-width="0.287282" stroke-miterlimit="10"/>
<path d="M224.023 146.538V144" stroke="#0054A6" stroke-width="0.287282" stroke-miterlimit="10"/>
<path d="M224.574 146.538V144" stroke="#0054A6" stroke-width="0.287282" stroke-miterlimit="10"/>
<path d="M225.121 146.538V144" stroke="#0054A6" stroke-width="0.287282" stroke-miterlimit="10"/>
<path d="M225.672 146.538V144" stroke="#0054A6" stroke-width="0.287282" stroke-miterlimit="10"/>
<path d="M226.219 146.538V144" stroke="#0054A6" stroke-width="0.287282" stroke-miterlimit="10"/>
<path d="M226.77 146.538V144" stroke="#0054A6" stroke-width="0.287282" stroke-miterlimit="10"/>
<path d="M227.316 146.538V144" stroke="#0054A6" stroke-width="0.287282" stroke-miterlimit="10"/>
<path d="M227.867 146.538V144" stroke="#0054A6" stroke-width="0.287282" stroke-miterlimit="10"/>
<path d="M228.414 146.538V144" stroke="#0054A6" stroke-width="0.287282" stroke-miterlimit="10"/>
<path d="M228.961 146.538V144" stroke="#0054A6" stroke-width="0.287282" stroke-miterlimit="10"/>
<path d="M229.512 146.538V144" stroke="#0054A6" stroke-width="0.287282" stroke-miterlimit="10"/>
<path d="M230.059 146.538V144" stroke="#0054A6" stroke-width="0.287282" stroke-miterlimit="10"/>
<path d="M230.609 146.538V144" stroke="#0054A6" stroke-width="0.287282" stroke-miterlimit="10"/>
<path d="M231.16 146.538V144" stroke="#0054A6" stroke-width="0.287282" stroke-miterlimit="10"/>
<path d="M231.707 146.538V144" stroke="#0054A6" stroke-width="0.287282" stroke-miterlimit="10"/>
<path d="M232.258 146.538V144" stroke="#0054A6" stroke-width="0.287282" stroke-miterlimit="10"/>
<path d="M232.805 146.538V144" stroke="#0054A6" stroke-width="0.287282" stroke-miterlimit="10"/>
<path d="M233.352 146.538V144" stroke="#0054A6" stroke-width="0.287282" stroke-miterlimit="10"/>
<path d="M233.902 146.538V144" stroke="#0054A6" stroke-width="0.287282" stroke-miterlimit="10"/>
<path d="M234.453 146.538V144" stroke="#0054A6" stroke-width="0.287282" stroke-miterlimit="10"/>
<path d="M235 146.538V144" stroke="#0054A6" stroke-width="0.287282" stroke-miterlimit="10"/>
<path d="M190 194.993V192.455" stroke="#0054A6" stroke-width="0.287282" stroke-miterlimit="10"/>
<path d="M190.551 194.993V192.455" stroke="#0054A6" stroke-width="0.287282" stroke-miterlimit="10"/>
<path d="M191.098 194.993V192.455" stroke="#0054A6" stroke-width="0.287282" stroke-miterlimit="10"/>
<path d="M191.648 194.993V192.455" stroke="#0054A6" stroke-width="0.287282" stroke-miterlimit="10"/>
<path d="M192.195 194.993V192.455" stroke="#0054A6" stroke-width="0.287282" stroke-miterlimit="10"/>
<path d="M192.742 194.993V192.455" stroke="#0054A6" stroke-width="0.287282" stroke-miterlimit="10"/>
<path d="M193.293 194.993V192.455" stroke="#0054A6" stroke-width="0.287282" stroke-miterlimit="10"/>
<path d="M193.84 194.993V192.455" stroke="#0054A6" stroke-width="0.287282" stroke-miterlimit="10"/>
<path d="M194.391 194.993V192.455" stroke="#0054A6" stroke-width="0.287282" stroke-miterlimit="10"/>
<path d="M194.938 194.993V192.455" stroke="#0054A6" stroke-width="0.287282" stroke-miterlimit="10"/>
<path d="M195.488 194.993V192.455" stroke="#0054A6" stroke-width="0.287282" stroke-miterlimit="10"/>
<path d="M196.035 194.993V192.455" stroke="#0054A6" stroke-width="0.287282" stroke-miterlimit="10"/>
<path d="M196.586 194.993V192.455" stroke="#0054A6" stroke-width="0.287282" stroke-miterlimit="10"/>
<path d="M197.133 194.993V192.455" stroke="#0054A6" stroke-width="0.287282" stroke-miterlimit="10"/>
<path d="M197.684 194.993V192.455" stroke="#0054A6" stroke-width="0.287282" stroke-miterlimit="10"/>
<path d="M198.23 194.993V192.455" stroke="#0054A6" stroke-width="0.287282" stroke-miterlimit="10"/>
<path d="M198.781 194.993V192.455" stroke="#0054A6" stroke-width="0.287282" stroke-miterlimit="10"/>
<path d="M199.328 194.993V192.455" stroke="#0054A6" stroke-width="0.287282" stroke-miterlimit="10"/>
<path d="M199.879 194.993V192.455" stroke="#0054A6" stroke-width="0.287282" stroke-miterlimit="10"/>
<path d="M200.426 194.993V192.455" stroke="#0054A6" stroke-width="0.287282" stroke-miterlimit="10"/>
<path d="M200.977 194.993V192.455" stroke="#0054A6" stroke-width="0.287282" stroke-miterlimit="10"/>
<path d="M201.523 194.993V192.455" stroke="#0054A6" stroke-width="0.287282" stroke-miterlimit="10"/>
<path d="M202.074 194.993V192.455" stroke="#0054A6" stroke-width="0.287282" stroke-miterlimit="10"/>
<path d="M202.621 194.993V192.455" stroke="#0054A6" stroke-width="0.287282" stroke-miterlimit="10"/>
<path d="M203.172 194.993V192.455" stroke="#0054A6" stroke-width="0.287282" stroke-miterlimit="10"/>
<path d="M203.719 194.993V192.455" stroke="#0054A6" stroke-width="0.287282" stroke-miterlimit="10"/>
<path d="M204.27 194.993V192.455" stroke="#0054A6" stroke-width="0.287282" stroke-miterlimit="10"/>
<path d="M204.816 194.993V192.455" stroke="#0054A6" stroke-width="0.287282" stroke-miterlimit="10"/>
<path d="M205.367 194.993V192.455" stroke="#0054A6" stroke-width="0.287282" stroke-miterlimit="10"/>
<path d="M205.914 194.993V192.455" stroke="#0054A6" stroke-width="0.287282" stroke-miterlimit="10"/>
<path d="M206.465 194.993V192.455" stroke="#0054A6" stroke-width="0.287282" stroke-miterlimit="10"/>
<path d="M207.012 194.993V192.455" stroke="#0054A6" stroke-width="0.287282" stroke-miterlimit="10"/>
<path d="M207.562 194.993V192.455" stroke="#0054A6" stroke-width="0.287282" stroke-miterlimit="10"/>
<path d="M208.109 194.993V192.455" stroke="#0054A6" stroke-width="0.287282" stroke-miterlimit="10"/>
<path d="M208.66 194.993V192.455" stroke="#0054A6" stroke-width="0.287282" stroke-miterlimit="10"/>
<path d="M209.207 194.993V192.455" stroke="#0054A6" stroke-width="0.287282" stroke-miterlimit="10"/>
<path d="M209.758 194.993V192.455" stroke="#0054A6" stroke-width="0.287282" stroke-miterlimit="10"/>
<path d="M210.305 194.993V192.455" stroke="#0054A6" stroke-width="0.287282" stroke-miterlimit="10"/>
<path d="M210.852 194.993V192.455" stroke="#0054A6" stroke-width="0.287282" stroke-miterlimit="10"/>
<path d="M211.402 194.993V192.455" stroke="#0054A6" stroke-width="0.287282" stroke-miterlimit="10"/>
<path d="M211.949 194.993V192.455" stroke="#0054A6" stroke-width="0.287282" stroke-miterlimit="10"/>
<path d="M212.5 194.993V192.455" stroke="#0054A6" stroke-width="0.287282" stroke-miterlimit="10"/>
<path d="M213.051 194.993V192.455" stroke="#0054A6" stroke-width="0.287282" stroke-miterlimit="10"/>
<path d="M213.598 194.993V192.455" stroke="#0054A6" stroke-width="0.287282" stroke-miterlimit="10"/>
<path d="M214.145 194.993V192.455" stroke="#0054A6" stroke-width="0.287282" stroke-miterlimit="10"/>
<path d="M214.695 194.993V192.455" stroke="#0054A6" stroke-width="0.287282" stroke-miterlimit="10"/>
<path d="M215.242 194.993V192.455" stroke="#0054A6" stroke-width="0.287282" stroke-miterlimit="10"/>
<path d="M215.793 194.993V192.455" stroke="#0054A6" stroke-width="0.287282" stroke-miterlimit="10"/>
<path d="M216.34 194.993V192.455" stroke="#0054A6" stroke-width="0.287282" stroke-miterlimit="10"/>
<path d="M216.891 194.993V192.455" stroke="#0054A6" stroke-width="0.287282" stroke-miterlimit="10"/>
<path d="M217.438 194.993V192.455" stroke="#0054A6" stroke-width="0.287282" stroke-miterlimit="10"/>
<path d="M217.988 194.993V192.455" stroke="#0054A6" stroke-width="0.287282" stroke-miterlimit="10"/>
<path d="M218.535 194.993V192.455" stroke="#0054A6" stroke-width="0.287282" stroke-miterlimit="10"/>
<path d="M219.086 194.993V192.455" stroke="#0054A6" stroke-width="0.287282" stroke-miterlimit="10"/>
<path d="M219.633 194.993V192.455" stroke="#0054A6" stroke-width="0.287282" stroke-miterlimit="10"/>
<path d="M220.184 194.993V192.455" stroke="#0054A6" stroke-width="0.287282" stroke-miterlimit="10"/>
<path d="M220.73 194.993V192.455" stroke="#0054A6" stroke-width="0.287282" stroke-miterlimit="10"/>
<path d="M221.281 194.993V192.455" stroke="#0054A6" stroke-width="0.287282" stroke-miterlimit="10"/>
<path d="M221.828 194.993V192.455" stroke="#0054A6" stroke-width="0.287282" stroke-miterlimit="10"/>
<path d="M222.379 194.993V192.455" stroke="#0054A6" stroke-width="0.287282" stroke-miterlimit="10"/>
<path d="M222.926 194.993V192.455" stroke="#0054A6" stroke-width="0.287282" stroke-miterlimit="10"/>
<path d="M223.477 194.993V192.455" stroke="#0054A6" stroke-width="0.287282" stroke-miterlimit="10"/>
<path d="M224.023 194.993V192.455" stroke="#0054A6" stroke-width="0.287282" stroke-miterlimit="10"/>
<path d="M224.574 194.993V192.455" stroke="#0054A6" stroke-width="0.287282" stroke-miterlimit="10"/>
<path d="M225.121 194.993V192.455" stroke="#0054A6" stroke-width="0.287282" stroke-miterlimit="10"/>
<path d="M225.672 194.993V192.455" stroke="#0054A6" stroke-width="0.287282" stroke-miterlimit="10"/>
<path d="M226.219 194.993V192.455" stroke="#0054A6" stroke-width="0.287282" stroke-miterlimit="10"/>
<path d="M226.77 194.993V192.455" stroke="#0054A6" stroke-width="0.287282" stroke-miterlimit="10"/>
<path d="M227.316 194.993V192.455" stroke="#0054A6" stroke-width="0.287282" stroke-miterlimit="10"/>
<path d="M227.867 194.993V192.455" stroke="#0054A6" stroke-width="0.287282" stroke-miterlimit="10"/>
<path d="M228.414 194.993V192.455" stroke="#0054A6" stroke-width="0.287282" stroke-miterlimit="10"/>
<path d="M228.961 194.993V192.455" stroke="#0054A6" stroke-width="0.287282" stroke-miterlimit="10"/>
<path d="M229.512 194.993V192.455" stroke="#0054A6" stroke-width="0.287282" stroke-miterlimit="10"/>
<path d="M230.059 194.993V192.455" stroke="#0054A6" stroke-width="0.287282" stroke-miterlimit="10"/>
<path d="M230.609 194.993V192.455" stroke="#0054A6" stroke-width="0.287282" stroke-miterlimit="10"/>
<path d="M231.16 194.993V192.455" stroke="#0054A6" stroke-width="0.287282" stroke-miterlimit="10"/>
<path d="M231.707 194.993V192.455" stroke="#0054A6" stroke-width="0.287282" stroke-miterlimit="10"/>
<path d="M232.258 194.993V192.455" stroke="#0054A6" stroke-width="0.287282" stroke-miterlimit="10"/>
<path d="M232.805 194.993V192.455" stroke="#0054A6" stroke-width="0.287282" stroke-miterlimit="10"/>
<path d="M233.352 194.993V192.455" stroke="#0054A6" stroke-width="0.287282" stroke-miterlimit="10"/>
<path d="M233.902 194.993V192.455" stroke="#0054A6" stroke-width="0.287282" stroke-miterlimit="10"/>
<path d="M234.453 194.993V192.455" stroke="#0054A6" stroke-width="0.287282" stroke-miterlimit="10"/>
<path d="M235 194.993V192.455" stroke="#0054A6" stroke-width="0.287282" stroke-miterlimit="10"/>
</svg>
