<svg width="48" height="48" viewBox="0 0 48 48" fill="none" xmlns="http://www.w3.org/2000/svg">
<path opacity="0.982" fill-rule="evenodd" clip-rule="evenodd" d="M23.9531 4.73457C23.9531 5.70332 23.9531 6.67207 23.9531 7.64082C17.2313 7.95276 12.5124 11.1715 9.79688 17.2971C9.83569 16.4146 9.42947 15.8678 8.57812 15.6564C8.20873 15.5613 7.83373 15.5144 7.45312 15.5158C9.73969 10.496 13.5209 7.13661 18.7969 5.43769C20.4799 4.93844 22.1986 4.70406 23.9531 4.73457Z" fill="#2EA8E6"/>
<path fill-rule="evenodd" clip-rule="evenodd" d="M23.9531 4.73438C30.5514 4.89962 35.6608 7.71212 39.2812 13.1719C39.7718 13.9029 40.1624 14.6842 40.4531 15.5156C39.8231 15.5175 39.2294 15.6581 38.6719 15.9375C38.2897 16.3111 38.1022 16.7643 38.1094 17.2969C35.3927 11.1709 30.6739 7.95216 23.9531 7.64062C23.9531 6.67188 23.9531 5.70312 23.9531 4.73438Z" fill="#1794C6"/>
<path opacity="0.995" fill-rule="evenodd" clip-rule="evenodd" d="M23.9533 10.9219C23.9533 14.3906 23.9533 17.8594 23.9533 21.3281C23.8034 21.303 23.6784 21.3343 23.5783 21.4219C22.4389 21.9856 22.2514 22.7825 23.0158 23.8125C23.2817 24.0548 23.5941 24.1642 23.9533 24.1406C24.0158 24.1406 24.0783 24.1406 24.1408 24.1406C23.9548 27.5887 23.8923 31.0574 23.9533 34.5469C22.8818 34.5398 21.8194 34.4618 20.7658 34.3125C19.2658 35.1875 17.7658 36.0625 16.2658 36.9375C15.2691 37.3649 14.5347 37.0993 14.0627 36.1406C14.0001 35.8282 14.0001 35.5156 14.0627 35.2031C14.4606 33.7521 14.8512 32.2989 15.2346 30.8438C12.167 27.2241 11.3701 23.1459 12.8439 18.6094C14.4351 14.6118 17.3257 12.1274 21.5158 11.1562C22.3212 11.0009 23.1337 10.9227 23.9533 10.9219Z" fill="#2EC4B6"/>
<path fill-rule="evenodd" clip-rule="evenodd" d="M23.9533 10.9219C28.3677 11.0423 31.7583 12.9486 34.1251 16.6406C36.0601 20.1889 36.2789 23.8451 34.7814 27.6094C32.5575 32.0587 28.9481 34.3712 23.9533 34.5469C23.8922 31.0574 23.9548 27.5887 24.1408 24.1406C24.9128 23.9933 25.3191 23.5246 25.3595 22.7344C25.299 21.8613 24.8302 21.3925 23.9533 21.3281C23.9533 17.8594 23.9533 14.3906 23.9533 10.9219Z" fill="#2EC4B6"/>
<path fill-rule="evenodd" clip-rule="evenodd" d="M7.45313 15.5157C7.83373 15.5143 8.20873 15.5612 8.57813 15.6563C9.42947 15.8676 9.83569 16.4145 9.79688 17.2969C8.22884 21.7505 8.55697 26.063 10.7813 30.2344C11.0844 31.4236 10.6313 32.158 9.42188 32.4376C9.14702 32.5269 8.86577 32.5738 8.57813 32.5782C8.26 32.6193 7.97875 32.5412 7.73438 32.3438C6.14884 30.7505 5.25821 28.8287 5.0625 26.5782C5 24.2032 5 21.8282 5.0625 19.4532C5.29776 18.0753 5.78214 16.794 6.51563 15.6094C6.81825 15.5238 7.13075 15.4925 7.45313 15.5157Z" fill="#0D647F"/>
<path fill-rule="evenodd" clip-rule="evenodd" d="M40.453 15.5157C40.7754 15.4925 41.0879 15.5238 41.3905 15.6094C42.1357 16.788 42.62 18.0693 42.8437 19.4532C42.9292 22.1429 42.8979 24.8304 42.7499 27.5157C42.3594 29.4379 41.4688 31.0785 40.078 32.4376C39.8424 32.5549 39.5924 32.6018 39.328 32.5782C39.2343 32.5782 39.1405 32.5782 39.0468 32.5782C38.477 32.3928 37.93 32.1428 37.4062 31.8282C37.1135 31.4088 37.0041 30.94 37.078 30.4219C39.314 26.1979 39.6578 21.8229 38.1093 17.2969C38.1021 16.7644 38.2896 16.3112 38.6718 15.9376C39.2293 15.6582 39.823 15.5176 40.453 15.5157Z" fill="#0D647F"/>
<path fill-rule="evenodd" clip-rule="evenodd" d="M6.51563 15.6094C5.78213 16.7939 5.29776 18.0752 5.0625 19.4531C5 21.8281 5 24.2032 5.0625 26.5781C5.25821 28.8286 6.14884 30.7505 7.73438 32.3438C7.97874 32.5411 8.25999 32.6192 8.57812 32.5781C5.0985 33.0331 2.61413 31.6581 1.125 28.4531C0.956063 27.9961 0.831066 27.5273 0.75 27.0469C0.6875 25.0781 0.6875 23.1094 0.75 21.1406C1.43724 18.0001 3.35912 16.1563 6.51563 15.6094Z" fill="#176F93"/>
<path fill-rule="evenodd" clip-rule="evenodd" d="M41.3906 15.6094C44.5471 16.1563 46.469 18.0001 47.1562 21.1406C47.2188 23.1094 47.2188 25.0781 47.1562 27.0469C46.3325 30.5422 44.1293 32.4485 40.5469 32.7656C40.1243 32.721 39.7181 32.6585 39.3281 32.5781C39.5925 32.6017 39.8424 32.5549 40.0781 32.4375C41.4689 31.0784 42.3595 29.4378 42.75 27.5156C42.898 24.8303 42.9293 22.1428 42.8438 19.4531C42.6201 18.0692 42.1358 16.7879 41.3906 15.6094Z" fill="#176F93"/>
<path fill-rule="evenodd" clip-rule="evenodd" d="M18.8907 21.3281C20.4767 21.4387 20.9611 22.2199 20.3438 23.6719C19.6222 24.2904 18.9035 24.2904 18.1876 23.6719C17.6071 22.6455 17.8415 21.8643 18.8907 21.3281Z" fill="white"/>
<path fill-rule="evenodd" clip-rule="evenodd" d="M23.5781 21.4219C23.703 21.4219 23.8281 21.4219 23.9531 21.4219C23.9531 22.3282 23.9531 23.2343 23.9531 24.1406C23.5939 24.1642 23.2815 24.0547 23.0156 23.8125C22.2511 22.7825 22.4386 21.9856 23.5781 21.4219Z" fill="white"/>
<path fill-rule="evenodd" clip-rule="evenodd" d="M23.5781 21.422C23.6782 21.3344 23.8032 21.3031 23.9531 21.3282C24.8301 21.3926 25.2988 21.8614 25.3594 22.7345C25.319 23.5247 24.9127 23.9934 24.1406 24.1407C24.0781 24.1407 24.0157 24.1407 23.9531 24.1407C23.9531 23.2344 23.9531 22.3282 23.9531 21.422C23.8282 21.422 23.7031 21.422 23.5781 21.422Z" fill="white"/>
<path fill-rule="evenodd" clip-rule="evenodd" d="M28.2657 21.3281C29.8517 21.4387 30.3361 22.2199 29.7189 23.6719C28.9973 24.2904 28.2785 24.2904 27.5626 23.6719C26.9835 22.6433 27.2179 21.8621 28.2657 21.3281Z" fill="white"/>
<path fill-rule="evenodd" clip-rule="evenodd" d="M37.0781 30.4219C37.0042 30.9399 37.1136 31.4087 37.4062 31.8281C37.9301 32.1428 38.4771 32.3927 39.0469 32.5781C36.9442 35.9128 34.0379 38.2722 30.3281 39.6562C29.187 40.0524 28.0308 40.3806 26.8594 40.6406C27.1309 39.6298 27.0997 38.6298 26.7656 37.6406C31.2408 36.6938 34.6782 34.2876 37.0781 30.4219Z" fill="#1794C6"/>
<path fill-rule="evenodd" clip-rule="evenodd" d="M23.7656 35.3905C23.5781 35.3905 23.3906 35.3905 23.2031 35.3905C23.2031 37.9843 23.2031 40.5779 23.2031 43.1717C21.283 43.1102 20.0174 42.1727 19.4062 40.3592C18.9937 38.6592 19.4469 37.2374 20.7656 36.0936C21.6838 35.4448 22.6838 35.2104 23.7656 35.3905Z" fill="#177094"/>
<path fill-rule="evenodd" clip-rule="evenodd" d="M23.7656 35.3906C24.9584 35.5104 25.8803 36.0729 26.5312 37.0781C26.6364 37.2569 26.7145 37.4444 26.7656 37.6406C27.0997 38.6298 27.1309 39.6298 26.8594 40.6406C26.2052 42.2962 24.9864 43.1399 23.2031 43.1719C23.2031 40.5781 23.2031 37.9844 23.2031 35.3906C23.3906 35.3906 23.5781 35.3906 23.7656 35.3906Z" fill="#0D647F"/>
</svg>
