<svg width="64" height="64" viewBox="0 0 64 64" fill="none" xmlns="http://www.w3.org/2000/svg">
<path opacity="0.915" fill-rule="evenodd" clip-rule="evenodd" d="M27.9375 1.31238C27.8164 1.41356 27.7123 1.53856 27.625 1.68738C27.5625 4.35372 27.5416 7.0204 27.5625 9.68738C27.1875 9.68738 26.8125 9.68738 26.4375 9.68738C26.4166 7.0204 26.4375 4.35372 26.5 1.68738C26.5468 1.57286 26.6093 1.46868 26.6875 1.37488C27.1021 1.31259 27.5188 1.29176 27.9375 1.31238Z" fill="#54CC5A"/>
<path fill-rule="evenodd" clip-rule="evenodd" d="M27.938 1.31248C28.9389 1.29168 29.9389 1.31252 30.938 1.37498C31.0162 1.46878 31.0787 1.57296 31.1255 1.68748C31.188 4.35382 31.2089 7.02049 31.188 9.68748C31.8144 9.66674 32.4394 9.68757 33.063 9.74998C33.3 9.97602 33.3625 10.2469 33.2505 10.5625C32.0417 11.9586 30.8125 13.3336 29.563 14.6875C28.1941 13.3387 26.8816 11.9221 25.6255 10.4375C25.5577 10.1147 25.662 9.86467 25.938 9.68748C26.1046 9.68748 26.2714 9.68748 26.438 9.68748C26.813 9.68748 27.188 9.68748 27.563 9.68748C27.5421 7.02049 27.563 4.35382 27.6255 1.68748C27.7127 1.53866 27.8169 1.41366 27.938 1.31248Z" fill="#54CC5A"/>
<path opacity="0.945" fill-rule="evenodd" clip-rule="evenodd" d="M25.9367 9.6874C25.6607 9.86459 25.5565 10.1146 25.6242 10.4374C26.8804 11.922 28.1929 13.3387 29.5617 14.6874C29.3195 15.146 28.9445 15.2919 28.4367 15.1249C27.0826 13.604 25.7284 12.0832 24.3742 10.5624C24.2622 10.2468 24.3247 9.97594 24.5617 9.7499C25.0182 9.68758 25.4765 9.66674 25.9367 9.6874Z" fill="#54CC5A"/>
<path fill-rule="evenodd" clip-rule="evenodd" d="M7.06377 12.9375C8.02301 12.9167 8.98135 12.9375 9.93877 13C10.1041 13.102 10.1874 13.2478 10.1888 13.4375C10.1888 16.1041 10.1888 18.7708 10.1888 21.4375C10.8138 21.4375 11.4388 21.4375 12.0638 21.4375C12.3416 21.4448 12.4666 21.5906 12.4388 21.875C12.4231 22.0783 12.3606 22.2658 12.2513 22.4375C11.0345 23.7161 9.84699 25.0078 8.68877 26.3125C8.32699 26.1397 8.01449 25.8897 7.75127 25.5625C6.79769 24.4003 5.79769 23.2753 4.75127 22.1875C4.64816 21.9123 4.71066 21.6832 4.93877 21.5C5.52062 21.4376 6.10396 21.4167 6.68877 21.4375C6.66795 18.7288 6.68877 16.0205 6.75127 13.3125C6.8819 13.2033 6.98606 13.0783 7.06377 12.9375Z" fill="#54CC5A"/>
<path fill-rule="evenodd" clip-rule="evenodd" d="M48.8126 12.9375C49.7718 12.9167 50.7302 12.9375 51.6876 13C51.8334 13.0625 51.9376 13.1666 52.0001 13.3125C52.0626 15.9788 52.0834 18.6455 52.0626 21.3125C52.6474 21.2917 53.2307 21.3126 53.8126 21.375C54.1724 21.5832 54.2766 21.8957 54.1251 22.3125C52.8522 23.6967 51.5813 25.0717 50.3126 26.4375C49.0678 24.9631 47.7971 23.5047 46.5001 22.0625C46.4112 21.8291 46.4737 21.6416 46.6876 21.5C47.2694 21.4376 47.8527 21.4167 48.4376 21.4375C48.4167 18.7288 48.4376 16.0205 48.5001 13.3125C48.6307 13.2033 48.7348 13.0783 48.8126 12.9375Z" fill="#54CC5A"/>
<path opacity="0.147" fill-rule="evenodd" clip-rule="evenodd" d="M10.1875 13.4375C10.3122 16.0409 10.3538 18.6659 10.3125 21.3125C10.9204 21.2726 11.5038 21.3142 12.0625 21.4375C11.4375 21.4375 10.8125 21.4375 10.1875 21.4375C10.1875 18.7709 10.1875 16.1041 10.1875 13.4375Z" fill="#FD2828"/>
<path opacity="0.99" fill-rule="evenodd" clip-rule="evenodd" d="M43.6875 23.8124C43.4549 25.4453 42.6632 26.7578 41.3125 27.7499C37.9953 29.8135 34.3703 30.8969 30.4375 30.9999C26.0109 31.3595 21.8025 30.5886 17.8125 28.6874C16.3629 27.9253 15.217 26.8419 14.375 25.4374C14.1771 24.8924 14.0312 24.3506 13.9375 23.8124C14.1326 22.2198 14.8826 20.949 16.1875 19.9999C19.2684 18.0425 22.6434 16.9591 26.3125 16.7499C30.523 16.3708 34.6064 16.9125 38.5625 18.3749C40.1663 19.0618 41.562 20.0409 42.75 21.3124C43.297 22.0575 43.6095 22.8908 43.6875 23.8124Z" fill="#FBDA34"/>
<path fill-rule="evenodd" clip-rule="evenodd" d="M24.3106 28.9375C24.403 28.9539 24.4864 28.933 24.5606 28.875C22.3033 28.4539 20.2199 27.6205 18.3106 26.375C16.485 24.7044 16.485 23.0377 18.3106 21.375C20.5512 19.9824 22.9679 19.0865 25.5606 18.6875C26.4482 18.4575 27.365 18.395 28.3106 18.5C28.1918 18.8822 28.1501 19.2779 28.1856 19.6875C27.2408 19.7745 26.4283 20.1495 25.7481 20.8125C25.0944 21.9388 25.2819 22.9179 26.3106 23.75C26.8814 24.079 27.4855 24.3082 28.1231 24.4375C28.2065 25.2292 28.2065 26.0209 28.1231 26.8125C27.1962 26.7135 26.5504 26.2344 26.1856 25.375C25.259 25.2188 24.9881 25.5729 25.3731 26.4375C26.0535 27.4134 26.991 27.9552 28.1856 28.0625C28.1556 28.4474 28.1973 28.8224 28.3106 29.1875C28.0606 29.2292 27.8106 29.2709 27.5606 29.3125C26.45 29.263 25.3667 29.138 24.3106 28.9375Z" fill="#F8AC00"/>
<path fill-rule="evenodd" clip-rule="evenodd" d="M29.3125 18.5627C32.3028 18.4474 35.2194 18.9265 38.0625 20.0002C39.6792 20.567 40.9085 21.5879 41.75 23.0627C41.8888 23.8034 41.8055 24.5117 41.5 25.1877C40.3544 26.6475 38.8752 27.6267 37.0625 28.1252C34.535 28.9297 31.9518 29.2839 29.3125 29.1877C29.4259 28.8225 29.4675 28.4475 29.4375 28.0627C30.3115 28.0283 31.1033 27.7574 31.8125 27.2502C32.7166 26.1638 32.6334 25.1638 31.5625 24.2502C30.9354 23.8738 30.2686 23.6029 29.5625 23.4377C29.4379 22.6084 29.3962 21.7752 29.4375 20.9377C29.821 21.0029 30.196 21.107 30.5625 21.2502C30.9446 21.6605 31.3404 22.0564 31.75 22.4377C32.1459 22.3752 32.375 22.146 32.4375 21.7502C31.9009 20.4173 30.9009 19.7298 29.4375 19.6877C29.4762 19.286 29.4346 18.911 29.3125 18.5627Z" fill="#F8AC00"/>
<path fill-rule="evenodd" clip-rule="evenodd" d="M25.562 18.6875C22.9693 19.0865 20.5526 19.9824 18.312 21.375C16.4864 23.0376 16.4864 24.7044 18.312 26.375C20.2213 27.6205 22.3046 28.4539 24.562 28.875C24.4878 28.933 24.4044 28.9539 24.312 28.9375C21.9489 28.6706 19.7405 27.9415 17.687 26.75C15.4039 25.1286 15.2373 23.337 17.187 21.375C19.7248 19.7166 22.5165 18.8209 25.562 18.6875Z" fill="#F19C01"/>
<path fill-rule="evenodd" clip-rule="evenodd" d="M27.9375 20.9375C28.102 21.2609 28.1854 21.6359 28.1875 22.0625C28.1666 22.4375 28.1459 22.8125 28.125 23.1875C27.3792 23.0763 26.8584 22.6805 26.5625 22C26.6238 21.7523 26.7488 21.5439 26.9375 21.375C27.2697 21.1902 27.6031 21.0444 27.9375 20.9375Z" fill="#F9AD01"/>
<path opacity="0.951" fill-rule="evenodd" clip-rule="evenodd" d="M7.06343 12.9374C6.98572 13.0783 6.88156 13.2033 6.75093 13.3124C6.68843 16.0204 6.66761 18.7288 6.68843 21.4374C6.10362 21.4166 5.52028 21.4375 4.93843 21.4999C4.71032 21.6831 4.64782 21.9123 4.75093 22.1874C5.79735 23.2753 6.79735 24.4003 7.75093 25.5624C8.01415 25.8896 8.32665 26.1396 8.68843 26.3124C8.43064 26.8179 8.05564 26.9638 7.56343 26.7499C6.16555 25.3063 4.81138 23.8271 3.50093 22.3124C3.34942 21.8956 3.45358 21.5831 3.81343 21.3749C4.39528 21.3125 4.97862 21.2916 5.56343 21.3124C5.54261 18.6454 5.56343 15.9788 5.62593 13.3124C5.68843 13.1665 5.7926 13.0624 5.93843 12.9999C6.31113 12.9376 6.68613 12.9168 7.06343 12.9374Z" fill="#54CC5A"/>
<path opacity="0.962" fill-rule="evenodd" clip-rule="evenodd" d="M48.8109 12.9374C48.7332 13.0783 48.629 13.2033 48.4984 13.3124C48.4359 16.0204 48.415 18.7288 48.4359 21.4374C47.851 21.4166 47.2678 21.4375 46.6859 21.4999C46.472 21.6415 46.4095 21.829 46.4984 22.0624C47.7954 23.5046 49.0662 24.963 50.3109 26.4374C50.0674 26.8733 49.7342 26.9774 49.3109 26.7499C48.0422 25.2769 46.7297 23.8394 45.3734 22.4374C45.1695 22.1305 45.1488 21.818 45.3109 21.4999C45.9619 21.3253 46.6285 21.2628 47.3109 21.3124C47.29 18.687 47.3109 16.062 47.3734 13.4374C47.4315 13.2585 47.5358 13.1128 47.6859 12.9999C48.0587 12.9376 48.4337 12.9168 48.8109 12.9374Z" fill="#54CC5A"/>
<path opacity="0.979" fill-rule="evenodd" clip-rule="evenodd" d="M13.9375 23.8125C14.0312 24.3508 14.1771 24.8925 14.375 25.4375C15.217 26.842 16.3629 27.9254 17.8125 28.6875C17.8536 30.5429 17.812 32.3763 17.6875 34.1875C15.6266 33.2135 14.3766 31.6301 13.9375 29.4375C13.9375 27.5625 13.9375 25.6875 13.9375 23.8125Z" fill="#F19A00"/>
<path fill-rule="evenodd" clip-rule="evenodd" d="M29.4375 24.6875C29.9072 24.8374 30.3656 25.0249 30.8125 25.25C31.259 25.5782 31.3006 25.9532 30.9375 26.375C30.4665 26.632 29.9665 26.7778 29.4375 26.8125C29.4375 26.1041 29.4375 25.3959 29.4375 24.6875Z" fill="#F9AD01"/>
<path fill-rule="evenodd" clip-rule="evenodd" d="M43.6875 23.8125C43.6875 25.6875 43.6875 27.5625 43.6875 29.4375C43.537 30.7179 42.9954 31.822 42.0625 32.75C40.446 34.1001 38.6126 35.0585 36.5625 35.625C31.5319 36.9924 26.4901 37.034 21.4375 35.75C20.171 35.4045 18.9626 34.9254 17.8125 34.3125C17.7291 34.3125 17.6875 34.2709 17.6875 34.1875C17.812 32.3763 17.8536 30.5429 17.8125 28.6875C21.8025 30.5887 26.0109 31.3596 30.4375 31C34.3703 30.897 37.9953 29.8136 41.3125 27.75C42.6632 26.7579 43.4549 25.4454 43.6875 23.8125Z" fill="#F8AC00"/>
<path opacity="0.978" fill-rule="evenodd" clip-rule="evenodd" d="M13.9375 29.4375C14.3766 31.6301 15.6266 33.2135 17.6875 34.1875C17.6875 34.2709 17.7291 34.3125 17.8125 34.3125C17.8125 36.1459 17.8125 37.9791 17.8125 39.8125C15.6821 38.8925 14.3904 37.3091 13.9375 35.0625C13.9375 33.1875 13.9375 31.3125 13.9375 29.4375Z" fill="#FCC62D"/>
<path opacity="0.997" fill-rule="evenodd" clip-rule="evenodd" d="M43.6875 29.4375C43.6875 31.4375 43.6875 33.4375 43.6875 35.4375C43.5089 35.958 43.3006 36.4789 43.0625 37C43.2668 37.0617 43.4751 37.0825 43.6875 37.0625C47.8731 36.6951 51.9149 37.2993 55.8125 38.875C57.7665 39.6629 59.2456 40.9754 60.25 42.8125C60.4031 43.3856 60.4656 43.969 60.4375 44.5625C60.133 46.0581 59.3414 47.2456 58.0625 48.125C54.9634 50.0189 51.5884 51.0605 47.9375 51.25C44.7253 51.5186 41.5586 51.2686 38.4375 50.5C37.1405 50.1304 35.8905 49.6513 34.6875 49.0625C33.1076 48.2326 31.8993 47.0243 31.0625 45.4375C30.6488 44.3099 30.7738 43.2474 31.4375 42.25C26.69 42.6464 22.1483 41.8755 17.8125 39.9375C17.8125 39.8959 17.8125 39.8541 17.8125 39.8125C17.8125 37.9791 17.8125 36.1459 17.8125 34.3125C18.9626 34.9254 20.171 35.4045 21.4375 35.75C26.4901 37.034 31.5319 36.9924 36.5625 35.625C38.6126 35.0585 40.446 34.1001 42.0625 32.75C42.9954 31.822 43.537 30.7179 43.6875 29.4375Z" fill="#FBDA34"/>
<path opacity="0.979" fill-rule="evenodd" clip-rule="evenodd" d="M13.9375 35.0625C14.3904 37.3091 15.6821 38.8925 17.8125 39.8125C17.8125 39.8541 17.8125 39.8959 17.8125 39.9375C17.8125 41.7709 17.8125 43.6041 17.8125 45.4375C15.679 44.5149 14.3874 42.9316 13.9375 40.6875C13.9375 38.8125 13.9375 36.9375 13.9375 35.0625Z" fill="#F19A00"/>
<path fill-rule="evenodd" clip-rule="evenodd" d="M43.6875 35.4375C43.6875 35.9791 43.6875 36.5209 43.6875 37.0625C43.4751 37.0825 43.2667 37.0618 43.0625 37C43.3006 36.4789 43.5089 35.958 43.6875 35.4375Z" fill="#F8AC03"/>
<path fill-rule="evenodd" clip-rule="evenodd" d="M40.6871 49.1874C40.8588 49.2071 41.0255 49.1862 41.1871 49.1249C39.1974 48.7118 37.3224 48.0034 35.5621 46.9999C33.0626 45.1231 33.0626 43.2481 35.5621 41.3749C37.5884 40.2273 39.755 39.4773 42.0621 39.1249C41.9005 39.0637 41.7338 39.0428 41.5621 39.0624C42.7005 38.8468 43.8671 38.7634 45.0621 38.8124C45.0828 39.1897 45.0619 39.5647 44.9996 39.9374C43.8969 40.0509 43.0219 40.5509 42.3746 41.4374C41.9964 42.9504 42.5589 43.9712 44.0621 44.4999C44.3825 44.6348 44.7157 44.6973 45.0621 44.6874C45.0621 45.4791 45.0621 46.2708 45.0621 47.0624C44.0541 47.0174 43.3459 46.5382 42.9371 45.6249C42.4361 45.4479 42.1445 45.6147 42.0621 46.1249C42.3605 47.2981 43.1105 48.0064 44.3121 48.2499C44.5588 48.3118 44.8088 48.3327 45.0621 48.3124C45.0621 48.7291 45.0621 49.1458 45.0621 49.5624C43.5696 49.6238 42.1112 49.4988 40.6871 49.1874Z" fill="#F8AC00"/>
<path fill-rule="evenodd" clip-rule="evenodd" d="M46.0625 38.8123C49.2425 38.7186 52.3258 39.2811 55.3125 40.4998C56.6806 41.0346 57.7431 41.9305 58.5 43.1873C58.7731 43.9554 58.7315 44.7054 58.375 45.4373C57.1965 46.9028 55.6965 47.9028 53.875 48.4373C51.3269 49.2166 48.7226 49.6125 46.0625 49.6248C46.2829 49.2194 46.3661 48.7819 46.3125 48.3123C47.5719 48.3809 48.5094 47.8809 49.125 46.8123C49.4054 45.8405 49.1346 45.0696 48.3125 44.4998C47.6914 44.133 47.0247 43.9039 46.3125 43.8123C46.3125 42.9789 46.3125 42.1456 46.3125 41.3123C47.25 41.3431 47.9166 41.7806 48.3125 42.6248C48.8193 42.7474 49.111 42.5599 49.1875 42.0623C48.904 40.9668 48.1956 40.321 47.0625 40.1248C46.8159 40.0629 46.5659 40.042 46.3125 40.0623C46.333 39.7264 46.3121 39.393 46.25 39.0623C46.2153 38.9478 46.1528 38.8645 46.0625 38.8123Z" fill="#F8AC00"/>
<path fill-rule="evenodd" clip-rule="evenodd" d="M41.5641 39.0623C41.7357 39.0427 41.9025 39.0636 42.0641 39.1248C39.757 39.4772 37.5904 40.2272 35.5641 41.3748C33.0646 43.2479 33.0646 45.1229 35.5641 46.9998C37.3244 48.0033 39.1994 48.7117 41.1891 49.1248C41.0275 49.1861 40.8607 49.2069 40.6891 49.1873C38.6127 48.9049 36.6544 48.2591 34.8141 47.2498C31.7465 45.0527 31.8297 42.9693 35.0641 40.9998C37.1062 39.9269 39.2729 39.2811 41.5641 39.0623Z" fill="#F19D02"/>
<path fill-rule="evenodd" clip-rule="evenodd" d="M17.8125 39.9375C22.1483 41.8755 26.69 42.6464 31.4375 42.25C30.7738 43.2474 30.6488 44.3099 31.0625 45.4375C30.9381 47.0404 30.8964 48.6654 30.9375 50.3125C30.8959 50.3125 30.8541 50.3125 30.8125 50.3125C30.8125 49.4791 30.8125 48.6459 30.8125 47.8125C26.2778 48.1679 21.9445 47.4179 17.8125 45.5625C17.8125 45.5209 17.8125 45.4791 17.8125 45.4375C17.8125 43.6041 17.8125 41.7709 17.8125 39.9375Z" fill="#F8AC00"/>
<path opacity="0.979" fill-rule="evenodd" clip-rule="evenodd" d="M13.9375 40.6875C14.3874 42.9316 15.679 44.5149 17.8125 45.4375C17.8125 45.4791 17.8125 45.5209 17.8125 45.5625C17.8125 47.3959 17.8125 49.2291 17.8125 51.0625C16.3595 50.2969 15.2136 49.2135 14.375 47.8125C14.1886 47.3071 14.0428 46.8071 13.9375 46.3125C13.9375 44.4375 13.9375 42.5625 13.9375 40.6875Z" fill="#FCC62D"/>
<path fill-rule="evenodd" clip-rule="evenodd" d="M44.4375 41.3125C44.6458 41.3125 44.8541 41.3125 45.0625 41.3125C45.0625 42.0209 45.0625 42.7291 45.0625 43.4375C44.3972 43.3865 43.8763 43.0949 43.5 42.5625C43.4206 42.2956 43.4623 42.0456 43.625 41.8125C43.8868 41.6094 44.1576 41.4428 44.4375 41.3125Z" fill="#F9AE03"/>
<path fill-rule="evenodd" clip-rule="evenodd" d="M46.3125 45.0625C46.7404 45.1704 47.157 45.3162 47.5625 45.5C47.9405 45.8094 48.0238 46.1844 47.8125 46.625C47.3516 46.9106 46.8516 47.0565 46.3125 47.0625C46.3125 46.3959 46.3125 45.7291 46.3125 45.0625Z" fill="#F9AC00"/>
<path fill-rule="evenodd" clip-rule="evenodd" d="M60.4375 44.5625C60.4375 46.5625 60.4375 48.5625 60.4375 50.5625C59.691 52.497 58.3577 53.8927 56.4375 54.75C51.7149 56.7884 46.7983 57.455 41.6875 56.75C39.2464 56.4108 36.913 55.7233 34.6875 54.6875C34.6875 54.6459 34.6875 54.6041 34.6875 54.5625C34.6875 52.7291 34.6875 50.8959 34.6875 49.0625C35.8905 49.6512 37.1405 50.1304 38.4375 50.5C41.5586 51.2686 44.7253 51.5186 47.9375 51.25C51.5884 51.0605 54.9634 50.0189 58.0625 48.125C59.3414 47.2456 60.133 46.0581 60.4375 44.5625Z" fill="#F9AC00"/>
<path fill-rule="evenodd" clip-rule="evenodd" d="M31.0622 45.4375C31.8989 47.0243 33.1073 48.2326 34.6872 49.0625C34.6872 50.8959 34.6872 52.7291 34.6872 54.5625C33.2092 53.8975 32.0634 52.8559 31.2497 51.4375C31.1066 51.071 31.0024 50.696 30.9372 50.3125C30.8961 48.6654 30.9378 47.0404 31.0622 45.4375Z" fill="#F19A00"/>
<path fill-rule="evenodd" clip-rule="evenodd" d="M17.8125 45.5625C21.9445 47.4179 26.2778 48.1679 30.8125 47.8125C30.8125 48.6459 30.8125 49.4791 30.8125 50.3125C30.8125 51.3125 30.8125 52.3125 30.8125 53.3125C30.6126 53.279 30.446 53.3208 30.3125 53.4375C26.7151 53.6528 23.2151 53.1736 19.8125 52C19.1275 51.7199 18.4609 51.4074 17.8125 51.0625C17.8125 49.2291 17.8125 47.3959 17.8125 45.5625Z" fill="#FBDA34"/>
<path opacity="0.962" fill-rule="evenodd" clip-rule="evenodd" d="M13.9375 46.3125C14.0428 46.8071 14.1886 47.3071 14.375 47.8125C15.2136 49.2135 16.3595 50.2969 17.8125 51.0625C17.7916 52.3965 17.8125 53.7299 17.875 55.0625C18.0966 55.8844 18.4508 56.6344 18.9375 57.3125C17.3785 56.6473 16.0244 55.6889 14.875 54.4375C14.4473 53.8319 14.1556 53.1652 14 52.4375C13.9375 50.3962 13.9166 48.3546 13.9375 46.3125Z" fill="#F19A00"/>
<path opacity="0.995" fill-rule="evenodd" clip-rule="evenodd" d="M30.8125 50.3125C30.8541 50.3125 30.8959 50.3125 30.9375 50.3125C31.0027 50.696 31.1069 51.071 31.25 51.4375C32.0638 52.8559 33.2095 53.8975 34.6875 54.5625C34.6875 54.6041 34.6875 54.6459 34.6875 54.6875C34.6875 56.5625 34.6875 58.4375 34.6875 60.3125C33.9086 59.9031 33.2004 59.4031 32.5625 58.8125C31.0835 57.3334 30.5001 55.5417 30.8125 53.4375C30.6459 53.4375 30.4791 53.4375 30.3125 53.4375C30.446 53.3207 30.6126 53.279 30.8125 53.3125C30.8125 52.3125 30.8125 51.3125 30.8125 50.3125Z" fill="#FCC62D"/>
<path fill-rule="evenodd" clip-rule="evenodd" d="M60.4375 50.5625C60.4584 52.4796 60.4375 54.3963 60.375 56.3125C59.9452 57.66 59.1327 58.7225 57.9375 59.5C54.9821 61.2766 51.7739 62.2766 48.3125 62.5C43.5637 62.9862 39.0221 62.2571 34.6875 60.3125C34.6875 58.4375 34.6875 56.5625 34.6875 54.6875C36.913 55.7232 39.2464 56.4107 41.6875 56.75C46.7983 57.455 51.7149 56.7884 56.4375 54.75C58.3577 53.8928 59.691 52.497 60.4375 50.5625Z" fill="#FCDA34"/>
<path opacity="0.999" fill-rule="evenodd" clip-rule="evenodd" d="M17.8125 51.0625C18.4609 51.4074 19.1275 51.7199 19.8125 52C23.2151 53.1736 26.7151 53.6528 30.3125 53.4375C30.4791 53.4375 30.6459 53.4375 30.8125 53.4375C30.5001 55.5417 31.0835 57.3334 32.5625 58.8125C27.8954 59.4583 23.3538 58.9583 18.9375 57.3125C18.4508 56.6344 18.0966 55.8844 17.875 55.0625C17.8125 53.7299 17.7916 52.3965 17.8125 51.0625Z" fill="#F8AB00"/>
</svg>
