<svg width="50" height="50" viewBox="0 0 50 50" fill="none" xmlns="http://www.w3.org/2000/svg">
<g clip-path="url(#clip0_14818_7898)">
<path d="M45.3296 0H19.1976L18.8746 0.161426L18.2207 1.28066V35.7344L18.7405 35.9851L20.4844 41.6524L18.2208 44.8215V49.6746L18.3563 50.0001H39.2734L47.0842 42.1894V1.7543C47.084 0.785449 46.2985 0 45.3296 0Z" fill="#C9F0FE"/>
<path d="M18.3581 35.7996V1.65371C18.3581 0.88877 18.8485 0.240039 19.5313 0H13.8598C12.8908 0 12.1055 0.785449 12.1055 1.7543V31.624L13.3309 33.375L18.3581 35.7996Z" fill="#9BE8FD"/>
<path d="M18.3573 44.6318L16.4613 47.2862L13.5249 49.6745L13.3301 49.9185C13.4971 49.9712 13.6746 50 13.8591 50H18.3573V44.6318Z" fill="#9BE8FD"/>
<path d="M41.0571 32.7863H18.1334C17.7167 32.7863 17.3789 32.4485 17.3789 32.0318C17.3789 31.6151 17.7167 31.2773 18.1334 31.2773H41.0571C41.4738 31.2773 41.8116 31.6151 41.8116 32.0318C41.8116 32.4485 41.4738 32.7863 41.0571 32.7863Z" fill="#62DDFC"/>
<path d="M41.056 36.258H18.5396C18.1229 36.258 17.7852 35.9202 17.7852 35.5035C17.7852 35.0868 18.1229 34.749 18.5396 34.749H41.056C41.4727 34.749 41.8104 35.0868 41.8104 35.5035C41.8104 35.9202 41.4727 36.258 41.056 36.258Z" fill="#62DDFC"/>
<path d="M41.0569 39.7297H20.2174C19.8007 39.7297 19.4629 39.3919 19.4629 38.9752C19.4629 38.5585 19.8007 38.2207 20.2174 38.2207H41.0569C41.4736 38.2207 41.8114 38.5585 41.8114 38.9752C41.8114 39.3919 41.4736 39.7297 41.0569 39.7297Z" fill="#62DDFC"/>
<path d="M35.2124 43.2014H19.9186C19.5019 43.2014 19.1641 42.8636 19.1641 42.4469C19.1641 42.0302 19.5019 41.6924 19.9186 41.6924H35.2124C35.6291 41.6924 35.9669 42.0302 35.9669 42.4469C35.9669 42.8636 35.6291 43.2014 35.2124 43.2014Z" fill="#62DDFC"/>
<path d="M47.0842 42.1895H41.0277C40.0588 42.1895 39.2734 42.9749 39.2734 43.9437V50.0002L47.0842 42.1895Z" fill="#9BE8FD"/>
<path d="M14.5339 31.9497H13.2687L9.74756 34.0572L7.48633 38.3832V43.9164L9.4709 47.3369L11.779 49.0221L13.6586 49.6006L14.5339 49.6747C18.4289 48.6092 21.2918 45.0453 21.2918 40.8122C21.2919 36.5792 18.429 33.0153 14.5339 31.9497Z" fill="#5CE2C5"/>
<path d="M7.77607 40.812C7.77607 36.5789 10.639 33.015 14.534 31.9495C13.7599 31.7377 12.9453 31.624 12.104 31.624C7.02959 31.624 2.91602 35.7376 2.91602 40.812C2.91602 45.8863 7.02959 50 12.104 50C12.9453 50 13.76 49.8863 14.534 49.6745C10.6391 48.609 7.77607 45.0451 7.77607 40.812Z" fill="#00D3B5"/>
<path d="M11.4893 44.1492C11.2892 44.1492 11.0972 44.0697 10.9558 43.9282L7.63901 40.6113C7.34429 40.3167 7.34429 39.8388 7.63901 39.5442C7.93364 39.2496 8.41147 39.2496 8.7061 39.5442L11.4894 42.3275L15.9377 37.8792C16.2324 37.5845 16.7102 37.5845 17.0048 37.8792C17.2996 38.1738 17.2996 38.6516 17.0048 38.9463L12.023 43.9281C11.8814 44.0697 11.6895 44.1492 11.4893 44.1492Z" fill="#C9F0FE"/>
<path d="M32.262 9.7627L25.5176 15.093V24.1138L25.7783 26.6498H37.8771V14.0937L32.262 9.7627Z" fill="#FFE559"/>
<path d="M26.2963 15.9572C26.2963 15.2371 26.6303 14.5578 27.2004 14.1181L32.5544 9.98838L29.5967 7.70703L21.3164 14.0938V26.65H26.2963V15.9572Z" fill="#FFD500"/>
<path d="M32.6549 18.6729H29.7676V26.6499H33.0503V19.0711L32.6549 18.6729Z" fill="#8896E0"/>
<path d="M30.2458 18.6729H26.5486L26.1426 19.0711V26.6499H29.8397V19.0711L30.2458 18.6729Z" fill="#6B7ED9"/>
<path d="M31.9236 15.8452H30.6608L30.3712 15.9126L30.019 16.1893L29.7676 16.7552V19.0712H33.0503V16.9721C33.0504 16.3497 32.546 15.8452 31.9236 15.8452Z" fill="#00D2FC"/>
<path d="M30.9666 15.8452H27.2693C26.6471 15.8452 26.1426 16.3497 26.1426 16.972V19.0711H29.8397V16.972C29.8398 16.3497 30.3443 15.8452 30.9666 15.8452Z" fill="#00C2FB"/>
<path d="M39.2481 27.4045H19.9439C19.5272 27.4045 19.1895 27.0667 19.1895 26.65C19.1895 26.2333 19.5272 25.8955 19.9439 25.8955H39.2481C39.6648 25.8955 40.0026 26.2333 40.0026 26.65C40.0026 27.0667 39.6648 27.4045 39.2481 27.4045Z" fill="#5CE2C5"/>
<path d="M40.4326 12.6383L32.8075 6.94531L32.554 6.87715L32.1381 6.8457L31.3019 7.04687L29.6733 8.17871L29.6602 8.37627C29.6817 8.3832 29.7024 8.39346 29.7213 8.40762L38.6272 15.0568C39.295 15.5556 40.2406 15.4182 40.7392 14.7505C41.2376 14.0825 41.1005 13.1369 40.4326 12.6383Z" fill="#FF7AB9"/>
<path d="M29.6609 8.37618L30.8512 7.48751C31.4373 7.05001 32.1665 6.88331 32.8624 6.98566L31.2101 5.75206C30.2604 5.04288 28.9336 5.04298 27.9839 5.75206L18.7607 12.6383C18.0928 13.1369 17.9556 14.0825 18.4542 14.7503C18.9529 15.4181 19.8986 15.5553 20.5663 15.0567L29.4722 8.40743C29.5274 8.36632 29.5978 8.35597 29.6609 8.37618Z" fill="#FF5CA8"/>
</g>
<defs>
<clipPath id="clip0_14818_7898">
<rect width="50" height="50" fill="white"/>
</clipPath>
</defs>
</svg>
