<svg width="32" height="32" viewBox="0 0 32 32" fill="none" xmlns="http://www.w3.org/2000/svg">
<path d="M7.46657 20.3468C7.45816 20.8224 7.55467 21.294 7.74924 21.7281C8.02767 22.3554 8.49588 22.8796 9.0879 23.2268C9.95114 23.7416 10.6403 24.5032 11.0666 25.4134L11.7866 26.9548C11.9529 27.3065 12.2156 27.604 12.544 27.8126C12.8725 28.0212 13.2534 28.1325 13.6426 28.1334C13.9858 28.1315 14.3231 28.0433 14.6233 27.877C14.9236 27.7107 15.1773 27.4716 15.361 27.1817C15.5447 26.8918 15.6526 26.5603 15.6748 26.2178C15.697 25.8752 15.6327 25.5326 15.4879 25.2214L13.7972 21.6161H18.1332C18.527 21.5929 18.8971 21.4202 19.1678 21.1332C19.4384 20.8461 19.5891 20.4666 19.5891 20.0721C19.5891 19.6776 19.4384 19.298 19.1678 19.011C18.8971 18.724 18.527 18.5512 18.1332 18.5281H18.6666C18.8779 18.5324 19.0879 18.494 19.284 18.4152C19.4801 18.3363 19.6582 18.2186 19.8076 18.0692C19.9571 17.9197 20.0748 17.7416 20.1537 17.5455C20.2325 17.3494 20.2709 17.1394 20.2666 16.9281C20.2582 16.5249 20.0921 16.141 19.804 15.8588C19.5158 15.5767 19.1285 15.4187 18.7252 15.4188H18.1332C18.3381 15.4209 18.5414 15.3823 18.7313 15.3051C18.9211 15.228 19.0938 15.114 19.2392 14.9696C19.3845 14.8252 19.4998 14.6533 19.5782 14.464C19.6566 14.2747 19.6966 14.0717 19.6959 13.8668C19.6945 13.6634 19.6529 13.4624 19.5735 13.2752C19.4941 13.0881 19.3784 12.9184 19.2332 12.7762C19.0879 12.6339 18.9159 12.5218 18.7272 12.4462C18.5384 12.3707 18.3365 12.3333 18.1332 12.3361H17.5999C17.8023 12.3361 18.0027 12.2962 18.1897 12.2188C18.3768 12.1413 18.5467 12.0278 18.6898 11.8846C18.8329 11.7415 18.9465 11.5716 19.0239 11.3846C19.1014 11.1976 19.1412 10.9972 19.1412 10.7948C19.1412 10.5923 19.1014 10.3919 19.0239 10.2049C18.9465 10.0179 18.8329 9.84799 18.6898 9.70486C18.5467 9.56174 18.3768 9.4482 18.1897 9.37074C18.0027 9.29329 17.8023 9.25342 17.5999 9.25342H9.4079C8.9001 9.25342 8.4131 9.45514 8.05403 9.81421C7.69496 10.1733 7.49324 10.6603 7.49324 11.1681L7.46657 20.3468Z" fill="#FFDDCE"/>
<path d="M15.1466 27.4773H14.9332C14.5447 27.4766 14.1644 27.3654 13.8367 27.1567C13.5091 26.948 13.2475 26.6504 13.0826 26.2986L12.3626 24.7573C11.9363 23.8471 11.2471 23.0854 10.3839 22.5706C9.8079 22.2346 7.75457 21.7173 7.67457 17.8186C7.64261 17.5246 7.57269 17.236 7.46657 16.96V20.3466C7.45816 20.8222 7.55467 21.2939 7.74924 21.728C8.02767 22.3553 8.49588 22.8794 9.0879 23.2266C9.95114 23.7414 10.6403 24.5031 11.0666 25.4133L11.7866 26.9546C11.9529 27.3064 12.2156 27.6039 12.544 27.8125C12.8725 28.0211 13.2534 28.1323 13.6426 28.1333C13.9417 28.133 14.237 28.0655 14.5066 27.936C14.7458 27.8256 14.9613 27.6698 15.1412 27.4773H15.1466Z" fill="#FFCBBE"/>
<path d="M19.1414 10.7948C19.1414 10.386 18.979 9.99392 18.6899 9.70486C18.4009 9.41581 18.0088 9.25342 17.6 9.25342H9.1947C8.76076 9.25441 8.33317 9.3578 7.94672 9.5552C7.56027 9.7526 7.22587 10.0384 6.9707 10.3894H17.6C17.9095 10.3893 18.2119 10.4823 18.4678 10.6564C18.7236 10.8304 18.9212 11.0775 19.0347 11.3654C19.1058 11.1854 19.142 10.9936 19.1414 10.8001V10.7948Z" fill="#FFCBBE"/>
<path d="M19.5893 14.448C19.6858 14.2129 19.7227 13.9575 19.697 13.7047C19.6712 13.4518 19.5835 13.2092 19.4417 12.9983C19.2999 12.7873 19.1082 12.6146 18.8837 12.4954C18.6593 12.3762 18.4089 12.3141 18.1547 12.3147H17.5627C17.4215 12.3284 17.2905 12.3942 17.1952 12.4992C17.0999 12.6042 17.0471 12.7409 17.0471 12.8827C17.0471 13.0245 17.0999 13.1612 17.1952 13.2662C17.2905 13.3713 17.4215 13.437 17.5627 13.4507H18.1333C18.4488 13.4486 18.7573 13.5431 19.0176 13.7213C19.2778 13.8996 19.4773 14.1532 19.5893 14.448Z" fill="#FFCBBE"/>
<path d="M20.1439 17.5359C20.2403 17.3007 20.2773 17.0454 20.2515 16.7926C20.2258 16.5397 20.1381 16.2971 19.9963 16.0861C19.8544 15.8752 19.6628 15.7025 19.4383 15.5833C19.2138 15.4641 18.9634 15.402 18.7092 15.4026H18.1332C17.9921 15.4163 17.8611 15.482 17.7658 15.587C17.6705 15.6921 17.6177 15.8288 17.6177 15.9706C17.6177 16.1124 17.6705 16.2491 17.7658 16.3541C17.8611 16.4591 17.9921 16.5249 18.1332 16.5386H18.7252C19.0343 16.544 19.3346 16.642 19.5875 16.8197C19.8404 16.9975 20.0342 17.247 20.1439 17.5359Z" fill="#FFCBBE"/>
<path d="M19.5893 20.6187C19.6858 20.3835 19.7227 20.1282 19.697 19.8753C19.6712 19.6225 19.5835 19.3798 19.4417 19.1689C19.2999 18.958 19.1082 18.7853 18.8837 18.6661C18.6593 18.5468 18.4089 18.4848 18.1547 18.4854H17.5627C17.4215 18.499 17.2905 18.5648 17.1952 18.6698C17.0999 18.7748 17.0471 18.9115 17.0471 19.0534C17.0471 19.1952 17.0999 19.3319 17.1952 19.4369C17.2905 19.5419 17.4215 19.6077 17.5627 19.6214H18.1333C18.4428 19.6212 18.7452 19.7142 19.0011 19.8883C19.257 20.0624 19.4545 20.3094 19.568 20.5974L19.5893 20.6187Z" fill="#FFCBBE"/>
<path d="M7.46676 10.7306V20.3306C7.46676 20.6507 7.33994 20.9579 7.11405 21.1848C6.88816 21.4116 6.58159 21.5398 6.26143 21.5412H3.88276C3.5635 21.5427 3.2566 21.4179 3.02886 21.1942C2.80112 20.9704 2.67098 20.6658 2.66676 20.3466V10.7466C2.66606 10.5878 2.69672 10.4305 2.75698 10.2837C2.81723 10.1368 2.90591 10.0033 3.0179 9.89082C3.1299 9.77833 3.26301 9.68907 3.4096 9.62816C3.55618 9.56725 3.71336 9.5359 3.87209 9.5359H6.25609C6.57485 9.53448 6.88119 9.65938 7.10808 9.88327C7.33498 10.1072 7.46394 10.4118 7.46676 10.7306Z" fill="#EE596B"/>
<path d="M7.46675 17.3174V20.3467C7.46675 20.6669 7.33993 20.974 7.11404 21.2009C6.88815 21.4278 6.58158 21.556 6.26141 21.5574H3.88275C3.72331 21.5581 3.56531 21.5273 3.41781 21.4668C3.27031 21.4062 3.13621 21.3172 3.02323 21.2047C2.91024 21.0922 2.82059 20.9585 2.75941 20.8113C2.69824 20.664 2.66675 20.5062 2.66675 20.3467V17.3174C2.66674 17.6375 2.79356 17.9447 3.01946 18.1716C3.24535 18.3985 3.55192 18.5266 3.87208 18.528H6.25608C6.57717 18.528 6.88511 18.4005 7.11215 18.1735C7.3392 17.9464 7.46675 17.6385 7.46675 17.3174Z" fill="#ED3A4F"/>
<path d="M18.5599 5.11463C18.328 5.08911 18.1145 4.97618 17.9629 4.79883C17.8113 4.62147 17.733 4.39302 17.7439 4.15996L17.8079 2.66663C17.8144 2.54168 17.8464 2.41939 17.9019 2.30726C17.9574 2.19514 18.0352 2.09555 18.1307 2.01462C18.2261 1.9337 18.337 1.87314 18.4567 1.83669C18.5764 1.80023 18.7023 1.78864 18.8266 1.80263L19.1679 1.83996C19.2919 1.85412 19.4117 1.89345 19.52 1.95552C19.6283 2.0176 19.7228 2.10111 19.7977 2.20097C19.8726 2.30082 19.9263 2.41491 19.9556 2.53624C19.9848 2.65758 19.989 2.78361 19.9679 2.90663L19.7013 4.36796C19.6607 4.59711 19.5345 4.80227 19.3484 4.94189C19.1622 5.08152 18.9299 5.14517 18.6986 5.11996H18.5599V5.11463Z" fill="#EE596B"/>
<path d="M21.9947 6.86389C21.8073 6.72591 21.6794 6.52189 21.6368 6.29315C21.5943 6.06441 21.6402 5.82804 21.7653 5.63189L22.5653 4.37322C22.6329 4.2673 22.7215 4.17639 22.8256 4.10612C22.9298 4.03585 23.0472 3.98773 23.1708 3.96472C23.2943 3.94172 23.4212 3.94434 23.5436 3.9724C23.6661 4.00047 23.7815 4.05339 23.8827 4.12789L24.16 4.33056C24.2614 4.40521 24.3463 4.49994 24.4095 4.60884C24.4727 4.71775 24.5128 4.8385 24.5274 4.96358C24.5419 5.08866 24.5305 5.21538 24.4939 5.33587C24.4573 5.45635 24.3963 5.56801 24.3147 5.66389L23.3547 6.79989C23.2033 6.97706 22.9905 7.09038 22.759 7.11709C22.5274 7.14381 22.2944 7.08193 22.1067 6.94389L21.9947 6.86389Z" fill="#EE596B"/>
<path d="M24.7413 9.59991C24.6477 9.386 24.6391 9.14443 24.7174 8.92443C24.7957 8.70443 24.9549 8.52256 25.1627 8.41591L26.48 7.72791C26.5911 7.66897 26.7132 7.63365 26.8386 7.62417C26.9641 7.6147 27.0901 7.63127 27.2088 7.67284C27.3275 7.71441 27.4363 7.78009 27.5284 7.86575C27.6205 7.95141 27.6939 8.05519 27.744 8.17058L27.8827 8.48524C27.9331 8.60063 27.9593 8.72517 27.9595 8.85112C27.9598 8.97706 27.9341 9.1017 27.884 9.21728C27.834 9.33286 27.7607 9.4369 27.6687 9.52291C27.5767 9.60893 27.468 9.67508 27.3493 9.71724L25.952 10.2186C25.733 10.2989 25.4915 10.2923 25.2772 10.2C25.0629 10.1078 24.8921 9.93691 24.8 9.72258L24.7413 9.59991Z" fill="#EE596B"/>
</svg>
