<svg width="554" height="454" viewBox="0 0 554 454" fill="none" xmlns="http://www.w3.org/2000/svg">
<g opacity="0.3">
<path d="M397.803 250.5C407.503 219.5 412.203 186.8 412.703 155.4C413.203 122.2 409.603 86.3 387.703 61.5C366.203 37.2 331.703 28.9 299.303 27.4C286.203 26.8 272.803 27.2 260.303 31.4C235.103 39.8 217.503 62.1 195.103 76.5C152.003 104.2 93.8026 100.9 52.3026 131C41.6026 138.7 32.5026 148.5 25.0026 159.3C-5.1974 202.6 -7.59739 262.6 15.5026 310C38.6026 357.5 84.9026 391.9 136.203 404.5C187.503 417.1 242.803 408.9 290.303 385.8C345.603 359 380.103 307.6 397.803 250.5Z" fill="#0054A6"/>
<path opacity="0.7" d="M397.803 250.5C407.503 219.5 412.203 186.8 412.703 155.4C413.203 122.2 409.603 86.3 387.703 61.5C366.203 37.2 331.703 28.9 299.303 27.4C286.203 26.8 272.803 27.2 260.303 31.4C235.103 39.8 217.503 62.1 195.103 76.5C152.003 104.2 93.8026 100.9 52.3026 131C41.6026 138.7 32.5026 148.5 25.0026 159.3C-5.1974 202.6 -7.59739 262.6 15.5026 310C38.6026 357.5 84.9026 391.9 136.203 404.5C187.503 417.1 242.803 408.9 290.303 385.8C345.603 359 380.103 307.6 397.803 250.5Z" fill="#0054A6"/>
</g>
<path opacity="0.3" d="M200.606 111C173.106 128.3 148.206 150 127.406 173.5C105.406 198.4 84.8058 228 85.3058 261.1C85.8058 293.6 106.606 322.3 130.306 344.5C139.906 353.5 150.306 361.9 162.506 366.9C187.106 376.9 215.006 371.4 241.306 375C292.106 382 334.206 422.4 385.306 426.4C398.406 427.4 411.706 426 424.506 422.7C475.606 409.5 516.406 365.5 529.806 314.4C543.206 263.3 530.306 207 499.606 164.1C468.906 121.2 421.506 91.4999 370.406 78.0999C310.906 62.5999 251.206 79.1999 200.606 111Z" fill="#0054A6"/>
<path d="M339.498 42.4V123.3C339.498 125.7 337.598 127.7 335.098 127.7H227.198C226.798 127.7 226.398 127.6 225.998 127.5C224.198 127 222.898 125.3 222.898 123.3V42.4C222.898 40 224.798 38 227.298 38H335.198C337.598 38 339.498 40 339.498 42.4Z" fill="#6B9BCA"/>
<path d="M289.602 91.1001L291.502 90.2001C292.402 89.8001 292.902 88.9001 292.702 87.9001L292.302 85.6001C292.102 84.7001 291.402 84.0001 290.402 83.9001L288.202 83.7001C287.402 83.6001 286.802 83.2001 286.402 82.5001C286.002 81.6001 285.502 80.7001 285.002 79.9001C284.602 79.2001 284.602 78.4001 285.002 77.7001L285.902 76.1001L286.102 75.8001C286.602 75.0001 286.502 73.9001 285.802 73.2001L284.102 71.6001C283.402 70.9001 282.402 70.8001 281.502 71.3001L279.602 72.5001C278.902 72.9001 278.102 72.9001 277.402 72.5001C275.502 71.3001 273.402 70.5001 271.202 69.9001C270.402 69.7001 269.802 69.1001 269.602 68.4001L269.002 66.2001C268.802 65.3001 267.902 64.6001 267.002 64.6001H264.602C263.602 64.6001 262.802 65.2001 262.602 66.2001L262.002 68.5001C261.802 69.2001 261.202 69.8001 260.502 70.0001C259.602 70.2001 258.702 70.5001 257.802 70.9001C257.102 71.2001 256.202 71.0001 255.702 70.5001L253.902 68.9001C253.202 68.3001 252.102 68.2001 251.302 68.8001L249.402 70.1001C248.602 70.6001 248.302 71.7001 248.602 72.6001L249.502 74.8001C249.802 75.5001 249.602 76.3001 249.102 76.9001C248.502 77.6001 248.002 78.3001 247.502 79.1001C247.102 79.8001 246.302 80.1001 245.502 80.1001L243.102 79.9001C242.102 79.8001 241.202 80.4001 240.902 81.3001L240.102 83.5001C239.802 84.4001 240.102 85.4001 240.902 85.9001L242.902 87.2001C243.502 87.6001 243.902 88.4001 243.802 89.2001C243.702 90.0001 243.702 90.9001 243.702 91.7001C243.702 91.8001 243.702 92.0001 243.702 92.1001C243.702 92.8001 243.302 93.5001 242.602 93.8001L240.502 95.0001C239.702 95.5001 239.202 96.5001 239.502 97.4001L240.102 99.7001C240.302 100.6 241.202 101.3 242.102 101.3H244.402C245.202 101.3 245.902 101.7 246.302 102.4C246.702 103.1 247.102 103.7 247.502 104.4C247.602 104.6 247.702 104.7 247.802 104.9C248.202 105.5 248.302 106.4 248.002 107L247.002 109C246.602 109.9 246.802 110.9 247.502 111.5L249.302 113C250.002 113.6 251.102 113.7 251.902 113.1L253.702 111.8C254.302 111.3 255.202 111.3 255.902 111.6C256.802 112 257.702 112.4 258.602 112.7C259.302 113 259.902 113.6 260.002 114.3L260.402 116.5C260.602 117.4 261.302 118.2 262.302 118.2L264.702 118.4C265.702 118.5 266.502 117.9 266.902 117L267.602 115C267.902 114.3 268.502 113.7 269.302 113.6C270.302 113.4 271.302 113.2 272.302 112.9C273.002 112.7 273.802 112.9 274.402 113.4L275.902 114.9C276.602 115.6 277.602 115.7 278.402 115.2L280.502 114C281.302 113.5 281.702 112.5 281.502 111.6L280.902 109.6C280.702 108.8 280.902 108 281.502 107.5C282.202 106.8 282.902 106.1 283.602 105.3C284.102 104.7 284.902 104.4 285.602 104.5L287.702 104.9C288.602 105.1 289.602 104.6 290.002 103.7L291.002 101.6C291.402 100.7 291.202 99.7001 290.402 99.1001L288.802 97.8001C288.202 97.3001 287.902 96.5001 288.102 95.8001C288.302 94.8001 288.402 93.9001 288.402 92.9001C288.402 92.1001 288.802 91.4001 289.602 91.1001ZM278.102 91.6001C278.102 98.5001 272.302 104 265.302 103.6C259.302 103.2 254.502 98.4001 254.102 92.4001C253.702 85.4001 259.202 79.6001 266.102 79.6001C269.402 79.6001 272.402 80.9001 274.602 83.1001C276.802 85.3001 278.002 88.2001 278.102 91.6001Z" fill="#0054A6"/>
<path d="M319.297 67.3002L319.897 67.0002C320.597 66.7002 320.997 65.9002 320.897 65.2002L320.797 64.5002C320.697 63.7002 319.997 63.2002 319.297 63.1002L318.597 63.0002C317.997 63.0002 317.497 62.6002 317.197 62.1002C316.997 61.7002 316.797 61.3002 316.597 60.9002C316.297 60.4002 316.297 59.8002 316.597 59.3002L316.997 58.7002C317.397 58.0002 317.297 57.2002 316.697 56.7002L316.197 56.2002C315.697 55.7002 314.797 55.5002 314.197 56.0002L313.597 56.4002C313.097 56.7002 312.497 56.7002 311.997 56.4002C310.997 55.8002 309.797 55.3002 308.697 55.0002C308.097 54.8002 307.697 54.4002 307.497 53.8002L307.297 53.0002C307.097 52.2002 306.397 51.7002 305.697 51.7002H304.997C304.197 51.7002 303.497 52.2002 303.397 53.0002L303.197 53.8002C303.097 54.4002 302.597 54.8002 301.997 55.0002C301.597 55.1002 301.197 55.2002 300.797 55.4002C300.197 55.6002 299.597 55.5002 299.197 55.1002L298.497 54.5002C297.897 54.0002 297.097 54.0002 296.497 54.4002L295.897 54.8002C295.297 55.2002 294.997 56.1002 295.297 56.8002L295.597 57.6002C295.797 58.2002 295.697 58.8002 295.297 59.2002C294.997 59.5002 294.797 59.8002 294.597 60.2002C294.297 60.7002 293.697 61.0002 293.097 60.9002L292.297 60.8002C291.497 60.7002 290.797 61.2002 290.597 61.9002L290.297 62.6002C289.997 63.3002 290.297 64.1002 290.897 64.5002L291.697 65.0002C292.197 65.3002 292.397 65.9002 292.397 66.5002C292.397 66.9002 292.297 67.4002 292.297 67.8002C292.297 68.4002 291.997 68.9002 291.497 69.2002L290.697 69.6002C289.997 70.0002 289.697 70.8002 289.897 71.5002L290.097 72.2002C290.297 72.9002 290.997 73.5002 291.697 73.4002H292.497C293.097 73.4002 293.597 73.7002 293.897 74.2002C294.097 74.6002 294.397 75.0002 294.597 75.3002C294.897 75.8002 294.997 76.4002 294.697 76.9002L294.397 77.6002C294.097 78.3002 294.197 79.1002 294.797 79.6002L295.397 80.1002C295.997 80.6002 296.797 80.6002 297.397 80.2002L297.997 79.8002C298.497 79.5002 299.097 79.4002 299.597 79.6002C299.997 79.8002 300.397 80.0002 300.897 80.1002C301.397 80.3002 301.797 80.8002 301.897 81.4002L301.997 82.1002C302.097 82.9002 302.797 83.4002 303.497 83.5002L304.297 83.6002C305.097 83.7002 305.797 83.2002 305.997 82.5002L306.197 81.9002C306.397 81.3002 306.897 80.9002 307.497 80.8002C307.997 80.7002 308.397 80.6002 308.897 80.5002C309.497 80.3002 310.097 80.5002 310.497 80.9002L310.997 81.4002C311.497 81.9002 312.397 82.1002 312.997 81.7002L313.597 81.3002C314.297 80.9002 314.597 80.1002 314.397 79.4002L314.197 78.8002C313.997 78.2002 314.197 77.6002 314.597 77.2002C314.897 76.9002 315.297 76.5002 315.597 76.1002C315.997 75.6002 316.597 75.4002 317.197 75.5002L317.897 75.6002C318.597 75.7002 319.397 75.4002 319.697 74.7002L319.997 74.0002C320.297 73.3002 320.097 72.5002 319.497 72.0002L318.997 71.6002C318.497 71.2002 318.297 70.7002 318.397 70.1002C318.497 69.6002 318.497 69.1002 318.597 68.6002C318.397 68.1002 318.797 67.6002 319.297 67.3002ZM313.397 67.8002C313.397 72.4002 309.697 76.1002 305.097 76.1002C300.497 76.1002 296.797 72.4002 296.797 67.8002C296.797 63.2002 300.497 59.5002 305.097 59.5002C309.697 59.4002 313.397 63.1002 313.397 67.8002Z" fill="#0054A6"/>
<path d="M339.498 42.4V42.6H222.898V42.4C222.898 40 224.798 38 227.298 38H335.198C337.598 38 339.498 40 339.498 42.4Z" fill="#0054A6"/>
<path d="M229.402 40.2999C229.402 40.7999 229.002 41.1999 228.502 41.1999C228.002 41.1999 227.602 40.7999 227.602 40.2999C227.602 39.7999 228.002 39.3999 228.502 39.3999C229.002 39.4999 229.402 39.7999 229.402 40.2999Z" fill="#8EB3D7"/>
<path d="M233.597 40.2999C233.597 40.7999 233.197 41.1999 232.697 41.1999C232.197 41.1999 231.797 40.7999 231.797 40.2999C231.797 39.7999 232.197 39.3999 232.697 39.3999C233.197 39.4999 233.597 39.7999 233.597 40.2999Z" fill="#8EB3D7"/>
<path d="M237.8 40.2999C237.8 40.7999 237.4 41.1999 236.9 41.1999C236.4 41.1999 236 40.7999 236 40.2999C236 39.7999 236.4 39.3999 236.9 39.3999C237.4 39.4999 237.8 39.7999 237.8 40.2999Z" fill="#8EB3D7"/>
<path d="M499.9 206.7H392.4C386.4 206.7 381.5 201.8 381.5 195.8V177.2C381.5 171.2 386.4 166.3 392.4 166.3H499.9C505.9 166.3 510.8 171.2 510.8 177.2V195.8C510.8 201.8 505.9 206.7 499.9 206.7Z" fill="#6B9BCA"/>
<path d="M492.202 185.7H404.102V186.8H492.202V185.7Z" fill="#002548"/>
<path d="M464.902 186.7L450.602 177H415.502L401.702 186.7L401.102 185.8L415.102 175.9H450.902L465.502 185.8L464.902 186.7Z" fill="#002548"/>
<path d="M467.9 186.3C467.9 187.8 466.7 189 465.2 189C463.7 189 462.5 187.8 462.5 186.3C462.5 184.8 463.7 183.6 465.2 183.6C466.7 183.5 467.9 184.7 467.9 186.3Z" fill="#0054A6"/>
<path d="M415.302 179.2C416.793 179.2 418.002 177.991 418.002 176.5C418.002 175.009 416.793 173.8 415.302 173.8C413.81 173.8 412.602 175.009 412.602 176.5C412.602 177.991 413.81 179.2 415.302 179.2Z" fill="#0054A6"/>
<path d="M453.502 176.5C453.502 178 452.302 179.2 450.802 179.2C449.302 179.2 448.102 178 448.102 176.5C448.102 175 449.302 173.8 450.802 173.8C452.302 173.8 453.502 174.9 453.502 176.5Z" fill="#0054A6"/>
<path d="M480.802 196.6H415.102L401.102 186.7L401.702 185.8L415.502 195.5H480.402L491.902 185.8L492.602 186.7L480.802 196.6Z" fill="#002548"/>
<path d="M439.306 196.1C439.306 197.6 438.106 198.8 436.606 198.8C435.106 198.8 433.906 197.6 433.906 196.1C433.906 194.6 435.106 193.4 436.606 193.4C438.106 193.4 439.306 194.5 439.306 196.1Z" fill="#0054A6"/>
<path d="M418.002 196.1C418.002 197.6 416.802 198.8 415.302 198.8C413.802 198.8 412.602 197.6 412.602 196.1C412.602 194.6 413.802 193.4 415.302 193.4C416.802 193.3 418.002 194.5 418.002 196.1Z" fill="#0054A6"/>
<path d="M483.306 196.1C483.306 197.6 482.106 198.8 480.606 198.8C479.106 198.8 477.906 197.6 477.906 196.1C477.906 194.6 479.106 193.4 480.606 193.4C482.106 193.3 483.306 194.5 483.306 196.1Z" fill="#0054A6"/>
<path d="M492.2 189C493.691 189 494.9 187.791 494.9 186.3C494.9 184.809 493.691 183.6 492.2 183.6C490.709 183.6 489.5 184.809 489.5 186.3C489.5 187.791 490.709 189 492.2 189Z" fill="#0054A6"/>
<path d="M404.103 186.3C404.103 187.8 402.903 189 401.403 189C399.903 189 398.703 187.8 398.703 186.3C398.703 184.8 399.903 183.6 401.403 183.6C402.903 183.5 404.103 184.7 404.103 186.3Z" fill="#0054A6"/>
<path d="M161.902 188H89.0016C83.0016 188 78.1016 183.1 78.1016 177.1V104.3C78.1016 98.2999 83.0016 93.3999 89.0016 93.3999H161.802C167.802 93.3999 172.702 98.2999 172.702 104.3V177.1C172.802 183.1 167.902 188 161.902 188Z" fill="#6B9BCA"/>
<path d="M152.598 169.6H97.0984C96.8984 169.6 96.6984 169.5 96.5984 169.3C96.4984 169.1 96.4984 168.9 96.5984 168.8L108.898 145C108.998 144.7 109.398 144.6 109.598 144.8C109.898 144.9 109.998 145.3 109.798 145.5L97.8984 168.5H152.598C152.898 168.5 153.098 168.7 153.098 169C153.098 169.3 152.898 169.6 152.598 169.6Z" fill="#002548"/>
<path d="M152.602 134.8C152.502 134.8 152.502 134.8 152.402 134.8L126.502 127C126.302 126.9 126.202 126.8 126.102 126.6C126.102 126.4 126.202 126.2 126.302 126.1L152.202 108.9C152.402 108.7 152.802 108.8 152.902 109C153.102 109.2 153.002 109.6 152.802 109.7L127.802 126.3L152.602 133.8C152.902 133.9 153.002 134.2 153.002 134.5C153.102 134.7 152.802 134.8 152.602 134.8Z" fill="#002548"/>
<path d="M158.8 103.1H146.5V115.4H158.8V103.1Z" fill="#0054A6"/>
<path d="M158.8 128.1H146.5V140.4H158.8V128.1Z" fill="#0054A6"/>
<path d="M132.902 120.3H120.602V132.6H132.902V120.3Z" fill="#0054A6"/>
<path d="M115.495 139.1H103.195V151.4H115.495V139.1Z" fill="#0054A6"/>
<path d="M103.198 162.9H90.8984V175.2H103.198V162.9Z" fill="#0054A6"/>
<path d="M158.8 162.9H146.5V175.2H158.8V162.9Z" fill="#0054A6"/>
<path d="M71.3 304.5H12.9C6.9 304.5 2 299.6 2 293.6V235.2C2 229.2 6.9 224.3 12.9 224.3H71.3C77.3 224.3 82.2 229.2 82.2 235.2V293.6C82.2 299.6 77.4 304.5 71.3 304.5Z" fill="#6B9BCA"/>
<path d="M63.9 232H10.5V236.1H63.9V232Z" fill="#0054A6"/>
<path d="M41.3 238.8H10.5V242.9H41.3V238.8Z" fill="#0054A6"/>
<path d="M28.5 245.6H10.5V249.7H28.5V245.6Z" fill="#0054A6"/>
<path d="M40.1 252.4H10.5V256.5H40.1V252.4Z" fill="#0054A6"/>
<path d="M56.6 259.2H10.5V263.3H56.6V259.2Z" fill="#0054A6"/>
<path d="M41.3 266H10.5V270.1H41.3V266Z" fill="#0054A6"/>
<path d="M32 272.8H10.5V276.9H32V272.8Z" fill="#0054A6"/>
<path d="M45.3 279.6H10.5V283.7H45.3V279.6Z" fill="#0054A6"/>
<path d="M52.7 286.4H10.5V290.5H52.7V286.4Z" fill="#0054A6"/>
<path d="M63.9 293.2H10.5V297.3H63.9V293.2Z" fill="#0054A6"/>
<path d="M63.9 232H10.5V236.1H63.9V232Z" fill="#0054A6"/>
<path d="M41.3 238.8H10.5V242.9H41.3V238.8Z" fill="#0054A6"/>
<path d="M28.5 245.6H10.5V249.7H28.5V245.6Z" fill="#0054A6"/>
<path d="M40.1 252.4H10.5V256.5H40.1V252.4Z" fill="#0054A6"/>
<path d="M56.6 259.2H10.5V263.3H56.6V259.2Z" fill="#0054A6"/>
<path d="M41.3 266H10.5V270.1H41.3V266Z" fill="#0054A6"/>
<path d="M32 272.8H10.5V276.9H32V272.8Z" fill="#0054A6"/>
<path d="M45.3 279.6H10.5V283.7H45.3V279.6Z" fill="#0054A6"/>
<path d="M52.7 286.4H10.5V290.5H52.7V286.4Z" fill="#0054A6"/>
<path d="M63.9 293.2H10.5V297.3H63.9V293.2Z" fill="#0054A6"/>
<path d="M62.6969 217.2H46.4969C43.6969 217.2 41.2969 219.5 41.2969 222.4V224.3H67.7969V222.4C67.7969 219.5 65.4969 217.2 62.6969 217.2Z" fill="#0054A6"/>
<path d="M49.3016 217.2H33.4016C30.5016 217.2 28.1016 219.6 28.1016 222.5V224.2H54.6016V222.5C54.6016 219.5 52.2016 217.2 49.3016 217.2Z" fill="#246CB2"/>
<path d="M35.1 217.2H18.5C15.8 217.2 13.5 219.4 13.5 222.2V224.3H40V222.2C40 219.4 37.8 217.2 35.1 217.2Z" fill="#6B9BCA"/>
<path d="M382.698 368.4C382.698 368.4 375.398 385 345.898 392C317.398 398.8 278.298 392.5 275.598 392.1C272.898 392.5 233.898 398.8 205.298 392.1C175.698 385.1 168.398 368.6 168.398 368.6L182.698 334.8L232.898 338.7L237.798 332.9L275.498 342.9L313.198 332.9L318.098 338.6L368.598 334.6L382.698 368.4Z" fill="#246CB2"/>
<path d="M281.5 399.4C281.3 399.4 281 399.2 281 399C281 398.7 281.2 398.5 281.4 398.4C281.5 398.4 291.1 397.2 295.8 395.6C296.1 395.5 296.3 395.7 296.4 395.9C296.5 396.2 296.3 396.4 296.1 396.5C291.3 398.1 282 399.4 281.5 399.4Z" fill="#AE3838"/>
<path d="M212.203 410.1C222.903 408.5 229.903 407.6 238.803 406.3C247.703 405 260.703 403.4 260.103 392.3C259.503 381.2 243.403 381.5 239.703 381.8C236.003 382.2 216.003 383 206.603 381.7C204.303 381.4 202.603 381.2 201.103 381.1C196.503 380.9 194.003 381.8 183.403 384C169.403 386.9 169.503 393.7 169.503 393.7C169.503 393.7 169.203 398.1 174.703 401.7C175.603 402.3 176.703 402.9 178.003 403.4C187.003 407 201.503 411.7 212.203 410.1Z" fill="#F9FAFB"/>
<path d="M257.206 392.3C257.206 392.3 258.806 396.1 249.506 399.4C240.206 402.7 232.306 405.4 227.506 403.1C222.706 400.8 220.806 392.6 223.306 387.5C225.806 382.4 234.906 383.7 239.206 384.9C243.506 386.1 252.206 386.2 255.106 388.5C258.206 390.8 257.206 392.3 257.206 392.3Z" fill="#B2CBE3"/>
<path d="M174.703 401.7C169.403 397 170.203 391.5 176.203 388.5C182.103 385.5 200.703 381.2 201.103 381.1C196.503 380.9 194.003 381.8 183.403 384C169.403 386.9 169.503 393.7 169.503 393.7C169.503 393.7 169.203 398.2 174.703 401.7Z" fill="#B2C9D8"/>
<path d="M217.302 399.1C217.102 399.1 216.802 399 216.702 398.8C216.602 398.6 213.602 393.9 216.402 389.3C216.602 389 217.102 388.8 217.402 389.1C217.702 389.3 217.902 389.8 217.602 390.1C215.202 394 217.702 397.9 217.802 398.1C218.002 398.4 217.902 398.9 217.602 399.1C217.602 399 217.502 399.1 217.302 399.1Z" fill="#212473"/>
<path d="M214.201 399.4C214.001 399.4 213.701 399.3 213.601 399.1C213.501 398.9 210.501 394.2 213.301 389.6C213.501 389.3 214.001 389.1 214.301 389.4C214.601 389.6 214.801 390.1 214.501 390.4C212.101 394.3 214.601 398.2 214.701 398.4C214.901 398.7 214.801 399.2 214.501 399.4C214.501 399.4 214.401 399.4 214.201 399.4Z" fill="#212473"/>
<path d="M211.099 399.4C210.899 399.4 210.599 399.3 210.499 399.1C210.399 398.9 207.399 394.2 210.199 389.6C210.399 389.3 210.899 389.1 211.199 389.4C211.499 389.6 211.699 390.1 211.399 390.4C208.999 394.3 211.499 398.2 211.599 398.4C211.799 398.7 211.699 399.2 211.399 399.4C211.399 399.4 211.299 399.4 211.099 399.4Z" fill="#212473"/>
<path d="M208.005 399.7C207.805 399.7 207.505 399.6 207.405 399.4C207.305 399.2 204.305 394.5 207.105 389.9C207.305 389.6 207.805 389.4 208.105 389.7C208.405 389.9 208.605 390.4 208.305 390.7C205.905 394.6 208.505 398.6 208.505 398.7C208.705 399 208.605 399.5 208.305 399.7C208.305 399.6 208.205 399.7 208.005 399.7Z" fill="#212473"/>
<path d="M251.002 402C245.402 402.4 240.802 402.6 238.102 402.7C236.402 402.8 235.402 402.8 235.402 402.8C235.402 402.8 230.102 399 229.102 385.2C229.102 385.2 232.802 383.9 238.702 381.9C240.002 381.5 241.302 381 242.802 380.5L248.302 381.2C248.302 381.2 252.902 391.5 253.702 394.7C254.002 396.3 252.502 399.5 251.002 402Z" fill="#B2CBE3"/>
<path d="M251.002 402L238.102 402.7L238.702 381.9C240.002 381.5 241.302 381 242.802 380.5L248.302 381.2C248.302 381.2 252.902 391.5 253.702 394.7C254.002 396.3 252.502 399.5 251.002 402Z" fill="#8EB3D7"/>
<path d="M363.305 381.3C354.605 385.5 339.605 389.3 323.105 392.5C287.505 399.5 245.105 403.9 245.105 403.9L239.805 377.5L282.905 362.8L360.605 336.3C360.605 336.3 378.805 328.2 385.005 346.7C391.105 365.2 380.005 373.3 363.305 381.3Z" fill="#4783BE"/>
<path d="M337.6 409.8C326.9 408.2 319.9 407.4 311 406.1C302.1 404.8 289.1 403.2 289.6 392.1C290.2 381 306.3 381.2 310 381.6C313.7 381.9 333.7 382.7 343.1 381.5C345.4 381.2 347.1 381 348.6 380.9C353.2 380.7 355.7 381.6 366.3 383.8C380.3 386.7 380.2 393.5 380.2 393.5C380.2 393.5 380.5 397.9 375 401.5C374.1 402.1 373 402.7 371.7 403.2C362.8 406.8 348.3 411.5 337.6 409.8Z" fill="#F9FAFB"/>
<path d="M292.499 392.1C292.499 392.1 290.899 396 300.199 399.2C309.499 402.5 317.399 405.2 322.199 402.9C326.999 400.6 328.799 392.4 326.299 387.3C323.799 382.2 314.699 383.5 310.399 384.7C306.099 385.9 297.399 386 294.499 388.4C291.599 390.7 292.499 392.1 292.499 392.1Z" fill="#B2CBE3"/>
<path d="M375.103 401.4C380.403 396.7 379.603 391.2 373.603 388.2C367.703 385.2 349.103 381 348.703 380.9C353.303 380.7 355.803 381.6 366.403 383.8C380.403 386.7 380.303 393.5 380.303 393.5C380.303 393.5 380.603 397.9 375.103 401.4Z" fill="#B2C9D8"/>
<path d="M332.399 398.9C332.599 398.9 332.899 398.8 332.999 398.6C333.099 398.4 336.099 393.7 333.199 389.1C332.999 388.8 332.499 388.7 332.199 388.9C331.899 389.1 331.699 389.6 331.999 389.9C334.399 393.7 331.899 397.7 331.799 397.9C331.599 398.2 331.699 398.7 331.999 398.9C332.199 398.8 332.299 398.9 332.399 398.9Z" fill="#212473"/>
<path d="M335.602 399.2C335.802 399.2 336.102 399.1 336.202 398.9C336.302 398.7 339.302 394 336.402 389.4C336.202 389.1 335.702 388.9 335.402 389.2C335.102 389.4 334.902 389.9 335.202 390.2C337.602 394 335.102 398 335.002 398.2C334.802 398.5 334.902 399 335.202 399.2C335.302 399.2 335.402 399.2 335.602 399.2Z" fill="#212473"/>
<path d="M338.696 399.2C338.896 399.2 339.196 399.1 339.296 398.9C339.396 398.7 342.396 394 339.496 389.4C339.296 389.1 338.796 388.9 338.496 389.2C338.196 389.4 337.996 389.9 338.296 390.2C340.696 394 338.196 398 338.096 398.2C337.896 398.5 337.996 399 338.296 399.2C338.396 399.2 338.496 399.2 338.696 399.2Z" fill="#212473"/>
<path d="M341.798 399.5C341.998 399.5 342.298 399.4 342.398 399.2C342.498 399 345.498 394.3 342.598 389.7C342.398 389.4 341.898 389.3 341.598 389.5C341.298 389.7 341.098 390.2 341.398 390.5C343.798 394.4 341.198 398.4 341.198 398.5C340.998 398.8 341.098 399.3 341.398 399.5C341.498 399.4 341.598 399.5 341.798 399.5Z" fill="#212473"/>
<path d="M298.701 401.8C304.301 402.2 308.901 402.3 311.601 402.4C313.301 402.5 314.301 402.5 314.301 402.5C314.301 402.5 319.601 398.7 320.601 384.9C320.601 384.9 316.901 383.6 311.001 381.6C309.701 381.2 308.401 380.7 306.901 380.2L301.401 380.9C301.401 380.9 296.801 391.2 296.101 394.4C295.801 396.1 297.301 399.3 298.701 401.8Z" fill="#B2CBE3"/>
<path d="M298.701 401.8L311.601 402.4L311.001 381.6C309.701 381.2 308.401 380.7 306.901 380.2L301.401 380.9C301.401 380.9 296.801 391.2 296.101 394.4C295.801 396.1 297.301 399.3 298.701 401.8Z" fill="#8EB3D7"/>
<path d="M304.702 403.8L309.902 377.4L189.002 336.4C189.002 336.4 170.802 328.3 164.702 346.8C158.602 365.3 169.702 373.4 186.402 381.4C213.902 394.5 304.702 403.8 304.702 403.8Z" fill="#4783BE"/>
<path d="M411.497 304.4L407.397 319.5C407.397 319.5 395.897 323.6 374.397 327.2C374.197 327.2 373.997 327.3 373.797 327.3C362.197 329.2 349.897 329.4 340.797 329.1L345.797 306C352.197 305.3 361.097 305.3 370.297 305.3C385.597 305.5 402.197 305.9 411.497 304.4Z" fill="#B2CBE3"/>
<path d="M370.297 305.4L374.397 327.2C374.197 327.2 373.997 327.3 373.797 327.3C362.197 329.2 349.897 329.4 340.797 329.1L345.797 306C352.197 305.4 360.997 305.4 370.297 305.4Z" fill="#8EB3D7"/>
<path d="M404.094 320.6C404.094 320.6 407.994 319.8 410.494 320.2C412.994 320.6 422.294 319.7 429.894 314.4C437.494 309.1 442.694 308.1 444.994 306.1C447.194 304.1 442.494 303 436.594 306.1C432.094 308.5 431.794 308 431.794 308C431.794 308 438.994 302.8 443.494 300.6C447.994 298.4 449.194 298 449.594 296.9C449.994 295.9 446.794 293.7 442.494 296.3C438.194 298.9 433.394 301 431.594 302.1C431.594 302.1 436.294 298.9 437.494 297.7C438.794 296.6 445.594 290.6 446.594 289.7C447.694 288.8 448.094 288 447.594 287.2C447.094 286.5 445.494 286.1 441.894 289.1C437.594 292.6 428.594 298.1 428.594 298.1C428.594 298.1 433.094 294.2 432.494 290.2C431.894 286.2 421.694 282.9 420.694 283C419.694 283.1 419.794 285.3 421.594 286.7C423.394 288.1 426.894 289.8 426.994 291.5C427.094 293.2 423.294 297.2 421.594 297.7C419.894 298.2 421.094 289.1 420.794 287.3C420.494 285.6 418.194 283.1 416.794 283.5C415.394 283.9 416.394 287.7 416.294 290.2C416.194 292.6 414.594 296.6 412.494 299.2C410.394 301.8 409.094 303.9 408.294 306.3C407.594 308.7 404.394 308.9 404.394 308.9L404.094 320.6Z" fill="#B2CBE3"/>
<path d="M415.491 309.6C415.291 309.6 415.191 309.5 415.091 309.3C414.991 309.1 414.991 308.8 415.291 308.6C418.991 306.5 421.291 301.3 421.291 301.3C421.391 301 421.691 300.9 421.991 301C422.291 301.1 422.391 301.4 422.291 301.7C422.191 301.9 419.891 307.3 415.791 309.5C415.691 309.6 415.591 309.6 415.491 309.6Z" fill="#002548"/>
<path d="M426.89 310.9C426.79 310.9 426.59 310.8 426.49 310.7C424.19 307.9 422.79 301.3 422.69 301C422.59 300.7 422.79 300.5 423.09 300.4C423.39 300.3 423.59 300.5 423.69 300.8C423.69 300.9 425.09 307.5 427.19 310.1C427.39 310.3 427.29 310.6 427.09 310.8C427.09 310.8 426.99 310.9 426.89 310.9Z" fill="#002548"/>
<path d="M362.697 304.4L363.597 329.9C363.597 329.9 340.697 331.6 333.897 329.2C330.897 328.2 326.997 319.4 324.097 312.2C321.197 305 317.897 294.5 317.897 294.5L309.797 232.5C309.797 232.5 318.597 233.4 325.997 241C332.397 247.6 343.697 297.8 348.297 302.5C350.997 305.4 353.897 303.2 362.697 304.4Z" fill="#F9FAFB"/>
<path d="M357.5 303.7C357.5 303.7 362.4 301.1 367.2 303.6L369.7 329.2C369.7 329.2 363.3 332.2 360.1 330.6L357.5 303.7Z" fill="#D5E2EF"/>
<path d="M143.398 304.7L147.598 319.8C147.598 319.8 159.098 323.9 180.598 327.5C180.798 327.5 180.998 327.6 181.198 327.6C192.798 329.5 205.098 329.6 214.198 329.4L209.098 306.3C202.698 305.7 193.798 305.6 184.498 305.7C169.398 305.7 152.798 306.2 143.398 304.7Z" fill="#B2CBE3"/>
<path d="M184.703 305.6L180.703 327.4C180.903 327.4 181.103 327.5 181.303 327.5C192.903 329.4 205.203 329.5 214.303 329.3L209.203 306.2C202.803 305.6 194.003 305.5 184.703 305.6Z" fill="#8EB3D7"/>
<path d="M150.899 320.9C150.899 320.9 146.999 320.1 144.499 320.5C141.999 320.9 132.699 320 125.099 314.7C117.499 309.4 112.199 308.5 109.999 306.4C107.799 304.4 112.499 303.3 118.399 306.4C122.899 308.8 123.199 308.3 123.199 308.3C123.199 308.3 115.999 303.1 111.399 300.9C106.899 298.7 105.699 298.3 105.299 297.2C104.899 296.2 108.099 294 112.399 296.6C116.699 299.2 121.499 301.3 123.299 302.4C123.299 302.4 118.599 299.2 117.299 298.1C115.999 297 109.199 291 108.199 290.1C107.099 289.2 106.699 288.4 107.199 287.6C107.699 286.9 109.299 286.5 112.899 289.5C117.199 293 126.299 298.4 126.299 298.4C126.299 298.4 121.799 294.5 122.399 290.5C122.999 286.5 133.199 283.2 134.199 283.3C135.199 283.4 135.099 285.6 133.299 287C131.499 288.4 127.999 290.1 127.899 291.8C127.799 293.5 131.599 297.5 133.299 298C134.999 298.5 133.799 289.4 133.999 287.6C134.299 285.9 136.599 283.4 137.899 283.8C139.299 284.2 138.299 288 138.399 290.5C138.499 292.9 140.199 296.9 142.199 299.5C144.299 302.1 145.699 304.2 146.399 306.6C147.099 309 150.299 309.2 150.299 309.2L150.899 320.9Z" fill="#B2CBE3"/>
<path d="M139.503 309.9C139.403 309.9 139.303 309.9 139.303 309.8C135.303 307.5 132.903 302.2 132.803 302C132.703 301.7 132.803 301.4 133.103 301.3C133.403 301.2 133.603 301.3 133.803 301.6C133.803 301.7 136.103 306.8 139.903 308.9C140.103 309 140.203 309.3 140.103 309.6C139.803 309.8 139.703 309.9 139.503 309.9Z" fill="#002548"/>
<path d="M128.099 311.2C127.999 311.2 127.899 311.2 127.799 311.1C127.599 310.9 127.598 310.6 127.698 310.4C129.798 307.8 131.198 301.2 131.198 301.1C131.298 300.8 131.499 300.7 131.799 300.7C132.099 300.8 132.198 301 132.198 301.3C132.098 301.6 130.798 308.2 128.498 311C128.398 311.1 128.299 311.2 128.099 311.2Z" fill="#002548"/>
<path d="M192.198 304.6L191.398 330.1C191.398 330.1 214.298 331.7 221.098 329.4C224.098 328.4 227.998 319.6 230.798 312.4C233.598 305.2 236.998 294.7 236.998 294.7L244.898 232.7C244.898 232.7 236.998 231.6 229.598 239.2C223.198 245.8 211.098 298.1 206.598 302.8C203.998 305.6 200.998 303.4 192.198 304.6Z" fill="#F9FAFB"/>
<path d="M197.498 303.8C197.498 303.8 192.598 301.2 187.798 303.7L185.398 329.3C185.398 329.3 191.798 332.2 194.998 330.7L197.498 303.8Z" fill="#D5E2EF"/>
<path d="M292.902 236.7L275.302 254L257.602 236.7C259.702 233.7 261.002 230.3 261.902 227C263.902 219.7 263.502 213.1 263.502 213.1H287.002C287.002 213.1 286.802 216.8 287.502 221.8C288.202 226.4 289.702 232 292.902 236.7Z" fill="#B2CBE3"/>
<path d="M287.498 221.8C282.698 224.2 273.998 227.3 261.898 227C263.898 219.7 263.498 213.1 263.498 213.1H286.998C286.998 213.1 286.798 216.8 287.498 221.8Z" fill="#8EB3D7"/>
<path d="M311.599 191C313.199 194.2 310.899 198.6 306.399 200.8C301.899 203 296.999 202.3 295.399 199.1C293.799 195.9 296.099 191.5 300.599 189.3C305.099 187.1 309.999 187.9 311.599 191Z" fill="#8EB3D7"/>
<path d="M238.801 191.6C237.301 194.8 239.601 199.2 244.101 201.3C248.601 203.5 253.501 202.6 255.001 199.4C256.501 196.2 254.201 191.8 249.701 189.7C245.201 187.5 240.301 188.4 238.801 191.6Z" fill="#8EB3D7"/>
<path d="M303.002 188.7C303.102 205.8 290.802 221.5 275.802 221.6C260.802 221.7 248.802 206.2 248.602 189.1C248.502 172 260.502 158 275.502 157.9C290.602 157.8 302.802 171.6 303.002 188.7Z" fill="#B2CBE3"/>
<path d="M251.6 186.1C251.6 186.1 253 182 254.2 179.9L260.6 179C260.6 179 260.6 181.6 264.6 181.7C268.7 181.8 287.1 180 295.4 177.6C295.4 177.6 299.4 181.4 299.9 184.4C299.9 184.4 303.3 178.4 299.9 174.4C296.5 170.4 288.6 162.3 286.3 162.4C284 162.4 262 162.4 262 162.4C262 162.4 254 172.3 253.2 172.5C252.5 172.7 251.7 174.8 251.7 174.8L249 184.4L251.6 186.1Z" fill="#8EB3D7"/>
<path d="M250.799 200.7C250.799 200.7 249.699 186.8 254.699 175L253.599 159.6C253.599 159.7 236.299 168.6 250.799 200.7Z" fill="#002548"/>
<path d="M301.005 200.7C301.005 200.7 302.105 186.8 297.005 175C297.005 175 283.405 178.4 270.505 179.2C257.505 180 266.705 175.5 267.805 175C266.905 175.3 258.805 178.1 251.505 177.6C251.405 177.6 251.305 177.6 251.205 177.6C250.105 177.5 249.005 177.4 247.905 177.1C247.405 177 246.905 176.8 246.505 176.6C245.405 176.1 244.405 175.4 243.605 174.8C240.805 172.4 239.805 169.5 239.805 169.5C242.405 166.7 244.505 163.9 245.705 162.2L245.805 162.1C246.205 161.5 246.505 161 246.705 160.8C246.805 160.7 246.805 160.6 246.805 160.6C249.105 157.4 253.005 153.4 259.105 150.1C271.005 143.8 292.705 147.1 298.005 159.7C298.005 159.6 315.405 168.6 301.005 200.7Z" fill="#002548"/>
<path d="M298.005 159.6C298.005 159.6 286.705 149.4 274.605 149.6C262.505 149.8 252.905 157 248.905 162.4C244.905 167.7 242.105 170.4 242.105 170.4C242.105 171.8 243.605 174.7 243.605 174.7C240.805 172.3 239.805 169.4 239.805 169.4C242.405 166.6 244.505 163.8 245.705 162.1L245.805 162C246.205 161.4 246.505 160.9 246.705 160.7C246.805 160.6 246.805 160.5 246.805 160.5C249.105 157.3 253.005 153.3 259.105 150C271.005 143.7 292.705 147 298.005 159.6Z" fill="#0054A6"/>
<path d="M274.601 202.7C274.301 202.7 274.101 202.6 274.001 202.3C272.201 198.4 273.501 192.9 273.501 192.7C273.601 192.3 273.901 192.1 274.301 192.2C274.701 192.3 274.901 192.6 274.801 193C274.801 193.1 273.601 198.3 275.201 201.8C275.401 202.1 275.201 202.5 274.901 202.7C274.801 202.7 274.701 202.7 274.601 202.7Z" fill="#002548"/>
<path d="M275.506 207.4C274.706 207.4 274.106 207.3 274.006 207.3C273.606 207.3 273.406 206.9 273.406 206.5C273.406 206.1 273.806 205.9 274.206 205.9C274.306 205.9 281.506 206.8 284.506 201.4C284.706 201.1 285.106 201 285.406 201.1C285.706 201.3 285.806 201.7 285.706 202C283.106 206.8 278.006 207.4 275.506 207.4Z" fill="#002548"/>
<path d="M291.6 187.9C291.4 187.9 291.2 187.8 291.1 187.7C288.8 185 284.301 183.8 281.701 184.4C281.301 184.5 281 184.3 280.9 183.9C280.8 183.5 281 183.2 281.4 183.1C284.4 182.4 289.501 183.7 292.201 186.9C292.401 187.2 292.4 187.6 292.1 187.8C291.9 187.8 291.7 187.9 291.6 187.9Z" fill="#002548"/>
<path d="M285.502 193.9C284.002 193.9 282.602 193.6 281.302 192.9C281.002 192.7 280.802 192.3 281.002 192C281.202 191.7 281.602 191.5 281.902 191.7C283.802 192.7 286.002 192.8 288.102 192.1C288.502 192 288.802 192.2 288.902 192.5C289.002 192.9 288.802 193.2 288.502 193.3C287.502 193.8 286.502 193.9 285.502 193.9Z" fill="#002548"/>
<path d="M257.803 187.9C257.603 187.9 257.503 187.8 257.403 187.7C257.103 187.5 257.103 187 257.303 186.8C260.003 183.7 265.003 182.3 268.103 183C268.503 183.1 268.703 183.4 268.603 183.8C268.503 184.2 268.203 184.4 267.803 184.3C265.203 183.7 260.703 184.9 258.403 187.7C258.203 187.8 258.003 187.9 257.803 187.9Z" fill="#002548"/>
<path d="M263.906 193.9C262.906 193.9 261.906 193.7 261.006 193.4C260.606 193.3 260.506 192.9 260.606 192.6C260.706 192.2 261.106 192.1 261.406 192.2C263.406 192.9 265.706 192.7 267.606 191.7C267.906 191.5 268.306 191.7 268.506 192C268.706 192.3 268.506 192.7 268.206 192.9C266.806 193.6 265.406 193.9 263.906 193.9Z" fill="#002548"/>
<path d="M319.999 337.5C321.799 340.2 309.399 347.6 275.499 351.3C275.099 351.2 274.599 351.2 274.199 351.1C273.699 351 273.299 351 272.799 350.9C240.999 347.1 229.199 340.1 230.999 337.5C232.099 335.9 232.599 333.9 232.799 332.5C232.799 332.3 232.799 332.2 232.799 332C232.699 328.8 232.399 325.2 232.099 321.3C230.599 302.7 227.399 277.8 227.699 261.8C228.099 239.4 230.399 234.9 240.899 232.6C245.799 231.5 253.799 231 260.799 230.7C260.799 230.7 264.499 242.3 275.399 242.2C286.399 242.2 289.999 230.6 289.999 230.6C291.699 230.7 293.399 230.7 295.099 230.8C300.599 231.1 306.099 231.6 309.899 232.4C320.399 234.7 322.699 239.2 323.199 261.6C323.299 264.8 320.799 293.6 319.399 314.2C318.899 321.7 318.499 328 318.299 331.7C318.299 333.3 318.699 335.7 319.999 337.5Z" fill="#F9FAFB"/>
<path d="M230.9 311.6C230.6 311.6 230.3 311.3 230.2 311C228.5 293.5 227.2 275.7 226.5 258.2C226.5 257.8 226.8 257.5 227.1 257.5C227.5 257.5 227.8 257.8 227.8 258.1C228.5 275.6 229.7 293.4 231.5 310.9C231.6 311.2 231.3 311.5 230.9 311.6Z" fill="#C7D7E2"/>
<path d="M228.402 285.7C228.202 285.7 228.002 285.6 227.902 285.5C225.402 282.7 223.002 279.6 221.002 276.3C220.802 276 220.902 275.6 221.202 275.4C221.502 275.2 221.902 275.3 222.102 275.6C224.102 278.8 226.302 281.8 228.802 284.6C229.002 284.9 229.002 285.3 228.702 285.5C228.702 285.7 228.602 285.7 228.402 285.7Z" fill="#C7D7E2"/>
<path d="M319.903 301C319.503 301 319.203 300.7 319.203 300.3C319.203 292.9 319.303 285.3 319.503 277.9C319.603 270.5 319.803 262.9 319.803 255.5C319.803 255.1 320.103 254.8 320.503 254.8C320.903 254.8 321.203 255.1 321.203 255.5C321.203 262.9 321.103 270.5 320.903 277.9C320.803 285.3 320.603 292.9 320.603 300.3C320.603 300.7 320.303 301 319.903 301Z" fill="#C7D7E2"/>
<path d="M320.1 284.5C319.9 284.5 319.7 284.4 319.6 284.3C319.4 284 319.4 283.6 319.7 283.4C322.3 281.1 324.6 278.5 326.5 275.5C326.7 275.2 327.1 275.1 327.4 275.3C327.7 275.5 327.8 275.9 327.6 276.2C325.7 279.3 323.3 282.1 320.6 284.4C320.4 284.5 320.2 284.5 320.1 284.5Z" fill="#C7D7E2"/>
<path d="M275.503 351.4C241.603 347.7 229.103 340.4 230.903 337.7C232.003 336.1 232.503 334.1 232.703 332.7C232.703 332.5 232.703 332.4 232.703 332.2C237.703 336.7 249.303 342.8 274.103 340.8C312.503 337.8 319.203 314.5 319.203 314.5C318.703 322 318.303 328.3 318.103 332C318.303 333.4 318.703 335.8 320.003 337.6C321.803 340.2 309.303 347.6 275.503 351.4Z" fill="#D5E2EF"/>
<path d="M271.702 247.6C271.702 247.6 269.502 268.6 277.802 278.4C286.102 288.1 293.202 296.8 293.002 318.7L304.702 324.5C304.702 324.5 303.502 295 291.102 284C278.702 273 277.102 264.8 276.302 262.1C275.502 259.5 274.702 249.2 274.702 249.2L271.702 247.6Z" fill="#C1D7E5"/>
<path d="M274.002 247.6L274.102 351.3C273.602 351.2 273.202 351.2 272.702 351.1L272.602 247.6H274.002Z" fill="#8EB3D7"/>
<path d="M279.305 281.8C279.305 282.6 278.605 283.3 277.805 283.3C277.005 283.3 276.305 282.6 276.305 281.8C276.305 281 277.005 280.3 277.805 280.3C278.605 280.3 279.305 281 279.305 281.8Z" fill="#8EB3D7"/>
<path d="M279.305 299.1C279.305 299.9 278.605 300.6 277.805 300.6C277.005 300.6 276.305 299.9 276.305 299.1C276.305 298.3 277.005 297.6 277.805 297.6C278.605 297.6 279.305 298.3 279.305 299.1Z" fill="#8EB3D7"/>
<path d="M279.305 315.9C279.305 316.7 278.605 317.4 277.805 317.4C277.005 317.4 276.305 316.7 276.305 315.9C276.305 315.1 277.005 314.4 277.805 314.4C278.605 314.4 279.305 315.1 279.305 315.9Z" fill="#8EB3D7"/>
<path d="M279.305 332.7C279.305 333.5 278.605 334.2 277.805 334.2C277.005 334.2 276.305 333.5 276.305 332.7C276.305 331.9 277.005 331.2 277.805 331.2C278.705 331.3 279.305 331.9 279.305 332.7Z" fill="#8EB3D7"/>
<path d="M308.503 300.5C305.503 290.2 287.403 279.4 282.503 271.3C279.003 265.4 277.703 255.6 277.303 250.7L282.703 245.3L275.203 242.3L267.703 245.3L273.203 250.8C272.803 277.7 286.503 282.2 291.903 292.9C297.503 304 297.403 319 297.403 319L306.003 325.7L311.203 317.1C311.403 317 311.503 310.8 308.503 300.5Z" fill="#0054A6"/>
<path d="M289.905 230.7C289.905 230.7 285.705 239.4 275.305 242.3C275.305 242.3 279.705 247.4 287.605 247.5C295.505 247.6 293.005 230.7 293.005 230.7H289.905Z" fill="#D5E2EF"/>
<path d="M260.601 230.8C260.601 230.8 264.901 239.5 275.201 242.3C275.201 242.3 270.801 247.4 262.901 247.6C255.001 247.7 257.501 230.8 257.501 230.8H260.601Z" fill="#D5E2EF"/>
</svg>
