<svg width="44" height="65" viewBox="0 0 44 65" fill="none" xmlns="http://www.w3.org/2000/svg">
<g clip-path="url(#clip0_5116_22620)">
<path d="M10.8372 65.0002C16.8172 65.0002 21.6706 60.1468 21.6706 54.1668V43.3335H10.8372C4.85724 43.3335 0.00390625 48.1868 0.00390625 54.1668C0.00390625 60.1468 4.85724 65.0002 10.8372 65.0002Z" fill="#0ACF83"/>
<path d="M0.00390625 32.4998C0.00390625 26.5198 4.85724 21.6665 10.8372 21.6665H21.6706V43.3332H10.8372C4.85724 43.3332 0.00390625 38.4798 0.00390625 32.4998Z" fill="#A259FF"/>
<path d="M0.00390625 10.8333C0.00390625 4.85333 4.85724 0 10.8372 0H21.6706V21.6667H10.8372C4.85724 21.6667 0.00390625 16.8133 0.00390625 10.8333Z" fill="#F24E1E"/>
<path d="M21.6709 0H32.5042C38.4842 0 43.3376 4.85333 43.3376 10.8333C43.3376 16.8133 38.4842 21.6667 32.5042 21.6667H21.6709V0Z" fill="#FF7262"/>
<path d="M43.3376 32.4998C43.3376 38.4798 38.4842 43.3332 32.5042 43.3332C26.5242 43.3332 21.6709 38.4798 21.6709 32.4998C21.6709 26.5198 26.5242 21.6665 32.5042 21.6665C38.4842 21.6665 43.3376 26.5198 43.3376 32.4998Z" fill="#1ABCFE"/>
</g>
<defs>
<clipPath id="clip0_5116_22620">
<rect width="43.342" height="65" fill="white"/>
</clipPath>
</defs>
</svg>
