<svg width="32" height="32" viewBox="0 0 32 32" fill="none" xmlns="http://www.w3.org/2000/svg">
<path d="M16 10.1675C13.4952 10.1675 4.00301 10.2147 4.00301 12.6647V24.1266C3.999 24.1619 3.999 24.1976 4.00301 24.2329C4.22593 21.8696 13.5601 21.8263 15.9919 21.8263C18.4237 21.8263 27.7457 21.8696 27.9808 24.2329C27.9848 24.1976 27.9848 24.1619 27.9808 24.1266V12.6686C27.9808 10.2384 18.4805 10.1714 15.9838 10.1714L16 10.1675Z" fill="#ECEFF1"/>
<g opacity="0.38">
<path d="M21.9985 15.1619C21.9994 16.1768 21.7276 17.1744 21.21 18.0559C20.6925 18.9374 19.947 19.6723 19.0475 20.188C18.148 20.7036 17.1255 20.9821 16.0812 20.9958C15.037 21.0096 14.0071 20.7581 13.0935 20.2664C12.1799 19.7746 11.4143 19.0596 10.8724 18.192C10.3304 17.3244 10.0309 16.3344 10.0035 15.3198C9.97614 14.3053 10.2218 13.3013 10.7162 12.4073C11.2106 11.5133 11.9366 10.7603 12.8224 10.2226C14.1599 10.1714 15.3272 10.1675 16 10.1675C16.6728 10.1675 17.836 10.1675 19.1816 10.2266C20.044 10.7488 20.7552 11.476 21.2481 12.3395C21.741 13.203 21.9992 14.1744 21.9985 15.1619Z" fill="#ABB1C3"/>
</g>
<path d="M11.716 17.2095V18.2296L11.1688 18.6235L10.4311 19.1355V21.8376C10.4311 21.9483 10.3859 22.0545 10.3053 22.1328C10.2247 22.2111 10.1155 22.2551 10.0015 22.2551C9.88758 22.2551 9.7783 22.2111 9.69773 22.1328C9.61716 22.0545 9.5719 21.9483 9.5719 21.8376V18.9228C9.5702 18.856 9.58606 18.7898 9.61797 18.7305C9.64988 18.6713 9.69679 18.6209 9.75429 18.5841L10.7108 17.9106C11.0553 17.6743 11.3917 17.4419 11.716 17.2095Z" fill="#686A74"/>
<path d="M13.4303 18.9116V23.0749C13.4303 23.1857 13.385 23.2919 13.3045 23.3702C13.2239 23.4485 13.1146 23.4924 13.0007 23.4924C12.8867 23.4924 12.7774 23.4485 12.6969 23.3702C12.6163 23.2919 12.571 23.1857 12.571 23.0749V18.9116H13.4303Z" fill="#686A74"/>
<path d="M16.4296 18.9116V23.906C16.4296 24.0167 16.3843 24.1229 16.3037 24.2012C16.2232 24.2795 16.1139 24.3235 15.9999 24.3235C15.886 24.3235 15.7767 24.2795 15.6961 24.2012C15.6156 24.1229 15.5703 24.0167 15.5703 23.906V18.9116H16.4296Z" fill="#686A74"/>
<path d="M19.4288 18.9116V23.0749C19.4288 23.1857 19.3836 23.2919 19.303 23.3702C19.2224 23.4485 19.1131 23.4924 18.9992 23.4924C18.8853 23.4924 18.776 23.4485 18.6954 23.3702C18.6148 23.2919 18.5696 23.1857 18.5696 23.0749V18.9116H19.4288Z" fill="#686A74"/>
<path d="M22.428 18.911V21.4082C22.428 21.519 22.3828 21.6252 22.3022 21.7035C22.2216 21.7818 22.1124 21.8257 21.9984 21.8257C21.8845 21.8257 21.7752 21.7818 21.6946 21.7035C21.6141 21.6252 21.5688 21.519 21.5688 21.4082V19.1237L20.8433 18.6117L20.2961 18.2178V17.2095C20.6204 17.4419 20.9568 17.6743 21.3013 17.9106L22.2457 18.5762C22.3031 18.613 22.3501 18.6634 22.382 18.7227C22.4139 18.7819 22.4297 18.8481 22.428 18.915V18.911Z" fill="#686A74"/>
<path d="M10.7107 17.9106C11.0593 17.6743 11.3957 17.4419 11.7199 17.2095V18.2296L11.1727 18.6235C11 18.3978 10.8455 18.1595 10.7107 17.9106Z" fill="#00325A"/>
<path d="M12.571 18.9116H13.4303V20.4281C13.1295 20.292 12.8419 20.1299 12.571 19.9436V18.9116Z" fill="#00325A"/>
<path d="M15.5745 18.9116H16.4337V20.9756C16.2919 20.9756 16.15 20.9756 16.0041 20.9756C15.8582 20.9756 15.7163 20.9756 15.5745 20.9756V18.9116Z" fill="#00325A"/>
<path d="M18.5696 18.9116H19.4288V19.9436C19.158 20.1299 18.8704 20.292 18.5696 20.4281V18.9116Z" fill="#00325A"/>
<path d="M21.2891 17.9106C21.1606 18.1558 21.0115 18.3903 20.8433 18.6117L20.2961 18.2178V17.2095C20.6082 17.4419 20.9446 17.6743 21.2891 17.9106Z" fill="#00325A"/>
<path d="M16 20.5771C19.3128 20.5771 21.9985 17.9671 21.9985 14.7476C21.9985 11.5281 19.3128 8.91821 16 8.91821C12.6871 8.91821 10.0015 11.5281 10.0015 14.7476C10.0015 17.9671 12.6871 20.5771 16 20.5771Z" fill="#007FF2"/>
<path d="M16.0001 19.7422C18.8384 19.7422 21.1393 17.5061 21.1393 14.7478C21.1393 11.9895 18.8384 9.75342 16.0001 9.75342C13.1618 9.75342 10.8608 11.9895 10.8608 14.7478C10.8608 17.5061 13.1618 19.7422 16.0001 19.7422Z" fill="#006EE5"/>
<path d="M21.1392 14.748C21.1432 14.8162 21.1432 14.8846 21.1392 14.9528C21.0865 13.6646 20.5228 12.4462 19.5663 11.5529C18.6098 10.6595 17.3347 10.1606 16.008 10.1606C14.6814 10.1606 13.4063 10.6595 12.4498 11.5529C11.4932 12.4462 10.9296 13.6646 10.8769 14.9528C10.8708 14.8847 10.8708 14.8162 10.8769 14.748C10.8576 14.0801 10.9763 13.4152 11.226 12.7926C11.4757 12.17 11.8513 11.6024 12.3306 11.1233C12.8099 10.6442 13.3832 10.2634 14.0166 10.0034C14.65 9.74335 15.3306 9.60938 16.0182 9.60938C16.7057 9.60938 17.3863 9.74335 18.0197 10.0034C18.6531 10.2634 19.2264 10.6442 19.7057 11.1233C20.185 11.6024 20.5606 12.17 20.8103 12.7926C21.06 13.4152 21.1787 14.0801 21.1594 14.748H21.1392Z" fill="#0062BA"/>
<path d="M6.57259 15.0079V25.5717C6.57442 25.6418 6.55807 25.7112 6.52505 25.7735C6.49202 25.8358 6.44339 25.889 6.38363 25.9283C6.32387 25.9675 6.25491 25.9915 6.1831 25.998C6.11129 26.0045 6.03895 25.9934 5.97274 25.9656C4.79736 25.4575 4.07997 24.8785 4.01107 24.2325C4.00705 24.1972 4.00705 24.1615 4.01107 24.1262V12.6682C4.01107 13.4008 4.86626 14.0783 6.30509 14.6376C6.38898 14.665 6.46133 14.7184 6.5111 14.7895C6.56086 14.8606 6.58531 14.9456 6.58069 15.0315L6.57259 15.0079Z" fill="#D2D9DC"/>
<path d="M27.997 12.6682V24.1301C28.001 24.1655 28.001 24.2011 27.997 24.2365C27.9281 24.8706 27.2107 25.4614 26.0313 25.9577C25.965 25.9844 25.893 25.9948 25.8216 25.9878C25.7502 25.9808 25.6817 25.9567 25.6223 25.9177C25.5628 25.8786 25.5143 25.8259 25.481 25.7641C25.4477 25.7024 25.4306 25.6336 25.4314 25.5638V15.0079C25.4354 14.9268 25.4635 14.8486 25.5125 14.7828C25.5614 14.7171 25.629 14.6666 25.707 14.6376C27.1418 14.0744 27.997 13.3969 27.997 12.6682Z" fill="#D2D9DC"/>
<path d="M16.4296 6.41751V7.25254C16.4296 7.36327 16.3843 7.46947 16.3037 7.54776C16.2232 7.62606 16.1139 7.67005 15.9999 7.67005C15.886 7.67005 15.7767 7.62606 15.6961 7.54776C15.6156 7.46947 15.5703 7.36327 15.5703 7.25254V6.41751C15.5703 6.30678 15.6156 6.20059 15.6961 6.12229C15.7767 6.04399 15.886 6 15.9999 6C16.1139 6 16.2232 6.04399 16.3037 6.12229C16.3843 6.20059 16.4296 6.30678 16.4296 6.41751Z" fill="#80D261"/>
<path d="M18.8736 7.54814L18.2656 8.13502C18.2259 8.17356 18.1789 8.20413 18.1271 8.22498C18.0753 8.24584 18.0197 8.25657 17.9636 8.25657C17.9076 8.25657 17.852 8.24584 17.8002 8.22498C17.7484 8.20413 17.7013 8.17356 17.6617 8.13502C17.622 8.09649 17.5906 8.05074 17.5691 8.00039C17.5477 7.95004 17.5366 7.89608 17.5366 7.84158C17.5366 7.78709 17.5477 7.73312 17.5691 7.68278C17.5906 7.63243 17.622 7.58668 17.6617 7.54814L18.2656 6.95732C18.3462 6.87898 18.4556 6.83496 18.5696 6.83496C18.6836 6.83496 18.7929 6.87898 18.8736 6.95732C18.9542 7.03567 18.9995 7.14193 18.9995 7.25273C18.9995 7.36353 18.9542 7.4698 18.8736 7.54814Z" fill="#E30E08"/>
<path d="M14.3586 8.13513C14.2775 8.21258 14.1683 8.25599 14.0546 8.25599C13.9409 8.25599 13.8317 8.21258 13.7506 8.13513L13.1427 7.54825C13.063 7.46943 13.0183 7.36334 13.0183 7.25284C13.0183 7.14233 13.063 7.03624 13.1427 6.95743C13.2231 6.88021 13.3316 6.83691 13.4446 6.83691C13.5577 6.83691 13.6662 6.88021 13.7466 6.95743L14.3586 7.54825C14.438 7.62639 14.4826 7.73183 14.4826 7.84169C14.4826 7.95155 14.438 8.05698 14.3586 8.13513Z" fill="#FCC400"/>
<path d="M16 25.1546C16.4723 25.1546 16.8552 24.7825 16.8552 24.3235C16.8552 23.8645 16.4723 23.4924 16 23.4924C15.5277 23.4924 15.1448 23.8645 15.1448 24.3235C15.1448 24.7825 15.5277 25.1546 16 25.1546Z" fill="#80D261"/>
<path d="M18.9992 23.9053C19.4715 23.9053 19.8544 23.5332 19.8544 23.0742C19.8544 22.6153 19.4715 22.2432 18.9992 22.2432C18.5269 22.2432 18.144 22.6153 18.144 23.0742C18.144 23.5332 18.5269 23.9053 18.9992 23.9053Z" fill="#FCC400"/>
<path d="M13.0009 23.9053C13.4733 23.9053 13.8561 23.5332 13.8561 23.0742C13.8561 22.6153 13.4733 22.2432 13.0009 22.2432C12.5286 22.2432 12.1458 22.6153 12.1458 23.0742C12.1458 23.5332 12.5286 23.9053 13.0009 23.9053Z" fill="#FCC400"/>
<path d="M10.0014 23.0706C10.4737 23.0706 10.8566 22.6985 10.8566 22.2395C10.8566 21.7805 10.4737 21.4084 10.0014 21.4084C9.52912 21.4084 9.14624 21.7805 9.14624 22.2395C9.14624 22.6985 9.52912 23.0706 10.0014 23.0706Z" fill="#E30E08"/>
<path d="M21.9985 22.6573C22.4708 22.6573 22.8537 22.2852 22.8537 21.8262C22.8537 21.3672 22.4708 20.9951 21.9985 20.9951C21.5262 20.9951 21.1433 21.3672 21.1433 21.8262C21.1433 22.2852 21.5262 22.6573 21.9985 22.6573Z" fill="#E30E08"/>
<path d="M16.7903 14.2833L16.4742 14.1809C16.2092 14.1233 15.9603 14.0104 15.7446 13.85C15.6829 13.7872 15.6389 13.71 15.6168 13.6258C15.5948 13.5416 15.5956 13.4533 15.619 13.3695C15.6393 13.2973 15.6789 13.2316 15.7337 13.1791C15.7885 13.1265 15.8566 13.0889 15.9311 13.0701C16.0463 13.0335 16.1692 13.0259 16.2882 13.0479C16.4073 13.07 16.5187 13.121 16.612 13.1962C16.7249 13.287 16.8703 13.3306 17.0162 13.3173C17.1621 13.304 17.2967 13.2349 17.3902 13.1253C17.4837 13.0156 17.5286 12.8743 17.5149 12.7325C17.5012 12.5906 17.4301 12.4599 17.3172 12.369C17.1484 12.2367 16.958 12.1329 16.7539 12.0618C16.7382 12.0561 16.7247 12.0459 16.7153 12.0325C16.7059 12.0191 16.7009 12.0032 16.7012 11.9869V11.7034C16.7077 11.6289 16.6983 11.5539 16.6735 11.4831C16.6487 11.4124 16.609 11.3474 16.557 11.2924C16.505 11.2373 16.4417 11.1933 16.3713 11.1633C16.3009 11.1332 16.2248 11.1177 16.1479 11.1177C16.071 11.1177 15.9949 11.1332 15.9245 11.1633C15.8541 11.1933 15.7909 11.2373 15.7389 11.2924C15.6869 11.3474 15.6472 11.4124 15.6224 11.4831C15.5975 11.5539 15.5881 11.6289 15.5947 11.7034V12.0066C15.5949 12.0229 15.59 12.0388 15.5805 12.0522C15.5711 12.0656 15.5576 12.0758 15.542 12.0815C15.3093 12.1569 15.0986 12.2853 14.9273 12.4559C14.756 12.6265 14.6291 12.8344 14.5571 13.0622C14.4818 13.3185 14.4747 13.5892 14.5364 13.8489C14.598 14.1086 14.7265 14.3488 14.9097 14.5472C15.2467 14.868 15.6669 15.094 16.1256 15.201C16.2229 15.2286 16.3202 15.264 16.4256 15.2995C16.5579 15.3313 16.6723 15.4121 16.7442 15.5247C16.8161 15.6373 16.84 15.7727 16.8106 15.9021C16.7828 16.0646 16.6968 16.2122 16.5677 16.3189C16.4386 16.4256 16.2748 16.4845 16.1054 16.4851C15.7851 16.5246 15.4614 16.4428 15.2015 16.2566C15.1394 16.2172 15.0698 16.1904 14.9967 16.1778C14.9237 16.1652 14.8488 16.167 14.7765 16.1832C14.7043 16.1994 14.6361 16.2296 14.5761 16.272C14.5161 16.3143 14.4655 16.3681 14.4274 16.4299C14.3546 16.5523 14.3334 16.6974 14.3681 16.8346C14.4029 16.9719 14.4909 17.0908 14.6139 17.1665C14.8839 17.35 15.1927 17.4724 15.5177 17.5249C15.5363 17.5286 15.5529 17.5385 15.5648 17.5529C15.5766 17.5673 15.5829 17.5852 15.5825 17.6037V17.7888C15.5812 17.9287 15.635 18.0639 15.733 18.1664C15.831 18.269 15.9657 18.3312 16.1094 18.3402C16.184 18.3434 16.2585 18.3319 16.3284 18.3065C16.3984 18.281 16.4623 18.2422 16.5164 18.1921C16.5705 18.1421 16.6137 18.082 16.6433 18.0154C16.673 17.9488 16.6885 17.8771 16.689 17.8046V17.517C16.6884 17.5012 16.6932 17.4856 16.7028 17.4727C16.7123 17.4599 16.726 17.4505 16.7417 17.4461C17.0401 17.3341 17.3036 17.149 17.5067 16.9088C17.7098 16.6687 17.8455 16.3816 17.9009 16.0754C17.9735 15.6964 17.9005 15.3046 17.6959 14.9744C17.4912 14.6441 17.169 14.3982 16.7903 14.2833Z" fill="#EEF0F5"/>
</svg>
