<svg width="60" height="60" viewBox="0 0 60 60" fill="none" xmlns="http://www.w3.org/2000/svg">
<path opacity="0.993" fill-rule="evenodd" clip-rule="evenodd" d="M58.1861 14.707C39.3579 14.707 20.5298 14.707 1.70168 14.707C1.64789 11.9665 1.70649 9.23214 1.87746 6.50391C2.63311 4.26368 4.17607 2.95508 6.50637 2.57813C22.1313 2.5 37.7564 2.5 53.3814 2.57813C55.7146 2.95844 57.2576 4.26703 58.0103 6.50391C58.1813 9.23214 58.2398 11.9665 58.1861 14.707Z" fill="#423D9B"/>
<path fill-rule="evenodd" clip-rule="evenodd" d="M6.85796 6.62112C8.46194 6.38654 9.43851 7.05059 9.78765 8.61331C9.37084 10.575 8.23803 11.1804 6.38921 10.4297C5.03454 8.96874 5.19078 7.69921 6.85796 6.62112Z" fill="#FBCD6D"/>
<path fill-rule="evenodd" clip-rule="evenodd" d="M13.7719 6.50391C15.7011 6.65298 16.4628 7.66861 16.0571 9.55078C15.2931 10.795 14.2579 11.0879 12.9516 10.4297C11.4983 8.75317 11.7716 7.44457 13.7719 6.50391Z" fill="#77E35B"/>
<path fill-rule="evenodd" clip-rule="evenodd" d="M19.983 6.62119C21.6071 6.39229 22.5446 7.07588 22.7955 8.67197C22.544 10.2893 21.6065 10.9533 19.983 10.6642C18.8402 10.1562 18.391 9.2773 18.6354 8.02744C18.9113 7.38064 19.3605 6.91189 19.983 6.62119Z" fill="#F14A58"/>
<path fill-rule="evenodd" clip-rule="evenodd" d="M31.1158 7.20703C38.1081 7.1875 45.1002 7.20703 52.0923 7.26563C53.1769 7.74283 53.4308 8.50454 52.854 9.55078C52.6512 9.79882 52.3972 9.9746 52.0923 10.0781C45.1001 10.1563 38.108 10.1563 31.1158 10.0781C30.1358 9.63906 29.8429 8.9164 30.2369 7.91016C30.4846 7.60303 30.7776 7.36866 31.1158 7.20703Z" fill="#E3E1F8"/>
<path opacity="0.998" fill-rule="evenodd" clip-rule="evenodd" d="M1.70166 14.707C20.5298 14.707 39.3579 14.707 58.186 14.707C58.2056 27.4414 58.186 40.1759 58.1274 52.9102C57.4826 55.391 55.9005 56.8559 53.3813 57.3047C37.7564 57.3829 22.1313 57.3829 6.50635 57.3047C3.98712 56.8559 2.40509 55.391 1.76026 52.9102C1.70166 40.1759 1.68213 27.4414 1.70166 14.707Z" fill="#E8E6FB"/>
<path fill-rule="evenodd" clip-rule="evenodd" d="M6.38919 18.2227C9.82691 18.2031 13.2645 18.2227 16.7017 18.2813C17.399 18.5715 17.5747 19.0597 17.229 19.7461C17.1232 19.8869 16.9866 19.9846 16.8189 20.0391C13.3033 20.1172 9.78763 20.1172 6.272 20.0391C5.62445 19.3778 5.66351 18.7723 6.38919 18.2227Z" fill="#F24B58"/>
<path fill-rule="evenodd" clip-rule="evenodd" d="M19.2799 18.2226C20.3743 18.2032 21.4681 18.2226 22.5611 18.2812C23.155 18.6308 23.2918 19.119 22.9713 19.7461C22.8655 19.8868 22.7288 19.9845 22.5611 20.039C21.4674 20.1172 20.3736 20.1172 19.2799 20.039C18.506 19.44 18.506 18.8345 19.2799 18.2226Z" fill="#F34D59"/>
<path fill-rule="evenodd" clip-rule="evenodd" d="M25.3735 27.8319C25.3836 27.7152 25.3445 27.6175 25.2563 27.5389C24.5644 27.1733 23.8612 26.8412 23.147 26.5428C24.5516 25.1079 26.2508 24.2094 28.2446 23.8475C29.9176 24.0298 31.3824 24.6744 32.6392 25.7811C34.038 26.9452 35.3661 28.1953 36.6235 29.5311C37.7495 30.602 38.9995 31.5003 40.3735 32.2264C40.7641 32.3046 41.1548 32.3046 41.5454 32.2264C42.5674 31.5568 43.4853 30.7559 44.2993 29.8241C46.0865 27.8811 47.7858 25.8693 49.397 23.7889C48.1125 23.9108 47.5461 23.3444 47.6978 22.0897C47.7897 21.8804 47.9264 21.7046 48.1079 21.5623C49.1471 21.2734 50.2018 21.039 51.272 20.8592C51.8329 20.7562 52.3797 20.7954 52.9126 20.9764C53.1607 21.1793 53.3365 21.4332 53.4399 21.7381C53.5957 22.5964 53.7519 23.4557 53.9087 24.3162C53.9869 24.8632 53.9869 25.41 53.9087 25.9569C53.2887 26.6934 52.6245 26.7325 51.9165 26.0741C51.8116 25.8041 51.7139 25.5305 51.6235 25.2537C51.5845 25.2733 51.5454 25.2928 51.5063 25.3123C49.2556 28.2276 46.7947 30.962 44.1235 33.5155C42.5734 34.8853 40.8546 35.1196 38.9673 34.2186C37.8699 33.6311 36.8544 32.928 35.9204 32.1092C34.1112 30.2602 32.1971 28.5416 30.1782 26.953C29.1648 26.2108 28.1101 26.1327 27.0142 26.7186C26.4436 27.0618 25.8968 27.433 25.3735 27.8319Z" fill="#F24C59"/>
<path fill-rule="evenodd" clip-rule="evenodd" d="M6.38905 22.3242C8.45973 22.3047 10.53 22.3242 12.6 22.3828C13.2356 22.6192 13.4505 23.0684 13.2445 23.7305C13.1146 24.0018 12.8996 24.1776 12.6 24.2578C10.5297 24.336 8.45936 24.336 6.38905 24.2578C5.79034 23.8634 5.65361 23.336 5.97889 22.6758C6.15684 22.5981 6.29355 22.4809 6.38905 22.3242Z" fill="#4E7DFD"/>
<path fill-rule="evenodd" clip-rule="evenodd" d="M23.147 26.543C23.8612 26.8413 24.5644 27.1734 25.2563 27.5391C25.3445 27.6177 25.3836 27.7153 25.3735 27.832C25.0196 28.1855 24.6289 28.498 24.2017 28.7695C23.3819 28.3929 22.5616 28.0413 21.7407 27.7148C22.2095 27.3243 22.6782 26.9336 23.147 26.543Z" fill="#CF1D4C"/>
<path fill-rule="evenodd" clip-rule="evenodd" d="M17.0532 27.3632C17.4132 27.326 17.7647 27.3651 18.1079 27.4804C18.6493 28.6019 19.157 29.7347 19.6313 30.8788C18.7524 30.7737 17.8931 30.7737 17.0532 30.8788C17.0142 30.8788 16.975 30.8788 16.936 30.8788C16.5602 29.9314 16.15 28.9939 15.7055 28.0663C15.6377 27.899 15.6572 27.7426 15.7641 27.5976C16.1861 27.4981 16.6158 27.4199 17.0532 27.3632Z" fill="#FECF6C"/>
<path fill-rule="evenodd" clip-rule="evenodd" d="M17.0532 27.3631C18.4843 27.1534 19.8906 27.2706 21.272 27.7146C21.1693 27.6993 21.0912 27.7383 21.0376 27.8318C21.7351 29.2656 22.3992 30.711 23.0298 32.1678C21.9786 31.5308 20.8458 31.1011 19.6313 30.8787C19.1571 29.7346 18.6493 28.6017 18.1079 27.4803C17.7648 27.3649 17.4132 27.3259 17.0532 27.3631Z" fill="#FED889"/>
<path fill-rule="evenodd" clip-rule="evenodd" d="M21.272 27.7147C21.4282 27.7147 21.5845 27.7147 21.7407 27.7147C22.5616 28.0412 23.3819 28.3927 24.2017 28.7694C29.4304 32.168 31.2078 36.8946 29.5337 42.9491C29.3171 43.4599 29.1022 43.9676 28.8892 44.4725C28.7724 44.4826 28.6748 44.4434 28.5962 44.3553C27.9503 42.9074 27.3057 41.4622 26.6626 40.0194C26.6626 39.9803 26.6626 39.9412 26.6626 39.9022C26.6914 39.1921 26.6524 38.489 26.5454 37.7928C26.6846 37.9316 26.8214 37.9316 26.9556 37.7928C27.3336 36.8407 27.9586 36.0985 28.8306 35.5662C28.9087 35.4491 28.9087 35.3319 28.8306 35.2147C27.9007 34.6408 27.2171 33.8595 26.7798 32.8709C26.4592 33.3158 26.1662 33.7845 25.9009 34.2772C25.7402 34.4578 25.5644 34.6141 25.3735 34.7459C24.8406 33.7439 24.0984 32.9235 23.147 32.285C23.0688 32.285 23.0298 32.246 23.0298 32.1678C22.3992 30.711 21.7351 29.2657 21.0376 27.8319C21.0912 27.7383 21.1693 27.6993 21.272 27.7147Z" fill="#FED06D"/>
<path fill-rule="evenodd" clip-rule="evenodd" d="M15.7642 27.5977C15.6573 27.7427 15.6377 27.8991 15.7056 28.0664C16.1501 28.9939 16.5602 29.9314 16.936 30.8789C14.2399 31.4565 12.2673 32.98 11.0181 35.4492C10.652 36.2917 10.3981 37.151 10.2563 38.0273C9.6113 36.5034 8.90818 35.019 8.14697 33.5742C9.82081 30.4957 12.3599 28.5035 15.7642 27.5977Z" fill="#FED889"/>
<path fill-rule="evenodd" clip-rule="evenodd" d="M19.6313 30.8791C20.2173 32.1292 20.8032 33.3791 21.3892 34.6291C20.7096 34.3834 20.0065 34.2466 19.2798 34.219C19.2016 33.8284 19.1236 33.4377 19.0454 33.0471C18.709 32.8002 18.3965 32.8196 18.1079 33.1057C17.7286 32.3858 17.377 31.6437 17.0532 30.8791C17.8931 30.774 18.7524 30.774 19.6313 30.8791Z" fill="#F8A83D"/>
<path fill-rule="evenodd" clip-rule="evenodd" d="M19.6313 30.8789C20.8458 31.1013 21.9786 31.5311 23.0298 32.168C23.0298 32.2461 23.0688 32.2852 23.147 32.2852C23.556 33.3369 24.0247 34.3526 24.5532 35.332C24.5599 35.462 24.5989 35.5792 24.6704 35.6836C25.2766 37.1299 25.9407 38.5362 26.6626 39.9023C26.6626 39.9414 26.6626 39.9805 26.6626 40.0195C26.5131 40.7633 26.2981 41.5056 26.0181 42.2461C25.859 42.6443 25.6442 42.9959 25.3735 43.3008C24.1626 40.7227 22.9516 38.1445 21.7407 35.5664C21.8195 35.163 21.7023 34.8505 21.3892 34.6289C20.8032 33.3789 20.2173 32.1289 19.6313 30.8789Z" fill="#FAB863"/>
<path fill-rule="evenodd" clip-rule="evenodd" d="M16.936 30.8789C16.9751 30.8789 17.0142 30.8789 17.0532 30.8789C17.377 31.6434 17.7286 32.3856 18.1079 33.1055C18.1079 33.1445 18.1079 33.1836 18.1079 33.2227C17.9939 33.5095 17.9549 33.8221 17.9907 34.1602C15.5906 34.5873 14.7507 35.9545 15.4712 38.2617C16.1513 38.9729 16.9717 39.4417 17.9321 39.668C17.9907 40.5265 18.0102 41.3858 17.9907 42.2461C17.206 42.219 16.4638 42.0237 15.7642 41.6602C15.1379 41.7592 14.9231 42.1107 15.1196 42.7148C15.9597 43.3659 16.9167 43.6785 17.9907 43.6523C17.9404 44.0926 18.0185 44.5028 18.2251 44.8828C18.5587 44.9934 18.8517 44.9348 19.104 44.707C19.1624 44.3576 19.1819 44.006 19.1626 43.6523C20.3647 43.6472 21.2828 43.1394 21.9165 42.1289C21.9849 41.8058 21.9458 41.4934 21.7993 41.1914C21.3682 40.447 21.0362 39.6657 20.8032 38.8477C22.0099 39.5662 22.4591 40.6209 22.1509 42.0117C22.6519 43.1305 23.1792 44.2242 23.7329 45.293C23.7329 45.332 23.7329 45.3711 23.7329 45.4102C21.4025 47.1247 18.8244 47.613 15.9985 46.875C15.2205 46.5641 14.4784 46.1931 13.772 45.7617C13.772 45.6836 13.7329 45.6445 13.6548 45.6445C12.5818 43.1086 11.449 40.6086 10.2563 38.1445C10.2563 38.1055 10.2563 38.0664 10.2563 38.0273C10.3981 37.151 10.652 36.2917 11.0181 35.4492C12.2673 32.98 14.2399 31.4565 16.936 30.8789Z" fill="#F8B863"/>
<path fill-rule="evenodd" clip-rule="evenodd" d="M23.147 32.2852C24.0984 32.9237 24.8406 33.744 25.3735 34.7461C25.1163 34.9716 24.8429 35.1669 24.5532 35.332C24.0247 34.3526 23.556 33.3369 23.147 32.2852Z" fill="#F9A940"/>
<path fill-rule="evenodd" clip-rule="evenodd" d="M21.3892 34.6287C21.7023 34.8503 21.8195 35.1628 21.7407 35.5662C21.5949 35.8357 21.3606 35.992 21.0376 36.0349C20.5971 35.8815 20.1478 35.7643 19.6899 35.6834C19.5532 35.7224 19.4165 35.7615 19.2798 35.8005C19.7431 36.7658 20.1728 37.7425 20.5688 38.7302C20.1169 38.5432 19.6481 38.426 19.1626 38.3787C19.1821 37.4013 19.1626 36.4248 19.104 35.449C18.7703 34.7038 18.4383 33.9615 18.1079 33.2224C18.1079 33.1834 18.1079 33.1443 18.1079 33.1052C18.3965 32.8192 18.709 32.7997 19.0454 33.0466C19.1236 33.4372 19.2016 33.8279 19.2798 34.2185C20.0065 34.2462 20.7096 34.3829 21.3892 34.6287Z" fill="#FDCA6A"/>
<path fill-rule="evenodd" clip-rule="evenodd" d="M26.5454 37.793C26.208 36.8309 25.5831 36.1277 24.6704 35.6836C24.5989 35.5792 24.5599 35.462 24.5532 35.332C24.8429 35.1669 25.1163 34.9716 25.3735 34.7461C25.5644 34.6143 25.7402 34.4579 25.9009 34.2773C26.1662 33.7847 26.4592 33.3159 26.7798 32.8711C27.2171 33.8597 27.9007 34.641 28.8306 35.2148C28.9087 35.332 28.9087 35.4492 28.8306 35.5664C27.9586 36.0987 27.3336 36.8408 26.9556 37.793C26.8214 37.9317 26.6846 37.9317 26.5454 37.793Z" fill="#FFFDFB"/>
<path fill-rule="evenodd" clip-rule="evenodd" d="M18.108 33.2227C18.4384 33.9618 18.7704 34.704 19.1041 35.4492C19.1627 36.425 19.1822 37.4016 19.1627 38.3789C19.6482 38.4262 20.117 38.5434 20.569 38.7305C20.6471 38.7695 20.7252 38.8086 20.8033 38.8477C21.0363 39.6657 21.3683 40.447 21.7994 41.1914C21.9459 41.4934 21.985 41.8058 21.9166 42.1289C21.2829 43.1394 20.3648 43.6472 19.1627 43.6523C19.182 44.006 19.1625 44.3576 19.1041 44.707C18.8518 44.9348 18.5588 44.9934 18.2252 44.8828C18.0186 44.5028 17.9406 44.0926 17.9908 43.6523C16.9168 43.6785 15.9599 43.3659 15.1197 42.7148C14.9232 42.1107 15.138 41.7592 15.7643 41.6602C16.4639 42.0237 17.2061 42.219 17.9908 42.2461C18.0103 41.3858 17.9908 40.5265 17.9322 39.668C16.9718 39.4417 16.1515 38.9729 15.4713 38.2617C14.7508 35.9545 15.5907 34.5873 17.9908 34.1602C17.955 33.8221 17.994 33.5095 18.108 33.2227Z" fill="#FED888"/>
<path fill-rule="evenodd" clip-rule="evenodd" d="M8.147 33.5742C8.9082 35.019 9.61133 36.5034 10.2564 38.0273C10.2564 38.0664 10.2564 38.1055 10.2564 38.1445C10.0622 41.2702 11.195 43.7701 13.6548 45.6445C13.733 45.6445 13.772 45.6836 13.772 45.7617C14.4196 47.2328 15.0837 48.6976 15.7642 50.1562C15.6946 50.2106 15.6164 50.2302 15.5298 50.2148C10.4982 48.7086 7.62715 45.3493 6.91653 40.1367C6.62747 37.8128 7.03762 35.6254 8.147 33.5742Z" fill="#FED06C"/>
<path fill-rule="evenodd" clip-rule="evenodd" d="M17.5219 35.6836C17.6781 35.6836 17.8344 35.6836 17.9906 35.6836C17.9906 36.4257 17.9906 37.168 17.9906 37.9102C17.1291 37.8116 16.7189 37.3429 16.7602 36.5039C16.9587 36.169 17.2126 35.8956 17.5219 35.6836Z" fill="#FAB964"/>
<path fill-rule="evenodd" clip-rule="evenodd" d="M21.7407 35.5664C22.9516 38.1445 24.1626 40.7227 25.3735 43.3008C25.3735 43.3789 25.3735 43.457 25.3735 43.5352C24.9126 44.1916 24.3658 44.7776 23.7329 45.293C23.1792 44.2242 22.6519 43.1305 22.1509 42.0117C22.4591 40.6209 22.0099 39.5663 20.8032 38.8477C20.7251 38.8086 20.647 38.7695 20.5688 38.7305C20.1728 37.7427 19.7431 36.7661 19.2798 35.8008C19.4165 35.7618 19.5532 35.7226 19.6899 35.6836C20.1478 35.7646 20.5971 35.8818 21.0376 36.0352C21.3606 35.9923 21.5949 35.8359 21.7407 35.5664Z" fill="#F9A83D"/>
<path fill-rule="evenodd" clip-rule="evenodd" d="M24.6704 35.6836C25.5831 36.1277 26.208 36.8309 26.5454 37.793C26.6524 38.4892 26.6914 39.1923 26.6626 39.9023C25.9407 38.5362 25.2766 37.1299 24.6704 35.6836Z" fill="#F9A940"/>
<path fill-rule="evenodd" clip-rule="evenodd" d="M10.2564 38.1445C11.4491 40.6086 12.5819 43.1086 13.6549 45.6445C11.195 43.7701 10.0622 41.2702 10.2564 38.1445Z" fill="#EB9936"/>
<path fill-rule="evenodd" clip-rule="evenodd" d="M19.1626 39.9023C19.6849 39.9975 20.1341 40.2319 20.5103 40.6055C20.6639 41.6434 20.2147 42.1512 19.1626 42.1289C19.1626 41.3868 19.1626 40.6445 19.1626 39.9023Z" fill="#FABA65"/>
<path fill-rule="evenodd" clip-rule="evenodd" d="M26.6626 40.0195C27.3057 41.4623 27.9503 42.9076 28.5962 44.3555C28.6748 44.4436 28.7724 44.4827 28.8892 44.4727C28.3964 45.4332 27.7714 46.2927 27.0142 47.0508C26.4672 45.8789 25.9204 44.707 25.3735 43.5352C25.3735 43.457 25.3735 43.3789 25.3735 43.3008C25.6442 42.9959 25.859 42.6443 26.0181 42.2461C26.2981 41.5056 26.5131 40.7633 26.6626 40.0195Z" fill="#FED888"/>
<path fill-rule="evenodd" clip-rule="evenodd" d="M48.9283 45.5273C48.2061 45.2767 47.4639 45.1791 46.7017 45.2343C46.6295 45.3984 46.5905 45.5741 46.5845 45.7616C46.6818 46.2675 46.7599 46.7753 46.8189 47.2851C42.9515 47.3046 39.0843 47.2851 35.2173 47.2265C34.765 47.0867 34.472 46.7937 34.3384 46.3476C34.2602 44.746 34.2602 43.1445 34.3384 41.5429C34.4304 41.3336 34.567 41.1578 34.7486 41.0155C39.1918 40.8217 43.645 40.7827 48.1079 40.8984C48.4399 41.0741 48.6939 41.3281 48.8697 41.6601C48.9283 42.9485 48.9478 44.2376 48.9283 45.5273Z" fill="#58B2FD"/>
<path fill-rule="evenodd" clip-rule="evenodd" d="M37.7953 43.1836C40.2566 43.164 42.7176 43.1836 45.1781 43.2422C45.9109 43.6616 45.9499 44.1304 45.2953 44.6485C42.7562 44.7266 40.2172 44.7266 37.6781 44.6485C37.187 44.1164 37.226 43.6281 37.7953 43.1836Z" fill="#497BFE"/>
<path fill-rule="evenodd" clip-rule="evenodd" d="M25.3735 43.5352C25.9204 44.707 26.4672 45.8789 27.0142 47.0508C26.497 47.6027 25.9111 48.0715 25.2563 48.457C24.6906 47.4818 24.1828 46.4661 23.7329 45.4102C23.7329 45.3711 23.7329 45.332 23.7329 45.293C24.3658 44.7776 24.9126 44.1916 25.3735 43.5352Z" fill="#FED06C"/>
<path fill-rule="evenodd" clip-rule="evenodd" d="M48.9282 45.5272C49.589 45.6711 50.253 45.8077 50.9204 45.9373C51.4219 46.4794 51.3438 46.9482 50.686 47.3436C51.2954 47.9137 51.8618 48.5192 52.3853 49.16C52.5157 50.7092 51.8321 51.2756 50.3345 50.8592C49.8071 50.3318 49.2798 49.8045 48.7524 49.2772C48.4538 49.7295 48.0437 49.9053 47.522 49.8045C47.2761 48.9568 47.0417 48.117 46.8188 47.285C46.7599 46.7752 46.6817 46.2674 46.5845 45.7615C46.5904 45.574 46.6295 45.3983 46.7017 45.2342C47.4638 45.179 48.2061 45.2766 48.9282 45.5272Z" fill="#433E9B"/>
<path fill-rule="evenodd" clip-rule="evenodd" d="M23.7329 45.4102C24.1828 46.4661 24.6906 47.4818 25.2563 48.457C22.2788 50.5234 19.0367 51.1093 15.5298 50.2148C15.6164 50.2302 15.6946 50.2106 15.7642 50.1562C15.0837 48.6976 14.4196 47.2328 13.772 45.7617C14.4784 46.1931 15.2205 46.5641 15.9985 46.875C18.8244 47.613 21.4025 47.1247 23.7329 45.4102Z" fill="#FED889"/>
</svg>
