<svg width="72" height="72" viewBox="0 0 72 72" fill="none" xmlns="http://www.w3.org/2000/svg">
<g id="all color icons for website-20">
<path id="Vector" d="M35.9039 53.364C45.8252 53.364 53.8679 45.3213 53.8679 35.4C53.8679 25.4788 45.8252 17.436 35.9039 17.436C25.9827 17.436 17.9399 25.4788 17.9399 35.4C17.9399 45.3213 25.9827 53.364 35.9039 53.364Z" fill="#E30E08"/>
<path id="Vector_2" d="M46.9561 21.228C49.5558 24.6943 50.818 28.9821 50.5108 33.304C50.2037 37.626 48.3478 41.6921 45.284 44.7559C42.2202 47.8197 38.1541 49.6756 33.8321 49.9827C29.5101 50.2899 25.2224 49.0277 21.7561 46.428C23.3034 48.4911 25.276 50.1977 27.5403 51.4321C29.8046 52.6665 32.3077 53.3999 34.8801 53.5827C37.4525 53.7656 40.0342 53.3935 42.4503 52.4917C44.8664 51.5899 47.0605 50.1795 48.884 48.3559C50.7076 46.5324 52.118 44.3383 53.0198 41.9222C53.9216 39.5061 54.2936 36.9244 54.1108 34.352C53.928 31.7796 53.1946 29.2765 51.9602 27.0122C50.7258 24.748 49.0192 22.7754 46.9561 21.228Z" fill="#E30E08"/>
<path id="Vector_3" d="M35.904 48.9481C43.3863 48.9481 49.452 42.8824 49.452 35.4001C49.452 27.9177 43.3863 21.8521 35.904 21.8521C28.4216 21.8521 22.356 27.9177 22.356 35.4001C22.356 42.8824 28.4216 48.9481 35.904 48.9481Z" fill="#FFC344"/>
<path id="Vector_4" d="M35.9041 66.7799C29.6966 66.7795 23.6286 64.9381 18.4679 61.4884C13.3071 58.0388 9.28535 53.1361 6.91144 47.4004C4.53752 41.6647 3.91808 35.3539 5.13147 29.2661C6.34486 23.1783 9.33656 17.5871 13.7281 13.1999C19.6159 7.31213 27.6015 4.00439 35.9281 4.00439C44.2547 4.00439 52.2403 7.31213 58.1281 13.1999C64.0159 19.0877 67.3237 27.0733 67.3237 35.3999C67.3237 43.7265 64.0159 51.7121 58.1281 57.5999C55.2151 60.524 51.7508 62.8411 47.936 64.4169C44.1212 65.9927 40.0316 66.7959 35.9041 66.7799ZM35.9041 8.72393C30.6286 8.72631 25.4723 10.2928 21.087 13.2255C16.7017 16.1581 13.2845 20.3252 11.2673 25.1998C9.25006 30.0744 8.7235 35.4377 9.75416 40.6115C10.7848 45.7854 13.3264 50.5374 17.0576 54.267C20.7888 57.9965 25.542 60.5359 30.7163 61.5642C35.8906 62.5926 41.2537 62.0636 46.1274 60.0442C51.0011 58.0248 55.1666 54.6057 58.0972 50.2191C61.0279 45.8325 62.5921 40.6754 62.5921 35.3999C62.5826 28.3259 59.7674 21.5444 54.7641 16.5434C49.7609 11.5424 42.9782 8.73028 35.9041 8.72393Z" fill="#006EE5"/>
<path id="Vector_5" d="M58.0919 13.1999C56.9713 12.068 55.768 11.0211 54.492 10.0679C57.6112 14.299 59.6017 19.2547 60.276 24.4679C62.5045 29.4067 63.1754 34.9073 62.1995 40.2371C61.2235 45.5668 58.647 50.4728 54.813 54.3015C50.979 58.1303 46.0696 60.7001 40.7385 61.6688C35.4075 62.6375 29.9078 61.9591 24.9719 59.7239C19.7722 59.0655 14.8252 57.0958 10.5959 53.9999C11.5427 55.2811 12.59 56.4849 13.7279 57.5999C19.6158 63.4877 27.6013 66.7954 35.9279 66.7954C44.2546 66.7954 52.2401 63.4877 58.1279 57.5999C64.0158 51.7121 67.3235 43.7265 67.3235 35.3999C67.3235 27.0733 64.0158 19.0877 58.1279 13.1999H58.0919Z" fill="#006EE5"/>
<path id="Vector_6" d="M37.2001 11.3521H34.6681C34.3816 11.3427 34.1099 11.2223 33.9106 11.0163C33.7113 10.8102 33.5999 10.5348 33.6001 10.2481V2.49609C33.6001 2.35111 33.6287 2.20755 33.6841 2.07361C33.7396 1.93966 33.8209 1.81796 33.9235 1.71544C34.026 1.61293 34.1477 1.53161 34.2816 1.47613C34.4156 1.42065 34.5591 1.39209 34.7041 1.39209H37.2001C37.3451 1.39209 37.4886 1.42065 37.6226 1.47613C37.7565 1.53161 37.8782 1.61293 37.9807 1.71544C38.0833 1.81796 38.1646 1.93966 38.2201 2.07361C38.2755 2.20755 38.3041 2.35111 38.3041 2.49609V10.2481C38.3041 10.3931 38.2755 10.5366 38.2201 10.6706C38.1646 10.8045 38.0833 10.9262 37.9807 11.0287C37.8782 11.1313 37.7565 11.2126 37.6226 11.2681C37.4886 11.3235 37.3451 11.3521 37.2001 11.3521Z" fill="#0062BA"/>
<path id="Vector_7" d="M60 36.6479V34.1518C60 34.0069 60.0286 33.8633 60.084 33.7294C60.1395 33.5954 60.2208 33.4737 60.3234 33.3712C60.4259 33.2687 60.5476 33.1874 60.6815 33.1319C60.8155 33.0764 60.959 33.0479 61.104 33.0479H68.844C68.989 33.0479 69.1325 33.0764 69.2665 33.1319C69.4004 33.1874 69.5221 33.2687 69.6246 33.3712C69.7272 33.4737 69.8085 33.5954 69.864 33.7294C69.9194 33.8633 69.948 34.0069 69.948 34.1518V36.6479C69.948 36.9407 69.8317 37.2215 69.6246 37.4285C69.4176 37.6355 69.1368 37.7518 68.844 37.7518H61.068C60.7815 37.7425 60.5098 37.6221 60.3105 37.416C60.1112 37.21 59.9998 36.9345 60 36.6479Z" fill="#0062BA"/>
<path id="Vector_8" d="M34.668 59.4482H37.2C37.3449 59.4482 37.4885 59.4768 37.6224 59.5323C37.7564 59.5878 37.8781 59.6691 37.9806 59.7716C38.0831 59.8741 38.1644 59.9958 38.2199 60.1298C38.2754 60.2637 38.304 60.4073 38.304 60.5522V68.3042C38.304 68.4492 38.2754 68.5928 38.2199 68.7267C38.1644 68.8607 38.0831 68.9824 37.9806 69.0849C37.8781 69.1874 37.7564 69.2687 37.6224 69.3242C37.4885 69.3797 37.3449 69.4082 37.2 69.4082H34.668C34.3752 69.4082 34.0944 69.2919 33.8873 69.0849C33.6803 68.8778 33.564 68.597 33.564 68.3042V60.5522C33.564 60.4073 33.5925 60.2637 33.648 60.1298C33.7035 59.9958 33.7848 59.8741 33.8873 59.7716C33.9898 59.6691 34.1115 59.5878 34.2455 59.5323C34.3794 59.4768 34.523 59.4482 34.668 59.4482Z" fill="#0062BA"/>
<path id="Vector_9" d="M11.856 34.1518V36.6479C11.856 36.9407 11.7396 37.2215 11.5326 37.4285C11.3256 37.6355 11.0448 37.7518 10.752 37.7518H3.01196C2.71916 37.7518 2.43835 37.6355 2.23131 37.4285C2.02427 37.2215 1.90796 36.9407 1.90796 36.6479V34.1518C1.90796 34.0069 1.93651 33.8633 1.992 33.7294C2.04748 33.5954 2.1288 33.4737 2.23131 33.3712C2.33383 33.2687 2.45553 33.1874 2.58948 33.1319C2.72342 33.0764 2.86698 33.0479 3.01196 33.0479H10.8C11.0844 33.0602 11.353 33.182 11.5498 33.3877C11.7465 33.5934 11.8562 33.8672 11.856 34.1518Z" fill="#0062BA"/>
<path id="Vector_10" d="M37.7761 35.0402L36.8881 34.6922V28.6922C37.2579 28.8093 37.5993 29.002 37.8906 29.2582C38.1819 29.5144 38.4167 29.8284 38.5801 30.1802C38.6343 30.2992 38.7116 30.4062 38.8077 30.495C38.9037 30.5838 39.0164 30.6525 39.1393 30.6972C39.2622 30.7419 39.3928 30.7616 39.5234 30.7553C39.6541 30.7489 39.7821 30.7166 39.9001 30.6602C40.1382 30.5482 40.3224 30.3465 40.4124 30.0992C40.5023 29.8519 40.4907 29.579 40.3801 29.3402C40.0565 28.6436 39.5705 28.0348 38.9628 27.565C38.3552 27.0952 37.6437 26.778 36.8881 26.6402V25.8002C36.8881 25.536 36.7831 25.2827 36.5964 25.0959C36.4096 24.9091 36.1562 24.8042 35.8921 24.8042C35.6279 24.8042 35.3746 24.9091 35.1878 25.0959C35.001 25.2827 34.8961 25.536 34.8961 25.8002V26.6522C33.9398 26.8312 33.0606 27.2966 32.3748 27.9867C31.6891 28.6767 31.2292 29.5589 31.0561 30.5162C30.8395 31.6051 31.0222 32.7356 31.5709 33.7008C32.1196 34.666 32.9976 35.4013 34.0441 35.7722L34.8961 36.1082V42.1082C34.4845 41.9667 34.111 41.7327 33.8041 41.4242C33.5316 41.15 33.3169 40.8239 33.1726 40.4653C33.0283 40.1066 32.9574 39.7227 32.9641 39.3362C32.9657 39.2054 32.9415 39.0756 32.8929 38.9541C32.8443 38.8327 32.7722 38.722 32.6809 38.6284C32.5895 38.5348 32.4806 38.4601 32.3603 38.4086C32.2401 38.3571 32.1109 38.3298 31.9801 38.3282C31.8488 38.325 31.7183 38.3481 31.5961 38.3961C31.474 38.4441 31.3626 38.5161 31.2687 38.6078C31.1748 38.6995 31.1002 38.809 31.0492 38.93C30.9983 39.051 30.972 39.1809 30.9721 39.3122C30.9586 39.9645 31.0783 40.6128 31.3239 41.2173C31.5694 41.8218 31.9356 42.37 32.4001 42.8282C33.081 43.5194 33.9555 43.988 34.9081 44.1722V45.0122C34.9081 45.2764 35.013 45.5297 35.1998 45.7165C35.3866 45.9033 35.6399 46.0082 35.9041 46.0082C36.1682 46.0082 36.4216 45.9033 36.6084 45.7165C36.7951 45.5297 36.9001 45.2764 36.9001 45.0122V44.1722C37.8689 44.0035 38.7625 43.5412 39.4601 42.848C40.1576 42.1547 40.6254 41.264 40.8001 40.2962C41.0167 39.2073 40.8339 38.0768 40.2852 37.1116C39.7365 36.1464 38.8586 35.4111 37.8121 35.0402H37.7761ZM34.8001 33.9122C34.1819 33.715 33.659 33.2952 33.333 32.7341C33.0071 32.1731 32.9012 31.5109 33.0361 30.8762C33.128 30.3777 33.351 29.9127 33.6821 29.5289C34.0132 29.1451 34.4405 28.8563 34.9201 28.6922V33.9602H34.8001V33.9122ZM38.8321 39.9122C38.7365 40.416 38.5082 40.8852 38.1707 41.2713C37.8331 41.6573 37.3986 41.9462 36.9121 42.1082V36.8282H37.0681C37.6944 37.0307 38.2214 37.4618 38.5439 38.0357C38.8665 38.6095 38.9608 39.2839 38.8081 39.9242L38.8321 39.9122Z" fill="#FFE177"/>
</g>
</svg>
