<svg width="76" height="76" viewBox="0 0 76 76" fill="none" xmlns="http://www.w3.org/2000/svg">
<rect width="76" height="76" rx="38" fill="url(#paint0_linear_14314_28988)"/>
<path d="M38.931 50.4825C46.0964 50.4825 51.905 44.6738 51.905 37.5085C51.905 30.3431 46.0964 24.5345 38.931 24.5345C31.7657 24.5345 25.957 30.3431 25.957 37.5085C25.957 44.6738 31.7657 50.4825 38.931 50.4825Z" fill="#E30E08"/>
<path d="M46.9109 27.2733C48.7885 29.7767 49.7001 32.8734 49.4782 35.9948C49.2564 39.1162 47.9161 42.0529 45.7033 44.2656C43.4906 46.4784 40.5539 47.8187 37.4325 48.0405C34.3111 48.2624 31.2144 47.3508 28.7109 45.4733C29.8285 46.9633 31.2531 48.1958 32.8884 49.0873C34.5237 49.9788 36.3315 50.5085 38.1894 50.6405C40.0472 50.7726 41.9118 50.5039 43.6567 49.8526C45.4017 49.2013 46.9863 48.1827 48.3033 46.8656C49.6203 45.5486 50.639 43.964 51.2903 42.219C51.9415 40.4741 52.2103 38.6095 52.0782 36.7517C51.9462 34.8938 51.4165 33.0861 50.525 31.4507C49.6335 29.8154 48.401 28.3908 46.9109 27.2733Z" fill="#E30E08"/>
<path d="M38.9292 47.2933C44.3331 47.2933 48.7139 42.9125 48.7139 37.5086C48.7139 32.1047 44.3331 27.7239 38.9292 27.7239C33.5253 27.7239 29.1445 32.1047 29.1445 37.5086C29.1445 42.9125 33.5253 47.2933 38.9292 47.2933Z" fill="#FFC344"/>
<path d="M38.9314 60.1717C34.4482 60.1714 30.0658 58.8414 26.3386 56.3501C22.6113 53.8587 19.7068 50.3178 17.9923 46.1754C16.2778 42.0329 15.8304 37.4751 16.7067 33.0783C17.5831 28.6816 19.7437 24.6436 22.9154 21.475C27.1677 17.2227 32.9351 14.8338 38.9487 14.8338C44.9624 14.8338 50.7298 17.2227 54.9821 21.475C59.2344 25.7273 61.6233 31.4947 61.6233 37.5084C61.6233 43.522 59.2344 49.2894 54.9821 53.5417C52.8782 55.6535 50.3763 57.327 47.6211 58.465C44.8659 59.6031 41.9124 60.1832 38.9314 60.1717ZM38.9314 18.2424C35.1213 18.2441 31.3973 19.3755 28.2302 21.4935C25.063 23.6115 22.595 26.621 21.1381 30.1416C19.6813 33.6621 19.301 37.5356 20.0453 41.2723C20.7897 45.0089 22.6253 48.441 25.32 51.1345C28.0148 53.8281 31.4477 55.6621 35.1847 56.4048C38.9217 57.1475 42.795 56.7654 46.3149 55.307C49.8348 53.8485 52.8432 51.3792 54.9598 48.2111C57.0764 45.043 58.2061 41.3184 58.2061 37.5084C58.1992 32.3993 56.166 27.5016 52.5525 23.8898C48.9391 20.2779 44.0405 18.2469 38.9314 18.2424Z" fill="#FEFEFE"/>
<path d="M54.955 21.4752C54.1457 20.6577 53.2766 19.9016 52.355 19.2132C54.6078 22.269 56.0454 25.8481 56.5323 29.6132C58.1418 33.1802 58.6264 37.1528 57.9215 41.0021C57.2167 44.8513 55.3559 48.3945 52.5869 51.1597C49.8179 53.9249 46.2722 55.7809 42.422 56.4806C38.5718 57.1802 34.5998 56.6902 31.035 55.0759C27.2796 54.6004 23.7068 53.1778 20.6523 50.9419C21.3361 51.8672 22.0925 52.7366 22.9143 53.5419C27.1666 57.7942 32.934 60.1831 38.9477 60.1831C44.9613 60.1831 50.7287 57.7942 54.981 53.5419C59.2333 49.2896 61.6222 43.5222 61.6222 37.5085C61.6222 31.4949 59.2333 25.7275 54.981 21.4752H54.955Z" fill="#FEFEFE"/>
<path d="M39.8656 20.1404H38.037C37.83 20.1337 37.6338 20.0467 37.4899 19.8979C37.3459 19.7491 37.2655 19.5501 37.2656 19.3431V13.7444C37.2656 13.6397 37.2862 13.536 37.3263 13.4393C37.3664 13.3426 37.4251 13.2547 37.4992 13.1806C37.5732 13.1066 37.6611 13.0478 37.7578 13.0078C37.8546 12.9677 37.9583 12.9471 38.063 12.9471H39.8656C39.9703 12.9471 40.074 12.9677 40.1708 13.0078C40.2675 13.0478 40.3554 13.1066 40.4294 13.1806C40.5035 13.2547 40.5622 13.3426 40.6023 13.4393C40.6423 13.536 40.663 13.6397 40.663 13.7444V19.3431C40.663 19.4478 40.6423 19.5515 40.6023 19.6482C40.5622 19.7449 40.5035 19.8328 40.4294 19.9069C40.3554 19.9809 40.2675 20.0397 40.1708 20.0797C40.074 20.1198 39.9703 20.1404 39.8656 20.1404Z" fill="#0062BA"/>
<path d="M56.332 38.4099V36.6072C56.332 36.5025 56.3527 36.3988 56.3927 36.3021C56.4328 36.2053 56.4915 36.1174 56.5656 36.0434C56.6396 35.9694 56.7275 35.9106 56.8242 35.8706C56.921 35.8305 57.0247 35.8099 57.1294 35.8099H62.7194C62.8241 35.8099 62.9278 35.8305 63.0245 35.8706C63.1212 35.9106 63.2091 35.9694 63.2832 36.0434C63.3572 36.1174 63.4159 36.2053 63.456 36.3021C63.4961 36.3988 63.5167 36.5025 63.5167 36.6072V38.4099C63.5167 38.6213 63.4327 38.8241 63.2832 38.9737C63.1336 39.1232 62.9308 39.2072 62.7194 39.2072H57.1034C56.8964 39.2005 56.7002 39.1135 56.5563 38.9647C56.4123 38.8159 56.3319 38.6169 56.332 38.4099Z" fill="#0062BA"/>
<path d="M38.0395 54.8763H39.8682C39.9729 54.8763 40.0766 54.8969 40.1733 54.937C40.2701 54.977 40.3579 55.0358 40.432 55.1098C40.506 55.1839 40.5648 55.2718 40.6048 55.3685C40.6449 55.4652 40.6655 55.5689 40.6655 55.6736V61.2723C40.6655 61.377 40.6449 61.4807 40.6048 61.5774C40.5648 61.6741 40.506 61.762 40.432 61.8361C40.3579 61.9101 40.2701 61.9689 40.1733 62.0089C40.0766 62.049 39.9729 62.0696 39.8682 62.0696H38.0395C37.8281 62.0696 37.6253 61.9856 37.4757 61.8361C37.3262 61.6866 37.2422 61.4837 37.2422 61.2723V55.6736C37.2422 55.5689 37.2628 55.4652 37.3029 55.3685C37.343 55.2718 37.4017 55.1839 37.4757 55.1098C37.5498 55.0358 37.6377 54.977 37.7344 54.937C37.8311 54.8969 37.9348 54.8763 38.0395 54.8763Z" fill="#0062BA"/>
<path d="M21.5636 36.6072V38.4099C21.5636 38.6213 21.4796 38.8241 21.33 38.9737C21.1805 39.1232 20.9777 39.2072 20.7662 39.2072H15.1762C14.9648 39.2072 14.762 39.1232 14.6124 38.9737C14.4629 38.8241 14.3789 38.6213 14.3789 38.4099V36.6072C14.3789 36.5025 14.3995 36.3988 14.4396 36.3021C14.4797 36.2053 14.5384 36.1174 14.6124 36.0434C14.6865 35.9694 14.7744 35.9106 14.8711 35.8706C14.9679 35.8305 15.0715 35.8099 15.1762 35.8099H20.8009C21.0063 35.8188 21.2003 35.9067 21.3424 36.0553C21.4845 36.2039 21.5638 36.4016 21.5636 36.6072Z" fill="#0062BA"/>
<path d="M40.2807 37.2484L39.6394 36.9971V32.6638C39.9065 32.7483 40.1531 32.8875 40.3635 33.0726C40.5738 33.2576 40.7434 33.4843 40.8614 33.7384C40.9005 33.8244 40.9564 33.9017 41.0258 33.9658C41.0951 34.0299 41.1766 34.0796 41.2653 34.1118C41.3541 34.1441 41.4484 34.1584 41.5427 34.1538C41.6371 34.1492 41.7295 34.1258 41.8147 34.0851C41.9868 34.0042 42.1198 33.8586 42.1847 33.68C42.2497 33.5013 42.2413 33.3042 42.1614 33.1318C41.9277 32.6287 41.5767 32.189 41.1379 31.8497C40.699 31.5104 40.1851 31.2813 39.6394 31.1818V30.5751C39.6394 30.3843 39.5636 30.2014 39.4287 30.0665C39.2938 29.9316 39.1109 29.8558 38.9201 29.8558C38.7293 29.8558 38.5463 29.9316 38.4114 30.0665C38.2765 30.2014 38.2007 30.3843 38.2007 30.5751V31.1904C37.5101 31.3198 36.8751 31.6559 36.3798 32.1542C35.8846 32.6526 35.5524 33.2897 35.4274 33.9811C35.271 34.7676 35.403 35.584 35.7993 36.2811C36.1955 36.9782 36.8296 37.5093 37.5854 37.7771L38.2007 38.0198V42.3531C37.9035 42.2509 37.6337 42.0819 37.4121 41.8591C37.2153 41.6611 37.0602 41.4256 36.956 41.1665C36.8518 40.9075 36.8006 40.6303 36.8054 40.3511C36.8066 40.2566 36.7891 40.1629 36.754 40.0752C36.7189 39.9875 36.6669 39.9075 36.6009 39.8399C36.5349 39.7723 36.4562 39.7184 36.3694 39.6812C36.2825 39.644 36.1892 39.6242 36.0947 39.6231C36 39.6208 35.9057 39.6375 35.8175 39.6721C35.7292 39.7068 35.6488 39.7588 35.581 39.825C35.5131 39.8913 35.4592 39.9704 35.4224 40.0577C35.3857 40.1451 35.3667 40.239 35.3667 40.3338C35.357 40.8049 35.4435 41.2731 35.6208 41.7097C35.7981 42.1463 36.0626 42.5422 36.3981 42.8731C36.8899 43.3723 37.5214 43.7107 38.2094 43.8438V44.4504C38.2094 44.6412 38.2852 44.8242 38.4201 44.9591C38.555 45.094 38.738 45.1698 38.9287 45.1698C39.1195 45.1698 39.3025 45.094 39.4374 44.9591C39.5723 44.8242 39.6481 44.6412 39.6481 44.4504V43.8438C40.3478 43.7219 40.9932 43.3881 41.497 42.8874C42.0007 42.3867 42.3386 41.7434 42.4647 41.0444C42.6212 40.258 42.4892 39.4415 42.0929 38.7444C41.6966 38.0473 41.0625 37.5163 40.3067 37.2484H40.2807ZM38.1314 36.4338C37.6849 36.2914 37.3073 35.9881 37.0719 35.5829C36.8365 35.1777 36.76 34.6995 36.8574 34.2411C36.9238 33.8811 37.0849 33.5453 37.324 33.2681C37.5631 32.9909 37.8717 32.7823 38.2181 32.6638V36.4684H38.1314V36.4338ZM41.0434 40.7671C40.9744 41.131 40.8095 41.4698 40.5657 41.7487C40.3219 42.0275 40.0081 42.2361 39.6567 42.3531V38.5398H39.7694C40.2218 38.686 40.6024 38.9974 40.8353 39.4119C41.0682 39.8263 41.1364 40.3133 41.0261 40.7758L41.0434 40.7671Z" fill="white"/>
<defs>
<linearGradient id="paint0_linear_14314_28988" x1="38" y1="0" x2="38" y2="76" gradientUnits="userSpaceOnUse">
<stop stop-color="#002548"/>
<stop offset="1" stop-color="#0054A6"/>
</linearGradient>
</defs>
</svg>
