<svg width="129" height="50" viewBox="0 0 129 50" fill="none" xmlns="http://www.w3.org/2000/svg">
<path d="M16.7734 44.5855C14.6288 42.9078 12.363 41.2993 10.7891 39.0163C7.52023 34.9864 4.97777 30.4204 3.2655 25.5084C2.22776 22.3433 1.86455 18.9533 0.515485 15.9093C-0.885465 13.6955 0.757625 11.2741 3.17902 10.5822C4.25135 10.3747 6.15388 9.35424 3.87085 10.0807C1.81266 11.5854 1.62241 8.7143 3.73248 8.52404C5.16802 8.33379 5.70419 7.15769 5.20261 6.10265C3.6633 5.0995 8.93848 3.99258 6.27494 2.48785C3.50764 -0.504297 10.1492 -1.07505 8.50609 2.3149C8.10829 4.92655 13.1413 1.83062 11.9825 4.84007C13.1759 6.2929 16.4275 5.16868 16.341 7.19228C18.0706 7.31335 18.6586 8.76618 20.2844 8.86996C21.9621 9.63097 25.0062 10.2363 25.5769 12.1215C23.9165 13.436 20.0423 9.38883 19.8693 13.0555C20.3709 18.4518 20.2499 24.021 22.2216 29.1578C23.1555 32.271 25.4213 34.727 27.4622 37.1484C29.4166 39.5179 32.0628 41.1956 34.7782 42.5965C37.165 43.6862 39.6902 44.4818 42.2845 44.9141C43.3396 44.1185 45.1902 41.1264 46.816 42.389C46.9025 43.8072 43.5644 45.3465 46.6604 45.1909C48.4764 44.6374 49.739 46.5918 51.2264 44.8277C52.6101 46.4535 56.9513 43.7899 55.9654 47.1107C54.651 47.9582 52.7138 47.4566 51.3821 48.6154C49.2028 47.5258 47.456 49.6013 45.0346 49.3245C42.3364 49.7915 39.621 50.0164 36.8883 49.9991C32.426 49.6532 27.86 49.4975 23.6052 47.9409C21.2184 47.3182 18.8835 45.9519 16.7734 44.5855ZM20.5612 46.2286C22.8961 47.2318 25.1964 48.3041 27.7562 48.6327C31.8207 49.2035 36.0235 50.0683 40.1053 49.2727C38.2547 48.4425 36.3521 49.6013 34.5015 48.6673C32.2876 49.1516 29.9181 48.5462 27.687 48.2522C25.1272 47.1107 22.3772 46.3324 19.9904 44.8623C16.9983 43.7726 21.5297 46.2632 22.3426 46.4708C24.2106 47.5258 20.2844 45.9346 19.731 45.4849C18.1744 44.6028 17.9668 44.7931 19.5753 45.6752C19.9039 45.8654 20.2153 46.0557 20.5612 46.2286ZM16.0989 43.0808C18.3646 43.9283 16.0816 41.4896 15.0439 41.628C14.5769 40.8324 13.2797 40.3308 14.1964 39.8984C12.5533 40.4692 12.4668 37.7191 11.7058 38.1169C9.95892 37.5635 11.0313 35.6091 8.95577 34.4157C8.76552 33.1531 6.89759 32.0635 6.29224 30.1609C6.03281 29.1924 4.18217 26.3905 5.30639 28.9848C6.27494 31.4927 7.98722 33.6374 9.40546 35.782C10.5124 37.8229 11.8096 39.9503 13.8159 41.2302C14.4904 41.8874 15.1476 42.8733 16.0989 43.0808ZM9.57842 35.9031C9.6476 35.5572 9.99352 36.6468 9.57842 35.9031V35.9031ZM18.8143 44.084C18.1052 43.8072 19.3159 43.8591 18.8143 44.084V44.084ZM20.0423 44.5336C19.4888 44.8796 19.9212 43.911 20.0423 44.5336V44.5336ZM21.5816 45.1736C20.4574 44.7239 22.3253 44.4818 21.5816 45.1736V45.1736ZM24.2279 46.6437C22.8096 46.4016 24.6775 45.9865 24.2279 46.6437V46.6437ZM19.1602 43.1154C17.6901 43.0981 20.3017 42.3717 19.1602 43.1154V43.1154ZM20.319 43.6862C19.9039 43.8591 20.2844 43.2884 20.319 43.6862V43.6862ZM26.0958 47.2837C27.0298 47.8717 31.5093 48.5635 28.7074 47.5258C28.2232 47.6296 23.4841 46.194 26.0958 47.2837ZM16.9291 40.1578C15.4762 39.7254 16.8426 39.76 16.9291 40.1578V40.1578ZM19.6099 41.7144C18.1571 41.3339 20.319 41.2302 19.6099 41.7144V41.7144ZM21.8756 43.0981C20.2498 42.7176 22.8788 42.7176 21.8756 43.0981V43.0981ZM15.8222 38.9471C16.9118 39.7773 20.2153 39.0509 17.4825 38.4456C16.2373 37.7883 13.4526 37.3386 15.3552 38.8434L15.8222 38.9471ZM23.3977 43.5651C21.4951 43.1327 23.8646 42.8041 23.3977 43.5651V43.5651ZM21.0973 41.749C23.7609 42.5101 18.8489 40.0714 20.4401 41.4723L20.786 41.628L21.0973 41.749ZM25.7153 44.4126C23.4323 44.0667 28.2405 44.4299 25.7153 44.4126V44.4126ZM14.8536 37.4943C14.231 37.5462 14.7671 37.0273 14.8536 37.4943V37.4943ZM29.9873 46.8167C29.1571 47.4393 30.0565 45.9692 29.9873 46.8167V46.8167ZM19.1602 40.1232C18.3819 40.1232 19.0046 39.6909 19.1602 40.1232V40.1232ZM15.0957 37.2003C13.1067 36.5603 16.5486 37.1138 15.0957 37.2003V37.2003ZM10.2875 34.0871C8.71363 32.8418 10.0973 33.3952 10.2875 34.0871V34.0871ZM22.9307 42.1123C22.654 41.8182 22.8096 42.1814 22.9307 42.1123V42.1123ZM30.8002 46.955C30.3678 47.128 30.7656 46.4881 30.8002 46.955V46.955ZM22.2389 41.4031C20.9936 41.2129 22.3772 40.7978 22.2389 41.4031V41.4031ZM16.3756 37.6846C14.6461 36.9581 17.448 37.5635 16.3756 37.6846V37.6846ZM26.286 43.8418C24.643 43.5132 27.9637 43.1846 26.286 43.8418V43.8418ZM21.1319 40.3481C23.069 40.5902 18.8316 39.0336 20.6995 40.2097L21.1319 40.3481ZM27.86 44.4818C29.6587 43.4094 29.0707 47.0069 30.9213 44.7931C32.7546 43.4613 29.3474 46.4362 31.5958 45.0352C33.2216 43.9456 35.643 45.5541 37.1477 46.073C38.2374 46.0211 39.3097 47.0242 40.4339 46.4189C42.5959 45.8308 36.2138 45.5541 37.8914 44.5163C35.9197 45.0871 34.4496 43.8245 33.481 42.5619C31.2672 42.0431 28.7074 40.9188 27.6005 38.9644C27.1508 38.2207 28.2578 39.0682 27.22 37.8575C25.8882 36.6641 25.2137 35.315 24.3143 33.8795C23.242 33.3088 23.1209 31.6311 23.0172 33.8276C23.0172 32.444 21.72 31.51 21.4087 31.8905C21.4087 30.5587 22.7923 31.216 21.8238 30.2474C21.6162 28.8638 20.9244 27.4282 20.7168 25.8543C20.3882 25.0933 20.6649 23.4848 19.6099 25.1971C19.2294 26.9958 19.4715 22.9832 20.0769 24.315C20.8725 22.9659 19.8002 23.1216 19.7483 23.3118C20.2671 22.1703 20.0769 20.5618 19.6099 21.1672C19.8866 19.9565 20.0423 16.7222 19.1948 17.293C19.7137 16.0304 20.1634 11.5162 17.9495 13.2285C17.0502 13.2458 15.4935 13.5571 14.7671 13.9203C17.0674 15.1829 14.5423 14.37 13.591 14.1797C13.4699 15.3558 12.536 14.8543 11.3772 14.8543C13.2278 15.0791 10.4778 16.7568 9.40546 16.0996C8.02181 16.7568 10.5989 18.3999 9.44005 18.9187C9.57842 19.6798 7.32998 18.642 7.50294 20.4062C6.15388 19.8354 7.31269 22.5163 7.98722 21.6169C10.2702 22.2395 9.59571 23.6405 9.6476 24.9722C9.2498 25.7505 7.79696 23.1389 9.30169 23.26C8.10829 21.3228 7.98722 22.5681 7.00136 23.4502C6.77652 23.5194 9.52653 24.7301 7.79696 25.3354C9.31898 25.5776 9.35358 26.8921 9.6649 27.7395C10.5816 28.6908 10.3913 26.6845 11.4809 27.826C10.7891 26.8056 7.81426 24.9549 10.2011 25.543C10.1838 24.5225 9.76867 23.6924 10.4951 23.7096C11.2215 22.3952 9.73408 26.9439 11.3772 25.2836C11.8269 25.0933 11.9479 23.9691 12.7608 25.3873C13.9369 26.5461 13.1932 27.3936 11.5155 26.3386C11.8096 27.359 13.7467 27.705 13.3835 29.2962C13.764 30.6798 14.3001 30.1782 14.7671 30.0918C15.1303 31.4408 15.3379 30.455 15.3552 29.7977C17.0501 30.1609 16.6524 31.1641 17.1712 31.8559C18.33 32.3748 15.5108 28.293 17.4998 30.6279C19.5926 32.5304 18.2954 33.3088 16.4102 33.0147C17.6036 32.9109 17.9841 34.6232 19.4888 34.5713C20.8552 35.2113 21.7719 37.7019 19.4197 36.6641C18.6068 35.9377 15.7357 35.021 18.0706 36.422C20.2499 37.4251 21.9621 38.0305 24.0549 39.2931C25.5596 40.3654 26.1996 41.5934 26.7703 41.8355C25.5077 42.4409 22.9826 41.3512 24.8505 41.0226C23.6744 40.8151 22.3599 40.2097 23.4841 41.6799C24.4354 42.4755 26.8741 42.389 27.3065 42.4755C26.9433 43.2884 26.3033 43.3575 27.3238 43.4267C26.2342 44.0494 27.7389 44.1358 27.86 44.4818ZM25.5423 37.9094C24.8505 37.183 24.6775 35.8339 25.4213 37.01C25.8018 37.1657 26.632 39.2239 25.5423 37.9094ZM33.1005 42.7176C33.1178 43.0462 33.5329 42.7003 33.1005 42.7176V42.7176ZM24.4354 36.1279C24.4008 35.0383 24.6775 36.9754 24.4354 36.1279V36.1279ZM23.6917 35.1248C22.8096 33.4471 24.7813 35.5918 23.6917 35.1248V35.1248ZM14.5769 28.8292C14.819 29.7112 15.0784 28.6908 14.5769 28.8292V28.8292ZM21.8411 32.7553C22.1351 31.5792 22.187 33.7584 21.8411 32.7553V32.7553ZM16.6869 29.1924C16.3237 28.5524 17.448 29.815 16.6869 29.1924V29.1924ZM21.0973 30.5933C20.2671 28.7427 21.6854 29.5902 21.2876 30.9046L21.0973 30.5933ZM13.5045 25.543C13.1413 24.9376 12.536 23.1562 12.7262 22.62C12.8992 23.5021 14.6115 26.4251 13.5564 23.8307C12.3976 21.6515 14.9401 24.5398 15.1995 25.076C15.3206 25.6122 14.4904 24.9203 15.0611 26.2002C14.0234 24.7647 14.4385 26.9958 13.5045 25.543ZM11.1523 23.9172C11.2561 22.5162 11.6885 24.9031 11.1523 23.9172V23.9172ZM12.2074 24.2804C12.7089 23.2254 13.0721 25.7851 12.2074 24.2804V24.2804ZM9.68219 22.326C8.81741 21.4612 8.17747 20.6656 9.71679 21.7898C10.3048 21.8071 8.38502 19.9738 9.85515 21.2018C11.3945 21.4958 10.6162 23.7442 9.68219 22.326ZM11.014 22.2914C11.2734 22.793 11.5155 21.7898 11.014 22.2914V22.2914ZM11.8269 22.5681C11.0658 21.1153 12.7608 23.1562 11.8269 22.5681V22.5681ZM10.2011 21.0115C7.6586 18.7458 13.3835 22.1876 10.6162 21.4266L10.2011 21.0115ZM17.4652 25.2317C16.3583 24.5744 17.1712 20.5964 17.5517 23.3118C18.6241 22.9659 17.4998 24.7128 18.2954 24.6955C18.1744 25.8024 17.8112 26.2002 17.4652 25.2317ZM20.1634 26.8229C20.2671 25.6122 20.3882 27.6358 20.1634 26.8229V26.8229ZM19.6964 26.3559C19.7137 26.9612 19.8175 25.837 19.6964 26.3559V26.3559ZM10.7026 20.2505C9.07685 18.0021 15.4417 22.5335 11.7404 20.8213C11.3599 20.7348 10.8929 20.7002 10.7026 20.2505ZM15.874 23.0005C15.7357 21.098 16.22 23.3118 15.874 23.0005V23.0005ZM19.8175 25.5257C19.8348 26.2521 20.1115 24.4534 19.8175 25.5257V25.5257ZM10.9448 19.403C11.9133 19.1955 14.9574 21.098 12.1555 19.9392C11.8614 19.5933 11.1869 19.7662 10.9448 19.403ZM19.264 23.554C19.3678 21.6169 19.8521 22.3952 19.264 23.8307V23.554ZM11.6539 18.7285C12.0517 18.1404 10.5989 16.1168 11.8614 18.0021C12.3976 18.4345 13.4354 18.7285 12.5187 18.9015C13.9715 20.164 12.1901 19.2474 11.6539 18.7285ZM18.8489 22.9486C19.091 24.2458 19.1256 20.7348 18.8489 22.9486V22.9486ZM10.841 16.6876C10.9967 17.0854 11.1523 16.5665 10.841 16.6876V16.6876ZM12.7262 17.8118C13.1932 16.7914 13.6083 18.936 12.7262 17.8118V17.8118ZM18.0187 20.7521C18.0014 20.3543 18.1052 21.3228 18.0187 20.7521V20.7521ZM17.7074 20.0603C16.9637 18.2615 18.3819 21.0288 17.7074 20.0603V20.0603ZM17.2577 18.8842C17.1366 18.1231 17.6728 19.8181 17.2577 18.8842V18.8842ZM17.9841 17.6908C17.4825 16.8087 18.6241 13.7819 18.7451 15.6499C18.209 17.12 18.5895 17.9329 18.97 15.9785C19.6618 14.4219 18.8316 19.0052 17.9841 17.6908ZM18.7451 13.1939C18.797 13.5225 18.9527 12.9171 18.7451 13.1939V13.1939ZM17.4825 37.9959C17.1885 37.7364 17.5171 38.1688 17.4825 37.9959V37.9959ZM20.0769 39.3103C21.5124 39.6736 21.5124 39.0855 20.2153 38.9126C19.5061 38.2553 17.2923 37.5635 19.2813 38.8261C19.4024 39.172 19.8348 39.1547 20.0769 39.3103ZM14.9574 35.9031C15.753 36.4912 17.9495 37.5808 16.0816 36.1279C16.7042 35.4015 14.8709 35.0037 15.4935 34.5194C13.9542 33.5682 14.2828 33.6547 15.3552 33.6893C13.5045 32.8591 15.6319 32.9282 15.5281 32.4959C14.819 32.3575 11.9825 31.2333 13.6429 32.5823C11.9479 31.7175 13.2451 32.911 12.7262 32.7726C10.9967 32.3056 14.2655 34.0871 12.4495 33.6547C13.4527 34.4503 15.1303 35.6783 12.8646 34.4849C12.5879 34.9345 14.4904 35.5918 14.9574 35.9031ZM17.6728 37.4597C16.047 36.1798 20.959 38.532 17.6728 37.4597V37.4597ZM31.5612 45.8827C31.0942 46.4362 31.5958 45.2255 31.5612 45.8827V45.8827ZM32.9795 46.4881C33.7405 45.7443 33.0141 47.6642 34.2421 46.3151C34.2593 45.3465 34.2075 44.7758 32.8238 45.9519C32.4433 46.1594 32.2704 47.0588 32.9795 46.4881ZM10.3221 32.2537C8.67904 31.337 10.08 31.337 10.3221 32.2537V32.2537ZM11.8442 33.2569C9.82056 32.4094 11.2734 32.3229 11.8442 33.2569V33.2569ZM20.5093 38.4802C21.3568 39.2412 24.4008 39.0336 21.5297 38.5666C21.1146 37.944 18.8489 38.0997 20.5093 38.4802ZM32.4433 45.8481C31.1807 46.3324 33.7405 44.7585 32.4433 45.8481V45.8481ZM35.1587 47.716C34.588 47.8544 35.1587 47.3528 35.1587 47.716V47.716ZM35.1587 47.2145C33.7578 47.301 36.5943 45.6925 35.1587 47.2145V47.2145ZM6.56897 29.1232C5.34098 27.3763 5.80796 26.5807 4.61456 25.1452C4.38972 24.0556 2.57367 21.565 3.68059 24.1939C4.68374 25.7332 4.99507 28.12 6.56897 29.1232ZM34.6917 46.7302C33.6021 45.9865 37.3553 45.0179 34.6917 46.7302V46.7302ZM36.7326 47.5258C35.8851 47.2837 38.0471 46.3843 36.7326 47.5258V47.5258ZM9.87245 30.3166C8.88659 30.2474 10.253 29.7458 9.87245 30.3166V30.3166ZM36.3002 46.9896C37.5801 46.1594 36.0062 46.2805 36.0581 47.0588L36.3002 46.9896ZM18.8316 35.9723C18.1571 36.0242 18.797 35.4188 18.8316 35.9723V35.9723ZM19.9212 36.5949C19.3851 36.6987 19.5753 35.9031 19.9212 36.5949V36.5949ZM38.3584 47.5431C40.0015 46.3497 37.3553 47.3182 38.0125 47.7679L38.3584 47.5431ZM37.7358 47.2318C36.3175 47.7333 39.0848 46.1075 37.7358 47.2318V47.2318ZM40.9528 49.3937C39.8632 49.1862 41.8694 48.7884 40.9528 49.3937V49.3937ZM10.6853 29.9015C11.896 30.1782 15.5108 32.8764 13.3835 30.0918C12.2938 29.7631 12.9511 27.0996 11.8269 27.5666C12.5706 28.8119 12.4495 29.348 10.8756 28.5697C8.90389 27.6012 9.76867 29.054 10.1492 29.4518C9.63031 29.5556 10.841 29.9015 10.6853 29.9015ZM5.18532 25.5603C5.39287 24.6609 3.19632 20.631 4.14758 23.5367C4.49349 24.142 4.4589 25.3009 5.18532 25.5603ZM15.3033 31.7867C14.6806 31.2679 15.2687 31.7175 15.3033 31.7867V31.7867ZM16.8253 32.1499C15.1303 31.7694 16.8253 31.1987 16.8253 32.1499V32.1499ZM30.1084 40.521C29.1225 40.5037 29.8662 39.8638 30.1084 40.521V40.521ZM30.7483 40.988C30.3851 41.0572 30.6619 40.6248 30.7483 40.988V40.988ZM36.0235 44.3088C35.3836 44.2569 36.5251 43.9283 36.0235 44.3088V44.3088ZM7.93533 26.2521C6.37872 25.8543 9.38817 25.6987 7.93533 26.2521V26.2521ZM28.9496 39.4833C28.0156 39.7254 28.9323 38.5493 28.9496 39.4833V39.4833ZM7.36457 24.9203C6.49979 24.7128 8.29854 24.609 7.36457 24.9203V24.9203ZM10.0627 26.2348C9.78597 26.3559 10.0454 25.9235 10.0627 26.2348V26.2348ZM43.011 46.4362C44.2044 46.194 46.9371 47.0415 47.3695 46.1248C45.9166 46.0903 42.3364 45.1044 42.1808 46.367L42.4921 46.4189L43.011 46.4362ZM10.9275 26.4424C10.1838 26.4078 10.9448 25.4911 10.9275 26.4424V26.4424ZM3.81896 21.5304C2.59097 21.2537 3.50764 19.7143 3.81896 21.5304V21.5304ZM5.51394 21.9455C3.97462 21.4266 5.53123 21.3747 5.51394 21.9455V21.9455ZM6.48249 22.4298C6.20576 22.2049 6.27495 22.7065 6.48249 22.4298V22.4298ZM12.5706 26.3386C11.896 26.131 12.8646 26.0619 12.5706 26.3386V26.3386ZM5.84255 21.3574C3.87085 21.1499 5.6696 19.9911 5.84255 21.3574V21.3574ZM2.36612 19.109C2.0375 19.3338 2.31423 18.4691 2.36612 19.109V19.109ZM2.88499 18.7112C2.4353 18.815 2.79851 17.9675 2.88499 18.7112V18.7112ZM5.73878 20.4235C6.94948 19.9565 3.54223 19.4376 5.49664 20.337L5.73878 20.4235ZM43.9276 43.9975C42.9418 43.7899 44.7059 43.2884 43.9276 43.9975V43.9975ZM48.5456 46.4016C47.75 46.5053 48.8569 45.4849 48.5456 46.4016V46.4016ZM6.03281 18.9187C5.08154 19.0917 6.15388 18.0367 6.03281 18.9187V18.9187ZM1.96832 16.2033C1.74348 14.958 1.77807 12.7615 3.87085 13.5052C1.08624 14.0587 5.79067 16.9643 5.20261 14.664C6.37872 14.7159 7.48564 13.9722 6.88029 15.1137C9.18062 14.8543 10.7891 12.8653 13.0203 13.142C14.7498 12.9171 16.6523 12.7442 18.5203 12.0351C20.0596 11.9313 21.5297 10.2709 20.6995 9.28505C18.6068 9.1121 16.4102 9.37153 14.0926 9.83852C11.5328 10.3747 9.18062 11.3951 6.60356 11.8275C4.07839 12.1734 7.10514 12.7615 6.39602 12.8999C5.08154 13.3495 7.96992 13.6609 6.22306 14.1451C5.15073 13.9376 4.02651 13.5744 4.49349 12.4329C2.0721 12.7442 -0.0552732 13.7473 1.86455 16.2206H1.96832V16.2033ZM7.79696 13.2285C8.36772 11.1357 10.841 14.958 8.73093 13.5052C8.4715 13.3149 8.0737 13.1593 7.79696 13.2285ZM7.91803 12.208C8.35043 12.5539 8.73093 11.6027 7.91803 12.208V12.208ZM8.95577 12.2253C9.02496 11.2568 11.3426 12.7269 9.33628 12.5712L8.95577 12.2253ZM10.374 11.6546C10.5297 12.208 10.8929 11.0492 10.374 11.6546V11.6546ZM10.7372 11.4124C11.602 10.3747 15.6319 10.7552 12.6743 11.3087C11.896 10.7206 11.2907 11.6719 10.7372 11.4124ZM15.9951 10.5995C15.874 7.76304 18.6241 11.62 15.9951 10.5995V10.5995ZM17.4998 10.5995C18.036 9.16399 19.6099 10.0288 17.7593 10.3055C17.7939 10.4612 17.6901 11.0492 17.4998 10.5995ZM5.44475 18.1923C3.71519 17.3275 7.07055 17.1892 5.44475 18.1923V18.1923ZM6.65545 18.5209C5.41016 18.2788 7.22621 17.9156 6.65545 18.5209V18.5209ZM3.09254 15.9958C1.98562 15.719 4.02651 15.2867 3.09254 15.9958V15.9958ZM51.261 46.1248C50.5519 46.5053 51.2956 45.2947 51.261 46.1248V46.1248ZM46.3663 42.7868C45.7437 42.8733 46.5047 41.8355 46.3663 42.7868V42.7868ZM52.6101 46.4535C53.9072 46.4535 56.5535 46.0557 53.717 46.0557C53.2673 46.1248 51.1226 46.1075 52.6101 46.4535ZM7.71049 17.9329C8.76552 17.8637 9.35358 16.7741 7.50294 16.826C4.63186 16.5319 10.0454 17.8118 7.13973 17.4486C6.74193 17.7081 7.69319 18.0021 7.71049 17.9329ZM8.64445 18.3999C8.31583 18.7631 8.52338 17.7253 8.64445 18.3999V18.3999ZM9.73408 15.4596C9.11144 15.3212 10.2011 14.9062 9.73408 15.4596V15.4596ZM6.24035 9.59638C8.12558 8.95644 10.7026 8.23002 11.5847 9.9077C10.6853 8.81807 11.2215 7.74574 12.069 9.33694C13.2797 10.9454 13.885 8.61052 13.0894 8.05706C13.9888 9.16399 15.0093 9.70015 13.6948 8.12624C15.1303 6.41397 10.841 8.35109 9.85515 8.33379C9.38817 8.55864 5.01236 9.47531 6.24035 9.59638ZM7.32998 7.4863C8.40231 6.67341 11.0486 7.97058 9.35358 6.67341C9.19792 6.53504 5.6523 7.65926 7.32998 7.4863ZM11.2561 7.64196C12.5187 7.67656 10.7199 5.94699 12.2074 6.74259C11.9652 5.94699 10.4605 5.79133 9.73408 5.46271C9.31898 6.20642 10.5643 7.65926 11.2561 7.64196ZM8.02181 4.09635C7.2608 4.39038 8.4542 3.5083 8.02181 4.09635V4.09635ZM9.61301 4.47686C11.6366 4.21742 9.09414 3.61207 9.19792 4.45956L9.61301 4.47686ZM6.63815 2.14194C5.21991 0.274008 9.31898 2.45326 7.86615 0.498852C6.63815 -0.469706 5.47934 1.60578 6.63815 2.14194ZM24.937 12.0005C25.5942 10.8417 22.2389 10.4439 24.4873 11.5854C24.6948 11.6546 24.643 12.0697 24.937 12.0005Z" fill="black"/>
<path d="M55.7925 4.00982C55.5677 4.92649 55.412 6.4831 55.3602 8.66236C55.3602 9.09475 55.1699 9.3023 54.7894 9.3023C54.4262 9.3196 54.0976 9.09475 53.9938 8.74884C53.5787 7.74569 53.1809 7.03657 52.8177 6.63877C52.3507 6.15449 51.7281 5.86046 51.0708 5.79128C50.2925 5.67021 48.3381 5.60103 45.2076 5.60103C44.4985 5.60103 44.0315 5.67021 43.8066 5.82587C43.6683 5.91235 43.5991 6.13719 43.5991 6.44851V15.8055C43.5991 16.1168 43.7893 16.2725 44.2044 16.2552C45.4324 16.2379 47.1966 16.1514 49.5315 16.013C49.9812 15.9611 50.2925 15.8055 50.4482 15.5633C50.6038 15.3212 50.7595 14.6985 50.9152 13.6954C51.0189 13.1419 51.3303 12.9344 51.8837 13.0555C52.3507 13.1592 52.5583 13.3668 52.4891 13.6954C52.1086 15.5633 51.9702 18.002 52.1259 20.9942C52.1432 21.3574 51.9183 21.5476 51.4513 21.5649C51.0708 21.5995 50.8287 21.392 50.7249 20.9423C50.3617 19.23 49.7045 18.2961 48.7359 18.1923C47.7674 18.0712 46.1934 18.0193 43.9969 18.0193C43.7547 18.0193 43.6337 18.1058 43.6337 18.2788V27.5665C43.6337 28.2584 43.8931 28.7253 44.3947 28.9675C44.7925 29.175 45.6573 29.3653 46.9717 29.5209C47.6463 29.5901 47.9403 29.8842 47.8538 30.403C47.7674 30.8527 47.162 31.043 46.0378 30.9392C42.7862 30.6798 40.0881 30.6971 37.9607 30.9738C37.3726 31.0603 37.0786 30.8181 37.0786 30.2474C37.0786 29.8842 37.3726 29.6766 37.9607 29.6247C39.3098 29.4691 39.9843 28.293 39.9843 26.0791V8.43752C39.9843 7.53814 39.8286 6.82902 39.5 6.34474C39.1714 5.86046 38.566 5.41077 37.7013 5.01297C37.1478 4.77083 36.9403 4.42492 37.0786 3.99253C37.1478 3.73309 37.2516 3.59473 37.4072 3.56014C37.5629 3.52554 37.9088 3.54284 38.4969 3.64661C39.3617 3.78498 41.4025 3.85416 44.6195 3.85416C48.4246 3.85416 51.6935 3.76768 54.4608 3.61202C55.3774 3.56014 55.8444 3.62932 55.8444 3.83686C55.8098 3.88875 55.8098 3.94064 55.7925 4.00982Z" fill="black"/>
<path d="M69.2139 30.2303C69.2139 30.7838 68.9026 31.0259 68.2799 30.9567C66.3774 30.7838 64.0252 30.8011 61.2233 31.0432C60.6525 31.0951 60.3066 31.0778 60.1855 31.0086C60.0472 30.9222 59.9953 30.6973 59.9953 30.3341C59.9953 30.0055 60.3758 29.7288 61.1195 29.5039C61.8632 29.2791 62.2437 28.6045 62.2437 27.463V8.78369C62.2437 7.67677 62.0881 6.84658 61.7594 6.3277C61.4308 5.80883 60.8774 5.39374 60.0472 5.11701C59.6148 4.96135 59.4072 4.7538 59.4072 4.47707C59.4072 4.06197 59.7185 3.75065 60.3412 3.5431C61.3616 3.19719 62.3475 2.73021 63.2469 2.14215C64.0771 1.64058 64.5959 1.39844 64.8208 1.39844C65.3224 1.39844 65.5818 1.74435 65.5818 2.45347C65.5818 2.40159 65.5472 3.09341 65.4953 4.51166C65.4607 5.87802 65.4434 7.20978 65.4607 8.54155L65.5472 26.9787C65.5472 27.8262 65.7547 28.4316 66.1698 28.8121C66.5849 29.1926 67.2941 29.4347 68.2972 29.5731C68.9026 29.6077 69.2139 29.8325 69.2139 30.2303Z" fill="black"/>
<path d="M88.032 28.8468C88.032 29.1408 87.5131 29.5732 86.4581 30.1612C85.403 30.7493 84.5556 31.0433 83.9329 31.0433C83.3967 31.0433 82.9298 30.7839 82.5147 30.265C82.0996 29.7461 81.8055 29.4867 81.6499 29.4867C81.5288 29.4867 80.8716 29.7634 79.6955 30.3342C78.5885 30.8876 77.3605 31.1644 76.1326 31.1817C75.0083 31.1817 74.0571 30.8531 73.2961 30.1958C72.4659 29.4694 72.0508 28.4835 72.0508 27.221C72.0508 24.8342 74.7835 23.1392 80.2143 22.1014C81.1483 21.9285 81.6326 21.548 81.6326 20.9599L81.6672 19.6455C81.7537 17.397 80.7505 16.2555 78.675 16.2555C78.087 16.2555 77.5162 16.7917 76.9973 17.8467C76.4612 18.9017 75.7002 19.4725 74.7143 19.559C73.5901 19.6627 73.0193 19.1958 73.0193 18.1407C73.0193 17.4835 73.8668 16.7052 75.5445 15.8231C77.3087 14.9064 79.0036 14.4395 80.6121 14.4395C83.3967 14.4395 84.7804 15.7712 84.7631 18.4175L84.6766 26.9269C84.6593 27.8263 85.0398 28.276 85.8181 28.276C86.1122 28.2587 86.3889 28.2241 86.6829 28.1722C87.1153 28.103 87.3575 28.0684 87.4266 28.0684C87.8417 28.0339 88.032 28.3106 88.032 28.8468ZM81.6672 24.1423C81.6845 23.7964 81.598 23.5716 81.425 23.4678C81.2521 23.364 80.9754 23.3294 80.6121 23.3986C77.2914 23.9867 75.631 25.0763 75.631 26.6329C75.631 28.1895 76.4958 29.0024 78.208 29.0197C78.9345 29.0197 79.6609 28.8813 80.3354 28.6219C81.1829 28.3279 81.6153 27.9474 81.6153 27.5323L81.6672 24.1423Z" fill="black"/>
<path d="M103.425 26.3903C103.425 27.8432 102.872 29.002 101.747 29.8668C100.623 30.7315 99.1011 31.1639 97.164 31.1639C95.8668 31.1639 94.5523 31.0256 93.2898 30.7488C92.1655 30.5067 91.5256 30.2819 91.3526 30.0743C91.2316 29.8841 91.1797 28.9328 91.1797 27.2551C91.1797 26.5287 91.3526 26.1482 91.6813 26.1136C92.0099 26.079 92.2866 26.2693 92.5288 26.6498C93.5665 28.4485 95.2269 29.3479 97.5272 29.3479C99.4643 29.3479 100.433 28.6734 100.433 27.3243C100.45 26.7535 100.208 26.2174 99.7756 25.8369C99.2914 25.3872 98.3574 24.851 96.9737 24.2457C94.9674 23.3463 93.6184 22.568 92.9438 21.8935C92.2174 21.1843 91.8542 20.2158 91.8542 19.0051C91.8542 17.5176 92.425 16.3588 93.5665 15.5459C94.6215 14.7503 96.0398 14.3525 97.8212 14.3525C98.8417 14.3525 99.8621 14.439 100.883 14.612C101.868 14.7849 102.387 15.0098 102.439 15.2692C102.56 16.0475 102.785 17.1544 103.114 18.6073C103.148 18.7802 102.958 18.9359 102.543 19.0397C102.093 19.1434 101.782 19.057 101.644 18.8148C100.554 17.0334 99.1876 16.1513 97.5099 16.1513C95.6247 16.1513 94.6907 16.7566 94.6907 17.9673C94.6734 18.59 94.9501 19.1953 95.4517 19.5758C95.9014 19.9217 96.9737 20.4579 98.6514 21.1843C100.416 21.9453 101.609 22.6199 102.249 23.2252C103.01 24.0208 103.425 25.0759 103.425 26.3903Z" fill="black"/>
<path d="M127.362 30.1092C127.362 30.5934 127.033 30.8529 126.393 30.8702C125.425 30.8875 124.162 30.9566 122.623 31.0777C121.845 31.2334 121.308 31.1296 120.98 30.7837C118.87 28.5353 117.019 26.0793 115.445 23.433C115.359 23.2428 115.186 23.1217 114.978 23.1044C114.753 23.1044 114.338 23.312 113.767 23.7271C113.127 24.0903 112.799 24.5918 112.799 25.2491C112.799 25.7161 112.816 26.3906 112.833 27.2727C112.851 28.1547 113.076 28.7255 113.491 29.0022C113.785 29.1925 114.442 29.3482 115.497 29.4519C116.137 29.5384 116.466 29.7805 116.466 30.1783C116.466 30.4897 116.414 30.6972 116.31 30.7664C116.206 30.8356 115.929 30.8529 115.497 30.8183C114.113 30.6972 111.796 30.7664 108.527 31.0258C107.697 31.095 107.247 30.9912 107.178 30.7145C107.143 30.5761 107.126 30.4378 107.143 30.2994C107.143 29.867 107.558 29.5557 108.406 29.3309C109.167 29.1406 109.547 28.2412 109.547 26.6673V8.64523C109.547 7.52101 109.444 6.72541 109.219 6.29302C108.925 5.72226 108.285 5.28987 107.316 4.97854C106.866 4.82288 106.642 4.61533 106.642 4.3386C106.642 3.9408 106.97 3.62948 107.61 3.40464C108.648 3.05872 109.634 2.57444 110.568 1.98639C111.329 1.48482 111.796 1.24268 111.969 1.24268C112.539 1.24268 112.816 1.60589 112.816 2.31501C112.816 2.21124 112.816 2.90306 112.799 4.3559C112.782 5.35905 112.782 6.70811 112.782 8.40309L112.816 21.323C112.816 21.6862 112.92 21.8591 113.11 21.8591C113.3 21.8591 113.629 21.6862 114.061 21.323C115.203 20.4236 116.604 19.2648 118.264 17.8119C118.593 17.466 118.766 17.1893 118.766 16.9817C118.766 16.6012 118.212 16.3418 117.088 16.2034C116.604 16.1515 116.379 15.8748 116.414 15.3905C116.448 14.9063 116.69 14.6987 117.14 14.7679C118.576 14.9409 120.028 15.01 121.481 15.01C122.796 15.0273 124.11 15.0273 125.425 15.0273C125.857 15.0446 126.065 15.2868 126.065 15.7883C126.065 16.2553 125.719 16.5148 125.061 16.5493C124.024 16.5839 123.003 16.8261 122.069 17.2758C120.755 17.8638 119.371 18.9016 117.884 20.389C117.78 20.4582 117.711 20.5792 117.711 20.7003C117.711 20.8906 117.953 21.3575 118.42 22.084C120.132 24.6956 121.758 26.6673 123.297 27.9991C124.283 28.8466 125.183 29.2617 126.047 29.2617C126.687 29.2617 127.068 29.3136 127.223 29.4C127.293 29.4865 127.362 29.7287 127.362 30.1092Z" fill="black"/>
<path d="M72.0332 37.3037C72.0332 37.3556 71.9467 37.4074 71.7564 37.4593C71.6181 37.5112 71.497 37.6323 71.4451 37.788C71.0646 38.67 70.6322 39.5348 70.1479 40.3823C70.1479 40.3996 70.1133 40.3996 70.0787 40.3996C70.0614 40.3996 70.0269 40.3823 70.0269 40.365C69.9577 40.2785 69.802 39.9326 69.5253 39.3619C69.4215 39.0851 69.2831 38.8257 69.1275 38.5663C69.0929 38.5663 68.9545 38.8257 68.6951 39.3273C68.4011 39.898 68.2281 40.2266 68.1762 40.2958C68.1762 40.3131 68.1589 40.3304 68.1243 40.3131C68.0897 40.3131 68.0724 40.2958 68.0551 40.2785C67.8649 39.9672 67.4152 39.137 66.7061 37.7707C66.6542 37.6323 66.5677 37.5285 66.4294 37.4593C66.2564 37.3902 66.1699 37.321 66.1699 37.2864C66.1699 37.1826 66.2218 37.1307 66.3429 37.148C66.7926 37.1999 67.2423 37.1999 67.6919 37.1134C67.7784 37.0961 67.8303 37.1307 67.8303 37.1999C67.8303 37.3037 67.7784 37.3729 67.6574 37.4074C67.5017 37.442 67.4152 37.4939 67.4152 37.5804C67.4152 37.6496 67.4325 37.7361 67.4671 37.8052C67.5536 38.0474 67.7092 38.376 67.8995 38.7565C68.0897 39.137 68.2108 39.3273 68.2454 39.3273C68.3838 39.137 68.5048 38.9468 68.5913 38.7219C68.7124 38.5144 68.8162 38.2895 68.9026 38.0647C68.9026 37.9436 68.868 37.8225 68.7989 37.7188C68.747 37.5804 68.6432 37.4593 68.5048 37.4074C68.3319 37.3383 68.2454 37.2864 68.2454 37.2345C68.2454 37.1307 68.3146 37.0788 68.4184 37.0961C68.8508 37.148 69.3004 37.148 69.7328 37.0615C69.8193 37.0442 69.8712 37.0788 69.8712 37.148C69.8712 37.2518 69.802 37.321 69.6809 37.3383C69.5599 37.3556 69.4561 37.442 69.4561 37.5804C69.4561 37.6496 69.4734 37.7361 69.508 37.8052C69.9231 38.8084 70.1652 39.31 70.2171 39.31C70.3555 39.1197 70.4592 38.9295 70.5457 38.7219C70.7187 38.3933 70.857 38.0474 70.9781 37.7015C70.9781 37.6842 70.9781 37.6669 70.9781 37.6669C70.9781 37.5458 70.8916 37.4593 70.7014 37.3902C70.563 37.3383 70.4938 37.3037 70.4938 37.2345C70.4938 37.148 70.5284 37.0961 70.6322 37.1307C70.8398 37.1653 71.0646 37.1826 71.2894 37.1999C71.4797 37.2172 71.6699 37.2172 71.8775 37.1999C71.9813 37.2172 72.0505 37.2345 72.0332 37.3037Z" fill="black"/>
<path d="M75.5959 39.5866C75.5959 39.7077 75.4402 39.8461 75.1289 40.019C74.8002 40.2093 74.4197 40.2957 74.0392 40.2957C73.6587 40.313 73.2955 40.1574 73.0188 39.8979C72.7248 39.6039 72.5518 39.1888 72.5864 38.7737C72.5691 38.3067 72.7421 37.8398 73.088 37.4938C73.382 37.1998 73.7971 37.0269 74.2122 37.0442C74.4889 37.0442 74.7484 37.1306 74.9559 37.3036C75.1462 37.4247 75.2845 37.6149 75.371 37.8225C75.3883 37.8916 75.4229 37.9262 75.4748 37.9262C75.544 37.9435 75.5959 37.9954 75.5786 38.0646C75.5786 38.1684 75.4402 38.2721 75.1808 38.3413L73.3301 38.8948C73.4512 39.5347 73.7798 39.8461 74.316 39.8461C74.6965 39.8288 75.0597 39.7077 75.371 39.5001C75.4229 39.4656 75.4748 39.4483 75.544 39.4483C75.5613 39.4655 75.5959 39.5001 75.5959 39.5866ZM74.6446 37.9781C74.6446 37.8225 74.5754 37.6841 74.4716 37.5976C74.3506 37.4765 74.1949 37.4247 74.0392 37.4247C73.555 37.4247 73.2955 37.7706 73.2955 38.4797V38.5835L74.3852 38.2549C74.5581 38.203 74.6446 38.0992 74.6446 37.9781Z" fill="black"/>
<path d="M79.6428 38.4454C79.6601 38.9469 79.4526 39.4312 79.0894 39.7771C78.7608 40.123 78.3111 40.296 77.8268 40.296C77.5328 40.296 77.2387 40.2441 76.962 40.1576C76.668 40.0712 76.5296 39.9847 76.5296 39.9155C76.5296 39.8463 76.5296 39.6388 76.5296 39.2756C76.5296 38.8259 76.5469 38.4973 76.5469 38.2897C76.5469 37.9784 76.5469 37.5287 76.5469 36.9406C76.5296 36.3526 76.5469 35.9548 76.5469 35.7645C76.5642 35.6262 76.5296 35.4878 76.4604 35.3667C76.3567 35.2803 76.2356 35.2284 76.1145 35.2111C76.0453 35.1938 76.0107 35.1419 76.0107 35.0727C76.0107 35.0208 76.0626 34.9689 76.1664 34.9343C76.3566 34.8652 76.5469 34.7614 76.7199 34.6576C76.8236 34.5884 76.9274 34.5365 77.0485 34.502C77.135 34.502 77.1695 34.5711 77.1695 34.7095C77.1695 34.7268 77.1695 34.8652 77.1523 35.1246C77.135 35.384 77.1523 35.6262 77.1523 35.8856V37.2693C77.1523 37.4076 77.2041 37.4422 77.2906 37.373C77.6019 37.2001 77.9478 37.0963 78.2938 37.0963C78.657 37.079 79.0029 37.2174 79.2796 37.4595C79.5391 37.7535 79.6774 38.0995 79.6428 38.4454ZM79.0029 38.8086C79.0202 38.48 78.8991 38.1513 78.6916 37.9092C78.5186 37.7017 78.2592 37.5806 77.9824 37.5806C77.7922 37.5806 77.5846 37.6325 77.429 37.7362C77.2387 37.84 77.1523 37.9438 77.1523 38.0476V39.1199C77.1523 39.6388 77.429 39.8982 77.9997 39.8982C78.2765 39.9155 78.5359 39.8117 78.7262 39.6042C78.9164 39.3793 79.0202 39.1026 79.0029 38.8086Z" fill="black"/>
<path d="M86.1466 39.8637C86.1639 39.881 86.1639 39.8983 86.1639 39.9156C86.1639 39.9675 86.0255 40.0712 85.7488 40.1923C85.5758 40.2961 85.3856 40.3653 85.1953 40.4172C85.1435 40.4172 85.0916 40.3307 85.0224 40.175C84.9532 40.0194 84.9186 39.9329 84.884 39.9329C84.8494 39.9329 84.7284 40.0021 84.4343 40.1404C84.2268 40.2615 83.9846 40.3307 83.7425 40.348C83.3966 40.348 83.068 40.2096 82.8258 39.9675C82.4972 39.6215 82.3243 39.1719 82.3588 38.6876C82.3588 38.2379 82.5664 37.8055 82.9123 37.5115C83.1717 37.252 83.535 37.0964 83.9155 37.0791C84.2095 37.0791 84.5035 37.1137 84.7802 37.1656C84.884 37.1829 84.9359 37.1483 84.9359 37.0791V35.7127C84.9532 35.5917 84.9013 35.4706 84.8148 35.3841C84.7111 35.3149 84.59 35.263 84.4689 35.2284C84.3997 35.2112 84.3478 35.142 84.3478 35.0728C84.3478 35.0036 84.3997 34.9517 84.5208 34.9171C84.7111 34.8479 84.9013 34.7788 85.0916 34.675C85.1953 34.6058 85.3164 34.5539 85.4375 34.5366C85.5413 34.5366 85.5931 34.6058 85.5931 34.7442C85.5931 34.7442 85.5931 34.8825 85.5758 35.142C85.5586 35.4014 85.5585 35.6781 85.5585 35.9203V39.5697C85.5585 39.7253 85.6277 39.7945 85.7661 39.7945C85.8353 39.7945 85.9045 39.7772 85.9736 39.7772C86.0255 39.7426 86.112 39.7945 86.1466 39.8637ZM84.9013 39.4659V38.0303C84.9013 37.9093 84.7975 37.7882 84.59 37.6671C84.3651 37.5288 84.123 37.4596 83.8636 37.4596C83.3101 37.4596 83.0334 37.8055 83.0334 38.4973C83.0334 38.8432 83.1372 39.1892 83.362 39.4486C83.5523 39.6907 83.829 39.8464 84.1403 39.8464C84.3133 39.8464 84.4689 39.7945 84.6246 39.708C84.8148 39.6043 84.9013 39.5351 84.9013 39.4659Z" fill="black"/>
<path d="M89.6222 39.5866C89.6222 39.7077 89.4666 39.8461 89.1552 40.019C88.8266 40.2093 88.4461 40.2957 88.0656 40.2957C87.6851 40.313 87.3219 40.1574 87.0452 39.8979C86.7511 39.6039 86.5782 39.1888 86.6128 38.7737C86.5955 38.2894 86.7684 37.8398 87.0971 37.4938C87.3911 37.1998 87.8062 37.0269 88.2213 37.0442C88.498 37.0442 88.7574 37.1306 88.965 37.3036C89.1552 37.4247 89.2936 37.6149 89.3801 37.8225C89.3974 37.8916 89.432 37.9262 89.4839 37.9262C89.553 37.9435 89.6049 37.9954 89.5876 38.0646C89.5876 38.1684 89.4493 38.2721 89.1898 38.3413L87.3392 38.8948C87.4603 39.5347 87.7889 39.8461 88.325 39.8461C88.7055 39.8288 89.0688 39.7077 89.3801 39.5001C89.432 39.4656 89.4839 39.4483 89.553 39.4483C89.6049 39.4655 89.6222 39.5001 89.6222 39.5866ZM88.671 37.9781C88.671 37.8225 88.6018 37.6841 88.498 37.5976C88.3769 37.4765 88.2213 37.4247 88.0656 37.4247C87.564 37.4247 87.3219 37.7879 87.3219 38.4797V38.5835L88.4115 38.2549C88.5845 38.203 88.671 38.0992 88.671 37.9781Z" fill="black"/>
<path d="M94.0162 37.304C94.0162 37.3559 93.9298 37.4078 93.7568 37.4597C93.653 37.4943 93.5493 37.5981 93.4801 37.7883C93.3417 38.0996 93.1169 38.5666 92.7883 39.172C92.5115 39.6908 92.304 40.0713 92.1483 40.2962C92.131 40.3135 92.1137 40.3308 92.0964 40.3135C92.0791 40.3135 92.0445 40.2962 92.0445 40.2789C91.4911 39.4833 91.0068 38.6531 90.5917 37.771C90.5052 37.5981 90.4187 37.4943 90.3323 37.4597C90.1766 37.3905 90.1074 37.3386 90.1074 37.2867C90.1074 37.183 90.1593 37.1311 90.2631 37.1484C90.7301 37.183 91.1797 37.1657 91.6467 37.1138C91.7332 37.0965 91.7678 37.1311 91.7678 37.2003C91.7678 37.2694 91.7159 37.3559 91.5948 37.3732C91.3873 37.4251 91.2835 37.4943 91.2835 37.5808C91.2835 37.6327 91.3008 37.7018 91.3181 37.7537C91.4565 38.0823 91.6294 38.411 91.8024 38.7223C92.0445 39.1547 92.1656 39.3622 92.2002 39.3622C92.3386 39.172 92.4596 38.9644 92.5461 38.7569C92.7191 38.4283 92.8747 38.065 93.0131 37.7191C93.0304 37.6845 93.0304 37.6672 93.0304 37.6327C93.0304 37.5116 92.9439 37.4078 92.8401 37.3732C92.7191 37.3213 92.6499 37.2694 92.6499 37.2349C92.6499 37.1484 92.6845 37.0965 92.7709 37.1138C92.9612 37.1484 93.1515 37.1484 93.3417 37.1657C93.5147 37.183 93.6876 37.183 93.8606 37.1657C93.9471 37.183 93.9989 37.2176 94.0162 37.304Z" fill="black"/>
<path d="M97.5783 39.5866C97.5783 39.7077 97.4226 39.8461 97.1113 40.019C96.7827 40.2093 96.4022 40.2957 96.0217 40.2957C95.6412 40.313 95.278 40.1574 95.0012 39.8979C94.7072 39.6039 94.5342 39.1888 94.5688 38.7737C94.5515 38.3067 94.7245 37.8398 95.0531 37.4938C95.3471 37.1998 95.7622 37.0269 96.1773 37.0442C96.4541 37.0442 96.7135 37.1306 96.921 37.3036C97.1113 37.4247 97.2497 37.6149 97.3361 37.8225C97.3534 37.8743 97.388 37.9262 97.4399 37.9262C97.5091 37.9435 97.561 37.9954 97.5437 38.0646C97.5437 38.1684 97.4053 38.2721 97.1459 38.3413L95.2952 38.8948C95.4163 39.5347 95.7449 39.8461 96.2811 39.8461C96.6616 39.8288 97.0248 39.7077 97.3361 39.5001C97.388 39.4656 97.4399 39.4483 97.5091 39.4483C97.561 39.4655 97.5783 39.5001 97.5783 39.5866ZM96.627 37.9781C96.627 37.8225 96.5578 37.6841 96.4541 37.5976C96.333 37.4765 96.1773 37.4247 96.0217 37.4247C95.5374 37.4247 95.2779 37.7706 95.2779 38.4797V38.5835L96.3676 38.2549C96.5405 38.203 96.627 38.0992 96.627 37.9781Z" fill="black"/>
<path d="M100.053 40.1404C100.053 40.2442 100.001 40.2961 99.8796 40.2788C99.4299 40.2442 98.9629 40.2442 98.5132 40.2961C98.444 40.3134 98.3748 40.3134 98.3056 40.2961C98.2883 40.2788 98.271 40.2269 98.271 40.1577C98.271 40.0885 98.3402 40.0366 98.4959 40.0021C98.6516 39.9675 98.7207 39.8291 98.7207 39.6043V35.9722C98.738 35.7992 98.7034 35.6435 98.6343 35.4879C98.5478 35.3668 98.444 35.2976 98.3056 35.2457C98.2192 35.2112 98.1846 35.1766 98.1846 35.1247C98.1846 35.0382 98.2365 34.9863 98.3575 34.9517C98.5651 34.8825 98.738 34.7961 98.9283 34.675C99.0148 34.6058 99.1185 34.5539 99.2396 34.5366C99.3434 34.5366 99.3953 34.6058 99.3953 34.7442C99.3953 34.7269 99.3953 34.8652 99.378 35.142C99.3607 35.4187 99.3607 35.6608 99.378 35.9203L99.3953 39.5005C99.378 39.6388 99.4299 39.7599 99.5163 39.8637C99.6374 39.9502 99.7758 40.0021 99.9314 40.0021C100.018 40.0194 100.07 40.0712 100.053 40.1404Z" fill="black"/>
<path d="M103.944 38.6354C103.944 39.0851 103.754 39.5175 103.425 39.8115C103.079 40.1401 102.612 40.3131 102.145 40.2958C101.696 40.3131 101.263 40.1747 100.935 39.8634C100.641 39.5693 100.485 39.1715 100.502 38.7564C100.502 38.2895 100.693 37.8571 101.038 37.563C101.384 37.2517 101.834 37.0788 102.301 37.0961C102.751 37.0615 103.183 37.2171 103.529 37.5112C103.823 37.8225 103.979 38.2203 103.944 38.6354ZM103.235 38.8775C103.252 38.5143 103.149 38.1511 102.924 37.8571C102.751 37.6149 102.474 37.4766 102.163 37.4766C101.903 37.4766 101.644 37.5803 101.471 37.7706C101.298 37.9781 101.194 38.2376 101.211 38.497C101.194 38.8775 101.298 39.258 101.523 39.5693C101.713 39.7942 101.99 39.9326 102.284 39.9153C102.543 39.9326 102.803 39.8115 102.976 39.6212C103.166 39.4137 103.252 39.1542 103.235 38.8775Z" fill="black"/>
<path d="M108.146 38.5316C108.164 38.9986 107.974 39.4656 107.645 39.8115C107.351 40.1401 106.918 40.3304 106.469 40.3304C106.209 40.3304 105.933 40.2785 105.69 40.192C105.656 40.1747 105.656 40.2439 105.656 40.3823V41.593C105.656 41.7832 105.812 41.9216 106.14 41.9735C106.244 41.9908 106.33 42.0081 106.417 42.0427C106.451 42.0599 106.486 42.1118 106.469 42.1637C106.469 42.2502 106.417 42.3021 106.296 42.2848C105.794 42.2502 105.31 42.2502 104.808 42.3194C104.757 42.3367 104.687 42.3367 104.635 42.3194C104.618 42.3021 104.601 42.2675 104.601 42.2156C104.601 42.1637 104.67 42.1118 104.826 42.0427C104.981 41.9735 105.016 41.8697 105.016 41.6622V38.1165C105.016 37.8398 104.929 37.6496 104.774 37.5804C104.584 37.4939 104.497 37.4247 104.497 37.3728C104.497 37.3209 104.549 37.269 104.67 37.2345C104.826 37.1999 104.964 37.1307 105.102 37.0442C105.172 36.9923 105.258 36.9577 105.327 36.9404C105.414 36.9404 105.466 37.0096 105.518 37.1653C105.587 37.3728 105.639 37.4939 105.673 37.4939C105.708 37.4939 105.794 37.4247 106.019 37.3036C106.244 37.1826 106.486 37.0961 106.746 37.0961C107.091 37.0788 107.42 37.1999 107.697 37.4247C108.008 37.7014 108.181 38.1165 108.146 38.5316ZM107.455 38.8603C107.472 38.497 107.368 38.1338 107.126 37.8398C106.97 37.6496 106.746 37.5458 106.503 37.5285C106.313 37.5285 106.123 37.5977 105.967 37.7187C105.742 37.8744 105.621 38.1338 105.639 38.4106V39.5521C105.639 39.6213 105.742 39.7077 105.95 39.7769C106.175 39.8634 106.417 39.9153 106.659 39.9153C107.195 39.9153 107.455 39.5521 107.455 38.8603Z" fill="black"/>
<path d="M115.394 40.1404C115.394 40.2269 115.359 40.2615 115.273 40.2615C114.771 40.2269 114.252 40.2269 113.751 40.2615C113.647 40.2615 113.595 40.2269 113.595 40.1231C113.595 40.0194 113.664 40.0021 113.803 39.9848C113.976 39.9675 114.062 39.8291 114.062 39.5524V38.4801C114.062 37.8747 113.82 37.5807 113.336 37.5807C113.093 37.5807 112.851 37.6326 112.626 37.719C112.436 37.8055 112.332 37.892 112.332 37.9612L112.315 39.5524C112.298 39.6735 112.332 39.7772 112.367 39.881C112.419 39.9329 112.488 39.9502 112.557 39.9675C112.799 40.0021 112.903 40.054 112.903 40.1231C112.903 40.1577 112.903 40.1923 112.886 40.2269C112.869 40.2615 112.817 40.2615 112.748 40.2615C112.436 40.2442 112.004 40.2615 111.416 40.2788C111.364 40.2788 111.312 40.2788 111.26 40.2615C111.243 40.2442 111.226 40.2096 111.226 40.1577C111.226 40.1058 111.295 40.054 111.45 40.0367C111.606 40.0194 111.693 39.8637 111.693 39.587V38.4973C111.71 38.2552 111.641 38.0131 111.485 37.8055C111.381 37.6672 111.208 37.5807 111.035 37.598C110.793 37.598 110.534 37.6499 110.309 37.7536C110.101 37.8574 109.98 37.9785 109.98 38.0995V39.5697C109.963 39.6907 110.015 39.8291 110.101 39.9156C110.222 39.9848 110.378 40.0194 110.516 40.0194C110.62 40.0194 110.689 40.054 110.689 40.1231C110.689 40.1923 110.655 40.2442 110.551 40.2442C110.067 40.2442 109.582 40.2615 109.098 40.2961C109.029 40.3134 108.96 40.3134 108.908 40.2961C108.891 40.2788 108.873 40.2442 108.873 40.2096C108.873 40.175 108.977 40.0886 109.167 40.0367C109.288 40.0021 109.34 39.8464 109.34 39.5697V38.3417C109.34 38.0304 109.254 37.8401 109.081 37.8055C108.994 37.7882 108.908 37.7536 108.821 37.719C108.787 37.7017 108.77 37.6672 108.77 37.6326C108.77 37.5807 108.908 37.4769 109.185 37.3212C109.358 37.2175 109.531 37.131 109.721 37.0791C109.773 37.0791 109.825 37.1656 109.859 37.3212C109.894 37.4769 109.928 37.5634 109.946 37.5634C110.032 37.5288 110.119 37.4942 110.188 37.4423C110.326 37.3558 110.482 37.2694 110.637 37.2175C110.845 37.131 111.087 37.0964 111.312 37.0791C111.485 37.0791 111.658 37.1137 111.796 37.2002C111.9 37.2521 111.987 37.3385 112.056 37.425L112.159 37.5461L112.367 37.425C112.523 37.3385 112.678 37.2694 112.851 37.2002C113.059 37.131 113.284 37.0791 113.509 37.0791C114.235 37.0791 114.598 37.4769 114.598 38.2898V39.587C114.581 39.708 114.633 39.8291 114.702 39.9156C114.823 39.9848 114.944 40.0367 115.082 40.054C115.307 40.054 115.376 40.1058 115.394 40.1404Z" fill="black"/>
<path d="M118.783 39.5866C118.783 39.7077 118.628 39.8461 118.316 40.019C117.988 40.2093 117.607 40.2957 117.227 40.2957C116.846 40.313 116.483 40.1574 116.206 39.8979C115.912 39.6039 115.739 39.1888 115.774 38.7737C115.757 38.3067 115.93 37.8398 116.275 37.4938C116.57 37.1998 116.985 37.0269 117.4 37.0442C117.676 37.0442 117.936 37.1306 118.143 37.3036C118.334 37.4247 118.472 37.6149 118.559 37.8225C118.576 37.8916 118.61 37.9262 118.662 37.9262C118.731 37.9435 118.783 37.9954 118.766 38.0646C118.766 38.1684 118.628 38.2721 118.368 38.3413L116.518 38.8948C116.639 39.5347 116.967 39.8461 117.503 39.8461C117.884 39.8288 118.247 39.7077 118.559 39.5001C118.61 39.4656 118.662 39.4483 118.731 39.4483C118.766 39.4655 118.783 39.5001 118.783 39.5866ZM117.832 37.9781C117.832 37.8225 117.763 37.6841 117.659 37.5976C117.538 37.4765 117.382 37.4247 117.227 37.4247C116.742 37.4247 116.483 37.7706 116.483 38.4797V38.5835L117.573 38.2549C117.746 38.203 117.832 38.0992 117.832 37.9781Z" fill="black"/>
<path d="M123.592 40.175C123.592 40.2615 123.54 40.2961 123.419 40.2788C122.987 40.2442 122.554 40.2442 122.105 40.2615C121.949 40.2788 121.862 40.2615 121.862 40.2096C121.862 40.1923 121.862 40.1577 121.862 40.1404C121.862 40.0885 121.932 40.0367 122.087 40.0021C122.243 39.9675 122.295 39.8291 122.295 39.587V38.5319C122.295 37.9266 122.035 37.6153 121.499 37.6153C121.274 37.6153 121.032 37.6672 120.842 37.7882C120.652 37.892 120.548 38.0131 120.548 38.1341V39.6043C120.548 39.8637 120.721 40.0021 121.032 40.0194C121.153 40.0367 121.222 40.0713 121.222 40.1404C121.222 40.2096 121.205 40.2442 121.171 40.2615C121.119 40.2615 121.084 40.2615 121.032 40.2615C120.6 40.2442 120.167 40.2615 119.735 40.3307C119.683 40.348 119.614 40.348 119.562 40.348C119.51 40.3307 119.476 40.2961 119.476 40.2269C119.476 40.1577 119.545 40.1058 119.7 40.054C119.856 40.0021 119.908 39.8291 119.908 39.5178V38.3071C119.925 38.1687 119.891 38.0304 119.821 37.9093C119.7 37.8228 119.579 37.7709 119.441 37.7363C119.389 37.719 119.354 37.6672 119.354 37.6326C119.354 37.5807 119.406 37.5288 119.527 37.4942C119.7 37.425 119.873 37.3385 120.029 37.2348C120.116 37.1656 120.219 37.1137 120.323 37.0791C120.392 37.0791 120.444 37.1656 120.461 37.3212C120.479 37.4769 120.513 37.5634 120.565 37.5634C120.686 37.4769 120.825 37.3904 120.963 37.3212C121.222 37.1656 121.516 37.0964 121.828 37.0791C122.52 37.0791 122.866 37.4769 122.883 38.2725V39.5697C122.866 39.708 122.917 39.8291 123.021 39.9329C123.142 40.0021 123.263 40.054 123.402 40.0713C123.54 40.0713 123.592 40.1231 123.592 40.175Z" fill="black"/>
<path d="M126.186 39.8809C126.186 40.0019 126.065 40.123 125.84 40.2095C125.632 40.296 125.425 40.3306 125.2 40.3306C124.612 40.3306 124.335 40.0192 124.335 39.3966V37.9437C124.353 37.8227 124.335 37.7016 124.301 37.5978C124.214 37.5287 124.11 37.4941 124.007 37.4768C123.972 37.4595 123.938 37.4249 123.938 37.3557C123.938 37.2865 123.955 37.2346 123.989 37.2173C124.318 37.0444 124.577 36.7849 124.75 36.4563C124.785 36.4044 124.837 36.3871 124.923 36.4044C124.975 36.4217 125.01 36.4563 125.01 36.5082L125.027 37.0098C125.027 37.0444 125.027 37.0617 125.044 37.0963C125.079 37.1309 125.131 37.1309 125.183 37.1309H126.082C126.134 37.1309 126.134 37.2 126.082 37.3211C126.03 37.4422 125.927 37.5459 125.805 37.5459H125.2C125.096 37.5459 125.027 37.5632 125.01 37.5978C124.993 37.667 124.975 37.7362 124.975 37.7881V39.1026C124.958 39.3101 124.993 39.5349 125.062 39.7252C125.148 39.829 125.321 39.8982 125.598 39.8982C125.719 39.8982 125.823 39.8809 125.944 39.8463C126.082 39.8117 126.151 39.7944 126.151 39.7944C126.151 39.7944 126.203 39.829 126.186 39.8809Z" fill="black"/>
<path d="M128.002 40.0538C128.037 40.6938 127.691 41.3164 127.12 41.6278C127.085 41.645 127.051 41.6623 126.999 41.6796C126.964 41.6796 126.93 41.645 126.895 41.5586C126.878 41.5413 126.878 41.5067 126.878 41.4894C126.878 41.4375 126.947 41.3683 127.103 41.2645C127.328 41.1435 127.483 40.9013 127.501 40.6419C127.483 40.5035 127.397 40.3825 127.276 40.3133C127.085 40.2268 126.964 40.0366 126.964 39.8117C126.964 39.6906 127.016 39.5696 127.103 39.4831C127.189 39.3966 127.328 39.3447 127.449 39.3447C127.604 39.3447 127.76 39.4139 127.864 39.535C127.95 39.6906 128.002 39.8809 128.002 40.0538Z" fill="black"/>
<path d="M70.2 46.0382C70.2 46.4879 70.0097 46.9203 69.6811 47.2143C69.3352 47.5429 68.8682 47.7159 68.4012 47.6986C67.9515 47.7159 67.5191 47.5775 67.1905 47.2662C66.8965 46.9722 66.7408 46.5744 66.7581 46.1593C66.7581 45.6923 66.9484 45.2599 67.2943 44.9659C67.6402 44.6546 68.0899 44.4816 68.5569 44.4989C69.0066 44.4643 69.439 44.62 69.7676 44.914C70.0789 45.2253 70.2173 45.6231 70.2 46.0382ZM69.5081 46.2803C69.5254 45.9171 69.4217 45.5539 69.1968 45.2599C69.0239 45.0178 68.7471 44.8794 68.4358 44.8794C68.1764 44.8794 67.9169 44.9832 67.744 45.1734C67.571 45.3637 67.4673 45.6404 67.4673 45.8998C67.45 46.2804 67.5537 46.6609 67.7786 46.9722C67.9688 47.197 68.2456 47.3354 68.5396 47.3181C68.799 47.3354 69.0585 47.2143 69.2314 47.0241C69.4217 46.8165 69.5081 46.5571 69.5081 46.2803Z" fill="black"/>
<path d="M75.0942 47.5775C75.0942 47.664 75.0423 47.6986 74.9212 47.6813C74.4888 47.6467 74.0564 47.6467 73.6067 47.664C73.4511 47.6813 73.3646 47.664 73.3646 47.6121C73.3646 47.5948 73.3646 47.5602 73.3646 47.5429C73.3646 47.491 73.4338 47.4391 73.5894 47.4045C73.7451 47.3699 73.797 47.2316 73.797 46.9894V45.9171C73.797 45.3118 73.5376 45.0004 73.0014 45.0004C72.7765 45.0004 72.5344 45.0523 72.3442 45.1734C72.1539 45.2772 72.0501 45.3982 72.0501 45.5193V46.9894C72.0501 47.2489 72.2231 47.3872 72.5517 47.4045C72.6728 47.4218 72.742 47.4564 72.742 47.5256C72.742 47.5948 72.7247 47.6294 72.6901 47.6467C72.6382 47.6467 72.6036 47.6467 72.5517 47.6467C72.1193 47.6294 71.6869 47.6467 71.2545 47.7159C71.2026 47.7332 71.1335 47.7332 71.0816 47.7332C71.0297 47.7159 70.9951 47.6813 70.9951 47.6121C70.9951 47.5429 71.0643 47.491 71.2199 47.4391C71.3756 47.3872 71.4275 47.2143 71.4275 46.903V45.6923C71.4448 45.5539 71.4102 45.4155 71.341 45.2945C71.2199 45.208 71.0989 45.1561 70.9605 45.1215C70.9086 45.1042 70.874 45.0523 70.874 45.0004C70.874 44.9486 70.9259 44.8967 71.047 44.8621C71.2199 44.7929 71.3929 44.7064 71.5486 44.5853C71.635 44.5162 71.7388 44.4643 71.8426 44.4297C71.9118 44.4297 71.9636 44.5162 71.9809 44.6718C71.9982 44.8275 72.0328 44.914 72.0847 44.914C72.2058 44.8275 72.3442 44.741 72.4998 44.6891C72.7593 44.5335 73.0533 44.4643 73.3646 44.447C74.0564 44.447 74.4023 44.8448 74.4196 45.6231V46.9203C74.4023 47.0586 74.4542 47.1797 74.558 47.2835C74.6791 47.3527 74.8001 47.4045 74.9385 47.4218C75.025 47.4737 75.0942 47.5083 75.0942 47.5775Z" fill="black"/>
<path d="M78.4504 46.9722C78.4504 47.0932 78.2947 47.2316 77.9834 47.4045C77.6547 47.5948 77.2742 47.6986 76.8937 47.6986C76.5132 47.7159 76.15 47.5602 75.8733 47.3008C75.5793 47.0067 75.4063 46.5917 75.4409 46.1766C75.4236 45.6923 75.5966 45.2426 75.9252 44.8967C76.2192 44.6026 76.6343 44.4297 77.0494 44.447C77.3261 44.447 77.5856 44.5335 77.7931 44.7064C77.9834 44.8275 78.1217 45.0177 78.2082 45.2253C78.2255 45.2945 78.2601 45.3291 78.312 45.3464C78.3812 45.3637 78.4331 45.4155 78.4158 45.4847C78.4158 45.5885 78.2774 45.6923 78.018 45.7615L76.1673 46.3149C76.2884 46.9549 76.617 47.2662 77.1532 47.2662C77.5337 47.2489 77.8969 47.1278 78.2082 46.9203C78.2601 46.8857 78.312 46.8684 78.3812 46.8684C78.4331 46.8684 78.4504 46.9203 78.4504 46.9722ZM77.4991 45.3637C77.4991 45.208 77.4299 45.0696 77.3261 44.9831C77.2051 44.8621 77.0494 44.8102 76.8937 44.8102C76.4095 44.8102 76.15 45.1561 76.15 45.8825V45.9863L77.2397 45.6577C77.4126 45.5885 77.4991 45.502 77.4991 45.3637Z" fill="black"/>
<path d="M84.8663 47.2663C84.8663 47.2836 84.8836 47.3009 84.8836 47.3182C84.8836 47.3701 84.7453 47.4739 84.4685 47.5949C84.2956 47.6987 84.1053 47.7679 83.9151 47.8198C83.8632 47.8198 83.8113 47.7333 83.7421 47.5776C83.6729 47.422 83.6383 47.3355 83.6037 47.3355L83.1541 47.543C82.9465 47.6641 82.7044 47.7333 82.4622 47.7506C82.1163 47.7506 81.7877 47.6122 81.5456 47.3701C81.2169 47.0242 81.044 46.5745 81.0786 46.1075C81.0786 45.6578 81.2861 45.2081 81.632 44.9314C81.8915 44.672 82.2547 44.5163 82.6352 44.499C82.9292 44.499 83.2232 44.5336 83.5 44.5855C83.6037 44.6028 83.6556 44.5682 83.6556 44.499V43.1327C83.6729 43.0116 83.621 42.8905 83.5346 42.804C83.4308 42.7349 83.3097 42.683 83.1886 42.6484C83.1195 42.6311 83.0676 42.5619 83.0676 42.4927C83.0676 42.4235 83.1195 42.3716 83.2405 42.337C83.4308 42.2679 83.621 42.1987 83.8113 42.0949C83.9151 42.0257 84.0361 41.9738 84.1572 41.9565C84.261 41.9565 84.2956 42.0257 84.2956 42.1641C84.2956 42.1641 84.2956 42.3025 84.2783 42.5619C84.261 42.8213 84.261 43.0981 84.261 43.3402V46.9896C84.261 47.1452 84.3302 47.2144 84.4685 47.2144C84.5377 47.2144 84.6069 47.1971 84.6761 47.1971C84.7625 47.128 84.849 47.1798 84.8663 47.2663ZM83.6383 46.8685V45.433C83.6383 45.3119 83.5346 45.1908 83.327 45.0698C83.1022 44.9314 82.86 44.8622 82.6006 44.8622C82.0471 44.8622 81.7704 45.2081 81.7704 45.9C81.7704 46.2459 81.8742 46.5745 82.099 46.8339C82.2893 47.0761 82.5833 47.2144 82.8773 47.2317C83.0503 47.2317 83.2059 47.1798 83.3616 47.0934C83.5346 47.0069 83.6383 46.9204 83.6383 46.8685Z" fill="black"/>
<path d="M87.8935 44.8102C87.8935 45.1388 87.807 45.2945 87.6167 45.2945C87.513 45.2772 87.4265 45.2599 87.3227 45.2426C87.2016 45.208 87.0806 45.1907 86.9595 45.1907C86.6655 45.1907 86.5098 45.3982 86.5098 45.796V46.9721C86.4925 47.0932 86.5617 47.197 86.6482 47.2662C86.7865 47.3354 86.9249 47.3699 87.0633 47.4045C87.1843 47.4391 87.2362 47.4737 87.2362 47.5429C87.2362 47.6121 87.2189 47.664 87.2016 47.6813C87.1843 47.6986 87.1325 47.6986 87.046 47.6986C86.579 47.6467 86.112 47.6467 85.645 47.6986C85.5758 47.7159 85.5067 47.7159 85.4375 47.6986C85.4202 47.6813 85.4029 47.6294 85.4029 47.5602C85.4029 47.491 85.4721 47.4218 85.6277 47.3872C85.7834 47.3527 85.8526 47.2143 85.8526 47.0067V45.7269C85.8699 45.6058 85.8353 45.4847 85.7834 45.3809C85.6796 45.2772 85.5585 45.208 85.4202 45.1388L85.4029 45.1215C85.351 45.1042 85.3164 45.0523 85.3164 45.0004C85.3164 44.9486 85.3683 44.8967 85.4894 44.8621C85.6796 44.7929 85.8353 44.7064 85.9909 44.5853C86.0601 44.5162 86.1466 44.4643 86.2331 44.4297C86.3368 44.4297 86.3887 44.5162 86.406 44.6718C86.4233 44.8794 86.4579 44.9831 86.4925 44.9831L86.9422 44.6891C87.1324 44.5681 87.3573 44.4989 87.5821 44.4989C87.807 44.4989 87.8935 44.6026 87.8935 44.8102Z" fill="black"/>
<path d="M91.8718 46.0383C91.8718 46.488 91.6816 46.9204 91.353 47.2144C91.0071 47.543 90.5401 47.716 90.0731 47.6987C89.6234 47.716 89.191 47.5776 88.8624 47.2663C88.5684 46.9723 88.4127 46.5745 88.43 46.1594C88.43 45.6924 88.6203 45.26 88.9662 44.966C89.3121 44.6547 89.7618 44.4817 90.2288 44.499C90.6784 44.4817 91.1108 44.6201 91.4395 44.9141C91.7335 45.2254 91.8891 45.6232 91.8718 46.0383ZM91.1627 46.2805C91.18 45.9172 91.0763 45.554 90.8514 45.26C90.6785 45.0179 90.4017 44.8795 90.0904 44.8795C89.831 44.8795 89.5715 44.9833 89.3986 45.1735C89.2256 45.3811 89.1218 45.6405 89.1391 45.9C89.1218 46.2805 89.2256 46.661 89.4505 46.9723C89.6407 47.1971 89.9174 47.3355 90.2115 47.3182C90.4709 47.3355 90.7303 47.2144 90.9033 47.0242C91.0935 46.8166 91.18 46.5572 91.1627 46.2805Z" fill="black"/>
<path d="M96.0742 45.9343C96.0915 46.4012 95.9012 46.8682 95.5726 47.2141C95.2786 47.5428 94.8462 47.733 94.3965 47.733C94.1371 47.733 93.8603 47.6811 93.6182 47.5946C93.5836 47.5773 93.5836 47.6465 93.5836 47.7849V48.9956C93.5836 49.1858 93.7393 49.3069 94.0679 49.3761C94.1717 49.3934 94.2582 49.4107 94.3446 49.4453C94.3792 49.4626 94.4138 49.5145 94.3965 49.5663C94.3965 49.6528 94.3446 49.7047 94.2236 49.6874C93.722 49.6528 93.2377 49.6528 92.7361 49.722C92.6842 49.7393 92.6324 49.7393 92.5632 49.722C92.5459 49.7047 92.5286 49.6701 92.5286 49.6182C92.5286 49.5663 92.5978 49.5145 92.7534 49.4453C92.9091 49.3761 92.9437 49.2723 92.9437 49.0648V45.5365C92.9437 45.2424 92.8572 45.0695 92.7015 45.0003C92.5113 44.9138 92.4248 44.8446 92.4248 44.7927C92.4248 44.7409 92.4767 44.689 92.5978 44.6544C92.7534 44.6198 92.8918 44.5506 93.0302 44.4641C93.0993 44.4122 93.1858 44.3776 93.255 44.3604C93.3415 44.3604 93.3934 44.4295 93.4453 44.5852C93.5144 44.7927 93.5663 44.9138 93.6009 44.9138C93.6355 44.9138 93.722 44.8446 93.9468 44.7236C94.1717 44.6025 94.4138 44.516 94.6732 44.516C95.0192 44.4987 95.3651 44.6198 95.6245 44.8446C95.9531 45.1041 96.1088 45.5019 96.0742 45.9343ZM95.3824 46.2456C95.3997 45.8824 95.2959 45.5192 95.0537 45.2251C94.8981 45.0349 94.6732 44.9138 94.4311 44.9138C94.2409 44.9138 94.0506 44.983 93.8949 45.1041C93.6701 45.2597 93.549 45.5192 93.5663 45.7959V46.9374C93.5663 47.0066 93.6701 47.0931 93.8776 47.1622C94.1025 47.2487 94.3446 47.3006 94.5868 47.3006C95.1229 47.3006 95.3824 46.9547 95.3824 46.2456Z" fill="black"/>
<path d="M102.023 47.2663C102.023 47.3181 101.92 47.4046 101.712 47.5257C101.556 47.6295 101.401 47.6814 101.228 47.6986C101.124 47.6986 101.02 47.6468 100.951 47.543C100.864 47.4392 100.813 47.3873 100.778 47.3873C100.64 47.4392 100.519 47.4911 100.398 47.5603C100.19 47.6641 99.9478 47.7332 99.7057 47.7332C99.4981 47.7332 99.3079 47.6641 99.1522 47.543C98.9966 47.4046 98.8928 47.1798 98.9101 46.9722C98.9101 46.5052 99.4463 46.1766 100.501 45.9691C100.674 45.9345 100.778 45.8653 100.778 45.7442V45.4848C100.795 45.0524 100.605 44.8276 100.19 44.8276C100.069 44.8276 99.9651 44.9313 99.8613 45.1389C99.7922 45.3118 99.6192 45.4329 99.429 45.4502C99.2041 45.4675 99.1003 45.381 99.1003 45.1735C99.1003 45.0524 99.256 44.8967 99.5846 44.7238C99.8786 44.5508 100.225 44.4644 100.57 44.4644C101.107 44.4644 101.383 44.7238 101.383 45.2427L101.366 46.903C101.366 47.076 101.435 47.1625 101.591 47.1625C101.643 47.1625 101.712 47.1452 101.764 47.1452C101.85 47.1279 101.902 47.1279 101.902 47.1279C101.989 47.1106 102.023 47.1625 102.023 47.2663ZM100.778 46.3496C100.778 46.2804 100.761 46.2285 100.726 46.2112C100.674 46.1939 100.622 46.1766 100.57 46.1939C99.9305 46.315 99.6019 46.5225 99.6019 46.8166C99.6019 47.1279 99.7749 47.2836 100.103 47.2836C100.242 47.2836 100.38 47.249 100.519 47.2144C100.692 47.1625 100.761 47.076 100.761 47.0068L100.778 46.3496Z" fill="black"/>
<path d="M104.722 47.2661C104.722 47.3872 104.601 47.5083 104.376 47.5947C104.168 47.6812 103.961 47.7158 103.736 47.7158C103.148 47.7158 102.871 47.4045 102.871 46.7818V45.329C102.888 45.2079 102.871 45.0869 102.819 44.9831C102.733 44.9139 102.629 44.8793 102.525 44.862C102.491 44.8447 102.456 44.8101 102.456 44.741C102.456 44.6718 102.473 44.6199 102.508 44.6026C102.837 44.4296 103.096 44.1702 103.269 43.8416C103.304 43.7897 103.355 43.7724 103.442 43.7897C103.494 43.807 103.528 43.8416 103.528 43.8935L103.546 44.395C103.546 44.4296 103.546 44.4469 103.563 44.4815C103.58 44.4988 103.615 44.5161 103.684 44.5161H104.583C104.635 44.5161 104.635 44.5853 104.583 44.7064C104.532 44.8274 104.428 44.9312 104.307 44.9312H103.701C103.598 44.9312 103.528 44.9485 103.511 44.9831C103.494 45.0523 103.477 45.1042 103.477 45.1733V46.4878C103.459 46.6954 103.494 46.9202 103.563 47.1105C103.632 47.2315 103.822 47.2834 104.099 47.2834C104.22 47.2834 104.324 47.2661 104.445 47.2315C104.583 47.1969 104.653 47.1796 104.653 47.1796C104.704 47.2142 104.722 47.2315 104.722 47.2661Z" fill="black"/>
<path d="M110.533 47.2661C110.533 47.3179 110.429 47.4044 110.222 47.5255C110.066 47.6293 109.91 47.6811 109.737 47.6984C109.634 47.6984 109.53 47.6466 109.461 47.5428C109.374 47.439 109.322 47.3871 109.288 47.3871C109.149 47.439 109.028 47.4909 108.907 47.5601C108.7 47.6639 108.458 47.733 108.215 47.733C108.008 47.733 107.818 47.6639 107.662 47.5428C107.506 47.4044 107.403 47.1796 107.42 46.972C107.42 46.505 107.956 46.1764 109.011 45.9689C109.184 45.9343 109.288 45.8651 109.288 45.744V45.4846C109.305 45.0522 109.115 44.8274 108.7 44.8274C108.579 44.8274 108.475 44.9311 108.371 45.1387C108.302 45.3289 108.129 45.45 107.921 45.4673C107.697 45.4846 107.593 45.3981 107.593 45.1906C107.593 45.0695 107.748 44.9138 108.077 44.7409C108.371 44.5679 108.717 44.4814 109.063 44.4814C109.599 44.4814 109.876 44.7409 109.876 45.2598L109.859 46.9201C109.859 47.0931 109.928 47.1796 110.083 47.1796C110.135 47.1796 110.204 47.1623 110.256 47.1623C110.343 47.145 110.395 47.145 110.395 47.145C110.481 47.1277 110.516 47.1796 110.533 47.2661ZM109.288 46.3494C109.288 46.2802 109.27 46.2283 109.236 46.211C109.184 46.1937 109.132 46.1764 109.08 46.1937C108.44 46.3148 108.112 46.5223 108.112 46.8164C108.112 47.1277 108.285 47.2833 108.613 47.2833C108.752 47.2833 108.89 47.2488 109.028 47.2142C109.201 47.1623 109.27 47.0758 109.27 47.0066L109.288 46.3494Z" fill="black"/>
<path d="M115.255 47.2661C115.255 47.3872 115.134 47.5083 114.909 47.5947C114.702 47.6812 114.494 47.7158 114.269 47.7158C113.699 47.7158 113.405 47.4045 113.405 46.7818V45.329C113.422 45.2079 113.405 45.0869 113.37 44.9831C113.284 44.9139 113.18 44.8793 113.076 44.862C113.041 44.8447 113.007 44.8101 113.007 44.741C113.007 44.6718 113.024 44.6199 113.059 44.6026C113.387 44.4296 113.647 44.1702 113.82 43.8416C113.854 43.7897 113.906 43.7724 113.993 43.7897C114.045 43.807 114.079 43.8416 114.079 43.8935L114.096 44.395C114.096 44.4296 114.096 44.4469 114.114 44.4815C114.148 44.5161 114.2 44.5161 114.235 44.5161H115.134C115.186 44.5161 115.186 44.5853 115.134 44.7064C115.082 44.8274 114.979 44.9312 114.857 44.9312H114.252C114.148 44.9312 114.079 44.9485 114.062 44.9831C114.045 45.0523 114.027 45.1042 114.027 45.1733V46.4878C114.01 46.6954 114.045 46.9202 114.114 47.1105C114.2 47.2315 114.373 47.2834 114.65 47.2834C114.771 47.2834 114.875 47.2661 114.996 47.2315C115.134 47.1969 115.203 47.1796 115.203 47.1796C115.255 47.2142 115.273 47.2315 115.255 47.2661Z" fill="black"/>
<path d="M117.278 43.0113C117.278 43.1324 117.227 43.2708 117.14 43.3573C117.071 43.461 116.95 43.5129 116.829 43.5129C116.708 43.5129 116.604 43.4783 116.517 43.4091C116.431 43.34 116.396 43.2189 116.396 43.1151C116.396 42.994 116.448 42.873 116.535 42.7865C116.621 42.7 116.725 42.6308 116.846 42.6308C117.14 42.6135 117.278 42.7519 117.278 43.0113ZM117.711 47.5428C117.694 47.6293 117.659 47.6639 117.624 47.6812C117.555 47.6812 117.503 47.6812 117.434 47.6812C117.036 47.6466 116.656 47.6639 116.258 47.6985C116.189 47.7158 116.12 47.7158 116.068 47.6812C116.033 47.6639 116.033 47.612 116.033 47.5428C116.033 47.4736 116.102 47.4217 116.241 47.3872C116.379 47.3526 116.466 47.1969 116.466 46.9375V45.8824C116.483 45.7268 116.448 45.5711 116.396 45.4327C116.31 45.2944 116.189 45.2079 116.033 45.1733C115.947 45.1387 115.912 45.1041 115.912 45.0349C115.912 44.9658 115.964 44.8966 116.085 44.862C116.293 44.7928 116.5 44.7063 116.69 44.5853C116.76 44.5161 116.846 44.4815 116.95 44.4469C117.054 44.4469 117.106 44.5161 117.106 44.6544C117.088 45.3636 117.088 46.0727 117.088 46.7991C117.071 46.9202 117.106 47.0585 117.157 47.1796C117.244 47.2834 117.348 47.3353 117.486 47.3526C117.642 47.4044 117.728 47.4736 117.711 47.5428Z" fill="black"/>
<path d="M124.785 47.5431C124.785 47.6295 124.75 47.6641 124.664 47.6641C124.162 47.6295 123.643 47.6295 123.142 47.6641C123.038 47.6641 122.986 47.6295 122.986 47.5258C122.986 47.422 123.055 47.4047 123.194 47.4047C123.367 47.3874 123.47 47.249 123.47 46.9723V45.9C123.47 45.2946 123.228 45.0006 122.744 45.0006C122.502 45.0006 122.26 45.0525 122.035 45.139C121.845 45.2254 121.741 45.3119 121.741 45.3811L121.724 46.9723C121.706 47.0934 121.741 47.1972 121.776 47.3009C121.827 47.3528 121.897 47.3701 121.966 47.3874C122.208 47.422 122.312 47.4739 122.312 47.5431C122.312 47.5777 122.312 47.6122 122.294 47.6468C122.277 47.6814 122.225 47.6814 122.156 47.6814C121.845 47.6641 121.412 47.6814 120.824 47.6987C120.772 47.6987 120.72 47.6987 120.669 47.6814C120.651 47.6641 120.634 47.6295 120.634 47.5604C120.634 47.4912 120.703 47.4393 120.859 47.4393C121.015 47.4393 121.101 47.2663 121.101 46.9896V45.9C121.118 45.6578 121.049 45.4157 120.893 45.2254C120.79 45.0871 120.617 45.0006 120.444 45.0179C120.202 45.0179 119.942 45.0698 119.717 45.1736C119.51 45.2773 119.406 45.3984 119.406 45.5195V46.9896C119.389 47.1107 119.441 47.249 119.527 47.3355C119.648 47.4047 119.804 47.4393 119.942 47.4393C120.046 47.4393 120.115 47.4739 120.115 47.5604C120.115 47.6468 120.063 47.6814 119.977 47.6814C119.492 47.6814 119.008 47.6987 118.524 47.7333C118.455 47.7506 118.386 47.7506 118.334 47.7333C118.316 47.716 118.299 47.6814 118.299 47.6295C118.299 47.5777 118.403 47.5085 118.593 47.4566C118.714 47.422 118.766 47.2663 118.766 46.9896V45.7616C118.766 45.4503 118.68 45.26 118.507 45.2254C118.42 45.2081 118.334 45.1736 118.247 45.139C118.213 45.1217 118.195 45.0871 118.195 45.0525C118.195 45.0006 118.334 44.8968 118.61 44.7412C118.783 44.6374 118.956 44.5509 119.147 44.499C119.198 44.499 119.25 44.5855 119.285 44.7412C119.32 44.8968 119.354 44.9833 119.371 44.9833C119.458 44.9487 119.544 44.9141 119.614 44.8622C119.752 44.7758 119.908 44.6893 120.063 44.6374C120.271 44.5509 120.513 44.5163 120.738 44.5163C120.911 44.5163 121.084 44.5509 121.222 44.6374C121.326 44.6893 121.412 44.7758 121.481 44.8622L121.568 44.9833L121.776 44.8622C121.931 44.7758 122.087 44.7066 122.26 44.6374C122.467 44.5509 122.692 44.5163 122.917 44.5163C123.643 44.5163 124.024 44.9141 124.024 45.727V47.0242C124.007 47.1453 124.059 47.2663 124.128 47.3528C124.249 47.422 124.37 47.4739 124.508 47.4912C124.716 47.4566 124.785 47.4912 124.785 47.5431Z" fill="black"/>
<path d="M128.175 46.9724C128.175 47.0934 128.02 47.2318 127.708 47.4047C127.38 47.595 126.999 47.6815 126.619 47.6815C126.238 47.6988 125.875 47.5431 125.598 47.2837C125.304 46.9897 125.131 46.5746 125.149 46.1595C125.131 45.6752 125.304 45.2255 125.65 44.8796C125.944 44.5856 126.359 44.4126 126.774 44.4299C127.051 44.4299 127.311 44.5164 127.518 44.6893C127.708 44.8104 127.847 45.0007 127.933 45.2082C127.951 45.2774 127.985 45.312 128.037 45.3293C128.106 45.3466 128.158 45.3985 128.141 45.4676C128.141 45.5714 128.002 45.6752 127.743 45.7444L125.892 46.2978C126.013 46.9378 126.342 47.2491 126.878 47.2491C127.259 47.2318 127.622 47.1107 127.933 46.9032C127.985 46.8686 128.037 46.8513 128.106 46.8513C128.158 46.8686 128.175 46.9032 128.175 46.9724ZM127.224 45.3639C127.224 45.2082 127.155 45.0698 127.051 44.9834C126.93 44.8623 126.774 44.8104 126.619 44.8104C126.135 44.8104 125.875 45.1563 125.875 45.8827V45.9865L126.965 45.6579C127.138 45.5887 127.224 45.5022 127.224 45.3639Z" fill="black"/>
</svg>
