<svg width="283" height="183" viewBox="0 0 283 183" fill="none" xmlns="http://www.w3.org/2000/svg">
<g opacity="0.2">
<path d="M167.14 120.739C167.133 120.716 167.124 120.692 167.116 120.669C167.013 120.685 167.016 120.708 167.14 120.739Z" fill="white"/>
<path d="M233.961 44.6117L266.815 122.53C261.967 122.409 255.949 122.269 248.997 122.123L220.08 49.6704C203.309 57.908 183.704 67.2182 163.802 82.6533C163.73 82.5482 190.487 116.875 193.892 121.243C185.277 121.15 176.342 121.073 167.25 121.023C158.816 96.8826 133.873 71.6942 109.197 52.4711C100.75 57.2203 92.1415 62.5116 83.5123 68.4021C114.883 92.0142 130.921 117.52 133.012 120.972C125.839 120.995 118.692 121.039 111.646 121.112C102.219 106.219 85.9061 89.8895 67.0042 80.2252C52.7416 91.5871 35.6556 107.342 22.5674 122.502C22.5655 122.492 22.4979 122.476 22.3591 122.482C22.3572 122.482 22.3552 122.482 22.3552 122.482C21.783 122.377 21.1997 122.265 20.607 122.146C14.2139 120.869 6.63687 118.799 0 115.796C7.07977 108.959 29.6303 89.4927 54.6231 71.1194C47.2114 60.5587 29.0543 56.8457 18.943 55.573C18.9843 54.8345 18.9918 54.0918 18.9673 53.3451C18.8828 50.8179 18.4421 48.1205 17.4722 45.3179C16.5605 42.6894 16.0201 39.9294 15.8907 37.1431C38.2292 43.7882 56.0055 49.7211 71.8702 60.1926C80.0942 54.5674 88.6578 48.9581 97.3641 43.598C73.204 26.1353 51.4095 14.0995 47.6014 12.0316C49.0289 12.1429 50.5222 12.3068 52.0792 12.5254C55.0319 12.9402 58.0202 12.9767 60.9804 12.6427C64.4301 12.2522 69.1838 11.5278 74.202 10.1983H74.2038C85.3955 16.3902 97.7223 25.5545 110.087 36.014C138.233 19.8139 173.947 2.73363 199.112 0C201.635 2.59217 205.575 6.18584 210.692 9.67634C195.856 14.219 159.853 26.1798 121.397 45.913C130.782 54.3894 139.991 63.3211 148.536 71.9634V71.9614C148.536 71.9614 197.732 36.3258 245.609 21.1254C247.082 21.1193 248.581 21.0526 250.102 20.9169C251.074 20.8319 252.047 20.7935 253.023 20.7692C256.855 20.6761 281.49 14.5206 283 32.0907C273.146 32.661 255.917 35.1944 233.961 44.6117Z" fill="#D2D9DC"/>
<path d="M111.99 120.74C111.983 120.729 111.976 120.719 111.969 120.708C111.967 120.718 111.971 120.729 111.99 120.74Z" fill="white"/>
</g>
<g opacity="0.6">
<path d="M44.9651 54.0146C44.624 56.9221 42.3856 59.2306 39.5781 59.3694C36.7717 59.5081 34.3469 57.4304 33.7605 54.5688C33.7189 54.9146 33.7057 55.2683 33.721 55.6285C33.865 59.0158 36.5276 61.6359 39.6677 61.4806C42.8092 61.3251 45.2382 58.4533 45.0942 55.0659C45.079 54.7057 45.0359 54.3549 44.9651 54.0146ZM44.9651 54.0146C44.624 56.9221 42.3856 59.2306 39.5781 59.3694C36.7717 59.5081 34.3469 57.4304 33.7605 54.5688C33.7189 54.9146 33.7057 55.2683 33.721 55.6285C33.865 59.0158 36.5276 61.6359 39.6677 61.4806C42.8092 61.3251 45.2382 58.4533 45.0942 55.0659C45.079 54.7057 45.0359 54.3549 44.9651 54.0146ZM44.9651 54.0146C44.624 56.9221 42.3856 59.2306 39.5781 59.3694C36.7717 59.5081 34.3469 57.4304 33.7605 54.5688C33.7189 54.9146 33.7057 55.2683 33.721 55.6285C33.865 59.0158 36.5276 61.6359 39.6677 61.4806C42.8092 61.3251 45.2382 58.4533 45.0942 55.0659C45.079 54.7057 45.0359 54.3549 44.9651 54.0146Z" fill="#DB314D"/>
<path d="M39.366 42.9541C31.1158 42.9541 25.9597 52.5878 30.0846 60.2948L39.366 77.6355L48.6475 60.2948C49.6438 58.4309 50.099 56.456 50.099 54.5313C50.099 48.4929 45.6217 42.9541 39.366 42.9541ZM39.366 60.2695C36.3034 60.2695 33.8206 57.5914 33.8206 54.2878C33.8206 50.9842 36.3034 48.3061 39.366 48.3061C42.4287 48.3061 44.9115 50.9842 44.9115 54.2878C44.9115 57.5914 42.4287 60.2695 39.366 60.2695Z" fill="#EF3C49"/>
<path d="M241.34 88.4404C240.999 91.3479 238.761 93.6564 235.953 93.7952C233.147 93.9339 230.722 91.8562 230.136 88.9946C230.094 89.3404 230.081 89.6941 230.096 90.0543C230.24 93.4416 232.903 96.0616 236.043 95.9064C239.184 95.7509 241.613 92.879 241.469 89.4917C241.454 89.1317 241.411 88.7809 241.34 88.4404ZM241.34 88.4404C240.999 91.3479 238.761 93.6564 235.953 93.7952C233.147 93.9339 230.722 91.8562 230.136 88.9946C230.094 89.3404 230.081 89.6941 230.096 90.0543C230.24 93.4416 232.903 96.0616 236.043 95.9064C239.184 95.7509 241.613 92.879 241.469 89.4917C241.454 89.1317 241.411 88.7809 241.34 88.4404ZM241.34 88.4404C240.999 91.3479 238.761 93.6564 235.953 93.7952C233.147 93.9339 230.722 91.8562 230.136 88.9946C230.094 89.3404 230.081 89.6941 230.096 90.0543C230.24 93.4416 232.903 96.0616 236.043 95.9064C239.184 95.7509 241.613 92.879 241.469 89.4917C241.454 89.1317 241.411 88.7809 241.34 88.4404Z" fill="#DB314D"/>
<path d="M235.741 77.3794C227.491 77.3794 222.335 87.0131 226.46 94.7201L235.741 112.061L245.023 94.7201C246.019 92.8564 246.474 90.8813 246.474 88.9566C246.474 82.9184 241.997 77.3794 235.741 77.3794ZM235.741 94.6949C232.678 94.6949 230.196 92.0168 230.196 88.7133C230.196 85.4097 232.678 82.7316 235.741 82.7316C238.804 82.7316 241.287 85.4097 241.287 88.7133C241.287 92.0168 238.804 94.6949 235.741 94.6949Z" fill="#EF3C49"/>
</g>
<path d="M233.271 1.30371H42.9648V124.618H233.271V1.30371Z" fill="white"/>
<path d="M233.606 124.977H42.6328V0.944336H233.606V124.977ZM43.2993 124.259H232.939V1.66329H43.2993V124.259Z" fill="#E1E1DF"/>
<path d="M233.275 1.30371H42.9688V11.6638H233.275V1.30371Z" fill="#002548"/>
<path d="M60.9104 6.51806L60.0837 5.73872L59.2181 4.92253L57.5573 3.35667C57.506 3.30832 57.4291 3.30885 57.3785 3.35828L54.0875 6.56623C53.9959 6.65556 54.0551 6.81984 54.1787 6.81895L54.9537 6.81355V9.75783C54.9537 9.8078 54.9913 9.84842 55.0377 9.84842H56.6342V8.64005C56.6342 8.1242 57.0217 7.70631 57.4998 7.70631C57.7391 7.70631 57.955 7.81073 58.1118 7.97987C58.2686 8.149 58.3654 8.38195 58.3654 8.64005V9.84842H59.9624C60.0082 9.84842 60.0459 9.8078 60.0459 9.75783V6.77779L60.8226 6.77239C60.9465 6.77149 61.0035 6.60596 60.9104 6.51806Z" fill="white"/>
<path d="M177.848 8.59559L176.775 7.46145C176.757 7.44168 176.734 7.4309 176.707 7.4309C176.68 7.4309 176.655 7.44168 176.637 7.46325L176.624 7.47763L176.139 6.96358C176.369 6.65802 176.507 6.26979 176.507 5.84561C176.507 4.86964 175.77 4.0752 174.864 4.0752C173.959 4.0752 173.223 4.86964 173.223 5.84561C173.223 6.82339 173.959 7.61782 174.864 7.61782C175.264 7.61782 175.632 7.46145 175.917 7.20443L176.404 7.71848L176.392 7.73286C176.354 7.7742 176.354 7.84249 176.392 7.88383L177.465 9.01797C177.513 9.0683 177.575 9.09527 177.642 9.09527H177.643C177.71 9.09347 177.773 9.06471 177.82 9.01439L177.853 8.97844C177.9 8.92631 177.925 8.85801 177.925 8.78612C177.923 8.71422 177.897 8.64592 177.848 8.59559ZM175.915 6.88449C175.897 6.90426 175.88 6.92404 175.862 6.94381C175.852 6.95459 175.842 6.96357 175.834 6.97256C175.829 6.97616 175.825 6.97976 175.822 6.98336C175.82 6.98515 175.819 6.98694 175.817 6.98874C175.565 7.23318 175.231 7.38237 174.864 7.38237C174.524 7.38237 174.212 7.25475 173.967 7.04086C173.952 7.02648 173.936 7.01211 173.921 6.99773C173.916 6.99233 173.911 6.98875 173.906 6.98336C173.893 6.97077 173.879 6.95819 173.868 6.94381L173.813 6.88449C173.764 6.82698 173.721 6.76586 173.681 6.70295C173.676 6.69577 173.673 6.68859 173.668 6.6796C173.601 6.56816 173.546 6.44774 173.508 6.31833C173.483 6.23205 173.463 6.14218 173.453 6.05052C173.451 6.04153 173.449 6.03254 173.449 6.02535C173.443 5.96604 173.439 5.90673 173.439 5.84561C173.439 5.64071 173.478 5.44479 173.544 5.26506C173.568 5.20754 173.593 5.15182 173.619 5.0979C173.759 4.83009 173.969 4.61082 174.224 4.47242C174.341 4.40951 174.467 4.36278 174.599 4.33582C174.686 4.31964 174.774 4.30886 174.864 4.30886C174.944 4.30886 175.024 4.31605 175.101 4.33043C175.226 4.3538 175.346 4.39333 175.457 4.44905C175.519 4.47961 175.577 4.51376 175.632 4.5515C175.64 4.55869 175.65 4.56408 175.66 4.57127C175.737 4.62879 175.81 4.6935 175.875 4.76539C175.909 4.79954 175.939 4.83728 175.969 4.87503C176.169 5.14104 176.289 5.47895 176.289 5.84561C176.289 6.23025 176.159 6.58073 175.942 6.85034C175.934 6.86112 175.925 6.87191 175.915 6.88449Z" fill="white"/>
<path d="M171.156 8.45699H99.3998C99.0475 8.45699 98.7617 8.14893 98.7617 7.76878V5.39768C98.7617 5.01754 99.0473 4.70947 99.3998 4.70947H171.156C171.508 4.70947 171.794 5.01754 171.794 5.39768V7.76878C171.794 8.14893 171.508 8.45699 171.156 8.45699Z" fill="white"/>
<path d="M222.759 5.15474H215.641C215.49 5.15474 215.367 5.02264 215.367 4.85979V4.72122C215.367 4.55837 215.49 4.42627 215.641 4.42627H222.759C222.91 4.42627 223.032 4.55837 223.032 4.72122V4.85979C223.032 5.02264 222.91 5.15474 222.759 5.15474Z" fill="white"/>
<path d="M222.759 6.94821H215.641C215.49 6.94821 215.367 6.81609 215.367 6.65325V6.51467C215.367 6.35183 215.49 6.21973 215.641 6.21973H222.759C222.91 6.21973 223.032 6.35183 223.032 6.51467V6.65325C223.032 6.81609 222.91 6.94821 222.759 6.94821Z" fill="white"/>
<path d="M222.759 8.74019H215.641C215.49 8.74019 215.367 8.60809 215.367 8.44524V8.30667C215.367 8.14382 215.49 8.01172 215.641 8.01172H222.759C222.91 8.01172 223.032 8.14382 223.032 8.30667V8.44524C223.032 8.60809 222.91 8.74019 222.759 8.74019Z" fill="white"/>
<path d="M168.045 20.4282H166.41V114.996H168.045V20.4282Z" fill="#E1E1DF"/>
<path d="M180.783 38.4635C183.301 38.4635 185.342 36.2614 185.342 33.545C185.342 30.8286 183.301 28.6265 180.783 28.6265C178.264 28.6265 176.223 30.8286 176.223 33.545C176.223 36.2614 178.264 38.4635 180.783 38.4635Z" fill="#E1E1DF"/>
<path d="M222.515 31.0581H187.539V32.4635H222.515V31.0581Z" fill="#E1E1DF"/>
<path d="M205.678 34.625H187.539V36.0304H205.678V34.625Z" fill="#E1E1DF"/>
<path d="M180.783 52.1315C183.301 52.1315 185.342 49.9294 185.342 47.213C185.342 44.4965 183.301 42.2944 180.783 42.2944C178.264 42.2944 176.223 44.4965 176.223 47.213C176.223 49.9294 178.264 52.1315 180.783 52.1315Z" fill="#E1E1DF"/>
<path d="M222.515 44.7261H187.539V46.1314H222.515V44.7261Z" fill="#E1E1DF"/>
<path d="M205.678 48.293H187.539V49.6983H205.678V48.293Z" fill="#E1E1DF"/>
<path d="M180.783 65.7994C183.301 65.7994 185.342 63.5973 185.342 60.8809C185.342 58.1645 183.301 55.9624 180.783 55.9624C178.264 55.9624 176.223 58.1645 176.223 60.8809C176.223 63.5973 178.264 65.7994 180.783 65.7994Z" fill="#E1E1DF"/>
<path d="M222.515 58.394H187.539V59.7994H222.515V58.394Z" fill="#E1E1DF"/>
<path d="M205.678 61.9609H187.539V63.3663H205.678V61.9609Z" fill="#E1E1DF"/>
<path d="M180.783 79.4637C183.301 79.4637 185.342 77.2616 185.342 74.5452C185.342 71.8288 183.301 69.6267 180.783 69.6267C178.264 69.6267 176.223 71.8288 176.223 74.5452C176.223 77.2616 178.264 79.4637 180.783 79.4637Z" fill="#E1E1DF"/>
<path d="M222.515 72.0613H187.539V73.4667H222.515V72.0613Z" fill="#E1E1DF"/>
<path d="M205.678 75.6282H187.539V77.0335H205.678V75.6282Z" fill="#E1E1DF"/>
<path d="M180.783 93.1317C183.301 93.1317 185.342 90.9296 185.342 88.2132C185.342 85.4968 183.301 83.2947 180.783 83.2947C178.264 83.2947 176.223 85.4968 176.223 88.2132C176.223 90.9296 178.264 93.1317 180.783 93.1317Z" fill="#E1E1DF"/>
<path d="M222.515 85.7288H187.539V87.1341H222.515V85.7288Z" fill="#E1E1DF"/>
<path d="M205.678 89.2957H187.539V90.701H205.678V89.2957Z" fill="#E1E1DF"/>
<path d="M180.783 106.8C183.301 106.8 185.342 104.598 185.342 101.881C185.342 99.1647 183.301 96.9626 180.783 96.9626C178.264 96.9626 176.223 99.1647 176.223 101.881C176.223 104.598 178.264 106.8 180.783 106.8Z" fill="#E1E1DF"/>
<path d="M222.515 99.3938H187.539V100.799H222.515V99.3938Z" fill="#E1E1DF"/>
<path d="M205.678 102.963H187.539V104.368H205.678V102.963Z" fill="#E1E1DF"/>
<path d="M154.759 16.8008H74.0195V39.8325H154.759V16.8008Z" fill="white"/>
<path d="M73.8594 16.688V39.9424H154.932V16.688H73.8594ZM154.597 39.7195H74.1943V16.9109H154.597V39.7195Z" fill="#C4C4C4"/>
<path d="M149.391 34.7338C149.352 34.6781 149.296 34.6457 149.232 34.6457H146.165L145.99 33.9933C145.973 33.9466 145.931 33.916 145.886 33.916H145.308C145.27 33.916 145.238 33.9502 145.238 33.9951V34.1389C145.238 34.182 145.27 34.218 145.308 34.218H145.701C145.748 34.218 145.788 34.2485 145.806 34.2971L146.538 37.0057C146.556 37.0542 146.6 37.0884 146.648 37.0884H146.668C146.621 37.1405 146.593 37.216 146.593 37.2951C146.593 37.464 146.713 37.5988 146.861 37.5988C147.011 37.5988 147.131 37.464 147.131 37.2951C147.131 37.216 147.103 37.1405 147.058 37.0884H148.086C148.039 37.1405 148.011 37.216 148.011 37.2951C148.011 37.464 148.131 37.5988 148.281 37.5988C148.429 37.5988 148.551 37.464 148.551 37.2951C148.551 37.216 148.523 37.1405 148.476 37.0884H148.483C148.523 37.0884 148.553 37.0524 148.553 37.0093V36.9194C148.553 36.8745 148.523 36.8403 148.483 36.8403H146.843C146.796 36.8403 146.753 36.808 146.735 36.7577L146.678 36.5492H148.799C148.882 36.5492 148.956 36.4898 148.982 36.4018L149.416 34.9279C149.436 34.8614 149.426 34.7913 149.391 34.7338ZM148.231 34.8057H148.914L148.681 35.5462H148.208L148.231 34.8057ZM147.479 34.8057L147.499 35.5462H146.958L146.735 34.8057H147.479ZM146.208 34.8057H146.64L146.863 35.5462H146.408L146.208 34.8057ZM146.636 36.3892L146.436 35.6469H146.893L147.116 36.3892H146.636ZM147.21 36.3892L146.988 35.6469H147.501L147.521 36.3892H147.21ZM148.093 36.3892H147.609L147.591 35.6469H148.116L148.093 36.3892ZM148.118 35.5462H147.589L147.569 34.8057H148.141L148.118 35.5462ZM148.183 36.3892L148.204 35.6469H148.649L148.414 36.3892H148.183ZM148.846 36.3515C148.841 36.373 148.821 36.3892 148.799 36.3892H148.508L148.742 35.6469H149.054L148.846 36.3515ZM149.281 34.8776L149.084 35.5462H148.774L149.009 34.8057H149.232C149.249 34.8057 149.264 34.8129 149.274 34.8273C149.282 34.8435 149.286 34.8614 149.281 34.8776Z" fill="#002548"/>
<path d="M142.693 34.3318C142.499 34.1221 142.244 34.0171 141.989 34.0171C141.734 34.0171 141.479 34.1221 141.284 34.3318L141.17 34.4549L141.056 34.3318C140.862 34.1221 140.607 34.0171 140.352 34.0171C140.097 34.0171 139.842 34.1221 139.647 34.3318C139.258 34.7515 139.258 35.4318 139.647 35.8515L141.17 37.4943L142.579 35.9746L142.693 35.8515C143.082 35.4318 143.082 34.7515 142.693 34.3318Z" fill="#ED1C24"/>
<path d="M133.037 20.2759H78.2695V21.3874H133.037V20.2759Z" fill="#E1E1DF"/>
<path d="M118.527 23.3464H78.2695V24.4579H118.527V23.3464Z" fill="#E1E1DF"/>
<path d="M123.103 26.4121H78.2695V27.5236H123.103V26.4121Z" fill="#E1E1DF"/>
<path d="M111.803 35.2002H78.2695V36.3117H111.803V35.2002Z" fill="#E1E1DF"/>
<path d="M74.0345 16.801H53.3398V39.8327H74.0345V16.801Z" fill="white"/>
<path d="M53.2422 16.6882V39.9427H74.1442V16.6882H53.2422ZM73.9376 39.7198H53.4488V16.9111H73.9376V39.7198Z" fill="#C4C4C4"/>
<path d="M72.0375 26.0491L69.5632 28.3628C69.5299 28.3934 69.48 28.3889 69.4517 28.353L68.4491 27.0768C68.4474 27.075 68.4449 27.0759 68.4449 27.0786V38.2428C68.4449 38.2653 68.4283 38.2833 68.4076 38.2833H59.0652C59.0443 38.2833 59.0277 38.2653 59.0277 38.2428L59.0385 27.2141C59.0385 27.2115 59.036 27.2106 59.0343 27.2123L58.0799 28.3583C58.0524 28.3925 58.0042 28.3961 57.9717 28.3673L55.3453 26.0491C55.312 26.0203 55.307 25.9684 55.3328 25.9315L58.5336 21.4593C58.8014 21.0853 59.1488 20.7876 59.5471 20.5912C60.1398 20.3005 61.0029 19.8676 61.3445 19.6585C61.4518 19.5922 61.5798 19.5805 61.6954 19.6271C63.7531 20.4584 65.327 19.8746 65.8357 19.6325C65.952 19.5769 66.0843 19.5814 66.1973 19.6441L67.8941 20.5912C68.2417 20.7849 68.5459 21.0583 68.7862 21.3921L72.0478 25.9335C72.074 25.9693 72.0691 26.0205 72.0375 26.0491Z" fill="#ED1C24"/>
<path d="M66.2004 19.644C65.7647 22.4993 63.9358 22.589 63.6107 22.5209C61.6078 22.2303 61.3477 19.6584 61.3477 19.6584C61.455 19.5921 61.5829 19.5804 61.6986 19.627C63.7563 20.4583 65.3301 19.8745 65.8388 19.6324C65.9551 19.5766 66.0873 19.5811 66.2004 19.644Z" fill="#F48C9B"/>
<path d="M154.762 43.1082H74.2109V66.1399H154.762V43.1082Z" fill="white"/>
<path d="M74.043 43V66.2544H154.928V43H74.043ZM154.594 66.0315H74.3779V43.2211H154.594V66.0315Z" fill="#C4C4C4"/>
<path d="M149.479 61.0427C149.442 60.9852 149.386 60.9529 149.322 60.9529H146.255L146.08 60.3022C146.061 60.2555 146.02 60.2231 145.975 60.2231H145.398C145.36 60.2231 145.328 60.2573 145.328 60.3022V60.446C145.328 60.4892 145.36 60.5251 145.398 60.5251H145.791C145.836 60.5251 145.878 60.5557 145.896 60.6024L146.626 63.3128C146.646 63.3632 146.689 63.3955 146.738 63.3955H146.756C146.709 63.4494 146.681 63.5231 146.681 63.604C146.681 63.7694 146.801 63.906 146.951 63.906C147.101 63.906 147.219 63.7694 147.219 63.604C147.219 63.5231 147.191 63.4494 147.146 63.3955H148.176C148.129 63.4494 148.101 63.5231 148.101 63.604C148.101 63.7694 148.221 63.906 148.369 63.906C148.519 63.906 148.639 63.7694 148.639 63.604C148.639 63.5231 148.611 63.4494 148.566 63.3955H148.571C148.611 63.3955 148.641 63.3596 148.641 63.3164V63.2266C148.641 63.1834 148.611 63.1475 148.571 63.1475H146.933C146.886 63.1475 146.843 63.1151 146.824 63.0666L146.768 62.8581H148.887C148.972 62.8581 149.044 62.7988 149.071 62.7089L149.506 61.2369C149.524 61.1704 149.516 61.0985 149.479 61.0427ZM148.319 61.1146H149.002L148.769 61.8552H148.297L148.319 61.1146ZM147.569 61.1146L147.588 61.8552H147.046L146.823 61.1146H147.569ZM146.298 61.1146H146.728L146.951 61.8552H146.496L146.298 61.1146ZM146.724 62.6963L146.525 61.9558H146.981L147.206 62.6963H146.724ZM147.299 62.6963L147.076 61.9558H147.591L147.611 62.6963H147.299ZM148.182 62.6963H147.699L147.681 61.9558H148.204L148.182 62.6963ZM148.207 61.8552H147.678L147.658 61.1146H148.231L148.207 61.8552ZM148.272 62.6963L148.294 61.9558H148.737L148.502 62.6963H148.272ZM148.936 62.6604C148.929 62.682 148.909 62.6963 148.887 62.6963H148.597L148.832 61.9558H149.144L148.936 62.6604ZM149.369 61.1865L149.172 61.8552H148.864L149.099 61.1146H149.322C149.339 61.1146 149.352 61.1218 149.362 61.1362C149.372 61.1506 149.376 61.1686 149.369 61.1865Z" fill="#002548"/>
<path d="M142.795 60.6421C142.6 60.4324 142.345 60.3274 142.09 60.3274C141.835 60.3274 141.58 60.4324 141.386 60.6421L141.272 60.7651L141.158 60.6421C140.963 60.4324 140.708 60.3274 140.453 60.3274C140.198 60.3274 139.943 60.4324 139.749 60.6421C139.36 61.0618 139.36 61.7421 139.749 62.1618L141.272 63.8046L142.681 62.2849L142.795 62.1618C143.184 61.7421 143.184 61.0616 142.795 60.6421Z" fill="#ED1C24"/>
<path d="M133.139 46.5864H78.3711V47.6979H133.139V46.5864Z" fill="#E1E1DF"/>
<path d="M118.629 49.6545H78.3711V50.766H118.629V49.6545Z" fill="#E1E1DF"/>
<path d="M123.204 52.7231H78.3711V53.8346H123.204V52.7231Z" fill="#E1E1DF"/>
<path d="M111.905 61.5112H78.3711V62.6227H111.905V61.5112Z" fill="#E1E1DF"/>
<path d="M74.0384 43.1079H53.3438V66.1396H74.0384V43.1079Z" fill="white"/>
<path d="M53.2422 42.9995V66.2539H74.1442V42.9995H53.2422ZM73.9376 66.0311H53.4488V43.2206H73.9376V66.0311Z" fill="#C4C4C4"/>
<path d="M58.4766 55.3859H57.6247C57.5538 55.3859 57.4961 55.3239 57.4961 55.2472C57.4961 55.1706 57.5536 55.1084 57.6247 55.1084H58.4766V55.3859Z" fill="#323433"/>
<path d="M68.9062 55.3859H69.7581C69.829 55.3859 69.8867 55.3239 69.8867 55.2472C69.8867 55.1706 69.829 55.1084 69.7581 55.1084H68.9062V55.3859Z" fill="#323433"/>
<path d="M63.0195 54.7278L63.0609 55.0233C63.0609 55.0233 63.5807 54.3644 64.3402 54.9625C64.3522 54.9798 64.4046 54.728 64.4046 54.728C64.4046 54.728 63.7804 54.1767 63.0195 54.7278Z" fill="#323433"/>
<path d="M60.7751 57.7242C62.0445 57.7242 63.0736 56.6142 63.0736 55.2449C63.0736 53.8756 62.0445 52.7656 60.7751 52.7656C59.5056 52.7656 58.4766 53.8756 58.4766 55.2449C58.4766 56.6142 59.5056 57.7242 60.7751 57.7242Z" fill="#323433"/>
<path d="M66.6032 57.7237C67.8726 57.7237 68.9017 56.6137 68.9017 55.2444C68.9017 53.8752 67.8726 52.7651 66.6032 52.7651C65.3338 52.7651 64.3047 53.8752 64.3047 55.2444C64.3047 56.6137 65.3338 57.7237 66.6032 57.7237Z" fill="#323433"/>
<path d="M154.61 95.7222H74.0195V118.754H154.61V95.7222Z" fill="white"/>
<path d="M73.8594 95.6089V118.863H154.783V95.6089H73.8594ZM154.448 118.64H74.1943V95.8318H154.448V118.64Z" fill="#C4C4C4"/>
<path d="M150.131 113.657C150.095 113.599 150.036 113.567 149.975 113.567H146.907L146.732 112.916C146.714 112.867 146.674 112.837 146.627 112.837H146.05C146.01 112.837 145.98 112.873 145.98 112.916V113.062C145.98 113.105 146.01 113.141 146.05 113.141H146.444C146.489 113.141 146.53 113.171 146.547 113.218L147.28 115.927C147.298 115.977 147.342 116.009 147.388 116.009H147.408C147.362 116.063 147.334 116.137 147.334 116.218C147.334 116.385 147.455 116.52 147.603 116.52C147.752 116.52 147.873 116.385 147.873 116.218C147.873 116.137 147.845 116.063 147.798 116.009H148.827C148.78 116.063 148.752 116.137 148.752 116.218C148.752 116.385 148.873 116.52 149.023 116.52C149.17 116.52 149.291 116.385 149.291 116.218C149.291 116.137 149.263 116.063 149.216 116.009H149.225C149.263 116.009 149.295 115.973 149.295 115.93V115.842C149.295 115.797 149.263 115.763 149.225 115.763H147.585C147.537 115.763 147.493 115.731 147.475 115.68L147.418 115.472H149.541C149.623 115.472 149.696 115.413 149.723 115.324L150.156 113.851C150.178 113.784 150.166 113.714 150.131 113.657ZM148.971 113.728H149.656L149.421 114.469H148.95L148.971 113.728ZM148.222 113.728L148.242 114.469H147.698L147.475 113.728H148.222ZM146.95 113.728H147.382L147.603 114.469H147.15L146.95 113.728ZM147.377 115.312L147.177 114.57H147.633L147.857 115.312H147.377ZM147.952 115.312L147.728 114.57H148.242L148.262 115.312H147.952ZM148.835 115.312H148.352L148.332 114.57H148.857L148.835 115.312ZM148.86 114.469H148.33L148.312 113.728H148.881L148.86 114.469ZM148.923 115.312L148.946 114.57H149.39L149.155 115.312H148.923ZM149.588 115.274C149.581 115.296 149.561 115.312 149.541 115.312H149.25L149.485 114.57H149.795L149.588 115.274ZM150.023 113.8L149.825 114.469H149.515L149.75 113.728H149.975C149.991 113.728 150.006 113.736 150.015 113.75C150.023 113.766 150.026 113.782 150.023 113.8Z" fill="#002548"/>
<path d="M143.447 113.254C143.253 113.044 142.998 112.939 142.743 112.939C142.488 112.939 142.233 113.044 142.038 113.254L141.924 113.377L141.81 113.254C141.615 113.044 141.36 112.939 141.106 112.939C140.851 112.939 140.596 113.044 140.401 113.254C140.012 113.673 140.012 114.354 140.401 114.773L141.924 116.416L143.333 114.896L143.447 114.773C143.836 114.354 143.836 113.673 143.447 113.254Z" fill="#ED1C24"/>
<path d="M133.791 99.1992H79.0234V100.311H133.791V99.1992Z" fill="#E1E1DF"/>
<path d="M119.281 102.266H79.0234V103.377H119.281V102.266Z" fill="#E1E1DF"/>
<path d="M123.857 105.335H79.0234V106.447H123.857V105.335Z" fill="#E1E1DF"/>
<path d="M112.557 114.124H79.0234V115.235H112.557V114.124Z" fill="#E1E1DF"/>
<path d="M74.0345 95.7227H53.3398V118.754H74.0345V95.7227Z" fill="white"/>
<path d="M53.2422 95.6094V118.864H74.1442V95.6094H53.2422ZM73.9376 118.641H53.4488V95.8322H73.9376V118.641Z" fill="#C4C4C4"/>
<path d="M60.9023 103.278C60.9023 103.278 61.1396 101.833 61.2414 99.4439C61.2504 99.2331 61.3926 99.0674 61.5657 99.0674H65.4243C65.8471 99.0674 65.9882 99.2275 66.0006 99.4346C66.0592 100.42 66.2452 103.065 66.5634 103.317C66.6174 103.323 60.9023 103.278 60.9023 103.278Z" fill="#323433"/>
<path d="M60.9062 111.413C60.9062 111.413 61.1435 112.859 61.2452 115.247C61.2542 115.458 61.3963 115.624 61.5694 115.624H65.4281C65.8508 115.624 65.992 115.464 66.0043 115.257C66.063 114.271 66.2491 111.626 66.5672 111.375C66.6215 111.368 60.9062 111.413 60.9062 111.413Z" fill="#323433"/>
<path d="M63.7305 112.577C66.4187 112.577 68.5978 110.226 68.5978 107.327C68.5978 104.427 66.4187 102.077 63.7305 102.077C61.0424 102.077 58.8633 104.427 58.8633 107.327C58.8633 110.226 61.0424 112.577 63.7305 112.577Z" fill="#323433"/>
<path d="M63.7374 112.147C66.2049 112.147 68.2052 109.99 68.2052 107.328C68.2052 104.666 66.2049 102.509 63.7374 102.509C61.2699 102.509 59.2695 104.666 59.2695 107.328C59.2695 109.99 61.2699 112.147 63.7374 112.147Z" fill="#F7F4F0"/>
<path d="M63.7318 107.645C63.8943 107.645 64.026 107.503 64.026 107.327C64.026 107.152 63.8943 107.01 63.7318 107.01C63.5692 107.01 63.4375 107.152 63.4375 107.327C63.4375 107.503 63.5692 107.645 63.7318 107.645Z" fill="#002548"/>
<path d="M64.0117 107.186C64.0084 107.177 64.005 107.17 64.0017 107.163C63.9984 107.156 63.9934 107.148 63.9917 107.143C63.9584 107.087 63.91 107.044 63.8551 107.019C63.8467 107.014 63.8401 107.01 63.8317 107.008C63.8234 107.005 63.8167 107.003 63.8084 107.001C63.7817 106.992 63.7551 106.987 63.7268 106.987C63.6718 106.987 63.6184 107.003 63.5735 107.032C63.5668 107.033 63.5601 107.037 63.5551 107.042H63.5535C63.5451 107.049 63.5401 107.053 63.5335 107.058C63.4651 107.114 63.4185 107.2 63.4118 107.298C63.4102 107.307 63.4102 107.315 63.4102 107.326V107.328C63.4102 107.337 63.4102 107.346 63.4118 107.357C63.4252 107.531 63.5601 107.67 63.7268 107.67C63.9001 107.67 64.0417 107.517 64.0417 107.328C64.0417 107.278 64.0317 107.229 64.0117 107.186ZM63.7268 107.623C63.6001 107.623 63.4918 107.528 63.4618 107.4C63.4585 107.389 63.4568 107.378 63.4568 107.368V107.366C63.4552 107.355 63.4535 107.344 63.4535 107.332V107.328C63.4535 107.229 63.4985 107.141 63.5701 107.087C63.5768 107.082 63.5835 107.078 63.5901 107.075C63.5968 107.069 63.6034 107.066 63.6101 107.064C63.6451 107.044 63.6851 107.033 63.7268 107.033C63.7418 107.033 63.7551 107.035 63.7701 107.039C63.7784 107.039 63.7867 107.04 63.7951 107.046C63.8034 107.046 63.8117 107.049 63.8201 107.053C63.8767 107.076 63.9267 107.12 63.9584 107.175C63.9617 107.181 63.965 107.19 63.9684 107.195C63.9734 107.204 63.9767 107.209 63.9784 107.218C63.9917 107.253 63.9984 107.289 63.9984 107.328C63.9984 107.49 63.8751 107.623 63.7268 107.623Z" fill="#002548"/>
<path d="M63.7388 107.198L63.5558 107.447L62.2549 106.333C62.1913 106.278 62.1806 106.178 62.2311 106.11C62.2816 106.041 62.3742 106.029 62.4379 106.084L63.7388 107.198Z" fill="#002548"/>
<path d="M63.6129 107.064L63.5945 107.047L63.5929 107.046L63.5762 107.031L62.4481 106.066C62.3765 106.003 62.2698 106.016 62.2115 106.095C62.1549 106.174 62.1665 106.287 62.2398 106.35L63.4146 107.357L63.4396 107.378L63.4646 107.4L63.5579 107.479L63.7662 107.193L63.6129 107.064ZM63.4562 107.331L63.4362 107.317L63.4346 107.315L63.4146 107.297L62.2665 106.314C62.2132 106.267 62.2032 106.183 62.2448 106.124C62.2715 106.091 62.3065 106.073 62.3431 106.073C62.3715 106.073 62.3998 106.082 62.4215 106.102L63.5362 107.058L63.5545 107.073L63.5729 107.087L63.7045 107.202L63.5495 107.412L63.4562 107.331Z" fill="#002548"/>
<path d="M63.9197 107.252L63.7695 107.078L66.4519 104.39C66.4966 104.345 66.5664 104.348 66.6077 104.396C66.6492 104.445 66.6466 104.52 66.6019 104.565L63.9197 107.252Z" fill="#002548"/>
<path d="M66.641 104.401L66.6077 104.363C66.5893 104.34 66.5627 104.327 66.5327 104.326C66.5043 104.326 66.476 104.335 66.456 104.358L63.8166 107.002L63.7983 107.02L63.7783 107.04L63.7383 107.079L63.9199 107.286L63.9866 107.219L64.0032 107.203L64.0199 107.187L66.6343 104.567C66.6776 104.522 66.681 104.448 66.641 104.401ZM66.606 104.532L63.9999 107.144L63.9832 107.16L63.9666 107.176L63.9216 107.221L63.8016 107.081L63.8283 107.054L63.8466 107.036H63.8483V107.034H63.8499L63.8633 107.02L66.486 104.392C66.4977 104.38 66.5143 104.372 66.5327 104.374C66.5477 104.374 66.5643 104.381 66.5777 104.396L66.6077 104.434C66.6343 104.46 66.631 104.505 66.606 104.532Z" fill="#002548"/>
<path d="M63.7653 111.954C63.7073 111.954 63.6602 111.903 63.6602 111.841V111.251C63.6602 111.188 63.7071 111.137 63.7653 111.137C63.8233 111.137 63.8704 111.188 63.8704 111.251V111.841C63.8704 111.903 63.8235 111.954 63.7653 111.954Z" fill="#002548"/>
<path d="M63.7595 111.113C63.6911 111.113 63.6328 111.174 63.6328 111.251V111.84C63.6328 111.916 63.6911 111.977 63.7595 111.977C63.8294 111.977 63.8861 111.916 63.8861 111.84V111.251C63.8861 111.174 63.8294 111.113 63.7595 111.113ZM63.8428 111.84C63.8428 111.891 63.8061 111.93 63.7595 111.93C63.7145 111.93 63.6778 111.891 63.6778 111.84V111.251C63.6778 111.202 63.7145 111.161 63.7595 111.161C63.8061 111.161 63.8428 111.202 63.8428 111.251V111.84Z" fill="#002548"/>
<path d="M63.7653 103.47C63.7073 103.47 63.6602 103.42 63.6602 103.357V102.767C63.6602 102.705 63.7072 102.654 63.7653 102.654C63.8233 102.654 63.8704 102.704 63.8704 102.767V103.357C63.8704 103.42 63.8233 103.47 63.7653 103.47Z" fill="#002548"/>
<path d="M63.7595 102.629C63.6911 102.629 63.6328 102.691 63.6328 102.768V103.357C63.6328 103.433 63.6911 103.494 63.7595 103.494C63.8294 103.494 63.8878 103.433 63.8878 103.357V102.768C63.8878 102.691 63.8294 102.629 63.7595 102.629ZM63.8428 103.357C63.8428 103.408 63.8061 103.447 63.7595 103.447C63.7145 103.447 63.6778 103.408 63.6778 103.357V102.768C63.6778 102.719 63.7145 102.678 63.7595 102.678C63.8061 102.678 63.8428 102.719 63.8428 102.768V103.357Z" fill="#002548"/>
<path d="M66.9359 110.47C66.8969 110.517 66.8304 110.52 66.7874 110.478L66.3822 110.082C66.3392 110.04 66.3359 109.969 66.3749 109.922C66.4139 109.876 66.4803 109.872 66.5233 109.914L66.9286 110.31C66.9716 110.352 66.9749 110.424 66.9359 110.47Z" fill="#002548"/>
<path d="M66.937 110.292L66.5321 109.896C66.4804 109.844 66.4005 109.85 66.3538 109.905C66.3305 109.932 66.3188 109.968 66.3205 110.004C66.3221 110.042 66.3371 110.074 66.3621 110.1L66.767 110.495C66.7904 110.517 66.8204 110.531 66.852 110.531H66.8587C66.892 110.529 66.9237 110.513 66.947 110.484C66.9703 110.457 66.9803 110.423 66.9787 110.387C66.977 110.349 66.962 110.315 66.937 110.292ZM66.797 110.459L66.3921 110.064C66.3755 110.047 66.3655 110.026 66.3638 110.001C66.3638 109.979 66.3705 109.954 66.3855 109.938C66.4021 109.918 66.4254 109.907 66.4471 109.907C66.4671 109.907 66.4871 109.916 66.5021 109.931L66.9087 110.328C66.9253 110.344 66.9337 110.366 66.9353 110.389V110.394C66.9353 110.416 66.9287 110.438 66.9153 110.454C66.9003 110.472 66.8787 110.482 66.857 110.484C66.8337 110.484 66.8137 110.475 66.797 110.459Z" fill="#002548"/>
<path d="M61.1039 104.778C61.0649 104.824 60.9984 104.828 60.9554 104.786L60.5502 104.39C60.5072 104.348 60.5038 104.276 60.5428 104.23C60.5818 104.184 60.6483 104.18 60.6913 104.222L61.0965 104.618C61.1395 104.66 61.1429 104.731 61.1039 104.778Z" fill="#002548"/>
<path d="M61.1066 104.598L60.7017 104.205C60.6484 104.152 60.5684 104.158 60.5218 104.214C60.4734 104.267 60.4785 104.356 60.5301 104.408L60.935 104.801C60.96 104.826 60.99 104.837 61.0217 104.837C61.055 104.837 61.09 104.823 61.115 104.792C61.1616 104.737 61.1583 104.65 61.1066 104.598ZM60.965 104.767L60.5584 104.372C60.5251 104.338 60.5234 104.282 60.5534 104.244C60.5684 104.226 60.5884 104.217 60.6118 104.215H60.6168C60.6351 104.215 60.6567 104.223 60.6717 104.237L61.0767 104.634C61.11 104.667 61.1133 104.724 61.0817 104.762C61.0667 104.78 61.0467 104.789 61.0233 104.791C61.0017 104.791 60.98 104.783 60.965 104.767Z" fill="#002548"/>
<path d="M68.05 107.396C68.05 107.458 68.003 107.509 67.9448 107.509H67.3981C67.3401 107.509 67.293 107.458 67.293 107.396C67.293 107.333 67.34 107.282 67.3981 107.282H67.9448C68.0028 107.282 68.05 107.333 68.05 107.396Z" fill="#002548"/>
<path d="M67.9466 107.259H67.4017C67.3301 107.259 67.2734 107.32 67.2734 107.395C67.2734 107.471 67.3301 107.534 67.4017 107.534H67.9466C68.0166 107.534 68.0733 107.471 68.0733 107.395C68.0733 107.32 68.0166 107.259 67.9466 107.259ZM67.9466 107.485H67.4017C67.3551 107.485 67.3168 107.444 67.3168 107.395C67.3168 107.345 67.3551 107.306 67.4017 107.306H67.9466C67.9933 107.306 68.0299 107.345 68.0299 107.395C68.0299 107.444 67.9933 107.485 67.9466 107.485Z" fill="#002548"/>
<path d="M60.1828 107.396C60.1828 107.458 60.1358 107.509 60.0776 107.509H59.5309C59.4729 107.509 59.4258 107.458 59.4258 107.396C59.4258 107.333 59.4728 107.282 59.5309 107.282H60.0776C60.1358 107.282 60.1828 107.333 60.1828 107.396Z" fill="#002548"/>
<path d="M60.0833 107.259H59.5368C59.4685 107.259 59.4102 107.32 59.4102 107.395C59.4102 107.471 59.4685 107.534 59.5368 107.534H60.0833C60.1533 107.534 60.21 107.471 60.21 107.395C60.21 107.32 60.1533 107.259 60.0833 107.259ZM60.0833 107.485H59.5368C59.4918 107.485 59.4535 107.444 59.4535 107.395C59.4535 107.345 59.4918 107.306 59.5368 107.306H60.0833C60.13 107.306 60.1667 107.345 60.1667 107.395C60.1667 107.444 60.13 107.485 60.0833 107.485Z" fill="#002548"/>
<path d="M66.5035 103.814C66.5465 103.856 66.5499 103.928 66.5109 103.974L66.1439 104.411C66.105 104.458 66.0385 104.461 65.9955 104.419C65.9525 104.377 65.9492 104.305 65.9881 104.259L66.3551 103.822C66.3941 103.775 66.4605 103.772 66.5035 103.814Z" fill="#002548"/>
<path d="M66.5208 103.797C66.4958 103.772 66.4625 103.759 66.4308 103.761C66.3958 103.763 66.3641 103.779 66.3425 103.806L65.9742 104.243C65.9276 104.3 65.9309 104.386 65.9826 104.437C66.0076 104.46 66.0392 104.473 66.0676 104.473C66.1025 104.473 66.1375 104.458 66.1625 104.426L66.5308 103.989C66.5758 103.935 66.5741 103.849 66.5208 103.797ZM66.0126 104.403C65.9792 104.368 65.9759 104.313 66.0076 104.275L66.3725 103.838C66.3875 103.82 66.4091 103.809 66.4308 103.809H66.4358C66.4575 103.809 66.4758 103.817 66.4908 103.833C66.5074 103.849 66.5174 103.871 66.5174 103.894C66.5191 103.917 66.5124 103.942 66.4974 103.959L66.1309 104.395C66.0992 104.433 66.0476 104.435 66.0126 104.403Z" fill="#002548"/>
<path d="M61.2301 110.101C61.2731 110.143 61.2764 110.215 61.2374 110.262L60.8705 110.699C60.8315 110.745 60.765 110.749 60.722 110.707C60.679 110.664 60.6757 110.593 60.7147 110.546L61.0816 110.109C61.1206 110.063 61.1871 110.059 61.2301 110.101Z" fill="#002548"/>
<path d="M61.2404 110.082C61.2137 110.059 61.1821 110.046 61.1487 110.046C61.1137 110.048 61.0837 110.064 61.0604 110.093L60.6922 110.53C60.6472 110.586 60.6488 110.672 60.7022 110.722C60.7255 110.746 60.7555 110.758 60.7871 110.758H60.7938C60.8271 110.756 60.8588 110.74 60.8804 110.713L61.2487 110.276C61.272 110.249 61.2837 110.214 61.282 110.178C61.2804 110.142 61.2654 110.107 61.2404 110.082ZM60.7322 110.688C60.6972 110.656 60.6938 110.596 60.7255 110.562L61.0921 110.124C61.1071 110.106 61.1271 110.095 61.1504 110.095H61.1554C61.1754 110.095 61.1954 110.102 61.2104 110.118C61.2437 110.151 61.247 110.206 61.2154 110.244L60.8488 110.681C60.8355 110.699 60.8138 110.71 60.7921 110.711C60.7688 110.711 60.7488 110.704 60.7322 110.688Z" fill="#002548"/>
<path d="M154.759 69.415H74.0195V92.4468H154.759V69.415Z" fill="white"/>
<path d="M73.8594 69.3052V92.5578H154.932V69.3052H73.8594ZM154.597 92.3367H74.1943V69.5262H154.597V92.3367Z" fill="#C4C4C4"/>
<path d="M149.393 87.3515C149.356 87.2958 149.3 87.2634 149.236 87.2634H146.169L145.994 86.6128C145.975 86.5642 145.935 86.5337 145.889 86.5337H145.312C145.274 86.5337 145.242 86.5678 145.242 86.6128V86.7566C145.242 86.7997 145.274 86.8338 145.312 86.8338H145.705C145.752 86.8338 145.794 86.8644 145.81 86.9129L146.542 89.6234C146.56 89.6737 146.604 89.706 146.652 89.706H146.67C146.625 89.76 146.597 89.8319 146.597 89.9127C146.597 90.0817 146.717 90.2165 146.865 90.2165C147.015 90.2165 147.135 90.0817 147.135 89.9127C147.135 89.8319 147.107 89.76 147.06 89.706H148.088C148.043 89.76 148.015 89.8319 148.015 89.9127C148.015 90.0817 148.135 90.2165 148.285 90.2165C148.433 90.2165 148.553 90.0817 148.553 89.9127C148.553 89.8319 148.525 89.76 148.48 89.706H148.486C148.525 89.706 148.556 89.6701 148.556 89.627V89.5371C148.556 89.494 148.525 89.458 148.486 89.458H146.847C146.8 89.458 146.757 89.4257 146.739 89.3753L146.684 89.1668H148.803C148.885 89.1668 148.958 89.1075 148.986 89.0195L149.421 87.5474C149.44 87.4791 149.43 87.4108 149.393 87.3515ZM148.233 87.4234H148.918L148.683 88.1639H148.212L148.233 87.4234ZM147.483 87.4234L147.503 88.1639H146.96L146.739 87.4234H147.483ZM146.212 87.4234H146.644L146.867 88.1639H146.412L146.212 87.4234ZM146.64 89.0069L146.439 88.2663H146.897L147.118 89.0069H146.64ZM147.213 89.0069L146.99 88.2663H147.507L147.523 89.0069H147.213ZM148.097 89.0069H147.613L147.595 88.2663H148.118L148.097 89.0069ZM148.122 88.1639H147.593L147.573 87.4234H148.145L148.122 88.1639ZM148.187 89.0069L148.208 88.2663H148.653L148.418 89.0069H148.187ZM148.85 88.9691C148.843 88.9907 148.825 89.0069 148.803 89.0069H148.511L148.746 88.2663H149.058L148.85 88.9691ZM149.285 87.4953L149.088 88.1639H148.778L149.013 87.4234H149.236C149.253 87.4234 149.268 87.4306 149.276 87.445C149.286 87.4611 149.29 87.4791 149.285 87.4953Z" fill="#002548"/>
<path d="M142.693 86.95C142.499 86.7402 142.244 86.6353 141.989 86.6353C141.734 86.6353 141.479 86.7402 141.284 86.95L141.17 87.0729L141.056 86.95C140.862 86.7402 140.607 86.6353 140.352 86.6353C140.097 86.6353 139.842 86.7402 139.647 86.95C139.258 87.3697 139.258 88.05 139.647 88.4696L141.17 90.1124L142.579 88.5928L142.693 88.4696C143.082 88.0501 143.082 87.3697 142.693 86.95Z" fill="#ED1C24"/>
<path d="M133.037 72.896H78.2695V74.0075H133.037V72.896Z" fill="#E1E1DF"/>
<path d="M118.527 75.9626H78.2695V77.0741H118.527V75.9626Z" fill="#E1E1DF"/>
<path d="M123.103 79.0322H78.2695V80.1437H123.103V79.0322Z" fill="#E1E1DF"/>
<path d="M111.803 87.8159H78.2695V88.9274H111.803V87.8159Z" fill="#E1E1DF"/>
<path d="M74.0345 69.4153H53.3398V92.447H74.0345V69.4153Z" fill="white"/>
<path d="M53.2422 69.3052V92.5578H74.1442V69.3052H53.2422ZM73.9376 92.3367H53.4488V69.5262H73.9376V92.3367Z" fill="#C4C4C4"/>
<path d="M55.953 78.282C55.953 78.282 54.5733 80.5162 55.2336 83.6136C55.2336 83.6136 69.7996 84.3201 72.0589 83.7673C72.0589 83.7673 72.2464 81.7165 70.3265 81.3514C70.0677 81.3022 69.8143 81.2269 69.565 81.137C68.607 80.7921 66.0168 79.9035 62.694 77.9436C62.658 77.9224 62.6195 77.9069 62.5792 77.8985C62.3766 77.8561 61.5604 77.7691 60.2805 79.5415C60.3375 79.5409 58.9113 80.9213 57.209 79.2298C57.1917 79.2125 56.2374 77.9067 55.953 78.282Z" fill="#323433"/>
<path d="M55.421 79.5647C55.421 79.5647 59.0792 81.2061 59.5764 83.7199C59.6068 83.7905 55.2477 83.5962 55.2477 83.5962C55.2477 83.5962 54.6692 81.5551 55.421 79.5647Z" fill="#ED1C24"/>
<path d="M66.3438 84.0162L72.0532 83.8627C72.0532 83.8627 72.1748 82.7058 71.5403 82.0325C71.5015 82.0375 71.6994 82.716 69.552 82.9231C69.5339 82.9256 66.4797 82.9046 66.3438 84.0162Z" fill="#ED1C24"/>
<path d="M63.1354 79.4533C63.2944 79.4533 63.4232 79.3144 63.4232 79.1429C63.4232 78.9715 63.2944 78.8325 63.1354 78.8325C62.9765 78.8325 62.8477 78.9715 62.8477 79.1429C62.8477 79.3144 62.9765 79.4533 63.1354 79.4533Z" fill="#002548"/>
<path d="M63.4656 79.0209C63.4656 79.0209 63.464 79.0191 63.4623 79.0173C63.4323 78.9256 63.374 78.8501 63.2907 78.807C63.2174 78.7692 63.1374 78.7585 63.0574 78.7818H63.0557C63.0457 78.7836 63.0374 78.7872 63.0274 78.789C62.9391 78.8214 62.8691 78.8879 62.8291 78.9759C62.7441 79.1611 62.8141 79.3839 62.9857 79.4756C63.0357 79.5026 63.0874 79.5152 63.1424 79.5152C63.1774 79.5152 63.214 79.5062 63.249 79.4936C63.3373 79.463 63.4073 79.3965 63.4473 79.3067C63.4906 79.2186 63.4956 79.1161 63.4656 79.0209ZM63.3673 79.1647C63.3657 79.1952 63.359 79.224 63.3457 79.2527C63.3173 79.312 63.2707 79.3552 63.2124 79.3786C63.1557 79.3983 63.0924 79.3947 63.0374 79.3642C62.9241 79.3031 62.8758 79.1557 62.9324 79.0317C62.9474 78.9993 62.9691 78.9706 62.9941 78.9508C63.0141 78.931 63.0391 78.9166 63.0657 78.9076C63.0874 78.8969 63.114 78.8951 63.1374 78.8933C63.1724 78.8933 63.2074 78.9023 63.2407 78.9202C63.2957 78.949 63.3373 78.9993 63.3573 79.0622C63.364 79.0874 63.369 79.1143 63.369 79.1413C63.369 79.1485 63.369 79.1557 63.3673 79.1629V79.1647Z" fill="#002548"/>
<path d="M63.1049 79.1876C62.9942 79.1199 62.9556 78.9684 63.0184 78.849L63.331 78.2552C63.3938 78.1358 63.5343 78.0941 63.6449 78.1619C63.7556 78.2296 63.7942 78.3812 63.7314 78.5005L63.4188 79.0944C63.356 79.2137 63.2155 79.2554 63.1049 79.1876Z" fill="#FEB546"/>
<path d="M63.9557 79.8225C64.1147 79.8225 64.2435 79.6835 64.2435 79.5121C64.2435 79.3406 64.1147 79.2017 63.9557 79.2017C63.7968 79.2017 63.668 79.3406 63.668 79.5121C63.668 79.6835 63.7968 79.8225 63.9557 79.8225Z" fill="#002548"/>
<path d="M64.2843 79.3888L64.2826 79.387C64.2526 79.299 64.196 79.2235 64.111 79.1767C64.0377 79.1372 63.9544 79.13 63.8794 79.1498H63.8777C63.7811 79.1749 63.6961 79.245 63.6494 79.3475C63.5644 79.5326 63.6344 79.7537 63.8061 79.8472C63.856 79.8723 63.9094 79.8849 63.9627 79.8849C64.0877 79.8831 64.2093 79.8076 64.2693 79.6764C64.3126 79.5829 64.3126 79.4787 64.2843 79.3888ZM64.1876 79.5362C64.186 79.5668 64.1793 79.5937 64.166 79.6225C64.1093 79.7447 63.971 79.795 63.8577 79.7357C63.7427 79.6746 63.6961 79.5254 63.7527 79.4014C63.7677 79.3691 63.7894 79.3421 63.8144 79.3187C63.8544 79.2846 63.906 79.2648 63.9577 79.2648C63.9927 79.263 64.0277 79.272 64.061 79.29C64.141 79.3331 64.1893 79.4212 64.1893 79.5129C64.1893 79.52 64.1893 79.5272 64.1876 79.5344V79.5362Z" fill="#002548"/>
<path d="M63.9252 79.5587C63.8145 79.491 63.7759 79.3394 63.8387 79.2201L64.1513 78.6262C64.2141 78.5069 64.3546 78.4652 64.4652 78.533C64.5759 78.6007 64.6145 78.7522 64.5517 78.8716L64.2391 79.4654C64.1763 79.5846 64.0358 79.6263 63.9252 79.5587Z" fill="#FEB546"/>
<path d="M64.7682 80.1872C64.9272 80.1872 65.056 80.0483 65.056 79.8768C65.056 79.7054 64.9272 79.5664 64.7682 79.5664C64.6093 79.5664 64.4805 79.7054 64.4805 79.8768C64.4805 80.0483 64.6093 80.1872 64.7682 80.1872Z" fill="#002548"/>
<path d="M65.0969 79.7589C65.0969 79.7571 65.0969 79.7553 65.0952 79.7535V79.7517C65.0636 79.6601 65.0053 79.5864 64.9236 79.545C64.8503 79.5055 64.7686 79.4947 64.6903 79.5181H64.6887C64.677 79.5199 64.6703 79.5217 64.6603 79.5253C64.5737 79.5576 64.502 79.6241 64.4604 79.7122C64.4204 79.8021 64.4154 79.9027 64.4437 79.998C64.4737 80.0914 64.5354 80.1687 64.6187 80.2119C64.667 80.2388 64.7203 80.2514 64.7736 80.2514C64.8986 80.2496 65.0219 80.1741 65.0802 80.0429C65.1219 79.9548 65.1269 79.8524 65.0969 79.7589ZM64.9986 79.9009C64.9969 79.9315 64.9903 79.9602 64.9769 79.989C64.9219 80.1112 64.782 80.1615 64.6687 80.1004C64.6137 80.0717 64.5737 80.0213 64.552 79.9584C64.532 79.8955 64.537 79.8272 64.5637 79.7679C64.5787 79.7356 64.6003 79.7086 64.6253 79.687C64.647 79.6673 64.6703 79.6529 64.697 79.6439C64.7203 79.6331 64.7453 79.6313 64.7686 79.6313C64.8053 79.6295 64.8386 79.6385 64.872 79.6565C64.9269 79.6852 64.9686 79.7356 64.9886 79.7985C64.9986 79.8326 65.0036 79.865 64.9986 79.8991V79.9009Z" fill="#002548"/>
<path d="M64.7377 79.9225C64.627 79.8547 64.5884 79.7032 64.6512 79.5839L64.9638 78.99C65.0266 78.8707 65.1671 78.829 65.2777 78.8967C65.3884 78.9645 65.427 79.116 65.3642 79.2354L65.0516 79.8292C64.9888 79.9484 64.8482 79.9901 64.7377 79.9225Z" fill="#FEB546"/>
<path d="M65.5768 80.552C65.7358 80.552 65.8646 80.413 65.8646 80.2416C65.8646 80.0701 65.7358 79.9312 65.5768 79.9312C65.4179 79.9312 65.2891 80.0701 65.2891 80.2416C65.2891 80.413 65.4179 80.552 65.5768 80.552Z" fill="#002548"/>
<path d="M65.9084 80.1236C65.9067 80.12 65.9067 80.1182 65.905 80.1146C65.8751 80.023 65.8117 79.9511 65.7334 79.9097C65.6601 79.8684 65.5768 79.8594 65.5001 79.881H65.4985C65.4868 79.8828 65.4785 79.8864 65.4701 79.89C65.3818 79.9223 65.3118 79.9888 65.2702 80.0769C65.2285 80.1668 65.2235 80.2674 65.2535 80.3627C65.2835 80.4561 65.3435 80.5334 65.4268 80.5766C65.4768 80.6017 65.5301 80.6143 65.5818 80.6143C65.7084 80.6143 65.8301 80.537 65.8901 80.4076C65.93 80.3177 65.9367 80.2171 65.9084 80.1236ZM65.8084 80.2638C65.8067 80.2944 65.8001 80.3231 65.7867 80.3519C65.7601 80.4112 65.7118 80.4561 65.6534 80.4777C65.5951 80.4993 65.5318 80.4939 65.4768 80.4651C65.4235 80.4364 65.3818 80.3842 65.3618 80.3213C65.3435 80.2584 65.3452 80.1919 65.3735 80.1308C65.3885 80.1003 65.4102 80.0715 65.4351 80.0499C65.4568 80.0319 65.4801 80.0176 65.5051 80.0068C65.5301 79.9978 65.5535 79.9942 65.5768 79.9942C65.6134 79.9924 65.6484 80.0032 65.6818 80.0212C65.7368 80.0499 65.7784 80.1002 65.7984 80.1614C65.8084 80.1937 65.8117 80.2279 65.8084 80.262V80.2638Z" fill="#002548"/>
<path d="M65.5463 80.2877C65.4356 80.22 65.397 80.0684 65.4598 79.9491L65.7724 79.3552C65.8352 79.2359 65.9757 79.1942 66.0863 79.262C66.197 79.3297 66.2356 79.4812 66.1728 79.6006L65.8602 80.1944C65.7974 80.3136 65.6567 80.3553 65.5463 80.2877Z" fill="#FEB546"/>
<path d="M66.3347 80.8552C66.4936 80.8552 66.6224 80.7162 66.6224 80.5448C66.6224 80.3733 66.4936 80.2344 66.3347 80.2344C66.1757 80.2344 66.0469 80.3733 66.0469 80.5448C66.0469 80.7162 66.1757 80.8552 66.3347 80.8552Z" fill="#002548"/>
<path d="M66.6646 80.4253C66.6646 80.4235 66.6629 80.4217 66.6612 80.4199C66.6312 80.3282 66.5712 80.2545 66.4913 80.2096C66.4163 80.1718 66.3346 80.161 66.2546 80.1844C66.2446 80.1862 66.2347 80.1898 66.2263 80.1934C66.1397 80.224 66.068 80.2905 66.028 80.3803C65.943 80.5637 66.0147 80.7865 66.1847 80.88C66.233 80.9052 66.2863 80.9177 66.3396 80.9177C66.3763 80.9177 66.4129 80.9106 66.4479 80.8962C66.5363 80.8656 66.6062 80.7991 66.6462 80.7092C66.6879 80.6212 66.6946 80.5205 66.6646 80.4253ZM66.5429 80.6553C66.5163 80.7146 66.4696 80.7578 66.4113 80.7793C66.353 80.8027 66.2913 80.7973 66.2346 80.7686C66.1213 80.7074 66.0747 80.5565 66.1313 80.4343C66.1463 80.4019 66.1663 80.3731 66.1913 80.3534C66.213 80.3336 66.2363 80.3192 66.263 80.3102C66.288 80.3012 66.3113 80.2976 66.3346 80.2958C66.3713 80.2958 66.4063 80.3048 66.4396 80.321C66.4929 80.3516 66.5362 80.4019 66.5546 80.4648C66.5629 80.49 66.5662 80.5187 66.5662 80.5457V80.5673C66.5646 80.5978 66.5562 80.6284 66.5429 80.6553Z" fill="#002548"/>
<path d="M66.3041 80.5895C66.1934 80.5217 66.1548 80.3702 66.2176 80.2509L66.5302 79.657C66.593 79.5377 66.7335 79.496 66.8441 79.5637C66.9548 79.6315 66.9934 79.783 66.9306 79.9024L66.618 80.4962C66.5552 80.6156 66.4147 80.6572 66.3041 80.5895Z" fill="#FEB546"/>
<path d="M55.2422 83.5674C55.2422 83.5674 69.8668 84.2252 72.05 83.7685C72.1065 83.8877 72.2191 84.2984 72.0758 84.7312C72.0653 84.7632 72.0377 84.7844 72.0063 84.7876C71.0244 84.8895 56.5737 85.2174 55.3407 85.2452C55.2943 85.2463 55.2565 85.2062 55.2562 85.1563L55.2422 83.5674Z" fill="#323433"/>
<g opacity="0.25">
<path d="M55.5125 136.876H44.9641C43.3903 136.876 41.8753 137.522 40.7261 138.682L8.87891 170.826C8.69228 171.015 8.81575 171.353 9.07153 171.353H267.728C267.917 171.353 268.008 171.103 267.869 170.964L235.638 138.665C234.49 137.515 232.982 136.876 231.416 136.876H219.307L55.5125 136.876Z" fill="#4D4D4D"/>
<path d="M8.77734 171.096V179.178C8.77734 181.164 10.2693 182.773 12.1099 182.773H264.634C266.471 182.773 267.96 181.167 267.96 179.185V171.292C267.96 171.156 267.858 171.046 267.732 171.046H8.8245C8.79851 171.045 8.77734 171.068 8.77734 171.096Z" fill="#4D4D4D"/>
</g>
<path d="M55.0125 134.002H44.4641C42.8903 134.002 41.3753 134.647 40.2261 135.807L8.37891 167.952C8.19228 168.14 8.31575 168.478 8.57153 168.478H267.228C267.417 168.478 267.508 168.228 267.369 168.089L235.138 135.791C233.99 134.641 232.482 134.002 230.916 134.002H218.807L55.0125 134.002Z" fill="#0054A6"/>
<path d="M8.27734 168.215V176.297C8.27734 178.282 9.76935 179.892 11.6099 179.892H264.134C265.971 179.892 267.46 178.285 267.46 176.304V168.41C267.46 168.274 267.358 168.164 267.232 168.164H8.3245C8.29851 168.164 8.27734 168.187 8.27734 168.215Z" fill="#002548"/>
<path d="M248.392 166.465H26.9141L34.5277 158.33L40.9601 151.459L55.0064 136.452H218.801L229.51 147.317L234.598 152.476L248.392 166.465Z" fill="#F4FBFF"/>
<g opacity="0.25">
<path d="M137.877 156.789C170.057 156.789 196.144 155.631 196.144 154.203C196.144 152.774 170.057 151.616 137.877 151.616C105.697 151.616 79.6094 152.774 79.6094 154.203C79.6094 155.631 105.697 156.789 137.877 156.789Z" fill="#4D4D4D"/>
</g>
<path d="M154.873 106.497V128.923C154.873 129.366 154.54 129.726 154.13 129.726H128.708C128.297 129.726 127.965 129.366 127.965 128.923V106.497C127.965 106.054 128.297 105.696 128.708 105.696H154.13C154.54 105.696 154.873 106.054 154.873 106.497Z" fill="#FEB448"/>
<g opacity="0.25">
<path d="M154.879 110.231V128.925C154.879 129.368 154.546 129.728 154.136 129.728H130.763L130.383 129.707C152.408 128.266 154.814 109.613 154.814 109.613L154.879 110.231Z" fill="#4D4D4D"/>
</g>
<path d="M134.808 108.611H130.426V113.83H134.808V108.611Z" fill="white"/>
<g opacity="0.25">
<path d="M129.521 105.697H128.465V129.819H129.521V105.697Z" fill="#4D4D4D"/>
</g>
<path d="M128.775 107.215V129.117C128.775 129.49 128.493 129.793 128.146 129.793H107.844C107.497 129.793 107.215 129.49 107.215 129.117V107.215C107.215 106.841 107.497 106.539 107.844 106.539H128.147C128.493 106.539 128.775 106.841 128.775 107.215Z" fill="#FEB448"/>
<g opacity="0.25">
<path d="M128.784 108.4V129.117C128.784 129.489 128.502 129.793 128.155 129.793H108.949C123.036 128.746 128.784 108.4 128.784 108.4Z" fill="#4D4D4D"/>
</g>
<path d="M113.851 109.495H109.715V113.863H113.851V109.495Z" fill="white"/>
<path d="M128.472 93.165H110.203V106.546H128.472V93.165Z" fill="#FEB448"/>
<g opacity="0.25">
<path d="M110.203 106.546L111.898 106.549C111.35 106.569 110.785 106.568 110.203 106.546Z" fill="#4D4D4D"/>
<path d="M128.468 95.0698V106.546H111.973C123.298 106.111 127.572 97.2822 128.468 95.0698Z" fill="#4D4D4D"/>
</g>
<path d="M114.139 94.8599H111.535V97.5795H114.139V94.8599Z" fill="white"/>
<g opacity="0.25">
<path d="M108.393 115.212V129.82H107.16V115.292H107.225V115.005H108.201C108.307 115.005 108.393 115.098 108.393 115.212Z" fill="#4D4D4D"/>
</g>
<path d="M108.179 115.621C108.179 115.621 108.179 115.623 108.179 115.624V129.534C108.179 129.64 108.135 129.733 108.065 129.792C108.054 129.803 108.044 129.811 108.031 129.819C107.984 129.851 107.929 129.868 107.869 129.868H87.2865C87.1139 129.868 86.9766 129.72 86.9766 129.534V115.624C86.9766 115.442 87.1139 115.29 87.2865 115.29H107.869C108.04 115.29 108.178 115.438 108.179 115.621Z" fill="#FEB448"/>
<g opacity="0.25">
<path d="M87.2891 129.869H107.873C108.045 129.869 108.183 129.719 108.183 129.535V115.625C107.079 126.994 87.2891 129.869 87.2891 129.869Z" fill="#4D4D4D"/>
</g>
<path d="M95.756 118.52H90.1445V124.573H95.756V118.52Z" fill="white"/>
<path d="M190.781 144.731H85.6051C85.4975 144.731 85.4102 144.637 85.4102 144.521V132.1H190.975V144.521C190.976 144.637 190.888 144.731 190.781 144.731Z" fill="#363B37"/>
<path d="M154.704 129.725V137.893H83.9446C83.7826 137.893 83.6523 137.752 83.6523 137.578V130.041C83.6523 129.866 83.7826 129.725 83.9446 129.725H154.704Z" fill="#58595B"/>
<g opacity="0.25">
<path d="M154.704 129.632V132.101H83.6523V130.042C83.6523 129.867 83.7826 129.727 83.9446 129.727H154.616V129.632L154.704 129.632Z" fill="#4D4D4D"/>
</g>
<path d="M192.101 128.04V140.642C192.101 140.85 191.946 141.017 191.754 141.019C191.562 141.019 191.298 141.02 190.979 141.02C189.743 141.022 187.681 141.024 185.822 141.026C185.822 141.026 185.822 141.026 185.82 141.026C184.29 141.026 182.899 141.026 182.219 141.022C181.955 141.022 181.71 140.871 181.576 140.624C180.918 139.404 180.208 138.403 179.481 137.585C177.47 135.311 175.336 134.43 173.841 134.095C172.958 133.898 172.3 133.888 172.018 133.898C171.898 133.902 171.777 133.902 171.657 133.902C166.146 133.896 163.154 139.003 162.388 140.515C162.258 140.776 162.006 140.935 161.733 140.939L155.29 141.009C154.971 141.015 154.702 140.776 154.635 140.451C154.623 140.4 154.617 140.346 154.617 140.291V102.533C154.617 101.819 155.158 101.242 155.818 101.249C158.503 101.277 165.022 101.34 168.438 101.314C169.842 101.302 171.177 101.965 172.083 103.12C183.948 118.226 189.356 124.038 191.256 125.947C191.795 126.488 192.101 127.246 192.101 128.04Z" fill="#F54A42"/>
<path d="M162.342 124.407H161.771C161.613 124.407 161.484 124.269 161.484 124.098V121.488C161.484 121.317 161.613 121.178 161.771 121.178H162.342C162.501 121.178 162.629 121.317 162.629 121.488V124.098C162.629 124.269 162.501 124.407 162.342 124.407Z" fill="#363B37"/>
<path d="M192.102 130.58V133.524H189.748C189.165 133.524 188.691 133.013 188.691 132.385V131.72C188.691 131.091 189.165 130.58 189.748 130.58L192.102 130.58Z" fill="#FEB448"/>
<path d="M161.484 106.365V118.302C161.484 118.618 161.722 118.874 162.015 118.874H180.234C180.682 118.874 180.928 118.312 180.644 117.939L171.579 106.002C171.478 105.87 171.327 105.793 171.168 105.793H162.015C161.722 105.793 161.484 106.049 161.484 106.365Z" fill="#7CD4E8"/>
<g opacity="0.25">
<path d="M162.016 105.792L171.172 118.874H174.342L164.813 105.792H162.016Z" fill="white"/>
</g>
<g opacity="0.25">
<path d="M168.254 105.792L178.185 118.874H179.247L169.25 105.792H168.254Z" fill="white"/>
</g>
<g opacity="0.25">
<path d="M173.843 134.095C172.961 133.897 172.302 133.888 172.02 133.897C171.9 133.901 171.779 133.901 171.659 133.901C166.148 133.895 163.156 139.003 162.39 140.515C162.26 140.775 162.008 140.934 161.735 140.938L155.292 141.009C154.973 141.014 154.704 140.775 154.637 140.45C154.663 131.498 154.707 116.309 154.707 116.075C158.709 123.103 161.398 128.491 173.843 134.095Z" fill="#58595B"/>
</g>
<g opacity="0.25">
<path d="M185.82 141.026C184.29 141.026 182.898 141.026 182.219 141.022C181.955 141.022 181.71 140.87 181.576 140.623C180.917 139.403 180.208 138.403 179.48 137.584C183.184 139.742 185.76 140.995 185.82 141.026Z" fill="#58595B"/>
</g>
<path d="M171.915 154.891C176.804 154.891 180.768 150.616 180.768 145.342C180.768 140.068 176.804 135.793 171.915 135.793C167.026 135.793 163.062 140.068 163.062 145.342C163.062 150.616 167.026 154.891 171.915 154.891Z" fill="#231F20"/>
<path d="M171.914 152.138C175.393 152.138 178.214 149.096 178.214 145.342C178.214 141.589 175.393 138.546 171.914 138.546C168.434 138.546 165.613 141.589 165.613 145.342C165.613 149.096 168.434 152.138 171.914 152.138Z" fill="#8B8C8E"/>
<path d="M171.918 150.504C174.561 150.504 176.703 148.194 176.703 145.343C176.703 142.492 174.561 140.181 171.918 140.181C169.275 140.181 167.133 142.492 167.133 145.343C167.133 148.194 169.275 150.504 171.918 150.504Z" fill="#CFD0D2"/>
<path d="M171.914 146.859C172.69 146.859 173.319 146.18 173.319 145.343C173.319 144.505 172.69 143.826 171.914 143.826C171.137 143.826 170.508 144.505 170.508 145.343C170.508 146.18 171.137 146.859 171.914 146.859Z" fill="#231F20"/>
<path d="M106.587 154.891C111.476 154.891 115.439 150.616 115.439 145.342C115.439 140.068 111.476 135.793 106.587 135.793C101.698 135.793 97.7344 140.068 97.7344 145.342C97.7344 150.616 101.698 154.891 106.587 154.891Z" fill="#231F20"/>
<path d="M106.59 152.138C110.069 152.138 112.89 149.096 112.89 145.342C112.89 141.589 110.069 138.546 106.59 138.546C103.11 138.546 100.289 141.589 100.289 145.342C100.289 149.096 103.11 152.138 106.59 152.138Z" fill="#8B8C8E"/>
<path d="M106.59 150.504C109.233 150.504 111.375 148.194 111.375 145.343C111.375 142.492 109.233 140.181 106.59 140.181C103.947 140.181 101.805 142.492 101.805 145.343C101.805 148.194 103.947 150.504 106.59 150.504Z" fill="#CFD0D2"/>
<path d="M106.589 146.859C107.366 146.859 107.995 146.18 107.995 145.343C107.995 144.505 107.366 143.826 106.589 143.826C105.813 143.826 105.184 144.505 105.184 145.343C105.184 146.18 105.813 146.859 106.589 146.859Z" fill="#231F20"/>
</svg>
