<svg width="114" height="114" viewBox="0 0 114 114" fill="none" xmlns="http://www.w3.org/2000/svg">
<path fill-rule="evenodd" clip-rule="evenodd" d="M89.3997 94.1998C90.0997 93.4998 91.2997 93.4998 91.9997 94.1998C92.6997 94.8998 92.6997 96.0998 91.9997 96.7998C77.7997 111 56.6997 115.6 37.8997 108.8L39.4997 111C40.0997 111.8 39.8997 113 38.9997 113.6C38.0997 114.2 36.9997 114 36.3997 113.1L30.9997 105.4C30.1997 104.3 30.8997 102.8 32.1997 102.5L40.4997 100.6C41.4997 100.4 42.4997 101 42.6997 102C42.8997 103 42.2997 104 41.2997 104.2L38.3997 104.9C55.9997 111.8 75.9997 107.6 89.3997 94.1998Z" fill="#002548"/>
<path fill-rule="evenodd" clip-rule="evenodd" d="M94.7984 70.2002H111.098C111.898 70.2002 112.498 70.8002 112.498 71.6002V87.9002C112.498 88.7002 111.898 89.3002 111.098 89.3002H94.7984C93.9984 89.3002 93.3984 88.7002 93.3984 87.9002V71.6002C93.3984 70.8002 93.9984 70.2002 94.7984 70.2002Z" fill="#0054A6"/>
<path fill-rule="evenodd" clip-rule="evenodd" d="M15.2 76.1001L28.8 97.9001H1.5L15.2 76.1001Z" fill="#FFDD33"/>
<path fill-rule="evenodd" clip-rule="evenodd" d="M62.199 63.9C62.299 66.7 60.299 68.4 57.799 69.1V69.2C57.799 70.4 56.799 71.4 55.599 71.4C54.399 71.4 53.399 70.4 53.399 69.2V69.1C51.199 68.5 49.599 66.9 48.999 64.7C48.699 63.5 49.399 62.4 50.599 62.1C51.799 61.8 52.899 62.5 53.199 63.7C53.499 64.8 54.699 65.2 55.699 65.1C55.799 65.1 55.899 65.1 56.099 65.1C56.599 65 57.799 64.8 57.799 64.1V64C57.699 63 55.999 62.7 55.199 62.6C52.299 62.1 49.599 60.7 49.399 57.4C49.299 54.8 50.999 52.7 53.399 51.9V51.7C53.399 50.5 54.399 49.5 55.599 49.5C56.799 49.5 57.799 50.5 57.799 51.7V51.8C59.499 52.3 60.899 53.5 61.699 55.4C62.199 56.5 61.599 57.8 60.499 58.2C59.399 58.6 58.099 58.1 57.699 57C57.299 56 56.199 55.6 55.099 55.8C54.499 55.9 53.799 56.3 53.799 57C53.799 57.8 55.399 58.1 55.999 58.2C58.999 58.7 61.799 60 62.199 63.4C62.199 63.5 62.199 63.7 62.199 63.9Z" fill="black"/>
<path fill-rule="evenodd" clip-rule="evenodd" d="M62.199 63.9C62.299 66.7 60.299 68.4 57.799 69.1V69.2C57.799 70.4 56.799 71.4 55.599 71.4C54.399 71.4 53.399 70.4 53.399 69.2V69.1C51.199 68.5 49.599 66.9 48.999 64.7C48.699 63.5 49.399 62.4 50.599 62.1C51.799 61.8 52.899 62.5 53.199 63.7C53.499 64.8 54.699 65.2 55.699 65.1C55.799 65.1 55.899 65.1 56.099 65.1C56.599 65 57.799 64.8 57.799 64.1V64C57.699 63 55.999 62.7 55.199 62.6C52.299 62.1 49.599 60.7 49.399 57.4C49.299 54.8 50.999 52.7 53.399 51.9V51.7C53.399 50.5 54.399 49.5 55.599 49.5C56.799 49.5 57.799 50.5 57.799 51.7V51.8C59.499 52.3 60.899 53.5 61.699 55.4C62.199 56.5 61.599 57.8 60.499 58.2C59.399 58.6 58.099 58.1 57.699 57C57.299 56 56.199 55.6 55.099 55.8C54.499 55.9 53.799 56.3 53.799 57C53.799 57.8 55.399 58.1 55.999 58.2C58.999 58.7 61.799 60 62.199 63.4C62.199 63.5 62.199 63.7 62.199 63.9Z" fill="#54CC5A"/>
<path fill-rule="evenodd" clip-rule="evenodd" d="M80.9992 54.3C80.3992 51.6 79.2992 49 77.7992 46.7L79.9992 41.8L74.1992 36L69.2992 38.2C66.9992 36.7 64.3992 35.7 61.6992 35L59.7992 30H51.5992L49.6992 35C46.9992 35.6 44.3992 36.7 42.0992 38.2L36.9992 36L31.1992 41.8L33.3992 46.7C31.8992 49.1 30.8992 51.6 30.1992 54.3L25.1992 56.2V64.4L30.1992 66.3C30.7992 69 31.8992 71.6 33.3992 73.9L31.1992 79L36.9992 84.8L41.8992 82.6C44.1992 84 46.7992 85.1 49.4992 85.7L51.3992 90.7H59.5992L61.4992 85.7C64.1992 85.1 66.7992 84 69.0992 82.6L73.9992 84.8L79.9992 79L77.7992 74C79.2992 71.7 80.2992 69.1 80.9992 66.4L85.9992 64.5V56.3L80.9992 54.3ZM55.5992 74.7C47.6992 74.7 41.1992 68.3 41.1992 60.4C41.1992 52.5 47.5992 46 55.5992 46C63.4992 46 69.8992 52.4 69.8992 60.4C69.8992 68.3 63.4992 74.7 55.5992 74.7Z" fill="#839299"/>
<path fill-rule="evenodd" clip-rule="evenodd" d="M48.7 19.4C43.3 19.4 39 15.1 39 9.7C39 4.3 43.3 0 48.7 0C54.1 0 58.4 4.3 58.4 9.7C58.4 15.1 54.1 19.4 48.7 19.4Z" fill="#ED1C24"/>
<path fill-rule="evenodd" clip-rule="evenodd" d="M107.499 49C107.899 48.1 108.999 47.7 109.999 48.1C110.999 48.5 111.299 49.6 110.899 50.6L106.899 59.2C106.299 60.4 104.699 60.7 103.799 59.7L97.9986 53.5C97.2986 52.7 97.2986 51.6 98.0986 50.9C98.8986 50.2 99.9986 50.2 100.699 51L102.799 53.2C99.8986 34.3 86.2986 19.1 67.9986 14.2C66.9986 13.9 66.3986 12.9 66.6986 11.9C66.9986 10.9 67.9986 10.3 68.9986 10.6C88.3986 15.8 102.899 31.7 106.399 51.4L107.499 49Z" fill="#002548"/>
<path fill-rule="evenodd" clip-rule="evenodd" d="M19.7017 21.1001L22.4017 20.9001C7.1017 33.8001 0.601706 54.4001 5.80171 73.7001C6.10171 74.7001 7.10171 75.3001 8.10171 75.0001C9.10171 74.7001 9.70171 73.7001 9.40171 72.7001C4.50171 54.5 10.8017 35.0001 25.6017 23.1001L24.7017 26.0001C24.4017 27.0001 25.0017 28.0001 25.9017 28.3001C26.9017 28.6001 27.9017 28.0001 28.2017 27.1001L30.7017 19.0001C31.1017 17.7001 30.1017 16.4001 28.8017 16.5001L19.4017 17.4001C18.4017 17.5001 17.6017 18.4001 17.7017 19.4001C17.8017 20.5001 18.7017 21.2001 19.7017 21.1001Z" fill="#002548"/>
</svg>
