<svg width="80" height="80" viewBox="0 0 80 80" fill="none" xmlns="http://www.w3.org/2000/svg">
<g clip-path="url(#clip0_6034_17401)">
<path fill-rule="evenodd" clip-rule="evenodd" d="M18.1995 13.9C17.6995 14.4 16.8995 14.4 16.2995 13.9C15.7995 13.4 15.7995 12.6 16.2995 12C21.7995 6.59996 28.5995 3.19996 35.5995 1.99996C41.7995 0.899961 48.2995 1.49996 54.1995 3.59996L53.0995 1.99996C52.6995 1.39996 52.7995 0.599961 53.3995 0.199961C53.9995 -0.200039 54.7995 -0.100039 55.1995 0.499961L59.0995 5.99996C59.4995 6.59996 59.3995 7.39996 58.7995 7.79996C58.6995 7.89996 58.4995 7.99996 58.2995 7.99996L52.4995 9.29996C51.7995 9.49996 51.0995 8.99996 50.8995 8.29996C50.6995 7.59996 51.1995 6.89996 51.8995 6.69996L53.9995 6.29996C48.2995 4.09996 42.0995 3.49996 36.0995 4.59996C29.4995 5.69996 23.2995 8.79996 18.1995 13.9ZM5.49945 45.6C5.19945 46.3 4.39945 46.5 3.79945 46.2C3.09945 45.9 2.89945 45.1 3.19945 44.5L5.99945 38.5C6.29945 37.8 7.09945 37.6 7.69945 37.9C7.89945 38 7.99945 38.1 8.09945 38.2L12.1995 42.6C12.6995 43.1 12.6995 44 12.0995 44.4C11.5995 44.9 10.6995 44.9 10.2995 44.3L8.89945 42.8C9.79945 48.9 12.4995 54.5 16.2995 59.2C20.5995 64.3 26.3995 68.2 33.2995 70C33.9995 70.2 34.3995 70.9 34.1995 71.6C33.9995 72.3 33.2995 72.7 32.5995 72.5C25.0995 70.5 18.8995 66.3 14.1995 60.8C10.0995 56 7.39945 50.1 6.29945 43.8L5.49945 45.6ZM67.0994 65.2C67.7994 65.1 68.4995 65.7 68.4995 66.4C68.5994 67.1 67.9995 67.8 67.2995 67.8L60.6995 68.4C59.9995 68.5 59.2995 67.9 59.2995 67.2C59.2995 67 59.2995 66.8 59.3995 66.7L61.0995 61C61.2995 60.3 61.9995 59.9 62.6995 60.1C63.3995 60.3 63.7995 61 63.5995 61.7L62.9995 63.7C67.7995 59.8 71.3995 54.8 73.4995 49.1C75.7995 42.8 76.1995 35.8 74.3995 28.9C74.1995 28.2 74.5995 27.5 75.2995 27.3C75.9995 27.1 76.6995 27.5 76.8995 28.2C78.8995 35.7 78.3995 43.2 75.8995 49.9C73.6995 55.8 69.9995 61.1 65.1995 65.2H67.0994Z" fill="#839299"/>
<path fill-rule="evenodd" clip-rule="evenodd" d="M45.6 22.2998C47.2 22.6998 48.8 23.2998 50.2 24.1998L53.2 22.8998L56.7 26.3998L55.4 29.3998C56.3 30.7998 56.9 32.3998 57.3 33.9998L60.3 35.1998V40.1998L57.3 41.3998C56.9 42.9998 56.3 44.5998 55.4 45.9998L56.7 48.9998L53.2 52.4998L50.2 51.1998C48.8 52.0998 47.2 52.6998 45.6 53.0998L44.4 56.0998H39.4L38.2 53.0998C36.6 52.6998 35 52.0998 33.6 51.1998L30.6 52.4998L27.1 48.9998L28.4 45.9998C27.5 44.5998 26.9 42.9998 26.5 41.3998L23.5 40.1998V35.1998L26.5 33.9998C26.9 32.3998 27.5 30.7998 28.4 29.3998L27.1 26.3998L30.6 22.8998L33.6 24.1998C35 23.2998 36.6 22.6998 38.2 22.2998L39.4 19.2998H44.4L45.6 22.2998Z" fill="#FFDD33"/>
<path opacity="0.19" d="M41.8996 48.8998C48.1404 48.8998 53.1996 43.8406 53.1996 37.5998C53.1996 31.359 48.1404 26.2998 41.8996 26.2998C35.6588 26.2998 30.5996 31.359 30.5996 37.5998C30.5996 43.8406 35.6588 48.8998 41.8996 48.8998Z" fill="#2D2F31"/>
<path fill-rule="evenodd" clip-rule="evenodd" d="M45.6011 34.6002C45.9011 35.3002 45.6011 36.0002 44.9011 36.3002C44.2011 36.6002 43.5011 36.3002 43.2011 35.6002C43.0011 35.2002 42.7011 35.0002 42.4011 34.9002C42.2011 34.8002 41.9011 34.8002 41.7011 34.9002C41.5011 34.9002 41.3011 35.0002 41.1011 35.2002C41.0011 35.3002 40.9011 35.5002 40.9011 35.7002C40.9011 35.9002 41.0011 36.0002 41.1011 36.1002C41.4011 36.3002 41.8011 36.4002 42.2011 36.5002C42.9011 36.6002 43.7011 36.8002 44.4011 37.2002C45.2011 37.7002 45.8011 38.4002 46.0011 39.6002C46.0011 39.7002 46.0011 39.8002 46.0011 39.9002C46.0011 41.0002 45.5011 41.8002 44.8011 42.3002C44.4011 42.6002 43.8011 42.9002 43.3011 43.0002C43.3011 43.7002 42.7011 44.3002 42.0011 44.3002C41.3011 44.3002 40.7011 43.7002 40.7011 43.0002V42.9002C40.3011 42.8002 39.9011 42.6002 39.6011 42.4002C38.9011 41.9002 38.3011 41.2002 38.1011 40.3002C37.9011 39.6002 38.4011 38.9002 39.1011 38.7002C39.8011 38.5002 40.5011 39.0002 40.7011 39.7002C40.8011 40.0002 40.9011 40.2002 41.1011 40.3002C41.4011 40.5002 41.8011 40.6002 42.2011 40.6002C42.3011 40.6002 42.3011 40.6002 42.5011 40.6002C42.8011 40.6002 43.2011 40.5002 43.4011 40.3002C43.5011 40.2002 43.6011 40.1002 43.6011 40.0002V39.9002C43.6011 39.7002 43.4011 39.5002 43.3011 39.4002C43.0011 39.2002 42.5011 39.1002 42.1011 39.0002C41.4011 38.9002 40.6011 38.7002 40.0011 38.3002C39.2011 37.8002 38.6011 37.0002 38.6011 35.9002C38.5011 34.8002 39.0011 33.9002 39.8011 33.3002C40.2011 33.0002 40.6011 32.8002 41.0011 32.6002V32.5002C41.0011 31.8002 41.6011 31.2002 42.3011 31.2002C43.0011 31.2002 43.6011 31.8002 43.6011 32.5002V32.6002C44.2011 32.7002 45.1011 33.4002 45.6011 34.6002Z" fill="#FFDD33"/>
<path fill-rule="evenodd" clip-rule="evenodd" d="M21.0013 28.3996C21.7013 28.5996 22.0013 29.3996 21.8013 30.0996C21.6013 30.7996 20.8013 31.0996 20.1013 30.8996L11.6013 27.8996C11.5013 27.8996 11.4013 27.7996 11.3013 27.6996L5.90133 23.8996C5.30133 23.4996 5.20133 22.6996 5.60133 22.0996C6.00133 21.4996 6.80133 21.3996 7.40133 21.7996L12.7013 25.4996L21.0013 28.3996Z" fill="#5F737C"/>
<path d="M8.70039 30.8002C12.4559 30.8002 15.5004 27.7557 15.5004 24.0002C15.5004 20.2447 12.4559 17.2002 8.70039 17.2002C4.94485 17.2002 1.90039 20.2447 1.90039 24.0002C1.90039 27.7557 4.94485 30.8002 8.70039 30.8002Z" fill="#0054A6"/>
<path fill-rule="evenodd" clip-rule="evenodd" d="M60.3006 24.1003C59.8006 24.6003 58.9006 24.5003 58.5006 24.0003C58.0006 23.5003 58.1006 22.6003 58.6006 22.2003L65.5006 16.3003C65.6006 16.2003 65.7006 16.2003 65.8006 16.1003L71.8006 13.3003C72.5006 13.0003 73.2006 13.3003 73.5006 13.9003C73.8006 14.6003 73.5006 15.3003 72.9006 15.6003L67.1006 18.3003L60.3006 24.1003Z" fill="#5F737C"/>
<path d="M70.3 22.5004C74.0555 22.5004 77.1 19.4559 77.1 15.7004C77.1 11.9449 74.0555 8.90039 70.3 8.90039C66.5445 8.90039 63.5 11.9449 63.5 15.7004C63.5 19.4559 66.5445 22.5004 70.3 22.5004Z" fill="#0054A6"/>
<path fill-rule="evenodd" clip-rule="evenodd" d="M44.3995 60.2999C44.2995 59.5999 44.7995 58.8999 45.4995 58.7999C46.1995 58.6999 46.8995 59.1999 46.9995 59.8999L48.4995 69.8999C48.4995 69.9999 48.4995 70.0998 48.4995 70.1998L48.0995 75.5998C47.9995 76.2999 47.3995 76.8999 46.6995 76.7999C45.9995 76.6999 45.3995 76.0999 45.4995 75.3999L45.8995 70.0999L44.3995 60.2999Z" fill="#5F737C"/>
<path fill-rule="evenodd" clip-rule="evenodd" d="M46.7004 80.0004C50.5004 80.0004 53.5004 76.9004 53.5004 73.2004C53.5004 69.5004 50.4004 66.4004 46.7004 66.4004C43.0004 66.4004 39.9004 69.5004 39.9004 73.2004C39.9004 76.9004 43.0004 80.0004 46.7004 80.0004Z" fill="#0054A6"/>
</g>
<defs>
<clipPath id="clip0_6034_17401">
<rect width="80" height="80" fill="white"/>
</clipPath>
</defs>
</svg>
