<svg width="114" height="114" viewBox="0 0 114 114" fill="none" xmlns="http://www.w3.org/2000/svg">
<path d="M43.9807 33.8305C43.9807 41.4586 37.6509 47.6609 30.0263 47.6609C22.4018 47.6609 16 41.4586 16 33.8305C16 26.2023 22.3298 20 29.9544 20C37.7947 20 43.9807 26.2736 43.9807 33.8305Z" fill="#54CC5A"/>
<path d="M97.9986 33.8305C97.9986 41.4586 91.8846 47.6609 84.0442 47.6609C76.2039 47.6609 70.0898 41.3873 70.0898 33.8305C70.0898 26.2736 76.3477 20 84.0442 20C91.7407 20 97.9986 26.2736 97.9986 33.8305Z" fill="#839299"/>
<path d="M71.0982 80.1698C71.0982 87.798 64.7684 94.0003 57.1438 94.0003C49.5193 94.0003 43.1895 87.7267 43.1895 80.1698C43.1895 72.613 49.2316 66.2681 57.0719 66.2681C64.9123 66.2681 71.0982 72.5417 71.0982 80.1698Z" fill="#0054A6"/>
<path d="M46.3537 58.2119C45.8502 58.0694 45.3466 58.3545 45.1309 58.8536L44.4835 61.2062L38.873 51.2254C38.5133 50.7264 38.0098 50.5838 37.5063 50.869C37.0028 51.2254 36.8589 51.7245 37.1466 52.2235L42.7572 62.2042L40.3835 61.5626C39.88 61.42 39.3765 61.7052 39.1607 62.2042C39.0168 62.7033 39.3045 63.2023 39.808 63.4162L44.5554 64.7707H44.9151C45.0589 64.7707 45.2747 64.7707 45.4186 64.6281C45.5624 64.6281 45.5624 64.4856 45.7782 64.2717C45.7782 64.1291 45.9221 64.1291 45.9221 63.9152L47.2887 59.21C47.2168 58.8536 46.8572 58.3545 46.3537 58.2119Z" fill="#002548"/>
<path d="M76.4923 57.3566C75.9888 57.4992 75.4853 57.214 75.2695 56.715L74.6222 54.3624L69.0116 64.3431C68.652 64.8422 68.1485 64.9848 67.645 64.6996C67.1415 64.3431 66.9976 63.8441 67.2853 63.3451L72.8958 53.3643L70.5222 54.0059C70.0186 54.1485 69.5151 53.8634 69.2993 53.3643C69.1555 52.8653 69.4432 52.3663 69.9467 52.1524L74.6941 50.7979H75.0537C75.1976 50.7979 75.4134 50.7979 75.5572 50.9404C75.7011 50.9404 75.7011 51.083 75.9169 51.2969C75.9169 51.4395 76.0607 51.4395 76.0607 51.6533L77.4274 56.3586C77.3555 56.6437 76.9958 57.1428 76.4923 57.3566Z" fill="#002548"/>
<path d="M64.0484 32.8329H52.4676L54.194 31.1219C54.5536 30.7654 54.5536 30.1238 54.194 29.7673C53.8343 29.4109 53.1869 29.4109 52.8273 29.7673L49.4466 33.118C49.3027 33.2606 49.3027 33.2606 49.3027 33.4745V33.8309V34.1874C49.3027 34.33 49.4466 34.33 49.4466 34.5438L52.8273 37.8945C52.9712 38.0371 53.3308 38.251 53.4747 38.251C53.6185 38.251 53.9782 38.1084 54.122 37.8945C54.4817 37.5381 54.4817 36.8964 54.122 36.54L52.4676 34.9003H64.0484C64.5519 34.9003 65.0554 34.4013 65.0554 33.9022C65.0554 33.4032 64.5519 32.8329 64.0484 32.8329Z" fill="#002548"/>
<path d="M93.7566 32.4763L93.0373 32.3337C92.3899 32.3337 91.8145 31.8347 91.5268 31.1218V30.9792C91.1671 30.4802 91.3829 29.6247 91.6706 29.1256L92.0303 28.484C92.1741 28.1276 92.0303 27.6285 91.8864 27.4859L90.8794 26.4879C90.5197 26.1314 90.232 26.1314 89.8724 26.3453L89.225 26.7017C88.5057 27.0582 87.8583 27.0582 87.139 26.7017H86.9952C86.4917 26.3453 85.9882 25.8462 85.7724 25.2046L85.6285 24.4917C85.6285 24.1353 85.2689 23.9927 84.9092 23.9927H83.3987C83.039 23.9927 82.6794 24.1353 82.6794 24.4917L82.5355 25.3472C82.3917 25.9888 81.8882 26.5592 81.1689 26.8443C80.4496 27.2008 79.8022 26.9869 79.0829 26.7017L78.5794 26.0601C78.2197 25.9175 77.7162 26.0601 77.5724 26.2027L76.5654 27.2008C76.2057 27.5572 76.2057 27.8424 76.4215 28.1988L76.5654 28.6979C76.925 29.1969 77.0689 30.0524 76.7092 30.694C76.5654 31.3356 75.8461 31.906 75.1987 32.0486L74.4794 32.1911C73.9759 32.1911 73.832 32.5476 73.832 32.8328V34.3299C73.832 34.6863 74.1917 34.9715 74.4794 34.9715L75.1987 35.1141C75.8461 35.2567 76.4215 35.7557 76.7092 36.4686C77.0689 37.1102 76.8531 37.8231 76.5654 38.4647L76.2057 38.9638C76.0619 39.3202 76.2057 39.8193 76.3496 39.9619L77.3566 40.9599C77.7162 41.3164 78.004 41.3164 78.3636 41.1025L79.011 40.7461C79.5145 40.3896 80.2338 40.247 80.8812 40.6035H81.025C81.6724 40.7461 82.2478 41.459 82.3917 42.1006L82.5355 42.7422C82.5355 43.2412 82.8952 43.4551 83.2548 43.4551H84.7654C85.125 43.4551 85.4847 43.0987 85.4847 42.7422L85.6285 42.1006C85.7724 41.3877 86.2759 40.8886 86.9952 40.6035C87.7145 40.247 88.3619 40.4609 89.0812 40.7461L89.5847 41.1025C89.9443 41.2451 90.4478 41.1025 90.5917 40.9599L91.5987 39.9619C91.9583 39.6054 91.9583 39.249 91.7426 38.9638L91.3829 38.2509C91.0233 37.7518 90.8794 37.0389 91.239 36.3973V36.2547C91.5987 35.7557 92.1022 35.2567 92.7496 35.0428L93.3969 34.9002C93.7566 34.9002 93.9005 34.5437 93.9005 34.2586V32.7615C94.1162 32.6902 93.9004 32.4763 93.7566 32.4763ZM84.0461 37.8944C81.8162 37.8944 79.9461 36.0409 79.9461 33.8308C79.9461 31.6208 81.7443 29.7672 84.0461 29.7672C86.2759 29.7672 88.1461 31.5495 88.1461 33.8308C88.1461 36.1121 86.2759 37.8944 84.0461 37.8944Z" fill="#F9FAFB"/>
<path d="M21.6113 28.2695H25.7113V32.3331H21.6113V28.2695Z" fill="#F9FAFB"/>
<path d="M21.6113 34.6855H25.7113V38.7491H21.6113V34.6855Z" fill="#F9FAFB"/>
<path d="M27.582 28.2695H38.5154V32.3331H27.582V28.2695Z" fill="#F9FAFB"/>
<path d="M27.582 34.6855H38.5154V38.7491H27.582V34.6855Z" fill="#F9FAFB"/>
<path d="M61.6755 85.2315V83.877C61.6755 82.8789 61.0282 82.166 59.9492 82.0234L59.158 76.6053H59.8053C60.3089 76.6053 60.6685 76.2488 60.6685 75.7498C60.6685 75.2508 60.3089 74.8943 59.8053 74.8943H58.9422C59.9492 74.2527 60.4527 73.0407 60.3089 71.5436C60.165 70.3317 59.086 69.3336 57.9352 68.9772C55.7053 68.4781 53.8352 70.1891 53.8352 72.1853C53.8352 73.3972 54.3387 74.1814 55.2018 74.8943H54.3387C53.8352 74.8943 53.4755 75.2508 53.4755 75.7498C53.4755 76.2488 53.8352 76.6053 54.3387 76.6053H54.986L54.1229 82.0234C53.2597 82.166 52.6124 82.8789 52.6124 83.7344V85.0889H52.4685C51.6053 85.0889 50.7422 85.7305 50.7422 86.7999V88.0119C50.7422 88.5109 51.1018 88.8673 51.6053 88.8673H62.5387C63.0422 88.8673 63.4018 88.5109 63.4018 88.0119V86.7999C63.4018 86.087 62.6825 85.2315 61.6755 85.2315Z" fill="#F9FAFB"/>
</svg>
