<svg width="48" height="48" viewBox="0 0 48 48" fill="none" xmlns="http://www.w3.org/2000/svg">
<path opacity="0.997" fill-rule="evenodd" clip-rule="evenodd" d="M22.0781 3.70313C22.0781 5.01563 22.0781 6.32813 22.0781 7.64063C28.1093 7.64063 34.1407 7.64063 40.1719 7.64063C40.1719 7.67187 40.1719 7.70313 40.1719 7.73438C29.3594 7.73438 18.5468 7.73438 7.73437 7.73438C7.71875 6.45275 7.73438 5.1715 7.78125 3.89063C7.95312 3.46875 8.25 3.17187 8.67187 3C13.0156 2.9375 17.3594 2.9375 21.7031 3C21.9397 3.17653 22.0648 3.41091 22.0781 3.70313Z" fill="#189ED0"/>
<path opacity="0.999" fill-rule="evenodd" clip-rule="evenodd" d="M22.0781 3.70313C27.797 3.6875 33.5157 3.70313 39.2344 3.75C39.6562 3.92187 39.9532 4.21875 40.125 4.64063C40.1719 5.64014 40.1875 6.64014 40.1719 7.64063C34.1407 7.64063 28.1093 7.64063 22.0781 7.64063C22.0781 6.32813 22.0781 5.01563 22.0781 3.70313Z" fill="#1189B3"/>
<path fill-rule="evenodd" clip-rule="evenodd" d="M10.2658 4.8281C10.8291 4.81252 11.3916 4.82815 11.9533 4.87497C12.2793 5.12871 12.3106 5.40996 12.047 5.71872C11.422 5.78123 10.7971 5.78123 10.172 5.71872C9.78419 5.37919 9.81541 5.08231 10.2658 4.8281Z" fill="#F799CC"/>
<path fill-rule="evenodd" clip-rule="evenodd" d="M14.0157 4.8281C14.6102 4.81252 15.2039 4.82815 15.7969 4.87497C16.1318 5.12114 16.163 5.40239 15.8907 5.71872C15.2344 5.78123 14.5782 5.78123 13.9219 5.71872C13.6655 5.39138 13.6967 5.09451 14.0157 4.8281Z" fill="#F6CC11"/>
<path fill-rule="evenodd" clip-rule="evenodd" d="M17.7656 4.82811C18.3914 4.81251 19.0164 4.82814 19.6406 4.87498C20.0156 5.15623 20.0156 5.43748 19.6406 5.71873C19.0156 5.78123 18.3906 5.78123 17.7656 5.71873C17.4167 5.43152 17.4167 5.13464 17.7656 4.82811Z" fill="#32D43F"/>
<path fill-rule="evenodd" clip-rule="evenodd" d="M7.73438 7.73438C18.5468 7.73438 29.3594 7.73438 40.1719 7.73438C40.1719 8.79687 40.1719 9.85941 40.1719 10.9219C40.1875 16.7345 40.1719 22.547 40.125 28.3594C39.9135 28.8522 39.5541 29.1803 39.0469 29.3438C28.9531 29.4063 18.8594 29.4063 8.76563 29.3438C8.3125 29.1406 7.98438 28.8125 7.78125 28.3594C7.73438 22.547 7.71875 16.7345 7.73438 10.9219C7.73438 9.85941 7.73438 8.79687 7.73438 7.73438Z" fill="#E1E6F3"/>
<path fill-rule="evenodd" clip-rule="evenodd" d="M32.8668 20.3558C32.7904 20.684 32.7244 21.0146 32.6687 21.3475C32.5288 21.7227 32.3747 22.0974 32.2066 22.4714C31.7967 23.426 31.2245 24.2634 30.49 24.9835C30.4638 24.9158 30.4198 24.9047 30.358 24.9505C28.1246 26.5481 25.6598 27.055 22.9635 26.471C19.4908 25.4839 17.2791 23.2471 16.3283 19.7609C15.7436 16.8365 16.3708 14.2141 18.2099 11.8938C20.4627 10.0352 23.0376 9.38508 25.9345 9.94356C29.9336 10.9951 32.2774 13.5624 32.9658 17.6453C33.0336 18.557 33.0006 19.4605 32.8668 20.3558Z" fill="#8ADDF8"/>
<path opacity="0.992" fill-rule="evenodd" clip-rule="evenodd" d="M18.2097 11.894C16.3706 14.2144 15.7434 16.8367 16.3281 19.7611C17.2788 23.2473 19.4906 25.4841 22.9633 26.4713C25.6596 27.0552 28.1244 26.5483 30.3578 24.9507C30.4196 24.905 30.4636 24.916 30.4898 24.9838C28.2976 27.1589 25.6567 28.0514 22.5672 27.6612C19.4646 27.0321 17.2198 25.3023 15.8329 22.4716C15.6775 22.0703 15.5235 21.6736 15.3707 21.2816C15.3428 20.9484 15.2548 20.6399 15.1067 20.3561C14.7041 17.4572 15.4413 14.9009 17.3184 12.6874C17.5874 12.3846 17.8845 12.1202 18.2097 11.894Z" fill="#8ADDF8"/>
<path fill-rule="evenodd" clip-rule="evenodd" d="M27.3208 17.0504C26.5945 17.7336 25.8903 18.4388 25.2081 19.166C24.4621 19.8798 23.7249 20.607 22.9963 21.3476C23.1434 22.2165 23.3085 23.0869 23.4915 23.9589C23.1761 24.3519 22.8239 24.7156 22.4351 25.0497C21.9011 24.0464 21.3839 23.0327 20.8836 22.0087C19.8435 21.4493 18.7981 20.8984 17.7476 20.3559C18.0781 19.9919 18.4193 19.6393 18.7709 19.2982C19.6617 19.4899 20.553 19.6552 21.4448 19.794C22.1844 19.0645 22.9106 18.3262 23.6235 17.5793C24.3057 16.8521 25.01 16.1469 25.7362 15.4638C26.4462 14.8108 27.1945 14.2048 27.981 13.6458C28.5257 13.3509 28.9549 13.4721 29.2684 14.0094C29.3125 14.1857 29.3125 14.362 29.2684 14.5383C28.7059 15.4431 28.0567 16.2805 27.3208 17.0504Z" fill="#056BDA"/>
<path fill-rule="evenodd" clip-rule="evenodd" d="M25.7363 15.4637C25.0101 16.1468 24.3058 16.852 23.6236 17.5792C22.0638 16.7321 20.4792 15.9167 18.87 15.1331C18.8026 15.1 18.7916 15.0559 18.837 15.0009C19.3438 14.6694 19.85 14.3388 20.3555 14.0093C22.148 14.5069 23.9416 14.9917 25.7363 15.4637Z" fill="#075ABD"/>
<path fill-rule="evenodd" clip-rule="evenodd" d="M27.3212 17.0503C27.8049 18.8556 28.2892 20.6625 28.7737 22.4713C28.4416 22.9472 28.1225 23.4319 27.8164 23.9257C27.7574 24.0058 27.7024 24.0058 27.6513 23.9257C26.8688 22.3144 26.0545 20.7277 25.2085 19.1658C25.8907 18.4386 26.595 17.7334 27.3212 17.0503Z" fill="#085ABD"/>
<path opacity="0.997" fill-rule="evenodd" clip-rule="evenodd" d="M7.73438 10.9218C7.71875 16.7344 7.73438 22.5469 7.78125 28.3593C7.98438 28.8124 8.3125 29.1406 8.76563 29.3437C18.8594 29.4063 28.9531 29.4063 39.0469 29.3437C39.5541 29.1803 39.9135 28.8522 40.125 28.3593C40.1719 22.5469 40.1875 16.7344 40.1719 10.9218C40.8601 10.9063 41.5476 10.9218 42.2344 10.9687C43.1438 11.1656 43.722 11.7124 43.9688 12.6093C44.0156 19.6093 44.0313 26.6093 44.0156 33.6093C30.6406 33.6093 17.2657 33.6093 3.89063 33.6093C3.875 26.6093 3.89063 19.6093 3.9375 12.6093C4.18425 11.7124 4.76238 11.1656 5.67188 10.9687C6.35867 10.9218 7.04617 10.9063 7.73438 10.9218Z" fill="#649AF5"/>
<path opacity="0.99" fill-rule="evenodd" clip-rule="evenodd" d="M3.89062 33.6094C17.2656 33.6094 30.6406 33.6094 44.0156 33.6094C44.0313 34.7348 44.0156 35.8598 43.9687 36.9844C43.7032 37.75 43.1875 38.2657 42.4219 38.5313C37.52 38.6702 32.6137 38.7171 27.7031 38.6719C25.2031 38.5469 22.7031 38.5469 20.2031 38.6719C15.262 38.7167 10.3246 38.6698 5.39062 38.5313C4.67912 38.2261 4.19475 37.7105 3.93749 36.9844C3.89063 35.8598 3.87501 34.7348 3.89062 33.6094Z" fill="#426880"/>
<path fill-rule="evenodd" clip-rule="evenodd" d="M27.7031 38.6719C27.7031 40.4531 27.7031 42.2344 27.7031 44.0156C25.2031 44.0156 22.7032 44.0156 20.2031 44.0156C20.2031 42.2344 20.2031 40.4531 20.2031 38.6719C22.7032 38.5469 25.2031 38.5469 27.7031 38.6719Z" fill="#28475A"/>
<path opacity="0.994" fill-rule="evenodd" clip-rule="evenodd" d="M20.2031 44.0156C22.7032 44.0156 25.2031 44.0156 27.7031 44.0156C28.9848 44 30.266 44.0156 31.5469 44.0625C31.7969 44.3438 31.7969 44.625 31.5469 44.9063C26.4844 44.9688 21.4219 44.9688 16.3594 44.9063C16.1094 44.625 16.1094 44.3438 16.3594 44.0625C17.6403 44.0156 18.9215 44 20.2031 44.0156Z" fill="#426880"/>
</svg>
