<svg width="229" height="168" viewBox="0 0 229 168" fill="none" xmlns="http://www.w3.org/2000/svg">
<g clip-path="url(#clip0_14294_21940)">
<path d="M43.5547 139.822H42.0925V105.273C42.0925 102.457 44.3671 100.183 47.1832 100.183H54.8192V101.645H47.1832C45.1794 101.645 43.5006 103.269 43.5006 105.327V139.822H43.5547Z" fill="#0054A6"/>
<path d="M74.1 50.0999V45.9999C74.1 45.1999 73.5 44.5999 72.7 44.5999H70.8C70.2 44.5999 69.6 44.1999 69.5 43.5999C69.2 42.6999 68.8 41.7999 68.4 40.8999C68.1 40.3999 68.2 39.6999 68.7 39.2999L70.1 37.8999C70.6 37.3999 70.6 36.4999 70.1 35.8999L67.2 32.9999C66.7 32.4999 65.8 32.4999 65.2 32.9999L63.8 34.3999C63.4 34.7999 62.7 34.8999 62.2 34.6999C61.4 34.2999 60.5 33.8999 59.5 33.5999C58.9 33.3999 58.5 32.8999 58.5 32.2999V30.3999C58.5 29.5999 57.9 28.9999 57.1 28.9999H53C52.2 28.9999 51.6 29.5999 51.6 30.3999V32.2999C51.6 32.8999 51.2 33.4999 50.6 33.5999C49.7 33.8999 48.8 34.2999 47.9 34.6999C47.4 34.9999 46.7 34.8999 46.3 34.3999L44.9 33.0999C44.4 32.5999 43.5 32.5999 42.9 33.0999L40 35.9999C39.5 36.4999 39.5 37.3999 40 37.9999L41.4 39.3999C41.8 39.7999 41.9 40.4999 41.7 40.9999C41.3 41.7999 40.9 42.6999 40.6 43.6999C40.4 44.2999 39.9 44.6999 39.3 44.6999H37.4C36.6 44.6999 36 45.2999 36 46.0999V50.1999C36 50.9999 36.6 51.5999 37.4 51.5999H39.3C39.9 51.5999 40.5 51.9999 40.6 52.5999C40.9 53.4999 41.3 54.3999 41.7 55.2999C42 55.7999 41.9 56.4999 41.4 56.8999L40 58.2999C39.5 58.7999 39.5 59.6999 40 60.2999L42.9 63.1999C43.4 63.6999 44.3 63.6999 44.9 63.1999L46.3 61.7999C46.7 61.3999 47.4 61.2999 47.9 61.4999C48.7 61.8999 49.6 62.2999 50.6 62.5999C51.2 62.7999 51.6 63.2999 51.6 63.8999V65.7999C51.6 66.5999 52.2 67.1999 53 67.1999H57.1C57.9 67.1999 58.5 66.5999 58.5 65.7999V63.8999C58.5 63.2999 58.9 62.6999 59.5 62.5999C60.4 62.2999 61.3 61.8999 62.2 61.4999C62.7 61.1999 63.4 61.2999 63.8 61.7999L65.2 63.1999C65.7 63.6999 66.6 63.6999 67.2 63.1999L70.1 60.2999C70.6 59.7999 70.6 58.8999 70.1 58.2999L68.7 56.8999C68.3 56.4999 68.2 55.7999 68.4 55.2999C68.8 54.4999 69.2 53.5999 69.5 52.5999C69.7 51.9999 70.2 51.5999 70.8 51.5999H72.7C73.5 51.4999 74.1 50.8999 74.1 50.0999ZM55 55.6999C50.8 55.6999 47.4 52.2999 47.4 48.0999C47.4 43.8999 50.8 40.4999 55 40.4999C59.2 40.4999 62.6 43.8999 62.6 48.0999C62.6 52.2999 59.2 55.6999 55 55.6999Z" fill="#829198"/>
<path d="M54.8195 102.133H53.4656C53.2489 102.133 53.1406 101.97 53.1406 101.808V100.021C53.1406 99.8039 53.3031 99.6956 53.4656 99.6956H54.8195V102.133Z" fill="#0054A6"/>
<path d="M154.684 117.404H75.8329C75.2372 117.404 74.804 116.916 74.804 116.375C74.804 115.779 75.2914 115.346 75.8329 115.346H154.684C155.28 115.346 155.713 115.833 155.713 116.375C155.713 116.97 155.226 117.404 154.684 117.404Z" fill="#5F737C"/>
<path d="M127.011 131.699H103.453V159.317H127.011V131.699Z" fill="#002548"/>
<path d="M170.39 138.198H60.0735C57.2032 138.198 54.8203 135.87 54.8203 132.945V58.9729C54.8203 56.1028 57.149 53.7201 60.0735 53.7201H170.39C173.26 53.7201 175.643 56.0487 175.643 58.9729V133C175.643 135.87 173.314 138.198 170.39 138.198Z" fill="#002548"/>
<path d="M171.521 126.23H58.9308C57.6852 126.23 56.6562 125.201 56.6562 123.956V59.3516C56.6562 57.0772 58.4976 55.2902 60.718 55.2902H169.734C172.009 55.2902 173.796 57.1314 173.796 59.3516V123.956C173.796 125.201 172.767 126.23 171.521 126.23Z" fill="#D2D9DC"/>
<path d="M141.04 159.372H89.4289C88.8874 159.372 88.5083 158.885 88.6708 158.343L89.2123 156.61C89.4289 155.906 90.133 155.364 90.8912 155.364H139.632C140.39 155.364 141.094 155.852 141.311 156.61L141.852 158.343C141.96 158.83 141.581 159.372 141.04 159.372Z" fill="#002548"/>
<path opacity="0.19" d="M127.011 138.198H103.453V142.097H127.011V138.198Z" fill="#F9FAFB"/>
<path d="M144.664 133.866C145.532 133.866 146.235 133.163 146.235 132.296C146.235 131.428 145.532 130.725 144.664 130.725C143.797 130.725 143.094 131.428 143.094 132.296C143.094 133.163 143.797 133.866 144.664 133.866Z" fill="#0054A6"/>
<path d="M152.082 133.866C152.949 133.866 153.653 133.163 153.653 132.296C153.653 131.428 152.949 130.725 152.082 130.725C151.215 130.725 150.511 131.428 150.511 132.296C150.511 133.163 151.215 133.866 152.082 133.866Z" fill="#0054A6"/>
<path d="M159.502 133.866C160.37 133.866 161.073 133.163 161.073 132.296C161.073 131.428 160.37 130.725 159.502 130.725C158.635 130.725 157.932 131.428 157.932 132.296C157.932 133.163 158.635 133.866 159.502 133.866Z" fill="#0054A6"/>
<path d="M173.909 59.3232V120.981C173.909 122.2 172.474 123.149 170.847 123.149H59.9455C58.2232 123.149 56.8835 122.132 56.8835 120.981V59.3232C56.8835 58.1036 58.3189 57.1551 59.9455 57.1551H170.751C172.474 57.0873 173.909 58.1036 173.909 59.3232Z" fill="#D1D8DB"/>
<path d="M173.909 58.034V62.5949H56.2031V58.034C56.2031 56.3921 57.6456 55.115 59.2804 55.115H170.735C172.466 55.0238 173.909 56.3921 173.909 58.034Z" fill="#002548"/>
<path d="M66.3408 60.1487C66.3408 60.4889 66.613 60.8291 67.0212 60.8291C67.4294 60.8291 67.7016 60.557 67.7016 60.1487C67.7016 59.7405 67.4294 59.4684 67.0212 59.4684C66.613 59.4684 66.3408 59.8085 66.3408 60.1487Z" fill="#54CB5A"/>
<path d="M64.1635 60.8291C64.5393 60.8291 64.8439 60.5245 64.8439 60.1487C64.8439 59.773 64.5393 59.4684 64.1635 59.4684C63.7878 59.4684 63.4832 59.773 63.4832 60.1487C63.4832 60.5245 63.7878 60.8291 64.1635 60.8291Z" fill="#FFDC33"/>
<path d="M61.374 60.8291C61.7497 60.8291 62.0544 60.5245 62.0544 60.1487C62.0544 59.773 61.7497 59.4684 61.374 59.4684C60.9982 59.4684 60.6936 59.773 60.6936 60.1487C60.6936 60.5245 60.9982 60.8291 61.374 60.8291Z" fill="#EC1C24"/>
<path d="M62.8185 71.443H69.019C69.519 71.443 69.919 71.1709 69.919 70.8307C69.919 70.4905 69.519 70.2184 69.019 70.2184H62.8185C62.3185 70.2184 61.9185 70.4905 61.9185 70.8307C61.9185 71.1709 62.3185 71.443 62.8185 71.443Z" fill="#54CB5A"/>
<path d="M74.3192 71.443H96.5209C97.0209 71.443 97.421 71.1709 97.421 70.8307C97.421 70.4905 97.0209 70.2184 96.5209 70.2184H74.3192C73.8192 70.2184 73.4192 70.4905 73.4192 70.8307C73.4192 71.1709 73.8192 71.443 74.3192 71.443Z" fill="#54CB5A"/>
<path d="M101.722 71.443H116.823H119.923H123.023C123.523 71.443 123.923 71.1709 123.923 70.8307C123.923 70.4905 123.523 70.2184 123.023 70.2184H119.923H116.823H101.722C101.222 70.2184 100.822 70.4905 100.822 70.8307C100.822 71.1709 101.222 71.443 101.722 71.443Z" fill="#54CB5A"/>
<path d="M62.8185 82.3291H75.9195C76.4195 82.3291 76.8196 82.057 76.8196 81.7168C76.8196 81.3766 76.4195 81.1044 75.9195 81.1044H62.8185C62.3185 81.1044 61.9185 81.3766 61.9185 81.7168C61.9185 81.9889 62.3185 82.3291 62.8185 82.3291Z" fill="#54CB5A"/>
<path d="M104.922 81.6488C104.922 81.3086 104.522 81.0364 104.021 81.0364H81.1198C80.6198 81.0364 80.2197 81.3086 80.2197 81.6488C80.2197 81.9889 80.6198 82.2611 81.1198 82.2611H103.921C104.522 82.3291 104.922 81.9889 104.922 81.6488Z" fill="#54CB5A"/>
<path d="M119.823 82.3291H129.823C130.323 82.3291 130.723 82.057 130.723 81.7168C130.723 81.3766 130.323 81.1044 129.823 81.1044H116.722H109.122C108.622 81.1044 108.222 81.3766 108.222 81.7168C108.222 82.057 108.622 82.3291 109.122 82.3291H119.823Z" fill="#54CB5A"/>
<path d="M83.7201 91.9225H62.8185C62.3185 91.9225 61.9185 92.1946 61.9185 92.5348C61.9185 92.875 62.3185 93.1472 62.8185 93.1472H83.6201C84.1201 93.1472 84.5201 92.875 84.5201 92.5348C84.6201 92.1946 84.2201 91.9225 83.7201 91.9225Z" fill="#54CB5A"/>
<path d="M106.821 91.9225H88.9201C88.4201 91.9225 88.02 92.1946 88.02 92.5348C88.02 92.875 88.4201 93.1472 88.9201 93.1472H106.821C107.321 93.1472 107.721 92.875 107.721 92.5348C107.721 92.1946 107.321 91.9225 106.821 91.9225Z" fill="#54CB5A"/>
<path d="M62.8185 76.8861H85.8202C86.3203 76.8861 86.7203 76.6139 86.7203 76.2737C86.7203 75.9335 86.3203 75.6614 85.8202 75.6614H62.8185C62.3185 75.6614 61.9185 75.9335 61.9185 76.2737C61.9185 76.5459 62.3185 76.8861 62.8185 76.8861Z" fill="#54CB5A"/>
<path d="M62.8185 87.7721H94.7209C95.2209 87.7721 95.6209 87.5 95.6209 87.1598C95.6209 86.8196 95.2209 86.5475 94.7209 86.5475H62.8185C62.3185 86.5475 61.9185 86.8196 61.9185 87.1598C61.9185 87.4319 62.3185 87.7721 62.8185 87.7721Z" fill="#54CB5A"/>
<path d="M100.021 87.7721H119.823H148.725C149.225 87.7721 149.625 87.5 149.625 87.1598C149.625 86.8196 149.225 86.5475 148.725 86.5475H116.823H100.021C99.5214 86.5475 99.1213 86.8196 99.1213 87.1598C99.1213 87.4319 99.5214 87.7721 100.021 87.7721Z" fill="#54CB5A"/>
<path d="M128.224 71.443H150.425C150.925 71.443 151.326 71.1709 151.326 70.8307C151.326 70.4905 150.925 70.2184 150.425 70.2184H128.224C127.724 70.2184 127.324 70.4905 127.324 70.8307C127.324 71.1709 127.724 71.443 128.224 71.443Z" fill="#54CB5A"/>
<path d="M168.926 70.1503H155.625C155.125 70.1503 154.725 70.4225 154.725 70.7627C154.725 71.1029 155.125 71.375 155.625 71.375H168.826C169.326 71.375 169.726 71.1029 169.726 70.7627C169.826 70.4225 169.426 70.1503 168.926 70.1503Z" fill="#54CB5A"/>
<path d="M158.825 81.6488C158.825 81.3086 158.425 81.0364 157.925 81.0364H135.124C134.624 81.0364 134.224 81.3086 134.224 81.6488C134.224 81.9889 134.624 82.2611 135.124 82.2611H157.925C158.425 82.3291 158.825 81.9889 158.825 81.6488Z" fill="#54CB5A"/>
<path d="M168.926 81.0364H163.126C162.626 81.0364 162.226 81.3086 162.226 81.6488C162.226 81.9889 162.626 82.2611 163.126 82.2611H168.926C169.426 82.2611 169.826 81.9889 169.826 81.6488C169.826 81.3086 169.426 81.0364 168.926 81.0364Z" fill="#54CB5A"/>
<path d="M137.624 91.9225H116.822H112.122C111.622 91.9225 111.222 92.1946 111.222 92.5348C111.222 92.875 111.622 93.1472 112.122 93.1472H119.923H137.624C138.124 93.1472 138.524 92.875 138.524 92.5348C138.624 92.1946 138.124 91.9225 137.624 91.9225Z" fill="#54CB5A"/>
<path d="M160.825 91.9225H142.924C142.424 91.9225 142.024 92.1946 142.024 92.5348C142.024 92.875 142.424 93.1472 142.924 93.1472H160.825C161.325 93.1472 161.725 92.875 161.725 92.5348C161.725 92.1946 161.325 91.9225 160.825 91.9225Z" fill="#54CB5A"/>
<path d="M168.927 91.9225H166.026C165.526 91.9225 165.126 92.1946 165.126 92.5348C165.126 92.875 165.526 93.1472 166.026 93.1472H168.927C169.427 93.1472 169.827 92.875 169.827 92.5348C169.827 92.1946 169.427 91.9225 168.927 91.9225Z" fill="#54CB5A"/>
<path d="M139.824 75.5934H119.823H116.722H91.1205C90.6205 75.5934 90.2205 75.8655 90.2205 76.2057C90.2205 76.5459 90.6205 76.818 91.1205 76.818H116.822H119.923H139.924C140.424 76.818 140.824 76.5459 140.824 76.2057C140.724 75.8655 140.324 75.5934 139.824 75.5934Z" fill="#54CB5A"/>
<path d="M168.926 75.5934H145.124C144.624 75.5934 144.224 75.8655 144.224 76.2057C144.224 76.5459 144.624 76.818 145.124 76.818H168.926C169.426 76.818 169.826 76.5459 169.826 76.2057C169.826 75.8655 169.426 75.5934 168.926 75.5934Z" fill="#54CB5A"/>
<path d="M168.927 86.4794H154.026C153.526 86.4794 153.125 86.7516 153.125 87.0918C153.125 87.432 153.526 87.7041 154.026 87.7041H168.927C169.427 87.7041 169.827 87.432 169.827 87.0918C169.827 86.7516 169.427 86.4794 168.927 86.4794Z" fill="#54CB5A"/>
<path d="M66.0614 117.029H77.9681C78.9206 117.029 79.8051 116.62 80.4174 116.008C81.0298 115.396 81.438 114.511 81.438 113.559V102.809C81.438 101.992 81.1658 101.176 80.6215 100.563C80.0092 99.7469 78.9886 99.2706 77.9 99.2706H66.0614C65.1769 99.2706 64.2924 99.6108 63.6801 100.155C62.9997 100.767 62.5234 101.72 62.5234 102.741V113.491C62.5234 114.443 62.9317 115.328 63.544 115.94C64.1563 116.62 65.0408 117.029 66.0614 117.029Z" fill="#0054A5"/>
<path d="M71.6406 104.441H71.7087C73.7498 104.441 75.4508 106.074 75.4508 108.184C75.4508 108.524 75.3827 108.932 75.3147 109.272L77.0837 109.544C77.0837 109.544 77.2197 108.796 77.2197 108.184C77.2197 105.122 74.7704 102.672 71.7087 102.672H71.6406V104.441Z" fill="#54CB5A"/>
<path d="M77.0893 109.544L75.3203 109.272L77.0893 109.544Z" fill="#FFDC33"/>
<path d="M74.5718 110.565C73.8914 111.381 72.8708 111.926 71.7142 111.926C69.6731 111.926 67.9721 110.293 67.9721 108.184C67.9721 106.687 68.8566 105.394 70.2174 104.782V102.877C67.9041 103.557 66.2031 105.666 66.2031 108.184C66.2031 111.245 68.6525 113.695 71.7142 113.695C73.7553 113.695 75.5924 112.538 76.5449 110.837L74.5718 110.565Z" fill="#FFDC33"/>
</g>
<path d="M46.3 167.8H3.5C1.6 167.8 0 166.2 0 164.3V121.5C0 119.6 1.6 118 3.5 118H46.3C48.2 118 49.8 119.6 49.8 121.5V164.3C49.8 166.2 48.3 167.8 46.3 167.8Z" fill="#0054A5"/>
<path d="M16.6001 143.4H9.30005V156.8H16.6001V143.4Z" fill="#F8F9FA"/>
<path d="M28.4001 135.7H21.1001V156.8H28.4001V135.7Z" fill="#F8F9FA"/>
<path d="M40.6001 128.9H33.3V156.8H40.6001V128.9Z" fill="#F8F9FA"/>
<path d="M186.4 143.1H160.3C159.2 143.1 158.2 142.7 157.4 142C156.5 141.2 156 140 156 138.8V125.4C156 124.2 156.5 123.1 157.3 122.3C158.1 121.5 159.2 121 160.4 121H186.5C187.4 121 188.2 121.3 188.9 121.7C190.1 122.5 190.9 123.8 190.9 125.3V138.7C190.9 139.7 190.5 140.7 189.9 141.4C189 142.5 187.7 143.1 186.4 143.1Z" fill="#EC1C24"/>
<path d="M159.6 137.4C159.5 137.4 159.5 137.4 159.4 137.3C159.3 137.2 159.4 137.1 159.4 137L168.5 130.3C168.5 130.3 168.6 130.3 168.7 130.3L177.7 133.3L186.7 126.7C186.8 126.6 186.9 126.7 187 126.7C187.1 126.8 187 126.9 187 127L177.9 133.6C177.9 133.6 177.8 133.6 177.7 133.6L168.7 130.6L159.7 137.2C159.7 137.4 159.7 137.4 159.6 137.4Z" fill="#F8F9FA"/>
<path d="M188.1 127C188.1 127.6 187.6 128.1 187 128.1C186.4 128.1 185.9 127.6 185.9 127C185.9 126.4 186.4 125.9 187 125.9C187.6 125.9 188.1 126.4 188.1 127Z" fill="#F8F9FA"/>
<path d="M179 133.3C179 133.9 178.5 134.4 177.9 134.4C177.3 134.4 176.8 133.9 176.8 133.3C176.8 132.7 177.3 132.2 177.9 132.2C178.5 132.2 179 132.7 179 133.3Z" fill="#F8F9FA"/>
<path d="M169.9 130.6C169.9 131.2 169.4 131.7 168.8 131.7C168.2 131.7 167.7 131.2 167.7 130.6C167.7 130 168.2 129.5 168.8 129.5C169.4 129.5 169.9 130 169.9 130.6Z" fill="#F8F9FA"/>
<path d="M160.7 137.2C160.7 137.8 160.2 138.3 159.6 138.3C159 138.3 158.5 137.8 158.5 137.2C158.5 136.6 159 136.1 159.6 136.1C160.2 136.1 160.7 136.6 160.7 137.2Z" fill="#F8F9FA"/>
<path d="M198.3 72.8H155.5C153.6 72.8 152 71.2 152 69.3V26.5C152 24.6 153.6 23 155.5 23H198.3C200.2 23 201.8 24.6 201.8 26.5V69.3C201.8 71.2 200.2 72.8 198.3 72.8Z" fill="#0F579B"/>
<path d="M169.8 54.4L159.3 49.1V47.4L169.8 41.3V44.2L162.5 48.1L169.8 51.5V54.4Z" fill="#F8F9FA"/>
<path d="M181 38.9L175 56.9H172L177.9 38.9H181Z" fill="#F8F9FA"/>
<path d="M183.2 51.5L190.9 48L183.2 44.1V41.1L194.4 47.2V49L183.2 54.4V51.5Z" fill="#F8F9FA"/>
<defs>
<clipPath id="clip0_14294_21940">
<rect width="215" height="159.209" fill="white" transform="translate(13.3359)"/>
</clipPath>
</defs>
</svg>
