<svg width="573" height="460" viewBox="0 0 573 460" fill="none" xmlns="http://www.w3.org/2000/svg">
<path d="M286.5 360.44C400.547 360.44 493 356.106 493 350.76C493 345.414 400.547 341.08 286.5 341.08C172.453 341.08 80 345.414 80 350.76C80 356.106 172.453 360.44 286.5 360.44Z" fill="#D2D9DC"/>
<path d="M109.32 217.97C109.88 217.62 110.57 217.64 111.13 217.98C111.28 218.07 111.44 218.16 111.59 218.24C111.75 218.33 111.91 218.41 112.07 218.48C112.66 218.76 113.06 219.33 113.08 219.98L113.15 222.21L120.41 221.98L120.34 219.75C120.32 219.1 120.68 218.5 121.25 218.18C121.57 218.01 121.87 217.82 122.17 217.61C122.7 217.24 123.4 217.19 123.97 217.49L125.93 218.54L129.36 212.14L127.4 211.09C126.83 210.78 126.49 210.18 126.5 209.52C126.51 209.16 126.5 208.8 126.46 208.44C126.4 207.79 126.7 207.16 127.26 206.81L129.15 205.63L125.32 199.46L123.42 200.64C122.87 200.98 122.17 200.96 121.62 200.63C121.47 200.54 121.31 200.45 121.16 200.37C121 200.29 120.84 200.21 120.68 200.13C120.09 199.85 119.69 199.28 119.67 198.63L119.6 196.4L112.34 196.63L112.41 198.85C112.43 199.5 112.07 200.1 111.5 200.42C111.18 200.59 110.87 200.78 110.58 200.99C110.04 201.36 109.35 201.41 108.78 201.11L106.82 200.06L103.39 206.46L105.35 207.51C105.92 207.82 106.27 208.42 106.25 209.08C106.24 209.44 106.25 209.81 106.28 210.17C106.34 210.82 106.03 211.45 105.48 211.79L103.59 212.96L107.42 219.13L109.32 217.97ZM111.14 206.5C112.69 203.61 116.3 202.52 119.2 204.07C122.1 205.62 123.18 209.23 121.63 212.12C120.08 215.01 116.48 216.1 113.58 214.55C110.68 213 109.59 209.4 111.14 206.5Z" fill="#839299"/>
<path d="M391.35 124.86C391.75 125.09 391.97 125.53 391.94 125.98C391.93 126.1 391.93 126.23 391.93 126.35C391.93 126.48 391.93 126.6 391.94 126.73C391.96 127.19 391.75 127.62 391.35 127.85L390 128.63L392.54 133.04L393.89 132.26C394.29 132.03 394.77 132.05 395.16 132.3C395.37 132.44 395.59 132.56 395.82 132.68C396.23 132.89 396.49 133.3 396.49 133.75V135.31H401.58V133.75C401.58 133.29 401.84 132.88 402.25 132.68C402.48 132.56 402.69 132.44 402.91 132.3C403.29 132.05 403.78 132.03 404.18 132.26L405.53 133.04L408.07 128.63L406.71 127.85C406.32 127.62 406.1 127.19 406.12 126.73C406.13 126.61 406.13 126.48 406.13 126.36C406.13 126.23 406.13 126.11 406.12 125.99C406.1 125.53 406.32 125.1 406.71 124.87L408.06 124.09L405.52 119.68L404.17 120.46C403.77 120.69 403.29 120.67 402.9 120.42C402.69 120.28 402.47 120.15 402.24 120.04C401.83 119.83 401.57 119.42 401.57 118.97V117.41H396.48V118.97C396.48 119.43 396.22 119.84 395.81 120.04C395.58 120.16 395.36 120.28 395.15 120.42C394.77 120.67 394.28 120.69 393.88 120.46L392.53 119.68L389.99 124.09L391.35 124.86ZM399.03 122.19C401.33 122.19 403.2 124.06 403.2 126.36C403.2 128.66 401.33 130.53 399.03 130.53C396.73 130.53 394.86 128.67 394.86 126.36C394.86 124.06 396.73 122.19 399.03 122.19Z" fill="#839299"/>
<path d="M428.42 123.951C428.42 134.891 437.29 143.761 448.23 143.761C459.17 143.761 468.04 134.891 468.04 123.951C468.04 113.011 459.17 104.141 448.23 104.141C437.29 104.141 428.42 113.001 428.42 123.951ZM438.98 123.951C438.98 118.841 443.12 114.691 448.24 114.691C453.35 114.691 457.5 118.831 457.5 123.951C457.5 129.061 453.36 133.201 448.24 133.201C443.12 133.201 438.98 129.061 438.98 123.951Z" fill="#839299"/>
<path d="M444.42 104.961H452.04L451.62 99.5605H444.84L444.42 104.961Z" fill="#839299"/>
<path d="M458.92 107.521L464.31 112.911L467.83 108.801L463.04 104.011L458.92 107.521Z" fill="#839299"/>
<path d="M467.36 119.591V127.211L472.76 126.791V120.011L467.36 119.591Z" fill="#839299"/>
<path d="M464.8 134.101L459.41 139.481L463.52 143.001L468.31 138.211L464.8 134.101Z" fill="#839299"/>
<path d="M452.73 142.541H445.11L445.53 147.931H452.31L452.73 142.541Z" fill="#839299"/>
<path d="M438.22 139.97L432.84 134.58L429.32 138.69L434.11 143.48L438.22 139.97Z" fill="#839299"/>
<path d="M429.78 127.9V120.28L424.39 120.7V127.48L429.78 127.9Z" fill="#839299"/>
<path d="M432.35 113.4L437.74 108.01L433.63 104.49L428.84 109.28L432.35 113.4Z" fill="#839299"/>
<path d="M482 335.75H94.1602V349.88H482V335.75Z" fill="#839299"/>
<path d="M325.88 335.75H250.27V341.5H325.88V335.75Z" fill="#5F737C"/>
<path d="M441.92 129.92H134.23V335.74H441.92V129.92Z" fill="#D2D9DC"/>
<path d="M439.69 132.43H136.47V333.23H439.69V132.43Z" fill="#002548"/>
<path d="M426.26 145.34H149.9V320.33H426.26V145.34Z" fill="#F9FAFB"/>
<path d="M426.26 145.34H149.9V152.07H426.26V145.34Z" fill="#839299"/>
<path d="M156.24 148.71C156.24 149.41 155.67 149.98 154.97 149.98C154.27 149.98 153.7 149.41 153.7 148.71C153.7 148.01 154.27 147.44 154.97 147.44C155.67 147.43 156.24 148 156.24 148.71Z" fill="#C8C8C8"/>
<path d="M161.44 148.71C161.44 149.41 160.87 149.98 160.17 149.98C159.47 149.98 158.9 149.41 158.9 148.71C158.9 148.01 159.47 147.44 160.17 147.44C160.87 147.43 161.44 148 161.44 148.71Z" fill="white"/>
<path d="M166.64 148.71C166.64 149.41 166.07 149.98 165.37 149.98C164.67 149.98 164.1 149.41 164.1 148.71C164.1 148.01 164.67 147.44 165.37 147.44C166.07 147.43 166.64 148 166.64 148.71Z" fill="#0054A6"/>
<path d="M421.92 152.07H149.9V189.55H421.92V152.07Z" fill="#0054A6"/>
<path d="M426.26 152.07H421.91V301.16H426.26V152.07Z" fill="#DCDCDC"/>
<path d="M424.09 203.76C423.47 203.76 422.97 203.26 422.97 202.64V154.07C422.97 153.45 423.47 152.95 424.09 152.95C424.71 152.95 425.21 153.45 425.21 154.07V202.64C425.21 203.26 424.71 203.76 424.09 203.76Z" fill="#A8A8A8"/>
<path d="M409.91 159.351H351.38V167.161H409.91V159.351Z" fill="white"/>
<path d="M410 167.241H351.3V159.271H410V167.241ZM351.46 167.081H409.83V159.43H351.46V167.081Z" fill="#C8C8C8"/>
<path d="M410.001 159.271H402.021V167.251H410.001V159.271Z" fill="#839299"/>
<path d="M408.49 165.44L407.77 165.99L406.43 164.23L405.94 163.58C406.04 163.54 406.13 163.49 406.22 163.42C406.39 163.29 406.51 163.12 406.59 162.94L407.11 163.62L408.49 165.44Z" fill="white"/>
<path d="M407.07 161.29C406.41 160.43 405.17 160.26 404.31 160.93C403.45 161.59 403.28 162.83 403.95 163.69C404.54 164.47 405.6 164.68 406.44 164.23C406.53 164.18 406.63 164.12 406.71 164.05C406.87 163.93 407.01 163.78 407.12 163.63C407.6 162.94 407.6 161.99 407.07 161.29ZM406.22 163.42C406.13 163.49 406.04 163.54 405.94 163.58C405.46 163.77 404.9 163.63 404.57 163.2C404.17 162.68 404.27 161.94 404.79 161.55C405.31 161.15 406.05 161.25 406.44 161.77C406.71 162.12 406.75 162.56 406.59 162.94C406.51 163.13 406.39 163.29 406.22 163.42Z" fill="white"/>
<path d="M353.441 160.881H353.021V165.621H353.441V160.881Z" fill="#C8C8C8"/>
<path d="M341.06 159.351H181.83V167.161H341.06V159.351Z" fill="white"/>
<path d="M341.13 167.241H181.75V159.271H341.13V167.241ZM181.91 167.081H340.98V159.43H181.91V167.081Z" fill="#C8C8C8"/>
<path d="M183.88 160.881H183.46V165.621H183.88V160.881Z" fill="#C8C8C8"/>
<path d="M167.08 165.93L164.24 163.31L167.08 160.59L167.52 161.05L165.17 163.3L167.52 165.46L167.08 165.93Z" fill="white"/>
<path d="M173.95 160.58L176.8 163.2L173.96 165.92L173.52 165.46L175.87 163.21L173.52 161.05L173.95 160.58Z" fill="white"/>
<path d="M257.817 287.563H289.347V254.033H257.817V287.563Z" fill="#D2D9DC"/>
<path d="M262.16 261.37C261.63 264.16 264.03 266.57 266.83 266.04C268.39 265.74 269.65 264.48 269.95 262.92C270.48 260.13 268.07 257.72 265.28 258.25C263.72 258.55 262.46 259.81 262.16 261.37Z" fill="#F9FAFB"/>
<path d="M289.34 280.34H257.81V287.56H289.34V280.34Z" fill="#839299"/>
<path d="M268.22 280.37L289.34 280.34L278.8 267.34L268.22 280.37Z" fill="#5F737C"/>
<path d="M257.81 280.37H276.57L267.19 271.88L257.81 280.37Z" fill="#839299"/>
<path d="M162.433 247.39H224.433V199.82H162.433V247.39Z" fill="#D2D9DC"/>
<path d="M168.61 210.22C167.86 214.18 171.27 217.6 175.23 216.84C177.45 216.42 179.23 214.63 179.65 212.42C180.4 208.46 176.99 205.04 173.03 205.8C170.81 206.22 169.03 208.01 168.61 210.22Z" fill="#F9FAFB"/>
<path d="M182.89 237.14H224.44L203.66 211.54L182.89 237.14Z" fill="#5F737C"/>
<path d="M162.44 237.14H199.28L180.86 220.47L162.44 237.14Z" fill="#839299"/>
<path d="M224.44 237.14H162.44V247.39H224.44V237.14Z" fill="#839299"/>
<path d="M194.84 254.04H162.01V256.8H194.84V254.04Z" fill="#D2D9DC"/>
<path d="M249.95 260.44H162.01V263.2H249.95V260.44Z" fill="#D2D9DC"/>
<path d="M249.95 266.521H162.01V269.281H249.95V266.521Z" fill="#D2D9DC"/>
<path d="M249.95 272.6H162.01V275.36H249.95V272.6Z" fill="#D2D9DC"/>
<path d="M249.95 278.67H162.01V281.43H249.95V278.67Z" fill="#D2D9DC"/>
<path d="M249.95 284.75H162.01V287.51H249.95V284.75Z" fill="#D2D9DC"/>
<path d="M334.17 199.82H299.93V202.58H334.17V199.82Z" fill="#D2D9DC"/>
<path d="M349.78 206.23H299.93V208.99H349.78V206.23Z" fill="#D2D9DC"/>
<path d="M349.78 212.301H299.93V215.061H349.78V212.301Z" fill="#D2D9DC"/>
<path d="M349.78 218.38H299.93V221.14H349.78V218.38Z" fill="#D2D9DC"/>
<path d="M349.78 224.46H299.93V227.22H349.78V224.46Z" fill="#D2D9DC"/>
<path d="M349.78 236.61H299.93V239.37H349.78V236.61Z" fill="#D2D9DC"/>
<path d="M349.78 242.69H299.93V245.45H349.78V242.69Z" fill="#D2D9DC"/>
<path d="M349.78 248.761H299.93V251.521H349.78V248.761Z" fill="#D2D9DC"/>
<path d="M349.78 254.84H299.93V257.6H349.78V254.84Z" fill="#D2D9DC"/>
<path d="M349.78 266.99H299.93V269.75H349.78V266.99Z" fill="#D2D9DC"/>
<path d="M349.78 273.07H299.93V275.83H349.78V273.07Z" fill="#D2D9DC"/>
<path d="M349.78 279.141H299.93V281.901H349.78V279.141Z" fill="#D2D9DC"/>
<path d="M349.78 285.221H299.93V287.981H349.78V285.221Z" fill="#D2D9DC"/>
<path d="M410 206.23H360.15V208.99H410V206.23Z" fill="#D2D9DC"/>
<path d="M410 212.301H360.15V215.061H410V212.301Z" fill="#D2D9DC"/>
<path d="M410 200.15H360.15V202.91H410V200.15Z" fill="#D2D9DC"/>
<path d="M410 218.381H360.15V221.141H410V218.381Z" fill="#D2D9DC"/>
<path d="M410 224.46H360.15V227.22H410V224.46Z" fill="#D2D9DC"/>
<path d="M410 230.53H360.15V233.29H410V230.53Z" fill="#D2D9DC"/>
<path d="M410 236.61H360.15V239.37H410V236.61Z" fill="#D2D9DC"/>
<path d="M410 248.761H360.15V251.521H410V248.761Z" fill="#D2D9DC"/>
<path d="M410 254.841H360.15V257.601H410V254.841Z" fill="#D2D9DC"/>
<path d="M410 260.92H360.15V263.68H410V260.92Z" fill="#D2D9DC"/>
<path d="M410 266.99H360.15V269.75H410V266.99Z" fill="#D2D9DC"/>
<path d="M410 273.07H360.15V275.83H410V273.07Z" fill="#D2D9DC"/>
<path d="M266.9 199.82H234.07V207.21H266.9V199.82Z" fill="#D2D9DC"/>
<path d="M289.34 212.301H234.07V215.061H289.34V212.301Z" fill="#D2D9DC"/>
<path d="M289.34 218.38H234.07V221.14H289.34V218.38Z" fill="#D2D9DC"/>
<path d="M289.34 224.46H234.07V227.22H289.34V224.46Z" fill="#D2D9DC"/>
<path d="M289.34 230.53H234.07V233.29H289.34V230.53Z" fill="#D2D9DC"/>
<path d="M289.34 238.62H234.07V241.38H289.34V238.62Z" fill="#D2D9DC"/>
<path d="M289.34 244.69H234.07V247.45H289.34V244.69Z" fill="#D2D9DC"/>
<path d="M302.15 216.6V228.49H297.86V216.6C297.86 210.83 293.47 206.13 288.08 206.13C282.68 206.13 278.3 210.83 278.3 216.6V228.49H274.01V216.6C274.01 208.33 280.32 201.6 288.08 201.6C295.84 201.6 302.15 208.33 302.15 216.6Z" fill="#839299"/>
<path d="M274.01 217.25L278.3 217.43V228.49H274.01V217.25Z" fill="#2D2F31"/>
<path d="M302.15 218.4V228.49H297.86V218.22L302.15 218.4Z" fill="#2D2F31"/>
<path d="M307.65 219.57H268.51V255.08H307.65V219.57Z" fill="#0054A6"/>
<path opacity="0.19" d="M307.65 219.57H288.08V255.08H307.65V219.57Z" fill="#2D2F31"/>
<path d="M289.74 238.62L291.38 246.39H284.43L286.07 238.62C285.09 238 284.43 236.92 284.43 235.68C284.43 233.74 285.99 232.2 287.91 232.2C289.83 232.2 291.39 233.74 291.39 235.68C291.37 236.93 290.71 238.01 289.74 238.62Z" fill="#2D2F31"/>
<path d="M288.2 170.08L289.7 173.64L293.55 173.97L290.62 176.49L291.5 180.26L288.2 178.26L284.89 180.26L285.77 176.49L282.85 173.97L286.7 173.64L288.2 170.08Z" fill="#FFDD33"/>
<path d="M258.57 177.96L261.65 180.29L265.14 178.65L263.87 182.3L266.52 185.12L262.65 185.04L260.79 188.42L259.67 184.72L255.88 184L259.05 181.79L258.57 177.96Z" fill="#FFDD33"/>
<path d="M236.84 199.59L240.68 200.08L242.88 196.9L243.61 200.7L247.31 201.82L243.92 203.68L244 207.55L241.18 204.9L237.53 206.17L239.18 202.67L236.84 199.59Z" fill="#FFDD33"/>
<path d="M228.85 229.19L232.41 227.69L232.74 223.84L235.26 226.77L239.03 225.89L237.02 229.19L239.03 232.5L235.26 231.62L232.74 234.54L232.41 230.69L228.85 229.19Z" fill="#FFDD33"/>
<path d="M236.72 258.83L239.06 255.75L237.42 252.25L241.07 253.52L243.89 250.87L243.81 254.74L247.19 256.6L243.49 257.72L242.77 261.52L240.56 258.34L236.72 258.83Z" fill="#FFDD33"/>
<path d="M258.36 280.55L258.84 276.71L255.67 274.51L259.47 273.78L260.59 270.08L262.45 273.47L266.31 273.39L263.67 276.21L264.94 279.86L261.44 278.21L258.36 280.55Z" fill="#FFDD33"/>
<path d="M287.96 288.54L286.46 284.98L282.61 284.66L285.54 282.13L284.65 278.37L287.96 280.37L291.27 278.37L290.39 282.13L293.31 284.66L289.46 284.98L287.96 288.54Z" fill="#FFDD33"/>
<path d="M317.59 280.67L314.51 278.33L311.02 279.98L312.29 276.33L309.64 273.51L313.5 273.59L315.37 270.2L316.49 273.9L320.28 274.63L317.11 276.83L317.59 280.67Z" fill="#FFDD33"/>
<path d="M339.32 259.03L335.48 258.55L333.27 261.72L332.55 257.92L328.85 256.81L332.24 254.94L332.16 251.08L334.97 253.72L338.62 252.45L336.98 255.95L339.32 259.03Z" fill="#FFDD33"/>
<path d="M347.31 229.43L343.75 230.93L343.42 234.78L340.9 231.86L337.13 232.74L339.13 229.43L337.13 226.12L340.9 227L343.42 224.08L343.75 227.93L347.31 229.43Z" fill="#FFDD33"/>
<path d="M339.43 199.8L337.1 202.88L338.74 206.38L335.09 205.11L332.27 207.75L332.35 203.89L328.97 202.02L332.67 200.91L333.39 197.11L335.6 200.28L339.43 199.8Z" fill="#FFDD33"/>
<path d="M317.8 178.08L317.31 181.91L320.49 184.12L316.69 184.84L315.57 188.54L313.71 185.16L309.85 185.24L312.49 182.42L311.22 178.77L314.72 180.41L317.8 178.08Z" fill="#FFDD33"/>
<path d="M188.57 322.6C208.082 322.6 223.9 306.783 223.9 287.27C223.9 267.758 208.082 251.94 188.57 251.94C169.058 251.94 153.24 267.758 153.24 287.27C153.24 306.783 169.058 322.6 188.57 322.6Z" fill="#D2D9DC"/>
<path d="M210.83 276.05C210.83 276.05 207.68 301.28 202.5 306.95C196.28 313.76 191.77 312.76 189.26 316.27C189.25 316.27 189.25 316.28 189.25 316.28C186.74 312.76 182.23 313.76 176.01 306.95C170.83 301.27 167.69 276.05 167.69 276.05C181.34 269.43 189.26 262 189.26 262C189.26 262 189.26 262 189.27 262.01C189.51 262.23 197.4 269.53 210.83 276.05Z" fill="#0054A6"/>
<path opacity="0.19" d="M189.27 262V316.27C189.26 316.27 189.26 316.28 189.26 316.28C186.75 312.76 182.24 313.76 176.02 306.95C170.84 301.27 167.7 276.05 167.7 276.05C181.34 269.42 189.26 262 189.27 262C189.26 262 189.26 262 189.27 262Z" fill="#2D2F31"/>
<path d="M171.04 278.08C171.04 278.08 173.7 299.39 178.08 304.19C183.34 309.95 187.15 309.1 189.27 312.07C191.39 309.1 195.2 309.95 200.46 304.19C204.83 299.39 207.49 278.08 207.49 278.08C195.96 272.48 189.27 266.21 189.27 266.21C189.27 266.21 182.57 272.48 171.04 278.08Z" fill="#0054A6"/>
<path opacity="0.19" d="M207.48 278.08C207.48 278.08 204.82 299.39 200.44 304.19C195.19 309.95 191.38 309.11 189.26 312.06V266.22C189.46 266.41 196.13 272.57 207.48 278.08Z" fill="#2D2F31"/>
<path d="M193.23 284.79V288.1H192.04V284.79C192.04 283.18 190.82 281.88 189.32 281.88C187.82 281.88 186.6 283.19 186.6 284.79V288.1H185.41V284.79C185.41 282.49 187.17 280.62 189.33 280.62C191.47 280.62 193.23 282.49 193.23 284.79Z" fill="white"/>
<path d="M183.87 285.62V295.51H194.77V285.62H183.87ZM190.23 293.09H188.29L188.75 290.93C188.48 290.76 188.29 290.46 188.29 290.11C188.29 289.57 188.72 289.14 189.26 289.14C189.79 289.14 190.23 289.57 190.23 290.11C190.23 290.45 190.05 290.75 189.77 290.93L190.23 293.09Z" fill="white"/>
<path d="M168.593 144.463C173.175 125.496 161.512 106.405 142.545 101.824C123.577 97.2422 104.486 108.905 99.9049 127.873C95.3234 146.84 106.986 165.931 125.954 170.512C144.922 175.094 164.012 163.431 168.593 144.463Z" fill="#D2D9DC"/>
<path d="M110.7 153.28H155.57L155.33 122.26H110.46L110.7 153.28Z" fill="#002548"/>
<path d="M139.3 119.05H155.16L155.33 122.26H138.56L139.3 119.05Z" fill="#002548"/>
<g opacity="0.1">
<path d="M110.7 153.28H155.57L155.33 122.26H110.46L110.7 153.28Z" fill="#002548"/>
<path d="M139.3 119.05H155.16L155.33 122.26H138.56L139.3 119.05Z" fill="#002548"/>
</g>
<path d="M110.73 153.28H155.6L159.07 124.08H114.19L110.73 153.28Z" fill="#0054A6"/>
<path d="M143.57 121.061H159.42L159.07 124.081H142.3L143.57 121.061Z" fill="#0054A6"/>
<path d="M139.13 133.79V137.22H137.89V133.79C137.89 132.13 136.63 130.77 135.07 130.77C133.52 130.77 132.25 132.12 132.25 133.79V137.22H131.01V133.79C131.01 131.41 132.83 129.47 135.06 129.47C137.31 129.47 139.13 131.4 139.13 133.79Z" fill="white"/>
<path d="M129.44 134.64V144.87H140.72V134.64H129.44ZM136.03 142.37H134.03L134.5 140.13C134.22 139.95 134.03 139.64 134.03 139.28C134.03 138.72 134.48 138.28 135.03 138.28C135.58 138.28 136.03 138.72 136.03 139.28C136.03 139.64 135.84 139.95 135.56 140.13L136.03 142.37Z" fill="white"/>
<path d="M457.67 247.27C477.183 247.27 493 231.453 493 211.94C493 192.428 477.183 176.61 457.67 176.61C438.158 176.61 422.34 192.428 422.34 211.94C422.34 231.453 438.158 247.27 457.67 247.27Z" fill="#D2D9DC"/>
<path d="M454.01 207.45L470.55 190.92H478.61V198.8H473.45V204.15H468.29V209.5H462.93V214.75L462.07 215.61L454.01 207.45Z" fill="#0054A6"/>
<path d="M478.611 190.92V198.8H473.451V204.15H468.291V209.5H462.941V214.75L462.101 215.59L458.021 211.51L478.611 190.92Z" fill="#0054A6"/>
<path d="M440.571 229.131C445.691 234.251 453.981 234.241 459.101 229.131C464.211 224.021 464.221 215.721 459.101 210.611C453.981 205.491 445.69 205.501 440.58 210.611C435.46 215.721 435.461 224.011 440.571 229.131ZM448.211 221.501C449.551 222.841 449.551 225.001 448.211 226.341C446.871 227.681 444.701 227.681 443.371 226.341C442.031 225.001 442.031 222.831 443.371 221.501C444.701 220.161 446.871 220.161 448.211 221.501Z" fill="#0054A6"/>
<path opacity="0.19" d="M478.611 190.92V198.8H473.451V204.15H468.291V209.5H462.941V214.75L462.101 215.59L458.021 211.51L478.611 190.92Z" fill="#2D2F31"/>
</svg>
