<svg width="114" height="114" viewBox="0 0 114 114" fill="none" xmlns="http://www.w3.org/2000/svg">
<path d="M11.7994 19.0999L56.1994 0.399902C57.1994 -0.100098 58.2994 -0.100098 59.0994 0.399902L102.799 18.2999C104.099 18.7999 105.099 20.0999 105.099 21.3999C105.899 31.2999 106.099 48.8999 97.7994 68.3999C87.0994 93.8999 68.3994 107.9 59.2994 113.4C57.9994 114.2 56.3994 114.2 55.0994 113.4C45.9994 107.7 27.2994 93.8999 16.3994 68.3999C8.29937 49.3999 8.09937 31.9999 8.89937 22.3999C9.39937 20.8999 10.4994 19.5999 11.7994 19.0999Z" fill="#0054A6"/>
<path d="M19.3015 24.9L56.3015 9.3C57.2015 8.9 58.0015 8.9 58.7015 9.3L95.1015 24.2C96.2015 24.6 97.0015 25.7 97.0015 26.8C97.6015 35 97.9015 49.8 90.9015 66C82.0015 87.2 66.4015 98.9 58.9015 103.5C57.8015 104.1 56.5015 104.1 55.4015 103.5C47.8015 98.7 32.2015 87.3 23.1015 66C16.4015 50.2 16.2015 35.7 16.8015 27.7C17.3015 26.4 18.2015 25.3 19.3015 24.9Z" fill="#0054A6"/>
<path opacity="0.19" d="M19.3015 24.9L56.3015 9.3C57.2015 8.9 58.0015 8.9 58.7015 9.3L95.1015 24.2C96.2015 24.6 97.0015 25.7 97.0015 26.8C97.6015 35 97.9015 49.8 90.9015 66C82.0015 87.2 66.4015 98.9 58.9015 103.5C57.8015 104.1 56.5015 104.1 55.4015 103.5C47.8015 98.7 32.2015 87.3 23.1015 66C16.4015 50.2 16.2015 35.7 16.8015 27.7C17.3015 26.4 18.2015 25.3 19.3015 24.9Z" fill="#F9FAFB"/>
<path d="M57.5 79.5C71.5833 79.5 83 68.0833 83 54C83 39.9167 71.5833 28.5 57.5 28.5C43.4167 28.5 32 39.9167 32 54C32 68.0833 43.4167 79.5 57.5 79.5Z" fill="#0054A6"/>
<path d="M69.8984 45.3998C68.5984 44.0998 66.6984 44.0998 65.3984 45.3998L54.2984 56.8998L49.4984 52.0998C48.1984 50.7998 46.2984 50.7998 44.9984 52.0998C43.6984 53.3998 43.6984 55.2998 44.9984 56.5998L50.3984 61.9998C51.3984 62.9998 52.9984 63.5998 54.1984 63.5998C55.4984 63.5998 57.0984 62.9998 57.9984 61.9998L70.0984 49.8998C71.1984 48.5998 71.1984 46.6998 69.8984 45.3998Z" fill="#F9FAFB"/>
</svg>
