<svg width="176" height="96" viewBox="0 0 176 96" fill="none" xmlns="http://www.w3.org/2000/svg">
<path d="M86.7396 95.9998C134.645 95.9998 173.479 94.1949 173.479 91.9684C173.479 89.7419 134.645 87.937 86.7396 87.937C38.8347 87.937 0 89.7419 0 91.9684C0 94.1949 38.8347 95.9998 86.7396 95.9998Z" fill="#D2D9DC"/>
<path d="M168.858 85.7173H5.94727V91.602H168.858V85.7173Z" fill="#839299"/>
<path d="M103.282 85.7173H71.5225V88.112H103.282V85.7173Z" fill="#5F737C"/>
<path d="M152.023 0H22.7793V85.7174H152.023V0Z" fill="#D2D9DC"/>
<path d="M151.087 1.04541H23.7207V84.6721H151.087V1.04541Z" fill="#002548"/>
<path d="M145.444 6.42212H29.3604V79.2998H145.444V6.42212Z" fill="#F9FAFB"/>
<path d="M143.621 6.28052H29.3604V24.8342H143.621V6.28052Z" fill="#0054A6"/>
<path d="M145.444 9.22485H143.617V71.316H145.444V9.22485Z" fill="#DCDCDC"/>
<path d="M144.533 30.7523C144.273 30.7523 144.062 30.5441 144.062 30.2858V10.058C144.062 9.79978 144.273 9.59155 144.533 9.59155C144.793 9.59155 145.003 9.79978 145.003 10.058V30.2858C145.003 30.5441 144.793 30.7523 144.533 30.7523Z" fill="#A8A8A8"/>
<path d="M138.578 12.2563H113.992V15.509H138.578V12.2563Z" fill="white"/>
<path d="M138.616 15.5424H113.959V12.2231H138.616V15.5424ZM114.026 15.4758H138.544V12.2898H114.026V15.4758Z" fill="#C8C8C8"/>
<path d="M138.617 12.2231H135.265V15.5466H138.617V12.2231Z" fill="#839299"/>
<path d="M137.98 14.7929L137.678 15.0219L137.115 14.289L136.909 14.0182C136.951 14.0016 136.989 13.9808 137.027 13.9516C137.098 13.8975 137.149 13.8267 137.182 13.7517L137.401 14.0349L137.98 14.7929Z" fill="white"/>
<path d="M137.384 13.0644C137.107 12.7063 136.586 12.6355 136.225 12.9145C135.864 13.1894 135.793 13.7058 136.074 14.064C136.322 14.3888 136.767 14.4763 137.12 14.2889C137.158 14.268 137.2 14.2431 137.233 14.2139C137.3 14.1639 137.359 14.1015 137.405 14.039C137.607 13.7516 137.607 13.356 137.384 13.0644ZM137.027 13.9515C136.99 13.9807 136.952 14.0015 136.91 14.0182C136.708 14.0973 136.473 14.039 136.334 13.8599C136.166 13.6433 136.208 13.3352 136.427 13.1727C136.645 13.0061 136.956 13.0478 137.12 13.2644C137.233 13.4101 137.25 13.5934 137.183 13.7516C137.149 13.8307 137.099 13.8974 137.027 13.9515Z" fill="white"/>
<path d="M114.859 12.8938H114.683V14.8679H114.859V12.8938Z" fill="#C8C8C8"/>
<path d="M109.656 12.2563H42.7725V15.509H109.656V12.2563Z" fill="white"/>
<path d="M109.686 15.5424H42.7393V12.2231H109.686V15.5424ZM42.8065 15.4758H109.623V12.2898H42.8065V15.4758Z" fill="#C8C8C8"/>
<path d="M43.6344 12.8938H43.458V14.8679H43.6344V12.8938Z" fill="#C8C8C8"/>
<path d="M36.5777 14.9971L35.3848 13.906L36.5777 12.7732L36.7625 12.9648L35.7754 13.9018L36.7625 14.8014L36.5777 14.9971Z" fill="white"/>
<path d="M39.4619 12.769L40.659 13.8602L39.4661 14.993L39.2812 14.8014L40.2684 13.8644L39.2812 12.9648L39.4619 12.769Z" fill="white"/>
<path d="M76.5154 54.7448C76.2928 55.9068 77.3009 56.9105 78.477 56.6898C79.1323 56.5648 79.6616 56.0401 79.7876 55.3904C80.0102 54.2284 78.9979 53.2247 77.826 53.4455C77.1707 53.5704 76.6414 54.0952 76.5154 54.7448Z" fill="#F9FAFB"/>
<path d="M36.3667 71.7151H86.2305V33.7832L36.3667 33.7832L36.3667 71.7151Z" fill="#D2D9DC"/>
<path d="M41.3274 42.0759C40.7225 45.2368 43.4654 47.9564 46.6536 47.3567C48.4346 47.0235 49.8712 45.5992 50.2114 43.8292C50.8163 40.6682 48.0734 37.9487 44.8852 38.5484C43.1042 38.8857 41.6676 40.31 41.3274 42.0759Z" fill="#F9FAFB"/>
<path d="M52.8154 63.5405H86.2301L69.5249 43.1252L52.8154 63.5405Z" fill="#5F737C"/>
<path d="M36.3672 63.5407H65.9973L51.1822 50.2471L36.3672 63.5407Z" fill="#839299"/>
<path d="M86.2309 63.5403H36.3672V71.7114H86.2309V63.5403Z" fill="#839299"/>
<path d="M120.389 33.7798H93.9844V39.6728H120.389V33.7798Z" fill="#839299"/>
<path d="M138.438 43.7375H93.9844V45.9407H138.438V43.7375Z" fill="#D2D9DC"/>
<path d="M138.438 48.5811H93.9844V50.7842H138.438V48.5811Z" fill="#D2D9DC"/>
<path d="M138.438 53.429H93.9844V55.6321H138.438V53.429Z" fill="#D2D9DC"/>
<path d="M138.438 58.2722H93.9844V60.4753H138.438V58.2722Z" fill="#D2D9DC"/>
<path d="M138.438 64.719H93.9844V66.9221H138.438V64.719Z" fill="#D2D9DC"/>
<path d="M138.438 69.5627H93.9844V71.7659H138.438V69.5627Z" fill="#D2D9DC"/>
<path d="M96.7387 33.2636V41.089H93.8908V33.2636C93.8908 29.4654 90.9799 26.3752 87.4011 26.3752C83.8223 26.3752 80.9114 29.4654 80.9114 33.2636V41.089H78.0635V33.2636C78.0635 27.8204 82.2513 23.3975 87.4011 23.3975C92.5509 23.3975 96.7387 27.8204 96.7387 33.2636Z" fill="#839299"/>
<path d="M78.0635 33.6929L80.9114 33.8095V41.0893H78.0635V33.6929Z" fill="#2D2F31"/>
<path d="M96.7385 34.4464V41.0891H93.8906V34.334L96.7385 34.4464Z" fill="#2D2F31"/>
<path d="M100.39 35.217H74.4141V58.5809H100.39V35.217Z" fill="#0054A6"/>
<path opacity="0.19" d="M100.39 35.217H87.4023V58.5809H100.39V35.217Z" fill="#2D2F31"/>
<path d="M88.502 47.7564L89.59 52.8706H84.9736L86.0616 47.7564C85.4105 47.3483 84.9736 46.6403 84.9736 45.824C84.9736 44.5496 86.007 43.5376 87.2797 43.5376C88.5524 43.5376 89.5857 44.5496 89.5857 45.824C89.5857 46.6361 89.1489 47.3483 88.502 47.7564Z" fill="#2D2F31"/>
<path d="M87.4626 12.6899L88.1935 14.4183L90.0753 14.5724L88.6471 15.7968L89.0756 17.6209L87.4626 16.6547L85.8454 17.6209L86.2739 15.7968L84.8457 14.5724L86.7275 14.4183L87.4626 12.6899Z" fill="#FFDD33"/>
<path d="M72.9778 16.5088L74.4816 17.6374L76.1912 16.842L75.5695 18.6119L76.8633 19.978L74.9773 19.9405L74.0658 21.5814L73.5197 19.7864L71.6631 19.4366L73.2131 18.3662L72.9778 16.5088Z" fill="#FFDD33"/>
<path d="M62.3594 26.9913L64.2328 27.2245L65.3123 25.6877L65.6693 27.5285L67.4755 28.0699L65.8206 28.9737L65.8584 30.8478L64.4806 29.5651L62.6996 30.1814L63.5019 28.4864L62.3594 26.9913Z" fill="#FFDD33"/>
<path d="M58.4531 41.3348L60.1921 40.6102L60.3517 38.7444L61.5867 40.1604L63.4265 39.7356L62.4478 41.3348L63.4265 42.9382L61.5867 42.5134L60.3517 43.9294L60.1921 42.0636L58.4531 41.3348Z" fill="#FFDD33"/>
<path d="M62.3008 55.6946L63.4433 54.2037L62.641 52.5086L64.4262 53.125L65.804 51.8423L65.762 53.7164L67.4169 54.616L65.6107 55.1615L65.2537 56.9982L64.1784 55.4614L62.3008 55.6946Z" fill="#FFDD33"/>
<path d="M72.8782 66.2227L73.1134 64.3653L71.5635 63.295L73.4201 62.9451L73.9661 61.1501L74.8776 62.791L76.7637 62.7536L75.4741 64.1196L76.0916 65.8896L74.382 65.0899L72.8782 66.2227Z" fill="#FFDD33"/>
<path d="M87.3432 70.096L86.6123 68.3718L84.7305 68.2136L86.1586 66.9892L85.726 65.165L87.3432 66.1354L88.9603 65.165L88.5277 66.9892L89.9601 68.2136L88.0782 68.3718L87.3432 70.096Z" fill="#FFDD33"/>
<path d="M101.826 66.2813L100.322 65.1485L98.6125 65.944L99.23 64.1782L97.9404 62.8121L99.8264 62.8496L100.738 61.2087L101.284 62.9996L103.141 63.3535L101.591 64.4239L101.826 66.2813Z" fill="#FFDD33"/>
<path d="M112.446 55.7942L110.573 55.561L109.493 57.0978L109.136 55.257L107.33 54.7156L108.985 53.8118L108.947 51.9419L110.325 53.2246L112.106 52.6082L111.304 54.3033L112.446 55.7942Z" fill="#FFDD33"/>
<path d="M116.353 41.4513L114.614 42.1759L114.455 44.0417L113.22 42.6257L111.38 43.0547L112.359 41.4513L111.38 39.8479L113.22 40.2768L114.455 38.8567L114.614 40.7225L116.353 41.4513Z" fill="#FFDD33"/>
<path d="M112.505 27.0914L111.362 28.5823L112.165 30.2774L110.379 29.6652L109.002 30.9437L109.044 29.0738L107.389 28.17L109.195 27.6286L109.552 25.7878L110.627 27.3246L112.505 27.0914Z" fill="#FFDD33"/>
<path d="M101.928 16.5632L101.693 18.4248L103.243 19.491L101.387 19.845L100.84 21.6358L99.929 19.9949L98.043 20.0366L99.3325 18.6706L98.715 16.9006L100.425 17.696L101.928 16.5632Z" fill="#FFDD33"/>
<path d="M30.2432 52.6164C30.2432 52.6164 28.2984 68.0632 25.0976 71.5366C21.2584 75.7054 18.4735 75.0974 16.9235 77.2463C16.9193 77.2463 16.9193 77.2505 16.9193 77.2505C15.3693 75.0974 12.5844 75.7096 8.74098 71.5366C5.54442 68.0591 3.59961 52.6164 3.59961 52.6164C12.0257 48.56 16.9193 44.0164 16.9193 44.0164C16.9193 44.0164 16.9193 44.0164 16.9235 44.0205C17.0747 44.158 21.9472 48.6267 30.2432 52.6164Z" fill="#54CC5A"/>
<path opacity="0.19" d="M16.9235 44.0205V77.2504C16.9193 77.2504 16.9193 77.2546 16.9193 77.2546C15.3693 75.1014 12.5844 75.7136 8.74098 71.5406C5.54442 68.0631 3.59961 52.6205 3.59961 52.6205C12.0299 48.5641 16.9235 44.0163 16.9235 44.0205C16.9235 44.0163 16.9235 44.0163 16.9235 44.0205Z" fill="#2D2F31"/>
<path d="M5.66992 53.8619C5.66992 53.8619 7.3123 66.9098 10.0132 69.8459C13.2602 73.3734 15.6124 72.8569 16.923 74.6727C18.2335 72.8569 20.5858 73.3734 23.8327 69.8459C26.5336 66.9098 28.176 53.8619 28.176 53.8619C21.0562 50.4343 16.923 46.5945 16.923 46.5945C16.923 46.5945 12.7855 50.4343 5.66992 53.8619Z" fill="#54CC5A"/>
<path opacity="0.19" d="M28.1727 53.8618C28.1727 53.8618 26.5303 66.9098 23.8294 69.8459C20.5866 73.3692 18.2344 72.8569 16.9238 74.6686V46.5986C17.0498 46.7152 21.1663 50.4884 28.1727 53.8618Z" fill="#2D2F31"/>
<path d="M19.3721 57.9722V60.0003H18.6329V57.9722C18.6329 56.9893 17.881 56.1897 16.9527 56.1897C16.0244 56.1897 15.2725 56.9893 15.2725 57.9722V60.0003H14.5332V57.9722C14.5332 56.5645 15.6169 55.415 16.9527 55.415C18.2884 55.4192 19.3721 56.5645 19.3721 57.9722Z" fill="white"/>
<path d="M13.5879 58.4805V64.5317H20.317V58.4805H13.5879ZM17.5195 63.0533H16.3224L16.6038 61.7289C16.4358 61.6248 16.3224 61.4374 16.3224 61.2292C16.3224 60.9001 16.5912 60.6378 16.9189 60.6378C17.2465 60.6378 17.5153 60.9001 17.5153 61.2292C17.5153 61.4416 17.4019 61.6248 17.2339 61.7289L17.5195 63.0533Z" fill="white"/>
<path d="M157.799 63.8653C167.851 63.8653 176 55.786 176 45.8197C176 35.8534 167.851 27.7742 157.799 27.7742C147.747 27.7742 139.599 35.8534 139.599 45.8197C139.599 55.786 147.747 63.8653 157.799 63.8653Z" fill="#0054A6"/>
<path d="M155.913 43.5248L164.432 35.0789H168.586V39.1061H165.927V41.8381H163.268V44.5702H160.513V47.2564L160.067 47.6978L155.913 43.5248Z" fill="#FFDD33"/>
<path d="M168.586 35.0833V39.1063H165.927V41.8384H163.268V44.5746H160.512V47.2566L160.084 47.6814L157.979 45.5991L168.586 35.0833Z" fill="#FFDD33"/>
<path d="M148.99 54.5988C151.624 57.2101 155.9 57.2101 158.533 54.5988C161.167 51.9876 161.167 47.7521 158.533 45.1367C155.9 42.5254 151.624 42.5254 148.99 45.1367C146.356 47.7479 146.356 51.9876 148.99 54.5988ZM152.922 50.7007C153.61 51.3837 153.61 52.4915 152.922 53.1703C152.233 53.8533 151.115 53.8533 150.426 53.1703C149.738 52.4873 149.738 51.3795 150.426 50.6965C151.115 50.0177 152.233 50.0177 152.922 50.7007Z" fill="#FFDD33"/>
<path opacity="0.19" d="M168.586 35.0833V39.1063H165.927V41.8384H163.268V44.5746H160.512V47.2566L160.084 47.6814L157.979 45.5991L168.586 35.0833Z" fill="#2D2F31"/>
</svg>
