<svg width="48" height="48" viewBox="0 0 48 48" fill="none" xmlns="http://www.w3.org/2000/svg">
<g clip-path="url(#clip0_5648_11157)">
<path d="M28.7 25.7L30.8 15.3C31 14.4 31.1 13.6 31.1 12.7C31.1 10 30.3 7.30001 28.7 5.10001L26.5 2.00001C25.9 1.10001 25 0.700012 24 0.700012C23 0.700012 22.1 1.20001 21.5 2.00001L19.3 5.10001C17.8 7.30001 17 9.90001 17 12.6C17 13.5 17.1 14.3 17.3 15.2L19.4 25.6H28.7V25.7Z" fill="#D2D9DC"/>
<path d="M28.7008 25.7H19.3008V27.3C19.3008 28.2 20.0008 28.9 20.9008 28.9H27.1008C28.0008 28.9 28.7008 28.2 28.7008 27.3V25.7Z" fill="#ED1C24"/>
<path d="M29.1992 23.3L30.7992 15.2C30.8992 14.8 30.9992 14.3 30.9992 13.9H31.0992C33.0992 14.9 34.4992 16.7 34.8992 18.9L35.7992 23.3H29.1992Z" fill="#ED1C24"/>
<path d="M18.7992 23.3L17.1992 15.2C17.0992 14.8 16.9992 14.3 16.9992 13.9H16.8992C14.8992 14.9 13.4992 16.7 13.0992 18.9L12.1992 23.3H18.7992Z" fill="#ED1C24"/>
<path d="M28.7996 5.40001C28.6996 5.30001 28.6996 5.20001 28.5996 5.10001L26.4996 2.00001C25.8996 1.10001 24.9996 0.700012 23.9996 0.700012C22.9996 0.700012 22.0996 1.20001 21.4996 2.00001L19.2996 5.10001C19.1996 5.20001 19.1996 5.30001 19.0996 5.40001H28.7996Z" fill="#ED1C24"/>
<path d="M27.0992 28.8L27.7992 29.5C28.2992 30 28.5992 30.7 28.5992 31.5C28.5992 32.3 28.2992 33 27.7992 33.5L27.0992 34.2L25.4992 31.9V32.2C25.4992 34 24.9992 35.8 23.8992 37.4C22.8992 35.9 22.2992 34.1 22.2992 32.2V31.9L20.6992 34.2L19.9992 33.5C19.4992 33 19.1992 32.3 19.1992 31.5C19.1992 30.7 19.4992 30 19.9992 29.5L20.6992 28.8" fill="#FFDD33"/>
<path d="M23.9996 16.3C26.1535 16.3 27.8996 14.5539 27.8996 12.4C27.8996 10.2461 26.1535 8.5 23.9996 8.5C21.8457 8.5 20.0996 10.2461 20.0996 12.4C20.0996 14.5539 21.8457 16.3 23.9996 16.3Z" fill="#0054A6"/>
<path d="M23.9992 15.2C22.3992 15.2 21.1992 13.9 21.1992 12.4C21.1992 10.8 22.4992 9.59998 23.9992 9.59998C25.5992 9.59998 26.7992 10.9 26.7992 12.4C26.7992 13.9 25.5992 15.2 23.9992 15.2Z" fill="#F9FAFB"/>
<path d="M24.0004 21.8C23.1004 21.8 22.4004 21.1 22.4004 20.2C22.4004 19.3 23.1004 18.6 24.0004 18.6C24.9004 18.6 25.6004 19.3 25.6004 20.2C25.6004 21.1 24.9004 21.8 24.0004 21.8Z" fill="#FFDD33"/>
<path d="M40.3992 31.9V22.5C40.3992 20.8 41.7992 19.4 43.4992 19.4C44.3992 19.4 45.0992 20.1 45.0992 21V35L38.0992 43.6V47.5H28.6992V42.1C28.6992 40 29.4992 38 30.9992 36.6L36.7992 30.8C37.1992 30.4 37.5992 30.2 38.0992 30.2C38.5992 30.2 39.0992 30.4 39.3992 30.8L40.3992 31.9Z" fill="#FED2A4"/>
<path d="M7.60039 31.9V22.5C7.60039 20.8 6.20039 19.4 4.50039 19.4C3.60039 19.4 2.90039 20.1 2.90039 21V35L9.90039 43.6V47.5H19.3004V42.1C19.3004 40 18.5004 38 17.0004 36.6L11.2004 30.8C10.8004 30.4 10.4004 30.2 9.90039 30.2C9.40039 30.2 8.90039 30.4 8.60039 30.8L7.60039 31.9Z" fill="#FED2A4"/>
<path d="M13.3 6.50001C13 6.50001 12.7 6.30001 12.6 6.00001C12.5 5.70001 12.4 5.40001 12.2 5.10001C12.1 4.80001 12.1 4.40001 12.3 4.20001C12.6 3.90001 12.6 3.40001 12.3 3.10001L11.7 2.50001C11.4 2.20001 10.9 2.20001 10.6 2.50001C10.3 2.70001 10 2.70001 9.7 2.60001C9.4 2.40001 9.1 2.30001 8.8 2.20001C8.5 2.10001 8.3 1.80001 8.3 1.50001C8.3 1.10001 7.9 0.700012 7.5 0.700012H6.6C6.1 0.700012 5.8 1.00001 5.8 1.50001C5.8 1.80001 5.6 2.10001 5.3 2.20001C5 2.30001 4.7 2.40001 4.4 2.60001C4.1 2.70001 3.7 2.70001 3.5 2.40001C3.2 2.10001 2.7 2.10001 2.4 2.40001L1.7 3.10001C1.4 3.40001 1.4 3.90001 1.7 4.20001C2 4.40001 2 4.80001 1.9 5.10001C1.7 5.40001 1.6 5.60001 1.5 5.90001C1.4 6.20001 1.1 6.50001 0.8 6.50001C0.4 6.50001 0 6.80001 0 7.20001V8.10001C0 8.50001 0.4 8.90001 0.8 8.90001C1.1 8.90001 1.4 9.10001 1.5 9.40001C1.6 9.70001 1.7 10 1.9 10.3C2 10.6 2 11 1.7 11.2C1.4 11.5 1.4 12 1.7 12.3L2.4 13C2.7 13.3 3.2 13.3 3.5 13C3.7 12.8 4.1 12.7 4.4 12.9C4.7 13 5 13.1 5.3 13.2C5.6 13.3 5.8 13.6 5.8 13.9C5.8 14.3 6.2 14.7 6.6 14.7H7.5C7.9 14.7 8.3 14.3 8.3 13.9C8.3 13.6 8.5 13.3 8.8 13.2C9.1 13.1 9.4 13 9.7 12.8C10 12.6 10.4 12.7 10.6 12.9C10.9 13.2 11.4 13.2 11.7 12.9L12.3 12.3C12.6 12 12.6 11.5 12.3 11.2C12.1 11 12 10.6 12.2 10.3C12.3 10 12.5 9.70001 12.6 9.40001C12.7 9.10001 13 8.90001 13.3 8.90001C13.7 8.90001 14.1 8.50001 14.1 8.10001V7.20001C14.1 6.80001 13.7 6.50001 13.3 6.50001ZM7 11.8C4.7 11.8 2.9 9.90001 2.9 7.70001C2.9 5.50001 4.7 3.60001 7 3.60001C9.3 3.60001 11.1 5.40001 11.1 7.70001C11.1 10 9.3 11.8 7 11.8Z" fill="#839299"/>
<path d="M47.2 6.4C46.9 6.4 46.5 6.2 46.4 5.9C46.3 5.6 46.2 5.3 46 5C45.8 4.7 45.9 4.3 46.1 4.1C46.4 3.8 46.4 3.3 46.1 3L45.4 2.3C45.1 2 44.6 2 44.3 2.3C44.1 2.5 43.7 2.6 43.4 2.4C43.1 2.3 42.8 2.1 42.5 2C42.3 1.9 42 1.6 42 1.3C42 0.9 41.6 0.5 41.2 0.5H40.3C39.9 0.5 39.5 0.9 39.5 1.3C39.5 1.6 39.3 2 39 2.1C38.7 2.2 38.4 2.3 38.1 2.5C37.8 2.7 37.4 2.6 37.2 2.4C36.9 2.1 36.4 2.1 36.1 2.4L35.4 3.1C35.1 3.4 35.1 3.9 35.4 4.2C35.7 4.4 35.7 4.8 35.5 5.1C35.4 5.4 35.2 5.7 35.1 6C35 6.3 34.7 6.5 34.3 6.5C33.9 6.5 33.5 6.9 33.5 7.3V8.2C33.5 8.6 33.9 9 34.3 9C34.6 9 35 9.2 35.1 9.5C35.2 9.8 35.3 10.1 35.5 10.4C35.7 10.7 35.6 11.1 35.4 11.3C35.1 11.6 35.1 12.1 35.4 12.4L36.1 13.1C36.4 13.4 36.9 13.4 37.2 13.1C37.4 12.9 37.8 12.8 38.1 13C38.4 13.1 38.7 13.3 39 13.4C39.3 13.5 39.5 13.8 39.5 14.2C39.5 14.6 39.9 15 40.3 15H41.2C41.6 15 42 14.6 42 14.2C42 13.9 42.2 13.5 42.5 13.4C42.8 13.3 43.1 13.2 43.4 13C43.7 12.8 44.1 12.9 44.3 13.1C44.6 13.4 45.1 13.4 45.4 13.1L46.1 12.4C46.4 12.1 46.4 11.6 46.1 11.3C45.9 11.1 45.8 10.7 46 10.4C46.2 10.1 46.3 9.8 46.4 9.5C46.5 9.2 46.9 9 47.2 9C47.6 9 48 8.6 48 8.2V7.2C48 6.8 47.6 6.4 47.2 6.4ZM40.8 12C38.5 12 36.5 10.1 36.5 7.7C36.5 5.3 38.4 3.5 40.8 3.5C43.1 3.5 45.1 5.4 45.1 7.7C45.1 10 43.1 12 40.8 12Z" fill="#839299"/>
</g>
<defs>
<clipPath id="clip0_5648_11157">
<rect width="48" height="48" fill="white"/>
</clipPath>
</defs>
</svg>
