<svg width="80" height="80" viewBox="0 0 80 80" fill="none" xmlns="http://www.w3.org/2000/svg">
<g id="choose-qbatch-as-your-growth-partner_100-percent-founders-mentality 1" clip-path="url(#clip0_6034_17191)">
<g id="Group">
<path id="Vector" d="M62.3998 80.0003H30.2998C28.9998 80.0003 27.9998 79.0003 27.9998 77.7003V70.6003H23.2998C17.8998 70.6003 13.3998 66.1003 13.3998 60.6003V51.4003L7.29978 51.2003C6.49978 51.2003 5.79978 50.8003 5.39978 50.1003C4.99978 49.4003 4.99978 48.5003 5.29978 47.8003L13.5998 30.6003C13.6998 22.2003 17.2998 14.2003 23.2998 8.40026C29.3998 2.60026 37.3998 -0.399739 45.7998 0.00026096C61.7998 0.800261 74.5998 14.0003 74.8998 30.1003C74.9998 36.6003 73.1998 42.9003 69.4998 48.3003C66.3998 52.8003 64.6998 58.0003 64.6998 63.4003V77.7003C64.6998 79.0003 63.6998 80.0003 62.3998 80.0003Z" fill="#0054A6"/>
<path id="Vector_2" d="M45.3996 68.6998C44.9996 68.6998 44.5996 68.2998 44.5996 67.8998C44.5996 65.1998 45.2996 62.8998 46.4996 61.1998C47.8996 59.2998 49.9996 58.2998 52.4996 58.2998H56.4996C56.8996 58.2998 57.2996 58.6998 57.2996 59.0998C57.2996 61.7998 56.5996 64.0998 55.2996 65.7998C53.8996 67.6998 51.6996 68.6998 49.1996 68.6998H45.3996Z" fill="#54CC5A"/>
<path id="Vector_3" d="M38.3988 60.9C35.8988 60.9 33.6988 59.9 32.2988 58C30.9988 56.3 30.2988 54 30.2988 51.3C30.2988 50.9 30.6988 50.5 31.0988 50.5H35.0988C37.6988 50.5 39.6988 51.5 41.0988 53.4C42.3988 55.1 42.9988 57.4 42.9988 60.1C42.9988 60.5 42.5988 60.9 42.1988 60.9H38.3988Z" fill="#54CC5A"/>
<path id="Vector_4" d="M43.8 80.0002C42.5 80.0002 41.5 79.0002 41.5 77.7002V40.0002C41.5 38.7002 42.5 37.7002 43.8 37.7002C45.1 37.7002 46.1 38.7002 46.1 40.0002V77.6002C46.1 78.9002 45.1 80.0002 43.8 80.0002Z" fill="#54CC5A"/>
<path id="Vector_5" d="M40.1988 44.1002C38.0988 44.1002 36.2988 42.9002 35.2988 41.2002C35.1988 41.2002 35.0988 41.2002 34.9988 41.2002C31.8988 41.2002 29.3988 38.7002 29.3988 35.6002C29.3988 34.8002 29.5988 34.1002 29.7988 33.4002C28.4988 32.1002 27.7988 30.3002 27.7988 28.4002C27.7988 26.5002 28.4988 24.7002 29.7988 23.4002C29.4988 22.7002 29.3988 22.0002 29.3988 21.2002C29.3988 18.1002 31.8988 15.6002 34.9988 15.6002C35.0988 15.6002 35.1988 15.6002 35.2988 15.6002C36.2988 13.9002 38.0988 12.7002 40.1988 12.7002C43.2988 12.7002 45.7988 15.2002 46.0988 18.3002V38.4002C45.8988 41.6002 43.2988 44.1002 40.1988 44.1002Z" fill="#FFDD33"/>
<path id="Vector_6" d="M47.3004 44.0998C44.2004 44.0998 41.7004 41.5998 41.4004 38.4998V18.3998C41.7004 15.2998 44.2004 12.7998 47.3004 12.7998C49.4004 12.7998 51.2004 13.9998 52.2004 15.6998C52.3004 15.6998 52.4004 15.6998 52.5004 15.6998C55.6004 15.6998 58.1004 18.1998 58.1004 21.2998C58.1004 22.0998 57.9004 22.7998 57.7004 23.4998C59.0004 24.7998 59.7004 26.5998 59.7004 28.4998C59.7004 30.3998 59.0004 32.1998 57.7004 33.4998C58.0004 34.1998 58.1004 34.8998 58.1004 35.6998C58.1004 38.7998 55.6004 41.2998 52.5004 41.2998C52.4004 41.2998 52.3004 41.2998 52.2004 41.2998C51.3004 42.8998 49.4004 44.0998 47.3004 44.0998Z" fill="#FFDD33"/>
</g>
</g>
<defs>
<clipPath id="clip0_6034_17191">
<rect width="80" height="80" fill="white"/>
</clipPath>
</defs>
</svg>
