<svg width="48" height="48" viewBox="0 0 48 48" fill="none" xmlns="http://www.w3.org/2000/svg">
<g clip-path="url(#clip0_12083_17658)">
<path d="M30.3031 23.6998V24.3998C30.3031 24.9998 29.9031 25.3998 29.3031 25.4998C28.9031 26.8998 28.1031 28.4998 27.2031 29.3998C26.3031 30.2998 25.2031 30.7998 24.0031 30.7998C22.8031 30.7998 21.6031 30.2998 20.8031 29.3998C19.9031 28.4998 19.1031 26.8998 18.7031 25.4998C18.1031 25.4998 17.7031 24.9998 17.7031 24.3998V23.6998C17.7031 23.3998 18.0031 23.0998 18.3031 23.0998H18.4031C18.3031 22.5998 18.3031 22.1998 18.3031 21.7998C18.3031 20.9998 18.4031 20.1998 18.6031 19.5998C18.9031 18.4998 19.6031 17.4998 20.5031 16.6998C20.9031 16.3998 21.3031 16.1998 21.7031 15.9998H21.8031C23.8031 15.1998 25.5031 15.7998 26.6031 16.3998C27.0031 16.5998 27.3031 16.8998 27.6031 17.0998C27.9031 17.2998 28.0031 17.4998 28.0031 17.4998C28.0031 17.4998 29.2031 17.7998 29.7031 18.9998C30.0031 19.5998 30.0031 20.7998 29.9031 21.8998C29.9031 22.2998 29.8031 22.7998 29.8031 23.0998H29.9031C30.1031 23.0998 30.3031 23.3998 30.3031 23.6998Z" fill="#002548"/>
<path d="M18.5969 14.6C17.2969 15.7 16.2969 17.1 15.7969 18.8C15.7969 18.8 15.7969 18.8 15.7969 18.9L12.4969 14.9H7.99687V15.9C7.99687 16.5 7.29688 16.9 6.79688 16.6L0.796875 13.1C0.296875 12.8 0.296875 12 0.796875 11.7L6.79688 8.19998C7.29688 7.99998 7.99687 8.39998 7.99687 8.99998V9.99998H13.7969C14.4969 9.99998 15.1969 10.3 15.6969 10.9L18.5969 14.6Z" fill="#0054A6"/>
<path d="M19.7973 6.3999L23.2973 0.399902C23.5973 -0.100098 24.3973 -0.100098 24.6973 0.399902L28.0973 6.3999C28.3973 6.8999 27.9973 7.5999 27.3973 7.5999H26.3973V13.3999C24.9973 12.8999 23.2973 12.5999 21.4973 13.1999V7.5999H20.4973C19.8973 7.5999 19.4973 6.8999 19.7973 6.3999Z" fill="#0054A6"/>
<path d="M47.2 13.1998L41.2 16.6998C40.7 16.9998 40 16.5998 40 15.9998V14.9998H35.4L32.2 18.8998C32.1 18.4998 32 18.2998 31.9 17.9998C31.2 16.4998 30.1 15.6998 29.3 15.2998C29.2 15.1998 29.1 15.0998 29 14.9998L32.3 10.8998C32.8 10.2998 33.5 9.99977 34.2 9.99977H40V8.99977C40 8.39977 40.7 7.99977 41.2 8.29977L47.2 11.7998C47.8 12.0998 47.8 12.8998 47.2 13.1998Z" fill="#0054A6"/>
<path d="M33.4969 34.5001L29.9969 32.5001C29.4969 32.2001 28.8969 32.3001 28.4969 32.7001L25.9969 38.7001L24.8969 35.2001L25.7969 33.6001C25.9969 33.3001 25.7969 32.9001 25.3969 32.9001H22.4969C22.0969 32.9001 21.8969 33.3001 22.0969 33.7001L22.9969 35.3001L21.8969 38.8001L19.3969 32.8001C18.9969 32.4001 18.3969 32.3001 17.8969 32.6001L14.3969 34.7001C13.9969 34.9001 13.7969 35.4001 13.7969 35.9001L15.2969 47.0001C15.3969 47.6001 15.8969 48.0001 16.4969 48.0001H31.3969C31.9969 48.0001 32.4969 47.6001 32.5969 47.0001L34.0969 35.7001C34.0969 35.2001 33.8969 34.8001 33.4969 34.5001Z" fill="#002548"/>
</g>
<defs>
<clipPath id="clip0_12083_17658">
<rect width="48" height="48" fill="white"/>
</clipPath>
</defs>
</svg>
