<svg width="48" height="48" viewBox="0 0 48 48" fill="none" xmlns="http://www.w3.org/2000/svg">
<path d="M2.25 3.75H18.75V18.75H2.25V3.75Z" fill="#759ACC"/>
<path d="M18.8422 2.14425C18.789 1.7745 18.4725 1.5 18.0998 1.5H2.90025C2.52675 1.5 2.21025 1.7745 2.15775 2.14425L1.5 6.75C1.5 7.99275 2.50725 9 3.75 9C4.99275 9 6 7.99275 6 6.75C6 7.99275 7.00725 9 8.25 9C9.49275 9 10.5 7.99275 10.5 6.75C10.5 7.99275 11.5072 9 12.75 9C13.9928 9 15 7.99275 15 6.75C15 7.99275 16.0072 9 17.25 9C18.4928 9 19.5 7.99275 19.5 6.75L18.8422 2.14425Z" fill="#495867"/>
<path d="M5.25 13.5H9V18.75H5.25V13.5Z" fill="#CFCFCF"/>
<path d="M12 12H16.5V15H12V12Z" fill="#CFCFCF"/>
<path d="M13.5 40.5V42.75H24V40.5C24 37.6005 21.6495 35.25 18.75 35.25C15.8505 35.25 13.5 37.6005 13.5 40.5Z" fill="#759ACC"/>
<path d="M18.75 35.25C20.4069 35.25 21.75 33.9069 21.75 32.25C21.75 30.5931 20.4069 29.25 18.75 29.25C17.0931 29.25 15.75 30.5931 15.75 32.25C15.75 33.9069 17.0931 35.25 18.75 35.25Z" fill="#759ACC"/>
<path d="M18.0997 1.5H15V6.75C15 7.99275 16.0073 9 17.25 9C18.4927 9 19.5 7.99275 19.5 6.75L18.8422 2.14425C18.789 1.7745 18.4725 1.5 18.0997 1.5Z" fill="#526273"/>
<path d="M10.5 1.5H6V6.75C6 7.99275 7.00725 9 8.25 9C9.49275 9 10.5 7.99275 10.5 6.75V1.5Z" fill="#526273"/>
<path d="M29.25 3.75H45.75V18.75H29.25V3.75Z" fill="#759ACC"/>
<path d="M45.8423 2.14425C45.789 1.7745 45.4725 1.5 45.0998 1.5H29.9003C29.5268 1.5 29.2102 1.7745 29.1577 2.14425L28.5 6.75C28.5 7.99275 29.5073 9 30.75 9C31.9927 9 33 7.99275 33 6.75C33 7.99275 34.0072 9 35.25 9C36.4928 9 37.5 7.99275 37.5 6.75C37.5 7.99275 38.5072 9 39.75 9C40.9928 9 42 7.99275 42 6.75C42 7.99275 43.0072 9 44.25 9C45.4928 9 46.5 7.99275 46.5 6.75L45.8423 2.14425Z" fill="#495867"/>
<path d="M32.25 13.5H36V18.75H32.25V13.5Z" fill="#CFCFCF"/>
<path d="M39 12H43.5V15H39V12Z" fill="#CFCFCF"/>
<path d="M45.0997 1.5H42V6.75C42 7.99275 43.0073 9 44.25 9C45.4927 9 46.5 7.99275 46.5 6.75L45.8423 2.14425C45.789 1.7745 45.4725 1.5 45.0997 1.5Z" fill="#526273"/>
<path d="M37.5 1.5H33V6.75C33 7.99275 34.0073 9 35.25 9C36.4927 9 37.5 7.99275 37.5 6.75V1.5Z" fill="#526273"/>
<path d="M6 24L3 28.5H5.25V42C5.25 42.4147 5.586 42.75 6 42.75H11.25V41.25H6.75V28.5H9L6 24Z" fill="#587399"/>
<path d="M41.25 24L44.25 28.5H42V42C42 42.4147 41.664 42.75 41.25 42.75H36V41.25H40.5V28.5H38.25L41.25 24Z" fill="#587399"/>
<path d="M27.75 46.5C31.0637 46.5 33.75 43.8137 33.75 40.5C33.75 37.1863 31.0637 34.5 27.75 34.5C24.4363 34.5 21.75 37.1863 21.75 40.5C21.75 43.8137 24.4363 46.5 27.75 46.5Z" fill="#FFE38F"/>
<path d="M30 39V38.6603C30 37.7483 29.3565 36.9855 28.5 36.7972V36H27V36.7972C26.1435 36.9862 25.5 37.7483 25.5 38.6603V39.3397C25.5 40.3927 26.3573 41.25 27.4103 41.25H28.089C28.3155 41.25 28.5 41.4338 28.5 41.6603V42.3397C28.5 42.5662 28.3155 42.75 28.0897 42.75H27.411C27.1845 42.75 27 42.5662 27 42.3397V42H25.5V42.3397C25.5 43.2517 26.1435 44.0145 27 44.2028V45H28.5V44.2028C29.3565 44.0138 30 43.2517 30 42.3397V41.6603C30 40.6073 29.1427 39.75 28.0897 39.75H27.411C27.1845 39.75 27 39.5662 27 39.3397V38.6603C27 38.4338 27.1845 38.25 27.4103 38.25H28.089C28.3155 38.25 28.5 38.4338 28.5 38.6603V39H30Z" fill="#CCB573"/>
</svg>
