<svg width="64" height="64" viewBox="0 0 64 64" fill="none" xmlns="http://www.w3.org/2000/svg">
<g clip-path="url(#clip0_18104_28030)">
<path opacity="0.992" fill-rule="evenodd" clip-rule="evenodd" d="M17.0625 -0.0625C22.0209 -0.0625 26.9791 -0.0625 31.9375 -0.0625C31.9375 1.8125 31.9375 3.6875 31.9375 5.5625C27.6456 5.54166 23.354 5.5625 19.0625 5.625C15.8125 7.875 12.5625 10.125 9.3125 12.375C9.16703 18.6786 9.1462 24.9911 9.25 31.3125C9.77898 34.941 11.0706 38.2744 13.125 41.3125C16.4323 46.0781 20.4531 50.1406 25.1875 53.5C27.3158 54.981 29.5241 56.3351 31.8125 57.5625C31.9356 59.6779 31.9773 61.8029 31.9375 63.9375C31.8541 63.9375 31.7709 63.9375 31.6875 63.9375C24.7249 60.5693 18.5374 56.111 13.125 50.5625C9.81474 47.0289 7.18974 43.0289 5.25 38.5625C4.29302 36.1929 3.70969 33.7346 3.5 31.1875C3.41667 23.9791 3.41667 16.7709 3.5 9.5625C8.04338 6.37127 12.5643 3.16295 17.0625 -0.0625Z" fill="#4B7EC1"/>
<path fill-rule="evenodd" clip-rule="evenodd" d="M31.9375 -0.0625C36.8959 -0.0625 41.8541 -0.0625 46.8125 -0.0625C51.3107 3.16295 55.8316 6.37127 60.375 9.5625C60.4584 16.7709 60.4584 23.9791 60.375 31.1875C59.995 35.2025 58.7866 38.9525 56.75 42.4375C53.2439 48.3614 48.6814 53.3405 43.0625 57.375C39.6371 59.88 36.0121 62.0675 32.1875 63.9375C32.1041 63.9375 32.0209 63.9375 31.9375 63.9375C31.9772 61.8029 31.9356 59.6779 31.8125 57.5625C31.8541 57.5625 31.8959 57.5625 31.9375 57.5625C39.4711 53.7627 45.7003 48.4294 50.625 41.5625C52.8725 38.2745 54.2475 34.6495 54.75 30.6875C54.8334 24.6459 54.8334 18.6041 54.75 12.5625C51.4901 10.2346 48.2192 7.92214 44.9375 5.625C40.6044 5.5625 36.271 5.54166 31.9375 5.5625C31.9375 3.6875 31.9375 1.8125 31.9375 -0.0625Z" fill="#4B7EC1"/>
<path fill-rule="evenodd" clip-rule="evenodd" d="M31.9359 5.5625C31.9359 6.8125 31.9359 8.0625 31.9359 9.3125C28.0191 9.29168 24.1024 9.3125 20.1859 9.375C17.7572 11.0164 15.3614 12.7039 12.9984 14.4375C12.9776 17.25 12.9568 20.0625 12.9359 22.875C12.9201 26.0243 12.9826 29.17 13.1234 32.3125C14.2627 36.2593 16.1793 39.7593 18.8734 42.8125C22.6279 47.0909 26.9821 50.5909 31.9359 53.3125C31.9359 54.7291 31.9359 56.1459 31.9359 57.5625C31.8943 57.5625 31.8526 57.5625 31.8109 57.5625C29.5226 56.3351 27.3142 54.981 25.1859 53.5C20.4516 50.1406 16.4307 46.0781 13.1234 41.3125C11.0691 38.2744 9.77741 34.941 9.24843 31.3125C9.14463 24.9911 9.16546 18.6786 9.31093 12.375C12.5609 10.125 15.8109 7.875 19.0609 5.625C23.3524 5.5625 27.6441 5.54166 31.9359 5.5625Z" fill="white"/>
<path fill-rule="evenodd" clip-rule="evenodd" d="M31.9375 5.5625C36.271 5.54166 40.6044 5.5625 44.9375 5.625C48.2192 7.92214 51.4901 10.2346 54.75 12.5625C54.8334 18.6041 54.8334 24.6459 54.75 30.6875C54.2475 34.6495 52.8725 38.2745 50.625 41.5625C45.7003 48.4294 39.4711 53.7627 31.9375 57.5625C31.9375 56.1459 31.9375 54.7291 31.9375 53.3125C32.0209 53.3125 32.0625 53.2709 32.0625 53.1875C38.4986 49.6894 43.7695 44.8978 47.875 38.8125C49.2466 36.6521 50.205 34.3188 50.75 31.8125C50.8914 28.7746 50.9539 25.7329 50.9375 22.6875C50.9166 19.9375 50.8959 17.1875 50.875 14.4375C48.4484 12.7346 46.0109 11.0471 43.5625 9.375C39.6877 9.3125 35.8128 9.29168 31.9375 9.3125C31.9375 8.0625 31.9375 6.8125 31.9375 5.5625Z" fill="white"/>
<path fill-rule="evenodd" clip-rule="evenodd" d="M32.0024 9.00781C32.0024 15.4244 32.0024 21.8412 32.0024 28.2578C31.9608 28.3412 31.919 28.4244 31.8774 28.5078C30.8853 29.5626 29.8644 30.6043 28.8149 31.6328C26.7337 29.7391 24.6712 27.8224 22.6274 25.8828C21.7087 26.6808 20.8753 27.5558 20.1274 28.5078C23.0427 31.3188 25.9802 34.1106 28.9399 36.8828C29.8989 35.7781 30.9197 34.7363 32.0024 33.7578C31.9609 40.1539 32.0025 46.5289 32.1274 52.8828C32.1274 52.9662 32.0858 53.0078 32.0024 53.0078C27.0485 50.2862 22.6944 46.7862 18.9399 42.5078C16.2458 39.4546 14.3292 35.9546 13.1899 32.0078C13.049 28.8653 12.9865 25.7196 13.0024 22.5703C13.0233 19.7578 13.044 16.9453 13.0649 14.1328C15.4279 12.3992 17.8237 10.7117 20.2524 9.07031C24.1689 9.00781 28.0855 8.98698 32.0024 9.00781Z" fill="#54CC5A"/>
<path fill-rule="evenodd" clip-rule="evenodd" d="M31.9374 9.3125C35.8127 9.29167 39.6877 9.3125 43.5624 9.375C46.0108 11.0471 48.4483 12.7346 50.8749 14.4375C50.8958 17.1875 50.9165 19.9375 50.9374 22.6875C50.9538 25.7329 50.8913 28.7746 50.7499 31.8125C50.2049 34.3187 49.2465 36.6521 47.8749 38.8125C43.7694 44.8977 38.4985 49.6894 32.0624 53.1875C31.9375 46.8336 31.8959 40.4586 31.9374 34.0625C31.9374 34.0209 31.9374 33.9791 31.9374 33.9375C35.954 29.9 39.954 25.8375 43.9374 21.75C43.0415 20.8541 42.1458 19.9584 41.2499 19.0625C38.1623 22.2541 35.0582 25.4209 31.9374 28.5625C31.9374 22.1459 31.9374 15.7291 31.9374 9.3125Z" fill="#54CC5A"/>
<path fill-rule="evenodd" clip-rule="evenodd" d="M31.9375 33.9375C31.9786 32.207 31.937 30.4987 31.8125 28.8125C31.8541 28.7291 31.8959 28.6459 31.9375 28.5625C35.0582 25.4209 38.1624 22.2541 41.25 19.0625C42.1459 19.9584 43.0416 20.8541 43.9375 21.75C39.9541 25.8375 35.9541 29.9 31.9375 33.9375Z" fill="white"/>
<path fill-rule="evenodd" clip-rule="evenodd" d="M31.8125 28.8125C31.937 30.4987 31.9786 32.207 31.9375 33.9375C31.9375 33.9791 31.9375 34.0209 31.9375 34.0625C30.8547 35.041 29.834 36.0828 28.875 37.1875C25.9152 34.4152 22.9778 31.6235 20.0625 28.8125C20.8104 27.8605 21.6437 26.9855 22.5625 26.1875C24.6062 28.1271 26.6687 30.0438 28.75 31.9375C29.7995 30.909 30.8204 29.8672 31.8125 28.8125Z" fill="white"/>
</g>
<defs>
<clipPath id="clip0_18104_28030">
<rect width="64" height="64" fill="white"/>
</clipPath>
</defs>
</svg>
