<svg width="50" height="50" viewBox="0 0 50 50" fill="none" xmlns="http://www.w3.org/2000/svg">
<path d="M23.418 15.625C22.1141 16.6016 20.5016 17.1875 18.75 17.1875C16.9984 17.1875 15.3867 16.6016 14.082 15.625H3.125V37.5H34.375V15.625H23.418Z" fill="#FAB400"/>
<path d="M18.75 15.625C22.2018 15.625 25 12.8268 25 9.375C25 5.92322 22.2018 3.125 18.75 3.125C15.2982 3.125 12.5 5.92322 12.5 9.375C12.5 12.8268 15.2982 15.625 18.75 15.625Z" fill="#FA6450"/>
<path d="M45.3125 43.75H4.6875C3.82422 43.75 3.125 43.0508 3.125 42.1875V40.625H46.875V42.1875C46.875 43.0508 46.1758 43.75 45.3125 43.75Z" fill="#288CB4"/>
<path d="M42.1875 25H34.375V37.5H3.125V40.625H46.875V32.8125L42.1875 25Z" fill="#64C8F0"/>
<path d="M3.125 15.625H6.25V37.5H3.125V15.625Z" fill="#DC9600"/>
<path d="M3.125 37.5H6.25V40.625H3.125V37.5Z" fill="#46AAD2"/>
<path d="M46.875 32.8125H37.5V25H42.1875L46.875 32.8125Z" fill="#F0F0F0"/>
<path d="M42.9688 39.0625H46.875V35.9375H42.9688C42.5375 35.9375 42.1875 36.2875 42.1875 36.7188V38.2812C42.1875 38.7125 42.5375 39.0625 42.9688 39.0625Z" fill="#FAB400"/>
<path d="M34.375 25H42.1875C43.0508 25 43.75 24.3 43.75 23.4375C43.75 22.5742 43.0508 21.875 42.1875 21.875H34.375V25Z" fill="#505050"/>
<path d="M37.5 25H39.0625V32.8125H37.5V25Z" fill="#D2D2D2"/>
<path d="M7.8125 34.375C7.38125 34.375 7.03125 34.025 7.03125 33.5938V19.5312C7.03125 19.1 7.38125 18.75 7.8125 18.75C8.24375 18.75 8.59375 19.1 8.59375 19.5312V33.5938C8.59375 34.025 8.24375 34.375 7.8125 34.375Z" fill="#BE7800"/>
<path d="M10.9375 34.375C10.5063 34.375 10.1562 34.025 10.1562 33.5938V19.5312C10.1562 19.1 10.5063 18.75 10.9375 18.75C11.3687 18.75 11.7188 19.1 11.7188 19.5312V33.5938C11.7188 34.025 11.3687 34.375 10.9375 34.375Z" fill="#BE7800"/>
<path d="M14.0625 34.375C13.6313 34.375 13.2812 34.025 13.2812 33.5938V19.5312C13.2812 19.1 13.6313 18.75 14.0625 18.75C14.4937 18.75 14.8438 19.1 14.8438 19.5312V33.5938C14.8438 34.025 14.4937 34.375 14.0625 34.375Z" fill="#BE7800"/>
<path d="M17.1875 34.375C16.7563 34.375 16.4062 34.025 16.4062 33.5938V19.5312C16.4062 19.1 16.7563 18.75 17.1875 18.75C17.6187 18.75 17.9688 19.1 17.9688 19.5312V33.5938C17.9688 34.025 17.6187 34.375 17.1875 34.375Z" fill="#BE7800"/>
<path d="M20.3125 34.375C19.8813 34.375 19.5312 34.025 19.5312 33.5938V19.5312C19.5312 19.1 19.8813 18.75 20.3125 18.75C20.7437 18.75 21.0938 19.1 21.0938 19.5312V33.5938C21.0938 34.025 20.7437 34.375 20.3125 34.375Z" fill="#BE7800"/>
<path d="M23.4375 34.375C23.0063 34.375 22.6562 34.025 22.6562 33.5938V19.5312C22.6562 19.1 23.0063 18.75 23.4375 18.75C23.8687 18.75 24.2188 19.1 24.2188 19.5312V33.5938C24.2188 34.025 23.8687 34.375 23.4375 34.375Z" fill="#BE7800"/>
<path d="M26.5625 34.375C26.1313 34.375 25.7812 34.025 25.7812 33.5938V19.5312C25.7812 19.1 26.1313 18.75 26.5625 18.75C26.9937 18.75 27.3438 19.1 27.3438 19.5312V33.5938C27.3438 34.025 26.9937 34.375 26.5625 34.375Z" fill="#BE7800"/>
<path d="M29.6875 34.375C29.2563 34.375 28.9062 34.025 28.9062 33.5938V19.5312C28.9062 19.1 29.2563 18.75 29.6875 18.75C30.1187 18.75 30.4688 19.1 30.4688 19.5312V33.5938C30.4688 34.025 30.1187 34.375 29.6875 34.375Z" fill="#BE7800"/>
<path d="M14.0625 9.375C14.0625 6.18828 16.4492 3.56406 19.5312 3.17891C19.275 3.14687 19.0148 3.125 18.75 3.125C15.2984 3.125 12.5 5.92344 12.5 9.375C12.5 12.8266 15.2984 15.625 18.75 15.625C19.0148 15.625 19.275 15.6031 19.5312 15.5711C16.4492 15.1859 14.0625 12.5617 14.0625 9.375Z" fill="#DC4632"/>
<path d="M3.125 8.59375H10.9375V10.1562H3.125V8.59375Z" fill="#FA6450"/>
<path d="M4.6875 5.46875H10.9375V7.03125H4.6875V5.46875Z" fill="#FA6450"/>
<path d="M4.6875 11.7188H10.9375V13.2812H4.6875V11.7188Z" fill="#FA6450"/>
<path d="M22.6562 9.375L19.5312 6.25V8.59375H14.8438V10.1562H19.5312V12.5L22.6562 9.375Z" fill="#F0F0F0"/>
<path d="M10.1562 46.875C7.99922 46.875 6.25 45.1258 6.25 42.9688C6.25 40.8117 7.99922 39.0625 10.1562 39.0625C12.3133 39.0625 14.0625 40.8117 14.0625 42.9688C14.0625 45.1258 12.3133 46.875 10.1562 46.875Z" fill="#505050"/>
<path d="M7.8125 42.9688C7.8125 41.0789 9.15469 39.5031 10.9375 39.1414C10.6852 39.0898 10.4242 39.0625 10.1562 39.0625C7.99922 39.0625 6.25 40.8117 6.25 42.9688C6.25 45.1258 7.99922 46.875 10.1562 46.875C10.4242 46.875 10.6852 46.8477 10.9375 46.7961C9.15469 46.4344 7.8125 44.8586 7.8125 42.9688Z" fill="#3C3C3C"/>
<path d="M10.1562 44.5312C9.29297 44.5312 8.59375 43.8312 8.59375 42.9688C8.59375 42.1055 9.29297 41.4062 10.1562 41.4062C11.0195 41.4062 11.7188 42.1055 11.7188 42.9688C11.7188 43.8312 11.0195 44.5312 10.1562 44.5312Z" fill="#F0F0F0"/>
<path d="M39.8438 46.875C37.6867 46.875 35.9375 45.1258 35.9375 42.9688C35.9375 40.8117 37.6867 39.0625 39.8438 39.0625C42.0008 39.0625 43.75 40.8117 43.75 42.9688C43.75 45.1258 42.0008 46.875 39.8438 46.875Z" fill="#505050"/>
<path d="M37.5 42.9688C37.5 41.0789 38.8422 39.5031 40.625 39.1414C40.3727 39.0898 40.1117 39.0625 39.8438 39.0625C37.6867 39.0625 35.9375 40.8117 35.9375 42.9688C35.9375 45.1258 37.6867 46.875 39.8438 46.875C40.1117 46.875 40.3727 46.8477 40.625 46.7961C38.8422 46.4344 37.5 44.8586 37.5 42.9688Z" fill="#3C3C3C"/>
<path d="M39.8438 44.5312C38.9805 44.5312 38.2812 43.8312 38.2812 42.9688C38.2812 42.1055 38.9805 41.4062 39.8438 41.4062C40.707 41.4062 41.4062 42.1055 41.4062 42.9688C41.4062 43.8312 40.707 44.5312 39.8438 44.5312Z" fill="#F0F0F0"/>
</svg>
