<svg width="48" height="48" viewBox="0 0 48 48" fill="none" xmlns="http://www.w3.org/2000/svg">
<g id="your-personal-assistant-to_from-unstructured-to-structured-data 1" clip-path="url(#clip0_6034_12815)">
<g id="Group">
<path id="Vector" d="M38.4004 19.8H48.0004V22.6H38.4004V19.8Z" fill="#0054A6"/>
<path id="Vector_2" d="M38.4004 25.4H48.0004V28.2H38.4004V25.4Z" fill="#0054A6"/>
<path id="Vector_3" d="M38.4004 8.5H48.0004V11.3H38.4004V8.5Z" fill="#0054A6"/>
<path id="Vector_4" d="M38.4004 14.1001H48.0004V16.9001H38.4004V14.1001Z" fill="#0054A6"/>
<path id="Vector_5" d="M38.4004 31H48.0004V33.8H38.4004V31Z" fill="#0054A6"/>
<path id="Vector_6" d="M38.4004 36.6001H48.0004V39.4001H38.4004V36.6001Z" fill="#0054A6"/>
<path id="Vector_7" d="M27.7004 22.6H23.5004V14.2H28.7004V11.4H20.7004V22.6H13.9004V24L22.1004 25L27.7004 24V22.6Z" fill="#839299"/>
<path id="Vector_8" d="M23.4004 25.4H27.6004V24H13.9004V25.4H20.7004V36.6H28.7004V33.8H23.5004V25.4H23.4004Z" fill="#839299"/>
<path id="Vector_9" d="M27.1992 8.5H35.5992V16.9H27.1992V8.5Z" fill="#FFDD33"/>
<path id="Vector_10" d="M27.1992 31H35.5992V39.4H27.1992V31Z" fill="#FFDD33"/>
<path id="Vector_11" d="M35.5992 19.8H27.1992V28.2001H35.5992V19.8Z" fill="#FFDD33"/>
<path id="Vector_12" d="M14.7 12V41.7001H0V37.4001L1.9 33.3L0 29.8V24L3.5 23L6.6 24L0 16.4V12L7.3 10.8L14.7 12Z" fill="#F9FAFB"/>
<path id="Vector_13" d="M11 6.30005H0V12H14.7V10.1C14.7 8.00005 13 6.30005 11 6.30005Z" fill="#002548"/>
<path id="Vector_14" d="M0 29.7001H6.6V37.3001H0V29.7001Z" fill="#FFDD33"/>
<path id="Vector_15" d="M0 16.4H6.6V24H0V16.4Z" fill="#ED1C24"/>
</g>
</g>
<defs>
<clipPath id="clip0_6034_12815">
<rect width="48" height="48" fill="white"/>
</clipPath>
</defs>
</svg>
