<svg width="40" height="40" viewBox="0 0 40 40" fill="none" xmlns="http://www.w3.org/2000/svg">
<g clip-path="url(#clip0_5019_4826)">
<path d="M40 7.33H0V3.45C0 1.91 1.25 0.660004 2.79 0.660004H37.22C38.76 0.660004 40.01 1.91 40.01 3.45L40 7.33Z" fill="#002548"/>
<path d="M37.1 39.33H2.9C1.3 39.33 0 38.03 0 36.43V7.33002H40V36.43C40 38.04 38.7 39.33 37.1 39.33Z" fill="#D2D9DC"/>
<path d="M3.95016 5.28999C4.6626 5.28999 5.24016 4.71244 5.24016 3.99999C5.24016 3.28754 4.6626 2.70999 3.95016 2.70999C3.23771 2.70999 2.66016 3.28754 2.66016 3.99999C2.66016 4.71244 3.23771 5.28999 3.95016 5.28999Z" fill="#ED1C24"/>
<path d="M8.07027 5.28999C8.78272 5.28999 9.36027 4.71244 9.36027 3.99999C9.36027 3.28754 8.78272 2.70999 8.07027 2.70999C7.35783 2.70999 6.78027 3.28754 6.78027 3.99999C6.78027 4.71244 7.35783 5.28999 8.07027 5.28999Z" fill="#FFDD33"/>
<path d="M12.1796 5.28999C12.8921 5.28999 13.4696 4.71244 13.4696 3.99999C13.4696 3.28754 12.8921 2.70999 12.1796 2.70999C11.4672 2.70999 10.8896 3.28754 10.8896 3.99999C10.8896 4.71244 11.4672 5.28999 12.1796 5.28999Z" fill="#54CC5A"/>
<path opacity="0.2" d="M36.1104 5.30001H20.7404C20.0204 5.30001 19.4404 4.72001 19.4404 4.00001C19.4404 3.28001 20.0204 2.70001 20.7404 2.70001H36.1104C36.8304 2.70001 37.4104 3.28001 37.4104 4.00001C37.4004 4.72001 36.8204 5.30001 36.1104 5.30001Z" fill="#F9FAFB"/>
<path d="M29.7302 31.84C34.143 31.84 37.7202 28.2628 37.7202 23.85C37.7202 19.4373 34.143 15.86 29.7302 15.86C25.3175 15.86 21.7402 19.4373 21.7402 23.85C21.7402 28.2628 25.3175 31.84 29.7302 31.84Z" fill="#0054A6"/>
<path d="M27.2698 23.85H32.1898C32.8698 23.85 33.4198 24.4 33.4198 25.08V28.77H26.0498V25.08C26.0498 24.4 26.5998 23.85 27.2698 23.85Z" fill="#54CC5A"/>
<path d="M29.7306 18.72C30.7506 18.72 31.5706 19.55 31.5706 20.56V20.77C31.5706 21.79 30.7406 22.61 29.7306 22.61C28.7106 22.61 27.8906 21.78 27.8906 20.77V20.56C27.8906 19.55 28.7106 18.72 29.7306 18.72Z" fill="#FED2A4"/>
<path d="M14.5703 25.28H17.0303V30.2H14.5703V25.28Z" fill="#0054A6"/>
<path d="M4.74023 20.36H7.20023V30.19H4.74023V20.36Z" fill="#0054A6"/>
<path d="M9.65039 23.4301H12.1104V30.1901H9.65039V23.4301Z" fill="#0054A6"/>
<path d="M14.3902 17.47C14.2802 17.35 14.1202 17.29 13.9602 17.29H8.06024L6.83023 16.06H7.80023V14.83H5.35023C5.01023 14.83 4.74023 15.1 4.74023 15.44V17.9H5.97023V16.93L7.38023 18.34C7.49023 18.46 7.65023 18.52 7.81023 18.52H13.7002L16.5902 21.41L17.4602 20.54L14.3902 17.47Z" fill="#54CC5A"/>
<path d="M2.28027 29.58H19.4903V30.81H2.28027V29.58Z" fill="#839299"/>
</g>
<defs>
<clipPath id="clip0_5019_4826">
<rect width="40" height="40" fill="white"/>
</clipPath>
</defs>
</svg>
