<svg width="60" height="60" viewBox="0 0 60 60" fill="none" xmlns="http://www.w3.org/2000/svg">
<g clip-path="url(#clip0_9995_61011)">
<path d="M30 24.6C36.3513 24.6 41.5 19.4513 41.5 13.1C41.5 6.74873 36.3513 1.60001 30 1.60001C23.6487 1.60001 18.5 6.74873 18.5 13.1C18.5 19.4513 23.6487 24.6 30 24.6Z" fill="#54CC5A"/>
<path d="M57 15V53H33V27.8C39.2 26.5 44.1 21.4 44.9 15H57Z" fill="#D2D9DC"/>
<path d="M27 27.8V50H4V16H15.3C16.4 21.9 21.1 26.6 27 27.8Z" fill="#D2D9DC"/>
<path d="M30 0.600006C23.1 0.600006 17.5 6.20001 17.5 13.1C17.5 20 23.1 25.6 30 25.6C36.9 25.6 42.5 20 42.5 13.1C42.5 6.20001 36.9 0.600006 30 0.600006ZM25.7 15.8C26.2 16.3 26.2 17.1 25.7 17.6C25.4 17.8 25.1 18 24.8 18C24.5 18 24.2 17.9 23.9 17.6L20.4 14C19.9 13.5 19.9 12.7 20.4 12.2L23.9 8.70001C24.4 8.20001 25.2 8.20001 25.7 8.70001C26.2 9.20001 26.2 10 25.7 10.5L23 13.1L25.7 15.8ZM33.7 6.70001L28.7 20.5C28.5 21 28 21.3 27.5 21.3C27.4 21.3 27.2 21.3 27.1 21.2C26.4 21 26.1 20.3 26.3 19.6L31.3 5.80001C31.5 5.10001 32.3 4.80001 32.9 5.00001C33.6 5.30001 33.9 6.00001 33.7 6.70001ZM36.1 17.5C35.8 17.8 35.5 17.9 35.2 17.9C34.9 17.9 34.6 17.8 34.3 17.5C33.8 17 33.8 16.2 34.3 15.7L36.9 13.1L34.3 10.5C33.8 10 33.8 9.20001 34.3 8.70001C34.8 8.20001 35.6 8.20001 36.1 8.70001L39.6 12.2C40.1 12.7 40.1 13.5 39.6 14L36.1 17.5Z" fill="#002548"/>
<path d="M27 27.8C21.1 26.6 16.4 21.9 15.3 16C15.1 15.1 15 14.1 15 13.1C15 12.2 15.1 11.4 15.2 10.6H1.2C0.5 10.6 0 11.2 0 11.8V58.1C0 58.8 0.6 59.3 1.2 59.3H30V28.1C28 28.1 27.6 27.9 27 27.8ZM6.2 18.1H12.9C13.6 18.1 14.1 18.7 14.1 19.4C14.1 20.1 13.5 20.6 12.9 20.6H6.2C5.5 20.6 5 20 5 19.4C5 18.7 5.6 18.1 6.2 18.1ZM6.2 24.4H17.4C18.1 24.4 18.6 25 18.6 25.6C18.6 26.3 18 26.9 17.4 26.9H6.2C5.5 26.9 5 26.3 5 25.6C5 24.9 5.6 24.4 6.2 24.4ZM6.2 30.6H17.4C18.1 30.6 18.6 31.2 18.6 31.9C18.6 32.6 18 33.1 17.4 33.1H6.2C5.5 33.1 5 32.5 5 31.9C5 31.2 5.6 30.6 6.2 30.6ZM23.8 45.6H6.2C5.5 45.6 5 45 5 44.4C5 43.7 5.6 43.1 6.2 43.1H23.7C24.4 43.1 24.9 43.7 24.9 44.4C25 45.1 24.4 45.6 23.8 45.6ZM23.8 39.4H6.2C5.5 39.4 5 38.8 5 38.1C5 37.4 5.6 36.9 6.2 36.9H23.7C24.4 36.9 24.9 37.5 24.9 38.1C25 38.8 24.4 39.4 23.8 39.4Z" fill="#0054A6"/>
<path d="M58.8 10.6H44.8C44.9 11.4 45 12.2 45 13.1C45 13.7 45 14.4 44.9 15C44.1 21.4 39.3 26.6 33 27.8C32.4 27.9 32 28 30 28V59.3H58.8C59.5 59.3 60 58.7 60 58.1V11.9C60 11.2 59.4 10.6 58.8 10.6ZM55 19.4C55 20.1 54.4 20.6 53.8 20.6H47.1C46.4 20.6 45.9 20 45.9 19.4C45.9 18.7 46.5 18.1 47.1 18.1H53.8C54.4 18.1 55 18.7 55 19.4ZM41.2 24.4H53.7C54.4 24.4 54.9 25 54.9 25.6C54.9 26.3 54.3 26.9 53.7 26.9H41.2C40.5 26.9 40 26.3 40 25.6C40 24.9 40.6 24.4 41.2 24.4ZM41.2 30.6H53.7C54.4 30.6 54.9 31.2 54.9 31.9C54.9 32.6 54.3 33.1 53.7 33.1H41.2C40.5 33.1 40 32.5 40 31.9C40 31.2 40.6 30.6 41.2 30.6ZM36.2 36.9H53.7C54.4 36.9 54.9 37.5 54.9 38.1C54.9 38.8 54.3 39.4 53.7 39.4H36.2C35.5 39.4 35 38.8 35 38.1C35 37.4 35.6 36.9 36.2 36.9ZM36.2 43.1H53.7C54.4 43.1 54.9 43.7 54.9 44.4C54.9 45.1 54.3 45.6 53.7 45.6H36.2C35.5 45.6 35 45 35 44.4C35 43.7 35.6 43.1 36.2 43.1Z" fill="#0054A6"/>
</g>
<defs>
<clipPath id="clip0_9995_61011">
<rect width="60" height="60" fill="white"/>
</clipPath>
</defs>
</svg>
