<svg width="40" height="40" viewBox="0 0 40 40" fill="none" xmlns="http://www.w3.org/2000/svg">
<path d="M38.0397 11.45L36.6697 10.66C36.7497 10.24 36.7898 9.82 36.7898 9.38C36.7898 8.94 36.7397 8.51 36.6697 8.1L38.0397 7.31C38.5997 6.99 38.7897 6.27 38.4697 5.71L37.2997 3.67C36.9797 3.11 36.2598 2.92 35.6997 3.24L34.9997 3.64C34.6197 3.86 34.1397 3.86 33.7797 3.61C33.4497 3.38 33.0997 3.18 32.7297 3.01C32.3297 2.82 32.0897 2.41 32.0897 1.97V1.17C32.0897 0.52 31.5597 0 30.9197 0H28.5797C27.9297 0 27.4097 0.53 27.4097 1.17V1.97C27.4097 2.41 27.1697 2.82 26.7797 3.01C26.4097 3.18 26.0597 3.38 25.7297 3.61C25.3697 3.86 24.8897 3.86 24.5097 3.64L23.8197 3.24C23.2597 2.92 22.5397 3.11 22.2197 3.67L21.0497 5.7C20.7297 6.26 20.9197 6.98 21.4797 7.3L22.8497 8.09C22.7697 8.51 22.7297 8.93 22.7297 9.37C22.7297 9.81 22.7797 10.24 22.8497 10.65L21.4797 11.44C20.9197 11.76 20.7297 12.48 21.0497 13.04L22.2197 15.07C22.5397 15.63 23.2597 15.82 23.8197 15.5L24.5097 15.1C24.8897 14.88 25.3697 14.88 25.7297 15.13C26.0597 15.36 26.4097 15.56 26.7797 15.73C27.1797 15.92 27.4197 16.33 27.4197 16.77V17.57C27.4197 18.22 27.9497 18.74 28.5897 18.74H30.9297C31.5797 18.74 32.0997 18.21 32.0997 17.57V16.77C32.0997 16.33 32.3397 15.92 32.7297 15.73C33.0997 15.56 33.4497 15.36 33.7797 15.13C34.1397 14.88 34.6197 14.88 34.9997 15.1L35.6897 15.5C36.2497 15.82 36.9697 15.63 37.2897 15.07L38.4597 13.04C38.7897 12.49 38.5997 11.77 38.0397 11.45ZM29.7597 14.07C27.1697 14.07 25.0697 11.97 25.0697 9.38C25.0697 6.79 27.1697 4.69 29.7597 4.69C32.3497 4.69 34.4497 6.79 34.4497 9.38C34.4497 11.97 32.3497 14.07 29.7597 14.07Z" fill="#0054A6"/>
<path d="M25.3001 12.8H1.37012V10.48C1.37012 9.56 2.12012 8.81 3.04012 8.81H23.6401C24.5601 8.81 25.3101 9.56 25.3101 10.48L25.3001 12.8Z" fill="#002548"/>
<path d="M24.5301 40H2.15012C1.72012 40 1.37012 39.65 1.37012 39.22V12.8H25.3001V39.22C25.3001 39.65 24.9501 40 24.5301 40Z" fill="#D2D9DC"/>
<path d="M3.73973 11.58C4.16499 11.58 4.50973 11.2353 4.50973 10.81C4.50973 10.3847 4.16499 10.04 3.73973 10.04C3.31447 10.04 2.96973 10.3847 2.96973 10.81C2.96973 11.2353 3.31447 11.58 3.73973 11.58Z" fill="#ED1C24"/>
<path d="M6.19969 11.58C6.62495 11.58 6.96969 11.2353 6.96969 10.81C6.96969 10.3847 6.62495 10.04 6.19969 10.04C5.77443 10.04 5.42969 10.3847 5.42969 10.81C5.42969 11.2353 5.77443 11.58 6.19969 11.58Z" fill="#FFDD33"/>
<path d="M8.65965 11.58C9.08491 11.58 9.42965 11.2353 9.42965 10.81C9.42965 10.3847 9.08491 10.04 8.65965 10.04C8.23439 10.04 7.88965 10.3847 7.88965 10.81C7.88965 11.2353 8.23439 11.58 8.65965 11.58Z" fill="#54CC5A"/>
<path opacity="0.2" d="M22.97 11.58H13.78C13.35 11.58 13 11.23 13 10.8C13 10.37 13.35 10.02 13.78 10.02H22.97C23.4 10.02 23.75 10.37 23.75 10.8C23.75 11.24 23.4 11.58 22.97 11.58Z" fill="#F9FAFB"/>
<path d="M36.3798 23.88H26.5498V21.56C26.5498 20.64 27.2998 19.89 28.2198 19.89H34.7198C35.6398 19.89 36.3898 20.64 36.3898 21.56L36.3798 23.88Z" fill="#002548"/>
<path d="M35.6 37.99H27.32C26.89 37.99 26.54 37.64 26.54 37.21V23.88H36.37V37.21C36.38 37.64 36.03 37.99 35.6 37.99Z" fill="#D2D9DC"/>
<path fill-rule="evenodd" clip-rule="evenodd" d="M22.71 15.43C22.71 15.06 22.41 14.76 22.04 14.76H4.62996C4.25996 14.76 3.95996 15.06 3.95996 15.43V18.11C3.95996 18.48 4.25996 18.78 4.62996 18.78H22.04C22.41 18.78 22.71 18.48 22.71 18.11V15.43Z" fill="#839299"/>
<path fill-rule="evenodd" clip-rule="evenodd" d="M22.71 27.48C22.71 27.11 22.41 26.81 22.04 26.81H4.62996C4.25996 26.81 3.95996 27.11 3.95996 27.48V30.16C3.95996 30.53 4.25996 30.83 4.62996 30.83H22.04C22.41 30.83 22.71 30.53 22.71 30.16V27.48Z" fill="#839299"/>
<path fill-rule="evenodd" clip-rule="evenodd" d="M12.67 20.78C12.67 20.41 12.37 20.11 12 20.11H4.62996C4.25996 20.11 3.95996 20.41 3.95996 20.78V24.8C3.95996 25.17 4.25996 25.47 4.62996 25.47H12C12.37 25.47 12.67 25.17 12.67 24.8V20.78Z" fill="#839299"/>
<path fill-rule="evenodd" clip-rule="evenodd" d="M22.71 20.78C22.71 20.41 22.41 20.11 22.04 20.11H14.67C14.3 20.11 14 20.41 14 20.78V24.8C14 25.17 14.3 25.47 14.67 25.47H22.04C22.41 25.47 22.71 25.17 22.71 24.8V20.78Z" fill="#839299"/>
<path fill-rule="evenodd" clip-rule="evenodd" d="M12.67 32.84C12.67 32.47 12.37 32.17 12 32.17H4.62996C4.25996 32.17 3.95996 32.47 3.95996 32.84V36.86C3.95996 37.23 4.25996 37.53 4.62996 37.53H12C12.37 37.53 12.67 37.23 12.67 36.86V32.84ZM22.71 32.84C22.71 32.47 22.41 32.17 22.04 32.17H14.67C14.3 32.17 14 32.47 14 32.84V36.86C14 37.23 14.3 37.53 14.67 37.53H22.04C22.41 37.53 22.71 37.23 22.71 36.86V32.84Z" fill="#839299"/>
<path fill-rule="evenodd" clip-rule="evenodd" d="M28.4904 33.89H30.2604C30.5904 33.89 30.8604 33.62 30.8604 33.29C30.8604 32.96 30.5904 32.69 30.2604 32.69H28.4904C28.1604 32.69 27.8904 32.96 27.8904 33.29C27.8904 33.62 28.1604 33.89 28.4904 33.89ZM32.6804 33.89H34.4504C34.7804 33.89 35.0504 33.62 35.0504 33.29C35.0504 32.96 34.7804 32.69 34.4504 32.69H32.6804C32.3504 32.69 32.0804 32.96 32.0804 33.29C32.0804 33.62 32.3504 33.89 32.6804 33.89ZM28.4604 29.1H30.2304C30.5604 29.1 30.8304 28.83 30.8304 28.5C30.8304 28.17 30.5604 27.9 30.2304 27.9H28.4604C28.1304 27.9 27.8604 28.17 27.8604 28.5C27.8704 28.84 28.1304 29.1 28.4604 29.1ZM32.6804 29.1H34.4504C34.7804 29.1 35.0504 28.83 35.0504 28.5C35.0504 28.17 34.7804 27.9 34.4504 27.9H32.6804C32.3504 27.9 32.0804 28.17 32.0804 28.5C32.0904 28.84 32.3504 29.1 32.6804 29.1Z" fill="#839299"/>
<path fill-rule="evenodd" clip-rule="evenodd" d="M28.4806 36.29H34.4606C34.7906 36.29 35.0606 36.02 35.0606 35.69C35.0606 35.36 34.7906 35.09 34.4606 35.09H28.4806C28.1506 35.09 27.8806 35.36 27.8806 35.69C27.8806 36.02 28.1506 36.29 28.4806 36.29ZM28.4806 31.5H34.4606C34.7906 31.5 35.0606 31.23 35.0606 30.9C35.0606 30.57 34.7906 30.3 34.4606 30.3H28.4806C28.1506 30.3 27.8806 30.57 27.8806 30.9C27.8806 31.23 28.1506 31.5 28.4806 31.5ZM28.4506 26.71H34.4306C34.7606 26.71 35.0306 26.44 35.0306 26.11C35.0306 25.78 34.7606 25.51 34.4306 25.51H28.4506C28.1206 25.51 27.8506 25.78 27.8506 26.11C27.8606 26.44 28.1206 26.71 28.4506 26.71Z" fill="#839299"/>
</svg>
