<svg width="40" height="40" viewBox="0 0 40 40" fill="none" xmlns="http://www.w3.org/2000/svg">
<g clip-path="url(#clip0_5019_6196)">
<path d="M32.78 5.55H0V2.37C0 1.11 1.02 0.0899963 2.28 0.0899963H30.5C31.76 0.0899963 32.78 1.11 32.78 2.37V5.55Z" fill="#002548"/>
<path d="M31.72 31.78H1.06C0.48 31.78 0 31.3 0 30.71V5.54999H32.78V30.71C32.78 31.3 32.31 31.78 31.72 31.78Z" fill="#D2D9DC"/>
<path d="M3.24043 3.86999C3.82033 3.86999 4.29043 3.39989 4.29043 2.81999C4.29043 2.24009 3.82033 1.76999 3.24043 1.76999C2.66053 1.76999 2.19043 2.24009 2.19043 2.81999C2.19043 3.39989 2.66053 3.86999 3.24043 3.86999Z" fill="#ED1C24"/>
<path d="M6.60957 3.86999C7.18947 3.86999 7.65957 3.39989 7.65957 2.81999C7.65957 2.24009 7.18947 1.76999 6.60957 1.76999C6.02967 1.76999 5.55957 2.24009 5.55957 2.81999C5.55957 3.39989 6.02967 3.86999 6.60957 3.86999Z" fill="#FFDD33"/>
<path d="M9.97969 3.86999C10.5596 3.86999 11.0297 3.39989 11.0297 2.81999C11.0297 2.24009 10.5596 1.76999 9.97969 1.76999C9.39979 1.76999 8.92969 2.24009 8.92969 2.81999C8.92969 3.39989 9.39979 3.86999 9.97969 3.86999Z" fill="#54CC5A"/>
<path d="M5.90008 14.34L5.34008 15.61H4.33008L6.79008 10.03H7.80008L10.2601 15.61H9.25008L8.69008 14.34H5.90008ZM8.31008 13.47L7.30008 11.17L6.29008 13.47H8.31008Z" fill="#0054A6"/>
<path d="M14.8 10.52C15.19 10.84 15.38 11.34 15.38 12.02C15.38 12.7 15.18 13.19 14.79 13.51C14.39 13.82 13.79 13.98 12.97 13.98H11.98V15.62H11.04V10.04H12.96C13.79 10.03 14.41 10.19 14.8 10.52ZM14.13 12.82C14.32 12.62 14.41 12.33 14.41 11.94C14.41 11.55 14.29 11.28 14.05 11.12C13.81 10.96 13.44 10.88 12.92 10.88H11.96V13.11H13.05C13.59 13.12 13.94 13.02 14.13 12.82Z" fill="#0054A6"/>
<path d="M16.4902 10.03H17.4302V15.61H16.4902V10.03Z" fill="#0054A6"/>
<path opacity="0.2" d="M29.5904 3.88001H17.0004C16.4104 3.88001 15.9404 3.40001 15.9404 2.82001C15.9404 2.23001 16.4204 1.76001 17.0004 1.76001H29.5904C30.1804 1.76001 30.6504 2.24001 30.6504 2.82001C30.6504 3.41001 30.1804 3.88001 29.5904 3.88001Z" fill="#F9FAFB"/>
<path d="M39.1998 29.91L37.3298 28.83C37.4398 28.26 37.4998 27.67 37.4998 27.07C37.4998 26.47 37.4398 25.88 37.3298 25.31L39.1998 24.23C39.9698 23.79 40.2298 22.8 39.7898 22.04L38.1798 19.26C37.7398 18.49 36.7498 18.23 35.9898 18.67L35.0398 19.22C34.5198 19.52 33.8598 19.52 33.3698 19.18C32.9198 18.87 32.4398 18.59 31.9398 18.35C31.3898 18.1 31.0698 17.53 31.0698 16.93V15.83C31.0698 14.94 30.3498 14.22 29.4598 14.22H26.2498C25.3598 14.22 24.6398 14.94 24.6398 15.83V16.93C24.6398 17.53 24.3198 18.1 23.7698 18.35C23.2698 18.58 22.7898 18.86 22.3398 19.18C21.8498 19.52 21.1898 19.52 20.6698 19.22L19.7198 18.67C18.9498 18.23 17.9698 18.49 17.5298 19.26L15.9198 22.04C15.4798 22.81 15.7398 23.79 16.5098 24.23L18.3798 25.31C18.2698 25.88 18.2098 26.47 18.2098 27.07C18.2098 27.67 18.2698 28.26 18.3798 28.83L16.5098 29.91C15.7398 30.35 15.4798 31.34 15.9198 32.1L17.5298 34.88C17.9698 35.65 18.9598 35.91 19.7198 35.47L20.6698 34.92C21.1898 34.62 21.8498 34.62 22.3398 34.96C22.7898 35.27 23.2698 35.55 23.7698 35.79C24.3198 36.04 24.6398 36.61 24.6398 37.21V38.31C24.6398 39.2 25.3598 39.92 26.2498 39.92H29.4598C30.3498 39.92 31.0698 39.2 31.0698 38.31V37.21C31.0698 36.61 31.3898 36.04 31.9398 35.79C32.4398 35.56 32.9198 35.28 33.3698 34.96C33.8598 34.62 34.5198 34.62 35.0398 34.92L35.9898 35.47C36.7598 35.91 37.7398 35.65 38.1798 34.88L39.7898 32.1C40.2298 31.33 39.9598 30.35 39.1998 29.91ZM27.8598 33.49C24.3098 33.49 21.4398 30.61 21.4398 27.07C21.4398 23.53 24.3198 20.65 27.8598 20.65C31.3998 20.65 34.2798 23.53 34.2798 27.07C34.2798 30.61 31.3998 33.49 27.8598 33.49Z" fill="#0054A6"/>
</g>
<defs>
<clipPath id="clip0_5019_6196">
<rect width="40" height="40" fill="white"/>
</clipPath>
</defs>
</svg>
