<svg width="60" height="60" viewBox="0 0 60 60" fill="none" xmlns="http://www.w3.org/2000/svg">
<path d="M6.48108 19.3235L6 20.1875V45.0048C6 45.7912 6.31433 46.5455 6.87407 47.1023C7.43382 47.6592 8.1933 47.9731 8.98599 47.9753H50.989C51.3836 47.9774 51.7747 47.9022 52.1399 47.7539C52.5051 47.6056 52.8372 47.3871 53.117 47.1111C53.3968 46.835 53.6188 46.5068 53.7703 46.1453C53.9219 45.7839 53.9998 45.3962 53.9998 45.0048V20.1875L53.5188 19.3235H6.48108Z" fill="#ECEFF1"/>
<path d="M24.0157 35.7394C23.9095 35.743 23.8038 35.7217 23.7073 35.6774C23.6108 35.6331 23.5261 35.567 23.46 35.4843L19.0971 30.251C18.9928 30.1212 18.936 29.9602 18.936 29.7943C18.936 29.6283 18.9928 29.4673 19.0971 29.3376L23.46 24.1042C23.5208 24.0315 23.5955 23.9715 23.6798 23.9276C23.7641 23.8836 23.8563 23.8567 23.9511 23.8483C24.046 23.8399 24.1415 23.8501 24.2323 23.8785C24.3232 23.9069 24.4074 23.9529 24.4802 24.0137C24.5532 24.0733 24.6136 24.1467 24.6578 24.2296C24.702 24.3125 24.7291 24.4033 24.7376 24.4967C24.7461 24.5901 24.7357 24.6843 24.7072 24.7737C24.6787 24.8631 24.6326 24.946 24.5715 25.0176L20.5984 29.7984L24.5715 34.571C24.6328 34.6432 24.6791 34.7268 24.7077 34.8169C24.7364 34.907 24.7467 35.0018 24.7383 35.0959C24.7298 35.1899 24.7026 35.2814 24.6583 35.365C24.614 35.4487 24.5535 35.5228 24.4802 35.5831C24.3476 35.6856 24.1839 35.7407 24.0157 35.7394Z" fill="#E30E08"/>
<path d="M35.9845 35.7394C35.814 35.7467 35.6474 35.6876 35.52 35.5748C35.3733 35.4544 35.2804 35.2813 35.2618 35.0932C35.2431 34.9052 35.3002 34.7174 35.4205 34.571L39.4018 29.7984L35.4205 25.0176C35.2984 24.8648 35.2425 24.6702 35.265 24.4766C35.2876 24.2829 35.3868 24.1061 35.5408 23.9849C35.6948 23.8638 35.8909 23.8083 36.0862 23.8307C36.2814 23.8531 36.4596 23.9515 36.5817 24.1042L40.9363 29.3376C41.0451 29.4653 41.1047 29.6271 41.1047 29.7943C41.1047 29.9615 41.0451 30.1233 40.9363 30.251L36.5817 35.4843C36.5144 35.5656 36.4294 35.6307 36.3332 35.6748C36.237 35.719 36.132 35.7411 36.026 35.7394H35.9845Z" fill="#E30E08"/>
<path d="M27.4991 35.7476C27.3924 35.7466 27.2874 35.7212 27.1922 35.6736C27.0196 35.5916 26.8863 35.4456 26.8212 35.267C26.756 35.0885 26.7642 34.8917 26.8438 34.7191L31.8205 24.2606C31.8608 24.1752 31.9177 24.0986 31.9878 24.035C32.058 23.9714 32.1401 23.9222 32.2294 23.8901C32.3188 23.858 32.4136 23.8437 32.5085 23.848C32.6035 23.8522 32.6966 23.875 32.7826 23.915C32.8687 23.955 32.946 24.0114 33.01 24.081C33.0741 24.1506 33.1238 24.232 33.1561 24.3207C33.1884 24.4093 33.2029 24.5034 33.1986 24.5975C33.1943 24.6917 33.1713 24.7841 33.131 24.8695L28.1544 35.328C28.098 35.4535 28.006 35.56 27.8897 35.6345C27.7733 35.709 27.6376 35.7483 27.4991 35.7476Z" fill="#E30E08"/>
<g opacity="0.46">
<path d="M49.0895 19.3235V40.1746C49.0895 40.9624 48.7741 41.718 48.2125 42.2751C47.651 42.8321 46.8894 43.1451 46.0953 43.1451H6V45.0294C6 45.8159 6.31433 46.5702 6.87407 47.127C7.43382 47.6839 8.1933 47.9978 8.98599 48H50.989C51.3857 48.0021 51.7789 47.9261 52.1457 47.7763C52.5126 47.6264 52.8457 47.4057 53.1259 47.1271C53.406 46.8484 53.6275 46.5173 53.7775 46.1529C53.9276 45.7886 54.0031 45.3983 53.9998 45.0048V20.1875L53.5188 19.3235H49.0895Z" fill="#D2D9DC"/>
</g>
<path d="M50.989 12H8.98601C8.59318 12 8.20421 12.0769 7.8414 12.2263C7.47858 12.3757 7.14903 12.5946 6.87165 12.8706C6.59427 13.1465 6.37449 13.4741 6.22492 13.8344C6.07535 14.1948 5.99892 14.5808 6.00001 14.9706V20.1875H53.9999V14.9706C53.9999 14.5791 53.9219 14.1914 53.7704 13.83C53.6188 13.4685 53.3968 13.1403 53.117 12.8642C52.8372 12.5882 52.5051 12.3697 52.1399 12.2214C51.7747 12.0731 51.3836 11.9979 50.989 12Z" fill="#006EE5"/>
<path d="M50.9893 12H49.0898V20.2286H54.0001V14.9706C54.0001 14.5791 53.9222 14.1914 53.7706 13.83C53.6191 13.4685 53.3971 13.1403 53.1173 12.8642C52.8375 12.5882 52.5054 12.3697 52.1402 12.2214C51.775 12.0731 51.3839 11.9979 50.9893 12Z" fill="#0062BA"/>
<path d="M11.4162 17.4227C12.1583 17.4227 12.7599 16.8259 12.7599 16.0896C12.7599 15.3534 12.1583 14.7566 11.4162 14.7566C10.6741 14.7566 10.0725 15.3534 10.0725 16.0896C10.0725 16.8259 10.6741 17.4227 11.4162 17.4227Z" fill="#E30E08"/>
<path d="M15.5385 17.4227C16.2806 17.4227 16.8822 16.8259 16.8822 16.0896C16.8822 15.3534 16.2806 14.7566 15.5385 14.7566C14.7964 14.7566 14.1948 15.3534 14.1948 16.0896C14.1948 16.8259 14.7964 17.4227 15.5385 17.4227Z" fill="#FCC400"/>
<path d="M19.6691 17.4227C20.4112 17.4227 21.0128 16.8259 21.0128 16.0896C21.0128 15.3534 20.4112 14.7566 19.6691 14.7566C18.927 14.7566 18.3254 15.3534 18.3254 16.0896C18.3254 16.8259 18.927 17.4227 19.6691 17.4227Z" fill="#80D261"/>
<path d="M14.2613 41.3019H11.0348C10.8557 41.2829 10.69 41.1988 10.5696 41.0659C10.4492 40.933 10.3826 40.7606 10.3826 40.5819C10.3826 40.4032 10.4492 40.2308 10.5696 40.0979C10.69 39.965 10.8557 39.8809 11.0348 39.8619H14.2613C14.4404 39.8809 14.6061 39.965 14.7265 40.0979C14.8469 40.2308 14.9135 40.4032 14.9135 40.5819C14.9135 40.7606 14.8469 40.933 14.7265 41.0659C14.6061 41.1988 14.4404 41.2829 14.2613 41.3019Z" fill="#80D261"/>
<path d="M22.6469 41.3019H17.5044C17.4026 41.3127 17.2996 41.3022 17.2021 41.2709C17.1047 41.2396 17.015 41.1884 16.9388 41.1205C16.8626 41.0526 16.8017 40.9695 16.76 40.8768C16.7183 40.784 16.6968 40.6835 16.6968 40.5819C16.6968 40.4803 16.7183 40.3799 16.76 40.2871C16.8017 40.1943 16.8626 40.1112 16.9388 40.0433C17.015 39.9754 17.1047 39.9242 17.2021 39.8929C17.2996 39.8617 17.4026 39.8511 17.5044 39.8619H22.6469C22.7488 39.8511 22.8517 39.8617 22.9492 39.8929C23.0466 39.9242 23.1363 39.9754 23.2125 40.0433C23.2887 40.1112 23.3496 40.1943 23.3913 40.2871C23.433 40.3799 23.4545 40.4803 23.4545 40.5819C23.4545 40.6835 23.433 40.784 23.3913 40.8768C23.3496 40.9695 23.2887 41.0526 23.2125 41.1205C23.1363 41.1884 23.0466 41.2396 22.9492 41.2709C22.8517 41.3022 22.7488 41.3127 22.6469 41.3019Z" fill="#8DB3DF"/>
<path d="M38.7215 41.3019H31.7128C31.5337 41.2829 31.368 41.1988 31.2476 41.0659C31.1272 40.933 31.0605 40.7606 31.0605 40.5819C31.0605 40.4032 31.1272 40.2308 31.2476 40.0979C31.368 39.965 31.5337 39.8809 31.7128 39.8619H38.7215C38.8234 39.8511 38.9264 39.8617 39.0238 39.8929C39.1212 39.9242 39.211 39.9754 39.2871 40.0433C39.3633 40.1112 39.4242 40.1943 39.4659 40.2871C39.5076 40.3799 39.5292 40.4803 39.5292 40.5819C39.5292 40.6835 39.5076 40.784 39.4659 40.8768C39.4242 40.9695 39.3633 41.0526 39.2871 41.1205C39.211 41.1884 39.1212 41.2396 39.0238 41.2709C38.9264 41.3022 38.8234 41.3127 38.7215 41.3019Z" fill="#FCC400"/>
<path d="M28.2375 41.3019H26.1141C25.935 41.2829 25.7693 41.1988 25.6489 41.0659C25.5285 40.933 25.4619 40.7606 25.4619 40.5819C25.4619 40.4032 25.5285 40.2308 25.6489 40.0979C25.7693 39.965 25.935 39.8809 26.1141 39.8619H28.2375C28.4166 39.8809 28.5823 39.965 28.7027 40.0979C28.8231 40.2308 28.8897 40.4032 28.8897 40.5819C28.8897 40.7606 28.8231 40.933 28.7027 41.0659C28.5823 41.1988 28.4166 41.2829 28.2375 41.3019Z" fill="#80D261"/>
<path d="M18.6407 44.7826H15.4225C15.2434 44.7636 15.0777 44.6795 14.9573 44.5466C14.8369 44.4137 14.7703 44.2413 14.7703 44.0626C14.7703 43.8839 14.8369 43.7115 14.9573 43.5786C15.0777 43.4457 15.2434 43.3616 15.4225 43.3426H18.6407C18.8198 43.3616 18.9855 43.4457 19.1059 43.5786C19.2263 43.7115 19.2929 43.8839 19.2929 44.0626C19.2929 44.2413 19.2263 44.4137 19.1059 44.5466C18.9855 44.6795 18.8198 44.7636 18.6407 44.7826Z" fill="#8DB3DF"/>
<path d="M26.711 44.7826H21.8754C21.6962 44.7636 21.5306 44.6795 21.4102 44.5466C21.2898 44.4137 21.2231 44.2413 21.2231 44.0626C21.2231 43.8839 21.2898 43.7115 21.4102 43.5786C21.5306 43.4457 21.6962 43.3616 21.8754 43.3426H26.711C26.8128 43.3318 26.9158 43.3423 27.0133 43.3736C27.1107 43.4048 27.2004 43.4561 27.2766 43.524C27.3528 43.5919 27.4137 43.6749 27.4554 43.7677C27.4971 43.8605 27.5186 43.961 27.5186 44.0626C27.5186 44.1642 27.4971 44.2646 27.4554 44.3574C27.4137 44.4502 27.3528 44.5333 27.2766 44.6012C27.2004 44.6691 27.1107 44.7203 27.0133 44.7516C26.9158 44.7828 26.8128 44.7934 26.711 44.7826Z" fill="#8DB3DF"/>
<path d="M32.3848 44.7826H30.1868C30.0849 44.7934 29.982 44.7828 29.8845 44.7516C29.7871 44.7203 29.6973 44.6691 29.6212 44.6012C29.545 44.5333 29.4841 44.4502 29.4424 44.3574C29.4007 44.2646 29.3792 44.1642 29.3792 44.0626C29.3792 43.961 29.4007 43.8605 29.4424 43.7677C29.4841 43.6749 29.545 43.5919 29.6212 43.524C29.6973 43.4561 29.7871 43.4048 29.8845 43.3736C29.982 43.3423 30.0849 43.3318 30.1868 43.3426H32.3848C32.5639 43.3616 32.7296 43.4457 32.85 43.5786C32.9704 43.7115 33.037 43.8839 33.037 44.0626C33.037 44.2413 32.9704 44.4137 32.85 44.5466C32.7296 44.6795 32.5639 44.7636 32.3848 44.7826Z" fill="#80D261"/>
<path d="M48.5338 44.7826H46.3524C46.1733 44.7636 46.0076 44.6795 45.8872 44.5466C45.7668 44.4137 45.7002 44.2413 45.7002 44.0626C45.7002 43.8839 45.7668 43.7115 45.8872 43.5786C46.0076 43.4457 46.1733 43.3616 46.3524 43.3426H48.5338C48.7129 43.3616 48.8786 43.4457 48.999 43.5786C49.1194 43.7115 49.1861 43.8839 49.1861 44.0626C49.1861 44.2413 49.1194 44.4137 48.999 44.5466C48.8786 44.6795 48.7129 44.7636 48.5338 44.7826Z" fill="#80D261"/>
<path d="M42.9436 44.7826H35.8436C35.6645 44.7636 35.4988 44.6795 35.3784 44.5466C35.258 44.4137 35.1914 44.2413 35.1914 44.0626C35.1914 43.8839 35.258 43.7115 35.3784 43.5786C35.4988 43.4457 35.6645 43.3616 35.8436 43.3426H42.9436C43.1228 43.3616 43.2884 43.4457 43.4088 43.5786C43.5293 43.7115 43.5959 43.8839 43.5959 44.0626C43.5959 44.2413 43.5293 44.4137 43.4088 44.5466C43.2884 44.6795 43.1228 44.7636 42.9436 44.7826Z" fill="#FCC400"/>
</svg>
