<svg width="40" height="40" viewBox="0 0 40 40" fill="none" xmlns="http://www.w3.org/2000/svg">
<path d="M10.0003 25.71H38.5703C39.3603 25.71 40.0003 25.07 40.0003 24.28V4.28001C40.0003 3.49001 39.3603 2.85001 38.5703 2.85001H10.0003C9.21031 2.85001 8.57031 3.49001 8.57031 4.28001V24.28C8.57031 25.07 9.21031 25.71 10.0003 25.71Z" fill="#002548"/>
<path d="M10.6098 24.34H37.9698C38.4098 24.34 38.7698 23.96 38.7698 23.5V5.07001C38.7698 4.61001 38.4098 4.23001 37.9698 4.23001H10.6098C10.1698 4.23001 9.80977 4.61001 9.80977 5.07001V23.5C9.79977 23.97 10.1598 24.34 10.6098 24.34Z" fill="#D2D9DC"/>
<path d="M27.1397 28.57H21.4297V25.71H27.1397V28.57Z" fill="#002548"/>
<path d="M15.71 30H32.85C32.85 29.21 32.21 28.57 31.42 28.57H17.14C16.35 28.57 15.71 29.21 15.71 30Z" fill="#002548"/>
<g opacity="0.19">
<path d="M27.1397 26.43H21.4297V25.72H27.1397V26.43Z" fill="#F9FAFB"/>
</g>
<path d="M18.57 37.14H1.43C0.64 37.14 0 36.5 0 35.71V20.96H20V35.71C20 36.5 19.36 37.14 18.57 37.14Z" fill="#D2D9DC"/>
<path d="M20 21.59H0V20C0 19.21 0.64 18.57 1.43 18.57H18.57C19.36 18.57 20 19.21 20 20V21.59Z" fill="#002548"/>
<path d="M6.25004 20.79C6.64216 20.79 6.96004 20.4721 6.96004 20.08C6.96004 19.6879 6.64216 19.37 6.25004 19.37C5.85792 19.37 5.54004 19.6879 5.54004 20.08C5.54004 20.4721 5.85792 20.79 6.25004 20.79Z" fill="#54CC5A"/>
<path d="M4.03031 20.79C4.42243 20.79 4.74031 20.4721 4.74031 20.08C4.74031 19.6879 4.42243 19.37 4.03031 19.37C3.63819 19.37 3.32031 19.6879 3.32031 20.08C3.32031 20.4721 3.63819 20.79 4.03031 20.79Z" fill="#FFDD33"/>
<path d="M1.79984 20.79C2.19197 20.79 2.50984 20.4721 2.50984 20.08C2.50984 19.6879 2.19197 19.37 1.79984 19.37C1.40772 19.37 1.08984 19.6879 1.08984 20.08C1.08984 20.4721 1.40772 20.79 1.79984 20.79Z" fill="#ED1C24"/>
<path d="M15.0398 31.26L14.2098 30.78C14.2598 30.53 14.2798 30.27 14.2798 30C14.2798 29.73 14.2498 29.47 14.2098 29.22L15.0398 28.74C15.3798 28.54 15.4998 28.11 15.2998 27.76L14.5898 26.52C14.3898 26.18 13.9598 26.06 13.6098 26.26L13.1898 26.5C12.9598 26.63 12.6698 26.64 12.4498 26.48C12.2498 26.34 12.0398 26.22 11.8098 26.11C11.5698 26 11.4198 25.74 11.4198 25.48V25C11.4198 24.61 11.0998 24.29 10.7098 24.29H9.28982C8.89982 24.29 8.57982 24.61 8.57982 25V25.49C8.57982 25.76 8.43982 26.01 8.18982 26.12C7.96982 26.22 7.74982 26.35 7.54982 26.49C7.32982 26.64 7.03982 26.64 6.80982 26.51L6.38982 26.27C6.04982 26.07 5.60982 26.19 5.40982 26.53L4.69982 27.77C4.49982 28.11 4.61982 28.55 4.95982 28.75L5.78982 29.23C5.73982 29.47 5.70982 29.73 5.70982 30C5.70982 30.27 5.73982 30.53 5.77982 30.78L4.94982 31.26C4.60982 31.46 4.48982 31.89 4.68982 32.24L5.39982 33.48C5.59982 33.82 6.02982 33.94 6.37982 33.74L6.79982 33.5C7.02982 33.37 7.31982 33.37 7.53982 33.52C7.73982 33.66 7.94982 33.78 8.17982 33.89C8.41982 34 8.56982 34.26 8.56982 34.52V35C8.56982 35.39 8.88982 35.71 9.27982 35.71H10.7098C11.0998 35.71 11.4198 35.39 11.4198 35V34.51C11.4198 34.24 11.5598 33.99 11.8098 33.88C12.0298 33.78 12.2498 33.65 12.4498 33.51C12.6698 33.36 12.9598 33.36 13.1898 33.49L13.6098 33.73C13.9498 33.93 14.3898 33.81 14.5898 33.47L15.2998 32.23C15.4998 31.9 15.3898 31.46 15.0398 31.26ZM9.99982 32.86C8.41982 32.86 7.13982 31.58 7.13982 30C7.13982 28.42 8.41982 27.14 9.99982 27.14C11.5798 27.14 12.8598 28.42 12.8598 30C12.8598 31.58 11.5798 32.86 9.99982 32.86Z" fill="#0054A6"/>
<path d="M19.4704 8.07001L17.3304 5.93001C17.1304 5.73001 16.8204 5.67001 16.5504 5.77001C16.2804 5.88001 16.1104 6.14001 16.1104 6.43001V7.14001H12.5404C11.7504 7.14001 11.1104 7.78001 11.1104 8.57001V18.57H13.9704V10H16.1104V10.71C16.1104 11 16.2804 11.26 16.5504 11.37C16.6404 11.41 16.7304 11.42 16.8204 11.42C17.0104 11.42 17.1904 11.35 17.3304 11.21L19.4704 9.07001C19.7504 8.80001 19.7504 8.35001 19.4704 8.07001Z" fill="#54CC5A"/>
<path d="M24.5504 16.59C24.5504 16.72 24.5404 16.84 24.5304 16.91C24.5204 16.99 24.5004 17.04 24.4804 17.07C24.4604 17.1 24.4304 17.12 24.3904 17.11C24.3604 17.11 24.3104 17.09 24.2604 17.07L20.0504 14.97C20.0004 14.94 19.9604 14.88 19.9404 14.79C19.9204 14.7 19.9004 14.55 19.9004 14.37C19.9004 14.28 19.9004 14.2 19.9104 14.12C19.9204 14.05 19.9304 13.99 19.9404 13.95C19.9504 13.91 19.9704 13.87 19.9904 13.84C20.0104 13.81 20.0304 13.79 20.0604 13.78L24.2704 11.69C24.3704 11.64 24.4504 11.65 24.5004 11.72C24.5404 11.79 24.5604 11.94 24.5604 12.16C24.5604 12.31 24.5604 12.43 24.5504 12.52C24.5404 12.61 24.5404 12.67 24.5204 12.73C24.5104 12.78 24.4904 12.82 24.4604 12.84C24.4304 12.86 24.4004 12.88 24.3604 12.9L21.1904 14.39L24.3004 15.84C24.3504 15.86 24.4004 15.89 24.4304 15.91C24.4604 15.94 24.4904 15.97 24.5104 16.03C24.5304 16.08 24.5404 16.15 24.5504 16.25C24.5504 16.32 24.5504 16.44 24.5504 16.59Z" fill="#0054A6"/>
<path d="M26.5199 18.97C26.4999 19.02 26.4799 19.05 26.4499 19.08C26.4199 19.11 26.3799 19.13 26.3299 19.15C26.2799 19.17 26.2099 19.18 26.1399 19.19C26.0599 19.2 25.9699 19.2 25.8399 19.2C25.6899 19.2 25.5599 19.19 25.4699 19.18C25.3799 19.17 25.3099 19.14 25.2499 19.12C25.1999 19.09 25.1699 19.05 25.1699 19.01C25.1599 18.97 25.1699 18.91 25.1899 18.85L28.4799 9.60999C28.4899 9.55999 28.5199 9.52999 28.5399 9.49C28.5699 9.46 28.6099 9.44 28.6599 9.42C28.7099 9.4 28.7799 9.39 28.8699 9.38C28.9599 9.37 29.0499 9.37 29.1699 9.37C29.3199 9.37 29.4499 9.38 29.5399 9.39C29.6299 9.4 29.6999 9.43 29.7599 9.45C29.8099 9.48 29.8299 9.52 29.8399 9.56C29.8499 9.6 29.8399 9.66 29.8199 9.72L26.5199 18.97Z" fill="#0054A6"/>
<path d="M35.1903 14.39C35.1903 14.48 35.1903 14.56 35.1803 14.64C35.1703 14.72 35.1603 14.77 35.1503 14.81C35.1403 14.86 35.1203 14.89 35.1003 14.92C35.0803 14.95 35.0603 14.97 35.0303 14.98L30.8203 17.07C30.7703 17.1 30.7303 17.11 30.6903 17.1C30.6503 17.1 30.6203 17.08 30.6003 17.04C30.5803 17 30.5603 16.95 30.5503 16.88C30.5403 16.81 30.5403 16.72 30.5403 16.6C30.5403 16.45 30.5403 16.33 30.5503 16.24C30.5603 16.15 30.5703 16.09 30.5803 16.03C30.5903 15.97 30.6103 15.94 30.6403 15.92C30.6703 15.9 30.7003 15.88 30.7403 15.86L33.9103 14.37L30.8003 12.92C30.7403 12.89 30.7003 12.87 30.6603 12.84C30.6303 12.81 30.6003 12.78 30.5803 12.72C30.5603 12.67 30.5503 12.6 30.5403 12.5C30.5303 12.41 30.5303 12.28 30.5303 12.13C30.5303 12 30.5303 11.88 30.5403 11.81C30.5503 11.73 30.5703 11.68 30.5903 11.65C30.6103 11.62 30.6403 11.6 30.6803 11.61C30.7203 11.61 30.7603 11.63 30.8103 11.65L35.0303 13.75C35.0803 13.77 35.1103 13.83 35.1403 13.92C35.1803 14.06 35.1903 14.2 35.1903 14.39Z" fill="#0054A6"/>
</svg>
