<svg width="32" height="32" viewBox="0 0 32 32" fill="none" xmlns="http://www.w3.org/2000/svg">
<path d="M10.1333 21.2854C10.1331 19.3942 10.7907 17.5618 11.9934 16.1022C13.1961 14.6427 14.869 13.6468 16.7253 13.2854V6.24543L16.448 6.18677H0.912006L0.656006 6.24543V27.5201C0.656006 27.6021 0.688596 27.6808 0.746607 27.7388C0.775332 27.7676 0.809432 27.7903 0.846962 27.8059C0.884492 27.8214 0.924717 27.8294 0.965339 27.8294H13.456C12.4277 27.0757 11.5912 26.0906 11.014 24.9538C10.4368 23.817 10.1351 22.5604 10.1333 21.2854Z" fill="#F3F0F3"/>
<path d="M3.24801 27.52V6.24536H0.656006V27.52C0.656006 27.6021 0.688596 27.6807 0.746607 27.7388C0.775332 27.7675 0.809432 27.7903 0.846962 27.8058C0.884492 27.8214 0.924717 27.8294 0.965339 27.8294H3.56267C3.48013 27.8294 3.40089 27.797 3.34203 27.7391C3.28317 27.6812 3.2494 27.6026 3.24801 27.52Z" fill="#E2DEE2"/>
<path d="M16.736 6.24537H0.656006V3.66404C0.656006 3.49854 0.721749 3.33983 0.838771 3.2228C0.955794 3.10578 1.11451 3.04004 1.28001 3.04004H16.112C16.2775 3.04004 16.4362 3.10578 16.5532 3.2228C16.6703 3.33983 16.736 3.49854 16.736 3.66404V6.24537Z" fill="#26A6FE"/>
<path d="M3.87734 3.04006H1.28001C1.11451 3.04006 0.955794 3.1058 0.838771 3.22283C0.721749 3.33985 0.656006 3.49857 0.656006 3.66406V6.2454H3.24801V3.66406C3.248 3.58167 3.26432 3.50009 3.29601 3.42403C3.3277 3.34797 3.37414 3.27894 3.43265 3.22093C3.49116 3.16292 3.56058 3.11707 3.63691 3.08602C3.71323 3.05498 3.79495 3.03936 3.87734 3.04006Z" fill="#0593FC"/>
<path d="M13.9787 12.7201H7.42941C7.36988 12.7201 7.31093 12.7084 7.25592 12.6856C7.20092 12.6628 7.15095 12.6294 7.10885 12.5873C7.06676 12.5452 7.03336 12.4952 7.01058 12.4402C6.9878 12.3852 6.97607 12.3263 6.97607 12.2668C6.97607 12.146 7.02366 12.0302 7.10852 11.9443C7.19339 11.8584 7.30869 11.8095 7.42941 11.8081H13.9787C14.0428 11.8012 14.1075 11.8078 14.1688 11.8275C14.2301 11.8473 14.2866 11.8797 14.3345 11.9227C14.3824 11.9658 14.4208 12.0184 14.447 12.0772C14.4732 12.136 14.4868 12.1997 14.4868 12.2641C14.4868 12.3285 14.4732 12.3922 14.447 12.451C14.4208 12.5098 14.3824 12.5624 14.3345 12.6054C14.2866 12.6484 14.2301 12.6809 14.1688 12.7006C14.1075 12.7204 14.0428 12.727 13.9787 12.7201Z" fill="#FD544D"/>
<path d="M13.9574 14.3999H7.42941C7.30918 14.3999 7.19387 14.4477 7.10885 14.5327C7.02384 14.6177 6.97607 14.733 6.97607 14.8532C6.97607 14.974 7.02366 15.0898 7.10852 15.1757C7.19339 15.2616 7.30869 15.3105 7.42941 15.3119H12.7627C13.1321 14.9719 13.532 14.6666 13.9574 14.3999Z" fill="#FD544D"/>
<path d="M10.2187 16.9866H7.42941C7.30869 16.988 7.19339 17.0369 7.10852 17.1228C7.02366 17.2086 6.97607 17.3245 6.97607 17.4452C6.97607 17.5655 7.02384 17.6808 7.10885 17.7658C7.19387 17.8508 7.30918 17.8986 7.42941 17.8986H10.1334C10.1455 17.5933 10.174 17.2888 10.2187 16.9866Z" fill="#FD544D"/>
<mask id="mask0_495_4131" style="mask-type:luminance" maskUnits="userSpaceOnUse" x="10" y="13" width="17" height="17">
<path d="M26.48 21.2693C26.4805 22.8562 26.0211 24.4092 25.1572 25.7404C24.2934 27.0715 23.0622 28.1238 21.6126 28.7696C20.1631 29.4155 18.5575 29.6273 16.99 29.3795C15.4226 29.1317 13.9606 28.4348 12.7811 27.3732C11.6016 26.3116 10.7551 24.9309 10.344 23.3981C9.93304 21.8654 9.97516 20.2463 10.4653 18.737C10.9554 17.2277 11.8726 15.8928 13.1057 14.894C14.3389 13.8952 15.8351 13.2753 17.4133 13.1093C17.3226 14.1759 17.1893 15.8879 17.1893 15.8879C17.1893 15.8879 17.4506 15.5039 17.7866 14.9599C17.5413 15.8239 17.1306 17.2053 17.1306 17.2053L18.1973 20.3306L17.344 21.0559L18.576 21.8666L19.2533 23.6266L19.2906 19.3599L18.544 18.7306L18.304 17.0666L18.8906 16.5333C18.8906 16.5333 18.4906 15.1093 18.2933 14.3573C18.608 13.8826 18.8266 13.5413 19.1093 13.0933C21.132 13.3019 23.0054 14.2534 24.367 15.7638C25.7286 17.2741 26.4815 19.2358 26.48 21.2693Z" fill="white"/>
</mask>
<g mask="url(#mask0_495_4131)">
<path d="M18.2721 29.4773C22.7964 29.4773 26.4641 25.8096 26.4641 21.2853C26.4641 16.7609 22.7964 13.0933 18.2721 13.0933C13.7478 13.0933 10.0801 16.7609 10.0801 21.2853C10.0801 25.8096 13.7478 29.4773 18.2721 29.4773Z" fill="#EAF6FF"/>
<path d="M12.0747 21.2853C12.0743 19.2855 12.8059 17.3548 14.1313 15.8574C15.4568 14.3601 17.2844 13.3996 19.2694 13.1573C18.9387 13.1142 18.6056 13.0928 18.2721 13.0933C16.0994 13.0933 14.0158 13.9564 12.4795 15.4927C10.9432 17.0289 10.0801 19.1126 10.0801 21.2853C10.0801 23.4579 10.9432 25.5416 12.4795 27.0779C14.0158 28.6142 16.0994 29.4773 18.2721 29.4773C18.6056 29.4777 18.9387 29.4563 19.2694 29.4133C17.2844 29.171 15.4568 28.2105 14.1313 26.7131C12.8059 25.2157 12.0743 23.285 12.0747 21.2853Z" fill="#D8ECFE"/>
<path d="M18.272 27.2425C21.5622 27.2425 24.2294 24.5754 24.2294 21.2852C24.2294 17.9951 21.5622 15.3279 18.272 15.3279C14.9819 15.3279 12.3147 17.9951 12.3147 21.2852C12.3147 24.5754 14.9819 27.2425 18.272 27.2425Z" fill="#FD544D"/>
<path d="M18.272 25.0078C20.328 25.0078 21.9947 23.3411 21.9947 21.2852C21.9947 19.2292 20.328 17.5625 18.272 17.5625C16.216 17.5625 14.5493 19.2292 14.5493 21.2852C14.5493 23.3411 16.216 25.0078 18.272 25.0078Z" fill="#EAF6FF"/>
<path d="M18.2722 22.7734C19.094 22.7734 19.7602 22.1072 19.7602 21.2854C19.7602 20.4636 19.094 19.7974 18.2722 19.7974C17.4504 19.7974 16.7842 20.4636 16.7842 21.2854C16.7842 22.1072 17.4504 22.7734 18.2722 22.7734Z" fill="#FD544D"/>
</g>
<path d="M30.864 22.9332L31.7653 22.0052C31.8079 21.967 31.8391 21.9177 31.8554 21.8628C31.8717 21.8079 31.8724 21.7495 31.8575 21.6942C31.8426 21.639 31.8126 21.5889 31.7709 21.5496C31.7292 21.5104 31.6774 21.4835 31.6213 21.4719L29.488 20.8906C29.4458 20.8794 29.4019 20.877 29.3588 20.8834C29.3157 20.8898 29.2743 20.905 29.2373 20.9279L27.9893 21.7279L29.3813 22.1066C29.4804 22.1353 29.5642 22.2016 29.615 22.2914C29.6657 22.3812 29.6793 22.4873 29.6528 22.587C29.6263 22.6867 29.5619 22.772 29.4733 22.8248C29.3846 22.8775 29.2789 22.8935 29.1786 22.8692L27.7866 22.5066L28.4533 23.8292C28.4964 23.9056 28.567 23.9628 28.6506 23.9892L30.784 24.5652C30.8362 24.58 30.8914 24.5807 30.944 24.5674C30.9966 24.5541 31.0447 24.5272 31.0836 24.4893C31.1225 24.4515 31.1508 24.4041 31.1656 24.3519C31.1804 24.2997 31.1812 24.2445 31.168 24.1919L30.864 22.9332Z" fill="#FD544D"/>
<path d="M29.1626 22.9333L18.384 20.0213C18.272 19.9911 18.176 19.9187 18.1163 19.8192C18.0567 19.7197 18.0379 19.601 18.064 19.488C18.0953 19.3767 18.168 19.2816 18.2671 19.2221C18.3662 19.1626 18.4844 19.1432 18.5973 19.168L29.376 22.0906C29.4343 22.1054 29.4891 22.1318 29.537 22.1682C29.585 22.2047 29.6251 22.2504 29.6549 22.3026C29.6848 22.3549 29.7038 22.4127 29.7109 22.4725C29.7179 22.5322 29.7129 22.5928 29.696 22.6506C29.6573 22.755 29.5815 22.8415 29.4832 22.8936C29.3848 22.9458 29.2707 22.9599 29.1626 22.9333Z" fill="#A79BA7"/>
<path d="M4.82662 14.9333C4.76593 14.9333 4.70585 14.9213 4.64985 14.8979C4.59385 14.8745 4.54305 14.8403 4.50039 14.7971C4.45773 14.7539 4.42406 14.7027 4.40132 14.6465C4.37859 14.5902 4.36725 14.53 4.36795 14.4693V12.4906C4.36795 12.369 4.41627 12.2523 4.50229 12.1663C4.58831 12.0803 4.70497 12.032 4.82662 12.032C4.94826 12.032 5.06493 12.0803 5.15094 12.1663C5.23696 12.2523 5.28528 12.369 5.28528 12.4906V14.448C5.28815 14.5102 5.27845 14.5724 5.25675 14.6309C5.23506 14.6893 5.20182 14.7427 5.15901 14.788C5.1162 14.8333 5.06471 14.8695 5.0076 14.8945C4.95049 14.9195 4.88894 14.9327 4.82662 14.9333Z" fill="#FD544D"/>
<path d="M4.82659 16.8746C5.0799 16.8746 5.28525 16.6693 5.28525 16.4159C5.28525 16.1626 5.0799 15.9573 4.82659 15.9573C4.57327 15.9573 4.36792 16.1626 4.36792 16.4159C4.36792 16.6693 4.57327 16.8746 4.82659 16.8746Z" fill="#FD544D"/>
</svg>
