<svg width="100" height="100" viewBox="0 0 100 100" fill="none" xmlns="http://www.w3.org/2000/svg">
<rect width="100" height="100" fill="white"/>
<g clip-path="url(#clip0_14347_33394)">
<path d="M46.4735 50.0129V60.5398H43.1328V34.5447H51.9891C54.2337 34.5447 56.1476 35.2929 57.7136 36.7893C59.3145 38.2856 60.1148 40.1126 60.1148 42.2701C60.1148 44.4799 59.3145 46.3068 57.7136 47.7857C56.165 49.2646 54.2512 49.9955 51.9891 49.9955H46.4735V50.0129ZM46.4735 37.7462V46.8114H52.0588C53.3812 46.8114 54.4948 46.359 55.3647 45.4716C56.2521 44.5842 56.7044 43.5055 56.7044 42.2875C56.7044 41.0869 56.2521 40.0255 55.3647 39.1382C54.4947 38.216 53.3986 37.7636 52.0588 37.7636H46.4735V37.7462Z" fill="#383E41"/>
<path d="M68.8501 42.1658C71.3208 42.1658 73.2696 42.8269 74.6963 44.1493C76.1231 45.4716 76.8364 47.2811 76.8364 49.578V60.5398H73.6523V58.0691H73.5131C72.1385 60.1049 70.2942 61.114 67.9975 61.114C66.0314 61.114 64.3957 60.5398 63.0734 59.374C61.751 58.2083 61.0898 56.764 61.0898 55.0241C61.0898 53.1798 61.7858 51.7183 63.1779 50.6394C64.5699 49.5433 66.4316 49.0039 68.7457 49.0039C70.7293 49.0039 72.365 49.3693 73.635 50.1V49.3345C73.635 48.1687 73.1827 47.1944 72.2604 46.3767C71.3382 45.5589 70.2595 45.1586 69.0241 45.1586C67.1623 45.1586 65.6834 45.9416 64.6045 47.525L61.6639 45.6806C63.2822 43.3315 65.6834 42.1658 68.8501 42.1658ZM64.535 55.0762C64.535 55.9462 64.9005 56.6771 65.6486 57.2512C66.3794 57.8254 67.2494 58.1212 68.2412 58.1212C69.6506 58.1212 70.9033 57.5992 71.9995 56.5551C73.0958 55.5111 73.6525 54.2931 73.6525 52.8839C72.6085 52.0661 71.1644 51.6484 69.3026 51.6484C67.9454 51.6484 66.8145 51.979 65.9096 52.6228C64.9874 53.3014 64.535 54.1193 64.535 55.0762Z" fill="#383E41"/>
<path d="M95.0013 42.74L83.8655 68.3522H80.4203L84.5613 59.3914L77.2188 42.74H80.8552L86.1447 55.5113H86.2144L91.3646 42.74H95.0013Z" fill="#383E41"/>
<path d="M32.9055 44.7566H18.9023V50.4985L26.967 50.5003C26.64 52.4107 25.5873 54.0393 23.9743 55.1251V55.1261C23.9749 55.1258 23.9756 55.1254 23.9761 55.1251L23.8309 58.557L28.7767 58.8486C28.776 58.8492 28.7753 58.8499 28.7748 58.8504C31.5778 56.2562 33.184 52.4212 33.184 47.8904C33.1838 46.8011 33.0864 45.7588 32.9055 44.7566Z" fill="#0085F7"/>
<path d="M23.9765 55.1251C23.9759 55.1255 23.9752 55.1258 23.9747 55.1262C22.6387 56.0268 20.9184 56.5536 18.9062 56.5536C15.0174 56.5536 11.7185 53.9332 10.5371 50.4011H10.5366C10.5367 50.4017 10.5369 50.4024 10.5371 50.4029L6.40814 49.749L5.58594 54.2441C8.03956 59.1119 13.0815 62.4521 18.9064 62.4521C22.9316 62.4521 26.3133 61.1286 28.7753 58.8503C28.776 58.8497 28.7767 58.8492 28.7773 58.8485L23.9765 55.1251Z" fill="#00A94B"/>
<path d="M10.0707 47.5506C10.0707 46.5588 10.236 45.6001 10.5371 44.6988L9.24779 40.8569H5.58504C4.57071 42.8701 4 45.1425 4 47.5506C4 49.9587 4.57248 52.231 5.58504 54.2442L5.58575 54.2437L10.5371 50.4023C10.5369 50.4018 10.5367 50.4013 10.5365 50.4006C10.2358 49.5 10.0707 48.5418 10.0707 47.5506Z" fill="#FFBB00"/>
<path d="M18.9071 32.6484C13.0835 32.6484 8.03938 35.9891 5.58594 40.8576L10.5378 44.6995C11.7192 41.1674 15.0181 38.5471 18.907 38.5471C21.1045 38.5471 23.0725 39.3041 24.6263 40.783L28.8805 36.5323C26.2968 34.1256 22.9282 32.6484 18.9071 32.6484Z" fill="#FF4031"/>
</g>
<defs>
<clipPath id="clip0_14347_33394">
<rect width="91" height="91" fill="white" transform="translate(4 5)"/>
</clipPath>
</defs>
</svg>
