<svg width="73" height="65" viewBox="0 0 73 65" fill="none" xmlns="http://www.w3.org/2000/svg">
<g clip-path="url(#clip0_5122_12977)">
<path d="M23.2562 54.5432L10.4414 32.2556L23.2562 9.96777H48.8849L61.6995 32.2556L48.8849 54.5432H23.2562Z" fill="#CAC9C2"/>
<path d="M36.4983 42.4292C30.9906 42.4292 26.5098 37.9296 26.5098 32.3991C26.5098 26.8687 30.9906 22.3691 36.4983 22.3691C42.0057 22.3691 46.4866 26.8687 46.4866 32.3991C46.4866 37.9296 42.0057 42.4292 36.4983 42.4292Z" fill="white"/>
<path d="M56.5914 2.49594C55.8062 1.13016 53.8786 0.0126953 52.3079 0.0126953H20.7288C19.1583 0.0126953 17.2306 1.13016 16.4455 2.49594L7.21814 18.5448C7.1457 19.5817 7.3352 20.6647 7.79028 21.4562L14.0364 32.1797L25.1865 12.8366H60.429C61.2626 12.8366 62.1957 13.1534 63.0066 13.653L56.5914 2.49594Z" fill="#5072AA"/>
<path d="M7.61996 17.8428L7.21622 18.5452C7.14368 19.582 7.33328 20.6651 7.78836 21.4565L14.0344 32.1801L17.3574 26.4153L7.61996 17.8428Z" fill="#4D6796"/>
<path d="M21.5444 8.25711C20.4818 8.25711 19.6172 7.3889 19.6172 6.32187C19.6172 5.25474 20.4818 4.38672 21.5444 4.38672C22.6072 4.38672 23.4715 5.25474 23.4715 6.32187C23.4715 7.3889 22.6072 8.25711 21.5444 8.25711Z" fill="white"/>
<path d="M53.1217 6.32219C53.1217 7.31189 52.3228 8.11411 51.3373 8.11411C50.3518 8.11411 49.5527 7.31189 49.5527 6.32219C49.5527 5.33249 50.3518 4.53027 51.3373 4.53027C52.3228 4.53027 53.1217 5.33249 53.1217 6.32219Z" fill="white"/>
<path d="M72.383 29.9588L63.0083 13.6534C62.1975 13.1538 61.2644 12.8369 60.4308 12.8369H47.7218L58.7108 32.2868L41.3129 63.1528C40.93 63.8183 40.2753 64.4239 39.5234 64.8707H52.3096C53.8804 64.8707 55.8079 63.7533 56.5932 62.3877L72.383 34.9254C73.1684 33.5596 73.1684 31.3247 72.383 29.9588Z" fill="#CC4232"/>
<path d="M63.431 14.3847L63.0107 13.6534C62.2003 13.1538 61.2673 12.8369 60.4334 12.8369H47.7246L51.0328 18.692L63.431 14.3847Z" fill="#B23F33"/>
<path d="M51.3393 60.1272C50.2765 60.1272 49.4121 59.2591 49.4121 58.192C49.4121 57.1249 50.2765 56.2568 51.3393 56.2568C52.4019 56.2568 53.2665 57.1249 53.2665 58.192C53.2665 59.2591 52.4019 60.1272 51.3393 60.1272Z" fill="white"/>
<path d="M66.3374 34.3343C65.2748 34.3343 64.4102 33.4662 64.4102 32.3991C64.4102 31.3321 65.2748 30.4639 66.3374 30.4639C67.4002 30.4639 68.2645 31.3321 68.2645 32.3991C68.2645 33.4662 67.4002 34.3343 66.3374 34.3343Z" fill="white"/>
<path d="M25.431 51.7394L7.79189 21.4563C7.33681 20.6648 7.14731 19.5818 7.21975 18.5449L0.657307 29.9586C-0.127956 31.3245 -0.127956 33.5594 0.657307 34.9252L16.4471 62.3874C17.2322 63.753 19.1599 64.8705 20.7304 64.8705H39.5233C40.2751 64.4236 40.9299 63.8181 41.3127 63.1525L47.7455 51.7394H25.431Z" fill="#ECB02A"/>
<path d="M38.4551 64.8703H39.5479C40.2999 64.4235 40.9543 63.8179 41.3371 63.1524L47.7702 51.7393H40.9196L38.4551 64.8703Z" fill="#C79732"/>
<path d="M21.5444 60.1272C20.4818 60.1272 19.6172 59.2591 19.6172 58.192C19.6172 57.1249 20.4818 56.2568 21.5444 56.2568C22.6072 56.2568 23.4715 57.1249 23.4715 58.192C23.4715 59.2591 22.6072 60.1272 21.5444 60.1272Z" fill="white"/>
<path d="M6.51902 34.3343C5.45641 34.3343 4.5918 33.4662 4.5918 32.3991C4.5918 31.3321 5.45641 30.4639 6.51902 30.4639C7.58172 30.4639 8.44623 31.3321 8.44623 32.3991C8.44623 33.4662 7.58172 34.3343 6.51902 34.3343Z" fill="white"/>
</g>
<defs>
<clipPath id="clip0_5122_12977">
<rect width="73" height="65" fill="white"/>
</clipPath>
</defs>
</svg>
