<svg width="48" height="48" viewBox="0 0 48 48" fill="none" xmlns="http://www.w3.org/2000/svg">
<g clip-path="url(#clip0_9995_60442)">
<path fill-rule="evenodd" clip-rule="evenodd" d="M33.1998 26.2999C32.9998 25.2999 32.5998 24.4 32.0998 23.6L32.8998 21.7999L30.7998 19.7L28.9998 20.6C28.1998 20.1 27.1998 19.7 26.2998 19.5L25.5998 17.7H22.6998L21.9998 19.4C20.9998 19.6 20.0998 20 19.2998 20.5L17.4998 19.7L15.3998 21.7999L16.1998 23.6C15.6998 24.4 15.2998 25.3999 15.0998 26.2999L13.2998 27V30L15.0998 30.7C15.2998 31.7 15.6998 32.6 16.1998 33.4L15.3998 35.2L17.4998 37.2999L19.2998 36.5C20.0998 37 21.0998 37.3999 21.9998 37.5999L22.6998 39.4H25.5998L26.2998 37.5999C27.2998 37.3999 28.1998 37 28.9998 36.5L30.7998 37.2999L32.8998 35.2L32.0998 33.4C32.5998 32.6 32.9998 31.6 33.1998 30.7L34.9998 30V27L33.1998 26.2999ZM26.6998 32.9C24.1998 34.3 21.0998 33.4 19.6998 31C18.2998 28.5 19.1998 25.4 21.5998 24C24.0998 22.6 27.1998 23.4999 28.5998 25.9C29.9998 28.4 29.0998 31.5 26.6998 32.9Z" fill="#D2D9DC"/>
<path fill-rule="evenodd" clip-rule="evenodd" d="M12.2998 48H38.3998C39.7998 48 40.9998 46.8001 40.9998 45.4001V44.4001C40.9998 43.0001 39.7998 41.8 38.3998 41.8H12.2998L7.4998 44.6C7.3998 44.7 7.2998 44.8001 7.2998 44.9001C7.2998 45.0001 7.3998 45.1001 7.4998 45.2001L12.2998 48Z" fill="#0054A6"/>
<path opacity="0.19" fill-rule="evenodd" clip-rule="evenodd" d="M40.9998 45.8C40.9998 45.7 40.9998 45.6001 40.9998 45.4001V44.4001C40.9998 43.0001 39.7998 41.8 38.3998 41.8H12.2998L7.4998 44.6C7.3998 44.7 7.2998 44.8001 7.2998 44.9001C7.2998 45.0001 7.3998 45.1001 7.4998 45.2001L8.4998 45.8L12.2998 43.6H38.3998C39.6998 43.6 40.7998 44.5 40.9998 45.8Z" fill="#F9FAFB"/>
<path fill-rule="evenodd" clip-rule="evenodd" d="M7.4998 45.2001L12.2998 48V41.8L7.4998 44.6C7.3998 44.7 7.2998 44.8001 7.2998 44.9001C7.2998 45.0001 7.3998 45.1001 7.4998 45.2001Z" fill="#5F737C"/>
<path fill-rule="evenodd" clip-rule="evenodd" d="M36.2998 48H38.4998C39.8998 48 41.0998 46.8001 41.0998 45.4001V44.4001C41.0998 43.0001 39.8998 41.8 38.4998 41.8H36.2998V48Z" fill="#839299"/>
<path fill-rule="evenodd" clip-rule="evenodd" d="M20.8998 13.9001C20.8998 10.2001 20.8998 6.5001 20.8998 2.8001C20.8998 1.6001 19.8998 0.600098 18.6998 0.600098C13.2998 0.600098 7.89981 0.600098 2.4998 0.600098C1.2998 0.600098 0.299805 1.6001 0.299805 2.8001V13.9001C0.299805 15.1001 1.2998 16.1001 2.4998 16.1001H4.3998V19.8001C4.3998 19.9001 4.4998 20.0001 4.5998 20.1001C4.6998 20.1001 4.7998 20.1001 4.8998 20.0001L8.6998 16.1001H18.6998C19.8998 16.1001 20.8998 15.2001 20.8998 13.9001Z" fill="#54CC5A"/>
<path fill-rule="evenodd" clip-rule="evenodd" d="M7.09961 7.19995C7.09961 11.6 7.09961 13.8 7.09961 13.8H4.89961C4.69961 13.8 4.59961 13.6 4.59961 13.5V7.59995C4.59961 7.39995 4.79961 7.29995 4.89961 7.29995L7.09961 7.19995Z" fill="#002548"/>
<path fill-rule="evenodd" clip-rule="evenodd" d="M12.6996 14.5001C10.5996 14.5001 8.19961 14.9001 7.09961 13.8001V7.20011C8.29961 6.30011 9.79961 5.60012 9.79961 3.90012C9.79961 2.60012 11.5996 2.30011 11.9996 3.40012C12.0996 3.70012 12.1996 4.00012 12.1996 4.30012V5.90012C12.1996 6.20011 11.8996 6.70011 11.4996 7.10011C16.7996 7.10011 13.6996 14.6001 12.6996 14.5001Z" fill="#FED2A4"/>
<path fill-rule="evenodd" clip-rule="evenodd" d="M12.9 14.6001H14.4C14.9 14.6001 15.4 14.2001 15.4 13.6001C15.4 13.0001 15 12.6001 14.4 12.6001H15C15.5 12.6001 16 12.2001 16 11.6001C16 11.0001 15.6 10.6001 15 10.6001H15.7C16.2 10.6001 16.7 10.2001 16.7 9.6001C16.7 9.0001 16.3 8.6001 15.7 8.6001H15.3C15.8 8.6001 16.3 8.2001 16.3 7.6001C16.3 7.1001 15.9 6.6001 15.3 6.6001H12.9C12.4 6.6001 11.9 7.0001 11.9 7.6001C11.9 8.2001 12.3 8.6001 12.9 8.6001H12.5C12 8.6001 11.5 9.0001 11.5 9.6001C11.5 10.2001 11.9 10.6001 12.5 10.6001H12.9C12.4 10.6001 11.9 11.0001 11.9 11.6001C11.9 12.2001 12.3 12.6001 12.9 12.6001C12.4 12.6001 11.9 13.0001 11.9 13.6001C11.9 14.1001 12.4 14.6001 12.9 14.6001Z" fill="#FED2A4"/>
<path fill-rule="evenodd" clip-rule="evenodd" d="M38.4998 0C33.3998 0 29.2998 4.1 29.2998 9.2C29.2998 14.3 33.3998 18.4 38.4998 18.4C39.4998 18.4 40.4998 18.2 41.3998 17.9L46.5998 19.3C46.6998 19.3 46.7998 19.3 46.8998 19.2C46.9998 19.2 46.9998 19.1 46.9998 19L45.8998 14.8C47.0998 13.3 47.6998 11.3 47.6998 9.3C47.6998 4.1 43.5998 0 38.4998 0Z" fill="#0054A6"/>
<path fill-rule="evenodd" clip-rule="evenodd" d="M41.8994 7.19995H44.0994C44.2994 7.19995 44.3994 7.39995 44.3994 7.49995V13.4C44.3994 13.6 44.1994 13.7 44.0994 13.7H41.8994C41.8994 13.9 41.8994 11.6 41.8994 7.19995Z" fill="#002548"/>
<path fill-rule="evenodd" clip-rule="evenodd" d="M36.3991 14.5C35.2991 14.5 32.2991 7.1 37.5991 7.1C37.1991 6.7 36.9991 6.2 36.8991 5.9V4.3C36.8991 4 36.9991 3.7 37.0991 3.4C37.5991 2.2 39.2991 2.6 39.2991 3.9C39.2991 5.6 40.8991 6.3 41.9991 7.2V13.8C40.8991 14.9 38.3991 14.5 36.3991 14.5Z" fill="#FED2A4"/>
<path fill-rule="evenodd" clip-rule="evenodd" d="M36.1994 14.6001C36.6994 14.6001 37.1994 14.2001 37.1994 13.6001C37.1994 13.1001 36.7994 12.6001 36.1994 12.6001C36.6994 12.6001 37.1994 12.2001 37.1994 11.6001C37.1994 11.0001 36.7994 10.6001 36.1994 10.6001H36.5994C37.0994 10.6001 37.5994 10.2001 37.5994 9.6001C37.5994 9.0001 37.1994 8.6001 36.5994 8.6001H36.1994C36.6994 8.6001 37.1994 8.2001 37.1994 7.6001C37.1994 7.0001 36.7994 6.6001 36.1994 6.6001H33.7994C33.2994 6.6001 32.7994 7.0001 32.7994 7.6001C32.7994 8.1001 33.1994 8.6001 33.7994 8.6001H33.3994C32.8994 8.6001 32.3994 9.0001 32.3994 9.6001C32.3994 10.2001 32.7994 10.6001 33.3994 10.6001H33.9994C33.4994 10.6001 32.9994 11.0001 32.9994 11.6001C32.9994 12.2001 33.3994 12.6001 33.9994 12.6001H34.5994C34.0994 12.6001 33.5994 13.0001 33.5994 13.6001C33.5994 14.2001 33.9994 14.6001 34.5994 14.6001H36.1994Z" fill="#FED2A4"/>
</g>
<defs>
<clipPath id="clip0_9995_60442">
<rect width="48" height="48" fill="white"/>
</clipPath>
</defs>
</svg>
