<svg width="48" height="48" viewBox="0 0 48 48" fill="none" xmlns="http://www.w3.org/2000/svg">
<g clip-path="url(#clip0_6034_12845)">
<path d="M22.1004 26.6V47.2C22.1004 47.7 21.7004 48.0999 21.2004 48.0999H13.8004C13.3004 48.0999 12.9004 47.7 12.9004 47.2V26.6C12.9004 26.1 13.3004 25.7 13.8004 25.7H21.2004C21.7004 25.7 22.1004 26.1 22.1004 26.6Z" fill="#54CC5A"/>
<path d="M34.2004 18.9H26.8004C26.3004 18.9 25.9004 19.3 25.9004 19.8V47.2C25.9004 47.7 26.3004 48.1 26.8004 48.1H34.2004C34.7004 48.1 35.1004 47.7 35.1004 47.2V19.7C35.0004 19.2 34.7004 18.9 34.2004 18.9Z" fill="#54CC5A"/>
<path d="M47.1008 12H39.7008C39.2008 12 38.8008 12.4 38.8008 12.9V47.2C38.8008 47.7 39.2008 48.1 39.7008 48.1H47.1008C47.6008 48.1 48.0008 47.7 48.0008 47.2V12.9C48.0008 12.4 47.6008 12 47.1008 12Z" fill="#54CC5A"/>
<path d="M8.3 32.6H0.9C0.4 32.6 0 33 0 33.4V47.1C0 47.6 0.4 48 0.9 48H8.3C8.8 48 9.2 47.6 9.2 47.1V33.4C9.1 33 8.7 32.6 8.3 32.6Z" fill="#54CC5A"/>
<path d="M16.6007 3C16.6007 2.6 16.3007 2.3 16.0007 2.2L8.60066 0C8.40066 0 8.20066 0 8.10066 0L0.700658 2.2C0.300658 2.3 0.100658 2.6 0.100658 3C-0.399342 8.8 1.50066 14.2 4.90066 17C5.90066 17.9 7.10066 18.5 8.40066 18.8C9.70066 18.5 10.9007 17.8 11.9007 17C15.2007 14.2 17.0007 8.8 16.6007 3Z" fill="#0054A6"/>
</g>
<defs>
<clipPath id="clip0_6034_12845">
<rect width="48" height="48" fill="white"/>
</clipPath>
</defs>
</svg>
