<svg width="50" height="50" viewBox="0 0 50 50" fill="none" xmlns="http://www.w3.org/2000/svg">
<g clip-path="url(#clip0_14740_8909)">
<path fill-rule="evenodd" clip-rule="evenodd" d="M41.4551 10.3026C32.1094 2.3726 22.1159 1.50997 11.4746 7.71473C10.4886 8.40213 9.47946 9.0369 8.44727 9.61903C8.39974 9.52397 8.35091 9.42631 8.30078 9.32606C8.23568 7.24273 8.23568 5.15939 8.30078 3.07606C8.85143 1.98316 9.68151 1.70647 10.791 2.24598C11.6577 3.14537 12.5529 4.008 13.4766 4.83387C20.3476 1.40551 27.3625 1.09626 34.5215 3.90614C37.0522 4.99952 39.3472 6.44809 41.4063 8.25184C41.7338 8.75629 41.8314 9.30968 41.6992 9.91199C41.6398 10.0649 41.5584 10.1952 41.4551 10.3026Z" fill="#546D79"/>
<path opacity="0.983" fill-rule="evenodd" clip-rule="evenodd" d="M41.4551 10.3031C40.8609 11.0046 40.1448 11.151 39.3066 10.7425C33.7588 5.96998 27.3786 4.30982 20.166 5.76208C18.659 6.09069 17.2267 6.61152 15.8691 7.32458C16.6763 7.97866 16.8553 8.77619 16.4062 9.71715C16.1852 10.0036 15.9084 10.2152 15.5762 10.3519C13.4929 10.4171 11.4095 10.4171 9.32617 10.3519C8.95754 10.1946 8.66457 9.95046 8.44727 9.6195C9.47945 9.03737 10.4886 8.4026 11.4746 7.7152C22.1159 1.51045 32.1094 2.37307 41.4551 10.3031Z" fill="#607C8A"/>
<path opacity="0.994" fill-rule="evenodd" clip-rule="evenodd" d="M10.4004 14.502C13.6147 14.7704 15.34 16.5119 15.5762 19.7266C15.4736 22.4988 14.0739 24.2241 11.377 24.9023C11.053 24.951 10.7275 24.9673 10.4004 24.9512C10.4004 21.4681 10.4004 17.9851 10.4004 14.502Z" fill="#00A1FE"/>
<path opacity="0.989" fill-rule="evenodd" clip-rule="evenodd" d="M39.502 14.502C42.1245 14.6014 43.8335 15.9034 44.6289 18.4082C45.1489 21.258 44.1235 23.325 41.5527 24.6094C40.8969 24.8895 40.2133 25.0034 39.502 24.9512C39.502 21.4681 39.502 17.9851 39.502 14.502Z" fill="#4BAE4F"/>
<path fill-rule="evenodd" clip-rule="evenodd" d="M10.4004 14.5018C10.4004 17.9849 10.4004 21.4679 10.4004 24.951C7.13767 24.7318 5.37985 22.9903 5.12695 19.7264C5.24991 17.1292 6.55199 15.4364 9.0332 14.6482C9.48258 14.5387 9.93828 14.4898 10.4004 14.5018Z" fill="#00A1FE"/>
<path fill-rule="evenodd" clip-rule="evenodd" d="M39.501 14.5017C39.501 17.9848 39.501 21.4678 39.501 24.9509C36.7522 24.8227 35.0432 23.4229 34.374 20.7517C34.0396 17.6723 35.3254 15.6378 38.2315 14.6482C38.6485 14.5432 39.0716 14.4944 39.501 14.5017Z" fill="#4BAE4F"/>
<path opacity="0.991" fill-rule="evenodd" clip-rule="evenodd" d="M10.4004 27.002C12.2562 26.9857 14.1116 27.002 15.9668 27.0508C19.1618 27.8235 20.7895 29.8579 20.8496 33.1543C20.961 33.9433 20.7331 34.6107 20.166 35.1563C20.011 35.2404 19.8482 35.3056 19.6777 35.3516C16.5854 35.4004 13.493 35.4167 10.4004 35.4004C10.4004 32.6009 10.4004 29.8015 10.4004 27.002Z" fill="#00A1FE"/>
<path opacity="0.991" fill-rule="evenodd" clip-rule="evenodd" d="M39.502 27.002C41.3577 26.9857 43.2132 27.002 45.0684 27.0508C47.7007 27.5513 49.3283 29.0975 49.9512 31.6895C49.9512 32.6009 49.9512 33.5124 49.9512 34.4238C49.7216 34.8667 49.3635 35.176 48.877 35.3516C45.7521 35.4004 42.6271 35.4167 39.502 35.4004C39.502 32.6009 39.502 29.8015 39.502 27.002Z" fill="#4BAE4F"/>
<path fill-rule="evenodd" clip-rule="evenodd" d="M10.4004 27.002C10.4004 29.8015 10.4004 32.6009 10.4004 35.4004C7.27522 35.4167 4.15022 35.4004 1.02539 35.3516C0.525568 35.1927 0.167495 34.8835 -0.0488281 34.4238C-0.0488281 33.5124 -0.0488281 32.6009 -0.0488281 31.6895C0.574009 29.0975 2.20161 27.5513 4.83398 27.0508C6.68917 27.002 8.54464 26.9857 10.4004 27.002Z" fill="#00A1FE"/>
<path fill-rule="evenodd" clip-rule="evenodd" d="M39.5031 27.002C39.5031 29.8015 39.5031 32.6009 39.5031 35.4004C36.4105 35.4167 33.318 35.4004 30.2258 35.3516C29.6164 35.1652 29.2421 34.7583 29.1027 34.1309C28.7038 30.8249 30.0221 28.53 33.0578 27.2461C33.3479 27.1686 33.6409 27.1034 33.9367 27.0508C35.7919 27.002 37.6473 26.9857 39.5031 27.002Z" fill="#4BAE4F"/>
<path opacity="0.984" fill-rule="evenodd" clip-rule="evenodd" d="M41.4551 40.1855C36.5358 44.0392 30.9369 46.0575 24.6582 46.2402C18.5305 46.0489 13.257 43.8516 8.83789 39.6484C8.74531 39.6012 8.64766 39.585 8.54492 39.5996C9.07182 38.9957 9.72286 38.8167 10.498 39.0625C17.0104 44.5641 24.3346 45.9964 32.4707 43.3594C33.0525 43.1548 33.6059 42.8944 34.1309 42.5781C33.1337 41.6576 33.1012 40.7136 34.0332 39.7461C34.1882 39.6619 34.351 39.5968 34.5215 39.5508C36.5723 39.4856 38.623 39.4856 40.6738 39.5508C41.0163 39.6835 41.2767 39.8951 41.4551 40.1855Z" fill="#5F7C8A"/>
<path opacity="0.999" fill-rule="evenodd" clip-rule="evenodd" d="M8.54456 39.5996C8.64729 39.5851 8.74495 39.6013 8.83752 39.6485C13.2567 43.8517 18.5301 46.049 24.6578 46.2403C30.9365 46.0576 36.5355 44.0393 41.4547 40.1856C41.5979 40.2683 41.6793 40.3985 41.6989 40.5762C41.764 42.6595 41.764 44.7429 41.6989 46.8262C41.3157 47.6934 40.6483 48.0352 39.6969 47.8516C39.4796 47.7968 39.2843 47.6992 39.111 47.5586C38.2795 46.7109 37.4331 45.8808 36.5719 45.0684C30.1652 48.3067 23.5571 48.7787 16.7477 46.4844C13.7355 45.37 11.0336 43.7586 8.64221 41.6504C8.162 40.9841 8.12944 40.3005 8.54456 39.5996Z" fill="#546D79"/>
</g>
<defs>
<clipPath id="clip0_14740_8909">
<rect width="50" height="50" fill="white"/>
</clipPath>
</defs>
</svg>
