<svg width="74" height="65" viewBox="0 0 74 65" fill="none" xmlns="http://www.w3.org/2000/svg">
<path d="M23.5349 54.6503L10.5273 32.3137L23.5349 9.97705H49.5492L62.5567 32.3137L49.5492 54.6503H23.5349Z" fill="#CAC9C2"/>
<path d="M36.9776 42.5094C31.3871 42.5094 26.8389 37.9999 26.8389 32.4573C26.8389 26.9147 31.3871 22.4053 36.9776 22.4053C42.568 22.4053 47.1162 26.9147 47.1162 32.4573C47.1162 37.9999 42.568 42.5094 36.9776 42.5094Z" fill="white"/>
<path d="M57.3765 2.48869C56.5794 1.11992 54.6228 0 53.0285 0H20.9743C19.3802 0 17.4235 1.11992 16.6265 2.48869L7.26036 18.5728C7.18683 19.6119 7.37918 20.6973 7.84111 21.4905L14.1812 32.2376L25.4991 12.852H61.2718C62.118 12.852 63.0651 13.1696 63.8882 13.6703L57.3765 2.48869Z" fill="#5072AA"/>
<path d="M7.6663 17.8691L7.25648 18.5731C7.18286 19.6122 7.3753 20.6976 7.83723 21.4908L14.1773 32.2379L17.5503 26.4605L7.6663 17.8691Z" fill="#4D6796"/>
<path d="M21.8009 8.26267C20.7223 8.26267 19.8447 7.39256 19.8447 6.32318C19.8447 5.25372 20.7223 4.38379 21.8009 4.38379C22.8797 4.38379 23.7571 5.25372 23.7571 6.32318C23.7571 7.39256 22.8797 8.26267 21.8009 8.26267Z" fill="white"/>
<path d="M53.8522 6.32319C53.8522 7.31506 53.0413 8.11904 52.0409 8.11904C51.0406 8.11904 50.2295 7.31506 50.2295 6.32319C50.2295 5.33132 51.0406 4.52734 52.0409 4.52734C53.0413 4.52734 53.8522 5.33132 53.8522 6.32319Z" fill="white"/>
<path d="M73.4018 30.0115L63.8861 13.6703C63.0631 13.1696 62.1159 12.8521 61.2697 12.8521H48.3696L59.5239 32.3446L41.8642 63.2783C41.4756 63.9453 40.811 64.5522 40.0479 65H53.0264C54.6208 65 56.5774 63.8801 57.3745 62.5115L73.4018 34.989C74.199 33.6202 74.199 31.3804 73.4018 30.0115Z" fill="#CC4232"/>
<path d="M64.3158 14.4033L63.8892 13.6703C63.0665 13.1696 62.1195 12.8521 61.2731 12.8521H48.373L51.731 18.72L64.3158 14.4033Z" fill="#B23F33"/>
<path d="M52.0392 60.2461C50.9604 60.2461 50.083 59.376 50.083 58.3066C50.083 57.2371 50.9604 56.3672 52.0392 56.3672C53.1178 56.3672 53.9954 57.2371 53.9954 58.3066C53.9954 59.376 53.1178 60.2461 52.0392 60.2461Z" fill="white"/>
<path d="M67.2629 34.397C66.1843 34.397 65.3066 33.527 65.3066 32.4576C65.3066 31.3882 66.1843 30.5181 67.2629 30.5181C68.3416 30.5181 69.219 31.3882 69.219 32.4576C69.219 33.527 68.3416 34.397 67.2629 34.397Z" fill="white"/>
<path d="M25.7442 51.8401L7.83974 21.4905C7.37781 20.6973 7.18546 19.6119 7.25899 18.5728L0.597809 30.0115C-0.19927 31.3803 -0.19927 33.6202 0.597809 34.9889L16.6251 62.5115C17.4221 63.8801 19.3788 65 20.973 65H40.0485C40.8117 64.5521 41.4763 63.9453 41.8649 63.2782L48.3945 51.8401H25.7442Z" fill="#ECB02A"/>
<path d="M38.9658 64.9997H40.0751C40.8384 64.5519 41.5027 63.945 41.8912 63.278L48.4211 51.8398H41.4674L38.9658 64.9997Z" fill="#C79732"/>
<path d="M21.798 60.2461C20.7194 60.2461 19.8418 59.376 19.8418 58.3066C19.8418 57.2371 20.7194 56.3672 21.798 56.3672C22.8768 56.3672 23.7541 57.2371 23.7541 58.3066C23.7541 59.376 22.8768 60.2461 21.798 60.2461Z" fill="white"/>
<path d="M6.54606 34.397C5.46746 34.397 4.58984 33.527 4.58984 32.4576C4.58984 31.3882 5.46746 30.5181 6.54606 30.5181C7.62475 30.5181 8.50227 31.3882 8.50227 32.4576C8.50227 33.527 7.62475 34.397 6.54606 34.397Z" fill="white"/>
</svg>
