<svg width="114" height="114" viewBox="0 0 114 114" fill="none" xmlns="http://www.w3.org/2000/svg">
<g clip-path="url(#clip0_9643_18888)">
<path fill-rule="evenodd" clip-rule="evenodd" d="M45.4011 105.6V82.4C45.4011 78 44.8011 73.9 41.6011 71C38.0011 67.7 31.4011 62.8 26.4011 56.8C24.2011 54.8 20.8011 54.7 18.7011 56.8C16.6011 58.9 16.5011 61.8 18.7011 64.5L17.0011 62.4C15.0011 60 14.0011 57.3 14.0011 54.2V31.8C14.1011 14.4 1.30111 19.2 1.1011 25.1L0.00110492 66.3C-0.0988951 70.1 1.30111 73.4 3.9011 76.1L22.5011 94.7V105.6C22.5011 107.7 24.2011 109.4 26.3011 109.4H41.5011C43.7011 109.4 45.4011 107.7 45.4011 105.6Z" fill="#FED2A4"/>
<path fill-rule="evenodd" clip-rule="evenodd" d="M17.8997 57.7998C16.5997 59.7998 16.7997 62.1998 18.6997 64.4998C21.6997 67.5998 24.7997 70.5998 27.7997 73.6998C28.5997 74.4998 29.8997 74.4998 30.7997 73.6998C31.5997 72.8998 31.5997 71.5998 30.7997 70.6998L17.8997 57.7998Z" fill="#FFBD86"/>
<path fill-rule="evenodd" clip-rule="evenodd" d="M49.3016 100.7L16.9016 101C15.3016 101 14.1016 102.3 14.1016 103.9L14.2016 110.1C14.2016 111.7 15.5016 112.9 17.1016 112.9L49.5016 112.6C51.1016 112.6 52.3016 111.3 52.3016 109.7L52.2016 103.5C52.1016 101.9 50.8016 100.6 49.3016 100.7Z" fill="#002548"/>
<path fill-rule="evenodd" clip-rule="evenodd" d="M48.1014 105.9C48.5014 106.9 48.0014 108 47.0014 108.4C46.0014 108.8 44.9014 108.3 44.5014 107.3C44.1014 106.3 44.6014 105.2 45.6014 104.8C46.6014 104.4 47.7014 104.9 48.1014 105.9Z" fill="#D2D9DC"/>
<path fill-rule="evenodd" clip-rule="evenodd" d="M68.6016 105.6V82.4C68.6016 78 69.2016 73.9 72.4016 71C76.0016 67.7 82.6016 62.8 87.6016 56.8C89.8016 54.8 93.2016 54.7 95.3016 56.8C97.4016 58.9 97.5016 61.8 95.3016 64.5L97.0016 62.4C99.0016 60 100.002 57.3 100.002 54.2V31.8C99.9016 14.4 112.702 19.2 112.902 25.1L114.102 66.3C114.202 70.1 112.802 73.4 110.202 76.1L91.4016 94.7V105.6C91.4016 107.7 89.7016 109.4 87.6016 109.4H72.4016C70.3016 109.4 68.6016 107.7 68.6016 105.6Z" fill="#FED2A4"/>
<path fill-rule="evenodd" clip-rule="evenodd" d="M96.1016 57.7998C97.4016 59.7998 97.2016 62.1998 95.3016 64.4998C92.3016 67.5998 89.2016 70.5998 86.2016 73.6998C85.4016 74.4998 84.1016 74.4998 83.2016 73.6998C82.4016 72.8998 82.4016 71.5998 83.2016 70.6998L96.1016 57.7998Z" fill="#FFBD86"/>
<path fill-rule="evenodd" clip-rule="evenodd" d="M64.6992 100.7L97.0992 101C98.6992 101 99.8992 102.3 99.8992 103.9L99.7992 110.1C99.7992 111.7 98.4992 112.9 96.8992 112.9L64.4992 112.6C62.8992 112.6 61.6992 111.3 61.6992 109.7L61.7992 103.5C61.8992 101.9 63.1992 100.6 64.6992 100.7Z" fill="#002548"/>
<path fill-rule="evenodd" clip-rule="evenodd" d="M65.8998 105.9C65.4998 106.9 65.9998 108 66.9998 108.4C67.9998 108.8 69.0998 108.3 69.4998 107.3C69.8998 106.3 69.3998 105.2 68.3998 104.8C67.3998 104.4 66.2998 104.9 65.8998 105.9Z" fill="#D2D9DC"/>
<path fill-rule="evenodd" clip-rule="evenodd" d="M88.0984 25.9L56.9984 63.6L25.8984 25.9L36.2984 7H77.7984L88.0984 25.9Z" fill="#D2D9DC"/>
<path opacity="0.19" fill-rule="evenodd" clip-rule="evenodd" d="M36.3008 7L46.7008 25.9L57.0008 7H36.3008Z" fill="#F9FAFB"/>
<path opacity="0.19" fill-rule="evenodd" clip-rule="evenodd" d="M57 7L67.4 25.9L77.7 7H57Z" fill="#F9FAFB"/>
<path fill-rule="evenodd" clip-rule="evenodd" d="M57.0016 7L46.6016 25.9H67.3016L57.0016 7Z" fill="#D2D9DC"/>
<path opacity="0.19" fill-rule="evenodd" clip-rule="evenodd" d="M88.1 25.8999H67.4L57 63.5999L88.1 25.8999Z" fill="#F9FAFB"/>
<path opacity="0.19" fill-rule="evenodd" clip-rule="evenodd" d="M56.9984 63.5999L46.5984 25.8999H25.8984L56.9984 63.5999Z" fill="#F9FAFB"/>
<path opacity="0.19" fill-rule="evenodd" clip-rule="evenodd" d="M36.3008 7L46.7008 25.9L57.0008 7H36.3008Z" fill="#F9FAFB"/>
<path opacity="0.19" fill-rule="evenodd" clip-rule="evenodd" d="M57 7L67.4 25.9L77.7 7H57Z" fill="#F9FAFB"/>
<path opacity="0.19" fill-rule="evenodd" clip-rule="evenodd" d="M88.1 25.8999H67.4L57 63.5999L88.1 25.8999Z" fill="#F9FAFB"/>
<path opacity="0.19" fill-rule="evenodd" clip-rule="evenodd" d="M56.9984 63.5999L46.5984 25.8999H25.8984L56.9984 63.5999Z" fill="#F9FAFB"/>
<path fill-rule="evenodd" clip-rule="evenodd" d="M57.0008 11.6001C66.0008 11.6001 73.2008 18.9001 73.2008 27.8001C73.3008 36.8001 66.0008 44.0001 57.0008 44.0001C48.0008 44.0001 40.8008 36.7001 40.8008 27.8001C40.8008 18.8001 48.0008 11.6001 57.0008 11.6001Z" fill="#FFDD33"/>
<path opacity="0.19" d="M63.5 22.1001C63.9 23.1001 63.5 24.2001 62.5 24.6001C61.5 25.0001 60.4 24.6001 60 23.6001C59.6 22.6001 58.8 22.0001 57.9 21.8001C57.3 21.7001 56.7 21.6001 56.2 21.8001C55.7 21.9001 55.2 22.1001 54.8 22.4001C54.4 22.8001 54.1 23.3001 54.1 23.9001C54.1 24.5001 54.4 24.8001 54.8 25.1001C55.4 25.5001 56.3 25.7001 57.2 25.9001C58.5 26.1001 60 26.5001 61.2 27.2001C62.6 28.1001 63.7 29.4001 64 31.4001C64 31.5001 64 31.7001 64 31.9001C64 33.7001 63.2 35.1001 61.9 36.1001C61 36.8001 59.9 37.2001 58.8 37.5001V38.1001C58.8 39.1001 58 40.0001 56.9 40.0001C55.9 40.0001 55 39.2001 55 38.1001V37.5001C54.1 37.3001 53.3 36.9001 52.5 36.4001C51.2 35.5001 50.2 34.3001 49.8 32.6001C49.6 31.6001 50.2 30.6001 51.2 30.3001C52.2 30.1001 53.2 30.7001 53.5 31.7001C53.7 32.4001 54.1 32.9001 54.6 33.2001C55.3 33.7001 56.2 33.9001 57.1 33.8001C57.2 33.8001 57.4 33.8001 57.7 33.8001C58.5 33.7001 59.2 33.5001 59.7 33.1001C60.1 32.8001 60.3 32.5001 60.3 32.0001C60.3 32.0001 60.3 31.9001 60.3 31.8001C60.2 31.1001 59.8 30.7001 59.3 30.4001C58.6 30.0001 57.6 29.7001 56.7 29.6001C55.4 29.4001 54 29.0001 52.9 28.3001C51.5 27.4001 50.6 26.1001 50.5 24.1001C50.4 22.2001 51.2 20.6001 52.6 19.5001C53.3 18.9001 54.2 18.5001 55.2 18.2001V17.5001C55.2 16.5001 56 15.6001 57.1 15.6001C58.1 15.6001 59 16.4001 59 17.5001V18.1001C60.8 18.7001 62.6 19.9001 63.5 22.1001Z" fill="#F9FAFB"/>
<path opacity="0.19" d="M63.5 22.1001C63.9 23.1001 63.5 24.2001 62.5 24.6001C61.5 25.0001 60.4 24.6001 60 23.6001C59.6 22.6001 58.8 22.0001 57.9 21.8001C57.3 21.7001 56.7 21.6001 56.2 21.8001C55.7 21.9001 55.2 22.1001 54.8 22.4001C54.4 22.8001 54.1 23.3001 54.1 23.9001C54.1 24.5001 54.4 24.8001 54.8 25.1001C55.4 25.5001 56.3 25.7001 57.2 25.9001C58.5 26.1001 60 26.5001 61.2 27.2001C62.6 28.1001 63.7 29.4001 64 31.4001C64 31.5001 64 31.7001 64 31.9001C64 33.7001 63.2 35.1001 61.9 36.1001C61 36.8001 59.9 37.2001 58.8 37.5001V38.1001C58.8 39.1001 58 40.0001 56.9 40.0001C55.9 40.0001 55 39.2001 55 38.1001V37.5001C54.1 37.3001 53.3 36.9001 52.5 36.4001C51.2 35.5001 50.2 34.3001 49.8 32.6001C49.6 31.6001 50.2 30.6001 51.2 30.3001C52.2 30.1001 53.2 30.7001 53.5 31.7001C53.7 32.4001 54.1 32.9001 54.6 33.2001C55.3 33.7001 56.2 33.9001 57.1 33.8001C57.2 33.8001 57.4 33.8001 57.7 33.8001C58.5 33.7001 59.2 33.5001 59.7 33.1001C60.1 32.8001 60.3 32.5001 60.3 32.0001C60.3 32.0001 60.3 31.9001 60.3 31.8001C60.2 31.1001 59.8 30.7001 59.3 30.4001C58.6 30.0001 57.6 29.7001 56.7 29.6001C55.4 29.4001 54 29.0001 52.9 28.3001C51.5 27.4001 50.6 26.1001 50.5 24.1001C50.4 22.2001 51.2 20.6001 52.6 19.5001C53.3 18.9001 54.2 18.5001 55.2 18.2001V17.5001C55.2 16.5001 56 15.6001 57.1 15.6001C58.1 15.6001 59 16.4001 59 17.5001V18.1001C60.8 18.7001 62.6 19.9001 63.5 22.1001Z" fill="#F9FAFB"/>
</g>
<defs>
<clipPath id="clip0_9643_18888">
<rect width="114" height="114" fill="white"/>
</clipPath>
</defs>
</svg>
