<svg width="114" height="114" viewBox="0 0 114 114" fill="none" xmlns="http://www.w3.org/2000/svg">
<g id="why-choose-qbatch-as-your-next-product-development-company_great-value-for-money">
<g id="Group">
<path id="Vector" d="M72.8071 77.1226C80.3344 77.1226 86.4365 70.9734 86.4365 63.388C86.4365 55.8025 80.3344 49.6533 72.8071 49.6533C65.2798 49.6533 59.1777 55.8025 59.1777 63.388C59.1777 70.9734 65.2798 77.1226 72.8071 77.1226Z" fill="#FFDD33"/>
<path id="Vector_2" opacity="0.19" d="M72.8777 74.3184C78.868 74.3184 83.7241 69.4248 83.7241 63.3882C83.7241 57.3516 78.868 52.458 72.8777 52.458C66.8874 52.458 62.0312 57.3516 62.0312 63.3882C62.0312 69.4248 66.8874 74.3184 72.8777 74.3184Z" fill="#2D2F31"/>
<path id="Vector_3" fill-rule="evenodd" clip-rule="evenodd" d="M70.0957 86.6866C71.5228 84.2417 69.7389 81.1496 66.8846 81.2215C62.389 81.2215 61.2473 81.4372 57.1085 78.9923L52.613 76.2598C49.83 74.6059 47.3325 73.8868 44.1214 74.2463L31.7051 75.3969V93.8775C43.6932 93.8775 56.7517 99.9898 69.4534 97.3291C73.8776 96.3943 88.4347 88.0529 91.1463 84.4574C93.5724 81.2215 90.4327 78.2013 86.7221 80.3586C81.727 83.3069 70.5952 88.3405 65.9569 88.772C67.8122 88.5562 69.3821 87.909 70.0957 86.6866Z" fill="#FFBD86"/>
<path id="Vector_4" fill-rule="evenodd" clip-rule="evenodd" d="M70.0957 86.6866C71.5228 84.2417 69.7389 81.1496 66.8846 81.2215C62.389 81.2215 61.2473 81.4372 57.1085 78.9923L52.613 76.2598C49.83 74.6059 47.3325 73.8868 44.1214 74.2463L31.7051 75.3969V90.7854C43.5505 90.9292 56.9658 96.8258 69.4534 94.237C73.8776 93.3022 88.4347 84.9608 91.1463 81.3653C91.289 81.1496 91.4317 80.9339 91.5031 80.79C90.6468 79.6395 88.7915 79.208 86.6507 80.4305C81.6557 83.3788 70.5238 88.4124 65.8855 88.8439C67.8122 88.5562 69.3821 87.909 70.0957 86.6866Z" fill="#FED2A4"/>
<path id="Vector_5" fill-rule="evenodd" clip-rule="evenodd" d="M51.6141 83.3785C53.3267 84.3852 57.0373 85.4639 60.6765 85.8953C62.5319 86.1111 64.2444 86.1111 65.6716 85.8953C70.3099 85.0324 70.0958 83.019 68.8114 81.7246C70.4526 82.6594 71.2375 84.8886 70.0958 86.6863C69.5249 87.6931 68.3118 88.2683 66.8847 88.6279C66.5993 88.6998 66.2425 88.7717 65.8857 88.7717C64.2444 89.0593 62.2464 89.0593 60.3911 88.8436C56.3951 88.4122 52.1136 87.1178 50.1869 85.9672C48.1889 84.7448 49.6161 82.228 51.6141 83.3785Z" fill="#FFBD86"/>
<path id="Vector_6" fill-rule="evenodd" clip-rule="evenodd" d="M22 72.3047H29.5639C31.0625 72.3047 32.2755 73.5271 32.2755 75.0372V94.3089C32.2755 95.8189 31.0625 97.0414 29.5639 97.0414H22V72.3047Z" fill="#0054A6"/>
<path id="Vector_7" d="M27.1386 93.5181C28.2421 93.5181 29.1367 92.6167 29.1367 91.5047C29.1367 90.3927 28.2421 89.4912 27.1386 89.4912C26.0352 89.4912 25.1406 90.3927 25.1406 91.5047C25.1406 92.6167 26.0352 93.5181 27.1386 93.5181Z" fill="#D2D9DC"/>
<path id="Vector_8" fill-rule="evenodd" clip-rule="evenodd" d="M52.3265 17.0067C52.3265 16.4315 52.7547 16 53.3255 16C53.8964 16 54.3245 16.4315 54.3245 17.0067V19.4516C54.3245 20.0269 53.8964 20.4584 53.3255 20.4584C52.7547 20.4584 52.3265 20.0269 52.3265 19.4516V17.0067ZM45.5475 18.4449C45.3334 17.9415 45.4761 17.3663 45.9757 17.1505C46.4752 16.9348 47.046 17.0786 47.2601 17.582L48.4018 19.7393C48.6159 20.2426 48.4732 20.8179 47.9737 21.0336C47.4742 21.2494 46.9033 21.1055 46.6892 20.6022L45.5475 18.4449ZM59.2482 17.582C59.4623 17.0786 60.1045 16.9348 60.5327 17.1505C60.9608 17.3663 61.1749 18.0135 60.9608 18.4449L59.8191 20.6022C59.605 21.1055 58.9628 21.2494 58.5347 21.0336C58.0352 20.8179 57.8924 20.1707 58.1065 19.7393L59.2482 17.582Z" fill="#D2D9DC"/>
<path id="Vector_9" fill-rule="evenodd" clip-rule="evenodd" d="M70.8095 37.9323C70.2386 38.0042 69.7391 37.6447 69.6678 37.0694C69.5964 36.4941 69.9532 35.9908 70.5241 35.9189L74.2347 35.3436C74.8055 35.2717 75.305 35.6312 75.3764 36.2065C75.3764 36.2784 75.3764 36.4222 75.3764 36.4941L74.8055 40.3053C74.7342 40.8806 74.2347 41.2401 73.6638 41.1682C73.0929 41.0963 72.7362 40.593 72.8075 40.0177L72.9502 39.2267L53.969 58.4264C53.6122 58.7859 52.97 58.7859 52.6132 58.4264L39.7688 45.4828L23.7132 61.6623C23.3564 62.0219 22.7142 62.0219 22.3574 61.6623C22.0006 61.3028 22.0006 60.6556 22.3574 60.296L39.0552 43.4693C39.412 43.1098 40.0542 43.1098 40.411 43.4693L53.2554 56.4129L71.5944 37.9323H70.8095Z" fill="#002548"/>
<path id="Vector_10" fill-rule="evenodd" clip-rule="evenodd" d="M71.8804 55.7655C71.8804 55.1902 72.3085 54.7588 72.8794 54.7588C73.4502 54.7588 73.8784 55.1902 73.8784 55.7655V56.8441C74.0211 56.8441 74.1638 56.9161 74.3065 56.9161C75.3056 57.1318 76.2332 57.5632 76.9468 58.2104C77.4463 58.6419 77.7317 59.2171 77.8744 59.8643C78.0172 60.3677 77.6604 60.943 77.1609 61.0149C76.6614 61.1587 76.0905 60.7991 76.0191 60.2958C75.9478 60.0081 75.8051 59.7924 75.591 59.5767C75.2342 59.2171 74.592 58.9295 73.9498 58.8576H73.8784V62.6688C74.3779 62.8126 74.806 62.9564 75.2342 63.1002C75.9478 63.3879 76.5186 63.7474 76.9468 64.1789C77.4463 64.6822 77.8031 65.3294 77.8744 66.0485C77.9458 67.1271 77.5176 68.2058 76.6614 68.853C76.1618 69.2844 75.4483 69.5721 74.7347 69.7159C74.4493 69.7878 74.1638 69.8597 73.807 69.8597V70.8664C73.807 71.4417 73.3789 71.8731 72.808 71.8731C72.2372 71.8731 71.809 71.4417 71.809 70.8664V69.7878C71.5236 69.7159 71.2381 69.644 70.9527 69.5721C69.4542 69.1406 68.1698 68.1339 67.813 66.5519C67.6702 66.0485 68.027 65.4732 68.5265 65.3294C69.026 65.1856 69.5969 65.5451 69.7396 66.0485C69.9537 66.8395 70.6673 67.3429 71.5236 67.6305C71.5949 67.6305 71.7377 67.7024 71.809 67.7024V64.1789C70.8814 63.9631 70.0251 63.6755 69.3115 63.1002C69.1688 63.0283 69.0974 62.8845 68.9547 62.8126C68.3125 62.1654 67.9557 61.4463 67.8843 60.6553C67.813 59.8643 68.0984 59.1452 68.5979 58.4261C68.6693 58.3542 68.7406 58.2104 68.8833 58.1385C69.4542 57.4913 70.3105 57.1318 71.2381 56.9161C71.4522 56.8442 71.5949 56.8441 71.809 56.8441L71.8804 55.7655ZM73.8784 64.6822V67.9181C74.0211 67.9181 74.1638 67.8462 74.3065 67.8462C74.7347 67.7743 75.1628 67.5586 75.4483 67.3429C75.8764 67.0552 76.0191 66.6238 75.9478 66.1204C75.8764 65.9047 75.8051 65.7609 75.6623 65.6171C75.1628 65.1856 74.592 64.898 73.8784 64.6822ZM71.8804 62.1654V58.8576C71.809 58.8576 71.809 58.8576 71.7376 58.8576C70.9527 59.0733 69.8823 59.5767 69.9537 60.5115C70.0251 61.4463 71.1668 61.8778 71.8804 62.1654Z" fill="#FFDD33"/>
<path id="Vector_11" fill-rule="evenodd" clip-rule="evenodd" d="M67.5276 31.029L53.256 50.1568L38.9844 31.029L42.4096 25.0605H64.1024L67.5276 31.029Z" fill="#43F043"/>
<path id="Vector_12" fill-rule="evenodd" clip-rule="evenodd" d="M67.5277 31.029H58.0371L61.4623 25.0605H64.1025L67.5277 31.029Z" fill="#D2D9DC"/>
<path id="Vector_13" fill-rule="evenodd" clip-rule="evenodd" d="M67.5264 31.029H64.8861L61.4609 25.0605H64.1012L67.5264 31.029Z" fill="#839299"/>
<path id="Vector_14" fill-rule="evenodd" clip-rule="evenodd" d="M48.5463 31.029H38.9844L42.4096 25.0605H45.1212L48.5463 31.029Z" fill="#D2D9DC"/>
<path id="Vector_15" fill-rule="evenodd" clip-rule="evenodd" d="M51.9715 25.0605L48.5463 31.029L45.1211 25.0605H51.9715Z" fill="#F9FAFB"/>
<path id="Vector_16" fill-rule="evenodd" clip-rule="evenodd" d="M58.0355 31.029H48.5449L51.9701 25.0605H54.6103L58.0355 31.029Z" fill="#839299"/>
<path id="Vector_17" fill-rule="evenodd" clip-rule="evenodd" d="M61.4597 25.0605L58.0346 31.029L54.6094 25.0605H61.4597Z" fill="#F9FAFB"/>
<path id="Vector_18" fill-rule="evenodd" clip-rule="evenodd" d="M58.0349 31.0288H67.5255L53.2539 50.1566L58.0349 31.0288Z" fill="#F9FAFB"/>
<path id="Vector_19" fill-rule="evenodd" clip-rule="evenodd" d="M48.5463 31.0288H38.9844L53.256 50.1566L48.5463 31.0288Z" fill="#F9FAFB"/>
<path id="Vector_20" fill-rule="evenodd" clip-rule="evenodd" d="M48.5449 31.0288H58.0355L53.2545 50.1566L48.5449 31.0288Z" fill="#D2D9DC"/>
<path id="Vector_21" fill-rule="evenodd" clip-rule="evenodd" d="M53.2539 50.1566L64.8853 31.0288H67.5255L53.2539 50.1566Z" fill="#D2D9DC"/>
<path id="Vector_22" fill-rule="evenodd" clip-rule="evenodd" d="M45.1212 25.0605L41.696 31.029H38.9844L42.4096 25.0605H45.1212Z" fill="#839299"/>
<path id="Vector_23" fill-rule="evenodd" clip-rule="evenodd" d="M53.2569 50.1566L41.6969 31.0288H39.0566L53.2569 50.1566Z" fill="#D2D9DC"/>
</g>
</g>
</svg>
