<svg width="48" height="48" viewBox="0 0 48 48" fill="none" xmlns="http://www.w3.org/2000/svg">
<g id="your-personal-assistant-to_guaranteed-clean-data-or-money-back 1">
<g id="Group">
<path id="Vector" d="M36.8 22H22.6C21.7 22 21 22.7 21 23.6V38.5C21 39.4 21.7 40.1 22.6 40.1H36.8C37.7 40.1 38.4 39.4 38.4 38.5V23.5C38.4 22.7 37.7 22 36.8 22Z" fill="#D2D9DC"/>
<path id="Vector_2" d="M39.6984 25H25.4984C24.5984 25 23.8984 25.7 23.8984 26.6V34.8C23.8984 35.7 24.5984 36.4 25.4984 36.4H39.6984C40.5984 36.4 41.2984 35.7 41.2984 34.8V26.6C41.2984 25.8 40.5984 25 39.6984 25Z" fill="#F9FAFB"/>
<path id="Vector_3" d="M19.2988 36.2V44.9C19.2988 46.6 20.6988 48 22.3988 48H40.5988C42.2988 48 43.6988 46.6 43.6988 44.9V31.7999C43.6988 30.0999 42.2988 28.7 40.5988 28.7H36.4988C35.2988 28.7 34.0988 29.4 33.5988 30.6L33.2988 31.2999C32.7988 32.3999 31.6988 33.2 30.3988 33.2H22.2988C20.6988 33 19.2988 34.4 19.2988 36.2Z" fill="#0054A6"/>
<path id="Vector_4" opacity="0.19" d="M43.6984 31.8V44.9C43.6984 46.6 42.2984 48 40.5984 48H37.8984C39.5984 48 40.9984 46.6 40.9984 44.9V31.8C40.9984 30.1 39.5984 28.7 37.8984 28.7H40.5984C42.2984 28.6 43.6984 30 43.6984 31.8Z" fill="#2D2F31"/>
<g id="Group_2" opacity="0.19">
<path id="Vector_5" d="M32.5992 37.9H23.8992C23.4992 37.9 23.1992 37.6 23.1992 37.2C23.1992 36.8 23.4992 36.5 23.8992 36.5H32.5992C32.9992 36.5 33.2992 36.8 33.2992 37.2C33.2992 37.6 32.9992 37.9 32.5992 37.9Z" fill="#F9FAFB"/>
<path id="Vector_6" d="M29.6992 40.7001H23.8992C23.4992 40.7001 23.1992 40.4 23.1992 40C23.1992 39.6 23.4992 39.3 23.8992 39.3H29.6992C30.0992 39.3 30.3992 39.6 30.3992 40C30.3992 40.4 30.0992 40.7001 29.6992 40.7001Z" fill="#F9FAFB"/>
</g>
<path id="Vector_7" d="M13.6992 34.5L9.19922 35C8.39922 35.1 7.79922 34.3 8.09922 33.5L8.39922 32.9C6.69922 31.1 5.69922 28.7 5.69922 26.2C5.69922 25.3 6.39922 24.6 7.29922 24.6C8.19922 24.6 8.89922 25.3 8.89922 26.2C8.89922 27.4 9.19922 28.6 9.89922 29.7L9.99922 29.4C10.2992 28.7 11.2992 28.6 11.7992 29.2L14.3992 32.9C14.9992 33.5 14.4992 34.5 13.6992 34.5Z" fill="#54CC5A"/>
<path id="Vector_8" d="M31.2994 7.29997L35.7994 6.89997C36.5994 6.79997 37.1994 7.59997 36.8994 8.39997L36.5994 8.99997C38.2994 10.8 39.2994 13.2 39.2994 15.7C39.2994 16.6 38.5994 17.3 37.6994 17.3C36.7994 17.3 36.0994 16.6 36.0994 15.7C36.0994 14.5 35.7994 13.3 35.0994 12.2L34.9994 12.4C34.6994 13.1 33.6994 13.2 33.1994 12.6L30.5994 8.89997C30.0994 8.29997 30.4994 7.29997 31.2994 7.29997Z" fill="#54CC5A"/>
<path id="Vector_9" d="M14.4992 20.6C20.1878 20.6 24.7992 15.9885 24.7992 10.3C24.7992 4.61147 20.1878 0 14.4992 0C8.81069 0 4.19922 4.61147 4.19922 10.3C4.19922 15.9885 8.81069 20.6 14.4992 20.6Z" fill="#FFDD33"/>
<path id="Vector_10" opacity="0.19" d="M15.9988 11.8C15.8988 11.6 15.6988 11.5 15.3988 11.3C15.2988 11.2 15.0988 11.1 14.8988 11.1V13.7C15.0988 13.7 15.1988 13.6 15.3988 13.6C15.5988 13.5 15.7988 13.4 15.9988 13.2C16.0988 13 16.1988 12.8 16.1988 12.5C16.1988 12.2 16.0988 12 15.9988 11.8ZM13.6988 6.99998C13.4988 7.09998 13.2988 7.19998 13.1988 7.39998C13.0988 7.59998 12.9988 7.79998 12.9988 8.09998C12.9988 8.29998 13.0988 8.49998 13.1988 8.69998C13.2988 8.89998 13.4988 8.99998 13.5988 9.09998C13.7988 8.99998 13.9988 9.09998 14.0988 9.19998V6.89998C13.9988 6.89998 13.8988 6.89998 13.6988 6.99998ZM13.6988 6.99998C13.4988 7.09998 13.2988 7.19998 13.1988 7.39998C13.0988 7.59998 12.9988 7.79998 12.9988 8.09998C12.9988 8.29998 13.0988 8.49998 13.1988 8.69998C13.2988 8.89998 13.4988 8.99998 13.5988 9.09998C13.7988 8.99998 13.9988 9.09998 14.0988 9.19998V6.89998C13.9988 6.89998 13.8988 6.89998 13.6988 6.99998ZM15.9988 11.8C15.8988 11.6 15.6988 11.5 15.3988 11.3C15.2988 11.2 15.0988 11.1 14.8988 11.1V13.7C15.0988 13.7 15.1988 13.6 15.3988 13.6C15.5988 13.5 15.7988 13.4 15.9988 13.2C16.0988 13 16.1988 12.8 16.1988 12.5C16.1988 12.2 16.0988 12 15.9988 11.8ZM13.2988 7.29998C13.1988 7.49998 13.0988 7.69998 13.0988 7.99998C13.0988 8.19998 13.1988 8.39998 13.2988 8.59998C13.3988 8.79998 13.5988 8.89998 13.6988 8.99998C13.7988 8.99998 13.9988 9.09998 14.0988 9.19998V6.89998C13.9988 6.89998 13.8988 6.99998 13.7988 6.99998C13.4988 6.99998 13.3988 7.19998 13.2988 7.29998ZM14.4988 2.59998C10.2988 2.59998 6.79883 6.09998 6.79883 10.3C6.79883 14.5 10.2988 18 14.4988 18C18.6988 18 22.1988 14.5 22.1988 10.3C22.1988 6.09998 18.7988 2.59998 14.4988 2.59998ZM17.4988 13.7C17.2988 14.1 16.8988 14.4 16.3988 14.7C15.9988 14.9 15.4988 15 14.9988 15V16H14.0988V15C13.6988 15 13.1988 14.9 12.8988 14.7C12.3988 14.5 11.9988 14.1 11.6988 13.7C11.3988 13.3 11.2988 12.7 11.2988 12.1H12.9988C12.9988 12.4 13.0988 12.7 13.1988 12.9C13.2988 13.1 13.4988 13.3 13.7988 13.5C13.8988 13.6 14.0988 13.6 14.1988 13.7V10.8C14.0988 10.8 13.8988 10.7 13.7988 10.7C13.0988 10.4 12.4988 10.1 12.0988 9.69998C11.6988 9.29998 11.4988 8.79998 11.4988 8.19998C11.4988 7.69998 11.5988 7.19998 11.8988 6.79998C12.1988 6.39998 12.4988 6.09998 12.9988 5.89998C13.3988 5.69998 13.7988 5.59998 14.1988 5.59998V4.49998H14.9988V5.59998C15.3988 5.59998 15.7988 5.79998 16.0988 5.89998C16.5988 6.09998 16.8988 6.39998 17.1988 6.79998C17.4988 7.19998 17.5988 7.69998 17.5988 8.19998H15.8988C15.8988 7.89998 15.7988 7.69998 15.6988 7.49998C15.5988 7.29998 15.3988 7.19998 15.1988 6.99998C15.0988 6.99998 14.9988 6.89998 14.8988 6.89998V9.49998C14.9988 9.49998 15.1988 9.59998 15.2988 9.59998C15.7988 9.79998 16.1988 9.89998 16.5988 10.2C16.9988 10.4 17.2988 10.7 17.4988 11C17.6988 11.3 17.7988 11.8 17.7988 12.3C17.8988 12.8 17.6988 13.3 17.4988 13.7ZM15.3988 11.3C15.2988 11.2 15.0988 11.1 14.8988 11.1V13.7C15.0988 13.7 15.1988 13.6 15.3988 13.6C15.5988 13.5 15.7988 13.4 15.9988 13.2C16.0988 13 16.1988 12.8 16.1988 12.5C16.1988 12.2 16.0988 12 15.9988 11.8C15.8988 11.6 15.6988 11.4 15.3988 11.3ZM13.2988 7.29998C13.1988 7.49998 13.0988 7.69998 13.0988 7.99998C13.0988 8.19998 13.1988 8.39998 13.2988 8.59998C13.3988 8.79998 13.5988 8.89998 13.6988 8.99998C13.7988 8.99998 13.9988 9.09998 14.0988 9.19998V6.89998C13.9988 6.89998 13.8988 6.99998 13.7988 6.99998C13.4988 6.99998 13.3988 7.19998 13.2988 7.29998ZM13.6988 6.99998C13.4988 7.09998 13.2988 7.19998 13.1988 7.39998C13.0988 7.59998 12.9988 7.79998 12.9988 8.09998C12.9988 8.29998 13.0988 8.49998 13.1988 8.69998C13.2988 8.89998 13.4988 8.99998 13.5988 9.09998C13.7988 8.99998 13.9988 9.09998 14.0988 9.19998V6.89998C13.9988 6.89998 13.8988 6.89998 13.6988 6.99998ZM15.9988 11.8C15.8988 11.6 15.6988 11.5 15.3988 11.3C15.2988 11.2 15.0988 11.1 14.8988 11.1V13.7C15.0988 13.7 15.1988 13.6 15.3988 13.6C15.5988 13.5 15.7988 13.4 15.9988 13.2C16.0988 13 16.1988 12.8 16.1988 12.5C16.1988 12.2 16.0988 12 15.9988 11.8ZM13.6988 6.99998C13.4988 7.09998 13.2988 7.19998 13.1988 7.39998C13.0988 7.59998 12.9988 7.79998 12.9988 8.09998C12.9988 8.29998 13.0988 8.49998 13.1988 8.69998C13.2988 8.89998 13.4988 8.99998 13.5988 9.09998C13.7988 8.99998 13.9988 9.09998 14.0988 9.19998V6.89998C13.9988 6.89998 13.8988 6.89998 13.6988 6.99998ZM13.6988 6.99998C13.4988 7.09998 13.2988 7.19998 13.1988 7.39998C13.0988 7.59998 12.9988 7.79998 12.9988 8.09998C12.9988 8.29998 13.0988 8.49998 13.1988 8.69998C13.2988 8.89998 13.4988 8.99998 13.5988 9.09998C13.7988 8.99998 13.9988 9.09998 14.0988 9.19998V6.89998C13.9988 6.89998 13.8988 6.89998 13.6988 6.99998ZM15.9988 11.8C15.8988 11.6 15.6988 11.5 15.3988 11.3C15.2988 11.2 15.0988 11.1 14.8988 11.1V13.7C15.0988 13.7 15.1988 13.6 15.3988 13.6C15.5988 13.5 15.7988 13.4 15.9988 13.2C16.0988 13 16.1988 12.8 16.1988 12.5C16.1988 12.2 16.0988 12 15.9988 11.8Z" fill="#2D2F31"/>
</g>
</g>
</svg>
