<svg width="254" height="220" viewBox="0 0 254 220" fill="none" xmlns="http://www.w3.org/2000/svg">
<path d="M127 219.69C197.14 219.69 254 216.368 254 212.27C254 208.172 197.14 204.85 127 204.85C56.8598 204.85 0 208.172 0 212.27C0 216.368 56.8598 219.69 127 219.69Z" fill="#D2D9DC"/>
<path d="M98.1599 205.76H72.3799V125.92H98.1599V205.76ZM72.7299 205.41H97.8099V126.26H72.7299V205.41Z" fill="#839299"/>
<path d="M62.01 206.69H36.23V151.02H62.01V206.69ZM36.58 206.34H61.66V151.37H36.58V206.34Z" fill="#839299"/>
<path d="M132.65 202.72H106.87V98.21H132.65V202.72ZM107.22 202.37H132.3V98.56H107.22V202.37Z" fill="#839299"/>
<path d="M206.67 27.0298C206.27 25.4798 205.65 24.0098 204.86 22.6698L206.7 19.8998L204.14 17.3398L201.58 14.7798L198.81 16.6198C197.46 15.8298 196 15.2098 194.45 14.8098L193.79 11.5498H190.18H186.57L185.91 14.8098C184.36 15.2098 182.89 15.8298 181.55 16.6198L178.78 14.7798L176.22 17.3398L173.66 19.8998L175.5 22.6698C174.7 24.0198 174.09 25.4798 173.69 27.0298L170.43 27.6898V31.3098V34.9198L173.69 35.5798C174.09 37.1298 174.71 38.5998 175.5 39.9398L173.66 42.7098L176.22 45.2698L178.78 47.8298L181.55 45.9898C182.9 46.7798 184.36 47.3998 185.91 47.7998L186.57 51.0598H190.18H193.79L194.45 47.7998C196 47.3998 197.47 46.7798 198.81 45.9898L201.58 47.8298L204.14 45.2698L206.7 42.7098L204.86 39.9398C205.65 38.5898 206.27 37.1298 206.67 35.5798L209.93 34.9198V31.3098V27.6898L206.67 27.0298ZM190.19 43.9698C183.19 43.9698 177.52 38.2998 177.52 31.2998C177.52 24.2998 183.19 18.6298 190.19 18.6298C197.19 18.6298 202.86 24.2998 202.86 31.2998C202.86 38.2998 197.18 43.9698 190.19 43.9698Z" fill="#D2D9DC"/>
<path d="M55.24 125.459C55.33 125.539 55.43 125.619 55.54 125.689L55.31 125.979L49.04 133.859L48.75 133.629L55.02 125.749L55.24 125.459Z" fill="#002548"/>
<path d="M84.42 117.949C84.43 118.069 84.46 118.199 84.49 118.319L84.12 118.389L60.48 122.859L60.11 122.929C60.1 122.809 60.07 122.679 60.04 122.559L60.41 122.489L84.05 118.019L84.42 117.949Z" fill="#002548"/>
<path d="M101.43 93.8492L101.24 94.1792L89.1601 114.839L88.9701 115.169C88.8701 115.099 88.7601 115.039 88.6401 114.979L88.8301 114.649L100.91 93.9892L101.1 93.6592C101.21 93.7292 101.32 93.7892 101.43 93.8492Z" fill="#002548"/>
<path d="M128.42 83.139C128.44 83.199 128.46 83.259 128.48 83.319L105.59 90.529C105.57 90.469 105.56 90.409 105.54 90.349C105.52 90.289 105.5 90.229 105.48 90.169L128.37 82.959C128.38 83.019 128.4 83.079 128.42 83.139Z" fill="#002548"/>
<path d="M142.4 58.7391L132.78 79.3391L132.62 79.6791C132.51 79.6191 132.4 79.5691 132.28 79.5191L132.44 79.1791L142.06 58.5791L142.4 58.7391Z" fill="#002548"/>
<path d="M56.21 120.129C54.47 120.679 53.5 122.539 54.05 124.279C54.24 124.869 54.57 125.369 55 125.749C55.09 125.829 55.19 125.909 55.3 125.979C56.12 126.559 57.18 126.759 58.2 126.439C59.75 125.949 60.69 124.419 60.49 122.859C60.47 122.739 60.45 122.609 60.42 122.489C60.4 122.419 60.39 122.359 60.37 122.289C59.81 120.559 57.95 119.589 56.21 120.129ZM60.11 122.929C60.28 124.309 59.45 125.649 58.08 126.079C57.18 126.359 56.25 126.189 55.53 125.689C55.43 125.619 55.33 125.539 55.23 125.459C54.86 125.119 54.57 124.679 54.4 124.169C53.91 122.629 54.77 120.979 56.31 120.489C57.85 119.999 59.5 120.859 59.99 122.399C60.01 122.449 60.02 122.499 60.03 122.549C60.07 122.679 60.1 122.809 60.11 122.929Z" fill="#002548"/>
<path d="M89.1601 114.84C89.0601 114.77 88.9501 114.71 88.8401 114.65C88.0901 114.27 87.2001 114.17 86.3401 114.44C84.7901 114.93 83.8501 116.46 84.0501 118.02C84.0701 118.14 84.0901 118.27 84.1201 118.39C84.1401 118.46 84.1501 118.52 84.1701 118.59C84.7201 120.33 86.5801 121.3 88.3201 120.75C90.0601 120.2 91.0301 118.34 90.4801 116.6C90.2501 115.85 89.7701 115.24 89.1601 114.84ZM88.2101 120.38C86.6701 120.87 85.0201 120.01 84.5301 118.47C84.5101 118.42 84.5001 118.37 84.4901 118.32C84.4601 118.2 84.4301 118.07 84.4201 117.95C84.2501 116.57 85.0801 115.23 86.4501 114.8C87.2001 114.56 87.9901 114.65 88.6401 114.98C88.7501 115.04 88.8601 115.1 88.9701 115.17C89.5001 115.53 89.9201 116.06 90.1301 116.72C90.6101 118.25 89.7501 119.9 88.2101 120.38Z" fill="#002548"/>
<path d="M105.84 90.0589C105.23 88.4289 103.43 87.5489 101.75 88.0789C100.01 88.6289 99.0401 90.4889 99.5901 92.2289C99.8301 92.9789 100.31 93.5889 100.92 93.9889C101.03 94.0589 101.13 94.1189 101.25 94.1789C102 94.5589 102.89 94.6589 103.75 94.3889C105.43 93.8589 106.39 92.1089 105.96 90.4189C105.95 90.3589 105.93 90.2989 105.91 90.2389C105.88 90.1789 105.86 90.1189 105.84 90.0589ZM103.62 94.0289C102.87 94.2689 102.08 94.1789 101.43 93.8489C101.32 93.7889 101.21 93.7289 101.1 93.6589C100.57 93.2989 100.15 92.7689 99.9401 92.1089C99.4501 90.5689 100.31 88.9189 101.85 88.4289C103.33 87.9589 104.91 88.7389 105.46 90.1689C105.48 90.2289 105.5 90.2889 105.52 90.3489C105.54 90.4089 105.56 90.4689 105.57 90.5289C105.96 92.0189 105.11 93.5589 103.62 94.0289Z" fill="#002548"/>
<path d="M132.78 79.3494C132.67 79.2894 132.56 79.2394 132.44 79.1894C131.76 78.9194 130.98 78.8694 130.22 79.1094C128.54 79.6394 127.58 81.3894 128.01 83.0794C128.02 83.1394 128.04 83.1994 128.06 83.2594C128.08 83.3194 128.1 83.3794 128.12 83.4394C128.73 85.0694 130.53 85.9494 132.21 85.4194C133.95 84.8694 134.92 83.0094 134.37 81.2694C134.1 80.4094 133.51 79.7394 132.78 79.3494ZM132.09 85.0494C130.61 85.5194 129.03 84.7394 128.48 83.3094C128.46 83.2494 128.44 83.1894 128.42 83.1294C128.4 83.0694 128.38 83.0094 128.37 82.9494C128 81.4594 128.85 79.9194 130.34 79.4594C131 79.2494 131.69 79.2894 132.29 79.5294C132.41 79.5794 132.52 79.6294 132.63 79.6894C133.27 80.0394 133.78 80.6294 134.02 81.3794C134.5 82.9194 133.64 84.5694 132.09 85.0494Z" fill="#002548"/>
<path d="M153.73 209.859H141.81V80.3691H153.73V209.859ZM142.62 209.039H152.91V81.1891H142.62V209.039Z" fill="#839299"/>
<path d="M153.068 203.145L141.966 208.997L142.446 209.908L153.548 204.056L153.068 203.145Z" fill="#839299"/>
<path d="M153.067 183.356L141.965 189.208L142.446 190.119L153.547 184.267L153.067 183.356Z" fill="#839299"/>
<path d="M153.067 163.566L141.965 169.418L142.446 170.329L153.547 164.477L153.067 163.566Z" fill="#839299"/>
<path d="M153.078 143.784L141.977 149.64L142.458 150.551L153.558 144.695L153.078 143.784Z" fill="#839299"/>
<path d="M153.077 123.995L141.976 129.851L142.457 130.762L153.557 124.906L153.077 123.995Z" fill="#839299"/>
<path d="M153.074 104.191L141.974 110.046L142.454 110.957L153.555 105.102L153.074 104.191Z" fill="#839299"/>
<path d="M153.073 84.4023L141.973 90.2568L142.453 91.1679L153.554 85.3133L153.073 84.4023Z" fill="#839299"/>
<path d="M204.51 209.859H192.59V80.3691H204.51V209.859ZM193.4 209.039H203.69V81.1891H193.4V209.039Z" fill="#839299"/>
<path d="M203.865 203.144L192.764 208.997L193.244 209.908L204.346 204.055L203.865 203.144Z" fill="#839299"/>
<path d="M203.864 183.354L192.763 189.207L193.243 190.118L204.345 184.265L203.864 183.354Z" fill="#839299"/>
<path d="M203.863 163.564L192.762 169.417L193.242 170.328L204.344 164.475L203.863 163.564Z" fill="#839299"/>
<path d="M203.851 143.762L192.752 149.619L193.233 150.53L204.332 144.673L203.851 143.762Z" fill="#839299"/>
<path d="M203.85 123.974L192.75 129.831L193.231 130.742L204.33 124.885L203.85 123.974Z" fill="#839299"/>
<path d="M203.851 104.209L192.751 110.063L193.231 110.975L204.332 105.12L203.851 104.209Z" fill="#839299"/>
<path d="M203.851 84.4189L192.751 90.2734L193.231 91.1845L204.332 85.3299L203.851 84.4189Z" fill="#839299"/>
<path d="M190.19 33.1895H156.13V156.769H190.19V33.1895Z" fill="#0054A6"/>
<path d="M137.87 106.159H112.44V210.319H137.87V106.159Z" fill="#0054A6"/>
<path d="M102.26 130.819H76.8301V210.309H102.26V130.819Z" fill="#0054A6"/>
<path d="M66.6502 155H41.2202V210.32H66.6502V155Z" fill="#0054A6"/>
<path d="M173.16 0.30957C158.17 15.2996 156.13 33.1896 156.13 33.1896H173.16H190.19C190.19 33.1896 188.15 15.2996 173.16 0.30957Z" fill="#ED1C24"/>
<path d="M194.2 194.88C192.78 194.88 191.43 195.09 190.18 195.47C188.53 191.47 184.44 188.64 179.65 188.64C174.33 188.64 169.86 192.14 168.66 196.85C167.74 196.5 166.74 196.31 165.69 196.31C161.26 196.31 157.67 199.72 157.67 203.94H169.41H173.72H182.9H189.9H205.51C205.51 198.94 200.44 194.88 194.2 194.88Z" fill="#F5F5F5"/>
<path d="M181.39 59.3394C181.39 63.8894 177.7 67.5694 173.16 67.5694C168.61 67.5694 164.93 63.8794 164.93 59.3394C164.93 54.7894 168.62 51.1094 173.16 51.1094C177.7 51.0994 181.39 54.7894 181.39 59.3394Z" fill="#002548"/>
<path d="M173.16 92.2891C177.705 92.2891 181.39 88.6044 181.39 84.0591C181.39 79.5138 177.705 75.8291 173.16 75.8291C168.615 75.8291 164.93 79.5138 164.93 84.0591C164.93 88.6044 168.615 92.2891 173.16 92.2891Z" fill="#002548"/>
<path d="M179.29 84.0599C179.29 87.4499 176.54 90.1999 173.15 90.1999C169.76 90.1999 167.01 87.4499 167.01 84.0599C167.01 80.6699 169.76 77.9199 173.15 77.9199C176.55 77.9199 179.29 80.6699 179.29 84.0599Z" fill="white"/>
<path d="M179.29 59.3392C179.29 62.7292 176.54 65.4792 173.15 65.4792C169.76 65.4792 167.01 62.7292 167.01 59.3392C167.01 55.9492 169.76 53.1992 173.15 53.1992C176.55 53.1992 179.29 55.9492 179.29 59.3392Z" fill="white"/>
<path d="M159.84 157.149H152.42V188.639H159.84V157.149Z" fill="#FFBD86"/>
<path d="M176.87 157.149H169.45V188.639H176.87V157.149Z" fill="#FFBD86"/>
<path d="M193.9 157.149H186.48V188.639H193.9V157.149Z" fill="#FFBD86"/>
<path d="M179.29 160.41H167.02C167.02 157.02 169.77 154.27 173.15 154.27C176.55 154.27 179.29 157.02 179.29 160.41Z" fill="#2878BD"/>
<path d="M196.32 160.41H184.05C184.05 157.02 186.8 154.27 190.19 154.27C193.57 154.27 196.32 157.02 196.32 160.41Z" fill="#2878BD"/>
<path d="M201.88 178.11C199.8 178.11 197.81 178.45 195.98 179.07C193.57 172.57 187.57 167.97 180.55 167.97C172.75 167.97 166.21 173.66 164.45 181.32C163.1 180.75 161.63 180.44 160.09 180.44C153.6 180.44 148.33 185.99 148.33 192.85H165.54H171.86H185.32H195.57H218.45C218.45 184.7 211.03 178.11 201.88 178.11Z" fill="#D2D9DC"/>
<path d="M189.53 189.32C187.45 189.32 185.46 189.68 183.63 190.34C181.22 183.45 175.22 178.56 168.2 178.56C160.4 178.56 153.86 184.59 152.1 192.72C150.75 192.12 149.28 191.79 147.74 191.79C141.25 191.79 135.98 197.68 135.98 204.95H153.19H159.5H172.96H183.21H206.09C206.1 196.32 198.68 189.32 189.53 189.32Z" fill="#D2D9DC"/>
<path d="M162.26 160.41H149.99C149.99 157.02 152.74 154.27 156.13 154.27C159.52 154.27 162.26 157.02 162.26 160.41Z" fill="#2878BD"/>
<g opacity="0.19">
<path d="M189.53 189.32C187.45 189.32 185.46 189.68 183.63 190.34C181.22 183.45 175.22 178.56 168.2 178.56C160.4 178.56 153.86 184.59 152.1 192.72C150.75 192.12 149.28 191.79 147.74 191.79C141.25 191.79 135.98 197.68 135.98 204.95H153.19H159.5H172.96H183.21H206.09C206.1 196.32 198.68 189.32 189.53 189.32Z" fill="#F9FAFB"/>
</g>
<path d="M230.22 197.42C227.88 197.42 225.65 197.76 223.59 198.39C220.88 191.81 214.13 187.14 206.24 187.14C197.47 187.14 190.12 192.9 188.14 200.66C186.62 200.09 184.97 199.77 183.24 199.77C175.94 199.77 170.02 205.4 170.02 212.33H189.36H196.46H211.59H223.11H248.83C248.84 204.11 240.51 197.42 230.22 197.42Z" fill="#D2D9DC"/>
<g opacity="0.19">
<path d="M230.22 197.42C227.88 197.42 225.65 197.76 223.59 198.39C220.88 191.81 214.13 187.14 206.24 187.14C197.47 187.14 190.12 192.9 188.14 200.66C186.62 200.09 184.97 199.77 183.24 199.77C175.94 199.77 170.02 205.4 170.02 212.33H189.36H196.46H211.59H223.11H248.83C248.84 204.11 240.51 197.42 230.22 197.42Z" fill="#2D2F31"/>
</g>
<path d="M170.41 200.789C168.6 200.789 166.87 201.059 165.28 201.539C163.18 196.439 157.96 192.829 151.85 192.829C145.06 192.829 139.37 197.289 137.84 203.299C136.67 202.859 135.39 202.609 134.05 202.609C128.4 202.609 123.82 206.959 123.82 212.339H138.79H144.28H156H164.92H184.83C184.83 205.969 178.37 200.789 170.41 200.789Z" fill="#D2D9DC"/>
<path d="M84.3902 111.21H56.0201C54.7201 111.21 53.6602 110.15 53.6602 108.85V64.3795C53.6602 63.0795 54.7201 62.0195 56.0201 62.0195H84.3902C85.6902 62.0195 86.7502 63.0795 86.7502 64.3795V108.85C86.7502 110.15 85.7002 111.21 84.3902 111.21Z" fill="#002548"/>
<path d="M67.98 69.7592C67.15 67.4492 64.95 66.0292 62.62 66.0992C62.06 66.1192 61.49 66.2192 60.93 66.4192C59.24 67.0292 58.02 68.3792 57.52 69.9692C57.17 71.0692 57.17 72.2992 57.59 73.4692C57.63 73.5892 57.68 73.6992 57.73 73.8092C57.95 74.3192 58.24 74.7792 58.59 75.1792C60.03 76.8792 62.43 77.5892 64.65 76.7992C67.51 75.7892 69 72.6292 67.98 69.7592ZM64.17 75.5092C62.5 76.1092 60.71 75.5692 59.63 74.2992C59.37 73.9992 59.15 73.6492 58.99 73.2692C58.95 73.1892 58.92 73.0992 58.89 73.0092C58.58 72.1292 58.58 71.2092 58.84 70.3792C59.21 69.1792 60.13 68.1692 61.4 67.7192C61.82 67.5692 62.25 67.4892 62.67 67.4792C64.41 67.4292 66.07 68.4892 66.69 70.2192C67.44 72.3792 66.32 74.7392 64.17 75.5092Z" fill="#54CC5A"/>
<path d="M79.2198 67.1096C78.9998 66.8496 78.7598 66.5896 78.5198 66.3496C78.2798 66.5996 78.0498 66.8496 77.8198 67.1096L77.5498 66.8796C77.8198 66.5696 78.0998 66.2596 78.3898 65.9696L78.5098 65.8496L78.6298 65.9696C78.9198 66.2596 79.1998 66.5696 79.4698 66.8796L79.2198 67.1096Z" fill="#ED1C24"/>
<path d="M74.2299 103.52H73.8799V101.18H74.2299V103.52ZM74.2299 98.84H73.8799V96.5H74.2299V98.84ZM74.2299 94.16H73.8799V91.82H74.2299V94.16ZM74.2299 89.48H73.8799V87.14H74.2299V89.48ZM74.2299 84.8H73.8799V82.46H74.2299V84.8ZM74.2299 80.12H73.8799V77.78H74.2299V80.12ZM74.2299 75.44H73.8799V74.71H73.8899C73.8799 74.32 74.2199 73.11 74.2299 73.09L74.5699 73.19C74.3199 74.06 74.2399 74.64 74.2299 74.72V75.44ZM75.3599 71.01L75.0399 70.87C75.3599 70.15 75.7399 69.45 76.1499 68.79L76.4499 68.98C76.0399 69.62 75.6799 70.31 75.3599 71.01Z" fill="#ED1C24"/>
<path d="M75.2799 107.249H73.8799V105.859H74.2299V106.899H75.2799V107.249Z" fill="#ED1C24"/>
<path d="M79.5999 106.899H77.4399V107.249H79.5999V106.899Z" fill="#ED1C24"/>
<path d="M83.1498 107.249H81.7598V106.899H82.7998V105.859H83.1498V107.249Z" fill="#ED1C24"/>
<path d="M83.1498 103.549H82.7998V101.249H83.1498V103.549ZM83.1498 98.9493H82.7998V96.6493H83.1498V98.9493ZM83.1498 94.3493H82.7998V92.0493H83.1498V94.3493ZM83.1498 89.7393H82.7998V87.4393H83.1498V89.7393ZM83.1498 85.1393H82.7998V82.8393H83.1498V85.1393ZM83.1498 80.5393H82.7998V78.2393H83.1498V80.5393Z" fill="#ED1C24"/>
<path d="M83.1501 75.93H82.8001V74.72C82.7901 74.65 82.7301 74.22 82.5601 73.55L82.9001 73.46C83.0901 74.21 83.1401 74.66 83.1501 74.68V74.7V75.93Z" fill="#ED1C24"/>
<path d="M81.7797 71.2494C81.4597 70.4994 81.0797 69.7694 80.6597 69.0794L80.9597 68.8994C81.3897 69.5994 81.7797 70.3494 82.1097 71.1094L81.7797 71.2494Z" fill="#ED1C24"/>
<path d="M70.3201 81H67.0801V107.38H70.3201V81Z" fill="#0054A6"/>
<path d="M65.78 87.25H62.54V107.38H65.78V87.25Z" fill="#0054A6"/>
<path d="M61.24 93.3691H58V107.379H61.24V93.3691Z" fill="#0054A6"/>
</svg>
