<svg width="50" height="50" viewBox="0 0 50 50" fill="none" xmlns="http://www.w3.org/2000/svg">
<path d="M35.6353 46.9727H14.3951C13.2828 46.9727 12.3809 46.0709 12.3809 44.9584V5.0416C12.3809 3.9293 13.2826 3.02734 14.3951 3.02734H35.6353C36.7477 3.02734 37.6496 3.9291 37.6496 5.0416V44.9586C37.6496 46.0709 36.7478 46.9727 35.6353 46.9727Z" fill="#4671C6"/>
<path d="M34.9713 4.91162H31.6824V5.26709C31.6824 6.05244 31.0457 6.68936 30.2602 6.68936H19.7717C18.9863 6.68936 18.3494 6.05264 18.3494 5.26709V4.91162H15.0607C14.4717 4.91162 13.9941 5.38916 13.9941 5.97822V44.0216C13.9941 44.6106 14.4717 45.0882 15.0607 45.0882H34.9713C35.5604 45.0882 36.0379 44.6106 36.0379 44.0216V5.97822C36.0379 5.38916 35.5604 4.91162 34.9713 4.91162Z" fill="#6BDDDD"/>
<path d="M29.3566 5.71328C29.7257 5.71328 30.0248 5.41413 30.0248 5.04512C30.0248 4.6761 29.7257 4.37695 29.3566 4.37695C28.9876 4.37695 28.6885 4.6761 28.6885 5.04512C28.6885 5.41413 28.9876 5.71328 29.3566 5.71328Z" fill="#E0EBFC"/>
<path d="M27.223 5.52813C27.4897 5.52813 27.7059 5.31196 27.7059 5.04531C27.7059 4.77866 27.4897 4.5625 27.223 4.5625C26.9564 4.5625 26.7402 4.77866 26.7402 5.04531C26.7402 5.31196 26.9564 5.52813 27.223 5.52813Z" fill="#E0EBFC"/>
<path d="M25.2443 5.52764H20.1654C19.8988 5.52764 19.6826 5.31143 19.6826 5.04482C19.6826 4.77822 19.8988 4.56201 20.1654 4.56201H25.2443C25.5109 4.56201 25.7271 4.77822 25.7271 5.04482C25.727 5.31162 25.5109 5.52764 25.2443 5.52764Z" fill="#E0EBFC"/>
<path d="M30.5592 31.4041H19.4697V27.118C19.4697 24.0557 21.9521 21.5732 25.0145 21.5732C28.0768 21.5732 30.5592 24.0557 30.5592 27.118V31.4041Z" fill="#F9A7A7"/>
<path d="M30.9674 32.8668H19.0322C18.5813 32.8668 18.2158 32.5014 18.2158 32.0504V30.7578C18.2158 30.3068 18.5813 29.9414 19.0322 29.9414H30.9674C31.4184 29.9414 31.7838 30.3068 31.7838 30.7578V32.0504C31.7838 32.5014 31.4182 32.8668 30.9674 32.8668Z" fill="#F9A7A7"/>
<path d="M24.6279 26.5258C24.2234 23.3076 24.2504 23.5543 24.2504 23.4717C24.2504 23.0391 24.5953 22.792 25.0138 22.792C25.4785 22.792 25.8387 23.0867 25.7689 23.5975L25.3914 26.5258C25.3679 26.7936 25.2056 26.9201 25.0138 26.9201C24.8242 26.9201 24.6631 26.7967 24.6279 26.5258ZM24.3006 28.0781C24.3006 27.6693 24.5908 27.3564 25.0138 27.3564C25.4369 27.3564 25.7269 27.6693 25.7269 28.0781C25.7269 28.4871 25.4367 28.7998 25.0138 28.7998C24.5908 28.7996 24.3006 28.4871 24.3006 28.0781Z" fill="#E0EBFC"/>
<path d="M29.2614 21.5951L29.2765 21.6102C29.487 21.8207 29.8282 21.8207 30.0388 21.6102L31.22 20.4289C31.4306 20.2184 31.4306 19.8771 31.22 19.6666L31.205 19.6516C30.9944 19.441 30.6532 19.441 30.4427 19.6516L29.2614 20.8328C29.0509 21.0434 29.0509 21.3848 29.2614 21.5951Z" fill="#F9A7A7"/>
<path d="M24.9766 19.8885H24.9566C24.6586 19.8885 24.417 19.6469 24.417 19.3488V17.6725C24.417 17.3744 24.6586 17.1328 24.9566 17.1328H24.9766C25.2746 17.1328 25.5162 17.3744 25.5162 17.6725V19.3488C25.5164 19.6469 25.2748 19.8885 24.9766 19.8885Z" fill="#F9A7A7"/>
<path d="M20.7366 21.5951L20.7216 21.6102C20.511 21.8207 20.1698 21.8207 19.9593 21.6102L18.778 20.4289C18.5675 20.2184 18.5675 19.8771 18.778 19.6666L18.7931 19.6516C19.0036 19.441 19.3448 19.441 19.5554 19.6516L20.7366 20.8328C20.9472 21.0434 20.9472 21.3848 20.7366 21.5951Z" fill="#F9A7A7"/>
<path d="M35.6353 2.63672H14.3951C13.0691 2.63672 11.9902 3.71543 11.9902 5.0416V44.9586C11.9902 46.2846 13.0689 47.3635 14.3951 47.3635H35.6353C36.9613 47.3635 38.0402 46.2848 38.0402 44.9586V5.0416C38.0402 3.71543 36.9613 2.63672 35.6353 2.63672ZM37.259 44.9586C37.259 45.8539 36.5307 46.5822 35.6353 46.5822H14.3951C13.4998 46.5822 12.7715 45.8539 12.7715 44.9586V5.0416C12.7715 4.14629 13.4998 3.41797 14.3951 3.41797H35.6353C36.5307 3.41797 37.259 4.14629 37.259 5.0416V44.9586Z" fill="#3762CC"/>
<path d="M34.9715 4.521H31.6826C31.467 4.521 31.292 4.696 31.292 4.91162V5.26709C31.292 5.83584 30.8293 6.29854 30.2604 6.29854H19.7719C19.2031 6.29854 18.7404 5.83584 18.7404 5.26709V4.91162C18.7404 4.696 18.5654 4.521 18.3498 4.521H15.0607C14.2572 4.521 13.6035 5.17471 13.6035 5.97822V44.0214C13.6035 44.8249 14.2572 45.4786 15.0607 45.4786H34.9713C35.7748 45.4786 36.4285 44.8249 36.4285 44.0214V5.97822C36.4287 5.17471 35.775 4.521 34.9715 4.521ZM35.6475 44.0216C35.6475 44.3942 35.3441 44.6976 34.9715 44.6976H15.0607C14.6881 44.6976 14.3848 44.3942 14.3848 44.0216V5.97822C14.3848 5.60557 14.6881 5.30225 15.0607 5.30225H17.9594C17.9781 6.28564 18.784 7.07998 19.7717 7.07998H30.2602C31.2482 7.07998 32.0541 6.28584 32.0727 5.30225H34.9713C35.3439 5.30225 35.6473 5.60557 35.6473 5.97822V44.0216H35.6475Z" fill="#3762CC"/>
<path d="M30.9674 29.5508H30.9498V27.118C30.9498 23.8451 28.2871 21.1826 25.0143 21.1826C21.7414 21.1826 19.0789 23.8451 19.0789 27.118V29.5508H19.0322C18.3668 29.5508 17.8252 30.0922 17.8252 30.7578V32.0506C17.8252 32.716 18.3666 33.2576 19.0322 33.2576H30.9672C31.6326 33.2576 32.1742 32.7162 32.1742 32.0506V30.7578C32.1742 30.0922 31.6328 29.5508 30.9674 29.5508ZM19.8604 27.118C19.8604 24.276 22.1725 21.9639 25.0145 21.9639C27.8566 21.9639 30.1687 24.276 30.1687 27.118V29.5508H19.8605L19.8604 27.118ZM31.393 32.0506C31.393 32.2854 31.202 32.4764 30.9672 32.4764H19.0322C18.7975 32.4764 18.6064 32.2854 18.6064 32.0506V30.7578C18.6064 30.523 18.7975 30.332 19.0322 30.332H30.9672C31.202 30.332 31.393 30.523 31.393 30.7578V32.0506Z" fill="#3762CC"/>
<path d="M41.8787 15.5776H41.3525C41.0828 15.5776 40.8643 15.3591 40.8643 15.0894C40.8643 14.8196 41.0828 14.6011 41.3525 14.6011H41.8787C42.1484 14.6011 42.367 14.8196 42.367 15.0894C42.367 15.3591 42.1484 15.5776 41.8787 15.5776ZM39.5947 15.5776H37.8369C37.5672 15.5776 37.3486 15.3591 37.3486 15.0894C37.3486 14.8196 37.5672 14.6011 37.8369 14.6011H39.5947C39.8645 14.6011 40.083 14.8196 40.083 15.0894C40.083 15.3591 39.8645 15.5776 39.5947 15.5776ZM36.0791 15.5776H34.3213C34.0516 15.5776 33.833 15.3591 33.833 15.0894C33.833 14.8196 34.0516 14.6011 34.3213 14.6011H36.0791C36.3488 14.6011 36.5674 14.8196 36.5674 15.0894C36.5674 15.3591 36.3488 15.5776 36.0791 15.5776ZM32.5635 15.5776H30.8057C30.5359 15.5776 30.3174 15.3591 30.3174 15.0894C30.3174 14.8196 30.5359 14.6011 30.8057 14.6011H32.5635C32.8332 14.6011 33.0518 14.8196 33.0518 15.0894C33.0518 15.3591 32.8332 15.5776 32.5635 15.5776Z" fill="#F9A7A7"/>
<path d="M39.5947 36.189H37.8369C37.5672 36.189 37.3486 35.9704 37.3486 35.7007C37.3486 35.431 37.5672 35.2124 37.8369 35.2124H39.5947C39.8645 35.2124 40.083 35.431 40.083 35.7007C40.083 35.9704 39.8645 36.189 39.5947 36.189ZM36.0791 36.189H34.3213C34.0516 36.189 33.833 35.9704 33.833 35.7007C33.833 35.431 34.0516 35.2124 34.3213 35.2124H36.0791C36.3488 35.2124 36.5674 35.431 36.5674 35.7007C36.5674 35.9704 36.3488 36.189 36.0791 36.189ZM32.5635 36.189H30.8057C30.5359 36.189 30.3174 35.9704 30.3174 35.7007C30.3174 35.431 30.5359 35.2124 30.8057 35.2124H32.5635C32.8332 35.2124 33.0518 35.431 33.0518 35.7007C33.0518 35.9704 32.8332 36.189 32.5635 36.189Z" fill="#F9A7A7"/>
<path d="M18.0215 36.189H17.4953C17.2256 36.189 17.007 35.9704 17.007 35.7007C17.007 35.431 17.2256 35.2124 17.4953 35.2124H18.0215C18.2912 35.2124 18.5098 35.431 18.5098 35.7007C18.5098 35.9704 18.2912 36.189 18.0215 36.189ZM15.7373 36.189H13.9795C13.7098 36.189 13.4912 35.9704 13.4912 35.7007C13.4912 35.431 13.7098 35.2124 13.9795 35.2124H15.7373C16.007 35.2124 16.2256 35.431 16.2256 35.7007C16.2256 35.9704 16.007 36.189 15.7373 36.189ZM12.2217 36.189H10.4639C10.1941 36.189 9.97559 35.9704 9.97559 35.7007C9.97559 35.431 10.1941 35.2124 10.4639 35.2124H12.2217C12.4914 35.2124 12.71 35.431 12.71 35.7007C12.71 35.9704 12.4914 36.189 12.2217 36.189ZM8.70605 36.189H6.94824C6.67852 36.189 6.45996 35.9704 6.45996 35.7007C6.45996 35.431 6.67852 35.2124 6.94824 35.2124H8.70605C8.97578 35.2124 9.19434 35.431 9.19434 35.7007C9.19434 35.9704 8.97578 36.189 8.70605 36.189Z" fill="#F9A7A7"/>
<path d="M18.0215 15.5776H17.4953C17.2256 15.5776 17.007 15.3591 17.007 15.0894C17.007 14.8196 17.2256 14.6011 17.4953 14.6011H18.0215C18.2912 14.6011 18.5098 14.8196 18.5098 15.0894C18.5098 15.3591 18.2912 15.5776 18.0215 15.5776ZM15.7373 15.5776H13.9795C13.7098 15.5776 13.4912 15.3591 13.4912 15.0894C13.4912 14.8196 13.7098 14.6011 13.9795 14.6011H15.7373C16.007 14.6011 16.2256 14.8196 16.2256 15.0894C16.2256 15.3591 16.007 15.5776 15.7373 15.5776ZM12.2217 15.5776H10.4639C10.1941 15.5776 9.97559 15.3591 9.97559 15.0894C9.97559 14.8196 10.1941 14.6011 10.4639 14.6011H12.2217C12.4914 14.6011 12.71 14.8196 12.71 15.0894C12.71 15.3591 12.4914 15.5776 12.2217 15.5776ZM8.70605 15.5776H6.94824C6.67852 15.5776 6.45996 15.3591 6.45996 15.0894C6.45996 14.8196 6.67852 14.6011 6.94824 14.6011H8.70605C8.97578 14.6011 9.19434 14.8196 9.19434 15.0894C9.19434 15.3591 8.97578 15.5776 8.70605 15.5776Z" fill="#F9A7A7"/>
<path d="M47.742 19.3887H42.4541C41.5398 19.3887 40.7988 18.6475 40.7988 17.7334V12.4453C40.7988 11.5311 41.54 10.79 42.4541 10.79H47.742C48.6562 10.79 49.3973 11.5313 49.3973 12.4453V17.7332C49.3975 18.6475 48.6562 19.3887 47.742 19.3887Z" fill="#A4C9FF"/>
<path d="M45.0975 17.7105C43.6523 17.7105 42.4766 16.5348 42.4766 15.0896C42.4766 13.6445 43.6523 12.4688 45.0975 12.4688C46.5426 12.4688 47.7184 13.6445 47.7184 15.0896C47.7184 16.5348 46.5426 17.7105 45.0975 17.7105Z" fill="#E0EBFC"/>
<path d="M47.9947 12.655C48.2297 12.655 48.4201 12.4645 48.4201 12.2296C48.4201 11.9947 48.2297 11.8042 47.9947 11.8042C47.7598 11.8042 47.5693 11.9947 47.5693 12.2296C47.5693 12.4645 47.7598 12.655 47.9947 12.655Z" fill="#E0EBFC"/>
<path d="M45.0975 17.1583C46.2402 17.1583 47.1666 16.2319 47.1666 15.0892C47.1666 13.9464 46.2402 13.02 45.0975 13.02C43.9547 13.02 43.0283 13.9464 43.0283 15.0892C43.0283 16.2319 43.9547 17.1583 45.0975 17.1583Z" fill="#A4C9FF"/>
<path d="M47.7422 10.3994H42.4543C41.3262 10.3994 40.4082 11.3172 40.4082 12.4455V17.7334C40.4082 18.8615 41.326 19.7795 42.4543 19.7795H47.7422C48.8703 19.7795 49.7883 18.8617 49.7883 17.7334V12.4455C49.7883 11.3172 48.8705 10.3994 47.7422 10.3994ZM49.007 17.7334C49.007 18.4307 48.4396 18.9982 47.7422 18.9982H42.4543C41.757 18.9982 41.1895 18.4309 41.1895 17.7334V12.4455C41.1895 11.7482 41.7568 11.1807 42.4543 11.1807H47.7422C48.4395 11.1807 49.007 11.748 49.007 12.4455V17.7334Z" fill="#3762CC"/>
<path d="M48.1428 41.1362H42.3156C41.623 41.1362 41.0615 40.5747 41.0615 39.8821V31.5192C41.0615 30.8267 41.623 30.2651 42.3156 30.2651H48.143C48.8355 30.2651 49.3971 30.8267 49.3971 31.5192V39.8821C49.3971 40.5747 48.8355 41.1362 48.1428 41.1362Z" fill="#A4C9FF"/>
<path d="M45.7602 34.0449C46.5838 34.0449 47.3922 33.9068 47.3922 34.7189C47.3922 35.517 46.5848 35.3812 45.7602 35.3812V39.0713C45.7602 39.6309 45.3689 39.9109 44.8732 39.9109C44.3777 39.9109 43.9744 39.6463 43.9744 39.0713V35.3812C43.4209 35.3812 42.709 35.4672 42.709 34.7189C42.709 33.9609 43.4143 34.0449 43.9744 34.0449C43.9744 33.2881 44.1832 32.6928 44.6012 32.259C45.2711 31.5639 46.134 31.5301 46.8482 31.4902C47.3922 31.4902 47.6643 31.6992 47.6643 32.1172C47.6643 32.5271 47.4355 32.752 46.9783 32.7912L46.6709 32.8148C45.8906 32.8721 45.7602 33.3232 45.7602 34.0449Z" fill="#E0EBFC"/>
<path d="M7.54473 19.3887H2.25684C1.34258 19.3887 0.601562 18.6475 0.601562 17.7334V12.4453C0.601562 11.5311 1.34277 10.79 2.25684 10.79H7.54473C8.45898 10.79 9.2 11.5313 9.2 12.4453V17.7332C9.2002 18.6475 8.45898 19.3887 7.54473 19.3887Z" fill="#A4C9FF"/>
<path d="M3.07422 13.4953V16.683C3.07422 17.1073 3.61719 17.3592 4.02031 17.1223L6.73105 15.5284C7.08809 15.3184 7.08809 14.86 6.73105 14.65L4.02031 13.0561C3.61738 12.8192 3.07422 13.0711 3.07422 13.4953Z" fill="#E0EBFC"/>
<path d="M48.143 29.8745H42.3156C41.4086 29.8745 40.6709 30.6122 40.6709 31.5192V39.8821C40.6709 40.7892 41.4086 41.5269 42.3156 41.5269H48.143C49.05 41.5269 49.7879 40.7892 49.7879 39.8821V31.5192C49.7879 30.6122 49.05 29.8745 48.143 29.8745ZM49.0066 39.8821C49.0066 40.3583 48.6193 40.7456 48.143 40.7456H42.3156C41.8395 40.7456 41.4521 40.3583 41.4521 39.8821V31.5192C41.4521 31.0431 41.8395 30.6558 42.3156 30.6558H48.143C48.6191 30.6558 49.0066 31.0431 49.0066 31.5192V39.8821Z" fill="#3762CC"/>
<path d="M7.54492 10.3994H2.25703C1.12891 10.3994 0.210938 11.3172 0.210938 12.4455V17.7334C0.210938 18.8615 1.12871 19.7795 2.25703 19.7795H7.54492C8.67305 19.7795 9.59102 18.8617 9.59102 17.7334V12.4455C9.59082 11.3172 8.67305 10.3994 7.54492 10.3994ZM8.80957 17.7334C8.80957 18.4307 8.24219 18.9982 7.54473 18.9982H2.25703C1.55977 18.9982 0.992188 18.4309 0.992188 17.7334V12.4455C0.992188 11.7482 1.55957 11.1807 2.25703 11.1807H7.54492C8.24219 11.1807 8.80977 11.748 8.80977 12.4455L8.80957 17.7334Z" fill="#3762CC"/>
<path d="M9.19453 35.8757C9.19453 33.6907 7.2709 31.9194 4.89805 31.9194C2.5252 31.9194 0.601562 33.6907 0.601562 35.8757C0.601562 37.4917 1.65449 38.8808 3.16289 39.4948L2.69004 40.6354C2.63203 40.7755 2.77227 40.9159 2.9123 40.8579L5.47637 39.7952C7.57559 39.5349 9.19453 37.88 9.19453 35.8757Z" fill="#E0EBFC"/>
<path d="M4.89824 36.5147C5.2514 36.5147 5.5377 36.2285 5.5377 35.8753C5.5377 35.5221 5.2514 35.2358 4.89824 35.2358C4.54508 35.2358 4.25879 35.5221 4.25879 35.8753C4.25879 36.2285 4.54508 36.5147 4.89824 36.5147Z" fill="#4671C6"/>
<path d="M2.99395 36.5147C3.34711 36.5147 3.6334 36.2285 3.6334 35.8753C3.6334 35.5221 3.34711 35.2358 2.99395 35.2358C2.64079 35.2358 2.35449 35.5221 2.35449 35.8753C2.35449 36.2285 2.64079 36.5147 2.99395 36.5147Z" fill="#4671C6"/>
<path d="M6.80254 36.5147C7.1557 36.5147 7.44199 36.2285 7.44199 35.8753C7.44199 35.5221 7.1557 35.2358 6.80254 35.2358C6.44938 35.2358 6.16309 35.5221 6.16309 35.8753C6.16309 36.2285 6.44938 36.5147 6.80254 36.5147Z" fill="#4671C6"/>
<path d="M4.89805 31.5288C2.31367 31.5288 0.210938 33.4788 0.210938 35.8757C0.210938 37.4763 1.15898 38.9374 2.65762 39.6937L2.3291 40.4856C2.24199 40.696 2.28945 40.936 2.45039 41.097C2.6082 41.2552 2.84707 41.3075 3.06191 41.2188L5.57793 40.1759C7.86621 39.8671 9.58516 38.0272 9.58516 35.8757C9.58516 33.4788 7.48242 31.5288 4.89805 31.5288ZM5.42832 39.4075C5.39336 39.4116 5.35918 39.4208 5.32676 39.4343L3.25488 40.2931L3.52383 39.6442C3.60645 39.4448 3.51172 39.2151 3.31016 39.1329C1.90195 38.5597 0.992187 37.2813 0.992187 35.8757C0.992187 33.9097 2.74434 32.3101 4.89805 32.3101C7.05176 32.3101 8.80391 33.9095 8.80391 35.8757C8.80391 37.6505 7.35254 39.1687 5.42832 39.4075Z" fill="#3762CC"/>
</svg>
