<svg width="1600" height="977" viewBox="0 0 1600 977" fill="none" xmlns="http://www.w3.org/2000/svg">
<mask id="mask0_599_3554" style="mask-type:luminance" maskUnits="userSpaceOnUse" x="0" y="0" width="1600" height="977">
<path d="M1600 0H0V977H1600V0Z" fill="white"/>
</mask>
<g mask="url(#mask0_599_3554)">
<mask id="mask1_599_3554" style="mask-type:alpha" maskUnits="userSpaceOnUse" x="0" y="0" width="1600" height="977">
<path d="M1600 0H0V977H1600V0Z" fill="#F5F6F8"/>
</mask>
<g mask="url(#mask1_599_3554)">
<g opacity="0.65">
<g opacity="0.7">
<path d="M1274.99 645.792C1261.2 687.559 1253.71 732.187 1253.71 778.575C1253.71 967.827 1378.04 1128.03 1549.53 1182.1" stroke="#D2D9DC" stroke-width="2" stroke-miterlimit="10"/>
<path d="M1854.51 435.616C1801.37 408.092 1741.01 392.529 1677 392.529C1526.25 392.529 1395.67 478.844 1332.03 604.725" stroke="#D2D9DC" stroke-width="2" stroke-miterlimit="10"/>
<path d="M1513.82 453.339C1394.75 513.13 1313.05 636.31 1313.05 778.575C1313.05 839.085 1327.82 896.135 1353.98 946.323" stroke="#D2D9DC" stroke-width="2" stroke-miterlimit="10"/>
<path d="M1775.41 482.984C1744.49 472.703 1711.41 467.142 1677.02 467.142C1537.78 467.142 1419.85 558.417 1379.92 684.378" stroke="#D2D9DC" stroke-width="2" stroke-miterlimit="10"/>
<path d="M1505.94 539.734C1431.58 593.023 1383.13 680.158 1383.13 778.574C1383.13 844.326 1404.74 905.016 1441.25 953.964" stroke="#D2D9DC" stroke-width="2" stroke-miterlimit="10"/>
<path d="M1399 778.574C1399 932.02 1523.47 1056.42 1677 1056.42" stroke="#D2D9DC" stroke-width="2" stroke-miterlimit="10"/>
<path d="M1917.1 659.354C1873.2 571.239 1782.18 510.709 1677.02 510.709C1632.87 510.709 1591.2 521.391 1554.47 540.294" stroke="#D2D9DC" stroke-width="2" stroke-miterlimit="10"/>
<path d="M1511.84 608.306C1467.37 651.413 1439.73 711.763 1439.73 778.575C1439.73 845.386 1467.67 906.396 1512.58 949.544" stroke="#D2D9DC" stroke-width="2" stroke-miterlimit="10"/>
<path d="M1677 575.62C1564.86 575.62 1473.93 666.476 1473.93 778.575" stroke="#D2D9DC" stroke-width="2" stroke-miterlimit="10"/>
<path d="M1523.93 664.835C1500.27 696.581 1486.26 735.947 1486.26 778.575C1486.26 842.985 1518.22 899.915 1567.14 934.421" stroke="#D2D9DC" stroke-width="2" stroke-miterlimit="10"/>
<path d="M1505.11 832.063C1527.91 905.296 1596.24 958.445 1677 958.445C1697.09 958.445 1716.41 955.164 1734.46 949.083" stroke="#D2D9DC" stroke-width="2" stroke-miterlimit="10"/>
<path d="M1803.97 657.114C1771.97 623.708 1726.92 602.905 1677 602.905C1627.08 602.905 1582.63 623.428 1550.69 656.414" stroke="#D2D9DC" stroke-width="2" stroke-miterlimit="10"/>
<path d="M1654.18 615.927C1574.24 627.029 1512.7 695.62 1512.7 778.574C1512.7 788.416 1513.56 798.078 1515.22 807.439" stroke="#D2D9DC" stroke-width="2" stroke-miterlimit="10"/>
<path d="M1541.28 705.042C1529.39 726.906 1522.65 751.95 1522.65 778.574C1522.65 839.245 1557.67 891.714 1608.63 916.918" stroke="#D2D9DC" stroke-width="2" stroke-miterlimit="10"/>
<path d="M1545.52 843.825C1569.54 892.094 1619.4 925.259 1677 925.259C1702.1 925.259 1725.74 918.958 1746.41 907.856" stroke="#D2D9DC" stroke-width="2" stroke-miterlimit="10"/>
<path d="M1639.17 651.253C1584.23 667.536 1544.14 718.364 1544.14 778.575C1544.14 794.217 1546.84 809.24 1551.83 823.182" stroke="#D2D9DC" stroke-width="2" stroke-miterlimit="10"/>
<path d="M1560.49 769.193C1560.25 772.293 1560.11 775.414 1560.11 778.574C1560.11 837.865 1604.33 886.853 1661.59 894.374" stroke="#D2D9DC" stroke-width="2" stroke-miterlimit="10"/>
<path d="M1631.33 682.878C1595.6 699.941 1570.92 736.387 1570.92 778.574C1570.92 797.438 1575.85 815.161 1584.49 830.503" stroke="#D2D9DC" stroke-width="2" stroke-miterlimit="10"/>
</g>
</g>
<g opacity="0.7">
<path opacity="0.5" d="M283.544 558.138C283.544 349.186 114.055 179.807 -94.9998 179.807" stroke="#D2D9DC" stroke-width="2" stroke-miterlimit="10"/>
<path d="M-421.578 724.679C-360.898 843.281 -237.443 924.478 -94.9999 924.478C-34.6922 924.478 22.2107 909.93 72.3779 884.132" stroke="#D2D9DC" stroke-width="2" stroke-miterlimit="10"/>
<path opacity="0.5" d="M134.217 789.188C193.707 730.237 230.552 648.49 230.552 558.138C230.552 467.787 194.109 386.946 135.199 328.069" stroke="#D2D9DC" stroke-width="2" stroke-miterlimit="10"/>
<path d="M-335.086 732.169C-281.187 806.323 -193.729 854.53 -95 854.53C-29.6518 854.53 30.775 833.398 79.7825 797.599" stroke="#D2D9DC" stroke-width="2" stroke-miterlimit="10"/>
<path d="M36.8713 303.356C-2.60526 282.908 -47.4495 271.347 -94.9998 271.347C-206.991 271.347 -303.995 335.47 -351.278 428.986" stroke="#D2D9DC" stroke-width="2" stroke-miterlimit="10"/>
<path opacity="0.5" d="M118.233 713.326C150.008 669.785 168.757 616.154 168.757 558.138C168.757 470.908 126.366 393.574 61.0479 345.59" stroke="#D2D9DC" stroke-width="2" stroke-miterlimit="10"/>
<path d="M-264.89 727.755C-221.429 771.237 -161.359 798.134 -94.9998 798.134C-28.6404 798.134 32.1431 770.91 75.6641 726.968" stroke="#D2D9DC" stroke-width="2" stroke-miterlimit="10"/>
<path d="M83.366 469.57C50.7587 404.11 -16.8645 359.142 -94.985 359.142C-127.786 359.142 -158.742 367.078 -186.027 381.121" stroke="#D2D9DC" stroke-width="2" stroke-miterlimit="10"/>
<path d="M-39.2866 732.511C34.5964 708.957 88.1091 639.796 88.1091 558.138C88.1091 538.225 84.9272 519.055 79.0392 501.104" stroke="#D2D9DC" stroke-width="2" stroke-miterlimit="10"/>
<path d="M-28.9826 690.158C19.4153 665.936 52.647 615.916 52.647 558.138C52.647 533.975 46.8333 511.179 36.5441 491.043" stroke="#D2D9DC" stroke-width="2" stroke-miterlimit="10"/>
<path d="M41.6589 582.495C43.0566 574.589 43.7852 566.445 43.7852 558.138C43.7852 488.398 -7.70538 430.695 -74.7487 420.887" stroke="#D2D9DC" stroke-width="2" stroke-miterlimit="10"/>
<path d="M-0.672363 467.906C-24.4475 443.089 -57.9172 427.634 -94.9999 427.634C-132.083 427.634 -165.106 442.881 -188.837 467.386" stroke="#D2D9DC" stroke-width="2" stroke-miterlimit="10"/>
<path d="M-134.789 678.79C-122.269 682.907 -108.887 685.136 -94.9998 685.136C-38.1267 685.136 10.0184 647.806 26.2402 596.315" stroke="#D2D9DC" stroke-width="2" stroke-miterlimit="10"/>
<path d="M-26.0683 655.088C4.23429 633.525 23.9949 598.143 23.9949 558.139C23.9949 531.895 15.49 507.643 1.08212 487.968" stroke="#D2D9DC" stroke-width="2" stroke-miterlimit="10"/>
<path d="M16.2632 558.138C16.2632 496.72 -33.5472 446.938 -94.9999 446.938" stroke="#D2D9DC" stroke-width="2" stroke-miterlimit="10"/>
</g>
</g>
</g>
</svg>
