<svg width="50" height="50" viewBox="0 0 50 50" fill="none" xmlns="http://www.w3.org/2000/svg">
<path opacity="0.984" fill-rule="evenodd" clip-rule="evenodd" d="M43.7991 3.17383C42.4694 4.11282 41.1672 5.08939 39.8928 6.10352C28.5321 6.08724 17.1714 6.10352 5.81079 6.15234C5.15838 6.34896 4.68638 6.75586 4.39478 7.37305C4.34595 15.4134 4.32967 23.4537 4.34595 31.4941C18.083 31.4941 31.8199 31.4941 45.5569 31.4941C32.0966 31.5755 18.6201 31.6243 5.1272 31.6406C3.95532 32.5195 2.78345 33.3984 1.61157 34.2773C17.2366 34.3262 32.8616 34.3425 48.4866 34.3262C48.4866 34.3587 48.4866 34.3913 48.4866 34.4238C32.7964 34.4238 17.1064 34.4238 1.41626 34.4238C1.39998 25.3092 1.41626 16.1946 1.46509 7.08008C2.01259 4.83995 3.42861 3.55414 5.71314 3.22266C18.4084 3.17383 31.1038 3.15755 43.7991 3.17383Z" fill="#455F89"/>
<path fill-rule="evenodd" clip-rule="evenodd" d="M43.7988 3.17383C46.249 3.41279 47.7952 4.71488 48.4375 7.08008C48.4863 16.162 48.5026 25.244 48.4863 34.3262C32.8613 34.3425 17.2363 34.3262 1.61133 34.2773C2.7832 33.3984 3.95508 32.5195 5.12695 31.6406C18.6198 31.6243 32.0964 31.5755 45.5566 31.4941C45.5729 23.4537 45.5566 15.4134 45.5078 7.37305C45.2062 6.71326 44.7017 6.30636 43.9941 6.15234C42.6273 6.10353 41.2602 6.08725 39.8926 6.10352C41.167 5.08938 42.4691 4.11282 43.7988 3.17383Z" fill="#34527D"/>
<path fill-rule="evenodd" clip-rule="evenodd" d="M39.8928 6.10352C41.2604 6.08725 42.6276 6.10353 43.9944 6.15235C44.7019 6.30636 45.2064 6.71326 45.5081 7.37305C45.5569 15.4134 45.5732 23.4537 45.5569 31.4941C31.8199 31.4941 18.083 31.4941 4.34595 31.4941C4.32967 23.4537 4.34595 15.4134 4.39478 7.37305C4.68638 6.75586 5.15838 6.34896 5.81079 6.15235C17.1714 6.10352 28.5321 6.08724 39.8928 6.10352Z" fill="#FEFEFE"/>
<path fill-rule="evenodd" clip-rule="evenodd" d="M7.27585 8.7402C7.83018 8.72398 8.38357 8.74026 8.936 8.78903C9.27689 8.96684 9.39083 9.24354 9.2778 9.61911C9.22897 9.79811 9.11504 9.91208 8.936 9.96091C8.38261 10.026 7.82924 10.026 7.27585 9.96091C6.88982 9.5542 6.88982 9.14729 7.27585 8.7402Z" fill="#CDD4DF"/>
<path fill-rule="evenodd" clip-rule="evenodd" d="M10.9865 8.74023C12.647 8.72396 14.3072 8.74024 15.967 8.78906C16.3373 8.98952 16.4512 9.29877 16.3088 9.71679C16.2275 9.79814 16.146 9.87959 16.0647 9.96093C14.372 10.0261 12.6792 10.0261 10.9865 9.96093C10.4706 9.55916 10.4706 9.15225 10.9865 8.74023Z" fill="#CDD4DF"/>
<path fill-rule="evenodd" clip-rule="evenodd" d="M23.2923 8.74019C24.474 8.69541 25.6459 8.74423 26.8079 8.88667C26.9252 8.97481 27.0067 9.08874 27.0521 9.22847C27.0738 9.89195 27.1715 10.543 27.345 11.1816C27.8003 11.3359 28.2398 11.5312 28.6634 11.7675C29.2305 11.3794 29.7839 10.9726 30.3235 10.5468C30.5649 10.4779 30.7928 10.5104 31.0071 10.6445C31.8409 11.3155 32.5734 12.0804 33.2044 12.9394C33.2695 13.1347 33.2695 13.33 33.2044 13.5253C32.7739 14.0285 32.367 14.5493 31.9837 15.0878C32.2603 15.5433 32.4556 16.0316 32.5696 16.5527C33.2927 16.5761 34.0089 16.6576 34.7181 16.7968C34.8354 16.885 34.9168 16.9989 34.9622 17.1386C35.0558 18.3199 35.0233 19.4918 34.8646 20.6543C34.7764 20.7715 34.6625 20.853 34.5228 20.8984C33.9072 20.9904 33.2887 21.0555 32.6673 21.0937C32.4395 21.582 32.2115 22.0703 31.9837 22.5586C32.3228 23.0572 32.6972 23.5293 33.1067 23.9746C33.2456 24.2216 33.2781 24.4821 33.2044 24.7558C32.5045 25.5859 31.7396 26.3508 30.9095 27.0507C30.6817 27.1159 30.4537 27.1159 30.2259 27.0507C29.7303 26.6321 29.2257 26.2253 28.7122 25.83C28.2239 26.0579 27.7357 26.2858 27.2474 26.5136C27.1647 27.1302 27.0996 27.7487 27.0521 28.3691C26.9754 28.5435 26.8615 28.69 26.7103 28.8086C25.5384 28.8737 24.3665 28.8737 23.1946 28.8086C23.1133 28.7272 23.0318 28.6458 22.9505 28.5644C22.8307 27.8648 22.7168 27.1649 22.6087 26.4648C22.1485 26.2952 21.6929 26.1162 21.2415 25.9277C20.673 26.229 20.1521 26.6033 19.679 27.0507C19.4512 27.1159 19.2233 27.1159 18.9954 27.0507C18.1653 26.3508 17.4004 25.5859 16.7005 24.7558C16.6268 24.4821 16.6593 24.2216 16.7982 23.9746C17.2077 23.5293 17.5821 23.0572 17.9212 22.5586C17.6934 22.0703 17.4654 21.582 17.2376 21.0937C16.5844 21.0502 15.9333 20.985 15.2845 20.8984C15.2031 20.817 15.1217 20.7356 15.0403 20.6543C14.8817 19.4918 14.8491 18.3199 14.9427 17.1386C14.9881 16.9989 15.0695 16.885 15.1868 16.7968C15.8925 16.6199 16.6086 16.5385 17.3353 16.5527C17.4618 16.0226 17.6571 15.5181 17.9212 15.039C17.526 14.5255 17.1192 14.021 16.7005 13.5253C16.6268 13.2516 16.6593 12.9912 16.7982 12.7441C17.4692 11.9103 18.2341 11.1779 19.0931 10.5468C19.3344 10.4779 19.5623 10.5104 19.7767 10.6445C20.2298 11.0662 20.7181 11.4405 21.2415 11.7675C21.65 11.5471 22.0732 11.3518 22.511 11.1816C22.7327 10.554 22.8467 9.90298 22.8528 9.22847C22.9529 9.0149 23.0994 8.85214 23.2923 8.74019Z" fill="#488AFE"/>
<path fill-rule="evenodd" clip-rule="evenodd" d="M7.37224 11.6699C9.03272 11.6536 10.6928 11.6699 12.3527 11.7188C12.8235 12.0704 12.856 12.461 12.4504 12.8906C10.7251 12.9558 8.99985 12.9558 7.27459 12.8906C6.8653 12.4473 6.89785 12.0403 7.37224 11.6699Z" fill="#CDD4DF"/>
<path fill-rule="evenodd" clip-rule="evenodd" d="M24.1691 13.7208C26.7513 13.5542 28.5905 14.6284 29.6867 16.9434C30.4689 19.6757 29.6713 21.808 27.2941 23.3399C24.6632 24.4027 22.466 23.8331 20.7023 21.6309C19.2763 18.9389 19.7158 16.6115 22.0207 14.6485C22.7018 14.2325 23.418 13.9232 24.1691 13.7208Z" fill="#166BFF"/>
<path fill-rule="evenodd" clip-rule="evenodd" d="M24.0737 15.2832C26.2841 15.0275 27.7327 15.9389 28.4194 18.0176C28.6982 20.3416 27.7054 21.7902 25.4409 22.3633C23.4006 22.4583 22.0822 21.5306 21.4858 19.5801C21.2034 17.4412 22.0661 16.0088 24.0737 15.2832Z" fill="#FEFEFE"/>
<path opacity="0.993" fill-rule="evenodd" clip-rule="evenodd" d="M1.41602 34.4238C17.1062 34.4238 32.7962 34.4238 48.4863 34.4238C48.371 36.8193 47.1666 38.3656 44.873 39.0625C39.6033 39.2069 34.3299 39.2558 29.0527 39.209C26.3509 39.209 23.6491 39.209 20.9473 39.209C15.605 39.2558 10.2665 39.2069 4.93164 39.0625C2.66508 38.3426 1.4932 36.7964 1.41602 34.4238Z" fill="#E4E7EE"/>
<path fill-rule="evenodd" clip-rule="evenodd" d="M24.462 35.6934C25.8415 35.6558 26.2809 36.2743 25.7804 37.5489C25.2269 37.9395 24.6736 37.9395 24.1202 37.5489C23.7175 36.8302 23.8314 36.2117 24.462 35.6934Z" fill="#CDD4DF"/>
<path fill-rule="evenodd" clip-rule="evenodd" d="M20.9473 39.209C23.6491 39.209 26.3509 39.209 29.0527 39.209C29.0798 39.735 29.1449 40.2558 29.248 40.7715C26.4002 40.8689 23.5356 40.9015 20.6543 40.8691C20.7625 40.3178 20.8602 39.7645 20.9473 39.209Z" fill="#CDD4DF"/>
<path opacity="0.979" fill-rule="evenodd" clip-rule="evenodd" d="M29.2481 40.7715C29.5937 41.9015 30.1797 42.8943 31.006 43.75C31.9203 44.4991 32.962 44.8247 34.131 44.7266C34.9368 45.0279 35.1483 45.565 34.7657 46.3379C34.6115 46.4884 34.4324 46.6023 34.2286 46.6797C28.0437 46.7448 21.8588 46.7448 15.6739 46.6797C14.9687 46.3164 14.806 45.7793 15.1856 45.0684C15.5644 44.7041 16.0038 44.6064 16.504 44.7754C17.8853 44.6223 18.9595 43.9712 19.7267 42.8223C20.1189 42.2009 20.4282 41.5498 20.6544 40.8691C23.5357 40.9015 26.4003 40.8689 29.2481 40.7715Z" fill="#E5E8EF"/>
</svg>
