<svg width="48" height="48" viewBox="0 0 48 48" fill="none" xmlns="http://www.w3.org/2000/svg">
<g clip-path="url(#clip0_12083_17463)">
<path fill-rule="evenodd" clip-rule="evenodd" d="M24 46.8C11.4 46.8 1.2 36.6 1.2 24C1.2 15.5 6 7.6 13.6 3.7L12.9 6.4C12.8 6.7 13 7 13.3 7.1C13.6 7.2 13.9 7 14 6.7L15 2.7C15.1 2.4 14.9 2.1 14.6 2L10.6 1C10.3 0.9 10 1.1 9.9 1.4C9.8 1.7 10 2 10.3 2.1L12.7 2.7C4.9 7 0 15.1 0 24C0 37.2 10.8 48 24 48C24.3 48 24.6 47.7 24.6 47.4C24.6 47.1 24.3 46.8 24 46.8ZM48 24C48 10.8 37.2 0 24 0C23.7 0 23.4 0.3 23.4 0.6C23.4 0.9 23.7 1.2 24 1.2C36.6 1.2 46.8 11.4 46.8 24C46.8 32.5 42 40.4 34.4 44.3L35.1 41.6C35.2 41.3 35 41 34.7 40.9C34.4 40.8 34.1 41 34 41.3L33 45.3C32.9 45.6 33.1 45.9 33.4 46L37.4 47.1C37.7 47.2 38 47 38.1 46.7C38.2 46.4 38 46.1 37.7 46L35.3 45.3C43.1 41 48 32.9 48 24Z" fill="#002548"/>
<path d="M38.4016 19.8C38.4016 20 38.4016 20.2 38.4016 20.4C38.2016 24.7 36.1016 28.6 32.9016 31.1C32.8016 31.2 32.7016 31.3 32.5016 31.4C31.6016 32.1 30.6016 32.6 29.6016 33.1C28.8016 33.4 28.0016 33.7 27.1016 33.9C26.1016 34.1 25.0016 34.2 24.0016 34.2C23.0016 34.2 21.9016 34.1 20.9016 33.9C20.1016 33.7 19.2016 33.4 18.4016 33.1C17.4016 32.7 16.4016 32.1 15.5016 31.4C15.4016 31.3 15.3016 31.2 15.1016 31.1C11.9016 28.6 9.80156 24.8 9.60156 20.4C9.60156 20.2 9.60156 20 9.60156 19.8C9.60156 19.6 9.60156 19.4 9.60156 19.2C9.80156 14.1 12.6016 9.8 16.7016 7.4C17.1016 7.2 17.5016 7 17.9016 6.8C18.8016 6.3 19.8016 6 20.9016 5.8C21.9016 5.6 23.0016 5.5 24.0016 5.5C25.0016 5.5 26.1016 5.6 27.1016 5.8C28.1016 6 29.1016 6.4 30.1016 6.8C30.5016 7 30.9016 7.2 31.3016 7.4C35.4016 9.8 38.2016 14.2 38.4016 19.2C38.4016 19.3 38.4016 19.6 38.4016 19.8Z" fill="#0054A6"/>
<path opacity="0.19" fill-rule="evenodd" clip-rule="evenodd" d="M38.4016 19.1H32.8016C32.7016 15 31.6016 11.2 29.8016 8.40005C30.3016 8.10005 30.7016 7.80005 31.1016 7.40005C31.1016 7.40005 31.2016 7.30005 31.2016 7.20005C30.8016 7.00005 30.4016 6.80005 30.0016 6.60005C29.7016 6.90005 29.3016 7.10005 29.0016 7.40005C28.4016 6.70005 27.8016 6.10005 27.1016 5.60005C26.1016 5.40005 25.0016 5.30005 24.0016 5.30005C23.0016 5.30005 21.9016 5.40005 20.9016 5.60005C20.2016 6.10005 19.6016 6.60005 19.0016 7.40005C18.6016 7.20005 18.3016 6.90005 18.0016 6.60005C17.6016 6.80005 17.2016 7.00005 16.8016 7.20005C16.8016 7.30005 16.9016 7.30005 16.9016 7.40005C17.3016 7.80005 17.8016 8.10005 18.2016 8.40005C16.4016 11.1 15.4016 15 15.2016 19.1H9.60156C9.60156 19.3 9.60156 19.5 9.60156 19.7C9.60156 19.9 9.60156 20.1 9.60156 20.3H15.2016C15.3016 22.3 15.5016 24.2 16.0016 25.9C16.4016 27.5 17.0016 28.9001 17.7016 30.2001C18.6016 31.8001 19.7016 33 20.9016 33.8C22.9016 35.1 25.1016 35.1 27.2016 33.8C28.4016 33 29.4016 31.8001 30.4016 30.2001C31.0016 29 31.6016 27.6 32.0016 26C32.5016 24.3 32.7016 22.4 32.8016 20.4H38.4016C38.4016 20.2 38.4016 20 38.4016 19.8C38.4016 19.6 38.4016 19.3 38.4016 19.1ZM24.6016 6.00005C25.8016 6.20005 26.9016 6.90005 27.9016 8.00005C26.9016 8.50005 25.7016 8.80005 24.6016 8.80005V6.00005ZM24.6016 10.1C26.0016 10 27.4016 9.60005 28.7016 9.00005C30.4016 11.5 31.4016 15.2 31.5016 19.1H24.6016V10.1ZM23.4016 6.00005V8.90005C22.3016 8.80005 21.1016 8.50005 20.1016 8.10005C21.0016 6.90005 22.2016 6.20005 23.4016 6.00005ZM19.3016 9.10005C20.6016 9.70005 22.0016 10.1 23.4016 10.2V19.2H16.5016C16.6016 15.3 17.6016 11.6 19.3016 9.10005ZM18.8016 29.7001C18.1016 28.5 17.5016 27 17.1016 25.3C16.7016 23.8 16.5016 22.2 16.5016 20.4H23.4016V33.5C21.6016 33.2001 20.0016 31.8001 18.8016 29.7001ZM29.2016 29.7001C28.0016 31.9001 26.4016 33.3 24.6016 33.5V20.4H31.5016C31.5016 22.1 31.2016 23.8 30.9016 25.3C30.5016 26.9 29.9016 28.4001 29.2016 29.7001Z" fill="#F9FAFB"/>
<path fill-rule="evenodd" clip-rule="evenodd" d="M23.9969 40.5999C33.3969 36.9999 36.5969 24.8999 28.6969 24.8999C26.7969 24.8999 24.9969 25.8999 23.9969 27.5999C22.9969 25.9999 21.1969 24.8999 19.2969 24.8999C11.3969 24.8999 14.5969 36.9999 23.9969 40.5999Z" fill="#ED1C24"/>
<path fill-rule="evenodd" clip-rule="evenodd" d="M6.29688 30.3999C8.79688 37.7999 16.3969 42.0999 23.9969 40.5999C26.4969 33.2999 34.0969 28.8999 41.6969 30.3999C39.1969 37.7999 31.5969 42.0999 23.9969 40.5999C21.4969 33.2999 13.8969 28.8999 6.29688 30.3999Z" fill="#54CC5A"/>
</g>
<defs>
<clipPath id="clip0_12083_17463">
<rect width="48" height="48" fill="white"/>
</clipPath>
</defs>
</svg>
