<svg width="40" height="40" viewBox="0 0 40 40" fill="none" xmlns="http://www.w3.org/2000/svg">
<g clip-path="url(#clip0_11903_50889)">
<path d="M24.4 36.9999C24 36.4999 23.3 36.2999 22.7 36.6999C22.2 37.0999 21.7 37.2999 21.1 37.3999V24.9999H18.7V37.3999C15.4 36.5999 15.2 33.6999 14.5 30.4999C13.7 27.1999 10.9 24.8999 7.5 24.8999H0V27.2999H5.3V36.1999H7.7V27.2999C9.9 27.2999 11.8 28.8999 12.3 30.9999C12.9 33.4999 13.6 39.7999 20.1 39.7999C21.6 39.7999 23 39.2999 24.3 38.4999C24.7 38.2999 24.8 37.5999 24.4 36.9999Z" fill="#0054A6"/>
<path d="M32.4035 25.1001C31.2035 25.1001 30.0035 25.4001 28.9035 26.0001C28.3035 26.3001 28.1035 27.0001 28.4035 27.6001C28.7035 28.2001 29.4035 28.4001 30.0035 28.1001C30.7035 27.7001 31.4035 27.5001 32.2035 27.5001V36.4001H34.6035V27.5001H40.0035V25.1001H32.4035Z" fill="#0054A6"/>
<path d="M32.4035 35.6C30.1035 35.6 28.2035 34.1 27.7035 31.9C27.2035 29.4 26.5035 23 20.0035 23C18.6035 23 17.3035 23.4 16.1035 24.2C15.6035 24.6 15.4035 25.3 15.7035 25.8C16.1035 26.3 16.8035 26.5 17.3035 26.2C18.1035 25.7 19.0035 25.4 19.9035 25.4C24.3035 25.4 24.7035 29.7 25.4035 32.4C26.2035 35.7 29.0035 38 32.4035 38H40.0035V35.6H32.4035Z" fill="#ED1C24"/>
<path d="M12 35.0001C11.6 34.5001 10.9 34.3001 10.3 34.7001C9.5 35.3001 8.5 35.6001 7.5 35.6001H0V38.0001H7.5C9 38.0001 10.4 37.5001 11.7 36.7001C12.2 36.3001 12.4 35.5001 12 35.0001Z" fill="#ED1C24"/>
<path d="M19.9969 0C14.6969 0 10.2969 4.3 10.2969 9.7C10.2969 14.3 13.4969 18.2 17.7969 19.2C19.1969 21.7 18.6969 20.8 19.9969 22.9C21.1969 20.8 20.6969 21.6 22.1969 19.2C26.5969 18.2 29.7969 14.3 29.6969 9.7C29.6969 4.3 25.3969 0 19.9969 0Z" fill="#002548"/>
<path d="M26.2953 9.6999C26.2953 11.6999 25.3953 13.3999 23.9953 14.5999C22.8953 15.4999 21.4953 15.9999 19.9953 15.9999C18.4953 15.9999 17.0953 15.4999 15.9953 14.5999C14.5953 13.3999 13.6953 11.6999 13.6953 9.6999C13.6953 6.1999 16.4953 3.3999 19.9953 3.3999C23.4953 3.3999 26.2953 6.1999 26.2953 9.6999Z" fill="#D2D9DC"/>
<path d="M24 14.1998V14.5998C22.9 15.4998 21.5 15.9998 20 15.9998C18.5 15.9998 17.1 15.4998 16 14.5998V14.1998C16 12.3998 17.4 10.9998 19.2 10.9998H20.7C22.5 10.8998 24 12.3998 24 14.1998Z" fill="#54CC5A"/>
<path d="M21.7953 8.6002V9.2002C21.7953 9.5002 21.6953 9.7002 21.5953 10.0002C21.2953 10.7002 20.5953 11.1002 19.6953 11.0002C19.0953 10.9002 18.6953 10.5002 18.3953 10.0002C18.2953 9.7002 18.1953 9.4002 18.1953 9.1002V8.5002C18.1953 8.2002 18.2953 8.0002 18.3953 7.7002H21.5953C21.6953 8.0002 21.7953 8.3002 21.7953 8.6002Z" fill="#FFB69F"/>
<path d="M21.7953 8.59978V9.19978C21.7953 9.49978 21.6953 9.69978 21.5953 9.99978H18.3953C18.2953 9.69978 18.1953 9.39978 18.1953 9.09978V8.49978C18.1953 8.19978 18.2953 7.99978 18.3953 7.69978C18.6953 6.99978 19.3953 6.59978 20.2953 6.69978C20.8953 6.79978 21.2953 7.19978 21.5953 7.69978C21.6953 7.99978 21.7953 8.29978 21.7953 8.59978Z" fill="#FFB69F"/>
</g>
<defs>
<clipPath id="clip0_11903_50889">
<rect width="40" height="40" fill="white"/>
</clipPath>
</defs>
</svg>
