<svg width="538" height="452" viewBox="0 0 538 452" fill="none" xmlns="http://www.w3.org/2000/svg">
<path d="M525.565 312.508C523.035 312.236 520.757 314.091 520.478 316.649C520.199 319.208 522.024 321.505 524.554 321.777C527.084 322.049 529.36 320.193 529.639 317.633C529.917 315.077 528.094 312.781 525.565 312.508Z" fill="#0054A6"/>
<path d="M537.572 318.488C536.808 325.483 530.588 330.55 523.678 329.806C522.528 329.683 521.433 329.404 520.408 328.999C519.369 328.586 518.402 328.04 517.53 327.38C514.074 324.783 512.038 320.451 512.545 315.796C513.307 308.803 519.53 303.738 526.442 304.482C533.353 305.226 538.335 311.495 537.572 318.488ZM524.554 321.777C527.084 322.049 529.36 320.193 529.639 317.633C529.919 315.077 528.095 312.779 525.565 312.508C523.035 312.236 520.757 314.091 520.479 316.649C520.199 319.208 522.024 321.505 524.554 321.777Z" fill="#0092F1"/>
<path d="M211.319 58.6015C211.131 59.1634 211.42 59.7722 211.974 59.9689L213.113 60.3783C213.437 60.4933 213.604 60.8519 213.49 61.1797L213.371 61.5155C213.217 61.953 213.441 62.4346 213.874 62.5885L215.757 63.2628C218.138 64.1137 220.758 62.8481 221.611 60.4371C222.462 58.0249 221.222 55.3798 218.84 54.5289L216.959 53.8546C216.527 53.7007 216.051 53.9295 215.896 54.367L215.777 54.7028C215.662 55.0306 215.307 55.2018 214.983 55.0868L213.845 54.6774C213.285 54.4767 212.67 54.7751 212.472 55.3397L212.463 55.3651L211.325 58.5814C211.321 58.5895 211.321 58.5962 211.319 58.6015Z" fill="#0092F1"/>
<path d="M244.064 68.4721C243.21 70.8843 244.45 73.5294 246.832 74.3817L248.713 75.056C249.148 75.2098 249.621 74.9797 249.778 74.5409L249.896 74.2051C250.012 73.8799 250.368 73.706 250.689 73.8224L251.83 74.2291C252.381 74.4258 252.99 74.1408 253.195 73.5856C253.2 73.5802 253.2 73.5735 253.203 73.5669L254.339 70.3518L254.348 70.3251C254.546 69.7605 254.256 69.1384 253.699 68.939L252.558 68.5323C252.237 68.4159 252.067 68.0573 252.183 67.7295L252.301 67.395C252.455 66.9549 252.232 66.4759 251.799 66.3194L249.916 65.6477C247.536 64.7955 244.915 66.0598 244.064 68.4721Z" fill="#0092F1"/>
<path d="M168.908 111.647C169.477 111.603 170.066 111.675 170.639 111.881C171.205 112.082 171.702 112.393 172.113 112.785C176.208 101.536 186.732 74.6011 197.664 62.5344C201.152 58.6825 206.436 57.1868 211.319 58.605C211.322 58.5983 211.323 58.5929 211.326 58.5862L212.463 55.3699C206.292 53.4954 199.584 55.3551 195.173 60.2278C183.683 72.906 173.044 100.216 168.908 111.647Z" fill="#0054A6"/>
<path d="M253.204 73.5666C253.201 73.5733 253.2 73.5786 253.196 73.5853C257.872 75.5882 261.031 80.105 261.323 85.3082C262.232 101.609 253.498 129.183 249.617 140.511C250.179 140.471 250.761 140.543 251.327 140.746C251.898 140.95 252.401 141.267 252.815 141.664C256.779 130.173 265.66 102.232 264.705 85.1008C264.336 78.5182 260.302 72.8147 254.341 70.3516L253.204 73.5666Z" fill="#0054A6"/>
<path d="M80.9195 269.448C77.2924 281.868 81.7557 294.817 93.4826 305.909C93.5227 305.948 93.5682 305.985 93.6137 306.02C100.528 311.337 107.98 314.827 116.39 316.688C123.875 318.342 131.958 318.661 141.103 317.657C157.978 315.805 175.481 309.821 194.013 303.485C226.587 292.349 260.27 280.834 291.206 292.752C291.238 292.764 291.271 292.774 291.302 292.785C306.908 297.723 322.654 310.626 337.879 323.105C348.886 332.124 359.281 340.643 369.621 346.36C381.312 352.822 395.063 357.819 409.39 360.808C414.448 361.862 419.585 362.669 424.726 363.223C434.056 364.226 443.394 364.395 452.321 363.696C467.001 362.55 480.209 359.204 491.584 353.749C503.922 347.831 513.547 339.663 520.194 329.472C520.291 329.324 520.361 329.163 520.409 329C519.371 328.587 518.404 328.041 517.531 327.381C517.474 327.445 517.419 327.518 517.368 327.594C505.147 346.338 481.96 357.947 452.076 360.282C424.538 362.435 394.325 356.106 371.26 343.355C361.187 337.786 350.907 329.361 340.021 320.441C324.564 307.774 308.58 294.676 292.378 289.531C260.32 277.205 226.068 288.917 192.941 300.243C157.898 312.221 124.746 323.557 97.9405 304.947C96.5023 303.947 95.1563 302.818 93.9401 301.554C84.5881 291.831 81.1188 280.852 84.1693 270.407C88.0412 257.146 101.766 246.79 119.988 243.377C121.576 243.08 123.156 242.794 124.829 242.491C136.416 240.392 149.548 238.013 160.706 232.302C172.663 226.181 180.735 217.1 185.301 204.603C184.995 204.639 184.685 204.642 184.37 204.608C184.048 204.573 183.724 204.5 183.407 204.386C182.899 204.204 182.445 203.934 182.06 203.597C172.131 230.443 146.743 235.043 124.244 239.118C122.641 239.409 120.982 239.709 119.385 240.01C99.8912 243.657 85.154 254.937 80.9195 269.448Z" fill="#0054A6"/>
<path d="M162.659 121.765C158.421 133.76 159.049 146.684 164.425 158.161C169.195 168.338 177.194 176.297 187.202 180.921L180.843 198.92C180.237 200.634 180.773 202.478 182.058 203.596C182.443 203.933 182.896 204.204 183.405 204.386C183.722 204.499 184.047 204.573 184.368 204.608C184.681 204.641 184.993 204.639 185.299 204.602C186.857 204.419 188.255 203.368 188.817 201.773L195.176 183.774C197.402 184.352 199.65 184.761 201.906 185.003C210.464 185.924 219.138 184.437 227.119 180.588C238.488 175.103 247.082 165.476 251.319 153.483L253.889 146.209C254.471 144.559 253.996 142.79 252.816 141.664C252.401 141.267 251.9 140.949 251.328 140.746C250.763 140.543 250.182 140.469 249.619 140.511C247.989 140.631 246.501 141.703 245.917 143.356L243.346 150.631C239.872 160.466 232.822 168.362 223.498 172.859C214.176 177.358 203.69 177.922 193.98 174.447C173.934 167.276 163.461 144.919 170.633 124.615L173.203 117.341C173.788 115.684 173.305 113.906 172.114 112.781C171.703 112.39 171.207 112.078 170.641 111.876C170.067 111.67 169.48 111.598 168.91 111.642C167.288 111.768 165.811 112.837 165.227 114.487L162.659 121.765Z" fill="#0092F1"/>
<path d="M251.021 444.663C160.622 444.663 156.392 268.391 156.392 268.391C188.542 260.186 204.844 228.435 204.844 228.435C204.844 228.435 223.183 224.177 251.023 224.177C278.862 224.177 297.2 228.435 297.2 228.435C297.2 228.435 313.502 260.186 345.653 268.391C345.653 268.391 341.421 444.663 251.021 444.663Z" fill="white"/>
<path d="M251.021 432.493C242.333 432.493 234.223 430.461 226.911 426.451C220.038 422.682 213.577 417.032 207.711 409.656C197.13 396.359 188.347 377.475 181.605 353.529C175.429 331.595 172.21 309.561 170.598 294.939C169.793 287.638 169.302 281.422 169.013 277.022C192.282 267.604 206.739 248.393 212.519 239.358C219.719 238.143 233.364 236.345 251.022 236.345C268.68 236.345 282.327 238.144 289.525 239.359C295.306 248.395 309.765 267.607 333.031 277.023C332.741 281.423 332.25 287.639 331.446 294.94C329.833 309.562 326.616 331.597 320.439 353.531C313.695 377.477 304.912 396.36 294.333 409.658C288.465 417.032 282.005 422.684 275.133 426.453C267.818 430.461 259.706 432.493 251.021 432.493Z" fill="#0092F1"/>
<path d="M310.882 304.357H268.193V261.098H234.089V304.357H191.4V338.915H234.089V382.174H268.193V338.915H310.882V304.357Z" fill="white"/>
<path d="M363.125 173.301C363.125 173.301 361.409 209.223 312.675 227.129L307.75 224.814L308.864 222.647C308.867 222.644 308.867 222.644 308.867 222.644L346.457 154.476C351.112 156.243 355.801 158.523 360.209 161.461C360.209 161.461 357.119 168.327 363.125 173.301Z" fill="#0054A6"/>
<path d="M307.736 146.087C307.736 146.087 334.645 145.379 355.284 159.148C355.284 159.148 352.195 166.012 358.201 170.989C358.201 170.989 356.484 206.91 307.749 224.814C307.749 224.814 279.264 197.244 295.565 152.798C295.565 152.798 304.304 154.839 307.736 146.087Z" fill="#0092F1"/>
<path d="M340.519 181.895L327.884 178.312L331.468 165.677L320.831 162.66L317.248 175.295L304.614 171.713L301.597 182.349L314.231 185.932L310.648 198.567L321.284 201.584L324.868 188.949L337.502 192.532L340.519 181.895Z" fill="white"/>
<path d="M534.641 443.872H55.9463V451.356H534.641V443.872Z" fill="#293F60"/>
<path d="M163.164 355.199C147.621 343.873 110.496 369.707 171.495 402.448C217.617 350.818 173.895 339.239 163.164 355.199Z" fill="#FC4B59"/>
<path d="M143.861 381.743C147.185 381.023 150.513 380.341 153.845 379.669L153.64 379.804C155.152 377.158 156.709 374.541 158.288 371.937L158.988 370.784L159.558 372.06C160.5 374.17 161.45 376.276 162.35 378.401C163.275 380.518 164.162 382.649 165.041 384.784L163.193 384.739C164.505 381.839 165.884 378.97 167.24 376.09C168.612 373.218 170.004 370.356 171.42 367.504L172.089 366.156L172.861 367.402C174.591 370.193 176.313 372.988 178.005 375.803L177.435 375.555C179.565 375.233 181.707 374.973 183.844 374.68C185.98 374.39 188.118 374.107 190.263 373.864C188.165 374.37 186.059 374.835 183.952 375.294C181.845 375.749 179.743 376.237 177.632 376.664L177.284 376.735L177.062 376.417C175.178 373.726 173.324 371.016 171.479 368.301L172.92 368.201C171.649 371.12 170.354 374.027 169.037 376.925C167.706 379.816 166.397 382.717 165.023 385.588L164.028 387.666L163.176 385.541C162.315 383.399 161.466 381.252 160.651 379.091C159.813 376.94 159.025 374.768 158.228 372.6L159.496 372.721C157.748 375.213 155.978 377.692 154.162 380.14L154.075 380.258L153.957 380.275C150.592 380.784 147.23 381.281 143.861 381.743Z" fill="white"/>
<path d="M93.4069 226.661C108.293 226.661 120.361 214.594 120.361 199.708C120.361 184.822 108.293 172.754 93.4069 172.754C78.5207 172.754 66.4531 184.822 66.4531 199.708C66.4531 214.594 78.5207 226.661 93.4069 226.661Z" fill="#FC4B59"/>
<path d="M111.061 205.074V194.016H77.8868V205.074H111.061Z" fill="white"/>
<path d="M100.002 182.958H88.9443V216.132H100.002V182.958Z" fill="white"/>
<path d="M421.663 298.074V306.939C421.663 310.435 419.752 313.484 416.918 315.098C416.009 315.617 415.004 315.989 413.936 316.177C413.398 316.275 412.843 316.325 412.277 316.325H321.133C320.683 316.325 320.243 316.294 319.811 316.232C318.748 316.084 317.744 315.756 316.828 315.281C313.809 313.724 311.747 310.573 311.747 306.939V298.074C311.747 294.442 313.809 291.292 316.828 289.732C317.744 289.257 318.748 288.929 319.811 288.781C320.243 288.719 320.683 288.688 321.133 288.688H412.277C412.843 288.688 413.398 288.738 413.936 288.836C415.004 289.024 416.009 289.396 416.918 289.915C419.751 291.53 421.663 294.579 421.663 298.074Z" fill="#0054A6"/>
<path d="M392.297 447.985H341.112C324.894 447.985 311.746 434.837 311.746 418.619V326.74C311.746 320.988 316.409 316.324 322.162 316.324H411.247C416.999 316.324 421.663 320.987 421.663 326.74V418.619C421.663 434.837 408.515 447.985 392.297 447.985Z" fill="#293F60"/>
<path d="M416.579 331.913V415.111C416.579 429.905 404.588 441.898 389.794 441.898H343.613C328.82 441.898 316.828 429.905 316.828 415.111V331.913C316.828 326.667 321.083 322.412 326.329 322.412H407.08C412.326 322.412 416.579 326.665 416.579 331.913Z" fill="#E3FBFF"/>
<path d="M319.81 290.233V314.78C318.748 314.646 317.743 314.355 316.828 313.929V291.084C317.743 290.659 318.748 290.366 319.81 290.233Z" fill="#0054A6"/>
<path d="M330.6 290.151H327.618V314.864H330.6V290.151Z" fill="#0054A6"/>
<path d="M341.389 290.151H338.407V314.864H341.389V290.151Z" fill="#0054A6"/>
<path d="M352.18 290.151H349.198V314.864H352.18V290.151Z" fill="#0054A6"/>
<path d="M362.969 290.151H359.986V314.864H362.969V290.151Z" fill="#0054A6"/>
<path d="M373.76 290.151H370.777V314.864H373.76V290.151Z" fill="#0054A6"/>
<path d="M384.548 290.151H381.567V314.864H384.548V290.151Z" fill="#0054A6"/>
<path d="M395.339 290.151H392.356V314.864H395.339V290.151Z" fill="#0054A6"/>
<path d="M406.128 290.151H403.146V314.864H406.128V290.151Z" fill="#0054A6"/>
<path d="M416.919 291.247V313.764C416.009 314.229 415.004 314.562 413.937 314.73V290.281C415.004 290.45 416.008 290.783 416.919 291.247Z" fill="#0054A6"/>
<path d="M327.95 413.815L340.647 426.511C342.745 428.609 342.745 432.013 340.647 434.111C338.548 436.21 335.146 436.21 333.046 434.112L320.35 421.415C318.252 419.317 318.252 415.914 320.351 413.815C321.4 412.766 322.775 412.24 324.151 412.241C325.526 412.24 326.901 412.764 327.95 413.815Z" fill="white"/>
<path d="M334.223 420.085L340.649 426.511C342.747 428.609 342.747 432.013 340.649 434.11C338.55 436.21 335.147 436.21 333.048 434.112L326.622 427.686C326.974 426.266 327.706 424.922 328.815 423.811L330.348 422.278C331.459 421.169 332.803 420.437 334.223 420.085Z" fill="#0054A6"/>
<path d="M348.465 427.936L366.421 427.829C369.389 427.812 371.809 430.203 371.827 433.17C371.844 436.139 369.453 438.559 366.486 438.577L348.529 438.684C345.562 438.701 343.142 436.31 343.124 433.341C343.115 431.858 343.709 430.51 344.676 429.532C345.641 428.554 346.981 427.946 348.465 427.936Z" fill="white"/>
<path d="M357.334 427.885L366.421 427.831C369.389 427.814 371.809 430.205 371.826 433.172C371.844 436.141 369.453 438.561 366.485 438.579L357.398 438.632C356.636 437.384 356.193 435.919 356.183 434.349L356.17 432.182C356.161 430.613 356.586 429.142 357.334 427.885Z" fill="#0054A6"/>
<path d="M378.67 428.245L396.626 428.138C399.594 428.12 402.014 430.511 402.032 433.479C402.049 436.448 399.658 438.868 396.691 438.885L378.734 438.992C375.767 439.01 373.347 436.619 373.329 433.65C373.32 432.166 373.914 430.819 374.881 429.841C375.846 428.863 377.186 428.253 378.67 428.245Z" fill="white"/>
<path d="M387.538 428.191L396.625 428.138C399.593 428.12 402.013 430.511 402.031 433.479C402.048 436.448 399.657 438.868 396.69 438.885L387.602 438.939C386.84 437.691 386.397 436.226 386.388 434.656L386.374 432.489C386.365 430.919 386.79 429.449 387.538 428.191Z" fill="#0054A6"/>
<path d="M373.788 413.674L391.615 415.829C394.561 416.185 396.66 418.863 396.304 421.808C395.948 424.756 393.27 426.855 390.324 426.499L372.497 424.343C369.551 423.988 367.452 421.309 367.808 418.363C367.986 416.89 368.744 415.628 369.827 414.78C370.909 413.93 372.315 413.494 373.788 413.674Z" fill="white"/>
<path d="M382.593 414.737L391.615 415.828C394.561 416.184 396.66 418.862 396.304 421.807C395.949 424.754 393.27 426.854 390.324 426.498L381.302 425.407C380.703 424.072 380.449 422.563 380.637 421.005L380.898 418.853C381.087 417.295 381.694 415.891 382.593 414.737Z" fill="#0054A6"/>
<path d="M334.36 390.596L338.489 408.071C339.171 410.959 337.382 413.853 334.495 414.535C331.606 415.218 328.711 413.43 328.029 410.542L323.9 393.067C323.218 390.179 325.007 387.285 327.895 386.602C329.339 386.261 330.785 386.537 331.954 387.261C333.124 387.982 334.019 389.151 334.36 390.596Z" fill="white"/>
<path d="M336.399 399.227L338.489 408.07C339.171 410.959 337.383 413.853 334.495 414.535C331.607 415.218 328.712 413.43 328.029 410.542L325.939 401.698C326.986 400.676 328.314 399.916 329.841 399.555L331.951 399.056C333.477 398.696 335.007 398.78 336.399 399.227Z" fill="#0054A6"/>
<path d="M412.745 405.856L409.262 423.471C408.687 426.382 405.86 428.276 402.949 427.7C400.036 427.125 398.143 424.298 398.718 421.387L402.201 403.772C402.776 400.86 405.603 398.967 408.516 399.542C409.971 399.83 411.173 400.681 411.938 401.824C412.703 402.965 413.033 404.4 412.745 405.856Z" fill="white"/>
<path d="M411.026 414.557L409.264 423.471C408.689 426.383 405.862 428.276 402.951 427.701C400.038 427.125 398.145 424.298 398.72 421.387L400.482 412.472C401.858 411.975 403.381 411.834 404.921 412.138L407.049 412.558C408.587 412.863 409.943 413.573 411.026 414.557Z" fill="#0054A6"/>
<path d="M357.961 381.53L345.813 394.752C343.805 396.937 340.407 397.082 338.22 395.075C336.034 393.066 335.89 389.667 337.898 387.482L350.046 374.259C352.055 372.074 355.453 371.93 357.64 373.938C358.733 374.942 359.315 376.294 359.373 377.668C359.432 379.041 358.966 380.436 357.961 381.53Z" fill="white"/>
<path d="M351.963 388.06L345.815 394.753C343.807 396.937 340.409 397.082 338.222 395.075C336.036 393.067 335.892 389.667 337.9 387.482L344.048 380.79C345.482 381.082 346.856 381.756 348.011 382.817L349.607 384.283C350.763 385.343 351.551 386.655 351.963 388.06Z" fill="#0054A6"/>
<path d="M395.404 398.36L382.181 386.212C379.997 384.203 379.852 380.805 381.859 378.619C383.867 376.433 387.267 376.288 389.452 378.296L402.674 390.445C404.859 392.453 405.004 395.851 402.995 398.039C401.992 399.132 400.639 399.714 399.265 399.771C397.893 399.829 396.497 399.363 395.404 398.36Z" fill="white"/>
<path d="M388.874 392.359L382.181 386.212C379.997 384.203 379.852 380.805 381.859 378.619C383.867 376.433 387.267 376.288 389.452 378.296L396.144 384.444C395.852 385.878 395.179 387.252 394.117 388.407L392.651 390.003C391.59 391.159 390.277 391.947 388.874 392.359Z" fill="#0054A6"/>
<path d="M376.843 399.789L359.447 395.338C356.572 394.602 354.838 391.675 355.573 388.8C356.309 385.923 359.236 384.189 362.111 384.925L379.507 389.376C382.382 390.112 384.116 393.039 383.38 395.915C383.012 397.352 382.097 398.505 380.913 399.205C379.73 399.907 378.28 400.156 376.843 399.789Z" fill="white"/>
<path d="M368.251 397.59L359.447 395.338C356.572 394.602 354.838 391.675 355.573 388.8C356.309 385.923 359.236 384.189 362.111 384.925L370.915 387.177C371.335 388.577 371.392 390.107 371.003 391.628L370.465 393.728C370.077 395.25 369.293 396.564 368.251 397.59Z" fill="#0054A6"/>
<path d="M351.63 402.536L349.385 420.352C349.014 423.297 346.326 425.382 343.382 425.012C340.436 424.641 338.35 421.953 338.72 419.009L340.965 401.193C341.336 398.248 344.024 396.162 346.97 396.533C348.442 396.719 349.701 397.483 350.542 398.569C351.386 399.656 351.815 401.064 351.63 402.536Z" fill="white"/>
<path d="M350.521 411.336L349.385 420.352C349.014 423.297 346.326 425.383 343.382 425.012C340.436 424.642 338.35 421.954 338.72 419.009L339.856 409.993C341.194 409.4 342.705 409.154 344.261 409.349L346.412 409.621C347.969 409.817 349.372 410.43 350.521 411.336Z" fill="#0054A6"/>
<path d="M354.585 421.542L353.443 403.622C353.254 400.66 355.502 398.106 358.463 397.917C361.425 397.729 363.98 399.976 364.169 402.937L365.311 420.857C365.5 423.819 363.252 426.374 360.29 426.562C358.809 426.657 357.43 426.142 356.398 425.234C355.365 424.327 354.68 423.023 354.585 421.542Z" fill="white"/>
<path d="M354.021 412.693L353.443 403.624C353.254 400.662 355.502 398.108 358.463 397.919C361.425 397.731 363.98 399.978 364.169 402.939L364.747 412.008C363.544 412.841 362.107 413.367 360.542 413.467L358.378 413.605C356.812 413.705 355.32 413.366 354.021 412.693Z" fill="#0054A6"/>
<path d="M374.335 401.309L392.209 399.587C395.163 399.302 397.788 401.467 398.073 404.421C398.358 407.376 396.193 410.001 393.239 410.286L375.366 412.008C372.412 412.293 369.787 410.128 369.502 407.173C369.36 405.696 369.829 404.3 370.704 403.241C371.579 402.178 372.86 401.45 374.335 401.309Z" fill="white"/>
<path d="M383.165 400.458L392.211 399.587C395.165 399.302 397.79 401.467 398.075 404.421C398.36 407.376 396.195 410.001 393.241 410.286L384.195 411.157C383.324 409.982 382.752 408.563 382.601 407L382.393 404.842C382.243 403.281 382.534 401.778 383.165 400.458Z" fill="#0054A6"/>
<path d="M434.471 133.636V125.608H410.388V133.636H434.471Z" fill="#E3FBFF"/>
<path d="M426.443 117.581H418.415V141.664H426.443V117.581Z" fill="#E3FBFF"/>
<path d="M439.041 176.398V168.37H414.958V176.398H439.041Z" fill="#E3FBFF"/>
<path d="M431.013 160.343H422.985V184.425H431.013V160.343Z" fill="#E3FBFF"/>
<path d="M488.545 407.624V399.597H464.462V407.624H488.545Z" fill="#E3FBFF"/>
<path d="M480.517 391.569H472.489V415.652H480.517V391.569Z" fill="#E3FBFF"/>
<path d="M24.083 206.964V198.937H0.000431061V206.964H24.083Z" fill="#E3FBFF"/>
<path d="M16.0549 190.909H8.02734V214.992H16.0549V190.909Z" fill="#E3FBFF"/>
<path d="M185.033 16.0549V8.02734L160.951 8.02734V16.0549L185.033 16.0549Z" fill="#E3FBFF"/>
<path d="M177.005 0H168.978V24.0826H177.005V0Z" fill="#E3FBFF"/>
</svg>
