<svg width="48" height="48" viewBox="0 0 48 48" fill="none" xmlns="http://www.w3.org/2000/svg">
<path d="M46.6008 11.2C45.8008 11.2 45.2008 10.6 45.2008 9.8V2.8H38.2008C37.4008 2.8 36.8008 2.2 36.8008 1.4C36.8008 0.6 37.4008 0 38.2008 0H46.6008C47.4008 0 48.0008 0.6 48.0008 1.4V9.8C48.0008 10.6 47.4008 11.2 46.6008 11.2Z" fill="#ED1C24"/>
<path d="M2.8 9.8V2.8H9.8C10.6 2.8 11.2 2.2 11.2 1.4C11.2 0.6 10.6 0 9.8 0H1.4C0.6 0 0 0.6 0 1.4V9.8C0 10.6 0.6 11.2 1.4 11.2C2.2 11.2 2.8 10.6 2.8 9.8Z" fill="#ED1C24"/>
<path d="M48.0008 46.6V38.2C48.0008 37.4 47.4008 36.8 46.6008 36.8C45.8008 36.8 45.2008 37.4 45.2008 38.2V45.2H38.2008C37.4008 45.2 36.8008 45.8 36.8008 46.6C36.8008 47.4 37.4008 48 38.2008 48H46.6008C47.4008 48 48.0008 47.4 48.0008 46.6Z" fill="#ED1C24"/>
<path d="M11.2 46.6C11.2 45.8 10.6 45.2 9.8 45.2H2.8V38.2C2.8 37.4 2.2 36.8 1.4 36.8C0.6 36.8 0 37.4 0 38.2V46.6C0 47.4 0.6 48 1.4 48H9.8C10.6 48 11.2 47.4 11.2 46.6Z" fill="#ED1C24"/>
<path d="M27.6992 23.2C26.6992 24 25.3992 24.4 23.9992 24.4C22.5992 24.4 21.3992 23.9 20.2992 23.2C16.1992 24.7 13.1992 28.7 13.1992 33.3C13.1992 34.1 13.7992 34.7 14.5992 34.7H33.3992C34.1992 34.7 34.7992 34.1 34.7992 33.3C34.7992 28.7 31.7992 24.7 27.6992 23.2Z" fill="#0054A6"/>
<path d="M24.0004 24.5C27.3693 24.5 30.1004 21.7689 30.1004 18.4C30.1004 15.0311 27.3693 12.3 24.0004 12.3C20.6315 12.3 17.9004 15.0311 17.9004 18.4C17.9004 21.7689 20.6315 24.5 24.0004 24.5Z" fill="#0054A6"/>
<path d="M46.6 22.6H45.1C44.8 17.5 42.6 12.7 39 9.1C35.4 5.5 30.6 3.3 25.5 3V1.4C25.4 0.6 24.8 0 24 0C23.2 0 22.6 0.6 22.6 1.4V2.9C17.5 3.2 12.7 5.4 9.1 9C5.5 12.6 3.3 17.4 3 22.5H1.4C0.6 22.6 0 23.2 0 24C0 24.8 0.6 25.4 1.4 25.4H2.9C3.2 30.5 5.4 35.3 9 38.9C12.6 42.5 17.4 44.7 22.5 45V46.5C22.5 47.3 23.1 47.9 23.9 47.9C24.7 47.9 25.3 47.3 25.3 46.5V45C30.4 44.7 35.2 42.5 38.8 38.9C42.4 35.3 44.6 30.5 44.9 25.4H46.4C47.2 25.4 47.8 24.8 47.8 24C47.8 23.2 47.4 22.6 46.6 22.6ZM40.8 25.4H42.2C41.5 34.4 34.3 41.5 25.4 42.2V40.8C25.4 40 24.8 39.4 24 39.4C23.2 39.4 22.6 40 22.6 40.8V42.2C13.6 41.5 6.5 34.3 5.8 25.4H7.2C8 25.4 8.6 24.8 8.6 24C8.6 23.2 8 22.6 7.2 22.6H5.8C6.5 13.6 13.7 6.5 22.6 5.8V7.2C22.6 8 23.2 8.6 24 8.6C24.8 8.6 25.4 8 25.4 7.2V5.8C34.4 6.5 41.5 13.7 42.2 22.6H40.8C40 22.6 39.4 23.2 39.4 24C39.4 24.8 40 25.4 40.8 25.4Z" fill="#839299"/>
</svg>
