<svg width="50" height="50" viewBox="0 0 50 50" fill="none" xmlns="http://www.w3.org/2000/svg">
<path opacity="0.993" fill-rule="evenodd" clip-rule="evenodd" d="M27.6855 1.41602C34.4238 1.41602 41.1621 1.41602 47.9004 1.41602C47.9004 7.17773 47.9004 12.9395 47.9004 18.7012C43.4731 18.6849 39.0461 18.7012 34.6191 18.75C33.1821 20.4355 31.7336 22.112 30.2734 23.7793C30.2246 22.0869 30.2083 20.3942 30.2246 18.7012C29.3782 18.7012 28.5319 18.7012 27.6855 18.7012C27.6855 12.9395 27.6855 7.17773 27.6855 1.41602Z" fill="#67B1E5"/>
<path fill-rule="evenodd" clip-rule="evenodd" d="M42.3334 9.42385C40.8384 8.14109 39.3247 6.87156 37.7924 5.61526C36.277 6.85185 34.7959 8.12138 33.349 9.42385C32.9807 9.67718 32.6226 9.95383 32.2748 10.2539C31.6943 10.4219 31.4502 10.2103 31.5424 9.61916C33.4376 7.99624 35.3419 6.38491 37.2553 4.78518C37.5561 4.51023 37.8815 4.47767 38.2318 4.68752C40.1959 6.29664 42.1327 7.94052 44.0424 9.61916C44.1346 10.2103 43.8904 10.4219 43.31 10.2539C42.9995 9.95334 42.674 9.6766 42.3334 9.42385Z" fill="#FD735E"/>
<path fill-rule="evenodd" clip-rule="evenodd" d="M42.334 9.42383C42.2366 11.36 42.2041 13.3131 42.2363 15.2832C41.2272 15.2832 40.2181 15.2832 39.209 15.2832C39.209 13.916 39.209 12.5488 39.209 11.1816C38.2649 11.1816 37.321 11.1816 36.377 11.1816C36.377 12.5488 36.377 13.916 36.377 15.2832C35.3679 15.2832 34.3587 15.2832 33.3496 15.2832C33.3496 13.3301 33.3496 11.377 33.3496 9.42383C34.7965 8.12136 36.2775 6.85183 37.793 5.61523C39.3253 6.87153 40.839 8.14106 42.334 9.42383Z" fill="#EAF3FE"/>
<path opacity="0.994" fill-rule="evenodd" clip-rule="evenodd" d="M22.2177 18.7989C21.5749 18.3684 20.9727 17.8802 20.4111 17.3341C17.89 18.5358 15.2695 18.8126 12.5498 18.1641C11.7941 17.9396 11.078 17.6304 10.4013 17.2364C9.83813 17.8329 9.21966 18.3537 8.54585 18.7989C7.34468 15.6071 8.12593 13.0517 10.8896 11.1329C13.3928 9.57111 16.0947 9.05028 18.9951 9.5704C19.5566 9.64765 20.0286 9.89179 20.4111 10.3028C20.6389 10.7911 20.8668 11.2794 21.0947 11.7677C21.8472 12.3574 22.4983 13.041 23.0478 13.8184C23.5629 14.7261 23.6606 15.6701 23.3408 16.6505C22.9901 17.3847 22.6158 18.1008 22.2177 18.7989Z" fill="#8F4C2E"/>
<path opacity="0.994" fill-rule="evenodd" clip-rule="evenodd" d="M22.217 18.7988C22.2333 20.0037 22.217 21.2081 22.1682 22.4121C22.0129 25.0839 20.8248 27.1347 18.6038 28.5645C16.321 29.7829 14.0749 29.7179 11.8655 28.3691C9.87026 26.985 8.77975 25.0644 8.59399 22.6074C8.54517 21.3383 8.52889 20.0687 8.54516 18.7988C9.21897 18.3536 9.83745 17.8328 10.4006 17.2363C11.0773 17.6303 11.7934 17.9396 12.5491 18.1641C15.2688 18.8125 17.8893 18.5357 20.4104 17.334C20.972 17.8801 21.5743 18.3684 22.217 18.7988Z" fill="#F8C6B1"/>
<path opacity="0.977" fill-rule="evenodd" clip-rule="evenodd" d="M44.2871 27.0995C42.3896 27.2289 40.5016 27.2289 38.623 27.0995C38.1073 25.8402 37.619 24.5707 37.1582 23.2909C37.3241 23.2753 37.4869 23.2915 37.6465 23.3397C38.1797 23.6064 38.7331 23.8181 39.3066 23.9745C39.9946 23.7034 40.6944 23.4756 41.4062 23.2909C42.1373 23.4679 42.8535 23.6957 43.5547 23.9745C44.0446 23.9166 44.4841 23.7376 44.873 23.4374C45.1604 23.3276 45.4533 23.295 45.752 23.3397C45.2348 24.5821 44.7465 25.8353 44.2871 27.0995Z" fill="#E67529"/>
<path opacity="0.987" fill-rule="evenodd" clip-rule="evenodd" d="M38.6225 27.0996C40.501 27.229 42.389 27.229 44.2866 27.0996C44.8869 27.2357 45.017 27.5612 44.6772 28.0762C42.5288 28.0762 40.3803 28.0762 38.2319 28.0762C38.1716 28.0653 38.1228 28.0328 38.0854 27.9785C37.8915 27.4359 38.0705 27.143 38.6225 27.0996Z" fill="#FDD559"/>
<path opacity="0.991" fill-rule="evenodd" clip-rule="evenodd" d="M38.2322 28.0762C40.3806 28.0762 42.5291 28.0762 44.6775 28.0762C46.7976 30.5905 48.2787 33.4551 49.1209 36.6699C49.7481 39.3694 48.8529 41.3714 46.4353 42.6758C44.8486 43.3635 43.1884 43.6728 41.4548 43.6035C39.5641 43.69 37.7738 43.3157 36.0838 42.4805C33.7211 40.9266 32.9886 38.7944 33.8865 36.084C34.7522 33.0819 36.2007 30.4127 38.2322 28.0762Z" fill="#FF822D"/>
<path opacity="0.992" fill-rule="evenodd" clip-rule="evenodd" d="M11.8652 28.3691C14.0747 29.7179 16.3208 29.7829 18.6035 28.5645C18.5621 29.5297 18.7574 30.4412 19.1895 31.2988C19.0942 31.4642 18.9641 31.6106 18.7988 31.7383C17.5837 32.5304 16.3955 33.3604 15.2344 34.2285C13.9306 33.2653 12.6447 32.2888 11.377 31.2988C11.8124 30.366 11.9752 29.3895 11.8652 28.3691Z" fill="#EFC0AA"/>
<path opacity="0.997" fill-rule="evenodd" clip-rule="evenodd" d="M11.3776 31.2988C12.6454 32.2888 13.9313 33.2653 15.2351 34.2285C16.3962 33.3604 17.5844 32.5304 18.7995 31.7383C18.9648 31.6106 19.0949 31.4642 19.1901 31.2988C19.6231 31.0465 20.0462 30.7697 20.4597 30.4688C24.5774 30.4845 27.3606 32.4214 28.8093 36.2793C29.5202 38.9992 29.9108 41.7661 29.9812 44.5801C30.03 45.8817 30.0463 47.1839 30.03 48.4863C28.3698 48.4863 26.7097 48.4863 25.0495 48.4863C25.0658 45.8819 25.0495 43.2778 25.0007 40.6738C24.7695 40.3387 24.5091 40.3062 24.2194 40.5762C24.1706 43.2127 24.1543 45.8494 24.1706 48.4863C18.2787 48.4863 12.3867 48.4863 6.49483 48.4863C6.5111 45.8494 6.49483 43.2127 6.44601 40.5762C6.15633 40.3062 5.89591 40.3387 5.66476 40.6738C5.61593 43.2778 5.59966 45.8819 5.61593 48.4863C3.95577 48.4863 2.29562 48.4863 0.635459 48.4863C0.525029 44.603 0.866826 40.7619 1.66085 36.9629C2.91284 32.6843 5.76115 30.5195 10.2058 30.4688C10.6117 30.7289 11.0024 31.0056 11.3776 31.2988Z" fill="#85A2F9"/>
<path fill-rule="evenodd" clip-rule="evenodd" d="M41.1621 32.4709C41.7633 32.4538 42.0237 32.7468 41.9434 33.3498C42.9393 33.4827 43.4764 34.0362 43.5547 35.01C43.3318 35.3558 43.0714 35.3883 42.7734 35.1076C42.569 34.4103 42.097 34.0847 41.3574 34.1311C40.8344 34.1018 40.4274 34.2971 40.1367 34.717C40.058 35.1623 40.237 35.4715 40.6738 35.6447C41.613 35.7734 42.4919 36.0663 43.3105 36.5237C43.8658 37.193 43.9472 37.9254 43.5547 38.7209C43.1341 39.1916 42.6133 39.4846 41.9922 39.5998C42.0447 40.2314 41.768 40.4755 41.1621 40.3322C40.9058 40.1178 40.8081 39.841 40.8691 39.5022C39.8528 39.3975 39.2344 38.8441 39.0137 37.842C39.1309 37.3809 39.3912 37.2669 39.7949 37.5002C40.2228 38.5606 41.004 38.9512 42.1387 38.6721C42.748 38.4781 42.9922 38.0713 42.8711 37.4514C42.7525 37.3001 42.6061 37.1863 42.4316 37.1096C41.5279 36.8899 40.649 36.5969 39.7949 36.2307C38.9903 35.3555 39.0229 34.5092 39.8926 33.6916C40.1915 33.4929 40.5171 33.379 40.8691 33.3498C40.8129 32.9971 40.9105 32.7041 41.1621 32.4709Z" fill="#FFD96E"/>
<path fill-rule="evenodd" clip-rule="evenodd" d="M6.49438 48.4864C6.20141 48.4864 5.90844 48.4864 5.61548 48.4864C5.59921 45.882 5.61548 43.2779 5.6643 40.6739C5.89546 40.3387 6.15588 40.3062 6.44555 40.5762C6.49438 43.2128 6.51065 45.8495 6.49438 48.4864Z" fill="#7792E0"/>
<path fill-rule="evenodd" clip-rule="evenodd" d="M25.0491 48.4864C24.7561 48.4864 24.4631 48.4864 24.1702 48.4864C24.1539 45.8495 24.1702 43.2128 24.219 40.5762C24.5087 40.3062 24.7691 40.3387 25.0003 40.6739C25.0491 43.2779 25.0654 45.882 25.0491 48.4864Z" fill="#7792E0"/>
</svg>
