<svg width="48" height="48" viewBox="0 0 48 48" fill="none" xmlns="http://www.w3.org/2000/svg">
<path d="M33.0991 30.6C33.0991 32.4 31.5991 33.9 29.7991 33.9C29.4991 33.9 29.2991 33.9 28.9991 33.8C27.7991 33.5 26.8991 32.6 26.5991 31.4C26.2991 30.2 26.6991 28.9 27.5991 28.1H19.8991V35.8C18.6991 34.4 16.5991 34.3 15.1991 35.5C13.7991 36.7 13.6991 38.8 14.8991 40.2C16.0991 41.6 18.1991 41.7 19.5991 40.5C19.6991 40.4 19.7991 40.3 19.8991 40.2V48H36.4991C38.2991 48 39.7991 46.5 39.7991 44.7V28.1H31.9991C32.6991 28.8 33.0991 29.7 33.0991 30.6Z" fill="#002548"/>
<path d="M6.7 24.8C7 23.6 7.9 22.7 9.1 22.4C10.9 22 12.7 23 13.1 24.8C13.4 26 13 27.3 12.1 28.1H19.8V20.4C21 21.8 23.1 21.9 24.5 20.7C25.9 19.5 26 17.4 24.8 16C23.6 14.6 21.5 14.5 20.1 15.7C20 15.8 19.9 15.9 19.8 16V8.30005H3.3C1.5 8.30005 0 9.80005 0 11.6V28.2001H7.7C6.8 27.3001 6.4 26 6.7 24.8Z" fill="#002548"/>
<path d="M47.9996 3.3C47.9996 1.5 46.4996 0 44.6996 0H28.0996V7.7C29.2996 6.3 31.3996 6.2 32.7996 7.4C34.1996 8.6 34.2996 10.7 33.0996 12.1C31.8996 13.5 29.7996 13.6 28.3996 12.4C28.2996 12.3 28.1996 12.2 28.0996 12.1V19.8H35.7996C34.3996 21 34.2996 23.1 35.4996 24.5C36.6996 25.9 38.7996 26 40.1996 24.8C41.5996 23.6 41.6996 21.5 40.4996 20.1C40.3996 20 40.2996 19.9 40.1996 19.8H47.9996V3.3Z" fill="#0054A6"/>
<path d="M17.4 41.4C15.6 41.4 14.1 39.9 14.1 38.1C14.1 37.8 14.1 37.6 14.2 37.3C14.6 35.5 16.4 34.4 18.2 34.9C18.9 35.1 19.4 35.4 19.9 35.9V28.2H12.2C13.6 27 13.7 24.9 12.5 23.5C11.3 22.1 9.2 22 7.8 23.2C6.4 24.4 6.3 26.5 7.5 27.9C7.6 28 7.7 28.1 7.8 28.2H0V44.8C0 46.5 1.5 48 3.3 48H19.9V40.3C19.2 41 18.3 41.4 17.4 41.4Z" fill="#0054A6"/>
</svg>
