<svg width="48" height="48" viewBox="0 0 48 48" fill="none" xmlns="http://www.w3.org/2000/svg">
<path d="M27 0C17.6 0 10 7.6 10 17L4 28V30H10V35C10 37.2 11.8 39 14 39H17V48H22H30H38V40C38 36.4 39.3 33.4 40.7 30.2C42.2 26.6 44 22.5 44 17C44 7.6 36.4 0 27 0Z" fill="#0054A6"/>
<path d="M26 44H28V48H26V44Z" fill="#5F737C"/>
<path d="M21 35H33V42H21V35Z" fill="#5F737C"/>
<path d="M27 4C19.8 4 14 9.8 14 17C14 21.3 16.2 24.6 18.3 26.8C19.4 27.9 21 30.5 21 33V35H33V33C33 30.4 34.6 27.8 35.7 26.8C37.9 24.6 40 21.4 40 17C40 9.8 34.2 4 27 4Z" fill="#D2D9DC"/>
<path d="M20 34H34V36H20V34Z" fill="#839299"/>
<path d="M20 38H34V40H20V38Z" fill="#839299"/>
<path d="M23 42H31V44H23V42Z" fill="#839299"/>
<path d="M27 26C31.9706 26 36 21.9706 36 17C36 12.0294 31.9706 8 27 8C22.0294 8 18 12.0294 18 17C18 21.9706 22.0294 26 27 26Z" fill="#002548"/>
<path d="M25.9969 21.3998L22.2969 17.6998L23.6969 16.2998L25.9969 18.5998L30.2969 14.2998L31.6969 15.6998L25.9969 21.3998Z" fill="#F9FAFB"/>
</svg>
