<svg width="114" height="114" viewBox="0 0 114 114" fill="none" xmlns="http://www.w3.org/2000/svg">
<g clip-path="url(#clip0_9681_54844)">
<path d="M100.4 76.0999C97.3003 84.3999 92.7003 91.5999 86.6003 97.5999C79.7003 104.4 70.6003 109.7 59.7003 113.6C59.3003 113.7 59.0003 113.8 58.6003 113.9C58.1003 114 57.6003 114.1 57.1003 114.1H57.0003C56.5003 114.1 55.9003 114 55.4003 113.9C55.0003 113.8 54.7003 113.7 54.3003 113.6C43.3003 109.8 34.3003 104.4 27.3003 97.6999C21.2003 91.7999 16.6003 84.4999 13.5003 76.1999C8.00032 60.9999 8.30032 44.3999 8.60032 30.9999V30.7999C8.70032 29.6999 8.70032 28.4999 8.70032 27.2999C8.80032 20.9999 13.8003 15.7999 20.1003 15.4999C33.2003 14.6999 43.3003 10.4999 52.0003 1.9999V1.8999C53.4003 0.599903 55.3003 -0.100097 57.1003 -9.70745e-05C58.8003 -9.70745e-05 60.6003 0.699903 62.0003 1.8999V1.9999C70.7003 10.3999 80.8003 14.6999 93.9003 15.4999C100.2 15.8999 105.2 21.0999 105.3 27.2999C105.3 28.5999 105.4 29.6999 105.4 30.7999V30.8999C105.7 44.2999 106 60.9999 100.4 76.0999Z" fill="#0054A6"/>
<path opacity="0.19" d="M93.7 73.2001C91.1 80.2001 87.2 86.3001 82.1 91.3001C76.3 97.0001 68.6 101.5 59.4 104.8C59.1 104.9 58.8 105 58.5 105.1C58.1 105.2 57.7 105.2 57.2 105.2H57C56.5 105.2 56.1 105.2 55.6 105.1C55.3 105 55 104.9 54.7 104.8C45.4 101.6 37.8 97.0001 31.9 91.3001C26.8 86.3001 22.9 80.2001 20.3 73.2001C15.6 60.4001 15.9 46.4001 16.1 35.1001V34.9001C16.1 34.0001 16.2 33.0001 16.2 31.9001C16.3 26.6001 20.5 22.2001 25.8 21.9001C36.9 21.3001 45.4 17.7001 52.8 10.5001L52.9 10.4001C54.1 9.30009 55.6 8.70009 57.2 8.80009C58.7 8.80009 60.1 9.40009 61.3 10.4001L61.4 10.5001C68.7 17.6001 77.3 21.2001 88.4 21.9001C93.7 22.2001 97.9 26.6001 98 31.9001C98 33.0001 98 34.0001 98.1 34.9001V35.0001C98.1 46.3001 98.4 60.4001 93.7 73.2001Z" fill="#F9FAFB"/>
<path d="M85.3996 57.0001C85.3996 72.6001 72.6996 85.4001 57.0996 85.4001H56.9996C41.2996 85.4001 28.5996 72.7001 28.5996 57.0001C28.5996 41.3001 41.2996 28.6001 56.9996 28.6001H57.0996C72.6996 28.6001 85.3996 41.4001 85.3996 57.0001Z" fill="#0054A6"/>
<path d="M69.9 52.9L57.1 65.6999L54.3 68.5C53.6 69.2 52.8 69.5 51.9 69.5C51 69.5 50.2 69.2 49.5 68.5L43.6 62.6C42.3 61.3 42.3 59.2 43.6 57.9C44.9 56.6 47 56.6 48.3 57.9L51.9 61.5L65.1 48.3C66.4 47 68.5 47 69.8 48.3C71.2 49.5 71.2 51.6 69.9 52.9Z" fill="#F9FAFB"/>
</g>
<defs>
<clipPath id="clip0_9681_54844">
<rect width="114" height="114" fill="white"/>
</clipPath>
</defs>
</svg>
