<svg width="41" height="40" viewBox="0 0 41 40" fill="none" xmlns="http://www.w3.org/2000/svg">
<g id="hire-a-cto_mature-startup">
<g id="Group">
<path id="Vector" d="M35.9625 11.2438L35.6687 17.2375L39.7062 20.2375V14.2438L35.9625 11.2438Z" fill="#002548"/>
<path id="Vector_2" d="M21.9875 14.2438V20.2375L25.7375 17.2375V11.2438L21.9875 14.2438Z" fill="#002548"/>
<path id="Vector_3" d="M30.7187 0C27.4062 0 24.7249 6.6125 24.7249 11.9937C24.6437 14.6687 25.4312 17.3 26.975 19.4875H34.5562C36.0375 17.275 36.7937 14.6562 36.7187 11.9937C36.7125 6.6125 34.0312 0 30.7187 0Z" fill="#0054A6"/>
<path id="Vector_4" d="M34.8875 3.84375C33.8125 1.59375 32.3375 0 30.7187 0C29.1 0 27.625 1.59375 26.5437 3.84375C27.9 4.23125 29.3062 4.41875 30.7187 4.4125C32.125 4.425 33.5312 4.23125 34.8875 3.84375Z" fill="#ED1C24"/>
<path id="Vector_5" d="M30.7187 11.9938C32.3756 11.9938 33.7188 10.6506 33.7188 8.99377C33.7188 7.33692 32.3756 5.99377 30.7187 5.99377C29.0619 5.99377 27.7188 7.33692 27.7188 8.99377C27.7188 10.6506 29.0619 11.9938 30.7187 11.9938Z" fill="#F2F3F5"/>
<g id="Group_2">
<path id="Vector_6" d="M17.725 23.7438C17.5813 19.2063 13.7875 15.6438 9.25 15.7875C4.7125 15.9313 1.15 19.725 1.29375 24.2625C1.35 26.075 2.00625 27.8188 3.15625 29.2188C4.2625 30.5813 5.15 32.1188 5.775 33.7625H13.25C13.9 32.1 14.8 30.5438 15.9188 29.15C17.1438 27.6188 17.7875 25.7063 17.725 23.7438Z" fill="#FFDD33"/>
<g id="Group_3" opacity="0.19">
<path id="Vector_7" d="M15.9126 29.15C14.7938 30.5438 13.8938 32.1 13.2438 33.7625H11.4563C12.1063 32.1 13.0063 30.5438 14.1251 29.15C16.9563 25.6 16.3751 20.4313 12.8313 17.5938C11.6251 16.6313 10.1626 16.025 8.63135 15.85C9.0751 15.8 9.5251 15.7938 9.96885 15.8125C14.5001 16.075 17.9626 19.9688 17.6938 24.5C17.5938 26.2 16.9688 27.8188 15.9126 29.15Z" fill="#2D2F31"/>
</g>
<path id="Vector_8" d="M5.58745 33.7563H13.4375C13.9625 33.7563 14.3875 34.1813 14.3875 34.7063C14.3875 35.2313 13.9625 35.6563 13.4375 35.6563H5.58745C5.06245 35.6563 4.63745 35.2313 4.63745 34.7063C4.63745 34.1813 5.06245 33.7563 5.58745 33.7563Z" fill="#D2D9DC"/>
<path id="Vector_9" d="M5.58745 35.6625H13.4375C13.9625 35.6625 14.3875 36.0875 14.3875 36.6125C14.3875 37.1375 13.9625 37.5625 13.4375 37.5625H5.58745C5.06245 37.5625 4.63745 37.1375 4.63745 36.6125C4.63745 36.0875 5.06245 35.6625 5.58745 35.6625Z" fill="#D2D9DC"/>
<path id="Vector_10" d="M6.93115 37.5688C7.0124 38.9313 8.1374 39.9938 9.50615 40C10.8749 40 12.0062 38.9313 12.0874 37.5688H6.93115Z" fill="#839299"/>
<path id="Vector_11" d="M12.3562 23.6125V23.2312C12.35 21.9437 11.3625 20.8812 10.075 20.7812V19.8125H8.93749V20.7812C7.58124 20.8812 6.56249 22.0625 6.66874 23.4188C6.76249 24.7063 7.83749 25.7 9.13124 25.7H9.89374C10.625 25.7 11.225 26.2937 11.225 27.0312C11.225 27.7625 10.6312 28.3625 9.89374 28.3625H9.13124C8.39999 28.3625 7.80624 27.7687 7.79999 27.0312V26.65H6.66249V27.0312C6.66874 28.3187 7.65624 29.3812 8.94374 29.4812V30.45H10.0812V29.4812C11.4375 29.3812 12.4562 28.2 12.35 26.8438C12.2562 25.5563 11.1812 24.5625 9.88749 24.5625H9.12499C8.39374 24.5625 7.79374 23.9687 7.79374 23.2312C7.79374 22.5 8.38749 21.9 9.12499 21.9H9.88749C10.6187 21.9 11.2125 22.4937 11.2187 23.2312V23.6125H12.3562Z" fill="#F2F3F5"/>
</g>
<path id="Vector_12" d="M27.3188 20.4H28.0813V24.9563H27.3188V20.4Z" fill="#839299"/>
<path id="Vector_13" d="M30.2188 21.9188H30.9813V26.475H30.2188V21.9188Z" fill="#839299"/>
<path id="Vector_14" d="M33.2563 20.4H34.0188V24.9563H33.2563V20.4Z" fill="#839299"/>
<path id="Vector_15" d="M16.85 37.2312L16.0437 36.425L22.1187 30.35C22.325 30.1438 22.65 30.125 22.875 30.3063L26.2437 33.0063L31.2 27.3438L32.0562 28.0938L26.75 34.1687C26.55 34.4 26.2062 34.4312 25.9625 34.2375L22.5625 31.5188L16.85 37.2312Z" fill="#D2D9DC"/>
</g>
</g>
</svg>
