<svg width="41" height="40" viewBox="0 0 41 40" fill="none" xmlns="http://www.w3.org/2000/svg">
<g id="hire-a-cto_selected-tech-stack" clip-path="url(#clip0_5314_15284)">
<g id="Group">
<path id="Vector" d="M20.5 31.8938C13.9437 31.8938 8.6062 26.5563 8.6062 20C8.6062 13.4438 13.9437 8.11255 20.5 8.11255C27.0562 8.11255 32.3937 13.4438 32.3937 20C32.3937 26.5563 27.0562 31.8938 20.5 31.8938ZM20.5 9.3188C14.6062 9.3188 9.8187 14.1125 9.8187 20C9.8187 25.8875 14.6062 30.6875 20.5 30.6875C26.3937 30.6875 31.1812 25.8938 31.1812 20C31.1812 14.1063 26.3937 9.3188 20.5 9.3188Z" fill="#D2D9DC"/>
<path id="Vector_2" d="M24.6063 4.6625L21.125 0.3C20.8063 -0.1 20.1938 -0.1 19.875 0.3L16.3938 4.6625C15.975 5.1875 16.35 5.9625 17.0188 5.9625H18.075V15.75H22.9188V5.9625H23.975C24.65 5.9625 25.025 5.1875 24.6063 4.6625Z" fill="#0054A6"/>
<path id="Vector_3" d="M24.6063 35.3375L21.125 39.7C20.8063 40.1 20.1938 40.1 19.875 39.7L16.3938 35.3375C15.975 34.8125 16.35 34.0375 17.0188 34.0375H18.075V24.25H22.9188V34.0375H23.975C24.65 34.0375 25.025 34.8125 24.6063 35.3375Z" fill="#0054A6"/>
<path id="Vector_4" d="M35.8375 24.1063L40.2 20.625C40.6 20.3063 40.6 19.6938 40.2 19.375L35.8375 15.8938C35.3125 15.475 34.5375 15.85 34.5375 16.5188V17.575H24.75V22.4188H34.5375V23.475C34.5375 24.15 35.3125 24.525 35.8375 24.1063Z" fill="#0054A6"/>
<path id="Vector_5" d="M5.1625 24.1063L0.8 20.625C0.4 20.3063 0.4 19.6938 0.8 19.375L5.1625 15.8938C5.6875 15.475 6.4625 15.85 6.4625 16.5188V17.575H16.25V22.4188H6.4625V23.475C6.4625 24.15 5.6875 24.525 5.1625 24.1063Z" fill="#0054A6"/>
<path id="Vector_6" d="M20.5 27.5187C24.6524 27.5187 28.0187 24.1524 28.0187 20C28.0187 15.8475 24.6524 12.4812 20.5 12.4812C16.3475 12.4812 12.9812 15.8475 12.9812 20C12.9812 24.1524 16.3475 27.5187 20.5 27.5187Z" fill="#ED1C24"/>
<path id="Vector_7" opacity="0.19" d="M22.2062 27.325C21.6562 27.45 21.0875 27.5187 20.5 27.5187C16.35 27.5187 12.9812 24.15 12.9812 20C12.9812 15.85 16.35 12.4812 20.5 12.4812C21.0875 12.4812 21.6562 12.55 22.2062 12.675C18.875 13.45 16.3937 16.4312 16.3937 20C16.3875 23.5687 18.875 26.5562 22.2062 27.325Z" fill="#2D2F31"/>
<g id="Group_2">
<path id="Vector_8" d="M20.5 21.8C19.7 21.8 19.05 21.15 19.05 20.35V15.9562C19.05 15.1562 19.7 14.5062 20.5 14.5062C21.3 14.5062 21.95 15.1562 21.95 15.9562V20.35C21.95 21.15 21.3 21.8 20.5 21.8Z" fill="#F2F3F5"/>
<path id="Vector_9" d="M20.5 25.5062C21.3009 25.5062 21.95 24.857 21.95 24.0562C21.95 23.2554 21.3009 22.6062 20.5 22.6062C19.6992 22.6062 19.05 23.2554 19.05 24.0562C19.05 24.857 19.6992 25.5062 20.5 25.5062Z" fill="#F2F3F5"/>
</g>
</g>
</g>
<defs>
<clipPath id="clip0_5314_15284">
<rect width="40" height="40" fill="white" transform="translate(0.5)"/>
</clipPath>
</defs>
</svg>
