<svg width="76" height="76" viewBox="0 0 76 76" fill="none" xmlns="http://www.w3.org/2000/svg">
<rect width="76" height="76" rx="38" fill="url(#paint0_linear_14505_62534)"/>
<path d="M55.8025 38.2624C55.0792 38.2624 54.3629 38.1194 53.6951 37.8415C53.0272 37.5637 52.4209 37.1565 51.911 36.6434C51.4012 36.1303 50.9978 35.5214 50.7241 34.8518C50.4505 34.1822 50.312 33.4651 50.3165 32.7417V29.1971C50.312 28.5261 50.4402 27.8608 50.6938 27.2396C50.9474 26.6184 51.3214 26.0534 51.7943 25.5774C52.2671 25.1013 52.8295 24.7234 53.449 24.4656C54.0685 24.2078 54.7329 24.0751 55.4039 24.0751H56.2012C56.87 24.0751 57.5322 24.2069 58.15 24.4632C58.7678 24.7194 59.329 25.0949 59.8015 25.5682C60.2741 26.0415 60.6486 26.6033 60.9038 27.2216C61.1589 27.8398 61.2897 28.5023 61.2885 29.1711V32.7417C61.2919 33.4648 61.1526 34.1814 60.8786 34.8504C60.6045 35.5195 60.2011 36.1279 59.6915 36.6408C59.1818 37.1537 58.5759 37.5609 57.9086 37.8392C57.2413 38.1175 56.5256 38.2613 55.8025 38.2624Z" fill="#FCD0AE"/>
<path d="M57.9834 40.9579H53.5981C52.1584 40.9579 50.7775 41.5292 49.7587 42.5464C48.7399 43.5636 48.1664 44.9435 48.1641 46.3832V51.5832C48.1641 51.6958 48.2088 51.8039 48.2884 51.8835C48.3681 51.9631 48.4761 52.0079 48.5887 52.0079H62.9841C63.0967 52.0079 63.2047 51.9631 63.2843 51.8835C63.364 51.8039 63.4087 51.6958 63.4087 51.5832V46.3832C63.4087 44.9443 62.8371 43.5644 61.8197 42.5469C60.8022 41.5295 59.4223 40.9579 57.9834 40.9579Z" fill="#ECEFF1"/>
<path d="M56.2019 24.0751H55.3959C54.7271 24.0751 54.0649 24.2069 53.4471 24.4632C52.8293 24.7194 52.2681 25.0949 51.7956 25.5682C51.3231 26.0415 50.9485 26.6033 50.6934 27.2216C50.4382 27.8398 50.3075 28.5023 50.3086 29.1711V30.1417C52.8393 30.8957 56.7826 29.6391 57.8919 28.0444C58.2906 29.2751 59.9633 30.0551 61.2893 30.4191V29.1971C61.2938 28.5261 61.1656 27.8608 60.912 27.2396C60.6584 26.6184 60.2844 26.0534 59.8115 25.5774C59.3387 25.1013 58.7763 24.7234 58.1568 24.4656C57.5373 24.2078 56.8729 24.0751 56.2019 24.0751Z" fill="#FCAB29"/>
<path d="M56.5016 40.9579H55.1063L53.7109 46.8426L55.7996 49.0439L57.8883 46.8426L56.5016 40.9579Z" fill="#E30E08"/>
<path d="M20.3377 38.2625C19.6143 38.2625 18.8981 38.1195 18.2302 37.8416C17.5624 37.5638 16.9561 37.1566 16.4462 36.6435C15.9363 36.1304 15.5329 35.5215 15.2593 34.8519C14.9856 34.1823 14.8471 33.4652 14.8517 32.7419V29.1972C14.8471 28.5262 14.9753 27.8609 15.2289 27.2397C15.4826 26.6185 15.8566 26.0536 16.3294 25.5775C16.8023 25.1014 17.3646 24.7236 17.9841 24.4657C18.6036 24.2079 19.268 24.0752 19.939 24.0752H20.745C21.4189 24.0706 22.087 24.1999 22.7106 24.4557C23.3341 24.7115 23.9005 25.0886 24.3771 25.5651C24.8536 26.0417 25.2307 26.6081 25.4865 27.2316C25.7423 27.8552 25.8716 28.5233 25.867 29.1972V32.7419C25.8705 33.4685 25.7297 34.1887 25.453 34.8606C25.1762 35.5325 24.7689 36.1429 24.2547 36.6563C23.7404 37.1698 23.1294 37.5761 22.4571 37.8518C21.7847 38.1275 21.0644 38.2671 20.3377 38.2625Z" fill="#FCD0AE"/>
<path d="M22.523 40.9579H18.1897C17.4751 40.9545 16.7668 41.0923 16.1055 41.3634C15.4443 41.6346 14.8431 42.0336 14.3366 42.5378C13.8301 43.0419 13.4281 43.6411 13.1538 44.3011C12.8796 44.961 12.7384 45.6686 12.7384 46.3833V51.5833C12.7372 51.6386 12.7471 51.6937 12.7675 51.7451C12.7879 51.7966 12.8184 51.8435 12.8571 51.8831C12.8959 51.9226 12.9421 51.954 12.9931 51.9755C13.0442 51.9969 13.099 52.008 13.1544 52.0079H27.5324C27.5877 52.008 27.6426 51.9969 27.6936 51.9755C27.7446 51.954 27.7909 51.9226 27.8296 51.8831C27.8684 51.8435 27.8988 51.7966 27.9192 51.7451C27.9396 51.6937 27.9495 51.6386 27.9484 51.5833V46.3833C27.9484 45.6708 27.808 44.9653 27.5354 44.3071C27.2627 43.6489 26.8631 43.0508 26.3593 42.547C25.8555 42.0432 25.2575 41.6436 24.5992 41.3709C23.941 41.0983 23.2355 40.9579 22.523 40.9579Z" fill="#ECEFF1"/>
<path d="M21.0407 40.9579H19.6453L18.25 46.8426L20.3473 49.0439L22.436 46.8426L21.0407 40.9579Z" fill="#E30E08"/>
<path d="M41.1292 41.7376H35.0625C33.9726 41.6699 32.8811 41.8415 31.8645 42.2402C30.5421 42.8516 29.4232 43.8301 28.6411 45.0593C27.859 46.2885 27.4467 47.7166 27.4532 49.1736V56.1069C27.4643 56.369 27.5758 56.6169 27.7645 56.7992C27.9532 56.9815 28.2048 57.0842 28.4672 57.0862H47.7159C47.8498 57.0862 47.9823 57.0597 48.1059 57.0082C48.2295 56.9567 48.3417 56.8812 48.436 56.7862C48.5302 56.6911 48.6047 56.5783 48.6552 56.4543C48.7056 56.3302 48.731 56.1974 48.7299 56.0636V49.1302C48.7401 47.6747 48.3312 46.2471 47.5521 45.0176C46.7729 43.7882 45.6564 42.809 44.3359 42.1969C43.3141 41.8086 42.2189 41.6517 41.1292 41.7376Z" fill="#006EE5"/>
<path d="M41.1286 41.7378H39.5859C41.1051 41.6656 42.596 42.1667 43.7633 43.1417C44.5925 43.898 45.2527 44.8208 45.7008 45.8498C46.1488 46.8788 46.3746 47.9908 46.3633 49.1131V56.0464C46.378 56.2956 46.2962 56.5409 46.1348 56.7314C45.9734 56.9218 45.7449 57.0428 45.4966 57.0691H47.7846C47.9185 57.0691 48.0511 57.0426 48.1747 56.9911C48.2983 56.9396 48.4104 56.8641 48.5047 56.769C48.599 56.674 48.6735 56.5611 48.7239 56.4371C48.7744 56.3131 48.7997 56.1803 48.7986 56.0464V49.1131C48.8088 47.6576 48.3999 46.2299 47.6208 45.0005C46.8417 43.7711 45.7252 42.7919 44.4046 42.1797C43.36 41.787 42.24 41.6359 41.1286 41.7378Z" fill="#0062BA"/>
<path d="M38.0686 53.6458L44.3173 42.2751C43.3183 41.8107 42.2296 41.5711 41.1279 41.5731H35.0613C33.9569 41.5712 32.8654 41.8108 31.8633 42.2751L38.0686 53.6458Z" fill="#EBEEF2"/>
<path d="M39.1882 44.3378C39.7481 44.1143 40.2282 43.7282 40.5665 43.2292C40.9048 42.7302 41.0858 42.1413 41.0862 41.5385H35.0195C35.0199 42.1413 35.2009 42.7302 35.5392 43.2292C35.8775 43.7282 36.3576 44.1143 36.9175 44.3378L35.9209 49.8064L38.0269 53.6458L40.1329 49.8064L39.1882 44.3378Z" fill="#E30E08"/>
<path d="M38.0515 38.5658C37.1137 38.5658 36.1851 38.3811 35.3186 38.0222C34.4522 37.6634 33.6649 37.1373 33.0018 36.4742C31.6626 35.1349 30.9102 33.3185 30.9102 31.4245V26.8312C30.909 25.9666 31.0783 25.1103 31.4084 24.3112C31.7385 23.5121 32.2228 22.786 32.8337 22.1742C33.4447 21.5625 34.1702 21.0772 34.9689 20.7461C35.7675 20.4149 36.6236 20.2445 37.4882 20.2445H38.6148C39.4794 20.2445 40.3355 20.4149 41.1341 20.7461C41.9328 21.0772 42.6583 21.5625 43.2692 22.1742C43.8802 22.786 44.3645 23.5121 44.6946 24.3112C45.0247 25.1103 45.194 25.9666 45.1928 26.8312V31.4245C45.1928 33.3185 44.4404 35.1349 43.1012 36.4742C41.7619 37.8135 39.9455 38.5658 38.0515 38.5658Z" fill="#FCD0AE"/>
<path d="M38.6152 20.2444H37.3672C38.7811 20.2761 40.1266 20.8595 41.1161 21.8701C42.1056 22.8806 42.6606 24.2381 42.6625 25.6524V32.6811C42.66 34.1343 42.1207 35.5353 41.1481 36.6151C40.1755 37.6948 38.8382 38.3772 37.3932 38.5311C37.6099 38.5311 37.8265 38.5311 38.0519 38.5311C39.9459 38.5311 41.7623 37.7787 43.1015 36.4394C44.4408 35.1001 45.1932 33.2837 45.1932 31.3897V26.7964C45.1863 25.0563 44.4902 23.3898 43.2574 22.1618C42.0245 20.9338 40.3553 20.2444 38.6152 20.2444Z" fill="#E59F6A"/>
<path d="M38.6148 20.2445H37.4882C35.7606 20.2466 34.1031 20.9272 32.8726 22.1398C31.6422 23.3524 30.9374 24.9999 30.9102 26.7272C32.1054 28.0476 33.6267 29.0309 35.3215 29.5785C34.6448 28.3509 34.392 26.9344 34.6022 25.5485C35.7982 27.1605 41.3102 29.8038 45.1928 30.7485V26.8312C45.194 25.9666 45.0247 25.1103 44.6946 24.3112C44.3645 23.5121 43.8802 22.786 43.2692 22.1742C42.6583 21.5625 41.9328 21.0772 41.1341 20.7461C40.3355 20.4149 39.4794 20.2445 38.6148 20.2445Z" fill="#495256"/>
<path d="M38.6152 20.2444H37.3672C38.7811 20.2761 40.1266 20.8595 41.1161 21.8701C42.1056 22.8806 42.6606 24.2381 42.6625 25.6524V29.9857C43.5292 30.2977 44.3959 30.5664 45.1932 30.7657V26.8311C45.1943 25.9665 45.025 25.1102 44.695 24.3111C44.3649 23.512 43.8805 22.7858 43.2696 22.1741C42.6587 21.5624 41.9331 21.0771 41.1345 20.7459C40.3358 20.4148 39.4798 20.2444 38.6152 20.2444Z" fill="#2E344C"/>
<path d="M14.8516 29.1972H23.4489C24.6235 29.1972 25.7499 28.7306 26.5804 27.9C27.411 27.0695 27.8776 25.943 27.8776 24.7685V22.9832H19.2716C18.6904 22.9832 18.1149 23.0978 17.5781 23.3204C17.0413 23.5431 16.5536 23.8695 16.1431 24.2808C15.7325 24.6922 15.4071 25.1804 15.1855 25.7177C14.9639 26.255 14.8504 26.8307 14.8516 27.4118V29.1972Z" fill="#FCAB29"/>
<defs>
<linearGradient id="paint0_linear_14505_62534" x1="38" y1="0" x2="38" y2="76" gradientUnits="userSpaceOnUse">
<stop stop-color="#002548"/>
<stop offset="1" stop-color="#0054A6"/>
</linearGradient>
</defs>
</svg>
