<svg width="352" height="263" viewBox="0 0 352 263" fill="none" xmlns="http://www.w3.org/2000/svg">
<path d="M297.705 137.744C299.237 137.529 300.693 137.683 302.014 138.536C302.095 138.588 302.174 138.642 302.251 138.699C302.328 138.755 302.404 138.813 302.479 138.873C302.553 138.933 302.625 138.995 302.697 139.058C302.769 139.122 302.839 139.187 302.908 139.254C302.975 139.321 303.04 139.39 303.105 139.461C303.17 139.531 303.233 139.603 303.293 139.677C303.354 139.751 303.414 139.826 303.472 139.902C303.529 139.979 303.584 140.057 303.637 140.136C303.69 140.216 303.741 140.296 303.791 140.378C303.84 140.46 303.887 140.544 303.932 140.628C303.976 140.712 304.019 140.798 304.06 140.884C304.101 140.971 304.14 141.058 304.176 141.147C304.212 141.235 304.246 141.324 304.278 141.415C304.309 141.505 304.338 141.596 304.366 141.687C304.393 141.779 304.418 141.871 304.44 141.964C304.464 142.057 304.485 142.151 304.502 142.244C304.521 142.338 304.537 142.432 304.551 142.526C304.564 142.621 304.576 142.715 304.586 142.811C304.595 142.905 304.602 143.001 304.607 143.096C304.61 143.191 304.612 143.287 304.612 143.382C304.612 143.477 304.61 143.573 304.604 143.668C304.599 143.763 304.592 143.858 304.581 143.953C304.573 144.048 304.561 144.143 304.545 144.237C304.532 144.331 304.515 144.425 304.497 144.519C304.476 144.612 304.454 144.705 304.43 144.798C304.408 144.89 304.382 144.982 304.353 145.073C304.324 145.164 304.293 145.254 304.26 145.344C304.228 145.434 304.193 145.522 304.155 145.61C304.117 145.698 304.078 145.785 304.037 145.871C303.996 145.956 303.952 146.041 303.906 146.125C303.86 146.208 303.812 146.291 303.762 146.372C303.713 146.454 303.661 146.533 303.606 146.612C302.705 147.9 301.324 148.617 299.807 148.899C298.703 149.103 297.446 148.896 296.429 148.432C295.1 147.825 294.104 146.673 293.608 145.309C293.576 145.219 293.545 145.128 293.516 145.036C293.487 144.945 293.46 144.852 293.436 144.759C293.412 144.666 293.39 144.573 293.369 144.479C293.351 144.384 293.334 144.29 293.321 144.195C293.305 144.1 293.292 144.005 293.282 143.909C293.274 143.814 293.267 143.718 293.262 143.622C293.256 143.526 293.254 143.43 293.254 143.334C293.254 143.238 293.256 143.142 293.262 143.046C293.265 142.95 293.272 142.854 293.282 142.759C293.292 142.663 293.304 142.568 293.318 142.473C293.334 142.378 293.351 142.283 293.369 142.189C293.388 142.095 293.41 142.002 293.434 141.909C293.458 141.816 293.484 141.723 293.513 141.631C293.541 141.54 293.571 141.449 293.606 141.359C293.638 141.269 293.673 141.179 293.711 141.091C293.749 141.003 293.789 140.915 293.832 140.829C294.666 139.135 295.977 138.348 297.705 137.744Z" fill="#002548"/>
<path d="M297.951 139.454C299.183 139.321 300.256 139.412 301.27 140.194C301.374 140.276 301.475 140.362 301.573 140.454C301.668 140.545 301.76 140.641 301.847 140.741C301.933 140.842 302.014 140.946 302.091 141.055C302.168 141.164 302.239 141.276 302.304 141.391C302.369 141.507 302.428 141.625 302.481 141.747C302.536 141.868 302.584 141.992 302.625 142.118C302.666 142.244 302.701 142.372 302.73 142.501C302.759 142.631 302.781 142.762 302.797 142.894C302.918 143.886 302.658 144.954 302.011 145.73C301.295 146.591 300.389 146.978 299.303 147.104C298.618 147.199 297.925 147.098 297.273 146.866C296.375 146.547 295.751 145.893 295.374 145.027C294.93 144.008 294.881 142.885 295.302 141.851C295.833 140.537 296.724 139.997 297.951 139.454Z" fill="#FEFEFE"/>
<path d="M92.383 44.1627C92.5589 44.15 92.735 44.1446 92.9113 44.1465C93.0875 44.1485 93.2634 44.1576 93.439 44.174C93.6147 44.1906 93.7892 44.2143 93.9629 44.245C94.1365 44.2759 94.3084 44.3139 94.4789 44.3589C94.6494 44.4041 94.8177 44.456 94.9838 44.5148C95.1499 44.5739 95.3135 44.6396 95.4744 44.712C95.6351 44.7846 95.7925 44.8635 95.9467 44.949C96.1008 45.0344 96.2513 45.1261 96.3979 45.224C96.4778 45.2777 96.5563 45.3334 96.6335 45.391C96.7106 45.4487 96.7864 45.5081 96.8607 45.5696C96.9348 45.631 97.0073 45.6941 97.0783 45.7592C97.1494 45.8242 97.219 45.8909 97.2867 45.9594C97.3545 46.0278 97.4205 46.0978 97.4849 46.1694C97.5491 46.241 97.6115 46.3142 97.6723 46.3889C97.7329 46.4638 97.7917 46.54 97.8487 46.6177C97.9056 46.6954 97.9604 46.7744 98.0136 46.8549C98.0665 46.9353 98.1173 47.017 98.1663 47.0999C98.2152 47.1828 98.2621 47.2669 98.3068 47.352C98.3516 47.4374 98.3942 47.5237 98.4346 47.6111C98.4751 47.6985 98.5132 47.7868 98.5494 47.8761C98.5855 47.9653 98.6194 48.0554 98.6511 48.1462C98.6825 48.2372 98.7119 48.3289 98.7392 48.4212C98.7662 48.5137 98.7909 48.6067 98.8134 48.7003C98.8357 48.794 98.8559 48.8881 98.8737 48.9827C98.8921 49.0794 98.908 49.1764 98.9215 49.2739C98.9352 49.3713 98.9464 49.4691 98.9551 49.5671C98.9638 49.665 98.9701 49.7632 98.9741 49.8616C98.9781 49.9599 98.9796 50.0583 98.9787 50.1566C98.9777 50.2549 98.9744 50.3533 98.9687 50.4516C98.9629 50.5497 98.9547 50.6478 98.9443 50.7456C98.9337 50.8434 98.9207 50.9409 98.9053 51.038C98.89 51.1354 98.8723 51.2322 98.8521 51.3284C98.8321 51.4247 98.8096 51.5205 98.7849 51.6158C98.7601 51.711 98.7329 51.8056 98.7035 51.8995C98.6741 51.9933 98.6422 52.0864 98.6082 52.1786C98.5742 52.2709 98.5379 52.3624 98.4993 52.453C98.4608 52.5436 98.4201 52.633 98.3771 52.7216C98.3341 52.8102 98.2892 52.8976 98.2421 52.9838C98.1948 53.0702 98.1455 53.1553 98.0939 53.2392C98.0426 53.3232 97.9892 53.4057 97.9337 53.487C96.8501 55.0453 95.2886 55.7399 93.4698 56.0479C92.152 56.0186 90.9921 55.824 89.8472 55.1312C89.7633 55.0802 89.6805 55.0272 89.5991 54.9721C89.5176 54.917 89.4376 54.8599 89.359 54.8007C89.2804 54.7415 89.2034 54.6805 89.1281 54.6175C89.0526 54.5546 88.9788 54.4898 88.9066 54.4231C88.8343 54.3564 88.7638 54.288 88.695 54.2177C88.6262 54.1474 88.5593 54.0755 88.4944 54.0021C88.4292 53.9285 88.3659 53.8534 88.3044 53.7766C88.2429 53.6999 88.1836 53.6215 88.1262 53.5417C88.0687 53.462 88.0132 53.3808 87.9598 53.2983C87.9064 53.2159 87.8552 53.132 87.806 53.0469C87.7568 52.9618 87.7099 52.8755 87.665 52.7881C87.6202 52.7006 87.5776 52.612 87.5372 52.5224C87.4967 52.4328 87.4587 52.3423 87.4229 52.2507C87.3871 52.1592 87.3537 52.0669 87.3225 51.9737C87.2915 51.8805 87.2626 51.7865 87.236 51.6918C87.2097 51.5971 87.1857 51.5019 87.1639 51.406C87.1422 51.3106 87.1229 51.2147 87.1061 51.1184C87.0893 51.0221 87.0749 50.9255 87.0629 50.8283C87.051 50.7314 87.0415 50.6342 87.0344 50.5366C87.0274 50.4389 87.0229 50.3413 87.0208 50.2436C87.0188 50.1458 87.0192 50.0481 87.0219 49.9504C87.0248 49.8526 87.0301 49.7549 87.0378 49.6575C87.0455 49.56 87.0556 49.4627 87.0683 49.3658C87.081 49.2689 87.0962 49.1723 87.1138 49.0762C87.1312 48.9799 87.1511 48.8842 87.1736 48.7891C87.1961 48.6938 87.2207 48.5992 87.2478 48.5054C87.275 48.4115 87.3046 48.3183 87.3364 48.2258C87.3682 48.1332 87.4024 48.0417 87.4388 47.951C87.4753 47.8603 87.5139 47.7704 87.5549 47.6817C87.5959 47.593 87.639 47.5052 87.6846 47.4185C87.7299 47.332 87.7775 47.2466 87.8273 47.1625C87.877 47.0782 87.9287 46.9953 87.9827 46.9137C89.0396 45.2977 90.55 44.5639 92.383 44.1627Z" fill="#002548"/>
<path d="M92.2998 46.0394C93.0351 45.9888 93.7524 46.0291 94.4474 46.2962C95.4511 46.6814 96.2809 47.4286 96.715 48.4175C96.7714 48.5449 96.8208 48.6749 96.8634 48.8076C96.906 48.9401 96.9416 49.0745 96.9702 49.2109C96.999 49.3474 97.0205 49.4848 97.0349 49.6234C97.0492 49.7619 97.0561 49.9008 97.056 50.0402C97.0558 50.1794 97.0484 50.3183 97.0336 50.4568C97.0191 50.5953 96.9973 50.7327 96.9682 50.869C96.9393 51.0054 96.9033 51.1398 96.8603 51.2723C96.8172 51.4048 96.7674 51.5347 96.7109 51.6619C96.0994 53.0294 95.0743 53.6481 93.7519 54.1742C92.9713 54.235 92.2551 54.186 91.5205 53.8902C90.4997 53.4792 89.7058 52.7138 89.2786 51.6971C88.8469 50.669 88.8369 49.4714 89.2951 48.4502C89.9154 47.0664 90.9732 46.5486 92.2998 46.0394Z" fill="#FEFEFE"/>
<path d="M259.317 55.2745C260.862 55.1697 262.173 55.1643 263.595 55.8637C263.691 55.9109 263.786 55.9605 263.88 56.0125C263.973 56.0643 264.064 56.1184 264.155 56.1749C264.246 56.2313 264.335 56.2899 264.424 56.3509C264.512 56.4116 264.598 56.4744 264.684 56.5395C264.767 56.6047 264.85 56.6717 264.933 56.7409C265.015 56.81 265.094 56.8809 265.171 56.954C265.25 57.027 265.326 57.1019 265.4 57.1787C265.475 57.2554 265.548 57.334 265.618 57.4141C265.688 57.4945 265.756 57.5765 265.823 57.6601C265.89 57.7439 265.954 57.8292 266.016 57.9161C266.079 58.0027 266.14 58.091 266.198 58.1808C266.256 58.2708 266.312 58.3619 266.365 58.4545C266.418 58.5471 266.469 58.6408 266.519 58.7356C266.567 58.8308 266.613 58.9269 266.658 59.0242C266.702 59.1215 266.744 59.2199 266.783 59.3193C266.823 59.4186 266.86 59.5189 266.894 59.6202C266.928 59.7216 266.96 59.8238 266.989 59.9267C267.018 60.0297 267.045 60.1333 267.069 60.2377C267.093 60.342 267.114 60.4468 267.133 60.5522C267.152 60.6576 267.168 60.7633 267.181 60.8696C267.193 60.9757 267.204 61.0822 267.212 61.189C267.221 61.2958 267.227 61.4025 267.23 61.5094C267.232 61.6165 267.232 61.7234 267.23 61.8302C267.227 61.9373 267.222 62.0441 267.215 62.1509C267.206 62.2576 267.195 62.364 267.181 62.4702C267.17 62.5764 267.154 62.6821 267.135 62.7875C267.116 62.8931 267.095 62.998 267.071 63.1023C267.049 63.2067 267.023 63.3103 266.994 63.4135C266.965 63.5165 266.933 63.6187 266.899 63.7203C266.865 63.8218 266.828 63.9223 266.789 64.022C266.751 64.1218 266.71 64.2204 266.665 64.3181C266.621 64.4158 266.575 64.5122 266.527 64.6074C265.536 66.5494 263.965 67.4962 261.953 68.1614C260.449 68.2976 259.132 68.265 257.741 67.6021C257.643 67.5557 257.546 67.5068 257.451 67.4554C257.356 67.4041 257.262 67.3504 257.17 67.2943C257.077 67.2383 256.986 67.18 256.896 67.1193C256.807 67.0588 256.718 66.9961 256.632 66.9314C256.545 66.8664 256.46 66.7994 256.377 66.7302C256.294 66.661 256.213 66.5898 256.133 66.5166C256.053 66.4434 255.976 66.3682 255.9 66.2911C255.824 66.2142 255.75 66.1353 255.678 66.0544C255.606 65.9737 255.536 65.8912 255.468 65.8072C255.4 65.7228 255.335 65.6369 255.271 65.5494C255.207 65.4618 255.146 65.3728 255.087 65.2823C255.028 65.1917 254.971 65.0996 254.916 65.0063C254.862 64.913 254.809 64.8182 254.759 64.7221C254.709 64.6262 254.662 64.529 254.617 64.4307C254.572 64.3323 254.529 64.233 254.489 64.1323C254.449 64.0318 254.412 63.9304 254.377 63.8281C254.341 63.725 254.308 63.6211 254.278 63.5164C254.247 63.4117 254.22 63.3063 254.195 63.2C254.169 63.094 254.147 62.9874 254.127 62.8801C254.108 62.7728 254.091 62.6649 254.076 62.557C254.062 62.4489 254.05 62.3405 254.041 62.2319C254.033 62.1233 254.026 62.0144 254.023 61.9053C254.019 61.7963 254.019 61.6875 254.021 61.5785C254.023 61.4693 254.027 61.3605 254.035 61.2516C254.042 61.1429 254.053 61.0344 254.065 60.9262C254.078 60.8179 254.094 60.71 254.112 60.6024C254.131 60.4951 254.152 60.388 254.175 60.2815C254.199 60.1752 254.225 60.0694 254.254 59.9641C254.283 59.8591 254.315 59.7548 254.349 59.6511C254.383 59.5476 254.42 59.4451 254.459 59.3433C254.498 59.2417 254.54 59.1411 254.585 59.0413C254.629 58.9418 254.676 58.8434 254.725 58.746C255.7 56.8361 257.353 55.9199 259.317 55.2745Z" fill="#002548"/>
<path d="M260.17 56.9806C261.233 56.9206 262.211 57.0839 263.132 57.638C263.199 57.6787 263.265 57.7211 263.33 57.7652C263.395 57.8094 263.458 57.8551 263.52 57.9025C263.583 57.9498 263.645 57.9989 263.704 58.0495C263.764 58.0999 263.823 58.1519 263.882 58.2054C263.938 58.2591 263.994 58.314 264.048 58.3704C264.103 58.4268 264.156 58.4847 264.208 58.5438C264.259 58.603 264.309 58.6635 264.357 58.7252C264.406 58.787 264.453 58.8499 264.498 58.9141C264.542 58.9783 264.586 59.0434 264.629 59.1095C264.67 59.1758 264.71 59.2433 264.749 59.3117C264.787 59.3801 264.823 59.4494 264.857 59.5196C264.893 59.5899 264.927 59.6611 264.957 59.733C264.988 59.805 265.017 59.8778 265.045 59.9513C265.072 60.0247 265.098 60.0988 265.122 60.1736C265.146 60.2483 265.167 60.3237 265.186 60.3996C265.206 60.4754 265.224 60.5518 265.24 60.6286C265.257 60.7083 265.272 60.7882 265.283 60.8684C265.297 60.9488 265.308 61.0294 265.317 61.1103C265.325 61.1911 265.331 61.2722 265.335 61.3534C265.34 61.4347 265.342 61.5159 265.342 61.5973C265.342 61.6786 265.341 61.7599 265.337 61.8413C265.334 61.9225 265.329 62.0035 265.322 62.0844C265.313 62.1654 265.303 62.2462 265.291 62.3265C265.279 62.407 265.265 62.4871 265.25 62.5669C265.235 62.6467 265.217 62.726 265.196 62.8049C265.176 62.8837 265.153 62.962 265.129 63.0398C265.105 63.1176 265.08 63.1948 265.052 63.2711C265.025 63.3475 264.996 63.4233 264.965 63.4984C264.933 63.5732 264.899 63.6474 264.865 63.7207C264.829 63.7939 264.791 63.8662 264.752 63.9377C264.713 64.0092 264.672 64.0797 264.631 64.149C264.589 64.2182 264.544 64.2865 264.498 64.3538C263.638 65.6232 262.429 66.1896 260.966 66.479C260.039 66.4618 259.192 66.3443 258.368 65.9002C257.254 65.3006 256.387 64.2389 256.07 63.0078C255.739 61.7246 255.905 60.3799 256.609 59.2511C257.444 57.9125 258.684 57.3262 260.17 56.9806Z" fill="#FFDD33"/>
<path d="M53.4062 120.425C53.5936 120.409 53.7812 120.401 53.9691 120.401C54.1572 120.401 54.3449 120.409 54.5321 120.425C54.7195 120.441 54.9058 120.464 55.0912 120.495C55.2765 120.527 55.4602 120.565 55.6423 120.612C55.8243 120.659 56.0042 120.713 56.1819 120.775C56.3593 120.836 56.534 120.905 56.7058 120.981C56.8775 121.058 57.046 121.141 57.2109 121.231C57.3758 121.321 57.5365 121.418 57.6933 121.522C57.7834 121.582 57.872 121.644 57.9589 121.709C58.0458 121.773 58.131 121.84 58.2147 121.909C58.2984 121.977 58.3804 122.048 58.4603 122.121C58.5406 122.194 58.6189 122.269 58.6951 122.345C58.7717 122.422 58.8461 122.501 58.9186 122.581C58.9911 122.661 59.0614 122.743 59.13 122.827C59.1985 122.911 59.2648 122.997 59.3288 123.084C59.393 123.171 59.4549 123.26 59.5147 123.35C59.5744 123.441 59.6318 123.532 59.687 123.626C59.7422 123.719 59.7948 123.813 59.8454 123.909C59.8959 124.005 59.9439 124.102 59.9895 124.2C60.0352 124.298 60.0784 124.398 60.1191 124.498C60.1597 124.598 60.1977 124.7 60.2334 124.802C60.2692 124.904 60.3022 125.007 60.3327 125.111C60.3632 125.215 60.391 125.32 60.4162 125.425C60.4415 125.53 60.4642 125.636 60.4842 125.742C60.5058 125.853 60.5247 125.963 60.541 126.074C60.557 126.185 60.5705 126.297 60.5813 126.408C60.5919 126.52 60.5998 126.632 60.6049 126.744C60.61 126.856 60.6124 126.969 60.6118 127.081C60.6113 127.193 60.6081 127.305 60.6023 127.417C60.5963 127.529 60.5876 127.641 60.5759 127.753C60.5645 127.865 60.5501 127.976 60.533 128.087C60.5161 128.198 60.4964 128.308 60.474 128.418C60.4514 128.528 60.4262 128.638 60.3982 128.746C60.3704 128.855 60.3398 128.963 60.3066 129.071C60.2732 129.178 60.2374 129.284 60.199 129.39C60.1605 129.495 60.1193 129.6 60.0755 129.703C60.0318 129.806 59.9856 129.909 59.9368 130.01C59.8882 130.111 59.8371 130.211 59.7833 130.309C59.7296 130.408 59.6735 130.505 59.6151 130.601C59.5566 130.697 59.4957 130.792 59.4327 130.884C58.2171 132.648 56.5296 133.34 54.4857 133.696C53.0665 133.763 51.6094 133.425 50.4022 132.666C48.8824 131.709 47.8506 130.135 47.4774 128.389C47.4548 128.282 47.4349 128.175 47.4175 128.067C47.4002 127.96 47.3857 127.852 47.3739 127.743C47.3621 127.635 47.3531 127.526 47.3469 127.418C47.3406 127.309 47.3371 127.2 47.3362 127.091C47.3353 126.982 47.3372 126.873 47.3418 126.764C47.3464 126.655 47.3539 126.546 47.3641 126.438C47.3743 126.329 47.3871 126.221 47.4027 126.113C47.4182 126.005 47.4365 125.898 47.4576 125.791C47.4787 125.684 47.5024 125.578 47.5287 125.472C47.555 125.366 47.5841 125.261 47.6158 125.156C47.6475 125.052 47.6816 124.949 47.7185 124.846C47.7554 124.743 47.7949 124.642 47.8368 124.541C47.8789 124.441 47.9234 124.341 47.9703 124.243C48.0175 124.145 48.0669 124.048 48.1188 123.951C48.1707 123.856 48.2251 123.761 48.2818 123.668C48.3384 123.575 48.3973 123.483 48.4587 123.393C49.6671 121.604 51.3533 120.846 53.4062 120.425Z" fill="#002548"/>
<path d="M53.5678 122.309C54.5895 122.283 55.5599 122.422 56.4498 122.957C56.5783 123.033 56.7029 123.115 56.8233 123.203C56.9437 123.291 57.0596 123.384 57.1708 123.484C57.282 123.583 57.3881 123.687 57.4891 123.797C57.59 123.907 57.6855 124.022 57.7752 124.141C57.8648 124.26 57.9485 124.383 58.0262 124.51C58.1039 124.637 58.1751 124.768 58.2399 124.902C58.3048 125.037 58.3629 125.174 58.4143 125.314C58.4656 125.454 58.5101 125.596 58.5475 125.74C58.8871 127.023 58.7374 128.384 58.0462 129.529C57.2079 130.918 56.0046 131.475 54.4929 131.826C53.409 131.852 52.495 131.752 51.5324 131.184C51.4013 131.107 51.2745 131.023 51.1517 130.933C51.029 130.843 50.911 130.747 50.7978 130.645C50.6847 130.544 50.5769 130.437 50.4742 130.324C50.3717 130.212 50.2749 130.094 50.1839 129.973C50.093 129.85 50.0084 129.724 49.9301 129.594C49.8515 129.464 49.7798 129.329 49.7147 129.192C49.6495 129.054 49.5913 128.914 49.5401 128.771C49.489 128.627 49.4449 128.482 49.4081 128.334C49.0981 127.051 49.2599 125.705 49.9662 124.578C50.83 123.2 52.0598 122.665 53.5678 122.309Z" fill="#FFDD33"/>
<path d="M271.445 160.334C272.182 160.169 272.87 160.265 273.583 160.13C275.586 159.753 277.444 158.918 279.5 158.606C286.482 157.549 294.018 159.733 299.927 163.463C308.392 168.809 314.072 177.575 316.249 187.286C318.526 197.449 316.372 208.824 310.805 217.593C308.985 220.457 301.462 229.527 298.702 230.192C298.843 229.824 298.887 229.431 298.89 229.04L298.905 187.448L298.895 175.721C298.892 173.632 299.1 171.196 298.702 169.142C298.304 167.091 297.129 165.156 295.671 163.683C294.272 162.269 292.637 161.261 290.704 160.755C287.927 160.027 284.551 160.379 281.692 160.379L271.445 160.334Z" fill="#DAE6F1"/>
<path d="M112.565 78.5676C112.562 75.9538 112.31 73.0807 112.667 70.502C112.995 73.4054 112.252 78.9074 112.869 81.2724C112.978 81.6901 113.256 81.9214 113.581 82.1802C113.974 82.4942 114.278 82.7351 114.338 83.2686C114.38 83.6434 114.45 84.1748 114.18 84.4563C113.154 85.528 112.658 85.198 112.604 86.9518C112.468 91.3464 112.598 95.7806 112.619 100.179C109.413 100.081 106.179 100.179 102.971 100.19L84.8201 100.239C81.8021 100.245 76.8361 100.611 74.0457 100.056C72.0646 99.6628 70.2098 98.6237 68.7422 97.2505C68.6154 97.1327 68.4916 97.0117 68.3708 96.8876C68.25 96.7634 68.1324 96.6365 68.0179 96.5067C67.9034 96.3768 67.7922 96.2439 67.6845 96.1083C67.5766 95.9729 67.4723 95.8349 67.3714 95.6943C67.2704 95.5536 67.173 95.4105 67.079 95.2649C66.9852 95.1193 66.8952 94.9715 66.8088 94.8213C66.7224 94.6714 66.6397 94.5194 66.5609 94.3653C66.4819 94.2111 66.4071 94.055 66.3361 93.8973C66.2649 93.7395 66.1977 93.5799 66.1346 93.4187C66.0716 93.2574 66.0126 93.0948 65.9574 92.9306C65.9024 92.7664 65.8516 92.6009 65.8049 92.4342C65.758 92.2675 65.7154 92.0998 65.677 91.931C65.6386 91.7621 65.6046 91.5923 65.5746 91.4218C65.5447 91.2514 65.5191 91.0802 65.4978 90.9083C65.4764 90.7367 65.4593 90.5644 65.4464 90.3917C65.4336 90.2191 65.4251 90.0461 65.421 89.8731C65.3512 87.1436 66.4846 84.424 68.3911 82.4802C70.2148 80.6211 72.8109 79.4154 75.3492 78.9258C78.8838 78.2437 84.847 78.609 88.6784 78.6092L112.565 78.5676Z" fill="#D2D9DC"/>
<path d="M86.2237 83.0175C86.7923 83.1221 86.9504 83.1478 87.3931 83.5074C87.8164 84.3866 87.6038 85.6338 87.5712 86.5922C88.2788 86.5629 89.131 86.4495 89.8241 86.5868C90.3873 86.6981 90.7744 86.9726 91.0703 87.4419L90.9057 87.8331C89.8409 88.6175 88.7565 88.4185 87.5124 88.3713C87.5738 89.4996 87.8222 90.835 87.15 91.8126C86.6202 91.739 86.4599 91.7388 86.0199 91.4099C85.5848 90.4936 85.7842 89.3573 85.824 88.3664C84.9761 88.391 83.8137 88.5424 83.009 88.2854C82.5061 88.1245 82.1465 87.9327 81.8945 87.4779L82.0509 87.1723C83.2958 86.3802 84.4115 86.5436 85.8156 86.5788C85.7712 85.423 85.5274 84.0142 86.2237 83.0175Z" fill="#002548"/>
<path d="M56.5436 234.394C50.2917 230.983 45.0877 225.155 41.2624 219.246C41.076 218.957 40.8933 218.666 40.7141 218.373C40.5348 218.079 40.3594 217.784 40.1873 217.486C40.0153 217.188 39.8471 216.889 39.6824 216.587C39.5176 216.285 39.3566 215.982 39.1993 215.676C39.0421 215.37 38.8885 215.063 38.7388 214.753C38.5891 214.444 38.4432 214.133 38.3009 213.82C38.1589 213.507 38.0207 213.192 37.8861 212.876C37.7516 212.559 37.621 212.241 37.4944 211.922C37.3676 211.602 37.2449 211.281 37.1261 210.958C37.0072 210.636 36.8922 210.312 36.7814 209.987C36.6704 209.661 36.5633 209.335 36.4603 209.007C36.3573 208.679 36.2583 208.35 36.1634 208.019C36.0685 207.689 35.9778 207.357 35.8909 207.025C35.8039 206.692 35.7211 206.359 35.6424 206.024C35.5637 205.689 35.4892 205.354 35.4187 205.018C35.3482 204.681 35.2818 204.344 35.2194 204.006C35.1572 203.668 35.099 203.329 35.0448 202.99C34.9908 202.65 34.9409 202.31 34.8952 201.97C34.8494 201.629 34.8079 201.288 34.7704 200.946C34.733 200.604 34.6999 200.262 34.6707 199.92C34.6416 199.577 34.6168 199.234 34.5963 198.891C34.5756 198.548 34.5591 198.205 34.5467 197.862C34.5344 197.518 34.5263 197.174 34.5223 196.831C34.5184 196.487 34.5186 196.143 34.5231 195.8C34.5277 195.456 34.5365 195.112 34.5493 194.769C34.5621 194.425 34.5792 194.082 34.6004 193.739C34.6216 193.396 34.647 193.053 34.6766 192.711C34.7063 192.368 34.7401 192.026 34.7781 191.685C34.8161 191.343 34.8582 191.002 34.9044 190.662C34.9507 190.321 35.0013 189.981 35.0559 189.641C35.1104 189.302 35.1691 188.964 35.232 188.626C35.2951 188.288 35.3619 187.951 35.4331 187.614C37.5422 177.902 43.1158 168.95 51.5698 163.524C59.722 158.292 68.9425 156.755 78.364 158.817C75.3148 160.616 69.4582 166.71 66.541 169.476C63.6926 172.176 59.4153 175.744 57.0415 178.774C56.7425 179.156 56.6518 179.55 56.6131 180.025C56.4326 182.239 56.5288 184.518 56.5288 186.738L56.5337 198.33L56.5436 234.394Z" fill="#DAE6F1"/>
<path d="M284.496 91.0719C285.212 90.2513 285.433 88.3887 285.833 87.3278C286.201 86.3687 286.644 85.4451 287.161 84.5573C289.263 81.0105 292.435 79.5084 296.316 78.5491C296.319 78.583 296.321 78.6168 296.327 78.6507C296.375 79.0619 296.357 79.404 296.28 79.8093C295.482 83.9534 292.738 87.8192 288.906 89.6972C287.612 90.3307 285.926 90.7183 284.766 91.5515C282.964 92.8463 281.747 94.7456 280.012 96.0888C281.172 96.5666 282.797 96.4332 284.047 96.4859C285.094 96.1252 286.09 95.6273 287.143 95.2885C290.733 94.1342 293.886 94.8024 297.202 96.445C297.217 96.4522 297.23 96.462 297.243 96.4705C300.659 95.865 304.379 96.9318 307.197 98.8822C310.511 101.174 312.585 104.51 313.26 108.476C313.943 112.482 312.901 116.552 310.544 119.847C310.409 120.038 310.269 120.225 310.123 120.409C309.978 120.593 309.828 120.773 309.674 120.95C309.52 121.127 309.362 121.299 309.199 121.468C309.037 121.636 308.871 121.801 308.701 121.962C308.53 122.122 308.355 122.279 308.178 122.43C307.998 122.582 307.816 122.73 307.631 122.873C307.446 123.016 307.257 123.154 307.063 123.288C306.872 123.421 306.677 123.55 306.478 123.675C306.28 123.799 306.078 123.918 305.872 124.032C305.667 124.146 305.46 124.255 305.251 124.359C305.041 124.463 304.828 124.561 304.612 124.655C304.398 124.748 304.181 124.836 303.963 124.919C303.743 125.002 303.522 125.079 303.298 125.151C303.075 125.223 302.851 125.289 302.625 125.35C302.399 125.411 302.172 125.466 301.943 125.515C301.713 125.565 301.483 125.609 301.252 125.647C297.738 126.2 293.885 125.899 290.32 125.897C283.667 125.587 276.901 125.882 270.237 125.86C259.685 125.826 249.1 125.61 238.553 125.793L238.577 148.303C238.58 151.504 238.898 155.454 238.494 158.594C238.169 154.604 238.412 150.396 238.404 146.384L238.395 122.878L238.472 107.719C238.483 105.25 238.27 102.591 238.564 100.152C238.772 100.009 238.941 99.9164 239.18 99.8265C239.465 99.7193 239.802 99.6372 240.029 99.4248C240.666 98.8301 240.424 97.045 240.407 96.2014C246.174 96.2571 251.941 96.2766 257.709 96.2599C259.213 96.2607 262.314 96.5352 263.63 96.2068C263.977 95.0258 263.759 93.7781 264.028 92.5934C264.295 91.4132 265.407 89.7493 265.26 88.6006C267.152 89.6522 268.731 92.4194 269.321 94.4428C269.49 95.0211 269.624 95.5097 269.483 96.1096C270.299 96.2802 275.42 96.4517 275.936 96.1188C276.357 96.5174 276.775 97.0543 276.765 97.6702C276.765 97.7274 276.757 97.7848 276.754 97.8421C276.788 97.8097 276.824 97.7802 276.855 97.7451C277.265 97.2747 277.196 96.8148 277.127 96.2404L279.208 96.2835C279.902 95.9492 284.085 91.7556 284.496 91.0719Z" fill="#D2D9DC"/>
<path d="M277.126 96.2399L279.208 96.283C279.033 96.98 277.912 98.1314 277.28 98.4735C277.244 98.4936 277.203 98.5082 277.165 98.5254C277.113 98.2748 276.903 98.0499 276.754 97.8415C276.787 97.8092 276.823 97.7796 276.854 97.7446C277.265 97.2741 277.195 96.8142 277.126 96.2399Z" fill="#D2D9DC"/>
<path d="M114.311 68.5979C114.344 67.4954 114.611 65.5609 113.751 64.7246C113.668 64.6444 113.477 64.4956 113.391 64.425C112.863 63.9943 112.796 63.7159 112.731 63.0518C112.594 61.6506 112.295 55.1082 113.027 54.1557C113.356 53.727 114.023 53.48 114.301 53.0953C114.467 52.8655 114.392 50.8629 114.391 50.454L114.36 40.5576C114.337 34.0244 114.119 28.1124 120.061 23.8398C121.964 22.4716 124.145 21.5833 126.487 21.3904C128.777 21.2018 131.127 21.2887 133.424 21.2925L144.603 21.3194L178.434 21.3191L210.409 21.3412L220.005 21.3413C221.95 21.3389 223.961 21.2251 225.892 21.4404C228.614 21.7439 231.16 22.7865 233.244 24.576C236.413 27.2962 238.215 31.1256 238.513 35.2684C238.67 37.4397 238.574 39.6648 238.571 41.8412L238.54 55.8747C238.535 58.371 238.415 60.929 238.585 63.4153C239.183 63.7497 240.134 63.907 240.335 64.6381C240.686 65.9211 240.416 70.9271 240.416 72.5768C240.413 80.449 240.331 88.3292 240.408 96.2009C240.426 97.0446 240.667 98.8296 240.031 99.4243C239.803 99.6367 239.467 99.7188 239.181 99.826C238.942 99.9158 238.774 100.009 238.565 100.152C238.272 102.59 238.485 105.25 238.473 107.718L238.397 122.877L238.406 146.384C238.413 150.396 238.17 154.603 238.496 158.594C238.9 155.454 238.581 151.503 238.578 148.302L238.554 125.793C249.101 125.609 259.686 125.825 270.239 125.86C276.902 125.881 283.668 125.587 290.321 125.897C288.666 126.122 286.882 126.019 285.208 126.014C282.041 126.004 278.871 125.941 275.703 125.971C277.531 127.283 278.688 131.352 279.048 133.495C279.997 139.159 278.178 144.952 274.866 149.547C274.534 150.007 274.189 150.455 273.829 150.893C273.468 151.33 273.094 151.756 272.705 152.169C272.319 152.583 271.918 152.983 271.504 153.371C271.092 153.759 270.666 154.132 270.228 154.493C269.79 154.853 269.341 155.199 268.881 155.53C268.422 155.862 267.952 156.178 267.471 156.48C266.992 156.781 266.503 157.066 266.003 157.336C265.505 157.606 264.999 157.86 264.484 158.097C263.005 158.78 261.452 159.294 259.974 159.976L260 160.12L260.87 160.376C264.391 160.366 267.926 160.419 271.447 160.334L281.694 160.379C284.554 160.379 287.929 160.028 290.706 160.755C292.639 161.262 294.274 162.269 295.673 163.683C297.131 165.156 298.307 167.091 298.704 169.142C299.102 171.196 298.894 173.632 298.897 175.721L298.907 187.448L298.892 229.04C298.889 229.431 298.846 229.824 298.705 230.192C299.226 231.757 298.355 234.084 297.642 235.488C296.877 236.989 295.571 238.895 294.028 239.674C296.625 239.694 313.446 239.373 314.277 240.098C314.447 240.246 314.439 240.256 314.544 240.422C314.475 240.831 314.38 240.981 314.016 241.213C312.976 241.873 310.568 241.517 309.336 241.509L97.9872 241.512L52.4004 241.535C49.5061 241.534 38.9162 241.932 36.9649 241.382C36.6361 241.289 36.4019 241.204 36.1992 240.915C36.2221 240.593 36.2752 240.521 36.5172 240.292C36.892 239.939 37.516 239.729 38.0223 239.669C39.6253 239.477 41.532 239.725 43.1693 239.728L56.5491 239.734L56.5442 234.395L56.5342 198.33L56.5293 186.738C56.5293 184.518 56.4331 182.239 56.6136 180.025C56.6523 179.55 56.743 179.156 57.042 178.774C59.4157 175.744 63.693 172.176 66.5415 169.476C69.4587 166.71 75.3153 160.617 78.3645 158.817C79.9132 158.527 81.0014 158.52 82.4752 159.136C82.048 157.858 80.6637 156.745 79.7938 155.718C76.352 151.654 72.3039 146.141 72.1861 140.607C72.1155 137.297 73.5588 134.1 75.8504 131.743C77.8073 129.73 80.4794 128.398 83.2074 127.802C87.0487 126.962 91.4302 127.386 95.3592 127.384C101.665 127.399 107.971 127.364 114.277 127.279L114.251 117.051C114.247 115.018 114.157 112.932 114.353 110.909C114.382 110.684 114.432 110.423 114.409 110.197C114.351 109.626 113.407 109.26 113.029 108.848C112.158 107.898 112.609 101.614 112.619 100.179C112.598 95.7807 112.468 91.3463 112.604 86.9519C112.658 85.1981 113.154 85.5281 114.18 84.4564C114.449 84.175 114.38 83.6435 114.338 83.2687C114.278 82.7352 113.974 82.4944 113.58 82.1803C113.256 81.9215 112.978 81.6902 112.869 81.2726C112.252 78.9076 112.995 73.4055 112.667 70.5021C112.934 69.5453 113.251 69.2813 114.068 68.7596C114.15 68.7069 114.23 68.6515 114.311 68.5979Z" fill="#002548"/>
<path d="M58.3906 220.479C60.1032 220.477 61.8273 220.517 63.5384 220.464L72.9342 220.489C74.5638 220.492 76.2849 220.599 77.9043 220.452L77.9507 220.575L77.7636 220.592C75.1829 220.808 65.0725 220.291 64.0462 220.631C63.887 220.684 63.7657 220.815 63.6255 220.907C63.4456 221.325 63.438 221.492 63.5105 221.942C63.7921 222.292 63.9569 222.261 64.3861 222.309C67.9167 222.71 71.7498 221.809 75.2378 222.44C71.3732 222.649 67.3666 222.558 63.4963 222.469C61.797 222.435 60.0977 222.433 58.3983 222.462L58.3906 220.479Z" fill="#0054A6"/>
<path d="M58.3516 204.691L61.7102 204.718C62.1941 204.789 63.0812 204.801 63.448 205.12C63.7054 210.21 63.4767 215.363 63.5376 220.464C61.8265 220.516 60.1024 220.477 58.3898 220.478L58.3516 204.691Z" fill="#FEFEFE"/>
<path d="M58.3984 222.462C60.0978 222.433 61.7971 222.435 63.4964 222.469L63.5195 233.852C63.5221 235.644 63.7468 237.851 63.4165 239.606L63.3323 239.727C61.6962 239.668 60.0445 239.71 58.4067 239.706L58.3984 222.462Z" fill="#0054A6"/>
<path d="M79.8125 160.322C80.474 160.446 81.0348 160.57 81.5972 160.969C83.4618 162.289 85.1436 163.956 86.8248 165.5C89.6883 168.143 92.5371 170.803 95.3708 173.478C97.6501 175.613 100.328 177.645 102.361 179.998L102.376 182.283L94.3728 182.269C94.3792 182.211 94.3871 182.153 94.392 182.095C94.4803 181.022 94.5988 179.574 94.1369 178.568C92.8771 175.823 88.2625 170.838 86.1886 168.264C84.0701 165.635 82.0428 162.847 79.8125 160.322Z" fill="#F7893E"/>
<path d="M58.5556 184.305C60.1698 184.313 61.8392 184.235 63.4462 184.356L63.4772 196.585C63.4839 198.621 63.3601 200.757 63.5309 202.782L63.6249 202.815C63.4636 203.452 63.4908 204.071 63.5021 204.722L61.7102 204.718L58.3516 204.691L58.376 202.845L58.4009 184.386L58.5556 184.305Z" fill="#0054A6"/>
<path d="M63.5309 202.782L63.6249 202.815C63.4636 203.452 63.4908 204.071 63.5021 204.722L61.7102 204.718L58.3516 204.691L58.376 202.845C60.0517 202.839 61.8745 202.976 63.5309 202.782Z" fill="#0054A6"/>
<path d="M94.2831 204.793L102.386 204.808L102.393 220.583L86.0597 220.555C83.385 220.552 80.614 220.395 77.9488 220.575L77.9023 220.451C79.826 220.295 81.8355 220.411 83.767 220.416L94.3656 220.438C94.3733 215.223 94.3458 210.008 94.2831 204.793Z" fill="#FFDD33"/>
<path d="M94.5083 222.459L102.4 222.451C102.412 228.197 102.392 233.942 102.342 239.687C89.3597 239.716 76.3064 240.056 63.332 239.727L63.4162 239.606L94.4246 239.563C94.5817 233.872 94.4943 228.153 94.5083 222.459Z" fill="#0054A6"/>
<path d="M102.437 184.115C102.749 189.597 102.668 197.452 102.399 202.937C99.7727 202.912 97.1315 202.941 94.5075 202.86L94.4056 184.346L63.4453 184.356C61.8385 184.235 60.1691 184.313 58.5547 184.305C59.6699 183.794 62.2367 184.129 63.5016 184.159C76.4801 184.253 89.4585 184.239 102.437 184.115Z" fill="#0054A6"/>
<path d="M249.807 171.437C249.795 170.56 249.827 169.729 250.04 168.874C250.611 166.587 251.991 164.641 254.023 163.427C255.116 162.774 256.368 162.297 257.641 162.17C260.146 161.918 287.413 161.883 288.958 162.259C291.061 162.306 293.173 163.544 294.603 165.037C295.997 166.496 297.221 168.657 297.054 170.748C297.031 171.023 296.921 171.264 296.808 171.51L282.426 171.466C279.977 171.458 277.39 171.617 274.964 171.375C272.354 171.661 269.459 171.428 266.82 171.43L249.807 171.437Z" fill="#FEFEFE"/>
<path d="M268.465 165.445C270.76 165.17 276.106 165.173 278.411 165.414C278.953 165.47 279.464 165.518 279.826 165.963C279.831 166.182 279.849 166.38 279.756 166.584C279.579 166.977 279.315 166.998 278.943 167.156C278.791 167.174 278.85 167.171 278.694 167.173C276.409 167.195 270.488 167.535 268.647 167.014C268.452 166.958 268.311 166.758 268.167 166.619C268.085 166.122 268.234 165.879 268.465 165.445Z" fill="#002548"/>
<path d="M58.3828 180.023C60.5805 177.202 64.0422 174.437 66.6818 171.925C70.42 168.369 74.0939 164.425 78.1176 161.202C78.6559 160.77 79.146 160.515 79.8135 160.323C82.0439 162.848 84.0711 165.636 86.1895 168.265C88.2635 170.839 92.878 175.824 94.1378 178.569C94.5999 179.575 94.4812 181.023 94.3929 182.096C94.388 182.154 94.3801 182.212 94.3737 182.269L63.4519 182.265L63.5048 184.16C62.2398 184.129 59.673 183.794 58.5578 184.305L58.403 184.387L58.4194 182.27C58.3731 181.526 58.3905 180.768 58.3828 180.023Z" fill="#FFDD33"/>
<path d="M58.4188 182.269L63.4512 182.264L63.5041 184.159C62.2392 184.129 59.6724 183.794 58.5572 184.305L58.4023 184.386L58.4188 182.269Z" fill="#002548"/>
<path d="M63.5029 204.721L94.285 204.793C94.3477 210.008 94.3752 215.222 94.3674 220.438L83.7688 220.415C81.8373 220.411 79.8277 220.295 77.9042 220.451C76.2848 220.598 74.5637 220.491 72.9341 220.488L63.5383 220.463C63.4774 215.363 63.7062 210.209 63.4487 205.119C63.0819 204.8 62.1948 204.789 61.7109 204.718L63.5029 204.721Z" fill="#DAE6F1"/>
<path d="M73.5663 211.424C75.6471 211.412 86.3562 210.989 87.4811 211.824C87.7724 212.04 87.7542 212.164 87.8089 212.499C87.6104 212.877 87.4123 213.072 87.0817 213.339C84.9284 213.34 74.1022 213.842 73.0331 212.906C72.7546 212.662 72.7831 212.571 72.7695 212.228C72.9961 211.89 73.2498 211.677 73.5663 211.424Z" fill="#002548"/>
<path d="M249.729 228.081C251.398 227.807 253.228 227.943 254.922 227.944L264.03 227.961L296.787 227.962C297.519 229.583 297.067 232.272 296.438 233.899C295.604 236.068 294.041 238.062 291.88 239.025C290.065 239.835 288.096 239.719 286.156 239.685C282.544 239.846 278.874 239.717 275.257 239.706L260.262 239.713C257.232 239.689 254.623 239.043 252.455 236.801C250.042 234.306 249.689 231.386 249.729 228.081Z" fill="#FEFEFE"/>
<path d="M272.755 230.941C273.461 230.875 274.057 230.828 274.716 231.157C274.803 231.201 274.889 231.249 274.973 231.302C275.055 231.354 275.135 231.41 275.211 231.471C275.288 231.531 275.363 231.595 275.435 231.663C275.505 231.73 275.572 231.801 275.635 231.875C275.7 231.949 275.761 232.026 275.817 232.107C275.874 232.187 275.926 232.269 275.974 232.355C276.022 232.44 276.065 232.527 276.105 232.617C276.144 232.706 276.179 232.798 276.21 232.891C276.474 233.705 276.4 234.625 275.956 235.363C275.458 236.194 274.711 236.585 273.797 236.805C273.484 236.839 273.184 236.823 272.876 236.746C272.016 236.532 271.276 236.073 270.866 235.267C270.465 234.474 270.453 233.517 270.768 232.693C271.136 231.734 271.872 231.327 272.755 230.941Z" fill="#002548"/>
<path d="M75.2394 222.439L94.51 222.459C94.4959 228.154 94.5834 233.873 94.4263 239.564L63.418 239.606C63.7483 237.851 63.5235 235.644 63.5209 233.852L63.4978 222.469C67.3682 222.558 71.3748 222.648 75.2394 222.439Z" fill="#0054A6"/>
<path d="M73.6243 230.384C75.9891 230.311 85.4381 229.961 86.9972 230.618C87.3956 230.786 87.4926 230.948 87.649 231.333C87.5992 231.789 87.4064 231.964 87.1056 232.278C85.113 232.255 74.4035 232.587 73.3664 232.063C73.0487 231.902 73.0564 231.749 72.957 231.433C73.1215 230.888 73.2131 230.785 73.6243 230.384Z" fill="#002548"/>
<path d="M63.4475 184.356L94.4078 184.346L94.5097 202.861C91.0424 202.739 87.5374 202.838 84.0657 202.834L63.6262 202.815L63.5322 202.783C63.3615 200.757 63.4852 198.622 63.4785 196.585L63.4475 184.356Z" fill="#0054A6"/>
<path d="M73.3801 192.575C75.5146 192.565 85.5626 192.272 87.0145 192.665C87.3833 192.765 87.4909 193.019 87.6661 193.326C87.6972 193.812 87.5804 194.034 87.3381 194.449C85.2713 194.513 74.9928 194.789 73.5931 194.426C73.1829 194.319 73.0802 194.085 72.8867 193.739C72.9029 193.23 73.0916 192.983 73.3801 192.575Z" fill="#002548"/>
<path d="M130.286 239.44C128.906 239.429 127.575 239.197 126.262 238.773C122.587 237.585 119.464 235.073 117.746 231.597C116.852 229.785 116.409 227.843 116.342 225.829C116.053 217.184 116.232 208.471 116.237 199.82L116.312 149.626L116.231 70.4085L116.218 46.976C116.214 42.86 115.963 38.55 116.32 34.4571C116.365 33.8896 116.446 33.3271 116.562 32.7698C116.679 32.2125 116.831 31.665 117.017 31.1271C118.039 28.2113 120.185 25.6973 122.99 24.3692C124.364 23.7188 125.696 23.4777 127.204 23.3989C133.147 23.0884 139.211 23.3053 145.167 23.2881L181.886 23.2919L210.514 23.3756C215.709 23.3811 221.12 23.0834 226.287 23.4691C227.283 23.5436 228.422 24.0815 229.364 24.422C228.946 25.5914 228.128 26.6771 227.944 27.894C227.932 27.9711 227.917 28.0482 227.906 28.1253C227.899 28.1721 227.895 28.2189 227.89 28.2656C226.203 27.3178 224.843 26.7387 222.907 26.5981C218.04 26.245 212.972 26.5565 208.08 26.5452L176.826 26.5211L145.51 26.5049C141.884 26.5018 131.566 26.0763 128.689 26.9C125.548 27.799 122.83 29.6885 121.229 32.5737C120.269 34.3036 119.898 36.0425 119.837 38.004C119.676 43.1683 119.793 48.363 119.799 53.5307L119.841 81.3128L119.916 162.706L119.947 207.29C119.954 210.781 119.547 222.238 120.277 224.788C121.069 227.558 123.046 230.645 125.437 232.3C126.409 234.956 128.515 237.282 130.286 239.44Z" fill="#0054A6"/>
<path d="M229.364 24.4231C232.559 26.0441 234.829 28.5695 235.938 32.0017C237.274 36.14 236.68 42.5044 236.658 46.8856L236.632 61.89L236.565 127.658L236.563 201.782C236.507 209.439 236.882 217.186 236.592 224.829C236.502 227.19 236.114 229.24 235.023 231.355C233.193 234.899 230.182 237.5 226.366 238.697C222.417 239.935 215.952 239.389 211.659 239.387L196.867 239.377L153.516 239.375C145.78 239.38 138.02 239.26 130.287 239.441C128.516 237.283 126.41 234.957 125.438 232.301C127.211 233.548 128.941 234.365 131.118 234.591C135.908 235.089 142.052 234.705 146.994 234.696L177.787 234.699L207.799 234.753C212.132 234.761 218.736 235.181 222.835 234.541C226.06 234.037 229.086 231.897 230.969 229.268C231.138 229.029 231.3 228.784 231.454 228.534C231.607 228.284 231.752 228.028 231.889 227.769C232.025 227.509 232.152 227.244 232.271 226.976C232.39 226.707 232.499 226.435 232.599 226.159C232.699 225.883 232.79 225.605 232.872 225.322C232.953 225.04 233.025 224.756 233.087 224.469C233.15 224.182 233.202 223.894 233.245 223.603C233.288 223.313 233.321 223.022 233.344 222.729C233.672 218.022 233.476 213.176 233.484 208.456L233.543 184.321L233.407 102.241L233.467 54.6279L233.475 43.6574C233.485 41.0872 233.697 38.3818 233.25 35.8434C232.651 32.4432 230.635 30.1985 227.89 28.267C227.895 28.2203 227.899 28.1734 227.906 28.1267C227.917 28.0496 227.932 27.9725 227.944 27.8954C228.128 26.6782 228.947 25.5925 229.364 24.4231Z" fill="#0054A6"/>
<path d="M238.552 125.793C249.099 125.609 259.685 125.825 270.237 125.86C276.9 125.881 283.667 125.587 290.32 125.897C288.664 126.122 286.88 126.019 285.207 126.014C282.039 126.004 278.869 125.941 275.702 125.971C277.529 127.283 278.687 131.352 279.046 133.495C279.996 139.159 278.176 144.952 274.865 149.547C274.533 150.006 274.187 150.455 273.828 150.892C273.467 151.33 273.092 151.756 272.704 152.169C272.317 152.582 271.917 152.983 271.502 153.371C271.09 153.758 270.665 154.132 270.227 154.493C269.789 154.853 269.34 155.199 268.879 155.53C268.421 155.862 267.951 156.178 267.47 156.479C266.991 156.781 266.501 157.066 266.002 157.336C265.504 157.606 264.997 157.859 264.482 158.097C263.004 158.78 261.451 159.293 259.972 159.976L259.998 160.12L260.868 160.375C259.957 160.319 259.043 160.266 258.129 160.334C257.948 160.346 257.768 160.363 257.588 160.385C257.408 160.406 257.229 160.432 257.05 160.462C256.872 160.492 256.694 160.527 256.517 160.566C256.34 160.605 256.164 160.648 255.989 160.696C255.814 160.744 255.64 160.796 255.468 160.852C255.296 160.908 255.125 160.969 254.956 161.033C254.786 161.098 254.619 161.167 254.453 161.24C254.287 161.312 254.123 161.389 253.961 161.47C253.799 161.551 253.639 161.636 253.481 161.725C253.323 161.814 253.167 161.907 253.014 162.003C252.86 162.1 252.709 162.2 252.561 162.304C252.413 162.408 252.267 162.516 252.124 162.627C251.981 162.738 251.84 162.853 251.703 162.971C251.565 163.089 251.431 163.21 251.299 163.335C251.168 163.459 251.04 163.587 250.914 163.718C250.789 163.849 250.668 163.983 250.549 164.12C249.304 165.575 248.37 167.525 248.104 169.429C247.709 172.26 247.973 175.419 247.972 178.295L247.946 195.257L247.906 218.914C247.899 222.886 247.643 227.021 247.958 230.972C248.258 234.729 249.953 237.203 252.736 239.602L229.527 239.599C230.883 238.868 232.111 238.046 233.239 236.991C235.639 234.748 237.403 231.694 238.076 228.474C238.653 225.709 238.465 222.716 238.469 219.9L238.472 208.839L238.493 175.521C238.494 169.888 238.322 164.221 238.494 158.593C238.898 155.454 238.579 151.503 238.577 148.302L238.552 125.793Z" fill="#DAE6F1"/>
<path d="M256.449 133.617C256.787 133.664 257.049 133.753 257.364 133.875C258.239 134.801 257.849 136.889 257.823 138.122C258.581 138.102 259.548 137.979 260.282 138.171C260.762 138.297 261.276 138.52 261.527 138.962L261.419 139.271C260.275 140.078 259.163 139.899 257.839 139.86C257.828 141.077 258.272 143.085 257.428 144.056C256.962 144.301 256.725 144.278 256.211 144.193C255.753 142.961 255.983 141.17 255.995 139.862C254.805 139.885 253.432 140.024 252.273 139.742C251.717 139.606 251.121 139.44 250.805 138.933C250.854 138.81 250.857 138.749 250.949 138.665C252 137.705 254.659 138.027 255.984 138.059C255.956 136.66 255.678 134.838 256.449 133.617Z" fill="#002548"/>
<path d="M114.353 110.908C114.592 114.503 114.465 118.192 114.474 121.796L114.499 140.959L114.504 199.946L114.488 218.459C114.481 221.743 114.154 225.325 114.683 228.56C115.207 231.763 117.093 234.941 119.53 237.062C120.748 238.122 122.135 238.915 123.53 239.713L104.242 239.678L104.269 198.814L104.268 188.259C104.266 185.313 104.568 182.041 103.827 179.186C103.536 178.066 85.0312 161.269 82.4751 159.135C82.048 157.858 80.6637 156.745 79.7938 155.717C76.352 151.654 72.3039 146.141 72.1861 140.606C72.1155 137.297 73.5588 134.1 75.8504 131.743C77.8073 129.73 80.4794 128.398 83.2074 127.801C87.0487 126.962 91.4302 127.386 95.3592 127.384C101.665 127.399 107.971 127.363 114.277 127.278L114.251 117.051C114.247 115.018 114.157 112.932 114.353 110.908Z" fill="#DAE6F1"/>
<path d="M87.8065 135.285C88.3176 135.229 88.8512 135.181 89.3496 135.341C90.0123 135.554 90.5912 136.13 90.914 136.734C90.9585 136.815 90.9989 136.899 91.0352 136.984C91.0713 137.07 91.1031 137.157 91.1307 137.245C91.1583 137.334 91.1813 137.424 91.1998 137.515C91.2183 137.606 91.2323 137.697 91.2417 137.79C91.251 137.882 91.2559 137.975 91.256 138.067C91.2562 138.16 91.2518 138.253 91.2427 138.345C91.2334 138.438 91.2197 138.529 91.2016 138.62C91.1833 138.711 91.1605 138.801 91.1333 138.89C90.8541 139.803 90.3127 140.157 89.5101 140.561C89.13 140.58 88.746 140.579 88.3679 140.529C88.2748 140.517 88.1826 140.5 88.0915 140.478C88.0001 140.457 87.9102 140.43 87.8218 140.399C87.7333 140.368 87.6467 140.332 87.5621 140.292C87.4772 140.251 87.3948 140.207 87.3149 140.158C87.2351 140.109 87.1578 140.055 87.0835 139.998C87.009 139.941 86.9379 139.88 86.8698 139.815C86.8019 139.751 86.7376 139.682 86.677 139.611C86.6163 139.539 86.5594 139.465 86.5065 139.387C86.1107 138.804 85.9983 138.119 86.1523 137.433C86.3853 136.394 86.9651 135.843 87.8065 135.285Z" fill="#FEFEFE"/>
<path d="M94.9692 135.29C95.45 135.239 95.9438 135.18 96.42 135.296C97.0876 135.458 97.6859 135.952 98.034 136.535C98.4406 137.216 98.5348 137.983 98.3348 138.749C98.0671 139.773 97.4184 140.232 96.5585 140.729C96.2174 140.743 95.8748 140.752 95.5348 140.714C94.734 140.625 94.0311 140.294 93.5369 139.643C93.4829 139.572 93.4331 139.499 93.3872 139.422C93.3413 139.346 93.2997 139.268 93.2624 139.187C93.225 139.106 93.1922 139.024 93.1638 138.94C93.1354 138.855 93.1117 138.77 93.0927 138.683C93.0735 138.596 93.0592 138.508 93.0495 138.42C93.0399 138.332 93.0352 138.243 93.0352 138.154C93.0353 138.065 93.0402 137.976 93.0498 137.888C93.0596 137.8 93.0741 137.712 93.0932 137.625C93.3344 136.484 94.0401 135.877 94.9692 135.29Z" fill="#FEFEFE"/>
<path d="M84.4098 141.289C86.598 141.214 98.6504 140.976 100.183 141.53C100.899 141.788 101.501 142.241 101.816 142.949C102.12 143.631 102.166 144.676 101.866 145.368C101.511 146.187 100.695 146.587 99.9164 146.903C94.6008 146.927 89.2851 146.917 83.9696 146.874C83.1123 146.389 82.4108 145.853 82.0954 144.879C81.8636 144.163 81.8762 143.421 82.252 142.756C82.7427 141.887 83.5063 141.561 84.4098 141.289Z" fill="#1661AC"/>
<path d="M249.748 173.235L287.187 173.265C290.411 173.211 293.63 173.266 296.854 173.277C296.974 173.586 297.059 173.882 297.074 174.214C297.264 178.62 297.182 225.264 296.895 225.957C296.843 226.082 296.815 226.114 296.738 226.238C295.178 226.233 293.607 226.266 292.049 226.215C290.585 226.35 289.027 226.246 287.549 226.249L278.329 226.252L249.688 226.229L249.748 173.235Z" fill="#839299"/>
<path d="M257.992 191.197C263.29 190.914 268.732 191.149 274.045 191.142L282.053 191.156C283.424 191.152 284.828 191.031 286.196 191.125C286.758 191.163 287.261 191.261 287.759 191.535C288.006 191.852 288.17 192.032 288.07 192.455C287.939 193.016 287.613 193.08 287.148 193.298C287.115 193.315 287.082 193.336 287.046 193.35C286.635 193.503 262.584 193.564 259.368 193.426C258.867 193.405 258.187 193.404 257.751 193.144C257.427 192.951 257.432 192.791 257.332 192.452C257.435 191.896 257.638 191.629 257.992 191.197Z" fill="#C0E7E5"/>
<path d="M257.899 208.655C264.08 208.549 270.277 208.649 276.457 208.656C279.656 208.659 283.085 208.396 286.255 208.658C286.886 208.71 287.402 208.82 287.911 209.221C288.067 209.642 288.108 209.826 287.882 210.24C287.626 210.711 287.264 210.737 286.791 210.872C283.624 211.225 279.183 210.937 275.818 210.94L264.517 210.957C262.445 210.961 259.886 211.255 257.892 210.771C257.594 210.523 257.382 210.402 257.355 209.977C257.32 209.443 257.589 209.056 257.899 208.655Z" fill="#C0E7E5"/>
<path d="M257.933 186.757C263.981 186.549 270.095 186.733 276.15 186.735C279.228 186.736 284.875 186.372 287.706 186.982C288.011 187.461 288.073 187.549 288.075 188.11C287.829 188.572 287.636 188.702 287.169 188.931C286.238 189.256 260.082 189.291 258.077 188.931C257.643 188.594 257.536 188.519 257.332 188.014C257.389 187.435 257.566 187.199 257.933 186.757Z" fill="#C0E7E5"/>
<path d="M258.003 204.203C263.917 203.959 269.928 204.183 275.85 204.185L283.26 204.185C284.441 204.18 285.686 204.071 286.859 204.176C287.28 204.214 287.488 204.339 287.793 204.62C287.944 204.971 288.06 205.235 287.911 205.621C287.734 206.082 287.385 206.222 286.979 206.419C286.946 206.437 286.913 206.459 286.877 206.473C286.299 206.698 262.6 206.632 259.825 206.541C259.286 206.523 258.457 206.541 257.982 206.28C257.592 206.066 257.51 205.853 257.379 205.449C257.446 204.88 257.641 204.637 258.003 204.203Z" fill="#C0E7E5"/>
<path d="M125.435 232.301C123.044 230.646 121.067 227.559 120.275 224.788C119.545 222.239 119.952 210.782 119.945 207.29L119.914 162.707L119.839 81.3133L119.797 53.5312C119.791 48.3635 119.674 43.1688 119.835 38.0045C119.896 36.043 120.267 34.3041 121.227 32.5742C122.828 29.689 125.546 27.7995 128.687 26.9005C131.564 26.0768 141.882 26.5024 145.508 26.5055L176.824 26.5216L208.078 26.5458C212.97 26.5571 218.038 26.2454 222.905 26.5987C224.841 26.7392 226.201 27.3185 227.888 28.2662C230.632 30.1976 232.648 32.4423 233.247 35.8426C233.694 38.381 233.482 41.0864 233.472 43.6565L233.464 54.627L233.404 102.24L233.541 184.32L233.481 208.456C233.473 213.175 233.67 218.021 233.342 222.728C233.319 223.021 233.286 223.312 233.243 223.602C233.2 223.893 233.147 224.181 233.085 224.468C233.023 224.755 232.951 225.04 232.869 225.322C232.788 225.604 232.697 225.883 232.597 226.158C232.497 226.434 232.387 226.706 232.269 226.975C232.15 227.244 232.023 227.508 231.886 227.768C231.75 228.028 231.605 228.283 231.452 228.533C231.298 228.783 231.136 229.028 230.966 229.267C229.083 231.896 226.058 234.036 222.832 234.54C218.734 235.18 212.129 234.761 207.796 234.752L177.785 234.698L146.992 234.695C142.05 234.704 135.906 235.088 131.116 234.59C128.938 234.365 127.209 233.548 125.435 232.301Z" fill="#002548"/>
<path d="M121.645 44.388L121.792 43.9225C123.11 43.4503 141.134 43.7694 143.741 43.7688L207.687 43.7629L223.495 43.7822C225.109 43.7765 230.042 43.4542 231.337 43.8305C231.45 43.8633 231.482 43.8999 231.563 43.9659C231.665 44.4406 231.679 44.8516 231.666 45.336C230.387 45.7775 216.8 45.4768 214.482 45.4794L155.285 45.4883L133.261 45.4542C129.568 45.4493 125.8 45.6456 122.117 45.4154C121.75 45.147 121.76 44.8185 121.645 44.388Z" fill="#FFDD33"/>
<path d="M130.116 28.4129C133.167 28.2844 136.25 28.3603 139.304 28.3536L157.041 28.379L199.314 28.3713L216.297 28.3834C218.422 28.3872 221.782 28.0722 223.735 28.5345C225.588 28.9734 227.559 30.0195 228.897 31.3812C231.849 34.3854 231.694 38.0206 231.634 41.9339L223.559 41.8988L121.738 41.9504C121.691 38.9048 121.456 36.005 123.09 33.2868C124.686 30.6309 127.179 29.1683 130.116 28.4129Z" fill="#FEFEFE"/>
<path d="M164.362 34.0354C169.784 33.9531 175.218 34.0359 180.642 34.0226C182.443 34.0182 186.397 33.736 187.871 34.0816C188.29 34.1796 188.375 34.3697 188.579 34.7229C188.6 35.2456 188.517 35.4636 188.242 35.9049C183.23 36.027 178.189 35.9056 173.173 35.9157C170.619 35.9208 167.336 36.233 164.874 35.8449C164.401 35.7703 164.291 35.6689 164.005 35.2937C163.961 34.7424 164.082 34.505 164.362 34.0354Z" fill="#002548"/>
<path d="M121.645 44.3879C121.76 44.8184 121.75 45.1469 122.117 45.4152C125.799 45.6453 129.567 45.4491 133.261 45.454L155.285 45.4881L214.482 45.4791C216.8 45.4766 230.387 45.7772 231.666 45.3357C231.587 50.028 231.664 54.7344 231.663 59.4283L121.735 59.4131C121.73 54.4272 121.913 49.3634 121.645 44.3879Z" fill="#839299"/>
<path d="M209.131 49.6173C209.587 49.5993 210.084 49.5641 210.532 49.6769C211.28 49.8651 212 50.3718 212.369 51.0553C212.758 51.7748 212.78 52.5848 212.537 53.3554C212.181 54.4868 211.44 55.0078 210.445 55.5203C210.043 55.5591 209.592 55.5624 209.196 55.4779C209.09 55.4543 208.985 55.425 208.883 55.3902C208.78 55.3553 208.679 55.315 208.581 55.2692C208.483 55.2234 208.387 55.1724 208.294 55.1163C208.201 55.0602 208.112 54.9992 208.026 54.9331C207.94 54.8672 207.857 54.797 207.779 54.7223C207.7 54.6476 207.626 54.5689 207.556 54.4861C207.485 54.4031 207.42 54.3167 207.36 54.227C207.299 54.137 207.243 54.0441 207.192 53.9482C206.832 53.2574 206.793 52.4332 207.021 51.6947C207.365 50.5772 208.146 50.0991 209.131 49.6173Z" fill="#FEFEFE"/>
<path d="M220.388 49.6012C220.834 49.5974 221.312 49.5786 221.746 49.6884C222.514 49.8826 223.216 50.3846 223.621 51.0676C224.017 51.7373 224.081 52.5595 223.865 53.2995C223.521 54.4725 222.76 54.9986 221.74 55.5252C221.243 55.5662 220.672 55.599 220.194 55.4501C219.472 55.2254 218.829 54.6392 218.491 53.9695C218.446 53.879 218.405 53.7865 218.368 53.6922C218.332 53.5976 218.3 53.5015 218.273 53.4041C218.246 53.3064 218.224 53.2078 218.206 53.108C218.189 53.0082 218.177 52.9078 218.169 52.8069C218.161 52.706 218.159 52.6049 218.161 52.5036C218.163 52.4023 218.171 52.3016 218.183 52.2009C218.195 52.1004 218.212 52.0006 218.234 51.9018C218.257 51.8031 218.283 51.7056 218.315 51.6093C218.666 50.538 219.43 50.0556 220.388 49.6012Z" fill="#FEFEFE"/>
<path d="M131 48.9227C133.932 48.8657 142.081 48.5626 144.525 49.0802C145.151 49.2128 145.438 49.3719 145.785 49.8913C145.678 50.5618 145.275 50.8699 144.755 51.2779C142.611 51.2877 131.348 51.7617 130.321 50.7172C130.049 50.4412 130.093 50.3106 130.086 49.9469C130.319 49.4732 130.589 49.247 131 48.9227Z" fill="#FFDD33"/>
<path d="M131.287 53.0799C134.262 53.0142 137.249 53.0781 140.225 53.0704C141.557 53.0668 143.051 52.8867 144.356 53.0522C144.813 53.1102 145.085 53.2535 145.44 53.5362C145.67 53.9846 145.667 54.1949 145.581 54.6871C145.317 55.1294 145.106 55.2579 144.644 55.4761C142.155 55.4625 139.662 55.4181 137.173 55.4396C135.398 55.4548 133.433 55.6386 131.683 55.3765C131.094 55.2883 130.636 55.1588 130.183 54.7578C130.037 54.2895 130.034 54.1351 130.274 53.6936C130.48 53.3148 130.904 53.1997 131.287 53.0799Z" fill="#FFDD33"/>
<path d="M121.785 61.242L231.624 61.2471L231.6 174.882L231.589 207.433L231.615 216.714C231.628 218.727 231.749 220.801 231.525 222.802C231.233 225.415 230.06 227.575 228.345 229.537C225.948 231.823 223.318 232.844 220.024 232.889C212.958 232.985 205.869 232.825 198.8 232.811L158.82 232.806L141.212 232.81C137.907 232.826 134.28 233.162 131.028 232.67C128.745 232.325 126.586 231.002 124.961 229.398C123.372 227.83 122.201 225.461 121.929 223.247C121.689 221.293 121.814 219.217 121.812 217.247L121.812 206.92L121.834 172.263L121.785 61.242Z" fill="#FEFEFE"/>
<path d="M173.896 148.922C175.87 148.936 187.203 148.616 188.19 149.054C188.507 149.194 188.512 149.347 188.623 149.647C188.571 150.18 188.451 150.415 188.092 150.81C184.992 150.7 181.889 150.755 178.787 150.772C177.364 150.78 175.711 150.954 174.321 150.711C173.879 150.634 173.79 150.488 173.532 150.134C173.484 149.622 173.648 149.361 173.896 148.922Z" fill="#DAE6F1"/>
<path d="M173.939 102.265L182.452 102.232C184.038 102.228 185.72 102.118 187.293 102.316C187.902 102.392 188.101 102.459 188.476 102.929C188.449 103.45 188.321 103.593 188.051 104.029C186.026 104.235 175.866 104.373 174.154 104.034C173.768 103.957 173.673 103.774 173.466 103.462C173.446 102.928 173.637 102.691 173.939 102.265Z" fill="#DAE6F1"/>
<path d="M173.945 142.615L189.242 142.62C192.066 142.615 194.914 142.514 197.734 142.624C198.408 142.65 198.749 142.702 199.223 143.217C199.298 143.715 199.194 143.861 199.006 144.318C194.925 144.639 190.614 144.374 186.507 144.388C182.749 144.4 178.29 144.718 174.601 144.354C174.089 144.303 173.906 144.169 173.59 143.779C173.592 143.229 173.671 143.101 173.945 142.615Z" fill="#DAE6F1"/>
<path d="M174.063 95.8011C177.14 95.9897 196.579 95.639 197.763 96.2136C198.07 96.3626 198.078 96.5081 198.187 96.8067C198.099 97.3033 197.915 97.486 197.559 97.8319C192.813 97.8945 188.058 97.8399 183.311 97.8376C180.247 97.8361 177.101 97.9784 174.048 97.7527C173.655 97.4973 173.603 97.467 173.398 97.0174C173.483 96.4538 173.687 96.2192 174.063 95.8011Z" fill="#DAE6F1"/>
<path d="M173.711 89.5878C183.828 89.5991 193.955 89.4981 204.071 89.614C205.056 89.6253 206.34 89.4673 207.072 90.2148C207.138 90.7453 206.965 90.9092 206.717 91.3716C198.776 91.2888 190.831 91.4238 182.888 91.376C180.174 91.3596 177.147 91.661 174.469 91.347C173.976 91.289 173.94 91.2807 173.574 90.933C173.454 90.4025 173.545 90.0987 173.711 89.5878Z" fill="#DAE6F1"/>
<path d="M174.399 136.515C182.409 136.73 190.474 136.517 198.488 136.5C201.953 136.493 205.763 136.176 209.18 136.681C209.46 137.12 209.472 137.15 209.427 137.668C209.103 138.055 209.033 138.092 208.551 138.247C202.79 138.412 196.981 138.217 191.212 138.238C186.016 138.256 180.729 138.514 175.544 138.29C174.728 138.255 174.062 138.285 173.48 137.647L173.508 137.212C173.816 136.781 173.911 136.731 174.399 136.515Z" fill="#DAE6F1"/>
<path d="M147.111 137.169C148.511 137.027 149.793 137.078 151.084 137.686C152.576 138.389 153.737 139.736 154.269 141.291C154.302 141.389 154.333 141.487 154.362 141.586C154.391 141.685 154.417 141.784 154.441 141.884C154.465 141.984 154.486 142.085 154.504 142.186C154.523 142.288 154.539 142.389 154.552 142.491C154.566 142.593 154.576 142.696 154.585 142.798C154.593 142.901 154.599 143.004 154.602 143.106C154.605 143.209 154.605 143.312 154.603 143.415C154.601 143.518 154.596 143.621 154.589 143.723C154.581 143.826 154.571 143.929 154.559 144.031C154.546 144.133 154.531 144.235 154.514 144.336C154.496 144.437 154.475 144.538 154.453 144.639C154.43 144.739 154.405 144.839 154.377 144.938C154.349 145.037 154.318 145.135 154.286 145.233C154.253 145.331 154.218 145.427 154.18 145.523C154.142 145.619 154.102 145.714 154.059 145.807C154.017 145.901 153.972 145.994 153.925 146.085C153.014 147.866 151.516 148.835 149.663 149.442C149.497 149.474 149.33 149.501 149.162 149.52C148.994 149.539 148.825 149.552 148.656 149.557C148.487 149.563 148.318 149.562 148.149 149.554C147.98 149.546 147.811 149.531 147.643 149.509C147.476 149.488 147.309 149.46 147.143 149.425C146.978 149.39 146.814 149.348 146.652 149.3C146.49 149.251 146.33 149.197 146.172 149.136C146.014 149.074 145.859 149.007 145.707 148.933C145.612 148.886 145.519 148.837 145.426 148.786C145.334 148.735 145.243 148.681 145.153 148.625C145.063 148.57 144.975 148.511 144.888 148.451C144.801 148.391 144.716 148.329 144.632 148.264C144.549 148.2 144.466 148.133 144.386 148.065C144.306 147.996 144.227 147.926 144.15 147.853C144.073 147.781 143.998 147.707 143.925 147.631C143.852 147.554 143.78 147.476 143.711 147.397C143.641 147.317 143.574 147.236 143.509 147.153C143.443 147.07 143.38 146.985 143.319 146.899C143.258 146.813 143.199 146.725 143.142 146.636C143.085 146.547 143.031 146.456 142.978 146.364C142.926 146.273 142.876 146.18 142.828 146.085C142.781 145.991 142.735 145.896 142.692 145.799C142.65 145.702 142.609 145.605 142.571 145.506C142.533 145.408 142.497 145.308 142.464 145.208C141.936 143.618 142.1 141.909 142.862 140.422C143.794 138.601 145.22 137.757 147.111 137.169Z" fill="#FFDD33"/>
<path d="M134.114 128.844C134.669 128.914 135.041 129.003 135.441 129.393C135.911 131.593 135.577 135.652 135.574 138.036L135.552 157.538L161.873 157.541L161.863 141.892C161.861 139.678 161.683 137.34 161.852 135.143C161.893 134.622 161.986 134.247 162.387 133.903C162.872 133.859 162.945 133.919 163.364 134.131C163.497 134.336 163.593 134.494 163.613 134.743C163.808 137.101 163.626 139.639 163.628 142.012L163.64 157.543L217.808 157.536L217.775 150.014L217.768 137.892C217.765 135.756 217.652 133.545 217.803 131.416C217.849 130.779 217.943 130.438 218.417 130.026L218.74 130.1C219.217 130.53 219.408 130.981 219.533 131.607C219.844 133.169 219.549 138.052 219.548 140.02L219.548 152.4C219.549 154.21 219.65 156.057 219.574 157.862C219.554 158.349 219.501 158.705 219.219 159.106C218.554 159.374 217.86 159.408 217.151 159.415C197.812 159.605 178.446 159.382 159.104 159.393L142.465 159.4C139.823 159.4 136.69 159.711 134.099 159.221C133.962 159.034 133.908 158.895 133.859 158.668C133.284 156.038 133.702 149.696 133.696 146.603L133.661 135.953C133.654 134.043 133.556 132.08 133.679 130.175C133.713 129.652 133.837 129.286 134.114 128.844Z" fill="#002548"/>
<path d="M147.545 79.3104C147.728 79.296 147.904 79.2786 148.087 79.304C148.548 79.3687 164.688 90.5978 165.088 91.2439C165.242 91.4925 165.247 91.8062 165.127 92.0727C165.019 92.3123 164.819 92.506 164.574 92.5868C163.797 92.8422 162.56 91.9838 161.867 91.6166L161.866 111.181L217.727 111.158L217.734 82.261L188.478 82.2476L179.515 82.2443C178.024 82.2502 176.504 82.3625 175.017 82.2818C174.327 82.244 173.478 82.135 172.915 81.7105C172.647 81.5082 172.705 81.5048 172.648 81.2039C172.689 81.1549 172.728 81.1041 172.772 81.0574C173.155 80.6465 173.94 80.5115 174.478 80.4536C175.961 80.2933 177.59 80.4454 179.09 80.448L189.301 80.4601L208.841 80.4626C211.486 80.4629 216.56 80.0358 218.922 80.7173C219.175 80.7903 219.267 80.7589 219.39 80.9969C219.753 81.6983 219.799 110.951 219.307 112.574C219.22 112.641 219.191 112.674 219.073 112.709C217.145 113.286 209.285 112.917 206.918 112.917L178.955 112.919L148.496 113.003L139.584 113.017C138.164 113.02 136.642 113.161 135.235 112.996C134.86 112.952 134.607 112.878 134.279 112.692C133.649 111.357 134.003 94.4658 134.004 91.7938C133.561 92.0171 133.069 92.3147 132.597 92.4615C132.164 92.5964 131.932 92.4651 131.552 92.2906C131.267 91.8925 131.226 91.8545 131.211 91.3392C131.868 90.0545 145.323 80.8152 147.545 79.3104Z" fill="#002548"/>
<path d="M147.862 83.9294C149.293 84.2759 157.834 89.7782 160.021 90.961L160.025 111.175L152.71 111.164L152.777 97.2687L148.285 97.2698L143.004 97.2734L142.988 111.198L135.914 111.193L135.923 91.5412C139.643 88.7997 143.803 86.1356 147.862 83.9294Z" fill="#FEFEFE"/>
<path d="M134.18 178.063C138.2 177.944 142.256 178.052 146.279 178.053L169.53 178.039L201.306 178.018C206.519 178.022 211.751 177.933 216.961 178.037C217.6 178.05 218.731 177.964 219.252 178.31C219.499 179.001 219.558 179.747 219.575 180.476C219.722 186.531 219.529 192.627 219.544 198.687C219.552 201.726 219.86 207.022 219.514 209.746C219.447 210.274 219.333 210.393 218.983 210.765C199.743 210.548 180.487 210.694 161.246 210.699L144.626 210.717C141.104 210.721 137.518 210.886 134.013 210.52C133.894 210.303 133.839 210.142 133.792 209.895C133.462 208.161 133.642 206.169 133.648 204.399L133.676 194.712L133.658 184.608C133.654 182.87 133.536 181.04 133.705 179.313C133.755 178.808 133.89 178.478 134.18 178.063Z" fill="#002548"/>
<path d="M158.049 179.81L161.833 179.79L161.835 208.908C154.572 208.796 147.294 208.902 140.03 208.912L135.551 208.91L135.592 179.887L158.049 179.81Z" fill="#FEFEFE"/>
<path d="M147.473 187.792C148.892 187.698 150.147 187.872 151.393 188.592C151.486 188.647 151.577 188.703 151.667 188.762C151.757 188.821 151.845 188.882 151.932 188.945C152.019 189.009 152.104 189.074 152.188 189.142C152.272 189.209 152.354 189.278 152.434 189.35C152.514 189.421 152.592 189.495 152.669 189.57C152.745 189.646 152.82 189.723 152.893 189.802C152.966 189.881 153.036 189.962 153.105 190.045C153.174 190.127 153.241 190.211 153.305 190.297C153.37 190.383 153.432 190.47 153.493 190.559C153.553 190.648 153.611 190.739 153.667 190.831C153.723 190.923 153.776 191.016 153.827 191.11C153.878 191.205 153.927 191.301 153.974 191.397C154.02 191.494 154.064 191.592 154.106 191.691C154.147 191.79 154.187 191.89 154.223 191.992C154.26 192.093 154.294 192.194 154.326 192.297C154.357 192.4 154.386 192.503 154.413 192.608C154.438 192.706 154.46 192.805 154.48 192.905C154.499 193.005 154.517 193.105 154.532 193.206C154.547 193.306 154.559 193.407 154.569 193.508C154.579 193.609 154.587 193.71 154.592 193.812C154.597 193.914 154.6 194.015 154.6 194.117C154.6 194.218 154.598 194.32 154.593 194.422C154.588 194.523 154.581 194.624 154.571 194.726C154.562 194.827 154.55 194.928 154.535 195.028C154.521 195.129 154.504 195.229 154.484 195.329C154.465 195.429 154.443 195.528 154.419 195.627C154.394 195.725 154.368 195.823 154.339 195.921C154.31 196.018 154.278 196.115 154.245 196.211C154.211 196.307 154.175 196.402 154.136 196.496C154.098 196.59 154.058 196.683 154.015 196.775C153.972 196.867 153.927 196.959 153.879 197.049C153.832 197.139 153.783 197.227 153.731 197.315C152.66 199.105 151.071 199.87 149.117 200.363C147.862 200.494 146.46 200.188 145.354 199.585C145.262 199.534 145.171 199.481 145.082 199.427C144.993 199.371 144.905 199.314 144.819 199.255C144.733 199.196 144.648 199.134 144.564 199.07C144.481 199.007 144.399 198.941 144.32 198.874C144.239 198.806 144.161 198.736 144.085 198.665C144.008 198.593 143.933 198.52 143.86 198.445C143.788 198.369 143.717 198.292 143.648 198.213C143.579 198.135 143.512 198.054 143.447 197.972C143.382 197.889 143.319 197.806 143.258 197.72C143.197 197.635 143.139 197.548 143.082 197.46C143.026 197.372 142.971 197.282 142.92 197.191C142.868 197.1 142.818 197.008 142.771 196.914C142.723 196.821 142.678 196.726 142.636 196.63C142.593 196.535 142.553 196.438 142.515 196.34C142.477 196.242 142.442 196.144 142.409 196.044C142.376 195.945 142.346 195.844 142.318 195.743C141.879 194.109 142.197 192.363 143.045 190.913C144.071 189.159 145.559 188.306 147.473 187.792Z" fill="#839299"/>
<path d="M163.617 179.847L217.721 179.868C217.809 189.533 217.798 199.237 217.666 208.902L163.662 208.912L163.617 179.847Z" fill="#FEFEFE"/>
<path d="M174.022 200.115C176.915 200.134 179.808 200.136 182.701 200.122C184.451 200.112 186.278 200.002 188.02 200.163C188.544 200.211 188.835 200.297 189.174 200.702C189.205 201.237 189.107 201.341 188.857 201.798C186.592 201.915 184.273 201.823 182.002 201.826C179.679 201.829 177.307 201.929 174.989 201.815C174.34 201.782 174.185 201.799 173.751 201.318C173.716 200.761 173.781 200.626 174.022 200.115Z" fill="#DAE6F1"/>
<path d="M174.039 193.78C179.476 193.669 184.933 193.847 190.371 193.887C192.906 193.905 195.825 193.609 198.322 193.962C198.696 194.014 198.864 194.194 199.084 194.491C199.081 195.058 198.961 195.2 198.685 195.681C193.926 196.026 188.418 195.672 183.576 195.666C181.377 195.663 176.12 195.976 174.383 195.595C173.983 195.507 173.904 195.352 173.696 195.017C173.661 194.473 173.729 194.227 174.039 193.78Z" fill="#DAE6F1"/>
<path d="M173.85 187.593C181.366 187.333 188.964 187.603 196.488 187.593L204.614 187.582C205.876 187.581 207.353 187.44 208.587 187.661C209.001 187.735 209.106 187.852 209.354 188.18C209.396 188.655 209.25 188.881 209.011 189.284L185.797 189.342C182.631 189.348 177.64 189.65 174.633 189.299C174.148 189.242 174.037 189.191 173.683 188.858C173.551 188.365 173.683 188.063 173.85 187.593Z" fill="#DAE6F1"/>
</svg>
