<svg width="420" height="280" viewBox="0 0 420 280" fill="none" xmlns="http://www.w3.org/2000/svg">
<g clip-path="url(#clip0_14832_40815)">
<path d="M284.294 67.8585C278.739 65.665 272.75 64.391 266.811 64.1256C250.562 63.3987 235.302 70.1758 219.388 72.2254C208.769 73.5929 197.957 73.4501 187.378 71.8032C176.904 70.1725 167.118 64.8861 156.382 66.4479C143.861 68.269 133.279 77.4457 129.204 89.3553C127.187 95.2493 126.823 101.664 128.316 107.722C128.996 110.477 130.904 113.085 129.777 115.893C128.723 118.52 125.201 120.062 122.916 121.37C118.026 124.17 114.012 127.572 110.484 132.021C101.491 143.361 97.5321 158.321 100.824 172.529C106.225 195.838 129.491 211.427 153.066 207.999C170.608 205.447 184.45 193.471 190.213 177.947C197.87 171.85 205.181 165.388 212.238 159.881C229.504 146.405 246.7 141.218 268.049 138.08C281.275 136.136 295.43 132.55 303.761 122.096C319.615 102.2 305.121 76.0827 284.294 67.8585Z" fill="#002548"/>
<path d="M139.491 190.485L137.344 190.797C136.997 189.663 136.536 188.588 135.968 187.584L137.667 186.244C137.885 186.072 137.922 185.756 137.751 185.538L135.319 182.456C135.147 182.239 134.832 182.202 134.614 182.373L132.918 183.711C132.061 182.914 131.122 182.213 130.114 181.619L130.913 179.612C131.016 179.355 130.89 179.062 130.633 178.96L126.986 177.507C126.728 177.405 126.436 177.53 126.334 177.788L125.533 179.798C124.409 179.539 123.247 179.404 122.061 179.395L121.749 177.247C121.709 176.973 121.454 176.782 121.179 176.823L117.295 177.388C117.021 177.428 116.83 177.683 116.87 177.957L117.183 180.105C116.049 180.452 114.974 180.912 113.97 181.48L112.629 179.781C112.457 179.563 112.141 179.526 111.924 179.698L108.842 182.13C108.624 182.302 108.587 182.618 108.759 182.835L110.096 184.531C109.3 185.387 108.599 186.327 108.005 187.335L106.965 186.92C108.537 189.338 110.328 191.593 112.303 193.666C113.075 189.69 116.271 186.449 120.506 185.833C125.862 185.054 130.836 188.764 131.615 194.12C132.212 198.225 130.167 202.098 126.77 204.038C129.056 205.102 131.424 205.995 133.86 206.688L133.737 206.531C134.533 205.675 135.234 204.735 135.829 203.727L137.835 204.527C138.093 204.63 138.385 204.504 138.488 204.247L139.941 200.6C140.043 200.342 139.918 200.05 139.66 199.947L137.65 199.147C137.909 198.023 138.044 196.861 138.053 195.675L140.201 195.363C140.475 195.323 140.666 195.068 140.625 194.793L140.06 190.908C140.021 190.635 139.766 190.445 139.491 190.485Z" fill="white"/>
<path d="M121.681 193.913C120.787 194.043 120.168 194.873 120.299 195.767C120.429 196.661 121.258 197.28 122.152 197.15C123.046 197.02 123.665 196.19 123.535 195.296C123.405 194.403 122.575 193.784 121.681 193.913Z" fill="white"/>
<path d="M108.589 178.905L108.277 176.757C109.411 176.411 110.486 175.95 111.49 175.382L112.83 177.081C113.002 177.299 113.318 177.336 113.536 177.164L116.618 174.732C116.835 174.56 116.872 174.245 116.701 174.027L115.363 172.331C116.16 171.474 116.861 170.535 117.455 169.527L119.462 170.327C119.719 170.429 120.012 170.304 120.114 170.046L121.567 166.4C121.669 166.142 121.544 165.85 121.286 165.747L119.276 164.946C119.535 163.822 119.67 162.661 119.679 161.475L121.827 161.162C122.101 161.123 122.292 160.868 122.251 160.593L121.686 156.708C121.646 156.434 121.392 156.243 121.117 156.284L118.969 156.596C118.622 155.462 118.162 154.387 117.594 153.383L119.293 152.043C119.511 151.871 119.548 151.555 119.376 151.337L116.944 148.256C116.772 148.038 116.456 148.001 116.238 148.172L114.543 149.51C113.686 148.714 112.746 148.012 111.739 147.418L112.538 145.411C112.64 145.154 112.515 144.861 112.257 144.759L108.611 143.306C108.353 143.204 108.061 143.329 107.958 143.587L107.158 145.597C106.034 145.338 104.872 145.204 103.686 145.194L103.488 143.837C102.389 146.451 101.516 149.152 100.883 151.907C101.289 151.792 101.703 151.694 102.131 151.632C107.487 150.853 112.461 154.563 113.24 159.919C114.019 165.276 110.309 170.25 104.952 171.028C103.378 171.258 101.841 171.09 100.43 170.615C100.548 171.254 100.676 171.892 100.823 172.528C101.21 174.199 101.7 175.825 102.264 177.414C102.64 177.443 103.017 177.463 103.398 177.466L103.711 179.614C103.75 179.888 104.006 180.079 104.28 180.038L108.165 179.473C108.439 179.434 108.63 179.179 108.589 178.905Z" fill="white"/>
<path d="M105.164 161.095C105.034 160.202 104.204 159.582 103.31 159.713C102.416 159.843 101.797 160.672 101.928 161.566C102.057 162.46 102.887 163.079 103.781 162.949C104.674 162.819 105.294 161.989 105.164 161.095Z" fill="white"/>
<path d="M138.056 197.744C133.485 197.744 129.766 194.025 129.766 189.453V73.5286C129.766 68.9567 133.485 65.2378 138.056 65.2378H311.14C315.711 65.2378 319.43 68.9567 319.43 73.5286V189.454C319.43 194.025 315.711 197.744 311.14 197.744L138.056 197.744Z" fill="#002548"/>
<path d="M311.14 196.625H138.058C134.097 196.625 130.887 193.414 130.887 189.454V73.5287C130.887 69.5684 134.097 66.3579 138.058 66.3579H311.141C315.101 66.3579 318.311 69.5684 318.311 73.5287V189.454C318.311 193.414 315.1 196.625 311.14 196.625Z" fill="#839299"/>
<path d="M138.058 192.144C136.575 192.144 135.367 190.937 135.367 189.453V73.5287C135.367 72.0452 136.574 70.8379 138.058 70.8379H311.141C312.625 70.8379 313.832 72.0447 313.832 73.5287V189.454C313.832 190.937 312.625 192.145 311.141 192.145L138.058 192.144Z" fill="#4C6CF1"/>
<path d="M313.831 86.4289V73.5287C313.831 72.0452 312.625 70.8379 311.141 70.8379H138.058C136.575 70.8379 135.367 72.0447 135.367 73.5287V86.4289H313.831Z" fill="white"/>
<path opacity="0.25" d="M138.054 192.144C136.571 192.144 135.363 190.937 135.363 189.453V73.5284C135.363 72.045 136.57 70.8376 138.054 70.8376H311.137C312.621 70.8376 313.828 72.0444 313.828 73.5284L139.728 75.2286L138.054 192.144Z" fill="white"/>
<path d="M307.771 161.55H238.711V194.653H307.771V161.55Z" fill="#1E2778"/>
<path d="M307.771 189.761H238.711V194.653H307.771V189.761Z" fill="#141B5E"/>
<path d="M262.568 164.051H246.681C243.665 164.051 241.211 166.504 241.211 169.521V183.359H262.568V164.051Z" fill="#839299"/>
<path d="M299.801 164.051H263.715V183.359H305.271V169.521C305.271 166.504 302.817 164.051 299.801 164.051Z" fill="#839299"/>
<path d="M268.763 166.412H266.68V168.496H268.763V166.412Z" fill="#FFDD33"/>
<path d="M268.763 170.579H266.68V172.663H268.763V170.579Z" fill="#0092F1"/>
<path d="M268.763 174.746H266.68V176.83H268.763V174.746Z" fill="#FFDD33"/>
<path d="M268.763 178.914H266.68V180.998H268.763V178.914Z" fill="#0092F1"/>
<path d="M272.615 166.412H270.531V168.496H272.615V166.412Z" fill="white"/>
<path d="M272.615 170.579H270.531V172.663H272.615V170.579Z" fill="#FFDD33"/>
<path d="M272.615 174.746H270.531V176.83H272.615V174.746Z" fill="#0092F1"/>
<path d="M272.615 178.914H270.531V180.998H272.615V178.914Z" fill="white"/>
<path d="M276.47 166.412H274.387V168.496H276.47V166.412Z" fill="#0092F1"/>
<path d="M276.47 170.579H274.387V172.663H276.47V170.579Z" fill="white"/>
<path d="M276.47 174.747H274.387V176.83H276.47V174.747Z" fill="#0092F1"/>
<path d="M276.47 178.914H274.387V180.998H276.47V178.914Z" fill="#FFDD33"/>
<path d="M298.208 166.412H278.242V168.496H298.208V166.412Z" fill="#1E2778"/>
<path d="M298.208 170.579H278.242V172.663H298.208V170.579Z" fill="#1E2778"/>
<path d="M298.208 174.747H278.242V176.83H298.208V174.747Z" fill="#1E2778"/>
<path d="M298.208 178.914H278.242V180.998H298.208V178.914Z" fill="#1E2778"/>
<path d="M257.388 179.206C260.426 176.168 260.426 171.243 257.388 168.205C254.35 165.167 249.425 165.167 246.387 168.205C243.349 171.243 243.349 176.168 246.387 179.206C249.425 182.244 254.35 182.244 257.388 179.206Z" fill="white"/>
<path d="M256.596 178.412C259.196 175.813 259.196 171.598 256.596 168.999C253.997 166.4 249.782 166.4 247.183 168.999C244.584 171.598 244.584 175.813 247.183 178.412C249.783 181.012 253.997 181.012 256.596 178.412Z" fill="#1E2778"/>
<path d="M248.766 173.705C248.766 171.979 250.165 170.58 251.891 170.58C253.617 170.58 255.016 171.979 255.016 173.705C255.016 175.431 253.617 176.831 251.891 176.831C250.165 176.831 248.766 175.431 248.766 173.705Z" fill="#141B5E"/>
<path d="M248.124 185.824H241.211V187.074H248.124V185.824Z" fill="#FFDD33"/>
<path d="M259.554 185.824H252.641V187.074H259.554V185.824Z" fill="#FFDD33"/>
<path d="M270.984 185.824H264.07V187.074H270.984V185.824Z" fill="#839299"/>
<path d="M282.409 185.824H275.496V187.074H282.409V185.824Z" fill="#839299"/>
<path d="M293.839 185.824H286.926V187.074H293.839V185.824Z" fill="#839299"/>
<path d="M305.269 185.824H298.355V187.074H305.269V185.824Z" fill="#839299"/>
<path d="M307.771 194.653H238.711V227.756H307.771V194.653Z" fill="#1E2778"/>
<path d="M307.771 222.864H238.711V227.756H307.771V222.864Z" fill="#141B5E"/>
<path d="M262.568 197.153H246.681C243.665 197.153 241.211 199.607 241.211 202.623V216.461H262.568V197.153Z" fill="#839299"/>
<path d="M299.801 197.153H263.715V216.461H305.271V202.623C305.271 199.607 302.817 197.153 299.801 197.153Z" fill="#839299"/>
<path d="M268.763 199.515H266.68V201.598H268.763V199.515Z" fill="#FFDD33"/>
<path d="M268.763 203.682H266.68V205.766H268.763V203.682Z" fill="#0092F1"/>
<path d="M268.763 207.849H266.68V209.933H268.763V207.849Z" fill="#FFDD33"/>
<path d="M268.763 212.017H266.68V214.1H268.763V212.017Z" fill="#0092F1"/>
<path d="M272.615 199.515H270.531V201.598H272.615V199.515Z" fill="white"/>
<path d="M272.615 203.682H270.531V205.766H272.615V203.682Z" fill="#FFDD33"/>
<path d="M272.615 207.849H270.531V209.933H272.615V207.849Z" fill="#0092F1"/>
<path d="M272.615 212.017H270.531V214.1H272.615V212.017Z" fill="white"/>
<path d="M276.47 199.515H274.387V201.598H276.47V199.515Z" fill="#0092F1"/>
<path d="M276.47 203.682H274.387V205.766H276.47V203.682Z" fill="white"/>
<path d="M276.47 207.849H274.387V209.933H276.47V207.849Z" fill="#0092F1"/>
<path d="M276.47 212.017H274.387V214.1H276.47V212.017Z" fill="#FFDD33"/>
<path d="M298.208 199.515H278.242V201.598H298.208V199.515Z" fill="#1E2778"/>
<path d="M298.208 203.682H278.242V205.766H298.208V203.682Z" fill="#1E2778"/>
<path d="M298.208 207.849H278.242V209.933H298.208V207.849Z" fill="#1E2778"/>
<path d="M298.208 212.017H278.242V214.1H298.208V212.017Z" fill="#1E2778"/>
<path d="M257.388 212.308C260.426 209.271 260.426 204.345 257.388 201.307C254.35 198.27 249.425 198.27 246.387 201.307C243.349 204.345 243.349 209.271 246.387 212.308C249.425 215.346 254.35 215.346 257.388 212.308Z" fill="white"/>
<path d="M256.596 211.514C259.196 208.915 259.196 204.701 256.596 202.101C253.997 199.502 249.782 199.502 247.183 202.101C244.584 204.701 244.584 208.915 247.183 211.514C249.783 214.114 253.997 214.114 256.596 211.514Z" fill="#1E2778"/>
<path d="M248.766 206.808C248.766 205.082 250.165 203.682 251.891 203.682C253.617 203.682 255.016 205.082 255.016 206.808C255.016 208.533 253.617 209.933 251.891 209.933C250.165 209.933 248.766 208.533 248.766 206.808Z" fill="#141B5E"/>
<path d="M248.124 218.927H241.211V220.177H248.124V218.927Z" fill="#FFDD33"/>
<path d="M259.554 218.927H252.641V220.177H259.554V218.927Z" fill="#FFDD33"/>
<path d="M270.984 218.927H264.07V220.177H270.984V218.927Z" fill="#839299"/>
<path d="M282.409 218.927H275.496V220.177H282.409V218.927Z" fill="#839299"/>
<path d="M293.839 218.927H286.926V220.177H293.839V218.927Z" fill="#839299"/>
<path d="M305.269 218.927H298.355V220.177H305.269V218.927Z" fill="#839299"/>
<path d="M244.281 150.11C242.001 147.831 240.746 144.799 240.746 141.575C240.746 138.167 242.198 134.901 244.73 132.614L245.556 133.529C243.283 135.582 241.979 138.514 241.979 141.574C241.979 144.469 243.106 147.191 245.153 149.238L244.281 150.11Z" fill="white"/>
<path d="M247.997 146.397C246.709 145.109 246 143.396 246 141.575C246 139.656 246.822 137.813 248.256 136.519L248.586 136.884C247.256 138.085 246.493 139.795 246.493 141.575C246.493 143.265 247.151 144.854 248.346 146.049L247.997 146.397Z" fill="white"/>
<path d="M246.207 148.184C244.441 146.419 243.469 144.071 243.469 141.575C243.469 138.944 244.595 136.418 246.56 134.644L247.221 135.375C245.463 136.963 244.455 139.222 244.455 141.575C244.455 143.808 245.325 145.908 246.904 147.487L246.207 148.184Z" fill="white"/>
<path d="M247.824 146.571C246.489 145.237 245.754 143.462 245.754 141.575C245.754 139.586 246.606 137.676 248.091 136.335L248.752 137.067C247.473 138.221 246.74 139.864 246.74 141.575C246.74 143.199 247.372 144.725 248.52 145.874L247.824 146.571Z" fill="white"/>
<path d="M259.208 150.11L258.337 149.239C260.384 147.192 261.511 144.47 261.511 141.575C261.511 138.515 260.207 135.583 257.934 133.53L258.76 132.615C261.291 134.902 262.744 138.168 262.744 141.576C262.744 144.799 261.488 147.83 259.208 150.11Z" fill="white"/>
<path d="M255.499 146.397L255.15 146.049C256.345 144.854 257.003 143.265 257.003 141.575C257.003 139.795 256.24 138.085 254.91 136.884L255.241 136.519C256.674 137.813 257.496 139.656 257.496 141.575C257.496 143.396 256.787 145.109 255.499 146.397Z" fill="white"/>
<path d="M257.284 148.184L256.587 147.486C258.166 145.907 259.036 143.808 259.036 141.574C259.036 139.221 258.027 136.962 256.27 135.374L256.93 134.642C258.895 136.416 260.022 138.943 260.022 141.574C260.022 144.072 259.05 146.419 257.284 148.184Z" fill="white"/>
<path d="M255.67 146.571L254.973 145.874C256.121 144.725 256.754 143.199 256.754 141.575C256.754 139.865 256.021 138.222 254.742 137.066L255.403 136.335C256.888 137.676 257.74 139.586 257.74 141.575C257.74 143.463 257.005 145.237 255.67 146.571Z" fill="white"/>
<path d="M251.746 143.283C252.801 143.283 253.656 142.428 253.656 141.373C253.656 140.318 252.801 139.463 251.746 139.463C250.691 139.463 249.836 140.318 249.836 141.373C249.836 142.428 250.691 143.283 251.746 143.283Z" fill="white"/>
<path d="M253.478 161.55H250.02L251.133 141.373H252.365L253.478 161.55Z" fill="white"/>
<path d="M170.737 77.624H148.461V83.0375H170.737V77.624Z" fill="#54CC5A"/>
<path d="M200.214 77.624H177.938V83.0375H200.214V77.624Z" fill="#54CC5A"/>
<path d="M229.69 77.624H207.414V83.0375H229.69V77.624Z" fill="#54CC5A"/>
<path d="M259.167 77.624H236.891V83.0375H259.167V77.624Z" fill="#54CC5A"/>
<path d="M288.647 77.624H266.371V83.0375H288.647V77.624Z" fill="#54CC5A"/>
<path d="M306.985 77.624H295.848V83.0375H306.985V77.624Z" fill="#FFDD33"/>
<path d="M336.9 112.475H283.7L280.535 124.046L280.634 93.3943H336.9V112.475Z" fill="#54CC5A"/>
<path d="M332.419 97.6257H296.52V99.406H332.419V97.6257Z" fill="white"/>
<path d="M332.419 101.335H296.52V103.115H332.419V101.335Z" fill="white"/>
<path d="M310.115 105.043H296.52V106.824H310.115V105.043Z" fill="white"/>
<path d="M292.261 105.946C294.115 104.092 294.115 101.086 292.261 99.2322C290.408 97.3783 287.402 97.3783 285.548 99.2322C283.694 101.086 283.694 104.092 285.548 105.946C287.402 107.799 290.408 107.799 292.261 105.946Z" fill="white"/>
<path d="M316.388 104.13L316.843 105.528H318.312L317.123 106.391L317.577 107.789L316.388 106.925L315.2 107.789L315.654 106.391L314.465 105.528H315.934L316.388 104.13Z" fill="white"/>
<path d="M320.814 104.13L321.268 105.528H322.738L321.549 106.391L322.003 107.789L320.814 106.925L319.625 107.789L320.079 106.391L318.891 105.528H320.36L320.814 104.13Z" fill="#1E2778"/>
<path d="M325.244 104.13L325.698 105.528H327.168L325.979 106.391L326.433 107.789L325.244 106.925L324.055 107.789L324.509 106.391L323.32 105.528H324.79L325.244 104.13Z" fill="#1E2778"/>
<path d="M329.674 104.13L330.128 105.528H331.597L330.408 106.391L330.862 107.789L329.674 106.925L328.485 107.789L328.939 106.391L327.75 105.528H329.219L329.674 104.13Z" fill="#1E2778"/>
<path d="M346.486 139.118H293.286L290.121 150.688L290.22 120.037H346.486V139.118Z" fill="#54CC5A"/>
<path d="M342.005 124.268H306.105V126.049H342.005V124.268Z" fill="white"/>
<path d="M342.005 127.977H306.105V129.758H342.005V127.977Z" fill="white"/>
<path d="M319.701 131.686H306.105V133.466H319.701V131.686Z" fill="white"/>
<path d="M301.847 132.588C303.701 130.734 303.701 127.728 301.847 125.875C299.994 124.021 296.988 124.021 295.134 125.875C293.28 127.728 293.28 130.734 295.134 132.588C296.988 134.442 299.994 134.442 301.847 132.588Z" fill="white"/>
<path d="M325.974 130.772L326.429 132.17H327.898L326.709 133.034L327.163 134.432L325.974 133.568L324.786 134.432L325.24 133.034L324.051 132.17H325.52L325.974 130.772Z" fill="white"/>
<path d="M330.4 130.772L330.854 132.17H332.324L331.135 133.034L331.589 134.432L330.4 133.568L329.211 134.432L329.665 133.034L328.477 132.17H329.946L330.4 130.772Z" fill="#1E2778"/>
<path d="M334.83 130.772L335.284 132.17H336.753L335.565 133.034L336.019 134.432L334.83 133.568L333.641 134.432L334.095 133.034L332.906 132.17H334.376L334.83 130.772Z" fill="#1E2778"/>
<path d="M339.26 130.772L339.714 132.17H341.183L339.994 133.034L340.448 134.432L339.26 133.568L338.071 134.432L338.525 133.034L337.336 132.17H338.805L339.26 130.772Z" fill="#1E2778"/>
<path d="M254.407 131.357V129.014C255.672 128.82 256.892 128.495 258.052 128.044L259.221 130.068C259.37 130.327 259.702 130.416 259.961 130.266L263.631 128.147C263.89 127.997 263.979 127.665 263.83 127.406L262.664 125.386C263.648 124.595 264.543 123.7 265.335 122.716L267.354 123.882C267.613 124.031 267.945 123.943 268.095 123.684L270.214 120.014C270.363 119.755 270.275 119.423 270.015 119.273L267.992 118.105C268.443 116.944 268.768 115.725 268.962 114.459H271.305C271.604 114.459 271.847 114.217 271.847 113.917V109.68C271.847 109.38 271.604 109.138 271.305 109.138H268.962C268.767 107.872 268.443 106.652 267.992 105.492L270.015 104.324C270.274 104.174 270.363 103.842 270.214 103.583L268.095 99.9132C267.945 99.6539 267.613 99.5649 267.354 99.715L265.335 100.881C264.543 99.897 263.648 99.0021 262.664 98.2102L263.83 96.1909C263.979 95.9316 263.891 95.6001 263.631 95.45L259.961 93.3315C259.702 93.182 259.371 93.2705 259.221 93.5298L258.052 95.553C256.892 95.1022 255.672 94.7774 254.407 94.5831V92.2401C254.407 91.9405 254.164 91.698 253.865 91.698H249.627C249.328 91.698 249.085 91.941 249.085 92.2401V94.5831C247.82 94.7774 246.6 95.1022 245.44 95.553L244.271 93.5298C244.122 93.2705 243.79 93.1814 243.531 93.3315L239.861 95.45C239.602 95.5995 239.513 95.9316 239.663 96.1909L240.829 98.2102C239.845 99.0021 238.95 99.897 238.158 100.881L236.139 99.715C235.879 99.5654 235.548 99.6539 235.398 99.9132L233.279 103.583C233.129 103.842 233.218 104.174 233.477 104.324L235.5 105.492C235.049 106.652 234.724 107.872 234.53 109.138H232.187C231.887 109.138 231.645 109.381 231.645 109.68V113.917C231.645 114.217 231.888 114.459 232.187 114.459H234.53C234.724 115.725 235.049 116.944 235.5 118.105L233.477 119.273C233.218 119.422 233.129 119.755 233.279 120.014L235.398 123.684C235.547 123.943 235.879 124.032 236.139 123.882L238.158 122.716C238.95 123.7 239.845 124.595 240.829 125.386L239.663 127.406C239.513 127.665 239.602 127.997 239.861 128.147L243.531 130.266C243.79 130.415 244.121 130.327 244.271 130.068L245.44 128.044C246.6 128.495 247.82 128.82 249.085 129.014V131.357C249.085 131.657 249.328 131.899 249.627 131.899H253.865C254.164 131.9 254.407 131.657 254.407 131.357ZM241.166 111.799C241.166 105.956 245.903 101.219 251.746 101.219C257.589 101.219 262.326 105.956 262.326 111.799C262.326 117.642 257.589 122.379 251.746 122.379C245.902 122.379 241.166 117.642 241.166 111.799Z" fill="#5E7EFF"/>
<path d="M251.746 110.033C252.721 110.033 253.511 110.824 253.511 111.799C253.511 112.774 252.721 113.564 251.746 113.564C250.771 113.564 249.98 112.774 249.98 111.799C249.98 110.824 250.771 110.033 251.746 110.033Z" fill="#5E7EFF"/>
<path d="M219.828 136.521V135.092C220.6 134.973 221.344 134.775 222.053 134.5L222.765 135.735C222.857 135.893 223.059 135.947 223.217 135.856L225.457 134.562C225.615 134.471 225.669 134.268 225.578 134.111L224.867 132.879C225.467 132.395 226.013 131.849 226.496 131.249L227.728 131.96C227.887 132.051 228.089 131.997 228.18 131.839L229.473 129.6C229.564 129.441 229.51 129.239 229.352 129.148L228.117 128.435C228.392 127.727 228.591 126.982 228.709 126.21H230.139C230.322 126.21 230.47 126.062 230.47 125.879V123.293C230.47 123.11 230.322 122.962 230.139 122.962H228.709C228.591 122.19 228.392 121.446 228.117 120.737L229.352 120.024C229.511 119.933 229.564 119.73 229.473 119.572L228.18 117.333C228.089 117.174 227.886 117.12 227.728 117.212L226.496 117.923C226.013 117.323 225.467 116.777 224.867 116.294L225.578 115.062C225.669 114.903 225.615 114.701 225.457 114.61L223.217 113.317C223.059 113.225 222.857 113.28 222.765 113.438L222.053 114.672C221.345 114.397 220.6 114.199 219.828 114.08V112.651C219.828 112.468 219.68 112.32 219.497 112.32H216.911C216.728 112.32 216.58 112.468 216.58 112.651V114.08C215.807 114.199 215.063 114.397 214.355 114.672L213.642 113.438C213.551 113.279 213.348 113.225 213.19 113.317L210.951 114.61C210.792 114.701 210.738 114.904 210.83 115.062L211.541 116.294C210.941 116.777 210.395 117.323 209.911 117.923L208.679 117.212C208.521 117.121 208.319 117.175 208.227 117.333L206.934 119.572C206.843 119.731 206.897 119.933 207.055 120.024L208.29 120.737C208.015 121.445 207.817 122.19 207.698 122.962H206.268C206.086 122.962 205.938 123.11 205.938 123.293V125.879C205.938 126.062 206.086 126.21 206.268 126.21H207.698C207.817 126.982 208.015 127.727 208.29 128.435L207.055 129.148C206.897 129.239 206.843 129.442 206.934 129.6L208.227 131.839C208.319 131.997 208.521 132.051 208.679 131.96L209.911 131.249C210.395 131.849 210.941 132.395 211.541 132.879L210.83 134.111C210.738 134.269 210.793 134.471 210.951 134.562L213.19 135.856C213.349 135.947 213.551 135.892 213.642 135.735L214.355 134.5C215.063 134.775 215.807 134.974 216.58 135.092V136.521C216.58 136.704 216.728 136.852 216.911 136.852H219.497C219.679 136.852 219.828 136.704 219.828 136.521ZM211.747 124.586C211.747 121.021 214.638 118.13 218.204 118.13C221.769 118.13 224.66 121.021 224.66 124.586C224.66 128.152 221.769 131.042 218.204 131.042C214.638 131.042 211.747 128.152 211.747 124.586Z" fill="#5E7EFF"/>
<path d="M219.18 124.586C219.18 125.125 218.744 125.561 218.205 125.561C217.667 125.561 217.23 125.124 217.23 124.586C217.23 124.047 217.667 123.611 218.205 123.611C218.744 123.611 219.18 124.047 219.18 124.586Z" fill="#5E7EFF"/>
<path d="M232.544 146.571H208.41V175.695H232.544V146.571Z" fill="#5E7EFF"/>
<path d="M213.001 152.198C213.757 152.198 214.37 151.585 214.37 150.829C214.37 150.073 213.757 149.461 213.001 149.461C212.246 149.461 211.633 150.073 211.633 150.829C211.633 151.585 212.246 152.198 213.001 152.198Z" fill="#FF9D1C"/>
<path d="M229.316 149.632H215.805V152.026H229.316V149.632Z" fill="white"/>
<path d="M213.001 157.837C213.757 157.837 214.37 157.224 214.37 156.468C214.37 155.713 213.757 155.1 213.001 155.1C212.246 155.1 211.633 155.713 211.633 156.468C211.633 157.224 212.246 157.837 213.001 157.837Z" fill="#F2CF54"/>
<path d="M229.316 155.271H215.805V157.666H229.316V155.271Z" fill="white"/>
<path d="M213.001 167.166C213.757 167.166 214.37 166.553 214.37 165.797C214.37 165.041 213.757 164.428 213.001 164.428C212.246 164.428 211.633 165.041 211.633 165.797C211.633 166.553 212.246 167.166 213.001 167.166Z" fill="#FF9D1C"/>
<path d="M229.316 164.6H215.805V166.994H229.316V164.6Z" fill="white"/>
<path d="M213.001 172.805C213.757 172.805 214.37 172.192 214.37 171.436C214.37 170.68 213.757 170.068 213.001 170.068C212.246 170.068 211.633 170.68 211.633 171.436C211.633 172.192 212.246 172.805 213.001 172.805Z" fill="white"/>
<path d="M229.316 170.239H215.805V172.634H229.316V170.239Z" fill="white"/>
<path d="M208.41 161.241H232.544" stroke="white" stroke-width="0.373352" stroke-miterlimit="10"/>
<path d="M200.21 99.9971H177.934V122.273H200.21V99.9971Z" fill="#1E2778"/>
<path d="M200.21 122.273H177.934L187.155 111.357L192.449 117.372L200.21 108.72V122.273Z" fill="#54CC5A"/>
<path d="M184.27 109.661C186.087 109.661 187.56 108.188 187.56 106.371C187.56 104.554 186.087 103.081 184.27 103.081C182.453 103.081 180.98 104.554 180.98 106.371C180.98 108.188 182.453 109.661 184.27 109.661Z" fill="#FFDD33"/>
<path d="M200.21 128.373H177.934V150.65H200.21V128.373Z" fill="white"/>
<path d="M200.21 156.75H177.934V179.026H200.21V156.75Z" fill="#54CC5A"/>
<path d="M170.173 100.557V121.713H149.017V100.557H170.173ZM170.733 99.9968H148.457V122.273H170.733V99.9968Z" fill="#839299"/>
<path d="M170.733 128.373H148.457V150.65H170.733V128.373Z" fill="#FFDD33"/>
<path d="M170.733 156.75H148.457V179.026H170.733V156.75Z" fill="white"/>
<path d="M197.43 105.125L199.686 111.806L201.48 110.013L203.782 112.315L204.62 111.477L202.317 109.175L204.111 107.381L197.43 105.125Z" fill="#EDFCFF"/>
</g>
<defs>
<clipPath id="clip0_14832_40815">
<rect width="420" height="280" fill="white"/>
</clipPath>
</defs>
</svg>
