<svg width="1600" height="896" viewBox="0 0 1600 896" fill="none" xmlns="http://www.w3.org/2000/svg">
<mask id="mask0_14420_3982" style="mask-type:alpha" maskUnits="userSpaceOnUse" x="0" y="0" width="1600" height="896">
<rect width="1600" height="896" fill="#D9D9D9"/>
</mask>
<g mask="url(#mask0_14420_3982)">
<path d="M0 900H1600V0H0V900Z" fill="url(#paint0_linear_14420_3982)"/>
<ellipse cx="1262.34" cy="504.973" rx="100.65" ry="97.1588" fill="#D2EAFF"/>
<path d="M828.796 394.756C827.22 370.708 840.186 348.05 861.718 337.226L1193.93 170.219C1234.77 149.685 1282.66 180.549 1280.83 226.228L1271.34 463.057C1270.69 479.276 1263.49 494.54 1251.4 505.364L950.88 774.31C913.602 807.672 854.268 783.443 850.996 733.523L828.796 394.756Z" fill="url(#paint1_linear_14420_3982)" fill-opacity="0.7"/>
<path d="M822.762 127.359C804.425 116.78 780.678 127.833 777.161 148.585L747.982 320.755C745.886 333.122 751.912 345.326 763.051 351.272L991.107 473.019C1009.13 482.64 1031.77 472.021 1035.7 452.098L1064.79 304.843C1068.82 284.431 1059.47 263.923 1041.35 253.471L822.762 127.359Z" fill="url(#paint2_linear_14420_3982)" fill-opacity="0.4"/>
<path d="M1227.77 626.693C1226.39 650.423 1239.19 672.802 1260.39 683.737L1507.16 810.996C1547.57 831.84 1595.41 802.216 1594.51 756.9L1591.01 581.351C1590.69 564.912 1583.61 549.29 1571.45 538.142L1343.14 328.89C1305.81 294.67 1245.66 318.787 1242.73 369.152L1227.77 626.693Z" fill="url(#paint3_linear_14420_3982)" fill-opacity="0.7"/>
<path d="M1195.2 860.43C1174.86 870.412 1150.25 855.566 1150.25 833.312L1150.25 758.189C1150.25 747.434 1156.33 737.691 1166.11 732.773L1392.1 619.102C1412.07 609.056 1436.57 623.178 1437.29 645.155L1439.41 709.61C1440.02 728.273 1429.62 745.375 1412.57 753.744L1195.2 860.43Z" fill="url(#paint4_linear_14420_3982)"/>
</g>
<defs>
<linearGradient id="paint0_linear_14420_3982" x1="850.5" y1="971" x2="821" y2="-474" gradientUnits="userSpaceOnUse">
<stop stop-color="#D9ECFF"/>
<stop offset="1" stop-color="white" stop-opacity="0"/>
</linearGradient>
<linearGradient id="paint1_linear_14420_3982" x1="1089.9" y1="99.2999" x2="989.936" y2="873.39" gradientUnits="userSpaceOnUse">
<stop stop-color="#D2EAFF"/>
<stop offset="1" stop-color="#D2EAFF" stop-opacity="0"/>
</linearGradient>
<linearGradient id="paint2_linear_14420_3982" x1="731.628" y1="207.39" x2="1053.91" y2="374.275" gradientUnits="userSpaceOnUse">
<stop stop-color="#D2EAFF" stop-opacity="0"/>
<stop offset="0.53125" stop-color="#D2EAFF"/>
</linearGradient>
<linearGradient id="paint3_linear_14420_3982" x1="1443.91" y1="882.496" x2="1361.47" y2="229.479" gradientUnits="userSpaceOnUse">
<stop stop-color="#D2EAFF"/>
<stop offset="1" stop-color="#D2EAFF" stop-opacity="0"/>
</linearGradient>
<linearGradient id="paint4_linear_14420_3982" x1="1116.83" y1="832.907" x2="1435.98" y2="663.852" gradientUnits="userSpaceOnUse">
<stop stop-color="#D2EAFF" stop-opacity="0"/>
<stop offset="0.53125" stop-color="#D2EAFF"/>
</linearGradient>
</defs>
</svg>
