<svg width="114" height="114" viewBox="0 0 114 114" fill="none" xmlns="http://www.w3.org/2000/svg">
<g clip-path="url(#clip0_9643_18910)">
<path fill-rule="evenodd" clip-rule="evenodd" d="M40.7003 23.5002C39.9003 24.4002 40.4003 25.8002 41.6003 26.0002L41.4003 33.6002C39.6003 33.7002 39.6003 36.5002 41.5003 36.5002L50.9003 36.8002C53.6003 50.9002 65.8003 61.3002 80.3003 61.7002C97.3003 62.2002 111.6 48.7002 112.1 31.7002C112.5 14.7002 99.1003 0.500208 82.1003 0.000207863C67.5002 -0.399792 54.8003 9.30021 51.2003 23.3002L41.9003 23.0002C41.4003 23.0002 41.0003 23.2002 40.7003 23.5002Z" fill="#5F737C"/>
<path fill-rule="evenodd" clip-rule="evenodd" d="M7.20148 21.8001C2.50148 27.1001 4.40148 39.1001 13.8015 39.4001L38.1015 40.1001C40.7015 40.2001 42.8015 38.1001 42.9015 35.5001L43.2015 24.3001C43.3015 21.7001 41.2015 19.5001 38.6015 19.4001L14.3015 18.8001C11.7015 18.6001 9.10148 19.7001 7.20148 21.8001Z" fill="#002548"/>
<path fill-rule="evenodd" clip-rule="evenodd" d="M64.6011 16.0002C52.0011 30.0002 61.7011 52.6002 80.6011 53.1002C100.301 53.6002 110.901 29.9002 97.4011 15.5002C88.4011 6.10023 73.3011 6.40023 64.6011 16.0002Z" fill="#D2D9DC"/>
<path fill-rule="evenodd" clip-rule="evenodd" d="M63.6996 114C47.4996 114 46.9996 114.8 46.9996 101.3C44.7996 100.7 42.6996 99.9001 40.4996 99.0001C29.6996 108.5 30.0996 107.6 18.5996 97.5001C12.8996 92.5001 20.2996 87.6001 23.8996 84.3001C22.7996 82.5001 21.8996 80.6001 21.1996 78.6001C6.19962 78.5001 6.99962 78.2001 6.99962 64.1001H36.5996C33.6996 76.5001 44.3996 88.2001 58.6996 88.2001C72.9996 88.2001 83.6996 76.4001 80.7996 64.1001H110.2C110.3 66.2001 110.3 68.9001 110.3 72.5001C110.3 79.7001 101.2 78.4001 96.0996 78.4001C95.3996 80.4001 94.4996 82.3001 93.3996 84.1001C104.2 93.7001 103.2 93.3001 91.6996 103.5C85.9996 108.6 80.4996 102 76.8996 98.8001C74.7996 99.8001 72.6996 100.6 70.3996 101.2C70.2996 105.9 71.6996 114 63.6996 114Z" fill="#839299"/>
<path fill-rule="evenodd" clip-rule="evenodd" d="M75.6984 18.0003C75.6984 17.6003 75.9984 17.3003 76.3984 17.3003H85.9984C86.9984 17.3003 86.9984 18.8003 85.9984 18.8003H76.3984C75.9984 18.7003 75.6984 18.4003 75.6984 18.0003ZM75.0984 27.6003C75.0984 27.2003 75.4984 26.9003 75.8984 26.9003H86.4984C87.4984 26.9003 87.4984 28.4003 86.4984 28.4003H75.8984C75.4984 28.4003 75.0984 28.0003 75.0984 27.6003ZM74.3984 30.9003C74.3984 30.5003 74.6984 30.2003 75.0984 30.2003H87.1984C88.0984 30.2003 88.0984 31.7003 87.1984 31.7003H75.0984C74.6984 31.6003 74.3984 31.3003 74.3984 30.9003ZM75.0984 34.1003C75.0984 33.7003 75.4984 33.4003 75.8984 33.4003H86.4984C87.4984 33.4003 87.4984 34.9003 86.4984 34.9003H75.8984C75.4984 34.9003 75.0984 34.5003 75.0984 34.1003ZM75.6984 43.8003C75.6984 43.3003 75.9984 43.0003 76.3984 43.0003H85.9984C86.9984 43.0003 86.9984 44.5003 85.9984 44.5003H76.3984C75.9984 44.5003 75.6984 44.2003 75.6984 43.8003Z" fill="#ED1C24"/>
<path fill-rule="evenodd" clip-rule="evenodd" d="M74.3984 30.9004C74.3984 26.8004 77.2984 23.5004 80.7984 21.6004C81.0984 21.5004 81.2984 21.5004 81.4984 21.6004C90.0984 26.1004 90.0984 35.6004 81.4984 40.1004C81.1984 40.2004 80.9984 40.2004 80.7984 40.1004C77.2984 38.3004 74.3984 35.0004 74.3984 30.9004ZM81.1984 23.1004C74.1984 27.0004 74.1984 34.7004 81.1984 38.6004C88.1984 34.7004 88.1984 27.0004 81.1984 23.1004Z" fill="#ED1C24"/>
<path fill-rule="evenodd" clip-rule="evenodd" d="M81.1984 40.3001C78.2984 41.9001 75.8984 44.6001 75.8984 48.1001C75.8984 49.1001 74.3984 49.1001 74.3984 48.1001C74.3984 44.0001 77.2984 40.7001 80.7984 38.8001C81.0984 38.7001 81.2984 38.7001 81.4984 38.8001C84.9984 40.6001 87.9984 43.9001 87.9984 48.0001C87.9984 49.0001 86.4984 49.0001 86.4984 48.0001C86.3984 44.6001 83.9984 41.9001 81.1984 40.3001Z" fill="#ED1C24"/>
<path fill-rule="evenodd" clip-rule="evenodd" d="M81.1984 21.4002C83.9984 19.9002 86.3984 17.1002 86.3984 13.7002C86.3984 12.7002 87.8984 12.7002 87.8984 13.7002C87.8984 17.8002 84.9984 21.1002 81.4984 22.9002C81.1984 23.0002 80.9984 23.0002 80.7984 22.9002C77.2984 21.1002 74.3984 17.8002 74.3984 13.7002C74.3984 12.7002 75.8984 12.7002 75.8984 13.7002C75.8984 17.1002 78.2984 19.8002 81.1984 21.4002Z" fill="#ED1C24"/>
</g>
<defs>
<clipPath id="clip0_9643_18910">
<rect width="114" height="114" fill="white"/>
</clipPath>
</defs>
</svg>
