<svg width="420" height="316" viewBox="0 0 420 316" fill="none" xmlns="http://www.w3.org/2000/svg">
<path d="M235.58 101.544C236.157 101.574 241.843 92.6582 244.484 87.1324L240.271 77.8091C238.692 81.9762 232.078 99.773 232.078 99.773L235.58 101.544Z" fill="#002548"/>
<path d="M66.5964 247.998H349.504L348.861 69.3828H65.9531L66.5964 247.998Z" fill="#0054A6"/>
<path d="M73.3325 241.241L72.7305 76.1401H342.123L342.726 241.241H73.3325Z" fill="#0054A6"/>
<path d="M162.147 82.8188H159.082V232.734H162.147V82.8188Z" fill="#C8D1F3"/>
<path d="M256.378 82.8188H253.312V232.734H256.378V82.8188Z" fill="#C8D1F3"/>
<path d="M316.921 93.3711H272.699V121.446H316.921V93.3711Z" fill="#FFDD33"/>
<path d="M312.335 99.7207H277.281V101.536H312.335V99.7207Z" fill="#FCFDFE"/>
<path d="M296.638 104.757H277.281V106.573H296.638V104.757Z" fill="#FCFDFE"/>
<path d="M296.638 109.376H277.281V111.192H296.638V109.376Z" fill="#FCFDFE"/>
<path d="M296.638 113.996H277.281V115.812H296.638V113.996Z" fill="#FCFDFE"/>
<path d="M312.337 104.757H300.535V115.812H312.337V104.757Z" fill="#FCFDFE"/>
<path d="M146.597 127.925H102.375V156H146.597V127.925Z" fill="#FCFDFE"/>
<path d="M142.015 134.274H106.961V136.09H142.015V134.274Z" fill="#002548"/>
<path d="M126.318 139.31H106.961V141.126H126.318V139.31Z" fill="#0054A6"/>
<path d="M126.318 143.93H106.961V145.746H126.318V143.93Z" fill="#E8ECFA"/>
<path d="M126.318 148.549H106.961V150.365H126.318V148.549Z" fill="#002548"/>
<path d="M142.012 139.31H130.211V150.364H142.012V139.31Z" fill="#E8ECFA"/>
<path d="M138.749 202.789H94.5273V230.864H138.749V202.789Z" fill="#FCFDFE"/>
<path d="M134.167 209.138H99.1133V210.954H134.167V209.138Z" fill="#002548"/>
<path d="M118.47 214.174H99.1133V215.99H118.47V214.174Z" fill="#0054A6"/>
<path d="M118.47 218.794H99.1133V220.61H118.47V218.794Z" fill="#E8ECFA"/>
<path d="M118.47 223.414H99.1133V225.23H118.47V223.414Z" fill="#002548"/>
<path d="M134.165 214.174H122.363V225.229H134.165V214.174Z" fill="#E8ECFA"/>
<path d="M212.14 166.501H167.918V194.576H212.14V166.501Z" fill="#0092F1"/>
<path d="M207.554 172.851H172.5V174.667H207.554V172.851Z" fill="#FCFDFE"/>
<path d="M183.914 177.888H172.5V179.704H183.914V177.888Z" fill="#FCFDFE"/>
<path d="M207.555 177.888H185.855V179.704H207.555V177.888Z" fill="#FCFDFE"/>
<path d="M207.554 182.507H172.5V184.323H207.554V182.507Z" fill="#FCFDFE"/>
<path d="M207.554 187.126H172.5V188.942H207.554V187.126Z" fill="#FCFDFE"/>
<path d="M323.484 201.045H279.262V229.12H323.484V201.045Z" fill="#FCFDFE"/>
<path d="M318.898 220.955H283.844V222.77H318.898V220.955Z" fill="#002548"/>
<path d="M318.899 215.918H307.484V217.734H318.899V215.918Z" fill="#0054A6"/>
<path d="M305.544 215.918H283.844V217.734H305.544V215.918Z" fill="#0054A6"/>
<path d="M318.898 211.299H283.844V213.115H318.898V211.299Z" fill="#E8ECFA"/>
<path d="M318.898 206.68H283.844V208.495H318.898V206.68Z" fill="#002548"/>
<path d="M212.597 129.579H168.375V157.654H212.597V129.579Z" fill="#FA4A56"/>
<path d="M208.015 149.489H172.961V151.305H208.015V149.489Z" fill="#FCFDFE"/>
<path d="M192.318 144.452H172.961V146.268H192.318V144.452Z" fill="#FCFDFE"/>
<path d="M192.318 139.833H172.961V141.649H192.318V139.833Z" fill="#FCFDFE"/>
<path d="M192.318 135.213H172.961V137.029H192.318V135.213Z" fill="#FCFDFE"/>
<path d="M208.013 135.213H196.211V146.267H208.013V135.213Z" fill="#FCFDFE"/>
<path d="M228.421 83.0586H184.199V111.133H228.421V83.0586Z" fill="#54CC5A"/>
<path d="M223.836 106.156H214.363V107.972H223.836V106.156Z" fill="#FCFDFE"/>
<path d="M223.836 96.188H214.363V98.0038H223.836V96.188Z" fill="#FCFDFE"/>
<path d="M223.836 86.2207H214.363V88.0365H223.836V86.2207Z" fill="#FCFDFE"/>
<path d="M223.836 91.2046H214.363V93.0204H223.836V91.2046Z" fill="#FCFDFE"/>
<path d="M223.836 101.172H214.363V102.988H223.836V101.172Z" fill="#FCFDFE"/>
<path d="M199.657 105.675C197.219 105.675 195.022 104.649 193.459 103.011L191.832 104.638C193.81 106.69 196.582 107.971 199.657 107.971C202.545 107.971 205.164 106.837 207.11 105.001L205.483 103.374C203.953 104.797 201.908 105.675 199.657 105.675Z" fill="#FCFDFE"/>
<path d="M191.078 97.0954C191.078 94.8449 191.956 92.7995 193.379 91.2679L191.752 89.6411C189.915 91.5885 188.781 94.2065 188.781 97.0947C188.781 100.026 189.947 102.681 191.832 104.637L193.459 103.01C191.988 101.47 191.078 99.3893 191.078 97.0954Z" fill="#FCFDFE"/>
<path d="M193.377 91.2681C194.945 89.5804 197.175 88.5164 199.655 88.5164C201.948 88.5164 204.03 89.4264 205.571 90.8978L207.198 89.271C205.242 87.3852 202.587 86.2197 199.655 86.2197C196.537 86.2197 193.733 87.5392 191.75 89.6413L193.377 91.2681Z" fill="#FCFDFE"/>
<path d="M208.236 97.0959C208.236 99.576 207.172 101.806 205.484 103.374L207.111 105.001C209.213 103.018 210.533 100.214 210.533 97.0966C210.533 94.0215 209.251 91.2502 207.199 89.272L205.573 90.8988C207.21 92.4619 208.236 94.6592 208.236 97.0959Z" fill="#FCFDFE"/>
<path d="M329.069 131.322H284.848V159.397H329.069V131.322Z" fill="#FCFDFE"/>
<path d="M298.906 134.484H289.434V136.3H298.906V134.484Z" fill="#002548"/>
<path d="M298.906 144.452H289.434V146.268H298.906V144.452Z" fill="#E8ECFA"/>
<path d="M298.906 154.419H289.434V156.235H298.906V154.419Z" fill="#E8ECFA"/>
<path d="M298.906 149.436H289.434V151.252H298.906V149.436Z" fill="#002548"/>
<path d="M298.906 139.468H289.434V141.284H298.906V139.468Z" fill="#E8ECFA"/>
<path d="M313.61 136.781C316.047 136.781 318.245 137.807 319.808 139.445L321.434 137.818C319.456 135.766 316.685 134.484 313.61 134.484C310.722 134.484 308.103 135.618 306.156 137.455L307.783 139.082C309.315 137.659 311.359 136.781 313.61 136.781Z" fill="#0054A6"/>
<path d="M322.189 145.36C322.189 147.611 321.312 149.656 319.888 151.188L321.515 152.814C323.352 150.867 324.486 148.249 324.486 145.361C324.486 142.429 323.32 139.774 321.435 137.818L319.809 139.445C321.279 140.985 322.189 143.066 322.189 145.36Z" fill="#002548"/>
<path d="M319.887 151.188C318.319 152.876 316.089 153.94 313.609 153.94C311.315 153.94 309.234 153.03 307.693 151.558L306.066 153.185C308.022 155.071 310.677 156.236 313.609 156.236C316.727 156.236 319.531 154.917 321.514 152.815L319.887 151.188Z" fill="#E8ECFA"/>
<path d="M305.031 145.36C305.031 142.88 306.095 140.65 307.783 139.082L306.156 137.455C304.054 139.438 302.734 142.242 302.734 145.359C302.734 148.435 304.016 151.206 306.068 153.184L307.695 151.557C306.058 149.995 305.031 147.797 305.031 145.36Z" fill="#002548"/>
<path d="M305.8 163.774H261.578V191.733H305.8V163.774Z" fill="#FCFDFE"/>
<path d="M283.689 166.257C279.397 166.257 275.918 169.736 275.918 174.028C275.918 178.319 279.397 181.798 283.689 181.798C287.98 181.798 291.46 178.319 291.46 174.028C291.46 169.736 287.981 166.257 283.689 166.257ZM283.689 179.769C280.523 179.769 277.948 177.194 277.948 174.028C277.948 170.863 280.523 168.288 283.689 168.288C286.854 168.288 289.429 170.863 289.429 174.028C289.43 177.193 286.855 179.769 283.689 179.769Z" fill="#E8ECFA"/>
<path d="M301.218 187.473H266.164V189.288H301.218V187.473Z" fill="#002548"/>
<path d="M301.218 183.334H266.164V185.15H301.218V183.334Z" fill="#E8ECFA"/>
<path d="M273.465 177.259H266.164V179.075H273.465V177.259Z" fill="#002548"/>
<path d="M273.465 173.12H266.164V174.935H273.465V173.12Z" fill="#0054A6"/>
<path d="M273.465 168.981H266.164V170.797H273.465V168.981Z" fill="#002548"/>
<path d="M301.039 177.259H293.738V179.075H301.039V177.259Z" fill="#002548"/>
<path d="M301.039 173.12H293.738V174.935H301.039V173.12Z" fill="#E8ECFA"/>
<path d="M301.039 168.981H293.738V170.797H301.039V168.981Z" fill="#E8ECFA"/>
<path d="M125.944 85.1973H81.7227V113.156H125.944V85.1973Z" fill="#FCFDFE"/>
<path d="M103.834 95.1309C99.5422 95.1309 96.0625 98.6099 96.0625 102.902C96.0625 107.193 99.5415 110.673 103.834 110.673C108.126 110.673 111.605 107.194 111.605 102.902C111.605 98.6092 108.126 95.1309 103.834 95.1309ZM103.834 108.643C100.669 108.643 98.0932 106.068 98.0932 102.902C98.0932 99.7369 100.669 97.1616 103.834 97.1616C106.999 97.1616 109.575 99.7369 109.575 102.902C109.575 106.068 106.999 108.643 103.834 108.643Z" fill="#E8ECFA"/>
<path d="M121.362 87.6416H86.3086V89.4574H121.362V87.6416Z" fill="#002548"/>
<path d="M121.362 91.7803H86.3086V93.5961H121.362V91.7803Z" fill="#E8ECFA"/>
<path d="M121.364 97.8555H114.062V99.6713H121.364V97.8555Z" fill="#002548"/>
<path d="M121.364 101.995H114.062V103.81H121.364V101.995Z" fill="#0054A6"/>
<path d="M121.364 106.133H114.062V107.949H121.364V106.133Z" fill="#002548"/>
<path d="M93.7893 97.8555H86.4883V99.6713H93.7893V97.8555Z" fill="#002548"/>
<path d="M93.7893 101.995H86.4883V103.81H93.7893V101.995Z" fill="#E8ECFA"/>
<path d="M93.7893 106.133H86.4883V107.949H93.7893V106.133Z" fill="#E8ECFA"/>
<path d="M229.273 205.723H185.051V233.681H229.273V205.723Z" fill="#FCFDFE"/>
<path d="M207.162 215.656C202.87 215.656 199.391 219.135 199.391 223.427C199.391 227.719 202.87 231.198 207.162 231.198C211.454 231.198 214.933 227.719 214.933 223.427C214.933 219.135 211.454 215.656 207.162 215.656ZM207.162 229.168C203.997 229.168 201.421 226.592 201.421 223.427C201.421 220.262 203.997 217.686 207.162 217.686C210.327 217.686 212.903 220.262 212.903 223.427C212.903 226.592 210.327 229.168 207.162 229.168Z" fill="#E8ECFA"/>
<path d="M224.687 208.166H189.633V209.982H224.687V208.166Z" fill="#002548"/>
<path d="M224.687 212.305H189.633V214.121H224.687V212.305Z" fill="#E8ECFA"/>
<path d="M224.688 218.381H217.387V220.197H224.688V218.381Z" fill="#002548"/>
<path d="M224.688 222.519H217.387V224.335H224.688V222.519Z" fill="#0054A6"/>
<path d="M224.688 226.658H217.387V228.474H224.688V226.658Z" fill="#002548"/>
<path d="M197.113 218.381H189.812V220.197H197.113V218.381Z" fill="#002548"/>
<path d="M197.113 222.519H189.812V224.335H197.113V222.519Z" fill="#E8ECFA"/>
<path d="M197.113 226.658H189.812V228.474H197.113V226.658Z" fill="#E8ECFA"/>
<path d="M129.069 162.157H84.8477V190.232H129.069V162.157Z" fill="#FFDD33"/>
<path d="M109.361 174.69C111.282 174.69 112.839 173.132 112.839 171.211C112.839 169.29 111.282 167.733 109.361 167.733C107.44 167.733 105.883 169.29 105.883 171.211C105.883 173.132 107.44 174.69 109.361 174.69Z" fill="#FCFDFE"/>
<path d="M120.689 167.733C118.768 167.733 117.211 169.29 117.211 171.211C117.211 173.132 118.768 174.69 120.689 174.69C122.61 174.69 124.168 173.132 124.168 171.211C124.168 169.29 122.61 167.733 120.689 167.733ZM120.689 173.29C119.543 173.29 118.611 172.357 118.611 171.211C118.611 170.065 119.543 169.133 120.689 169.133C121.835 169.133 122.768 170.065 122.768 171.211C122.768 172.357 121.835 173.29 120.689 173.29Z" fill="#FCFDFE"/>
<path d="M124.168 181.178C124.168 183.099 122.61 184.657 120.689 184.657C118.768 184.657 117.211 183.099 117.211 181.178C117.211 179.258 118.768 177.7 120.689 177.7C122.61 177.701 124.168 179.258 124.168 181.178Z" fill="#FCFDFE"/>
<path d="M98.906 165.319H89.4336V167.135H98.906V165.319Z" fill="#FCFDFE"/>
<path d="M98.906 175.287H89.4336V177.103H98.906V175.287Z" fill="#FCFDFE"/>
<path d="M98.906 185.254H89.4336V187.07H98.906V185.254Z" fill="#FCFDFE"/>
<path d="M98.906 180.271H89.4336V182.086H98.906V180.271Z" fill="#FCFDFE"/>
<path d="M98.906 170.303H89.4336V172.119H98.906V170.303Z" fill="#FCFDFE"/>
<path d="M109.357 177.7C107.436 177.7 105.879 179.258 105.879 181.178C105.879 181.205 105.886 181.23 105.887 181.257H109.335V184.655C111.278 184.657 112.835 183.1 112.835 181.178C112.836 179.258 111.279 177.7 109.357 177.7Z" fill="#FCFDFE"/>
<path d="M165.996 63.8152H204.101C204.101 63.8152 199.872 55.2269 193.192 55.2269C186.512 55.2269 185.049 58.9768 185.049 58.9768C185.049 58.9768 184.127 55.068 179.197 55.2269C174.266 55.3858 165.996 63.8152 165.996 63.8152Z" fill="#E8ECFA"/>
<path d="M364.741 46.7085C362.08 46.6224 360.536 47.6647 359.658 48.6986C356.953 45.8594 353.255 43.2393 348.806 43.2393C339.091 43.2393 336.963 48.693 336.963 48.693C336.963 48.693 335.622 43.0083 328.451 43.2393C321.281 43.4703 309.254 55.7294 309.254 55.7294H378.606C378.606 55.7294 369.919 46.8751 364.741 46.7085Z" fill="#EFF2FC"/>
<path d="M42.7296 40.9419C44.8583 40.8733 46.0938 41.707 46.7959 42.5337C48.9603 40.2622 51.9192 38.1657 55.4787 38.1657C63.2508 38.1657 64.9539 42.5288 64.9539 42.5288C64.9539 42.5288 66.0263 37.9802 71.7635 38.1657C77.5007 38.3512 87.1229 48.1589 87.1229 48.1589H31.6367C31.6367 48.1589 38.5863 41.0756 42.7296 40.9419Z" fill="#EFF2FC"/>
<path d="M349.508 289.599H65.957V291.514H349.508V289.599Z" fill="#002548"/>
<path d="M81.4862 241.398C83.2799 239.348 84.7318 237.042 85.9276 234.565L94.981 233.198L96.5184 224.487L88.5753 219.789C88.4045 217.227 87.8066 214.75 86.9525 212.273L92.7604 204.586L87.7212 197.326L78.1553 199.718C76.4471 198.266 74.6534 197.07 72.689 196.13L70.7246 185.796L61.9273 184.6L57.486 192.97C55.0091 193.141 52.5322 193.568 50.1408 194.422L41.6852 188.444L34.5107 193.739L37.2438 203.049C35.7065 204.757 34.5107 206.636 33.4858 208.6L22.9804 210.479L21.6992 219.277L30.1548 223.889C30.3256 226.451 30.7527 228.928 31.5214 231.319L25.7135 239.433L30.9235 246.608L39.977 244.131C42.0268 245.924 44.1621 247.376 46.4681 248.487L48.0055 257.882L56.8027 259.248L61.1587 251.476C63.8918 251.305 66.6249 250.793 69.1872 249.853L76.4471 255.234L83.7069 250.11L81.4862 241.398ZM51.4219 229.867C47.2368 225.512 47.3222 218.508 51.7635 214.323C56.1195 210.138 63.1231 210.223 67.3082 214.664C71.4933 219.02 71.4079 226.024 66.9665 230.209C62.5252 234.394 55.607 234.223 51.4219 229.867Z" fill="#839299"/>
<path d="M120.005 267.96C121.03 266.765 121.969 265.398 122.567 263.946L127.948 263.177L128.802 258.053L124.104 255.32C124.019 253.868 123.677 252.33 123.165 250.878L126.581 246.352L123.592 242.081L117.955 243.533C116.93 242.679 115.905 241.996 114.709 241.398L113.514 235.334L108.304 234.65L105.656 239.604C104.204 239.69 102.752 239.946 101.385 240.458L96.4316 236.956L92.2465 240.031L93.8693 245.497C93.0152 246.522 92.2466 247.633 91.6487 248.743L85.4992 249.853L84.7305 254.978L89.6842 257.711C89.7697 259.163 90.0259 260.7 90.5383 262.067L87.1219 266.85L90.1967 271.12L95.4921 269.668C96.6879 270.693 97.969 271.548 99.3356 272.231L100.275 277.782L105.4 278.551L107.962 273.939C109.585 273.854 111.208 273.512 112.66 273L116.93 276.16L121.201 273.17L120.005 267.96ZM102.325 261.213C99.848 258.651 99.9335 254.551 102.496 252.074C105.058 249.597 109.158 249.683 111.635 252.245C114.112 254.807 114.026 258.907 111.464 261.384C108.902 263.861 104.802 263.775 102.325 261.213Z" fill="#D2D9DC"/>
<path d="M368.129 105.5H338.659C335.649 105.5 333.199 107.95 333.199 110.96V125.52C333.199 128.53 335.649 130.98 338.659 130.98V135.32L343.979 130.98H368.129C371.139 130.98 373.589 128.53 373.589 125.52V110.96C373.589 107.95 371.139 105.5 368.129 105.5Z" fill="#002548"/>
<path d="M346.923 124.4C346.713 124.4 346.573 124.33 346.433 124.19L340.483 118.24C340.343 118.1 340.273 117.89 340.273 117.75C340.273 117.54 340.343 117.4 340.483 117.26L346.433 111.31C346.713 111.03 347.203 111.03 347.483 111.31C347.763 111.59 347.763 112.08 347.483 112.36L342.093 117.75L347.483 123.14C347.763 123.42 347.763 123.91 347.483 124.19C347.273 124.33 347.063 124.4 346.923 124.4Z" fill="#F9FAFB"/>
<path d="M359.868 124.4C360.078 124.4 360.218 124.33 360.358 124.19L366.308 118.24C366.448 118.1 366.518 117.89 366.518 117.75C366.518 117.54 366.448 117.4 366.308 117.26L360.358 111.31C360.078 111.03 359.588 111.03 359.308 111.31C359.028 111.59 359.028 112.08 359.308 112.36L364.698 117.75L359.308 123.14C359.028 123.42 359.028 123.91 359.308 124.19C359.518 124.33 359.728 124.4 359.868 124.4Z" fill="#F9FAFB"/>
<path d="M350.495 124.4C350.425 124.4 350.285 124.4 350.215 124.33C349.865 124.19 349.655 123.77 349.865 123.35L355.045 111.52C355.185 111.17 355.605 110.96 356.025 111.17C356.375 111.31 356.585 111.73 356.375 112.15L351.195 123.98C351.055 124.26 350.775 124.4 350.495 124.4Z" fill="#F9FAFB"/>
</svg>
