<svg width="50" height="50" viewBox="0 0 50 50" fill="none" xmlns="http://www.w3.org/2000/svg">
<path d="M25 32.5977C23.6523 33.1152 22.334 34.4141 21.7773 35.7227C21.2793 34.5312 20.1855 32.7441 19.2188 31.6406C19.707 31.4648 20.2051 31.3281 20.7031 31.2109C21.9434 32.0898 23.418 32.5977 25 32.5977Z" fill="#F9D171"/>
<path d="M25 32.5977C26.3477 33.1152 27.666 34.4141 28.2227 35.7227C28.7207 34.5312 29.8145 32.7441 30.7813 31.6406C30.293 31.4648 29.7949 31.3281 29.2969 31.2109C28.0566 32.0898 26.582 32.5977 25 32.5977Z" fill="#F9D171"/>
<path d="M37.3047 36.1523C37.0312 36.4648 36.7383 36.7578 36.4355 37.041C34.9902 35.9668 33.0371 35.127 30.7813 34.5898C29.873 35.3027 28.7305 36.6016 28.2227 37.4609C27.5781 36.416 26.1719 35.5762 25 35.2637C23.8281 35.5762 22.4219 36.416 21.7773 37.4609C21.2695 36.6113 20.127 35.3125 19.2188 34.5898C16.9629 35.127 15.0098 35.9668 13.5645 37.041C13.2617 36.7578 12.9688 36.4648 12.6953 36.1523C14.1895 34.1602 16.4746 32.5684 19.2188 31.6504C20.1855 32.7539 21.2793 34.541 21.7773 35.7227C22.3438 34.4043 23.6426 33.125 25 32.5977C26.3574 33.125 27.6562 34.4043 28.2227 35.7227C28.7207 34.5312 29.8145 32.7441 30.7813 31.6504C33.5254 32.5684 35.8105 34.1602 37.3047 36.1523Z" fill="#FD7A6E"/>
<path d="M36.4355 37.041C30.2539 43.1055 19.7461 43.1055 13.5645 37.041C15.0098 35.9668 16.9629 35.127 19.2188 34.5898C20.127 35.3125 21.2695 36.6113 21.7773 37.4609C22.4219 36.416 23.8281 35.5762 25 35.2637C26.1719 35.5762 27.5781 36.416 28.2227 37.4609C28.7305 36.6016 29.873 35.3125 30.7813 34.5898C33.0371 35.1172 34.9805 35.9668 36.4355 37.041Z" fill="#FF938A"/>
<path d="M49.082 20.7812H45.4102C44.873 18.1738 43.8477 15.7324 42.4121 13.5742L45.0195 10.9766C45.332 10.6543 45.332 10.127 45.0195 9.80469L40.1953 5C39.873 4.67773 39.3555 4.67773 39.043 5L36.4355 7.59766C34.2773 6.17188 31.8359 5.14648 29.2188 4.59961V0.917969C29.2188 0.46875 28.8477 0.0976562 28.3984 0.0976562H21.5918C21.1328 0.0976562 20.7617 0.46875 20.7617 0.917969V4.58984C18.1836 5.10742 15.7031 6.17187 13.5547 7.58789L10.957 4.99023C10.6445 4.66797 10.1172 4.66797 9.80469 4.99023L4.98047 9.80469C4.66797 10.127 4.66797 10.6445 4.98047 10.9766L7.58789 13.5742C6.14258 15.7227 5.11719 18.2129 4.58984 20.7812H0.908203C0.458984 20.7812 0.0976562 21.1523 0.0976562 21.6016V28.4082C0.0976562 28.8672 0.458984 29.2285 0.917969 29.2285H4.58984C5.12695 31.8457 6.15234 34.2773 7.58789 36.4551L4.98047 39.043C4.66797 39.3555 4.66797 39.873 4.98047 40.2148L9.80469 45.0195C10.1172 45.3418 10.6445 45.3418 10.957 45.0195L13.5547 42.4121C15.7129 43.8379 18.1543 44.873 20.7617 45.4102V49.0723C20.7617 49.5312 21.1328 49.9023 21.5918 49.9023H28.3984C28.8477 49.9023 29.2188 49.541 29.2188 49.082V45.4102C31.8359 44.8828 34.2773 43.8477 36.4355 42.4121L39.043 45.0195C39.3555 45.3418 39.873 45.3418 40.1953 45.0195L45.0195 40.2148C45.332 39.8828 45.332 39.3652 45.0195 39.043L42.4121 36.4453C43.8379 34.2773 44.8633 31.8457 45.4102 29.2188H49.082C49.541 29.2188 49.9023 28.8574 49.9023 28.3984V21.6016C49.9023 21.1523 49.5312 20.7812 49.082 20.7812ZM37.3047 36.1523C31.0156 43.3789 18.9844 43.3789 12.7051 36.1523C3.10547 25.7031 10.6348 8.33984 25 8.39844C39.3652 8.33984 46.8945 25.7031 37.3047 36.1523Z" fill="#93CE78"/>
<path d="M32.8809 24.5703C32.627 29.1602 28.7305 33.1934 24.0039 32.5293C27.9492 32.0215 30.8398 28.3887 31.1328 24.4727C31.7187 24.541 32.3926 24.5801 32.8809 24.5703Z" fill="#F9EFB7"/>
<path d="M31.1328 24.4727C30.8398 28.3887 27.9492 32.0215 24.0039 32.5293C20.1953 32.041 17.4414 28.5156 17.1387 24.7559C17.168 24.8145 17.1875 24.873 17.2266 24.9414C19.209 24.1309 21.2109 22.4219 22.2852 20.5469C24.2383 22.3535 27.6953 24.1504 31.1328 24.4727Z" fill="#FFF8C5"/>
<path d="M33.623 21.2016C33.623 22.3442 33.4082 23.5259 32.9395 24.5805C32.5 24.5805 32.0312 24.5708 31.4551 24.5219C31.3477 24.4926 31.2305 24.5024 31.1133 24.4829C33.3301 19.2387 29.668 13.2524 24.082 12.6176C29.0137 11.9829 33.7012 16.2407 33.623 21.2016Z" fill="#848484"/>
<path d="M31.7575 21.2012C31.7575 22.3047 31.5622 23.4473 31.113 24.4727C27.695 24.1406 24.2185 22.334 22.2751 20.5469C21.2009 22.4219 19.1892 24.1309 17.2165 24.9414C14.6286 19.7363 18.3005 13.1738 24.0817 12.6074C28.3102 13.0566 31.8161 16.8945 31.7575 21.2012Z" fill="#939393"/>
<path d="M17.6078 26.9619C16.182 27.7529 14.3363 26.6201 14.3656 24.9893C14.3656 23.7881 15.3226 22.8115 16.514 22.7822C16.6312 23.4561 16.846 24.1299 17.1292 24.7549C17.2074 25.5264 17.3734 26.249 17.6078 26.9619Z" fill="#EDE1A6"/>
<path d="M35.8496 24.9895C35.8594 26.7376 33.8867 27.802 32.4316 26.8645C32.6758 26.1321 32.8223 25.3802 32.8809 24.5696H32.9395C33.1836 24.0032 33.3789 23.388 33.4863 22.7727C34.7559 22.6849 35.8496 23.7298 35.8496 24.9895Z" fill="#EDE1A6"/>
</svg>
