<svg width="24" height="24" viewBox="0 0 24 24" fill="none" xmlns="http://www.w3.org/2000/svg">
<path d="M18.2219 17C19.6169 18.988 20.2839 20.047 19.8869 20.9C19.8469 20.9853 19.8002 21.0677 19.7469 21.147C19.1719 22 17.6869 22 14.7169 22H9.28287C6.31287 22 4.82887 22 4.25387 21.147C4.20141 21.0681 4.15463 20.9855 4.11387 20.9C3.71687 20.048 4.38387 18.988 5.77887 17M14.4999 9C14.4999 9.66304 14.2365 10.2989 13.7676 10.7678C13.2988 11.2366 12.6629 11.5 11.9999 11.5C11.3368 11.5 10.7009 11.2366 10.2321 10.7678C9.76326 10.2989 9.49987 9.66304 9.49987 9C9.49987 8.33696 9.76326 7.70107 10.2321 7.23223C10.7009 6.76339 11.3368 6.5 11.9999 6.5C12.6629 6.5 13.2988 6.76339 13.7676 7.23223C14.2365 7.70107 14.4999 8.33696 14.4999 9Z" stroke="#0054A6" stroke-width="2" stroke-linecap="round" stroke-linejoin="round"/>
<path d="M13.257 17.494C12.9192 17.819 12.4687 18.0005 12 18.0005C11.5313 18.0005 11.0808 17.819 10.743 17.494C7.65399 14.501 3.51499 11.158 5.53299 6.304C6.62599 3.679 9.24599 2 12 2C14.754 2 17.375 3.68 18.467 6.304C20.483 11.151 16.354 14.511 13.257 17.494Z" stroke="#0054A6" stroke-width="2" stroke-linecap="round" stroke-linejoin="round"/>
</svg>
