<svg width="114" height="114" viewBox="0 0 114 114" fill="none" xmlns="http://www.w3.org/2000/svg">
<path d="M46.7871 75.1948H67.2871V92.639H46.7871V75.1948Z" fill="#5F737C"/>
<path d="M78.9377 95.5702V97H35.0605V95.5702C35.0605 95.3557 35.0605 95.2127 35.0605 94.9982V94.9267C35.0605 94.7838 35.0605 94.7123 35.1325 94.5693C35.1325 94.4978 35.1325 94.4263 35.1325 94.3548C35.1325 94.2118 35.2044 94.0688 35.2763 93.9259C35.2763 93.8544 35.3483 93.7114 35.4202 93.6399C35.4202 93.5684 35.4202 93.5684 35.4921 93.4969C35.4921 93.3539 35.5641 93.2824 35.636 93.2109V93.1394C35.7798 92.8535 35.9237 92.5675 36.1395 92.2815C36.1395 92.2815 36.1395 92.2815 36.2114 92.21C37.2904 90.7802 39.0167 89.7793 40.9588 89.7793H73.1834C76.3483 89.7793 78.9377 92.353 78.9377 95.5702Z" fill="#839299"/>
<path d="M98 22.8624V72.3351C98 75.5523 95.4105 78.126 92.1737 78.126H21.8263C18.5895 78.126 16 75.5523 16 72.3351V22.8624C16 19.6452 18.5895 17 21.8263 17H92.1018C95.4105 17 98 19.6452 98 22.8624Z" fill="#839299"/>
<path d="M94.4759 22.9337V66.4011C94.4759 67.259 93.7566 67.9739 92.8935 67.9739H21.0356C20.1724 67.9739 19.4531 67.259 19.4531 66.4011V22.9337C19.4531 22.0758 20.1724 21.3608 21.0356 21.3608H92.9654C93.8286 21.3608 94.4759 22.0758 94.4759 22.9337Z" fill="#F9FAFB"/>
<path d="M46.211 37.4467L47.1461 36.7318C47.7215 36.3028 47.9373 35.4449 47.5057 34.8015L46.211 32.5852C45.8513 31.9418 45.0601 31.7273 44.4127 31.9418L43.3338 32.5137C42.9022 32.6567 42.4706 32.6567 42.039 32.4422C41.8952 32.3707 41.7513 32.2992 41.6075 32.2277C41.1759 32.0133 40.8882 31.5843 40.8882 31.1554L40.7443 30.0115C40.6724 29.2965 40.025 28.7246 39.3057 28.7246H36.7162C35.9969 28.7246 35.3496 29.2965 35.2776 30.0115L35.1338 31.1554C35.0618 31.6558 34.7741 32.0133 34.4145 32.2277C34.2706 32.2992 34.1268 32.3707 33.9829 32.4422C33.6233 32.6567 33.1197 32.6567 32.6882 32.5137L31.4654 32.0133C30.818 31.7273 30.0268 32.0133 29.6671 32.6567L28.3724 34.873C28.0127 35.5164 28.1566 36.3028 28.732 36.8033L29.6671 37.5182C30.0268 37.8041 30.2425 38.2331 30.2425 38.7335C30.2425 38.8765 30.2425 39.091 30.2425 39.234C30.2425 39.6629 30.0268 40.0919 29.6671 40.3779L28.732 41.0928C28.1566 41.5217 27.9408 42.3797 28.3724 43.0231L29.6671 45.2394C30.0268 45.8828 30.818 46.0973 31.4654 45.8828L32.6162 45.3823C33.0478 45.1679 33.5513 45.2394 33.911 45.4538C34.0548 45.5253 34.1987 45.5968 34.3425 45.7398C34.7022 45.9543 34.9899 46.3832 35.0618 46.8122L35.2057 47.9561C35.2776 48.671 35.925 49.2429 36.6443 49.2429H39.2338C39.9531 49.2429 40.6004 48.671 40.6724 47.9561L40.8162 46.8122C40.8882 46.3832 41.104 45.9543 41.5355 45.7398C41.6794 45.6683 41.8232 45.5968 41.9671 45.4538C42.3987 45.2394 42.8303 45.1679 43.2618 45.3823L44.4127 45.8828C45.0601 46.1688 45.8513 45.8828 46.211 45.2394L47.5057 43.0231C47.8654 42.3797 47.7215 41.5932 47.1461 41.0928L46.211 40.3779C45.8513 40.0919 45.6355 39.6629 45.6355 39.234C45.6355 39.091 45.6355 38.8765 45.6355 38.7335C45.6355 38.1616 45.8513 37.7327 46.211 37.4467ZM37.939 41.7362C36.3566 41.7362 34.9899 40.4494 34.9899 38.805C34.9899 37.2322 36.2847 35.8738 37.939 35.8738C39.5934 35.8738 40.8882 37.1607 40.8882 38.805C40.8882 40.4494 39.5934 41.7362 37.939 41.7362Z" fill="#D2D9DC"/>
<path d="M38.5864 60.6818H75.9899C76.7812 60.6818 77.4285 60.0383 77.4285 59.2519V30.1545C77.4285 29.5826 76.7092 29.2251 76.2777 29.5826L38.1549 59.3949C37.6513 59.8239 37.9391 60.6818 38.5864 60.6818ZM68.725 54.8194H53.4759L68.725 42.8802V54.8194Z" fill="#0054A6"/>
<path d="M77.499 35.9453V38.8765H74.5499C73.7587 38.8765 73.1113 38.2331 73.1113 37.4467C73.1113 36.6602 73.7587 36.0168 74.5499 36.0168H77.499V35.9453Z" fill="#FFDD33"/>
<path d="M77.499 41.7363V44.6675H74.5499C73.7587 44.6675 73.1113 44.0241 73.1113 43.2377C73.1113 42.4513 73.7587 41.8078 74.5499 41.8078H77.499V41.7363Z" fill="#FFDD33"/>
<path d="M77.499 47.5986V50.5298H74.5499C73.7587 50.5298 73.1113 49.8864 73.1113 49.1C73.1113 48.3136 73.7587 47.6701 74.5499 47.6701H77.499V47.5986Z" fill="#FFDD33"/>
<path d="M77.499 53.3892V56.3203H74.5499C73.7587 56.3203 73.1113 55.6769 73.1113 54.8905C73.1113 54.1041 73.7587 53.4607 74.5499 53.4607H77.499V53.3892Z" fill="#FFDD33"/>
<path d="M87.7853 30.0832C87.7853 29.2968 87.1379 28.6533 86.3467 28.6533H83.3976C81.5274 28.6533 81.5274 31.5845 83.3976 31.5845V57.7507C82.6064 57.7507 81.959 58.3942 81.959 59.1806C81.959 59.967 82.6064 60.6104 83.3976 60.6104H86.3467C88.2169 60.6104 88.2169 57.6792 86.3467 57.6792V31.5845C87.066 31.5845 87.7853 30.9411 87.7853 30.0832Z" fill="#ED1C24"/>
<path d="M29.1624 57.7505C27.2922 57.7505 27.2922 60.6817 29.1624 60.6817H32.1115C33.9817 60.6817 33.9817 57.7505 32.1115 57.7505H29.1624Z" fill="#D2D9DC"/>
<path d="M29.1624 51.96C27.2922 51.96 27.2922 54.8911 29.1624 54.8911H35.0606C36.9308 54.8911 36.9308 51.96 35.0606 51.96H29.1624Z" fill="#D2D9DC"/>
<path d="M86.2757 70.8335C84.4055 70.8335 84.4055 73.7647 86.2757 73.7647H89.2248C91.095 73.7647 91.095 70.8335 89.2248 70.8335H86.2757Z" fill="#EDF4FA"/>
</svg>
