<svg width="50" height="50" viewBox="0 0 50 50" fill="none" xmlns="http://www.w3.org/2000/svg">
<g clip-path="url(#clip0_18202_7532)">
<path d="M42.2059 0.384766H7.7905C3.6982 0.384766 0.382812 3.70015 0.382812 7.79246V42.2155C0.382812 46.3078 3.6982 49.6232 7.7905 49.6232H42.2136C46.3059 49.6232 49.6213 46.3078 49.6213 42.2155V7.79246C49.6136 3.70015 46.2982 0.384766 42.2059 0.384766Z" fill="#F4F4F6"/>
<path d="M41.2359 10.5542H15.0666C13.4205 10.5542 12.082 11.8927 12.082 13.5388V21.3157C12.082 22.2004 12.7974 22.9157 13.682 22.9157C14.1282 22.9157 14.5359 22.7311 14.8205 22.4388L21.9743 29.4696C21.6897 29.7619 21.5128 30.1542 21.5128 30.5927C21.5128 31.4773 22.2282 32.1927 23.1128 32.1927H30.5282L36.282 38.1465C36.5897 38.4619 37.0051 38.6388 37.4359 38.6388C37.6359 38.6388 37.8436 38.6004 38.0359 38.5234C38.6436 38.2773 39.0359 37.6927 39.0359 37.0388V32.1927H41.2359C42.882 32.1927 44.2282 30.8542 44.2282 29.2004V13.5465C44.2282 11.9004 42.8897 10.5542 41.2359 10.5542Z" fill="url(#paint0_linear_18202_7532)"/>
<path d="M39.2481 20.9308C39.2251 20.7847 39.1789 20.6462 39.1251 20.5154C39.0712 20.3847 39.002 20.2616 38.9251 20.1385C38.8404 20.0154 38.7481 19.9077 38.6481 19.8077C37.8328 18.9847 36.3481 18.9847 35.5328 19.8077C35.4328 19.9077 35.3328 20.0154 35.2558 20.1385C35.1789 20.2616 35.1097 20.377 35.0558 20.5154C35.002 20.6462 34.9558 20.7924 34.9251 20.9308C34.902 21.077 34.8789 21.2154 34.8789 21.3616C34.8789 21.6616 34.9328 21.9385 35.0404 22.2C35.1481 22.477 35.3174 22.7077 35.5251 22.9154C35.7328 23.1231 35.9789 23.2924 36.2404 23.4C36.502 23.5077 36.7943 23.5616 37.0789 23.5616C37.3789 23.5616 37.6635 23.5077 37.9251 23.4C38.1866 23.2924 38.4328 23.1231 38.6404 22.9154C38.8481 22.7077 39.002 22.477 39.1174 22.2C39.2251 21.9385 39.2789 21.6616 39.2789 21.3616C39.2943 21.2154 39.2789 21.077 39.2481 20.9308Z" fill="white"/>
<path d="M30.3106 20.9308C30.2876 20.7847 30.2414 20.6462 30.1876 20.5154C30.1337 20.3847 30.0645 20.2616 29.9876 20.1385C29.9029 20.0154 29.8106 19.9077 29.7106 19.8077C28.8953 18.9847 27.4106 18.9847 26.5953 19.8077C26.4953 19.9077 26.3953 20.0154 26.3183 20.1385C26.2414 20.2616 26.1722 20.377 26.1183 20.5154C26.0645 20.6462 26.0183 20.7924 25.9876 20.9308C25.9645 21.077 25.9414 21.2154 25.9414 21.3616C25.9414 21.6616 25.9953 21.9385 26.1029 22.2C26.2106 22.477 26.3799 22.7077 26.5876 22.9154C26.7953 23.1231 27.0414 23.2924 27.3029 23.4C27.5645 23.5077 27.8568 23.5616 28.1414 23.5616C28.4414 23.5616 28.726 23.5077 28.9876 23.4C29.2491 23.2924 29.4953 23.1231 29.7029 22.9154C29.9106 22.7077 30.0645 22.477 30.1799 22.2C30.2876 21.9385 30.3414 21.6616 30.3414 21.3616C30.3491 21.2154 30.3414 21.077 30.3106 20.9308Z" fill="white"/>
<path d="M21.3731 20.9308C21.3501 20.7847 21.3039 20.6462 21.2501 20.5154C21.1962 20.3847 21.127 20.2616 21.0501 20.1385C20.9654 20.0154 20.8731 19.9077 20.7731 19.8077C19.9578 18.9847 18.4731 18.9847 17.6578 19.8077C17.5578 19.9077 17.4578 20.0154 17.3808 20.1385C17.3039 20.2616 17.2347 20.377 17.1808 20.5154C17.127 20.6462 17.0808 20.7924 17.0501 20.9308C17.027 21.077 17.0039 21.2154 17.0039 21.3616C17.0039 21.6616 17.0578 21.9385 17.1654 22.2C17.2731 22.477 17.4424 22.7077 17.6501 22.9154C17.8578 23.1231 18.1039 23.2924 18.3654 23.4C18.627 23.5077 18.9193 23.5616 19.2039 23.5616C19.5039 23.5616 19.7885 23.5077 20.0501 23.4C20.3116 23.2924 20.5578 23.1231 20.7654 22.9154C20.9731 22.7077 21.127 22.477 21.2424 22.2C21.3501 21.9385 21.4039 21.6616 21.4039 21.3616C21.4116 21.2154 21.4039 21.077 21.3731 20.9308Z" fill="white"/>
<path d="M15.3118 39.439C20.584 39.439 24.8579 35.165 24.8579 29.8928C24.8579 24.6206 20.584 20.3467 15.3118 20.3467C10.0396 20.3467 5.76562 24.6206 5.76562 29.8928C5.76562 35.165 10.0396 39.439 15.3118 39.439Z" fill="url(#paint1_linear_18202_7532)"/>
<path d="M13.7901 34.0309C13.3825 34.0309 12.9901 33.8694 12.7055 33.577L10.5594 31.4309C9.95938 30.8309 9.95938 29.854 10.5594 29.254C11.1594 28.654 12.1363 28.654 12.7363 29.254L13.7901 30.3078L17.8901 26.2078C18.4901 25.6078 19.4671 25.6078 20.0671 26.2078C20.6671 26.8078 20.6671 27.7847 20.0671 28.3847L14.8825 33.5694C14.5901 33.8694 14.1978 34.0309 13.7901 34.0309Z" fill="white"/>
</g>
<defs>
<linearGradient id="paint0_linear_18202_7532" x1="13.1766" y1="37.3865" x2="37.0743" y2="13.4888" gradientUnits="userSpaceOnUse">
<stop stop-color="#4656A1"/>
<stop offset="1" stop-color="#84C8D3"/>
</linearGradient>
<linearGradient id="paint1_linear_18202_7532" x1="5.76562" y1="29.8959" x2="24.8618" y2="29.8959" gradientUnits="userSpaceOnUse">
<stop stop-color="#F3AA0F"/>
<stop offset="1" stop-color="#FED46E"/>
</linearGradient>
<clipPath id="clip0_18202_7532">
<rect width="50" height="50" fill="white"/>
</clipPath>
</defs>
</svg>
