<svg width="50" height="50" viewBox="0 0 50 50" fill="none" xmlns="http://www.w3.org/2000/svg">
<g clip-path="url(#clip0_12083_17815)">
<path fill-rule="evenodd" clip-rule="evenodd" d="M44.6984 41V36.4L40.3984 33.5H36.9984L33.8984 36.6V40.7L37.9984 43.1L44.6984 41Z" fill="#5F737C"/>
<path fill-rule="evenodd" clip-rule="evenodd" d="M15.4 27.1V38.7001C15.4 39.2001 15.6 39.7 16 40.1C16.3 40.5 16.8 40.7001 17.4 40.7001H21.8C22.3 40.7001 22.8 40.5 23.2 40.1C23.6 39.8 23.8 39.3001 23.8 38.7001V31.9C23.8 30.7 24.3 29.7 25.1 28.9C25.9 28.1 27 27.6 28.1 27.6H36.2C38.6 27.6 40.5 29.5 40.5 31.9V32.6C40.5 32.8 40.3 32.9001 40.2 32.9001H38.5C38.3 32.9001 38.2 32.7 38.2 32.6V31.9C38.2 30.8 37.3 30 36.3 30H28C27.5 30 27 30.2 26.6 30.6C26.2 30.9001 26 31.4 26 32V38.8C26 40 25.5 41 24.7 41.8C23.9 42.6 22.8 43.1 21.7 43.1H17.3C16.1 43.1 15 42.6 14.3 41.8C13.5 41 13 40 13 38.8V27.1C13 26.9 13.1 26.8 13.3 26.8H15C15.2 26.8 15.4 27 15.4 27.1Z" fill="#002548"/>
<path fill-rule="evenodd" clip-rule="evenodd" d="M37.9969 32.8H40.5969C42.6969 32.8 44.3969 34.4001 44.6969 36.4001C44.6969 36.5001 44.6969 36.6 44.5969 36.6C44.2969 37.2 43.8969 37.7001 43.3969 38.2001C42.7969 38.8001 42.0969 39.2 41.3969 39.5C41.1969 39.6 41.0969 39.6 40.9969 39.5C40.8969 39.4 40.7969 39.3001 40.7969 39.2001V35.7001C40.7969 34.8001 40.0969 34.1 39.1969 34.1C38.2969 34.1 37.5969 34.8001 37.5969 35.7001V39.2001C37.5969 39.3001 37.4969 39.4 37.3969 39.5C37.2969 39.6 37.1969 39.6 37.0969 39.5C36.2969 39.2 35.5969 38.8001 34.9969 38.2001C34.5969 37.7001 34.1969 37.2 33.7969 36.6C33.7969 36.5 33.7969 36.4001 33.7969 36.4001C34.0969 34.3001 35.8969 32.8 37.9969 32.8ZM44.6969 39.5V43.5C44.6969 45.8 42.8969 47.6 40.5969 47.6H37.9969C35.6969 47.6 33.8969 45.8 33.8969 43.5V39.5C33.8969 39.3 33.9969 39.2001 34.1969 39.2001C34.2969 39.1001 34.4969 39.1 34.5969 39.3C35.8969 40.4 37.4969 41.1 39.3969 41.1C41.2969 41.1 42.8969 40.4 44.1969 39.3C44.2969 39.2 44.4969 39.1001 44.5969 39.2001C44.5969 39.2001 44.6969 39.3 44.6969 39.5Z" fill="#0054A6"/>
<path fill-rule="evenodd" clip-rule="evenodd" d="M39.2998 34.9C39.6998 34.9 40.0998 35.3 40.0998 35.7V39.2C40.0998 39.7 39.6998 40 39.2998 40C38.8998 40 38.4998 39.6 38.4998 39.2V35.7C38.3998 35.2 38.7998 34.9 39.2998 34.9Z" fill="#002548"/>
<path d="M39.7984 0L41.6984 0.5V25.9H25.0984L24.1984 25L22.7984 26.5L6.39844 25.9L6.69844 0.5L8.99844 0L10.1984 0.5L24.0984 2.4L25.9984 1L39.7984 0Z" fill="#839299"/>
<path d="M9.69531 23L24.3953 22.2L39.2953 22.6V1.1L25.9953 1.4L24.1953 2.5L20.6953 1H9.69531V23Z" fill="#D2D9DC"/>
<path fill-rule="evenodd" clip-rule="evenodd" d="M27.7016 6.7H35.8016C36.0016 6.7 36.1016 6.8 36.1016 6.9V7.5C36.1016 7.6 36.0016 7.7 35.8016 7.7H27.7016C27.6016 7.7 27.5016 7.6 27.5016 7.5V6.9C27.5016 6.8 27.6016 6.7 27.7016 6.7ZM9.70156 24.1H9.10156C8.80156 24.1 8.60156 23.8 8.60156 23.6V23.1V1V0.5C8.70156 0.2 8.90156 0 9.10156 0H9.70156H21.1016C22.3016 0 23.4016 0.5 24.1016 1.3C24.2016 1.4 24.3016 1.5 24.3016 1.6C24.4016 1.5 24.5016 1.4 24.5016 1.3C25.3016 0.5 26.4016 0 27.5016 0H39.0016H39.6016C39.9016 0 40.1016 0.2 40.1016 0.5V1V23V23.5C40.1016 23.8 39.8016 24 39.6016 24H39.0016H27.3016C26.0016 24 25.2016 24 24.6016 23C24.6016 23 24.4016 23 24.3016 23C24.2016 23 24.1016 23.1 24.0016 23.2C23.4016 24.1 22.7016 24.2 21.4016 24.2H9.70156V24.1ZM23.3016 7.9V5.1V4.3C23.3016 3.7 23.0016 3.2 22.7016 2.8C22.3016 2.4 21.7016 2.1 21.1016 2.1H11.0016C10.8016 2.1 10.8016 2.2 10.8016 2.3V21.1C10.8016 21.2 10.9016 21.3 11.0016 21.3H22.8016C23.1016 21.3 23.3016 21.1 23.3016 20.8V7.9ZM37.8016 2.1H27.6016C27.0016 2.1 26.4016 2.4 26.1016 2.8C25.7016 3.2 25.4016 3.7 25.4016 4.3V5.1V8V20.8C25.4016 21.1 25.6016 21.3 25.9016 21.3H37.7016C37.8016 21.3 37.9016 21.2 37.9016 21.1V2.3C37.9016 2.2 37.9016 2.1 37.8016 2.1ZM12.7016 17.5H20.8016C21.0016 17.5 21.1016 17.6 21.1016 17.7V18.3C21.1016 18.4 21.0016 18.5 20.8016 18.5H12.7016C12.6016 18.5 12.5016 18.4 12.5016 18.3V17.7C12.5016 17.6 12.6016 17.5 12.7016 17.5ZM12.7016 14.8H20.8016C21.0016 14.8 21.1016 14.9 21.1016 15V15.6C21.1016 15.7 21.0016 15.8 20.8016 15.8H12.7016C12.6016 15.8 12.5016 15.7 12.5016 15.6V15C12.5016 14.9 12.6016 14.8 12.7016 14.8ZM12.7016 12.1H20.8016C21.0016 12.1 21.1016 12.2 21.1016 12.3V12.9C21.1016 13 21.0016 13.1 20.8016 13.1H12.7016C12.6016 13.1 12.5016 13 12.5016 12.9V12.3C12.5016 12.2 12.6016 12.1 12.7016 12.1ZM12.7016 9.4H20.8016C21.0016 9.4 21.1016 9.5 21.1016 9.7V10.3C21.1016 10.5 21.0016 10.6 20.8016 10.6H12.7016C12.6016 10.6 12.5016 10.5 12.5016 10.3V9.6C12.5016 9.5 12.6016 9.4 12.7016 9.4ZM12.7016 6.7H20.8016C21.0016 6.7 21.1016 6.8 21.1016 6.9V7.5C21.1016 7.6 21.0016 7.7 20.8016 7.7H12.7016C12.6016 7.7 12.5016 7.6 12.5016 7.5V6.9C12.5016 6.8 12.6016 6.7 12.7016 6.7ZM12.9016 4H21.0016C21.1016 4 21.2016 4.1 21.2016 4.2V4.8C21.2016 4.9 21.1016 5 21.0016 5H12.9016C12.7016 5 12.6016 4.9 12.6016 4.8V4.2C12.6016 4.1 12.7016 4 12.9016 4ZM27.7016 4H35.8016C36.0016 4 36.1016 4.1 36.1016 4.2V4.8C36.1016 4.9 36.0016 5 35.8016 5H27.7016C27.6016 5 27.5016 4.9 27.5016 4.8V4.2C27.5016 4.1 27.6016 4 27.7016 4ZM27.7016 17.5H35.8016C36.0016 17.5 36.1016 17.6 36.1016 17.7V18.3C36.1016 18.4 36.0016 18.5 35.8016 18.5H27.7016C27.6016 18.5 27.5016 18.4 27.5016 18.3V17.7C27.5016 17.6 27.6016 17.5 27.7016 17.5ZM27.7016 14.8H35.8016C36.0016 14.8 36.1016 14.9 36.1016 15V15.6C36.1016 15.7 36.0016 15.8 35.8016 15.8H27.7016C27.6016 15.8 27.5016 15.7 27.5016 15.6V15C27.5016 14.9 27.6016 14.8 27.7016 14.8ZM27.7016 12.1H35.8016C36.0016 12.1 36.1016 12.2 36.1016 12.3V12.9C36.1016 13 36.0016 13.1 35.8016 13.1H27.7016C27.6016 13.1 27.5016 13 27.5016 12.9V12.3C27.5016 12.2 27.6016 12.1 27.7016 12.1ZM27.7016 9.4H35.8016C36.0016 9.4 36.1016 9.5 36.1016 9.7V10.3C36.1016 10.5 36.0016 10.6 35.8016 10.6H27.7016C27.6016 10.6 27.5016 10.5 27.5016 10.3V9.6C27.5016 9.5 27.6016 9.4 27.7016 9.4Z" fill="#0054A6"/>
<path fill-rule="evenodd" clip-rule="evenodd" d="M6.09687 0.5H6.69687C6.89687 0.5 6.99687 0.6 6.99687 0.8V24.4C6.99687 25.1 7.09687 25.2 7.79688 25.2H22.1969C22.7969 25.2 23.5969 25.1 24.0969 24.6C24.1969 24.5 24.1969 24.5 24.2969 24.6C24.7969 25.1 25.5969 25.2 26.1969 25.2H40.5969C41.2969 25.2 41.3969 25 41.3969 24.4V0.8C41.3969 0.6 41.4969 0.5 41.6969 0.5H42.2969C42.7969 0.5 43.0969 0.9 43.0969 1.3V25C43.0969 26 42.5969 27.2 41.2969 27.2H25.2969C24.8969 27.2 24.5969 26.8 24.5969 26.5L24.4969 26.3C24.4969 26.2 24.3969 25.5 24.1969 25.5C23.8969 25.5 23.8969 26.2 23.8969 26.3L23.7969 26.5C23.6969 26.8 23.3969 27.2 23.0969 27.2H7.09687C5.79687 27.2 5.29688 26 5.29688 25V1.3C5.29688 0.8 5.69687 0.5 6.09687 0.5Z" fill="#002548"/>
</g>
<defs>
<clipPath id="clip0_12083_17815">
<rect width="50" height="50" fill="white"/>
</clipPath>
</defs>
</svg>
