<svg width="186" height="120" viewBox="0 0 186 120" fill="none" xmlns="http://www.w3.org/2000/svg">
<path d="M0.00064681 78.6845C0.889239 71.8138 4.58578 61.6773 4.58578 61.6773C4.58578 61.6773 7.09161 48.1323 7.50036 47.24C7.89134 46.3477 52.0721 56.4128 53.7427 57.9118C55.4132 59.4109 52.9963 71.8317 52.1255 74.9725C51.2546 78.1134 48.3045 90.4271 47.878 90.445C47.4515 90.4628 20.1895 82.6998 18.9632 82.5927C17.7369 82.4678 -0.123756 79.7017 0.00064681 78.6845Z" fill="#D1D8DB"/>
<path opacity="0.19" d="M18.9276 82.576C19.1942 81.9157 19.4608 81.2375 19.7629 80.5772C25.7165 67.175 36.895 56.6459 46.3851 55.6108C40.8048 54.1474 32.9318 52.2736 25.7165 50.6675C25.0056 54.54 23.7616 58.6446 21.9311 62.7492C18.3767 70.7441 13.365 77.1151 8.26453 80.8271C12.9741 81.7015 18.0924 82.4868 18.9276 82.576Z" fill="#F8F9FA"/>
<path d="M25.7875 68.7087C24.9522 67.7628 26.0185 59.9463 27.1026 59.6965C28.1867 59.4466 47.7357 63.7653 48.4999 64.4435C49.2641 65.1395 47.8246 72.028 47.3803 73.0095C46.936 73.9911 26.9249 70.0114 25.7875 68.7087Z" fill="#829198"/>
<path d="M27.0314 68.2803C26.3028 67.4594 27.4757 60.9635 28.4532 60.785C29.4306 60.6065 46.9181 64.6754 47.5934 65.2643C48.2688 65.8532 46.7937 71.5818 46.3672 72.4027C45.9584 73.2058 28.0444 69.4046 27.0314 68.2803Z" fill="#B7A696"/>
<path d="M27.0314 68.2803C26.3028 67.4594 27.4757 60.9635 28.4532 60.785C29.4306 60.6065 46.9181 64.6754 47.5934 65.2643C48.2688 65.8532 46.7937 71.5818 46.3672 72.4027C45.9584 73.2058 28.0444 69.4046 27.0314 68.2803Z" fill="#0054A6"/>
<path d="M46.065 66.4242C46.065 66.4242 28.7908 62.7479 28.613 62.6587L28.6486 63.5331L46.1005 67.6556L46.065 66.4242Z" fill="#829198"/>
<path d="M46.2248 68.4053C46.2248 68.4053 33.5179 65.6927 33.3757 65.6392L33.4113 66.2816L46.2425 69.3154L46.2248 68.4053Z" fill="#829198"/>
<path d="M39.9165 69.566C39.9165 69.566 30.1243 67.4781 30.0176 67.4424L30.0354 67.9421L39.9165 70.2799V69.566Z" fill="#829198"/>
<path opacity="0.19" d="M32.665 70.8133C32.8249 70.3493 33.0026 69.8853 33.2159 69.4391C34.7087 66.1019 36.9835 63.5143 39.436 62.0688C37.8721 61.7118 36.2549 61.3549 34.7443 61.0337C34.6554 61.23 34.5843 61.4442 34.4777 61.6405C32.8249 65.3346 30.2125 68.1185 27.4578 69.4391C28.7196 69.8674 30.5857 70.3493 32.665 70.8133Z" fill="#F8F9FA"/>
<path opacity="0.19" d="M40.7514 67.5129C40.0228 69.1547 39.1342 70.6538 38.1567 71.9744C38.8854 72.1172 39.5963 72.2421 40.2716 72.367C42.5464 68.5837 45.6031 65.8711 48.6244 64.7825C48.5888 64.6219 48.5355 64.5148 48.4644 64.4613C48.1978 64.2114 45.5854 63.5333 42.2798 62.748C41.9777 64.3006 41.4623 65.9068 40.7514 67.5129Z" fill="#F8F9FA"/>
<path d="M48.0919 90.0507L22.7493 82.2342C22.7493 82.2342 2.50714 79.7893 1.68963 78.2545C0.889899 76.7198 6.29254 61.6757 6.29254 61.6757C6.29254 61.6757 6.257 58.2671 6.59466 51.2715C5.72384 55.5545 4.60421 61.6578 4.60421 61.6578C4.60421 61.6578 0.907672 71.7943 0.0190794 78.665C-0.105323 79.6822 17.7554 82.4483 18.9816 82.5732C20.2079 82.6982 47.4521 90.4433 47.8964 90.4254C47.9142 90.4433 48.0031 90.3005 48.0919 90.0507Z" fill="#829198"/>
<path d="M15.7998 52.1309C14.9823 50.8817 11.2324 51.0245 11.2324 51.0245L9.82843 58.1628L10.9658 58.5198L11.2502 56.1641C11.2502 56.1641 13.4539 56.7173 15.1067 56.3604C16.7417 56.0035 16.6173 53.3801 15.7998 52.1309ZM11.5701 54.9863L12.0144 52.47C12.0144 52.47 14.7157 52.7734 14.6446 53.862C14.538 55.593 13.0451 55.361 11.5701 54.9863Z" fill="#EC1C24"/>
<path d="M13.0986 58.6973L13.1697 57.5908L14.5382 57.8585L14.8403 59.9108L13.0986 58.6973Z" fill="#EC1C24"/>
<path d="M15.7112 58.734L15.4446 57.3955L16.7064 57.9666L16.5464 58.609L15.7112 58.734Z" fill="#EC1C24"/>
<path d="M17.0972 59.6428L17.3815 57.0552L18.1279 57.6084L17.9324 59.8034L17.0972 59.6428Z" fill="#EC1C24"/>
<path d="M15.9245 78.7919L16.0134 77.6498L5.91895 75.1514L6.02558 75.8474L15.9245 78.7919Z" fill="#829198"/>
<path d="M15.9066 76.9195L16.1554 75.8309L10.5395 74.5103L10.4862 75.1706L15.9066 76.9195Z" fill="#829198"/>
<path d="M142.192 45.3481C137.625 53.5751 132.915 62.9621 128.899 71.8137C142.654 80.1477 156.463 87.9285 170.307 95.3346C175.408 89.142 180.668 79.3625 186 67.6912C174.04 61.2846 158.702 53.004 142.192 45.3481Z" fill="#FFDC33"/>
<path opacity="0.19" d="M131.458 66.3168C134.515 69.4934 138.371 72.4023 142.85 74.7401C157.601 82.396 173.524 80.8791 178.429 71.3494C179.531 69.2079 179.975 66.8522 179.851 64.4073C168.975 58.5896 156.001 51.7546 142.21 45.3657C138.567 51.8795 134.853 59.1606 131.458 66.3168Z" fill="#F8F9FA"/>
<path d="M143.205 48.9722L139.918 55.361L145.16 58.5911L149.088 52.1844L143.205 48.9722Z" fill="#F8F9FA"/>
<path opacity="0.19" d="M171.836 84.8236C167.108 86.055 163.039 87.8217 160.089 89.8026C163.483 91.6764 166.895 93.5146 170.29 95.3349C172.831 92.2475 175.408 88.2857 178.02 83.6279C176.03 83.8778 173.951 84.2704 171.836 84.8236Z" fill="#2D2F31"/>
<path opacity="0.19" d="M152.624 79.7378L170.734 89.7137L171.747 89.1248L152.926 79.1489L152.624 79.7378Z" fill="#2D2F31"/>
<path opacity="0.19" d="M155.023 77.4007L169.33 85.0923L169.934 84.2892L155.326 76.8296L155.023 77.4007Z" fill="#2D2F31"/>
<path opacity="0.19" d="M156.694 74.4549L169.117 81.1828L169.721 80.3619L156.996 73.8838L156.694 74.4549Z" fill="#2D2F31"/>
<path opacity="0.19" d="M162.914 73.742L175.355 80.4699L175.941 79.6311L163.216 73.1709L162.914 73.742Z" fill="#2D2F31"/>
<path d="M143.49 50.1504L141.002 55.0045L144.982 57.4494L147.968 52.5953L143.49 50.1504Z" fill="#EC1C24"/>
<path d="M152.233 61.8748L155.521 55.486L150.278 52.2559L146.351 58.6625L152.233 61.8748Z" fill="#F8F9FA"/>
<path d="M151.931 60.6967L154.437 55.8426L150.456 53.3799L147.471 58.2518L151.931 60.6967Z" fill="#0054A6"/>
<path d="M17.3638 12.7087C17.2572 13.2441 23.7795 29.7159 24.2238 31.3934C24.6681 33.053 26.8718 43.6178 27.5471 44.2603C28.2047 44.9027 51.699 36.3545 51.699 36.3545C51.699 36.3545 74.1271 30.2869 74.9446 29.4303C75.7621 28.5737 66.8406 -0.301007 65.5078 0.00237391C64.1571 0.305755 38.228 6.10568 38.228 6.10568C38.228 6.10568 17.5771 11.7093 17.3638 12.7087Z" fill="#0054A6"/>
<path opacity="0.19" d="M74.9442 29.4299C74.9797 29.3942 74.9975 29.3228 74.9975 29.1979C66.8225 27.5382 52.214 24.5758 51.8941 24.6115C51.5387 24.6293 61.6153 7.19385 65.7917 0.216091C65.6851 0.0733237 65.5784 0.0019389 65.5074 0.0197848C64.3344 0.287474 44.4299 4.73111 39.3827 5.87325L39.2939 6.96185L50.2591 30.7505L57.2434 34.8729C63.9434 32.9812 74.3933 30.0188 74.9442 29.4299Z" fill="#2D2F31"/>
<path opacity="0.19" d="M40.1652 8.92607L36.8063 6.49902C32.1678 7.78393 17.5239 11.8706 17.3461 12.7273C17.3284 12.8522 17.6305 13.7623 18.1281 15.1543C32.7721 21.2755 45.6211 27.8784 45.6211 27.8784L26.8896 42.4943C27.1562 43.4579 27.3872 44.1182 27.5472 44.261C27.9915 44.7072 39.0278 40.8703 46.0299 38.3897L50.9171 31.3049L40.1652 8.92607Z" fill="#2D2F31"/>
<path d="M28.2759 44.2251C32.3635 43.4042 51.6992 36.3551 51.6992 36.3551C51.6992 36.3551 71.8881 30.8942 74.6427 29.6093L47.6828 25.2192C47.6828 25.2192 34.4961 38.7464 28.2759 44.2251Z" fill="#0054A6"/>
<path d="M38.2103 6.10521C38.2103 6.10521 17.5594 11.691 17.3462 12.7082C17.3284 12.7796 17.4173 13.083 17.595 13.5827C24.9525 17.2054 47.9848 28.4305 48.4469 27.5382C48.9267 26.628 61.2604 6.67628 65.2946 0.0375977C62.5222 0.680051 38.2103 6.10521 38.2103 6.10521Z" fill="#0054A6"/>
<path opacity="0.19" d="M17.3636 12.708C17.3458 12.7794 17.4347 13.0828 17.6124 13.5824C20.5981 15.0458 26.1429 17.7584 31.7055 20.3996C35.953 20.2747 40.6092 19.4538 45.3365 17.8833C50.3304 16.2415 54.7556 13.9572 58.3633 11.3517C61.1357 6.83668 63.8015 2.50012 65.3121 0.0195312C62.5397 0.644139 38.2278 6.08715 38.2278 6.08715C38.2278 6.08715 17.5769 11.7086 17.3636 12.708Z" fill="#F8F9FA"/>
<path opacity="0.19" d="M50.7748 28.1279C49.8506 26.8965 48.3045 26.5753 46.2963 26.8073C42.7241 30.4478 33.2517 39.8526 28.2934 44.2249C31.6878 43.5468 45.6387 38.5499 50.2238 36.8902C51.8411 33.1247 52.1432 29.9482 50.7748 28.1279Z" fill="#F8F9FA"/>
<path opacity="0.19" d="M74.6422 29.6085L65.4897 28.1094C58.1855 27.2706 50.1881 26.6996 49.2285 27.6989C48.02 28.9482 50.3836 31.7678 56.8703 34.9265C63.0372 33.2312 72.7761 30.4651 74.6422 29.6085Z" fill="#F8F9FA"/>
<path d="M44.7147 28.8064C45.3545 30.7694 47.4516 31.8223 49.4065 31.1799C51.3614 30.5374 52.4099 28.4316 51.7701 26.4686C51.1303 24.5055 49.0333 23.4526 47.0784 24.0951C45.1235 24.7375 44.0749 26.8433 44.7147 28.8064Z" fill="#FFDC33"/>
<path opacity="0.19" d="M45.5677 28.5026C46.2252 30.5192 47.5226 30.2694 48.9799 29.7875C50.4549 29.3057 51.539 28.7703 50.8814 26.7537C50.2239 24.7371 48.9976 24.9691 47.4337 25.2368C45.9231 25.4867 44.9101 26.486 45.5677 28.5026Z" fill="#2D2F31"/>
<path opacity="0.19" d="M24.5969 33L37.1439 26.9859C37.1439 26.9859 29.4842 23.1133 19.8696 19.7583C21.7179 24.6481 23.9572 30.448 24.2237 31.3938C24.2948 31.6972 24.437 32.2505 24.5969 33Z" fill="#F8F9FA"/>
<path opacity="0.19" d="M66.6628 1.89404C61.4911 8.53273 56.1774 20.4538 56.1774 20.4538C56.1774 20.4538 62.824 19.5972 73.3272 21.9886C71.4434 15.2606 68.4044 5.85584 66.6628 1.89404Z" fill="#F8F9FA"/>
<path d="M48.1269 29.1794L49.3709 28.8046L48.3934 26.6095L49.4775 26.4311L49.1576 25.5566L45.9232 26.7166L46.3319 27.4305L47.7003 26.8951L48.1269 29.1794Z" fill="#FFDC33"/>
<path d="M128.171 30.0194L117.561 50.6493L81.2885 37.3005L88.5217 14.1187L128.171 30.0194Z" fill="#FFBC85"/>
<path opacity="0.19" d="M89.4102 14.4751L128.171 30.0189L119.729 46.4372C115.961 46.4015 112.087 45.7412 108.284 44.4027C93.8709 39.3166 85.8025 26.2177 89.4102 14.4751Z" fill="#F8F9FA"/>
<path d="M125.203 30.4828L122.057 36.0864L118.751 34.5517L120.635 29.4478L125.203 30.4828Z" fill="#0054A6"/>
<g opacity="0.19">
<path d="M101.14 24.9507C101.3 24.9329 101.406 24.8258 101.406 24.683C101.228 23.0412 99.6645 23.0947 98.4205 23.1304C97.7807 23.1483 97.1231 23.1661 96.6788 22.9877C96.2345 22.8092 95.8791 22.6486 95.5237 22.4701C94.7062 22.0775 93.9953 21.7384 92.8223 21.6314C92.0937 21.56 91.7205 21.2744 91.2584 20.8997C91.0452 20.7391 90.8141 20.5428 90.5298 20.3821C90.4587 20.3465 90.3698 20.3286 90.281 20.3286C90.1921 20.3465 90.121 20.3821 90.0855 20.4535C89.9788 20.632 89.9611 20.8283 90.0499 21.0246C90.1033 21.1674 90.281 21.2388 90.4409 21.1852C90.512 21.1674 90.5653 21.1317 90.6009 21.0781C90.6897 21.1495 90.7786 21.2031 90.8674 21.2744C91.3828 21.6671 91.8627 22.0418 92.7868 22.1489C93.8353 22.256 94.4574 22.5593 95.2571 22.9341C95.6303 23.1126 96.0035 23.291 96.4656 23.4695C97.052 23.7015 97.7807 23.6836 98.4916 23.648C99.8955 23.6123 100.695 23.6301 100.82 24.7187C100.802 24.8615 100.944 24.9686 101.14 24.9507C101.122 24.9507 101.122 24.9507 101.14 24.9507Z" fill="#2D2F31"/>
<path d="M97.461 26.5032C97.5143 26.5032 97.5676 26.4854 97.6209 26.4497C97.7453 26.3604 97.7631 26.1998 97.6564 26.0928C96.7501 25.1648 95.7193 24.9863 94.6352 24.8078C94.4575 24.7722 94.262 24.7543 94.0665 24.7008C93.5512 24.6115 93.1424 24.3439 92.6981 24.0583C92.3782 23.862 92.0583 23.6479 91.6851 23.5051C91.2586 23.3266 90.8321 23.2553 90.4233 23.166C90.21 23.1303 89.9968 23.0946 89.7657 23.0233C89.6058 22.9876 89.4281 23.0589 89.3925 23.2017C89.357 23.3445 89.4459 23.4873 89.6058 23.5229C89.8546 23.5765 90.0856 23.63 90.3167 23.6657C90.7077 23.7371 91.0631 23.8085 91.4185 23.9512C91.7384 24.0762 92.0228 24.2725 92.3249 24.4509C92.8047 24.7543 93.2846 25.0577 93.9244 25.1826C94.1199 25.2183 94.3153 25.254 94.5108 25.2897C95.5238 25.4681 96.4124 25.6109 97.1588 26.3783C97.2477 26.4854 97.3543 26.5032 97.461 26.5032Z" fill="#2D2F31"/>
<path d="M97.1765 30.3404C97.2121 30.3404 97.2654 30.3226 97.3009 30.3047C97.4431 30.2333 97.4786 30.0727 97.3898 29.9478C96.3946 28.5915 94.2975 27.4137 92.2893 27.0746L91.8983 27.0032C91.1341 26.8783 90.5654 26.7891 89.8012 26.45C89.5879 26.3608 89.3569 26.2358 89.1259 26.1109C88.4861 25.7718 87.8463 25.4149 87.0999 25.4328C86.9222 25.4328 86.7978 25.5399 86.8155 25.6826L86.8333 25.9681C86.8333 26.1109 86.9755 26.218 87.1532 26.2358C87.3309 26.2358 87.4553 26.1288 87.4553 25.986C87.9174 26.0752 88.3794 26.3251 88.8415 26.5571C89.0903 26.682 89.3214 26.8069 89.5524 26.914C90.4054 27.2888 91.0452 27.3958 91.8272 27.5207L92.2182 27.5743C94.0664 27.8777 95.9858 28.9484 96.8922 30.1976C96.9455 30.3047 97.0699 30.3582 97.1765 30.3404Z" fill="#2D2F31"/>
<path d="M104.587 35.711C104.623 35.711 104.676 35.6932 104.712 35.6753C104.854 35.6039 104.89 35.4433 104.801 35.3184C103.023 33.0341 100.02 31.7671 96.3057 31.7492C94.4574 31.7492 93.0357 31.0532 91.4718 30.036C91.2763 29.9111 91.0275 29.6969 90.7431 29.4649C89.8545 28.7332 88.7527 27.8231 87.7219 27.9123C87.7041 27.9123 87.7041 27.9123 87.6864 27.9123C87.562 27.9302 87.4553 28.0016 87.4376 28.1086C87.402 28.2692 87.4198 28.4299 87.4909 28.5905C87.5442 28.7332 87.7219 28.8046 87.8819 28.7511C88.0418 28.6976 88.1129 28.5726 88.0596 28.4299C88.7527 28.5369 89.6413 29.2686 90.3166 29.8218C90.6187 30.0717 90.8853 30.2858 91.0986 30.4286C92.7691 31.5172 94.2975 32.2489 96.3235 32.2489C98.3495 32.2489 102.064 32.695 104.285 35.5682C104.356 35.6753 104.463 35.7289 104.587 35.711Z" fill="#2D2F31"/>
<path d="M93.3733 34.303C93.4799 34.2851 93.5866 34.2316 93.6221 34.1423C93.6754 33.9996 93.5866 33.8568 93.4266 33.8211C92.7691 33.6248 92.2004 33.2679 91.5961 32.8753C90.7964 32.3577 89.9433 31.8224 88.8237 31.6796L88.5749 31.6439C87.4375 31.5011 87.2243 31.4655 86.1935 30.6267C86.0691 30.5196 85.8736 30.5196 85.767 30.6267C85.6603 30.7338 85.6603 30.8944 85.7847 30.9836C86.9577 31.9473 87.2776 32.0008 88.5038 32.1614L88.7526 32.1971C89.7301 32.3221 90.4587 32.8039 91.2407 33.2857C91.8449 33.6783 92.4847 34.071 93.2489 34.303C93.2845 34.303 93.3378 34.3208 93.3733 34.303Z" fill="#2D2F31"/>
</g>
<path d="M113.171 40.1209C115.375 39.8889 117.419 41.3522 117.721 43.4045C118.023 45.4568 116.494 47.2949 114.291 47.5448C112.087 47.7768 110.043 46.3134 109.741 44.2611C109.421 42.2088 110.967 40.3529 113.171 40.1209ZM114.149 46.706C115.855 46.5275 117.045 45.082 116.814 43.4937C116.583 41.9054 115.002 40.7633 113.296 40.9418C111.589 41.1202 110.399 42.5658 110.63 44.154C110.861 45.7423 112.442 46.8845 114.149 46.706Z" fill="#EC1C24"/>
<path d="M111.483 44.064C111.305 42.9218 112.176 41.8868 113.402 41.744C114.628 41.6191 115.783 42.44 115.943 43.5821C116.121 44.7243 115.25 45.7593 114.024 45.9021C112.798 46.0449 111.66 45.224 111.483 44.064Z" fill="#EC1C24"/>
<path d="M115.677 26.7891L119.285 28.7343L117.099 33.4813L113.971 31.7681L115.677 26.7891Z" fill="#0054A6"/>
<path opacity="0.19" d="M124.474 30.9825L122.039 35.319L119.498 34.1234L120.937 30.1973L124.474 30.9825Z" fill="#F8F9FA"/>
<path opacity="0.19" d="M118.716 29.0367L115.872 27.502L114.539 31.4102L116.992 32.7665L118.716 29.0367Z" fill="#F8F9FA"/>
<path d="M103.574 108.829H110.825V120H106.08L103.574 108.829Z" fill="#EC1C24"/>
<path d="M92.627 108.829H88.9838H86.0336V120H88.9838H90.3522H93.7111L96.2347 108.829H92.627Z" fill="#EC1C24"/>
<path d="M57.99 108.829H50.7391V120H55.4842L57.99 108.829Z" fill="#EC1C24"/>
<path d="M109.404 106.685H50.6855V114.412H109.404V106.685Z" fill="#EC1C24"/>
<g opacity="0.19">
<path d="M103.574 108.829H110.825V120H106.08L103.574 108.829Z" fill="#2D2F31"/>
<path d="M92.627 108.829H88.9838H86.0336V120H88.9838H90.3522H93.7111L96.2347 108.829H92.627Z" fill="#2D2F31"/>
<path d="M57.99 108.829H50.7391V120H55.4842L57.99 108.829Z" fill="#2D2F31"/>
<path d="M109.404 106.685H50.6855V114.412H109.404V106.685Z" fill="#2D2F31"/>
</g>
<g opacity="0.19">
<path d="M103.574 108.829H110.825V120H106.08L103.574 108.829Z" fill="#2D2F31"/>
<path d="M92.627 108.829H88.9838H86.0336V120H88.9838H90.3522H93.7111L96.2347 108.829H92.627Z" fill="#2D2F31"/>
<path d="M57.99 108.829H50.7391V120H55.4842L57.99 108.829Z" fill="#2D2F31"/>
<path d="M109.404 106.685H50.6855V114.412H109.404V106.685Z" fill="#2D2F31"/>
</g>
<path d="M74.1977 108.826H68.4574V119.998H73.4513L74.1977 108.826Z" fill="#EC1C24"/>
<path d="M107.449 108.826H114.7V119.998H109.955L107.449 108.826Z" fill="#EC1C24"/>
<g opacity="0.19">
<path d="M74.1977 108.826H68.4574V119.998H73.4513L74.1977 108.826Z" fill="#2D2F31"/>
<path d="M107.449 108.826H114.7V119.998H109.955L107.449 108.826Z" fill="#2D2F31"/>
</g>
<path d="M114.7 56.3059C114.7 49.7386 101.069 37.5142 93.4271 37.5142H47.8068L49.6906 112.253H114.7V56.3059Z" fill="#EC1C24"/>
<path opacity="0.19" d="M69.2041 107.238C62.1487 107.238 55.4487 105.685 49.4418 102.902L49.6729 112.235H114.682V72.0459C109.546 92.2653 91.1346 107.238 69.2041 107.238Z" fill="#2D2F31"/>
<path opacity="0.19" d="M47.8068 37.4966L47.8778 39.995C54.0624 43.9568 68.3332 46.7229 84.9677 46.7229C93.2671 46.7229 100.98 46.0269 107.396 44.8491C102.953 40.7802 97.3902 37.4966 93.4271 37.4966H47.8068Z" fill="#F8F9FA"/>
<path opacity="0.19" d="M111.093 48.7569C95.8621 50.0239 57.2439 52.3261 47.967 43.9385L47.9848 44.6345L59.572 68.78C61.7402 45.5982 103.913 54.1999 114.7 56.2343C114.665 54.1107 113.243 51.4338 111.093 48.7569Z" fill="#F8F9FA"/>
<path d="M54.4002 108.828H47.8068V119.999H52.1076L54.4002 108.828Z" fill="#EC1C24"/>
<path d="M61.811 108.828H69.0619V119.999H64.3168L61.811 108.828Z" fill="#EC1C24"/>
<path d="M69.0621 56.3059C69.0621 49.7386 55.4311 37.5142 47.7892 37.5142V112.253L69.0621 112.538V56.3059Z" fill="#EC1C24"/>
<g opacity="0.19">
<path d="M54.4002 108.828H47.8068V119.999H52.1076L54.4002 108.828Z" fill="#2D2F31"/>
<path d="M61.811 108.828H69.0619V119.999H64.3168L61.811 108.828Z" fill="#2D2F31"/>
<path d="M69.0621 56.3059C69.0621 49.7386 55.4311 37.5142 47.7892 37.5142V112.253L69.0621 112.538V56.3059Z" fill="#2D2F31"/>
</g>
<g opacity="0.19">
<path d="M65.0456 48.6857C65.17 48.6857 65.2767 48.6857 65.4011 48.7036C60.8159 43.0642 52.9608 37.5142 47.8069 37.5142V79.3272C50.3661 61.4455 57.1194 48.6857 65.0456 48.6857Z" fill="#2D2F31"/>
<path d="M47.8069 111.29V112.236H47.9497C47.8962 111.932 47.8426 111.611 47.8069 111.29Z" fill="#2D2F31"/>
</g>
<path d="M94.4932 41.9756H70.2346L73.8778 45.1165H98.1364L94.4932 41.9756Z" fill="#2D2F31"/>
<g opacity="0.19">
<path d="M108.39 108.505H76.259C75.2815 108.505 74.4996 107.72 74.4996 106.774V65.5318C74.4996 64.586 75.2815 63.8008 76.259 63.8008H108.39C109.368 63.8008 110.15 64.586 110.15 65.5318V106.774C110.15 107.737 109.368 108.505 108.39 108.505ZM76.259 64.4611C75.6547 64.4611 75.1571 64.9429 75.1571 65.5318V106.774C75.1571 107.363 75.6547 107.845 76.259 107.845H108.39C108.995 107.845 109.492 107.363 109.492 106.774V65.5318C109.492 64.9429 108.995 64.4611 108.39 64.4611H76.259Z" fill="#2D2F31"/>
</g>
<g opacity="0.19">
<path d="M107.982 108.112H76.668C75.7261 108.112 74.9442 107.345 74.9442 106.381V65.2643C74.9442 64.3184 75.7083 63.5332 76.668 63.5332H108C108.942 63.5332 109.724 64.3006 109.724 65.2643V106.399C109.706 107.345 108.942 108.112 107.982 108.112ZM76.668 64.1935C76.0816 64.1935 75.6017 64.6753 75.6017 65.2643V106.399C75.6017 106.988 76.0816 107.47 76.668 107.47H108C108.586 107.47 109.066 106.988 109.066 106.399V65.2643C109.066 64.6753 108.586 64.1935 108 64.1935H76.668Z" fill="#F8F9FA"/>
</g>
<path opacity="0.19" d="M47.807 109.916C53.885 99.6725 64.9924 81.0592 69.0799 74.242V57.7881L47.807 100.975V109.916Z" fill="#2D2F31"/>
<path d="M93.0179 101.383H91.6139V105.666H93.0179V101.383Z" fill="#2D2F31"/>
<path d="M90.992 102.384C90.992 103.116 91.5785 103.723 92.3249 103.723C93.0535 103.723 93.6578 103.134 93.6578 102.384C93.6578 101.653 93.0713 101.046 92.3249 101.046C91.5962 101.064 90.992 101.653 90.992 102.384Z" fill="#2D2F31"/>
<path opacity="0.19" d="M100.607 83.5215H84.0432C83.8122 83.5215 83.6167 83.7178 83.6167 83.9498C83.6167 84.1818 83.8122 84.3781 84.0432 84.3781H100.607C100.838 84.3781 101.033 84.1818 101.033 83.9498C101.033 83.6999 100.838 83.5215 100.607 83.5215Z" fill="#F8F9FA"/>
<path opacity="0.19" d="M100.607 86.126H84.0433C83.8122 86.126 83.6168 86.3223 83.6168 86.5543C83.6168 86.7863 83.8122 86.9826 84.0433 86.9826H100.607C100.838 86.9826 101.033 86.7863 101.033 86.5543C101.033 86.3223 100.838 86.126 100.607 86.126Z" fill="#F8F9FA"/>
<path opacity="0.19" d="M100.607 88.749H84.0432C83.8122 88.749 83.6167 88.9453 83.6167 89.1773C83.6167 89.4093 83.8122 89.6056 84.0432 89.6056H100.607C100.838 89.6056 101.033 89.4093 101.033 89.1773C101.033 88.9275 100.838 88.749 100.607 88.749Z" fill="#F8F9FA"/>
</svg>
