<svg width="1600" height="460" viewBox="0 0 1600 460" fill="none" xmlns="http://www.w3.org/2000/svg">
<path d="M1600 0H0V460H1600V0Z" fill="#0A2545"/>
<mask id="mask0_7570_37447" style="mask-type:luminance" maskUnits="userSpaceOnUse" x="0" y="0" width="1600" height="460">
<path d="M1600 0H0V460H1600V0Z" fill="white"/>
</mask>
<g mask="url(#mask0_7570_37447)">
<g opacity="0.1">
<path d="M1232 20.21C1078.04 20.21 952.789 -105.04 952.789 -259C952.789 -412.96 1078.04 -538.21 1232 -538.21C1385.96 -538.21 1511.21 -412.96 1511.21 -259C1511.21 -105.04 1385.96 20.21 1232 20.21ZM1232 -535.56C1079.5 -535.56 955.439 -411.49 955.439 -259C955.439 -106.51 1079.5 17.5601 1232 17.5601C1384.5 17.5601 1508.56 -106.5 1508.56 -259C1508.56 -411.5 1384.5 -535.56 1232 -535.56Z" fill="white"/>
<path d="M1232 84.8699C1140.15 84.8699 1053.8 49.0999 988.853 -15.8501C923.903 -80.8001 888.133 -167.15 888.133 -259C888.133 -350.85 923.903 -437.2 988.853 -502.15C1053.8 -567.1 1140.15 -602.87 1232 -602.87C1323.85 -602.87 1410.2 -567.1 1475.15 -502.15C1540.1 -437.2 1575.87 -350.85 1575.87 -259C1575.87 -167.15 1540.1 -80.8001 1475.15 -15.8501C1410.2 49.0999 1323.85 84.8699 1232 84.8699ZM1232 -600.22C1140.86 -600.22 1055.17 -564.73 990.723 -500.28C926.273 -435.83 890.783 -350.14 890.783 -259C890.783 -167.86 926.273 -82.1701 990.723 -17.7201C1055.17 46.7299 1140.86 82.2198 1232 82.2198C1323.14 82.2198 1408.83 46.7299 1473.28 -17.7201C1537.73 -82.1701 1573.22 -167.86 1573.22 -259C1573.22 -350.14 1537.73 -435.83 1473.28 -500.28C1408.83 -564.73 1323.14 -600.22 1232 -600.22Z" fill="white"/>
<path d="M1232 149.53C1122.88 149.53 1020.29 107.04 943.129 29.8798C865.969 -47.2803 823.469 -149.88 823.469 -259C823.469 -368.12 865.959 -470.71 943.119 -547.87C1020.28 -625.03 1122.88 -667.53 1232 -667.53C1341.12 -667.53 1443.71 -625.04 1520.87 -547.88C1598.03 -470.72 1640.53 -368.12 1640.53 -259C1640.53 -149.88 1598.04 -47.2903 1520.88 29.8698C1443.72 107.03 1341.12 149.53 1232 149.53ZM1232 -664.88C1123.59 -664.88 1021.66 -622.66 944.999 -546C868.339 -469.34 826.119 -367.41 826.119 -259C826.119 -150.59 868.339 -48.6603 944.999 27.9998C1021.66 104.66 1123.59 146.88 1232 146.88C1340.41 146.88 1442.34 104.66 1519 27.9998C1595.66 -48.6603 1637.88 -150.59 1637.88 -259C1637.88 -367.41 1595.66 -469.34 1519 -546C1442.34 -622.66 1340.41 -664.88 1232 -664.88Z" fill="white"/>
<path d="M1232 214.18C1168.12 214.18 1106.15 201.67 1047.82 176.99C991.47 153.16 940.87 119.04 897.41 75.5801C853.95 32.1401 819.83 -18.47 796 -74.8199C771.33 -133.15 758.82 -195.12 758.82 -259C758.82 -322.88 771.33 -384.85 796 -443.18C819.83 -499.53 853.95 -550.13 897.41 -593.59C940.87 -637.05 991.47 -671.16 1047.82 -695C1106.16 -719.68 1168.13 -732.19 1232 -732.19C1295.87 -732.19 1357.85 -719.68 1416.18 -695C1472.53 -671.17 1523.13 -637.05 1566.59 -593.59C1610.05 -550.13 1644.16 -499.53 1668 -443.18C1692.68 -384.84 1705.19 -322.87 1705.19 -259C1705.19 -195.13 1692.67 -133.15 1668 -74.8199C1644.17 -18.47 1610.05 32.1301 1566.59 75.5901C1523.13 119.05 1472.53 153.16 1416.18 177C1357.85 201.67 1295.88 214.18 1232 214.18ZM1232 -729.54C1106.31 -729.54 988.15 -680.6 899.28 -591.72C810.41 -502.84 761.46 -384.69 761.46 -259C761.46 -133.31 810.4 -15.1499 899.28 73.7201C988.16 162.59 1106.31 211.54 1232 211.54C1357.69 211.54 1475.85 162.6 1564.72 73.7201C1653.59 -15.1499 1702.54 -133.32 1702.54 -259C1702.54 -384.68 1653.6 -502.85 1564.72 -591.72C1475.85 -680.59 1357.69 -729.54 1232 -729.54Z" fill="white"/>
<path d="M1232 278.84C1159.39 278.84 1088.96 264.62 1022.65 236.57C958.6 209.48 901.08 170.7 851.69 121.31C802.3 71.9202 763.52 14.4001 736.43 -49.6498C708.38 -115.96 694.16 -186.39 694.16 -259C694.16 -331.61 708.38 -402.04 736.43 -468.35C763.52 -532.4 802.3 -589.92 851.69 -639.31C901.08 -688.7 958.6 -727.48 1022.65 -754.57C1088.96 -782.62 1159.39 -796.84 1232 -796.84C1304.61 -796.84 1375.04 -782.62 1441.35 -754.57C1505.4 -727.48 1562.92 -688.7 1612.31 -639.31C1661.7 -589.92 1700.48 -532.4 1727.57 -468.35C1755.62 -402.04 1769.84 -331.61 1769.84 -259C1769.84 -186.39 1755.62 -115.96 1727.57 -49.6498C1700.48 14.4001 1661.7 71.9202 1612.31 121.31C1562.92 170.7 1505.4 209.48 1441.35 236.57C1375.04 264.62 1304.61 278.84 1232 278.84ZM1232 -794.2C1159.75 -794.2 1089.66 -780.05 1023.68 -752.14C959.95 -725.18 902.71 -686.59 853.56 -637.44C804.41 -588.29 765.82 -531.05 738.86 -467.32C710.95 -401.34 696.8 -331.25 696.8 -259C696.8 -186.75 710.95 -116.66 738.86 -50.6798C765.82 13.0502 804.41 70.2902 853.56 119.44C902.71 168.59 959.95 207.18 1023.68 234.14C1089.66 262.05 1159.75 276.2 1232 276.2C1304.25 276.2 1374.34 262.05 1440.32 234.14C1504.05 207.18 1561.29 168.59 1610.44 119.44C1659.59 70.2902 1698.18 13.0502 1725.14 -50.6798C1753.05 -116.66 1767.2 -186.75 1767.2 -259C1767.2 -331.25 1753.05 -401.34 1725.14 -467.32C1698.18 -531.05 1659.59 -588.29 1610.44 -637.44C1561.29 -686.59 1504.05 -725.18 1440.32 -752.14C1374.34 -780.05 1304.25 -794.2 1232 -794.2Z" fill="white"/>
<path d="M1232 343.5C1150.66 343.5 1071.76 327.57 997.48 296.15C925.73 265.8 861.3 222.36 805.97 167.03C750.64 111.7 707.19 47.27 676.85 -24.48C645.43 -98.76 629.5 -177.66 629.5 -259C629.5 -340.34 645.43 -419.24 676.85 -493.52C707.2 -565.27 750.64 -629.7 805.97 -685.03C861.3 -740.36 925.74 -783.8 997.48 -814.15C1071.76 -845.57 1150.66 -861.5 1232 -861.5C1313.34 -861.5 1392.24 -845.57 1466.52 -814.15C1538.27 -783.8 1602.7 -740.36 1658.03 -685.03C1713.36 -629.7 1756.8 -565.26 1787.15 -493.52C1818.57 -419.24 1834.5 -340.34 1834.5 -259C1834.5 -177.66 1818.57 -98.76 1787.15 -24.48C1756.8 47.27 1713.36 111.7 1658.03 167.03C1602.7 222.36 1538.26 265.81 1466.52 296.15C1392.24 327.57 1313.34 343.5 1232 343.5ZM1232 -858.85C1151.02 -858.85 1072.46 -842.99 998.51 -811.71C927.08 -781.5 862.93 -738.25 807.84 -683.16C752.75 -628.07 709.5 -563.92 679.28 -492.49C648 -418.54 632.14 -339.98 632.14 -259C632.14 -178.02 648.01 -99.46 679.28 -25.51C709.49 45.92 752.74 110.07 807.83 165.16C862.92 220.25 927.07 263.5 998.5 293.71C1072.45 324.99 1151.01 340.85 1231.99 340.85C1312.97 340.85 1391.53 324.99 1465.48 293.71C1536.91 263.5 1601.06 220.25 1656.15 165.16C1711.24 110.07 1754.49 45.92 1784.7 -25.51C1815.98 -99.46 1831.84 -178.02 1831.84 -259C1831.84 -339.98 1815.98 -418.54 1784.7 -492.49C1754.49 -563.92 1711.24 -628.07 1656.15 -683.16C1601.06 -738.25 1536.91 -781.5 1465.48 -811.71C1391.54 -842.99 1312.98 -858.85 1232 -858.85Z" fill="white"/>
</g>
</g>
<mask id="mask1_7570_37447" style="mask-type:luminance" maskUnits="userSpaceOnUse" x="0" y="0" width="1600" height="460">
<path d="M1600 0H0V460H1600V0Z" fill="white"/>
</mask>
<g mask="url(#mask1_7570_37447)">
<g opacity="0.7">
<path d="M569.693 343.88L-40.5469 954.12" stroke="#0054A6" stroke-width="2" stroke-miterlimit="10"/>
<path d="M511.002 343.88L-99.2383 954.12" stroke="#0054A6" stroke-width="2" stroke-miterlimit="10"/>
<path d="M452.31 343.88L-157.93 954.12" stroke="#0054A6" stroke-width="2" stroke-miterlimit="10"/>
<path d="M393.623 343.88L-216.617 954.12" stroke="#0054A6" stroke-width="2" stroke-miterlimit="10"/>
<path d="M334.935 343.88L-275.305 954.12" stroke="#0054A6" stroke-width="2" stroke-miterlimit="10"/>
<path d="M276.24 343.88L-334 954.12" stroke="#0054A6" stroke-width="2" stroke-miterlimit="10"/>
<path d="M217.552 343.88L-392.688 954.12" stroke="#0054A6" stroke-width="2" stroke-miterlimit="10"/>
</g>
</g>
<mask id="mask2_7570_37447" style="mask-type:luminance" maskUnits="userSpaceOnUse" x="0" y="0" width="1600" height="460">
<path d="M1600 0H0V460H1600V0Z" fill="white"/>
</mask>
<g mask="url(#mask2_7570_37447)">
<path d="M1499.5 625C1555 625 1600 579.557 1600 523.5C1600 467.443 1555 422 1499.5 422C1444 422 1399 467.443 1399 523.5C1399 579.557 1444 625 1499.5 625Z" fill="#0054A6"/>
</g>
</svg>
