<svg width="64" height="64" viewBox="0 0 64 64" fill="none" xmlns="http://www.w3.org/2000/svg">
<path opacity="0.972" fill-rule="evenodd" clip-rule="evenodd" d="M13.9388 1.06255C13.9388 1.60421 13.9388 2.14588 13.9388 2.68755C8.39726 2.99951 4.75142 5.79118 3.00126 11.0625C2.05156 15.5877 3.23906 19.4419 6.56376 22.625C10.5626 25.6979 14.8543 26.1562 19.4388 24C21.2925 22.9588 22.7508 21.5213 23.8138 19.6875C23.8554 19.6875 23.8971 19.6875 23.9388 19.6875C24.3805 19.9708 24.8388 20.2208 25.3138 20.4375C22.2813 25.2452 17.9063 27.391 12.1888 26.875C6.57606 25.8873 2.9719 22.6582 1.37626 17.1875C0.208444 11.1482 2.14595 6.37735 7.18876 2.87505C9.27258 1.64562 11.5226 1.04145 13.9388 1.06255Z" fill="#42A5F5"/>
<path fill-rule="evenodd" clip-rule="evenodd" d="M14.0625 1.0625C18.9681 1.15943 22.6765 3.28444 25.1875 7.4375C24.7709 7.72916 24.3541 8.02084 23.9375 8.3125C23.8959 8.3125 23.8541 8.3125 23.8125 8.3125C21.5876 4.69896 18.3376 2.82396 14.0625 2.6875C14.0625 2.14584 14.0625 1.60416 14.0625 1.0625Z" fill="#FAC611"/>
<path fill-rule="evenodd" clip-rule="evenodd" d="M13.9376 2.6875C13.9376 4.72916 13.9376 6.77084 13.9376 8.8125C10.8258 9.15349 9.11746 10.8827 8.8126 14C8.89053 15.5275 9.47387 16.8193 10.5626 17.875C10.6369 17.933 10.7202 17.9539 10.8126 17.9375C12.0273 19.0106 13.444 19.3647 15.0626 19C15.7286 18.8546 16.3536 18.6046 16.9376 18.25C17.5231 17.7574 18.0649 17.2365 18.5626 16.6875C20.3447 17.6375 22.0947 18.6375 23.8126 19.6875C22.7496 21.5212 21.2914 22.9587 19.4376 24C14.8531 26.1561 10.5614 25.6979 6.5626 22.625C3.2379 19.4419 2.0504 15.5876 3.0001 11.0625C4.75027 5.79114 8.3961 2.99946 13.9376 2.6875Z" fill="#64B5F5"/>
<path fill-rule="evenodd" clip-rule="evenodd" d="M13.9375 1.0625C13.9791 1.0625 14.0209 1.0625 14.0625 1.0625C14.0625 1.60416 14.0625 2.14584 14.0625 2.6875C18.3376 2.82396 21.5876 4.69896 23.8125 8.3125C22.0004 9.32261 20.2086 10.3643 18.4375 11.4375C18.3595 11.1558 18.1929 10.9474 17.9375 10.8125C17.3931 10 16.6431 9.43754 15.6875 9.125C15.113 8.96424 14.5296 8.86007 13.9375 8.8125C13.9375 6.77084 13.9375 4.72916 13.9375 2.6875C13.9375 2.14584 13.9375 1.60416 13.9375 1.0625Z" fill="#FED92E"/>
<path opacity="0.926" fill-rule="evenodd" clip-rule="evenodd" d="M38.8121 3.43748C39.7714 3.41668 40.7298 3.43752 41.6871 3.49998C42.269 3.86206 42.4565 4.38289 42.2496 5.06248C42.0979 5.25608 41.9104 5.40192 41.6871 5.49998C40.7288 5.58332 39.7705 5.58332 38.8121 5.49998C38.1735 5.07921 38.0276 4.51671 38.3746 3.81248C38.5178 3.67043 38.6636 3.54543 38.8121 3.43748Z" fill="#FC675A"/>
<path opacity="0.961" fill-rule="evenodd" clip-rule="evenodd" d="M45.9371 3.4375C50.8956 3.41666 55.854 3.4375 60.8121 3.5C61.7934 4.17238 61.7934 4.83905 60.8121 5.5C55.8538 5.58334 50.8955 5.58334 45.9371 5.5C45.2985 5.07923 45.1526 4.51673 45.4996 3.8125C45.6428 3.67045 45.7886 3.54545 45.9371 3.4375Z" fill="#8D9CA8"/>
<path fill-rule="evenodd" clip-rule="evenodd" d="M25.1875 7.4375C27.5617 11.7553 27.6034 16.0886 25.3125 20.4375C24.8375 20.2207 24.3792 19.9707 23.9375 19.6875C25.7667 15.8831 25.7667 12.0914 23.9375 8.3125C24.3541 8.02084 24.7709 7.72916 25.1875 7.4375Z" fill="#F15644"/>
<path opacity="0.93" fill-rule="evenodd" clip-rule="evenodd" d="M38.8121 7.93748C39.7714 7.91668 40.7298 7.93752 41.6871 7.99998C41.9104 8.09804 42.0979 8.24388 42.2496 8.43748C42.333 8.81248 42.333 9.18748 42.2496 9.56248C42.0979 9.75608 41.9104 9.90192 41.6871 9.99998C40.7288 10.0833 39.7705 10.0833 38.8121 9.99998C38.1735 9.57921 38.0276 9.01671 38.3746 8.31248C38.5178 8.17043 38.6636 8.04543 38.8121 7.93748Z" fill="#FC675A"/>
<path opacity="0.964" fill-rule="evenodd" clip-rule="evenodd" d="M45.9371 7.9375C50.8956 7.91666 55.854 7.9375 60.8121 8C61.8121 8.66666 61.8121 9.33334 60.8121 10C55.8538 10.0833 50.8955 10.0833 45.9371 10C45.2985 9.57923 45.1526 9.01673 45.4996 8.3125C45.6428 8.17045 45.7886 8.04545 45.9371 7.9375Z" fill="#8D9CA8"/>
<path fill-rule="evenodd" clip-rule="evenodd" d="M23.8125 8.3125C23.8541 8.3125 23.8959 8.3125 23.9375 8.3125C25.7667 12.0914 25.7667 15.8831 23.9375 19.6875C23.8959 19.6875 23.8541 19.6875 23.8125 19.6875C22.0946 18.6375 20.3446 17.6375 18.5625 16.6875C18.8487 15.7924 19.057 14.8758 19.1875 13.9375C19.1619 13.0281 18.9119 12.1948 18.4375 11.4375C20.2086 10.3643 22.0004 9.32261 23.8125 8.3125Z" fill="#FB685A"/>
<path fill-rule="evenodd" clip-rule="evenodd" d="M13.9375 8.8125C14.5296 8.86008 15.113 8.96424 15.6875 9.125C16.6431 9.43754 17.3931 10 17.9375 10.8125C14.3156 9.30356 11.7531 10.3452 10.25 13.9375C10.0317 15.3371 10.2192 16.6704 10.8125 17.9375C10.7201 17.9539 10.6368 17.933 10.5625 17.875C9.47376 16.8193 8.89042 15.5275 8.8125 14C9.11735 10.8827 10.8257 9.15349 13.9375 8.8125Z" fill="#E0E2E3"/>
<path fill-rule="evenodd" clip-rule="evenodd" d="M17.9357 10.8126C18.1911 10.9475 18.3577 11.1558 18.4357 11.4376C18.9101 12.1949 19.1601 13.0282 19.1857 13.9376C19.0552 14.8758 18.847 15.7925 18.5607 16.6876C18.063 17.2366 17.5212 17.7575 16.9357 18.2501C16.3517 18.6047 15.7267 18.8547 15.0607 19.0001C13.4421 19.3648 12.0254 19.0107 10.8107 17.9376C10.2174 16.6705 10.0299 15.3372 10.2482 13.9376C11.7513 10.3453 14.3139 9.30365 17.9357 10.8126Z" fill="#EEF3F6"/>
<path opacity="0.927" fill-rule="evenodd" clip-rule="evenodd" d="M38.8121 12.4375C39.7714 12.4167 40.7298 12.4375 41.6871 12.5C42.2776 12.8044 42.4651 13.2836 42.2496 13.9375C42.1455 14.2084 41.958 14.3959 41.6871 14.5C40.7288 14.5834 39.7705 14.5834 38.8121 14.5C38.1735 14.0792 38.0276 13.5167 38.3746 12.8125C38.5178 12.6705 38.6636 12.5455 38.8121 12.4375Z" fill="#FC675A"/>
<path opacity="0.965" fill-rule="evenodd" clip-rule="evenodd" d="M45.9371 12.4375C50.8956 12.4167 55.854 12.4375 60.8121 12.5C61.7934 13.161 61.7934 13.8276 60.8121 14.5C55.8538 14.5834 50.8955 14.5834 45.9371 14.5C45.2985 14.0793 45.1526 13.5168 45.4996 12.8125C45.6428 12.6705 45.7886 12.5455 45.9371 12.4375Z" fill="#8D9CA8"/>
<path fill-rule="evenodd" clip-rule="evenodd" d="M59.0641 21.4373C57.5404 20.5463 55.9154 19.8588 54.1891 19.3748C48.2991 18.4468 43.695 20.426 40.3766 25.3123C37.7769 29.9131 37.8185 34.4965 40.5016 39.0623C40.9934 39.7555 41.5143 40.4221 42.0641 41.0623C39.0573 38.8861 37.3281 35.9278 36.8766 32.1873C36.4974 26.4243 38.7681 22.0701 43.6891 19.1248C47.9789 17.1382 52.2289 17.2215 56.4391 19.3748C57.3734 19.9976 58.2484 20.6851 59.0641 21.4373Z" fill="#3A484A"/>
<path opacity="0.995" fill-rule="evenodd" clip-rule="evenodd" d="M59.0636 21.4375C62.7804 25.4991 63.7595 30.1658 62.0011 35.4375C59.9854 40.0988 56.4645 42.807 51.4386 43.5625C50.4386 43.5625 49.4386 43.5625 48.4386 43.5625C48.3552 43.5625 48.272 43.5625 48.1886 43.5625C45.8726 43.361 43.831 42.5276 42.0636 41.0625C41.5137 40.4223 40.9929 39.7556 40.5011 39.0625C37.818 34.4966 37.7764 29.9133 40.3761 25.3125C43.6945 20.4261 48.2986 18.447 54.1886 19.375C55.9149 19.859 57.5399 20.5465 59.0636 21.4375Z" fill="#465759"/>
<path fill-rule="evenodd" clip-rule="evenodd" d="M56.8137 24.1875C58.5061 27.0398 58.7768 30.0398 57.6262 33.1875C57.1348 34.2974 56.4889 35.2974 55.6887 36.1875C55.6471 36.1875 55.6053 36.1875 55.5637 36.1875C54.2172 33.9304 52.2172 32.8471 49.5637 32.9375C46.6036 33.1895 44.5619 34.6895 43.4387 37.4375C43.4387 37.5209 43.4387 37.6041 43.4387 37.6875C43.1617 37.5996 42.9326 37.433 42.7512 37.1875C40.5089 34.4679 39.8007 31.3845 40.6262 27.9375C42.1406 23.7162 45.1406 21.4246 49.6262 21.0625C52.4789 21.1046 54.8748 22.1463 56.8137 24.1875Z" fill="#FED92E"/>
<path fill-rule="evenodd" clip-rule="evenodd" d="M49.5625 24.6875C52.3851 24.8647 53.656 26.3647 53.375 29.1875C52.653 31.2662 51.2155 32.1413 49.0625 31.8125C51.1751 31.6165 52.3417 30.4499 52.5625 28.3125C52.371 26.4143 51.371 25.206 49.5625 24.6875Z" fill="#F9C7A8"/>
<path fill-rule="evenodd" clip-rule="evenodd" d="M49.5625 24.6875C51.371 25.206 52.371 26.4143 52.5625 28.3125C52.3418 30.4499 51.1751 31.6165 49.0625 31.8125C47.2609 31.3219 46.3025 30.1344 46.1875 28.25C46.2891 26.8975 46.9141 25.8559 48.0625 25.125C48.5234 24.8394 49.0234 24.6935 49.5625 24.6875Z" fill="#FED5BC"/>
<path fill-rule="evenodd" clip-rule="evenodd" d="M56.8125 24.1875C58.9992 26.5564 59.8117 29.3481 59.25 32.5625C58.8131 34.5984 57.834 36.3068 56.3125 37.6875C56.1528 37.1666 55.9445 36.6666 55.6875 36.1875C56.4877 35.2974 57.1336 34.2974 57.625 33.1875C58.7756 30.0398 58.5049 27.0398 56.8125 24.1875Z" fill="#FBC505"/>
<path opacity="0.961" fill-rule="evenodd" clip-rule="evenodd" d="M28.5627 28.9375C30.191 28.9922 31.816 29.0964 33.4377 29.25C33.8518 29.4457 34.0601 29.7791 34.0627 30.25C33.7918 31.6875 33.5211 33.125 33.2502 34.5625C33.1521 34.7857 33.0063 34.9732 32.8127 35.125C31.8475 35.4485 31.3058 35.1151 31.1877 34.125C31.2618 33.8114 31.2826 33.4989 31.2502 33.1875C28.6918 35.454 26.1711 37.7665 23.6877 40.125C23.2875 40.3104 22.8707 40.3521 22.4377 40.25C19.4895 38.2864 16.552 36.3071 13.6252 34.3125C10.5627 38.2916 7.50021 42.2709 4.43771 46.25C2.98602 46.5474 2.50686 45.9849 3.00021 44.5625C6.25594 40.3636 9.52678 36.1761 12.8127 32C13.2252 31.7651 13.642 31.7651 14.0627 32C16.9678 34.0256 19.9053 36.0048 22.8752 37.9375C25.2711 35.7084 27.6668 33.4791 30.0627 31.25C29.5861 31.0923 29.0861 31.0089 28.5627 31C28.3395 30.9019 28.152 30.7561 28.0002 30.5625C27.7806 29.8531 27.9681 29.3115 28.5627 28.9375Z" fill="#B4D2D7"/>
<path fill-rule="evenodd" clip-rule="evenodd" d="M49.5625 32.9373C52.216 32.847 54.216 33.9302 55.5625 36.1873C55.3509 36.5236 55.0591 36.7736 54.6875 36.9373C53.5605 34.8512 51.8521 33.5178 49.5625 32.9373Z" fill="#48A6F2"/>
<path fill-rule="evenodd" clip-rule="evenodd" d="M49.5625 32.9375C51.8521 33.518 53.5605 34.8514 54.6875 36.9375C54.6875 36.9791 54.6875 37.0209 54.6875 37.0625C51.5514 39.1512 48.218 39.5054 44.6875 38.125C44.2841 37.861 43.8675 37.6319 43.4375 37.4375C44.5608 34.6895 46.6024 33.1895 49.5625 32.9375Z" fill="#64B5F5"/>
<path fill-rule="evenodd" clip-rule="evenodd" d="M55.5625 36.1875C55.6041 36.1875 55.6459 36.1875 55.6875 36.1875C55.9445 36.6666 56.1528 37.1666 56.3125 37.6875C55.9762 38.0231 55.6012 38.3147 55.1875 38.5625C55.0997 38.0491 54.9331 37.5491 54.6875 37.0625C54.6875 37.0209 54.6875 36.9791 54.6875 36.9375C55.0591 36.7738 55.3509 36.5238 55.5625 36.1875Z" fill="#3391EF"/>
<path fill-rule="evenodd" clip-rule="evenodd" d="M54.6875 37.0625C54.9331 37.5491 55.0997 38.0491 55.1875 38.5625C52.5599 40.2654 49.7266 40.6611 46.6875 39.75C45.4521 39.2795 44.3689 38.592 43.4375 37.6875C43.4375 37.6041 43.4375 37.5209 43.4375 37.4375C43.8675 37.6319 44.2841 37.861 44.6875 38.125C48.218 39.5054 51.5514 39.1512 54.6875 37.0625Z" fill="#44A5F4"/>
<path fill-rule="evenodd" clip-rule="evenodd" d="M35.3112 39.5624C33.9772 39.5416 32.6438 39.5624 31.3112 39.6249C31.2487 39.6874 31.1862 39.7499 31.1237 39.8124C31.0612 47.4789 31.0403 55.1457 31.0612 62.8124C30.6516 62.8479 30.2558 62.8063 29.8737 62.6874C29.7696 54.6038 29.7903 46.5204 29.9362 38.4374C31.6388 38.2939 33.3472 38.2731 35.0612 38.3749C35.2917 38.7254 35.3751 39.1212 35.3112 39.5624Z" fill="#42A5F5"/>
<path opacity="0.999" fill-rule="evenodd" clip-rule="evenodd" d="M35.3125 39.5625C35.3334 47.271 35.3125 54.9793 35.25 62.6875C33.8644 62.8109 32.4685 62.8526 31.0625 62.8125C31.0416 55.1458 31.0625 47.479 31.125 39.8125C31.1875 39.75 31.25 39.6875 31.3125 39.625C32.6451 39.5625 33.9785 39.5416 35.3125 39.5625Z" fill="#63B4F5"/>
<path fill-rule="evenodd" clip-rule="evenodd" d="M16.1875 43.8125C14.8535 43.7917 13.5201 43.8125 12.1875 43.875C12.125 43.9375 12.0625 44 12 44.0625C11.9375 50.3124 11.9167 56.5624 11.9375 62.8125C11.5602 62.8332 11.1852 62.8123 10.8125 62.75C10.75 62.6875 10.6875 62.625 10.625 62.5625C10.5417 56.0209 10.5417 49.4792 10.625 42.9375C10.6875 42.7917 10.7917 42.6875 10.9375 42.625C12.5625 42.5417 14.1875 42.5417 15.8125 42.625C15.927 42.6718 16.0313 42.7343 16.125 42.8125C16.1871 43.1433 16.208 43.4767 16.1875 43.8125Z" fill="#FFC803"/>
<path opacity="0.941" fill-rule="evenodd" clip-rule="evenodd" d="M48.1875 43.5625C48.2709 43.5625 48.3541 43.5625 48.4375 43.5625C48.9542 43.6856 49.496 43.7272 50.0625 43.6875C50.0625 44.8541 50.0625 46.0209 50.0625 47.1875C49.4375 47.1875 48.8125 47.1875 48.1875 47.1875C48.1875 45.9791 48.1875 44.7709 48.1875 43.5625Z" fill="#B3D1D6"/>
<path fill-rule="evenodd" clip-rule="evenodd" d="M48.4375 43.5625C49.4375 43.5625 50.4375 43.5625 51.4375 43.5625C51.4375 44.7709 51.4375 45.9791 51.4375 47.1875C50.9791 47.1875 50.5209 47.1875 50.0625 47.1875C50.0625 46.0209 50.0625 44.8541 50.0625 43.6875C49.496 43.7272 48.9542 43.6856 48.4375 43.5625Z" fill="#99B6C0"/>
<path fill-rule="evenodd" clip-rule="evenodd" d="M16.1875 43.8125C16.2084 50.0626 16.1875 56.3126 16.125 62.5625C14.761 62.808 13.3653 62.8914 11.9375 62.8125C11.9167 56.5624 11.9375 50.3124 12 44.0625C12.0625 44 12.125 43.9375 12.1875 43.875C13.5201 43.8125 14.8535 43.7916 16.1875 43.8125Z" fill="#FFD92C"/>
<path fill-rule="evenodd" clip-rule="evenodd" d="M25.8125 48.4375C24.4369 48.4167 23.0619 48.4375 21.6875 48.5C21.625 48.5625 21.5625 48.625 21.5 48.6875C21.4375 53.3957 21.4167 58.104 21.4375 62.8125C20.9963 62.8764 20.6005 62.793 20.25 62.5625C20.1667 57.5209 20.1667 52.4792 20.25 47.4375C20.3125 47.375 20.375 47.3125 20.4375 47.25C22.1459 47.1667 23.8542 47.1667 25.5625 47.25C25.7925 47.6033 25.8758 47.9992 25.8125 48.4375Z" fill="#3DBE52"/>
<path opacity="0.979" fill-rule="evenodd" clip-rule="evenodd" d="M25.8125 48.4375C25.8334 53.146 25.8125 57.8544 25.75 62.5625C25.6875 62.625 25.625 62.6875 25.5625 62.75C24.1881 62.8125 22.8131 62.8334 21.4375 62.8125C21.4166 58.104 21.4375 53.3956 21.5 48.6875C21.5625 48.625 21.625 48.5625 21.6875 48.5C23.0619 48.4375 24.4369 48.4166 25.8125 48.4375Z" fill="#71D460"/>
<path opacity="0.99" fill-rule="evenodd" clip-rule="evenodd" d="M47.0625 50.6875C48.4375 50.6875 49.8125 50.6875 51.1875 50.6875C51.2084 54.0211 51.1875 57.3544 51.125 60.6875C50.7476 61.7105 50.0601 62.4189 49.0625 62.8125C48.0996 62.4537 47.4538 61.787 47.125 60.8125C47.0625 57.4377 47.0416 54.0628 47.0625 50.6875Z" fill="#455658"/>
<path fill-rule="evenodd" clip-rule="evenodd" d="M48.1875 47.1875C48.8125 47.1875 49.4375 47.1875 50.0625 47.1875C50.5209 47.1875 50.9791 47.1875 51.4375 47.1875C51.8471 47.152 52.2429 47.1937 52.625 47.3125C52.7084 51.6459 52.7084 55.9792 52.625 60.3125C52.499 61.5462 51.8531 62.3587 50.6875 62.75C50.1474 62.8124 49.6058 62.8333 49.0625 62.8125C50.0601 62.4189 50.7476 61.7105 51.125 60.6875C51.1875 57.3544 51.2084 54.0212 51.1875 50.6875C49.8125 50.6875 48.4375 50.6875 47.0625 50.6875C47.0625 49.5209 47.0625 48.3542 47.0625 47.1875C47.4375 47.1875 47.8125 47.1875 48.1875 47.1875Z" fill="#394749"/>
<path fill-rule="evenodd" clip-rule="evenodd" d="M6.56118 54.4374C5.22719 54.4166 3.89387 54.4374 2.56118 54.4999C2.49868 54.5624 2.43618 54.6249 2.37368 54.6874C2.31118 57.3954 2.29036 60.1038 2.31118 62.8124C1.90161 62.8479 1.50577 62.8063 1.12368 62.6874C1.01954 59.5616 1.04037 56.4366 1.18618 53.3124C2.88886 53.1689 4.59719 53.1481 6.31118 53.2499C6.54116 53.6032 6.62449 53.9991 6.56118 54.4374Z" fill="#F35244"/>
<path opacity="0.997" fill-rule="evenodd" clip-rule="evenodd" d="M6.5625 54.4375C6.58332 57.1879 6.5625 59.9379 6.5 62.6875C5.11432 62.8109 3.7185 62.8526 2.3125 62.8125C2.29167 60.1039 2.3125 57.3955 2.375 54.6875C2.4375 54.625 2.5 54.5625 2.5625 54.5C3.89518 54.4375 5.22851 54.4166 6.5625 54.4375Z" fill="#FB675B"/>
</svg>
