<svg width="542" height="354" viewBox="0 0 542 354" fill="none" xmlns="http://www.w3.org/2000/svg">
<g clip-path="url(#clip0_14476_49578)">
<path opacity="0.18" d="M269.496 206.233H84.8566C78.99 206.233 74.2344 201.478 74.2344 195.611V140.415C74.2344 134.548 78.99 129.792 84.8566 129.792H269.496C275.362 129.792 280.118 134.548 280.118 140.415V195.611C280.118 201.477 275.362 206.233 269.496 206.233Z" fill="url(#paint0_linear_14476_49578)"/>
<path d="M262.56 151.736H237.398V154.261H262.56V151.736Z" fill="#B8D6FF"/>
<path d="M266.319 159.551H237.398V162.076H266.319V159.551Z" fill="#B8D6FF"/>
<path d="M252.318 167.323H237.355V169.848H252.318V167.323Z" fill="#B8D6FF"/>
<path d="M260.408 175.095H237.355V177.62H260.408V175.095Z" fill="#B8D6FF"/>
<path d="M123.526 199.211H101.1V201.974H123.526V199.211Z" fill="#D6D6D6"/>
<path d="M128.967 194.29H95.6582V197.053H128.967V194.29Z" fill="#D6D6D6"/>
<path d="M202.489 147.8H148.551V151.277H202.489V147.8Z" fill="white"/>
<path d="M229.246 147.8H208.285V151.277H229.246V147.8Z" fill="white"/>
<path d="M173.879 139.881H148.551V143.358H173.879V139.881Z" fill="white"/>
<path d="M112.314 189.206C108.552 189.206 104.924 188.423 101.532 186.881C92.2352 182.655 86.2275 173.328 86.2275 163.12C86.2275 148.736 97.9298 137.033 112.314 137.033C126.698 137.033 138.4 148.736 138.4 163.12C138.4 173.328 132.392 182.655 123.095 186.881C119.703 188.423 116.076 189.206 112.314 189.206ZM112.314 138.41C98.6892 138.41 87.6046 149.495 87.6046 163.12C87.6046 172.79 93.2952 181.624 102.102 185.627C105.314 187.088 108.75 187.829 112.314 187.829C115.878 187.829 119.313 187.088 122.525 185.627C131.332 181.624 137.023 172.79 137.023 163.12C137.023 149.495 125.938 138.41 112.314 138.41Z" fill="url(#paint1_linear_14476_49578)"/>
<path d="M153.761 157.865H152.384V191.261H153.761V157.865Z" fill="#C9E0FF"/>
<path d="M160.091 157.865H158.714V191.261H160.091V157.865Z" fill="#C9E0FF"/>
<path d="M166.418 157.865H165.041V191.261H166.418V157.865Z" fill="#C9E0FF"/>
<path d="M172.746 157.865H171.369V191.261H172.746V157.865Z" fill="#C9E0FF"/>
<path d="M179.074 157.865H177.697V191.261H179.074V157.865Z" fill="#C9E0FF"/>
<path d="M185.402 157.865H184.025V191.261H185.402V157.865Z" fill="#C9E0FF"/>
<path d="M191.731 157.865H190.354V191.261H191.731V157.865Z" fill="#C9E0FF"/>
<path d="M198.057 157.865H196.68V191.261H198.057V157.865Z" fill="#C9E0FF"/>
<path d="M204.388 157.865H203.011V191.261H204.388V157.865Z" fill="#C9E0FF"/>
<path d="M210.715 157.865H209.338V191.261H210.715V157.865Z" fill="#C9E0FF"/>
<path d="M217.042 157.865H215.665V191.261H217.042V157.865Z" fill="#C9E0FF"/>
<path d="M223.372 157.865H221.995V191.261H223.372V157.865Z" fill="#C9E0FF"/>
<path d="M153.761 167.85H152.384V191.261H153.761V167.85Z" fill="#FFDD33"/>
<path d="M160.091 175.94H158.714V191.261H160.091V175.94Z" fill="#FFDD33"/>
<path d="M166.418 162.685H165.041V191.261H166.418V162.685Z" fill="#FFDD33"/>
<path d="M172.746 182.941H171.369V191.261H172.746V182.941Z" fill="#FFDD33"/>
<path d="M179.074 174.563H177.697V191.261H179.074V174.563Z" fill="#FFDD33"/>
<path d="M185.402 168.308H184.025V191.261H185.402V168.308Z" fill="#FFDD33"/>
<path d="M191.731 176.457H190.354V191.261H191.731V176.457Z" fill="#FFDD33"/>
<path d="M198.057 166.185H196.68V191.261H198.057V166.185Z" fill="#FFDD33"/>
<path d="M204.388 177.49H203.011V191.261H204.388V177.49Z" fill="#FFDD33"/>
<path d="M210.715 169.227H209.338V191.261H210.715V169.227Z" fill="#FFDD33"/>
<path d="M217.042 180.244H215.665V191.261H217.042V180.244Z" fill="#FFDD33"/>
<path d="M223.372 169.227H221.995V191.261H223.372V169.227Z" fill="#FFDD33"/>
<path d="M107.909 152.892V151.901H101.582V152.892H101.962V174.806C101.962 174.806 101.852 177.589 104.745 177.589C107.638 177.589 107.528 174.806 107.528 174.806V152.892H107.909Z" fill="url(#paint2_linear_14476_49578)"/>
<path d="M115.477 152.892V151.901H109.15V152.892H109.531V174.806C109.531 174.806 109.421 177.589 112.314 177.589C115.207 177.589 115.097 174.806 115.097 174.806V152.892H115.477Z" fill="url(#paint3_linear_14476_49578)"/>
<path d="M123.046 152.892V151.901H116.719V152.892H117.099V174.806C117.099 174.806 116.989 177.589 119.882 177.589C122.775 177.589 122.665 174.806 122.665 174.806V152.892H123.046Z" fill="url(#paint4_linear_14476_49578)"/>
<path d="M102.815 159.424V174.627C102.815 174.627 102.738 176.558 104.746 176.558C106.753 176.558 106.676 174.627 106.676 174.627V159.424H102.815Z" fill="#4E9BDE"/>
<path d="M110.382 162.015V174.919C110.382 174.919 110.306 176.558 112.313 176.558C114.32 176.558 114.244 174.919 114.244 174.919V162.015H110.382Z" fill="#4E9BDE"/>
<path d="M117.952 157.577V174.419C117.952 174.419 117.875 176.558 119.882 176.558C121.889 176.558 121.813 174.419 121.813 174.419V157.577H117.952Z" fill="#4E9BDE"/>
<path d="M459.211 46.2242L465.878 35.8724L447.382 23.9614L440.716 34.3136L436.989 31.9136L432.345 39.1249L428.48 36.636L333.361 184.344L337.226 186.833L329.249 199.22L355.198 215.931L363.176 203.543L367.04 206.032L462.159 58.3243L458.294 55.8356L462.938 48.6242L459.211 46.2242Z" fill="url(#paint5_linear_14476_49578)"/>
<path d="M413.656 263.619L413.069 263.713C425.705 252.033 433.481 238.832 436.276 224.201C444.105 183.21 407.936 146.323 406.453 144.829L396.901 159.663C397.198 159.964 425.47 188.809 419.328 220.964C415.493 241.044 398.306 258.26 368.236 272.179L357.564 266.591L359.616 262.672L318.986 241.393L316.818 245.531L337.852 256.547L327.961 275.433L368.113 296.461L361.894 315.338H330.622V328.119H461.103V315.338H413.655V263.619H413.656Z" fill="url(#paint6_linear_14476_49578)"/>
<path d="M464.364 111.512C454.983 110.061 446.085 114.952 442.031 122.996C441.049 124.943 440.351 127.075 440 129.347C438.936 136.23 441.285 142.854 445.789 147.494C448.91 150.71 453.066 152.974 457.836 153.711C458.311 153.785 458.785 153.842 459.257 153.884C461.395 154.071 463.495 153.933 465.507 153.508C473.944 151.728 480.804 144.902 482.201 135.876C484.003 124.222 476.017 113.314 464.364 111.512ZM476.919 135.059C475.873 141.826 470.73 146.944 464.404 148.279C462.897 148.597 461.321 148.701 459.718 148.56C459.364 148.528 459.008 148.486 458.653 148.431C455.076 147.878 451.961 146.18 449.621 143.77C446.244 140.291 444.482 135.325 445.28 130.164C445.544 128.461 446.067 126.862 446.802 125.402C449.841 119.372 456.513 115.704 463.547 116.792C472.284 118.143 478.271 126.322 476.919 135.059Z" fill="#002548"/>
<path d="M449.621 143.77L445.789 147.494C441.286 142.854 438.936 136.23 440 129.347C440.351 127.075 441.049 124.943 442.031 122.996L446.802 125.402C446.067 126.862 445.544 128.461 445.281 130.164C444.482 135.325 446.244 140.291 449.621 143.77Z" fill="#1A598C"/>
<path d="M459.72 148.56L459.259 153.884C458.787 153.843 458.313 153.785 457.838 153.711C453.068 152.974 448.912 150.71 445.791 147.495L449.623 143.77C451.963 146.181 455.078 147.878 458.655 148.431C459.011 148.486 459.366 148.529 459.72 148.56Z" fill="#2273B5"/>
<path d="M465.507 153.509C463.495 153.934 461.395 154.071 459.257 153.884L459.718 148.56C461.321 148.701 462.896 148.597 464.404 148.279L465.507 153.509Z" fill="#3788CC"/>
<path d="M469.799 164.112H443.622V167.406H469.799V164.112Z" fill="#3788CC"/>
<path d="M473.943 171.113H443.622V174.407H473.943V171.113Z" fill="#3788CC"/>
<path d="M187.563 195.39C191.288 193.609 194.997 205.47 194.997 205.47C201.33 213.838 210.18 202.705 209.315 215.215C207.8 237.105 234.511 222.099 222.188 244.952C209.865 267.806 233.069 257.875 225.411 276.302C217.753 294.729 227.678 316.708 216.156 307.676C216.156 307.676 206.011 285.428 195.548 278.544C185.085 271.661 201.816 263.493 198.542 254.144C193.787 240.564 182.331 241.098 190.591 226.504C198.852 211.911 174.897 201.448 187.563 195.39Z" fill="#4783BE"/>
<path d="M219.805 299.303C214.81 295.79 208.965 271.312 208.616 256.733C208.437 249.265 206.23 246.153 204.282 243.408C202.42 240.784 200.812 238.518 201.749 233.314C203.539 223.37 198.833 219.078 198.785 219.036L199.33 218.415C199.539 218.598 204.44 223.025 202.562 233.461C201.687 238.323 203.129 240.356 204.956 242.93C206.872 245.631 209.257 248.993 209.442 256.713C209.816 272.36 215.792 295.471 220.28 298.627L219.805 299.303Z" fill="white"/>
<path d="M221.674 301.117C221.03 301.117 220.329 301.043 219.562 300.888C217.637 300.499 216.375 299.483 215.811 297.869C214.464 294.019 217.584 287.764 220.116 284.749C220.158 284.698 224.396 279.519 223.943 272.34C223.868 271.137 223.743 270.023 223.633 269.04C223.314 266.2 223.084 264.147 224.305 262.776C225.38 261.568 227.456 261.044 231.246 261.027C237.893 260.996 240.521 258.244 242.633 256.032C243.53 255.093 244.377 254.206 245.406 253.644C248.718 251.836 252.227 251.57 253.749 253.012C254.472 253.697 255.082 255.039 253.885 257.542C252.791 259.829 251.372 261.277 250.231 262.44C248.697 264.006 247.684 265.04 248.211 267.101C248.335 267.585 248.478 268.073 248.621 268.564C249.646 272.069 250.807 276.041 244.809 278.737C243.536 279.309 242.376 279.764 241.353 280.166C237.166 281.809 234.638 282.801 231.785 288.824C231.233 289.989 230.745 291.094 230.274 292.163C228.025 297.261 226.323 301.117 221.674 301.117ZM245.802 254.369C244.885 254.87 244.119 255.672 243.23 256.603C241.01 258.927 238.248 261.82 231.25 261.853C227.765 261.869 225.813 262.323 224.921 263.325C223.946 264.421 224.159 266.32 224.454 268.949C224.565 269.941 224.691 271.065 224.768 272.288C225.241 279.806 220.933 285.059 220.749 285.279C218.243 288.263 215.404 294.204 216.59 297.597C217.052 298.916 218.107 299.751 219.726 300.078C225.375 301.22 226.934 297.686 229.518 291.83C229.992 290.756 230.482 289.646 231.039 288.47C234.032 282.151 236.824 281.055 241.051 279.396C242.066 278.998 243.216 278.547 244.471 277.983C249.813 275.582 248.849 272.286 247.828 268.795C247.682 268.296 247.537 267.798 247.411 267.306C246.768 264.794 248.036 263.5 249.641 261.862C250.796 260.684 252.105 259.348 253.14 257.185C253.682 256.051 254.129 254.511 253.181 253.611C251.933 252.428 248.76 252.754 245.802 254.369Z" fill="#6E92B5"/>
<path d="M219.652 305.886L218.827 305.843C218.868 305.067 219.908 286.8 227.243 281.454C235.29 275.589 237.827 269.285 239.035 265.055C240.459 260.069 247.705 258.737 248.013 258.682L248.157 259.496C248.087 259.508 241.111 260.794 239.83 265.281C238.588 269.63 235.982 276.106 227.73 282.121C220.71 287.238 219.662 305.7 219.652 305.886Z" fill="url(#paint7_linear_14476_49578)"/>
<path d="M236.421 213.825C231.208 212.038 232.291 222.086 230.088 229.52C227.886 236.954 205.583 232.763 214.945 251.379C224.306 269.995 203.105 257.605 209.438 273.85C215.771 290.095 209.988 307.47 216.872 303.05C223.755 298.631 220.739 278.174 227.898 275.743C235.057 273.312 236.225 270.477 229.137 263.869C222.049 257.261 247.711 250.7 241.378 237.357C235.044 224.013 242.444 215.89 236.421 213.825Z" fill="#0092F1"/>
<path d="M220.065 302.272C219.41 299.491 213.811 275.016 219.035 272.058C223.64 269.451 223.526 259.309 222.808 249.733C222.172 241.255 233.059 237.293 233.523 237.129L233.799 237.907C233.692 237.946 223.043 241.824 223.632 249.671C224.369 259.506 224.448 269.942 219.442 272.777C215.475 275.023 219.127 294.693 220.87 302.082L220.065 302.272Z" fill="white"/>
<path d="M231.916 293.557L224.473 321.795H207.84L200.396 293.557H231.916Z" fill="#FFDD33"/>
<path d="M231.916 293.557C231.916 293.557 215.53 296.634 215.53 321.795H207.84L200.396 293.557H231.916Z" fill="#FFDD33"/>
<path d="M382.538 93.4837L381.896 93.0679L408.154 52.4858L408.797 52.9017L382.538 93.4837Z" fill="url(#paint8_linear_14476_49578)"/>
<path d="M430.161 32.4564L429.519 32.0402L435.554 22.7319L439.035 25.0165L438.615 25.6563L435.777 23.7939L430.161 32.4564Z" fill="url(#paint9_linear_14476_49578)"/>
<path d="M322.509 203.546H319.951V319.81H322.509V203.546Z" fill="#706865"/>
<path d="M264.395 203.546H261.838V319.81H264.395V203.546Z" fill="#706865"/>
<path d="M329.272 300.621H255.075C252.323 300.621 250.092 298.39 250.092 295.639V159.958C250.092 157.206 252.323 154.975 255.075 154.975H329.272C332.024 154.975 334.255 157.206 334.255 159.958V295.639C334.255 298.39 332.024 300.621 329.272 300.621Z" fill="#BDAFAA"/>
<path d="M327.022 294.93H257.325C254.606 294.93 252.401 292.726 252.401 290.007V162.243C252.401 159.524 254.606 157.32 257.325 157.32H327.022C329.741 157.32 331.945 159.524 331.945 162.243V290.007C331.945 292.726 329.741 294.93 327.022 294.93Z" fill="white"/>
<path d="M304.713 153.871H279.634V159.534H304.713V153.871Z" fill="#706865"/>
<path d="M285.776 205.96C276.03 203.984 268.58 195.363 268.58 184.898C268.58 173.046 278.222 163.404 290.074 163.404V164.368C278.754 164.368 269.544 173.578 269.544 184.898C269.544 194.892 276.659 203.128 285.968 205.016C293.243 206.504 300.88 203.943 305.792 198.105C308.894 194.416 310.603 189.726 310.603 184.898C310.603 183.889 310.529 182.876 310.384 181.886L311.337 181.745C311.489 182.782 311.567 183.843 311.567 184.898C311.567 189.952 309.778 194.863 306.53 198.725C301.384 204.84 293.387 207.516 285.776 205.96Z" fill="#B5DEFF"/>
<path d="M249.966 187.129C249.966 187.129 251.559 184.341 249.033 176.869C246.589 169.642 238.129 170.297 235.441 174.927C232.753 179.557 233.661 182.433 237.619 187.66C241.577 192.887 248.323 189.519 249.966 187.129Z" fill="#EEA886"/>
<path d="M230.316 315.691C230.316 315.691 229.898 318.76 229.846 319.221C229.793 319.682 225.189 318.95 225.189 318.95L224.816 315.296C224.816 315.296 229.741 315.258 230.316 315.691Z" fill="#81807E"/>
<path d="M229.897 318.831C229.897 318.831 231.355 320.68 232.766 321.486C234.177 322.291 236.394 322.611 237.229 323.445C237.831 324.047 239.422 326.64 233.562 326.588C227.703 326.536 224.877 326.954 224.249 325.96C223.621 324.966 225.158 318.623 225.158 318.623C225.158 318.623 226.592 319.027 229.897 318.831Z" fill="#353A3D"/>
<path d="M262.197 315.691C262.197 315.691 261.778 318.759 261.726 319.221C261.673 319.682 257.069 318.949 257.069 318.949L256.696 315.296C256.696 315.296 261.621 315.258 262.197 315.691Z" fill="#81807E"/>
<path d="M261.776 318.831C261.776 318.831 263.234 320.68 264.645 321.486C266.056 322.292 271.248 322.954 272.082 323.788C272.684 324.39 273.686 326.814 265.441 326.588C259.583 326.427 256.756 326.954 256.128 325.96C255.5 324.966 257.037 318.623 257.037 318.623C257.037 318.623 258.857 318.947 261.776 318.831Z" fill="#353A3D"/>
<path d="M231.869 239.279C231.869 239.279 229.509 246.615 229.819 252.937C230.13 259.258 228.599 266.176 227.973 272.78C227.275 280.143 224.418 297.572 224.315 301.511C224.211 305.449 223.22 317.672 223.22 317.672L230.476 318.162C230.476 318.162 235.278 287.691 236.522 284.582C237.765 281.473 243.933 259.307 244.14 256.82C244.348 254.333 231.869 239.279 231.869 239.279Z" fill="#3B3B40"/>
<path d="M255.575 238.515C255.575 238.515 259.046 257.912 259.46 261.781C259.875 265.65 260.151 280.506 260.358 282.924C260.566 285.343 261.74 314.57 262.846 318.163H255.048C255.048 318.163 249.925 296.915 249.925 286.863C249.925 276.81 245.59 265.008 242.792 258.375C239.994 251.742 233.588 251.585 231.868 239.279C231.868 239.279 253.246 234.612 255.575 238.515Z" fill="#3B3B40"/>
<path d="M247.652 189.102C247.652 189.102 246.933 191.195 247.652 192.689C248.372 194.182 238.464 193.286 238.464 193.286C238.464 193.286 238.912 190.2 237.618 187.66C236.323 185.121 247.652 189.102 247.652 189.102Z" fill="#EEA886"/>
<path d="M231.408 240.877C231.408 240.877 234.971 244.537 255.893 240.307L255.574 238.515L231.79 239.41L231.408 240.877Z" fill="#EDDAD3"/>
<path d="M280.691 177.198C280.054 179.629 278.169 185.065 277.599 186.769C276.892 188.884 275.283 192.998 274.687 193.529C274.205 193.953 270.544 196.751 266.314 198.767C265.27 199.263 264.192 199.714 263.117 200.067C257.693 201.862 253.604 204.501 253.604 204.501H228.432C229.082 199.17 230.907 195.346 231.597 194.05C233.515 193.927 236.42 193.582 237.875 193.52C239.692 193.449 241.61 192.649 241.61 192.649L242.251 192.693L244.188 192.83L249.152 193.175C249.152 193.175 252.813 193.546 253.856 193.745C254.904 193.944 261.941 192.485 263.383 192.339C263.555 192.322 263.798 192.247 264.09 192.123C266.221 191.23 271.008 187.91 271.185 187.472C271.384 186.977 273.785 177.729 274.258 176.133C274.368 175.779 280.757 176.95 280.691 177.198Z" fill="#DBDFF0"/>
<path d="M228.206 208.789C228.207 208.794 228.206 208.794 228.206 208.798C228.984 211.928 230.218 218.71 230.518 221.862C230.894 225.743 224.1 281.052 224.1 281.052C227.3 283.536 262.348 284.226 262.198 283.178C262.048 282.135 254.417 222.684 255.014 220.668C255.611 218.652 256.809 212.75 257.105 209.015C257.406 205.284 260.677 203.104 260.677 203.104L266.314 198.768C266.88 196.004 264.09 192.123 264.09 192.123C264.09 192.123 255.54 193.064 254.382 192.919C253.423 192.795 247.525 192.132 247.525 192.132C246.106 192.561 245.019 192.759 244.188 192.83C243.246 192.905 242.636 192.812 242.251 192.693C241.783 192.548 241.641 192.353 241.641 192.353C241.641 192.366 235.219 192.625 231.867 193.569C231.867 193.569 227.374 199.89 228.206 208.789Z" fill="#DBDFF0"/>
<path d="M237.62 187.66C237.62 187.66 238.931 187.776 241.719 186.813C244.507 185.851 244.715 180.975 245.318 181.553C246.548 182.731 247.71 181.918 248.174 181.221C248.174 181.221 246.814 179.428 247.444 178.566C248.075 177.703 249.102 177.073 249.102 177.073C249.102 177.073 247.141 167.621 238.217 171.927C227.762 176.972 237.62 187.66 237.62 187.66Z" fill="#FCCCA2"/>
<path d="M247.655 192.688L247.341 191.322C247.341 191.322 241.645 191.207 238.537 191.657L238.21 193.29C238.21 193.29 242.189 195.095 247.655 192.688Z" fill="#DBDFF0"/>
<path d="M246.248 180.358C245.731 179.498 243.818 178.918 243.593 181.354C243.419 183.242 247.012 185.303 247.045 183.544C247.078 181.785 246.593 180.93 246.248 180.358Z" fill="#EEA886"/>
<path d="M231.867 193.568C231.867 193.568 229.15 193.568 223.218 212.273C221.18 218.699 232.539 223.654 232.539 223.654L231.867 193.568Z" fill="#DBDFF0"/>
<path d="M278.213 166.928L269.706 179.096L270.61 179.727L279.116 167.56L278.213 166.928Z" fill="#4DA8F2"/>
<path d="M281.732 170.557C281.732 170.557 281.884 171.254 281.801 171.59C281.801 171.59 281.604 172.192 281.49 172.628C281.455 172.766 281.426 172.887 281.417 172.968C281.375 173.303 281.384 174.052 281.057 174.83C280.731 175.607 279.302 178.235 279.302 178.235L276.846 177.414L274.602 177.323C274.602 177.323 273.812 172.266 274.032 171.506C274.054 171.432 274.078 171.36 274.106 171.294C274.355 170.669 274.802 170.309 274.97 169.995C275.033 169.881 275.729 168.784 276.114 168.735C276.649 168.666 277.047 168.836 277.288 169.116C277.288 169.116 278.341 169.029 278.926 169.433C278.926 169.433 279.895 169.321 280.48 170.03C280.48 170.03 281.475 170.027 281.732 170.557Z" fill="#EFAA88"/>
<path d="M279.108 167.567L279.367 166.284L278.204 166.936L279.108 167.567Z" fill="#DFE1E8"/>
<path d="M412.282 243.483C412.282 243.483 412.342 242.94 412.253 242.69C412.253 242.69 412.055 242.248 411.933 241.925C411.894 241.822 411.863 241.732 411.85 241.672C411.791 241.419 411.738 240.848 411.427 240.282C411.117 239.716 409.15 237.619 409.15 237.619L407.715 238.36L406.272 238.862C406.272 238.862 406.112 242.813 406.34 243.374C406.363 243.429 406.387 243.482 406.414 243.53C406.653 243.986 407.023 244.225 407.176 244.45C407.232 244.532 407.85 245.313 408.148 245.319C408.56 245.329 408.85 245.168 409.011 244.935C409.011 244.935 409.82 244.918 410.234 244.563C410.234 244.563 410.981 244.572 411.37 243.984C411.37 243.984 412.129 243.907 412.282 243.483Z" fill="#EEA886"/>
<path d="M375.836 177.544C375.836 177.544 373.922 165.162 384.177 165.391C394.432 165.619 393.861 175.144 392.63 179.261C391.721 182.299 390 183.439 394.432 191.891C398.864 200.344 390.594 200.344 390.594 200.344L384.176 191.526L375.836 177.544Z" fill="#3A3F47"/>
<path d="M370.979 221.969C370.928 222.033 370.854 222.124 370.759 222.24V222.241C370.518 222.536 370.142 222.991 369.668 223.557C366.93 226.829 360.914 233.806 358.624 235.066C357 235.958 356.752 233.154 358.367 231.43C359.839 229.857 365.524 219.715 367.726 217.532C368.795 216.472 370.232 206.453 370.232 206.453C370.232 206.453 371.562 214.808 371.414 215.769C371.267 216.73 371.917 220.801 370.979 221.969Z" fill="#DBDFF0"/>
<path d="M358.368 231.429C358.368 231.429 357.423 232.674 356.932 232.829C356.442 232.985 355.876 233.848 355.466 234.07C355.056 234.293 353.709 234.508 353.384 234.884C353.252 235.038 352.82 236.302 352.514 236.586C352.209 236.869 351.519 237.369 351.779 237.624C352.04 237.879 352.785 237.599 352.785 237.599C352.785 237.599 352.524 237.874 352.683 238.167C352.993 238.736 353.401 238.729 353.401 238.729C353.401 238.729 353.323 239.182 353.512 239.388C353.929 239.842 354.324 239.823 354.324 239.823C354.324 239.823 354.397 240.163 354.744 240.403C355.186 240.711 355.662 240.474 355.662 240.474C355.662 240.474 356.128 240.984 356.488 240.847C356.848 240.71 357.034 240.421 357.281 240.24C357.529 240.059 359.149 237.821 359.611 235.814C360.073 233.808 361.221 232.444 361.221 232.444L358.368 231.429Z" fill="#EEA886"/>
<path d="M352.859 237.35C352.859 237.35 354.278 235.46 355.089 235.425C355.9 235.392 355.426 236.102 355.426 236.102C355.426 236.102 355.882 235.391 356.498 235.696C357.112 236.001 356.513 236.803 356.513 236.803C356.513 236.803 357.006 236.358 357.495 236.877C357.984 237.396 357.332 237.948 357.332 237.948C357.332 237.948 358.384 237.705 358.252 238.574C358.031 240.043 356.556 240.889 356.556 240.889C356.556 240.889 356.083 241.06 355.648 240.529C355.648 240.529 354.685 240.983 354.28 239.878C354.28 239.878 353.072 239.713 353.339 238.772C353.339 238.772 352.019 238.454 352.859 237.35Z" fill="#DB9C7C"/>
<path d="M363.25 317.13C363.25 317.13 359.222 323.958 357.521 325.073C355.213 326.587 356.659 328.117 357.755 328.119C358.852 328.12 364.451 328.52 365.684 327.121C366.918 325.721 367.53 321.525 368.678 320.427C369.825 319.33 370.875 315.281 368.119 313.907C365.096 312.402 363.25 317.13 363.25 317.13Z" fill="#2F4563"/>
<path d="M369.669 318.429L368.604 326.626L368.04 326.651L368.215 320.754L369.669 318.429Z" fill="#2F4563"/>
<path d="M397.785 310.474C397.785 310.474 396.82 318.342 395.706 320.044C394.194 322.353 396.132 323.179 397.138 322.742C398.143 322.306 403.436 320.436 404.008 318.66C404.58 316.884 403.464 312.792 404.078 311.328C404.692 309.864 404.037 305.732 400.961 305.574C397.589 305.402 397.785 310.474 397.785 310.474Z" fill="#2F4563"/>
<path d="M397.74 306.588C397.74 306.588 397.149 316.196 396.893 317.597C396.636 318.997 398.737 318.08 399.814 316.998C400.892 315.917 401.999 309.231 401.93 308.069C401.86 306.908 400.962 305.574 400.962 305.574L397.74 306.588Z" fill="#EEA886"/>
<path d="M404.188 309.1L406.486 317.041L405.979 317.289L403.784 311.812L404.188 309.1Z" fill="#2F4563"/>
<path d="M380.971 250.733C380.771 251.702 379.487 255.757 378.049 260.263V260.263C376.738 264.371 375.299 268.853 374.437 271.713C374.115 272.78 373.873 273.621 373.748 274.133C372.92 277.519 373.851 282.831 374.152 287.27C374.453 291.709 368.009 316.582 368.009 316.582C366.88 317.108 364.76 313.55 364.76 313.55C365.588 311.97 365.471 283.915 365.02 282.184C364.568 280.454 364.267 275.638 364.719 273.757C364.811 273.37 364.857 272.861 364.867 272.247C364.905 269.872 364.416 265.947 364.117 261.642C363.741 256.225 365.848 242.756 366.148 241.552C366.176 241.441 366.22 241.286 366.276 241.094C366.83 239.206 368.615 233.843 368.615 233.843C372.234 232.766 374.96 232.571 376.994 232.986C379.687 233.535 381.169 235.151 381.909 237.203C383.679 242.1 381.231 249.475 380.971 250.733Z" fill="#EEA886"/>
<path d="M401.347 306.24L397.682 307.529C397.061 304.52 382.178 283.463 381.27 281.131C380.362 278.799 379.394 274.284 379.394 272.629C379.394 272.333 379.372 271.835 379.33 271.187C379.17 268.678 378.71 263.946 378.052 260.263C377.929 259.576 377.799 258.926 377.663 258.333C376.934 255.156 376.808 244.304 376.799 237.921C376.795 235.081 376.815 233.126 376.815 233.126C376.815 233.126 376.878 233.076 376.996 232.987C378.368 231.949 387.169 225.618 390.238 231.536C391.048 233.099 391.577 234.777 391.899 236.527C392.883 241.89 391.917 247.93 391.123 253.433C390.444 258.142 389.142 264.795 388.767 269.732C388.561 272.448 388.636 274.646 389.25 275.713C390.981 278.723 392.673 281.271 396.172 291.891C397.311 295.345 401.347 306.24 401.347 306.24Z" fill="#EEA886"/>
<path d="M391.121 253.433C390.442 258.142 389.14 264.795 388.765 269.732C388.765 269.732 384.925 270.498 379.328 271.187C377.813 271.374 376.169 271.554 374.437 271.713C371.437 271.988 368.176 272.195 364.867 272.247C364.905 269.873 364.416 265.948 364.117 261.643C363.741 256.225 365.848 242.757 366.148 241.553C366.176 241.442 366.22 241.286 366.276 241.095C368.983 239.605 372.867 238.599 376.797 237.921C378.524 237.623 380.26 237.388 381.909 237.204C387.062 236.625 391.366 236.536 391.897 236.527C392.881 241.89 391.915 247.93 391.121 253.433Z" fill="#2F4563"/>
<path d="M397.682 307.529C397.682 307.529 399.402 309.754 401.347 306.24C401.347 306.24 399.186 303.931 397.682 307.529Z" fill="#EEA886"/>
<path d="M364.761 313.551C364.761 313.551 360.381 322.123 359.586 323.304C358.791 324.485 361.083 324.484 362.504 323.923C363.924 323.362 367.609 317.675 368.01 316.582C368.41 315.49 368.614 314.212 368.614 314.212L364.761 313.551Z" fill="#EEA886"/>
<path d="M364.76 313.55C364.76 313.55 362.434 317.926 368.613 314.212C368.613 314.212 367.448 312.253 364.76 313.55Z" fill="#EEA886"/>
<path d="M381.87 167.377C381.87 167.377 374.925 168.474 374.651 178.343C374.377 188.212 376.524 190.314 382.601 188.258C388.678 186.202 390.597 175.875 390.734 174.276C390.871 172.677 391.237 166.189 381.87 167.377Z" fill="#EEA886"/>
<path d="M394.068 201.704C394.095 205.102 390.189 213.225 389.587 215.734C388.985 218.242 388.032 219.045 388.834 222.255C389.637 225.466 392.875 236.837 392.025 237.279C379.321 243.883 368.072 243.454 366.279 241.095C366.279 241.095 370.387 225.764 370.688 224.008C370.989 222.252 370.323 215.67 370.172 213.814C370.022 211.958 368.143 207.963 368.206 206.103C368.271 204.208 369.201 202.571 370.504 200.547C370.907 199.919 371.331 199.28 371.755 198.659C373.134 196.634 374.513 194.796 375.19 194.163C375.693 193.692 376.164 193.332 376.572 193.059C376.575 193.058 376.576 193.057 376.576 193.057C377.427 192.49 377.999 192.307 377.999 192.307L383.968 191.354C383.968 191.354 387.689 192.699 389.829 193.2C389.829 193.2 394.006 193.81 394.068 201.704Z" fill="#4E9BDE"/>
<path d="M376.575 193.058L373.115 198.51L369.922 203.543C369.929 203.516 370.142 202.754 370.503 200.547C370.572 200.128 370.645 199.657 370.724 199.13C370.747 198.974 370.781 198.819 370.824 198.666C370.824 198.666 370.824 198.666 370.824 198.665C372.191 195.515 376.417 193.139 376.571 193.06C376.574 193.058 376.575 193.058 376.575 193.058Z" fill="#6EA2E8"/>
<path d="M386.509 183.812C385.907 184.949 385.271 192.006 385.271 192.006C385.271 192.006 376.777 195.216 377.646 193.4C378.041 192.576 378.157 191.506 378.165 190.584C378.172 189.858 378.112 189.223 378.07 188.87C378.048 188.685 378.031 188.578 378.031 188.578C378.031 188.578 387.111 182.675 386.509 183.812Z" fill="#EEA886"/>
<path d="M379.038 174.459C379.038 174.459 381.523 177.495 384.767 179.78C388.011 182.064 387.445 186.658 387.445 186.658C387.445 186.658 395.909 168.839 387.862 167.605C379.814 166.372 374.88 166.28 374.651 178.343C374.651 178.343 378.307 174.368 379.038 174.459Z" fill="#3A3F47"/>
<path d="M383.876 187.649C382.572 189.572 378.164 190.585 378.164 190.585C378.164 190.585 378.164 190.585 378.164 190.585C378.171 189.858 378.111 189.223 378.069 188.871C380.801 189.48 383.876 187.649 383.876 187.649Z" fill="#A77860"/>
<path d="M370.837 198.628C370.837 198.628 370.837 198.628 370.837 198.628C370.837 198.628 370.652 199.01 370.501 200.547L371.752 198.659C371.752 198.659 373.987 195.455 374.752 194.622C375.518 193.789 376.57 193.059 376.57 193.059C376.57 193.059 372.173 195.172 370.837 198.628Z" fill="#DBDFF0"/>
<path d="M388.098 205.17C388.098 205.17 394.49 202.46 396.014 202.04C396.014 202.04 393.38 192.487 387.977 193.081C382.138 193.722 388.098 205.17 388.098 205.17Z" fill="#6EA2E8"/>
<path d="M377.996 192.307C377.996 192.307 373.994 198.461 375.348 198.999C376.703 199.537 384.037 198.281 387.156 192.436C387.156 192.436 382.493 190.045 377.996 192.307Z" fill="#EEA886"/>
<path d="M357.438 232.478C357.438 232.478 360.162 233.824 360.79 234.989C360.79 234.989 365.6 228.108 366.026 227.796L358.742 230.97L357.438 232.478Z" fill="#DBDFF0"/>
<path d="M406.148 239.099C406.148 239.099 408.982 238.4 409.953 238.325L405.651 228.068L404.063 233.848C404.063 233.848 406.131 238.833 406.148 239.099Z" fill="#DBDFF0"/>
<path d="M370.178 213.916C370.168 213.832 370.163 213.784 370.163 213.775C370.165 213.78 370.167 213.792 370.17 213.814C370.173 213.837 370.176 213.871 370.178 213.916Z" fill="#2F4563"/>
<path d="M370.76 222.241V222.241C370.518 222.537 369.025 224.317 368.551 224.882C368.551 224.882 370.222 215.095 370.178 213.917C370.284 214.858 370.924 220.219 370.76 222.241Z" fill="#9EA1AD"/>
<path d="M385.293 191.757C385.293 191.757 380.762 197.83 380.491 208.905C380.219 219.98 384.227 267.077 383.675 274.042C383.675 274.042 393.465 270.341 396.014 268.285C398.564 266.228 391.577 232.673 390.714 229.612C389.851 226.551 388.061 216.818 396.014 202.039C396.014 202.039 394.3 194.65 390.991 193.363C387.682 192.077 385.293 191.757 385.293 191.757Z" fill="#DBDFF0"/>
<path d="M408.459 236.779C407.16 232.453 404.343 224.211 403.802 222.49C402.39 217.997 401.634 216.942 399.617 210.901C398.831 208.547 397.213 204.761 396.014 202.041C396.014 202.04 396.014 202.04 396.014 202.04C395.099 198.544 393.274 195.84 392.01 194.395C390.747 192.95 387.156 192.436 387.156 192.436C387.156 192.436 387.651 193.099 388.389 194.063C388.137 194.091 387.911 194.065 387.641 194.134C382.855 195.345 388.333 203.269 388.715 204.321C389.097 205.373 395.925 217.086 396.418 218.156C398.124 221.853 399.132 222.698 400.428 226.175C402.179 230.873 405.031 235.505 406.438 238.094C407.03 239.182 408.957 238.438 408.459 236.779Z" fill="#DBDFF0"/>
<path d="M377.996 192.307C377.996 192.307 373.798 196.856 373.247 206.01C372.695 215.164 372.236 226.017 370.786 235.425C369.337 244.832 367.021 275.383 367.021 275.383C367.021 275.383 363.823 272.956 363.161 271.412C362.499 269.868 364.843 241.478 367.572 233.584C370.302 225.689 370.983 224.563 370.177 217.664C369.371 210.765 367.767 207.915 368.193 205.321C368.62 202.727 372.759 194.118 377.996 192.307Z" fill="#DBDFF0"/>
<path d="M479.529 60.9111H497.876V59.625H479.529V60.9111Z" fill="url(#paint10_linear_14476_49578)"/>
<path d="M479.529 67.4557H497.876V62.0488H479.529V67.4557Z" fill="url(#paint11_linear_14476_49578)"/>
<path d="M470.911 70.0818H481.735V69.2739H470.911V70.0818Z" fill="url(#paint12_linear_14476_49578)"/>
<path d="M470.911 72.6233H481.735V70.4351H470.911V72.6233Z" fill="url(#paint13_linear_14476_49578)"/>
<path d="M500.89 52.6934H501.698V67.8429H500.89V52.6934Z" fill="url(#paint14_linear_14476_49578)"/>
<path d="M136.691 245.825H109.975V247.411H136.691V245.825Z" fill="#E2D2CA"/>
<path d="M113.555 323.662H115.896L115.896 251.538H113.555L113.555 323.662Z" fill="#706865"/>
<path d="M151.079 245.375H132.509V247.64H151.079V245.375Z" fill="#CCBDB7"/>
<path d="M145.312 226.052H138.279V247.411H145.312V226.052Z" fill="#998E89"/>
<path d="M203.283 247.438H100.392V251.538H203.283V247.438Z" fill="#B59074"/>
<path d="M80.643 222.616C80.643 222.616 79.5176 238.397 82.6012 240.286C84.5328 241.469 92.2346 245.46 92.0061 246.208C91.7777 246.956 87.6573 252.867 87.6573 252.867C87.6573 252.867 72.8636 243.125 72.3866 240.055C71.9206 237.055 73.1149 216.948 75.1481 216.022C76.6709 215.328 77.4751 215.902 79.3944 217.327C82.0879 219.326 80.643 222.616 80.643 222.616Z" fill="#DBDFF0"/>
<path d="M98.8426 313.815C98.8426 313.815 98.3827 317.008 98.3251 317.487C98.2677 317.967 93.2075 317.205 93.2075 317.205L92.7979 313.403C92.7979 313.403 98.2101 313.364 98.8426 313.815Z" fill="#424773"/>
<path d="M98.3819 317.082C98.3819 317.082 99.985 319.006 101.536 319.844C103.086 320.683 105.523 321.015 106.44 321.883C107.102 322.51 108.851 325.208 102.411 325.153C95.9705 325.099 92.8654 325.534 92.1754 324.5C91.4855 323.466 93.1738 316.865 93.1738 316.865C93.1738 316.865 94.699 317.414 98.3819 317.082Z" fill="#292C47"/>
<path d="M131.263 313.845C131.263 313.845 130.804 317.038 130.746 317.517C130.689 317.997 125.628 317.235 125.628 317.235L125.219 313.433C125.219 313.433 130.631 313.394 131.263 313.845Z" fill="#424773"/>
<path d="M130.802 317.111C130.802 317.111 132.405 319.036 133.956 319.874C135.506 320.713 141.212 321.402 142.129 322.27C142.791 322.897 143.892 325.419 134.83 325.183C128.393 325.016 125.285 325.564 124.595 324.53C123.905 323.495 125.594 316.895 125.594 316.895C125.594 316.895 127.031 317.481 130.802 317.111Z" fill="#292C47"/>
<path d="M82.5261 258.657C82.5261 258.657 100.922 261.77 105.078 262.422C109.233 263.075 131.761 268.681 134.579 270.389C136.822 271.749 133.403 304.406 132.604 316.865H123.73L123.087 279.491C112.439 279.757 104.84 277 97.0857 278.177C89.3315 279.355 82.8668 281.029 77.9394 274.42C77.9394 274.42 77.7567 260.101 82.5261 258.657Z" fill="#292C47"/>
<path d="M100.657 316.895L92.0092 316.361L91.1666 279.491C86.5823 279.605 85.011 279.314 81.3014 278.864L74.3193 262.635C80.4383 263.859 100.043 268.803 102.658 270.389C104.9 271.749 101.455 304.435 100.657 316.895Z" fill="#292C47"/>
<path d="M90.9923 189.7C90.9923 189.7 97.736 187.836 100.309 193.072C102.882 198.306 101.715 208.231 98.3167 209.165C94.918 210.098 90.0303 209.023 88.6195 205.765C87.2085 202.507 86.083 197.877 86.4208 194.879C86.7583 191.881 89.2014 190.416 90.9923 189.7Z" fill="#EEA886"/>
<path d="M96.5558 208.121C96.5558 208.121 96.4817 212.102 96.9207 212.951C97.3597 213.799 87.5303 213.586 87.5303 213.586C87.5303 213.586 89.0795 208.805 88.2006 204.732C87.3307 200.701 96.5558 208.121 96.5558 208.121Z" fill="#EEA886"/>
<path d="M87.6699 203.225C87.6699 203.225 88.1955 204.293 90.7397 204.12C93.2841 203.948 96.6397 200.879 97.7197 200.604C98.7999 200.33 98.8642 199.715 98.8642 199.715L99.4358 200.731L100.543 200.9C100.543 200.9 99.7905 197.823 101.429 196.74C103.068 195.657 100.691 186.933 92.395 189.037C92.395 189.037 86.0633 190.197 85.9782 193.732C85.8934 197.268 86.4409 201.352 87.6699 203.225Z" fill="#3A3F47"/>
<path d="M97.4377 212.848C97.4377 212.848 97.4101 211.227 96.6751 211.071C95.9401 210.916 88.9484 209.954 88.0464 210.309L87.6592 212.45C87.6592 212.45 89.3975 213.52 97.4377 212.848Z" fill="#E2D2CA"/>
<path d="M99.4602 198.99C99.2717 197.661 97.7603 196.134 96.8948 198.205C96.0294 200.275 97.4791 203.29 98.45 203.128C99.421 202.966 99.7163 200.793 99.4602 198.99Z" fill="#EEA886"/>
<path d="M126.72 232.009C126.717 232.008 126.713 232.007 126.708 232.008C126.76 232.031 126.768 232.033 126.72 232.009Z" fill="#323657"/>
<path d="M89.027 190.649C89.027 190.649 80.8047 190.263 87.5919 203.098L89.027 190.649Z" fill="#3A3F47"/>
<path d="M70.7061 321.269L71.3177 322.989L97.1621 314.982L95.9236 311.497L70.7061 321.269Z" fill="#918783"/>
<path d="M98.0478 285.658H95.1104V313.756H98.0478V285.658Z" fill="#918783"/>
<path d="M105.244 284.165H87.918V285.82H105.244V284.165Z" fill="#5E5854"/>
<path d="M122.68 321.269L122.068 322.989L96.2236 314.982L97.3595 311.279L122.68 321.269Z" fill="#918783"/>
<path d="M104.471 322.805V324.807L96.2236 314.982L97.3595 311.279L104.471 322.805Z" fill="#918783"/>
<path d="M125.096 323.662C125.096 324.996 124.015 326.077 122.681 326.077C121.347 326.077 120.266 324.996 120.266 323.662C120.266 322.328 121.347 321.247 122.681 321.247C124.015 321.247 125.096 322.328 125.096 323.662Z" fill="#BFB2AC"/>
<path d="M104.676 323.662C104.676 324.996 103.595 326.078 102.261 326.078C100.927 326.078 99.8457 324.996 99.8457 323.662C99.8457 322.328 100.927 321.247 102.261 321.247C103.595 321.247 104.676 322.328 104.676 323.662Z" fill="#BFB2AC"/>
<path d="M73.1206 323.662C73.1206 324.996 72.0394 326.077 70.7054 326.077C69.3715 326.077 68.29 324.996 68.29 323.662C68.29 322.328 69.3715 321.247 70.7054 321.247C72.0394 321.247 73.1206 322.328 73.1206 323.662Z" fill="#BFB2AC"/>
<path d="M114.676 284.165H78.709C77.3067 284.165 76.1699 283.028 76.1699 281.626V280.432C76.1699 279.03 77.3068 277.893 78.709 277.893H114.676C116.079 277.893 117.215 279.03 117.215 280.432V281.626C117.215 283.028 116.079 284.165 114.676 284.165Z" fill="#E2D2CA"/>
<path d="M190.118 251.538H187.777V323.662H190.118V251.538Z" fill="#706865"/>
<path d="M169.623 236.341H113.966C112.568 236.341 111.434 235.207 111.434 233.808V196.037C111.434 194.638 112.568 193.504 113.966 193.504H169.623C171.022 193.504 172.156 194.638 172.156 196.037V233.808C172.156 235.207 171.022 236.341 169.623 236.341Z" fill="#B8ABA5"/>
<path d="M169.777 195.82H113.811V229.628H169.777V195.82Z" fill="#F5F7FF"/>
<path d="M167.291 232.817C167.291 233.778 166.281 234.558 165.035 234.558C163.789 234.558 162.779 233.778 162.779 232.817C162.779 231.856 163.789 231.077 165.035 231.077C166.281 231.077 167.291 231.856 167.291 232.817Z" fill="#918681"/>
<path d="M154.364 247.492V246.73C154.364 246.73 153.293 241.989 145.712 241.989C138.132 241.989 138.285 247.493 138.285 247.493L154.364 247.492Z" fill="#998E89"/>
<path d="M138.195 242.693C138.195 242.693 139.841 242.565 140.445 242.201C141.048 241.837 144.658 239.409 145.506 239.798C146.354 240.186 151.996 241.915 151.8 242.74C151.604 243.565 151.082 243.486 150.684 243.34C150.286 243.194 146.189 242.334 145.827 242.478C145.827 242.478 149.851 243.947 149.868 245.018C149.884 246.089 149.025 246.35 148.644 246.755C148.262 247.16 147.804 248.166 146.767 248.244C145.73 248.321 140.669 246.56 139.627 246.48C138.585 246.399 136.657 246.544 136.526 246.375C136.396 246.205 138.195 242.693 138.195 242.693Z" fill="#EEA886"/>
<path d="M108.213 215.096C102.962 214.173 97.4353 212.848 97.4353 212.848L87.6566 212.45C87.6566 212.45 78.682 214.426 75.1475 216.022C74.8121 216.173 74.8107 224.028 73.8906 226.088L76.821 232.271C76.821 232.271 78.5139 244.517 78.8649 249.963C79.0262 252.463 78.4091 274.127 78.4091 274.127C78.4091 274.127 79.2875 274.56 85.9613 275.296C92.6352 276.032 109.311 275.03 109.415 274.242C109.521 273.453 106.186 244.89 106.039 243.411C105.812 241.141 106.694 230.65 106.694 230.65C107.952 232.339 111.158 239.967 114.499 243.596C116.465 245.731 126.197 247.04 128.031 247.101C132.024 247.234 139.309 248.03 139.522 247.642C139.692 247.408 140.157 241.175 139.7 241.023C139.3 240.89 125.773 240.111 122.308 238.272C121.04 237.599 117.25 229.335 117.25 229.335C117.25 229.335 111.109 216.398 108.213 215.096Z" fill="#DBDFF0"/>
<path d="M90.0125 273.501H71.4575C68.765 273.501 66.582 271.318 66.582 268.625V239.173C66.582 236.48 68.765 234.297 71.4575 234.297H90.0123C92.7048 234.297 94.8876 236.48 94.8876 239.173V268.625C94.8876 271.318 92.705 273.501 90.0125 273.501Z" fill="#E2D2CA"/>
<path d="M89.8721 282.604C85.6999 282.604 82.3147 281.202 79.811 278.438C74.1526 272.191 75.1693 261.209 75.2155 260.745C75.3014 259.879 76.0738 259.247 76.9379 259.333C77.803 259.419 78.4352 260.19 78.3498 261.054C78.3378 261.18 77.4361 271.134 82.1516 276.331C84.0589 278.433 86.5844 279.454 89.8719 279.454C90.7416 279.454 91.4468 280.159 91.4468 281.029C91.4471 281.899 90.7418 282.604 89.8721 282.604Z" fill="#E2D2CA"/>
<path d="M133.81 200.299H118.142C117.942 200.299 117.779 200.136 117.779 199.935V198.875C117.779 198.675 117.942 198.512 118.142 198.512H133.81C134.011 198.512 134.173 198.675 134.173 198.875V199.935C134.173 200.136 134.011 200.299 133.81 200.299Z" fill="#DFE1E8"/>
<path d="M133.81 204.129H118.142C117.942 204.129 117.779 203.967 117.779 203.766V202.706C117.779 202.506 117.942 202.343 118.142 202.343H133.81C134.011 202.343 134.173 202.506 134.173 202.706V203.766C134.173 203.967 134.011 204.129 133.81 204.129Z" fill="#DFE1E8"/>
<path d="M132.952 226.935H119C118.326 226.935 117.779 226.388 117.779 225.714V207.958C117.779 207.284 118.326 206.737 119 206.737H132.952C133.626 206.737 134.173 207.284 134.173 207.958V225.714C134.173 226.388 133.627 226.935 132.952 226.935Z" fill="#DFE1E8"/>
<path d="M164.743 226.935H139.415C138.347 226.935 137.481 226.069 137.481 225.002V200.445C137.481 199.377 138.347 198.512 139.415 198.512H164.743C165.811 198.512 166.676 199.377 166.676 200.445V225.002C166.676 226.069 165.811 226.935 164.743 226.935Z" fill="#DFE1E8"/>
<path d="M286.549 212.135C286.549 212.135 285.39 209.628 285.201 209.251C285.012 208.874 283.905 208.274 282.588 207.942C281.31 207.62 279.57 206.975 279.372 207.099C279.173 207.223 278.941 207.24 278.704 207.793C278.468 208.345 278.571 208.942 278.571 208.942C278.571 208.942 277.959 209.485 278.143 210.211C278.143 210.211 277.591 210.749 277.934 211.54C277.934 211.54 277.409 212.079 277.707 212.632C277.707 212.632 278.734 213.215 279.051 213.541C279.369 213.866 281.587 214.932 283.872 215.626C283.872 215.626 286.252 215.551 286.549 212.135Z" fill="#8E4F3A"/>
<path d="M283.872 215.626C283.872 215.626 286.706 216.12 287.667 215.567C288.628 215.014 287.51 212.127 287.51 212.127L285.715 211.042L283.872 215.626Z" fill="#8E4F3A"/>
<path d="M282.82 210.92C282.82 210.92 282.863 212.307 283.072 212.69C283.282 213.073 280.458 213.67 280.458 213.67C280.458 213.67 281.136 211.018 282.82 210.92Z" fill="#5E3527"/>
<path d="M279.729 207.219C279.729 207.219 282.824 208.723 282.643 209.251C282.463 209.78 282.076 209.864 282.076 209.864L283.069 211.061C283.069 211.061 283.28 212.225 281.951 212.114C281.951 212.114 282.26 213.181 280.989 212.921C280.989 212.921 280.879 213.715 280.269 213.699C279.66 213.682 277.708 212.632 277.708 212.632C277.708 212.632 277.33 212.216 277.869 211.53C277.869 211.53 277.511 210.765 278.093 210.175C278.093 210.175 277.915 209.234 278.55 208.602C278.55 208.602 278.486 207.536 279.399 207.084C279.399 207.084 279.599 207.155 279.729 207.219Z" fill="#7A4432"/>
<path d="M285.11 209.193C285.11 209.193 282.749 209.243 281.471 209.837C281.183 209.971 280.927 210.154 280.943 210.473C280.959 210.792 281.441 211.174 282.465 211.204C283.489 211.235 284.798 211.742 284.798 211.742C284.798 211.742 285.86 211.465 285.11 209.193Z" fill="#8E4F3A"/>
<path d="M278.549 208.601C278.549 208.601 282.083 209.811 282.324 210.103C282.565 210.395 283.018 209.105 282.795 208.87C282.572 208.634 279.822 207.168 279.519 207.086C279.215 207.005 278.177 207.715 278.549 208.601Z" fill="#8E4F3A"/>
<path d="M280.177 207.234C280.177 207.234 274.674 206.107 274.562 206.777C274.45 207.448 274.982 207.561 279.492 208.876C283.877 210.156 280.177 207.234 280.177 207.234Z" fill="#8E4F3A"/>
<path d="M317.992 320.098C317.992 320.098 316.238 322.722 313.778 323.289C311.319 323.856 308.895 324.758 308.877 326.31C308.859 327.862 315.989 328.788 318.804 327.223C323.006 324.888 323.433 325.592 323.899 324.424C324.365 323.256 323.339 320.134 323.37 319.763C323.407 319.304 317.992 320.098 317.992 320.098Z" fill="#353A3D"/>
<path d="M318.266 318.804C318.266 318.804 317.946 320.072 317.993 320.098C318.041 320.125 323.537 320.78 323.37 319.763C323.236 318.938 323.043 318.042 323.043 318.042L318.266 318.804Z" fill="#81807E"/>
<path d="M336.489 319.924C336.489 319.924 335.238 322.434 333.1 323.289C330.816 324.203 328.984 325.253 329.025 326.766C329.067 328.278 334.61 329.811 338.643 326.908C341.191 325.074 341.999 325.065 342.407 323.91C342.816 322.755 341.698 319.754 341.713 319.391C341.732 318.943 336.489 319.924 336.489 319.924Z" fill="#353A3D"/>
<path d="M336.426 318.62C336.426 318.62 336.441 319.9 336.488 319.924C336.536 319.948 341.847 320.386 341.713 319.39C341.605 318.6 341.197 317.645 341.197 317.645L336.426 318.62Z" fill="#81807E"/>
<path d="M316.951 241.951C316.951 241.951 312.016 263.719 310.889 270.349C309.929 275.993 309.165 281.869 309.625 285.943C310.194 290.987 317.334 317.127 317.035 318.606C316.737 320.085 325.548 319.186 325.548 319.186C325.548 319.186 319.076 289.684 320.161 284.257C320.964 280.238 328.004 253.537 329.082 254.906C330.161 256.276 331.499 280.106 332.298 284.062C333.097 288.017 335.549 319.273 335.549 319.273C335.549 319.273 341.033 320.083 342.498 318.843C342.498 318.843 343.165 292.154 342.656 284.737C342.462 281.911 345.967 250.849 341.472 238.344C339.097 231.735 316.951 241.951 316.951 241.951Z" fill="#2D3133"/>
<path d="M284.723 216.699C284.723 216.699 301.819 220.489 305.221 219.652C306.793 219.266 308.865 217.095 310.833 214.543C311.482 213.702 312.118 212.82 312.724 211.947C312.726 211.945 312.726 211.943 312.726 211.943C315.141 208.456 317.033 205.114 317.033 205.114C317.033 205.114 324.171 196.749 318.443 193.019C318.443 193.019 316.364 192.24 314.456 194.287C312.545 196.333 310.304 200.613 309.803 201.705C309.302 202.795 302.291 212.908 301.927 213.136C301.564 213.364 298.5 212.558 296.044 212.353C292.038 212.019 286.036 210.459 286.036 210.459L284.723 216.699Z" fill="#DBDFF0"/>
<path d="M323.8 191.153C323.8 191.153 316.452 192.673 315.58 193.445C314.633 194.267 312.964 202.315 312.864 204.557C312.765 206.799 313.75 216.164 314.697 219.651C315.643 223.139 315.469 240.316 314.872 245.148C314.872 245.148 329.667 249.351 344.215 247.457C344.215 247.457 341.776 229.386 342.358 224.607C343.104 218.485 344.899 204.38 344.899 204.38C344.899 204.38 343.611 194.555 342.316 193.459C341.02 192.363 332.095 191.153 332.095 191.153H323.8Z" fill="#BCC0CF"/>
<path d="M326.838 168.431C326.838 168.431 317.999 165.161 318.551 176.907C319.104 188.654 321.175 189.848 326.99 188.207C332.805 186.567 333.292 179.153 334.049 175.587C334.806 172.02 329.729 168.944 326.838 168.431Z" fill="#8E4F3A"/>
<path d="M322.644 192.744C322.644 192.744 324.463 193.947 331.36 190.908C331.36 190.908 331.165 186.18 332.518 181.763C333.871 177.346 323.262 187.652 323.262 187.652C323.374 187.73 323.395 188.172 323.332 188.787C323.278 189.309 323.164 189.956 322.991 190.613C322.604 192.089 322.644 191.455 322.644 192.744Z" fill="#8E4F3A"/>
<path d="M332.821 181.412C332.821 181.412 332.846 178.274 331.541 177.986C330.236 177.697 330.064 176.653 330.064 176.653L329.316 176.827C329.316 176.827 329.453 176.274 328.209 175.545C326.964 174.816 319.522 175.457 318.588 174.386C317.654 173.315 319.009 166.957 321.039 166.333C323.07 165.709 327.787 165.766 332.096 166.977C332.096 166.977 335.367 167.802 335.615 171.653C335.775 174.146 333.883 179.711 332.821 181.412Z" fill="#2D3133"/>
<path d="M322.991 190.613C329.843 189.461 330.867 185.565 330.882 185.504C328.219 188.939 323.331 188.788 323.331 188.788C323.278 189.31 323.164 189.956 322.991 190.613Z" fill="#633029"/>
<path d="M323.293 194.286C323.293 194.286 322.046 196.127 321.293 200.852C320.54 205.576 320.667 213.715 320.667 213.715L322.402 213.926C322.402 213.926 325.028 197.327 324.576 194.434L323.293 194.286Z" fill="#434343"/>
<path d="M330.063 176.654C330.454 175.618 332.658 175.749 332.433 177.39C332.207 179.031 330.385 181.558 329.653 181.084C328.921 180.61 329.525 178.081 330.063 176.654Z" fill="#8E4F3A"/>
<path d="M315.485 193.437C315.485 193.437 311.31 198.961 312.857 213.414C315.652 239.531 308.332 281.456 308.332 281.456L315.884 283.819C315.884 283.819 323.1 230.224 321.262 210.774C320.425 201.91 317.939 198.961 321.86 191.576C321.86 191.576 318.042 191.77 315.485 193.437Z" fill="#DBDFF0"/>
<path d="M334.125 191.455C334.125 191.455 322.172 203.528 321.236 212.681C320.3 221.834 318.775 283.819 318.775 283.819L347.231 282.162C347.231 282.162 344.615 249.441 343.977 245.348C343.339 241.255 342.018 217.752 344.899 206.846C346.446 200.988 344.605 193.555 341.07 192.743C337.535 191.933 334.125 191.455 334.125 191.455Z" fill="#DBDFF0"/>
<path d="M338.164 193.019C338.164 193.019 333.561 194.286 336.094 202.735C338.077 209.353 338.345 210.774 338.345 210.774L348.967 208.121C348.967 208.121 345.853 193.584 340.77 192.803C340.77 192.803 339.152 192.573 338.164 193.019Z" fill="#DBDFF0"/>
<path d="M303.343 237.736L324.163 259.282L337.992 245.919L317.712 223.85L303.343 237.736Z" fill="#616161"/>
<path d="M305.311 238.164L323.802 257.3L336.083 245.431L318.072 225.832L305.311 238.164Z" fill="#E0CEC7"/>
<path d="M309.572 234.966L308.274 233.623L313.239 228.825L314.732 229.981L309.572 234.966Z" fill="#616161"/>
<path d="M331.358 189.601C331.358 189.601 327.752 191.776 324.185 192.266L326.082 195.293L332.095 191.153L331.358 189.601Z" fill="#A7AAB8"/>
<path d="M322.991 190.613C322.991 190.613 323.371 191.859 324.185 192.266L322.402 194.751L322.468 191.455L322.991 190.613Z" fill="#A7AAB8"/>
<path d="M324.185 192.265L322.773 194.233C322.773 194.233 323.666 195.363 325.59 194.507L324.185 192.265Z" fill="#434343"/>
<path d="M310.831 214.54V214.542C311.48 213.702 312.116 212.82 312.722 211.947C312.724 211.945 312.724 211.943 312.724 211.943C312.724 211.943 312.496 205.575 312.695 203.745C312.695 203.745 310.614 210.605 310.831 214.54Z" fill="#A7AAB8"/>
<path d="M340.164 210.32C340.164 210.32 341.552 219.351 341.455 219.93C341.358 220.509 347.738 218.116 340.164 210.32Z" fill="#A7AAB8"/>
<path d="M315.096 212.209H318.45V207.087H315.096V212.209Z" fill="#C6CAD9"/>
<path d="M330.007 231.641C330.007 231.641 329.7 232.249 329.19 232.454C328.309 232.807 326.899 232.246 326.354 233.507C325.809 234.768 329.324 237.73 330.205 237.884C331.086 238.038 332.334 236.596 333.148 233.815C333.961 231.034 330.007 231.641 330.007 231.641Z" fill="#8E4F3A"/>
<path d="M326.599 233.111C326.599 233.111 325.086 234.464 323.59 236.184C322.278 237.693 321.014 239.72 321.24 240.102C321.742 240.952 322.963 239.053 324.366 237.649C325.658 236.356 325.444 236.582 325.444 236.582C325.444 236.582 325.446 236.444 324.319 238.14C323.106 239.962 322.049 241.961 322.336 242.405C322.476 242.621 323.041 243.15 323.311 242.278C323.069 242.686 323.026 242.586 323.188 242.709C324.027 243.349 326.231 240.965 327.106 240.018C326.438 240.75 326.028 241.362 326.784 241.424C327.65 241.495 330.611 237.977 331.795 236.823C333.085 235.566 326.599 233.111 326.599 233.111Z" fill="#8E4F3A"/>
<path d="M337.614 193.585C336.651 193.958 336.286 195.668 336.682 200.625C337.078 205.582 338.823 207.862 339.474 209.009C340.125 210.155 343.706 217.223 343.062 218.153C342.418 219.083 336.34 225.08 335.988 225.569C335.636 226.057 328.849 232.201 328.849 232.201L332.304 237.029C332.304 237.029 346.96 225.582 348.103 224.439C349.247 223.296 352.665 220.895 351.4 216.902C350.116 212.844 347.806 203.344 347.396 202.601C346.986 201.859 343.985 191.118 337.614 193.585Z" fill="#DBDFF0"/>
<path d="M333.097 128.244H343.868L340.572 121.405H329.8L333.097 128.244Z" fill="url(#paint15_linear_14476_49578)"/>
<path d="M328.056 128.244H330.623L327.325 121.405H324.759L328.056 128.244Z" fill="url(#paint16_linear_14476_49578)"/>
</g>
<defs>
<linearGradient id="paint0_linear_14476_49578" x1="74.2342" y1="168.013" x2="280.118" y2="168.013" gradientUnits="userSpaceOnUse">
<stop stop-color="#D5E4FF"/>
<stop offset="1" stop-color="#EDFFFE"/>
</linearGradient>
<linearGradient id="paint1_linear_14476_49578" x1="112.314" y1="145.127" x2="112.314" y2="199.405" gradientUnits="userSpaceOnUse">
<stop stop-color="#D3DAE0"/>
<stop offset="1" stop-color="white"/>
</linearGradient>
<linearGradient id="paint2_linear_14476_49578" x1="101.582" y1="164.745" x2="107.909" y2="164.745" gradientUnits="userSpaceOnUse">
<stop stop-color="#D3DAE0"/>
<stop offset="1" stop-color="white"/>
</linearGradient>
<linearGradient id="paint3_linear_14476_49578" x1="109.151" y1="164.745" x2="115.477" y2="164.745" gradientUnits="userSpaceOnUse">
<stop stop-color="#D3DAE0"/>
<stop offset="1" stop-color="white"/>
</linearGradient>
<linearGradient id="paint4_linear_14476_49578" x1="116.719" y1="164.745" x2="123.046" y2="164.745" gradientUnits="userSpaceOnUse">
<stop stop-color="#D3DAE0"/>
<stop offset="1" stop-color="white"/>
</linearGradient>
<linearGradient id="paint5_linear_14476_49578" x1="368.45" y1="60.6125" x2="488.419" y2="295.218" gradientUnits="userSpaceOnUse">
<stop stop-color="#4783BE"/>
<stop offset="1" stop-color="#002548"/>
</linearGradient>
<linearGradient id="paint6_linear_14476_49578" x1="301.69" y1="100.069" x2="415.504" y2="322.639" gradientUnits="userSpaceOnUse">
<stop stop-color="#4783BE"/>
<stop offset="1" stop-color="#002548"/>
</linearGradient>
<linearGradient id="paint7_linear_14476_49578" x1="218.827" y1="282.284" x2="248.157" y2="282.284" gradientUnits="userSpaceOnUse">
<stop stop-color="#40D5E6"/>
<stop offset="1" stop-color="#5577FF"/>
</linearGradient>
<linearGradient id="paint8_linear_14476_49578" x1="405.199" y1="30.4898" x2="388.166" y2="103.952" gradientUnits="userSpaceOnUse">
<stop stop-color="#40D5E6"/>
<stop offset="1" stop-color="#5577FF"/>
</linearGradient>
<linearGradient id="paint9_linear_14476_49578" x1="432.362" y1="36.7874" x2="415.329" y2="110.25" gradientUnits="userSpaceOnUse">
<stop stop-color="#40D5E6"/>
<stop offset="1" stop-color="#5577FF"/>
</linearGradient>
<linearGradient id="paint10_linear_14476_49578" x1="496.821" y1="40.19" x2="480.133" y2="81.4634" gradientUnits="userSpaceOnUse">
<stop stop-color="#40D5E6"/>
<stop offset="1" stop-color="#5577FF"/>
</linearGradient>
<linearGradient id="paint11_linear_14476_49578" x1="498.379" y1="40.82" x2="481.692" y2="82.0934" gradientUnits="userSpaceOnUse">
<stop stop-color="#40D5E6"/>
<stop offset="1" stop-color="#5577FF"/>
</linearGradient>
<linearGradient id="paint12_linear_14476_49578" x1="489.45" y1="37.2098" x2="472.763" y2="78.4835" gradientUnits="userSpaceOnUse">
<stop stop-color="#40D5E6"/>
<stop offset="1" stop-color="#5577FF"/>
</linearGradient>
<linearGradient id="paint13_linear_14476_49578" x1="490.093" y1="37.4698" x2="473.406" y2="78.7434" gradientUnits="userSpaceOnUse">
<stop stop-color="#40D5E6"/>
<stop offset="1" stop-color="#5577FF"/>
</linearGradient>
<linearGradient id="paint14_linear_14476_49578" x1="507.642" y1="44.5652" x2="490.955" y2="85.8387" gradientUnits="userSpaceOnUse">
<stop stop-color="#40D5E6"/>
<stop offset="1" stop-color="#5577FF"/>
</linearGradient>
<linearGradient id="paint15_linear_14476_49578" x1="336.142" y1="91.3676" x2="337.327" y2="148.636" gradientUnits="userSpaceOnUse">
<stop stop-color="#40D5E6"/>
<stop offset="1" stop-color="#5577FF"/>
</linearGradient>
<linearGradient id="paint16_linear_14476_49578" x1="327.002" y1="91.5566" x2="328.187" y2="148.825" gradientUnits="userSpaceOnUse">
<stop stop-color="#40D5E6"/>
<stop offset="1" stop-color="#5577FF"/>
</linearGradient>
<clipPath id="clip0_14476_49578">
<rect width="541.725" height="353.462" fill="white"/>
</clipPath>
</defs>
</svg>
