<svg width="24" height="24" viewBox="0 0 24 24" fill="none" xmlns="http://www.w3.org/2000/svg">
<g clip-path="url(#clip0_15248_62011)">
<path d="M12 24C18.6274 24 24 18.6274 24 12C24 5.37258 18.6274 0 12 0C5.37258 0 0 5.37258 0 12C0 18.6274 5.37258 24 12 24Z" fill="white"/>
<path d="M14.4253 6H9.57474C8.62704 6.00125 7.71852 6.37828 7.0484 7.0484C6.37828 7.71852 6.00125 8.62704 6 9.57474V14.4253C6.00125 15.373 6.37828 16.2815 7.0484 16.9516C7.71852 17.6217 8.62704 17.9987 9.57474 18H14.4253C15.3731 17.9992 16.2818 17.6223 16.9521 16.9521C17.6223 16.2818 17.9992 15.3731 18 14.4253V9.57474C17.9987 8.62704 17.6217 7.71852 16.9516 7.0484C16.2815 6.37828 15.373 6.00125 14.4253 6ZM16.7937 14.4253C16.7937 15.0534 16.5442 15.6558 16.1 16.1C15.6558 16.5442 15.0534 16.7937 14.4253 16.7937H9.57474C8.94659 16.7937 8.34418 16.5442 7.90001 16.1C7.45584 15.6558 7.20632 15.0534 7.20632 14.4253V9.57474C7.20632 8.94659 7.45584 8.34418 7.90001 7.90001C8.34418 7.45584 8.94659 7.20632 9.57474 7.20632H14.4253C15.0534 7.20632 15.6558 7.45584 16.1 7.90001C16.5442 8.34418 16.7937 8.94659 16.7937 9.57474V14.4253Z" fill="#0054A6"/>
<path d="M12.0003 8.89734C11.3862 8.89703 10.7858 9.07886 10.2751 9.41984C9.76439 9.76081 9.36628 10.2456 9.13113 10.8129C8.89598 11.3802 8.83438 12.0045 8.9541 12.6068C9.07383 13.2091 9.36951 13.7623 9.80373 14.1966C10.238 14.6308 10.7912 14.9265 11.3935 15.0462C11.9958 15.1659 12.6201 15.1043 13.1874 14.8692C13.7547 14.634 14.2395 14.2359 14.5805 13.7252C14.9214 13.2144 15.1033 12.6141 15.103 12C15.1021 11.1774 14.775 10.3887 14.1933 9.807C13.6116 9.22533 12.8229 8.89818 12.0003 8.89734ZM12.0003 13.8947C11.6256 13.8947 11.2593 13.7836 10.9477 13.5754C10.6361 13.3672 10.3932 13.0713 10.2498 12.7251C10.1064 12.3788 10.0689 11.9979 10.142 11.6303C10.2151 11.2628 10.3956 10.9252 10.6605 10.6602C10.9255 10.3952 11.2631 10.2147 11.6307 10.1416C11.9982 10.0685 12.3792 10.1061 12.7254 10.2495C13.0716 10.3929 13.3675 10.6357 13.5757 10.9473C13.7839 11.2589 13.8951 11.6252 13.8951 12C13.8951 12.5025 13.6954 12.9844 13.3401 13.3398C12.9848 13.6951 12.5028 13.8947 12.0003 13.8947Z" fill="#0054A6"/>
<path d="M15.1219 9.66474C15.5457 9.66474 15.8892 9.32118 15.8892 8.89737C15.8892 8.47357 15.5457 8.13 15.1219 8.13C14.6981 8.13 14.3545 8.47357 14.3545 8.89737C14.3545 9.32118 14.6981 9.66474 15.1219 9.66474Z" fill="#0054A6"/>
</g>
<defs>
<clipPath id="clip0_15248_62011">
<rect width="24" height="24" fill="white"/>
</clipPath>
</defs>
</svg>
