<svg width="64" height="64" viewBox="0 0 64 64" fill="none" xmlns="http://www.w3.org/2000/svg">
<path d="M63.9984 10.9999V57.2999C63.9984 59.6999 61.9984 61.6999 59.5984 61.6999H8.79844C7.09844 61.6999 5.49844 60.6999 4.79844 59.0999C4.49844 58.4999 4.39844 57.8999 4.39844 57.2999V10.9999C4.39844 8.59985 6.39844 6.59985 8.79844 6.59985H59.5984C60.1984 6.59985 60.7984 6.69985 61.3984 6.99985C62.9984 7.69985 63.9984 9.29985 63.9984 10.9999Z" fill="#839299"/>
<path d="M61.7984 8.79985V55.0999C61.7984 57.4999 59.7984 59.4999 57.3984 59.4999H6.59844C5.99844 59.4999 5.39844 59.3999 4.79844 59.0999C4.49844 58.4999 4.39844 57.8999 4.39844 57.2999V10.9999C4.39844 8.59985 6.39844 6.59985 8.79844 6.59985H59.5984C60.1984 6.59985 60.7984 6.69985 61.3984 6.99985C61.6984 7.59985 61.7984 8.19985 61.7984 8.79985Z" fill="#5F737C"/>
<path d="M59.6 6.59995V11H0V6.59995C0 4.19995 2 2.19995 4.4 2.19995H55.2C57.6 2.19995 59.6 4.19995 59.6 6.59995Z" fill="#002548"/>
<path d="M59.6 11V53C59.6 55.4 57.6 57.4 55.2 57.4H4.4C2 57.4 0 55.4 0 53V11H59.6Z" fill="#D2D9DC"/>
<path d="M55.1984 18.7999V25.4C55.1984 26 54.6984 26.5 54.0984 26.5H45.2984C44.6984 26.5 44.1984 26 44.1984 25.4V24.2999L40.8984 22.1L44.1984 19.9V18.7999C44.1984 18.1999 44.6984 17.7 45.2984 17.7H54.0984C54.6984 17.7 55.1984 18.0999 55.1984 18.7999Z" fill="#0054A6"/>
<path d="M41.8969 34.1999H35.2969C35.2969 31.1999 32.7969 28.6999 29.7969 28.6999V22.0999C36.4969 22.0999 41.8969 27.4999 41.8969 34.1999Z" fill="#ED1C24"/>
<path d="M35.3031 34.2H41.9031C41.9031 40.9 36.5031 46.2999 29.8031 46.2999C26.6031 46.2999 23.5031 45 21.2031 42.7L25.9031 38C28.1031 40.2 31.6031 40.1 33.7031 38C34.7031 37.1 35.3031 35.7 35.3031 34.2Z" fill="#0054A6"/>
<path d="M29.7969 28.7C32.8969 28.7 35.2969 31.2 35.2969 34.2C35.2969 37.2 32.7969 39.7 29.7969 39.7C26.6969 39.7 24.2969 37.2 24.2969 34.2C24.2969 31.2 26.6969 28.7 29.7969 28.7Z" fill="#E6E7E8"/>
<path d="M22.3969 24.5999C24.4969 22.9999 27.0969 22.0999 29.7969 22.0999V28.6999C26.6969 28.6999 24.2969 31.1999 24.2969 34.1999C24.2969 35.6999 24.8969 37.0999 25.8969 38.0999L21.1969 42.7999C16.4969 38.0999 16.4969 30.3999 21.1969 25.5999C21.5969 25.2999 21.9969 24.8999 22.3969 24.5999Z" fill="#FFDD33"/>
<path d="M18.7984 48.5999L15.4984 50.7999V51.9C15.4984 52.5 14.9984 53 14.3984 53H5.49844C4.89844 53 4.39844 52.5 4.39844 51.9V45.2999C4.39844 44.6999 4.89844 44.2 5.49844 44.2H14.2984C14.8984 44.2 15.3984 44.6999 15.3984 45.2999V46.4L18.7984 48.5999Z" fill="#0054A6"/>
<path d="M23.5 27.3L19.4 23.2H16.5V21H19.8C20.1 21 20.4 21.1 20.6 21.3L25 25.7L23.5 27.3Z" fill="#839299"/>
<path d="M10.9984 21H13.1984C13.7984 21 14.2984 21.5 14.2984 22.1C14.2984 22.7 13.7984 23.2 13.1984 23.2H10.9984C10.3984 23.2 9.89844 22.7 9.89844 22.1C9.89844 21.5 10.3984 21 10.9984 21Z" fill="#839299"/>
<path d="M6.6 21C7.2 21 7.7 21.5 7.7 22.1C7.7 22.7 7.2 23.2 6.6 23.2C6 23.2 5.5 22.7 5.5 22.1C5.5 21.5 6 21 6.6 21Z" fill="#839299"/>
<path d="M6.6 25.3999H13.2C13.8 25.3999 14.3 25.8999 14.3 26.4999C14.3 27.0999 13.8 27.5999 13.2 27.5999H6.6C6 27.5999 5.5 27.0999 5.5 26.4999C5.5 25.8999 6 25.3999 6.6 25.3999Z" fill="#839299"/>
<path d="M4.39688 5.5C4.99688 5.5 5.49688 6 5.49688 6.6C5.49688 7.2 4.99688 7.7 4.39688 7.7C3.79688 7.7 3.29688 7.2 3.29688 6.6C3.29687 6 3.79688 5.5 4.39688 5.5Z" fill="#ED1C24"/>
<path d="M8.80313 5.5C9.40313 5.5 9.90312 6 9.90312 6.6C9.90312 7.2 9.40313 7.7 8.80313 7.7C8.20313 7.7 7.70313 7.2 7.70313 6.6C7.70312 6 8.20313 5.5 8.80313 5.5Z" fill="#FFDD33"/>
<path d="M13.2016 5.5C13.8016 5.5 14.3016 6 14.3016 6.6C14.3016 7.2 13.8016 7.7 13.2016 7.7C12.6016 7.7 12.1016 7.2 12.1016 6.6C12.1016 6 12.6016 5.5 13.2016 5.5Z" fill="#54CC5A"/>
</svg>
