<svg width="393" height="396" viewBox="0 0 393 396" fill="none" xmlns="http://www.w3.org/2000/svg">
<path d="M63.1984 112.9H37.0984C31.4984 112.9 26.8984 108.4 26.8984 102.7V76.7C26.8984 71.1 31.3984 66.5 37.0984 66.5H63.1984C68.7984 66.5 73.3984 71 73.3984 76.7V102.8C73.3984 108.4 68.7984 112.9 63.1984 112.9Z" fill="#54CC5A"/>
<path d="M39.3984 101L41.0984 94.7C40.0984 93 39.5984 91 39.5984 89.1C39.5984 82.7 44.7984 77.5 51.1984 77.5C57.5984 77.5 62.7984 82.7 62.7984 89.1C62.7984 95.5 57.5984 100.7 51.1984 100.7C49.2984 100.7 47.3984 100.2 45.6984 99.3L39.3984 101ZM45.9984 96.9L46.3984 97.1C47.8984 98 49.4984 98.4 51.1984 98.4C56.3984 98.4 60.5984 94.2 60.5984 89C60.5984 83.8 56.3984 79.6 51.1984 79.6C45.9984 79.6 41.7984 83.8 41.7984 89C41.7984 90.7 42.2984 92.4 43.1984 93.9L43.3984 94.3L42.4984 97.8L45.9984 96.9Z" fill="#F9FAFB"/>
<path fill-rule="evenodd" clip-rule="evenodd" d="M55.4 90.7004C54.9 90.4004 54.3 90.1004 53.7 90.3004C53.3 90.5004 53 91.2004 52.7 91.5004C52.6 91.7004 52.4 91.7004 52.2 91.6004C50.6 91.0004 49.3 89.9004 48.4 88.4004C48.2 88.2004 48.3 88.0004 48.5 87.8004C48.8 87.5004 49.1 87.1004 49.2 86.7004C49.3 86.3004 49.1 85.8004 48.9 85.4004C48.7 84.9004 48.4 84.2004 47.9 83.9004C47.4 83.6004 46.9 83.8004 46.5 84.1004C45.8 84.7004 45.5 85.5004 45.5 86.4004C45.5 86.6004 45.5 86.9004 45.6 87.1004C45.7 87.7004 46 88.2004 46.3 88.7004C46.5 89.1004 46.8 89.5004 47 89.8004C47.9 91.0004 49 92.0004 50.2 92.8004C50.8 93.2004 51.5 93.5004 52.2 93.8004C53 94.1004 53.7 94.3004 54.5 94.2004C55.4 94.0004 56.3 93.5004 56.6 92.6004C56.7 92.3004 56.8 92.1004 56.7 91.8004C56.6 91.3004 55.9 91.0004 55.4 90.7004Z" fill="#F9FAFB"/>
<path d="M156.999 333.3H128.799C123.499 333.3 119.199 329 119.199 323.7V295.5C119.199 290.2 123.499 285.9 128.799 285.9H156.999C162.299 285.9 166.599 290.2 166.599 295.5V323.7C166.699 329 162.399 333.3 156.999 333.3Z" fill="#D2D9DC"/>
<path d="M132.5 321.101C132.2 321.101 132 321.001 131.8 320.801C131.4 320.401 131.4 319.701 131.8 319.301L137.4 313.701C134.4 309.901 134.7 304.301 138.1 300.901C139.9 299.101 142.3 298.101 144.9 298.101C147.5 298.101 149.9 299.101 151.7 300.901C155.5 304.701 155.5 310.801 151.7 314.501C149.9 316.301 147.5 317.301 144.9 317.301C142.7 317.301 140.6 316.601 138.9 315.201L133.3 320.801C133 321.001 132.7 321.101 132.5 321.101ZM144.9 300.101C142.9 300.101 141 300.901 139.6 302.301C138.2 303.701 137.4 305.601 137.4 307.601C137.4 309.601 138.2 311.501 139.6 312.901C141 314.301 142.9 315.101 144.9 315.101C146.9 315.101 148.8 314.301 150.2 312.901C151.6 311.501 152.4 309.601 152.4 307.601C152.4 305.601 151.6 303.701 150.2 302.301C148.8 300.901 146.9 300.101 144.9 300.101Z" fill="white"/>
<path d="M352.397 122.4H328.197C322.497 122.4 317.797 117.8 317.797 112V87.8004C317.797 82.1004 322.397 77.4004 328.197 77.4004H352.397C358.097 77.4004 362.797 82.0004 362.797 87.8004V112C362.797 117.8 358.097 122.4 352.397 122.4Z" fill="#ED1C24"/>
<path d="M342.097 107.7C342.097 108.7 341.197 109.6 340.197 109.6C339.197 109.6 338.297 108.7 338.297 107.7C338.297 106.7 339.197 105.8 340.197 105.8C341.297 105.8 342.097 106.7 342.097 107.7Z" fill="white"/>
<path d="M336.399 105.301C338.499 103.101 341.899 103.001 343.999 105.201C344.999 106.201 346.499 104.701 345.499 103.701C342.599 100.701 337.799 100.801 334.899 103.801C333.999 104.801 335.499 106.301 336.399 105.301Z" fill="white"/>
<path d="M329.998 96.4998C332.898 93.9998 336.298 92.3998 340.198 92.3998C343.998 92.3998 347.798 93.6998 350.598 96.3998C351.598 97.2998 353.098 95.7998 352.098 94.8998C348.898 91.8998 344.598 90.2998 340.198 90.2998C335.798 90.2998 331.798 92.0998 328.498 94.9998C327.498 95.8998 328.998 97.3998 329.998 96.4998Z" fill="white"/>
<path d="M332.5 101.4C334.4 99.3 337.1 98 340 97.9C342.9 97.8 345.8 99 347.8 101.1C348.8 102.1 350.3 100.6 349.3 99.6C346.9 97.1 343.5 95.6 340 95.7C336.6 95.8 333.3 97.3 331 99.8C330.1 100.9 331.6 102.4 332.5 101.4Z" fill="white"/>
<path d="M280.499 273.601C280.599 273.601 280.799 278.601 280.799 284.901C280.799 291.101 280.699 296.201 280.499 296.201C280.399 296.201 280.199 291.201 280.199 284.901C280.199 278.701 280.299 273.601 280.499 273.601Z" fill="#2D2F31"/>
<path d="M195.8 153.5C195.7 153.5 195.5 145.1 195.5 134.7C195.5 124.3 195.6 115.9 195.8 115.9C195.9 115.9 196.1 124.3 196.1 134.7C196 145.1 195.9 153.5 195.8 153.5Z" fill="#2D2F31"/>
<path d="M166.797 198C166.797 198 166.597 198 166.097 198.1C165.597 198.1 164.897 198.1 164.097 198.1C162.297 198.1 159.797 198.1 156.797 198.2C150.597 198.2 142.097 198.2 132.697 198.3C131.497 198.3 130.397 198.3 129.197 198.3C128.597 198.3 128.097 198.3 127.497 198.2C126.897 198.1 126.297 198 125.797 197.7C123.697 196.8 122.297 194.8 121.697 192.8C121.397 191.8 121.297 190.8 121.297 189.8C121.297 188.8 121.297 187.9 121.297 187C121.297 185.2 121.297 183.5 121.397 182C121.497 179 121.497 176.5 121.497 174.7C121.497 173.9 121.497 173.2 121.597 172.7C121.597 172.2 121.597 172 121.697 172C121.697 172 121.697 172.2 121.697 172.7C121.697 173.2 121.697 173.9 121.697 174.7C121.697 176.5 121.697 179 121.697 182C121.697 183.5 121.697 185.2 121.697 187C121.697 188.8 121.497 190.8 122.097 192.7C122.697 194.6 123.997 196.4 125.997 197.3C126.497 197.5 126.997 197.7 127.497 197.7C127.997 197.8 128.597 197.8 129.197 197.8C130.297 197.8 131.497 197.8 132.697 197.8C142.097 197.8 150.597 197.9 156.797 197.9C159.797 197.9 162.297 198 164.097 198C164.897 198 165.597 198 166.097 198C166.497 197.9 166.797 197.9 166.797 198Z" fill="#2D2F31"/>
<path d="M214.1 115.7H173.9C168.2 115.7 163.5 111.1 163.5 105.3V65.1998C163.5 59.4998 168.1 54.7998 173.9 54.7998H214.1C219.8 54.7998 224.5 59.3998 224.5 65.1998V105.4C224.5 111.1 219.8 115.7 214.1 115.7Z" fill="#ED1C24"/>
<path d="M289.397 136.7H249.197C243.497 136.7 238.797 132.1 238.797 126.3V86.1002C238.797 80.4002 243.397 75.7002 249.197 75.7002H289.397C295.097 75.7002 299.797 80.3002 299.797 86.1002V126.3C299.697 132 295.097 136.7 289.397 136.7Z" fill="#0054A6"/>
<path d="M355.6 210.3H315.4C309.7 210.3 305 205.7 305 199.9V159.7C305 154 309.6 149.3 315.4 149.3H355.6C361.3 149.3 366 153.9 366 159.7V199.9C366 205.6 361.4 210.3 355.6 210.3Z" fill="#54CC5A"/>
<path d="M130.897 167.101H90.6969C84.9969 167.101 80.2969 162.501 80.2969 156.701V116.501C80.2969 110.801 84.8969 106.101 90.6969 106.101H130.897C136.597 106.101 141.297 110.701 141.297 116.501V156.701C141.297 162.501 136.697 167.101 130.897 167.101Z" fill="#0054A6"/>
<path d="M306.5 181C306.5 181.1 299.6 181.3 291 181.3C282.5 181.3 275.5 181.2 275.5 181C275.5 180.8 282.4 180.7 291 180.7C299.6 180.8 306.5 180.9 306.5 181Z" fill="#2D2F31"/>
<path d="M97.7977 148.8H90.0977V154.7H97.7977V148.8Z" fill="#FFDD33"/>
<path d="M107.497 135.2H99.7969V154.7H107.497V135.2Z" fill="#FFDD33"/>
<path d="M118.2 143.601H110.5V154.701H118.2V143.601Z" fill="#FFDD33"/>
<path d="M128.399 129.601H120.699V154.701H128.399V129.601Z" fill="#FFDD33"/>
<path d="M93.3977 142.701C91.2977 142.701 89.5977 141.001 89.5977 138.901C89.5977 136.801 91.2977 135.101 93.3977 135.101C95.4977 135.101 97.1977 136.801 97.1977 138.901C97.1977 141.001 95.4977 142.701 93.3977 142.701ZM93.3977 136.101C91.7977 136.101 90.5977 137.401 90.5977 138.901C90.5977 140.501 91.8977 141.701 93.3977 141.701C94.9977 141.701 96.1977 140.401 96.1977 138.901C96.1977 137.401 94.9977 136.101 93.3977 136.101Z" fill="#FFDD33"/>
<path d="M104.398 128.201C102.298 128.201 100.598 126.501 100.598 124.401C100.598 122.301 102.298 120.601 104.398 120.601C106.498 120.601 108.198 122.301 108.198 124.401C108.198 126.501 106.498 128.201 104.398 128.201ZM104.398 121.501C102.798 121.501 101.598 122.801 101.598 124.301C101.598 125.901 102.898 127.101 104.398 127.101C105.998 127.101 107.198 125.801 107.198 124.301C107.198 122.801 105.998 121.501 104.398 121.501Z" fill="#FFDD33"/>
<path d="M114.398 137.4C112.298 137.4 110.598 135.7 110.598 133.6C110.598 131.5 112.298 129.8 114.398 129.8C116.498 129.8 118.198 131.5 118.198 133.6C118.198 135.7 116.498 137.4 114.398 137.4ZM114.398 130.7C112.798 130.7 111.598 132 111.598 133.5C111.598 135 112.898 136.3 114.398 136.3C115.998 136.3 117.198 135 117.198 133.5C117.198 132 115.898 130.7 114.398 130.7Z" fill="#FFDD33"/>
<path d="M124.999 124C122.899 124 121.199 122.3 121.199 120.2C121.199 118.1 122.899 116.4 124.999 116.4C127.099 116.4 128.799 118.1 128.799 120.2C128.799 122.3 127.099 124 124.999 124ZM124.999 117.4C123.399 117.4 122.199 118.7 122.199 120.2C122.199 121.8 123.499 123 124.999 123C126.599 123 127.799 121.7 127.799 120.2C127.799 118.6 126.499 117.4 124.999 117.4Z" fill="#FFDD33"/>
<path d="M122.285 122.336L116.133 131.09L116.951 131.665L123.103 122.911L122.285 122.336Z" fill="#FFDD33"/>
<path d="M107.332 126.701L106.609 127.393L111.31 132.307L112.032 131.616L107.332 126.701Z" fill="#FFDD33"/>
<path d="M101.82 126.887L94.8906 135.812L95.6805 136.426L102.61 127.5L101.82 126.887Z" fill="#FFDD33"/>
<path d="M125.597 167.901C125.597 169.501 124.297 170.801 122.697 170.801C121.097 170.801 119.797 169.501 119.797 167.901C119.797 166.301 121.097 165.001 122.697 165.001C124.297 164.901 125.597 166.201 125.597 167.901Z" fill="#2D2F31"/>
<path d="M198.597 115.7C198.597 117.3 197.297 118.6 195.697 118.6C194.097 118.6 192.797 117.3 192.797 115.7C192.797 114.1 194.097 112.8 195.697 112.8C197.297 112.8 198.597 114.1 198.597 115.7Z" fill="#2D2F31"/>
<path d="M307.8 181.001C307.8 182.601 306.5 183.901 304.9 183.901C303.3 183.901 302 182.601 302 181.001C302 179.401 303.3 178.101 304.9 178.101C306.5 178.101 307.8 179.401 307.8 181.001Z" fill="#2D2F31"/>
<path d="M272.898 137.1C272.898 138.7 271.598 140 269.998 140C268.398 140 267.098 138.7 267.098 137.1C267.098 135.5 268.398 134.2 269.998 134.2C271.598 134.2 272.898 135.5 272.898 137.1Z" fill="#2D2F31"/>
<path d="M134.397 89.7002H115.697C109.997 89.7002 105.297 85.1002 105.297 79.3002V60.6002C105.297 54.9002 109.897 50.2002 115.697 50.2002H134.397C140.097 50.2002 144.797 54.8002 144.797 60.6002V79.3002C144.697 85.1002 140.097 89.7002 134.397 89.7002Z" fill="#0054A6"/>
<path d="M126.697 69.8004C128.397 69.1004 129.597 67.4004 129.597 65.3004C129.597 62.6004 127.597 60.4004 125.097 60.4004C122.597 60.4004 120.497 62.6004 120.497 65.2004C120.497 67.3004 121.697 69.0004 123.397 69.7004C116.397 70.8004 116.697 78.4004 116.697 78.4004L133.297 78.5004C133.297 78.5004 133.597 70.8004 126.697 69.8004Z" fill="#F9FAFB"/>
<path d="M343.698 273.601H319.498C313.798 273.601 309.098 269.001 309.098 263.201V239.001C309.098 233.301 313.698 228.601 319.498 228.601H343.698C349.398 228.601 354.098 233.201 354.098 239.001V263.201C354.098 269.001 349.498 273.601 343.698 273.601Z" fill="#0054A6"/>
<path d="M138.397 263.5H114.197C108.497 263.5 103.797 258.9 103.797 253.1V228.9C103.797 223.2 108.397 218.5 114.197 218.5H138.397C144.097 218.5 148.797 223.1 148.797 228.9V253.1C148.797 258.9 144.097 263.5 138.397 263.5Z" fill="#0054A6"/>
<path d="M128.2 240.8C130.1 240 131.5 238 131.5 235.7C131.5 232.6 129.2 230.2 126.3 230.2C123.4 230.2 121.1 232.7 121.1 235.7C121.1 238.1 122.5 240.1 124.4 240.9C116.4 242.1 116.8 250.8 116.8 250.8L135.7 250.9C135.7 250.8 136.1 242 128.2 240.8Z" fill="#F9FAFB"/>
<path d="M191.699 93.1004C190.599 93.1004 189.399 92.9004 188.299 92.6004C182.499 90.7004 179.299 84.4004 181.099 78.6004C182.999 72.8004 189.299 69.6004 195.099 71.4004C197.899 72.3004 200.199 74.3004 201.599 76.9004C202.999 79.5004 203.199 82.6004 202.299 85.4004C200.799 90.1004 196.399 93.1004 191.699 93.1004ZM191.699 72.8004C187.899 72.8004 184.299 75.3004 182.999 79.1004C181.499 83.9004 184.099 89.0004 188.899 90.6004C193.699 92.1004 198.799 89.5004 200.399 84.7004C201.899 79.9004 199.299 74.8004 194.499 73.2004C193.599 73.0004 192.699 72.8004 191.699 72.8004Z" fill="#F9FAFB"/>
<path d="M206.399 99.6998C206.099 99.6998 205.899 99.5998 205.699 99.3998L197.399 90.3998C196.999 89.9998 197.099 89.3998 197.499 88.9998C197.899 88.5998 198.499 88.6998 198.899 89.0998L207.199 98.0998C207.599 98.4998 207.499 99.0998 207.099 99.4998C206.899 99.5998 206.699 99.6998 206.399 99.6998Z" fill="#F9FAFB"/>
<path d="M336.297 198.3C326.097 198.3 317.797 190 317.797 179.8C317.797 169.6 326.097 161.3 336.297 161.3C346.497 161.3 354.797 169.6 354.797 179.8C354.897 190 346.597 198.3 336.297 198.3ZM336.297 162.2C326.597 162.2 318.797 170.1 318.797 179.7C318.797 189.4 326.697 197.2 336.297 197.2C345.897 197.2 353.797 189.3 353.797 179.7C353.897 170.1 345.997 162.2 336.297 162.2Z" fill="#F9FAFB"/>
<path d="M335.796 198.2C335.696 198.1 333.396 196.8 330.996 193.8C328.896 191 326.396 186.3 326.696 179.3C326.996 172.3 329.596 167.8 331.796 165.2C334.196 162.4 336.496 161.2 336.596 161.2L336.996 162.1C336.896 162.1 328.196 166.6 327.696 179.3C327.196 192 336.196 197.2 336.296 197.2L335.796 198.2Z" fill="#F9FAFB"/>
<path d="M336.6 198.2L336.1 197.3C336.2 197.2 344.9 191.7 344.4 179C343.9 166.3 335.6 162.2 335.5 162.1L335.9 161.2C336.3 161.4 344.9 165.6 345.4 178.9C345.9 192.4 336.7 198.2 336.6 198.2Z" fill="#F9FAFB"/>
<path d="M336.6 173.9C329.1 173.9 324.3 171.4 321.5 169.2L322.1 168.4C324.7 170.4 329.3 172.9 336.6 172.9C343.6 172.9 348 170.5 350.5 168.4L351.1 169.2C348.5 171.3 343.9 173.9 336.6 173.9Z" fill="#F9FAFB"/>
<path d="M350.5 190.6C347.9 188.6 343.3 186.3 336 186.3C329 186.3 324.6 188.6 322.1 190.6L321.5 189.8C324.1 187.7 328.8 185.3 336 185.3C343.5 185.3 348.3 187.8 351.1 189.8L350.5 190.6Z" fill="#F9FAFB"/>
<path d="M354.397 179.3H318.797V180.3H354.397V179.3Z" fill="#F9FAFB"/>
<path d="M276.998 320.4H251.598V345.8H276.998V320.4Z" fill="#D2D9DC"/>
<path d="M309.498 322H283.398V324.2H309.498V322Z" fill="#D2D9DC"/>
<path d="M309.498 327H283.398V329.2H309.498V327Z" fill="#D2D9DC"/>
<path d="M309.498 332H283.398V334.2H309.498V332Z" fill="#D2D9DC"/>
<path d="M309.498 337H283.398V339.2H309.498V337Z" fill="#D2D9DC"/>
<path d="M309.498 342H283.398V344.2H309.498V342Z" fill="#D2D9DC"/>
<path d="M314.2 313.5H245V303.5C245 299.7 248.1 296.5 252 296.5H307.3C311.2 296.5 314.4 299.7 314.4 303.6V313.5H314.2Z" fill="#D2D9DC"/>
<path d="M283.398 296.6C283.398 298.2 282.098 299.5 280.498 299.5C278.898 299.5 277.598 298.2 277.598 296.6C277.598 295 278.898 293.7 280.498 293.7C282.098 293.7 283.398 295 283.398 296.6Z" fill="#2D2F31"/>
<path d="M320.598 258.901C322.898 260.301 325.498 261.201 328.398 261.201C337.898 261.201 343.198 253.201 342.898 246.101C343.898 245.401 344.798 244.501 345.398 243.501C344.498 243.901 343.498 244.201 342.498 244.301C343.598 243.701 344.398 242.701 344.698 241.501C343.698 242.101 342.598 242.501 341.498 242.701C340.598 241.701 339.198 241.101 337.798 241.101C334.498 241.101 332.098 244.201 332.798 247.401C328.598 247.201 324.798 245.201 322.298 242.101C320.998 244.401 321.598 247.401 323.898 248.901C323.098 248.901 322.298 248.601 321.598 248.301C321.498 250.701 323.198 252.901 325.698 253.401C324.998 253.601 324.198 253.601 323.398 253.501C323.998 255.501 325.898 257.001 328.198 257.001C325.998 258.501 323.298 259.201 320.598 258.901Z" fill="#F9FAFB"/>
<path d="M292.299 108.601C293.799 114.001 290.299 119.201 284.899 119.201H255.999C251.299 119.201 247.699 114.701 248.999 110.101C249.099 109.901 249.199 109.601 249.199 109.401C250.499 106.201 254.199 104.201 257.499 104.901C258.299 99.0005 263.299 94.1005 269.099 93.4005C274.899 92.8005 280.899 96.5005 282.899 102.101C282.899 102.101 290.299 101.701 292.299 108.601Z" fill="#F9FAFB"/>
<path d="M267.9 124.3V113.2H263.6C263.1 113.2 262.8 112.6 263.1 112.2L270.2 102.1C270.4 101.7 271 101.7 271.2 102.1L278.3 112.1C278.6 112.5 278.3 113.1 277.8 113.1H273.6V124.3H267.9Z" fill="#54CC5A"/>
<path d="M293.697 271.2L280.597 225.3H166.497L151.597 271C150.697 273.8 152.697 276.6 155.597 276.6H207.697L209.797 274.5H234.397L236.497 276.6H289.497C292.397 276.6 294.397 273.9 293.697 271.2Z" fill="#E1E1E1"/>
<path d="M293.697 271.2L280.597 225.3H166.497L151.597 271C150.697 273.8 152.697 276.6 155.597 276.6H207.697L209.797 274.5H234.397L236.497 276.6H289.497C292.397 276.6 294.397 273.9 293.697 271.2Z" fill="#5F737C"/>
<path d="M166.5 224V156.6C166.5 153.9 168.7 151.8 171.3 151.8H276.1C278.8 151.8 280.9 154 280.9 156.6V224H166.5Z" fill="#D2D9DC"/>
<path d="M273.998 158.5H173.398V218.4H273.998V158.5Z" fill="white"/>
<path d="M273.999 218.4C273.999 218.4 273.999 218 273.999 217.3C273.999 216.6 273.999 215.5 273.999 214.2C273.999 211.4 273.999 207.4 273.899 202.2C273.899 191.8 273.799 176.8 273.799 158.5L273.999 158.7C246.899 158.7 211.699 158.7 173.399 158.8L173.699 158.5C173.699 179.7 173.699 200 173.699 218.4L173.499 218.2C202.999 218.2 228.099 218.3 245.899 218.3C254.799 218.3 261.799 218.4 266.699 218.4C269.099 218.4 270.999 218.4 272.199 218.4C272.799 218.4 273.299 218.4 273.599 218.4C273.799 218.4 273.999 218.4 273.999 218.4C273.999 218.4 273.799 218.4 273.499 218.4C273.199 218.4 272.699 218.4 272.099 218.4C270.799 218.4 268.999 218.4 266.599 218.4C261.799 218.4 254.699 218.4 245.899 218.5C228.099 218.5 202.899 218.6 173.399 218.6H173.199V218.4C173.199 200 173.199 179.7 173.199 158.5V158.2H173.499C211.799 158.2 246.999 158.2 274.099 158.3H274.299V158.5C274.299 176.9 274.199 191.9 274.199 202.3C274.199 207.5 274.199 211.5 274.099 214.3C274.099 215.7 274.099 216.7 274.099 217.4C273.999 218.1 273.999 218.4 273.999 218.4Z" fill="#5F737C"/>
<path d="M225.499 155.3C225.499 156.3 224.699 157.1 223.599 157.1C222.599 157.1 221.699 156.3 221.699 155.3C221.699 154.3 222.499 153.5 223.599 153.5C224.699 153.5 225.499 154.3 225.499 155.3Z" fill="#5F737C"/>
<path d="M293.697 269.501L280.597 223.601H166.497L151.597 269.401C150.697 272.201 152.697 275.001 155.597 275.001H207.697L209.797 272.901H234.397L236.497 275.001H289.497C292.397 274.901 294.397 272.201 293.697 269.501Z" fill="#839299"/>
<path d="M272.499 226.5L173.099 226.2C172.099 226.2 171.099 226.8 170.899 227.6L162.899 250.2C162.499 251.4 163.599 252.7 165.099 252.7H280.199C281.699 252.7 282.899 251.5 282.399 250.3L274.699 228C274.499 227 273.499 226.5 272.499 226.5Z" fill="#D2D9DC"/>
<path d="M241.599 269.9H202.399C200.799 269.9 199.599 268.2 199.999 266.5L202.199 257.2C202.499 256 203.499 255.2 204.599 255.2H239.699C240.799 255.2 241.799 256.1 242.099 257.3L244.099 266.6C244.399 268.2 243.199 269.9 241.599 269.9Z" fill="#5F737C"/>
<path d="M241.5 233.6L240.5 228.9C240.4 228.6 240.1 228.3 239.8 228.3H233.7C233.3 228.3 232.9 228.7 233 229.1L233.7 233.8C233.7 234.1 234 234.4 234.4 234.4H240.9C241.3 234.5 241.6 234.1 241.5 233.6Z" fill="#5F737C"/>
<path d="M222.998 233.7L222.598 228.9C222.598 228.5 222.298 228.3 221.898 228.3H215.598C215.198 228.3 214.898 228.6 214.898 229L215.098 233.8C215.098 234.2 215.398 234.5 215.798 234.5H222.298C222.798 234.5 223.098 234.1 222.998 233.7Z" fill="#5F737C"/>
<path d="M232.8 233.7L232.1 229C232.1 228.7 231.8 228.4 231.4 228.4H224.2C223.8 228.4 223.5 228.8 223.5 229.2L223.9 234C223.9 234.4 224.2 234.6 224.6 234.6H232C232.5 234.5 232.8 234.1 232.8 233.7Z" fill="#5F737C"/>
<path d="M187.097 233.8L188.097 229.5C188.197 228.9 187.797 228.3 187.197 228.3H181.297C180.897 228.3 180.497 228.6 180.397 229L179.197 233.3C178.997 233.9 179.497 234.5 180.097 234.5H186.297C186.597 234.6 186.997 234.2 187.097 233.8Z" fill="#5F737C"/>
<path d="M273.499 233.5L271.699 228.8C271.599 228.5 271.299 228.3 270.999 228.3H259.399C258.899 228.3 258.599 228.8 258.699 229.3L260.499 234C260.599 234.3 260.899 234.5 261.199 234.5H272.899C273.299 234.4 273.699 233.9 273.499 233.5Z" fill="#5F737C"/>
<path d="M213.399 228.3H206.599C206.199 228.3 205.899 228.6 205.899 229L205.699 233.8C205.699 234.2 205.999 234.5 206.399 234.5H213.599C213.999 234.5 214.299 234.2 214.299 233.8L214.099 229C214.099 228.6 213.799 228.3 213.399 228.3Z" fill="#5F737C"/>
<path d="M178.298 228.3H173.598C173.198 228.3 172.798 228.6 172.698 228.9L171.098 233.2C170.898 233.8 171.298 234.5 171.998 234.5H176.998C177.398 234.5 177.798 234.2 177.898 233.8L179.098 229.5C179.398 228.9 178.998 228.3 178.298 228.3Z" fill="#5F737C"/>
<path d="M195.9 233.9L196.5 229.1C196.6 228.7 196.2 228.3 195.8 228.3H189.8C189.5 228.3 189.2 228.5 189.1 228.9L188 233.7C187.9 234.1 188.2 234.6 188.7 234.6H195.2C195.5 234.5 195.8 234.3 195.9 233.9Z" fill="#5F737C"/>
<path d="M197.397 228.9L196.797 233.7C196.697 234.1 197.097 234.5 197.497 234.5H204.197C204.597 234.5 204.897 234.2 204.897 233.8L205.097 229C205.097 228.6 204.797 228.3 204.397 228.3H198.097C197.697 228.3 197.397 228.6 197.397 228.9Z" fill="#5F737C"/>
<path d="M250.698 233.6L249.298 228.9C249.198 228.6 248.898 228.4 248.598 228.4H242.098C241.698 228.4 241.298 228.8 241.398 229.3L242.398 234C242.498 234.3 242.798 234.6 243.098 234.6H249.998C250.498 234.5 250.798 234 250.698 233.6Z" fill="#5F737C"/>
<path d="M259.399 233.5L257.599 228.8C257.499 228.5 257.199 228.3 256.899 228.3H250.899C250.399 228.3 250.099 228.8 250.199 229.2L251.599 233.9C251.699 234.2 251.999 234.4 252.299 234.4H258.599C259.199 234.5 259.599 234 259.399 233.5Z" fill="#5F737C"/>
<path d="M213.698 235.601H206.298C205.898 235.601 205.598 235.901 205.598 236.301L205.398 241.201C205.398 241.601 205.698 241.901 206.098 241.901H213.898C214.298 241.901 214.598 241.601 214.598 241.201L214.398 236.301C214.298 235.901 213.998 235.601 213.698 235.601Z" fill="#5F737C"/>
<path d="M262.098 240.9L260.298 236C260.198 235.7 259.898 235.5 259.598 235.5H253.098C252.598 235.5 252.298 236 252.398 236.4L253.798 241.3C253.898 241.6 254.198 241.8 254.498 241.8H261.398C261.998 241.9 262.298 241.4 262.098 240.9Z" fill="#5F737C"/>
<path d="M252.9 241.001L251.5 236.101C251.4 235.801 251.1 235.601 250.8 235.601H243.7C243.3 235.601 242.9 236.001 243 236.501L244.1 241.401C244.2 241.701 244.5 242.001 244.8 242.001H252.3C252.7 241.901 253 241.401 252.9 241.001Z" fill="#5F737C"/>
<path d="M196.497 241.901H203.797C204.197 241.901 204.497 241.601 204.497 241.201L204.696 236.301C204.696 235.901 204.397 235.601 203.997 235.601H197.097C196.697 235.601 196.396 235.901 196.396 236.201L195.797 241.101C195.697 241.601 195.997 241.901 196.497 241.901Z" fill="#5F737C"/>
<path d="M216.099 241.901H222.999C223.399 241.901 223.699 241.501 223.699 241.101L223.299 236.201C223.299 235.801 222.999 235.601 222.599 235.601H215.899C215.499 235.601 215.199 235.901 215.199 236.301L215.399 241.201C215.399 241.601 215.699 241.901 216.099 241.901Z" fill="#5F737C"/>
<path d="M224.098 236.401L224.498 241.301C224.498 241.701 224.798 241.901 225.198 241.901H232.998C233.398 241.901 233.798 241.501 233.698 241.101L232.998 236.201C232.998 235.901 232.698 235.601 232.298 235.601H224.698C224.398 235.601 224.098 235.901 224.098 236.401Z" fill="#5F737C"/>
<path d="M243.098 241L241.998 236.1C241.898 235.8 241.598 235.5 241.298 235.5H234.598C234.198 235.5 233.798 235.9 233.898 236.3L234.598 241.2C234.598 241.5 234.898 241.8 235.298 241.8H242.298C242.898 241.9 243.198 241.5 243.098 241Z" fill="#5F737C"/>
<path d="M185.798 235.601H171.098C170.798 235.601 170.498 235.801 170.398 236.101L168.498 241.101C168.298 241.601 168.698 242.101 169.198 242.101H184.798C185.098 242.101 185.398 241.901 185.498 241.501L186.598 236.501C186.598 236.001 186.298 235.601 185.798 235.601Z" fill="#5F737C"/>
<path d="M186.997 242H194.197C194.597 242 194.897 241.7 194.897 241.4L195.497 236.5C195.597 236.1 195.197 235.7 194.797 235.7H188.097C187.797 235.7 187.497 235.9 187.397 236.3L186.297 241.3C186.197 241.5 186.597 242 186.997 242Z" fill="#5F737C"/>
<path d="M270.899 241.801H275.499C275.999 241.801 276.299 241.301 276.199 240.801L274.299 236.001C274.199 235.701 273.899 235.601 273.599 235.601H269.399C268.899 235.601 268.599 236.101 268.699 236.501L270.299 241.301C270.399 241.701 270.599 241.801 270.899 241.801Z" fill="#5F737C"/>
<path d="M269.197 240.901L267.597 236.101C267.497 235.801 267.197 235.601 266.897 235.601H261.997C261.497 235.601 261.197 236.101 261.297 236.601L263.097 241.401C263.197 241.701 263.497 241.901 263.797 241.901H268.497C268.997 241.901 269.397 241.401 269.197 240.901Z" fill="#5F737C"/>
<path d="M195.798 250.3H202.998C203.598 250.3 203.998 249.9 204.098 249.3L204.298 244.1C204.298 243.5 203.798 243 203.198 243H196.398C195.898 243 195.398 243.4 195.298 243.9L194.598 249C194.598 249.7 195.098 250.3 195.798 250.3Z" fill="#5F737C"/>
<path d="M276.5 243H265.4C264.7 243 264.1 243.7 264.4 244.4L266.4 249.7C266.6 250.1 267 250.4 267.4 250.4H278.6C279.3 250.4 279.9 249.6 279.6 249L277.5 243.7C277.3 243.3 276.9 243 276.5 243Z" fill="#5F737C"/>
<path d="M185.699 243.8L184.599 248.9C184.499 249.6 184.999 250.2 185.599 250.2H192.799C193.299 250.2 193.799 249.8 193.899 249.3L194.599 244.2C194.699 243.6 194.199 243 193.499 243H186.799C186.299 243 185.799 243.3 185.699 243.8Z" fill="#5F737C"/>
<path d="M175.998 243.801L174.498 249.101C174.298 249.701 174.798 250.301 175.398 250.301H182.698C183.098 250.301 183.498 250.001 183.598 249.601L184.798 244.201C184.898 243.601 184.498 243.101 183.898 243.101L176.898 243.201C176.498 243.101 176.098 243.401 175.998 243.801Z" fill="#5F737C"/>
<path d="M244.697 244.3L245.797 249.5C245.897 250 246.297 250.3 246.797 250.3H254.197C254.897 250.3 255.397 249.6 255.197 248.9L253.597 243.7C253.497 243.2 253.097 242.9 252.597 242.9H245.597C244.997 243 244.497 243.6 244.697 244.3Z" fill="#5F737C"/>
<path d="M205.2 244L205 249.2C205 249.8 205.5 250.3 206.1 250.3L243.9 250.4C244.6 250.4 245.1 249.8 244.9 249.1L243.8 243.9C243.7 243.4 243.3 243.1 242.8 243.1H206.4C205.7 243 205.2 243.4 205.2 244Z" fill="#5F737C"/>
<path d="M167.697 243.5L165.697 249C165.497 249.5 165.897 250.1 166.497 250.1H172.597C172.997 250.1 173.297 249.9 173.397 249.5L174.997 244C175.197 243.5 174.697 242.9 174.197 242.9H168.497C168.197 243 167.897 243.2 167.697 243.5Z" fill="#5F737C"/>
<path d="M254.798 244.4L256.398 249.6C256.498 250.1 256.898 250.4 257.398 250.4H264.198C264.898 250.4 265.498 249.7 265.198 249L263.198 243.8C262.998 243.4 262.598 243.1 262.198 243.1H255.798C255.098 243 254.598 243.7 254.798 244.4Z" fill="#5F737C"/>
<path d="M280.997 223.7C280.997 223.8 255.397 224 223.897 224C192.297 224 166.797 223.9 166.797 223.7C166.797 223.5 192.397 223.4 223.897 223.4C255.397 223.4 280.997 223.6 280.997 223.7Z" fill="#5F737C"/>
<path d="M201.598 175.7C202.698 174.8 203.798 174.1 204.998 173.5L205.198 169.7L211.398 168.7L212.798 172.2C214.098 172.3 215.498 172.6 216.798 173.1L219.598 170.6L224.698 174.2L223.198 177.7C224.098 178.8 224.798 179.9 225.398 181.1L229.198 181.3L230.198 187.5L226.698 188.9C226.598 190.2 226.298 191.6 225.798 192.9L228.298 195.7L224.698 200.8L221.198 199.3C220.098 200.2 218.998 200.9 217.798 201.5L217.598 205.3L211.398 206.3L209.998 202.8C208.698 202.7 207.298 202.4 205.998 201.9L203.198 204.4L198.098 200.8L199.598 197.3C198.698 196.2 197.998 195.1 197.398 193.9L193.598 193.7L192.598 187.5L196.098 186.1C196.198 184.8 196.498 183.4 196.998 182.1L194.498 179.3L198.098 174.2L201.598 175.7ZM206.098 183.4C203.998 186.4 204.698 190.6 207.698 192.7C210.698 194.8 214.898 194.1 216.998 191.1C219.098 188.1 218.398 183.9 215.398 181.8C212.398 179.7 208.198 180.4 206.098 183.4Z" fill="#839299"/>
<path d="M235.497 191.301C236.197 190.701 236.997 190.201 237.797 189.801L237.897 187.301L242.097 186.601L243.097 189.001C243.997 189.101 244.897 189.301 245.797 189.601L247.697 187.901L251.097 190.401L250.097 192.801C250.697 193.501 251.197 194.301 251.597 195.101L254.097 195.201L254.797 199.401L252.397 200.401C252.297 201.301 252.097 202.201 251.797 203.101L253.497 205.001L250.997 208.401L248.597 207.401C247.897 208.001 247.097 208.501 246.297 208.901L246.197 211.401L241.997 212.101L240.997 209.701C240.097 209.601 239.197 209.401 238.297 209.101L236.397 210.801L232.997 208.301L233.997 205.901C233.397 205.201 232.897 204.401 232.497 203.601L229.997 203.501L229.297 199.301L231.697 198.301C231.797 197.401 231.997 196.501 232.297 195.601L230.597 193.701L233.097 190.301L235.497 191.301ZM238.497 196.601C236.997 198.601 237.497 201.501 239.597 202.901C241.597 204.401 244.497 203.901 245.897 201.801C247.297 199.701 246.897 196.901 244.797 195.501C242.797 194.101 239.997 194.501 238.497 196.601Z" fill="#839299"/>
<path d="M233.498 167C234.098 166.5 234.798 166 235.598 165.7L235.698 163.4L239.398 162.8L240.298 164.9C241.098 165 241.898 165.2 242.698 165.4L244.398 163.9L247.398 166.1L246.498 168.2C246.998 168.8 247.498 169.5 247.798 170.3L250.098 170.4L250.698 174.1L248.598 175C248.498 175.8 248.298 176.6 248.098 177.4L249.598 179.1L247.398 182.1L245.298 181.2C244.698 181.7 243.998 182.2 243.198 182.5L243.098 184.8L239.398 185.4L238.498 183.3C237.698 183.2 236.898 183 236.098 182.8L234.398 184.3L231.398 182.1L232.298 180C231.798 179.4 231.298 178.7 230.998 177.9L228.698 177.8L228.098 174.1L230.198 173.2C230.298 172.4 230.498 171.6 230.698 170.8L229.198 169.1L231.398 166.1L233.498 167ZM236.198 171.6C234.898 173.4 235.298 175.9 237.098 177.2C238.898 178.5 241.398 178.1 242.698 176.3C243.998 174.5 243.598 172 241.798 170.7C239.998 169.4 237.498 169.8 236.198 171.6Z" fill="#839299"/>
</svg>
