<svg width="50" height="50" viewBox="0 0 50 50" fill="none" xmlns="http://www.w3.org/2000/svg">
<g clip-path="url(#clip0_18202_7564)">
<path fill-rule="evenodd" clip-rule="evenodd" d="M22.3162 28.9982C21.8183 28.9982 21.4375 28.6174 21.4375 28.1194V22.9935C21.4375 22.4955 21.8183 22.1147 22.3162 22.1147C22.7849 22.1147 23.195 22.4955 23.195 22.9935V28.1194C23.195 28.6174 22.7849 28.9982 22.3162 28.9982Z" fill="#FFBF18"/>
<path fill-rule="evenodd" clip-rule="evenodd" d="M26.2713 28.9985C25.8027 28.9985 25.4219 28.6177 25.4219 28.1198V24.8099C25.4219 24.3412 25.8027 23.9312 26.2713 23.9312C26.7693 23.9312 27.1501 24.3412 27.1501 24.8099V28.1198C27.1501 28.6177 26.7693 28.9985 26.2713 28.9985Z" fill="#FFBF18"/>
<path fill-rule="evenodd" clip-rule="evenodd" d="M17.0732 44.1418H12.6502C12.1816 44.1418 11.8008 43.7318 11.8008 43.2631V33.9778C11.8008 33.5091 12.1816 33.1284 12.6502 33.1284H17.0732C17.5418 33.1284 17.9519 33.5091 17.9519 33.9778V43.2631C17.9519 43.7318 17.5418 44.1418 17.0732 44.1418ZM49.1177 44.4347H44.724C44.2261 44.4347 43.8453 44.054 43.8453 43.556V33.6849C43.8453 33.1869 44.2261 32.8062 44.724 32.8062H49.1177C49.5864 32.8062 49.9964 33.1869 49.9964 33.6849V43.556C49.9964 44.054 49.5864 44.4347 49.1177 44.4347Z" fill="#FFBF18"/>
<path fill-rule="evenodd" clip-rule="evenodd" d="M44.7249 50H17.074C16.5761 50 16.1953 49.5899 16.1953 49.1212V28.1195C16.1953 27.6508 16.5761 27.2407 17.074 27.2407H44.7249C45.1936 27.2407 45.5743 27.6508 45.5743 28.1195V49.1212C45.5743 49.5899 45.1936 50 44.7249 50Z" fill="#FFAC16"/>
<path fill-rule="evenodd" clip-rule="evenodd" d="M41.0037 40.8613H20.7928C20.2948 40.8613 19.9141 40.4805 19.9141 40.0119V31.6053C19.9141 31.1366 20.2948 30.7266 20.7928 30.7266H41.0037C41.4724 30.7266 41.8824 31.1366 41.8824 31.6053V40.0119C41.8824 40.4805 41.4724 40.8613 41.0037 40.8613Z" fill="#114DE2"/>
<path fill-rule="evenodd" clip-rule="evenodd" d="M26.2124 38.4008C24.7771 38.4008 23.6055 37.2292 23.6055 35.7939C23.6055 34.3587 24.7771 33.187 26.2124 33.187C27.6476 33.187 28.8193 34.3587 28.8193 35.7939C28.8193 37.2292 27.6476 38.4008 26.2124 38.4008ZM35.5563 38.4008C34.121 38.4008 32.9493 37.2292 32.9493 35.7939C32.9493 34.3587 34.121 33.187 35.5563 33.187C36.9915 33.187 38.1632 34.3587 38.1632 35.7939C38.1632 37.2292 36.9915 38.4008 35.5563 38.4008Z" fill="#FFBF18"/>
<path fill-rule="evenodd" clip-rule="evenodd" d="M22.4312 45.5773H21.2889C20.8202 45.5773 20.4102 45.1965 20.4102 44.6986C20.4102 44.2299 20.8202 43.8198 21.2889 43.8198H22.4312C22.8999 43.8198 23.2807 44.2299 23.2807 44.6986C23.2807 45.1965 22.8999 45.5773 22.4312 45.5773Z" fill="#114DE2"/>
<path fill-rule="evenodd" clip-rule="evenodd" d="M26.943 45.5773H25.8006C25.332 45.5773 24.9219 45.1965 24.9219 44.6986C24.9219 44.2299 25.332 43.8198 25.8006 43.8198H26.943C27.4116 43.8198 27.8217 44.2299 27.8217 44.6986C27.8217 45.1965 27.4116 45.5773 26.943 45.5773Z" fill="#114DE2"/>
<path fill-rule="evenodd" clip-rule="evenodd" d="M31.4527 45.5773H30.3104C29.8417 45.5773 29.4609 45.1965 29.4609 44.6986C29.4609 44.2299 29.8417 43.8198 30.3104 43.8198H31.4527C31.9214 43.8198 32.3315 44.2299 32.3315 44.6986C32.3315 45.1965 31.9214 45.5773 31.4527 45.5773Z" fill="#114DE2"/>
<path fill-rule="evenodd" clip-rule="evenodd" d="M35.9645 45.5773H34.8514C34.3534 45.5773 33.9727 45.1965 33.9727 44.6986C33.9727 44.2299 34.3534 43.8198 34.8514 43.8198H35.9645C36.4331 43.8198 36.8432 44.2299 36.8432 44.6986C36.8432 45.1965 36.4624 45.5773 35.9645 45.5773Z" fill="#114DE2"/>
<path fill-rule="evenodd" clip-rule="evenodd" d="M40.4762 45.5773H39.3631C38.8652 45.5773 38.4844 45.1965 38.4844 44.6986C38.4844 44.2299 38.8652 43.8198 39.3631 43.8198H40.4762C40.9741 43.8198 41.3549 44.2299 41.3549 44.6986C41.3549 45.1965 40.9741 45.5773 40.4762 45.5773Z" fill="#114DE2"/>
<path fill-rule="evenodd" clip-rule="evenodd" d="M28.6428 20.0059H6.11795C2.74946 20.0059 -0.00390625 17.2818 -0.00390625 13.884C-0.00390625 10.5155 2.74946 7.79145 6.11795 7.79145C6.46944 7.79145 6.82093 7.82074 7.17243 7.87932C7.87541 6.06327 9.63288 4.80375 11.654 4.80375C11.9762 4.80375 12.2984 4.83304 12.5913 4.89162C13.1771 2.10896 15.6376 0 18.596 0C21.4958 0 23.9563 2.05038 24.5714 4.80375C26.0359 4.71588 27.5298 5.3017 28.5257 6.41476C31.3962 7.00059 31.777 15.7294 28.8186 18.2777C29.2287 18.3656 29.5216 18.717 29.5216 19.1271C29.5216 19.6251 29.1408 20.0059 28.6428 20.0059Z" fill="#114DE2"/>
<path fill-rule="evenodd" clip-rule="evenodd" d="M8.28654 20.006H6.119C5.94325 20.006 5.7675 20.006 5.62105 19.9767C5.47459 19.6253 5.38672 19.2445 5.38672 18.8637C5.38672 17.2527 6.67553 15.9346 8.28654 15.9346C8.7552 15.9346 9.16528 16.3446 9.16528 16.8133C9.16528 17.3113 8.7552 17.692 8.28654 17.692C7.64214 17.692 7.1149 18.2193 7.1149 18.8637C7.1149 19.4788 7.64214 20.006 8.28654 20.006Z" fill="#FFBF18"/>
<path fill-rule="evenodd" clip-rule="evenodd" d="M20.6182 7.00072C20.1495 7.00072 19.7394 6.59065 19.7394 6.12199C19.7394 5.47758 19.2415 4.95034 18.5971 4.95034C17.9527 4.95034 17.4254 5.47758 17.4254 6.12199C17.4254 6.59065 17.0447 7.00072 16.5467 7.00072C16.078 7.00072 15.668 6.59065 15.668 6.12199C15.668 4.51097 16.9861 3.19287 18.5971 3.19287C20.1788 3.19287 21.4969 4.51097 21.4969 6.12199C21.4969 6.59065 21.1161 7.00072 20.6182 7.00072Z" fill="#FFBF18"/>
<path fill-rule="evenodd" clip-rule="evenodd" d="M8.3728 33.5092C8.31421 33.5092 8.25563 33.4799 8.19705 33.4799C7.72839 33.3627 7.43548 32.894 7.52335 32.4254C7.84555 31.1366 8.60712 30.0528 9.72019 29.3498C10.8625 28.6468 12.1806 28.4418 13.4695 28.7347C13.9381 28.8519 14.231 29.3205 14.1139 29.7892C13.9967 30.2578 13.528 30.5507 13.0594 30.4336C12.2392 30.2578 11.3898 30.4043 10.6575 30.8437C9.92523 31.283 9.42728 31.986 9.22224 32.8355C9.13437 33.2162 8.78287 33.5092 8.3728 33.5092Z" fill="#FFBF18"/>
<path fill-rule="evenodd" clip-rule="evenodd" d="M4.65262 33.1284C4.56475 33.1284 4.50617 33.1284 4.44758 33.0991C3.97893 33.0112 3.68601 32.5425 3.80318 32.0739C4.94553 27.153 9.86645 24.0774 14.7874 25.2197C15.256 25.3369 15.5489 25.8056 15.4318 26.2742C15.3146 26.7429 14.8459 27.0358 14.3773 26.9186C10.3937 26.0106 6.41009 28.4711 5.50207 32.4547C5.41419 32.8647 5.03341 33.1284 4.65262 33.1284Z" fill="#FFBF18"/>
<path fill-rule="evenodd" clip-rule="evenodd" d="M0.875279 32.4544C0.816697 32.4544 0.728823 32.4251 0.670241 32.4251C0.201582 32.308 -0.0913291 31.8393 0.0258355 31.3707C1.66614 24.3115 8.7546 19.8885 15.8138 21.5288C16.2824 21.646 16.5753 22.1147 16.4875 22.5833C16.3703 23.052 15.9016 23.3449 15.433 23.2277C9.31113 21.7925 3.15999 25.6296 1.72472 31.7514C1.63685 32.1615 1.25606 32.4544 0.875279 32.4544Z" fill="#FFBF18"/>
<path fill-rule="evenodd" clip-rule="evenodd" d="M18.5985 15.3776C15.4936 15.3776 12.9453 12.8586 12.9453 9.75373C12.9453 9.25579 13.3554 8.875 13.824 8.875C14.322 8.875 14.7028 9.25579 14.7028 9.75373C14.7028 11.892 16.4603 13.6202 18.5985 13.6202C20.7368 13.6202 22.4649 11.892 22.4649 9.75373C22.4649 9.25579 22.875 8.875 23.3437 8.875C23.8416 8.875 24.2224 9.25579 24.2224 9.75373C24.2224 12.8586 21.7034 15.3776 18.5985 15.3776Z" fill="#FFBF18"/>
<path fill-rule="evenodd" clip-rule="evenodd" d="M40.2707 24.751H35.8184C35.3498 24.751 34.9397 24.3702 34.9397 23.8723V20.9725C33.9145 20.5917 32.9772 20.0644 32.157 19.3615L29.6087 20.7967C29.4329 20.9139 29.1693 20.9432 28.9643 20.8846C28.73 20.826 28.5542 20.6796 28.437 20.5038L26.2109 16.6374C26.0938 16.4323 26.0645 16.198 26.123 15.993C26.1816 15.7586 26.3281 15.5829 26.5331 15.4657L29.0522 14.0012C28.9643 13.4739 28.9057 12.9174 28.9057 12.3902C28.9057 11.8336 28.9643 11.3064 29.0522 10.7499L26.5331 9.31459C26.3281 9.19742 26.1816 8.99238 26.123 8.78735C26.0645 8.55302 26.0938 8.31869 26.2109 8.11365L28.437 4.27651C28.6714 3.83714 29.1986 3.71998 29.6087 3.95431L32.157 5.41886C32.9772 4.71588 33.9145 4.15934 34.9397 3.77856V0.878735C34.9397 0.380785 35.3498 0 35.8184 0H40.2707C40.7393 0 41.1201 0.380785 41.1201 0.878735V3.77856C42.1453 4.15934 43.1119 4.71588 43.9321 5.41886L46.4511 3.95431C46.8612 3.71998 47.4177 3.83714 47.652 4.27651L49.8782 8.11365C49.9953 8.31869 50.0246 8.55302 49.966 8.78735C49.9075 8.99238 49.761 9.19742 49.556 9.31459L47.0369 10.7499C47.1248 11.3064 47.1541 11.8336 47.1541 12.3902C47.1541 12.9174 47.1248 13.4739 47.0369 14.0012L49.556 15.4657C49.761 15.5829 49.9075 15.7586 49.966 15.993C50.0246 16.198 49.9953 16.4616 49.8782 16.6374L47.652 20.5038C47.5349 20.6796 47.3298 20.826 47.1248 20.8846C46.8905 20.9432 46.6561 20.9139 46.4511 20.7967L43.9321 19.3615C43.1119 20.0644 42.1453 20.5917 41.1201 20.9725V23.8723C41.1201 24.3702 40.7393 24.751 40.2707 24.751Z" fill="#FFBF18"/>
<path fill-rule="evenodd" clip-rule="evenodd" d="M38.0458 17.6332C35.146 17.6332 32.7734 15.2899 32.7734 12.3901C32.7734 9.49026 35.146 7.11768 38.0458 7.11768C40.9457 7.11768 43.289 9.49026 43.289 12.3901C43.289 15.2899 40.9457 17.6332 38.0458 17.6332Z" fill="#114DE2"/>
</g>
<defs>
<clipPath id="clip0_18202_7564">
<rect width="50" height="50" fill="white"/>
</clipPath>
</defs>
</svg>
