<svg width="64" height="64" viewBox="0 0 64 64" fill="none" xmlns="http://www.w3.org/2000/svg">
<g clip-path="url(#clip0_14818_11254)">
<path fill-rule="evenodd" clip-rule="evenodd" d="M49.5625 1.43749C51.313 1.41667 53.063 1.43751 54.8125 1.49999C55.577 1.80638 56.0145 2.36888 56.125 3.18749C56.1875 5.06203 56.2084 6.93703 56.1875 8.81249C54.4791 8.81249 52.7709 8.81249 51.0625 8.81249C51.0834 6.81206 51.0625 4.81206 51 2.81249C50.6985 2.15653 50.2193 1.69821 49.5625 1.43749Z" fill="#3C58BC"/>
<path opacity="0.998" fill-rule="evenodd" clip-rule="evenodd" d="M3.5625 8.81258C3.5625 8.85424 3.5625 8.89592 3.5625 8.93758C3.5625 20.646 3.5625 32.3542 3.5625 44.0626C2.35416 44.0626 1.14583 44.0626 -0.0625 44.0626C-0.0625 32.771 -0.0625 21.4792 -0.0625 10.1876C0.198939 9.69663 0.573939 9.30079 1.0625 9.00008C1.88455 8.82791 2.71789 8.76541 3.5625 8.81258Z" fill="#C7EEFE"/>
<path fill-rule="evenodd" clip-rule="evenodd" d="M7.8125 8.9375C7.8125 8.89584 7.8125 8.85416 7.8125 8.8125C22.2291 8.8125 36.6459 8.8125 51.0625 8.8125C52.7709 8.8125 54.4791 8.8125 56.1875 8.8125C56.4791 8.8125 56.7709 8.8125 57.0625 8.8125C57.8334 9.06166 58.3959 9.56166 58.75 10.3125C58.8125 21.5624 58.8334 32.8124 58.8125 44.0625C57.8959 44.0625 56.9791 44.0625 56.0625 44.0625C56.0625 32.3541 56.0625 20.6459 56.0625 8.9375C54.3959 8.9375 52.7291 8.9375 51.0625 8.9375C36.6459 8.9375 22.2291 8.9375 7.8125 8.9375Z" fill="#C5EAFA"/>
<path fill-rule="evenodd" clip-rule="evenodd" d="M3.5625 8.9375C4.9375 8.9375 6.3125 8.9375 7.6875 8.9375C7.6875 20.6459 7.6875 32.3541 7.6875 44.0625C6.3125 44.0625 4.9375 44.0625 3.5625 44.0625C3.5625 32.3541 3.5625 20.6459 3.5625 8.9375Z" fill="#99E6FB"/>
<path fill-rule="evenodd" clip-rule="evenodd" d="M3.5625 8.9375C3.5625 8.89584 3.5625 8.85416 3.5625 8.8125C4.9375 8.8125 6.3125 8.8125 7.6875 8.8125C7.72916 8.8125 7.77084 8.8125 7.8125 8.8125C7.8125 8.85416 7.8125 8.89584 7.8125 8.9375C7.8125 20.6459 7.8125 32.3541 7.8125 44.0625C7.77084 44.0625 7.72916 44.0625 7.6875 44.0625C7.6875 32.3541 7.6875 20.6459 7.6875 8.9375C6.3125 8.9375 4.9375 8.9375 3.5625 8.9375Z" fill="#AEE9F7"/>
<path fill-rule="evenodd" clip-rule="evenodd" d="M57.0625 8.81249C58.8546 8.79167 60.6464 8.81251 62.4375 8.87499C63.1165 9.11703 63.6165 9.55453 63.9375 10.1875C63.9375 21.4791 63.9375 32.7709 63.9375 44.0625C62.2291 44.0625 60.5209 44.0625 58.8125 44.0625C58.8334 32.8124 58.8125 21.5624 58.75 10.3125C58.3959 9.56166 57.8334 9.06166 57.0625 8.81249Z" fill="#99E6FC"/>
<path fill-rule="evenodd" clip-rule="evenodd" d="M32.1875 31.9375C32.8125 31.9375 33.4375 31.9375 34.0625 31.9375C34.0625 33.3959 34.0625 34.8541 34.0625 36.3125C33.4375 36.3125 32.8125 36.3125 32.1875 36.3125C32.1875 34.8541 32.1875 33.3959 32.1875 31.9375Z" fill="#FEF8E1"/>
<path fill-rule="evenodd" clip-rule="evenodd" d="M34.0625 36.3125C38.6459 36.3125 43.2291 36.3125 47.8125 36.3125C47.8125 37.2709 47.8125 38.2291 47.8125 39.1875C43.2291 39.1875 38.6459 39.1875 34.0625 39.1875C34.0625 38.2291 34.0625 37.2709 34.0625 36.3125Z" fill="#FEF8E1"/>
<path opacity="0.998" fill-rule="evenodd" clip-rule="evenodd" d="M49.5625 1.4375C50.2192 1.69821 50.6985 2.15654 51 2.8125C51.0625 4.81206 51.0834 6.81206 51.0625 8.8125C36.6459 8.8125 22.2291 8.8125 7.81249 8.8125C7.77083 8.8125 7.72916 8.8125 7.68749 8.8125C7.66667 6.93704 7.68751 5.06204 7.74999 3.1875C7.86048 2.36889 8.29798 1.80639 9.06249 1.5C22.5624 1.4375 36.0624 1.41666 49.5625 1.4375Z" fill="#4F66D0"/>
<path fill-rule="evenodd" clip-rule="evenodd" d="M15.9371 4.18749C17.4793 4.16668 19.0209 4.1875 20.5621 4.24999C21.3407 4.77134 21.3823 5.35466 20.6871 5.99999C19.0621 6.08333 17.4371 6.08333 15.8121 5.99999C15.1249 5.33535 15.1666 4.73118 15.9371 4.18749Z" fill="#C6EDFD"/>
<path fill-rule="evenodd" clip-rule="evenodd" d="M11.3135 4.31234C12.4172 4.1451 12.8547 4.60344 12.626 5.68734C12.1208 6.2889 11.5791 6.33058 11.001 5.81234C10.6899 5.2194 10.794 4.7194 11.3135 4.31234Z" fill="#C3EAFC"/>
<path fill-rule="evenodd" clip-rule="evenodd" d="M7.8125 8.9375C22.2291 8.9375 36.6459 8.9375 51.0625 8.9375C51.0625 20.6459 51.0625 32.3541 51.0625 44.0625C49.9791 44.0625 48.8959 44.0625 47.8125 44.0625C47.8125 43.1041 47.8125 42.1459 47.8125 41.1875C47.8125 40.5209 47.8125 39.8541 47.8125 39.1875C47.8125 38.2291 47.8125 37.2709 47.8125 36.3125C47.8332 35.1868 47.8125 34.0618 47.75 32.9375C47.6041 32.4584 47.2916 32.1459 46.8125 32C42.5628 31.9375 38.3127 31.9166 34.0625 31.9375C33.4375 31.9375 32.8125 31.9375 32.1875 31.9375C27.104 31.9166 22.0206 31.9375 16.9375 32C16.534 32.1954 16.2631 32.5079 16.125 32.9375C16.0625 34.0618 16.0417 35.1868 16.0625 36.3125C16.0625 38.8959 16.0625 41.4791 16.0625 44.0625C13.3125 44.0625 10.5625 44.0625 7.8125 44.0625C7.8125 32.3541 7.8125 20.6459 7.8125 8.9375Z" fill="#FEF8E1"/>
<path fill-rule="evenodd" clip-rule="evenodd" d="M51.0625 8.9375C52.7291 8.9375 54.3959 8.9375 56.0625 8.9375C56.0625 20.6459 56.0625 32.3541 56.0625 44.0625C54.3959 44.0625 52.7291 44.0625 51.0625 44.0625C51.0625 32.3541 51.0625 20.6459 51.0625 8.9375Z" fill="#FCF1C3"/>
<path fill-rule="evenodd" clip-rule="evenodd" d="M32.1875 31.9375C32.1875 33.3959 32.1875 34.8541 32.1875 36.3125C26.8125 36.3125 21.4375 36.3125 16.0625 36.3125C16.0417 35.1868 16.0625 34.0618 16.125 32.9375C16.2631 32.5079 16.534 32.1954 16.9375 32C22.0206 31.9375 27.104 31.9166 32.1875 31.9375Z" fill="#FEF8E1"/>
<path fill-rule="evenodd" clip-rule="evenodd" d="M34.0625 31.9375C38.3127 31.9166 42.5627 31.9375 46.8125 32C47.2916 32.1459 47.6041 32.4584 47.75 32.9375C47.8125 34.0618 47.8333 35.1868 47.8125 36.3125C43.2291 36.3125 38.6459 36.3125 34.0625 36.3125C34.0625 34.8541 34.0625 33.3959 34.0625 31.9375Z" fill="#FEF8E1"/>
<path fill-rule="evenodd" clip-rule="evenodd" d="M16.0625 36.3125C21.4375 36.3125 26.8125 36.3125 32.1875 36.3125C32.1875 38.8959 32.1875 41.4791 32.1875 44.0625C26.8125 44.0625 21.4375 44.0625 16.0625 44.0625C16.0625 41.4791 16.0625 38.8959 16.0625 36.3125Z" fill="#FEF8E1"/>
<path fill-rule="evenodd" clip-rule="evenodd" d="M32.1875 36.3125C32.8125 36.3125 33.4375 36.3125 34.0625 36.3125C34.0625 37.2709 34.0625 38.2291 34.0625 39.1875C38.6459 39.1875 43.2291 39.1875 47.8125 39.1875C47.8125 39.8541 47.8125 40.5209 47.8125 41.1875C43.2291 41.1875 38.6459 41.1875 34.0625 41.1875C34.0625 42.1459 34.0625 43.1041 34.0625 44.0625C33.4375 44.0625 32.8125 44.0625 32.1875 44.0625C32.1875 41.4791 32.1875 38.8959 32.1875 36.3125Z" fill="#FEF8E1"/>
<path fill-rule="evenodd" clip-rule="evenodd" d="M19.8131 39.1875C20.8973 39.1667 21.9806 39.1875 23.0631 39.25C24.0631 39.875 24.0631 40.5 23.0631 41.125C21.9798 41.2083 20.8965 41.2083 19.8131 41.125C18.9868 40.4747 18.9868 39.8288 19.8131 39.1875Z" fill="#FEF8E1"/>
<path fill-rule="evenodd" clip-rule="evenodd" d="M47.8125 41.1875C47.8125 42.1459 47.8125 43.1041 47.8125 44.0625C43.2291 44.0625 38.6459 44.0625 34.0625 44.0625C34.0625 43.1041 34.0625 42.1459 34.0625 41.1875C38.6459 41.1875 43.2291 41.1875 47.8125 41.1875Z" fill="#FEF8E1"/>
<path fill-rule="evenodd" clip-rule="evenodd" d="M-0.0625 44.0625C1.14583 44.0625 2.35416 44.0625 3.5625 44.0625C4.9375 44.0625 6.3125 44.0625 7.6875 44.0625C7.72916 44.0625 7.77084 44.0625 7.8125 44.0625C10.5625 44.0625 13.3125 44.0625 16.0625 44.0625C21.4375 44.0625 26.8125 44.0625 32.1875 44.0625C32.8125 44.0625 33.4375 44.0625 34.0625 44.0625C38.6459 44.0625 43.2291 44.0625 47.8125 44.0625C48.8959 44.0625 49.9791 44.0625 51.0625 44.0625C52.7291 44.0625 54.3959 44.0625 56.0625 44.0625C56.9791 44.0625 57.8959 44.0625 58.8125 44.0625C58.8334 45.6048 58.8125 47.1464 58.75 48.6875C58.4448 49.514 57.8823 50.0556 57.0625 50.3125C56.2709 50.3125 55.4791 50.3125 54.6875 50.3125C54.7082 49.4781 54.6875 48.6448 54.625 47.8125C54.2029 47.2814 53.6821 47.1772 53.0625 47.5C52.9842 47.5938 52.9217 47.698 52.875 47.8125C52.8125 48.6448 52.7918 49.4781 52.8125 50.3125C47.9791 50.3125 43.1459 50.3125 38.3125 50.3125C36.6753 50.1474 35.0503 50.1474 33.4375 50.3125C30.8125 50.3125 28.1875 50.3125 25.5625 50.3125C17.5208 50.3334 9.47906 50.3125 1.4375 50.25C0.758475 50.008 0.258475 49.5705 -0.0625 48.9375C-0.0625 47.3125 -0.0625 45.6875 -0.0625 44.0625Z" fill="#A9B5BE"/>
<path fill-rule="evenodd" clip-rule="evenodd" d="M58.8125 44.0625C60.5209 44.0625 62.2291 44.0625 63.9375 44.0625C63.9375 45.6875 63.9375 47.3125 63.9375 48.9375C63.6165 49.5705 63.1165 50.008 62.4375 50.25C60.6464 50.3125 58.8546 50.3334 57.0625 50.3125C57.8823 50.0556 58.4448 49.514 58.75 48.6875C58.8125 47.1464 58.8334 45.6048 58.8125 44.0625Z" fill="#8D9CA8"/>
<path fill-rule="evenodd" clip-rule="evenodd" d="M54.6875 50.3124C54.0625 50.3124 53.4375 50.3124 52.8125 50.3124C52.7917 49.478 52.8125 48.6447 52.875 47.8124C52.9217 47.6979 52.9842 47.5937 53.0625 47.4999C53.6821 47.1772 54.2028 47.2813 54.625 47.8124C54.6875 48.6447 54.7082 49.478 54.6875 50.3124Z" fill="#7A8C98"/>
<path fill-rule="evenodd" clip-rule="evenodd" d="M25.5625 50.3125C28.1875 50.3125 30.8125 50.3125 33.4375 50.3125C33.4375 52.8959 33.4375 55.4791 33.4375 58.0625C30.8125 58.0625 28.1875 58.0625 25.5625 58.0625C25.5625 55.4791 25.5625 52.8959 25.5625 50.3125Z" fill="#8C9BA7"/>
<path fill-rule="evenodd" clip-rule="evenodd" d="M38.3125 50.3123C38.3125 52.8957 38.3125 55.4789 38.3125 58.0623C36.6875 58.0623 35.0625 58.0623 33.4375 58.0623C33.4375 55.4789 33.4375 52.8957 33.4375 50.3123C35.0503 50.1472 36.6753 50.1472 38.3125 50.3123Z" fill="#7A8C98"/>
<path opacity="0.999" fill-rule="evenodd" clip-rule="evenodd" d="M25.5625 58.0625C28.1875 58.0625 30.8125 58.0625 33.4375 58.0625C35.0625 58.0625 36.6875 58.0625 38.3125 58.0625C39.1875 58.0625 40.0625 58.0625 40.9375 58.0625C41.1379 58.1995 41.3254 58.3663 41.5 58.5625C41.5834 59.6875 41.5834 60.8125 41.5 61.9375C41.4138 62.1688 41.268 62.3355 41.0625 62.4375C33.3124 62.4584 25.5624 62.4375 17.8125 62.375C17.7084 62.2709 17.6042 62.1666 17.5 62.0625C17.4167 60.8541 17.4167 59.6459 17.5 58.4375C17.6042 58.3334 17.7084 58.2291 17.8125 58.125C20.3955 58.0625 22.9789 58.0416 25.5625 58.0625Z" fill="#A8B4BE"/>
<path fill-rule="evenodd" clip-rule="evenodd" d="M40.9375 58.0625C42.6464 58.0416 44.3546 58.0625 46.0625 58.125C46.1666 58.2291 46.2709 58.3334 46.375 58.4375C46.4584 59.6459 46.4584 60.8541 46.375 62.0625C46.2709 62.1666 46.1666 62.2709 46.0625 62.375C44.3964 62.4375 42.7296 62.4584 41.0625 62.4375C41.268 62.3355 41.4137 62.1688 41.5 61.9375C41.5834 60.8125 41.5834 59.6875 41.5 58.5625C41.3254 58.3663 41.1379 58.1995 40.9375 58.0625Z" fill="#8D9CA8"/>
</g>
<path fill-rule="evenodd" clip-rule="evenodd" d="M43.8393 17.6055C43.6561 17.6145 43.4739 17.6054 43.2925 17.5781C42.7617 17.4113 42.2239 17.2745 41.6792 17.168C41.3194 17.2022 41.0642 17.3844 40.9136 17.7148C39.908 20.8498 38.1489 23.4657 35.6362 25.5625C34.7158 26.1777 33.7861 26.7792 32.8472 27.3672C32.4479 27.5467 32.1562 27.4464 31.9722 27.0664C31.9722 26.8659 31.9722 26.6654 31.9722 26.4648C31.9631 25.9176 31.9722 25.3708 31.9995 24.8242C32.0495 24.7789 32.086 24.7242 32.1089 24.6602C32.9181 24.3329 33.7294 24.023 34.5425 23.7305C37.0922 22.6118 38.8148 20.7341 39.7104 18.0977C39.7648 17.954 39.7831 17.8082 39.7651 17.6602C39.104 17.3159 38.4387 16.9787 37.769 16.6484C37.5709 16.4266 37.5619 16.1987 37.7417 15.9648C39.2062 14.9639 40.6919 13.9977 42.1987 13.0664C42.422 13.0802 42.5769 13.1896 42.6636 13.3945C43.0642 14.7968 43.4561 16.2004 43.8393 17.6055Z" fill="#FEC138"/>
<path opacity="0.991" fill-rule="evenodd" clip-rule="evenodd" d="M26.7779 16.3476C26.4216 16.5317 26.2849 16.8234 26.3677 17.2226C26.6412 17.6966 26.9146 18.1705 27.188 18.6445C27.496 19.022 27.8879 19.2681 28.3638 19.3828C29.4392 19.4101 30.5147 19.4193 31.5904 19.4101C31.4453 19.7004 31.2995 19.992 31.1529 20.2851C29.6581 20.2851 28.1633 20.2851 26.6685 20.2851C26.2773 19.5757 25.8853 18.8647 25.4927 18.1523C25.2807 17.5468 25.381 16.9999 25.7935 16.5117C25.8591 16.4553 25.9321 16.4097 26.0123 16.375C26.2668 16.3477 26.522 16.3386 26.7779 16.3476Z" fill="#2D9739"/>
<path fill-rule="evenodd" clip-rule="evenodd" d="M26.7774 16.3477C28.4957 16.3212 30.2092 16.3485 31.918 16.4297C32.4223 16.9149 32.559 17.4891 32.3281 18.1524C32.0895 18.5809 31.8434 19.0002 31.5899 19.4102C30.5142 19.4193 29.4387 19.4102 28.3633 19.3828C27.8874 19.2681 27.4955 19.022 27.1875 18.6446C26.9141 18.1706 26.6406 17.6967 26.3672 17.2227C26.2843 16.8235 26.4211 16.5318 26.7774 16.3477Z" fill="#43BB58"/>
<path opacity="0.989" fill-rule="evenodd" clip-rule="evenodd" d="M43.8398 17.6055C43.9382 17.8374 44.0111 18.0835 44.0586 18.3438C43.9944 18.6818 43.7939 18.8276 43.457 18.7812C42.6951 18.5546 41.9295 18.345 41.1602 18.1523C40.3336 21.0649 38.8753 23.5987 36.7852 25.7539C35.75 26.6427 34.638 27.4266 33.4492 28.1055C33.1557 28.3206 32.8367 28.4847 32.4922 28.5977C32.2308 28.5815 32.0576 28.4539 31.9727 28.2148C31.9727 27.832 31.9727 27.4492 31.9727 27.0664C32.1567 27.4464 32.4484 27.5467 32.8477 27.3672C33.7866 26.7792 34.7163 26.1777 35.6367 25.5625C38.1494 23.4657 39.9085 20.8498 40.9141 17.7148C41.0647 17.3844 41.32 17.2022 41.6797 17.168C42.2244 17.2745 42.7622 17.4113 43.293 17.5781C43.4744 17.6054 43.6566 17.6145 43.8398 17.6055Z" fill="#F2A606"/>
<path fill-rule="evenodd" clip-rule="evenodd" d="M26.668 20.2852C28.1627 20.2852 29.6576 20.2852 31.1523 20.2852C31.6371 20.3143 31.9106 20.5695 31.9727 21.0508C31.8859 21.0863 31.7948 21.1136 31.6992 21.1329C30.1133 21.1694 28.5273 21.1694 26.9414 21.1329C26.5789 21.0163 26.3601 20.7702 26.2852 20.3946C26.3911 20.3037 26.5188 20.2672 26.668 20.2852Z" fill="#FFD45C"/>
<path opacity="0.991" fill-rule="evenodd" clip-rule="evenodd" d="M26.2858 20.3945C26.3608 20.7702 26.5795 21.0163 26.9421 21.1328C28.528 21.1693 30.1139 21.1693 31.6999 21.1328C31.7954 21.1136 31.8866 21.0862 31.9733 21.0508C32.0242 21.5051 31.842 21.8241 31.4264 22.0078C30.9528 22.0352 30.4789 22.0442 30.0046 22.0352C29.2754 22.0352 28.5462 22.0352 27.8171 22.0352C27.3428 22.0442 26.8688 22.0352 26.3952 22.0078C25.904 21.7632 25.7308 21.3712 25.8757 20.832C25.9493 20.6218 26.086 20.476 26.2858 20.3945Z" fill="#FFC239"/>
<path opacity="0.992" fill-rule="evenodd" clip-rule="evenodd" d="M27.816 22.0352C28.5452 22.0352 29.2744 22.0352 30.0035 22.0352C31.2755 22.1979 32.4786 22.5807 33.6129 23.1836C29.7879 21.7086 26.534 22.5106 23.8512 25.5898C21.323 28.808 20.8126 32.3263 22.3199 36.1445C22.7434 37.0493 23.263 37.8878 23.8785 38.6602C22.9853 38.6602 22.0921 38.6602 21.1988 38.6602C18.7579 35.5288 18.2019 32.0835 19.5309 28.3242C21.1422 24.7155 23.9039 22.6192 27.816 22.0352Z" fill="#2D9739"/>
<path fill-rule="evenodd" clip-rule="evenodd" d="M44.2227 22.0352C44.2135 26.9388 44.2227 31.8425 44.25 36.7461C44.4056 37.1302 44.6882 37.3307 45.0977 37.3477C45.0977 37.4935 45.0977 37.6393 45.0977 37.7852C44.5143 37.7852 43.931 37.7852 43.3477 37.7852C43.3477 32.5352 43.3477 27.2852 43.3477 22.0352C43.6393 22.0352 43.931 22.0352 44.2227 22.0352Z" fill="#FEC239"/>
<path fill-rule="evenodd" clip-rule="evenodd" d="M44.2222 22.0352C44.5138 22.0352 44.8055 22.0352 45.0972 22.0352C45.0972 27.1393 45.0972 32.2435 45.0972 37.3477C44.6877 37.3307 44.4052 37.1302 44.2495 36.7461C44.2222 31.8425 44.213 26.9388 44.2222 22.0352Z" fill="#FFD45C"/>
<path fill-rule="evenodd" clip-rule="evenodd" d="M33.6141 23.1834C33.9514 23.3245 34.2613 23.5068 34.5438 23.7303C33.7307 24.0228 32.9194 24.3327 32.1102 24.66C32.0873 24.7241 32.0508 24.7788 32.0008 24.824C31.9735 25.3706 31.9644 25.9175 31.9735 26.4647C30.3493 25.4294 28.6358 25.2562 26.8328 25.9451C26.5401 26.073 26.2667 26.228 26.0125 26.41C23.9601 27.9091 23.2583 29.8961 23.907 32.3709C24.6645 34.4407 26.1319 35.6529 28.3094 36.0076C29.2808 36.0888 30.2105 35.9339 31.0985 35.5428C31.0985 36.2902 31.0985 37.0376 31.0985 37.785C31.6818 37.785 32.2651 37.785 32.8485 37.785C32.8485 37.6391 32.8485 37.4933 32.8485 37.3475C32.8485 36.3084 32.8485 35.2693 32.8485 34.2303C32.9953 34.0832 33.1229 33.9191 33.2313 33.7381C33.7242 33.0245 34.0341 32.2406 34.161 31.3865C34.161 33.5193 34.161 35.6522 34.161 37.785C34.7443 37.785 35.3276 37.785 35.911 37.785C35.911 37.6391 35.911 37.4933 35.911 37.3475C35.911 35.16 35.911 32.9725 35.911 30.785C35.6193 30.785 35.3276 30.785 35.036 30.785C34.7443 30.785 34.4526 30.785 34.161 30.785C34.1866 30.3477 34.1319 29.9284 33.9969 29.5272C33.9969 29.5089 33.9969 29.4907 33.9969 29.4725C35.2651 28.8069 36.3771 27.9319 37.3328 26.8475C37.3779 26.799 37.4326 26.7808 37.4969 26.7928C37.7034 27.0782 37.8675 27.3881 37.9891 27.7225C37.7339 27.7225 37.4787 27.7225 37.2235 27.7225C37.2235 31.0766 37.2235 34.4308 37.2235 37.785C37.0243 38.0756 36.8238 38.3673 36.6219 38.66C32.3745 38.66 28.1271 38.66 23.8797 38.66C23.2641 37.8876 22.7446 37.0491 22.3211 36.1443C20.8137 32.3261 21.3242 28.8079 23.8524 25.5897C26.5352 22.5104 29.7891 21.7084 33.6141 23.1834Z" fill="#44BB59"/>
<path fill-rule="evenodd" clip-rule="evenodd" d="M41.1602 24.6602C41.151 28.6888 41.1602 32.7175 41.1875 36.7461C41.3431 37.1302 41.6257 37.3307 42.0352 37.3477C42.0352 37.4935 42.0352 37.6393 42.0352 37.7852C41.4518 37.7852 40.8685 37.7852 40.2852 37.7852C40.2852 33.4102 40.2852 29.0352 40.2852 24.6602C40.5768 24.6602 40.8685 24.6602 41.1602 24.6602Z" fill="#FFC239"/>
<path fill-rule="evenodd" clip-rule="evenodd" d="M41.1597 24.6602C41.4513 24.6602 41.743 24.6602 42.0347 24.6602C42.0347 28.8893 42.0347 33.1185 42.0347 37.3477C41.6252 37.3307 41.3427 37.1302 41.187 36.7461C41.1597 32.7175 41.1505 28.6888 41.1597 24.6602Z" fill="#FFD45C"/>
<path fill-rule="evenodd" clip-rule="evenodd" d="M31.9725 26.4646C31.9725 26.6652 31.9725 26.8657 31.9725 27.0662C31.9725 27.449 31.9725 27.8318 31.9725 28.2146C31.9634 28.78 31.9725 29.3451 31.9998 29.9099C32.1258 30.3263 32.3901 30.4447 32.7928 30.2654C33.1876 30.007 33.5886 29.7609 33.9959 29.5271C34.1309 29.9284 34.1856 30.3477 34.16 30.7849C34.16 30.9855 34.16 31.186 34.16 31.3865C34.0332 32.2406 33.7232 33.0245 33.2303 33.7381C33.0947 33.7787 32.9671 33.8333 32.8475 33.9021C32.8475 33.4464 32.8475 32.9907 32.8475 32.5349C32.5558 32.5349 32.2641 32.5349 31.9725 32.5349C31.6808 32.5349 31.3891 32.5349 31.0975 32.5349C31.0975 33.173 31.0975 33.811 31.0975 34.449C30.3671 34.555 29.6561 34.5004 28.9647 34.2849C29.0923 34.2849 29.2199 34.2849 29.3475 34.2849C29.3385 34.1199 29.3476 33.9558 29.3748 33.7928C30.5159 33.2967 30.8805 32.4582 30.4686 31.2771C30.2954 30.9581 30.0493 30.712 29.7303 30.5389C29.292 30.4217 28.8545 30.3123 28.4178 30.2107C27.9159 29.7158 27.9159 29.2236 28.4178 28.7342C29.1734 28.4374 29.6292 28.6835 29.785 29.4724C30.0766 29.4724 30.3683 29.4724 30.66 29.4724C30.5948 28.6324 30.1664 28.0674 29.3748 27.7771C29.3476 27.6141 29.3385 27.45 29.3475 27.2849C29.0558 27.2849 28.7641 27.2849 28.4725 27.2849C28.4898 27.4529 28.4716 27.617 28.4178 27.7771C27.2036 28.3468 26.8846 29.2401 27.4608 30.4568C27.7116 30.7986 28.0397 31.0355 28.4451 31.1678C28.7726 31.194 29.0915 31.2578 29.4022 31.3592C29.835 31.7319 29.8988 32.1603 29.5936 32.6443C29.1007 33.098 28.6268 33.0797 28.1717 32.5896C28.1005 32.4324 28.0549 32.2683 28.035 32.0974C27.7433 32.0974 27.4516 32.0974 27.16 32.0974C27.2252 32.9279 27.6445 33.4931 28.4178 33.7928C28.4706 33.8964 28.4888 34.0058 28.4725 34.1209C25.9915 32.9331 24.9251 30.9643 25.2733 28.2146C25.4307 27.5723 25.6768 26.9708 26.0115 26.4099C26.2657 26.2279 26.5392 26.073 26.8319 25.9451C28.6348 25.2562 30.3484 25.4294 31.9725 26.4646Z" fill="#CCF7C7"/>
<path fill-rule="evenodd" clip-rule="evenodd" d="M36.7852 25.7539C37.0435 26.0853 37.2805 26.4316 37.4961 26.793C37.4318 26.781 37.3771 26.7992 37.332 26.8477C36.3763 27.9321 35.2644 28.8071 33.9961 29.4727C33.8781 28.9912 33.6959 28.5354 33.4492 28.1055C34.638 27.4266 35.75 26.6427 36.7852 25.7539Z" fill="#2E9739"/>
<path fill-rule="evenodd" clip-rule="evenodd" d="M26.0111 26.4102C25.6763 26.971 25.4302 27.5725 25.2728 28.2148C24.9246 30.9645 25.991 32.9333 28.472 34.1211C28.472 34.1758 28.472 34.2305 28.472 34.2852C28.6361 34.2852 28.8001 34.2852 28.9642 34.2852C29.6556 34.5006 30.3666 34.5553 31.097 34.4492C31.097 34.8138 31.097 35.1784 31.097 35.543C30.209 35.934 29.2793 36.089 28.3079 36.0078C26.1304 35.6531 24.663 34.4409 23.9056 32.3711C23.2569 29.8963 23.9587 27.9093 26.0111 26.4102Z" fill="#AAE3A2"/>
<path fill-rule="evenodd" clip-rule="evenodd" d="M28.9648 34.2852C28.8008 34.2852 28.6367 34.2852 28.4727 34.2852C28.4727 34.2305 28.4727 34.1758 28.4727 34.1211C28.489 34.006 28.4708 33.8967 28.418 33.793C27.6447 33.4933 27.2254 32.9281 27.1602 32.0977C27.4518 32.0977 27.7435 32.0977 28.0352 32.0977C28.0551 32.2686 28.1007 32.4326 28.1719 32.5898C28.627 33.0799 29.1009 33.0982 29.5938 32.6445C29.899 32.1605 29.8352 31.7321 29.4023 31.3594C29.0917 31.258 28.7727 31.1942 28.4453 31.168C28.0399 31.0357 27.7118 30.7988 27.4609 30.457C26.8847 29.2403 27.2037 28.347 28.418 27.7773C28.4718 27.6172 28.49 27.4532 28.4727 27.2852C28.7643 27.2852 29.056 27.2852 29.3477 27.2852C29.3386 27.4502 29.3478 27.6143 29.375 27.7773C30.1666 28.0676 30.595 28.6327 30.6602 29.4727C30.3685 29.4727 30.0768 29.4727 29.7852 29.4727C29.6294 28.6837 29.1736 28.4376 28.418 28.7344C27.9161 29.2238 27.9161 29.716 28.418 30.2109C28.8547 30.3125 29.2922 30.4219 29.7305 30.5391C30.0495 30.7123 30.2956 30.9584 30.4688 31.2773C30.8807 32.4584 30.5161 33.297 29.375 33.793C29.3478 33.956 29.3386 34.1201 29.3477 34.2852C29.2201 34.2852 29.0924 34.2852 28.9648 34.2852Z" fill="#2F983A"/>
<path fill-rule="evenodd" clip-rule="evenodd" d="M37.9883 27.7227C38.0248 27.7227 38.0612 27.7227 38.0977 27.7227C38.0885 30.7305 38.0977 33.7383 38.125 36.7461C38.2806 37.1302 38.5632 37.3307 38.9727 37.3477C38.9727 37.4935 38.9727 37.6393 38.9727 37.7852C38.3893 37.7852 37.806 37.7852 37.2227 37.7852C37.2227 34.431 37.2227 31.0768 37.2227 27.7227C37.4779 27.7227 37.7331 27.7227 37.9883 27.7227Z" fill="#FFC239"/>
<path fill-rule="evenodd" clip-rule="evenodd" d="M38.0972 27.7227C38.3888 27.7227 38.6805 27.7227 38.9722 27.7227C38.9722 30.931 38.9722 34.1393 38.9722 37.3477C38.5627 37.3307 38.2802 37.1302 38.1245 36.7461C38.0972 33.7383 38.088 30.7305 38.0972 27.7227Z" fill="#FFD45C"/>
<path fill-rule="evenodd" clip-rule="evenodd" d="M33.4487 28.1055C33.6954 28.5354 33.8776 28.9912 33.9956 29.4727C33.9956 29.4909 33.9956 29.5091 33.9956 29.5273C33.5883 29.7611 33.1873 30.0072 32.7925 30.2656C32.3898 30.4449 32.1255 30.3265 31.9995 29.9102C31.9722 29.3453 31.9631 28.7803 31.9722 28.2148C32.0571 28.4539 32.2303 28.5815 32.4917 28.5977C32.8362 28.4847 33.1552 28.3206 33.4487 28.1055Z" fill="#ABE3A2"/>
<path fill-rule="evenodd" clip-rule="evenodd" d="M34.1602 30.7852C34.4518 30.7852 34.7435 30.7852 35.0352 30.7852C35.026 32.7722 35.0352 34.7592 35.0625 36.7461C35.2181 37.1302 35.5007 37.3307 35.9102 37.3477C35.9102 37.4935 35.9102 37.6393 35.9102 37.7852C35.3268 37.7852 34.7435 37.7852 34.1602 37.7852C34.1602 35.6523 34.1602 33.5195 34.1602 31.3867C34.1602 31.1862 34.1602 30.9857 34.1602 30.7852Z" fill="#FFC239"/>
<path fill-rule="evenodd" clip-rule="evenodd" d="M35.0347 30.7852C35.3263 30.7852 35.618 30.7852 35.9097 30.7852C35.9097 32.9727 35.9097 35.1602 35.9097 37.3477C35.5002 37.3307 35.2177 37.1302 35.062 36.7461C35.0347 34.7592 35.0255 32.7722 35.0347 30.7852Z" fill="#FFD45C"/>
<path fill-rule="evenodd" clip-rule="evenodd" d="M31.9727 32.5352C31.9635 33.9389 31.9727 35.3425 32 36.7461C32.1556 37.1302 32.4382 37.3307 32.8477 37.3477C32.8477 37.4935 32.8477 37.6393 32.8477 37.7852C32.2643 37.7852 31.681 37.7852 31.0977 37.7852C31.0977 37.0377 31.0977 36.2904 31.0977 35.543C31.0977 35.1784 31.0977 34.8138 31.0977 34.4492C31.0977 33.8112 31.0977 33.1732 31.0977 32.5352C31.3893 32.5352 31.681 32.5352 31.9727 32.5352Z" fill="#FFC239"/>
<path fill-rule="evenodd" clip-rule="evenodd" d="M31.9722 32.5352C32.2638 32.5352 32.5555 32.5352 32.8472 32.5352C32.8472 32.9909 32.8472 33.4466 32.8472 33.9023C32.8472 34.0117 32.8472 34.1211 32.8472 34.2305C32.8472 35.2695 32.8472 36.3086 32.8472 37.3477C32.4377 37.3307 32.1552 37.1302 31.9995 36.7461C31.9722 35.3425 31.963 33.9389 31.9722 32.5352Z" fill="#FFD45C"/>
<path fill-rule="evenodd" clip-rule="evenodd" d="M33.2305 33.7383C33.1221 33.9193 32.9945 34.0834 32.8477 34.2305C32.8477 34.1211 32.8477 34.0117 32.8477 33.9023C32.9673 33.8335 33.0948 33.7789 33.2305 33.7383Z" fill="#A7E2A0"/>
<path fill-rule="evenodd" clip-rule="evenodd" d="M21.1992 38.6602C22.0924 38.6602 22.9857 38.6602 23.8789 38.6602C28.1263 38.6602 32.3737 38.6602 36.6211 38.6602C39.4466 38.6602 42.2721 38.6602 45.0977 38.6602C45.0977 38.9518 45.0977 39.2435 45.0977 39.5352C36.3477 39.5352 27.5977 39.5352 18.8477 39.5352C18.8477 39.2435 18.8477 38.9518 18.8477 38.6602C19.6315 38.6602 20.4154 38.6602 21.1992 38.6602Z" fill="#FEC238"/>
<defs>
<clipPath id="clip0_14818_11254">
<rect width="64" height="64" fill="white"/>
</clipPath>
</defs>
</svg>
