<svg width="280" height="152" viewBox="0 0 280 152" fill="none" xmlns="http://www.w3.org/2000/svg">
<path fill-rule="evenodd" clip-rule="evenodd" d="M73.2908 27.6568V52.5361H69.3674C70.0997 52.5361 70.6934 51.9424 70.6934 51.21V28.9349C70.6934 28.2026 70.0997 27.6089 69.3674 27.6089H55.842H52.7921H39.2667C38.5343 27.6089 37.9407 28.2026 37.9407 28.9349V51.21C37.9407 51.9424 38.5343 52.5361 39.2667 52.5361H35.1253C35.6879 52.3825 36.1022 51.8694 36.1022 51.258V28.9828C36.1022 28.2505 35.5085 27.6568 34.7762 27.6568H21.2509H18.2011H4.67575C3.94341 27.6568 3.34975 28.2505 3.34975 28.9828V51.258C3.34975 51.8692 3.76387 52.3825 4.32647 52.5361H2.13423V27.6568H0V139.212H2.13423V130.051H73.2908V139.212H75.425V27.6568H73.2908ZM73.2908 54.5174V90.3028H69.3674C70.0997 90.3028 70.6934 89.7091 70.6934 88.9768V66.7016C70.6934 65.9693 70.0997 65.3756 69.3674 65.3756H55.842H52.7921H39.2667C38.5343 65.3756 37.9407 65.9693 37.9407 66.7016V88.9769C37.9407 89.7093 38.5343 90.3029 39.2667 90.3029H35.1253C35.6879 90.1495 36.1021 89.6362 36.1021 89.025V66.7497C36.1021 66.0174 35.5084 65.4237 34.776 65.4237H21.2508H18.201H4.67562C3.94328 65.4237 3.34962 66.0174 3.34962 66.7497V89.025C3.34962 89.6362 3.76373 90.1495 4.32634 90.3029H2.13409V54.5174H73.2908ZM69.3674 128.07C70.0997 128.07 70.6934 127.476 70.6934 126.744V104.468C70.6934 103.736 70.0997 103.142 69.3674 103.142H55.842H52.7921H39.2667C38.5343 103.142 37.9407 103.736 37.9407 104.468V126.744C37.9407 127.476 38.5343 128.07 39.2667 128.07H35.1253C35.6879 127.916 36.1021 127.403 36.1021 126.792V104.516C36.1021 103.784 35.5084 103.19 34.776 103.19H21.2508H18.201H4.67562C3.94328 103.19 3.34962 103.784 3.34962 104.516V126.792C3.34962 127.403 3.76373 127.916 4.32634 128.07H2.13409V92.2842H73.2906V128.07H69.3674Z" fill="#D7E7F4"/>
<path fill-rule="evenodd" clip-rule="evenodd" d="M159.412 27.6568V52.5361H155.488C156.221 52.5361 156.814 51.9424 156.814 51.21V28.9349C156.814 28.2026 156.221 27.6089 155.488 27.6089H141.963H138.913H125.388C124.656 27.6089 124.062 28.2026 124.062 28.9349V51.21C124.062 51.9424 124.656 52.5361 125.388 52.5361H121.247C121.809 52.3825 122.223 51.8694 122.223 51.258V28.9828C122.223 28.2505 121.63 27.6568 120.897 27.6568H107.372H104.322H90.7969C90.0645 27.6568 89.4709 28.2505 89.4709 28.9828V51.258C89.4709 51.8692 89.885 52.3825 90.4476 52.5361H88.2553V27.6568H86.1211V139.212H88.2553V130.051H159.412V139.212H161.546V27.6568H159.412ZM159.412 54.5174V90.3028H155.488C156.221 90.3028 156.814 89.7091 156.814 88.9768V66.7016C156.814 65.9693 156.221 65.3756 155.488 65.3756H141.963H138.913H125.388C124.656 65.3756 124.062 65.9693 124.062 66.7016V88.9769C124.062 89.7093 124.656 90.3029 125.388 90.3029H121.247C121.809 90.1495 122.223 89.6362 122.223 89.025V66.7497C122.223 66.0174 121.63 65.4237 120.897 65.4237H107.372H104.322H90.7969C90.0645 65.4237 89.4709 66.0174 89.4709 66.7497V89.025C89.4709 89.6362 89.885 90.1495 90.4476 90.3029H88.2553V54.5174H159.412ZM155.488 128.07C156.221 128.07 156.814 127.476 156.814 126.744V104.468C156.814 103.736 156.221 103.142 155.488 103.142H141.963H138.913H125.388C124.656 103.142 124.062 103.736 124.062 104.468V126.744C124.062 127.476 124.656 128.07 125.388 128.07H121.247C121.809 127.916 122.223 127.403 122.223 126.792V104.516C122.223 103.784 121.63 103.19 120.897 103.19H107.372H104.322H90.7969C90.0645 103.19 89.4709 103.784 89.4709 104.516V126.792C89.4709 127.403 89.885 127.916 90.4476 128.07H88.2553V92.2842H159.412V128.07H155.488Z" fill="#D7E7F4"/>
<path fill-rule="evenodd" clip-rule="evenodd" d="M245.533 27.6568V52.5361H241.61C242.342 52.5361 242.936 51.9424 242.936 51.21V28.9349C242.936 28.2026 242.342 27.6089 241.61 27.6089H228.084H225.035H211.509C210.777 27.6089 210.183 28.2026 210.183 28.9349V51.21C210.183 51.9424 210.777 52.5361 211.509 52.5361H207.368C207.93 52.3825 208.344 51.8694 208.344 51.258V28.9828C208.344 28.2505 207.751 27.6568 207.018 27.6568H193.493H190.443H176.918C176.186 27.6568 175.592 28.2505 175.592 28.9828V51.258C175.592 51.8692 176.006 52.3825 176.569 52.5361H174.376V27.6568H172.242V139.212H174.376V130.051H245.533V139.212H247.667V27.6568H245.533ZM245.533 54.5174V90.3028H241.61C242.342 90.3028 242.936 89.7091 242.936 88.9768V66.7016C242.936 65.9693 242.342 65.3756 241.61 65.3756H228.084H225.035H211.509C210.777 65.3756 210.183 65.9693 210.183 66.7016V88.9769C210.183 89.7093 210.777 90.3029 211.509 90.3029H207.368C207.93 90.1495 208.344 89.6362 208.344 89.025V66.7497C208.344 66.0174 207.751 65.4237 207.018 65.4237H193.493H190.443H176.918C176.186 65.4237 175.592 66.0174 175.592 66.7497V89.025C175.592 89.6362 176.006 90.1495 176.569 90.3029H174.376V54.5174H245.533ZM241.61 128.07C242.342 128.07 242.936 127.476 242.936 126.744V104.468C242.936 103.736 242.342 103.142 241.61 103.142H228.084H225.035H211.509C210.777 103.142 210.183 103.736 210.183 104.468V126.744C210.183 127.476 210.777 128.07 211.509 128.07H207.368C207.93 127.916 208.344 127.403 208.344 126.792V104.516C208.344 103.784 207.751 103.19 207.018 103.19H193.493H190.443H176.918C176.186 103.19 175.592 103.784 175.592 104.516V126.792C175.592 127.403 176.006 127.916 176.569 128.07H174.376V92.2842H245.533V128.07H241.61Z" fill="#D7E7F4"/>
<path fill-rule="evenodd" clip-rule="evenodd" d="M130.137 102.739H13.2291C12.9236 102.739 12.6758 102.491 12.6758 102.186V100.683C12.6758 100.378 12.9236 100.13 13.2291 100.13H130.137C130.443 100.13 130.691 100.378 130.691 100.683V102.186C130.69 102.491 130.443 102.739 130.137 102.739Z" fill="#1A2E35"/>
<path fill-rule="evenodd" clip-rule="evenodd" d="M129.986 149.579H127.574L116.613 102.739H119.025L129.986 149.579Z" fill="#1A2E35"/>
<path fill-rule="evenodd" clip-rule="evenodd" d="M13.375 149.579H15.7864L26.7476 102.739H24.3361L13.375 149.579Z" fill="#1A2E35"/>
<path fill-rule="evenodd" clip-rule="evenodd" d="M58.4252 112.424L46.9922 114.408C48.2133 116.342 47.5383 144.821 47.5383 144.821H52.6596C52.6596 144.821 58.8472 118.835 58.4252 112.424Z" fill="#1B5086"/>
<path fill-rule="evenodd" clip-rule="evenodd" d="M52.6598 144.821C52.6598 144.821 51.6214 147.356 54.6679 147.356C56.633 147.356 57.0179 148.471 56.8187 149.579H47.6913C47.2824 149.579 46.9607 149.229 46.9946 148.822L47.5383 144.821H52.6598Z" fill="#1A2E35"/>
<path fill-rule="evenodd" clip-rule="evenodd" d="M47.7674 101.435C47.7674 101.435 71.2396 106.7 71.6618 113.111C72.0839 119.522 64.1146 144.821 64.1146 144.821H58.9931C58.9931 144.821 61.1809 121.532 59.9598 119.598C58.8904 117.905 43.3353 117.69 39.3732 116.66C35.4111 115.63 47.7674 101.435 47.7674 101.435Z" fill="#2A5E98"/>
<path fill-rule="evenodd" clip-rule="evenodd" d="M64.1129 144.821C64.1129 144.821 63.0745 147.356 66.121 147.356C68.0862 147.356 68.471 148.471 68.2718 149.579H59.1444C58.7355 149.579 58.4138 149.23 58.4478 148.822L58.9914 144.821H64.1129Z" fill="#1A2E35"/>
<path fill-rule="evenodd" clip-rule="evenodd" d="M45.1216 73.3901C45.1216 73.3901 50.2574 73.3084 53.0033 77.5798C55.7491 81.8513 56.6667 83.6756 56.6667 83.6756L51.4172 87.0816L48.8601 82.9135L47.397 92.7707L46.3564 102.53L44.0888 102.448L27.5027 101.843L28.7936 85.9424L27.5027 90.4985L21.6328 89.0649L23.9331 79.1836C24.6739 75.789 27.5015 73.3592 31.1246 73.1685H34.7604L43.2397 73.3901H45.1216Z" fill="#0054A6"/>
<path fill-rule="evenodd" clip-rule="evenodd" d="M47.6496 106.557L47.7331 92.9481C45.9319 88.2437 44.8127 84.477 44.9593 79.4417L45.1271 73.2026L43.7364 73.1334L43.1394 81.1141C42.9323 83.7544 40.6861 85.7654 38.0391 85.6802C35.5595 85.6004 33.521 83.6994 33.2683 81.2314L32.4233 72.9761H31.027L30.908 81.4949C31.1165 85.7587 30.2342 89.5929 28.2603 93.076C28.2178 93.1509 28.1896 93.1878 28.1896 93.1878L26.582 106.557H47.6496Z" fill="#2A5E98"/>
<path fill-rule="evenodd" clip-rule="evenodd" d="M43.3531 55.2687C43.3531 55.2687 35.4585 54.9254 33.7423 56.2221C32.0262 57.5188 30.3862 61.9047 30.7295 64.3455C30.9555 65.9524 32.4418 67.9726 33.4311 69.1655C34.114 69.9888 35.0647 70.5546 36.12 70.7296C37.2158 70.9113 38.5001 70.8055 39.0054 69.5323C39.9588 67.1296 42.8572 60.1504 42.8572 60.1504L43.5758 60.7062C43.5758 60.7062 44.3064 58.7775 44.4971 57.824C44.6878 56.8704 43.3531 55.2687 43.3531 55.2687Z" fill="#F9D6AF"/>
<path fill-rule="evenodd" clip-rule="evenodd" d="M44.52 70.3714L44.395 66.4106L45.8122 65.8627L43.9172 62.567L42.9947 57.4741C42.9947 57.4741 41.53 64.6388 40.2127 64.3364C39.3955 64.1488 38.5201 63.4304 37.8274 64.2313C36.6521 65.59 39.0478 66.777 39.0478 67.4349C39.0478 67.9808 38.9522 71.2784 36.3794 70.7465C36.2257 70.7147 36.0365 72.6559 36.035 72.798L36.0019 73.0927C35.3434 73.1072 34.705 73.1328 34.0898 73.1683C34.0898 73.1683 34.7489 73.7622 35.8791 74.1871L35.8794 74.1872C36.5528 74.4403 37.3931 74.6334 38.3613 74.6049C40.9547 74.5286 42.8999 73.3811 42.8999 73.3811C42.2982 73.3172 41.6729 73.2617 41.028 73.2158L41.354 70.6108L44.52 70.3714Z" fill="#FCBBAE"/>
<path fill-rule="evenodd" clip-rule="evenodd" d="M41.3517 70.6113H39.3906L41.1461 72.2561L41.3517 70.6113Z" fill="#EAA196"/>
<path fill-rule="evenodd" clip-rule="evenodd" d="M26.5838 106.557C26.5838 106.557 25.5257 114.752 31.5178 114.752C39.3368 114.752 47.7348 114.752 47.7348 114.752L47.667 104.01L26.5838 106.557Z" fill="#2A5E98"/>
<path fill-rule="evenodd" clip-rule="evenodd" d="M53.492 116.125L53.393 115.31C53.2528 114.158 52.2743 113.291 51.1132 113.291H41.0859L38.0618 82.4386C37.9228 81.0213 36.7311 79.9407 35.3071 79.9407H15.3745C14.2394 79.9407 13.3517 80.9196 13.4625 82.0493L16.5704 113.756L16.8416 116.921C16.9279 117.926 17.7692 118.698 18.7783 118.698H51.2124C52.5906 118.698 53.6585 117.493 53.492 116.125Z" fill="#649EF8"/>
<path d="M35.2803 118.698H31.4805V144.821H35.2803V118.698Z" fill="#1A2E35"/>
<path fill-rule="evenodd" clip-rule="evenodd" d="M38.8623 121.256H27.9012C27.5179 121.256 27.207 120.945 27.207 120.562V118.698H39.5565V120.562C39.5565 120.945 39.2457 121.256 38.8623 121.256Z" fill="#1A2E35"/>
<path fill-rule="evenodd" clip-rule="evenodd" d="M44.2261 144.626H43.5386H42.8511H23.8749H23.2239H22.4999C22.1397 144.626 21.8477 144.918 21.8477 145.278V148.688C21.8477 149.049 22.1396 149.341 22.4999 149.341H23.8748C24.235 149.341 24.527 149.049 24.527 148.688V145.906H42.1988V148.688C42.1988 149.049 42.4909 149.341 42.8511 149.341H44.2261C44.5863 149.341 44.8783 149.049 44.8783 148.688V145.278C44.8782 144.918 44.5863 144.626 44.2261 144.626Z" fill="#1A2E35"/>
<path fill-rule="evenodd" clip-rule="evenodd" d="M34.286 53.4624C35.7578 52.8618 37.164 52.6285 38.4658 52.7693C42.4803 53.2031 44.1131 56.9413 44.1807 57.1001L30.3707 63.8296C30.004 63.5325 29.7375 62.809 29.5764 61.6691C29.3792 60.2752 29.1362 55.564 34.286 53.4624Z" fill="#10AD92"/>
<path fill-rule="evenodd" clip-rule="evenodd" d="M43.3341 57.535C43.3082 57.5852 31.157 63.4446 31.157 63.4446C30.8711 63.6747 28.5386 56.8778 34.6577 54.3807C40.9086 51.8297 43.3341 57.535 43.3341 57.535Z" fill="#0054A6"/>
<path fill-rule="evenodd" clip-rule="evenodd" d="M42.9872 57.7144L45.6921 56.4442C46.0386 56.2814 45.995 55.7752 45.6256 55.6743L44.0568 55.2453C43.1888 55.0079 42.2622 55.3009 41.6884 55.9941L40.0328 57.9943L29.7812 63.0441L30.2548 63.9468L42.9872 57.7144Z" fill="#10AD92"/>
<path d="M111.815 93.7067H64.9018C64.0542 93.7067 63.3672 93.0196 63.3672 92.1722V62.3578C63.3672 61.5104 64.0542 60.8232 64.9018 60.8232H111.815C112.663 60.8232 113.35 61.5102 113.35 62.3578V92.1722C113.35 93.0198 112.663 93.7067 111.815 93.7067Z" fill="#0054A6"/>
<path d="M111.486 62.4312H65.2305V89.7669H111.486V62.4312Z" fill="#D7E7F4"/>
<path d="M93.2359 93.7065H83.4805V100.13H93.2359V93.7065Z" fill="#048E74"/>
<path d="M72.1642 68.7168H68.0352V72.8459H72.1642V68.7168Z" fill="white"/>
<path d="M87.2069 68.7168H73.4688V69.6638H87.2069V68.7168Z" fill="white"/>
<path d="M87.2069 70.3081H73.4688V71.2551H87.2069V70.3081Z" fill="white"/>
<path d="M80.6971 71.8989H73.4688V72.846H80.6971V71.8989Z" fill="white"/>
<path d="M68.9961 70.6166C68.9961 71.2274 69.8615 72.052 70.102 72.052C70.3691 72.052 71.2078 71.2273 71.2078 70.6166C71.2078 70.0059 70.7127 69.5107 70.102 69.5107C69.4911 69.5107 68.9961 70.0059 68.9961 70.6166Z" fill="#0054A6"/>
<path d="M69.5508 70.4224C69.5508 70.7236 69.795 70.9678 70.0962 70.9678C70.3974 70.9678 70.6417 70.7236 70.6417 70.4224C70.6417 70.1212 70.3974 69.877 70.0962 69.877C69.7949 69.877 69.5508 70.1211 69.5508 70.4224Z" fill="white"/>
<path d="M72.1642 75.0198H68.0352V79.1489H72.1642V75.0198Z" fill="white"/>
<path d="M87.2069 75.0198H73.4688V75.9668H87.2069V75.0198Z" fill="white"/>
<path d="M87.2069 76.6106H73.4688V77.5576H87.2069V76.6106Z" fill="white"/>
<path d="M80.6971 78.2017H73.4688V79.1487H80.6971V78.2017Z" fill="white"/>
<path d="M68.9961 76.9196C68.9961 77.5304 69.8615 78.355 70.102 78.355C70.3691 78.355 71.2078 77.5303 71.2078 76.9196C71.2078 76.3089 70.7127 75.8137 70.102 75.8137C69.4911 75.8137 68.9961 76.3087 68.9961 76.9196Z" fill="#0054A6"/>
<path d="M69.5508 76.7259C69.5508 77.0271 69.795 77.2713 70.0962 77.2713C70.3974 77.2713 70.6417 77.0271 70.6417 76.7259C70.6417 76.4247 70.3974 76.1804 70.0962 76.1804C69.7949 76.1804 69.5508 76.4247 69.5508 76.7259Z" fill="white"/>
<path d="M72.1642 81.3237H68.0352V85.4528H72.1642V81.3237Z" fill="white"/>
<path d="M87.2069 81.3235H73.4688V82.2705H87.2069V81.3235Z" fill="white"/>
<path d="M87.2069 82.9148H73.4688V83.8618H87.2069V82.9148Z" fill="white"/>
<path d="M80.6971 84.5056H73.4688V85.4527H80.6971V84.5056Z" fill="white"/>
<path d="M68.9961 83.2233C68.9961 83.8341 69.8615 84.6587 70.102 84.6587C70.3691 84.6587 71.2078 83.834 71.2078 83.2233C71.2078 82.6126 70.7127 82.1174 70.102 82.1174C69.4911 82.1174 68.9961 82.6125 68.9961 83.2233Z" fill="#0054A6"/>
<path d="M70.0962 83.575C70.3975 83.575 70.6417 83.3308 70.6417 83.0296C70.6417 82.7283 70.3975 82.4841 70.0962 82.4841C69.795 82.4841 69.5508 82.7283 69.5508 83.0296C69.5508 83.3308 69.795 83.575 70.0962 83.575Z" fill="white"/>
<path d="M93.6486 68.7168H89.5195V72.8459H93.6486V68.7168Z" fill="white"/>
<path d="M108.687 68.7168H94.9492V69.6638H108.687V68.7168Z" fill="white"/>
<path d="M108.687 70.3079H94.9492V71.2549H108.687V70.3079Z" fill="white"/>
<path d="M102.178 71.8989H94.9492V72.846H102.178V71.8989Z" fill="white"/>
<path d="M90.4727 70.6169C90.4727 71.2277 91.3381 72.0523 91.5785 72.0523C91.8457 72.0523 92.6844 71.2276 92.6844 70.6169C92.6844 70.0062 92.1892 69.511 91.5785 69.511C90.9678 69.511 90.4727 70.0062 90.4727 70.6169Z" fill="#0054A6"/>
<path d="M91.0352 70.4226C91.0352 70.7238 91.2794 70.9681 91.5806 70.9681C91.8818 70.9681 92.126 70.7238 92.126 70.4226C92.126 70.1215 91.8818 69.8772 91.5806 69.8772C91.2794 69.8772 91.0352 70.1213 91.0352 70.4226Z" fill="white"/>
<path d="M93.6486 75.0198H89.5195V79.1489H93.6486V75.0198Z" fill="white"/>
<path d="M108.687 75.0195H94.9492V75.9666H108.687V75.0195Z" fill="white"/>
<path d="M108.687 76.6104H94.9492V77.5574H108.687V76.6104Z" fill="white"/>
<path d="M102.178 78.2017H94.9492V79.1487H102.178V78.2017Z" fill="white"/>
<path d="M90.4727 76.9193C90.4727 77.5302 91.3381 78.3547 91.5785 78.3547C91.8457 78.3547 92.6844 77.53 92.6844 76.9193C92.6844 76.3086 92.1892 75.8135 91.5785 75.8135C90.9678 75.8135 90.4727 76.3085 90.4727 76.9193Z" fill="#0054A6"/>
<path d="M91.0352 76.7256C91.0352 77.0268 91.2794 77.2711 91.5806 77.2711C91.8818 77.2711 92.126 77.0268 92.126 76.7256C92.126 76.4244 91.8818 76.1802 91.5806 76.1802C91.2794 76.1802 91.0352 76.4244 91.0352 76.7256Z" fill="white"/>
<path d="M93.6486 81.3237H89.5195V85.4528H93.6486V81.3237Z" fill="white"/>
<path d="M108.687 81.3235H94.9492V82.2705H108.687V81.3235Z" fill="white"/>
<path d="M108.687 82.9146H94.9492V83.8616H108.687V82.9146Z" fill="white"/>
<path d="M102.178 84.5056H94.9492V85.4527H102.178V84.5056Z" fill="white"/>
<path d="M90.4727 83.2231C90.4727 83.8339 91.3381 84.6585 91.5785 84.6585C91.8457 84.6585 92.6844 83.8338 92.6844 83.2231C92.6844 82.6124 92.1892 82.1172 91.5785 82.1172C90.9678 82.1172 90.4727 82.6122 90.4727 83.2231Z" fill="#0054A6"/>
<path d="M91.5806 83.5748C91.8818 83.5748 92.126 83.3306 92.126 83.0293C92.126 82.7281 91.8818 82.4839 91.5806 82.4839C91.2794 82.4839 91.0352 82.7281 91.0352 83.0293C91.0352 83.3306 91.2794 83.5748 91.5806 83.5748Z" fill="white"/>
<path d="M111.486 62.4312H65.2305V64.6964H111.486V62.4312Z" fill="white"/>
<path d="M67.0797 63.6184C67.0797 63.9715 66.7934 64.2579 66.4402 64.2579C66.087 64.2579 65.8008 63.9717 65.8008 63.6184C65.8008 63.2653 66.087 62.979 66.4402 62.979C66.7934 62.979 67.0797 63.2653 67.0797 63.6184Z" fill="#0054A6"/>
<path d="M69.0914 63.6184C69.0914 63.9715 68.8052 64.2579 68.4519 64.2579C68.0987 64.2579 67.8125 63.9717 67.8125 63.6184C67.8125 63.2653 68.0987 62.979 68.4519 62.979C68.8052 62.979 69.0914 63.2653 69.0914 63.6184Z" fill="#0054A6"/>
<path d="M71.0992 63.6184C71.0992 63.9715 70.813 64.2579 70.4597 64.2579C70.1065 64.2579 69.8203 63.9717 69.8203 63.6184C69.8203 63.2653 70.1065 62.979 70.4597 62.979C70.813 62.979 71.0992 63.2653 71.0992 63.6184Z" fill="#0054A6"/>
<path d="M93.9194 62.979H72.6914V64.2577H93.9194V62.979Z" fill="white"/>
<path d="M87.2088 98.9697H54.8906V100.156H87.2088V98.9697Z" fill="#2A5E98"/>
<path fill-rule="evenodd" clip-rule="evenodd" d="M77.2489 97.3216C76.8348 97.2562 76.1918 97.2494 75.6072 97.2618L59.9546 88.7962L56.6675 83.6753L51.418 87.0813C51.418 87.0813 54.9733 92.1212 55.6675 92.8884C56.2438 93.5254 69.4856 97.5367 73.9664 98.8808C74.216 99.177 74.8626 99.9803 75.5191 100.13C75.7805 100.189 79.6357 100.13 79.6357 100.13C79.6357 100.13 78.1745 97.4677 77.2489 97.3216Z" fill="#FCBBAE"/>
<path fill-rule="evenodd" clip-rule="evenodd" d="M79.8324 100.13H72.8633C72.8633 98.9153 73.8479 97.9307 75.0625 97.9307H77.6332C78.8477 97.9307 79.8324 98.9153 79.8324 100.13Z" fill="#0054A6"/>
<path fill-rule="evenodd" clip-rule="evenodd" d="M173.048 57.3476L175.485 43.3947C175.556 42.9905 175.906 42.6956 176.317 42.6956H185.835C186.359 42.6956 186.757 43.1687 186.667 43.6852L184.23 57.6381C184.159 58.0423 183.808 58.3372 183.398 58.3372H173.88C173.355 58.3374 172.958 57.8643 173.048 57.3476Z" fill="#2A5E98"/>
<path fill-rule="evenodd" clip-rule="evenodd" d="M183.045 57.1812H174.285L176.669 43.5347H185.429L183.045 57.1812Z" fill="white"/>
<path fill-rule="evenodd" clip-rule="evenodd" d="M182.227 42.2596H181.624C181.592 42.0439 181.452 41.85 181.234 41.7647C180.91 41.6379 180.545 41.7976 180.418 42.1212C180.4 42.1669 180.39 42.2132 180.383 42.2596H179.788C179.64 42.2596 179.512 42.3629 179.482 42.5074L179.105 44.2877C179.063 44.4821 179.212 44.6651 179.41 44.6651H181.849C181.997 44.6651 182.124 44.5618 182.155 44.4173L182.532 42.637C182.573 42.4426 182.425 42.2596 182.227 42.2596Z" fill="#1A2E35"/>
<path fill-rule="evenodd" clip-rule="evenodd" d="M162.363 56.2605C162.363 56.2605 167.853 56.173 170.788 60.7391C173.724 65.3052 174.977 67.0787 174.977 67.0787L170.218 71.3391L166.36 66.4409L164.795 76.9782L163.683 87.411L161.259 87.3225L143.529 86.6763L144.909 69.6786L143.529 74.549L137.254 73.0165L139.713 62.4535C140.505 58.8248 143.527 56.2272 147.401 56.0234H151.287L160.351 56.2603L162.363 56.2605Z" fill="#0054A6"/>
<path fill-rule="evenodd" clip-rule="evenodd" d="M165.067 97.7658C165.184 95.7508 165.183 93.7307 165.065 91.7157L165.154 77.1683C163.229 72.1393 162.032 68.1128 162.189 62.7301L162.369 56.0606L160.882 55.9866L160.244 64.5179C160.022 67.3404 157.621 69.49 154.792 69.399C152.141 69.3137 149.962 67.2815 149.692 64.6432L148.788 55.8184H147.296L147.169 64.9248C147.392 69.4828 146.448 73.5815 144.338 77.3049C144.293 77.385 144.263 77.4245 144.263 77.4245L142.032 90.9515C141.634 93.3658 141.407 95.8053 141.353 98.2517L140.324 145.567H146.625L153.135 103.343L156.012 145.567H162.313L165.067 97.7658Z" fill="#2A5E98"/>
<path fill-rule="evenodd" clip-rule="evenodd" d="M162.315 145.567C162.315 145.567 162.263 147.684 164.228 148.118C166.192 148.552 166.998 148.719 166.998 150.465H156.383C155.965 150.465 155.636 150.107 155.67 149.69L156.014 145.567H162.315Z" fill="#1A2E35"/>
<path fill-rule="evenodd" clip-rule="evenodd" d="M146.627 145.567C146.627 145.567 145.873 147.755 147.837 148.189C149.801 148.623 150.242 149.331 150.038 150.465H140.696C140.277 150.465 139.948 150.107 139.983 149.69L140.327 145.567H146.627Z" fill="#1A2E35"/>
<path fill-rule="evenodd" clip-rule="evenodd" d="M143.528 74.5491C143.528 74.5491 142.359 79.1532 142.359 79.2756C142.359 79.3979 142.955 85.3589 142.955 85.3589L141.712 93.2003C141.712 93.2003 136.407 80.1759 136.406 79.3843C136.404 76.9653 137.254 73.0166 137.254 73.0166L143.528 74.5491Z" fill="#FCBBAE"/>
<path fill-rule="evenodd" clip-rule="evenodd" d="M185.559 50.0322L185.222 51.3625C185.222 51.3625 184.508 53.6659 184.488 53.7475C184.467 53.8291 184.304 53.0341 184.304 52.6059C184.304 52.1778 184.794 51.0363 184.549 50.8324C184.304 50.6286 183.387 52.3817 183.183 52.9116C182.98 53.4417 183.328 55.6922 183.328 55.6922L176.22 68.7646L174.978 67.0788L170.219 71.3391L174.546 76.2646C174.885 76.6506 175.352 76.9152 175.863 76.9675C176.729 77.0562 177.532 76.5782 177.878 75.8089L185.979 56.8715C186.111 56.5634 186.208 56.242 186.269 55.9125C186.408 55.1643 186.652 53.7847 186.681 53.1764C186.721 52.3205 185.559 50.0322 185.559 50.0322Z" fill="#FCBBAE"/>
<path fill-rule="evenodd" clip-rule="evenodd" d="M160.473 36.8892C160.473 36.8892 152.034 36.5223 150.199 37.9084C148.365 39.2946 146.612 43.983 146.979 46.5922C147.22 48.3099 148.809 50.4695 149.867 51.7447C150.597 52.6249 151.613 53.2297 152.741 53.4167C153.913 53.611 155.286 53.4978 155.826 52.1368C156.845 49.5684 159.943 42.1075 159.943 42.1075L160.711 42.7016C160.711 42.7016 161.492 40.6398 161.696 39.6206C161.9 38.6015 160.473 36.8892 160.473 36.8892Z" fill="#1A2E35"/>
<path fill-rule="evenodd" clip-rule="evenodd" d="M161.716 53.0337L161.583 48.7996L163.098 48.2138L161.072 44.6908L160.086 39.2466C160.086 39.2466 158.52 46.9057 157.112 46.5824C156.238 46.3819 155.302 45.6139 154.562 46.4699C153.305 47.9224 155.866 49.1912 155.866 49.8944C155.866 50.4782 155.764 54.0032 153.014 53.4345C152.85 53.4006 152.647 55.4755 152.646 55.6276L152.61 55.9425C151.906 55.9582 151.224 55.9854 150.566 56.0234C150.566 56.0234 151.271 56.6584 152.479 57.1126V57.1127H152.479C153.199 57.3832 154.098 57.5896 155.132 57.5591C157.905 57.4776 159.984 56.2508 159.984 56.2508C159.341 56.1824 158.673 56.1233 157.983 56.0742L158.332 53.2896L161.716 53.0337Z" fill="#FCBBAE"/>
<path fill-rule="evenodd" clip-rule="evenodd" d="M158.331 53.2903H156.234L158.111 55.0485L158.331 53.2903Z" fill="#EAA196"/>
<path d="M177.153 47.8517C179.11 47.8517 181.067 47.8517 183.024 47.8517C183.332 47.8517 183.333 47.3726 183.024 47.3726C181.067 47.3726 179.11 47.3726 177.153 47.3726C176.845 47.3726 176.844 47.8517 177.153 47.8517Z" fill="#EDF0F7"/>
<path d="M176.927 49.618C178.883 49.618 180.84 49.618 182.797 49.618C183.106 49.618 183.106 49.1389 182.797 49.1389C180.84 49.1389 178.883 49.1389 176.927 49.1389C176.618 49.1389 176.618 49.618 176.927 49.618Z" fill="#EDF0F7"/>
<path d="M176.485 51.3846C178.442 51.3846 180.399 51.3846 182.356 51.3846C182.664 51.3846 182.665 50.9055 182.356 50.9055C180.399 50.9055 178.442 50.9055 176.485 50.9055C176.177 50.9055 176.176 51.3846 176.485 51.3846Z" fill="#EDF0F7"/>
<path d="M176.165 53.1515C178.122 53.1515 180.079 53.1515 182.036 53.1515C182.344 53.1515 182.344 52.6724 182.036 52.6724C180.079 52.6724 178.122 52.6724 176.165 52.6724C175.857 52.6725 175.856 53.1515 176.165 53.1515Z" fill="#EDF0F7"/>
<path fill-rule="evenodd" clip-rule="evenodd" d="M150.516 34.0986C151.988 33.498 153.394 33.2648 154.696 33.4055C158.711 33.8394 160.344 37.5775 160.411 37.7363L146.601 44.4658C146.234 44.1687 145.968 43.4452 145.807 42.3053C145.61 40.9114 145.367 36.2003 150.516 34.0986Z" fill="#10AD92"/>
<path fill-rule="evenodd" clip-rule="evenodd" d="M159.565 38.1707C159.539 38.221 147.387 44.0804 147.387 44.0804C147.102 44.3106 144.769 37.5136 150.888 35.0164C157.139 32.4655 159.565 38.1707 159.565 38.1707Z" fill="#0054A6"/>
<path fill-rule="evenodd" clip-rule="evenodd" d="M159.21 38.35L161.915 37.0797C162.261 36.9169 162.218 36.4107 161.848 36.3098L160.279 35.8808C159.411 35.6434 158.485 35.9364 157.911 36.6296L156.255 38.6298L146.004 43.6796L146.477 44.5824L159.21 38.35Z" fill="#10AD92"/>
<path d="M191.162 97.801H188.859V139.199H191.162V97.801Z" fill="#002D64"/>
<path d="M176.748 97.8011C175.093 97.8011 173.746 96.4545 173.746 94.7992V84.4862C173.746 82.831 175.093 81.4844 176.748 81.4844H203.271C204.926 81.4844 206.273 82.831 206.273 84.4862V94.7992C206.273 96.4545 204.926 97.8011 203.271 97.8011H176.748Z" fill="#2A5E98"/>
<path d="M204.469 84.4858V94.7986C204.469 95.4606 203.934 95.9981 203.272 95.9981H176.748C176.088 95.9981 175.551 95.4607 175.551 94.7986V84.4858C175.551 83.8239 176.088 83.2881 176.748 83.2881H203.272C203.934 83.2881 204.469 83.8239 204.469 84.4858Z" fill="#EEF5FB"/>
<path d="M188.304 81.4844H186.094V80.4018C186.094 80.2919 186.183 80.2026 186.293 80.2026H188.105C188.215 80.2026 188.304 80.2919 188.304 80.4018L188.304 81.4844Z" fill="#002D64"/>
<path d="M191.113 81.4844H188.902V80.4018C188.902 80.2919 188.992 80.2026 189.101 80.2026H190.914C191.023 80.2026 191.113 80.2919 191.113 80.4018V81.4844Z" fill="#002D64"/>
<path d="M193.921 81.4844H191.711V80.4018C191.711 80.2919 191.8 80.2026 191.91 80.2026H193.722C193.832 80.2026 193.921 80.2919 193.921 80.4018V81.4844H193.921Z" fill="#002D64"/>
<g opacity="0.55">
<path d="M187.145 83.2883L183.154 95.9983H176.523L180.883 83.2883H187.145Z" fill="#C0E0F5"/>
</g>
<g opacity="0.55">
<path d="M200.318 83.2881L196.834 95.9981H190.203L194.056 83.2881H200.318Z" fill="#C0E0F5"/>
</g>
<g opacity="0.55">
<path d="M191.71 83.2881L187.699 95.9983L185.438 95.9979L189.408 83.2876L191.71 83.2881Z" fill="#C0E0F5"/>
</g>
<path d="M279.266 145.344H170.959C170.553 145.344 170.223 145.014 170.223 144.607V139.936C170.223 139.529 170.553 139.199 170.959 139.199H279.266C279.673 139.199 280.003 139.529 280.003 139.936V144.607C280.003 145.014 279.673 145.344 279.266 145.344Z" fill="#2A5E98"/>
<path d="M178.006 145.344H174.414V151.49H178.006V145.344Z" fill="#1A2E35"/>
<path d="M275.814 145.344H272.223V151.49H275.814V145.344Z" fill="#1A2E35"/>
<path d="M205.155 139.189H182.691C182.204 139.189 181.809 138.794 181.809 138.307V109.956C181.809 109.468 182.204 109.073 182.691 109.073H205.155C205.642 109.073 206.038 109.468 206.038 109.956V138.307C206.037 138.794 205.642 139.189 205.155 139.189Z" fill="#AC8C6D"/>
<path d="M195.622 113.491L193.922 112.604L192.223 113.491V109.073H195.622V113.491Z" fill="#E5BB91"/>
<path d="M252.58 104H234.214C233.826 104 233.512 103.686 233.512 103.298V81.3044C233.512 80.9162 233.826 80.6016 234.214 80.6016H252.58C252.968 80.6016 253.282 80.9162 253.282 81.3044V103.298C253.283 103.686 252.968 104 252.58 104Z" fill="#AC8C6D"/>
<path d="M244.785 84.0339L243.399 83.345L242.012 84.0339V80.6016H244.785V84.0339Z" fill="#F9D6AF"/>
<path d="M237.335 139.189H207.192C206.555 139.189 206.039 138.673 206.039 138.036V101.938C206.039 101.301 206.555 100.785 207.192 100.785H237.335C237.972 100.785 238.489 101.301 238.489 101.938V138.036C238.489 138.673 237.972 139.189 237.335 139.189Z" fill="#F9D6AF"/>
<path d="M224.54 106.418L222.264 105.287L219.988 106.418V100.785H224.54V106.418Z" fill="#E5BB91"/>
<path d="M267.097 139.19H239.475C238.891 139.19 238.418 138.716 238.418 138.133V105.054C238.418 104.47 238.891 103.997 239.475 103.997H267.097C267.681 103.997 268.154 104.47 268.154 105.054V138.133C268.154 138.717 267.681 139.19 267.097 139.19Z" fill="#E5BB91"/>
<path d="M255.371 109.159L253.285 108.123L251.199 109.159V103.997H255.371V109.159Z" fill="#F9D6AF"/>
<path d="M61.4881 0C58.1335 0 55.4141 2.71945 55.4141 6.07411C55.4141 7.44071 55.8656 8.70189 56.6274 9.71676L56.1619 12.5177L59.1633 11.6864C59.8795 11.9834 60.6645 12.1482 61.4881 12.1482C64.8427 12.1482 67.5622 9.42877 67.5622 6.07411C67.5622 2.71945 64.8427 0 61.4881 0Z" fill="#0054A6"/>
<path d="M64.2182 3.51318L60.9155 6.81594L59.2607 5.16109L58.4219 5.99996L60.0766 7.65468L60.8655 8.44369L60.9155 8.49355L65.0571 4.35205L64.2182 3.51318Z" fill="white"/>
<path d="M99.188 0H71.9609V2.39973H99.188V0Z" fill="#D7E7F4"/>
<path d="M99.188 5.05908H71.9609V7.45881H99.188V5.05908Z" fill="#D7E7F4"/>
<path d="M85.5745 10.1179H71.9609V12.5177H85.5745V10.1179Z" fill="#D7E7F4"/>
<path d="M109.703 0C106.348 0 103.629 2.71945 103.629 6.07411C103.629 7.44071 104.08 8.70189 104.842 9.71676L104.377 12.5177L107.378 11.6864C108.094 11.9834 108.879 12.1482 109.703 12.1482C113.058 12.1482 115.777 9.42877 115.777 6.07411C115.777 2.71945 113.058 0 109.703 0Z" fill="#0054A6"/>
<path d="M112.433 3.51318L109.13 6.81594L107.476 5.16109L106.637 5.99996L108.291 7.65468L109.08 8.44369L109.13 8.49355L113.272 4.35205L112.433 3.51318Z" fill="white"/>
<path d="M147.403 0H120.176V2.39973H147.403V0Z" fill="#D7E7F4"/>
<path d="M147.403 5.05884H120.176V7.45856H147.403V5.05884Z" fill="#D7E7F4"/>
<path d="M133.789 10.1179H120.176V12.5177H133.789V10.1179Z" fill="#D7E7F4"/>
<path d="M157.918 0C154.563 0 151.844 2.71945 151.844 6.07411C151.844 7.44071 152.295 8.70189 153.057 9.71676L152.592 12.5177L155.593 11.6864C156.309 11.9834 157.094 12.1482 157.918 12.1482C161.272 12.1482 163.992 9.42877 163.992 6.07411C163.992 2.71945 161.272 0 157.918 0Z" fill="#0054A6"/>
<path d="M160.648 3.51318L157.345 6.81594L155.69 5.16109L154.852 5.99996L156.506 7.65468L157.295 8.44369L157.345 8.49355L161.487 4.35205L160.648 3.51318Z" fill="white"/>
<path d="M195.621 0H168.395V2.39973H195.621V0Z" fill="#D7E7F4"/>
<path d="M195.621 5.05884H168.395V7.45856H195.621V5.05884Z" fill="#D7E7F4"/>
<path d="M182.008 10.1179H168.395V12.5177H182.008V10.1179Z" fill="#D7E7F4"/>
</svg>
