<svg width="40" height="40" viewBox="0 0 40 40" fill="none" xmlns="http://www.w3.org/2000/svg">
<g clip-path="url(#clip0_14405_62146)">
<path fill-rule="evenodd" clip-rule="evenodd" d="M38.0078 11.6797C37.93 11.6864 37.8649 11.6603 37.8125 11.6016C37.7864 12.4349 37.7603 13.2682 37.7343 14.1016C37.6602 14.3125 37.5169 14.3776 37.3046 14.2969C31.4814 10.7214 25.648 7.1667 19.8046 3.63281C13.5967 7.40108 7.39875 11.1902 1.21089 15C1.0511 15.0383 0.894846 15.0252 0.742142 14.9609C0.716181 14.022 0.742223 13.0845 0.820267 12.1484C7.11617 8.23266 13.4443 4.37851 19.8046 0.585938C20.0021 0.606466 20.1844 0.67157 20.3515 0.78125C26.255 4.39645 32.1404 8.0293 38.0078 11.6797Z" fill="#847782"/>
<path fill-rule="evenodd" clip-rule="evenodd" d="M38.0087 11.6797C38.3364 11.8112 38.6358 11.9934 38.9072 12.2266C38.9593 13.4245 38.9593 14.6224 38.9072 15.8203C38.7822 15.9403 38.639 15.9794 38.4775 15.9375C37.5118 15.3507 36.5483 14.7648 35.5869 14.1797C35.3458 13.967 35.0853 13.7716 34.8056 13.5938C29.799 10.5633 24.8121 7.50336 19.8447 4.41406C14.5578 7.65858 9.28435 10.9137 4.02435 14.1797C3.03253 14.7933 2.02992 15.3923 1.01654 15.9766C0.918002 15.9563 0.839877 15.9042 0.782167 15.8203C0.743211 15.535 0.73019 15.2486 0.743104 14.9609C0.895807 15.0252 1.05206 15.0383 1.21185 15C7.39971 11.1902 13.5976 7.40108 19.8056 3.63281C25.649 7.1667 31.4823 10.7214 37.3056 14.2969C37.5179 14.3776 37.6612 14.3125 37.7353 14.1016C37.7613 13.2682 37.7874 12.4349 37.8134 11.6016C37.8658 11.6603 37.9309 11.6864 38.0087 11.6797Z" fill="#786B77"/>
<path fill-rule="evenodd" clip-rule="evenodd" d="M35.5859 14.1797C35.5859 16.1068 35.5859 18.0338 35.5859 19.9609C35.4751 20.0352 35.3449 20.0612 35.1953 20.0391C35.2262 19.8403 35.1741 19.671 35.0391 19.5312C34.8061 19.4923 34.5717 19.4793 34.3359 19.4922C34.3359 19.4662 34.3359 19.4401 34.3359 19.4141C34.3615 17.6504 34.3355 15.8926 34.2578 14.1406C29.4485 11.1926 24.6309 8.26289 19.8047 5.35156C14.5429 8.55523 9.2825 11.7584 4.02344 14.9609C4.02344 14.7005 4.02344 14.4401 4.02344 14.1797C9.28344 10.9137 14.5569 7.65858 19.8438 4.41406C24.8112 7.50336 29.7981 10.5633 34.8047 13.5938C35.0844 13.7716 35.3448 13.967 35.5859 14.1797Z" fill="#FDCF64"/>
<path opacity="0.999" fill-rule="evenodd" clip-rule="evenodd" d="M34.335 19.4141C33.8662 19.4141 33.3975 19.4141 32.9287 19.4141C32.9544 18.3065 32.9284 17.2127 32.8506 16.1328C32.8563 16.0135 32.8042 15.9354 32.6943 15.8984C24.1136 15.8073 15.5199 15.7943 6.91309 15.8594C6.87402 15.8984 6.83496 15.9375 6.7959 15.9766C6.75684 17.7212 6.74382 19.4659 6.75684 21.2109C6.75684 26.4713 6.75684 31.7318 6.75684 36.9922C6.75684 37.0703 6.75684 37.1484 6.75684 37.2266C6.75684 37.3047 6.75684 37.3828 6.75684 37.4609C5.89707 37.474 5.0377 37.4609 4.17871 37.4219C4.13965 37.3828 4.10059 37.3438 4.06152 37.3047C4.02246 29.8568 4.00944 22.4089 4.02246 14.9609C9.28152 11.7584 14.5419 8.55523 19.8037 5.35156C24.6299 8.26289 29.4475 11.1926 34.2568 14.1406C34.3345 15.8926 34.3605 17.6504 34.335 19.4141Z" fill="#FEE076"/>
<path fill-rule="evenodd" clip-rule="evenodd" d="M15.7423 9.96095C16.7583 9.9479 17.7739 9.96095 18.7892 10C18.8283 10.0391 18.8673 10.0781 18.9064 10.1172C18.9706 11.1777 18.9576 12.2324 18.8673 13.2813C18.3153 13.3697 17.7554 13.4088 17.1876 13.3984C15.6299 13.8182 15.096 13.2453 15.5861 11.6797C15.5888 11.0884 15.6409 10.5155 15.7423 9.96095Z" fill="#FFD064"/>
<path fill-rule="evenodd" clip-rule="evenodd" d="M20.8993 9.96095C21.9153 9.9479 22.9309 9.96095 23.9462 10C23.9853 10.0391 24.0243 10.0781 24.0634 10.1172C24.1155 11.1588 24.1155 12.2006 24.0634 13.2422C24.0243 13.2813 23.9853 13.3203 23.9462 13.3594C22.8857 13.4236 21.831 13.4106 20.7822 13.3203C20.6548 12.26 20.6288 11.1923 20.704 10.1172C20.7818 10.073 20.8468 10.0209 20.8993 9.96095Z" fill="#FFD064"/>
<path fill-rule="evenodd" clip-rule="evenodd" d="M32.6953 15.8984C32.8052 15.9353 32.8573 16.0134 32.8516 16.1327C32.8516 17.2265 32.8516 18.3202 32.8516 19.414C32.4 18.3563 31.6448 18.0567 30.5859 18.5156C30.3584 18.673 30.1762 18.8683 30.0391 19.1015C22.3047 19.1015 14.5703 19.1015 6.83594 19.1015C6.83594 18.7369 6.83594 18.3724 6.83594 18.0077C15.1953 18.0077 23.5547 18.0077 31.9141 18.0077C31.9388 17.311 31.9128 16.6209 31.8359 15.9374C32.1213 15.8984 32.4077 15.8855 32.6953 15.8984Z" fill="#776A77"/>
<path fill-rule="evenodd" clip-rule="evenodd" d="M32.851 19.4143C33.3311 19.4916 33.8258 19.5176 34.3353 19.4924C34.5711 19.4795 34.8055 19.4925 35.0385 19.5314C35.1736 19.6712 35.2257 19.8405 35.1947 20.0393C35.1947 20.4039 35.1947 20.7684 35.1947 21.133C35.2077 21.4986 35.1946 21.8631 35.1557 22.2268C35.1166 22.2658 35.0775 22.3049 35.0385 22.3439C32.5906 22.3961 30.1426 22.3961 27.6947 22.3439C27.6189 21.9477 27.5928 21.5441 27.6166 21.133C27.6415 20.7531 27.6155 20.3885 27.5385 20.0393C27.4962 19.793 27.5743 19.5977 27.7728 19.4533C28.5015 19.4143 29.2307 19.4013 29.9603 19.4143C29.9551 19.3003 29.9811 19.1961 30.0385 19.1018C30.1756 18.8686 30.3578 18.6732 30.5853 18.5158C31.6442 18.057 32.3994 18.3565 32.851 19.4143Z" fill="#A599A5"/>
<path fill-rule="evenodd" clip-rule="evenodd" d="M32.6963 15.8986C32.4086 15.8857 32.1222 15.8987 31.8369 15.9376C31.9138 16.6212 31.9398 17.3112 31.915 18.0079C23.5557 18.0079 15.1963 18.0079 6.83691 18.0079C6.83691 18.3726 6.83691 18.7371 6.83691 19.1017C14.5713 19.1017 22.3057 19.1017 30.04 19.1017C29.9827 19.1961 29.9567 19.3002 29.9619 19.4142C29.2323 19.4012 28.5031 19.4142 27.7744 19.4533C27.5759 19.5976 27.4978 19.7929 27.54 20.0392C26.472 20.0262 25.4043 20.0392 24.3369 20.0783C23.9442 20.223 23.7098 20.4965 23.6338 20.8986C23.5608 20.982 23.5347 21.0862 23.5557 21.2111C17.9828 21.2111 12.4098 21.2111 6.83691 21.2111C6.81087 21.2111 6.78483 21.2111 6.75879 21.2111C6.74577 19.4661 6.75879 17.7213 6.79785 15.9767C6.83691 15.9376 6.87597 15.8986 6.91504 15.8595C15.5218 15.7944 24.1156 15.8075 32.6963 15.8986Z" fill="#837682"/>
<path fill-rule="evenodd" clip-rule="evenodd" d="M32.8516 16.1328C32.9294 17.2127 32.9554 18.3065 32.9297 19.4141C33.3984 19.4141 33.8672 19.4141 34.3359 19.4141C34.3359 19.4401 34.3359 19.4662 34.3359 19.4922C33.8264 19.5174 33.3316 19.4914 32.8516 19.4141C32.8516 18.3203 32.8516 17.2266 32.8516 16.1328Z" fill="#D4C192"/>
<path fill-rule="evenodd" clip-rule="evenodd" d="M27.5391 20.0391C27.6161 20.3883 27.6421 20.7529 27.6172 21.1328C26.6276 21.1328 25.638 21.1328 24.6484 21.1328C24.6484 24.1797 24.6484 27.2266 24.6484 30.2734C24.7493 30.2549 24.8274 30.2809 24.8828 30.3516C24.7266 30.3516 24.5703 30.3516 24.4141 30.3516C24.1699 30.2751 23.9095 30.249 23.6328 30.2734C23.6328 27.1484 23.6328 24.0234 23.6328 20.8984C23.7088 20.4963 23.9432 20.2229 24.3359 20.0781C25.4034 20.0391 26.471 20.026 27.5391 20.0391Z" fill="#E2A76F"/>
<path fill-rule="evenodd" clip-rule="evenodd" d="M35.5859 19.9609C36.5536 19.9301 37.5172 19.9691 38.4766 20.078C38.8021 20.1952 39.0234 20.4166 39.1406 20.7421C39.1927 26.7056 39.1927 32.6692 39.1406 38.6327C39.0234 38.9583 38.8021 39.1796 38.4766 39.2968C33.9454 39.3359 29.4141 39.3489 24.8828 39.3359C25.002 39.0323 25.1322 38.7328 25.2734 38.4374C25.4727 38.3248 25.6809 38.2337 25.8984 38.164C26.1084 38.2431 26.3167 38.3212 26.5234 38.3984C26.7723 38.5184 26.9806 38.4663 27.1484 38.2421C30.7943 38.2421 34.4401 38.2421 38.0859 38.2421C38.0859 32.539 38.0859 26.8359 38.0859 21.1327C37.1224 21.1327 36.1588 21.1327 35.1953 21.1327C35.1953 20.7681 35.1953 20.4036 35.1953 20.039C35.3449 20.0612 35.4751 20.0352 35.5859 19.9609Z" fill="#E3A770"/>
<path fill-rule="evenodd" clip-rule="evenodd" d="M27.6172 21.1328C27.5934 21.5439 27.6195 21.9475 27.6953 22.3438C30.1432 22.3959 32.5912 22.3959 35.0391 22.3438C35.0781 22.3047 35.1172 22.2656 35.1562 22.2266C35.1952 21.8629 35.2083 21.4984 35.1953 21.1328C36.1588 21.1328 37.1224 21.1328 38.0859 21.1328C38.0859 26.8359 38.0859 32.5391 38.0859 38.2422C34.4401 38.2422 30.7943 38.2422 27.1484 38.2422C27.3811 37.9834 27.6155 37.7229 27.8516 37.4609C27.2975 36.5123 27.5449 35.8873 28.5938 35.5859C28.6328 35.0658 28.6458 34.5449 28.6328 34.0234C27.5467 33.7745 27.2863 33.1626 27.8516 32.1875C27.513 31.849 27.1745 31.5104 26.8359 31.1719C26.7244 31.1266 26.6202 31.1397 26.5234 31.2109C26.3169 31.2885 26.1086 31.3666 25.8984 31.4453C25.7166 31.3805 25.5342 31.3154 25.3516 31.25C25.1844 30.9546 25.0281 30.6551 24.8828 30.3516C24.8274 30.2809 24.7493 30.2549 24.6484 30.2734C24.6484 27.2266 24.6484 24.1797 24.6484 21.1328C25.638 21.1328 26.6276 21.1328 27.6172 21.1328Z" fill="#EBEEF0"/>
<path fill-rule="evenodd" clip-rule="evenodd" d="M6.83594 21.2109C12.4088 21.2109 17.9818 21.2109 23.5547 21.2109C23.6055 24.275 23.5535 27.3219 23.3984 30.3516C23.252 30.6576 23.0957 30.957 22.9297 31.25C22.4285 31.5096 21.9468 31.4705 21.4844 31.1328C21.1328 31.4844 20.7812 31.8359 20.4297 32.1875C20.7877 32.6716 20.8138 33.1663 20.5078 33.6719C20.2282 33.8052 19.9548 33.9484 19.6875 34.1016C19.6226 34.5984 19.6356 35.0932 19.7266 35.5859C19.9777 35.7245 20.2381 35.8417 20.5078 35.9375C20.8162 36.4388 20.7902 36.9205 20.4297 37.3828C19.9609 37.3828 19.4922 37.3828 19.0234 37.3828C19.1142 33.3259 19.1272 29.2634 19.0625 25.1953C18.7711 25.1203 18.4716 25.0943 18.1641 25.1172C17.5912 25.1172 17.0182 25.1172 16.4453 25.1172C16.0807 25.1172 15.7162 25.1172 15.3516 25.1172C14.5182 25.1172 13.6849 25.1172 12.8516 25.1172C12.5912 25.1172 12.3307 25.1172 12.0703 25.1172C11.5495 25.1172 11.0287 25.1172 10.5078 25.1172C10.1432 25.1172 9.77867 25.1172 9.41406 25.1172C8.54836 25.093 7.68896 25.119 6.83594 25.1953C6.83594 23.8672 6.83594 22.5391 6.83594 21.2109Z" fill="#685E68"/>
<path fill-rule="evenodd" clip-rule="evenodd" d="M23.6328 20.8984C23.6328 24.0234 23.6328 27.1484 23.6328 30.2734C23.9095 30.249 24.1699 30.2751 24.4141 30.3516C24.0755 30.3516 23.737 30.3516 23.3984 30.3516C23.5535 27.3219 23.6055 24.275 23.5547 21.2109C23.5337 21.086 23.5598 20.9819 23.6328 20.8984Z" fill="#D7AD81"/>
<path fill-rule="evenodd" clip-rule="evenodd" d="M26.9142 24.1797C27.4097 24.1667 27.9044 24.1797 28.3986 24.2187C28.9194 24.5572 28.9194 24.8958 28.3986 25.2344C27.9038 25.2865 27.409 25.2865 26.9142 25.2344C26.5864 25.0015 26.5213 24.702 26.7189 24.3359C26.7966 24.2917 26.8617 24.2396 26.9142 24.1797Z" fill="#9FACBA"/>
<path fill-rule="evenodd" clip-rule="evenodd" d="M30.0392 24.1797C31.9665 24.1667 33.8936 24.1797 35.8204 24.2188C36.1586 24.4445 36.2237 24.744 36.0158 25.1172C35.9572 25.1661 35.892 25.2052 35.8204 25.2344C33.8933 25.2865 31.9663 25.2865 30.0392 25.2344C29.7114 25.0015 29.6463 24.702 29.8439 24.3359C29.9216 24.2917 29.9867 24.2396 30.0392 24.1797Z" fill="#9FACBA"/>
<path fill-rule="evenodd" clip-rule="evenodd" d="M9.41406 25.1172C9.41406 25.5859 9.41406 26.0547 9.41406 26.5234C9.77867 26.5234 10.1432 26.5234 10.5078 26.5234C10.5078 26.0547 10.5078 25.5859 10.5078 25.1172C11.0287 25.1172 11.5495 25.1172 12.0703 25.1172C12.1606 26.9865 12.1736 28.8615 12.1094 30.7422C10.3574 30.8198 8.59961 30.8458 6.83594 30.8203C6.83594 28.9453 6.83594 27.0703 6.83594 25.1953C7.68896 25.119 8.54836 25.0929 9.41406 25.1172Z" fill="#ECBA78"/>
<path fill-rule="evenodd" clip-rule="evenodd" d="M9.41406 25.1172C9.77867 25.1172 10.1432 25.1172 10.5078 25.1172C10.5078 25.5859 10.5078 26.0547 10.5078 26.5234C10.1432 26.5234 9.77867 26.5234 9.41406 26.5234C9.41406 26.0547 9.41406 25.5859 9.41406 25.1172Z" fill="#F1D0A3"/>
<path fill-rule="evenodd" clip-rule="evenodd" d="M12.0703 25.1174C12.3307 25.1174 12.5912 25.1174 12.8516 25.1174C12.9289 27.0126 12.9549 28.9137 12.9297 30.8205C14.7013 30.8466 16.4721 30.8205 18.2422 30.7424C18.3325 28.9229 18.3455 27.0999 18.2812 25.2737C18.2252 25.2312 18.1862 25.1791 18.1641 25.1174C18.4716 25.0945 18.7711 25.1205 19.0625 25.1955C19.1272 29.2636 19.1142 33.3261 19.0234 37.383C14.9869 37.3961 10.9505 37.383 6.91406 37.344C6.87155 37.288 6.81946 37.2489 6.75781 37.2268C6.75781 37.1487 6.75781 37.0705 6.75781 36.9924C6.78385 36.9924 6.8099 36.9924 6.83594 36.9924C8.59961 37.018 10.3574 36.9919 12.1094 36.9143C12.1615 35.0653 12.1615 33.2164 12.1094 31.3674C12.0795 31.324 12.0404 31.298 11.9922 31.2893C10.287 31.2114 8.5682 31.1853 6.83594 31.2112C6.83594 31.0809 6.83594 30.9508 6.83594 30.8205C8.59961 30.8461 10.3574 30.8201 12.1094 30.7424C12.1736 28.8618 12.1606 26.9868 12.0703 25.1174Z" fill="#E3A76F"/>
<path fill-rule="evenodd" clip-rule="evenodd" d="M12.8516 25.1172C13.6849 25.1172 14.5182 25.1172 15.3516 25.1172C15.3516 25.5859 15.3516 26.0547 15.3516 26.5234C15.7162 26.5234 16.0807 26.5234 16.4453 26.5234C16.4453 26.0547 16.4453 25.5859 16.4453 25.1172C17.0182 25.1172 17.5912 25.1172 18.1641 25.1172C18.1862 25.1788 18.2252 25.2309 18.2812 25.2734C18.3455 27.0997 18.3325 28.9227 18.2422 30.7422C16.4721 30.8203 14.7013 30.8463 12.9297 30.8203C12.9549 28.9134 12.9289 27.0124 12.8516 25.1172Z" fill="#EBB978"/>
<path fill-rule="evenodd" clip-rule="evenodd" d="M15.3516 25.1172C15.7162 25.1172 16.0807 25.1172 16.4453 25.1172C16.4453 25.5859 16.4453 26.0547 16.4453 26.5234C16.0807 26.5234 15.7162 26.5234 15.3516 26.5234C15.3516 26.0547 15.3516 25.5859 15.3516 25.1172Z" fill="#F1D0A4"/>
<path fill-rule="evenodd" clip-rule="evenodd" d="M26.9914 26.3672C29.9082 26.3542 32.8248 26.3672 35.7414 26.4063C36.1937 26.6822 36.2458 27.0207 35.8976 27.4219C32.8768 27.474 29.856 27.474 26.8351 27.4219C26.4862 27.0028 26.5383 26.6513 26.9914 26.3672Z" fill="#A1AEBB"/>
<path fill-rule="evenodd" clip-rule="evenodd" d="M26.914 28.6328C29.8829 28.6198 32.8516 28.6328 35.8203 28.6719C36.1584 28.8977 36.2235 29.1971 36.0156 29.5703C35.957 29.6192 35.8918 29.6583 35.8203 29.6875C32.8515 29.7396 29.8828 29.7396 26.914 29.6875C26.5026 29.3324 26.5026 28.9809 26.914 28.6328Z" fill="#9FACBA"/>
<path fill-rule="evenodd" clip-rule="evenodd" d="M23.398 30.3516C23.7365 30.3516 24.0751 30.3516 24.4136 30.3516C24.5698 30.3516 24.7261 30.3516 24.8823 30.3516C25.0277 30.6551 25.1839 30.9546 25.3511 31.25C25.5338 31.3154 25.7161 31.3805 25.898 31.4453C26.1081 31.3666 26.3164 31.2885 26.523 31.2109C26.723 31.5289 26.9704 31.8153 27.2652 32.0703C27.2697 32.4284 27.1786 32.767 26.9917 33.0859C27.0924 33.3266 27.2226 33.548 27.3823 33.75C27.6452 33.8359 27.8925 33.953 28.1245 34.1016C28.1895 34.5984 28.1764 35.0932 28.0855 35.5859C27.7506 35.7203 27.4512 35.9026 27.187 36.1328C27.1239 36.283 27.0848 36.4393 27.0698 36.6016C27.2096 36.9286 27.2747 37.2671 27.2652 37.6172C27.0018 37.8674 26.7544 38.1278 26.523 38.3984C26.3163 38.3213 26.108 38.2432 25.898 38.1641C25.6805 38.2337 25.4722 38.3248 25.273 38.4375C25.1317 38.7329 25.0016 39.0324 24.8823 39.3359C24.3589 39.3617 23.8381 39.3357 23.3198 39.2578C23.1893 38.9967 23.0591 38.7362 22.9292 38.4766C22.7646 38.3877 22.5954 38.3096 22.4214 38.2422C22.0762 38.3837 21.7246 38.4749 21.3667 38.5156C21.0123 38.1743 20.6738 37.8227 20.3511 37.4609C20.4032 37.4609 20.4292 37.4349 20.4292 37.3828C20.7897 36.9205 20.8158 36.4388 20.5073 35.9375C20.2377 35.8417 19.9773 35.7245 19.7261 35.5859C19.6352 35.0932 19.6221 34.5984 19.687 34.1016C19.9543 33.9484 20.2277 33.8052 20.5073 33.6719C20.8133 33.1663 20.7873 32.6716 20.4292 32.1875C20.7808 31.8359 21.1323 31.4844 21.4839 31.1328C21.9463 31.4705 22.428 31.5096 22.9292 31.25C23.0952 30.957 23.2515 30.6576 23.398 30.3516Z" fill="#FEC238"/>
<path fill-rule="evenodd" clip-rule="evenodd" d="M28.7883 30.8203C31.1061 30.8073 33.4238 30.8203 35.7414 30.8594C36.1937 31.1353 36.2458 31.4738 35.8976 31.875C33.4758 31.9271 31.0539 31.9271 28.632 31.875C28.2831 31.4559 28.3351 31.1044 28.7883 30.8203Z" fill="#A1ADBB"/>
<path fill-rule="evenodd" clip-rule="evenodd" d="M27.1484 38.2422C26.9806 38.4664 26.7723 38.5185 26.5234 38.3984C26.7548 38.1278 27.0023 37.8674 27.2656 37.6172C27.2752 37.2671 27.2101 36.9286 27.0703 36.6015C27.0853 36.4393 27.1244 36.283 27.1875 36.1328C27.4516 35.9025 27.7511 35.7203 28.0859 35.5859C28.1769 35.0932 28.1899 34.5983 28.125 34.1015C27.893 33.953 27.6456 33.8358 27.3828 33.75C27.223 33.5479 27.0929 33.3265 26.9922 33.0859C27.1791 32.7669 27.2702 32.4283 27.2656 32.0703C26.9709 31.8153 26.7234 31.5289 26.5234 31.2109C26.6202 31.1397 26.7244 31.1266 26.8359 31.1718C27.1745 31.5104 27.513 31.849 27.8516 32.1875C27.2863 33.1625 27.5467 33.7745 28.6328 34.0234C28.6458 34.5449 28.6328 35.0657 28.5938 35.5859C27.5449 35.8873 27.2975 36.5123 27.8516 37.4609C27.6155 37.7229 27.3811 37.9833 27.1484 38.2422Z" fill="#F5B92D"/>
<path fill-rule="evenodd" clip-rule="evenodd" d="M6.75781 21.2109C6.78385 21.2109 6.8099 21.2109 6.83594 21.2109C6.83594 22.5391 6.83594 23.8672 6.83594 25.1953C6.83594 27.0703 6.83594 28.9453 6.83594 30.8203C6.83594 30.9505 6.83594 31.0807 6.83594 31.2109C8.5682 31.1851 10.287 31.2112 11.9922 31.2891C11.5234 31.2891 11.0547 31.2891 10.5859 31.2891C10.1953 31.2891 9.80469 31.2891 9.41406 31.2891C8.55469 31.2891 7.69531 31.2891 6.83594 31.2891C6.83594 33.1901 6.83594 35.0912 6.83594 36.9922C6.8099 36.9922 6.78385 36.9922 6.75781 36.9922C6.75781 31.7318 6.75781 26.4713 6.75781 21.2109Z" fill="#D1A773"/>
<path fill-rule="evenodd" clip-rule="evenodd" d="M9.41406 31.2891C9.41406 31.7578 9.41406 32.2266 9.41406 32.6953C9.80469 32.6953 10.1953 32.6953 10.5859 32.6953C10.5859 32.2266 10.5859 31.7578 10.5859 31.2891C11.0547 31.2891 11.5234 31.2891 11.9922 31.2891C12.0404 31.2977 12.0795 31.3238 12.1094 31.3672C12.1615 33.2162 12.1615 35.0651 12.1094 36.9141C10.3574 36.9917 8.59961 37.0177 6.83594 36.9922C6.83594 35.0912 6.83594 33.1901 6.83594 31.2891C7.69531 31.2891 8.55469 31.2891 9.41406 31.2891Z" fill="#EBB978"/>
<path fill-rule="evenodd" clip-rule="evenodd" d="M9.41406 31.2891C9.80469 31.2891 10.1953 31.2891 10.5859 31.2891C10.5859 31.7578 10.5859 32.2266 10.5859 32.6953C10.1953 32.6953 9.80469 32.6953 9.41406 32.6953C9.41406 32.2266 9.41406 31.7578 9.41406 31.2891Z" fill="#F1CFA2"/>
<path fill-rule="evenodd" clip-rule="evenodd" d="M15.3516 31.2892C15.3516 31.758 15.3516 32.2267 15.3516 32.6955C15.7162 32.6955 16.0807 32.6955 16.4453 32.6955C16.4453 32.2267 16.4453 31.758 16.4453 31.2892C17.0641 31.2646 17.676 31.2907 18.2812 31.3674C18.3334 33.1903 18.3334 35.0132 18.2812 36.8361C18.2422 36.8752 18.2031 36.9142 18.1641 36.9533C16.4195 36.9924 14.6747 37.0054 12.9297 36.9924C12.9553 35.0985 12.9292 33.2105 12.8516 31.3283C13.6845 31.2892 14.5178 31.2762 15.3516 31.2892Z" fill="#EBB978"/>
<path fill-rule="evenodd" clip-rule="evenodd" d="M15.3516 31.2891C15.7162 31.2891 16.0807 31.2891 16.4453 31.2891C16.4453 31.7578 16.4453 32.2266 16.4453 32.6953C16.0807 32.6953 15.7162 32.6953 15.3516 32.6953C15.3516 32.2266 15.3516 31.7578 15.3516 31.2891Z" fill="#F1D0A4"/>
<path fill-rule="evenodd" clip-rule="evenodd" d="M23.5549 32.6952C24.978 32.5268 25.8764 33.1258 26.2502 34.4921C26.25 36.1851 25.4036 37.0054 23.7111 36.953C22.2136 36.419 21.7058 35.3903 22.1877 33.8671C22.5157 33.3202 22.9714 32.9296 23.5549 32.6952Z" fill="#EAA825"/>
<path fill-rule="evenodd" clip-rule="evenodd" d="M29.6479 33.0859C31.7053 33.0729 33.7627 33.0859 35.8198 33.125C36.1579 33.3508 36.223 33.6502 36.0151 34.0234C35.9317 34.0774 35.8406 34.1165 35.7417 34.1406C33.7104 34.1927 31.6792 34.1927 29.6479 34.1406C29.2346 33.7831 29.2346 33.4315 29.6479 33.0859Z" fill="#9FACBA"/>
<path fill-rule="evenodd" clip-rule="evenodd" d="M23.7887 33.7888C24.8209 33.7661 25.2506 34.2609 25.0778 35.2732C24.35 36.1457 23.699 36.0937 23.1247 35.117C23.0156 34.5018 23.2369 34.0591 23.7887 33.7888Z" fill="#E9ECEC"/>
<path fill-rule="evenodd" clip-rule="evenodd" d="M29.7265 35.2734C31.7318 35.2604 33.737 35.2734 35.7421 35.3125C36.1944 35.5884 36.2465 35.927 35.8983 36.3281C33.815 36.3802 31.7317 36.3802 29.6483 36.3281C29.2255 35.9521 29.2515 35.6006 29.7265 35.2734Z" fill="#A1ADBB"/>
<path opacity="0.871" fill-rule="evenodd" clip-rule="evenodd" d="M6.75781 37.2266C6.81946 37.2487 6.87155 37.2877 6.91406 37.3438C10.9505 37.3828 14.9869 37.3959 19.0234 37.3828C19.4922 37.3828 19.9609 37.3828 20.4297 37.3828C20.4297 37.4349 20.4037 37.4609 20.3516 37.4609C15.8203 37.4609 11.2891 37.4609 6.75781 37.4609C6.75781 37.3828 6.75781 37.3047 6.75781 37.2266Z" fill="#CEA271"/>
</g>
<defs>
<clipPath id="clip0_14405_62146">
<rect width="40" height="40" fill="white"/>
</clipPath>
</defs>
</svg>
