<svg width="32" height="32" viewBox="0 0 32 32" fill="none" xmlns="http://www.w3.org/2000/svg">
<path d="M31.696 28.3893C31.696 29.904 25.76 31.1573 18.0747 31.344L13.4613 29.616L8.448 30.992C3.648 30.4586 0.447998 29.5093 0.447998 28.3893C0.447998 26.7413 7.45066 25.408 16.0853 25.408C24.72 25.408 31.696 26.7413 31.696 28.3893Z" fill="#444444"/>
<path d="M31.6961 28.3893C31.6961 28.9226 30.8961 29.456 29.5041 29.9093C28.8001 28.6133 23.0454 27.6053 16.0587 27.6053C9.07205 27.6053 3.32272 28.6133 2.61339 29.9093C1.22139 29.4666 0.421387 28.944 0.421387 28.3893C0.421387 26.7413 7.42405 25.408 16.0587 25.408C24.6934 25.408 31.6961 26.7413 31.6961 28.3893Z" fill="#5A5A5A"/>
<path d="M8.448 30.9921C10.9767 31.2488 13.517 31.3735 16.0587 31.3655C16.7413 31.3655 17.4133 31.3655 18.0747 31.3655L25.9947 23.4188L26.6293 21.0988L28.992 20.4268L31.4933 17.9201C31.558 17.8575 31.6094 17.7825 31.6445 17.6995C31.6797 17.6166 31.6978 17.5275 31.6978 17.4375C31.6978 17.3474 31.6797 17.2583 31.6445 17.1754C31.6094 17.0924 31.558 17.0174 31.4933 16.9548L28.6987 14.1548L19.8293 20.1868L8.448 30.9921Z" fill="#134F8B"/>
<path d="M24.9281 22.3573L15.9201 31.3653C15.4721 31.3653 15.0294 31.3653 14.5974 31.3653L24.2614 21.6853C24.3525 21.6077 24.4695 21.5674 24.5891 21.5724C24.7086 21.5775 24.8218 21.6275 24.9061 21.7124C24.9904 21.7973 25.0395 21.911 25.0435 22.0305C25.0476 22.1501 25.0064 22.2668 24.9281 22.3573Z" fill="#12497E"/>
<path d="M27.6534 19.4348C27.5293 19.4336 27.4106 19.3838 27.3228 19.2961C27.2788 19.2525 27.2438 19.2006 27.22 19.1433C27.1961 19.0861 27.1838 19.0248 27.1838 18.9628C27.1838 18.9008 27.1961 18.8394 27.22 18.7822C27.2438 18.725 27.2788 18.6731 27.3228 18.6294L28.5601 17.3921C28.6037 17.3481 28.6557 17.3131 28.7129 17.2893C28.7701 17.2655 28.8315 17.2532 28.8934 17.2532C28.9554 17.2532 29.0168 17.2655 29.074 17.2893C29.1312 17.3131 29.1831 17.3481 29.2268 17.3921C29.3144 17.4809 29.3635 17.6007 29.3635 17.7254C29.3635 17.8502 29.3144 17.97 29.2268 18.0588L27.9894 19.2961C27.9453 19.3402 27.8929 19.3751 27.8352 19.3989C27.7776 19.4227 27.7158 19.4349 27.6534 19.4348Z" fill="#12497E"/>
<path d="M21.9627 7.41865L31.4987 16.9546C31.6267 17.0827 31.6986 17.2563 31.6986 17.4373C31.6986 17.6183 31.6267 17.792 31.4987 17.92L30.0533 19.36C30.1813 19.232 30.2532 19.0583 30.2532 18.8773C30.2532 18.6963 30.1813 18.5227 30.0533 18.3946L20.5173 8.85865C20.3893 8.73065 20.2157 8.65875 20.0347 8.65875C19.8536 8.65875 19.68 8.73065 19.552 8.85865L20.9973 7.41865C21.1254 7.29065 21.299 7.21875 21.48 7.21875C21.661 7.21875 21.8346 7.29065 21.9627 7.41865Z" fill="#12497E"/>
<path d="M28.6986 15.1201L12.5279 31.2907C11.0826 31.2267 9.71193 31.1254 8.44793 30.9921L0.618598 23.1627C0.490605 23.0347 0.418701 22.8611 0.418701 22.6801C0.418701 22.499 0.490605 22.3254 0.618598 22.1974L12.6986 10.1334L14.9973 9.60006L15.6906 7.1094L18.1973 4.60273C18.3253 4.47474 18.4989 4.40283 18.6799 4.40283C18.861 4.40283 19.0346 4.47474 19.1626 4.60273L28.6986 14.1547C28.8266 14.2828 28.8985 14.4564 28.8985 14.6374C28.8985 14.8184 28.8266 14.992 28.6986 15.1201Z" fill="#278BD1"/>
<path d="M2.91742 22.0693H3.69608L4.26675 22.7893C4.32628 22.8618 4.40117 22.9203 4.48602 22.9604C4.57086 23.0006 4.66356 23.0214 4.75742 23.0214C4.85128 23.0214 4.94397 23.0006 5.02882 22.9604C5.11366 22.9203 5.18855 22.8618 5.24808 22.7893L5.86675 22.0693H6.64542C6.97645 22.0623 7.29139 21.9251 7.52199 21.6875C7.7526 21.4499 7.8803 21.131 7.87742 20.7999V17.1093C7.878 16.8298 7.78554 16.558 7.61462 16.3369C7.4437 16.1158 7.20403 15.9578 6.93342 15.8879L1.70142 21.1199C1.76922 21.3911 1.92572 21.6318 2.14605 21.8039C2.36638 21.9759 2.63789 22.0693 2.91742 22.0693Z" fill="#2075B6"/>
<path d="M19.1627 4.6186L28.6987 14.1546C28.8267 14.2826 28.8986 14.4562 28.8986 14.6373C28.8986 14.8183 28.8267 14.9919 28.6987 15.1199L27.2587 16.5599C27.3867 16.4319 27.4586 16.2583 27.4586 16.0773C27.4586 15.8962 27.3867 15.7226 27.2587 15.5946L17.7227 6.0586C17.5946 5.9306 17.421 5.8587 17.24 5.8587C17.059 5.8587 16.8853 5.9306 16.7573 6.0586L18.1973 4.6186C18.3253 4.4906 18.499 4.4187 18.68 4.4187C18.861 4.4187 19.0346 4.4906 19.1627 4.6186Z" fill="#2075B6"/>
<path d="M25.4133 15.1199L13.2053 27.3332H8.06933L3.904 23.1626C3.77601 23.0345 3.7041 22.8609 3.7041 22.6799C3.7041 22.4989 3.77601 22.3252 3.904 22.1972L16.112 9.98389H21.248L25.4133 14.1546C25.478 14.2172 25.5294 14.2922 25.5646 14.3751C25.5997 14.458 25.6178 14.5472 25.6178 14.6372C25.6178 14.7273 25.5997 14.8164 25.5646 14.8993C25.5294 14.9822 25.478 15.0572 25.4133 15.1199Z" fill="#134F8B"/>
<path d="M3.90392 22.1975L3.85059 22.2561L4.27725 22.7895C4.33679 22.862 4.41167 22.9205 4.49652 22.9606C4.58137 23.0008 4.67406 23.0216 4.76792 23.0216C4.86178 23.0216 4.95447 23.0008 5.03932 22.9606C5.12417 22.9205 5.19905 22.862 5.25859 22.7895L5.86659 22.0695H6.64525C6.97628 22.0625 7.29122 21.9253 7.52183 21.6877C7.75243 21.4501 7.88013 21.1312 7.87725 20.8001V18.2241L3.90392 22.1975Z" fill="#12497E"/>
<path d="M18.2667 22.2707C20.0829 20.4545 19.9394 17.3663 17.9461 15.3731C15.9529 13.3799 12.8647 13.2363 11.0485 15.0525C9.23233 16.8687 9.37585 19.9569 11.3691 21.9501C13.3623 23.9434 16.4505 24.0869 18.2667 22.2707Z" fill="#FEF0C9"/>
<path d="M8.06934 27.3334C8.75045 26.6523 9.67417 26.2698 10.6373 26.2698C11.6005 26.2698 12.5242 26.6523 13.2053 27.3334L11.12 29.4187C10.992 29.5467 10.8184 29.6186 10.6373 29.6186C10.4563 29.6186 10.2827 29.5467 10.1547 29.4187L8.06934 27.3334Z" fill="#FEF0C9"/>
<path d="M21.2481 9.984C20.5669 10.665 19.6432 11.0476 18.6801 11.0476C17.7169 11.0476 16.7932 10.665 16.1121 9.984L18.1974 7.904C18.3254 7.77601 18.499 7.7041 18.6801 7.7041C18.8611 7.7041 19.0347 7.77601 19.1627 7.904L21.2481 9.984Z" fill="#FEF0C9"/>
<path d="M17.1088 21.1129C18.2627 19.959 18.1006 17.9262 16.7468 16.5723C15.393 15.2185 13.3601 15.0564 12.2062 16.2103C11.0523 17.3642 11.2144 19.397 12.5682 20.7509C13.9221 22.1047 15.9549 22.2668 17.1088 21.1129Z" fill="#278BD1"/>
<path d="M16.4374 19.7708L16.2881 19.6161C16.3881 19.4376 16.4394 19.2359 16.4369 19.0314C16.4345 18.8268 16.3783 18.6264 16.2741 18.4504C16.1699 18.2743 16.0212 18.1287 15.843 18.0282C15.6648 17.9276 15.4634 17.8756 15.2588 17.8774C15.1053 17.8769 14.9532 17.9068 14.8113 17.9654C14.6694 18.024 14.5405 18.1101 14.4321 18.2188L14.2294 18.4214C14.2085 18.4435 14.1833 18.4612 14.1553 18.4732C14.1273 18.4852 14.0972 18.4914 14.0668 18.4914C14.0363 18.4914 14.0062 18.4852 13.9782 18.4732C13.9502 18.4612 13.925 18.4435 13.9041 18.4214C13.8827 18.3997 13.866 18.3738 13.855 18.3454C13.844 18.3169 13.8389 18.2866 13.8401 18.2561C13.8397 18.2265 13.8451 18.1972 13.8561 18.1697C13.8671 18.1422 13.8834 18.1172 13.9041 18.0961L14.0001 18.0001L14.5334 17.4668C14.6085 17.3763 14.6469 17.2609 14.641 17.1434C14.635 17.026 14.5852 16.915 14.5014 16.8326C14.4176 16.7501 14.3059 16.7021 14.1883 16.698C14.0708 16.694 13.956 16.7342 13.8668 16.8108L13.6748 16.9974L13.5574 16.8801C13.5136 16.8363 13.4617 16.8016 13.4045 16.7779C13.3473 16.7542 13.286 16.742 13.2241 16.742C13.1622 16.742 13.1009 16.7542 13.0437 16.7779C12.9865 16.8016 12.9345 16.8363 12.8908 16.8801C12.847 16.9239 12.8123 16.9758 12.7886 17.033C12.7649 17.0902 12.7527 17.1515 12.7527 17.2134C12.7527 17.2753 12.7649 17.3366 12.7886 17.3938C12.8123 17.451 12.847 17.503 12.8908 17.5468L13.0454 17.7014C12.9535 17.8737 12.9059 18.0662 12.9068 18.2614C12.9054 18.4151 12.9349 18.5674 12.9935 18.7094C13.0521 18.8514 13.1387 18.9802 13.2481 19.0881C13.3569 19.1981 13.4865 19.2854 13.6293 19.3449C13.7721 19.4044 13.9254 19.435 14.0801 19.4348C14.2341 19.4352 14.3865 19.4047 14.5285 19.3451C14.6705 19.2856 14.7991 19.1982 14.9068 19.0881L15.1094 18.8908C15.1301 18.8691 15.1549 18.8518 15.1824 18.8399C15.2099 18.828 15.2395 18.8217 15.2694 18.8214C15.3315 18.8218 15.391 18.8467 15.4348 18.8908C15.4756 18.9351 15.4983 18.9932 15.4983 19.0534C15.4983 19.1137 15.4756 19.1718 15.4348 19.2161L14.7254 19.9201C14.6378 20.0089 14.5887 20.1287 14.5887 20.2534C14.5887 20.3782 14.6378 20.4979 14.7254 20.5868C14.7695 20.631 14.8219 20.666 14.8795 20.6899C14.9372 20.7138 14.999 20.7262 15.0614 20.7262C15.1238 20.7262 15.1857 20.7138 15.2433 20.6899C15.301 20.666 15.3533 20.631 15.3974 20.5868L15.6641 20.3201L15.7814 20.4374C15.8251 20.4815 15.877 20.5164 15.9342 20.5402C15.9914 20.5641 16.0528 20.5764 16.1148 20.5764C16.1767 20.5764 16.2381 20.5641 16.2953 20.5402C16.3525 20.5164 16.4045 20.4815 16.4481 20.4374C16.4921 20.3938 16.5271 20.3419 16.5509 20.2847C16.5747 20.2275 16.587 20.1661 16.587 20.1041C16.587 20.0421 16.5747 19.9807 16.5509 19.9235C16.5271 19.8663 16.4921 19.8144 16.4481 19.7708H16.4374Z" fill="#134F8B"/>
<path d="M21.4401 15.5039C22.0409 15.5039 22.5281 15.0168 22.5281 14.4159C22.5281 13.815 22.0409 13.3279 21.4401 13.3279C20.8392 13.3279 20.3521 13.815 20.3521 14.4159C20.3521 15.0168 20.8392 15.5039 21.4401 15.5039Z" fill="#278BD1"/>
<path d="M7.87731 23.9892C8.47819 23.9892 8.96531 23.5021 8.96531 22.9012C8.96531 22.3003 8.47819 21.8132 7.87731 21.8132C7.27642 21.8132 6.78931 22.3003 6.78931 22.9012C6.78931 23.5021 7.27642 23.9892 7.87731 23.9892Z" fill="#278BD1"/>
<path d="M26.1919 17.6267L25.0666 19.9787L23.1999 20.624L18.8639 16.288L18.4799 14.3093L15.3759 12.8L12.7092 10.1333L15.7012 7.13599L18.3679 9.80265L19.3492 12.1813L21.8666 13.296L26.1919 17.6267Z" fill="#F8F5F1"/>
<path d="M26.1919 17.6266L25.3706 19.3492L14.3999 8.39991L15.6692 7.12524L18.3359 9.79191L19.3172 12.1759L21.8666 13.2959L26.1919 17.6266Z" fill="#E2E2E2"/>
<path d="M15.3706 12.8001L18.3679 9.80811L21.8666 13.2961L18.8693 16.2881L15.3706 12.8001Z" fill="#39B54A"/>
<path d="M17.0933 11.0774L18.3679 9.80811L21.8666 13.2961L20.5919 14.5654L17.0933 11.0774Z" fill="#009245"/>
<path d="M23.1946 20.624L26.1866 17.6267L28.9866 20.4267L25.9892 23.4187L23.1946 20.624Z" fill="#CECECE"/>
<path d="M24.9172 18.9014L26.1866 17.6267L28.9866 20.4267L27.7332 21.696L24.9172 18.9014Z" fill="#BFBFBF"/>
<path d="M23.1787 18.7308C23.053 18.7298 22.9325 18.6801 22.8427 18.5921L21.0347 16.7841C20.9471 16.6953 20.8979 16.5755 20.8979 16.4508C20.8979 16.326 20.9471 16.2063 21.0347 16.1175C21.0783 16.0734 21.1302 16.0385 21.1875 16.0146C21.2447 15.9908 21.306 15.9785 21.368 15.9785C21.43 15.9785 21.4914 15.9908 21.5486 16.0146C21.6058 16.0385 21.6577 16.0734 21.7014 16.1175L23.5147 17.9255C23.6023 18.0143 23.6514 18.134 23.6514 18.2588C23.6514 18.3835 23.6023 18.5033 23.5147 18.5921C23.4249 18.6801 23.3044 18.7298 23.1787 18.7308Z" fill="#FCD86D"/>
<path d="M24.1974 6.66679L25.264 5.56812V9.69612C25.264 9.78856 25.3004 9.8773 25.3653 9.94316C25.4301 10.009 25.5183 10.0467 25.6107 10.0481H27.0027C27.0951 10.0467 27.1833 10.009 27.2482 9.94316C27.313 9.8773 27.3494 9.78856 27.3494 9.69612V5.56812L28.416 6.66679C28.4482 6.69904 28.4865 6.72463 28.5286 6.74208C28.5707 6.75954 28.6158 6.76853 28.6614 6.76853C28.707 6.76853 28.7521 6.75954 28.7942 6.74208C28.8363 6.72463 28.8745 6.69904 28.9067 6.66679L29.8987 5.69612C29.9642 5.63018 30.0009 5.54104 30.0009 5.44812C30.0009 5.35521 29.9642 5.26606 29.8987 5.20012L26.816 2.03212C26.7515 1.966 26.6743 1.91346 26.5891 1.87759C26.504 1.84172 26.4125 1.82324 26.32 1.82324C26.2276 1.82324 26.1361 1.84172 26.0509 1.87759C25.9658 1.91346 25.8886 1.966 25.824 2.03212L22.7094 5.20012C22.6439 5.26606 22.6072 5.35521 22.6072 5.44812C22.6072 5.54104 22.6439 5.63018 22.7094 5.69612L23.7014 6.66679C23.7336 6.69904 23.7718 6.72463 23.8139 6.74208C23.856 6.75954 23.9011 6.76853 23.9467 6.76853C23.9923 6.76853 24.0374 6.75954 24.0795 6.74208C24.1216 6.72463 24.1598 6.69904 24.192 6.66679H24.1974Z" fill="#39B54A"/>
<path d="M5.33324 10.0588L6.39991 8.9601V13.0934C6.39991 13.1854 6.43643 13.2735 6.50144 13.3386C6.56646 13.4036 6.65463 13.4401 6.74657 13.4401H8.13857C8.23052 13.4401 8.31869 13.4036 8.3837 13.3386C8.44872 13.2735 8.48524 13.1854 8.48524 13.0934V8.9601L9.55191 10.0588C9.61785 10.1242 9.70699 10.161 9.79991 10.161C9.89282 10.161 9.98197 10.1242 10.0479 10.0588L11.0346 9.06677C11.0668 9.03457 11.0924 8.99633 11.1099 8.95423C11.1273 8.91213 11.1363 8.86701 11.1363 8.82143C11.1363 8.77586 11.1273 8.73073 11.1099 8.68864C11.0924 8.64654 11.0668 8.6083 11.0346 8.5761L7.91991 5.4081C7.85533 5.34198 7.77818 5.28944 7.693 5.25357C7.60782 5.2177 7.51633 5.19922 7.42391 5.19922C7.33148 5.19922 7.23999 5.2177 7.15481 5.25357C7.06963 5.28944 6.99249 5.34198 6.92791 5.4081L3.82391 8.59743C3.79166 8.62963 3.76607 8.66787 3.74861 8.70997C3.73115 8.75207 3.72217 8.79719 3.72217 8.84277C3.72217 8.88834 3.73115 8.93346 3.74861 8.97556C3.76607 9.01766 3.79166 9.0559 3.82391 9.0881L4.79991 10.0641C4.83211 10.0964 4.87035 10.1219 4.91244 10.1394C4.95454 10.1569 4.99967 10.1658 5.04524 10.1658C5.09081 10.1658 5.13594 10.1569 5.17804 10.1394C5.22013 10.1219 5.25838 10.0964 5.29057 10.0641L5.33324 10.0588Z" fill="#39B54A"/>
<path d="M6.61869 14.3094H2.91736C2.58354 14.3094 2.26339 14.442 2.02735 14.678C1.7913 14.9141 1.65869 15.2342 1.65869 15.568V19.2694C1.65869 19.6032 1.7913 19.9233 2.02735 20.1594C2.26339 20.3954 2.58354 20.528 2.91736 20.528H3.69602L4.26669 21.248C4.32622 21.3206 4.40111 21.3791 4.48596 21.4192C4.5708 21.4593 4.6635 21.4801 4.75736 21.4801C4.85122 21.4801 4.94391 21.4593 5.02876 21.4192C5.1136 21.3791 5.18849 21.3206 5.24802 21.248L5.86669 20.528H6.64536C6.97918 20.528 7.29932 20.3954 7.53537 20.1594C7.77142 19.9233 7.90402 19.6032 7.90402 19.2694V15.568C7.90406 15.4005 7.87064 15.2346 7.80573 15.0801C7.74081 14.9256 7.64571 14.7857 7.52599 14.6685C7.40627 14.5512 7.26436 14.4591 7.10856 14.3974C6.95276 14.3357 6.78621 14.3058 6.61869 14.3094Z" fill="#39B54A"/>
<path opacity="0.79" d="M7.87727 15.568V19.2693C7.87727 19.6032 7.74466 19.9233 7.50862 20.1593C7.27257 20.3954 6.95243 20.528 6.61861 20.528H5.86661L5.25861 21.248C5.19907 21.3206 5.12419 21.379 5.03934 21.4192C4.95449 21.4593 4.8618 21.4801 4.76794 21.4801C4.67408 21.4801 4.58139 21.4593 4.49654 21.4192C4.41169 21.379 4.33681 21.3206 4.27727 21.248L3.88794 20.7627L4.07994 20.528H4.85327C5.01856 20.528 5.18224 20.4954 5.33494 20.4322C5.48765 20.3689 5.62641 20.2762 5.74328 20.1593C5.86016 20.0425 5.95288 19.9037 6.01613 19.751C6.07938 19.5983 6.11194 19.4346 6.11194 19.2693V15.568C6.11265 15.4025 6.08057 15.2385 6.01757 15.0855C5.95456 14.9325 5.86188 14.7934 5.74486 14.6764C5.62784 14.5594 5.4888 14.4667 5.33578 14.4037C5.18275 14.3407 5.01876 14.3086 4.85327 14.3093H6.61861C6.95243 14.3093 7.27257 14.4419 7.50862 14.678C7.74466 14.914 7.87727 15.2342 7.87727 15.568Z" fill="#009245"/>
<path d="M5.86677 16.1386L4.6401 17.3599C4.62515 17.3746 4.60504 17.3828 4.5841 17.3828C4.56316 17.3828 4.54305 17.3746 4.5281 17.3599L3.8881 16.7199C3.85758 16.6918 3.8176 16.6762 3.7761 16.6762C3.7346 16.6762 3.69462 16.6918 3.6641 16.7199L3.2001 17.1946C3.18493 17.209 3.17286 17.2264 3.16461 17.2456C3.15635 17.2649 3.1521 17.2856 3.1521 17.3066C3.1521 17.3275 3.15635 17.3482 3.16461 17.3675C3.17286 17.3868 3.18493 17.4041 3.2001 17.4186L4.4801 18.6986C4.51062 18.7267 4.5506 18.7423 4.5921 18.7423C4.6336 18.7423 4.67358 18.7267 4.7041 18.6986L6.56543 16.8319C6.5806 16.8175 6.59268 16.8001 6.60093 16.7808C6.60918 16.7616 6.61343 16.7409 6.61343 16.7199C6.61343 16.699 6.60918 16.6782 6.60093 16.659C6.59268 16.6397 6.5806 16.6224 6.56543 16.6079L6.0961 16.1386C6.08165 16.1234 6.06428 16.1113 6.04503 16.1031C6.02577 16.0948 6.00505 16.0906 5.9841 16.0906C5.96315 16.0906 5.94243 16.0948 5.92317 16.1031C5.90392 16.1113 5.88655 16.1234 5.8721 16.1386H5.86677Z" fill="white"/>
</svg>
