<svg width="50" height="50" viewBox="0 0 50 50" fill="none" xmlns="http://www.w3.org/2000/svg">
<path d="M7.35008 4.16998H25.9801C28.2001 4.16998 30.0001 5.96998 30.0001 8.18998V45.98C30.0001 48.2 28.2001 50 25.9801 50H7.35008C5.13008 50 3.33008 48.2 3.33008 45.98V8.18998C3.33008 5.96998 5.13008 4.16998 7.35008 4.16998Z" fill="#002548"/>
<path d="M20.4501 7.97999C21.5601 7.97999 22.4601 7.15999 22.4601 6.15999V5.55999H25.7201C27.3901 5.55999 28.7401 6.77999 28.7401 8.29999V45.68C28.7401 47.19 27.3901 48.42 25.7201 48.42H7.60008C5.93008 48.42 4.58008 47.2 4.58008 45.68V8.28999C4.58008 6.77999 5.93008 5.54999 7.60008 5.54999H10.8601V6.14999C10.8601 7.15999 11.7601 7.96999 12.8701 7.96999H20.4501V7.97999Z" fill="#A2AAAD"/>
<path d="M10.8301 15H17.5001C18.8801 15 20.0001 16.12 20.0001 17.5V31.67C20.0001 33.05 18.8801 34.17 17.5001 34.17H10.8301C9.45008 34.17 8.33008 33.05 8.33008 31.67V17.5C8.33008 16.12 9.45008 15 10.8301 15Z" fill="#0054A6"/>
<path d="M35.83 0C29.85 0 25 4.84 25 10.82C25 13.02 25.67 15.17 26.92 16.98L25 20.83L29.85 19.86C34.84 23.17 41.56 21.8 44.87 16.82C48.18 11.83 46.81 5.11 41.83 1.8C40.05 0.63 37.96 0 35.83 0Z" fill="#0054A6"/>
<path d="M15.41 5.09998H17.91C18.14 5.09998 18.33 5.28998 18.33 5.51998C18.33 5.74998 18.14 5.93998 17.91 5.93998H15.41C15.18 5.93998 15 5.74998 15 5.51998C15 5.28998 15.18 5.09998 15.41 5.09998Z" fill="#A2A2A3"/>
<path d="M31.0697 14.76L27.7397 11.43C27.4097 11.1 27.4097 10.58 27.7397 10.25L31.0697 6.91998L32.2497 8.09998L29.5097 10.84L32.2497 13.58L31.0697 14.76Z" fill="#F9FAFB"/>
<path d="M40.5902 14.76L39.4102 13.58L42.1502 10.84L39.4102 8.09998L40.5902 6.91998L43.9202 10.25C44.2502 10.58 44.2502 11.1 43.9202 11.43L40.5902 14.76Z" fill="#F9FAFB"/>
<path d="M34.1699 14.82L35.8399 6.47998L37.4699 6.80998L35.7999 15.15L34.1699 14.82Z" fill="#F9FAFB"/>
<path d="M20.6604 18.6C19.9204 18.65 19.0504 19.13 18.5504 19.74C18.0904 20.3 17.7104 21.13 17.8604 21.94C18.6704 21.97 19.5104 21.48 19.9904 20.85C20.4404 20.27 20.7804 19.44 20.6604 18.6Z" fill="white"/>
<path d="M23.5905 23.26C22.8805 22.37 21.8805 21.85 20.9305 21.85C19.6805 21.85 19.1605 22.45 18.2905 22.45C17.4005 22.45 16.7205 21.85 15.6405 21.85C14.5805 21.85 13.4505 22.5 12.7405 23.6C11.7305 25.16 11.9105 28.09 13.5405 30.59C14.1205 31.48 14.9005 32.49 15.9205 32.5C16.8305 32.51 17.0805 31.92 18.3105 31.91C19.5405 31.9 19.7705 32.51 20.6805 32.5C21.7005 32.49 22.5205 31.38 23.1005 30.49C23.5205 29.85 23.6705 29.53 24.0005 28.8C21.6305 27.9 21.2505 24.55 23.5905 23.26Z" fill="white"/>
</svg>
