<svg width="114" height="114" viewBox="0 0 114 114" fill="none" xmlns="http://www.w3.org/2000/svg">
<path d="M57.0004 80.2234C69.8261 80.2234 80.2234 69.8261 80.2234 57.0004C80.2234 44.1747 69.8261 33.7773 57.0004 33.7773C44.1747 33.7773 33.7773 44.1747 33.7773 57.0004C33.7773 69.8261 44.1747 80.2234 57.0004 80.2234Z" fill="#D2D9DC"/>
<path d="M100.285 65.8841C99.4609 65.8841 98.6371 66.04 97.88 66.374C95.9429 64.0138 93.0707 62.6334 90.0425 62.6111H83.4519C84.2312 58.915 84.2312 55.1076 83.4519 51.4337H89.1742C92.2246 51.4337 95.1191 50.031 97.0562 47.6486C106.92 51.0107 109.837 34.9572 99.4386 34.4005C95.7203 34.4673 92.7589 37.54 92.8035 41.2584C92.8035 42.7724 93.2933 44.2642 94.2062 45.4666C92.9816 46.9806 91.1113 47.8712 89.1742 47.8712H82.45C79.7113 40.3232 73.7664 34.3783 66.2406 31.6173V24.0248C66.2628 22.0876 67.1312 20.2396 68.623 18.9927C72.8312 22.3771 79.8226 19.1931 79.689 13.7603C79.6222 10.0419 76.5496 7.08062 72.8312 7.12515C69.1351 7.05835 66.107 9.97515 66.0179 13.649C65.9957 14.4951 66.1515 15.3634 66.441 16.165C64.0808 18.1021 62.7003 20.9744 62.6781 24.0025V30.5931C58.982 29.8138 55.1746 29.8138 51.5007 30.5931V24.8708C51.5007 21.8205 50.098 18.9259 47.7156 16.9888C49.007 13.5376 47.248 9.6857 43.7968 8.39429C43.0175 8.10484 42.1714 7.94898 41.3253 7.97124C37.607 7.90444 34.5343 10.888 34.4675 14.6064C34.5343 18.3248 37.607 21.2861 41.3253 21.2416C42.8394 21.2416 44.3312 20.7517 45.5336 19.8388C47.0476 21.0634 47.9382 22.9337 47.9382 24.8708V31.6173C40.3902 34.356 34.4453 40.3009 31.6843 47.8267H24.0472C22.1101 47.8044 20.2621 46.9361 19.0152 45.4443C22.3996 41.2361 19.2156 34.2447 13.7828 34.3783C10.0644 34.4451 7.10308 37.5177 7.14761 41.2361C7.08081 44.9322 9.99761 47.9603 13.6714 48.0494C14.5175 48.0716 15.3859 47.9158 16.1875 47.6263C18.1246 49.9865 20.9968 51.3669 24.025 51.3892H30.6156C29.8363 55.0853 29.8363 58.8927 30.6156 62.5666H24.8933C21.8429 62.5666 18.9484 63.9693 17.0113 66.3517C13.5601 65.0603 9.70816 66.8193 8.41675 70.2705C8.1273 71.0498 7.97144 71.8959 7.9937 72.742C7.92691 76.4603 10.9105 79.533 14.6289 79.5998C18.3472 79.533 21.3085 76.4603 21.264 72.742C21.264 71.2279 20.7742 69.7361 19.8613 68.5337C21.0859 67.0197 22.9562 66.1291 24.8933 66.1291H31.6175C34.3562 73.6771 40.3011 79.622 47.8269 82.383V89.9755C47.8046 91.9127 46.9363 93.7607 45.4445 95.0076C41.2363 91.6232 34.2449 94.8072 34.3785 100.24C34.4453 103.958 37.5179 106.92 41.2363 106.875C44.9324 106.942 47.9605 104.025 48.0496 100.351C48.0718 99.5052 47.916 98.6369 47.6265 97.8353C49.9867 95.8982 51.3671 93.0259 51.3894 89.9978V83.4072C53.2375 83.808 55.1078 84.0084 57.0003 83.9861C58.8707 83.9861 60.741 83.7857 62.5668 83.4072V89.1294C62.5668 92.1798 63.9695 95.0744 66.3519 97.0115C66.0402 97.7685 65.8843 98.5701 65.8843 99.3939C66.1515 108.122 79.3105 108.167 79.6 99.3939C79.5332 95.6755 76.4605 92.7142 72.7421 92.7587C71.2281 92.7587 69.7363 93.2486 68.5339 94.1615C67.0199 92.9369 66.1293 91.0666 66.1293 89.1294V82.383C73.6773 79.6443 79.6222 73.6994 82.3832 66.1736H89.9757C91.9128 66.1959 93.7609 67.0642 95.0078 68.556C91.6457 72.7642 94.8074 79.7334 100.24 79.622C109.013 79.3103 109.057 66.1736 100.285 65.8841ZM57.0226 52.4357C52.525 52.4357 48.1832 54.1947 44.9769 57.3787C44.2644 58.0466 43.1289 58.0244 42.4386 57.3119C41.7707 56.6216 41.7929 55.5306 42.4609 54.8404C50.5656 46.9584 63.4574 46.9584 71.5621 54.8404C72.2523 55.5529 72.23 56.6884 71.5398 57.3787C70.8496 58.0466 69.7586 58.0466 69.0683 57.4009C65.8621 54.1947 61.5425 52.4357 57.0226 52.4357ZM67.1757 61.854C66.4855 62.5443 65.3722 62.5666 64.682 61.8763C64.682 61.8763 64.682 61.8763 64.6597 61.854C60.407 57.7126 53.6605 57.7126 49.4078 61.854C48.7175 62.5443 47.582 62.5443 46.8918 61.8318C46.2015 61.1193 46.2015 60.006 46.914 59.2935C52.5472 53.8162 61.5203 53.8162 67.1535 59.2935C67.8437 60.0283 67.866 61.1638 67.1757 61.854ZM53.0371 62.5666C55.2636 60.3845 58.8484 60.4291 61.0082 62.6556C63.1457 64.8376 63.1457 68.3556 61.0082 70.5376C58.7816 72.7197 55.1968 72.6751 53.0371 70.4486C50.8996 68.2443 50.8996 64.7486 53.0371 62.5666ZM57.0226 46.1123C50.855 46.09 44.9324 48.5169 40.5461 52.8365C39.8335 53.5044 38.698 53.4822 38.03 52.7697C37.3621 52.0794 37.3843 50.9884 38.0523 50.2982C48.6285 40.0337 65.4167 40.0337 75.9929 50.2982C76.6832 51.0107 76.6832 52.124 75.9707 52.8142C75.2804 53.4822 74.1894 53.5044 73.4992 52.8365C69.1128 48.5169 63.1902 46.09 57.0226 46.1123ZM55.5531 65.0603C56.3769 64.2587 57.7128 64.281 58.5144 65.1048C59.2937 65.9064 59.2937 67.1978 58.5144 67.9994C57.6906 68.8009 56.3546 68.7787 55.5531 67.9548C54.7738 67.1533 54.7738 65.8841 55.5531 65.0603Z" fill="#0054A6"/>
</svg>
