<svg width="48" height="48" viewBox="0 0 48 48" fill="none" xmlns="http://www.w3.org/2000/svg">
<path d="M26.999 6.75C26.8001 6.75 26.6093 6.67098 26.4687 6.53033C26.328 6.38968 26.249 6.19891 26.249 6C26.249 5.80109 26.328 5.61032 26.4687 5.46967C26.6093 5.32902 26.8001 5.25 26.999 5.25C27.3968 5.25 27.7784 5.09196 28.0597 4.81066C28.341 4.52936 28.499 4.14782 28.499 3.75C28.499 3.35218 28.341 2.97064 28.0597 2.68934C27.7784 2.40804 27.3968 2.25 26.999 2.25C26.8001 2.25 26.6093 2.17098 26.4687 2.03033C26.328 1.88968 26.249 1.69891 26.249 1.5C26.249 1.30109 26.328 1.11032 26.4687 0.96967C26.6093 0.829018 26.8001 0.75 26.999 0.75C27.7947 0.75 28.5577 1.06607 29.1203 1.62868C29.683 2.19129 29.999 2.95435 29.999 3.75C29.999 4.54565 29.683 5.30871 29.1203 5.87132C28.5577 6.43393 27.7947 6.75 26.999 6.75Z" fill="#A5C3DC"/>
<path d="M35.999 6.75C35.8001 6.75 35.6093 6.67098 35.4687 6.53033C35.328 6.38968 35.249 6.19891 35.249 6C35.249 5.80109 35.328 5.61032 35.4687 5.46967C35.6093 5.32902 35.8001 5.25 35.999 5.25C36.3968 5.25 36.7784 5.09196 37.0597 4.81066C37.341 4.52936 37.499 4.14782 37.499 3.75C37.499 3.35218 37.341 2.97064 37.0597 2.68934C36.7784 2.40804 36.3968 2.25 35.999 2.25C35.8001 2.25 35.6093 2.17098 35.4687 2.03033C35.328 1.88968 35.249 1.69891 35.249 1.5C35.249 1.30109 35.328 1.11032 35.4687 0.96967C35.6093 0.829018 35.8001 0.75 35.999 0.75C36.7947 0.75 37.5577 1.06607 38.1203 1.62868C38.683 2.19129 38.999 2.95435 38.999 3.75C38.999 4.54565 38.683 5.30871 38.1203 5.87132C37.5577 6.43393 36.7947 6.75 35.999 6.75Z" fill="#A5C3DC"/>
<path d="M22.499 8.25H43.499V18.75C43.499 19.3467 43.262 19.919 42.84 20.341C42.4181 20.7629 41.8458 21 41.249 21H24.749C24.1523 21 23.58 20.7629 23.158 20.341C22.7361 19.919 22.499 19.3467 22.499 18.75V8.25Z" fill="#A5C3DC"/>
<path d="M22.499 8.25H40.499V18.75C40.499 19.3467 40.262 19.919 39.84 20.341C39.4181 20.7629 38.8458 21 38.249 21H24.749C24.1523 21 23.58 20.7629 23.158 20.341C22.7361 19.919 22.499 19.3467 22.499 18.75V8.25Z" fill="#D7E6F0"/>
<path d="M24.749 3.75H41.249C41.8458 3.75 42.4181 3.98705 42.84 4.40901C43.262 4.83097 43.499 5.40326 43.499 6V8.25H22.499V6C22.499 5.40326 22.7361 4.83097 23.158 4.40901C23.58 3.98705 24.1523 3.75 24.749 3.75Z" fill="#4664A5"/>
<path d="M24.749 3.75H38.249C38.8458 3.75 39.4181 3.98705 39.84 4.40901C40.262 4.83097 40.499 5.40326 40.499 6V8.25H22.499V6C22.499 5.40326 22.7361 4.83097 23.158 4.40901C23.58 3.98705 24.1523 3.75 24.749 3.75Z" fill="#6EA5D7"/>
<path d="M35.999 6.75C35.2034 6.75 34.4403 6.43393 33.8777 5.87132C33.3151 5.30871 32.999 4.54565 32.999 3.75C32.999 2.95435 33.3151 2.19129 33.8777 1.62868C34.4403 1.06607 35.2034 0.75 35.999 0.75C36.1979 0.75 36.3887 0.829018 36.5294 0.96967C36.67 1.11032 36.749 1.30109 36.749 1.5C36.749 1.69891 36.67 1.88968 36.5294 2.03033C36.3887 2.17098 36.1979 2.25 35.999 2.25C35.6012 2.25 35.2197 2.40804 34.9384 2.68934C34.6571 2.97064 34.499 3.35218 34.499 3.75C34.499 4.14782 34.6571 4.52936 34.9384 4.81066C35.2197 5.09196 35.6012 5.25 35.999 5.25C36.1979 5.25 36.3887 5.32902 36.5294 5.46967C36.67 5.61032 36.749 5.80109 36.749 6C36.749 6.19891 36.67 6.38968 36.5294 6.53033C36.3887 6.67098 36.1979 6.75 35.999 6.75Z" fill="#D7E6F0"/>
<path d="M26.999 6.75C26.2034 6.75 25.4403 6.43393 24.8777 5.87132C24.3151 5.30871 23.999 4.54565 23.999 3.75C23.999 2.95435 24.3151 2.19129 24.8777 1.62868C25.4403 1.06607 26.2034 0.75 26.999 0.75C27.1979 0.75 27.3887 0.829018 27.5294 0.96967C27.67 1.11032 27.749 1.30109 27.749 1.5C27.749 1.69891 27.67 1.88968 27.5294 2.03033C27.3887 2.17098 27.1979 2.25 26.999 2.25C26.6012 2.25 26.2197 2.40804 25.9384 2.68934C25.6571 2.97064 25.499 3.35218 25.499 3.75C25.499 4.14782 25.6571 4.52936 25.9384 4.81066C26.2197 5.09196 26.6012 5.25 26.999 5.25C27.1979 5.25 27.3887 5.32902 27.5294 5.46967C27.67 5.61032 27.749 5.80109 27.749 6C27.749 6.19891 27.67 6.38968 27.5294 6.53033C27.3887 6.67098 27.1979 6.75 26.999 6.75Z" fill="#D7E6F0"/>
<path d="M26.999 10.5H25.499C25.0848 10.5 24.749 10.8358 24.749 11.25V12.75C24.749 13.1642 25.0848 13.5 25.499 13.5H26.999C27.4132 13.5 27.749 13.1642 27.749 12.75V11.25C27.749 10.8358 27.4132 10.5 26.999 10.5Z" fill="#A5C3DC"/>
<path d="M32.249 10.5H30.749C30.3348 10.5 29.999 10.8358 29.999 11.25V12.75C29.999 13.1642 30.3348 13.5 30.749 13.5H32.249C32.6632 13.5 32.999 13.1642 32.999 12.75V11.25C32.999 10.8358 32.6632 10.5 32.249 10.5Z" fill="#A5C3DC"/>
<path d="M37.499 10.5H35.999C35.5848 10.5 35.249 10.8358 35.249 11.25V12.75C35.249 13.1642 35.5848 13.5 35.999 13.5H37.499C37.9132 13.5 38.249 13.1642 38.249 12.75V11.25C38.249 10.8358 37.9132 10.5 37.499 10.5Z" fill="#A5C3DC"/>
<path d="M26.999 15.75H25.499C25.0848 15.75 24.749 16.0858 24.749 16.5V18C24.749 18.4142 25.0848 18.75 25.499 18.75H26.999C27.4132 18.75 27.749 18.4142 27.749 18V16.5C27.749 16.0858 27.4132 15.75 26.999 15.75Z" fill="#A5C3DC"/>
<path d="M32.249 15.75H30.749C30.3348 15.75 29.999 16.0858 29.999 16.5V18C29.999 18.4142 30.3348 18.75 30.749 18.75H32.249C32.6632 18.75 32.999 18.4142 32.999 18V16.5C32.999 16.0858 32.6632 15.75 32.249 15.75Z" fill="#A5C3DC"/>
<path d="M33.749 46.6875H17.249C15.608 46.6875 14.0342 46.0356 12.8738 44.8752C11.7134 43.7148 11.0615 42.141 11.0615 40.5C11.0615 38.859 11.7134 37.2852 12.8738 36.1248C14.0342 34.9644 15.608 34.3125 17.249 34.3125H25.999C26.7449 34.3125 27.4603 34.0162 27.9877 33.4887C28.5152 32.9613 28.8115 32.2459 28.8115 31.5C28.8115 30.7541 28.5152 30.0387 27.9877 29.5113C27.4603 28.9838 26.7449 28.6875 25.999 28.6875H11.249V25.3125H25.999C27.64 25.3125 29.2138 25.9644 30.3742 27.1248C31.5346 28.2852 32.1865 29.859 32.1865 31.5C32.1865 33.141 31.5346 34.7148 30.3742 35.8752C29.2138 37.0356 27.64 37.6875 25.999 37.6875H17.249C16.5031 37.6875 15.7877 37.9838 15.2603 38.5113C14.7328 39.0387 14.4365 39.7541 14.4365 40.5C14.4365 41.2459 14.7328 41.9613 15.2603 42.4887C15.7877 43.0162 16.5031 43.3125 17.249 43.3125H33.749V46.6875Z" fill="#FAA01E"/>
<path d="M37.499 24H43.499C43.6979 24 43.8887 24.079 44.0294 24.2197C44.17 24.3603 44.249 24.5511 44.249 24.75V33C44.249 33.7956 43.933 34.5587 43.3703 35.1213C42.8077 35.6839 42.0447 36 41.249 36H39.749C38.9534 36 38.1903 35.6839 37.6277 35.1213C37.0651 34.5587 36.749 33.7956 36.749 33V24.75C36.749 24.5511 36.828 24.3603 36.9687 24.2197C37.1093 24.079 37.3001 24 37.499 24Z" fill="#A5C3DC"/>
<path d="M37.499 24H39.749V33C39.749 33.3978 39.591 33.7794 39.3097 34.0607C39.0284 34.342 38.6468 34.5 38.249 34.5C37.8512 34.5 37.4697 34.342 37.1884 34.0607C36.9071 33.7794 36.749 33.3978 36.749 33V24.75C36.749 24.5511 36.828 24.3603 36.9687 24.2197C37.1093 24.079 37.3001 24 37.499 24Z" fill="#D7E6F0"/>
<path d="M36.749 27.25H44.249V33C44.249 33.7956 43.933 34.5587 43.3703 35.1213C42.8077 35.6839 42.0447 36 41.249 36H39.749C38.9534 36 38.1903 35.6839 37.6277 35.1213C37.0651 34.5587 36.749 33.7956 36.749 33V27.25Z" fill="#AA2823"/>
<path d="M39.749 36H41.249V45H39.749V36Z" fill="#A5C3DC"/>
<path d="M39.749 36H41.249V37.5H39.749V36Z" fill="#87A5BE"/>
<path d="M38.999 45H41.999C42.3968 45 42.7784 45.158 43.0597 45.4393C43.341 45.7206 43.499 46.1022 43.499 46.5H37.499C37.499 46.1022 37.6571 45.7206 37.9384 45.4393C38.2197 45.158 38.6012 45 38.999 45Z" fill="#87A5BE"/>
<path d="M36.749 27.25H39.749V33C39.749 33.3978 39.591 33.7793 39.3097 34.0606C39.0284 34.3419 38.6468 34.5 38.249 34.5C37.8512 34.5 37.4697 34.3419 37.1884 34.0606C36.9071 33.7793 36.749 33.3978 36.749 33V27.25Z" fill="#E13741"/>
<path d="M38.2486 25H38.2485C37.9724 25 37.7485 25.2238 37.7485 25.5V32.5C37.7485 32.7761 37.9724 33 38.2485 33H38.2486C38.5247 33 38.7486 32.7761 38.7486 32.5V25.5C38.7486 25.2238 38.5247 25 38.2486 25Z" fill="white"/>
<path d="M11.249 29.25C12.4917 29.25 13.499 28.2426 13.499 27C13.499 25.7574 12.4917 24.75 11.249 24.75C10.0064 24.75 8.99902 25.7574 8.99902 27C8.99902 28.2426 10.0064 29.25 11.249 29.25Z" fill="#E13741"/>
<path d="M33.749 47.25C34.9917 47.25 35.999 46.2426 35.999 45C35.999 43.7574 34.9917 42.75 33.749 42.75C32.5064 42.75 31.499 43.7574 31.499 45C31.499 46.2426 32.5064 47.25 33.749 47.25Z" fill="#E13741"/>
<path d="M11.34 3.00054C7.02468 2.94907 3.61583 6.59379 3.75561 10.9071C3.94893 16.8827 8.33371 21.839 9.92699 23.4484C10.0999 23.6232 10.3058 23.7619 10.5327 23.8566C10.7596 23.9512 11.003 24 11.2489 24C11.4949 24 11.7384 23.9512 11.9654 23.8564C12.1924 23.7617 12.3984 23.6229 12.5714 23.448C14.2011 21.8016 18.7489 16.6561 18.7489 10.5C18.7489 8.52664 17.9711 6.63281 16.5843 5.229C15.1974 3.82519 13.3132 3.02451 11.34 3.00054Z" fill="#E13741"/>
<path d="M11.2486 3V24C11.0027 23.9999 10.7594 23.9512 10.5325 23.8566C10.3056 23.762 10.0997 23.6234 9.92669 23.4487C8.33294 21.8391 3.94825 16.8825 3.75512 10.9069C3.61637 6.62437 6.97637 3.00094 11.2486 3Z" fill="#FF555F"/>
<path d="M11.249 15.75C14.1485 15.75 16.499 13.3995 16.499 10.5C16.499 7.60051 14.1485 5.25 11.249 5.25C8.34953 5.25 5.99902 7.60051 5.99902 10.5C5.99902 13.3995 8.34953 15.75 11.249 15.75Z" fill="#A5C3DC"/>
<path d="M11.249 5.25V15.75C9.85664 15.75 8.52128 15.1969 7.53671 14.2123C6.55215 13.2277 5.99902 11.8924 5.99902 10.5C5.99902 9.10761 6.55215 7.77226 7.53671 6.78769C8.52128 5.80312 9.85664 5.25 11.249 5.25Z" fill="#D7E6F0"/>
</svg>
