<svg width="48" height="65" viewBox="0 0 48 65" fill="none" xmlns="http://www.w3.org/2000/svg">
<path d="M23.5875 63.7441L6.04318 58.8163L2.13184 14.4554H45.0961L41.1848 58.8102" fill="#4B4B4D"/>
<path d="M37.8342 55.9859L41.1795 18.0815H23.6147V59.9736" fill="#4B4B4D"/>
<path d="M24.7441 2.39929V4.63656L27.089 7.9959H24.9255V10.6727H31.4197V8.12125L29.2547 5.31913H31.4197V2.39929" fill="#4B4B4D"/>
<path d="M24.5889 23.5231V28.963L36.6131 28.6978L37.0702 23.5231" fill="#4B4B4D"/>
<path d="M34.6506 34.5366H24.5889V39.9765L31.4488 39.524L30.8284 46.8106L24.5889 48.399V54.0544L34.6226 51.2386L34.7035 50.3206L35.9685 35.9965L36.0985 34.5366" fill="#4B4B4D"/>
<path d="M29.0307 37.3266H24.5889V26.2434H29.5249" fill="#4B4B4D"/>
<path d="M22.467 48.3585L15.508 46.3612L15.2859 43.3176L11.8188 42.6962L12.5715 51.2386L22.467 54.017" fill="#4B4B4D"/>
<path d="M22.467 23.5231H17.8975L18.8473 51.4045H22.467" fill="#4B4B4D"/>
<path d="M19.6534 2.39929V7.93781H18.5448V6.90593H15.8101V10.6727H22.3874V2.39929" fill="#4B4B4D"/>
<path d="M23.5875 63.7441L6.04318 58.8163L2.13184 14.4554H45.0961L41.1848 58.8102" fill="#F48131"/>
<path d="M37.8342 55.9859L41.1795 18.0815H23.6147V59.9736" fill="#F99C35"/>
<path fill-rule="evenodd" clip-rule="evenodd" d="M24.7441 2.39929V4.63656L27.089 7.9959H24.9255V10.6727H31.4197V8.12125L29.2547 5.31913H31.4197V2.39929" fill="black"/>
<path d="M24.5889 23.5231V28.963L36.6131 28.6978L37.0702 23.5231" fill="white"/>
<path d="M34.6506 34.5366H24.5889V39.9765L31.4488 39.524L30.8284 46.8106L24.5889 48.399V54.0544L34.6226 51.2386L34.7035 50.3206L35.9685 35.9965L36.0985 34.5366" fill="white"/>
<path d="M29.0307 37.3266H24.5889V26.2434H29.5249" fill="white"/>
<path d="M22.467 48.3585L15.508 46.3612L15.2859 43.3176L11.8188 42.6962L12.5715 51.2386L22.467 54.017" fill="#EBEBEC"/>
<path d="M22.467 23.5231H17.8975L18.8473 51.4045H22.467" fill="#EBEBEC"/>
<path fill-rule="evenodd" clip-rule="evenodd" d="M19.6534 2.39929V7.93781H18.5448V6.90593H15.8101V10.6727H22.3874V2.39929" fill="black"/>
</svg>
