<svg width="80" height="80" viewBox="0 0 80 80" fill="none" xmlns="http://www.w3.org/2000/svg">
<g id="web-and-data-scraping-technology_javascript 2" clip-path="url(#clip0_6034_17583)">
<g id="Group">
<path id="Vector" d="M0 0H80V80H0V0Z" fill="#FFDF00"/>
<path id="Vector_2" d="M53.7 62.4999C55.3 65.0999 57.4 67.0999 61.1 67.0999C64.2 67.0999 66.2 65.4999 66.2 63.3999C66.2 60.7999 64.2 59.8999 60.7 58.3999L58.8 57.5999C53.4 55.2999 49.8 52.3999 49.8 46.2999C49.8 40.6999 54.1 36.3999 60.8 36.3999C65.6 36.3999 69 38.0999 71.5 42.3999L65.6 46.1999C64.3 43.8999 62.9 42.9999 60.8 42.9999C58.6 42.9999 57.2 44.3999 57.2 46.1999C57.2 48.4999 58.6 49.3999 61.8 50.7999L63.7 51.5999C70.1 54.2999 73.7 57.0999 73.7 63.3999C73.7 70.1999 68.4 73.8999 61.2 73.8999C54.2 73.8999 49.7 70.5999 47.5 66.1999L53.7 62.4999ZM27.2 63.1999C28.4 65.2999 29.5 67.0999 32 67.0999C34.5 67.0999 36 66.0999 36 62.3999V36.6999H43.5V62.3999C43.5 70.1999 38.9 73.6999 32.3 73.6999C26.3 73.6999 22.8 70.5999 21 66.7999L27.2 63.1999Z" fill="black"/>
</g>
</g>
<defs>
<clipPath id="clip0_6034_17583">
<rect width="80" height="80" fill="white"/>
</clipPath>
</defs>
</svg>
