<svg width="48" height="48" viewBox="0 0 48 48" fill="none" xmlns="http://www.w3.org/2000/svg">
<g id="domain-specific-data-scraping-solutions_job-data-and-human-capital 1" clip-path="url(#clip0_6034_16892)">
<g id="Group">
<path id="Vector" d="M23.9992 46.3002C36.3152 46.3002 46.2992 36.3161 46.2992 24.0002C46.2992 11.6842 36.3152 1.7002 23.9992 1.7002C11.6833 1.7002 1.69922 11.6842 1.69922 24.0002C1.69922 36.3161 11.6833 46.3002 23.9992 46.3002Z" fill="#002548"/>
<path id="Vector_2" d="M24.0004 39.0999C32.3399 39.0999 39.1004 32.3394 39.1004 23.9999C39.1004 15.6604 32.3399 8.8999 24.0004 8.8999C15.6609 8.8999 8.90039 15.6604 8.90039 23.9999C8.90039 32.3394 15.6609 39.0999 24.0004 39.0999Z" fill="#D2D9DC"/>
<path id="Vector_3" d="M23.9992 25.2001C27.2025 25.2001 29.7992 22.6033 29.7992 19.4001C29.7992 16.1968 27.2025 13.6001 23.9992 13.6001C20.796 13.6001 18.1992 16.1968 18.1992 19.4001C18.1992 22.6033 20.796 25.2001 23.9992 25.2001Z" fill="#0054A6"/>
<path id="Vector_4" d="M34.5 35C34.5 29.2 29.8 24.5 24 24.5C18.2 24.5 13.5 29.2 13.5 35C19.4 40.6 28.6 40.6 34.5 35Z" fill="#0054A6"/>
<path id="Vector_5" d="M39.7004 47.9999C44.2844 47.9999 48.0004 44.2839 48.0004 39.6999C48.0004 35.1159 44.2844 31.3999 39.7004 31.3999C35.1164 31.3999 31.4004 35.1159 31.4004 39.6999C31.4004 44.2839 35.1164 47.9999 39.7004 47.9999Z" fill="#54CC5A"/>
<path id="Vector_6" d="M35.5996 39.7002H37.2996V43.0002H35.5996V39.7002Z" fill="#F9FAFB"/>
<path id="Vector_7" d="M38.9004 38.1001H40.6004V43.1001H38.9004V38.1001Z" fill="#F9FAFB"/>
<path id="Vector_8" d="M42.1992 36.3999H43.8992V42.9999H42.1992V36.3999Z" fill="#F9FAFB"/>
<g id="Group_2">
<path id="Vector_9" d="M16.4 8.2C16.4 12.7 12.7 16.4 8.2 16.4C3.7 16.4 0 12.7 0 8.2C0 3.7 3.7 0 8.2 0C12.7 0 16.4 3.7 16.4 8.2Z" fill="#FFDD33"/>
<path id="Vector_10" opacity="0.19" d="M9.49961 9.4001C9.29961 9.3001 9.19961 9.1001 8.99961 9.0001C8.89961 9.0001 8.69961 8.9001 8.59961 8.9001V11.0001C8.69961 11.0001 8.89961 11.0001 8.99961 10.9001C9.19961 10.8001 9.29961 10.7001 9.49961 10.6001C9.59961 10.4001 9.69961 10.3001 9.69961 10.0001C9.59961 9.8001 9.59961 9.6001 9.49961 9.4001ZM7.59961 5.4001C7.39961 5.5001 7.29961 5.6001 7.19961 5.7001C7.09961 5.9001 6.99961 6.0001 6.99961 6.3001C6.99961 6.5001 7.09961 6.7001 7.09961 6.8001C7.19961 6.9001 7.39961 7.0001 7.49961 7.1001C7.59961 7.2001 7.69961 7.2001 7.79961 7.3001V5.4001C7.69961 5.4001 7.69961 5.4001 7.59961 5.4001ZM7.59961 5.4001C7.39961 5.5001 7.29961 5.6001 7.19961 5.7001C7.09961 5.9001 6.99961 6.0001 6.99961 6.3001C6.99961 6.5001 7.09961 6.7001 7.09961 6.8001C7.19961 6.9001 7.39961 7.0001 7.49961 7.1001C7.59961 7.2001 7.69961 7.2001 7.79961 7.3001V5.4001C7.69961 5.4001 7.69961 5.4001 7.59961 5.4001ZM9.49961 9.4001C9.29961 9.3001 9.19961 9.1001 8.99961 9.0001C8.89961 9.0001 8.69961 8.9001 8.59961 8.9001V11.0001C8.69961 11.0001 8.89961 11.0001 8.99961 10.9001C9.19961 10.8001 9.29961 10.7001 9.49961 10.6001C9.59961 10.4001 9.69961 10.3001 9.69961 10.0001C9.59961 9.8001 9.59961 9.6001 9.49961 9.4001ZM7.19961 5.7001C7.09961 5.9001 6.99961 6.0001 6.99961 6.3001C6.99961 6.5001 7.09961 6.7001 7.09961 6.8001C7.19961 6.9001 7.39961 7.0001 7.49961 7.1001C7.59961 7.2001 7.69961 7.2001 7.79961 7.3001V5.4001C7.69961 5.4001 7.59961 5.4001 7.49961 5.5001C7.39961 5.5001 7.29961 5.6001 7.19961 5.7001ZM8.19961 2.1001C4.79961 2.1001 2.09961 4.8001 2.09961 8.2001C2.09961 11.6001 4.79961 14.3001 8.19961 14.3001C11.5996 14.3001 14.2996 11.6001 14.2996 8.2001C14.2996 4.8001 11.5996 2.1001 8.19961 2.1001ZM10.6996 11.0001C10.4996 11.3001 10.1996 11.6001 9.79961 11.8001C9.49961 12.0001 9.09961 12.1001 8.59961 12.1001V13.0001H7.89961V12.1001C7.49961 12.1001 7.19961 12.0001 6.89961 11.8001C6.49961 11.6001 6.09961 11.3001 5.89961 10.9001C5.69961 10.5001 5.49961 10.1001 5.49961 9.6001H6.89961C6.89961 9.8001 6.99961 10.1001 7.09961 10.3001C7.19961 10.5001 7.39961 10.7001 7.59961 10.8001C7.59961 10.9001 7.69961 11.0001 7.89961 11.0001V8.6001C7.79961 8.6001 7.69961 8.5001 7.59961 8.5001C6.89961 8.3001 6.39961 8.0001 6.09961 7.7001C5.79961 7.3001 5.69961 6.9001 5.69961 6.4001C5.69961 6.0001 5.79961 5.6001 5.99961 5.3001C6.19961 5.0001 6.49961 4.7001 6.89961 4.6001C7.19961 4.5001 7.49961 4.4001 7.89961 4.4001V3.4001H8.59961V4.3001C8.89961 4.3001 9.29961 4.4001 9.49961 4.6001C9.89961 4.8001 10.1996 5.0001 10.3996 5.4001C10.5996 5.7001 10.6996 6.1001 10.7996 6.6001H9.39961C9.39961 6.4001 9.29961 6.2001 9.19961 6.0001C9.09961 5.7001 8.99961 5.6001 8.79961 5.5001C8.69961 5.5001 8.69961 5.4001 8.59961 5.4001V7.6001C8.69961 7.6001 8.79961 7.7001 8.89961 7.7001C9.29961 7.8001 9.69961 8.0001 9.99961 8.1001C10.2996 8.3001 10.5996 8.5001 10.7996 8.8001C10.8996 9.1001 10.9996 9.5001 10.9996 9.9001C10.9996 10.3001 10.8996 10.7001 10.6996 11.0001ZM8.99961 9.0001C8.89961 9.0001 8.69961 8.9001 8.59961 8.9001V11.0001C8.69961 11.0001 8.89961 11.0001 8.99961 10.9001C9.19961 10.8001 9.29961 10.7001 9.49961 10.6001C9.59961 10.4001 9.69961 10.3001 9.69961 10.0001C9.69961 9.8001 9.59961 9.6001 9.49961 9.4001C9.29961 9.3001 9.19961 9.1001 8.99961 9.0001ZM7.19961 5.7001C7.09961 5.9001 6.99961 6.0001 6.99961 6.3001C6.99961 6.5001 7.09961 6.7001 7.09961 6.8001C7.19961 6.9001 7.39961 7.0001 7.49961 7.1001C7.59961 7.2001 7.69961 7.2001 7.79961 7.3001V5.4001C7.69961 5.4001 7.59961 5.4001 7.49961 5.5001C7.39961 5.5001 7.29961 5.6001 7.19961 5.7001ZM7.59961 5.4001C7.39961 5.5001 7.29961 5.6001 7.19961 5.7001C7.09961 5.9001 6.99961 6.0001 6.99961 6.3001C6.99961 6.5001 7.09961 6.7001 7.09961 6.8001C7.19961 6.9001 7.39961 7.0001 7.49961 7.1001C7.59961 7.2001 7.69961 7.2001 7.79961 7.3001V5.4001C7.69961 5.4001 7.69961 5.4001 7.59961 5.4001ZM9.49961 9.4001C9.29961 9.3001 9.19961 9.1001 8.99961 9.0001C8.89961 9.0001 8.69961 8.9001 8.59961 8.9001V11.0001C8.69961 11.0001 8.89961 11.0001 8.99961 10.9001C9.19961 10.8001 9.29961 10.7001 9.49961 10.6001C9.59961 10.4001 9.69961 10.3001 9.69961 10.0001C9.59961 9.8001 9.59961 9.6001 9.49961 9.4001Z" fill="#2D2F31"/>
</g>
</g>
</g>
<defs>
<clipPath id="clip0_6034_16892">
<rect width="48" height="48" fill="white"/>
</clipPath>
</defs>
</svg>
