<svg width="222" height="55" viewBox="0 0 222 55" fill="none" xmlns="http://www.w3.org/2000/svg">
<path d="M95.2322 41.0535H88.5416C88.5416 40.792 87.412 39.0488 85.0659 35.7365C82.3723 31.9014 79.9393 28.6763 77.6802 26.1486C74.639 22.7492 72.4667 21.006 70.9895 21.006H70.0337C70.0337 25.7999 70.1206 32.4243 70.3813 41.0535H64.6465C64.994 34.6906 65.0809 27.7175 65.0809 20.1343C65.0809 12.9869 64.9072 6.62403 64.6465 1.21991H70.3813C70.2075 6.62403 70.0337 12.2025 70.0337 17.7809H70.7289C71.8585 17.7809 74.639 15.166 79.1573 9.93623C83.5888 4.70644 85.8479 1.83005 85.8479 1.21991H92.191C92.191 1.83005 90.0187 4.35779 85.6742 8.80311C81.3296 13.2484 78.1146 16.212 75.9423 17.7809V18.0424C78.2884 18.914 82.1985 23.0107 87.6727 30.2453C92.7124 36.7825 95.2322 40.4434 95.2322 41.0535Z" fill="#CDCCCC"/>
<path d="M125.035 23.0986C125.035 23.9703 125.035 25.1034 124.948 26.6723L103.921 27.021C104.094 29.9845 105.311 32.5122 107.396 34.517C109.482 36.5218 112.262 37.5677 115.738 37.5677C118.866 37.5677 121.733 37.2191 124.427 36.4346L123.906 40.7928C121.907 41.5772 119.04 42.013 115.303 42.013C110.003 42.013 106.006 40.5313 103.225 37.6549C100.358 34.6042 98.9678 31.1176 98.9678 26.9338C98.9678 22.4885 100.271 18.6533 102.791 15.4283C105.311 12.2032 108.7 10.6343 113.044 10.6343C116.954 10.6343 119.995 11.7674 121.994 14.1208C123.992 16.4742 125.035 19.4378 125.035 23.0986ZM119.909 23.0986C119.909 17.3458 117.476 14.4695 112.697 14.4695C107.831 14.4695 104.963 17.433 104.094 23.4473L119.909 23.0986Z" fill="#CDCCCC"/>
<path d="M157.098 23.0981C157.098 23.9697 157.098 25.1028 157.011 26.6718L135.984 27.0204C136.157 29.984 137.374 32.5117 139.459 34.5164C141.545 36.5212 144.325 37.5672 147.801 37.5672C150.929 37.5672 153.796 37.2185 156.49 36.434L155.969 40.7922C153.97 41.5767 151.103 42.0125 147.366 42.0125C142.066 42.0125 138.069 40.5307 135.288 37.6543C132.508 34.7779 131.118 31.2042 131.118 27.0204C131.118 22.5751 132.421 18.7399 134.941 15.5149C137.461 12.2898 140.85 10.7209 145.194 10.7209C149.104 10.7209 152.145 11.854 154.144 14.2074C156.142 16.5608 157.098 19.4372 157.098 23.0981ZM151.972 23.0981C151.972 17.3453 149.539 14.4689 144.76 14.4689C139.894 14.4689 137.026 17.4325 136.157 23.4467L151.972 23.0981Z" fill="#CDCCCC"/>
<path d="M191.856 25.2773C191.856 29.7226 190.639 33.5578 188.119 36.87C185.6 40.1822 182.124 41.8383 177.606 41.8383C173.869 41.8383 171.436 41.141 170.22 39.8335H169.872C169.872 45.4991 169.959 50.5546 170.046 54.9999H164.311C164.746 49.5958 165.006 42.8842 165.006 34.8652C165.006 25.0158 164.485 17.4326 163.442 12.0285L168.83 11.244L169.264 14.2947H169.612C171.61 12.0285 174.825 10.8082 179.17 10.8082C183.08 10.8082 186.121 12.2028 188.38 15.0792C190.639 17.9556 191.856 21.3549 191.856 25.2773ZM186.469 26.0617C186.469 23.011 185.687 20.4833 184.122 18.3042C182.558 16.1251 180.299 15.0792 177.432 15.0792C173.782 15.0792 171.176 16.2123 169.525 18.3914C169.872 25.2773 170.046 31.1172 170.046 36.0855C171.697 37.4801 173.869 38.1774 176.476 38.1774C179.865 38.1774 182.385 36.9571 184.036 34.6037C185.6 32.2503 186.469 29.3739 186.469 26.0617Z" fill="#CDCCCC"/>
<path d="M221.832 41.0538L217.053 41.2281C216.793 40.2693 216.706 39.3105 216.706 38.3517H216.358C213.838 40.618 210.45 41.7511 206.105 41.7511C203.759 41.7511 201.761 41.0538 200.023 39.6592C198.285 38.2646 197.503 36.347 197.503 33.7321C197.503 30.5942 198.806 28.0665 201.5 26.1489C204.107 24.2313 209.059 23.2725 216.271 23.0982C216.358 22.5752 216.358 22.0522 216.358 21.4421C216.358 18.9143 215.663 17.2582 214.36 16.3866C213.056 15.515 210.971 15.1663 208.277 15.1663C205.062 15.1663 201.934 15.6021 198.806 16.3866L199.328 12.1156C202.369 11.244 205.931 10.8082 209.841 10.8082C213.491 10.8082 216.271 11.5926 218.27 13.0744C220.268 14.5562 221.224 17.1711 221.224 20.7448C221.224 21.7036 221.137 23.4468 221.05 25.9746C220.964 28.5023 220.877 30.1584 220.877 31.03C221.05 34.8652 221.311 38.1774 221.832 41.0538ZM216.445 35.1267C216.358 31.9888 216.271 29.1996 216.271 26.759C212.448 26.759 209.494 27.0205 207.495 27.6307C204.194 28.6766 202.456 30.5942 202.456 33.4706C202.456 36.2598 204.454 37.6544 208.364 37.6544C211.753 37.6544 214.447 36.7828 216.445 35.1267Z" fill="#CDCCCC"/>
<path d="M94.0164 39.8336H87.3258C87.3258 39.5721 86.1962 37.8288 83.8501 34.5166C81.1565 30.6815 78.7235 27.4564 76.4643 24.9287C73.4232 21.5293 71.2509 19.7861 69.7737 19.7861H68.8179C68.8179 24.58 68.9048 31.2044 69.1655 39.8336H63.4307C63.7782 33.4707 63.8651 26.4976 63.8651 18.9144C63.8651 11.767 63.6913 5.40412 63.4307 0H69.1655C68.9917 5.40412 68.8179 10.9826 68.8179 16.561H69.5131C70.6426 16.561 73.4232 13.9461 77.9415 8.71632C82.373 3.48653 84.6321 0.610143 84.6321 0H90.9752C90.9752 0.610143 88.8029 3.13788 84.4583 7.5832C80.1138 12.0285 76.8988 14.9921 74.7265 16.561V16.9097C77.0726 17.7813 80.9827 21.878 86.4568 29.1125C91.4965 35.5626 94.0164 39.2235 94.0164 39.8336Z" fill="#2D2F31"/>
<path d="M123.732 21.878C123.732 22.7496 123.732 23.8827 123.646 25.4517L102.618 25.8003C102.792 28.7639 104.008 31.2916 106.094 33.2964C108.179 35.3011 110.959 36.3471 114.435 36.3471C117.563 36.3471 120.431 35.9984 123.124 35.2139L122.603 39.5721C120.604 40.3566 117.737 40.7924 114.001 40.7924C108.7 40.7924 104.703 39.3106 101.923 36.4342C99.1422 33.5578 97.752 29.9842 97.752 25.8003C97.752 21.355 99.0553 17.5198 101.575 14.2948C104.095 11.0697 107.484 9.50079 111.828 9.50079C115.738 9.50079 118.78 10.6339 120.778 12.9873C122.777 15.3407 123.732 18.2171 123.732 21.878ZM118.693 21.878C118.693 16.1252 116.26 13.2488 111.481 13.2488C106.615 13.2488 103.747 16.2124 102.879 22.2266L118.693 21.878Z" fill="#2D2F31"/>
<path d="M155.882 21.878C155.882 22.7496 155.882 23.8827 155.795 25.4517L134.768 25.8003C134.942 28.7639 136.158 31.2916 138.243 33.2964C140.329 35.3011 143.109 36.3471 146.585 36.3471C149.713 36.3471 152.58 35.9984 155.274 35.2139L154.753 39.5721C152.754 40.3566 149.887 40.7924 146.151 40.7924C140.85 40.7924 136.853 39.3106 134.073 36.4342C131.292 33.5578 129.902 29.9842 129.902 25.8003C129.902 21.355 131.205 17.5198 133.725 14.2948C136.245 11.0697 139.634 9.50079 143.978 9.50079C147.888 9.50079 150.93 10.6339 152.928 12.9873C154.927 15.3407 155.882 18.2171 155.882 21.878ZM150.756 21.878C150.756 16.1252 148.323 13.2488 143.544 13.2488C138.678 13.2488 135.81 16.2124 134.942 22.2266L150.756 21.878Z" fill="#2D2F31"/>
<path d="M190.64 24.0572C190.64 28.5025 189.424 32.3377 186.904 35.6499C184.384 38.9621 180.908 40.6182 176.39 40.6182C172.654 40.6182 170.221 39.9209 169.004 38.6134H168.657C168.657 44.279 168.743 49.3345 168.83 53.7798H163.095C163.53 48.3757 163.791 41.6641 163.791 33.6451C163.791 23.7957 163.269 16.2125 162.227 10.8084L167.614 10.0239L168.048 13.0746H168.396C170.394 10.8084 173.609 9.58807 177.954 9.58807C181.864 9.58807 184.905 10.9827 187.164 13.8591C189.424 16.7355 190.64 20.1348 190.64 24.0572ZM185.166 24.8416C185.166 21.7909 184.384 19.2632 182.82 17.0841C181.256 14.905 178.997 13.8591 176.129 13.8591C172.48 13.8591 169.873 14.9922 168.222 17.1713C168.57 24.0572 168.743 29.8971 168.743 34.8654C170.394 36.26 172.567 36.9573 175.173 36.9573C178.562 36.9573 181.082 35.737 182.733 33.3836C184.384 31.0302 185.166 28.1538 185.166 24.8416Z" fill="#2D2F31"/>
<path d="M220.617 39.8337L215.838 40.008C215.577 39.0492 215.49 38.0905 215.49 37.1317H215.143C212.623 39.3979 209.234 40.531 204.889 40.531C202.543 40.531 200.545 39.8337 198.807 38.4391C197.069 37.0445 196.287 35.1269 196.287 32.512C196.287 29.3741 197.59 26.8464 200.284 24.9288C202.891 23.0112 207.844 22.0524 215.056 21.8781C215.143 21.3551 215.143 20.8321 215.143 20.222C215.143 17.6943 214.447 16.0382 213.144 15.1665C211.841 14.2949 209.755 13.9462 207.062 13.9462C203.847 13.9462 200.719 14.3821 197.59 15.1665L198.112 10.8955C201.153 10.0239 204.716 9.58807 208.626 9.58807C212.275 9.58807 215.056 10.3725 217.054 11.8543C219.053 13.3361 220.008 15.951 220.008 19.5247C220.008 20.4835 219.922 22.2267 219.835 24.7545C219.748 27.2822 219.661 28.9383 219.661 29.8099C219.835 33.6451 220.095 36.9573 220.617 39.8337ZM215.229 33.9066C215.143 30.7687 215.056 27.9795 215.056 25.5389C211.232 25.5389 208.278 25.8004 206.28 26.4106C202.978 27.4565 201.24 29.3741 201.24 32.2505C201.24 35.0397 203.238 36.4343 207.149 36.4343C210.537 36.4343 213.231 35.5627 215.229 33.9066Z" fill="#2D2F31"/>
<path d="M34.1486 28.328H22.8527V39.6592H12.5996V28.328H1.30371V18.0427H12.5996V6.71149H22.8527V18.0427H34.1486V28.328ZM13.1209 18.5657V27.805H22.1576V18.5657H13.1209Z" fill="#CDCCCC"/>
<path d="M32.9318 27.1078H21.6359V38.439H11.2959V27.1078H0V16.8225H11.2959V5.49127H21.549V16.8225H32.8449L32.9318 27.1078ZM11.9041 17.3455V26.5848H20.9408V17.3455H11.9041Z" fill="#2D2F31"/>
</svg>
