<svg width="112" height="112" viewBox="0 0 112 112" fill="none" xmlns="http://www.w3.org/2000/svg">
<g clip-path="url(#clip0_5112_6490)">
<path d="M82.13 112H0V0H59.73L82.13 22.4V112Z" fill="#D2D9DC"/>
<path d="M59.7305 0V22.4H82.1305" fill="#839299"/>
<path d="M65.3305 29.87H106.4C109.49 29.87 112 32.38 112 35.47V106.4C112 109.49 109.49 112 106.4 112H65.3305C62.2405 112 59.7305 109.49 59.7305 106.4V35.47C59.7305 32.37 62.2405 29.87 65.3305 29.87Z" fill="#0054A6"/>
<path d="M92.5796 88.86C92.5796 86.43 97.8496 79.58 99.2996 77.63C101.44 74.8 102.61 71.36 102.66 67.81C102.78 58.77 95.3795 51.04 86.3495 50.78C77.0895 50.5 69.3495 57.79 69.0695 67.05C68.9595 70.86 70.1395 74.59 72.4295 77.64C73.8895 79.58 79.1496 86.43 79.1496 88.86" fill="#FFDD33"/>
<path d="M79.4098 88.48H92.3298C93.5198 88.48 94.4798 89.41 94.4798 90.55C94.4798 91.69 93.5198 92.62 92.3298 92.62H79.4098C78.2198 92.62 77.2598 91.69 77.2598 90.55C77.2498 89.41 78.2198 88.48 79.4098 88.48Z" fill="#839299"/>
<path d="M79.4098 92.62H92.3298C93.5198 92.62 94.4798 93.55 94.4798 94.69C94.4798 95.83 93.5198 96.76 92.3298 96.76H79.4098C78.2198 96.76 77.2598 95.83 77.2598 94.69C77.2498 93.55 78.2198 92.62 79.4098 92.62Z" fill="#839299"/>
<path d="M80.6699 98.47V99.9C80.6699 102.26 82.9999 104.18 85.8699 104.18C88.7399 104.18 91.0699 102.26 91.0699 99.9V98.47" fill="#839299"/>
<path opacity="0.19" d="M97.0701 67.58H93.3401C93.3401 63.46 90.0001 60.12 85.8701 60.11V56.38C92.0501 56.38 97.0601 61.39 97.0701 67.58Z" fill="#F9FAFB"/>
<path d="M84 35.47H87.73V42.94H84V35.47Z" fill="#F9FAFB"/>
<path d="M95.7305 45.73L101.33 40.13L103.97 42.77L98.3705 48.37L95.7305 45.73Z" fill="#F9FAFB"/>
<path d="M67.7305 42.77L70.3705 40.13L75.9705 45.73L73.3305 48.37L67.7305 42.77Z" fill="#F9FAFB"/>
<path d="M16.7998 65.33H42.9298V69.06H16.7998V65.33Z" fill="#839299"/>
<path d="M5.59961 72.7999H54.1296V76.5299H5.59961V72.7999Z" fill="#839299"/>
<path d="M5.59961 80.2699H54.1296V83.9999H5.59961V80.2699Z" fill="#839299"/>
<path d="M5.59961 87.73H54.1296V91.46H5.59961V87.73Z" fill="#839299"/>
<path d="M46.6699 65.33H54.1399V69.06H46.6699V65.33Z" fill="#839299"/>
<path d="M49.7105 38.57L46.4305 36.68C46.6205 35.68 46.7305 34.66 46.7305 33.61C46.7305 32.56 46.6205 31.53 46.4405 30.54L49.7205 28.65C51.0605 27.87 51.5205 26.15 50.7505 24.81L47.9405 19.94C47.1605 18.6 45.4405 18.14 44.1005 18.91L42.4405 19.87C41.5305 20.4 40.3805 20.4 39.5205 19.8C38.7305 19.25 37.8905 18.77 37.0105 18.36C36.0505 17.92 35.4905 16.92 35.4905 15.87V13.95C35.4905 12.4 34.2305 11.14 32.6805 11.14H27.0605C25.5105 11.14 24.2505 12.4 24.2505 13.95V15.87C24.2505 16.92 23.6805 17.92 22.7305 18.36C21.8505 18.77 21.0105 19.25 20.2205 19.8C19.3605 20.4 18.2105 20.4 17.3005 19.87L15.6405 18.91C14.3005 18.13 12.5805 18.6 11.8005 19.94L8.99047 24.81C8.21047 26.15 8.68047 27.87 10.0205 28.65L13.3005 30.54C13.1105 31.54 13.0005 32.56 13.0005 33.61C13.0005 34.66 13.1105 35.69 13.2905 36.68L10.0105 38.57C8.67047 39.35 8.21047 41.07 8.98047 42.41L11.7905 47.28C12.5705 48.62 14.2905 49.08 15.6305 48.31L17.2905 47.35C18.2005 46.82 19.3505 46.82 20.2105 47.42C21.0005 47.97 21.8405 48.45 22.7205 48.86C23.6805 49.3 24.2405 50.3 24.2405 51.35V53.27C24.2405 54.82 25.5005 56.08 27.0505 56.08H32.6705C34.2205 56.08 35.4805 54.82 35.4805 53.27V51.35C35.4805 50.3 36.0505 49.3 37.0005 48.86C37.8805 48.45 38.7205 47.97 39.5105 47.42C40.3705 46.82 41.5205 46.82 42.4305 47.35L44.0905 48.31C45.4305 49.09 47.1505 48.62 47.9305 47.28L50.7405 42.41C51.5205 41.06 51.0605 39.34 49.7105 38.57ZM29.8705 44.84C23.6605 44.84 18.6305 39.81 18.6305 33.6C18.6305 27.39 23.6605 22.36 29.8705 22.36C36.0805 22.36 41.1105 27.39 41.1105 33.6C41.1105 39.81 36.0705 44.84 29.8705 44.84Z" fill="#0054A6"/>
<path d="M79.4098 96.05H92.3298C93.5198 96.05 94.4798 96.98 94.4798 98.12C94.4798 99.26 93.5198 100.19 92.3298 100.19H79.4098C78.2198 100.19 77.2598 99.26 77.2598 98.12C77.2498 96.97 78.2198 96.05 79.4098 96.05Z" fill="#839299"/>
<path opacity="0.19" d="M97.0701 67.58H93.3401C93.3401 63.46 90.0001 60.12 85.8701 60.11V56.38C92.0501 56.38 97.0601 61.39 97.0701 67.58Z" fill="#F9FAFB"/>
</g>
<defs>
<clipPath id="clip0_5112_6490">
<rect width="112" height="112" fill="white"/>
</clipPath>
</defs>
</svg>
