<svg width="176" height="121" viewBox="0 0 176 121" fill="none" xmlns="http://www.w3.org/2000/svg">
<path d="M85.4354 121C132.62 121 170.871 117.771 170.871 113.788C170.871 109.805 132.62 106.576 85.4354 106.576C38.2507 106.576 0 109.805 0 113.788C0 117.771 38.2507 121 85.4354 121Z" fill="#D2D9DC"/>
<path d="M30.265 60.5078C18.6474 60.5078 9.23047 69.9301 9.23047 81.5543C9.23047 93.1784 18.6474 102.601 30.265 102.601C41.8825 102.601 51.2995 93.1784 51.2995 81.5543C51.2995 69.9301 41.8825 60.5078 30.265 60.5078ZM30.265 93.2208C23.8202 93.2208 18.5966 88.0027 18.5966 81.5543C18.5966 75.1143 23.8202 69.8877 30.265 69.8877C36.7012 69.8877 41.9249 75.1143 41.9249 81.5543C41.9206 88.0027 36.7012 93.2208 30.265 93.2208Z" fill="#839299"/>
<path d="M33.7078 62.0012H26.8179C26.22 62.0012 25.7324 61.5176 25.7324 60.9152V54.2886C25.7324 53.6904 26.2158 53.2025 26.8179 53.2025H33.7078C34.3056 53.2025 34.7932 53.6861 34.7932 54.2886V60.9152C34.789 61.5176 34.3056 62.0012 33.7078 62.0012Z" fill="#839299"/>
<path d="M18.8762 65.2933L14.0045 70.1678C13.5805 70.5921 12.8936 70.5921 12.4696 70.1678L7.7887 65.48C7.3647 65.0558 7.3647 64.3685 7.7887 63.9443L12.6604 59.0698C13.0844 58.6455 13.7713 58.6455 14.1953 59.0698L18.8805 63.7576C19.3002 64.1818 19.3002 64.8691 18.8762 65.2933Z" fill="#839299"/>
<path d="M10.7146 78.1095V85.0034C10.7146 85.6015 10.2312 86.0894 9.62916 86.0894H3.00633C2.40849 86.0894 1.9209 85.6058 1.9209 85.0034V78.1095C1.9209 77.5113 2.40425 77.0234 3.00633 77.0234H9.62916C10.2312 77.0234 10.7146 77.5113 10.7146 78.1095Z" fill="#839299"/>
<path d="M14.0045 92.9493L18.8762 97.8238C19.3002 98.2481 19.3002 98.9353 18.8762 99.3596L14.1911 104.047C13.7671 104.472 13.0802 104.472 12.6562 104.047L7.7887 99.1687C7.3647 98.7444 7.3647 98.0572 7.7887 97.6329L12.4739 92.9451C12.8936 92.5251 13.5805 92.5251 14.0045 92.9493Z" fill="#839299"/>
<path d="M26.8179 101.112H33.7078C34.3056 101.112 34.7932 101.595 34.7932 102.198V108.824C34.7932 109.423 34.3099 109.91 33.7078 109.91H26.8179C26.22 109.91 25.7324 109.427 25.7324 108.824V102.198C25.7324 101.6 26.2158 101.112 26.8179 101.112Z" fill="#839299"/>
<path d="M41.6451 97.8238L46.5169 92.9493C46.9409 92.525 47.6277 92.525 48.0517 92.9493L52.7369 97.6371C53.1609 98.0613 53.1609 98.7486 52.7369 99.1729L47.8652 104.047C47.4412 104.472 46.7543 104.472 46.3303 104.047L41.6451 99.3595C41.2211 98.9353 41.2211 98.248 41.6451 97.8238Z" fill="#839299"/>
<path d="M49.8071 85.0034V78.1095C49.8071 77.5113 50.2905 77.0234 50.8926 77.0234H57.5154C58.1132 77.0234 58.6008 77.5071 58.6008 78.1095V85.0034C58.6008 85.6015 58.1175 86.0894 57.5154 86.0894H50.8926C50.2905 86.0894 49.8071 85.6058 49.8071 85.0034Z" fill="#839299"/>
<path d="M46.5169 70.1678L41.6451 65.2933C41.2211 64.8691 41.2211 64.1818 41.6451 63.7576L46.3303 59.0698C46.7543 58.6455 47.4412 58.6455 47.8652 59.0698L52.7369 63.9443C53.1609 64.3685 53.1609 65.0558 52.7369 65.48L48.0517 70.1678C47.6277 70.5921 46.9409 70.5921 46.5169 70.1678Z" fill="#839299"/>
<path d="M174.979 29.8948C174.979 45.825 162.072 58.743 146.147 58.743C130.221 58.743 117.315 45.8292 117.315 29.8948C117.315 13.9647 130.221 1.04663 146.147 1.04663C162.072 1.04663 174.979 13.9647 174.979 29.8948Z" fill="#54CC5A" stroke="#F9FAFB" stroke-miterlimit="2.5989" stroke-linecap="round" stroke-linejoin="round"/>
<path d="M161.776 29.8949C161.776 45.8547 154.78 58.7897 146.147 58.7897C137.515 58.7897 130.519 45.8547 130.519 29.8949C130.519 13.935 137.515 1 146.147 1C154.78 1 161.776 13.935 161.776 29.8949Z" fill="#54CC5A" stroke="#F9FAFB" stroke-miterlimit="2.5989" stroke-linecap="round" stroke-linejoin="round"/>
<path d="M146.147 1.04663V58.7897" stroke="#F9FAFB" stroke-miterlimit="2.5989" stroke-linecap="round" stroke-linejoin="round"/>
<path d="M117.29 29.9203H175" stroke="#F9FAFB" stroke-miterlimit="2.5989" stroke-linecap="round" stroke-linejoin="round"/>
<path d="M146.147 1.04663C137.718 1.05512 129.717 4.75447 124.248 11.169C129.709 14.6519 137.709 16.6713 146.147 16.6883C154.593 16.6841 162.611 14.6816 168.093 11.2029C162.619 4.76296 154.597 1.05087 146.147 1.04663ZM146.147 43.1014C137.709 43.1183 129.709 45.1377 124.248 48.6207C129.717 55.0352 137.722 58.7345 146.147 58.743C154.597 58.7388 162.619 55.0267 168.093 48.5868C162.611 45.108 154.589 43.1056 146.147 43.1014Z" stroke="#F9FAFB" stroke-miterlimit="2.5989" stroke-linecap="round" stroke-linejoin="round"/>
<path d="M116.565 40.6577C116.286 40.6408 116.044 40.4456 115.997 40.1741L112.648 20.85C111.571 14.6434 105.91 9.85379 99.1857 9.45924C95.1366 9.22167 91.2994 10.5241 88.3823 13.1247C85.4652 15.7252 83.8964 19.2379 83.9685 23.0179L84.261 38.1505C84.2653 38.4644 83.9982 38.7232 83.6632 38.7274C83.3282 38.7317 83.0484 38.4771 83.0399 38.1632L82.7474 23.0306C82.6668 18.9325 84.367 15.1186 87.5343 12.2974C90.7015 9.47621 94.861 8.0635 99.2536 8.32229C102.807 8.53016 106.224 9.87924 108.87 12.1192C111.516 14.3592 113.288 17.3967 113.856 20.6803L117.206 40.0044C117.261 40.3141 117.032 40.6068 116.701 40.6535C116.65 40.6577 116.608 40.662 116.565 40.6577Z" fill="#0054A6"/>
<path d="M124.643 32.7627L132.258 38.5917C132.609 38.859 132.851 39.2493 132.936 39.682L146.555 107.628C146.729 108.506 146.245 109.38 145.41 109.694L123.443 117.992L117.999 79.8743L124.643 32.7627Z" fill="#002548"/>
<path d="M62.2812 35.0833C62.4889 34.2942 63.197 33.7385 64.0153 33.7257L124.643 32.767L123.447 118.001L42.3364 116.652C41.942 116.643 41.5774 116.456 41.34 116.147C41.1025 115.833 41.022 115.43 41.1237 115.048L62.2812 35.0833Z" fill="#0054A6"/>
<path d="M76.6608 39.2034C76.7677 37.9145 75.8101 36.7829 74.5219 36.6759C73.2337 36.5689 72.1027 37.5271 71.9958 38.8161C71.8889 40.105 72.8465 41.2366 74.1348 41.3436C75.423 41.4505 76.5539 40.4923 76.6608 39.2034Z" fill="#D2D9DC"/>
<path d="M108.389 41.0114C109.488 40.3315 109.829 38.8884 109.149 37.7882C108.47 36.6879 107.028 36.3472 105.928 37.0271C104.828 37.707 104.488 39.1501 105.167 40.2503C105.847 41.3506 107.289 41.6913 108.389 41.0114Z" fill="#D2D9DC"/>
<path d="M74.3308 39.7711C74.2757 39.7711 74.2206 39.7668 74.1697 39.7541C73.7584 39.665 73.4998 39.2578 73.5888 38.8505L78.0365 18.4531C78.7997 14.9574 80.7544 11.7968 83.5358 9.55261C86.3215 7.30839 89.8237 6.07385 93.398 6.07385C97.816 6.07385 101.908 7.85565 104.914 11.0926C107.924 14.3295 109.404 18.5422 109.082 22.95L107.911 39.0669C107.882 39.4869 107.521 39.805 107.097 39.7711C106.678 39.7414 106.364 39.3765 106.393 38.9566L107.564 22.8397C107.852 18.8561 106.516 15.055 103.799 12.1277C101.081 9.20473 97.3878 7.59263 93.3937 7.59263C86.7624 7.59263 80.9282 12.2974 79.5121 18.7755L75.0643 39.1729C74.9923 39.5293 74.6785 39.7711 74.3308 39.7711Z" fill="#002548"/>
<path d="M107.487 73.6295L105.333 83.9979C105.176 84.7573 104.667 85.2876 104.197 85.1773L103.425 84.9991C102.955 84.893 102.704 84.1888 102.861 83.4294L105.015 73.061L107.487 73.6295Z" fill="#5F737C"/>
<path d="M104.824 73.9774L102.861 83.4294C102.704 84.1888 102.955 84.8931 103.425 84.9991L104.197 85.1773C104.667 85.2834 105.172 84.7573 105.333 83.9979L107.356 74.2829L104.824 73.9774Z" fill="#5F737C"/>
<path d="M103.735 63.2018L112.898 66.5703L116.735 68.8485L118.474 70.6006L118.486 70.6133C118.817 70.9103 118.91 71.7715 118.707 72.7345C118.503 73.6848 118.062 74.4272 117.647 74.5757L117.659 74.5799L115.472 75.4411L111.075 75.9247L101.251 75.1823L90.6593 80.1417L90.583 80.1671C93.2457 78.8859 95.989 74.1132 97.2737 68.0763C98.5584 62.0437 97.9987 56.588 96.095 54.3438L103.642 63.0915L103.735 63.2018Z" fill="#839299"/>
<path d="M97.2856 68.0968C98.8833 60.6322 97.6426 54.0382 94.5145 53.3687C91.3864 52.6992 87.5554 58.2077 85.9577 65.6723C84.3601 73.137 85.6008 79.731 88.7289 80.4005C91.857 81.07 95.688 75.5615 97.2856 68.0968Z" fill="#D2D9DC"/>
<path d="M89.6116 78.4532C89.4505 78.4532 89.2894 78.4362 89.1325 78.4023C86.6012 77.872 85.431 73.2223 86.3511 67.3424C86.3723 67.2193 86.4867 67.1345 86.6097 67.1515C86.7326 67.1727 86.8175 67.2872 86.8005 67.4102C85.9355 72.9508 86.9786 77.4817 89.2258 77.9526C90.396 78.1986 91.7528 77.3035 93.046 75.4368C94.3773 73.515 95.4627 70.8084 96.0987 67.8218C97.0612 63.3121 96.8026 59.0485 95.4458 56.9613C95.0218 56.3122 94.5215 55.9219 93.9448 55.8031C92.3379 55.4679 90.3748 57.3091 88.823 60.6097C88.7678 60.7243 88.6322 60.7709 88.5177 60.72C88.4032 60.6649 88.3566 60.5291 88.4074 60.4146C90.078 56.8594 92.181 54.9673 94.0339 55.3534C94.7292 55.4976 95.3313 55.9558 95.8231 56.7067C97.2435 58.8915 97.5276 63.2867 96.5397 67.9108C95.2423 74.0114 92.2743 78.4532 89.6116 78.4532Z" fill="#2D2F31"/>
<path d="M91.9521 66.9691C91.6044 68.6024 91.8758 70.0448 92.5626 70.1891C93.2495 70.3333 94.0848 69.1242 94.4325 67.4909C94.7801 65.8576 94.5088 64.4152 93.8219 64.271C93.1393 64.1267 92.304 65.3358 91.9521 66.9691Z" fill="#839299"/>
<path d="M92.6771 70.4266C92.622 70.4266 92.5711 70.4224 92.5202 70.4096C92.2955 70.363 92.0963 70.2145 91.9436 69.9812C91.5493 69.3745 91.4645 68.1697 91.7316 66.9182C92.1175 65.1024 93.0418 63.8679 93.8728 64.0418C94.0975 64.0885 94.2968 64.237 94.4494 64.4703C94.8438 65.077 94.9286 66.2818 94.6614 67.5333C94.2968 69.2345 93.4658 70.4266 92.6771 70.4266ZM93.7117 64.4873C93.2283 64.4873 92.4948 65.5182 92.1768 67.0157C91.9394 68.14 91.9987 69.2303 92.3252 69.7351C92.41 69.8666 92.5075 69.943 92.6093 69.9642C93.0884 70.0618 93.877 69.0054 94.212 67.44C94.4494 66.3157 94.3901 65.2255 94.0636 64.7206C93.9788 64.5891 93.8813 64.5127 93.7795 64.4915C93.7583 64.4873 93.7371 64.4873 93.7117 64.4873Z" fill="#2D2F31"/>
<path d="M103.71 63.1764L96.0906 54.3438C97.9943 56.588 98.5582 62.0437 97.2693 68.0763C95.9846 74.1132 93.2413 78.8859 90.5786 80.1671L90.6549 80.1417L101.229 75.1908L101.475 75.0763C102.705 74.4951 103.964 72.3399 104.541 69.6078C105.13 66.8036 104.681 64.2921 103.803 63.2825L103.71 63.1764Z" fill="#5F737C"/>
<path d="M115.45 75.4326C116.129 75.195 116.828 73.9435 117.159 72.395C117.511 70.7532 117.273 69.2175 116.676 68.8145L118.478 70.6005L118.49 70.6132C118.821 70.9102 118.914 71.7714 118.711 72.7344C118.507 73.6847 118.066 74.4271 117.651 74.5756L117.663 74.5798L115.45 75.4326Z" fill="#5F737C"/>
<path d="M111.236 75.9076L111.049 75.9204C112.075 75.8567 113.203 73.9731 113.712 71.5889C114.229 69.158 113.856 66.9774 112.902 66.5659L113.029 66.6423L116.667 68.8059C117.274 69.2004 117.515 70.7447 117.163 72.395C116.824 73.9901 116.074 75.2628 115.378 75.4495L111.236 75.9076Z" fill="#D2D9DC"/>
<path d="M93.8266 64.2709C94.5135 64.4151 94.8145 65.8618 94.4371 67.4908C93.8054 70.2187 92.7072 70.2187 92.5715 70.2102C92.5673 70.2102 92.5673 70.2144 92.5715 70.2144L95.2639 71.3853C95.6625 70.2993 96.0017 69.1157 96.2688 67.8684C96.5232 66.6721 96.6886 65.5012 96.7734 64.3939L93.8266 64.2709Z" fill="#2D2F31"/>
<path d="M95.3955 71.6908L92.3003 70.346L92.3978 69.9726L92.5844 69.9811C92.6268 69.9811 93.6104 70.032 94.2125 67.4399C94.5051 66.1799 94.3567 65.1787 94.0768 64.7418C93.9878 64.6018 93.886 64.5169 93.7758 64.4957L93.8309 64.046L97.0194 64.1733L97.0024 64.4109C96.9134 65.5563 96.7438 66.7357 96.4936 67.9193C96.2307 69.1496 95.8915 70.346 95.4803 71.4702L95.3955 71.6908ZM93.2119 70.2441L95.1326 71.0799C95.4972 70.0447 95.8067 68.9502 96.0442 67.8217C96.2731 66.7399 96.4385 65.6624 96.5275 64.6103L94.4796 64.5297C94.8655 65.166 94.9333 66.3454 94.6535 67.546C94.2634 69.2472 93.674 69.9557 93.2119 70.2441Z" fill="#2D2F31"/>
<path d="M67.3793 82.8443C72.0533 82.833 75.8338 79.3138 75.8233 74.984C75.8129 70.6541 72.0154 67.1532 67.3414 67.1645C62.6674 67.1758 58.8869 70.695 58.8974 75.0249C58.9078 79.3547 62.7053 82.8556 67.3793 82.8443Z" fill="#F9FAFB"/>
<path d="M69.646 75.7804C69.1711 75.7804 68.7513 75.9925 68.4842 76.3192L65.6222 75.2968C65.6265 75.2628 65.6349 75.2289 65.6349 75.1907C65.6349 75.1228 65.6222 75.0592 65.6137 74.9956L68.5393 73.7313C68.8107 74.0156 69.2008 74.2023 69.6417 74.2023C70.4558 74.2023 71.1172 73.5829 71.1172 72.8235C71.1172 72.0641 70.4515 71.4447 69.6375 71.4447C68.8234 71.4447 68.162 72.0641 68.162 72.8235C68.162 72.8914 68.1747 72.955 68.1832 73.0186L65.2576 74.2829C64.9862 73.9986 64.5962 73.812 64.1552 73.812C63.3411 73.812 62.6797 74.4313 62.6797 75.1907C62.6797 75.9501 63.3454 76.5695 64.1594 76.5695C64.6343 76.5695 65.0541 76.3574 65.3212 76.0307L68.1832 77.0531C68.1789 77.0871 68.1704 77.121 68.1704 77.1592C68.1704 77.9186 68.8361 78.538 69.6502 78.538C70.4643 78.538 71.1257 77.9186 71.1257 77.1592C71.1257 76.3956 70.46 75.7804 69.646 75.7804Z" fill="#0054A6"/>
<path d="M77.0936 99.0417C81.9221 99.03 85.8276 95.3946 85.8168 90.9219C85.8059 86.4491 81.8829 82.8326 77.0543 82.8443C72.2258 82.856 68.3203 86.4914 68.3311 90.9642C68.342 95.437 72.265 99.0534 77.0936 99.0417Z" fill="#F9FAFB"/>
<path d="M77.1333 95.0154C77.0485 95.0663 76.9383 95.0663 76.8493 95.0239C76.0776 94.6251 72.499 92.6396 72.6305 90.0306C72.7704 87.273 76.0013 87.7439 76.8026 89.0973C76.8323 89.1482 76.8917 89.1779 76.9553 89.1779C77.0189 89.1736 77.074 89.1397 77.0994 89.0845C77.4895 88.2106 78.7488 87.5785 79.9402 87.99C81.3648 88.4779 82.8149 91.736 77.1333 95.0154Z" fill="#ED1C24"/>
<path d="M95.6114 104.425C99.7374 104.415 103.075 101.307 103.065 97.4835C103.056 93.6598 99.7038 90.5681 95.5778 90.5781C91.4517 90.5882 88.1145 93.6961 88.1238 97.5199C88.133 101.344 91.4854 104.435 95.6114 104.425Z" fill="#F9FAFB"/>
<path d="M92.5246 100.149L92.3041 94.884C92.2914 94.6167 92.5882 94.43 92.8553 94.5403L98.6513 96.933C98.9481 97.0561 98.9651 97.4379 98.681 97.5821L93.1055 100.454C92.8511 100.586 92.5373 100.42 92.5246 100.149Z" fill="#839299"/>
<path d="M73.804 64.6878C78.0742 64.5189 81.409 61.1727 81.2526 57.2138C81.0962 53.255 77.5077 50.1826 73.2376 50.3515C68.9675 50.5204 65.6327 53.8666 65.7891 57.8255C65.9455 61.7843 69.5339 64.8567 73.804 64.6878Z" fill="#F9FAFB"/>
<path d="M75.7469 53.3468L76.3277 53.3086C76.633 53.2874 76.8959 53.5037 76.9171 53.7837L77.4344 60.6564C77.4556 60.9406 77.2266 61.1824 76.9213 61.2036L76.3405 61.2418C76.0352 61.263 75.7723 61.0467 75.7511 60.7667L75.2338 53.894C75.2084 53.6098 75.4416 53.3637 75.7469 53.3468Z" fill="#54CC5A"/>
<path d="M72.635 55.8541L73.2159 55.8159C73.5212 55.7947 73.784 56.011 73.8052 56.291L74.1487 60.8686C74.1699 61.1528 73.9409 61.3946 73.6356 61.4158L73.0548 61.454C72.7495 61.4752 72.4866 61.2589 72.4654 60.9789L72.122 56.4013C72.1008 56.1171 72.3297 55.871 72.635 55.8541Z" fill="#54CC5A"/>
<path d="M69.574 58.9976L70.1548 58.9594C70.4601 58.9382 70.723 59.1546 70.7442 59.4346L70.8672 61.0806C70.8884 61.3649 70.6594 61.6067 70.3541 61.6279L69.7732 61.6661C69.468 61.6873 69.2051 61.4709 69.1839 61.1909L69.0609 59.5449C69.0397 59.2607 69.2687 59.0146 69.574 58.9976Z" fill="#54CC5A"/>
</svg>
