<svg width="50" height="50" viewBox="0 0 50 50" fill="none" xmlns="http://www.w3.org/2000/svg">
<path d="M40.6031 5.90002C39.0031 5.90002 11.7031 5.90002 9.30313 5.90002C6.50313 5.90002 4.20312 8.20002 4.20312 11V33.3C4.20312 35.6 5.70313 37.7 7.90313 38.3H42.1031C44.2031 37.7 45.8031 35.5 45.8031 33.3V11C45.7031 8.20002 43.5031 5.90002 40.6031 5.90002Z" fill="#002548"/>
<path d="M49.1 38.2001H0.9C0.4 38.2001 0 38.6001 0 39.0001V40.0001C0 42.2001 1.8 44.0001 3.9 44.0001H46C48.2 44.0001 49.9 42.2001 49.9 40.0001V39.0001C50 38.6001 49.6 38.2001 49.1 38.2001Z" fill="#5F737C"/>
<path d="M42.1984 12.6V30.8L34.3984 32.1L29.1984 31.4L24.9984 30.8L20.9984 31.5L16.9984 32.2001L7.89844 30.9V12.6C7.89844 11 9.19844 9.80005 10.6984 9.80005H39.3984C40.8984 9.80005 42.1984 11.1 42.1984 12.6Z" fill="#D2D9DC"/>
<path d="M30.3016 28.1001V30.8001L27.6016 32.1001L25.0016 30.8001L22.3016 32.1001L19.6016 30.8001V28.1001C19.6016 25.9001 20.9016 24.1001 22.7016 23.2001L25.0016 24.0001L26.3016 22.7001L27.2016 23.2001C29.0016 24.0001 30.3016 25.9001 30.3016 28.1001Z" fill="#0054A6"/>
<path d="M42.1969 30.8V31.7001C42.1969 33.3001 40.8969 34.5 39.3969 34.5H10.5969C8.99688 34.5 7.79688 33.2001 7.79688 31.7001V30.8H42.1969Z" fill="#0054A6"/>
<path d="M28.3 20.7001C28.3 22.5001 26.8 24.1 24.9 24.1C23 24.1 21.5 22.6001 21.5 20.7001C21.5 18.8001 23 17.3 24.9 17.3C26.8 17.3 28.3 18.8001 28.3 20.7001Z" fill="#FFBD86"/>
<path d="M13.9016 21.2L10.1016 17.4L12.0016 15.5L13.9016 17.4L17.7016 13.6L19.6016 15.5L13.9016 21.2Z" fill="#54CC5A"/>
<path d="M39.3031 15.2L37.4031 13.3L35.5031 15.2L33.6031 13.3L31.7031 15.2L33.6031 17.1L31.7031 19L33.6031 20.9L35.5031 19L37.4031 20.9L39.3031 19L37.4031 17.1L39.3031 15.2Z" fill="#ED1C24"/>
<path d="M10.2031 22.7001H18.3031V25.4001H10.2031V22.7001Z" fill="#839299"/>
<path d="M31.7031 22.7001H39.8031V25.4001H31.7031V22.7001Z" fill="#839299"/>
</svg>
