<svg width="48" height="48" viewBox="0 0 48 48" fill="none" xmlns="http://www.w3.org/2000/svg">
<path d="M24 40C32.8366 40 40 32.8366 40 24C40 15.1634 32.8366 8 24 8C15.1634 8 8 15.1634 8 24C8 32.8366 15.1634 40 24 40Z" fill="#DAD7E5"/>
<path d="M24.0001 8C21.4805 8.00205 18.9971 8.5991 16.752 9.74252C14.5068 10.8859 12.5635 12.5434 11.0801 14.58C14.1622 12.3524 17.9369 11.2954 21.7276 11.5984C25.5184 11.9015 29.0772 13.5448 31.7663 16.2338C34.4553 18.9228 36.0986 22.4817 36.4017 26.2724C36.7047 30.0632 35.6477 33.8379 33.4201 36.92C45.9201 27.79 39.4201 8 24.0001 8Z" fill="#EDEBF2"/>
<path d="M34 24C31.31 33 31.67 31.77 31.43 32.57C31.307 32.9836 31.0536 33.3463 30.7076 33.604C30.3616 33.8617 29.9415 34.0006 29.51 34H18.51C18.0785 34.0006 17.6584 33.8617 17.3124 33.604C16.9664 33.3463 16.713 32.9836 16.59 32.57L14 24H34Z" fill="#DB5669"/>
<path d="M34 24L31.6 32H24C22.9391 32 21.9217 31.5786 21.1716 30.8284C20.4214 30.0783 20 29.0609 20 28V24H34Z" fill="#F26674"/>
<path d="M34 24L33.4 26H20V24H34Z" fill="#DB5669"/>
<path d="M35 23C35 23.5304 34.7893 24.0391 34.4142 24.4142C34.0391 24.7893 33.5304 25 33 25H15C14.4696 25 13.9609 24.7893 13.5858 24.4142C13.2107 24.0391 13 23.5304 13 23C13 22.4696 13.2107 21.9609 13.5858 21.5858C13.9609 21.2107 14.4696 21 15 21H33C33.5304 21 34.0391 21.2107 34.4142 21.5858C34.7893 21.9609 35 22.4696 35 23Z" fill="#DB5669"/>
<path d="M35 23C35 23.5304 34.7893 24.0391 34.4142 24.4142C34.0391 24.7893 33.5304 25 33 25H20V21H33C33.5304 21 34.0391 21.2107 34.4142 21.5858C34.7893 21.9609 35 22.4696 35 23Z" fill="#F26674"/>
<path d="M16.9999 22C16.8294 21.9995 16.6619 21.9554 16.5133 21.8719C16.3647 21.7884 16.2398 21.6684 16.1507 21.5231C16.0615 21.3778 16.0109 21.2121 16.0038 21.0418C15.9967 20.8715 16.0332 20.7022 16.1099 20.55L19.1099 14.55C19.2401 14.3336 19.4473 14.1745 19.6899 14.1046C19.9325 14.0347 20.1926 14.0592 20.418 14.1731C20.6433 14.2871 20.8172 14.482 20.9047 14.7189C20.9923 14.9557 20.987 15.2169 20.8899 15.45C17.6499 21.93 17.8299 22 16.9999 22Z" fill="#A87E6B"/>
<path d="M19.1101 15.55C19.1966 15.3937 19.3233 15.2634 19.4772 15.1727C19.6311 15.082 19.8064 15.0341 19.9851 15.0341C20.1637 15.0341 20.3391 15.082 20.493 15.1727C20.6468 15.2634 20.7736 15.3937 20.8601 15.55C20.9257 15.4351 20.9681 15.3084 20.9848 15.1771C21.0015 15.0458 20.9922 14.9125 20.9573 14.7849C20.9225 14.6572 20.8629 14.5376 20.7819 14.433C20.7008 14.3283 20.6 14.2407 20.4851 14.175C20.3702 14.1094 20.2435 14.067 20.1122 14.0503C19.9809 14.0336 19.8476 14.0429 19.7199 14.0777C19.5922 14.1126 19.4727 14.1722 19.368 14.2532C19.2634 14.3343 19.1757 14.4351 19.1101 14.55C15.8301 21.1 15.7901 20.84 16.1101 21.48L19.1101 15.55Z" fill="#BE927C"/>
<path d="M31 22C30.16 22 30.34 21.91 27.11 15.45C27.013 15.2169 27.0077 14.9557 27.0952 14.7189C27.1828 14.482 27.3567 14.2871 27.582 14.1731C27.8073 14.0592 28.0674 14.0347 28.31 14.1046C28.5527 14.1745 28.7599 14.3336 28.89 14.55L31.89 20.55C31.9668 20.7022 32.0033 20.8715 31.9961 21.0418C31.989 21.2121 31.9385 21.3778 31.8493 21.5231C31.7601 21.6684 31.6353 21.7884 31.4866 21.8719C31.338 21.9554 31.1705 21.9995 31 22Z" fill="#BE927C"/>
<path d="M18 30V28C18 27.7348 18.1054 27.4804 18.2929 27.2929C18.4804 27.1054 18.7348 27 19 27C19.2652 27 19.5196 27.1054 19.7071 27.2929C19.8946 27.4804 20 27.7348 20 28V30C20 30.2652 19.8946 30.5196 19.7071 30.7071C19.5196 30.8946 19.2652 31 19 31C18.7348 31 18.4804 30.8946 18.2929 30.7071C18.1054 30.5196 18 30.2652 18 30Z" fill="#DAD7E5"/>
<path d="M23 30V28C23 27.7348 23.1054 27.4804 23.2929 27.2929C23.4804 27.1054 23.7348 27 24 27C24.2652 27 24.5196 27.1054 24.7071 27.2929C24.8946 27.4804 25 27.7348 25 28V30C25 30.2652 24.8946 30.5196 24.7071 30.7071C24.5196 30.8946 24.2652 31 24 31C23.7348 31 23.4804 30.8946 23.2929 30.7071C23.1054 30.5196 23 30.2652 23 30Z" fill="#DAD7E5"/>
<path d="M23 28C23.2652 28 23.5196 28.1054 23.7071 28.2929C23.8946 28.4804 24 28.7348 24 29V31C24.2652 31 24.5196 30.8946 24.7071 30.7071C24.8946 30.5196 25 30.2652 25 30V28C25 27.7348 24.8946 27.4804 24.7071 27.2929C24.5196 27.1054 24.2652 27 24 27C23.7348 27 23.4804 27.1054 23.2929 27.2929C23.1054 27.4804 23 27.7348 23 28Z" fill="#C6C3D8"/>
<path d="M28 30V28C28 27.7348 28.1054 27.4804 28.2929 27.2929C28.4804 27.1054 28.7348 27 29 27C29.2652 27 29.5196 27.1054 29.7071 27.2929C29.8946 27.4804 30 27.7348 30 28V30C30 30.2652 29.8946 30.5196 29.7071 30.7071C29.5196 30.8946 29.2652 31 29 31C28.7348 31 28.4804 30.8946 28.2929 30.7071C28.1054 30.5196 28 30.2652 28 30Z" fill="#DAD7E5"/>
<path d="M28 28C28.2652 28 28.5196 28.1054 28.7071 28.2929C28.8946 28.4804 29 28.7348 29 29V31C29.2652 31 29.5196 30.8946 29.7071 30.7071C29.8946 30.5196 30 30.2652 30 30V28C30 27.7348 29.8946 27.4804 29.7071 27.2929C29.5196 27.1054 29.2652 27 29 27C28.7348 27 28.4804 27.1054 28.2929 27.2929C28.1054 27.4804 28 27.7348 28 28Z" fill="#C6C3D8"/>
<path d="M22.9997 44.26C5.61966 44.26 -3.35034 23.64 8.14966 10.88L7.99966 12.88C7.98109 13.1452 8.06865 13.4069 8.24306 13.6076C8.41746 13.8083 8.66444 13.9314 8.92966 13.95C9.19488 13.9685 9.45661 13.881 9.65727 13.7066C9.85793 13.5322 9.9811 13.2852 9.99966 13.02C10.4497 6.71998 11.2997 7.56998 4.93966 7.94998C4.80834 7.95786 4.67985 7.99153 4.56154 8.04906C4.44323 8.1066 4.33741 8.18687 4.25013 8.2853C4.07384 8.48409 3.98375 8.74476 3.99966 9.00998C4.01557 9.2752 4.13619 9.52323 4.33498 9.69951C4.53377 9.8758 4.79444 9.96589 5.05966 9.94998L6.32966 9.86998C-5.85034 24.08 4.15966 46.26 22.9997 46.26C23.2649 46.26 23.5192 46.1546 23.7068 45.9671C23.8943 45.7795 23.9997 45.5252 23.9997 45.26C23.9997 44.9948 23.8943 44.7404 23.7068 44.5529C23.5192 44.3653 23.2649 44.26 22.9997 44.26Z" fill="#82BCF4"/>
<path d="M42.94 38L41.67 38.08C53.85 23.92 43.84 1.73999 25 1.73999C24.7348 1.73999 24.4804 1.84535 24.2929 2.03288C24.1054 2.22042 24 2.47477 24 2.73999C24 3.00521 24.1054 3.25956 24.2929 3.4471C24.4804 3.63463 24.7348 3.73999 25 3.73999C42.37 3.73999 51.35 24.36 39.85 37.12L40 35.12C40.0186 34.8548 39.931 34.593 39.7566 34.3924C39.5822 34.1917 39.3352 34.0686 39.07 34.05C38.8048 34.0314 38.5431 34.119 38.3424 34.2934C38.1417 34.4678 38.0186 34.7148 38 34.98C37.55 41.32 36.74 40.43 43.06 40.05C43.1946 40.0421 43.3263 40.0078 43.4477 39.949C43.569 39.8902 43.6776 39.8081 43.7672 39.7073C43.8568 39.6066 43.9257 39.4892 43.9699 39.3618C44.0142 39.2344 44.0329 39.0996 44.025 38.965C44.0171 38.8304 43.9828 38.6986 43.924 38.5773C43.8652 38.456 43.7831 38.3474 43.6824 38.2578C43.5816 38.1682 43.4642 38.0993 43.3368 38.055C43.2094 38.0108 43.0746 37.9921 42.94 38Z" fill="#82BCF4"/>
</svg>
