<svg width="334" height="370" viewBox="0 0 334 370" fill="none" xmlns="http://www.w3.org/2000/svg">
<path d="M168.298 312C250.553 312 317.235 306.404 317.235 299.501C317.235 292.598 250.553 287.002 168.298 287.002C86.0419 287.002 19.3604 292.598 19.3604 299.501C19.3604 306.404 86.0419 312 168.298 312Z" fill="#D2D9DC"/>
<path d="M206.687 300.161H129.918L143.118 262.103H193.477L206.687 300.161Z" fill="#839299"/>
<path opacity="0.19" d="M206.687 300.161H129.918L143.118 262.103H193.477L206.687 300.161Z" fill="#2D2F31"/>
<path d="M280.886 279.552H55.7096C49.9597 279.552 45.2998 274.893 45.2998 269.143V151.601C45.2998 147.701 48.4597 144.542 52.3597 144.542H284.226C288.125 144.542 291.285 147.701 291.285 151.601V269.143C291.295 274.893 286.635 279.552 280.886 279.552Z" fill="#D2D9DC"/>
<path d="M291.295 250.084H45.2998V112.304C45.2998 110.184 47.0198 108.464 49.1397 108.464H287.455C289.575 108.464 291.295 110.184 291.295 112.304V250.084Z" fill="#002548"/>
<path d="M168.298 271.244C172.252 271.244 175.458 268.038 175.458 264.084C175.458 260.129 172.252 256.924 168.298 256.924C164.343 256.924 161.138 260.129 161.138 264.084C161.138 268.038 164.343 271.244 168.298 271.244Z" fill="#839299"/>
<path d="M282.015 117.923H54.5693V240.615H282.015V117.923Z" fill="#D2D9DC"/>
<path d="M226.676 300.161H109.918C109.918 296.241 113.098 293.061 117.018 293.061H219.586C223.506 293.061 226.676 296.241 226.676 300.161Z" fill="#839299"/>
<path d="M134.118 93.835C133.858 93.835 133.608 93.765 133.368 93.625L122.638 87.2454C122.188 86.9754 121.918 86.4955 121.918 85.9855C121.918 85.4756 122.188 84.9856 122.638 84.7256L133.368 78.346C134.068 77.9361 134.968 78.166 135.388 78.856C135.798 79.556 135.568 80.4559 134.878 80.8759L126.268 85.9855L134.878 91.0952C135.578 91.5151 135.808 92.4151 135.388 93.115C135.108 93.575 134.618 93.835 134.118 93.835Z" fill="#0054A6"/>
<path d="M155.378 93.835C154.878 93.835 154.388 93.575 154.108 93.115C153.698 92.4151 153.928 91.5151 154.618 91.0952L163.228 85.9855L154.618 80.8759C153.918 80.4559 153.688 79.5559 154.108 78.856C154.528 78.156 155.428 77.9261 156.128 78.346L166.858 84.7256C167.308 84.9956 167.578 85.4755 167.578 85.9855C167.578 86.4955 167.308 86.9854 166.858 87.2454L156.128 93.625C155.898 93.765 155.638 93.835 155.378 93.835Z" fill="#0054A6"/>
<path d="M136.498 98.7647C136.198 98.7647 135.898 98.6747 135.628 98.4847C134.968 98.0047 134.828 97.0848 135.308 96.4348L151.818 73.8264C152.298 73.1664 153.218 73.0264 153.868 73.5064C154.528 73.9864 154.668 74.9063 154.188 75.5563L137.678 98.1647C137.398 98.5547 136.948 98.7647 136.498 98.7647Z" fill="#0054A6"/>
<path d="M268.506 99.8245C269.026 97.8946 268.476 95.8348 267.056 94.4149L261.176 88.5353C259.766 87.1254 257.696 86.5654 255.766 87.0854L249.326 88.8153L258.056 97.5447L252.076 103.524L243.346 94.7949L241.616 101.234C241.096 103.164 241.646 105.224 243.066 106.644L248.946 112.524C250.356 113.934 252.426 114.494 254.356 113.974L259.596 112.574L298.385 151.361C296.915 155.611 297.865 160.52 301.265 163.91C306.005 168.65 313.695 168.65 318.445 163.91C323.185 159.17 323.185 151.481 318.445 146.731C315.045 143.332 310.145 142.382 305.895 143.851L267.106 105.064L268.506 99.8245ZM316.785 157.171L311.715 162.24L304.785 160.38L302.925 153.451L307.995 148.381L314.925 150.241L316.785 157.171Z" fill="#839299"/>
<path d="M202.407 159.8H196.707V184.449H202.407V159.8Z" fill="#FFDD33"/>
<path d="M210.957 169.58H205.257V184.449H210.957V169.58Z" fill="#FFDD33"/>
<path d="M219.497 165.22H213.797V184.449H219.497V165.22Z" fill="#FFDD33"/>
<path d="M229.217 159.8H223.517V184.449H229.217V159.8Z" fill="#54CC5A"/>
<path d="M237.767 169.58H232.067V184.449H237.767V169.58Z" fill="#54CC5A"/>
<path d="M246.317 165.22H240.617V184.449H246.317V165.22Z" fill="#54CC5A"/>
<path d="M254.516 159.8H248.816V184.449H254.516V159.8Z" fill="#54CC5A"/>
<path d="M263.056 169.58H257.356V184.449H263.056V169.58Z" fill="#54CC5A"/>
<path d="M271.606 165.22H265.906V184.449H271.606V165.22Z" fill="#54CC5A"/>
<path d="M238.197 133.232H208.527V135.152H238.197V133.232Z" fill="#839299"/>
<path d="M268.756 138.522H208.527V140.442H268.756V138.522Z" fill="#839299"/>
<path d="M268.756 143.812H208.527V145.732H268.756V143.812Z" fill="#839299"/>
<path d="M202.248 129.652H182.598V149.301H202.248V129.652Z" fill="#54CC5A"/>
<path d="M190.537 145.542L184.587 139.592L186.997 137.182L190.537 140.722L197.847 133.422L200.257 135.832L190.537 145.542Z" fill="#F9FAFB"/>
<path d="M216.057 212.567C216.057 207.617 214.047 203.137 210.807 199.898L206.247 204.457C208.327 206.537 209.607 209.397 209.607 212.567C209.607 215.537 208.467 218.236 206.617 220.266L211.187 224.836C214.207 221.626 216.057 217.317 216.057 212.567Z" fill="#0054A6"/>
<path d="M206.628 220.266C204.528 222.576 201.518 224.036 198.148 224.036C191.818 224.036 186.678 218.906 186.678 212.567C186.678 206.237 191.808 201.098 198.148 201.098V194.648C188.258 194.648 180.228 202.668 180.228 212.567C180.228 222.456 188.248 230.486 198.148 230.486C203.298 230.486 207.928 228.316 211.198 224.836L206.628 220.266Z" fill="#54CC5A"/>
<path d="M178.927 165.67C177.517 162.34 175.507 159.35 172.937 156.781C170.368 154.211 167.378 152.201 164.048 150.791C160.598 149.331 156.928 148.591 153.158 148.591C148.798 148.591 144.158 150.021 139.348 152.831C137.758 153.761 136.138 154.851 134.488 156.091C131.228 158.551 130.818 163.29 133.618 166.26C136.018 168.81 139.948 169.13 142.748 167.02C143.948 166.11 145.128 165.32 146.258 164.66C148.908 163.11 151.288 162.3 153.158 162.3C155.088 162.3 156.958 162.68 158.708 163.42C160.408 164.14 161.928 165.17 163.248 166.48C164.558 167.79 165.588 169.32 166.308 171.02C167.048 172.77 167.428 174.639 167.428 176.569C167.428 178.499 167.048 180.369 166.308 182.119C165.588 183.819 164.558 185.339 163.248 186.659C161.938 187.968 160.408 188.998 158.708 189.718C156.958 190.458 155.088 190.838 153.158 190.838C151.288 190.838 148.908 190.018 146.258 188.478C143.708 186.989 140.958 184.859 138.078 182.149C135.418 179.639 133.168 177.129 131.758 175.459C130.278 173.709 129.398 172.52 129.388 172.51C129.318 172.42 128.238 170.96 126.458 168.86C124.068 166.04 121.588 163.4 119.068 161.04C115.439 157.621 111.849 154.871 108.409 152.861C103.599 150.051 98.9488 148.621 94.5989 148.621C90.829 148.621 87.159 149.361 83.7091 150.821C80.3791 152.231 77.3892 154.241 74.8192 156.811C72.2493 159.38 70.2393 162.37 68.8294 165.7C67.3694 169.15 66.6294 172.82 66.6294 176.589C66.6294 180.359 67.3694 184.029 68.8294 187.479C70.2393 190.808 72.2493 193.798 74.8192 196.368C77.3892 198.938 80.3791 200.948 83.7091 202.357C87.159 203.817 90.829 204.557 94.5989 204.557C98.9588 204.557 103.599 203.127 108.409 200.318C109.999 199.388 111.619 198.298 113.269 197.058C116.528 194.598 116.938 189.858 114.139 186.889C111.739 184.339 107.809 184.019 105.009 186.129C103.809 187.039 102.629 187.828 101.499 188.488C98.8488 190.038 96.4689 190.848 94.5989 190.848C92.6689 190.848 90.799 190.468 89.049 189.728C87.349 189.008 85.829 187.978 84.5091 186.669C83.1991 185.359 82.1691 183.829 81.4491 182.129C80.7091 180.379 80.3291 178.509 80.3291 176.579C80.3291 174.649 80.7091 172.78 81.4491 171.03C82.1691 169.33 83.1991 167.81 84.5091 166.49C85.819 165.18 87.349 164.15 89.049 163.43C90.799 162.69 92.6689 162.31 94.5989 162.31C96.4689 162.31 98.8488 163.13 101.499 164.67C104.049 166.16 106.799 168.29 109.679 171C112.339 173.509 114.589 176.019 115.999 177.689C117.478 179.439 118.358 180.629 118.368 180.639C118.438 180.729 119.518 182.189 121.298 184.289C123.688 187.109 126.168 189.748 128.688 192.108C132.318 195.528 135.908 198.278 139.348 200.288C144.158 203.097 148.808 204.527 153.158 204.527C156.928 204.527 160.598 203.787 164.048 202.327C167.378 200.918 170.368 198.908 172.937 196.338C175.507 193.768 177.517 190.778 178.927 187.449C180.387 183.999 181.127 180.329 181.127 176.559C181.127 172.78 180.387 169.12 178.927 165.67Z" fill="#0054A6"/>
<path d="M271.917 194.238H223.967V196.058H271.917V194.238Z" fill="#F9FAFB"/>
<path d="M271.917 201.078H223.967V202.898H271.917V201.078Z" fill="#F9FAFB"/>
<path d="M271.917 207.917H223.967V209.737H271.917V207.917Z" fill="#F9FAFB"/>
<path d="M271.917 215.317H223.967V217.137H271.917V215.317Z" fill="#F9FAFB"/>
<path d="M271.917 222.156H223.967V223.976H271.917V222.156Z" fill="#F9FAFB"/>
<path d="M271.917 228.986H223.967V230.806H271.917V228.986Z" fill="#F9FAFB"/>
<path d="M76.4594 137.092C73.3694 137.092 70.8594 134.582 70.8594 131.492V121.113H82.0594V131.492C82.0594 134.582 79.5494 137.092 76.4594 137.092Z" fill="#839299"/>
<path d="M103.5 85.0356C103.5 69.4667 90.3398 56.9675 74.5298 58.0674C61.2498 58.9874 50.4798 69.7066 49.4898 82.9757C48.7298 93.205 53.6798 102.344 61.4698 107.544C65.1798 110.014 67.3698 114.224 67.3698 118.683V120.983C67.3698 122.833 68.8698 124.343 70.7298 124.343H82.1898C84.0398 124.343 85.5498 122.843 85.5498 120.983V118.683C85.5498 114.154 87.8598 109.974 91.6098 107.434C98.7798 102.574 103.5 94.3549 103.5 85.0356Z" fill="#FFDD33"/>
<path d="M83.4793 127.573H69.4393C69.0693 127.573 68.7793 127.273 68.7793 126.913C68.7793 126.553 69.0793 126.253 69.4393 126.253H83.4793C83.8493 126.253 84.1393 126.553 84.1393 126.913C84.1393 127.273 83.8393 127.573 83.4793 127.573Z" fill="#D2D9DC"/>
<path d="M83.4793 130.293H69.4393C69.0693 130.293 68.7793 129.993 68.7793 129.633C68.7793 129.273 69.0793 128.973 69.4393 128.973H83.4793C83.8493 128.973 84.1393 129.273 84.1393 129.633C84.1393 129.993 83.8393 130.293 83.4793 130.293Z" fill="#D2D9DC"/>
<path d="M83.4793 133.022H69.4393C69.0693 133.022 68.7793 132.722 68.7793 132.362C68.7793 131.992 69.0793 131.702 69.4393 131.702H83.4793C83.8493 131.702 84.1393 132.002 84.1393 132.362C84.1393 132.722 83.8393 133.022 83.4793 133.022Z" fill="#D2D9DC"/>
<g opacity="0.19">
<path d="M68.4792 91.9952C75.5484 91.9952 81.2792 86.2648 81.2792 79.196C81.2792 72.1273 75.5484 66.3969 68.4792 66.3969C61.41 66.3969 55.6792 72.1273 55.6792 79.196C55.6792 86.2648 61.41 91.9952 68.4792 91.9952Z" fill="#F9FAFB"/>
<path d="M85.8564 96.5727C87.4849 94.9442 87.4849 92.3041 85.8564 90.6756C84.2279 89.0472 81.5875 89.0472 79.959 90.6756C78.3304 92.3041 78.3304 94.9442 79.959 96.5727C81.5875 98.2011 84.2279 98.2011 85.8564 96.5727Z" fill="#F9FAFB"/>
</g>
<g opacity="0.19">
<path d="M68.4792 91.9952C75.5484 91.9952 81.2792 86.2648 81.2792 79.196C81.2792 72.1273 75.5484 66.3969 68.4792 66.3969C61.41 66.3969 55.6792 72.1273 55.6792 79.196C55.6792 86.2648 61.41 91.9952 68.4792 91.9952Z" fill="#F9FAFB"/>
<path d="M85.8564 96.5727C87.4849 94.9442 87.4849 92.3041 85.8564 90.6756C84.2279 89.0472 81.5875 89.0472 79.959 90.6756C78.3304 92.3041 78.3304 94.9442 79.959 96.5727C81.5875 98.2011 84.2279 98.2011 85.8564 96.5727Z" fill="#F9FAFB"/>
</g>
<path d="M94.1591 271.923L87.6092 268.133C87.9792 266.143 88.1992 264.093 88.1992 261.993C88.1992 259.893 87.9792 257.844 87.6192 255.854L94.1691 252.064C96.849 250.514 97.779 247.074 96.229 244.395L90.6091 234.665C89.0592 231.985 85.6192 231.055 82.9393 232.605L79.6193 234.525C77.7994 235.575 75.5094 235.585 73.7894 234.385C72.2095 233.285 70.5395 232.315 68.7795 231.495C66.8695 230.605 65.7396 228.616 65.7396 226.516V222.676C65.7396 219.576 63.2196 217.056 60.1197 217.056H48.8699C45.7699 217.056 43.25 219.576 43.25 222.676V226.516C43.25 228.616 42.12 230.605 40.21 231.495C38.4501 232.315 36.7801 233.285 35.2001 234.385C33.4802 235.585 31.1802 235.575 29.3702 234.525L26.0503 232.605C23.3703 231.055 19.9304 231.975 18.3804 234.665L12.7605 244.395C11.2106 247.074 12.1305 250.514 14.8205 252.064L21.3704 255.854C21.0004 257.844 20.7804 259.893 20.7804 261.993C20.7804 264.093 21.0004 266.143 21.3604 268.133L14.8105 271.923C12.1305 273.473 11.2006 276.912 12.7505 279.592L18.3704 289.321C19.9204 292.001 23.3603 292.931 26.0403 291.381L29.3602 289.461C31.1802 288.411 33.4702 288.401 35.1901 289.601C36.7701 290.701 38.4401 291.671 40.2 292.491C42.11 293.381 43.24 295.371 43.24 297.471V301.311C43.24 304.41 45.7599 306.93 48.8599 306.93H60.1097C63.2096 306.93 65.7296 304.41 65.7296 301.311V297.471C65.7296 295.371 66.8596 293.381 68.7695 292.491C70.5295 291.671 72.1995 290.701 73.7794 289.601C75.4994 288.401 77.7994 288.411 79.6093 289.461L82.9293 291.381C85.6092 292.931 89.0491 292.011 90.5991 289.321L96.219 279.592C97.759 276.902 96.839 273.473 94.1591 271.923ZM54.4898 284.452C42.08 284.452 32.0202 274.392 32.0202 261.983C32.0202 249.574 42.08 239.515 54.4898 239.515C66.8996 239.515 76.9594 249.584 76.9594 261.993C76.9594 274.392 66.8996 284.452 54.4898 284.452Z" fill="#839299"/>
</svg>
