<svg width="334" height="370" viewBox="0 0 334 370" fill="none" xmlns="http://www.w3.org/2000/svg">
<path d="M273.341 118.554L267.201 114.999C267.551 113.122 267.751 111.194 267.751 109.225C267.751 107.257 267.541 105.319 267.201 103.451L273.341 99.8966C275.851 98.4406 276.721 95.2071 275.261 92.6867L270.001 83.5387C268.551 81.0182 265.331 80.1446 262.822 81.6107L259.712 83.4081C258.012 84.3922 255.862 84.4023 254.252 83.2776C252.772 82.2433 251.212 81.3295 249.562 80.5663C247.772 79.7329 246.713 77.8551 246.713 75.8869V72.2819C246.713 69.3698 244.353 67 241.453 67H230.934C228.034 67 225.674 69.3698 225.674 72.2819V75.8869C225.674 77.8651 224.614 79.7329 222.834 80.5663C221.184 81.3395 219.624 82.2433 218.144 83.2776C216.534 84.4123 214.385 84.3922 212.685 83.4081L209.575 81.6107C207.065 80.1546 203.845 81.0182 202.395 83.5387L197.136 92.6867C195.686 95.2071 196.546 98.4406 199.056 99.8966L205.195 103.451C204.845 105.329 204.645 107.257 204.645 109.225C204.645 111.194 204.855 113.132 205.195 114.999L199.056 118.554C196.546 120.01 195.676 123.244 197.136 125.764L202.395 134.912C203.845 137.432 207.065 138.306 209.575 136.84L212.685 135.043C214.385 134.058 216.534 134.048 218.144 135.173C219.624 136.207 221.184 137.121 222.834 137.884C224.624 138.718 225.684 140.596 225.684 142.564V146.169C225.684 149.081 228.044 151.451 230.944 151.451H241.463C244.363 151.451 246.723 149.081 246.723 146.169V142.564C246.723 140.586 247.782 138.718 249.562 137.884C251.212 137.111 252.772 136.207 254.252 135.173C255.862 134.038 258.012 134.058 259.712 135.043L262.822 136.84C265.331 138.296 268.551 137.432 270.001 134.912L275.261 125.764C276.721 123.244 275.851 120.01 273.341 118.554ZM236.213 130.343C224.594 130.343 215.185 120.884 215.185 109.225C215.185 97.5669 224.604 88.1076 236.213 88.1076C247.822 88.1076 257.242 97.5669 257.242 109.225C257.242 120.884 247.822 130.343 236.213 130.343Z" fill="#D2D9DC"/>
<path d="M76.0434 242.83L70.9337 239.868C71.2237 238.311 71.3937 236.705 71.3937 235.058C71.3937 233.411 71.2237 231.804 70.9337 230.248L76.0434 227.286C78.1333 226.071 78.8532 223.379 77.6433 221.281L73.2636 213.669C72.0537 211.57 69.3738 210.847 67.284 212.062L64.6941 213.559C63.2742 214.382 61.4943 214.392 60.1544 213.448C58.9245 212.585 57.6246 211.831 56.2447 211.189C54.7548 210.496 53.8748 208.929 53.8748 207.293V204.29C53.8748 201.86 51.915 199.892 49.4951 199.892H40.7357C38.3158 199.892 36.3559 201.86 36.3559 204.29V207.293C36.3559 208.939 35.476 210.496 33.9861 211.189C32.6162 211.831 31.3063 212.585 30.0763 213.448C28.7364 214.392 26.9465 214.382 25.5366 213.559L22.9468 212.062C20.8569 210.847 18.1771 211.57 16.9672 213.669L12.5875 221.281C11.3775 223.379 12.0975 226.071 14.1874 227.286L19.297 230.248C19.0071 231.804 18.8371 233.411 18.8371 235.058C18.8371 236.705 19.0071 238.311 19.297 239.868L14.1874 242.83C12.0975 244.045 11.3775 246.736 12.5875 248.835L16.9672 256.447C18.1771 258.545 20.8569 259.268 22.9468 258.053L25.5366 256.557C26.9565 255.734 28.7364 255.724 30.0763 256.668C31.3063 257.531 32.6062 258.284 33.9861 258.927C35.476 259.62 36.3559 261.186 36.3559 262.823V265.826C36.3559 268.256 38.3158 270.224 40.7357 270.224H49.4951C51.915 270.224 53.8748 268.256 53.8748 265.826V262.823C53.8748 261.176 54.7548 259.62 56.2447 258.927C57.6146 258.284 58.9245 257.531 60.1544 256.668C61.4943 255.724 63.2842 255.734 64.6941 256.557L67.284 258.053C69.3738 259.268 72.0537 258.545 73.2636 256.447L77.6433 248.835C78.8532 246.736 78.1333 244.045 76.0434 242.83ZM45.1254 252.641C35.456 252.641 27.6165 244.768 27.6165 235.058C27.6165 225.348 35.456 217.475 45.1254 217.475C54.7948 217.475 62.6343 225.348 62.6343 235.058C62.6343 244.768 54.7948 252.641 45.1254 252.641Z" fill="#839299"/>
<path d="M320.358 175.752L316.528 173.532C316.748 172.368 316.868 171.163 316.868 169.927C316.868 168.692 316.738 167.497 316.528 166.322L320.358 164.103C321.928 163.189 322.468 161.181 321.558 159.605L318.278 153.901C317.368 152.324 315.368 151.782 313.798 152.696L311.858 153.821C310.799 154.433 309.459 154.443 308.459 153.74C307.539 153.098 306.559 152.525 305.529 152.043C304.409 151.521 303.749 150.356 303.749 149.121V146.872C303.749 145.054 302.279 143.578 300.469 143.578H293.91C292.1 143.578 290.63 145.054 290.63 146.872V149.121C290.63 150.356 289.97 151.521 288.86 152.043C287.83 152.525 286.86 153.087 285.93 153.74C284.93 154.443 283.58 154.443 282.53 153.821L280.59 152.696C279.021 151.782 277.011 152.324 276.111 153.901L272.831 159.605C271.921 161.181 272.461 163.199 274.031 164.103L277.861 166.322C277.641 167.487 277.521 168.692 277.521 169.927C277.521 171.163 277.651 172.358 277.861 173.532L274.031 175.752C272.461 176.665 271.921 178.674 272.831 180.25L276.111 185.954C277.021 187.531 279.021 188.073 280.59 187.159L282.53 186.034C283.59 185.422 284.93 185.412 285.93 186.115C286.85 186.757 287.83 187.33 288.86 187.812C289.98 188.334 290.64 189.499 290.64 190.734V192.983C290.64 194.801 292.11 196.277 293.92 196.277H300.479C302.289 196.277 303.759 194.801 303.759 192.983V190.734C303.759 189.499 304.419 188.334 305.529 187.812C306.559 187.33 307.529 186.767 308.459 186.115C309.459 185.412 310.809 185.412 311.858 186.034L313.798 187.159C315.368 188.073 317.378 187.531 318.278 185.954L321.558 180.25C322.458 178.674 321.918 176.665 320.358 175.752ZM297.189 183.102C289.94 183.102 284.07 177.208 284.07 169.927C284.07 162.647 289.94 156.753 297.189 156.753C304.439 156.753 310.309 162.647 310.309 169.927C310.309 177.208 304.439 183.102 297.189 183.102Z" fill="#D2D9DC"/>
<path d="M172.957 101.845H37.536C36.5761 101.845 35.8062 101.061 35.8062 100.107C35.8062 99.1435 36.5861 98.3703 37.536 98.3703H172.957C173.917 98.3703 174.687 99.1535 174.687 100.107C174.687 101.061 173.917 101.845 172.957 101.845Z" fill="#D2D9DC"/>
<path d="M172.957 114.316H37.536C36.5761 114.316 35.8062 113.533 35.8062 112.579C35.8062 111.615 36.5861 110.842 37.536 110.842H172.957C173.917 110.842 174.687 111.625 174.687 112.579C174.687 113.533 173.917 114.316 172.957 114.316Z" fill="#D2D9DC"/>
<path d="M172.957 126.788H37.536C36.5761 126.788 35.8062 126.005 35.8062 125.051C35.8062 124.087 36.5861 123.314 37.536 123.314H172.957C173.917 123.314 174.687 124.097 174.687 125.051C174.687 126.005 173.917 126.788 172.957 126.788Z" fill="#D2D9DC"/>
<path d="M173.377 139.26H37.1161C36.3861 139.26 35.8062 138.668 35.8062 137.945V137.101C35.8062 136.368 36.3961 135.786 37.1161 135.786H173.377C174.107 135.786 174.687 136.378 174.687 137.101V137.945C174.687 138.668 174.107 139.26 173.377 139.26Z" fill="#D2D9DC"/>
<path d="M172.957 151.732H37.536C36.5761 151.732 35.8062 150.949 35.8062 149.995C35.8062 149.031 36.5861 148.257 37.536 148.257H172.957C173.917 148.257 174.687 149.041 174.687 149.995C174.687 150.949 173.917 151.732 172.957 151.732Z" fill="#D2D9DC"/>
<path d="M172.957 164.194H37.536C36.5761 164.194 35.8062 163.41 35.8062 162.456C35.8062 161.492 36.5861 160.719 37.536 160.719H172.957C173.917 160.719 174.687 161.502 174.687 162.456C174.687 163.42 173.917 164.194 172.957 164.194Z" fill="#D2D9DC"/>
<path d="M172.957 176.665H37.536C36.5761 176.665 35.8062 175.882 35.8062 174.928C35.8062 173.964 36.5861 173.191 37.536 173.191H172.957C173.917 173.191 174.687 173.974 174.687 174.928C174.687 175.892 173.917 176.665 172.957 176.665Z" fill="#D2D9DC"/>
<path d="M172.957 189.137H37.536C36.5761 189.137 35.8062 188.354 35.8062 187.4C35.8062 186.436 36.5861 185.663 37.536 185.663H172.957C173.917 185.663 174.687 186.446 174.687 187.4C174.687 188.364 173.917 189.137 172.957 189.137Z" fill="#D2D9DC"/>
<path d="M172.957 201.609H37.536C36.5761 201.609 35.8062 200.826 35.8062 199.872C35.8062 198.908 36.5861 198.135 37.536 198.135H172.957C173.917 198.135 174.687 198.918 174.687 199.872C174.687 200.826 173.917 201.609 172.957 201.609Z" fill="#D2D9DC"/>
<path d="M173.787 289.524C231.149 289.524 277.651 285.114 277.651 279.673C277.651 274.233 231.149 269.822 173.787 269.822C116.425 269.822 69.9238 274.233 69.9238 279.673C69.9238 285.114 116.425 289.524 173.787 289.524Z" fill="#D2D9DC"/>
<path d="M203.886 280.195H143.689L154.039 250.231H193.536L203.886 280.195Z" fill="#839299"/>
<path opacity="0.19" d="M203.886 280.195H143.689L154.039 250.231H193.536L203.886 280.195Z" fill="#2D2F31"/>
<path d="M258.122 263.968H89.4525C82.7629 263.968 77.3433 258.525 77.3433 251.807V166.443C77.3433 161.583 81.263 157.646 86.1027 157.646H261.472C266.311 157.646 270.231 161.583 270.231 166.443V251.807C270.231 258.525 264.811 263.968 258.122 263.968Z" fill="#D2D9DC"/>
<path d="M270.231 240.762H77.3433V133.094C77.3433 130.966 79.0631 129.238 81.183 129.238H266.391C268.511 129.238 270.231 130.966 270.231 133.094V240.762Z" fill="#002548"/>
<path d="M173.788 257.431C176.892 257.431 179.408 254.904 179.408 251.787C179.408 248.671 176.892 246.144 173.788 246.144C170.684 246.144 168.168 248.671 168.168 251.787C168.168 254.904 170.684 257.431 173.788 257.431Z" fill="#839299"/>
<path d="M262.962 136.689H84.6133V233.311H262.962V136.689Z" fill="#D2D9DC"/>
<path d="M219.564 280.195H128.01C128.01 277.113 130.5 274.612 133.57 274.612H214.005C217.075 274.612 219.564 277.113 219.564 280.195Z" fill="#839299"/>
<path d="M260.142 303C283.414 303 302.279 300.289 302.279 296.945C302.279 293.601 283.414 290.89 260.142 290.89C236.87 290.89 218.004 293.601 218.004 296.945C218.004 300.289 236.87 303 260.142 303Z" fill="#D2D9DC"/>
<path d="M282.6 294.605H237.693C235.123 294.605 233.043 292.516 233.043 289.936V205.847C233.043 203.266 235.123 201.177 237.693 201.177H282.6C285.17 201.177 287.25 203.266 287.25 205.847V289.936C287.25 292.516 285.17 294.605 282.6 294.605Z" fill="#002548"/>
<path d="M287.25 207.694H233.043V287.727H287.25V207.694Z" fill="#0054A6"/>
<path d="M266.941 210.857H253.352C251.262 210.857 249.562 209.15 249.562 207.052H270.731C270.731 209.16 269.031 210.857 266.941 210.857Z" fill="#002548"/>
<path opacity="0.19" d="M265.052 207.694H255.252C254.902 207.694 254.622 207.413 254.622 207.062C254.622 206.71 254.902 206.429 255.252 206.429H265.052C265.402 206.429 265.682 206.71 265.682 207.062C265.682 207.403 265.402 207.694 265.052 207.694Z" fill="#F9FAFB"/>
<path d="M92.1723 140.194H50.305C49.015 140.194 47.9751 139.15 47.9751 137.854V95.8096C47.9751 94.5142 49.015 93.4699 50.305 93.4699H92.1723C93.4622 93.4699 94.5021 94.5142 94.5021 95.8096V137.854C94.5021 139.15 93.4622 140.194 92.1723 140.194Z" fill="#0054A6"/>
<path d="M92.1723 197.381H50.305C49.015 197.381 47.9751 196.337 47.9751 195.042V152.997C47.9751 151.702 49.015 150.657 50.305 150.657H92.1723C93.4622 150.657 94.5021 151.702 94.5021 152.997V195.042C94.5021 196.337 93.4622 197.381 92.1723 197.381Z" fill="#0054A6"/>
<path d="M300.199 161.543H243.773C241.363 161.543 239.413 159.584 239.413 157.164V100.499C239.413 98.0791 241.363 96.1209 243.773 96.1209H300.199C302.609 96.1209 304.559 98.0791 304.559 100.499V157.164C304.559 159.574 302.609 161.543 300.199 161.543Z" fill="#0054A6"/>
<path d="M274.911 267.101H245.373C242.963 267.101 241.013 265.143 241.013 262.723V233.06C241.013 230.64 242.963 228.681 245.373 228.681H274.911C277.321 228.681 279.27 230.64 279.27 233.06V262.723C279.27 265.143 277.321 267.101 274.911 267.101Z" fill="#0054A6"/>
<path d="M222.594 195.222H111.521C110.231 195.222 109.191 194.178 109.191 192.883V124.931C109.191 123.635 110.231 122.591 111.521 122.591H222.594C223.884 122.591 224.924 123.635 224.924 124.931V192.883C224.924 194.178 223.884 195.222 222.594 195.222Z" fill="#ED1C24"/>
<path d="M145.309 248.604H92.2722C90.9823 248.604 89.9424 247.56 89.9424 246.264V210.104C89.9424 208.809 90.9823 207.765 92.2722 207.765H145.309C146.599 207.765 147.639 208.809 147.639 210.104V246.264C147.629 247.56 146.589 248.604 145.309 248.604Z" fill="#0054A6"/>
<path d="M84.6529 177.398L82.4331 176.113C82.5631 175.44 82.6331 174.737 82.6331 174.024C82.6331 173.311 82.5631 172.619 82.4331 171.936L84.6529 170.65C85.5629 170.128 85.8729 168.953 85.3529 168.04L83.453 164.736C82.933 163.822 81.7631 163.511 80.8532 164.033L79.7332 164.686C79.1133 165.047 78.3433 165.047 77.7634 164.635C77.2334 164.264 76.6634 163.933 76.0635 163.651C75.4135 163.35 75.0335 162.677 75.0335 161.954V160.649C75.0335 159.595 74.1836 158.741 73.1337 158.741H69.3339C68.284 158.741 67.434 159.595 67.434 160.649V161.954C67.434 162.667 67.0541 163.35 66.4041 163.651C65.8141 163.933 65.2442 164.254 64.7042 164.635C64.1242 165.047 63.3443 165.037 62.7343 164.686L61.6144 164.033C60.7045 163.511 59.5445 163.822 59.0146 164.736L57.1147 168.04C56.5947 168.953 56.9047 170.118 57.8146 170.65L60.0345 171.936C59.9045 172.609 59.8345 173.311 59.8345 174.024C59.8345 174.737 59.9045 175.43 60.0345 176.113L57.8146 177.398C56.9047 177.921 56.5947 179.095 57.1147 180.009L59.0146 183.313C59.5345 184.227 60.7045 184.538 61.6144 184.016L62.7343 183.363C63.3543 183.002 64.1242 183.002 64.7042 183.413C65.2342 183.785 65.8041 184.116 66.4041 184.398C67.0541 184.699 67.434 185.372 67.434 186.095V187.4C67.434 188.454 68.284 189.308 69.3339 189.308H73.1337C74.1836 189.308 75.0335 188.454 75.0335 187.4V186.095C75.0335 185.382 75.4135 184.699 76.0635 184.398C76.6534 184.116 77.2234 183.795 77.7634 183.413C78.3433 183.002 79.1233 183.012 79.7332 183.363L80.8532 184.016C81.7631 184.538 82.923 184.227 83.453 183.313L85.3529 180.009C85.8729 179.085 85.5629 177.921 84.6529 177.398ZM71.2338 181.656C67.0341 181.656 63.6343 178.242 63.6343 174.024C63.6343 169.807 67.0341 166.393 71.2338 166.393C75.4335 166.393 78.8333 169.807 78.8333 174.024C78.8333 178.242 75.4335 181.656 71.2338 181.656Z" fill="#F9FAFB"/>
<path d="M88.9426 99.0531H53.5249V134.621H88.9426V99.0531Z" fill="#D2D9DC"/>
<path d="M62.7747 105.972H59.5146V107.478H62.7747V105.972Z" fill="#F9FAFB"/>
<path d="M81.1528 105.972H64.4839V107.478H81.1528V105.972Z" fill="#839299"/>
<path d="M64.5846 111.023H59.5146V112.529H64.5846V111.023Z" fill="#F9FAFB"/>
<path d="M82.9531 111.023H66.2842V112.529H82.9531V111.023Z" fill="#839299"/>
<path d="M62.7747 120.522H59.5146V122.029H62.7747V120.522Z" fill="#F9FAFB"/>
<path d="M81.1528 120.522H64.4839V122.029H81.1528V120.522Z" fill="#839299"/>
<path d="M64.5846 125.573H59.5146V127.079H64.5846V125.573Z" fill="#F9FAFB"/>
<path d="M82.9531 125.573H66.2842V127.079H82.9531V125.573Z" fill="#839299"/>
<path d="M61.5744 116.074H56.5044V117.58H61.5744V116.074Z" fill="#F9FAFB"/>
<path d="M85.9625 116.074H63.2739V117.58H85.9625V116.074Z" fill="#839299"/>
<path d="M110.332 218.63L99.3423 228.179L110.332 237.739V232.558L105.302 228.179L110.332 223.811V218.63Z" fill="#F9FAFB"/>
<path d="M127.23 237.739L138.23 228.179L127.23 218.63V223.811L132.27 228.179L127.23 232.558V237.739Z" fill="#F9FAFB"/>
<path d="M117.721 240.862H113.071L119.851 215.507H124.501L117.721 240.862Z" fill="#F9FAFB"/>
<path d="M220.344 126.557H113.771V191.266H220.344V126.557Z" fill="#0054A6"/>
<path d="M136.22 135.203H125.13V136.709H136.22V135.203Z" fill="#FFDD33"/>
<path d="M162.418 135.203H139.729V136.709H162.418V135.203Z" fill="#FFDD33"/>
<path d="M136.22 164.244H125.13V165.75H136.22V164.244Z" fill="#FFDD33"/>
<path d="M162.418 164.244H139.729V165.75H162.418V164.244Z" fill="#FFDD33"/>
<path d="M140.93 141.288H129.84V142.795H140.93V141.288Z" fill="#F9FAFB"/>
<path d="M140.93 146.952H129.84V148.458H140.93V146.952Z" fill="#F9FAFB"/>
<path d="M140.93 152.605H129.84V154.112H140.93V152.605Z" fill="#F9FAFB"/>
<path d="M140.93 158.259H129.84V159.765H140.93V158.259Z" fill="#F9FAFB"/>
<path d="M186.237 170.339H144.439V171.845H186.237V170.339Z" fill="#F9FAFB"/>
<path d="M186.237 175.993H144.439V177.499H186.237V175.993Z" fill="#F9FAFB"/>
<path d="M186.237 181.656H144.439V183.162H186.237V181.656Z" fill="#F9FAFB"/>
<path d="M209.735 170.339H189.246V171.845H209.735V170.339Z" fill="#F9FAFB"/>
<path d="M209.735 175.993H189.246V177.499H209.735V175.993Z" fill="#F9FAFB"/>
<path d="M209.735 181.656H189.246V183.162H209.735V181.656Z" fill="#F9FAFB"/>
<path d="M209.265 141.288H144.439V142.795H209.265V141.288Z" fill="#54CC5A"/>
<path d="M209.265 146.952H144.439V148.458H209.265V146.952Z" fill="#54CC5A"/>
<path d="M209.265 152.605H144.439V154.112H209.265V152.605Z" fill="#54CC5A"/>
<path d="M140.93 175.993H137.25V177.499H140.93V175.993Z" fill="#54CC5A"/>
<path d="M140.93 181.656H129.84V183.162H140.93V181.656Z" fill="#54CC5A"/>
<path d="M209.265 158.259H144.439V159.765H209.265V158.259Z" fill="#54CC5A"/>
<path d="M287.95 116.897C286.62 116.897 285.36 117.198 284.24 117.731C282.7 112.198 277.641 108.131 271.641 108.131C265.731 108.131 260.742 112.057 259.112 117.46C258.152 117.098 257.112 116.897 256.032 116.897C251.212 116.897 247.302 120.824 247.302 125.664H296.689C296.679 120.813 292.77 116.897 287.95 116.897Z" fill="#F9FAFB"/>
<path d="M262.902 140.415L271.991 149.533L281.07 140.415H274.951V129.65H269.021V140.415H262.902Z" fill="#F9FAFB"/>
<path d="M260.142 262.904C251.902 262.904 245.203 256.176 245.203 247.901C245.203 239.627 251.902 232.899 260.142 232.899C268.381 232.899 275.081 239.627 275.081 247.901C275.091 256.166 268.381 262.904 260.142 262.904ZM260.142 235.66C253.422 235.66 247.962 241.143 247.962 247.891C247.962 254.639 253.422 260.122 260.142 260.122C266.861 260.122 272.321 254.639 272.321 247.891C272.331 241.153 266.861 235.66 260.142 235.66Z" fill="#54CC5A"/>
<path d="M259.062 253.595L253.842 248.986L256.032 246.485L258.762 248.895L263.952 242.931L266.452 245.12L259.062 253.595Z" fill="#54CC5A"/>
</svg>
