<svg width="48" height="48" viewBox="0 0 48 48" fill="none" xmlns="http://www.w3.org/2000/svg">
<path d="M2.2998 5.6001H35.1998V34.3001H2.2998V5.6001Z" fill="#D2D9DC"/>
<path d="M35.1998 2.80005H2.2998V15H35.1998V2.80005Z" fill="#0054A6"/>
<path d="M29 0H31.4V5.6H29V0Z" fill="#5F737C"/>
<path d="M24.0996 0H26.4996V5.6H24.0996V0Z" fill="#5F737C"/>
<path d="M11 0H13.4V5.6H11V0Z" fill="#5F737C"/>
<path d="M6.09961 0H8.49961V5.6H6.09961V0Z" fill="#5F737C"/>
<path d="M33.5993 30.4L32.8993 30C30.9993 29 28.6993 29.7 27.6993 31.6L25.8993 35.1C25.7993 35.3 25.9993 35.5 26.0993 35.4L30.5993 34.7L33.5993 30.4Z" fill="#ED1C24"/>
<path d="M42.6994 35.2998L43.3994 35.6998C45.2994 36.6998 45.9994 38.9998 44.9994 40.8998L43.1994 44.3998C43.0994 44.5998 42.8994 44.5998 42.7994 44.3998L40.8994 40.2998L42.6994 35.2998Z" fill="#ED1C24"/>
<path d="M45.6997 26.6C45.8997 29.6 45.7997 33.3 44.4997 36.4C43.6997 38.3 42.3997 39.9999 40.5997 41.0999L35.2997 38.2999L29.9997 35.5999C29.8997 33.3999 30.5997 31.4 31.6997 29.7C33.4997 26.9 36.4997 24.7 39.0997 23.2L42.9997 23.7999L45.6997 26.6Z" fill="#0054A6"/>
<path d="M41.0993 33.6C40.2993 35 38.5993 35.6 37.0993 34.8C35.6993 34 35.0993 32.3 35.8993 30.8C36.6993 29.4 38.4993 28.8 39.8993 29.6C41.2993 30.4 41.7993 32.2 41.0993 33.6Z" fill="#F9FAFB"/>
<path d="M40.499 41.0999L37.699 43.0999C37.499 43.1999 37.299 43.1999 37.199 43.0999L33.699 41.2999L30.199 39.4999C30.099 39.3999 29.999 39.1999 29.999 38.9999V35.5999L35.299 38.3999L40.499 41.0999Z" fill="#002548"/>
<path d="M28.7992 41.5999L27.1992 42.0999C26.7992 42.1999 26.5992 42.5999 26.7992 42.9999C26.8992 43.1999 26.9992 43.2999 27.0992 43.3999C27.2992 43.4999 27.4992 43.4999 27.6992 43.3999L29.2992 42.8999C29.6992 42.7999 29.8992 42.3999 29.6992 41.9999C29.5992 41.5999 29.1992 41.3999 28.7992 41.5999Z" fill="#FFDD33"/>
<path d="M36.6995 47.0998L36.2995 45.4998C36.1995 45.0998 35.7995 44.8998 35.3995 44.9998C34.9995 45.0998 34.7995 45.4999 34.8995 45.8999L35.2995 47.4998C35.3995 47.6998 35.4995 47.8999 35.6995 47.8999C35.7995 47.9999 35.9995 47.9998 36.1995 47.9998C36.4995 47.8998 36.7995 47.4998 36.6995 47.0998Z" fill="#FFDD33"/>
<path d="M32.8995 44.3L31.7995 46.3C31.5995 46.6 31.1995 46.8 30.7995 46.6C30.4995 46.4 30.2995 46 30.4995 45.6L31.5995 43.6C31.7995 43.3 32.1995 43.1 32.5995 43.3C32.9995 43.5 33.0995 44 32.8995 44.3Z" fill="#FFDD33"/>
<path d="M44.9992 21.8999C45.1992 22.9999 45.4992 24.6999 45.6992 26.6999C44.2992 26.9999 42.8992 26.7999 41.7992 26.1999C40.5992 25.5999 39.6992 24.4999 39.1992 23.1999C40.8992 22.1999 42.4992 21.4999 43.4992 21.0999C43.7992 20.9999 44.1992 20.9999 44.4992 21.0999C44.6992 21.1999 44.8992 21.4999 44.9992 21.8999Z" fill="#ED1C24"/>
<path d="M28.9 24.7999V26.4H27.6V28.2H25.7V26.4H21V25.1L25 19.7H27.1L25.7 21.6L23.4 24.7999H25.7V23.2H27.6V24.7999H28.9Z" fill="#ED1C24"/>
<path d="M15.5 26.2999V28.1999H8.9V26.6999L12.1 23.6999C12.8 23.0999 12.9 22.6999 12.9 22.2999C12.9 21.7999 12.5 21.3999 11.8 21.3999C11.2 21.3999 10.6 21.6999 10.3 22.1999L8.5 21.1999C9.1 20.0999 10.3 19.3999 12 19.3999C14 19.3999 15.3 20.3999 15.3 21.9999C15.3 22.7999 15.1 23.5999 13.9 24.6999L12.3 26.1999H15.5V26.2999Z" fill="#ED1C24"/>
<path d="M16.4004 23.8999H19.9004V25.6999H16.4004V23.8999Z" fill="#ED1C24"/>
<path d="M12.2 11.7V9.89995L11.3 11.4H10.9L9.9 9.89995V11.7H9V8.19995H9.8L11 10.2L12.2 8.19995H13V11.7H12.2Z" fill="#F9FAFB"/>
<path d="M13.5 10.2999C13.5 9.4999 14.1 8.8999 15 8.8999C15.9 8.8999 16.5 9.4999 16.5 10.2999C16.5 11.0999 15.9 11.6999 15 11.6999C14.2 11.6999 13.5 11.0999 13.5 10.2999ZM15.6 10.2999C15.6 9.8999 15.4 9.6999 15 9.6999C14.7 9.6999 14.4 9.8999 14.4 10.2999C14.4 10.6999 14.6 10.8999 15 10.8999C15.4 10.9999 15.6 10.6999 15.6 10.2999Z" fill="#F9FAFB"/>
<path d="M19.8 10.1V11.6H18.9V10.2C18.9 9.79996 18.7 9.69996 18.5 9.69996C18.2 9.69996 18 9.89997 18 10.3V11.6H17V8.99996H17.9V9.29996C18.1 9.09996 18.4 8.99996 18.7 8.99996C19.4 8.89996 19.8 9.29997 19.8 10.1Z" fill="#F9FAFB"/>
<path d="M22.2996 11.5999C22.0996 11.6999 21.8996 11.7999 21.5996 11.7999C20.8996 11.7999 20.4996 11.4999 20.4996 10.7999V9.7999H20.0996V9.0999H20.4996V8.3999H21.3996V9.0999H21.9996V9.7999H21.3996V10.6999C21.3996 10.8999 21.4996 10.9999 21.6996 10.9999C21.7996 10.9999 21.8996 10.9999 21.9996 10.8999L22.2996 11.5999Z" fill="#F9FAFB"/>
<path d="M25.4998 10.1V11.6H24.5998V10.2C24.5998 9.8 24.3998 9.7 24.1998 9.7C23.8998 9.7 23.6998 9.9 23.6998 10.3V11.6H22.7998V8H23.6998V9.2C23.8998 9 24.1998 8.9 24.4998 8.9C24.9998 8.9 25.4998 9.3 25.4998 10.1Z" fill="#F9FAFB"/>
<path d="M25.9004 11.3999L26.2004 10.7999C26.4004 10.9999 26.8004 10.9999 27.1004 10.9999C27.4004 10.9999 27.5004 10.8999 27.5004 10.7999C27.5004 10.3999 25.9004 10.7999 25.9004 9.7999C25.9004 9.2999 26.4004 8.8999 27.2004 8.8999C27.6004 8.8999 28.0004 8.9999 28.3004 9.0999L28.0004 9.7999C27.7004 9.6999 27.5004 9.5999 27.2004 9.5999C26.9004 9.5999 26.8004 9.6999 26.8004 9.7999C26.8004 10.1999 28.4004 9.7999 28.4004 10.7999C28.4004 11.2999 27.9004 11.6999 27.1004 11.6999C26.6004 11.6999 26.1004 11.5999 25.9004 11.3999Z" fill="#F9FAFB"/>
<path d="M5.59961 11.3C6.15189 11.3 6.59961 10.8523 6.59961 10.3C6.59961 9.74776 6.15189 9.30005 5.59961 9.30005C5.04732 9.30005 4.59961 9.74776 4.59961 10.3C4.59961 10.8523 5.04732 11.3 5.59961 11.3Z" fill="#F9FAFB"/>
<path d="M31.7998 11.3C32.3521 11.3 32.7998 10.8523 32.7998 10.3C32.7998 9.74776 32.3521 9.30005 31.7998 9.30005C31.2475 9.30005 30.7998 9.74776 30.7998 10.3C30.7998 10.8523 31.2475 11.3 31.7998 11.3Z" fill="#F9FAFB"/>
</svg>
