<svg width="420" height="311" viewBox="0 0 420 311" fill="none" xmlns="http://www.w3.org/2000/svg">
<g clip-path="url(#clip0_14658_14405)">
<path opacity="0.3" d="M315.539 197.156C292.644 251.141 231.659 281.384 178.772 273.226C170.167 271.898 146.574 267.944 125.686 249.289C85.4746 213.377 76.8752 142.266 109.312 92.1525C132.921 55.6786 175.241 35.0028 215.454 36.037C224.116 36.2598 257.312 37.6327 286.486 61.7235C290.771 65.2619 300.222 73.6703 308.739 87.0096C328.74 118.333 330.459 161.973 315.539 197.156Z" fill="#D2D9DC"/>
<path d="M317.925 94.2504L114.268 90.8088C106.068 90.6702 99.4873 97.7027 99.9746 106.082L106.985 226.633C107.368 233.23 112.675 238.399 119.131 238.462L314.895 240.398C319.73 240.446 323.725 236.547 323.909 231.601L328.593 105.784C328.825 99.5577 324.011 94.3532 317.925 94.2504Z" fill="url(#paint0_linear_14658_14405)"/>
<path d="M314.802 97.3213L116.461 94.0471C108.475 93.9152 102.066 100.606 102.54 108.578L109.367 223.27C109.741 229.547 114.909 234.464 121.197 234.525L311.851 236.367C316.56 236.413 320.451 232.703 320.631 227.997L325.192 108.295C325.418 102.371 320.73 97.4192 314.802 97.3213Z" fill="#D2D9DC"/>
<path opacity="0.5" d="M310.339 100.564L119.627 97.4459C111.949 97.3203 105.786 103.692 106.243 111.283L112.807 220.497C113.166 226.474 118.136 231.157 124.182 231.215L307.502 232.968C312.03 233.012 315.771 229.48 315.943 224.998L320.329 111.013C320.546 105.372 316.038 100.657 310.339 100.564Z" fill="white"/>
<g opacity="0.49">
<path d="M284.566 166.959H306.048C308.983 166.959 311.321 169.414 311.177 172.346L308.733 222.272C308.599 225.007 306.342 227.156 303.603 227.156H284.565C281.729 227.156 279.43 224.857 279.43 222.021V172.095C279.43 169.258 281.729 166.959 284.566 166.959Z" fill="#839299"/>
<path d="M232.895 121.659L308.289 122.823C311.192 122.868 313.481 125.309 313.339 128.209L312.083 153.848C311.95 156.583 309.693 158.732 306.954 158.732H232.815C229.979 158.732 227.68 156.433 227.68 153.596V126.794C227.68 123.926 230.028 121.614 232.895 121.659Z" fill="#839299"/>
<path d="M229.913 168.165H265.023C267.859 168.165 270.159 170.465 270.159 173.301V223.227C270.159 226.063 267.859 228.363 265.023 228.363H229.913C227.077 228.363 224.777 226.063 224.777 223.227V173.301C224.777 170.465 227.077 168.165 229.913 168.165Z" fill="#839299"/>
</g>
<g opacity="0.64">
<path d="M191.732 154.004H212.748C214.068 154.004 215.137 155.073 215.137 156.393C215.137 157.712 214.068 158.781 212.748 158.781H191.732C190.413 158.781 189.344 157.712 189.344 156.393C189.344 155.073 190.413 154.004 191.732 154.004Z" fill="#839299"/>
<path d="M159.681 154.004H180.697C182.017 154.004 183.086 155.073 183.086 156.393C183.086 157.712 182.017 158.781 180.697 158.781H159.681C158.362 158.781 157.293 157.712 157.293 156.393C157.293 155.073 158.362 154.004 159.681 154.004Z" fill="#839299"/>
<path d="M148.647 158.781H127.631C126.312 158.781 125.242 157.712 125.242 156.393C125.242 155.074 126.312 154.004 127.631 154.004H148.647C149.966 154.004 151.035 155.074 151.035 156.393C151.035 157.712 149.966 158.781 148.647 158.781Z" fill="#839299"/>
<path d="M191.732 161.435H212.748C214.068 161.435 215.137 162.505 215.137 163.824V177.889C215.137 179.208 214.068 180.278 212.748 180.278H191.732C190.413 180.278 189.344 179.208 189.344 177.889V163.824C189.344 162.505 190.413 161.435 191.732 161.435Z" fill="#839299"/>
<path d="M159.681 161.435H180.697C182.017 161.435 183.086 162.505 183.086 163.824V177.889C183.086 179.208 182.017 180.278 180.697 180.278H159.681C158.362 180.278 157.293 179.208 157.293 177.889V163.824C157.293 162.505 158.362 161.435 159.681 161.435Z" fill="#839299"/>
<path d="M127.631 161.435H148.647C149.966 161.435 151.035 162.505 151.035 163.824V177.889C151.035 179.208 149.966 180.278 148.647 180.278H127.631C126.312 180.278 125.242 179.208 125.242 177.889V163.824C125.242 162.505 126.312 161.435 127.631 161.435Z" fill="#839299"/>
</g>
<path d="M209.509 227.156H213.859V207.464H209.509V227.156Z" fill="#839299"/>
<path d="M202.239 227.156H206.59V214.232H202.239V227.156Z" fill="#839299"/>
<path d="M194.97 227.156H199.32V197.506H194.97V227.156Z" fill="#839299"/>
<path d="M187.7 227.156H192.051V220.033H187.7V227.156Z" fill="#839299"/>
<path d="M180.43 227.156H184.781V201.47H180.43V227.156Z" fill="#839299"/>
<path d="M173.161 227.156H177.512V205.918H173.161V227.156Z" fill="#839299"/>
<path d="M165.891 227.156H170.242V210.752H165.891V227.156Z" fill="#839299"/>
<path d="M158.622 227.156H162.973V191.512H158.622V227.156Z" fill="#839299"/>
<path d="M151.352 227.156H155.703V195.283H151.352V227.156Z" fill="#839299"/>
<path d="M144.083 227.156H148.434V200.987H144.083V227.156Z" fill="#839299"/>
<path d="M136.813 227.156H141.164V220.694H136.813V227.156Z" fill="#839299"/>
<path d="M129.544 227.156H133.895V208.141H129.544V227.156Z" fill="#839299"/>
<path opacity="0.54" d="M202.476 191.511H221.619C222.46 191.511 223.142 192.193 223.142 193.034C223.142 193.875 222.46 194.557 221.619 194.557H202.476C201.635 194.557 200.953 193.875 200.953 193.034C200.953 192.193 201.635 191.511 202.476 191.511Z" fill="#839299"/>
<path opacity="0.54" d="M202.476 186.746H221.619C222.46 186.746 223.142 187.428 223.142 188.269C223.142 189.11 222.46 189.792 221.619 189.792H202.476C201.635 189.792 200.953 189.11 200.953 188.269C200.953 187.428 201.635 186.746 202.476 186.746Z" fill="#839299"/>
<path opacity="0.54" d="M167.941 191.511H187.084C187.925 191.511 188.607 192.193 188.607 193.034C188.607 193.875 187.925 194.557 187.084 194.557H167.941C167.1 194.557 166.418 193.875 166.418 193.034C166.418 192.193 167.1 191.511 167.941 191.511Z" fill="#839299"/>
<path opacity="0.54" d="M167.941 186.746H187.084C187.925 186.746 188.607 187.428 188.607 188.269C188.607 189.11 187.925 189.792 187.084 189.792H167.941C167.1 189.792 166.418 189.11 166.418 188.269C166.418 187.428 167.1 186.746 167.941 186.746Z" fill="#839299"/>
<path d="M265.984 130.528H126.082C122.986 130.528 120.477 128.018 120.477 124.923V60.4931C120.477 57.4319 122.932 54.9369 125.993 54.8884L266.141 52.6705C272.306 52.5729 277.355 57.5431 277.355 63.708V119.157C277.355 125.437 272.264 130.528 265.984 130.528Z" fill="#0054A6"/>
<path d="M262.36 127.638H130.893C127.983 127.638 125.625 125.377 125.625 122.588V64.54C125.625 61.782 127.933 59.534 130.809 59.4904L262.508 57.4921C268.301 57.4042 273.046 61.8821 273.046 67.4364V117.394C273.046 123.052 268.262 127.638 262.36 127.638Z" fill="#839299"/>
<path d="M277.382 72.144V63.7077C277.382 57.5428 272.32 52.5727 266.155 52.6702L125.973 54.8882C122.912 54.9366 120.422 57.4317 120.422 60.4929V72.144H277.382Z" fill="#0054A6"/>
<path opacity="0.37" d="M131.415 65.8626C131.675 64.7579 130.991 63.6508 129.886 63.3899C128.782 63.1291 127.675 63.8132 127.414 64.918C127.153 66.0227 127.837 67.1298 128.942 67.3907C130.047 67.6516 131.154 66.9674 131.415 65.8626Z" fill="white"/>
<path opacity="0.74" d="M154.06 94.0587C155.298 91.7844 157.615 90.1974 160.331 89.9475L160.521 78.5822C152.782 78.6322 146.125 83.1857 143.145 89.8358L154.06 94.0587Z" fill="white"/>
<path d="M162.5 90.0339C166.156 90.6665 168.998 93.7032 169.338 97.4028L180.543 98.0697C180.4 88.0824 172.632 79.7053 162.689 78.6862L162.5 90.0339Z" fill="white"/>
<path opacity="0.74" d="M169.253 99.5439C168.591 103.31 165.284 106.14 161.285 106.09C160.103 106.076 158.978 105.811 157.961 105.347L151.898 115.003C154.7 116.528 157.899 117.398 161.285 117.413C171.362 117.458 179.537 109.896 180.459 100.194L169.253 99.5439Z" fill="white"/>
<path opacity="0.74" d="M150.027 113.848L156.105 104.184C154.273 102.669 153.102 100.388 153.102 97.8548C153.102 97.2426 153.171 96.6477 153.301 96.0767L142.373 91.8668C141.798 93.6866 141.488 95.6272 141.488 97.6451C141.488 104.327 144.877 110.263 150.027 113.848Z" fill="white"/>
<path d="M195.765 94.9222C196.932 92.7132 199.116 91.1707 201.677 90.9262L201.856 79.8894C194.56 79.9449 188.285 84.3713 185.477 90.8291L195.765 94.9222Z" fill="white"/>
<path opacity="0.74" d="M203.723 91.0086C207.17 91.6207 209.852 94.5682 210.172 98.1612L220.744 98.8033C220.61 89.101 213.28 80.9697 203.901 79.9885L203.723 91.0086Z" fill="white"/>
<path opacity="0.74" d="M210.088 100.241C209.463 103.9 206.344 106.649 202.572 106.602C201.458 106.589 200.397 106.332 199.439 105.882L193.723 115.26C196.364 116.739 199.38 117.584 202.572 117.598C212.077 117.641 219.791 110.293 220.661 100.868L210.088 100.241Z" fill="white"/>
<path opacity="0.74" d="M191.961 114.137L197.691 104.753C195.964 103.282 194.86 101.069 194.86 98.6085C194.86 98.0142 194.925 97.4365 195.047 96.882L184.748 92.8014C184.206 94.5683 183.914 96.4521 183.914 98.411C183.914 104.898 187.107 110.659 191.961 114.137Z" fill="white"/>
<path opacity="0.74" d="M235.108 95.7368C236.21 93.5894 238.273 92.0891 240.692 91.8498L240.861 81.1232C233.971 81.1834 228.046 85.4896 225.395 91.766L235.108 95.7368Z" fill="white"/>
<path opacity="0.74" d="M242.625 91.9284C245.882 92.521 248.415 95.3844 248.718 98.8769L258.71 99.4959C258.583 90.0628 251.655 82.1633 242.793 81.2175L242.625 91.9284Z" fill="white"/>
<path d="M248.642 100.899C248.051 104.455 245.105 107.129 241.541 107.085C240.489 107.072 239.487 106.823 238.582 106.386L233.184 115.5C235.678 116.937 238.526 117.758 241.541 117.772C250.521 117.812 257.812 110.667 258.635 101.503L248.642 100.899Z" fill="white"/>
<path opacity="0.74" d="M231.518 114.41L236.929 105.289C235.298 103.861 234.256 101.71 234.256 99.3196C234.256 98.7419 234.317 98.1806 234.433 97.6417L224.709 93.6826C224.197 95.3995 223.922 97.2299 223.922 99.133C223.922 105.435 226.936 111.031 231.518 114.41Z" fill="white"/>
<path d="M261.033 180.185V198.87C261.033 201.791 258.664 204.16 255.743 204.16H230.152C227.151 204.16 224.719 201.727 224.719 198.727V170.594C224.719 168.226 227.642 167.109 229.22 168.874L234.166 174.401C236.069 176.529 239.292 176.828 241.554 175.087L242.028 174.723C243.773 173.38 246.219 173.44 247.897 174.867L250.605 177.169C252.69 178.942 255.603 179.371 258.111 178.274C259.489 177.671 261.033 178.681 261.033 180.185Z" fill="white"/>
<path d="M312.573 142.134H281.029C276.536 142.134 272.859 145.81 272.859 150.304C272.859 154.797 276.536 158.474 281.029 158.474H302.371L311.29 168.041V158.474H312.572C317.066 158.474 320.742 154.797 320.742 150.304C320.743 145.81 317.066 142.134 312.573 142.134Z" fill="#0054A6"/>
<path d="M282.312 147.8L283.125 149.448L284.944 149.713L283.628 150.995L283.939 152.807L282.312 151.952L280.685 152.807L280.996 150.995L279.68 149.713L281.498 149.448L282.312 147.8Z" fill="#FFDD33"/>
<path d="M289.558 147.8L290.372 149.449L292.19 149.713L290.874 150.996L291.185 152.807L289.558 151.952L287.931 152.807L288.242 150.996L286.926 149.713L288.745 149.449L289.558 147.8Z" fill="#FFDD33"/>
<path d="M296.801 147.8L297.614 149.449L299.433 149.713L298.117 150.996L298.427 152.807L296.801 151.952L295.174 152.807L295.484 150.996L294.168 149.713L295.987 149.449L296.801 147.8Z" fill="#FFDD33"/>
<path d="M304.046 147.8L304.86 149.449L306.679 149.713L305.363 150.996L305.673 152.807L304.046 151.952L302.419 152.807L302.73 150.996L301.414 149.713L303.233 149.449L304.046 147.8Z" fill="#FFDD33"/>
<path d="M311.293 147.8L312.106 149.449L313.925 149.713L312.609 150.996L312.92 152.807L311.293 151.952L309.666 152.807L309.976 150.996L308.66 149.713L310.479 149.449L311.293 147.8Z" fill="white"/>
<path d="M115.443 204.525C111.005 202.35 105.766 203.935 103.741 208.066C102.208 211.194 102.959 214.884 105.34 217.436L98.7429 230.895L99.1709 232.707L96.2633 234.286L96.8753 237.638L94.1953 238.505L95.89 242.754L107.62 218.825L108.573 219.292L96.4202 244.084L96.442 244.138C96.8691 245.208 98.4035 245.333 98.892 244.337L110.665 220.32C114.4 220.977 118.167 219.301 119.813 215.945C121.838 211.813 119.881 206.701 115.443 204.525ZM118.642 215.478C116.838 219.072 112.277 220.429 108.456 218.51C104.634 216.591 102.999 212.122 104.803 208.529C106.607 204.936 111.168 203.579 114.99 205.498C118.811 207.416 120.446 211.885 118.642 215.478Z" fill="#FFDD33"/>
<path d="M114.991 205.498C111.169 203.579 106.609 204.936 104.804 208.529C103 212.122 104.636 216.591 108.457 218.51C112.279 220.429 116.84 219.072 118.644 215.478C120.448 211.885 118.813 207.416 114.991 205.498ZM115.84 209.765C115.238 210.994 113.68 211.465 112.36 210.818C111.04 210.171 110.458 208.651 111.061 207.422C111.663 206.194 113.221 205.723 114.541 206.37C115.86 207.016 116.442 208.537 115.84 209.765Z" fill="#E0A524"/>
<path d="M79.4727 109.17C78.5097 106.847 79.6121 104.183 81.9352 103.22L79.6697 97.7556C74.3292 99.9697 71.7948 106.094 74.009 111.434C76.2231 116.775 90.8073 124.62 90.8073 124.62L85.4226 111.632C83.0998 112.594 80.4356 111.492 79.4727 109.17Z" fill="#053255"/>
<path d="M79.6719 97.7552L81.9372 103.219C84.2599 102.256 86.9241 103.358 87.8871 105.681C88.85 108.004 87.7479 110.668 85.4247 111.631L90.8094 124.619C90.8094 124.619 95.5647 108.757 93.3506 103.416C91.1365 98.0755 85.0124 95.5411 79.6719 97.7552Z" fill="#2F4B74"/>
<path d="M307.365 236.754L304.504 240.155L318.914 252.276L321.775 248.874L307.365 236.754Z" fill="#839299"/>
<path d="M309.899 233.75L307.367 236.76L321.777 248.88L324.308 245.871L309.899 233.75Z" fill="#839299"/>
<path d="M349.122 268.355C350.454 266.772 350.25 264.408 348.666 263.076L328.792 246.359C327.209 245.027 324.845 245.231 323.513 246.815L321.773 248.883L347.382 270.423L349.122 268.355Z" fill="#053255"/>
<path d="M321.771 248.882L319.548 251.525C318.216 253.109 318.419 255.472 320.003 256.804L339.877 273.521C341.461 274.853 343.824 274.65 345.156 273.066L347.38 270.423L321.771 248.882Z" fill="#002B49"/>
<path d="M303.51 193.438C296.921 187.896 288.568 185.251 279.99 185.991C271.407 186.734 263.635 190.768 258.092 197.357C252.55 203.946 249.905 212.299 250.646 220.878C251.386 229.456 255.422 237.233 262.012 242.775C268.6 248.318 276.954 250.962 285.532 250.222C285.911 250.19 286.286 250.151 286.661 250.105C294.791 249.121 302.132 245.155 307.43 238.857C312.972 232.267 315.617 223.914 314.877 215.336C314.136 206.757 310.099 198.981 303.51 193.438ZM286.065 245.418C270.982 247.243 257.275 236.495 255.449 221.411C253.624 206.328 264.372 192.621 279.455 190.796C294.538 188.971 308.246 199.718 310.071 214.802C311.896 229.885 301.149 243.592 286.065 245.418Z" fill="#053255"/>
<path d="M279.458 190.795C264.375 192.62 253.627 206.327 255.452 221.41C257.277 236.494 270.984 247.242 286.068 245.417C301.151 243.592 311.899 229.885 310.074 214.801C308.249 199.717 294.542 188.97 279.458 190.795ZM302.374 234.601C298.031 239.764 292.07 242.781 285.848 243.534C279.039 244.357 271.917 242.47 266.267 237.717C255.453 228.621 254.056 212.423 263.152 201.61C267.495 196.446 273.456 193.43 279.678 192.677C286.487 191.853 293.609 193.742 299.259 198.494C310.072 207.59 311.47 223.788 302.374 234.601Z" fill="#002B49"/>
<path opacity="0.5" d="M289.62 207.778C292.795 207.778 295.369 205.204 295.369 202.029C295.369 198.854 292.795 196.28 289.62 196.28C286.445 196.28 283.871 198.854 283.871 202.029C283.871 205.204 286.445 207.778 289.62 207.778Z" fill="white"/>
</g>
<defs>
<linearGradient id="paint0_linear_14658_14405" x1="123.857" y1="94.476" x2="304.036" y2="231.665" gradientUnits="userSpaceOnUse">
<stop stop-color="#2B3582"/>
<stop offset="1" stop-color="#150E42"/>
</linearGradient>
<clipPath id="clip0_14658_14405">
<rect width="420" height="311" fill="white"/>
</clipPath>
</defs>
</svg>
