<svg width="48" height="48" viewBox="0 0 48 48" fill="none" xmlns="http://www.w3.org/2000/svg">
<path fill-rule="evenodd" clip-rule="evenodd" d="M33.1984 19.1V29.2C33.1984 29.5 32.9984 29.7 32.7984 29.7H28.7984C28.5984 29.7 28.3984 29.5 28.3984 29.2V18.2C29.9984 18.9 31.5984 19.2 33.1984 19.1Z" fill="#0054A6"/>
<path fill-rule="evenodd" clip-rule="evenodd" d="M40.6008 16.8V29.3C40.6008 29.6 40.4008 29.8 40.2008 29.8H36.2008C36.0008 29.8 35.8008 29.6 35.8008 29.3V19.1C36.0008 19.1 36.2008 19 36.4008 18.9C37.9008 18.5 39.3008 17.7 40.6008 16.8Z" fill="#0054A6"/>
<path fill-rule="evenodd" clip-rule="evenodd" d="M46.0992 10.8H47.5992C47.7992 10.8 47.9992 11 47.9992 11.3V29.3C47.9992 29.6 47.7992 29.8 47.5992 29.8H43.5992C43.3992 29.8 43.1992 29.6 43.1992 29.3V15.3C44.2992 14 45.2992 12.5 46.0992 10.8Z" fill="#0054A6"/>
<path fill-rule="evenodd" clip-rule="evenodd" d="M45.9008 8.90001C44.4008 13.3 40.7008 16.6 36.2008 17.7C32.5008 18.6 28.7008 18 25.5008 16C25.5008 15.8 25.4008 15.5 25.3008 15.3C28.3008 16.5 31.7008 16.5 34.7008 15.2C38.2008 13.7 40.9008 10.8 42.0008 7.20001L40.5008 6.50001C40.4008 6.40001 40.3008 6.30001 40.2008 6.20001C40.2008 6.00001 40.2008 5.90001 40.4008 5.80001L43.4008 3.60001L46.4008 1.40001C46.5008 1.30001 46.7008 1.30001 46.8008 1.40001C46.9008 1.50001 47.0008 1.60001 47.1008 1.70001L47.5008 5.40001L48.0008 9.10001C48.0008 9.30001 48.0008 9.40001 47.8008 9.50001C47.7008 9.60001 47.5008 9.60001 47.4008 9.50001L45.9008 8.90001Z" fill="#54CC5A"/>
<path fill-rule="evenodd" clip-rule="evenodd" d="M16.5 33.4L18.2 34.3C18.4 34.4 18.3 34.7 18.2 34.9L17.8 35.9C17.8 36 17.7 36.1 17.7 36.3C17.7 36.4 17.6 36.5 17.4 36.5H15.7C15.6 36.5 15.5 36.4 15.4 36.3C15.4 36.2 15.3 36 15.3 36L14.8 34.9C14.7 34.7 14.6 34.4 14.8 34.3L16.5 33.4ZM25 40H27.4C27.6 40 27.7 40.1 27.7 40.3V41.5C27.7 42.3 27.1 42.9 26.3 42.9C25.5 42.9 24.9 42.3 24.9 41.5V40.3C24.8 40.2 24.9 40 25 40ZM17.7 37.3V37.4L17.8 37.6L18.5 40L18.8 45L20.9 38.6C21.5 37.5 21.7 36.8 21.7 35.6C21.7 34.5 21.7 33 21.6 31.3C21.6 31.1 21.7 31 21.9 31.1C26.7 31.8 30.9 31.6 32.4 36.8C32.7 37.7 33 45.2 33.3 46.6H0C0.3 45.2 0.7 37.7 0.9 36.8C2.2 32.2 7 31.1 11.4 31.1C11.5 31.1 11.5 31 11.6 31.1C11.7 31.1 11.7 31.2 11.7 31.3C11.6 32.9 11.5 34.5 11.6 35.6C11.6 36.8 11.8 37.5 12.4 38.6L14.5 45L14.8 40L15.5 37.6L15.6 37.5C15.6 37.5 15.6 37.4 15.6 37.3C15.6 37.2 15.7 37 15.9 37H17.5C17.5 37 17.6 37.1 17.7 37.3Z" fill="#002548"/>
<path d="M16.6992 30.4C21.6698 30.4 25.6992 26.3706 25.6992 21.4C25.6992 16.4295 21.6698 12.4 16.6992 12.4C11.7287 12.4 7.69922 16.4295 7.69922 21.4C7.69922 26.3706 11.7287 30.4 16.6992 30.4Z" fill="#FFBD86"/>
</svg>
