<svg width="48" height="48" viewBox="0 0 48 48" fill="none" xmlns="http://www.w3.org/2000/svg">
<g clip-path="url(#clip0_7492_16688)">
<rect width="48" height="48" fill="#ED1C24"/>
<path d="M24 48C37.2548 48 48 37.2548 48 24C48 10.7452 37.2548 0 24 0C10.7452 0 0 10.7452 0 24C0 37.2548 10.7452 48 24 48Z" fill="#002548"/>
<path d="M40.4443 11.9616V17.8272C40.4443 20.7552 38.0635 23.1456 35.1259 23.1456H26.1595L24.0091 26.544L23.9995 26.5728L21.8395 23.1552H12.8731C9.93549 23.1552 7.55469 20.7648 7.55469 17.8368V11.9712C7.55469 9.03363 9.93549 6.65283 12.8731 6.65283H35.1259C38.0635 6.65283 40.4443 9.02403 40.4443 11.9616Z" fill="#F9FAFB"/>
<path d="M29.1931 44.0161H18.8059C16.8475 44.0161 15.2539 42.4225 15.2539 40.4641C15.2539 37.4977 17.6539 35.0977 20.6203 35.0977H27.3787C30.3451 35.0977 32.7451 37.4977 32.7451 40.4641C32.7451 42.4321 31.1515 44.0161 29.1931 44.0161Z" fill="#0054A6"/>
<path d="M26.7378 11.2512C24.7986 10.5408 24.0018 12.4608 24.0018 12.4608C24.0018 12.4608 23.205 10.5408 21.2658 11.2512C19.2594 11.9808 18.5298 16.4832 24.0018 18.7008C29.4738 16.4832 28.7346 11.9808 26.7378 11.2512Z" fill="#ED1C24"/>
<path d="M14.696 11.4432L15.3584 12.7872C15.4448 12.9696 15.6272 13.0944 15.8288 13.1328L17.3168 13.344C17.8256 13.4208 18.0368 14.0448 17.6624 14.4096L16.5872 15.456C16.4432 15.6 16.376 15.8016 16.4048 16.0032L16.6544 17.4816C16.7408 17.9904 16.2032 18.3744 15.752 18.1344L14.4272 17.4336C14.2448 17.3376 14.024 17.3376 13.8512 17.4336L12.5264 18.1344C12.0656 18.3744 11.5376 17.9904 11.624 17.4816L11.8736 16.0032C11.912 15.8016 11.8448 15.5904 11.6912 15.456L10.616 14.4096C10.2416 14.0448 10.4528 13.4208 10.9616 13.344L12.4496 13.1328C12.6512 13.104 12.824 12.9792 12.92 12.7872L13.5824 11.4432C13.8128 10.9728 14.4656 10.9728 14.696 11.4432Z" fill="#FFDD33"/>
<path d="M24.0005 36.5184C26.7363 36.5184 28.9541 34.3006 28.9541 31.5648C28.9541 28.829 26.7363 26.6112 24.0005 26.6112C21.2647 26.6112 19.0469 28.829 19.0469 31.5648C19.0469 34.3006 21.2647 36.5184 24.0005 36.5184Z" fill="#FED2A4"/>
<path d="M34.8205 14.1889C34.7245 14.1505 34.6189 14.1217 34.5133 14.0833V12.1537C34.6765 12.2305 34.7725 12.3073 34.7821 12.3169L34.7725 12.3073L35.7229 11.2705C35.4925 11.0593 35.0605 10.8001 34.5037 10.6753V9.65765H33.1021V10.7233C33.0733 10.7329 33.0445 10.7425 33.0253 10.7425C32.2381 10.9825 31.6525 11.6545 31.4893 12.4897C31.3453 13.2673 31.5949 14.0161 32.1517 14.4481C32.4013 14.6401 32.6989 14.8225 33.1021 15.0049V17.6257C32.8525 17.5777 32.6413 17.4817 32.3341 17.2801L31.7485 16.8961L30.9805 18.0769L31.5661 18.4609C32.1517 18.8449 32.5837 18.9985 33.1117 19.0465V20.1025H34.5133V18.9793C35.5885 18.6913 36.2701 17.7601 36.4237 16.8481C36.6349 15.6769 35.9821 14.6017 34.8205 14.1889ZM33.0253 13.3633C32.8909 13.2577 32.8333 13.0273 32.8813 12.7681C32.9101 12.6145 32.9869 12.4417 33.1117 12.3073V13.4209C33.0829 13.4017 33.0541 13.3825 33.0253 13.3633ZM35.0413 16.6369C34.9933 16.9441 34.8109 17.2609 34.5133 17.4721V15.5905C35.0989 15.8785 35.0797 16.4065 35.0413 16.6369Z" fill="#54CC5A"/>
</g>
<defs>
<clipPath id="clip0_7492_16688">
<rect width="48" height="48" fill="white"/>
</clipPath>
</defs>
</svg>
