<svg width="497" height="376" viewBox="0 0 497 376" fill="none" xmlns="http://www.w3.org/2000/svg">
<path d="M313.3 90.2L313.5 103.9L314 147.7L314.6 197.7L316.3 341.3C316.3 344 314.3 346 311.7 346H160.3C157.2 346 154.4 343.2 154.4 340.1L154.1 318L153.6 275.5L152.2 161.9L151.3 89C151.3 86.3 153.3 84.3 155.9 84.3H307.3C310.5 84.2 313.3 87 313.3 90.2Z" fill="#D2D9DC"/>
<path d="M239.7 103.3L239.3 125L238.8 153.1C238.8 154.7 237.5 156 235.8 156H171.2C169.1 156 167.2 154.2 167.3 152.1L167.8 125L168.1 107.7L168.2 102.4C168.2 100.8 169.5 99.5 171.2 99.5H235.8C236.1 99.5 236.4 99.5 236.7 99.6C238.4 100 239.8 101.6 239.7 103.3Z" fill="#839299"/>
<g opacity="0.19">
<path d="M204.3 178.5L204.1 189.9L203.9 204.7C203.9 205.6 203.2 206.2 202.3 206.2H168.2C167.1 206.2 166.1 205.2 166.1 204.2L166.3 189.9L166.5 180.7V177.9C166.5 177 167.2 176.4 168.1 176.4H202.2C202.4 176.4 202.5 176.4 202.7 176.5C203.6 176.7 204.3 177.6 204.3 178.5Z" fill="#2D2F31"/>
</g>
<g opacity="0.19">
<path d="M251.5 178.5L251.3 189.9L251.1 204.7C251.1 205.6 250.4 206.2 249.5 206.2H215.4C214.3 206.2 213.3 205.2 213.3 204.2L213.5 189.9L213.7 180.7V177.9C213.7 177 214.4 176.4 215.3 176.4H249.4C249.6 176.4 249.7 176.4 249.9 176.5C250.8 176.7 251.5 177.6 251.5 178.5Z" fill="#2D2F31"/>
</g>
<g opacity="0.19">
<path d="M298.7 178.5L298.5 189.9L298.3 204.7C298.3 205.6 297.6 206.2 296.7 206.2H262.6C261.5 206.2 260.5 205.2 260.5 204.2L260.7 189.9L260.9 180.7V177.9C260.9 177 261.6 176.4 262.5 176.4H296.6C296.8 176.4 296.9 176.4 297.1 176.5C298 176.7 298.7 177.6 298.7 178.5Z" fill="#2D2F31"/>
</g>
<path d="M295.5 115.1H259C258.2 115.1 257.4 114.4 257.5 113.5C257.5 112.8 258 112.3 258.7 112.3H295.1C295.9 112.3 296.7 113 296.6 113.9C296.7 114.6 296.1 115.1 295.5 115.1Z" fill="#F9FAFB"/>
<path d="M295.1 129.3H258.7C257.9 129.3 257.1 128.6 257.2 127.7C257.2 127 257.7 126.5 258.4 126.5H294.8C295.6 126.5 296.4 127.2 296.3 128.1C296.2 128.8 295.7 129.3 295.1 129.3Z" fill="#F9FAFB"/>
<path d="M294.6 143.4H258.2C257.4 143.4 256.6 142.7 256.7 141.8C256.7 141.1 257.2 140.6 257.9 140.6H294.3C295.1 140.6 295.9 141.3 295.8 142.2C295.8 142.9 295.3 143.4 294.6 143.4Z" fill="#F9FAFB"/>
<path d="M244.3 257.1H181.3C180.8 257.1 180.4 256.4 180.4 255.6C180.4 254.9 180.7 254.4 181.1 254.4H244.1C244.6 254.4 245 255.1 245 255.9C245 256.5 244.7 257.1 244.3 257.1Z" fill="#F9FAFB"/>
<path d="M244.3 245.6H181.3C180.8 245.6 180.4 244.9 180.4 244.1C180.4 243.4 180.7 242.9 181.1 242.9H244.1C244.6 242.9 245 243.6 245 244.4C245 245 244.7 245.6 244.3 245.6Z" fill="#F9FAFB"/>
<path d="M243.9 266.4H180.9C180.4 266.4 180 265.7 180 264.9C180 264.2 180.3 263.7 180.7 263.7H243.7C244.2 263.7 244.6 264.4 244.6 265.2C244.7 265.9 244.3 266.4 243.9 266.4Z" fill="#F9FAFB"/>
<path d="M190.5 196.7H115.8C114.1 196.7 112.8 195.3 112.8 193.7V170.3C112.8 168.6 114.2 167.3 115.8 167.3H190.5C192.2 167.3 193.5 168.7 193.5 170.3V193.7C193.5 195.4 192.2 196.7 190.5 196.7Z" fill="url(#paint0_linear_5494_16796)"/>
<path d="M136.7 193.6H120.2C118.5 193.6 117.1 192.2 117.1 190.5V173.5C117.1 171.8 118.5 170.4 120.2 170.4H136.7C138.4 170.4 139.8 171.8 139.8 173.5V190.5C139.7 192.2 138.4 193.6 136.7 193.6Z" fill="#0054A6"/>
<path d="M183.8 174.5H144.9C144.4 174.5 144 174.1 144 173.6C144 173.1 144.4 172.7 144.9 172.7H183.8C184.3 172.7 184.7 173.1 184.7 173.6C184.7 174.2 184.3 174.5 183.8 174.5Z" fill="#D2D9DC"/>
<path d="M183.8 179.9H144.9C144.4 179.9 144 179.5 144 179C144 178.5 144.4 178.1 144.9 178.1H183.8C184.3 178.1 184.7 178.5 184.7 179C184.7 179.5 184.3 179.9 183.8 179.9Z" fill="#D2D9DC"/>
<path d="M183.8 185.2H144.9C144.4 185.2 144 184.8 144 184.3C144 183.8 144.4 183.4 144.9 183.4H183.8C184.3 183.4 184.7 183.8 184.7 184.3C184.7 184.9 184.3 185.2 183.8 185.2Z" fill="#D2D9DC"/>
<path d="M171.1 190.6H144.9C144.4 190.6 144 190.2 144 189.7C144 189.2 144.4 188.8 144.9 188.8H171.1C171.6 188.8 172 189.2 172 189.7C172 190.2 171.6 190.6 171.1 190.6Z" fill="#D2D9DC"/>
<path d="M216.7 319H185.8C180.4 319 176.6 314.3 177.8 309.2C178.7 305.3 182.4 302.5 186.5 302.5H217.4C222.8 302.5 226.6 307.2 225.4 312.3C224.5 316.2 220.8 319 216.7 319Z" fill="#ED1C24"/>
<path d="M201.5 305.4C198.5 305.4 196.2 307.8 196.3 310.8C196.4 313.8 198.8 316.2 201.8 316.2C204.8 316.2 207.1 313.8 207 310.8C206.9 307.8 204.4 305.4 201.5 305.4ZM201.7 315C199.4 315 197.5 313.1 197.4 310.8C197.3 308.5 199.2 306.6 201.5 306.6C203.8 306.6 205.7 308.5 205.8 310.8C205.9 313.1 204.1 315 201.7 315Z" fill="white"/>
<path d="M288.6 319H257.7C252.3 319 248.5 314.3 249.7 309.2C250.6 305.3 254.3 302.5 258.4 302.5H289.3C294.7 302.5 298.5 307.2 297.3 312.3C296.3 316.2 292.7 319 288.6 319Z" fill="#54CC5A"/>
<path d="M264.6 310.5L268.2 316.1L282.4 306.8L281.7 305.4L268.7 313.8L265.8 309.4L264.6 310.5Z" fill="white"/>
<path d="M159.8 226.3V303.9C159.8 306.1 158 307.9 155.8 307.9H76.7998C74.5998 307.9 72.7998 306.1 72.7998 303.9V226.3C72.7998 224.1 74.5998 222.3 76.7998 222.3H155.8C158 222.3 159.8 224 159.8 226.3Z" fill="#0054A6"/>
<path d="M159.8 226.3V233.4H72.7998V226.3C72.7998 224.1 74.5998 222.3 76.7998 222.3H155.8C158 222.3 159.8 224 159.8 226.3Z" fill="#002548"/>
<path d="M78.7997 229.9C79.9595 229.9 80.8997 228.96 80.8997 227.8C80.8997 226.64 79.9595 225.7 78.7997 225.7C77.6399 225.7 76.6997 226.64 76.6997 227.8C76.6997 228.96 77.6399 229.9 78.7997 229.9Z" fill="#ED1C24"/>
<path d="M87.4999 229.9C88.6597 229.9 89.5999 228.96 89.5999 227.8C89.5999 226.64 88.6597 225.7 87.4999 225.7C86.3401 225.7 85.3999 226.64 85.3999 227.8C85.3999 228.96 86.3401 229.9 87.4999 229.9Z" fill="#FFDD33"/>
<path d="M96.1996 229.9C97.3594 229.9 98.2996 228.96 98.2996 227.8C98.2996 226.64 97.3594 225.7 96.1996 225.7C95.0398 225.7 94.0996 226.64 94.0996 227.8C94.0996 228.96 95.0398 229.9 96.1996 229.9Z" fill="#54CC5A"/>
<path d="M135.6 250.9C125 240.3 107.8 240.3 97.2 250.9C86.6 261.5 86.6 278.7 97.2 289.3C107.8 299.9 125 299.9 135.6 289.3C146.2 278.7 146.2 261.5 135.6 250.9ZM101.7 284.7C93.6 276.6 93.6 263.6 101.7 255.5C109.8 247.4 122.8 247.4 130.9 255.5C139 263.6 139 276.6 130.9 284.7C122.9 292.8 109.8 292.7 101.7 284.7Z" fill="url(#paint1_linear_5494_16796)"/>
<path d="M101.4 291.4L95 285L131.3 248.8L137.7 255.2L101.4 291.4Z" fill="url(#paint2_linear_5494_16796)"/>
<path d="M208.3 37.5V132.1C208.3 136.2 204.9 139.6 200.8 139.6H123.9C119.8 139.6 116.4 136.2 116.4 132.1V37.5C116.4 33.4 119.8 30 123.9 30H200.8C204.9 30 208.3 33.4 208.3 37.5Z" fill="#0054A6"/>
<path d="M208.3 37.5V43.4H116.4V37.5C116.4 33.4 119.8 30 123.9 30H200.8C204.9 30 208.3 33.4 208.3 37.5Z" fill="#002548"/>
<path d="M126.4 39.4001C128.002 39.4001 129.3 38.1017 129.3 36.5001C129.3 34.8985 128.002 33.6001 126.4 33.6001C124.798 33.6001 123.5 34.8985 123.5 36.5001C123.5 38.1017 124.798 39.4001 126.4 39.4001Z" fill="#ED1C24"/>
<path d="M138.1 39.4001C139.701 39.4001 141 38.1017 141 36.5001C141 34.8985 139.701 33.6001 138.1 33.6001C136.498 33.6001 135.2 34.8985 135.2 36.5001C135.2 38.1017 136.498 39.4001 138.1 39.4001Z" fill="#FFDD33"/>
<path d="M149.9 39.4001C151.502 39.4001 152.8 38.1017 152.8 36.5001C152.8 34.8985 151.502 33.6001 149.9 33.6001C148.298 33.6001 147 34.8985 147 36.5001C147 38.1017 148.298 39.4001 149.9 39.4001Z" fill="#54CC5A"/>
<g opacity="0.19">
<path d="M135.6 124.3C134 124.3 132.7 123 132.7 121.4C132.7 119.8 134 118.5 135.6 118.5C137.2 118.5 138.5 119.8 138.5 121.4C138.5 123 137.2 124.3 135.6 124.3Z" fill="#F9FAFB"/>
<path d="M186.7 122.7H144.7C144 122.7 143.4 122.1 143.4 121.4C143.4 120.7 144 120.1 144.7 120.1H186.7C187.4 120.1 188 120.7 188 121.4C188.1 122.1 187.5 122.7 186.7 122.7Z" fill="#F9FAFB"/>
</g>
<path d="M162.6 107.2C155.2 107.2 148.5 104 143.9 98.9002C139.8 94.4002 137.3 88.5002 137.3 81.9002C137.3 68.0002 148.6 56.7002 162.6 56.7002C176.6 56.7002 187.8 68.0002 187.8 81.9002C187.9 95.9002 176.6 107.2 162.6 107.2Z" fill="#D2D9DC"/>
<path d="M162.6 107.2V81.8999H187.8C187.8 85.9999 186.8 89.7999 185.1 93.1999C181 101.5 172.5 107.2 162.6 107.2Z" fill="#FFDD33"/>
<path d="M162.6 107.2C155.2 107.2 148.5 104 143.9 98.8999L162.6 81.8999V107.2Z" fill="#839299"/>
<path d="M424.1 146.5V262.5C424.1 265.2 421.9 267.4 419.2 267.4H329.1C326.4 267.4 324.2 265.2 324.2 262.5V146.5C324.2 143.8 326.4 141.6 329.1 141.6H419.2C421.9 141.6 424.1 143.7 424.1 146.5Z" fill="#D2D9DC"/>
<path d="M424.1 146.5V152.5H324.2V146.5C324.2 143.8 326.4 141.6 329.1 141.6H419.2C421.9 141.6 424.1 143.7 424.1 146.5Z" fill="#002548"/>
<path d="M333.142 147.287C333.434 146.051 332.669 144.812 331.433 144.521C330.196 144.229 328.958 144.994 328.666 146.23C328.374 147.467 329.139 148.705 330.376 148.997C331.612 149.289 332.851 148.524 333.142 147.287Z" fill="#ED1C24"/>
<path d="M342.664 147.314C342.956 146.078 342.19 144.839 340.954 144.547C339.718 144.256 338.479 145.021 338.187 146.257C337.895 147.493 338.661 148.732 339.897 149.024C341.133 149.316 342.372 148.551 342.664 147.314Z" fill="#FFDD33"/>
<path d="M350 149C351.27 149 352.3 147.97 352.3 146.7C352.3 145.43 351.27 144.4 350 144.4C348.729 144.4 347.7 145.43 347.7 146.7C347.7 147.97 348.729 149 350 149Z" fill="#54CC5A"/>
<path d="M387.4 252H360.9C358.1 252 355.9 249.8 355.9 247C355.9 244.2 358.1 242 360.9 242H387.4C390.2 242 392.4 244.2 392.4 247C392.4 249.8 390.2 252 387.4 252Z" fill="#54CC5A"/>
<path d="M400.4 194.5H347.9V225.7H400.4V194.5Z" fill="#ED1C24"/>
<path d="M400.4 182H347.9V194.5H400.4V182Z" fill="#ED1C24"/>
<path d="M380.7 182H367.6V194.5H380.7V182Z" fill="#FFDD33"/>
<path opacity="0.19" d="M400.4 194.5H347.9V198.1H400.4V194.5Z" fill="#2D2F31"/>
<path d="M374.2 182L385.8 173C387.7 171.5 390.2 173.1 390.2 175.8V176.8C390.2 179.7 388.2 182 385.8 182H374.2Z" fill="#FFDD33"/>
<path d="M374.2 182L362.6 173C360.7 171.5 358.2 173.1 358.2 175.8V176.8C358.2 179.7 360.2 182 362.6 182H374.2Z" fill="#FFDD33"/>
<path d="M379.5 198.1H368.8V225.8H379.5V198.1Z" fill="#FFDD33"/>
<path d="M379.5 194.5H368.8V198.1H379.5V194.5Z" fill="#FFDD33"/>
<path d="M297.8 282.3H181.3C179.6 282.3 178.3 280.9 178.3 279.3V240.7C178.3 239 179.7 237.7 181.3 237.7H297.8C299.5 237.7 300.8 239.1 300.8 240.7V279.3C300.9 280.9 299.5 282.3 297.8 282.3Z" fill="url(#paint3_linear_5494_16796)"/>
<path d="M216.2 277.5H187.9C186.2 277.5 184.8 276.1 184.8 274.4V245.4C184.8 243.7 186.2 242.3 187.9 242.3H216.2C217.9 242.3 219.3 243.7 219.3 245.4V274.4C219.3 276.1 217.9 277.5 216.2 277.5Z" fill="#0054A6"/>
<path d="M286.1 248.6H227.1C226.4 248.6 225.8 248 225.8 247.2C225.8 246.5 226.4 245.9 227.1 245.9H286.1C286.8 245.9 287.4 246.5 287.4 247.3C287.4 248 286.8 248.6 286.1 248.6Z" fill="#D2D9DC"/>
<path d="M286.1 256.7H227.1C226.4 256.7 225.8 256.1 225.8 255.3C225.8 254.6 226.4 254 227.1 254H286.1C286.8 254 287.4 254.6 287.4 255.4C287.4 256.1 286.8 256.7 286.1 256.7Z" fill="#D2D9DC"/>
<path d="M286.1 264.8H227.1C226.4 264.8 225.8 264.2 225.8 263.4C225.8 262.7 226.4 262.1 227.1 262.1H286.1C286.8 262.1 287.4 262.7 287.4 263.5C287.4 264.2 286.8 264.8 286.1 264.8Z" fill="#D2D9DC"/>
<path d="M266.9 272.9H227.1C226.4 272.9 225.8 272.3 225.8 271.5C225.8 270.8 226.4 270.2 227.1 270.2H266.9C267.6 270.2 268.2 270.8 268.2 271.6C268.2 272.4 267.6 272.9 266.9 272.9Z" fill="#D2D9DC"/>
<defs>
<linearGradient id="paint0_linear_5494_16796" x1="156.074" y1="187.742" x2="185.809" y2="245.623" gradientUnits="userSpaceOnUse">
<stop stop-color="white"/>
<stop offset="1" stop-color="#E6E7E8"/>
</linearGradient>
<linearGradient id="paint1_linear_5494_16796" x1="89.1639" y1="270.077" x2="143.51" y2="270.077" gradientUnits="userSpaceOnUse">
<stop stop-color="white"/>
<stop offset="1" stop-color="#E6E7E8"/>
</linearGradient>
<linearGradient id="paint2_linear_5494_16796" x1="95.0136" y1="270.077" x2="137.666" y2="270.077" gradientUnits="userSpaceOnUse">
<stop stop-color="white"/>
<stop offset="1" stop-color="#E6E7E8"/>
</linearGradient>
<linearGradient id="paint3_linear_5494_16796" x1="244.099" y1="268.705" x2="289.755" y2="357.577" gradientUnits="userSpaceOnUse">
<stop stop-color="white"/>
<stop offset="1" stop-color="#E6E7E8"/>
</linearGradient>
</defs>
</svg>
