<svg width="24" height="24" viewBox="0 0 24 24" fill="none" xmlns="http://www.w3.org/2000/svg">
<path d="M19.1707 12.9661V17.9134H16.3024V13.2976C16.3024 12.1387 15.8883 11.3472 14.8497 11.3472C14.0572 11.3472 13.5864 11.88 13.3785 12.396C13.3029 12.5804 13.2835 12.8364 13.2835 13.0951V17.9132H10.4149C10.4149 17.9132 10.4534 10.0956 10.4149 9.28637H13.2837V10.5089C13.2779 10.5185 13.2698 10.5279 13.2647 10.5371H13.2837V10.5089C13.6649 9.92233 14.3447 9.08379 15.8688 9.08379C17.7559 9.08379 19.1707 10.3168 19.1707 12.9661ZM7.41417 5.12793C6.43296 5.12793 5.79102 5.77202 5.79102 6.61825C5.79102 7.44652 6.41435 8.10921 7.37653 8.10921H7.39514C8.3956 8.10921 9.01765 7.44652 9.01765 6.61825C8.99862 5.77202 8.3956 5.12793 7.41417 5.12793ZM5.9615 17.9134H8.82898V9.28637H5.9615V17.9134Z" fill="#7C8EA1"/>
</svg>
