<svg width="50" height="62" viewBox="0 0 50 62" fill="none" xmlns="http://www.w3.org/2000/svg">
<g clip-path="url(#clip0_6642_28026)">
<path d="M36.6364 0H13.3636C10.9537 0 9 1.95367 9 4.36364V27.6364C9 30.0463 10.9537 32 13.3636 32H36.6364C39.0463 32 41 30.0463 41 27.6364V4.36364C41 1.95367 39.0463 0 36.6364 0Z" fill="#0077B5"/>
<path d="M20.5268 8.72727C20.5268 9.26668 20.3669 9.79397 20.0672 10.2425C19.7675 10.691 19.3416 11.0405 18.8432 11.2469C18.3449 11.4534 17.7965 11.5074 17.2675 11.4021C16.7384 11.2969 16.2525 11.0372 15.8711 10.6557C15.4897 10.2743 15.2299 9.78838 15.1247 9.25934C15.0194 8.7303 15.0734 8.18194 15.2799 7.68359C15.4863 7.18525 15.8359 6.7593 16.2843 6.45963C16.7328 6.15995 17.2601 6 17.7995 6C18.5229 6 19.2166 6.28734 19.728 6.7988C20.2395 7.31026 20.5268 8.00396 20.5268 8.72727Z" fill="white"/>
<path d="M19.9091 13.2721V25.3212C19.9095 25.41 19.8924 25.4982 19.8588 25.5804C19.8251 25.6627 19.7755 25.7375 19.7128 25.8005C19.6501 25.8635 19.5756 25.9135 19.4935 25.9476C19.4114 25.9818 19.3234 25.9993 19.2345 25.9993H16.36C16.2711 25.9996 16.183 25.9822 16.1008 25.9483C16.0187 25.9144 15.944 25.8646 15.8812 25.8018C15.8183 25.7389 15.7685 25.6643 15.7346 25.5821C15.7007 25.4999 15.6834 25.4119 15.6836 25.323V13.2721C15.6836 13.0927 15.7549 12.9206 15.8817 12.7938C16.0085 12.667 16.1806 12.5957 16.36 12.5957H19.2345C19.4136 12.5962 19.5851 12.6677 19.7116 12.7944C19.838 12.9212 19.9091 13.093 19.9091 13.2721Z" fill="white"/>
<path d="M34.9343 19.5456V25.3783C34.9346 25.46 34.9186 25.541 34.8875 25.6165C34.8563 25.6921 34.8105 25.7607 34.7527 25.8185C34.6949 25.8763 34.6263 25.9221 34.5507 25.9533C34.4752 25.9844 34.3942 26.0004 34.3125 26.0001H31.2216C31.1399 26.0004 31.0589 25.9844 30.9833 25.9533C30.9078 25.9221 30.8392 25.8763 30.7814 25.8185C30.7236 25.7607 30.6778 25.6921 30.6466 25.6165C30.6155 25.541 30.5995 25.46 30.5998 25.3783V19.7256C30.5998 18.8819 30.847 16.031 28.3943 16.031C26.4943 16.031 26.107 17.9819 26.0307 18.8583V25.3783C26.0307 25.5417 25.9664 25.6985 25.8518 25.8148C25.7371 25.9312 25.5813 25.9977 25.418 26.0001H22.4325C22.3509 26.0001 22.2702 25.984 22.1948 25.9528C22.1195 25.9215 22.051 25.8756 21.9935 25.8179C21.9359 25.7601 21.8902 25.6916 21.8592 25.6161C21.8281 25.5407 21.8123 25.4599 21.8125 25.3783V13.2201C21.8123 13.1385 21.8281 13.0577 21.8592 12.9823C21.8902 12.9069 21.9359 12.8383 21.9935 12.7805C22.051 12.7228 22.1195 12.6769 22.1948 12.6457C22.2702 12.6144 22.3509 12.5983 22.4325 12.5983H25.418C25.5829 12.5983 25.741 12.6638 25.8576 12.7804C25.9743 12.897 26.0398 13.0552 26.0398 13.2201V14.271C26.7452 13.2128 27.7907 12.3965 30.0216 12.3965C34.9634 12.3965 34.9343 17.011 34.9343 19.5456Z" fill="white"/>
</g>
<path d="M0.910156 58V47.8145H2.14062V56.9062H6.88477V58H0.910156ZM7.97852 58V50.3574H9.14062V58H7.97852ZM8.56641 49.0859C8.33854 49.0859 8.14258 49.0085 7.97852 48.8535C7.81445 48.6986 7.73242 48.5117 7.73242 48.293C7.73242 48.0742 7.81445 47.8874 7.97852 47.7324C8.14258 47.5775 8.33854 47.5 8.56641 47.5C8.79427 47.5 8.99023 47.5775 9.1543 47.7324C9.31836 47.8874 9.40039 48.0742 9.40039 48.293C9.40039 48.5117 9.31836 48.6986 9.1543 48.8535C8.99023 49.0085 8.79427 49.0859 8.56641 49.0859ZM11.8066 53.4062V58H10.6445V50.3574H11.7656V51.5605H11.875C12.0527 51.1686 12.3239 50.8542 12.6885 50.6172C13.0531 50.3802 13.5247 50.2617 14.1035 50.2617C14.6185 50.2617 15.0697 50.3665 15.457 50.5762C15.8444 50.7858 16.1452 51.1048 16.3594 51.5332C16.5781 51.957 16.6875 52.4948 16.6875 53.1465V58H15.5254V53.2285C15.5254 52.6315 15.3682 52.1644 15.0537 51.8271C14.7393 51.4854 14.3109 51.3145 13.7686 51.3145C13.3949 51.3145 13.0599 51.3965 12.7637 51.5605C12.4674 51.7246 12.2327 51.9616 12.0596 52.2715C11.891 52.5814 11.8066 52.9596 11.8066 53.4062ZM19.2852 55.2109L19.2578 53.7617H19.5039L22.8398 50.3574H24.2891L20.7344 53.9668H20.625L19.2852 55.2109ZM18.1914 58V47.8145H19.3535V58H18.1914ZM23.0312 58L20.0508 54.2266L20.8848 53.4062L24.5352 58H23.0312ZM28.0352 58.1641C27.3014 58.1641 26.6657 58 26.1279 57.6719C25.5947 57.3438 25.1846 56.8857 24.8975 56.2979C24.6104 55.7054 24.4668 55.0195 24.4668 54.2402C24.4668 53.4564 24.6081 52.766 24.8906 52.1689C25.1732 51.5719 25.5697 51.1048 26.0801 50.7676C26.5951 50.4303 27.1966 50.2617 27.8848 50.2617C28.2812 50.2617 28.6755 50.3278 29.0674 50.46C29.4593 50.5921 29.8148 50.8063 30.1338 51.1025C30.4574 51.3988 30.7148 51.7907 30.9062 52.2783C31.0977 52.766 31.1934 53.3652 31.1934 54.0762V54.582H25.3008V53.5703H30.5576L30.0176 53.9531C30.0176 53.4427 29.9378 52.9893 29.7783 52.5928C29.6188 52.1963 29.3796 51.8841 29.0605 51.6562C28.7461 51.4284 28.3542 51.3145 27.8848 51.3145C27.4154 51.3145 27.012 51.4307 26.6748 51.6631C26.3421 51.891 26.0869 52.1895 25.9092 52.5586C25.7314 52.9277 25.6426 53.3242 25.6426 53.748V54.418C25.6426 54.9967 25.7428 55.4867 25.9434 55.8877C26.1439 56.2887 26.4242 56.5941 26.7842 56.8037C27.1442 57.0088 27.5612 57.1113 28.0352 57.1113C28.3405 57.1113 28.6185 57.068 28.8691 56.9814C29.1198 56.8903 29.3363 56.7559 29.5186 56.5781C29.7008 56.3958 29.8398 56.1725 29.9355 55.9082L31.0703 56.2363C30.9518 56.6191 30.7513 56.9564 30.4688 57.248C30.1908 57.5352 29.8444 57.7607 29.4297 57.9248C29.015 58.0843 28.5501 58.1641 28.0352 58.1641ZM35.1719 58.1641C34.5339 58.1641 33.971 58.0023 33.4834 57.6787C32.9958 57.3551 32.6152 56.8971 32.3418 56.3047C32.0684 55.7077 31.9316 55.0059 31.9316 54.1992C31.9316 53.3971 32.0684 52.7021 32.3418 52.1143C32.6198 51.5218 33.0026 51.0661 33.4902 50.7471C33.9779 50.4235 34.543 50.2617 35.1855 50.2617C35.6868 50.2617 36.0811 50.3438 36.3682 50.5078C36.6598 50.6719 36.8831 50.8587 37.0381 51.0684C37.193 51.2734 37.3138 51.4421 37.4004 51.5742H37.4961V47.8145H38.6582V58H37.5371V56.8242H37.4004C37.3138 56.9609 37.1908 57.1364 37.0312 57.3506C36.8717 57.5602 36.6439 57.7493 36.3477 57.918C36.056 58.082 35.6641 58.1641 35.1719 58.1641ZM35.3223 57.1113C35.7962 57.1113 36.195 56.9883 36.5186 56.7422C36.8421 56.4915 37.0882 56.1475 37.2568 55.71C37.4255 55.2679 37.5098 54.7598 37.5098 54.1855C37.5098 53.6113 37.4277 53.11 37.2637 52.6816C37.0996 52.2487 36.8535 51.9137 36.5254 51.6768C36.2018 51.4352 35.8008 51.3145 35.3223 51.3145C34.8301 51.3145 34.4199 51.4421 34.0918 51.6973C33.7637 51.9525 33.5176 52.2965 33.3535 52.7295C33.1895 53.1624 33.1074 53.6478 33.1074 54.1855C33.1074 54.7279 33.1895 55.2201 33.3535 55.6621C33.5221 56.1042 33.7705 56.4574 34.0986 56.7217C34.4268 56.9814 34.8346 57.1113 35.3223 57.1113ZM41.543 47.8145V58H40.3125V47.8145H41.543ZM44.3594 53.4062V58H43.1973V50.3574H44.3184V51.5605H44.4277C44.6055 51.1686 44.8766 50.8542 45.2412 50.6172C45.6058 50.3802 46.0775 50.2617 46.6562 50.2617C47.1712 50.2617 47.6224 50.3665 48.0098 50.5762C48.3971 50.7858 48.6979 51.1048 48.9121 51.5332C49.1309 51.957 49.2402 52.4948 49.2402 53.1465V58H48.0781V53.2285C48.0781 52.6315 47.9209 52.1644 47.6064 51.8271C47.292 51.4854 46.8636 51.3145 46.3213 51.3145C45.9476 51.3145 45.6126 51.3965 45.3164 51.5605C45.0202 51.7246 44.7855 51.9616 44.6123 52.2715C44.4437 52.5814 44.3594 52.9596 44.3594 53.4062Z" fill="#7C8EA1"/>
<defs>
<clipPath id="clip0_6642_28026">
<rect width="32" height="32" fill="white" transform="translate(9)"/>
</clipPath>
</defs>
</svg>
