<svg width="24" height="24" viewBox="0 0 24 24" fill="none" xmlns="http://www.w3.org/2000/svg">
<g clip-path="url(#clip0_7865_32692)">
<path d="M19.1688 12.9653V17.9127H16.3005V13.2969C16.3005 12.1379 15.8863 11.3465 14.8478 11.3465C14.0552 11.3465 13.5844 11.8793 13.3765 12.3953C13.301 12.5797 13.2815 12.8357 13.2815 13.0943V17.9125H10.413C10.413 17.9125 10.4515 10.0949 10.413 9.28563H13.2817V10.5081C13.276 10.5178 13.2678 10.5272 13.2627 10.5364H13.2817V10.5081C13.6629 9.92159 14.3427 9.08306 15.8669 9.08306C17.754 9.08306 19.1688 10.316 19.1688 12.9653ZM7.41222 5.1272C6.43101 5.1272 5.78906 5.77128 5.78906 6.61752C5.78906 7.44578 6.4124 8.10848 7.37457 8.10848H7.39318C8.39365 8.10848 9.0157 7.44578 9.0157 6.61752C8.99666 5.77128 8.39365 5.1272 7.41222 5.1272ZM5.95955 17.9127H8.82703V9.28563H5.95955V17.9127Z" fill="#7C8EA1"/>
</g>
<defs>
<clipPath id="clip0_7865_32692">
<rect width="24" height="24" fill="white"/>
</clipPath>
</defs>
</svg>
