<svg width="114" height="114" viewBox="0 0 114 114" fill="none" xmlns="http://www.w3.org/2000/svg">
<path d="M35.4478 16H78.6435C80.0114 16 81.0913 17.0799 81.0913 18.4478V95.5522C81.0913 96.9201 80.0114 98 78.6435 98H35.4478C34.0799 98 33 96.9201 33 95.5522V18.4478C33 17.0799 34.0799 16 35.4478 16Z" fill="#D2D9DC"/>
<path d="M33 21.6873H81.0913V89.5766H33V21.6873Z" fill="#0054A6"/>
<path d="M62.7327 95.2642H51.3578C50.5659 95.2642 49.918 94.6163 49.918 93.8244C49.918 93.0325 50.5659 92.3845 51.3578 92.3845H62.6607C63.4527 92.3845 64.1006 93.0325 64.1006 93.8244C64.1006 94.6163 63.4527 95.2642 62.7327 95.2642Z" fill="#839299"/>
<path d="M47.1094 65.5312H66.9074V79.7139H47.1094V65.5312Z" fill="#FFBD86"/>
<path d="M47.1094 59.8438H66.9074V65.5312H47.1094V59.8438Z" fill="#FED2A4"/>
<path d="M61.7243 28.3829C58.7726 26.943 55.3889 26.943 52.4372 28.3829C48.9095 30.1107 46.6777 33.7104 46.6777 37.67V37.814C46.6777 40.2617 47.5417 42.7095 49.1975 44.5813L57.1167 53.7964L64.964 44.5813C66.5478 42.7095 67.4837 40.3337 67.4837 37.814V37.67C67.4117 33.7823 65.1799 30.1827 61.7243 28.3829ZM57.0447 41.7016C55.1009 41.7016 53.5891 40.1177 53.5891 38.2459C53.5891 36.3741 55.1009 34.7183 57.0447 34.7183C58.9885 34.7183 60.5004 36.3021 60.5004 38.1739C60.5004 40.0457 58.9885 41.7016 57.0447 41.7016Z" fill="#ED1C24"/>
<path opacity="0.19" d="M59.8539 72.5865H54.1664C53.3745 72.5865 52.7266 71.9386 52.7266 71.1466C52.7266 70.3547 53.3745 69.7068 54.1664 69.7068H59.8539C60.6458 69.7068 61.2937 70.3547 61.2937 71.1466C61.2937 71.9386 60.6458 72.5865 59.8539 72.5865Z" fill="#2D2F31"/>
<path d="M41.495 68.3389H40.0551C39.2632 68.3389 38.6152 67.691 38.6152 66.8991C38.6152 66.1072 39.2632 65.4592 40.0551 65.4592H41.495C42.2869 65.4592 42.9348 66.1072 42.9348 66.8991C42.9348 67.691 42.2869 68.3389 41.495 68.3389Z" fill="#F9FAFB"/>
<path d="M41.4956 74.0262H38.6879C37.896 74.0262 37.248 73.3783 37.248 72.5863C37.248 71.7944 37.896 71.1465 38.6879 71.1465H41.4956C42.2876 71.1465 42.9355 71.7944 42.9355 72.5863C42.9355 73.3783 42.2876 74.0262 41.4956 74.0262Z" fill="#F9FAFB"/>
<path d="M41.495 79.6417H40.0551C39.2632 79.6417 38.6152 78.9937 38.6152 78.2018C38.6152 77.4099 39.2632 76.762 40.0551 76.762H41.495C42.2869 76.762 42.9348 77.4099 42.9348 78.2018C42.9348 78.9937 42.2869 79.6417 41.495 79.6417Z" fill="#F9FAFB"/>
</svg>
