<svg width="64" height="64" viewBox="0 0 64 64" fill="none" xmlns="http://www.w3.org/2000/svg">
<path d="M60.9316 32.1196H56.9934V22.6279L61.6272 25.4694C61.6973 25.5124 61.7766 25.5339 61.8559 25.5339C61.9296 25.5339 62.0032 25.5154 62.0697 25.4781C62.2078 25.4007 62.2934 25.2547 62.2934 25.0964V19.882C62.2934 19.7299 62.2143 19.5886 62.0847 19.5091L32.0122 1.0645C31.8718 0.9785 31.6951 0.9785 31.5547 1.0645L1.48219 19.5093C1.35256 19.5888 1.27344 19.73 1.27344 19.8821V25.0965C1.27344 25.2549 1.35906 25.4009 1.49719 25.4783C1.63531 25.5555 1.80456 25.5522 1.93969 25.4695L6.57331 22.628V59.484C6.57331 59.7256 6.76919 59.9215 7.01081 59.9215H32.7993L32.7476 60.0615L34.3961 61.7101L35.9032 61.1572L36.8356 61.5425L37.5071 63.0001H60.9314C61.9237 63.0001 62.7309 62.1912 62.7309 61.1971V33.9227C62.7309 32.9286 61.9237 32.1198 60.9314 32.1198L60.9316 32.1196Z" fill="#FFE177"/>
<path d="M60.9305 32.1197H56.3287V31.635C56.3287 31.3933 56.1328 31.1975 55.8912 31.1975H52.5579C52.3525 30.1176 51.4015 29.2988 50.2629 29.2988C49.1243 29.2988 48.173 30.1177 47.9678 31.1975H44.6382C44.3965 31.1975 44.2007 31.3933 44.2007 31.635V32.1197H39.5988C38.6047 32.1197 37.7958 32.9286 37.7958 33.9227V48.573H37.5063L36.8348 50.0306L35.9024 50.4158L34.3953 49.863L32.7468 51.5116L33.3034 53.0178L32.9154 53.947L31.457 54.623V56.9505L32.9154 57.6263L33.3034 58.5555L32.7468 60.0617L34.3953 61.7103L35.9024 61.1575L36.8348 61.5427L37.5063 63.0003H60.9307C61.9229 63.0003 62.7302 62.1915 62.7302 61.1973V33.923C62.7302 32.9288 61.9229 32.12 60.9307 32.12L60.9305 32.1197Z" fill="#ECEFF1"/>
<path d="M45.8844 56.9501V54.6226L44.4269 53.947L44.0417 53.0176L44.5942 51.5113L42.9507 49.8626L41.443 50.4156L40.5105 50.0304L39.839 48.5728H37.5063L36.8348 50.0304L35.9024 50.4156L34.3953 49.8628L32.7468 51.5114L33.3034 53.0176L32.9154 53.9468L31.457 54.6228V56.9503L32.9154 57.6261L33.3034 58.5553L32.7468 60.0615L34.3953 61.7101L35.9024 61.1573L36.8348 61.5425L37.5063 63.0001H39.839L40.5105 61.5425L41.443 61.1573L42.9507 61.7103L44.5942 60.0616L44.0417 58.5553L44.4269 57.6259L45.8844 56.9501ZM39.8608 56.9759C39.543 57.2936 39.1207 57.4686 38.6713 57.4686C38.2219 57.4686 37.7995 57.2936 37.4817 56.9759C36.8258 56.32 36.8258 55.2528 37.4817 54.5968C37.7995 54.279 38.222 54.1039 38.6713 54.1039C39.1205 54.1039 39.543 54.2789 39.8608 54.5968C40.1785 54.9145 40.3537 55.337 40.3537 55.7863C40.3537 56.2355 40.1787 56.658 39.8608 56.9758V56.9759Z" fill="#FFC338"/>
<path d="M41.0957 53.3595C40.4474 52.7111 39.5855 52.354 38.6689 52.354C37.7523 52.354 36.8902 52.7111 36.2419 53.3595C34.9037 54.6978 34.9037 56.8751 36.2419 58.2134C36.8904 58.8618 37.7523 59.2188 38.6689 59.2188C39.5855 59.2188 40.4475 58.8618 41.0956 58.2134C41.7441 57.565 42.1013 56.7031 42.1013 55.7864C42.1013 54.8696 41.7441 54.0078 41.0957 53.3595ZM39.8587 56.9759C39.541 57.2936 39.1186 57.4686 38.6693 57.4686C38.2199 57.4686 37.7975 57.2936 37.4796 56.9759C36.8238 56.32 36.8238 55.2528 37.4796 54.5968C37.7975 54.279 38.22 54.1039 38.6693 54.1039C39.1185 54.1039 39.541 54.2789 39.8587 54.5968C40.1765 54.9145 40.3516 55.337 40.3516 55.7863C40.3516 56.2355 40.1766 56.658 39.8587 56.9758V56.9759Z" fill="#EAA824"/>
<path d="M33.3021 58.5552L32.9141 57.6261L31.4557 56.9502V54.6227L32.9141 53.9467L33.3021 53.0176L32.7455 51.5113L34.394 49.8627L35.9011 50.4156L36.8335 50.0303L37.505 48.5727H37.7945V33.9224C37.7945 32.9283 38.6034 32.1194 39.5975 32.1194H44.1994V31.6347C44.1994 31.3931 44.3952 31.1972 44.6369 31.1972H47.9665C48.1719 30.1173 49.1229 29.2986 50.2616 29.2986C51.4004 29.2986 52.3514 30.1174 52.5566 31.1972H52.6406V25.8672C52.6406 25.6256 52.4448 25.4297 52.2031 25.4297H11.3594C11.1178 25.4297 10.9219 25.6256 10.9219 25.8672V59.9213H32.7971L33.302 58.5551L33.3021 58.5552Z" fill="#685E68"/>
<path d="M37.7944 33.9224C37.7944 32.9283 38.6032 32.1194 39.5974 32.1194H44.1992V31.6347C44.1992 31.3931 44.3951 31.1972 44.6367 31.1972H47.9664C48.1717 30.1173 49.1228 29.2986 50.2615 29.2986C51.4002 29.2986 52.3512 30.1174 52.5565 31.1972H52.6405V25.8672C52.6405 25.6256 52.4446 25.4297 52.203 25.4297H11.3594C11.1178 25.4297 10.9219 25.6256 10.9219 25.8672V34.0423H37.7944V33.9224Z" fill="#837683"/>
<path d="M62.0847 19.5093L32.0122 1.0645C31.8718 0.9785 31.6951 0.9785 31.5547 1.0645L1.48219 19.5093C1.35256 19.5888 1.27344 19.73 1.27344 19.8821V25.0965C1.27344 25.2549 1.35906 25.4009 1.49719 25.4783C1.63531 25.5555 1.80456 25.5522 1.93969 25.4695L31.7834 7.16862L61.6272 25.4695C61.6973 25.5125 61.7766 25.534 61.8559 25.534C61.9296 25.534 62.0032 25.5155 62.0697 25.4783C62.2078 25.4009 62.2934 25.2549 62.2934 25.0965V19.8821C62.2934 19.73 62.2143 19.5888 62.0847 19.5093Z" fill="#837683"/>
<path d="M30.1787 40.2271H11.3594C11.1178 40.2271 10.9219 40.4229 10.9219 40.6646V59.4841C10.9219 59.7257 11.1178 59.9216 11.3594 59.9216H30.1787C30.4204 59.9216 30.6162 59.7257 30.6162 59.4841V40.6646C30.6162 40.4229 30.4204 40.2271 30.1787 40.2271Z" fill="#ECBA78"/>
<path d="M15.1875 40.2271H16.9375V42.5363H15.1875V40.2271Z" fill="#F2D1A5"/>
<path d="M24.6016 40.2271H26.3516V42.5363H24.6016V40.2271Z" fill="#F2D1A5"/>
<path d="M15.1875 50.0762H16.9375V52.3818H15.1875V50.0762Z" fill="#F2D1A5"/>
<path d="M24.6016 50.0762H26.3516V52.3818H24.6016V50.0762Z" fill="#F2D1A5"/>
<path d="M38.1854 16.0186H33.6172C33.3756 16.0186 33.1797 16.2144 33.1797 16.4561V21.0281C33.1797 21.2697 33.3756 21.4656 33.6172 21.4656H38.1854C38.4271 21.4656 38.6229 21.2697 38.6229 21.0281V16.4561C38.6229 16.2144 38.4271 16.0186 38.1854 16.0186Z" fill="#FFD064"/>
<path d="M29.9473 16.0186H25.3789C25.1373 16.0186 24.9414 16.2144 24.9414 16.4561V21.0281C24.9414 21.2697 25.1373 21.4656 25.3789 21.4656H29.9473C30.1889 21.4656 30.3848 21.2697 30.3848 21.0281V16.4561C30.3848 16.2144 30.1889 16.0186 29.9473 16.0186Z" fill="#FFD064"/>
<path d="M55.8897 31.1975H52.5565C52.3511 30.1176 51.4001 29.2988 50.2615 29.2988C49.1228 29.2988 48.1716 30.1177 47.9663 31.1975H44.6367C44.3951 31.1975 44.1992 31.3933 44.1992 31.635V35.436C44.1992 35.6776 44.3951 35.8735 44.6367 35.8735H55.8897C56.1313 35.8735 56.3272 35.6776 56.3272 35.436V31.635C56.3272 31.3933 56.1313 31.1975 55.8897 31.1975Z" fill="#A79BA7"/>
<path d="M51.4317 31.1975H52.5567C52.3513 30.1176 51.4003 29.2988 50.2617 29.2988C50.0676 29.2988 49.8796 29.3243 49.6992 29.3691C50.5772 29.5872 51.2615 30.3017 51.4317 31.1975Z" fill="#9B919B"/>
<path d="M55.8906 31.1973H54.7656C55.0072 31.1973 55.2031 31.3931 55.2031 31.6348V35.4358C55.2031 35.6774 55.0072 35.8733 54.7656 35.8733H55.8906C56.1322 35.8733 56.3281 35.6774 56.3281 35.4358V31.6348C56.3281 31.3931 56.1322 31.1973 55.8906 31.1973Z" fill="#9B919B"/>
<path d="M41.0426 50.5613L41.4399 50.4156L40.5073 50.0304L39.8359 48.5728H39.0859L39.7573 50.0304L41.0426 50.5613Z" fill="#F5B829"/>
<path d="M41.0426 61.0112L39.7573 61.5422L39.0859 62.9999H39.8359L40.5073 61.5422L41.4399 61.157L41.0426 61.0112Z" fill="#F5B829"/>
<path d="M45.8812 56.9502V54.6228L44.4237 53.9472L44.0386 53.0177L44.5911 51.5114L42.9476 49.8628L42.3984 50.0642L43.8411 51.5114L43.2886 53.0177L43.6737 53.9472L45.1312 54.6228V56.9502L43.6737 57.6258L43.2886 58.5552L43.8411 60.0615L42.3984 61.5087L42.9476 61.7102L44.5911 60.0615L44.0386 58.5552L44.4237 57.6258L45.8812 56.9502Z" fill="#F5B829"/>
<path d="M39.543 48.5729V33.9226C39.543 33.8954 39.5687 33.8696 39.596 33.8696H44.1978V32.1196H39.596C38.6018 32.1196 37.793 32.9285 37.793 33.9226V48.5729H39.543Z" fill="#E3A76F"/>
<path d="M60.9276 32.1196H56.3257V33.8696H60.9276C60.9498 33.8696 60.9771 33.8941 60.9771 33.9226V61.197C60.9771 61.2255 60.9498 61.25 60.9276 61.25H43.4061L42.9476 61.7101L41.6937 61.2503H41.2147L40.5074 61.5425L39.8359 63.0001H60.9276C61.9198 63.0001 62.7271 62.1913 62.7271 61.1971V33.9228C62.7271 32.9286 61.9198 32.1198 60.9276 32.1198V32.1196Z" fill="#E3A76F"/>
<path d="M37.7302 56.976C37.0743 56.3201 37.0743 55.2529 37.7302 54.5969C38.0183 54.3088 38.3927 54.1396 38.7948 54.1101C38.7533 54.1071 38.7118 54.104 38.6698 54.104C38.2206 54.104 37.7981 54.279 37.4802 54.5969C36.8243 55.2528 36.8243 56.32 37.4802 56.976C37.7981 57.2938 38.2206 57.4688 38.6698 57.4688C38.7118 57.4688 38.7533 57.4658 38.7948 57.4626C38.3927 57.4333 38.0184 57.264 37.7302 56.976Z" fill="#D2D9DB"/>
<path d="M45.264 40.501H43.4688C42.9855 40.501 42.5938 40.1092 42.5938 39.626C42.5938 39.1427 42.9855 38.751 43.4688 38.751H45.264C45.7472 38.751 46.139 39.1427 46.139 39.626C46.139 40.1092 45.7472 40.501 45.264 40.501Z" fill="#9FACBA"/>
<path d="M57.056 44.0596H43.4688C42.9855 44.0596 42.5938 43.6678 42.5938 43.1846C42.5938 42.7013 42.9855 42.3096 43.4688 42.3096H57.056C57.5392 42.3096 57.931 42.7013 57.931 43.1846C57.931 43.6678 57.5392 44.0596 57.056 44.0596Z" fill="#9FACBA"/>
<path d="M57.056 47.6177H43.4688C42.9855 47.6177 42.5938 47.2259 42.5938 46.7427C42.5938 46.2594 42.9855 45.8677 43.4688 45.8677H57.056C57.5392 45.8677 57.931 46.2594 57.931 46.7427C57.931 47.2259 57.5392 47.6177 57.056 47.6177Z" fill="#9FACBA"/>
<path d="M57.0557 51.1758H46.3594C45.8761 51.1758 45.4844 50.784 45.4844 50.3008C45.4844 49.8175 45.8761 49.4258 46.3594 49.4258H57.0557C57.539 49.4258 57.9307 49.8175 57.9307 50.3008C57.9307 50.784 57.539 51.1758 57.0557 51.1758Z" fill="#9FACBA"/>
<path d="M57.0546 54.7378H47.875C47.3918 54.7378 47 54.346 47 53.8628C47 53.3795 47.3918 52.9878 47.875 52.9878H57.0546C57.5379 52.9878 57.9296 53.3795 57.9296 53.8628C57.9296 54.346 57.5379 54.7378 57.0546 54.7378Z" fill="#9FACBA"/>
<path d="M57.0546 58.2959H47.875C47.3918 58.2959 47 57.9041 47 57.4209C47 56.9376 47.3918 56.5459 47.875 56.5459H57.0546C57.5379 56.5459 57.9296 56.9376 57.9296 57.4209C57.9296 57.9041 57.5379 58.2959 57.0546 58.2959Z" fill="#9FACBA"/>
<path d="M57.0548 40.501H48.457C47.9738 40.501 47.582 40.1092 47.582 39.626C47.582 39.1427 47.9738 38.751 48.457 38.751H57.0548C57.538 38.751 57.9298 39.1427 57.9298 39.626C57.9298 40.1092 57.538 40.501 57.0548 40.501Z" fill="#9FACBA"/>
<path d="M62.0847 19.5095L60.4572 18.5112V22.5187C60.4572 22.8943 60.0456 23.1248 59.7253 22.9285L32.0347 5.94783C31.8806 5.85333 31.6863 5.85333 31.5322 5.94783L1.93969 24.0947C1.74194 24.2158 1.47119 24.1666 1.33144 23.9441C1.28894 23.8763 1.27344 23.7951 1.27344 23.7152V25.0967C1.27344 25.2551 1.35906 25.4011 1.49719 25.4785C1.63531 25.5557 1.80456 25.5525 1.93969 25.4697L31.7834 7.16883L61.6272 25.4697C61.6973 25.5127 61.7766 25.5342 61.8559 25.5342C61.9296 25.5342 62.0032 25.5157 62.0697 25.4785C62.2078 25.4011 62.2934 25.2551 62.2934 25.0967V19.8823C62.2934 19.7302 62.2143 19.589 62.0847 19.5095Z" fill="#776A77"/>
<path d="M52.2031 25.4297H50.7031C50.9448 25.4297 51.1406 25.6256 51.1406 25.8672V28.8611H10.9219V30.6111H48.1623C48.5424 29.8347 49.3404 29.2986 50.2616 29.2986C50.5726 29.2986 50.869 29.3609 51.1406 29.4718V29.4724C51.8634 29.7674 52.4074 30.4126 52.5566 31.1973H52.6406V25.8673C52.6406 25.6257 52.4448 25.4298 52.2031 25.4298V25.4297Z" fill="#776A77"/>
<path d="M54.9836 22.7722V31.1972H55.8891C56.1307 31.1972 56.3266 31.3931 56.3266 31.6347V32.1195H56.9904V22.6277L31.7804 7.16846L6.57031 22.6278V24.0028L31.7804 8.54346L54.9836 22.7722Z" fill="#FFD064"/>
<path d="M30.616 40.6646C30.616 40.4229 30.4201 40.2271 30.1785 40.2271H28.9285C29.1701 40.2271 29.366 40.4229 29.366 40.6646V48.9884C29.366 49.2301 29.1701 49.4259 28.9285 49.4259H20.767V40.6646C20.767 40.4229 20.5711 40.2271 20.3295 40.2271H19.0795C19.3211 40.2271 19.517 40.4229 19.517 40.6646V48.9884C19.517 49.2301 19.3211 49.4259 19.0795 49.4259H10.918V50.076H19.0988C19.3321 50.0854 19.5187 50.2762 19.5187 50.5118V58.8357C19.5187 59.0773 19.3228 59.2732 19.0812 59.2732H10.9197V59.4858C10.9197 59.7274 11.1156 59.9233 11.3572 59.9233H30.1802C30.4218 59.9233 30.6177 59.7274 30.6177 59.4858L30.616 40.6646ZM29.3677 58.8355C29.3677 59.0772 29.1718 59.273 28.9302 59.273H20.7687V50.5117C20.7687 50.276 20.5821 50.0853 20.3488 50.0759H28.9478C29.1811 50.0853 29.3677 50.276 29.3677 50.5117V58.8355Z" fill="#E3A76F"/>
</svg>
