<svg width="64" height="64" viewBox="0 0 64 64" fill="none" xmlns="http://www.w3.org/2000/svg">
<path d="M24 26C19.582 26 16 22.418 16 18C16 13.582 19.582 10 24 10C28.418 10 32 13.582 32 18C32 22.418 28.418 26 24 26Z" fill="#F0F0F0"/>
<path d="M40 20V22H37.405C37.132 22.921 36.765 23.807 36.307 24.65L38.141 26.485L32.485 32.141L30.65 30.307C29.806 30.765 28.921 31.132 28 31.405V34H20V31.405C19.079 31.132 18.193 30.765 17.35 30.307L15.515 32.141L9.859 26.485L11.693 24.65C11.235 23.806 10.868 22.921 10.595 22H8V20H4V52H44V20H40Z" fill="#FAB400"/>
<path d="M54 32H44V52H4V56H58C59.105 56 60 55.105 60 54V42L54 32Z" fill="#3CC8B4"/>
<path d="M4 20H8V52H4V20Z" fill="#DC9600"/>
<path d="M4 52H8V56H4V52Z" fill="#1EAA96"/>
<path d="M54 32H44V28H54C55.105 28 56 28.895 56 30C56 31.105 55.105 32 54 32Z" fill="#505050"/>
<path d="M60 42H48V32H54L60 42Z" fill="#F0F0F0"/>
<path d="M55 50H60V46H55C54.448 46 54 46.448 54 47V49C54 49.552 54.448 50 55 50Z" fill="#FAB400"/>
<path d="M51 60C48.239 60 46 57.761 46 55C46 52.239 48.239 50 51 50C53.761 50 56 52.239 56 55C56 57.761 53.761 60 51 60Z" fill="#505050"/>
<path d="M13 60C10.239 60 8 57.761 8 55C8 52.239 10.239 50 13 50C15.761 50 18 52.239 18 55C18 57.761 15.761 60 13 60Z" fill="#505050"/>
<path d="M51 57C49.895 57 49 56.105 49 55C49 53.895 49.895 53 51 53C52.105 53 53 53.895 53 55C53 56.105 52.105 57 51 57Z" fill="#F0F0F0"/>
<path d="M13 57C11.895 57 11 56.105 11 55C11 53.895 11.895 53 13 53C14.105 53 15 53.895 15 55C15 56.105 14.105 57 13 57Z" fill="#F0F0F0"/>
<path d="M34 42H40V44H34V42Z" fill="#BE7800"/>
<path d="M34 46H40V48H34V46Z" fill="#BE7800"/>
<path d="M38 20V16H35.819C35.512 14.181 34.799 12.502 33.77 11.058L35.313 9.515L32.485 6.687L30.942 8.23C29.497 7.2 27.819 6.488 26 6.181V4H22V6.181C20.181 6.488 18.503 7.201 17.058 8.23L15.515 6.687L12.687 9.515L14.23 11.058C13.2 12.502 12.488 14.181 12.181 16H10V20H12.181C12.488 21.819 13.201 23.497 14.23 24.942L12.687 26.485L15.515 29.313L17.058 27.77C18.502 28.799 20.181 29.512 22 29.819V32H26V29.819C27.819 29.512 29.497 28.799 30.942 27.77L32.485 29.313L35.313 26.485L33.77 24.942C34.799 23.498 35.512 21.819 35.819 20H38ZM29.656 23.657C28.208 25.105 26.209 26 24 26C21.791 26 19.792 25.105 18.344 23.657L18.343 23.656C16.895 22.208 16 20.209 16 18C16 13.582 19.582 10 24 10C28.418 10 32 13.582 32 18C32 20.209 31.105 22.208 29.657 23.656L29.656 23.657Z" fill="#FA6450"/>
<path d="M19.057 8.23C20.502 7.2 22.18 6.488 23.999 6.181V4H21.999V6.181C20.676 6.404 19.431 6.848 18.293 7.466L19.057 8.23Z" fill="#DC4632"/>
<path d="M14.1797 16C14.4867 14.181 15.1997 12.502 16.2287 11.058L14.6857 9.51501L16.5137 7.68701L15.5137 6.68701L12.6857 9.51501L14.2287 11.058C13.1987 12.502 12.4867 14.181 12.1797 16H14.1797Z" fill="#DC4632"/>
<path d="M26 10C25.661 10 25.328 10.028 25 10.069C28.945 10.562 32 13.921 32 18C32 20.209 31.105 22.208 29.657 23.656L29.656 23.657C28.431 24.882 26.808 25.704 25 25.93C25.328 25.972 25.661 26 26 26C28.209 26 30.208 25.105 31.656 23.657L31.657 23.656C33.105 22.208 34 20.209 34 18C34 13.582 30.418 10 26 10Z" fill="#DC4632"/>
<path d="M10 16H12V20H10V16Z" fill="#DC4632"/>
<path d="M19.057 27.77L18.293 28.534C19.431 29.152 20.677 29.595 21.999 29.819V32H23.999V29.819C22.18 29.512 20.502 28.8 19.057 27.77Z" fill="#DC4632"/>
<path d="M14.6847 26.485L16.2277 24.942C15.1987 23.497 14.4867 21.819 14.1797 20H12.1797C12.4867 21.819 13.1997 23.497 14.2287 24.942L12.6857 26.485L15.5137 29.313L16.5137 28.313L14.6847 26.485Z" fill="#DC4632"/>
<path d="M24 20.633L21.401 22L21.897 19.106L20 17.056L22.7 16.633L24 14L25.3 16.633L28 17.056L26.103 19.106L26.599 22L24 20.633Z" fill="#64C8F0"/>
</svg>
