<svg width="60" height="60" viewBox="0 0 60 60" fill="none" xmlns="http://www.w3.org/2000/svg">
<path opacity="0.96" fill-rule="evenodd" clip-rule="evenodd" d="M32.2853 0.52721C32.639 0.507917 32.9905 0.527449 33.34 0.585803C34.2255 1.74473 35.0652 2.93613 35.8595 4.16002C35.9882 4.62938 35.8906 5.03954 35.5666 5.39049C34.2518 6.02839 32.9236 6.63386 31.5822 7.2069C30.6425 7.00707 30.3495 6.4602 30.7033 5.56627C31.0456 5.30704 31.4167 5.09219 31.8166 4.92174C22.6348 3.68339 15.4278 6.86698 10.1955 14.4725C9.73519 15.3547 9.24692 16.214 8.73061 17.0506C7.56564 17.5321 7.0383 17.1415 7.14858 15.8788C10.6597 8.87525 16.2652 4.55884 23.965 2.92955C26.8647 2.39469 29.7552 2.39469 32.6369 2.92955C32.2551 2.49749 31.9816 2.00922 31.8166 1.46471C31.8496 1.08609 32.0058 0.773589 32.2853 0.52721Z" fill="#B4D2D7"/>
<path opacity="0.961" fill-rule="evenodd" clip-rule="evenodd" d="M37.4413 4.62891C37.7257 4.6316 37.9991 4.6902 38.2616 4.80469C46.6375 9.22552 51.0515 16.1981 51.5038 25.7227C51.424 27.2196 51.2874 28.7039 51.0936 30.1758C51.4157 29.9463 51.7478 29.7315 52.0897 29.5312C53.164 29.3555 53.6132 29.8046 53.4374 30.8789C52.196 31.9459 50.8484 32.8444 49.3944 33.5742C49.1182 33.5045 48.8644 33.3873 48.6327 33.2227C47.9615 31.8806 47.3561 30.5134 46.8163 29.1211C46.9566 28.3274 47.4253 28.0344 48.2226 28.2422C48.642 28.5505 48.9349 28.9607 49.1015 29.4727C50.3183 20.2269 47.0957 12.9807 39.4335 7.73438C38.5061 7.28073 37.6272 6.75339 36.7968 6.15234C36.5744 5.43594 36.7892 4.92813 37.4413 4.62891Z" fill="#B4D2D7"/>
<path opacity="0.998" fill-rule="evenodd" clip-rule="evenodd" d="M42.246 15.7619C41.0161 15.715 39.7856 15.676 38.5546 15.6447C36.9251 15.5028 35.3822 15.7958 33.9257 16.5236C32.8838 17.2673 32.6298 18.2244 33.164 19.3947C33.6237 20.4412 34.3072 21.3201 35.2147 22.0314C36.1138 22.5198 36.9731 23.0667 37.7929 23.6721C38.1595 24.1118 38.4525 24.6001 38.6718 25.1369C38.7583 25.5777 38.7192 26.0074 38.5546 26.426C38.1714 27.16 37.7418 27.8632 37.2655 28.5354C36.5352 29.737 36.4375 30.987 36.9725 32.2854C33.6723 32.4023 30.352 32.4413 27.0116 32.4025C27.1166 31.8215 27.39 31.3333 27.8319 30.9377C28.5115 30.5806 29.2146 30.2681 29.9413 30.0002C30.2215 29.6158 30.2411 29.2057 29.9999 28.7697C29.2186 27.5979 28.4374 26.426 27.6561 25.2541C27.3943 24.9963 27.1014 24.7815 26.7772 24.6096C26.1913 24.4924 25.6054 24.3752 25.0194 24.258C24.2121 23.8347 23.3918 23.4441 22.5585 23.0861C22.2851 23.008 22.0116 23.008 21.7382 23.0861C20.9168 23.4675 20.0575 23.6237 19.16 23.5549C18.2127 22.9577 17.5682 22.1178 17.2265 21.0353C17.1088 20.2907 17.4018 19.7634 18.1054 19.4533C19.6255 19.3805 21.149 19.3024 22.6757 19.2189C24.5867 18.7128 26.0125 17.5995 26.953 15.8791C27.2598 14.6109 26.9864 13.478 26.1327 12.4807C24.8064 10.9874 23.1462 10.1671 21.1522 10.0197C27.1909 7.5078 32.9331 8.0742 38.3788 11.7189C39.895 12.8637 41.184 14.2114 42.246 15.7619Z" fill="#63B4F5"/>
<path fill-rule="evenodd" clip-rule="evenodd" d="M21.1523 10.0195C23.1463 10.1669 24.8065 10.9872 26.1328 12.4805C26.9865 13.4779 27.2599 14.6107 26.9531 15.8789C26.0126 17.5993 24.5868 18.7126 22.6758 19.2188C21.1491 19.3022 19.6256 19.3804 18.1055 19.4531C17.4019 19.7632 17.1089 20.2905 17.2266 21.0352C17.5683 22.1176 18.2128 22.9575 19.1602 23.5547C20.0576 23.6235 20.9169 23.4673 21.7383 23.0859C22.0117 23.0078 22.2852 23.0078 22.5586 23.0859C23.3919 23.4439 24.2122 23.8345 25.0195 24.2578C25.6055 24.375 26.1914 24.4922 26.7773 24.6094C27.1015 24.7813 27.3945 24.9961 27.6562 25.2539C28.4375 26.4258 29.2187 27.5977 30 28.7695C30.2412 29.2055 30.2216 29.6156 29.9414 30C29.2147 30.2679 28.5116 30.5804 27.832 30.9375C27.3901 31.3331 27.1167 31.8213 27.0117 32.4023C27.0117 32.4414 27.0117 32.4805 27.0117 32.5195C24.4336 32.5195 21.8555 32.5195 19.2773 32.5195C19.8417 32.4227 20.4277 32.3641 21.0352 32.3438C20.312 31.2675 20.019 30.0762 20.1562 28.7695C19.9526 28.3311 19.6596 27.96 19.2773 27.6562C18.5339 27.2456 17.8308 26.7769 17.168 26.25C16.3441 25.3869 15.4847 24.5666 14.5898 23.7891C14.0934 23.4425 13.5465 23.2668 12.9492 23.2617C12.3861 23.1461 11.8002 23.1069 11.1914 23.1445C11.1914 22.9883 11.1914 22.832 11.1914 22.6758C12.3355 16.7287 15.6558 12.51 21.1523 10.0195Z" fill="#31AA45"/>
<path fill-rule="evenodd" clip-rule="evenodd" d="M42.2461 15.7618C42.3243 15.7618 42.3633 15.8008 42.3633 15.879C42.1901 15.8483 42.0339 15.8873 41.8946 15.9962C44.6623 21.4484 44.7013 26.9172 42.0118 32.4024C40.3711 32.4024 38.7305 32.4024 37.0899 32.4024C37.0899 32.3242 37.0509 32.2852 36.9727 32.2852C36.4376 30.9869 36.5354 29.7369 37.2657 28.5352C37.7419 27.863 38.1715 27.1599 38.5547 26.4258C38.7194 26.0073 38.7584 25.5775 38.6719 25.1368C38.4527 24.5999 38.1597 24.1116 37.793 23.6719C36.9733 23.0665 36.1139 22.5196 35.2149 22.0313C34.3074 21.32 33.6238 20.4411 33.1641 19.3946C32.63 18.2242 32.8839 17.2672 33.9258 16.5235C35.3823 15.7957 36.9252 15.5027 38.5547 15.6446C39.7858 15.6759 41.0162 15.7149 42.2461 15.7618Z" fill="#30AA44"/>
<path fill-rule="evenodd" clip-rule="evenodd" d="M42.3633 15.8788C45.1199 19.8357 46.077 24.2107 45.2344 29.0038C44.9618 30.5645 44.4735 32.0488 43.7695 33.4569C43.4564 32.9092 42.9877 32.5966 42.3633 32.5194C42.2802 32.4135 42.163 32.3745 42.0117 32.4022C44.7013 26.917 44.6623 21.4482 41.8945 15.996C42.0339 15.8871 42.1901 15.8481 42.3633 15.8788Z" fill="#259B35"/>
<path opacity="0.959" fill-rule="evenodd" clip-rule="evenodd" d="M17.8711 44.3554C18.0243 45.1091 18.0243 45.8514 17.8711 46.5819C13.6133 44.5315 10.3125 41.4456 7.96875 37.3241C5.24695 32.3215 4.34851 27.0089 5.27344 21.3866C4.89139 21.8076 4.42264 22.081 3.86719 22.2069C3.23425 22.1404 2.90222 21.7888 2.87109 21.1522C2.87764 20.8463 2.99483 20.5923 3.22266 20.3905C4.23829 19.6874 5.2539 18.9843 6.26953 18.2811C6.7712 18.034 7.25948 18.0536 7.73438 18.3397C8.4068 19.684 9.01227 21.0511 9.55078 22.4413C9.41503 23.3283 8.90722 23.6213 8.02734 23.3202C7.70003 22.9592 7.44613 22.549 7.26562 22.0897C6.11834 30.3572 8.71598 37.1736 15.0586 42.539C15.9795 43.1748 16.917 43.7803 17.8711 44.3554Z" fill="#B4D2D7"/>
<path fill-rule="evenodd" clip-rule="evenodd" d="M11.1912 22.6758C11.1912 22.832 11.1912 22.9883 11.1912 23.1445C11.8 23.1069 12.3859 23.1461 12.949 23.2617C12.3241 23.2617 11.699 23.2617 11.074 23.2617C11.0407 23.0373 11.0797 22.8421 11.1912 22.6758Z" fill="#55B2BF"/>
<path opacity="0.996" fill-rule="evenodd" clip-rule="evenodd" d="M11.074 23.2617C11.699 23.2617 12.3241 23.2617 12.949 23.2617C13.5464 23.2668 14.0933 23.4425 14.5897 23.7891C15.4845 24.5666 16.344 25.3869 17.1678 26.25C17.8306 26.7769 18.5337 27.2456 19.2772 27.6562C19.6594 27.96 19.9524 28.3311 20.1561 28.7695C20.0189 30.0762 20.3118 31.2675 21.035 32.3438C20.4275 32.3641 19.8415 32.4227 19.2772 32.5195C18.7196 32.6266 18.3094 32.9392 18.0467 33.457C18.027 35.5864 17.9684 37.6958 17.8709 39.7852C12.5425 35.5623 10.2769 30.0545 11.074 23.2617Z" fill="#64B4F5"/>
<path fill-rule="evenodd" clip-rule="evenodd" d="M36.9727 32.2852C37.0508 32.2852 37.0898 32.3242 37.0898 32.4023C33.7506 32.5193 30.3912 32.5583 27.0117 32.5195C27.0117 32.4805 27.0117 32.4414 27.0117 32.4023C30.3521 32.4411 33.6724 32.4021 36.9727 32.2852Z" fill="#AABE8F"/>
<path fill-rule="evenodd" clip-rule="evenodd" d="M37.0898 32.4022C38.7305 32.4022 40.3711 32.4022 42.0117 32.4022C42.163 32.3744 42.2802 32.4135 42.3633 32.5194C41.815 32.4999 41.2682 32.5195 40.7227 32.578C41.2775 32.7032 41.6487 33.0351 41.8359 33.5741C41.8945 39.3552 41.9141 45.1365 41.8945 50.9178C33.9258 50.9178 25.957 50.9178 17.9883 50.9178C18.0267 49.4907 17.9877 48.0845 17.8711 46.6991C17.8711 46.6601 17.8711 46.6209 17.8711 46.5819C18.0243 45.8514 18.0243 45.1091 17.8711 44.3553C17.8711 42.8319 17.8711 41.3085 17.8711 39.785C17.9686 37.6957 18.0272 35.5863 18.0469 33.4569C18.3096 32.9391 18.7198 32.6265 19.2773 32.5194C21.8555 32.5194 24.4336 32.5194 27.0117 32.5194C30.3912 32.5582 33.7506 32.5192 37.0898 32.4022Z" fill="#FED92C"/>
<path fill-rule="evenodd" clip-rule="evenodd" d="M42.3633 32.5195C42.9877 32.5967 43.4564 32.9092 43.7695 33.457C43.8709 34.3905 43.9099 35.328 43.8867 36.2695C43.7696 41.1714 43.7306 46.0933 43.7695 51.0351C43.1446 51.0351 42.5195 51.0351 41.8945 51.0351C33.8868 51.0351 25.8789 51.0351 17.8711 51.0351C17.8711 49.5898 17.8711 48.1444 17.8711 46.6992C17.9877 48.0846 18.0267 49.4908 17.9883 50.9179C25.957 50.9179 33.9258 50.9179 41.8945 50.9179C41.9141 45.1366 41.8945 39.3553 41.8359 33.5742C41.6487 33.0352 41.2775 32.7032 40.7227 32.5781C41.2682 32.5196 41.815 32.5 42.3633 32.5195Z" fill="#FEC702"/>
<path opacity="0.941" fill-rule="evenodd" clip-rule="evenodd" d="M49.043 36.2696C48.2617 36.2696 47.4805 36.2696 46.6992 36.2696C46.9754 35.6194 47.327 35.014 47.7539 34.4532C48.3705 34.1644 48.8589 34.301 49.2187 34.8634C49.3137 35.3544 49.2551 35.8231 49.043 36.2696Z" fill="#B4D1D7"/>
<path fill-rule="evenodd" clip-rule="evenodd" d="M43.8866 36.2695C44.2382 36.2695 44.5898 36.2695 44.9413 36.2695C44.9413 42.5195 44.9413 48.7696 44.9413 55.0195C45.5501 54.9819 46.1361 55.0211 46.6991 55.1367C46.6219 55.483 46.5829 55.8346 46.5819 56.1914C45.6444 56.1914 44.7069 56.1914 43.7694 56.1914C43.7694 54.4726 43.7694 52.7539 43.7694 51.0352C43.7305 46.0934 43.7696 41.1715 43.8866 36.2695Z" fill="#F35244"/>
<path fill-rule="evenodd" clip-rule="evenodd" d="M44.9414 36.2695C45.5273 36.2695 46.1133 36.2695 46.6992 36.2695C47.4805 36.2695 48.2617 36.2695 49.043 36.2695C49.6533 36.3207 50.2002 36.5355 50.6836 36.9141C52.613 39.1171 54.5856 41.285 56.6016 43.418C56.6943 43.5639 56.7529 43.7201 56.7773 43.8867C56.8888 46.1883 56.9278 48.4929 56.8945 50.8008C56.3462 50.7813 55.7994 50.8009 55.2539 50.8594C55.1563 50.957 55.0586 51.0547 54.9609 51.1523C54.8828 51.7773 54.8828 52.4024 54.9609 53.0273C55.0566 53.1824 55.1933 53.2604 55.3711 53.2617C55.8789 53.2617 56.3868 53.2617 56.8945 53.2617C56.9336 53.2617 56.9727 53.2617 57.0117 53.2617C57.0493 53.8705 57.0102 54.4564 56.8945 55.0195C55.5273 55.0195 54.1602 55.0195 52.793 55.0195C51.9866 53.4444 50.6975 52.7999 48.9258 53.0859C47.8603 53.4291 47.1182 54.1127 46.6992 55.1367C46.1361 55.0211 45.5502 54.9819 44.9414 55.0195C44.9414 48.7696 44.9414 42.5195 44.9414 36.2695Z" fill="#FB685A"/>
<path fill-rule="evenodd" clip-rule="evenodd" d="M54.1992 45.8789C54.1992 45.8398 54.1992 45.8007 54.1992 45.7617C54.1322 45.556 54.0345 45.3607 53.9062 45.1757C52.0508 43.164 50.1953 41.1523 48.3398 39.1406C47.5205 39.082 46.7002 39.0625 45.8789 39.082C45.8399 39.082 45.8007 39.082 45.7617 39.082C45.7617 38.7695 45.7617 38.457 45.7617 38.1445C46.9343 38.125 48.1062 38.1445 49.2773 38.2031C51.2109 40.2929 53.1445 42.3828 55.0781 44.4726C55.1366 44.9397 55.1562 45.4085 55.1367 45.8789C54.8242 45.8789 54.5118 45.8789 54.1992 45.8789Z" fill="#D1EFFD"/>
<path fill-rule="evenodd" clip-rule="evenodd" d="M45.8789 39.082C46.7002 39.0625 47.5205 39.082 48.3398 39.1406C50.1953 41.1523 52.0508 43.164 53.9062 45.1757C54.0345 45.3607 54.1322 45.556 54.1992 45.7617C51.4257 45.7617 48.6524 45.7617 45.8789 45.7617C45.8789 43.5351 45.8789 41.3086 45.8789 39.082Z" fill="#E5F7FF"/>
<path opacity="0.745" fill-rule="evenodd" clip-rule="evenodd" d="M56.7773 43.8867C56.8673 43.9761 56.9259 44.0933 56.9531 44.2383C57.0117 46.4255 57.0313 48.6129 57.0117 50.8008C56.9727 50.8008 56.9336 50.8008 56.8945 50.8008C56.9278 48.4929 56.8888 46.1883 56.7773 43.8867Z" fill="#FC823B"/>
<path fill-rule="evenodd" clip-rule="evenodd" d="M45.7617 39.082C45.8007 39.082 45.8399 39.082 45.8789 39.082C45.8789 41.3086 45.8789 43.5352 45.8789 45.7617C48.6524 45.7617 51.4257 45.7617 54.1992 45.7617C54.1992 45.8007 54.1992 45.8399 54.1992 45.8789C51.3867 45.8789 48.5742 45.8789 45.7617 45.8789C45.7617 43.6133 45.7617 41.3476 45.7617 39.082Z" fill="#EBD2D4"/>
<path fill-rule="evenodd" clip-rule="evenodd" d="M46.1133 47.6367C46.7005 47.6172 47.2864 47.6368 47.8711 47.6953C48.437 48.0277 48.4761 48.4184 47.9883 48.8671C47.3633 48.9453 46.7382 48.9453 46.1133 48.8671C45.6504 48.463 45.6504 48.0528 46.1133 47.6367Z" fill="#F0EDEF"/>
<path fill-rule="evenodd" clip-rule="evenodd" d="M56.8946 50.8007C56.9336 50.8007 56.9727 50.8007 57.0117 50.8007C57.0117 51.621 57.0117 52.4414 57.0117 53.2617C56.9727 53.2617 56.9336 53.2617 56.8946 53.2617C56.8946 52.5976 56.8946 51.9336 56.8946 51.2695C55.3026 51.0669 54.7948 51.7308 55.3711 53.2617C55.1933 53.2604 55.0566 53.1823 54.961 53.0273C54.8828 52.4023 54.8828 51.7773 54.961 51.1523C55.0586 51.0547 55.1563 50.9569 55.2539 50.8593C55.7994 50.8008 56.3462 50.7813 56.8946 50.8007Z" fill="#FEC214"/>
<path opacity="0.997" fill-rule="evenodd" clip-rule="evenodd" d="M17.8711 51.0352C25.8789 51.0352 33.8868 51.0352 41.8945 51.0352C41.8945 52.7539 41.8945 54.4726 41.8945 56.1914C39.8242 56.1914 37.754 56.1914 35.6836 56.1914C35.4885 54.1697 34.3752 53.115 32.3438 53.0273C30.4279 53.205 29.3927 54.2597 29.2383 56.1914C28.6524 56.1914 28.0664 56.1914 27.4805 56.1914C27.3003 54.1557 26.187 53.1011 24.1406 53.0273C22.2895 53.2963 21.2544 54.351 21.0352 56.1914C20.331 56.2109 19.6279 56.1913 18.9258 56.1328C18.371 55.8511 18.039 55.4019 17.9297 54.7852C17.8711 53.5358 17.8515 52.2858 17.8711 51.0352Z" fill="#FCB700"/>
<path fill-rule="evenodd" clip-rule="evenodd" d="M41.8945 51.0352C42.5195 51.0352 43.1446 51.0352 43.7695 51.0352C43.7695 52.7539 43.7695 54.4726 43.7695 56.1914C43.1446 56.1914 42.5195 56.1914 41.8945 56.1914C41.8945 54.4726 41.8945 52.7539 41.8945 51.0352Z" fill="#F4A40D"/>
<path fill-rule="evenodd" clip-rule="evenodd" d="M56.8943 53.2616C56.3866 53.2616 55.8787 53.2616 55.3709 53.2616C54.7946 51.7308 55.3023 51.0668 56.8943 51.2694C56.8943 51.9335 56.8943 52.5975 56.8943 53.2616Z" fill="#FFD92B"/>
<path opacity="0.997" fill-rule="evenodd" clip-rule="evenodd" d="M27.4805 56.1914C27.1845 58.6143 25.8173 59.6494 23.3789 59.2969C21.8741 58.8063 21.0928 57.7711 21.0352 56.1914C21.2544 54.351 22.2895 53.2963 24.1406 53.0273C26.187 53.1011 27.3002 54.1557 27.4805 56.1914Z" fill="#425254"/>
<path opacity="0.998" fill-rule="evenodd" clip-rule="evenodd" d="M35.6836 56.1914C35.3598 58.5818 33.9927 59.6169 31.582 59.2969C30.0627 58.8134 29.2814 57.7781 29.2383 56.1914C29.3927 54.2597 30.4279 53.205 32.3438 53.0273C34.3752 53.115 35.4885 54.1697 35.6836 56.1914Z" fill="#435254"/>
<path opacity="0.997" fill-rule="evenodd" clip-rule="evenodd" d="M52.793 55.0196C52.908 55.4019 52.9862 55.7926 53.0273 56.1914C52.6989 58.5835 51.3316 59.6187 48.9258 59.2969C47.4064 58.8134 46.6252 57.7782 46.582 56.1914C46.583 55.8346 46.622 55.483 46.6992 55.1367C47.1182 54.1128 47.8603 53.4291 48.9258 53.086C50.6975 52.7999 51.9866 53.4444 52.793 55.0196Z" fill="#435254"/>
<path fill-rule="evenodd" clip-rule="evenodd" d="M52.793 55.0195C54.1602 55.0195 55.5273 55.0195 56.8945 55.0195C56.8205 55.5826 56.5079 55.9537 55.957 56.1328C54.9812 56.1914 54.0047 56.2109 53.0273 56.1914C52.9862 55.7926 52.908 55.4019 52.793 55.0195Z" fill="#F35343"/>
</svg>
