<svg width="50" height="50" viewBox="0 0 50 50" fill="none" xmlns="http://www.w3.org/2000/svg">
<path d="M24.3125 34.6615C24.9242 34.6615 25.4867 34.9688 25.8172 35.4837L27.7171 38.4437C27.9024 38.7325 28.0004 39.0665 28.0004 39.4097V44.1031C28.0004 44.2371 27.8914 44.3461 27.7574 44.3461H24.4091L24.4174 44.4515C24.4242 44.5371 24.4275 44.6126 24.4275 44.6822C24.4275 45.5086 24.0697 46.2951 23.446 46.8402L23.2501 47.0114H30.6419V17.2652C30.6419 16.7806 31.0361 16.3863 31.5208 16.3863H42.1839V2.59766C42.1839 2.0583 41.7467 1.62109 41.2073 1.62109H22.5859C22.0466 1.62109 21.6094 2.0583 21.6094 2.59766V34.6616H24.3125V34.6615Z" fill="#0593FC"/>
<path d="M25.5156 1.62109H22.5859C22.0466 1.62109 21.6094 2.0583 21.6094 2.59766V34.564H24.3126C24.389 34.564 24.4644 34.57 24.5391 34.5791V2.59766C24.5391 2.0583 24.9763 1.62109 25.5156 1.62109Z" fill="#0182FC"/>
<path d="M27.3414 7.55039H25.2227C25.0608 7.55039 24.9297 7.41924 24.9297 7.25742V5.13867C24.9297 4.97686 25.0608 4.8457 25.2227 4.8457H27.3414C27.5032 4.8457 27.6344 4.97686 27.6344 5.13867V7.25742C27.6344 7.41924 27.5032 7.55039 27.3414 7.55039Z" fill="white"/>
<path d="M32.9586 7.55039H30.8398C30.678 7.55039 30.5469 7.41924 30.5469 7.25742V5.13867C30.5469 4.97686 30.678 4.8457 30.8398 4.8457H32.9586C33.1204 4.8457 33.2516 4.97686 33.2516 5.13867V7.25742C33.2516 7.41924 33.1204 7.55039 32.9586 7.55039Z" fill="white"/>
<path d="M38.5758 7.55039H36.457C36.2952 7.55039 36.1641 7.41924 36.1641 7.25742V5.13867C36.1641 4.97686 36.2952 4.8457 36.457 4.8457H38.5758C38.7376 4.8457 38.8687 4.97686 38.8687 5.13867V7.25742C38.8687 7.41924 38.7376 7.55039 38.5758 7.55039Z" fill="white"/>
<path d="M27.3414 13.2716H25.2227C25.0608 13.2716 24.9297 13.1404 24.9297 12.9786V10.8599C24.9297 10.698 25.0608 10.5669 25.2227 10.5669H27.3414C27.5032 10.5669 27.6344 10.698 27.6344 10.8599V12.9786C27.6344 13.1404 27.5032 13.2716 27.3414 13.2716Z" fill="white"/>
<path d="M32.9586 13.2716H30.8398C30.678 13.2716 30.5469 13.1404 30.5469 12.9786V10.8599C30.5469 10.698 30.678 10.5669 30.8398 10.5669H32.9586C33.1204 10.5669 33.2516 10.698 33.2516 10.8599V12.9786C33.2516 13.1404 33.1204 13.2716 32.9586 13.2716Z" fill="white"/>
<path d="M38.5758 13.2716H36.457C36.2952 13.2716 36.1641 13.1404 36.1641 12.9786V10.8599C36.1641 10.698 36.2952 10.5669 36.457 10.5669H38.5758C38.7376 10.5669 38.8687 10.698 38.8687 10.8599V12.9786C38.8687 13.1404 38.7376 13.2716 38.5758 13.2716Z" fill="white"/>
<path d="M27.3414 18.9933H25.2227C25.0608 18.9933 24.9297 18.8621 24.9297 18.7003V16.5815C24.9297 16.4197 25.0608 16.2886 25.2227 16.2886H27.3414C27.5032 16.2886 27.6344 16.4197 27.6344 16.5815V18.7003C27.6344 18.8621 27.5032 18.9933 27.3414 18.9933Z" fill="white"/>
<path d="M27.3414 24.7145H25.2227C25.0608 24.7145 24.9297 24.5833 24.9297 24.4215V22.3027C24.9297 22.1409 25.0608 22.0098 25.2227 22.0098H27.3414C27.5032 22.0098 27.6344 22.1409 27.6344 22.3027V24.4215C27.6344 24.5833 27.5032 24.7145 27.3414 24.7145Z" fill="white"/>
<path d="M27.3414 30.4361H25.2227C25.0608 30.4361 24.9297 30.305 24.9297 30.1432V28.0244C24.9297 27.8626 25.0608 27.7314 25.2227 27.7314H27.3414C27.5032 27.7314 27.6344 27.8626 27.6344 28.0244V30.1432C27.6344 30.305 27.5032 30.4361 27.3414 30.4361Z" fill="white"/>
<path d="M25.82 35.4837L26.2524 36.1573H27.3414C27.5032 36.1573 27.6344 36.0262 27.6344 35.8644V33.7456C27.6344 33.5838 27.5032 33.4526 27.3414 33.4526H25.2227C25.0608 33.4526 24.9297 33.5838 24.9297 33.7456V34.7703C25.291 34.9021 25.6049 35.1486 25.82 35.4837Z" fill="white"/>
<path d="M25.82 35.4837L26.0673 35.8689C26.0673 35.8674 26.0668 35.8659 26.0668 35.8644V33.7456C26.0668 33.5838 26.1979 33.4526 26.3598 33.4526H25.2227C25.0608 33.4526 24.9297 33.5838 24.9297 33.7456V34.7703C25.291 34.9021 25.6049 35.1486 25.82 35.4837Z" fill="#F3F0F3"/>
<path d="M46.8941 47.0113V17.2651C46.8941 16.7258 46.4569 16.2886 45.9176 16.2886H31.5234C30.9841 16.2886 30.5469 16.7258 30.5469 17.2651V47.0113H46.8941Z" fill="#7A6D79"/>
<path d="M33.6527 47.0113V17.2651C33.6527 16.7258 34.0899 16.2886 34.6293 16.2886H31.5234C30.9841 16.2886 30.5469 16.7258 30.5469 17.2651V47.0113H33.6527Z" fill="#685E68"/>
<path d="M36.9195 23.3624H34.8008C34.639 23.3624 34.5078 23.2313 34.5078 23.0694V20.9507C34.5078 20.7889 34.639 20.6577 34.8008 20.6577H36.9195C37.0813 20.6577 37.2125 20.7889 37.2125 20.9507V23.0694C37.2125 23.2313 37.0813 23.3624 36.9195 23.3624Z" fill="white"/>
<path d="M35.6449 23.0694V20.9507C35.6449 20.7889 35.7761 20.6577 35.9379 20.6577H34.8008C34.639 20.6577 34.5078 20.7889 34.5078 20.9507V23.0694C34.5078 23.2313 34.639 23.3624 34.8008 23.3624H35.9379C35.7761 23.3624 35.6449 23.2313 35.6449 23.0694Z" fill="#F3F0F3"/>
<path d="M36.9195 29.0836H34.8008C34.639 29.0836 34.5078 28.9524 34.5078 28.7906V26.6719C34.5078 26.5101 34.639 26.3789 34.8008 26.3789H36.9195C37.0813 26.3789 37.2125 26.5101 37.2125 26.6719V28.7906C37.2125 28.9524 37.0813 29.0836 36.9195 29.0836Z" fill="white"/>
<path d="M36.9195 34.805H34.8008C34.639 34.805 34.5078 34.6739 34.5078 34.5121V32.3933C34.5078 32.2315 34.639 32.1003 34.8008 32.1003H36.9195C37.0813 32.1003 37.2125 32.2315 37.2125 32.3933V34.5121C37.2125 34.6739 37.0813 34.805 36.9195 34.805Z" fill="white"/>
<path d="M36.9195 40.5265H34.8008C34.639 40.5265 34.5078 40.3953 34.5078 40.2335V38.1147C34.5078 37.9529 34.639 37.8218 34.8008 37.8218H36.9195C37.0813 37.8218 37.2125 37.9529 37.2125 38.1147V40.2335C37.2125 40.3953 37.0813 40.5265 36.9195 40.5265Z" fill="white"/>
<path d="M42.6422 23.3624H40.5234C40.3616 23.3624 40.2305 23.2313 40.2305 23.0694V20.9507C40.2305 20.7889 40.3616 20.6577 40.5234 20.6577H42.6422C42.804 20.6577 42.9352 20.7889 42.9352 20.9507V23.0694C42.9352 23.2313 42.804 23.3624 42.6422 23.3624Z" fill="white"/>
<path d="M42.6422 29.0836H40.5234C40.3616 29.0836 40.2305 28.9524 40.2305 28.7906V26.6719C40.2305 26.5101 40.3616 26.3789 40.5234 26.3789H42.6422C42.804 26.3789 42.9352 26.5101 42.9352 26.6719V28.7906C42.9352 28.9524 42.804 29.0836 42.6422 29.0836Z" fill="white"/>
<path d="M42.6422 34.805H40.5234C40.3616 34.805 40.2305 34.6739 40.2305 34.5121V32.3933C40.2305 32.2315 40.3616 32.1003 40.5234 32.1003H42.6422C42.804 32.1003 42.9352 32.2315 42.9352 32.3933V34.5121C42.9352 34.6739 42.804 34.805 42.6422 34.805Z" fill="white"/>
<path d="M42.6422 40.5265H40.5234C40.3616 40.5265 40.2305 40.3953 40.2305 40.2335V38.1147C40.2305 37.9529 40.3616 37.8218 40.5234 37.8218H42.6422C42.804 37.8218 42.9352 37.9529 42.9352 38.1147V40.2335C42.9352 40.3953 42.804 40.5265 42.6422 40.5265Z" fill="white"/>
<path d="M27.8004 38.3911L25.9004 35.4311C25.5535 34.8907 24.9556 34.564 24.3135 34.564H19.5352V42.6577C20.0543 42.138 20.7714 41.8159 21.5622 41.8159C23.0623 41.8159 24.2961 42.9745 24.4178 44.4437H27.7583C27.9465 44.4437 28.099 44.2911 28.099 44.1029V39.4096C28.0991 39.0485 27.9954 38.695 27.8004 38.3911Z" fill="#E2DEE2"/>
<path d="M21.5622 41.7183C21.5684 41.7183 21.5744 41.7187 21.5805 41.7187V34.564H19.5352V42.5208C20.0652 42.0234 20.7779 41.7183 21.5622 41.7183Z" fill="#CBC4CC"/>
<path d="M23.9904 36.7476H22.0117C21.8499 36.7476 21.7188 36.8787 21.7188 37.0405V39.2041C21.7188 39.3659 21.8499 39.4971 22.0117 39.4971H25.3792C25.6109 39.4971 25.7509 39.2408 25.6258 39.0458L24.237 36.8822C24.1831 36.7983 24.0902 36.7476 23.9904 36.7476Z" fill="#C4E2FF"/>
<path d="M23.3383 39.2041V37.0405C23.3383 36.8787 23.4694 36.7476 23.6312 36.7476H22.0117C21.8499 36.7476 21.7188 36.8787 21.7188 37.0405V39.2041C21.7188 39.3659 21.8499 39.4971 22.0117 39.4971H23.6312C23.4694 39.4971 23.3383 39.3659 23.3383 39.2041Z" fill="#B3DAFE"/>
<path d="M25.3812 40.2295H22.0137C21.4482 40.2295 20.9883 39.7695 20.9883 39.2041V37.0405C20.9883 36.4751 21.4482 36.0151 22.0137 36.0151H23.9924C24.3432 36.0151 24.6657 36.1914 24.8553 36.4866L26.244 38.6503C26.4467 38.9659 26.4608 39.3666 26.281 39.6958C26.1011 40.025 25.7562 40.2295 25.3812 40.2295ZM22.4531 38.7646H24.5769L23.7522 37.48H22.4531V38.7646Z" fill="#B5ADB6"/>
<path d="M6.91211 41.816C8.41221 41.816 9.646 42.9746 9.76768 44.4437H18.7059C18.7634 43.7491 19.0689 43.1238 19.5344 42.6577V30.2827C19.5344 30.0131 19.3157 29.7944 19.0461 29.7944H1.28516C1.01553 29.7944 0.796875 30.0131 0.796875 30.2827V43.9555C0.796875 44.2251 1.01553 44.4437 1.28516 44.4437H4.05654C4.17822 42.9746 5.41201 41.816 6.91211 41.816Z" fill="#FED402"/>
<path d="M4.11992 44.0371C4.11543 44.0104 4.11172 43.9834 4.11172 43.9555V30.2827C4.11172 30.0131 4.33037 29.7944 4.6 29.7944H1.28516C1.01553 29.7944 0.796875 30.0131 0.796875 30.2827V43.9555C0.796875 44.2251 1.01553 44.4437 1.28516 44.4437H4.05654C4.06797 44.3052 4.08936 44.1695 4.11992 44.0371Z" fill="#FAC600"/>
<path d="M13.8653 37.3777H6.4668C6.0623 37.3777 5.73438 37.0499 5.73438 36.6453C5.73438 36.2407 6.0623 35.9128 6.4668 35.9128H13.8653C14.2698 35.9128 14.5978 36.2407 14.5978 36.6453C14.5978 37.0499 14.2698 37.3777 13.8653 37.3777Z" fill="white"/>
<path d="M5.07754 47.0114H8.74111C9.43027 46.4687 9.87324 45.6274 9.87324 44.6822C9.87324 43.0453 8.54629 41.7183 6.90928 41.7183C5.27236 41.7183 3.94531 43.0452 3.94531 44.6822C3.94541 45.6275 4.38848 46.4687 5.07754 47.0114Z" fill="#7A6D79"/>
<path d="M5.07754 47.0114H7.57441C6.88447 46.4689 6.44023 45.6281 6.44023 44.6822C6.44023 43.491 7.14326 42.4646 8.15674 41.9936C7.77754 41.8173 7.35508 41.7183 6.90928 41.7183C5.27236 41.7183 3.94531 43.0452 3.94531 44.6822C3.94541 45.6275 4.38848 46.4687 5.07754 47.0114Z" fill="#685E68"/>
<path d="M6.9082 45.4148C7.31271 45.4148 7.64062 45.0869 7.64062 44.6824C7.64062 44.2779 7.31271 43.95 6.9082 43.95C6.5037 43.95 6.17578 44.2779 6.17578 44.6824C6.17578 45.0869 6.5037 45.4148 6.9082 45.4148Z" fill="#B5ADB6"/>
<path d="M19.7299 47.0114H23.3935C24.0826 46.4687 24.5256 45.6274 24.5256 44.6822C24.5256 43.0453 23.1986 41.7183 21.5616 41.7183C19.9246 41.7183 18.5977 43.0452 18.5977 44.6822C18.5978 45.6275 19.0408 46.4687 19.7299 47.0114Z" fill="#7A6D79"/>
<path d="M19.7298 47.0114H22.2258C21.5358 46.4689 21.0916 45.6281 21.0916 44.6822C21.0916 43.4908 21.7948 42.4644 22.8086 41.9934C22.4295 41.8172 22.0072 41.7183 21.5616 41.7183C19.9247 41.7183 18.5977 43.0452 18.5977 44.6822C18.5977 45.6275 19.0407 46.4687 19.7298 47.0114Z" fill="#685E68"/>
<path d="M21.5605 45.4148C21.9651 45.4148 22.293 45.0869 22.293 44.6824C22.293 44.2779 21.9651 43.95 21.5605 43.95C21.156 43.95 20.8281 44.2779 20.8281 44.6824C20.8281 45.0869 21.156 45.4148 21.5605 45.4148Z" fill="#B5ADB6"/>
<path d="M49.2676 48.3784H0.732422C0.32793 48.3784 0 48.0506 0 47.646C0 47.2414 0.32793 46.9136 0.732422 46.9136H49.2676C49.6722 46.9136 50 47.2414 50 47.646C50 48.0506 49.6722 48.3784 49.2676 48.3784Z" fill="#CBC4CC"/>
<path d="M9.91211 25.9589C9.66455 25.9589 9.42041 25.9443 9.17969 25.918V32.6972C9.17969 33.1018 9.50762 33.4296 9.91211 33.4296C10.3166 33.4296 10.6445 33.1018 10.6445 32.6972V25.918C10.4038 25.9443 10.1597 25.9589 9.91211 25.9589Z" fill="#C4E2FF"/>
<path d="M9.91211 26.0566C13.6605 26.0566 16.6992 23.0179 16.6992 19.2695C16.6992 15.5211 13.6605 12.4824 9.91211 12.4824C6.16369 12.4824 3.125 15.5211 3.125 19.2695C3.125 23.0179 6.16369 26.0566 9.91211 26.0566Z" fill="#C4E2FF"/>
<path d="M7.12891 19.2695C7.12891 16.218 9.14287 13.6372 11.9141 12.7829C11.2812 12.5878 10.609 12.4824 9.91211 12.4824C6.16367 12.4824 3.125 15.5211 3.125 19.2695C3.125 23.018 6.16367 26.0566 9.91211 26.0566C10.609 26.0566 11.2812 25.9513 11.9141 25.7562C9.14287 24.9019 7.12891 22.3211 7.12891 19.2695Z" fill="#B3DAFE"/>
<path d="M13.377 17.3643L9.8125 19.2102V22.8758L9.91016 23.0607L13.5706 21.1651V17.3739L13.377 17.3643Z" fill="white"/>
<path d="M6.41309 17.3484L6.25 17.3739V21.1651L9.91045 23.0607V19.1595L6.41309 17.3484Z" fill="#FE646F"/>
<path d="M6.25 17.374V21.1652L7.37305 21.7468V17.9556L6.25 17.374Z" fill="#FD4755"/>
<path d="M6.25 17.3739L9.91045 19.2695L13.5709 17.3739L9.91045 15.4783L6.25 17.3739Z" fill="#0593FC"/>
<path d="M41.3676 23.0692V20.9504C41.3676 20.7886 41.4987 20.6575 41.6605 20.6575H40.5234C40.3616 20.6575 40.2305 20.7886 40.2305 20.9504V23.0692C40.2305 23.231 40.3616 23.3622 40.5234 23.3622H41.6605C41.4987 23.3622 41.3676 23.231 41.3676 23.0692Z" fill="#F3F0F3"/>
<path d="M35.6449 28.7906V26.6719C35.6449 26.5101 35.7761 26.3789 35.9379 26.3789H34.8008C34.639 26.3789 34.5078 26.5101 34.5078 26.6719V28.7906C34.5078 28.9524 34.639 29.0836 34.8008 29.0836H35.9379C35.7761 29.0836 35.6449 28.9524 35.6449 28.7906Z" fill="#F3F0F3"/>
<path d="M41.3676 28.7906V26.6719C41.3676 26.5101 41.4987 26.3789 41.6605 26.3789H40.5234C40.3616 26.3789 40.2305 26.5101 40.2305 26.6719V28.7906C40.2305 28.9524 40.3616 29.0836 40.5234 29.0836H41.6605C41.4987 29.0836 41.3676 28.9524 41.3676 28.7906Z" fill="#F3F0F3"/>
<path d="M35.6449 34.5118V32.3931C35.6449 32.2313 35.7761 32.1001 35.9379 32.1001H34.8008C34.639 32.1001 34.5078 32.2313 34.5078 32.3931V34.5118C34.5078 34.6736 34.639 34.8048 34.8008 34.8048H35.9379C35.7761 34.8048 35.6449 34.6736 35.6449 34.5118Z" fill="#F3F0F3"/>
<path d="M41.3676 34.5121V32.3933C41.3676 32.2315 41.4987 32.1003 41.6605 32.1003H40.5234C40.3616 32.1003 40.2305 32.2315 40.2305 32.3933V34.5121C40.2305 34.6739 40.3616 34.805 40.5234 34.805H41.6605C41.4987 34.805 41.3676 34.6739 41.3676 34.5121Z" fill="#F3F0F3"/>
<path d="M35.6449 40.2335V38.1147C35.6449 37.9529 35.7761 37.8218 35.9379 37.8218H34.8008C34.639 37.8218 34.5078 37.9529 34.5078 38.1147V40.2335C34.5078 40.3953 34.639 40.5265 34.8008 40.5265H35.9379C35.7761 40.5265 35.6449 40.3953 35.6449 40.2335Z" fill="#F3F0F3"/>
<path d="M41.3676 40.2335V38.1147C41.3676 37.9529 41.4987 37.8218 41.6605 37.8218H40.5234C40.3616 37.8218 40.2305 37.9529 40.2305 38.1147V40.2335C40.2305 40.3953 40.3616 40.5265 40.5234 40.5265H41.6605C41.4987 40.5265 41.3676 40.3953 41.3676 40.2335Z" fill="#F3F0F3"/>
<path d="M26.0668 7.25742V5.13867C26.0668 4.97686 26.1979 4.8457 26.3598 4.8457H25.2227C25.0608 4.8457 24.9297 4.97686 24.9297 5.13867V7.25742C24.9297 7.41924 25.0608 7.55039 25.2227 7.55039H26.3598C26.1979 7.55039 26.0668 7.41924 26.0668 7.25742Z" fill="#F3F0F3"/>
<path d="M31.6879 7.25742V5.13867C31.6879 4.97686 31.819 4.8457 31.9809 4.8457H30.8438C30.6819 4.8457 30.5508 4.97686 30.5508 5.13867V7.25742C30.5508 7.41924 30.6819 7.55039 30.8438 7.55039H31.9809C31.819 7.55039 31.6879 7.41924 31.6879 7.25742Z" fill="#F3F0F3"/>
<path d="M37.3012 7.25742V5.13867C37.3012 4.97686 37.4323 4.8457 37.5941 4.8457H36.457C36.2952 4.8457 36.1641 4.97686 36.1641 5.13867V7.25742C36.1641 7.41924 36.2952 7.55039 36.457 7.55039H37.5941C37.4323 7.55039 37.3012 7.41924 37.3012 7.25742Z" fill="#F3F0F3"/>
<path d="M26.0668 12.9786V10.8599C26.0668 10.698 26.1979 10.5669 26.3598 10.5669H25.2227C25.0608 10.5669 24.9297 10.698 24.9297 10.8599V12.9786C24.9297 13.1404 25.0608 13.2716 25.2227 13.2716H26.3598C26.1979 13.2716 26.0668 13.1404 26.0668 12.9786Z" fill="#F3F0F3"/>
<path d="M26.0668 18.7003V16.5815C26.0668 16.4197 26.1979 16.2886 26.3598 16.2886H25.2227C25.0608 16.2886 24.9297 16.4197 24.9297 16.5815V18.7003C24.9297 18.8621 25.0608 18.9933 25.2227 18.9933H26.3598C26.1979 18.9933 26.0668 18.8621 26.0668 18.7003Z" fill="#F3F0F3"/>
<path d="M26.0668 24.4215V22.3027C26.0668 22.1409 26.1979 22.0098 26.3598 22.0098H25.2227C25.0608 22.0098 24.9297 22.1409 24.9297 22.3027V24.4215C24.9297 24.5833 25.0608 24.7145 25.2227 24.7145H26.3598C26.1979 24.7145 26.0668 24.5833 26.0668 24.4215Z" fill="#F3F0F3"/>
<path d="M26.0668 30.1429V28.0242C26.0668 27.8624 26.1979 27.7312 26.3598 27.7312H25.2227C25.0608 27.7312 24.9297 27.8624 24.9297 28.0242V30.1429C24.9297 30.3047 25.0608 30.4359 25.2227 30.4359H26.3598C26.1979 30.4359 26.0668 30.3047 26.0668 30.1429Z" fill="#F3F0F3"/>
<path d="M31.6879 12.9786V10.8599C31.6879 10.698 31.819 10.5669 31.9809 10.5669H30.8438C30.6819 10.5669 30.5508 10.698 30.5508 10.8599V12.9786C30.5508 13.1404 30.6819 13.2716 30.8438 13.2716H31.9809C31.819 13.2716 31.6879 13.1404 31.6879 12.9786Z" fill="#F3F0F3"/>
<path d="M37.3012 12.9786V10.8599C37.3012 10.698 37.4323 10.5669 37.5941 10.5669H36.457C36.2952 10.5669 36.1641 10.698 36.1641 10.8599V12.9786C36.1641 13.1404 36.2952 13.2716 36.457 13.2716H37.5941C37.4323 13.2716 37.3012 13.1404 37.3012 12.9786Z" fill="#F3F0F3"/>
</svg>
