<svg width="278" height="192" viewBox="0 0 278 192" fill="none" xmlns="http://www.w3.org/2000/svg">
<path d="M136.05 192C188.874 192 231.696 187.967 231.696 182.993C231.696 178.019 188.874 173.986 136.05 173.986C83.2263 173.986 40.4043 178.019 40.4043 182.993C40.4043 187.967 83.2263 192 136.05 192Z" fill="#D2D9DC"/>
<path d="M163.767 183.468H108.332L117.868 156.062H154.238L163.767 183.468Z" fill="#839299"/>
<path opacity="0.19" d="M163.767 183.468H108.332L117.868 156.062H154.238L163.767 183.468Z" fill="#2D2F31"/>
<path d="M215.016 168.629H57.0931C51.6488 168.629 47.2354 164.228 47.2354 158.799V71.4111H224.874V158.799C224.874 164.228 220.461 168.629 215.016 168.629Z" fill="#D2D9DC"/>
<path d="M224.874 147.41H47.2354V52.004C47.2354 48.3808 50.1862 45.4385 53.8201 45.4385H218.289C221.923 45.4385 224.874 48.3808 224.874 52.004V147.41Z" fill="#002548"/>
<path d="M136.052 162.647C138.909 162.647 141.225 160.338 141.225 157.489C141.225 154.64 138.909 152.33 136.052 152.33C133.194 152.33 130.878 154.64 130.878 157.489C130.878 160.338 133.194 162.647 136.052 162.647Z" fill="#839299"/>
<path d="M218.172 52.248V78.5359L175.732 137.523L53.9346 100.031V52.248H218.172Z" fill="#0054A6"/>
<path d="M53.9346 100.032C53.9346 100.032 78.4436 79.3649 103.288 91.9691C128.132 104.573 132.616 129.853 165.92 127.321C200.106 124.72 177.324 82.7183 218.172 78.5361V140.594H53.9346V100.032Z" fill="#0054A6"/>
<path d="M53.9346 52.248C53.9346 52.248 60.1649 76.2424 99.7891 70.5634C136.05 65.3663 134.201 100.731 157.924 102.003C181.64 103.275 188.618 77.9256 197.361 69.0473C206.104 60.1627 218.178 61.6852 218.178 61.6852V52.2545H53.9346V52.248Z" fill="#D2D9DC"/>
<path d="M78.438 80.0975C78.8757 80.0975 79.2305 79.7696 79.2305 79.3652C79.2305 78.9607 78.8757 78.6328 78.438 78.6328C78.0003 78.6328 77.6455 78.9607 77.6455 79.3652C77.6455 79.7696 78.0003 80.0975 78.438 80.0975Z" fill="#D2D9DC"/>
<path d="M129.808 104.977C129.808 105.382 129.453 105.71 129.015 105.71C128.577 105.71 128.223 105.382 128.223 104.977C128.223 104.573 128.577 104.245 129.015 104.245C129.453 104.245 129.808 104.573 129.808 104.977Z" fill="#D2D9DC"/>
<path d="M109.704 70.9361H74.0226C72.8307 70.9361 71.8643 69.9724 71.8643 68.784V55.4216C71.8643 54.2332 72.8307 53.2695 74.0226 53.2695H109.704C110.896 53.2695 111.862 54.2332 111.862 55.4216V68.784C111.862 69.9724 110.896 70.9361 109.704 70.9361Z" fill="#002548"/>
<path d="M79.5328 58.8457H75.1709V63.1885H79.5328V58.8457Z" fill="#839299"/>
<path d="M81.7174 61.0166H77.3555V65.3594H81.7174V61.0166Z" fill="#839299"/>
<path d="M88.483 58.8457H84.1211V63.1885H88.483V58.8457Z" fill="#839299"/>
<path d="M90.6597 61.0166H86.2979V65.3594H90.6597V61.0166Z" fill="#F9FAFB"/>
<path d="M97.4322 58.8457V61.0171H95.248V63.1885H93.0703V58.8457H97.4322Z" fill="#F9FAFB"/>
<path d="M97.4312 61.0166H95.2471V63.188H97.4312V61.0166Z" fill="#839299"/>
<path d="M99.6089 61.0166V65.3594H95.2471V63.188H97.4312V61.0166H99.6089Z" fill="#F9FAFB"/>
<path d="M106.381 58.8457V61.0171H104.197V63.1885H102.013V58.8457H106.381Z" fill="#839299"/>
<path d="M106.381 61.0166H104.197V63.188H106.381V61.0166Z" fill="#F9FAFB"/>
<path d="M108.559 61.0166V65.3594H104.197V63.188H106.381V61.0166H108.559Z" fill="#839299"/>
<path d="M39 72.1886V33.9775C39 32.3265 40.3401 30.9902 41.996 30.9902H60.571C62.2268 30.9902 63.567 32.3265 63.567 33.9775V72.1886C63.567 73.8396 62.2268 75.1759 60.571 75.1759H41.996C40.3401 75.1759 39 73.8396 39 72.1886Z" fill="#ED1C24"/>
<path d="M60.1785 69.3368L57.7431 66.9149C58.1232 66.4652 58.3294 65.8999 58.3294 65.3024C58.3294 64.6279 58.0652 63.9919 57.5885 63.5165C56.5962 62.5336 54.9855 62.5336 53.9997 63.5165C53.5229 63.9919 53.2588 64.6279 53.2588 65.3024C53.2588 65.977 53.5229 66.6129 53.9997 67.0883C54.4958 67.583 55.1466 67.8271 55.7973 67.8271C56.3707 67.8271 56.9506 67.6344 57.4145 67.2489L59.8499 69.6709L60.1785 69.3368ZM54.3283 66.7607C53.9353 66.3752 53.7227 65.8549 53.7227 65.3088C53.7227 64.7628 53.9353 64.2424 54.3283 63.857C54.7342 63.4587 55.2625 63.2531 55.7909 63.2531C56.3192 63.2531 56.8475 63.4522 57.2534 63.857C57.6464 64.2424 57.8591 64.7628 57.8591 65.3088C57.8591 65.8549 57.6464 66.3752 57.2534 66.7607C56.4481 67.5573 55.1337 67.5573 54.3283 66.7607Z" fill="#F9FAFB"/>
<path d="M56.752 52.1063C55.966 52.1063 55.1799 51.8108 54.5807 51.2133C54.0009 50.6351 53.6787 49.8706 53.6787 49.0548C53.6787 48.2389 54.0009 47.468 54.5807 46.8962C55.7791 45.7078 57.7249 45.7078 58.9233 46.8962C59.5031 47.4744 59.8253 48.2389 59.8253 49.0548C59.8253 49.8706 59.5031 50.6415 58.9233 51.2133C58.3241 51.8108 57.538 52.1063 56.752 52.1063ZM56.752 46.4722C56.0884 46.4722 55.4248 46.7228 54.9158 47.2303C54.4261 47.7185 54.1555 48.3674 54.1555 49.0548C54.1555 49.7422 54.4261 50.391 54.9158 50.8792C55.9273 51.8878 57.5767 51.8878 58.5882 50.8792C59.0779 50.391 59.3485 49.7422 59.3485 49.0548C59.3485 48.3674 59.0779 47.7185 58.5882 47.2303C58.0792 46.7228 57.4156 46.4722 56.752 46.4722Z" fill="#F9FAFB"/>
<path d="M58.8445 55.2365L54.3154 59.7422L54.6522 60.0787L59.1812 55.5731L58.8445 55.2365Z" fill="#F9FAFB"/>
<path d="M43.3307 37.5882L47.3253 40.2414L45.0767 40.0422C45.0638 40.0422 45.0509 40.0422 45.0316 40.0422C44.8448 40.0422 44.6772 40.1514 44.5999 40.3185L43.6593 42.3614L43.3307 37.5882ZM42.7959 36.6631L43.3242 44.2372L45.0445 40.5176L49.1422 40.8838L42.7959 36.6631Z" fill="#F9FAFB"/>
<path d="M53.5752 36.6631L54.11 44.2372L55.8238 40.5176L59.9279 40.8774L53.5752 36.6631Z" fill="#F9FAFB"/>
<path d="M43.3301 55.1328V56.3341H43.8069V55.6018H45.7269V59.7133H45.0117V60.1822H46.9252V59.7133H46.2036V55.6018H48.1236V56.3341H48.6004V55.1328H43.3301Z" fill="#F9FAFB"/>
<path d="M46.9099 47.8762L42.3809 52.3818L42.7176 52.7184L47.2466 48.2127L46.9099 47.8762Z" fill="#F9FAFB"/>
<path d="M46.4667 47.083C45.8289 47.083 45.3134 47.5969 45.3134 48.2265C45.3134 47.5969 44.798 47.083 44.1602 47.083C44.798 47.083 45.3134 46.569 45.3134 45.9395C45.3134 46.569 45.8289 47.083 46.4667 47.083Z" fill="#F9FAFB"/>
<path d="M48.7289 46.4214C48.2521 46.4214 47.8591 46.8068 47.8591 47.2822C47.8591 46.8068 47.4725 46.4214 46.9893 46.4214C47.466 46.4214 47.8591 46.0359 47.8591 45.5605C47.8591 46.0359 48.2456 46.4214 48.7289 46.4214Z" fill="#F9FAFB"/>
<path d="M49.3802 48.561C48.9034 48.561 48.5104 48.9465 48.5104 49.4219C48.5104 48.9465 48.1238 48.561 47.6406 48.561C48.1174 48.561 48.5104 48.1756 48.5104 47.7002C48.5104 48.1756 48.9034 48.561 49.3802 48.561Z" fill="#F9FAFB"/>
<path d="M48.9931 63.2528C48.787 63.0472 48.4519 63.0472 48.2458 63.2528L47.6466 63.8438L47.4275 63.6254C47.2213 63.4198 46.8863 63.4198 46.6801 63.6254C46.5062 63.7989 46.4804 64.0558 46.5964 64.255L42.8466 67.981C42.6597 68.1673 42.5566 68.4114 42.5566 68.6748C42.5566 68.9382 42.6597 69.1823 42.8466 69.3686C43.0399 69.5614 43.2911 69.6577 43.5424 69.6577C43.7937 69.6577 44.045 69.5614 44.2383 69.3686L47.9881 65.6426C48.1878 65.7583 48.4519 65.7261 48.6195 65.5591C48.8256 65.3535 48.8256 65.0195 48.6195 64.8139L48.4004 64.5955L48.9996 64.0044C49.1993 63.7924 49.1993 63.4584 48.9931 63.2528ZM43.8968 69.0346C43.697 69.2337 43.3749 69.2337 43.1752 69.0346C43.0785 68.9382 43.027 68.8097 43.027 68.6748C43.027 68.5399 43.0785 68.4114 43.1752 68.3151L46.9121 64.6019L47.6337 65.3214L43.8968 69.0346Z" fill="#F9FAFB"/>
<path d="M131.32 34.4659H74.957C73.8102 34.4659 72.876 33.5408 72.876 32.3909V21.701C72.876 20.5575 73.8038 19.626 74.957 19.626H131.32C132.467 19.626 133.401 20.5511 133.401 21.701V32.3973C133.395 33.5408 132.467 34.4659 131.32 34.4659Z" fill="#002548"/>
<path d="M77.2906 23.8398H76.7559V30.2576H77.2906V23.8398Z" fill="#D2D9DC"/>
<path d="M80.8529 24.5791H77.6895V26.3972H80.8529V24.5791Z" fill="#D2D9DC"/>
<path d="M82.0191 26.9375H77.6895V28.7555H82.0191V26.9375Z" fill="#D2D9DC"/>
<path d="M101.002 23.8398H100.467V30.2576H101.002V23.8398Z" fill="#D2D9DC"/>
<path d="M96.9 26.4033H100.063V24.5853H96.9V26.4033Z" fill="#D2D9DC"/>
<path d="M95.7338 28.7607H100.063V26.9427H95.7338V28.7607Z" fill="#D2D9DC"/>
<path d="M89.1451 23.8398H88.6104V30.2576H89.1451V23.8398Z" fill="#D2D9DC"/>
<path d="M90.8005 24.5791H86.9541V26.3972H90.8005V24.5791Z" fill="#D2D9DC"/>
<path d="M91.511 26.9375H86.2471V28.7555H91.511V26.9375Z" fill="#D2D9DC"/>
<path d="M120.169 26.7822H113.72V27.3154H120.169V26.7822Z" fill="#D2D9DC"/>
<path d="M119.426 28.9591V25.1367H117.596V28.9591H119.426Z" fill="#D2D9DC"/>
<path d="M117.055 29.6644V24.4287H115.225V29.6644H117.055Z" fill="#D2D9DC"/>
<path d="M110.815 23.834H104.365V24.3672H110.815V23.834Z" fill="#D2D9DC"/>
<path d="M109.686 28.5812V24.7588H107.856V28.5812H109.686Z" fill="#D2D9DC"/>
<path d="M107.319 29.9926V24.7568H105.49V29.9926H107.319Z" fill="#D2D9DC"/>
<path d="M129.524 29.7256H123.074V30.2588H129.524V29.7256Z" fill="#D2D9DC"/>
<path d="M126.57 25.5155V29.3379H128.4V25.5155H126.57Z" fill="#D2D9DC"/>
<path d="M124.199 24.1041V29.3398H126.029V24.1041H124.199Z" fill="#D2D9DC"/>
<path d="M65.1111 14.4994L63.378 13.4972C63.4746 12.9705 63.5326 12.4308 63.5326 11.8719C63.5326 11.313 63.4746 10.7734 63.378 10.2466L65.1111 9.24442C65.8199 8.83327 66.0647 7.92746 65.6523 7.2208L64.164 4.65112C63.7517 3.94446 62.8432 3.70034 62.1345 4.11149L61.2582 4.619C60.775 4.89524 60.1694 4.90166 59.7119 4.58045C59.2931 4.29136 58.8486 4.0344 58.3847 3.81597C57.8821 3.5847 57.5793 3.05792 57.5793 2.49901V1.48399C57.5793 0.668115 56.9157 0 56.091 0H53.1144C52.2961 0 51.626 0.661691 51.626 1.48399V2.49901C51.626 3.05149 51.3232 3.57828 50.8207 3.81597C50.3568 4.0344 49.9122 4.28494 49.4934 4.58045C49.036 4.89524 48.4303 4.89524 47.9471 4.619L47.0709 4.11149C46.3621 3.70034 45.4472 3.94446 45.0413 4.65112L43.553 7.2208C43.1407 7.92746 43.3855 8.83969 44.0942 9.24442L45.8274 10.2466C45.7307 10.7734 45.6727 11.313 45.6727 11.8719C45.6727 12.4308 45.7307 12.9705 45.8274 13.4972L44.0942 14.4994C43.3855 14.9106 43.1407 15.8164 43.553 16.523L45.0413 19.0927C45.4537 19.7994 46.3621 20.0435 47.0709 19.6323L47.9471 19.1248C48.4303 18.8486 49.036 18.8422 49.4934 19.1634C49.9122 19.4525 50.3568 19.7094 50.8207 19.9279C51.3232 20.1591 51.626 20.6859 51.626 21.2448V22.2598C51.626 23.0757 52.2897 23.7438 53.1144 23.7438H56.091C56.9093 23.7438 57.5793 23.0821 57.5793 22.2598V21.2448C57.5793 20.6923 57.8821 20.1656 58.3847 19.9279C58.8486 19.7094 59.2931 19.4589 59.7119 19.1634C60.1694 18.8486 60.775 18.8486 61.2582 19.1248L62.1345 19.6323C62.8432 20.0435 63.7581 19.7994 64.164 19.0927L65.6523 16.523C66.0647 15.8164 65.8199 14.9106 65.1111 14.4994ZM54.6091 17.8079C51.3232 17.8079 48.6623 15.1547 48.6623 11.8783C48.6623 8.602 51.3232 5.94881 54.6091 5.94881C57.895 5.94881 60.556 8.602 60.556 11.8783C60.556 15.1547 57.895 17.8079 54.6091 17.8079Z" fill="#D2D9DC"/>
<path d="M238.153 90.8572L236.8 90.0799C236.877 89.6687 236.922 89.2447 236.922 88.8143C236.922 88.3839 236.877 87.9599 236.8 87.5487L238.153 86.7714C238.707 86.4502 238.9 85.7436 238.578 85.1911L237.419 83.1867C237.096 82.6342 236.388 82.4415 235.834 82.7627L235.151 83.1546C234.777 83.373 234.3 83.373 233.946 83.1289C233.617 82.9041 233.276 82.7049 232.915 82.5379C232.522 82.358 232.284 81.9469 232.284 81.51V80.7198C232.284 80.0838 231.762 79.5635 231.124 79.5635H228.804C228.166 79.5635 227.645 80.0838 227.645 80.7198V81.51C227.645 81.9404 227.413 82.3516 227.02 82.5379C226.659 82.7049 226.311 82.9041 225.989 83.1289C225.634 83.3795 225.158 83.373 224.784 83.1546L224.101 82.7627C223.547 82.4415 222.838 82.6342 222.516 83.1867L221.356 85.1911C221.034 85.7436 221.227 86.4502 221.782 86.7714L223.135 87.5487C223.057 87.9599 223.012 88.3839 223.012 88.8143C223.012 89.2447 223.057 89.6687 223.135 90.0799L221.782 90.8572C221.227 91.1784 221.034 91.8851 221.356 92.4376L222.516 94.4419C222.838 94.9944 223.547 95.1871 224.101 94.8659L224.784 94.474C225.158 94.2556 225.634 94.2556 225.989 94.4997C226.317 94.7246 226.659 94.9237 227.02 95.0908C227.413 95.2706 227.651 95.6818 227.651 96.1186V96.9088C227.651 97.5448 228.173 98.0652 228.811 98.0652H231.13C231.768 98.0652 232.29 97.5448 232.29 96.9088V96.1186C232.29 95.6882 232.522 95.2771 232.915 95.0908C233.276 94.9237 233.624 94.7246 233.946 94.4997C234.3 94.2492 234.777 94.2556 235.151 94.474L235.834 94.8659C236.388 95.1871 237.096 94.9944 237.419 94.4419L238.578 92.4376C238.894 91.8787 238.707 91.172 238.153 90.8572ZM229.964 93.4333C227.406 93.4333 225.325 91.3647 225.325 88.8079C225.325 86.2575 227.4 84.1825 229.964 84.1825C232.522 84.1825 234.603 86.2511 234.603 88.8079C234.603 91.3647 232.528 93.4333 229.964 93.4333Z" fill="#839299"/>
<path d="M178.212 183.469H93.8936C93.8936 180.648 96.1872 178.361 99.0157 178.361H173.084C175.919 178.361 178.212 180.648 178.212 183.469Z" fill="#839299"/>
<path opacity="0.19" d="M53.9346 100.032C53.9346 100.032 78.4436 79.3649 103.288 91.9691C128.132 104.573 132.616 129.853 165.92 127.321C200.106 124.72 177.324 82.7183 218.172 78.5361V140.594H53.9346V100.032Z" fill="#2D2F31"/>
<path d="M166.861 126.409H164.979V128.144H166.861V126.409Z" fill="#D2D9DC"/>
<path d="M132.618 130.006C132.528 130.006 132.457 129.942 132.444 129.859C132.437 129.769 132.508 129.692 132.598 129.685L200.269 124.54C200.365 124.533 200.449 124.597 200.456 124.687C200.462 124.777 200.391 124.854 200.301 124.861L132.631 130.006C132.624 130.006 132.618 130.006 132.618 130.006Z" fill="#D2D9DC"/>
<path d="M133.409 129.852C133.409 130.257 133.055 130.585 132.617 130.585C132.179 130.585 131.824 130.257 131.824 129.852C131.824 129.448 132.179 129.12 132.617 129.12C133.055 129.12 133.409 129.448 133.409 129.852Z" fill="#D2D9DC"/>
<path d="M201.08 124.7C201.08 125.105 200.726 125.432 200.288 125.432C199.849 125.432 199.495 125.105 199.495 124.7C199.495 124.295 199.849 123.968 200.288 123.968C200.726 123.974 201.08 124.302 201.08 124.7Z" fill="#D2D9DC"/>
<path d="M129.014 105.138C128.988 105.138 128.956 105.132 128.93 105.119L78.353 79.5055C78.2693 79.4605 78.237 79.3641 78.2821 79.287C78.3272 79.2099 78.4303 79.1842 78.5141 79.2228L129.091 104.836C129.175 104.881 129.207 104.977 129.162 105.054C129.13 105.106 129.072 105.138 129.014 105.138Z" fill="#D2D9DC"/>
<path d="M103.725 90.7422H101.844V92.4767H103.725V90.7422Z" fill="#D2D9DC"/>
</svg>
