<svg width="278" height="192" viewBox="0 0 278 192" fill="none" xmlns="http://www.w3.org/2000/svg">
<path d="M222.378 41.9423L217.383 39.0503C217.668 37.5226 217.83 35.9541 217.83 34.3528C217.83 32.7516 217.66 31.1749 217.383 29.6554L222.378 26.7633C224.42 25.5788 225.128 22.9482 223.94 20.8976L219.661 13.4552C218.481 11.4046 215.862 10.6939 213.82 11.8867L211.29 13.349C209.907 14.1496 208.158 14.1578 206.848 13.2428C205.644 12.4013 204.375 11.6579 203.033 11.037C201.576 10.359 200.714 8.83125 200.714 7.23002V4.29717C200.714 1.92801 198.794 0 196.435 0H187.877C185.518 0 183.598 1.92801 183.598 4.29717V7.23002C183.598 8.83942 182.736 10.359 181.288 11.037C179.945 11.6661 178.676 12.4013 177.472 13.2428C176.163 14.1659 174.413 14.1496 173.031 13.349L170.501 11.8867C168.459 10.7021 165.839 11.4046 164.66 13.4552L160.38 20.8976C159.201 22.9482 159.901 25.5788 161.942 26.7633L166.937 29.6554C166.653 31.1831 166.49 32.7516 166.49 34.3528C166.49 35.9541 166.661 37.5308 166.937 39.0503L161.942 41.9423C159.901 43.1269 159.193 45.7575 160.38 47.808L164.66 55.2505C165.839 57.301 168.459 58.0117 170.501 56.819L173.031 55.3567C174.413 54.556 176.163 54.5479 177.472 55.4629C178.676 56.3043 179.945 57.0477 181.288 57.6686C182.744 58.3467 183.606 59.8744 183.606 61.4756V64.4085C183.606 66.7776 185.526 68.7057 187.885 68.7057H196.443C198.802 68.7057 200.722 66.7776 200.722 64.4085V61.4756C200.722 59.8662 201.585 58.3467 203.033 57.6686C204.375 57.0396 205.644 56.3043 206.848 55.4629C208.158 54.5397 209.907 54.556 211.29 55.3567L213.82 56.819C215.862 58.0036 218.481 57.301 219.661 55.2505L223.94 47.808C225.128 45.7575 224.42 43.1269 222.378 41.9423ZM192.172 51.5333C182.719 51.5333 175.064 43.8376 175.064 34.3528C175.064 24.868 182.728 17.1723 192.172 17.1723C201.617 17.1723 209.28 24.868 209.28 34.3528C209.28 43.8376 201.617 51.5333 192.172 51.5333Z" fill="#D2D9DC"/>
<path d="M61.8668 143.048L57.7098 140.638C57.9457 139.372 58.084 138.065 58.084 136.725C58.084 135.385 57.9457 134.078 57.7098 132.812L61.8668 130.402C63.567 129.413 64.1527 127.224 63.1684 125.516L59.6052 119.324C58.6209 117.616 56.4407 117.028 54.7405 118.017L52.6335 119.234C51.4783 119.904 50.0303 119.912 48.9402 119.144C47.9395 118.442 46.882 117.829 45.7593 117.306C44.5472 116.742 43.8313 115.468 43.8313 114.136V111.693C43.8313 109.716 42.2369 108.115 40.2682 108.115H33.1418C31.1732 108.115 29.5787 109.716 29.5787 111.693V114.136C29.5787 115.476 28.8628 116.742 27.6507 117.306C26.5362 117.829 25.4705 118.442 24.4699 119.144C23.3798 119.912 21.9236 119.904 20.7765 119.234L18.6695 118.017C16.9693 117.028 14.7891 117.616 13.8048 119.324L10.2416 125.516C9.25726 127.224 9.84299 129.413 11.5432 130.402L15.7002 132.812C15.4643 134.078 15.326 135.385 15.326 136.725C15.326 138.065 15.4643 139.372 15.7002 140.638L11.5432 143.048C9.84299 144.037 9.25726 146.226 10.2416 147.933L13.8048 154.126C14.7891 155.833 16.9693 156.422 18.6695 155.433L20.7765 154.216C21.9317 153.546 23.3798 153.538 24.4699 154.306C25.4705 155.008 26.528 155.621 27.6507 156.144C28.8628 156.708 29.5787 157.982 29.5787 159.314V161.756C29.5787 163.733 31.1732 165.335 33.1418 165.335H40.2682C42.2369 165.335 43.8313 163.733 43.8313 161.756V159.314C43.8313 157.974 44.5472 156.708 45.7593 156.144C46.8739 155.621 47.9395 155.008 48.9402 154.306C50.0303 153.538 51.4864 153.546 52.6335 154.216L54.7405 155.433C56.4407 156.422 58.6209 155.833 59.6052 154.126L63.1684 147.933C64.1527 146.226 63.567 144.037 61.8668 143.048ZM36.7131 151.03C28.8465 151.03 22.4686 144.625 22.4686 136.725C22.4686 128.825 28.8465 122.42 36.7131 122.42C44.5798 122.42 50.9577 128.825 50.9577 136.725C50.9577 144.625 44.5798 151.03 36.7131 151.03Z" fill="#839299"/>
<path d="M260.632 88.4759L257.517 86.6705C257.695 85.7228 257.793 84.7425 257.793 83.7376C257.793 82.7327 257.687 81.7606 257.517 80.8047L260.632 78.9993C261.909 78.2559 262.349 76.622 261.608 75.3393L258.94 70.699C258.2 69.4164 256.573 68.9753 255.296 69.7187L253.717 70.6337C252.855 71.132 251.765 71.1402 250.952 70.5683C250.203 70.0455 249.406 69.5798 248.568 69.1877C247.657 68.7629 247.12 67.8152 247.12 66.8104V64.9804C247.12 63.5017 245.924 62.3008 244.452 62.3008H239.115C237.643 62.3008 236.447 63.5017 236.447 64.9804V66.8104C236.447 67.8152 235.91 68.7629 235.007 69.1877C234.169 69.5798 233.38 70.0373 232.623 70.5683C231.81 71.1402 230.711 71.1402 229.857 70.6337L228.279 69.7187C227.002 68.9753 225.367 69.4164 224.635 70.699L221.966 75.3393C221.226 76.622 221.665 78.264 222.942 78.9993L226.058 80.8047C225.879 81.7524 225.782 82.7327 225.782 83.7376C225.782 84.7425 225.887 85.7146 226.058 86.6705L222.942 88.4759C221.665 89.2193 221.226 90.8532 221.966 92.1359L224.635 96.7762C225.375 98.0588 227.002 98.4999 228.279 97.7565L229.857 96.8415C230.72 96.3432 231.81 96.335 232.623 96.9069C233.372 97.4297 234.169 97.8954 235.007 98.2875C235.918 98.7123 236.455 99.66 236.455 100.665V102.495C236.455 103.973 237.651 105.174 239.123 105.174H244.46C245.932 105.174 247.128 103.973 247.128 102.495V100.665C247.128 99.66 247.665 98.7123 248.568 98.2875C249.406 97.8954 250.195 97.4379 250.952 96.9069C251.765 96.335 252.863 96.335 253.717 96.8415L255.296 97.7565C256.573 98.4999 258.208 98.0588 258.94 96.7762L261.608 92.1359C262.341 90.8532 261.901 89.2193 260.632 88.4759ZM241.783 94.456C235.885 94.456 231.11 89.6605 231.11 83.7376C231.11 77.8147 235.885 73.0192 241.783 73.0192C247.681 73.0192 252.457 77.8147 252.457 83.7376C252.457 89.6605 247.681 94.456 241.783 94.456Z" fill="#D2D9DC"/>
<path d="M140.711 28.3481H30.5373C29.7563 28.3481 29.1299 27.7109 29.1299 26.9348C29.1299 26.1505 29.7644 25.5215 30.5373 25.5215H140.711C141.492 25.5215 142.118 26.1587 142.118 26.9348C142.118 27.7109 141.492 28.3481 140.711 28.3481Z" fill="#D2D9DC"/>
<path d="M140.711 38.4946H30.5373C29.7563 38.4946 29.1299 37.8574 29.1299 37.0813C29.1299 36.297 29.7644 35.668 30.5373 35.668H140.711C141.492 35.668 142.118 36.3052 142.118 37.0813C142.118 37.8574 141.492 38.4946 140.711 38.4946Z" fill="#D2D9DC"/>
<path d="M140.711 48.6411H30.5373C29.7563 48.6411 29.1299 48.0039 29.1299 47.2278C29.1299 46.4435 29.7644 45.8145 30.5373 45.8145H140.711C141.492 45.8145 142.118 46.4517 142.118 47.2278C142.118 48.0039 141.492 48.6411 140.711 48.6411Z" fill="#D2D9DC"/>
<path d="M141.052 58.7876H30.1956C29.6017 58.7876 29.1299 58.3056 29.1299 57.7174V57.0311C29.1299 56.4348 29.6099 55.9609 30.1956 55.9609H141.052C141.646 55.9609 142.118 56.4429 142.118 57.0311V57.7174C142.118 58.3056 141.646 58.7876 141.052 58.7876Z" fill="#D2D9DC"/>
<path d="M140.711 68.9341H30.5373C29.7563 68.9341 29.1299 68.2968 29.1299 67.5207C29.1299 66.7365 29.7644 66.1074 30.5373 66.1074H140.711C141.492 66.1074 142.118 66.7446 142.118 67.5207C142.118 68.2968 141.492 68.9341 140.711 68.9341Z" fill="#D2D9DC"/>
<path d="M140.711 79.0727H30.5373C29.7563 79.0727 29.1299 78.4355 29.1299 77.6594C29.1299 76.8751 29.7644 76.2461 30.5373 76.2461H140.711C141.492 76.2461 142.118 76.8833 142.118 77.6594C142.118 78.4437 141.492 79.0727 140.711 79.0727Z" fill="#D2D9DC"/>
<path d="M140.711 89.2192H30.5373C29.7563 89.2192 29.1299 88.582 29.1299 87.8059C29.1299 87.0216 29.7644 86.3926 30.5373 86.3926H140.711C141.492 86.3926 142.118 87.0298 142.118 87.8059C142.118 88.5902 141.492 89.2192 140.711 89.2192Z" fill="#D2D9DC"/>
<path d="M140.711 99.3657H30.5373C29.7563 99.3657 29.1299 98.7285 29.1299 97.9524C29.1299 97.1681 29.7644 96.5391 30.5373 96.5391H140.711C141.492 96.5391 142.118 97.1763 142.118 97.9524C142.118 98.7367 141.492 99.3657 140.711 99.3657Z" fill="#D2D9DC"/>
<path d="M140.711 109.512H30.5373C29.7563 109.512 29.1299 108.875 29.1299 108.099C29.1299 107.315 29.7644 106.686 30.5373 106.686H140.711C141.492 106.686 142.118 107.323 142.118 108.099C142.118 108.875 141.492 109.512 140.711 109.512Z" fill="#D2D9DC"/>
<path d="M141.386 181.036C188.053 181.036 225.885 177.448 225.885 173.022C225.885 168.596 188.053 165.008 141.386 165.008C94.7182 165.008 56.8867 168.596 56.8867 173.022C56.8867 177.448 94.7182 181.036 141.386 181.036Z" fill="#D2D9DC"/>
<path d="M165.873 173.447H116.899L125.319 149.069H157.453L165.873 173.447Z" fill="#839299"/>
<path opacity="0.19" d="M165.873 173.447H116.899L125.319 149.069H157.453L165.873 173.447Z" fill="#2D2F31"/>
<path d="M209.996 160.245H72.7735C67.3311 160.245 62.9219 155.817 62.9219 150.352V80.9026C62.9219 76.9485 66.1108 73.7461 70.0482 73.7461H212.721C216.659 73.7461 219.847 76.9485 219.847 80.9026V150.352C219.847 155.817 215.438 160.245 209.996 160.245Z" fill="#D2D9DC"/>
<path d="M219.847 141.365H62.9219V53.7719C62.9219 52.0399 64.3211 50.6348 66.0457 50.6348H216.724C218.448 50.6348 219.847 52.0399 219.847 53.7719V141.365Z" fill="#002548"/>
<path d="M141.388 154.927C143.913 154.927 145.96 152.871 145.96 150.335C145.96 147.8 143.913 145.744 141.388 145.744C138.862 145.744 136.815 147.8 136.815 150.335C136.815 152.871 138.862 154.927 141.388 154.927Z" fill="#839299"/>
<path d="M213.936 56.6963H68.8389V135.303H213.936V56.6963Z" fill="#D2D9DC"/>
<path d="M178.628 173.448H104.144C104.144 170.939 106.169 168.905 108.667 168.905H174.105C176.603 168.905 178.628 170.939 178.628 173.448Z" fill="#839299"/>
<path d="M211.641 192C230.574 192 245.922 189.794 245.922 187.074C245.922 184.353 230.574 182.147 211.641 182.147C192.708 182.147 177.359 184.353 177.359 187.074C177.359 189.794 192.708 192 211.641 192Z" fill="#D2D9DC"/>
<path d="M229.912 185.17H193.378C191.287 185.17 189.595 183.471 189.595 181.372V112.96C189.595 110.86 191.287 109.161 193.378 109.161H229.912C232.003 109.161 233.695 110.86 233.695 112.96V181.372C233.695 183.471 232.003 185.17 229.912 185.17Z" fill="#002548"/>
<path d="M233.695 114.463H189.595V179.574H233.695V114.463Z" fill="#0054A6"/>
<path d="M217.173 117.037H206.117C204.417 117.037 203.034 115.648 203.034 113.94H220.256C220.256 115.656 218.873 117.037 217.173 117.037Z" fill="#002548"/>
<path opacity="0.19" d="M215.635 114.463H207.662C207.377 114.463 207.149 114.234 207.149 113.948C207.149 113.662 207.377 113.434 207.662 113.434H215.635C215.92 113.434 216.147 113.662 216.147 113.948C216.147 114.226 215.92 114.463 215.635 114.463Z" fill="#F9FAFB"/>
<path d="M74.9893 59.5479H40.9277C39.8783 59.5479 39.0322 58.6983 39.0322 57.6444V23.4387C39.0322 22.3848 39.8783 21.5352 40.9277 21.5352H74.9893C76.0387 21.5352 76.8847 22.3848 76.8847 23.4387V57.6444C76.8847 58.6983 76.0387 59.5479 74.9893 59.5479Z" fill="#0054A6"/>
<path d="M74.9893 106.073H40.9277C39.8783 106.073 39.0322 105.224 39.0322 104.17V69.964C39.0322 68.9102 39.8783 68.0605 40.9277 68.0605H74.9893C76.0387 68.0605 76.8847 68.9102 76.8847 69.964V104.17C76.8847 105.224 76.0387 106.073 74.9893 106.073Z" fill="#0054A6"/>
<path d="M244.23 76.9158H198.324C196.364 76.9158 194.777 75.3228 194.777 73.3539V27.2533C194.777 25.2845 196.364 23.6914 198.324 23.6914H244.23C246.191 23.6914 247.777 25.2845 247.777 27.2533V73.3539C247.777 75.3146 246.191 76.9158 244.23 76.9158Z" fill="#0054A6"/>
<path d="M223.655 162.795H199.624C197.663 162.795 196.077 161.202 196.077 159.233V135.1C196.077 133.131 197.663 131.538 199.624 131.538H223.655C225.616 131.538 227.202 133.131 227.202 135.1V159.233C227.202 161.202 225.616 162.795 223.655 162.795Z" fill="#0054A6"/>
<path d="M181.094 104.317H90.7295C89.68 104.317 88.834 103.467 88.834 102.413V47.1301C88.834 46.0762 89.68 45.2266 90.7295 45.2266H181.094C182.143 45.2266 182.989 46.0762 182.989 47.1301V102.413C182.989 103.467 182.143 104.317 181.094 104.317Z" fill="#ED1C24"/>
<path d="M118.217 147.746H75.0683C74.0189 147.746 73.1729 146.896 73.1729 145.842V116.424C73.1729 115.37 74.0189 114.521 75.0683 114.521H118.217C119.266 114.521 120.112 115.37 120.112 116.424V145.842C120.104 146.896 119.258 147.746 118.217 147.746Z" fill="#0054A6"/>
<path d="M68.8706 89.8157L67.0647 88.77C67.1704 88.2226 67.2274 87.6508 67.2274 87.0707C67.2274 86.4907 67.1704 85.927 67.0647 85.3715L68.8706 84.3258C69.6109 83.901 69.8631 82.9451 69.4401 82.2017L67.8944 79.5139C67.4714 78.7705 66.5196 78.5172 65.7793 78.9421L64.8682 79.4731C64.3638 79.7672 63.7374 79.7672 63.2656 79.4322C62.8344 79.1299 62.3707 78.8604 61.8826 78.6316C61.3538 78.3865 61.0447 77.8392 61.0447 77.251V76.1889C61.0447 75.3311 60.3532 74.6367 59.499 74.6367H56.4077C55.5535 74.6367 54.862 75.3311 54.862 76.1889V77.251C54.862 77.831 54.5529 78.3865 54.0241 78.6316C53.5442 78.8604 53.0805 79.1218 52.6412 79.4322C52.1693 79.7672 51.5348 79.759 51.0386 79.4731L50.1274 78.9421C49.3871 78.5172 48.4435 78.7705 48.0123 79.5139L46.4667 82.2017C46.0436 82.9451 46.2958 83.8928 47.0361 84.3258L48.8421 85.3715C48.7363 85.9188 48.6794 86.4907 48.6794 87.0707C48.6794 87.6508 48.7363 88.2145 48.8421 88.77L47.0361 89.8157C46.2958 90.2405 46.0436 91.1963 46.4667 91.9398L48.0123 94.6275C48.4353 95.371 49.3871 95.6242 50.1274 95.1994L51.0386 94.6684C51.5429 94.3743 52.1693 94.3743 52.6412 94.7092C53.0723 95.0115 53.536 95.2811 54.0241 95.5098C54.5529 95.7549 54.862 96.3023 54.862 96.8905V97.9525C54.862 98.8103 55.5535 99.5047 56.4077 99.5047H59.499C60.3532 99.5047 61.0447 98.8103 61.0447 97.9525V96.8905C61.0447 96.3105 61.3538 95.7549 61.8826 95.5098C62.3626 95.2811 62.8263 95.0197 63.2656 94.7092C63.7374 94.3743 64.372 94.3824 64.8682 94.6684L65.7793 95.1994C66.5196 95.6242 67.4633 95.371 67.8944 94.6275L69.4401 91.9398C69.8631 91.1882 69.6109 90.2405 68.8706 89.8157ZM57.9534 93.2796C54.5366 93.2796 51.7707 90.5019 51.7707 87.0707C51.7707 83.6395 54.5366 80.8619 57.9534 80.8619C61.3701 80.8619 64.136 83.6395 64.136 87.0707C64.136 90.5019 61.3701 93.2796 57.9534 93.2796Z" fill="#F9FAFB"/>
<path d="M72.3594 26.0771H43.5449V55.0136H72.3594V26.0771Z" fill="#D2D9DC"/>
<path d="M51.0721 31.7061H48.4199V32.9315H51.0721V31.7061Z" fill="#F9FAFB"/>
<path d="M66.0231 31.7061H52.4619V32.9315H66.0231V31.7061Z" fill="#839299"/>
<path d="M52.5447 35.8145H48.4199V37.0399H52.5447V35.8145Z" fill="#F9FAFB"/>
<path d="M67.4879 35.8145H53.9268V37.0399H67.4879V35.8145Z" fill="#839299"/>
<path d="M51.0721 43.5439H48.4199V44.7694H51.0721V43.5439Z" fill="#F9FAFB"/>
<path d="M66.0231 43.5439H52.4619V44.7694H66.0231V43.5439Z" fill="#839299"/>
<path d="M52.5447 47.6523H48.4199V48.8778H52.5447V47.6523Z" fill="#F9FAFB"/>
<path d="M67.4879 47.6523H53.9268V48.8778H67.4879V47.6523Z" fill="#839299"/>
<path d="M50.0945 39.9248H45.9697V41.1502H50.0945V39.9248Z" fill="#F9FAFB"/>
<path d="M69.935 39.9248H51.4766V41.1502H69.935V39.9248Z" fill="#839299"/>
<path d="M89.7652 123.36L80.8242 131.13L89.7652 138.907V134.691L85.673 131.13L89.7652 127.576V123.36Z" fill="#F9FAFB"/>
<path d="M103.512 138.907L112.461 131.13L103.512 123.36V127.576L107.612 131.13L103.512 134.691V138.907Z" fill="#F9FAFB"/>
<path d="M95.7782 141.447H91.9951L97.511 120.819H101.294L95.7782 141.447Z" fill="#F9FAFB"/>
<path d="M179.262 48.4541H92.5586V101.098H179.262V48.4541Z" fill="#0054A6"/>
<path d="M110.821 55.4873H101.799V56.7127H110.821V55.4873Z" fill="#FFDD33"/>
<path d="M132.133 55.4873H113.675V56.7127H132.133V55.4873Z" fill="#FFDD33"/>
<path d="M110.821 79.1143H101.799V80.3397H110.821V79.1143Z" fill="#FFDD33"/>
<path d="M132.133 79.1143H113.675V80.3397H132.133V79.1143Z" fill="#FFDD33"/>
<path d="M114.654 60.4385H105.632V61.6639H114.654V60.4385Z" fill="#F9FAFB"/>
<path d="M114.654 65.0459H105.632V66.2713H114.654V65.0459Z" fill="#F9FAFB"/>
<path d="M114.654 69.6455H105.632V70.8709H114.654V69.6455Z" fill="#F9FAFB"/>
<path d="M114.654 74.2451H105.632V75.4705H114.654V74.2451Z" fill="#F9FAFB"/>
<path d="M151.512 84.0732H117.508V85.2987H151.512V84.0732Z" fill="#F9FAFB"/>
<path d="M151.512 88.6719H117.508V89.8973H151.512V88.6719Z" fill="#F9FAFB"/>
<path d="M151.512 93.2793H117.508V94.5047H151.512V93.2793Z" fill="#F9FAFB"/>
<path d="M170.631 84.0732H153.962V85.2987H170.631V84.0732Z" fill="#F9FAFB"/>
<path d="M170.631 88.6719H153.962V89.8973H170.631V88.6719Z" fill="#F9FAFB"/>
<path d="M170.631 93.2793H153.962V94.5047H170.631V93.2793Z" fill="#F9FAFB"/>
<path d="M170.248 60.4385H117.508V61.6639H170.248V60.4385Z" fill="#54CC5A"/>
<path d="M170.248 65.0459H117.508V66.2713H170.248V65.0459Z" fill="#54CC5A"/>
<path d="M170.248 69.6455H117.508V70.8709H170.248V69.6455Z" fill="#54CC5A"/>
<path d="M114.654 88.6719H111.66V89.8973H114.654V88.6719Z" fill="#54CC5A"/>
<path d="M114.654 93.2793H105.632V94.5047H114.654V93.2793Z" fill="#54CC5A"/>
<path d="M170.248 74.2451H117.508V75.4705H170.248V74.2451Z" fill="#54CC5A"/>
<path d="M234.261 40.5949C233.18 40.5949 232.154 40.84 231.243 41.2729C229.991 36.7715 225.874 33.4629 220.993 33.4629C216.185 33.4629 212.126 36.6572 210.8 41.0524C210.019 40.7583 209.173 40.5949 208.294 40.5949C204.373 40.5949 201.192 43.7892 201.192 47.7269H241.372C241.363 43.781 238.183 40.5949 234.261 40.5949Z" fill="#F9FAFB"/>
<path d="M213.882 59.7284L221.277 67.1464L228.663 59.7284H223.685V50.9707H218.86V59.7284H213.882Z" fill="#F9FAFB"/>
<path d="M211.64 159.379C204.937 159.379 199.486 153.906 199.486 147.174C199.486 140.442 204.937 134.969 211.64 134.969C218.343 134.969 223.794 140.442 223.794 147.174C223.802 153.898 218.343 159.379 211.64 159.379ZM211.64 137.215C206.173 137.215 201.732 141.676 201.732 147.166C201.732 152.656 206.173 157.116 211.64 157.116C217.107 157.116 221.549 152.656 221.549 147.166C221.557 141.684 217.107 137.215 211.64 137.215Z" fill="#54CC5A"/>
<path d="M210.762 151.806L206.516 148.056L208.297 146.022L210.518 147.983L214.741 143.13L216.775 144.911L210.762 151.806Z" fill="#54CC5A"/>
</svg>
