<svg width="278" height="192" viewBox="0 0 278 192" fill="none" xmlns="http://www.w3.org/2000/svg">
<path d="M125.172 191.999C190.33 191.999 243.15 188.341 243.15 183.828C243.15 179.316 190.33 175.657 125.172 175.657C60.0149 175.657 7.19434 179.316 7.19434 183.828C7.19434 188.341 60.0149 191.999 125.172 191.999Z" fill="#D2D9DC"/>
<path d="M260.538 58.3628L253.826 54.4775C254.209 52.4326 254.429 50.3195 254.429 48.1638C254.429 46.0082 254.209 43.9036 253.835 41.8502L260.546 37.9648C263.299 36.3715 264.242 32.8441 262.653 30.0834L256.902 20.0889C255.313 17.3283 251.796 16.3825 249.043 17.9759L245.645 19.9441C243.784 21.0262 241.431 21.0347 239.673 19.7992C238.058 18.666 236.342 17.6776 234.541 16.8341C232.587 15.9224 231.423 13.8775 231.423 11.7133V7.76835C231.423 4.5817 228.849 2 225.672 2H214.169C210.992 2 208.417 4.5817 208.417 7.76835V11.7133C208.417 13.869 207.253 15.9224 205.308 16.8341C203.507 17.6776 201.791 18.666 200.177 19.7992C198.418 21.0347 196.065 21.0262 194.204 19.9441L190.806 17.9759C188.053 16.3825 184.536 17.3283 182.948 20.0889L177.196 30.0834C175.607 32.8441 176.55 36.3715 179.303 37.9648L186.015 41.8502C185.632 43.8951 185.411 46.0082 185.411 48.1638C185.411 50.3195 185.632 52.4241 186.006 54.4775L179.295 58.3628C176.542 59.9561 175.599 63.4836 177.188 66.2442L182.939 76.2387C184.528 78.9994 188.045 79.9451 190.798 78.3518L194.196 76.3836C196.056 75.3015 198.41 75.293 200.168 76.5284C201.782 77.6617 203.498 78.65 205.3 79.4936C207.254 80.4052 208.417 82.4501 208.417 84.6143V88.5593C208.417 91.746 210.992 94.3277 214.169 94.3277H225.672C228.849 94.3277 231.423 91.746 231.423 88.5593V84.6143C231.423 82.4587 232.587 80.4052 234.533 79.4936C236.334 78.65 238.05 77.6617 239.664 76.5284C241.423 75.293 243.776 75.3015 245.636 76.3836L249.035 78.3518C251.787 79.9451 255.304 78.9994 256.893 76.2387L262.645 66.2442C264.233 63.4921 263.29 59.9561 260.538 58.3628ZM219.912 71.2458C207.203 71.2458 196.897 60.9104 196.897 48.1638C196.897 35.4172 207.203 25.0819 219.912 25.0819C232.621 25.0819 242.926 35.4172 242.926 48.1638C242.926 60.9104 232.621 71.2458 219.912 71.2458Z" fill="#D2D9DC"/>
<path d="M266.209 115.966L263.057 114.142C263.235 113.179 263.337 112.191 263.337 111.186C263.337 110.172 263.235 109.183 263.057 108.229L266.209 106.406C267.5 105.656 267.942 104.003 267.194 102.708L264.492 98.0215C263.745 96.7264 262.097 96.2834 260.805 97.0332L259.208 97.9534C258.333 98.4561 257.237 98.4646 256.405 97.8852C255.649 97.3569 254.841 96.8883 254 96.4964C253.083 96.0704 252.539 95.1075 252.539 94.0936V92.2447C252.539 90.7536 251.333 89.5352 249.838 89.5352H244.443C242.956 89.5352 241.741 90.7451 241.741 92.2447V94.0936C241.741 95.1075 241.198 96.0618 240.28 96.4964C239.439 96.8883 238.632 97.3569 237.876 97.8852C237.052 98.4646 235.947 98.4561 235.072 97.9534L233.475 97.0332C232.184 96.2834 230.536 96.7264 229.788 98.0215L227.086 102.708C226.339 104.003 226.781 105.656 228.072 106.406L231.224 108.229C231.045 109.192 230.943 110.18 230.943 111.186C230.943 112.2 231.045 113.188 231.224 114.142L228.072 115.966C226.781 116.715 226.339 118.368 227.086 119.663L229.788 124.35C230.536 125.645 232.184 126.088 233.475 125.338L235.072 124.418C235.947 123.915 237.043 123.907 237.876 124.486C238.632 125.014 239.439 125.483 240.28 125.875C241.198 126.301 241.741 127.264 241.741 128.278V130.127C241.741 131.618 242.948 132.836 244.443 132.836H249.838C251.324 132.836 252.539 131.626 252.539 130.127V128.278C252.539 127.264 253.083 126.309 254 125.875C254.841 125.483 255.649 125.014 256.405 124.486C257.229 123.907 258.333 123.915 259.208 124.418L260.805 125.338C262.097 126.088 263.745 125.645 264.492 124.35L267.194 119.663C267.942 118.368 267.5 116.707 266.209 115.966ZM247.161 121.998C241.206 121.998 236.372 117.15 236.372 111.177C236.372 105.204 241.206 100.356 247.161 100.356C253.117 100.356 257.951 105.204 257.951 111.177C257.951 117.158 253.117 121.998 247.161 121.998Z" fill="#D2D9DC"/>
<path d="M223.943 183.19H34.0412C31.2037 183.19 28.9014 180.881 28.9014 178.035V45.5758C28.9014 42.7299 31.2037 40.4209 34.0412 40.4209H223.943C226.78 40.4209 229.083 42.7299 229.083 45.5758V178.035C229.083 180.881 226.78 183.19 223.943 183.19Z" fill="#002548"/>
<path d="M42.3486 176.349V47.2722L42.3571 47.2637H215.624V176.349H42.3486Z" fill="#D2D9DC"/>
<path d="M222.116 101.019C221.709 101.019 221.386 101.351 221.386 101.751V121.851C221.386 122.26 221.717 122.584 222.116 122.584C222.524 122.584 222.847 122.252 222.847 121.851V101.751C222.855 101.351 222.524 101.019 222.116 101.019Z" fill="white"/>
<path d="M128.4 150.293C109.319 141.943 96.9922 122.712 96.9922 101.308V85.256L131.552 71.9385L166.112 85.256V101.308C166.112 122.712 153.785 141.934 134.696 150.293L131.552 151.673L128.4 150.293Z" fill="#54CC5A"/>
<g opacity="0.19">
<path d="M128.4 150.293C109.319 141.943 96.9922 122.712 96.9922 101.308V85.256L131.552 71.9385L166.112 85.256V101.308C166.112 122.712 153.785 141.934 134.696 150.293L131.552 151.673L128.4 150.293Z" fill="#F9FAFB"/>
</g>
<path d="M130.261 146.033C112.871 138.416 101.631 120.864 101.631 101.309V88.452L131.552 76.9238L161.474 88.452V101.309C161.474 120.864 150.234 138.416 132.844 146.033L131.552 146.596L130.261 146.033Z" fill="#54CC5A"/>
<path opacity="0.19" d="M132.325 81.5156L157.481 91.2034V101.3C157.481 118.844 147.651 134.632 132.325 141.849V81.5156Z" fill="#F9FAFB"/>
<g opacity="0.19">
<path d="M118.332 130.491C117.857 130.491 117.415 130.286 117.109 129.928C110.415 122.047 106.728 111.882 106.728 101.308V92.0719L128.672 83.6196C128.859 83.5514 129.054 83.5088 129.258 83.5088C129.929 83.5088 130.532 83.9263 130.779 84.5568C131.101 85.4003 130.677 86.3376 129.844 86.6614L109.981 94.3127V101.308C109.981 111.098 113.388 120.505 119.564 127.79C120.134 128.454 120.083 129.443 119.462 130.039C119.157 130.329 118.757 130.491 118.332 130.491Z" fill="#F9FAFB"/>
</g>
<path d="M139.744 104.827V101.402C139.744 97.2608 136.38 93.8867 132.251 93.8867H130.254C126.126 93.8867 122.761 97.2608 122.761 101.402V104.827C121.292 105.074 120.179 106.352 120.179 107.894V121.68C120.179 123.402 121.572 124.79 123.28 124.79H139.217C140.933 124.79 142.318 123.393 142.318 121.68V107.894C142.327 106.352 141.214 105.074 139.744 104.827ZM132.608 114.361V118.477C132.608 119.227 132.005 119.84 131.248 119.84C130.501 119.84 129.889 119.235 129.889 118.477V114.361C128.989 113.876 128.385 112.93 128.385 111.831C128.385 110.246 129.668 108.959 131.248 108.959C132.829 108.959 134.111 110.246 134.111 111.831C134.12 112.93 133.508 113.884 132.608 114.361ZM136.796 104.776H125.718V101.393C125.718 98.8797 127.757 96.8348 130.254 96.8348H132.251C134.757 96.8348 136.788 98.8797 136.788 101.393V104.776H136.796Z" fill="#F9FAFB"/>
<path d="M113.432 111.856H62.6195L60.3427 106.948C59.9349 106.071 59.0513 105.5 58.0828 105.5H17.9752C16.599 105.5 15.4775 106.616 15.4775 108.005V169.463H115.921V114.361C115.929 112.972 114.808 111.856 113.432 111.856Z" fill="#0054A6"/>
<path opacity="0.19" d="M113.432 111.856H62.6195L60.3427 106.948C59.9349 106.071 59.0513 105.5 58.0828 105.5H17.9752C16.599 105.5 15.4775 106.616 15.4775 108.005V169.463H115.921V114.361C115.929 112.972 114.808 111.856 113.432 111.856Z" fill="#2D2F31"/>
<path d="M109.37 119.874H22.0352V180.881H109.37V119.874Z" fill="#D2D9DC"/>
<path d="M113.433 119.167H73.3258C72.3574 119.167 71.4738 119.729 71.066 120.615L68.7892 125.523H17.9772C16.6009 125.523 15.4795 126.639 15.4795 128.028V180.634C15.4795 182.014 16.5924 183.139 17.9772 183.139H113.433C114.81 183.139 115.931 182.022 115.931 180.634V121.672C115.931 120.283 114.81 119.167 113.433 119.167Z" fill="#0054A6"/>
<path d="M76.2137 145.554V141.311C76.2137 136.182 72.0509 132.007 66.9366 132.007H64.4644C59.35 132.007 55.1872 136.182 55.1872 141.311V145.554C53.3692 145.861 51.9844 147.446 51.9844 149.346V166.412C51.9844 168.543 53.709 170.264 55.8244 170.264H75.5596C77.6835 170.264 79.3996 168.534 79.3996 166.412V149.346C79.4166 147.446 78.0318 145.861 76.2137 145.554ZM67.3868 157.364V162.459C67.3868 163.388 66.6392 164.137 65.7132 164.137C64.7872 164.137 64.0396 163.388 64.0396 162.459V157.364C62.9267 156.767 62.1791 155.591 62.1791 154.237C62.1791 152.277 63.7677 150.684 65.7217 150.684C67.6757 150.684 69.2644 152.277 69.2644 154.237C69.2474 155.591 68.4913 156.767 67.3868 157.364ZM72.5607 145.495H58.8488V141.311C58.8488 138.201 61.372 135.671 64.4729 135.671H66.9451C70.046 135.671 72.5691 138.201 72.5691 141.311V145.495H72.5607Z" fill="#F9FAFB"/>
</svg>
