<svg width="278" height="192" viewBox="0 0 278 192" fill="none" xmlns="http://www.w3.org/2000/svg">
<path d="M139.412 192C199.838 192 248.824 189.127 248.824 185.582C248.824 182.037 199.838 179.163 139.412 179.163C78.9853 179.163 30 182.037 30 185.582C30 189.127 78.9853 192 139.412 192Z" fill="#D2D9DC"/>
<path d="M132.252 161.848H55.6421C53.4468 161.848 51.668 160.07 51.668 157.859V104.59C51.668 102.387 53.4397 100.602 55.6421 100.602H132.244C134.44 100.602 136.219 102.38 136.219 104.59V157.859C136.219 160.063 134.447 161.848 132.252 161.848Z" fill="#0054A6"/>
<path d="M58.3377 107.226C57.6389 107.226 57.0742 106.652 57.0742 105.958V99.3052C57.0742 98.6039 57.646 98.0371 58.3377 98.0371C59.0366 98.0371 59.6013 98.611 59.6013 99.3052V105.958C59.6154 106.652 59.0436 107.226 58.3377 107.226Z" fill="#002548"/>
<path d="M70.3026 106.772C69.6038 106.772 69.0391 106.198 69.0391 105.504V98.8511C69.0391 98.1498 69.6108 97.583 70.3026 97.583C71.0014 97.583 71.5661 98.1569 71.5661 98.8511V105.504C71.5732 106.205 71.0014 106.772 70.3026 106.772Z" fill="#002548"/>
<path d="M82.2596 107.226C81.5608 107.226 80.9961 106.652 80.9961 105.958V99.3052C80.9961 98.6039 81.5679 98.0371 82.2596 98.0371C82.9584 98.0371 83.5232 98.611 83.5232 99.3052V105.958C83.5302 106.652 82.9584 107.226 82.2596 107.226Z" fill="#002548"/>
<path d="M94.2167 107.204C93.5178 107.204 92.9531 106.631 92.9531 105.936V99.2838C92.9531 98.5824 93.5249 98.0156 94.2167 98.0156C94.9155 98.0156 95.4802 98.5895 95.4802 99.2838V105.936C95.4943 106.638 94.9225 107.204 94.2167 107.204Z" fill="#002548"/>
<path d="M106.189 107.204C105.49 107.204 104.926 106.631 104.926 105.936V99.2838C104.926 98.5824 105.498 98.0156 106.189 98.0156C106.888 98.0156 107.453 98.5895 107.453 99.2838V105.936C107.453 106.638 106.881 107.204 106.189 107.204Z" fill="#002548"/>
<path d="M118.146 106.772C117.448 106.772 116.883 106.198 116.883 105.936V99.2838C116.883 98.1432 117.455 97.5693 118.146 97.5693C118.845 97.5693 119.41 98.1432 119.41 98.8375V105.49C119.417 106.205 118.852 106.772 118.146 106.772Z" fill="#002548"/>
<path d="M130.111 107.204C129.412 107.204 128.848 106.631 128.848 105.936V99.2838C128.848 98.5824 129.419 98.0156 130.111 98.0156C130.81 98.0156 131.375 98.5895 131.375 99.2838V105.936C131.375 106.638 130.81 107.204 130.111 107.204Z" fill="#002548"/>
<path d="M130.855 159.432H56.5754C55.3118 159.432 54.2812 158.405 54.2812 157.13V113.666C54.2812 112.398 55.3048 111.363 56.5754 111.363H130.855C132.119 111.363 133.149 112.391 133.149 113.666V157.13C133.149 158.405 132.119 159.432 130.855 159.432Z" fill="white"/>
<path d="M220.041 89.4647H89.1634C87.7516 89.4647 86.6645 88.3028 86.7422 86.8859L91.154 6.35516C91.2316 4.93824 92.4457 3.77637 93.8575 3.77637H224.735C226.147 3.77637 227.234 4.93824 227.156 6.35516L222.745 86.8859C222.681 88.3028 221.453 89.4647 220.041 89.4647Z" fill="#002548"/>
<path d="M164.991 17.4848H152.334C148.113 17.4848 144.859 14.0275 145.078 9.79802L145.205 7.44592C145.431 3.34393 148.96 0 153.047 0H165.697C169.918 0 173.186 3.45729 172.953 7.69389L172.826 10.0389C172.607 14.1267 169.078 17.4848 164.991 17.4848Z" fill="#002548"/>
<path d="M176.511 186.29H172.452L161.299 1.78516H165.344L176.511 186.29Z" fill="#002548"/>
<path d="M146.077 186.29H150.129L161.296 1.78516H157.237L146.077 186.29Z" fill="#002548"/>
<path d="M219.356 89.4647H88.4642C87.0524 89.4647 85.9653 88.3028 86.043 86.8859L90.4547 6.35516C90.5324 4.93824 91.7465 3.77637 93.1583 3.77637H224.036C225.448 3.77637 226.535 4.93824 226.457 6.35516L222.045 86.8859C221.982 88.3028 220.754 89.4647 219.356 89.4647Z" fill="#0054A6"/>
<path d="M90.5395 86.9992C89.4101 86.9992 88.5418 86.0711 88.5983 84.9446L92.7913 8.31039C92.8548 7.17686 93.8218 6.25586 94.9512 6.25586H221.947C223.076 6.25586 223.944 7.18394 223.888 8.31039L219.695 84.9446C219.631 86.0781 218.664 86.9992 217.535 86.9992H90.5395Z" fill="#002548"/>
<path opacity="0.19" d="M218.323 46.3764H180.1C179.133 46.3764 178.406 45.5971 178.455 44.6265L180.368 9.74894C180.375 9.60724 180.276 9.50098 180.135 9.50098C179.994 9.50098 179.888 9.61433 179.874 9.74894L177.961 44.6265C177.912 45.5971 177.086 46.3764 176.126 46.3764H136.399C135.432 46.3764 134.705 45.5971 134.754 44.6265L136.667 9.74894C136.674 9.60724 136.575 9.50098 136.434 9.50098C136.293 9.50098 136.187 9.61433 136.173 9.74894L134.26 44.6265C134.21 45.5971 133.385 46.3764 132.425 46.3764H94.201C94.0598 46.3764 93.9539 46.4897 93.9398 46.6243C93.9327 46.766 94.0316 46.8723 94.1728 46.8723H132.396C133.363 46.8723 134.09 47.6516 134.041 48.6222L132.128 83.4997C132.121 83.6414 132.22 83.7477 132.361 83.7477C132.502 83.7477 132.608 83.6343 132.622 83.4997L134.535 48.6222C134.585 47.6516 135.41 46.8723 136.37 46.8723H176.097C177.065 46.8723 177.792 47.6516 177.742 48.6222L175.829 83.4997C175.822 83.6414 175.921 83.7477 176.062 83.7477C176.203 83.7477 176.309 83.6343 176.323 83.4997L178.236 48.6222C178.286 47.6516 179.112 46.8723 180.072 46.8723H218.295C218.436 46.8723 218.542 46.7589 218.556 46.6243C218.563 46.4897 218.465 46.3764 218.323 46.3764Z" fill="#F9FAFB"/>
<path d="M155.993 15.8203H140.64L139.779 31.4986L155.118 31.9095L155.993 15.8203Z" fill="#002548"/>
<path d="M154.332 31.2363C149.2 30.9883 144.055 30.7333 138.923 30.4853C139.777 25.1577 140.306 19.8159 140.525 14.4883C145.692 14.7362 150.866 14.9913 156.026 15.2393C155.779 20.5669 155.215 25.9087 154.332 31.2363Z" fill="#ED1C24"/>
<path d="M174.508 26.29L159.127 27.4661L159.473 43.1018L174.854 42.3296L174.508 26.29Z" fill="#002548"/>
<path d="M174.013 41.728C168.853 41.8768 163.686 42.0114 158.526 42.1602C158.971 36.8113 159.105 31.4624 158.915 26.156C164.11 26.0073 169.305 25.8656 174.493 25.7168C174.656 31.0232 174.493 36.365 174.013 41.728Z" fill="#0054A6"/>
<path d="M129.608 54.8L101.267 53.709L98.7119 79.0223L126.997 80.7722L129.608 54.8Z" fill="#002548"/>
<path d="M125.586 79.6244C116.12 78.8522 106.648 78.087 97.1816 77.3148C99.0875 68.7566 100.393 60.1417 101.12 51.541C110.65 52.3132 120.165 53.0855 129.688 53.8577C128.918 62.4584 127.549 71.0733 125.586 79.6244Z" fill="white"/>
<g opacity="0.19">
<path d="M100.426 19.3695C99.5509 19.3695 98.8662 18.6539 98.9156 17.7684C98.965 16.8899 99.7274 16.1602 100.603 16.1602C101.478 16.1602 102.163 16.8757 102.113 17.7684C102.064 18.6398 101.309 19.3695 100.426 19.3695Z" fill="#F9FAFB"/>
<path d="M125.474 19.3695H105.808C104.933 19.3695 104.248 18.6539 104.297 17.7684C104.347 16.8899 105.109 16.1602 105.984 16.1602H125.65C126.526 16.1602 127.21 16.8757 127.161 17.7684C127.112 18.6398 126.356 19.3695 125.474 19.3695Z" fill="#F9FAFB"/>
<path d="M100.042 26.3614C99.1671 26.3614 98.4824 25.6459 98.5318 24.7603C98.5812 23.8818 99.3436 23.1592 100.219 23.1592C101.094 23.1592 101.779 23.8747 101.729 24.7603C101.68 25.6317 100.925 26.3614 100.042 26.3614Z" fill="#F9FAFB"/>
<path d="M128.579 26.3614H105.433C104.558 26.3614 103.873 25.6459 103.922 24.7603C103.972 23.8818 104.734 23.1592 105.609 23.1592H128.755C129.631 23.1592 130.315 23.8747 130.266 24.7603C130.217 25.6317 129.454 26.3614 128.579 26.3614Z" fill="#F9FAFB"/>
<path d="M99.6586 33.3548C98.7833 33.3548 98.0986 32.6393 98.148 31.7466C98.1974 30.8681 98.9598 30.1455 99.8351 30.1455C100.71 30.1455 101.395 30.861 101.346 31.7466C101.303 32.6322 100.534 33.3548 99.6586 33.3548Z" fill="#F9FAFB"/>
<path d="M116.314 33.3548H105.041C104.166 33.3548 103.481 32.6393 103.531 31.7466C103.58 30.8681 104.343 30.1455 105.218 30.1455H116.484C117.359 30.1455 118.044 30.861 117.994 31.7466C117.952 32.6322 117.19 33.3548 116.314 33.3548Z" fill="#F9FAFB"/>
<path d="M126.743 40.3548H115.477C114.602 40.3548 113.917 39.6393 113.966 38.7537C114.016 37.8752 114.778 37.1455 115.653 37.1455H126.919C127.795 37.1455 128.479 37.8611 128.43 38.7537C128.381 39.6251 127.618 40.3548 126.743 40.3548Z" fill="#F9FAFB"/>
<path d="M99.2797 40.3548C98.4044 40.3548 97.7197 39.6393 97.7691 38.7537C97.8185 37.8752 98.5809 37.1455 99.4562 37.1455C100.331 37.1455 101.016 37.8611 100.967 38.7537C100.917 39.6251 100.155 40.3548 99.2797 40.3548Z" fill="#F9FAFB"/>
<path d="M109.86 40.3548H104.658C103.782 40.3548 103.098 39.6393 103.147 38.7537C103.196 37.8752 103.959 37.1455 104.834 37.1455H110.036C110.912 37.1455 111.596 37.8611 111.547 38.7537C111.505 39.6251 110.735 40.3548 109.86 40.3548Z" fill="#F9FAFB"/>
</g>
<path d="M148.178 61.1602H140.555L139.503 80.3169H147.126L148.178 61.1602Z" fill="#0054A6"/>
<path d="M159.75 65.1143H152.12L151.294 80.3178H158.917L159.75 65.1143Z" fill="#0054A6"/>
<path d="M172.086 54.9131H164.463L163.072 80.3185H170.703L172.086 54.9131Z" fill="#0054A6"/>
<path d="M142.258 71.9729C141.502 71.9729 140.74 71.9587 139.978 71.9092C138.644 71.8383 136.921 71.6754 135.361 70.9669C135.114 70.8535 135.001 70.5631 135.114 70.3151C135.227 70.0672 135.517 69.9538 135.764 70.0672C137.168 70.6977 138.778 70.8535 140.027 70.9244C149.175 71.3991 157.187 69.0045 165.262 63.3935C167.182 62.0545 170.055 59.5819 171.82 57.0102C171.975 56.7835 172.279 56.7339 172.498 56.8827C172.724 57.0386 172.78 57.3432 172.625 57.5628C170.79 60.2408 167.902 62.7417 165.82 64.194C158.225 69.472 150.686 71.9729 142.258 71.9729Z" fill="white"/>
<path d="M173.755 60.8003C173.691 60.8003 173.628 60.7932 173.564 60.7649C173.317 60.6586 173.197 60.3752 173.296 60.1131C173.995 58.4199 174.143 56.5141 173.72 54.7926C171.8 56.089 169.76 57.1801 167.628 58.0373C167.381 58.1436 167.091 58.0231 166.992 57.761C166.887 57.513 167.007 57.2226 167.268 57.1234C169.534 56.2095 171.715 55.0122 173.727 53.5953C173.854 53.5102 174.009 53.4819 174.164 53.5244C174.312 53.574 174.432 53.6874 174.475 53.8361C175.181 55.9403 175.089 58.3561 174.214 60.4744C174.122 60.687 173.938 60.8003 173.755 60.8003Z" fill="white"/>
<path d="M213.903 41.9191H185.534C185.054 41.9191 184.609 41.7278 184.284 41.3806C183.96 41.0335 183.79 40.5872 183.818 40.0983L185.138 16.0248C185.188 15.0401 186.035 14.2324 187.016 14.2324H215.386C215.866 14.2324 216.31 14.4237 216.635 14.7709C216.96 15.118 217.129 15.5643 217.101 16.0532L215.781 40.1267C215.731 41.1114 214.884 41.9191 213.903 41.9191ZM187.023 14.7283C186.296 14.7283 185.668 15.3235 185.64 16.0532L184.32 40.1267C184.306 40.4738 184.411 40.7997 184.644 41.0406C184.877 41.2815 185.188 41.4232 185.534 41.4232H213.903C214.63 41.4232 215.258 40.828 215.287 40.0983L216.607 16.0248C216.621 15.6777 216.515 15.3518 216.282 15.1109C216.049 14.87 215.738 14.7283 215.393 14.7283H187.023Z" fill="#0054A6"/>
<path d="M216.592 21.1473H185.124C184.983 21.1473 184.877 21.0339 184.877 20.8993C184.877 20.7647 184.99 20.6514 185.124 20.6514H216.592C216.733 20.6514 216.839 20.7647 216.839 20.8993C216.839 21.0339 216.733 21.1473 216.592 21.1473Z" fill="#0054A6"/>
<path d="M191.422 41.9197C191.415 41.9197 191.415 41.9197 191.408 41.9197C191.267 41.9126 191.168 41.7993 191.175 41.6576L192.312 20.8855C192.319 20.7438 192.432 20.6446 192.573 20.6517C192.714 20.6588 192.813 20.7722 192.806 20.9139L191.669 41.6859C191.662 41.8134 191.549 41.9197 191.422 41.9197Z" fill="#0054A6"/>
<path d="M212.993 23.6121H195.91C195.769 23.6121 195.663 23.4988 195.663 23.3642C195.663 23.2225 195.776 23.1162 195.91 23.1162H212.993C213.134 23.1162 213.24 23.2296 213.24 23.3642C213.24 23.4988 213.127 23.6121 212.993 23.6121Z" fill="#0054A6"/>
<path d="M210.414 26.6444H195.731C195.59 26.6444 195.484 26.531 195.484 26.3964C195.484 26.2547 195.597 26.1484 195.731 26.1484H210.414C210.555 26.1484 210.661 26.2618 210.661 26.3964C210.661 26.531 210.548 26.6444 210.414 26.6444Z" fill="#0054A6"/>
<path d="M204.114 29.7684H195.565C195.424 29.7684 195.318 29.655 195.318 29.5204C195.318 29.3787 195.431 29.2725 195.565 29.2725H204.114C204.255 29.2725 204.361 29.3858 204.361 29.5204C204.361 29.655 204.248 29.7684 204.114 29.7684Z" fill="#0054A6"/>
<path d="M205.654 35.8612H195.229C195.087 35.8612 194.981 35.7478 194.981 35.6132C194.981 35.4715 195.094 35.3652 195.229 35.3652H205.654C205.796 35.3652 205.901 35.4786 205.901 35.6132C205.909 35.7478 205.796 35.8612 205.654 35.8612Z" fill="#0054A6"/>
<path d="M203.611 38.992H195.062C194.921 38.992 194.815 38.8787 194.815 38.7441C194.815 38.6024 194.928 38.4961 195.062 38.4961H203.611C203.752 38.4961 203.858 38.6095 203.858 38.7441C203.851 38.8787 203.738 38.992 203.611 38.992Z" fill="#0054A6"/>
<path d="M208.608 38.992H205.869C205.728 38.992 205.622 38.8787 205.622 38.7441C205.622 38.6024 205.735 38.4961 205.869 38.4961H208.608C208.749 38.4961 208.855 38.6095 208.855 38.7441C208.855 38.8787 208.742 38.992 208.608 38.992Z" fill="#0054A6"/>
<path d="M211.399 32.7948H195.403C195.262 32.7948 195.156 32.6814 195.156 32.5468C195.156 32.4122 195.269 32.2988 195.403 32.2988H211.399C211.54 32.2988 211.646 32.4122 211.646 32.5468C211.646 32.6814 211.54 32.7948 211.399 32.7948Z" fill="#0054A6"/>
<path d="M196.485 76.9321C192.779 76.9321 189.737 75.834 187.852 73.7865C185.833 71.6045 185 68.1684 185.558 64.3711C185.904 62.0473 186.659 60.092 187.817 58.5617C188.982 57.0314 190.655 55.7704 192.793 54.8069C197.53 52.6886 203.022 52.7665 207.462 55.0052C209.452 56.0112 210.702 57.2794 211.175 58.7742C211.252 59.0364 211.111 59.3127 210.857 59.3977C210.596 59.4756 210.32 59.3339 210.236 59.0789C209.847 57.8391 208.76 56.7693 207.024 55.8908C202.838 53.7796 197.671 53.7087 193.189 55.7066C191.191 56.5993 189.645 57.7541 188.586 59.1568C187.535 60.5454 186.836 62.3449 186.518 64.5057C186.003 68.0197 186.751 71.144 188.558 73.1064C191.071 75.8411 195.243 76.0323 197.502 75.9048C201.709 75.671 205.316 74.2045 207.673 71.7532C210.44 68.8981 211.203 64.6261 209.473 61.8206C209.135 61.2751 208.415 60.3541 207.356 60.2407C207.087 60.2124 206.89 59.9715 206.918 59.7023C206.946 59.4331 207.186 59.2347 207.455 59.2631C208.556 59.3764 209.565 60.0991 210.313 61.3034C212.276 64.4844 211.45 69.2736 208.386 72.4404C205.852 75.0618 202.005 76.6345 197.558 76.8825C197.212 76.925 196.852 76.9321 196.485 76.9321Z" fill="#54CC5A"/>
<path d="M118.723 29.9472C111.975 29.1113 105.234 28.2753 98.4785 27.4393C100.116 20.5601 101.33 13.6314 102.128 6.68848C108.919 7.52446 115.702 8.36753 122.493 9.20352C121.653 16.1535 120.396 23.0752 118.723 29.9472Z" fill="#0054A6"/>
<mask id="mask0_7190_44150" style="mask-type:luminance" maskUnits="userSpaceOnUse" x="54" y="111" width="80" height="49">
<path d="M130.599 159.34H56.8412C55.4294 159.34 54.293 158.192 54.293 156.783V113.843C54.293 112.426 55.4365 111.285 56.8412 111.285H130.606C132.018 111.285 133.154 112.433 133.154 113.843V156.783C133.154 158.185 132.004 159.34 130.599 159.34Z" fill="white"/>
</mask>
<g mask="url(#mask0_7190_44150)">
<g opacity="0.19">
<path d="M122.042 178.921H103.548V92.1201H122.042V178.921ZM104.282 178.184H121.322V92.8428H104.282V178.184Z" fill="black"/>
<path d="M86.624 178.921H68.1299V92.1201H86.624V178.921ZM68.8499 178.184H85.8899V92.8428H68.8499V178.184Z" fill="black"/>
</g>
</g>
<mask id="mask1_7190_44150" style="mask-type:luminance" maskUnits="userSpaceOnUse" x="54" y="111" width="80" height="49">
<path d="M130.599 159.34H56.8412C55.4294 159.34 54.293 158.192 54.293 156.783V113.843C54.293 112.426 55.4365 111.285 56.8412 111.285H130.606C132.018 111.285 133.154 112.433 133.154 113.843V156.783C133.154 158.185 132.004 159.34 130.599 159.34Z" fill="white"/>
</mask>
<g mask="url(#mask1_7190_44150)">
<g opacity="0.19">
<path d="M136.202 162.336H49.7178V143.774H136.202V162.336ZM50.4448 161.613H135.475V144.511H50.4448V161.613Z" fill="black"/>
<path d="M136.202 144.526H49.7178V125.964H136.202V144.526ZM50.4448 143.796H135.475V126.694H50.4448V143.796Z" fill="black"/>
<path d="M136.202 126.793H49.7178V108.231H136.202V126.793ZM50.4448 126.056H135.475V108.954H50.4448V126.056Z" fill="black"/>
</g>
</g>
<path d="M79.5541 134.381H71.5635C71.2105 134.381 70.9141 134.09 70.9141 133.729V133.559C70.9141 133.205 71.2035 132.907 71.5635 132.907H79.5611C79.9141 132.907 80.2105 133.198 80.2105 133.559V133.729C80.2035 134.09 79.9141 134.381 79.5541 134.381Z" fill="#002548"/>
<path d="M81.2348 136.648H71.5713C71.2183 136.648 70.9219 136.358 70.9219 135.997V135.827C70.9219 135.472 71.2113 135.175 71.5713 135.175H81.2348C81.5878 135.175 81.8842 135.465 81.8842 135.827V135.997C81.8842 136.358 81.5878 136.648 81.2348 136.648Z" fill="#002548"/>
<path d="M82.8019 139.17H71.5713C71.2183 139.17 70.9219 138.879 70.9219 138.518V138.348C70.9219 137.994 71.2113 137.696 71.5713 137.696H82.8019C83.1548 137.696 83.4513 137.987 83.4513 138.348V138.518C83.4513 138.887 83.1548 139.17 82.8019 139.17Z" fill="#002548"/>
<path d="M80.1689 141.707H71.6136C71.2325 141.707 70.9219 141.395 70.9219 141.012V140.828C70.9219 140.446 71.2325 140.134 71.6136 140.134H80.1689C80.5501 140.134 80.8607 140.446 80.8607 140.828V141.012C80.8536 141.395 80.5501 141.707 80.1689 141.707Z" fill="#002548"/>
<path d="M96.3619 147.154H88.3643C88.0113 147.154 87.7148 146.864 87.7148 146.502V146.332C87.7148 145.978 88.0043 145.681 88.3643 145.681H96.3619C96.7148 145.681 97.0113 145.971 97.0113 146.332V146.502C97.0113 146.871 96.7148 147.154 96.3619 147.154Z" fill="#002548"/>
<path d="M98.0434 150.01H88.3799C88.0269 150.01 87.7305 149.719 87.7305 149.358V149.188C87.7305 148.834 88.0199 148.536 88.3799 148.536H98.0434C98.3964 148.536 98.6928 148.827 98.6928 149.188V149.358C98.6858 149.719 98.3964 150.01 98.0434 150.01Z" fill="#002548"/>
<path d="M96.6533 152.638H88.098C87.7168 152.638 87.4062 152.326 87.4062 151.944V151.76C87.4062 151.377 87.7168 151.065 88.098 151.065H96.6533C97.0345 151.065 97.3451 151.377 97.3451 151.76V151.944C97.338 152.326 97.0274 152.638 96.6533 152.638Z" fill="#002548"/>
<path d="M65.7177 149.719H56.04C55.6871 149.719 55.3906 149.428 55.3906 149.067V148.897C55.3906 148.543 55.68 148.245 56.04 148.245H65.7036C66.0565 148.245 66.353 148.536 66.353 148.897V149.067C66.3671 149.435 66.0706 149.719 65.7177 149.719Z" fill="#0054A6"/>
<path d="M64.3213 152.347H55.766C55.3848 152.347 55.0742 152.035 55.0742 151.653V151.469C55.0742 151.086 55.3848 150.774 55.766 150.774H64.3213C64.7025 150.774 65.013 151.086 65.013 151.469V151.653C65.013 152.035 64.7025 152.347 64.3213 152.347Z" fill="#0054A6"/>
<path d="M98.9379 114.523H89.2744C88.9215 114.523 88.625 114.233 88.625 113.872V113.702C88.625 113.347 88.9144 113.05 89.2744 113.05H98.9379C99.2909 113.05 99.5874 113.34 99.5874 113.702V113.872C99.5874 114.226 99.2979 114.523 98.9379 114.523Z" fill="#002548"/>
<path d="M97.5478 117.152H88.9925C88.6114 117.152 88.3008 116.84 88.3008 116.458V116.273C88.3008 115.891 88.6114 115.579 88.9925 115.579H97.5478C97.929 115.579 98.2396 115.891 98.2396 116.273V116.458C98.2325 116.84 97.922 117.152 97.5478 117.152Z" fill="#002548"/>
<path d="M130.879 121.876L128.041 121.104L125.803 123.01L125.655 120.063L123.156 118.504L125.902 117.463L126.608 114.601L128.443 116.896L131.373 116.683L129.763 119.149L130.879 121.876Z" fill="#FFDD33"/>
<path d="M71.1537 108.812H63.8549C62.4926 108.812 61.3984 109.918 61.3984 111.278C61.3984 112.525 62.309 113.545 63.502 113.715C62.8243 115.975 62.8384 115.911 62.8384 115.911L65.2596 113.743H71.1608C72.5231 113.743 73.6173 112.638 73.6173 111.278C73.6173 109.925 72.5161 108.812 71.1537 108.812Z" fill="#54CC5A"/>
<path d="M66.1004 111.341C66.1004 111.766 65.7616 112.099 65.3451 112.099C64.9287 112.099 64.5898 111.759 64.5898 111.341C64.5898 110.923 64.9287 110.583 65.3451 110.583C65.7616 110.576 66.1004 110.923 66.1004 111.341Z" fill="white"/>
<path d="M68.2332 111.341C68.2332 111.766 67.8944 112.099 67.478 112.099C67.0615 112.099 66.7227 111.759 66.7227 111.341C66.7227 110.923 67.0615 110.583 67.478 110.583C67.8944 110.583 68.2332 110.923 68.2332 111.341Z" fill="white"/>
<path d="M70.3153 111.341C70.3153 111.766 69.9765 112.099 69.56 112.099C69.1365 112.099 68.8047 111.759 68.8047 111.341C68.8047 110.923 69.1435 110.583 69.56 110.583C69.9694 110.576 70.3153 110.923 70.3153 111.341Z" fill="white"/>
<path d="M78.0611 123.18C75.8376 123.18 74.0234 121.366 74.0234 119.128C74.0234 116.896 75.8305 115.075 78.0611 115.075C80.2846 115.075 82.0987 116.889 82.0987 119.128C82.0987 121.359 80.2917 123.18 78.0611 123.18ZM78.0611 115.798C76.2329 115.798 74.7505 117.286 74.7505 119.121C74.7505 120.955 76.2329 122.443 78.0611 122.443C79.8893 122.443 81.3717 120.955 81.3717 119.121C81.3787 117.286 79.8893 115.798 78.0611 115.798Z" fill="#54CC5A"/>
<path d="M83.4181 116.968C82.8323 116.748 82.0134 116.939 81.4205 117.088C80.757 117.258 80.1217 117.605 79.5499 117.981C78.9711 118.363 78.4487 118.817 78.0111 119.362C77.9475 119.433 77.7781 119.731 77.7217 119.752C77.8064 119.724 77.4817 119.476 77.397 119.391C77.0793 119.051 76.7828 118.71 76.4511 118.385C76.3311 118.271 76.1052 118.42 76.2111 118.576C76.444 118.916 76.7052 119.235 76.9593 119.554C77.1781 119.823 77.3405 120.297 77.6723 120.432C77.9475 120.545 78.1946 120.39 78.3993 120.227C78.7099 119.957 78.9923 119.667 79.3311 119.412C79.9664 118.93 80.6299 118.533 81.364 118.2C81.7311 118.037 82.1052 117.853 82.4934 117.719C82.8393 117.598 83.1852 117.534 83.4817 117.336C83.6158 117.23 83.5734 117.031 83.4181 116.968Z" fill="#54CC5A"/>
</svg>
