<svg width="278" height="192" viewBox="0 0 278 192" fill="none" xmlns="http://www.w3.org/2000/svg">
<path d="M140.217 192.001C202.395 192.001 252.8 187.771 252.8 182.553C252.8 177.335 202.395 173.104 140.217 173.104C78.0397 173.104 27.6348 177.335 27.6348 182.553C27.6348 187.771 78.0397 192.001 140.217 192.001Z" fill="#D2D9DC"/>
<path d="M169.237 183.051H111.207L121.185 154.283H159.252L169.237 183.051Z" fill="#839299"/>
<path opacity="0.19" d="M169.237 183.051H111.207L121.185 154.283H159.252L169.237 183.051Z" fill="#2D2F31"/>
<path d="M225.322 167.472H55.11C50.7637 167.472 47.2412 163.95 47.2412 159.604V70.7533C47.2412 67.8055 49.6298 65.417 52.5778 65.417H227.846C230.794 65.417 233.183 67.8055 233.183 70.7533V159.604C233.191 163.95 229.668 167.472 225.322 167.472Z" fill="#D2D9DC"/>
<path d="M233.191 145.198H47.2412V41.049C47.2412 39.4466 48.5413 38.1465 50.1438 38.1465H230.288C231.89 38.1465 233.191 39.4466 233.191 41.049V145.198Z" fill="#002548"/>
<path d="M140.217 161.193C143.206 161.193 145.629 158.77 145.629 155.78C145.629 152.791 143.206 150.368 140.217 150.368C137.228 150.368 134.805 152.791 134.805 155.78C134.805 158.77 137.228 161.193 140.217 161.193Z" fill="#839299"/>
<path d="M226.179 45.2969H54.251V138.04H226.179V45.2969Z" fill="#D2D9DC"/>
<path d="M184.347 183.052H96.0889C96.0889 180.088 98.4926 177.685 101.456 177.685H178.988C181.951 177.685 184.347 180.088 184.347 183.052Z" fill="#839299"/>
<path d="M114.377 27.0884C114.181 27.0884 113.992 27.0355 113.81 26.9297L105.7 22.1074C105.359 21.9033 105.155 21.5405 105.155 21.155C105.155 20.7695 105.359 20.3991 105.7 20.2026L113.81 15.3803C114.34 15.0704 115.02 15.2442 115.337 15.7658C115.647 16.2948 115.473 16.9751 114.952 17.2926L108.443 21.155L114.952 25.0174C115.481 25.3349 115.655 26.0151 115.337 26.5442C115.126 26.8919 114.755 27.0884 114.377 27.0884Z" fill="#0054A6"/>
<path d="M130.448 27.0886C130.07 27.0886 129.7 26.8921 129.488 26.5444C129.178 26.0153 129.352 25.335 129.873 25.0176L136.382 21.1552L129.873 17.2928C129.344 16.9753 129.17 16.295 129.488 15.7659C129.805 15.2368 130.486 15.063 131.015 15.3805L139.126 20.2028C139.466 20.4069 139.67 20.7697 139.67 21.1552C139.67 21.5407 139.466 21.911 139.126 22.1075L131.015 26.9299C130.841 27.0357 130.644 27.0886 130.448 27.0886Z" fill="#0054A6"/>
<path d="M116.178 30.815C115.952 30.815 115.725 30.7469 115.521 30.6033C115.022 30.2405 114.916 29.5451 115.279 29.0538L127.759 11.964C128.122 11.4651 128.817 11.3593 129.308 11.7221C129.807 12.0849 129.913 12.7803 129.55 13.2716L117.07 30.3615C116.859 30.6562 116.518 30.815 116.178 30.815Z" fill="#0054A6"/>
<path d="M215.964 31.6158C216.357 30.157 215.941 28.6 214.868 27.5267L210.423 23.0822C209.357 22.0165 207.792 21.5932 206.334 21.9863L201.466 23.2939L208.065 29.8925L203.544 34.4125L196.945 27.8139L195.638 32.6816C195.245 34.1404 195.66 35.6974 196.734 36.7707L201.178 41.2152C202.244 42.2809 203.809 42.7042 205.268 42.3112L209.229 41.253L238.55 70.5725C237.439 73.7849 238.157 77.4961 240.727 80.0585C244.31 83.6412 250.122 83.6412 253.713 80.0585C257.296 76.4757 257.296 70.6632 253.713 67.0729C251.143 64.503 247.439 63.785 244.226 64.8961L214.905 35.5765L215.964 31.6158ZM252.458 74.964L248.626 78.7962L243.387 77.3903L241.981 72.1522L245.814 68.3201L251.052 69.726L252.458 74.964Z" fill="#839299"/>
<path d="M166.001 76.9512H161.692V95.583H166.001V76.9512Z" fill="#FFDD33"/>
<path d="M172.465 84.3438H168.156V95.5833H172.465V84.3438Z" fill="#FFDD33"/>
<path d="M178.919 81.0479H174.61V95.5829H178.919V81.0479Z" fill="#FFDD33"/>
<path d="M186.265 76.9512H181.956V95.583H186.265V76.9512Z" fill="#54CC5A"/>
<path d="M192.729 84.3438H188.42V95.5833H192.729V84.3438Z" fill="#54CC5A"/>
<path d="M199.191 81.0479H194.883V95.5829H199.191V81.0479Z" fill="#54CC5A"/>
<path d="M205.39 76.9512H201.081V95.583H205.39V76.9512Z" fill="#54CC5A"/>
<path d="M211.845 84.3438H207.536V95.5833H211.845V84.3438Z" fill="#54CC5A"/>
<path d="M218.308 81.0479H213.999V95.5829H218.308V81.0479Z" fill="#54CC5A"/>
<path d="M193.053 56.8691H170.625V58.3205H193.053V56.8691Z" fill="#839299"/>
<path d="M216.152 60.8682H170.625V62.3195H216.152V60.8682Z" fill="#839299"/>
<path d="M216.152 64.8662H170.625V66.3175H216.152V64.8662Z" fill="#839299"/>
<path d="M165.88 54.1621H151.026V69.0146H165.88V54.1621Z" fill="#54CC5A"/>
<path d="M157.027 66.1733L152.529 61.6757L154.351 59.8539L157.027 62.5298L162.553 57.0117L164.374 58.8335L157.027 66.1733Z" fill="#F9FAFB"/>
<path d="M176.318 116.837C176.318 113.096 174.798 109.71 172.349 107.261L168.902 110.707C170.475 112.28 171.442 114.441 171.442 116.837C171.442 119.082 170.58 121.123 169.182 122.657L172.637 126.112C174.919 123.685 176.318 120.428 176.318 116.837Z" fill="#0054A6"/>
<path d="M169.19 122.658C167.603 124.404 165.328 125.508 162.78 125.508C157.995 125.508 154.11 121.63 154.11 116.838C154.11 112.053 157.988 108.168 162.78 108.168V103.293C155.304 103.293 149.234 109.355 149.234 116.838C149.234 124.313 155.297 130.383 162.78 130.383C166.673 130.383 170.173 128.743 172.645 126.112L169.19 122.658Z" fill="#54CC5A"/>
<path d="M148.252 81.3885C147.186 78.8715 145.667 76.6115 143.724 74.669C141.781 72.7264 139.521 71.2071 137.004 70.1414C134.396 69.0378 131.622 68.4785 128.773 68.4785C125.477 68.4785 121.97 69.5594 118.334 71.6833C117.132 72.3863 115.907 73.2102 114.66 74.1474C112.196 76.0068 111.886 79.5896 114.002 81.8344C115.817 83.7619 118.787 84.0038 120.904 82.4089C121.811 81.7211 122.703 81.124 123.557 80.6251C125.56 79.4535 127.359 78.8413 128.773 78.8413C130.231 78.8413 131.645 79.1285 132.968 79.6878C134.253 80.232 135.402 81.0106 136.4 82.0007C137.39 82.9909 138.168 84.1474 138.713 85.4323C139.272 86.7551 139.559 88.1685 139.559 89.6273C139.559 91.0861 139.272 92.4995 138.713 93.8223C138.168 95.1072 137.39 96.2561 136.4 97.2539C135.409 98.244 134.253 99.0226 132.968 99.5668C131.645 100.126 130.231 100.413 128.773 100.413C127.359 100.413 125.56 99.7935 123.557 98.6295C121.629 97.5033 119.551 95.8933 117.374 93.845C115.363 91.9478 113.662 90.0506 112.596 88.7883C111.478 87.4656 110.813 86.5661 110.805 86.5585C110.752 86.4905 109.936 85.387 108.59 83.7997C106.784 81.6682 104.909 79.6727 103.004 77.8889C100.26 75.3039 97.5467 73.2253 94.9464 71.706C91.3106 69.5821 87.7957 68.5012 84.5075 68.5012C81.6578 68.5012 78.8837 69.0605 76.2759 70.1641C73.7587 71.2298 71.4986 72.7491 69.556 74.6916C67.6133 76.6342 66.094 78.8942 65.0282 81.4112C63.9246 84.0189 63.3652 86.7928 63.3652 89.6424C63.3652 92.492 63.9246 95.266 65.0282 97.8737C66.094 100.391 67.6133 102.651 69.556 104.593C71.4986 106.536 73.7587 108.055 76.2759 109.121C78.8837 110.224 81.6578 110.784 84.5075 110.784C87.8032 110.784 91.3106 109.703 94.9464 107.579C96.1483 106.876 97.3728 106.052 98.62 105.115C101.084 103.255 101.394 99.6726 99.2777 97.4277C97.4635 95.5003 94.4929 95.2584 92.3764 96.8533C91.4693 97.5411 90.5773 98.1382 89.7232 98.6371C87.7201 99.8087 85.921 100.421 84.5075 100.421C83.0487 100.421 81.6351 100.134 80.3123 99.5743C79.0273 99.0301 77.8784 98.2516 76.8806 97.2614C75.8904 96.2713 75.1118 95.1148 74.5676 93.8299C74.0082 92.5071 73.721 91.0937 73.721 89.6349C73.721 88.1761 74.0082 86.7626 74.5676 85.4399C75.1118 84.1549 75.8904 83.006 76.8806 82.0083C77.8708 81.0181 79.0273 80.2396 80.3123 79.6954C81.6351 79.136 83.0487 78.8488 84.5075 78.8488C85.921 78.8488 87.7201 79.4686 89.7232 80.6326C91.6507 81.7589 93.7294 83.3688 95.9064 85.4172C97.917 87.3144 99.6178 89.2116 100.684 90.4739C101.802 91.7966 102.468 92.6961 102.475 92.7036C102.528 92.7717 103.344 93.8752 104.69 95.4625C106.496 97.594 108.371 99.5895 110.276 101.373C113.02 103.958 115.733 106.037 118.334 107.556C121.97 109.68 125.484 110.761 128.773 110.761C131.622 110.761 134.396 110.202 137.004 109.098C139.521 108.032 141.781 106.513 143.724 104.571C145.667 102.628 147.186 100.368 148.252 97.851C149.355 95.2433 149.915 92.4693 149.915 89.6197C149.915 86.7626 149.355 83.9962 148.252 81.3885Z" fill="#0054A6"/>
<path d="M218.542 102.983H182.296V104.359H218.542V102.983Z" fill="#F9FAFB"/>
<path d="M218.542 108.153H182.296V109.529H218.542V108.153Z" fill="#F9FAFB"/>
<path d="M218.542 113.323H182.296V114.699H218.542V113.323Z" fill="#F9FAFB"/>
<path d="M218.542 118.917H182.296V120.293H218.542V118.917Z" fill="#F9FAFB"/>
<path d="M218.542 124.087H182.296V125.463H218.542V124.087Z" fill="#F9FAFB"/>
<path d="M218.542 129.249H182.296V130.625H218.542V129.249Z" fill="#F9FAFB"/>
<path d="M70.7975 59.7865C68.4618 59.7865 66.5645 57.8894 66.5645 55.5538V47.708H75.0306V55.5538C75.0306 57.8894 73.1333 59.7865 70.7975 59.7865Z" fill="#839299"/>
<path d="M91.238 20.4363C91.238 8.6677 81.2903 -0.780463 69.3394 0.0509758C59.301 0.746361 51.1599 8.84911 50.4115 18.8793C49.837 26.6117 53.5788 33.5202 59.4673 37.4506C62.2717 39.3176 63.9271 42.4997 63.9271 45.8708V47.6093C63.9271 49.0076 65.061 50.1489 66.467 50.1489H75.1296C76.5281 50.1489 77.6695 49.0152 77.6695 47.6093V45.8708C77.6695 42.4468 79.4156 39.2873 82.2503 37.3675C87.6701 33.694 91.238 27.4809 91.238 20.4363Z" fill="#FFDD33"/>
<path d="M76.105 52.5906H65.4921C65.2124 52.5906 64.9932 52.3638 64.9932 52.0917C64.9932 51.8195 65.2199 51.5928 65.4921 51.5928H76.105C76.3847 51.5928 76.6039 51.8195 76.6039 52.0917C76.6039 52.3638 76.3771 52.5906 76.105 52.5906Z" fill="#D2D9DC"/>
<path d="M76.105 54.6462H65.4921C65.2124 54.6462 64.9932 54.4195 64.9932 54.1473C64.9932 53.8752 65.2199 53.6484 65.4921 53.6484H76.105C76.3847 53.6484 76.6039 53.8752 76.6039 54.1473C76.6039 54.4195 76.3771 54.6462 76.105 54.6462Z" fill="#D2D9DC"/>
<path d="M76.105 56.7097H65.4921C65.2124 56.7097 64.9932 56.4829 64.9932 56.2108C64.9932 55.9311 65.2199 55.7119 65.4921 55.7119H76.105C76.3847 55.7119 76.6039 55.9387 76.6039 56.2108C76.6039 56.4829 76.3771 56.7097 76.105 56.7097Z" fill="#D2D9DC"/>
<g opacity="0.19">
<path d="M64.7645 25.6975C70.1081 25.6975 74.44 21.3659 74.44 16.0226C74.44 10.6793 70.1081 6.34766 64.7645 6.34766C59.4208 6.34766 55.0889 10.6793 55.0889 16.0226C55.0889 21.3659 59.4208 25.6975 64.7645 25.6975Z" fill="#F9FAFB"/>
<path d="M77.9007 29.1575C79.1317 27.9266 79.1317 25.9309 77.9007 24.6999C76.6697 23.469 74.6738 23.469 73.4428 24.6999C72.2118 25.9308 72.2118 27.9266 73.4428 29.1575C74.6738 30.3884 76.6697 30.3884 77.9007 29.1575Z" fill="#F9FAFB"/>
</g>
<g opacity="0.19">
<path d="M64.7645 25.6975C70.1081 25.6975 74.44 21.3659 74.44 16.0226C74.44 10.6793 70.1081 6.34766 64.7645 6.34766C59.4208 6.34766 55.0889 10.6793 55.0889 16.0226C55.0889 21.3659 59.4208 25.6975 64.7645 25.6975Z" fill="#F9FAFB"/>
<path d="M77.9007 29.1575C79.1317 27.9266 79.1317 25.9309 77.9007 24.6999C76.6697 23.469 74.6738 23.469 73.4428 24.6999C72.2118 25.9308 72.2118 27.9266 73.4428 29.1575C74.6738 30.3884 76.6697 30.3884 77.9007 29.1575Z" fill="#F9FAFB"/>
</g>
<path d="M84.1758 161.706L79.2247 158.841C79.5044 157.337 79.6707 155.788 79.6707 154.2C79.6707 152.613 79.5044 151.064 79.2322 149.56L84.1833 146.695C86.2091 145.523 86.9121 142.923 85.7405 140.897L81.4924 133.543C80.3207 131.517 77.7205 130.814 75.6947 131.986L73.1851 133.437C71.8094 134.231 70.0784 134.238 68.7783 133.331C67.5839 132.5 66.3216 131.767 64.9912 131.147C63.5475 130.474 62.6933 128.97 62.6933 127.383V124.48C62.6933 122.137 60.7885 120.232 58.4452 120.232H49.9414C47.5982 120.232 45.6933 122.137 45.6933 124.48V127.383C45.6933 128.97 44.8392 130.474 43.3954 131.147C42.065 131.767 40.8027 132.5 39.6084 133.331C38.3083 134.238 36.5697 134.231 35.2015 133.437L32.692 131.986C30.6662 130.814 28.0659 131.51 26.8943 133.543L22.6462 140.897C21.4745 142.923 22.17 145.523 24.2033 146.695L29.1544 149.56C28.8747 151.064 28.7084 152.613 28.7084 154.2C28.7084 155.788 28.8747 157.337 29.1468 158.841L24.1957 161.706C22.17 162.878 21.467 165.478 22.6386 167.504L26.8867 174.858C28.0584 176.884 30.6586 177.587 32.6844 176.415L35.194 174.964C36.5697 174.17 38.3007 174.163 39.6008 175.07C40.7951 175.901 42.0575 176.634 43.3878 177.254C44.8316 177.927 45.6858 179.431 45.6858 181.018V183.921C45.6858 186.264 47.5906 188.169 49.9339 188.169H58.4377C60.7809 188.169 62.6858 186.264 62.6858 183.921V181.018C62.6858 179.431 63.5399 177.927 64.9837 177.254C66.314 176.634 67.5764 175.901 68.7707 175.07C70.0708 174.163 71.8094 174.17 73.1775 174.964L75.6871 176.415C77.7129 177.587 80.3132 176.891 81.4848 174.858L85.7329 167.504C86.897 165.47 86.2016 162.878 84.1758 161.706ZM54.1895 171.177C44.8089 171.177 37.2046 163.573 37.2046 154.193C37.2046 144.813 44.8089 137.209 54.1895 137.209C63.5702 137.209 71.1744 144.82 71.1744 154.2C71.1744 163.573 63.5702 171.177 54.1895 171.177Z" fill="#839299"/>
</svg>
