<svg width="334" height="248" viewBox="0 0 334 248" fill="none" xmlns="http://www.w3.org/2000/svg">
<path d="M100.2 35.6L90.7004 29.7001L89.0004 32.6C88.5004 33.5 87.5004 33.9 86.5004 33.8C85.9004 33.8 85.4004 33.7001 84.8004 33.7001C83.8004 33.7001 82.9004 33.2 82.4004 32.3L80.8004 29.3L71.0004 34.6L72.6004 37.6C73.1004 38.5 73.0004 39.5001 72.4004 40.4001C72.1004 40.9001 71.8004 41.3 71.5004 41.8C71.0004 42.7 70.1004 43.2001 69.1004 43.2001L65.7004 43.1L65.4004 54.2001L68.8004 54.3C69.8004 54.3 70.7004 54.9001 71.1004 55.9001C71.2004 56.1001 71.3004 56.4 71.5004 56.6C71.6004 56.8 71.8004 57.1 71.9004 57.3C72.4004 58.2 72.4004 59.2 71.9004 60.1L70.1004 63L79.6004 68.9001L81.4004 66C81.9004 65.1 82.9004 64.7001 83.9004 64.8001C84.5004 64.8001 85.0004 64.9001 85.6004 64.9001C86.6004 64.9001 87.5004 65.4001 88.0004 66.3001L89.6004 69.3001L99.4004 64L97.8004 61C97.3004 60.1 97.4004 59.1 98.0004 58.2001C98.3004 57.7001 98.6004 57.3 98.9004 56.8C99.4004 55.9 100.3 55.4001 101.3 55.4001L104.7 55.5L105 44.4001L101.6 44.3C100.6 44.3 99.7004 43.7001 99.3004 42.7001C99.2004 42.5001 99.1004 42.2 98.9004 42C98.8004 41.8 98.6004 41.5 98.5004 41.3C98.0004 40.4 98.0004 39.4 98.5004 38.5L100.2 35.6ZM93.2004 45C95.6004 49.4 93.9004 55.0001 89.5004 57.4001C85.1004 59.8001 79.5004 58.1 77.1004 53.7001C74.7004 49.3001 76.4004 43.7 80.8004 41.3C85.3004 38.9 90.8004 40.6 93.2004 45Z" fill="#D1D8DB"/>
<path d="M71.1 70.2L67.2 63.4001L65.1 64.6C64.5 65 63.7 64.9 63.2 64.5C62.9 64.3 62.5 64.1001 62.2 63.9001C61.6 63.6001 61.2 63.0001 61.2 62.2001V59.8H53.4V62.2001C53.4 62.9001 53 63.5001 52.4 63.9001C52.1 64.1001 51.7 64.3 51.4 64.5C50.8 64.9 50.1 64.9 49.5 64.6L47.4 63.4001L43.5 70.2L45.6 71.4001C46.2 71.8001 46.5 72.4 46.5 73.1C46.5 73.3 46.5 73.5 46.5 73.7C46.5 73.9 46.5 74.1001 46.5 74.3001C46.5 75.0001 46.2 75.7 45.6 76L43.5 77.2L47.4 84L49.5 82.8001C50.1 82.4001 50.9 82.5001 51.4 82.9001C51.7 83.1001 52.1 83.3 52.4 83.5C53 83.8 53.4 84.4 53.4 85.2V87.6H61.2V85C61.2 84.3 61.6 83.7001 62.2 83.3001C62.5 83.1001 62.9 82.9 63.2 82.7C63.8 82.3 64.5 82.3 65.1 82.6L67.2 83.8001L71.1 77L69 76C68.4 75.6 68.1 75.0001 68.1 74.3001C68.1 74.1001 68.1 73.9 68.1 73.7C68.1 73.5 68.1 73.3 68.1 73.1C68.1 72.4 68.4 71.7001 69 71.4001L71.1 70.2ZM63.7 73.7C63.7 77.2 60.8 80.1 57.3 80.1C53.8 80.1 50.9 77.2 50.9 73.7C50.9 70.2 53.8 67.3001 57.3 67.3001C60.8 67.3001 63.7 70.1 63.7 73.7Z" fill="#D1D8DB"/>
<path d="M268.8 210.3H81.6002C76.2002 210.3 71.7002 205.9 71.7002 200.4V74.6C71.7002 69.1 76.1002 64.7 81.6002 64.7H268.9C274.4 64.7 278.8 69.1 278.8 74.6V200.4C278.7 205.8 274.3 210.3 268.8 210.3Z" fill="#829198"/>
<path d="M277.2 218.6H73.1998C65.4998 218.6 59.2998 212.4 59.2998 204.7H291.2C291.1 212.4 284.9 218.6 277.2 218.6Z" fill="#5F737C"/>
<path d="M271.4 72.3999H79.2002V200.2H271.4V72.3999Z" fill="#F8F9FA"/>
<path d="M271.3 72.3999H79V77.0999H271.3V72.3999Z" fill="#002548"/>
<path d="M81.5994 75.9C82.2622 75.9 82.7994 75.3627 82.7994 74.7C82.7994 74.0373 82.2622 73.5 81.5994 73.5C80.9367 73.5 80.3994 74.0373 80.3994 74.7C80.3994 75.3627 80.9367 75.9 81.5994 75.9Z" fill="#EC1C24"/>
<path d="M86.2996 75.9C86.9624 75.9 87.4996 75.3627 87.4996 74.7C87.4996 74.0373 86.9624 73.5 86.2996 73.5C85.6369 73.5 85.0996 74.0373 85.0996 74.7C85.0996 75.3627 85.6369 75.9 86.2996 75.9Z" fill="#FFDC33"/>
<path d="M91.0994 75.9C91.7622 75.9 92.2994 75.3627 92.2994 74.7C92.2994 74.0373 91.7622 73.5 91.0994 73.5C90.4367 73.5 89.8994 74.0373 89.8994 74.7C89.8994 75.3627 90.4367 75.9 91.0994 75.9Z" fill="#54CB5A"/>
<path d="M274.2 85.9C275.9 86 277.6 86.4 279.1 87.2L277.7 89L286.7 90.1L283.2 81.7L281.8 83.5C279.3 82.5 276.6 82.1 274 82.3C270.8 82.6 267.7 83.9 265.3 85.9C262.9 87.9 261.2 90.7 260.4 93.6C259.6 96.5 259.8 99.6 260.8 102.3C260.2 99.5 260.5 96.5 261.6 94C262.7 91.4 264.5 89.3 266.8 87.9C269.1 86.5 271.7 85.7 274.2 85.9Z" fill="#54CB5A"/>
<path d="M288.8 103C289.6 100 289.3 96.8 288.2 94C288.9 96.9 288.7 100 287.6 102.7C286.5 105.4 284.6 107.6 282.3 109.1C280 110.5 277.2 111.2 274.6 111C272.9 110.9 271.3 110.4 269.9 109.6L271.2 107.8L262.1 106.7L265.7 115.1L267.2 113.2C269.6 114.2 272.1 114.7 274.6 114.5C278 114.3 281.2 113 283.7 111C286.2 108.9 288 106 288.8 103Z" fill="#54CB5A"/>
<path d="M171.2 118.2C174.1 118.3 176.9 119.1 179.4 120.3L177.1 123.3L192.2 125.2L186.3 111.2L184 114.2C179.8 112.5 175.3 111.8 171 112.2C165.6 112.7 160.5 114.9 156.5 118.3C152.5 121.6 149.7 126.2 148.4 131.1C147.1 136 147.4 141.1 149 145.6C148 140.9 148.4 136 150.3 131.7C152.1 127.4 155.1 123.8 158.9 121.5C162.6 119.1 167 117.9 171.2 118.2Z" fill="#54CB5A"/>
<path d="M195.501 146.6C196.801 141.6 196.401 136.2 194.601 131.6C195.801 136.5 195.501 141.6 193.601 146C191.801 150.4 188.601 154.2 184.701 156.6C180.801 159 176.201 160.1 171.901 159.8C169.101 159.6 166.401 158.8 164.001 157.5L166.201 154.6L151.101 152.8L157.101 166.7L159.501 163.5C163.401 165.2 167.701 166 171.901 165.7C177.501 165.4 182.901 163.2 187.101 159.8C191.201 156.4 194.201 151.7 195.501 146.6Z" fill="#54CB5A"/>
<path d="M208.601 176.4H135.301C134.601 176.4 134.101 175.9 134.101 175.2V174.8C134.101 174.1 134.601 173.6 135.301 173.6H208.601C209.301 173.6 209.801 174.1 209.801 174.8V175.2C209.801 175.9 209.201 176.4 208.601 176.4Z" fill="#D1D8DB"/>
<path d="M187.4 176.4H135.2C134.5 176.4 134 175.9 134 175.2V174.8C134 174.1 134.5 173.6 135.2 173.6H187.4C188.1 173.6 188.6 174.1 188.6 174.8V175.2C188.6 175.9 188.1 176.4 187.4 176.4Z" fill="#0054A5"/>
<path d="M175.4 152.9L182.2 149L181 146.9C180.6 146.3 180.7 145.5 181.1 145C181.3 144.7 181.5 144.3 181.7 144C182 143.4 182.6 143 183.4 143H185.8V135.2H183.4C182.7 135.2 182.1 134.8 181.7 134.2C181.5 133.9 181.3 133.5 181.1 133.2C180.7 132.6 180.7 131.9 181 131.3L182.2 129.2L175.4 125.3L174.2 127.4C173.8 128 173.2 128.3 172.5 128.3C172.3 128.3 172.1 128.3 171.9 128.3C171.7 128.3 171.5 128.3 171.3 128.3C170.6 128.3 169.9 128 169.6 127.4L168.4 125.3L161.6 129.2L162.8 131.3C163.2 131.9 163.1 132.7 162.7 133.2C162.5 133.5 162.3 133.9 162.1 134.2C161.8 134.8 161.2 135.2 160.4 135.2H158V143H160.4C161.1 143 161.7 143.4 162.1 144C162.3 144.3 162.5 144.7 162.7 145C163.1 145.6 163.1 146.3 162.8 146.9L161.6 149L168.4 152.9L169.6 150.8C170 150.2 170.6 149.9 171.3 149.9C171.5 149.9 171.7 149.9 171.9 149.9C172.1 149.9 172.3 149.9 172.5 149.9C173.2 149.9 173.9 150.2 174.2 150.8L175.4 152.9ZM171.9 145.4C168.4 145.4 165.5 142.5 165.5 139C165.5 135.5 168.4 132.6 171.9 132.6C175.4 132.6 178.3 135.5 178.3 139C178.3 142.5 175.4 145.4 171.9 145.4Z" fill="#829198"/>
<path d="M114.2 139.2L104.7 148.5C104 149.2 102.8 149.2 102 148.5L95.7003 142.1C95.0003 141.4 95.0003 140.2 95.7003 139.4L105.2 130.1C100.2 128.4 94.5003 129.5 90.5003 133.4C85.7003 138.1 84.9003 145.2 88.1003 150.7C88.1003 150.7 88.1003 150.8 88.2003 150.8L44.3003 192.7C42.5003 194.4 42.5003 197.2 44.2003 198.9C45.9003 200.6 48.7003 200.6 50.4003 198.9L93.2003 155.9C93.2003 155.9 93.3003 155.9 93.3003 156C98.8003 159.3 105.9 158.6 110.7 153.9C114.6 150 115.8 144.3 114.2 139.2ZM49.2003 196.8C48.5003 197.7 47.2003 197.9 46.3003 197.2C45.4003 196.5 45.2003 195.2 45.9003 194.3C46.6003 193.4 47.9003 193.2 48.8003 193.9C49.7003 194.6 49.9003 195.9 49.2003 196.8Z" fill="#D1D8DB"/>
<path d="M233.801 204.8C233.701 204.8 233.601 204.8 233.501 204.7C233.301 204.5 233.301 204.2 233.501 204.1C234.101 203.5 234.601 202.8 235.201 202.1C235.401 201.9 235.601 201.9 235.801 202C236.001 202.2 236.001 202.4 235.901 202.6C235.301 203.4 234.701 204.1 234.201 204.7C234.001 204.8 233.901 204.8 233.801 204.8ZM238.001 199.1C237.901 199.1 237.801 199.1 237.801 199C237.601 198.9 237.501 198.6 237.701 198.4C238.201 197.6 238.701 196.9 239.101 196.1C239.201 195.9 239.501 195.8 239.701 196C239.901 196.1 240.001 196.4 239.801 196.6C239.301 197.4 238.901 198.1 238.401 198.9C238.301 199 238.201 199.1 238.001 199.1ZM241.401 192.7H241.301C241.101 192.6 240.901 192.4 241.001 192.2C241.101 191.8 241.101 191.5 241.101 191.1C241.101 190.6 241.001 190.2 240.901 189.7C240.801 189.5 241.001 189.2 241.201 189.1C241.401 189 241.701 189.2 241.801 189.4C242.001 189.9 242.101 190.5 242.101 191C242.101 191.4 242.001 191.8 242.001 192.3C241.801 192.6 241.601 192.7 241.401 192.7ZM238.901 186.4C238.801 186.4 238.701 186.3 238.601 186.3L238.001 185.7C237.601 185.2 237.201 184.8 236.801 184.3C236.601 184.1 236.701 183.8 236.901 183.7C237.101 183.5 237.401 183.6 237.501 183.8C237.901 184.3 238.301 184.7 238.701 185.2L239.301 185.8C239.501 186 239.501 186.3 239.301 186.4C239.101 186.3 239.001 186.4 238.901 186.4ZM235.101 180.4C234.901 180.4 234.701 180.2 234.701 180C234.701 179.8 234.701 179.7 234.701 179.5C234.701 179.4 234.701 179.3 234.701 179.3C234.701 178.6 234.901 177.9 235.301 177.2C235.401 177 235.701 176.9 235.901 177C236.101 177.1 236.201 177.4 236.101 177.6C235.801 178.2 235.701 178.8 235.601 179.4C235.601 179.5 235.601 179.5 235.601 179.6C235.601 179.7 235.601 179.9 235.601 180C235.501 180.1 235.401 180.4 235.101 180.4ZM238.401 174.3C238.301 174.3 238.201 174.3 238.101 174.2C237.901 174 237.901 173.7 238.101 173.6C238.801 173 239.401 172.4 240.101 171.8C240.301 171.6 240.601 171.7 240.701 171.8C240.901 172 240.801 172.3 240.701 172.4C240.001 173 239.401 173.6 238.701 174.2C238.601 174.3 238.501 174.3 238.401 174.3ZM243.901 169.7C243.801 169.7 243.601 169.6 243.501 169.5C243.401 169.3 243.401 169 243.601 168.9C244.301 168.4 245.101 167.8 245.801 167.3C246.001 167.2 246.301 167.2 246.401 167.4C246.501 167.6 246.501 167.9 246.301 168C245.601 168.5 244.801 169 244.101 169.6C244.101 169.7 244.001 169.7 243.901 169.7Z" fill="#0054A5"/>
<path d="M246.9 167L255.7 160.6L251.5 158.6L247.8 162.9L246.9 167Z" fill="#FFBC85"/>
<path opacity="0.19" d="M246.9 167L255.7 160.6L251.5 158.6L247.8 162.9L246.9 167Z" fill="#2D2F31"/>
<path d="M245 157.4L246.9 167L250.5 161.6L268.6 149.6L245 157.4Z" fill="#FFBC85"/>
<path d="M240.9 154L245 157.4L268.6 149.6L240.9 154Z" fill="#FDD1A3"/>
<path d="M250.5 161.6L256.4 167.4L268.6 149.6L250.5 161.6Z" fill="#FDD1A3"/>
<path d="M140.4 86.7999C137.5 86.7999 134.6 85.9999 132.1 84.5999C128.2 82.3999 125.5 78.7999 124.3 74.4999C123.1 70.1999 123.7 65.6999 126 61.7999C129 56.5999 134.5 53.3999 140.5 53.3999C143.4 53.3999 146.3 54.1999 148.8 55.5999C156.8 60.1999 159.5 70.4999 154.9 78.3999C151.9 83.5999 146.4 86.7999 140.4 86.7999Z" fill="#002548"/>
<path d="M155.771 71.3546C156.444 62.8758 150.117 55.4564 141.638 54.7828C133.159 54.1093 125.74 60.4367 125.066 68.9156C124.393 77.3944 130.72 84.8138 139.199 85.4873C147.678 86.1609 155.097 79.8334 155.771 71.3546Z" fill="#0054A5"/>
<g opacity="0.19">
<path d="M155.771 71.3546C156.444 62.8758 150.117 55.4564 141.638 54.7828C133.159 54.1093 125.74 60.4367 125.066 68.9156C124.393 77.3944 130.72 84.8138 139.199 85.4873C147.678 86.1609 155.097 79.8334 155.771 71.3546Z" fill="#F8F9FA"/>
</g>
<path d="M158.4 65.3C157.1 60.5 154 56.5 149.7 54C146.9 52.4 143.7 51.5 140.4 51.5C133.8 51.5 127.6 55.1 124.3 60.8C121.8 65.1 121.2 70.1 122.4 74.9C123.7 79.7 126.8 83.7 131.1 86.2C133.9 87.8 137.1 88.7 140.4 88.7C147 88.7 153.2 85.1 156.5 79.4C159 75.1 159.7 70.1 158.4 65.3ZM154.2 78.1C151.3 83.2 145.9 86.1 140.4 86.1C137.7 86.1 135 85.4 132.5 84C124.9 79.6 122.3 69.9 126.7 62.3C129.6 57.2 135 54.3 140.5 54.3C143.2 54.3 145.9 55 148.4 56.4C156 60.7 158.6 70.5 154.2 78.1Z" fill="#0054A5"/>
<path d="M140.4 58.5C140.2 58.5 140 58.2999 140 58.0999V55.5999C140 55.3999 140.2 55.2 140.4 55.2C140.6 55.2 140.8 55.3999 140.8 55.5999V58.0999C140.8 58.2999 140.6 58.5 140.4 58.5Z" fill="#D1D8DB"/>
<path d="M128.4 70.5H125.9C125.7 70.5 125.5 70.3 125.5 70.1C125.5 69.9 125.7 69.7 125.9 69.7H128.4C128.6 69.7 128.8 69.9 128.8 70.1C128.8 70.3 128.6 70.5 128.4 70.5Z" fill="#D1D8DB"/>
<path d="M140.4 85C140.2 85 140 84.8 140 84.6V82.1C140 81.9 140.2 81.7 140.4 81.7C140.6 81.7 140.8 81.9 140.8 82.1V84.6C140.8 84.9 140.6 85 140.4 85Z" fill="#D1D8DB"/>
<path d="M155 70.5H152.5C152.3 70.5 152.1 70.3 152.1 70.1C152.1 69.9 152.3 69.7 152.5 69.7H155C155.2 69.7 155.4 69.9 155.4 70.1C155.4 70.3 155.2 70.5 155 70.5Z" fill="#D1D8DB"/>
<path d="M140.4 70.3999L132.5 70.2999C132.3 70.2999 132 70.0999 132.1 69.7999C132.1 69.5999 132.3 69.3999 132.6 69.3999L140.5 69.4999C140.8 69.4999 141 69.6999 140.9 69.9999C140.9 70.1999 140.6 70.3999 140.4 70.3999Z" fill="#EC1C24"/>
<path d="M140.4 70.5001H140.3C140.2 70.4001 140.1 70.2001 140.2 70.1001L144.9 61.5001C145 61.4001 145.2 61.3001 145.3 61.4001C145.4 61.5001 145.5 61.7001 145.4 61.8001L140.7 70.4001C140.6 70.5001 140.5 70.5001 140.4 70.5001Z" fill="#EC1C24"/>
<path d="M140.9 71C140.4 71.3 139.8 71.1 139.5 70.6C139.2 70.1 139.4 69.5 139.9 69.2C140.4 68.9 141 69.1 141.3 69.6C141.6 70.1 141.4 70.7 140.9 71Z" fill="#EC1C24"/>
<path d="M140.7 70.5999C140.5 70.6999 140.1 70.6999 140 70.3999C139.9 70.1999 139.9 69.7999 140.2 69.6999C140.4 69.5999 140.8 69.5999 140.9 69.8999C141 70.0999 140.9 70.3999 140.7 70.5999Z" fill="#D1D8DB"/>
</svg>
