<svg width="48" height="48" viewBox="0 0 48 48" fill="none" xmlns="http://www.w3.org/2000/svg">
<g clip-path="url(#clip0_14282_24044)">
<path opacity="0.988" fill-rule="evenodd" clip-rule="evenodd" d="M19.7344 11.7657C17.9314 9.98261 15.7751 9.21695 13.2656 9.46886C13.3177 9.50476 13.349 9.55164 13.3594 9.60948C13.2473 9.5928 13.1379 9.56158 13.0312 9.51573C12.7123 9.63067 12.3842 9.6932 12.0469 9.70323C12.3499 9.0035 12.678 8.316 13.0312 7.64073C14.1341 6.31635 15.5247 5.86323 17.2031 6.28136C18.8528 6.89025 19.7591 8.07775 19.9219 9.84386C19.834 10.4822 19.7715 11.1229 19.7344 11.7657Z" fill="#B55A1E"/>
<path opacity="0.988" fill-rule="evenodd" clip-rule="evenodd" d="M35.8594 9.70308C34.9059 9.45221 33.9372 9.37404 32.9531 9.46871C32.8672 9.49477 32.8048 9.54165 32.7656 9.60933C31.5316 9.64646 30.4066 10.0371 29.3906 10.7812C28.9686 11.1253 28.5623 11.4846 28.1719 11.8593C28.1376 11.1696 28.0751 10.4821 27.9844 9.79683C28.3593 7.18783 29.8593 5.9847 32.4844 6.18746C33.4287 6.33928 34.1943 6.7924 34.7812 7.54683C35.1896 8.23859 35.549 8.95734 35.8594 9.70308Z" fill="#B55B1E"/>
<path opacity="0.999" fill-rule="evenodd" clip-rule="evenodd" d="M19.7344 11.7658C21.3908 13.7638 21.9533 16.045 21.4219 18.6095C21.129 21.0694 20.879 23.5382 20.6719 26.0158C20.5838 27.3601 20.49 28.7039 20.3906 30.047C20.34 30.4353 20.2776 30.8103 20.2031 31.172C20.0428 29.1908 19.4178 27.3783 18.3281 25.7345C18.5878 22.6239 18.8691 19.5145 19.1719 16.4064C18.9779 13.7661 17.7592 11.7661 15.5156 10.4064C14.8333 10.0384 14.1146 9.77273 13.3594 9.60952C13.349 9.55167 13.3178 9.5048 13.2656 9.46889C15.7751 9.21698 17.9314 9.98264 19.7344 11.7658Z" fill="#B25D23"/>
<path opacity="0.992" fill-rule="evenodd" clip-rule="evenodd" d="M35.8594 9.7032C37.5892 10.2924 38.9485 11.3549 39.9375 12.8907C42.1359 17.3187 44.3078 21.7563 46.4531 26.2032C45.8379 25.3375 45.1192 24.5563 44.2969 23.8594C43.6227 23.3194 42.9039 22.8507 42.1406 22.4532C40.5818 19.148 38.9724 15.8668 37.3125 12.6094C36.1986 11.0126 34.6829 10.0126 32.7656 9.60945C32.8048 9.54176 32.8672 9.49489 32.9531 9.46882C33.9372 9.37416 34.9059 9.45232 35.8594 9.7032Z" fill="#B25D23"/>
<path opacity="0.996" fill-rule="evenodd" clip-rule="evenodd" d="M13.3594 9.60938C14.1146 9.77259 14.8333 10.0383 15.5156 10.4062C17.7592 11.766 18.9779 13.766 19.1719 16.4062C18.8691 19.5143 18.5878 22.6237 18.3281 25.7344C17.7682 24.9869 17.1119 24.3307 16.3594 23.7656C14.1651 22.0446 11.6651 21.3102 8.85938 21.5625C5.72378 22.0667 3.25504 23.6136 1.45312 26.2031C3.63118 21.6908 5.83431 17.1908 8.0625 12.7031C9.0556 11.2567 10.3837 10.2567 12.0469 9.70312C12.3842 9.69309 12.7123 9.63056 13.0312 9.51562C13.1379 9.56147 13.2473 9.59269 13.3594 9.60938Z" fill="#C46627"/>
<path opacity="0.998" fill-rule="evenodd" clip-rule="evenodd" d="M32.7659 9.60938C34.6832 10.0125 36.1989 11.0125 37.3128 12.6094C38.9728 15.8667 40.5822 19.148 42.1409 22.4531C37.6501 20.6852 33.697 21.4976 30.2816 24.8906C28.7246 26.7247 27.8653 28.8497 27.7034 31.2656C27.63 30.8725 27.5676 30.4662 27.5159 30.0469C27.4664 28.7003 27.3727 27.3565 27.2347 26.0156C27.0117 23.5399 26.7616 21.0711 26.4847 18.6094C26.077 16.7122 26.3114 14.8998 27.1878 13.1719C27.4495 12.6776 27.7776 12.2402 28.1722 11.8594C28.5627 11.4847 28.9689 11.1253 29.3909 10.7812C30.4069 10.0372 31.5319 9.6465 32.7659 9.60938Z" fill="#C46627"/>
<path opacity="0.996" fill-rule="evenodd" clip-rule="evenodd" d="M26.4844 18.6094C26.7613 21.0711 27.0113 23.5399 27.2344 26.0156C25.0453 25.2658 22.8577 25.2658 20.6719 26.0156C20.879 23.5381 21.129 21.0693 21.4219 18.6094C23.1094 18.2344 24.7969 18.2344 26.4844 18.6094Z" fill="#A55016"/>
<path fill-rule="evenodd" clip-rule="evenodd" d="M16.3594 23.7657C18.6362 27.2904 18.8393 30.9466 16.9688 34.7344C14.4072 38.7254 10.7665 40.3661 6.04688 39.6563C5.43884 39.5121 4.84509 39.3246 4.26563 39.0938C3.61522 38.7368 2.95897 38.4087 2.29688 38.1094C1.7218 37.4616 1.23743 36.7428 0.84375 35.9532C0.443151 35.0047 0.146275 34.0359 -0.046875 33.0469C-0.046875 32.1094 -0.046875 31.1719 -0.046875 30.2344C0.191724 28.8006 0.691724 27.4568 1.45313 26.2032C3.25504 23.6136 5.72378 22.0667 8.85938 21.5625C11.6651 21.3103 14.1651 22.0446 16.3594 23.7657Z" fill="#FEE069"/>
<path fill-rule="evenodd" clip-rule="evenodd" d="M42.1409 22.4531C42.9042 22.8506 43.623 23.3194 44.2972 23.8594C44.6521 24.5692 45.0114 25.288 45.3753 26.0156C46.8701 30.6005 45.8232 34.4911 42.2347 37.6875C39.1906 39.8942 35.8781 40.3942 32.2972 39.1875C31.5511 38.7987 30.8011 38.4393 30.0472 38.1094C28.4295 36.1319 27.6483 33.8507 27.7034 31.2656C27.8652 28.8497 28.7245 26.7247 30.2815 24.8906C33.6969 21.4976 37.6501 20.6852 42.1409 22.4531Z" fill="#FEE069"/>
<path fill-rule="evenodd" clip-rule="evenodd" d="M16.3594 23.7656C17.1119 24.3307 17.7682 24.9869 18.3281 25.7344C19.4178 27.3782 20.0428 29.1907 20.2031 31.1719C20.163 35.9269 17.9755 39.255 13.6406 41.1562C9.85547 42.3865 6.41797 41.7616 3.32812 39.2812C2.92992 38.9304 2.58618 38.5399 2.29688 38.1094C2.95897 38.4086 3.61522 38.7367 4.26562 39.0938C4.84509 39.3246 5.43884 39.5121 6.04688 39.6562C10.7665 40.366 14.4072 38.7254 16.9688 34.7344C18.8393 30.9466 18.6362 27.2903 16.3594 23.7656Z" fill="#E7CB5E"/>
<path fill-rule="evenodd" clip-rule="evenodd" d="M44.2969 23.8594C45.1192 24.5562 45.8379 25.3374 46.4531 26.2031C47.2146 27.4567 47.7145 28.8006 47.9531 30.2344C47.9531 31.1407 47.9531 32.0468 47.9531 32.9531C46.8322 38.4326 43.4728 41.3701 37.875 41.7656C34.6867 41.7412 32.0772 40.5225 30.0469 38.1094C30.8008 38.4393 31.5508 38.7987 32.2969 39.1875C35.8778 40.3942 39.1903 39.8942 42.2344 37.6875C45.8229 34.4911 46.8698 30.6005 45.375 26.0156C45.0112 25.2879 44.6518 24.5692 44.2969 23.8594Z" fill="#E7CB5E"/>
<path fill-rule="evenodd" clip-rule="evenodd" d="M9.23444 25.1718C9.51737 25.1563 9.79862 25.172 10.0782 25.2187C7.99226 28.0375 5.92976 30.8657 3.89069 33.703C2.99912 30.5184 3.90538 27.9715 6.60944 26.0624C7.42419 25.5763 8.2992 25.2795 9.23444 25.1718Z" fill="#79E6E8"/>
<path fill-rule="evenodd" clip-rule="evenodd" d="M9.23438 25.1719C10.3758 24.9715 11.4696 25.1276 12.5156 25.6406C10.0393 29.0538 7.60185 32.4913 5.20312 35.9531C4.57546 35.324 4.13796 34.574 3.89062 33.7031C5.9297 30.8658 7.9922 28.0376 10.0781 25.2188C9.79856 25.1721 9.51731 25.1564 9.23438 25.1719Z" fill="#A0EDEF"/>
<path fill-rule="evenodd" clip-rule="evenodd" d="M36.9841 25.1718C37.267 25.1563 37.5483 25.172 37.8278 25.2187C35.7748 28.0614 33.7123 30.8895 31.6403 33.703C30.7705 30.0434 31.9893 27.3402 35.2966 25.5937C35.8389 25.3658 36.4014 25.2252 36.9841 25.1718Z" fill="#79E6E8"/>
<path fill-rule="evenodd" clip-rule="evenodd" d="M36.9844 25.1717C38.1555 24.9619 39.2805 25.1182 40.3594 25.6405C37.8688 29.0266 35.4001 32.4329 32.9531 35.8592C32.351 35.2502 31.9135 34.5314 31.6406 33.703C33.7126 30.8894 35.7751 28.0614 37.8281 25.2186C37.5486 25.1719 37.2673 25.1563 36.9844 25.1717Z" fill="#A0EDEF"/>
<path opacity="0.995" fill-rule="evenodd" clip-rule="evenodd" d="M27.2344 26.0157C27.3724 27.3566 27.4661 28.7004 27.5156 30.047C25.1407 29.0469 22.7656 29.0469 20.3906 30.047C20.49 28.7038 20.5837 27.3601 20.6719 26.0157C22.8577 25.2659 25.0453 25.2659 27.2344 26.0157Z" fill="#B45B1F"/>
<path fill-rule="evenodd" clip-rule="evenodd" d="M12.5156 25.6406C13.03 25.8128 13.4988 26.0628 13.9219 26.3906C11.5018 29.7914 9.07991 33.1976 6.65625 36.6094C6.55041 36.7632 6.40978 36.857 6.23438 36.8906C5.83211 36.6447 5.48836 36.3322 5.20312 35.9531C7.60185 32.4913 10.0393 29.0538 12.5156 25.6406Z" fill="#78E7E9"/>
<path fill-rule="evenodd" clip-rule="evenodd" d="M40.3594 25.6406C40.9024 25.8108 41.3711 26.092 41.7656 26.4844C39.1896 29.9477 36.6583 33.4477 34.1719 36.9844C33.702 36.6704 33.2957 36.2954 32.9531 35.8594C35.4001 32.433 37.8688 29.0268 40.3594 25.6406Z" fill="#78E7E9"/>
<path fill-rule="evenodd" clip-rule="evenodd" d="M13.9219 26.3906C14.9926 27.149 15.7426 28.149 16.1719 29.3906C16.0785 29.3826 16.0004 29.4139 15.9375 29.4844C13.8701 32.3481 11.8232 35.223 9.79688 38.1094C8.46008 38.1118 7.27258 37.7055 6.23438 36.8906C6.40978 36.857 6.55041 36.7632 6.65625 36.6094C9.07991 33.1976 11.5018 29.7914 13.9219 26.3906Z" fill="#A0EDEF"/>
<path fill-rule="evenodd" clip-rule="evenodd" d="M41.7656 26.4844C42.7629 27.2014 43.4817 28.1389 43.9219 29.2969C41.7636 32.2059 39.6385 35.1435 37.5469 38.1094C36.2961 38.0883 35.1711 37.7133 34.1719 36.9844C36.6583 33.4477 39.1896 29.9477 41.7656 26.4844Z" fill="#A0EDEF"/>
<path fill-rule="evenodd" clip-rule="evenodd" d="M16.1719 29.3906C17.06 32.3362 16.3412 34.8205 14.0156 36.8438C12.7541 37.7452 11.3479 38.167 9.79688 38.1094C11.8232 35.223 13.8701 32.3481 15.9375 29.4844C16.0004 29.4139 16.0785 29.3826 16.1719 29.3906Z" fill="#79E7E9"/>
<path fill-rule="evenodd" clip-rule="evenodd" d="M43.9219 29.2969C44.848 32.1388 44.2231 34.592 42.0469 36.6563C40.7318 37.6935 39.2318 38.1779 37.5469 38.1094C39.6385 35.1435 41.7636 32.2059 43.9219 29.2969Z" fill="#79E6E9"/>
</g>
<defs>
<clipPath id="clip0_14282_24044">
<rect width="48" height="48" fill="white"/>
</clipPath>
</defs>
</svg>
