<svg width="114" height="114" viewBox="0 0 114 114" fill="none" xmlns="http://www.w3.org/2000/svg">
<path d="M106.904 57C106.904 52.5057 106.304 48.1496 105.184 44.0042L111.689 37.7246L101.037 19.2754L92.3183 21.7769C86.1883 15.6305 78.4688 11.072 69.8371 8.77221L67.6513 0H56.9997L52.543 57L56.9997 114H67.6513L69.8371 105.228C78.4686 102.928 86.1883 98.3693 92.3183 92.2229L101.037 94.7244L111.689 76.2751L105.184 69.9956C106.304 65.8504 106.904 61.4943 106.904 57Z" fill="#002548"/>
<path d="M46.3482 0L44.1623 8.77243C35.5309 11.072 27.8111 15.6307 21.6812 21.7771L12.9622 19.2754L2.31055 37.7246L8.81523 44.0042C7.69593 48.1496 7.09521 52.5057 7.09521 57C7.09521 61.4943 7.69593 65.8504 8.81523 69.9958L2.31055 76.2754L12.9622 94.7246L21.6812 92.2231C27.8111 98.3695 35.5306 102.928 44.1623 105.228L46.3482 114H56.9998V0H46.3482Z" fill="#0054A6"/>
<path d="M56.9997 17.9465L52.543 57L56.9997 96.0535C78.5339 96.0535 96.0531 78.534 96.0531 57C96.0531 35.466 78.5339 17.9465 56.9997 17.9465Z" fill="#EBEBF0"/>
<path d="M17.9473 57C17.9473 78.5342 35.4668 96.0535 57.0007 96.0535V17.9465C35.4665 17.9465 17.9473 35.4658 17.9473 57Z" fill="#FFF5F5"/>
<path d="M56.9997 24.6262L52.543 57L56.9997 89.3738C74.8507 89.3738 89.3734 74.8508 89.3734 57C89.3734 39.1492 74.8507 24.6262 56.9997 24.6262Z" fill="#839299"/>
<path d="M24.627 57C24.627 74.851 39.1499 89.3738 57.0007 89.3738V24.6262C39.1497 24.6262 24.627 39.149 24.627 57Z" fill="#EBEBF0"/>
<path d="M74.6487 53.5954L52.543 49.1387L56.9997 72.3535H74.6487V53.5954Z" fill="#EBEBF0"/>
<path d="M39.3516 53.5954V72.3535H57.0006V49.1387L39.3516 53.5954Z" fill="#FFF5F5"/>
<path d="M74.6487 53.5955L56.9997 37.1899L52.543 49.1388L56.9997 53.5955H74.6487Z" fill="#FFDD33"/>
<path d="M39.3516 53.5955H57.0006V37.1899L39.3516 53.5955Z" fill="#FFDD33"/>
</svg>
