<svg width="48" height="48" viewBox="0 0 48 48" fill="none" xmlns="http://www.w3.org/2000/svg">
<g clip-path="url(#clip0_14282_13889)">
<path opacity="0.989" fill-rule="evenodd" clip-rule="evenodd" d="M11.2967 -0.046875C11.7654 -0.046875 12.2342 -0.046875 12.7029 -0.046875C12.7029 1.85937 12.7029 3.76563 12.7029 5.67188C10.8637 5.74014 9.56681 6.61514 8.81231 8.29688C8.14204 10.7527 8.93891 12.5495 11.2029 13.6875C11.6863 13.8714 12.1863 13.9495 12.7029 13.9219C12.7029 17.5781 12.7029 21.2344 12.7029 24.8906C12.0546 23.9439 11.3828 23.0064 10.6873 22.0781C10.2182 21.4997 9.70256 20.9684 9.14044 20.4844C7.24166 18.7896 5.60104 16.8833 4.21856 14.7656C2.07877 10.6347 2.45377 6.75974 5.34356 3.14062C6.98036 1.42386 8.96473 0.36136 11.2967 -0.046875Z" fill="#FE6C6B"/>
<path fill-rule="evenodd" clip-rule="evenodd" d="M12.7031 -0.046875C13.1719 -0.046875 13.6406 -0.046875 14.1094 -0.046875C18.7643 0.90504 21.5613 3.71754 22.5 8.39062C22.7458 10.6571 22.3084 12.7822 21.1875 14.7656C20.6352 15.6928 20.0103 16.5678 19.3125 17.3906C18.312 18.4692 17.2963 19.5318 16.2656 20.5781C16.1963 20.5658 16.1338 20.5815 16.0781 20.625C14.7866 21.9616 13.6616 23.4147 12.7031 24.9844C12.7031 24.9532 12.7031 24.9218 12.7031 24.8906C12.7031 21.2344 12.7031 17.5781 12.7031 13.9219C14.5424 13.8536 15.8393 12.9786 16.5938 11.2969C17.2641 8.84112 16.4672 7.04424 14.2031 5.90625C13.7198 5.72233 13.2198 5.64421 12.7031 5.67188C12.7031 3.76563 12.7031 1.85937 12.7031 -0.046875Z" fill="#E63950"/>
<path opacity="0.991" fill-rule="evenodd" clip-rule="evenodd" d="M9.14103 20.4844C9.70315 20.9684 10.2188 21.4997 10.6879 22.0781C11.3833 23.0064 12.0552 23.9439 12.7035 24.8906C12.7035 24.9218 12.7035 24.9532 12.7035 24.9844C12.7035 27.0157 12.7035 29.0468 12.7035 31.0781C9.70784 31.1514 7.47348 29.9014 6.0004 27.3281C5.16847 24.1797 6.21535 21.8985 9.14103 20.4844Z" fill="#97DD3D"/>
<path fill-rule="evenodd" clip-rule="evenodd" d="M16.2656 20.5783C18.7393 21.6815 19.8956 23.5877 19.7344 26.297C19.4721 27.2279 19.0345 28.0716 18.4219 28.8283C16.8457 30.3855 14.9393 31.1355 12.7031 31.0783C12.7031 29.047 12.7031 27.0158 12.7031 24.9845C13.6616 23.4149 14.7866 21.9617 16.0781 20.6251C16.1338 20.5816 16.1963 20.566 16.2656 20.5783Z" fill="#59C369"/>
<path opacity="0.984" fill-rule="evenodd" clip-rule="evenodd" d="M19.7344 26.2969C23.9531 27.6719 28.1719 29.0468 32.3906 30.4219C31.7566 31.2112 31.2878 32.0861 30.9844 33.0469C26.776 31.6754 22.5885 30.2692 18.4219 28.8281C19.0345 28.0715 19.4721 27.2277 19.7344 26.2969Z" fill="#E1D8FA"/>
<path opacity="0.994" fill-rule="evenodd" clip-rule="evenodd" d="M32.7656 37.7343C32.557 37.3841 32.2914 37.0717 31.9688 36.7968C31.668 36.2567 31.3711 35.7254 31.0781 35.2031C30.9977 34.4876 30.9665 33.7688 30.9844 33.0468C31.2879 32.0861 31.7566 31.2111 32.3906 30.4218C34.533 28.4952 37.033 27.8233 39.8906 28.4062C41.8285 28.804 43.3441 29.8196 44.4375 31.4531C45.6182 33.996 45.1338 36.1678 42.9844 37.9687C41.0968 39.2903 39.003 39.7903 36.7031 39.4687C35.2251 39.2426 33.9126 38.6644 32.7656 37.7343Z" fill="#59C36A"/>
<path opacity="0.979" fill-rule="evenodd" clip-rule="evenodd" d="M31.0781 35.2031C31.3711 35.7255 31.668 36.2568 31.9688 36.7969C32.2914 37.0718 32.557 37.3842 32.7656 37.7344C30.2452 38.8227 27.7139 39.8853 25.1719 40.9219C25.0225 40.4981 24.8194 40.0919 24.5625 39.7031C24.2122 39.3068 23.884 38.9006 23.5781 38.4844C26.1004 37.4255 28.6004 36.3317 31.0781 35.2031Z" fill="#E1D8FA"/>
<path opacity="0.993" fill-rule="evenodd" clip-rule="evenodd" d="M23.5781 38.4845C23.884 38.9008 24.2122 39.307 24.5625 39.7033C24.8194 40.092 25.0225 40.4983 25.1719 40.922C25.7173 43.1449 25.0923 44.973 23.2969 46.4064C22.1818 47.1831 20.9631 47.6987 19.6406 47.9533C18.7657 47.9533 17.8906 47.9533 17.0156 47.9533C14.8692 47.6042 13.1662 46.5418 11.9063 44.7658C10.6401 41.7518 11.4056 39.3924 14.2031 37.6876C16.2336 36.6728 18.3586 36.4228 20.5781 36.9376C21.7013 37.2334 22.7013 37.749 23.5781 38.4845Z" fill="#59C36A"/>
</g>
<defs>
<clipPath id="clip0_14282_13889">
<rect width="48" height="48" fill="white"/>
</clipPath>
</defs>
</svg>
