<svg width="200" height="50" viewBox="0 0 200 50" fill="none" xmlns="http://www.w3.org/2000/svg">
<path d="M0 41.3333C1.86667 39 4.33333 39.5667 6.76667 39.8333C8.53333 40.0667 10.2333 40.5 12.0333 40.5C13.1667 40.5333 13.9 40.0667 14.6333 39.2667C16.0333 37.7333 17.0333 35.9 18.5 34.4333C20.8667 32.0667 23.6 30.3667 26.8 29.2667C32.1667 27.4 37.6667 25.9 42.9667 23.7667C47.4333 21.9333 50.8333 19 53.2333 14.8C54.8 12.0667 56.3333 9.3 58.2667 6.76666C60.9 3.43333 64.3 1.7 68.5333 1.73333C70.7667 1.76667 72.7 0.8 74.6667 0C74.8333 0 75 0 75.1667 0C76 0.3 76.2667 0.966665 76.2667 1.8C76.2667 4.06666 75.5 6.03333 73.7667 7.5C72.6 8.46667 71.3667 9.36666 70.1333 10.2333C68.4333 11.4333 67.4 13 66.9 15.0333C65.9333 19.2 65.1667 23.4333 63.8333 27.5667C62.6667 31.2333 61.2333 34.7667 58.5 37.6667C57.6667 38.5667 56.7 39.3 55.6 39.9C54.9667 40.2 54.6333 40.2 54.7333 39.3667C54.8 38.7333 54.8 38.1 54.6667 37.4333C54.3 38.2333 53.9667 39 53.6 39.8C51.1333 44.8 47.5 48.3333 41.9333 49.6C41.8667 49.6333 41.7667 49.6667 41.7 49.6667C41.0667 49.7333 40.2 50.0667 39.9 49.6C39.5333 49 40.4667 48.6333 40.8 48.1667C43.4667 44.7333 45.3333 41 45.7 36.5667C45.3 36.5333 45.3333 36.8667 45.2667 37.0333C45.1667 37.2 45.1 37.4333 45.0333 37.6333C44.6667 38.6333 44.3667 39.6333 43.8 40.5333C43.2333 41.4667 42.4333 41.9333 41.3333 41.9667C38.4667 42.0333 35.6 41.7 32.8 41.3C30.3 40.9667 27.7667 40.7667 25.2333 40.9667C22.3667 41.1667 19.8667 42.4667 17.5667 44.0333C14.9 45.8333 12.0667 47.3 9.16667 48.6333C7.86667 49.2333 6.46667 49.6333 5.1 50C4.06667 50 3.1 50 2.06667 50C1.63333 49.3333 1.83333 48.7 2.2 48.1333C2.73333 47.3333 3.26667 46.5333 3.83333 45.7667C4.13333 45.3667 4.43333 44.9667 3.83333 44.6C2.5 43.8 1.46667 42.5667 0.0333335 41.9333C1.2666e-07 41.7 0 41.5 0 41.3333Z" fill="#24525E"/>
<path d="M199.999 30.9667C199.166 34 197.799 35.0667 194.633 35.3667C191.066 35.6667 187.466 35.4333 183.899 35.5333C183.066 35.5667 182.666 35.2333 182.699 34.3333C182.733 28.9333 182.733 23.5333 182.699 18.1667C182.699 17.5 182.866 17 183.666 17C187.499 17.0667 191.366 16.7 195.166 17.2333C198.266 17.6667 199.833 19.8667 199.233 22.9C198.966 24.2333 198.166 25.1333 196.633 25.7333C198.766 26.4 199.633 27.8333 199.999 29.6667C199.999 30.1333 199.999 30.5667 199.999 30.9667ZM189.466 33.6667C191.066 33.6667 192.666 33.7333 194.233 33.4667C196.133 33.1667 197.133 32.2 197.199 30.4333C197.266 28.4333 196.466 27.3333 194.466 26.9667C191.633 26.4667 188.766 26.8333 185.899 26.7667C185.266 26.7333 185.166 27.2 185.166 27.7C185.166 29.3333 185.199 31 185.166 32.6C185.133 33.3667 185.433 33.6667 186.199 33.6333C187.266 33.6333 188.366 33.6667 189.466 33.6667ZM189.933 24.8667C189.933 24.8333 189.933 24.8 189.933 24.8C191.233 24.8 192.533 24.8667 193.866 24.7667C195.933 24.6 196.866 23.4 196.666 21.3667C196.499 19.8 195.499 18.9667 193.533 18.9C191.066 18.8333 188.633 18.8667 186.199 18.8667C185.533 18.8667 185.166 19.0667 185.166 19.8C185.199 21.1667 185.199 22.5 185.166 23.8667C185.133 24.6667 185.566 24.9 186.266 24.8667C187.499 24.8667 188.733 24.8667 189.933 24.8667Z" fill="#24525E"/>
<path d="M79.0335 23.1998C78.2668 26.1998 77.5335 29.1331 76.8001 32.0665C76.7001 32.4998 76.6001 32.8665 76.5001 33.2998C75.9335 35.6665 75.9335 35.5998 73.4668 35.5331C72.3668 35.4998 72.2001 35.0998 72.4335 34.1331C73.6335 29.5998 74.8001 25.0998 75.9335 20.5331C76.0668 20.0331 76.2001 19.5665 76.3335 19.0665C76.8668 16.8665 76.8668 16.9331 79.1001 16.9331C80.0668 16.9331 80.4001 17.4665 80.7335 18.1998C82.4001 21.9665 84.1335 25.7331 85.8335 29.4998C85.9668 29.7998 86.0001 30.1665 86.5001 30.3998C87.3335 28.5665 88.1335 26.7331 88.9668 24.8998C90.0001 22.5998 91.1001 20.2998 92.0668 17.9665C92.7001 16.4665 93.9335 16.9998 95.0001 16.9331C96.0335 16.8665 96.0668 17.7331 96.2335 18.3998C97.6001 23.6331 98.9335 28.8665 100.3 34.0665C100.6 35.1665 100.3 35.5665 99.2001 35.4665C99.0335 35.4331 98.8668 35.4665 98.7001 35.4665C96.7335 35.4665 96.7335 35.4665 96.3001 33.5998C95.5668 30.5665 94.8335 27.5331 94.1001 24.4998C94.0001 24.0998 93.9668 23.6665 93.6335 23.2998C93.1001 23.7331 92.9668 24.2998 92.7335 24.7998C91.3001 27.9331 89.8335 31.0665 88.5001 34.2665C88.0001 35.4331 87.2001 35.4665 86.1668 35.5331C85.1335 35.5665 84.5668 35.1998 84.1668 34.2331C82.7668 30.9331 81.2668 27.6998 79.7668 24.4331C79.6335 24.0331 79.5668 23.5331 79.0335 23.1998Z" fill="#24525E"/>
<path d="M113.434 23.3005C113.767 22.8005 113.367 22.0005 114.167 21.9005C115.1 21.8005 116.1 21.6005 117 22.0671C117.334 22.2338 117.267 22.6671 117.267 22.9671C117.267 26.7671 117.267 30.5338 117.3 34.3671C117.3 35.1671 116.967 35.5338 116.167 35.5338C115.867 35.5338 115.567 35.5338 115.267 35.5338C114.234 35.6005 113.367 35.5005 113.534 34.0671C109 36.5005 105 36.0671 102.667 32.9671C100.6 30.2671 100.767 26.1338 102.9 23.7005C104.834 21.5671 109.667 20.4671 113.434 23.3005ZM109.434 24.4338C106.9 24.4338 105.167 26.1338 105.2 28.6005C105.2 31.1338 106.967 32.9005 109.5 32.9005C112 32.9005 113.667 31.2671 113.667 28.7005C113.667 26.0671 112.034 24.4338 109.434 24.4338Z" fill="#24525E"/>
<path d="M151.932 23.2664C152.266 22.8664 151.866 22.0664 152.599 21.9664C153.566 21.8331 154.532 21.6998 155.432 22.0664C155.799 22.2331 155.732 22.6331 155.732 22.9664C155.732 26.7998 155.732 30.6331 155.732 34.4664C155.732 35.2331 155.432 35.5664 154.699 35.5664C154.366 35.5664 154.032 35.5664 153.666 35.5664C152.699 35.5664 151.666 35.6664 152.032 34.0664C147.932 36.5331 143.766 36.1998 141.332 33.3331C139.132 30.7998 139.032 26.5998 141.099 24.0664C143.566 21.1331 147.566 20.8331 151.932 23.2664ZM147.966 24.4331C145.366 24.3998 143.632 26.1331 143.666 28.6664C143.699 31.0998 145.466 32.8664 147.899 32.9331C150.466 32.9664 152.232 31.2664 152.266 28.7331C152.299 26.1998 150.532 24.4664 147.966 24.4331Z" fill="#24525E"/>
<path d="M160.732 26.1666C160.732 23.5666 160.732 20.9332 160.732 18.3332C160.732 17.5666 160.832 16.9666 161.799 16.9999C165.099 17.0999 168.399 16.7666 171.666 17.1999C176.666 17.8999 179.766 21.5999 179.599 26.5332C179.432 31.5666 176.132 34.9332 171.132 35.3666C168.099 35.6332 165.066 35.4332 162.032 35.5332C161.132 35.5666 160.766 35.1999 160.766 34.2666C160.766 31.5666 160.732 28.8666 160.732 26.1666ZM163.366 26.1332C163.366 28.1999 163.366 30.2666 163.366 32.3332C163.366 32.8666 163.366 33.4666 164.066 33.4666C166.632 33.4666 169.199 33.8332 171.766 33.2332C175.232 32.3999 176.932 29.5666 176.666 25.3332C176.466 21.9999 174.366 19.6999 171.066 19.1332C168.899 18.7666 166.699 18.9999 164.499 18.8999C163.599 18.8332 163.299 19.1999 163.332 20.0666C163.399 22.0666 163.366 24.1332 163.366 26.1332Z" fill="#24525E"/>
<path d="M125.199 23.8664C126.799 22.1331 128.533 21.233 130.833 21.733C131.333 21.833 131.999 21.8664 131.766 22.5997C131.533 23.3997 131.733 24.4664 130.533 24.6997C130.233 24.7664 129.966 24.6664 129.633 24.6331C127.066 24.4664 125.199 26.033 125.099 28.5997C125.033 30.3997 125.033 32.2331 125.066 34.0331C125.099 35.0664 124.733 35.5331 123.633 35.5331C121.199 35.5664 121.199 35.5997 121.199 33.1331C121.199 29.8331 121.233 26.533 121.166 23.2664C121.133 22.133 121.566 21.6997 122.666 21.8331C122.799 21.8331 122.933 21.8331 123.066 21.8331C124.966 21.8331 124.966 21.8331 125.199 23.8664Z" fill="#24525E"/>
<path d="M133.399 27.5665C133.399 26.0999 133.433 24.5999 133.366 23.1332C133.333 22.0999 133.766 21.7332 134.733 21.8332C134.866 21.8332 134.999 21.8332 135.133 21.8332C137.266 21.7999 137.266 21.8332 137.266 23.8999C137.266 26.2999 137.266 28.6999 137.266 31.0999C137.266 31.7665 137.233 32.2999 138.166 32.6332C138.966 32.9332 138.866 34.0666 138.866 34.8666C138.866 35.5332 138.199 35.4999 137.699 35.5665C135.066 36.0665 133.633 35.0332 133.433 32.3332C133.299 30.7999 133.399 29.1999 133.399 27.5665Z" fill="#24525E"/>
<path d="M135.234 16.7003C136.434 16.6669 137.234 17.4336 137.267 18.5669C137.301 19.6669 136.434 20.5669 135.267 20.5669C134.101 20.5669 133.301 19.7336 133.301 18.5669C133.367 17.4003 134.067 16.7336 135.234 16.7003Z" fill="#24525E"/>
</svg>
