<svg width="573" height="460" viewBox="0 0 573 460" fill="none" xmlns="http://www.w3.org/2000/svg">
<path d="M286.5 393.46C390.771 393.46 475.3 388.522 475.3 382.43C475.3 376.338 390.771 371.4 286.5 371.4C182.228 371.4 97.6997 376.338 97.6997 382.43C97.6997 388.522 182.228 393.46 286.5 393.46Z" fill="#D2D9DC"/>
<path d="M106.75 91.74L98.0799 100.38C97.9199 100.52 97.8999 100.78 98.0399 100.94L107.56 112.49C106.56 113.79 105.61 115.13 104.72 116.49L90.5199 111.41C90.3199 111.34 90.0799 111.44 89.9999 111.64L84.8099 122.72C84.7099 122.91 84.7799 123.16 84.9599 123.26L97.9399 130.9C97.4499 132.44 97.0299 134.01 96.6699 135.58L81.4799 135.66C81.2599 135.66 81.0799 135.84 81.0699 136.05L79.9999 148.26C79.9699 148.47 80.1199 148.68 80.3299 148.72L95.2699 151.49C95.3399 153.08 95.4799 154.67 95.6799 156.26L81.3099 161.58C81.1099 161.65 80.9999 161.88 81.0599 162.09L84.2099 173.92C84.2599 174.13 84.4699 174.27 84.6799 174.24L99.8099 171.7C100.41 173.14 101.07 174.56 101.8 175.96L89.9899 185.98C89.8299 186.12 89.7999 186.37 89.9299 186.54L96.9299 196.58C97.0499 196.76 97.2899 196.82 97.4799 196.72L110.99 189.08C112.04 190.22 113.13 191.31 114.25 192.35C114.25 192.36 114.24 192.36 114.23 192.37L106.49 205.95C106.38 206.14 106.44 206.38 106.63 206.5L116.64 213.53C116.81 213.66 117.06 213.64 117.2 213.47L127.35 201.58C127.36 201.57 127.36 201.56 127.37 201.54C128.73 202.24 130.12 202.89 131.52 203.48C131.49 203.53 131.46 203.58 131.45 203.64L128.82 219.05C128.78 219.26 128.93 219.47 129.14 219.52L140.96 222.71C141.16 222.78 141.39 222.66 141.47 222.46L146.94 207.82C146.96 207.76 146.96 207.7 146.96 207.65C148.49 207.85 150.03 207.99 151.57 208.06C151.51 208.14 151.48 208.24 151.5 208.35L154.3 223.73C154.34 223.94 154.54 224.09 154.76 224.06L166.95 223.01C167.16 223 167.34 222.82 167.34 222.6L167.47 206.97C167.47 206.88 167.44 206.8 167.39 206.74C168.92 206.4 170.43 206 171.94 205.54C171.88 205.65 171.87 205.79 171.94 205.91L179.83 219.4C179.94 219.59 180.18 219.66 180.37 219.56L191.47 214.41C191.67 214.33 191.77 214.1 191.7 213.89L186.48 199.16C186.45 199.06 186.37 198.99 186.29 198.95C187.03 198.48 187.76 198 188.48 197.5C189.06 197.09 189.64 196.68 190.2 196.25C190.16 196.39 190.2 196.54 190.32 196.64L202.35 206.62C202.52 206.76 202.77 206.74 202.91 206.58L211.58 197.94C211.74 197.8 211.76 197.54 211.62 197.38L201.68 185.32C201.63 185.25 201.55 185.22 201.48 185.2C202.44 183.96 203.35 182.69 204.2 181.4C204.23 181.51 204.31 181.6 204.43 181.64L219.15 186.91C219.35 186.98 219.59 186.88 219.67 186.68L224.86 175.6C224.96 175.41 224.89 175.16 224.71 175.05L211.24 167.12C211.19 167.09 211.14 167.08 211.08 167.07C211.55 165.61 211.97 164.13 212.33 162.64C212.39 162.69 212.47 162.73 212.56 162.73L228.19 162.65C228.41 162.65 228.59 162.47 228.6 162.26L229.69 150.07C229.72 149.86 229.57 149.65 229.36 149.61L213.99 146.76C213.98 146.76 213.97 146.76 213.96 146.76C213.91 145.24 213.8 143.71 213.64 142.19C213.67 142.19 213.7 142.19 213.73 142.18L228.39 136.75C228.59 136.68 228.7 136.45 228.64 136.24L225.49 124.41C225.44 124.2 225.23 124.06 225.02 124.09L209.74 126.65C209.17 125.22 208.53 123.81 207.84 122.42L219.71 112.35C219.87 112.21 219.9 111.96 219.77 111.79L212.77 101.75C212.66 101.57 212.41 101.51 212.22 101.61L198.87 109.17C197.81 107.99 196.72 106.85 195.59 105.77L203.22 92.4C203.33 92.21 203.27 91.97 203.08 91.85L193.07 84.82C192.9 84.69 192.65 84.71 192.51 84.88L182.66 96.42C181.24 95.66 179.8 94.97 178.33 94.33L180.9 79.3C180.94 79.09 180.79 78.88 180.58 78.83L168.76 75.64C168.56 75.57 168.33 75.69 168.25 75.89L162.98 90C161.37 89.77 159.76 89.61 158.14 89.51L155.43 74.62C155.39 74.41 155.19 74.26 154.97 74.29L142.78 75.34C142.56 75.35 142.39 75.53 142.39 75.75L142.26 90.71C140.66 91.05 139.07 91.46 137.5 91.94L129.9 78.95C129.79 78.76 129.55 78.69 129.36 78.79L118.26 83.94C118.06 84.02 117.96 84.25 118.03 84.46L123.02 98.55C122.26 99.03 121.5 99.53 120.76 100.04C120.15 100.46 119.56 100.9 118.97 101.34L107.39 91.73C107.15 91.56 106.89 91.58 106.75 91.74ZM186.87 126.87C199.18 144.57 194.81 168.9 177.11 181.21C159.41 193.52 135.08 189.15 122.77 171.45C110.46 153.75 114.83 129.42 132.53 117.11C150.24 104.8 174.57 109.17 186.87 126.87Z" fill="#D2D9DC"/>
<mask id="mask0_4385_6113" style="mask-type:luminance" maskUnits="userSpaceOnUse" x="117" y="78" width="341" height="305">
<path d="M182.43 382.04C213.06 380.82 390.37 382.34 391.3 382.39C431.34 351.29 457.1 302.68 457.1 248.06C457.1 154.16 380.98 78.0503 287.09 78.0503C193.2 78.0503 117.08 154.17 117.08 248.06C117.08 302.47 142.65 350.92 182.43 382.04Z" fill="white"/>
</mask>
<g mask="url(#mask0_4385_6113)">
<path d="M442.43 311.07C434.33 334.56 421.44 355.03 405.24 371.76V371.77C403.58 373.48 401.9 375.15 400.18 376.76C396.9 379.87 393.52 382.82 390.01 385.63C389.63 385.92 389.26 386.23 388.88 386.52C380.83 392.86 372.23 398.41 363.18 403.13C363.15 403.14 363.12 403.16 363.09 403.17C354.36 407.71 345.23 411.47 335.82 414.38C335.22 414.39 334.62 414.4 334.01 414.41C324.69 414.59 315.16 414.71 305.46 414.79C299.04 414.83 292.54 414.86 285.98 414.86C270.25 414.86 254.89 414.72 240.05 414.45C238.29 413.92 236.54 413.34 234.79 412.74C211.88 404.83 191.88 392.31 175.44 376.57C130.76 333.79 112.46 267.18 134.04 204.65C163.56 119.12 256.51 73.6002 341.68 102.98C426.84 132.37 471.94 225.53 442.43 311.07Z" fill="#0054A6"/>
</g>
<mask id="mask1_4385_6113" style="mask-type:luminance" maskUnits="userSpaceOnUse" x="117" y="78" width="341" height="305">
<path d="M182.43 382.04C213.06 380.82 390.37 382.34 391.3 382.39C431.34 351.29 457.1 302.68 457.1 248.06C457.1 154.16 380.98 78.0503 287.09 78.0503C193.2 78.0503 117.08 154.17 117.08 248.06C117.08 302.47 142.65 350.92 182.43 382.04Z" fill="white"/>
</mask>
<g mask="url(#mask1_4385_6113)">
<path d="M365.34 120.69C365.79 120.87 366.97 120.4 366.64 120.05C365.84 119.23 364.51 119.17 363.45 118.73C363.46 118.74 364.51 120.35 365.34 120.69Z" fill="#54CC5A"/>
<path d="M365.76 121.131C365.61 122.111 367.21 122.481 367.94 123.161C369.4 123.331 370.86 123.561 372.33 123.681C375.05 123.911 372.26 122.621 368.24 121.141C367.46 120.851 365.88 120.311 365.76 121.131Z" fill="#54CC5A"/>
<path d="M346 135.541C346 135.541 345.75 135.551 345.8 135.611C345.92 135.771 346.11 135.981 346.3 135.921C346.44 135.861 346.09 135.661 346 135.541Z" fill="#54CC5A"/>
<path d="M318.55 128.531C318.81 128.281 319.04 128.101 319.03 128.101C319.03 128.101 319.01 128.111 318.94 128.161C318.8 128.251 318.67 128.381 318.55 128.521C318.55 128.521 318.55 128.521 318.55 128.531C318.55 128.521 318.55 128.521 318.55 128.531Z" fill="#54CC5A"/>
<path d="M299.91 96.7702C299.71 96.8902 300.21 97.2203 300.45 97.2303C301.35 97.3003 302.24 96.9903 303.14 97.0003C303.95 97.0103 306.3 97.5803 305.54 97.3003C304.3 96.8503 302.97 96.7503 301.69 96.4703C301.68 96.4703 300.42 96.4602 299.91 96.7702Z" fill="#54CC5A"/>
<path d="M296.31 97.3805C296.19 97.5205 296.63 97.5605 296.8 97.5605C297.89 97.5605 298.98 97.4406 300.07 97.3706C300.07 97.3706 297.09 96.4005 296.31 97.3805Z" fill="#54CC5A"/>
<path d="M305.13 95.4305C305.4 95.3705 305.67 95.3105 305.94 95.2505C305.67 95.3005 304.87 95.4905 305.13 95.4305Z" fill="#54CC5A"/>
<path d="M375.09 162C375.13 161.91 375.15 161.83 375.13 161.76C375.1 161.67 375.06 161.62 375.01 161.6C375 161.59 374.98 161.59 374.96 161.59C374.92 161.58 374.87 161.59 374.82 161.61C374.8 161.62 374.78 161.63 374.76 161.64C374.69 161.68 374.62 161.73 374.54 161.8C374.53 161.81 374.52 161.81 374.51 161.82C374.71 161.91 374.91 161.96 375.09 162Z" fill="#54CC5A"/>
<path d="M347.48 168.05C347.44 167.69 347.42 167.27 347.2 167.06C346.54 166.45 344.16 165.22 344.81 165.84C345.64 166.63 346.55 167.35 347.48 168.05Z" fill="#54CC5A"/>
<path d="M344.91 171.461C345.28 171.811 345.81 171.951 346.25 172.191C346.25 172.191 345.68 171.491 345.29 171.281C345.17 171.211 344.81 171.361 344.91 171.461Z" fill="#54CC5A"/>
<path d="M423.08 175.271C423.23 175.521 423.37 175.771 423.57 175.991C423.74 176.181 423.37 175.521 423.22 175.311C423.19 175.271 423.14 175.271 423.08 175.271Z" fill="#54CC5A"/>
<path d="M423 175.25C423.02 175.27 423.05 175.27 423.08 175.27C423.01 175.16 422.95 175.04 422.88 174.94C422.92 175.04 422.92 175.16 423 175.25Z" fill="#54CC5A"/>
<path d="M432.01 183.96C431.76 183.29 431.26 182.75 430.93 182.12C429.53 179.42 428.26 178.04 426.22 176.02C425.48 175.29 424.99 174.27 424.1 173.72C423.84 173.56 424.21 174.87 424 174.64C423.46 174.04 423.35 173.16 422.95 172.46C422.43 171.54 421.83 170.66 421.25 169.78C421.18 169.68 421 169.4 421.01 169.52C421.03 170.2 421.59 170.9 421.32 171.53C421.15 171.95 420.98 170.67 420.66 170.35C420.25 169.94 419.68 169.7 419.19 169.38C419.19 169.38 420.71 171.53 421.48 172.6C422.06 173.4 422.47 174.36 423.19 175.04C423.45 175.28 422.58 173.77 422.8 174.04C423.08 174.37 423.31 174.73 423.54 175.09C423.5 174.98 423.49 174.92 423.58 174.99C424.17 175.4 424.55 176.05 424.96 176.64C425.38 177.25 425.32 178.63 426.06 178.59C426.73 178.54 425.1 176.78 425.75 176.59C426.44 176.4 426.65 177.71 427.05 178.3C429.01 181.18 427.68 179.49 429.36 183.16C429.42 183.3 429.72 183.13 429.8 183.25C430.35 184.02 430.35 185.28 431.19 185.73C431.75 186.03 430.27 183.88 430.9 183.85C431.02 183.84 432.83 189.04 432.83 188.98C432.91 187.64 432.24 186.38 432.02 185.05C431.98 184.7 432.14 184.3 432.01 183.96Z" fill="#54CC5A"/>
<path d="M425.29 178.01C425.65 178.51 424.68 176.95 424.36 176.43C424.08 175.99 423.82 175.54 423.55 175.09C423.64 175.31 423.92 175.77 424.04 175.98C424.43 176.68 424.82 177.37 425.29 178.01Z" fill="#54CC5A"/>
<path d="M427.36 181.37C426.79 180.82 425.84 178.98 425.67 179.74C425.43 180.84 426.74 181.77 427.02 182.86C427.09 183.1 426.65 183.26 426.65 183.51C426.63 184.61 428.21 185.06 428.62 185.68C429.12 186.42 429.03 187.46 429.55 188.19C429.78 188.52 429.39 186.57 429.53 186.95C429.57 187.05 429.89 191.07 431.32 190.96C431.8 190.93 431.32 190 431.22 189.53C430.48 185.99 429.52 184.4 427.36 181.37Z" fill="#54CC5A"/>
<path d="M394.54 232.251C394.73 232.531 395.5 232.471 395.53 232.141C396.66 219.001 395.2 227.481 394.17 228.951C394.87 229.911 393.57 230.781 394.54 232.251Z" fill="#54CC5A"/>
<path d="M392.93 226.631C393.02 225.981 394.89 225.771 394.41 225.311C393.88 224.811 393.11 226.311 392.4 226.141C391.95 226.031 393.34 225.471 393.23 225.021C393.14 224.641 392.13 225.161 392.08 224.771C392 224.051 393.27 223.471 392.99 222.811C392.83 222.431 392.67 222.171 392.51 221.971C391.21 220.401 389.92 224.031 389.75 224.011C389.03 223.911 388.56 223.771 388.25 223.601C388.07 223.511 387.95 223.411 387.88 223.301C387.88 223.291 387.87 223.291 387.87 223.281C387.56 222.801 388.13 222.191 388.57 221.651C388.61 221.601 388.65 221.551 388.69 221.501C388.72 221.461 388.75 221.421 388.78 221.371C388.85 221.271 388.91 221.171 388.94 221.081C388.95 221.061 388.95 221.041 388.96 221.021C388.99 220.921 389.01 220.821 388.98 220.741C388.89 220.461 388.76 220.191 388.63 219.921C388.6 219.861 388.56 219.801 388.53 219.741C388.41 219.521 388.28 219.301 388.15 219.091C388.13 219.061 388.12 219.041 388.1 219.011C387.91 218.721 387.72 218.431 387.52 218.141C387.48 218.091 387.45 218.031 387.42 217.981C387.46 217.921 387.46 217.841 387.49 217.781C387.56 217.621 387.63 217.471 387.66 217.271C387.66 217.261 387.66 217.241 387.66 217.231C387.76 216.411 387.57 215.401 387.52 214.891C387.52 214.891 386.03 215.361 385.78 216.001C385.49 216.741 385.27 217.491 385.07 218.261C385.03 218.411 385 218.561 384.97 218.711C384.47 220.791 384.16 222.931 383.56 224.981C383.54 225.061 383.52 225.151 383.5 225.241C383.38 225.611 382.43 225.861 382.74 226.111C383.22 226.511 384.61 225.551 384.62 226.181C384.63 227.201 383.21 227.691 382.77 228.611C382.63 228.901 382.71 229.471 383.02 229.521C383.7 229.631 384.33 228.961 385.02 228.961C386.05 228.981 387.03 229.811 388.03 229.591C388.8 229.431 388.96 228.111 389.73 227.951C390.5 227.791 391.83 228.031 391.91 228.801C392.01 229.791 390.65 230.351 390.06 231.161C389.99 231.251 389.82 231.541 389.91 231.471C390.85 230.871 391.94 230.401 392.6 229.531C392.93 229.091 392.08 227.661 392.59 227.881C392.75 227.951 392.89 228.021 393.03 228.091C392.89 227.611 392.88 227.051 392.93 226.631Z" fill="#54CC5A"/>
<path d="M393.01 228.09C393.15 228.64 393.42 229.09 393.89 229.15C393.98 229.16 394.07 229.08 394.16 228.94C393.98 228.67 393.62 228.39 393.01 228.09Z" fill="#54CC5A"/>
<path d="M352.25 252.78C350.98 253.03 349.7 253.33 348.51 253.86C348.17 254.01 349.27 254.01 349.63 253.94C351.18 253.63 352.68 253.14 354.2 252.75C354.2 252.74 352.89 252.66 352.25 252.78Z" fill="#54CC5A"/>
<path d="M220.24 254.881C220.28 255.141 220.71 255.741 220.75 255.481C220.84 254.781 220.54 254.091 220.44 253.391C220.43 253.391 220.16 254.381 220.24 254.881Z" fill="#54CC5A"/>
<path d="M329.35 306.971C329.28 307.221 329.71 307.731 329.89 307.541C331.3 306.021 331.17 305.401 330.41 304.831C330.49 304.941 330.56 305.051 330.59 305.161C330.81 305.861 329.56 306.261 329.35 306.971Z" fill="#54CC5A"/>
<path d="M328.29 303.51C329.11 304.08 329.9 304.44 330.41 304.82C329.84 304.08 328.29 303.51 328.29 303.51Z" fill="#54CC5A"/>
<path d="M323.06 328.47C324.79 328.92 326.64 328.4 328.41 328.56C328.56 328.57 332.46 330 333.01 328.82C334.57 325.48 331.73 327.04 330.36 326.29C329.43 325.78 329.01 324.62 328.15 323.99C327.84 323.75 327.3 324.03 327 323.78C326.23 323.14 325.81 322.17 325.12 321.46C324.21 320.53 323.13 319.72 321.94 319.21C321.28 318.92 320.45 319.16 319.83 318.82C318.67 318.18 317.87 317.03 316.73 316.36C315.98 315.92 314.97 316.02 314.24 315.55C314.05 315.43 314.75 314.96 314.53 314.93C312.59 314.6 306.12 313.67 303.47 315.03C302.41 315.57 301.42 316.22 300.4 316.8C300.4 316.8 301.28 317.7 301.85 317.68C302.66 317.66 303.27 316.83 304.07 316.7C304.7 316.59 305.34 316.89 305.98 316.99C306.97 317.14 313.4 317.71 315.76 318.93C317.42 319.79 318.91 320.95 320.57 321.82C320.74 321.92 321.09 321.61 321.16 321.79C321.43 322.47 320.88 323.46 321.4 323.97C322.47 325.01 324.21 325.07 325.41 325.94C326.92 327.01 321.81 328.15 323.06 328.47Z" fill="#54CC5A"/>
<path d="M411.64 150.98L411.25 150.52C411.17 150.43 410.93 150.14 411 150.24C411.22 150.49 411.43 150.73 411.64 150.98Z" fill="#54CC5A"/>
<path d="M411.88 151.26C411.8 151.17 411.72 151.07 411.64 150.98L414.41 154.27C413.56 153.26 412.73 152.26 411.88 151.26Z" fill="#54CC5A"/>
<path d="M405.51 144.221C406.46 145.221 407.62 146.521 408.77 147.711L405.51 144.221Z" fill="#54CC5A"/>
<path d="M389.85 129.91L388.36 128.73C388.38 128.75 388.41 128.77 388.43 128.79C388.9 129.16 389.37 129.54 389.85 129.91Z" fill="#54CC5A"/>
<path d="M334.2 335.771C334.84 335.921 335.4 335.151 336.06 335.131C336.68 335.121 337.2 335.641 337.81 335.701C338.66 335.781 339.51 335.391 340.35 335.521C340.7 335.581 340.8 336.231 341.16 336.231C342.5 336.211 343.7 334.781 345 335.081C345.28 335.141 345.06 335.861 345.34 335.861C346.14 335.841 346.8 335.141 347.59 335.051C348.54 334.941 349.53 335.031 350.46 335.271C350.81 335.361 350.94 336.081 351.28 335.981C354.14 335.221 351.85 333.101 350.58 332.371C350.03 332.051 349.26 332.601 348.67 332.381C348.08 332.161 347.87 331.281 347.26 331.121C345.75 330.721 344.15 330.871 342.59 330.751C341.98 330.701 341.34 330.781 340.77 330.581C340.27 330.421 337.71 327.931 337.1 330.211C336.88 331.031 340.46 333.491 337.84 334.711C337.15 335.031 336.4 334.231 335.66 334.051C334.94 333.861 334.22 333.521 333.47 333.591C333.08 333.621 332.43 333.931 332.55 334.291C332.79 334.981 333.48 335.591 334.2 335.771Z" fill="#54CC5A"/>
<path d="M355.76 335.38C355.76 335.38 355.23 336.61 355.66 336.83C356.84 337.41 360.53 337.08 359.2 335.09C358.88 334.6 356.02 335.33 355.76 335.38Z" fill="#54CC5A"/>
<path d="M255.98 374.331C255.98 374.331 254.96 376.241 255.46 377.001C255.88 377.641 257.6 377.741 257.75 376.991C257.96 375.941 256.57 375.211 255.98 374.331Z" fill="#54CC5A"/>
<path d="M329.27 162.21H329.26C329.14 162.25 329.02 162.28 328.91 162.33C329.01 162.37 329.12 162.4 329.22 162.45C329.4 162.51 329.56 162.57 329.72 162.63C329.75 162.64 329.76 162.64 329.79 162.66C329.61 162.57 329.45 162.41 329.27 162.21ZM343.71 257.5C343.89 256.94 344.39 256.57 344.89 256.2C344.52 256.55 344.06 257.05 343.7 257.56C343.71 257.54 343.71 257.52 343.71 257.5ZM335.3 211.74C335.31 211.73 335.31 211.71 335.34 211.7C335.38 211.64 335.46 211.61 335.56 211.57C335.78 211.48 336.11 211.42 336.37 211.33C336.27 211.4 336.16 211.49 336.05 211.6C335.99 211.66 335.92 211.72 335.86 211.78C335.82 211.82 335.77 211.87 335.73 211.91C335.64 211.98 335.57 212.03 335.49 212.04C335.48 212.05 335.46 212.05 335.45 212.05C335.38 212.06 335.32 212.04 335.27 211.95C335.24 211.86 335.25 211.8 335.3 211.74ZM320.49 295.06C320.68 295.86 320.59 296.72 320.68 297.54C320.62 297.19 320.55 296.83 320.5 296.46C320.45 295.98 320.4 294.6 320.49 295.06ZM320.45 164.14C320.18 164.02 319.92 163.89 319.71 163.68C319.5 163.46 319.52 162.65 319.8 162.77C320.08 162.89 320.3 163.02 320.48 163.17C320.49 163.17 320.49 163.17 320.51 163.18C320.67 163.31 320.8 163.45 320.91 163.59C320.91 163.6 320.92 163.62 320.92 163.63C321.01 163.76 321.1 163.91 321.16 164.06C321.23 164.21 321.29 164.35 321.37 164.5C321.37 164.51 321.38 164.53 321.38 164.53C321.08 164.39 320.76 164.27 320.45 164.14ZM240.55 118.4C240.64 118.39 240.71 118.4 240.79 118.41C240.82 118.42 240.85 118.42 240.86 118.44C240.84 118.45 240.71 118.43 240.55 118.4ZM315.61 302.01C315.65 302.29 315.21 302.33 314.9 302.45C315.23 302.22 315.55 301.73 315.61 302.01ZM259.98 114.19C260.01 114.15 260.04 114.09 260.08 114.03C260.12 114 260.15 113.97 260.2 113.94C260.24 113.88 260.3 113.84 260.36 113.79C260.4 113.76 260.45 113.72 260.51 113.69C260.57 113.65 260.64 113.59 260.72 113.54C260.79 113.5 260.87 113.44 260.94 113.39C261 113.35 261.06 113.3 261.12 113.26C261.16 113.23 261.21 113.2 261.24 113.17C261.28 113.14 261.33 113.11 261.36 113.08C261.4 113.02 261.45 112.98 261.45 112.93L261.63 113.34C261.19 113.84 260.29 115.09 259.97 114.5C259.93 114.43 259.93 114.34 259.96 114.26C259.94 114.25 259.97 114.22 259.98 114.19ZM382.83 380.1C382.37 380.38 381.95 380.53 381.71 380.28C381.53 380.1 381.72 379.82 381.98 379.54C381.97 379.57 381.95 379.61 381.95 379.66C381.97 380.18 382.31 380.27 382.83 380.1ZM404.04 370.13C403.22 370.09 401.98 370.46 400.36 371.42C397.5 373.11 396.28 374.23 393.02 375.12C391.7 375.47 390.69 375.84 389.74 376.26C388.54 376.79 387.42 377.42 385.91 378.26C386.29 377.44 386.09 376.82 385.26 376.42C385.07 376.46 384.88 376.51 384.68 376.58C384.84 376.41 384.98 376.23 385.13 376.06C387.4 373.24 387.86 369.82 383.96 367.15C378.86 363.67 372.06 362.05 366.2 360.52C359.67 358.83 352.98 357.4 346.26 356.69C344.37 356.48 341.78 355.94 339.91 356.51C336.39 357.58 336.65 361.59 333.66 362.97C331.07 361.46 334.81 357.58 334.83 355.46C330.13 352.92 319.68 358.72 315.01 359.92C310.15 361.19 301.39 363.49 296.98 359.64C296.26 359.02 295.66 358.24 295.2 357.27C293.41 353.39 295.76 348.71 296.82 344.69C297.33 342.68 297.54 340.86 296.74 339.36C296.02 337.94 294.44 336.84 291.46 336.16C289.14 335.65 283.93 336.13 282.36 334.05C279.93 330.81 286.36 326.29 288.35 324.43C291.4 321.59 295.11 315.96 288.5 315.02C284.14 314.4 279.31 316.56 275.24 317.76C275.13 317.79 275.01 317.82 274.91 317.86C273.91 318.14 272.86 318.45 271.77 318.73C268.6 319.54 265.2 320.05 262.26 318.86C256.22 316.38 256.39 308.59 257.71 303.27C258.26 301.14 258.86 298.76 259.58 296.34C260.63 292.85 261.92 289.32 263.55 286.56C266.12 282.15 270.35 281.45 274.91 281.57C275.96 281.58 277.02 281.65 278.08 281.72C283.59 282.08 288.51 285.5 293.94 285.25C294.68 285.22 295.4 285.17 296.12 285.16C302.01 284.91 307.43 285.08 311.91 290.23C314.47 293.19 314.31 296.15 314.53 299.83C314.65 301.93 314.67 306.43 317.45 306.86C322.31 307.61 320.94 297.15 320.94 294.37C320.94 284.65 324.93 281.74 333.05 277.87C335.89 276.51 339.05 274.93 339.93 271.64C340.84 268.28 338.46 264.45 340.83 261.37C341.33 262.43 341.85 263.49 342.37 264.55C345.02 264.76 345.2 260.44 345.97 258.66C347.02 256.19 348.37 255.05 350.24 253.78C350.62 253.52 351.05 253.23 351.5 252.94C351.53 252.93 351.56 252.9 351.59 252.88C355.3 250.4 356.84 247.16 359.91 244.13C362.64 241.43 366.64 240.73 369.31 238.06C372.01 235.35 370.68 233.61 370.51 230.24C370.4 228.12 371.7 225.04 369.69 223.54C365.24 220.22 362.09 230.24 358.1 229.68C359.22 219.23 372.04 221.72 378.71 219.61C380.29 219.11 382 218.22 383.32 217C384.83 215.66 385.87 213.91 385.8 211.85C385.69 209.1 384.66 208.62 383.32 208.53C382.1 208.46 380.61 208.68 379.32 207.78C380.32 201.13 376.33 199.72 372.73 194.84C371.54 193.22 370.78 190.02 369 188.92C365.99 187.05 365.76 189.69 363.21 190.48C357.15 192.37 358.88 183.04 356.18 180.23C353.34 177.28 347.08 173.42 344.56 178.36C342.41 182.59 344.94 187.33 345.29 191.58C345.74 196.66 340.77 198.37 339.81 203.2C339.4 205.34 340.19 210.95 337.22 211.45C336.93 211.49 336.64 211.44 336.39 211.31C334.99 210.53 334.27 207.31 334.12 206.49C333.44 202.35 334.26 199.9 330.93 196.69C326.14 192.08 320.07 188.94 315.96 183.5C315.65 183.1 315.38 182.7 315.15 182.32C311.39 176.38 314.57 171.99 319.98 167.84C321.07 167 322.2 166.15 323.37 165.34C324.73 164.41 326.12 163.56 327.57 162.85C328.01 162.65 328.44 162.47 328.88 162.32C328.7 162.26 328.53 162.19 328.38 162.1C326.8 161.17 325.78 163.25 324.67 159.05C324.43 158.17 326.52 159.4 327.29 159.93C327.47 160.04 327.63 160.19 327.78 160.34C327.81 160.36 327.84 160.38 327.86 160.42C328.43 161.02 328.86 161.74 329.24 162.2H329.26C331.68 161.47 334.14 161.47 336.51 160.55C341.47 158.6 340.34 151.61 334.85 153.73C333.75 154.16 333.02 154.67 332.38 154.97C332.35 154.97 332.31 154.99 332.28 155L332.27 155.01C331.35 155.41 330.6 155.25 329.09 153.47C326.89 150.89 327.28 148.83 327.28 145.76C327.29 144.5 327.22 140.7 324.89 141.99C322.08 143.53 324.75 148.34 323.49 150.51C322.4 152.39 320.69 152.5 318.9 151.88C316.6 151.11 314.14 149.16 312.63 148.2C309.93 146.49 308.47 146.14 305.23 145.78C303.08 145.55 301.8 145.27 300.84 144.64C299.7 143.92 299.01 142.73 297.9 140.61C296.1 137.21 293.99 134.02 291 131.55C288.05 129.12 284.57 129.34 281.6 127.32C276.16 123.64 278.06 115.12 272.55 111.21C269.27 108.86 266.41 109.92 263.09 111.24C260 112.48 257.84 111.7 254.68 112.16C225.57 116.4 248.25 125.93 249.18 140.52C249.49 145.38 248.48 150.58 246.75 155.1C245.1 159.45 241.38 163.38 240.59 168.01C239.94 171.78 242.22 175.06 241.83 178.75C241.38 183.01 238.13 184.27 234.81 185.97C233.08 186.87 231.17 187.96 229.23 189.21C223.56 192.91 217.74 198.04 216.12 203.9C215.3 206.77 216.12 209.15 215.98 211.69C215.94 212.66 215.75 213.67 215.28 214.74C213.6 218.57 212.88 221.18 213.84 225.53C214.1 226.7 214.45 227.83 214.84 228.96C215.61 231.21 216.47 233.44 216.79 235.82C216.79 235.88 216.81 235.93 216.81 235.98C217.4 240.56 216.91 245.63 216.9 250.27C216.88 253.7 216.18 256.78 215.6 259.86C214.97 263.28 214.51 266.68 215.39 270.53C215.76 272.12 216.19 274.39 217.15 276C217.44 276.49 217.78 276.9 218.18 277.24C218.21 277.27 218.24 277.28 218.27 277.32C222.22 280.44 220.77 273.67 220.5 271.43C219.98 267.16 220.02 262.88 219.51 258.63C219.42 257.93 219.28 257.17 219.11 256.33C218.49 253.09 217.71 249.04 219.83 246.74C222.92 243.41 223.44 247.46 223.8 250.4C224.45 255.63 224.48 260.94 225.48 266.14C225.76 267.6 226.13 269.03 226.54 270.41V270.42C227.63 274.1 229.03 277.61 229.95 281.19C230.2 282.16 230.4 283.12 230.58 284.11C230.9 286.08 231.03 288.11 230.84 290.22C230.78 290.87 230.69 291.52 230.58 292.18C229.97 295.54 230.06 298.35 230.76 300.86C232.04 305.77 235.47 309.49 240 313.91C244.27 318.08 249.19 320.62 254.06 323.43C254.16 323.49 254.27 323.55 254.37 323.61C256.6 324.9 258.81 326.25 260.91 327.86C263.88 330.11 266.31 332.99 269.29 335.24C271.05 336.58 273 337.67 274.93 338.8C275.39 339.05 275.83 339.31 276.27 339.58C278.33 340.82 280.32 342.15 281.99 343.92C287.44 349.76 288.88 359.75 297.04 362.93C297.19 363.01 297.35 363.06 297.51 363.12C302.67 364.91 309.96 359.54 310.21 368.52C310.27 370.85 309.88 372.69 309.12 374.18C307.01 378.4 302.14 379.87 297.25 382.15C297 382.25 296.74 382.39 296.48 382.5C295.44 383 293.29 383.97 292.5 385.08C291.22 386.92 292.5 388.44 291.9 389.47C290.12 392.49 286.43 392.12 287.49 396.45C287.92 398.2 289.44 399.37 290.53 400.68C292.32 402.83 292.86 404.88 294.13 407.29C295.16 409.27 296.29 410.25 297.57 410.92C299.21 411.75 301.12 412.07 303.42 413.25C304.39 413.75 305.06 414.27 305.47 414.79C315.17 414.71 324.7 414.59 334.02 414.41C344.01 411.4 353.74 407.81 363.1 403.17C363.13 403.15 363.16 403.14 363.19 403.13C365.25 402.11 367.3 401.02 369.33 399.89C375.32 396.53 380.98 392.58 386.48 388.4C387.28 387.78 388.09 387.17 388.88 386.52C389 386.43 389.12 386.33 389.24 386.23C389.5 386.03 389.75 385.83 390.01 385.63C393.69 382.74 397.3 379.76 400.88 376.79C401.44 376.33 402 375.87 402.56 375.41C404.17 374.1 405.03 372.76 405.23 371.76V371.75C405.43 370.84 405.01 370.2 404.04 370.13Z" fill="#54CC5A"/>
<path d="M358.57 358.431C358.63 358.431 358.68 358.411 358.74 358.401C358.59 358.391 358.45 358.381 358.35 358.361C358.27 358.341 358.5 358.441 358.57 358.431Z" fill="#54CC5A"/>
<path d="M341.98 271.511C341.87 270.571 342 269.511 341.58 268.681C341.74 269.511 341.67 270.401 341.83 271.241C341.84 271.341 341.99 271.621 341.98 271.511Z" fill="#54CC5A"/>
<path d="M341.58 268.68C341.52 268.38 341.44 268.08 341.3 267.81C341.14 267.49 341.24 267.81 341.36 268.32C341.4 268.38 341.46 268.42 341.5 268.48C341.53 268.54 341.55 268.61 341.58 268.68Z" fill="#54CC5A"/>
<path d="M372.89 235.291C373.14 235.451 373.47 235.661 373.86 235.891C373.57 235.631 373.24 235.431 372.89 235.291Z" fill="#54CC5A"/>
<path d="M375.14 237.841C375.35 238.641 373.4 237.571 372.64 237.901C371.76 238.291 371.27 239.251 370.54 239.871C370 240.331 369.14 240.521 368.83 241.161C368.21 242.431 369.47 245.441 370.57 244.791C371.95 243.981 372.17 242.021 373.17 240.771C374.67 238.881 373.66 241.521 374.71 241.301C375.06 241.221 374.32 240.421 374.62 240.241C375.15 239.931 375.89 240.491 376.45 240.271C377.37 239.901 377.97 238.991 378.84 238.541C379.31 238.291 380.08 238.631 380.4 238.211C380.62 237.931 380.01 237.611 379.76 237.351C379.72 237.311 379.69 237.271 379.66 237.231C380.41 237.431 382.75 236.321 382.66 235.701C382.49 234.501 381.71 233.471 381.24 232.351C381.24 232.351 379.62 234.321 378.93 235.381C378.86 235.491 378.98 235.631 379.03 235.751C379.15 236.041 379.17 236.441 379.28 236.761C378.97 236.371 378.65 236.001 378.19 235.941C373.38 235.311 379.92 239.541 374.19 236.081C374.07 236.001 373.97 235.951 373.86 235.881C374.48 236.421 374.96 237.141 375.14 237.841Z" fill="#54CC5A"/>
<path d="M296.07 347.791C295.99 348.111 295.9 348.451 295.8 348.811C295.71 349.141 296.11 348.251 296.07 347.791Z" fill="#54CC5A"/>
<path d="M277.12 280.311C276.74 280.451 276.36 280.591 275.97 280.691C275.59 280.801 276.99 280.701 277.12 280.311Z" fill="#54CC5A"/>
<path d="M381.72 206.571C381.78 206.511 381.85 206.461 381.9 206.391C382.05 206.171 381.22 205.581 381.34 205.811C381.47 206.051 381.59 206.311 381.72 206.571Z" fill="#54CC5A"/>
<path d="M248.38 99.5705C248.6 100.46 247.25 101.05 246.47 101.53C245.7 102 243.49 101.51 243.88 102.32C244.34 103.27 245.99 102.52 247.03 102.7C248.2 102.9 247.21 103.57 248.61 104.32C248.92 104.49 249.92 103.84 249.63 104.04C248.87 104.59 247.76 104.67 247.14 105.37C246.86 105.7 248.02 105.47 248.45 105.39C249.42 105.21 250.36 104.9 251.29 104.59C251.48 104.52 250.62 104.81 250.69 104.63C250.79 104.4 251.14 104.37 251.39 104.35C251.46 104.34 251.38 104.57 251.45 104.56C252.37 104.42 253.35 104.36 254.18 103.95C254.97 103.55 255.38 101.76 256.14 102.2C256.86 102.62 254.38 103.85 254.99 104.41C255.83 105.19 257.28 104.31 258.43 104.33C258.89 104.33 260.21 104.27 259.79 104.46C258.86 104.88 257.68 104.61 256.77 105.07C256.37 105.28 256.61 106.05 256.24 106.28C255.55 106.72 254.58 106.51 253.88 106.92C253.69 107.03 253.59 107.23 253.5 107.44C253.49 107.46 253.48 107.48 253.47 107.51C253.43 107.61 253.38 107.72 253.33 107.82C253.27 107.93 253.2 108.03 253.1 108.11C252.77 108.36 251.49 108.31 251.89 108.44C252.59 108.66 254.92 108.66 255.9 108.33C256.16 108.24 256.34 107.74 256.6 107.86C257.19 108.14 257.35 109.61 257.93 109.3C258.72 108.89 258.16 107.45 258.7 106.76C259 106.37 259.66 106.56 260.14 106.44C261.44 106.13 262.42 105.96 263.38 105.68C263.4 105.68 263.41 105.67 263.43 105.66C263.65 105.6 263.87 105.53 264.09 105.45C264.2 105.41 264.31 105.36 264.41 105.32C264.55 105.27 264.68 105.22 264.83 105.15C264.99 105.08 265.16 104.99 265.33 104.91C265.43 104.86 265.52 104.82 265.62 104.76C265.83 104.65 266.05 104.51 266.28 104.38C266.35 104.34 266.41 104.31 266.48 104.26C266.5 104.25 266.52 104.24 266.54 104.22C266.76 104.08 265.93 104.32 265.6 104.41L265.51 104.43H265.5C265.51 104.43 265.5 104.43 265.52 104.42C266.34 104.12 267.21 103.95 268.03 103.67C268.44 103.53 274.17 101.23 273.28 100.04C272.77 99.3505 271.56 100.23 270.7 100.23C270.47 100.23 269.82 100.17 270.02 100.06C273.7 98.0405 270.98 100.2 274.22 99.2005C274.42 99.1405 273.74 99.1105 273.68 98.9105C273.51 98.3905 273.12 97.5305 273.6 97.2805C274.49 96.8205 275.61 97.3705 276.62 97.3805C277.43 97.3805 278.25 97.3205 279.06 97.2805C280.94 97.2105 281.54 97.3105 283.46 96.6305C283.84 96.4905 284.08 96.0405 284.48 95.9705C285.45 95.8005 286.46 95.9405 287.44 95.9105C288.84 95.8705 291.49 95.8105 293.24 95.7205C294.29 95.6705 295.34 95.6005 296.39 95.5405C296.58 95.5305 297.13 95.5705 296.95 95.5205C296.03 95.2505 293.58 95.6605 294.15 94.8905C294.84 93.9605 296.45 94.7005 297.61 94.6405C301.08 94.4605 302.88 94.9705 305.61 95.2205C306.62 95.3105 301.53 94.5205 303.59 94.8005C309.04 95.5305 314.44 96.4705 319.86 97.3305C321.12 97.5305 322.82 97.3405 323.92 97.9505C324.92 98.5005 325.77 99.2905 326.77 99.8205C327.3 100.09 327.89 100.22 328.47 100.35C333.18 101.4 337.91 102.36 342.63 103.37L342.19 103.16C341.61 102.96 341.04 102.75 340.45 102.55C304.08 90.0005 267.09 91.5805 233.41 103.2L233.27 103.32C235.89 102.81 243.4 100.04 246.04 99.8405C246.83 99.7905 248.19 98.8105 248.38 99.5705Z" fill="#54CC5A"/>
<path d="M420.31 162.34C420.55 162.59 419.96 161.77 419.75 161.49C419.28 160.83 418.75 160.21 418.28 159.55C417.69 158.74 417.09 157.91 416.48 157.1C416.55 157.17 416.61 157.26 416.67 157.34C416.77 157.47 417.02 157.77 417.14 157.9C416.79 157.46 416.42 157 416.06 156.56C415.19 155.45 414.29 154.38 413.32 153.39H413.31C413.31 153.4 413.47 153.66 413.47 153.7C413.01 153.13 412.6 152.54 412.16 151.96C411.92 151.65 411.51 150.72 411.42 151.08C411.41 151.17 411.42 151.26 411.46 151.36C411.28 151.07 411.11 150.76 410.87 150.51C409 148.52 406.88 146.78 404.99 144.79C402.66 142.34 400.22 140.16 397.73 137.91C397.48 137.69 396.29 136.48 396.29 136.3C396.33 135.77 397.14 136.79 397.97 137.57C398.62 138.16 399.3 138.73 399.93 139.34C401.79 141.09 403.6 142.86 405.47 144.59C406.07 145.16 406.62 145.78 407.24 146.36C407.34 146.45 407.71 146.68 407.62 146.58C406.46 145.28 405.23 144.05 404.05 142.78V142.77C403.52 142.22 402.97 141.69 402.44 141.15L402.31 140.75C398.76 137.27 395.05 133.94 391.17 130.78L391.26 131.09C388.92 129.76 387.19 127.85 385.03 126.24C384.53 125.86 384.04 125.08 383.54 124.66C383.48 124.63 383.42 124.59 383.38 124.56C383.14 124.41 382.89 124.38 382.66 124.53C381.76 125.09 383.28 126.62 383.99 127.4C385.07 128.56 386.27 129.61 387.51 130.63C387.54 130.66 387.57 130.69 387.6 130.72C388.23 131.24 388.85 131.75 389.47 132.27C389.59 132.36 389.74 132.45 389.87 132.54C389.78 132.48 389.74 132.51 389.78 132.66C389.93 133.25 391.22 134.03 391.86 134.58C394.69 137 397.5 139.49 400.14 141.95C401.32 143.07 402.41 144.29 403.59 145.43C403.58 145.39 403.4 145.14 403.35 145.06C404.16 145.99 405.65 148.27 406.61 148.83C407.02 149.07 405.65 147.25 405.98 147.59C407.94 149.74 408.97 152.76 411.02 154.79C411.15 154.92 411.11 154.14 411.24 154.27C411.93 155.01 412.33 155.96 412.92 156.77C412.98 156.84 413.2 157.01 413.17 156.92C412.9 156.23 411.74 154.4 412.24 154.93C413.04 155.77 413.32 156.98 414.05 157.85C414.27 158.13 413.55 156.63 413.83 156.82C414.49 157.28 414.77 158.12 415.3 158.72C416.33 159.91 417.27 161.2 418.48 162.2C418.86 162.52 418.13 161.27 417.86 160.86C417.12 159.7 416.31 158.58 415.49 157.46C415.2 157.08 414.86 156.74 414.53 156.37C414.29 156.1 413.51 155.4 413.82 155.57C416.11 156.78 418.53 160.48 420.31 162.34ZM391.3 133.67C390.89 133.51 390.18 132.71 389.9 132.52C390.08 132.64 390.27 132.74 390.43 132.87C390.75 133.12 391.67 133.81 391.3 133.67Z" fill="#54CC5A"/>
<path d="M446.35 224.7C446.92 225.28 447.41 225.95 447.94 226.56C448.52 227.24 447.62 224.8 447.48 223.91C447.05 221.12 446.52 218.44 445.79 215.71C443.97 208.98 441.6 202.47 439.2 195.93L439.35 195.65C433.97 182.62 426.93 170.3 418.39 159.01L418.09 158.96C419.91 161.56 422.46 164.2 423.59 167.22C423.69 167.49 423.09 166.89 422.91 166.67C422.31 165.93 421.84 165.11 421.26 164.36C420.55 163.44 419.77 162.57 419.06 161.65C419.08 161.67 419.09 161.7 419.1 161.72C418.97 161.54 418.92 161.47 419.06 161.65C419.02 161.6 416.28 157.31 417.65 159.8C418.06 160.54 418.64 161.18 419.11 161.88C419.46 162.41 420.24 164.1 420.11 163.48C420.09 163.37 420.03 163.24 419.96 163.1C420.14 163.43 420.32 163.76 420.54 164.06C421.76 165.75 423.58 167.26 424.7 169.02C425.71 170.6 426.65 173.11 427.51 174.74C428.3 176.24 429.14 177.72 430.04 179.15C430.09 179.23 430.07 178.82 430.13 178.9C430.73 179.91 430.95 181.32 431.5 182.39C431.78 182.92 432.19 183.38 432.45 183.92C432.93 184.92 433.28 185.98 433.73 187C433.78 187.1 433.64 186.59 433.69 186.68C433.83 186.95 433.99 187.22 434 187.51C434.01 187.81 433.67 188.09 433.78 188.36C434.09 189.15 434.87 189.71 435.19 190.5C436.44 193.6 432.3 189.13 435.73 194.07C436.3 194.89 437.42 195.2 438.08 195.96C439.01 197.04 440.69 201.81 441.25 203.26C441.86 204.82 441.6 206.16 441.61 207.54C441.61 208.13 441.85 208.7 441.82 209.29C441.81 209.41 441.48 209.32 441.5 209.43C441.87 213.53 443.09 213.66 444.47 218.2C445.11 220.31 445.29 222.66 446.11 224.7C446.15 224.78 446.3 224.65 446.35 224.7Z" fill="#54CC5A"/>
<path d="M447.16 219.581L446.86 219.611C447.3 221.471 447.83 223.421 448.09 225.301C448.85 231.021 447.62 224.821 448.21 228.181C448.94 232.441 449.37 236.641 449.84 240.941C450.2 244.201 450.71 247.461 450.81 250.751C450.89 253.571 450.6 256.321 450.58 259.121C450.53 267.051 449.69 274.861 448.8 282.741C448.52 285.211 448.69 286.771 448.22 289.161C447.55 292.571 446.78 295.971 446.06 299.371L446.39 299.461C453.48 272.541 453.38 245.201 447.16 219.581Z" fill="#54CC5A"/>
<path d="M374.5 161.831C374.12 161.691 373.72 161.511 373.39 161.411C373.32 161.391 373.26 161.381 373.19 161.371C373.12 161.361 373.04 161.331 372.98 161.331C372.86 161.331 372.77 161.351 372.72 161.421C372.4 161.811 372.38 162.851 372.88 162.931C373 162.951 373.13 162.911 373.26 162.851C373.3 162.831 373.34 162.801 373.38 162.781C373.47 162.731 373.57 162.671 373.66 162.591C373.71 162.551 373.75 162.521 373.79 162.481C373.9 162.391 374.01 162.291 374.11 162.191C374.16 162.141 374.21 162.101 374.26 162.061C374.35 161.971 374.43 161.891 374.5 161.831Z" fill="#54CC5A"/>
<path d="M317.89 129.49C318.09 129.18 318.29 128.84 318.52 128.56C318.53 128.55 318.54 128.54 318.54 128.53L318.53 128.54C318.53 128.54 318.53 128.53 318.54 128.53C318.53 128.54 318.52 128.55 318.51 128.56C318.21 128.85 317.9 129.21 317.89 129.49Z" fill="#54CC5A"/>
<path d="M334.28 131.181C334.65 131.351 334.88 130.631 335.24 130.441C335.82 130.121 337.11 130.321 337.07 129.651C337.01 128.671 335.65 128.271 335.06 127.481C334.5 126.751 334.29 125.791 333.65 125.121C333.34 124.801 332.8 124.811 332.37 124.661C332.1 125.441 332.05 126.331 331.57 127.001C330.99 127.801 329.2 126.541 331.07 128.441C332.06 129.451 333.01 130.581 334.28 131.181Z" fill="#54CC5A"/>
<path d="M339.86 125.591C338.8 125.311 338.19 124.101 337.16 123.701C336.72 123.531 336.24 123.911 335.78 123.971C335.13 124.071 334.17 123.621 333.83 124.171C333.53 124.661 334.22 125.381 334.73 125.641C335.49 126.021 336.62 125.341 337.26 125.891C337.64 126.211 335.86 126.461 336.15 126.861C336.65 127.531 337.7 127.641 338.53 127.611C339.55 127.581 340.43 125.501 341.16 126.591C342.72 128.951 338.44 128.161 337.76 127.981C337.24 127.841 336.09 126.941 336.24 127.461C336.65 128.881 338.86 129.731 338.7 131.201C338.59 132.161 336.88 130.391 335.91 130.331C335.41 130.301 337.2 130.601 337.2 131.101C337.16 134.661 331.43 128.811 333.04 134.191C333.28 134.981 334.71 134.421 335.46 134.781C335.98 135.021 336.17 135.831 336.73 135.911C337.36 136.001 337.87 135.111 338.5 135.221C339.16 135.341 339.65 135.951 340.04 136.491C340.16 136.651 339.64 137.051 339.84 137.071C345.05 137.651 339.83 135.361 339.13 134.631C338.87 134.361 338.7 133.661 339.05 133.511C339.8 133.181 340.69 133.511 341.51 133.581C342.07 133.631 343.16 134.441 343.18 133.881C343.23 132.901 342.24 132.131 341.61 131.371C341.44 131.161 340.65 131.261 340.86 131.101C342.03 130.141 347.17 129.511 346.89 127.531C346.36 123.831 343 124.451 340.93 124.661C340.92 124.671 340.31 125.711 339.86 125.591Z" fill="#54CC5A"/>
<path d="M326.9 129.31C327.3 128.06 326.07 126.83 325.65 125.59C325.65 125.59 323.96 126.16 323.73 126.9C323.59 127.35 324.7 127.1 325.08 127.4C325.78 127.93 326.63 130.14 326.9 129.31Z" fill="#54CC5A"/>
<path d="M311.92 126.08C312.7 125.82 312.87 124.76 313.34 124.09C313.34 124.09 310.4 123.98 308.93 124C308.56 124 307.82 123.8 307.82 124.17C307.86 125.85 311.21 126.32 311.92 126.08Z" fill="#54CC5A"/>
<path d="M325.52 134.92C326.15 133.81 325.04 132.41 324.8 131.15C324.8 131.15 323.69 130.65 323.47 131.03C322.97 131.91 322.66 133.15 323.14 134.05C323.54 134.8 325.11 135.65 325.52 134.92Z" fill="#54CC5A"/>
<path d="M327.5 131.951C327.26 133.281 329.93 133.461 330.24 133.781C330.65 134.201 330.27 135.081 330.71 135.481C332.42 137.051 334.55 138.081 336.43 139.451C336.66 139.621 336.74 140.101 337.03 140.081C337.38 140.051 337.42 139.291 337.76 139.341C338.1 139.391 337.95 140.091 338.26 140.241C339 140.621 340.72 141.641 340.69 140.821C340.62 138.431 337.66 136.501 335.58 137.361L335.6 137.451C335.59 137.451 335.59 137.441 335.58 137.441C335.33 137.291 335.08 137.141 334.84 136.991C334.83 136.981 334.81 136.971 334.79 136.961C334.68 136.891 334.57 136.841 334.46 136.771C334.14 136.591 333.81 136.421 333.46 136.311C333.28 136.251 333.31 136.941 333.19 136.801C332.41 135.771 331.91 134.571 331.28 133.451C330.42 132.851 329.68 132.031 328.71 131.651C328.31 131.501 327.58 131.551 327.5 131.951Z" fill="#54CC5A"/>
<path d="M319.7 131.36C319.54 130.53 318.07 130.41 317.87 129.59L317.88 129.49C317.84 129.55 317.8 129.61 317.75 129.67C317.71 129.72 317.68 129.78 317.64 129.82C317.61 129.86 317.58 129.88 317.55 129.91C317.49 129.97 317.43 130.04 317.37 130.1C317.36 130.11 317.34 130.12 317.32 130.13C317.14 130.27 316.94 130.35 316.71 130.34C315.77 130.3 315.69 128.77 315.19 127.98C315.19 127.98 313.07 128.34 312.06 128.68C311.99 128.7 312.08 128.72 312.18 128.74L312.47 128.89C312.51 129.04 312.09 129.21 312.23 129.27C312.99 129.63 314.72 129.1 314.67 129.94C314.61 130.83 311.48 130.24 312.13 130.84C313.06 131.71 314.69 130.85 315.94 131.12C316.8 131.3 317.48 132.12 318.35 132.17C318.89 132.22 319.8 131.87 319.7 131.36Z" fill="#54CC5A"/>
<path d="M301.16 130.75C301.13 130.79 301.47 130.48 302.59 129.45C302.63 129.41 302.67 129.38 302.71 129.34C303.72 128.3 301.24 130.63 301.16 130.75Z" fill="#54CC5A"/>
<path d="M323.4 142.301C326.22 136.951 323.56 140.851 322.6 138.981C322.21 138.221 322.34 137.301 322.21 136.471C322.21 136.471 320.76 139.131 319.75 138.681C319.3 138.481 319.5 137.581 319.04 137.371C318.71 137.221 318.06 137.591 318.14 137.931C318.3 138.721 319.15 139.191 319.56 139.881C319.78 140.251 319.67 140.801 319.99 141.091C320.36 141.431 320.98 141.341 321.42 141.601C321.59 141.711 322.81 143.411 323.4 142.301Z" fill="#54CC5A"/>
<path d="M353.65 125.21C353.55 125.14 353.4 125.11 353.27 125.08H353.14C353.02 125.07 352.9 125.07 352.76 125.07C353.08 125.13 353.41 125.22 353.6 125.26C353.63 125.27 353.66 125.27 353.67 125.29C353.7 125.29 353.73 125.29 353.73 125.29C353.73 125.27 353.71 125.24 353.65 125.21ZM393.83 180.77C393.7 178.37 392.24 174.6 391.63 172.65C389.3 165.15 391.73 157.39 387.86 150.21C384.63 144.2 379.08 139.91 373.88 135.7C369.81 132.4 362.92 124.93 357.11 125.11C352.6 125.26 348.34 127.51 348.06 130.93C347.93 132.58 348.72 134.51 350.84 136.59C355.67 141.32 361.37 144.27 365.74 149.61C367.99 152.35 370.69 154.99 372.78 157.8C373.71 159.02 374.06 160.38 374.37 161.78C374.37 161.82 374.38 161.87 374.4 161.91C374.68 163.32 374.92 164.78 375.58 166.15C378.01 171.19 383.55 177.32 388.19 180.77C388.43 180.96 388.66 181.12 388.9 181.29C392.92 184.08 393.95 183.02 393.83 180.77Z" fill="#54CC5A"/>
<path d="M307.77 143.551C308.36 143.511 308.92 142.611 309.43 142.911C310.06 143.281 309.66 144.431 310.16 144.961C312.1 146.991 313.84 146.501 316.14 145.301C318.2 144.221 314.91 142.891 314.81 142.451C314.46 140.861 315.07 139.201 315.27 137.591C315.34 137.051 315.82 136.501 315.62 136.001C315.34 135.321 314.72 134.301 314.02 134.501C313.07 134.781 312.79 136.061 312.36 136.951C312.26 137.161 312.67 137.471 312.52 137.651C312.27 137.921 311.51 138.341 311.44 137.971C311.31 137.231 312.71 136.411 312.2 135.851C310.83 134.361 308.62 133.941 306.84 132.981C306.84 132.981 305.91 131.401 305.09 131.181C304.38 130.981 303.72 131.741 303.01 131.941C302.33 132.131 301.36 131.791 300.94 132.361C300.66 132.741 302.14 132.621 302.15 133.101C302.23 135.461 299.57 132.581 300.08 133.881C300.42 134.771 301.09 135.551 301.85 136.131C302.38 136.541 303.95 136.071 303.78 136.711C303.21 138.791 295.6 133.261 298.47 137.771C299.09 138.741 300.46 139.001 301.2 139.881C301.83 140.621 301.72 141.881 302.46 142.511C303.16 143.111 304.23 143.081 305.14 143.261C306 143.421 306.89 143.621 307.77 143.551Z" fill="#54CC5A"/>
<path d="M369.72 157.54C369.93 157.82 370.82 158.36 370.65 158.04C370.07 156.93 369.15 156.03 368.41 155.03C368.42 155.03 369.16 156.78 369.72 157.54Z" fill="#54CC5A"/>
<path d="M318.41 148.981C318.97 149.411 319.47 149.991 320.14 150.241C320.6 150.411 321.63 150.651 321.61 150.161C321.57 148.741 320.55 147.521 320.01 146.201C320.01 146.201 317.57 146.851 317 147.841C316.71 148.351 317.93 148.621 318.41 148.981Z" fill="#54CC5A"/>
<path d="M332.14 155.661C332.43 155.751 332.66 155.341 332.92 155.181C332.71 155.121 332.47 154.891 332.29 155.001C332.1 155.131 331.92 155.601 332.14 155.661Z" fill="#54CC5A"/>
<path d="M364.44 165.29C364.45 164.94 365.81 165.61 365.55 165.36C364.95 164.8 364.11 164.55 363.33 164.24C362.98 164.11 362.52 164.25 362.2 164.05C361.99 163.92 362.16 163.5 361.96 163.36C361.83 163.27 361.67 163.23 361.49 163.2C361.53 163.21 361.59 163.21 361.62 163.21C361.69 163.21 361.74 163.2 361.77 163.15C362.15 162.74 360.49 161.54 360.41 161.51C359.95 161.27 359.45 160.83 358.95 160.98C358.66 161.07 359.2 161.7 358.98 161.92C358.8 162.08 358.58 161.65 358.41 161.48C357.92 160.96 357.48 160.4 357.03 159.87C357.03 159.87 356.28 158.93 355.78 158.6C355.28 158.25 353.98 158.47 354.09 157.85C354.22 157.05 356.55 157.22 356.14 156.51C355.59 155.57 353.81 156.52 352.96 155.88C352.58 155.6 353.9 155.23 353.81 154.76C353.65 153.79 353.28 152.37 352.31 152.21C351.48 152.08 351.81 154.23 350.98 154.27C348.15 154.46 350.2 150.53 349.74 150.03C349.34 149.59 349.08 151.24 348.47 151.31C347.78 151.4 346.92 151.03 346.57 150.43C346.08 149.62 346.78 148.46 346.3 147.63C346.17 147.38 346.02 147.17 345.89 146.98C345.88 146.94 345.85 146.89 345.82 146.86C345.7 146.7 345.6 146.57 345.5 146.46C345.49 146.45 345.47 146.42 345.46 146.4C345.21 146.15 344.97 146 344.74 145.94C343.38 144.72 341.81 143.77 340.33 142.7C340.58 142.95 342.33 144.67 343.35 145.44C343.54 145.57 343.95 145.78 344.29 145.9C343.91 145.96 343.51 146.18 343.04 146.42C342.85 146.51 342.64 146.61 342.41 146.69C342.4 146.7 342.37 146.72 342.35 146.72C342.08 146.81 341.8 146.88 341.5 146.93C341.22 146.96 341.15 146.3 340.87 146.37C340.5 146.44 340.16 147.61 340.15 147.24C340.15 146.55 340.95 145.97 340.87 145.3C340.66 143.56 339.43 142.27 339.15 142.44C338.38 142.94 338.02 144.06 337.12 144.3C336.52 144.46 335.97 143.18 335.41 143.46C332.68 144.83 335.98 146.17 336.22 146.77C336.37 147.14 336.04 148.11 335.73 147.88C334.89 147.23 333.76 144.46 334.42 143.27C334.83 142.53 336.14 142.52 336.42 141.72C336.58 141.28 335.62 140.85 335.2 141.06C333.43 141.9 331.74 143.05 330.49 144.54C330.05 145.07 330.05 146.15 330.55 146.62C332.97 148.9 335.9 150.58 338.73 152.34C338.76 152.37 338.82 152.38 338.89 152.37C338.9 152.37 338.93 152.36 338.96 152.36C339 152.35 339.03 152.35 339.08 152.32C339.14 152.31 339.18 152.26 339.21 152.23C339.22 152.22 339.22 152.22 339.22 152.22C339.25 152.18 339.26 152.13 339.23 152.1C339.35 152.2 339.47 152.31 339.57 152.39C339.57 152.4 339.57 152.4 339.57 152.4C339.67 152.49 339.76 152.58 339.84 152.64C339.85 152.65 339.87 152.67 339.9 152.68C339.96 152.74 340 152.78 340.05 152.81C340.11 152.85 340.14 152.88 340.14 152.88C340.96 152.31 341.36 150.74 342.36 150.85C343.51 150.97 344.05 152.44 344.79 153.35C345.06 153.66 345.03 154.16 345.29 154.47C345.64 154.93 346.2 155.16 346.59 155.59C346.94 155.97 347.05 156.56 347.46 156.89C347.89 157.24 348.59 157.16 348.98 157.54C349.2 157.76 348.82 158.22 349.01 158.47C349.25 158.78 349.86 158.66 350.1 158.99C350.73 159.87 350.84 161.08 351.5 161.94C352.19 162.81 355.64 163.43 355.71 164.58C355.75 165.51 354.18 165.63 353.34 166.01C352.41 166.44 351.35 166.54 350.45 167C350.21 167.1 350.02 167.27 349.83 167.44C349.68 167.57 349.54 167.71 349.39 167.84C349.3 167.93 349.21 168.02 349.11 168.09C348.99 168.21 348.86 168.31 348.73 168.4C348.66 168.44 348.57 168.49 348.48 168.53C348.39 168.57 348.3 168.59 348.23 168.6C347.99 168.44 347.76 168.26 347.54 168.08H347.53C347.54 168.17 347.56 168.26 347.59 168.33C347.6 168.39 347.6 168.46 347.63 168.51C347.67 168.63 347.76 168.7 347.91 168.7L348.28 168.64C349.16 169.29 350.08 169.92 350.95 170.6C351.58 171.09 354.34 172.96 354.35 173.16C354.38 173.6 352.71 173.1 353.04 173.41C354.29 174.62 356.09 175.1 357.47 176.17C358.94 177.3 359.36 180.15 362.23 179.43C365.09 178.72 364.63 174.61 363.5 172.96C363.16 172.46 362.26 172.52 361.94 172C361.79 171.76 362.66 171.78 362.6 171.51C362.05 169.2 361.23 171.33 360.2 170.41C359.89 170.14 359.66 169.79 359.45 169.44C359.18 168.98 359.16 168.35 358.77 167.98C358.59 167.82 357.97 168.05 357.9 168.05C357.91 168.04 357.91 168.02 357.93 168.02C358.7 167.55 359.62 167.34 360.45 166.94C361.01 166.65 361.63 165.48 362.09 165.94C363 166.87 362.64 168.53 363.2 169.71C363.29 169.9 363.72 169.71 363.76 169.52C363.97 168.62 363.38 167.53 363.89 166.76C364.17 166.35 364.88 167.32 365.36 167.17C366.75 166.7 364.42 165.55 364.44 165.29ZM361.24 163.15C361.14 163.14 361.05 163.12 360.96 163.09C360.84 163.06 360.72 163 360.64 162.9C360.6 162.86 360.61 162.84 360.63 162.86H360.67C360.68 162.87 360.73 162.89 360.76 162.9C360.94 162.99 361.19 163.12 361.41 163.18C361.35 163.18 361.3 163.16 361.24 163.15Z" fill="#54CC5A"/>
<path d="M399.94 160.11C397.64 158.6 397.13 160.92 399.64 162.68C400.11 163.01 400.63 161.31 401.05 161.7C401.65 162.26 400.69 163.54 401.25 164.15C402.09 165.08 403.53 165.18 404.68 165.69C404.68 165.69 406.36 165.79 406.77 165.21C407.14 164.69 406.59 163.92 406.39 163.31C406.19 162.7 405.75 162.2 405.59 161.58C405.55 161.41 405.92 161.29 405.84 161.14C405.01 159.52 403.01 158.23 401.66 157.3C401.32 157.06 400.58 156.31 400.56 156.72C400.49 158.22 401.29 159.64 401.47 161.14L401.23 161.09C401.13 161.04 401.05 161 401.07 161.06C401.26 161.49 402.3 162.49 401.93 162.18C401.2 161.56 400.74 160.64 399.94 160.11Z" fill="#54CC5A"/>
<path d="M339.39 170.691C340.01 170.131 338.32 169.401 337.92 168.661C337.38 167.671 337.03 166.601 336.58 165.571C336.58 165.571 335.34 163.861 334.44 163.331C334.19 163.191 334.1 163.821 333.85 163.971C333.05 164.431 331.95 164.441 331.34 165.121C331 165.511 331.74 166.241 331.45 166.671C331.06 167.251 329.31 167.101 329.62 167.731C329.97 168.451 331.39 167.351 332.02 167.841C332.6 168.291 331.76 169.991 332.49 169.971C333.99 169.931 335 168.331 336.37 167.711C336.56 167.631 336.09 168.131 336.17 168.321C336.48 169.011 338.86 171.191 339.39 170.691Z" fill="#54CC5A"/>
<path d="M246.21 146.041C245.45 146.581 245.03 147.491 244.49 148.261C244.24 148.611 243.52 149.661 243.87 149.401C245.05 148.551 245.99 147.421 247.05 146.431C246.77 146.301 246.46 145.861 246.21 146.041Z" fill="#54CC5A"/>
<path d="M242.77 155.281C243.32 155.701 244.09 154.631 244.43 154.031C244.62 153.691 243.99 153.281 244.1 152.911C244.4 151.891 245.1 151.041 245.61 150.101C245.61 150.101 244.22 152.261 243.6 153.381C243.26 153.991 242.22 154.871 242.77 155.281Z" fill="#54CC5A"/>
<path d="M237.87 157.69C237.59 157.98 238.39 158.57 238.78 158.49C239.84 158.26 240.66 157.42 241.6 156.89C241.28 156.79 240.97 156.53 240.64 156.61C239.68 156.82 238.57 156.99 237.87 157.69Z" fill="#54CC5A"/>
<path d="M236.16 174.13C236.32 174.64 237.25 174.67 237.35 175.2C237.46 175.75 236.31 176.29 236.67 176.73C237.07 177.23 238.49 176.1 238.6 176.73C238.72 177.39 236.91 177.02 236.84 177.69C236.73 178.68 237.43 179.73 238.2 180.35C239.62 181.5 239.99 178.88 240.05 177.79C240.12 176.45 239.86 175.09 239.95 173.75C239.97 173.51 240.46 173.37 240.36 173.15C239.82 171.92 238.91 170.89 238.19 169.76C238.18 169.75 235.69 172.59 236.16 174.13Z" fill="#54CC5A"/>
<path d="M376.38 224.26C376.62 224.44 377.51 224.48 377.29 224.27C376.19 223.15 374.81 222.36 373.57 221.4C373.57 221.4 375.32 223.44 376.38 224.26Z" fill="#54CC5A"/>
</g>
<path d="M367.08 80.2603L412.87 93.2103L410.09 102.14C410.02 102.62 409.46 102.89 409.01 102.65L367.08 80.2603Z" fill="#839299"/>
<path d="M367.08 80.2603L407.51 97.2203L409 102.64L367.08 80.2603Z" fill="#5F737C"/>
<path d="M367.08 80.2603L389.87 106.7C390.58 107.52 392.33 108.27 393.21 107.65L407.51 97.2103L367.08 80.2603Z" fill="#D2D9DC"/>
<path d="M367.08 80.2603L420.97 83.5403C421.82 83.5903 422.28 84.5303 421.77 85.1702L412.87 93.2203L367.08 80.2603Z" fill="#D2D9DC"/>
<path d="M416.88 108.84C416.65 108.92 416.39 108.89 416.17 108.75C415.3 108.19 414.43 107.64 413.55 107.09C413.19 106.86 413.08 106.4 413.31 106.06C413.54 105.72 414.03 105.63 414.39 105.86C415.27 106.41 416.14 106.97 417.02 107.53C417.38 107.76 417.48 108.22 417.25 108.56C417.16 108.69 417.03 108.79 416.88 108.84Z" fill="#D2D9DC"/>
<path d="M466.68 315.82C466.43 315.91 466.14 315.87 465.91 315.69C465.57 315.43 465.52 314.96 465.79 314.65C467.07 313.15 468.34 311.61 469.55 310.07C469.8 309.74 470.29 309.68 470.64 309.93C470.99 310.18 471.06 310.64 470.81 310.97C469.59 312.52 468.31 314.08 467.01 315.6C466.92 315.7 466.81 315.78 466.68 315.82ZM473.6 307.07C473.37 307.15 473.1 307.12 472.88 306.98C472.52 306.74 472.43 306.28 472.67 305.95C473.83 304.36 474.96 302.73 476.05 301.11C476.28 300.77 476.76 300.67 477.13 300.89C477.5 301.11 477.61 301.57 477.38 301.92C476.29 303.56 475.14 305.21 473.97 306.81C473.87 306.93 473.74 307.02 473.6 307.07ZM479.79 297.83C479.58 297.9 479.33 297.89 479.12 297.77C478.75 297.56 478.62 297.1 478.83 296.75C479.86 295.07 480.86 293.36 481.81 291.67C482.01 291.31 482.48 291.18 482.86 291.38C483.24 291.58 483.39 292.03 483.19 292.39C482.24 294.1 481.22 295.82 480.18 297.52C480.09 297.67 479.95 297.78 479.79 297.83ZM485.22 288.17C485.03 288.24 484.8 288.23 484.6 288.13C484.21 287.94 484.05 287.5 484.23 287.13C485.12 285.39 485.98 283.61 486.79 281.84C486.96 281.47 487.42 281.3 487.82 281.47C488.22 281.64 488.4 282.08 488.23 282.45C487.41 284.23 486.54 286.03 485.64 287.79C485.56 287.98 485.4 288.1 485.22 288.17ZM489.86 278.12C489.69 278.18 489.49 278.18 489.3 278.11C488.9 277.96 488.69 277.52 488.85 277.14C489.66 275.14 490.26 273.34 490.69 271.65C490.79 271.25 491.21 271.02 491.63 271.12C492.05 271.22 492.31 271.63 492.21 272.02C491.77 273.78 491.15 275.63 490.31 277.69C490.22 277.9 490.06 278.05 489.86 278.12ZM492.49 267.46C492.4 267.49 492.29 267.51 492.18 267.5C491.75 267.48 491.41 267.13 491.42 266.72C491.49 264.69 491.2 262.83 490.57 261.19C490.42 260.81 490.62 260.39 491.02 260.25H491.03C491.43 260.12 491.88 260.32 492.03 260.71C492.73 262.53 493.05 264.58 492.98 266.8C492.98 267.1 492.77 267.36 492.49 267.46ZM466.18 271.3C466.16 271.31 466.14 271.31 466.12 271.32L465.99 271.35C463.94 271.89 461.77 272.06 459.69 271.86C459.26 271.82 458.94 271.46 458.97 271.05C459 270.64 459.38 270.34 459.81 270.39C461.7 270.57 463.67 270.41 465.53 269.92L465.67 269.88C466.08 269.77 466.52 270 466.64 270.4C466.77 270.78 466.56 271.17 466.18 271.3ZM471.12 269.28C470.77 269.4 470.37 269.27 470.17 268.96C469.94 268.61 470.06 268.15 470.43 267.95C472.1 267.01 473.66 265.83 475.06 264.45C475.36 264.16 475.85 264.15 476.16 264.44C476.47 264.73 476.49 265.2 476.19 265.49C474.69 266.97 473.02 268.22 471.23 269.23C471.21 269.25 471.16 269.27 471.12 269.28ZM454.88 270.25C454.66 270.33 454.41 270.31 454.19 270.18C452.72 269.3 451.61 268.14 450.9 266.72C450.81 266.53 450.72 266.34 450.64 266.15C450.49 265.78 450.37 265.38 450.28 264.99C450.19 264.59 450.45 264.2 450.88 264.12C451.3 264.04 451.72 264.31 451.81 264.71C451.88 265.03 451.98 265.34 452.1 265.65C452.16 265.8 452.23 265.96 452.31 266.11C452.89 267.26 453.79 268.21 455.01 268.93C455.38 269.15 455.5 269.61 455.27 269.95C455.17 270.1 455.04 270.2 454.88 270.25ZM479.21 261.64C478.99 261.72 478.73 261.7 478.52 261.57C478.15 261.35 478.04 260.89 478.26 260.55C479.3 258.96 480.17 257.24 480.85 255.43C480.99 255.05 481.44 254.85 481.85 255C482.26 255.14 482.47 255.57 482.33 255.95C481.62 257.86 480.7 259.68 479.6 261.36C479.5 261.48 479.36 261.58 479.21 261.64ZM488.7 257.26C488.42 257.36 488.09 257.29 487.86 257.07C486.56 255.79 484.9 254.76 482.94 253.99C482.54 253.83 482.34 253.4 482.5 253.02C482.66 252.64 483.11 252.46 483.51 252.62C485.68 253.46 487.52 254.62 488.97 256.05C489.27 256.35 489.27 256.82 488.96 257.1C488.89 257.18 488.8 257.23 488.7 257.26ZM483.18 251.4C483.06 251.44 482.92 251.46 482.78 251.43C482.35 251.36 482.06 250.97 482.13 250.57C482.44 248.66 482.54 246.74 482.41 244.86C482.38 244.45 482.71 244.1 483.14 244.09C483.57 244.07 483.94 244.39 483.97 244.8C484.11 246.79 484.01 248.82 483.68 250.83C483.63 251.1 483.43 251.31 483.18 251.4ZM478.25 252.67C478.13 252.71 478 252.73 477.87 252.7C476.02 252.43 473.98 252.31 471.8 252.34C471.37 252.35 471.01 252.02 470.99 251.61C470.97 251.2 471.31 250.86 471.74 250.86C474 250.82 476.13 250.95 478.08 251.24C478.51 251.3 478.81 251.68 478.75 252.09C478.7 252.36 478.51 252.58 478.25 252.67ZM451.94 260.52C451.76 260.58 451.55 260.58 451.36 260.5C450.96 260.33 450.78 259.89 450.94 259.52C451.76 257.69 453.13 256.04 454.79 254.86L454.99 254.72C455.34 254.49 455.83 254.56 456.08 254.9C456.34 255.23 456.26 255.7 455.92 255.93L455.74 256.06C454.29 257.09 453.09 258.53 452.38 260.13C452.3 260.32 452.14 260.45 451.94 260.52ZM466.64 252.67C466.59 252.69 466.53 252.7 466.47 252.71C464.08 252.98 462.2 253.33 460.55 253.82C460.14 253.94 459.7 253.72 459.56 253.33C459.42 252.94 459.64 252.51 460.05 252.4C461.8 251.88 463.77 251.51 466.25 251.24C466.68 251.19 467.07 251.48 467.13 251.89C467.18 252.23 466.97 252.55 466.64 252.67ZM482.56 240.43C482.54 240.44 482.51 240.45 482.49 240.45C482.07 240.55 481.64 240.31 481.53 239.92C481.34 239.26 481.11 238.6 480.85 237.97C480.39 236.82 479.82 235.7 479.16 234.66C478.94 234.31 479.06 233.85 479.43 233.65C479.8 233.44 480.28 233.57 480.5 233.92C481.2 235.04 481.81 236.23 482.31 237.47C482.58 238.15 482.83 238.85 483.04 239.55C483.14 239.92 482.93 240.3 482.56 240.43ZM446.37 244.81C446.36 244.81 446.35 244.82 446.35 244.82C444.19 245.49 442.01 245.85 440.03 245.84C439.6 245.84 439.24 245.51 439.23 245.1C439.22 244.69 439.57 244.36 440 244.36C441.81 244.36 443.83 244.03 445.84 243.41C446.25 243.28 446.69 243.5 446.83 243.89C446.96 244.26 446.76 244.67 446.37 244.81ZM451.3 242.75C450.94 242.87 450.52 242.73 450.33 242.39C450.12 242.03 450.26 241.58 450.64 241.39C452.41 240.51 454.14 239.5 455.79 238.38C456.14 238.14 456.63 238.23 456.88 238.56C457.13 238.9 457.06 239.36 456.71 239.59C455.01 240.74 453.22 241.79 451.39 242.7C451.36 242.72 451.33 242.74 451.3 242.75ZM460.73 236.5C460.44 236.6 460.1 236.53 459.87 236.29C459.58 235.98 459.6 235.51 459.92 235.24C461.4 233.98 462.83 232.6 464.17 231.15C464.45 230.84 464.94 230.82 465.27 231.09C465.6 231.36 465.63 231.83 465.35 232.14C463.97 233.63 462.5 235.05 460.97 236.35C460.9 236.42 460.82 236.47 460.73 236.5ZM476.8 230.85C476.52 230.95 476.18 230.88 475.96 230.66C474.59 229.29 473.02 228.05 471.29 226.98C470.92 226.75 470.82 226.29 471.05 225.95C471.28 225.61 471.76 225.51 472.13 225.74C473.96 226.87 475.63 228.19 477.09 229.65C477.39 229.95 477.38 230.42 477.07 230.7C476.98 230.76 476.89 230.82 476.8 230.85ZM435.03 244.64C434.83 244.71 434.59 244.7 434.38 244.59C433.25 243.99 432.3 243.19 431.55 242.19C431.14 241.64 430.8 241.05 430.56 240.43C430.44 240.14 430.34 239.84 430.26 239.54C430.16 239.14 430.4 238.74 430.83 238.65C431.25 238.56 431.67 238.81 431.78 239.21C431.84 239.45 431.92 239.69 432.02 239.93C432.22 240.43 432.49 240.9 432.82 241.35C433.43 242.16 434.2 242.81 435.12 243.3C435.5 243.5 435.64 243.95 435.44 244.31C435.35 244.47 435.2 244.58 435.03 244.64ZM468.38 228.35C468.15 228.43 467.87 228.4 467.65 228.25C467.3 228.01 467.21 227.54 467.46 227.21C468.62 225.67 469.71 224.03 470.71 222.34C470.92 221.99 471.39 221.87 471.77 222.07C472.15 222.28 472.28 222.73 472.08 223.08C471.06 224.81 469.94 226.49 468.75 228.08C468.64 228.21 468.52 228.3 468.38 228.35ZM467.14 224.64C466.96 224.7 466.76 224.7 466.57 224.63C464.71 223.9 462.75 223.34 460.75 222.97C460.33 222.89 460.04 222.5 460.12 222.1C460.19 221.7 460.6 221.44 461.03 221.52C463.14 221.92 465.2 222.5 467.15 223.27C467.55 223.43 467.75 223.86 467.59 224.24C467.5 224.43 467.34 224.57 467.14 224.64ZM431.67 235C431.51 235.06 431.32 235.06 431.14 235C430.73 234.86 430.51 234.43 430.65 234.05C431.3 232.24 432.44 230.44 433.93 228.82C434.21 228.52 434.7 228.49 435.03 228.76C435.36 229.03 435.39 229.5 435.11 229.81C433.75 231.29 432.72 232.93 432.13 234.56C432.05 234.77 431.88 234.93 431.67 235ZM474.08 218.84C473.89 218.9 473.68 218.9 473.48 218.82C473.09 218.65 472.91 218.21 473.08 217.83C473.9 216.08 474.64 214.27 475.27 212.44C475.4 212.05 475.84 211.85 476.25 211.98C476.66 212.12 476.88 212.54 476.75 212.92C476.1 214.8 475.35 216.66 474.51 218.45C474.43 218.64 474.27 218.78 474.08 218.84ZM455.76 222.36C455.67 222.39 455.57 222.41 455.47 222.4C453.44 222.35 451.41 222.48 449.45 222.8C449.03 222.87 448.62 222.6 448.54 222.19C448.46 221.79 448.74 221.4 449.16 221.33C451.22 221 453.35 220.86 455.49 220.91C455.92 220.92 456.27 221.26 456.27 221.67C456.26 222 456.05 222.26 455.76 222.36ZM438.87 226.7C438.54 226.81 438.15 226.7 437.94 226.41C437.7 226.07 437.79 225.61 438.15 225.38C439.88 224.29 441.78 223.39 443.8 222.68C444.2 222.54 444.65 222.74 444.81 223.12C444.97 223.5 444.77 223.93 444.36 224.07C442.45 224.73 440.66 225.59 439.03 226.62C438.98 226.65 438.93 226.68 438.87 226.7ZM477.75 208.44C477.61 208.49 477.45 208.5 477.29 208.46C476.87 208.36 476.61 207.96 476.71 207.56C477.17 205.68 477.53 203.76 477.79 201.85C477.84 201.44 478.23 201.17 478.66 201.22C479.09 201.28 479.39 201.66 479.34 202.06C479.08 204.01 478.71 205.98 478.24 207.91C478.17 208.17 477.99 208.36 477.75 208.44ZM479.28 197.53C479.18 197.56 479.08 197.58 478.97 197.57C478.54 197.55 478.2 197.2 478.22 196.79C478.29 194.88 478.27 192.92 478.16 190.96C478.14 190.55 478.47 190.21 478.9 190.19C479.33 190.18 479.7 190.5 479.72 190.91C479.84 192.91 479.86 194.91 479.78 196.87C479.76 197.18 479.56 197.43 479.28 197.53ZM478.71 186.49C478.65 186.51 478.59 186.52 478.53 186.53C478.1 186.58 477.71 186.28 477.65 185.87C477.39 183.97 477.03 182.03 476.59 180.1C476.5 179.7 476.77 179.31 477.19 179.23C477.61 179.15 478.03 179.41 478.12 179.82C478.57 181.78 478.93 183.76 479.2 185.71C479.25 186.06 479.04 186.38 478.71 186.49ZM476.31 175.64C476.29 175.65 476.27 175.65 476.25 175.66C475.84 175.77 475.4 175.53 475.28 175.14C474.72 173.29 474.07 171.41 473.35 169.56C473.2 169.18 473.4 168.76 473.8 168.62H473.81C474.21 168.49 474.66 168.69 474.81 169.08C475.54 170.97 476.21 172.88 476.78 174.77C476.89 175.12 476.68 175.51 476.31 175.64ZM472.3 165.19C471.91 165.32 471.47 165.14 471.31 164.78C470.49 163.01 469.59 161.22 468.63 159.46C468.43 159.09 468.58 158.65 468.96 158.47C469.34 158.28 469.82 158.44 470.01 158.8C470.99 160.59 471.9 162.4 472.73 164.21C472.9 164.59 472.73 165.02 472.33 165.18C472.33 165.18 472.32 165.18 472.3 165.19ZM466.95 155.27C466.6 155.39 466.2 155.26 466 154.94C464.96 153.26 463.84 151.58 462.68 149.95C462.44 149.61 462.53 149.15 462.89 148.92C463.24 148.7 463.73 148.79 463.98 149.14C465.16 150.8 466.29 152.51 467.35 154.21C467.57 154.57 467.45 155.02 467.08 155.22C467.03 155.24 466.99 155.26 466.95 155.27ZM460.43 145.99C460.11 146.1 459.74 146 459.53 145.73C459.34 145.48 459.14 145.24 458.94 145C457.88 143.69 456.78 142.37 455.66 141.1C455.38 140.78 455.42 140.32 455.75 140.06C456.08 139.8 456.57 139.85 456.85 140.17C457.98 141.46 459.1 142.79 460.18 144.12C460.38 144.37 460.58 144.62 460.77 144.87C461.03 145.2 460.97 145.66 460.62 145.91C460.56 145.94 460.5 145.97 460.43 145.99ZM452.93 137.39C452.64 137.49 452.3 137.42 452.08 137.18C450.71 135.75 449.26 134.3 447.78 132.89C447.47 132.6 447.47 132.13 447.77 131.84C448.07 131.55 448.57 131.56 448.87 131.85C450.37 133.28 451.83 134.74 453.22 136.19C453.51 136.5 453.49 136.96 453.18 137.24C453.1 137.32 453.02 137.36 452.93 137.39ZM444.66 129.45C444.39 129.54 444.08 129.49 443.85 129.29C442.36 127.96 440.8 126.63 439.21 125.32C438.88 125.05 438.84 124.58 439.12 124.27C439.4 123.96 439.89 123.93 440.22 124.21C441.82 125.53 443.39 126.88 444.9 128.22C445.22 128.5 445.24 128.97 444.95 129.27C444.87 129.35 444.77 129.41 444.66 129.45ZM435.8 122.1C435.55 122.19 435.26 122.15 435.03 121.97C433.46 120.75 431.82 119.51 430.13 118.28C429.79 118.03 429.72 117.56 429.97 117.24C430.23 116.92 430.72 116.86 431.06 117.11C432.75 118.35 434.41 119.6 435.99 120.83C436.33 121.09 436.38 121.56 436.11 121.87C436.04 121.98 435.93 122.05 435.8 122.1ZM426.5 115.26C426.26 115.34 425.99 115.31 425.76 115.16C424.12 114.02 422.41 112.85 420.68 111.7C420.32 111.46 420.23 111 420.47 110.67C420.71 110.34 421.2 110.26 421.56 110.49C423.3 111.65 425.02 112.82 426.67 113.97C427.02 114.21 427.1 114.68 426.85 115.01C426.77 115.13 426.64 115.21 426.5 115.26Z" fill="#D2D9DC"/>
<path d="M461.06 322.01C460.79 322.1 460.48 322.05 460.26 321.85C459.94 321.57 459.91 321.1 460.2 320.8C460.89 320.08 461.58 319.36 462.25 318.62C462.53 318.31 463.02 318.29 463.35 318.56C463.68 318.83 463.71 319.3 463.43 319.61C462.75 320.35 462.06 321.08 461.36 321.81C461.28 321.91 461.18 321.97 461.06 322.01Z" fill="#D2D9DC"/>
<path d="M254.38 244.94L281.62 210.86L288.98 233.87L254.38 244.94Z" fill="#FFDD33"/>
<path d="M247.02 221.93L254.38 244.94L288.98 233.87L247.02 221.93Z" fill="#FFDD33"/>
<path d="M247.02 221.93L259.09 200.04L281.62 210.86L268 227.9L247.02 221.93Z" fill="#FFDD33"/>
<path opacity="0.19" d="M247.02 221.93L254.38 244.94L288.98 233.87L247.02 221.93Z" fill="#2D2F31"/>
<path opacity="0.19" d="M247.02 221.93L259.09 200.04L281.62 210.86L268 227.9L247.02 221.93Z" fill="#2D2F31"/>
<path d="M278.42 205.83L280.48 212.28L268 227.9L249.22 222.56L244.85 208.9L269.61 200.99L278.42 205.83Z" fill="#D2D9DC"/>
<path d="M278.42 205.83L272.99 207.57C272.35 207.77 271.67 207.42 271.46 206.78L269.61 200.99L278.42 205.83Z" fill="#839299"/>
<path d="M268.91 206.22L251.52 211.78C251.35 211.83 251.17 211.74 251.12 211.57C251.07 211.4 251.16 211.22 251.33 211.17L268.72 205.61C268.89 205.56 269.07 205.65 269.12 205.82C269.17 205.99 269.07 206.17 268.91 206.22Z" fill="#54CC5A"/>
<path d="M269.77 208.93L250.53 215.08C250.36 215.13 250.18 215.04 250.13 214.87C250.08 214.7 250.17 214.52 250.34 214.47L269.58 208.32C269.75 208.27 269.93 208.36 269.98 208.53C270.03 208.7 269.94 208.88 269.77 208.93Z" fill="#54CC5A"/>
<path d="M270.64 211.66L251.4 217.81C251.23 217.86 251.05 217.77 251 217.6C250.95 217.43 251.04 217.25 251.21 217.2L270.45 211.05C270.62 211 270.8 211.09 270.85 211.26C270.9 211.42 270.81 211.6 270.64 211.66Z" fill="#54CC5A"/>
<path d="M274.56 212.1L251.9 219.35C251.73 219.4 251.55 219.31 251.5 219.14C251.45 218.97 251.54 218.79 251.71 218.74L274.37 211.49C274.54 211.44 274.72 211.53 274.77 211.7C274.82 211.86 274.73 212.04 274.56 212.1Z" fill="#54CC5A"/>
<path d="M275.05 213.63L252.39 220.88C252.22 220.93 252.04 220.84 251.99 220.67C251.94 220.5 252.03 220.32 252.2 220.27L274.86 213.02C275.03 212.97 275.21 213.06 275.26 213.23C275.31 213.4 275.22 213.58 275.05 213.63Z" fill="#54CC5A"/>
<path d="M275.54 215.17L252.88 222.42C252.71 222.47 252.53 222.38 252.48 222.21C252.43 222.04 252.52 221.86 252.69 221.81L275.35 214.56C275.52 214.51 275.7 214.6 275.75 214.77C275.8 214.94 275.71 215.12 275.54 215.17Z" fill="#54CC5A"/>
<path d="M270.21 210.29L250.97 216.44C250.8 216.49 250.62 216.4 250.57 216.23C250.52 216.06 250.61 215.88 250.78 215.83L270.02 209.68C270.19 209.63 270.37 209.72 270.42 209.89C270.47 210.06 270.38 210.24 270.21 210.29Z" fill="#54CC5A"/>
<path d="M410.815 177.066L365.092 153.391L341.417 199.114L387.14 222.789L410.815 177.066Z" fill="#FFDD33"/>
<path d="M375.92 178.19C374.39 181.15 370.75 182.3 367.8 180.77C364.84 179.24 363.69 175.6 365.22 172.65C366.75 169.69 370.39 168.54 373.34 170.07C376.29 171.6 377.45 175.24 375.92 178.19Z" fill="#FA9300"/>
<path d="M370.48 204.27L350.89 194.13L365.75 189.41L370.48 204.27Z" fill="#FA9300"/>
<path d="M385.53 212.06L360.3 199L380.71 190.47L385.53 212.06Z" fill="#FA9300"/>
<path d="M366.15 116.46C367.37 119.4 365.96 122.8 363.02 124.02L343.42 132.13C340.48 133.35 337.08 131.94 335.86 129L316.69 82.6601C315.47 79.7201 316.88 76.3201 319.83 75.1001L339.43 66.9901C342.37 65.7701 345.77 67.1801 346.99 70.1201L366.15 116.46Z" fill="#002548"/>
<path d="M345.047 70.1498L318.066 81.313L336.952 126.959L363.932 115.795L345.047 70.1498Z" fill="#F9FAFB"/>
<path d="M335.23 71.5698C335.4 71.9798 335.2 72.4498 334.79 72.6198L327.07 75.8098C326.66 75.9798 326.19 75.7898 326.02 75.3798C325.85 74.9698 326.04 74.4998 326.46 74.3298L334.18 71.1398C334.59 70.9698 335.06 71.1598 335.23 71.5698Z" fill="#839299"/>
<path d="M352.45 126.22C351.51 126.61 350.42 126.16 350.03 125.22C349.64 124.28 350.09 123.19 351.03 122.8C351.97 122.41 353.06 122.86 353.45 123.8C353.84 124.75 353.4 125.83 352.45 126.22Z" fill="#839299"/>
<path d="M337.94 89.9302C333.37 91.8202 330.8 96.1102 332.21 99.5202C333.12 101.73 335.48 103.01 338.27 103.13L337.61 108.03L341.69 102.72C342.14 102.59 342.59 102.45 343.03 102.26C347.6 100.37 350.16 96.0802 348.75 92.6702C347.35 89.2602 342.5 88.0402 337.94 89.9302Z" fill="#ED1C24"/>
<path d="M337.79 97.37C338.09 98.11 337.74 98.95 337.01 99.26C336.27 99.57 335.43 99.21 335.12 98.48C334.82 97.74 335.17 96.9 335.9 96.59C336.64 96.28 337.49 96.63 337.79 97.37Z" fill="#F9FAFB"/>
<path d="M341.88 95.6801C342.18 96.4201 341.83 97.2601 341.1 97.5701C340.36 97.8801 339.52 97.5201 339.21 96.7901C338.91 96.0501 339.25 95.2101 339.99 94.9001C340.73 94.5901 341.57 94.9401 341.88 95.6801Z" fill="#F9FAFB"/>
<path d="M345.96 93.9901C346.26 94.7301 345.91 95.5701 345.18 95.8801C344.44 96.1801 343.6 95.8301 343.29 95.1001C342.99 94.3601 343.33 93.5201 344.07 93.2101C344.81 92.9001 345.66 93.2501 345.96 93.9901Z" fill="#F9FAFB"/>
<path d="M456.1 340.41C456.51 341.57 455.9 342.85 454.74 343.25L418.23 356.12C417.07 356.53 415.79 355.91 415.39 354.76L397.34 303.56C396.93 302.4 397.54 301.12 398.7 300.72L435.21 287.85C436.37 287.44 437.64 288.06 438.05 289.21L456.1 340.41Z" fill="#D2D9DC"/>
<path d="M402.05 305.86C402.25 306.43 401.95 307.05 401.39 307.25L397.76 308.53C397.19 308.73 396.57 308.43 396.37 307.87C396.17 307.3 396.47 306.68 397.03 306.48L400.66 305.2C401.23 305 401.85 305.3 402.05 305.86Z" fill="#0054A6"/>
<path d="M403.61 310.29C403.81 310.86 403.51 311.48 402.95 311.68L399.32 312.96C398.75 313.16 398.13 312.86 397.93 312.3C397.73 311.73 398.03 311.11 398.59 310.91L402.22 309.63C402.79 309.43 403.42 309.73 403.61 310.29Z" fill="#0054A6"/>
<path d="M405.17 314.72C405.37 315.29 405.07 315.91 404.51 316.11L400.88 317.39C400.31 317.59 399.69 317.29 399.49 316.73C399.29 316.16 399.59 315.54 400.15 315.34L403.78 314.06C404.36 313.86 404.98 314.15 405.17 314.72Z" fill="#0054A6"/>
<path d="M406.74 319.15C406.94 319.72 406.64 320.34 406.08 320.54L402.45 321.82C401.88 322.02 401.26 321.72 401.06 321.16C400.86 320.59 401.16 319.97 401.72 319.77L405.35 318.49C405.92 318.28 406.54 318.58 406.74 319.15Z" fill="#0054A6"/>
<path d="M408.3 323.57C408.5 324.14 408.2 324.76 407.64 324.96L404.01 326.24C403.44 326.44 402.82 326.14 402.62 325.58C402.42 325.01 402.72 324.39 403.28 324.19L406.91 322.91C407.48 322.71 408.1 323.01 408.3 323.57Z" fill="#0054A6"/>
<path d="M409.86 328C410.06 328.57 409.76 329.19 409.2 329.39L405.57 330.67C405 330.87 404.38 330.57 404.18 330.01C403.98 329.44 404.28 328.82 404.84 328.62L408.47 327.34C409.04 327.14 409.66 327.44 409.86 328Z" fill="#0054A6"/>
<path d="M411.42 332.43C411.62 333 411.32 333.62 410.76 333.82L407.13 335.1C406.56 335.3 405.94 335 405.74 334.44C405.54 333.87 405.84 333.25 406.4 333.05L410.03 331.77C410.6 331.57 411.22 331.86 411.42 332.43Z" fill="#0054A6"/>
<path d="M412.98 336.86C413.18 337.43 412.88 338.05 412.32 338.25L408.69 339.53C408.12 339.73 407.5 339.43 407.3 338.87C407.1 338.3 407.4 337.68 407.96 337.48L411.59 336.2C412.16 335.99 412.78 336.29 412.98 336.86Z" fill="#0054A6"/>
<path d="M414.54 341.28C414.74 341.85 414.44 342.47 413.88 342.67L410.25 343.95C409.68 344.15 409.06 343.85 408.86 343.29C408.66 342.72 408.96 342.1 409.52 341.9L413.15 340.62C413.72 340.42 414.34 340.72 414.54 341.28Z" fill="#0054A6"/>
<path d="M416.099 345.71C416.299 346.28 415.999 346.9 415.439 347.1L411.809 348.38C411.239 348.58 410.619 348.28 410.419 347.72C410.219 347.15 410.519 346.53 411.079 346.33L414.709 345.05C415.279 344.85 415.899 345.14 416.099 345.71Z" fill="#0054A6"/>
<path d="M417.66 350.14C417.86 350.71 417.56 351.33 417 351.53L413.37 352.81C412.8 353.01 412.18 352.71 411.98 352.15C411.78 351.58 412.08 350.96 412.64 350.76L416.27 349.48C416.84 349.27 417.46 349.57 417.66 350.14Z" fill="#0054A6"/>
<path d="M443.324 295.172L440.495 296.169L443.759 305.43L446.589 304.433L443.324 295.172Z" fill="#0054A6"/>
<path d="M446.443 304.022L443.613 305.019L446.877 314.28L449.707 313.283L446.443 304.022Z" fill="#ED1C24"/>
<path d="M449.565 312.881L446.735 313.878L450 323.14L452.829 322.142L449.565 312.881Z" fill="#0054A6"/>
<path d="M452.683 321.731L449.854 322.729L453.118 331.99L455.947 330.993L452.683 321.731Z" fill="#0054A6"/>
<path d="M432.69 335.58C425.56 338.09 417.71 334.341 415.19 327.201C412.68 320.071 416.43 312.221 423.57 309.701C430.7 307.191 438.55 310.95 441.07 318.08C443.59 325.21 439.83 333.06 432.69 335.58ZM424.23 311.55C418.12 313.7 414.9 320.431 417.05 326.541C419.2 332.651 425.93 335.871 432.04 333.721C438.15 331.571 441.37 324.841 439.22 318.731C437.06 312.621 430.34 309.4 424.23 311.55Z" fill="#54CC5A"/>
<path d="M435.2 323.71C434.21 323.16 432.88 322.98 432.71 323.32C432.71 323.32 431.66 324.64 432.18 325.69C432.18 325.69 430.6 326.48 427.2 324.7C423.8 322.91 423.36 321.7 423.36 321.7C423.36 321.7 424.24 321.39 424.61 320.04C424.83 319.48 424.24 318.65 423.27 318.08C422.3 317.51 421.01 317.27 420.83 317.61C420.83 317.61 419.3 319.44 419.63 320.51C419.96 321.57 421.17 323.98 425.17 326.25C429.17 328.52 433 328.62 434.37 328.31C435.74 328 436.27 327.23 436.76 325.58C436.93 324.74 436.19 324.26 435.2 323.71Z" fill="#F9FAFB"/>
<path d="M178.04 190.02C180.22 188.76 180.65 188.52 180.71 188.48L180.7 188.46C180.74 188.45 180.78 188.44 180.82 188.42C181.11 188.26 181.2 187.89 181.04 187.61L174.81 176.82C174.65 176.54 174.28 176.44 174 176.61C174 176.61 170.28 178.32 167.95 180.46C165.11 183.07 164.31 186.62 164.71 189.97C165.22 194.24 171.11 203.91 171.11 203.91C171.11 203.91 176.53 213.84 179.98 216.42C182.69 218.44 186.16 219.52 189.84 218.37C192.86 217.42 196.2 215.06 196.2 215.06C196.49 214.9 196.58 214.53 196.42 214.25L190.19 203.46C190.03 203.18 189.66 203.08 189.38 203.25C189.34 203.27 189.32 203.3 189.29 203.33L189.28 203.31C189.21 203.35 188.79 203.59 186.6 204.85C183.31 206.75 183.77 208.02 183.77 208.02C182.49 207.24 178.36 199.74 178.36 199.74C178.36 199.74 173.93 192.41 173.89 190.91C173.88 190.89 174.75 191.92 178.04 190.02Z" fill="#D2D9DC"/>
<path d="M171.27 178.06L178.14 189.96C178.64 189.67 179.05 189.44 179.38 189.25L172.51 177.36C172.13 177.55 171.72 177.79 171.27 178.06Z" fill="#0054A6"/>
<path d="M176.43 190.8C176.63 190.72 176.85 190.62 177.09 190.51L170.26 178.68C170.06 178.81 169.87 178.94 169.67 179.08L176.43 190.8Z" fill="#0054A6"/>
<path d="M193.57 216.68L186.7 204.78C187.2 204.49 187.61 204.25 187.94 204.07L194.81 215.96C194.43 216.18 194.02 216.42 193.57 216.68Z" fill="#0054A6"/>
<path d="M185.11 205.83C185.28 205.69 185.48 205.55 185.69 205.4L192.52 217.23C192.31 217.34 192.1 217.44 191.88 217.54L185.11 205.83Z" fill="#0054A6"/>
<path d="M192.709 199.4C192.509 199.05 192.399 198.63 192.429 198.19C192.769 193.59 190.299 189.32 186.149 187.31C185.099 186.81 184.659 185.54 185.169 184.49C185.679 183.44 186.939 183 187.989 183.51C193.709 186.28 197.109 192.16 196.639 198.5C196.549 199.67 195.539 200.54 194.379 200.45C193.659 200.4 193.039 199.99 192.709 199.4Z" fill="#ED1C24"/>
<path d="M200.36 199.86C200.15 199.51 200.05 199.09 200.08 198.65C200.64 190.95 196.52 183.81 189.58 180.45C188.53 179.95 188.09 178.68 188.6 177.63C189.11 176.58 190.37 176.14 191.42 176.65C199.94 180.77 204.99 189.52 204.3 198.95C204.21 200.11 203.2 200.99 202.04 200.9C201.31 200.86 200.7 200.45 200.36 199.86Z" fill="#ED1C24"/>
<path d="M208.01 200.32C207.8 199.96 207.7 199.55 207.73 199.11C208.52 188.32 202.74 178.31 193 173.6C191.95 173.1 191.51 171.83 192.02 170.78C192.53 169.73 193.79 169.29 194.84 169.8C206.15 175.27 212.86 186.89 211.94 199.42C211.85 200.58 210.84 201.46 209.68 201.37C208.96 201.32 208.35 200.91 208.01 200.32Z" fill="#ED1C24"/>
<path d="M293.51 267.93C293.42 268.24 293.09 268.42 292.78 268.33L290.44 267.64C290.13 267.55 289.95 267.22 290.04 266.91L292.21 259.55C292.3 259.24 292.63 259.06 292.94 259.15L295.28 259.84C295.59 259.93 295.77 260.26 295.68 260.57L293.51 267.93Z" fill="url(#paint0_linear_4385_6113)"/>
<path d="M292.19 260.12C290.95 259.75 289.52 260.87 289.01 262.61C288.5 264.35 289.09 266.06 290.33 266.43L292.19 260.12Z" fill="#ED1C24"/>
<path d="M309.12 265.1C310.36 265.47 310.96 267.18 310.44 268.92C309.93 270.66 308.5 271.78 307.26 271.41L309.12 265.1Z" fill="#ED1C24"/>
<path d="M303.11 254.26C298.55 252.92 294.81 255.54 293.13 261.27L293.97 261.52C294.71 259.02 297.05 253.39 302.86 255.11C308.67 256.83 307.59 262.82 306.86 265.32L307.7 265.57C309.39 259.83 307.68 255.6 303.11 254.26Z" fill="#D2D9DC"/>
<path d="M299.02 275.83L299.27 274.99C301.38 275.61 302.69 275.72 303.39 275.34C303.91 275.05 304.17 274.46 304.45 273.47C304.64 272.81 305.23 270.83 305.23 270.83L306.07 271.08C306.07 271.08 305.48 273.05 305.29 273.71C305.01 274.7 304.68 275.63 303.81 276.11C302.88 276.62 301.44 276.54 299.02 275.83Z" fill="#D2D9DC"/>
<path d="M293.51 267.93C293.42 268.24 293.09 268.42 292.78 268.33L290.44 267.64C290.13 267.55 289.95 267.22 290.04 266.91L292.21 259.55C292.3 259.24 292.63 259.06 292.94 259.15L295.28 259.84C295.59 259.93 295.77 260.26 295.68 260.57L293.51 267.93Z" fill="#0054A6"/>
<path d="M302.17 276.51C302.12 276.83 301.81 277.04 301.49 276.99L298.89 276.55C298.57 276.5 298.35 276.19 298.41 275.87L298.56 275C298.61 274.68 298.92 274.46 299.24 274.52L301.84 274.96C302.16 275.01 302.37 275.32 302.32 275.64L302.17 276.51Z" fill="#ED1C24"/>
<path d="M303.77 270.95C303.68 271.26 303.86 271.59 304.17 271.68L306.51 272.37C306.82 272.46 307.15 272.28 307.24 271.97L309.41 264.61C309.5 264.3 309.32 263.97 309.01 263.88L306.67 263.19C306.36 263.1 306.03 263.28 305.94 263.59L303.77 270.95Z" fill="#0054A6"/>
<path d="M283 178.31C282.84 179.38 281.88 180.13 280.87 179.97L239.48 173.63C238.47 173.48 237.78 172.48 237.95 171.41L246.61 114.88C246.77 113.81 247.73 113.06 248.74 113.22L290.13 119.56C291.14 119.71 291.82 120.71 291.66 121.78L283 178.31Z" fill="#D2D9DC"/>
<path opacity="0.19" d="M248.246 117.577L240.662 167.061L281.734 173.356L289.318 123.872L248.246 117.577Z" fill="#2D2F31"/>
<path d="M249.098 118.738L241.823 166.206L280.879 172.192L288.154 124.724L249.098 118.738Z" fill="#002548"/>
<path d="M249.097 118.733L248.152 124.901L287.207 130.887L288.153 124.719L249.097 118.733Z" fill="#F9FAFB"/>
<path d="M262.67 174.8C262.58 175.36 262.06 175.74 261.51 175.65L259.24 175.3C258.69 175.22 258.3 174.69 258.39 174.14L258.74 171.87C258.83 171.32 259.35 170.93 259.9 171.02L262.17 171.37C262.72 171.45 263.11 171.98 263.03 172.53L262.67 174.8Z" fill="#F9FAFB"/>
<path d="M274.62 120.05C274.57 120.36 274.28 120.57 273.97 120.53L263.85 118.98C263.54 118.93 263.33 118.64 263.37 118.33C263.42 118.02 263.71 117.81 264.02 117.86L274.14 119.41C274.45 119.45 274.67 119.74 274.62 120.05Z" fill="#839299"/>
<path d="M248.374 139.607L247.756 143.64L281.968 148.884L282.586 144.85L248.374 139.607Z" fill="#ED1C24"/>
<path d="M247.042 148.301L246.733 150.317L262.53 152.738L262.839 150.722L247.042 148.301Z" fill="#ED1C24"/>
<path d="M246.46 152.061L246.151 154.077L261.947 156.498L262.256 154.482L246.46 152.061Z" fill="#ED1C24"/>
<path d="M245.884 155.815L245.575 157.832L261.371 160.253L261.68 158.236L245.884 155.815Z" fill="#ED1C24"/>
<path d="M245.309 159.578L245 161.595L260.796 164.016L261.105 161.999L245.309 159.578Z" fill="#ED1C24"/>
<path d="M253.73 122.61C253.62 123.35 252.92 123.86 252.17 123.75C251.43 123.64 250.92 122.94 251.03 122.2C251.14 121.45 251.84 120.94 252.58 121.06C253.33 121.17 253.84 121.87 253.73 122.61Z" fill="#ED1C24"/>
<path d="M257.52 123.2C257.41 123.94 256.71 124.45 255.97 124.34C255.23 124.23 254.72 123.53 254.83 122.79C254.94 122.04 255.64 121.53 256.38 121.65C257.13 121.75 257.64 122.45 257.52 123.2Z" fill="#FFDD33"/>
<path d="M261.32 123.78C261.21 124.52 260.51 125.03 259.77 124.92C259.03 124.81 258.52 124.11 258.63 123.37C258.74 122.62 259.44 122.11 260.18 122.23C260.92 122.34 261.43 123.03 261.32 123.78Z" fill="#54CC5A"/>
<path d="M250.15 128.017L248.791 136.884L257.737 138.255L259.096 129.388L250.15 128.017Z" fill="#0054A6"/>
<path d="M262.79 129.961L261.431 138.828L270.367 140.197L271.726 131.33L262.79 129.961Z" fill="#0054A6"/>
<path d="M265.879 151.182L263.857 164.379L279.228 166.735L281.251 153.538L265.879 151.182Z" fill="#0054A6"/>
<path d="M275.419 131.89L274.06 140.757L283.006 142.128L284.365 133.261L275.419 131.89Z" fill="#0054A6"/>
<path d="M153.49 279.21C161.48 279.21 167.96 284.04 167.96 290C167.96 293.86 165.23 297.24 161.14 299.14L165.15 306.05L155.78 300.64C155.03 300.73 154.27 300.79 153.49 300.79C145.5 300.79 139.02 295.96 139.02 290C139.02 284.04 145.5 279.21 153.49 279.21Z" fill="#D2D9DC"/>
<path d="M158.07 289.991C158.07 291.221 159.07 292.211 160.29 292.211C161.52 292.211 162.51 291.221 162.51 289.991C162.51 288.761 161.51 287.771 160.29 287.771C159.06 287.771 158.07 288.771 158.07 289.991Z" fill="#0054A6"/>
<path d="M151.27 289.991C151.27 291.221 152.27 292.211 153.49 292.211C154.72 292.211 155.71 291.221 155.71 289.991C155.71 288.761 154.72 287.771 153.49 287.771C152.27 287.771 151.27 288.771 151.27 289.991Z" fill="#0054A6"/>
<path d="M144.47 289.991C144.47 291.221 145.46 292.211 146.69 292.211C147.92 292.211 148.91 291.221 148.91 289.991C148.91 288.761 147.92 287.771 146.69 287.771C145.46 287.771 144.47 288.771 144.47 289.991Z" fill="#0054A6"/>
<path d="M195 266.78C187.01 266.78 180.53 271.61 180.53 277.57C180.53 281.43 183.26 284.81 187.35 286.71L183.34 293.62L192.71 288.21C193.46 288.3 194.22 288.36 195 288.36C202.99 288.36 209.47 283.53 209.47 277.57C209.47 271.6 202.99 266.78 195 266.78Z" fill="#D2D9DC"/>
<path d="M190.42 277.56C190.42 278.79 189.42 279.78 188.2 279.78C186.97 279.78 185.98 278.79 185.98 277.56C185.98 276.33 186.98 275.34 188.2 275.34C189.43 275.34 190.42 276.34 190.42 277.56Z" fill="#0054A6"/>
<path d="M197.22 277.56C197.22 278.79 196.22 279.78 195 279.78C193.77 279.78 192.78 278.79 192.78 277.56C192.78 276.33 193.77 275.34 195 275.34C196.22 275.34 197.22 276.34 197.22 277.56Z" fill="#0054A6"/>
<path d="M204.02 277.56C204.02 278.79 203.03 279.78 201.8 279.78C200.57 279.78 199.58 278.79 199.58 277.56C199.58 276.33 200.57 275.34 201.8 275.34C203.03 275.34 204.02 276.34 204.02 277.56Z" fill="#0054A6"/>
<defs>
<linearGradient id="paint0_linear_4385_6113" x1="294.111" y1="259.511" x2="291.611" y2="267.999" gradientUnits="userSpaceOnUse">
<stop stop-color="#286891"/>
<stop offset="0.01" stop-color="#276790"/>
<stop offset="0.2403" stop-color="#1C5176"/>
<stop offset="0.4781" stop-color="#144264"/>
<stop offset="0.726" stop-color="#103959"/>
<stop offset="1" stop-color="#0E3655"/>
</linearGradient>
</defs>
</svg>
