<svg width="130" height="112" viewBox="0 0 130 112" fill="none" xmlns="http://www.w3.org/2000/svg">
<path d="M71.4607 112C103.791 112 130 110.475 130 108.593C130 106.712 103.791 105.187 71.4607 105.187C39.1303 105.187 12.9214 106.712 12.9214 108.593C12.9214 110.475 39.1303 112 71.4607 112Z" fill="#D2D9DC"/>
<path d="M15.7282 18.7932L13.0397 21.4626C12.9897 21.5061 12.9835 21.587 13.0272 21.6368L15.9811 25.2053C15.6689 25.6066 15.3754 26.0204 15.1006 26.4435L10.6977 24.8724C10.6353 24.8506 10.5634 24.8817 10.5385 24.9439L8.93032 28.3693C8.89909 28.4284 8.92095 28.5031 8.97716 28.5373L13.0022 30.8987C12.8523 31.3747 12.7212 31.86 12.6087 32.3453L7.89986 32.3702C7.83429 32.3702 7.77496 32.4262 7.77496 32.4916L7.43772 36.256C7.42835 36.3214 7.47519 36.3867 7.54076 36.3992L12.1716 37.2547C12.1934 37.7463 12.2371 38.2378 12.2996 38.7263L7.84366 40.369C7.7812 40.3908 7.74686 40.4623 7.76559 40.5245L8.74296 44.177C8.75858 44.2423 8.82103 44.2859 8.88973 44.2766L13.583 43.4926C13.7703 43.9375 13.9764 44.3761 14.1981 44.8086L10.5353 47.9042C10.4854 47.9477 10.476 48.0255 10.5166 48.0784L12.6868 51.1771C12.7212 51.2331 12.7992 51.2518 12.8585 51.2206L17.0459 48.8593C17.3707 49.2108 17.7079 49.5468 18.0545 49.8673C18.0545 49.8704 18.0514 49.8704 18.0483 49.8735L15.647 54.0673C15.6127 54.1265 15.6345 54.2011 15.6907 54.2385L18.7946 56.4131C18.8477 56.4536 18.9258 56.4443 18.9695 56.3945L22.117 52.7233C22.1202 52.7202 22.1202 52.7171 22.1233 52.7109C22.5448 52.9287 22.9758 53.1278 23.4098 53.3082C23.4004 53.3238 23.3911 53.3393 23.3879 53.358L22.5729 58.1181C22.5605 58.1834 22.6073 58.2487 22.6697 58.2643L26.3326 59.2474C26.395 59.2692 26.4668 59.235 26.4918 59.1696L28.1874 54.646C28.1936 54.6273 28.1936 54.6087 28.1936 54.5931C28.6683 54.6553 29.146 54.6958 29.6238 54.7207C29.605 54.7456 29.5957 54.7767 29.6019 54.8109L30.47 59.5616C30.4825 59.627 30.5449 59.6736 30.6105 59.6643L34.392 59.3407C34.4576 59.3376 34.5138 59.2816 34.5138 59.2163L34.5544 54.3878C34.5544 54.3598 34.545 54.338 34.5294 54.3162C35.004 54.2136 35.4724 54.0891 35.9408 53.946C35.922 53.9802 35.9189 54.0238 35.9408 54.0611L38.3858 58.2301C38.4201 58.2861 38.4951 58.3078 38.5544 58.2798L41.9955 56.6869C42.058 56.662 42.0892 56.5905 42.0673 56.5283L40.4498 51.9767C40.4404 51.9455 40.4155 51.9238 40.3905 51.9113C40.6184 51.7682 40.8464 51.6189 41.0681 51.4633C41.2492 51.3389 41.4272 51.2082 41.6021 51.0775C41.5896 51.1211 41.6021 51.1678 41.6395 51.1989L45.3679 54.282C45.4179 54.3256 45.4991 54.3193 45.5428 54.2696L48.2313 51.6002C48.2813 51.5566 48.2875 51.4758 48.2438 51.426L45.1618 47.7019C45.1462 47.6802 45.1212 47.6708 45.0994 47.6646C45.396 47.2819 45.677 46.8899 45.9425 46.4886C45.9518 46.5228 45.9768 46.5508 46.0112 46.5633L50.5733 48.1904C50.6357 48.2122 50.7076 48.1811 50.7325 48.1188L52.3407 44.6966C52.3719 44.6375 52.35 44.5628 52.2938 44.5286L48.1189 42.0801C48.1033 42.0708 48.0877 42.0677 48.069 42.0646C48.2157 41.6134 48.3437 41.1561 48.4562 40.6956C48.4749 40.7112 48.4999 40.7236 48.528 40.7236L53.3742 40.6988C53.4398 40.6988 53.4991 40.6428 53.4991 40.5774L53.8364 36.8129C53.8458 36.7476 53.7989 36.6823 53.7333 36.6698L48.9683 35.7925C48.9651 35.7925 48.962 35.7925 48.9589 35.7925C48.9433 35.3227 48.9089 34.8529 48.859 34.3831C48.8683 34.3831 48.8777 34.3831 48.8871 34.38L53.4305 32.7031C53.4929 32.6813 53.5273 32.6098 53.5085 32.5444L52.5311 28.892C52.5155 28.8266 52.4531 28.7831 52.3844 28.7924L47.6443 29.5826C47.4663 29.1409 47.2696 28.7053 47.0541 28.276L50.7357 25.1648C50.7856 25.1213 50.795 25.0435 50.7544 24.9906L48.5842 21.8919C48.5498 21.8359 48.4718 21.8172 48.4124 21.8483L44.2719 24.1817C43.944 23.8177 43.6036 23.4661 43.2539 23.1332L45.6177 19.0016C45.6521 18.9425 45.6302 18.8679 45.574 18.8305L42.4701 16.6558C42.4171 16.6154 42.339 16.6216 42.2953 16.6745L39.2414 20.2399C38.8011 20.0065 38.3546 19.7919 37.8987 19.5959L38.6949 14.9509C38.7074 14.8856 38.6606 14.8203 38.5981 14.8047L34.9353 13.8216C34.8729 13.7998 34.801 13.834 34.7761 13.8963L33.1429 18.255C32.6433 18.1834 32.1437 18.1336 31.641 18.1025L30.801 13.5042C30.7885 13.4389 30.726 13.3922 30.6605 13.4016L26.879 13.7251C26.8134 13.7283 26.7572 13.7842 26.7572 13.8496L26.7166 18.4696C26.2201 18.5754 25.7299 18.703 25.2396 18.8492L22.8852 14.8358C22.8509 14.7798 22.7759 14.758 22.7166 14.786L19.2755 16.3789C19.213 16.4038 19.1818 16.4754 19.2037 16.5376L20.7525 20.8901C20.5152 21.0394 20.2841 21.1919 20.053 21.3506C19.8657 21.4812 19.6814 21.615 19.4972 21.7519L15.9062 18.7839C15.8531 18.7403 15.7719 18.7465 15.7282 18.7932ZM40.5716 29.648C44.3874 35.1174 43.0322 42.6308 37.5427 46.4326C32.0532 50.2344 24.5121 48.8842 20.6963 43.4148C16.8805 37.9454 18.2357 30.432 23.7252 26.6302C29.2116 22.8283 36.7558 24.1786 40.5716 29.648Z" fill="#D2D9DC"/>
<mask id="mask0_4867_18219" style="mask-type:luminance" maskUnits="userSpaceOnUse" x="18" y="14" width="107" height="95">
<path d="M39.195 108.472C48.6939 108.095 103.667 108.565 103.958 108.578C116.37 98.9705 124.361 83.9561 124.361 67.0812C124.361 38.076 100.76 14.562 71.6481 14.562C42.5361 14.562 18.9355 38.076 18.9355 67.0812C18.9324 83.8939 26.8607 98.8585 39.195 108.472Z" fill="white"/>
</mask>
<g mask="url(#mask0_4867_18219)">
<path d="M119.808 86.548C117.297 93.8032 113.3 100.128 108.276 105.296V105.299C107.764 105.825 107.243 106.341 106.709 106.842C105.694 107.8 104.642 108.715 103.558 109.583C103.442 109.673 103.324 109.766 103.208 109.857C100.713 111.814 98.0435 113.531 95.2425 114.987C95.2331 114.99 95.2238 114.993 95.2144 114.999C92.5071 116.403 89.6781 117.563 86.7584 118.462C86.5711 118.465 86.3837 118.468 86.1964 118.471C83.308 118.524 80.3509 118.565 77.3438 118.587C75.3547 118.599 73.3375 118.608 71.3047 118.608C66.4303 118.608 61.6652 118.565 57.0656 118.481C56.5223 118.316 55.9759 118.139 55.4325 117.952C48.3286 115.51 42.1271 111.643 37.0279 106.78C23.1761 93.5637 17.5023 72.9897 24.1909 53.6726C33.3433 27.2527 62.1648 13.1904 88.5695 22.2687C114.974 31.347 128.96 60.1251 119.808 86.548Z" fill="#0054A6"/>
</g>
<mask id="mask1_4867_18219" style="mask-type:luminance" maskUnits="userSpaceOnUse" x="18" y="14" width="107" height="95">
<path d="M39.195 108.472C48.6939 108.095 103.667 108.565 103.958 108.578C116.37 98.9705 124.361 83.9561 124.361 67.0812C124.361 38.076 100.76 14.562 71.6481 14.562C42.5361 14.562 18.9355 38.076 18.9355 67.0812C18.9324 83.8939 26.8607 98.8585 39.195 108.472Z" fill="white"/>
</mask>
<g mask="url(#mask1_4867_18219)">
<path d="M95.9083 27.7376C96.0457 27.7936 96.4142 27.6474 96.3112 27.5416C96.0613 27.2865 95.6523 27.2709 95.3213 27.134C95.3244 27.134 95.6492 27.6318 95.9083 27.7376Z" fill="#54CC5A"/>
<path d="M96.0358 27.8745C95.989 28.1763 96.4855 28.2914 96.7103 28.4998C97.1631 28.5527 97.6159 28.6243 98.0718 28.6616C98.918 28.7332 98.0499 28.335 96.804 27.8776C96.5667 27.7874 96.0733 27.6225 96.0358 27.8745Z" fill="#54CC5A"/>
<path d="M89.909 32.3237C89.909 32.3237 89.8312 32.3268 89.8468 32.3455C89.8841 32.3953 89.9432 32.4606 89.9992 32.4388C90.0459 32.4233 89.937 32.3642 89.909 32.3237Z" fill="#54CC5A"/>
<path d="M81.3965 30.1582C81.4774 30.0804 81.5489 30.0275 81.5458 30.0244C81.5458 30.0244 81.5396 30.0275 81.5178 30.0431C81.4743 30.0711 81.4338 30.1115 81.3996 30.1551C81.3996 30.1582 81.3965 30.1582 81.3965 30.1582C81.3996 30.1582 81.3996 30.1582 81.3965 30.1582Z" fill="#54CC5A"/>
<path d="M75.6204 20.3486C75.5579 20.386 75.7141 20.4855 75.7859 20.4918C76.0638 20.5135 76.3417 20.4171 76.6196 20.4202C76.8694 20.4233 77.6001 20.5975 77.3628 20.5135C76.9787 20.3766 76.5665 20.3424 76.1668 20.2584C76.17 20.2553 75.7796 20.2522 75.6204 20.3486Z" fill="#54CC5A"/>
<path d="M74.5055 20.5356C74.4712 20.5791 74.6055 20.5885 74.6586 20.5885C74.9958 20.5885 75.333 20.5511 75.6703 20.5325C75.6703 20.5325 74.746 20.2338 74.5055 20.5356Z" fill="#54CC5A"/>
<path d="M77.2407 19.9349C77.3247 19.9162 77.4087 19.8976 77.4896 19.8789C77.4056 19.8945 77.1567 19.9536 77.2407 19.9349Z" fill="#54CC5A"/>
<path d="M98.93 40.4996C98.9424 40.4716 98.9486 40.4467 98.9424 40.425C98.9331 40.397 98.9206 40.3814 98.9051 40.3752C98.902 40.3721 98.8957 40.3721 98.8895 40.3721C98.8771 40.369 98.8615 40.3721 98.846 40.3783C98.8397 40.3814 98.8335 40.3845 98.8273 40.3876C98.8055 40.4001 98.7837 40.4156 98.7588 40.4374C98.7557 40.4405 98.7526 40.4405 98.7495 40.4436C98.8117 40.4685 98.874 40.4872 98.93 40.4996Z" fill="#54CC5A"/>
<path d="M90.3712 42.3693C90.3587 42.2573 90.3524 42.1266 90.2837 42.0644C90.0808 41.8746 89.3407 41.4982 89.5437 41.6848C89.7997 41.9306 90.0808 42.1515 90.3712 42.3693C90.3681 42.3662 90.3681 42.3662 90.3712 42.3693C90.3681 42.3693 90.3681 42.3693 90.3712 42.3693Z" fill="#54CC5A"/>
<path d="M89.5718 43.4208C89.6874 43.5297 89.8497 43.5702 89.9871 43.6479C89.9871 43.6479 89.8091 43.4333 89.6905 43.3679C89.653 43.3462 89.5406 43.3897 89.5718 43.4208Z" fill="#54CC5A"/>
<path d="M113.81 44.6001C113.856 44.6779 113.9 44.7557 113.962 44.821C114.015 44.8801 113.9 44.6748 113.853 44.6125C113.844 44.6001 113.825 44.6001 113.81 44.6001Z" fill="#54CC5A"/>
<path d="M113.784 44.5906C113.791 44.5968 113.8 44.5968 113.809 44.5968C113.791 44.5626 113.769 44.5284 113.747 44.4941C113.76 44.5284 113.76 44.5657 113.784 44.5906Z" fill="#54CC5A"/>
<path d="M116.58 47.2819C116.502 47.0765 116.346 46.9085 116.246 46.7125C115.812 45.8787 115.418 45.4525 114.784 44.8303C114.553 44.6032 114.4 44.2889 114.125 44.1209C114.044 44.0712 114.16 44.4756 114.094 44.404C113.926 44.2205 113.891 43.9467 113.769 43.732C113.607 43.4489 113.423 43.1783 113.242 42.9045C113.22 42.8734 113.167 42.7894 113.167 42.8236C113.173 43.032 113.345 43.2498 113.264 43.4458C113.21 43.5734 113.157 43.1814 113.057 43.0818C112.929 42.9543 112.751 42.8827 112.602 42.78C112.602 42.78 113.073 43.4458 113.314 43.7756C113.495 44.0245 113.62 44.3169 113.841 44.5285C113.922 44.6032 113.651 44.1365 113.723 44.2205C113.807 44.3232 113.882 44.432 113.951 44.5472C113.938 44.5161 113.935 44.4943 113.963 44.516C114.147 44.6436 114.266 44.8427 114.391 45.0263C114.522 45.2161 114.5 45.6423 114.731 45.6267C114.94 45.6112 114.435 45.0667 114.634 45.0107C114.85 44.9516 114.912 45.3561 115.037 45.5396C115.643 46.4294 115.234 45.9067 115.752 47.0423C115.771 47.0859 115.862 47.033 115.89 47.0703C116.058 47.3099 116.061 47.6956 116.321 47.8356C116.492 47.929 116.033 47.2663 116.233 47.2539C116.271 47.2507 116.83 48.8561 116.833 48.8374C116.858 48.4236 116.648 48.0316 116.58 47.6241C116.57 47.5121 116.62 47.3907 116.58 47.2819Z" fill="#54CC5A"/>
<path d="M114.497 45.4464C114.609 45.5989 114.31 45.1198 114.207 44.958C114.122 44.8211 114.041 44.6811 113.954 44.5442C113.982 44.6126 114.069 44.7526 114.107 44.8211C114.228 45.0326 114.35 45.2473 114.497 45.4464Z" fill="#54CC5A"/>
<path d="M115.137 46.4822C114.962 46.3142 114.665 45.7449 114.615 45.9782C114.54 46.3204 114.946 46.6035 115.034 46.9427C115.055 47.0173 114.921 47.0671 114.918 47.1418C114.912 47.4809 115.402 47.6209 115.53 47.8138C115.683 48.044 115.655 48.3645 115.817 48.5916C115.889 48.6942 115.767 48.0907 115.811 48.2089C115.824 48.24 115.924 49.4814 116.367 49.4502C116.514 49.4409 116.367 49.1547 116.336 49.0085C116.105 47.9102 115.805 47.4187 115.137 46.4822Z" fill="#54CC5A"/>
<path d="M104.96 62.1998C105.016 62.2869 105.257 62.2651 105.266 62.1656C105.616 58.1055 105.163 60.7282 104.844 61.1794C105.063 61.478 104.657 61.7456 104.96 62.1998Z" fill="#54CC5A"/>
<path d="M104.464 60.4638C104.492 60.2616 105.073 60.1963 104.923 60.0563C104.761 59.9038 104.517 60.3643 104.299 60.3114C104.158 60.2772 104.589 60.1061 104.555 59.9661C104.527 59.8478 104.211 60.0096 104.199 59.8883C104.174 59.6674 104.567 59.4869 104.48 59.2816C104.43 59.1665 104.38 59.0825 104.33 59.0234C103.927 58.538 103.527 59.6612 103.474 59.6518C103.253 59.6207 103.106 59.5772 103.009 59.5274C102.953 59.4994 102.918 59.4683 102.893 59.434C102.893 59.4309 102.89 59.4309 102.89 59.4278C102.793 59.2785 102.971 59.0918 103.109 58.9238C103.121 58.9083 103.134 58.8927 103.146 58.8772C103.156 58.8647 103.165 58.8523 103.174 58.8367C103.196 58.8056 103.215 58.7745 103.224 58.7465C103.228 58.7403 103.228 58.734 103.231 58.7278C103.24 58.6967 103.246 58.6687 103.237 58.6407C103.209 58.5536 103.171 58.4696 103.128 58.3887C103.118 58.37 103.109 58.3514 103.096 58.3358C103.059 58.2674 103.021 58.202 102.978 58.1336C102.971 58.1243 102.968 58.118 102.962 58.1087C102.903 58.0185 102.843 57.9283 102.784 57.8411C102.772 57.8256 102.762 57.8069 102.753 57.7914C102.765 57.7727 102.765 57.7478 102.775 57.7291C102.797 57.6794 102.818 57.6327 102.828 57.5736C102.828 57.5705 102.828 57.5674 102.828 57.5611C102.859 57.3091 102.8 56.9949 102.784 56.8394C102.784 56.8394 102.322 56.9856 102.247 57.1816C102.16 57.4087 102.088 57.642 102.028 57.8785C102.016 57.9251 102.007 57.9718 101.997 58.0185C101.841 58.6625 101.744 59.322 101.56 59.9567C101.554 59.9816 101.548 60.0096 101.541 60.0345C101.504 60.1496 101.21 60.2274 101.304 60.3021C101.454 60.4265 101.885 60.1278 101.888 60.3238C101.891 60.6381 101.451 60.7905 101.313 61.0736C101.27 61.1607 101.295 61.3381 101.388 61.3536C101.601 61.3879 101.794 61.1794 102.007 61.1825C102.325 61.1887 102.631 61.4438 102.94 61.3785C103.181 61.3287 103.228 60.9212 103.468 60.8714C103.705 60.8247 104.117 60.8963 104.142 61.1358C104.174 61.4438 103.752 61.615 103.571 61.8639C103.549 61.8919 103.496 61.979 103.524 61.9603C103.815 61.7767 104.155 61.6305 104.361 61.3598C104.464 61.223 104.202 60.7843 104.358 60.8527C104.408 60.8745 104.452 60.8963 104.492 60.9181C104.452 60.7656 104.445 60.5945 104.464 60.4638Z" fill="#54CC5A"/>
<path d="M104.489 60.918C104.532 61.086 104.617 61.226 104.764 61.2446C104.792 61.2478 104.82 61.2229 104.848 61.1793C104.785 61.0953 104.673 61.0082 104.489 60.918Z" fill="#54CC5A"/>
<path d="M91.8482 68.5435C91.4547 68.6213 91.055 68.7146 90.6897 68.8764C90.5835 68.9231 90.9239 68.9231 91.0363 68.9013C91.5172 68.808 91.9824 68.6555 92.454 68.5311C92.454 68.5311 92.0449 68.5062 91.8482 68.5435Z" fill="#54CC5A"/>
<path d="M50.9172 69.1904C50.9297 69.2713 51.0634 69.458 51.0728 69.3771C51.1008 69.1624 51.0074 68.9478 50.9763 68.73C50.9763 68.73 50.8923 69.038 50.9172 69.1904Z" fill="#54CC5A"/>
<path d="M84.748 85.2816C84.7261 85.3562 84.8604 85.5149 84.9166 85.4589C85.3538 84.9891 85.3132 84.7962 85.0759 84.6189C85.1008 84.6531 85.1196 84.6873 85.1321 84.7216C85.2008 84.9393 84.8136 85.0638 84.748 85.2816Z" fill="#54CC5A"/>
<path d="M84.4199 84.2144C84.676 84.3917 84.9195 84.5006 85.0757 84.6188C84.8977 84.3917 84.4199 84.2144 84.4199 84.2144Z" fill="#54CC5A"/>
<path d="M82.7986 91.9266C83.3357 92.0635 83.9071 91.9048 84.4598 91.9546C84.5067 91.9577 85.7151 92.3995 85.8869 92.0355C86.3709 91.0026 85.4872 91.488 85.0656 91.2546C84.7783 91.0959 84.6472 90.7382 84.3818 90.5422C84.285 90.4706 84.1195 90.5546 84.0258 90.4768C83.7885 90.2777 83.6573 89.979 83.4419 89.7613C83.1577 89.4719 82.8236 89.223 82.4551 89.0644C82.2522 88.9741 81.9961 89.0488 81.7994 88.943C81.4403 88.747 81.1905 88.3893 80.8376 88.1839C80.6034 88.047 80.2943 88.0812 80.0663 87.935C80.007 87.8977 80.2225 87.7546 80.1569 87.7421C79.5542 87.6395 77.5495 87.3532 76.7252 87.7732C76.3973 87.9381 76.0913 88.1404 75.7759 88.3208C75.7759 88.3208 76.0475 88.6008 76.2255 88.5946C76.4753 88.5884 76.6658 88.3333 76.9156 88.2897C77.1124 88.2555 77.3122 88.3488 77.5089 88.3768C77.8149 88.4235 79.8072 88.5977 80.541 88.9741C81.0562 89.2417 81.5183 89.5964 82.0304 89.867C82.0835 89.8982 82.1897 89.8017 82.2116 89.8577C82.2959 90.0693 82.1241 90.3742 82.2865 90.5297C82.6175 90.8502 83.1577 90.8688 83.5293 91.1395C83.9946 91.4724 82.4114 91.8271 82.7986 91.9266Z" fill="#54CC5A"/>
<path d="M110.262 37.0961L110.141 36.9529C110.116 36.9249 110.041 36.8378 110.063 36.8658C110.131 36.9436 110.197 37.0183 110.262 37.0961Z" fill="#54CC5A"/>
<path d="M110.337 37.1801C110.312 37.1521 110.287 37.1241 110.262 37.093L111.121 38.1104C110.859 37.7992 110.599 37.4912 110.337 37.1801Z" fill="#54CC5A"/>
<path d="M108.361 35.0085C108.654 35.3165 109.017 35.721 109.369 36.085L108.361 35.0085Z" fill="#54CC5A"/>
<path d="M103.505 30.5873L103.043 30.2202C103.049 30.2264 103.059 30.2327 103.065 30.2389C103.212 30.354 103.358 30.4691 103.505 30.5873Z" fill="#54CC5A"/>
<path d="M86.2492 94.1795C86.4459 94.2261 86.6208 93.9866 86.8269 93.9835C87.0173 93.9804 87.1797 94.1421 87.3702 94.1577C87.6325 94.1826 87.8979 94.0613 88.1571 94.1017C88.2664 94.1204 88.2976 94.3226 88.4069 94.3195C88.8222 94.3133 89.1938 93.8715 89.5997 93.9648C89.6872 93.9835 89.6153 94.2044 89.7059 94.2075C89.9526 94.2013 90.1587 93.9866 90.4022 93.9586C90.6989 93.9244 91.0049 93.9555 91.2922 94.027C91.4015 94.055 91.4389 94.2759 91.5482 94.2479C92.435 94.0146 91.7262 93.3581 91.3328 93.131C91.161 93.0315 90.9237 93.2026 90.7395 93.1341C90.5552 93.0657 90.4897 92.795 90.3023 92.7421C89.8339 92.6177 89.3374 92.6644 88.8565 92.627C88.6661 92.6115 88.4693 92.6364 88.2914 92.5772C88.1352 92.5275 87.3421 91.759 87.1516 92.4621C87.0829 92.7141 88.1946 93.4733 87.3827 93.8528C87.1703 93.9524 86.9361 93.7066 86.7082 93.6506C86.4834 93.5915 86.2617 93.4888 86.0306 93.5075C85.9088 93.5168 85.7058 93.6101 85.7433 93.7253C85.8151 93.9368 86.0275 94.1266 86.2492 94.1795Z" fill="#54CC5A"/>
<path d="M92.9386 94.061C92.9386 94.061 92.7731 94.4406 92.9105 94.5059C93.2758 94.6833 94.4218 94.5837 94.0065 93.9708C93.9066 93.8184 93.0198 94.0424 92.9386 94.061Z" fill="#54CC5A"/>
<path d="M61.999 106.092C61.999 106.092 61.6837 106.68 61.8398 106.916C61.9709 107.112 62.5049 107.144 62.5517 106.913C62.6142 106.59 62.1833 106.366 61.999 106.092Z" fill="#54CC5A"/>
<path d="M84.7226 40.5619H84.7195C84.682 40.5744 84.6477 40.5837 84.6102 40.5993C84.6415 40.6117 84.6727 40.621 84.707 40.6366C84.7632 40.6553 84.8132 40.6739 84.8632 40.6926C84.8725 40.6957 84.8757 40.6957 84.885 40.7019C84.8288 40.677 84.7789 40.6273 84.7226 40.5619ZM89.2005 69.9996C89.2567 69.8253 89.4097 69.7133 89.5658 69.5982C89.4503 69.7071 89.3097 69.8627 89.1942 70.0182C89.2004 70.0151 89.2005 70.0058 89.2005 69.9996ZM86.5931 55.8656C86.5962 55.8625 86.5962 55.8563 86.6056 55.8532C86.6181 55.8345 86.643 55.8252 86.6743 55.8128C86.743 55.7848 86.8429 55.7661 86.9241 55.7412C86.8928 55.763 86.8616 55.791 86.8242 55.8221C86.8054 55.8408 86.7836 55.8594 86.7648 55.8781C86.7523 55.8905 86.7367 55.9061 86.7242 55.9185C86.6961 55.9403 86.6743 55.9559 86.6524 55.959C86.6493 55.9621 86.643 55.9621 86.6399 55.9621C86.6181 55.9652 86.5993 55.959 86.5837 55.931C86.5743 55.8999 86.5775 55.8812 86.5931 55.8656ZM81.9997 81.601C82.0591 81.8468 82.031 82.1144 82.0591 82.3664C82.0403 82.2575 82.0185 82.1486 82.0029 82.0335C81.9872 81.8904 81.9748 81.461 81.9997 81.601ZM81.9872 41.1593C81.9061 41.1219 81.8217 41.0815 81.7593 41.0193C81.6968 40.9508 81.7 40.7019 81.7874 40.7362C81.8748 40.7735 81.9435 40.8139 81.9966 40.8575C81.9997 40.8575 81.9997 40.8575 82.006 40.8606C82.0559 40.901 82.0965 40.9415 82.1278 40.9882C82.1278 40.9913 82.1309 40.9975 82.1309 41.0006C82.159 41.041 82.1871 41.0877 82.2027 41.1313C82.2246 41.1779 82.2433 41.2215 82.2652 41.2682C82.2652 41.2713 82.2683 41.2775 82.2683 41.2775C82.184 41.237 82.084 41.1997 81.9872 41.1593ZM57.2157 27.0316C57.2438 27.0285 57.2656 27.0316 57.2875 27.0347C57.2969 27.0378 57.3062 27.0378 57.3094 27.044C57.3062 27.044 57.2656 27.0409 57.2157 27.0316ZM80.4884 83.7508C80.5009 83.8379 80.3666 83.8504 80.2698 83.8877C80.3697 83.8131 80.4697 83.6637 80.4884 83.7508ZM63.2392 25.7311C63.2485 25.7187 63.2579 25.7 63.2704 25.6813C63.2829 25.672 63.2923 25.6627 63.3079 25.6533C63.3204 25.6347 63.3391 25.6222 63.3578 25.6067C63.3703 25.5973 63.3859 25.5849 63.4047 25.5755C63.4234 25.5631 63.4453 25.5444 63.4671 25.5289C63.489 25.5164 63.514 25.4978 63.5358 25.4822C63.5546 25.4698 63.5733 25.4542 63.592 25.4418C63.6045 25.4324 63.6201 25.4231 63.6295 25.4138C63.642 25.4044 63.6576 25.3951 63.667 25.3858C63.6795 25.3671 63.6951 25.3547 63.6951 25.3391L63.7513 25.4667C63.6139 25.6222 63.336 26.008 63.236 25.8276C63.2236 25.8058 63.2236 25.7778 63.2329 25.756C63.2267 25.7467 63.236 25.7404 63.2392 25.7311ZM101.329 107.875C101.188 107.962 101.054 108.005 100.982 107.931C100.926 107.875 100.985 107.791 101.063 107.704C101.06 107.713 101.054 107.725 101.054 107.741C101.063 107.9 101.169 107.928 101.329 107.875ZM107.905 104.795C107.649 104.782 107.268 104.894 106.765 105.193C105.878 105.716 105.497 106.061 104.489 106.335C104.08 106.444 103.767 106.556 103.471 106.686C103.096 106.851 102.753 107.044 102.281 107.302C102.4 107.047 102.334 106.857 102.081 106.733C102.022 106.745 101.963 106.761 101.903 106.783C101.953 106.73 101.997 106.677 102.041 106.621C102.746 105.75 102.887 104.692 101.678 103.867C100.098 102.794 97.9874 102.29 96.1701 101.817C94.1466 101.295 92.0732 100.853 89.9905 100.635C89.4034 100.57 88.6009 100.402 88.0201 100.582C86.9272 100.915 87.0115 102.153 86.081 102.579C85.2785 102.113 86.4401 100.915 86.4432 100.259C84.9849 99.4746 81.7468 101.263 80.2979 101.637C78.7897 102.029 76.0762 102.741 74.7053 101.553C74.4805 101.36 74.2963 101.12 74.1527 100.819C73.5968 99.6208 74.3244 98.1741 74.6554 96.9327C74.8146 96.3136 74.8802 95.7474 74.6335 95.2838C74.4087 94.8452 73.9216 94.5061 72.9942 94.2945C72.276 94.1358 70.6585 94.2852 70.1713 93.6443C69.4157 92.6456 71.4141 91.2456 72.0293 90.6731C72.9754 89.7958 74.1277 88.0567 72.0761 87.7642C70.724 87.5713 69.2252 88.2402 67.9637 88.6104C67.9293 88.6167 67.895 88.6291 67.8637 88.6415C67.5515 88.7287 67.2298 88.8251 66.8895 88.9122C65.9059 89.1611 64.8535 89.3198 63.9418 88.9527C62.0713 88.1873 62.1213 85.7793 62.5303 84.1366C62.699 83.4802 62.8863 82.7428 63.1111 81.9961C63.4359 80.9197 63.8356 79.8277 64.3414 78.9752C65.1377 77.6157 66.4492 77.3948 67.8637 77.4321C68.1885 77.4352 68.5164 77.4539 68.8474 77.4788C70.5554 77.5908 72.0824 78.6485 73.7654 78.5708C73.9965 78.5614 74.2182 78.549 74.4431 78.5428C76.2698 78.465 77.9497 78.521 79.3393 80.1077C80.1324 81.0224 80.0856 81.937 80.1512 83.0726C80.1886 83.7197 80.1949 85.1104 81.0567 85.2442C82.5649 85.4775 82.1371 82.245 82.1371 81.3832C82.1371 78.381 83.3737 77.4819 85.8936 76.2872C86.7742 75.8672 87.7547 75.3787 88.0295 74.3614C88.3105 73.3223 87.5736 72.14 88.3074 71.188C88.4635 71.5147 88.6228 71.8445 88.7851 72.1712C89.6095 72.2365 89.6626 70.9018 89.8999 70.3511C90.2247 69.5889 90.6462 69.2373 91.2239 68.8453C91.3425 68.7645 91.4737 68.6773 91.6142 68.5871C91.6205 68.584 91.6329 68.5747 91.6423 68.5684C92.7946 67.8031 93.2692 66.8013 94.2216 65.8649C95.0678 65.0311 96.3106 64.8133 97.135 63.9888C97.9718 63.1519 97.5596 62.6137 97.5066 61.5715C97.4722 60.915 97.875 59.963 97.2536 59.5026C95.8734 58.4759 94.8961 61.5715 93.6595 61.4004C94.0061 58.1741 97.9812 58.9426 100.048 58.2923C100.539 58.1368 101.066 57.863 101.479 57.4865C101.947 57.0728 102.269 56.5314 102.247 55.8936C102.212 55.0412 101.894 54.895 101.479 54.867C101.101 54.8452 100.639 54.9136 100.236 54.6367C100.545 52.5834 99.3083 52.1447 98.1935 50.6389C97.8251 50.138 97.5909 49.1487 97.0382 48.8096C96.1076 48.2309 96.0327 49.046 95.2427 49.2918C93.366 49.8767 93.9 46.9927 93.0631 46.1247C92.1825 45.2131 90.2403 44.0215 89.4596 45.546C88.7914 46.8527 89.5783 48.318 89.6876 49.6278C89.825 51.1989 88.2855 51.7247 87.9889 53.2181C87.8609 53.8776 88.1075 55.6105 87.1864 55.7661C87.0958 55.7785 87.0084 55.763 86.9303 55.7225C86.4963 55.4799 86.2715 54.4874 86.2277 54.2323C86.0185 52.9536 86.2715 52.1976 85.2379 51.2052C83.7546 49.7802 81.8717 48.8127 80.5977 47.1296C80.5009 47.0082 80.4197 46.8838 80.3479 46.7656C79.1832 44.9331 80.1699 43.5735 81.8467 42.2917C82.184 42.0335 82.5368 41.7691 82.8959 41.517C83.3175 41.2308 83.7515 40.9664 84.198 40.7486C84.3354 40.6864 84.4697 40.6304 84.604 40.5868C84.5509 40.5682 84.4947 40.5464 84.4479 40.5184C83.9607 40.2321 83.6391 40.873 83.2987 39.5757C83.2238 39.3019 83.8733 39.6846 84.1106 39.8495C84.1668 39.8837 84.2168 39.9304 84.2636 39.9739C84.273 39.9801 84.2824 39.9864 84.2855 39.9957C84.4635 40.1824 84.5946 40.4033 84.7133 40.5464H84.7195C85.4689 40.3193 86.2309 40.3193 86.9678 40.0361C88.5072 39.4357 88.1544 37.2734 86.4526 37.9299C86.1091 38.0606 85.8843 38.2192 85.6875 38.3126C85.6813 38.3126 85.6657 38.3188 85.6563 38.3219L85.6532 38.325C85.369 38.4495 85.1348 38.3997 84.6664 37.849C83.9857 37.0526 84.1044 36.4148 84.1044 35.469C84.1075 35.0801 84.0856 33.9072 83.3643 34.3054C82.4931 34.7814 83.3206 36.2685 82.9303 36.9374C82.593 37.5192 82.0622 37.5535 81.5064 37.3606C80.7944 37.1241 80.0294 36.5205 79.561 36.2219C78.7241 35.6961 78.2714 35.5872 77.2659 35.4752C76.5976 35.4037 76.2011 35.3165 75.9044 35.1236C75.5516 34.8996 75.3392 34.5325 74.9926 33.8761C74.4337 32.8245 73.7811 31.8414 72.8536 31.0761C71.9387 30.3263 70.8614 30.3947 69.9403 29.7694C68.2541 28.6307 68.8442 26.0018 67.1362 24.7915C66.1182 24.0666 65.2314 24.3933 64.204 24.7978C63.2454 25.1804 62.5772 24.9378 61.5936 25.0809C52.5693 26.3907 59.6013 29.3369 59.8886 33.8419C59.9854 35.3414 59.67 36.9499 59.1361 38.3468C58.624 39.6908 57.4717 40.9042 57.2282 42.3353C57.0252 43.4988 57.734 44.5131 57.6123 45.6518C57.4749 46.9678 56.4631 47.3567 55.4358 47.8825C54.9018 48.1593 54.3085 48.4985 53.7028 48.8842C51.9447 50.0291 50.1399 51.6127 49.6371 53.4234C49.3842 54.3101 49.6371 55.0443 49.5934 55.8314C49.5809 56.1332 49.5216 56.4412 49.3748 56.7741C48.8534 57.9594 48.6285 58.7652 48.9283 60.1061C49.0095 60.467 49.1188 60.8155 49.2374 61.167C49.4748 61.8639 49.7402 62.5515 49.8401 63.2888C49.8401 63.3075 49.8463 63.3231 49.8463 63.3386C50.0306 64.7542 49.8776 66.3191 49.8745 67.7533C49.8682 68.8142 49.6496 69.7631 49.4716 70.7151C49.2749 71.7729 49.1344 72.8214 49.4061 74.0098C49.5216 74.5014 49.6527 75.2014 49.9494 75.6992C50.0399 75.8516 50.1461 75.9761 50.2679 76.0819C50.2773 76.0912 50.2866 76.0943 50.296 76.1036C51.5201 77.0681 51.0735 74.9743 50.9861 74.2836C50.8237 72.9645 50.8393 71.6423 50.6801 70.3294C50.652 70.1147 50.6083 69.8782 50.5583 69.6169C50.3647 68.6151 50.1243 67.3644 50.7831 66.6551C51.7418 65.6253 51.901 66.8791 52.0134 67.7876C52.2133 69.4053 52.2226 71.0418 52.5318 72.6503C52.6192 73.1014 52.7348 73.5432 52.8597 73.9694V73.9725C53.1969 75.1112 53.6309 76.1939 53.9151 77.3014C53.9932 77.6032 54.0556 77.8957 54.1118 78.2037C54.2117 78.8134 54.2523 79.4419 54.193 80.0921C54.1743 80.2912 54.1462 80.4935 54.1118 80.6957C53.9245 81.7348 53.9494 82.6028 54.1649 83.3775C54.5615 84.8926 55.6263 86.0437 57.0283 87.4095C58.3523 88.6975 59.8793 89.4816 61.3875 90.3496C61.4187 90.3682 61.453 90.3869 61.4843 90.4025C62.1744 90.8007 62.8613 91.2176 63.514 91.7154C64.4351 92.4122 65.1877 93.2989 66.112 93.9958C66.6584 94.4096 67.2611 94.7456 67.8606 95.0972C68.0011 95.175 68.1385 95.2558 68.2759 95.3398C68.9129 95.7225 69.5312 96.1332 70.0496 96.6807C71.7389 98.4821 72.1854 101.568 74.7178 102.551C74.7647 102.573 74.8146 102.592 74.8646 102.611C76.4634 103.164 78.7241 101.503 78.8022 104.278C78.8209 105 78.6992 105.566 78.465 106.027C77.8123 107.33 76.301 107.784 74.7865 108.488C74.7085 108.519 74.6273 108.562 74.5492 108.596C74.2276 108.752 73.5594 109.051 73.3158 109.393C72.9192 109.962 73.3158 110.432 73.1284 110.749C72.5757 111.683 71.4329 111.571 71.7639 112.905C71.895 113.447 72.3665 113.808 72.7069 114.212C73.2627 114.878 73.4282 115.509 73.8217 116.256C74.1402 116.866 74.493 117.171 74.8896 117.376C75.3986 117.634 75.9919 117.731 76.7038 118.095C77.0067 118.247 77.2128 118.409 77.3408 118.571C80.3479 118.549 83.305 118.509 86.1934 118.456C89.291 117.525 92.3074 116.418 95.2115 114.98C95.2177 114.974 95.2302 114.971 95.2396 114.968C95.8766 114.654 96.5136 114.318 97.1443 113.966C99.0023 112.93 100.757 111.708 102.462 110.416C102.712 110.227 102.962 110.037 103.208 109.838C103.246 109.81 103.283 109.779 103.321 109.748C103.402 109.685 103.477 109.626 103.558 109.564C104.701 108.671 105.816 107.75 106.931 106.836C107.105 106.696 107.28 106.549 107.452 106.409C107.952 106.005 108.217 105.588 108.28 105.28V105.277C108.336 105.016 108.208 104.816 107.905 104.795Z" fill="#54CC5A"/>
<path d="M93.8092 101.183C93.8279 101.183 93.8435 101.176 93.8621 101.173C93.8155 101.17 93.775 101.167 93.7439 101.161C93.7159 101.155 93.7844 101.183 93.8092 101.183Z" fill="#54CC5A"/>
<path d="M88.6625 74.3303C88.6283 74.041 88.6688 73.7143 88.5381 73.4561C88.5879 73.7112 88.5661 73.9881 88.6159 74.2463C88.619 74.2774 88.6656 74.3614 88.6625 74.3303Z" fill="#54CC5A"/>
<path d="M88.5382 73.4529C88.5196 73.3595 88.4947 73.2693 88.4511 73.1822C88.4013 73.0827 88.4324 73.1822 88.4698 73.3409C88.4822 73.3595 88.5009 73.372 88.5102 73.3907C88.5258 73.4124 88.5289 73.4342 88.5382 73.4529Z" fill="#54CC5A"/>
<path d="M98.25 63.1394C98.3281 63.1892 98.4311 63.2514 98.5498 63.3261C98.4561 63.2452 98.3562 63.183 98.25 63.1394Z" fill="#54CC5A"/>
<path d="M98.946 63.9267C99.0085 64.1756 98.4089 63.8427 98.1716 63.9454C97.8968 64.0667 97.7469 64.3623 97.5221 64.5552C97.3535 64.6983 97.0881 64.7574 96.9913 64.9534C96.8008 65.3454 97.188 66.2756 97.5315 66.0734C97.9593 65.8245 98.028 65.2178 98.3371 64.8321C98.8024 64.2503 98.4901 65.0654 98.8149 64.997C98.921 64.9721 98.6931 64.7263 98.7868 64.6703C98.9491 64.5738 99.1802 64.7481 99.3551 64.6796C99.6392 64.5676 99.8266 64.2845 100.098 64.1476C100.245 64.0698 100.482 64.1756 100.582 64.0481C100.651 63.9609 100.46 63.8614 100.382 63.7836C100.37 63.7712 100.361 63.7587 100.351 63.7463C100.582 63.8085 101.31 63.4663 101.282 63.2734C101.229 62.9032 100.988 62.5827 100.841 62.2405C100.841 62.2405 100.339 62.8472 100.123 63.1769C100.101 63.2112 100.139 63.2547 100.154 63.292C100.189 63.3823 100.198 63.5036 100.229 63.6032C100.133 63.4818 100.033 63.3667 99.8922 63.348C98.3996 63.1552 100.429 64.4618 98.6525 63.3916C98.615 63.3698 98.5838 63.3512 98.5494 63.3294C98.7399 63.488 98.8898 63.7089 98.946 63.9267Z" fill="#54CC5A"/>
<path d="M74.4267 97.894C74.4018 97.9936 74.377 98.0994 74.3427 98.2083C74.3178 98.3109 74.4392 98.0372 74.4267 97.894Z" fill="#54CC5A"/>
<path d="M68.5537 77.0491C68.435 77.0926 68.3164 77.1331 68.1977 77.1673C68.0791 77.1984 68.5131 77.1673 68.5537 77.0491Z" fill="#54CC5A"/>
<path d="M100.985 54.2664C101.004 54.2478 101.026 54.2322 101.041 54.2104C101.088 54.142 100.83 53.9615 100.87 54.0331C100.91 54.1078 100.945 54.1855 100.985 54.2664Z" fill="#54CC5A"/>
<path d="M59.6425 21.2105C59.7112 21.4843 59.2928 21.6679 59.0492 21.8141C58.8119 21.9603 58.1249 21.8079 58.2467 22.0599C58.3903 22.3523 58.8993 22.1221 59.2241 22.175C59.5863 22.2372 59.2803 22.4457 59.7143 22.6759C59.8111 22.7288 60.1203 22.5266 60.0297 22.5919C59.7924 22.7599 59.4489 22.7879 59.2584 23.0026C59.171 23.1021 59.5301 23.0337 59.6644 23.0088C59.9641 22.9528 60.2545 22.8595 60.5449 22.7599C60.6043 22.7412 60.3357 22.8283 60.3607 22.7723C60.3919 22.7008 60.4981 22.6914 60.5762 22.6852C60.598 22.6821 60.573 22.7537 60.5949 22.7506C60.8822 22.707 61.1819 22.6883 61.4411 22.5608C61.6847 22.4394 61.8127 21.8826 62.0469 22.0194C62.2717 22.1501 61.5004 22.5266 61.6909 22.7039C61.9501 22.9466 62.3998 22.6728 62.7557 22.679C62.8962 22.679 63.3084 22.6603 63.1773 22.7194C62.8869 22.8501 62.5247 22.7661 62.2436 22.9092C62.1218 22.9746 62.1937 23.211 62.0781 23.2826C61.8658 23.4195 61.566 23.3541 61.3474 23.4786C61.2881 23.5128 61.26 23.575 61.2319 23.6372C61.2288 23.6435 61.2257 23.6497 61.2225 23.659C61.21 23.6901 61.1944 23.7243 61.1788 23.7555C61.1601 23.7897 61.1382 23.8208 61.107 23.8426C61.004 23.9204 60.6074 23.9048 60.7323 23.9452C60.9509 24.0137 61.6722 24.0106 61.9751 23.911C62.0563 23.8861 62.1125 23.7306 62.1905 23.7648C62.3748 23.8519 62.4247 24.303 62.6027 24.2097C62.8463 24.0821 62.6714 23.6403 62.84 23.4257C62.9337 23.3075 63.1398 23.3635 63.2866 23.3292C63.6894 23.2328 63.9923 23.183 64.292 23.0959C64.2983 23.0959 64.3014 23.0928 64.3077 23.0897C64.3764 23.071 64.4451 23.0492 64.5138 23.0243C64.545 23.0119 64.5793 22.9963 64.6137 22.9839C64.6574 22.9683 64.698 22.9528 64.7417 22.931C64.7917 22.9092 64.8447 22.8812 64.8947 22.8563C64.9259 22.8408 64.954 22.8283 64.9853 22.8128C65.0508 22.7786 65.1195 22.7381 65.1914 22.6946C65.2132 22.6821 65.2319 22.6728 65.2538 22.6603C65.2601 22.6572 65.2663 22.6541 65.2725 22.6479C65.3412 22.6074 65.0821 22.679 64.9821 22.707L64.954 22.7132H64.9509C64.954 22.7132 64.9509 22.7132 64.9572 22.7101C65.2132 22.6168 65.4818 22.5639 65.7378 22.4768C65.8658 22.4332 67.6395 21.7239 67.3678 21.3568C67.2085 21.1421 66.837 21.4159 66.5684 21.4159C66.4966 21.4159 66.2936 21.3972 66.3592 21.363C67.5021 20.7408 66.659 21.4065 67.6613 21.0985C67.7207 21.0799 67.5114 21.0705 67.4927 21.0114C67.4396 20.8528 67.3178 20.5852 67.4677 20.5105C67.7456 20.3674 68.0922 20.5385 68.4045 20.5416C68.6574 20.5416 68.9104 20.523 69.1602 20.5136C69.741 20.4919 69.9283 20.523 70.5248 20.3114C70.6434 20.2679 70.7184 20.1279 70.8433 20.1061C71.143 20.0532 71.4553 20.0968 71.7613 20.0874C72.1953 20.075 73.0166 20.0563 73.5599 20.0283C73.8878 20.0128 74.2125 19.991 74.5373 19.9754C74.5966 19.9723 74.7652 19.9848 74.7121 19.9692C74.428 19.8883 73.6661 20.0128 73.8441 19.7763C74.0564 19.4901 74.5591 19.7172 74.9151 19.6985C75.9924 19.6425 76.5482 19.8012 77.3945 19.8759C77.7067 19.9039 76.1298 19.6612 76.7668 19.7483C78.4561 19.9723 80.1299 20.2648 81.8129 20.5292C82.2033 20.5914 82.731 20.5323 83.0713 20.719C83.3805 20.8901 83.6459 21.1328 83.955 21.2977C84.1174 21.3817 84.3017 21.419 84.4796 21.4625C85.941 21.7861 87.4055 22.0848 88.87 22.3959L88.7326 22.3306C88.5546 22.2683 88.3735 22.203 88.1955 22.1408C76.9198 18.2643 65.4505 18.7527 55.0086 22.3399L54.9648 22.3772C55.7767 22.2186 58.1062 21.363 58.9243 21.3039C59.1616 21.279 59.5832 20.9772 59.6425 21.2105Z" fill="#54CC5A"/>
<path d="M112.951 40.6022C113.023 40.68 112.842 40.4249 112.776 40.3377C112.629 40.1324 112.467 39.9426 112.32 39.7373C112.136 39.4884 111.949 39.2333 111.764 38.9813C111.786 39.0031 111.805 39.0311 111.824 39.0528C111.855 39.0933 111.933 39.1835 111.97 39.2271C111.861 39.0902 111.746 38.9502 111.636 38.8133C111.368 38.4711 111.087 38.1382 110.787 37.8333H110.784C110.784 37.8364 110.834 37.9142 110.834 37.9297C110.693 37.7524 110.565 37.5688 110.428 37.3915C110.356 37.295 110.228 37.0088 110.2 37.1177C110.197 37.1457 110.2 37.1737 110.212 37.2048C110.156 37.1146 110.103 37.0181 110.028 36.9404C109.447 36.3244 108.792 35.7892 108.205 35.1732C107.483 34.4172 106.724 33.7452 105.953 33.0483C105.875 32.9799 105.507 32.6065 105.507 32.5537C105.519 32.3888 105.772 32.703 106.028 32.9457C106.228 33.1292 106.44 33.3066 106.637 33.4932C107.212 34.0346 107.774 34.5821 108.354 35.1141C108.542 35.2915 108.71 35.4812 108.904 35.6617C108.935 35.6897 109.051 35.7612 109.023 35.7301C108.66 35.3288 108.283 34.9461 107.917 34.5572V34.5541C107.752 34.3861 107.583 34.2212 107.421 34.0532L107.38 33.9288C106.278 32.8554 105.129 31.8256 103.927 30.8487L103.955 30.9452C103.227 30.5345 102.693 29.9434 102.022 29.4487C101.866 29.3305 101.716 29.0878 101.56 28.9603C101.541 28.9509 101.522 28.9385 101.51 28.9292C101.438 28.8825 101.36 28.8732 101.285 28.9198C101.007 29.0941 101.475 29.567 101.697 29.8065C102.031 30.1674 102.406 30.4879 102.79 30.8021C102.799 30.8114 102.809 30.8208 102.818 30.8301C103.015 30.9888 103.205 31.1474 103.399 31.3092C103.436 31.3372 103.48 31.3652 103.521 31.3901C103.493 31.3714 103.48 31.3808 103.493 31.4274C103.539 31.611 103.939 31.8505 104.136 32.0185C105.013 32.7652 105.884 33.5337 106.703 34.2928C107.068 34.6381 107.405 35.0177 107.77 35.3661C107.767 35.3537 107.711 35.2759 107.699 35.251C107.948 35.5372 108.411 36.2435 108.707 36.4177C108.835 36.4893 108.411 35.9292 108.511 36.035C109.119 36.7008 109.438 37.631 110.072 38.2595C110.112 38.2999 110.1 38.0604 110.141 38.1008C110.356 38.3279 110.478 38.6235 110.662 38.8755C110.681 38.8973 110.749 38.9471 110.74 38.9222C110.659 38.7075 110.297 38.1444 110.453 38.3062C110.699 38.5644 110.787 38.9377 111.015 39.2084C111.084 39.2955 110.859 38.8319 110.946 38.8911C111.152 39.0311 111.24 39.2924 111.402 39.4791C111.721 39.8462 112.014 40.2444 112.389 40.5524C112.507 40.652 112.28 40.2662 112.198 40.1386C111.97 39.7777 111.717 39.4324 111.461 39.0871C111.371 38.9688 111.265 38.8631 111.165 38.7511C111.093 38.6702 110.849 38.4493 110.946 38.5053C111.649 38.8879 112.398 40.0297 112.951 40.6022ZM103.955 31.7479C103.827 31.6981 103.608 31.4523 103.521 31.3932C103.577 31.4305 103.636 31.4616 103.686 31.5021C103.786 31.5768 104.07 31.7914 103.955 31.7479Z" fill="#54CC5A"/>
<path d="M121.026 59.8696C121.204 60.0501 121.354 60.2554 121.519 60.4452C121.701 60.6567 121.419 59.9007 121.376 59.6269C121.241 58.7652 121.079 57.9376 120.851 57.0945C120.286 55.0162 119.552 53.0033 118.809 50.9811L118.856 50.894C117.188 46.8681 115.006 43.0632 112.358 39.5756L112.264 39.5601C112.829 40.3627 113.619 41.181 113.969 42.1112C114 42.1952 113.813 42.0085 113.757 41.9401C113.572 41.713 113.426 41.4579 113.245 41.2276C113.026 40.9445 112.782 40.6738 112.564 40.3907C112.57 40.397 112.573 40.4063 112.576 40.4125C112.536 40.3565 112.52 40.3378 112.564 40.3907C112.551 40.3752 111.702 39.0498 112.127 39.8214C112.255 40.0516 112.433 40.2476 112.579 40.4654C112.689 40.6272 112.929 41.1499 112.889 40.9601C112.882 40.929 112.864 40.8854 112.842 40.8418C112.898 40.9445 112.954 41.0441 113.023 41.1374C113.404 41.6601 113.966 42.1268 114.312 42.6712C114.625 43.1597 114.915 43.9343 115.184 44.4383C115.427 44.9019 115.69 45.3592 115.971 45.801C115.986 45.8259 115.98 45.6983 115.996 45.7232C116.18 46.0343 116.252 46.473 116.42 46.8028C116.508 46.9677 116.633 47.1077 116.714 47.2757C116.864 47.5868 116.97 47.9135 117.11 48.2246C117.126 48.2557 117.082 48.097 117.098 48.1281C117.142 48.209 117.188 48.2961 117.195 48.3864C117.198 48.4766 117.095 48.5668 117.126 48.6477C117.223 48.8935 117.463 49.0646 117.563 49.3104C117.95 50.2686 116.667 48.8873 117.729 50.4117C117.907 50.6668 118.253 50.7602 118.456 50.9935C118.743 51.3264 119.265 52.798 119.44 53.2491C119.627 53.7313 119.549 54.1451 119.552 54.5713C119.552 54.7518 119.627 54.9291 119.618 55.1127C119.615 55.1469 119.515 55.122 119.518 55.1562C119.633 56.4225 120.011 56.4629 120.439 57.866C120.636 58.5163 120.695 59.2443 120.948 59.8727C120.964 59.8914 121.007 59.8509 121.026 59.8696Z" fill="#54CC5A"/>
<path d="M121.276 58.2859L121.182 58.2952C121.319 58.8708 121.485 59.4712 121.563 60.053C121.797 61.8201 121.419 59.9037 121.6 60.9428C121.828 62.2588 121.963 63.5562 122.106 64.8846C122.219 65.8926 122.375 66.8975 122.406 67.9149C122.431 68.786 122.34 69.6353 122.334 70.5002C122.319 72.9518 122.059 75.363 121.781 77.7959C121.694 78.5581 121.747 79.0403 121.6 79.7808C121.391 80.8323 121.154 81.8839 120.932 82.9355L121.035 82.9604C123.237 74.6474 123.205 66.2006 121.276 58.2859Z" fill="#54CC5A"/>
<path d="M98.7494 40.4468C98.6308 40.4033 98.5059 40.3473 98.406 40.3161C98.3841 40.3099 98.3654 40.3068 98.3435 40.3037C98.3216 40.3006 98.2967 40.2913 98.2779 40.2913C98.2436 40.2913 98.2124 40.2975 98.1967 40.3193C98.0968 40.4406 98.0906 40.761 98.2467 40.7828C98.2842 40.789 98.3216 40.7766 98.3622 40.7579C98.3747 40.7517 98.3872 40.7424 98.3997 40.7362C98.4278 40.7206 98.4559 40.7019 98.4871 40.6802C98.4996 40.6677 98.5152 40.6584 98.5277 40.6459C98.5621 40.6179 98.5964 40.5868 98.6277 40.5557C98.6433 40.5402 98.6589 40.5277 98.6714 40.5153C98.6995 40.4904 98.7245 40.4655 98.7494 40.4468Z" fill="#54CC5A"/>
<path d="M81.1943 30.4569C81.2566 30.3604 81.3188 30.2578 81.3903 30.1675C81.3935 30.1644 81.3966 30.1613 81.3966 30.1582L81.3935 30.1613C81.3935 30.1613 81.3934 30.1582 81.3966 30.1582C81.3934 30.1613 81.3903 30.1644 81.3872 30.1675C81.2939 30.2578 81.2006 30.3698 81.1943 30.4569Z" fill="#54CC5A"/>
<path d="M86.2746 30.9795C86.387 31.0324 86.462 30.8084 86.5713 30.7493C86.7524 30.6497 87.1521 30.712 87.1396 30.5066C87.1208 30.2017 86.6993 30.0804 86.5182 29.8377C86.3464 29.6137 86.2777 29.3151 86.081 29.1097C85.9842 29.0102 85.8156 29.0164 85.6844 28.9697C85.6033 29.2093 85.5845 29.4862 85.4346 29.6915C85.2535 29.9373 84.6977 29.5515 85.2785 30.1364C85.5876 30.4444 85.8843 30.7929 86.2746 30.9795Z" fill="#54CC5A"/>
<path d="M88.0046 29.2495C87.6736 29.1655 87.4863 28.7891 87.1678 28.6646C87.0335 28.6117 86.8836 28.73 86.74 28.7486C86.5401 28.7766 86.2403 28.6397 86.1342 28.8109C86.0405 28.9602 86.256 29.1842 86.4152 29.2651C86.6494 29.3833 86.9991 29.1717 87.2021 29.3429C87.3176 29.4424 86.7681 29.5202 86.8586 29.6415C87.0116 29.8469 87.3395 29.8842 87.5987 29.8718C87.9141 29.8624 88.1888 29.2184 88.4137 29.5575C88.8977 30.2855 87.5706 30.0429 87.3582 29.9869C87.1959 29.9433 86.8399 29.6664 86.8867 29.8251C87.0147 30.2638 87.7017 30.5251 87.6486 30.9793C87.6143 31.278 87.0866 30.7304 86.7837 30.7118C86.6307 30.7024 87.1834 30.7958 87.1834 30.9513C87.1709 32.0496 85.3941 30.242 85.8937 31.9064C85.9687 32.1522 86.4121 31.978 86.6432 32.0869C86.8024 32.1616 86.8617 32.4104 87.0366 32.4353C87.2302 32.4633 87.3895 32.1896 87.5862 32.2207C87.7891 32.258 87.9422 32.4478 88.0639 32.6127C88.1014 32.6625 87.939 32.7838 88.0015 32.79C89.6159 32.9673 87.9984 32.2642 87.7829 32.034C87.7017 31.95 87.6486 31.7353 87.7579 31.6887C87.989 31.586 88.2669 31.6887 88.5198 31.7104C88.6947 31.726 89.0319 31.9749 89.0382 31.8007C89.0538 31.4958 88.7478 31.2624 88.5511 31.026C88.498 30.9638 88.2513 30.9918 88.3169 30.942C88.6791 30.6433 90.2747 30.4504 90.1873 29.8406C90.0249 28.6957 88.982 28.8886 88.3387 28.954C88.3356 28.9664 88.1482 29.2869 88.0046 29.2495Z" fill="#54CC5A"/>
<path d="M83.9855 30.4009C84.1073 30.0152 83.7263 29.6356 83.5983 29.2529C83.5983 29.2529 83.0737 29.4303 83.0019 29.6574C82.9582 29.7974 83.3016 29.7196 83.4203 29.8098C83.6389 29.9747 83.9043 30.6561 83.9855 30.4009Z" fill="#54CC5A"/>
<path d="M79.3422 29.4022C79.5826 29.3213 79.6357 28.9946 79.7825 28.7862C79.7825 28.7862 78.8707 28.752 78.4148 28.7582C78.2992 28.7582 78.0713 28.696 78.0713 28.808C78.0838 29.3307 79.1236 29.4769 79.3422 29.4022Z" fill="#54CC5A"/>
<path d="M83.5608 32.1337C83.7575 31.7915 83.4109 31.3559 83.3391 30.9701C83.3391 30.9701 82.9956 30.8146 82.9269 30.9328C82.7708 31.2034 82.6771 31.5861 82.8239 31.8661C82.9456 32.0963 83.4328 32.3577 83.5608 32.1337Z" fill="#54CC5A"/>
<path d="M84.1762 31.216C84.1012 31.6266 84.9287 31.6826 85.0255 31.7791C85.1536 31.9098 85.0349 32.1804 85.1723 32.3049C85.7031 32.7871 86.3651 33.1075 86.9459 33.5307C87.0177 33.5836 87.0427 33.7329 87.1302 33.7267C87.2363 33.7173 87.2488 33.484 87.3581 33.4996C87.4643 33.5151 87.4174 33.7298 87.5111 33.7796C87.7422 33.8978 88.273 34.212 88.2637 33.9569C88.2418 33.2195 87.3238 32.6222 86.6805 32.8867L86.6867 32.9147C86.6836 32.9147 86.6836 32.9115 86.6805 32.9115C86.6024 32.8649 86.5275 32.8182 86.4494 32.7715C86.4463 32.7684 86.4401 32.7653 86.4369 32.7622C86.4026 32.7435 86.3682 32.7249 86.3339 32.7062C86.234 32.6502 86.1309 32.5973 86.0216 32.5631C85.9654 32.5444 85.9748 32.7591 85.9373 32.7124C85.6969 32.3951 85.5408 32.0218 85.344 31.6795C85.0786 31.496 84.8475 31.2409 84.5478 31.1226C84.426 31.076 84.198 31.0946 84.1762 31.216Z" fill="#54CC5A"/>
<path d="M81.7562 31.0322C81.7063 30.777 81.2504 30.7397 81.191 30.4846L81.1942 30.4535C81.1817 30.4722 81.1692 30.4908 81.1536 30.5095C81.1411 30.525 81.1317 30.5406 81.1192 30.5562C81.1099 30.5655 81.1005 30.5748 81.0911 30.5842C81.0724 30.6028 81.0568 30.6246 81.0349 30.6402C81.0318 30.6433 81.0255 30.6464 81.0193 30.6495C80.9631 30.693 80.9038 30.7179 80.8288 30.7148C80.5384 30.7024 80.5134 30.2295 80.3573 29.9868C80.3573 29.9868 79.7016 30.0957 79.3862 30.2015C79.3643 30.2077 79.3924 30.2139 79.4237 30.2202L79.5142 30.2668C79.5267 30.3135 79.3955 30.3664 79.4393 30.385C79.6735 30.497 80.2105 30.3322 80.1949 30.5904C80.1762 30.8673 79.2051 30.6806 79.408 30.8704C79.6953 31.1379 80.2043 30.8735 80.5884 30.9575C80.8538 31.0135 81.0661 31.2655 81.3378 31.2811C81.5064 31.2997 81.7875 31.1908 81.7562 31.0322Z" fill="#54CC5A"/>
<path d="M76.0074 30.8426C75.998 30.855 76.1042 30.7617 76.4508 30.4412C76.4633 30.4288 76.4758 30.4195 76.4883 30.407C76.8005 30.0866 76.0324 30.8084 76.0074 30.8426Z" fill="#54CC5A"/>
<path d="M82.9026 34.4144C83.777 32.7624 82.9526 33.9664 82.6559 33.3908C82.5373 33.1575 82.5748 32.8713 82.5342 32.613C82.5342 32.613 82.0845 33.4344 81.7722 33.2944C81.6317 33.2322 81.6942 32.9553 81.5537 32.8899C81.4537 32.8433 81.2508 32.9584 81.2726 33.0642C81.3226 33.3068 81.5849 33.453 81.7129 33.6677C81.7816 33.7828 81.7473 33.9508 81.8472 34.0442C81.9627 34.1499 82.1563 34.1219 82.2906 34.2028C82.3437 34.2308 82.7215 34.7566 82.9026 34.4144Z" fill="#54CC5A"/>
<path d="M92.2825 29.1346C92.2513 29.1128 92.2045 29.1035 92.1639 29.0942H92.1233C92.0858 29.0911 92.0514 29.0911 92.0046 29.0911C92.1045 29.1097 92.2045 29.1377 92.2638 29.1502C92.2732 29.1533 92.2825 29.1533 92.2856 29.1595C92.295 29.1595 92.3044 29.1595 92.3044 29.1595C92.3075 29.1533 92.3013 29.144 92.2825 29.1346ZM104.742 46.2988C104.701 45.5584 104.248 44.3917 104.061 43.7912C103.34 41.4734 104.092 39.0747 102.89 36.8596C101.891 35.0022 100.167 33.6769 98.5558 32.3764C97.2943 31.356 95.1584 29.0506 93.3567 29.1035C91.9578 29.1502 90.64 29.844 90.5526 30.9018C90.512 31.412 90.7587 32.0093 91.4144 32.6502C92.9133 34.1125 94.6807 35.0209 96.0328 36.6729C96.7322 37.5192 97.5691 38.3343 98.2155 39.2023C98.5027 39.5787 98.612 39.9987 98.7088 40.4312C98.7088 40.4436 98.7119 40.4592 98.7182 40.4716C98.8056 40.9072 98.8774 41.3583 99.0835 41.7814C99.8361 43.337 101.554 45.2317 102.993 46.2957C103.065 46.3548 103.14 46.4046 103.212 46.4544C104.458 47.3224 104.779 46.9926 104.742 46.2988Z" fill="#54CC5A"/>
<path d="M78.0588 34.7999C78.2431 34.7875 78.4148 34.5106 78.5741 34.6039C78.7677 34.719 78.6428 35.0737 78.7989 35.2355C79.3984 35.8639 79.9418 35.7115 80.6537 35.3382C81.2907 35.0022 80.2728 34.5946 80.2415 34.4577C80.1323 33.9662 80.3227 33.4528 80.3852 32.955C80.407 32.7901 80.5569 32.619 80.4945 32.4635C80.4102 32.255 80.2134 31.9377 79.998 31.9999C79.7013 32.0839 79.617 32.4821 79.4859 32.7559C79.4546 32.8213 79.5827 32.9177 79.5327 32.9706C79.4546 33.0546 79.2173 33.1821 79.1986 33.0701C79.158 32.843 79.592 32.5879 79.4328 32.4168C79.0081 31.9595 78.3243 31.8288 77.7684 31.5301C77.7684 31.5301 77.478 31.0417 77.2282 30.9732C77.0065 30.911 76.8036 31.1475 76.5819 31.2066C76.3695 31.2657 76.0698 31.1599 75.9386 31.3341C75.8512 31.4492 76.3102 31.415 76.3133 31.5612C76.3383 32.2892 75.5139 31.3995 75.6701 31.8008C75.7762 32.0746 75.9823 32.3141 76.2196 32.4946C76.3851 32.6221 76.8723 32.4759 76.8161 32.675C76.6412 33.3159 74.2805 31.6079 75.1673 33.0017C75.3578 33.3004 75.7856 33.3813 76.0135 33.6519C76.2071 33.8822 76.1728 34.2679 76.4039 34.4639C76.6225 34.6506 76.9534 34.6413 77.2345 34.6973C77.5061 34.7564 77.7841 34.8217 78.0588 34.7999Z" fill="#54CC5A"/>
<path d="M97.2666 39.1214C97.3322 39.2085 97.607 39.3765 97.557 39.2769C97.379 38.9347 97.0918 38.6578 96.8638 38.3467C96.8607 38.3467 97.0918 38.888 97.2666 39.1214Z" fill="#54CC5A"/>
<path d="M81.3539 36.4768C81.5287 36.6106 81.6817 36.788 81.8909 36.8657C82.0346 36.9186 82.3531 36.9933 82.3468 36.8408C82.3344 36.4022 82.0159 36.0257 81.8535 35.6182C81.8535 35.6182 81.0978 35.8204 80.9229 36.1222C80.8293 36.2839 81.2071 36.3648 81.3539 36.4768Z" fill="#54CC5A"/>
<path d="M85.6126 38.5427C85.7032 38.5707 85.775 38.4462 85.8562 38.3964C85.7906 38.3778 85.7188 38.3062 85.6595 38.3404C85.6002 38.3747 85.5439 38.524 85.6126 38.5427Z" fill="#54CC5A"/>
<path d="M95.6262 41.5138C95.6293 41.4049 96.0509 41.6134 95.9697 41.5356C95.7823 41.3614 95.5232 41.2867 95.2796 41.1902C95.1703 41.1498 95.0298 41.1934 94.9267 41.1311C94.8643 41.0907 94.9143 40.9631 94.8549 40.9165C94.8143 40.8885 94.7644 40.876 94.7082 40.8667C94.7206 40.8698 94.7394 40.8698 94.7488 40.8698C94.7706 40.8698 94.7862 40.8667 94.7956 40.8511C94.9143 40.7236 94.399 40.3565 94.374 40.3471C94.2335 40.2756 94.0774 40.1387 93.9213 40.1822C93.8307 40.2102 93.9993 40.4062 93.9306 40.4747C93.8744 40.5245 93.8057 40.3938 93.7526 40.3378C93.6028 40.1791 93.4654 40.0049 93.3217 39.8431C93.3217 39.8431 93.0875 39.5507 92.9345 39.4511C92.7784 39.3422 92.3787 39.4107 92.4099 39.2178C92.4505 38.972 93.1718 39.0218 93.0438 38.804C92.8752 38.5115 92.3225 38.8071 92.0571 38.608C91.9384 38.5209 92.3506 38.4089 92.3225 38.2627C92.2725 37.9609 92.157 37.5253 91.8572 37.4755C91.6012 37.4351 91.7011 38.0978 91.4451 38.1133C90.5676 38.1724 91.2015 36.956 91.061 36.8035C90.9392 36.6666 90.8549 37.1769 90.6675 37.1986C90.4521 37.2267 90.1866 37.1115 90.0774 36.9249C89.9275 36.676 90.1398 36.3151 89.9962 36.06C89.9556 35.9822 89.9087 35.92 89.8681 35.8609C89.865 35.8484 89.8556 35.8329 89.8463 35.8235C89.8088 35.7737 89.7776 35.7333 89.7464 35.6991C89.7432 35.696 89.737 35.6866 89.7339 35.6804C89.6558 35.6026 89.584 35.5591 89.509 35.5404C89.0875 35.164 88.6004 34.8715 88.1445 34.5386C88.2225 34.6164 88.7659 35.1484 89.0812 35.3849C89.1406 35.4253 89.2686 35.4906 89.3748 35.5249C89.2561 35.5435 89.1312 35.612 88.9876 35.6835C88.9282 35.7115 88.8627 35.7426 88.7908 35.7644C88.7877 35.7675 88.7784 35.7737 88.7721 35.7737C88.6909 35.8017 88.6035 35.8235 88.5067 35.836C88.4193 35.8453 88.3974 35.64 88.31 35.6617C88.1944 35.6835 88.0914 36.0444 88.0851 35.9293C88.0851 35.7146 88.3318 35.5373 88.31 35.3288C88.2475 34.7906 87.8634 34.3924 87.776 34.4453C87.5387 34.6008 87.4231 34.9462 87.1452 35.0177C86.9579 35.0675 86.7893 34.6724 86.6144 34.7595C85.7682 35.1826 86.7924 35.5964 86.8642 35.7831C86.911 35.8982 86.808 36.1969 86.7143 36.1253C86.4551 35.9262 86.1023 35.0706 86.3084 34.7004C86.4364 34.4733 86.8423 34.4671 86.9298 34.2213C86.9797 34.0844 86.6831 33.9537 86.5519 34.0159C86.0024 34.2742 85.4778 34.6288 85.0906 35.0893C84.9532 35.2542 84.9532 35.584 85.1093 35.7302C85.8587 36.4364 86.7674 36.956 87.6448 37.4973C87.6542 37.5067 87.6729 37.5098 87.6948 37.5067C87.6979 37.5067 87.7073 37.5035 87.7167 37.5035C87.7292 37.5004 87.7385 37.5004 87.7541 37.4911C87.7729 37.488 87.7854 37.4724 87.7947 37.4631C87.7979 37.46 87.7978 37.46 87.7978 37.46C87.8072 37.4475 87.8103 37.432 87.801 37.4226C87.8384 37.4538 87.8728 37.4849 87.9071 37.5129C87.9071 37.516 87.9071 37.516 87.9071 37.516C87.9384 37.544 87.9665 37.572 87.9883 37.5875C87.9915 37.5907 87.9977 37.5969 88.0071 37.6C88.0258 37.6187 88.0383 37.6311 88.0539 37.6404C88.0726 37.6529 88.082 37.6622 88.082 37.6622C88.3381 37.4849 88.4598 37.0026 88.7721 37.0338C89.1281 37.0711 89.2967 37.5253 89.5246 37.8084C89.6058 37.9049 89.5965 38.0573 89.6808 38.1538C89.7901 38.2938 89.9649 38.3684 90.0836 38.4991C90.1929 38.6173 90.2241 38.8009 90.3521 38.9004C90.4833 39.0093 90.705 38.9813 90.8236 39.0996C90.8923 39.168 90.7737 39.308 90.833 39.3858C90.9048 39.4822 91.0984 39.4449 91.1703 39.5445C91.367 39.8182 91.3982 40.1916 91.6043 40.456C91.8198 40.7236 92.8877 40.9165 92.9095 41.2711C92.922 41.5574 92.4349 41.5947 92.1726 41.7129C91.8853 41.8436 91.5543 41.8778 91.2764 42.0178C91.2046 42.0489 91.1453 42.0987 91.0859 42.1547C91.0391 42.1951 90.9954 42.2356 90.9485 42.276C90.9204 42.304 90.8923 42.332 90.8611 42.3538C90.8236 42.3911 90.7831 42.4223 90.7425 42.4503C90.7206 42.4627 90.6925 42.4783 90.6644 42.4907C90.6363 42.5031 90.6082 42.5094 90.5863 42.5125C90.5145 42.4627 90.4396 42.4067 90.3709 42.3538H90.3678C90.3709 42.3818 90.3771 42.4098 90.3865 42.4316C90.3896 42.4503 90.3896 42.472 90.399 42.4876C90.4115 42.5249 90.4396 42.5467 90.4864 42.5467L90.6019 42.528C90.8767 42.7271 91.1578 42.9232 91.4294 43.1347C91.6262 43.284 92.4786 43.8627 92.4849 43.9281C92.4942 44.0649 91.979 43.9094 92.0789 44.0058C92.4661 44.3792 93.0251 44.5285 93.4529 44.8583C93.9088 45.2098 94.0368 46.0872 94.9299 45.8632C95.8167 45.6454 95.673 44.3761 95.3233 43.8658C95.2171 43.7103 94.9392 43.7289 94.8393 43.5703C94.7925 43.4987 95.0641 43.5018 95.0454 43.4209C94.8768 42.7054 94.6207 43.3649 94.3022 43.0787C94.2054 42.9978 94.1336 42.8889 94.068 42.7769C93.9868 42.6369 93.9775 42.4409 93.8588 42.3258C93.8026 42.276 93.6121 42.3476 93.5903 42.3476C93.5934 42.3445 93.5934 42.3383 93.5996 42.3383C93.837 42.192 94.1242 42.1298 94.3803 42.0054C94.5552 41.9151 94.7456 41.5542 94.8861 41.6974C95.1703 41.9836 95.0548 42.4969 95.2296 42.864C95.2577 42.9232 95.3889 42.864 95.4045 42.8049C95.467 42.528 95.2858 42.1889 95.4451 41.9525C95.5325 41.8249 95.7511 42.1267 95.901 42.08C96.3444 41.9494 95.6231 41.5947 95.6262 41.5138ZM94.6363 40.8542C94.6051 40.8511 94.577 40.8449 94.5489 40.8356C94.5114 40.8262 94.4771 40.8076 94.449 40.7765C94.4365 40.764 94.4396 40.7578 94.4459 40.764H94.4584C94.4615 40.7671 94.4771 40.7734 94.4865 40.7765C94.5427 40.8045 94.6176 40.8449 94.6863 40.8636C94.6676 40.8636 94.6551 40.8574 94.6363 40.8542Z" fill="#54CC5A"/>
<path d="M106.637 39.9177C105.925 39.451 105.766 40.1666 106.543 40.7111C106.69 40.8137 106.849 40.2879 106.98 40.4093C107.168 40.5804 106.871 40.9786 107.043 41.1653C107.305 41.4515 107.752 41.4826 108.104 41.6413C108.104 41.6413 108.623 41.6693 108.754 41.492C108.869 41.3302 108.698 41.0937 108.635 40.9039C108.573 40.7173 108.435 40.5586 108.389 40.3688C108.376 40.3191 108.492 40.2786 108.467 40.2319C108.211 39.7311 107.589 39.3328 107.171 39.0435C107.065 38.9688 106.837 38.7386 106.83 38.8661C106.808 39.3297 107.055 39.7684 107.111 40.2288L107.036 40.2133C107.005 40.1977 106.98 40.1853 106.986 40.2039C107.046 40.3377 107.367 40.6426 107.252 40.5493C107.027 40.3626 106.883 40.0795 106.637 39.9177Z" fill="#54CC5A"/>
<path d="M87.8637 43.1843C88.0542 43.0132 87.5327 42.7861 87.4078 42.5559C87.2423 42.251 87.1331 41.9181 86.9925 41.6008C86.9925 41.6008 86.6053 41.0719 86.3305 40.907C86.2525 40.8634 86.2275 41.0563 86.1494 41.103C85.9027 41.2461 85.5593 41.2461 85.3719 41.4577C85.2657 41.579 85.4968 41.803 85.4063 41.9368C85.2876 42.1172 84.7443 42.0706 84.8379 42.2666C84.9472 42.4906 85.3875 42.1483 85.5842 42.3008C85.7622 42.4408 85.5031 42.9666 85.731 42.9603C86.1963 42.9479 86.5085 42.4532 86.9332 42.2635C86.9925 42.2386 86.8458 42.391 86.8739 42.4532C86.9582 42.6648 87.6951 43.3399 87.8637 43.1843Z" fill="#54CC5A"/>
<path d="M58.9704 35.5684C58.7331 35.7364 58.6019 36.0164 58.4364 36.256C58.3615 36.3649 58.1335 36.6885 58.2459 36.6076C58.6113 36.3462 58.9017 35.9947 59.2327 35.6898C59.1452 35.6493 59.0484 35.5124 58.9704 35.5684Z" fill="#54CC5A"/>
<path d="M57.906 38.4243C58.0778 38.555 58.3151 38.2252 58.4181 38.0385C58.4775 37.9328 58.2807 37.8083 58.3151 37.6932C58.4088 37.379 58.6273 37.1145 58.7804 36.8252C58.7804 36.8252 58.3463 37.491 58.1558 37.8394C58.0559 38.0261 57.7343 38.2937 57.906 38.4243Z" fill="#54CC5A"/>
<path d="M56.3844 39.1681C56.297 39.2583 56.5468 39.4419 56.6685 39.4139C56.9964 39.3423 57.2525 39.0841 57.5429 38.9223C57.443 38.8943 57.3461 38.8134 57.2462 38.8352C56.9433 38.8974 56.5999 38.9503 56.3844 39.1681Z" fill="#54CC5A"/>
<path d="M55.854 44.2456C55.9008 44.4043 56.1943 44.4136 56.2224 44.5754C56.2568 44.7434 55.9008 44.9114 56.0101 45.0483C56.135 45.2039 56.5753 44.8554 56.6065 45.0483C56.6409 45.2505 56.085 45.1385 56.0601 45.3439C56.0257 45.6487 56.2412 45.9723 56.4816 46.1652C56.9219 46.5199 57.0374 45.711 57.0562 45.3719C57.078 44.9581 57 44.5381 57.0249 44.1243C57.0312 44.0496 57.1811 44.0061 57.1498 43.9376C56.9812 43.5581 56.7002 43.2407 56.4754 42.8892C56.4816 42.8923 55.7072 43.7727 55.854 44.2456Z" fill="#54CC5A"/>
<path d="M99.3302 59.7295C99.4051 59.7855 99.6799 59.798 99.6112 59.7326C99.2709 59.3873 98.8431 59.1415 98.459 58.8459C98.459 58.8491 98.9992 59.4775 99.3302 59.7295Z" fill="#54CC5A"/>
</g>
<path d="M106.059 14.4067L116.504 24.7855L114.406 26.7766C114.315 26.898 114.122 26.8824 114.037 26.7486L106.059 14.4067Z" fill="#839299"/>
<path d="M106.059 14.4067L114.453 25.0624L114.034 26.7518L106.059 14.4067Z" fill="#5F737C"/>
<path d="M106.059 14.4067L108.242 24.9691C108.31 25.2989 108.67 25.7655 109.004 25.7282L114.453 25.0624L106.059 14.4067Z" fill="#D2D9DC"/>
<path d="M106.059 14.4067L120.161 23.3948C120.386 23.5379 120.367 23.8584 120.133 23.9548L116.507 24.7886L106.059 14.4067Z" fill="#D2D9DC"/>
<path d="M115.237 29.6077C115.165 29.5953 115.096 29.5486 115.059 29.4771C114.906 29.1971 114.753 28.914 114.6 28.6339C114.537 28.5188 114.578 28.3788 114.69 28.3197C114.806 28.2637 114.949 28.3104 115.012 28.4286C115.165 28.7086 115.321 28.9917 115.471 29.2748C115.533 29.39 115.493 29.53 115.377 29.586C115.333 29.6109 115.283 29.6171 115.237 29.6077Z" fill="#D2D9DC"/>
<path d="M97.4844 92.9507C97.4032 92.9351 97.3314 92.8822 97.2939 92.8013C97.2409 92.68 97.2971 92.5462 97.4188 92.4996C97.9934 92.288 98.568 92.0609 99.1269 91.8276C99.2456 91.7778 99.3861 91.8338 99.4423 91.9551C99.4985 92.0733 99.4485 92.2102 99.3299 92.26C98.7647 92.4964 98.1839 92.7236 97.6031 92.9382C97.5687 92.9569 97.525 92.96 97.4844 92.9507ZM100.679 91.6284C100.604 91.616 100.535 91.5662 100.498 91.4947C100.438 91.3764 100.482 91.2395 100.598 91.1835C101.15 90.9284 101.706 90.6609 102.243 90.384C102.359 90.3249 102.502 90.3715 102.568 90.4867C102.634 90.6018 102.593 90.7418 102.481 90.8009C101.937 91.0778 101.378 91.3515 100.819 91.6098C100.776 91.6315 100.726 91.6378 100.679 91.6284ZM103.751 90.0698C103.683 90.0573 103.617 90.0169 103.58 89.9515C103.511 89.8395 103.545 89.6964 103.655 89.6342C104.189 89.3355 104.716 89.0244 105.228 88.7102C105.338 88.6449 105.485 88.6791 105.559 88.7911C105.634 88.9031 105.606 89.0462 105.497 89.1115C104.982 89.4289 104.445 89.7431 103.908 90.0449C103.858 90.0698 103.805 90.0791 103.751 90.0698ZM106.68 88.2777C106.618 88.2653 106.559 88.2311 106.518 88.1751C106.44 88.0662 106.465 87.9231 106.568 87.8515C107.074 87.5155 107.574 87.1639 108.061 86.8093C108.164 86.7346 108.314 86.7595 108.395 86.8653C108.476 86.9711 108.46 87.1173 108.357 87.192C107.867 87.5497 107.361 87.9044 106.849 88.2435C106.799 88.2777 106.74 88.2871 106.68 88.2777ZM109.453 86.2617C109.397 86.2524 109.344 86.2213 109.303 86.1746C109.216 86.0719 109.229 85.9257 109.325 85.8448C109.847 85.4279 110.281 85.0328 110.652 84.6408C110.74 84.5475 110.89 84.5475 110.987 84.6377C111.083 84.7279 111.093 84.8773 111.008 84.9675C110.624 85.375 110.175 85.7826 109.638 86.2119C109.584 86.2586 109.516 86.2742 109.453 86.2617ZM111.773 83.7821C111.742 83.7759 111.714 83.7666 111.683 83.7479C111.57 83.6764 111.53 83.5332 111.595 83.4244C111.92 82.8861 112.123 82.3417 112.198 81.8035C112.217 81.679 112.332 81.595 112.464 81.6168H112.467C112.598 81.6417 112.688 81.763 112.67 81.8906C112.585 82.4879 112.364 83.0883 112.008 83.6764C111.961 83.7604 111.867 83.7977 111.773 83.7821ZM104.07 80.8608C104.064 80.8608 104.057 80.8577 104.051 80.8577L104.011 80.8483C103.377 80.6865 102.762 80.4065 102.228 80.0394C102.118 79.9648 102.084 79.8185 102.156 79.7128C102.228 79.607 102.374 79.5852 102.484 79.6599C102.968 79.9928 103.527 80.2479 104.101 80.3941L104.145 80.4034C104.273 80.4377 104.357 80.5652 104.329 80.6897C104.307 80.811 104.192 80.8826 104.07 80.8608ZM105.712 81.0599C105.6 81.0412 105.513 80.9448 105.506 80.8297C105.5 80.699 105.597 80.5963 105.728 80.5963C106.321 80.5932 106.924 80.5123 107.511 80.3474C107.636 80.3132 107.77 80.3879 107.811 80.5123C107.851 80.6368 107.786 80.7643 107.661 80.7985C107.033 80.9728 106.39 81.0599 105.753 81.063C105.741 81.0661 105.725 81.063 105.712 81.0599ZM101.166 78.879C101.094 78.8665 101.029 78.823 100.991 78.7576C100.726 78.3003 100.601 77.8181 100.62 77.3296C100.623 77.2643 100.629 77.2021 100.635 77.1367C100.651 77.0123 100.676 76.8878 100.713 76.7696C100.751 76.6483 100.879 76.5829 101.007 76.6265C101.132 76.6701 101.207 76.8038 101.169 76.9252C101.141 77.0216 101.119 77.1212 101.107 77.2207C101.1 77.2705 101.094 77.3234 101.094 77.3732C101.075 77.7714 101.178 78.1634 101.397 78.5399C101.463 78.655 101.425 78.795 101.313 78.8541C101.269 78.8821 101.216 78.8883 101.166 78.879ZM109.057 80.2136C108.985 80.2012 108.919 80.1576 108.882 80.0892C108.816 79.9741 108.854 79.8341 108.966 79.775C109.488 79.5043 109.984 79.1683 110.44 78.7825C110.537 78.7016 110.687 78.7141 110.774 78.8136C110.862 78.9132 110.855 79.0625 110.759 79.1434C110.278 79.5541 109.756 79.9057 109.204 80.1919C109.157 80.2168 109.107 80.223 109.057 80.2136ZM112.289 80.4625C112.198 80.447 112.117 80.3785 112.089 80.2852C111.93 79.7439 111.636 79.215 111.221 78.7141C111.136 78.6114 111.146 78.4652 111.246 78.3843C111.346 78.3065 111.496 78.3252 111.58 78.4279C112.039 78.9816 112.364 79.5696 112.542 80.1763C112.579 80.3008 112.507 80.4283 112.382 80.4594C112.351 80.4657 112.32 80.4657 112.289 80.4625ZM111.677 78.0483C111.636 78.0421 111.599 78.0234 111.564 77.9985C111.458 77.9145 111.439 77.7683 111.517 77.6687C111.889 77.2021 112.204 76.6981 112.454 76.1692C112.507 76.0541 112.648 76.0105 112.77 76.0696C112.888 76.1287 112.941 76.2718 112.888 76.3838C112.626 76.9407 112.292 77.4758 111.898 77.9674C111.842 78.0359 111.758 78.0607 111.677 78.0483ZM110.15 77.6501C110.112 77.6438 110.075 77.6283 110.04 77.6003C109.578 77.2487 109.044 76.9096 108.451 76.5923C108.332 76.5301 108.285 76.387 108.342 76.275C108.398 76.1629 108.542 76.1225 108.66 76.1847C109.278 76.5145 109.837 76.8692 110.318 77.2394C110.424 77.3203 110.449 77.4696 110.371 77.5692C110.318 77.6345 110.234 77.6625 110.15 77.6501ZM101.84 75.8114C101.781 75.8021 101.725 75.7678 101.684 75.7181C101.603 75.6123 101.619 75.466 101.719 75.3914C102.215 75.0212 102.837 74.7816 103.464 74.7132L103.539 74.7069C103.667 74.6945 103.789 74.7909 103.808 74.9185C103.826 75.046 103.736 75.1612 103.608 75.1736L103.539 75.1798C102.99 75.2389 102.449 75.4505 102.015 75.7741C101.965 75.8114 101.903 75.8238 101.84 75.8114ZM107.005 75.9047C106.986 75.9016 106.971 75.8954 106.952 75.8892C106.265 75.6029 105.703 75.4132 105.182 75.298C105.054 75.27 104.966 75.1425 104.988 75.018C105.01 74.8905 105.135 74.8096 105.263 74.8407C105.812 74.9652 106.403 75.1612 107.118 75.4598C107.239 75.5127 107.305 75.6496 107.258 75.7678C107.218 75.8674 107.111 75.9234 107.005 75.9047ZM113.163 74.9963C113.157 74.9963 113.147 74.9932 113.141 74.99C113.013 74.9558 112.932 74.8251 112.96 74.7007C113.007 74.4923 113.044 74.2807 113.069 74.0723C113.116 73.6896 113.132 73.3038 113.113 72.9242C113.107 72.7936 113.207 72.6909 113.338 72.6909C113.469 72.6909 113.581 72.7967 113.588 72.9274C113.61 73.3349 113.594 73.7487 113.541 74.1563C113.513 74.3803 113.472 74.6074 113.422 74.8283C113.397 74.9465 113.285 75.018 113.163 74.9963ZM102.702 70.734C102.699 70.734 102.696 70.734 102.696 70.7309C102.009 70.5878 101.366 70.3544 100.829 70.0558C100.713 69.9904 100.666 69.8473 100.726 69.7353C100.785 69.6233 100.929 69.586 101.044 69.6513C101.534 69.9251 102.131 70.1398 102.768 70.2736C102.896 70.3016 102.986 70.426 102.965 70.5504C102.946 70.6749 102.827 70.7558 102.702 70.734ZM104.348 70.9207C104.232 70.8989 104.142 70.7993 104.139 70.6811C104.139 70.5504 104.242 70.4509 104.373 70.4571C104.985 70.4851 105.606 70.4727 106.221 70.4198C106.353 70.4073 106.471 70.5038 106.49 70.6313C106.509 70.7589 106.418 70.874 106.29 70.8833C105.656 70.9362 105.013 70.9518 104.379 70.9238C104.367 70.9238 104.357 70.9207 104.348 70.9207ZM107.845 70.6531C107.752 70.6376 107.67 70.566 107.645 70.4696C107.614 70.342 107.689 70.2207 107.817 70.1958C108.41 70.0776 109.004 69.922 109.584 69.7322C109.709 69.6918 109.844 69.7602 109.89 69.8815C109.937 70.006 109.878 70.1367 109.756 70.1771C109.157 70.3731 108.545 70.5349 107.936 70.6562C107.901 70.6562 107.873 70.6562 107.845 70.6531ZM113.051 71.5429C112.96 71.5273 112.879 71.4589 112.851 71.3656C112.685 70.79 112.448 70.2176 112.142 69.67C112.076 69.5549 112.117 69.4149 112.229 69.3558C112.345 69.2966 112.488 69.3464 112.554 69.4615C112.879 70.0433 113.132 70.65 113.307 71.2629C113.344 71.3904 113.269 71.5149 113.144 71.5429C113.113 71.5491 113.082 71.5491 113.051 71.5429ZM99.6546 68.9824C99.589 68.97 99.5266 68.9326 99.486 68.8704C99.2706 68.5406 99.1332 68.1798 99.0832 67.7971C99.0551 67.5855 99.052 67.3771 99.0801 67.1717C99.0926 67.0753 99.1113 66.9788 99.1363 66.8855C99.1675 66.7611 99.2955 66.6895 99.4236 66.73C99.5516 66.7673 99.6265 66.898 99.5953 67.0224C99.5766 67.0971 99.5609 67.1749 99.5516 67.2526C99.5297 67.4175 99.5328 67.5855 99.5547 67.7566C99.5953 68.0646 99.7077 68.3602 99.8826 68.6278C99.9544 68.7398 99.9263 68.8829 99.817 68.9482C99.767 68.9855 99.7108 68.9918 99.6546 68.9824ZM111.146 69.6015C111.071 69.5891 110.999 69.5393 110.962 69.4647C110.902 69.3464 110.949 69.2095 111.068 69.1567C111.614 68.914 112.158 68.6371 112.682 68.3322C112.791 68.27 112.938 68.3073 113.01 68.4193C113.082 68.5313 113.051 68.6744 112.938 68.7398C112.401 69.054 111.842 69.3371 111.28 69.586C111.239 69.6047 111.193 69.6109 111.146 69.6015ZM111.371 68.4162C111.314 68.4069 111.258 68.3758 111.221 68.3291C110.827 67.8531 110.381 67.4082 109.894 67.0037C109.791 66.9197 109.772 66.7704 109.853 66.674C109.934 66.5775 110.084 66.5682 110.187 66.6522C110.699 67.0753 111.168 67.5451 111.58 68.046C111.664 68.1486 111.652 68.2949 111.552 68.3726C111.502 68.4131 111.433 68.4255 111.371 68.4162ZM100.198 65.8775C100.145 65.8682 100.095 65.8402 100.054 65.7966C99.9638 65.6971 99.97 65.5508 100.067 65.4668C100.516 65.0779 101.097 64.7606 101.744 64.549C101.865 64.5086 102.003 64.577 102.05 64.6984C102.096 64.8228 102.037 64.9535 101.915 64.9939C101.322 65.1868 100.797 65.4762 100.392 65.8277C100.338 65.8744 100.267 65.8899 100.198 65.8775ZM114.125 67.8935C114.065 67.8842 114.006 67.85 113.965 67.7971C113.884 67.6913 113.903 67.5451 114.006 67.4704C114.493 67.122 114.965 66.7424 115.411 66.3442C115.505 66.2602 115.655 66.2726 115.745 66.3691C115.836 66.4686 115.833 66.6148 115.739 66.6989C115.28 67.1095 114.796 67.4953 114.296 67.8531C114.25 67.8935 114.187 67.906 114.125 67.8935ZM108.632 66.0891C108.604 66.0828 108.576 66.0735 108.548 66.0579C108.004 65.7375 107.436 65.4699 106.855 65.2584C106.73 65.2117 106.662 65.0779 106.699 64.9566C106.74 64.8353 106.871 64.7731 106.996 64.8197C107.605 65.0406 108.204 65.3237 108.773 65.6597C108.888 65.7282 108.929 65.8713 108.866 65.9833C108.823 66.0642 108.726 66.1046 108.632 66.0891ZM103.405 64.7202C103.299 64.7015 103.211 64.6113 103.199 64.5024C103.186 64.3748 103.28 64.2628 103.408 64.2566C104.042 64.2224 104.691 64.2659 105.344 64.3779C105.475 64.3997 105.566 64.521 105.55 64.6486C105.534 64.7762 105.416 64.8602 105.285 64.8384C104.67 64.7326 104.054 64.6922 103.455 64.7233C103.439 64.7233 103.42 64.7233 103.405 64.7202ZM116.688 65.638C116.642 65.6286 116.598 65.6099 116.56 65.5757C116.46 65.4855 116.451 65.3362 116.539 65.2459C116.948 64.8073 117.335 64.3437 117.691 63.8677C117.766 63.765 117.916 63.7495 118.022 63.8304C118.128 63.9113 118.153 64.0575 118.078 64.1602C117.713 64.6486 117.316 65.1246 116.894 65.5726C116.845 65.6286 116.766 65.6535 116.688 65.638ZM118.749 62.925C118.718 62.9188 118.687 62.9095 118.659 62.8908C118.546 62.8192 118.509 62.673 118.574 62.5672C118.884 62.0632 119.174 61.5312 119.436 60.9868C119.492 60.8717 119.633 60.8281 119.752 60.8903C119.87 60.9526 119.92 61.0926 119.867 61.2077C119.599 61.7646 119.299 62.309 118.984 62.8255C118.934 62.9033 118.84 62.9406 118.749 62.925ZM120.264 59.8606C120.245 59.8574 120.226 59.8512 120.211 59.845C120.089 59.7921 120.026 59.6552 120.073 59.537C120.289 58.9832 120.485 58.4076 120.657 57.8228C120.692 57.7014 120.823 57.6361 120.951 57.6765C121.076 57.7201 121.151 57.8508 121.113 57.9752C120.938 58.5725 120.738 59.1605 120.517 59.7268C120.473 59.8232 120.37 59.8792 120.264 59.8606ZM121.247 56.569C121.241 56.569 121.235 56.5659 121.226 56.5659C121.098 56.5316 121.016 56.4041 121.041 56.2796C121.169 55.6947 121.275 55.0912 121.36 54.4814C121.379 54.3538 121.494 54.2729 121.625 54.2947H121.628C121.759 54.3196 121.85 54.4409 121.831 54.5685C121.744 55.1876 121.635 55.8036 121.507 56.3979C121.485 56.5192 121.369 56.5907 121.247 56.569ZM121.741 53.1467C121.616 53.1249 121.525 53.0098 121.535 52.8854C121.582 52.2849 121.606 51.6658 121.613 51.0467C121.613 50.9191 121.722 50.8196 121.853 50.8289C121.984 50.8351 122.09 50.9471 122.087 51.0778C122.081 51.7062 122.056 52.3347 122.009 52.9476C122 53.0751 121.884 53.1654 121.756 53.1498C121.75 53.1498 121.747 53.1498 121.741 53.1467ZM121.788 49.6684C121.675 49.6498 121.585 49.5502 121.582 49.4351C121.553 48.8253 121.503 48.2031 121.438 47.5871C121.425 47.4595 121.519 47.3475 121.647 47.3413C121.775 47.3351 121.894 47.4346 121.909 47.5622C121.978 48.1875 122.028 48.8191 122.056 49.4382C122.062 49.5689 121.962 49.6716 121.831 49.6716C121.816 49.6716 121.8 49.6684 121.788 49.6684ZM121.422 46.1809C121.319 46.1622 121.235 46.0813 121.216 45.9755C121.201 45.8791 121.185 45.7857 121.169 45.6893C121.082 45.176 120.979 44.6564 120.87 44.1431C120.841 44.0155 120.923 43.8942 121.051 43.8755C121.179 43.8568 121.304 43.9408 121.332 44.0715C121.444 44.5911 121.547 45.1168 121.635 45.6395C121.65 45.736 121.666 45.8324 121.685 45.9289C121.706 46.0564 121.619 46.1715 121.488 46.1871C121.466 46.1871 121.444 46.1871 121.422 46.1809ZM120.688 42.7337C120.595 42.7181 120.514 42.6466 120.489 42.5501C120.332 41.9559 120.158 41.3492 119.97 40.7457C119.933 40.6212 120.001 40.4937 120.126 40.4626C120.251 40.4315 120.386 40.5061 120.423 40.6337C120.613 41.2435 120.788 41.8595 120.944 42.4599C120.979 42.5875 120.901 42.7088 120.776 42.7368C120.748 42.7399 120.717 42.7399 120.688 42.7337ZM119.649 39.3457C119.561 39.3301 119.483 39.2679 119.455 39.1808C119.252 38.599 119.03 38.0017 118.799 37.4105C118.752 37.2892 118.812 37.1554 118.934 37.115C119.055 37.0745 119.193 37.1399 119.243 37.2643C119.477 37.8617 119.699 38.4621 119.905 39.0501C119.948 39.1746 119.883 39.3052 119.761 39.3394C119.72 39.3519 119.683 39.3519 119.649 39.3457ZM118.359 36.0323C118.278 36.0167 118.206 35.9639 118.169 35.883C117.928 35.3167 117.669 34.735 117.4 34.1501C117.344 34.0287 117.397 33.8949 117.516 33.8452C117.635 33.7985 117.775 33.8545 117.831 33.9758C118.103 34.5638 118.362 35.1518 118.606 35.7212C118.659 35.8425 118.603 35.9763 118.481 36.023C118.443 36.0354 118.4 36.0385 118.359 36.0323ZM116.873 32.7874C116.795 32.7749 116.726 32.7252 116.688 32.6505C116.417 32.0967 116.129 31.5243 115.833 30.9518C115.773 30.8336 115.817 30.6967 115.933 30.6407C116.048 30.5878 116.192 30.6376 116.254 30.7558C116.551 31.3314 116.841 31.9038 117.113 32.4638C117.172 32.582 117.122 32.7189 117.007 32.7718C116.963 32.7905 116.916 32.7967 116.873 32.7874Z" fill="#D2D9DC"/>
<path d="M95.0298 93.7781C94.9455 93.7626 94.8674 93.7034 94.8362 93.6163C94.7925 93.4919 94.8549 93.3612 94.9767 93.3239C95.2734 93.2337 95.5669 93.1403 95.8604 93.0439C95.9822 93.0034 96.1196 93.0719 96.1664 93.1932C96.2133 93.3177 96.1539 93.4483 96.0322 93.4888C95.7355 93.5852 95.4389 93.6786 95.1391 93.7719C95.1047 93.7812 95.0673 93.7843 95.0298 93.7781Z" fill="#D2D9DC"/>
<path d="M83.0318 57.5083L68.8569 50.1956L61.5173 64.3185L75.6922 71.6312L83.0318 57.5083Z" fill="#FFDD33"/>
<path d="M72.21 57.8566C71.7354 58.7712 70.6081 59.1259 69.6901 58.653C68.7752 58.1801 68.4161 57.057 68.8907 56.1423C69.3654 55.2276 70.4926 54.873 71.4107 55.3459C72.3256 55.8219 72.6847 56.945 72.21 57.8566Z" fill="#FA9300"/>
<path d="M70.5237 65.9146L64.4502 62.7816L69.0592 61.3225L70.5237 65.9146Z" fill="#FA9300"/>
<path d="M75.1891 68.3195L67.3701 64.2874L73.6996 61.6492L75.1891 68.3195Z" fill="#FA9300"/>
<path d="M99.7637 32.5134C100.56 34.4298 99.6388 36.645 97.7153 37.4383L84.897 42.721C82.9735 43.5144 80.7502 42.5966 79.9539 40.6801L67.4198 10.4927C66.6236 8.57623 67.5478 6.3611 69.4714 5.56776L82.2896 0.285034C84.2132 -0.508307 86.4364 0.412592 87.2327 2.32595L99.7637 32.5134Z" fill="#002548"/>
<path d="M85.9624 2.34498L68.3247 9.61572L80.6719 39.3487L98.3096 32.078L85.9624 2.34498Z" fill="#F9FAFB"/>
<path d="M79.5482 3.27152C79.6606 3.53907 79.5326 3.84397 79.2609 3.95597L74.2117 6.03732C73.9431 6.14933 73.6371 6.02177 73.5247 5.75421C73.4123 5.48665 73.5403 5.18176 73.8088 5.06976L78.8581 2.9884C79.1298 2.8764 79.4358 3.00396 79.5482 3.27152Z" fill="#839299"/>
<path d="M90.8055 38.8757C90.1903 39.1308 89.4783 38.8352 89.2254 38.2223C88.9694 37.6095 89.266 36.9001 89.8812 36.6481C90.4963 36.393 91.2083 36.6854 91.4612 37.3014C91.7173 37.9143 91.4237 38.6206 90.8055 38.8757Z" fill="#839299"/>
<path d="M81.316 15.231C78.3277 16.463 76.6508 19.2599 77.572 21.4781C78.1684 22.9155 79.711 23.7493 81.5346 23.8302L81.1068 27.0222L83.7735 23.5626C84.067 23.4786 84.3605 23.3853 84.6509 23.2639C87.6361 22.0319 89.313 19.2381 88.3918 17.0199C87.4706 14.7985 84.3012 13.999 81.316 15.231Z" fill="#ED1C24"/>
<path d="M81.2186 20.0779C81.4184 20.557 81.1873 21.1077 80.7064 21.3068C80.2224 21.5059 79.6697 21.2788 79.4699 20.7966C79.2701 20.3143 79.5011 19.7637 79.982 19.5646C80.466 19.3686 81.0218 19.5988 81.2186 20.0779Z" fill="#F9FAFB"/>
<path d="M83.8918 18.9767C84.0916 19.4558 83.8606 20.0065 83.3797 20.2056C82.8957 20.4047 82.343 20.1745 82.1463 19.6954C81.9495 19.2162 82.1744 18.6656 82.6584 18.4665C83.1392 18.2674 83.6919 18.4976 83.8918 18.9767Z" fill="#F9FAFB"/>
<path d="M86.5621 17.8754C86.7619 18.3545 86.534 18.9052 86.0499 19.1043C85.5691 19.3034 85.0164 19.0732 84.8165 18.594C84.6167 18.1149 84.8446 17.5643 85.3286 17.3651C85.8126 17.166 86.3653 17.3963 86.5621 17.8754Z" fill="#F9FAFB"/>
<path d="M8.81198 70.8645C13.6832 70.8645 17.6333 73.7952 17.6333 77.4135C17.6333 79.7561 15.9721 81.8064 13.4803 82.9637L15.9221 87.1607L10.2109 83.8722C9.755 83.9251 9.29286 83.9624 8.81822 83.9624C3.94697 83.9624 7.40101e-06 81.0286 7.40101e-06 77.4135C-0.00623779 73.7983 3.94073 70.8645 8.81198 70.8645Z" fill="#D2D9DC"/>
<path d="M11.6006 77.4135C11.6006 78.1602 12.2064 78.7638 12.9558 78.7638C13.7021 78.7638 14.3079 78.1602 14.3079 77.4135C14.3079 76.67 13.7021 76.0664 12.9558 76.0664C12.2095 76.0664 11.6006 76.67 11.6006 77.4135Z" fill="#0054A6"/>
<path d="M7.45947 77.4135C7.45947 78.1602 8.06838 78.7638 8.81468 78.7638C9.56098 78.7638 10.1668 78.1602 10.1668 77.4135C10.1668 76.67 9.56098 76.0664 8.81468 76.0664C8.06526 76.0664 7.45947 76.67 7.45947 77.4135Z" fill="#0054A6"/>
<path d="M3.31592 77.4135C3.31592 78.1602 3.9217 78.7638 4.668 78.7638C5.4143 78.7638 6.02321 78.1602 6.02321 77.4135C6.02321 76.67 5.41743 76.0664 4.668 76.0664C3.91858 76.0664 3.31592 76.67 3.31592 77.4135Z" fill="#0054A6"/>
<path d="M34.1084 63.3169C29.2372 63.3169 25.2871 66.2476 25.2871 69.8659C25.2871 72.2085 26.9483 74.2588 29.4402 75.4161L26.9983 79.6131L32.7095 76.3246C33.1654 76.3775 33.6276 76.4148 34.1022 76.4148C38.9735 76.4148 42.9204 73.481 42.9204 69.8659C42.9298 66.2476 38.9797 63.3169 34.1084 63.3169Z" fill="#D2D9DC"/>
<path d="M31.3201 69.8657C31.3201 70.6124 30.7143 71.2159 29.9649 71.2159C29.2186 71.2159 28.6128 70.6124 28.6128 69.8657C28.6128 69.1221 29.2186 68.5186 29.9649 68.5186C30.7143 68.5155 31.3201 69.119 31.3201 69.8657Z" fill="#0054A6"/>
<path d="M35.4636 69.8657C35.4636 70.6124 34.8547 71.2159 34.1084 71.2159C33.3621 71.2159 32.7563 70.6124 32.7563 69.8657C32.7563 69.1221 33.3621 68.5186 34.1084 68.5186C34.8547 68.5155 35.4636 69.119 35.4636 69.8657Z" fill="#0054A6"/>
<path d="M39.6048 69.8657C39.6048 70.6124 38.999 71.2159 38.2527 71.2159C37.5064 71.2159 36.8975 70.6124 36.8975 69.8657C36.8975 69.1221 37.5032 68.5186 38.2527 68.5186C39.0021 68.5186 39.6048 69.119 39.6048 69.8657Z" fill="#0054A6"/>
</svg>
