<svg width="136" height="112" viewBox="0 0 136 112" fill="none" xmlns="http://www.w3.org/2000/svg">
<path d="M68.1507 112C102.155 112 129.721 110.46 129.721 108.56C129.721 106.661 102.155 105.121 68.1507 105.121C34.1462 105.121 6.58008 106.661 6.58008 108.56C6.58008 110.46 34.1462 112 68.1507 112Z" fill="#D2D9DC"/>
<path d="M101.983 21.3179C101.977 21.3115 101.974 21.3083 101.967 21.3019C101.116 20.4026 99.7036 20.3191 98.7493 21.1092C97.653 22.0148 96.5664 22.9301 95.4927 23.8615C94.5126 24.7093 94.4449 26.1963 95.338 27.1373C95.3444 27.1437 95.3476 27.1501 95.3541 27.1533C111.82 44.5504 111.011 71.9516 93.5421 88.3531C76.0891 104.742 48.5506 103.932 32.0972 86.5482C15.6308 69.1511 16.4401 41.7499 33.9092 25.3484C40.6834 18.9863 48.973 15.2159 57.5399 13.9955C56.9337 11.1918 56.4339 8.35922 55.7117 5.56836C45.5069 7.1613 35.6664 11.7731 27.6315 19.4424C6.66413 39.4537 6.00316 72.4461 26.1387 93.2893C46.0228 113.872 78.8878 114.71 99.8036 95.0717C120.848 75.3012 121.825 42.2831 101.983 21.3179Z" fill="#0054A6"/>
<path d="M50.8506 0.0253055C54.3457 1.61182 64.644 6.76318 66.614 7.75235C66.7785 7.83585 66.8139 8.05103 66.6882 8.1827L53.9072 21.4561C53.372 22.0149 52.5981 22.2783 51.8308 22.1723L46.4978 21.424C46.3011 21.3951 46.2012 21.1767 46.3076 21.0097L53.5654 9.76601C53.6557 9.6247 53.5977 9.43521 53.4429 9.37098L43.4219 5.19915C42.619 4.86515 42.5965 3.73788 43.3864 3.37176L50.6217 0.0253055C50.6926 -0.00681027 50.7764 -0.0100218 50.8506 0.0253055Z" fill="#0054A6"/>
<path d="M73.5998 46.9143L70.4078 45.3278C70.2433 43.6802 69.8145 42.0423 69.1051 40.4879L71.0687 37.5269C71.1397 37.4241 71.1332 37.286 71.0591 37.1896L68.4538 33.8111C68.3797 33.7147 68.2475 33.673 68.1282 33.7115L64.7524 34.8388C63.4272 33.7565 61.9505 32.9182 60.3899 32.337L59.6774 28.8588C59.6516 28.7368 59.5516 28.6436 59.4291 28.6276L55.1924 28.0752C55.0667 28.0591 54.9442 28.1234 54.8926 28.2358L53.2998 31.412C51.6457 31.5758 50.0014 32.0062 48.4408 32.7127L45.468 30.7569C45.3649 30.6862 45.2262 30.6926 45.1295 30.7665L41.7376 33.3614C41.6408 33.4353 41.5989 33.567 41.6376 33.6858L42.7693 37.0483C41.6827 38.3683 40.8412 39.8392 40.2576 41.3904L36.7657 42.1033C36.6432 42.129 36.5497 42.2254 36.5336 42.3506L35.979 46.5739C35.9629 46.6959 36.0274 46.8179 36.1402 46.8725L39.329 48.4558C39.4935 50.1066 39.9255 51.7413 40.6349 53.2989L38.6713 56.2567C38.6003 56.3627 38.6068 56.4976 38.681 56.5972L41.2862 59.9757C41.3603 60.0721 41.4925 60.1138 41.6118 60.0721L44.9876 58.9448C46.3128 60.0271 47.7895 60.8621 49.3468 61.4467L50.0626 64.9248C50.0884 65.0468 50.1851 65.14 50.3109 65.1528L54.5508 65.7084C54.6733 65.7245 54.7958 65.6602 54.8507 65.5478L56.4402 62.3684C58.0975 62.2046 59.7387 61.7774 61.3024 61.0709L64.272 63.0267C64.3784 63.0942 64.5138 63.091 64.6137 63.0171L68.0057 60.4222C68.1024 60.3483 68.1443 60.2166 68.1024 60.0978L66.9707 56.7353C68.0573 55.4153 68.8956 53.9444 69.4824 52.39L72.9743 51.6803C73.0968 51.6546 73.1903 51.555 73.2032 51.433L73.761 47.2097C73.7771 47.0877 73.7126 46.9689 73.5998 46.9143ZM54.8636 55.1231C50.3012 55.1231 46.5998 51.4394 46.5998 46.8918C46.5998 42.3474 50.298 38.6605 54.8636 38.6605C59.4291 38.6605 63.1274 42.3442 63.1274 46.8918C63.1274 51.4394 59.4291 55.1231 54.8636 55.1231Z" fill="#D2D9DC"/>
<path d="M70.3179 82.1902L68.1834 81.1272C68.0706 80.0224 67.7836 78.9272 67.3096 77.8867L68.6219 75.9051C68.6703 75.8345 68.6671 75.7446 68.6122 75.6803L66.8711 73.4162C66.8196 73.3519 66.7325 73.323 66.6519 73.3519L64.3917 74.1034C63.5018 73.3841 62.5152 72.822 61.4737 72.4302L60.9933 70.0986C60.9772 70.0183 60.9095 69.9573 60.8289 69.9445L57.9915 69.5719C57.9077 69.5623 57.8303 69.604 57.7884 69.6811L56.7244 71.8072C55.6152 71.9164 54.5157 72.2054 53.4711 72.6775L51.4817 71.3672C51.4108 71.3222 51.3205 71.3254 51.256 71.3768L48.9829 73.1143C48.9184 73.1657 48.8894 73.2524 48.9184 73.3295L49.6729 75.584C48.9474 76.4672 48.3864 77.4499 47.993 78.4905L45.6522 78.9658C45.5716 78.9818 45.5104 79.0493 45.4975 79.1328L45.1234 81.959C45.1138 82.0392 45.1557 82.1195 45.2298 82.1581L47.3675 83.2211C47.4772 84.3259 47.7673 85.421 48.2413 86.4584L46.9258 88.4431C46.8807 88.5138 46.8839 88.6037 46.9355 88.6679L48.6798 90.9289C48.7314 90.9963 48.8185 91.022 48.8958 90.9963L51.1561 90.2416C52.046 90.9642 53.0326 91.5262 54.0772 91.918L54.5544 94.2464C54.5706 94.3267 54.6383 94.391 54.7221 94.4038L57.5594 94.7731C57.6433 94.7828 57.7239 94.741 57.7626 94.6671L58.8298 92.5411C59.939 92.4287 61.0384 92.1429 62.0799 91.6708L64.0725 92.9779C64.1434 93.026 64.2337 93.0228 64.2982 92.9714L66.5681 91.234C66.6358 91.1826 66.6616 91.0959 66.6358 91.0156L65.8781 88.7643C66.6035 87.8811 67.1646 86.8984 67.5611 85.8578L69.8987 85.3793C69.9793 85.3632 70.0438 85.299 70.0535 85.2155L70.4275 82.3893C70.434 82.309 70.392 82.2255 70.3179 82.1902ZM57.7755 88.3082C54.3771 88.3082 51.6171 85.5623 51.6171 82.1741C51.6171 78.7891 54.3771 76.04 57.7755 76.04C61.1771 76.04 63.9338 78.7859 63.9338 82.1741C63.9338 85.5623 61.1771 88.3082 57.7755 88.3082Z" fill="#839299"/>
<path d="M41.0605 69.6103L39.9159 69.0418C39.8578 68.4509 39.7031 67.8632 39.4484 67.3044L40.1545 66.2414C40.177 66.206 40.177 66.1546 40.148 66.1225L39.2098 64.9085C39.184 64.8764 39.1356 64.8604 39.0937 64.8764L37.8781 65.2779C37.4009 64.8893 36.8722 64.5906 36.3144 64.3819L36.0564 63.1293C36.0468 63.0876 36.0113 63.0555 35.9694 63.049L34.4475 62.8499C34.4024 62.8403 34.3572 62.866 34.3379 62.9045L33.7672 64.0478C33.1707 64.1057 32.5807 64.2598 32.0196 64.5103L30.9524 63.8102C30.9137 63.7845 30.8654 63.7877 30.8299 63.8134L29.6111 64.748C29.5756 64.7769 29.5595 64.8218 29.5756 64.8668L29.9819 66.0743C29.5918 66.5497 29.2887 67.0764 29.0791 67.6352L27.8249 67.8889C27.7797 67.8985 27.7475 67.9338 27.741 67.9788L27.5411 69.4947C27.5347 69.5396 27.5573 69.5814 27.5959 69.6007L28.7438 70.1691C28.8018 70.76 28.9566 71.3478 29.2113 71.9066L28.5052 72.9696C28.4794 73.0049 28.4826 73.0563 28.5116 73.0884L29.4467 74.3024C29.4757 74.3345 29.5208 74.3538 29.566 74.3345L30.7815 73.9331C31.2587 74.3217 31.7843 74.6203 32.3453 74.8291L32.6 76.0816C32.6097 76.1234 32.6451 76.1555 32.6903 76.1619L34.2121 76.3642C34.2573 76.3707 34.3024 76.345 34.3218 76.3064L34.8925 75.1663C35.4857 75.1053 36.079 74.9511 36.64 74.7006L37.7073 75.4008C37.7459 75.4264 37.7943 75.4232 37.8298 75.3975L39.0485 74.463C39.084 74.4341 39.1001 74.3891 39.084 74.3441L38.6778 73.1366C39.0679 72.6613 39.371 72.1346 39.5806 71.5758L40.8348 71.3221C40.8799 71.3124 40.9122 71.2771 40.9186 71.2321L41.1185 69.7163C41.125 69.6713 41.1024 69.6296 41.0605 69.6103ZM34.3314 72.6806C32.6258 72.6806 31.2426 71.2996 31.2426 69.6007C31.2426 67.9017 32.6258 66.524 34.3314 66.524C36.0403 66.524 37.4235 67.9017 37.4235 69.6007C37.4235 71.2996 36.0371 72.6806 34.3314 72.6806Z" fill="#D2D9DC"/>
<path d="M97.1602 41.506L95.7544 40.4847C95.8092 39.6562 95.7286 38.8308 95.5223 38.0472L96.712 36.7786C96.7539 36.7336 96.7636 36.6694 96.7346 36.618L95.7544 34.781C95.7254 34.7264 95.6641 34.6975 95.6061 34.7071L93.8843 34.9769C93.3523 34.3635 92.7139 33.8368 91.9917 33.4161L91.9337 31.685C91.9337 31.624 91.8917 31.5726 91.8337 31.5534L89.8379 30.94C89.7831 30.9239 89.7186 30.9464 89.6799 30.9946L88.6546 32.3948C87.8195 32.3402 86.9941 32.4237 86.2073 32.626L84.937 31.441C84.8918 31.4024 84.8241 31.3896 84.7726 31.4217L82.9283 32.3948C82.8735 32.4269 82.8444 32.4847 82.8541 32.5425L83.1249 34.2575C82.5123 34.7874 81.9803 35.4233 81.5612 36.1427L79.8201 36.2005C79.762 36.2037 79.7072 36.2423 79.6879 36.3001L79.0753 38.288C79.0559 38.3458 79.0785 38.4069 79.1269 38.4454L80.5359 39.4667C80.4778 40.2953 80.5617 41.1206 80.768 41.9043L79.5783 43.1728C79.5363 43.2146 79.5267 43.282 79.5557 43.3334L80.5359 45.1704C80.5649 45.225 80.6229 45.2539 80.6842 45.2443L82.4027 44.9745C82.9379 45.5847 83.5731 46.1146 84.2954 46.5354L84.3534 48.2664C84.3566 48.3242 84.3953 48.3788 84.4533 48.3981L86.4492 49.0083C86.5072 49.0275 86.5685 49.0051 86.6072 48.9569L87.6325 47.5566C88.4676 47.6112 89.293 47.5277 90.0797 47.3254L91.3533 48.5073C91.3984 48.549 91.4629 48.5586 91.5177 48.5297L93.362 47.5566C93.4168 47.5245 93.4458 47.4667 93.4362 47.4089L93.1653 45.6939C93.7812 45.164 94.3099 44.5281 94.7323 43.8087L96.4702 43.7509C96.5315 43.7477 96.5863 43.7092 96.6024 43.6514L97.2182 41.6634C97.2311 41.6024 97.2118 41.5414 97.1602 41.506ZM88.1387 44.4286C85.6689 44.4286 83.6634 42.4342 83.6634 39.9709C83.6634 37.5108 85.6657 35.5164 88.1387 35.5164C90.6085 35.5164 92.6108 37.5108 92.6108 39.9709C92.6108 42.4342 90.6085 44.4286 88.1387 44.4286Z" fill="#839299"/>
<path d="M84.3627 75.5519C87.5222 72.9982 88.0051 68.3768 85.4413 65.2297C82.8775 62.0826 78.2378 61.6016 75.0783 64.1553C71.9187 66.7091 71.4358 71.3305 73.9997 74.4776C76.5635 77.6247 81.2032 78.1057 84.3627 75.5519Z" fill="#FFDD33"/>
<path opacity="0.19" d="M82.8893 75.2102C85.7574 73.5253 86.7111 69.8435 85.0195 66.9867C83.3278 64.1299 79.6315 63.18 76.7634 64.8649C73.8953 66.5499 72.9416 70.2316 74.6332 73.0884C76.3248 75.9452 80.0212 76.8952 82.8893 75.2102Z" fill="#2D2F31"/>
<path d="M78.14 74.2128L78.3045 73.5802C77.6499 73.3843 77.0341 73.0599 76.6214 72.7387C76.4731 72.6231 76.4376 72.4176 76.5311 72.2538L76.8439 71.7046C76.96 71.5023 77.2243 71.4509 77.4081 71.5922C77.8208 71.9037 78.3496 72.2024 78.9655 72.3598C79.6039 72.5236 80.1359 72.4304 80.2487 71.9904C80.3519 71.5922 80.0456 71.2614 79.2202 70.7957C78.0433 70.1277 77.2792 69.3441 77.5661 68.2361C77.8241 67.2341 78.7591 66.6592 80.0875 66.7813L80.2519 66.1486C80.3035 65.9463 80.5131 65.821 80.7162 65.8756L81.0902 65.972C81.2934 66.0233 81.4191 66.2321 81.3643 66.4344L81.216 67.0029C81.8222 67.1859 82.2413 67.4043 82.5637 67.6195C82.7282 67.7287 82.7765 67.9503 82.6798 68.1205L82.3896 68.6279C82.2768 68.8238 82.0221 68.8816 81.8383 68.75C81.5449 68.5444 81.116 68.2971 80.5163 68.143C79.7586 67.9471 79.462 68.204 79.3911 68.4866C79.3008 68.8303 79.6941 69.1835 80.6002 69.7391C81.8963 70.5195 82.3284 71.2518 82.0608 72.2955C81.8125 73.2526 80.8774 73.9302 79.4362 73.7921L79.2524 74.4987C79.2008 74.701 78.9912 74.8263 78.7881 74.7717L78.4141 74.6753C78.211 74.6239 78.0885 74.4152 78.14 74.2128Z" fill="#FFDD33"/>
<path d="M111.794 67.1762C114.997 61.38 112.876 54.0951 107.057 50.9049C101.238 47.7147 93.9239 49.8273 90.7211 55.6235C87.5183 61.4197 89.6392 68.7046 95.4583 71.8948C101.277 75.085 108.591 72.9724 111.794 67.1762Z" fill="#FFDD33"/>
<path opacity="0.19" d="M103.709 71.2614C108.997 70.0136 112.269 64.7318 111.016 59.464C109.764 54.1963 104.461 50.9375 99.1724 52.1853C93.8839 53.4331 90.6122 58.7149 91.8649 63.9826C93.1176 69.2504 98.4203 72.5092 103.709 71.2614Z" fill="#2D2F31"/>
<path d="M98.6741 68.5315L98.9417 67.5006C97.8713 67.1795 96.8685 66.6496 96.1946 66.1261C95.9528 65.9398 95.8948 65.5994 96.0463 65.336L96.559 64.4432C96.746 64.1156 97.178 64.0321 97.4811 64.2601C98.1518 64.7676 99.0191 65.2557 100.022 65.5127C101.063 65.7792 101.931 65.6283 102.118 64.9089C102.285 64.2601 101.786 63.7174 100.441 62.9595C98.5226 61.8675 97.2716 60.5893 97.7423 58.7812C98.1647 57.1465 99.6898 56.2087 101.856 56.4079L102.124 55.3737C102.211 55.0429 102.55 54.8406 102.885 54.9273L103.494 55.0847C103.826 55.1714 104.03 55.5086 103.943 55.8426L103.704 56.7708C104.694 57.0662 105.377 57.4259 105.903 57.776C106.171 57.9558 106.251 58.3155 106.09 58.5949L105.616 59.4235C105.432 59.7415 105.016 59.8346 104.716 59.6258C104.236 59.2886 103.54 58.8872 102.563 58.6367C101.328 58.3187 100.844 58.7395 100.725 59.1955C100.58 59.7575 101.221 60.3356 102.698 61.2381C104.813 62.513 105.519 63.7078 105.078 65.4099C104.671 66.9739 103.143 68.0787 100.796 67.8507L100.496 69.0068C100.409 69.3376 100.07 69.54 99.7349 69.4533L99.1255 69.2959C98.7902 69.2028 98.5871 68.8623 98.6741 68.5315Z" fill="#FFDD33"/>
<path d="M112.384 97.5927C116.937 92.5157 116.496 84.7236 111.399 80.1884C106.302 75.6533 98.4788 76.0925 93.9257 81.1696C89.3726 86.2466 89.8136 94.0388 94.9107 98.5739C100.008 103.109 107.831 102.67 112.384 97.5927Z" fill="#FFDD33"/>
<path opacity="0.19" d="M112.143 94.6704C114.902 89.8261 113.196 83.6713 108.333 80.9234C103.469 78.1754 97.2902 79.8748 94.5314 84.7191C91.7726 89.5634 93.4787 95.7181 98.3422 98.4661C103.206 101.214 109.385 99.5146 112.143 94.6704Z" fill="#2D2F31"/>
<path d="M100.496 96.7066L100.77 95.6436C99.6705 95.3128 98.6387 94.77 97.9455 94.2273C97.6973 94.0346 97.636 93.6845 97.794 93.4147L98.3228 92.4962C98.5162 92.159 98.9612 92.0723 99.2707 92.3067C99.9607 92.8302 100.854 93.3312 101.882 93.5978C102.953 93.874 103.846 93.7166 104.036 92.9747C104.21 92.3067 103.694 91.7479 102.311 90.9707C100.338 89.8467 99.0514 88.5331 99.5351 86.6704C99.9704 84.9876 101.537 84.0209 103.769 84.2296L104.043 83.1666C104.13 82.8262 104.481 82.6206 104.823 82.7073L105.448 82.8679C105.79 82.9546 105.997 83.3047 105.909 83.6451L105.661 84.599C106.68 84.9041 107.383 85.2734 107.925 85.6331C108.202 85.8194 108.283 86.1887 108.118 86.4745L107.631 87.3256C107.444 87.6532 107.015 87.7495 106.706 87.5311C106.213 87.1843 105.494 86.77 104.488 86.5131C103.217 86.1855 102.717 86.619 102.595 87.0879C102.447 87.666 103.104 88.2602 104.626 89.1915C106.803 90.5018 107.531 91.7319 107.077 93.4854C106.661 95.0944 105.087 96.2345 102.669 95.9968L102.36 97.1851C102.272 97.5255 101.921 97.7311 101.579 97.6444L100.954 97.4838C100.612 97.3971 100.406 97.0502 100.496 96.7066Z" fill="#FFDD33"/>
<path d="M132.549 76.782C134.455 71.6798 131.847 66.0049 126.725 64.1067C121.602 62.2086 115.905 64.806 113.999 69.9082C112.094 75.0103 114.701 80.6852 119.824 82.5834C124.946 84.4815 130.643 81.8841 132.549 76.782Z" fill="#FFDD33"/>
<path opacity="0.19" d="M131.51 73.8331C131.636 69.3812 128.115 65.6699 123.646 65.5439C119.176 65.4179 115.45 68.9247 115.324 73.3767C115.197 77.8287 118.718 81.5399 123.188 81.666C127.657 81.792 131.383 78.2851 131.51 73.8331Z" fill="#2D2F31"/>
<path d="M121.138 79.2098L121.357 78.3588C120.477 78.0954 119.652 77.6587 119.097 77.2251C118.9 77.0709 118.849 76.7915 118.975 76.5731L119.397 75.8377C119.552 75.5679 119.906 75.5005 120.155 75.6867C120.706 76.1042 121.419 76.5057 122.244 76.7177C123.102 76.9393 123.814 76.814 123.969 76.2199C124.108 75.6835 123.695 75.2403 122.589 74.6173C121.009 73.7181 119.981 72.6679 120.368 71.1777C120.716 69.8321 121.97 69.0613 123.753 69.2251L123.972 68.374C124.043 68.101 124.324 67.9372 124.598 68.0079L125.098 68.1363C125.372 68.207 125.536 68.4864 125.465 68.7594L125.268 69.5237C126.084 69.7678 126.645 70.0633 127.077 70.3491C127.3 70.4968 127.364 70.7923 127.232 71.0235L126.842 71.7044C126.69 71.9677 126.349 72.0448 126.1 71.8682C125.704 71.592 125.13 71.2612 124.327 71.0524C123.311 70.7923 122.911 71.1359 122.815 71.5117C122.695 71.9742 123.221 72.4495 124.44 73.1946C126.181 74.2448 126.761 75.2243 126.4 76.6277C126.068 77.9156 124.811 78.8244 122.876 78.6382L122.631 79.5888C122.56 79.8618 122.28 80.0256 122.005 79.9549L121.506 79.8265C121.232 79.7622 121.067 79.4828 121.138 79.2098Z" fill="#FFDD33"/>
<path d="M19.1779 43.5552C29.7696 43.5552 38.3559 35.0028 38.3559 24.4528C38.3559 13.9028 29.7696 5.35034 19.1779 5.35034C8.58626 5.35034 0 13.9028 0 24.4528C0 35.0028 8.58626 43.5552 19.1779 43.5552Z" fill="#002548"/>
<path d="M19.1781 41.14C28.4307 41.14 35.9314 33.6689 35.9314 24.4527C35.9314 15.2366 28.4307 7.76538 19.1781 7.76538C9.92551 7.76538 2.4248 15.2366 2.4248 24.4527C2.4248 33.6689 9.92551 41.14 19.1781 41.14Z" fill="#0054A6"/>
<path d="M19.1774 40.1317C27.8708 40.1317 34.9183 33.112 34.9183 24.4528C34.9183 15.7936 27.8708 8.77393 19.1774 8.77393C10.484 8.77393 3.43652 15.7936 3.43652 24.4528C3.43652 33.112 10.484 40.1317 19.1774 40.1317Z" fill="#D2D9DC"/>
<path d="M20.189 11.2386C20.3208 10.6828 19.9753 10.1258 19.4172 9.99459C18.8592 9.86335 18.3 10.2075 18.1683 10.7634C18.0365 11.3192 18.3821 11.8762 18.9401 12.0074C19.4981 12.1387 20.0573 11.7945 20.189 11.2386Z" fill="#002548"/>
<path d="M28.712 16.0126C29.2854 16.0126 29.7503 15.5496 29.7503 14.9785C29.7503 14.4073 29.2854 13.9443 28.712 13.9443C28.1387 13.9443 27.6738 14.4073 27.6738 14.9785C27.6738 15.5496 28.1387 16.0126 28.712 16.0126Z" fill="#002548"/>
<path d="M32.6271 25.5446C33.2005 25.5446 33.6653 25.0816 33.6653 24.5104C33.6653 23.9393 33.2005 23.4763 32.6271 23.4763C32.0537 23.4763 31.5889 23.9393 31.5889 24.5104C31.5889 25.0816 32.0537 25.5446 32.6271 25.5446Z" fill="#002548"/>
<path d="M28.6329 35.0412C29.2063 35.0412 29.6712 34.5782 29.6712 34.007C29.6712 33.4359 29.2063 32.9729 28.6329 32.9729C28.0596 32.9729 27.5947 33.4359 27.5947 34.007C27.5947 34.5782 28.0596 35.0412 28.6329 35.0412Z" fill="#002548"/>
<path d="M20.0719 38.149C20.2036 37.5932 19.8581 37.0362 19.3001 36.905C18.742 36.7737 18.1828 37.1179 18.0511 37.6738C17.9193 38.2296 18.2649 38.7866 18.8229 38.9178C19.3809 39.0491 19.9401 38.7049 20.0719 38.149Z" fill="#002548"/>
<path d="M9.5265 34.9577C10.0999 34.9577 10.5647 34.4947 10.5647 33.9235C10.5647 33.3524 10.0999 32.8894 9.5265 32.8894C8.95311 32.8894 8.48828 33.3524 8.48828 33.9235C8.48828 34.4947 8.95311 34.9577 9.5265 34.9577Z" fill="#002548"/>
<path d="M5.61439 25.4291C6.18778 25.4291 6.6526 24.9661 6.6526 24.395C6.6526 23.8238 6.18778 23.3608 5.61439 23.3608C5.041 23.3608 4.57617 23.8238 4.57617 24.395C4.57617 24.9661 5.041 25.4291 5.61439 25.4291Z" fill="#002548"/>
<path d="M9.61146 15.9323C10.1848 15.9323 10.6497 15.4693 10.6497 14.8981C10.6497 14.327 10.1848 13.864 9.61146 13.864C9.03807 13.864 8.57324 14.327 8.57324 14.8981C8.57324 15.4693 9.03807 15.9323 9.61146 15.9323Z" fill="#002548"/>
<path d="M26.4877 25.8625C26.4651 25.8625 26.4425 25.8625 26.4199 25.8593L19.1138 25.111C18.8816 25.0885 18.6753 24.9408 18.5785 24.7288L13.9291 14.6894C13.7744 14.3586 13.9195 13.9636 14.2548 13.8127C14.5869 13.6585 14.9835 13.803 15.135 14.137L19.6264 23.836L26.5586 24.5457C26.9229 24.5843 27.1905 24.9087 27.1519 25.2716C27.1099 25.6088 26.823 25.8625 26.4877 25.8625Z" fill="#ED1C24"/>
<path d="M19.1774 26.206C20.1497 26.206 20.9379 25.4209 20.9379 24.4525C20.9379 23.4841 20.1497 22.699 19.1774 22.699C18.2052 22.699 17.417 23.4841 17.417 24.4525C17.417 25.4209 18.2052 26.206 19.1774 26.206Z" fill="#002548"/>
</svg>
