<svg width="453" height="333" viewBox="0 0 453 333" fill="none" xmlns="http://www.w3.org/2000/svg">
<path d="M0 24C0 10.7452 10.7452 0 24 0H429C442.255 0 453 10.7452 453 24V333H0V24Z" fill="#002548"/>
<mask id="mask0_4103_8502" style="mask-type:alpha" maskUnits="userSpaceOnUse" x="0" y="0" width="453" height="333">
<path d="M0 24C0 10.7452 10.7452 0 24 0H429C442.255 0 453 10.7452 453 24V333H0V24Z" fill="#002548"/>
</mask>
<g mask="url(#mask0_4103_8502)">
<path d="M386.804 156.46C381.803 156.46 377.634 160.05 376.752 164.75H312.239C311.818 147.06 305.515 130.8 295.202 117.84H343.268C344.15 122.57 348.329 126.15 353.32 126.15C358.953 126.15 363.543 121.58 363.543 115.93C363.543 110.31 358.963 105.73 353.32 105.73C348.329 105.73 344.17 109.31 343.268 114.02H291.995C277.553 98.05 256.667 88 233.455 88C210.264 88 189.368 98.06 174.936 114.02H111.166C110.264 109.31 106.124 105.73 101.133 105.73C95.501 105.73 90.9108 110.3 90.9108 115.93C90.9108 121.57 95.4909 126.15 101.133 126.15C106.114 126.15 110.264 122.57 111.166 117.84H171.699C161.396 130.8 155.103 147.06 154.672 164.75H83.9054C83.0134 160.04 78.8642 156.46 73.8832 156.46C68.2508 156.46 63.6406 161.04 63.6406 166.66C63.6406 172.28 68.2508 176.86 73.8832 176.86C78.8642 176.86 83.0134 173.28 83.9054 168.57H154.672C155.092 186.26 161.396 202.52 171.699 215.49H117.67C116.768 210.76 112.629 207.18 107.638 207.18C102.005 207.18 97.3951 211.76 97.3951 217.4C97.3951 223.02 101.995 227.6 107.638 227.6C112.619 227.6 116.768 224.02 117.67 219.31H174.926C189.348 235.26 210.254 245.33 233.445 245.33C256.657 245.33 277.543 235.28 291.985 219.31H349.241C350.123 224.02 354.282 227.6 359.273 227.6C364.906 227.6 369.496 223.02 369.496 217.4C369.496 211.76 364.916 207.18 359.273 207.18C354.292 207.18 350.123 210.77 349.241 215.49H295.192C305.515 202.52 311.808 186.27 312.229 168.57H376.742C377.624 173.28 381.783 176.86 386.794 176.86C392.426 176.86 397.017 172.29 397.017 166.66C397.017 161.04 392.436 156.46 386.804 156.46Z" fill="#002548"/>
<path d="M263.211 188.49C263.211 184.96 266.077 182.1 269.605 182.1C273.143 182.1 276.009 184.96 276.009 188.49C276.009 192.02 273.143 194.88 269.605 194.88C266.077 194.87 263.211 192.01 263.211 188.49Z" fill="#0054A6"/>
<path d="M259.433 111.87C259.433 115.4 256.546 118.26 253.029 118.26C249.491 118.26 246.604 115.4 246.604 111.87C246.604 108.35 249.491 105.49 253.029 105.49C256.546 105.49 259.433 108.35 259.433 111.87Z" fill="#0054A6"/>
<path d="M203.96 211.48C200.422 211.48 197.556 208.6 197.556 205.07C197.556 201.56 200.422 198.68 203.96 198.68C207.498 198.68 210.364 201.56 210.364 205.07C210.364 208.6 207.498 211.48 203.96 211.48Z" fill="#0054A6"/>
<path d="M204.257 134.656C207.791 134.521 210.546 131.552 210.41 128.025C210.275 124.499 207.299 121.749 203.765 121.885C200.23 122.021 197.475 124.989 197.611 128.516C197.747 132.043 200.722 134.792 204.257 134.656Z" fill="#0054A6"/>
<path d="M227.041 166.66C227.041 163.13 229.907 160.27 233.435 160.27C236.973 160.27 239.859 163.13 239.859 166.66C239.859 170.18 236.973 173.04 233.435 173.04C229.907 173.04 227.041 170.18 227.041 166.66Z" fill="#ED1C24"/>
<path d="M-7.01562 164.76V168.57H54.0291V164.76H-7.01562ZM395.844 164.76L396.866 165.35L397.908 165.95C398.279 166.17 398.319 166.52 398.319 166.66C398.319 166.8 398.279 167.16 397.908 167.37L396.866 167.97L395.824 168.57H461.018V164.76H395.844ZM312.239 164.76C311.818 147.07 305.514 130.81 295.191 117.84H343.258C344.14 122.57 348.319 126.15 353.31 126.15C358.952 126.15 363.532 121.58 363.532 115.94C363.532 110.31 358.952 105.74 353.31 105.74C348.319 105.74 344.16 109.32 343.258 114.03H291.984C277.543 98.0603 256.656 88.0103 233.445 88.0103C210.254 88.0103 189.358 98.0803 174.926 114.03H111.155C110.253 109.32 106.114 105.74 101.123 105.74C95.4907 105.74 90.9105 110.31 90.9105 115.94C90.9105 121.58 95.4907 126.15 101.123 126.15C106.114 126.15 110.253 122.57 111.155 117.84H171.699C161.396 130.81 155.102 147.07 154.681 164.76H64.5323L65.5546 165.35L66.5969 165.95C66.9677 166.17 67.0078 166.52 67.0078 166.66C67.0078 166.8 66.9677 167.16 66.5969 167.37L65.5546 167.97L64.5123 168.57H154.681C155.102 186.26 161.396 202.52 171.699 215.48H117.67C116.778 210.76 112.628 207.17 107.637 207.17C102.005 207.17 97.4049 211.75 97.4049 217.39C97.4049 223.01 102.005 227.59 107.637 227.59C112.628 227.59 116.778 224.01 117.67 219.29H174.926C189.358 235.25 210.254 245.32 233.445 245.32C256.656 245.32 277.543 235.27 291.984 219.29H349.241C350.123 224.01 354.282 227.59 359.273 227.59C364.905 227.59 369.496 223.01 369.496 217.39C369.496 211.75 364.905 207.17 359.273 207.17C354.282 207.17 350.123 210.76 349.241 215.48H295.191C305.514 202.52 311.818 186.26 312.239 168.57H385.331V164.76H312.239ZM346.896 115.94C346.896 115.27 346.986 114.62 347.176 114.03C347.998 111.44 350.443 109.55 353.31 109.55C356.848 109.55 359.704 112.43 359.704 115.94C359.704 119.46 356.848 122.34 353.31 122.34C350.443 122.34 347.998 120.44 347.176 117.84C346.986 117.25 346.896 116.63 346.896 115.96V115.94ZM101.123 122.34C97.5953 122.34 94.729 119.46 94.729 115.94C94.729 112.43 97.5953 109.55 101.123 109.55C104.661 109.55 107.527 112.43 107.527 115.94C107.527 119.46 104.661 122.34 101.123 122.34ZM107.637 223.77C104.11 223.77 101.223 220.89 101.223 217.39C101.223 213.86 104.11 210.99 107.637 210.99C111.175 210.99 114.042 213.86 114.042 217.39C114.042 220.89 111.175 223.77 107.637 223.77ZM353.159 215.48C353.961 212.89 356.407 210.99 359.273 210.99C362.811 210.99 365.677 213.86 365.677 217.39C365.677 220.89 362.811 223.77 359.273 223.77C356.407 223.77 353.981 221.89 353.159 219.29C352.969 218.7 352.869 218.06 352.869 217.39C352.869 216.72 352.969 216.09 353.159 215.48ZM288.106 115.48C280.158 119.9 272.131 123.41 264.203 125.89C263 123.6 261.688 121.31 260.284 119.04C262.118 117.2 263.251 114.66 263.251 111.87C263.251 106.25 258.661 101.68 253.028 101.68C251.365 101.68 249.831 102.1 248.448 102.8C245.372 99.1603 241.984 95.5603 238.356 92.0003C257.919 93.2703 275.458 102.04 288.106 115.48ZM259.433 111.87C259.433 115.4 256.546 118.26 253.028 118.26C249.491 118.26 246.604 115.4 246.604 111.87C246.604 108.35 249.491 105.49 253.028 105.49C256.546 105.49 259.433 108.35 259.433 111.87ZM235.359 94.4103C238.987 97.9603 242.345 101.52 245.402 105.13C243.798 106.92 242.786 109.28 242.786 111.87C242.786 117.5 247.376 122.08 253.028 122.08C254.482 122.08 255.875 121.75 257.138 121.2C258.3 123.11 259.413 125.03 260.425 126.96C252.096 129.24 243.728 130.46 235.359 130.61V94.4103ZM235.359 134.47C244.259 134.31 253.279 132.96 262.179 130.46C267.601 141.69 270.477 153.15 270.738 164.76H243.497C242.706 160.66 239.458 157.44 235.359 156.66V134.47ZM264.644 197.35C263.882 199.2 263.061 201.05 262.179 202.88C253.279 200.39 244.299 199.07 235.359 198.9V176.67C239.458 175.89 242.706 172.67 243.497 168.57H270.738C270.657 171.83 270.377 175.07 269.896 178.31C269.805 178.31 269.705 178.29 269.605 178.29C263.973 178.29 259.392 182.87 259.392 188.49C259.392 192.3 261.507 195.6 264.644 197.35ZM263.211 188.49C263.211 184.96 266.077 182.1 269.605 182.1C273.143 182.1 276.009 184.96 276.009 188.49C276.009 192.02 273.143 194.88 269.605 194.88C266.077 194.88 263.211 192.02 263.211 188.49ZM201.425 138.09C202.246 138.32 203.108 138.47 204.01 138.47C208.129 138.47 211.687 135.99 213.311 132.46C219.364 133.69 225.478 134.35 231.541 134.47V156.66C227.432 157.44 224.195 160.66 223.413 164.76H196.153C196.383 155.78 198.127 146.87 201.425 138.09ZM197.606 128.27C197.606 124.74 200.472 121.88 204.01 121.88C207.538 121.88 210.404 124.74 210.404 128.27C210.404 131.8 207.538 134.66 204.01 134.66C200.472 134.66 197.606 131.8 197.606 128.27ZM214.183 128.75C214.183 128.6 214.223 128.42 214.223 128.27C214.223 125.03 212.679 122.17 210.324 120.3C215.806 111.51 222.902 102.88 231.541 94.4103V130.65C225.748 130.54 219.955 129.89 214.183 128.75ZM228.554 92.0003C219.745 100.67 212.529 109.51 206.927 118.53C205.995 118.26 205.032 118.07 204.01 118.07C200.222 118.07 196.935 120.15 195.181 123.22C189.739 121.1 184.257 118.51 178.805 115.46C191.452 102.04 208.991 93.2703 228.554 92.0003ZM176.209 118.37C182.072 121.71 188.015 124.53 193.938 126.82C193.858 127.3 193.778 127.77 193.778 128.27C193.778 131.62 195.421 134.58 197.947 136.43C194.409 145.75 192.565 155.19 192.334 164.76H158.5C158.941 147.1 165.525 130.97 176.209 118.37ZM176.209 214.95C165.525 202.35 158.941 186.22 158.5 168.57H192.334C192.565 178.12 194.409 187.57 197.947 196.88C195.401 198.75 193.748 201.72 193.748 205.07C193.748 205.57 193.818 206.05 193.878 206.52C188.035 208.79 182.112 211.61 176.209 214.95ZM203.97 198.69C207.498 198.69 210.364 201.57 210.364 205.07C210.364 208.6 207.498 211.48 203.97 211.48C200.432 211.48 197.566 208.6 197.566 205.07C197.566 201.57 200.432 198.69 203.97 198.69ZM178.805 217.87C184.267 214.82 189.739 212.22 195.141 210.13C196.905 213.2 200.182 215.29 203.97 215.29C205.002 215.29 205.995 215.08 206.927 214.8C212.539 223.81 219.745 232.66 228.554 241.33C208.991 240.06 191.452 231.28 178.805 217.87ZM231.541 238.91C222.902 230.45 215.806 221.79 210.304 213.02C212.659 211.14 214.183 208.29 214.183 205.07C214.183 204.9 214.153 204.75 214.133 204.58C219.925 203.43 225.728 202.78 231.541 202.67V238.91ZM231.541 198.86C225.427 198.97 219.304 199.66 213.251 200.86C211.627 197.33 208.089 194.88 203.97 194.88C203.088 194.88 202.246 195.03 201.425 195.24C198.127 186.45 196.383 177.55 196.153 168.57H223.413C224.195 172.67 227.432 175.89 231.541 176.67V198.86ZM227.051 166.66C227.051 163.14 229.917 160.28 233.445 160.28C236.983 160.28 239.869 163.14 239.869 166.66C239.869 170.19 236.983 173.05 233.445 173.05C229.917 173.05 227.051 170.19 227.051 166.66ZM235.359 238.91V202.71C243.728 202.86 252.096 204.1 260.425 206.37C254.562 217.45 246.193 228.31 235.359 238.91ZM238.356 241.33C249.551 230.31 258.17 219.01 264.203 207.44C272.131 209.91 280.158 213.42 288.106 217.85C275.458 231.28 257.919 240.06 238.356 241.33ZM290.702 214.93C282.473 210.28 274.135 206.6 265.907 203.97C266.749 202.18 267.55 200.37 268.272 198.55C268.713 198.61 269.154 198.69 269.605 198.69C275.247 198.69 279.838 194.11 279.838 188.49C279.838 184.3 277.272 180.67 273.644 179.11C274.175 175.62 274.486 172.09 274.556 168.57H308.411C307.98 186.2 301.385 202.35 290.702 214.93ZM274.556 164.76C274.295 152.75 271.389 140.93 265.907 129.35C274.135 126.73 282.473 123.05 290.702 118.39C301.385 130.97 307.98 147.12 308.411 164.76H274.556Z" fill="#7C8EA1" stroke="#002548" stroke-width="0.75" stroke-miterlimit="10"/>
<path d="M400.684 165.35C400.604 165.14 400.494 164.95 400.374 164.76C400.093 164.33 399.702 163.96 399.221 163.68L387.876 157.15C386.794 156.53 385.511 156.53 384.428 157.15C383.356 157.77 382.705 158.88 382.705 160.13V173.2C382.705 174.44 383.356 175.55 384.428 176.17C385.511 176.8 386.794 176.8 387.876 176.17L399.221 169.64C399.692 169.37 400.083 169 400.364 168.57C400.494 168.38 400.594 168.18 400.684 167.97C400.855 167.57 400.945 167.12 400.945 166.66C400.945 166.2 400.855 165.76 400.684 165.35ZM386.563 173.9C386.192 174.12 385.872 173.98 385.741 173.9C385.621 173.83 385.33 173.62 385.33 173.2V160.13C385.33 159.7 385.621 159.49 385.741 159.42C385.872 159.35 386.192 159.2 386.563 159.42L395.844 164.76L396.866 165.35L397.908 165.95C398.279 166.17 398.319 166.52 398.319 166.66C398.319 166.8 398.279 167.16 397.908 167.37L396.866 167.97L395.824 168.57L386.563 173.9Z" fill="#7C8EA1"/>
</g>
</svg>
