<svg width="48" height="48" viewBox="0 0 48 48" fill="none" xmlns="http://www.w3.org/2000/svg">
<g id="domain-specific-data-scraping-solutions_market-research-and-analysis 1" clip-path="url(#clip0_6034_16646)">
<g id="Group">
<path id="Vector" fill-rule="evenodd" clip-rule="evenodd" d="M14.2992 22.1001C14.3992 22.0001 14.4992 21.9001 14.4992 21.8001C14.4992 21.7001 14.3992 21.5001 14.2992 21.5001C13.4992 20.9001 12.7992 20.1001 12.0992 19.2001C11.4992 18.3001 10.9992 17.4001 10.6992 16.4001C10.6992 16.3001 10.5992 16.2001 10.3992 16.1001C10.2992 16.1001 10.0992 16.1001 9.99925 16.1001L1.79925 20.9001C-0.200753 22.3001 -0.700753 25.1001 0.699247 27.2001C2.09925 29.3001 4.89925 29.7001 6.99925 28.3001L14.2992 22.1001Z" fill="#002548"/>
<path id="Vector_2" fill-rule="evenodd" clip-rule="evenodd" d="M4.29925 19.9997C4.29925 19.8997 4.19925 19.7997 3.99925 19.6997C3.89925 19.6997 3.69925 19.6997 3.59925 19.6997L1.79925 20.6997C-0.200753 22.0997 -0.700753 24.8997 0.699247 26.9997C2.09925 29.0997 4.89925 29.4997 6.99925 28.0997L8.59925 26.7997C8.69925 26.6997 8.79925 26.5997 8.79925 26.4997C8.79925 26.3997 8.69925 26.1997 8.69925 26.1997C7.79925 25.3997 6.89925 24.3997 6.19925 23.3997C5.39925 22.2997 4.79925 21.1997 4.29925 19.9997Z" fill="#FFDD33"/>
<path id="Vector_3" fill-rule="evenodd" clip-rule="evenodd" d="M30.8984 5.89993C27.0984 0.499927 19.6984 -0.700073 14.2984 2.99993C8.89836 6.79993 7.69836 14.1999 11.3984 19.5999C15.1984 24.9999 22.5984 26.1999 27.9984 22.4999C33.3984 18.7999 34.5984 11.2999 30.8984 5.89993Z" fill="#D2D9DC"/>
<path id="Vector_4" fill-rule="evenodd" clip-rule="evenodd" d="M30.4998 12.7999C30.4998 15.6999 29.0998 18.5999 26.4998 20.3999C22.2998 23.3999 16.4998 22.3999 13.4998 18.0999C10.4998 13.8999 11.4998 8.0999 15.6998 5.0999C17.2998 3.8999 19.1998 3.3999 21.0998 3.3999C23.9998 3.3999 26.8998 4.7999 28.6998 7.3999C29.8998 9.0999 30.4998 10.8999 30.4998 12.7999Z" fill="#F9FAFB"/>
<path id="Vector_5" fill-rule="evenodd" clip-rule="evenodd" d="M36.2988 45.1C36.2988 45.2 36.2988 45.3 36.3988 45.4C36.4988 45.5 36.5988 45.5 36.6988 45.5H41.5988C41.6988 45.5 41.7988 45.5 41.8988 45.4C41.9988 45.3 41.9988 45.2 41.9988 45.1L41.4988 30.4C41.4988 29.1 40.3988 28 39.0988 28C37.7988 28 36.6988 29.1 36.6988 30.4L36.2988 45.1Z" fill="#54CC5A"/>
<path id="Vector_6" fill-rule="evenodd" clip-rule="evenodd" d="M24.0996 45.0997C24.0996 45.1997 24.0996 45.2997 24.1996 45.3997C24.2996 45.4997 24.3996 45.4997 24.4996 45.4997H29.3996C29.4996 45.4997 29.5996 45.3997 29.6996 45.3997C29.7996 45.2997 29.7996 45.1997 29.7996 45.0997L29.2996 36.5997C29.2996 35.2997 28.1996 34.1997 26.8996 34.1997C25.5996 34.1997 24.4996 35.2997 24.4996 36.5997C24.5996 36.5997 24.0996 45.0997 24.0996 45.0997Z" fill="#ED1C24"/>
<path id="Vector_7" fill-rule="evenodd" clip-rule="evenodd" d="M12 45.0998C12 45.1998 12 45.2998 12.1 45.3998C12.2 45.4998 12.3 45.4998 12.4 45.4998H17.3C17.4 45.4998 17.5 45.4998 17.6 45.3998C17.7 45.2998 17.7 45.1998 17.7 45.0998L17.2 34.6998C17.2 33.3998 16.1 32.2998 14.8 32.2998C13.5 32.2998 12.4 33.3998 12.4 34.6998C12.4 34.5998 12 45.0998 12 45.0998Z" fill="#0054A6"/>
<path id="Vector_8" fill-rule="evenodd" clip-rule="evenodd" d="M6.09844 47.0997H46.7984C47.4984 47.0997 47.9984 46.5997 47.9984 45.8997C47.9984 45.1997 47.4984 44.6997 46.7984 44.6997H6.09844C5.39844 44.6997 4.89844 45.1997 4.89844 45.8997C4.89844 46.4997 5.39844 47.0997 6.09844 47.0997Z" fill="#002548"/>
<path id="Vector_9" fill-rule="evenodd" clip-rule="evenodd" d="M30.4992 12.8H21.1992V3.5C24.0992 3.5 26.9992 4.9 28.7992 7.5C29.8992 9.1 30.4992 10.9 30.4992 12.8Z" fill="#54CC5A"/>
<path id="Vector_10" d="M27.0988 30.5L14.7988 28.5L14.8988 27.4L26.8988 29.3L38.8988 23L39.3988 24L27.0988 30.5Z" fill="#839299"/>
<path id="Vector_11" d="M26.9988 32.9C28.7661 32.9 30.1988 31.4673 30.1988 29.7C30.1988 27.9327 28.7661 26.5 26.9988 26.5C25.2315 26.5 23.7988 27.9327 23.7988 29.7C23.7988 31.4673 25.2315 32.9 26.9988 32.9Z" fill="#ED1C24"/>
<path id="Vector_12" d="M14.8992 31.1998C16.6665 31.1998 18.0992 29.7671 18.0992 27.9998C18.0992 26.2325 16.6665 24.7998 14.8992 24.7998C13.1319 24.7998 11.6992 26.2325 11.6992 27.9998C11.6992 29.7671 13.1319 31.1998 14.8992 31.1998Z" fill="#0054A6"/>
<path id="Vector_13" d="M39.2 26.6998C40.9673 26.6998 42.4 25.2671 42.4 23.4998C42.4 21.7325 40.9673 20.2998 39.2 20.2998C37.4327 20.2998 36 21.7325 36 23.4998C36 25.2671 37.4327 26.6998 39.2 26.6998Z" fill="#54CC5A"/>
</g>
</g>
<defs>
<clipPath id="clip0_6034_16646">
<rect width="48" height="48" fill="white"/>
</clipPath>
</defs>
</svg>
