<svg width="100" height="100" viewBox="0 0 100 100" fill="none" xmlns="http://www.w3.org/2000/svg">
<rect width="100" height="100" fill="white"/>
<g clip-path="url(#clip0_14347_33338)">
<path d="M89.799 23.343C92.2613 23.343 94.2647 25.3463 94.2647 27.8088V73.6465C94.2647 76.1088 92.2615 78.1122 89.799 78.1122H9.51068C7.04834 78.1122 5.04492 76.109 5.04492 73.6465V27.8088C5.04492 25.3464 7.04817 23.343 9.51068 23.343H89.799ZM89.799 22.4543H9.51068C6.55353 22.4543 4.15625 24.8516 4.15625 27.8088V73.6465C4.15625 76.6038 6.55353 79.0009 9.51068 79.0009H89.799C92.7563 79.0009 95.1534 76.6038 95.1534 73.6465V27.8088C95.1534 24.8516 92.7561 22.4543 89.799 22.4543Z" fill="#E30613"/>
<path fill-rule="evenodd" clip-rule="evenodd" d="M49.7822 68.1268C53.8072 71.8356 59.213 74.0848 65.0922 74.0848C77.718 74.0848 87.9379 63.7867 87.9379 51.1203C87.9379 38.4155 77.718 28.1172 65.0922 28.1172C59.213 28.1172 53.8074 30.3661 49.7822 34.0752C45.1661 38.2967 42.2461 44.3737 42.2461 51.1203C42.2461 57.8676 45.1663 63.9447 49.7822 68.1268Z" fill="#FAB31E"/>
<path fill-rule="evenodd" clip-rule="evenodd" d="M57.1593 48.6742C57.0804 47.8456 56.9228 47.0564 56.7642 46.2279H42.7968C42.9546 45.3993 43.1908 44.6099 43.4276 43.8208H56.094C55.8171 42.9927 55.5016 42.1638 55.1463 41.3746H44.4144C44.8089 40.5466 45.2428 39.7176 45.7164 38.9285H53.8051C53.292 38.0999 52.7005 37.2711 52.0689 36.5216H47.4522C48.1624 35.6537 48.9519 34.8251 49.78 34.0754C45.7164 30.4058 40.3499 28.1174 34.4316 28.1174C21.8449 28.1174 11.5859 38.4157 11.5859 51.1205C11.5859 63.7869 21.8449 74.0851 34.4316 74.0851C40.3501 74.0851 45.7164 71.8358 49.78 68.127C50.6091 67.3768 51.3586 66.5879 52.0689 65.7198H47.4522C46.8209 64.9308 46.2685 64.1417 45.7163 63.2736H53.805C54.3177 62.4847 54.7518 61.6955 55.1461 60.8273H44.4142C44.0585 60.0383 43.704 59.249 43.4274 58.4201H56.0938C56.3699 57.6311 56.5668 56.8027 56.7641 55.9739C56.9226 55.185 57.0801 54.3558 57.1592 53.5276C57.2379 52.7384 57.2775 51.9495 57.2775 51.1203C57.2777 50.2921 57.2381 49.4633 57.1593 48.6742Z" fill="#E40520"/>
<path fill-rule="evenodd" clip-rule="evenodd" d="M84.8984 56.4472C84.8984 56.0137 85.2137 55.698 85.6087 55.698C86.0423 55.698 86.3582 56.0135 86.3582 56.4472C86.3582 56.8417 86.0425 57.1974 85.6087 57.1974C85.2139 57.1974 84.8984 56.8417 84.8984 56.4472ZM85.6087 56.9994C85.9241 56.9994 86.2003 56.7628 86.2003 56.4472C86.2003 56.1313 85.9241 55.8946 85.6087 55.8946C85.3325 55.8946 85.0563 56.1313 85.0563 56.4472C85.0563 56.7628 85.3326 56.9994 85.6087 56.9994ZM85.5298 56.7628H85.3719V56.1311H85.6481H85.806C85.8849 56.1713 85.8849 56.2502 85.8849 56.329C85.8849 56.3682 85.8456 56.447 85.7665 56.487L85.9243 56.7628H85.7272L85.6483 56.5261H85.5299V56.7628V56.4081H85.6088C85.6483 56.4081 85.6881 56.4081 85.6881 56.3682C85.7272 56.3682 85.7272 56.329 85.7272 56.2895C85.7272 56.2895 85.7272 56.2502 85.6881 56.2502C85.6881 56.2101 85.6481 56.2502 85.6088 56.2502H85.5299V56.4081V56.7628H85.5298Z" fill="white"/>
<path fill-rule="evenodd" clip-rule="evenodd" d="M42.0062 57.7497C41.2569 57.9466 40.7045 58.0651 40.1521 58.0651C38.968 58.0651 38.2578 57.3151 38.2578 55.9737C38.2578 55.6981 38.2973 55.4213 38.3367 55.1057L38.4946 54.1978L38.6131 53.4487L39.6784 46.9775H42.046L41.7693 48.398H43.269L42.9139 50.7656H41.4147L40.7834 54.6322C40.7434 54.83 40.7434 54.9477 40.7434 55.0268C40.7434 55.5404 40.9802 55.737 41.5726 55.737C41.8482 55.737 42.085 55.6981 42.3217 55.6581L42.0062 57.7497Z" fill="#06326E"/>
<path fill-rule="evenodd" clip-rule="evenodd" d="M49.6612 57.6709C48.7933 57.9076 48.0044 58.0256 47.1356 58.0256C44.4527 58.0256 42.9141 56.6052 42.9141 53.8034C42.9141 50.529 44.7291 48.1614 47.254 48.1614C49.2668 48.1614 50.5686 49.5033 50.5686 51.594C50.5686 52.304 50.4898 52.9753 50.2925 53.9221H45.3602C45.3204 54.0801 45.3204 54.159 45.3204 54.2378C45.3204 55.3426 46.0703 55.8946 47.4907 55.8946C48.3984 55.8946 49.1876 55.6982 50.0556 55.3035L49.6612 57.6709ZM48.2009 52.0283C48.2009 51.8309 48.2009 51.6729 48.2009 51.5549C48.2009 50.7659 47.7676 50.3315 47.0174 50.3315C46.2285 50.3315 45.6757 50.9237 45.4393 52.0283H48.2009Z" fill="#06326E"/>
<path fill-rule="evenodd" clip-rule="evenodd" d="M23.069 57.8682H20.6226L22.0431 48.9114L18.8471 57.8682H17.1504L16.9529 48.9512L15.4538 57.8682H13.0469L14.9803 46.2285H18.571L18.6498 53.4093L21.0565 46.2285H25.0022L23.069 57.8682Z" fill="#06326E"/>
<path fill-rule="evenodd" clip-rule="evenodd" d="M29.0261 53.6454C28.7891 53.6064 28.7104 53.6064 28.5526 53.6064C27.1318 53.6064 26.4217 54.1588 26.4217 55.0267C26.4217 55.6191 26.7768 56.0137 27.3292 56.0137C28.5129 56.0139 28.9866 55.0269 29.0261 53.6454ZM30.9987 57.8676H28.8682L28.9077 56.8816C28.3551 57.6309 27.6054 58.0256 26.3035 58.0256C25.1196 58.0256 24.0938 56.9608 24.0938 55.4215C24.0938 54.9882 24.173 54.5936 24.2909 54.1979C24.6854 52.7384 26.1455 51.8309 28.3947 51.7918C28.6706 51.7918 29.1046 51.7918 29.4994 51.8309C29.5783 51.5152 29.5783 51.3972 29.5783 51.1994C29.5783 50.5681 29.0653 50.3715 27.9209 50.3715C27.2107 50.3715 26.4215 50.4892 25.8691 50.687L25.5144 50.7657L25.3566 50.8048L25.7115 48.6743C26.8557 48.3197 27.6845 48.1614 28.592 48.1614C30.7225 48.1614 31.8668 49.1478 31.8668 50.9626C31.8668 51.4361 31.9062 51.7918 31.7484 52.8175L31.196 56.2106L31.1171 56.8028L31.0776 57.2765L31.0382 57.592L30.9987 57.8676Z" fill="#06326E"/>
<path fill-rule="evenodd" clip-rule="evenodd" d="M61.5759 48.4775C62.286 48.4775 62.9175 48.6744 63.7852 49.1088L64.2195 46.5832C63.983 46.4648 63.9039 46.4648 63.5881 46.3467L62.6014 46.0703C62.286 45.9914 61.8916 45.9519 61.4572 45.9519C60.2342 45.9519 59.5242 45.9914 58.7745 46.4256C58.3799 46.7018 57.867 47.0567 57.3146 47.6882L56.9989 47.6093L54.4735 49.3847L54.5919 48.3984H51.9879L50.4492 57.8679H52.9348L53.8422 52.7778C53.8422 52.7778 54.1973 52.0676 54.3551 51.831C54.8284 51.2395 55.223 51.2395 55.7363 51.2395H55.9337C55.8543 51.7919 55.8148 52.3832 55.8148 53.0545C55.8148 56.1316 57.5513 58.0654 60.2342 58.0654C60.905 58.0654 61.4968 57.9867 62.4043 57.7499L62.8382 55.067C62.0491 55.5005 61.3386 55.6985 60.747 55.6985C59.2872 55.6985 58.4194 54.5937 58.4194 52.8567C58.4197 50.2924 59.7216 48.4775 61.5759 48.4775Z" fill="#06326E"/>
<path fill-rule="evenodd" clip-rule="evenodd" d="M82.5303 46.2277L81.978 49.5419C81.386 48.635 80.6761 48.2004 79.7292 48.2004C78.4266 48.2004 77.2036 48.9504 76.4539 50.3711V50.3311L74.8756 49.3839L75.0334 48.3977H72.39L70.8906 57.8672H73.3371L74.1654 52.777C74.1654 52.777 74.7967 52.0668 74.9545 51.8303C75.3491 51.357 75.7437 51.2777 76.0593 51.2388C75.7831 52.0277 75.6255 52.975 75.6255 54.0397C75.6255 56.4078 76.8486 57.9859 78.6638 57.9859C79.5713 57.9859 80.2816 57.6704 80.9522 56.9202L80.834 57.8672H83.1618L85.0555 46.2275L82.5303 46.2277ZM79.4924 55.619C78.6637 55.619 78.2296 54.9877 78.2296 53.764C78.2296 51.9092 79.0182 50.5678 80.1628 50.5678C81.0313 50.5678 81.4651 51.2389 81.4651 52.4228C81.4651 54.3166 80.676 55.619 79.4924 55.619Z" fill="#06326E"/>
<path fill-rule="evenodd" clip-rule="evenodd" d="M68.0893 53.6454C67.8524 53.6064 67.7735 53.6064 67.6159 53.6064C66.1954 53.6064 65.4852 54.1588 65.4852 55.0267C65.4852 55.6191 65.8405 56.0137 66.3927 56.0137C67.5762 56.0139 68.0499 55.0269 68.0893 53.6454ZM70.062 57.8676H67.8919L67.971 56.8816C67.4186 57.6309 66.6689 58.0256 65.367 58.0256C64.1438 58.0256 63.0781 56.9998 63.0781 55.4215C63.0781 53.1722 64.7751 51.7918 67.458 51.7918C67.7342 51.7918 68.1683 51.7918 68.5234 51.8309C68.6021 51.5152 68.6417 51.3972 68.6417 51.1994C68.6417 50.5681 68.129 50.3715 66.9451 50.3715C66.2745 50.3715 65.4457 50.4892 64.8937 50.687L64.578 50.7657L64.4198 50.8048L64.7751 48.6743C65.9194 48.3197 66.7478 48.1614 67.6553 48.1614C69.7858 48.1614 70.891 49.1478 70.891 50.9626C70.891 51.4361 70.9694 51.7918 70.7722 52.8175L70.2591 56.2106L70.1804 56.8028L70.1015 57.2765L70.062 57.592V57.8676Z" fill="#06326E"/>
<path fill-rule="evenodd" clip-rule="evenodd" d="M36.1676 50.4102C36.6411 50.4102 37.3119 50.4502 38.0221 50.5681L38.3772 48.3587C37.667 48.2799 36.7199 48.1614 36.1676 48.1614C33.4057 48.1614 32.498 49.6611 32.498 51.397C32.498 52.5411 33.0113 53.3699 34.3526 54.0012C35.3389 54.4745 35.4969 54.5534 35.4969 54.988C35.4969 55.5795 34.9839 55.9349 34.037 55.9349C33.2873 55.9349 32.5772 55.816 31.7879 55.5404L31.5117 57.7098L31.5512 57.7496L32.0247 57.8285C32.1823 57.8676 32.3801 57.9074 32.6562 57.9465C33.248 57.9864 33.7609 58.0255 34.0764 58.0255C36.8386 58.0255 37.9828 56.9607 37.9828 54.8689C37.9828 53.5663 37.3514 52.7773 36.1282 52.2249C35.0629 51.7516 34.9445 51.6727 34.9445 51.239C34.9445 50.8048 35.418 50.4102 36.1676 50.4102Z" fill="#06326E"/>
<path fill-rule="evenodd" clip-rule="evenodd" d="M64.8961 45.8331L64.4619 48.3582C63.5935 47.9244 62.9622 47.7269 62.2519 47.7269C60.3976 47.7269 59.0954 49.5419 59.0954 52.107C59.0954 53.882 59.9636 54.9475 61.4233 54.9475C62.0152 54.9475 62.7254 54.751 63.5146 54.3553L63.0807 56.9993C62.1732 57.236 61.5814 57.3548 60.9108 57.3548C58.2277 57.3548 56.5703 55.421 56.5703 52.3037C56.5703 48.1609 58.859 45.2415 62.1338 45.2415C62.5676 45.2415 62.9624 45.2809 63.2784 45.3598L64.2646 45.5966C64.5803 45.7148 64.6588 45.7542 64.8961 45.8331Z" fill="white"/>
<path fill-rule="evenodd" clip-rule="evenodd" d="M56.9218 47.5688C56.8429 47.5688 56.7633 47.5688 56.6849 47.5688C55.8558 47.5688 55.3827 47.9634 54.6328 49.108L54.8694 47.6478H52.6209L51.082 57.1178H53.5675C54.475 51.3174 54.7117 50.3307 55.8954 50.3307H56.0533C56.29 49.1868 56.6057 48.3578 57.0006 47.6081L56.9218 47.5688Z" fill="white"/>
<path fill-rule="evenodd" clip-rule="evenodd" d="M42.6389 56.9988C41.9686 57.2356 41.4164 57.3143 40.8638 57.3143C39.601 57.3143 38.8906 56.6042 38.8906 55.2238C38.8906 54.987 38.9301 54.6705 38.9695 54.3948L39.1275 53.4479L39.2457 52.6976L40.3116 46.2271H42.7578L42.481 47.6475H43.7437L43.4282 49.9758H42.1656L41.4953 53.9212C41.4555 54.0792 41.4555 54.197 41.4555 54.3159C41.4555 54.7894 41.6923 54.987 42.2845 54.987C42.5601 54.987 42.7974 54.987 42.9552 54.9081L42.6389 56.9988Z" fill="white"/>
<path fill-rule="evenodd" clip-rule="evenodd" d="M33.1309 50.6469C33.1309 51.8306 33.6831 52.6594 34.9852 53.2909C36.0113 53.7642 36.1691 53.922 36.1691 54.3166C36.1691 54.9088 35.7353 55.1846 34.7487 55.1846C33.999 55.1846 33.3282 55.0666 32.5391 54.83L32.1836 56.9995L32.3021 57.0394L32.7363 57.1184C32.894 57.1573 33.0915 57.1973 33.4071 57.1973C33.9595 57.276 34.4328 57.276 34.7487 57.276C37.3528 57.276 38.576 56.2894 38.576 54.1195C38.576 52.817 38.063 52.067 36.8399 51.4757C35.7745 51.0023 35.656 50.8833 35.656 50.45C35.656 49.9367 36.0902 49.6997 36.8793 49.6997C37.3526 49.6997 38.0236 49.7397 38.6547 49.8186L39.0098 47.6481C38.3785 47.5298 37.3923 47.4507 36.8399 47.4507C34.0777 47.4509 33.0915 48.9108 33.1309 50.6469Z" fill="white"/>
<path fill-rule="evenodd" clip-rule="evenodd" d="M83.7939 57.1183H81.4661L81.5843 56.2103C80.9137 56.9205 80.2033 57.2362 79.296 57.2362C77.4804 57.2362 76.2969 55.698 76.2969 53.3297C76.2969 50.1735 78.1515 47.4904 80.3218 47.4904C81.3083 47.4904 82.0185 47.9245 82.6891 48.7929L83.2415 45.4778H85.6882L83.7939 57.1183ZM80.1638 54.9089C81.3081 54.9089 82.0974 53.5663 82.0974 51.7129C82.0974 50.489 81.6632 49.8579 80.7955 49.8579C79.6905 49.8579 78.8616 51.1601 78.8616 53.0143C78.8616 54.2774 79.296 54.9089 80.1638 54.9089Z" fill="white"/>
<path fill-rule="evenodd" clip-rule="evenodd" d="M50.2159 56.9198C49.348 57.1967 48.5591 57.3144 47.6508 57.3144C44.8892 57.3144 43.4688 55.855 43.4688 53.0534C43.4688 49.8181 45.2836 47.4106 47.7699 47.4106C49.8213 47.4106 51.1234 48.7522 51.1234 50.8436C51.1234 51.5538 51.0443 52.2242 50.8078 53.2112H45.9149C45.8755 53.3288 45.8755 53.4078 45.8755 53.4867C45.8755 54.5925 46.6251 55.1448 48.0456 55.1448C48.9533 55.1448 49.7424 54.9869 50.6107 54.5525L50.2159 56.9198ZM48.8346 51.2773C48.8346 51.0805 48.8346 50.9229 48.8346 50.804C48.8346 50.0148 48.4011 49.581 47.6508 49.581C46.8619 49.581 46.3095 50.173 46.0727 51.2773H48.8346Z" fill="white"/>
<path fill-rule="evenodd" clip-rule="evenodd" d="M23.7006 57.1183H21.2544L22.6747 48.1612L19.4787 57.1183H17.7819L17.5847 48.24L16.0852 57.1183H13.7969L15.7303 45.4778H19.2814L19.3998 52.6984L21.767 45.4778H25.634L23.7006 57.1183Z" fill="white"/>
<path fill-rule="evenodd" clip-rule="evenodd" d="M29.8159 52.8963C29.5792 52.8963 29.4608 52.8561 29.2637 52.8561C27.8826 52.8561 27.1723 53.3696 27.1723 54.3166C27.1723 54.9088 27.488 55.2635 28.0404 55.2635C29.0664 55.2637 29.7767 54.3167 29.8159 52.8963ZM31.631 57.1184H29.5792L29.6187 56.1312C28.9874 56.9204 28.1586 57.276 27.0145 57.276C25.6731 57.276 24.7656 56.2503 24.7656 54.7108C24.7656 52.3825 26.3437 51.0413 29.1055 51.0413C29.3817 51.0413 29.7372 51.0811 30.1316 51.12C30.2105 50.8045 30.2105 50.6867 30.2105 50.5287C30.2105 49.8976 29.7767 49.6608 28.6322 49.6608C27.922 49.6608 27.1329 49.7397 26.5806 49.8976L26.2255 50.0154L25.9888 50.0552L26.3439 47.9245C27.5669 47.5692 28.3958 47.4507 29.3032 47.4507C31.4337 47.4507 32.5781 48.3978 32.5781 50.213C32.5781 50.6865 32.5387 51.0411 32.381 52.1068L31.8283 55.461L31.7493 56.0523L31.7099 56.5258L31.6706 56.8811L31.631 57.1184Z" fill="white"/>
<path fill-rule="evenodd" clip-rule="evenodd" d="M68.8783 52.8963C68.6019 52.8963 68.4837 52.8561 68.3259 52.8561C66.9056 52.8561 66.1954 53.3696 66.1954 54.3166C66.1954 54.9088 66.5505 55.2635 67.1029 55.2635C68.0891 55.2637 68.8388 54.3167 68.8783 52.8963ZM70.6929 57.1184H68.6413L68.6808 56.1312C68.0497 56.9204 67.2211 57.276 66.077 57.276C64.7355 57.276 63.8281 56.2503 63.8281 54.7108C63.8281 52.3825 65.4062 51.0413 68.168 51.0413C68.4442 51.0413 68.7994 51.0811 69.1546 51.12C69.2334 50.8045 69.2728 50.6867 69.2728 50.5287C69.2728 49.8976 68.839 49.6608 67.6946 49.6608C66.9845 49.6608 66.1561 49.7397 65.6033 49.8976L65.2879 50.0154L65.0511 50.0552L65.4062 47.9245C66.6294 47.5692 67.4578 47.4507 68.3651 47.4507C70.4958 47.4507 71.601 48.3978 71.601 50.213C71.601 50.6865 71.601 51.0411 71.4032 52.1068L70.8908 55.461L70.8115 56.0523L70.7327 56.5258L70.6931 56.8811V57.1184H70.6929Z" fill="white"/>
<path fill-rule="evenodd" clip-rule="evenodd" d="M77.3236 47.5688C77.2447 47.5688 77.1656 47.5688 77.0869 47.5688C76.2583 47.5688 75.785 47.9634 75.0351 49.108L75.2717 47.6478H73.0232L71.5234 57.1178H73.97C74.8775 51.3174 75.1142 50.3307 76.2979 50.3307H76.4559C76.6925 49.1868 77.0081 48.3578 77.4027 47.6081L77.3236 47.5688Z" fill="white"/>
</g>
<defs>
<clipPath id="clip0_14347_33338">
<rect width="91" height="91" fill="white" transform="translate(4 5)"/>
</clipPath>
</defs>
</svg>
