<svg width="24" height="24" viewBox="0 0 24 24" fill="none" xmlns="http://www.w3.org/2000/svg">
<path d="M17.0425 8.17526L18 7.21105V7H14.683L12.319 13.1937L9.6295 7H6.1515V7.21105L7.27 8.62842C7.379 8.73316 7.436 8.88632 7.4215 9.04053V14.6105C7.456 14.8111 7.394 15.0174 7.26 15.1632L6 16.7705V16.9789H9.5725V16.7679L8.3125 15.1632C8.176 15.0168 8.1115 14.8142 8.139 14.6105V9.79263L11.275 16.9816H11.6395L14.336 9.79263V15.5195C14.336 15.6705 14.336 15.7016 14.242 15.8005L13.272 16.7884V17H17.978V16.7889L17.043 15.8253C16.961 15.76 16.9185 15.6505 16.936 15.5442V8.45632C16.9185 8.34947 16.9605 8.24 17.0425 8.17526Z" fill="#7C8EA1"/>
</svg>
