<svg width="420" height="332" viewBox="0 0 420 332" fill="none" xmlns="http://www.w3.org/2000/svg">
<g clip-path="url(#clip0_14832_45389)">
<path opacity="0.2" d="M105.421 255.297C125.886 253.289 152.355 251.874 185.532 251.401C192.812 251.251 200.283 251.172 207.898 251.172C213.016 251.172 218.066 251.209 223.039 251.278C227.92 251.314 232.728 251.371 237.449 251.447C237.588 251.323 237.729 251.199 237.866 251.072C237.991 251.203 238.119 251.332 238.247 251.46C271.226 252.01 300.854 253.232 320.652 255.297C331.605 246.396 337.497 234.015 337.497 219.972C337.497 217.017 337.193 214.126 336.611 211.317C333.539 196.477 334.312 181.173 339.737 166.849C342.553 159.412 344.071 151.464 344.058 143.208C343.993 101.765 304.811 67.8828 257.011 67.9302C246.088 67.9413 235.637 69.6995 226.01 72.8988C211.031 77.8772 195.019 80.2165 179.039 79.001C176.765 78.8281 174.462 78.7397 172.136 78.7397C136.517 78.7397 106.472 99.4175 97.0915 127.683C94.435 135.688 90.8034 143.437 85.7919 150.545C76.8778 163.186 71.7383 178.045 71.7383 193.947C71.7383 218.223 86.3184 240.064 105.421 255.297Z" fill="#0054A6"/>
<path opacity="0.4" d="M212.289 276.07C287.941 276.07 349.269 270.402 349.269 263.411C349.269 256.419 287.941 250.751 212.289 250.751C136.637 250.751 75.3086 256.419 75.3086 263.411C75.3086 270.402 136.637 276.07 212.289 276.07Z" fill="#0984E3"/>
<path d="M118.668 266.287L104.496 264.382C100.244 263.81 97.2326 259.864 97.8039 255.613L109.406 169.289C109.977 165.037 113.923 162.026 118.176 162.597L132.348 164.501C136.6 165.073 139.611 169.019 139.04 173.271L127.437 259.595C126.866 263.847 122.92 266.858 118.668 266.287Z" fill="#0062BA"/>
<mask id="mask0_14832_45389" style="mask-type:luminance" maskUnits="userSpaceOnUse" x="97" y="162" width="43" height="105">
<path d="M118.672 266.287L104.5 264.382C100.248 263.811 97.2365 259.865 97.8079 255.613L109.41 169.289C109.981 165.038 113.927 162.026 118.18 162.597L132.352 164.502C136.604 165.073 139.615 169.019 139.044 173.272L127.441 259.596C126.87 263.847 122.924 266.859 118.672 266.287Z" fill="white"/>
</mask>
<g mask="url(#mask0_14832_45389)">
<path d="M131.138 202.159L124.044 254.942C123.536 258.717 120.033 261.391 116.257 260.884L107.824 259.75C104.048 259.243 101.375 255.739 101.882 251.964L108.976 199.181L131.138 202.159Z" fill="#002548"/>
<mask id="mask1_14832_45389" style="mask-type:luminance" maskUnits="userSpaceOnUse" x="101" y="199" width="31" height="62">
<path d="M131.142 202.159L124.048 254.943C123.54 258.718 120.037 261.391 116.261 260.884L107.828 259.751C104.052 259.243 101.379 255.74 101.886 251.964L108.98 199.181L131.142 202.159Z" fill="white"/>
</mask>
<g mask="url(#mask1_14832_45389)">
<path opacity="0.1" d="M112.358 213.092C113.411 212.116 115.056 212.177 116.033 213.229C117.01 214.281 116.949 215.926 115.896 216.903C114.844 217.88 113.199 217.819 112.222 216.767C111.245 215.715 111.306 214.069 112.358 213.092Z" fill="white"/>
</g>
<mask id="mask2_14832_45389" style="mask-type:luminance" maskUnits="userSpaceOnUse" x="101" y="199" width="31" height="62">
<path d="M131.142 202.159L124.048 254.943C123.54 258.718 120.037 261.391 116.261 260.884L107.828 259.751C104.052 259.243 101.379 255.74 101.886 251.964L108.98 199.181L131.142 202.159Z" fill="white"/>
</mask>
<g mask="url(#mask2_14832_45389)">
<path opacity="0.1" d="M118.027 209.011C116.799 210.151 114.88 210.079 113.74 208.851C112.6 207.624 112.671 205.704 113.899 204.565C115.127 203.425 117.046 203.496 118.186 204.724C119.325 205.952 119.254 207.871 118.027 209.011Z" fill="white"/>
</g>
<mask id="mask3_14832_45389" style="mask-type:luminance" maskUnits="userSpaceOnUse" x="101" y="199" width="31" height="62">
<path d="M131.142 202.159L124.048 254.943C123.54 258.718 120.037 261.391 116.261 260.884L107.828 259.751C104.052 259.243 101.379 255.74 101.886 251.964L108.98 199.181L131.142 202.159Z" fill="white"/>
</mask>
<g mask="url(#mask3_14832_45389)">
<path opacity="0.1" d="M119.357 210.439C119.972 209.869 120.933 209.904 121.504 210.519C122.074 211.134 122.039 212.096 121.424 212.666C120.809 213.237 119.847 213.201 119.277 212.586C118.706 211.971 118.742 211.01 119.357 210.439Z" fill="white"/>
</g>
<mask id="mask4_14832_45389" style="mask-type:luminance" maskUnits="userSpaceOnUse" x="101" y="199" width="31" height="62">
<path d="M131.142 202.159L124.048 254.943C123.54 258.718 120.037 261.391 116.261 260.884L107.828 259.751C104.052 259.243 101.379 255.74 101.886 251.964L108.98 199.181L131.142 202.159Z" fill="white"/>
</mask>
<g mask="url(#mask4_14832_45389)">
<path opacity="0.1" d="M120.171 218.055C119.627 219.384 120.264 220.902 121.593 221.446C122.922 221.989 124.44 221.353 124.984 220.023C125.527 218.694 124.891 217.176 123.562 216.633C122.233 216.09 120.715 216.727 120.171 218.055Z" fill="white"/>
</g>
<mask id="mask5_14832_45389" style="mask-type:luminance" maskUnits="userSpaceOnUse" x="101" y="199" width="31" height="62">
<path d="M131.142 202.159L124.048 254.943C123.54 258.718 120.037 261.391 116.261 260.884L107.828 259.751C104.052 259.243 101.379 255.74 101.886 251.964L108.98 199.181L131.142 202.159Z" fill="white"/>
</mask>
<g mask="url(#mask5_14832_45389)">
<path opacity="0.1" d="M118.349 224.801C118.984 223.251 118.241 221.48 116.69 220.845C115.14 220.211 113.369 220.954 112.734 222.505C112.1 224.055 112.843 225.826 114.393 226.461C115.944 227.095 117.715 226.352 118.349 224.801Z" fill="white"/>
</g>
<mask id="mask6_14832_45389" style="mask-type:luminance" maskUnits="userSpaceOnUse" x="101" y="199" width="31" height="62">
<path d="M131.142 202.159L124.048 254.943C123.54 258.718 120.037 261.391 116.261 260.884L107.828 259.751C104.052 259.243 101.379 255.74 101.886 251.964L108.98 199.181L131.142 202.159Z" fill="white"/>
</mask>
<g mask="url(#mask6_14832_45389)">
<path opacity="0.1" d="M120.157 225.539C119.839 226.316 120.211 227.202 120.987 227.52C121.764 227.838 122.651 227.466 122.968 226.689C123.286 225.913 122.914 225.026 122.138 224.708C121.362 224.39 120.474 224.763 120.157 225.539Z" fill="white"/>
</g>
<mask id="mask7_14832_45389" style="mask-type:luminance" maskUnits="userSpaceOnUse" x="101" y="199" width="31" height="62">
<path d="M131.142 202.159L124.048 254.943C123.54 258.718 120.037 261.391 116.261 260.884L107.828 259.751C104.052 259.243 101.379 255.74 101.886 251.964L108.98 199.181L131.142 202.159Z" fill="white"/>
</mask>
<g mask="url(#mask7_14832_45389)">
<path opacity="0.1" d="M116.18 229.49C115.862 230.267 116.235 231.153 117.011 231.471C117.787 231.789 118.674 231.417 118.992 230.641C119.31 229.864 118.937 228.977 118.161 228.659C117.384 228.342 116.497 228.714 116.18 229.49Z" fill="white"/>
</g>
<mask id="mask8_14832_45389" style="mask-type:luminance" maskUnits="userSpaceOnUse" x="101" y="199" width="31" height="62">
<path d="M131.142 202.159L124.048 254.943C123.54 258.718 120.037 261.391 116.261 260.884L107.828 259.751C104.052 259.243 101.379 255.74 101.886 251.964L108.98 199.181L131.142 202.159Z" fill="white"/>
</mask>
<g mask="url(#mask8_14832_45389)">
<path opacity="0.1" d="M124.321 211.624C124.003 212.401 124.375 213.287 125.151 213.605C125.928 213.923 126.815 213.551 127.132 212.775C127.45 211.998 127.079 211.111 126.302 210.793C125.526 210.475 124.638 210.847 124.321 211.624Z" fill="white"/>
</g>
</g>
<mask id="mask9_14832_45389" style="mask-type:luminance" maskUnits="userSpaceOnUse" x="97" y="162" width="43" height="105">
<path d="M118.672 266.287L104.5 264.382C100.248 263.811 97.2365 259.865 97.8079 255.613L109.41 169.289C109.981 165.038 113.927 162.026 118.18 162.597L132.352 164.502C136.604 165.073 139.615 169.019 139.044 173.272L127.441 259.596C126.87 263.847 122.924 266.859 118.672 266.287Z" fill="white"/>
</mask>
<g mask="url(#mask9_14832_45389)">
<path opacity="0.05" d="M135.44 149.183C135.43 149.483 135.406 149.786 135.365 150.089L121.997 249.552C121.338 254.451 116.792 257.92 111.893 257.263L95.5627 255.067C95.1578 255.013 94.7671 254.923 94.3836 254.817C94.2361 259.359 97.5732 263.398 102.169 264.015L118.499 266.21C123.398 266.868 127.944 263.398 128.603 258.499L141.971 159.036C142.575 154.543 139.701 150.354 135.44 149.183Z" fill="black"/>
</g>
<path d="M136.556 179.534L110.143 175.984C107.663 175.651 105.906 173.349 106.24 170.869L106.949 165.591C107.282 163.111 109.584 161.355 112.065 161.688L138.477 165.238C140.958 165.571 142.714 167.873 142.38 170.353L141.671 175.631C141.338 178.11 139.036 179.867 136.556 179.534Z" fill="#0984E3"/>
<mask id="mask10_14832_45389" style="mask-type:luminance" maskUnits="userSpaceOnUse" x="106" y="161" width="37" height="19">
<path d="M136.552 179.534L110.139 175.985C107.659 175.651 105.902 173.35 106.236 170.869L106.945 165.592C107.279 163.111 109.58 161.355 112.061 161.689L138.473 165.238C140.954 165.572 142.71 167.873 142.377 170.354L141.667 175.631C141.334 178.111 139.032 179.868 136.552 179.534Z" fill="white"/>
</mask>
<g mask="url(#mask10_14832_45389)">
<path opacity="0.08" d="M140.276 165.893C140.272 166.056 140.261 166.22 140.239 166.385L139.529 171.662C139.196 174.143 136.894 175.899 134.414 175.566L108.001 172.016C107.34 171.927 106.733 171.695 106.201 171.36C106.143 173.646 107.827 175.672 110.142 175.984L136.554 179.533C139.035 179.867 141.336 178.11 141.67 175.63L142.379 170.353C142.624 168.534 141.741 166.814 140.276 165.893Z" fill="black"/>
</g>
<mask id="mask11_14832_45389" style="mask-type:luminance" maskUnits="userSpaceOnUse" x="106" y="161" width="37" height="19">
<path d="M136.552 179.534L110.139 175.985C107.659 175.651 105.902 173.35 106.236 170.869L106.945 165.592C107.279 163.111 109.58 161.355 112.061 161.689L138.473 165.238C140.954 165.572 142.71 167.873 142.377 170.354L141.667 175.631C141.334 178.111 139.032 179.868 136.552 179.534Z" fill="white"/>
</mask>
<g mask="url(#mask11_14832_45389)">
<g opacity="0.1">
<path d="M160.606 150.991L156.867 148.801L121.026 209.975L124.765 212.166L160.606 150.991Z" fill="white"/>
<path d="M167.219 154.864L163.48 152.674L127.64 213.848L131.378 216.039L167.219 154.864Z" fill="white"/>
<path d="M173.825 158.737L170.086 156.546L134.245 217.721L137.984 219.911L173.825 158.737Z" fill="white"/>
<path d="M180.438 162.611L176.699 160.42L140.858 221.594L144.597 223.785L180.438 162.611Z" fill="white"/>
<path d="M147.38 143.245L143.641 141.054L107.8 202.228L111.539 204.419L147.38 143.245Z" fill="white"/>
<path d="M153.993 147.118L150.254 144.927L114.413 206.101L118.152 208.292L153.993 147.118Z" fill="white"/>
<path d="M120.938 127.753L117.199 125.562L81.3583 186.736L85.0972 188.927L120.938 127.753Z" fill="white"/>
<path d="M127.548 131.625L123.809 129.434L87.9676 190.608L91.7066 192.799L127.548 131.625Z" fill="white"/>
<path d="M134.161 135.498L130.422 133.308L94.5809 194.482L98.3199 196.672L134.161 135.498Z" fill="white"/>
<path d="M140.774 139.372L137.035 137.181L101.194 198.355L104.933 200.546L140.774 139.372Z" fill="white"/>
<path d="M107.716 120.006L103.977 117.815L68.1356 178.99L71.8746 181.18L107.716 120.006Z" fill="white"/>
<path d="M114.329 123.88L110.59 121.689L74.7489 182.863L78.4879 185.054L114.329 123.88Z" fill="white"/>
</g>
</g>
<path d="M240.056 140.724V138.424H198.207V140.724C198.207 144.846 196.311 148.568 193.263 151.217C186.157 157.394 182.082 165.878 182.082 174.785V253.306C182.082 260.117 188.197 265.639 195.739 265.639H242.525C250.067 265.639 256.182 260.117 256.182 253.306V174.785C256.182 165.878 252.107 157.394 245.001 151.217C241.953 148.568 240.056 144.846 240.056 140.724Z" fill="#0062BA"/>
<mask id="mask12_14832_45389" style="mask-type:luminance" maskUnits="userSpaceOnUse" x="182" y="138" width="75" height="128">
<path d="M240.056 140.724V138.424H198.207V140.724C198.207 144.846 196.311 148.568 193.263 151.217C186.157 157.394 182.082 165.878 182.082 174.785V253.306C182.082 260.117 188.197 265.639 195.739 265.639H242.525C250.067 265.639 256.182 260.117 256.182 253.306V174.785C256.182 165.878 252.107 157.394 245.001 151.217C241.953 148.568 240.056 144.846 240.056 140.724Z" fill="white"/>
</mask>
<g mask="url(#mask12_14832_45389)">
<g opacity="0.1">
<path d="M239.046 142.19H200.23C195.94 142.19 192.43 138.68 192.43 134.39V133.554C192.43 129.264 195.94 125.754 200.23 125.754H239.046C243.336 125.754 246.846 129.264 246.846 133.554V134.39C246.846 138.68 243.336 142.19 239.046 142.19Z" fill="black"/>
</g>
</g>
<mask id="mask13_14832_45389" style="mask-type:luminance" maskUnits="userSpaceOnUse" x="182" y="138" width="75" height="128">
<path d="M240.056 140.724V138.424H198.207V140.724C198.207 144.846 196.311 148.568 193.263 151.217C186.157 157.394 182.082 165.878 182.082 174.785V253.306C182.082 260.117 188.197 265.639 195.739 265.639H242.525C250.067 265.639 256.182 260.117 256.182 253.306V174.785C256.182 165.878 252.107 157.394 245.001 151.217C241.953 148.568 240.056 144.846 240.056 140.724Z" fill="white"/>
</mask>
<g mask="url(#mask13_14832_45389)">
<path d="M270.109 174.657H168.059V229.246H270.109V174.657Z" fill="white"/>
</g>
<mask id="mask14_14832_45389" style="mask-type:luminance" maskUnits="userSpaceOnUse" x="182" y="138" width="75" height="128">
<path d="M240.056 140.724V138.424H198.207V140.724C198.207 144.846 196.311 148.568 193.263 151.217C186.157 157.394 182.082 165.878 182.082 174.785V253.306C182.082 260.117 188.197 265.639 195.739 265.639H242.525C250.067 265.639 256.182 260.117 256.182 253.306V174.785C256.182 165.878 252.107 157.394 245.001 151.217C241.953 148.568 240.056 144.846 240.056 140.724Z" fill="white"/>
</mask>
<g mask="url(#mask14_14832_45389)">
<path d="M234.198 222.202H177.321C174.719 222.202 172.609 220.093 172.609 217.491V198.151C172.609 195.549 174.719 193.44 177.321 193.44H234.198C236.8 193.44 238.909 195.549 238.909 198.151V217.491C238.909 220.093 236.8 222.202 234.198 222.202Z" fill="#002548"/>
</g>
<mask id="mask15_14832_45389" style="mask-type:luminance" maskUnits="userSpaceOnUse" x="182" y="138" width="75" height="128">
<path d="M240.056 140.724V138.424H198.207V140.724C198.207 144.846 196.311 148.568 193.263 151.217C186.157 157.394 182.082 165.878 182.082 174.785V253.306C182.082 260.117 188.197 265.639 195.739 265.639H242.525C250.067 265.639 256.182 260.117 256.182 253.306V174.785C256.182 165.878 252.107 157.394 245.001 151.217C241.953 148.568 240.056 144.846 240.056 140.724Z" fill="white"/>
</mask>
<g mask="url(#mask15_14832_45389)">
<path opacity="0.015" d="M160.305 251.181L221.316 250.869C234.516 250.802 245.15 240.026 245.041 226.827L244.372 145.447L269.938 182.714V268.947H176.772L160.305 251.181Z" fill="black"/>
</g>
<mask id="mask16_14832_45389" style="mask-type:luminance" maskUnits="userSpaceOnUse" x="182" y="138" width="75" height="128">
<path d="M240.056 140.724V138.424H198.207V140.724C198.207 144.846 196.311 148.568 193.263 151.217C186.157 157.394 182.082 165.878 182.082 174.785V253.306C182.082 260.117 188.197 265.639 195.739 265.639H242.525C250.067 265.639 256.182 260.117 256.182 253.306V174.785C256.182 165.878 252.107 157.394 245.001 151.217C241.953 148.568 240.056 144.846 240.056 140.724Z" fill="white"/>
</mask>
<g mask="url(#mask16_14832_45389)">
<path d="M230.314 203.68H204.808C204.093 203.68 203.508 203.095 203.508 202.38C203.508 201.665 204.093 201.08 204.808 201.08H230.314C231.029 201.08 231.614 201.665 231.614 202.38C231.614 203.095 231.029 203.68 230.314 203.68Z" fill="white"/>
</g>
<mask id="mask17_14832_45389" style="mask-type:luminance" maskUnits="userSpaceOnUse" x="182" y="138" width="75" height="128">
<path d="M240.056 140.724V138.424H198.207V140.724C198.207 144.846 196.311 148.568 193.263 151.217C186.157 157.394 182.082 165.878 182.082 174.785V253.306C182.082 260.117 188.197 265.639 195.739 265.639H242.525C250.067 265.639 256.182 260.117 256.182 253.306V174.785C256.182 165.878 252.107 157.394 245.001 151.217C241.953 148.568 240.056 144.846 240.056 140.724Z" fill="white"/>
</mask>
<g mask="url(#mask17_14832_45389)">
<path d="M223.662 208.987H204.808C204.093 208.987 203.508 208.402 203.508 207.687C203.508 206.972 204.093 206.387 204.808 206.387H223.662C224.377 206.387 224.962 206.972 224.962 207.687C224.962 208.402 224.377 208.987 223.662 208.987Z" fill="white"/>
</g>
<mask id="mask18_14832_45389" style="mask-type:luminance" maskUnits="userSpaceOnUse" x="182" y="138" width="75" height="128">
<path d="M240.056 140.724V138.424H198.207V140.724C198.207 144.846 196.311 148.568 193.263 151.217C186.157 157.394 182.082 165.878 182.082 174.785V253.306C182.082 260.117 188.197 265.639 195.739 265.639H242.525C250.067 265.639 256.182 260.117 256.182 253.306V174.785C256.182 165.878 252.107 157.394 245.001 151.217C241.953 148.568 240.056 144.846 240.056 140.724Z" fill="white"/>
</mask>
<g mask="url(#mask18_14832_45389)">
<path d="M230.314 214.293H204.808C204.093 214.293 203.508 213.708 203.508 212.993C203.508 212.278 204.093 211.693 204.808 211.693H230.314C231.029 211.693 231.614 212.278 231.614 212.993C231.614 213.708 231.029 214.293 230.314 214.293Z" fill="white"/>
</g>
<mask id="mask19_14832_45389" style="mask-type:luminance" maskUnits="userSpaceOnUse" x="182" y="138" width="75" height="128">
<path d="M240.056 140.724V138.424H198.207V140.724C198.207 144.846 196.311 148.568 193.263 151.217C186.157 157.394 182.082 165.878 182.082 174.785V253.306C182.082 260.117 188.197 265.639 195.739 265.639H242.525C250.067 265.639 256.182 260.117 256.182 253.306V174.785C256.182 165.878 252.107 157.394 245.001 151.217C241.953 148.568 240.056 144.846 240.056 140.724Z" fill="white"/>
</mask>
<g mask="url(#mask19_14832_45389)">
<path d="M198.547 205.655H195.947V203.055C195.947 201.863 194.972 200.888 193.781 200.888C192.589 200.888 191.614 201.863 191.614 203.055V205.655H189.014C187.823 205.655 186.848 206.63 186.848 207.821C186.848 209.013 187.823 209.988 189.014 209.988H191.614V212.588C191.614 213.779 192.589 214.754 193.781 214.754C194.972 214.754 195.947 213.779 195.947 212.588V209.988H198.547C199.738 209.988 200.713 209.013 200.713 207.821C200.713 206.63 199.738 205.655 198.547 205.655Z" fill="white"/>
</g>
<path d="M236.074 140.643H201.202C196.912 140.643 193.402 137.133 193.402 132.843V130.243C193.402 125.953 196.912 122.443 201.202 122.443H236.074C240.364 122.443 243.874 125.953 243.874 130.243V132.843C243.874 137.133 240.364 140.643 236.074 140.643Z" fill="#0984E3"/>
<mask id="mask20_14832_45389" style="mask-type:luminance" maskUnits="userSpaceOnUse" x="193" y="122" width="51" height="19">
<path d="M236.074 140.642H201.202C196.912 140.642 193.402 137.132 193.402 132.842V130.242C193.402 125.952 196.912 122.442 201.202 122.442H236.074C240.364 122.442 243.874 125.952 243.874 130.242V132.842C243.874 137.132 240.364 140.642 236.074 140.642Z" fill="white"/>
</mask>
<g mask="url(#mask20_14832_45389)">
<g opacity="0.1">
<path d="M254.848 111.989L251.109 109.798L215.268 170.973L219.007 173.163L254.848 111.989Z" fill="white"/>
<path d="M261.462 115.861L257.723 113.67L221.882 174.844L225.621 177.035L261.462 115.861Z" fill="white"/>
<path d="M268.067 119.735L264.328 117.544L228.487 178.718L232.226 180.909L268.067 119.735Z" fill="white"/>
<path d="M274.68 123.608L270.941 121.417L235.1 182.592L238.839 184.782L274.68 123.608Z" fill="white"/>
<path d="M241.622 104.242L237.883 102.052L202.042 163.226L205.781 165.417L241.622 104.242Z" fill="white"/>
<path d="M248.235 108.115L244.496 105.925L208.655 167.099L212.394 169.29L248.235 108.115Z" fill="white"/>
<path d="M215.18 88.7502L211.441 86.5596L175.6 147.734L179.339 149.924L215.18 88.7502Z" fill="white"/>
<path d="M221.79 92.6222L218.051 90.4316L182.21 151.606L185.949 153.796L221.79 92.6222Z" fill="white"/>
<path d="M228.403 96.4958L224.664 94.3052L188.823 155.479L192.562 157.67L228.403 96.4958Z" fill="white"/>
<path d="M235.016 100.368L231.277 98.1772L195.436 159.351L199.175 161.542L235.016 100.368Z" fill="white"/>
<path d="M201.958 81.0036L198.219 78.813L162.378 139.987L166.117 142.178L201.958 81.0036Z" fill="white"/>
<path d="M208.571 84.8762L204.832 82.6855L168.991 143.86L172.73 146.05L208.571 84.8762Z" fill="white"/>
</g>
</g>
<mask id="mask21_14832_45389" style="mask-type:luminance" maskUnits="userSpaceOnUse" x="193" y="122" width="51" height="19">
<path d="M236.074 140.642H201.202C196.912 140.642 193.402 137.132 193.402 132.842V130.242C193.402 125.952 196.912 122.442 201.202 122.442H236.074C240.364 122.442 243.874 125.952 243.874 130.242V132.842C243.874 137.132 240.364 140.642 236.074 140.642Z" fill="white"/>
</mask>
<g mask="url(#mask21_14832_45389)">
<path opacity="0.08" d="M236.072 122.442H234.59C230.454 130.771 231.754 134.996 201.854 136.946C199.251 137.115 196.695 136.707 194.211 136.274C195.487 138.854 198.141 140.642 201.201 140.642H236.072C240.362 140.642 243.872 137.132 243.872 132.842V130.242C243.872 125.952 240.362 122.442 236.072 122.442Z" fill="black"/>
</g>
<path d="M231.759 189.163H185.609C184.894 189.163 184.309 188.578 184.309 187.863C184.309 187.148 184.894 186.563 185.609 186.563H231.759C232.474 186.563 233.059 187.148 233.059 187.863C233.059 188.578 232.474 189.163 231.759 189.163Z" fill="#002548"/>
<path d="M211.115 182.879H185.609C184.894 182.879 184.309 182.294 184.309 181.579C184.309 180.864 184.894 180.279 185.609 180.279H211.115C211.83 180.279 212.415 180.864 212.415 181.579C212.415 182.294 211.83 182.879 211.115 182.879Z" fill="#002548"/>
<g opacity="0.4">
<path d="M191.482 168.814C191.482 168.814 191.469 168.79 191.444 168.743C191.421 168.684 191.384 168.588 191.348 168.476C191.274 168.267 191.154 167.962 191.053 167.581C190.843 166.817 190.651 165.725 190.674 164.411C190.685 163.755 190.742 163.044 190.879 162.299C191.007 161.552 191.217 160.775 191.5 159.982C191.782 159.191 192.154 158.392 192.615 157.616C192.832 157.223 193.098 156.846 193.363 156.471L193.564 156.189L193.614 156.119L193.715 155.992L193.802 155.887L194.171 155.44L194.693 154.865C194.86 154.687 195.027 154.532 195.195 154.367C195.532 154.043 195.887 153.738 196.252 153.453C196.982 152.882 197.757 152.392 198.537 151.99C199.318 151.591 200.103 151.278 200.864 151.058C201.619 150.828 202.351 150.696 203.021 150.616C203.693 150.545 204.307 150.524 204.848 150.553C205.386 150.564 205.854 150.643 206.233 150.699C206.613 150.765 206.911 150.858 207.11 150.904C207.31 150.963 207.416 150.996 207.416 150.996C208.556 151.338 209.202 152.539 208.86 153.679C208.746 154.058 208.537 154.382 208.267 154.635L208.037 154.847C208.037 154.847 207.744 155.118 207.26 155.513C207.025 155.727 206.733 155.942 206.425 156.211C206.127 156.463 205.792 156.748 205.426 157.058C205.258 157.221 205.077 157.37 204.898 157.528C204.728 157.701 204.542 157.853 204.366 158.022C204.014 158.365 203.656 158.706 203.31 159.068C202.97 159.436 202.616 159.789 202.292 160.183C202.122 160.371 201.962 160.569 201.795 160.763L201.553 161.055L201.36 161.299C201.288 161.381 201.148 161.568 201.044 161.696L200.961 161.803L200.94 161.83L200.929 161.843L200.924 161.849C200.91 161.867 201.03 161.714 200.978 161.781L200.948 161.821L200.832 161.98C200.68 162.194 200.504 162.387 200.356 162.608C200.039 163.03 199.719 163.457 199.406 163.889C199.245 164.102 199.076 164.31 198.932 164.531C198.776 164.744 198.608 164.951 198.465 165.167C198.144 165.6 197.841 166.01 197.562 166.387C197.26 166.786 196.982 167.152 196.736 167.475C196.468 167.812 196.234 168.106 196.041 168.348C195.844 168.593 195.664 168.784 195.553 168.913C195.501 168.97 195.452 169.004 195.421 169.032C195.389 169.073 195.372 169.094 195.372 169.094L195.334 169.143C194.547 170.147 193.096 170.323 192.091 169.537C191.835 169.337 191.628 169.083 191.482 168.814Z" fill="white"/>
</g>
<path d="M301.293 227.349L292.348 231.743L307.25 262.079L316.195 257.684L301.293 227.349Z" fill="#0054A6"/>
<mask id="mask22_14832_45389" style="mask-type:luminance" maskUnits="userSpaceOnUse" x="289" y="232" width="34" height="29">
<path d="M295.415 232.271L289.324 240.158L316.074 260.814L322.165 252.926L295.415 232.271Z" fill="white"/>
</mask>
<g mask="url(#mask22_14832_45389)">
<path opacity="0.1" d="M305.961 225.055L297.016 229.449L311.918 259.784L320.863 255.39L305.961 225.055Z" fill="white"/>
</g>
<path d="M318.556 258.951L306.84 264.707C305.293 265.467 303.404 264.823 302.644 263.276C301.883 261.728 302.527 259.84 304.075 259.079L315.791 253.323C317.338 252.563 319.227 253.207 319.987 254.755C320.748 256.302 320.103 258.191 318.556 258.951Z" fill="#002548"/>
<path d="M262.222 156.752L260.471 157.612L231.668 98.98L234.421 100.162L262.222 156.752Z" fill="#5E5E5E"/>
<path d="M263.022 152.98L256.996 155.94C255.765 156.544 254.264 156.032 253.659 154.802L250.699 148.776C250.095 147.545 250.607 146.044 251.838 145.439L257.864 142.479C259.095 141.875 260.596 142.387 261.201 143.618L264.161 149.643C264.765 150.874 264.252 152.375 263.022 152.98Z" fill="#002548"/>
<path d="M313.075 231.651L270.618 145.228C269.616 143.188 267.128 142.34 265.088 143.341L248.003 151.734C245.963 152.736 245.114 155.224 246.116 157.265L288.573 243.687L313.075 231.651Z" fill="white"/>
<mask id="mask23_14832_45389" style="mask-type:luminance" maskUnits="userSpaceOnUse" x="245" y="142" width="69" height="102">
<path d="M313.075 231.651L270.618 145.228C269.616 143.188 267.128 142.34 265.088 143.341L248.003 151.734C245.963 152.736 245.114 155.224 246.116 157.265L288.573 243.687L313.075 231.651Z" fill="white"/>
</mask>
<g mask="url(#mask23_14832_45389)">
<path d="M291.543 207.515L282.598 211.909L297.5 242.245L306.445 237.85L291.543 207.515Z" fill="#002548"/>
<mask id="mask24_14832_45389" style="mask-type:luminance" maskUnits="userSpaceOnUse" x="279" y="212" width="34" height="29">
<path d="M285.661 212.436L279.57 220.324L306.32 240.979L312.411 233.092L285.661 212.436Z" fill="white"/>
</mask>
<g mask="url(#mask24_14832_45389)">
<path opacity="0.4" d="M296.207 205.22L287.262 209.614L302.164 239.949L311.109 235.555L296.207 205.22Z" fill="white"/>
</g>
</g>
<path d="M302.379 216.405L268.709 147.867C268.016 146.458 266.298 145.872 264.889 146.564L250.684 153.543C249.275 154.236 248.689 155.954 249.38 157.363L283.05 225.901L302.379 216.405Z" fill="#0054A6"/>
<mask id="mask25_14832_45389" style="mask-type:luminance" maskUnits="userSpaceOnUse" x="249" y="146" width="54" height="80">
<path d="M302.375 216.404L268.705 147.866C268.013 146.458 266.294 145.872 264.885 146.564L250.68 153.543C249.271 154.235 248.685 155.954 249.376 157.362L283.046 225.9L302.375 216.404Z" fill="white"/>
</mask>
<g mask="url(#mask25_14832_45389)">
<g opacity="0.2">
<path d="M278.465 222.362L287.776 217.782" stroke="black" stroke-width="0.90233" stroke-miterlimit="10" stroke-linecap="round" stroke-linejoin="round"/>
<path d="M273.938 220.819L283.249 216.239" stroke="black" stroke-width="0.90233" stroke-miterlimit="10" stroke-linecap="round" stroke-linejoin="round"/>
<path d="M272.441 217.783L281.753 213.203" stroke="black" stroke-width="0.90233" stroke-miterlimit="10" stroke-linecap="round" stroke-linejoin="round"/>
<path d="M270.953 214.747L280.264 210.167" stroke="black" stroke-width="0.90233" stroke-miterlimit="10" stroke-linecap="round" stroke-linejoin="round"/>
<path d="M269.457 211.71L278.768 207.13" stroke="black" stroke-width="0.90233" stroke-miterlimit="10" stroke-linecap="round" stroke-linejoin="round"/>
<path d="M271 207.18L280.311 202.601" stroke="black" stroke-width="0.90233" stroke-miterlimit="10" stroke-linecap="round" stroke-linejoin="round"/>
<path d="M266.27 205.737L275.581 201.157" stroke="black" stroke-width="0.90233" stroke-miterlimit="10" stroke-linecap="round" stroke-linejoin="round"/>
<path d="M264.773 202.701L274.085 198.121" stroke="black" stroke-width="0.90233" stroke-miterlimit="10" stroke-linecap="round" stroke-linejoin="round"/>
<path d="M263.285 199.664L272.597 195.084" stroke="black" stroke-width="0.90233" stroke-miterlimit="10" stroke-linecap="round" stroke-linejoin="round"/>
<path d="M261.789 196.628L271.1 192.048" stroke="black" stroke-width="0.90233" stroke-miterlimit="10" stroke-linecap="round" stroke-linejoin="round"/>
<path d="M263.332 192.098L272.643 187.519" stroke="black" stroke-width="0.90233" stroke-miterlimit="10" stroke-linecap="round" stroke-linejoin="round"/>
<path d="M258.805 190.557L268.116 185.976" stroke="black" stroke-width="0.90233" stroke-miterlimit="10" stroke-linecap="round" stroke-linejoin="round"/>
<path d="M257.309 187.52L266.62 182.94" stroke="black" stroke-width="0.90233" stroke-miterlimit="10" stroke-linecap="round" stroke-linejoin="round"/>
<path d="M255.82 184.484L265.132 179.904" stroke="black" stroke-width="0.90233" stroke-miterlimit="10" stroke-linecap="round" stroke-linejoin="round"/>
<path d="M254.324 181.448L263.635 176.868" stroke="black" stroke-width="0.90233" stroke-miterlimit="10" stroke-linecap="round" stroke-linejoin="round"/>
<path d="M255.867 176.918L265.178 172.338" stroke="black" stroke-width="0.90233" stroke-miterlimit="10" stroke-linecap="round" stroke-linejoin="round"/>
<path d="M251.133 175.474L260.444 170.894" stroke="black" stroke-width="0.90233" stroke-miterlimit="10" stroke-linecap="round" stroke-linejoin="round"/>
<path d="M249.637 172.438L258.948 167.858" stroke="black" stroke-width="0.90233" stroke-miterlimit="10" stroke-linecap="round" stroke-linejoin="round"/>
<path d="M248.148 169.402L257.46 164.822" stroke="black" stroke-width="0.90233" stroke-miterlimit="10" stroke-linecap="round" stroke-linejoin="round"/>
<path d="M246.652 166.365L255.964 161.785" stroke="black" stroke-width="0.90233" stroke-miterlimit="10" stroke-linecap="round" stroke-linejoin="round"/>
<path d="M248.195 161.835L257.507 157.255" stroke="black" stroke-width="0.90233" stroke-miterlimit="10" stroke-linecap="round" stroke-linejoin="round"/>
</g>
</g>
<path d="M314.426 234.318L289.868 246.383C288.32 247.143 286.432 246.499 285.671 244.951C284.911 243.404 285.555 241.515 287.102 240.755L311.661 228.69C313.209 227.93 315.097 228.574 315.858 230.121C316.619 231.669 315.975 233.557 314.426 234.318Z" fill="white"/>
<path opacity="0.1" d="M263.205 157.097C264.641 157.097 265.805 155.933 265.805 154.497C265.805 153.061 264.641 151.897 263.205 151.897C261.77 151.897 260.605 153.061 260.605 154.497C260.605 155.933 261.77 157.097 263.205 157.097Z" fill="white"/>
<path opacity="0.1" d="M264.941 161.431C264.941 159.755 266.299 158.397 267.975 158.397C269.65 158.397 271.008 159.755 271.008 161.431C271.008 163.106 269.651 164.464 267.975 164.464C266.299 164.464 264.941 163.106 264.941 161.431Z" fill="white"/>
<path opacity="0.1" d="M262.987 161.43C262.987 162.269 262.307 162.949 261.468 162.949C260.629 162.949 259.949 162.269 259.949 161.43C259.949 160.591 260.629 159.911 261.468 159.911C262.307 159.911 262.987 160.592 262.987 161.43Z" fill="white"/>
<path opacity="0.1" d="M267.979 168.147C267.979 168.987 267.3 169.667 266.46 169.667C265.621 169.667 264.941 168.987 264.941 168.147C264.941 167.308 265.621 166.628 266.46 166.628C267.299 166.628 267.979 167.308 267.979 168.147Z" fill="white"/>
<path d="M146.129 130.785L141.503 135.032L133.395 124.48L135.793 122.277L146.129 130.785Z" fill="#6AADE5"/>
<path d="M138.237 120.352C138.816 120.983 137.675 122.973 135.688 124.797C133.7 126.622 131.62 127.589 131.041 126.958C130.462 126.327 131.604 124.337 133.591 122.513C135.577 120.688 137.658 119.721 138.237 120.352Z" fill="#002548"/>
<path d="M143.199 144.218L147.446 148.844L136.894 156.952L134.691 154.553L143.199 144.218Z" fill="#6AADE5"/>
<path d="M132.767 152.111C133.398 151.532 135.388 152.673 137.213 154.66C139.037 156.647 140.004 158.728 139.373 159.307C138.742 159.885 136.752 158.744 134.928 156.757C133.103 154.77 132.136 152.69 132.767 152.111Z" fill="#002548"/>
<path d="M154.467 128.653H148.188L149.35 115.396H152.606L154.467 128.653Z" fill="#6AADE5"/>
<path d="M141.839 136.873V143.152L128.582 141.989V138.734L141.839 136.873Z" fill="#6AADE5"/>
<path d="M148.988 150.403H155.268L154.105 163.661H150.849L148.988 150.403Z" fill="#6AADE5"/>
<path d="M152.63 164.978C155.328 164.978 157.514 164.284 157.514 163.428C157.514 162.572 155.328 161.878 152.63 161.878C149.933 161.878 147.746 162.572 147.746 163.428C147.746 164.284 149.933 164.978 152.63 164.978Z" fill="#002548"/>
<path d="M128.906 145.52C129.762 145.52 130.456 143.333 130.456 140.636C130.456 137.938 129.762 135.751 128.906 135.751C128.05 135.751 127.355 137.938 127.355 140.636C127.355 143.333 128.05 145.52 128.906 145.52Z" fill="#002548"/>
<path d="M150.806 116.902C153.503 116.902 155.69 116.208 155.69 115.352C155.69 114.496 153.503 113.802 150.806 113.802C148.109 113.802 145.922 114.496 145.922 115.352C145.922 116.208 148.109 116.902 150.806 116.902Z" fill="#002548"/>
<path d="M157.586 147.814L162.212 143.568L170.321 154.121L167.922 156.323L157.586 147.814Z" fill="#6AADE5"/>
<path d="M165.479 158.249C164.9 157.618 166.041 155.628 168.028 153.804C170.015 151.979 172.095 151.012 172.674 151.642C173.253 152.274 172.112 154.264 170.125 156.088C168.139 157.912 166.058 158.88 165.479 158.249Z" fill="#002548"/>
<path d="M160.517 134.382L156.27 129.756L166.822 121.648L169.024 124.046L160.517 134.382Z" fill="#6AADE5"/>
<path d="M170.951 126.489C170.32 127.068 168.331 125.926 166.506 123.939C164.681 121.952 163.714 119.872 164.345 119.293C164.977 118.715 166.966 119.855 168.791 121.842C170.615 123.829 171.582 125.909 170.951 126.489Z" fill="#002548"/>
<path d="M161.883 141.728V135.448L175.14 136.611V139.867L161.883 141.728Z" fill="#6AADE5"/>
<path d="M168.194 135.19C170.381 144.098 164.931 153.093 156.023 155.28C150.484 156.64 144.913 155.048 140.964 151.508C138.561 149.354 136.76 146.479 135.932 143.109C133.745 134.2 139.194 125.206 148.103 123.018C157.012 120.832 166.007 126.281 168.194 135.19Z" fill="#002548"/>
<mask id="mask26_14832_45389" style="mask-type:luminance" maskUnits="userSpaceOnUse" x="135" y="122" width="34" height="34">
<path d="M168.194 135.189C170.381 144.098 164.931 153.093 156.023 155.28C150.484 156.64 144.913 155.048 140.964 151.508C138.561 149.354 136.76 146.479 135.932 143.109C133.745 134.2 139.194 125.205 148.103 123.018C157.012 120.831 166.007 126.28 168.194 135.189Z" fill="white"/>
</mask>
<g mask="url(#mask26_14832_45389)">
<path opacity="0.05" d="M160.572 123.502C161.508 125.035 162.229 126.734 162.68 128.572C165.039 138.177 159.163 147.875 149.558 150.233C145.674 151.187 141.774 150.793 138.352 149.351C142.309 155.831 150.136 159.311 157.904 157.404C167.509 155.046 173.385 145.348 171.026 135.743C169.622 130.022 165.614 125.626 160.572 123.502Z" fill="black"/>
</g>
<path d="M174.808 142.849C175.664 142.849 176.358 140.662 176.358 137.965C176.358 135.267 175.664 133.081 174.808 133.081C173.952 133.081 173.258 135.267 173.258 137.965C173.258 140.662 173.952 142.849 174.808 142.849Z" fill="#002548"/>
<g opacity="0.1">
<path d="M138.466 138.732C138.466 138.747 138.442 138.626 138.416 138.45C138.391 138.275 138.348 138.025 138.332 137.711C138.282 137.081 138.285 136.188 138.473 135.133C138.655 134.078 139.019 132.856 139.665 131.621C139.821 131.312 140.012 131.009 140.195 130.697C140.401 130.398 140.604 130.091 140.836 129.795C141.298 129.205 141.828 128.638 142.417 128.13C143.002 127.616 143.649 127.166 144.319 126.784C144.995 126.414 145.687 126.095 146.383 125.886C146.724 125.763 147.07 125.68 147.409 125.611C147.744 125.528 148.076 125.473 148.399 125.443C149.042 125.348 149.648 125.358 150.198 125.365C150.745 125.411 151.244 125.439 151.672 125.539C152.1 125.623 152.47 125.709 152.764 125.807C153.354 125.998 153.677 126.137 153.677 126.137C154.422 126.462 154.764 127.33 154.439 128.075C154.275 128.451 153.973 128.724 153.618 128.861L153.462 128.92C153.462 128.92 153.167 129.033 152.675 129.175C152.428 129.229 152.14 129.36 151.815 129.453C151.486 129.542 151.141 129.7 150.764 129.818C150.398 129.976 150.005 130.115 149.621 130.304C149.425 130.387 149.232 130.487 149.04 130.589C148.843 130.682 148.654 130.793 148.464 130.906C148.269 131.007 148.086 131.133 147.9 131.256C147.707 131.366 147.531 131.506 147.35 131.638C146.982 131.894 146.641 132.197 146.297 132.5C145.967 132.819 145.63 133.141 145.322 133.495C145.006 133.842 144.7 134.202 144.412 134.574C144.113 134.936 143.845 135.319 143.575 135.681C143.315 136.052 143.058 136.409 142.83 136.753C142.355 137.463 141.959 138.055 141.682 138.469C141.549 138.683 141.423 138.851 141.35 138.961C141.273 139.071 141.23 139.104 141.229 139.119C141.122 139.882 140.417 140.415 139.654 140.307C138.891 140.2 138.358 139.495 138.466 138.732Z" fill="white"/>
</g>
<path d="M180.798 96.821L177.789 99.5829L172.516 92.7195L174.076 91.2876L180.798 96.821Z" fill="#6AADE5"/>
<path d="M175.668 90.0341C176.045 90.4442 175.303 91.739 174.01 92.9253C172.718 94.1115 171.365 94.7414 170.988 94.3306C170.612 93.9204 171.354 92.6256 172.647 91.4394C173.939 90.2531 175.292 89.6239 175.668 90.0341Z" fill="#002548"/>
<path d="M178.896 105.557L181.659 108.565L174.795 113.839L173.363 112.279L178.896 105.557Z" fill="#6AADE5"/>
<path d="M172.114 110.691C172.524 110.315 173.819 111.057 175.005 112.349C176.191 113.641 176.82 114.995 176.41 115.371C176 115.747 174.705 115.005 173.519 113.713C172.333 112.421 171.704 111.068 172.114 110.691Z" fill="#002548"/>
<path d="M186.221 95.4336H182.137L182.893 86.812H185.011L186.221 95.4336Z" fill="#6AADE5"/>
<path d="M178.012 100.779V104.864L169.391 104.107V101.99L178.012 100.779Z" fill="#6AADE5"/>
<path d="M182.656 109.581H186.74L185.984 118.202H183.867L182.656 109.581Z" fill="#6AADE5"/>
<path d="M185.024 119.059C186.779 119.059 188.201 118.607 188.201 118.051C188.201 117.494 186.779 117.042 185.024 117.042C183.27 117.042 181.848 117.494 181.848 118.051C181.848 118.607 183.27 119.059 185.024 119.059Z" fill="#002548"/>
<path d="M169.598 100.051C170.155 100.051 170.606 101.473 170.606 103.227C170.606 104.982 170.154 106.404 169.598 106.404C169.041 106.404 168.59 104.982 168.59 103.227C168.59 101.473 169.041 100.051 169.598 100.051Z" fill="#002548"/>
<path d="M187.021 86.783C187.021 87.3401 185.599 87.7912 183.845 87.7912C182.09 87.7912 180.668 87.3394 180.668 86.783C180.668 86.2266 182.09 85.7749 183.845 85.7749C185.599 85.7749 187.021 86.2266 187.021 86.783Z" fill="#002548"/>
<path d="M188.25 107.896L191.259 105.134L196.532 111.998L194.972 113.43L188.25 107.896Z" fill="#6AADE5"/>
<path d="M193.387 114.683C193.011 114.272 193.753 112.978 195.045 111.791C196.337 110.605 197.691 109.976 198.067 110.386C198.443 110.796 197.701 112.091 196.409 113.277C195.117 114.464 193.763 115.093 193.387 114.683Z" fill="#002548"/>
<path d="M190.157 99.1602L187.395 96.1514L194.258 90.8779L195.69 92.4379L190.157 99.1602Z" fill="#6AADE5"/>
<path d="M196.941 94.0254C196.531 94.4018 195.236 93.6595 194.05 92.3673C192.864 91.0751 192.235 89.7218 192.645 89.3454C193.055 88.9691 194.35 89.7114 195.536 91.0036C196.722 92.2958 197.352 93.6491 196.941 94.0254Z" fill="#002548"/>
<path d="M191.043 103.937V99.853L199.665 100.61V102.727L191.043 103.937Z" fill="#6AADE5"/>
<path d="M195.144 99.6838C196.566 105.478 193.022 111.328 187.228 112.75C183.626 113.635 180.002 112.599 177.434 110.297C175.871 108.896 174.699 107.026 174.162 104.834C172.739 99.0403 176.283 93.1903 182.077 91.7681C187.871 90.3459 193.721 93.8897 195.144 99.6838Z" fill="#002548"/>
<mask id="mask27_14832_45389" style="mask-type:luminance" maskUnits="userSpaceOnUse" x="173" y="91" width="23" height="23">
<path d="M195.144 99.6828C196.566 105.477 193.022 111.327 187.228 112.749C183.626 113.634 180.002 112.598 177.434 110.296C175.871 108.895 174.699 107.025 174.162 104.833C172.739 99.0393 176.283 93.1893 182.077 91.7671C187.871 90.3449 193.721 93.8887 195.144 99.6828Z" fill="white"/>
</mask>
<g mask="url(#mask27_14832_45389)">
<path opacity="0.05" d="M190.19 92.0825C190.799 93.0796 191.267 94.1846 191.561 95.3793C193.095 101.626 189.274 107.933 183.027 109.467C180.5 110.088 177.965 109.831 175.738 108.893C178.312 113.108 183.403 115.371 188.455 114.131C194.702 112.598 198.523 106.29 196.989 100.043C196.075 96.3225 193.468 93.4631 190.19 92.0825Z" fill="black"/>
</g>
<path d="M199.453 104.667C198.896 104.667 198.445 103.244 198.445 101.49C198.445 99.7357 198.897 98.3135 199.453 98.3135C200.011 98.3135 200.462 99.7357 200.462 101.49C200.462 103.244 200.01 104.667 199.453 104.667Z" fill="#002548"/>
<g opacity="0.1">
<path d="M175.818 101.982C175.821 101.977 175.799 101.939 175.783 101.82C175.768 101.701 175.741 101.524 175.732 101.326C175.697 100.915 175.71 100.338 175.823 99.6493C175.891 99.3087 175.965 98.935 176.102 98.5534C176.217 98.1654 176.4 97.7721 176.599 97.3672C176.808 96.9674 177.069 96.5677 177.36 96.1796C177.682 95.8098 177.989 95.4152 178.395 95.1032C178.59 94.9414 178.777 94.7704 178.982 94.6248C179.2 94.4922 179.415 94.3609 179.63 94.2303C180.052 93.9579 180.527 93.8091 180.968 93.6446C181.187 93.553 181.411 93.501 181.633 93.4672C181.853 93.4243 182.069 93.3898 182.278 93.3593C182.694 93.2722 183.088 93.3105 183.445 93.3183C183.802 93.3385 184.129 93.3424 184.403 93.4191C184.681 93.4743 184.919 93.5504 185.112 93.6011C185.499 93.7135 185.709 93.798 185.709 93.798C186.192 93.993 186.426 94.5429 186.232 95.0265C186.134 95.2696 185.947 95.4497 185.722 95.5439L185.57 95.6076C185.57 95.6076 185.378 95.6876 185.061 95.7916C184.902 95.8384 184.712 95.9092 184.5 95.9586C184.282 95.9931 184.064 96.1341 183.821 96.2128C183.583 96.3116 183.316 96.3733 183.076 96.5196C182.838 96.6658 182.553 96.7282 182.323 96.9089C182.088 97.0753 181.816 97.1819 181.601 97.3873L181.246 97.6447L180.917 97.9476C180.684 98.1303 180.494 98.3766 180.277 98.5866C180.165 98.6893 180.081 98.8232 179.981 98.9369C179.882 99.0546 179.77 99.1579 179.687 99.2879C179.307 99.7657 178.962 100.261 178.657 100.704C178.349 101.164 178.092 101.549 177.912 101.818C177.821 101.963 177.744 102.058 177.696 102.125C177.645 102.191 177.613 102.253 177.614 102.248C177.359 102.71 176.777 102.876 176.316 102.62C176.13 102.517 175.992 102.361 175.91 102.181L175.818 101.982Z" fill="white"/>
</g>
<path d="M169.691 208.553H168.691C167.085 208.553 165.783 207.251 165.783 205.645C165.783 201.355 162.273 197.845 157.983 197.845H144.672C140.382 197.845 136.872 201.355 136.872 205.645C136.872 207.251 135.57 208.553 133.964 208.553H132.964C128.674 208.553 125.164 212.063 125.164 216.353V256.099C125.164 260.389 128.674 263.899 132.964 263.899H169.692C173.982 263.899 177.492 260.389 177.492 256.099V216.353C177.491 212.063 173.981 208.553 169.691 208.553Z" fill="#002548"/>
<mask id="mask28_14832_45389" style="mask-type:luminance" maskUnits="userSpaceOnUse" x="125" y="197" width="53" height="67">
<path d="M169.687 208.552H168.687C167.081 208.552 165.779 207.25 165.779 205.645C165.779 201.355 162.269 197.845 157.979 197.845H144.668C140.378 197.845 136.868 201.355 136.868 205.645C136.868 207.25 135.566 208.552 133.961 208.552H132.96C128.67 208.552 125.16 212.062 125.16 216.352V256.098C125.16 260.388 128.67 263.898 132.96 263.898H169.688C173.978 263.898 177.488 260.388 177.488 256.098V216.352C177.487 212.062 173.977 208.552 169.687 208.552Z" fill="white"/>
</mask>
<g mask="url(#mask28_14832_45389)">
<path opacity="0.015" d="M96.1719 254.823L149.136 254.552C160.595 254.494 169.826 245.138 169.732 233.68L169.15 163.034L191.345 195.385V270.245H110.467L96.1719 254.823Z" fill="black"/>
</g>
<mask id="mask29_14832_45389" style="mask-type:luminance" maskUnits="userSpaceOnUse" x="125" y="197" width="53" height="67">
<path d="M169.687 208.552H168.687C167.081 208.552 165.779 207.25 165.779 205.645C165.779 201.355 162.269 197.845 157.979 197.845H144.668C140.378 197.845 136.868 201.355 136.868 205.645C136.868 207.25 135.566 208.552 133.961 208.552H132.96C128.67 208.552 125.16 212.062 125.16 216.352V256.098C125.16 260.388 128.67 263.898 132.96 263.898H169.688C173.978 263.898 177.488 260.388 177.488 256.098V216.352C177.487 212.062 173.977 208.552 169.687 208.552Z" fill="white"/>
</mask>
<g mask="url(#mask29_14832_45389)">
<path d="M182.404 223.879H120.004V251.179H182.404V223.879Z" fill="white"/>
</g>
<mask id="mask30_14832_45389" style="mask-type:luminance" maskUnits="userSpaceOnUse" x="125" y="197" width="53" height="67">
<path d="M169.687 208.552H168.687C167.081 208.552 165.779 207.25 165.779 205.645C165.779 201.355 162.269 197.845 157.979 197.845H144.668C140.378 197.845 136.868 201.355 136.868 205.645C136.868 207.25 135.566 208.552 133.961 208.552H132.96C128.67 208.552 125.16 212.062 125.16 216.352V256.098C125.16 260.388 128.67 263.898 132.96 263.898H169.688C173.978 263.898 177.488 260.388 177.488 256.098V216.352C177.487 212.062 173.977 208.552 169.687 208.552Z" fill="white"/>
</mask>
<g mask="url(#mask30_14832_45389)">
<path opacity="0.08" d="M165.301 206.237H137.113C134.78 206.237 132.871 204.328 132.871 201.995C132.871 199.662 134.78 197.753 137.113 197.753H165.301C167.634 197.753 169.543 199.662 169.543 201.995C169.543 204.329 167.634 206.237 165.301 206.237Z" fill="black"/>
</g>
<mask id="mask31_14832_45389" style="mask-type:luminance" maskUnits="userSpaceOnUse" x="125" y="197" width="53" height="67">
<path d="M169.687 208.552H168.687C167.081 208.552 165.779 207.25 165.779 205.645C165.779 201.355 162.269 197.845 157.979 197.845H144.668C140.378 197.845 136.868 201.355 136.868 205.645C136.868 207.25 135.566 208.552 133.961 208.552H132.96C128.67 208.552 125.16 212.062 125.16 216.352V256.098C125.16 260.388 128.67 263.898 132.96 263.898H169.688C173.978 263.898 177.488 260.388 177.488 256.098V216.352C177.487 212.062 173.977 208.552 169.687 208.552Z" fill="white"/>
</mask>
<g mask="url(#mask31_14832_45389)">
<path d="M165.07 232.329H138.095C137.022 232.329 136.145 231.452 136.145 230.379C136.145 229.307 137.022 228.429 138.095 228.429H165.07C166.142 228.429 167.02 229.307 167.02 230.379C167.02 231.452 166.142 232.329 165.07 232.329Z" fill="#0054A6"/>
<path d="M131.266 235.579H172.216" stroke="#0054A6" stroke-width="0.65" stroke-miterlimit="10" stroke-linecap="round" stroke-linejoin="round"/>
<path d="M131.266 239.479H172.216" stroke="#0054A6" stroke-width="0.65" stroke-miterlimit="10" stroke-linecap="round" stroke-linejoin="round"/>
<path d="M131.266 243.379H172.216" stroke="#0054A6" stroke-width="0.65" stroke-miterlimit="10" stroke-linecap="round" stroke-linejoin="round"/>
</g>
<mask id="mask32_14832_45389" style="mask-type:luminance" maskUnits="userSpaceOnUse" x="125" y="197" width="53" height="67">
<path d="M169.687 208.552H168.687C167.081 208.552 165.779 207.25 165.779 205.645C165.779 201.355 162.269 197.845 157.979 197.845H144.668C140.378 197.845 136.868 201.355 136.868 205.645C136.868 207.25 135.566 208.552 133.961 208.552H132.96C128.67 208.552 125.16 212.062 125.16 216.352V256.098C125.16 260.388 128.67 263.898 132.96 263.898H169.688C173.978 263.898 177.488 260.388 177.488 256.098V216.352C177.487 212.062 173.977 208.552 169.687 208.552Z" fill="white"/>
</mask>
<g mask="url(#mask32_14832_45389)">
<g opacity="0.4">
<path d="M128.964 220.977C128.964 220.977 128.957 220.963 128.942 220.936C128.928 220.901 128.906 220.845 128.885 220.779C128.842 220.657 128.771 220.477 128.712 220.253C128.589 219.805 128.476 219.164 128.489 218.392C128.496 218.007 128.53 217.589 128.61 217.152C128.684 216.714 128.808 216.258 128.974 215.792C129.14 215.328 129.358 214.859 129.629 214.403C129.756 214.172 129.912 213.951 130.068 213.731L130.186 213.566L130.215 213.524L130.274 213.45L130.325 213.388L130.542 213.126L130.848 212.788C130.947 212.683 131.044 212.592 131.143 212.495C131.342 212.306 131.55 212.126 131.763 211.958C132.192 211.623 132.647 211.336 133.104 211.1C133.563 210.865 134.024 210.681 134.471 210.553C134.914 210.417 135.344 210.34 135.737 210.293C136.132 210.25 136.492 210.239 136.81 210.255C137.126 210.261 137.401 210.308 137.624 210.341C137.847 210.38 138.022 210.435 138.139 210.462C138.256 210.497 138.319 210.515 138.319 210.515C138.987 210.716 139.367 211.422 139.166 212.09C139.099 212.313 138.976 212.504 138.818 212.651L138.683 212.776C138.683 212.776 138.511 212.935 138.227 213.167C138.089 213.292 137.917 213.419 137.736 213.576C137.561 213.725 137.364 213.892 137.15 214.074C137.051 214.17 136.945 214.257 136.841 214.35C136.74 214.452 136.631 214.541 136.528 214.64C136.321 214.841 136.111 215.041 135.908 215.255C135.708 215.471 135.5 215.678 135.31 215.909C135.21 216.019 135.116 216.136 135.018 216.25L134.876 216.421L134.762 216.564C134.72 216.612 134.638 216.722 134.577 216.798L134.528 216.86L134.515 216.876L134.51 216.884L134.506 216.887C134.498 216.898 134.569 216.808 134.538 216.848L134.521 216.871L134.452 216.964C134.363 217.09 134.26 217.203 134.173 217.333C133.987 217.581 133.799 217.832 133.615 218.085C133.521 218.21 133.422 218.332 133.337 218.462C133.245 218.587 133.147 218.709 133.063 218.835C132.875 219.09 132.697 219.33 132.532 219.552C132.355 219.786 132.192 220 132.047 220.191C131.89 220.388 131.752 220.561 131.639 220.702C131.524 220.847 131.418 220.958 131.353 221.034C131.322 221.068 131.293 221.088 131.275 221.105C131.256 221.129 131.247 221.141 131.247 221.141L131.224 221.17C130.762 221.759 129.91 221.863 129.321 221.401C129.172 221.284 129.05 221.135 128.964 220.977Z" fill="white"/>
</g>
</g>
<path d="M165.559 204.913H137.371C135.038 204.913 133.129 203.004 133.129 200.671C133.129 198.338 135.038 196.429 137.371 196.429H165.559C167.892 196.429 169.801 198.338 169.801 200.671C169.801 203.005 167.892 204.913 165.559 204.913Z" fill="#0054A6"/>
<mask id="mask33_14832_45389" style="mask-type:luminance" maskUnits="userSpaceOnUse" x="133" y="196" width="37" height="9">
<path d="M165.555 204.913H137.367C135.034 204.913 133.125 203.004 133.125 200.672C133.125 198.339 135.034 196.43 137.367 196.43H165.555C167.888 196.43 169.797 198.339 169.797 200.672C169.797 203.005 167.888 204.913 165.555 204.913Z" fill="white"/>
</mask>
<g mask="url(#mask33_14832_45389)">
<g opacity="0.1">
<path d="M181.902 183.763L178.754 181.918L148.574 233.43L151.722 235.275L181.902 183.763Z" fill="white"/>
<path d="M187.473 187.025L184.324 185.18L154.144 236.692L157.293 238.537L187.473 187.025Z" fill="white"/>
<path d="M193.039 190.286L189.891 188.441L159.711 239.953L162.859 241.798L193.039 190.286Z" fill="white"/>
<path d="M198.602 193.548L195.453 191.703L165.273 243.215L168.422 245.06L198.602 193.548Z" fill="white"/>
<path d="M170.77 177.24L167.621 175.396L137.441 226.907L140.59 228.752L170.77 177.24Z" fill="white"/>
<path d="M176.336 180.501L173.188 178.657L143.008 230.169L146.156 232.013L176.336 180.501Z" fill="white"/>
<path d="M148.504 164.195L145.355 162.35L115.176 213.862L118.324 215.707L148.504 164.195Z" fill="white"/>
<path d="M154.07 167.456L150.922 165.611L120.742 217.123L123.89 218.968L154.07 167.456Z" fill="white"/>
<path d="M159.633 170.718L156.484 168.873L126.304 220.385L129.453 222.23L159.633 170.718Z" fill="white"/>
<path d="M165.203 173.979L162.055 172.134L131.875 223.646L135.023 225.491L165.203 173.979Z" fill="white"/>
<path d="M137.371 157.672L134.223 155.828L104.043 207.34L107.191 209.184L137.371 157.672Z" fill="white"/>
<path d="M142.934 160.933L139.785 159.088L109.605 210.6L112.754 212.445L142.934 160.933Z" fill="white"/>
</g>
</g>
<mask id="mask34_14832_45389" style="mask-type:luminance" maskUnits="userSpaceOnUse" x="133" y="196" width="37" height="9">
<path d="M165.555 204.913H137.367C135.034 204.913 133.125 203.004 133.125 200.672C133.125 198.339 135.034 196.43 137.367 196.43H165.555C167.888 196.43 169.797 198.339 169.797 200.672C169.797 203.005 167.888 204.913 165.555 204.913Z" fill="white"/>
</mask>
<g mask="url(#mask34_14832_45389)">
<path opacity="0.08" d="M169.127 188.419H167.645C163.508 196.747 164.808 200.972 134.908 202.922C132.306 203.092 129.75 202.684 127.266 202.25C128.542 204.83 131.196 206.619 134.256 206.619H169.127C173.417 206.619 176.927 203.109 176.927 198.819V196.219C176.927 191.929 173.417 188.419 169.127 188.419Z" fill="black"/>
</g>
<path d="M138.058 189.007L156.828 188.896C158.999 188.883 160.787 190.65 160.8 192.821C160.813 194.993 159.046 196.781 156.874 196.794L138.105 196.905C135.933 196.918 134.146 195.151 134.133 192.979C134.12 190.808 135.886 189.02 138.058 189.007Z" fill="white"/>
<mask id="mask35_14832_45389" style="mask-type:luminance" maskUnits="userSpaceOnUse" x="114" y="184" width="27" height="9">
<path d="M136.863 192.633L118.094 192.855C115.923 192.881 114.125 191.125 114.099 188.953C114.073 186.782 115.829 184.984 118.001 184.958L136.77 184.736C138.941 184.71 140.739 186.466 140.765 188.638C140.791 190.809 139.035 192.607 136.863 192.633Z" fill="white"/>
</mask>
<g mask="url(#mask35_14832_45389)">
<path d="M127.252 205.85L147.832 205.729L147.655 175.782L127.075 175.904L127.252 205.85Z" fill="#002548"/>
</g>
<mask id="mask36_14832_45389" style="mask-type:luminance" maskUnits="userSpaceOnUse" x="134" y="188" width="27" height="9">
<path d="M138.058 189.007L156.828 188.896C158.999 188.883 160.787 190.65 160.8 192.821C160.813 194.993 159.046 196.781 156.874 196.794L138.105 196.905C135.933 196.918 134.146 195.151 134.133 192.979C134.12 190.808 135.886 189.02 138.058 189.007Z" fill="white"/>
</mask>
<g mask="url(#mask36_14832_45389)">
<path opacity="0.03" d="M158.755 188.694L155.166 188.672C151.963 192.796 146.95 195.439 141.325 195.406C138.784 195.391 136.377 194.827 134.207 193.835C134.651 195.713 136.336 197.128 138.346 197.139L158.704 197.26C161.06 197.273 162.999 195.358 163.013 193.001C163.027 190.646 161.111 188.708 158.755 188.694Z" fill="black"/>
</g>
<g opacity="0.1">
<path d="M135.113 192.503C135.113 192.514 135.092 192.407 135.09 192.259C135.087 192.107 135.101 191.893 135.169 191.646C135.232 191.396 135.356 191.115 135.543 190.844C135.633 190.705 135.748 190.579 135.873 190.456C135.988 190.323 136.141 190.23 136.281 190.123C136.427 190.026 136.582 189.941 136.737 189.867C136.897 189.808 137.053 189.746 137.206 189.7C137.361 189.671 137.51 189.643 137.653 189.617C137.794 189.601 137.929 189.606 138.051 189.601C138.297 189.59 138.494 189.64 138.632 189.66C138.767 189.69 138.845 189.707 138.845 189.707C139.024 189.746 139.137 189.923 139.098 190.101C139.074 190.215 138.992 190.303 138.891 190.34L138.846 190.357C138.846 190.357 138.779 190.381 138.662 190.424C138.548 190.468 138.379 190.498 138.198 190.577C138.01 190.637 137.808 190.724 137.601 190.817C137.503 190.869 137.402 190.923 137.299 190.977C137.209 191.048 137.105 191.099 137.015 191.168C136.66 191.444 136.355 191.778 136.132 192.078C136.016 192.225 135.928 192.36 135.859 192.454C135.793 192.55 135.755 192.588 135.755 192.598C135.729 192.776 135.564 192.898 135.386 192.872C135.209 192.846 135.086 192.68 135.113 192.503Z" fill="white"/>
</g>
<path d="M149.266 184.082L167.457 188.711C169.561 189.246 170.846 191.407 170.31 193.512C169.774 195.616 167.614 196.901 165.509 196.365L147.319 191.736C145.214 191.201 143.93 189.04 144.465 186.936C145.001 184.83 147.162 183.546 149.266 184.082Z" fill="white"/>
<mask id="mask37_14832_45389" style="mask-type:luminance" maskUnits="userSpaceOnUse" x="128" y="170" width="25" height="18">
<path d="M146.818 186.984L130.331 178.012C128.424 176.974 127.712 174.564 128.75 172.656C129.788 170.749 132.199 170.037 134.106 171.075L150.593 180.046C152.501 181.084 153.212 183.495 152.174 185.402C151.136 187.31 148.726 188.022 146.818 186.984Z" fill="white"/>
</mask>
<g mask="url(#mask37_14832_45389)">
<path d="M134.56 197.661L154.504 202.736L161.889 173.716L141.944 168.64L134.56 197.661Z" fill="#0054A6"/>
</g>
<mask id="mask38_14832_45389" style="mask-type:luminance" maskUnits="userSpaceOnUse" x="144" y="183" width="27" height="14">
<path d="M149.266 184.082L167.457 188.711C169.561 189.246 170.846 191.407 170.31 193.512C169.774 195.616 167.614 196.901 165.509 196.365L147.319 191.736C145.214 191.201 143.93 189.04 144.465 186.936C145.001 184.83 147.162 183.546 149.266 184.082Z" fill="white"/>
</mask>
<g mask="url(#mask38_14832_45389)">
<path opacity="0.03" d="M169.372 189L165.905 188.074C161.765 191.256 156.247 192.549 150.812 191.097C148.358 190.442 146.171 189.289 144.321 187.782C144.278 189.71 145.551 191.505 147.493 192.024L167.162 197.277C169.437 197.885 171.798 196.52 172.405 194.244C173.013 191.968 171.648 189.608 169.372 189Z" fill="black"/>
</g>
<g opacity="0.1">
<path d="M145.534 186.722C145.532 186.733 145.538 186.624 145.574 186.48C145.609 186.333 145.677 186.129 145.805 185.907C145.928 185.682 146.12 185.441 146.369 185.226C146.491 185.114 146.635 185.021 146.786 184.934C146.931 184.834 147.104 184.783 147.265 184.714C147.432 184.658 147.603 184.614 147.771 184.582C147.941 184.566 148.107 184.545 148.266 184.54C148.424 184.551 148.576 184.562 148.72 184.571C148.861 184.592 148.991 184.631 149.11 184.657C149.35 184.708 149.528 184.807 149.656 184.861C149.78 184.924 149.851 184.96 149.851 184.96C150.014 185.043 150.079 185.242 149.996 185.405C149.943 185.509 149.843 185.574 149.735 185.585L149.687 185.589C149.687 185.589 149.616 185.596 149.492 185.608C149.37 185.622 149.199 185.608 149.004 185.639C148.807 185.649 148.59 185.682 148.366 185.721C148.258 185.747 148.147 185.773 148.033 185.8C147.928 185.845 147.815 185.869 147.711 185.912C147.297 186.09 146.918 186.336 146.626 186.571C146.477 186.683 146.357 186.792 146.268 186.865C146.179 186.941 146.133 186.969 146.13 186.979C146.06 187.144 145.869 187.221 145.704 187.151C145.54 187.078 145.464 186.887 145.534 186.722Z" fill="white"/>
</g>
<path d="M121.8 260.214L140.57 260.103C142.741 260.09 144.529 261.856 144.542 264.028C144.555 266.2 142.788 267.987 140.617 268L121.847 268.111C119.676 268.124 117.888 266.358 117.875 264.186C117.862 262.014 119.629 260.227 121.8 260.214Z" fill="white"/>
<mask id="mask39_14832_45389" style="mask-type:luminance" maskUnits="userSpaceOnUse" x="97" y="255" width="28" height="10">
<path d="M120.609 263.839L101.84 264.061C99.6688 264.086 97.8708 262.33 97.845 260.159C97.8192 257.987 99.5754 256.189 101.747 256.163L120.516 255.941C122.687 255.916 124.485 257.672 124.511 259.843C124.537 262.015 122.781 263.813 120.609 263.839Z" fill="white"/>
</mask>
<g mask="url(#mask39_14832_45389)">
<path d="M110.998 277.056L131.578 276.934L131.401 246.988L110.821 247.109L110.998 277.056Z" fill="#0054A6"/>
</g>
<mask id="mask40_14832_45389" style="mask-type:luminance" maskUnits="userSpaceOnUse" x="117" y="260" width="28" height="9">
<path d="M121.797 260.214L140.566 260.103C142.738 260.09 144.525 261.856 144.538 264.028C144.551 266.2 142.784 267.987 140.613 268L121.843 268.111C119.672 268.124 117.884 266.358 117.871 264.186C117.858 262.014 119.625 260.227 121.797 260.214Z" fill="white"/>
</mask>
<g mask="url(#mask40_14832_45389)">
<path opacity="0.01" d="M142.493 259.9L138.905 259.879C135.701 264.003 130.688 266.645 125.063 266.612C122.523 266.597 120.115 266.034 117.945 265.042C118.39 266.919 120.075 268.334 122.085 268.346L142.443 268.466C144.798 268.48 146.737 266.564 146.751 264.208C146.764 261.853 144.849 259.914 142.493 259.9Z" fill="black"/>
</g>
<g opacity="0.1">
<path d="M118.847 263.71C118.848 263.721 118.827 263.615 118.825 263.466C118.821 263.315 118.836 263.101 118.903 262.853C118.966 262.603 119.09 262.323 119.277 262.052C119.368 261.913 119.483 261.786 119.607 261.664C119.722 261.53 119.876 261.437 120.016 261.33C120.162 261.233 120.317 261.148 120.471 261.074C120.631 261.016 120.787 260.954 120.94 260.908C121.095 260.879 121.245 260.851 121.387 260.824C121.529 260.808 121.663 260.813 121.786 260.808C122.031 260.797 122.228 260.848 122.366 260.868C122.502 260.898 122.58 260.915 122.58 260.915C122.759 260.954 122.872 261.131 122.833 261.309C122.808 261.423 122.727 261.51 122.625 261.548L122.58 261.564C122.58 261.564 122.514 261.589 122.397 261.632C122.282 261.676 122.113 261.705 121.932 261.785C121.745 261.844 121.542 261.932 121.336 262.026C121.238 262.078 121.136 262.132 121.033 262.186C120.943 262.256 120.84 262.307 120.749 262.376C120.394 262.652 120.089 262.986 119.866 263.287C119.75 263.433 119.662 263.568 119.594 263.662C119.527 263.759 119.49 263.796 119.49 263.807C119.463 263.984 119.298 264.106 119.121 264.08C118.943 264.053 118.82 263.888 118.847 263.71Z" fill="white"/>
</g>
<path d="M261.778 246.808L276.571 258.361C278.282 259.698 278.589 262.192 277.252 263.904C275.915 265.616 273.421 265.923 271.709 264.586L256.916 253.032C255.205 251.695 254.898 249.201 256.235 247.489C257.572 245.778 260.066 245.471 261.778 246.808Z" fill="white"/>
<mask id="mask41_14832_45389" style="mask-type:luminance" maskUnits="userSpaceOnUse" x="253" y="224" width="14" height="27">
<path d="M258.265 247.706L253.718 229.496C253.192 227.389 254.485 225.235 256.593 224.709C258.7 224.183 260.854 225.476 261.381 227.584L265.928 245.793C266.454 247.901 265.16 250.055 263.053 250.581C260.946 251.107 258.791 249.814 258.265 247.706Z" fill="white"/>
</mask>
<g mask="url(#mask41_14832_45389)">
<path d="M242.847 253.332L259.066 265.999L277.498 242.398L261.279 229.731L242.847 253.332Z" fill="#002548"/>
</g>
<mask id="mask42_14832_45389" style="mask-type:luminance" maskUnits="userSpaceOnUse" x="255" y="245" width="24" height="21">
<path d="M261.774 246.808L276.567 258.361C278.278 259.698 278.585 262.192 277.248 263.904C275.911 265.616 273.417 265.923 271.705 264.586L256.912 253.032C255.201 251.695 254.894 249.201 256.231 247.489C257.568 245.778 260.062 245.471 261.774 246.808Z" fill="white"/>
</mask>
<g mask="url(#mask42_14832_45389)">
<path opacity="0.01" d="M278.203 259.396L275.4 257.154C270.33 258.402 264.758 257.366 260.366 253.851C258.382 252.264 256.844 250.329 255.756 248.205C254.94 249.954 255.385 252.108 256.954 253.364L272.849 266.085C274.689 267.556 277.398 267.256 278.87 265.416C280.341 263.577 280.042 260.868 278.203 259.396Z" fill="black"/>
</g>
<g opacity="0.1">
<path d="M257.302 247.724C257.295 247.733 257.345 247.636 257.436 247.518C257.527 247.397 257.672 247.238 257.878 247.086C258.082 246.929 258.353 246.786 258.669 246.689C258.826 246.635 258.994 246.608 259.168 246.589C259.341 246.556 259.519 246.578 259.695 246.582C259.87 246.596 260.044 246.626 260.211 246.663C260.373 246.717 260.534 246.765 260.682 246.824C260.822 246.897 260.957 246.969 261.084 247.036C261.205 247.111 261.308 247.198 261.407 247.271C261.606 247.414 261.729 247.576 261.824 247.677C261.913 247.785 261.963 247.846 261.963 247.846C262.079 247.988 262.058 248.196 261.917 248.312C261.826 248.387 261.709 248.405 261.605 248.372L261.56 248.357C261.56 248.357 261.492 248.335 261.374 248.296C261.257 248.26 261.106 248.178 260.915 248.128C260.731 248.058 260.518 248.001 260.298 247.947C260.188 247.926 260.076 247.906 259.962 247.885C259.847 247.884 259.735 247.86 259.621 247.858C259.171 247.854 258.725 247.927 258.363 248.025C258.182 248.067 258.028 248.119 257.917 248.149C257.806 248.184 257.753 248.19 257.746 248.199C257.615 248.322 257.409 248.315 257.286 248.184C257.165 248.052 257.171 247.846 257.302 247.724Z" fill="white"/>
</g>
</g>
<defs>
<clipPath id="clip0_14832_45389">
<rect width="325" height="325" fill="white" transform="translate(48 3)"/>
</clipPath>
</defs>
</svg>
