<svg width="420" height="332" viewBox="0 0 420 332" fill="none" xmlns="http://www.w3.org/2000/svg">
<path d="M325.318 220.035C323.24 218.155 320.849 216.572 318.451 215.292L317.334 205.837L308.411 204.079L303.332 212.154C300.745 212.237 298.147 212.776 295.54 213.619L287.801 207.332L280.068 212.295L282.237 222.235C280.669 224.017 279.405 225.808 278.289 227.755L267.603 229.447L266.145 238.53L274.683 243.318C274.767 245.904 275.154 248.499 276.001 250.954L269.538 259.599L274.813 267.037L284.457 264.557C286.239 266.124 288.026 267.54 290.124 268.66L291.813 279.499L300.896 280.956L305.835 272.422C308.422 272.339 311.016 271.952 313.623 271.109L321.817 277.407L329.403 272.288L327.07 262.801C328.95 260.722 330.529 258.484 331.805 256.237L341.572 254.825L343.182 245.746L335.251 240.974C335.176 238.084 334.641 235.333 333.802 232.574L339.621 225.28L334.502 217.695L325.318 220.035ZM312.645 250.711C307.97 254.996 300.834 254.654 296.55 249.98C292.265 245.305 292.607 238.169 297.282 233.884C301.956 229.6 309.092 229.942 313.377 234.616C317.661 239.291 317.316 246.579 312.645 250.711Z" fill="#839299"/>
<path d="M363.371 183.953C362.184 182.857 360.689 181.905 359.19 181.105L358.58 175.464L353.287 174.411L350.271 179.196C348.748 179.307 347.069 179.567 345.686 180.138L341.073 176.367L336.435 179.284L337.796 185.249C336.857 186.289 336.069 187.332 335.429 188.531L329.016 189.577L328.111 195.026L333.204 197.898C333.315 199.421 333.579 200.948 333.994 202.479L330.211 207.548L333.284 212.038L339.101 210.52C340.14 211.46 341.336 212.252 342.535 212.892L343.577 219.457L349.025 220.362L352.049 215.273C353.572 215.162 355.096 215.05 356.631 214.483L361.547 218.262L366.038 215.189L364.668 209.527C365.764 208.34 366.711 206.997 367.511 205.498L373.308 204.74L374.213 199.291L369.425 196.428C369.317 194.752 369.058 193.073 368.494 191.386L371.958 186.917L368.885 182.427L363.371 183.953ZM355.738 202.297C352.935 204.807 348.686 204.542 346.172 201.891C343.658 199.239 343.927 194.838 346.578 192.324C349.381 189.814 353.631 190.079 356.145 192.73C358.659 195.381 358.542 199.787 355.738 202.297Z" fill="#D2D9DC"/>
<path d="M198.652 215.225V266.125H239.352V215.225H198.652Z" fill="#002548"/>
<path opacity="0.19" d="M198.652 215.225V266.125H239.352V215.225H198.652Z" fill="#F9FAFB"/>
<path d="M141.297 277.1V271L163.397 266.2H274.597L296.597 271V277.1H141.297Z" fill="#002548"/>
<path d="M348.293 227.315L348.293 56.915L89.593 56.915L89.593 227.315L348.293 227.315Z" fill="#002548"/>
<path d="M345.898 59.3H92.0977V217.5H345.898V59.3Z" fill="#839299"/>
<path d="M343.617 215.336V61.5361L94.3172 61.5361L94.3172 215.336L343.617 215.336Z" fill="#D2D9DC"/>
<path d="M335.812 207.536V69.436L102.213 69.436L102.213 207.536L335.812 207.536Z" fill="#F9FAFB"/>
<path d="M324.298 129.4H239.798C237.998 129.4 236.598 128 236.598 126.2V81.4002C236.598 79.6002 237.998 78.2002 239.798 78.2002H324.298C326.098 78.2002 327.498 79.6002 327.498 81.4002V126.2C327.498 128 325.998 129.4 324.298 129.4Z" fill="#0054A6"/>
<path d="M316.799 95.3999H248.199C244.899 95.3999 242.199 92.6999 242.199 89.3999C242.199 86.0999 244.899 83.3999 248.199 83.3999H316.799C320.099 83.3999 322.799 86.0999 322.799 89.3999C322.799 92.6999 320.099 95.3999 316.799 95.3999Z" fill="#F9FAFB"/>
<path d="M249.648 91.7482C248.148 92.6482 246.248 92.1482 245.448 90.6482C244.548 89.1482 245.048 87.2482 246.548 86.4482C248.048 85.5482 249.948 86.0482 250.748 87.5482C251.648 89.0482 251.148 90.9482 249.648 91.7482ZM246.748 86.7482C245.448 87.5482 244.948 89.2482 245.748 90.5482C246.548 91.8482 248.248 92.3482 249.548 91.5482C250.848 90.7482 251.348 89.0482 250.548 87.7482C249.748 86.3482 248.048 85.9482 246.748 86.7482Z" fill="#002548"/>
<path d="M249.755 91.584L249.496 91.7356L251.063 94.4106L251.322 94.259L249.755 91.584Z" fill="#002548"/>
<path d="M284.5 109.4H247.6C246.2 109.4 245 108.2 245 106.8C245 105.4 246.2 104.2 247.6 104.2H284.5C285.9 104.2 287.1 105.4 287.1 106.8C287.1 108.2 285.9 109.4 284.5 109.4Z" fill="#D2D9DC"/>
<path d="M317.898 120.5H247.698C246.298 120.5 245.098 119.3 245.098 117.9C245.098 116.5 246.298 115.3 247.698 115.3H317.898C319.298 115.3 320.498 116.5 320.498 117.9C320.498 119.3 319.298 120.5 317.898 120.5Z" fill="#D2D9DC"/>
<path d="M308.198 193H256.098C253.598 193 251.598 191 251.598 188.5V142.8C251.598 140.3 253.598 138.3 256.098 138.3H308.198C310.698 138.3 312.698 140.3 312.698 142.8V188.5C312.698 191 310.698 193 308.198 193Z" fill="#002548"/>
<path d="M290.4 162.6C290.9 163.7 291.1 164.8 291.1 166.1C291.1 171 287.2 174.9 282.3 174.9C277.4 174.9 273.5 171 273.5 166.1C273.5 161.2 277.4 157.3 282.3 157.3C282.9 157.3 283.5 157.4 284 157.5L285.9 148.3C284.7 148.1 283.5 147.9 282.2 147.9C272.2 147.9 264 156 264 166.1C264 176.1 272.1 184.3 282.2 184.3C292.3 184.3 300.4 176.2 300.4 166.1C300.4 163.1 299.7 160.3 298.4 157.8L290.4 162.6Z" fill="#FFDD33"/>
<path d="M289.595 143.8L287.695 153C290.595 153.6 292.895 155.5 293.995 158.2L302.095 153.4C299.695 148.5 295.095 144.9 289.595 143.8Z" fill="#0054A6"/>
<path d="M92.0987 229.2L134.399 193.4C135.599 194.8 137.399 195.5 139.299 195.1L149.799 193.2C151.599 192.9 153.099 191.6 153.699 189.9L157.899 178.2C158.199 177.5 157.999 176.7 157.499 176.1L146.999 185C144.899 186.8 141.799 186.5 140.099 184.4L137.299 181.1C135.499 179 135.799 175.9 137.899 174.2L148.399 165.3C147.899 164.7 147.099 164.4 146.399 164.6L134.199 166.8C132.399 167.1 130.899 168.4 130.299 170.1L126.699 180.2C126.099 181.9 126.399 183.9 127.599 185.3L127.699 185.4L85.3987 221.2C80.7987 219 75.0987 219.6 71.0987 223.3C66.1987 227.8 65.5987 235.4 69.5987 240.7C74.0987 246.6 82.5987 247.5 88.1987 242.7C92.0987 239.2 93.4987 233.9 92.0987 229.2ZM76.5987 241.5L70.5987 234.4L73.6987 225.7L82.7987 224.1L88.7987 231.2L85.6987 239.9L76.5987 241.5Z" fill="#839299"/>
<path d="M227.524 159.319H119.476C117.004 159.319 115 157.315 115 154.843V82.4764C115 80.0042 117.004 78 119.476 78H227.524C229.996 78 232 80.004 232 82.4764V154.843C232 157.315 229.996 159.319 227.524 159.319Z" fill="white"/>
<path d="M226.249 83.7502H120.75V153.568H226.249V83.7502Z" fill="#0054A6"/>
<path d="M146.321 100.206H144.594V92.4124H146.321C147.124 92.4124 147.775 93.0635 147.775 93.8667V98.752C147.775 99.5553 147.124 100.206 146.321 100.206Z" fill="url(#paint0_linear_14832_43988)"/>
<path d="M146.321 123.608H144.594V115.814H146.321C147.124 115.814 147.775 116.465 147.775 117.268V122.154C147.775 122.957 147.124 123.608 146.321 123.608Z" fill="url(#paint1_linear_14832_43988)"/>
<path d="M146.321 145.221H144.594V137.427H146.321C147.124 137.427 147.775 138.078 147.775 138.882V143.767C147.775 144.57 147.124 145.221 146.321 145.221Z" fill="url(#paint2_linear_14832_43988)"/>
<path d="M155.797 105.833L161.44 96.5695C162.317 95.1299 164.375 95.0401 165.374 96.398L168.396 100.504C169.507 102.015 171.806 101.878 172.73 100.247L175.84 94.7591C176.899 92.89 179.592 92.89 180.651 94.7591L183.158 99.1834C184.213 101.045 186.942 100.894 187.786 98.9285L191.069 91.2816C191.877 89.398 194.548 89.398 195.356 91.2816L198.596 98.8268C199.447 100.811 202.211 100.94 203.244 99.0442L205.856 94.2529C206.822 92.4792 209.394 92.5534 210.256 94.38L215.666 105.833H155.797V105.833Z" fill="#002548"/>
<path d="M201.007 100.387C200.028 100.398 199.045 99.8736 198.596 98.8263L195.356 91.2811C194.548 89.3975 191.877 89.3975 191.069 91.2811L187.786 98.928C186.942 100.894 184.213 101.044 183.158 99.1829L180.651 94.7587C179.592 92.8895 176.899 92.8897 175.84 94.7587L172.73 100.246C171.806 101.877 169.507 102.014 168.396 100.504L165.374 96.3975C164.375 95.0396 162.317 95.1294 161.44 96.569L155.797 105.832H201.007V100.387Z" fill="#002548"/>
<path d="M185.622 100.479C184.68 100.558 183.699 100.138 183.158 99.1827L180.651 94.7585C179.591 92.8893 176.899 92.8895 175.839 94.7585L172.73 100.246C171.805 101.877 169.507 102.014 168.395 100.504L165.374 96.3975C164.375 95.0396 162.317 95.1295 161.44 96.5691L155.797 105.832H185.622L185.622 100.479Z" fill="url(#paint3_linear_14832_43988)"/>
<path d="M170.897 101.522C169.989 101.669 169.01 101.34 168.395 100.504L165.374 96.3975C164.375 95.0396 162.317 95.1294 161.44 96.569L155.797 105.832H170.898V101.522H170.897Z" fill="url(#paint4_linear_14832_43988)"/>
<path d="M218.482 106.757H152.98C152.542 106.757 152.188 106.402 152.188 105.964C152.188 105.527 152.542 105.172 152.98 105.172H218.482C218.919 105.172 219.274 105.527 219.274 105.964C219.274 106.402 218.919 106.757 218.482 106.757Z" fill="white"/>
<path d="M186.213 115.391H153.476C152.764 115.391 152.188 114.815 152.188 114.103C152.188 113.391 152.764 112.814 153.476 112.814H186.213C186.924 112.814 187.501 113.391 187.501 114.103C187.501 114.815 186.924 115.391 186.213 115.391Z" fill="white"/>
<path d="M159.429 112.814H153.476C152.764 112.814 152.188 113.391 152.188 114.103C152.188 114.815 152.764 115.391 153.476 115.391H159.429V112.814Z" fill="url(#paint5_linear_14832_43988)"/>
<path d="M159.431 115.963C160.458 115.963 161.291 115.13 161.291 114.103C161.291 113.076 160.458 112.243 159.431 112.243C158.403 112.243 157.57 113.076 157.57 114.103C157.57 115.13 158.403 115.963 159.431 115.963Z" fill="url(#paint6_linear_14832_43988)"/>
<path d="M158.191 114.457C157.995 113.773 158.391 113.06 159.076 112.864C159.76 112.669 160.473 113.065 160.668 113.749C160.864 114.434 160.468 115.147 159.783 115.342C159.099 115.537 158.386 115.141 158.191 114.457Z" fill="white"/>
<path d="M186.213 119.739H153.476C152.764 119.739 152.188 119.162 152.188 118.451C152.188 117.739 152.764 117.162 153.476 117.162H186.213C186.924 117.162 187.501 117.739 187.501 118.451C187.501 119.162 186.924 119.739 186.213 119.739Z" fill="white"/>
<path d="M164.615 117.162H153.476C152.764 117.162 152.188 117.739 152.188 118.451C152.188 119.162 152.764 119.739 153.476 119.739H164.615V117.162Z" fill="url(#paint7_linear_14832_43988)"/>
<path d="M164.614 120.311C165.641 120.311 166.474 119.478 166.474 118.451C166.474 117.423 165.641 116.591 164.614 116.591C163.587 116.591 162.754 117.423 162.754 118.451C162.754 119.478 163.587 120.311 164.614 120.311Z" fill="url(#paint8_linear_14832_43988)"/>
<path d="M163.374 118.804C163.179 118.12 163.575 117.407 164.259 117.212C164.944 117.016 165.657 117.412 165.852 118.097C166.048 118.781 165.651 119.494 164.967 119.689C164.282 119.885 163.569 119.489 163.374 118.804Z" fill="white"/>
<path d="M186.213 124.087H153.476C152.764 124.087 152.188 123.51 152.188 122.798C152.188 122.087 152.764 121.51 153.476 121.51H186.213C186.924 121.51 187.501 122.087 187.501 122.798C187.501 123.51 186.924 124.087 186.213 124.087Z" fill="white"/>
<path d="M167.962 121.51H153.476C152.764 121.51 152.188 122.087 152.188 122.798C152.188 123.51 152.764 124.087 153.476 124.087H167.962V121.51Z" fill="#002548"/>
<path d="M168.079 124.658C169.106 124.658 169.939 123.825 169.939 122.798C169.939 121.771 169.106 120.938 168.079 120.938C167.052 120.938 166.219 121.771 166.219 122.798C166.219 123.825 167.052 124.658 168.079 124.658Z" fill="#002548"/>
<path d="M166.839 123.152C166.643 122.468 167.04 121.755 167.724 121.559C168.408 121.364 169.121 121.76 169.317 122.444C169.512 123.129 169.116 123.842 168.432 124.037C167.747 124.233 167.034 123.836 166.839 123.152Z" fill="white"/>
<path d="M159.164 145.529C155.317 145.529 152.188 142.4 152.188 138.553C152.188 134.705 155.317 131.576 159.164 131.576C163.011 131.576 166.141 134.706 166.141 138.553C166.141 142.4 163.011 145.529 159.164 145.529ZM159.164 132.165C155.642 132.165 152.777 135.031 152.777 138.553C152.777 142.075 155.642 144.94 159.164 144.94C162.686 144.94 165.552 142.075 165.552 138.553C165.552 135.031 162.686 132.165 159.164 132.165Z" fill="white"/>
<path d="M159.062 144.937C155.631 144.883 152.85 142.111 152.781 138.684H152.191C152.261 142.436 155.306 145.472 159.062 145.527V144.937Z" fill="url(#paint9_linear_14832_43988)"/>
<path d="M159.166 144.198C156.052 144.198 153.52 141.666 153.52 138.553C153.52 135.439 156.052 132.906 159.166 132.906C162.279 132.906 164.812 135.439 164.812 138.553C164.812 141.666 162.279 144.198 159.166 144.198ZM159.166 133.384C156.316 133.384 153.997 135.702 153.997 138.553C153.997 141.403 156.316 143.721 159.166 143.721C162.016 143.721 164.335 141.403 164.335 138.553C164.334 135.703 162.016 133.384 159.166 133.384Z" fill="white"/>
<path d="M159.083 143.719C156.307 143.675 154.057 141.432 154.001 138.658H153.523C153.58 141.695 156.044 144.152 159.083 144.196V143.719Z" fill="url(#paint10_linear_14832_43988)"/>
<path d="M176.68 145.529C172.833 145.529 169.703 142.4 169.703 138.553C169.703 134.705 172.833 131.576 176.68 131.576C180.527 131.576 183.657 134.706 183.657 138.553C183.657 142.4 180.527 145.529 176.68 145.529ZM176.68 132.165C173.158 132.165 170.293 135.031 170.293 138.553C170.293 142.075 173.158 144.94 176.68 144.94C180.202 144.94 183.067 142.075 183.067 138.553C183.067 135.031 180.202 132.165 176.68 132.165Z" fill="white"/>
<path d="M183.066 138.487C183.066 138.509 183.068 138.53 183.068 138.552C183.068 142.074 180.202 144.939 176.68 144.939C173.158 144.939 170.293 142.074 170.293 138.552C170.293 138.53 170.294 138.509 170.294 138.487H169.705C169.705 138.509 169.703 138.53 169.703 138.552C169.703 142.399 172.833 145.529 176.68 145.529C180.527 145.529 183.657 142.399 183.657 138.552C183.657 138.53 183.655 138.509 183.655 138.487H183.066Z" fill="url(#paint11_linear_14832_43988)"/>
<path d="M176.681 144.198C173.568 144.198 171.035 141.666 171.035 138.553C171.035 135.439 173.568 132.906 176.681 132.906C179.794 132.906 182.327 135.439 182.327 138.553C182.327 141.666 179.794 144.198 176.681 144.198ZM176.681 133.384C173.831 133.384 171.512 135.702 171.512 138.553C171.512 141.403 173.831 143.721 176.681 143.721C179.531 143.721 181.85 141.403 181.85 138.553C181.85 135.703 179.531 133.384 176.681 133.384Z" fill="white"/>
<path d="M181.849 138.499C181.849 138.517 181.85 138.534 181.85 138.552C181.85 141.402 179.531 143.721 176.681 143.721C173.831 143.721 171.512 141.402 171.512 138.552C171.512 138.535 171.514 138.517 171.514 138.499H171.037C171.036 138.517 171.035 138.534 171.035 138.552C171.035 141.666 173.568 144.198 176.681 144.198C179.794 144.198 182.327 141.665 182.327 138.552C182.327 138.535 182.326 138.517 182.326 138.499H181.849Z" fill="url(#paint12_linear_14832_43988)"/>
<path d="M194.196 145.529C190.348 145.529 187.219 142.4 187.219 138.553C187.219 134.705 190.348 131.576 194.196 131.576C198.043 131.576 201.172 134.706 201.172 138.553C201.173 142.4 198.043 145.529 194.196 145.529ZM194.196 132.165C190.674 132.165 187.808 135.031 187.808 138.553C187.808 142.075 190.673 144.94 194.196 144.94C197.718 144.94 200.583 142.075 200.583 138.553C200.583 135.031 197.718 132.165 194.196 132.165Z" fill="white"/>
<path d="M194.437 131.582V132.172C197.848 132.299 200.584 135.112 200.584 138.553C200.584 142.075 197.719 144.94 194.196 144.94C190.718 144.94 187.883 142.145 187.812 138.684H187.223C187.293 142.47 190.393 145.529 194.196 145.529C198.043 145.529 201.173 142.4 201.173 138.553C201.173 134.786 198.173 131.709 194.437 131.582Z" fill="url(#paint13_linear_14832_43988)"/>
<path d="M194.197 144.198C191.084 144.198 188.551 141.666 188.551 138.553C188.551 135.439 191.084 132.906 194.197 132.906C197.31 132.906 199.843 135.439 199.843 138.553C199.843 141.666 197.31 144.198 194.197 144.198ZM194.197 133.384C191.347 133.384 189.028 135.702 189.028 138.553C189.028 141.403 191.347 143.721 194.197 143.721C197.047 143.721 199.366 141.403 199.366 138.553C199.366 135.703 197.047 133.384 194.197 133.384Z" fill="white"/>
<path d="M194.392 132.911V133.388C197.153 133.491 199.367 135.767 199.367 138.552C199.367 141.402 197.048 143.721 194.198 143.721C191.383 143.721 189.089 141.459 189.032 138.658H188.555C188.612 141.723 191.12 144.198 194.198 144.198C197.311 144.198 199.844 141.665 199.844 138.552C199.844 135.504 197.416 133.014 194.392 132.911Z" fill="url(#paint14_linear_14832_43988)"/>
<path d="M130.711 98.4167L130.696 98.4157C127.857 98.2006 126.923 94.786 126.619 92.7697C126.483 91.8693 126.834 90.9505 127.535 90.3719L128.137 89.8752L128.379 90.1675L127.777 90.6641C127.177 91.1585 126.877 91.9437 126.993 92.7132C127.28 94.6146 128.144 97.8311 130.711 98.037C131.84 97.9463 132.754 97.2633 133.426 96.0065C134.02 94.8964 134.305 93.561 134.44 92.6363C134.545 91.9111 134.259 91.1702 133.692 90.7025L133.043 90.1675L133.284 89.8752L133.933 90.4103C134.601 90.9618 134.939 91.8355 134.815 92.6907C134.676 93.6455 134.38 95.0267 133.76 96.1851C133.02 97.5687 131.999 98.3192 130.725 98.4157L130.711 98.4167Z" fill="white"/>
<path d="M137.208 95.1605H136.83C136.77 95.1605 136.722 95.2088 136.722 95.2686V100.281C136.722 101.769 135.511 102.98 134.023 102.98H133.593C132.184 102.98 131.038 101.833 131.038 100.424V98.4869C132.209 98.2981 133.155 97.5426 133.855 96.2361C134.459 95.1071 134.758 93.7734 134.904 92.8157H134.302C134.158 93.7182 133.876 94.9345 133.33 95.9552C132.678 97.1741 131.796 97.8377 130.71 97.9281C128.276 97.7258 127.417 94.6938 127.118 92.8157H126.516C126.82 94.8086 127.733 98.1074 130.443 98.4965V100.424C130.443 102.162 131.856 103.575 133.594 103.575H134.024C135.84 103.575 137.317 102.097 137.317 100.282V95.2691C137.317 95.209 137.268 95.1605 137.208 95.1605Z" fill="url(#paint15_linear_14832_43988)"/>
<path d="M128.892 89.6782C128.857 89.6493 128.815 89.6251 128.765 89.6074C128.605 89.5507 128.385 89.5417 128.236 89.6324C128.035 89.7545 128.094 90.0461 128.228 90.2012C128.371 90.3658 128.617 90.3531 128.772 90.2143C128.922 90.0803 129.08 89.8383 128.892 89.6782Z" fill="white"/>
<path d="M132.692 89.6782C132.726 89.6493 132.769 89.6251 132.819 89.6074C132.978 89.5507 133.198 89.5417 133.347 89.6324C133.548 89.7545 133.489 90.0461 133.355 90.2012C133.212 90.3658 132.967 90.3531 132.811 90.2143C132.661 90.0803 132.503 89.8383 132.692 89.6782Z" fill="white"/>
<path d="M137.036 96.4663C137.757 96.4663 138.342 95.8817 138.342 95.1605C138.342 94.4394 137.757 93.8547 137.036 93.8547C136.315 93.8547 135.73 94.4394 135.73 95.1605C135.73 95.8817 136.315 96.4663 137.036 96.4663Z" fill="white"/>
<path d="M136.172 95.1603C136.172 94.6824 136.559 94.2949 137.037 94.2949C137.515 94.2949 137.903 94.6824 137.903 95.1603C137.903 95.6382 137.515 96.0257 137.037 96.0257C136.559 96.0257 136.172 95.6382 136.172 95.1603Z" fill="#D6D6D6"/>
<path d="M136.324 95.1604C136.324 94.7669 136.643 94.448 137.037 94.448C137.43 94.448 137.749 94.7669 137.749 95.1604C137.749 95.5539 137.43 95.8728 137.037 95.8728C136.643 95.873 136.324 95.5539 136.324 95.1604Z" fill="#E9E9E9"/>
<path d="M128.336 117.06C127.656 115.89 128.053 114.391 129.223 113.712C130.392 113.032 131.891 113.429 132.571 114.598L134.546 117.997L130.311 120.458L128.336 117.06Z" fill="url(#paint16_linear_14832_43988)"/>
<path d="M132.288 123.857L130.312 120.459L134.547 117.997L136.523 121.396C137.202 122.565 136.805 124.064 135.636 124.744C134.467 125.424 132.968 125.027 132.288 123.857Z" fill="white"/>
<g opacity="0.5">
<path opacity="0.16" d="M130.204 114.632C130.097 114.447 129.86 114.385 129.675 114.492C128.938 114.92 128.687 115.869 129.115 116.606L133.066 123.404C133.174 123.588 133.41 123.651 133.595 123.544C133.779 123.437 133.842 123.2 133.735 123.015L129.784 116.218C129.57 115.849 129.695 115.375 130.064 115.161C130.249 115.053 130.311 114.817 130.204 114.632Z" fill="#FEFBE3"/>
</g>
<path d="M134.614 137.677V136.759H130.246V137.677C129.613 138.074 129.191 138.777 129.191 139.579V146.724C129.191 147.143 130.641 147.262 132.429 147.262C134.218 147.262 135.668 147.077 135.668 146.724V139.579C135.668 138.777 135.247 138.074 134.614 137.677Z" fill="white"/>
<path d="M135.668 140.902H129.191V144.514H135.668V140.902Z" fill="url(#paint17_linear_14832_43988)"/>
<path d="M134.35 135.462H130.498C130.271 135.462 130.086 135.647 130.086 135.874V136.563H134.778V135.89C134.778 135.653 134.586 135.462 134.35 135.462Z" fill="url(#paint18_linear_14832_43988)"/>
<path d="M134.778 136.442H130.086V136.563H134.778V136.442Z" fill="white"/>
<path d="M134.709 136.928H130.151C130.05 136.928 129.969 136.846 129.969 136.745C129.969 136.645 130.05 136.563 130.151 136.563H134.709C134.81 136.563 134.891 136.645 134.891 136.745C134.891 136.846 134.81 136.928 134.709 136.928Z" fill="url(#paint19_linear_14832_43988)"/>
<path d="M134.773 136.927H130.09V137.049H134.773V136.927Z" fill="white"/>
<path d="M133.242 141.416C132.856 141.416 132.531 141.675 132.429 142.028C132.327 141.675 132.002 141.416 131.616 141.416C131.149 141.416 130.77 141.795 130.77 142.263C130.77 143.206 132.429 144.225 132.429 144.225C132.429 144.225 134.089 143.1 134.089 142.263C134.089 141.795 133.709 141.416 133.242 141.416Z" fill="white"/>
<path d="M133.126 142.705H132.696V142.275H132.16V142.705H131.73V143.241H132.16V143.671H132.696V143.241H133.126V142.705Z" fill="url(#paint20_linear_14832_43988)"/>
<path d="M217.9 163H175.8C171.5 163 168 166.5 168 170.8V191.6C168 195.9 171.5 199.4 175.8 199.4V205.6L183.4 199.4H217.9C222.2 199.4 225.7 195.9 225.7 191.6V170.8C225.7 166.5 222.2 163 217.9 163Z" fill="#0054A6"/>
<path d="M187.602 190C187.302 190 187.102 189.9 186.902 189.7L178.402 181.2C178.202 181 178.102 180.7 178.102 180.5C178.102 180.2 178.202 180 178.402 179.8L186.902 171.3C187.302 170.9 188.002 170.9 188.402 171.3C188.802 171.7 188.802 172.4 188.402 172.8L180.702 180.5L188.402 188.2C188.802 188.6 188.802 189.3 188.402 189.7C188.102 189.9 187.802 190 187.602 190Z" fill="#F9FAFB"/>
<path d="M206.1 190C206.4 190 206.6 189.9 206.8 189.7L215.3 181.2C215.5 181 215.6 180.7 215.6 180.5C215.6 180.2 215.5 180 215.3 179.8L206.8 171.3C206.4 170.9 205.7 170.9 205.3 171.3C204.9 171.7 204.9 172.4 205.3 172.8L213 180.5L205.3 188.2C204.9 188.6 204.9 189.3 205.3 189.7C205.6 189.9 205.9 190 206.1 190Z" fill="#F9FAFB"/>
<path d="M192.703 190C192.603 190 192.403 190 192.303 189.9C191.803 189.7 191.503 189.1 191.803 188.5L199.203 171.6C199.403 171.1 200.003 170.8 200.603 171.1C201.103 171.3 201.403 171.9 201.103 172.5L193.703 189.4C193.503 189.8 193.103 190 192.703 190Z" fill="#F9FAFB"/>
<defs>
<linearGradient id="paint0_linear_14832_43988" x1="144.594" y1="96.3094" x2="147.775" y2="96.3094" gradientUnits="userSpaceOnUse">
<stop stop-color="#00CF9B"/>
<stop offset="1" stop-color="#8FF8C2"/>
</linearGradient>
<linearGradient id="paint1_linear_14832_43988" x1="144.594" y1="119.711" x2="147.775" y2="119.711" gradientUnits="userSpaceOnUse">
<stop stop-color="#009DFF"/>
<stop offset="1" stop-color="#99FFF8"/>
</linearGradient>
<linearGradient id="paint2_linear_14832_43988" x1="144.594" y1="141.324" x2="147.775" y2="141.324" gradientUnits="userSpaceOnUse">
<stop stop-color="#5800F1"/>
<stop offset="1" stop-color="#43A7FF"/>
</linearGradient>
<linearGradient id="paint3_linear_14832_43988" x1="179.574" y1="89.9918" x2="171.519" y2="104.386" gradientUnits="userSpaceOnUse">
<stop stop-color="#009DFF"/>
<stop offset="1" stop-color="#99FFF8"/>
</linearGradient>
<linearGradient id="paint4_linear_14832_43988" x1="155.797" y1="100.632" x2="170.897" y2="100.632" gradientUnits="userSpaceOnUse">
<stop stop-color="#00CF9B"/>
<stop offset="1" stop-color="#8FF8C2"/>
</linearGradient>
<linearGradient id="paint5_linear_14832_43988" x1="152.187" y1="114.103" x2="159.429" y2="114.103" gradientUnits="userSpaceOnUse">
<stop stop-color="#00CF9B"/>
<stop offset="1" stop-color="#8FF8C2"/>
</linearGradient>
<linearGradient id="paint6_linear_14832_43988" x1="157.57" y1="114.103" x2="161.291" y2="114.103" gradientUnits="userSpaceOnUse">
<stop stop-color="#00CF9B"/>
<stop offset="1" stop-color="#8FF8C2"/>
</linearGradient>
<linearGradient id="paint7_linear_14832_43988" x1="152.188" y1="118.451" x2="164.615" y2="118.451" gradientUnits="userSpaceOnUse">
<stop stop-color="#009DFF"/>
<stop offset="1" stop-color="#99FFF8"/>
</linearGradient>
<linearGradient id="paint8_linear_14832_43988" x1="162.754" y1="118.451" x2="166.474" y2="118.451" gradientUnits="userSpaceOnUse">
<stop stop-color="#009DFF"/>
<stop offset="1" stop-color="#99FFF8"/>
</linearGradient>
<linearGradient id="paint9_linear_14832_43988" x1="152.191" y1="142.105" x2="159.062" y2="142.105" gradientUnits="userSpaceOnUse">
<stop stop-color="#00CF9B"/>
<stop offset="1" stop-color="#8FF8C2"/>
</linearGradient>
<linearGradient id="paint10_linear_14832_43988" x1="153.523" y1="141.427" x2="159.083" y2="141.427" gradientUnits="userSpaceOnUse">
<stop stop-color="#00CF9B"/>
<stop offset="1" stop-color="#8FF8C2"/>
</linearGradient>
<linearGradient id="paint11_linear_14832_43988" x1="169.703" y1="142.008" x2="183.657" y2="142.008" gradientUnits="userSpaceOnUse">
<stop stop-color="#009DFF"/>
<stop offset="1" stop-color="#99FFF8"/>
</linearGradient>
<linearGradient id="paint12_linear_14832_43988" x1="171.035" y1="141.349" x2="182.327" y2="141.349" gradientUnits="userSpaceOnUse">
<stop stop-color="#009DFF"/>
<stop offset="1" stop-color="#99FFF8"/>
</linearGradient>
<linearGradient id="paint13_linear_14832_43988" x1="187.223" y1="138.556" x2="201.173" y2="138.556" gradientUnits="userSpaceOnUse">
<stop stop-color="#5800F1"/>
<stop offset="1" stop-color="#43A7FF"/>
</linearGradient>
<linearGradient id="paint14_linear_14832_43988" x1="188.555" y1="138.555" x2="199.844" y2="138.555" gradientUnits="userSpaceOnUse">
<stop stop-color="#5800F1"/>
<stop offset="1" stop-color="#43A7FF"/>
</linearGradient>
<linearGradient id="paint15_linear_14832_43988" x1="126.515" y1="98.1953" x2="137.317" y2="98.1953" gradientUnits="userSpaceOnUse">
<stop stop-color="#5800F1"/>
<stop offset="1" stop-color="#43A7FF"/>
</linearGradient>
<linearGradient id="paint16_linear_14832_43988" x1="128.004" y1="116.919" x2="134.546" y2="116.919" gradientUnits="userSpaceOnUse">
<stop stop-color="#00CF9B"/>
<stop offset="1" stop-color="#8FF8C2"/>
</linearGradient>
<linearGradient id="paint17_linear_14832_43988" x1="129.191" y1="142.708" x2="135.668" y2="142.708" gradientUnits="userSpaceOnUse">
<stop stop-color="#009DFF"/>
<stop offset="1" stop-color="#99FFF8"/>
</linearGradient>
<linearGradient id="paint18_linear_14832_43988" x1="130.086" y1="136.012" x2="134.778" y2="136.012" gradientUnits="userSpaceOnUse">
<stop stop-color="#009DFF"/>
<stop offset="1" stop-color="#99FFF8"/>
</linearGradient>
<linearGradient id="paint19_linear_14832_43988" x1="129.969" y1="136.745" x2="134.891" y2="136.745" gradientUnits="userSpaceOnUse">
<stop stop-color="#009DFF"/>
<stop offset="1" stop-color="#99FFF8"/>
</linearGradient>
<linearGradient id="paint20_linear_14832_43988" x1="131.731" y1="142.973" x2="133.126" y2="142.973" gradientUnits="userSpaceOnUse">
<stop stop-color="#009DFF"/>
<stop offset="1" stop-color="#99FFF8"/>
</linearGradient>
</defs>
</svg>
