<svg width="1600" height="474" viewBox="0 0 1600 474" fill="none" xmlns="http://www.w3.org/2000/svg">
<g opacity="0.05">
<g clip-path="url(#clip0_10784_73367)">
<path opacity="0.5" d="M1303.36 1215.15C1511.65 933.455 1636.54 573.88 1636.54 182.098C1636.54 -263.172 1475.19 -666.905 1213.47 -961.841" stroke="#838383" stroke-width="2" stroke-miterlimit="10"/>
<path opacity="0.5" d="M153 1519.2C822.716 1519.2 1365.6 920.571 1365.6 182.098C1365.6 -556.376 822.716 -1155 153 -1155C-516.716 -1155 -1059.6 -556.376 -1059.6 182.098" stroke="#838383" stroke-width="2" stroke-miterlimit="10"/>
<path d="M1178.71 182.098C1178.71 -442.559 719.456 -948.913 153 -948.913" stroke="#838383" stroke-width="2" stroke-miterlimit="10"/>
<path opacity="0.5" d="M774.088 872.815C935.282 696.581 1035.12 452.201 1035.12 182.098C1035.12 -88.005 936.37 -329.676 776.747 -505.687" stroke="#838383" stroke-width="2" stroke-miterlimit="10"/>
<path opacity="0.5" d="M730.777 646.026C816.874 515.862 867.678 355.533 867.678 182.098C867.678 -78.6756 752.815 -309.862 575.828 -453.31" stroke="#838383" stroke-width="2" stroke-miterlimit="10"/>
<path d="M-406.607 182.098C-406.607 522.88 -156.053 799.158 153 799.158" stroke="#838383" stroke-width="2" stroke-miterlimit="10"/>
<path d="M303.96 703.378C504.154 632.965 649.152 426.212 649.152 182.098C649.152 122.569 640.531 65.2605 624.576 11.5953" stroke="#838383" stroke-width="2" stroke-miterlimit="10"/>
<path d="M153 -268.636C-72.7365 -268.636 -255.767 -66.8587 -255.767 182.098" stroke="#838383" stroke-width="2" stroke-miterlimit="10"/>
<path d="M331.881 576.768C463.02 504.356 553.064 354.822 553.064 182.098C553.064 109.863 537.312 41.7156 509.432 -18.48" stroke="#838383" stroke-width="2" stroke-miterlimit="10"/>
<path d="M523.292 254.91C527.079 231.276 529.053 206.931 529.053 182.098C529.053 -26.388 389.534 -198.89 207.873 -228.21" stroke="#838383" stroke-width="2" stroke-miterlimit="10"/>
<path d="M-192.998 300.89C-147.109 463.529 -9.56453 581.566 153 581.566C193.449 581.566 232.328 574.28 268.668 560.775" stroke="#838383" stroke-width="2" stroke-miterlimit="10"/>
<path d="M45.1873 542.783C79.1102 555.089 115.37 561.753 152.999 561.753C307.103 561.753 437.557 450.157 481.512 296.225" stroke="#838383" stroke-width="2" stroke-miterlimit="10"/>
<path d="M107.07 -179.12C-53.842 -154.464 -177.729 -2.13172 -177.729 182.098C-177.729 203.955 -175.997 225.412 -172.653 246.203" stroke="#838383" stroke-width="2" stroke-miterlimit="10"/>
<path d="M339.776 471.926C421.884 407.465 475.428 301.69 475.428 182.098C475.428 103.644 452.383 31.1426 413.343 -27.6758" stroke="#838383" stroke-width="2" stroke-miterlimit="10"/>
<path d="M-120.196 18.7925C-144.127 67.3489 -157.704 122.969 -157.704 182.098C-157.704 316.839 -87.1995 433.365 15.375 489.34" stroke="#838383" stroke-width="2" stroke-miterlimit="10"/>
<path d="M454.479 182.098C454.479 -1.50983 319.512 -150.333 153 -150.333" stroke="#838383" stroke-width="2" stroke-miterlimit="10"/>
<path d="M-111.655 327.011C-63.3089 434.208 37.0498 507.865 153 507.865C203.522 507.865 251.103 493.871 292.721 469.215" stroke="#838383" stroke-width="2" stroke-miterlimit="10"/>
<path d="M39.3053 449.047C73.8325 466.95 112.348 476.946 153.04 476.946C267.902 476.946 365.844 397.114 403.715 284.986" stroke="#838383" stroke-width="2" stroke-miterlimit="10"/>
<path d="M76.8535 -100.666C-33.7384 -64.5045 -114.436 48.3791 -114.436 182.098C-114.436 216.838 -108.997 250.201 -98.9654 281.165" stroke="#838383" stroke-width="2" stroke-miterlimit="10"/>
<path d="M396.986 147.313C381.475 13.95 278.176 -89.1156 152.999 -89.1156C139.382 -89.1156 126.046 -87.916 113.033 -85.5615" stroke="#838383" stroke-width="2" stroke-miterlimit="10"/>
<path d="M-81.5188 161.263C-82.0022 168.149 -82.2843 175.079 -82.2843 182.098C-82.2843 313.773 6.7131 422.57 121.979 439.273" stroke="#838383" stroke-width="2" stroke-miterlimit="10"/>
<path d="M153 430.566C277.451 430.566 378.334 319.326 378.334 182.098" stroke="#838383" stroke-width="2" stroke-miterlimit="10"/>
<path d="M61.0605 -30.4303C-10.8544 7.46406 -60.5303 88.4061 -60.5303 182.098C-60.5303 223.991 -50.6193 263.351 -33.2147 297.425" stroke="#838383" stroke-width="2" stroke-miterlimit="10"/>
<path d="M343.686 122.48C320.157 30.787 243.689 -36.3389 153.04 -36.3389C130.64 -36.3389 109.086 -32.2518 88.9816 -24.6551" stroke="#838383" stroke-width="2" stroke-miterlimit="10"/>
<path d="M12.9161 336.563C48.7729 376.101 98.2874 400.535 152.999 400.535C207.711 400.535 259.643 374.902 295.701 333.631" stroke="#838383" stroke-width="2" stroke-miterlimit="10"/>
</g>
</g>
<defs>
<clipPath id="clip0_10784_73367">
<rect width="2975.15" height="1453.73" fill="white" transform="matrix(-1 0 0 1 1640.57 -673.723)"/>
</clipPath>
</defs>
</svg>
