<svg width="50" height="50" viewBox="0 0 50 50" fill="none" xmlns="http://www.w3.org/2000/svg">
<g clip-path="url(#clip0_14405_62666)">
<path opacity="0.987" fill-rule="evenodd" clip-rule="evenodd" d="M24.1699 -0.0488281C24.4304 -0.0488281 24.6907 -0.0488281 24.9512 -0.0488281C24.9512 1.83919 24.9512 3.72722 24.9512 5.61523C24.6514 5.62815 24.3584 5.59561 24.0723 5.51758C22.806 5.06254 22.1224 4.15108 22.0215 2.7832C22.1596 1.37839 22.8758 0.434374 24.1699 -0.0488281Z" fill="#FED944"/>
<path fill-rule="evenodd" clip-rule="evenodd" d="M24.9512 -0.0488281C25.2116 -0.0488281 25.472 -0.0488281 25.7324 -0.0488281C27.5515 0.698508 28.1862 2.03314 27.6367 3.95508C27.2872 4.7771 26.6851 5.29793 25.8301 5.51758C25.5439 5.59561 25.251 5.62815 24.9512 5.61523C24.9512 3.72722 24.9512 1.83919 24.9512 -0.0488281Z" fill="#FFC109"/>
<path opacity="0.918" fill-rule="evenodd" clip-rule="evenodd" d="M24.0725 5.51758C24.3587 5.59561 24.6516 5.62815 24.9514 5.61523C25.2512 5.62815 25.5442 5.59561 25.8303 5.51758C25.8466 7.56861 25.8303 9.61939 25.7815 11.6699C25.5288 12.2862 25.0893 12.4652 24.4631 12.207C24.2691 12.0782 24.1551 11.8992 24.1214 11.6699C24.0725 9.61939 24.0562 7.56861 24.0725 5.51758Z" fill="#A79BA6"/>
<path opacity="0.981" fill-rule="evenodd" clip-rule="evenodd" d="M5.71289 10.9863C5.71289 12.9069 5.71289 14.8274 5.71289 16.748C3.93439 16.6134 2.99039 15.6531 2.88086 13.8672C2.915 12.7588 3.40328 11.9125 4.3457 11.3281C4.77496 11.1036 5.23069 10.9896 5.71289 10.9863Z" fill="#FFD944"/>
<path opacity="0.987" fill-rule="evenodd" clip-rule="evenodd" d="M44.0916 10.9863C44.0916 12.9069 44.0916 14.8274 44.0916 16.748C43.3541 16.7519 42.7031 16.524 42.1385 16.0645C41.7944 15.5714 41.5014 15.0505 41.2596 14.502C41.078 13.1243 41.5662 12.0663 42.7244 11.3281C43.1576 11.1222 43.6134 11.0082 44.0916 10.9863Z" fill="#FED944"/>
<path opacity="0.999" fill-rule="evenodd" clip-rule="evenodd" d="M44.0918 10.9863C45.8921 11.1102 46.8687 12.0704 47.0215 13.8672C46.8983 15.6994 45.9218 16.6597 44.0918 16.748C44.0918 14.8274 44.0918 12.9069 44.0918 10.9863Z" fill="#FFC10A"/>
<path fill-rule="evenodd" clip-rule="evenodd" d="M5.71289 10.9863C7.83353 11.1861 8.81009 12.358 8.64258 14.502C8.4008 15.0505 8.10783 15.5714 7.76367 16.0645C7.16629 16.5418 6.4827 16.7696 5.71289 16.748C5.71289 14.8274 5.71289 12.9069 5.71289 10.9863Z" fill="#FEC20B"/>
<path opacity="0.984" fill-rule="evenodd" clip-rule="evenodd" d="M24.6446 14.006C24.6132 15.9991 24.6457 17.9847 24.7422 19.9631C21.7949 20.1434 20.1998 21.7059 19.9571 24.6506C20.199 27.5942 21.794 29.1567 24.7422 29.3381C24.6457 31.3164 24.6132 33.302 24.6446 35.2951C24.285 35.3112 23.927 35.295 23.5703 35.2463C23.3099 34.6603 23.0495 34.0744 22.7891 33.4884C21.6492 33.2389 20.5913 32.7995 19.6153 32.1701C19.0314 32.4874 18.4291 32.7315 17.8086 32.9025C17.3026 32.4128 16.8143 31.9083 16.3438 31.3888C16.5916 30.8119 16.8521 30.2422 17.125 29.6798C16.4576 28.719 16.0182 27.6611 15.8067 26.506C15.2207 26.2456 14.6348 25.9852 14.0489 25.7248C13.9837 25.0087 13.9837 24.2924 14.0489 23.5763C14.6348 23.3159 15.2207 23.0555 15.8067 22.7951C16.0182 21.64 16.4576 20.5821 17.125 19.6213C16.8077 19.0374 16.5636 18.4351 16.3926 17.8146C16.8823 17.3086 17.3868 16.8203 17.9063 16.3498C18.4832 16.5976 19.053 16.8581 19.6153 17.131C20.5918 16.5015 21.6497 16.0621 22.7891 15.8127C23.0495 15.2267 23.3099 14.6408 23.5703 14.0548C23.927 14.0061 24.285 13.9899 24.6446 14.006Z" fill="#6193FE"/>
<path fill-rule="evenodd" clip-rule="evenodd" d="M24.951 14.3067C25.3106 14.2906 25.6686 14.3068 26.0252 14.3555C26.2857 14.9414 26.546 15.5274 26.8065 16.1133C27.9615 16.3248 29.0194 16.7643 29.9803 17.4317C30.5642 17.1144 31.1664 16.8703 31.7869 16.6993C32.293 17.189 32.7813 17.6935 33.2518 18.2129C33.0039 18.7899 32.7435 19.3596 32.4705 19.9219C33.1379 20.8828 33.5774 21.9407 33.7889 23.0957C34.3748 23.3562 34.9608 23.6165 35.5467 23.877C35.6118 24.5931 35.6118 25.3093 35.5467 26.0254C34.9608 26.2859 34.3748 26.5462 33.7889 26.8067C33.5774 27.9618 33.1379 29.0197 32.4705 29.9805C32.7878 30.5644 33.0319 31.1666 33.2029 31.7871C32.7132 32.2932 32.2087 32.7815 31.6893 33.252C31.1123 33.0041 30.5426 32.7437 29.9803 32.4707C29.0199 33.1379 27.9619 33.5774 26.8065 33.7891C26.546 34.375 26.2857 34.961 26.0252 35.5469C25.6686 35.5956 25.3106 35.6119 24.951 35.5957C24.9196 33.6027 24.9522 31.617 25.0486 29.6387C27.8939 29.3651 29.4238 27.8026 29.6385 24.9512C29.4229 22.0989 27.8929 20.5364 25.0486 20.2637C24.9522 18.2854 24.9196 16.2997 24.951 14.3067Z" fill="#6193FE"/>
<path opacity="0.953" fill-rule="evenodd" clip-rule="evenodd" d="M8.64258 14.502C10.3456 15.5331 12.0709 16.5422 13.8184 17.5293C14.2808 18.1442 14.1831 18.6488 13.5254 19.043C13.3626 19.1081 13.1999 19.1081 13.0371 19.043C11.2635 18.0643 9.50563 17.0714 7.76367 16.0645C8.10783 15.5714 8.4008 15.0505 8.64258 14.502Z" fill="#A79BA7"/>
<path opacity="0.954" fill-rule="evenodd" clip-rule="evenodd" d="M41.2595 14.502C41.5013 15.0505 41.7942 15.5714 42.1384 16.0645C40.3947 17.0741 38.6369 18.067 36.8649 19.043C36.0106 19.0782 35.6688 18.6714 35.8396 17.8223C35.9209 17.7246 36.0024 17.627 36.0837 17.5293C37.8312 16.5422 39.5565 15.5331 41.2595 14.502Z" fill="#A79BA7"/>
<path opacity="0.953" fill-rule="evenodd" clip-rule="evenodd" d="M8.64258 35.4004C8.40218 34.855 8.10921 34.3341 7.76367 33.8379C9.50563 32.831 11.2635 31.8381 13.0371 30.8594C13.8915 30.8242 14.2333 31.231 14.0625 32.0801C13.9812 32.1778 13.8997 32.2754 13.8184 32.3731C12.0709 33.3602 10.3456 34.3693 8.64258 35.4004Z" fill="#A79BA7"/>
<path opacity="0.951" fill-rule="evenodd" clip-rule="evenodd" d="M42.1384 33.9356C41.8034 34.3773 41.543 34.8656 41.3571 35.4004C39.4605 34.3793 37.6213 33.2725 35.8396 32.0801C35.6688 31.231 36.0106 30.8242 36.8649 30.8594C38.6646 31.8325 40.4224 32.8578 42.1384 33.9356Z" fill="#A79BA7"/>
<path opacity="0.979" fill-rule="evenodd" clip-rule="evenodd" d="M5.71234 33.1543C5.71234 35.0749 5.71234 36.9954 5.71234 38.916C3.52058 38.5708 2.6254 37.3013 3.02679 35.1074C3.49818 33.8708 4.39335 33.2197 5.71234 33.1543Z" fill="#FFD944"/>
<path opacity="0.983" fill-rule="evenodd" clip-rule="evenodd" d="M44.0912 33.1543C44.0912 35.0749 44.0912 36.9954 44.0912 38.916C42.6146 38.8525 41.6869 38.1039 41.308 36.6699C41.233 36.2383 41.2492 35.8151 41.3568 35.4004C41.5426 34.8655 41.8031 34.3772 42.138 33.9355C42.7 33.4595 43.351 33.1991 44.0912 33.1543Z" fill="#FED944"/>
<path opacity="0.999" fill-rule="evenodd" clip-rule="evenodd" d="M44.0918 33.1543C45.9468 33.2515 46.9233 34.228 47.0215 36.084C46.8743 37.8914 45.8978 38.8354 44.0918 38.916C44.0918 36.9954 44.0918 35.0749 44.0918 33.1543Z" fill="#FFC20C"/>
<path fill-rule="evenodd" clip-rule="evenodd" d="M5.71289 33.1544C6.4827 33.1328 7.16629 33.3606 7.76367 33.8379C8.10921 34.3341 8.40218 34.855 8.64258 35.4004C8.81013 37.5442 7.83356 38.7161 5.71289 38.9161C5.71289 36.9955 5.71289 35.075 5.71289 33.1544Z" fill="#FEC20C"/>
<path opacity="0.916" fill-rule="evenodd" clip-rule="evenodd" d="M25.8303 44.2871C25.5374 44.2871 25.2444 44.2871 24.9514 44.2871C24.6516 44.2742 24.3587 44.3067 24.0725 44.3847C24.0562 42.3337 24.0725 40.2829 24.1214 38.2324C24.3741 37.6161 24.8135 37.4371 25.4397 37.6953C25.6338 37.8241 25.7477 38.0031 25.7815 38.2324C25.8303 40.2504 25.8466 42.2686 25.8303 44.2871Z" fill="#A79BA6"/>
<path opacity="0.984" fill-rule="evenodd" clip-rule="evenodd" d="M24.9516 44.2872C24.9516 46.1752 24.9516 48.0632 24.9516 49.9512C24.6911 49.9512 24.4307 49.9512 24.1703 49.9512C22.191 49.0437 21.6214 47.5789 22.4613 45.5567C22.7055 45.1824 23.0147 44.8731 23.3891 44.629C23.599 44.4912 23.8269 44.4097 24.0726 44.3848C24.3588 44.3068 24.6517 44.2743 24.9516 44.2872Z" fill="#FED944"/>
<path fill-rule="evenodd" clip-rule="evenodd" d="M24.9512 44.2871C25.2441 44.2871 25.5371 44.2871 25.8301 44.2871C27.8213 45.2638 28.3259 46.7612 27.3438 48.7793C26.9233 49.3484 26.3862 49.7391 25.7324 49.9512C25.472 49.9512 25.2116 49.9512 24.9512 49.9512C24.9512 48.0632 24.9512 46.1751 24.9512 44.2871Z" fill="#FEC109"/>
</g>
<defs>
<clipPath id="clip0_14405_62666">
<rect width="50" height="50" fill="white"/>
</clipPath>
</defs>
</svg>
