<svg width="114" height="114" viewBox="0 0 114 114" fill="none" xmlns="http://www.w3.org/2000/svg">
<g id="did-we-mention_minimum-viable-product">
<g id="Group">
<path id="Vector" d="M70.2119 92.0616C70.2119 93.1384 69.3503 94 68.2732 94H17.9387C16.8616 94 16 93.1384 16 92.0616V45.1093C16 44.0324 16.8616 43.1709 17.9387 43.1709H68.345C69.4221 43.1709 70.2837 44.0324 70.2837 45.1093L70.2119 92.0616Z" fill="#0054A6"/>
<g id="Group_2">
<path id="Vector_2" d="M57.2889 86.1746C55.9246 87.4669 53.8423 87.4669 52.478 86.1028L51.6164 85.2413C51.5445 85.1695 51.5445 85.0977 51.6164 85.0977L57.2171 79.6415V79.5697V79.4979L51.6164 74.0417C51.5445 73.9699 51.5445 73.8981 51.6164 73.8981L52.478 73.0366C53.7705 71.6725 55.9246 71.6725 57.2889 72.9648L62.3151 77.8467C62.6023 78.1339 62.8178 78.421 62.8896 78.78C63.2486 79.7133 62.9614 80.6466 62.3151 81.2927L57.2889 86.1746Z" fill="#D2D9DC"/>
</g>
<path id="Vector_3" d="M46.4458 52.145H39.768C39.1218 52.145 38.6191 51.6424 38.6191 50.9963V43.1709H47.5946V50.9963C47.5946 51.6424 47.092 52.145 46.4458 52.145Z" fill="#FFDD33"/>
<g id="Group_3">
<g id="Group_4">
<path id="Vector_4" d="M26.4824 84.0926C25.7643 84.0926 25.2617 83.5183 25.2617 82.8721V74.5442C25.2617 73.8263 25.8362 73.3237 26.4824 73.3237C27.2004 73.3237 27.703 73.8981 27.703 74.5442V82.8721C27.703 83.5183 27.2004 84.0926 26.4824 84.0926Z" fill="#D2D9DC"/>
</g>
<g id="Group_5">
<path id="Vector_5" d="M22.9632 77.8478C22.676 77.8478 22.317 77.7042 22.1016 77.4887C21.599 76.9861 21.599 76.1963 22.1016 75.7654L25.62 72.3189C26.1226 71.8162 26.8406 71.8162 27.3433 72.3189L30.8617 75.7654C31.3643 76.2681 31.3643 77.0579 30.8617 77.4887C30.359 77.9914 29.5692 77.9914 29.1384 77.4887L26.4816 74.832L23.8249 77.4887C23.6095 77.776 23.2504 77.8478 22.9632 77.8478Z" fill="#D2D9DC"/>
</g>
</g>
<g id="Group_6">
<g id="Group_7">
<path id="Vector_6" d="M37.7558 84.0926C37.0378 84.0926 36.5352 83.5183 36.5352 82.8721V74.5442C36.5352 73.8263 37.1096 73.3237 37.7558 73.3237C38.4739 73.3237 38.9765 73.8981 38.9765 74.5442V82.8721C39.0483 83.5183 38.4739 84.0926 37.7558 84.0926Z" fill="#D2D9DC"/>
</g>
<g id="Group_8">
<path id="Vector_7" d="M41.3457 77.8478C41.0585 77.8478 40.6995 77.7042 40.4841 77.4887L37.8273 74.832L35.1706 77.4887C34.6679 77.9914 33.8781 77.9914 33.4473 77.4887C32.9447 76.9861 32.9447 76.1963 33.4473 75.7654L36.9657 72.3189C37.4683 71.8162 38.1863 71.8162 38.689 72.3189L42.2074 75.7654C42.71 76.2681 42.71 77.0579 42.2074 77.4887C41.9201 77.776 41.6329 77.8478 41.3457 77.8478Z" fill="#D2D9DC"/>
</g>
</g>
<path id="Vector_8" d="M54.9899 27.2331C54.7745 27.3049 54.6309 27.5203 54.6309 27.7356V31.1099C54.6309 44.2479 61.5958 56.309 73.0126 62.9139L76.0284 64.637C76.172 64.7087 76.3874 64.7087 76.6028 64.637L79.6186 62.9139C90.9636 56.3808 98.0004 44.2479 98.0004 31.1099V27.7356C98.0004 27.5203 97.8568 27.3049 97.6414 27.2331L76.4592 20.0538C76.3156 19.9821 76.2438 19.9821 76.1002 20.0538L54.9899 27.2331Z" fill="#54CC5A"/>
<path id="Vector_9" d="M75.3808 32.9048C75.7398 32.2586 76.6733 32.2586 77.0323 32.9048L79.33 36.7098C79.4736 36.9251 79.689 37.0687 79.9044 37.1405L84.2127 38.1456C84.9307 38.2892 85.2179 39.1507 84.7153 39.725L81.8431 43.0993C81.6995 43.3147 81.5559 43.53 81.6277 43.8172L81.9867 48.2683C82.0586 48.9863 81.3405 49.5606 80.6225 49.2734L76.5297 47.5504C76.3142 47.4786 76.027 47.4786 75.8116 47.5504L71.7188 49.2734C71.0726 49.5606 70.2827 49.0581 70.3545 48.2683L70.7135 43.8172C70.7135 43.53 70.6417 43.3147 70.4981 43.0993L67.626 39.725C67.1233 39.1507 67.4106 38.2892 68.1286 38.1456L72.4368 37.1405C72.724 37.0687 72.9395 36.9251 73.0113 36.7098L75.3808 32.9048Z" fill="#F9F6F6"/>
</g>
</g>
</svg>
