<svg width="64" height="64" viewBox="0 0 64 64" fill="none" xmlns="http://www.w3.org/2000/svg">
<g clip-path="url(#clip0_18225_54951)">
<path d="M57.9935 0H41.0257C36.0399 0 31.998 4.04187 31.998 9.02775C31.998 4.04187 27.9561 0 22.9702 0H6.0025C4.8275 0 3.875 0.9525 3.875 2.1275V35.0609L31.998 37.0552L60.121 35.0609V2.1275C60.121 0.9525 59.1685 0 57.9935 0Z" fill="#EAF9FA"/>
<path d="M22.9694 0H18.5703C23.5562 0 27.5979 4.04187 27.5979 9.02775V35.0609H31.9972V9.02775C31.9972 4.04187 27.9553 0 22.9694 0Z" fill="#DCF5F8"/>
<path d="M31.998 35.0608H3.875V37.643C3.875 38.818 4.8275 39.7705 6.0025 39.7705H29.2825C30.7821 39.7705 31.9979 38.5548 31.9979 37.0552V35.0608H31.998Z" fill="#59A4F9"/>
<path d="M60.1199 2.12737V35.061H55.721V2.12737C55.721 0.952875 54.7681 0 53.5938 0H57.9926C59.1683 0 60.1199 0.952875 60.1199 2.12737Z" fill="#DCF5F8"/>
<path d="M32 35.0608L55.7238 35.0609L60.123 37.643C60.123 38.818 59.1705 39.7705 57.9955 39.7705H34.7155C33.2159 39.7705 32.0001 38.5548 32.0001 37.0552V35.0608H32Z" fill="#59A4F9"/>
<path d="M60.12 35.0608V37.6427C60.12 38.8184 59.1684 39.77 57.9926 39.77H53.5938C54.7681 39.77 55.7211 38.8184 55.7211 37.6427V35.0608H60.12Z" fill="#4A92F9"/>
<path d="M34.7123 39.7702H30.3134C28.8132 39.7702 27.5977 38.5545 27.5977 37.0557V35.061H31.9964V37.0557C31.9964 38.5545 33.212 39.7702 34.7123 39.7702Z" fill="#FFD15B"/>
<path d="M49.9397 52.2984L47.6114 56.3303C46.8478 57.654 45.1557 58.1073 43.8319 57.3424L42.2107 56.4063C41.7446 56.1372 41.1624 56.1693 40.7286 56.49C39.8554 57.1339 38.9089 57.6838 37.9033 58.1242C37.4114 58.3405 37.0933 58.8273 37.0933 59.3643V61.234C37.0933 62.7613 35.8546 64 34.3273 64H29.6708C28.2994 64 27.1597 63.0008 26.9434 61.6899C26.9177 61.5418 26.9048 61.3899 26.9048 61.234V59.3643C26.9048 58.8273 26.5867 58.3405 26.0948 58.1242C25.0891 57.6838 24.1426 57.1339 23.2696 56.49C22.8356 56.1694 22.2536 56.1372 21.7874 56.4063L20.1662 57.3424C18.8424 58.1073 17.1503 57.654 16.3867 56.3303L14.0584 52.2984C13.2948 50.9747 13.7481 49.2825 15.0706 48.5189L16.6944 47.5814C17.1606 47.3123 17.4233 46.792 17.3628 46.2563C17.3023 45.7219 17.2713 45.1784 17.2713 44.6287C17.2713 44.0775 17.3022 43.534 17.3628 42.9997C17.4233 42.4639 17.1607 41.9438 16.6944 41.6745L15.0706 40.737C13.7481 39.9734 13.2948 38.2813 14.0584 36.9589L16.3867 32.9258C17.1503 31.6033 18.8424 31.15 20.1662 31.9137L21.7874 32.8498C22.2536 33.1189 22.8357 33.0868 23.2696 32.766C24.1427 32.1222 25.0892 31.5723 26.0948 31.1319C26.5867 30.9169 26.9048 30.4288 26.9048 29.8918V28.0233C26.9048 27.8674 26.9177 27.7155 26.9434 27.5662C29.7993 26.714 34.2229 28.9817 34.7149 29.1968C35.7207 29.6372 47.3038 41.6745 47.3038 41.6745C46.8377 41.9437 46.5749 42.4639 46.6354 42.9997C46.6959 43.534 46.7269 44.0775 46.7269 44.6287C46.7269 45.1785 46.6961 45.7219 46.6354 46.2563C46.5749 46.792 46.8376 47.3122 47.3038 47.5814L48.9276 48.5189C50.2501 49.2827 50.7033 50.9747 49.9397 52.2984Z" fill="#9FACBA"/>
<path d="M31.997 26.9237C31.4635 26.9237 31.0312 26.4913 31.0312 25.9579V17.1511C31.0312 16.6177 31.4636 16.1853 31.997 16.1853C32.5304 16.1853 32.9627 16.6177 32.9627 17.1511V25.9579C32.9627 26.4913 32.5305 26.9237 31.997 26.9237Z" fill="#9FACBA"/>
<path d="M37.0907 32.9657C36.5572 32.9657 36.125 32.5334 36.125 32V20.3461C36.125 19.8127 36.5574 19.3804 37.0907 19.3804H43.8304C44.3639 19.3804 44.7961 19.8127 44.7961 20.3461C44.7961 20.8795 44.3638 21.3119 43.8304 21.3119H38.0566V32C38.0565 32.5334 37.6241 32.9657 37.0907 32.9657Z" fill="#9FACBA"/>
<path d="M41.4111 34.2609C40.8776 34.2609 40.4453 33.8286 40.4453 33.2952V25.6977C40.4453 25.1643 40.8777 24.7319 41.4111 24.7319H50.6557C51.1892 24.7319 51.6214 25.1643 51.6214 25.6977C51.6214 26.2311 51.1891 26.6634 50.6557 26.6634H42.3768V33.2952C42.3768 33.8284 41.9446 34.2609 41.4111 34.2609Z" fill="#9FACBA"/>
<path d="M49.9377 52.2983L47.6094 56.3302C46.8458 57.654 45.1537 58.1072 43.8299 57.3424L42.2087 56.4062C41.7425 56.1371 41.1604 56.1692 40.7265 56.49C39.8534 57.1339 38.9069 57.6837 37.9013 58.1241C37.4094 58.3405 37.0913 58.8272 37.0913 59.3642V61.234C37.0913 62.7612 35.8525 64 34.3253 64H29.6688C28.2974 64 27.1577 63.0007 26.9414 61.6898L26.9427 61.6886C35.7455 60.9816 42.6697 53.6132 42.6697 44.6288C42.6697 35.6431 35.7455 28.276 26.9427 27.5677C26.9427 27.5677 26.9427 27.5665 26.9414 27.5665C27.1578 26.2556 28.2974 25.2563 29.6688 25.2563H34.3253C35.8525 25.2563 37.0913 26.4951 37.0913 28.0237V29.8922C37.0913 30.4292 37.4094 30.9172 37.9013 31.1323C38.907 31.5727 39.8534 32.1226 40.7265 32.7665C41.1605 33.0871 41.7425 33.1193 42.2087 32.8502L43.8299 31.9141C45.1537 31.1505 46.8458 31.6037 47.6094 32.9262L49.9377 36.9593C50.7013 38.2818 50.248 39.974 48.9255 40.7375L47.3018 41.675C46.8357 41.9441 46.5729 42.4643 46.6334 43.0001C46.6939 43.5345 46.7249 44.078 46.7249 44.6291C46.7249 45.179 46.694 45.7223 46.6334 46.2567C46.5729 46.7925 46.8355 47.3126 47.3018 47.5818L48.9255 48.5193C50.248 49.2826 50.7013 50.9746 49.9377 52.2983Z" fill="#8D9CA8"/>
<path d="M31.9961 18.5862C33.0554 18.5862 33.9141 17.7275 33.9141 16.6682C33.9141 15.609 33.0554 14.7502 31.9961 14.7502C30.9368 14.7502 30.0781 15.609 30.0781 16.6682C30.0781 17.7275 30.9368 18.5862 31.9961 18.5862Z" fill="#6BD9E7"/>
<path d="M44.7969 22.2642C45.8562 22.2642 46.7149 21.4055 46.7149 20.3462C46.7149 19.2869 45.8562 18.4282 44.7969 18.4282C43.7376 18.4282 42.8789 19.2869 42.8789 20.3462C42.8789 21.4055 43.7376 22.2642 44.7969 22.2642Z" fill="#6BD9E7"/>
<path d="M51.625 27.6155C52.6843 27.6155 53.543 26.7568 53.543 25.6975C53.543 24.6383 52.6843 23.7795 51.625 23.7795C50.5657 23.7795 49.707 24.6383 49.707 25.6975C49.707 26.7568 50.5657 27.6155 51.625 27.6155Z" fill="#6BD9E7"/>
<path d="M17.0587 7.08824H7.98919C7.45569 7.08824 7.02344 6.65586 7.02344 6.12249C7.02344 5.58911 7.45581 5.15674 7.98919 5.15674H17.0587C17.5922 5.15674 18.0244 5.58911 18.0244 6.12249C18.0244 6.65586 17.5921 7.08824 17.0587 7.08824Z" fill="#8D9CA8"/>
<path d="M26.1467 10.4613H7.98919C7.45569 10.4613 7.02344 10.0289 7.02344 9.49553C7.02344 8.96216 7.45581 8.52979 7.98919 8.52979H26.1468C26.6803 8.52979 27.1126 8.96216 27.1126 9.49553C27.1126 10.0289 26.6802 10.4613 26.1467 10.4613Z" fill="#8D9CA8"/>
<path d="M26.1467 13.8343H7.98919C7.45569 13.8343 7.02344 13.402 7.02344 12.8686C7.02344 12.3352 7.45581 11.9028 7.98919 11.9028H26.1468C26.6803 11.9028 27.1126 12.3352 27.1126 12.8686C27.1124 13.402 26.6802 13.8343 26.1467 13.8343Z" fill="#8D9CA8"/>
<path d="M26.1467 17.2071H7.98919C7.45569 17.2071 7.02344 16.7748 7.02344 16.2414C7.02344 15.708 7.45581 15.2756 7.98919 15.2756H26.1468C26.6803 15.2756 27.1126 15.708 27.1126 16.2414C27.1126 16.7748 26.6802 17.2071 26.1467 17.2071Z" fill="#8D9CA8"/>
<path d="M26.1467 20.5802H7.98919C7.45569 20.5802 7.02344 20.1478 7.02344 19.6144C7.02344 19.0811 7.45581 18.6487 7.98919 18.6487H26.1468C26.6803 18.6487 27.1126 19.0811 27.1126 19.6144C27.1126 20.1478 26.6802 20.5802 26.1467 20.5802Z" fill="#8D9CA8"/>
<path d="M43.9655 10.9877H43.0349V10.0571C43.0349 9.52368 42.6025 9.09131 42.0692 9.09131C41.5358 9.09131 41.1034 9.52368 41.1034 10.0571V10.9877H40.1728C39.6393 10.9877 39.207 11.4201 39.207 11.9534C39.207 12.4868 39.6394 12.9192 40.1728 12.9192H41.1034V13.8498C41.1034 14.3832 41.5358 14.8156 42.0692 14.8156C42.6025 14.8156 43.0349 14.3832 43.0349 13.8498V12.9192H43.9655C44.499 12.9192 44.9313 12.4868 44.9313 11.9534C44.9314 11.4201 44.499 10.9877 43.9655 10.9877Z" fill="#6BD9E7"/>
<path d="M41.5111 44.6565C41.5111 54.799 30.5977 55.3817 29.7972 55.4211C24.7843 54.4022 21.0117 49.9701 21.0117 44.6565C21.0117 39.3478 24.7915 34.9162 29.7972 33.8918L31.997 34.0626C31.997 34.0626 41.5111 38.5896 41.5111 44.6565Z" fill="#FFE177"/>
<path d="M31.9966 33.6714C31.2433 33.6714 30.5076 33.7475 29.7969 33.892C34.8096 34.9109 38.5824 39.343 38.5824 44.6566C38.5824 49.9703 34.8096 54.4023 29.7969 55.4213C30.5076 55.5658 31.2433 55.6419 31.9966 55.6419C38.0636 55.6419 42.9819 50.7236 42.9819 44.6566C42.9819 38.5896 38.0636 33.6714 31.9966 33.6714Z" fill="#FFD15B"/>
<path d="M30.3407 41.926C29.8072 41.926 29.375 41.4937 29.375 40.9603V38.2294C29.375 37.696 29.8074 37.2637 30.3407 37.2637C30.8742 37.2637 31.3065 37.696 31.3065 38.2294V40.9603C31.3066 41.4937 30.8742 41.926 30.3407 41.926Z" fill="#9FACBA"/>
<path d="M33.6572 41.926C33.1237 41.926 32.6914 41.4937 32.6914 40.9603V38.2294C32.6914 37.696 33.1238 37.2637 33.6572 37.2637C34.1905 37.2637 34.6229 37.696 34.6229 38.2294V40.9603C34.623 41.4937 34.1907 41.926 33.6572 41.926Z" fill="#9FACBA"/>
<path d="M30.3407 52.0493C29.8072 52.0493 29.375 51.617 29.375 51.0836V48.3527C29.375 47.8193 29.8074 47.387 30.3407 47.387C30.8742 47.387 31.3065 47.8193 31.3065 48.3527V51.0836C31.3066 51.617 30.8742 52.0493 30.3407 52.0493Z" fill="#9FACBA"/>
<path d="M33.6572 52.0493C33.1237 52.0493 32.6914 51.617 32.6914 51.0836V48.3527C32.6914 47.8193 33.1238 47.387 33.6572 47.387C34.1905 47.387 34.6229 47.8193 34.6229 48.3527V51.0836C34.623 51.617 34.1907 52.0493 33.6572 52.0493Z" fill="#9FACBA"/>
<path d="M39.392 42.9992C39.392 43.4859 39.0327 43.8877 38.564 43.9547C38.5188 43.9612 38.4726 43.9649 38.4262 43.9649H35.6962C35.1631 43.9649 34.7305 43.5323 34.7305 42.9992C34.7305 42.4661 35.1631 42.0334 35.6962 42.0334H38.4262C38.9606 42.0334 39.392 42.4661 39.392 42.9992Z" fill="#9FACBA"/>
<path d="M39.392 46.3139C39.392 46.847 38.9606 47.2796 38.4262 47.2796H35.6962C35.1631 47.2796 34.7305 46.847 34.7305 46.3139C34.7305 45.7808 35.1631 45.3481 35.6962 45.3481H38.4262C38.4726 45.3481 38.519 45.352 38.564 45.3584C39.0327 45.4254 39.392 45.8271 39.392 46.3139Z" fill="#9FACBA"/>
<path d="M28.3021 43.9647H25.5712C25.0377 43.9647 24.6055 43.5323 24.6055 42.999C24.6055 42.4656 25.0378 42.0332 25.5712 42.0332H28.3021C28.8356 42.0332 29.2678 42.4656 29.2678 42.999C29.268 43.5323 28.8356 43.9647 28.3021 43.9647Z" fill="#9FACBA"/>
<path d="M28.3021 47.2796H25.5712C25.0377 47.2796 24.6055 46.8473 24.6055 46.3139C24.6055 45.7805 25.0378 45.3481 25.5712 45.3481H28.3021C28.8356 45.3481 29.2678 45.7805 29.2678 46.3139C29.2678 46.8473 28.8356 47.2796 28.3021 47.2796Z" fill="#9FACBA"/>
<path d="M39.3912 46.3139C39.3912 46.847 38.9598 47.2796 38.4254 47.2796H38.2695C38.4215 46.6576 38.5219 46.0164 38.5632 45.3584C39.0319 45.4254 39.3912 45.8271 39.3912 46.3139Z" fill="#8D9CA8"/>
<path d="M38.5632 43.9547C38.5219 43.2967 38.4215 42.6553 38.2695 42.0334H38.4254C38.9598 42.0334 39.3912 42.4661 39.3912 42.9992C39.3912 43.4859 39.0319 43.8877 38.5632 43.9547Z" fill="#8D9CA8"/>
<path d="M31.3054 48.3527H29.4047C28.795 48.3527 28.3008 47.8585 28.3008 47.2488V42.0641C28.3008 41.4545 28.795 40.9602 29.4047 40.9602H31.3054C31.915 40.9602 33.6545 41.4545 33.6545 42.0641V47.2488C33.6544 47.8586 31.915 48.3527 31.3054 48.3527Z" fill="#6BD9E7"/>
<path d="M34.5908 40.9602H31.2344C31.844 40.9602 32.3382 41.4545 32.3382 42.0641V47.2488C32.3382 47.8585 31.844 48.3527 31.2344 48.3527H34.5908C35.2004 48.3527 35.6946 47.8586 35.6946 47.2488V42.0641C35.6946 41.4543 35.2004 40.9602 34.5908 40.9602Z" fill="#2ED1E2"/>
</g>
<defs>
<clipPath id="clip0_18225_54951">
<rect width="64" height="64" fill="white"/>
</clipPath>
</defs>
</svg>
