<svg width="420" height="332" viewBox="0 0 420 332" fill="none" xmlns="http://www.w3.org/2000/svg">
<path d="M114 211.8C116.1 209.4 117.8 206.7 119.2 203.8L129.8 202.2L131.6 192L122.3 186.5C122.1 183.5 121.4 180.6 120.4 177.7L127.2 168.7L121.3 160.2L110.1 163C108.1 161.3 106 159.9 103.7 158.8L101.4 146.7L91.1 145.3L85.9 155.1C83 155.3 80.1 155.8 77.3 156.8L67.4 149.8L59 156L62.2 166.9C60.4 168.9 59 171.1 57.8 173.4L45.5 175.6L44 185.9L53.9 191.3C54.1 194.3 54.6 197.2 55.5 200L48.7 209.5L54.8 217.9L65.4 215C67.8 217.1 70.3 218.8 73 220.1L74.8 231.1L85.1 232.7L90.2 223.6C93.4 223.4 96.6 222.8 99.6 221.7L108.1 228L116.6 222L114 211.8ZM78.8 198.3C73.9 193.2 74 185 79.2 180.1C84.3 175.2 92.5 175.3 97.4 180.5C102.3 185.6 102.2 193.8 97 198.7C91.8 203.6 83.7 203.4 78.8 198.3Z" fill="#839299"/>
<path d="M159.097 242.9C160.297 241.5 161.397 239.9 162.097 238.2L168.397 237.3L169.397 231.3L163.897 228.1C163.797 226.4 163.397 224.6 162.797 222.9L166.797 217.6L163.297 212.6L156.697 214.3C155.497 213.3 154.297 212.5 152.897 211.8L151.497 204.7L145.397 203.9L142.297 209.7C140.597 209.8 138.897 210.1 137.297 210.7L131.497 206.6L126.597 210.2L128.497 216.6C127.497 217.8 126.597 219.1 125.897 220.4L118.697 221.7L117.797 227.7L123.597 230.9C123.697 232.6 123.997 234.4 124.597 236L120.597 241.6L124.197 246.6L130.397 244.9C131.797 246.1 133.297 247.1 134.897 247.9L135.997 254.4L141.997 255.3L144.997 249.9C146.897 249.8 148.797 249.4 150.497 248.8L155.497 252.5L160.497 249L159.097 242.9ZM138.397 235C135.497 232 135.597 227.2 138.597 224.3C141.597 221.4 146.397 221.5 149.297 224.5C152.197 227.5 152.097 232.3 149.097 235.2C146.097 238.1 141.297 238 138.397 235Z" fill="#D2D9DC"/>
<path d="M251.302 197H106.402C105.102 197 104.102 196 104.102 194.7V79.1C104.102 77.8 105.102 76.8 106.402 76.8H251.302C252.602 76.8 253.602 77.8 253.602 79.1V194.7C253.602 196 252.602 197 251.302 197Z" fill="#002548"/>
<path d="M113.998 80.9C113.098 80.9 112.398 81.6 112.398 82.5C112.398 83.4 113.098 84.1 113.998 84.1C114.898 84.1 115.598 83.4 115.598 82.5C115.598 81.6 114.898 80.9 113.998 80.9Z" fill="#ED1C24"/>
<path d="M120.6 80.9C119.7 80.9 119 81.6 119 82.5C119 83.4 119.7 84.1 120.6 84.1C121.5 84.1 122.2 83.4 122.2 82.5C122.2 81.6 121.5 80.9 120.6 80.9Z" fill="#FFDD33"/>
<path d="M127.202 80.9C126.302 80.9 125.602 81.6 125.602 82.5C125.602 83.4 126.302 84.1 127.202 84.1C128.102 84.1 128.802 83.4 128.802 82.5C128.802 81.6 128.102 80.9 127.202 80.9Z" fill="#54CC5A"/>
<path d="M138.897 144.7C138.897 144.1 138.397 143.7 137.797 143.7H115.897C115.297 143.7 114.797 144.2 114.797 144.8C114.797 145.4 115.297 145.8 115.897 145.8H137.797C138.397 145.8 138.897 145.3 138.897 144.7Z" fill="#54CC5A"/>
<path d="M162.803 138.5C162.803 137.9 162.303 137.5 161.703 137.5H147.303C146.703 137.5 146.203 138 146.203 138.6C146.203 139.2 146.703 139.6 147.303 139.6H161.703C162.303 139.6 162.803 139.1 162.803 138.5Z" fill="#54CC5A"/>
<path d="M169.702 125.6C169.702 125 169.202 124.6 168.602 124.6H146.702C146.102 124.6 145.602 125.1 145.602 125.7C145.602 126.3 146.102 126.7 146.702 126.7H168.602C169.202 126.7 169.702 126.2 169.702 125.6Z" fill="white"/>
<path d="M167.097 138.5C167.097 137.9 166.597 137.5 165.997 137.5H164.897C164.297 137.5 163.797 138 163.797 138.6C163.797 139.2 164.297 139.6 164.897 139.6H165.997C166.697 139.6 167.097 139.1 167.097 138.5Z" fill="#54CC5A"/>
<path d="M162.6 119.4C162.6 118.8 162.1 118.4 161.5 118.4H147.1C146.5 118.4 146 118.9 146 119.5C146 120.1 146.5 120.5 147.1 120.5H161.5C162.1 120.5 162.6 120 162.6 119.4Z" fill="#54CC5A"/>
<path d="M167.003 119.4C167.003 118.8 166.503 118.4 165.903 118.4H164.803C164.203 118.4 163.703 118.9 163.703 119.5C163.703 120.1 164.203 120.5 164.803 120.5H165.903C166.503 120.5 167.003 120 167.003 119.4Z" fill="#54CC5A"/>
<path d="M243 132C243 131.4 242.5 131 241.9 131H215.6C215 131 214.5 131.5 214.5 132.1C214.5 132.7 215 133.1 215.6 133.1H241.9C242.5 133.1 243 132.6 243 132Z" fill="#54CC5A"/>
<path d="M238.202 125.6C238.202 125 237.702 124.6 237.102 124.6H215.202C214.602 124.6 214.102 125.1 214.102 125.7C214.102 126.3 214.602 126.7 215.202 126.7H237.102C237.702 126.7 238.202 126.2 238.202 125.6Z" fill="white"/>
<path d="M207.202 163.9C207.202 163.3 206.702 162.9 206.102 162.9H184.202C183.602 162.9 183.102 163.4 183.102 164C183.102 164.6 183.602 165 184.202 165H206.102C206.702 165 207.202 164.5 207.202 163.9Z" fill="#54CC5A"/>
<path d="M243 170.3C243 169.7 242.5 169.3 241.9 169.3H215.6C215 169.3 214.5 169.8 214.5 170.4C214.5 171 215 171.4 215.6 171.4H241.9C242.5 171.4 243 170.9 243 170.3Z" fill="#54CC5A"/>
<path d="M238.202 163.9C238.202 163.3 237.702 162.9 237.102 162.9H215.202C214.602 162.9 214.102 163.4 214.102 164C214.102 164.6 214.602 165 215.202 165H237.102C237.702 165 238.202 164.5 238.202 163.9Z" fill="#54CC5A"/>
<path d="M131.1 157.6C131.1 157 130.6 156.6 130 156.6H115.6C115 156.6 114.5 157.1 114.5 157.7C114.5 158.3 115 158.7 115.6 158.7H130C130.6 158.7 131.1 158.2 131.1 157.6Z" fill="#D2D9DC"/>
<path d="M143 151.1C143 150.5 142.5 150.1 141.9 150.1H115.6C115 150.1 114.5 150.6 114.5 151.2C114.5 151.8 115 152.2 115.6 152.2H142C142.6 152.2 143.1 151.7 143 151.1Z" fill="#D2D9DC"/>
<path d="M136.3 157.6C136.3 157 135.8 156.6 135.2 156.6H134.1C133.5 156.6 133 157.1 133 157.7C133 158.3 133.5 158.7 134.1 158.7H135.2C135.8 158.7 136.3 158.2 136.3 157.6Z" fill="#D2D9DC"/>
<path d="M162.1 157.6C162.1 157 161.6 156.6 161 156.6H146.6C146 156.6 145.5 157.1 145.5 157.7C145.5 158.3 146 158.7 146.6 158.7H161C161.6 158.7 162.1 158.2 162.1 157.6Z" fill="#D2D9DC"/>
<path d="M174 151.1C174 150.5 173.5 150.1 172.9 150.1H146.6C146 150.1 145.5 150.6 145.5 151.2C145.5 151.8 146 152.2 146.6 152.2H173C173.6 152.2 174 151.7 174 151.1Z" fill="#D2D9DC"/>
<path d="M169.6 144.7C169.6 144.1 169.1 143.7 168.5 143.7H146.6C146 143.7 145.5 144.2 145.5 144.8C145.5 145.4 146 145.8 146.6 145.8H168.5C169.1 145.8 169.6 145.3 169.6 144.7Z" fill="#D2D9DC"/>
<path d="M167.3 157.6C167.3 157 166.8 156.6 166.2 156.6H165.1C164.5 156.6 164 157.1 164 157.7C164 158.3 164.5 158.7 165.1 158.7H166.2C166.8 158.7 167.3 158.2 167.3 157.6Z" fill="#D2D9DC"/>
<path d="M131.1 138.5C131.1 137.9 130.6 137.5 130 137.5H115.6C115 137.5 114.5 138 114.5 138.6C114.5 139.2 115 139.6 115.6 139.6H130C130.6 139.6 131.1 139.1 131.1 138.5Z" fill="#D2D9DC"/>
<path d="M143 132C143 131.4 142.5 131 141.9 131H115.6C115 131 114.5 131.5 114.5 132.1C114.5 132.7 115 133.1 115.6 133.1H142C142.6 133.1 143.1 132.6 143 132Z" fill="#D2D9DC"/>
<path d="M138.6 125.6C138.6 125 138.1 124.6 137.5 124.6H115.6C115 124.6 114.5 125.1 114.5 125.7C114.5 126.3 115 126.7 115.6 126.7H137.5C138.1 126.7 138.6 126.2 138.6 125.6Z" fill="#D2D9DC"/>
<path d="M136.097 138.5C136.097 137.9 135.597 137.5 134.997 137.5H133.897C133.297 137.5 132.797 138 132.797 138.6C132.797 139.2 133.297 139.6 133.897 139.6H134.997C135.697 139.6 136.097 139.1 136.097 138.5Z" fill="#D2D9DC"/>
<path d="M174 132C174 131.4 173.5 131 172.9 131H146.6C146 131 145.5 131.5 145.5 132.1C145.5 132.7 146 133.1 146.6 133.1H173C173.6 133.1 174 132.6 174 132Z" fill="#D2D9DC"/>
<path d="M131.1 119.4C131.1 118.8 130.6 118.4 130 118.4H115.6C115 118.4 114.5 118.9 114.5 119.5C114.5 120.1 115 120.5 115.6 120.5H130C130.6 120.5 131.1 120 131.1 119.4Z" fill="#D2D9DC"/>
<path d="M143 112.9C143 112.3 142.5 111.9 141.9 111.9H115.6C115 111.9 114.5 112.4 114.5 113C114.5 113.6 115 114 115.6 114H142C142.6 114 143.1 113.5 143 112.9Z" fill="#D2D9DC"/>
<path d="M138.6 106.5C138.6 105.9 138.1 105.5 137.5 105.5H115.6C115 105.5 114.5 106 114.5 106.6C114.5 107.2 115 107.6 115.6 107.6H137.5C138.1 107.6 138.6 107.1 138.6 106.5Z" fill="#D2D9DC"/>
<path d="M136.003 119.4C136.003 118.8 135.503 118.4 134.903 118.4H133.803C133.203 118.4 132.703 118.9 132.703 119.5C132.703 120.1 133.203 120.5 133.803 120.5H134.903C135.503 120.5 136.003 120 136.003 119.4Z" fill="#D2D9DC"/>
<path d="M174 112.9C174 112.3 173.5 111.9 172.9 111.9H146.6C146 111.9 145.5 112.4 145.5 113C145.5 113.6 146 114 146.6 114H173C173.6 114 174 113.5 174 112.9Z" fill="#D2D9DC"/>
<path d="M169.6 106.5C169.6 105.9 169.1 105.5 168.5 105.5H146.6C146 105.5 145.5 106 145.5 106.6C145.5 107.2 146 107.6 146.6 107.6H168.5C169.1 107.6 169.6 107.1 169.6 106.5Z" fill="#D2D9DC"/>
<path d="M131.1 100.3C131.1 99.7 130.6 99.3 130 99.3H115.6C115 99.3 114.5 99.8 114.5 100.4C114.5 101 115 101.4 115.6 101.4H130C130.6 101.4 131.1 100.9 131.1 100.3Z" fill="#D2D9DC"/>
<path d="M135.8 100.3C135.8 99.7 135.3 99.3 134.7 99.3H133.6C133 99.3 132.5 99.8 132.5 100.4C132.5 101 133 101.4 133.6 101.4H134.7C135.4 101.4 135.8 100.9 135.8 100.3Z" fill="#D2D9DC"/>
<path d="M162.1 100.3C162.1 99.7 161.6 99.3 161 99.3H146.6C146 99.3 145.5 99.8 145.5 100.4C145.5 101 146 101.4 146.6 101.4H161C161.6 101.4 162.1 100.9 162.1 100.3Z" fill="#D2D9DC"/>
<path d="M166.8 100.3C166.8 99.7 166.3 99.3 165.7 99.3H164.6C164 99.3 163.5 99.8 163.5 100.4C163.5 101 164 101.4 164.6 101.4H165.7C166.3 101.4 166.8 100.9 166.8 100.3Z" fill="#D2D9DC"/>
<path d="M199.6 157.6C199.6 157 199.1 156.6 198.5 156.6H184.1C183.5 156.6 183 157.1 183 157.7C183 158.3 183.5 158.7 184.1 158.7H198.5C199.1 158.7 199.6 158.2 199.6 157.6Z" fill="#D2D9DC"/>
<path d="M211.5 151.1C211.5 150.5 211 150.1 210.4 150.1H184.1C183.5 150.1 183 150.6 183 151.2C183 151.8 183.5 152.2 184.1 152.2H210.4C211.1 152.2 211.6 151.7 211.5 151.1Z" fill="#D2D9DC"/>
<path d="M207.1 144.7C207.1 144.1 206.6 143.7 206 143.7H184.1C183.5 143.7 183 144.2 183 144.8C183 145.4 183.5 145.8 184.1 145.8H206C206.6 145.8 207.1 145.3 207.1 144.7Z" fill="#D2D9DC"/>
<path d="M204.8 157.6C204.8 157 204.3 156.6 203.7 156.6H202.6C202 156.6 201.5 157.1 201.5 157.7C201.5 158.3 202 158.7 202.6 158.7H203.7C204.3 158.7 204.8 158.2 204.8 157.6Z" fill="#D2D9DC"/>
<path d="M230.6 157.6C230.6 157 230.1 156.6 229.5 156.6H215.1C214.5 156.6 214 157.1 214 157.7C214 158.3 214.5 158.7 215.1 158.7H229.5C230.1 158.7 230.6 158.2 230.6 157.6Z" fill="#D2D9DC"/>
<path d="M242.5 151.1C242.5 150.5 242 150.1 241.4 150.1H215.1C214.5 150.1 214 150.6 214 151.2C214 151.8 214.5 152.2 215.1 152.2H241.4C242.1 152.2 242.5 151.7 242.5 151.1Z" fill="#D2D9DC"/>
<path d="M238.1 144.7C238.1 144.1 237.6 143.7 237 143.7H215.1C214.5 143.7 214 144.2 214 144.8C214 145.4 214.5 145.8 215.1 145.8H237C237.6 145.8 238.1 145.3 238.1 144.7Z" fill="#D2D9DC"/>
<path d="M235.8 157.6C235.8 157 235.3 156.6 234.7 156.6H233.6C233 156.6 232.5 157.1 232.5 157.7C232.5 158.3 233 158.7 233.6 158.7H234.7C235.3 158.7 235.8 158.2 235.8 157.6Z" fill="#D2D9DC"/>
<path d="M199.6 138.5C199.6 137.9 199.1 137.5 198.5 137.5H184.1C183.5 137.5 183 138 183 138.6C183 139.2 183.5 139.6 184.1 139.6H198.5C199.1 139.6 199.6 139.1 199.6 138.5Z" fill="#D2D9DC"/>
<path d="M211.5 132C211.5 131.4 211 131 210.4 131H184.1C183.5 131 183 131.5 183 132.1C183 132.7 183.5 133.1 184.1 133.1H210.4C211.1 133.1 211.6 132.6 211.5 132Z" fill="#D2D9DC"/>
<path d="M207.1 125.6C207.1 125 206.6 124.6 206 124.6H184.1C183.5 124.6 183 125.1 183 125.7C183 126.3 183.5 126.7 184.1 126.7H206C206.6 126.7 207.1 126.2 207.1 125.6Z" fill="#D2D9DC"/>
<path d="M204.597 138.5C204.597 137.9 204.097 137.5 203.497 137.5H202.397C201.797 137.5 201.297 138 201.297 138.6C201.297 139.2 201.797 139.6 202.397 139.6H203.497C204.197 139.6 204.597 139.1 204.597 138.5Z" fill="#D2D9DC"/>
<path d="M230.6 138.5C230.6 137.9 230.1 137.5 229.5 137.5H215.1C214.5 137.5 214 138 214 138.6C214 139.2 214.5 139.6 215.1 139.6H229.5C230.1 139.6 230.6 139.1 230.6 138.5Z" fill="#D2D9DC"/>
<path d="M235.597 138.5C235.597 137.9 235.097 137.5 234.497 137.5H233.397C232.797 137.5 232.297 138 232.297 138.6C232.297 139.2 232.797 139.6 233.397 139.6H234.497C235.197 139.6 235.597 139.1 235.597 138.5Z" fill="#D2D9DC"/>
<path d="M199.6 119.4C199.6 118.8 199.1 118.4 198.5 118.4H184.1C183.5 118.4 183 118.9 183 119.5C183 120.1 183.5 120.5 184.1 120.5H198.5C199.1 120.5 199.6 120 199.6 119.4Z" fill="#D2D9DC"/>
<path d="M211.5 112.9C211.5 112.3 211 111.9 210.4 111.9H184.1C183.5 111.9 183 112.4 183 113C183 113.6 183.5 114 184.1 114H210.4C211.1 114 211.6 113.5 211.5 112.9Z" fill="#D2D9DC"/>
<path d="M207.1 106.5C207.1 105.9 206.6 105.5 206 105.5H184.1C183.5 105.5 183 106 183 106.6C183 107.2 183.5 107.6 184.1 107.6H206C206.6 107.6 207.1 107.1 207.1 106.5Z" fill="#D2D9DC"/>
<path d="M204.503 119.4C204.503 118.8 204.003 118.4 203.403 118.4H202.303C201.703 118.4 201.203 118.9 201.203 119.5C201.203 120.1 201.703 120.5 202.303 120.5H203.403C204.003 120.5 204.503 120 204.503 119.4Z" fill="#D2D9DC"/>
<path d="M230.6 119.4C230.6 118.8 230.1 118.4 229.5 118.4H215.1C214.5 118.4 214 118.9 214 119.5C214 120.1 214.5 120.5 215.1 120.5H229.5C230.1 120.5 230.6 120 230.6 119.4Z" fill="#D2D9DC"/>
<path d="M242.5 112.9C242.5 112.3 242 111.9 241.4 111.9H215.1C214.5 111.9 214 112.4 214 113C214 113.6 214.5 114 215.1 114H241.4C242.1 114 242.5 113.5 242.5 112.9Z" fill="#D2D9DC"/>
<path d="M238.1 106.5C238.1 105.9 237.6 105.5 237 105.5H215.1C214.5 105.5 214 106 214 106.6C214 107.2 214.5 107.6 215.1 107.6H237C237.6 107.6 238.1 107.1 238.1 106.5Z" fill="#D2D9DC"/>
<path d="M235.503 119.4C235.503 118.8 235.003 118.4 234.403 118.4H233.303C232.703 118.4 232.203 118.9 232.203 119.5C232.203 120.1 232.703 120.5 233.303 120.5H234.403C235.003 120.5 235.503 120 235.503 119.4Z" fill="#D2D9DC"/>
<path d="M207.1 183C207.1 182.4 206.6 182 206 182H184.1C183.5 182 183 182.5 183 183.1C183 183.7 183.5 184.1 184.1 184.1H206C206.6 184.1 207.1 183.6 207.1 183Z" fill="#D2D9DC"/>
<path d="M238.1 183C238.1 182.4 237.6 182 237 182H215.1C214.5 182 214 182.5 214 183.1C214 183.7 214.5 184.1 215.1 184.1H237C237.6 184.1 238.1 183.6 238.1 183Z" fill="#D2D9DC"/>
<path d="M199.6 176.8C199.6 176.2 199.1 175.8 198.5 175.8H184.1C183.5 175.8 183 176.3 183 176.9C183 177.5 183.5 177.9 184.1 177.9H198.5C199.1 177.9 199.6 177.4 199.6 176.8Z" fill="#D2D9DC"/>
<path d="M211.5 170.3C211.5 169.7 211 169.3 210.4 169.3H184.1C183.5 169.3 183 169.8 183 170.4C183 171 183.5 171.4 184.1 171.4H210.4C211.1 171.4 211.6 170.9 211.5 170.3Z" fill="#D2D9DC"/>
<path d="M204.597 176.8C204.597 176.2 204.097 175.8 203.497 175.8H202.397C201.797 175.8 201.297 176.3 201.297 176.9C201.297 177.5 201.797 177.9 202.397 177.9H203.497C204.197 177.9 204.597 177.4 204.597 176.8Z" fill="#D2D9DC"/>
<path d="M230.6 176.8C230.6 176.2 230.1 175.8 229.5 175.8H215.1C214.5 175.8 214 176.3 214 176.9C214 177.5 214.5 177.9 215.1 177.9H229.5C230.1 177.9 230.6 177.4 230.6 176.8Z" fill="#D2D9DC"/>
<path d="M235.597 176.8C235.597 176.2 235.097 175.8 234.497 175.8H233.397C232.797 175.8 232.297 176.3 232.297 176.9C232.297 177.5 232.797 177.9 233.397 177.9H234.497C235.197 177.9 235.597 177.4 235.597 176.8Z" fill="#D2D9DC"/>
<path d="M199.6 100.3C199.6 99.7 199.1 99.3 198.5 99.3H184.1C183.5 99.3 183 99.8 183 100.4C183 101 183.5 101.4 184.1 101.4H198.5C199.1 101.4 199.6 100.9 199.6 100.3Z" fill="#D2D9DC"/>
<path d="M204.3 100.3C204.3 99.7 203.8 99.3 203.2 99.3H202.1C201.5 99.3 201 99.8 201 100.4C201 101 201.5 101.4 202.1 101.4H203.2C203.9 101.4 204.3 100.9 204.3 100.3Z" fill="#D2D9DC"/>
<path d="M230.6 100.3C230.6 99.7 230.1 99.3 229.5 99.3H215.1C214.5 99.3 214 99.8 214 100.4C214 101 214.5 101.4 215.1 101.4H229.5C230.1 101.4 230.6 100.9 230.6 100.3Z" fill="#D2D9DC"/>
<path d="M235.3 100.3C235.3 99.7 234.8 99.3 234.2 99.3H233.1C232.5 99.3 232 99.8 232 100.4C232 101 232.5 101.4 233.1 101.4H234.2C234.8 101.4 235.3 100.9 235.3 100.3Z" fill="#D2D9DC"/>
<path d="M300.797 116V236.1C300.797 241.1 296.697 245.2 291.697 245.2H267.697H237.397C235.397 245.1 233.597 244.3 232.197 243.2C230.097 241.5 228.797 239 228.797 236.1V116C228.797 111 232.897 106.9 237.897 106.9H291.697C296.697 106.8 300.797 110.9 300.797 116Z" fill="#002548"/>
<path d="M298.695 116V236.1C298.695 240 295.495 243.2 291.595 243.2H237.795C233.895 243.2 230.695 240 230.695 236.1V116C230.695 112.1 233.895 108.9 237.795 108.9H291.595C295.595 108.9 298.695 112.1 298.695 116Z" fill="#D2D9DC"/>
<path d="M273.195 110.1H256.395C255.995 110.1 255.695 110.4 255.695 110.8C255.695 111.2 255.995 111.5 256.395 111.5H273.195C273.595 111.5 273.895 111.2 273.895 110.8C273.895 110.4 273.595 110.1 273.195 110.1Z" fill="#002548"/>
<path d="M239.146 115.131L236.883 117.394L237.166 117.677L239.428 115.414L239.146 115.131Z" fill="#002548"/>
<path d="M237.236 115.202L236.953 115.485L239.216 117.747L239.499 117.464L237.236 115.202Z" fill="#002548"/>
<path d="M292.397 117H288.797V117.4H292.397V117Z" fill="#002548"/>
<path fill-rule="evenodd" clip-rule="evenodd" d="M235.195 126.1V236.7C235.195 238 236.195 239.1 237.495 239.1H291.895C293.195 239.1 294.195 238 294.195 236.7V126.1H235.195Z" fill="#F9FAFB"/>
<path fill-rule="evenodd" clip-rule="evenodd" d="M241.994 169.1H257.994C258.494 169.1 258.894 169.5 258.894 170C258.894 170.5 258.494 170.9 257.994 170.9H241.994C241.494 170.9 241.094 170.5 241.094 170C241.194 169.5 241.594 169.1 241.994 169.1ZM241.994 179.8H273.294C273.794 179.8 274.194 180.2 274.194 180.7C274.194 181.2 273.794 181.6 273.294 181.6H241.994C241.494 181.6 241.094 181.2 241.094 180.7C241.194 180.1 241.594 179.8 241.994 179.8ZM261.894 176.2H286.894C287.394 176.2 287.794 176.6 287.794 177.1C287.794 177.6 287.394 178 286.894 178H261.894C261.394 178 260.994 177.6 260.994 177.1C261.094 176.6 261.494 176.2 261.894 176.2ZM241.994 176.2H257.994C258.494 176.2 258.894 176.6 258.894 177.1C258.894 177.6 258.494 178 257.994 178H241.994C241.494 178 241.094 177.6 241.094 177.1C241.194 176.6 241.594 176.2 241.994 176.2ZM255.694 172.6H286.994C287.494 172.6 287.894 173 287.894 173.5C287.894 174 287.494 174.4 286.994 174.4H255.694C255.194 174.4 254.794 174 254.794 173.5C254.794 173 255.194 172.6 255.694 172.6ZM278.494 169.1H286.894C287.394 169.1 287.794 169.5 287.794 170C287.794 170.5 287.394 170.9 286.894 170.9H278.494C277.994 170.9 277.594 170.5 277.594 170C277.694 169.5 278.094 169.1 278.494 169.1ZM261.894 169.1H274.594C275.094 169.1 275.494 169.5 275.494 170C275.494 170.5 275.094 170.9 274.594 170.9H261.894C261.394 170.9 260.994 170.5 260.994 170C261.094 169.5 261.494 169.1 261.894 169.1ZM241.994 172.6H251.694C252.194 172.6 252.594 173 252.594 173.5C252.594 174 252.194 174.4 251.694 174.4H241.994C241.494 174.4 241.094 174 241.094 173.5C241.194 173 241.594 172.6 241.994 172.6Z" fill="#D2D9DC"/>
<path fill-rule="evenodd" clip-rule="evenodd" d="M246.894 161.2H264.894C265.894 161.2 266.694 162 266.694 163C266.694 164 265.894 164.8 264.894 164.8H246.894C245.894 164.8 245.094 164 245.094 163C244.994 162 245.894 161.2 246.894 161.2Z" fill="#839299"/>
<path fill-rule="evenodd" clip-rule="evenodd" d="M284.992 187.2L286.192 190L289.292 190.3L286.992 192.4L287.592 195.4L284.892 193.8L282.192 195.4L282.792 192.4L280.492 190.3L283.592 190L284.992 187.2ZM243.892 187.2L245.092 190L248.192 190.3L245.892 192.4L246.592 195.4L243.892 193.8L241.192 195.4L241.792 192.4L239.492 190.3L242.592 190L243.892 187.2ZM274.692 187.2L275.892 190L278.992 190.3L276.692 192.4L277.392 195.4L274.692 193.8L271.992 195.4L272.692 192.4L270.392 190.3L273.492 190L274.692 187.2ZM264.492 187.2L265.692 190L268.792 190.3L266.492 192.4L267.092 195.4L264.392 193.8L261.692 195.4L262.392 192.4L260.092 190.3L263.192 190L264.492 187.2ZM254.192 187.2L255.392 190L258.492 190.3L256.192 192.4L256.892 195.4L254.192 193.8L251.492 195.4L252.192 192.4L249.892 190.3L252.992 190L254.192 187.2Z" fill="#FFDD33"/>
<path fill-rule="evenodd" clip-rule="evenodd" d="M264.697 133.7C270.397 133.7 275.097 138.4 275.097 144.1C275.097 149.8 270.397 154.5 264.697 154.5C258.897 154.5 254.297 149.8 254.297 144.1C254.297 138.4 258.997 133.7 264.697 133.7Z" fill="#0054A6"/>
<path fill-rule="evenodd" clip-rule="evenodd" d="M271.794 151.7C269.894 153.4 267.494 154.5 264.694 154.5C261.994 154.5 259.494 153.4 257.594 151.7V150.9C257.594 147.9 259.994 145.5 262.994 145.5H266.294C269.294 145.5 271.694 147.9 271.694 150.9V151.7H271.794ZM264.794 135.7C266.894 135.7 268.694 137.4 268.694 139.6C268.694 141.7 266.994 143.5 264.794 143.5C262.694 143.5 260.894 141.8 260.894 139.6C260.994 137.4 262.694 135.7 264.794 135.7Z" fill="#D2D9DC"/>
<path fill-rule="evenodd" clip-rule="evenodd" d="M246.594 208.5H261.294V231.4H246.594V208.5ZM267.594 208.5H282.294V231.4H267.594V208.5Z" fill="#0054A6"/>
<path d="M368.995 155.7H312.695C308.795 155.7 305.695 158.8 305.695 162.7V219C305.695 222.9 308.795 226 312.695 226H368.995C372.895 226 375.995 222.9 375.995 219V162.7C375.995 158.8 372.895 155.7 368.995 155.7Z" fill="#0054A6"/>
<path d="M368.994 161.1H312.694C311.794 161.1 311.094 161.8 311.094 162.7V219C311.094 219.9 311.794 220.6 312.694 220.6H368.994C369.894 220.6 370.594 219.9 370.594 219V162.7C370.594 161.8 369.894 161.1 368.994 161.1ZM369.694 219C369.694 219.4 369.394 219.7 368.994 219.7H312.694C312.294 219.7 311.994 219.4 311.994 219V162.7C311.994 162.3 312.294 162 312.694 162H368.994C369.394 162 369.694 162.3 369.694 162.7V219Z" fill="#D2D9DC"/>
<path d="M313.795 178.9C312.595 178.9 311.695 179.8 311.695 181C311.695 182.2 312.595 183.1 313.795 183.1C314.995 183.1 315.895 182.2 315.895 181C315.895 179.8 314.895 178.9 313.795 178.9ZM313.795 182.1C313.095 182.1 312.595 181.6 312.595 180.9C312.595 180.2 313.095 179.7 313.795 179.7C314.495 179.7 314.995 180.2 314.995 180.9C314.995 181.6 314.495 182.1 313.795 182.1Z" fill="#002548"/>
<path d="M292.397 156.3C291.197 156.3 290.297 157.2 290.297 158.4C290.297 159.6 291.197 160.5 292.397 160.5C293.597 160.5 294.497 159.6 294.497 158.4C294.397 157.2 293.497 156.3 292.397 156.3ZM292.397 159.6C291.697 159.6 291.197 159.1 291.197 158.4C291.197 157.7 291.697 157.2 292.397 157.2C293.097 157.2 293.597 157.7 293.597 158.4C293.497 159 292.997 159.6 292.397 159.6Z" fill="#002548"/>
<path d="M311.794 181.4C311.694 181.4 302.094 178.8 302.094 171.3C302.094 160.3 294.094 158.8 294.094 158.8L294.294 157.8C294.394 157.8 303.194 159.5 303.194 171.3C303.194 178 311.994 180.4 312.094 180.4L311.794 181.4Z" fill="#002548"/>
<path d="M315.895 201.3C315.895 200.1 314.995 199.2 313.795 199.2C312.595 199.2 311.695 200.1 311.695 201.3C311.695 202.5 312.595 203.4 313.795 203.4C314.895 203.4 315.895 202.5 315.895 201.3ZM314.995 201.3C314.995 202 314.495 202.5 313.795 202.5C313.095 202.5 312.595 202 312.595 201.3C312.595 200.6 313.095 200.1 313.795 200.1C314.495 200.1 314.995 200.6 314.995 201.3Z" fill="#002548"/>
<path d="M294.395 223.9C294.395 222.7 293.495 221.8 292.295 221.8C291.095 221.8 290.195 222.7 290.195 223.9C290.195 225.1 291.095 226 292.295 226C293.495 226 294.395 225 294.395 223.9ZM293.495 223.9C293.495 224.6 292.995 225.1 292.295 225.1C291.595 225.1 291.095 224.6 291.095 223.9C291.095 223.2 291.595 222.7 292.295 222.7C292.995 222.7 293.495 223.2 293.495 223.9Z" fill="#002548"/>
<path d="M294.294 224.4L294.094 223.4C294.394 223.3 302.094 221.9 302.094 210.9C302.094 203.4 311.694 200.9 311.794 200.8L311.994 201.8C311.894 201.8 303.094 204.2 303.094 210.9C303.194 222.7 294.394 224.3 294.294 224.4Z" fill="#002548"/>
<path d="M313.795 189C312.595 189 311.695 189.9 311.695 191.1C311.695 192.3 312.595 193.2 313.795 193.2C314.995 193.2 315.895 192.3 315.895 191.1C315.895 190 314.895 189 313.795 189ZM313.795 192.3C313.095 192.3 312.595 191.8 312.595 191.1C312.595 190.4 313.095 189.9 313.795 189.9C314.495 189.9 314.995 190.4 314.995 191.1C314.995 191.8 314.495 192.3 313.795 192.3Z" fill="#002548"/>
<path d="M292.397 189C291.197 189 290.297 189.9 290.297 191.1C290.297 192.3 291.197 193.2 292.397 193.2C293.597 193.2 294.497 192.3 294.497 191.1C294.397 190 293.497 189 292.397 189ZM292.397 192.3C291.697 192.3 291.197 191.8 291.197 191.1C291.197 190.4 291.697 189.9 292.397 189.9C293.097 189.9 293.597 190.4 293.597 191.1C293.597 191.8 292.997 192.3 292.397 192.3Z" fill="#002548"/>
<path d="M312.2 190.7H294V191.6H312.2V190.7Z" fill="#002548"/>
<path d="M364.187 166.871L316.953 214.105L317.59 214.742L364.824 167.507L364.187 166.871Z" fill="#D2D9DC"/>
<path d="M317.59 166.943L316.953 167.58L364.187 214.814L364.824 214.178L317.59 166.943Z" fill="#D2D9DC"/>
</svg>
