<svg width="48" height="48" viewBox="0 0 48 48" fill="none" xmlns="http://www.w3.org/2000/svg">
<g clip-path="url(#clip0_18062_52044)">
<path d="M24.0001 47.4378C36.9444 47.4378 47.4378 36.9444 47.4378 24.0001C47.4378 11.0559 36.9444 0.5625 24.0001 0.5625C11.0559 0.5625 0.5625 11.0559 0.5625 24.0001C0.5625 36.9444 11.0559 47.4378 24.0001 47.4378Z" fill="#0054A6"/>
<path fill-rule="evenodd" clip-rule="evenodd" d="M17.3328 9.5272C16.5315 9.5272 15.8796 10.1791 15.8796 10.9811V37.0202C15.8796 37.8215 16.5315 38.4741 17.3328 38.4741L30.6679 38.474C31.4692 38.474 32.1211 37.8215 32.1211 37.0202V10.981C32.1211 10.1791 31.4692 9.52723 30.6679 9.52723L17.3328 9.5272ZM30.6679 39.1341H17.3328C16.1671 39.1341 15.2188 38.1862 15.2188 37.0201L15.2188 10.9809C15.2188 9.81479 16.1671 8.86627 17.3328 8.86627L30.6679 8.86621C31.8336 8.86621 32.782 9.81485 32.782 10.981V37.0201C32.782 38.1862 31.8336 39.1341 30.6679 39.1341Z" fill="black"/>
<path fill-rule="evenodd" clip-rule="evenodd" d="M22.5073 36.6257C22.3357 36.6257 22.196 36.7655 22.196 36.9369C22.196 37.1089 22.3357 37.2487 22.5073 37.2487L25.496 37.2487C25.6676 37.2487 25.8072 37.109 25.8072 36.9369C25.8072 36.7654 25.6676 36.6257 25.4959 36.6257H22.5073ZM25.496 37.9095H22.5073C21.9713 37.9095 21.5352 37.4731 21.5352 36.9369C21.5352 36.4013 21.9713 35.9649 22.5073 35.9649L25.496 35.9648C26.032 35.9648 26.4681 36.4013 26.4681 36.9369C26.4681 37.4731 26.032 37.9095 25.496 37.9095Z" fill="black"/>
<path fill-rule="evenodd" clip-rule="evenodd" d="M17.7586 34.7398H30.2396V13.2619H17.7586V34.7398ZM30.57 35.4007H17.4281C17.2456 35.4007 17.0977 35.2528 17.0977 35.0703L17.0977 12.9315C17.0977 12.7491 17.2456 12.6011 17.4281 12.6011H30.57C30.7525 12.6011 30.9004 12.7491 30.9004 12.9315V35.0703C30.9004 35.2527 30.7525 35.4007 30.57 35.4007Z" fill="black"/>
<path fill-rule="evenodd" clip-rule="evenodd" d="M25.2383 11.3949H22.7601C22.5776 11.3949 22.4297 11.247 22.4297 11.0638C22.4297 10.8814 22.5776 10.7334 22.76 10.7334L25.2383 10.7334C25.4208 10.7334 25.5687 10.8814 25.5687 11.0638C25.5688 11.2469 25.4208 11.3949 25.2383 11.3949Z" fill="black"/>
<path fill-rule="evenodd" clip-rule="evenodd" d="M19.4421 18.1148H28.5563V17.3183L23.9992 14.8945L19.4421 17.3183V18.1148ZM28.8868 18.7756H19.1117C18.9292 18.7756 18.7812 18.6276 18.7812 18.4452V17.1193C18.7812 16.9975 18.8486 16.8853 18.9565 16.8282L23.8441 14.2282C23.9411 14.1765 24.0574 14.1766 24.1544 14.2282L29.0419 16.8281C29.1498 16.8853 29.2172 16.9975 29.2172 17.1194V18.4451C29.2172 18.6276 29.0692 18.7756 28.8868 18.7756Z" fill="black"/>
<path fill-rule="evenodd" clip-rule="evenodd" d="M22.1378 19.8997H19.7561C19.5736 19.8997 19.4258 19.7517 19.4258 19.5693L19.4258 18.4451C19.4258 18.2627 19.5736 18.1147 19.7561 18.1147C19.9386 18.1147 20.0865 18.2627 20.0865 18.4452L20.0866 19.2388H21.8073V18.4451C21.8073 18.2627 21.9553 18.1147 22.1378 18.1147C22.3202 18.1147 22.4681 18.2627 22.4681 18.4452V19.5692C22.4681 19.7516 22.3202 19.8997 22.1378 19.8997Z" fill="black"/>
<path fill-rule="evenodd" clip-rule="evenodd" d="M28.2433 19.8997H25.8617C25.6792 19.8997 25.5312 19.7517 25.5312 19.5693L25.5313 18.4451C25.5313 18.2627 25.6792 18.1147 25.8617 18.1147C26.0442 18.1147 26.1921 18.2627 26.1921 18.4452V19.2388H27.9129V18.4451C27.9129 18.2627 28.0608 18.1147 28.2432 18.1147C28.4257 18.1147 28.5737 18.2627 28.5737 18.4452L28.5737 19.5692C28.5737 19.7516 28.4257 19.8997 28.2433 19.8997Z" fill="black"/>
<path fill-rule="evenodd" clip-rule="evenodd" d="M22.1378 24.7326C21.9553 24.7326 21.8073 24.5847 21.8073 24.4023L21.8073 23.6086H20.0866V24.4023C20.0866 24.5847 19.9386 24.7327 19.7561 24.7327C19.5736 24.7326 19.4258 24.5847 19.4258 24.4023L19.4258 23.2781C19.4258 23.0957 19.5736 22.9478 19.7561 22.9478H22.1378C22.3202 22.9478 22.4681 23.0957 22.4681 23.2782V24.4023C22.4681 24.5847 22.3202 24.7327 22.1378 24.7326Z" fill="black"/>
<path fill-rule="evenodd" clip-rule="evenodd" d="M28.2433 24.7326C28.0608 24.7326 27.9128 24.5847 27.9128 24.4023L27.9129 23.6086H26.1921V24.4023C26.1921 24.5847 26.0441 24.7327 25.8617 24.7327C25.6792 24.7326 25.5312 24.5847 25.5312 24.4023L25.5313 23.2781C25.5313 23.0957 25.6792 22.9478 25.8617 22.9478H28.2433C28.4257 22.9478 28.5737 23.0957 28.5737 23.2782L28.5737 24.4023C28.5737 24.5847 28.4257 24.7327 28.2433 24.7326Z" fill="black"/>
<path fill-rule="evenodd" clip-rule="evenodd" d="M19.2155 25.2572H28.7834V24.7326H19.2155V25.2572ZM29.1138 25.918H18.8851C18.7026 25.918 18.5547 25.77 18.5547 25.5876L18.5547 24.4022C18.5547 24.2198 18.7026 24.0718 18.8851 24.0718L29.1138 24.0718C29.2963 24.0718 29.4443 24.2198 29.4443 24.4022L29.4443 25.5875C29.4443 25.77 29.2963 25.918 29.1138 25.918Z" fill="black"/>
<path fill-rule="evenodd" clip-rule="evenodd" d="M20.2445 23.6085C20.062 23.6085 19.9141 23.4605 19.9141 23.2781L19.9141 19.5692C19.9141 19.3867 20.062 19.2388 20.2445 19.2388C20.427 19.2387 20.5749 19.3868 20.5749 19.5692V23.2781C20.5749 23.4605 20.427 23.6086 20.2445 23.6085ZM21.6488 23.6085C21.4664 23.6085 21.3184 23.4605 21.3184 23.2781L21.3184 19.5692C21.3184 19.3867 21.4664 19.2388 21.6488 19.2388C21.8313 19.2387 21.9793 19.3868 21.9793 19.5692V23.2781C21.9793 23.4605 21.8313 23.6086 21.6488 23.6085Z" fill="black"/>
<path fill-rule="evenodd" clip-rule="evenodd" d="M26.35 23.6085C26.1675 23.6085 26.0195 23.4605 26.0195 23.2781L26.0196 19.5692C26.0196 19.3867 26.1675 19.2388 26.35 19.2388C26.5325 19.2387 26.6804 19.3868 26.6804 19.5692V23.2781C26.6804 23.4605 26.5325 23.6086 26.35 23.6085ZM27.7544 23.6085C27.5719 23.6085 27.424 23.4605 27.424 23.2781V19.5692C27.424 19.3867 27.5719 19.2388 27.7544 19.2388C27.9369 19.2387 28.0848 19.3868 28.0848 19.5692L28.0848 23.2781C28.0848 23.4605 27.9369 23.6086 27.7544 23.6085Z" fill="black"/>
<path fill-rule="evenodd" clip-rule="evenodd" d="M24.0004 27.136C22.3421 27.136 20.9929 28.4852 20.9929 30.1435C20.993 31.8017 22.3421 33.151 24.0004 33.151C25.6588 33.151 27.0078 31.8017 27.0078 30.1435C27.0078 28.4851 25.6587 27.136 24.0004 27.136ZM24.0004 33.8118C21.9777 33.8118 20.332 32.1659 20.332 30.1435C20.3321 28.1203 21.9777 26.4751 24.0004 26.4751C26.0231 26.475 27.6687 28.1203 27.6687 30.1435C27.6687 32.1659 26.0231 33.8118 24.0004 33.8118Z" fill="black"/>
<path fill-rule="evenodd" clip-rule="evenodd" d="M24.0018 32.4021C23.2878 32.4021 22.707 31.8218 22.707 31.1079C22.707 30.9248 22.855 30.7775 23.0375 30.7775C23.2199 30.7775 23.3679 30.9248 23.3679 31.1079C23.3679 31.4569 23.6522 31.7412 24.0018 31.7412C24.3513 31.7412 24.6356 31.4569 24.6356 31.1079C24.6356 30.6522 24.4306 30.5848 23.9252 30.465C23.4401 30.3493 22.707 30.1745 22.707 29.1791C22.707 28.4652 23.2878 27.8843 24.0018 27.8843C24.7157 27.8843 25.2965 28.4653 25.2965 29.1791C25.2965 29.3615 25.1486 29.5095 24.9661 29.5095C24.7836 29.5095 24.6356 29.3615 24.6356 29.1791C24.6356 28.8293 24.3513 28.5451 24.0018 28.5451C23.6523 28.5451 23.3679 28.8294 23.3679 29.1791C23.3679 29.6341 23.573 29.7016 24.0783 29.822C24.5634 29.9369 25.2965 30.1119 25.2965 31.1079C25.2965 31.8217 24.7156 32.4021 24.0018 32.4021Z" fill="black"/>
<path fill-rule="evenodd" clip-rule="evenodd" d="M24.0022 32.7586C23.8198 32.7586 23.6719 32.6106 23.6719 32.4282V27.8587C23.6719 27.6756 23.8197 27.5283 24.0022 27.5283C24.1847 27.5283 24.3326 27.6756 24.3326 27.8587V32.4281C24.3326 32.6106 24.1847 32.7586 24.0022 32.7586Z" fill="black"/>
<path fill-rule="evenodd" clip-rule="evenodd" d="M17.4287 12.6009H30.5706C30.7531 12.6009 30.9011 12.749 30.9011 12.9314V35.0702C30.9011 35.2525 30.7531 35.4006 30.5706 35.4006H17.4287C17.2462 35.4006 17.0983 35.2526 17.0983 35.0702V12.9313C17.0983 12.7489 17.2462 12.6009 17.4287 12.6009ZM25.5692 11.0638C25.5693 11.2468 25.4213 11.3949 25.2388 11.3949H22.7605C22.5781 11.3949 22.4302 11.2469 22.4302 11.0638C22.4302 10.8813 22.578 10.7334 22.7605 10.7334L25.2388 10.7333C25.4213 10.7333 25.5692 10.8814 25.5692 11.0638ZM17.3322 9.52734C16.5308 9.52734 15.8789 10.1792 15.8789 10.9812V37.0203C15.8789 37.8216 16.5308 38.4742 17.3322 38.4742L30.6672 38.4741C31.4686 38.4741 32.1204 37.8216 32.1204 37.0204V10.9812C32.1204 10.1792 31.4685 9.52737 30.6672 9.52737L17.3322 9.52734ZM22.5053 35.9651L25.494 35.965C26.03 35.965 26.4661 36.4015 26.4661 36.9371C26.4661 37.4733 26.03 37.9097 25.494 37.9097H22.5054C21.9693 37.9097 21.5332 37.4733 21.5332 36.9371C21.5332 36.4015 21.9693 35.9651 22.5053 35.9651Z" fill="#FFDD33"/>
<path fill-rule="evenodd" clip-rule="evenodd" d="M27.0071 30.1433C27.0071 28.4849 25.658 27.1357 23.9997 27.1357C22.3414 27.1357 20.9922 28.485 20.9922 30.1433C20.9922 31.8015 22.3413 33.1508 23.9997 33.1508C25.658 33.1507 27.0071 31.8016 27.0071 30.1433ZM25.2944 31.1077C25.2944 31.7073 24.8845 32.2128 24.3301 32.3591V32.4279C24.3301 32.6104 24.1821 32.7584 23.9997 32.7584C23.8172 32.7584 23.6693 32.6104 23.6693 32.428V32.3592C23.1149 32.2129 22.7049 31.7074 22.7049 31.1077C22.7049 30.9245 22.8529 30.7773 23.0354 30.7773C23.2178 30.7772 23.3658 30.9246 23.3658 31.1077C23.3658 31.3359 23.4874 31.5365 23.6693 31.6479V30.3998C23.2177 30.2699 22.7049 30.0113 22.7049 29.1789C22.7049 28.5791 23.1149 28.0731 23.6693 27.9267V27.8585C23.6693 27.6754 23.8172 27.5281 23.9997 27.5281C24.1821 27.5281 24.33 27.6754 24.33 27.8585V27.9267C24.8845 28.0732 25.2944 28.5791 25.2944 29.1789C25.2944 29.3612 25.1464 29.5093 24.964 29.5093C24.7815 29.5092 24.6336 29.3613 24.6336 29.1789C24.6336 28.9501 24.512 28.7494 24.33 28.6379V29.8864C24.7817 30.0159 25.2944 30.2746 25.2944 31.1077Z" fill="#FFE082"/>
<path fill-rule="evenodd" clip-rule="evenodd" d="M25.4952 36.626H22.5066C22.335 36.626 22.1953 36.7657 22.1953 36.9371C22.1954 37.1092 22.335 37.249 22.5066 37.249L25.4953 37.2489C25.6669 37.2489 25.8065 37.1092 25.8065 36.9371C25.8065 36.7657 25.6669 36.626 25.4952 36.626Z" fill="#E6B873"/>
<path fill-rule="evenodd" clip-rule="evenodd" d="M24.332 31.6483C24.5139 31.5368 24.6355 31.3363 24.6355 31.1081C24.6355 30.8034 24.5439 30.6723 24.332 30.583V31.6483Z" fill="#FFE082"/>
<path fill-rule="evenodd" clip-rule="evenodd" d="M23.6707 29.7032V28.6377C23.4888 28.7492 23.3672 28.95 23.3672 29.1786C23.3672 29.4828 23.4589 29.6139 23.6707 29.7032Z" fill="#FFE082"/>
<path fill-rule="evenodd" clip-rule="evenodd" d="M19.2148 25.2575H28.7828V24.7329H28.2427C28.2427 24.7329 28.2428 24.7329 28.2427 24.7329H25.8672C25.8651 24.7329 25.863 24.733 25.8609 24.733C25.8588 24.733 25.8568 24.7329 25.8547 24.7329H22.137C22.1369 24.7329 22.137 24.7329 22.137 24.7329H19.7614C19.7593 24.7329 19.7572 24.733 19.7551 24.733C19.753 24.733 19.7509 24.7329 19.7489 24.7329H19.2148V25.2575Z" fill="#ED1C24"/>
<path fill-rule="evenodd" clip-rule="evenodd" d="M20.0859 24.0722L21.8066 24.0722L21.8067 23.6089H21.6485H20.2442H20.0859V24.0722Z" fill="#ED1C24"/>
<path fill-rule="evenodd" clip-rule="evenodd" d="M20.5742 22.948H21.3177V19.8999H20.5742V22.948Z" fill="#ED1C24"/>
<path fill-rule="evenodd" clip-rule="evenodd" d="M20.2441 19.2392H21.6485L21.8067 19.2391V18.7759H20.0859L20.086 19.2391L20.2441 19.2392Z" fill="#ED1C24"/>
<path fill-rule="evenodd" clip-rule="evenodd" d="M19.7548 18.1149H22.1365H25.8606H28.2421H28.5557V17.3183L23.9985 14.8945L19.4414 17.3183V18.1149H19.7548Z" fill="#ED1C24"/>
<path fill-rule="evenodd" clip-rule="evenodd" d="M27.7541 23.6089H26.3496H26.1914V24.0722L27.9121 24.0721V23.6089H27.7541Z" fill="#ED1C24"/>
<path fill-rule="evenodd" clip-rule="evenodd" d="M26.6797 22.948H27.4232V19.8999H26.6797V22.948Z" fill="#ED1C24"/>
<path fill-rule="evenodd" clip-rule="evenodd" d="M26.3496 19.2392H27.7538L27.9122 19.2391V18.7759H26.1914L26.1914 19.2391L26.3496 19.2392Z" fill="#ED1C24"/>
<path fill-rule="evenodd" clip-rule="evenodd" d="M18.9595 16.8282L23.8471 14.2282C23.9441 14.1765 24.0603 14.1766 24.1573 14.2282L29.0449 16.8281C29.1528 16.8853 29.2201 16.9975 29.2201 17.1194V18.4451C29.2201 18.6276 29.0722 18.7756 28.8897 18.7756H28.5763V19.5693C28.5763 19.7517 28.4283 19.8998 28.2459 19.8998H28.0877L28.0877 22.9479H28.2459C28.4284 22.9479 28.5763 23.0959 28.5763 23.2783L28.5763 24.0719H29.1165C29.299 24.0719 29.447 24.22 29.447 24.4024L29.447 25.5877C29.447 25.7702 29.299 25.9182 29.1165 25.9182H18.8878C18.7053 25.9182 18.5574 25.7702 18.5574 25.5878L18.5574 24.4024C18.5574 24.2199 18.7053 24.072 18.8878 24.072H19.4281L19.4282 23.2782C19.4282 23.0959 19.576 22.9479 19.7585 22.9479H19.9167L19.9167 19.8998H19.7585C19.576 19.8998 19.4281 19.7517 19.4281 19.5693V18.7756H19.1147C18.9322 18.7756 18.7842 18.6276 18.7842 18.4452L18.7842 17.1193C18.7842 16.9975 18.8516 16.8853 18.9595 16.8282ZM30.2427 13.2617H17.7617V34.7397H30.2427V13.2617ZM20.3338 30.1434C20.3338 28.1203 21.9795 26.4751 24.0022 26.4751C26.0249 26.475 27.6705 28.1203 27.6705 30.1434C27.6705 32.1659 26.0249 33.8118 24.0022 33.8118C21.9795 33.8118 20.3338 32.1659 20.3338 30.1434Z" fill="#C8E3F8"/>
<path fill-rule="evenodd" clip-rule="evenodd" d="M25.5324 18.7754H22.469V19.5691C22.469 19.7515 22.3211 19.8996 22.1387 19.8996H21.9805V22.9477H22.1387C22.3211 22.9477 22.469 23.0957 22.469 23.2781V24.0718H25.5324L25.5324 23.278C25.5324 23.0957 25.6804 22.9477 25.8628 22.9477H26.021V19.8996H25.8628C25.6804 19.8996 25.5324 19.7515 25.5324 19.5691L25.5324 18.7754Z" fill="#C8E3F8"/>
</g>
<defs>
<clipPath id="clip0_18062_52044">
<rect width="48" height="48" fill="white"/>
</clipPath>
</defs>
</svg>
