<svg width="50" height="50" viewBox="0 0 50 50" fill="none" xmlns="http://www.w3.org/2000/svg">
<g clip-path="url(#clip0_14284_14197)">
<path fill-rule="evenodd" clip-rule="evenodd" d="M20.7517 0.732454C20.7201 1.40182 20.7526 2.05286 20.8494 2.68558C20.9417 3.44559 21.3648 3.91759 22.1189 4.10159C25.0811 4.1667 28.0434 4.1667 31.0056 4.10159C31.7249 3.98433 32.1806 3.57743 32.3728 2.88089C32.4697 2.18288 32.5022 1.46674 32.4705 0.732454C33.7729 0.716188 35.0751 0.732464 36.3767 0.781282C38.0682 1.17067 38.996 2.22861 39.1599 3.95511C39.2088 6.16841 39.2251 8.38196 39.2088 10.5957C39.1124 12.5414 39.0798 14.4946 39.1111 16.4551C39.1111 18.3431 39.1111 20.2312 39.1111 22.1192C39.1111 24.0072 39.1111 25.8952 39.1111 27.7832C39.0789 29.7207 39.1114 31.6413 39.2088 33.545C39.2251 36.5725 39.2088 39.5998 39.1599 42.627C38.9843 44.3977 38.024 45.4556 36.2791 45.8008C33.0566 45.8496 29.8339 45.8659 26.6111 45.8496C23.3073 45.7684 19.987 45.7196 16.6502 45.7032C15.1959 45.286 14.3658 44.3256 14.1599 42.8223C14.1111 34.0984 14.0948 25.3744 14.1111 16.6504C14.0948 12.1907 14.1111 7.73104 14.1599 3.27152C14.4923 2.0603 15.2572 1.26277 16.4548 0.878938C17.8822 0.740911 19.3145 0.692083 20.7517 0.732454Z" fill="#75E1F7" fill-opacity="0.7"/>
<path opacity="0.714" fill-rule="evenodd" clip-rule="evenodd" d="M20.7519 0.732422C24.6582 0.732422 28.5644 0.732422 32.4707 0.732422C32.5024 1.46671 32.4699 2.18285 32.373 2.88086C32.373 2.19727 32.373 1.51367 32.373 0.830078C28.5319 0.830078 24.6907 0.830078 20.8496 0.830078C20.8496 1.44856 20.8496 2.06706 20.8496 2.68555C20.7528 2.05283 20.7203 1.40179 20.7519 0.732422Z" fill="#A6A5C6"/>
<path fill-rule="evenodd" clip-rule="evenodd" d="M32.373 2.88086C32.1809 3.5774 31.7251 3.9843 31.0059 4.10156C28.0437 4.16667 25.0813 4.16667 22.1191 4.10156C21.365 3.91756 20.9419 3.44556 20.8496 2.68555C20.8496 2.06706 20.8496 1.44856 20.8496 0.830078C24.6907 0.830078 28.5319 0.830078 32.373 0.830078C32.373 1.51367 32.373 2.19727 32.373 2.88086Z" fill="#2D2F31"/>
<path opacity="0.981" fill-rule="evenodd" clip-rule="evenodd" d="M40.4783 15.3811C39.9665 15.6647 39.5108 16.0228 39.1111 16.4553C39.0798 14.4947 39.1124 12.5416 39.2088 10.5959C40.0454 9.63888 41.0545 9.39474 42.2361 9.86349C43.3461 10.6738 43.5902 11.6992 42.9686 12.9397C42.1514 13.7733 41.3213 14.587 40.4783 15.3811Z" fill="#F5CCAA"/>
<path fill-rule="evenodd" clip-rule="evenodd" d="M25.6349 14.1113C30.5496 13.9989 33.6258 16.3102 34.8634 21.0449C35.2581 24.8613 33.8421 27.7747 30.6154 29.7852C26.5367 31.6253 23.0048 30.8929 20.0197 27.5879C18.2386 25.0589 17.848 22.3245 18.8478 19.3848C20.161 16.394 22.4234 14.6362 25.6349 14.1113Z" fill="#33C355"/>
<path opacity="0.988" fill-rule="evenodd" clip-rule="evenodd" d="M14.1113 16.6504C14.095 25.3744 14.1113 34.0983 14.1601 42.8223C14.366 44.3256 15.196 45.2859 16.6503 45.7031C19.9871 45.7195 23.3075 45.7684 26.6113 45.8496C25.7196 46.7902 24.8081 47.718 23.8769 48.6328C23.5557 48.8748 23.1976 49.0375 22.8027 49.1211C17.5618 49.1862 12.3209 49.1862 7.08001 49.1211C6.62657 48.9188 6.48008 48.577 6.64056 48.0957C8.57187 45.5554 9.35312 42.6907 8.98431 39.502C8.76908 37.9375 8.54121 36.375 8.30072 34.8145C8.23561 33.903 8.23561 32.9915 8.30072 32.0801C8.789 29.834 9.27728 27.5879 9.76556 25.3418C9.88802 22.2841 9.95306 19.2242 9.96087 16.1621C10.2393 15.3465 10.809 14.9233 11.6699 14.8926C12.8531 14.9784 13.6668 15.5644 14.1113 16.6504Z" fill="#F5CCA9"/>
<path opacity="0.982" fill-rule="evenodd" clip-rule="evenodd" d="M40.4785 21.0448C40.0228 21.403 39.5671 21.761 39.1113 22.1191C39.1113 20.2311 39.1113 18.343 39.1113 16.455C39.511 16.0225 39.9667 15.6644 40.4785 15.3808C42.138 15.0867 43.082 15.7703 43.3105 17.4316C43.3056 17.8535 43.1916 18.2442 42.9688 18.6034C42.1516 19.437 41.3215 20.2508 40.4785 21.0448Z" fill="#EAB196"/>
<path fill-rule="evenodd" clip-rule="evenodd" d="M29.5409 18.3103C30.5555 18.1974 30.9299 18.6205 30.6639 19.5799C28.9339 21.7329 27.2412 23.914 25.5858 26.1228C25.2387 26.6063 24.7993 26.7203 24.2674 26.4646C23.7303 25.9275 23.1932 25.3904 22.6561 24.8533C22.31 23.9313 22.6193 23.4919 23.5839 23.5349C23.9385 23.7918 24.264 24.0848 24.5604 24.4139C24.6256 24.479 24.6906 24.479 24.7557 24.4139C26.3398 22.3676 27.9349 20.333 29.5409 18.3103Z" fill="#FCFEFC"/>
<path opacity="0.981" fill-rule="evenodd" clip-rule="evenodd" d="M40.4785 26.7092C40.0228 27.0673 39.5671 27.4253 39.1113 27.7834C39.1113 25.8954 39.1113 24.0074 39.1113 22.1194C39.5671 21.7613 40.0228 21.4033 40.4785 21.0451C42.1393 20.7516 43.0833 21.4352 43.3105 23.0959C43.2957 23.645 43.1167 24.1332 42.7734 24.5608C41.9892 25.2639 41.2242 25.98 40.4785 26.7092Z" fill="#F6CDA9"/>
<path opacity="0.98" fill-rule="evenodd" clip-rule="evenodd" d="M39.2088 33.5448C39.1114 31.6412 39.0789 29.7206 39.1111 27.7831C39.5669 27.425 40.0226 27.067 40.4783 26.7088C42.4173 26.4506 43.345 27.2969 43.2615 29.2479C43.1503 29.6006 42.9875 29.9262 42.7733 30.2245C41.5364 31.2824 40.3484 32.3891 39.2088 33.5448Z" fill="#EAB196"/>
<path fill-rule="evenodd" clip-rule="evenodd" d="M21.2404 41.6502C24.8212 41.6339 28.402 41.6502 31.9826 41.699C32.4743 41.9932 32.5882 42.4002 32.3244 42.9197C32.2058 43.071 32.0593 43.1848 31.8849 43.2615C28.3693 43.3266 24.8537 43.3266 21.338 43.2615C20.5932 42.7741 20.5607 42.237 21.2404 41.6502Z" fill="#2D2F31"/>
</g>
<defs>
<clipPath id="clip0_14284_14197">
<rect width="50" height="50" fill="white"/>
</clipPath>
</defs>
</svg>
