<svg width="675" height="537" viewBox="0 0 675 537" fill="none" xmlns="http://www.w3.org/2000/svg">
<g opacity="0.4">
<path d="M0.100586 367.9C0.100586 358.5 3.80059 349.6 10.4006 342.9C17.0006 336.2 25.9006 332.6 35.4006 332.6C44.8006 332.6 53.7006 336.3 60.4006 342.9L153.901 436.4L247.401 342.9C261.201 329.1 283.601 329.1 297.401 342.9C304.101 349.6 307.701 358.4 307.701 367.9C307.701 377.3 304.001 386.2 297.401 392.9L153.901 536.3L10.5006 392.8C3.80059 386.2 0.100586 377.3 0.100586 367.9Z" fill="#0054A6"/>
</g>
<g opacity="0.6">
<path d="M653.201 309.5C653.201 326.8 646.501 343.1 634.201 355.4C621.901 367.7 605.701 374.4 588.301 374.4C571.001 374.4 554.701 367.7 542.501 355.4L370.901 183.8L199.301 355.4C174.001 380.7 132.901 380.7 107.601 355.4C95.4006 343.2 88.6006 326.9 88.6006 309.5C88.6006 292.2 95.3006 275.9 107.601 263.7L370.901 0.399902L634.201 263.7C646.501 275.9 653.201 292.2 653.201 309.5Z" fill="#0054A6"/>
</g>
<g opacity="0.7">
<path d="M674.701 104.8C674.701 99.2998 672.601 94.1998 668.701 90.2998C664.801 86.3998 659.701 84.2998 654.201 84.2998C648.701 84.2998 643.601 86.3998 639.701 90.2998L585.601 144.4L531.501 90.2998C523.501 82.2998 510.501 82.2998 502.601 90.2998C498.701 94.1998 496.601 99.2998 496.601 104.8C496.601 110.3 498.701 115.4 502.601 119.3L585.701 202.4L668.801 119.3C672.601 115.4 674.701 110.3 674.701 104.8Z" fill="#FFD433"/>
</g>
<g opacity="0.9">
<path d="M674.701 20.7998C674.701 15.2998 672.601 10.1998 668.701 6.2998C664.801 2.3998 659.701 0.299805 654.201 0.299805C648.701 0.299805 643.601 2.3998 639.701 6.2998L585.601 60.3998L531.501 6.2998C523.501 -1.7002 510.501 -1.7002 502.601 6.2998C498.701 10.1998 496.601 15.2998 496.601 20.7998C496.601 26.2998 498.701 31.3998 502.601 35.2998L585.701 118.4L668.801 35.2998C672.601 31.3998 674.701 26.2998 674.701 20.7998Z" fill="#FFD433"/>
</g>
<g opacity="0.5">
<path d="M674.701 188.7C674.701 183.2 672.601 178.1 668.701 174.2C664.801 170.3 659.701 168.2 654.201 168.2C648.701 168.2 643.601 170.3 639.701 174.2L585.601 228.3L531.501 174.2C523.501 166.2 510.501 166.2 502.601 174.2C498.701 178.1 496.601 183.2 496.601 188.7C496.601 194.2 498.701 199.3 502.601 203.2L585.701 286.3L668.801 203.2C672.601 199.3 674.701 194.2 674.701 188.7Z" fill="#FFD433"/>
</g>
<g opacity="0.7">
<path d="M102.901 123C106.001 123 108.901 121.8 111.101 119.6C113.301 117.4 114.501 114.5 114.501 111.4C114.501 108.3 113.301 105.4 111.101 103.2L80.2008 72.3L111.101 41.4C115.601 36.9 115.601 29.5 111.101 24.9C108.901 22.7 106.001 21.5 102.901 21.5C99.8008 21.5 96.9008 22.7 94.7008 24.9L47.3008 72.3L94.7008 119.7C96.8008 121.8 99.7008 123 102.901 123Z" fill="white"/>
</g>
<g opacity="0.7">
<path d="M192 21.5C188.9 21.5 186 22.7 183.8 24.9C181.6 27.1 180.4 30 180.4 33.1C180.4 36.2 181.6 39.1 183.8 41.3L214.7 72.2L183.8 103.1C179.3 107.6 179.3 115 183.8 119.6C186 121.8 188.9 123 192 123C195.1 123 198 121.8 200.2 119.6L247.6 72.2L200.2 24.8C198 22.7 195.1 21.5 192 21.5Z" fill="white"/>
</g>
</svg>
