<svg width="57" height="65" viewBox="0 0 57 65" fill="none" xmlns="http://www.w3.org/2000/svg">
<path d="M55.2622 50.0148L30.2378 64.5291C29.1604 65.157 27.8396 65.157 26.7622 64.5291L1.73783 50.0148C0.660398 49.3867 0 48.2354 0 47.0143V17.9857C0 16.7297 0.660398 15.6133 1.73783 14.9852L26.7622 0.470888C27.8396 -0.156963 29.1604 -0.156963 30.2378 0.470888L55.2622 14.9852C56.3396 15.6133 57 16.7646 57 17.9857V47.0143C56.9653 48.2354 56.3049 49.3867 55.2622 50.0148Z" fill="#8D6748"/>
<path d="M28.4647 4.41309C27.9435 4.41309 27.422 4.55256 26.9703 4.83173L5.35189 17.3572C4.41339 17.8807 3.85742 18.8923 3.85742 19.939V44.99C3.85742 46.0716 4.41339 47.0486 5.35189 47.5721L26.9703 60.0976C27.422 60.3767 27.9435 60.5162 28.4647 60.5162C28.986 60.5162 29.5074 60.3767 29.9592 60.0976L51.5776 47.5721C52.5161 47.0486 53.072 46.0368 53.072 44.9903V19.939C53.072 18.8575 52.5161 17.8807 51.5776 17.3572L29.9592 4.83173C29.5074 4.55256 28.986 4.41309 28.4647 4.41309ZM28.4647 5.4598C28.8123 5.4598 29.1251 5.56441 29.438 5.73897L51.0561 18.2645C51.647 18.6134 52.0293 19.2763 52.0293 19.9741V45.0251C52.0293 45.7229 51.647 46.3857 51.0561 46.7346L29.438 59.2601C29.1251 59.4346 28.8123 59.5392 28.4647 59.5392C28.1172 59.5392 27.7696 59.4346 27.4915 59.2601L5.87335 46.7346C5.28242 46.3857 4.90012 45.7229 4.90012 45.0251V19.9741C4.90012 19.2763 5.28242 18.6134 5.87335 18.2645L27.4915 5.73897C27.8043 5.56441 28.1519 5.4598 28.4647 5.4598ZM26.4662 27.301H29.3857C29.4901 27.301 29.5595 27.2659 29.629 27.1962C31.3668 25.2424 31.5407 21.1602 31.5407 19.9391C31.5407 19.7648 31.4016 19.5902 31.1932 19.5902H27.9259H24.6589C24.4852 19.5902 24.3113 19.7297 24.3113 19.9391C24.3113 21.1253 24.4852 25.2076 26.223 27.1962C26.2925 27.2659 26.362 27.301 26.4662 27.301ZM25.6668 20.6718H27.9607H30.2547C30.4284 20.6718 30.6022 20.8113 30.6022 21.0207C30.6022 21.9977 30.4284 24.7538 29.2467 26.1843C29.1425 26.2543 29.073 26.2892 28.9686 26.2892H26.9182C26.8138 26.2892 26.7443 26.2543 26.6748 26.1843C25.493 24.7889 25.354 21.9977 25.3193 21.0207C25.3193 20.8464 25.4582 20.6718 25.6668 20.6718ZM28.5864 18.8924C28.5864 18.8924 29.8377 18.1598 29.0729 16.8339C28.6211 16.1361 28.4127 15.5431 28.5864 15.2988C28.1346 15.8571 27.37 16.4501 28.2041 17.7062C28.4822 18.0203 28.6211 18.683 28.5864 18.8924ZM27.1961 18.9971C27.1961 18.9971 28.0302 18.5087 27.509 17.6015C27.1961 17.148 27.0572 16.7293 27.1961 16.5896C26.8833 16.9734 26.3968 17.3572 26.9528 18.2295C27.1267 18.4039 27.1961 18.8576 27.1961 18.9971ZM27.0919 25.8704H28.8297C28.8992 25.8704 28.9686 25.8356 29.0381 25.7658C29.629 25.068 29.9071 23.9864 30.0461 23.0443C30.0461 23.0443 30.0113 23.3584 29.1773 23.6724C28.0304 24.091 26.0144 23.8119 26.0144 23.8119C26.1881 24.5445 26.4662 25.2424 26.8832 25.7658C26.918 25.8356 27.0224 25.8704 27.0919 25.8704ZM14.0236 35.6745V28.6966H12.7375L10.6174 31.9763L8.49724 28.6966H7.2114V35.7094H8.42778V30.7201L10.5826 33.9649H10.6174L12.8072 30.6852V35.6745H14.0236ZM21.809 28.8362C21.357 28.6616 20.8705 28.557 20.3493 28.557C19.8278 28.557 19.3413 28.6268 18.8893 28.8362C18.4376 29.0105 18.0553 29.2897 17.7424 29.6037C17.3949 29.9526 17.1517 30.3364 16.9778 30.7551C16.8041 31.2086 16.6997 31.6621 16.6997 32.1507V32.1856C16.6997 32.6739 16.8041 33.1625 16.9778 33.5812C17.1517 34.0347 17.3949 34.4185 17.7077 34.7325C18.0205 35.0465 18.4028 35.3257 18.8546 35.5C19.3066 35.6746 19.7931 35.7792 20.3143 35.7792C20.8358 35.7792 21.3223 35.7095 21.7743 35.5C22.2261 35.3257 22.6084 35.0465 22.9212 34.7325C23.2688 34.3836 23.5119 33.9998 23.6858 33.5812C23.8595 33.1277 23.9639 32.6739 23.9639 32.1856V32.1507C23.9639 31.6621 23.8595 31.1737 23.6858 30.7551C23.5119 30.3016 23.2687 29.9178 22.9559 29.6037C22.6431 29.2897 22.2608 29.0105 21.809 28.8362ZM22.6431 32.2204C22.6431 32.5345 22.5736 32.8485 22.4692 33.1625C22.3303 33.4415 22.1913 33.7206 21.9827 33.9301C21.7743 34.1393 21.5309 34.3139 21.2528 34.4533C20.9747 34.593 20.6619 34.6628 20.3143 34.6628C20.0017 34.6628 19.6541 34.593 19.376 34.4533C19.098 34.3139 18.8546 34.1393 18.6462 33.9301C18.4376 33.6858 18.2639 33.4415 18.1595 33.1277C18.0553 32.8136 17.9858 32.4996 17.9858 32.1507V32.1158C17.9858 31.8018 18.0553 31.4877 18.1595 31.1737C18.2986 30.8945 18.4376 30.6156 18.6462 30.4062C18.8546 30.1967 19.098 30.0224 19.376 29.8827C19.6541 29.7432 19.9668 29.6735 20.3143 29.6735C20.6619 29.6735 20.9747 29.7432 21.2528 29.8827C21.5309 30.0224 21.7743 30.1967 21.9827 30.4062C22.1913 30.6505 22.365 30.8945 22.4692 31.2086C22.5736 31.5226 22.6431 31.8366 22.6431 32.1856V32.2204ZM27.787 31.1737C27.9259 30.8945 28.0651 30.6154 28.2735 30.4062C28.4821 30.1967 28.7255 30.0224 29.0034 29.8827C29.2814 29.7432 29.5595 29.6735 29.9071 29.6735C30.3242 29.6735 30.6717 29.7432 30.9845 29.9176C31.2974 30.0921 31.5755 30.3016 31.8534 30.5456L32.6529 29.6386C32.479 29.464 32.3053 29.3246 32.1314 29.1849C31.9578 29.0454 31.7491 28.9408 31.5407 28.836C31.2974 28.7662 31.0888 28.6965 30.8107 28.6268C30.5328 28.5919 30.2547 28.557 29.9418 28.557C29.3857 28.557 28.9339 28.6616 28.4821 28.836C28.0303 29.0105 27.648 29.2897 27.3352 29.6037C27.0224 29.9526 26.779 30.3364 26.6053 30.7551C26.4314 31.1737 26.3272 31.6621 26.3272 32.1507V32.1856C26.3272 32.6739 26.4314 33.1274 26.6053 33.5812C26.779 34.0347 27.0224 34.4185 27.3352 34.7325C27.648 35.0465 28.0303 35.3257 28.4474 35.5C28.8644 35.6746 29.3162 35.7792 29.8376 35.7792C30.1505 35.7792 30.4631 35.7792 30.7759 35.7095C31.0193 35.6746 31.2974 35.5698 31.5058 35.4652C31.7144 35.3606 31.923 35.2557 32.1314 35.0814C32.3401 34.9068 32.5138 34.7674 32.6876 34.5579L31.8883 33.7555C31.5755 34.0347 31.2626 34.2441 30.9845 34.4185C30.7064 34.593 30.3242 34.6628 29.9071 34.6628C29.5943 34.6628 29.2814 34.5579 29.0034 34.4533C28.7255 34.3487 28.4821 34.1393 28.2735 33.9301C28.0651 33.6858 27.8912 33.4415 27.787 33.1274C27.6828 32.8136 27.6131 32.4996 27.6131 32.1507V32.1158C27.6131 31.8018 27.6828 31.4877 27.787 31.1737ZM35.1205 28.6965V35.6744H36.3369V32.7437H39.6736V35.6744H40.89V28.6965H39.6736V31.5924H36.3369V28.6965H35.1205ZM48.4669 33.9998L49.1621 35.6746H50.4479L47.3895 28.6617H46.2771L43.2187 35.6746H44.4698L45.1997 33.9998H48.4669ZM46.8333 30.127L48.0149 32.9183H45.6517L46.8333 30.127ZM6.34251 38.2563H50.6564V37.8726H6.34251V38.2563ZM31.8187 24.754C31.8187 24.8934 31.7839 24.9983 31.7839 25.1377H50.6565V24.754H31.8187ZM24.0681 24.754H6.3424V25.1377H24.1028C24.1028 24.9983 24.0681 24.8934 24.0681 24.754Z" fill="white"/>
</svg>
