<svg width="64" height="64" viewBox="0 0 64 64" fill="none" xmlns="http://www.w3.org/2000/svg">
<g id="enterprise-software-development-expertise_it-modernization-services" clip-path="url(#clip0_7641_12267)">
<g id="Group">
<g id="Group_2">
<path id="Vector" d="M47.4004 15.0999L52.6004 9.8999L54.1004 11.3999L48.9004 16.5999L47.4004 15.0999Z" fill="#D2D9DC"/>
<path id="Vector_2" d="M9.90039 11.3999L11.4004 9.8999L16.4004 14.8999L14.9004 16.3999L9.90039 11.3999Z" fill="#D2D9DC"/>
<path id="Vector_3" d="M9.90039 52.5999L15.1004 47.3999L16.6004 48.8999L11.4004 54.0999L9.90039 52.5999Z" fill="#D2D9DC"/>
<path id="Vector_4" d="M47.2012 48.7998L48.7012 47.2998L54.0012 52.5998L52.5012 54.0998L47.2012 48.7998Z" fill="#D2D9DC"/>
</g>
<path id="Vector_5" d="M55.5 33.9V30.1C55.5 29.3 55 28.6 54.3 28.3L51.3 27C50.8 26.8 50.4 26.4 50.2 25.8C49.9 25 49.6 24.2 49.2 23.5C49 23 49 22.4 49.2 21.9L50.4 18.9C50.7 18.2 50.5 17.3 50 16.8L47.3 14.1C46.7 13.5 45.9 13.4 45.2 13.7L42.2 14.9C41.6 15 41 15 40.5 14.8C39.7 14.4 39 14.1 38.2 13.8C37.7 13.6 37.3 13.2 37 12.7L35.7 9.7C35.4 9 34.7 8.5 33.9 8.5H30.1C29.3 8.5 28.6 9 28.3 9.7L27 12.7C26.8 13.2 26.4 13.6 25.8 13.8C25 14.1 24.2 14.4 23.5 14.8C23 15 22.4 15 21.9 14.8L18.9 13.6C18.2 13.3 17.3 13.5 16.8 14L14.1 16.7C13.5 17.3 13.4 18.1 13.7 18.8L14.9 21.8C15.1 22.3 15.1 22.9 14.8 23.4C14.4 24.2 14.1 24.9 13.8 25.7C13.6 26.2 13.2 26.6 12.7 26.9L9.7 28.2C9 28.5 8.5 29.2 8.5 30V33.8C8.5 34.6 9 35.3 9.7 35.6L12.7 36.9C13.2 37.1 13.6 37.5 13.8 38.1C14.1 38.9 14.4 39.7 14.8 40.4C15 40.9 15.1 41.5 14.9 42L13.7 45C13.4 45.7 13.6 46.6 14.1 47.1L16.8 49.8C17.4 50.4 18.2 50.5 18.9 50.2L21.9 49C22.4 48.8 23 48.8 23.5 49.1C24.3 49.5 25 49.8 25.8 50.1C26.3 50.3 26.7 50.7 27 51.2L28.3 54.2C28.6 54.9 29.3 55.4 30.1 55.4H33.9C34.7 55.4 35.4 54.9 35.7 54.2L37 51.2C37.2 50.7 37.6 50.3 38.2 50.1C39 49.8 39.8 49.5 40.5 49.1C41 48.9 41.6 48.8 42.1 49L45.1 50.2C45.8 50.5 46.7 50.3 47.2 49.8L49.9 47.1C50.5 46.5 50.6 45.7 50.3 45L49.1 42C49 41.6 49 41 49.2 40.5C49.6 39.7 49.9 39 50.2 38.2C50.4 37.7 50.8 37.3 51.3 37L54.3 35.7C55 35.4 55.5 34.7 55.5 33.9Z" fill="#839299"/>
<path id="Vector_6" d="M31.9992 44.7999C39.0685 44.7999 44.7992 39.0692 44.7992 32C44.7992 24.9307 39.0685 19.2 31.9992 19.2C24.93 19.2 19.1992 24.9307 19.1992 32C19.1992 39.0692 24.93 44.7999 31.9992 44.7999Z" fill="#D2D9DC"/>
<path id="Vector_7" d="M44.7992 32C44.7992 29.2 42.2992 26.8 38.4992 25.5C37.1992 21.7 34.7992 19.2 31.9992 19.2C29.1992 19.2 26.7992 21.7 25.4992 25.5C21.6992 26.8 19.1992 29.2 19.1992 32C19.1992 34.8 21.6992 37.2 25.4992 38.5C26.7992 42.2999 29.1992 44.7999 31.9992 44.7999C34.7992 44.7999 37.1992 42.2999 38.4992 38.5C42.2992 37.2 44.7992 34.8 44.7992 32ZM31.9992 21.2C33.3992 21.2 34.8992 22.6 35.8992 24.9C33.2992 24.4 30.5992 24.4 27.9992 24.9C29.0992 22.6 30.5992 21.2 31.9992 21.2ZM37.2992 32C37.2992 33.6 37.0992 35.1999 36.6992 36.7999C33.5992 37.5999 30.2992 37.5999 27.1992 36.7999C26.3992 33.6999 26.3992 30.4 27.1992 27.2999C30.2992 26.4999 33.5992 26.4999 36.6992 27.2999C37.0992 28.7999 37.2992 30.4 37.2992 32ZM21.1992 32C21.1992 30.6 22.5992 29.1 24.8992 28.1C24.3992 30.7 24.3992 33.4 24.8992 36C22.5992 34.9 21.1992 33.4 21.1992 32ZM31.9992 42.7999C30.5992 42.7999 29.0992 41.3999 28.0992 39.0999C30.6992 39.5999 33.3992 39.5999 35.9992 39.0999C34.8992 41.3999 33.3992 42.7999 31.9992 42.7999ZM39.0992 35.9C39.5992 33.3 39.5992 30.6 39.0992 28C41.3992 29 42.7992 30.5 42.7992 31.9C42.7992 33.4 41.3992 34.9 39.0992 35.9Z" fill="#0054A6"/>
<path id="Vector_8" d="M6.4 12.8C9.93462 12.8 12.8 9.93462 12.8 6.4C12.8 2.86538 9.93462 0 6.4 0C2.86538 0 0 2.86538 0 6.4C0 9.93462 2.86538 12.8 6.4 12.8Z" fill="#002548"/>
<path id="Vector_9" d="M57.5992 12.8C61.1338 12.8 63.9992 9.93462 63.9992 6.4C63.9992 2.86538 61.1338 0 57.5992 0C54.0646 0 51.1992 2.86538 51.1992 6.4C51.1992 9.93462 54.0646 12.8 57.5992 12.8Z" fill="#002548"/>
<path id="Vector_10" d="M6.4 64C9.93462 64 12.8 61.1346 12.8 57.5999C12.8 54.0653 9.93462 51.2 6.4 51.2C2.86538 51.2 0 54.0653 0 57.5999C0 61.1346 2.86538 64 6.4 64Z" fill="#002548"/>
<path id="Vector_11" d="M57.5992 64C61.1338 64 63.9992 61.1346 63.9992 57.5999C63.9992 54.0653 61.1338 51.2 57.5992 51.2C54.0646 51.2 51.1992 54.0653 51.1992 57.5999C51.1992 61.1346 54.0646 64 57.5992 64Z" fill="#002548"/>
<path id="Vector_12" d="M32.0004 4.2C33.1602 4.2 34.1004 3.2598 34.1004 2.1C34.1004 0.940202 33.1602 0 32.0004 0C30.8406 0 29.9004 0.940202 29.9004 2.1C29.9004 3.2598 30.8406 4.2 32.0004 4.2Z" fill="#FFDD33"/>
<path id="Vector_13" d="M32.0004 64C33.1602 64 34.1004 63.0598 34.1004 61.9001C34.1004 60.7403 33.1602 59.8 32.0004 59.8C30.8406 59.8 29.9004 60.7403 29.9004 61.9001C29.9004 63.0598 30.8406 64 32.0004 64Z" fill="#FFDD33"/>
<path id="Vector_14" d="M61.9008 34.0999C63.0606 34.0999 64.0008 33.1597 64.0008 31.9999C64.0008 30.8401 63.0606 29.8999 61.9008 29.8999C60.741 29.8999 59.8008 30.8401 59.8008 31.9999C59.8008 33.1597 60.741 34.0999 61.9008 34.0999Z" fill="#FFDD33"/>
<path id="Vector_15" d="M2.1 34.0999C3.2598 34.0999 4.2 33.1597 4.2 31.9999C4.2 30.8401 3.2598 29.8999 2.1 29.8999C0.940202 29.8999 0 30.8401 0 31.9999C0 33.1597 0.940202 34.0999 2.1 34.0999Z" fill="#FFDD33"/>
</g>
</g>
<defs>
<clipPath id="clip0_7641_12267">
<rect width="64" height="64" fill="white"/>
</clipPath>
</defs>
</svg>
