<svg width="176" height="50" viewBox="0 0 176 50" fill="none" xmlns="http://www.w3.org/2000/svg">
<g clip-path="url(#clip0_5122_12496)">
<path fill-rule="evenodd" clip-rule="evenodd" d="M163.87 20.7058C163.711 20.7375 163.553 21.0852 163.553 21.2747C163.521 22.5388 163.489 25.8889 163.489 28.1642C163.489 28.2275 163.584 28.3538 163.68 28.3538C164.155 28.3854 165.297 28.417 166.281 28.417C167.645 28.417 168.438 28.2275 168.882 28.038C170.024 27.4691 170.563 26.2364 170.563 24.8774C170.563 21.812 168.406 20.6425 165.202 20.6425C164.98 20.6112 164.346 20.6112 163.87 20.7058ZM172.054 34.8326C172.054 31.7039 169.738 29.9656 165.551 29.9656C165.361 29.9656 164.029 29.9339 163.711 29.9972C163.616 30.0288 163.489 30.0921 163.489 30.187C163.489 32.4307 163.458 36.002 163.553 37.3923C163.616 37.9929 164.06 38.8462 164.6 39.099C165.17 39.4151 166.471 39.4781 167.359 39.4781C169.865 39.4781 172.054 38.0878 172.054 34.8326ZM157.399 18.9678C157.716 18.9678 158.668 19.0624 161.11 19.0624C163.426 19.0624 165.266 18.9994 167.518 18.9994C170.278 18.9994 174.084 19.979 174.084 24.0873C174.084 26.1101 172.657 27.7219 170.785 28.512C170.69 28.5436 170.69 28.6066 170.785 28.6382C173.45 29.302 175.797 30.9455 175.797 34.0425C175.797 37.0765 173.894 39.0041 171.134 40.2052C169.453 40.932 167.359 41.1848 165.234 41.1848C163.616 41.1848 159.27 40.9953 156.86 41.0586C156.606 40.9636 157.082 39.8258 157.304 39.6363C157.875 39.6047 158.319 39.573 158.921 39.3835C159.778 39.1623 159.873 38.9095 160 37.6138C160.063 36.5076 160.063 32.5886 160.063 29.8077C160.063 25.9835 160.095 23.3921 160.063 22.1281C160.032 21.1485 159.683 20.8324 158.985 20.6425C158.446 20.5479 157.557 20.4214 156.828 20.3268C156.669 20.1686 157.208 19.094 157.399 18.9678ZM139.095 38.6251C139.857 39.2253 141.347 39.4781 142.68 39.4781C144.393 39.4781 146.106 39.1623 147.755 37.6768C149.437 36.1599 150.61 33.8213 150.61 30.0921C150.61 26.5208 149.246 23.6133 146.455 21.9069C144.869 20.927 142.838 20.5163 140.491 20.5163C139.793 20.5163 139.127 20.5479 138.715 20.7375C138.619 20.8007 138.397 21.0852 138.397 21.2431C138.334 21.8753 138.334 26.742 138.334 29.5865C138.334 32.5256 138.334 36.6339 138.397 37.1079C138.397 37.5822 138.619 38.309 139.095 38.6251ZM131.894 18.9678C132.497 18.9678 134.813 19.0624 135.923 19.0624C137.922 19.0624 139.349 18.9678 143.124 18.9678C146.296 18.9678 148.961 19.8211 150.864 21.4326C153.18 23.4238 154.385 26.1734 154.385 29.5232C154.385 34.2953 152.196 37.0449 150.007 38.6251C147.819 40.2368 144.964 41.1848 140.903 41.1848C138.746 41.1848 135.035 41.1215 131.958 41.0899H131.926C131.767 40.8057 132.18 39.6996 132.433 39.6679C133.258 39.573 133.48 39.5414 133.893 39.3835C134.559 39.1307 134.686 38.783 134.781 37.6138C134.876 35.4331 134.844 32.8101 134.844 29.8393C134.844 27.7219 134.876 23.5817 134.813 22.2543C134.718 21.1485 134.242 20.864 133.29 20.6742C132.814 20.5796 132.18 20.453 131.292 20.3584C131.165 20.1369 131.736 19.1573 131.894 18.9678Z" fill="#8E714E"/>
<path fill-rule="evenodd" clip-rule="evenodd" d="M93.5108 39.8577C92.7178 39.7627 92.1467 39.6365 91.4487 39.3204C91.3537 39.2571 91.1949 38.9413 91.1949 38.8148C91.1314 37.7086 91.1314 34.5483 91.1314 32.4309C91.1314 30.7242 90.8462 29.2389 90.1164 28.196C89.2598 26.995 88.0228 26.2998 86.4367 26.2998C85.0408 26.2998 83.1692 27.2481 81.6149 28.5754C81.5832 28.6068 81.3294 28.8282 81.3612 28.4805C81.3612 28.1328 81.4247 27.4376 81.4564 26.9636C81.4882 26.521 81.2344 26.2998 81.2344 26.2998C80.2191 26.8054 77.3642 27.4692 76.3174 27.5639C75.5561 27.7221 75.3659 28.4489 76.1589 28.7017H76.1907C77.0469 28.9545 77.618 29.2389 78.062 29.5234C78.3793 29.7762 78.3475 30.1239 78.3475 30.4084C78.3793 32.7786 78.3793 36.4129 78.2843 38.4041C78.2525 39.1941 78.0305 39.4783 77.4595 39.6048L77.5227 39.5732C77.0787 39.6681 76.7297 39.7627 76.1904 39.826C76.0001 40.0155 76.0001 41.0271 76.1904 41.2483C76.5394 41.2483 78.3793 41.1534 79.9021 41.1534C81.9957 41.1534 83.0743 41.2483 83.6135 41.2483C83.8356 40.9955 83.8991 40.0472 83.772 39.826C83.1692 39.7944 82.7252 39.7314 82.313 39.6048C81.742 39.4783 81.5832 39.1941 81.5514 38.5303C81.4882 36.8552 81.4882 33.3159 81.4882 30.914C81.4882 30.2502 81.6784 29.9341 81.8687 29.7446C82.5982 29.1127 83.772 28.67 84.8188 28.67C85.8339 28.67 86.5002 28.9861 87.0077 29.3971C87.7055 29.9657 87.9275 30.7874 88.0228 31.388C88.1812 32.747 88.118 35.4333 88.118 37.7719C88.118 39.0359 88.0228 39.352 87.547 39.5099C87.325 39.6048 86.7539 39.7314 86.0876 39.7944C85.8656 40.0155 85.9291 40.9955 86.0876 41.2166C87.0077 41.2166 88.0863 41.1217 89.6723 41.1217C91.6389 41.1217 92.908 41.2166 93.4155 41.2166C93.574 41.0271 93.6378 40.1105 93.5108 39.8577ZM102.298 27.7853C100.616 27.7853 99.5696 29.081 99.5696 31.1035C99.5696 33.1577 100.489 35.5279 103.091 35.5279C103.535 35.5279 104.36 35.3384 104.74 34.896C105.343 34.3271 105.755 33.1893 105.755 31.9885C105.755 29.3655 104.455 27.7853 102.298 27.7853ZM102.075 41.7539C101.441 41.7539 100.997 41.9434 100.712 42.1016C99.3791 42.9547 98.7766 43.7764 98.7766 44.7563C98.7766 45.6726 99.1253 46.3994 99.8869 47.0316C100.807 47.8217 102.075 48.2011 103.693 48.2011C106.929 48.2011 108.357 46.4627 108.357 44.7563C108.357 43.5552 107.754 42.7651 106.517 42.3228C105.628 41.9434 104.011 41.7539 102.075 41.7539ZM102.298 49.9707C100.363 49.9707 98.9668 49.5597 97.7615 48.6434C96.5877 47.7584 96.0802 46.4311 96.0802 45.5147C96.0802 45.2619 96.1437 44.5665 96.7147 43.9346C97.0635 43.5552 97.8247 42.8284 99.6331 41.596C99.6963 41.5644 99.7281 41.5327 99.7281 41.4694C99.7281 41.4062 99.6646 41.3429 99.6014 41.3115C98.1103 40.7426 97.6662 39.826 97.5392 39.3204V39.2571C97.5078 39.0676 97.4442 38.878 97.7298 38.6882C97.9518 38.5303 98.269 38.3408 98.6178 38.1196C99.157 37.8035 99.7281 37.4558 100.077 37.1713C100.141 37.1081 100.141 37.0451 100.141 36.9818C100.141 36.9185 100.077 36.8552 100.014 36.8239C97.7933 36.0968 96.683 34.4534 96.683 31.9885C96.683 30.3767 97.4125 28.9228 98.713 28.0065C99.6013 27.3111 101.822 26.458 103.281 26.458H103.376C104.867 26.4893 105.692 26.8054 106.865 27.2164C107.5 27.4376 108.103 27.5322 108.928 27.5322C110.165 27.5322 110.704 27.1532 111.148 26.7108C111.18 26.7738 111.243 26.932 111.275 27.3427C111.307 27.7537 111.18 28.3539 110.862 28.7966C110.609 29.144 110.038 29.3971 109.467 29.3971H109.308C108.737 29.3339 108.483 29.2706 108.483 29.2706L108.357 29.3339C108.325 29.3971 108.357 29.4601 108.388 29.555L108.42 29.6183C108.483 29.9028 108.61 30.7558 108.61 30.9773C108.61 33.5687 107.563 34.7062 106.453 35.5595C105.375 36.3496 104.138 36.8552 102.742 36.9818C102.71 36.9818 102.583 36.9818 102.298 37.0134C102.139 37.0134 101.917 37.0451 101.885 37.0451H101.853C101.6 37.1081 100.965 37.4241 100.965 37.9614C100.965 38.4354 101.251 39.0043 102.615 39.0992C102.9 39.1309 103.186 39.1309 103.503 39.1625C105.311 39.2887 107.563 39.4469 108.61 39.7944C110.069 40.3316 110.989 41.6273 110.989 43.1761C110.989 45.5147 109.308 47.6954 106.517 49.0541C105.153 49.6547 103.789 49.9707 102.298 49.9707ZM120.379 27.9432C119.713 27.9432 119.11 28.1011 118.666 28.4172C117.429 29.1757 116.794 30.6928 116.794 32.9049C116.794 37.0451 118.888 39.9526 121.87 39.9526C122.758 39.9526 123.456 39.6998 124.059 39.1941C124.979 38.4354 125.455 36.9185 125.455 34.8011C125.455 30.6928 123.393 27.9432 120.379 27.9432ZM120.95 41.4694C115.557 41.4694 113.622 37.5191 113.622 33.8215C113.622 31.2301 114.669 29.2389 116.763 27.8167C118.254 26.9003 120.03 26.3947 121.616 26.3947C125.74 26.3947 128.627 29.3339 128.627 33.5687C128.627 36.4445 127.485 38.7198 125.296 40.1105C124.249 40.8056 122.441 41.4694 120.95 41.4694ZM64.4218 27.9432C63.7555 27.9432 63.153 28.1011 62.7087 28.4172C61.4717 29.1757 60.8371 30.6928 60.8371 32.9049C60.8371 37.0451 62.9307 39.9526 65.9126 39.9526C66.8009 39.9526 67.4987 39.6998 68.1015 39.1941C69.0213 38.4354 69.4973 36.9185 69.4973 34.8011C69.4973 30.6928 67.467 27.9432 64.4218 27.9432ZM64.9929 41.4694C59.6001 41.4694 57.665 37.5191 57.665 33.8215C57.665 31.2301 58.7118 29.2389 60.8054 27.8167C62.2965 26.9003 64.0728 26.3947 65.6589 26.3947C69.7829 26.3947 72.6695 29.3339 72.6695 33.5687C72.6695 36.4445 71.5274 38.7198 69.3386 40.1105C68.3235 40.8056 66.5154 41.4694 64.9929 41.4694ZM28.7348 41.1534C28.6713 41.0587 28.6078 40.7743 28.6395 40.4266C28.6395 40.1737 28.703 40.0155 28.7348 39.9526C29.4008 39.8577 29.7498 39.7627 30.1303 39.6681C30.7649 39.5099 31.0186 39.1625 31.0504 38.3724C31.1457 36.4762 31.1457 32.8732 31.1139 30.3767V30.3135C31.1139 30.029 31.1139 29.6813 30.7649 29.4285C30.2574 29.1127 29.6546 28.8282 28.8615 28.6068C28.576 28.5121 28.3858 28.3539 28.4175 28.1644C28.4175 27.9749 28.6078 27.7537 29.0203 27.6904C30.0671 27.5955 32.795 26.932 33.8735 26.458C33.937 26.521 34.0323 26.7108 34.0323 26.9636L34.0005 27.3111C33.9688 27.6588 33.937 28.0698 33.937 28.4805C33.937 28.6068 34.0641 28.7017 34.1908 28.7017C34.2543 28.7017 34.3178 28.67 34.3813 28.6384C36.4114 27.0582 38.2513 26.4893 39.2028 26.4893C40.7574 26.4893 41.9627 27.2164 42.8828 28.7333C42.946 28.8282 43.0095 28.8596 43.1048 28.8596C43.1683 28.8596 43.2632 28.8282 43.295 28.7649C45.1666 27.3427 47.0382 26.4893 48.2752 26.4893C51.2254 26.4893 52.9703 28.67 52.9703 32.3676C52.9703 33.4105 52.9703 34.7695 52.9385 36.0022C52.9385 37.1081 52.9067 38.1196 52.9067 38.8464C52.9067 39.0043 53.1287 39.5099 53.4778 39.6048C53.9218 39.826 54.5246 39.9209 55.3176 40.0472H55.3494C55.4129 40.2684 55.2859 41.0901 55.1591 41.2483C54.9686 41.2483 54.6831 41.2483 54.3661 41.2166C53.7633 41.185 52.9067 41.1534 51.9552 41.1534C49.9883 41.1534 48.9733 41.185 47.9897 41.2483C47.9265 40.9955 47.8948 40.237 47.9897 40.0472C48.5608 39.9526 48.8463 39.8576 49.1953 39.7627C49.8299 39.5732 49.9883 39.2887 50.0201 38.467C50.0201 37.8668 50.1468 32.747 49.9566 31.5142C49.7663 30.2502 48.8145 28.7649 46.7209 28.7649C45.9279 28.7649 44.6908 29.081 43.4853 29.9974C43.422 30.0606 43.3585 30.2185 43.3585 30.3135V30.3451C43.4853 31.0086 43.4853 31.7674 43.4853 32.9365V34.9906C43.4853 36.4129 43.4535 37.7402 43.4853 38.7515C43.4853 39.4469 43.8978 39.6048 44.2468 39.7314C44.4371 39.7627 44.5638 39.7944 44.7226 39.826C45.0081 39.8893 45.2936 39.9526 45.7376 40.0472C45.8012 40.1737 45.8012 40.5845 45.7059 40.9322C45.6741 41.1217 45.6106 41.2166 45.5792 41.2483C44.5006 41.2166 43.3903 41.185 41.7724 41.185C41.2967 41.185 40.4719 41.2166 39.7738 41.2166C39.2028 41.2166 38.6635 41.2483 38.3465 41.2483C38.3148 41.185 38.2513 40.9638 38.2513 40.6161C38.2513 40.3316 38.3148 40.1105 38.3783 40.0472C38.5368 40.0155 38.6635 39.9842 38.8223 39.9842C39.2028 39.9209 39.5201 39.8577 39.8373 39.7944C40.3766 39.6365 40.5669 39.352 40.5986 38.6569C40.6939 37.0767 40.7889 32.5574 40.5669 31.4196C40.1864 29.5867 39.1396 28.67 37.4582 28.67C36.4749 28.67 35.2376 29.144 34.2226 29.9028C34.0641 30.029 33.937 30.3451 33.937 30.6296V32.4942C33.937 34.7695 33.937 37.614 33.9688 38.8464C34.0005 39.2255 34.1273 39.6681 34.8571 39.826C35.0156 39.8577 35.2693 39.9209 35.5866 39.9526L36.1577 40.0472C36.2212 40.237 36.1894 40.9955 36.0624 41.2483C35.7451 41.2483 35.3646 41.2166 34.9203 41.2166C34.2543 41.185 33.3978 41.1534 32.4462 41.1534C31.3359 41.1534 30.5429 41.185 29.9083 41.2166C29.4643 41.1534 29.1153 41.1534 28.7348 41.1534Z" fill="#442D22"/>
<path fill-rule="evenodd" clip-rule="evenodd" d="M12.0486 48.739L10.7481 48.2963C10.7481 48.2963 10.9069 41.6913 8.52776 41.2173C6.94168 39.3843 8.78152 -36.5269 14.4913 40.9645C14.4913 40.9645 12.5247 41.9441 12.1757 43.6191C11.7949 45.2626 12.0486 48.739 12.0486 48.739Z" fill="white"/>
<path fill-rule="evenodd" clip-rule="evenodd" d="M12.0486 48.739L10.7481 48.2963C10.7481 48.2963 10.9069 41.6913 8.52776 41.2173C6.94168 39.3843 8.78152 -36.5269 14.4913 40.9645C14.4913 40.9645 12.5247 41.9441 12.1757 43.6191C11.7949 45.2626 12.0486 48.739 12.0486 48.739Z" fill="#A6A385"/>
<path fill-rule="evenodd" clip-rule="evenodd" d="M12.7467 42.3551C12.7467 42.3551 24.1347 34.8967 21.4701 19.3793C18.9007 8.09705 12.8416 4.39948 12.1756 2.97723C11.4461 1.96598 10.748 0.196289 10.748 0.196289L11.2241 31.5782C11.2241 31.6098 10.2405 41.1856 12.7467 42.3551Z" fill="white"/>
<path fill-rule="evenodd" clip-rule="evenodd" d="M12.7467 42.3551C12.7467 42.3551 24.1347 34.8967 21.4701 19.3793C18.9007 8.09705 12.8416 4.39948 12.1756 2.97723C11.4461 1.96598 10.748 0.196289 10.748 0.196289L11.2241 31.5782C11.2241 31.6098 10.2405 41.1856 12.7467 42.3551Z" fill="#499D4A"/>
<path fill-rule="evenodd" clip-rule="evenodd" d="M10.0829 42.7654C10.0829 42.7654 -0.607379 35.4965 0.0271712 22.6974C0.629667 9.89797 8.17956 3.60901 9.63861 2.4712C10.5904 1.45995 10.6222 1.08059 10.6857 0.0693359C11.3517 1.49159 11.225 21.3384 11.32 23.677C11.6055 32.6839 10.8124 41.059 10.0829 42.7654Z" fill="white"/>
<path fill-rule="evenodd" clip-rule="evenodd" d="M10.0829 42.7654C10.0829 42.7654 -0.607379 35.4965 0.0271712 22.6974C0.629667 9.89797 8.17956 3.60901 9.63861 2.4712C10.5904 1.45995 10.6222 1.08059 10.6857 0.0693359C11.3517 1.49159 11.225 21.3384 11.32 23.677C11.6055 32.6839 10.8124 41.059 10.0829 42.7654Z" fill="#58AA50"/>
</g>
<defs>
<clipPath id="clip0_5122_12496">
<rect width="176" height="50" fill="white"/>
</clipPath>
</defs>
</svg>
