<svg width="114" height="114" viewBox="0 0 114 114" fill="none" xmlns="http://www.w3.org/2000/svg">
<g clip-path="url(#clip0_9681_54849)">
<path d="M56.9998 37.2999C55.9998 37.2999 55.2998 36.4999 55.2998 35.5999V21.4C55.2998 20.4 56.0998 19.7 56.9998 19.7C57.8998 19.7 58.6998 20.5 58.6998 21.4V35.7C58.6998 36.6 57.9998 37.2999 56.9998 37.2999Z" fill="#002548"/>
<path d="M56.9998 94.3C55.9998 94.3 55.2998 93.5 55.2998 92.6V78.4C55.2998 77.4 56.0998 76.7 56.9998 76.7C57.8998 76.7 58.6998 77.5 58.6998 78.4V92.7C58.6998 93.6 57.9998 94.3 56.9998 94.3Z" fill="#002548"/>
<path d="M38.4995 48.0001C38.1995 48.0001 37.8995 47.9001 37.5995 47.8001L25.2995 40.7001C24.4995 40.2001 24.1995 39.2001 24.6995 38.4001C25.1995 37.6001 26.1995 37.3001 26.9995 37.8001L39.2995 44.9001C40.0995 45.4001 40.3995 46.4001 39.8995 47.2001C39.6995 47.7001 39.0995 48.0001 38.4995 48.0001Z" fill="#002548"/>
<path d="M87.8999 76.5001C87.5999 76.5001 87.2999 76.4001 86.9999 76.3001L74.6999 69.2001C73.8999 68.7001 73.5999 67.7001 74.0999 66.9001C74.5999 66.1001 75.5999 65.8001 76.3999 66.3001L88.6999 73.4001C89.4999 73.9001 89.7999 74.9001 89.2999 75.7001C88.9999 76.2001 88.3999 76.5001 87.8999 76.5001Z" fill="#002548"/>
<path d="M26.0999 76.5C25.4999 76.5 24.8999 76.2 24.5999 75.6C24.0999 74.8 24.3999 73.7 25.1999 73.3L37.4999 66.2C38.2999 65.7 39.3999 66 39.7999 66.8C40.2999 67.6 39.9999 68.7 39.1999 69.1L26.9999 76.3C26.6999 76.5 26.3999 76.5 26.0999 76.5Z" fill="#002548"/>
<path d="M75.5003 48C74.9003 48 74.3003 47.7 74.0003 47.1C73.5003 46.3 73.8003 45.2 74.6003 44.8L87.0003 37.7C87.8003 37.2 88.9003 37.5 89.3003 38.3C89.8003 39.1 89.5003 40.2 88.7003 40.6L76.4003 47.7C76.1003 48 75.8003 48 75.5003 48Z" fill="#002548"/>
<path d="M67.7 10.7C67.7 15.4 64.7 19.4 60.5 20.8C59.4 21.2 58.3 21.4 57.1 21.4C51.2 21.4 46.4 16.6 46.4 10.7C46.3 4.8 51.1 0 57 0C58.2 0 59.4 0.2 60.4 0.6C64.7 2 67.7 6 67.7 10.7Z" fill="#0054A6"/>
<path d="M67.7004 103.3C67.7004 108 64.7004 112 60.5004 113.4C59.4004 113.8 58.3004 114 57.1004 114C51.2004 114 46.4004 109.2 46.4004 103.3C46.4004 97.4001 51.2004 92.6001 57.1004 92.6001C58.3004 92.6001 59.5004 92.8001 60.5004 93.2001C64.7004 94.6001 67.7004 98.6001 67.7004 103.3Z" fill="#0054A6"/>
<path d="M26.1999 39.2C24.7999 41.5 22.6999 43.2 20.3999 44C17.5999 45 14.3999 44.7 11.5999 43.1C6.49989 40.1 4.69989 33.6 7.69989 28.5C10.2999 24 15.6999 22.1 20.3999 23.7C20.9999 23.9 21.6999 24.2 22.2999 24.6C27.2999 27.5 29.0999 34.1 26.1999 39.2Z" fill="#0054A6"/>
<path d="M106.4 85.5C105.1 87.8 102.9 89.5 100.6 90.3C97.8001 91.3 94.6001 91 91.8001 89.4C86.7001 86.4 84.9001 79.9 87.9001 74.8C90.5001 70.3 95.9001 68.4 100.6 70C101.3 70.2 101.9 70.5 102.5 70.9C107.6 73.8 109.3 80.4 106.4 85.5Z" fill="#0054A6"/>
<path d="M22.2003 89.4001C21.6003 89.8001 20.9003 90.0001 20.3003 90.3001C15.6003 91.9001 10.2003 90.0001 7.60028 85.5001C4.60028 80.4001 6.40028 73.8001 11.5003 70.9001C14.3003 69.3001 17.5003 69.1001 20.3003 70.0001C22.7003 70.8001 24.8003 72.4001 26.1003 74.8001C29.1003 79.9001 27.3003 86.5001 22.2003 89.4001Z" fill="#0054A6"/>
<path d="M102.5 43.1C101.9 43.5 101.3 43.7 100.6 44C95.8996 45.6 90.4996 43.7 87.8996 39.2C84.9996 34.1 86.6996 27.5 91.7996 24.6C94.5996 23 97.7996 22.8 100.6 23.7C103 24.5 105.1 26.1 106.4 28.5C109.3 33.6 107.6 40.1 102.5 43.1Z" fill="#0054A6"/>
<path d="M57.0004 14.3001C58.9886 14.3001 60.6004 12.6883 60.6004 10.7001C60.6004 8.71187 58.9886 7.1001 57.0004 7.1001C55.0122 7.1001 53.4004 8.71187 53.4004 10.7001C53.4004 12.6883 55.0122 14.3001 57.0004 14.3001Z" fill="#FFDD33"/>
<path d="M57.0004 106.9C58.9886 106.9 60.6004 105.288 60.6004 103.3C60.6004 101.312 58.9886 99.7 57.0004 99.7C55.0122 99.7 53.4004 101.312 53.4004 103.3C53.4004 105.288 55.0122 106.9 57.0004 106.9Z" fill="#FFDD33"/>
<path d="M16.8998 37.4C18.888 37.4 20.4998 35.7882 20.4998 33.7999C20.4998 31.8117 18.888 30.2 16.8998 30.2C14.9116 30.2 13.2998 31.8117 13.2998 33.7999C13.2998 35.7882 14.9116 37.4 16.8998 37.4Z" fill="#FFDD33"/>
<path d="M97.1 83.8001C99.0882 83.8001 100.7 82.1883 100.7 80.2001C100.7 78.2119 99.0882 76.6001 97.1 76.6001C95.1118 76.6001 93.5 78.2119 93.5 80.2001C93.5 82.1883 95.1118 83.8001 97.1 83.8001Z" fill="#FFDD33"/>
<path d="M16.8998 83.8001C18.888 83.8001 20.4998 82.1883 20.4998 80.2001C20.4998 78.2119 18.888 76.6001 16.8998 76.6001C14.9116 76.6001 13.2998 78.2119 13.2998 80.2001C13.2998 82.1883 14.9116 83.8001 16.8998 83.8001Z" fill="#FFDD33"/>
<path d="M97.1 37.4C99.0882 37.4 100.7 35.7882 100.7 33.7999C100.7 31.8117 99.0882 30.2 97.1 30.2C95.1118 30.2 93.5 31.8117 93.5 33.7999C93.5 35.7882 95.1118 37.4 97.1 37.4Z" fill="#FFDD33"/>
<path d="M78.3996 37.2001V76.7001C78.3996 77.6001 77.6996 78.3001 76.7996 78.3001H37.1996C36.2996 78.3001 35.5996 77.6001 35.5996 76.7001V37.2001C35.5996 36.3001 36.2996 35.6001 37.1996 35.6001H51.5996L56.8996 37.9001L62.1996 35.6001H76.5996C77.6996 35.6001 78.3996 36.3001 78.3996 37.2001Z" fill="#FFBD86"/>
<path d="M62.3002 35.6001H51.7002V47.7001C51.7002 48.6001 52.7002 49.2001 53.5002 48.7001L56.4002 46.8001C56.8002 46.5001 57.3002 46.5001 57.7002 46.8001L60.6002 48.7001C61.4002 49.2001 62.4002 48.7001 62.4002 47.7001V35.6001H62.3002Z" fill="#0054A6"/>
<path d="M51.6996 65.2999H42.7996C41.7996 65.2999 41.0996 64.4999 41.0996 63.5999C41.0996 62.5999 41.8996 61.8999 42.7996 61.8999H51.6996C52.6996 61.8999 53.3996 62.6999 53.3996 63.5999C53.3996 64.4999 52.5996 65.2999 51.6996 65.2999Z" fill="#F9FAFB"/>
<path d="M51.6996 72.4H42.7996C41.7996 72.4 41.0996 71.6 41.0996 70.7C41.0996 69.7 41.8996 69 42.7996 69H51.6996C52.6996 69 53.3996 69.8 53.3996 70.7C53.3996 71.6 52.5996 72.4 51.6996 72.4Z" fill="#F9FAFB"/>
</g>
<defs>
<clipPath id="clip0_9681_54849">
<rect width="114" height="114" fill="white"/>
</clipPath>
</defs>
</svg>
