<svg width="112" height="112" viewBox="0 0 112 112" fill="none" xmlns="http://www.w3.org/2000/svg">
<path d="M78.6502 58.34V65.98C78.6502 66.62 78.1302 67.13 77.4902 67.13C76.8602 67.13 76.3402 66.62 76.3402 65.98V59.49H18.2502V65.98C18.2502 66.62 17.7302 67.13 17.1002 67.13C16.4602 67.13 15.9502 66.62 15.9502 65.98V58.34C15.9502 57.7 16.4602 57.19 17.1002 57.19H46.1402V49.61C46.1402 48.98 46.6502 48.46 47.2902 48.46C47.9302 48.46 48.4402 48.98 48.4402 49.61V57.19H77.4802C78.1302 57.19 78.6502 57.7 78.6502 58.34Z" fill="#FFDD33"/>
<path d="M56.9901 56.62V59.92C56.9901 60.47 56.5401 60.92 55.9901 60.92H38.5801C38.0301 60.92 37.5801 60.47 37.5801 59.92V56.62C37.5801 56.07 38.0301 55.62 38.5801 55.62H55.9901C56.5501 55.62 56.9901 56.07 56.9901 56.62Z" fill="#54CC5A"/>
<path d="M88.1504 36.83C88.1504 40.51 86.6604 43.84 84.2504 46.25C81.8404 48.66 78.5104 50.15 74.8304 50.15H21.1204C13.0104 50.15 6.44043 43.58 6.44043 35.47C6.44043 31.42 8.08043 27.75 10.7404 25.09C12.7604 23.07 15.3704 21.63 18.2904 21.06C18.8004 15.91 23.1404 11.89 28.4304 11.89C29.8304 11.89 31.1604 12.17 32.3804 12.68C36.4704 5.13 44.4604 0 53.6604 0C66.9004 0 77.6704 10.65 77.8504 23.85C83.7504 25.22 88.1504 30.51 88.1504 36.83Z" fill="#0054A6"/>
<path d="M31.67 68.24V103.32C31.67 105.05 30.27 106.45 28.54 106.45H5.19004C3.45004 106.45 2.04004 105.05 2.04004 103.32V68.24C2.04004 66.51 3.44004 65.11 5.19004 65.11H28.53C30.26 65.11 31.67 66.51 31.67 68.24Z" fill="#002548"/>
<path d="M29.8903 69.09V102.47C29.8903 103.51 29.0003 104.36 27.9103 104.36H5.82031C4.72031 104.36 3.82031 103.5 3.82031 102.45V69.11C3.82031 68.06 4.71031 67.2 5.82031 67.2H27.9203C29.0103 67.2 29.8903 68.05 29.8903 69.09Z" fill="#D2D9DC"/>
<path d="M109.95 105.91V107.11C109.95 109.81 107.76 112 105.06 112H49.9203C47.2203 112 45.0303 109.81 45.0303 107.11V105.91C45.0303 105.35 45.4803 104.9 46.0403 104.9H108.93C109.5 104.9 109.95 105.35 109.95 105.91Z" fill="#839299"/>
<path d="M87.19 104.9V106.22C87.19 107.22 86.39 108.03 85.38 108.03H69.6C68.61 108.03 67.79 107.23 67.79 106.22V104.9H87.19Z" fill="#5F737C"/>
<path d="M106.54 69.02V104.9H48.4404V69.02C48.4404 66.78 50.2604 64.96 52.5004 64.96H102.49C104.73 64.96 106.54 66.78 106.54 69.02Z" fill="#002548"/>
<path d="M103.55 69.77V104.9H51.4297V69.77C51.4297 68.6 52.3997 67.64 53.5797 67.64H101.4C102.59 67.64 103.55 68.6 103.55 69.77Z" fill="#D2D9DC"/>
<path d="M51.3998 108.45C51.3998 109.09 50.8798 109.6 50.2398 109.6C49.6198 109.6 49.0898 109.09 49.0898 108.45C49.0898 107.81 49.6098 107.3 50.2398 107.3C50.8698 107.3 51.3998 107.81 51.3998 108.45Z" fill="#54CC5A"/>
<path d="M55.8703 108.45C55.8703 109.09 55.3603 109.6 54.7203 109.6C54.0803 109.6 53.5703 109.09 53.5703 108.45C53.5703 107.81 54.0803 107.3 54.7203 107.3C55.3503 107.3 55.8703 107.81 55.8703 108.45Z" fill="#FFDD33"/>
<path d="M60.35 108.45C60.35 109.09 59.84 109.6 59.2 109.6C58.56 109.6 58.04 109.09 58.04 108.45C58.04 107.81 58.56 107.3 59.2 107.3C59.83 107.3 60.35 107.81 60.35 108.45Z" fill="#ED1C24"/>
<path d="M60.4504 30.59L58.2804 29.33C58.4004 28.67 58.4804 27.99 58.4804 27.29C58.4804 26.59 58.4104 25.91 58.2904 25.25L60.4504 24C61.3404 23.49 61.6504 22.35 61.1304 21.46L59.2704 18.23C58.7604 17.34 57.6204 17.03 56.7304 17.55L55.6304 18.19C55.0304 18.54 54.2704 18.54 53.7004 18.14C53.1804 17.77 52.6204 17.45 52.0404 17.18C51.4104 16.89 51.0304 16.22 51.0304 15.53V14.26C51.0304 13.23 50.2004 12.4 49.1704 12.4H45.4404C44.4104 12.4 43.5804 13.23 43.5804 14.26V15.53C43.5804 16.23 43.2004 16.89 42.5704 17.18C41.9904 17.45 41.4304 17.77 40.9104 18.14C40.3404 18.54 39.5804 18.53 38.9804 18.19L37.8804 17.55C36.9904 17.04 35.8504 17.34 35.3404 18.23L33.4804 21.46C32.9704 22.35 33.2704 23.49 34.1604 24L36.3304 25.26C36.2104 25.92 36.1304 26.6 36.1304 27.3C36.1304 28 36.2004 28.68 36.3204 29.34L34.1504 30.6C33.2604 31.11 32.9504 32.25 33.4704 33.14L35.3304 36.37C35.8404 37.26 36.9804 37.57 37.8704 37.05L38.9704 36.41C39.5704 36.06 40.3304 36.06 40.9004 36.46C41.4204 36.83 41.9804 37.15 42.5604 37.42C43.1904 37.71 43.5704 38.38 43.5704 39.07V40.34C43.5704 41.37 44.4004 42.2 45.4304 42.2H49.1604C50.1904 42.2 51.0204 41.37 51.0204 40.34V39.07C51.0204 38.37 51.4004 37.71 52.0304 37.42C52.6104 37.15 53.1704 36.83 53.6904 36.46C54.2604 36.06 55.0204 36.07 55.6204 36.41L56.7204 37.05C57.6104 37.56 58.7504 37.26 59.2604 36.37L61.1204 33.14C61.6504 32.24 61.3404 31.1 60.4504 30.59ZM47.3004 34.75C43.1904 34.75 39.8504 31.41 39.8504 27.3C39.8504 23.19 43.1904 19.85 47.3004 19.85C51.4104 19.85 54.7504 23.19 54.7504 27.3C54.7504 31.41 51.4104 34.75 47.3004 34.75Z" fill="#F9FAFB"/>
</svg>
