<svg width="152" height="112" viewBox="0 0 152 112" fill="none" xmlns="http://www.w3.org/2000/svg">
<g clip-path="url(#clip0_5891_10589)">
<path d="M125.201 101.1H26.8008C23.8008 101.1 21.3008 98.7 21.3008 95.6V35.5H130.601V95.6C130.601 98.6 128.201 101.1 125.201 101.1Z" fill="#D2D9DC"/>
<path d="M130.6 35.5001H21.4004V24.6001C21.4004 21.6001 23.8004 19.1001 26.9004 19.1001H125.2C128.2 19.1001 130.7 21.5001 130.7 24.6001V35.5001H130.6Z" fill="#002548"/>
<path d="M119.7 30.0001C121.191 30.0001 122.4 28.7913 122.4 27.3001C122.4 25.8089 121.191 24.6001 119.7 24.6001C118.209 24.6001 117 25.8089 117 27.3001C117 28.7913 118.209 30.0001 119.7 30.0001Z" fill="#ED1C24"/>
<path d="M108.802 30.0001C110.293 30.0001 111.502 28.7913 111.502 27.3001C111.502 25.8089 110.293 24.6001 108.802 24.6001C107.31 24.6001 106.102 25.8089 106.102 27.3001C106.102 28.7913 107.31 30.0001 108.802 30.0001Z" fill="#FFDD33"/>
<path d="M97.9012 30.0001C99.3923 30.0001 100.601 28.7913 100.601 27.3001C100.601 25.8089 99.3923 24.6001 97.9012 24.6001C96.41 24.6001 95.2012 25.8089 95.2012 27.3001C95.2012 28.7913 96.41 30.0001 97.9012 30.0001Z" fill="#54CC5A"/>
<path d="M81.5 41.4001V13.7001H84.2C85.3 13.7001 86.3 13.0001 86.7 12.0001C87.1 11.0001 86.9 9.8001 86.1 9.0001L77.9 0.800098C76.8 -0.299902 75.1 -0.299902 74 0.800098L65.9 9.0001C65.1 9.8001 64.9 11.0001 65.3 12.0001C65.7 13.0001 66.7 13.7001 67.8 13.7001H70.5V41.4001C53.5 44.0001 40.5 58.7001 40.5 76.5001C40.5 96.1001 56.4 112 76 112C95.6 112 111.5 96.1001 111.5 76.5001C111.5 58.7001 98.5 44.0001 81.5 41.4001Z" fill="#0054A6"/>
<path d="M56.7017 81.3002L59.9017 79.5002C59.7017 78.5002 59.6017 77.5002 59.6017 76.5002C59.6017 75.5002 59.7017 74.5002 59.9017 73.5002L56.7017 71.7002C55.4017 70.9002 54.9017 69.3002 55.7017 68.0002L58.4017 63.3002C59.2017 62.0002 60.8017 61.5002 62.1017 62.3002L63.7017 63.2002C64.6017 63.7002 65.7017 63.7002 66.5017 63.1002C67.3017 62.6002 68.1017 62.1002 68.9017 61.7002C69.8017 61.3002 70.4017 60.3002 70.4017 59.3002V57.4002C70.4017 55.9002 71.6017 54.7002 73.1017 54.7002H78.6017C80.1017 54.7002 81.3017 55.9002 81.3017 57.4002V59.3002C81.3017 60.3002 81.9017 61.3002 82.8017 61.7002C83.7017 62.1002 84.5017 62.6002 85.2017 63.1002C86.0017 63.7002 87.2017 63.7002 88.0017 63.2002L89.6017 62.3002C90.9017 61.5002 92.6017 62.0002 93.3017 63.3002L96.0017 68.0002C96.8017 69.3002 96.3017 71.0002 95.0017 71.7002L91.8017 73.5002C92.0017 74.5002 92.1017 75.5002 92.1017 76.5002C92.1017 77.5002 92.0017 78.5002 91.8017 79.5002L95.0017 81.3002C96.3017 82.1002 96.8017 83.7002 96.0017 85.0002L93.3017 89.7002C92.5017 91.0002 90.9017 91.5002 89.6017 90.7002L88.0017 89.8002C87.1017 89.3002 86.0017 89.3002 85.2017 89.9002C84.4017 90.4002 83.6017 90.9002 82.8017 91.3002C81.9017 91.7002 81.3017 92.7002 81.3017 93.7002V95.6002C81.3017 97.1002 80.1017 98.3002 78.6017 98.3002H73.1017C71.6017 98.3002 70.4017 97.1002 70.4017 95.6002V93.7002C70.4017 92.7002 69.8017 91.7002 68.9017 91.3002C68.0017 90.9002 67.2017 90.4002 66.5017 89.9002C65.7017 89.3002 64.5017 89.3002 63.7017 89.8002L62.1017 90.7002C60.8017 91.5002 59.1017 91.0002 58.4017 89.7002L55.7017 85.0002C55.0017 83.7002 55.4017 82.1002 56.7017 81.3002ZM76.0017 87.4002C82.0017 87.4002 86.9017 82.5002 86.9017 76.5002C86.9017 70.5002 82.0017 65.6002 76.0017 65.6002C70.0017 65.6002 65.1017 70.5002 65.1017 76.5002C65.1017 82.5002 70.0017 87.4002 76.0017 87.4002Z" fill="#F9FAFB"/>
</g>
<defs>
<clipPath id="clip0_5891_10589">
<rect width="152" height="112" fill="white"/>
</clipPath>
</defs>
</svg>
