<svg width="60" height="60" viewBox="0 0 60 60" fill="none" xmlns="http://www.w3.org/2000/svg">
<g clip-path="url(#clip0_9995_61072)">
<path fill-rule="evenodd" clip-rule="evenodd" d="M44.2004 3.2C45.9004 3.6 47.6004 4.3 49.1004 5.2L52.3004 3.8L56.0004 7.6L54.6004 10.8C55.5004 12.3 56.2004 14 56.6004 15.7L59.8004 16.9V22.2L56.6004 23.4C56.2004 25.1 55.5004 26.8 54.6004 28.3L56.0004 31.5L52.3004 35.2L49.1004 33.8C47.6004 34.7 45.9004 35.4 44.2004 35.8L43.0004 39.2H37.7004L36.5004 36C34.8004 35.6 33.1004 34.9 31.6004 34L28.4004 35.4L24.7004 31.7L26.1004 28.5C25.2004 27 24.5004 25.3 24.1004 23.6L20.9004 22.4V17.1L24.1004 15.9C24.5004 14.2 25.2004 12.5 26.1004 11L24.7004 7.8L28.4004 4.1L31.6004 5.5C33.1004 4.6 34.8004 3.9 36.5004 3.5L37.7004 0H43.0004L44.2004 3.2Z" fill="#839299"/>
<path d="M40.3004 30.5C46.3203 30.5 51.2004 25.6199 51.2004 19.6C51.2004 13.5801 46.3203 8.70001 40.3004 8.70001C34.2805 8.70001 29.4004 13.5801 29.4004 19.6C29.4004 25.6199 34.2805 30.5 40.3004 30.5Z" fill="#FFDD33"/>
<path opacity="0.19" fill-rule="evenodd" clip-rule="evenodd" d="M44.7003 15.8C45.0003 16.4 44.7003 17.2 44.0003 17.4C43.4003 17.7 42.6003 17.4 42.4003 16.7C42.1003 16 41.6003 15.6 41.0003 15.5C40.6003 15.4 40.2003 15.4 39.9003 15.5C39.5003 15.6 39.2003 15.7 39.0003 15.9C38.7003 16.1 38.5003 16.5 38.5003 16.9C38.5003 17.3 38.7003 17.5 39.0003 17.7C39.4003 18 40.0003 18.1 40.6003 18.2C41.5003 18.3 42.4003 18.6 43.3003 19.1C44.3003 19.7 45.0003 20.6 45.2003 21.9C45.2003 22 45.2003 22.1 45.2003 22.3C45.2003 23.5 44.7003 24.5 43.8003 25.1C43.2003 25.6 42.4003 25.9 41.7003 26V26.4C41.7003 27.1 41.1003 27.7 40.4003 27.7C39.7003 27.7 39.1003 27.1 39.1003 26.4V26C38.5003 25.9 37.9003 25.6 37.4003 25.3C36.5003 24.7 35.9003 23.9 35.6003 22.8C35.4003 22.1 35.8003 21.4 36.5003 21.3C37.2003 21.1 37.9003 21.5 38.0003 22.2C38.1003 22.7 38.4003 23 38.7003 23.2C39.2003 23.5 39.7003 23.6 40.3003 23.6C40.4003 23.6 40.5003 23.6 40.7003 23.6C41.2003 23.5 41.7003 23.4 42.1003 23.1C42.3003 22.9 42.5003 22.7 42.5003 22.3V22.2C42.4003 21.8 42.2003 21.5 41.8003 21.3C41.3003 21 40.7003 20.8 40.0003 20.7C39.1003 20.6 38.2003 20.3 37.4003 19.8C36.5003 19.2 35.8003 18.3 35.8003 17C35.7003 15.7 36.3003 14.6 37.2003 13.9C37.7003 13.5 38.3003 13.2 38.9003 13V12.5C38.9003 11.8 39.5003 11.2 40.2003 11.2C40.9003 11.2 41.5003 11.8 41.5003 12.5V12.9C42.9003 13.5 44.1003 14.3 44.7003 15.8Z" fill="#2D2F31"/>
<path fill-rule="evenodd" clip-rule="evenodd" d="M1.30035 60H29.0004C29.8004 60 30.3004 59.3 30.2004 58.6C28.8004 51.6 22.6004 46.4 15.2004 46.4C7.80035 46.4 1.60035 51.7 0.200351 58.6C0.000351176 59.3 0.500351 60 1.30035 60Z" fill="#0054A6"/>
<path d="M15.1004 45C19.353 45 22.8004 41.5526 22.8004 37.3C22.8004 33.0474 19.353 29.6 15.1004 29.6C10.8478 29.6 7.40039 33.0474 7.40039 37.3C7.40039 41.5526 10.8478 45 15.1004 45Z" fill="#FED2A4"/>
</g>
<defs>
<clipPath id="clip0_9995_61072">
<rect width="60" height="60" fill="white"/>
</clipPath>
</defs>
</svg>
