<svg width="48" height="48" viewBox="0 0 48 48" fill="none" xmlns="http://www.w3.org/2000/svg">
<g clip-path="url(#clip0_11826_17302)">
<path d="M20.3984 33.1L18.8984 32.8C18.8984 32.7 18.7984 32.5 18.6984 32.4L19.5984 31.1C19.7984 30.8 19.7984 30.4 19.4984 30.2L18.1984 28.9C17.9984 28.7 17.5984 28.6 17.2984 28.8L15.9984 29.7C15.8984 29.6 15.6984 29.6 15.5984 29.5L15.3984 28.4L15.2984 28C15.2984 27.9 15.1984 27.8 15.1984 27.7C15.0984 27.5 14.8984 27.4 14.5984 27.4H12.6984C12.4984 27.4 12.2984 27.5 12.0984 27.7C11.9984 27.8 11.9984 27.9 11.9984 28V28.5L11.7984 29.6C11.6984 29.7 11.4984 29.7 11.3984 29.8L10.1984 28.9C9.89844 28.7 9.49844 28.7 9.29844 29L7.99844 30.3C7.79844 30.5 7.69844 30.9 7.89844 31.2L8.79844 32.5C8.69844 32.6 8.69844 32.8 8.59844 32.9L6.99844 33.1C6.69844 33.2 6.39844 33.5 6.39844 33.8V35.7C6.39844 36 6.59844 36.3 6.99844 36.4L8.59844 36.7C8.59844 36.8 8.69844 37 8.79844 37.1L7.89844 38.4C7.69844 38.7 7.69844 39.1 7.99844 39.3L9.29844 40.6C9.49844 40.8 9.89844 40.9 10.1984 40.7L11.4984 39.8C11.5984 39.9 11.7984 39.9 11.8984 40L12.1984 41.6C12.2984 41.9 12.5984 42.2 12.8984 42.2H14.7984C15.0984 42.2 15.3984 42 15.4984 41.6L15.7984 40C15.8984 40 16.0984 39.9 16.1984 39.8L17.4984 40.7C17.7984 40.9 18.1984 40.9 18.3984 40.6L19.6984 39.3C19.8984 39.1 19.9984 38.7 19.7984 38.4L18.8984 37.1C18.9984 37 18.9984 36.8 19.0984 36.7L20.5984 36.4C20.8984 36.3 21.1984 36 21.1984 35.7V33.8C20.9984 33.5 20.6984 33.2 20.3984 33.1ZM13.6984 37.6C12.1984 37.6 10.8984 36.4 10.8984 34.8C10.8984 33.3 12.0984 32 13.6984 32C15.1984 32 16.4984 33.3 16.4984 34.8C16.4984 36.3 15.1984 37.6 13.6984 37.6Z" fill="#839299"/>
<path fill-rule="evenodd" clip-rule="evenodd" d="M40.4 40.5H28C27.7 40.5 27.5 40.3 27.5 40V29.6C27.5 29.3 27.7 29.1 28 29.1H40.4C40.7 29.1 40.9 29.3 40.9 29.6V40C40.9 40.3 40.7 40.5 40.4 40.5Z" fill="#FED2A4"/>
<path fill-rule="evenodd" clip-rule="evenodd" d="M32 29.1H36.4V33.9C36.4 34.2 36.2 34.4 35.9 34.4C35.3 34.4 34.5 32.7 34 33.2C33.4 33.8 32.8 34.6 32.4 34.4C32.2 34.3 32.1 34.1 32.1 33.9V29.1H32Z" fill="#0054A6"/>
<path fill-rule="evenodd" clip-rule="evenodd" d="M36.8016 22C36.5016 22 31.6016 22.2 31.6016 21.5V5.19999C30.8016 5.19999 30.1016 5.29999 29.9016 4.89999C29.8016 4.69999 29.8016 4.49999 30.0016 4.29999L34.1016 0.199988C34.3016 -1.22041e-05 34.7016 -1.22041e-05 34.9016 0.199988L39.0016 4.29999C39.3016 4.59999 39.1016 5.19999 38.6016 5.19999H37.4016V21.4C37.3016 21.7 37.1016 22 36.8016 22Z" fill="#54CC5A"/>
<path fill-rule="evenodd" clip-rule="evenodd" d="M26.4032 21.9L21.2032 21.4V8.99998C20.4032 8.99998 19.7032 9.19998 19.5032 8.69998C19.4032 8.49998 19.4032 8.29998 19.6032 8.09998L23.7032 3.99998C23.9032 3.79998 24.3032 3.79998 24.5032 3.99998L28.5032 7.99998C28.8032 8.39998 28.6032 8.99998 28.1032 8.99998H26.9032V21.4C26.9032 21.7 26.7032 21.9 26.4032 21.9Z" fill="#54CC5A"/>
<path fill-rule="evenodd" clip-rule="evenodd" d="M10.7032 21.6V13.6C9.90319 13.6 9.20319 13.8 9.00319 13.3C8.90319 13.1 8.90319 12.9 9.10319 12.7L13.2032 8.59998C13.4032 8.39998 13.8032 8.39998 14.0032 8.59998L18.1032 12.7C18.4032 13 18.2032 13.6 17.7032 13.6H16.5032V21.6H10.7032Z" fill="#54CC5A"/>
<path fill-rule="evenodd" clip-rule="evenodd" d="M41.1047 22.6H6.90469C5.60469 22.6 5.60469 20.6 6.90469 20.6H41.1047C42.4047 20.6 42.4047 22.6 41.1047 22.6Z" fill="#0054A6"/>
<path d="M34.6016 23.8L35.5016 22.9C35.8016 22.6 35.8016 22.1 35.5016 21.8C35.2016 21.5 34.7016 21.5 34.5016 21.8L32.3016 24C32.0016 24.3 32.0016 24.8 32.3016 25.1L34.5016 27.3C34.6016 27.4 34.8016 27.5 35.0016 27.5C35.4016 27.5 35.8016 27.1 35.8016 26.7C35.8016 26.5 35.7016 26.3 35.6016 26.2L34.7016 25.3C39.8016 25.5 43.8016 29.7 43.8016 34.8C43.3016 47.4 25.4016 47.4 24.9016 34.8C24.9016 28.7 20.0016 23.8 13.9016 23.8C-0.4984 24.4 -0.7984 44.8 13.5016 45.8L12.6016 46.7C12.3016 47 12.3016 47.5 12.6016 47.8C12.9016 48.1 13.4016 48.1 13.7016 47.8L15.9016 45.6C16.2016 45.3 16.2016 44.8 15.9016 44.5L13.7016 42.3C13.4016 42 12.9016 42 12.6016 42.3C12.3016 42.6 12.3016 43.1 12.6016 43.3L13.5016 44.2C1.2016 43.2 1.6016 25.8 13.9016 25.3C19.1016 25.3 23.4016 29.5 23.4016 34.8C23.4016 40.9 28.3016 45.8 34.4016 45.8C48.6016 45.2 48.9016 24.9 34.6016 23.8Z" fill="#002548"/>
</g>
<defs>
<clipPath id="clip0_11826_17302">
<rect width="48" height="48" fill="white"/>
</clipPath>
</defs>
</svg>
