<svg width="65" height="65" viewBox="0 0 65 65" fill="none" xmlns="http://www.w3.org/2000/svg">
<path d="M38.2727 0C37.8027 0 37.3663 0.101118 36.9634 0.235934C37.8195 0.808915 38.2895 1.56728 38.5245 2.42675C38.5414 2.54472 38.5749 2.62898 38.5917 2.74695C38.6085 2.84806 38.6253 2.94918 38.6253 3.05029C38.6924 4.5333 38.2392 4.71868 37.9202 5.59501C37.4334 6.72413 37.5677 7.9375 38.1552 8.91494C38.2056 9.03291 38.2727 9.16773 38.3567 9.2857C37.7188 5.02203 41.2607 4.38163 41.9154 3.05029C41.9657 1.88747 41.0089 1.11226 40.2535 0.572982C39.5317 0.13482 38.877 0 38.2727 0ZM43.6108 0.960589C43.5436 1.34819 43.594 1.24708 43.5773 1.44931C43.5605 1.58413 43.5605 1.75266 43.5437 1.88747C43.5102 2.02229 43.4765 2.15711 43.4262 2.29194C43.3927 2.42675 43.3423 2.56157 43.2919 2.69639C43.2247 2.83121 43.1744 2.94918 43.1073 3.084C43.0569 3.15143 43.0233 3.21881 42.973 3.28623C42.9394 3.33678 42.9058 3.38734 42.8723 3.4379C42.7883 3.55587 42.7044 3.67383 42.6205 3.77495C42.5197 3.87606 42.4358 3.99403 42.3183 4.07829C42.3183 4.09517 42.3183 4.09517 42.3183 4.09517C42.2176 4.17943 42.1169 4.28055 41.9994 4.3648C41.6469 4.63444 41.244 4.83667 40.8747 5.08946C40.7572 5.17372 40.6397 5.24114 40.539 5.34225C40.4215 5.42651 40.3207 5.51077 40.22 5.61188C40.1025 5.713 40.0186 5.81412 39.9179 5.93208C39.8339 6.0332 39.7332 6.15116 39.6661 6.26914C39.5821 6.3871 39.4982 6.50507 39.4311 6.62303C39.3639 6.75785 39.3135 6.87582 39.2464 7.01064C39.196 7.14545 39.1457 7.26342 39.1121 7.39824C39.0618 7.54991 39.0282 7.68473 38.9946 7.81956C38.9778 7.88699 38.9778 7.97123 38.9611 8.03864C38.9442 8.10607 38.9442 8.17345 38.9275 8.24087C38.9275 8.37568 38.9107 8.52736 38.9107 8.66218C38.9107 8.76329 38.9107 8.86441 38.9275 8.96552C38.9275 9.10034 38.9443 9.23516 38.9779 9.38683C38.9947 9.52165 39.0282 9.65647 39.0618 9.79129C39.1122 9.92611 39.1457 10.0609 39.1961 10.1957C39.2297 10.28 39.28 10.3643 39.3136 10.4317L35.4527 8.93181C34.7981 8.74644 34.1602 8.57792 33.5055 8.42624C33.153 8.34198 32.8005 8.25772 32.448 8.17346C31.4408 7.97123 30.4168 7.81956 29.3929 7.71845C29.3593 7.71845 29.3425 7.70157 29.3089 7.70157C28.3018 7.60046 27.3114 7.5499 26.3042 7.5499C25.5656 7.5499 24.827 7.58358 24.1052 7.63416C23.0812 7.7016 22.0572 7.83639 21.0333 8.00491C20.7815 8.03859 20.5297 8.08918 20.2779 8.13974C19.7575 8.24084 19.2539 8.35881 18.7671 8.47678C18.5153 8.54422 18.2635 8.6116 18.0117 8.67901C17.7599 8.78012 17.5249 8.89809 17.2899 8.99921C17.1053 9.08347 16.9206 9.16773 16.736 9.252C16.7024 9.26887 16.6688 9.26887 16.652 9.28568C16.4842 9.36994 16.3331 9.43734 16.182 9.52161C16.1317 9.53848 16.0981 9.55529 16.0645 9.57217C15.8799 9.65643 15.6952 9.75754 15.5441 9.8418C15.4266 9.89236 15.3091 9.95977 15.2084 10.0103C15.158 10.044 15.0909 10.0778 15.0573 10.0946C14.9063 10.1789 14.7552 10.2631 14.6209 10.3474C14.4698 10.4316 14.3355 10.5159 14.218 10.6002C14.1005 10.6844 13.983 10.7518 13.8823 10.8361C13.8655 10.853 13.8487 10.853 13.8319 10.8698C13.7312 10.9372 13.6137 11.0214 13.513 11.1057C13.513 11.1057 13.4962 11.1226 13.4794 11.1394C13.3955 11.2068 13.3116 11.2742 13.2276 11.3416C13.1941 11.3585 13.1605 11.3922 13.1269 11.409C13.043 11.4765 12.9591 11.5607 12.8751 11.6281C12.8583 11.6618 12.8248 11.6787 12.808 11.6956C12.7072 11.7967 12.6065 11.8809 12.5058 11.9821C12.489 11.9821 12.489 11.9989 12.4723 12.0157C12.3715 12.1 12.2708 12.2011 12.1701 12.3022C12.1533 12.3191 12.1533 12.3359 12.1366 12.3359C12.0526 12.4202 11.9687 12.5044 11.8848 12.6055C11.8512 12.6392 11.8008 12.673 11.7673 12.7067C11.6833 12.8078 11.5826 12.9089 11.4819 13.01C11.4651 13.0437 11.4315 13.0606 11.4147 13.0943C11.2804 13.2291 11.1629 13.3639 11.0286 13.4987C11.0118 13.5156 10.9951 13.5324 10.9783 13.5493C10.7097 13.8358 10.4243 14.1223 10.1222 14.3751C9.82001 14.6447 9.50108 14.8975 9.18213 15.1166C8.8464 15.3525 8.52747 15.5547 8.17495 15.757C7.83922 15.9423 7.48671 16.1109 7.11741 16.2625C6.76489 16.4142 6.3956 16.549 6.0263 16.667C5.32127 16.8187 4.59946 17.1051 3.97836 17.1557C3.84407 17.1557 3.69299 17.1894 3.55871 17.2063C3.40763 17.2399 3.27334 17.2737 3.13905 17.3074C3.00476 17.3579 2.87046 17.4085 2.73617 17.459C2.60188 17.5096 2.4676 17.577 2.33331 17.6444C2.2158 17.7287 2.08151 17.7961 1.964 17.8804C1.8465 17.9646 1.72899 18.0657 1.62827 18.1669C1.51077 18.2511 1.39327 18.3691 1.29255 18.4702C1.19183 18.5882 1.09111 18.6893 1.00718 18.8072C0.92325 18.9421 0.822531 19.06 0.755382 19.1949C0.671453 19.3128 0.587523 19.4476 0.520374 19.5825C0.453202 19.7341 0.386085 19.8689 0.335726 20.0206C0.285366 20.1554 0.235007 20.3071 0.184648 20.4588C0.151101 20.5936 0.117475 20.7284 0.100718 20.8632C0.100718 20.8801 0.0839058 20.8969 0.0839058 20.9138C0.0503591 21.0655 0.0503591 21.2677 0.0335462 21.3688C0.0167341 21.4868 0 21.5879 0 21.7059C0 21.7733 0 21.8575 0.0168122 21.9249C0.0336244 22.0429 0.0503584 22.144 0.0839843 22.2452C0.117531 22.3463 0.151157 22.4474 0.201484 22.5485C0.201484 22.5654 0.201484 22.5654 0.201484 22.5654C0.251844 22.6665 0.318992 22.7676 0.386133 22.8687C0.453305 22.9698 0.52043 23.0709 0.60436 23.1721C0.688289 23.2563 0.789008 23.3574 0.889727 23.4417C0.990446 23.5428 1.09117 23.6271 1.20866 23.7113C1.61154 24.0652 1.71226 24.1832 2.23264 24.4528C2.31656 24.5034 2.4005 24.5371 2.50122 24.5877C2.51804 24.5877 2.53477 24.6045 2.55158 24.6045C2.55158 24.6382 2.55158 24.6551 2.5684 24.6888C2.58521 24.8236 2.61875 24.9584 2.65232 25.0933C2.68587 25.2449 2.73626 25.3798 2.78662 25.4977C2.83698 25.5988 2.87055 25.7 2.92091 25.8011C2.93772 25.8348 2.95446 25.8685 2.97127 25.8853C3.03844 26.0201 3.10556 26.1381 3.1727 26.2561C3.25664 26.374 3.34057 26.492 3.4245 26.61C3.50843 26.7111 3.60915 26.8291 3.70986 26.9302C3.81058 27.0313 3.9113 27.1156 4.02881 27.2167C4.02881 27.2167 4.04563 27.2336 4.06236 27.2336C4.16308 27.3178 4.26379 27.4021 4.36451 27.4695C4.48201 27.5538 4.59952 27.6212 4.73381 27.6886C4.85132 27.756 4.98561 27.8234 5.1199 27.874C5.22062 27.9245 5.33812 27.9582 5.45562 27.9919C5.47244 28.0088 5.48917 28.0088 5.5228 28.0256C5.58997 28.0425 5.67387 28.0593 5.74101 28.0762C5.69066 28.9862 5.67384 29.8457 5.80819 30.149C5.95926 30.4861 6.69786 29.4581 7.43646 28.2784C7.33574 29.4412 7.26859 30.8063 7.43646 31.2107C7.62111 31.632 8.62829 30.3175 9.50118 28.8682C21.4027 26.1044 32.2635 34.3621 33.4049 46.024C33.1867 44.2039 30.9541 43.1928 29.9302 43.4456C29.4266 44.6927 28.5705 46.2936 27.194 47.2879C27.3115 46.1757 27.2612 45.0297 27.0261 43.9175C26.6568 45.4679 25.935 46.9172 24.9446 48.1643C23.3499 48.2822 21.7552 47.507 20.9159 46.3442C20.8487 46.2936 20.832 46.1925 20.7816 46.1251C20.7312 46.0071 20.6809 45.8892 20.6473 45.7712C20.597 45.6533 20.5634 45.5353 20.5466 45.4173C20.5298 45.2994 20.5298 45.1814 20.5298 45.0466C20.5298 44.9623 20.5298 44.878 20.5298 44.7938C20.5466 44.6758 20.5801 44.5578 20.6137 44.4399C20.6473 44.3219 20.6809 44.2039 20.7312 44.086C20.7984 43.968 20.8487 43.85 20.9327 43.7321C21.218 42.9232 21.218 42.2659 20.6976 41.8783C20.5969 41.8109 20.4962 41.7603 20.3787 41.7098C20.3115 41.6929 20.2276 41.6592 20.1605 41.6423C20.1101 41.6255 20.0766 41.6087 20.0262 41.5918C19.9087 41.5581 19.7912 41.5243 19.6737 41.5075C19.5562 41.4739 19.4387 41.457 19.3212 41.457C19.2037 41.4401 19.0694 41.4233 18.9519 41.4233C18.8679 41.4233 18.784 41.4402 18.7001 41.4402C18.5658 41.4402 18.4483 41.4571 18.3308 41.4907C18.2133 41.5076 18.0958 41.5244 17.9783 41.5582C17.8608 41.5918 17.7432 41.6256 17.6257 41.6761C17.5082 41.7267 17.4075 41.7772 17.29 41.8278C17.1893 41.8784 17.0886 41.9458 16.9711 41.9963C13.0599 44.5579 15.3932 50.5574 18.0622 52.2932C17.055 52.4785 16.031 52.6976 15.7457 52.9167C15.7289 52.9336 15.7121 52.9504 15.7121 52.9504C16.4339 53.3885 17.1893 53.7593 17.9783 54.0795C19.0526 54.4334 20.1941 54.7536 20.6977 54.8884V54.9053C22.0909 55.1918 23.501 55.2929 24.9278 55.2086C32.3642 54.6862 38.4576 49.0069 39.5655 41.5245C39.5991 41.6761 39.6327 41.8109 39.6663 41.9626C39.7166 42.266 39.7838 42.5862 39.8173 42.9063C39.8173 42.9063 39.8173 42.9063 39.8173 42.9232C39.8509 43.0749 39.8677 43.2266 39.8845 43.3614C39.8845 43.3951 39.8845 43.412 39.8845 43.4288C39.9013 43.5805 39.918 43.7322 39.918 43.867C39.9349 44.0524 39.9516 44.2378 39.9516 44.4231C39.9516 44.5074 39.9516 44.5917 39.9516 44.6928C39.9516 44.777 39.9684 44.8782 39.9684 44.9624C39.9684 45.0635 39.9516 45.1646 39.9516 45.2658C39.9516 45.35 39.9516 45.4343 39.9516 45.5017C39.9516 45.6197 39.9348 45.7208 39.9348 45.8387C39.9348 45.9062 39.9348 45.9736 39.9179 46.0578C39.9179 46.1758 39.9011 46.2938 39.9011 46.4286C39.8843 46.4791 39.8843 46.5297 39.8843 46.5803C39.8675 46.7151 39.8508 46.833 39.834 46.9679C39.834 47.0184 39.834 47.069 39.8171 47.1195C39.8003 47.2881 39.7668 47.4397 39.75 47.6083V47.6252V47.642C39.7164 47.7937 39.6828 47.9622 39.6493 48.1139C39.6493 48.1308 39.6493 48.1476 39.6493 48.1644C39.6157 48.3161 39.5821 48.4678 39.5485 48.6195C39.5485 48.6364 39.5317 48.67 39.5317 48.6869C39.4982 48.8386 39.4646 48.9902 39.4142 49.1419C39.4142 49.1588 39.4142 49.1756 39.4142 49.1925C39.3639 49.361 39.3135 49.5127 39.2799 49.6643C39.2631 49.6812 39.2631 49.698 39.2631 49.698C39.2128 49.8665 39.1624 50.0351 39.1121 50.2036C39.0449 50.3721 38.9946 50.5238 38.9274 50.6923C38.8602 50.8608 38.8099 51.0294 38.7428 51.181C38.6756 51.3496 38.6085 51.5012 38.5413 51.6698H38.5245C38.4573 51.8214 38.3902 51.99 38.3063 52.1416C38.2894 52.1922 38.2727 52.2259 38.2559 52.2596C38.2391 52.2765 38.2391 52.2933 38.2224 52.3102C37.1312 54.5178 35.5197 56.4558 33.5054 57.9726C33.3711 58.0568 33.2368 58.1579 33.1025 58.2591C33.069 58.2927 33.0186 58.3096 32.985 58.3433C32.8675 58.4276 32.75 58.5118 32.6157 58.5961L32.6661 58.6972H32.6829C32.9179 58.6635 33.1529 58.6298 33.3879 58.5961H33.4047C33.8412 58.5287 34.2776 58.4444 34.7141 58.3602C34.8316 58.3433 34.9659 58.3096 35.0834 58.2759C35.1673 58.259 35.2344 58.2422 35.3184 58.2253C35.4359 58.2084 35.5534 58.1748 35.6709 58.1579C35.7716 58.1242 35.8723 58.1073 35.973 58.0737C37.6517 57.6692 39.2799 57.1131 40.8411 56.4558C38.172 60.1128 34.5965 63.062 30.4167 65C32.3472 64.8652 34.2776 64.545 36.1409 64.0057C42.9058 62.0003 48.5964 57.4333 52.004 51.2821C51.3157 55.175 49.7714 58.8826 47.4885 62.1182C49.1167 61.0397 50.6107 59.7926 51.9704 58.377C55.7306 54.4335 58.1982 49.4284 59.0375 44.0524C59.6082 46.7151 59.7761 49.4621 59.5243 52.1753C71.644 35.2049 60.5315 17.6109 55.8816 12.9765C55.8648 12.9428 55.8481 12.926 55.8481 12.8923C55.8313 12.9091 55.8313 12.9091 55.8313 12.9259C55.8313 12.9091 55.8313 12.9091 55.8145 12.8923C55.8145 13.0945 55.7976 13.2967 55.7809 13.4989C55.7305 13.8866 55.6802 14.2573 55.613 14.6281C55.5291 14.9988 55.4284 15.3696 55.3277 15.7403C55.2102 16.0942 55.0759 16.465 54.9248 16.8189C54.7737 17.1559 54.6059 17.5098 54.4212 17.8469C54.2366 18.1671 54.0351 18.5041 53.8169 18.8075C53.5987 19.1277 53.3637 19.431 53.1287 19.7175C52.8769 20.0208 52.6083 20.2905 52.3397 20.5601C52.1718 20.7118 52.0208 20.8466 51.8529 20.9814C51.7186 21.0994 51.6011 21.2005 51.4668 21.3185C51.1647 21.5544 50.8625 21.7735 50.5268 21.9757C50.2078 22.1779 49.8721 22.3802 49.5364 22.5487C49.1839 22.7172 48.8314 22.8689 48.4788 23.0206C48.1263 23.1554 47.757 23.2734 47.3877 23.3745C47.0184 23.4756 46.6323 23.5599 46.263 23.6273C45.877 23.6947 45.4909 23.7284 45.1216 23.7621C44.853 23.779 44.5844 23.7958 44.3158 23.7958C43.9297 23.7958 43.5437 23.7621 43.1744 23.7283C42.7883 23.6947 42.4022 23.6441 42.0329 23.5598C41.6468 23.4924 41.2775 23.3913 40.9082 23.2733H40.8914C41.2607 23.2396 41.63 23.2059 41.9993 23.1385C42.3854 23.0711 42.7547 22.9868 43.124 22.8857C43.4933 22.7846 43.8626 22.6666 44.2151 22.5318C44.5844 22.397 44.9369 22.2285 45.2726 22.0599C45.6251 21.8914 45.9441 21.706 46.2798 21.5038C46.5987 21.2847 46.9177 21.0656 47.2198 20.8297C47.522 20.5938 47.8074 20.341 48.076 20.0713C48.3613 19.8186 48.6131 19.5321 48.8649 19.2456C49.1167 18.9422 49.3517 18.6389 49.5699 18.3355C49.6035 18.285 49.6371 18.2176 49.6707 18.167C49.8385 17.8974 50.0064 17.6277 50.1574 17.3581C50.3421 17.021 50.51 16.684 50.661 16.3301C50.8121 15.9762 50.9464 15.6223 51.0639 15.2515C51.1814 14.8976 51.2654 14.5269 51.3493 14.1561C51.4165 13.7685 51.4836 13.3978 51.5172 13.027C51.5507 12.6394 51.5843 12.2518 51.5843 11.8811C51.5843 11.6114 51.5675 11.3418 51.5508 11.0721C51.5172 10.6845 51.4668 10.3138 51.4165 9.94303C51.3493 9.55542 51.2654 9.18468 51.1647 8.81391C51.0472 8.46002 50.9297 8.08926 50.7954 7.73537C50.6611 7.38146 50.4932 7.02756 50.3254 6.69051C50.1407 6.35346 49.9561 6.01641 49.7546 5.69622C49.5364 5.37603 49.3182 5.07268 49.0832 4.76933C48.8314 4.48284 48.5796 4.19635 48.311 3.90986C48.1767 3.77504 48.0256 3.62337 47.8746 3.48855C47.1192 2.89871 46.3302 2.34258 45.5413 1.83701C45.4238 1.76958 45.323 1.71904 45.2055 1.66848C44.6516 1.31459 44.1312 1.12911 43.6108 0.960589Z" fill="#E0234E"/>
</svg>
