<svg width="80" height="80" viewBox="0 0 80 80" fill="none" xmlns="http://www.w3.org/2000/svg">
<g id="choose-qbatch-as-your-growth-partner_neutral-software-analysis 1">
<g id="Group">
<path id="Vector" d="M61.4008 72.4994H56.8008L52.7008 61.8994C52.3008 60.9994 51.5008 60.3994 50.5008 60.3994H29.5008C28.5008 60.3994 27.7008 60.9994 27.3008 61.8994L23.2008 72.4994H18.6008C17.3008 72.4994 16.3008 73.4994 16.3008 74.7994C16.3008 76.0994 17.3008 77.0994 18.6008 77.0994H61.4008C62.7008 77.0994 63.7008 76.0994 63.7008 74.7994C63.7008 73.4994 62.7008 72.4994 61.4008 72.4994Z" fill="#5F737C"/>
<path id="Vector_2" d="M0 53.3998V60.3998C0 62.9998 2.1 65.0998 4.7 65.0998H75.3C77.9 65.0998 80 62.9998 80 60.3998V53.3998L40 50.2998L0 53.3998Z" fill="#839299"/>
<path id="Vector_3" d="M80 7.4998C80 4.8998 77.9 2.7998 75.3 2.7998H4.7C2.1 2.7998 0 4.8998 0 7.4998V53.3998H80V7.4998Z" fill="#D2D9DC"/>
<path id="Vector_4" d="M8.8 13.8002H15.5C16.8 13.8002 17.8 12.8002 17.8 11.5002C17.8 10.2002 16.8 9.2002 15.5 9.2002H8.8C7.5 9.2002 6.5 10.2002 6.5 11.5002C6.5 12.8002 7.5 13.8002 8.8 13.8002Z" fill="#839299"/>
<path id="Vector_5" d="M15.5 18.5H8.8C7.5 18.5 6.5 19.5 6.5 20.8C6.5 22.1 7.5 23.1 8.8 23.1H15.5C16.8 23.1 17.8 22.1 17.8 20.8C17.8 19.5 16.8 18.5 15.5 18.5Z" fill="#839299"/>
<path id="Vector_6" d="M15.5 27.8994H8.8C7.5 27.8994 6.5 28.8994 6.5 30.1994C6.5 31.4994 7.5 32.4994 8.8 32.4994H15.5C16.8 32.4994 17.8 31.4994 17.8 30.1994C17.8 28.8994 16.8 27.8994 15.5 27.8994Z" fill="#839299"/>
<path id="Vector_7" d="M57.9992 46.9994H52.3992C51.7992 46.9994 51.1992 46.7994 50.6992 46.2994L46.4992 41.9994C45.5992 41.0994 45.5992 39.5994 46.4992 38.6994C47.3992 37.7994 48.8992 37.7994 49.7992 38.6994L53.3992 42.2994H57.9992C59.2992 42.2994 60.2992 43.2994 60.2992 44.5994C60.2992 45.8994 59.2992 46.9994 57.9992 46.9994Z" fill="#0054A6"/>
<path id="Vector_8" d="M27.5992 47H21.9992C20.6992 47 19.6992 46 19.6992 44.7C19.6992 43.4 20.6992 42.4 21.9992 42.4H26.5992L30.1992 38.8C31.0992 37.9 32.5992 37.9 33.4992 38.8C34.3992 39.7 34.3992 41.2 33.4992 42.1L29.1992 46.4C28.7992 46.7 28.1992 47 27.5992 47Z" fill="#839299"/>
<path id="Vector_9" d="M48.0996 26.5C47.4996 26.5 46.8996 26.3 46.3996 25.8C45.4996 24.9 45.4996 23.4 46.3996 22.5L50.6996 18.2C51.0996 17.8 51.6996 17.5 52.3996 17.5H57.9996C59.2996 17.5 60.2996 18.5 60.2996 19.8C60.2996 21.1 59.2996 22.1 57.9996 22.1H53.3996L49.7996 25.7C49.2996 26.3 48.6996 26.5 48.0996 26.5Z" fill="#0054A6"/>
<path id="Vector_10" d="M40.0008 19.2998C32.7008 19.2998 26.8008 25.1998 26.8008 32.4998C26.8008 39.7998 32.7008 45.6998 40.0008 45.6998L41.9008 32.4998L40.0008 19.2998Z" fill="#0054A6"/>
<path id="Vector_11" d="M53.2 32.4998C53.2 25.1998 47.3 19.2998 40 19.2998V32.4998L46.6 34.3998L53.2 32.4998Z" fill="#ED1C24"/>
<path id="Vector_12" d="M40 32.5V45.7C47.3 45.7 53.2 39.8 53.2 32.5H40Z" fill="#FFDD33"/>
</g>
</g>
</svg>
