<svg width="108" height="65" viewBox="0 0 108 65" fill="none" xmlns="http://www.w3.org/2000/svg">
<path d="M25.3065 16.9529H45.5348V18.5681H27.1607V30.7243H44.4391V32.3395H27.1607V45.6858H45.7455V47.301H25.3065V16.9529ZM47.3469 16.9529H49.4962L59.0204 30.2993L68.7553 16.9529L81.9963 0L60.2425 31.7019L71.4524 47.301H69.2188L59.0204 33.1045L48.7798 47.301H46.5884L57.8825 31.7019L47.3469 16.9529ZM72.2531 18.5681V16.9529H95.3049V18.5681H84.6851V47.301H82.8308V18.5681H72.2531ZM0 16.9529H2.31783L34.2794 65L21.0712 47.301L1.93855 19.2481L1.85426 47.301H0V16.9529ZM95.1181 45.1984C94.7393 45.1984 94.4552 44.9035 94.4552 44.5224C94.4552 44.1413 94.7393 43.8465 95.1181 43.8465C95.5015 43.8465 95.7811 44.1413 95.7811 44.5224C95.7811 44.9035 95.5015 45.1984 95.1181 45.1984ZM96.9402 43.42H97.9324C97.9459 43.9599 98.3383 44.3228 98.9155 44.3228C99.5605 44.3228 99.9258 43.9327 99.9258 43.2023V38.5749H100.936V43.2068C100.936 44.5224 100.178 45.28 98.9246 45.28C97.7474 45.28 96.9402 44.5451 96.9402 43.42ZM102.257 43.361H103.259C103.344 43.9826 103.949 44.3773 104.819 44.3773C105.631 44.3773 106.226 43.9553 106.226 43.3747C106.226 42.8756 105.847 42.5762 104.986 42.3721L104.147 42.1679C102.97 41.8912 102.433 41.3196 102.433 40.3578C102.433 39.1919 103.38 38.4161 104.801 38.4161C106.122 38.4161 107.088 39.1919 107.146 40.2943H106.163C106.068 39.6909 105.545 39.3144 104.788 39.3144C103.989 39.3144 103.457 39.7 103.457 40.2898C103.457 40.757 103.8 41.0247 104.648 41.2243L105.365 41.4012C106.7 41.7143 107.25 42.2586 107.25 43.2431C107.25 44.4952 106.285 45.28 104.742 45.28C103.299 45.28 102.33 44.5315 102.257 43.361Z" fill="black"/>
</svg>
