<svg width="50" height="50" viewBox="0 0 50 50" fill="none" xmlns="http://www.w3.org/2000/svg">
<g clip-path="url(#clip0_12083_17613)">
<path d="M2.00312 31.8001C1.60312 31.8001 1.20312 31.5001 1.20312 31.0001V22.2001C1.20312 22.0001 1.30312 21.8001 1.40312 21.7001L4.60312 18.5001V10.9001C4.60312 10.5001 4.90312 10.1001 5.40312 10.1001C5.90312 10.1001 6.20312 10.4001 6.20312 10.9001V18.8001C6.20312 19.0001 6.10313 19.2001 6.00313 19.3001L2.80312 22.5001V31.0001C2.80312 31.5001 2.40312 31.8001 2.00312 31.8001Z" fill="#002548"/>
<path d="M9.69844 32.8998H2.69844C2.29844 32.8998 1.89844 32.5998 1.89844 32.0998C1.89844 31.6998 2.19844 31.2998 2.69844 31.2998H9.79844C10.1984 31.2998 10.5984 31.5998 10.5984 32.0998C10.4984 32.5998 10.0984 32.8998 9.69844 32.8998Z" fill="#002548"/>
<path d="M2 34.1001C3.10457 34.1001 4 33.2047 4 32.1001C4 30.9955 3.10457 30.1001 2 30.1001C0.89543 30.1001 0 30.9955 0 32.1001C0 33.2047 0.89543 34.1001 2 34.1001Z" fill="#FFDD33"/>
<path d="M47.9969 31.7999C47.5969 31.7999 47.1969 31.5 47.1969 31V22.5L43.9969 19.4C43.8969 19.3 43.7969 19.1 43.7969 18.9V11C43.7969 10.6 44.0969 10.2 44.5969 10.2C44.9969 10.2 45.3969 10.5 45.3969 11V18.6L48.5969 21.8C48.6969 21.9 48.7969 22.1 48.7969 22.3V31.1C48.6969 31.5 48.3969 31.7999 47.9969 31.7999Z" fill="#002548"/>
<path d="M47.2984 32.8998H40.1984C39.7984 32.8998 39.3984 32.5998 39.3984 32.0998C39.3984 31.6998 39.6984 31.2998 40.1984 31.2998H47.2984C47.6984 31.2998 48.0984 31.5998 48.0984 32.0998C48.0984 32.5998 47.6984 32.8998 47.2984 32.8998Z" fill="#002548"/>
<path d="M48 34.1001C49.1046 34.1001 50 33.2047 50 32.1001C50 30.9955 49.1046 30.1001 48 30.1001C46.8954 30.1001 46 30.9955 46 32.1001C46 33.2047 46.8954 34.1001 48 34.1001Z" fill="#FFDD33"/>
<path d="M30.5031 6.6H19.5031C19.1031 6.6 18.7031 6.3 18.7031 5.8C18.7031 5.4 19.0031 5 19.5031 5H30.6031C31.0031 5 31.4031 5.3 31.4031 5.8C31.3031 6.2 31.0031 6.6 30.5031 6.6Z" fill="#002548"/>
<path d="M19.9 2.8V8.8C19.9 10.3 18.6 11.6 17.1 11.6H15.1C14.7 11.6 14.4 11.9 14.4 12.3V14C14.4 14.8 13.4 15.3 12.8 14.7L10 11.9C9.8 11.7 9.6 11.6 9.3 11.6H2.8C1.3 11.6 0 10.4 0 8.8V2.8C0 1.3 1.3 0 2.8 0H17C18.6 0 19.9 1.3 19.9 2.8Z" fill="#0054A6"/>
<path d="M5.80313 8.6C5.40313 8.6 5.00313 8.3 5.00313 7.8V4.6C4.60313 4.6 4.20312 4.3 4.20312 3.8C4.20312 3.3 4.60313 3 5.00313 3H5.80313C6.20313 3 6.60313 3.3 6.60313 3.8V7.8C6.60313 8.2 6.30313 8.6 5.80313 8.6Z" fill="#D2D9DC"/>
<path d="M14.8031 8.6C14.4031 8.6 14.0031 8.3 14.0031 7.8V4.6C13.6031 4.6 13.2031 4.3 13.2031 3.8C13.2031 3.3 13.6031 3 14.0031 3H14.8031C15.2031 3 15.6031 3.3 15.6031 3.8V7.8C15.6031 8.2 15.3031 8.6 14.8031 8.6Z" fill="#D2D9DC"/>
<path d="M9.90156 8.6C8.70156 8.6 7.60156 7.6 7.60156 6.3V5.3C7.60156 4.1 8.60156 3 9.90156 3C11.2016 3 12.2016 4 12.2016 5.3V6.3C12.2016 7.6 11.2016 8.6 9.90156 8.6ZM9.90156 4.6C9.50156 4.6 9.10156 4.9 9.10156 5.4V6.4C9.10156 6.8 9.40156 7.2 9.90156 7.2C10.3016 7.2 10.7016 6.9 10.7016 6.4V5.4C10.7016 4.9 10.4016 4.6 9.90156 4.6Z" fill="#D2D9DC"/>
<path d="M41.6016 29L39.6016 28.6C39.1016 28.5 38.6016 28.1 38.4016 27.6C38.2016 27 38.0016 26.4 37.7016 25.9C37.5016 25.4 37.5016 24.8 37.8016 24.4L38.9016 22.7C39.3016 22.1 39.2016 21.3 38.7016 20.7L36.4016 18.4C35.9016 17.9 35.1016 17.8 34.4016 18.2L32.7016 19.3C32.2016 19.6 31.7016 19.7 31.2016 19.4C30.6016 19.1 30.1016 18.9 29.5016 18.7C29.0016 18.5 28.6016 18.1 28.5016 17.5L28.1016 15.5C28.0016 14.8 27.3016 14.3 26.6016 14.3H23.3016C22.6016 14.3 21.9016 14.8 21.8016 15.5L21.4016 17.5C21.4016 17.7 21.3016 17.9 21.2016 18.1C21.0016 18.4 20.7016 18.6 20.4016 18.7C19.8016 18.9 19.2016 19.1 18.7016 19.4C18.2016 19.6 17.6016 19.6 17.2016 19.3L15.5016 18.2C14.9016 17.8 14.1016 17.9 13.5016 18.4L11.2016 20.7C10.7016 21.2 10.6016 22 11.0016 22.7L12.1016 24.4C12.4016 24.9 12.4016 25.4 12.2016 25.9C11.9016 26.5 11.7016 27 11.5016 27.6C11.3016 28.1 10.9016 28.5 10.3016 28.6L8.30156 29C7.60156 29.1 7.10156 29.8 7.10156 30.5V33.8C7.10156 34.5 7.60156 35.2 8.30156 35.3L10.3016 35.7001C10.8016 35.8001 11.3016 36.2001 11.5016 36.7001C11.7016 37.3001 11.9016 37.9001 12.2016 38.4001C12.4016 38.9001 12.4016 39.5001 12.1016 39.9001L11.0016 41.6C10.6016 42.2 10.7016 43 11.2016 43.6L13.5016 45.9001C14.0016 46.4001 14.8016 46.5 15.5016 46.1L17.2016 45C17.7016 44.7001 18.2016 44.7001 18.7016 44.9001C19.3016 45.2001 19.8016 45.4 20.4016 45.6C20.9016 45.8 21.3016 46.2 21.4016 46.8L21.8016 48.8C21.9016 49.5 22.6016 50 23.3016 50H26.6016C27.3016 50 28.0016 49.5 28.1016 48.8L28.5016 46.8C28.6016 46.3 29.0016 45.8 29.5016 45.6C30.1016 45.4 30.7016 45.2001 31.2016 44.9001C31.7016 44.7001 32.3016 44.7001 32.7016 45L34.4016 46.1C35.0016 46.5 35.8016 46.4001 36.4016 45.9001L38.1016 44.2001L38.7016 43.6C39.2016 43.1 39.3016 42.3 38.9016 41.6L37.8016 40C37.5016 39.5 37.5016 39 37.7016 38.5C38.0016 38 38.2016 37.4 38.4016 36.8C38.6016 36.3 39.0016 35.9 39.6016 35.8L41.6016 35.4001C42.3016 35.2001 42.8016 34.6001 42.8016 33.9001V30.6C42.9016 29.8 42.3016 29.1 41.6016 29ZM30.7016 37.8C29.3016 39.2 27.3016 40.1 25.0016 40.1C22.7016 40.1 20.8016 39.2 19.3016 37.8C17.9016 36.3 17.0016 34.3 17.0016 32.1C17.0016 27.7 20.6016 24.1 25.0016 24.1C27.2016 24.1 29.2016 25 30.7016 26.4C32.1016 27.9 33.0016 29.9 33.0016 32.1C33.0016 34.3 32.1016 36.3 30.7016 37.8Z" fill="#839299"/>
<path d="M25.0031 7.6C25.9972 7.6 26.8031 6.79411 26.8031 5.8C26.8031 4.80589 25.9972 4 25.0031 4C24.009 4 23.2031 4.80589 23.2031 5.8C23.2031 6.79411 24.009 7.6 25.0031 7.6Z" fill="#FFDD33"/>
<path d="M50.0031 2.8V8.8C50.0031 10.3 48.7031 11.6 47.2031 11.6H40.7031C40.5031 11.6 40.2031 11.7 40.0031 11.9L37.3031 14.7C36.7031 15.3 35.7031 14.9 35.7031 14V12.3C35.7031 11.9 35.4031 11.6 35.0031 11.6H33.0031C31.5031 11.6 30.2031 10.3 30.2031 8.8V2.8C30.2031 1.3 31.5031 0 33.0031 0H47.2031C48.7031 0 50.0031 1.3 50.0031 2.8Z" fill="#0054A6"/>
<path d="M35.3978 5.8L36.4978 4.2C36.6978 3.9 36.5978 3.4 36.2978 3.2C35.9978 3 35.4978 3.1 35.2978 3.4L34.5978 4.5L33.8978 3.4C33.6978 3.1 33.1978 3 32.8978 3.2C32.5978 3.4 32.4978 3.9 32.6978 4.2L33.7978 5.8L32.6978 7.4C32.4978 7.7 32.5978 8.2 32.8978 8.4C32.9978 8.5 33.1978 8.5 33.2978 8.5C33.4978 8.5 33.7978 8.4 33.8978 8.2L34.5978 7.1L35.2978 8.2C35.3978 8.4 35.6978 8.5 35.8978 8.5C35.9978 8.5 36.1978 8.5 36.2978 8.4C36.5978 8.2 36.6978 7.7 36.4978 7.4L35.3978 5.8Z" fill="#D2D9DC"/>
<path d="M46.9984 8.6H44.2984C43.9984 8.6 43.7984 8.4 43.5984 8.2C43.4984 8 43.4984 7.7 43.5984 7.4L45.4984 4.5H44.1984C43.7984 4.5 43.3984 4.2 43.3984 3.7C43.3984 3.2 43.8984 3 44.2984 3H46.9984C47.2984 3 47.4984 3.2 47.6984 3.4C47.7984 3.6 47.7984 3.9 47.6984 4.2L45.7984 7.1H46.9984C47.3984 7.1 47.7984 7.4 47.7984 7.9C47.6984 8.2 47.3984 8.6 46.9984 8.6Z" fill="#D2D9DC"/>
<path d="M40.0962 8.6C39.6962 8.6 39.2962 8.3 39.2962 7.8V6L38.0962 4.2C37.8962 3.9 37.9962 3.4 38.2962 3.2C38.5962 3 39.0962 3.1 39.2962 3.4L39.9962 4.5L40.6962 3.4C40.8962 3.1 41.3962 3 41.6962 3.2C41.9962 3.4 42.0962 3.9 41.8962 4.2L40.7962 6V7.8C40.7962 8.2 40.4962 8.6 40.0962 8.6Z" fill="#D2D9DC"/>
</g>
<defs>
<clipPath id="clip0_12083_17613">
<rect width="50" height="50" fill="white"/>
</clipPath>
</defs>
</svg>
