<svg width="50" height="50" viewBox="0 0 50 50" fill="none" xmlns="http://www.w3.org/2000/svg">
<path d="M29.6875 48.4375H4.6875C2.96172 48.4375 1.5625 47.0383 1.5625 45.3125V4.6875C1.5625 2.96172 2.96172 1.5625 4.6875 1.5625H29.6875C31.4133 1.5625 32.8125 2.96172 32.8125 4.6875V45.3125C32.8125 47.0383 31.4133 48.4375 29.6875 48.4375Z" fill="#4A4947"/>
<path d="M32.8125 45.3125V4.6875C32.8125 2.96172 31.4133 1.5625 29.6875 1.5625H20.3125L1.5625 29.6875V45.3125C1.5625 47.0383 2.96172 48.4375 4.6875 48.4375H29.6875C31.4133 48.4375 32.8125 47.0383 32.8125 45.3125Z" fill="#353434"/>
<path d="M29.6875 45.3125H4.6875V4.6875H13.2812L14.0625 6.25H20.3125L21.0938 4.6875H29.6875V45.3125Z" fill="#77C3F1"/>
<path d="M29.6875 4.6875H21.0938L20.3125 6.25H17.1875L4.6875 25V45.3125H29.6875V4.6875Z" fill="#4DA8E7"/>
<path d="M15.625 45.3125L29.6875 25V45.3125H15.625Z" fill="#77C3F1"/>
<path d="M38.2812 21.875C43.8904 21.875 48.4375 17.3279 48.4375 11.7188C48.4375 6.10961 43.8904 1.5625 38.2812 1.5625C32.6721 1.5625 28.125 6.10961 28.125 11.7188C28.125 17.3279 32.6721 21.875 38.2812 21.875Z" fill="#DD0534"/>
<path d="M38.2812 1.5625C36.075 1.5625 34.0398 2.27344 32.3742 3.46797C31.1797 5.13359 30.4688 7.16875 30.4688 9.375C30.4688 14.9844 35.0156 19.5312 40.625 19.5312C42.8313 19.5312 44.8664 18.8203 46.532 17.6258C47.7266 15.9602 48.4375 13.925 48.4375 11.7188C48.4375 6.10938 43.8906 1.5625 38.2812 1.5625Z" fill="#FA163C"/>
<path d="M40.625 11.7188L43.75 14.8438L41.4062 17.1875L38.2812 14.0625L35.1562 17.1875L32.8125 14.8438L35.9375 11.7188L32.8125 8.59375L35.1562 6.25L38.2812 9.375L41.4062 6.25L43.75 8.59375L40.625 11.7188Z" fill="white"/>
<path d="M25 21.0938C25 16.779 21.5022 13.2812 17.1875 13.2812C12.8728 13.2812 9.375 16.779 9.375 21.0938V28.9062C9.375 33.221 12.8728 36.7188 17.1875 36.7188C21.5022 36.7188 25 33.221 25 28.9062V21.0938Z" fill="#FEDAB6"/>
<path d="M17.1875 37.5C12.4492 37.5 8.59375 33.6445 8.59375 28.9062V21.0938C8.59375 16.3555 12.4492 12.5 17.1875 12.5C21.9258 12.5 25.7812 16.3555 25.7812 21.0938V28.9062C25.7812 33.6445 21.9258 37.5 17.1875 37.5ZM17.1875 14.0625C13.3102 14.0625 10.1562 17.2172 10.1562 21.0938V28.9062C10.1562 32.7828 13.3102 35.9375 17.1875 35.9375C21.0648 35.9375 24.2188 32.7828 24.2188 28.9062V21.0938C24.2188 17.2172 21.0648 14.0625 17.1875 14.0625Z" fill="#FEC99C"/>
<path d="M17.1875 34.375C14.1727 34.375 11.7188 31.9219 11.7188 28.9062V21.0938C11.7188 18.0781 14.1727 15.625 17.1875 15.625C20.2023 15.625 22.6562 18.0781 22.6562 21.0938V28.9062C22.6562 31.9219 20.2023 34.375 17.1875 34.375ZM17.1875 17.1875C15.0336 17.1875 13.2812 18.9398 13.2812 21.0938V28.9062C13.2812 31.0602 15.0336 32.8125 17.1875 32.8125C19.3414 32.8125 21.0938 31.0602 21.0938 28.9062V21.0938C21.0938 18.9398 19.3414 17.1875 17.1875 17.1875Z" fill="#FEC99C"/>
<path d="M17.1875 31.25C15.8953 31.25 14.8438 30.1984 14.8438 28.9062V21.0938C14.8438 19.8016 15.8953 18.75 17.1875 18.75C18.4797 18.75 19.5312 19.8016 19.5312 21.0938V28.9062C19.5312 30.1984 18.4797 31.25 17.1875 31.25ZM17.1875 20.3125C16.7563 20.3125 16.4062 20.6633 16.4062 21.0938V28.9062C16.4062 29.3367 16.7563 29.6875 17.1875 29.6875C17.6188 29.6875 17.9688 29.3367 17.9688 28.9062V21.0938C17.9688 20.6633 17.6188 20.3125 17.1875 20.3125Z" fill="#FEC99C"/>
<path d="M7.03125 21.875H27.3438V23.4375H7.03125V21.875Z" fill="#FA163C"/>
</svg>
