<svg width="48" height="48" viewBox="0 0 48 48" fill="none" xmlns="http://www.w3.org/2000/svg">
<g clip-path="url(#clip0_12083_17683)">
<path fill-rule="evenodd" clip-rule="evenodd" d="M48 10.3L24.1 8L0 10.3V40.8C0 42.6 1.5 44.2 3.4 44.2H44.7C46.5 44.2 48.1 42.7 48.1 40.8V10.3H48Z" fill="#D2D9DC"/>
<path d="M29.3984 39.0001H7.09844C6.69844 39.0001 6.39844 38.7001 6.39844 38.3001C6.39844 37.9001 6.69844 37.6001 7.09844 37.6001H29.3984C29.7984 37.6001 30.0984 37.9001 30.0984 38.3001C30.0984 38.7001 29.7984 39.0001 29.3984 39.0001Z" fill="#839299"/>
<path d="M40.5031 39.0001H32.9031C32.5031 39.0001 32.2031 38.7001 32.2031 38.3001C32.2031 37.9001 32.5031 37.6001 32.9031 37.6001H40.5031C40.9031 37.6001 41.2031 37.9001 41.2031 38.3001C41.2031 38.7001 40.9031 39.0001 40.5031 39.0001Z" fill="#839299"/>
<path d="M31.1969 40.6999C29.8969 40.6999 28.7969 39.5999 28.7969 38.2999C28.7969 36.9999 29.8969 35.8999 31.1969 35.8999C32.4969 35.8999 33.5969 36.9999 33.5969 38.2999C33.5969 39.5999 32.4969 40.6999 31.1969 40.6999ZM31.1969 37.1999C30.6969 37.1999 30.1969 37.5999 30.1969 38.1999C30.1969 38.7999 30.5969 39.1999 31.1969 39.1999C31.6969 39.1999 32.1969 38.7999 32.1969 38.1999C32.1969 37.5999 31.6969 37.1999 31.1969 37.1999Z" fill="#839299"/>
<path fill-rule="evenodd" clip-rule="evenodd" d="M33.3969 19.1001C29.4969 19.1001 26.2969 22.3001 26.2969 26.2001C26.2969 30.1001 29.4969 33.3001 33.3969 33.3001C37.2969 33.3001 40.4969 30.1001 40.4969 26.2001C40.4969 22.3001 37.2969 19.1001 33.3969 19.1001ZM30.7969 24.0001C30.7969 23.6001 31.0969 23.3001 31.4969 23.3001C31.8969 23.3001 32.1969 23.6001 32.1969 24.0001V24.5001C32.1969 24.9001 31.8969 25.2001 31.4969 25.2001C31.0969 25.2001 30.7969 24.9001 30.7969 24.5001V24.0001ZM35.8969 29.2001C35.1969 29.9001 34.3969 30.2001 33.3969 30.2001C32.4969 30.2001 31.5969 29.8001 30.9969 29.2001C30.6969 28.9001 30.6969 28.4001 30.9969 28.2001C31.2969 27.9001 31.7969 27.9001 31.9969 28.2001C32.3969 28.6001 32.8969 28.8001 33.3969 28.8001C33.8969 28.8001 34.3969 28.6001 34.7969 28.2001C35.0969 27.9001 35.5969 27.9001 35.7969 28.2001C36.1969 28.5001 36.1969 28.9001 35.8969 29.2001ZM36.0969 24.7001C36.0969 25.1001 35.7969 25.4001 35.3969 25.4001C34.9969 25.4001 34.6969 25.1001 34.6969 24.7001V24.1001C34.6969 23.7001 34.9969 23.4001 35.3969 23.4001C35.7969 23.4001 36.0969 23.7001 36.0969 24.1001V24.7001Z" fill="#54CC5A"/>
<path fill-rule="evenodd" clip-rule="evenodd" d="M14.2016 19.2998C10.3016 19.2998 7.10156 22.4998 7.10156 26.3998C7.10156 30.2998 10.3016 33.4998 14.2016 33.4998C18.1016 33.4998 21.3016 30.2998 21.3016 26.3998C21.3016 22.4998 18.2016 19.2998 14.2016 19.2998ZM11.6016 24.0998C11.6016 23.6998 11.9016 23.3998 12.3016 23.3998C12.7016 23.3998 13.0016 23.6998 13.0016 24.0998V24.6998C13.0016 25.0998 12.7016 25.3998 12.3016 25.3998C11.9016 25.3998 11.6016 25.0998 11.6016 24.6998V24.0998ZM16.7016 30.1998C16.6016 30.2998 16.4016 30.3998 16.2016 30.3998C16.0016 30.3998 15.8016 30.2998 15.7016 30.1998C15.3016 29.7998 14.8016 29.5998 14.3016 29.5998C13.8016 29.5998 13.3016 29.7998 12.9016 30.1998C12.6016 30.4998 12.2016 30.4998 11.9016 30.1998C11.6016 29.8998 11.6016 29.4998 11.9016 29.1998C12.6016 28.4998 13.4016 28.1998 14.4016 28.1998C15.4016 28.1998 16.2016 28.5998 16.9016 29.1998C17.0016 29.4998 17.0016 29.8998 16.7016 30.1998ZM16.9016 24.8998C16.9016 25.2998 16.6016 25.5998 16.2016 25.5998C15.8016 25.5998 15.5016 25.2998 15.5016 24.8998V24.3998C15.5016 23.9998 15.8016 23.6998 16.2016 23.6998C16.6016 23.6998 16.9016 23.9998 16.9016 24.3998V24.8998Z" fill="#ED1C24"/>
<path fill-rule="evenodd" clip-rule="evenodd" d="M44.6 3.8999H3.4C1.5 3.8999 0 5.3999 0 7.1999V10.2999H48V7.1999C48 5.3999 46.5 3.8999 44.6 3.8999Z" fill="#002548"/>
<path fill-rule="evenodd" clip-rule="evenodd" d="M3.5 5.7998C2.9 5.7998 2.5 6.2998 2.5 6.7998C2.5 7.3998 3 7.7998 3.5 7.7998C4.1 7.7998 4.5 7.2998 4.5 6.7998C4.6 6.2998 4.1 5.7998 3.5 5.7998Z" fill="#ED1C24"/>
<path fill-rule="evenodd" clip-rule="evenodd" d="M8.29688 5.7998C7.69687 5.7998 7.29688 6.2998 7.29688 6.7998C7.29688 7.3998 7.79688 7.7998 8.29688 7.7998C8.89688 7.7998 9.29688 7.2998 9.29688 6.7998C9.29688 6.2998 8.79688 5.7998 8.29688 5.7998Z" fill="#FFDD33"/>
<path fill-rule="evenodd" clip-rule="evenodd" d="M13 5.7998C12.4 5.7998 12 6.2998 12 6.7998C12 7.3998 12.5 7.7998 13 7.7998C13.6 7.7998 14 7.2998 14 6.7998C14 6.2998 13.5 5.7998 13 5.7998Z" fill="#54CC5A"/>
</g>
<defs>
<clipPath id="clip0_12083_17683">
<rect width="48" height="48" fill="white"/>
</clipPath>
</defs>
</svg>
