<svg width="48" height="48" viewBox="0 0 48 48" fill="none" xmlns="http://www.w3.org/2000/svg">
<g id="technological-capacity-to-bring-that-change_low-code-no-code" clip-path="url(#clip0_5571_18637)">
<g id="Group">
<path id="Vector" d="M0 7V43.8C0 44.7 0.8 45.5 1.7 45.5H11H34.6H43.9C44.8 45.5 45.6 44.7 45.6 43.8V7H0Z" fill="#D2D9DC"/>
<path id="Vector_2" d="M45.6 7H0V1.5C0 0.7 0.6 0 1.5 0H44.2C45 0 45.7 0.6 45.7 1.5L45.6 7Z" fill="#002548"/>
<path id="Vector_3" d="M6.49922 3.5001C6.49922 4.3001 5.89922 5.0001 5.09922 5.0001C4.29922 5.0001 3.69922 4.3001 3.69922 3.5001C3.69922 2.7001 4.29922 2.1001 5.09922 2.1001C5.89922 2.1001 6.49922 2.7001 6.49922 3.5001Z" fill="#ED1C24"/>
<path id="Vector_4" d="M13.2004 3.5001C13.2004 4.3001 12.6004 4.9001 11.8004 4.9001C11.0004 4.9001 10.4004 4.3001 10.4004 3.5001C10.4004 2.7001 11.0004 2.1001 11.8004 2.1001C12.6004 2.1001 13.2004 2.7001 13.2004 3.5001Z" fill="#FFDD33"/>
<path id="Vector_5" d="M19.8996 3.5001C19.8996 4.3001 19.2996 4.9001 18.4996 4.9001C17.6996 4.9001 17.0996 4.3001 17.0996 3.5001C17.0996 2.7001 17.6996 2.1001 18.4996 2.1001C19.2996 2.1001 19.8996 2.7001 19.8996 3.5001Z" fill="#54CC5A"/>
<path id="Vector_6" d="M14.0996 15.7001H3.89961C3.39961 15.7001 3.09961 15.4001 3.09961 14.9001C3.09961 14.4001 3.39961 14.1001 3.89961 14.1001H14.0996C14.5996 14.1001 14.8996 14.4001 14.8996 14.9001C14.8996 15.4001 14.5996 15.7001 14.0996 15.7001Z" fill="#839299"/>
<path id="Vector_7" d="M25.1004 15.7001H17.2004C16.7004 15.7001 16.4004 15.4001 16.4004 14.9001C16.4004 14.4001 16.7004 14.1001 17.2004 14.1001H25.1004C25.6004 14.1001 25.9004 14.4001 25.9004 14.9001C25.9004 15.4001 25.6004 15.7001 25.1004 15.7001Z" fill="#839299"/>
<path id="Vector_8" d="M29.9 15.7001H28.3C27.8 15.7001 27.5 15.4001 27.5 14.9001C27.5 14.4001 27.8 14.1001 28.3 14.1001H29.9C30.4 14.1001 30.7 14.4001 30.7 14.9001C30.6 15.4001 30.3 15.7001 29.9 15.7001Z" fill="#839299"/>
<path id="Vector_9" d="M33.7992 18.9H21.9992C21.4992 18.9 21.1992 18.6 21.1992 18.1C21.1992 17.6 21.4992 17.3 21.9992 17.3H33.7992C34.2992 17.3 34.5992 17.6 34.5992 18.1C34.5992 18.6 34.2992 18.9 33.7992 18.9Z" fill="#839299"/>
<g id="Group_2">
<path id="Vector_10" d="M18.8996 18.9H7.89961C7.39961 18.9 7.09961 18.6 7.09961 18.1C7.09961 17.6 7.39961 17.3 7.89961 17.3H18.8996C19.3996 17.3 19.6996 17.6 19.6996 18.1C19.5996 18.6 19.2996 18.9 18.8996 18.9Z" fill="#839299"/>
<path id="Vector_11" d="M4.69961 18.9H3.89961C3.39961 18.9 3.09961 18.6 3.09961 18.1C3.09961 17.6 3.39961 17.3 3.89961 17.3H4.69961C5.19961 17.3 5.49961 17.6 5.49961 18.1C5.49961 18.6 5.19961 18.9 4.69961 18.9Z" fill="#839299"/>
</g>
<path id="Vector_12" d="M10.9996 21.9999H3.89961C3.39961 21.9999 3.09961 21.6999 3.09961 21.1999C3.09961 20.6999 3.39961 20.3999 3.89961 20.3999H10.9996C11.4996 20.3999 11.7996 20.6999 11.7996 21.1999C11.7996 21.6999 11.4996 21.9999 10.9996 21.9999Z" fill="#839299"/>
<path id="Vector_13" d="M15.7008 21.9999H14.1008C13.6008 21.9999 13.3008 21.6999 13.3008 21.1999C13.3008 20.6999 13.6008 20.3999 14.1008 20.3999H15.7008C16.2008 20.3999 16.5008 20.6999 16.5008 21.1999C16.5008 21.6999 16.2008 21.9999 15.7008 21.9999Z" fill="#839299"/>
<path id="Vector_14" d="M29.8996 21.9999H18.8996C18.3996 21.9999 18.0996 21.6999 18.0996 21.1999C18.0996 20.6999 18.3996 20.3999 18.8996 20.3999H29.8996C30.3996 20.3999 30.6996 20.6999 30.6996 21.1999C30.5996 21.6999 30.2996 21.9999 29.8996 21.9999Z" fill="#839299"/>
<path id="Vector_15" d="M14.0996 25.2001H3.89961C3.39961 25.2001 3.09961 24.9001 3.09961 24.4001C3.09961 23.9001 3.39961 23.6001 3.89961 23.6001H14.0996C14.5996 23.6001 14.8996 23.9001 14.8996 24.4001C14.8996 24.9001 14.5996 25.2001 14.0996 25.2001Z" fill="#839299"/>
<path id="Vector_16" d="M25.1004 25.2001H17.2004C16.7004 25.2001 16.4004 24.9001 16.4004 24.4001C16.4004 23.9001 16.7004 23.6001 17.2004 23.6001H25.1004C25.6004 23.6001 25.9004 23.9001 25.9004 24.4001C25.9004 24.9001 25.6004 25.2001 25.1004 25.2001Z" fill="#839299"/>
<path id="Vector_17" d="M25.0992 28.2999H21.9992C21.4992 28.2999 21.1992 28 21.1992 27.5C21.1992 27 21.4992 26.7 21.9992 26.7H25.0992C25.5992 26.7 25.8992 27 25.8992 27.5C25.8992 28 25.5992 28.2999 25.0992 28.2999Z" fill="#839299"/>
<path id="Vector_18" d="M18.8996 28.2999H7.89961C7.39961 28.2999 7.09961 28 7.09961 27.5C7.09961 27 7.39961 26.7 7.89961 26.7H18.8996C19.3996 26.7 19.6996 27 19.6996 27.5C19.5996 28 19.2996 28.2999 18.8996 28.2999Z" fill="#839299"/>
<path id="Vector_19" d="M4.69961 28.2999H3.89961C3.39961 28.2999 3.09961 28 3.09961 27.5C3.09961 27 3.39961 26.7 3.89961 26.7H4.69961C5.19961 26.7 5.49961 27 5.49961 27.5C5.49961 28 5.19961 28.2999 4.69961 28.2999Z" fill="#839299"/>
<path id="Vector_20" d="M10.9996 31.4999H3.89961C3.39961 31.4999 3.09961 31.1999 3.09961 30.6999C3.09961 30.1999 3.39961 29.8999 3.89961 29.8999H10.9996C11.4996 29.8999 11.7996 30.1999 11.7996 30.6999C11.7996 31.0999 11.4996 31.4999 10.9996 31.4999Z" fill="#839299"/>
<path id="Vector_21" d="M15.7008 31.4999H14.1008C13.6008 31.4999 13.3008 31.1999 13.3008 30.6999C13.3008 30.1999 13.6008 29.8999 14.1008 29.8999H15.7008C16.2008 29.8999 16.5008 30.1999 16.5008 30.6999C16.5008 31.0999 16.2008 31.4999 15.7008 31.4999Z" fill="#839299"/>
<path id="Vector_22" d="M24.3996 31.4999H18.8996C18.3996 31.4999 18.0996 31.1999 18.0996 30.6999C18.0996 30.1999 18.3996 29.8999 18.8996 29.8999H24.3996C24.8996 29.8999 25.1996 30.1999 25.1996 30.6999C25.0996 31.0999 24.7996 31.4999 24.3996 31.4999Z" fill="#839299"/>
<path id="Vector_23" d="M14.0996 34.6H3.89961C3.39961 34.6 3.09961 34.3 3.09961 33.8C3.09961 33.3 3.49961 33 3.89961 33H14.0996C14.5996 33 14.8996 33.3 14.8996 33.8C14.8996 34.3 14.5996 34.6 14.0996 34.6Z" fill="#839299"/>
<path id="Vector_24" d="M21.2 34.6H17.3C16.8 34.6 16.5 34.3 16.5 33.8C16.5 33.3 16.8 33 17.3 33H21.2C21.7 33 22 33.3 22 33.8C22 34.3 21.7 34.6 21.2 34.6Z" fill="#839299"/>
<path id="Vector_25" d="M18.8996 37.7001H7.89961C7.39961 37.7001 7.09961 37.4001 7.09961 36.9001C7.09961 36.4001 7.39961 36.1001 7.89961 36.1001H18.8996C19.3996 36.1001 19.6996 36.4001 19.6996 36.9001C19.6996 37.4001 19.2996 37.7001 18.8996 37.7001Z" fill="#839299"/>
<path id="Vector_26" d="M4.69961 37.7001H3.89961C3.39961 37.7001 3.09961 37.4001 3.09961 36.9001C3.09961 36.4001 3.39961 36.1001 3.89961 36.1001H4.69961C5.19961 36.1001 5.49961 36.4001 5.49961 36.9001C5.49961 37.4001 5.19961 37.7001 4.69961 37.7001Z" fill="#839299"/>
<path id="Vector_27" d="M10.9996 40.9001H3.89961C3.39961 40.9001 3.09961 40.6 3.09961 40.1C3.09961 39.6 3.39961 39.3 3.89961 39.3H10.9996C11.4996 39.3 11.7996 39.6 11.7996 40.1C11.7996 40.6 11.4996 40.9001 10.9996 40.9001Z" fill="#839299"/>
<path id="Vector_28" d="M15.7008 40.9001H14.1008C13.6008 40.9001 13.3008 40.6 13.3008 40.1C13.3008 39.6 13.6008 39.3 14.1008 39.3H15.7008C16.2008 39.3 16.5008 39.6 16.5008 40.1C16.5008 40.6 16.2008 40.9001 15.7008 40.9001Z" fill="#839299"/>
<path id="Vector_29" d="M22.7996 40.9001H18.8996C18.3996 40.9001 18.0996 40.6 18.0996 40.1C18.0996 39.6 18.3996 39.3 18.8996 39.3H22.7996C23.2996 39.3 23.5996 39.6 23.5996 40.1C23.5996 40.6 23.2996 40.9001 22.7996 40.9001Z" fill="#839299"/>
<path id="Vector_30" d="M33.9992 48H44.6992C46.4992 48 47.9992 46.5 47.9992 44.7V34C47.9992 32.2 46.4992 30.7 44.6992 30.7H33.9992C32.1992 30.7 30.6992 32.2 30.6992 34V44.7C30.6992 46.5 32.1992 48 33.9992 48Z" fill="#54CC5A"/>
<g id="Group_3">
<path id="Vector_31" d="M38.5996 44.5999H40.1996V32.8999H38.5996V44.5999Z" fill="#F9FAFB"/>
<path id="Vector_32" d="M39.4004 45.6998L33.9004 40.3998L35.1004 39.2998L39.4004 43.4998L43.7004 39.2998L44.9004 40.3998L39.4004 45.6998Z" fill="#F9FAFB"/>
</g>
</g>
</g>
<defs>
<clipPath id="clip0_5571_18637">
<rect width="48" height="48" fill="white"/>
</clipPath>
</defs>
</svg>
