<svg width="185" height="50" viewBox="0 0 185 50" fill="none" xmlns="http://www.w3.org/2000/svg">
<path fill-rule="evenodd" clip-rule="evenodd" d="M27.8361 26.5718C27.8361 26.0316 27.5521 25.5352 27.0863 25.2675L14.6675 18.1147C14.4575 17.9911 14.2222 17.9268 13.9838 17.917C13.9623 17.917 13.8727 17.917 13.8554 17.917C13.6181 17.9268 13.3828 17.9911 13.1698 18.1147L0.75096 25.2675C0.287843 25.5352 0 26.0316 0 26.5718L0.0271977 45.8322C0.0271977 46.0999 0.166208 46.349 0.401545 46.4806C0.63197 46.619 0.916791 46.619 1.14646 46.4806L8.52687 42.2509C8.99377 41.9734 9.27783 41.4838 9.27783 40.9485V31.95C9.27783 31.4136 9.5619 30.9172 10.0269 30.6507L13.1694 28.839C13.4036 28.7037 13.6597 28.6375 13.9211 28.6375C14.1768 28.6375 14.4394 28.7037 14.6671 28.839L17.8089 30.6507C18.2739 30.9172 18.5587 31.4139 18.5587 31.95V40.9485C18.5587 41.4838 18.8465 41.9764 19.3104 42.2509L26.6889 46.4806C26.9205 46.619 27.2095 46.619 27.4388 46.4806C27.6673 46.349 27.8112 46.0999 27.8112 45.8322L27.8361 26.5718Z" fill="#333333"/>
<path fill-rule="evenodd" clip-rule="evenodd" d="M94.1491 0.0949818C93.9168 -0.0343131 93.6331 -0.0316668 93.4035 0.103299C93.1746 0.238265 93.0333 0.484379 93.0333 0.75053V19.8246C93.0333 20.0121 92.9332 20.1856 92.7711 20.2797C92.6087 20.3739 92.4081 20.3739 92.2457 20.2797L89.1353 18.4862C88.6714 18.2186 88.1003 18.219 87.6364 18.4866L75.2131 25.6625C74.7488 25.9309 74.4629 26.4262 74.4629 26.9626V41.317C74.4629 41.8535 74.7488 42.3487 75.2127 42.6175L87.6357 49.7987C88.0999 50.0671 88.6718 50.0671 89.1365 49.7987L101.562 42.6175C102.026 42.3487 102.311 41.8535 102.311 41.317V5.5352C102.311 4.99118 102.017 4.48912 101.542 4.22372L94.1491 0.0949818ZM92.9966 36.6008C92.9966 36.7346 92.9252 36.8586 92.8089 36.9255L88.5434 39.3863C88.4278 39.4528 88.2846 39.4528 88.169 39.3863L83.9035 36.9255C83.7872 36.859 83.7158 36.7346 83.7158 36.6008V31.6709C83.7158 31.5371 83.7872 31.4131 83.9032 31.3458L88.1687 28.8801C88.285 28.8128 88.4278 28.8128 88.5441 28.8801L92.8097 31.3458C92.9252 31.4131 92.997 31.5371 92.997 31.6709L92.9966 36.6008Z" fill="#333333"/>
<path fill-rule="evenodd" clip-rule="evenodd" d="M138.597 31.5417C139.059 31.273 139.343 30.7785 139.343 30.2435V26.765C139.343 26.2301 139.059 25.7352 138.596 25.4664L126.253 18.2939C125.788 18.0236 125.215 18.0232 124.749 18.292L112.33 25.4679C111.866 25.7363 111.58 26.2316 111.58 26.768V41.1186C111.58 41.6585 111.869 42.1564 112.338 42.4229L124.68 49.4612C125.135 49.7213 125.693 49.7239 126.151 49.4695L133.616 45.317C133.852 45.185 134 44.9363 134.001 44.6656C134.003 44.3949 133.859 44.1442 133.625 44.0096L121.127 36.83C120.894 36.6962 120.75 36.4474 120.75 36.1786V31.6816C120.75 31.4136 120.893 31.1652 121.126 31.0314L125.015 28.7872C125.247 28.6534 125.533 28.6534 125.764 28.7872L129.656 31.0314C129.888 31.1652 130.031 31.4136 130.031 31.6816V35.2202C130.031 35.489 130.175 35.737 130.407 35.8709C130.64 36.0051 130.926 36.0043 131.158 35.8693L138.597 31.5417Z" fill="#333333"/>
<path fill-rule="evenodd" clip-rule="evenodd" d="M50.4268 18.2167C50.8907 17.9486 51.4626 17.9486 51.9268 18.2167L64.349 25.391C64.8137 25.6591 65.0996 26.1547 65.0996 26.6915V41.0512C65.0996 41.5877 64.8137 42.0829 64.3498 42.3517L51.9276 49.5317C51.4633 49.8002 50.8911 49.8002 50.4268 49.5317L38.0076 42.3517C37.5438 42.0829 37.2578 41.5877 37.2578 41.0512V26.6908C37.2578 26.1543 37.5438 25.6591 38.008 25.3906L50.4268 18.2167Z" fill="#80BD01"/>
<path d="M162.716 49.7366C162.288 49.7366 161.862 49.6247 161.488 49.4077L157.577 47.0921C156.993 46.7651 157.278 46.6494 157.471 46.5821C158.25 46.3114 158.408 46.249 159.239 45.7772C159.326 45.7284 159.44 45.747 159.53 45.7995L162.534 47.5847C162.643 47.6452 162.797 47.6452 162.897 47.5847L174.611 40.8182C174.72 40.7559 174.79 40.6304 174.79 40.5011V26.9716C174.79 26.8393 174.72 26.7156 174.608 26.6484L162.9 19.888C162.792 19.8248 162.648 19.8248 162.539 19.888L150.833 26.6506C150.72 26.7156 150.648 26.8434 150.648 26.972V40.5011C150.648 40.6304 150.719 40.7532 150.832 40.8145L154.041 42.67C155.782 43.541 156.848 42.5153 156.848 41.4844V28.1262C156.848 27.9375 157 27.7886 157.189 27.7886H158.674C158.86 27.7886 159.013 27.9375 159.013 28.1262V41.4836C159.013 43.809 157.748 45.1428 155.545 45.1428C154.868 45.1428 154.335 45.1428 152.847 44.409L149.775 42.6393C149.017 42.2004 148.547 41.3797 148.547 40.5007V26.9716C148.547 26.0926 149.017 25.2719 149.775 24.8348L161.489 18.0608C162.23 17.6412 163.215 17.6412 163.951 18.0608L175.663 24.8348C176.422 25.2737 176.894 26.0926 176.894 26.9716V40.5007C176.894 41.3797 176.422 42.1974 175.663 42.6393L163.951 49.4077C163.575 49.6247 163.15 49.7366 162.716 49.7366Z" fill="#80BD01"/>
<path d="M166.333 40.4159C161.208 40.4159 160.134 38.061 160.134 36.0861C160.134 35.8982 160.285 35.7481 160.472 35.7481H161.987C162.156 35.7481 162.297 35.8698 162.323 36.0354C162.552 37.5783 163.234 38.357 166.333 38.357C168.801 38.357 169.851 37.7983 169.851 36.4879C169.851 35.7326 169.554 35.1719 165.718 34.7961C162.514 34.479 160.531 33.7701 160.531 31.2042C160.531 28.8387 162.523 27.4282 165.863 27.4282C169.616 27.4282 171.473 28.7318 171.708 31.5282C171.717 31.6246 171.683 31.7173 171.618 31.7891C171.554 31.8564 171.465 31.8972 171.37 31.8972H169.85C169.692 31.8972 169.553 31.7853 169.521 31.6326C169.156 30.0088 168.269 29.4901 165.863 29.4901C163.169 29.4901 162.855 30.4296 162.855 31.1332C162.855 31.9861 163.225 32.2341 166.863 32.7161C170.463 33.1921 172.173 33.8665 172.173 36.3987C172.173 38.9529 170.045 40.4159 166.333 40.4159Z" fill="#80BD01"/>
<path fill-rule="evenodd" clip-rule="evenodd" d="M125.318 30.8699C125.407 30.8181 125.517 30.8181 125.606 30.8699L127.99 32.2464C128.079 32.2982 128.134 32.3931 128.134 32.4959V35.2508C128.134 35.354 128.079 35.4489 127.99 35.5003L125.606 36.8768C125.517 36.9286 125.407 36.9286 125.318 36.8768L122.936 35.5003C122.847 35.4485 122.792 35.3536 122.792 35.2508V32.4959C122.792 32.3927 122.847 32.2978 122.936 32.2464L125.318 30.8699Z" fill="#80BD01"/>
<path d="M184.999 21.7263C184.999 22.9694 183.984 23.9856 182.742 23.9856C181.511 23.9856 180.484 22.9815 180.484 21.7263C180.484 20.4474 181.536 19.4663 182.742 19.4663C183.96 19.4663 184.999 20.447 184.999 21.7263ZM180.849 21.7199C180.849 22.772 181.697 23.6211 182.736 23.6211C183.787 23.6211 184.635 22.7543 184.635 21.7199C184.635 20.6681 183.776 19.8315 182.736 19.8315C181.709 19.8315 180.849 20.656 180.849 21.7199ZM181.894 20.4587H182.766C183.065 20.4587 183.651 20.4587 183.651 21.1286C183.651 21.5948 183.352 21.6904 183.172 21.7501C183.519 21.774 183.543 22.0012 183.59 22.324C183.614 22.527 183.651 22.8741 183.722 22.9932H183.185C183.172 22.8741 183.089 22.228 183.089 22.1925C183.053 22.0488 183.005 21.9774 182.826 21.9774H182.384V22.9932H181.894L181.894 20.4587ZM182.372 21.5706H182.766C183.088 21.5706 183.148 21.3437 183.148 21.2122C183.148 20.8651 182.909 20.8651 182.778 20.8651H182.372V21.5706Z" fill="#80BD01"/>
</svg>
