<svg width="50" height="50" viewBox="0 0 50 50" fill="none" xmlns="http://www.w3.org/2000/svg">
<path d="M46.0938 32.0312H39.8438C38.9808 32.0312 38.2812 32.7308 38.2812 33.5938V46.0938C38.2812 46.9567 38.9808 47.6562 39.8438 47.6562H46.0938C46.9567 47.6562 47.6562 46.9567 47.6562 46.0938V33.5938C47.6562 32.7308 46.9567 32.0312 46.0938 32.0312Z" fill="#1661AC"/>
<path d="M45.3125 32.0312V32.8125C45.3113 33.2265 45.1462 33.6232 44.8535 33.916C44.5607 34.2087 44.164 34.3738 43.75 34.375H42.1875C41.7735 34.3738 41.3768 34.2087 41.084 33.916C40.7913 33.6232 40.6262 33.2265 40.625 32.8125V32.0312H45.3125Z" fill="#FFDE55"/>
<path d="M47.6562 33.5938V46.0938C47.655 46.5078 47.49 46.9045 47.1972 47.1972C46.9045 47.49 46.5078 47.655 46.0938 47.6562H44.5312C44.9453 47.655 45.342 47.49 45.6347 47.1972C45.9275 46.9045 46.0925 46.5078 46.0938 46.0938V33.5938C46.0925 33.1797 45.9275 32.783 45.6347 32.4903C45.342 32.1975 44.9453 32.0325 44.5312 32.0312H46.0938C46.5078 32.0325 46.9045 32.1975 47.1972 32.4903C47.49 32.783 47.655 33.1797 47.6562 33.5938Z" fill="#1661AC"/>
<path d="M45.3125 32.0312V32.8125C45.3113 33.2265 45.1462 33.6232 44.8535 33.916C44.5607 34.2087 44.164 34.3738 43.75 34.375H42.1875C42.6015 34.3738 42.9982 34.2087 43.291 33.916C43.5837 33.6232 43.7488 33.2265 43.75 32.8125V32.0312H45.3125Z" fill="#FFCD00"/>
<path d="M10.1562 32.0312H3.90625C3.04331 32.0312 2.34375 32.7308 2.34375 33.5938V46.0938C2.34375 46.9567 3.04331 47.6562 3.90625 47.6562H10.1562C11.0192 47.6562 11.7188 46.9567 11.7188 46.0938V33.5938C11.7188 32.7308 11.0192 32.0312 10.1562 32.0312Z" fill="#1661AC"/>
<path d="M47.6562 10.1562V11.7188C47.655 12.1328 47.49 12.5295 47.1972 12.8222C46.9045 13.115 46.5078 13.28 46.0938 13.2812H33.5938C33.1797 13.28 32.783 13.115 32.4903 12.8222C32.1975 12.5295 32.0325 12.1328 32.0312 11.7188V10.1562H47.6562Z" fill="#E0E0E2"/>
<path d="M47.6562 3.90625V10.1562H32.0312V3.90625C32.0325 3.49223 32.1975 3.09552 32.4903 2.80276C32.783 2.51 33.1797 2.34499 33.5938 2.34375H46.0938C46.5078 2.34499 46.9045 2.51 47.1972 2.80276C47.49 3.09552 47.655 3.49223 47.6562 3.90625Z" fill="#1661AC"/>
<path d="M42.1328 13.2812L42.8984 16.4062H36.7891L37.5547 13.2812H42.1328Z" fill="#E0E0E2"/>
<path d="M35.1562 36.7188V46.0938C35.155 46.5078 34.99 46.9045 34.6972 47.1972C34.4045 47.49 34.0078 47.655 33.5938 47.6562H16.4062C15.9922 47.655 15.5955 47.49 15.3028 47.1972C15.01 46.9045 14.845 46.5078 14.8438 46.0938V36.7188H35.1562Z" fill="#57A4FF"/>
<path d="M35.1562 32.0312V36.7188H14.8438V32.0312C14.845 31.6172 15.01 31.2205 15.3028 30.9278C15.5955 30.635 15.9922 30.47 16.4062 30.4688H33.5938C34.0078 30.47 34.4045 30.635 34.6972 30.9278C34.99 31.2205 35.155 31.6172 35.1562 32.0312Z" fill="#FFDD33"/>
<path d="M35.1562 36.7188V46.0938C35.155 46.5078 34.99 46.9045 34.6972 47.1972C34.4045 47.49 34.0078 47.655 33.5938 47.6562H30.4688C30.8828 47.655 31.2795 47.49 31.5722 47.1972C31.865 46.9045 32.03 46.5078 32.0312 46.0938V36.7188H35.1562Z" fill="#2488FF"/>
<path d="M35.1562 32.0312V36.7188H32.0312V32.0312C32.03 31.6172 31.865 31.2205 31.5722 30.9278C31.2795 30.635 30.8828 30.47 30.4688 30.4688H33.5938C34.0078 30.47 34.4045 30.635 34.6972 30.9278C34.99 31.2205 35.155 31.6172 35.1562 32.0312Z" fill="#FFCD00"/>
<path d="M17.9688 10.1562V11.7188C17.9675 12.1328 17.8025 12.5295 17.5097 12.8222C17.217 13.115 16.8203 13.28 16.4062 13.2812H3.90625C3.49223 13.28 3.09552 13.115 2.80276 12.8222C2.51 12.5295 2.34499 12.1328 2.34375 11.7188V10.1562H17.9688Z" fill="#E0E0E2"/>
<path d="M17.9688 3.90625V10.1562H2.34375V3.90625C2.34499 3.49223 2.51 3.09552 2.80276 2.80276C3.09552 2.51 3.49223 2.34499 3.90625 2.34375H16.4062C16.8203 2.34499 17.217 2.51 17.5097 2.80276C17.8025 3.09552 17.9675 3.49223 17.9688 3.90625Z" fill="#1661AC"/>
<path d="M12.4453 13.2812L13.2109 16.4062H7.10156L7.86719 13.2812H12.4453Z" fill="#E0E0E2"/>
<path d="M17.9688 10.1562V11.7188C17.9675 12.1328 17.8025 12.5295 17.5097 12.8222C17.217 13.115 16.8203 13.28 16.4062 13.2812H14.8438C15.2578 13.28 15.6545 13.115 15.9472 12.8222C16.24 12.5295 16.405 12.1328 16.4062 11.7188V10.1562H17.9688Z" fill="#C6C5CA"/>
<path d="M17.9688 3.90625V10.1562H16.4062V3.90625C16.405 3.49223 16.24 3.09552 15.9472 2.80276C15.6545 2.51 15.2578 2.34499 14.8438 2.34375H16.4062C16.8203 2.34499 17.217 2.51 17.5097 2.80276C17.8025 3.09552 17.9675 3.49223 17.9688 3.90625Z" fill="#1661AC"/>
<path d="M13.2109 16.4062H11.6484L10.8828 13.2812H12.4453L13.2109 16.4062Z" fill="#C6C5CA"/>
<path d="M47.6562 10.1562V11.7188C47.655 12.1328 47.49 12.5295 47.1972 12.8222C46.9045 13.115 46.5078 13.28 46.0938 13.2812H44.5312C44.9453 13.28 45.342 13.115 45.6347 12.8222C45.9275 12.5295 46.0925 12.1328 46.0938 11.7188V10.1562H47.6562Z" fill="#C6C5CA"/>
<path d="M47.6562 3.90625V10.1562H46.0938V3.90625C46.0925 3.49223 45.9275 3.09552 45.6347 2.80276C45.342 2.51 44.9453 2.34499 44.5312 2.34375H46.0938C46.5078 2.34499 46.9045 2.51 47.1972 2.80276C47.49 3.09552 47.655 3.49223 47.6562 3.90625Z" fill="#1661AC"/>
<path d="M42.8984 16.4062H41.3359L40.5703 13.2812H42.1328L42.8984 16.4062Z" fill="#C6C5CA"/>
<path d="M9.375 32.0312V32.8125C9.37376 33.2265 9.20875 33.6232 8.91599 33.916C8.62323 34.2087 8.22652 34.3738 7.8125 34.375H6.25C5.83598 34.3738 5.43927 34.2087 5.14651 33.916C4.85375 33.6232 4.68874 33.2265 4.6875 32.8125V32.0312H9.375Z" fill="#FFDE55"/>
<path d="M11.7188 33.5938V46.0938C11.7175 46.5078 11.5525 46.9045 11.2597 47.1972C10.967 47.49 10.5703 47.655 10.1562 47.6562H8.59375C9.00777 47.655 9.40448 47.49 9.69724 47.1972C9.99 46.9045 10.155 46.5078 10.1562 46.0938V33.5938C10.155 33.1797 9.99 32.783 9.69724 32.4903C9.40448 32.1975 9.00777 32.0325 8.59375 32.0312H10.1562C10.5703 32.0325 10.967 32.1975 11.2597 32.4903C11.5525 32.783 11.7175 33.1797 11.7188 33.5938Z" fill="#1661AC"/>
<path d="M9.375 32.0312V32.8125C9.37376 33.2265 9.20875 33.6232 8.91599 33.916C8.62323 34.2087 8.22652 34.3738 7.8125 34.375H6.25C6.66402 34.3738 7.06073 34.2087 7.35349 33.916C7.64625 33.6232 7.81126 33.2265 7.8125 32.8125V32.0312H9.375Z" fill="#FFCD00"/>
<path d="M46.0938 31.25H39.8438C39.2227 31.2519 38.6277 31.4994 38.1885 31.9385C37.7494 32.3777 37.5019 32.9727 37.5 33.5938V46.0938C37.5019 46.7148 37.7494 47.3098 38.1885 47.749C38.6277 48.1881 39.2227 48.4356 39.8438 48.4375H46.0938C46.7148 48.4356 47.3098 48.1881 47.749 47.749C48.1881 47.3098 48.4356 46.7148 48.4375 46.0938V33.5938C48.4356 32.9727 48.1881 32.3777 47.749 31.9385C47.3098 31.4994 46.7148 31.2519 46.0938 31.25ZM44.5312 32.8125C44.5312 33.0197 44.4489 33.2184 44.3024 33.3649C44.1559 33.5114 43.9572 33.5938 43.75 33.5938H42.1875C41.9803 33.5938 41.7816 33.5114 41.6351 33.3649C41.4886 33.2184 41.4062 33.0197 41.4062 32.8125H44.5312ZM46.875 46.0938C46.875 46.301 46.7927 46.4997 46.6462 46.6462C46.4997 46.7927 46.301 46.875 46.0938 46.875H39.8438C39.6365 46.875 39.4378 46.7927 39.2913 46.6462C39.1448 46.4997 39.0625 46.301 39.0625 46.0938V33.5938C39.0625 33.3865 39.1448 33.1878 39.2913 33.0413C39.4378 32.8948 39.6365 32.8125 39.8438 32.8125C39.8456 33.4335 40.0931 34.0286 40.5323 34.4677C40.9714 34.9069 41.5665 35.1544 42.1875 35.1562H43.75C44.371 35.1544 44.9661 34.9069 45.4052 34.4677C45.8444 34.0286 46.0919 33.4335 46.0938 32.8125C46.301 32.8125 46.4997 32.8948 46.6462 33.0413C46.7927 33.1878 46.875 33.3865 46.875 33.5938V46.0938Z" fill="black"/>
<path d="M16.4062 1.5625H3.90625C3.28522 1.56435 2.69015 1.81188 2.25102 2.25102C1.81188 2.69015 1.56435 3.28522 1.5625 3.90625V11.7188C1.56435 12.3398 1.81188 12.9348 2.25102 13.374C2.69015 13.8131 3.28522 14.0606 3.90625 14.0625H6.86719L6.34375 16.2188C6.31341 16.334 6.31032 16.4547 6.33473 16.5713C6.35914 16.6879 6.41037 16.7972 6.48438 16.8906C6.55795 16.9837 6.65176 17.0589 6.7587 17.1103C6.86564 17.1617 6.9829 17.1881 7.10156 17.1875H13.2109C13.3296 17.1881 13.4469 17.1617 13.5538 17.1103C13.6607 17.0589 13.7546 16.9837 13.8281 16.8906C13.9021 16.7972 13.9534 16.6879 13.9778 16.5713C14.0022 16.4547 13.9991 16.334 13.9687 16.2188L13.4453 14.0625H16.4062C17.0273 14.0606 17.6223 13.8131 18.0615 13.374C18.5006 12.9348 18.7481 12.3398 18.75 11.7188V3.90625C18.7481 3.28522 18.5006 2.69015 18.0615 2.25102C17.6223 1.81188 17.0273 1.56435 16.4062 1.5625ZM8.09375 15.625L8.47656 14.0625H11.8359L12.2188 15.625H8.09375ZM17.1875 11.7188C17.1875 11.926 17.1052 12.1247 16.9587 12.2712C16.8122 12.4177 16.6135 12.5 16.4062 12.5H3.90625C3.69905 12.5 3.50034 12.4177 3.35382 12.2712C3.20731 12.1247 3.125 11.926 3.125 11.7188V10.9375H17.1875V11.7188ZM17.1875 9.375H3.125V3.90625C3.125 3.69905 3.20731 3.50034 3.35382 3.35382C3.50034 3.20731 3.69905 3.125 3.90625 3.125H16.4062C16.6135 3.125 16.8122 3.20731 16.9587 3.35382C17.1052 3.50034 17.1875 3.69905 17.1875 3.90625V9.375Z" fill="black"/>
<path d="M46.0938 1.5625H33.5938C32.9727 1.56435 32.3777 1.81188 31.9385 2.25102C31.4994 2.69015 31.2519 3.28522 31.25 3.90625V11.7188C31.2519 12.3398 31.4994 12.9348 31.9385 13.374C32.3777 13.8131 32.9727 14.0606 33.5938 14.0625H36.5547L36.0312 16.2188C36.0009 16.334 35.9978 16.4547 36.0222 16.5713C36.0466 16.6879 36.0979 16.7972 36.1719 16.8906C36.2454 16.9837 36.3393 17.0589 36.4462 17.1103C36.5531 17.1617 36.6704 17.1881 36.7891 17.1875H42.8984C43.0171 17.1881 43.1344 17.1617 43.2413 17.1103C43.3482 17.0589 43.4421 16.9837 43.5156 16.8906C43.5896 16.7972 43.6409 16.6879 43.6653 16.5713C43.6897 16.4547 43.6866 16.334 43.6563 16.2188L43.1328 14.0625H46.0938C46.7148 14.0606 47.3098 13.8131 47.749 13.374C48.1881 12.9348 48.4356 12.3398 48.4375 11.7188V3.90625C48.4356 3.28522 48.1881 2.69015 47.749 2.25102C47.3098 1.81188 46.7148 1.56435 46.0938 1.5625ZM37.7813 15.625L38.1641 14.0625H41.5234L41.9062 15.625H37.7813ZM46.875 11.7188C46.875 11.926 46.7927 12.1247 46.6462 12.2712C46.4997 12.4177 46.301 12.5 46.0938 12.5H33.5938C33.3865 12.5 33.1878 12.4177 33.0413 12.2712C32.8948 12.1247 32.8125 11.926 32.8125 11.7188V10.9375H46.875V11.7188ZM46.875 9.375H32.8125V3.90625C32.8125 3.69905 32.8948 3.50034 33.0413 3.35382C33.1878 3.20731 33.3865 3.125 33.5938 3.125H46.0938C46.301 3.125 46.4997 3.20731 46.6462 3.35382C46.7927 3.50034 46.875 3.69905 46.875 3.90625V9.375Z" fill="black"/>
<path d="M10.1562 31.25H3.90625C3.28522 31.2519 2.69015 31.4994 2.25102 31.9385C1.81188 32.3777 1.56435 32.9727 1.5625 33.5938V46.0938C1.56435 46.7148 1.81188 47.3098 2.25102 47.749C2.69015 48.1881 3.28522 48.4356 3.90625 48.4375H10.1562C10.7773 48.4356 11.3723 48.1881 11.8115 47.749C12.2506 47.3098 12.4981 46.7148 12.5 46.0938V33.5938C12.4981 32.9727 12.2506 32.3777 11.8115 31.9385C11.3723 31.4994 10.7773 31.2519 10.1562 31.25ZM8.59375 32.8125C8.59375 33.0197 8.51144 33.2184 8.36493 33.3649C8.21841 33.5114 8.0197 33.5938 7.8125 33.5938H6.25C6.0428 33.5938 5.84409 33.5114 5.69757 33.3649C5.55106 33.2184 5.46875 33.0197 5.46875 32.8125H8.59375ZM10.9375 46.0938C10.9375 46.301 10.8552 46.4997 10.7087 46.6462C10.5622 46.7927 10.3635 46.875 10.1562 46.875H3.90625C3.69905 46.875 3.50034 46.7927 3.35382 46.6462C3.20731 46.4997 3.125 46.301 3.125 46.0938V33.5938C3.125 33.3865 3.20731 33.1878 3.35382 33.0413C3.50034 32.8948 3.69905 32.8125 3.90625 32.8125C3.9081 33.4335 4.15563 34.0286 4.59477 34.4677C5.0339 34.9069 5.62897 35.1544 6.25 35.1562H7.8125C8.43353 35.1544 9.0286 34.9069 9.46773 34.4677C9.90687 34.0286 10.1544 33.4335 10.1562 32.8125C10.3635 32.8125 10.5622 32.8948 10.7087 33.0413C10.8552 33.1878 10.9375 33.3865 10.9375 33.5938V46.0938Z" fill="black"/>
<path d="M20.3125 28.125V25.7812C20.3125 25.574 20.2302 25.3753 20.0837 25.2288C19.9372 25.0823 19.7385 25 19.5312 25H7.03125C6.82405 25 6.62534 25.0823 6.47882 25.2288C6.33231 25.3753 6.25 25.574 6.25 25.7812V28.9062H7.8125V26.5625H18.75V28.125H20.3125Z" fill="black"/>
<path d="M10.9375 18.75H9.375V21.875C9.375 22.0822 9.45731 22.2809 9.60382 22.4274C9.75034 22.5739 9.94905 22.6562 10.1562 22.6562H21.875V28.125H23.4375V21.875C23.4375 21.6678 23.3552 21.4691 23.2087 21.3226C23.0622 21.1761 22.8635 21.0938 22.6562 21.0938H10.9375V18.75Z" fill="#FFDD33"/>
<path d="M43.75 28.9062V25.7812C43.75 25.574 43.6677 25.3753 43.5212 25.2288C43.3747 25.0823 43.176 25 42.9688 25H30.4688C30.2615 25 30.0628 25.0823 29.9163 25.2288C29.7698 25.3753 29.6875 25.574 29.6875 25.7812V28.125H31.25V26.5625H42.1875V28.9062H43.75Z" fill="black"/>
<path d="M28.125 22.6562H39.8438C40.051 22.6562 40.2497 22.5739 40.3962 22.4274C40.5427 22.2809 40.625 22.0822 40.625 21.875V18.75H39.0625V21.0938H27.3438C27.1365 21.0938 26.9378 21.1761 26.7913 21.3226C26.6448 21.4691 26.5625 21.6678 26.5625 21.875V28.125H28.125V22.6562Z" fill="#FFDD33"/>
<path d="M33.5938 29.6875H16.4062C15.7852 29.6894 15.1902 29.9369 14.751 30.376C14.3119 30.8152 14.0644 31.4102 14.0625 32.0312V46.0938C14.0644 46.7148 14.3119 47.3098 14.751 47.749C15.1902 48.1881 15.7852 48.4356 16.4062 48.4375H33.5938C34.2148 48.4356 34.8098 48.1881 35.249 47.749C35.6881 47.3098 35.9356 46.7148 35.9375 46.0938V32.0312C35.9356 31.4102 35.6881 30.8152 35.249 30.376C34.8098 29.9369 34.2148 29.6894 33.5938 29.6875ZM34.375 46.0938C34.375 46.301 34.2927 46.4997 34.1462 46.6462C33.9997 46.7927 33.801 46.875 33.5938 46.875H16.4062C16.199 46.875 16.0003 46.7927 15.8538 46.6462C15.7073 46.4997 15.625 46.301 15.625 46.0938V37.5H34.375V46.0938ZM34.375 35.9375H15.625V32.0312C15.625 31.824 15.7073 31.6253 15.8538 31.4788C16.0003 31.3323 16.199 31.25 16.4062 31.25H33.5938C33.801 31.25 33.9997 31.3323 34.1462 31.4788C34.2927 31.6253 34.375 31.824 34.375 32.0312V35.9375Z" fill="black"/>
<path d="M31.25 32.8125H32.8125V34.375H31.25V32.8125Z" fill="black"/>
<path d="M28.125 32.8125H29.6875V34.375H28.125V32.8125Z" fill="black"/>
<path d="M25 32.8125H26.5625V34.375H25V32.8125Z" fill="black"/>
</svg>
