<svg width="114" height="114" viewBox="0 0 114 114" fill="none" xmlns="http://www.w3.org/2000/svg">
<path d="M74.9611 46.9955H60.0527V45.6596H73.6252V13.6191H90.1265V14.9551H74.9611V46.9955ZM81.8314 44.2419H90.2759V42.906H80.4955V54.2708H60.0527V55.6068H81.8314V44.2419ZM74.9611 68.0544H60.0527V69.3903H73.6252V101.431H91.0654V100.095H74.9611V68.0544ZM80.4955 72.143H90.2759V70.8071H81.8314V59.4422H60.0527V60.7782H80.4955V72.143Z" fill="#53433F"/>
<path d="M64.2861 106.246C64.2827 107.401 63.8225 108.507 63.0059 109.324C62.1894 110.14 61.0828 110.601 59.9281 110.604H7.19594C6.04116 110.601 4.93465 110.14 4.1181 109.324C3.30154 108.507 2.8413 107.401 2.83789 106.246V8.26332C2.8413 7.10855 3.30154 6.00204 4.1181 5.18548C4.93465 4.36892 6.04116 3.90868 7.19594 3.90527H59.9281C61.0828 3.90868 62.1894 4.36892 63.0059 5.18548C63.8225 6.00204 64.2827 7.10855 64.2861 8.26332V106.246Z" fill="#66CCFF"/>
<path d="M64.2866 8.26332V106.246C64.2832 107.401 63.823 108.507 63.0064 109.324C62.1899 110.14 61.0833 110.601 59.9286 110.604H33.5625V3.90527H59.9286C61.0833 3.90868 62.1899 4.36892 63.0064 5.18548C63.823 6.00204 64.2832 7.10855 64.2866 8.26332Z" fill="#4DA6FF"/>
<path d="M59.6375 101.178H7.48633V8.4646H59.6375V101.178Z" fill="#F3F5F9"/>
<path d="M59.638 8.4646V101.179H33.5625V8.4646H59.638Z" fill="#E1E6F0"/>
<path d="M53.3278 44.8071C53.959 44.8231 54.5583 45.088 54.9949 45.5442C55.4316 46.0004 55.67 46.6108 55.6583 47.2421V71.2562C55.67 71.8876 55.4316 72.4979 54.9949 72.9541C54.5583 73.4103 53.959 73.6753 53.3278 73.6912H13.7949C13.1638 73.675 12.5647 73.41 12.1283 72.9538C11.6919 72.4977 11.4535 71.8874 11.4653 71.2562V47.2421C11.4536 46.6108 11.692 46.0005 12.1286 45.5444C12.5652 45.0882 13.1644 44.8232 13.7956 44.8071H53.3278Z" fill="#68544F"/>
<path d="M55.6596 47.2421V71.2562C55.6712 71.8876 55.4327 72.498 54.9961 72.9541C54.5594 73.4103 53.9601 73.6753 53.3288 73.6912H33.5625V44.8071H53.3288C53.9601 44.8231 54.5594 45.088 54.9961 45.5442C55.4327 46.0004 55.6712 46.6107 55.6596 47.2421Z" fill="#53433F"/>
<path d="M51.4239 69.4921H44.1523V61.3105H51.4239V69.4921Z" fill="#F3F5F9"/>
<path d="M111.01 99.9809C111.01 102.206 110.351 104.381 109.114 106.232C107.878 108.082 106.121 109.524 104.065 110.376C102.009 111.227 99.7469 111.45 97.5644 111.016C95.3819 110.582 93.3772 109.51 91.8037 107.937C90.2302 106.363 89.1586 104.358 88.7245 102.176C88.2904 99.9934 88.5132 97.7312 89.3648 95.6753C90.2163 93.6195 91.6584 91.8623 93.5086 90.626C95.3589 89.3897 97.5341 88.7299 99.7594 88.7299C102.743 88.7299 105.605 89.9152 107.715 92.0252C109.825 94.1352 111.01 96.9969 111.01 99.9809ZM99.7594 32.2055C97.5341 32.2055 95.3589 32.8653 93.5086 34.1016C91.6584 35.3379 90.2163 37.095 89.3648 39.1509C88.5132 41.2068 88.2904 43.469 88.7245 45.6515C89.1586 47.834 90.2302 49.8387 91.8037 51.4122C93.3772 52.9857 95.3819 54.0572 97.5644 54.4914C99.7469 54.9255 102.009 54.7027 104.065 53.8511C106.121 52.9995 107.878 51.5575 109.114 49.7072C110.351 47.857 111.01 45.6817 111.01 43.4565C111.01 40.4725 109.825 37.6108 107.715 35.5008C105.605 33.3908 102.743 32.2055 99.7594 32.2055ZM99.7594 2.76807C97.5047 2.76807 95.3006 3.43666 93.4259 4.68931C91.5512 5.94196 90.09 7.7224 89.2272 9.80548C88.3643 11.8886 88.1386 14.1807 88.5784 16.3921C89.0183 18.6035 90.104 20.6348 91.6984 22.2291C93.2927 23.8234 95.324 24.9091 97.5354 25.349C99.7467 25.7889 102.039 25.5631 104.122 24.7003C106.205 23.8375 107.985 22.3763 109.238 20.5016C110.491 18.6268 111.159 16.4228 111.159 14.1681C111.159 11.1446 109.958 8.24496 107.82 6.10705C105.682 3.96913 102.783 2.76807 99.7594 2.76807ZM99.7594 60.1299C97.5341 60.1299 95.3589 60.7897 93.5086 62.026C91.6584 63.2623 90.2163 65.0195 89.3648 67.0753C88.5132 69.1312 88.2904 71.3934 88.7245 73.5759C89.1586 75.7584 90.2302 77.7631 91.8037 79.3366C93.3772 80.9101 95.3819 81.9817 97.5644 82.4158C99.7469 82.8499 102.009 82.6271 104.065 81.7755C106.121 80.924 107.878 79.4819 109.114 77.6317C110.351 75.7814 111.01 73.6062 111.01 71.3809C111.01 68.397 109.825 65.5352 107.715 63.4252C105.605 61.3153 102.743 60.1299 99.7594 60.1299Z" fill="#FFDF40"/>
<path d="M38.8336 107.359H28.2919C27.9716 107.359 27.6644 107.232 27.4379 107.006C27.2113 106.779 27.084 106.472 27.084 106.152V105.416C27.084 105.095 27.2112 104.788 27.4378 104.562C27.6643 104.335 27.9715 104.208 28.2919 104.208H38.8336C38.9922 104.208 39.1492 104.239 39.2958 104.3C39.4423 104.36 39.5754 104.449 39.6876 104.562C39.7997 104.674 39.8887 104.807 39.9494 104.953C40.0101 105.1 40.0413 105.257 40.0412 105.416V106.152C40.0412 106.472 39.914 106.779 39.6875 107.006C39.461 107.232 39.1539 107.359 38.8336 107.359Z" fill="#F3F5F9"/>
<path d="M40.0411 105.415V106.152C40.0411 106.472 39.9139 106.779 39.6873 107.006C39.4608 107.232 39.1536 107.359 38.8332 107.359H33.5625V104.208H38.8332C39.1535 104.208 39.4607 104.335 39.6873 104.561C39.9138 104.788 40.0411 105.095 40.0411 105.415Z" fill="#E1E6F0"/>
<path d="M11.4648 53.6976V49.9966H55.6579V53.6976H11.4648Z" fill="#FFD9B3"/>
<path d="M55.6596 49.9966V53.6976H33.5625V49.9966H55.6596Z" fill="#FFBB99"/>
<path d="M37.4576 49.9964V60.9166H29.668V49.9964H24.8809L33.5631 40.8179L42.2454 49.9964H37.4576Z" fill="#E1E6F0"/>
<path d="M111.011 99.9808C111.011 102.965 109.825 105.826 107.715 107.936C105.605 110.046 102.744 111.232 99.7598 111.232V88.7297C101.237 88.7297 102.7 89.0207 104.065 89.5862C105.43 90.1516 106.671 90.9803 107.715 92.0251C108.76 93.0698 109.589 94.3102 110.154 95.6752C110.72 97.0402 111.011 98.5033 111.011 99.9808ZM99.7598 25.569C102.783 25.569 105.683 24.368 107.821 22.2301C109.959 20.0921 111.16 17.1925 111.16 14.169C111.16 11.1456 109.959 8.24594 107.821 6.10803C105.683 3.97011 102.783 2.76904 99.7598 2.76904V25.569ZM99.7598 60.1297V82.6318C102.744 82.6318 105.605 81.4465 107.715 79.3365C109.825 77.2265 111.011 74.3648 111.011 71.3808C111.011 68.3968 109.825 65.5351 107.715 63.4251C105.605 61.3151 102.744 60.1297 99.7598 60.1297ZM99.7598 32.2053V54.7065C102.744 54.7065 105.605 53.5211 107.715 51.4112C109.825 49.3012 111.011 46.4394 111.011 43.4555C111.011 40.4715 109.825 37.6098 107.715 35.4998C105.605 33.3898 102.744 32.2044 99.7598 32.2044V32.2053Z" fill="#FFBE40"/>
<path d="M42.2448 49.9967H37.4576V60.9169H33.5625V40.8184L42.2448 49.9967Z" fill="#F3F5F9"/>
<path d="M103.412 99.3137C104.003 98.8167 104.428 98.1496 104.628 97.403C104.827 96.6564 104.793 95.8664 104.528 95.1403C104.263 94.4142 103.781 93.7872 103.148 93.3443C102.515 92.9014 101.76 92.6641 100.987 92.6647H99.7321V91.6694H98.3962V92.6647H97.7418V91.6694H96.4059V92.6647H95.291V94.0006H96.4059V105.934H95.291V107.27H96.4059V108.265H97.7418V107.27H98.3962V108.265H99.7321V107.27H101.536C102.65 107.268 103.718 106.825 104.506 106.037C105.294 105.25 105.737 104.182 105.739 103.067C105.739 101.598 105.088 100.054 103.412 99.3137ZM100.987 94.0006C101.309 93.9976 101.628 94.0582 101.925 94.1791C102.223 94.2999 102.494 94.4786 102.722 94.7047C102.951 94.9309 103.132 95.2 103.256 95.4967C103.379 95.7933 103.443 96.1115 103.443 96.4328C103.443 96.7542 103.379 97.0724 103.256 97.369C103.132 97.6656 102.951 97.9348 102.722 98.1609C102.494 98.3871 102.223 98.5657 101.925 98.6866C101.628 98.8074 101.309 98.8681 100.987 98.865H97.7418V94.0006H100.987ZM101.536 105.934H97.7418V100.201H100.987C100.999 100.201 101.01 100.199 101.021 100.199C103.201 100.199 104.402 101.218 104.402 103.066C104.402 103.826 104.1 104.555 103.562 105.093C103.025 105.631 102.296 105.933 101.536 105.934Z" fill="#FF5959"/>
<path d="M102.716 16.8423C102.481 15.5351 101.173 14.6251 99.128 14.3452C97.4683 14.1179 96.2515 13.2199 95.7899 11.8809C95.5882 11.2839 95.5544 10.643 95.6921 10.0281C95.8299 9.41317 96.1339 8.84794 96.571 8.39406C97.2429 7.7283 98.112 7.29757 99.0487 7.16611V5.229H100.385V7.14719C101.596 7.2962 102.701 7.91312 103.464 8.86609L102.426 9.70773C102.127 9.33212 101.75 9.02523 101.321 8.80782C100.892 8.59041 100.422 8.46753 99.9418 8.4475C99.5011 8.42134 99.0597 8.4857 98.6449 8.63661C98.23 8.78753 97.8504 9.0218 97.5295 9.32499C97.2633 9.60086 97.0781 9.94458 96.994 10.3186C96.91 10.6926 96.9303 11.0825 97.0528 11.4458C97.3445 12.2919 98.1661 12.8654 99.3092 13.0218C101.926 13.3802 103.691 14.7197 104.031 16.6065C104.165 17.3947 104.044 18.2048 103.688 18.9204C103.332 19.6359 102.758 20.2199 102.048 20.5883C101.529 20.8653 100.966 21.052 100.385 21.1405V23.0829H99.0487V21.1768C98.5412 21.1263 98.0442 21.0002 97.5741 20.8025C96.463 20.3329 95.6592 19.4843 95.3711 18.4744L96.6558 18.1072C96.8353 18.7356 97.3461 19.2557 98.0942 19.5716C98.6262 19.7885 99.1992 19.8863 99.7731 19.8584C100.347 19.8305 100.908 19.6774 101.416 19.41C101.873 19.1708 102.245 18.7948 102.478 18.3344C102.711 17.8741 102.794 17.3524 102.716 16.8423Z" fill="#FF5959"/>
<path d="M93.5152 74.4271H91.8965V73.0912H93.1572C92.952 71.9805 92.952 70.8416 93.1572 69.7309H91.8965V68.3949H93.5152C94.5857 65.3515 97.2242 63.1921 100.304 63.1921C102.536 63.1921 104.615 64.3177 106.008 66.2806L104.918 67.0537C103.779 65.4485 102.097 64.5281 100.304 64.5281C97.9521 64.5281 95.9145 66.1074 94.9442 68.3949H101.566V69.7309H94.5198C94.2791 70.8381 94.2791 71.984 94.5198 73.0912H101.565V74.4271H94.9438C95.9141 76.7145 97.9516 78.294 100.303 78.294C101.119 78.2841 101.922 78.095 102.656 77.7401C103.389 77.3852 104.036 76.8732 104.55 76.2405L105.566 77.1088C104.178 78.7342 102.309 79.6306 100.303 79.6306C97.2238 79.63 94.5853 77.4706 93.5152 74.4271Z" fill="#FF5959"/>
<path d="M104.213 50.4027L103.601 51.0145C103.376 51.2401 103.108 51.4191 102.814 51.5411C102.519 51.6632 102.203 51.726 101.884 51.7259H96.084V50.4345C96.3852 50.2026 96.6709 49.951 96.939 49.6815C97.0799 49.5341 97.1791 49.352 97.2267 49.1538C97.5244 47.9377 97.3291 46.0217 97.1062 44.1109H96.2062V42.7749H96.9508C96.6972 40.5203 96.5313 38.2973 97.1621 36.8362C97.3212 36.4203 97.5839 36.0519 97.9252 35.7659C98.2665 35.4799 98.6752 35.2858 99.1126 35.2019C100.25 34.9989 101.603 35.5502 102.639 36.6407L101.671 37.5612C100.951 36.8042 100.039 36.3938 99.347 36.5172C99.1275 36.5632 98.9238 36.6657 98.7559 36.8145C98.588 36.9632 98.4618 37.1531 98.3896 37.3655C97.8775 38.554 98.0534 40.6454 98.2963 42.7749H100.87V44.1109H98.451C98.7095 46.3428 98.9017 48.4195 98.4065 49.8683C98.3317 50.0589 98.2251 50.2353 98.091 50.39H101.882C102.026 50.3901 102.168 50.3618 102.301 50.3068C102.434 50.2518 102.554 50.1712 102.656 50.0696L103.267 49.4582L104.213 50.4027Z" fill="#FF5959"/>
<path d="M102.046 20.5868C101.527 20.8638 100.965 21.0505 100.383 21.139V23.0815H99.7285V19.8585C100.317 19.8382 100.894 19.6849 101.414 19.4101C101.872 19.171 102.243 18.7949 102.476 18.3346C102.709 17.8742 102.792 17.3525 102.715 16.8424C102.503 15.669 101.426 14.8163 99.7285 14.4524V13.0904C102.112 13.5293 103.708 14.8227 104.03 16.6051C104.163 17.3932 104.043 18.2034 103.687 18.919C103.33 19.6345 102.756 20.2185 102.046 20.5868ZM99.7285 5.22778V8.44873C99.7991 8.44739 99.8695 8.44428 99.94 8.44717C100.42 8.46716 100.891 8.59002 101.319 8.80743C101.748 9.02485 102.125 9.33175 102.425 9.7074L103.462 8.86532C102.7 7.91234 101.594 7.29542 100.383 7.14641V5.22778H99.7285Z" fill="#E63A57"/>
<path d="M100.869 44.1109H99.7285V42.775H100.869V44.1109ZM99.7285 36.5061C100.352 36.5533 101.076 36.9363 101.671 37.5613L102.638 36.6408C101.784 35.7417 100.715 35.2107 99.7285 35.165V36.5061ZM103.267 49.4582L102.656 50.0696C102.555 50.1713 102.434 50.2519 102.301 50.3069C102.168 50.3618 102.026 50.3901 101.882 50.3901H99.7285V51.726H101.884C102.203 51.726 102.518 51.6633 102.813 51.5412C103.108 51.4191 103.375 51.2402 103.601 51.0146L104.212 50.4027L103.267 49.4582Z" fill="#E63A57"/>
<path d="M101.565 74.4274H99.7598V73.0915H101.565V74.4274ZM99.7598 64.5599C99.9401 64.5399 100.121 64.5293 100.303 64.5283C102.096 64.5283 103.778 65.4488 104.918 67.0539L106.007 66.2808C104.614 64.3179 102.535 63.1924 100.303 63.1924C100.12 63.1924 99.9392 63.2004 99.7598 63.2146V64.5599ZM101.565 68.3952H99.7598V69.7311H101.565V68.3952ZM100.303 78.2943C100.121 78.2932 99.9401 78.2826 99.7598 78.2626V79.607C99.9392 79.622 100.12 79.6293 100.303 79.6293C102.308 79.6293 104.177 78.7336 105.566 77.1075L104.55 76.2392C104.036 76.8722 103.389 77.3845 102.655 77.7396C101.921 78.0948 101.118 78.2841 100.303 78.2943Z" fill="#E63A57"/>
<path d="M105.738 103.068C105.737 104.182 105.293 105.25 104.506 106.038C103.718 106.826 102.649 107.269 101.535 107.27H99.7598V105.934H101.535C102.295 105.933 103.024 105.631 103.561 105.094C104.099 104.556 104.401 103.828 104.402 103.068C104.402 101.22 103.201 100.201 101.021 100.201C101.009 100.201 100.998 100.202 100.987 100.202H99.7598V98.8663H100.987C101.628 98.8602 102.241 98.6012 102.692 98.1458C103.143 97.6903 103.396 97.0752 103.396 96.4341C103.396 95.7931 103.143 95.178 102.692 94.7225C102.241 94.267 101.628 94.0081 100.987 94.002H99.7598V92.666H100.987C101.76 92.6655 102.514 92.9028 103.148 93.3457C103.781 93.7886 104.263 94.4156 104.527 95.1417C104.792 95.8678 104.827 96.6578 104.627 97.4044C104.428 98.151 104.003 98.818 103.411 99.315C105.087 100.054 105.738 101.598 105.738 103.068Z" fill="#E63A57"/>
</svg>
