<svg width="420" height="312" viewBox="0 0 420 312" fill="none" xmlns="http://www.w3.org/2000/svg">
<path d="M125.999 44.766L114.053 37.3469L111.915 40.9936C111.286 42.1253 110.029 42.6283 108.771 42.5026C108.017 42.5026 107.388 42.3768 106.633 42.3768C105.376 42.3768 104.244 41.7481 103.616 40.6163L101.604 36.8439L89.2802 43.5085L91.2922 47.281C91.9209 48.4127 91.7952 49.6702 91.0407 50.802C90.6634 51.4307 90.2862 51.9337 89.9089 52.5624C89.2802 53.6942 88.1485 54.3229 86.891 54.3229L82.6155 54.1972L82.2383 68.1553L86.5137 68.281C87.7712 68.281 88.9029 69.0355 89.4059 70.293C89.5317 70.5445 89.6574 70.9217 89.9089 71.1732C90.0347 71.4247 90.2862 71.802 90.4119 72.0535C91.0407 73.1852 91.0407 74.4427 90.4119 75.5744L88.1485 79.2211L100.095 86.6403L102.358 82.9936C102.987 81.8618 104.244 81.3588 105.502 81.4846C106.256 81.4846 106.885 81.6103 107.639 81.6103C108.897 81.6103 110.029 82.2391 110.657 83.3708L112.669 87.1433L124.993 80.4786L122.981 76.7062C122.352 75.5744 122.478 74.3169 123.232 73.1852C123.61 72.5564 123.987 72.0535 124.364 71.4247C124.993 70.293 126.125 69.6642 127.382 69.6642L131.657 69.79L132.035 55.8319L127.759 55.7061C126.502 55.7061 125.37 54.9517 124.867 53.6942C124.741 53.4427 124.616 53.0654 124.364 52.8139C124.238 52.5624 123.987 52.1852 123.861 51.9337C123.232 50.802 123.232 49.5445 123.861 48.4127L125.999 44.766ZM117.196 56.5864C120.214 62.1193 118.077 69.1612 112.544 72.1792C107.011 75.1972 99.9688 73.0594 96.9509 67.5265C93.9329 61.9936 96.0706 54.9517 101.604 51.9337C107.262 48.9157 114.178 51.0535 117.196 56.5864Z" fill="#D1D8DB"/>
<path d="M89.4058 88.275L84.5016 79.7241L81.8609 81.2331C81.1064 81.7361 80.1004 81.6103 79.4717 81.1073C79.0944 80.8558 78.5914 80.6043 78.2142 80.3528C77.4597 79.9756 76.9567 79.2211 76.9567 78.2151V75.1971H67.1483V78.2151C67.1483 79.0953 66.6453 79.8498 65.8908 80.3528C65.5136 80.6043 65.0106 80.8558 64.6334 81.1073C63.8789 81.6103 62.9986 81.6103 62.2441 81.2331L59.6034 79.7241L54.6992 88.275L57.3399 89.784C58.0944 90.287 58.4717 91.0415 58.4717 91.9217C58.4717 92.1732 58.4717 92.4247 58.4717 92.6762C58.4717 92.9277 58.4717 93.1792 58.4717 93.4307C58.4717 94.3109 58.0944 95.1912 57.3399 95.5684L54.6992 97.0774L59.6034 105.628L62.2441 104.119C62.9986 103.616 64.0046 103.742 64.6334 104.245C65.0106 104.497 65.5136 104.748 65.8908 105C66.6453 105.377 67.1483 106.131 67.1483 107.137V110.155H76.9567V106.886C76.9567 106.006 77.4597 105.251 78.2142 104.748C78.5914 104.497 79.0944 104.245 79.4717 103.994C80.2262 103.491 81.1064 103.491 81.8609 103.868L84.5016 105.377L89.4058 96.8259L86.7651 95.5684C86.0106 95.0654 85.6333 94.3109 85.6333 93.4307C85.6333 93.1792 85.6333 92.9277 85.6333 92.6762C85.6333 92.4247 85.6333 92.1732 85.6333 91.9217C85.6333 91.0415 86.0106 90.1612 86.7651 89.784L89.4058 88.275ZM80.1004 92.6762C80.1004 97.0774 76.4537 100.724 72.0525 100.724C67.6513 100.724 64.0046 97.0774 64.0046 92.6762C64.0046 88.275 67.6513 84.6283 72.0525 84.6283C76.4537 84.6283 80.1004 88.1492 80.1004 92.6762Z" fill="#D1D8DB"/>
<path d="M338.014 264.449H102.613C95.8227 264.449 90.1641 258.916 90.1641 252V93.808C90.1641 86.8918 95.697 81.3589 102.613 81.3589H338.14C345.056 81.3589 350.589 86.8918 350.589 93.808V252C350.463 258.79 344.931 264.449 338.014 264.449Z" fill="#829198"/>
<path d="M348.576 274.886H92.0494C82.3667 274.886 74.5703 267.089 74.5703 257.407H366.181C366.055 267.089 358.259 274.886 348.576 274.886Z" fill="#5F737C"/>
<path d="M341.282 91.0417H99.5938V251.748H341.282V91.0417Z" fill="#F8F9FA"/>
<path d="M341.154 91.0417H99.3398V96.9519H341.154V91.0417Z" fill="#002548"/>
<path d="M102.611 95.4423C103.444 95.4423 104.12 94.7667 104.12 93.9333C104.12 93.0999 103.444 92.4243 102.611 92.4243C101.777 92.4243 101.102 93.0999 101.102 93.9333C101.102 94.7667 101.777 95.4423 102.611 95.4423Z" fill="#EC1C24"/>
<path d="M108.521 95.4423C109.354 95.4423 110.03 94.7667 110.03 93.9333C110.03 93.0999 109.354 92.4243 108.521 92.4243C107.687 92.4243 107.012 93.0999 107.012 93.9333C107.012 94.7667 107.687 95.4423 108.521 95.4423Z" fill="#FFDC33"/>
<path d="M114.556 95.4423C115.389 95.4423 116.065 94.7667 116.065 93.9333C116.065 93.0999 115.389 92.4243 114.556 92.4243C113.722 92.4243 113.047 93.0999 113.047 93.9333C113.047 94.7667 113.722 95.4423 114.556 95.4423Z" fill="#54CB5A"/>
<path d="M344.802 108.018C346.94 108.143 349.078 108.646 350.964 109.652L349.203 111.916L360.521 113.299L356.12 102.736L354.359 105C351.215 103.742 347.82 103.239 344.551 103.491C340.527 103.868 336.629 105.503 333.611 108.018C330.593 110.532 328.455 114.053 327.449 117.7C326.443 121.347 326.694 125.245 327.952 128.64C327.197 125.119 327.575 121.347 328.958 118.203C330.341 114.934 332.605 112.293 335.497 110.532C338.389 108.772 341.658 107.766 344.802 108.018Z" fill="#54CB5A"/>
<path d="M363.161 129.52C364.167 125.748 363.79 121.724 362.406 118.203C363.287 121.85 363.035 125.748 361.652 129.143C360.269 132.538 357.879 135.305 354.987 137.191C352.095 138.951 348.574 139.832 345.305 139.58C343.167 139.454 341.155 138.826 339.394 137.82L341.029 135.556L329.586 134.173L334.113 144.736L335.999 142.347C339.017 143.604 342.161 144.233 345.305 143.981C349.58 143.73 353.604 142.095 356.748 139.58C359.891 136.939 362.155 133.293 363.161 129.52Z" fill="#54CB5A"/>
<path d="M262.312 221.82H170.138C169.258 221.82 168.629 221.191 168.629 220.311V219.808C168.629 218.928 169.258 218.299 170.138 218.299H262.312C263.192 218.299 263.821 218.928 263.821 219.808V220.311C263.821 221.191 263.066 221.82 262.312 221.82Z" fill="#D1D8DB"/>
<path d="M235.654 221.82H170.013C169.133 221.82 168.504 221.191 168.504 220.311V219.808C168.504 218.928 169.133 218.299 170.013 218.299H235.654C236.534 218.299 237.163 218.928 237.163 219.808V220.311C237.163 221.191 236.534 221.82 235.654 221.82Z" fill="#0054A5"/>
<path d="M143.604 175.042L131.658 186.737C130.778 187.617 129.269 187.617 128.263 186.737L120.341 178.689C119.46 177.808 119.46 176.299 120.341 175.293L132.287 163.599C125.999 161.461 118.832 162.844 113.802 167.749C107.766 173.659 106.76 182.587 110.784 189.503C110.784 189.503 110.784 189.629 110.909 189.629L55.7058 242.317C53.4424 244.455 53.4424 247.976 55.5801 250.114C57.7178 252.252 61.2388 252.252 63.3765 250.114L117.197 196.042C117.197 196.042 117.323 196.042 117.323 196.168C124.239 200.317 133.167 199.437 139.203 193.527C144.107 188.623 145.616 181.455 143.604 175.042ZM61.8675 247.473C60.9873 248.605 59.3526 248.856 58.2208 247.976C57.0891 247.096 56.8376 245.461 57.7178 244.329C58.5981 243.198 60.2328 242.946 61.3645 243.826C62.4963 244.707 62.7478 246.341 61.8675 247.473Z" fill="#D1D8DB"/>
<path d="M293.999 257.532C293.874 257.532 293.748 257.532 293.622 257.407C293.371 257.155 293.371 256.778 293.622 256.652C294.377 255.898 295.005 255.017 295.76 254.137C296.011 253.886 296.263 253.886 296.514 254.011C296.766 254.263 296.766 254.514 296.64 254.766C295.886 255.772 295.131 256.652 294.502 257.407C294.251 257.532 294.125 257.532 293.999 257.532ZM299.281 250.365C299.155 250.365 299.029 250.365 299.029 250.239C298.778 250.113 298.652 249.736 298.904 249.484C299.532 248.478 300.161 247.598 300.664 246.592C300.79 246.341 301.167 246.215 301.419 246.466C301.67 246.592 301.796 246.969 301.544 247.221C300.916 248.227 300.413 249.107 299.784 250.113C299.658 250.239 299.532 250.365 299.281 250.365ZM303.556 242.317H303.431C303.179 242.191 302.928 241.939 303.053 241.688C303.179 241.185 303.179 240.808 303.179 240.305C303.179 239.676 303.053 239.173 302.928 238.544C302.802 238.293 303.053 237.916 303.305 237.79C303.556 237.664 303.934 237.916 304.059 238.167C304.311 238.796 304.437 239.55 304.437 240.179C304.437 240.682 304.311 241.185 304.311 241.814C304.059 242.191 303.808 242.317 303.556 242.317ZM300.413 234.395C300.287 234.395 300.161 234.269 300.035 234.269L299.281 233.514C298.778 232.886 298.275 232.383 297.772 231.754C297.52 231.502 297.646 231.125 297.898 230.999C298.149 230.748 298.526 230.874 298.652 231.125C299.155 231.754 299.658 232.257 300.161 232.886L300.916 233.64C301.167 233.892 301.167 234.269 300.916 234.395C300.664 234.269 300.538 234.395 300.413 234.395ZM295.634 226.85C295.383 226.85 295.131 226.598 295.131 226.347C295.131 226.095 295.131 225.969 295.131 225.718C295.131 225.592 295.131 225.466 295.131 225.466C295.131 224.586 295.383 223.706 295.886 222.826C296.011 222.574 296.389 222.448 296.64 222.574C296.892 222.7 297.017 223.077 296.892 223.329C296.514 224.083 296.389 224.838 296.263 225.592C296.263 225.718 296.263 225.718 296.263 225.844C296.263 225.969 296.263 226.221 296.263 226.347C296.137 226.472 296.011 226.85 295.634 226.85ZM299.784 219.179C299.658 219.179 299.532 219.179 299.407 219.053C299.155 218.802 299.155 218.425 299.407 218.299C300.287 217.544 301.041 216.79 301.922 216.035C302.173 215.784 302.55 215.91 302.676 216.035C302.928 216.287 302.802 216.664 302.676 216.79C301.796 217.544 301.041 218.299 300.161 219.053C300.035 219.179 299.91 219.179 299.784 219.179ZM306.7 213.395C306.574 213.395 306.323 213.269 306.197 213.143C306.071 212.892 306.071 212.514 306.323 212.389C307.203 211.76 308.209 211.005 309.089 210.377C309.341 210.251 309.718 210.251 309.844 210.502C309.97 210.754 309.97 211.131 309.718 211.257C308.838 211.886 307.832 212.514 306.952 213.269C306.952 213.395 306.826 213.395 306.7 213.395Z" fill="#0054A5"/>
<path d="M310.473 210L321.539 201.952L316.257 199.437L311.604 204.844L310.473 210Z" fill="#FFBC85"/>
<path opacity="0.19" d="M310.473 210L321.539 201.952L316.257 199.437L311.604 204.844L310.473 210Z" fill="#2D2F31"/>
<path d="M308.086 197.928L310.475 210L315.002 203.209L337.763 188.119L308.086 197.928Z" fill="#FFBC85"/>
<path d="M302.93 193.653L308.085 197.928L337.762 188.12L302.93 193.653Z" fill="#FDD1A3"/>
<path d="M315 203.209L322.419 210.503L337.76 188.119L315 203.209Z" fill="#FDD1A3"/>
<path d="M176.555 109.149C172.909 109.149 169.262 108.143 166.118 106.383C161.214 103.616 157.819 99.0894 156.31 93.6822C154.801 88.275 155.556 82.6164 158.448 77.7122C162.22 71.1732 169.136 67.1493 176.681 67.1493C180.328 67.1493 183.975 68.1553 187.118 69.9158C197.178 75.7002 200.573 88.6523 194.789 98.5864C191.017 105.125 184.1 109.149 176.555 109.149Z" fill="#002548"/>
<path d="M195.882 89.7264C196.729 79.0645 188.773 69.7346 178.111 68.8877C167.449 68.0407 158.119 75.9974 157.272 86.6594C156.425 97.3214 164.382 106.651 175.044 107.498C185.706 108.345 195.035 100.388 195.882 89.7264Z" fill="#0054A5"/>
<g opacity="0.19">
<path d="M195.882 89.7264C196.729 79.0645 188.773 69.7346 178.111 68.8877C167.449 68.0407 158.119 75.9974 157.272 86.6594C156.425 97.3214 164.382 106.651 175.044 107.498C185.706 108.345 195.035 100.388 195.882 89.7264Z" fill="#F8F9FA"/>
</g>
<path d="M199.187 82.1133C197.553 76.0774 193.654 71.0474 188.247 67.9037C184.726 65.8917 180.702 64.76 176.553 64.76C168.253 64.76 160.457 69.287 156.307 76.4546C153.163 81.8618 152.409 88.1492 153.918 94.1852C155.553 100.221 159.451 105.251 164.858 108.395C168.379 110.407 172.403 111.538 176.553 111.538C184.852 111.538 192.648 107.012 196.798 99.8438C199.942 94.4367 200.822 88.1492 199.187 82.1133ZM193.906 98.2091C190.259 104.622 183.469 108.269 176.553 108.269C173.157 108.269 169.762 107.389 166.618 105.628C157.062 100.095 153.792 87.8977 159.325 78.3408C162.972 71.9277 169.762 68.281 176.678 68.281C180.074 68.281 183.469 69.1612 186.612 70.9217C196.169 76.3289 199.439 88.6522 193.906 98.2091Z" fill="#0054A5"/>
<path d="M176.554 73.5626C176.302 73.5626 176.051 73.3111 176.051 73.0596V69.9159C176.051 69.6644 176.302 69.4129 176.554 69.4129C176.805 69.4129 177.057 69.6644 177.057 69.9159V73.0596C177.057 73.3111 176.805 73.5626 176.554 73.5626Z" fill="#D1D8DB"/>
<path d="M161.467 88.6527H158.323C158.072 88.6527 157.82 88.4012 157.82 88.1497C157.82 87.8982 158.072 87.6467 158.323 87.6467H161.467C161.719 87.6467 161.97 87.8982 161.97 88.1497C161.97 88.4012 161.719 88.6527 161.467 88.6527Z" fill="#D1D8DB"/>
<path d="M176.554 106.886C176.302 106.886 176.051 106.635 176.051 106.383V103.239C176.051 102.988 176.302 102.736 176.554 102.736C176.805 102.736 177.057 102.988 177.057 103.239V106.383C177.057 106.76 176.805 106.886 176.554 106.886Z" fill="#D1D8DB"/>
<path d="M194.916 88.6526H191.773C191.521 88.6526 191.27 88.4011 191.27 88.1496C191.27 87.8981 191.521 87.6466 191.773 87.6466H194.916C195.168 87.6466 195.419 87.8981 195.419 88.1496C195.419 88.4011 195.168 88.6526 194.916 88.6526Z" fill="#D1D8DB"/>
<path d="M176.552 88.5264L166.618 88.4007C166.366 88.4007 165.989 88.1492 166.115 87.7719C166.115 87.5204 166.366 87.2689 166.744 87.2689L176.678 87.3947C177.055 87.3947 177.306 87.6462 177.181 88.0234C177.181 88.2749 176.803 88.5264 176.552 88.5264Z" fill="#EC1C24"/>
<path d="M176.554 88.6524H176.428C176.302 88.5267 176.176 88.2752 176.302 88.1494L182.212 77.3351C182.338 77.2093 182.59 77.0836 182.715 77.2093C182.841 77.3351 182.967 77.5866 182.841 77.7123L176.931 88.5267C176.805 88.6524 176.679 88.6524 176.554 88.6524Z" fill="#EC1C24"/>
<path d="M177.18 89.2812C176.551 89.6584 175.797 89.4069 175.419 88.7782C175.042 88.1494 175.294 87.3949 175.922 87.0177C176.551 86.6405 177.306 86.892 177.683 87.5207C178.06 88.1494 177.809 88.9039 177.18 89.2812Z" fill="#EC1C24"/>
<path d="M176.928 88.778C176.677 88.9037 176.174 88.9037 176.048 88.5265C175.922 88.275 175.922 87.772 176.299 87.6463C176.551 87.5205 177.054 87.5205 177.18 87.8978C177.305 88.1493 177.18 88.5265 176.928 88.778Z" fill="#D1D8DB"/>
<path d="M268.41 131H163V198.053H268.41V131Z" fill="#D2D9DC"/>
<path d="M268.41 131H163V135.545H268.41V131Z" fill="#839299"/>
<path d="M266.843 133.272C266.843 134.027 266.227 134.643 265.472 134.643C264.717 134.643 264.102 134.027 264.102 133.272C264.102 132.517 264.717 131.902 265.472 131.902C266.227 131.909 266.843 132.517 266.843 133.272Z" fill="#FAFAFA"/>
<path d="M262.292 133.272C262.292 134.027 261.676 134.643 260.921 134.643C260.166 134.643 259.551 134.027 259.551 133.272C259.551 132.517 260.166 131.902 260.921 131.902C261.676 131.909 262.292 132.517 262.292 133.272Z" fill="#FAFAFA"/>
<path d="M257.737 133.272C257.737 134.027 257.122 134.643 256.367 134.643C255.612 134.643 254.996 134.027 254.996 133.272C254.996 132.517 255.612 131.902 256.367 131.902C257.129 131.909 257.737 132.517 257.737 133.272Z" fill="#FAFAFA"/>
<path d="M215.616 153.016L214.7 151.748C214.363 151.286 213.835 151 213.278 151H206.842C206.285 151 205.787 151.279 205.508 151.748L204.739 153.016C204.46 153.477 203.954 153.763 203.405 153.763H199.564C198.648 153.763 197.951 154.511 198.003 155.435L199.249 176.933C199.3 177.857 200.092 178.604 201.001 178.604H231.449C232.365 178.604 233.061 177.857 233.01 176.933L231.764 155.435C231.713 154.511 230.921 153.763 230.012 153.763H217.046C216.481 153.763 215.946 153.477 215.616 153.016Z" fill="#839299"/>
<path d="M233.046 155.808H205.149C203.984 155.808 202.957 156.746 202.855 157.897L201.176 176.515C201.074 177.666 201.931 178.604 203.097 178.604H230.994C232.16 178.604 233.186 177.666 233.288 176.515L234.967 157.897C235.069 156.746 234.212 155.808 233.046 155.808Z" fill="#F9FAFB"/>
</svg>
