<svg width="48" height="48" viewBox="0 0 48 48" fill="none" xmlns="http://www.w3.org/2000/svg">
<path d="M22.875 3.1875H25.5C26.0468 3.18806 26.5711 3.40553 26.9578 3.79221C27.3445 4.17888 27.5619 4.70316 27.5625 5.25V6C27.5619 6.54684 27.3445 7.07112 26.9578 7.45779C26.5711 7.84447 26.0468 8.06194 25.5 8.0625H22.875V6.9375H25.5C25.7486 6.93728 25.9869 6.83844 26.1627 6.66267C26.3384 6.4869 26.4373 6.24857 26.4375 6V5.25C26.4373 5.00143 26.3384 4.7631 26.1627 4.58733C25.9869 4.41156 25.7486 4.31272 25.5 4.3125H22.875V3.1875Z" fill="#D7DCEE"/>
<path d="M3 17.25H30V34.5H3V17.25Z" fill="#F2F7FF"/>
<path d="M30 18.75H3V23.5839C3.4541 23.8535 3.97189 23.9972 4.5 24C5.29565 24 6.05871 23.6839 6.62132 23.1213C7.18393 22.5587 7.5 21.7956 7.5 21C7.5 21.7956 7.81607 22.5587 8.37868 23.1213C8.94129 23.6839 9.70435 24 10.5 24C11.2956 24 12.0587 23.6839 12.6213 23.1213C13.1839 22.5587 13.5 21.7956 13.5 21C13.5 21.7956 13.8161 22.5587 14.3787 23.1213C14.9413 23.6839 15.7044 24 16.5 24C17.2956 24 18.0587 23.6839 18.6213 23.1213C19.1839 22.5587 19.5 21.7956 19.5 21C19.5 21.7956 19.8161 22.5587 20.3787 23.1213C20.9413 23.6839 21.7044 24 22.5 24C23.2956 24 24.0587 23.6839 24.6213 23.1213C25.1839 22.5587 25.5 21.7956 25.5 21C25.5 21.7956 25.8161 22.5587 26.3787 23.1213C26.9413 23.6839 27.7044 24 28.5 24C29.0281 23.9972 29.5459 23.8536 30 23.584V18.75Z" fill="#E7EDFA"/>
<path d="M4.5 22.5C3.70435 22.5 2.94129 22.1839 2.37868 21.6213C1.81607 21.0587 1.5 20.2956 1.5 19.5V17.25L4.5 16.5L7.5 17.25V19.5C7.5 20.2956 7.18393 21.0587 6.62132 21.6213C6.05871 22.1839 5.29565 22.5 4.5 22.5Z" fill="#FC6478"/>
<path d="M10.5 22.5C9.70435 22.5 8.94129 22.1839 8.37868 21.6213C7.81607 21.0587 7.5 20.2956 7.5 19.5V17.25L10.5 16.5L13.5 17.25V19.5C13.5 20.2956 13.1839 21.0587 12.6213 21.6213C12.0587 22.1839 11.2956 22.5 10.5 22.5Z" fill="#FFE37E"/>
<path d="M16.5 22.5C15.7044 22.5 14.9413 22.1839 14.3787 21.6213C13.8161 21.0587 13.5 20.2956 13.5 19.5V17.25L16.5 16.5L19.5 17.25V19.5C19.5 20.2956 19.1839 21.0587 18.6213 21.6213C18.0587 22.1839 17.2956 22.5 16.5 22.5Z" fill="#FC6478"/>
<path d="M22.5 22.5C21.7044 22.5 20.9413 22.1839 20.3787 21.6213C19.8161 21.0587 19.5 20.2956 19.5 19.5V17.25L22.5 16.5L25.5 17.25V19.5C25.5 20.2956 25.1839 21.0587 24.6213 21.6213C24.0587 22.1839 23.2956 22.5 22.5 22.5Z" fill="#FFE37E"/>
<path d="M28.5 22.5C27.7044 22.5 26.9413 22.1839 26.3787 21.6213C25.8161 21.0587 25.5 20.2956 25.5 19.5V17.25L28.5 16.5L31.5 17.25V19.5C31.5 20.2956 31.1839 21.0587 30.6213 21.6213C30.0587 22.1839 29.2956 22.5 28.5 22.5Z" fill="#FC6478"/>
<path d="M14.4 11.25L12 14.25L13.5 17.25H19.5L21 14.25L18.6 11.25H14.4Z" fill="#F03A5A"/>
<path d="M6 11.25L1.5 17.25H7.5L10.5 14.25L10.2 11.25H6Z" fill="#F03A5A"/>
<path d="M22.8 11.25L22.5 14.25L25.5 17.25H31.5L27 11.25H22.8Z" fill="#F03A5A"/>
<path d="M18.5996 11.25L19.4996 17.25H25.4996L22.7996 11.25H18.5996Z" fill="#FFD24A"/>
<path d="M10.2 11.25L7.5 17.25H13.5L14.4 11.25H10.2Z" fill="#FFD24A"/>
<path d="M6.75 26.25H18V34.5H6.75V26.25Z" fill="#64A0FA"/>
<path d="M16.5 26.25H26.25V34.5H16.5V26.25Z" fill="#64A0FA"/>
<path d="M15.9375 26.25H17.0625V34.5H15.9375V26.25Z" fill="#FFD24A"/>
<path d="M26.25 35.8125H6.75C6.60082 35.8125 6.45774 35.7532 6.35225 35.6477C6.24676 35.5423 6.1875 35.3992 6.1875 35.25V26.25C6.1875 26.1008 6.24676 25.9577 6.35225 25.8523C6.45774 25.7468 6.60082 25.6875 6.75 25.6875H26.25C26.3992 25.6875 26.5423 25.7468 26.6477 25.8523C26.7532 25.9577 26.8125 26.1008 26.8125 26.25V35.25C26.8125 35.3992 26.7532 35.5423 26.6477 35.6477C26.5423 35.7532 26.3992 35.8125 26.25 35.8125ZM7.3125 34.6875H25.6875V26.8125H7.3125V34.6875Z" fill="#FFD24A"/>
<path d="M9.75 2.25H23.25V11.25H9.75V2.25Z" fill="#F2F7FF"/>
<path d="M11.25 2.25H23.25V11.25H11.25V2.25Z" fill="#E7EDFA"/>
<path d="M39.75 24C40.1642 24 40.5 23.6642 40.5 23.25C40.5 22.8358 40.1642 22.5 39.75 22.5C39.3358 22.5 39 22.8358 39 23.25C39 23.6642 39.3358 24 39.75 24Z" fill="#5B6172"/>
<path d="M41.8713 21.6911C41.7974 21.6911 41.7243 21.6765 41.656 21.6482C41.5878 21.6199 41.5259 21.5784 41.4737 21.5261C41.0161 21.0698 40.3963 20.8136 39.75 20.8136C39.1038 20.8136 38.4839 21.0698 38.0263 21.5261C37.9204 21.6297 37.778 21.6874 37.6298 21.6866C37.4817 21.6858 37.3398 21.6266 37.2351 21.5218C37.1303 21.4171 37.0711 21.2752 37.0703 21.1271C37.0695 20.9789 37.1272 20.8365 37.2308 20.7306C37.8996 20.0637 38.8055 19.6891 39.75 19.6891C40.6945 19.6891 41.6004 20.0637 42.2692 20.7306C42.3478 20.8093 42.4013 20.9095 42.4229 21.0185C42.4446 21.1276 42.4334 21.2406 42.3909 21.3433C42.3484 21.446 42.2764 21.5338 42.1839 21.5957C42.0915 21.6575 41.9824 21.691 41.8713 21.6911Z" fill="#5B6172"/>
<path d="M43.9929 19.57C43.919 19.57 43.8459 19.5555 43.7777 19.5271C43.7094 19.4988 43.6475 19.4573 43.5954 19.405C42.5757 18.3853 41.1926 17.8124 39.7505 17.8124C38.3084 17.8124 36.9254 18.3853 35.9056 19.405C35.854 19.4596 35.7919 19.5033 35.723 19.5335C35.6541 19.5637 35.5799 19.5798 35.5048 19.5808C35.4296 19.5818 35.355 19.5678 35.2853 19.5395C35.2157 19.5112 35.1524 19.4692 35.0992 19.416C35.0461 19.3628 35.0041 19.2995 34.9759 19.2299C34.9476 19.1602 34.9336 19.0856 34.9346 19.0104C34.9357 18.9352 34.9518 18.861 34.982 18.7922C35.0123 18.7233 35.056 18.6613 35.1106 18.6096C35.72 18.0002 36.4434 17.5168 37.2396 17.1869C38.0357 16.8571 38.8891 16.6873 39.7509 16.6873C40.6127 16.6873 41.466 16.8571 42.2622 17.1869C43.0584 17.5168 43.7818 18.0002 44.3911 18.6096C44.4697 18.6883 44.5232 18.7884 44.5449 18.8975C44.5665 19.0065 44.5554 19.1196 44.5128 19.2223C44.4703 19.325 44.3983 19.4128 44.3059 19.4746C44.2135 19.5365 44.1048 19.5695 43.9936 19.5696L43.9929 19.57Z" fill="#5B6172"/>
<path d="M39 36.75H42C43.1935 36.75 44.3381 37.2241 45.182 38.068C46.0259 38.9119 46.5 40.0565 46.5 41.25V45.75H42.75L34.5 45V41.25C34.5 40.0565 34.9741 38.9119 35.818 38.068C36.6619 37.2241 37.8065 36.75 39 36.75Z" fill="#64A0FA"/>
<path d="M37.5 45.75H42.75V43.5H36.75L37.5 45.75Z" fill="#696E82"/>
<path d="M30 39.75H36.75C36.9489 39.75 37.1397 39.829 37.2803 39.9697C37.421 40.1103 37.5 40.3011 37.5 40.5V45.75H29.25V40.5C29.25 40.3011 29.329 40.1103 29.4697 39.9697C29.6103 39.829 29.8011 39.75 30 39.75Z" fill="#7E849B"/>
<path d="M33.375 43.5C33.7892 43.5 34.125 43.1642 34.125 42.75C34.125 42.3358 33.7892 42 33.375 42C32.9608 42 32.625 42.3358 32.625 42.75C32.625 43.1642 32.9608 43.5 33.375 43.5Z" fill="#F2F7FF"/>
<path d="M1.5 33.75H31.5V36.75H1.5V33.75Z" fill="#65FC8C"/>
<path d="M1.5 35.25H31.5V36.75H1.5V35.25Z" fill="#50EC72"/>
<path d="M43.125 33L40.5 30.75L36.375 33V34.125C36.375 35.0201 36.7306 35.8786 37.3635 36.5115C37.9965 37.1444 38.8549 37.5 39.75 37.5C40.6451 37.5 41.5036 37.1444 42.1365 36.5115C42.7694 35.8786 43.125 35.0201 43.125 34.125V33Z" fill="#FFD7AA"/>
<path d="M39.7498 28.5H35.9998L35.7045 29.681C35.5625 30.2493 35.5489 30.8421 35.6649 31.4162C35.7808 31.9904 36.0233 32.5314 36.3748 33H38.0727C38.5767 33 39.0706 32.8597 39.4993 32.5947C39.928 32.3298 40.2744 31.9507 40.4998 31.5C40.7252 31.9507 41.0716 32.3298 41.5003 32.5947C41.929 32.8597 42.4229 33 42.9269 33H43.1248V31.875C43.1248 30.9799 42.7692 30.1215 42.1363 29.4885C41.5033 28.8556 40.6449 28.5 39.7498 28.5Z" fill="#CF8E4A"/>
</svg>
