<svg width="64" height="64" viewBox="0 0 64 64" fill="none" xmlns="http://www.w3.org/2000/svg">
<path d="M55.3031 48.0999C50.4031 48.0999 40.6031 54.2999 35.7031 54.2999C30.8031 54.2999 25.3031 50.5999 25.3031 50.5999C25.3031 50.5999 31.9031 51.7999 35.7031 51.7999C39.5031 51.7999 40.6031 50.4999 40.6031 48.6999C40.6031 44.3999 33.3031 43.7999 29.7031 43.1999C26.1031 41.1999 22.3031 39.8999 16.3031 39.3999C16.3031 39.6999 16.2031 40.0999 16.1031 40.3999L11.2031 57.6999C16.8031 60.1999 28.3031 63.8999 33.3031 63.8999C40.6031 63.8999 60.2031 54.0999 60.2031 51.6999C60.2031 49.2999 57.7031 48.0999 55.3031 48.0999Z" fill="#FED2A4"/>
<path d="M10 59.0999H3.3C2.3 59.0999 1.5 58.2999 1.5 57.2999V36.5C1.5 35.5 2.3 34.7 3.3 34.7C11.9 34.7 15.9 37.6999 16 37.7999C16.6 38.2999 16.9 39 16.7 39.7L11.8 57.7999C11.6 58.5999 10.8 59.0999 10 59.0999Z" fill="#002548"/>
<path d="M42.4031 26.4L40.6031 26C40.5031 25.8 40.5031 25.7 40.4031 25.5L41.5031 23.9C41.7031 23.6 41.7031 23.1 41.4031 22.8L39.8031 21.2001C39.5031 20.9001 39.0031 20.9 38.7031 21.1L37.0031 22.2001C36.8031 22.1001 36.6031 22 36.5031 22L36.3031 20.6L36.2031 20.1C36.2031 20 36.1031 19.8001 36.0031 19.7001C35.8031 19.5001 35.6031 19.3 35.3031 19.3H33.0031C32.7031 19.3 32.5031 19.4001 32.3031 19.7001C32.2031 19.8001 32.2031 19.9 32.1031 20.1L32.0031 20.6L31.8031 22C31.6031 22.1 31.4031 22.1001 31.3031 22.2001L29.8031 21.1C29.5031 20.9 29.0031 20.9001 28.7031 21.2001L27.0031 22.8C26.7031 23.1 26.7031 23.6 26.9031 23.9L28.0031 25.5C27.9031 25.7 27.9031 25.8 27.8031 26L25.9031 26.3C25.5031 26.4 25.2031 26.7001 25.2031 27.2001V29.5C25.2031 29.9 25.5031 30.3 25.9031 30.4L27.8031 30.7001C27.9031 30.9001 27.9031 31.0001 28.0031 31.2001L26.9031 32.8C26.7031 33.1 26.7031 33.6001 27.0031 33.9001L28.6031 35.5C28.9031 35.8 29.4031 35.8 29.7031 35.6L31.3031 34.5C31.5031 34.6 31.6031 34.6 31.8031 34.7001L32.1031 36.6C32.2031 37 32.5031 37.3 33.0031 37.3H35.3031C35.7031 37.3 36.1031 37 36.2031 36.6L36.5031 34.7001C36.7031 34.6 36.8031 34.6 37.0031 34.5L38.6031 35.6C38.9031 35.8 39.4031 35.8 39.7031 35.5L41.3031 33.9001C41.6031 33.6001 41.6031 33.1 41.4031 32.8L40.3031 31.2001C40.4031 31.0001 40.4031 30.9001 40.5031 30.7001L42.4031 30.4C42.8031 30.3 43.1031 30 43.1031 29.5V27.2001C43.2031 26.8001 42.9031 26.4 42.4031 26.4ZM34.2031 31.8C32.3031 31.8 30.8031 30.3 30.8031 28.4C30.8031 26.5 32.3031 25 34.2031 25C36.1031 25 37.6031 26.5 37.6031 28.4C37.6031 30.3 36.1031 31.8 34.2031 31.8Z" fill="#839299"/>
<path d="M61.6 9.5L59 9.1C58.9 8.9 58.8 8.6 58.7 8.4L60.2 6.3C60.5 5.8 60.5 5.2 60.1 4.8L57.9 2.6C57.5 2.2 56.8 2.1 56.4 2.5L54.3 4C54.1 3.9 53.8 3.8 53.6 3.7L53.3 1.8L53 1C53 0.8 52.9 0.6 52.8 0.5C52.6 0.2 52.2 0 51.8 0H48.6C48.2 0 47.9 0.2 47.7 0.5C47.6 0.6 47.5 0.8 47.5 1L47.4 1.7L47.1 3.5C46.8 3.6 46.6 3.7 46.4 3.8L44.3 2.3C43.8 2 43.2 2 42.8 2.4L40.6 4.6C40.2 5 40.1 5.7 40.5 6.1L42 8.2C41.9 8.4 41.8 8.7 41.7 8.9L39 9.5C38.4 9.6 38 10.1 38 10.7V13.9C38 14.5 38.4 15 39 15.1L41.6 15.5C41.7 15.7 41.8 15.9 41.9 16.2L40.4 18.4C40.1 18.9 40.1 19.5 40.5 19.9L42.7 22.1C43.1 22.5 43.8 22.6 44.2 22.2L46.4 20.7C46.6 20.8 46.8 20.9 47 21L47.4 23.6C47.5 24.2 48 24.6 48.6 24.6H51.8C52.4 24.6 52.9 24.2 53 23.6L53.5 21C53.7 20.9 53.9 20.8 54.1 20.7L56.3 22.2C56.8 22.5 57.4 22.5 57.8 22.1L60 19.9C60.4 19.5 60.5 18.8 60.1 18.4L58.6 16.2C58.7 16 58.8 15.8 58.9 15.5L61.5 15.1C62.1 15 62.5 14.5 62.5 13.9V10.7C62.5 10.1 62.1 9.6 61.6 9.5ZM50.3 17C47.7 17 45.6 14.9 45.6 12.3C45.6 9.7 47.7 7.6 50.3 7.6C52.9 7.6 55 9.7 55 12.3C55 14.9 52.9 17 50.3 17Z" fill="#5F737C"/>
</svg>
