<svg width="40" height="40" viewBox="0 0 40 40" fill="none" xmlns="http://www.w3.org/2000/svg">
<path d="M19.5 38H1.5C0.7 38 0 37.4 0 36.5V3.5C0 2.6 0.7 2 1.5 2H19.5C20.3 2 21 2.7 21 3.5V36.6C21.1 37.4 20.4 38 19.5 38Z" fill="#002548"/>
<path d="M1.5 5H19.5V35H1.5V5Z" fill="#D2D9DC"/>
<path d="M10.5 18.5C13.8137 18.5 16.5 15.8137 16.5 12.5C16.5 9.18629 13.8137 6.5 10.5 6.5C7.18629 6.5 4.5 9.18629 4.5 12.5C4.5 15.8137 7.18629 18.5 10.5 18.5Z" fill="#ED1C24"/>
<path d="M38.5 17H26.5C25.7 17 25 16.3 25 15.5V3.5C25 2.6 25.6 2 26.5 2H38.5C39.3 2 40 2.6 40 3.5V15.5C40 16.3 39.3 17 38.5 17Z" fill="#FFDD33"/>
<path d="M38.5 38H26.5C25.7 38 25 37.3 25 36.5V24.5C25 23.7 25.7 23 26.5 23H38.5C39.3 23 40 23.7 40 24.5V36.5C40 37.4 39.3 38 38.5 38Z" fill="#0054A6"/>
<path d="M10.5 8C8.8 8 7.5 9.3 7.5 11C7.5 12.3 8.3 13.4 9.4 13.8L10.5 17L11.6 13.8C12.7 13.4 13.5 12.3 13.5 11C13.5 9.3 12.2 8 10.5 8ZM10.5 12.5C9.7 12.5 9 11.8 9 11C9 10.2 9.7 9.5 10.5 9.5C11.3 9.5 12 10.1 12 11C12 11.9 11.4 12.5 10.5 12.5Z" fill="#F9FAFB"/>
<path d="M35.5 32H29.5L28 27.5H37L35.5 32Z" fill="#F9FAFB"/>
<path d="M37.0031 27.5H36.2031C36.2031 26.7 36.9031 26 37.7031 26H38.5031V26.8H37.7031C37.3031 26.8 37.0031 27.1 37.0031 27.5Z" fill="#F0F0F0"/>
<path d="M30.1984 35.1C30.6403 35.1 30.9984 34.7418 30.9984 34.3C30.9984 33.8582 30.6403 33.5 30.1984 33.5C29.7566 33.5 29.3984 33.8582 29.3984 34.3C29.3984 34.7418 29.7566 35.1 30.1984 35.1Z" fill="#F9FAFB"/>
<path d="M34.6984 35.1C35.1403 35.1 35.4984 34.7418 35.4984 34.3C35.4984 33.8582 35.1403 33.5 34.6984 33.5C34.2566 33.5 33.8984 33.8582 33.8984 34.3C33.8984 34.7418 34.2566 35.1 34.6984 35.1Z" fill="#F9FAFB"/>
<path d="M29.5 12.5H35.5V14H29.5V12.5Z" fill="#F9FAFB"/>
<path d="M35.5 5C34.7 5 34 5.6 34 6.5C34 5.6 33.3 5 32.5 5C31.7 5 31 5.6 31 6.5C31 5.6 30.3 5 29.5 5C28.6 5 28 5.6 28 6.5C28 7.4 28.6 8 29.5 8V11.8H35.5V8C36.3 8 37 7.3 37 6.5C37 5.7 36.3 5 35.5 5Z" fill="#F9FAFB"/>
<path d="M4.5 20H16.5V23H4.5V20Z" fill="#839299"/>
<path d="M4.5 24.5H16.5V27.5H4.5V24.5Z" fill="#839299"/>
<path d="M4.5 29H16.5V32H4.5V29Z" fill="#839299"/>
<path d="M12 20H16.5V23H12V20Z" fill="#54CC5A"/>
<path d="M12 24.5H16.5V27.5H12V24.5Z" fill="#54CC5A"/>
<path d="M12 29H16.5V32H12V29Z" fill="#54CC5A"/>
<path d="M1.5 5H3V35H1.5V5Z" fill="#D2D9DC"/>
</svg>
