<svg width="191" height="48" viewBox="0 0 191 48" fill="none" xmlns="http://www.w3.org/2000/svg">
<g clip-path="url(#clip0_1722_6269)">
<g filter="url(#filter0_dd_1722_6269)">
<path d="M36.0001 0.149963H12.0001C5.45557 0.149963 0.150146 5.45539 0.150146 12V36C0.150146 42.5445 5.45557 47.85 12.0001 47.85H36.0001C42.5447 47.85 47.8501 42.5445 47.8501 36V12C47.8501 5.45539 42.5447 0.149963 36.0001 0.149963Z" fill="white"/>
<path d="M36.0001 0.149963H12.0001C5.45557 0.149963 0.150146 5.45539 0.150146 12V36C0.150146 42.5445 5.45557 47.85 12.0001 47.85H36.0001C42.5447 47.85 47.8501 42.5445 47.8501 36V12C47.8501 5.45539 42.5447 0.149963 36.0001 0.149963Z" fill="url(#paint0_linear_1722_6269)"/>
<path d="M24.5257 23.9938C24.5257 25.3079 24.3025 26.527 23.8561 27.6511C23.4181 28.7752 22.7941 29.7464 21.9841 30.5647C21.1824 31.3829 20.2153 32.0276 19.083 32.4988C17.9506 32.9615 16.6944 33.193 15.3141 33.193C13.9338 33.193 12.6774 32.9615 11.545 32.4988C10.4127 32.0276 9.44154 31.3829 8.63154 30.5647C7.82154 29.7464 7.19338 28.7752 6.74706 27.6511C6.309 26.527 6.08997 25.3079 6.08997 23.9938C6.08997 22.6795 6.309 21.4645 6.74706 20.3488C7.19338 19.2247 7.82154 18.2534 8.63154 17.4352C9.44154 16.6169 10.4127 15.9764 11.545 15.5135C12.6774 15.0424 13.9338 14.8069 15.3141 14.8069C16.6944 14.8069 17.9506 15.0424 19.083 15.5135C20.2153 15.9764 21.1824 16.6211 21.9841 17.4476C22.7941 18.2659 23.4181 19.237 23.8561 20.3611C24.3025 21.4769 24.5257 22.6877 24.5257 23.9938ZM20.7195 23.9938C20.7195 23.0515 20.5956 22.2085 20.3476 21.4645C20.0997 20.7124 19.7401 20.0759 19.269 19.5553C18.8061 19.0262 18.24 18.6254 17.5704 18.3527C16.9092 18.0716 16.1571 17.9311 15.3141 17.9311C14.4709 17.9311 13.7146 18.0716 13.0452 18.3527C12.3757 18.6254 11.8054 19.0262 11.3343 19.5553C10.8714 20.0759 10.516 20.7124 10.2681 21.4645C10.0201 22.2085 9.89613 23.0515 9.89613 23.9938C9.89613 24.9442 10.0201 25.7956 10.2681 26.5477C10.516 27.2915 10.8714 27.9239 11.3343 28.4446C11.8054 28.9652 12.3757 29.3662 13.0452 29.6471C13.7146 29.92 14.4709 30.0563 15.3141 30.0563C16.1571 30.0563 16.9092 29.92 17.5704 29.6471C18.24 29.3662 18.8061 28.9652 19.269 28.4446C19.7401 27.9239 20.0997 27.2915 20.3476 26.5477C20.5956 25.7956 20.7195 24.9442 20.7195 23.9938Z" fill="white"/>
<path d="M35.6617 26.1634L33.7153 20.6587C33.5995 20.3693 33.4756 20.0305 33.3433 19.642C33.2194 19.2536 33.0996 18.832 32.9838 18.3775C32.8681 18.8404 32.7441 19.2701 32.6118 19.6669C32.4879 20.0554 32.368 20.3942 32.2524 20.6834L30.3183 26.1634H35.6617ZM41.9103 32.9947H39.0216C38.6992 32.9947 38.4348 32.9203 38.2281 32.7715C38.0298 32.6144 37.881 32.4161 37.7818 32.1764L36.5668 28.7422H29.4007L28.1857 32.1764C28.1031 32.383 27.9585 32.573 27.7519 32.7467C27.5452 32.912 27.2848 32.9947 26.9707 32.9947H24.0573L31.0869 15.0052H34.8931L41.9103 32.9947Z" fill="white"/>
<path d="M36.0001 0.149963H12.0001C5.45557 0.149963 0.150146 5.45539 0.150146 12V36C0.150146 42.5445 5.45557 47.85 12.0001 47.85H36.0001C42.5447 47.85 47.8501 42.5445 47.8501 36V12C47.8501 5.45539 42.5447 0.149963 36.0001 0.149963Z" stroke="#3F8CFF" stroke-width="0.2"/>
</g>
<path d="M84.6 23.655C84.6 25.245 84.3349 26.72 83.805 28.08C83.2849 29.43 82.545 30.6 81.585 31.59C80.625 32.58 79.47 33.3551 78.12 33.915C76.77 34.4651 75.27 34.74 73.62 34.74C71.9801 34.74 70.485 34.4651 69.135 33.915C67.785 33.3551 66.6251 32.58 65.655 31.59C64.695 30.6 63.9499 29.43 63.42 28.08C62.89 26.72 62.625 25.245 62.625 23.655C62.625 22.065 62.89 20.595 63.42 19.245C63.9499 17.885 64.695 16.71 65.655 15.72C66.6251 14.73 67.785 13.9601 69.135 13.41C70.485 12.8501 71.9801 12.57 73.62 12.57C74.72 12.57 75.755 12.7001 76.725 12.96C77.6951 13.2101 78.585 13.5701 79.395 14.04C80.205 14.5001 80.93 15.065 81.57 15.735C82.22 16.395 82.77 17.135 83.22 17.955C83.67 18.7751 84.01 19.665 84.24 20.625C84.48 21.585 84.6 22.595 84.6 23.655ZM80.475 23.655C80.475 22.4651 80.315 21.4001 79.995 20.46C79.6751 19.5101 79.2199 18.705 78.63 18.045C78.04 17.385 77.32 16.88 76.47 16.53C75.63 16.1801 74.6801 16.005 73.62 16.005C72.56 16.005 71.605 16.1801 70.755 16.53C69.915 16.88 69.195 17.385 68.595 18.045C68.005 18.705 67.5499 19.5101 67.23 20.46C66.91 21.4001 66.75 22.4651 66.75 23.655C66.75 24.845 66.91 25.9151 67.23 26.865C67.5499 27.8051 68.005 28.605 68.595 29.265C69.195 29.915 69.915 30.4151 70.755 30.765C71.605 31.115 72.56 31.29 73.62 31.29C74.6801 31.29 75.63 31.115 76.47 30.765C77.32 30.4151 78.04 29.915 78.63 29.265C79.2199 28.605 79.6751 27.8051 79.995 26.865C80.315 25.9151 80.475 24.845 80.475 23.655Z" fill="#3F8CFF"/>
<path d="M89.86 21C90.1699 20.6899 90.495 20.4049 90.835 20.145C91.185 19.875 91.5499 19.65 91.93 19.47C92.32 19.2799 92.7349 19.135 93.175 19.035C93.615 18.925 94.095 18.87 94.615 18.87C95.455 18.87 96.1999 19.015 96.85 19.305C97.5 19.585 98.04 19.9849 98.47 20.505C98.91 21.015 99.24 21.63 99.46 22.35C99.69 23.0599 99.805 23.845 99.805 24.705V34.5H96.1V24.705C96.1 23.7649 95.8849 23.04 95.455 22.53C95.025 22.0099 94.3699 21.75 93.49 21.75C92.85 21.75 92.25 21.895 91.69 22.185C91.1299 22.4749 90.6 22.87 90.1 23.37V34.5H86.395V19.11H88.66C89.14 19.11 89.455 19.335 89.605 19.785L89.86 21Z" fill="#3F8CFF"/>
<path d="M112.343 25.035C112.343 24.555 112.273 24.105 112.133 23.685C112.003 23.2549 111.803 22.8799 111.533 22.56C111.263 22.24 110.918 21.99 110.498 21.81C110.088 21.6199 109.608 21.525 109.058 21.525C107.988 21.525 107.143 21.8299 106.523 22.44C105.913 23.05 105.523 23.9149 105.353 25.035H112.343ZM105.278 27.27C105.338 28.06 105.478 28.7449 105.698 29.325C105.918 29.895 106.208 30.37 106.568 30.75C106.928 31.12 107.353 31.3999 107.843 31.59C108.343 31.77 108.893 31.86 109.493 31.86C110.093 31.86 110.608 31.7899 111.038 31.65C111.478 31.51 111.858 31.3549 112.178 31.185C112.508 31.015 112.793 30.8599 113.033 30.72C113.283 30.58 113.523 30.51 113.753 30.51C114.063 30.51 114.293 30.625 114.443 30.855L115.508 32.205C115.098 32.685 114.638 33.09 114.128 33.42C113.618 33.7399 113.083 34 112.523 34.2C111.973 34.39 111.408 34.525 110.828 34.605C110.258 34.6849 109.703 34.725 109.163 34.725C108.093 34.725 107.098 34.5499 106.178 34.2C105.258 33.84 104.458 33.315 103.778 32.625C103.098 31.9249 102.563 31.065 102.173 30.045C101.783 29.0149 101.588 27.825 101.588 26.475C101.588 25.425 101.758 24.4399 102.098 23.52C102.438 22.59 102.923 21.7849 103.553 21.105C104.193 20.415 104.968 19.87 105.878 19.47C106.798 19.0699 107.833 18.87 108.983 18.87C109.953 18.87 110.848 19.0249 111.668 19.335C112.488 19.645 113.193 20.1 113.783 20.7C114.373 21.2899 114.833 22.02 115.163 22.89C115.503 23.7499 115.673 24.735 115.673 25.845C115.673 26.4049 115.613 26.785 115.493 26.985C115.373 27.175 115.143 27.27 114.803 27.27H105.278Z" fill="#3F8CFF"/>
<path d="M129.394 26.3099L126.754 19.0949C126.624 18.775 126.489 18.3949 126.349 17.9549C126.209 17.515 126.069 17.0399 125.929 16.5299C125.799 17.0399 125.664 17.5199 125.524 17.9699C125.384 18.4099 125.249 18.7949 125.119 19.1249L122.494 26.3099H129.394ZM136.519 34.4999H133.399C133.049 34.4999 132.764 34.4149 132.544 34.2449C132.324 34.0649 132.159 33.8449 132.049 33.5849L130.429 29.1599H121.444L119.824 33.5849C119.744 33.8149 119.589 34.0249 119.359 34.2149C119.129 34.405 118.844 34.4999 118.504 34.4999H115.354L123.889 12.8099H127.999L136.519 34.4999Z" fill="#3F8CFF"/>
<path d="M140.955 30.51C141.375 31.02 141.83 31.38 142.32 31.59C142.82 31.7999 143.36 31.905 143.94 31.905C144.5 31.905 145.005 31.7999 145.455 31.59C145.905 31.38 146.285 31.06 146.595 30.63C146.915 30.1999 147.159 29.6599 147.33 29.01C147.5 28.35 147.585 27.5749 147.585 26.685C147.585 25.785 147.51 25.0249 147.36 24.405C147.219 23.775 147.015 23.265 146.745 22.875C146.475 22.485 146.145 22.2 145.755 22.02C145.375 21.84 144.94 21.75 144.45 21.75C143.68 21.75 143.025 21.915 142.485 22.245C141.945 22.5649 141.435 23.02 140.955 23.61V30.51ZM140.76 21.2099C141.39 20.5 142.105 19.9249 142.905 19.485C143.705 19.045 144.645 18.825 145.725 18.825C146.565 18.825 147.33 19 148.02 19.35C148.719 19.6999 149.319 20.2099 149.82 20.88C150.33 21.54 150.72 22.36 150.99 23.34C151.269 24.31 151.41 25.425 151.41 26.685C151.41 27.835 151.254 28.9 150.945 29.88C150.635 30.8599 150.189 31.71 149.61 32.43C149.04 33.15 148.344 33.715 147.525 34.125C146.715 34.525 145.805 34.725 144.795 34.725C143.935 34.725 143.2 34.5949 142.59 34.3349C141.98 34.0649 141.435 33.6949 140.955 33.225V39.525H137.25V19.11H139.515C139.995 19.11 140.31 19.335 140.46 19.785L140.76 21.2099Z" fill="#3F8CFF"/>
<path d="M157.106 30.51C157.526 31.02 157.98 31.38 158.471 31.59C158.97 31.7999 159.51 31.905 160.091 31.905C160.65 31.905 161.156 31.7999 161.606 31.59C162.056 31.38 162.435 31.06 162.746 30.63C163.065 30.1999 163.311 29.6599 163.481 29.01C163.65 28.35 163.736 27.5749 163.736 26.685C163.736 25.785 163.661 25.0249 163.511 24.405C163.371 23.775 163.166 23.265 162.896 22.875C162.626 22.485 162.296 22.2 161.906 22.02C161.526 21.84 161.091 21.75 160.601 21.75C159.831 21.75 159.176 21.915 158.636 22.245C158.096 22.5649 157.586 23.02 157.106 23.61V30.51ZM156.911 21.2099C157.541 20.5 158.256 19.9249 159.056 19.485C159.855 19.045 160.796 18.825 161.876 18.825C162.716 18.825 163.481 19 164.171 19.35C164.871 19.6999 165.471 20.2099 165.971 20.88C166.481 21.54 166.871 22.36 167.141 23.34C167.421 24.31 167.561 25.425 167.561 26.685C167.561 27.835 167.406 28.9 167.096 29.88C166.785 30.8599 166.341 31.71 165.761 32.43C165.191 33.15 164.496 33.715 163.676 34.125C162.866 34.525 161.955 34.725 160.946 34.725C160.086 34.725 159.351 34.5949 158.741 34.3349C158.13 34.0649 157.586 33.6949 157.106 33.225V39.525H153.401V19.11H155.666C156.146 19.11 156.461 19.335 156.611 19.785L156.911 21.2099Z" fill="#3F8CFF"/>
<path d="M173.301 12.21V34.5H169.596V12.21H173.301Z" fill="#3F8CFF"/>
<path d="M190.073 19.11L181.688 38.73C181.578 38.9899 181.433 39.1851 181.253 39.315C181.083 39.4551 180.818 39.525 180.458 39.525H177.698L180.578 33.345L174.353 19.11H177.608C177.897 19.11 178.122 19.18 178.283 19.32C178.452 19.4599 178.578 19.62 178.658 19.8L181.928 27.78C182.037 28.05 182.127 28.32 182.198 28.59C182.277 28.86 182.352 29.1349 182.423 29.415C182.513 29.1349 182.603 28.86 182.693 28.59C182.783 28.3099 182.883 28.035 182.993 27.765L186.083 19.8C186.162 19.6 186.293 19.435 186.473 19.305C186.663 19.1749 186.873 19.11 187.103 19.11H190.073Z" fill="#3F8CFF"/>
</g>
<defs>
<filter id="filter0_dd_1722_6269" x="-2.94983" y="-1.95001" width="53.9" height="53.9" filterUnits="userSpaceOnUse" color-interpolation-filters="sRGB">
<feFlood flood-opacity="0" result="BackgroundImageFix"/>
<feColorMatrix in="SourceAlpha" type="matrix" values="0 0 0 0 0 0 0 0 0 0 0 0 0 0 0 0 0 0 127 0" result="hardAlpha"/>
<feOffset dy="1"/>
<feGaussianBlur stdDeviation="1"/>
<feColorMatrix type="matrix" values="0 0 0 0 0.0627451 0 0 0 0 0.0941176 0 0 0 0 0.156863 0 0 0 0.06 0"/>
<feBlend mode="normal" in2="BackgroundImageFix" result="effect1_dropShadow_1722_6269"/>
<feColorMatrix in="SourceAlpha" type="matrix" values="0 0 0 0 0 0 0 0 0 0 0 0 0 0 0 0 0 0 127 0" result="hardAlpha"/>
<feOffset dy="1"/>
<feGaussianBlur stdDeviation="1.5"/>
<feColorMatrix type="matrix" values="0 0 0 0 0.0627451 0 0 0 0 0.0941176 0 0 0 0 0.156863 0 0 0 0.1 0"/>
<feBlend mode="normal" in2="effect1_dropShadow_1722_6269" result="effect2_dropShadow_1722_6269"/>
<feBlend mode="normal" in="SourceGraphic" in2="effect2_dropShadow_1722_6269" result="shape"/>
</filter>
<linearGradient id="paint0_linear_1722_6269" x1="45.0135" y1="-5.98105" x2="3.00015" y2="54" gradientUnits="userSpaceOnUse">
<stop stop-color="#3F8CFF"/>
<stop offset="1" stop-color="#1367E4"/>
</linearGradient>
<clipPath id="clip0_1722_6269">
<rect width="190.5" height="48" fill="white"/>
</clipPath>
</defs>
</svg>
