<svg width="114" height="114" viewBox="0 0 114 114" fill="none" xmlns="http://www.w3.org/2000/svg">
<path d="M110.438 21.375V103.312C110.438 105.202 109.687 107.014 108.351 108.351C107.014 109.687 105.202 110.438 103.312 110.438H10.6875C8.79783 110.438 6.98556 109.687 5.64936 108.351C4.31317 107.014 3.5625 105.202 3.5625 103.312V21.375" fill="#F8F9FA"/>
<path d="M3.5625 21.375H103.312V103.312H3.5625V21.375Z" fill="#F8F9FA"/>
<path d="M60.5625 87.2812V33.8438C60.5625 32.4265 59.9995 31.0673 58.9973 30.0651C57.9952 29.063 56.636 28.5 55.2188 28.5H16.0312C14.614 28.5 13.2548 29.063 12.2526 30.0651C11.2505 31.0673 10.6875 32.4265 10.6875 33.8438V87.2812H60.5625Z" fill="#002548"/>
<path d="M53.4375 75.7031V28.5H16.0312C14.614 28.5 13.2548 29.063 12.2526 30.0651C11.2505 31.0673 10.6875 32.4265 10.6875 33.8438V75.7031H53.4375Z" fill="#0054A6"/>
<path d="M110.438 21.375H3.5625V10.6875C3.5625 8.79783 4.31317 6.98556 5.64936 5.64936C6.98556 4.31317 8.79783 3.5625 10.6875 3.5625H103.312C105.202 3.5625 107.014 4.31317 108.351 5.64936C109.687 6.98556 110.438 8.79783 110.438 10.6875V21.375Z" fill="#0054A6"/>
<path d="M103.312 14.25V3.5625H10.6875C8.79783 3.5625 6.98556 4.31317 5.64936 5.64936C4.31317 6.98556 3.5625 8.79783 3.5625 10.6875V14.25H103.312Z" fill="#FFDD33"/>
<path d="M16.0312 81.9375H60.5625V92.625H16.0312C14.614 92.625 13.2548 92.062 12.2526 91.0598C11.2505 90.0577 10.6875 88.6985 10.6875 87.2812C10.6875 85.864 11.2505 84.5048 12.2526 83.5027C13.2548 82.5005 14.614 81.9375 16.0312 81.9375Z" fill="#839299"/>
<path d="M96.1875 35.625H24.9375C22.97 35.625 21.375 37.22 21.375 39.1875V67.6875C21.375 69.655 22.97 71.25 24.9375 71.25H96.1875C98.155 71.25 99.75 69.655 99.75 67.6875V39.1875C99.75 37.22 98.155 35.625 96.1875 35.625Z" fill="#FEB237"/>
<path d="M94.4062 62.3438V35.625H24.9375C23.9927 35.625 23.0865 36.0003 22.4184 36.6684C21.7503 37.3365 21.375 38.2427 21.375 39.1875V62.3438H94.4062Z" fill="#FFDD33"/>
<path d="M26.7188 46.3125V60.5625C26.7188 61.0349 26.9064 61.488 27.2405 61.822C27.5745 62.1561 28.0276 62.3438 28.5 62.3438H37.4062V58.7812H30.2812V55.2188H37.4062V51.6562H30.2812V48.0938H37.4062V44.5312H28.5C28.0276 44.5312 27.5745 44.7189 27.2405 45.053C26.9064 45.387 26.7188 45.8401 26.7188 46.3125Z" fill="#F2F2F2"/>
<path d="M48.0938 44.5312H42.75C42.2776 44.5312 41.8245 44.7189 41.4905 45.053C41.1564 45.387 40.9688 45.8401 40.9688 46.3125V60.5625C40.9688 61.0349 41.1564 61.488 41.4905 61.822C41.8245 62.1561 42.2776 62.3438 42.75 62.3438H48.0938C49.125 62.343 50.134 62.0439 50.9991 61.4826C51.8641 60.9212 52.5483 60.1214 52.969 59.1799C53.3897 58.2383 53.5289 57.1952 53.3699 56.1763C53.211 55.1573 52.7606 54.2062 52.0731 53.4375C52.7606 52.6688 53.211 51.7177 53.3699 50.6987C53.5289 49.6798 53.3897 48.6367 52.969 47.6951C52.5483 46.7536 51.8641 45.9538 50.9991 45.3924C50.134 44.8311 49.125 44.532 48.0938 44.5312ZM48.0938 58.7812H44.5312V55.2188H48.0938C48.5662 55.2188 49.0192 55.4064 49.3533 55.7405C49.6873 56.0745 49.875 56.5276 49.875 57C49.875 57.4724 49.6873 57.9255 49.3533 58.2595C49.0192 58.5936 48.5662 58.7812 48.0938 58.7812ZM48.0938 51.6562H44.5312V48.0938H48.0938C48.5662 48.0938 49.0192 48.2814 49.3533 48.6155C49.6873 48.9495 49.875 49.4026 49.875 49.875C49.875 50.3474 49.6873 50.8005 49.3533 51.1345C49.0192 51.4686 48.5662 51.6562 48.0938 51.6562Z" fill="#F2F2F2"/>
<path d="M62.3438 44.5312H60.5625C59.1452 44.5312 57.786 45.0942 56.7839 46.0964C55.7817 47.0985 55.2188 48.4577 55.2188 49.875V57C55.2188 58.4173 55.7817 59.7765 56.7839 60.7786C57.786 61.7807 59.1452 62.3438 60.5625 62.3438H62.3438C63.761 62.3438 65.1202 61.7807 66.1223 60.7786C67.1245 59.7765 67.6875 58.4173 67.6875 57V49.875C67.6875 48.4577 67.1245 47.0985 66.1223 46.0964C65.1202 45.0942 63.761 44.5312 62.3438 44.5312ZM64.125 57C64.125 57.4724 63.9373 57.9255 63.6033 58.2595C63.2692 58.5936 62.8162 58.7812 62.3438 58.7812H60.5625C60.0901 58.7812 59.637 58.5936 59.303 58.2595C58.9689 57.9255 58.7812 57.4724 58.7812 57V49.875C58.7812 49.4026 58.9689 48.9495 59.303 48.6155C59.637 48.2814 60.0901 48.0938 60.5625 48.0938H62.3438C62.8162 48.0938 63.2692 48.2814 63.6033 48.6155C63.9373 48.9495 64.125 49.4026 64.125 49.875V57Z" fill="#F2F2F2"/>
<path d="M76.5938 44.5312H74.8125C73.3952 44.5312 72.036 45.0942 71.0339 46.0964C70.0318 47.0985 69.4688 48.4577 69.4688 49.875V57C69.4688 58.4173 70.0318 59.7765 71.0339 60.7786C72.036 61.7807 73.3952 62.3438 74.8125 62.3438H76.5938C78.011 62.3438 79.3702 61.7807 80.3723 60.7786C81.3745 59.7765 81.9375 58.4173 81.9375 57V49.875C81.9375 48.4577 81.3745 47.0985 80.3723 46.0964C79.3702 45.0942 78.011 44.5312 76.5938 44.5312ZM78.375 57C78.375 57.4724 78.1873 57.9255 77.8533 58.2595C77.5192 58.5936 77.0662 58.7812 76.5938 58.7812H74.8125C74.3401 58.7812 73.887 58.5936 73.553 58.2595C73.2189 57.9255 73.0312 57.4724 73.0312 57V49.875C73.0312 49.4026 73.2189 48.9495 73.553 48.6155C73.887 48.2814 74.3401 48.0938 74.8125 48.0938H76.5938C77.0662 48.0938 77.5192 48.2814 77.8533 48.6155C78.1873 48.9495 78.375 49.4026 78.375 49.875V57Z" fill="#F2F2F2"/>
<path d="M94.4062 46.3125V44.5312H90.8438V46.3125C90.8392 47.4138 90.4945 48.4867 89.8568 49.3846C89.2191 50.2825 88.3196 50.9614 87.2812 51.3285V44.5312H83.7188V62.3438H87.2812V55.5465C88.3196 55.9136 89.2191 56.5925 89.8568 57.4904C90.4945 58.3883 90.8392 59.4612 90.8438 60.5625V62.3438H94.4062V60.5625C94.4024 59.1747 94.073 57.8072 93.4447 56.5698C92.8164 55.3323 91.9067 54.2595 90.7885 53.4375C91.9067 52.6155 92.8164 51.5427 93.4447 50.3052C94.073 49.0678 94.4024 47.7003 94.4062 46.3125Z" fill="#F2F2F2"/>
<path d="M8.90625 10.6875H44.5312V14.25H8.90625V10.6875Z" fill="#F8F9FA"/>
<path d="M48.0938 10.6875H62.3438V14.25H48.0938V10.6875Z" fill="#F8F9FA"/>
<path d="M65.9062 10.6875H80.1562V14.25H65.9062V10.6875Z" fill="#F8F9FA"/>
<path d="M67.6875 78.375H103.312V103.312H67.6875V78.375Z" fill="#FEB237"/>
<path d="M96.1875 90.8438V78.375H67.6875V96.1875H90.8438C92.261 96.1875 93.6202 95.6245 94.6223 94.6223C95.6245 93.6202 96.1875 92.261 96.1875 90.8438Z" fill="#FFDD33"/>
<path d="M55.2188 81.9375H16.0312C14.614 81.9375 13.2548 82.5005 12.2526 83.5027C11.2505 84.5048 10.6875 85.864 10.6875 87.2812C10.6926 87.5801 10.7224 87.878 10.7766 88.1719H55.2188V81.9375Z" fill="#CCCCCC"/>
</svg>
