<svg width="114" height="114" viewBox="0 0 114 114" fill="none" xmlns="http://www.w3.org/2000/svg">
<g id="did-we-mention_online-marketplaces">
<g id="Group">
<path id="Vector" d="M16 25.3428V91.1009C16 94.9098 19.0927 98.0001 22.9047 98.0001H81.1628C84.9747 98.0001 88.0674 94.9098 88.0674 91.1009V25.3428H16Z" fill="#D2D9DC"/>
<path id="Vector_2" d="M81.1628 16H22.9047C19.0927 16 16 19.0903 16 22.8992V27.7862H87.9955V22.8992C87.9955 19.0903 84.9028 16 81.1628 16Z" fill="#002548"/>
<g id="Group_2">
<path id="Vector_3" d="M79.2931 24.2648C79.1492 24.2648 79.0054 24.193 78.8615 24.1211L75.2653 20.5278C75.0496 20.3122 75.0496 19.881 75.2653 19.6654C75.4811 19.4498 75.9127 19.4498 76.1284 19.6654L79.7246 23.2587C79.9404 23.4743 79.9404 23.9055 79.7246 24.1211C79.5808 24.2648 79.4369 24.2648 79.2931 24.2648Z" fill="#ED1C24"/>
</g>
<g id="Group_3">
<path id="Vector_4" d="M75.6246 24.2648C75.4808 24.2648 75.3369 24.193 75.1931 24.1211C74.9773 23.9055 74.9773 23.4743 75.1931 23.2587L78.7893 19.6654C79.005 19.4498 79.4366 19.4498 79.6523 19.6654C79.8681 19.881 79.8681 20.3122 79.6523 20.5278L76.0562 24.1211C75.9842 24.2648 75.8404 24.2648 75.6246 24.2648Z" fill="#ED1C24"/>
</g>
<g id="Group_4">
<g id="Group_5">
<path id="Vector_5" d="M25.2802 23.5461H24.2732C23.8417 23.5461 23.4102 23.1868 23.4102 22.6837C23.4102 22.2525 23.7698 21.8213 24.2732 21.8213H25.2802C25.7117 21.8213 26.1433 22.1806 26.1433 22.6837C26.0713 23.1868 25.7117 23.5461 25.2802 23.5461Z" fill="#F9FAFB"/>
</g>
<g id="Group_6">
<path id="Vector_6" d="M33.0477 23.5461H32.0408C31.6093 23.5461 31.1777 23.1868 31.1777 22.6837C31.1777 22.1806 31.5374 21.8213 32.0408 21.8213H33.0477C33.4793 21.8213 33.9108 22.1806 33.9108 22.6837C33.9108 23.1868 33.5512 23.5461 33.0477 23.5461Z" fill="#F9FAFB"/>
</g>
<g id="Group_7">
<path id="Vector_7" d="M40.8876 23.5461H39.8807C39.4491 23.5461 39.0176 23.1868 39.0176 22.6837C39.0176 22.2525 39.3772 21.8213 39.8807 21.8213H40.8876C41.3191 21.8213 41.7507 22.1806 41.7507 22.6837C41.6787 23.1868 41.3191 23.5461 40.8876 23.5461Z" fill="#F9FAFB"/>
</g>
</g>
<path id="Vector_8" d="M30.3847 27.7861V32.3856C30.3847 36.3383 27.1482 39.5723 23.1924 39.5723C19.2366 39.5723 16 36.3383 16 32.3856V27.7861H30.3847Z" fill="#ED1C24"/>
<path id="Vector_9" d="M44.8417 27.7861V32.3856C44.8417 36.3383 41.6052 39.5723 37.6494 39.5723C33.6936 39.5723 30.457 36.3383 30.457 32.3856V27.7861H44.8417Z" fill="#FFDD33"/>
<path id="Vector_10" d="M59.2265 27.7861V32.3856C59.2265 36.3383 55.99 39.5723 52.0342 39.5723C48.0784 39.5723 44.8418 36.3383 44.8418 32.3856V27.7861H59.2265Z" fill="#ED1C24"/>
<path id="Vector_11" d="M73.6835 27.7861V32.3856C73.6835 36.3383 70.447 39.5723 66.4912 39.5723C62.5354 39.5723 59.2988 36.3383 59.2988 32.3856V27.7861H73.6835Z" fill="#FFDD33"/>
<path id="Vector_12" d="M88.0664 27.7861V32.3856C88.0664 36.3383 84.8298 39.5723 80.874 39.5723C76.9182 39.5723 73.6816 36.3383 73.6816 32.3856V27.7861H88.0664Z" fill="#ED1C24"/>
<path id="Vector_13" d="M63.1816 42.7344H40.8853C39.8064 42.7344 38.9434 43.5968 38.9434 44.6748V64.2225C38.9434 65.3005 39.8064 66.1629 40.8853 66.1629H63.2535C64.3324 66.1629 65.1955 65.3005 65.1955 64.2225V44.7466C65.1955 43.6686 64.3324 42.7344 63.1816 42.7344Z" fill="#0054A6"/>
<path id="Vector_14" d="M31.8223 71.4812H72.2433V77.5899H31.8223V71.4812Z" fill="#FFDD33"/>
<path id="Vector_15" d="M60.7373 51.4304L58.5076 53.6583C58.2919 53.8739 58.0042 53.8739 57.8603 53.6583L57.4288 53.2271L56.9972 52.7959V62.0667C56.9972 62.3541 56.7815 62.5698 56.4938 62.5698H47.5752C47.2875 62.5698 47.0718 62.3541 47.0718 62.0667V61.2761V52.7959L46.6402 53.2271L46.2087 53.6583C45.9929 53.8739 45.7052 53.8739 45.5614 53.6583L43.3317 51.4304C43.116 51.2148 43.116 50.9273 43.3317 50.7836L43.7633 50.3524L45.5614 48.5557C46.4245 47.6933 47.4314 47.1184 48.5822 46.7591C48.7979 46.6872 48.9418 46.6153 49.1576 46.6153L49.3733 46.5435C49.8049 47.5496 50.8118 48.2683 52.0345 48.2683C53.2572 48.2683 54.1922 47.5496 54.6957 46.5435L54.9114 46.6153C55.1272 46.6872 55.2711 46.6872 55.4868 46.7591C56.6376 47.1184 57.6445 47.6933 58.5076 48.5557L60.3057 50.3524L60.7373 50.7836C60.8811 50.9273 60.8811 51.2148 60.7373 51.4304Z" fill="#F9FAFB"/>
<path id="Vector_16" d="M82.4583 47.334H70.3033C69.2244 47.334 68.3613 48.1964 68.3613 49.2744V59.6951C68.3613 60.7731 69.2244 61.6355 70.3033 61.6355H82.4583C83.5372 61.6355 84.4003 60.7731 84.4003 59.6951V49.2744C84.4003 48.1964 83.5372 47.334 82.4583 47.334Z" fill="#0054A6"/>
<path id="Vector_17" d="M74.7613 57.9702C77.2786 58.617 77.6382 56.964 77.6382 56.964C78.4294 54.9518 79.2206 54.1612 79.2206 54.1612V57.9702H80.0837V55.886C80.0117 54.305 80.731 53.0832 80.731 53.0832C81.1625 51.3584 79.5083 50.496 79.2925 50.3523C79.2925 50.3523 79.2925 50.3523 79.2206 50.3523L75.984 54.9518C75.6244 55.4548 75.1209 55.7423 74.4736 55.7423H73.7544L72.0282 56.461C71.5967 56.6047 71.6686 57.2515 72.1001 57.3234L74.7613 57.9702Z" fill="#F9FAFB"/>
<path id="Vector_18" d="M33.763 47.334H21.608C20.5291 47.334 19.666 48.1964 19.666 49.2744V59.6951C19.666 60.7731 20.5291 61.6355 21.608 61.6355H33.763C34.8419 61.6355 35.705 60.7731 35.705 59.6951V49.2744C35.705 48.1964 34.8419 47.334 33.763 47.334Z" fill="#0054A6"/>
<path id="Vector_19" d="M24.9184 52.5803L25.1341 52.4366L25.6376 55.3113L24.271 58.9046C24.271 59.6233 31.0319 59.6233 31.0319 58.9046L29.6653 55.3113L30.1688 52.4366L30.3845 52.5803C30.4565 52.6522 30.5284 52.6522 30.6003 52.5803C30.8161 52.4366 31.1757 52.221 31.3915 51.8617C31.3915 51.7898 31.3915 51.7179 31.3915 51.7179L30.6722 50.2087C30.6722 50.1369 30.6003 50.1369 30.5284 50.1369L29.0899 49.6338C29.0899 49.7057 28.8742 50.1369 28.5865 50.6399C28.5145 50.7118 28.4426 50.8555 28.4426 50.9274C28.1549 51.3586 27.8672 51.7898 27.5795 52.0054C26.9322 51.5742 26.0691 49.6338 26.0691 49.6338L24.6307 50.1369C24.5587 50.1369 24.5587 50.2087 24.4868 50.2087L23.7676 51.7179C23.7676 51.7898 23.7676 51.8617 23.7676 51.8617C23.9833 52.221 24.343 52.4366 24.5587 52.5803C24.7745 52.6522 24.8464 52.6522 24.9184 52.5803Z" fill="#F9FAFB"/>
<path id="Vector_20" d="M39.8054 91.8915H33.5481C32.5412 91.8915 31.75 91.1009 31.75 90.0948V83.9861C31.75 82.98 32.5412 82.1895 33.5481 82.1895H39.8054C40.8124 82.1895 41.6035 82.98 41.6035 83.9861V90.0948C41.6035 91.1009 40.8124 91.8915 39.8054 91.8915Z" fill="#0054A6"/>
<path id="Vector_21" d="M55.1258 91.8915H48.8684C47.8615 91.8915 47.0703 91.1009 47.0703 90.0948V83.9861C47.0703 82.98 47.8615 82.1895 48.8684 82.1895H55.1258C56.1327 82.1895 56.9238 82.98 56.9238 83.9861V90.0948C56.9238 91.1009 56.1327 91.8915 55.1258 91.8915Z" fill="#ED1C24"/>
<path id="Vector_22" d="M70.4461 91.8915H64.1887C63.1818 91.8915 62.3906 91.1009 62.3906 90.0948V83.9861C62.3906 82.98 63.1818 82.1895 64.1887 82.1895H70.4461C71.453 82.1895 72.2442 82.98 72.2442 83.9861V90.0948C72.2442 91.1009 71.453 91.8915 70.4461 91.8915Z" fill="#54CC5A"/>
<path id="Vector_23" d="M96.9139 97.9282H74.5457C73.8983 97.9282 73.4668 97.4251 73.4668 96.7783L75.121 75.7932C75.193 75.2183 75.6245 74.7871 76.1999 74.7871H95.2596C95.835 74.7871 96.2666 75.2183 96.3385 75.7932L97.9927 96.7783C98.0647 97.4251 97.5612 97.9282 96.9139 97.9282Z" fill="#0054A6"/>
<path id="Vector_24" d="M80.5879 78.3085C81.2632 78.3085 81.8106 77.7615 81.8106 77.0867C81.8106 76.412 81.2632 75.865 80.5879 75.865C79.9127 75.865 79.3652 76.412 79.3652 77.0867C79.3652 77.7615 79.9127 78.3085 80.5879 78.3085Z" fill="#F9FAFB"/>
<path id="Vector_25" d="M90.8731 78.3085C91.5484 78.3085 92.0958 77.7615 92.0958 77.0867C92.0958 76.412 91.5484 75.865 90.8731 75.865C90.1978 75.865 89.6504 76.412 89.6504 77.0867C89.6504 77.7615 90.1978 78.3085 90.8731 78.3085Z" fill="#F9FAFB"/>
<g id="Group_8">
<path id="Vector_26" d="M90.8741 77.518C90.5864 77.518 90.3707 77.3024 90.3707 77.0149V72.4154C90.3707 69.8282 88.2849 67.7441 85.6956 67.7441C83.1064 67.7441 81.0206 69.8282 81.0206 72.4154V77.0149C81.0206 77.3024 80.8048 77.518 80.5171 77.518C80.2294 77.518 80.0137 77.3024 80.0137 77.0149V72.4154C80.0137 69.3252 82.531 66.8098 85.6237 66.8098C88.7164 66.8098 91.2337 69.3252 91.2337 72.4154V77.0149C91.3776 77.3024 91.0899 77.518 90.8741 77.518Z" fill="#002548"/>
</g>
</g>
</g>
</svg>
