<svg width="48" height="48" viewBox="0 0 48 48" fill="none" xmlns="http://www.w3.org/2000/svg">
<g id="your-personal-assistant-to_only-support-no-trade-offs 1" clip-path="url(#clip0_6034_12871)">
<g id="Group">
<path id="Vector" d="M32.2004 6.69995C27.7004 2.19995 20.4004 2.19995 15.9004 6.69995C11.4004 11.2 11.4004 18.5 15.9004 23C20.4004 27.5 27.7004 27.5 32.2004 23C36.7004 18.5 36.7004 11.2 32.2004 6.69995Z" fill="#0054A6"/>
<path id="Vector_2" d="M30.5008 12.9999C30.5008 12.7999 30.5008 12.6999 30.4008 12.5999L30.0008 12.1999C29.8008 11.9999 29.5008 11.9999 29.3008 12.1999L26.3008 15.1999C25.6008 15.8999 24.3008 15.8999 23.6008 15.1999C22.9008 14.4999 22.9008 13.1999 23.6008 12.4999C24.6008 11.4999 26.0008 10.0999 26.6008 9.49994C26.8008 9.29994 26.8008 8.99994 26.6008 8.79994L26.3008 8.49994C26.2008 8.39994 26.0008 8.29994 25.9008 8.39994L20.7008 9.29994C20.1008 9.39994 19.7008 9.79994 19.5008 10.3999L18.9008 14.9999C18.7008 16.1999 18.2008 17.2999 17.3008 18.1999L14.3008 21.1999C14.7008 21.7999 15.2008 22.4999 15.8008 22.9999C16.4008 23.5999 17.0008 24.0999 17.6008 24.4999L20.6008 21.4999C21.5008 20.5999 22.6008 20.0999 23.8008 19.8999L28.4008 19.2999C29.0008 19.1999 29.4008 18.6999 29.5008 18.0999L30.5008 12.9999Z" fill="#D2D9DC"/>
<path id="Vector_3" d="M44.4008 28.9L34.7008 35.4L31.8008 35.2L31.7008 34.0999C31.5008 32.3999 30.2008 31.0999 28.6008 30.7999L20.9008 29.9C19.1008 29.6 17.4008 29.1 15.9008 28.1C13.8008 26.9 11.4008 26.2 8.90078 26.2H3.30078V38.9L18.0008 44.5C18.6008 44.7 19.1008 44.6999 19.7008 44.5999L34.5008 42.5C35.6008 42.2999 36.7008 41.7999 37.6008 41.0999L47.2008 32.5C48.1008 31.7 48.2008 30.5 47.6008 29.5C46.9008 28.5 45.5008 28.1999 44.4008 28.9Z" fill="#FED2A4"/>
<path id="Vector_4" d="M47.6008 29.4999C47.4008 29.2999 47.2008 29.0999 47.0008 28.8999L37.8008 36.2999C36.9008 36.9999 35.7008 37.3999 34.5008 37.5999L19.7008 39.6999C19.1008 39.7999 18.5008 39.6999 18.0008 39.5999L3.30078 34.0999V38.9999L18.0008 44.4999C18.6008 44.6999 19.1008 44.6999 19.7008 44.5999L34.5008 42.4999C35.6008 42.2999 36.7008 41.7999 37.6008 41.0999L47.2008 32.4999C48.1008 31.6999 48.3008 30.3999 47.6008 29.4999Z" fill="#FFBD86"/>
<path id="Vector_5" d="M5.1 42.6999H0.8C0.4 42.6999 0 42.3999 0 41.8999V24.5999C0 24.1999 0.3 23.7999 0.8 23.7999H5.1C5.5 23.7999 5.9 24.0999 5.9 24.5999V41.8999C5.9 42.2999 5.5 42.6999 5.1 42.6999Z" fill="#002548"/>
<path id="Vector_6" opacity="0.19" d="M5.5 37.7999H0.4C0.2 37.7999 0 37.5999 0 37.3999V41.8999C0 42.2999 0.3 42.6999 0.8 42.6999H5.1C5.5 42.6999 5.9 42.3999 5.9 41.8999V37.3999C5.9 37.5999 5.7 37.7999 5.5 37.7999Z" fill="#2D2F31"/>
<path id="Vector_7" d="M18.2992 21.3C18.4992 21.3 18.6992 21.2 18.7992 21.1L20.7992 19.1C21.0992 18.8 21.0992 18.4 20.7992 18.1C20.4992 17.8 20.0992 17.8 19.7992 18.1L17.7992 20.1C17.4992 20.4 17.4992 20.8 17.7992 21.1C17.8992 21.2 18.0992 21.3 18.2992 21.3Z" fill="#839299"/>
<path id="Vector_8" d="M31.7995 34.3999L17.4995 34.6999C17.2995 34.6999 16.9995 34.5999 16.8995 34.3999C16.5995 34.0999 16.1995 34.0999 15.8995 34.2999C15.5995 34.5999 15.5995 34.9999 15.7995 35.2999C16.1995 35.7999 16.7995 36.0999 17.3995 36.0999C17.3995 36.0999 17.3995 36.0999 17.4995 36.0999L31.8995 35.1999L31.7995 34.3999Z" fill="#FFBD86"/>
</g>
</g>
<defs>
<clipPath id="clip0_6034_12871">
<rect width="48" height="48" fill="white"/>
</clipPath>
</defs>
</svg>
