<svg width="202" height="163" viewBox="0 0 202 163" fill="none" xmlns="http://www.w3.org/2000/svg">
<path d="M140.094 0.000130653L142.433 2.27438L145.32 0.752586L143.88 3.68019L146.22 5.95545L142.99 5.49048L141.549 8.41809L140.994 5.20298L137.764 4.73801L140.65 3.21522L140.094 0.000130653Z" fill="#D3EDEC"/>
<path d="M32.9995 156.002L32.9539 158.335L35.1588 159.1L32.9261 159.778L32.8805 162.111L31.5451 160.196L29.3125 160.874L30.7203 159.013L29.3859 157.098L31.5907 157.862L32.9995 156.002Z" fill="#D3EDEC"/>
<path d="M10.4282 156.782L58.6082 157.584L58.9879 134.75L10.8079 133.947L10.4282 156.782Z" fill="#53A07C"/>
<path d="M33.9099 137.386C29.291 137.309 25.483 140.992 25.4057 145.611C25.3294 150.231 29.0124 154.039 33.6314 154.115C38.2513 154.192 42.0592 150.509 42.1356 145.89C42.2129 141.27 38.5299 137.462 33.9099 137.386Z" fill="#B9EDD6"/>
<path d="M8.33667 159.033L56.5157 159.836L56.8964 137L8.71638 136.198L8.33667 159.033Z" fill="#5CAA7B"/>
<path d="M33.8801 139.671C29.2602 139.594 25.4533 143.277 25.3759 147.897C25.2996 152.517 28.9816 156.324 33.6016 156.401C38.2215 156.477 42.0285 152.795 42.1058 148.175C42.1831 143.555 38.5 139.747 33.8801 139.671Z" fill="#77B890"/>
<path d="M28.8196 138.711L11.5544 138.423L11.2471 156.905L28.5123 157.192C25.2803 155.348 23.126 151.845 23.1924 147.86C23.2579 143.877 25.5282 140.448 28.8196 138.711Z" fill="#77B890"/>
<path d="M44.2673 148.211C44.2009 152.195 41.9306 155.625 38.6392 157.361L53.6579 157.611L53.9652 139.13L38.9465 138.879C42.1794 140.724 44.3328 144.228 44.2673 148.211Z" fill="#B9EDD6"/>
<path d="M8.70898 136.198L13.1703 136.273L10.8058 133.947L8.70898 136.198Z" fill="#53A07C"/>
<path d="M56.5259 159.836L58.6237 157.585L56.6042 155.168L56.5259 159.836Z" fill="#53A07C"/>
<path d="M56.5259 159.836L58.6237 157.585L59.0034 134.75L56.9066 137L56.5259 159.836Z" fill="#4B8C6B"/>
<path d="M31.4934 159.419L34.4894 159.469L34.8701 136.634L31.8731 136.584L31.4934 159.419Z" fill="#217F7A"/>
<path d="M31.8582 136.584L34.8551 136.633L35.6711 134.361L32.8337 134.313L31.8582 136.584Z" fill="#E23E3D"/>
<path d="M13.3535 129.236L57.1188 152.231L68.0182 131.488L24.252 108.493L13.3535 129.236Z" fill="#53A07C"/>
<path d="M43.8182 122.317C39.6217 120.112 34.4317 121.726 32.2268 125.923C30.0219 130.119 31.6369 135.309 35.8335 137.514C40.0301 139.719 45.2191 138.104 47.424 133.907C49.6288 129.711 48.0148 124.522 43.8182 122.317Z" fill="#B9EDD6"/>
<path d="M10.3911 130.329L54.1564 153.325L65.0558 132.581L21.2896 109.586L10.3911 130.329Z" fill="#5CAA7B"/>
<path d="M42.724 124.393C38.5274 122.188 33.3375 123.802 31.1326 127.999C28.9277 132.195 30.5427 137.385 34.7393 139.59C38.9359 141.795 44.1249 140.18 46.3297 135.983C48.5346 131.788 46.9206 126.598 42.724 124.393Z" fill="#77B890"/>
<path d="M14.0459 129.729L29.7298 137.97C27.6211 134.786 27.2662 130.582 29.1677 126.963C31.0692 123.345 34.7334 121.251 38.5513 121.182L22.8674 112.941L14.0459 129.729Z" fill="#77B890"/>
<path d="M48.312 137.019C46.4105 140.638 42.7473 142.732 38.9294 142.801L52.5721 149.969L61.3925 133.18L47.7499 126.013C49.8586 129.196 50.2135 133.4 48.312 137.019Z" fill="#B9EDD6"/>
<path d="M21.281 109.585L25.3338 111.715L24.2423 108.493L21.281 109.585Z" fill="#53A07C"/>
<path d="M54.1663 153.325L57.1276 152.231L56.3949 149.084L54.1663 153.325Z" fill="#53A07C"/>
<path d="M54.1663 153.325L57.1276 152.231L68.027 131.488L65.0657 132.581L54.1663 153.325Z" fill="#4B8C6B"/>
<path d="M31.4041 141.378L34.1264 142.809L45.0259 122.066L42.3025 120.635L31.4041 141.378Z" fill="#3F9896"/>
<path d="M42.3311 120.635L45.0544 122.066L46.8508 120.362L44.2742 119.007L42.3311 120.635Z" fill="#3F9896"/>
<mask id="mask0_14289_6210" style="mask-type:luminance" maskUnits="userSpaceOnUse" x="10" y="134" width="1" height="1">
<path d="M10.594 134.176L10.4116 134.087L10.6773 134.086L10.594 134.176Z" fill="white"/>
</mask>
<g mask="url(#mask0_14289_6210)">
<path d="M10.4116 134.176H10.6773V134.086H10.4116V134.176Z" fill="#90BBB2"/>
</g>
<path d="M21.9599 136.419L14.9428 136.302L11.464 134.606L10.9346 134.085L17.4659 134.059L21.9599 136.419Z" fill="#418A66"/>
<path d="M27.5294 142.43L25.5168 141.449C26.1384 140.674 26.8681 139.988 27.6811 139.415L29.9187 140.591C29.0145 141.056 28.2055 141.682 27.5294 142.43ZM26.2584 138.668L19.5853 138.557L14.9614 136.302L21.9786 136.419L26.2584 138.668Z" fill="#489366"/>
<path d="M41.1041 149.043L34.7215 145.931L34.7681 143.133L41.1041 146.462V149.043ZM31.7473 144.481L27.5408 142.43C28.2169 141.682 29.0259 141.056 29.93 140.591L31.7959 141.572L31.7473 144.481Z" fill="#5E9F77"/>
<path d="M25.5079 141.449L19.5764 138.557L26.2495 138.668L27.6722 139.415C26.8592 139.988 26.1296 140.673 25.5079 141.449Z" fill="#5E9F77"/>
<path d="M11.4744 134.606L10.592 134.176L10.6753 134.086L10.945 134.085L11.4744 134.606Z" fill="#418A66"/>
<path d="M34.6983 145.931L31.7241 144.482L31.7727 141.572L33.4214 142.438L34.1283 142.809L34.7449 143.133L34.6983 145.931Z" fill="#1A6E65"/>
<path d="M64.8558 137.477C64.7666 137.431 64.6566 137.465 64.609 137.554L56.9752 152.083L54.1557 153.124L10.6243 130.252L21.4375 109.67C21.4841 109.581 21.4504 109.471 21.3612 109.424C21.272 109.377 21.1609 109.412 21.1143 109.501L10.1306 130.406L54.1299 153.524L57.233 152.378L64.9332 137.724C64.9679 137.659 64.958 137.581 64.9143 137.526C64.8995 137.507 64.8796 137.49 64.8558 137.477Z" fill="black"/>
<path d="M59.3638 143.44C59.2746 143.394 59.1635 143.427 59.1169 143.517L54.0083 153.239C53.9617 153.328 53.9964 153.439 54.0856 153.486C54.1748 153.533 54.2849 153.498 54.3324 153.409L59.4401 143.687C59.4748 143.621 59.4649 143.543 59.4223 143.489C59.4064 143.469 59.3866 143.452 59.3638 143.44Z" fill="black"/>
<path d="M15.8372 127.044L15.8312 127.036C15.7717 126.961 15.6627 126.944 15.5824 126.999C15.5001 127.057 15.4803 127.171 15.5378 127.254L17.4423 129.98C17.5027 130.06 17.6147 130.083 17.697 130.025C17.7803 129.967 17.8001 129.853 17.7426 129.771L15.8372 127.044Z" fill="black"/>
<path d="M16.9099 126.857L16.9029 126.849C16.8434 126.774 16.7344 126.757 16.6551 126.813C16.5718 126.87 16.552 126.984 16.6095 127.068L18.5149 129.794C18.5754 129.872 18.6865 129.897 18.7697 129.838C18.852 129.781 18.8728 129.667 18.8144 129.585L16.9099 126.857Z" fill="black"/>
<path d="M19.0456 153.002L19.0397 152.994C18.9792 152.918 18.8711 152.901 18.7908 152.957C18.7085 153.015 18.6877 153.129 18.7462 153.212L20.6507 155.938C20.7082 156.019 20.8222 156.041 20.9055 155.984C20.9877 155.925 21.0086 155.811 20.9501 155.729L19.0456 153.002Z" fill="black"/>
<path d="M20.1245 152.816L20.1185 152.807C20.059 152.732 19.95 152.715 19.8707 152.771C19.7874 152.829 19.7675 152.943 19.8251 153.025L21.7305 155.752C21.789 155.834 21.902 155.855 21.9843 155.797C22.0676 155.739 22.0874 155.626 22.0299 155.543L20.1245 152.816Z" fill="black"/>
<path d="M56.5273 159.653L8.52973 158.854L8.90548 136.272L10.8992 134.131L17.49 134.241C17.5911 134.243 17.6744 134.162 17.6764 134.062C17.6774 133.961 17.5971 133.877 17.4969 133.875L10.7425 133.763L8.54261 136.125L8.54162 136.195L8.15796 159.214L56.5204 160.019C56.6215 160.021 56.7048 159.94 56.7068 159.839C56.7077 159.796 56.6929 159.755 56.6671 159.723C56.6344 159.682 56.5838 159.654 56.5273 159.653Z" fill="black"/>
<path d="M159.457 48.1522C157.722 55.0712 150.706 59.2727 143.788 57.5378C136.869 55.8028 132.667 48.7867 134.402 41.8687C136.138 34.9497 143.153 30.7472 150.072 32.4831C156.99 34.2181 161.193 41.2332 159.457 48.1522ZM170.573 47.1727L170.386 43.7345L170.199 40.2973L165.206 39.6559C164.636 37.7038 163.747 35.8321 162.55 34.117L165.177 29.8212L162.614 27.5222L160.051 25.2241L156.065 28.3014C154.231 27.2961 152.273 26.617 150.271 26.2621L149.092 21.3676L145.654 21.554L142.217 21.7413L141.575 26.735C139.624 27.3041 137.751 28.1924 136.036 29.391L131.74 26.7628L129.442 29.3265L127.143 31.8893L130.221 35.8747C129.216 37.7088 128.536 39.6668 128.181 41.6684L123.286 42.8482L123.474 46.2854L123.66 49.7236L128.654 50.365C129.224 52.3161 130.112 54.1888 131.31 55.9039L128.683 60.1997L131.245 62.4977L133.808 64.7968L137.794 61.7195C139.629 62.7238 141.587 63.4039 143.588 63.7588L144.767 68.6533L148.205 68.4659L151.642 68.2796L152.285 63.2859C154.236 62.7158 156.109 61.8285 157.823 60.6299L162.118 63.2571L164.418 60.6944L166.716 58.1316L163.638 54.1462C164.644 52.3111 165.324 50.3541 165.678 48.3525L170.573 47.1727Z" fill="#6498D1"/>
<path d="M189.173 75.2749C188.083 79.6221 183.674 82.2632 179.327 81.1727C174.979 80.0822 172.338 75.6734 173.429 71.3261C174.52 66.9778 178.927 64.3378 183.276 65.4283C187.623 66.5188 190.264 70.9276 189.173 75.2749ZM196.159 74.6592L196.041 72.4989L195.924 70.3387L192.785 69.9352C192.427 68.7088 191.869 67.532 191.117 66.4544L192.767 63.7558L191.157 62.3113L189.546 60.8669L187.042 62.8001C185.889 62.1686 184.659 61.7423 183.401 61.5192L182.66 58.4429L180.5 58.5609L178.339 58.6779L177.936 61.8156C176.71 62.1735 175.533 62.7317 174.455 63.4852L171.756 61.8335L170.311 63.4445L168.868 65.0545L170.801 67.5598C170.169 68.7128 169.742 69.9421 169.519 71.2002L166.444 71.9418L166.561 74.102L166.679 76.2623L169.816 76.6658C170.174 77.8922 170.732 79.068 171.486 80.1456L169.834 82.8452L171.445 84.2897L173.055 85.7341L175.56 83.7999C176.713 84.4314 177.943 84.8587 179.201 85.0818L179.943 88.1581L182.103 88.0401L184.263 87.9231L184.666 84.7844C185.892 84.4265 187.069 83.8693 188.146 83.1158L190.846 84.7675L192.29 83.1565L193.735 81.5455L191.801 79.0412C192.432 77.8882 192.859 76.6579 193.082 75.4008L196.159 74.6592Z" fill="#6498D1"/>
<path d="M22.0695 95.5142C21.1614 99.1328 17.4912 101.331 13.8726 100.424C10.253 99.5155 8.05511 95.8453 8.96324 92.2267C9.87037 88.6071 13.5405 86.4092 17.1601 87.3163C20.7787 88.2245 22.9767 91.8946 22.0695 95.5142ZM27.8841 95.0007L27.7859 93.2033L27.6888 91.4049L25.0764 91.0688C24.778 90.0486 24.3141 89.0681 23.6865 88.1719L25.0616 85.9244L23.7212 84.7218L22.3798 83.5193L20.2949 85.1293C19.3353 84.6039 18.3111 84.2479 17.2642 84.0626L16.6476 81.5018L14.8492 81.5999L13.0508 81.6981L12.7147 84.3094C11.6945 84.6078 10.715 85.0728 9.81781 85.6994L7.57032 84.3243L6.36775 85.6657L5.16618 87.006L6.77521 89.0909C6.24977 90.0506 5.89386 91.0747 5.70847 92.1216L3.14868 92.7393L3.24583 94.5367L3.34398 96.3351L5.95632 96.6712C6.25374 97.6923 6.7187 98.6718 7.34526 99.569L5.97119 101.816L7.31157 103.018L8.65193 104.221L10.7369 102.611C11.6965 103.136 12.7206 103.492 13.7676 103.677L14.3852 106.238L16.1836 106.14L17.981 106.043L18.3171 103.431C19.3382 103.132 20.3177 102.668 21.2149 102.041L23.4615 103.416L24.664 102.074L25.8666 100.734L24.2565 98.649C24.782 97.6893 25.1379 96.6652 25.3233 95.6183L27.8841 95.0007Z" fill="#6498D1"/>
<path d="M32.6879 71.1478C32.1545 73.2743 29.9982 74.5651 27.8716 74.0318C25.7461 73.4984 24.4543 71.3431 24.9877 69.2165C25.521 67.09 27.6773 65.7992 29.8029 66.3326C31.9294 66.8659 33.2212 69.0212 32.6879 71.1478ZM36.1032 70.8464L36.0467 69.7906L35.9892 68.7337L34.4545 68.5364C34.279 67.9367 34.0064 67.3616 33.6376 66.8342L34.4456 65.5147L33.6574 64.8078L32.8703 64.1019L31.6449 65.0467C31.0818 64.7384 30.48 64.5292 29.8643 64.4202L29.5025 62.9162L28.4457 62.9737L27.3898 63.0312L27.1925 64.5659C26.5927 64.7414 26.0167 65.014 25.4903 65.3818L24.1698 64.5748L23.4629 65.362L22.757 66.1501L23.7028 67.3745C23.3935 67.9386 23.1853 68.5404 23.0762 69.1551L21.5713 69.5179L21.6288 70.5738L21.6863 71.6306L23.221 71.8279C23.3965 72.4277 23.6691 73.0027 24.0379 73.5301L23.2299 74.8497L24.0181 75.5565L24.8052 76.2624L26.0296 75.3166C26.5937 75.6259 27.1955 75.8351 27.8112 75.9442L28.173 77.4481L29.2298 77.3906L30.2857 77.3331L30.483 75.7984C31.0828 75.624 31.6588 75.3503 32.1852 74.9825L33.5058 75.7895L34.2116 75.0023L34.9185 74.2142L33.9727 72.9898C34.281 72.4257 34.4902 71.8239 34.5993 71.2093L36.1032 70.8464Z" fill="#6498D1"/>
<path d="M152.385 88.0321H45.8307C43.2194 88.0321 41.1028 90.1498 41.1028 92.7601V156.095H157.113V92.7601C157.113 90.1498 154.996 88.0321 152.385 88.0321Z" fill="#6D492D"/>
<path d="M34.9619 156.523C34.9619 158.355 36.3013 159.84 37.953 159.84H160.258C161.91 159.84 163.249 158.355 163.249 156.523V152.339H34.9619V156.523Z" fill="#4D81CE"/>
<path d="M151.806 90.704H46.3826C44.9589 90.704 43.8049 91.7509 43.8049 93.0417V152.339H154.384V93.0417C154.384 91.7509 153.23 90.704 151.806 90.704Z" fill="#E9F3FF"/>
<path d="M49.8856 129.683H37.747C36.2827 129.683 35.0959 130.869 35.0959 132.334V144.472C35.0959 145.936 36.2827 147.122 37.747 147.122H49.8856C51.3489 147.122 52.5356 145.936 52.5356 144.472V132.334C52.5356 130.869 51.3489 129.683 49.8856 129.683Z" fill="#F47F91"/>
<path d="M43.8563 136.146C41.8815 136.146 39.9968 136.146 38.0884 136.146C38.0884 137.689 38.0884 139.147 38.0884 140.742C40.0533 140.742 41.937 140.742 43.8335 140.742C43.8613 141.319 43.8851 141.812 43.9138 142.421C45.8391 141.053 47.6395 139.773 49.542 138.421C47.6326 137.065 45.8213 135.78 43.8563 134.384C43.8563 135.073 43.8563 135.568 43.8563 136.146Z" fill="white"/>
<path d="M103.169 79.1245H89.7462C88.2829 79.1245 87.0962 80.3112 87.0962 81.7755V95.197C87.0962 96.6603 88.2829 97.847 89.7462 97.847H103.169C104.632 97.847 105.819 96.6603 105.819 95.197V81.7755C105.819 80.3112 104.632 79.1245 103.169 79.1245Z" fill="#F47F91"/>
<path d="M96.388 84.7813C94.5757 86.0672 92.9062 87.2529 91.1455 88.502C92.9003 89.7492 94.5589 90.929 96.3345 92.191C96.3612 91.6289 96.3831 91.1749 96.4088 90.6425C98.1567 90.6425 99.8936 90.6425 101.705 90.6425C101.705 89.1722 101.705 87.8279 101.705 86.4042C99.9452 86.4042 98.2082 86.4042 96.388 86.4042C96.388 85.8719 96.388 85.4158 96.388 84.7813Z" fill="white"/>
<path d="M41.1028 152.339H157.113V150.714H41.1028V152.339Z" fill="#6D492D"/>
<path d="M50.1352 76.1721C40.707 77.4233 34.0785 86.0802 35.3296 95.5084C36.5808 104.937 45.2367 111.565 54.6649 110.314C64.0931 109.063 70.7216 100.406 69.4704 90.9787C68.2193 81.5505 59.5624 74.922 50.1352 76.1721Z" fill="#FFCA5D"/>
<path d="M50.4503 78.4791C42.297 79.5617 36.5638 87.0487 37.6464 95.202C38.728 103.356 46.215 109.089 54.3683 108.007C62.5226 106.925 68.2558 99.4382 67.1732 91.284C66.0916 83.1307 58.6046 77.3974 50.4503 78.4791Z" fill="#F9B74B"/>
<path d="M57.7656 93.3184C57.0736 92.669 55.8572 92.1039 54.1153 91.6241C53.7504 91.525 53.2498 91.3961 52.6123 91.2384C50.5373 90.7249 49.4428 90.0349 49.3278 89.1674C49.2534 88.6083 49.3962 88.1383 49.7551 87.7586C50.115 87.3789 50.6434 87.143 51.3423 87.0498C52.0631 86.9546 52.6926 87.0488 53.229 87.3323C53.7673 87.6169 54.267 88.1185 54.7289 88.8373L57.5108 87.3789C56.8932 86.2041 56.0584 85.3664 55.0046 84.8657C54.3136 84.5376 53.5353 84.3601 52.6708 84.3304L52.3704 82.069L49.5211 82.4467L49.8225 84.716C48.8222 85.0343 48.0023 85.5409 47.3638 86.2368C46.4458 87.2372 46.079 88.4278 46.2624 89.8088C46.3705 90.6228 46.6391 91.3277 47.0704 91.9265C47.5007 92.5253 48.0697 92.9883 48.7766 93.3164C49.4944 93.6584 50.7336 94.0253 52.4943 94.4159C52.7511 94.4674 52.9484 94.512 53.0862 94.5477C54.0925 94.7738 54.8033 95.0405 55.2187 95.3488C55.6341 95.6561 55.877 96.0755 55.9474 96.6049C56.0356 97.2721 55.8572 97.8342 55.41 98.2922C54.9629 98.7493 54.3096 99.0358 53.451 99.1488C52.6916 99.2499 52.0056 99.129 51.3939 98.784C50.7822 98.44 50.1893 97.8412 49.6163 96.9876L46.8642 98.6759C47.6038 99.9528 48.5664 100.863 49.7511 101.408C50.4679 101.738 51.2551 101.93 52.1136 101.983L52.4368 104.418L55.2861 104.039L54.9758 101.707C56.2537 101.382 57.255 100.811 57.9778 99.9895C58.8928 98.9466 59.2458 97.6349 59.0366 96.0537C58.8809 94.8798 58.4576 93.9687 57.7656 93.3184Z" fill="#FFCA5D"/>
<path d="M54.6758 110.216C50.1421 110.818 45.6461 109.617 42.0146 106.837C38.3841 104.056 36.0524 100.029 35.4516 95.4955C34.2094 86.1367 40.8131 77.5125 50.1719 76.2703C50.2254 76.2633 50.2641 76.2137 50.2562 76.1592C50.2492 76.1047 50.1986 76.067 50.1461 76.075C40.6792 77.3311 33.9992 86.0544 35.2553 95.5212C35.864 100.107 38.2216 104.182 41.8947 106.994C43.0854 107.906 44.3682 108.65 45.7145 109.217C48.5212 110.402 51.6025 110.823 54.7016 110.412C54.7561 110.405 54.7938 110.355 54.7868 110.301C54.7799 110.246 54.7293 110.209 54.6758 110.216Z" fill="#21111D"/>
<path d="M50.4562 78.381C50.4026 78.3889 50.364 78.4385 50.3709 78.492C50.3789 78.5466 50.4294 78.5842 50.482 78.5773C54.4 78.0578 58.2852 79.0938 61.423 81.497C64.5598 83.9001 66.5743 87.3799 67.0938 91.2969C68.1675 99.3838 62.461 106.836 54.3742 107.909C54.3206 107.916 54.282 107.966 54.2899 108.02C54.2939 108.057 54.3177 108.085 54.3494 108.098C54.3653 108.105 54.3821 108.107 54.4 108.105C62.5949 107.018 68.3777 99.4661 67.2901 91.2712C66.2036 83.0763 58.6511 77.2934 50.4562 78.381Z" fill="#21111D"/>
<path d="M44.5543 81.4631C41.9122 82.8342 40.9971 85.8461 40.9882 85.8759C40.9733 85.9254 40.9981 85.976 41.0437 85.9958L41.0546 85.9988C41.1072 86.0146 41.1627 85.9849 41.1776 85.9324C41.1865 85.9026 42.0797 82.9701 44.6455 81.6386C44.6941 81.6138 44.7129 81.5543 44.6881 81.5058C44.6633 81.4572 44.6029 81.4384 44.5543 81.4631Z" fill="#21111D"/>
<path d="M46.0577 82.3704C43.4156 83.7406 42.5005 86.7524 42.4916 86.7832C42.4767 86.8317 42.5015 86.8823 42.5471 86.9021L42.5581 86.9061C42.6106 86.921 42.6651 86.8912 42.681 86.8387C42.6899 86.8099 43.5832 83.8764 46.1489 82.5459C46.1975 82.5211 46.2163 82.4607 46.1915 82.4121C46.1667 82.3645 46.1063 82.3447 46.0577 82.3704Z" fill="#21111D"/>
<path d="M49.517 82.3484C49.4624 82.3563 49.4248 82.4059 49.4317 82.4594L49.7222 84.6475C48.7437 84.9717 47.9287 85.4832 47.2992 86.1702C47.2625 86.2099 47.2655 86.2734 47.3051 86.31C47.3141 86.318 47.324 86.3239 47.3339 86.3279C47.3716 86.3437 47.4162 86.3358 47.4449 86.3041C48.0675 85.625 48.8805 85.1223 49.861 84.8101L49.9403 84.7843L49.628 82.4337C49.621 82.3791 49.5705 82.3415 49.517 82.3484Z" fill="#21111D"/>
<path d="M55.0462 84.7765C54.3473 84.4444 53.5492 84.262 52.6728 84.2313C52.6183 84.2293 52.5727 84.2719 52.5707 84.3274C52.5687 84.382 52.6113 84.4276 52.6658 84.4295C53.5145 84.4583 54.2878 84.6348 54.9619 84.956C55.9642 85.4318 56.7752 86.2329 57.375 87.3383L54.7617 88.7084C54.3056 88.0174 53.805 87.5257 53.2746 87.2451C52.7204 86.9526 52.066 86.8535 51.3284 86.9526C50.6107 87.0478 50.0565 87.2957 49.6827 87.6902C49.303 88.0918 49.1504 88.5924 49.2287 89.1813C49.2336 89.217 49.2574 89.2457 49.2882 89.2586C49.304 89.2656 49.3219 89.2685 49.3397 89.2656C49.3942 89.2586 49.4319 89.2091 49.425 89.1545C49.3536 88.6212 49.4854 88.1869 49.8255 87.8271C50.1685 87.4652 50.6821 87.2372 51.3542 87.148C52.0512 87.0558 52.6658 87.147 53.1824 87.4196C53.7019 87.6942 54.1936 88.1899 54.6457 88.8908L54.6942 88.9672L57.6437 87.4216L57.5971 87.3333C56.9725 86.1447 56.1149 85.2841 55.0462 84.7765Z" fill="#21111D"/>
<path d="M59.0229 95.9564C58.9684 95.9634 58.9297 96.0129 58.9376 96.0675C59.1419 97.6101 58.7939 98.9078 57.9026 99.924C57.1977 100.725 56.2053 101.293 54.9512 101.61L54.866 101.632L55.1872 104.052C55.1911 104.089 55.2149 104.118 55.2467 104.131C55.2625 104.137 55.2794 104.139 55.2982 104.137C55.3517 104.131 55.3904 104.081 55.3825 104.026L55.0851 101.78C56.3382 101.449 57.3355 100.869 58.0513 100.055C58.9822 98.9941 59.3461 97.6438 59.1339 96.0407C59.127 95.9862 59.0764 95.9485 59.0229 95.9564Z" fill="#21111D"/>
<path d="M55.2993 95.2694C55.2547 95.2376 55.1932 95.2456 55.1615 95.2892C55.1288 95.3338 55.1377 95.3953 55.1813 95.428C55.5729 95.7175 55.8049 96.118 55.8713 96.6177C55.9566 97.2591 55.79 97.7845 55.3618 98.2227C54.9325 98.6619 54.292 98.9405 53.4603 99.0515C52.7246 99.1487 52.0544 99.0297 51.4646 98.6976C50.8687 98.3625 50.2818 97.7687 49.7197 96.9329L49.6672 96.8536L46.7524 98.6421L46.801 98.7254C47.5475 100.014 48.534 100.947 49.7326 101.498C49.7901 101.525 49.8496 101.551 49.9091 101.577C50.5852 101.862 51.3317 102.032 52.1298 102.082C52.1843 102.085 52.2309 102.044 52.2349 101.989C52.2379 101.935 52.1962 101.888 52.1417 101.885C51.298 101.831 50.5178 101.643 49.8149 101.319C48.6797 100.796 47.7409 99.919 47.0211 98.7095L49.6087 97.1213C50.1728 97.9422 50.7636 98.5301 51.3674 98.8701C51.9959 99.2231 52.7078 99.3509 53.486 99.2468C54.3634 99.1309 55.0425 98.8324 55.5035 98.3605C55.9705 97.8827 56.1598 97.2878 56.0676 96.5919C55.9933 96.0367 55.7355 95.5916 55.2993 95.2694Z" fill="#21111D"/>
<path d="M71.2565 91.1403C69.9429 95.3706 65.7334 95.7722 65.7334 95.7722C65.7334 95.7722 69.5027 97.6895 69.1746 102.106C70.4892 97.8759 74.6976 97.4744 74.6976 97.4744C74.6976 97.4744 70.9283 95.558 71.2565 91.1403Z" fill="white"/>
<path d="M66.1047 116.238C61.457 114.422 56.2175 116.717 54.4013 121.365C52.585 126.013 54.8801 131.252 59.5278 133.068C64.1755 134.884 69.415 132.589 71.2312 127.941C73.0475 123.294 70.7514 118.054 66.1047 116.238Z" fill="#FFCA5D"/>
<path d="M65.6664 117.376C61.6473 115.804 57.1156 117.79 55.5452 121.809C53.9749 125.828 55.9596 130.36 59.9788 131.931C63.9989 133.502 68.5306 131.517 70.101 127.497C71.6713 123.478 69.6865 118.946 65.6664 117.376Z" fill="#F9B74B"/>
<path d="M63.0115 121.462C63.2722 121.379 63.5756 121.405 63.9196 121.54C64.2755 121.678 64.5402 121.882 64.7147 122.147C64.8902 122.415 64.9923 122.772 65.0221 123.219L66.6698 123.255C66.6836 122.559 66.5131 121.962 66.1562 121.465C65.9212 121.139 65.6089 120.861 65.2193 120.628L65.6555 119.512L64.2507 118.964L63.8135 120.082C63.2732 119.974 62.7686 120 62.2987 120.158C61.6235 120.384 61.1526 120.838 60.8869 121.519C60.7303 121.919 60.6748 122.312 60.7214 122.697C60.767 123.08 60.9107 123.437 61.1526 123.767C61.3955 124.106 61.8714 124.589 62.5812 125.215C62.6863 125.304 62.7656 125.374 62.8201 125.426C63.2246 125.785 63.4834 126.087 63.5964 126.334C63.7084 126.581 63.7144 126.835 63.6123 127.095C63.4834 127.425 63.2593 127.638 62.9381 127.735C62.6159 127.831 62.2442 127.797 61.8208 127.632C61.4461 127.485 61.1615 127.255 60.9682 126.943C60.7749 126.629 60.6539 126.204 60.6073 125.667L58.915 125.744C58.9309 126.517 59.1421 127.18 59.5485 127.731C59.7934 128.064 60.1067 128.352 60.4874 128.594L60.0185 129.794L61.4233 130.343L61.8724 129.192C62.5416 129.369 63.1463 129.36 63.6866 129.165C64.3717 128.919 64.8664 128.405 65.1708 127.626C65.3968 127.048 65.4335 126.521 65.2808 126.048C65.1281 125.574 64.7117 125.006 64.0336 124.344C63.8918 124.206 63.6936 124.019 63.4408 123.785C62.6179 123.024 62.2907 122.429 62.4573 122.002C62.5654 121.725 62.7498 121.546 63.0115 121.462Z" fill="#FFCA5D"/>
<path d="M66.1334 116.19C61.4659 114.366 56.1857 116.68 54.3625 121.346C53.4792 123.607 53.5288 126.076 54.5033 128.299C54.8186 129.02 55.2191 129.687 55.694 130.29C56.6824 131.545 57.991 132.519 59.5188 133.116C59.5456 133.127 59.5753 133.114 59.5862 133.087C59.5971 133.061 59.5832 133.03 59.5565 133.02C57.3218 132.147 55.5611 130.455 54.5985 128.257C53.6358 126.059 53.5863 123.619 54.4597 121.384C56.262 116.771 61.4818 114.484 66.0957 116.286C66.1215 116.297 66.1522 116.284 66.1622 116.257C66.1731 116.231 66.1592 116.2 66.1334 116.19Z" fill="#21111D"/>
<path d="M65.6853 117.327C65.6585 117.316 65.6288 117.33 65.6189 117.357C65.608 117.384 65.6219 117.413 65.6476 117.423C67.5789 118.178 69.1007 119.64 69.9325 121.539C70.7642 123.438 70.8069 125.547 70.0524 127.478C68.4949 131.465 63.9841 133.44 59.9977 131.883C59.9709 131.872 59.9411 131.886 59.9312 131.913C59.9243 131.93 59.9273 131.949 59.9382 131.963L59.96 131.979C63.9999 133.558 68.5703 131.556 70.1496 127.516C71.7279 123.477 69.7253 118.905 65.6853 117.327Z" fill="#21111D"/>
<path d="M62.2014 117.251C60.64 117.21 59.4552 118.361 59.4443 118.373C59.4255 118.392 59.4235 118.422 59.4394 118.442L59.4433 118.446C59.4632 118.467 59.4969 118.467 59.5167 118.446C59.5286 118.436 60.6826 117.315 62.1984 117.354C62.2272 117.355 62.251 117.332 62.252 117.303C62.252 117.276 62.2302 117.251 62.2014 117.251Z" fill="#21111D"/>
<path d="M62.6632 118.045C61.1017 118.004 59.917 119.156 59.9061 119.167C59.8863 119.186 59.8853 119.216 59.9011 119.237L59.9051 119.24C59.9249 119.261 59.9577 119.261 59.9785 119.241C59.9904 119.23 61.1444 118.109 62.6602 118.149C62.689 118.15 62.7127 118.127 62.7137 118.098C62.7137 118.07 62.6909 118.046 62.6632 118.045Z" fill="#21111D"/>
<path d="M64.2655 118.915C64.2387 118.904 64.209 118.918 64.1981 118.945L63.7767 120.023C63.2453 119.923 62.7407 119.952 62.2777 120.108C62.251 120.117 62.2361 120.147 62.245 120.173L62.254 120.189C62.2668 120.206 62.2896 120.214 62.3105 120.206C62.7695 120.052 63.2701 120.028 63.7995 120.133L63.8422 120.142L64.2952 118.983C64.3052 118.956 64.2923 118.925 64.2655 118.915Z" fill="#21111D"/>
<path d="M65.2392 120.583C65.2145 120.568 65.1827 120.576 65.1679 120.601C65.153 120.626 65.1619 120.657 65.1857 120.672C65.5684 120.9 65.8787 121.178 66.1067 121.496C66.4468 121.969 66.6163 122.542 66.6113 123.202L65.0638 123.169C65.0291 122.735 64.924 122.383 64.7515 122.12C64.571 121.844 64.2954 121.634 63.9316 121.491C63.5777 121.353 63.2604 121.327 62.9888 121.413C62.7132 121.501 62.5159 121.692 62.4029 121.983C62.3949 122.001 62.3989 122.02 62.4098 122.033L62.4316 122.05C62.4584 122.06 62.4891 122.047 62.499 122.021C62.6021 121.758 62.7726 121.591 63.0205 121.512C63.2683 121.433 63.5628 121.458 63.8939 121.588C64.2369 121.722 64.4967 121.92 64.6652 122.176C64.8338 122.434 64.9339 122.786 64.9636 123.223L64.9666 123.271L66.7134 123.308L66.7144 123.256C66.7293 122.552 66.5528 121.939 66.191 121.435C65.954 121.104 65.6338 120.819 65.2392 120.583Z" fill="#21111D"/>
<path d="M65.1675 127.578C65.1407 127.567 65.111 127.58 65.1001 127.607C64.8026 128.368 64.3139 128.876 63.6467 129.116C63.1202 129.306 62.5204 129.315 61.8631 129.143L61.8185 129.131L61.3526 130.324C61.3456 130.342 61.3496 130.361 61.3605 130.375L61.3823 130.391C61.4091 130.402 61.4388 130.389 61.4497 130.362L61.882 129.255C62.5423 129.42 63.147 129.406 63.6824 129.214C64.3783 128.963 64.8879 128.435 65.1972 127.645C65.2071 127.618 65.1942 127.588 65.1675 127.578Z" fill="#21111D"/>
<path d="M63.5529 126.287C63.5272 126.299 63.5153 126.33 63.5272 126.356C63.6332 126.588 63.6382 126.831 63.542 127.077C63.4191 127.393 63.2089 127.592 62.9006 127.685C62.5923 127.778 62.2284 127.744 61.818 127.583C61.4551 127.441 61.1776 127.217 60.9912 126.915C60.8018 126.61 60.6828 126.188 60.6372 125.662L60.6323 125.612L58.8408 125.695L58.8418 125.745C58.8577 126.526 59.0738 127.205 59.4852 127.762C59.5051 127.789 59.5249 127.816 59.5457 127.843C59.7846 128.145 60.084 128.413 60.438 128.638C60.4618 128.654 60.4945 128.646 60.5094 128.622C60.5252 128.597 60.5183 128.566 60.4935 128.551C60.1197 128.312 59.8094 128.027 59.5685 127.7C59.1799 127.173 58.9707 126.531 58.9469 125.794L60.5381 125.72C60.5886 126.241 60.7116 126.66 60.9019 126.97C61.1022 127.291 61.3966 127.53 61.7803 127.679C62.2126 127.849 62.5992 127.885 62.9313 127.785C63.2664 127.683 63.5054 127.457 63.6392 127.114C63.7453 126.842 63.7403 126.571 63.6213 126.312C63.6094 126.287 63.5787 126.275 63.5529 126.287Z" fill="#21111D"/>
<path d="M68.2963 129.194C68.2963 129.194 69.5415 131.03 68.2715 132.976C69.9469 131.366 71.9823 132.249 71.9823 132.249C71.9823 132.249 70.7371 130.412 72.0081 128.467C70.3316 130.076 68.2963 129.194 68.2963 129.194Z" fill="white"/>
<path d="M79.2729 144.966H86.6995V120.521H79.2729V144.966Z" fill="#6498D1"/>
<path d="M92.7161 144.966H100.143V113.618H92.7161V144.966Z" fill="#6498D1"/>
<path d="M107.171 144.966H114.598V105.356H107.171V144.966Z" fill="#6498D1"/>
<path d="M100.376 101.054L103.767 101.084C95.9796 108.202 89.2916 111.615 85.0147 113.229C80.2996 115.008 77.4256 115.042 77.375 115.042V115.845C77.496 115.845 80.3899 115.824 85.2447 114C88.0811 112.934 91.0028 111.469 93.9304 109.644C97.3943 107.485 100.874 104.813 104.286 101.697L104.012 105.034L104.813 105.099L105.206 100.294L100.384 100.25L100.376 101.054Z" fill="#6D492D"/>
<path d="M134.56 147.365L133.827 144.322C132.582 144.101 131.365 143.678 130.224 143.053L127.745 144.967L126.151 143.538L124.558 142.108L126.192 139.437C125.446 138.371 124.894 137.206 124.54 135.992L121.434 135.594L121.318 133.455L121.202 131.318L124.246 130.584C124.467 129.34 124.889 128.122 125.514 126.981L123.6 124.503L125.03 122.909L126.46 121.315L129.13 122.949C130.197 122.204 131.361 121.652 132.574 121.298L132.974 118.192L135.111 118.076L137.25 117.96L137.984 121.003C139.228 121.224 140.445 121.647 141.586 122.272L144.065 120.358L145.659 121.787L147.252 123.217L145.618 125.888C146.364 126.955 146.916 128.119 147.27 129.333L150.375 129.731L150.492 131.869L150.608 134.007L147.563 134.741C147.343 135.985 146.921 137.203 146.295 138.344L148.21 140.822L146.78 142.416L145.351 144.01L142.679 142.376C141.613 143.121 140.448 143.674 139.235 144.027L138.835 147.132L136.698 147.249L134.56 147.365ZM135.899 124.629C132.303 124.629 129.029 127.062 128.114 130.709C127.036 135.011 129.649 139.374 133.951 140.452C134.607 140.617 135.264 140.696 135.911 140.696C139.507 140.696 142.781 138.262 143.695 134.616C144.775 130.313 142.161 125.951 137.859 124.872C137.203 124.707 136.546 124.629 135.899 124.629Z" fill="#8CB3DF"/>
<path d="M134.168 73.1563C127.234 73.1563 121.612 78.7785 121.612 85.7124C121.612 89.1525 122.996 92.2685 125.236 94.5358H125.235C125.235 94.5358 129.035 98.5996 130.318 103.029C130.318 103.029 132.512 103.774 134.168 103.815C135.824 103.774 138.017 103.029 138.017 103.029C139.301 98.5996 143.101 94.5358 143.101 94.5358H143.1C145.341 92.2685 146.724 89.1525 146.724 85.7124C146.724 78.7785 141.102 73.1563 134.168 73.1563Z" fill="#FFCA5D"/>
<path d="M129.978 105.386C129.978 106.898 130.912 108.193 132.233 108.728C132.366 109.676 133.179 110.407 134.164 110.407C135.149 110.407 135.962 109.676 136.095 108.728C137.416 108.193 138.35 106.898 138.35 105.386V102.028H129.978V105.386Z" fill="#1971BA"/>
<path d="M138.344 102.029V102.028C139.798 98.1425 142.876 94.7718 143.083 94.5477C142.876 94.7718 139.798 98.1425 138.344 102.029Z" fill="#E7DEC9"/>
<path d="M146.719 85.6855C146.719 85.6836 146.719 85.6806 146.719 85.6786C146.719 85.6816 146.719 85.6836 146.719 85.6855ZM146.717 85.4754C146.717 85.4734 146.717 85.4724 146.717 85.4714C146.717 85.4724 146.717 85.4744 146.717 85.4754ZM146.716 85.4149C146.716 85.4139 146.716 85.4119 146.716 85.4109C146.716 85.4129 146.716 85.4139 146.716 85.4149ZM146.715 85.3842C146.715 85.3832 146.715 85.3812 146.715 85.3792C146.715 85.3812 146.715 85.3822 146.715 85.3842ZM146.699 84.9955C146.699 84.9945 146.699 84.9955 146.699 84.9945V84.9955Z" fill="#B6C7AA"/>
<path d="M138.335 102.028H130.068C129.972 101.755 129.927 101.648 129.828 101.421L129.775 101.296C128.924 99.3083 127.696 97.4921 126.74 96.233C135.094 93.8635 140.908 87.8269 144.57 78.8696C144.574 78.8776 144.58 78.8865 144.585 78.8944L144.664 78.8439C145.813 80.5986 146.534 82.6588 146.68 84.8765C146.681 84.8963 146.682 84.9152 146.684 84.935C146.684 84.936 146.684 84.936 146.684 84.936C146.685 84.9558 146.686 84.9747 146.687 84.9945C146.687 84.9955 146.687 84.9945 146.687 84.9955C146.688 85.0153 146.689 85.0342 146.69 85.054V85.055C146.691 85.0748 146.692 85.0936 146.693 85.1125C146.693 85.1135 146.693 85.1145 146.693 85.1154C146.694 85.1244 146.694 85.1343 146.695 85.1432C146.695 85.1531 146.696 85.162 146.696 85.172C146.696 85.173 146.696 85.1739 146.696 85.1759C146.696 85.1839 146.697 85.1928 146.697 85.2007C146.697 85.2017 146.697 85.2027 146.697 85.2037C146.698 85.2136 146.698 85.2225 146.698 85.2314C146.698 85.2334 146.698 85.2344 146.698 85.2354C146.699 85.2433 146.699 85.2513 146.699 85.2592C146.699 85.2612 146.699 85.2632 146.7 85.2642C146.7 85.2731 146.7 85.282 146.7 85.2909C146.701 85.2929 146.701 85.2939 146.701 85.2959C146.701 85.3038 146.701 85.3117 146.701 85.3197C146.701 85.3207 146.701 85.3227 146.702 85.3236C146.702 85.3336 146.702 85.3425 146.702 85.3514C146.702 85.3524 146.702 85.3534 146.702 85.3554C146.703 85.3633 146.703 85.3712 146.703 85.3792C146.703 85.3811 146.703 85.3831 146.703 85.3841C146.703 85.393 146.704 85.402 146.704 85.4109C146.704 85.4119 146.704 85.4139 146.704 85.4149C146.704 85.4228 146.704 85.4307 146.704 85.4386C146.705 85.4406 146.705 85.4426 146.705 85.4446C146.705 85.4535 146.705 85.4624 146.705 85.4714C146.705 85.4723 146.705 85.4733 146.705 85.4753C146.705 85.4833 146.706 85.4912 146.706 85.4991C146.706 85.5011 146.706 85.5021 146.706 85.5041C146.706 85.513 146.706 85.5229 146.706 85.5318C146.706 85.5328 146.706 85.5328 146.706 85.5338C146.706 85.5418 146.706 85.5507 146.707 85.5586C146.707 85.5606 146.707 85.5626 146.707 85.5646C146.707 85.5735 146.707 85.5824 146.707 85.5913C146.707 85.5923 146.707 85.5933 146.707 85.5943C146.707 85.6022 146.707 85.6102 146.707 85.6181C146.707 85.6211 146.707 85.623 146.707 85.625C146.707 85.6339 146.707 85.6429 146.707 85.6518C146.707 85.6528 146.707 85.6528 146.707 85.6538C146.707 85.6617 146.707 85.6706 146.707 85.6786C146.707 85.6805 146.707 85.6835 146.707 85.6855C146.707 85.6944 146.707 85.7034 146.707 85.7123C146.707 89.1524 145.324 92.2684 143.083 94.5357H143.084C143.084 94.5357 143.083 94.5357 143.083 94.5367C143.082 94.5377 143.082 94.5377 143.082 94.5377C143.081 94.5387 143.081 94.5387 143.081 94.5387C143.081 94.5387 143.081 94.5397 143.08 94.5397C143.08 94.5397 143.08 94.5407 143.079 94.5407C143.079 94.5417 143.078 94.5417 143.078 94.5427C143.077 94.5427 143.077 94.5427 143.077 94.5427C143.076 94.5446 143.075 94.5456 143.074 94.5476C142.866 94.7717 139.788 98.1424 138.334 102.028" fill="#FDB949"/>
<path d="M137.08 85.5992C137.201 86.3745 136.851 87.0338 136.449 87.1637C136.411 87.1756 136.311 87.2083 136.176 87.0041C135.832 86.4836 135.741 85.1105 136.122 84.2361C136.652 84.5454 136.988 85.0104 137.08 85.5992ZM131.919 87.0041C131.784 87.2083 131.684 87.1756 131.646 87.1637C131.244 87.0338 130.894 86.3745 131.015 85.5992C131.107 85.0104 131.443 84.5454 131.972 84.2361C132.353 85.1105 132.263 86.4836 131.919 87.0041ZM137.992 83.322C137.006 82.858 136.418 83.202 136.098 83.5718C136.053 83.6234 136.01 83.6789 135.972 83.7374C135.533 83.551 134.964 83.4291 134.229 83.4291H133.866C133.13 83.4291 132.563 83.55 132.123 83.7374C132.084 83.6789 132.042 83.6234 131.997 83.5718C131.677 83.202 131.089 82.859 130.103 83.322C128.832 83.9208 128.76 87.1815 129.886 93.2895C130.7 97.7151 131.875 102.034 131.887 102.077L132.247 101.979C132.235 101.936 131.064 97.6299 130.252 93.2201C128.843 85.5685 129.653 83.9456 130.261 83.6591C130.883 83.3666 131.373 83.4192 131.716 83.8157C131.74 83.8445 131.764 83.8752 131.787 83.9069C130.91 84.4244 130.698 85.2195 130.647 85.5407C130.507 86.429 130.905 87.3163 131.532 87.5176C131.685 87.5672 131.977 87.591 132.23 87.2093C132.631 86.6025 132.757 85.0837 132.308 84.0715C132.739 83.895 133.264 83.8018 133.866 83.8018H134.229C134.831 83.8018 135.356 83.895 135.787 84.0715C135.338 85.0837 135.463 86.6025 135.865 87.2093C136.117 87.592 136.41 87.5672 136.563 87.5176C137.19 87.3163 137.587 86.429 137.448 85.5407C137.397 85.2195 137.185 84.4244 136.308 83.9069C136.331 83.8752 136.354 83.8445 136.379 83.8157C136.722 83.4192 137.211 83.3666 137.834 83.6591C138.442 83.9456 139.252 85.5685 137.844 93.2201C137.031 97.6299 135.86 101.936 135.848 101.979L136.208 102.077C136.22 102.034 137.394 97.7151 138.209 93.2895C139.335 87.1815 139.263 83.9208 137.992 83.322Z" fill="#F99247"/>
<path d="M134.157 73.0632C127.182 73.0632 121.507 78.7379 121.507 85.7124C121.507 89.0564 122.8 92.2081 125.148 94.5904L125.157 94.6003C125.185 94.6301 128.042 97.7083 129.61 101.37L129.664 101.494C129.763 101.724 129.807 101.83 129.907 102.115L130.083 102.055C129.981 101.762 129.935 101.655 129.834 101.421L129.781 101.296C128.378 98.0196 125.951 95.2061 125.404 94.5954L125.412 94.5934L125.29 94.4704C122.972 92.1228 121.694 89.0128 121.694 85.7124C121.694 78.8401 127.285 73.2496 134.157 73.2496C138.376 73.2496 142.277 75.3602 144.591 78.8946L144.747 78.7925C142.398 75.2056 138.439 73.0632 134.157 73.0632Z" fill="#21111D"/>
<path d="M125.222 79.8641L125.401 79.9156C125.409 79.8859 126.314 76.883 129.348 75.7547L129.282 75.5803C126.16 76.7422 125.231 79.8324 125.222 79.8641Z" fill="#21111D"/>
<path d="M125.78 80.9815L125.958 81.0331C125.967 81.0033 126.872 78.0014 129.905 76.8722L129.841 76.6977C126.717 77.8596 125.789 80.9508 125.78 80.9815Z" fill="#21111D"/>
<path d="M129.874 105.261C129.874 107.367 131.588 109.083 133.696 109.083H134.609C135.618 109.083 136.57 108.693 137.288 107.985L137.159 107.852C136.475 108.525 135.568 108.896 134.609 108.896H133.696C131.691 108.896 130.059 107.265 130.059 105.261V102.121H138.338V101.935H129.874V105.261Z" fill="#21111D"/>
<path d="M132.337 108.698L132.152 108.723C132.155 108.741 132.416 110.501 134.231 110.501C134.252 110.501 134.273 110.5 134.295 110.5L134.291 110.314C132.588 110.354 132.346 108.765 132.337 108.698Z" fill="#21111D"/>
<path d="M142.654 92.5916L142.765 92.7413C144.489 91.4634 144.758 89.3319 144.76 89.3111L144.576 89.2893C144.573 89.3101 144.312 91.3623 142.654 92.5916Z" fill="#21111D"/>
<path d="M142.297 91.6975L142.408 91.8472C143.682 90.9014 143.875 89.3756 143.882 89.3112L143.698 89.2894C143.696 89.3042 143.506 90.8012 142.297 91.6975Z" fill="#21111D"/>
<path d="M129.576 103.515L129.578 103.701C129.87 103.698 136.74 103.609 139.005 102.765L138.941 102.59C136.705 103.423 129.647 103.515 129.576 103.515Z" fill="#21111D"/>
<path d="M129.576 105.088L129.579 105.275C129.896 105.269 137.362 105.12 138.833 104.332L138.746 104.168C137.313 104.935 129.654 105.087 129.576 105.088Z" fill="#21111D"/>
<path d="M129.978 106.702L129.979 106.889C130.264 106.887 136.966 106.815 138.847 105.844L138.762 105.678C136.921 106.63 130.046 106.702 129.978 106.702Z" fill="#21111D"/>
<path d="M141.6 80.0654C140.933 80.0654 140.05 79.7759 139.198 79.2267C137.77 78.3057 136.969 77.007 137.408 76.3249C137.585 76.0493 137.937 75.9174 138.388 75.9174C139.056 75.9174 139.938 76.2069 140.791 76.7561C142.218 77.6772 143.02 78.9759 142.58 79.658C142.404 79.9336 142.051 80.0654 141.6 80.0654Z" fill="#F9E5AE"/>
<path d="M132.605 132.102C132.439 131.896 132.354 131.549 132.354 131.059V129.861C132.354 129.372 132.439 129.025 132.605 128.818C132.773 128.612 133.003 128.509 133.294 128.509C133.587 128.509 133.814 128.612 133.977 128.818C134.14 129.025 134.222 129.372 134.222 129.861V131.059C134.222 131.549 134.14 131.896 133.977 132.102C133.814 132.308 133.587 132.411 133.294 132.411C133.003 132.411 132.773 132.308 132.605 132.102ZM134.563 132.63C134.867 132.287 135.02 131.763 135.02 131.059V129.861C135.02 129.149 134.867 128.625 134.563 128.29C134.258 127.956 133.835 127.788 133.294 127.788C132.754 127.788 132.328 127.956 132.019 128.29C131.711 128.625 131.556 129.149 131.556 129.861V131.059C131.556 131.763 131.711 132.287 132.019 132.63C132.328 132.974 132.754 133.146 133.294 133.146C133.835 133.146 134.258 132.974 134.563 132.63Z" fill="#9BC1F9"/>
<path d="M139.805 135.451C139.805 135.94 139.723 136.287 139.561 136.494C139.397 136.7 139.169 136.803 138.878 136.803C138.586 136.803 138.356 136.7 138.189 136.494C138.021 136.287 137.938 135.94 137.938 135.451V134.253C137.938 133.763 138.021 133.415 138.189 133.21C138.356 133.004 138.586 132.901 138.878 132.901C139.169 132.901 139.397 133.004 139.561 133.21C139.723 133.415 139.805 133.763 139.805 134.253V135.451ZM138.878 132.166C138.336 132.166 137.912 132.336 137.603 132.676C137.293 133.015 137.139 133.54 137.139 134.253V135.451C137.139 136.154 137.293 136.678 137.603 137.022C137.912 137.365 138.336 137.536 138.878 137.536C139.419 137.536 139.841 137.365 140.147 137.022C140.451 136.678 140.604 136.154 140.604 135.451V134.253C140.604 133.54 140.451 133.015 140.147 132.676C139.841 132.336 139.419 132.166 138.878 132.166Z" fill="#9BC1F9"/>
<path d="M139.334 127.956C139.334 127.904 139.3 127.879 139.231 127.879H138.574C138.506 127.879 138.454 127.895 138.419 127.93C138.386 127.964 138.338 128.028 138.279 128.123L132.895 137.241C132.861 137.284 132.844 137.336 132.844 137.395C132.844 137.464 132.886 137.498 132.973 137.498H133.603C133.672 137.498 133.723 137.479 133.758 137.441C133.793 137.402 133.835 137.336 133.887 137.241L139.27 128.123C139.313 128.037 139.334 127.982 139.334 127.956Z" fill="#9BC1F9"/>
<path d="M67.0118 31.9321C67.0118 31.9321 66.1007 28.1113 62.5714 28.5981C59.043 29.0858 59.9303 34.6208 59.9303 34.6208C59.9303 34.6208 58.8219 34.3125 58.005 34.8399C57.6283 35.0838 57.5023 35.5002 57.5707 35.8719H76.1972C76.6859 35.2256 76.9952 34.4196 77.0329 33.5293C77.0725 32.5577 76.8168 31.4126 76.0484 30.0931C73.0911 25.0072 67.1149 29.4308 67.0118 31.9321Z" fill="#D3EDEC"/>
<path d="M53.1722 52.9566C53.1722 52.9566 53.7323 42.8671 46.1114 42.1989C37.3703 41.4325 37.2642 51.3445 37.2642 51.3445C37.2642 51.3445 33.2916 47.5733 30.4265 52.3548C30.4265 52.3548 25.4745 49.4936 22.9761 54.7797C22.8978 54.9463 22.881 55.1188 22.9087 55.2804H56.7363C56.764 54.8987 56.646 54.5002 56.3337 54.168C55.7667 53.5633 54.7991 53.0706 53.1722 52.9566Z" fill="#D3EDEC"/>
<path d="M110.333 43.4114C108.134 39.7422 105.085 42.6361 105.085 42.6361C105.085 42.6361 105.004 35.0301 98.297 35.618C92.4488 36.1305 92.879 43.8734 92.879 43.8734C91.6299 43.9606 90.8873 44.3383 90.4521 44.8023C90.2131 45.0571 90.1219 45.3634 90.1438 45.6559H116.102C116.123 45.532 116.109 45.3991 116.05 45.2712C114.133 41.2154 110.333 43.4114 110.333 43.4114Z" fill="#D3EDEC"/>
<path d="M86.9032 59.3719L87.045 59.4056L87.1124 59.1231L86.9706 59.0894C86.462 58.9674 85.9207 58.8881 85.3616 58.8524L85.2168 58.8435L85.198 59.134L85.3437 59.1429C85.886 59.1776 86.4115 59.254 86.9032 59.3719Z" fill="#49263E"/>
<path d="M85.2865 64.6461C85.4233 64.1514 85.6008 63.6488 85.8139 63.1541L85.8714 63.0202L85.6047 62.9052L85.5473 63.0391C85.3291 63.5466 85.1467 64.0612 85.0069 64.5678L84.9673 64.7086L85.2478 64.7859L85.2865 64.6461Z" fill="#49263E"/>
<path d="M88.4134 59.1915C88.7673 58.8069 89.148 58.4321 89.5455 58.0772L89.6536 57.981L89.4603 57.7639L89.3512 57.8611C88.9477 58.2209 88.5591 58.6026 88.1992 58.9942L88.1011 59.1013L88.3152 59.2986L88.4134 59.1915Z" fill="#49263E"/>
<path d="M77.5941 60.7866C77.1252 61.0483 76.6632 61.3358 76.221 61.6412L76.1021 61.7244L76.2676 61.9634L76.3876 61.8801C76.8208 61.5797 77.2739 61.2972 77.7359 61.0404L77.8628 60.97L77.721 60.7162L77.5941 60.7866Z" fill="#49263E"/>
<path d="M80.5635 59.5008C80.0559 59.6624 79.5463 59.8537 79.0496 60.0699L78.9158 60.1274L79.0318 60.394L79.1646 60.3356C79.6534 60.1244 80.153 59.936 80.6517 59.7774L80.7905 59.7338L80.7023 59.4562L80.5635 59.5008Z" fill="#49263E"/>
<path d="M83.7219 58.8674C83.1965 58.9091 82.6552 58.9844 82.1179 59.0935L81.9751 59.1222L82.0326 59.4067L82.1744 59.378C82.7028 59.2719 83.2302 59.1976 83.7447 59.1579L83.8895 59.146L83.8667 58.8565L83.7219 58.8674Z" fill="#49263E"/>
<path d="M69.5482 74.0763C69.4857 74.6017 69.4372 75.1421 69.4044 75.6834L69.3955 75.8281L69.686 75.8459L69.6949 75.7002C69.7276 75.1658 69.7752 74.6305 69.8367 74.111L69.8535 73.9662L69.565 73.9325L69.5482 74.0763Z" fill="#49263E"/>
<path d="M84.9995 66.0498L84.7109 66.0191L84.6951 66.1638C84.6326 66.7398 84.6316 67.2891 84.6901 67.7957L84.707 67.9404L84.9955 67.9067L84.9786 67.763C84.9221 67.2772 84.9241 66.7498 84.9836 66.1946L84.9995 66.0498Z" fill="#49263E"/>
<path d="M69.6504 77.2964V77.1516L69.3599 77.1496L69.3589 77.2944C69.3559 77.8317 69.3668 78.374 69.3916 78.9074L69.3985 79.0521L69.689 79.0383L69.6821 78.8935C69.6573 78.3661 69.6464 77.8287 69.6504 77.2964Z" fill="#49263E"/>
<path d="M71.1977 67.8513C70.9846 68.3331 70.7883 68.8398 70.6118 69.3573L70.5642 69.4951L70.8398 69.5883L70.8864 69.4504C71.0599 68.9409 71.2542 68.4422 71.4634 67.9683L71.5219 67.8355L71.2562 67.7185L71.1977 67.8513Z" fill="#49263E"/>
<path d="M72.7804 65.0386C72.473 65.4709 72.1825 65.9309 71.9149 66.4048L71.8445 66.5317L72.0973 66.6744L72.1687 66.5475C72.4304 66.0816 72.7159 65.6305 73.0173 65.2072L73.1016 65.0882L72.8646 64.9197L72.7804 65.0386Z" fill="#49263E"/>
<path d="M74.9535 62.6365C74.551 62.9895 74.1634 63.3731 73.8025 63.7746L73.7053 63.8827L73.9215 64.077L74.0186 63.969C74.3725 63.5754 74.7513 63.2006 75.1448 62.8546L75.2539 62.7585L75.0626 62.5404L74.9535 62.6365Z" fill="#49263E"/>
<path d="M70.1535 70.9049C70.0226 71.4135 69.9066 71.9439 69.8085 72.4812L69.7827 72.625L70.0682 72.6765L70.094 72.5337C70.1912 72.0034 70.3062 71.4789 70.435 70.9773L70.4707 70.8365L70.1892 70.7641L70.1535 70.9049Z" fill="#49263E"/>
<path d="M94.99 54.7877C94.4626 54.9423 93.948 55.1198 93.4612 55.3141L93.3264 55.3686L93.4345 55.6383L93.5693 55.5838C94.0472 55.3924 94.5528 55.2189 95.0713 55.0663L95.2111 55.0256L95.1298 54.747L94.99 54.7877Z" fill="#49263E"/>
<path d="M85.4116 69.2434L85.3442 69.1155L85.0864 69.2503L85.1538 69.3792C85.4453 69.9344 85.8458 70.327 86.3435 70.5481L86.4764 70.6075L86.5943 70.3419L86.4615 70.2824C86.0253 70.089 85.6713 69.7391 85.4116 69.2434Z" fill="#49263E"/>
<path d="M91.9885 55.9964C91.5047 56.2551 91.0407 56.5416 90.6094 56.847L90.4905 56.9313L90.659 57.1682L90.777 57.0849C91.1993 56.7855 91.6534 56.506 92.1253 56.2532L92.2532 56.1838L92.1164 55.928L91.9885 55.9964Z" fill="#49263E"/>
<path d="M102.997 53.9528L102.852 53.9468L102.839 54.2373L102.984 54.2433C103.513 54.267 104.05 54.3047 104.577 54.3553L104.722 54.3682L104.749 54.0797L104.605 54.0658C104.072 54.0142 103.531 53.9766 102.997 53.9528Z" fill="#49263E"/>
<path d="M91.9931 64.669L91.7036 64.7027L91.7205 64.8475C91.7829 65.3749 91.7889 65.9033 91.7403 66.4168L91.7254 66.5616L92.0149 66.5894L92.0288 66.4446C92.0804 65.9103 92.0734 65.362 92.01 64.8128L91.9931 64.669Z" fill="#49263E"/>
<path d="M101.372 53.9231C100.828 53.9281 100.286 53.9469 99.761 53.9816L99.6162 53.9905L99.6351 54.281L99.7798 54.2711C100.299 54.2374 100.836 54.2185 101.374 54.2136L101.519 54.2126L101.517 53.9221L101.372 53.9231Z" fill="#49263E"/>
<path d="M98.1578 54.1363C97.6165 54.2066 97.0891 54.2939 96.5656 54.4009L96.4229 54.4297L96.4813 54.7142L96.6231 54.6855C97.1406 54.5804 97.6611 54.4941 98.1945 54.4247L98.3392 54.4059L98.3016 54.1184L98.1578 54.1363Z" fill="#49263E"/>
<path d="M87.1751 60.2413C86.8509 60.6776 86.5515 61.1326 86.2838 61.5926L86.2104 61.7185L86.4623 61.8643L86.5346 61.7383C86.7974 61.2883 87.0908 60.8421 87.4081 60.4138L87.4953 60.2978L87.2613 60.1244L87.1751 60.2413Z" fill="#49263E"/>
<path d="M91.1527 62.7397C91.233 62.9251 91.3073 63.1184 91.3738 63.3137L91.4204 63.4525L91.696 63.3593L91.6494 63.2215C91.58 63.0173 91.5027 62.817 91.4194 62.6237C91.2855 62.3154 91.1259 62.02 90.9465 61.7453L90.8672 61.6234L90.6243 61.782L90.7036 61.904C90.8741 62.1647 91.0248 62.4463 91.1527 62.7397Z" fill="#49263E"/>
<path d="M89.4579 70.2435C89.2031 70.3625 88.9285 70.4487 88.643 70.5003C88.4259 70.5389 88.1978 70.5578 87.9648 70.5568L87.8201 70.5558L87.8181 70.8463L87.9639 70.8473C88.2137 70.8482 88.4596 70.8284 88.6935 70.7858H88.6945C89.0048 70.7303 89.3032 70.6371 89.5808 70.5072L89.7127 70.4457L89.5898 70.182L89.4579 70.2435Z" fill="#49263E"/>
<path d="M91.412 67.9436C91.2246 68.4621 90.9738 68.9171 90.6635 69.2978L90.5723 69.4098L90.7973 69.5942L90.8895 69.4812C91.2196 69.0757 91.4873 68.5909 91.6856 68.0427L91.7342 67.9059L91.4606 67.8067L91.412 67.9436Z" fill="#49263E"/>
<path d="M88.4992 59.6287L88.3683 59.5653L88.2424 59.828L88.3733 59.8905C88.8571 60.1224 89.2983 60.407 89.6849 60.7371L89.795 60.8313L89.9843 60.6102L89.8733 60.515C89.4678 60.17 89.0058 59.8716 88.4992 59.6287Z" fill="#49263E"/>
<path d="M109.637 54.2633L108.258 56.8647L109.888 56.0795C109.888 56.0795 115.57 57.8125 115.662 57.8065C115.754 57.8015 119.144 57.5943 119.144 57.5943L115.723 55.8901L109.637 54.2633Z" fill="#4D81CE"/>
<path d="M109.636 54.2633L119.143 57.5944L109.538 50.9014L109.636 54.2633Z" fill="#1971BA"/>
<path d="M109.966 59.6505L119.136 57.5944L109.881 56.0795L109.966 59.6505Z" fill="#1971BA"/>
<path d="M0 160.566H201.71V159.038H0V160.566Z" fill="#6D492D"/>
<path d="M163.451 159.057L163.456 141.385L166.216 141.386V139.257H166.223V139.179H167.415L167.416 137.048H166.223H166.217L166.218 134.838H166.224L174.464 134.841L184.191 134.844L184.19 136.974L185.389 136.975V137.131L185.388 139.263H184.189V139.34V141.393L186.44 141.394V141.55L186.439 143.681H184.188V143.759L184.187 145.813H185.691V145.891L185.69 148.1H183.608V148.175L183.607 150.229V150.305L185.69 150.306L185.689 152.515V152.593L184.186 152.592V154.646H185.994V154.803V156.933L181.738 156.932L181.737 159.062L163.451 159.057Z" fill="#FFCA5D"/>
<path d="M185.398 139.238L185.398 137.131V136.976L185.398 139.238Z" fill="#B7C9A6"/>
<path d="M185.384 139.261L171.01 139.257V139.179L167.411 139.178L169.811 139.179L169.812 136.971L185.385 136.976V137.131L185.384 139.238V139.261Z" fill="#FFBC48"/>
<path d="M167.322 143.672L186.462 143.677L186.463 141.392L167.323 141.387L167.322 143.672Z" fill="#FFC23B"/>
<path d="M166.883 148.015L186.023 148.021V145.811L166.883 145.805V148.015Z" fill="#FFC23B"/>
<path d="M166.689 152.429L185.829 152.435L185.83 150.23L166.69 150.224L166.689 152.429Z" fill="#FFC23B"/>
<path d="M166.875 156.846L186.015 156.852L186.016 154.644L166.876 154.639L166.875 156.846Z" fill="#FFC23B"/>
<path d="M153.656 159.054L171.629 159.059L171.63 156.85L153.657 156.844L153.656 159.054Z" fill="#F9B74B"/>
<path d="M151.862 156.844L169.835 156.849L169.836 154.64L151.863 154.634L151.862 156.844Z" fill="#F9B74B"/>
<path d="M153.351 154.636L171.324 154.641V152.432L153.352 152.426L153.351 154.636Z" fill="#F9B74B"/>
<path d="M151.274 152.427L169.247 152.432L169.248 150.223L151.275 150.218L151.274 152.427Z" fill="#F9B74B"/>
<path d="M153.351 150.22L171.324 150.226L171.325 148.016L153.352 148.011L153.351 150.22Z" fill="#F9B74B"/>
<path d="M151.862 148.01L169.835 148.016V145.806L151.862 145.801V148.01Z" fill="#F9B74B"/>
<path d="M154.102 145.802L172.075 145.807L172.076 143.597L154.103 143.592L154.102 145.802Z" fill="#F9B74B"/>
<path d="M151.862 143.591L169.835 143.597L169.836 141.387L151.863 141.383L151.862 143.591Z" fill="#F9B74B"/>
<path d="M153.045 141.382L171.019 141.388L171.019 139.179L153.046 139.174L153.045 141.382Z" fill="#F9B74B"/>
<path d="M151.862 139.173L169.835 139.178L169.836 136.969L151.863 136.964L151.862 139.173Z" fill="#F9B74B"/>
<path d="M161.923 156.847L153.678 156.844H151.929L161.922 156.847C161.922 156.847 161.922 156.847 161.923 156.847Z" fill="#4C6F85"/>
<path d="M153.358 150.219L151.281 150.218H153.358V150.219Z" fill="#E6D0A5"/>
<path d="M154.385 148.011H153.36L151.929 148.01L154.385 148.011Z" fill="#E6D0A5"/>
<path d="M161.902 159.056L153.663 159.054V157.699V156.844L161.909 156.847C162.237 156.85 162.503 157.134 162.502 157.482V157.702V158.422C162.502 158.772 162.233 159.056 161.902 159.056Z" fill="#F69D30"/>
<path d="M161.922 156.847L151.929 156.844H151.869V154.634H151.93L153.367 154.635L161.301 154.637C160.972 154.641 160.708 154.924 160.708 155.272V156.212C160.708 156.562 160.975 156.846 161.307 156.846L161.917 156.847C161.918 156.847 161.92 156.847 161.922 156.847Z" fill="#F69D30"/>
<path d="M161.596 154.637H161.291C161.289 154.637 161.286 154.637 161.284 154.637L153.351 154.635H153.357L153.358 152.427L160.708 152.429C160.71 152.429 160.711 152.429 160.712 152.429L161.597 152.43C161.927 152.43 162.196 152.714 162.196 153.065V154.003C162.196 154.353 161.927 154.637 161.596 154.637Z" fill="#F69D30"/>
<path d="M160.715 152.43L153.365 152.428L151.281 152.427L151.282 150.218L153.359 150.219V150.22L160.674 150.223C160.364 150.247 160.121 150.521 160.121 150.855V151.794C160.121 152.144 160.386 152.428 160.715 152.43Z" fill="#F69D30"/>
<path d="M160.665 150.223L153.351 150.22V150.218L153.358 150.219V148.011H154.383L157.099 148.012L160.496 148.013H161.606C161.933 148.019 162.196 148.302 162.196 148.649V149.586C162.196 149.936 161.927 150.221 161.596 150.221H160.712C160.696 150.221 160.68 150.221 160.665 150.223Z" fill="#F69D30"/>
<path d="M161.647 145.804H161.381L157.102 145.802L161.647 145.804Z" fill="#B5BA8C"/>
<path d="M161.29 143.594L157.102 143.593L161.288 143.594C161.289 143.594 161.289 143.594 161.29 143.594Z" fill="#B5BA8C"/>
<path d="M154.396 143.592H154.12L152.048 143.591L154.396 143.592Z" fill="#E6D0A5"/>
<path d="M161.293 139.176L157.102 139.175L161.289 139.176C161.29 139.176 161.292 139.176 161.293 139.176Z" fill="#B5BA8C"/>
<path d="M154.383 139.173H153.055L151.914 139.172L154.383 139.173Z" fill="#E6D0A5"/>
<path d="M161.622 148.013H160.511L157.115 148.012L154.398 148.011L151.943 148.01H151.869L151.87 145.801H152.261L154.115 145.802H156.123H157.115L161.394 145.804H161.309H161.308C160.977 145.804 160.709 146.088 160.709 146.438V147.378C160.708 147.728 160.976 148.013 161.308 148.013H161.613C161.616 148.013 161.619 148.013 161.622 148.013Z" fill="#F69D30"/>
<path d="M162.348 145.804H161.647L157.102 145.802H156.111H154.102H154.108L154.109 143.592H154.386L157.102 143.593L161.29 143.594C161.292 143.594 161.294 143.594 161.296 143.594L162.349 143.595C162.679 143.595 162.948 143.88 162.948 144.23V145.17C162.948 145.52 162.679 145.804 162.348 145.804Z" fill="#F69D30"/>
<path d="M161.3 143.594L157.114 143.593L154.397 143.592L152.049 143.591H151.869L151.87 141.382H151.928H153.063L161.313 141.385C161.311 141.385 161.31 141.385 161.309 141.385C160.977 141.385 160.709 141.669 160.709 142.02V142.959C160.709 143.307 160.972 143.589 161.3 143.594Z" fill="#F69D30"/>
<path d="M161.296 141.385L153.045 141.382H153.051L153.052 139.173H154.38L157.096 139.174L161.287 139.175C161.288 139.175 161.29 139.175 161.292 139.175C161.623 139.175 161.891 139.46 161.891 139.811V140.75C161.891 141.098 161.624 141.382 161.296 141.385Z" fill="#F69D30"/>
<path d="M160.105 136.966L157.102 136.965L160.099 136.966C160.101 136.966 160.103 136.966 160.105 136.966Z" fill="#B5BA8C"/>
<path d="M161.299 139.176L157.112 139.175L154.395 139.174L151.927 139.173H151.869V136.964L154.395 136.965H157.112L160.115 136.966C160.443 136.97 160.709 137.252 160.708 137.601V138.54C160.708 138.888 160.971 139.171 161.299 139.176Z" fill="#F69D30"/>
<path d="M153.053 139.251L171.02 139.257V139.1L153.053 139.095V139.251Z" fill="black"/>
<path d="M169.836 141.466V141.31L151.869 141.304V141.46L169.836 141.466Z" fill="black"/>
<path d="M154.11 143.67L172.077 143.675V143.52L154.11 143.514V143.67Z" fill="black"/>
<path d="M151.869 145.88L169.836 145.885V145.729L151.869 145.723V145.88Z" fill="black"/>
<path d="M153.358 148.089L171.325 148.094V147.938L153.358 147.933V148.089Z" fill="black"/>
<path d="M151.281 150.295L169.248 150.301V150.145L151.281 150.139V150.295Z" fill="black"/>
<path d="M151.281 152.505L169.248 152.51V152.354L151.281 152.349V152.505Z" fill="black"/>
<path d="M153.351 154.713L171.318 154.719V154.562L153.351 154.557V154.713Z" fill="black"/>
<path d="M153.663 156.923L171.63 156.928V156.772L153.663 156.767V156.923Z" fill="black"/>
<path d="M175.264 159.06L193.443 159.066V156.856L175.265 156.851L175.264 159.06Z" fill="#F9B74B"/>
<path d="M173.456 156.85L191.635 156.856V154.646L173.457 154.641L173.456 156.85Z" fill="#F9B74B"/>
<path d="M174.959 154.641L193.138 154.646V152.437L174.96 152.432L174.959 154.641Z" fill="#F9B74B"/>
<path d="M172.86 152.433L191.039 152.438V150.229L172.861 150.223L172.86 152.433Z" fill="#F9B74B"/>
<path d="M174.959 150.227L193.137 150.232L193.138 148.023L174.959 148.017V150.227Z" fill="#F9B74B"/>
<path d="M173.456 148.017L191.634 148.022L191.635 145.813L173.456 145.807V148.017Z" fill="#F9B74B"/>
<path d="M175.718 145.808L193.897 145.813L193.898 143.604L175.719 143.599L175.718 145.808Z" fill="#F9B74B"/>
<path d="M182.987 156.853L175.281 156.851L173.529 156.85L182.987 156.853Z" fill="#FCAD3C"/>
<path d="M183.605 159.063C183.604 159.063 183.604 159.063 183.604 159.063L175.272 159.06V157.706V156.851L182.977 156.853C182.981 156.853 182.985 156.853 182.988 156.853H183.345H183.614C183.945 156.859 184.211 157.141 184.211 157.489V157.708V158.428C184.211 158.779 183.94 159.063 183.605 159.063Z" fill="#F69D30"/>
<path d="M183.635 156.853H183.372H183.626C183.629 156.853 183.632 156.853 183.635 156.853ZM182.997 156.853L173.539 156.85H173.463V154.641H173.536H174.978L182.207 154.643L183.322 154.644C183.32 154.644 183.319 154.644 183.317 154.644L183.009 154.643C182.674 154.643 182.402 154.928 182.402 155.279V156.218C182.402 156.565 182.668 156.847 182.997 156.853Z" fill="#F69D30"/>
<path d="M183.304 154.644L182.188 154.643L174.959 154.641H174.966V152.433L183.308 152.436C183.639 152.441 183.905 152.724 183.905 153.072V154.009C183.905 154.358 183.637 154.641 183.304 154.644Z" fill="#F69D30"/>
<path d="M183.316 152.437L174.974 152.434H172.867V150.224H172.922L174.969 150.225V150.227L182.366 150.229C182.054 150.254 181.808 150.528 181.807 150.862V151.801C181.807 152.152 182.079 152.437 182.414 152.437H183.308C183.311 152.437 183.314 152.437 183.316 152.437Z" fill="#F69D30"/>
<path d="M184.074 145.811L180.534 145.81L173.463 145.807L175.733 145.808L184.078 145.811C184.077 145.811 184.076 145.811 184.074 145.811Z" fill="#FCAD3C"/>
<path d="M182.356 150.229L174.959 150.227V150.225H174.965L174.966 148.017L182.986 148.02C182.987 148.02 182.989 148.02 182.99 148.02H183.299C183.634 148.02 183.905 148.304 183.905 148.655L183.904 149.592C183.904 149.943 183.633 150.227 183.299 150.227H182.403C182.388 150.227 182.372 150.228 182.356 150.229Z" fill="#F69D30"/>
<path d="M183.005 148.02L174.985 148.017H173.463L173.464 145.807L180.535 145.81L184.075 145.811C184.075 145.811 184.075 145.811 184.074 145.811L183.01 145.81H183.009C182.675 145.81 182.403 146.095 182.403 146.446V147.384C182.403 147.733 182.672 148.017 183.005 148.02Z" fill="#F69D30"/>
<path d="M184.063 145.811L175.718 145.808H175.724L175.725 143.599H176.368L184.059 143.601C184.394 143.601 184.665 143.886 184.665 144.237V145.176C184.665 145.525 184.395 145.808 184.063 145.811Z" fill="#F69D30"/>
<path d="M175.726 143.676L193.898 143.682V143.526L175.726 143.521V143.676Z" fill="black"/>
<path d="M173.463 145.885L191.635 145.89V145.735L173.463 145.73V145.885Z" fill="black"/>
<path d="M174.967 148.095L193.139 148.1V147.944L174.967 147.939V148.095Z" fill="black"/>
<path d="M172.867 150.302L191.04 150.307V150.151L172.867 150.146V150.302Z" fill="black"/>
<path d="M172.867 152.511L191.04 152.517V152.361L172.867 152.355V152.511Z" fill="black"/>
<path d="M174.967 154.72L193.139 154.725V154.569L174.967 154.563V154.72Z" fill="black"/>
<path d="M175.272 156.928L193.444 156.934V156.778L175.272 156.773V156.928Z" fill="black"/>
<path d="M191.624 146.663C191.728 147.634 192.574 147.895 192.574 147.895C192.574 147.895 191.728 148.155 191.623 149.127C191.519 148.155 190.672 147.894 190.672 147.894C190.672 147.894 191.519 147.634 191.624 146.663Z" fill="white"/>
<path d="M178.761 142.406C178.865 143.377 179.711 143.638 179.711 143.638C179.711 143.638 178.865 143.899 178.76 144.87C178.655 143.899 177.81 143.638 177.81 143.638C177.81 143.638 178.655 143.377 178.761 142.406Z" fill="white"/>
<path d="M182.505 135.902C182.61 136.874 183.455 137.135 183.455 137.135C183.455 137.135 182.609 137.395 182.505 138.366C182.4 137.395 181.554 137.134 181.554 137.134C181.554 137.134 182.4 136.874 182.505 135.902Z" fill="white"/>
<path d="M174.119 139.991C174.158 140.357 174.476 140.455 174.476 140.455C174.476 140.455 174.157 140.552 174.119 140.917C174.079 140.552 173.761 140.454 173.761 140.454C173.761 140.454 174.079 140.357 174.119 139.991Z" fill="white"/>
<path d="M153.733 133.855C153.806 134.534 154.398 134.716 154.398 134.716C154.398 134.716 153.806 134.899 153.733 135.578C153.66 134.899 153.068 134.716 153.068 134.716C153.068 134.716 153.66 134.534 153.733 133.855Z" fill="white"/>
<path d="M160.09 149.155C160.18 149.995 160.912 150.221 160.912 150.221C160.912 150.221 160.18 150.446 160.09 151.285C160 150.446 159.268 150.22 159.268 150.22C159.268 150.22 160 149.995 160.09 149.155Z" fill="white"/>
<path d="M185.403 150.632C185.467 151.226 185.985 151.386 185.985 151.386C185.985 151.386 185.467 151.545 185.403 152.14C185.339 151.545 184.822 151.386 184.822 151.386C184.822 151.386 185.339 151.226 185.403 150.632Z" fill="white"/>
<path d="M164.965 139.843C165.012 140.28 165.392 140.397 165.392 140.397C165.392 140.397 165.012 140.514 164.964 140.95C164.918 140.514 164.538 140.397 164.538 140.397C164.538 140.397 164.918 140.28 164.965 139.843Z" fill="white"/>
<path d="M165.532 152.902C165.599 153.514 166.132 153.679 166.132 153.679C166.132 153.679 165.599 153.843 165.532 154.456C165.467 153.843 164.933 153.679 164.933 153.679C164.933 153.679 165.467 153.514 165.532 152.902Z" fill="white"/>
</svg>
