<svg width="80" height="80" viewBox="0 0 80 80" fill="none" xmlns="http://www.w3.org/2000/svg">
<g id="choose-qbatch-as-your-growth-partner_optimal-r-and-d 1" clip-path="url(#clip0_6034_17483)">
<g id="Group">
<path id="Vector" d="M53.4 51.5V44.8L46.1 42.6C45.6 41.1 45.1 39.6 44.3 38.3L48 31.6L43.2 27L36.5 30.7C35.2 29.9 33.7 29.4 32.2 28.9L30 21.5H23.3L21.1 28.8C19.6 29.3 18.1 29.8 16.8 30.6L10.2 27L5.5 31.7L9.2 38.4C8.4 39.7 7.9 41.2 7.4 42.7L0 44.9V51.6L7.3 53.8C7.6 55.3 8.3 56.8 9.1 58.1L5.4 64.8L10.1 69.5L16.8 65.8C18.1 66.6 19.6 67.1 21.1 67.6L23.3 74.9H30L32.2 67.6C33.7 67.1 35.2 66.6 36.5 65.8L43.2 69.5L47.9 64.8L44.2 58.1C45 56.8 45.5 55.3 46 53.8L53.4 51.5ZM26.7 58.1C21.2 58.1 16.9 53.6 16.9 48.3C16.9 42.8 21.4 38.5 26.7 38.5C32.2 38.5 36.5 42.8 36.5 48.3C36.6 53.6 32.2 58.1 26.7 58.1Z" fill="#D2D9DC"/>
<path id="Vector_2" d="M73.0992 26L74.7992 21.8L70.7992 18.6C70.9992 17.6 70.9992 16.4 70.7992 15.4L74.7992 12.2L73.0992 8L68.0992 8.7C67.3992 7.9 66.7992 7.2 65.8992 6.5L66.3992 1.5L62.2992 0L59.0992 4C58.0992 3.8 56.8992 3.8 55.8992 4L52.5992 0L48.3992 1.7L49.0992 6.7C48.2992 7.4 47.5992 8 46.8992 8.9L41.8992 8.4L40.1992 12.6L44.1992 15.8C43.9992 16.8 43.9992 18 44.1992 19L40.1992 22.2L41.8992 26.4L46.8992 25.7C47.5992 26.5 48.1992 27.2 49.0992 27.9L48.5992 32.9L52.7992 34.6L55.9992 30.6C56.9992 30.8 58.1992 30.8 59.1992 30.6L62.3992 34.6L66.5992 32.9L65.8992 27.9C66.6992 27.2 67.3992 26.6 68.0992 25.7L73.0992 26ZM54.8992 23.3C51.5992 22 49.8992 18.1 51.1992 14.8C52.4992 11.5 56.3992 9.8 59.6992 11.1C62.9992 12.4 64.6992 16.3 63.3992 19.6C62.2992 23 58.3992 24.7 54.8992 23.3Z" fill="#0054A6"/>
<path id="Vector_3" d="M58.3008 64.2002L61.9008 67.9002L67.9008 61.9002L64.3008 58.2002L58.3008 64.2002Z" fill="#5F737C"/>
<path id="Vector_4" d="M62.0992 62.1002C53.5992 70.6002 39.6992 70.6002 31.1992 62.1002C22.6992 53.6002 22.6992 39.7002 31.1992 31.2002C39.6992 22.7002 53.5992 22.7002 62.0992 31.2002C70.5992 39.7002 70.5992 53.6002 62.0992 62.1002ZM34.8992 34.9002C28.5992 41.2002 28.5992 51.8002 34.8992 58.3002C41.1992 64.8002 51.7992 64.6002 58.0992 58.3002C64.3992 52.0002 64.3992 41.4002 58.0992 34.9002C51.6992 28.3002 41.3992 28.5002 34.8992 34.9002Z" fill="#839299"/>
<path id="Vector_5" d="M61.7997 71.2002L68.4997 77.9002C70.9997 80.4002 74.9997 80.7002 77.6997 78.6002C80.6997 76.1002 80.8997 71.4002 78.1997 68.8002L71.1997 61.8002C70.3997 61.0002 68.8997 61.0002 67.8997 61.8002L61.8997 68.0002C60.8997 68.9002 60.8997 70.4002 61.7997 71.2002Z" fill="#ED1C24"/>
<path id="Vector_6" opacity="0.19" d="M34.9008 34.8997C28.6008 41.1997 28.6008 51.7997 34.9008 58.2997C41.2008 64.7997 51.8008 64.5997 58.1008 58.2997C64.4008 51.9997 64.4008 41.3997 58.1008 34.8997C51.7008 28.2997 41.4008 28.4997 34.9008 34.8997Z" fill="#F9FAFB"/>
</g>
</g>
<defs>
<clipPath id="clip0_6034_17483">
<rect width="80" height="80" fill="white"/>
</clipPath>
</defs>
</svg>
