<svg width="48" height="48" viewBox="0 0 48 48" fill="none" xmlns="http://www.w3.org/2000/svg">
<g clip-path="url(#clip0_5648_11181)">
<path d="M23.9992 18.9C18.2992 18.9 13.6992 23.5 13.6992 29.2C13.6992 34.9 18.2992 39.5 23.9992 39.5C29.6992 39.5 34.2992 34.9 34.2992 29.2C34.2992 23.5 29.6992 18.9 23.9992 18.9ZM23.9992 36C20.1992 36 17.0992 32.9 17.0992 29.1C17.0992 25.3 20.1992 22.2 23.9992 22.2C27.7992 22.2 30.8992 25.3 30.8992 29.1C30.8992 32.9 27.7992 36 23.9992 36Z" fill="#ED1C24"/>
<path d="M48.0004 43.7L42.9004 39.4V41.1H24.0004C17.4004 41.1 12.0004 35.7 12.0004 29.1C12.0004 22.5 17.4004 17.1 24.0004 17.1C30.6004 17.1 36.0004 22.5 36.0004 29.1C36.0004 33.5 33.6004 37.3 30.1004 39.4H37.6004C39.1004 37.4 40.2004 35.1 40.7004 32.5H44.5004V25.6H40.7004C40.3004 23.4 39.4004 21.4 38.2004 19.6L41.0004 17L36.2004 12.2L33.5004 14.9C31.7004 13.7 29.7004 12.8 27.5004 12.4V8.59998H20.6004V12.4C18.4004 12.8 16.4004 13.7 14.6004 14.9L11.9004 12.2L7.00039 17L9.70039 19.7C8.50039 21.5 7.60039 23.5 7.20039 25.7H3.40039V32.6H7.20039C8.80039 40.4 15.7004 46.3 24.0004 46.3H42.9004V48L48.0004 43.7Z" fill="#0054A6"/>
<path d="M9.5 41.1H0V46.2H16.2C13.6 45.1 11.3 43.3 9.5 41.1Z" fill="#0054A6"/>
<path d="M24.0004 24C21.2004 24 18.9004 26.3 18.9004 29.1H20.6004C20.6004 27.2 22.1004 25.7 24.0004 25.7C25.9004 25.7 27.4004 27.2 27.4004 29.1H29.1004C29.1004 26.3 26.8004 24 24.0004 24Z" fill="#FFDD33"/>
<path d="M24.0008 30.8C24.9397 30.8 25.7008 30.0389 25.7008 29.1C25.7008 28.1611 24.9397 27.4 24.0008 27.4C23.0619 27.4 22.3008 28.1611 22.3008 29.1C22.3008 30.0389 23.0619 30.8 24.0008 30.8Z" fill="#839299"/>
<path d="M23.9998 29.5999C23.8998 29.5999 23.8998 29.5999 23.7998 29.5999C23.5998 29.4999 23.4998 29.1999 23.5998 28.9999L25.2998 25.5999C25.3998 25.3999 25.6998 25.2999 25.8998 25.3999C26.0998 25.4999 26.1998 25.7999 26.0998 25.9999L24.3998 29.3999C24.2998 29.4999 24.1998 29.5999 23.9998 29.5999Z" fill="#839299"/>
<path d="M32.5996 1.7V12L33.7996 10.8C34.0996 10.5 34.5996 10.3 34.9996 10.3H46.2996C47.1996 10.3 47.9996 9.5 47.9996 8.6V1.7C47.9996 0.8 47.1996 0 46.2996 0H34.2996C33.2996 0 32.5996 0.8 32.5996 1.7Z" fill="#54CC5A"/>
<path d="M36.9 5.99995C36.4 5.99995 36 5.59995 36 5.09995C36 4.59995 36.4 4.19995 36.9 4.19995C37.4 4.19995 37.8 4.59995 37.8 5.09995C37.7 5.59995 37.3 5.99995 36.9 5.99995Z" fill="#F9FAFB"/>
<path d="M40.3004 5.99995C39.8004 5.99995 39.4004 5.59995 39.4004 5.09995C39.4004 4.59995 39.8004 4.19995 40.3004 4.19995C40.8004 4.19995 41.2004 4.59995 41.2004 5.09995C41.1004 5.59995 40.8004 5.99995 40.3004 5.99995Z" fill="#F9FAFB"/>
<path d="M43.7008 5.99995C43.2008 5.99995 42.8008 5.59995 42.8008 5.09995C42.8008 4.59995 43.2008 4.19995 43.7008 4.19995C44.2008 4.19995 44.6008 4.59995 44.6008 5.09995C44.6008 5.59995 44.2008 5.99995 43.7008 5.99995Z" fill="#F9FAFB"/>
</g>
<defs>
<clipPath id="clip0_5648_11181">
<rect width="48" height="48" fill="white"/>
</clipPath>
</defs>
</svg>
