<svg width="573" height="460" viewBox="0 0 573 460" fill="none" xmlns="http://www.w3.org/2000/svg">
<path d="M286.5 374.09C397.829 374.09 488.08 369.492 488.08 363.82C488.08 358.148 397.829 353.55 286.5 353.55C175.17 353.55 84.9199 358.148 84.9199 363.82C84.9199 369.492 175.17 374.09 286.5 374.09Z" fill="#D2D9DC"/>
<path d="M254.45 285.3L247.13 350.92H332.03L320.97 285.3H254.45Z" fill="#5F737C"/>
<path d="M350.31 364.35H226.07C222.69 364.35 220.16 361.95 220.81 359.37L222.4 353.07C222.88 351.17 224.97 349.78 227.44 349.7L347.21 345.96C349.8 345.88 352.09 347.25 352.65 349.22L355.52 359.26C356.29 361.87 353.74 364.35 350.31 364.35Z" fill="#839299"/>
<path d="M97.7198 304.22C97.4898 304.22 97.2998 304.03 97.2998 303.8C97.2998 303.57 97.4898 303.38 97.7198 303.38L481.72 303.09C481.95 303.09 482.14 303.28 482.14 303.51C482.14 303.74 481.95 303.93 481.72 303.93L97.7198 304.22Z" fill="#002548"/>
<path d="M466.48 312.95H106.52C92.98 312.95 82 301.97 82 288.43V110.43C82 96.8902 92.98 85.9102 106.52 85.9102H466.48C480.02 85.9102 491 96.8902 491 110.43V288.43C491 301.97 480.02 312.95 466.48 312.95Z" fill="#839299"/>
<path d="M465.69 299.18H107.31C100.25 299.18 94.52 293.46 94.52 286.39V112.47C94.52 105.41 100.24 99.6802 107.31 99.6802H465.7C472.76 99.6802 478.49 105.4 478.49 112.47V286.39C478.48 293.45 472.75 299.18 465.69 299.18Z" fill="#D2D9DC"/>
<path d="M113.27 299.19L112.31 291.77C111.09 286.71 117.28 281.87 122.48 281.83L335.24 280.09C340.65 280.05 345.05 284.42 345.05 289.82V298.64L113.27 299.19Z" fill="#F9FAFB"/>
<path d="M355.23 299.19L354.75 291.77C354.15 286.71 357.21 281.87 359.78 281.83L465.06 280.09C467.73 280.05 469.91 284.42 469.91 289.82V291.54C469.91 295.46 466.74 298.65 462.82 298.67L355.23 299.19Z" fill="#F9FAFB"/>
<path d="M343.35 165.25L460.16 163.28C464.86 163.2 468.64 167.23 468.36 172.04L464.34 241.18C464.12 244.96 461.08 247.93 457.37 247.97L345.09 249.08C342.32 249.11 340.03 246.87 339.92 244.03L337.23 171.86C337.1 168.3 339.86 165.31 343.35 165.25Z" fill="#F9FAFB"/>
<path d="M345.14 167.01L458.9 165.13C463.48 165.05 467.16 168.89 466.88 173.46L462.96 239.24C462.75 242.84 459.78 245.66 456.17 245.7L346.82 246.76C344.12 246.79 341.89 244.66 341.78 241.96L339.16 173.3C339.05 169.91 341.74 167.07 345.14 167.01Z" fill="#0054A6"/>
<path d="M347.27 169.28L455.6 167.49C459.96 167.42 463.46 171.07 463.2 175.43L459.47 238.07C459.27 241.5 456.44 244.18 453.01 244.22L348.88 245.23C346.31 245.25 344.18 243.23 344.08 240.66L341.59 175.28C341.47 172.04 344.03 169.33 347.27 169.28Z" fill="#F9FAFB"/>
<path d="M459.17 165.08L344.93 166.97C341.52 167.03 338.82 169.88 338.95 173.29L339.13 178.13H466.9L467.18 173.45C467.46 168.86 463.76 165.01 459.17 165.08Z" fill="#0054A6"/>
<path d="M348.52 169.31C348.52 169.88 348.06 170.34 347.49 170.34C346.92 170.34 346.46 169.88 346.46 169.31C346.46 168.74 346.92 168.28 347.49 168.28C348.06 168.28 348.52 168.74 348.52 169.31Z" fill="#D2D9DC"/>
<path d="M348.52 172.32C348.52 172.89 348.06 173.35 347.49 173.35C346.92 173.35 346.46 172.89 346.46 172.32C346.46 171.75 346.92 171.29 347.49 171.29C348.06 171.29 348.52 171.75 348.52 172.32Z" fill="#D2D9DC"/>
<path d="M348.52 175.33C348.52 175.9 348.06 176.36 347.49 176.36C346.92 176.36 346.46 175.9 346.46 175.33C346.46 174.76 346.92 174.3 347.49 174.3C348.06 174.3 348.52 174.76 348.52 175.33Z" fill="#D2D9DC"/>
<path d="M401.82 189.12C401.81 190.44 400.74 191.5 399.42 191.49C398.1 191.48 397.04 190.41 397.05 189.09C397.06 187.77 398.13 186.71 399.45 186.72C400.77 186.72 401.83 187.8 401.82 189.12Z" fill="#839299"/>
<path d="M401.74 189.12C401.73 190.39 400.69 191.42 399.42 191.41C398.15 191.4 397.12 190.36 397.13 189.09C397.14 187.82 398.18 186.79 399.45 186.8C400.73 186.8 401.75 187.84 401.74 189.12Z" fill="#839299"/>
<path d="M397.54 188.13C397.9 187.44 398.62 186.97 399.45 186.97C399.58 186.97 399.71 186.98 399.83 187.01L397.54 188.13Z" fill="#839299"/>
<path d="M405.49 188.99L405.5 189.4C405.53 190.5 406.22 191.37 407.06 191.38L453.49 191.48C454.36 191.48 455.06 190.56 455.06 189.43C455.06 188.32 454.38 187.41 453.53 187.38L407.09 186.88C406.19 186.85 405.46 187.82 405.49 188.99Z" fill="#839299"/>
<path d="M451.5 231.51L351.83 233.28C350.08 233.31 348.76 234.88 349.04 236.61L349.48 239.36C349.7 240.76 350.92 241.79 352.33 241.78L451.12 241.39C452.59 241.38 453.82 240.28 453.97 238.82L454.41 234.69C454.6 232.97 453.23 231.48 451.5 231.51Z" fill="#002548"/>
<path d="M408.38 220.54H435.77V201.52C435.77 200.58 435.01 199.81 434.06 199.81H410.88C409.5 199.81 408.37 200.93 408.37 202.32V220.54H408.38Z" fill="#002548"/>
<path d="M410.43 220.16H435.77V199.44H412.94C411.56 199.44 410.43 200.56 410.43 201.95V220.16Z" fill="#0054A6"/>
<path d="M377.699 189.734H378.829V179.334H377.699V189.734Z" fill="#839299"/>
<path d="M376.83 180.06H379.9C379.9 179.66 379.58 179.34 379.18 179.34H377.55C377.16 179.34 376.83 179.66 376.83 180.06Z" fill="#839299"/>
<path d="M380.954 192.295H382.954V186.975H380.954V192.295Z" fill="#839299"/>
<path d="M366.273 192.295H368.273V186.975H366.273V192.295Z" fill="#839299"/>
<path d="M388.92 203.9H362.89V218.73H388.92V203.9Z" fill="#0054A6"/>
<path d="M365.04 204.01H384.83V189.61C384.83 189.37 384.64 189.18 384.4 189.18H365.04V204.01Z" fill="#0054A6"/>
<path d="M362.95 205.09H388.56C389.07 205.09 389.49 204.67 389.49 204.16V203.85C389.49 203.34 389.07 202.92 388.56 202.92H362.95C362.44 202.92 362.02 203.34 362.02 203.85V204.16C362.02 204.68 362.44 205.09 362.95 205.09Z" fill="#002548"/>
<path d="M369.52 191.39H367.27V195.79H369.52V191.39Z" fill="#002548"/>
<path d="M373.41 191.39H371.16V195.79H373.41V191.39Z" fill="#002548"/>
<path d="M378.01 191.39H375.76V195.79H378.01V191.39Z" fill="#002548"/>
<path d="M381.89 191.39H379.64V195.79H381.89V191.39Z" fill="#002548"/>
<path d="M370.85 207.54H368.6V211.94H370.85V207.54Z" fill="#002548"/>
<path d="M374.73 207.54H372.48V211.94H374.73V207.54Z" fill="#002548"/>
<path d="M379.33 207.54H377.08V211.94H379.33V207.54Z" fill="#002548"/>
<path d="M383.22 207.54H380.97V211.94H383.22V207.54Z" fill="#002548"/>
<path d="M440.03 225.08C435.07 227.46 430.5 230.03 429.1 233.57L370.6 233.89L368.45 225.49C367.95 223.53 366.35 221.88 364.13 220.99C356.96 218.14 351.38 216 351.72 211.59L389.87 211.24C390.13 211.24 390.37 211.41 390.45 211.66L391 213.35C391.67 215.39 393.93 216.83 396.55 216.88L430.26 217.51L431.55 215.22C431.65 215.03 431.85 214.92 432.07 214.92L445.46 214.97C445.74 214.97 445.91 215.27 445.77 215.51L440.03 225.08Z" fill="#F9FAFB"/>
<path d="M440.03 226.42C435.07 228.8 430.5 233.23 429.1 236.77L370.6 237.09L368.45 226.83C367.95 224.87 366.35 223.22 364.13 222.33C356.96 219.48 352.11 216.36 351.72 212.93L389.08 212.41C389.32 212.41 389.53 212.54 389.63 212.76L390.61 214.98C391.57 217.11 393.95 218.17 396.57 218.22L430.28 218.85L431.52 216.65C431.66 216.41 431.91 216.26 432.19 216.25L445.49 216.11L440.03 226.42Z" fill="#839299"/>
<path d="M428.82 225.22C427.77 225.22 426.91 224.36 426.91 223.31C426.91 222.26 427.77 221.4 428.82 221.4C429.87 221.4 430.73 222.26 430.73 223.31C430.73 224.36 429.87 225.22 428.82 225.22ZM428.82 221.84C428.01 221.84 427.35 222.5 427.35 223.31C427.35 224.12 428.01 224.78 428.82 224.78C429.63 224.78 430.29 224.12 430.29 223.31C430.28 222.5 429.62 221.84 428.82 221.84Z" fill="#0054A6"/>
<path d="M422.73 225.22C421.68 225.22 420.82 224.36 420.82 223.31C420.82 222.26 421.68 221.4 422.73 221.4C423.78 221.4 424.64 222.26 424.64 223.31C424.64 224.36 423.79 225.22 422.73 225.22ZM422.73 221.84C421.92 221.84 421.26 222.5 421.26 223.31C421.26 224.12 421.92 224.78 422.73 224.78C423.54 224.78 424.2 224.12 424.2 223.31C424.2 222.5 423.54 221.84 422.73 221.84Z" fill="#0054A6"/>
<path d="M417.27 225.07C416.22 225.07 415.36 224.21 415.36 223.16C415.36 222.11 416.22 221.25 417.27 221.25C418.32 221.25 419.18 222.11 419.18 223.16C419.19 224.22 418.33 225.07 417.27 225.07ZM417.27 221.7C416.46 221.7 415.8 222.36 415.8 223.17C415.8 223.98 416.46 224.64 417.27 224.64C418.08 224.64 418.74 223.98 418.74 223.17C418.74 222.36 418.08 221.7 417.27 221.7Z" fill="#0054A6"/>
<path d="M383.22 218.01C382.17 218.01 381.31 217.15 381.31 216.1C381.31 215.05 382.17 214.19 383.22 214.19C384.27 214.19 385.13 215.05 385.13 216.1C385.13 217.16 384.27 218.01 383.22 218.01ZM383.22 214.64C382.41 214.64 381.75 215.3 381.75 216.11C381.75 216.92 382.41 217.58 383.22 217.58C384.03 217.58 384.69 216.92 384.69 216.11C384.69 215.29 384.03 214.64 383.22 214.64Z" fill="#0054A6"/>
<path d="M377.08 218.01C376.03 218.01 375.17 217.15 375.17 216.1C375.17 215.05 376.03 214.19 377.08 214.19C378.13 214.19 378.99 215.05 378.99 216.1C378.99 217.16 378.14 218.01 377.08 218.01ZM377.08 214.64C376.27 214.64 375.61 215.3 375.61 216.11C375.61 216.92 376.27 217.58 377.08 217.58C377.89 217.58 378.55 216.92 378.55 216.11C378.55 215.29 377.89 214.64 377.08 214.64Z" fill="#0054A6"/>
<path d="M372.28 218.01C371.23 218.01 370.37 217.15 370.37 216.1C370.37 215.05 371.23 214.19 372.28 214.19C373.33 214.19 374.19 215.05 374.19 216.1C374.19 217.16 373.34 218.01 372.28 218.01ZM372.28 214.64C371.47 214.64 370.81 215.3 370.81 216.11C370.81 216.92 371.47 217.58 372.28 217.58C373.09 217.58 373.75 216.92 373.75 216.11C373.75 215.29 373.09 214.64 372.28 214.64Z" fill="#0054A6"/>
<path d="M430.85 220.8L397.98 220.22C397.86 220.22 397.76 220.12 397.76 219.99C397.76 219.87 397.86 219.77 397.99 219.77L430.86 220.35C430.98 220.35 431.08 220.45 431.08 220.58C431.07 220.71 430.97 220.8 430.85 220.8Z" fill="#002548"/>
<path d="M356.63 214.05C356.51 214.05 356.41 213.95 356.41 213.83C356.41 213.71 356.51 213.61 356.63 213.6L385.08 213.01C385.21 213.02 385.3 213.11 385.31 213.23C385.31 213.35 385.21 213.45 385.09 213.46L356.63 214.05Z" fill="#002548"/>
<path d="M314.06 258.97L116.63 263.87C112.36 263.98 108.85 260.14 108.85 255.37V170.63C108.85 165.94 112.26 162.13 116.46 162.13H313.89C318.1 162.13 321.5 165.94 321.5 170.63V250.47C321.5 255.09 318.19 258.86 314.06 258.97Z" fill="#002548"/>
<path fill-rule="evenodd" clip-rule="evenodd" d="M253.36 174.44H261.94C262.23 174.44 262.47 174.65 262.47 174.9L262.55 178.46C262.56 178.75 262.85 178.97 263.17 178.92L278.85 176.45C278.88 176.45 278.91 176.44 278.94 176.44H289.72C289.75 176.44 289.77 176.44 289.8 176.43L301.99 174.79C302.14 174.77 302.29 174.81 302.41 174.89L305.1 176.84C305.32 177 305.36 177.29 305.19 177.5L301.9 181.32C301.81 181.43 301.77 181.57 301.8 181.71L303.27 187.97C303.29 188.07 303.28 188.17 303.23 188.27L298.16 197.95C297.99 198.27 297.5 198.32 297.26 198.04L294.25 194.63C294.15 194.52 294.12 194.38 294.15 194.24L295.42 188.72C295.53 188.25 294.87 187.95 294.5 188.31L291.32 191.46C291.26 191.52 291.18 191.56 291.1 191.59L287.4 192.73C287.27 192.77 287.17 192.85 287.1 192.96L285.29 195.99C285.12 196.28 285.32 196.64 285.69 196.68L289.86 197.19C290.11 197.22 290.31 197.41 290.32 197.63L290.89 207.32C290.9 207.47 290.83 207.62 290.69 207.71L286.77 210.53C286.59 210.66 286.52 210.88 286.61 211.07L287.52 213.1C287.65 213.4 287.42 213.72 287.07 213.75L286 213.82C285.82 213.83 285.65 213.76 285.54 213.64L282.48 210.07C282.21 209.76 281.67 209.85 281.55 210.23L281.23 211.23C281.19 211.35 281.21 211.47 281.27 211.58L284.26 216.71C284.37 216.89 284.33 217.11 284.17 217.26L278.92 222.09C278.67 222.32 278.29 222.41 277.94 222.33L277.01 222.1C276.49 221.97 275.96 222.23 275.8 222.68C275.71 222.95 275.76 223.24 275.95 223.47L278.66 226.72C278.96 227.08 278.91 227.57 278.55 227.88L277.06 229.15C276.67 229.48 276.06 229.48 275.68 229.14L267.36 221.87C266.97 221.53 266.35 221.53 265.96 221.88L261.52 225.87C261.39 225.99 261.3 226.14 261.26 226.3L260.9 227.75C260.72 228.48 259.66 228.69 259.15 228.09L252.15 220C251.96 219.78 251.68 219.64 251.38 219.6L246.57 218.98C246.43 218.96 246.3 218.92 246.17 218.86L244.18 217.9C243.63 217.63 243.01 218.15 243.27 218.66L243.72 219.55C243.89 219.88 244.23 220.1 244.62 220.16L247.97 220.61C248.39 220.67 248.75 220.92 248.9 221.28L249.07 221.67C249.27 222.14 249.07 222.66 248.6 222.93L241.19 227.16C240.86 227.35 240.41 227.24 240.24 226.92L235.76 218.59C235.61 218.32 235.26 218.19 234.94 218.29C234.58 218.41 234.41 218.78 234.57 219.09L238.38 226.14C239.02 227.33 240.52 227.95 241.96 227.63L242.59 227.49C243.5 227.29 244.3 228.05 244.01 228.84L243.07 231.41C243 231.61 242.86 231.78 242.69 231.91L239.29 234.35C238.5 234.91 238.07 235.78 238.13 236.68L238.32 239.51C238.38 240.35 238 241.17 237.29 241.74L235.92 242.84C235.33 243.31 235.03 244.01 235.12 244.72L235.19 245.29C235.28 245.99 234.99 246.68 234.41 247.15L229.22 251.4C228.63 251.88 227.82 252.08 227.03 251.93L226.02 251.74C225.17 251.58 224.47 251.03 224.2 250.29L221.29 242.59C220.98 241.76 221.25 240.84 221.98 240.25C222.71 239.67 222.98 238.77 222.68 237.94L221.07 233.47C220.51 231.91 218.7 231 216.91 231.36L212.81 232.2C212.47 232.27 212.12 232.19 211.86 231.98L206.05 227.4C205.82 227.22 205.69 226.96 205.69 226.69V221.32C205.69 219.87 206.27 218.48 207.32 217.37L208.03 216.63C209.34 215.25 211.2 214.37 213.22 214.16L217.38 213.74L220.19 213.42C220.74 213.36 221.26 213.68 221.38 214.17L221.58 214.99C221.65 215.28 221.87 215.52 222.17 215.65L226.2 217.36L226.69 215.71L234.05 216.44L234.16 214.55C234.18 214.26 233.95 214 233.63 213.95L230.49 213.39L229.16 210.84L226.77 210.34L227.84 213.46L225.95 211.42L223.32 209.03C222.94 208.69 222.34 208.65 221.91 208.93C221.39 209.27 221.33 209.94 221.78 210.36L224.22 212.62H222.79C222.53 212.62 222.27 212.54 222.08 212.38L219.23 210.15C218.79 209.8 218.12 209.84 217.72 210.23L215.39 212.54C215.23 212.7 215.02 212.8 214.78 212.84L212.91 213.14C212.33 213.23 211.77 212.89 211.66 212.38L211.26 210.5C211.13 209.88 211.69 209.32 212.4 209.37L213.76 209.46C214.53 209.51 215.11 208.84 214.85 208.19L214.22 206.6C214.06 206.19 214.23 205.74 214.63 205.49L219.32 202.65L226.42 202.14L227.78 198.05L225.96 197.47L226.6 193.84L225.24 193.97L223.57 197.01L223.7 200.37L221.61 201.08L220.49 198.52L218.74 199.53L217.8 196.19C217.79 196.16 217.8 196.13 217.82 196.1L224.81 187.42L234.12 189.87L234.23 191.35L231.82 192.32L231.69 194.6L235.62 191.78L241.21 189.02L241.33 187.22L243.86 187.21C243.96 187.21 244.06 187.24 244.15 187.28L245.09 187.81C245.52 188.05 246.04 187.68 245.88 187.26L244.82 184.53C244.76 184.39 244.79 184.23 244.89 184.1L245.8 182.94C245.91 182.8 246.1 182.72 246.29 182.74L248.59 182.95C248.69 182.96 248.78 182.99 248.86 183.05L249.15 183.25C249.59 183.55 250.19 183.13 249.96 182.68C249.82 182.4 250 182.08 250.34 182.02L251.41 181.82C251.87 181.74 251.99 181.21 251.61 180.97L251.05 180.62C250.77 180.44 250.75 180.08 251 179.88L253.71 177.72C253.76 177.68 253.81 177.65 253.87 177.63L256.14 176.85C256.44 176.75 256.57 176.44 256.42 176.19L256.2 175.82C256.09 175.62 255.83 175.52 255.59 175.58L253.46 176.09C253.11 176.17 252.77 175.93 252.79 175.61L252.83 174.87C252.85 174.64 253.08 174.44 253.36 174.44Z" fill="#54CC5A"/>
<path fill-rule="evenodd" clip-rule="evenodd" d="M291.57 238.851L286.64 240.471C286.42 240.541 286.24 240.681 286.12 240.861L284.68 243.141C284.55 243.341 284.33 243.491 284.08 243.561L279.65 244.641C279.17 244.761 278.87 245.171 278.93 245.601L279.77 251.311C279.79 251.471 279.77 251.641 279.69 251.791L279.04 253.081C278.78 253.591 279.12 254.191 279.74 254.301L280.55 254.451C280.75 254.491 280.96 254.471 281.15 254.391L288.29 251.601C288.73 251.431 289.25 251.561 289.51 251.921L291.17 254.171C291.22 254.241 291.28 254.291 291.34 254.351L293.93 256.391C294.14 256.561 294.43 256.641 294.71 256.601L298.87 256.131C299.35 256.071 299.72 255.721 299.73 255.281L299.79 253.491C299.8 253.321 299.86 253.151 299.97 253.011L302.52 249.771C302.64 249.621 302.7 249.451 302.7 249.261V246.771C302.7 246.531 302.59 246.301 302.4 246.141L298.95 243.151C298.83 243.051 298.74 242.921 298.69 242.771L298.05 240.871C297.77 240.031 296.44 240.031 296.16 240.871L295.93 241.531C295.73 242.121 294.93 242.351 294.39 241.981L293.61 241.451C293.23 241.201 293.11 240.741 293.32 240.361L293.33 240.341C293.55 239.941 293.4 239.451 292.97 239.211L292.44 238.911C292.18 238.781 291.86 238.751 291.57 238.851Z" fill="#54CC5A"/>
<path fill-rule="evenodd" clip-rule="evenodd" d="M290.31 233.28L290.2 233.6C290.08 233.95 290.22 234.32 290.53 234.54L293.38 236.54C293.5 236.63 293.65 236.69 293.8 236.71L299.18 237.65C299.23 237.66 299.29 237.67 299.34 237.69L300.04 237.93C300.92 238.23 301.72 237.37 301.24 236.65L300.96 236.23C300.85 236.07 300.68 235.94 300.48 235.87L291.63 232.71C291.09 232.52 290.48 232.78 290.31 233.28Z" fill="#54CC5A"/>
<path fill-rule="evenodd" clip-rule="evenodd" d="M281.59 229.79C280.89 230.49 279.95 231.43 279.41 231.96C279.16 232.21 279.09 232.56 279.23 232.88L280.42 235.51C280.6 235.92 281.1 236.14 281.58 236.04L283.39 235.63C283.73 235.55 284 235.33 284.1 235.03L284.81 232.91C284.89 232.67 284.85 232.42 284.71 232.21C284.37 231.7 283.7 230.7 283.18 229.93C282.83 229.41 282.03 229.34 281.59 229.79Z" fill="#54CC5A"/>
<path fill-rule="evenodd" clip-rule="evenodd" d="M272.44 230.18L276.56 234.79C276.57 234.8 276.59 234.82 276.6 234.83L279.13 237.33C279.3 237.5 279.54 237.6 279.79 237.62L284.64 237.93L284.61 238.01C284.49 238.36 284.13 238.61 283.72 238.62L276.94 238.92C276.59 238.94 276.26 238.79 276.07 238.53L270.71 231.32C270.44 230.96 270.51 230.48 270.86 230.19L270.99 230.08C271.41 229.74 272.08 229.78 272.44 230.18Z" fill="#54CC5A"/>
<path fill-rule="evenodd" clip-rule="evenodd" d="M173.98 226.23L172.76 227.83C172.59 228.05 172.29 228.16 171.99 228.1L169.69 227.64C169.35 227.57 169.11 227.31 169.11 227V225.54C169.11 225.19 168.8 224.9 168.41 224.89L167.08 224.84C166.54 224.82 166.21 224.3 166.46 223.88L167.89 221.5L165.65 220.85C165.65 220.85 163.97 223.29 163.63 223.3C163.29 223.31 161.07 220.23 161.07 220.23L163.85 217.08L168.14 216.97L170.19 219.61L171.47 215.34L176.24 212.11L185.67 206.15C185.74 206.11 185.79 206.05 185.83 205.98L187.58 202.59C187.66 202.44 187.63 202.26 187.51 202.14L184.71 199.21C184.65 199.14 184.61 199.06 184.6 198.97L184.43 197.38C184.39 196.96 183.76 196.85 183.54 197.22C183.38 197.49 182.96 197.52 182.75 197.28L180.86 195.16C180.45 194.7 179.67 194.69 179.25 195.14L176.86 197.71C176.79 197.78 176.74 197.86 176.7 197.95L175.66 200.22C175.32 200.96 174.15 200.99 173.76 200.27L173.7 200.16C173.6 199.97 173.43 199.81 173.21 199.72C172.18 199.28 169.08 197.93 169.06 197.37C169.04 196.79 171.12 193.59 171.69 192.72C171.78 192.58 171.92 192.46 172.08 192.38L176.09 190.37C176.11 190.36 176.12 190.35 176.14 190.35L179.93 188.69C180.3 188.53 180.53 188.18 180.51 187.81L180.45 186.91C180.41 186.34 179.81 185.93 179.18 186.06L177.36 186.43C177.18 186.47 177.02 186.54 176.88 186.65L176.07 187.32C175.57 187.73 174.77 187.61 174.45 187.08L173.31 185.19C173.02 184.7 172.31 184.55 171.8 184.87L170.25 185.84C169.99 186 169.66 186.05 169.36 185.97L164.11 184.58C164 184.55 163.9 184.51 163.81 184.45L159.31 181.67C159.06 181.52 158.75 181.47 158.45 181.54L154.92 182.37C154.59 182.45 154.23 182.37 153.97 182.17L147.86 177.39C147.6 177.19 147.24 177.11 146.9 177.19C145.76 177.47 143.1 178.1 141.99 178.23C140.87 178.37 139.67 179.69 139.19 180.27C139.06 180.43 139.05 180.63 139.15 180.8L139.67 181.66C139.85 181.96 139.65 182.33 139.27 182.39L137.37 182.67C136.98 182.73 136.77 183.12 136.98 183.42L137.43 184.08C137.5 184.18 137.53 184.31 137.5 184.43L137.16 186.08C137.1 186.36 136.79 186.54 136.48 186.48L134.66 186.1C134.29 186.02 133.95 186.28 133.97 186.62L134.14 189.17C134.15 189.27 134.19 189.37 134.26 189.45L135.78 191.18C135.99 191.42 135.92 191.76 135.63 191.91C134.15 192.72 130.12 194.91 130.51 194.66C131 194.35 135.43 194.72 135.47 194.04C135.51 193.36 138.45 192.7 138.65 192.47C138.8 192.29 139.91 190.85 140.45 190.15C140.62 189.93 140.95 189.87 141.2 190L145.69 192.36C145.98 192.51 146.16 192.78 146.2 193.07L146.71 197.95C146.72 198.09 146.77 198.22 146.85 198.34L148.77 201.22L150.99 204.87C151.13 205.1 151.15 205.37 151.06 205.61L149.86 208.68C148.96 211 149.17 213.54 150.45 215.71C151.49 217.48 152.56 219.3 152.62 219.47C152.64 219.52 152.7 219.62 152.8 219.75C153.71 221 155 221.98 156.5 222.63L163.46 225.66C163.49 225.67 163.52 225.69 163.55 225.71L168.68 228.79C168.73 228.82 168.77 228.85 168.81 228.89L169.67 229.74C169.84 229.91 170.09 229.98 170.34 229.95C170.92 229.86 171.37 230.38 171.14 230.86L169.8 233.6C169.75 233.71 169.73 233.84 169.75 233.96L170.63 239.31C170.65 239.46 170.73 239.59 170.85 239.69L174.51 242.76C174.62 242.85 174.69 242.97 174.72 243.1L176.01 248.47C176.02 248.5 176.02 248.53 176.02 248.57L177.08 263.37C177.09 263.56 177.2 263.74 177.38 263.86L180.78 266.06C180.92 266.15 181.09 266.19 181.27 266.18L182.44 266.1C183.07 266.06 183.35 265.37 182.9 264.98L181.76 263.99C181.63 263.88 181.55 263.72 181.54 263.56L181.44 262.16C181.44 262.15 181.44 262.13 181.44 262.12V259.54C181.44 259.5 181.44 259.46 181.45 259.42L181.86 257.44C181.86 257.43 181.86 257.42 181.87 257.4L182.07 256.02C182.1 255.79 182.27 255.59 182.51 255.5L185.4 254.38C185.77 254.24 185.95 253.85 185.78 253.51L185.4 252.75C185.22 252.38 185.45 251.95 185.89 251.85L187.03 251.59C187.21 251.55 187.37 251.45 187.47 251.3L189.81 247.96C189.97 247.74 189.96 247.45 189.79 247.24L189.74 247.18C189.43 246.8 189.67 246.26 190.19 246.16L191.5 245.92C191.76 245.87 191.98 245.7 192.05 245.47L193.95 239.97C193.98 239.88 194.03 239.8 194.09 239.74L196.81 236.92C197.09 236.63 197.03 236.18 196.67 235.96L192.91 233.62C192.78 233.54 192.62 233.5 192.45 233.5L189.76 233.62C189.58 233.63 189.41 233.58 189.27 233.48L187.65 232.35C187.48 232.23 187.37 232.05 187.37 231.85L187.31 230.08C187.3 229.8 187.09 229.55 186.79 229.47L183.5 228.59C183.41 228.57 183.33 228.53 183.25 228.48L181.2 227.03C180.99 226.88 180.71 226.85 180.46 226.94L178.8 227.55C178.6 227.62 178.37 227.61 178.18 227.53L174.96 226.04C174.59 225.87 174.18 225.96 173.98 226.23Z" fill="#54CC5A"/>
<path fill-rule="evenodd" clip-rule="evenodd" d="M176.85 183.561L177.27 181.711C177.35 181.341 177.69 181.051 178.11 180.981L181.13 180.521C181.37 180.481 181.61 180.521 181.82 180.631L185.55 182.501C185.8 182.631 185.87 182.921 185.7 183.131L184.22 184.881C184.1 185.031 184.09 185.231 184.21 185.381L186.34 188.131C186.4 188.211 186.43 188.321 186.42 188.421L186.03 191.611C186.02 191.671 186 191.731 185.96 191.791L184.79 193.491C184.68 193.651 184.47 193.721 184.27 193.681L181.05 193.001C181 192.991 180.95 192.971 180.9 192.961L180.61 192.861C179.78 192.561 179.74 191.531 180.54 191.171L181.14 190.911C181.54 190.731 181.77 190.351 181.71 189.961C181.59 189.151 181.36 187.851 181.15 187.491C180.97 187.171 180.85 186.411 180.78 185.851C180.73 185.441 180.39 185.111 179.93 185.041L177.67 184.671C177.11 184.561 176.74 184.071 176.85 183.561Z" fill="#54CC5A"/>
<path fill-rule="evenodd" clip-rule="evenodd" d="M163.86 177.72L162.48 178.74C162.05 179.06 161.98 179.62 162.32 180.02L163.65 181.56C163.67 181.59 163.7 181.62 163.72 181.65L165.46 184.2C165.58 184.38 165.76 184.51 165.98 184.58L167.61 185.14C167.97 185.26 168.37 185.2 168.66 184.98L169.79 184.12C169.89 184.04 169.98 183.95 170.04 183.84L171.35 181.56C171.43 181.43 171.46 181.28 171.46 181.14C171.46 180.32 170.34 179.91 169.68 180.49L169.61 180.55C169.19 180.92 168.51 180.91 168.11 180.53L165.28 177.82C164.91 177.45 164.28 177.41 163.86 177.72Z" fill="#54CC5A"/>
<path fill-rule="evenodd" clip-rule="evenodd" d="M192.25 173.351L187.25 176.971C187.1 177.081 187.04 177.271 187.1 177.441L188.06 179.961C188.11 180.091 188.23 180.19 188.38 180.23L191.19 180.971C191.42 181.031 191.59 181.211 191.62 181.421L192.37 187.04C192.38 187.13 192.37 187.21 192.33 187.29L190.64 191.191C190.59 191.301 190.59 191.411 190.62 191.521L192.04 196.241C192.09 196.391 192.21 196.521 192.37 196.59L193.53 197.061C193.81 197.181 194.15 197.081 194.3 196.831L196.6 193.09C196.66 193 196.74 192.92 196.85 192.87L200.66 191.111C200.71 191.091 200.75 191.061 200.79 191.031L206.37 186.421C206.46 186.351 206.52 186.25 206.55 186.15L208.51 178.34C208.53 178.26 208.57 178.18 208.63 178.12L211.71 174.751C211.84 174.601 211.88 174.41 211.81 174.23L211.45 173.37C211.33 173.09 210.97 172.951 210.66 173.061L208.94 173.711C208.83 173.751 208.72 173.761 208.6 173.741L207.54 173.581C206.9 173.481 206.87 172.68 207.5 172.54C207.96 172.44 208.11 171.911 207.75 171.631L207.37 171.331C207.34 171.301 207.31 171.271 207.28 171.241L205.91 169.501C205.8 169.361 205.62 169.271 205.42 169.271H201.57C201.41 169.271 201.26 169.33 201.15 169.43L198.99 171.37C198.85 171.49 198.79 171.67 198.83 171.84L199.05 172.87C199.14 173.28 198.68 173.621 198.24 173.461L197.02 173.031C196.88 172.981 196.77 172.891 196.7 172.771L196.34 172.131C196.19 171.871 195.83 171.761 195.54 171.891L192.38 173.311C192.32 173.311 192.28 173.331 192.25 173.351Z" fill="#54CC5A"/>
<path fill-rule="evenodd" clip-rule="evenodd" d="M183.1 169.9L189.15 168.46C189.23 168.44 189.31 168.44 189.38 168.46L194.78 169.61C195.28 169.72 195.41 170.29 194.99 170.56L194.19 171.07C194.18 171.08 194.17 171.08 194.16 171.09L186.81 176.38L183.52 178.78C183.28 178.95 182.98 179.02 182.68 178.98L179.42 178.46C179.09 178.41 178.75 178.5 178.51 178.71L177.5 179.59C177 180.03 176.17 179.9 175.85 179.35L175.4 178.57C175.38 178.54 175.37 178.5 175.35 178.47L175 177.64C174.8 177.16 175.08 176.63 175.62 176.45L177.6 175.81C177.85 175.73 178.13 175.74 178.37 175.83L179.87 176.41C180.13 176.51 180.43 176.51 180.69 176.41L180.72 176.4C181.36 176.16 181.56 175.43 181.11 174.95L180.72 174.54C180.45 174.25 180.4 173.85 180.59 173.52L182.4 170.39C182.58 170.14 182.82 169.97 183.1 169.9Z" fill="#54CC5A"/>
<path fill-rule="evenodd" clip-rule="evenodd" d="M168.37 173.79L170.57 173.26C171.17 173.12 171.78 173.47 171.87 174.02L172.2 176.06C172.27 176.47 172.01 176.88 171.58 177.04L169.71 177.75C169.13 177.97 168.46 177.68 168.3 177.14L167.64 174.92C167.49 174.43 167.82 173.92 168.37 173.79Z" fill="#54CC5A"/>
<path d="M157.41 194.72C160.597 194.72 163.18 192.137 163.18 188.95C163.18 185.763 160.597 183.18 157.41 183.18C154.223 183.18 151.64 185.763 151.64 188.95C151.64 192.137 154.223 194.72 157.41 194.72Z" fill="#F9FAFB"/>
<path d="M276.662 204.414C277.882 201.47 276.483 198.095 273.539 196.875C270.595 195.655 267.22 197.054 266 199.998C264.781 202.942 266.179 206.317 269.123 207.537C272.067 208.756 275.442 207.358 276.662 204.414Z" fill="#F9FAFB"/>
<path d="M304.12 240.66L219.96 240.26C218.95 240.25 218.12 241.37 218.13 242.75L218.32 276.05C218.33 277.44 219.17 278.55 220.19 278.5L303.88 276.71C304.85 276.67 305.63 275.59 305.64 274.27L305.93 243.17C305.94 241.79 305.13 240.67 304.12 240.66Z" fill="#F9FAFB"/>
<path d="M227.47 257.87H223.37V273.52H227.47V257.87Z" fill="#ED1C24"/>
<path d="M234.31 263.25H230.21V273.52H234.31V263.25Z" fill="#ED1C24"/>
<path d="M241.16 249.95H237.06V273.52H241.16V249.95Z" fill="#ED1C24"/>
<path d="M248 267.86H243.9V273.52H248V267.86Z" fill="#ED1C24"/>
<path d="M254.84 253.1H250.74V273.52H254.84V253.1Z" fill="#ED1C24"/>
<path d="M261.69 256.64H257.59V273.52H261.69V256.64Z" fill="#ED1C24"/>
<path d="M268.53 260.48H264.43V273.52H268.53V260.48Z" fill="#ED1C24"/>
<path d="M275.38 245.19H271.28V273.52H275.38V245.19Z" fill="#ED1C24"/>
<path d="M282.22 248.18H278.12V273.51H282.22V248.18Z" fill="#ED1C24"/>
<path d="M289.06 252.72H284.96V273.52H289.06V252.72Z" fill="#ED1C24"/>
<path d="M295.91 268.38H291.81V273.52H295.91V268.38Z" fill="#ED1C24"/>
<path d="M302.75 258.4H298.65V273.51H302.75V258.4Z" fill="#ED1C24"/>
<path d="M191.45 154.48H112.64C110.54 154.48 108.83 152.78 108.83 150.67V128C108.83 125.9 110.53 124.19 112.64 124.19H191.45C193.55 124.19 195.26 125.89 195.26 128V150.67C195.26 152.78 193.55 154.48 191.45 154.48Z" fill="#002548"/>
<path d="M282.54 154.48H203.73C201.63 154.48 199.92 152.78 199.92 150.67V128C199.92 125.9 201.62 124.19 203.73 124.19H282.54C284.64 124.19 286.35 125.89 286.35 128V150.67C286.35 152.78 284.65 154.48 282.54 154.48Z" fill="#002548"/>
<path d="M373.63 154.48H294.82C292.72 154.48 291.01 152.78 291.01 150.67V128C291.01 125.9 292.71 124.19 294.82 124.19H373.63C375.73 124.19 377.44 125.89 377.44 128V150.67C377.44 152.78 375.74 154.48 373.63 154.48Z" fill="#002548"/>
<path d="M464.72 154.48H385.91C383.81 154.48 382.1 152.78 382.1 150.67V128C382.1 125.9 383.8 124.19 385.91 124.19H464.72C466.82 124.19 468.53 125.89 468.53 128V150.67C468.53 152.78 466.83 154.48 464.72 154.48Z" fill="#002548"/>
<path d="M183.74 142.15H120.47C114.05 142.15 108.84 136.94 108.84 130.52C108.84 124.1 114.05 118.89 120.47 118.89H183.74C190.16 118.89 195.37 124.1 195.37 130.52C195.37 136.95 190.16 142.15 183.74 142.15Z" fill="#ED1C24"/>
<path d="M133.3 130.321H121.09C120.77 130.321 120.5 130.061 120.5 129.731C120.5 129.401 120.76 129.141 121.09 129.141H133.3C133.62 129.141 133.89 129.401 133.89 129.731C133.89 130.061 133.63 130.321 133.3 130.321Z" fill="#F9FAFB"/>
<path d="M124.92 138.201C124.6 138.201 124.33 137.771 124.33 137.231V126.801C124.33 126.271 124.59 125.831 124.92 125.831C125.24 125.831 125.51 126.261 125.51 126.801V137.231C125.5 137.771 125.24 138.201 124.92 138.201Z" fill="#F9FAFB"/>
<path d="M129.38 138.201C129.06 138.201 128.79 137.771 128.79 137.231V126.801C128.79 126.271 129.05 125.831 129.38 125.831C129.7 125.831 129.97 126.261 129.97 126.801V137.231C129.97 137.771 129.7 138.201 129.38 138.201Z" fill="#F9FAFB"/>
<path d="M132.93 134.43H121.16C120.8 134.43 120.51 134.17 120.51 133.84C120.51 133.51 120.8 133.25 121.16 133.25H132.93C133.29 133.25 133.58 133.51 133.58 133.84C133.58 134.17 133.29 134.43 132.93 134.43Z" fill="#F9FAFB"/>
<path d="M133.58 138.441H120.71C120.36 138.441 120.07 138.151 120.07 137.801V126.181C120.07 125.831 120.36 125.541 120.71 125.541H133.58C133.93 125.541 134.22 125.831 134.22 126.181V137.801C134.22 138.161 133.93 138.441 133.58 138.441ZM121.35 137.161H132.94V126.821H121.35V137.161Z" fill="#F9FAFB"/>
<path d="M120.71 138.44H115.21C115.03 138.44 114.86 138.36 114.74 138.23C114.62 138.1 114.56 137.92 114.58 137.74L116.07 122.23C116.1 121.9 116.38 121.65 116.71 121.65H119.37C119.7 121.65 119.98 121.9 120.01 122.23L121.37 137.74C121.39 137.92 121.33 138.09 121.2 138.23C121.06 138.37 120.89 138.44 120.71 138.44ZM115.91 137.16H120.02L118.78 122.93H117.29L115.91 137.16Z" fill="#F9FAFB"/>
<path d="M167.7 126.7H141.13C140.52 126.7 140.03 126.21 140.03 125.6C140.03 124.99 140.52 124.5 141.13 124.5H167.7C168.31 124.5 168.8 124.99 168.8 125.6C168.8 126.21 168.31 126.7 167.7 126.7Z" fill="#F9FAFB"/>
<path d="M167.7 131.37H141.13C140.52 131.37 140.03 130.88 140.03 130.27C140.03 129.66 140.52 129.17 141.13 129.17H167.7C168.31 129.17 168.8 129.66 168.8 130.27C168.8 130.88 168.31 131.37 167.7 131.37Z" fill="#F9FAFB"/>
<path d="M150.65 136.05H141.13C140.52 136.05 140.03 135.56 140.03 134.95C140.03 134.34 140.52 133.85 141.13 133.85H150.65C151.26 133.85 151.75 134.34 151.75 134.95C151.75 135.56 151.26 136.05 150.65 136.05Z" fill="#F9FAFB"/>
<path d="M179.47 138.03L191.06 130.99C191.37 130.8 191.37 130.22 191.06 130.03L179.42 123.08C179.15 122.92 178.85 123.18 178.86 123.56L178.87 125.83C178.87 126.12 178.69 126.36 178.47 126.36L172.36 126.41C172.14 126.41 171.96 126.65 171.96 126.94L171.99 134.28C171.99 134.57 172.17 134.81 172.39 134.81L178.5 134.76C178.72 134.76 178.9 134.99 178.9 135.29L178.91 137.56C178.91 137.94 179.21 138.2 179.47 138.03Z" fill="#F9FAFB"/>
<path d="M365.81 142.15H302.54C296.12 142.15 290.91 136.94 290.91 130.52C290.91 124.1 296.12 118.89 302.54 118.89H365.81C372.23 118.89 377.44 124.1 377.44 130.52C377.44 136.95 372.23 142.15 365.81 142.15Z" fill="#ED1C24"/>
<path d="M310.04 135.1H301.63C301.4 135.1 301.2 134.94 301.15 134.72C301.13 134.65 301.11 134.59 301.08 134.53C301.08 134.52 301.07 134.52 301.07 134.51C301.04 134.43 301 134.36 300.95 134.29C300.66 133.87 300.19 133.62 299.69 133.62C299.19 133.62 298.71 133.87 298.42 134.29C298.37 134.36 298.33 134.43 298.3 134.51C298.3 134.52 298.29 134.52 298.29 134.53C298.26 134.59 298.24 134.65 298.22 134.72C298.17 134.94 297.97 135.1 297.74 135.1H297.32C296.88 135.1 296.53 134.75 296.53 134.31V126.85C296.53 126.41 296.88 126.06 297.32 126.06H310.03C310.47 126.06 310.82 126.41 310.82 126.85V134.31C310.83 134.74 310.47 135.1 310.04 135.1ZM301.97 134.11H309.84V127.04H297.52V133.87C297.55 133.82 297.58 133.78 297.61 133.73C298.08 133.04 298.86 132.63 299.69 132.63C300.52 132.63 301.3 133.04 301.77 133.73C301.85 133.84 301.92 133.96 301.97 134.09C301.97 134.1 301.97 134.11 301.97 134.11Z" fill="#F9FAFB"/>
<path d="M316.24 135.1H315.88C315.65 135.1 315.45 134.94 315.4 134.72C315.38 134.65 315.36 134.59 315.33 134.53C315.33 134.52 315.32 134.52 315.32 134.51C315.29 134.43 315.25 134.36 315.2 134.29C314.91 133.87 314.44 133.62 313.93 133.62C313.43 133.62 312.95 133.87 312.66 134.29C312.61 134.36 312.57 134.43 312.54 134.51C312.54 134.52 312.53 134.52 312.53 134.53C312.5 134.59 312.48 134.65 312.46 134.72C312.41 134.94 312.21 135.1 311.98 135.1H311.87C311.43 135.1 311.08 134.75 311.08 134.31V128.47C311.08 128.03 311.43 127.68 311.87 127.68H313.14C313.46 127.67 314.93 127.67 316.04 128.86C317.13 130.03 317.06 131.47 317.02 131.83V134.31C317.03 134.74 316.67 135.1 316.24 135.1ZM313.93 132.63C314.76 132.63 315.54 133.04 316.01 133.73C316.02 133.74 316.03 133.76 316.04 133.77V131.79C316.04 131.77 316.04 131.75 316.04 131.73C316.07 131.52 316.15 130.41 315.32 129.52C314.49 128.63 313.39 128.64 313.18 128.65C313.17 128.65 313.16 128.65 313.16 128.65H312.07V133.44C312.55 132.93 313.22 132.63 313.93 132.63Z" fill="#F9FAFB"/>
<path d="M299.69 137.07C298.96 137.07 298.36 136.47 298.36 135.74C298.36 135.42 298.47 135.12 298.68 134.88C298.93 134.58 299.29 134.41 299.69 134.41C300.08 134.41 300.45 134.58 300.69 134.88C300.9 135.12 301.01 135.43 301.01 135.74C301.02 136.47 300.42 137.07 299.69 137.07ZM299.69 135.39C299.59 135.39 299.5 135.43 299.44 135.5C299.44 135.51 299.43 135.51 299.43 135.52C299.39 135.56 299.35 135.64 299.35 135.74C299.35 135.93 299.51 136.09 299.7 136.09C299.89 136.09 300.04 135.93 300.04 135.74C300.04 135.64 299.99 135.57 299.96 135.52C299.96 135.51 299.95 135.51 299.95 135.5C299.87 135.43 299.79 135.39 299.69 135.39Z" fill="#F9FAFB"/>
<path d="M313.93 137.07C313.2 137.07 312.6 136.47 312.6 135.74C312.6 135.42 312.71 135.12 312.92 134.88C313.17 134.58 313.53 134.41 313.93 134.41C314.33 134.41 314.69 134.58 314.94 134.88C315.15 135.12 315.26 135.43 315.26 135.74C315.26 136.47 314.67 137.07 313.93 137.07ZM313.93 135.39C313.83 135.39 313.74 135.43 313.68 135.5C313.68 135.51 313.67 135.51 313.67 135.52C313.63 135.56 313.59 135.64 313.59 135.74C313.59 135.93 313.75 136.09 313.94 136.09C314.13 136.09 314.29 135.93 314.29 135.74C314.29 135.64 314.24 135.57 314.21 135.52C314.21 135.51 314.2 135.51 314.2 135.5C314.12 135.43 314.03 135.39 313.93 135.39Z" fill="#F9FAFB"/>
<path d="M349.53 126.7H322.96C322.35 126.7 321.86 126.21 321.86 125.6C321.86 124.99 322.35 124.5 322.96 124.5H349.53C350.14 124.5 350.63 124.99 350.63 125.6C350.63 126.21 350.14 126.7 349.53 126.7Z" fill="#F9FAFB"/>
<path d="M349.53 131.37H322.96C322.35 131.37 321.86 130.88 321.86 130.27C321.86 129.66 322.35 129.17 322.96 129.17H349.53C350.14 129.17 350.63 129.66 350.63 130.27C350.63 130.88 350.14 131.37 349.53 131.37Z" fill="#F9FAFB"/>
<path d="M332.48 136.05H322.96C322.35 136.05 321.86 135.56 321.86 134.95C321.86 134.34 322.35 133.85 322.96 133.85H332.48C333.09 133.85 333.58 134.34 333.58 134.95C333.58 135.56 333.09 136.05 332.48 136.05Z" fill="#F9FAFB"/>
<path d="M361.3 138.03L372.89 130.99C373.2 130.8 373.2 130.22 372.89 130.03L361.25 123.08C360.98 122.92 360.68 123.18 360.69 123.56L360.7 125.83C360.7 126.12 360.52 126.36 360.3 126.36L354.19 126.41C353.97 126.41 353.79 126.65 353.79 126.94L353.82 134.28C353.82 134.57 354 134.81 354.22 134.81L360.33 134.76C360.55 134.76 360.73 134.99 360.73 135.29L360.74 137.56C360.73 137.94 361.03 138.2 361.3 138.03Z" fill="#F9FAFB"/>
<path d="M457.18 142.15H393.91C387.49 142.15 382.28 136.94 382.28 130.52C382.28 124.1 387.49 118.89 393.91 118.89H457.18C463.6 118.89 468.81 124.1 468.81 130.52C468.81 136.95 463.6 142.15 457.18 142.15Z" fill="#ED1C24"/>
<path d="M395.92 137.52C395.8 137.52 395.68 137.52 395.56 137.51C391.48 137.33 388.29 134.08 388.46 130.26C388.54 128.4 389.39 126.7 390.86 125.45C392.31 124.21 394.2 123.58 396.17 123.67C400.25 123.85 403.44 127.1 403.27 130.92C403.19 132.78 402.34 134.48 400.87 135.73C399.51 136.89 397.76 137.52 395.92 137.52ZM395.81 124.64C394.2 124.64 392.68 125.19 391.49 126.2C390.24 127.27 389.51 128.73 389.44 130.31C389.3 133.59 392.06 136.38 395.61 136.54C397.33 136.61 398.98 136.06 400.24 134.99C401.49 133.92 402.22 132.46 402.29 130.88C402.43 127.6 399.67 124.81 396.12 124.65C396.02 124.64 395.91 124.64 395.81 124.64Z" fill="#F9FAFB"/>
<path d="M397.63 130.62C397.63 131.76 397.55 132.89 397.35 134.01C397.3 134.29 397.24 134.57 397.17 134.84C397.1 135.12 397.02 135.39 396.92 135.66C396.82 135.93 396.7 136.19 396.55 136.43C396.47 136.55 396.38 136.66 396.27 136.76C396.21 136.81 396.15 136.85 396.09 136.88C396.02 136.91 395.95 136.93 395.88 136.93C395.81 136.93 395.73 136.92 395.66 136.89C395.59 136.86 395.53 136.82 395.47 136.78C395.36 136.69 395.27 136.58 395.18 136.46C395.02 136.22 394.9 135.96 394.8 135.69C394.7 135.42 394.62 135.15 394.55 134.88C394.48 134.6 394.42 134.33 394.37 134.05C394.27 133.49 394.2 132.93 394.15 132.36C394.1 131.79 394.08 131.23 394.08 130.66C394.08 130.38 394.09 130.09 394.1 129.81C394.11 129.53 394.13 129.24 394.15 128.96C394.19 128.39 394.25 127.83 394.35 127.27C394.4 126.99 394.45 126.71 394.52 126.43C394.59 126.15 394.66 125.88 394.76 125.61C394.81 125.48 394.86 125.34 394.92 125.21C394.98 125.08 395.05 124.95 395.12 124.83C395.2 124.71 395.29 124.6 395.4 124.51C395.46 124.46 395.52 124.43 395.58 124.4C395.65 124.37 395.72 124.36 395.79 124.36C395.86 124.36 395.93 124.38 396 124.41C396.07 124.44 396.13 124.48 396.18 124.52C396.29 124.61 396.38 124.72 396.47 124.84C396.63 125.07 396.75 125.33 396.86 125.6C396.97 125.86 397.05 126.14 397.13 126.41C397.21 126.68 397.27 126.96 397.32 127.24C397.54 128.35 397.63 129.49 397.63 130.62ZM397.55 130.62C397.55 130.05 397.53 129.49 397.48 128.92C397.43 128.36 397.36 127.79 397.26 127.24C397.21 126.96 397.15 126.69 397.08 126.41C397.01 126.14 396.92 125.87 396.82 125.6C396.72 125.34 396.6 125.08 396.44 124.85C396.36 124.73 396.27 124.62 396.16 124.53C396.11 124.49 396.05 124.45 395.99 124.42C395.93 124.39 395.86 124.37 395.79 124.37C395.72 124.37 395.65 124.38 395.59 124.41C395.53 124.44 395.47 124.47 395.41 124.52C395.3 124.61 395.22 124.72 395.14 124.84C395.06 124.96 395 125.08 394.94 125.21C394.88 125.34 394.83 125.47 394.79 125.6C394.7 125.87 394.63 126.14 394.56 126.42C394.5 126.7 394.45 126.97 394.4 127.25C394.31 127.81 394.26 128.37 394.22 128.94C394.18 129.5 394.17 130.07 394.17 130.64C394.17 131.21 394.19 131.77 394.23 132.34C394.27 132.9 394.34 133.47 394.43 134.02C394.48 134.3 394.54 134.58 394.6 134.85C394.67 135.12 394.75 135.4 394.84 135.66C394.94 135.92 395.05 136.18 395.21 136.42C395.29 136.54 395.38 136.65 395.48 136.73C395.53 136.77 395.59 136.81 395.65 136.84C395.71 136.87 395.78 136.88 395.85 136.88C395.92 136.88 395.98 136.86 396.05 136.83C396.11 136.8 396.17 136.76 396.22 136.72C396.32 136.63 396.41 136.52 396.49 136.4C396.64 136.16 396.75 135.9 396.85 135.64C396.95 135.37 397.02 135.1 397.09 134.83C397.16 134.56 397.21 134.28 397.26 134C397.36 133.44 397.42 132.88 397.46 132.32C397.53 131.75 397.55 131.19 397.55 130.62Z" fill="#F9FAFB"/>
<path d="M395.86 137.09C395.77 137.09 395.68 137.07 395.6 137.04C395.52 137.01 395.45 136.96 395.37 136.9C395.26 136.81 395.16 136.7 395.05 136.54C394.9 136.32 394.78 136.07 394.65 135.74C394.56 135.49 394.47 135.22 394.39 134.91C394.32 134.64 394.26 134.37 394.21 134.07C394.11 133.53 394.04 132.98 393.99 132.36C393.94 131.8 393.92 131.23 393.92 130.64C393.92 130.34 393.93 130.04 393.94 129.78C393.95 129.49 393.97 129.2 393.99 128.92C394.04 128.3 394.1 127.75 394.19 127.21C394.24 126.91 394.3 126.63 394.36 126.36C394.43 126.05 394.51 125.78 394.6 125.52C394.65 125.37 394.71 125.23 394.76 125.11C394.83 124.96 394.9 124.83 394.97 124.71C395.07 124.55 395.17 124.44 395.28 124.35C395.35 124.29 395.43 124.24 395.51 124.21C395.6 124.17 395.7 124.16 395.79 124.16C395.88 124.16 395.97 124.18 396.06 124.22C396.13 124.25 396.21 124.3 396.28 124.36C396.39 124.45 396.49 124.56 396.6 124.71C396.75 124.92 396.88 125.18 397.01 125.5C397.11 125.75 397.2 126.02 397.28 126.33C397.35 126.6 397.42 126.87 397.48 127.17C397.69 128.23 397.79 129.35 397.79 130.59C397.79 131.84 397.7 132.96 397.51 134.01C397.46 134.31 397.4 134.59 397.33 134.86C397.25 135.17 397.17 135.44 397.08 135.69C396.96 136.02 396.83 136.28 396.69 136.49C396.59 136.64 396.49 136.76 396.38 136.85C396.31 136.91 396.23 136.96 396.16 136.99C396.07 137.03 395.97 137.05 395.88 137.06C395.87 137.09 395.87 137.09 395.86 137.09ZM395.78 124.55C395.74 124.55 395.7 124.56 395.66 124.58C395.62 124.6 395.57 124.63 395.53 124.66C395.45 124.73 395.37 124.82 395.29 124.94C395.23 125.04 395.17 125.16 395.11 125.29C395.06 125.4 395.01 125.53 394.96 125.67C394.88 125.91 394.81 126.17 394.74 126.47C394.68 126.73 394.63 127 394.59 127.29C394.51 127.81 394.45 128.36 394.41 128.96C394.38 129.47 394.36 130.03 394.36 130.65C394.36 131.22 394.38 131.79 394.42 132.33C394.46 132.93 394.53 133.47 394.62 134C394.67 134.29 394.73 134.56 394.79 134.82C394.86 135.12 394.94 135.38 395.03 135.61C395.14 135.91 395.25 136.14 395.38 136.33C395.46 136.45 395.54 136.54 395.62 136.61C395.67 136.65 395.71 136.67 395.75 136.69C395.8 136.71 395.84 136.72 395.88 136.72C395.92 136.72 395.97 136.71 396.01 136.69C396.05 136.67 396.1 136.64 396.14 136.6C396.22 136.53 396.3 136.44 396.38 136.32C396.5 136.13 396.61 135.9 396.72 135.59C396.81 135.35 396.88 135.09 396.96 134.8C397.02 134.54 397.08 134.28 397.13 133.98C397.22 133.46 397.29 132.92 397.33 132.31C397.37 131.77 397.39 131.2 397.39 130.63C397.39 130.06 397.37 129.49 397.32 128.95C397.27 128.35 397.2 127.81 397.1 127.28C397.05 126.99 396.99 126.72 396.92 126.46C396.84 126.17 396.76 125.91 396.67 125.67C396.55 125.37 396.44 125.14 396.31 124.95C396.23 124.83 396.15 124.74 396.07 124.67C396.02 124.63 395.98 124.6 395.93 124.58C395.87 124.56 395.83 124.55 395.78 124.55Z" fill="#F9FAFB"/>
<path d="M400.49 130.62C400.49 131.35 400.39 132.08 400.2 132.79C400 133.49 399.7 134.17 399.3 134.78C399.1 135.08 398.87 135.37 398.61 135.63C398.35 135.89 398.07 136.12 397.76 136.32C397.45 136.51 397.12 136.67 396.77 136.77C396.42 136.88 396.06 136.93 395.69 136.93C395.33 136.93 394.96 136.88 394.61 136.77C394.26 136.66 393.93 136.51 393.62 136.32C393.31 136.13 393.03 135.89 392.77 135.63C392.51 135.37 392.28 135.09 392.08 134.78C391.67 134.17 391.37 133.5 391.17 132.79C391.07 132.44 391 132.08 390.95 131.72C390.9 131.36 390.88 130.99 390.88 130.63C390.88 130.26 390.91 129.9 390.95 129.54C391 129.18 391.07 128.82 391.17 128.47C391.37 127.77 391.67 127.09 392.08 126.48C392.28 126.18 392.51 125.89 392.77 125.63C393.03 125.37 393.31 125.14 393.62 124.95C393.93 124.76 394.26 124.6 394.61 124.5C394.96 124.39 395.32 124.34 395.69 124.34C396.05 124.34 396.42 124.4 396.77 124.5C397.12 124.61 397.45 124.76 397.76 124.95C398.07 125.14 398.35 125.38 398.61 125.64C398.87 125.9 399.1 126.18 399.3 126.49C399.71 127.1 400.01 127.77 400.2 128.48C400.39 129.16 400.48 129.89 400.49 130.62ZM400.39 130.62C400.39 129.9 400.3 129.17 400.11 128.48C399.92 127.78 399.63 127.11 399.24 126.51C399.04 126.21 398.82 125.92 398.57 125.66C398.32 125.4 398.04 125.17 397.74 124.97C397.44 124.78 397.11 124.62 396.76 124.52C396.42 124.41 396.06 124.36 395.69 124.36C395.33 124.36 394.97 124.42 394.62 124.52C394.28 124.63 393.95 124.78 393.64 124.97C393.34 125.16 393.06 125.4 392.81 125.66C392.56 125.92 392.33 126.2 392.14 126.51C391.74 127.11 391.46 127.79 391.27 128.48C391.18 128.83 391.11 129.18 391.06 129.54C391.01 129.9 390.99 130.26 390.99 130.62C390.99 130.98 391.01 131.34 391.06 131.7C391.11 132.06 391.18 132.41 391.27 132.76C391.46 133.46 391.75 134.13 392.14 134.73C392.34 135.03 392.56 135.32 392.81 135.58C393.06 135.84 393.34 136.07 393.64 136.27C393.94 136.46 394.27 136.62 394.62 136.72C394.96 136.83 395.32 136.88 395.68 136.88C396.04 136.88 396.4 136.82 396.74 136.72C397.08 136.61 397.41 136.46 397.72 136.27C398.02 136.08 398.3 135.84 398.55 135.58C398.8 135.32 399.03 135.04 399.22 134.74C399.62 134.14 399.9 133.46 400.1 132.77C400.3 132.07 400.39 131.35 400.39 130.62Z" fill="#F9FAFB"/>
<path d="M395.68 137.09C395.3 137.09 394.92 137.03 394.55 136.92C394.19 136.81 393.85 136.65 393.52 136.45C393.21 136.25 392.91 136.02 392.64 135.74C392.38 135.48 392.14 135.19 391.93 134.87C391.53 134.27 391.21 133.58 391 132.83C390.9 132.47 390.83 132.1 390.78 131.73C390.73 131.37 390.71 130.99 390.7 130.61C390.7 130.23 390.73 129.86 390.78 129.49C390.83 129.12 390.91 128.75 391 128.39C391.21 127.64 391.52 126.96 391.93 126.35C392.14 126.03 392.38 125.74 392.64 125.48C392.91 125.21 393.21 124.97 393.52 124.77C393.85 124.57 394.19 124.41 394.55 124.3C394.92 124.19 395.29 124.13 395.67 124.13C396.05 124.13 396.43 124.19 396.79 124.3C397.15 124.41 397.49 124.57 397.82 124.77C398.13 124.97 398.43 125.2 398.7 125.48C398.96 125.74 399.2 126.03 399.41 126.35C399.81 126.95 400.13 127.64 400.34 128.38C400.53 129.08 400.64 129.83 400.64 130.59C400.64 131.36 400.54 132.1 400.34 132.8C400.13 133.55 399.82 134.23 399.41 134.84C399.2 135.16 398.96 135.45 398.7 135.71C398.43 135.98 398.13 136.22 397.82 136.42C397.49 136.63 397.14 136.79 396.79 136.89C396.44 137.04 396.06 137.09 395.68 137.09ZM395.68 124.52C395.34 124.52 395 124.57 394.66 124.68C394.34 124.78 394.02 124.93 393.72 125.12C393.44 125.3 393.17 125.52 392.92 125.78C392.68 126.02 392.46 126.3 392.27 126.6C391.9 127.17 391.61 127.82 391.42 128.53C391.33 128.86 391.26 129.21 391.21 129.57C391.17 129.92 391.14 130.27 391.14 130.63C391.14 130.99 391.16 131.34 391.21 131.69C391.26 132.05 391.33 132.4 391.42 132.73C391.61 133.44 391.9 134.09 392.27 134.66C392.47 134.96 392.69 135.24 392.92 135.48C393.17 135.74 393.44 135.96 393.72 136.14C394.02 136.33 394.33 136.48 394.66 136.57C394.99 136.67 395.33 136.72 395.68 136.73C396.02 136.73 396.36 136.68 396.69 136.57C397.01 136.47 397.33 136.33 397.63 136.14C397.91 135.96 398.18 135.74 398.43 135.48C398.67 135.24 398.89 134.96 399.08 134.66C399.45 134.09 399.74 133.45 399.93 132.73C400.11 132.06 400.2 131.36 400.21 130.63C400.21 129.9 400.12 129.2 399.94 128.53C399.75 127.82 399.46 127.17 399.09 126.6C398.89 126.3 398.67 126.02 398.44 125.78C398.19 125.52 397.92 125.3 397.64 125.12C397.34 124.93 397.02 124.78 396.7 124.68C396.37 124.57 396.02 124.52 395.68 124.52Z" fill="#F9FAFB"/>
<path d="M390.08 128.13L391.52 128.12L392.96 128.11L395.85 128.1L398.74 128.11L400.18 128.12L401.62 128.13L400.18 128.14L398.74 128.15L395.85 128.16L392.96 128.15L391.52 128.14L390.08 128.13C390.07 128.14 390.07 128.14 390.08 128.13C390.07 128.13 390.07 128.13 390.08 128.13Z" fill="#F9FAFB"/>
<path d="M395.85 128.33L391.52 128.32L390.01 128.3L389.9 128.2V128.13L389.91 127.97L390.07 127.96L392.96 127.94H395.85L400.18 127.95L401.78 127.97L401.79 128.3H401.62L398.73 128.32L395.85 128.33Z" fill="#F9FAFB"/>
<path d="M391.75 125.7C392.09 125.69 392.43 125.69 392.77 125.69L393.79 125.68C394.13 125.68 394.47 125.68 394.81 125.68H395.83L397.88 125.69L398.9 125.7C399.24 125.7 399.58 125.71 399.92 125.71V125.72C399.58 125.73 399.24 125.73 398.9 125.73L397.88 125.74L395.83 125.75H394.81C394.47 125.75 394.13 125.75 393.79 125.75L392.77 125.74C392.43 125.74 392.09 125.73 391.75 125.73C391.75 125.71 391.74 125.71 391.75 125.7Z" fill="#F9FAFB"/>
<path d="M395.85 125.9H394.56C394.31 125.9 394.05 125.9 393.8 125.9L392.43 125.89C392.2 125.89 391.97 125.89 391.75 125.88H391.59L391.58 125.55L391.75 125.54C391.97 125.54 392.19 125.53 392.41 125.53L393.8 125.52C394.04 125.52 394.28 125.52 394.52 125.52H395.85L399.3 125.54C399.52 125.54 399.74 125.54 399.95 125.55H400.12L400.11 125.88H399.95C399.72 125.88 399.5 125.89 399.27 125.89L397.9 125.9H395.85Z" fill="#F9FAFB"/>
<path d="M389.57 130.55L391.14 130.54L392.71 130.53H395.85H398.98L400.55 130.54L402.12 130.55V130.56L400.55 130.58H398.98L395.85 130.59L392.71 130.58H391.14L389.57 130.57V130.56V130.55Z" fill="#F9FAFB"/>
<path d="M395.85 130.75L391.14 130.74L389.41 130.73L389.4 130.39H389.57L392.71 130.37L395.85 130.36L400.55 130.38L402.19 130.39L402.29 130.49L402.28 130.72L402.12 130.73L398.98 130.75H395.85Z" fill="#F9FAFB"/>
<path d="M390.08 132.98L391.52 132.97L392.96 132.96L395.85 132.95L398.74 132.96L400.18 132.97L401.62 132.98V132.99L400.18 133L398.74 133.01L395.85 133.02L392.96 133.01L391.52 133L390.08 132.99C390.07 132.99 390.07 132.99 390.08 132.98C390.07 132.98 390.07 132.98 390.08 132.98Z" fill="#F9FAFB"/>
<path d="M395.85 133.18L391.52 133.17L390.01 133.16L389.9 133.06V132.98L389.91 132.82L390.07 132.81L392.96 132.79H395.85L400.18 132.8L401.78 132.82L401.79 133.15H401.62L398.73 133.17L395.85 133.18Z" fill="#F9FAFB"/>
<path d="M400.15 135.43H391.96C391.95 135.43 391.94 135.42 391.94 135.41C391.94 135.4 391.95 135.39 391.96 135.39H400.15C400.16 135.39 400.17 135.4 400.17 135.41C400.17 135.42 400.16 135.43 400.15 135.43Z" fill="#F9FAFB"/>
<path d="M400.15 135.6H391.96C391.86 135.6 391.77 135.52 391.77 135.41C391.77 135.3 391.85 135.22 391.96 135.22H400.15C400.25 135.22 400.34 135.3 400.34 135.41C400.34 135.52 400.25 135.6 400.15 135.6Z" fill="#F9FAFB"/>
<path d="M457.59 126.7H413.36C412.75 126.7 412.26 126.21 412.26 125.6C412.26 124.99 412.75 124.5 413.36 124.5H457.59C458.2 124.5 458.69 124.99 458.69 125.6C458.69 126.21 458.2 126.7 457.59 126.7Z" fill="#F9FAFB"/>
<path d="M457.59 131.37H413.36C412.75 131.37 412.26 130.88 412.26 130.27C412.26 129.66 412.75 129.17 413.36 129.17H457.59C458.2 129.17 458.69 129.66 458.69 130.27C458.69 130.88 458.2 131.37 457.59 131.37Z" fill="#F9FAFB"/>
<path d="M440.54 136.05H413.37C412.76 136.05 412.27 135.56 412.27 134.95C412.27 134.34 412.76 133.85 413.37 133.85H440.54C441.15 133.85 441.64 134.34 441.64 134.95C441.64 135.56 441.15 136.05 440.54 136.05Z" fill="#F9FAFB"/>
<path d="M274.78 142.15H211.5C205.08 142.15 199.87 136.94 199.87 130.52C199.87 124.1 205.08 118.89 211.5 118.89H274.77C281.19 118.89 286.4 124.1 286.4 130.52C286.4 136.95 281.2 142.15 274.78 142.15Z" fill="#ED1C24"/>
<path d="M213.67 126.13H218.9C219.29 126.13 219.61 125.81 219.61 125.42V122.15C219.61 121.76 219.29 121.44 218.9 121.44H213.67C213.28 121.44 212.96 121.76 212.96 122.15V125.42C212.96 125.81 213.28 126.13 213.67 126.13ZM214.03 125.06V122.5H218.55V125.06H214.03Z" fill="#F9FAFB"/>
<path d="M227.32 128.57C227.11 128.2 226.72 127.97 226.3 127.97H226.29H223.43V127.25C223.43 126.86 223.11 126.54 222.72 126.54H217.49C217.1 126.54 216.78 126.86 216.78 127.25V130.28H216.35V127.25C216.35 126.86 216.03 126.54 215.64 126.54H210.41C210.02 126.54 209.7 126.86 209.7 127.25V130.33L203.5 130.38C203.09 130.38 202.71 130.61 202.52 130.98C202.33 131.35 202.35 131.79 202.59 132.14L205.12 135.83C205.59 136.52 206.38 136.93 207.21 136.93H221.74C222.48 136.93 223.15 136.56 223.55 135.92L227.3 129.77C227.52 129.4 227.53 128.94 227.32 128.57ZM217.84 130.26V127.59H222.36V127.96H220.95C220.3 127.96 219.69 128.28 219.32 128.82L218.33 130.25L217.84 130.26ZM210.76 127.6H215.28V130.29L210.86 130.32H210.76V127.6ZM226.38 129.2L222.63 135.34C222.43 135.65 222.1 135.84 221.73 135.84H207.2C206.72 135.84 206.26 135.6 205.99 135.2L203.46 131.52C203.45 131.51 203.44 131.49 203.46 131.46C203.47 131.43 203.49 131.43 203.5 131.43L210.87 131.37L216.46 131.33L217.31 131.32L218.62 131.31C218.79 131.31 218.96 131.22 219.06 131.08L220.21 129.42C220.38 129.17 220.66 129.02 220.96 129.02H226.3C226.34 129.02 226.37 129.04 226.39 129.07C226.41 129.13 226.41 129.16 226.38 129.2Z" fill="#F9FAFB"/>
<path d="M257.55 126.7H230.98C230.37 126.7 229.88 126.21 229.88 125.6C229.88 124.99 230.37 124.5 230.98 124.5H257.55C258.16 124.5 258.65 124.99 258.65 125.6C258.66 126.21 258.16 126.7 257.55 126.7Z" fill="#F9FAFB"/>
<path d="M257.55 131.37H230.98C230.37 131.37 229.88 130.88 229.88 130.27C229.88 129.66 230.37 129.17 230.98 129.17H257.55C258.16 129.17 258.65 129.66 258.65 130.27C258.66 130.88 258.16 131.37 257.55 131.37Z" fill="#F9FAFB"/>
<path d="M240.5 136.05H230.98C230.37 136.05 229.88 135.56 229.88 134.95C229.88 134.34 230.37 133.85 230.98 133.85H240.5C241.11 133.85 241.6 134.34 241.6 134.95C241.6 135.56 241.11 136.05 240.5 136.05Z" fill="#F9FAFB"/>
<path d="M269.32 138.03L280.91 130.99C281.22 130.8 281.22 130.22 280.91 130.03L269.27 123.08C269 122.92 268.7 123.18 268.71 123.56L268.72 125.83C268.72 126.12 268.54 126.36 268.32 126.36L262.21 126.41C261.99 126.41 261.81 126.65 261.81 126.94L261.84 134.28C261.84 134.57 262.02 134.81 262.24 134.81L268.35 134.76C268.57 134.76 268.75 134.99 268.75 135.29L268.76 137.56C268.76 137.94 269.06 138.2 269.32 138.03Z" fill="#F9FAFB"/>
<path d="M320.69 310.26H312.86V352.02H320.69V310.26Z" fill="#0054A6"/>
<path d="M333.78 324.61H325.95V352.02H333.78V324.61Z" fill="#0054A6"/>
<path d="M346.87 289.14H339.04V352.02H346.87V289.14Z" fill="#0054A6"/>
<path d="M359.97 336.92H352.14V352.03H359.97V336.92Z" fill="#0054A6"/>
<path d="M373.06 297.55H365.23V352.02H373.06V297.55Z" fill="#0054A6"/>
<path d="M386.15 306.98H378.32V352.02H386.15V306.98Z" fill="#0054A6"/>
<path d="M399.24 317.23H391.41V352.02H399.24V317.23Z" fill="#0054A6"/>
<path d="M412.33 276.43H404.5V352.02H412.33V276.43Z" fill="#0054A6"/>
<path d="M425.42 284.43H417.59V352.02H425.42V284.43Z" fill="#0054A6"/>
<path d="M438.51 296.53H430.68V352.03H438.51V296.53Z" fill="#0054A6"/>
<path d="M451.6 338.32H443.77V352.02H451.6V338.32Z" fill="#0054A6"/>
<path d="M464.69 311.7H456.86V352.02H464.69V311.7Z" fill="#0054A6"/>
<path d="M173.52 199.7L172.87 200.78V200.79C172.77 200.96 172.54 201.02 172.37 200.91C172.2 200.81 172.14 200.58 172.25 200.41L172.91 199.32C173.01 199.15 173.23 199.1 173.4 199.2C173.57 199.3 173.63 199.52 173.52 199.7Z" fill="#0054A6"/>
<path d="M171.44 203.34L170.86 204.46V204.47C170.77 204.65 170.54 204.72 170.36 204.63C170.18 204.54 170.11 204.31 170.2 204.13L170.79 203.01C170.88 202.83 171.11 202.76 171.29 202.86C171.46 202.93 171.53 203.15 171.44 203.34Z" fill="#0054A6"/>
<path d="M169.57 207.09L169.06 208.24V208.25C168.97 208.44 168.75 208.53 168.56 208.44C168.37 208.35 168.28 208.13 168.37 207.94L168.89 206.78C168.98 206.59 169.2 206.51 169.39 206.59C169.58 206.68 169.66 206.9 169.57 207.09Z" fill="#0054A6"/>
<path d="M167.94 210.95L167.49 212.13V212.14C167.41 212.34 167.19 212.44 166.99 212.36C166.79 212.28 166.69 212.06 166.77 211.86L167.23 210.67C167.31 210.47 167.53 210.37 167.73 210.45C167.92 210.53 168.02 210.75 167.94 210.95Z" fill="#0054A6"/>
<path d="M166.53 214.9L166.15 216.1V216.11C166.08 216.32 165.86 216.43 165.66 216.37C165.45 216.3 165.34 216.08 165.4 215.88L165.79 214.67C165.86 214.46 166.08 214.35 166.28 214.42C166.48 214.47 166.6 214.69 166.53 214.9Z" fill="#0054A6"/>
<path d="M165.35 218.92L165.04 220.14V220.15C164.99 220.37 164.77 220.5 164.55 220.44C164.33 220.39 164.2 220.17 164.26 219.95L164.58 218.72C164.64 218.51 164.85 218.38 165.07 218.43C165.28 218.49 165.4 218.7 165.35 218.92Z" fill="#0054A6"/>
<path d="M164.4 223.01L164.16 224.24V224.25C164.12 224.47 163.9 224.62 163.68 224.57C163.46 224.53 163.31 224.31 163.36 224.09L163.61 222.84C163.65 222.62 163.87 222.48 164.09 222.52C164.3 222.56 164.44 222.78 164.4 223.01Z" fill="#0054A6"/>
<path d="M163.67 227.14L163.5 228.39V228.4C163.47 228.63 163.26 228.79 163.03 228.76C162.8 228.73 162.64 228.52 162.67 228.29L162.85 227.03C162.88 226.8 163.09 226.64 163.32 226.68C163.55 226.69 163.7 226.9 163.67 227.14Z" fill="#0054A6"/>
<path d="M163.18 231.3L163.08 232.55V232.56C163.06 232.79 162.85 232.97 162.62 232.95C162.39 232.93 162.21 232.72 162.23 232.49L162.34 231.22C162.36 230.99 162.57 230.81 162.8 230.83C163.02 230.86 163.2 231.06 163.18 231.3Z" fill="#0054A6"/>
<path d="M162.91 235.48L162.88 236.74V236.75C162.87 236.99 162.67 237.18 162.43 237.17C162.19 237.16 162 236.96 162.01 236.72L162.05 235.45C162.06 235.21 162.26 235.02 162.49 235.03C162.73 235.04 162.92 235.24 162.91 235.48Z" fill="#0054A6"/>
<path d="M162.88 239.68L162.91 240.94V240.95C162.92 241.19 162.72 241.4 162.48 241.4C162.24 241.41 162.03 241.21 162.03 240.97L162 239.7C161.99 239.46 162.19 239.26 162.43 239.25C162.67 239.23 162.87 239.43 162.88 239.68Z" fill="#0054A6"/>
<path d="M163.07 243.86L163.17 245.11V245.12C163.19 245.37 163.01 245.59 162.76 245.61C162.51 245.63 162.29 245.45 162.27 245.2L162.17 243.93C162.15 243.68 162.33 243.47 162.58 243.45C162.84 243.43 163.05 243.61 163.07 243.86Z" fill="#0054A6"/>
<path d="M163.5 248.03L163.67 249.28V249.29C163.7 249.54 163.53 249.77 163.28 249.81C163.03 249.84 162.8 249.67 162.76 249.42L162.59 248.16C162.56 247.91 162.73 247.68 162.98 247.65C163.24 247.6 163.46 247.77 163.5 248.03Z" fill="#0054A6"/>
<path d="M164.16 252.17L164.4 253.4V253.41C164.45 253.66 164.29 253.91 164.03 253.96C163.78 254.01 163.53 253.85 163.48 253.59L163.24 252.34C163.19 252.09 163.36 251.85 163.61 251.8C163.87 251.75 164.11 251.91 164.16 252.17Z" fill="#0054A6"/>
<path d="M165.05 256.26L165.36 257.48V257.49C165.43 257.74 165.27 258 165.02 258.07C164.77 258.14 164.51 257.98 164.44 257.73L164.13 256.5C164.07 256.25 164.22 255.99 164.47 255.93C164.73 255.85 164.99 256 165.05 256.26Z" fill="#0054A6"/>
<path d="M166.18 260.29L166.56 261.49V261.5C166.64 261.75 166.5 262.03 166.25 262.11C166 262.19 165.72 262.05 165.64 261.8L165.26 260.59C165.18 260.34 165.32 260.07 165.57 259.99C165.83 259.89 166.1 260.03 166.18 260.29Z" fill="#0054A6"/>
<path d="M167.55 264.25L168 265.42V265.43C168.1 265.68 167.97 265.97 167.72 266.06C167.47 266.16 167.18 266.03 167.09 265.78L166.63 264.59C166.53 264.34 166.66 264.06 166.91 263.96C167.17 263.86 167.45 263.99 167.55 264.25Z" fill="#0054A6"/>
<path d="M169.14 268.11L169.66 269.25V269.26C169.77 269.51 169.67 269.81 169.42 269.92C169.17 270.03 168.87 269.93 168.76 269.68L168.23 268.52C168.12 268.27 168.23 267.98 168.48 267.86C168.73 267.75 169.03 267.86 169.14 268.11Z" fill="#0054A6"/>
<path d="M170.97 271.88L171.56 272.99V273C171.69 273.25 171.6 273.55 171.35 273.69C171.1 273.82 170.8 273.73 170.66 273.48L170.06 272.35C169.93 272.1 170.02 271.8 170.27 271.67C170.53 271.53 170.84 271.63 170.97 271.88Z" fill="#0054A6"/>
<path d="M173.03 275.52L173.69 276.59V276.6C173.84 276.84 173.76 277.16 173.52 277.31C173.28 277.46 172.96 277.38 172.81 277.14L172.15 276.05C172 275.81 172.08 275.49 172.32 275.35C172.56 275.2 172.88 275.28 173.03 275.52Z" fill="#0054A6"/>
<path d="M175.29 279.04L176.01 280.07L176.02 280.08C176.18 280.31 176.13 280.64 175.89 280.8C175.66 280.96 175.33 280.91 175.17 280.67L174.44 279.63C174.28 279.4 174.33 279.07 174.57 278.91C174.8 278.74 175.13 278.8 175.29 279.04Z" fill="#0054A6"/>
<path d="M177.76 282.42L178.54 283.41L178.55 283.42C178.73 283.65 178.69 283.98 178.46 284.15C178.23 284.33 177.9 284.29 177.73 284.06L176.94 283.06C176.76 282.83 176.8 282.51 177.03 282.33C177.25 282.15 177.58 282.19 177.76 282.42Z" fill="#0054A6"/>
<path d="M180.42 285.65L181.25 286.59L181.26 286.6C181.45 286.82 181.43 287.15 181.21 287.34C180.99 287.53 180.66 287.51 180.47 287.29L179.63 286.33C179.44 286.11 179.46 285.78 179.68 285.59C179.89 285.41 180.22 285.43 180.42 285.65Z" fill="#0054A6"/>
<path d="M183.25 288.731L184.13 289.621L184.14 289.631C184.35 289.841 184.35 290.181 184.14 290.381C183.93 290.591 183.59 290.591 183.39 290.381L182.5 289.471C182.29 289.261 182.3 288.931 182.51 288.721C182.7 288.521 183.04 288.521 183.25 288.731Z" fill="#0054A6"/>
<path d="M186.25 291.65L187.18 292.49L187.19 292.5C187.41 292.7 187.43 293.04 187.23 293.26C187.03 293.48 186.69 293.5 186.47 293.3L185.53 292.44C185.31 292.24 185.29 291.9 185.49 291.68C185.69 291.46 186.03 291.44 186.25 291.65Z" fill="#0054A6"/>
<path d="M189.41 294.39L190.39 295.18L190.4 295.19C190.63 295.38 190.67 295.72 190.48 295.95C190.29 296.18 189.95 296.22 189.72 296.03L188.73 295.23C188.5 295.04 188.46 294.7 188.65 294.47C188.84 294.24 189.18 294.2 189.41 294.39Z" fill="#0054A6"/>
<path d="M192.72 296.96L193.74 297.69L193.75 297.7C193.99 297.88 194.05 298.22 193.87 298.46C193.69 298.7 193.35 298.76 193.11 298.58L192.08 297.83C191.84 297.65 191.78 297.31 191.96 297.07C192.13 296.83 192.47 296.78 192.72 296.96Z" fill="#0054A6"/>
<path d="M196.16 299.34L197.22 300.02H197.23C197.49 300.18 197.56 300.52 197.4 300.78C197.24 301.04 196.9 301.11 196.64 300.95L195.57 300.26C195.32 300.1 195.24 299.76 195.41 299.5C195.56 299.25 195.9 299.17 196.16 299.34Z" fill="#0054A6"/>
<path d="M199.73 301.53L200.82 302.15H200.83C201.1 302.3 201.19 302.64 201.04 302.91C200.89 303.18 200.55 303.27 200.28 303.12L199.17 302.49C198.9 302.34 198.81 302 198.96 301.74C199.12 301.47 199.46 301.37 199.73 301.53Z" fill="#0054A6"/>
<path d="M203.41 303.52L204.54 304.08H204.55C204.83 304.22 204.94 304.55 204.8 304.83C204.66 305.11 204.33 305.22 204.05 305.08L202.91 304.51C202.63 304.37 202.52 304.04 202.66 303.76C202.8 303.49 203.13 303.38 203.41 303.52Z" fill="#0054A6"/>
<path d="M207.2 305.29L208.35 305.78H208.36C208.65 305.9 208.78 306.23 208.66 306.52C208.54 306.81 208.21 306.94 207.92 306.82L206.75 306.32C206.46 306.2 206.33 305.87 206.45 305.58C206.58 305.3 206.91 305.17 207.2 305.29Z" fill="#0054A6"/>
<path d="M211.08 306.85L212.26 307.27H212.27C212.57 307.38 212.72 307.7 212.61 308C212.5 308.3 212.18 308.45 211.88 308.34L210.68 307.91C210.39 307.8 210.23 307.48 210.34 307.18C210.46 306.9 210.78 306.75 211.08 306.85Z" fill="#0054A6"/>
<path d="M215.05 308.191L216.25 308.551H216.26C216.56 308.641 216.74 308.961 216.65 309.261C216.56 309.561 216.24 309.741 215.94 309.651L214.72 309.291C214.42 309.201 214.25 308.881 214.34 308.581C214.42 308.271 214.74 308.101 215.05 308.191Z" fill="#0054A6"/>
<path d="M219.08 309.29L220.3 309.57H220.31C220.62 309.64 220.81 309.95 220.74 310.26C220.67 310.57 220.36 310.76 220.05 310.69L218.81 310.4C218.5 310.33 218.31 310.02 218.38 309.71C218.45 309.41 218.76 309.22 219.08 309.29Z" fill="#0054A6"/>
<path d="M223.17 310.151L224.41 310.361H224.42C224.74 310.411 224.95 310.711 224.9 311.031C224.85 311.351 224.55 311.561 224.23 311.511L222.97 311.291C222.65 311.241 222.44 310.941 222.5 310.621C222.54 310.311 222.84 310.091 223.17 310.151Z" fill="#0054A6"/>
<path d="M227.3 310.76L228.55 310.9H228.56C228.88 310.93 229.11 311.22 229.08 311.55C229.05 311.87 228.76 312.1 228.43 312.07L227.16 311.93C226.84 311.89 226.61 311.61 226.64 311.28C226.69 310.95 226.97 310.72 227.3 310.76Z" fill="#0054A6"/>
<path d="M231.47 311.131L232.72 311.191H232.73C233.06 311.211 233.31 311.481 233.29 311.811C233.27 312.141 233 312.391 232.67 312.371L231.4 312.3C231.07 312.28 230.83 312.011 230.84 311.681C230.86 311.361 231.14 311.111 231.47 311.131Z" fill="#0054A6"/>
<path d="M235.65 311.26L236.9 311.25H236.91C237.24 311.25 237.51 311.51 237.51 311.84C237.51 312.17 237.25 312.44 236.92 312.44H235.65C235.32 312.44 235.06 312.18 235.05 311.85C235.05 311.53 235.31 311.26 235.65 311.26Z" fill="#0054A6"/>
<path d="M239.83 311.16L241.08 311.09H241.09C241.42 311.07 241.7 311.32 241.72 311.65C241.74 311.98 241.49 312.26 241.16 312.28L239.89 312.35C239.56 312.37 239.28 312.12 239.26 311.79C239.24 311.46 239.49 311.18 239.83 311.16Z" fill="#0054A6"/>
<path d="M244 310.84L245.25 310.7H245.26C245.59 310.66 245.89 310.9 245.93 311.23C245.97 311.56 245.73 311.86 245.4 311.9L244.13 312.04C243.8 312.08 243.5 311.84 243.47 311.51C243.42 311.17 243.66 310.87 244 310.84Z" fill="#0054A6"/>
<path d="M248.15 310.3L249.39 310.1H249.4C249.73 310.05 250.04 310.27 250.1 310.6C250.15 310.93 249.93 311.24 249.6 311.3L248.34 311.5C248.01 311.55 247.7 311.33 247.64 311C247.59 310.67 247.81 310.36 248.15 310.3Z" fill="#0054A6"/>
<path d="M252.27 309.56L253.5 309.3H253.51C253.84 309.23 254.17 309.44 254.24 309.77C254.31 310.1 254.1 310.43 253.77 310.5L252.52 310.76C252.19 310.83 251.86 310.62 251.79 310.29C251.72 309.95 251.93 309.63 252.27 309.56Z" fill="#0054A6"/>
<path d="M256.35 308.62L257.56 308.3H257.57C257.9 308.21 258.24 308.41 258.32 308.74C258.41 309.07 258.21 309.41 257.88 309.49L256.65 309.81C256.32 309.9 255.98 309.7 255.9 309.37C255.82 309.04 256.01 308.7 256.35 308.62Z" fill="#0054A6"/>
<path d="M260.38 307.48L261.58 307.1H261.59C261.92 307 262.27 307.18 262.37 307.51C262.47 307.84 262.29 308.19 261.96 308.29L260.74 308.67C260.41 308.77 260.06 308.59 259.96 308.26C259.86 307.93 260.05 307.59 260.38 307.48Z" fill="#0054A6"/>
<path d="M264.36 306.17L265.54 305.74H265.55C265.87 305.62 266.23 305.79 266.35 306.11C266.47 306.43 266.3 306.79 265.98 306.91L264.78 307.34C264.46 307.46 264.1 307.29 263.98 306.97C263.86 306.65 264.03 306.29 264.36 306.17Z" fill="#0054A6"/>
<path d="M268.27 304.681L269.43 304.201H269.44C269.76 304.071 270.12 304.221 270.26 304.541C270.39 304.861 270.24 305.221 269.92 305.361L268.74 305.851C268.42 305.981 268.06 305.831 267.93 305.511C267.79 305.181 267.95 304.821 268.27 304.681Z" fill="#0054A6"/>
<path d="M272.12 303.02L273.26 302.49H273.27C273.58 302.34 273.96 302.48 274.1 302.79C274.24 303.1 274.11 303.48 273.8 303.62L272.65 304.15C272.34 304.3 271.97 304.16 271.82 303.85C271.66 303.54 271.8 303.17 272.12 303.02Z" fill="#0054A6"/>
<path d="M275.89 301.2L277.01 300.62H277.02C277.33 300.46 277.71 300.58 277.86 300.89C278.02 301.2 277.9 301.58 277.59 301.73L276.46 302.31C276.15 302.47 275.77 302.35 275.62 302.04C275.46 301.74 275.58 301.37 275.89 301.2Z" fill="#0054A6"/>
<path d="M279.59 299.23L280.68 298.61H280.69C280.99 298.44 281.38 298.54 281.55 298.84C281.72 299.14 281.62 299.53 281.32 299.7L280.21 300.33C279.91 300.5 279.53 300.4 279.35 300.09C279.17 299.79 279.28 299.4 279.59 299.23Z" fill="#0054A6"/>
<path d="M283.2 297.1L284.27 296.43H284.28C284.57 296.25 284.96 296.33 285.15 296.63C285.33 296.92 285.25 297.31 284.95 297.5L283.87 298.17C283.58 298.35 283.19 298.26 283 297.97C282.81 297.68 282.89 297.29 283.2 297.1Z" fill="#0054A6"/>
<path d="M286.72 294.83L287.76 294.12H287.77C288.06 293.92 288.45 294 288.65 294.29C288.85 294.58 288.77 294.97 288.48 295.17L287.43 295.89C287.14 296.09 286.75 296.01 286.55 295.72C286.35 295.43 286.42 295.03 286.72 294.83Z" fill="#0054A6"/>
<path d="M290.15 292.421L291.16 291.671H291.17C291.45 291.461 291.85 291.521 292.06 291.801C292.27 292.081 292.21 292.481 291.93 292.691L290.91 293.441C290.63 293.651 290.23 293.591 290.03 293.311C289.8 293.031 289.86 292.631 290.15 292.421Z" fill="#0054A6"/>
<path d="M293.49 289.89L294.47 289.11H294.48C294.75 288.89 295.15 288.94 295.37 289.21C295.59 289.48 295.54 289.88 295.27 290.1L294.27 290.89C294 291.11 293.6 291.06 293.38 290.79C293.16 290.51 293.21 290.11 293.49 289.89Z" fill="#0054A6"/>
<path d="M296.74 287.24L297.7 286.42C297.97 286.19 298.37 286.22 298.6 286.49C298.83 286.76 298.8 287.16 298.53 287.39L297.56 288.21C297.29 288.44 296.89 288.41 296.66 288.14C296.43 287.87 296.47 287.47 296.74 287.24Z" fill="#0054A6"/>
<path d="M299.89 284.48L300.82 283.63C301.08 283.39 301.48 283.41 301.72 283.67C301.96 283.93 301.94 284.33 301.68 284.57L300.74 285.43C300.48 285.67 300.08 285.65 299.84 285.39C299.61 285.12 299.63 284.72 299.89 284.48Z" fill="#0054A6"/>
<path d="M302.96 281.61L303.86 280.73C304.11 280.48 304.52 280.49 304.76 280.74C305.01 280.99 305 281.4 304.75 281.64L303.84 282.53C303.59 282.78 303.18 282.77 302.94 282.52C302.7 282.27 302.7 281.86 302.96 281.61Z" fill="#0054A6"/>
<path d="M305.93 278.65L306.8 277.74C307.05 277.49 307.45 277.48 307.71 277.72C307.97 277.96 307.97 278.37 307.73 278.63L306.85 279.54C306.6 279.79 306.2 279.8 305.95 279.56C305.69 279.32 305.68 278.91 305.93 278.65Z" fill="#0054A6"/>
<path d="M308.82 275.61L309.67 274.68C309.91 274.42 310.31 274.4 310.58 274.64C310.84 274.88 310.86 275.28 310.62 275.55L309.76 276.49C309.52 276.75 309.12 276.77 308.85 276.53C308.59 276.28 308.58 275.87 308.82 275.61Z" fill="#0054A6"/>
<path d="M311.61 272.481L312.43 271.531C312.66 271.261 313.07 271.231 313.34 271.461C313.61 271.691 313.64 272.101 313.41 272.371L312.58 273.331C312.35 273.601 311.94 273.631 311.67 273.401C311.41 273.151 311.38 272.751 311.61 272.481Z" fill="#0054A6"/>
<path d="M314.32 269.27L315.12 268.29C315.35 268.01 315.75 267.97 316.03 268.2C316.31 268.43 316.35 268.83 316.12 269.11L315.32 270.09C315.09 270.37 314.69 270.41 314.41 270.18C314.14 269.95 314.1 269.55 314.32 269.27Z" fill="#0054A6"/>
<path d="M316.95 265.99L317.72 264.99C317.94 264.71 318.34 264.66 318.63 264.87C318.91 265.09 318.96 265.49 318.75 265.78L317.97 266.78C317.75 267.06 317.35 267.11 317.06 266.89C316.78 266.68 316.73 266.28 316.95 265.99Z" fill="#0054A6"/>
<path d="M319.49 262.65L320.24 261.64C320.45 261.35 320.86 261.29 321.15 261.5C321.44 261.71 321.5 262.12 321.29 262.41L320.54 263.43C320.33 263.72 319.92 263.78 319.63 263.57C319.34 263.34 319.28 262.94 319.49 262.65Z" fill="#0054A6"/>
<path d="M321.95 259.24L322.67 258.21C322.88 257.92 323.28 257.85 323.57 258.05C323.86 258.26 323.93 258.66 323.73 258.95L323 259.99C322.79 260.28 322.39 260.35 322.1 260.15C321.82 259.95 321.74 259.54 321.95 259.24Z" fill="#0054A6"/>
<path d="M324.34 255.79L325.04 254.74C325.24 254.44 325.64 254.36 325.94 254.56C326.24 254.76 326.32 255.16 326.12 255.46L325.41 256.52C325.21 256.82 324.81 256.9 324.51 256.7C324.21 256.49 324.13 256.09 324.34 255.79Z" fill="#0054A6"/>
<path d="M326.65 252.27L327.33 251.21C327.52 250.91 327.93 250.82 328.23 251.01C328.53 251.2 328.62 251.61 328.43 251.91L327.75 252.98C327.56 253.28 327.15 253.37 326.85 253.18C326.54 252.98 326.45 252.58 326.65 252.27Z" fill="#0054A6"/>
<path d="M328.88 248.72L329.54 247.64C329.73 247.33 330.13 247.23 330.44 247.42C330.75 247.61 330.85 248.01 330.66 248.32L330 249.4C329.81 249.71 329.41 249.8 329.1 249.62C328.79 249.43 328.69 249.03 328.88 248.72Z" fill="#0054A6"/>
<path d="M331.05 245.12L331.69 244.03C331.87 243.72 332.28 243.61 332.59 243.8C332.9 243.98 333.01 244.39 332.82 244.7L332.18 245.79C332 246.1 331.59 246.21 331.28 246.02C330.97 245.83 330.87 245.43 331.05 245.12Z" fill="#0054A6"/>
<path d="M333.17 241.48L333.8 240.38C333.98 240.06 334.38 239.96 334.7 240.13C335.02 240.31 335.12 240.71 334.95 241.03L334.32 242.13C334.14 242.44 333.74 242.55 333.42 242.37C333.1 242.2 332.99 241.8 333.17 241.48Z" fill="#0054A6"/>
<path d="M335.24 237.82L335.85 236.72C336.03 236.4 336.43 236.29 336.75 236.46C337.07 236.64 337.18 237.04 337.01 237.36L336.39 238.47C336.21 238.79 335.81 238.9 335.5 238.72C335.18 238.53 335.06 238.13 335.24 237.82Z" fill="#0054A6"/>
<path d="M337.27 234.13L337.88 233.02C338.05 232.7 338.46 232.58 338.78 232.76C339.1 232.93 339.22 233.34 339.04 233.66L338.43 234.77C338.26 235.09 337.85 235.21 337.54 235.03C337.22 234.85 337.1 234.45 337.27 234.13Z" fill="#0054A6"/>
<path d="M339.28 230.43L339.88 229.32C340.05 229 340.45 228.88 340.78 229.05C341.1 229.22 341.22 229.62 341.05 229.95L340.45 231.06C340.28 231.38 339.88 231.5 339.55 231.33C339.23 231.15 339.11 230.75 339.28 230.43Z" fill="#0054A6"/>
<path d="M341.28 226.71L341.88 225.6C342.05 225.28 342.45 225.16 342.78 225.33C343.1 225.5 343.22 225.9 343.05 226.23L342.45 227.34C342.28 227.66 341.88 227.78 341.55 227.61C341.22 227.44 341.1 227.04 341.28 226.71Z" fill="#0054A6"/>
<path d="M343.26 223L343.86 221.88C344.03 221.56 344.44 221.43 344.76 221.61C345.08 221.78 345.21 222.19 345.03 222.51L344.43 223.62C344.26 223.94 343.85 224.06 343.53 223.89C343.21 223.72 343.09 223.32 343.26 223Z" fill="#0054A6"/>
<path d="M345.26 219.28L345.86 218.17C346.03 217.85 346.44 217.73 346.76 217.9C347.08 218.07 347.2 218.48 347.03 218.8L346.43 219.91C346.26 220.23 345.85 220.35 345.53 220.18C345.2 220.01 345.08 219.6 345.26 219.28Z" fill="#0054A6"/>
<path d="M347.26 215.57L347.87 214.46C348.05 214.14 348.45 214.02 348.78 214.19C349.1 214.37 349.22 214.77 349.05 215.1L348.44 216.21C348.26 216.53 347.86 216.65 347.53 216.47C347.21 216.3 347.09 215.89 347.26 215.57Z" fill="#0054A6"/>
<path d="M349.3 211.87L349.92 210.76C350.1 210.44 350.51 210.32 350.83 210.5C351.15 210.68 351.27 211.09 351.09 211.41L350.47 212.51C350.29 212.83 349.88 212.95 349.56 212.77C349.23 212.6 349.12 212.19 349.3 211.87Z" fill="#0054A6"/>
<path d="M351.37 208.19L352 207.09C352.18 206.77 352.59 206.66 352.91 206.84C353.23 207.02 353.34 207.43 353.16 207.75L352.53 208.85C352.35 209.17 351.94 209.28 351.62 209.1C351.3 208.92 351.19 208.51 351.37 208.19Z" fill="#0054A6"/>
<path d="M353.49 204.54L354.14 203.45C354.33 203.14 354.73 203.03 355.05 203.22C355.36 203.41 355.47 203.81 355.28 204.13L354.64 205.22C354.45 205.54 354.05 205.64 353.73 205.45C353.41 205.26 353.3 204.85 353.49 204.54Z" fill="#0054A6"/>
<path d="M355.66 200.911L356.32 199.831C356.51 199.521 356.92 199.421 357.23 199.611C357.54 199.801 357.64 200.211 357.45 200.521L356.79 201.591C356.6 201.901 356.19 202.001 355.88 201.811C355.57 201.631 355.47 201.221 355.66 200.911Z" fill="#0054A6"/>
<path d="M357.9 197.331L358.59 196.261C358.79 195.961 359.19 195.871 359.5 196.061C359.8 196.261 359.89 196.661 359.7 196.971L359.02 198.031C358.82 198.341 358.42 198.421 358.11 198.231C357.8 198.041 357.71 197.631 357.9 197.331Z" fill="#0054A6"/>
<path d="M360.22 193.79L360.93 192.74C361.13 192.44 361.54 192.36 361.84 192.56C362.14 192.76 362.22 193.17 362.02 193.47L361.32 194.52C361.12 194.82 360.71 194.9 360.41 194.7C360.1 194.49 360.02 194.09 360.22 193.79Z" fill="#0054A6"/>
<path d="M362.62 190.301L363.36 189.271C363.57 188.981 363.97 188.911 364.26 189.121C364.55 189.331 364.62 189.731 364.41 190.021L363.68 191.051C363.47 191.341 363.07 191.411 362.77 191.201C362.48 191.001 362.41 190.591 362.62 190.301Z" fill="#0054A6"/>
<path d="M365.12 186.88L365.89 185.87C366.11 185.59 366.51 185.53 366.79 185.75C367.07 185.97 367.13 186.37 366.91 186.65L366.15 187.65C365.93 187.93 365.53 187.99 365.24 187.77C364.96 187.57 364.9 187.17 365.12 186.88Z" fill="#0054A6"/>
<path d="M367.72 183.54L368.52 182.55C368.74 182.27 369.15 182.23 369.42 182.46C369.7 182.68 369.74 183.09 369.51 183.36L368.72 184.34C368.5 184.62 368.09 184.66 367.82 184.43C367.54 184.22 367.5 183.82 367.72 183.54Z" fill="#0054A6"/>
<path d="M370.43 180.291L371.26 179.331C371.49 179.061 371.89 179.041 372.16 179.271C372.43 179.501 372.45 179.901 372.22 180.171L371.4 181.121C371.17 181.391 370.76 181.421 370.5 181.181C370.23 180.961 370.2 180.551 370.43 180.291Z" fill="#0054A6"/>
<path d="M373.25 177.12L374.12 176.19C374.36 175.93 374.76 175.92 375.02 176.16C375.28 176.4 375.29 176.8 375.05 177.06L374.19 177.98V177.99C373.95 178.25 373.55 178.26 373.29 178.02C373.02 177.78 373.01 177.38 373.25 177.12Z" fill="#0054A6"/>
<path d="M376.18 174.06L377.08 173.16C377.33 172.91 377.73 172.92 377.97 173.16C378.21 173.4 378.21 173.81 377.97 174.05L377.08 174.94L377.07 174.95C376.82 175.2 376.42 175.2 376.17 174.95C375.93 174.71 375.93 174.31 376.18 174.06Z" fill="#0054A6"/>
<path d="M379.23 171.12L380.17 170.26C380.43 170.03 380.82 170.04 381.06 170.3C381.29 170.56 381.28 170.95 381.02 171.19H381.01L380.08 172.04L380.07 172.05C379.81 172.29 379.42 172.27 379.18 172.01C378.96 171.75 378.98 171.35 379.23 171.12Z" fill="#0054A6"/>
<path d="M382.4 168.301L383.37 167.481C383.63 167.261 384.03 167.291 384.25 167.561C384.47 167.821 384.44 168.221 384.17 168.441H384.16L383.2 169.251L383.19 169.261C382.93 169.481 382.53 169.451 382.31 169.181C382.09 168.911 382.14 168.521 382.4 168.301Z" fill="#0054A6"/>
<path d="M385.69 165.62L386.7 164.85C386.97 164.64 387.36 164.69 387.57 164.97C387.78 165.24 387.73 165.63 387.45 165.84H387.44L386.44 166.6L386.43 166.61C386.16 166.82 385.77 166.77 385.56 166.49C385.37 166.22 385.42 165.83 385.69 165.62Z" fill="#0054A6"/>
<path d="M389.11 163.1L390.16 162.38C390.44 162.19 390.82 162.26 391.02 162.54C391.21 162.82 391.14 163.2 390.86 163.4H390.85L389.82 164.12L389.81 164.13C389.53 164.32 389.14 164.26 388.95 163.97C388.76 163.68 388.83 163.3 389.11 163.1Z" fill="#0054A6"/>
<path d="M392.66 160.76L393.75 160.09C394.04 159.92 394.41 160.01 394.58 160.29C394.75 160.58 394.66 160.95 394.38 161.12H394.37L393.3 161.78L393.29 161.79C393 161.97 392.63 161.88 392.45 161.59C392.28 161.31 392.37 160.94 392.66 160.76Z" fill="#0054A6"/>
<path d="M396.32 158.61L397.44 158.01C397.73 157.85 398.09 157.96 398.25 158.25C398.41 158.54 398.3 158.9 398.01 159.06H398L396.9 159.66H396.89C396.6 159.82 396.24 159.71 396.08 159.42C395.92 159.13 396.03 158.77 396.32 158.61Z" fill="#0054A6"/>
<path d="M400.11 156.68L401.27 156.14C401.56 156 401.91 156.13 402.05 156.43C402.19 156.72 402.06 157.07 401.76 157.21H401.75L400.61 157.74H400.6C400.31 157.88 399.96 157.75 399.82 157.46C399.68 157.17 399.81 156.82 400.11 156.68Z" fill="#0054A6"/>
<path d="M404 154.97L405.19 154.51C405.49 154.39 405.82 154.54 405.93 154.84C406.05 155.14 405.9 155.47 405.6 155.58H405.59L404.42 156.04H404.41C404.11 156.16 403.78 156.01 403.66 155.71C403.56 155.43 403.7 155.09 404 154.97Z" fill="#0054A6"/>
<path d="M408 153.52L409.22 153.14C409.52 153.05 409.84 153.21 409.93 153.51C410.02 153.81 409.86 154.13 409.56 154.22H409.55L408.36 154.6H408.35C408.05 154.7 407.73 154.53 407.64 154.23C407.53 153.94 407.7 153.62 408 153.52Z" fill="#0054A6"/>
<path d="M412.08 152.34L413.32 152.04C413.62 151.97 413.92 152.15 413.99 152.45C414.06 152.75 413.88 153.05 413.58 153.12H413.57L412.35 153.42H412.34C412.04 153.49 411.74 153.31 411.66 153.01C411.6 152.71 411.78 152.41 412.08 152.34Z" fill="#0054A6"/>
<path d="M416.25 151.44L417.51 151.24C417.81 151.19 418.09 151.39 418.13 151.69C418.18 151.99 417.98 152.27 417.68 152.31H417.67L416.44 152.51H416.43C416.13 152.56 415.85 152.36 415.8 152.06C415.74 151.77 415.94 151.49 416.25 151.44Z" fill="#0054A6"/>
<path d="M420.47 150.89L421.75 150.8C422.04 150.78 422.3 151 422.32 151.3C422.34 151.59 422.12 151.85 421.82 151.87H421.81L420.56 151.96H420.54C420.24 151.98 419.99 151.76 419.96 151.46C419.95 151.18 420.17 150.92 420.47 150.89Z" fill="#0054A6"/>
<path d="M424.74 150.75L426.02 150.79C426.31 150.8 426.54 151.04 426.53 151.33C426.52 151.62 426.28 151.85 425.99 151.84H425.97L424.72 151.8H424.7C424.41 151.79 424.18 151.55 424.19 151.26C424.2 150.97 424.44 150.74 424.74 150.75Z" fill="#0054A6"/>
<path d="M429 151.06L430.27 151.26C430.55 151.3 430.74 151.57 430.7 151.85C430.66 152.13 430.39 152.32 430.11 152.28H430.09L428.86 152.1H428.84C428.56 152.06 428.36 151.79 428.4 151.51C428.45 151.21 428.72 151.02 429 151.06Z" fill="#0054A6"/>
<path d="M433.2 151.91L434.43 152.28C434.69 152.36 434.84 152.64 434.76 152.9C434.68 153.16 434.4 153.31 434.14 153.23L434.12 153.22L432.93 152.87L432.91 152.86C432.64 152.78 432.49 152.5 432.57 152.23C432.65 151.99 432.93 151.83 433.2 151.91Z" fill="#0054A6"/>
<path d="M437.23 153.38L438.39 153.94C438.63 154.06 438.73 154.35 438.61 154.59C438.49 154.83 438.21 154.93 437.97 154.81L437.95 154.8L436.83 154.27L436.81 154.26C436.57 154.14 436.46 153.85 436.58 153.61C436.69 153.36 436.98 153.26 437.23 153.38Z" fill="#0054A6"/>
<path d="M440.97 155.491L442.01 156.261C442.22 156.411 442.26 156.711 442.1 156.911C441.95 157.121 441.66 157.161 441.45 157.011L441.43 156.991L440.43 156.261L440.41 156.241C440.2 156.091 440.16 155.791 440.31 155.581C440.46 155.381 440.76 155.331 440.97 155.491Z" fill="#0054A6"/>
<path d="M444.23 158.31L445.09 159.27C445.26 159.46 445.24 159.74 445.05 159.91C444.87 160.07 444.58 160.06 444.42 159.88L444.4 159.86L443.57 158.94L443.55 158.92C443.38 158.73 443.4 158.45 443.58 158.28C443.77 158.1 444.05 158.12 444.23 158.31Z" fill="#0054A6"/>
<path d="M446.86 161.7L447.52 162.81C447.64 163.02 447.57 163.28 447.37 163.4C447.16 163.52 446.9 163.45 446.78 163.25L446.77 163.23L446.13 162.17L446.12 162.15C446 161.94 446.06 161.67 446.27 161.55C446.46 161.42 446.73 161.49 446.86 161.7Z" fill="#0054A6"/>
<path d="M448.78 165.541L449.2 166.761C449.27 166.981 449.16 167.221 448.94 167.291C448.72 167.361 448.49 167.251 448.41 167.031L448.4 167.001L447.99 165.831L447.98 165.801C447.9 165.581 448.02 165.341 448.24 165.261C448.46 165.201 448.7 165.321 448.78 165.541Z" fill="#0054A6"/>
<path d="M449.86 169.701L449.99 170.991C450.01 171.211 449.85 171.401 449.63 171.431C449.41 171.451 449.22 171.301 449.19 171.081V171.051L449.05 169.821V169.791C449.02 169.571 449.18 169.371 449.41 169.341C449.64 169.321 449.84 169.481 449.86 169.701Z" fill="#0054A6"/>
<path d="M449.92 174.01L449.71 175.29C449.68 175.5 449.48 175.63 449.28 175.6C449.08 175.57 448.94 175.38 448.97 175.17V175.14L449.15 173.92V173.89C449.18 173.68 449.38 173.54 449.59 173.57C449.81 173.6 449.95 173.79 449.92 174.01Z" fill="#0054A6"/>
<path d="M448.81 178.17L448.65 178.53C448.57 178.71 448.36 178.79 448.18 178.71C448 178.63 447.92 178.42 448 178.24V178.23L448.15 177.88V177.87C448.23 177.69 448.44 177.6 448.63 177.68C448.81 177.77 448.89 177.98 448.81 178.17Z" fill="#0054A6"/>
</svg>
