<svg width="137" height="96" viewBox="0 0 137 96" fill="none" xmlns="http://www.w3.org/2000/svg">
<path d="M68.1264 96C105.214 96 135.279 94.4683 135.279 92.5789C135.279 90.6894 105.214 89.1577 68.1264 89.1577C31.039 89.1577 0.973633 90.6894 0.973633 92.5789C0.973633 94.4683 31.039 96 68.1264 96Z" fill="#D2D9DC"/>
<path d="M57.4502 66.4236L55.0122 88.2866H83.2919L79.6102 66.4236H57.4502Z" fill="#5F737C"/>
<path d="M89.3822 92.7603H47.9952C46.8702 92.7603 46.0256 91.9586 46.2433 91.1009L46.7745 88.9993C46.9329 88.3692 47.629 87.904 48.4537 87.8776L88.3561 86.6339C89.2172 86.6075 89.9826 87.0661 90.1706 87.7226L91.1274 91.0679C91.3748 91.9322 90.5269 92.7603 89.3822 92.7603Z" fill="#839299"/>
<path d="M5.23561 72.7249C5.15643 72.7249 5.09375 72.6622 5.09375 72.583C5.09375 72.5071 5.15643 72.4411 5.23561 72.4411L133.161 72.3455C133.24 72.3455 133.303 72.4081 133.303 72.4873C133.303 72.5632 133.24 72.6292 133.161 72.6292L5.23561 72.7249Z" fill="#002548"/>
<path d="M128.163 75.6348H8.08935C3.62239 75.6348 0 72.0124 0 67.5454V8.08935C0 3.62239 3.62239 0 8.08935 0H128.163C132.63 0 136.252 3.62239 136.252 8.08935V67.5454C136.252 72.0124 132.63 75.6348 128.163 75.6348Z" fill="#839299"/>
<path d="M127.863 71.0458H8.38994C6.06078 71.0458 4.17041 69.1588 4.17041 66.8263V8.80864C4.17041 6.47948 6.05749 4.58911 8.38994 4.58911H127.863C130.192 4.58911 132.082 6.47618 132.082 8.80864V66.8296C132.082 69.1588 130.192 71.0458 127.863 71.0458Z" fill="#D2D9DC"/>
<path d="M10.4152 71.0523L10.0952 68.5812C9.68939 66.8987 11.7513 65.2855 13.4833 65.269L84.3608 64.6883C86.1621 64.6751 87.6302 66.13 87.6302 67.9313V70.8675L10.4152 71.0523Z" fill="#0054A6"/>
<path d="M91.022 71.0523L90.8636 68.5812C90.6624 66.8987 91.6818 65.2855 92.5395 65.269L127.612 64.6883C128.503 64.6751 129.229 66.13 129.229 67.9313V68.5054C129.229 69.8118 128.173 70.8741 126.866 70.8807L91.022 71.0523Z" fill="#0054A6"/>
<path d="M87.0659 26.4323L125.979 25.7758C127.546 25.7494 128.803 27.0921 128.71 28.6955L127.371 51.7297C127.298 52.9899 126.282 53.9763 125.048 53.9895L87.6432 54.359C86.7195 54.3689 85.9574 53.6233 85.9211 52.6765L85.0271 28.6361C84.9809 27.4451 85.9013 26.4521 87.0659 26.4323Z" fill="#F9FAFB"/>
<path d="M87.6591 27.0196L125.559 26.3927C127.083 26.3663 128.31 27.6464 128.218 29.1706L126.915 51.0864C126.842 52.2872 125.856 53.2242 124.655 53.2374L88.2266 53.5904C87.3259 53.6003 86.5836 52.891 86.5506 51.9903L85.6797 29.1178C85.6302 27.9829 86.5276 27.0361 87.6591 27.0196Z" fill="#0054A6"/>
<path d="M88.3702 27.7749L124.459 27.1778C125.91 27.1547 127.078 28.3721 126.993 29.8204L125.749 50.6871C125.68 51.8286 124.739 52.7226 123.598 52.7358L88.908 53.0723C88.0502 53.0822 87.3442 52.4059 87.3112 51.5481L86.4798 29.7676C86.4403 28.6921 87.2914 27.7914 88.3702 27.7749Z" fill="#F9FAFB"/>
<path d="M125.646 26.3761L87.5879 27.003C86.4497 27.0228 85.5523 27.9729 85.5952 29.1078L85.6579 30.721H128.226L128.318 29.1639C128.411 27.6331 127.18 26.3497 125.646 26.3761Z" fill="#0054A6"/>
<path d="M88.7848 27.7816C88.7848 27.9696 88.6331 28.1247 88.4417 28.1247C88.2504 28.1247 88.0986 27.9729 88.0986 27.7816C88.0986 27.5935 88.2504 27.4385 88.4417 27.4385C88.6331 27.4385 88.7848 27.5935 88.7848 27.7816Z" fill="#D2D9DC"/>
<path d="M88.7848 28.7845C88.7848 28.9726 88.6331 29.1276 88.4417 29.1276C88.2504 29.1276 88.0986 28.9759 88.0986 28.7845C88.0986 28.5965 88.2504 28.4414 88.4417 28.4414C88.6331 28.4414 88.7848 28.5965 88.7848 28.7845Z" fill="#D2D9DC"/>
<path d="M88.7848 29.7874C88.7848 29.9755 88.6331 30.1305 88.4417 30.1305C88.2504 30.1305 88.0986 29.9788 88.0986 29.7874C88.0986 29.5994 88.2504 29.4443 88.4417 29.4443C88.6331 29.4443 88.7848 29.5994 88.7848 29.7874Z" fill="#D2D9DC"/>
<path d="M106.543 34.383C106.54 34.8218 106.184 35.1748 105.742 35.1715C105.303 35.1682 104.95 34.8119 104.953 34.3698C104.956 33.931 105.313 33.578 105.755 33.5813C106.194 33.5846 106.547 33.9442 106.543 34.383Z" fill="#839299"/>
<path d="M106.517 34.3828C106.513 34.8084 106.167 35.1482 105.745 35.1449C105.319 35.1416 104.979 34.7952 104.982 34.373C104.986 33.9474 105.332 33.6076 105.754 33.6109C106.177 33.6109 106.52 33.9573 106.517 34.3828Z" fill="#839299"/>
<path d="M105.117 34.0528C105.236 33.8219 105.477 33.6635 105.754 33.6668C105.797 33.6668 105.84 33.6701 105.883 33.68L105.117 34.0528Z" fill="#839299"/>
<path d="M107.768 34.34L107.771 34.4753C107.781 34.8415 108.009 35.1318 108.289 35.1351L123.755 35.1681C124.046 35.1681 124.28 34.8613 124.28 34.4852C124.28 34.1124 124.052 33.8122 123.768 33.8023L108.299 33.634C107.999 33.6241 107.758 33.9474 107.768 34.34Z" fill="#839299"/>
<path d="M123.095 48.5062L89.8929 49.0968C89.3089 49.1067 88.8701 49.6312 88.9625 50.2086L89.1077 51.1257C89.1836 51.5909 89.586 51.934 90.0578 51.934L122.969 51.8053C123.458 51.802 123.867 51.4325 123.92 50.9476L124.065 49.5719C124.124 48.9912 123.669 48.4964 123.095 48.5062Z" fill="#002548"/>
<path d="M108.727 44.8509H117.852V38.5167C117.852 38.2032 117.598 37.9492 117.284 37.9492H109.565C109.103 37.9492 108.73 38.322 108.73 38.7839V44.8509H108.727Z" fill="#002548"/>
<path d="M109.41 44.7258H117.849V37.8208H110.245C109.783 37.8208 109.41 38.1936 109.41 38.6555V44.7258Z" fill="#0054A6"/>
<path d="M98.5077 34.5891H98.8838V31.1251H98.5077V34.5891Z" fill="#839299"/>
<path d="M98.2197 31.3644H99.2424V31.3611C99.2424 31.2291 99.1369 31.1235 99.0049 31.1235H98.4573C98.3253 31.1235 98.2197 31.2291 98.2197 31.3644Z" fill="#839299"/>
<path d="M99.5924 35.4407H100.259V33.6691H99.5924V35.4407Z" fill="#839299"/>
<path d="M94.6998 35.4407H95.3662V33.6691H94.6998V35.4407Z" fill="#839299"/>
<path d="M102.245 39.3086H93.5752V44.2506H102.245V39.3086Z" fill="#0054A6"/>
<path d="M94.2894 39.3449H100.881V34.548C100.881 34.4688 100.815 34.4028 100.736 34.4028H94.2861V39.3449H94.2894Z" fill="#0054A6"/>
<path d="M93.5943 39.7044H102.126C102.297 39.7044 102.436 39.5659 102.436 39.3943V39.292C102.436 39.1205 102.297 38.9819 102.126 38.9819H93.5943C93.4227 38.9819 93.2842 39.1205 93.2842 39.292V39.3943C93.2842 39.5659 93.4227 39.7044 93.5943 39.7044Z" fill="#002548"/>
<path d="M95.7844 35.1387H95.0322V36.6035H95.7844V35.1387Z" fill="#002548"/>
<path d="M97.0774 35.1387H96.3252V36.6035H97.0774V35.1387Z" fill="#002548"/>
<path d="M98.6116 35.1387H97.8594V36.6035H98.6116V35.1387Z" fill="#002548"/>
<path d="M99.9055 35.1387H99.1533V36.6035H99.9055V35.1387Z" fill="#002548"/>
<path d="M96.2268 40.5195H95.4746V41.9843H96.2268V40.5195Z" fill="#002548"/>
<path d="M97.5198 40.5195H96.7676V41.9843H97.5198V40.5195Z" fill="#002548"/>
<path d="M99.053 40.5195H98.3008V41.9843H99.053V40.5195Z" fill="#002548"/>
<path d="M100.347 40.5195H99.5947V41.9843H100.347V40.5195Z" fill="#002548"/>
<path d="M119.271 46.3653C117.618 47.1604 116.097 48.0148 115.629 49.1926L96.1409 49.2982L95.425 46.5006C95.2567 45.8506 94.7256 45.2964 93.9866 45.0028C91.5981 44.0559 89.7374 43.34 89.8495 41.8686L102.558 41.7532C102.647 41.7532 102.723 41.8093 102.752 41.8917L102.937 42.4526C103.161 43.1322 103.914 43.6106 104.784 43.6271L116.015 43.8382L116.443 43.0761C116.48 43.0134 116.546 42.9771 116.615 42.9771L121.075 42.9936C121.168 42.9936 121.224 43.0959 121.178 43.1751L119.271 46.3653Z" fill="#F9FAFB"/>
<path d="M119.271 46.8109C117.618 47.606 116.097 49.0807 115.629 50.2584L96.141 50.364L95.4251 46.9462C95.2568 46.2963 94.7257 45.742 93.9867 45.4484C91.5981 44.5015 89.9816 43.459 89.8496 42.3143L102.294 42.1394C102.373 42.1394 102.442 42.1856 102.475 42.2549L102.802 42.9939C103.122 43.7032 103.917 44.0562 104.788 44.0727L116.018 44.2838L116.43 43.5514C116.477 43.4722 116.562 43.4195 116.655 43.4195L121.085 43.3733L119.271 46.8109Z" fill="#839299"/>
<path d="M115.536 46.4082C115.186 46.4082 114.899 46.1212 114.899 45.7715C114.899 45.4218 115.186 45.1348 115.536 45.1348C115.886 45.1348 116.173 45.4218 116.173 45.7715C116.173 46.1212 115.886 46.4082 115.536 46.4082ZM115.536 45.2832C115.266 45.2832 115.048 45.501 115.048 45.7715C115.048 46.042 115.266 46.2598 115.536 46.2598C115.807 46.2598 116.024 46.042 116.024 45.7715C116.024 45.5043 115.803 45.2832 115.536 45.2832Z" fill="#0054A6"/>
<path d="M113.511 46.4082C113.161 46.4082 112.874 46.1212 112.874 45.7715C112.874 45.4218 113.161 45.1348 113.511 45.1348C113.86 45.1348 114.147 45.4218 114.147 45.7715C114.147 46.1212 113.86 46.4082 113.511 46.4082ZM113.511 45.2832C113.24 45.2832 113.022 45.501 113.022 45.7715C113.022 46.042 113.24 46.2598 113.511 46.2598C113.781 46.2598 113.999 46.042 113.999 45.7715C113.999 45.5043 113.778 45.2832 113.511 45.2832Z" fill="#0054A6"/>
<path d="M111.689 46.3621C111.34 46.3621 111.053 46.0751 111.053 45.7253C111.053 45.3756 111.34 45.0886 111.689 45.0886C112.039 45.0886 112.326 45.3756 112.326 45.7253C112.326 46.0751 112.042 46.3621 111.689 46.3621ZM111.689 45.2371C111.419 45.2371 111.201 45.4548 111.201 45.7253C111.201 45.9959 111.419 46.2136 111.689 46.2136C111.96 46.2136 112.178 45.9959 112.178 45.7253C112.178 45.4548 111.96 45.2371 111.689 45.2371Z" fill="#0054A6"/>
<path d="M100.348 44.0095C99.998 44.0095 99.7109 43.7225 99.7109 43.3728C99.7109 43.0231 99.998 42.7361 100.348 42.7361C100.697 42.7361 100.984 43.0231 100.984 43.3728C100.984 43.7225 100.697 44.0095 100.348 44.0095ZM100.348 42.8845C100.077 42.8845 99.8594 43.1023 99.8594 43.3728C99.8594 43.6433 100.077 43.8611 100.348 43.8611C100.618 43.8611 100.836 43.6433 100.836 43.3728C100.836 43.1023 100.615 42.8845 100.348 42.8845Z" fill="#0054A6"/>
<path d="M98.3018 44.0095C97.9521 44.0095 97.665 43.7225 97.665 43.3728C97.665 43.0231 97.9521 42.7361 98.3018 42.7361C98.6515 42.7361 98.9385 43.0231 98.9385 43.3728C98.9385 43.7225 98.6515 44.0095 98.3018 44.0095ZM98.3018 42.8845C98.0312 42.8845 97.8135 43.1023 97.8135 43.3728C97.8135 43.6433 98.0312 43.8611 98.3018 43.8611C98.5723 43.8611 98.79 43.6433 98.79 43.3728C98.79 43.1023 98.5723 42.8845 98.3018 42.8845Z" fill="#0054A6"/>
<path d="M96.7012 44.0095C96.3515 44.0095 96.0645 43.7225 96.0645 43.3728C96.0645 43.0231 96.3515 42.7361 96.7012 42.7361C97.0509 42.7361 97.3379 43.0231 97.3379 43.3728C97.3379 43.7225 97.0542 44.0095 96.7012 44.0095ZM96.7012 42.8845C96.4306 42.8845 96.2129 43.1023 96.2129 43.3728C96.2129 43.6433 96.4306 43.8611 96.7012 43.8611C96.9717 43.8611 97.1894 43.6433 97.1894 43.3728C97.1894 43.1023 96.9717 42.8845 96.7012 42.8845Z" fill="#0054A6"/>
<path d="M116.214 44.9368L105.264 44.7422C105.224 44.7422 105.191 44.7092 105.191 44.6663C105.191 44.6267 105.224 44.5904 105.267 44.5937L116.217 44.7884C116.257 44.7884 116.29 44.8214 116.29 44.8642C116.29 44.9038 116.257 44.9368 116.214 44.9368Z" fill="#002548"/>
<path d="M91.486 42.6869C91.4464 42.6869 91.4135 42.6539 91.4102 42.6143C91.4102 42.5747 91.4431 42.5384 91.4827 42.5384L100.961 42.3438C101.004 42.347 101.037 42.3767 101.037 42.4163C101.037 42.4559 101.004 42.4922 100.964 42.4922L91.486 42.6869Z" fill="#002548"/>
<path d="M77.3074 57.6515L11.5369 59.2845C10.115 59.3208 8.94385 58.0408 8.94385 56.4539V28.2237C8.94385 26.6599 10.0787 25.3931 11.4808 25.3931H77.2514C78.6535 25.3931 79.7883 26.6599 79.7883 28.2237V54.8209C79.785 56.3616 78.6832 57.6185 77.3074 57.6515Z" fill="#002548"/>
<path fill-rule="evenodd" clip-rule="evenodd" d="M57.0866 29.4937H59.9469C60.0426 29.4937 60.1218 29.5629 60.1251 29.6487L60.1514 30.8364C60.1547 30.9321 60.2537 31.0046 60.3593 30.9881L65.585 30.1667C65.5949 30.1667 65.6048 30.1634 65.6147 30.1634H69.2074C69.2173 30.1634 69.2239 30.1634 69.2338 30.1601L73.295 29.6124C73.3445 29.6058 73.394 29.619 73.4335 29.6454L74.3309 30.2953C74.4068 30.3481 74.4167 30.4471 74.3606 30.5131L73.2653 31.7865C73.2323 31.8228 73.2224 31.869 73.2323 31.9152L73.7239 34.0002C73.7305 34.0332 73.7272 34.0695 73.7107 34.0992L72.0215 37.3257C71.9655 37.4312 71.8038 37.4477 71.7213 37.3554L70.7184 36.2205C70.6854 36.1842 70.6722 36.138 70.6854 36.0918L71.1077 34.2542C71.144 34.0959 70.9229 33.9969 70.8009 34.1157L69.7419 35.1648C69.7221 35.1846 69.6957 35.2011 69.6693 35.2077L68.4387 35.5871C68.3959 35.6003 68.3596 35.6267 68.3398 35.6629L67.7393 36.6725C67.6799 36.7681 67.7492 36.8869 67.8713 36.9034L69.2602 37.0716C69.346 37.0815 69.4087 37.1442 69.412 37.2201L69.6033 40.4466C69.6066 40.4961 69.5835 40.5456 69.5373 40.5786L68.2309 41.5188C68.1715 41.5617 68.1484 41.6343 68.1781 41.7003L68.4816 42.3766C68.5245 42.4755 68.4486 42.5844 68.3299 42.591L67.9736 42.6141C67.9142 42.6174 67.8548 42.5943 67.8185 42.5514L66.7991 41.3638C66.71 41.2615 66.5286 41.2912 66.489 41.4165L66.3834 41.7497C66.3702 41.7893 66.3768 41.8289 66.3966 41.8652L67.3929 43.5741C67.4292 43.6335 67.416 43.7094 67.3632 43.7556L65.6147 45.3655C65.529 45.4447 65.4036 45.4744 65.2881 45.4447L64.978 45.3655C64.8064 45.3227 64.6283 45.4084 64.5755 45.5602C64.5425 45.6493 64.5623 45.7482 64.625 45.8208L65.5256 46.9029C65.6246 47.0217 65.6081 47.1866 65.4894 47.2889L64.9945 47.7112C64.8658 47.8201 64.6613 47.8201 64.5359 47.7079L61.7647 45.2864C61.636 45.1742 61.4282 45.1742 61.2995 45.2897L59.8182 46.6192C59.7754 46.6588 59.7457 46.7083 59.7292 46.7611L59.6071 47.2427C59.5477 47.4868 59.1947 47.5561 59.0232 47.3582L56.694 44.6628C56.6313 44.5903 56.539 44.5408 56.4367 44.5276L54.8333 44.323C54.7871 44.3164 54.7442 44.3032 54.7014 44.2834L54.0382 43.9634C53.8535 43.8744 53.649 44.0459 53.7347 44.2142L53.8865 44.5111C53.9426 44.6199 54.0547 44.6958 54.1867 44.7123L55.3051 44.8641C55.447 44.8839 55.5657 44.9697 55.6152 45.0884L55.6713 45.2171C55.7373 45.3721 55.6713 45.547 55.5162 45.6394L53.0485 47.0481C52.9364 47.1108 52.7912 47.0745 52.7318 46.9689L51.2406 44.1944C51.1911 44.1053 51.0724 44.0624 50.9668 44.0954C50.8447 44.135 50.7886 44.2603 50.8447 44.3626L52.1149 46.7116C52.3293 47.1075 52.8275 47.3153 53.3091 47.2064L53.517 47.1602C53.8205 47.091 54.0877 47.3483 53.9921 47.6122L53.6786 48.4667C53.6556 48.5327 53.6094 48.5887 53.55 48.6316L52.4184 49.4432C52.1578 49.6313 52.0126 49.9216 52.0324 50.2185L52.0951 51.162C52.1149 51.4425 51.9862 51.7163 51.752 51.9043L51.2967 52.2705C51.0988 52.4289 50.9998 52.6598 51.0295 52.8973L51.0526 53.0887C51.0823 53.3196 50.9866 53.5506 50.7919 53.7089L49.0632 55.1242C48.8686 55.2859 48.5948 55.3519 48.3341 55.3024L47.9976 55.2397C47.7139 55.1869 47.483 55.0022 47.3906 54.758L46.4207 52.1946C46.3151 51.9175 46.4075 51.6107 46.6516 51.4161C46.8924 51.2247 46.9848 50.9212 46.8858 50.6474L46.3481 49.1595C46.16 48.6415 45.5596 48.3347 44.9625 48.4568L43.5966 48.7372C43.4845 48.7603 43.3657 48.7339 43.2799 48.6646L41.3434 47.1371C41.2675 47.0778 41.2246 46.9887 41.2246 46.8996V45.1115C41.2246 44.6298 41.416 44.1647 41.7657 43.7952L41.9999 43.5477C42.4387 43.0892 43.0556 42.7956 43.7286 42.7263L45.1142 42.5844L46.0479 42.4755C46.2326 42.4557 46.4042 42.5613 46.4438 42.723L46.5097 42.9935C46.5328 43.0892 46.6054 43.1717 46.7044 43.2145L48.0471 43.782L48.2121 43.2343L50.6633 43.4785L50.6996 42.8483C50.7062 42.7527 50.6303 42.6669 50.5247 42.6471L49.4756 42.459L49.0302 41.6112L48.2352 41.4429L48.5915 42.4821L47.9613 41.8025L47.0871 41.0075C46.9617 40.892 46.7605 40.8788 46.6186 40.9745C46.4471 41.0899 46.4273 41.311 46.5757 41.4495L47.3873 42.205H46.9089C46.8232 42.205 46.7374 42.1786 46.6714 42.1258L45.7213 41.3802C45.5728 41.2648 45.3518 41.278 45.2198 41.4066L44.4412 42.1753C44.3884 42.2281 44.3158 42.2644 44.24 42.2743L43.6164 42.3733C43.4218 42.403 43.237 42.2908 43.2008 42.1192L43.0655 41.4924C43.0226 41.2879 43.2107 41.0998 43.4449 41.1163L43.8969 41.146C44.1542 41.1625 44.3455 40.9415 44.2631 40.7237L44.0519 40.1926C43.9991 40.0573 44.0552 39.9056 44.1872 39.8231L45.7509 38.8762L48.1164 38.7047L48.5684 37.3422L47.9613 37.1475L48.1758 35.9401L47.7205 35.9862L47.1663 36.9991L47.2091 38.1175L46.513 38.3517L46.1402 37.4972L45.5563 37.8337L45.2429 36.7219C45.2396 36.712 45.2429 36.7021 45.2495 36.6923L47.5786 33.799L50.6798 34.6171L50.7161 35.1087L49.9144 35.432L49.8682 36.1908L51.1746 35.2506L53.0386 34.3334L53.0782 33.733L53.9195 33.7297C53.9525 33.7297 53.9855 33.7396 54.0151 33.7528L54.3286 33.9309C54.4704 34.0101 54.6453 33.888 54.5925 33.7462L54.2395 32.8389C54.2197 32.7927 54.2296 32.7367 54.2626 32.6971L54.5661 32.3111C54.6024 32.2649 54.6651 32.2385 54.731 32.2451L55.4997 32.3144C55.5327 32.3177 55.5624 32.3276 55.5888 32.3474L55.6845 32.4133C55.8296 32.5123 56.0309 32.3738 55.955 32.222C55.9088 32.1296 55.9682 32.0241 56.0804 32.001L56.44 31.935C56.5917 31.9086 56.6346 31.7304 56.506 31.6513L56.3179 31.5325C56.2255 31.4731 56.2156 31.3543 56.3014 31.2851L57.2054 30.5659C57.2219 30.5527 57.2384 30.5428 57.2614 30.5362L58.0169 30.2755C58.1159 30.2425 58.1588 30.1403 58.1093 30.0545L58.0367 29.9324C57.9971 29.8664 57.9147 29.8335 57.8322 29.8533L57.1229 30.0215C57.0074 30.0479 56.8952 29.9687 56.8985 29.8599L56.9117 29.6124C56.915 29.5596 56.9909 29.4937 57.0866 29.4937Z" fill="#54CC5A"/>
<path fill-rule="evenodd" clip-rule="evenodd" d="M69.815 50.9478L68.172 51.4888C68.0995 51.5119 68.0368 51.5581 68.0005 51.6208L67.5188 52.3796C67.4759 52.4489 67.4033 52.4984 67.3176 52.5182L65.8429 52.8778C65.6845 52.9173 65.5823 53.0526 65.6021 53.1978L65.8825 55.1013C65.8891 55.1541 65.8825 55.2102 65.8561 55.2597L65.6383 55.6886C65.5526 55.8601 65.6647 56.0581 65.8726 56.0977L66.1431 56.1471C66.2091 56.1603 66.2817 56.1537 66.3443 56.1274L68.723 55.2003C68.8714 55.1442 69.043 55.1871 69.1321 55.3092L69.6863 56.0614C69.7028 56.0845 69.7226 56.1043 69.7424 56.1208L70.6035 56.8004C70.676 56.8565 70.7684 56.8828 70.8641 56.8729L72.253 56.7146C72.4147 56.6948 72.5367 56.576 72.54 56.4309L72.5598 55.8337C72.5631 55.7776 72.5829 55.7216 72.6192 55.6721L73.4704 54.5933C73.51 54.5438 73.5297 54.4844 73.5297 54.425V53.5937C73.5297 53.5145 73.4935 53.4386 73.4308 53.3825L72.2794 52.3862C72.2398 52.3499 72.2101 52.307 72.1936 52.2608L71.9792 51.6274C71.8868 51.3503 71.4447 51.347 71.349 51.6274L71.2732 51.8451C71.2072 52.0398 70.94 52.1157 70.7585 51.9936L70.4979 51.8188C70.3725 51.733 70.3329 51.5812 70.4022 51.4558L70.4055 51.4492C70.4781 51.314 70.4286 51.1523 70.2835 51.0732L70.1053 50.9742C70.0162 50.928 69.9107 50.9181 69.815 50.9478Z" fill="#54CC5A"/>
<path fill-rule="evenodd" clip-rule="evenodd" d="M69.3951 49.0936L69.3588 49.1991C69.3192 49.3146 69.3654 49.44 69.4709 49.5126L70.4178 50.179C70.4574 50.2087 70.5069 50.2285 70.5596 50.2351L72.351 50.5485C72.3675 50.5518 72.3873 50.5551 72.4038 50.5617L72.6381 50.6408C72.9317 50.7398 73.1989 50.4528 73.0373 50.2153L72.9416 50.0767C72.9053 50.0206 72.8492 49.9777 72.7832 49.9546L69.8338 48.9022C69.6524 48.8395 69.4512 48.9286 69.3951 49.0936Z" fill="#54CC5A"/>
<path fill-rule="evenodd" clip-rule="evenodd" d="M66.4883 47.9325C66.2541 48.1668 65.9407 48.4769 65.7625 48.655C65.6801 48.7375 65.6537 48.8563 65.7032 48.9619L66.099 49.8394C66.1617 49.9747 66.3267 50.0506 66.485 50.0143L67.0888 49.879C67.2009 49.8526 67.29 49.7767 67.323 49.6778L67.5605 48.9718C67.5869 48.8926 67.5737 48.8068 67.5276 48.7375C67.4121 48.5693 67.191 48.2361 67.0195 47.9787C66.904 47.8072 66.6368 47.7841 66.4883 47.9325Z" fill="#54CC5A"/>
<path fill-rule="evenodd" clip-rule="evenodd" d="M63.441 48.0613L64.8135 49.5954C64.8168 49.5987 64.8234 49.6053 64.8267 49.6086L65.6712 50.4399C65.7273 50.496 65.8065 50.529 65.8923 50.5356L67.5088 50.6379L67.4989 50.6643C67.456 50.7797 67.3373 50.8622 67.202 50.8688L64.9454 50.9678C64.8299 50.9744 64.7178 50.9216 64.6551 50.8358L62.8703 48.4341C62.7812 48.3153 62.801 48.1537 62.9198 48.058L62.9627 48.0217C63.0979 47.9128 63.3223 47.9293 63.441 48.0613Z" fill="#54CC5A"/>
<path fill-rule="evenodd" clip-rule="evenodd" d="M30.6377 46.7479L30.2286 47.2791C30.1725 47.3517 30.0703 47.388 29.9746 47.3682L29.2059 47.2164C29.0937 47.1933 29.0146 47.1042 29.0146 47.0053V46.517C29.0146 46.4015 28.9123 46.3026 28.7803 46.2993L28.3382 46.2828C28.1568 46.2762 28.0479 46.1046 28.1337 45.9628L28.6088 45.171L27.8632 44.9532C27.8632 44.9532 27.3023 45.7648 27.1902 45.7681C27.078 45.7714 26.339 44.7454 26.339 44.7454L27.2627 43.6963L28.6912 43.66L29.3742 44.5376L29.7997 43.1157L31.3899 42.0402L34.5306 40.0541C34.5537 40.0409 34.5702 40.0211 34.5834 39.998L35.1673 38.8664C35.1937 38.817 35.1838 38.7576 35.1442 38.7147L34.2106 37.7415C34.1908 37.7184 34.1776 37.692 34.1743 37.6623L34.1182 37.1311C34.105 36.9926 33.8972 36.953 33.8213 37.075C33.7652 37.1641 33.6267 37.174 33.5574 37.0948L32.9273 36.3888C32.792 36.2338 32.5314 36.2338 32.3895 36.3822L31.5911 37.2367C31.568 37.2598 31.5516 37.2862 31.5384 37.3159L31.1919 38.0714C31.0765 38.3188 30.6872 38.3287 30.5585 38.0879L30.5387 38.0516C30.5057 37.9889 30.4464 37.9361 30.3738 37.9064C30.0307 37.7612 28.9981 37.3093 28.9915 37.1245C28.9849 36.9299 29.6777 35.8643 29.8657 35.5773C29.8954 35.5311 29.9416 35.4915 29.9944 35.4651L31.3305 34.7954C31.3371 34.7921 31.3404 34.7888 31.347 34.7888L32.6106 34.2345C32.7359 34.1784 32.8118 34.063 32.8019 33.9409L32.7821 33.6407C32.7689 33.4493 32.5677 33.3141 32.3598 33.357L31.7528 33.479C31.6934 33.4922 31.6373 33.5153 31.5944 33.5549L31.3239 33.7793C31.159 33.9178 30.8917 33.8782 30.7829 33.7001L30.4002 33.07C30.3012 32.9083 30.067 32.8588 29.8954 32.9644L29.3808 33.2877C29.295 33.3405 29.1861 33.357 29.0838 33.3306L27.3353 32.8687C27.299 32.8588 27.266 32.8456 27.2363 32.8258L25.7353 31.8988C25.6528 31.846 25.5472 31.8295 25.4482 31.8526L24.2705 32.1297C24.1583 32.1561 24.0395 32.1297 23.9538 32.0637L21.9182 30.4736C21.8325 30.4043 21.7137 30.3812 21.6015 30.4076C21.2221 30.5 20.3347 30.7078 19.9652 30.754C19.5924 30.8002 19.1899 31.2423 19.0348 31.4336C18.9919 31.4864 18.9853 31.5557 19.0216 31.6118L19.1932 31.8988C19.2526 32.0011 19.1866 32.1231 19.0579 32.1429L18.4245 32.2353C18.2925 32.2551 18.2266 32.3837 18.2958 32.486L18.4443 32.7038C18.4674 32.74 18.4773 32.7796 18.4674 32.8192L18.3519 33.3702C18.3321 33.4625 18.2299 33.5252 18.1243 33.5021L17.5173 33.3768C17.3952 33.3504 17.2797 33.4362 17.2863 33.5483L17.3424 34.3962C17.3457 34.4292 17.3589 34.4622 17.382 34.4886L17.8867 35.0626C17.956 35.1418 17.9329 35.2539 17.8373 35.3067C17.3424 35.5773 15.9997 36.3064 16.1316 36.2206C16.2933 36.1183 17.7713 36.2404 17.7812 36.0127C17.7944 35.7851 18.7742 35.5674 18.8402 35.4882C18.8897 35.4288 19.2592 34.9504 19.4406 34.7129C19.4967 34.6403 19.6056 34.6172 19.6913 34.6634L21.1858 35.4486C21.2815 35.4981 21.3442 35.5872 21.3541 35.6861L21.5223 37.3093C21.5256 37.3555 21.5421 37.3983 21.5685 37.4379L22.2085 38.398L22.9475 39.6153C22.9937 39.6912 23.0003 39.7803 22.9706 39.8628L22.5714 40.8855C22.2712 41.6575 22.3438 42.5053 22.7694 43.2278C23.1158 43.8151 23.4721 44.4254 23.4919 44.4815C23.4985 44.5013 23.5216 44.5343 23.5513 44.5772C23.8548 44.9928 24.2837 45.3194 24.7851 45.5372L27.1044 46.5467C27.1143 46.55 27.1242 46.5566 27.1341 46.5632L28.843 47.5892C28.8595 47.5991 28.876 47.609 28.8892 47.6222L29.1762 47.9026C29.2323 47.9587 29.3181 47.9851 29.4005 47.9719C29.5919 47.9422 29.7436 48.1138 29.6678 48.2721L29.2191 49.186C29.1993 49.2223 29.196 49.2651 29.2026 49.3047L29.4962 51.0862C29.5028 51.1357 29.5292 51.1786 29.5688 51.2116L30.7862 52.2343C30.8225 52.264 30.8455 52.3036 30.8587 52.3465L31.2876 54.1346C31.2909 54.1445 31.2909 54.1544 31.2909 54.1676L31.6439 59.0997C31.6472 59.1657 31.6868 59.2251 31.7429 59.2614L32.8745 59.9938C32.9207 60.0235 32.9801 60.04 33.0361 60.0334L33.4254 60.007C33.6366 59.9938 33.7289 59.7661 33.5805 59.6342L33.2011 59.3043C33.1582 59.268 33.1318 59.2152 33.1285 59.1624L33.0955 58.6939C33.0955 58.6906 33.0955 58.684 33.0955 58.6807V57.823C33.0955 57.8098 33.0955 57.7966 33.0988 57.7834L33.2374 57.1236C33.2374 57.1203 33.2374 57.117 33.2407 57.1104L33.3067 56.6485C33.3166 56.5726 33.3726 56.5066 33.4518 56.4769L34.4152 56.1041C34.5405 56.0547 34.5966 55.926 34.5405 55.8171L34.4152 55.5664C34.3525 55.4443 34.4316 55.2992 34.5768 55.2662L34.9562 55.1804C35.0156 55.1672 35.0684 55.1309 35.1047 55.0847L35.8832 53.9729C35.936 53.8971 35.9327 53.8047 35.8766 53.7321L35.8601 53.7123C35.7579 53.5836 35.8371 53.4055 36.0119 53.3725L36.4507 53.2933C36.5398 53.2768 36.609 53.2207 36.6354 53.1449L37.2689 51.3139C37.2788 51.2842 37.2952 51.2578 37.3183 51.2347L38.2256 50.2945C38.3213 50.1955 38.2982 50.047 38.1794 49.9745L36.9291 49.1959C36.8862 49.1695 36.8301 49.153 36.7773 49.1563L35.8799 49.1959C35.8206 49.1992 35.7645 49.1827 35.7183 49.1497L35.1772 48.7736C35.1212 48.734 35.0849 48.6746 35.0849 48.6086L35.0651 48.0214C35.0618 47.929 34.9925 47.8465 34.8902 47.8202L33.7949 47.5298C33.7652 47.5232 33.7388 47.51 33.7124 47.4902L33.0295 47.0086C32.9603 46.9591 32.8679 46.9492 32.7854 46.9789L32.2345 47.1801C32.1685 47.2032 32.0926 47.1999 32.0299 47.1735L30.9577 46.6754C30.8455 46.6259 30.7103 46.6556 30.6377 46.7479Z" fill="#54CC5A"/>
<path fill-rule="evenodd" clip-rule="evenodd" d="M31.5976 32.5321L31.7362 31.9152C31.7659 31.7898 31.8747 31.6941 32.0166 31.671L33.0228 31.516C33.102 31.5028 33.1812 31.516 33.2505 31.5523L34.4942 32.1758C34.5767 32.2187 34.5998 32.3144 34.5437 32.3836L34.0488 32.9676C34.0093 33.0171 34.0059 33.083 34.0455 33.1325L34.7581 34.0497C34.7812 34.0761 34.7878 34.1124 34.7845 34.1454L34.6559 35.2077C34.6526 35.2275 34.646 35.2472 34.6328 35.267L34.2435 35.8345C34.2072 35.8873 34.1379 35.9137 34.0719 35.8972L32.9997 35.6728C32.9832 35.6695 32.9667 35.6629 32.9502 35.6596L32.8546 35.6233C32.5774 35.5244 32.5643 35.178 32.8315 35.0625L33.0327 34.9734C33.168 34.914 33.2439 34.7887 33.2241 34.6567C33.1845 34.3895 33.1086 33.954 33.0393 33.8352C32.9766 33.7297 32.937 33.4756 32.9173 33.2876C32.9008 33.1523 32.7853 33.0435 32.6368 33.0171L31.8846 32.895C31.6834 32.8653 31.558 32.7004 31.5976 32.5321Z" fill="#54CC5A"/>
<path fill-rule="evenodd" clip-rule="evenodd" d="M27.2703 30.5858L26.8117 30.9256C26.6698 31.0312 26.6434 31.2192 26.7589 31.3512L27.201 31.8625C27.2076 31.8724 27.2175 31.8823 27.2241 31.8922L27.8047 32.7434C27.8443 32.8028 27.9037 32.8457 27.9763 32.8721L28.5206 33.0568C28.6394 33.0964 28.7746 33.0766 28.8703 33.004L29.2464 32.717C29.2794 32.6906 29.3091 32.6576 29.3289 32.6246L29.7644 31.8658C29.7908 31.823 29.804 31.7735 29.804 31.724C29.804 31.4502 29.4312 31.3116 29.2134 31.5062L29.1903 31.526C29.0518 31.6514 28.8241 31.6481 28.6922 31.5194L27.7519 30.6155C27.62 30.4934 27.4121 30.4835 27.2703 30.5858Z" fill="#54CC5A"/>
<path fill-rule="evenodd" clip-rule="evenodd" d="M36.7285 29.1311L35.0624 30.3386C35.0096 30.3748 34.9899 30.4375 35.0129 30.4936L35.3297 31.3316C35.3462 31.3745 35.3857 31.4075 35.4352 31.4206L36.3722 31.6648C36.448 31.6846 36.5041 31.744 36.514 31.8132L36.7648 33.6838C36.7681 33.7135 36.7648 33.7399 36.7516 33.7696L36.1907 35.0694C36.1742 35.1057 36.1742 35.142 36.1841 35.1783L36.6592 36.7487C36.6757 36.7982 36.7153 36.841 36.7681 36.8641L37.154 37.0225C37.2497 37.0621 37.3619 37.0291 37.4114 36.9466L38.1768 35.7029C38.1966 35.6732 38.2263 35.6468 38.2592 35.6303L39.5294 35.043C39.5459 35.0364 39.5591 35.0265 39.5723 35.0166L41.433 33.4793C41.4627 33.4562 41.4824 33.4232 41.4923 33.3869L42.1456 30.7872C42.1522 30.7608 42.1654 30.7344 42.1851 30.7146L43.2112 29.593C43.2541 29.5435 43.2673 29.4775 43.2442 29.4214L43.1254 29.1344C43.0858 29.0387 42.967 28.9925 42.8615 29.0321L42.2874 29.2466C42.2511 29.2597 42.2148 29.263 42.1753 29.2564L41.8223 29.2004C41.6111 29.1674 41.5979 28.9002 41.8091 28.854C41.9641 28.8177 42.0103 28.6461 41.8915 28.5504L41.7629 28.4482C41.753 28.4383 41.7398 28.4284 41.7332 28.4185L41.2779 27.8378C41.2416 27.7917 41.1789 27.762 41.1163 27.762H39.8362C39.7834 27.762 39.7339 27.7818 39.6943 27.8147L38.9751 28.4614C38.929 28.5043 38.9092 28.5603 38.9224 28.6197L38.9949 28.9628C39.0246 29.1014 38.8729 29.2136 38.7244 29.1608L38.3186 29.0156C38.2724 28.9991 38.2362 28.9694 38.2131 28.9298L38.0943 28.7154C38.0448 28.6263 37.926 28.59 37.8271 28.6362L36.7714 29.108C36.7516 29.1146 36.7384 29.1245 36.7285 29.1311Z" fill="#54CC5A"/>
<path fill-rule="evenodd" clip-rule="evenodd" d="M33.6793 27.9795L35.695 27.4979C35.7214 27.4913 35.7478 27.4913 35.7742 27.4979L37.5755 27.8806C37.7405 27.9168 37.7833 28.1082 37.6448 28.1973L37.3809 28.3655C37.3776 28.3688 37.3743 28.3688 37.371 28.3721L34.923 30.1338L33.8277 30.9355C33.7486 30.9916 33.6463 31.018 33.5473 31.0015L32.4619 30.8299C32.353 30.8134 32.2376 30.8431 32.1584 30.9124L31.8219 31.206C31.6536 31.3512 31.3765 31.3116 31.2709 31.1269L31.1225 30.8662C31.1159 30.8563 31.1093 30.8431 31.106 30.8332L30.9905 30.5561C30.9245 30.3945 31.0169 30.2196 31.1984 30.1602L31.8582 29.9458C31.9407 29.9194 32.033 29.9227 32.1155 29.9524L32.617 30.147C32.7028 30.18 32.805 30.18 32.8908 30.147L32.9007 30.1437C33.1151 30.0613 33.1811 29.8204 33.0294 29.6621L32.9007 29.5268C32.8116 29.4311 32.7918 29.2959 32.8578 29.187L33.4615 28.1445C33.5044 28.0587 33.5836 28.0026 33.6793 27.9795Z" fill="#54CC5A"/>
<path fill-rule="evenodd" clip-rule="evenodd" d="M28.7737 29.276L29.5094 29.1012C29.7106 29.0517 29.9119 29.1737 29.9416 29.3552L30.0504 30.0348C30.0735 30.1734 29.9878 30.3086 29.8426 30.3614L29.2224 30.5956C29.0277 30.6682 28.8067 30.5725 28.7539 30.3911L28.5329 29.6521C28.4801 29.4904 28.5889 29.3222 28.7737 29.276Z" fill="#54CC5A"/>
<path d="M25.1197 36.2471C26.1819 36.2471 27.043 35.386 27.043 34.3238C27.043 33.2615 26.1819 32.4004 25.1197 32.4004C24.0574 32.4004 23.1963 33.2615 23.1963 34.3238C23.1963 35.386 24.0574 36.2471 25.1197 36.2471Z" fill="#F9FAFB"/>
<path d="M64.8496 39.4793C65.2562 38.4979 64.7901 37.3728 63.8087 36.9663C62.8273 36.5597 61.7022 37.0258 61.2956 38.0072C60.8891 38.9886 61.3552 40.1137 62.3366 40.5203C63.318 40.9268 64.4431 40.4607 64.8496 39.4793Z" fill="#F9FAFB"/>
<path d="M33.9315 18.7354H12.7778C10.6597 18.7354 8.94092 17.0166 8.94092 14.8986V14.8227C8.94092 12.7047 10.6597 10.9858 12.7778 10.9858H33.9315C36.0495 10.9858 37.7683 12.7047 37.7683 14.8227V14.8986C37.7683 17.0199 36.0495 18.7354 33.9315 18.7354Z" fill="#ED1C24"/>
<path d="M22.6388 17.3663L26.4987 15.0207C26.601 14.958 26.601 14.7634 26.4987 14.7007L22.619 12.3847C22.5299 12.3319 22.4309 12.4177 22.4309 12.5464L22.4342 13.3019C22.4342 13.3975 22.3748 13.4767 22.3023 13.4767L20.2667 13.4932C20.1941 13.4932 20.1348 13.5724 20.1348 13.6681L20.1447 16.116C20.1447 16.2117 20.204 16.2908 20.2799 16.2908L22.3155 16.2743C22.388 16.2743 22.4507 16.3535 22.4507 16.4492L22.454 17.2047C22.4474 17.3333 22.5497 17.4191 22.6388 17.3663Z" fill="#F9FAFB"/>
<path d="M94.5843 18.7354H73.4306C71.3126 18.7354 69.5938 17.0166 69.5938 14.8986V14.8227C69.5938 12.7047 71.3126 10.9858 73.4306 10.9858H94.5843C96.7023 10.9858 98.4211 12.7047 98.4211 14.8227V14.8986C98.4211 17.0199 96.7023 18.7354 94.5843 18.7354Z" fill="#ED1C24"/>
<path d="M83.2911 17.3663L87.151 15.0207C87.2533 14.958 87.2533 14.7634 87.151 14.7007L83.2713 12.3847C83.1822 12.3319 83.0833 12.4177 83.0833 12.5464L83.0866 13.3019C83.0866 13.3975 83.0272 13.4767 82.9546 13.4767L80.9191 13.4932C80.8465 13.4932 80.7871 13.5724 80.7871 13.6681L80.797 16.116C80.797 16.2117 80.8564 16.2908 80.9323 16.2908L82.9678 16.2743C83.0404 16.2743 83.1031 16.3535 83.1031 16.4492L83.1064 17.2047C83.1031 17.3333 83.202 17.4191 83.2911 17.3663Z" fill="#F9FAFB"/>
<path d="M125.022 18.7354H103.868C101.75 18.7354 100.031 17.0166 100.031 14.8986V14.8227C100.031 12.7047 101.75 10.9858 103.868 10.9858H125.022C127.14 10.9858 128.859 12.7047 128.859 14.8227V14.8986C128.859 17.0199 127.14 18.7354 125.022 18.7354Z" fill="#ED1C24"/>
<path d="M114.465 17.1914C114.425 17.1914 114.386 17.1914 114.346 17.1881C112.987 17.1287 111.925 16.0466 111.981 14.7732C112.007 14.1563 112.291 13.5855 112.779 13.1698C113.264 12.7574 113.891 12.5463 114.547 12.576C115.907 12.6354 116.969 13.7175 116.913 14.9909C116.886 15.6079 116.603 16.1786 116.114 16.5943C115.659 16.9836 115.078 17.1914 114.465 17.1914ZM114.429 12.9026C113.894 12.9026 113.386 13.0841 112.99 13.4206C112.571 13.7769 112.33 14.2618 112.307 14.7897C112.261 15.8817 113.182 16.812 114.363 16.8648C114.937 16.8912 115.484 16.7064 115.907 16.3468C116.326 15.9905 116.566 15.5056 116.589 14.9777C116.636 13.8857 115.715 12.9554 114.534 12.9026C114.498 12.9026 114.462 12.9026 114.429 12.9026Z" fill="#F9FAFB"/>
<path d="M115.036 14.895C115.036 15.2744 115.01 15.6537 114.944 16.0265C114.927 16.1189 114.908 16.2113 114.884 16.3037C114.861 16.396 114.835 16.4851 114.802 16.5742C114.769 16.6633 114.729 16.749 114.677 16.8315C114.65 16.8711 114.62 16.9107 114.584 16.9404C114.564 16.9569 114.545 16.9701 114.525 16.98C114.502 16.9899 114.479 16.9965 114.452 16.9965C114.429 16.9965 114.403 16.9932 114.38 16.9833C114.357 16.9734 114.337 16.9602 114.317 16.947C114.281 16.9173 114.248 16.8777 114.221 16.8381C114.169 16.7589 114.129 16.6699 114.096 16.5841C114.063 16.495 114.037 16.4059 114.013 16.3136C113.99 16.2212 113.971 16.1288 113.954 16.0364C113.921 15.8517 113.898 15.6636 113.881 15.4723C113.865 15.2842 113.858 15.0929 113.858 14.9049C113.858 14.8092 113.862 14.7168 113.865 14.6211C113.868 14.5255 113.875 14.4331 113.881 14.3374C113.895 14.1494 113.918 13.9613 113.947 13.7733C113.964 13.6809 113.98 13.5885 114.004 13.4962C114.027 13.4038 114.05 13.3114 114.083 13.2223C114.099 13.1761 114.116 13.1332 114.136 13.0904C114.155 13.0475 114.178 13.0046 114.205 12.965C114.231 12.9254 114.261 12.8858 114.297 12.8561C114.317 12.8396 114.337 12.8264 114.36 12.8198C114.383 12.8099 114.406 12.8066 114.429 12.8066C114.452 12.8066 114.479 12.8132 114.498 12.8231C114.522 12.833 114.541 12.8462 114.558 12.8627C114.594 12.8924 114.627 12.9287 114.653 12.9683C114.706 13.0475 114.749 13.1332 114.782 13.219C114.818 13.3081 114.845 13.3972 114.871 13.4896C114.898 13.5819 114.917 13.6743 114.937 13.7667C115.006 14.1362 115.036 14.5156 115.036 14.895ZM115.006 14.895C115.006 14.7069 115 14.5189 114.983 14.3308C114.967 14.1428 114.944 13.9547 114.911 13.77C114.894 13.6776 114.875 13.5852 114.848 13.4929C114.825 13.4005 114.795 13.3114 114.762 13.2256C114.729 13.1365 114.69 13.0508 114.637 12.9749C114.611 12.9353 114.581 12.899 114.545 12.8693C114.528 12.8561 114.508 12.8429 114.485 12.833C114.465 12.8231 114.442 12.8165 114.419 12.8165C114.396 12.8165 114.373 12.8198 114.353 12.8297C114.333 12.8396 114.314 12.8528 114.294 12.866C114.258 12.8957 114.228 12.932 114.205 12.9716C114.178 13.0112 114.159 13.0541 114.139 13.097C114.119 13.1398 114.103 13.1827 114.089 13.2289C114.06 13.318 114.033 13.4104 114.013 13.4994C113.994 13.5918 113.977 13.6842 113.961 13.7766C113.931 13.9613 113.914 14.1494 113.901 14.3374C113.888 14.5255 113.885 14.7135 113.885 14.9016C113.885 15.0896 113.891 15.2777 113.905 15.4657C113.918 15.6538 113.941 15.8418 113.974 16.0265C113.99 16.1189 114.01 16.2113 114.03 16.3037C114.053 16.396 114.079 16.4851 114.112 16.5742C114.145 16.6633 114.182 16.749 114.234 16.8282C114.261 16.8678 114.291 16.9041 114.327 16.9338C114.343 16.947 114.363 16.9602 114.386 16.9701C114.406 16.98 114.429 16.9833 114.452 16.9833C114.475 16.9833 114.498 16.9767 114.518 16.9668C114.538 16.9569 114.558 16.9437 114.574 16.9305C114.611 16.9008 114.637 16.8645 114.663 16.8249C114.713 16.7457 114.752 16.66 114.782 16.5709C114.815 16.4818 114.842 16.3927 114.861 16.3004C114.884 16.208 114.901 16.1156 114.917 16.0232C114.95 15.8385 114.97 15.6504 114.983 15.4624C115 15.2711 115.006 15.083 115.006 14.895Z" fill="#F9FAFB"/>
<path d="M114.446 17.0526C114.416 17.0526 114.386 17.046 114.36 17.0361C114.334 17.0262 114.31 17.0097 114.284 16.9899C114.248 16.9602 114.211 16.9206 114.178 16.8712C114.129 16.7986 114.089 16.7128 114.047 16.6039C114.014 16.5215 113.987 16.4291 113.961 16.3268C113.938 16.2377 113.918 16.1454 113.901 16.0464C113.868 15.8682 113.845 15.6835 113.829 15.4789C113.812 15.2942 113.806 15.1029 113.806 14.9082C113.806 14.8059 113.809 14.707 113.812 14.6212C113.816 14.5255 113.822 14.4298 113.829 14.3342C113.845 14.1296 113.865 13.9449 113.895 13.7667C113.911 13.6645 113.931 13.5721 113.951 13.483C113.974 13.3807 114 13.2884 114.03 13.2059C114.047 13.1564 114.066 13.1102 114.086 13.0706C114.109 13.0211 114.132 12.9782 114.159 12.9387C114.192 12.8859 114.225 12.8496 114.264 12.8166C114.291 12.7968 114.314 12.7803 114.34 12.7704C114.37 12.7572 114.403 12.7539 114.432 12.7539C114.462 12.7539 114.492 12.7605 114.522 12.7737C114.548 12.7836 114.571 12.8001 114.594 12.8199C114.63 12.8496 114.663 12.8859 114.7 12.9387C114.749 13.0112 114.792 13.0937 114.835 13.2026C114.868 13.2851 114.898 13.3774 114.927 13.4764C114.95 13.5655 114.974 13.6579 114.993 13.7568C115.063 14.1098 115.096 14.4826 115.099 14.895C115.099 15.3107 115.069 15.6835 115.007 16.0332C114.987 16.1355 114.97 16.2245 114.947 16.3136C114.921 16.4159 114.894 16.5083 114.861 16.5907C114.818 16.6996 114.779 16.7854 114.733 16.858C114.7 16.9108 114.667 16.947 114.63 16.98C114.607 16.9998 114.581 17.0163 114.558 17.0262C114.528 17.0394 114.495 17.046 114.465 17.0493C114.449 17.0526 114.449 17.0526 114.446 17.0526ZM114.416 12.8694C114.403 12.8694 114.39 12.8727 114.373 12.8793C114.36 12.8859 114.343 12.8958 114.327 12.9057C114.301 12.9288 114.274 12.9584 114.248 12.998C114.225 13.031 114.205 13.0706 114.185 13.1135C114.169 13.1531 114.152 13.1927 114.136 13.2389C114.109 13.318 114.083 13.4071 114.063 13.5061C114.043 13.5919 114.027 13.6809 114.01 13.7799C113.984 13.9548 113.964 14.1362 113.951 14.3375C113.941 14.509 113.934 14.6938 113.934 14.8983C113.934 15.0897 113.941 15.2777 113.954 15.4592C113.971 15.6571 113.99 15.8418 114.02 16.0134C114.037 16.1124 114.056 16.2014 114.076 16.2872C114.099 16.3862 114.126 16.472 114.155 16.5511C114.192 16.6534 114.228 16.7293 114.271 16.792C114.297 16.8316 114.324 16.8613 114.35 16.8844C114.367 16.8976 114.38 16.9041 114.393 16.9107C114.409 16.9173 114.423 16.9206 114.436 16.9206C114.449 16.9206 114.465 16.9173 114.479 16.9107C114.492 16.9041 114.508 16.8943 114.522 16.8811C114.548 16.858 114.574 16.8283 114.601 16.7854C114.64 16.7227 114.68 16.6435 114.716 16.5445C114.746 16.4654 114.769 16.3796 114.795 16.2806C114.815 16.1949 114.835 16.1058 114.851 16.0068C114.881 15.8352 114.904 15.6538 114.917 15.4526C114.931 15.2711 114.937 15.0831 114.937 14.8917C114.937 14.7004 114.931 14.5123 114.914 14.3309C114.898 14.1296 114.875 13.9482 114.842 13.7766C114.825 13.6809 114.805 13.5919 114.782 13.5061C114.756 13.4071 114.729 13.3213 114.7 13.2422C114.66 13.1432 114.624 13.0673 114.578 13.0013C114.551 12.9617 114.525 12.9321 114.495 12.909C114.479 12.8958 114.465 12.8859 114.449 12.8793C114.449 12.876 114.436 12.8727 114.416 12.8694C114.419 12.8694 114.419 12.8694 114.416 12.8694Z" fill="#F9FAFB"/>
<path d="M115.986 14.8947C115.986 15.1389 115.953 15.383 115.887 15.6172C115.821 15.8515 115.722 16.0758 115.586 16.2804C115.52 16.3826 115.441 16.475 115.356 16.5641C115.27 16.6498 115.174 16.729 115.072 16.7917C114.97 16.8577 114.857 16.9072 114.742 16.9435C114.626 16.9798 114.504 16.9963 114.382 16.9963C114.26 16.9963 114.138 16.9765 114.023 16.9435C113.907 16.9072 113.795 16.8577 113.693 16.7917C113.591 16.7257 113.495 16.6498 113.409 16.5641C113.323 16.4783 113.247 16.3826 113.178 16.2804C113.043 16.0791 112.944 15.8515 112.878 15.6172C112.845 15.4985 112.822 15.3797 112.805 15.2576C112.789 15.1356 112.782 15.0135 112.782 14.8914C112.782 14.7694 112.792 14.6473 112.809 14.5252C112.825 14.4032 112.848 14.2844 112.881 14.1656C112.947 13.9314 113.046 13.7071 113.185 13.5025C113.254 13.4002 113.33 13.3079 113.416 13.2188C113.501 13.133 113.597 13.0538 113.699 12.9912C113.802 12.9252 113.914 12.8757 114.029 12.8394C114.145 12.8031 114.267 12.7866 114.389 12.7866C114.511 12.7866 114.63 12.8064 114.748 12.8394C114.864 12.8757 114.976 12.9252 115.078 12.9912C115.181 13.0571 115.276 13.133 115.362 13.2188C115.448 13.3046 115.524 13.4002 115.593 13.5025C115.728 13.7038 115.827 13.9314 115.893 14.1656C115.953 14.4065 115.986 14.6506 115.986 14.8947ZM115.953 14.8947C115.953 14.6539 115.923 14.4131 115.86 14.1788C115.798 13.9479 115.702 13.7236 115.57 13.5223C115.504 13.42 115.428 13.3277 115.346 13.2419C115.263 13.1561 115.167 13.0769 115.068 13.0143C114.966 12.9483 114.857 12.8988 114.742 12.8625C114.626 12.8262 114.508 12.8097 114.386 12.8097C114.267 12.8097 114.145 12.8295 114.029 12.8625C113.914 12.8988 113.805 12.9483 113.703 13.0143C113.6 13.0802 113.508 13.1561 113.426 13.2419C113.343 13.3277 113.267 13.4233 113.201 13.5223C113.069 13.7236 112.974 13.9479 112.911 14.1788C112.878 14.2943 112.858 14.4131 112.842 14.5318C112.825 14.6506 112.819 14.7727 112.819 14.8914C112.819 15.0102 112.825 15.1323 112.842 15.251C112.858 15.3698 112.881 15.4886 112.911 15.604C112.974 15.835 113.069 16.0593 113.201 16.2606C113.267 16.3595 113.343 16.4552 113.426 16.541C113.508 16.6268 113.6 16.7059 113.703 16.7686C113.805 16.8313 113.914 16.8841 114.029 16.9204C114.145 16.9567 114.264 16.9732 114.382 16.9765C114.501 16.9765 114.623 16.9567 114.735 16.9237C114.851 16.8874 114.96 16.8379 115.062 16.7719C115.164 16.7059 115.257 16.63 115.339 16.5443C115.421 16.4585 115.497 16.3628 115.563 16.2639C115.695 16.0626 115.791 15.8383 115.854 15.6073C115.923 15.3764 115.953 15.1356 115.953 14.8947Z" fill="#F9FAFB"/>
<path d="M114.385 17.0526C114.26 17.0526 114.131 17.0328 114.009 16.9965C113.891 16.9603 113.775 16.9075 113.666 16.8382C113.564 16.7722 113.465 16.693 113.373 16.6007C113.287 16.5149 113.208 16.4159 113.135 16.3103C113 16.1091 112.898 15.8815 112.825 15.6307C112.792 15.512 112.766 15.3899 112.749 15.2645C112.733 15.1425 112.726 15.0171 112.723 14.8917C112.723 14.7664 112.733 14.641 112.749 14.5189C112.766 14.3936 112.792 14.2715 112.825 14.1527C112.894 13.902 113 13.6744 113.135 13.4731C113.208 13.3676 113.287 13.2686 113.373 13.1828C113.465 13.0904 113.561 13.0113 113.666 12.9486C113.775 12.8793 113.891 12.8265 114.009 12.7902C114.131 12.7539 114.257 12.7341 114.382 12.7341C114.507 12.7341 114.633 12.7539 114.755 12.7902C114.874 12.8265 114.989 12.8793 115.098 12.9486C115.2 13.0146 115.299 13.0937 115.392 13.1861C115.477 13.2719 115.557 13.3709 115.629 13.4764C115.764 13.6777 115.867 13.9053 115.939 14.1527C116.005 14.387 116.038 14.6344 116.038 14.8884C116.038 15.1425 116.002 15.3899 115.939 15.6241C115.87 15.8716 115.764 16.1025 115.632 16.3037C115.56 16.4093 115.481 16.5083 115.395 16.5941C115.303 16.6864 115.207 16.7656 115.101 16.8316C114.992 16.9009 114.877 16.9537 114.758 16.9899C114.636 17.0328 114.511 17.0526 114.385 17.0526ZM114.385 12.8628C114.27 12.8628 114.158 12.8793 114.046 12.9156C113.94 12.9486 113.834 12.9981 113.732 13.0607C113.64 13.1201 113.551 13.196 113.465 13.2818C113.386 13.3643 113.313 13.4566 113.247 13.5556C113.125 13.7436 113.029 13.9614 112.963 14.1989C112.934 14.3078 112.911 14.4266 112.894 14.5453C112.878 14.6608 112.871 14.7796 112.871 14.8983C112.871 15.0171 112.878 15.1359 112.894 15.2513C112.911 15.3701 112.934 15.4889 112.963 15.5977C113.029 15.8353 113.125 16.0497 113.247 16.2378C113.313 16.3367 113.386 16.4291 113.465 16.5116C113.551 16.5974 113.64 16.6732 113.732 16.7326C113.831 16.7953 113.937 16.8448 114.046 16.8778C114.158 16.9108 114.27 16.9306 114.385 16.9306C114.498 16.9306 114.613 16.9141 114.722 16.8778C114.831 16.8448 114.936 16.7953 115.035 16.7326C115.128 16.6732 115.217 16.6007 115.303 16.5116C115.382 16.4291 115.454 16.34 115.52 16.2378C115.646 16.0497 115.741 15.832 115.804 15.5977C115.863 15.3767 115.896 15.1392 115.896 14.8983C115.896 14.6575 115.867 14.42 115.804 14.1989C115.738 13.9614 115.642 13.7469 115.52 13.5556C115.454 13.4566 115.382 13.3643 115.303 13.2818C115.217 13.196 115.128 13.1201 115.035 13.0607C114.936 12.9981 114.831 12.9486 114.722 12.9156C114.613 12.8793 114.501 12.8628 114.385 12.8628Z" fill="#F9FAFB"/>
<path d="M112.519 14.0636L113.001 14.0603L113.482 14.057L114.442 14.0537L115.402 14.057L115.884 14.0603L116.366 14.0636L115.884 14.0669L115.402 14.0702L114.442 14.0735L113.482 14.0702L113.001 14.0669L112.519 14.0636C112.516 14.0669 112.516 14.0669 112.519 14.0636Z" fill="#F9FAFB"/>
<path d="M114.442 14.1296L112.997 14.1263L112.496 14.123L112.463 14.0901V14.0637V14.0109L112.519 14.0076L113.479 14.001H114.442L115.884 14.0043L116.418 14.0109V14.1197L116.362 14.123L115.402 14.1296H114.442Z" fill="#F9FAFB"/>
<path d="M113.076 13.2556C113.188 13.2523 113.303 13.2523 113.415 13.2523L113.755 13.249C113.867 13.249 113.983 13.249 114.095 13.249H114.435L115.118 13.2523L115.458 13.2556C115.57 13.2556 115.685 13.2589 115.797 13.2589V13.2622C115.685 13.2655 115.57 13.2655 115.458 13.2655L115.118 13.2688L114.435 13.2721H114.095C113.983 13.2721 113.867 13.2721 113.755 13.2721L113.415 13.2688C113.303 13.2688 113.188 13.2655 113.076 13.2655C113.076 13.2589 113.072 13.2589 113.076 13.2556Z" fill="#F9FAFB"/>
<path d="M114.441 13.3218H114.013C113.927 13.3218 113.844 13.3218 113.759 13.3218L113.303 13.3185C113.227 13.3185 113.151 13.3185 113.076 13.3152H113.023L113.02 13.203L113.076 13.1997C113.148 13.1997 113.224 13.1964 113.297 13.1964L113.759 13.1931C113.838 13.1931 113.92 13.1931 113.999 13.1931H114.441L115.59 13.1997C115.662 13.1997 115.735 13.1997 115.807 13.203H115.863L115.86 13.3152H115.807C115.731 13.3152 115.656 13.3185 115.58 13.3185L115.124 13.3218H114.441Z" fill="#F9FAFB"/>
<path d="M112.351 14.8721L112.875 14.8688L113.396 14.8655H114.442H115.485L116.009 14.8688L116.531 14.8721V14.8754L116.009 14.8787L115.485 14.882L114.442 14.8853L113.396 14.882L112.875 14.8787L112.351 14.8754V14.8721Z" fill="#F9FAFB"/>
<path d="M114.442 14.9382L112.871 14.9349L112.297 14.9316L112.294 14.8195L112.35 14.8162L113.396 14.8096H114.442L116.009 14.8129L116.553 14.8195L116.586 14.8525L116.583 14.9283L116.53 14.9316L115.484 14.9382H114.442Z" fill="#F9FAFB"/>
<path d="M112.519 15.6801L113.001 15.6768L113.482 15.6735L114.442 15.6702L115.402 15.6735L115.884 15.6768L116.366 15.6801V15.6834L115.884 15.6867L115.402 15.69L114.442 15.6933L113.482 15.69L113.001 15.6867L112.519 15.6834C112.516 15.6834 112.516 15.6834 112.519 15.6801Z" fill="#F9FAFB"/>
<path d="M114.442 15.7461L112.997 15.7428L112.496 15.7395L112.463 15.7065V15.6801V15.6273L112.519 15.624L113.479 15.6174H114.442L115.884 15.6207L116.418 15.6273V15.7362L116.362 15.7395L115.402 15.7461H114.442Z" fill="#F9FAFB"/>
<path d="M115.875 16.4985H113.146C113.143 16.4985 113.14 16.4953 113.14 16.492C113.14 16.4887 113.143 16.4854 113.146 16.4854H115.875C115.878 16.4854 115.881 16.4887 115.881 16.492C115.881 16.4953 115.878 16.4985 115.875 16.4985Z" fill="#F9FAFB"/>
<path d="M115.874 16.5548H113.146C113.113 16.5548 113.083 16.5251 113.083 16.4921C113.083 16.4591 113.109 16.4294 113.146 16.4294H115.874C115.907 16.4294 115.937 16.4591 115.937 16.4921C115.937 16.5251 115.91 16.5548 115.874 16.5548Z" fill="#F9FAFB"/>
<path d="M64.2596 18.7354H43.1059C40.9879 18.7354 39.269 17.0166 39.269 14.8986V14.8227C39.269 12.7047 40.9879 10.9858 43.1059 10.9858H64.2596C66.3776 10.9858 68.0964 12.7047 68.0964 14.8227V14.8986C68.0931 17.0199 66.3776 18.7354 64.2596 18.7354Z" fill="#ED1C24"/>
<path d="M52.9635 17.3663L56.8234 15.0207C56.9257 14.958 56.9257 14.7634 56.8234 14.7007L52.9437 12.3847C52.8546 12.3319 52.7556 12.4177 52.7556 12.5464L52.7589 13.3019C52.7589 13.3975 52.6996 13.4767 52.627 13.4767L50.5914 13.4932C50.5189 13.4932 50.4595 13.5724 50.4595 13.6681L50.4694 16.116C50.4694 16.2117 50.5288 16.2908 50.6046 16.2908L52.6402 16.2743C52.7127 16.2743 52.7754 16.3535 52.7754 16.4492L52.7787 17.2047C52.7754 17.3333 52.8744 17.4191 52.9635 17.3663Z" fill="#F9FAFB"/>
<path d="M30.4896 37.9064L30.2751 38.266V38.2693C30.2421 38.3254 30.1663 38.3452 30.1102 38.3089C30.0541 38.2759 30.0343 38.2001 30.0706 38.144L30.2916 37.7811C30.3246 37.725 30.4005 37.7052 30.4566 37.7415C30.5061 37.7745 30.5226 37.8471 30.4896 37.9064Z" fill="#0054A6"/>
<path d="M29.7944 39.1168L29.5998 39.4896V39.4929C29.5668 39.5523 29.4942 39.5754 29.4348 39.5457C29.3755 39.5127 29.3524 39.4401 29.3821 39.3808L29.58 39.0047C29.613 38.9453 29.6856 38.9222 29.745 38.9519C29.8043 38.9816 29.8274 39.0575 29.7944 39.1168Z" fill="#0054A6"/>
<path d="M29.1735 40.3709L29.0019 40.7536V40.7569C28.9722 40.8196 28.8996 40.8492 28.837 40.8196C28.7743 40.7899 28.7446 40.7173 28.7743 40.6546L28.9491 40.2686C28.9788 40.2059 29.0514 40.1762 29.1141 40.2059C29.1735 40.2323 29.2032 40.3049 29.1735 40.3709Z" fill="#0054A6"/>
<path d="M28.6291 41.6573L28.4806 42.0499V42.0532C28.4542 42.1192 28.3816 42.1522 28.3156 42.1291C28.2497 42.1027 28.2167 42.0301 28.2398 41.9642L28.3915 41.5683C28.4179 41.5023 28.4905 41.4693 28.5565 41.4957C28.6225 41.5155 28.6555 41.5881 28.6291 41.6573Z" fill="#0054A6"/>
<path d="M28.16 42.9704L28.0347 43.3696V43.3729C28.0116 43.4421 27.939 43.4817 27.8697 43.4586C27.8004 43.4355 27.7609 43.363 27.7839 43.2937L27.9126 42.8912C27.9357 42.8219 28.0083 42.7856 28.0776 42.8054C28.1435 42.8285 28.1798 42.9011 28.16 42.9704Z" fill="#0054A6"/>
<path d="M27.7653 44.3095L27.663 44.7153V44.7186C27.6432 44.7912 27.5707 44.8341 27.5014 44.8143C27.4288 44.7945 27.3859 44.7219 27.4057 44.6527L27.5113 44.2436C27.5311 44.171 27.6037 44.1281 27.6729 44.1479C27.7422 44.1644 27.7851 44.237 27.7653 44.3095Z" fill="#0054A6"/>
<path d="M27.4475 45.6723L27.3684 46.0847V46.088C27.3552 46.1605 27.2826 46.21 27.2067 46.1968C27.1341 46.1836 27.0846 46.1111 27.0978 46.0352L27.1803 45.6195C27.1935 45.5469 27.2661 45.4974 27.3387 45.5139C27.4145 45.5238 27.464 45.5964 27.4475 45.6723Z" fill="#0054A6"/>
<path d="M27.2074 47.0482L27.1514 47.4639V47.4672C27.1415 47.5431 27.0689 47.5959 26.993 47.586C26.9171 47.5761 26.8643 47.5035 26.8742 47.4276L26.9336 47.0086C26.9435 46.9328 27.0161 46.88 27.0887 46.8899C27.1646 46.8998 27.2173 46.969 27.2074 47.0482Z" fill="#0054A6"/>
<path d="M27.042 48.4335L27.009 48.8525V48.8558C27.0024 48.935 26.9331 48.9911 26.8572 48.9845C26.778 48.9779 26.722 48.9086 26.7286 48.8327L26.7648 48.4104C26.7714 48.3313 26.8407 48.2752 26.9166 48.2818C26.9925 48.2851 27.0486 48.3544 27.042 48.4335Z" fill="#0054A6"/>
<path d="M26.9529 49.8294L26.9397 50.2483V50.2516C26.9364 50.3308 26.8705 50.3935 26.7913 50.3935C26.7121 50.3902 26.6494 50.3242 26.6494 50.245L26.6626 49.8228C26.6659 49.7436 26.7319 49.6809 26.8111 49.6842C26.8935 49.6809 26.9562 49.7469 26.9529 49.8294Z" fill="#0054A6"/>
<path d="M26.9432 51.2247L26.953 51.6437V51.647C26.9563 51.7295 26.8904 51.7955 26.8112 51.7988C26.7287 51.8021 26.6627 51.7361 26.6594 51.6569L26.6495 51.2346C26.6462 51.1522 26.7122 51.0862 26.7914 51.0862C26.8739 51.0796 26.9399 51.1423 26.9432 51.2247Z" fill="#0054A6"/>
<path d="M27.0064 52.6203L27.0427 53.0392V53.0425C27.0493 53.125 26.9866 53.1976 26.9041 53.2042C26.8216 53.2108 26.749 53.1481 26.7424 53.0656L26.7095 52.6434C26.7029 52.5609 26.7655 52.4883 26.8447 52.4817C26.9239 52.4751 26.9998 52.5345 27.0064 52.6203Z" fill="#0054A6"/>
<path d="M27.1506 54.0091L27.21 54.4248V54.4281C27.2232 54.5106 27.1638 54.5897 27.0813 54.5996C26.9988 54.6128 26.9197 54.5535 26.9098 54.471L26.8537 54.052C26.8438 53.9695 26.8999 53.8936 26.9823 53.8804C27.0615 53.8639 27.1374 53.9233 27.1506 54.0091Z" fill="#0054A6"/>
<path d="M27.369 55.3849L27.4515 55.794V55.7973C27.468 55.8831 27.4119 55.9623 27.3294 55.9788C27.2469 55.9953 27.1645 55.9392 27.148 55.8567L27.0688 55.441C27.0523 55.3586 27.1084 55.2761 27.1909 55.2596C27.2733 55.2464 27.3525 55.2992 27.369 55.3849Z" fill="#0054A6"/>
<path d="M27.6687 56.7475L27.7743 57.1533V57.1566C27.7974 57.2424 27.7446 57.3281 27.6621 57.3479C27.5763 57.371 27.4906 57.3182 27.4708 57.2358L27.3652 56.8234C27.3454 56.7409 27.3949 56.6551 27.4774 56.632C27.5598 56.6122 27.6456 56.6617 27.6687 56.7475Z" fill="#0054A6"/>
<path d="M28.0453 58.0932L28.174 58.4923V58.4956C28.2004 58.5814 28.1542 58.6705 28.0717 58.6969C27.9859 58.7233 27.8968 58.6771 27.8704 58.5946L27.7418 58.1921C27.7154 58.1064 27.7616 58.0173 27.8474 57.9909C27.9265 57.9579 28.0156 58.0041 28.0453 58.0932Z" fill="#0054A6"/>
<path d="M28.4968 59.4097L28.6486 59.7989V59.8022C28.6816 59.8847 28.6387 59.9804 28.5562 60.0134C28.4737 60.0464 28.378 60.0035 28.345 59.921L28.1933 59.5251C28.1603 59.4426 28.2032 59.347 28.2857 59.314C28.3714 59.2843 28.4638 59.3239 28.4968 59.4097Z" fill="#0054A6"/>
<path d="M29.0314 60.6998L29.2063 61.0792V61.0825C29.2459 61.165 29.2096 61.2639 29.1238 61.3035C29.038 61.3431 28.9424 61.3068 28.9028 61.2211L28.7279 60.8351C28.6916 60.7526 28.7279 60.6536 28.8104 60.6173C28.8929 60.5777 28.9918 60.614 29.0314 60.6998Z" fill="#0054A6"/>
<path d="M29.6382 61.9534L29.8362 62.3229V62.3262C29.8791 62.4086 29.8494 62.5109 29.7669 62.5538C29.6844 62.5967 29.5822 62.567 29.5393 62.4845L29.3413 62.1084C29.2984 62.0259 29.3281 61.9237 29.4106 61.8808C29.4931 61.8379 29.5954 61.8676 29.6382 61.9534Z" fill="#0054A6"/>
<path d="M30.325 63.1671L30.5428 63.5234V63.5267C30.5923 63.6059 30.5659 63.7114 30.4867 63.7609C30.4075 63.8104 30.3019 63.784 30.2525 63.7048L30.0314 63.3419C29.9819 63.2628 30.0083 63.1572 30.0875 63.1077C30.1667 63.0582 30.2756 63.0846 30.325 63.1671Z" fill="#0054A6"/>
<path d="M31.0805 64.3385L31.3213 64.6816L31.3246 64.6849C31.3807 64.7641 31.3609 64.8697 31.2817 64.9258C31.2026 64.9819 31.097 64.9621 31.0409 64.8829L30.8001 64.5365C30.7473 64.4573 30.7638 64.3517 30.843 64.2957C30.9221 64.2396 31.0244 64.2594 31.0805 64.3385Z" fill="#0054A6"/>
<path d="M31.9013 65.4636L32.1586 65.7935L32.1619 65.7968C32.2213 65.8727 32.2081 65.9815 32.1322 66.0409C32.0564 66.1003 31.9475 66.0871 31.8881 66.0112L31.6275 65.678C31.5681 65.6021 31.5813 65.4933 31.6572 65.4339C31.7298 65.3745 31.8386 65.3877 31.9013 65.4636Z" fill="#0054A6"/>
<path d="M32.7863 66.5423L33.0634 66.8557L33.0667 66.859C33.1327 66.9316 33.1228 67.0437 33.0502 67.1064C32.9776 67.1724 32.8654 67.1625 32.8028 67.0899L32.5223 66.7732C32.4597 66.7006 32.4663 66.5885 32.5388 66.5258C32.6081 66.4598 32.7203 66.4664 32.7863 66.5423Z" fill="#0054A6"/>
<path d="M33.729 67.5683L34.0227 67.8652L34.026 67.8685C34.0952 67.9378 34.0952 68.05 34.026 68.1192C33.9567 68.1885 33.8445 68.1885 33.7752 68.1192L33.4783 67.8157C33.409 67.7464 33.409 67.6343 33.4816 67.565C33.5476 67.4957 33.6598 67.4957 33.729 67.5683Z" fill="#0054A6"/>
<path d="M34.7298 68.5381L35.0399 68.8186L35.0432 68.8219C35.1158 68.8878 35.1224 69 35.0564 69.0759C34.9905 69.1485 34.8783 69.1551 34.8024 69.0891L34.489 68.8054C34.4164 68.7394 34.4098 68.6272 34.4758 68.5546C34.5418 68.4755 34.6573 68.4722 34.7298 68.5381Z" fill="#0054A6"/>
<path d="M35.7821 69.4522L36.1087 69.7162L36.112 69.7195C36.1879 69.7822 36.2011 69.8943 36.1384 69.9735C36.0757 70.0494 35.9636 70.0626 35.8844 69.9999L35.5545 69.7327C35.4786 69.67 35.4654 69.5578 35.5281 69.4786C35.5908 69.3995 35.703 69.3896 35.7821 69.4522Z" fill="#0054A6"/>
<path d="M36.8833 70.3098L37.2231 70.554L37.2264 70.5573C37.3088 70.6167 37.3253 70.7288 37.2659 70.8113C37.2066 70.8938 37.0944 70.9103 37.0119 70.8509L36.6688 70.6035C36.5863 70.5441 36.5698 70.4319 36.6292 70.3494C36.6886 70.267 36.8008 70.2472 36.8833 70.3098Z" fill="#0054A6"/>
<path d="M38.0317 71.1017L38.3847 71.326H38.388C38.4737 71.3821 38.4968 71.4943 38.4441 71.58C38.388 71.6658 38.2758 71.6889 38.19 71.6361L37.8337 71.4052C37.7479 71.3491 37.7248 71.2369 37.7776 71.1512C37.8304 71.0654 37.9459 71.0456 38.0317 71.1017Z" fill="#0054A6"/>
<path d="M39.2193 71.8307L39.5822 72.0353H39.5855C39.6745 72.0847 39.7042 72.1969 39.6548 72.286C39.6053 72.3751 39.4931 72.4048 39.404 72.3553L39.0345 72.1441C38.9455 72.0946 38.9158 71.9825 38.9652 71.8934C39.018 71.8109 39.1302 71.7779 39.2193 71.8307Z" fill="#0054A6"/>
<path d="M40.4462 72.4939L40.8223 72.6786H40.8256C40.9179 72.7248 40.9542 72.837 40.9113 72.9294C40.8651 73.0217 40.753 73.058 40.6606 73.0151L40.2812 72.8271C40.1888 72.7809 40.1525 72.6687 40.1987 72.5764C40.2416 72.484 40.3538 72.4444 40.4462 72.4939Z" fill="#0054A6"/>
<path d="M41.7094 73.0845L42.0954 73.2495H42.0987C42.1944 73.289 42.2372 73.4012 42.1977 73.4969C42.1581 73.5926 42.0459 73.6354 41.9502 73.5959L41.5609 73.4276C41.4653 73.388 41.4224 73.2759 41.462 73.1802C41.5015 73.0878 41.6104 73.0416 41.7094 73.0845Z" fill="#0054A6"/>
<path d="M43.0027 73.6056L43.3953 73.7475H43.3986C43.4976 73.7838 43.5471 73.8927 43.5141 73.9883C43.4778 74.0873 43.3689 74.1368 43.2732 74.1038L42.8741 73.9586C42.7751 73.9223 42.7256 73.8135 42.7619 73.7178C42.7916 73.6188 42.9004 73.5693 43.0027 73.6056Z" fill="#0054A6"/>
<path d="M44.322 74.0477L44.7212 74.1665H44.7245C44.8268 74.1962 44.8829 74.3018 44.8532 74.404C44.8235 74.5063 44.7179 74.5624 44.6156 74.5327L44.2098 74.4106C44.1076 74.3809 44.0515 74.2754 44.0812 74.1731C44.1109 74.0741 44.2164 74.0181 44.322 74.0477Z" fill="#0054A6"/>
<path d="M45.665 74.4174L46.0708 74.5131H46.0741C46.1763 74.5361 46.2423 74.6417 46.2192 74.744C46.1961 74.8463 46.0906 74.9122 45.9883 74.8892L45.5759 74.7935C45.4736 74.7704 45.4077 74.6648 45.4341 74.5625C45.4571 74.4537 45.5594 74.391 45.665 74.4174Z" fill="#0054A6"/>
<path d="M47.0274 74.7009L47.4398 74.7702H47.4431C47.5487 74.7867 47.6213 74.889 47.6015 74.9945C47.585 75.1001 47.4827 75.1727 47.3771 75.1529L46.9581 75.0803C46.8526 75.0638 46.7833 74.9615 46.7998 74.856C46.8196 74.7537 46.9186 74.6844 47.0274 74.7009Z" fill="#0054A6"/>
<path d="M48.4067 74.9055L48.8224 74.9517H48.8257C48.9345 74.9649 49.0104 75.0606 48.9972 75.1661C48.984 75.275 48.8883 75.3509 48.7828 75.3377L48.3605 75.2915C48.2549 75.2783 48.1757 75.1826 48.1889 75.0771C48.1988 74.9715 48.2945 74.8923 48.4067 74.9055Z" fill="#0054A6"/>
<path d="M49.7932 75.0275L50.2122 75.0473H50.2155C50.3243 75.0539 50.4068 75.1462 50.4035 75.2551C50.3969 75.364 50.3045 75.4464 50.1957 75.4431L49.7701 75.4201C49.6612 75.4135 49.5787 75.3211 49.5853 75.2122C49.5886 75.1033 49.681 75.0209 49.7932 75.0275Z" fill="#0054A6"/>
<path d="M51.1851 75.0704L51.6041 75.0671H51.6074C51.7163 75.0671 51.8054 75.1562 51.8054 75.2651C51.8054 75.374 51.7163 75.463 51.6074 75.463H51.1818C51.073 75.463 50.9839 75.374 50.9839 75.2651C50.9839 75.1595 51.073 75.0704 51.1851 75.0704Z" fill="#0054A6"/>
<path d="M52.5809 75.0376L52.9999 75.0145H53.0032C53.1121 75.0079 53.2078 75.0937 53.2144 75.2026C53.221 75.3114 53.1352 75.4071 53.0263 75.4137L52.604 75.4368C52.4952 75.4434 52.3995 75.3576 52.3929 75.2487C52.383 75.1399 52.4655 75.0442 52.5809 75.0376Z" fill="#0054A6"/>
<path d="M53.9695 74.9317L54.3852 74.8855H54.3885C54.4974 74.8723 54.5996 74.9515 54.6095 75.0636C54.6227 75.1725 54.5435 75.2748 54.4314 75.2847L54.0091 75.3308C53.9002 75.344 53.8013 75.2649 53.7881 75.1527C53.7749 75.0405 53.854 74.9449 53.9695 74.9317Z" fill="#0054A6"/>
<path d="M55.3511 74.7539L55.7635 74.6879H55.7668C55.8789 74.6714 55.9812 74.744 56.001 74.8561C56.0175 74.9683 55.9449 75.0706 55.8327 75.0904L55.4138 75.1563C55.3049 75.1728 55.1993 75.1003 55.1828 74.9881C55.163 74.8759 55.2389 74.7703 55.3511 74.7539Z" fill="#0054A6"/>
<path d="M56.7235 74.5065L57.1326 74.4207H57.1359C57.2448 74.3976 57.3536 74.4669 57.38 74.5791C57.4031 74.6879 57.3339 74.7968 57.2217 74.8232L56.806 74.9123C56.6971 74.9354 56.5883 74.8661 56.5652 74.7539C56.5388 74.6384 56.6081 74.5296 56.7235 74.5065Z" fill="#0054A6"/>
<path d="M58.0797 74.1894L58.4855 74.0838H58.4888C58.5977 74.0541 58.7099 74.1201 58.7396 74.2289C58.7693 74.3378 58.7033 74.45 58.5944 74.4797L58.1853 74.5885C58.0765 74.6182 57.9643 74.5523 57.9346 74.4434C57.9049 74.3312 57.9676 74.219 58.0797 74.1894Z" fill="#0054A6"/>
<path d="M59.4229 73.8134L59.8221 73.6881H59.8254C59.9343 73.6551 60.0498 73.7144 60.0861 73.8233C60.119 73.9322 60.0597 74.0477 59.9508 74.0839L59.545 74.2093C59.4361 74.2423 59.3207 74.1829 59.2877 74.074C59.2514 73.9652 59.3141 73.8497 59.4229 73.8134Z" fill="#0054A6"/>
<path d="M60.7494 73.3748L61.142 73.2329H61.1453C61.2541 73.1933 61.3729 73.2494 61.4125 73.3583C61.4521 73.4671 61.396 73.5859 61.2871 73.6255L60.8879 73.7707C60.7791 73.8102 60.6603 73.7542 60.624 73.6453C60.5844 73.5364 60.6405 73.4177 60.7494 73.3748Z" fill="#0054A6"/>
<path d="M62.0522 72.8796L62.4382 72.7212H62.4415C62.5471 72.6783 62.6692 72.7278 62.712 72.8334C62.7549 72.939 62.7055 73.061 62.5999 73.1039L62.2073 73.2656C62.1017 73.3085 61.9796 73.259 61.9368 73.1534C61.8939 73.0478 61.9434 72.9258 62.0522 72.8796Z" fill="#0054A6"/>
<path d="M63.3358 72.329L63.7152 72.1542H63.7185C63.8241 72.1047 63.9462 72.1509 63.9957 72.2564C64.0452 72.362 63.999 72.4841 63.8934 72.5335L63.5074 72.7117C63.4018 72.7612 63.2798 72.715 63.2303 72.6094C63.1841 72.5006 63.2303 72.3785 63.3358 72.329Z" fill="#0054A6"/>
<path d="M64.5926 71.722L64.9654 71.5307H64.9687C65.0709 71.4779 65.1963 71.5175 65.2491 71.6198C65.3019 71.722 65.2623 71.8474 65.16 71.9002L64.7839 72.0948C64.6816 72.1476 64.5563 72.108 64.5035 72.0058C64.4474 71.9035 64.487 71.7748 64.5926 71.722Z" fill="#0054A6"/>
<path d="M65.8231 71.0653L66.186 70.8575H66.1893C66.2883 70.8014 66.4169 70.8344 66.4763 70.9366C66.5324 71.0356 66.4994 71.1643 66.3972 71.2237L66.0277 71.4348C65.9287 71.4909 65.8 71.4579 65.7439 71.3556C65.6846 71.2501 65.7208 71.1214 65.8231 71.0653Z" fill="#0054A6"/>
<path d="M67.0237 70.356L67.38 70.1349H67.3833C67.4822 70.0722 67.6109 70.1019 67.6736 70.2009C67.7363 70.2999 67.7066 70.4285 67.6076 70.4912L67.248 70.7156C67.149 70.7782 67.0204 70.7485 66.9577 70.6496C66.895 70.5473 66.9247 70.4186 67.0237 70.356Z" fill="#0054A6"/>
<path d="M68.1979 69.5973L68.5443 69.3597H68.5476C68.6433 69.2937 68.7753 69.3201 68.8413 69.4158C68.9072 69.5115 68.8808 69.6434 68.7852 69.7094L68.4355 69.947C68.3398 70.0129 68.2078 69.9865 68.1418 69.8909C68.0759 69.7952 68.099 69.6665 68.1979 69.5973Z" fill="#0054A6"/>
<path d="M69.3396 68.7955L69.6762 68.548H69.6795C69.7718 68.4788 69.9038 68.4985 69.9731 68.5909C70.0424 68.6833 70.0226 68.8153 69.9302 68.8845L69.5904 69.1353C69.498 69.2045 69.366 69.1848 69.2968 69.0891C69.2242 69 69.244 68.868 69.3396 68.7955Z" fill="#0054A6"/>
<path d="M70.4547 67.9509L70.7813 67.6903H70.7846C70.877 67.6177 71.0089 67.6342 71.0815 67.7233C71.1541 67.8157 71.1376 67.9476 71.0485 68.0202L70.7153 68.2842C70.6229 68.3567 70.491 68.3402 70.4184 68.2512C70.3458 68.1588 70.359 68.0268 70.4547 67.9509Z" fill="#0054A6"/>
<path d="M71.5374 67.07L71.8574 66.7995C71.9465 66.7236 72.0818 66.7335 72.1576 66.8226C72.2335 66.9116 72.2236 67.0469 72.1345 67.1228L71.8112 67.3966C71.7222 67.4725 71.5902 67.4626 71.5143 67.3735C71.4351 67.2811 71.445 67.1459 71.5374 67.07Z" fill="#0054A6"/>
<path d="M72.5892 66.1498L72.8993 65.866C72.9851 65.7868 73.1204 65.7935 73.1995 65.8792C73.2787 65.965 73.2721 66.1003 73.1863 66.1794L72.8729 66.4632C72.7872 66.5423 72.6519 66.5357 72.5727 66.45C72.4935 66.3642 72.5001 66.2289 72.5892 66.1498Z" fill="#0054A6"/>
<path d="M73.6081 65.1961L73.9084 64.9025C73.9941 64.82 74.1261 64.8233 74.2086 64.9058C74.2911 64.9916 74.2878 65.1236 74.2053 65.206L73.9018 65.4997C73.816 65.5821 73.684 65.5788 73.6016 65.4964C73.5224 65.4139 73.5224 65.2786 73.6081 65.1961Z" fill="#0054A6"/>
<path d="M74.5983 64.2101L74.8886 63.9099C74.9711 63.8241 75.1064 63.8241 75.1889 63.9033C75.2746 63.9858 75.2746 64.121 75.1955 64.2035L74.9018 64.507C74.8194 64.5928 74.6841 64.5928 74.6016 64.5136C74.5191 64.4312 74.5158 64.2959 74.5983 64.2101Z" fill="#0054A6"/>
<path d="M75.5619 63.1937L75.8456 62.8836C75.9248 62.7978 76.06 62.7912 76.1491 62.8704C76.2349 62.9496 76.2415 63.0849 76.1623 63.1739L75.8786 63.4874C75.7994 63.5731 75.6641 63.5797 75.575 63.5006C75.486 63.4214 75.4794 63.2828 75.5619 63.1937Z" fill="#0054A6"/>
<path d="M76.4931 62.1512L76.767 61.8345C76.8428 61.7454 76.9781 61.7355 77.0705 61.8114C77.1629 61.8873 77.1695 62.0226 77.0936 62.1149L76.8165 62.435C76.7406 62.524 76.6053 62.5339 76.5129 62.4581C76.4239 62.3789 76.414 62.2436 76.4931 62.1512Z" fill="#0054A6"/>
<path d="M77.3953 61.0823L77.6592 60.7557C77.7351 60.6633 77.8703 60.6502 77.9627 60.726C78.0551 60.8019 78.0683 60.9372 77.9924 61.0295L77.7252 61.3562C77.6493 61.4485 77.514 61.4617 77.4216 61.3858C77.3326 61.31 77.3194 61.1747 77.3953 61.0823Z" fill="#0054A6"/>
<path d="M78.2694 59.9901L78.5267 59.6569C78.5993 59.5612 78.7346 59.5447 78.8302 59.6173C78.9259 59.6899 78.9424 59.8252 78.8698 59.9208L78.6092 60.254C78.5366 60.3464 78.4013 60.3662 78.3057 60.2936C78.21 60.2211 78.1935 60.0858 78.2694 59.9901Z" fill="#0054A6"/>
<path d="M79.1147 58.8785L79.3621 58.542C79.4314 58.4463 79.5667 58.4265 79.6623 58.4958C79.758 58.5651 79.7778 58.7004 79.7085 58.796L79.4578 59.1358C79.3885 59.2315 79.2532 59.2513 79.1576 59.182C79.0619 59.1127 79.0454 58.9742 79.1147 58.8785Z" fill="#0054A6"/>
<path d="M79.9366 57.7436L80.1774 57.4005C80.2467 57.3016 80.3819 57.2785 80.4776 57.3477C80.5766 57.417 80.5997 57.5523 80.5304 57.648L80.2863 57.9944C80.217 58.0933 80.0817 58.1164 79.9861 58.0472C79.8904 57.9779 79.8673 57.8426 79.9366 57.7436Z" fill="#0054A6"/>
<path d="M80.731 56.5924L80.9652 56.2427C81.0312 56.1437 81.1665 56.1173 81.2655 56.1833C81.3644 56.2493 81.3908 56.3845 81.3248 56.4835L81.0906 56.8365C81.0246 56.9355 80.8894 56.9619 80.7904 56.8959C80.6881 56.8266 80.6617 56.6913 80.731 56.5924Z" fill="#0054A6"/>
<path d="M81.5 55.4212L81.7276 55.0682C81.7936 54.9659 81.9256 54.9362 82.0278 55.0022C82.1301 55.0682 82.1598 55.2001 82.0938 55.3024L81.8662 55.6587C81.8002 55.761 81.6682 55.7907 81.566 55.7247C81.4637 55.6587 81.434 55.5234 81.5 55.4212Z" fill="#0054A6"/>
<path d="M82.2461 54.2369L82.4638 53.8773C82.5265 53.7751 82.6618 53.7421 82.7641 53.8047C82.8663 53.8674 82.8993 54.0027 82.8366 54.105L82.6156 54.4646C82.5529 54.5668 82.4177 54.5998 82.3154 54.5371C82.2131 54.4745 82.1801 54.3392 82.2461 54.2369Z" fill="#0054A6"/>
<path d="M82.9684 53.0359L83.1829 52.673C83.2455 52.5707 83.3775 52.5344 83.4831 52.5971C83.5853 52.6598 83.6216 52.7917 83.559 52.8973L83.3445 53.2602C83.2818 53.3625 83.1499 53.3988 83.0443 53.3361C82.942 53.2767 82.9057 53.1414 82.9684 53.0359Z" fill="#0054A6"/>
<path d="M83.6742 51.8251L83.8821 51.4589C83.9415 51.3533 84.0767 51.317 84.179 51.3764C84.2846 51.4358 84.3208 51.571 84.2615 51.6733L84.0536 52.0395C83.9942 52.1451 83.859 52.1814 83.7567 52.122C83.6478 52.0659 83.6115 51.9306 83.6742 51.8251Z" fill="#0054A6"/>
<path d="M84.3633 50.6045L84.5679 50.235C84.6273 50.1295 84.7592 50.0899 84.8648 50.1493C84.9704 50.2087 85.01 50.3406 84.9506 50.4462L84.746 50.8157C84.6866 50.9213 84.5547 50.9608 84.4491 50.9015C84.3402 50.8454 84.304 50.7101 84.3633 50.6045Z" fill="#0054A6"/>
<path d="M85.0403 49.3771L85.2415 49.0076C85.3009 48.902 85.4329 48.8624 85.5384 48.9185C85.644 48.9779 85.6836 49.1099 85.6275 49.2154L85.4263 49.5849C85.3669 49.6905 85.2349 49.7301 85.1294 49.674C85.0205 49.6179 84.9809 49.4827 85.0403 49.3771Z" fill="#0054A6"/>
<path d="M85.7096 48.1432L85.9076 47.7737C85.9637 47.6681 86.0989 47.6253 86.2045 47.6846C86.3101 47.7407 86.353 47.876 86.2936 47.9816L86.0923 48.3511C86.0362 48.4566 85.901 48.4995 85.7954 48.4401C85.6931 48.384 85.6503 48.2521 85.7096 48.1432Z" fill="#0054A6"/>
<path d="M86.3731 46.906L86.5711 46.5332C86.6272 46.4243 86.7624 46.3847 86.8713 46.4441C86.9802 46.5002 87.0197 46.6354 86.9604 46.7443L86.7624 47.1171C86.7063 47.226 86.5711 47.2656 86.4622 47.2062C86.3566 47.1468 86.317 47.0148 86.3731 46.906Z" fill="#0054A6"/>
<path d="M87.0357 45.6689L87.2337 45.2961C87.2897 45.1872 87.425 45.1476 87.5339 45.207C87.6427 45.2631 87.6823 45.3984 87.6229 45.5072L87.425 45.88C87.3689 45.9889 87.2337 46.0285 87.1248 45.9691C87.0192 45.9097 86.9763 45.7745 87.0357 45.6689Z" fill="#0054A6"/>
<path d="M87.6993 44.4317L87.9005 44.0622C87.9599 43.9533 88.0919 43.9138 88.2008 43.9731C88.3096 44.0325 88.3492 44.1645 88.2898 44.2734L88.0886 44.6429C88.0292 44.7517 87.8972 44.7913 87.7884 44.7319C87.6828 44.6725 87.6432 44.5373 87.6993 44.4317Z" fill="#0054A6"/>
<path d="M88.3684 43.1947L88.5697 42.8252C88.629 42.7163 88.7643 42.6767 88.8699 42.7361C88.9787 42.7955 89.0183 42.9307 88.9589 43.0363L88.7577 43.4058C88.6983 43.5147 88.5631 43.5543 88.4575 43.4949C88.3486 43.4355 88.309 43.3002 88.3684 43.1947Z" fill="#0054A6"/>
<path d="M89.0443 41.9609L89.2488 41.5914C89.3082 41.4826 89.4435 41.4463 89.5523 41.5057C89.6612 41.5651 89.6975 41.7003 89.6381 41.8092L89.4336 42.1754C89.3742 42.2843 89.2389 42.3205 89.1301 42.2612C89.0245 42.2051 88.9849 42.0698 89.0443 41.9609Z" fill="#0054A6"/>
<path d="M89.7344 40.7372L89.9456 40.371C90.005 40.2654 90.1435 40.2291 90.2491 40.2885C90.3547 40.3479 90.3909 40.4864 90.3316 40.592L90.1237 40.9582C90.0643 41.0638 89.9258 41.1001 89.8202 41.0407C89.7113 40.978 89.675 40.8427 89.7344 40.7372Z" fill="#0054A6"/>
<path d="M90.4448 39.5195L90.6592 39.1566C90.7219 39.051 90.8571 39.0181 90.9627 39.0807C91.0683 39.1434 91.1013 39.2787 91.0386 39.3843L90.8241 39.7471C90.7615 39.8527 90.6262 39.8857 90.5206 39.8263C90.4151 39.7603 90.3821 39.6251 90.4448 39.5195Z" fill="#0054A6"/>
<path d="M91.1667 38.3119L91.3877 37.9523C91.4504 37.85 91.5857 37.817 91.688 37.8797C91.7902 37.9424 91.8232 38.0776 91.7605 38.1799L91.5395 38.5395C91.4768 38.6418 91.3415 38.6748 91.236 38.6121C91.137 38.5494 91.104 38.4142 91.1667 38.3119Z" fill="#0054A6"/>
<path d="M91.9122 37.1178L92.1399 36.7615C92.2059 36.6592 92.3411 36.6296 92.4401 36.6955C92.5424 36.7615 92.5721 36.8968 92.5061 36.9958L92.2784 37.3488C92.2125 37.451 92.0772 37.4807 91.9749 37.4147C91.876 37.3554 91.8463 37.2201 91.9122 37.1178Z" fill="#0054A6"/>
<path d="M92.6838 35.9366L92.9213 35.5869C92.9873 35.4879 93.1225 35.4615 93.2215 35.5275C93.3205 35.5935 93.3469 35.7288 93.2809 35.8277L93.0467 36.1774C92.9807 36.2764 92.8454 36.3028 92.7431 36.2368C92.6442 36.1741 92.6178 36.0389 92.6838 35.9366Z" fill="#0054A6"/>
<path d="M93.4823 34.7752L93.7298 34.4321C93.7991 34.3364 93.9343 34.3133 94.03 34.3826C94.1257 34.4519 94.1488 34.5872 94.0795 34.6828L93.8353 35.0259C93.7661 35.1216 93.6308 35.1447 93.5351 35.0754C93.4395 35.0061 93.4131 34.8742 93.4823 34.7752Z" fill="#0054A6"/>
<path d="M94.3173 33.6375L94.5746 33.3009C94.6472 33.2053 94.7824 33.1888 94.8748 33.2614C94.9705 33.3339 94.987 33.4692 94.9144 33.5616L94.6604 33.8948C94.5878 33.9905 94.4525 34.0069 94.3602 33.9377C94.2612 33.8684 94.2447 33.7331 94.3173 33.6375Z" fill="#0054A6"/>
<path d="M95.1813 32.5256L95.4486 32.1957C95.5244 32.1033 95.6564 32.0901 95.7488 32.166C95.8412 32.2419 95.8544 32.3738 95.7785 32.4662L95.5145 32.7928C95.4387 32.8852 95.3067 32.8984 95.2143 32.8258C95.1219 32.7532 95.1088 32.6179 95.1813 32.5256Z" fill="#0054A6"/>
<path d="M96.0851 31.4401L96.3622 31.1201C96.4381 31.031 96.5734 31.0211 96.6624 31.1003C96.7515 31.1762 96.7614 31.3115 96.6822 31.4005L96.4084 31.7172C96.3325 31.8063 96.1973 31.8162 96.1082 31.7403C96.0191 31.6645 96.0092 31.5292 96.0851 31.4401Z" fill="#0054A6"/>
<path d="M97.0264 30.3843L97.3167 30.0742C97.3959 29.9885 97.5311 29.9852 97.6169 30.0643C97.7027 30.1435 97.706 30.2788 97.6268 30.3645L97.3398 30.6714V30.6747C97.2606 30.7604 97.1253 30.7637 97.0396 30.6846C96.9505 30.6054 96.9472 30.4734 97.0264 30.3843Z" fill="#0054A6"/>
<path d="M98.0023 29.365L98.3025 29.0648C98.385 28.9823 98.5169 28.9823 98.5994 29.0648C98.6819 29.1473 98.6819 29.2792 98.5994 29.3617L98.3025 29.6586L98.2992 29.6619C98.2167 29.7444 98.0848 29.7444 98.0023 29.6619C97.9198 29.5794 97.9198 29.4475 98.0023 29.365Z" fill="#0054A6"/>
<path d="M99.0179 28.385L99.3313 28.098C99.4171 28.0188 99.549 28.0254 99.6282 28.1112C99.7074 28.1969 99.7008 28.3289 99.615 28.4081H99.6117L99.3049 28.6918L99.3016 28.6951C99.2158 28.7743 99.0839 28.7677 99.0047 28.6819C98.9255 28.5961 98.9321 28.4642 99.0179 28.385Z" fill="#0054A6"/>
<path d="M100.074 27.4451L100.397 27.1712C100.487 27.0987 100.619 27.1086 100.691 27.1976C100.764 27.2867 100.754 27.4187 100.665 27.4912H100.661L100.341 27.7618L100.338 27.7651C100.249 27.8409 100.117 27.8278 100.044 27.7387C99.9752 27.6529 99.9851 27.5209 100.074 27.4451Z" fill="#0054A6"/>
<path d="M101.17 26.5541L101.507 26.2968C101.599 26.2275 101.728 26.244 101.797 26.3364C101.866 26.4288 101.85 26.5574 101.758 26.6267H101.754L101.421 26.8807L101.418 26.884C101.325 26.9533 101.197 26.9368 101.127 26.8444C101.065 26.7554 101.081 26.6234 101.17 26.5541Z" fill="#0054A6"/>
<path d="M102.311 25.7128L102.661 25.472C102.753 25.4093 102.882 25.4324 102.944 25.5248C103.007 25.6171 102.984 25.7458 102.891 25.8085H102.888L102.545 26.046L102.542 26.0493C102.449 26.1153 102.321 26.0922 102.255 25.9965C102.192 25.9075 102.215 25.7788 102.311 25.7128Z" fill="#0054A6"/>
<path d="M103.488 24.9343L103.851 24.7132C103.947 24.6538 104.069 24.6835 104.128 24.7792C104.188 24.8749 104.158 24.9969 104.062 25.0563H104.059L103.703 25.2774L103.699 25.2807C103.604 25.3401 103.478 25.3104 103.419 25.2147C103.363 25.119 103.392 24.9936 103.488 24.9343Z" fill="#0054A6"/>
<path d="M104.713 24.2185L105.086 24.0172C105.182 23.9644 105.304 24.0007 105.353 24.0964C105.406 24.1921 105.37 24.3141 105.274 24.3636H105.271L104.904 24.5616H104.901C104.805 24.6143 104.683 24.5781 104.631 24.4824C104.578 24.3933 104.614 24.2712 104.713 24.2185Z" fill="#0054A6"/>
<path d="M105.973 23.5752L106.359 23.397C106.458 23.3508 106.573 23.3937 106.616 23.4927C106.662 23.5916 106.62 23.7071 106.521 23.75H106.517L106.138 23.9282H106.135C106.036 23.9743 105.92 23.9315 105.874 23.8325C105.831 23.7368 105.874 23.6213 105.973 23.5752Z" fill="#0054A6"/>
<path d="M107.269 23.0076L107.664 22.8525C107.763 22.8129 107.876 22.8624 107.912 22.9614C107.951 23.0604 107.902 23.1725 107.803 23.2088H107.8L107.41 23.3606H107.407C107.308 23.4002 107.196 23.3507 107.156 23.2517C107.12 23.1593 107.17 23.0472 107.269 23.0076Z" fill="#0054A6"/>
<path d="M108.602 22.5226L109.007 22.394C109.106 22.3643 109.212 22.4171 109.245 22.516C109.278 22.615 109.222 22.7206 109.123 22.7536H109.12L108.72 22.8822H108.717C108.618 22.9152 108.513 22.8592 108.48 22.7602C108.447 22.6612 108.499 22.5556 108.602 22.5226Z" fill="#0054A6"/>
<path d="M109.962 22.1298L110.374 22.0309C110.473 22.0078 110.572 22.0671 110.598 22.1661C110.621 22.2651 110.562 22.3641 110.463 22.3905H110.46L110.054 22.4894H110.051C109.952 22.5125 109.849 22.4531 109.826 22.3542C109.8 22.2552 109.863 22.1529 109.962 22.1298Z" fill="#0054A6"/>
<path d="M111.346 21.8299L111.765 21.7639C111.864 21.7474 111.957 21.8167 111.973 21.9157C111.99 22.0146 111.921 22.107 111.822 22.1235H111.818L111.406 22.1928H111.403C111.304 22.2093 111.208 22.1433 111.191 22.041C111.182 21.9421 111.247 21.8464 111.346 21.8299Z" fill="#0054A6"/>
<path d="M112.755 21.6485L113.181 21.6188C113.28 21.6122 113.366 21.6848 113.372 21.7838C113.379 21.8828 113.306 21.9685 113.207 21.9751H113.204L112.788 22.0048H112.782C112.683 22.0114 112.597 21.9388 112.59 21.8399C112.584 21.7409 112.656 21.6551 112.755 21.6485Z" fill="#0054A6"/>
<path d="M114.177 21.599L114.603 21.6122C114.699 21.6155 114.775 21.6947 114.771 21.7936C114.768 21.8893 114.689 21.9652 114.59 21.9619H114.583L114.168 21.9487H114.161C114.065 21.9454 113.986 21.8662 113.989 21.7672C113.999 21.6716 114.078 21.5957 114.177 21.599Z" fill="#0054A6"/>
<path d="M115.596 21.7044L116.018 21.7704C116.111 21.7836 116.177 21.8727 116.16 21.9651C116.147 22.0574 116.058 22.1234 115.966 22.1102H115.959L115.55 22.0475H115.543C115.448 22.0343 115.385 21.9453 115.398 21.8529C115.415 21.7539 115.504 21.6879 115.596 21.7044Z" fill="#0054A6"/>
<path d="M116.995 21.9883L117.404 22.1136C117.493 22.14 117.542 22.2324 117.516 22.3215C117.49 22.4106 117.397 22.46 117.311 22.4336L117.305 22.4304L116.909 22.3149L116.902 22.3116C116.813 22.2852 116.764 22.1928 116.787 22.1037C116.813 22.0114 116.906 21.9619 116.995 21.9883Z" fill="#0054A6"/>
<path d="M118.339 22.4767L118.725 22.6647C118.804 22.7043 118.837 22.8 118.8 22.8791C118.761 22.9583 118.665 22.9913 118.586 22.955L118.579 22.9517L118.207 22.7736L118.2 22.7703C118.118 22.7307 118.085 22.635 118.124 22.5525C118.16 22.4701 118.256 22.4371 118.339 22.4767Z" fill="#0054A6"/>
<path d="M119.584 23.1793L119.931 23.4366C120 23.4894 120.013 23.5851 119.964 23.6544C119.914 23.7237 119.815 23.7369 119.746 23.6874L119.74 23.6808L119.41 23.4366L119.403 23.43C119.334 23.3773 119.317 23.2816 119.37 23.209C119.416 23.143 119.515 23.1265 119.584 23.1793Z" fill="#0054A6"/>
<path d="M120.671 24.116L120.958 24.4361C121.014 24.4987 121.007 24.5911 120.945 24.6472C120.882 24.7033 120.789 24.6967 120.733 24.6373L120.727 24.6307L120.45 24.3239L120.443 24.3173C120.387 24.2546 120.39 24.1589 120.453 24.1028C120.519 24.0501 120.615 24.0534 120.671 24.116Z" fill="#0054A6"/>
<path d="M121.548 25.2479L121.765 25.6174C121.805 25.6867 121.782 25.7757 121.716 25.8153C121.647 25.8549 121.561 25.8318 121.518 25.7658L121.515 25.7592L121.3 25.4062L121.297 25.3996C121.254 25.3304 121.277 25.2413 121.347 25.1984C121.416 25.1555 121.505 25.1786 121.548 25.2479Z" fill="#0054A6"/>
<path d="M122.187 26.5276L122.325 26.9334C122.352 27.006 122.312 27.0851 122.239 27.1115C122.167 27.1379 122.088 27.0983 122.064 27.0258L122.061 27.0159L121.923 26.6266L121.919 26.6167C121.893 26.5441 121.933 26.4616 122.005 26.4385C122.081 26.4154 122.16 26.4517 122.187 26.5276Z" fill="#0054A6"/>
<path d="M122.548 27.9132L122.591 28.3421C122.597 28.4146 122.544 28.4806 122.472 28.4872C122.399 28.4938 122.333 28.441 122.327 28.3717V28.3618L122.28 27.9528V27.9429C122.271 27.8703 122.327 27.801 122.399 27.7944C122.472 27.7845 122.541 27.8373 122.548 27.9132Z" fill="#0054A6"/>
<path d="M122.567 29.3485L122.498 29.774C122.488 29.8433 122.422 29.8895 122.353 29.8763C122.284 29.8664 122.238 29.8004 122.247 29.7345V29.7246L122.31 29.3188V29.3089C122.32 29.2396 122.386 29.1901 122.455 29.2033C122.531 29.2132 122.577 29.2759 122.567 29.3485Z" fill="#0054A6"/>
<path d="M122.199 30.7341L122.146 30.8562C122.12 30.9155 122.047 30.9419 121.988 30.9155C121.928 30.8891 121.902 30.8199 121.928 30.7572V30.7539L121.978 30.6384V30.6351C122.004 30.5757 122.077 30.546 122.136 30.5724C122.195 30.6021 122.225 30.6714 122.199 30.7341Z" fill="#0054A6"/>
</svg>
