<svg width="20" height="14" viewBox="0 0 20 14" fill="none" xmlns="http://www.w3.org/2000/svg">
<path d="M0.200012 0.413086H19.8002V13.5869H0.200012V0.413086Z" fill="#D6D4D1"/>
<path d="M0.363281 0.573242H6.78973V13.4255H0.363281V0.573242Z" fill="white"/>
<path d="M6.78925 0.572754H19.6404V13.4251H6.78925V0.572754Z" fill="#02411D"/>
<path d="M16.4186 8.28933C16.4108 8.28383 16.4003 8.28489 16.3937 8.29159C16.3372 8.34916 16.2891 8.39453 16.2421 8.43658C15.6848 8.93253 14.9664 9.20593 14.2209 9.20593C13.3514 9.20593 12.521 8.83346 11.9433 8.18371C11.4038 7.57544 11.1319 6.79402 11.1801 5.98149C11.2278 5.17009 11.5885 4.42565 12.1968 3.88546C12.2439 3.84341 12.2953 3.8008 12.3596 3.75098C12.3673 3.74548 12.3698 3.7349 12.3651 3.72664C12.3606 3.71782 12.3508 3.71394 12.342 3.71669C10.9421 4.16388 10.0025 5.45076 10.0025 6.92025C10.0025 8.77497 11.5107 10.2832 13.3653 10.2832C14.6787 10.2832 15.8804 9.50996 16.4261 8.31403C16.4292 8.30478 16.4268 8.29484 16.4186 8.28933Z" fill="white"/>
<path d="M13.7038 5.70735L14.4809 5.87732L14.5589 6.66932C14.5601 6.67765 14.5661 6.68484 14.5745 6.68647C14.5757 6.68703 14.5772 6.68703 14.5789 6.68703C14.5855 6.68703 14.5922 6.68315 14.5953 6.67765L14.9977 5.99134L15.7743 6.16124C15.7765 6.16181 15.7777 6.16181 15.7787 6.16181H15.7799C15.791 6.16181 15.7998 6.15299 15.7998 6.14191C15.7998 6.13528 15.7954 6.12865 15.791 6.12533L15.2652 5.53421L15.6675 4.84846C15.672 4.8407 15.6709 4.83188 15.6653 4.82518C15.6593 4.81855 15.6504 4.81686 15.6428 4.82017L14.9138 5.13902L14.3853 4.54514C14.3798 4.53851 14.371 4.53632 14.3632 4.53957C14.355 4.54288 14.3499 4.55177 14.3511 4.55954L14.429 5.35097L13.7 5.66982C13.6924 5.6737 13.6878 5.68146 13.6891 5.69028C13.6895 5.69853 13.6955 5.70573 13.7038 5.70735Z" fill="white"/>
</svg>
