<svg width="64" height="64" viewBox="0 0 64 64" fill="none" xmlns="http://www.w3.org/2000/svg">
<path opacity="0.995" fill-rule="evenodd" clip-rule="evenodd" d="M35.4371 18.3124C34.8084 18.0061 34.1416 17.8811 33.4371 17.9374C33.2705 17.9374 33.1038 17.9374 32.9371 17.9374C32.9578 17.4771 32.937 17.0189 32.8746 16.5624C32.8165 16.3835 32.7123 16.2378 32.5621 16.1249C31.3121 15.9999 30.0621 15.8749 28.8121 15.7499C28.382 15.5279 27.9861 15.257 27.6246 14.9374C27.2215 14.36 26.8673 13.7559 26.5621 13.1249C26.0354 12.8413 25.5563 12.9038 25.1246 13.3124C24.7369 14.4491 24.0078 15.2616 22.9371 15.7499C20.4853 15.9104 18.0269 15.9938 15.5621 15.9999C15.2913 16.104 15.1038 16.2915 14.9996 16.5624C14.9373 17.0606 14.9164 17.5606 14.9371 18.0624C14.0735 17.853 13.2401 17.9364 12.4371 18.3124C10.9498 12.9899 12.1998 8.42743 16.1871 4.62488C20.0584 1.70422 24.2668 1.12089 28.8121 2.87488C33.3841 5.15922 35.8008 8.86754 36.0621 13.9999C35.9955 15.4615 35.7873 16.899 35.4371 18.3124Z" fill="#525252"/>
<path opacity="0.989" fill-rule="evenodd" clip-rule="evenodd" d="M43.9372 10.9373C43.9372 9.604 43.9372 8.27068 43.9372 6.93734C43.895 6.37555 44.145 6.02139 44.6872 5.87484C45.203 5.80988 45.5989 5.99738 45.8747 6.43734C45.8955 7.27068 45.9163 8.104 45.9372 8.93734C45.9538 9.86654 45.8913 10.7832 45.7497 11.6873C45.208 12.0207 44.6663 12.0207 44.1247 11.6873C43.9837 11.4567 43.9212 11.2067 43.9372 10.9373Z" fill="#C8D4D9"/>
<path opacity="0.989" fill-rule="evenodd" clip-rule="evenodd" d="M58.0625 7.93746C57.8959 8.60413 57.8959 9.2708 58.0625 9.93746C58.1009 10.5478 57.9968 11.1311 57.75 11.6875C57.343 11.9285 56.9055 11.991 56.4375 11.875C56.2084 11.8125 56.0625 11.6666 56 11.4375C55.9167 9.7708 55.9167 8.10413 56 6.43746C56.4943 5.73055 57.0777 5.64721 57.75 6.18746C58.013 6.74018 58.1172 7.32351 58.0625 7.93746Z" fill="#C8D4D8"/>
<path opacity="0.984" fill-rule="evenodd" clip-rule="evenodd" d="M43.9372 6.9375C43.9372 8.27084 43.9372 9.60416 43.9372 10.9375C43.8156 10.6315 43.774 10.2982 43.8122 9.9375C43.1672 9.86392 42.6047 10.0306 42.1247 10.4375C42.0831 10.6042 42.0414 10.7708 41.9997 10.9375C41.9164 13.2709 41.9164 15.6041 41.9997 17.9375C42.2695 22.4142 44.5404 25.3101 48.8122 26.625C53.4966 27.4181 56.9341 25.7306 59.1247 21.5625C59.5985 20.4436 59.8485 19.277 59.8747 18.0625C59.9581 15.6875 59.9581 13.3125 59.8747 10.9375C59.8665 10.5905 59.7207 10.3197 59.4372 10.125C58.989 9.98655 58.5306 9.92405 58.0622 9.9375C57.8956 9.27084 57.8956 8.60416 58.0622 7.9375C59.9206 7.62644 61.1915 8.33477 61.8747 10.0625C62.0744 12.7245 62.116 15.3911 61.9997 18.0625C61.7825 22.7714 59.5532 26.1255 55.3122 28.125C54.2679 28.5527 53.1845 28.8236 52.0622 28.9375C52.1037 33.6255 52.062 38.2921 51.9372 42.9375C51.9372 38.2709 51.9372 33.6041 51.9372 28.9375C51.2706 28.9375 50.6039 28.9375 49.9372 28.9375C45.2135 28.3175 42.026 25.7759 40.3747 21.3125C40.0464 20.2541 39.8797 19.1707 39.8747 18.0625C39.7585 15.3911 39.8001 12.7245 39.9997 10.0625C40.683 8.33477 41.9539 7.62644 43.8122 7.9375C43.774 7.57683 43.8156 7.24349 43.9372 6.9375Z" fill="#DBE9EE"/>
<path opacity="0.999" fill-rule="evenodd" clip-rule="evenodd" d="M33.4375 17.9375C33.304 18.0542 33.1374 18.096 32.9375 18.0625C32.9584 20.0629 32.9375 22.0629 32.875 24.0625C32.766 24.7007 32.6201 25.3257 32.4375 25.9375C31.9616 27.3896 31.17 28.6396 30.0625 29.6875C25.9801 32.6707 21.8969 32.6707 17.8125 29.6875C16.705 28.6396 15.9134 27.3896 15.4375 25.9375C15.2549 25.3257 15.109 24.7007 15 24.0625C14.9375 22.0629 14.9166 20.0629 14.9375 18.0625C14.9168 17.5607 14.9376 17.0607 15 16.5625C15.1041 16.2916 15.2916 16.1041 15.5625 16C18.0273 15.9939 20.4856 15.9105 22.9375 15.75C24.0081 15.2617 24.7373 14.4492 25.125 13.3125C25.5566 12.9039 26.0358 12.8414 26.5625 13.125C26.8676 13.756 27.2219 14.3601 27.625 14.9375C27.9865 15.2571 28.3824 15.528 28.8125 15.75C30.0625 15.875 31.3125 16 32.5625 16.125C32.7126 16.2379 32.8169 16.3836 32.875 16.5625C32.9374 17.019 32.9581 17.4772 32.9375 17.9375C33.1041 17.9375 33.2709 17.9375 33.4375 17.9375Z" fill="#FCD4A5"/>
<path opacity="0.986" fill-rule="evenodd" clip-rule="evenodd" d="M14.9371 18.0625C14.9162 20.0629 14.9371 22.0629 14.9996 24.0625C15.1086 24.7008 15.2545 25.3258 15.4371 25.9375C12.1474 25.3614 10.6682 23.403 10.9996 20.0625C11.2298 19.2703 11.709 18.6869 12.4371 18.3125C13.2401 17.9365 14.0735 17.8531 14.9371 18.0625Z" fill="#FCCD97"/>
<path opacity="0.985" fill-rule="evenodd" clip-rule="evenodd" d="M33.4375 17.9374C34.142 17.8812 34.8087 18.0062 35.4375 18.3124C36.8081 19.1922 37.2874 20.4422 36.875 22.0624C36.2673 24.3579 34.7881 25.6495 32.4375 25.9374C32.6201 25.3257 32.766 24.7007 32.875 24.0624C32.9375 22.0628 32.9584 20.0628 32.9375 18.0624C33.1374 18.0959 33.304 18.0542 33.4375 17.9374Z" fill="#FCCD97"/>
<path opacity="0.996" fill-rule="evenodd" clip-rule="evenodd" d="M49.9375 28.9375C50.6041 28.9375 51.2709 28.9375 51.9375 28.9375C51.9375 33.6041 51.9375 38.2709 51.9375 42.9375C51.8656 45.2803 50.7406 46.8844 48.5625 47.75C47.6967 47.9174 46.8217 47.9799 45.9375 47.9375C41.8959 47.9375 37.8541 47.9375 33.8125 47.9375C33.9576 47.2642 33.9576 46.5975 33.8125 45.9375C37.8541 45.9375 41.8959 45.9375 45.9375 45.9375C47.7279 46.1161 48.9987 45.4077 49.75 43.8125C49.9322 38.858 49.9947 33.8996 49.9375 28.9375Z" fill="#C8D4D8"/>
<path opacity="0.993" fill-rule="evenodd" clip-rule="evenodd" d="M17.8125 29.6875C21.8969 32.6707 25.9801 32.6707 30.0625 29.6875C30.0625 31.1041 30.0625 32.5209 30.0625 33.9375C29.7972 36.3099 28.5056 37.8724 26.1875 38.625C23.713 39.3599 21.463 38.9432 19.4375 37.375C18.4 36.4466 17.8584 35.3007 17.8125 33.9375C17.8125 32.5209 17.8125 31.1041 17.8125 29.6875Z" fill="#FDCD96"/>
<path opacity="0.998" fill-rule="evenodd" clip-rule="evenodd" d="M17.8125 33.9373C17.8584 35.3006 18.4 36.4464 19.4375 37.3748C21.463 38.9431 23.713 39.3597 26.1875 38.6248C28.5056 37.8722 29.7972 36.3097 30.0625 33.9373C36.149 33.1631 40.8782 35.2881 44.25 40.3123C45.2297 42.0638 45.7922 43.9388 45.9375 45.9373C41.8959 45.9373 37.8541 45.9373 33.8125 45.9373C33.0187 43.7261 31.4354 42.7469 29.0625 42.9998C26.7641 43.7831 25.7432 45.3872 26 47.8123C27.1985 50.8092 29.261 51.6217 32.1875 50.2498C32.9954 49.6703 33.537 48.8996 33.8125 47.9373C37.8541 47.9373 41.8959 47.9373 45.9375 47.9373C45.9375 50.6039 45.9375 53.2707 45.9375 55.9373C43.6041 55.9373 41.2709 55.9373 38.9375 55.9373C38.9375 57.9373 38.9375 59.9373 38.9375 61.9373C28.9375 61.9373 18.9375 61.9373 8.9375 61.9373C8.9375 59.9373 8.9375 57.9373 8.9375 55.9373C6.60416 55.9373 4.27083 55.9373 1.9375 55.9373C1.91667 52.312 1.9375 48.6871 2 45.0623C3.2078 38.8233 6.93696 35.1358 13.1875 33.9998C14.7286 33.9373 16.2702 33.9164 17.8125 33.9373Z" fill="#FE6B6B"/>
<path fill-rule="evenodd" clip-rule="evenodd" d="M33.8121 45.9374C33.9573 46.5974 33.9573 47.2641 33.8121 47.9374C33.5366 48.8996 32.995 49.6704 32.1871 50.2499C29.2606 51.6217 27.1981 50.8092 25.9996 47.8124C25.7429 45.3872 26.7638 43.7831 29.0621 42.9999C31.435 42.747 33.0184 43.7261 33.8121 45.9374Z" fill="#DBE7EC"/>
<path fill-rule="evenodd" clip-rule="evenodd" d="M29.3121 44.9375C31.5137 44.9491 32.2846 45.9908 31.6246 48.0625C30.8377 48.9893 29.9002 49.1768 28.8121 48.625C27.51 47.1876 27.6766 45.9584 29.3121 44.9375Z" fill="#C8D4D9"/>
<path fill-rule="evenodd" clip-rule="evenodd" d="M1.93749 55.9375C4.27083 55.9375 6.60416 55.9375 8.93749 55.9375C8.93749 57.9375 8.93749 59.9375 8.93749 61.9375C6.67578 61.9966 4.42578 61.9341 2.18749 61.75C2.10927 61.6562 2.04677 61.552 1.99999 61.4375C1.93751 59.6046 1.91667 57.7713 1.93749 55.9375Z" fill="#FDD4A5"/>
<path fill-rule="evenodd" clip-rule="evenodd" d="M45.9375 55.9375C45.9584 57.7713 45.9375 59.6046 45.875 61.4375C45.8282 61.552 45.7657 61.6562 45.6875 61.75C43.4493 61.9341 41.1992 61.9966 38.9375 61.9375C38.9375 59.9375 38.9375 57.9375 38.9375 55.9375C41.2709 55.9375 43.6041 55.9375 45.9375 55.9375Z" fill="#FDD4A5"/>
</svg>
