<svg width="48" height="48" viewBox="0 0 48 48" fill="none" xmlns="http://www.w3.org/2000/svg">
<path fill-rule="evenodd" clip-rule="evenodd" d="M6.5 17.5C2.9 17.5 0 20.4 0 24C0 27.6 2.9 30.5 6.5 30.5C10.1 30.5 13 27.6 13 24C13 20.4 10.1 17.5 6.5 17.5ZM7.6 27.3H6.9V28.4C6.9 29 6 29 6 28.4V27.3H4.3C3.7 27.3 3.7 26.4 4.3 26.4H7.6C8.2 26.4 8.6 25.9 8.6 25.4C8.6 24.9 8.1 24.4 7.6 24.4H5.4C4.4 24.4 3.5 23.6 3.5 22.5C3.5 21.5 4.3 20.6 5.4 20.6H6.1V19.5C6.1 18.9 7 18.9 7 19.5V20.6H8.8C9.4 20.6 9.4 21.5 8.8 21.5H5.4C4.8 21.5 4.4 22 4.4 22.5C4.4 23.1 4.8 23.5 5.4 23.5H7.6C8.6 23.5 9.5 24.3 9.5 25.4C9.5 26.5 8.6 27.3 7.6 27.3Z" fill="#FFDD33"/>
<path fill-rule="evenodd" clip-rule="evenodd" d="M41.7016 11.4002C41.8016 11.3002 41.8016 11.2002 41.9016 11.1002L42.1016 8.10021C42.1016 7.80021 41.9016 7.50021 41.6016 7.50021C41.3016 7.50021 41.0016 7.70021 41.0016 8.00021L40.9016 9.80021C32.0016 1.00021 17.7016 1.10021 8.90156 9.90021C8.10156 10.7002 7.40156 11.5002 6.80156 12.3002C6.50156 12.7002 6.80156 13.2002 7.20156 13.2002C7.40156 13.2002 7.50156 13.1002 7.60156 13.0002C15.5016 2.50021 30.9016 1.40021 40.2016 10.7002L38.2016 11.0002C37.9016 11.1002 37.7016 11.3002 37.8016 11.6002C37.9016 11.9002 38.1016 12.1002 38.4016 12.0002L41.4016 11.5002C41.6016 11.5002 41.7016 11.5002 41.7016 11.4002Z" fill="#002548"/>
<path fill-rule="evenodd" clip-rule="evenodd" d="M34.6969 21.0998H34.5969C32.0969 20.5998 30.8969 17.7998 32.0969 15.5998C32.3969 15.0998 32.2969 14.4998 31.7969 14.0998C30.7969 13.2998 29.7969 12.6998 28.6969 12.2998C28.1969 12.0998 27.4969 12.2998 27.1969 12.7998C25.7969 15.2998 22.1969 15.2998 20.7969 12.7998C20.4969 12.2998 19.8969 12.0998 19.2969 12.2998C18.1969 12.6998 17.0969 13.3998 16.1969 14.0998C15.6969 14.4998 15.5969 15.0998 15.8969 15.5998C17.1969 17.7998 15.8969 20.5998 13.3969 21.0998H13.2969C14.0969 22.9998 14.0969 24.8998 13.2969 26.7998H13.3969C15.8969 27.2998 17.1969 30.0998 15.8969 32.2998C15.5969 32.7998 15.6969 33.4998 16.1969 33.7998C17.1969 34.4998 18.1969 35.0998 19.2969 35.5998C19.7969 35.7998 20.4969 35.5998 20.7969 35.0998C22.1969 32.5998 25.7969 32.5998 27.1969 35.0998C27.4969 35.5998 28.0969 35.7998 28.6969 35.5998C29.7969 35.0998 30.8969 34.5998 31.7969 33.7998C32.2969 33.3998 32.3969 32.7998 32.0969 32.2998C30.7969 30.0998 32.0969 27.2998 34.5969 26.7998H34.6969C33.8969 24.8998 33.8969 23.0998 34.6969 21.0998ZM23.9969 28.8998C21.7969 28.8998 19.8969 27.3998 19.2969 25.2998C18.5969 22.6998 20.0969 19.9998 22.6969 19.2998C25.2969 18.5998 27.8969 20.0998 28.6969 22.6998C29.4969 25.7998 27.1969 28.8998 23.9969 28.8998Z" fill="#839299"/>
<path fill-rule="evenodd" clip-rule="evenodd" d="M44.0984 25.5998C44.0984 26.1998 43.5984 26.6998 42.9984 26.6998H39.8984V21.2998H42.9984C43.5984 21.2998 44.0984 21.7998 44.0984 22.3998C44.0984 22.9998 43.5984 23.4998 42.9984 23.4998C42.3984 23.4998 42.3984 24.3998 42.9984 24.3998C43.5984 24.3998 44.0984 24.9998 44.0984 25.5998Z" fill="#FFB229"/>
<path fill-rule="evenodd" clip-rule="evenodd" d="M41.3995 36.9002C41.1995 36.7002 40.7994 36.7002 40.5994 36.9002C39.8994 37.6002 39.0994 38.3002 38.2994 39.0002C28.8995 46.4002 15.2994 44.8002 7.89945 35.4002L9.89945 35.3002C10.5994 35.2002 10.4995 34.2002 9.79945 34.2002L6.79945 34.4002C6.49945 34.4002 6.29945 34.6002 6.29945 34.9002L5.79945 37.9002C5.69945 38.2002 5.89945 38.5002 6.19945 38.5002C6.49945 38.5002 6.79945 38.4002 6.79945 38.1002L7.09945 36.3002C15.8995 47.0002 31.9995 47.6002 41.3995 37.7002C41.5995 37.5002 41.5995 37.2002 41.3995 36.9002Z" fill="#002548"/>
<path fill-rule="evenodd" clip-rule="evenodd" d="M44.0984 25.5998C44.0984 26.1998 43.5984 26.6998 42.9984 26.6998H39.8984V21.2998H42.9984C43.5984 21.2998 44.0984 21.7998 44.0984 22.3998C44.0984 22.9998 43.5984 23.4998 42.9984 23.4998C42.3984 23.4998 42.3984 24.3998 42.9984 24.3998C43.5984 24.3998 44.0984 24.9998 44.0984 25.5998Z" fill="#FFB229"/>
<path fill-rule="evenodd" clip-rule="evenodd" d="M42.8969 24.4002C43.4969 24.4002 43.9969 24.9002 43.9969 25.5002C43.9969 26.1002 43.4969 26.6002 42.8969 26.6002H39.7969V21.2002H42.8969C43.4969 21.2002 43.9969 21.7002 43.9969 22.3002C43.9969 22.9002 43.4969 23.4002 42.8969 23.4002C42.3969 23.6002 42.3969 24.4002 42.8969 24.4002Z" fill="#0054A6"/>
<path fill-rule="evenodd" clip-rule="evenodd" d="M41.5 17.5C37.9 17.5 35 20.4 35 24C35 27.6 37.9 30.5 41.5 30.5C45.1 30.5 48 27.6 48 24C48 20.4 45.1 17.5 41.5 17.5ZM44.3 24.1C45.6 25.3 44.8 27.5 43 27.6H42.9V28.1C42.9 28.7 42 28.7 42 28.1V27.6H41.2V28.1C41.2 28.7 40.3 28.7 40.3 28.1V27.6H39.3C39.1 27.6 38.9 27.4 38.9 27.2V21C38.9 20.8 39.1 20.6 39.3 20.6H40.3V20C40.3 19.4 41.2 19.4 41.2 20V20.5H42V20C42 19.4 42.9 19.4 42.9 20V20.5H43C44.1 20.5 44.9 21.4 44.9 22.5C44.9 23.1 44.7 23.6 44.3 24.1Z" fill="#0054A6"/>
</svg>
