<svg width="420" height="280" viewBox="0 0 420 280" fill="none" xmlns="http://www.w3.org/2000/svg">
<g clip-path="url(#clip0_18103_19318)">
<path d="M234.306 77.9468L242.813 70.1739L251.104 77.1988C253.272 76.0718 255.554 75.2531 257.887 74.742L259.753 64.0358L271.265 64.555L272.16 75.3858C274.437 76.1049 276.636 77.1256 278.695 78.4433L287.584 72.1932L295.357 80.7005L288.332 88.9909C289.459 91.1596 290.278 93.4414 290.789 95.7743L301.495 97.6407L300.976 109.153L290.145 110.047C289.426 112.325 288.405 114.524 287.087 116.582L293.338 125.471L284.83 133.244L276.54 126.219C274.371 127.346 272.089 128.165 269.756 128.676L267.89 139.382L256.378 138.863L255.483 128.032C253.206 127.313 251.007 126.293 248.949 124.975L240.06 131.225L232.287 122.718L239.312 114.427C238.184 112.259 237.366 109.977 236.855 107.644L226.148 105.778L226.668 94.2656L237.498 93.3708C238.218 91.0933 239.238 88.8944 240.556 86.836L234.306 77.9468Z" fill="#E5E6EB"/>
<path d="M241.94 100.997C241.788 104.359 242.429 107.577 243.698 110.469L244.543 109.82V109.818C243.404 107.129 242.832 104.152 242.972 101.044C243.079 98.6729 243.591 96.4155 244.442 94.3347L243.45 94.0231C242.579 96.1896 242.051 98.5354 241.94 100.997ZM247.122 115.891C250.818 120.157 256.186 122.959 262.256 123.233C269.416 123.556 275.923 120.286 280.024 115.022L279.044 114.597C275.131 119.484 269.021 122.503 262.302 122.2C256.505 121.939 251.381 119.253 247.865 115.169L247.122 115.891ZM257.955 81.3213L258.651 82.2136C260.406 81.8065 262.243 81.6306 264.129 81.7156C275.291 82.2191 283.962 91.7094 283.459 102.87C283.455 102.946 283.452 103.023 283.446 103.099L284.465 103.375C284.476 103.222 284.485 103.069 284.492 102.917C285.021 91.1862 275.906 81.2123 264.175 80.6833C262.027 80.5861 259.937 80.8127 257.955 81.3213Z" fill="white"/>
<path d="M257.801 106.437L257.164 107.291C257.24 107.384 257.321 107.475 257.403 107.565C260.631 111.098 266.132 111.345 269.666 108.117C272.796 105.257 273.348 100.617 271.188 97.1376L270.41 97.8487C272.194 100.892 271.676 104.88 268.968 107.354C265.855 110.198 261.01 109.98 258.166 106.868C258.038 106.728 257.916 106.585 257.801 106.437ZM257.958 95.3029C255.51 97.5397 254.64 100.866 255.407 103.873L256.379 103.489C255.755 100.875 256.532 98.0057 258.655 96.0659C260.932 93.9854 264.139 93.5447 266.809 94.6762L267.313 93.7698C264.263 92.4295 260.572 92.9142 257.958 95.3029Z" fill="white"/>
<path d="M149.89 171.881C179.882 171.881 204.195 147.568 204.195 117.577C204.195 87.5853 179.882 63.2723 149.89 63.2723C119.899 63.2723 95.5859 87.5853 95.5859 117.577C95.5859 147.568 119.899 171.881 149.89 171.881Z" fill="#155BCD"/>
<mask id="mask0_18103_19318" style="mask-type:luminance" maskUnits="userSpaceOnUse" x="95" y="63" width="110" height="109">
<path d="M149.886 171.881C179.878 171.881 204.191 147.568 204.191 117.576C204.191 87.5848 179.878 63.2719 149.886 63.2719C119.895 63.2719 95.582 87.5848 95.582 117.576C95.582 147.568 119.895 171.881 149.886 171.881Z" fill="white"/>
</mask>
<g mask="url(#mask0_18103_19318)">
<path d="M169.533 139.249C169.536 138.991 169.48 138.715 169.55 138.463C169.672 138.028 170.094 137.624 170.119 137.174C170.123 137.098 170.142 136.929 170.121 136.853C170.095 136.76 170.065 136.744 170.009 136.665C169.831 136.413 169.586 136.18 169.393 135.936C169.021 135.465 168.663 134.974 168.494 134.39C168.381 133.999 168.419 133.789 168.691 133.533C168.974 133.267 168.512 132.819 168.707 132.473C168.965 132.017 169.482 131.768 169.723 131.286C169.929 130.874 169.955 130.488 169.949 130.032C169.942 129.532 169.947 129.036 170.001 128.539C170.066 127.943 170.278 127.74 170.757 127.389C171.004 127.209 171.031 127.181 171.022 126.904C171.013 126.591 171.003 126.3 171.085 125.991C171.188 125.603 171.364 125.188 171.654 124.921C171.999 124.603 172.08 123.999 172.165 123.551C172.215 123.289 172.246 123.119 172.426 122.935C172.59 122.767 172.675 122.589 172.756 122.364C173.1 121.406 173.258 120.423 173.491 119.441C173.58 119.069 173.716 118.732 173.856 118.374C173.925 118.197 174.115 117.51 174.335 117.41C174.437 117.363 174.551 117.417 174.667 117.363C175.02 117.201 175.2 116.585 175.597 116.501C175.754 116.467 175.889 116.588 176.027 116.629C176.259 116.699 176.334 116.649 176.536 116.495C176.898 116.217 177.254 115.869 177.534 115.51C177.811 115.158 178.191 114.937 178.518 114.623C178.776 114.376 179.03 114.124 179.289 113.878C179.37 113.8 179.82 113.322 180.033 113.215C180.229 113.116 180.214 113.229 180.367 113.321C180.908 113.646 181.282 112.457 181.62 112.22C181.662 112.19 181.743 112.197 181.788 112.166C181.938 112.067 182.029 111.77 182.091 111.617C182.203 111.34 182.221 110.915 182.52 111.248C182.712 111.462 182.791 111.775 182.888 112.04C182.938 112.174 183.042 112.72 183.166 112.81C183.271 112.887 183.376 112.85 183.514 112.868C184.037 112.939 184.319 113.391 184.811 113.512C185.315 113.636 185.847 113.288 186.244 113.019C186.446 112.881 186.677 112.637 186.948 112.679C187.275 112.73 187.614 113.048 187.888 113.218C188.212 113.089 188.338 112.721 188.547 112.473C188.747 112.236 188.828 112.035 188.951 111.733C189.237 111.025 189.228 110.136 189.762 109.56C189.948 109.36 190.124 109.276 190.378 109.151C190.809 108.939 191.208 108.678 191.645 108.478C192.135 108.254 192.862 108.117 193.274 107.739C193.52 107.514 193.442 107.016 193.439 106.732C193.434 106.05 193.388 105.345 193.436 104.665C193.448 104.495 193.519 104.347 193.533 104.174C193.573 103.691 193.391 103.152 193.311 102.685C193.244 102.302 193.24 101.819 192.965 101.507C192.722 101.23 192.494 101.45 192.214 101.62C191.847 101.842 191.425 102.045 191.081 102.3C190.892 102.441 190.686 102.751 190.464 102.842C190.284 102.917 189.995 102.85 189.803 102.855C189.528 102.861 189.261 102.862 188.993 102.771C188.331 102.548 187.72 101.751 187.731 101.052C187.733 100.934 187.721 100.817 187.724 100.699C187.732 100.399 187.865 100.152 187.902 99.8659C187.948 99.5086 187.937 98.998 187.883 98.6563C187.818 98.2404 187.697 97.7734 187.563 97.3753C187.482 97.1343 187.355 96.9135 187.388 96.6486C187.459 96.0753 188.046 96.164 188.445 96.2757C188.706 96.3486 189.457 96.5924 189.616 96.2517C189.725 96.0174 189.719 95.6772 189.719 95.4252C189.72 94.9633 189.726 94.5257 189.539 94.096C189.272 94.066 189.175 94.4354 188.931 94.4973C188.57 94.589 188.004 94.4982 187.657 94.4987C187.292 94.4992 186.926 94.5101 186.56 94.5078C186.369 94.5065 186.144 94.5314 185.98 94.4051C185.753 94.2292 185.605 93.8691 185.466 93.6268C185.409 93.5288 185.294 93.2067 185.175 93.1632C185.069 93.6258 185.166 94.1875 185.166 94.6611C185.166 94.9265 185.117 95.1533 185.079 95.4084C185.055 95.5686 185.051 95.7194 185.019 95.8807C184.985 96.0524 184.987 96.2057 185.019 96.3813C185.066 96.6389 185.086 96.8532 185.081 97.1172C185.077 97.3592 185.036 97.6899 185.149 97.9077C185.217 98.0437 185.325 98.1264 185.475 98.1558C185.609 98.241 185.715 98.3532 185.794 98.492C185.883 98.6113 186.008 98.7364 186.061 98.8774C186.164 99.152 186.089 99.484 186.194 99.7665C186.26 99.9459 186.398 100.058 186.497 100.212C186.649 100.447 186.572 100.836 186.572 101.114C186.572 101.567 186.574 102.019 186.57 102.472C186.568 102.752 186.547 103.057 186.632 103.329C186.688 103.508 186.741 103.607 186.74 103.803C186.739 103.952 186.699 104.115 186.762 104.257C186.869 104.497 187.173 104.701 187.383 104.843C187.558 104.962 188.083 105.331 187.887 105.589C187.752 105.767 186.949 105.659 186.852 105.652C186.303 105.614 186.067 105.557 185.679 105.163C185.243 104.719 184.91 104.19 184.511 103.716C184.338 103.492 184.141 103.292 183.921 103.114C183.855 103.054 183.787 102.996 183.718 102.94C183.568 102.906 183.509 103.05 183.404 103.088C183.304 103.124 183.176 103.102 183.07 103.102C182.444 103.099 181.814 103.055 181.204 103.225C180.771 103.346 180.378 103.577 180.002 103.823C180.385 104.339 181.252 104.786 181.921 104.843C182.549 104.896 183.257 105.011 183.807 105.347C184.104 105.528 184.296 105.802 184.415 106.123C184.539 106.455 184.471 106.755 184.518 107.094C184.578 107.522 184.86 107.904 184.878 108.338C184.334 108.126 183.801 107.861 183.348 107.485C182.875 107.091 182.492 106.454 182.101 105.981C182.018 105.88 181.72 105.446 181.497 105.474C181.334 105.495 181.191 105.752 181.1 105.85C180.695 106.283 180.37 106.353 179.841 106.093C179.561 105.956 179.293 105.805 179.037 105.628C178.886 105.523 178.652 105.44 178.624 105.233C178.122 105.744 177.834 106.522 177.574 107.177C177.437 107.524 177.263 107.86 177.129 108.207C177.072 108.355 177.063 108.402 177.1 108.574C177.142 108.769 177.244 108.933 177.314 109.116C177.403 109.35 177.428 109.651 177.408 109.903C177.377 110.301 177.163 110.424 176.982 110.743C176.872 110.937 176.888 111.097 176.892 111.31C176.902 111.784 176.894 112.26 176.894 112.735C176.894 113.179 176.96 113.674 176.905 114.112C176.839 114.628 176.14 114.898 175.739 115.108C175.493 115.237 175.179 115.228 174.903 115.267C174.315 115.351 173.873 115.712 173.372 116.002C173.212 116.095 173.11 116.29 172.939 116.339C172.308 116.517 171.62 115.75 171.293 115.333C170.892 114.822 170.506 114.196 170.285 113.578C170.166 113.243 170.187 112.933 170.192 112.589C170.199 112.198 170.194 111.806 170.194 111.415C170.193 111.131 170.076 110.803 170.415 110.726C170.855 110.627 171.413 110.693 171.799 110.396C172.207 110.082 172.554 109.844 173.042 109.609C173.297 109.493 173.553 109.376 173.809 109.259C174.065 109.253 174.244 109.154 174.347 108.964C174.106 108.858 173.881 108.745 173.658 108.607C173.356 108.42 173.21 108.131 173.004 107.846C172.668 107.38 172.569 106.705 172.46 106.149C172.404 105.864 172.429 105.582 172.428 105.294C172.426 105.007 172.367 104.862 172.245 104.614C172.01 104.136 171.877 103.507 171.851 102.974C171.824 102.386 171.813 101.763 171.86 101.174C171.885 100.852 171.953 100.547 172.121 100.272C172.297 99.9827 172.551 99.7852 172.761 99.5227C172.818 99.4503 172.846 99.3684 172.895 99.2953C172.994 99.1468 173.121 99.0868 173.294 99.0071C173.577 98.8777 173.916 98.8001 174.123 98.5555C174.177 98.4918 174.217 98.4153 174.273 98.352C174.405 98.2028 174.653 98.1188 174.773 97.9738C174.848 97.8836 174.854 97.7404 174.818 97.6068C174.736 97.3047 174.396 97.1889 174.395 96.8434C174.394 96.672 174.48 96.5261 174.568 96.3866C174.71 96.1632 174.826 95.9383 174.954 95.7057C175.081 95.4752 175.191 95.3631 175.405 95.2231C175.539 95.1349 175.723 95.0433 175.819 94.9123C175.682 94.8068 176.1 94.1052 176.081 94.0088C175.991 93.5724 175.835 93.1608 175.662 92.7511C175.457 92.2629 175.198 91.8645 174.809 91.5071C174.33 91.0671 173.684 90.8181 173.175 90.4158C172.918 90.2125 172.702 90.0429 172.672 89.6947C172.641 89.352 172.642 88.9799 172.713 88.6396C172.758 88.4192 172.851 88.3104 172.849 88.0939C172.847 87.9273 172.788 87.7637 172.766 87.6004C172.739 87.4094 172.757 87.2682 172.552 87.1711C172.336 87.0689 172.144 87.2033 171.94 87.2772C171.408 87.4701 170.968 87.6161 170.384 87.5551C169.898 87.5043 169.531 87.2023 169.178 86.8965C169.043 86.7794 168.879 86.5631 168.691 86.5528C168.597 86.657 168.609 86.8143 168.605 86.946C168.586 87.645 168.936 88.2748 169.279 88.8592C169.645 89.4844 170.289 89.9934 170.583 90.6631C170.677 90.8797 170.691 91.1613 170.693 91.3943C170.697 91.9205 170.729 92.2381 171.129 92.6521C171.329 92.8761 171.556 93.071 171.809 93.2368C171.982 93.3186 172.118 93.4362 172.217 93.5896C172.276 93.7115 172.233 93.7583 172.258 93.8801C172.279 93.9792 172.333 94.0344 172.38 94.1286C172.515 94.3997 172.472 94.8217 172.246 95.0377C171.99 95.2833 171.472 95.2812 171.164 95.2495C170.454 95.1767 169.716 94.9398 169.069 94.651C168.544 94.4164 168.092 94.1261 167.766 93.6308C167.514 93.2471 167.42 92.9329 167.361 92.482C167.306 92.066 167.134 91.6606 167.123 91.2416C167.119 91.1074 167.153 90.9751 167.131 90.8413C167.066 90.441 166.606 89.815 166.447 89.5392C166.068 88.8859 165.651 88.2326 165.309 87.5576C164.923 86.7963 164.987 86.042 164.984 85.2083C164.982 84.7986 164.895 84.2833 165.017 83.8845C165.149 83.4524 165.523 83.1322 165.732 82.7425C165.787 82.6395 165.767 82.4993 165.817 82.4141C165.901 82.2678 166.192 82.3428 166.335 82.341C166.596 82.3375 166.902 82.3332 167.151 82.2352C167.248 82.1968 167.335 82.1364 167.438 82.1078C167.594 82.0651 167.778 82.0482 167.931 82.1121C168.199 82.3252 168.456 82.551 168.703 82.789C168.932 82.9541 169.162 83.1192 169.392 83.2845C169.657 83.4536 169.972 83.7009 170.285 83.5433C170.501 83.4343 170.615 83.227 170.813 83.0985C171.514 82.6438 172.097 83.8748 172.36 84.3441C172.283 83.6473 172.136 82.9541 171.997 82.2673C171.855 81.5728 171.766 80.7922 171.464 80.1497C171.37 79.9496 171.249 79.7084 171.093 79.5474C170.793 79.2387 170.322 79.0603 169.985 78.782C169.748 78.5857 169.545 78.3656 169.35 78.1272C169.143 77.8738 168.87 77.6836 168.602 77.4964C167.92 77.0213 167.034 76.7142 166.271 76.376C165.959 76.2373 165.239 75.9866 164.902 75.7124C164.551 75.4282 164.423 74.9513 164.089 74.6628C163.879 74.4817 163.636 74.5864 163.362 74.5684C163.021 74.5462 162.734 74.3535 162.465 74.1565C162.064 73.8633 161.663 73.6092 161.23 73.3622C160.861 73.1517 160.493 72.9328 160.121 72.7296C159.949 72.6359 159.756 72.6873 159.548 72.6133C159.466 72.5844 159.401 72.5288 159.322 72.4924C159.171 72.4232 158.991 72.3953 158.834 72.3378C158.583 72.2453 158.345 72.1094 158.092 72.0167C157.779 71.9019 157.417 71.8277 157.09 71.7508C156.355 71.5777 155.595 71.5144 154.868 71.3089C154.636 71.2431 154.507 71.1159 154.294 71.0096C154.052 70.8895 153.94 70.748 153.818 70.5139C153.721 70.3257 153.589 70.16 153.492 69.9744C153.308 69.6228 153.21 69.1716 152.781 69.0934C152.055 68.9612 151.302 68.7152 150.564 68.6859C150.103 68.6677 149.444 68.8422 149.07 68.5089C148.738 68.2134 148.534 67.447 147.981 67.5207C147.641 67.566 147.338 67.8763 147.025 68.0159C146.718 68.1527 146.436 68.258 146.111 68.3218C145.667 68.409 145.23 68.5545 144.804 68.7035C144.399 68.8452 143.846 69.219 143.388 69.2115C142.776 69.2017 142.291 68.878 141.746 68.6607C141.305 68.4851 140.751 68.6805 140.338 68.8509C140.113 68.9437 139.833 69.147 139.593 69.1864C139.529 69.197 139.466 69.1741 139.405 69.1811C139.109 69.2147 138.796 69.3955 138.508 69.4741C137.677 69.701 136.926 70.2317 136.085 70.4121C135.872 70.4578 135.649 70.4271 135.432 70.4267C135.024 70.4259 134.616 70.4226 134.208 70.4282C133.862 70.433 133.544 70.4598 133.29 70.1816C133.111 69.985 133.131 69.7608 133.134 69.5116C133.141 68.9745 133.192 68.3924 133.109 67.8584C133.98 67.4805 135.016 67.5543 135.887 67.137C136.42 66.8809 136.984 66.7166 137.518 66.4628C138.005 66.2307 138.435 65.9651 138.878 65.6771C139.051 65.5645 139.6 65.2205 139.588 64.9675C139.56 64.361 140.755 64.1019 141.247 63.8343C142.743 63.0204 144.388 62.2475 146.073 61.9294C146.79 61.794 147.792 61.6668 148.501 61.9962C148.904 62.1834 149.257 62.4337 149.675 62.6C150.825 63.0581 152.029 63.3765 153.272 63.3127C154.101 63.2702 154.978 63.2385 155.771 62.9812C156.117 62.8692 156.461 62.7325 156.805 62.6141C157.591 62.343 158.406 62.198 159.222 62.0395C160.014 61.8854 160.77 61.9085 161.572 61.9081C162.362 61.9078 163.157 61.8532 163.944 61.9271C165.004 62.0267 166.025 62.3616 167.083 62.4825C168.423 62.6357 169.772 62.5483 171.112 62.7315C172.132 62.8711 173.12 63.143 174.128 63.346C174.525 63.426 174.924 63.4868 175.319 63.5793C175.661 63.6594 176.061 63.6873 176.371 63.8679C176.727 64.0752 177.063 64.3029 177.39 64.5535C177.405 64.7653 177.99 64.8326 178.122 64.9833C178.605 65.5316 179.166 65.9909 179.742 66.4403C181.412 67.7461 183.259 68.8283 184.922 70.1485C186.942 71.7536 188.773 73.596 190.49 75.5174C193.509 78.8948 196.557 82.4355 198.811 86.3756C200.643 89.5766 201.654 93.1726 203.274 96.4828C204.002 97.9713 204.757 99.4333 205.656 100.826C206.479 102.1 207.382 103.314 208.175 104.607C209.396 106.597 210.308 108.784 210.89 111.045C211.634 113.935 212.577 116.775 213.196 119.696C213.603 121.616 214.257 123.517 214.23 125.5C214.202 127.58 213.819 129.697 213.346 131.718C213.063 132.925 212.715 134.116 212.44 135.326C212.118 136.74 211.829 138.139 211.339 139.509C210.852 140.871 210.234 142.202 209.657 143.528C209.304 144.338 208.989 145.213 208.53 145.973C208.221 146.485 207.816 146.927 207.452 147.397C206.92 148.084 206.448 148.821 205.89 149.489C203.74 152.061 200.966 154.099 198.465 156.307C197.473 157.182 196.458 158.007 195.502 158.923C195.035 159.37 194.539 159.777 194.035 160.18C193.828 160.345 193.479 160.732 193.189 160.755C193.061 160.746 192.848 160.667 192.82 160.597C192.7 160.298 192.563 160.004 192.413 159.72C192.205 159.327 191.927 158.934 191.652 158.583C191.516 158.408 191.399 158.263 191.184 158.183C190.837 158.054 190.433 158.108 190.071 158.108C189.843 158.108 189.439 158.035 189.213 158.131C189.109 157.98 189.153 157.617 189.156 157.455C189.161 157.208 189.177 157.003 189.238 156.755C189.332 156.376 189.454 156.012 189.659 155.681C189.716 155.588 189.789 155.519 189.848 155.43C189.913 155.331 189.949 155.215 189.995 155.106C190.01 155.07 190.044 155.061 190.05 155.022C190.078 154.853 190.06 154.726 190.111 154.545C190.231 154.117 190.271 153.716 190.267 153.271C190.266 153.109 190.289 152.935 190.257 152.775C190.221 152.593 190.113 152.453 190.099 152.265C190.07 151.88 190.11 151.582 190.323 151.251C190.664 150.721 191.107 150.26 191.43 149.719C191.493 149.614 191.537 149.536 191.574 149.427C191.656 149.189 191.797 149.001 191.899 148.773C192.043 148.452 192.141 148.082 192.187 147.733C192.231 147.396 192.167 147.077 192.101 146.748C191.975 146.113 191.935 145.443 191.989 144.797C192.014 144.491 192.032 144.194 192.032 143.887C192.032 143.808 192.056 143.69 192.041 143.615C192.014 143.475 191.916 143.399 191.813 143.311C191.627 143.152 191.495 143.012 191.383 142.789C191.252 142.528 191.161 142.232 191.056 141.96C190.929 141.629 190.801 141.3 190.67 140.972C190.592 140.787 190.518 140.602 190.446 140.415C190.345 140.005 190.508 139.553 190.428 139.14C190.348 138.731 190.039 138.734 189.702 138.754C189.034 138.793 188.388 138.982 187.736 139.081C187.025 139.188 186.361 139.585 185.711 139.861C185.114 140.113 184.499 140.33 183.906 140.591C183.982 140.558 183.078 140.93 183.034 141.072C182.976 141.262 183.084 141.484 183.019 141.689C182.849 142.219 182.428 142.66 181.968 142.951C181.723 143.105 181.469 143.236 181.231 143.403C181.109 143.489 181.012 143.556 180.872 143.619C180.545 143.767 180.223 143.944 179.859 143.94C179.625 143.938 179.401 143.939 179.174 143.876C179.062 143.845 178.96 143.788 178.848 143.765C178.818 143.759 178.757 143.754 178.725 143.755C178.54 143.772 178.374 143.841 178.226 143.963C177.936 144.139 177.636 144.294 177.326 144.428C177.046 144.536 176.877 144.487 176.655 144.263C176.471 144.077 176.358 143.845 176.189 143.646C176.026 143.453 175.819 143.282 175.621 143.124C175.435 142.976 175.174 142.724 174.922 142.722C174.578 142.718 174.181 142.782 173.85 142.672C173.734 142.633 173.614 142.596 173.499 142.555C173.066 142.402 172.842 142.071 172.504 141.787C172.265 141.586 171.956 141.457 171.787 141.187C171.687 141.027 171.553 141.009 171.41 140.893C171.322 140.822 171.251 140.743 171.154 140.684C171.091 140.645 171.024 140.615 170.969 140.565C170.811 140.418 170.729 140.195 170.671 139.992C170.614 139.793 170.571 139.403 170.347 139.309C170.255 139.271 170.076 139.304 169.976 139.303C169.931 139.303 169.866 139.292 169.82 139.3C169.74 139.315 169.618 139.267 169.533 139.249Z" fill="#84A9FF"/>
<path d="M113.615 145.204C113.471 146.01 113.029 146.749 112.851 147.553C112.751 148.003 112.58 148.654 112.843 149.089C113.197 149.673 114.174 150.19 114.675 150.447C115.336 150.785 116.004 151.033 116.691 151.313C117.155 151.502 117.059 151.382 117.119 151.702C117.177 152.007 117.065 152.374 117.135 152.704C117.296 153.469 117.733 154.193 118.24 154.78C118.533 155.119 118.916 155.383 119.207 155.728C119.63 156.23 119.875 156.904 120.241 157.45C120.61 158.001 121.138 158.539 121.398 159.162C121.636 159.734 121.607 160.371 121.858 160.949C122.263 161.882 123.053 162.568 123.505 163.482C123.716 163.907 124.017 164.419 124.044 164.897C124.066 165.27 123.976 165.396 124.208 165.725C124.666 166.374 125.561 166.778 126.209 167.211C126.895 167.67 127.292 168.395 128.03 168.796C129.805 169.758 131.853 169.604 133.779 169.681C134.377 169.705 134.833 170.021 135.432 170.057C136.239 170.106 137.217 170.023 137.951 169.76C138.642 169.541 139.219 169.169 139.682 168.642C139.996 168.354 140.288 168.045 140.558 167.716C140.827 167.525 140.922 167.549 141.244 167.537C141.749 167.518 142.121 167.317 142.614 167.159C143.047 167.02 143.459 166.934 143.899 166.888C144.236 166.852 144.385 166.814 144.76 166.688C145.498 166.441 146.325 166.264 146.998 165.868C147.68 165.467 148.289 164.649 149.041 164.409C149.276 164.334 149.607 164.503 149.82 164.38C150.24 164.137 149.989 162.987 150.003 162.583C150.012 162.307 149.959 162.137 150.16 161.939C150.272 161.829 150.519 161.773 150.657 161.666C150.957 161.434 151.206 161.123 151.494 160.875C151.734 160.668 152.124 160.475 152.326 160.246C152.597 159.94 152.452 159.584 152.527 159.19C152.575 158.937 152.681 158.684 152.7 158.424C152.756 157.678 152.284 157.278 151.761 156.844C150.248 155.589 148.635 154.541 146.645 154.473C146.404 154.464 146.114 154.517 145.882 154.453C145.746 154.415 145.302 154.028 145.272 154.008C144.633 153.591 143.843 153.603 143.119 153.415C142.033 153.133 141.845 151.978 141.338 151.095C140.594 149.797 139.609 148.524 138.296 147.773C137.796 147.487 137.258 147.338 136.707 147.176C135.734 146.889 134.859 146.416 133.968 145.939C133.44 145.656 132.915 145.297 132.333 145.14C132.006 145.052 131.703 145.089 131.398 145.012C131.088 144.933 130.829 144.597 130.579 144.401C129.931 143.897 129.281 143.405 128.648 142.881C128.337 142.623 128.02 142.316 127.614 142.227C127.415 142.184 127.305 142.228 127.122 142.139C126.885 142.024 126.807 141.898 126.526 141.809C125.617 141.519 124.74 141.317 123.922 140.806C123.273 140.401 122.636 139.979 121.976 139.593C121.477 139.3 120.892 138.827 120.309 138.746C119.751 138.668 119.757 139.109 119.321 139.247C119.02 139.342 118.624 139.196 118.313 139.24C118.131 139.646 118.313 140.114 118.14 140.521C118.056 140.718 117.929 140.792 117.796 140.946C117.464 141.327 117.14 141.774 116.772 142.117C116.476 142.393 116.042 142.508 115.686 142.717C115.426 142.869 114.137 143.437 113.615 145.204Z" fill="#84A9FF"/>
<path d="M112.953 126.014C114.12 125.928 115.147 126.657 116.038 127.338C116.392 127.608 116.959 127.986 117.171 128.422C117.268 128.621 117.211 128.788 117.283 128.992C117.355 129.198 117.623 129.452 117.745 129.642C117.9 129.771 118.002 129.934 118.054 130.13C118.074 130.401 118.093 130.673 118.11 130.944C118.242 131.622 118.858 132.243 119.374 132.64C119.612 132.823 119.946 133.006 120.159 133.206C120.323 133.361 120.384 133.606 120.55 133.76C120.821 134.011 121.059 133.938 121.391 133.988C122.154 134.101 122.905 134.234 123.678 134.291C123.959 134.311 123.979 134.32 124.214 134.439C124.707 134.691 125.301 134.785 125.753 135.108C126.077 135.339 126.352 135.584 126.684 135.811C126.967 136.004 127.143 136.293 127.494 136.369C127.425 136.258 127.278 136.176 127.216 136.047C127.138 135.884 127.201 135.631 127.16 135.457C127.101 135.203 126.909 134.856 126.728 134.67C126.484 134.419 126.121 134.305 125.816 134.125C125.517 133.948 125.272 133.763 125.006 133.546C124.662 133.266 124.244 133.13 123.908 132.843C123.57 132.553 123.327 132.353 122.907 132.168C122.658 132.058 122.426 131.95 122.188 131.813C121.864 131.626 121.248 131.441 121.002 131.203C120.775 130.984 120.749 130.42 120.632 130.114C120.497 129.763 120.349 129.393 120.137 129.082C119.646 128.359 119.242 127.83 118.479 127.408C117.576 126.907 116.654 126.356 115.793 125.787C115.385 125.517 115.295 125.175 115.034 124.775C114.741 124.329 114.361 124.081 113.796 124.213C113.676 124.522 113.781 125.024 112.953 126.014Z" fill="#84A9FF"/>
<path d="M114.278 137.76C114.064 137.015 113.586 136.406 113.2 135.744C112.911 135.249 112.436 134.646 112.418 134.06C112.394 133.281 113.129 132.872 113.272 132.213C113.407 131.594 113.741 130.485 113.143 130.022C112.591 129.595 111.701 129.494 111.034 129.306C110.564 129.174 110.529 129.079 110.151 128.83C109.649 128.5 109.38 128.259 109.307 127.631C109.246 127.109 109.321 126.542 109.314 126.013C109.306 125.356 109.206 124.961 108.564 124.675C108.067 124.453 107.576 124.399 107.325 123.865C107.099 123.384 107.076 122.588 107.032 122.084C106.973 121.406 106.997 120.73 106.999 120.051C107 119.495 107.001 118.94 106.999 118.384C106.998 118.219 106.934 117.764 107.017 117.57C107.14 117.284 107.524 117.174 107.79 117.077C108.179 116.933 108.58 116.831 108.991 116.774C109.362 116.738 109.733 116.732 110.104 116.755C110.293 116.72 110.413 116.616 110.592 116.576C111.063 116.469 111.782 116.589 112.253 116.581C112.947 116.569 113.742 117.045 114.293 117.457C114.708 117.767 114.813 118.095 114.902 118.6C115.063 119.517 114.948 120.54 114.936 121.468C114.931 121.833 114.917 122.091 115.093 122.421C115.342 122.888 115.857 123.293 116.412 123.002C116.577 122 116.433 120.877 116.428 119.857C116.427 119.606 116.295 119.096 116.498 118.917C116.754 118.691 117.861 118.9 118.224 118.9C118.765 118.901 120.184 119.188 120.506 118.618C120.624 118.41 120.571 118.11 120.631 117.878C120.735 117.475 120.873 117.08 120.974 116.672C121.071 116.278 121.158 115.518 121.478 115.246C121.712 115.048 121.827 115.1 122.131 115.099C122.611 115.096 123.006 114.884 123.447 114.692C124.823 114.092 126.109 113.295 127.535 112.814C128.002 112.656 128.437 112.658 128.832 112.372C129.163 112.132 129.33 111.956 129.752 111.944C130.21 111.931 130.677 111.941 131.135 111.955C131.743 111.973 132.296 111.795 132.859 111.559C133.121 111.448 133.478 111.09 133.769 111.112C133.88 110.719 133.82 110.198 133.762 109.801C133.718 109.498 133.462 108.813 133.66 108.5C133.912 108.099 134.703 108.32 135.122 108.313C135.844 108.301 136.538 108.38 137.258 108.478C137.558 108.519 138.371 108.481 138.618 108.659C138.887 108.853 138.764 109.412 138.761 109.688C138.757 110.246 138.65 110.915 138.788 111.457C139.695 111.722 140.108 110.16 140.108 109.483C140.107 108.96 139.85 108.87 139.575 108.504C139.409 108.283 139.375 108.315 139.254 107.919C139.062 107.284 138.918 106.507 138.927 105.838C138.932 105.45 138.947 105.158 138.755 104.803C138.444 104.226 137.773 103.907 137.443 103.328C137.271 103.025 137.277 102.895 137.272 102.574C137.255 101.484 137.233 100.453 137.567 99.3982C137.723 98.9062 137.772 98.7045 137.78 98.2149C137.787 97.7333 137.61 97.4794 137.396 97.0639C137.254 96.787 137.173 96.5279 136.941 96.3027C136.633 96.0035 136.385 96.2341 136.056 96.0867C135.643 95.9014 135.286 95.1604 135.102 94.7363C134.528 94.8861 133.997 95.953 133.655 96.3841C133.469 96.6188 133.399 96.9307 133.209 97.1518C132.93 97.4755 132.419 97.5466 132.041 97.7293C131.571 97.9566 131.637 98.0298 131.65 98.5355C131.67 99.3459 131.583 100.768 130.659 101.046C130.412 101.12 130.017 101.025 129.76 101.033C129.198 101.049 128.987 100.939 128.778 100.33C128.719 100.157 128.743 99.8788 128.676 99.7308C128.593 99.5485 128.538 99.5941 128.442 99.4474C128.19 99.0615 128.099 98.6345 127.814 98.2393C127.538 97.8564 127.335 97.6219 127.169 97.1925C126.98 96.6995 126.706 96.1801 126.536 95.6867C126.358 95.1665 126.457 94.2112 126.674 93.7008C126.91 93.1442 127.201 92.7061 127.715 92.3914C128.034 92.1962 128.305 91.856 128.658 91.7578C129.016 91.6582 129.625 91.7691 130.002 91.7691C130.39 91.7691 130.778 91.7691 131.166 91.7691C132.028 91.7691 132.89 91.7698 133.753 91.7691C133.981 91.769 134.326 91.8299 134.542 91.7668C135.09 91.6068 135.318 90.7534 135.556 90.2806C135.813 89.7715 135.533 90.0351 135.917 89.9601C136.17 89.9107 136.889 90.2393 137.146 90.368C137.757 90.674 137.852 91.2263 137.974 91.8417C138.086 92.4018 138.279 92.8849 138.265 93.4519C138.255 93.9099 138.151 94.5022 138.355 94.9192C138.434 95.0808 138.536 95.3316 138.775 95.2409C139.026 95.1457 138.901 94.6602 138.957 94.4858C139.121 93.9687 139.526 94.178 139.926 93.9865C140.308 93.8039 140.529 93.3461 140.59 92.9302C140.657 92.4646 140.652 91.7447 140.508 91.3143C140.303 90.7016 140.207 90.0873 140.041 89.4616C139.761 88.4106 139.94 87.1921 139.921 86.1139C139.907 85.3696 139.86 85.239 140.626 84.8493C141.034 84.641 141.441 84.2264 141.863 84.0636C142.728 83.7299 144.241 84.011 144.884 84.6202C145.533 85.2347 146.169 86.2762 146.351 87.1686C146.646 88.6199 146.067 90.1227 145.586 91.4623C145.444 91.8572 145.415 92.2387 145.306 92.6342C145.13 93.2775 144.774 93.8544 144.61 94.5034C144.464 95.0813 144.555 95.6977 144.555 96.2844C144.555 96.8 144.455 97.3495 144.606 97.8521C144.841 98.6343 145.486 99.2876 145.8 100.048C145.942 100.393 145.963 100.604 146.237 100.862C146.557 101.163 147.201 101.391 147.645 101.379C148.141 100.425 147.861 98.767 147.861 97.7652C147.861 97.2433 147.866 96.7211 147.862 96.1992C147.858 95.67 147.93 95.0911 148.372 94.7421C148.954 94.2816 149.989 93.9951 150.689 93.9111C151.164 93.8539 151.16 93.8009 151.765 93.6003C152.156 93.4963 152.547 93.3925 152.937 93.2885C153.366 93.2501 153.769 93.1349 154.146 92.9428C154.275 92.7623 154.108 92.0452 154.151 91.8688C154.304 91.2396 154.87 90.6467 155.161 90.0572C155.304 89.768 155.806 89.0033 155.623 88.6151C155.505 88.3674 155.143 88.4196 154.973 88.2852C154.705 88.0733 154.327 87.2691 154.187 87.0336C153.725 86.2541 153.503 85.3691 153.085 84.5621C152.725 83.8665 152.639 83.0886 152.292 82.3986C152.112 82.0386 151.836 81.7305 151.65 81.3724C151.439 80.9641 151.461 80.5766 150.912 80.5114C149.729 80.3714 148.403 80.5129 147.206 80.5186C146.777 80.5207 146.329 80.5756 145.904 80.5018C145.206 80.3807 144.557 80.0807 143.911 79.8032C142.829 79.3381 141.415 79.0628 140.34 79.6238C139.84 79.8844 139.323 80.3198 138.903 80.6986C138.706 80.8761 138.673 81.0116 138.365 81.0387C137.995 81.0711 137.648 80.8279 137.323 80.6875C136.85 80.4827 136.346 80.3625 135.946 80.0198C135.452 80.155 135.03 80.8584 134.731 81.2458C134.496 81.5506 134.436 81.6112 134.041 81.4016C133.669 81.2041 133.265 80.2932 132.776 80.3138C132.354 80.3316 132.204 80.9269 131.861 81.0119C131.744 81.041 131.269 80.9176 131.161 80.8699C130.866 80.74 130.56 80.3525 130.474 80.0342C130.423 79.8445 130.485 79.5681 130.455 79.3651C130.411 79.0691 130.334 78.8127 130.319 78.518C130.301 78.1632 130.245 77.8888 130.464 77.5964C131.083 76.7712 131.98 76.1621 132.551 75.2901C132.833 74.8594 132.809 74.4718 132.808 73.9891C132.807 73.6928 132.864 73.038 132.647 72.7961C132.173 72.2678 130.691 73.2916 130.293 73.52C129.83 73.7851 129.628 73.7865 129.125 73.545C128.747 73.3632 128.456 73.039 128.099 72.8559C127.73 72.6671 127.313 72.737 126.872 72.7403C125.725 72.749 124.75 73.2418 123.588 73.0089C123.259 73.4689 123.164 73.9875 123.015 74.5321C122.756 75.4726 122.533 76.4209 122.225 77.3473C122.008 77.9984 121.631 78.1883 121.2 78.7466C120.881 79.1593 117.153 83.5955 117.016 83.8806C116.596 84.7579 115.681 85.0179 115.122 85.7165C115.142 85.6458 115.117 85.6041 115.048 85.5918C114.707 86.1169 114.44 86.6509 114.001 87.1027C113.584 87.5334 113.115 87.8758 112.637 88.2314C111.705 88.9239 110.775 89.7378 110.021 90.6198C109.127 91.6663 108.525 92.9947 107.996 94.2499C107.684 94.9929 107.237 95.6744 106.878 96.3847C106.048 98.0302 104.958 99.5553 104.187 101.234C103.816 102.042 103.626 102.929 103.277 103.724C102.805 104.799 101.824 105.453 101.828 106.702C101.831 107.657 102.313 108.407 102.495 109.287C102.648 110.027 102.536 110.925 102.533 111.677C102.526 112.903 102.691 114.098 102.685 115.322C102.681 116.302 102.977 116.993 103.164 117.909C103.205 118.108 103.189 118.306 103.288 118.482C103.367 118.623 103.512 118.686 103.598 118.819C104.034 119.494 103.789 120.288 104.511 120.872C104.828 121.127 105.177 121.214 105.389 121.568C105.638 121.987 105.799 122.516 106 122.961C106.491 124.049 106.999 124.898 107.004 126.115C107.006 126.903 107.273 127.276 107.661 127.954C108.022 128.584 108.184 129.003 108.155 129.73C108.133 130.269 108.193 130.736 108.505 131.202C108.871 131.75 109.406 131.944 109.657 132.591C109.834 133.047 109.903 133.511 110.006 133.987C110.131 134.567 110.453 134.945 110.697 135.459C110.966 136.028 110.991 136.679 111.299 137.249C111.645 137.889 114.014 139.946 114.278 137.76Z" fill="#84A9FF"/>
</g>
<path d="M263.118 77.2035V221.098C263.118 230.455 255.534 238.039 246.177 238.039H172.833C169.006 238.039 165.477 236.769 162.642 234.627C158.544 231.537 155.895 226.628 155.895 221.098V77.2037C155.895 67.8494 163.479 60.265 172.833 60.265H246.177C255.534 60.2647 263.118 67.8491 263.118 77.2035Z" fill="white"/>
<path d="M246.174 239.369H172.832C162.758 239.369 154.562 231.173 154.562 221.099V77.2042C154.562 67.1306 162.758 58.9351 172.832 58.9351H246.174C256.248 58.9351 264.444 67.1307 264.444 77.2042V221.099C264.444 231.173 256.248 239.369 246.174 239.369ZM172.832 61.5924C164.223 61.5924 157.22 68.5958 157.22 77.2042V221.099C157.22 229.708 164.223 236.711 172.832 236.711H246.174C254.783 236.711 261.786 229.708 261.786 221.099V77.2042C261.786 68.5958 254.783 61.5924 246.174 61.5924H172.832Z" fill="#050F64"/>
<path d="M234.815 71.1016H189.776C186.84 71.1016 184.461 68.722 184.461 65.7867V60.2632H240.13V65.7867C240.13 68.722 237.75 71.1016 234.815 71.1016Z" fill="#050F64"/>
<path d="M222.633 65.0186H201.949V66.3473H222.633V65.0186Z" fill="white"/>
<path d="M233.546 67.315C234.448 67.315 235.179 66.5841 235.179 65.6826C235.179 64.7811 234.448 64.0503 233.546 64.0503C232.645 64.0503 231.914 64.7811 231.914 65.6826C231.914 66.5841 232.645 67.315 233.546 67.315Z" fill="white"/>
<path d="M300.765 139.274H181.369C179.452 139.274 177.898 140.828 177.898 142.745V228.957C177.898 234.707 182.56 239.369 188.311 239.369H293.823C299.574 239.369 304.236 234.707 304.236 228.957V142.745C304.236 140.828 302.682 139.274 300.765 139.274Z" fill="#050F64"/>
<path d="M293.823 147.739H181.369C179.452 147.739 177.898 149.292 177.898 151.209V228.955C177.898 234.706 182.56 239.368 188.311 239.368H286.882C292.632 239.368 297.294 234.706 297.294 228.955V151.209C297.294 149.292 295.74 147.739 293.823 147.739Z" fill="#FFBD00"/>
<path d="M181.87 152.957H181.039V150.881H183.115V151.712H181.87V152.957Z" fill="white"/>
<path d="M288.772 151.711H285.47V150.881H288.772V151.711ZM282.168 151.711H278.866V150.881H282.168V151.711ZM275.564 151.711H272.263V150.881H275.564V151.711ZM268.961 151.711H265.659V150.881H268.961V151.711ZM262.357 151.711H259.055V150.881H262.357V151.711ZM255.753 151.711H252.451V150.881H255.753V151.711ZM249.15 151.711H245.848V150.881H249.15V151.711ZM242.546 151.711H239.244V150.881H242.546V151.711ZM235.942 151.711H232.64V150.881H235.942V151.711ZM229.338 151.711H226.036V150.881H229.338V151.711ZM222.735 151.711H219.433V150.881H222.735V151.711ZM216.131 151.711H212.829V150.881H216.131V151.711ZM209.527 151.711H206.225V150.881H209.527V151.711ZM202.923 151.711H199.621V150.881H202.923V151.711ZM196.32 151.711H193.018V150.881H196.32V151.711ZM189.716 151.711H186.414V150.881H189.716V151.711Z" fill="white"/>
<path d="M294.154 152.957H293.324V151.711H292.078V150.88H294.154V152.957Z" fill="white"/>
<path d="M286.882 236.227H286.313V235.397H286.882C287.766 235.397 288.624 235.22 289.43 234.871L289.759 235.633C288.848 236.027 287.88 236.227 286.882 236.227ZM282.954 236.227H279.594V235.397H282.954V236.227ZM276.235 236.227H272.876V235.397H276.235V236.227ZM269.517 236.227H266.157V235.397H269.517V236.227ZM262.798 236.227H259.439V235.397H262.798V236.227ZM256.079 236.227H252.72V235.397H256.079V236.227ZM249.361 236.227H246.002V235.397H249.361V236.227ZM242.643 236.227H239.283V235.397H242.643V236.227ZM235.924 236.227H232.565V235.397H235.924V236.227ZM229.206 236.227H225.846V235.397H229.206V236.227ZM222.487 236.227H219.128V235.397H222.487V236.227ZM215.769 236.227H212.409V235.397H215.769V236.227ZM209.05 236.227H205.691V235.397H209.05V236.227ZM202.331 236.227H198.972V235.397H202.331V236.227ZM195.613 236.227H192.254V235.397H195.613V236.227ZM188.894 236.227H188.311C187.317 236.227 186.354 236.029 185.447 235.64L185.775 234.876C186.578 235.221 187.431 235.397 188.311 235.397H188.894V236.227ZM182.641 233.504C181.894 232.574 181.383 231.467 181.164 230.302L181.98 230.148C182.174 231.18 182.627 232.16 183.288 232.984L182.641 233.504ZM292.561 233.492L291.912 232.973C292.573 232.148 293.023 231.167 293.215 230.135L294.031 230.287C293.815 231.453 293.306 232.561 292.561 233.492ZM181.87 226.873H181.039V223.514H181.87V226.873ZM294.154 226.859H293.323V223.5H294.154V226.859ZM181.87 220.155H181.039V216.796H181.87V220.155ZM294.154 220.141H293.323V216.781H294.154V220.141ZM181.87 213.436H181.039V210.077H181.87V213.436ZM294.154 213.422H293.323V210.063H294.154V213.422ZM181.87 206.718H181.039V203.359H181.87V206.718ZM294.154 206.704H293.323V203.344H294.154V206.704ZM181.87 199.999H181.039V196.64H181.87V199.999ZM294.154 199.985H293.323V196.626H294.154V199.985ZM181.87 193.281H181.039V189.922H181.87V193.281ZM294.154 193.267H293.323V189.907H294.154V193.267ZM181.87 186.563H181.039V183.203H181.87V186.563ZM294.154 186.548H293.323V183.189H294.154V186.548ZM181.87 179.844H181.039V176.485H181.87V179.844ZM294.154 179.829H293.323V176.47H294.154V179.829ZM181.87 173.125H181.039V169.766H181.87V173.125ZM294.154 173.111H293.323V169.752H294.154V173.111ZM181.87 166.407H181.039V163.048H181.87V166.407ZM294.154 166.393H293.323V163.033H294.154V166.393ZM181.87 159.688H181.039V156.329H181.87V159.688ZM294.154 159.674H293.323V156.315H294.154V159.674Z" fill="white"/>
<path d="M297.287 185.918H284.327C279.918 185.918 276.344 189.492 276.344 193.901C276.344 198.309 279.918 201.883 284.327 201.883H297.287C304.228 199.107 304.228 195.636 304.228 195.636V179.815C304.228 179.815 304.229 183.141 297.287 185.918Z" fill="#155BCD"/>
<path d="M285.986 196.577C287.475 195.088 287.475 192.674 285.986 191.185C284.497 189.696 282.083 189.696 280.594 191.185C279.105 192.674 279.105 195.088 280.594 196.577C282.083 198.065 284.497 198.065 285.986 196.577Z" fill="white"/>
<path d="M251.413 83.4326H167.596C166.263 83.4326 165.184 84.5802 165.184 85.9961V127.554C165.184 128.969 166.264 130.117 167.596 130.117H251.413C252.745 130.117 253.825 128.969 253.825 127.554V85.9961C253.825 84.5804 252.745 83.4326 251.413 83.4326Z" fill="#155BCD"/>
<path d="M239.946 104.04C244.01 104.04 247.305 100.745 247.305 96.6806C247.305 92.616 244.01 89.321 239.946 89.321C235.881 89.321 232.586 92.616 232.586 96.6806C232.586 100.745 235.881 104.04 239.946 104.04Z" fill="#84A9FF"/>
<path d="M253.825 121.492H165.184V124.228H253.825V121.492Z" fill="#050F64"/>
<path d="M187.886 113.201H171.695V115.938H187.886V113.201Z" fill="#84A9FF"/>
<path d="M208.022 113.201H190.855V115.939H208.022V113.201Z" fill="#84A9FF"/>
<path d="M228.151 113.201H210.984V115.939H228.151V113.201Z" fill="#84A9FF"/>
<path d="M247.308 113.2H231.117V115.938H247.308V113.2Z" fill="#84A9FF"/>
<path d="M188.424 108.605H175.351C173.564 108.605 172.102 107.143 172.102 105.355V98.5394C172.102 96.7519 173.564 95.2896 175.351 95.2896H188.425C190.212 95.2896 191.675 96.7519 191.675 98.5394V105.355C191.674 107.143 190.212 108.605 188.424 108.605Z" fill="#84A9FF"/>
<path d="M191.674 104.693H172.102V104.95H191.674V104.693Z" fill="#155BCD"/>
<path d="M191.674 98.8716H172.102V99.1279H191.674V98.8716Z" fill="#155BCD"/>
<path d="M183.584 99.002H183.328V108.606H183.584V99.002Z" fill="#155BCD"/>
<path d="M188.092 99H187.836V104.821H188.092V99Z" fill="#155BCD"/>
<path d="M177.108 95.29H176.852V108.605H177.108V95.29Z" fill="#155BCD"/>
<path d="M180.456 95.2896H180.199V99.0004H180.456V95.2896Z" fill="#155BCD"/>
<path d="M174.487 104.821H174.23V108.604H174.487V104.821Z" fill="#155BCD"/>
<path d="M351.339 242.676H67.6611C66.7437 242.676 66 241.932 66 241.015C66 240.097 66.7437 239.354 67.6611 239.354H351.339C352.256 239.354 353 240.097 353 241.015C353 241.932 352.256 242.676 351.339 242.676Z" fill="#050F64"/>
<path d="M171.883 186.072H128.02V191.774H171.883V186.072Z" fill="#FEBD1D"/>
<path d="M128.011 186.086H171.875V185.044H128.011V186.086Z" fill="#FFD45B"/>
<path d="M128.011 192.804H171.875V191.762H128.011V192.804Z" fill="#D6A02F"/>
<path d="M169.228 186.073H168.191V191.774H169.228V186.073Z" fill="#FFDD33"/>
<path d="M165.474 186.073H164.438V191.774H165.474V186.073Z" fill="#FFDD33"/>
<path d="M161.724 186.073H160.688V191.774H161.724V186.073Z" fill="#FFDD33"/>
<path d="M157.974 186.073H156.938V191.774H157.974V186.073Z" fill="#FFDD33"/>
<path d="M154.216 186.073H153.18V191.774H154.216V186.073Z" fill="#FFDD33"/>
<path d="M150.47 186.073H149.434V191.774H150.47V186.073Z" fill="#FFDD33"/>
<path d="M146.72 186.073H145.684V191.774H146.72V186.073Z" fill="#FFDD33"/>
<path d="M142.97 186.073H141.934V191.774H142.97V186.073Z" fill="#FFDD33"/>
<path d="M139.224 186.073H138.188V191.774H139.224V186.073Z" fill="#FFDD33"/>
<path d="M135.466 186.073H134.43V191.774H135.466V186.073Z" fill="#FFDD33"/>
<path d="M131.716 186.073H130.68V191.774H131.716V186.073Z" fill="#FFDD33"/>
<path d="M175.641 193.833H131.777V199.534H175.641V193.833Z" fill="#FEBD1D"/>
<path d="M131.769 193.845H175.633V192.803H131.769V193.845Z" fill="#FFD45B"/>
<path d="M131.769 200.564H175.633V199.522H131.769V200.564Z" fill="#D6A02F"/>
<path d="M172.982 193.833H171.945V199.534H172.982V193.833Z" fill="#FFDD33"/>
<path d="M169.236 193.833H168.199V199.534H169.236V193.833Z" fill="#FFDD33"/>
<path d="M165.482 193.833H164.445V199.534H165.482V193.833Z" fill="#FFDD33"/>
<path d="M161.732 193.833H160.695V199.534H161.732V193.833Z" fill="#FFDD33"/>
<path d="M157.982 193.833H156.945V199.534H157.982V193.833Z" fill="#FFDD33"/>
<path d="M154.224 193.833H153.188V199.534H154.224V193.833Z" fill="#FFDD33"/>
<path d="M150.474 193.834H149.438V199.535H150.474V193.834Z" fill="#FFDD33"/>
<path d="M146.728 193.833H145.691V199.534H146.728V193.833Z" fill="#FFDD33"/>
<path d="M142.978 193.833H141.941V199.534H142.978V193.833Z" fill="#FFDD33"/>
<path d="M139.224 193.833H138.188V199.534H139.224V193.833Z" fill="#FFDD33"/>
<path d="M135.474 193.833H134.438V199.534H135.474V193.833Z" fill="#FFDD33"/>
<path d="M171.891 201.594H128.027V207.296H171.891V201.594Z" fill="#FEBD1D"/>
<path d="M128.019 201.607H171.883V200.566H128.019V201.607Z" fill="#FFD45B"/>
<path d="M128.019 208.325H171.883V207.283H128.019V208.325Z" fill="#D6A02F"/>
<path d="M169.228 201.594H168.191V207.296H169.228V201.594Z" fill="#FFDD33"/>
<path d="M165.478 201.595H164.441V207.296H165.478V201.595Z" fill="#FFDD33"/>
<path d="M161.728 201.594H160.691V207.296H161.728V201.594Z" fill="#FFDD33"/>
<path d="M157.974 201.594H156.938V207.296H157.974V201.594Z" fill="#FFDD33"/>
<path d="M154.224 201.595H153.188V207.296H154.224V201.595Z" fill="#FFDD33"/>
<path d="M150.474 201.595H149.438V207.296H150.474V201.595Z" fill="#FFDD33"/>
<path d="M146.716 201.594H145.68V207.296H146.716V201.594Z" fill="#FFDD33"/>
<path d="M142.97 201.595H141.934V207.296H142.97V201.595Z" fill="#FFDD33"/>
<path d="M139.22 201.594H138.184V207.296H139.22V201.594Z" fill="#FFDD33"/>
<path d="M135.466 201.594H134.43V207.296H135.466V201.594Z" fill="#FFDD33"/>
<path d="M131.716 201.595H130.68V207.296H131.716V201.595Z" fill="#FFDD33"/>
<path d="M169.164 209.355H125.301V215.056H169.164V209.355Z" fill="#FEBD1D"/>
<path d="M125.292 209.367H169.156V208.325H125.292V209.367Z" fill="#FFD45B"/>
<path d="M125.292 216.086H169.156V215.044H125.292V216.086Z" fill="#D6A02F"/>
<path d="M166.509 209.355H165.473V215.057H166.509V209.355Z" fill="#FFDD33"/>
<path d="M162.755 209.356H161.719V215.057H162.755V209.356Z" fill="#FFDD33"/>
<path d="M159.005 209.355H157.969V215.056H159.005V209.355Z" fill="#FFDD33"/>
<path d="M155.255 209.355H154.219V215.056H155.255V209.355Z" fill="#FFDD33"/>
<path d="M151.498 209.356H150.461V215.057H151.498V209.356Z" fill="#FFDD33"/>
<path d="M147.752 209.356H146.715V215.057H147.752V209.356Z" fill="#FFDD33"/>
<path d="M144.002 209.356H142.965V215.057H144.002V209.356Z" fill="#FFDD33"/>
<path d="M140.251 209.356H139.215V215.057H140.251V209.356Z" fill="#FFDD33"/>
<path d="M136.505 209.356H135.469V215.057H136.505V209.356Z" fill="#FFDD33"/>
<path d="M132.747 209.356H131.711V215.057H132.747V209.356Z" fill="#FFDD33"/>
<path d="M128.998 209.355H127.961V215.056H128.998V209.355Z" fill="#FFDD33"/>
<path d="M172.403 217.116H128.539V222.818H172.403V217.116Z" fill="#FEBD1D"/>
<path d="M128.531 217.129H172.395V216.087H128.531V217.129Z" fill="#FFD45B"/>
<path d="M128.531 223.847H172.395V222.805H128.531V223.847Z" fill="#D6A02F"/>
<path d="M169.74 217.116H168.703V222.818H169.74V217.116Z" fill="#FFDD33"/>
<path d="M165.99 217.116H164.953V222.818H165.99V217.116Z" fill="#FFDD33"/>
<path d="M162.24 217.116H161.203V222.818H162.24V217.116Z" fill="#FFDD33"/>
<path d="M158.486 217.116H157.449V222.818H158.486V217.116Z" fill="#FFDD33"/>
<path d="M154.744 217.117H153.707V222.818H154.744V217.117Z" fill="#FFDD33"/>
<path d="M150.99 217.116H149.953V222.818H150.99V217.116Z" fill="#FFDD33"/>
<path d="M147.24 217.116H146.203V222.818H147.24V217.116Z" fill="#FFDD33"/>
<path d="M143.49 217.117H142.453V222.818H143.49V217.117Z" fill="#FFDD33"/>
<path d="M139.74 217.116H138.703V222.818H139.74V217.116Z" fill="#FFDD33"/>
<path d="M135.986 217.116H134.949V222.818H135.986V217.116Z" fill="#FFDD33"/>
<path d="M132.236 217.116H131.199V222.818H132.236V217.116Z" fill="#FFDD33"/>
<path d="M169.164 224.877H125.301V230.578H169.164V224.877Z" fill="#FEBD1D"/>
<path d="M125.292 224.889H169.156V223.847H125.292V224.889Z" fill="#FFD45B"/>
<path d="M125.292 231.608H169.156V230.566H125.292V231.608Z" fill="#D6A02F"/>
<path d="M166.509 224.877H165.473V230.579H166.509V224.877Z" fill="#FFDD33"/>
<path d="M162.755 224.877H161.719V230.579H162.755V224.877Z" fill="#FFDD33"/>
<path d="M159.005 224.877H157.969V230.578H159.005V224.877Z" fill="#FFDD33"/>
<path d="M155.255 224.877H154.219V230.578H155.255V224.877Z" fill="#FFDD33"/>
<path d="M151.498 224.877H150.461V230.579H151.498V224.877Z" fill="#FFDD33"/>
<path d="M147.752 224.877H146.715V230.579H147.752V224.877Z" fill="#FFDD33"/>
<path d="M144.002 224.877H142.965V230.579H144.002V224.877Z" fill="#FFDD33"/>
<path d="M140.251 224.877H139.215V230.579H140.251V224.877Z" fill="#FFDD33"/>
<path d="M136.505 224.877H135.469V230.579H136.505V224.877Z" fill="#FFDD33"/>
<path d="M132.747 224.877H131.711V230.579H132.747V224.877Z" fill="#FFDD33"/>
<path d="M128.998 224.876H127.961V230.578H128.998V224.876Z" fill="#FFDD33"/>
<path d="M173.442 232.638H129.578V238.339H173.442V232.638Z" fill="#FEBD1D"/>
<path d="M129.57 232.65H173.434V231.608H129.57V232.65Z" fill="#FFD45B"/>
<path d="M129.57 239.369H173.434V238.327H129.57V239.369Z" fill="#D6A02F"/>
<path d="M170.779 232.638H169.742V238.339H170.779V232.638Z" fill="#FFDD33"/>
<path d="M167.029 232.638H165.992V238.339H167.029V232.638Z" fill="#FFDD33"/>
<path d="M163.279 232.638H162.242V238.339H163.279V232.638Z" fill="#FFDD33"/>
<path d="M159.525 232.638H158.488V238.339H159.525V232.638Z" fill="#FFDD33"/>
<path d="M155.775 232.638H154.738V238.339H155.775V232.638Z" fill="#FFDD33"/>
<path d="M152.025 232.638H150.988V238.339H152.025V232.638Z" fill="#FFDD33"/>
<path d="M148.279 232.638H147.242V238.339H148.279V232.638Z" fill="#FFDD33"/>
<path d="M144.521 232.638H143.484V238.339H144.521V232.638Z" fill="#FFDD33"/>
<path d="M140.771 232.638H139.734V238.339H140.771V232.638Z" fill="#FFDD33"/>
<path d="M137.021 232.638H135.984V238.339H137.021V232.638Z" fill="#FFDD33"/>
<path d="M133.267 232.638H132.23V238.339H133.267V232.638Z" fill="#FFDD33"/>
<g opacity="0.1">
<path d="M129.555 239.367V237.403V236.039V231.62V230.583V230.556V229.929V224.882V224.61V224.419V223.846V222.809V220.163V217.135V217.108V216.099V215.062V215.035V214.598V210.397V209.361V208.324V207.288V205.215V204.915V201.614V201.587V200.577V198.804V198.095C129.718 198.068 129.909 198.068 130.073 198.068C130.646 198.068 131.219 198.095 131.791 198.15C132.692 198.204 133.564 198.341 134.438 198.504C134.792 198.586 135.119 198.641 135.474 198.723C136.32 198.941 137.111 199.214 137.902 199.514C137.929 199.514 137.956 199.514 137.956 199.541C138.747 199.841 139.484 200.169 140.22 200.55L140.248 200.578C140.248 200.578 140.275 200.55 140.275 200.578C140.848 200.878 141.393 201.205 141.939 201.587H141.966L141.993 201.614C142.321 201.805 142.648 202.023 142.975 202.269C143.93 202.978 144.858 203.742 145.703 204.615C146.058 204.969 146.385 205.351 146.74 205.733C147.149 206.224 147.558 206.742 147.94 207.288C148.186 207.615 148.431 207.97 148.649 208.324C148.868 208.652 149.059 209.007 149.25 209.361C149.713 210.207 150.122 211.08 150.477 211.98C150.777 212.744 151.05 213.535 151.268 214.326C151.323 214.571 151.377 214.79 151.432 215.035C151.432 215.035 151.432 215.062 151.459 215.062C151.513 215.39 151.595 215.744 151.65 216.099C151.704 216.426 151.759 216.753 151.814 217.108C151.814 217.108 151.814 217.108 151.814 217.135C151.95 218.063 152.005 219.017 152.005 219.999C152.005 220.954 151.95 221.882 151.814 222.809C151.786 223.164 151.732 223.518 151.65 223.846C151.595 224.2 151.541 224.555 151.459 224.882C151.213 225.973 150.886 227.01 150.477 228.019C150.122 228.892 149.74 229.738 149.277 230.556L149.249 230.583C149.086 230.938 148.868 231.265 148.649 231.62C148.458 231.975 148.213 232.302 147.995 232.629C147.967 232.629 147.967 232.656 147.967 232.656C147.722 233.011 147.476 233.338 147.231 233.666C146.412 234.675 145.512 235.602 144.53 236.475C144.203 236.775 143.848 237.048 143.494 237.321C143.03 237.676 142.566 238.003 142.075 238.33C141.53 238.712 140.957 239.04 140.357 239.367L129.555 239.367Z" fill="#0C9197"/>
</g>
<path d="M151.481 217.437C151.481 229.549 141.661 239.369 129.549 239.369C125.976 239.369 122.593 238.523 119.62 236.996C116.428 235.359 113.7 232.986 111.654 230.094C109.117 226.521 107.617 222.156 107.617 217.437C107.617 205.325 117.437 195.505 129.549 195.505C131.759 195.505 133.886 195.833 135.878 196.433C140.078 197.687 143.761 200.197 146.462 203.498C149.599 207.289 151.481 212.145 151.481 217.437Z" fill="#FEBD1D"/>
<path d="M129.546 237.405C118.532 237.405 109.57 228.443 109.57 217.428C109.57 206.414 118.532 197.453 129.546 197.453C140.561 197.453 149.522 206.414 149.522 217.428C149.522 228.443 140.561 237.405 129.546 237.405ZM129.546 198.817C119.283 198.817 110.934 207.165 110.934 217.428C110.934 227.691 119.283 236.041 129.546 236.041C139.808 236.041 148.159 227.691 148.159 217.428C148.159 207.165 139.808 198.817 129.546 198.817Z" fill="#FFD45B"/>
<path d="M135.969 219.731C135.477 218.923 134.875 218.235 134.18 217.685C133.517 217.159 132.633 216.568 131.562 215.933C130.686 215.399 130.007 214.948 129.529 214.582C129.086 214.242 128.704 213.842 128.396 213.391C128.113 212.979 127.976 212.521 127.976 211.992C127.976 211.419 128.109 211.011 128.375 210.778C128.657 210.53 129.107 210.404 129.71 210.404C130.313 210.404 130.763 210.53 131.047 210.778C131.311 211.011 131.445 211.419 131.445 211.992V213.38H136.694V212.205C136.694 210.622 136.237 209.326 135.337 208.354C134.524 207.474 133.364 206.881 131.887 206.587V204.926H127.207V206.594C125.755 206.906 124.615 207.507 123.815 208.387C122.93 209.36 122.482 210.644 122.482 212.205C122.482 213.307 122.74 214.29 123.248 215.126C123.74 215.934 124.342 216.622 125.036 217.172C125.7 217.699 126.583 218.289 127.655 218.925C128.531 219.458 129.209 219.909 129.687 220.275C130.131 220.615 130.513 221.015 130.821 221.465C131.104 221.879 131.241 222.337 131.241 222.865C131.241 223.636 131.026 224.423 129.425 224.423C127.825 224.423 127.61 223.636 127.61 222.865V220.688H122.359V222.651C122.359 224.233 122.815 225.534 123.715 226.516C124.529 227.408 125.703 228.007 127.207 228.302V229.931H131.887V228.3C133.365 228.006 134.53 227.408 135.357 226.519C136.271 225.537 136.735 224.236 136.735 222.651C136.735 221.55 136.477 220.568 135.969 219.731Z" fill="white"/>
<g opacity="0.2">
<path d="M146.464 203.496L119.622 236.994C116.43 235.358 113.702 232.984 111.656 230.093L135.88 196.431C140.08 197.686 143.763 200.196 146.464 203.496Z" fill="white"/>
</g>
<path d="M311.145 201.37V227.263H346.765C346.823 230.472 341.761 232.691 341.761 232.691C345.314 232.691 347.855 231.711 349.603 230.584C351.659 229.257 352.881 226.959 352.881 224.513V201.37H311.145Z" fill="#155BCD"/>
<path d="M322.76 215.951C323.664 215.577 324.093 214.541 323.718 213.638C323.344 212.735 322.308 212.306 321.405 212.68C320.502 213.054 320.073 214.09 320.447 214.993C320.821 215.896 321.857 216.325 322.76 215.951Z" fill="white"/>
<path d="M333.743 214.745C333.968 213.793 333.379 212.84 332.427 212.615C331.476 212.39 330.522 212.98 330.297 213.931C330.073 214.883 330.662 215.836 331.614 216.061C332.565 216.286 333.519 215.696 333.743 214.745Z" fill="white"/>
<path d="M342.647 215.951C343.55 215.577 343.979 214.541 343.605 213.638C343.231 212.735 342.195 212.306 341.292 212.68C340.389 213.054 339.96 214.09 340.334 214.993C340.708 215.896 341.744 216.325 342.647 215.951Z" fill="white"/>
<path d="M219.26 45.4804L214.932 50.9393L201.949 37L219.26 45.4804Z" fill="#84A9FF"/>
<path d="M223.062 42.1245L230.269 37.885L201.949 37L223.062 42.1245Z" fill="#84A9FF"/>
<path d="M223.062 42.1245L222.523 50.9393L219.26 45.4804L201.949 37L223.062 42.1245Z" fill="#155BCD"/>
<path d="M227.553 51.6908C227.028 51.5167 226.503 51.3453 225.977 51.1767L226.129 50.7021C226.656 50.8714 227.184 51.0432 227.71 51.2177L227.553 51.6908Z" fill="#84A9FF"/>
<path d="M256.316 158.563L256.229 158.072C257.316 157.881 258.413 157.639 259.489 157.353L259.617 157.835C258.527 158.124 257.416 158.369 256.316 158.563ZM262.846 156.833L262.678 156.364C263.719 155.994 264.761 155.574 265.777 155.118L265.981 155.572C264.953 156.034 263.898 156.458 262.846 156.833ZM269.007 154.065L268.768 153.628C269.738 153.096 270.703 152.518 271.633 151.91L271.906 152.328C270.964 152.943 269.989 153.527 269.007 154.065ZM274.662 150.372L274.358 149.977C275.238 149.3 276.102 148.581 276.926 147.84L277.26 148.211C276.426 148.96 275.552 149.687 274.662 150.372ZM279.684 145.856L279.323 145.512C280.09 144.706 280.833 143.863 281.53 143.005L281.917 143.319C281.212 144.187 280.46 145.04 279.684 145.856ZM283.942 140.613L283.531 140.331C284.163 139.413 284.76 138.462 285.308 137.504L285.741 137.752C285.186 138.721 284.581 139.684 283.942 140.613ZM287.294 134.749L286.842 134.539C287.312 133.529 287.74 132.491 288.115 131.454L288.583 131.623C288.203 132.674 287.77 133.725 287.294 134.749ZM280.901 132.016C280.901 132.016 280.9 132.016 280.9 132.016C280.686 132.016 280.469 132.012 280.254 132.003L280.274 131.505C280.482 131.514 280.693 131.518 280.9 131.518C280.9 131.518 280.901 131.518 280.901 131.518C281.789 131.518 282.687 131.443 283.571 131.294L283.654 131.785C282.743 131.939 281.816 132.016 280.901 132.016ZM276.883 131.501C275.764 131.204 274.697 130.781 273.711 130.242L273.95 129.805C274.901 130.324 275.931 130.733 277.011 131.019L276.883 131.501ZM286.938 130.883L286.757 130.419C287.741 130.036 288.68 129.558 289.548 128.997C289.596 128.967 289.644 128.935 289.691 128.904L289.965 129.32C289.917 129.352 289.868 129.384 289.819 129.416C288.923 129.995 287.953 130.488 286.938 130.883ZM289.59 128.393L289.108 128.267C289.4 127.154 289.628 126.056 289.786 125.004L290.279 125.078C290.118 126.147 289.887 127.263 289.59 128.393ZM270.952 128.229C270.134 127.45 269.406 126.561 268.788 125.588L269.209 125.321C269.805 126.26 270.507 127.117 271.295 127.868L270.952 128.229ZM292.601 127.165L292.248 126.813C293.015 126.046 293.724 125.187 294.354 124.261L294.766 124.542C294.118 125.494 293.39 126.376 292.601 127.165ZM267.315 122.51C266.943 121.413 266.712 120.287 266.628 119.165L267.125 119.128C267.205 120.208 267.428 121.292 267.786 122.35L267.315 122.51ZM290.561 121.697L290.063 121.691C290.064 121.598 290.065 121.504 290.065 121.411C290.065 120.37 289.988 119.352 289.836 118.384L290.328 118.307C290.484 119.3 290.563 120.345 290.563 121.411C290.563 121.506 290.563 121.602 290.561 121.697ZM296.431 121.579L295.978 121.371C296.43 120.384 296.816 119.335 297.124 118.254L297.603 118.391C297.288 119.496 296.894 120.568 296.431 121.579ZM267.336 115.855L266.848 115.753C266.929 115.369 267.031 114.987 267.149 114.616C267.377 113.909 267.684 113.214 268.063 112.551L268.496 112.799C268.134 113.431 267.841 114.094 267.624 114.769C267.51 115.123 267.413 115.488 267.336 115.855ZM289.004 115.187C288.611 114.151 288.104 113.164 287.497 112.252L287.912 111.976C288.539 112.919 289.063 113.939 289.469 115.01L289.004 115.187ZM298.302 115.07L297.809 115.001C297.961 113.911 298.042 112.795 298.05 111.684L298.548 111.687C298.54 112.82 298.457 113.959 298.302 115.07ZM270.522 110.222L270.177 109.862C271.003 109.072 271.934 108.397 272.944 107.854L273.18 108.294C272.209 108.814 271.315 109.463 270.522 110.222ZM285.358 109.751C284.522 108.992 283.61 108.372 282.648 107.908L282.864 107.459C283.87 107.944 284.822 108.591 285.693 109.382L285.358 109.751ZM297.855 108.363C297.734 107.401 297.557 106.444 297.328 105.519C297.294 105.379 297.258 105.239 297.221 105.099L297.703 104.972C297.741 105.114 297.777 105.256 297.812 105.399C298.046 106.343 298.226 107.32 298.349 108.302L297.855 108.363ZM276.257 107.159L276.153 106.671C276.908 106.511 277.67 106.43 278.417 106.43C278.808 106.435 279.195 106.452 279.575 106.495L279.519 106.991C279.158 106.949 278.788 106.928 278.419 106.928C278.418 106.928 278.418 106.928 278.417 106.928C277.704 106.929 276.978 107.006 276.257 107.159ZM296.198 101.929C295.809 100.914 295.356 99.8879 294.851 98.8781L295.296 98.655C295.809 99.6794 296.269 100.721 296.663 101.75L296.198 101.929ZM293.226 95.962C292.66 95.0409 292.036 94.1061 291.37 93.1837L291.774 92.8918C292.447 93.8243 293.079 94.7697 293.651 95.7013L293.226 95.962ZM289.324 90.5379C288.637 89.7052 287.897 88.8564 287.124 88.0149L287.491 87.6777C288.27 88.5257 289.016 89.3815 289.708 90.221L289.324 90.5379ZM284.801 85.6016C284.176 84.9799 283.513 84.3418 282.833 83.7048C282.682 83.564 282.531 83.4234 282.38 83.2834L282.718 82.9178C282.87 83.0585 283.022 83.1995 283.173 83.3411C283.858 83.9814 284.523 84.6231 285.152 85.2483L284.801 85.6016ZM279.889 81.0367C279.055 80.3043 278.197 79.5704 277.34 78.8559L277.659 78.473C278.52 79.1904 279.381 79.9271 280.218 80.6623L279.889 81.0367ZM274.736 76.7403C273.865 76.0513 272.972 75.3618 272.079 74.6907L272.379 74.2926C273.274 74.966 274.171 75.6581 275.045 76.3496L274.736 76.7403ZM269.374 72.7068C268.47 72.0606 267.544 71.4151 266.621 70.7881L266.901 70.376C267.827 71.0052 268.756 71.6532 269.663 72.3015L269.374 72.7068ZM263.824 68.9345C262.891 68.3319 261.936 67.7301 260.985 67.1459L261.246 66.7211C262.2 67.3073 263.159 67.9113 264.094 68.5159L263.824 68.9345ZM258.106 65.4217C257.146 64.8611 256.165 64.3028 255.19 63.762L255.431 63.3261C256.41 63.8688 257.394 64.4289 258.357 64.9913L258.106 65.4217ZM252.237 62.1663C251.255 61.6493 250.251 61.1338 249.252 60.6347L249.474 60.1888C250.477 60.6897 251.485 61.2066 252.47 61.7253L252.237 62.1663ZM246.234 59.1666C245.23 58.6914 244.205 58.2188 243.186 57.7622L243.39 57.3076C244.412 57.7657 245.441 58.2396 246.447 58.7163L246.234 59.1666ZM240.11 56.4211C239.087 55.9877 238.043 55.5578 237.007 55.1434L237.192 54.6808C238.231 55.0964 239.279 55.5276 240.304 55.9623L240.11 56.4211ZM233.879 53.929C232.837 53.5368 231.777 53.1496 230.727 52.7779L230.893 52.3081C231.946 52.6808 233.01 53.0692 234.054 53.4625L233.879 53.929Z" fill="#84A9FF"/>
<path d="M251.27 159.11L251.25 158.612C251.793 158.59 252.347 158.555 252.897 158.508L252.939 159.004C252.382 159.052 251.821 159.087 251.27 159.11Z" fill="#84A9FF"/>
</g>
<defs>
<clipPath id="clip0_18103_19318">
<rect width="420" height="280" fill="white"/>
</clipPath>
</defs>
</svg>
