<svg width="48" height="48" viewBox="0 0 48 48" fill="none" xmlns="http://www.w3.org/2000/svg">
<path fill-rule="evenodd" clip-rule="evenodd" d="M45.5447 28.1886C45.8195 28.0081 46.1888 28.0844 46.3695 28.3592C46.5501 28.6339 46.4737 29.0032 46.1989 29.1839L43.8125 30.7535C43.5157 30.9588 43.1399 30.8815 42.9484 30.5744L41.3791 28.1886C41.1986 27.9138 41.2749 27.5446 41.5497 27.3639C41.8245 27.1833 42.1937 27.2597 42.3744 27.5344L43.2465 28.8603C44.0827 25.5423 44.0398 22.0203 43.1369 18.7216C43.0504 18.4042 43.2376 18.0768 43.5551 17.9903C43.8724 17.9039 44.1999 18.0911 44.2863 18.4085C45.2258 21.8405 45.2893 25.4375 44.4643 28.8994L45.5448 28.1885L45.5447 28.1886Z" fill="black"/>
<path fill-rule="evenodd" clip-rule="evenodd" d="M19.8122 45.5447C19.9928 45.8195 19.9164 46.1888 19.6417 46.3695C19.3669 46.5501 18.9976 46.4737 18.8169 46.1989L17.2473 43.8125C17.0421 43.5157 17.1193 43.1399 17.4264 42.9484L19.8122 41.3791C20.087 41.1986 20.4563 41.2749 20.6369 41.5497C20.8175 41.8245 20.7412 42.1937 20.4664 42.3744L19.1405 43.2465C22.4587 44.0826 25.9801 44.0399 29.2792 43.1369C29.5965 43.0504 29.924 43.2376 30.0104 43.5551C30.0969 43.8724 29.9096 44.1999 29.5922 44.2863C26.1601 45.2258 22.5632 45.2893 19.1014 44.4644L19.8122 45.5449V45.5447Z" fill="black"/>
<path fill-rule="evenodd" clip-rule="evenodd" d="M2.45386 19.8112C2.17908 19.9918 1.8098 19.9155 1.62914 19.6407C1.44858 19.3659 1.52489 18.9966 1.79967 18.816L4.18486 17.2471C4.48233 17.0409 4.85836 17.118 5.04989 17.4252L6.61936 19.8112C6.79992 20.086 6.72361 20.4553 6.44883 20.636C6.17405 20.8166 5.80477 20.7402 5.62411 20.4654L4.75195 19.1395C3.9158 22.4577 3.95864 25.9793 4.86164 29.2782C4.94808 29.5955 4.76086 29.923 4.44342 30.0095C4.12599 30.0959 3.79861 29.9087 3.71217 29.5913C2.7728 26.1595 2.70914 22.5621 3.53414 19.1006L2.45367 19.8113L2.45386 19.8112Z" fill="black"/>
<path fill-rule="evenodd" clip-rule="evenodd" d="M28.188 2.45537C28.0074 2.18059 28.0838 1.8113 28.3586 1.63065C28.6334 1.44999 29.0026 1.5264 29.1833 1.80118L30.7524 4.18665C30.9585 4.48412 30.8813 4.86005 30.5737 5.05168L28.188 6.62096C27.9133 6.80162 27.544 6.72521 27.3633 6.45043C27.1828 6.17565 27.2591 5.80637 27.5339 5.62571L28.8598 4.75355C25.5417 3.9174 22.02 3.96024 18.7211 4.86315C18.4037 4.94959 18.0763 4.76237 17.9898 4.44502C17.9034 4.12768 18.0906 3.80021 18.408 3.71377C21.84 2.7744 25.4369 2.71084 28.8987 3.53584L28.188 2.45527L28.188 2.45537Z" fill="black"/>
<path d="M31.2393 31.2451C35.2407 27.2438 35.2407 20.7562 31.2393 16.7549C27.2379 12.7535 20.7504 12.7535 16.749 16.7549C12.7477 20.7562 12.7477 27.2438 16.749 31.2451C20.7504 35.2465 27.2379 35.2465 31.2393 31.2451Z" fill="black"/>
<path fill-rule="evenodd" clip-rule="evenodd" d="M30.4012 17.5999C26.8663 14.065 21.1351 14.065 17.6003 17.5999C14.0655 21.1346 14.0655 26.8659 17.6003 30.4008C21.135 33.9355 26.8663 33.9355 30.4012 30.4008C33.9359 26.866 33.936 21.1346 30.4012 17.5999ZM20.6543 26.375C20.6543 26.0448 20.922 25.777 21.2524 25.777C21.5828 25.777 21.8504 26.0448 21.8504 26.375C21.8504 27.9685 24.1617 28.7598 25.4743 27.6062C25.8363 27.288 26.0604 26.8524 26.0604 26.375C26.0604 23.3997 20.7449 25.841 20.7449 21.6255C20.7449 20.1108 21.9753 18.9449 23.4479 18.701V17.7992C23.4479 17.4689 23.7158 17.2011 24.046 17.2011C24.3762 17.2011 24.6441 17.4689 24.6441 17.7992V18.701C26.1167 18.9449 27.3472 20.1108 27.3472 21.6255C27.3472 21.9558 27.0794 22.2235 26.7492 22.2235C26.4189 22.2235 26.151 21.9558 26.151 21.6255C26.151 20.0319 23.8397 19.2409 22.5271 20.3944C22.1651 20.7126 21.941 21.1482 21.941 21.6255C21.941 24.5564 27.2564 22.1286 27.2564 26.375C27.2564 27.8576 26.0757 29.0086 24.644 29.2834V30.2013C24.644 30.5316 24.3762 30.7994 24.0459 30.7994C23.7155 30.7994 23.4478 30.5316 23.4478 30.2013V29.3134C21.9348 29.1021 20.6542 27.9214 20.6542 26.375H20.6543Z" fill="#FFDD33"/>
<path fill-rule="evenodd" clip-rule="evenodd" d="M12.052 5.13931L12.4161 5.28856L13.1789 4.76919C13.4244 4.60166 13.7505 4.64225 13.9484 4.85141L15.5135 6.37813C15.7204 6.57931 15.7501 6.89413 15.5997 7.12785L15.6 7.12803L15.0804 7.93335L15.2332 8.29719L16.1381 8.46894C16.4332 8.52416 16.6366 8.78797 16.6244 9.07953L16.6515 11.2588C16.6549 11.5478 16.4518 11.7912 16.1794 11.8486L16.1796 11.8498L15.2457 12.0512L15.0965 12.4153L15.6159 13.1781C15.7834 13.4236 15.7429 13.7496 15.5337 13.9476L14.007 15.5128C13.8058 15.7197 13.491 15.7493 13.2573 15.599L13.2571 15.5993L12.4518 15.0797L12.0878 15.2325L11.9161 16.1373C11.8609 16.4324 11.5969 16.6359 11.3055 16.6237L9.12626 16.6508C8.83723 16.6542 8.59376 16.4511 8.53639 16.1787L8.53526 16.1789L8.33379 15.245L7.96967 15.0958L7.20692 15.6152C6.96148 15.7828 6.63542 15.7423 6.43751 15.533L4.87235 14.0063C4.66545 13.8051 4.63582 13.4903 4.7862 13.2566L4.78592 13.2564L5.30548 12.4511L5.15267 12.0871L4.24788 11.9154C3.95276 11.8602 3.74932 11.5963 3.7616 11.3048L3.73442 9.12556C3.73104 8.83653 3.9341 8.59316 4.20654 8.53569L4.20626 8.53456L5.14001 8.33319L5.28945 7.96906L4.76998 7.20613C4.60245 6.96069 4.64304 6.63463 4.8522 6.43663L6.37892 4.87147C6.5801 4.66456 6.89492 4.63494 7.12863 4.78531L7.12882 4.78503L7.93395 5.30441L8.29807 5.1515L8.46973 4.24681C8.52504 3.95169 8.78885 3.74825 9.08032 3.76053L11.2595 3.73344C11.5486 3.73006 11.7919 3.93313 11.8494 4.20556L11.8506 4.20528L12.052 5.13913V5.13931ZM10.1659 8.61585C9.30842 8.61585 8.59929 9.34944 8.61439 10.2191H8.61664C8.61664 11.5713 10.3217 12.32 11.3219 11.2946C12.3096 10.282 11.5639 8.58941 10.1659 8.6136L10.1659 8.61585Z" fill="black"/>
<path fill-rule="evenodd" clip-rule="evenodd" d="M11.7871 6.31462C11.4347 6.16968 11.0499 6.15253 10.9578 5.72146L10.7873 4.93115L9.55313 4.94653L9.41259 5.68687C9.33525 6.15928 8.94544 6.17221 8.57869 6.3255C8.22647 6.47268 7.9425 6.729 7.57631 6.4934L6.89419 6.05334L6.03225 6.93693L6.46725 7.57575C6.72994 7.95412 6.46181 8.24831 6.31725 8.59987C6.17372 8.94872 6.15656 9.33675 5.724 9.42918L4.93359 9.59972L4.94897 10.8338L5.68941 10.9744C6.16181 11.0517 6.17466 11.4414 6.32794 11.8081C6.47513 12.1603 6.73153 12.4444 6.49584 12.8105L6.05569 13.4928L6.93928 14.3547L7.578 13.9199C7.95638 13.6572 8.25056 13.9253 8.60222 14.0699C8.95463 14.2148 9.33937 14.2319 9.43153 14.6631L9.60197 15.4535L10.8361 15.4381L10.9766 14.6977C11.054 14.2252 11.4438 14.2123 11.8105 14.059C12.1627 13.9118 12.4466 13.6555 12.8127 13.8911L13.4949 14.3313L14.3569 13.4476L13.922 12.8089C13.6593 12.4305 13.9274 12.1363 14.0721 11.7847C14.217 11.4322 14.2341 11.0476 14.6652 10.9553L15.4556 10.7849L15.4403 9.55078L14.6998 9.41025C14.2274 9.3329 14.2145 8.94318 14.0613 8.57653C13.9141 8.2244 13.6577 7.94043 13.8934 7.57425L14.3335 6.89193L13.4499 6.03L12.8112 6.4649C12.4328 6.72759 12.1387 6.45947 11.7871 6.31481V6.31462ZM10.1675 7.41965V7.4219C11.6955 7.40681 12.9458 8.63015 12.9647 10.1581C12.9836 11.6889 11.7589 12.9432 10.2285 12.9622C8.67975 12.9815 7.42209 11.715 7.42209 10.2191H7.42434C7.40897 8.67337 8.67413 7.41965 10.1675 7.41965Z" fill="#0054A6"/>
<path fill-rule="evenodd" clip-rule="evenodd" d="M39.6692 5.13952L40.0333 5.28877L40.7961 4.7694C41.0415 4.60187 41.3676 4.64246 41.5655 4.85162L43.1306 6.37833C43.3375 6.57952 43.3672 6.89433 43.2168 7.12805L43.2171 7.12824L42.6975 7.93355L42.8503 8.2974L43.7551 8.46915C44.0502 8.52437 44.2536 8.78818 44.2414 9.07974L44.2686 11.259C44.2719 11.548 44.0689 11.7914 43.7964 11.8488L43.7967 11.8501L42.8628 12.0514L42.7136 12.4156L43.2331 13.1783C43.4006 13.4238 43.36 13.7498 43.1509 13.9478L41.6242 15.5131C41.423 15.7199 41.1082 15.7495 40.8744 15.5992L40.8743 15.5995L40.0689 15.0799L39.7051 15.2327L39.5334 16.1375C39.478 16.4326 39.2142 16.636 38.9228 16.6239L36.7435 16.651C36.4545 16.6544 36.2111 16.4513 36.1537 16.1789L36.1524 16.1791L35.951 15.2452L35.5869 15.0961L34.8241 15.6154C34.5786 15.783 34.2526 15.7425 34.0547 15.5333L32.4894 14.0066C32.2826 13.8054 32.2529 13.4906 32.4033 13.2569L32.403 13.2567L32.9226 12.4514L32.7698 12.0874L31.865 11.9157C31.5699 11.8605 31.3665 11.5966 31.3787 11.3051L31.3516 9.12587C31.3482 8.83683 31.5513 8.59346 31.8237 8.53599L31.8234 8.53487L32.7573 8.33349L32.9067 7.96937L32.3873 7.20643C32.2197 6.96099 32.2603 6.63493 32.4695 6.43693L33.9962 4.87177C34.1974 4.66487 34.5122 4.63524 34.7459 4.78562L34.7461 4.78533L35.5512 5.3048L35.9153 5.1519L36.087 4.2473C36.1423 3.95218 36.4061 3.74874 36.6976 3.76102L38.8768 3.73393C39.1659 3.73055 39.4092 3.93362 39.4667 4.20605L39.4679 4.20577L39.6694 5.13962L39.6692 5.13952ZM37.7831 8.61605C36.9255 8.61605 36.2166 9.34974 36.2317 10.2193H36.2339C36.2339 11.5715 37.9389 12.3202 38.9392 11.2948C39.2235 11.0033 39.3963 10.6028 39.3888 10.1653H39.3865C39.3865 9.30821 38.6534 8.59871 37.7832 8.6138V8.61605H37.7831Z" fill="black"/>
<path fill-rule="evenodd" clip-rule="evenodd" d="M39.4004 6.31472C39.048 6.16978 38.6632 6.15271 38.571 5.72146L38.4005 4.93115L37.1664 4.94653L37.0259 5.68687C36.9485 6.15928 36.5587 6.17221 36.1919 6.3255C35.8393 6.47287 35.5556 6.7289 35.1896 6.4934L34.5075 6.05334L33.6455 6.93693L34.0805 7.57575C34.3433 7.95412 34.0751 8.24831 33.9305 8.59978C33.7871 8.94862 33.7698 9.33665 33.3374 9.42918L32.5469 9.59972L32.5623 10.8338L33.3027 10.9744C33.7753 11.0517 33.7881 11.4418 33.9412 11.8081C34.0884 12.1602 34.3448 12.4444 34.1092 12.8105L33.6691 13.4927L34.5528 14.3546L35.1915 13.9198C35.5698 13.6571 35.864 13.9252 36.2157 14.0698C36.5681 14.2147 36.9528 14.2318 37.045 14.663L37.2154 15.4534L38.4496 15.438L38.5901 14.6976C38.6674 14.225 39.0577 14.212 39.424 14.0589C39.776 13.9117 40.06 13.6554 40.4261 13.891L41.1084 14.3312L41.9703 13.4475L41.5354 12.8088C41.2728 12.4304 41.5409 12.1362 41.6854 11.7846C41.8303 11.4322 41.8474 11.0474 42.2786 10.9552L43.069 10.7848L43.0536 9.55068L42.3132 9.41015C41.8408 9.33281 41.8278 8.94309 41.6747 8.57643C41.5275 8.22431 41.2711 7.94025 41.5068 7.57415L41.9469 6.89184L41.0633 6.0299L40.4246 6.46481C40.0462 6.7275 39.752 6.45928 39.4005 6.31481L39.4004 6.31472ZM37.7808 7.41975V7.422C39.3267 7.40671 40.5803 8.67168 40.5803 10.1651H40.5781C40.5932 11.6932 39.3697 12.9433 37.8419 12.9623C36.2931 12.9816 35.0355 11.7151 35.0355 10.2192H35.0378C35.0225 8.67346 36.2875 7.41975 37.7808 7.41975H37.7808Z" fill="#0054A6"/>
<path fill-rule="evenodd" clip-rule="evenodd" d="M39.6692 32.2108L40.0333 32.36L40.7961 31.8406C41.0415 31.6731 41.3676 31.7137 41.5655 31.9228L43.1306 33.4495C43.3375 33.6507 43.3672 33.9656 43.2168 34.1992L43.2171 34.1994L42.6975 35.0047L42.8503 35.3687L43.7551 35.5404C44.0502 35.5957 44.2536 35.8596 44.2414 36.151L44.2686 38.3302C44.2719 38.6193 44.0689 38.8627 43.7964 38.9201L43.7967 38.9213L42.8628 39.1228L42.7136 39.4869L43.2331 40.2498C43.4006 40.4952 43.36 40.8213 43.1509 41.0192L41.6242 42.5843C41.423 42.7912 41.1082 42.8209 40.8744 42.6705L40.8743 42.6708L40.0689 42.1512L39.7051 42.304L39.5334 43.2088C39.478 43.5039 39.2142 43.7073 38.9228 43.6951L36.7435 43.7223C36.4545 43.7257 36.2111 43.5226 36.1537 43.2502L36.1524 43.2504L35.9511 42.3167L35.5869 42.1672L34.8241 42.6866C34.5786 42.8542 34.2526 42.8136 34.0547 42.6044L32.4894 41.0777C32.2826 40.8765 32.2529 40.5616 32.4033 40.328L32.403 40.3278L32.9226 39.5225L32.7698 39.1586L31.865 38.9869C31.5699 38.9316 31.3665 38.6677 31.3787 38.3763L31.3516 36.1971C31.3482 35.908 31.5513 35.6647 31.8237 35.6072L31.8234 35.6061L32.7573 35.4047L32.9067 35.0406L32.3873 34.2777C32.2197 34.0323 32.2603 33.7062 32.4695 33.5083L33.9962 31.9432C34.1974 31.7362 34.5122 31.7066 34.7459 31.857L34.7461 31.8567L35.5512 32.3762L35.9153 32.2233L36.087 31.3186C36.1423 31.0235 36.4061 30.82 36.6976 30.8323L38.8768 30.8052C39.1659 30.8018 39.4092 31.0049 39.4667 31.2773L39.4679 31.2771L39.6694 32.211L39.6692 32.2108ZM37.7831 35.6872C36.926 35.6872 36.2166 36.4205 36.2317 37.2906H36.2339C36.2339 38.1476 36.967 38.8572 37.8372 38.8421V38.8399C38.6946 38.8399 39.4038 38.1065 39.3888 37.2367H39.3865C39.3865 36.379 38.6529 35.67 37.7832 35.6851V35.6873L37.7831 35.6872Z" fill="black"/>
<path fill-rule="evenodd" clip-rule="evenodd" d="M39.4005 33.3865C39.0481 33.2416 38.6633 33.2245 38.5711 32.7933L38.4006 32.0029L37.1665 32.0182L37.026 32.7586C36.9486 33.231 36.5588 33.2439 36.192 33.3972C35.8398 33.5444 35.5558 33.8007 35.1897 33.5651L34.5076 33.125L33.6456 34.0087L34.0806 34.6475C34.3434 35.0259 34.0752 35.3201 33.9306 35.6716C33.7872 36.0204 33.7699 36.4084 33.3374 36.501L32.5469 36.6715L32.5623 37.9056L33.3027 38.0461C33.7751 38.1234 33.788 38.5132 33.9412 38.8799C34.0884 39.232 34.3448 39.5161 34.1091 39.8822L33.669 40.5646L34.5527 41.4265L35.1914 40.9916C35.5697 40.7289 35.8639 40.997 36.2156 41.1416C36.5643 41.285 36.9525 41.3024 37.0449 41.7347L37.2153 42.5251L38.4495 42.5098L38.59 41.7693C38.6673 41.2968 39.0575 41.2838 39.4238 41.1307C39.7759 40.9835 40.0599 40.7272 40.426 40.9628L41.1083 41.403L41.9702 40.5193L41.5353 39.8806C41.2727 39.5021 41.5408 39.2079 41.6853 38.8563C41.8302 38.5039 41.8473 38.1192 42.2785 38.027L43.0689 37.8566L43.0535 36.6225L42.3131 36.4819C41.8405 36.4046 41.8277 36.0144 41.6746 35.6481C41.5274 35.2961 41.271 35.012 41.5067 34.6458L41.9468 33.9635L41.0632 33.1016L40.4245 33.5365C40.0461 33.7992 39.7519 33.5311 39.4004 33.3864L39.4005 33.3865ZM37.7809 34.4915V34.4938C39.3267 34.4784 40.5804 35.7435 40.5804 37.2369H40.5782C40.5935 38.7827 39.3285 40.0364 37.835 40.0364V40.034C36.2892 40.0493 35.0356 38.7843 35.0356 37.2909H35.0379C35.0225 35.7451 36.2876 34.4914 37.7809 34.4914V34.4915Z" fill="#0054A6"/>
<path fill-rule="evenodd" clip-rule="evenodd" d="M12.0523 32.7552L12.4164 32.9044L13.1792 32.385C13.4247 32.2175 13.7508 32.2581 13.9487 32.4672L15.5138 33.994C15.7206 34.1952 15.7504 34.51 15.6 34.7437L15.6003 34.7439L15.0807 35.5492L15.2335 35.913L16.1383 36.0848C16.4334 36.14 16.6368 36.4038 16.6246 36.6954L16.6517 38.8745C16.655 39.1635 16.452 39.4069 16.1795 39.4644L16.1798 39.4655L15.2459 39.667L15.0966 40.0311L15.616 40.7938C15.7835 41.0393 15.7429 41.3653 15.5338 41.5632L14.0071 43.1285C13.8059 43.3354 13.4911 43.365 13.2574 43.2147L13.2572 43.2149L12.4519 42.6954L12.0879 42.8483L11.9162 43.7531C11.8609 44.0482 11.597 44.2515 11.3056 44.2393L9.12635 44.2665C8.83732 44.2699 8.59385 44.0668 8.53648 43.7944L8.53535 43.7947L8.33398 42.861L7.96976 42.7116L7.20692 43.231C6.96148 43.3985 6.63542 43.358 6.43751 43.1487L4.87235 41.622C4.66545 41.4208 4.63582 41.106 4.7862 40.8723L4.78592 40.8721L5.30548 40.0668L5.15267 39.7029L4.24789 39.5312C3.95276 39.476 3.74932 39.2121 3.7616 38.9206L3.73442 36.7414C3.73104 36.4524 3.9341 36.209 4.20654 36.1515L4.20626 36.1503L5.14001 35.9489L5.28945 35.5849L4.76998 34.8221C4.60245 34.5765 4.64304 34.2506 4.8522 34.0527L6.37892 32.4875C6.5801 32.2807 6.89492 32.2511 7.12864 32.4013L7.12882 32.4011L7.93395 32.9205L8.29807 32.7676L8.46973 31.863C8.52504 31.5679 8.78885 31.3646 9.08032 31.3767L11.2595 31.3497C11.5486 31.3463 11.7919 31.5493 11.8494 31.8218L11.8506 31.8215L12.052 32.7554L12.0523 32.7552ZM10.1661 36.2317C9.3087 36.2317 8.59957 36.9652 8.61467 37.8349H8.61692C8.61692 39.1872 10.3219 39.9357 11.3222 38.9104C12.3099 37.8978 11.5641 36.2052 10.1662 36.2294L10.1661 36.2317Z" fill="black"/>
<path fill-rule="evenodd" clip-rule="evenodd" d="M11.7871 33.9304C11.4347 33.7855 11.0499 33.7684 10.9578 33.3373L10.7873 32.5469L9.55313 32.5623L9.41259 33.3026C9.33525 33.7752 8.94497 33.7881 8.57869 33.9412C8.22647 34.0884 7.94241 34.3447 7.57631 34.1091L6.89419 33.6691L6.03225 34.5528L6.46725 35.1915C6.72994 35.5698 6.46181 35.864 6.31725 36.2156C6.17372 36.5643 6.15647 36.9525 5.724 37.0449L4.93359 37.2153L4.94897 38.4495L5.68941 38.59C6.16191 38.6673 6.17475 39.0572 6.32794 39.4238C6.47513 39.7759 6.73153 40.06 6.49584 40.4262L6.05569 41.1085L6.93937 41.9704L7.57809 41.5355C7.95647 41.2728 8.25066 41.541 8.60231 41.6855C8.95106 41.829 9.33919 41.8462 9.43163 42.2787L9.60206 43.0691L10.8362 43.0537L10.9767 42.3132C11.0541 41.8407 11.4439 41.8279 11.8105 41.6747C12.1627 41.5275 12.4467 41.2712 12.8128 41.5068L13.495 41.9469L14.357 41.0633L13.9221 40.4246C13.6594 40.0462 13.9275 39.752 14.0722 39.4004C14.2171 39.048 14.2342 38.6632 14.6653 38.5711L15.4557 38.4006L15.4403 37.1665L14.6999 37.026C14.2275 36.9487 14.2146 36.5589 14.0614 36.1923C13.9143 35.8401 13.6578 35.5562 13.8935 35.19L14.3336 34.5077L13.45 33.6457L12.8113 34.0806C12.4329 34.3433 12.1388 34.0751 11.7872 33.9305L11.7871 33.9304ZM10.1676 35.0355V35.0378C11.6956 35.0227 12.9458 36.2461 12.9648 37.7739C12.9837 39.3048 11.759 40.559 10.2286 40.578C8.67975 40.5972 7.42219 39.3306 7.42219 37.8348H7.42444C7.40906 36.2891 8.67413 35.0354 10.1675 35.0354L10.1676 35.0355Z" fill="#0054A6"/>
</svg>
