<svg width="64" height="64" viewBox="0 0 64 64" fill="none" xmlns="http://www.w3.org/2000/svg">
<path fill-rule="evenodd" clip-rule="evenodd" d="M62 47.5123L57.705 43.1748H30.06C28.0725 37.5698 22.725 33.5586 16.4425 33.5586C8.4675 33.5586 2 40.0248 2 48.0011C2 55.9773 8.46625 62.4436 16.4425 62.4436C23.0863 62.4436 28.6812 57.9573 30.3675 51.8461H33.68L33.96 51.4848L35.8375 49.0723L37.715 51.4848L37.9987 51.8461H42.3887L42.6688 51.4848L44.5462 49.0723L46.4238 51.4848L46.7075 51.8461H47.3413L47.6213 51.4848L49.4987 49.0723L51.3763 51.4848L51.66 51.8461H57.7012L62 47.5123Z" fill="#F5B445"/>
<path fill-rule="evenodd" clip-rule="evenodd" d="M15.7514 47.1477C15.7514 44.9902 14.0052 43.2427 11.8464 43.2427C9.68891 43.2427 7.94141 44.9902 7.94141 47.1477C7.94141 49.3052 9.68766 51.0527 11.8464 51.0527C14.0039 51.0527 15.7514 49.3052 15.7514 47.1477Z" fill="white"/>
<path d="M59.1689 7.47252C59.2927 7.00502 59.7714 6.72877 60.2389 6.85252C60.7027 6.97627 60.9789 7.45502 60.8552 7.92252L59.5764 12.695C59.4527 13.1588 58.9739 13.435 58.5064 13.3113L53.6952 12.0213C53.2277 11.8975 52.9514 11.4188 53.0752 10.9513C53.1989 10.4875 53.6777 10.2113 54.1452 10.335L56.6039 10.9938C55.4202 9.62627 54.0664 8.40002 52.5652 7.34752C50.4889 5.89127 48.1214 4.76502 45.5214 4.07002C39.5614 2.47252 33.5239 3.44252 28.5739 6.29877H28.5702C23.6239 9.15502 19.7652 13.9025 18.1702 19.8588C17.7977 21.2375 17.5677 22.6188 17.4652 23.99C17.3589 25.4 17.3877 26.7963 17.5427 28.1638C17.5964 28.6425 17.2527 29.075 16.7702 29.1275C16.2914 29.1813 15.8602 28.8338 15.8064 28.355C15.6402 26.8775 15.6077 25.375 15.7214 23.8588C15.8314 22.3813 16.0827 20.8925 16.4802 19.4088C18.2027 12.9888 22.3627 7.87127 27.7014 4.78877H27.6977C33.0377 1.70627 39.5502 0.661271 45.9702 2.37877C48.7664 3.13002 51.3164 4.34127 53.5602 5.91502C55.3814 7.19377 57.0002 8.70752 58.3827 10.4013L59.1689 7.47252Z" fill="#F6CA56"/>
<path fill-rule="evenodd" clip-rule="evenodd" d="M42.6053 15.2287C43.4766 15.4699 44.3028 15.8137 45.0678 16.2487L47.2678 14.8662C47.7953 14.5337 48.4303 14.4237 48.8691 14.8662L50.5128 16.5062C50.9516 16.9462 50.8428 17.5799 50.5128 18.1074L49.1278 20.3074C49.5641 21.0724 49.9103 21.8987 50.1478 22.7699L52.6816 23.3474C53.2878 23.4824 53.8116 23.8537 53.8116 24.4774V26.7987C53.8116 27.4224 53.2866 27.7949 52.6816 27.9324L50.1478 28.5062C49.9066 29.3774 49.5628 30.2037 49.1278 30.9724L50.5128 33.1687C50.8428 33.6962 50.9516 34.3312 50.5128 34.7699L48.8691 36.4137C48.4303 36.8537 47.7953 36.7437 47.2678 36.4137L45.0716 35.0287C44.3028 35.4649 43.4766 35.8112 42.6053 36.0487L42.0316 38.5824C41.8928 39.1887 41.5216 39.7162 40.8978 39.7162H38.5766C37.9528 39.7162 37.5803 39.1887 37.4428 38.5824L36.8691 36.0487C35.9978 35.8112 35.1716 35.4637 34.4066 35.0287L32.2066 36.4137C31.6791 36.7437 31.0441 36.8537 30.6053 36.4137L28.9653 34.7699C28.5228 34.3312 28.6328 33.6962 28.9653 33.1687L30.3478 30.9724C29.9116 30.2037 29.5653 29.3774 29.3278 28.5062L26.7941 27.9324C26.1878 27.7937 25.6641 27.4224 25.6641 26.7987V24.4774C25.6641 23.8537 26.1891 23.4812 26.7941 23.3474L29.3278 22.7699C29.5691 21.8987 29.9128 21.0724 30.3478 20.3074L28.9653 18.1074C28.6328 17.5799 28.5228 16.9449 28.9653 16.5062L30.6053 14.8662C31.0453 14.4237 31.6791 14.5337 32.2066 14.8662L34.4066 16.2487C35.1716 15.8124 35.9978 15.4687 36.8691 15.2287L37.4428 12.6949C37.5816 12.0887 37.9528 11.5649 38.5766 11.5649H40.8978C41.5216 11.5649 41.8941 12.0899 42.0316 12.6949L42.6053 15.2287Z" fill="#5D6A85"/>
<path fill-rule="evenodd" clip-rule="evenodd" d="M41.0028 15.2287C42.3991 15.5937 43.2316 16.0324 44.2628 16.7237L47.2678 14.8674L48.9078 16.5074C49.3466 16.9474 49.2403 17.5812 48.9078 18.1087L47.5228 20.3087C47.9616 21.0737 48.3053 21.8999 48.5466 22.7712L51.0766 23.3487C51.6866 23.4837 52.2103 23.8549 52.2103 24.4787V26.7999C52.2103 27.4237 51.6853 27.7962 51.0766 27.9337L48.5428 28.5074C48.3053 29.3787 47.9578 30.2049 47.5228 30.9737L48.9078 33.1699C49.2403 33.6974 49.3466 34.3324 48.9078 34.7712L47.2678 36.4112C46.8953 36.1774 44.5566 34.6649 44.2591 34.5862C43.1541 35.1924 42.2466 35.7099 41.0028 36.0499L40.4253 38.5837C40.2866 39.1899 39.9153 39.7174 39.2953 39.7174H38.5766C37.9528 39.7174 37.5803 39.1899 37.4428 38.5837L36.8691 36.0499C35.9978 35.8124 35.1716 35.4649 34.4066 35.0299L32.2066 36.4149C31.6791 36.7449 31.0441 36.8549 30.6053 36.4149L28.9653 34.7712C28.6291 34.2612 28.6328 33.7149 28.9478 33.1974L30.3478 30.9724C29.9116 30.2037 29.5653 29.3774 29.3278 28.5062L26.7941 27.9324C26.1878 27.7937 25.6641 27.4224 25.6641 26.7987V24.4774C25.6641 23.8537 26.1891 23.4812 26.7941 23.3474L29.3278 22.7699C29.5691 21.8987 29.9128 21.0724 30.3478 20.3074L28.9653 18.1074C28.6328 17.5799 28.5228 16.9449 28.9653 16.5062L30.6053 14.8662C31.0453 14.4237 31.6791 14.5337 32.2066 14.8662L34.4066 16.2487C35.1716 15.8124 35.9978 15.4687 36.8691 15.2287L37.4428 12.6949C37.5816 12.0887 37.9528 11.5649 38.5766 11.5649H39.2953C39.9153 11.5649 40.2878 12.0899 40.4253 12.6949L41.0028 15.2287Z" fill="#7B849B"/>
<path fill-rule="evenodd" clip-rule="evenodd" d="M39.7388 30.2526C42.2763 30.2526 44.3487 28.1838 44.3487 25.6426C44.3487 23.1026 42.2763 21.0288 39.7388 21.0288C37.1988 21.0288 35.125 23.1013 35.125 25.6426C35.1262 28.1838 37.1988 30.2526 39.7388 30.2526Z" fill="#C5CFF1"/>
<path fill-rule="evenodd" clip-rule="evenodd" d="M40.9502 21.1924C42.9102 21.7236 44.3477 23.5136 44.3477 25.6424C44.3477 27.7686 42.909 29.5574 40.9502 30.0924C38.9902 29.5574 37.5527 27.7674 37.5527 25.6424C37.5515 23.5136 38.9902 21.7236 40.9502 21.1924Z" fill="#E8ECF9"/>
<path fill-rule="evenodd" clip-rule="evenodd" d="M23.5672 55.2649C19.5559 59.2762 13.0547 59.2762 9.03969 55.2649C5.02844 51.2537 5.02844 44.7487 9.03969 40.7374C13.0547 36.7262 19.5559 36.7262 23.5672 40.7374C27.5822 44.7487 27.5822 51.2537 23.5672 55.2649Z" fill="#F1B70B"/>
<path fill-rule="evenodd" clip-rule="evenodd" d="M15.7259 58.2551C13.2947 58.1201 10.8997 57.1213 9.03969 55.2651C5.02844 51.2538 5.02844 44.7488 9.03969 40.7376C10.8997 38.8776 13.2947 37.8813 15.7259 37.7476C18.1597 37.8826 20.5559 38.8776 22.4122 40.7376C26.4272 44.7488 26.4272 51.2538 22.4122 55.2651C20.5559 57.1213 18.1597 58.1213 15.7259 58.2551Z" fill="#F6CA56"/>
<path fill-rule="evenodd" clip-rule="evenodd" d="M22.1676 53.8648C18.9288 57.1036 13.6776 57.1036 10.4388 53.8648C7.20008 50.6261 7.20008 45.3748 10.4388 42.1361C13.6776 38.8973 18.9288 38.8973 22.1676 42.1361C25.4101 45.3748 25.4101 50.6261 22.1676 53.8648Z" fill="#FAD989"/>
<path fill-rule="evenodd" clip-rule="evenodd" d="M22.1663 53.8648C20.7025 55.3323 18.8212 56.1323 16.905 56.2711C14.985 56.1323 13.1062 55.3323 11.64 53.8648C8.40125 50.6261 8.40125 45.3748 11.64 42.1361C13.1075 40.6686 14.985 39.8648 16.905 39.7261C18.8225 39.8648 20.7038 40.6686 22.1663 42.1361C25.4088 45.3748 25.4088 50.6261 22.1663 53.8648Z" fill="#FFEAB7" stroke="#FFEAB7" stroke-width="0.02475" stroke-miterlimit="10"/>
<path d="M15.4585 42.2538C15.4585 41.7863 15.8372 41.4038 16.3047 41.4038C16.776 41.4038 17.1547 41.7863 17.1547 42.2538V43.2813C18.4872 43.5826 19.6135 44.6351 19.6135 46.0163C19.6135 46.4876 19.231 46.8663 18.7635 46.8663C18.296 46.8663 17.9172 46.4876 17.9172 46.0163C17.9172 44.8926 15.7447 44.4251 14.906 45.4676C14.5522 45.9063 14.6722 46.4176 15.101 46.7613C15.9935 47.4801 17.146 46.7688 18.5772 47.9238C20.466 49.4476 19.6472 52.1551 17.156 52.7213V53.7488C17.156 54.2163 16.7772 54.5951 16.306 54.5951C15.8385 54.5951 15.4597 54.2163 15.4597 53.7488V52.7213C14.1272 52.4163 13.001 51.3676 13.001 49.9826C13.001 49.5151 13.3797 49.1363 13.851 49.1363C14.3185 49.1363 14.6972 49.5151 14.6972 49.9826C14.6972 51.1088 16.866 51.5776 17.7085 50.5313C18.0622 50.0926 17.9385 49.5851 17.5135 49.2413C16.621 48.5188 15.4685 49.2338 14.0372 48.0788C12.1485 46.5551 12.9672 43.8451 15.4585 43.2813V42.2538Z" fill="#F1B70B"/>
</svg>
