<svg width="100" height="100" viewBox="0 0 100 100" fill="none" xmlns="http://www.w3.org/2000/svg">
<rect width="100" height="100" fill="white"/>
<path d="M93.9549 76.0562C93.9549 77.4212 92.7416 78.5289 91.2427 78.5289H7.75909C6.26125 78.5289 5.04688 77.4212 5.04688 76.0562V24.5199C5.04688 23.1538 6.26125 22.0461 7.75909 22.0461H91.2427C92.7416 22.0461 93.9549 23.1538 93.9549 24.5199V76.0562Z" fill="#F1F2F2"/>
<path fill-rule="evenodd" clip-rule="evenodd" d="M14.9628 44.9231H20.6802C23.7511 44.9231 24.908 46.4764 24.7281 48.765C24.4331 52.5347 22.1539 54.6183 19.1311 54.6183H17.605C17.1908 54.6183 16.9125 54.8923 16.7985 55.6391L16.1438 59.9611C16.1009 60.2404 15.9534 60.4056 15.7316 60.4245H12.1471C11.8092 60.4245 11.69 60.1682 11.7778 59.6076L13.9681 45.7442C14.056 45.1888 14.3593 44.9231 14.9628 44.9231Z" fill="#009DE2"/>
<path fill-rule="evenodd" clip-rule="evenodd" d="M39.7858 44.6674C41.7156 44.6674 43.4959 45.7144 43.2521 48.3231C42.9624 51.416 41.2962 53.1387 38.6739 53.145H36.3874C36.0579 53.145 35.8989 53.4117 35.8132 53.9651L35.3707 56.7787C35.3048 57.2024 35.0862 57.4137 34.764 57.4137H32.6344C32.2955 57.4137 32.1763 57.195 32.2526 56.7097L34.013 45.4278C34.0998 44.8724 34.3132 44.6653 34.6887 44.6653H39.7858V44.6674ZM36.3173 50.7068H38.0515C39.1362 50.6661 39.8569 49.915 39.928 48.5595C39.9751 47.7227 39.4082 47.1244 38.5097 47.1286L36.8759 47.1359L36.3173 50.7068ZM49.0416 56.5486C49.2372 56.3729 49.4339 56.2798 49.4067 56.4984L49.3366 57.0204C49.3021 57.2944 49.4109 57.4388 49.664 57.4388H51.5572C51.8752 57.4388 52.03 57.3101 52.1074 56.8164L53.2747 49.4987C53.3333 49.1306 53.2433 48.9517 52.9651 48.9517H50.8846C50.6953 48.9517 50.6043 49.0573 50.5572 49.3429L50.4788 49.7937C50.4401 50.0291 50.3313 50.0698 50.2319 49.8335C49.8784 48.9967 48.9799 48.6222 47.7174 48.6484C44.7981 48.709 42.8317 50.9234 42.6193 53.7642C42.4582 55.9608 44.0314 57.6856 46.1056 57.6856C47.6107 57.6856 48.2833 57.2369 49.0416 56.5486ZM47.4591 55.4252C46.2028 55.4252 45.3274 54.4232 45.5104 53.1942C45.6935 51.9662 46.867 50.9642 48.1233 50.9642C49.3805 50.9642 50.2571 51.9662 50.073 53.1942C49.8889 54.4232 48.7142 55.4252 47.4591 55.4252ZM56.9785 48.9276H55.0685C54.6721 48.9276 54.51 49.2184 54.6366 49.5877L57.0182 56.5622L54.6721 59.8811C54.4755 60.1573 54.6271 60.4114 54.9033 60.4114H57.0611C57.3833 60.4114 57.5412 60.3298 57.7013 60.0955L65.0262 49.5877C65.2532 49.2634 65.1476 48.9245 64.7752 48.9245L62.7397 48.9214C62.3872 48.9214 62.2502 49.0605 62.0463 49.3513L58.9899 53.7831L57.6322 49.3429C57.5475 49.0699 57.3467 48.9276 56.9785 48.9276Z" fill="#113984"/>
<path fill-rule="evenodd" clip-rule="evenodd" d="M72.6497 44.6674C74.5795 44.6674 76.3598 45.7144 76.1171 48.3231C75.8274 51.416 74.1622 53.1387 71.5389 53.145H69.2534C68.9229 53.145 68.7628 53.4117 68.676 53.9651L68.2357 56.7787C68.1687 57.2024 67.9512 57.4137 67.629 57.4137H65.4994C65.1584 57.4137 65.0402 57.195 65.1155 56.7097L66.8769 45.4278C66.9648 44.8724 67.1761 44.6653 67.5526 44.6653H72.6497V44.6674ZM69.1802 50.7068H70.9155C71.9991 50.6661 72.7219 49.915 72.794 48.5595C72.838 47.7227 72.2752 47.1244 71.3736 47.1286L69.7408 47.1359L69.1802 50.7068ZM81.9045 56.5486C82.1001 56.3729 82.2978 56.2798 82.2716 56.4984L82.2016 57.0204C82.1649 57.2944 82.2727 57.4388 82.5289 57.4388H84.4201C84.7391 57.4388 84.896 57.3101 84.9724 56.8164L86.1397 49.4987C86.1982 49.1306 86.1093 48.9517 85.828 48.9517H83.7496C83.5592 48.9517 83.4703 49.0573 83.4222 49.3429L83.3438 49.7937C83.3051 50.0291 83.1952 50.0698 83.0969 49.8335C82.7434 48.9967 81.8417 48.6222 80.5803 48.6484C77.6631 48.709 75.6945 50.9234 75.4843 53.7642C75.3222 55.9608 76.8974 57.6856 78.9705 57.6856C80.4757 57.6856 81.1493 57.2369 81.9045 56.5486ZM80.324 55.4252C79.0668 55.4252 78.1913 54.4232 78.3733 53.1942C78.5584 51.9662 79.731 50.9642 80.9882 50.9642C82.2413 50.9642 83.1178 51.9662 82.9348 53.1942C82.7538 54.4232 81.5792 55.4252 80.324 55.4252ZM89.0506 57.4534H86.8666C86.6909 57.4534 86.5737 57.3174 86.5978 57.1501L88.5182 44.9969C88.5444 44.8305 88.7086 44.6946 88.8833 44.6946H91.0662C91.2377 44.6946 91.3591 44.8305 91.334 44.9969L89.4136 57.1501C89.3874 57.3174 89.2232 57.4534 89.0506 57.4534Z" fill="#009DE2"/>
<path fill-rule="evenodd" clip-rule="evenodd" d="M11.386 40.1526H17.1106C18.7235 40.1526 20.6345 40.2049 21.9138 41.3335C22.7673 42.0876 23.216 43.2874 23.1135 44.5771C22.7621 48.9482 20.1471 51.3958 16.641 51.3958H13.819C13.3378 51.3958 13.0198 51.7159 12.8839 52.5767L12.0973 57.588C12.046 57.9154 11.9048 58.1057 11.6475 58.1287H8.12048C7.72928 58.1287 7.59017 57.8286 7.69267 57.1811L10.2323 41.1044C10.3338 40.4601 10.6863 40.1526 11.386 40.1526Z" fill="#113984"/>
<path fill-rule="evenodd" clip-rule="evenodd" d="M12.9648 52.0703L13.9648 45.7431C14.0527 45.1888 14.356 44.9231 14.9606 44.9231H20.6779C21.6245 44.9231 22.3901 45.0716 22.9895 45.3436C22.4142 49.2336 19.8976 51.3935 16.6038 51.3935H13.7807C13.4094 51.3946 13.1312 51.5849 12.9648 52.0703Z" fill="#172C70"/>
</svg>
