<svg width="100" height="100" viewBox="0 0 100 100" fill="none" xmlns="http://www.w3.org/2000/svg">
<rect width="100" height="100" fill="white"/>
<path d="M93.9549 76.056C93.9549 77.421 92.7416 78.5287 91.2427 78.5287H7.75909C6.26125 78.5287 5.04688 77.421 5.04688 76.056V24.5196C5.04688 23.1536 6.26125 22.0459 7.75909 22.0459H91.2427C92.7416 22.0459 93.9549 23.1536 93.9549 24.5196V76.056Z" fill="#F1F2F2"/>
<path fill-rule="evenodd" clip-rule="evenodd" d="M14.9628 44.9229H20.6802C23.7511 44.9229 24.908 46.4761 24.7281 48.7647C24.4331 52.5344 22.1539 54.618 19.1311 54.618H17.605C17.1908 54.618 16.9125 54.8921 16.7985 55.6389L16.1438 59.9609C16.1009 60.2401 15.9534 60.4054 15.7316 60.4242H12.1471C11.8092 60.4242 11.69 60.168 11.7778 59.6073L13.9681 45.7439C14.056 45.1885 14.3593 44.9229 14.9628 44.9229Z" fill="#009DE2"/>
<path fill-rule="evenodd" clip-rule="evenodd" d="M39.7858 44.6671C41.7156 44.6671 43.4959 45.7142 43.2521 48.3228C42.9624 51.4158 41.2962 53.1385 38.6739 53.1448H36.3874C36.0579 53.1448 35.8989 53.4115 35.8132 53.9648L35.3707 56.7785C35.3048 57.2021 35.0862 57.4134 34.764 57.4134H32.6344C32.2955 57.4134 32.1763 57.1948 32.2526 56.7095L34.013 45.4276C34.0998 44.8721 34.3132 44.665 34.6887 44.665H39.7858V44.6671ZM36.3173 50.7066H38.0515C39.1362 50.6658 39.8569 49.9148 39.928 48.5592C39.9751 47.7224 39.4082 47.1241 38.5097 47.1283L36.8759 47.1356L36.3173 50.7066ZM49.0416 56.5484C49.2372 56.3727 49.4339 56.2796 49.4067 56.4982L49.3366 57.0201C49.3021 57.2942 49.4109 57.4385 49.664 57.4385H51.5572C51.8752 57.4385 52.03 57.3099 52.1074 56.8162L53.2747 49.4985C53.3333 49.1303 53.2433 48.9515 52.9651 48.9515H50.8846C50.6953 48.9515 50.6043 49.0571 50.5572 49.3426L50.4788 49.7935C50.4401 50.0288 50.3313 50.0696 50.2319 49.8332C49.8784 48.9964 48.9799 48.622 47.7174 48.6481C44.7981 48.7088 42.8317 50.9231 42.6193 53.764C42.4582 55.9605 44.0314 57.6854 46.1056 57.6854C47.6107 57.6854 48.2833 57.2366 49.0416 56.5484ZM47.4591 55.425C46.2028 55.425 45.3274 54.423 45.5104 53.1939C45.6935 51.966 46.867 50.9639 48.1233 50.9639C49.3805 50.9639 50.2571 51.966 50.073 53.1939C49.8889 54.423 48.7142 55.425 47.4591 55.425ZM56.9785 48.9274H55.0685C54.6721 48.9274 54.51 49.2182 54.6366 49.5874L57.0182 56.562L54.6721 59.8809C54.4755 60.157 54.6271 60.4112 54.9033 60.4112H57.0611C57.3833 60.4112 57.5412 60.3296 57.7013 60.0953L65.0262 49.5874C65.2532 49.2632 65.1476 48.9243 64.7752 48.9243L62.7397 48.9211C62.3872 48.9211 62.2502 49.0602 62.0463 49.351L58.9899 53.7828L57.6322 49.3426C57.5475 49.0696 57.3467 48.9274 56.9785 48.9274Z" fill="#113984"/>
<path fill-rule="evenodd" clip-rule="evenodd" d="M72.6497 44.6671C74.5795 44.6671 76.3598 45.7142 76.1171 48.3228C75.8274 51.4158 74.1622 53.1385 71.5389 53.1448H69.2534C68.9229 53.1448 68.7628 53.4115 68.676 53.9648L68.2357 56.7785C68.1687 57.2021 67.9512 57.4134 67.629 57.4134H65.4994C65.1584 57.4134 65.0402 57.1948 65.1155 56.7095L66.8769 45.4276C66.9648 44.8721 67.1761 44.665 67.5526 44.665H72.6497V44.6671ZM69.1802 50.7066H70.9155C71.9991 50.6658 72.7219 49.9148 72.794 48.5592C72.838 47.7224 72.2752 47.1241 71.3736 47.1283L69.7408 47.1356L69.1802 50.7066ZM81.9045 56.5484C82.1001 56.3727 82.2978 56.2796 82.2716 56.4982L82.2016 57.0201C82.1649 57.2942 82.2727 57.4385 82.5289 57.4385H84.4201C84.7391 57.4385 84.896 57.3099 84.9724 56.8162L86.1397 49.4985C86.1982 49.1303 86.1093 48.9515 85.828 48.9515H83.7496C83.5592 48.9515 83.4703 49.0571 83.4222 49.3426L83.3438 49.7935C83.3051 50.0288 83.1952 50.0696 83.0969 49.8332C82.7434 48.9964 81.8417 48.622 80.5803 48.6481C77.6631 48.7088 75.6945 50.9231 75.4843 53.764C75.3222 55.9605 76.8974 57.6854 78.9705 57.6854C80.4757 57.6854 81.1493 57.2366 81.9045 56.5484ZM80.324 55.425C79.0668 55.425 78.1913 54.423 78.3733 53.1939C78.5584 51.966 79.731 50.9639 80.9882 50.9639C82.2413 50.9639 83.1178 51.966 82.9348 53.1939C82.7538 54.423 81.5792 55.425 80.324 55.425ZM89.0506 57.4532H86.8666C86.6909 57.4532 86.5737 57.3172 86.5978 57.1498L88.5182 44.9966C88.5444 44.8303 88.7086 44.6943 88.8833 44.6943H91.0662C91.2377 44.6943 91.3591 44.8303 91.334 44.9966L89.4136 57.1498C89.3874 57.3172 89.2232 57.4532 89.0506 57.4532Z" fill="#009DE2"/>
<path fill-rule="evenodd" clip-rule="evenodd" d="M11.386 40.1523H17.1106C18.7235 40.1523 20.6345 40.2046 21.9138 41.3333C22.7673 42.0874 23.216 43.2871 23.1135 44.5768C22.7621 48.948 20.1471 51.3956 16.641 51.3956H13.819C13.3378 51.3956 13.0198 51.7156 12.8839 52.5765L12.0973 57.5877C12.046 57.9151 11.9048 58.1055 11.6475 58.1285H8.12048C7.72928 58.1285 7.59017 57.8283 7.69267 57.1808L10.2323 41.1042C10.3338 40.4599 10.6863 40.1523 11.386 40.1523Z" fill="#113984"/>
<path fill-rule="evenodd" clip-rule="evenodd" d="M12.9648 52.07L13.9648 45.7429C14.0527 45.1885 14.356 44.9229 14.9606 44.9229H20.6779C21.6245 44.9229 22.3901 45.0714 22.9895 45.3433C22.4142 49.2333 19.8976 51.3933 16.6038 51.3933H13.7807C13.4094 51.3943 13.1312 51.5847 12.9648 52.07Z" fill="#172C70"/>
</svg>
