<svg width="114" height="114" viewBox="0 0 114 114" fill="none" xmlns="http://www.w3.org/2000/svg">
<path d="M57.0004 37.1694C48.4426 37.1694 16.0113 37.3301 16.0113 45.6599V84.6301C15.9975 84.7503 15.9975 84.8716 16.0113 84.9917C16.7729 76.9566 48.6641 76.8093 56.9727 76.8093C65.2813 76.8093 97.131 76.9566 97.9342 84.9917C97.9479 84.8716 97.9479 84.7503 97.9342 84.6301V45.6733C97.9342 37.4105 65.4752 37.1828 56.945 37.1828L57.0004 37.1694Z" fill="#ECEFF1"/>
<g opacity="0.38">
<path d="M77.4979 54.1503C77.501 57.601 76.5725 60.9927 74.8042 63.9899C73.0359 66.9871 70.489 69.4858 67.4157 71.239C64.3423 72.9921 60.8489 73.9389 57.281 73.9856C53.7132 74.0324 50.1945 73.1775 47.0732 71.5055C43.9518 69.8336 41.3359 67.4025 39.4843 64.4527C37.6327 61.503 36.6094 58.1369 36.5158 54.6873C36.4223 51.2378 37.2616 47.8244 38.9507 44.7848C40.6399 41.7453 43.1204 39.1849 46.1468 37.3569C50.7165 37.1828 54.7046 37.1694 57.0034 37.1694C59.3021 37.1694 63.2764 37.1694 67.8738 37.3703C70.8204 39.1458 73.2503 41.6182 74.9343 44.5542C76.6182 47.4902 77.5006 50.7929 77.4979 54.1503Z" fill="#ABB1C3"/>
</g>
<path d="M42.3649 61.1118V64.5803L40.4955 65.9195L37.9752 67.6604V76.8472C37.9752 77.2237 37.8205 77.5848 37.5453 77.851C37.27 78.1172 36.8966 78.2668 36.5073 78.2668C36.118 78.2668 35.7447 78.1172 35.4694 77.851C35.1941 77.5848 35.0395 77.2237 35.0395 76.8472V66.9373C35.0337 66.7099 35.0879 66.4849 35.1969 66.2834C35.3059 66.0819 35.4662 65.9106 35.6626 65.7856L38.9307 63.4956C40.1077 62.6921 41.2571 61.9019 42.3649 61.1118Z" fill="#686A74"/>
<path d="M48.2218 66.8994V81.0546C48.2218 81.4311 48.0672 81.7921 47.7919 82.0584C47.5166 82.3246 47.1433 82.4741 46.754 82.4741C46.3647 82.4741 45.9913 82.3246 45.7161 82.0584C45.4408 81.7921 45.2861 81.4311 45.2861 81.0546V66.8994H48.2218Z" fill="#686A74"/>
<path d="M58.467 66.8994V83.8803C58.467 84.2568 58.3123 84.6178 58.037 84.884C57.7618 85.1503 57.3884 85.2998 56.9991 85.2998C56.6098 85.2998 56.2365 85.1503 55.9612 84.884C55.6859 84.6178 55.5313 84.2568 55.5312 83.8803V66.8994H58.467Z" fill="#686A74"/>
<path d="M68.714 66.8994V81.0546C68.714 81.4311 68.5594 81.7921 68.2841 82.0584C68.0088 82.3246 67.6355 82.4741 67.2462 82.4741C66.8569 82.4741 66.4835 82.3246 66.2082 82.0584C65.933 81.7921 65.7783 81.4311 65.7783 81.0546V66.8994H68.714Z" fill="#686A74"/>
<path d="M78.9606 66.8971V75.3875C78.9606 75.764 78.806 76.1251 78.5307 76.3913C78.2554 76.6575 77.8821 76.8071 77.4928 76.8071C77.1035 76.8071 76.7301 76.6575 76.4549 76.3913C76.1796 76.1251 76.0249 75.764 76.0249 75.3875V67.6203L73.5462 65.8793L71.6768 64.5401V61.1118C72.7846 61.9019 73.9339 62.6921 75.111 63.4956L78.3375 65.7588C78.5339 65.8838 78.6942 66.0551 78.8032 66.2566C78.9123 66.4581 78.9664 66.6831 78.9606 66.9105V66.8971Z" fill="#686A74"/>
<path d="M38.9307 63.4956C40.1216 62.6921 41.2709 61.9019 42.3787 61.1118V64.5803L40.5093 65.9195C39.919 65.1523 39.3912 64.3419 38.9307 63.4956Z" fill="#00325A"/>
<path d="M45.2861 66.8994H48.2218V72.0553C47.194 71.5928 46.2114 71.0415 45.2861 70.4081V66.8994Z" fill="#00325A"/>
<path d="M55.5449 66.8994H58.4806V73.9167C57.996 73.9167 57.5113 73.9167 57.0128 73.9167C56.5143 73.9167 56.0296 73.9167 55.5449 73.9167V66.8994Z" fill="#00325A"/>
<path d="M65.7783 66.8994H68.714V70.4081C67.7887 71.0415 66.8062 71.5928 65.7783 72.0553V66.8994Z" fill="#00325A"/>
<path d="M75.0694 63.4956C74.6302 64.3292 74.1207 65.1265 73.5462 65.8793L71.6768 64.5401V61.1118C72.743 61.9019 73.8924 62.6921 75.0694 63.4956Z" fill="#00325A"/>
<path d="M57.0014 72.5627C68.3203 72.5627 77.496 63.689 77.496 52.7428C77.496 41.7965 68.3203 32.9229 57.0014 32.9229C45.6826 32.9229 36.5068 41.7965 36.5068 52.7428C36.5068 63.689 45.6826 72.5627 57.0014 72.5627Z" fill="#007FF2"/>
<path d="M57.0022 69.7234C66.6997 69.7234 74.5611 62.1209 74.5611 52.7426C74.5611 43.3643 66.6997 35.7617 57.0022 35.7617C47.3047 35.7617 39.4434 43.3643 39.4434 52.7426C39.4434 62.1209 47.3047 69.7234 57.0022 69.7234Z" fill="#006EE5"/>
<path d="M74.5584 52.7432C74.5723 52.9752 74.5723 53.2077 74.5584 53.4396C74.3784 49.0597 72.4526 44.9171 69.1846 41.8798C65.9165 38.8425 61.5598 37.1461 57.0273 37.1461C52.4947 37.1461 48.138 38.8425 44.87 41.8798C41.6019 44.9171 39.6761 49.0597 39.4961 53.4396C39.4753 53.2079 39.4753 52.9749 39.4961 52.7432C39.4302 50.4723 39.8357 48.2116 40.6888 46.0948C41.5419 43.978 42.8253 42.0482 44.4629 40.4193C46.1006 38.7905 48.0593 37.4957 50.2233 36.6116C52.3873 35.7275 54.7127 35.272 57.0619 35.272C59.4111 35.272 61.7364 35.7275 63.9005 36.6116C66.0645 37.4957 68.0232 38.7905 69.6609 40.4193C71.2985 42.0482 72.5818 43.978 73.4349 46.0948C74.288 48.2116 74.6936 50.4723 74.6277 52.7432H74.5584Z" fill="#0062BA"/>
<path d="M24.7894 53.6276V89.5445C24.7956 89.7828 24.7398 90.0187 24.6269 90.2305C24.5141 90.4424 24.348 90.6234 24.1438 90.7568C23.9396 90.8902 23.704 90.9718 23.4586 90.9939C23.2133 91.0161 22.9661 90.9782 22.7399 90.8837C18.7241 89.1562 16.273 87.1876 16.0376 84.9913C16.0239 84.8712 16.0239 84.7499 16.0376 84.6297V45.6729C16.0376 48.1637 18.9595 50.4671 23.8754 52.3688C24.162 52.462 24.4093 52.6433 24.5793 52.8851C24.7493 53.1269 24.8328 53.4159 24.8171 53.708L24.7894 53.6276Z" fill="#D2D9DC"/>
<path d="M97.9903 45.6729V84.6431C98.004 84.7633 98.004 84.8845 97.9903 85.0047C97.7549 87.1608 95.3038 89.1696 91.2742 90.857C91.0478 90.9478 90.8016 90.9829 90.5577 90.9591C90.3138 90.9354 90.0799 90.8534 89.8768 90.7207C89.6737 90.588 89.5078 90.4087 89.394 90.1987C89.2802 89.9888 89.222 89.7548 89.2247 89.5178V53.6276C89.2382 53.352 89.3344 53.0861 89.5016 52.8625C89.6689 52.639 89.8999 52.4674 90.1663 52.3688C95.0684 50.4537 97.9903 48.1503 97.9903 45.6729Z" fill="#D2D9DC"/>
<path d="M58.467 24.4195V27.2586C58.467 27.6351 58.3123 27.9962 58.037 28.2624C57.7618 28.5286 57.3884 28.6781 56.9991 28.6781C56.6098 28.6781 56.2365 28.5286 55.9612 28.2624C55.6859 27.9962 55.5313 27.6351 55.5312 27.2586V24.4195C55.5313 24.0431 55.6859 23.682 55.9612 23.4158C56.2365 23.1496 56.6098 23 56.9991 23C57.3884 23 57.7618 23.1496 58.037 23.4158C58.3123 23.682 58.467 24.0431 58.467 24.4195Z" fill="#80D261"/>
<path d="M66.8207 28.2637L64.7436 30.2591C64.6081 30.3901 64.4472 30.494 64.2702 30.5649C64.0932 30.6358 63.9035 30.6723 63.7119 30.6723C63.5203 30.6723 63.3306 30.6358 63.1536 30.5649C62.9766 30.494 62.8157 30.3901 62.6803 30.2591C62.5448 30.128 62.4373 29.9725 62.364 29.8013C62.2907 29.6301 62.2529 29.4467 62.2529 29.2614C62.2529 29.0761 62.2907 28.8926 62.364 28.7214C62.4373 28.5502 62.5448 28.3947 62.6803 28.2637L64.7436 26.2549C65.019 25.9885 65.3926 25.8389 65.7821 25.8389C66.1717 25.8389 66.5453 25.9885 66.8207 26.2549C67.0962 26.5213 67.2509 26.8826 67.2509 27.2593C67.2509 27.636 67.0962 27.9973 66.8207 28.2637Z" fill="#E30E08"/>
<path d="M51.3937 30.2586C51.1166 30.522 50.7436 30.6696 50.3551 30.6696C49.9666 30.6696 49.5936 30.522 49.3165 30.2586L47.2394 28.2632C46.967 27.9953 46.8145 27.6346 46.8145 27.2589C46.8145 26.8831 46.967 26.5224 47.2394 26.2545C47.5141 25.9919 47.8848 25.8447 48.271 25.8447C48.6573 25.8447 49.0279 25.9919 49.3027 26.2545L51.3937 28.2632C51.6651 28.5289 51.8174 28.8874 51.8174 29.2609C51.8174 29.6345 51.6651 29.9929 51.3937 30.2586Z" fill="#FCC400"/>
<path d="M56.999 88.125C58.6127 88.125 59.9209 86.8599 59.9209 85.2993C59.9209 83.7387 58.6127 82.4736 56.999 82.4736C55.3853 82.4736 54.0771 83.7387 54.0771 85.2993C54.0771 86.8599 55.3853 88.125 56.999 88.125Z" fill="#80D261"/>
<path d="M67.249 83.8784C68.8627 83.8784 70.1709 82.6133 70.1709 81.0527C70.1709 79.4921 68.8627 78.2271 67.249 78.2271C65.6353 78.2271 64.3271 79.4921 64.3271 81.0527C64.3271 82.6133 65.6353 83.8784 67.249 83.8784Z" fill="#FCC400"/>
<path d="M46.7519 83.8784C48.3656 83.8784 49.6738 82.6133 49.6738 81.0527C49.6738 79.4921 48.3656 78.2271 46.7519 78.2271C45.1382 78.2271 43.8301 79.4921 43.8301 81.0527C43.8301 82.6133 45.1382 83.8784 46.7519 83.8784Z" fill="#FCC400"/>
<path d="M36.5068 81.04C38.1205 81.04 39.4287 79.7749 39.4287 78.2144C39.4287 76.6538 38.1205 75.3887 36.5068 75.3887C34.8931 75.3887 33.585 76.6538 33.585 78.2144C33.585 79.7749 34.8931 81.04 36.5068 81.04Z" fill="#E30E08"/>
<path d="M77.4951 79.6348C79.1088 79.6348 80.417 78.3697 80.417 76.8091C80.417 75.2485 79.1088 73.9834 77.4951 73.9834C75.8814 73.9834 74.5732 75.2485 74.5732 76.8091C74.5732 78.3697 75.8814 79.6348 77.4951 79.6348Z" fill="#E30E08"/>
<path d="M59.6997 51.1633L58.6196 50.8152C57.7142 50.6194 56.8637 50.2355 56.127 49.6902C55.9159 49.4767 55.7655 49.2141 55.6903 48.9279C55.6151 48.6416 55.6176 48.3415 55.6977 48.0564C55.7672 47.8111 55.9023 47.5878 56.0895 47.4091C56.2768 47.2304 56.5094 47.1026 56.764 47.0387C57.1576 46.9142 57.5774 46.8882 57.9842 46.9632C58.3911 47.0381 58.7716 47.2115 59.0904 47.4672C59.476 47.7762 59.9728 47.9244 60.4714 47.8792C60.97 47.834 61.4296 47.5991 61.7491 47.2261C62.0687 46.8532 62.2219 46.3728 62.1751 45.8906C62.1284 45.4084 61.8855 44.9639 61.4999 44.6549C60.9231 44.2052 60.2725 43.8521 59.575 43.6103C59.5216 43.591 59.4756 43.5562 59.4434 43.5107C59.4112 43.4651 59.3943 43.4111 59.395 43.3559V42.3917C59.4175 42.1385 59.3853 41.8835 59.3004 41.643C59.2156 41.4024 59.0801 41.1816 58.9024 40.9944C58.7247 40.8071 58.5087 40.6577 58.2681 40.5554C58.0275 40.4532 57.7676 40.4004 57.5048 40.4004C57.242 40.4004 56.9821 40.4532 56.7415 40.5554C56.501 40.6577 56.285 40.8071 56.1073 40.9944C55.9296 41.1816 55.794 41.4024 55.7092 41.643C55.6244 41.8835 55.5922 42.1385 55.6146 42.3917V43.4229C55.6154 43.478 55.5985 43.5321 55.5663 43.5776C55.534 43.6232 55.488 43.658 55.4346 43.6773C54.6397 43.9338 53.9196 44.3703 53.3343 44.9503C52.749 45.5303 52.3154 46.2371 52.0696 47.0119C51.8124 47.8833 51.7881 48.8035 51.9988 49.6865C52.2095 50.5694 52.6484 51.3863 53.2744 52.0606C54.4255 53.1516 55.8614 53.9199 57.4287 54.2836C57.761 54.3774 58.0933 54.4979 58.4534 54.6184C58.9056 54.7266 59.2963 55.0014 59.5421 55.3842C59.7878 55.7669 59.8692 56.2274 59.7689 56.6674C59.6741 57.2198 59.3801 57.7218 58.939 58.0846C58.498 58.4474 57.9384 58.6475 57.3594 58.6494C56.2651 58.7838 55.1593 58.5056 54.2714 57.8727C54.0592 57.7387 53.8212 57.6476 53.5717 57.6047C53.3221 57.5618 53.0662 57.568 52.8193 57.623C52.5723 57.6781 52.3394 57.7807 52.1344 57.9248C51.9295 58.069 51.7567 58.2517 51.6265 58.4619C51.3778 58.8781 51.3052 59.3712 51.4239 59.838C51.5426 60.3048 51.8435 60.7091 52.2635 60.9662C53.186 61.59 54.2411 62.0064 55.3515 62.1848C55.415 62.1974 55.472 62.231 55.5124 62.2799C55.5529 62.3289 55.5744 62.39 55.5731 62.4527V63.0821C55.5685 63.5579 55.7525 64.0173 56.0873 64.366C56.4221 64.7147 56.8823 64.9262 57.3733 64.9569C57.6281 64.9678 57.8827 64.9287 58.1216 64.8422C58.3605 64.7557 58.5789 64.6235 58.7638 64.4535C58.9487 64.2834 59.0962 64.0791 59.1975 63.8527C59.2988 63.6262 59.3519 63.3824 59.3535 63.1357V62.158C59.3513 62.1042 59.3679 62.0512 59.4005 62.0075C59.4331 61.9638 59.4799 61.9319 59.5335 61.917C60.5529 61.536 61.4532 60.9067 62.1471 60.0902C62.841 59.2737 63.3049 58.2976 63.4939 57.2566C63.742 55.9679 63.4927 54.636 62.7935 53.5131C62.0942 52.3901 60.9935 51.5541 59.6997 51.1633Z" fill="#EEF0F5"/>
</svg>
