<svg width="114" height="114" viewBox="0 0 114 114" fill="none" xmlns="http://www.w3.org/2000/svg">
<path d="M94.5712 41.4886V92.8248H19.4033V41.4886C19.4033 40.2225 19.8949 39.0083 20.77 38.113C21.6451 37.2178 22.832 36.7148 24.0695 36.7148H89.905C91.1426 36.7148 92.3294 37.2178 93.2045 38.113C94.0796 39.0083 94.5712 40.2225 94.5712 41.4886Z" fill="#D2D9DC"/>
<path d="M19.4033 85.2104H94.5712V92.8246H19.4033V85.2104Z" fill="#BCC5C9"/>
<path d="M88.7972 42.6343V82.341H25.2148V42.6343H88.7972Z" fill="#ECEFF1"/>
<path d="M98 88.2451H16V91.0558C16.0038 92.8965 16.7203 94.6607 17.9926 95.9623C19.2648 97.2639 20.9893 97.9969 22.7885 98.0008H91.2115C93.0107 97.9969 94.7352 97.2639 96.0075 95.9623C97.2797 94.6607 97.9962 92.8965 98 91.0558V88.2451Z" fill="#D2D9DC"/>
<path d="M61.4437 93.1229H52.5474C51.3226 93.119 50.149 92.6195 49.283 91.7335C48.4169 90.8475 47.9286 89.6469 47.9248 88.3938V88.2451H66.0808V88.3938C66.077 89.6494 65.5867 90.8523 64.7175 91.7387C63.8483 92.6252 62.671 93.123 61.4437 93.1229Z" fill="#BCC5C9"/>
<path d="M30.2021 98.0008H22.7885C20.9893 97.9969 19.2648 97.2639 17.9926 95.9623C16.7203 94.6607 16.0038 92.8965 16 91.0558V88.2451H23.4136V91.0558C23.4174 92.8965 24.1339 94.6607 25.4061 95.9623C26.6784 97.2639 28.4028 97.9969 30.2021 98.0008Z" fill="#BCC5C9"/>
<path d="M75.2336 41.5332V48.6715C75.2377 50.7544 74.6395 52.7919 73.5144 54.5278C72.3892 56.2637 70.7873 57.6204 68.9103 58.4272C65.1346 60.0319 61.0863 60.858 56.9977 60.858C52.9091 60.858 48.8608 60.0319 45.0851 58.4272C43.2081 57.6204 41.6062 56.2637 40.481 54.5278C39.3558 52.7919 38.7577 50.7544 38.7617 48.6715V41.5332H75.2336Z" fill="#006EE5"/>
<path d="M61.7729 60.4794C56.1317 61.3802 50.3569 60.6701 45.0851 58.4272C43.2081 57.6204 41.6062 56.2637 40.481 54.5278C39.3558 52.7919 38.7577 50.7544 38.7617 48.6715V41.5332H48.3122V48.6715C48.3093 50.756 48.9096 52.7948 50.0375 54.5309C51.1654 56.267 52.7703 57.6227 54.6501 58.4272C56.9351 59.4017 59.3266 60.0908 61.7729 60.4794Z" fill="#0062BA"/>
<path d="M75.2336 41.5332V44.4034L60.3047 52.4935C59.2852 53.0431 58.1501 53.3303 56.9977 53.3303C55.8452 53.3303 54.7102 53.0431 53.6906 52.4935L38.7617 44.4034V41.5332H75.2336Z" fill="#0062BA"/>
<path d="M84.2331 29.77L60.3061 16.8467C59.2885 16.2908 58.1527 16 56.9991 16C55.8455 16 54.7097 16.2908 53.692 16.8467L29.7651 29.77C29.1564 30.0982 28.6468 30.5903 28.2914 31.1931C27.9359 31.7958 27.748 32.4864 27.748 33.1904C27.748 33.8944 27.9359 34.585 28.2914 35.1877C28.6468 35.7905 29.1564 36.2826 29.7651 36.6108L53.692 49.5787C54.7097 50.1346 55.8455 50.4254 56.9991 50.4254C58.1527 50.4254 59.2885 50.1346 60.3061 49.5787L84.2331 36.6554C84.8529 36.3312 85.3732 35.8382 85.7365 35.2307C86.0998 34.6232 86.2921 33.9249 86.2921 33.2127C86.2921 32.5005 86.0998 31.8022 85.7365 31.1947C85.3732 30.5872 84.8529 30.0942 84.2331 29.77Z" fill="#006EE5"/>
<path d="M67.6468 63.497C67.3846 63.497 67.1332 63.3905 66.9478 63.2008C66.7624 63.0112 66.6583 62.754 66.6583 62.4858V46.038L56.2502 33.9029C56.1551 33.8021 56.0815 33.6823 56.034 33.5509C55.9865 33.4195 55.9662 33.2795 55.9744 33.1397C55.9826 32.9999 56.0191 32.8633 56.0816 32.7387C56.1441 32.6141 56.2312 32.5041 56.3374 32.4157C56.4369 32.3204 56.5543 32.2469 56.6825 32.1996C56.8107 32.1523 56.947 32.1322 57.083 32.1405C57.219 32.1489 57.352 32.1855 57.4737 32.2481C57.5955 32.3108 57.7034 32.3982 57.7911 32.505L68.4317 44.9226C68.5888 45.1088 68.6763 45.3459 68.6789 45.5918V62.4858C68.677 62.6218 68.6487 62.7561 68.5956 62.8809C68.5425 63.0056 68.4658 63.1183 68.3697 63.2124C68.2737 63.3065 68.1603 63.3801 68.0362 63.429C67.9121 63.4779 67.7797 63.501 67.6468 63.497Z" fill="#EAB14D"/>
<path d="M66.2371 62.7103L64.2456 66.22C63.9677 66.7153 63.8221 67.2766 63.8232 67.8476C63.8244 68.4186 63.9723 68.9793 64.252 69.4734C64.5318 69.9676 64.9337 70.3777 65.4173 70.6628C65.9009 70.9479 66.4493 71.0979 67.0075 71.0978H68.2867C68.8436 71.0954 69.3902 70.9434 69.8718 70.6573C70.3534 70.3711 70.7532 69.9607 71.0313 69.467C71.3093 68.9733 71.4559 68.4137 71.4564 67.8439C71.4569 67.2741 71.3113 66.7142 71.0341 66.22L69.0426 62.7103C68.8988 62.4605 68.6937 62.2535 68.4477 62.1096C68.2016 61.9658 67.9232 61.8901 67.6398 61.8901C67.3565 61.8901 67.078 61.9658 66.832 62.1096C66.5859 62.2535 66.3809 62.4605 66.2371 62.7103Z" fill="#F4DD45"/>
<path d="M56.135 77.7007H31.4231C31.0941 77.6968 30.7798 77.5603 30.5485 77.3209C30.3172 77.0815 30.1875 76.7584 30.1875 76.4218C30.1875 76.0865 30.3177 75.765 30.5494 75.528C30.7811 75.2909 31.0954 75.1577 31.4231 75.1577H56.135C56.4627 75.1577 56.777 75.2909 57.0087 75.528C57.2404 75.765 57.3706 76.0865 57.3706 76.4218C57.3706 76.7584 57.2409 77.0815 57.0096 77.3209C56.7783 77.5603 56.4641 77.6968 56.135 77.7007Z" fill="#ED1C24"/>
<path d="M47.9235 72.3755H31.3665C31.0374 72.3716 30.7232 72.2352 30.4919 71.9957C30.2606 71.7563 30.1308 71.4332 30.1309 71.0966C30.1309 70.7613 30.261 70.4398 30.4928 70.2028C30.7245 69.9657 31.0388 69.8325 31.3665 69.8325H47.9235C48.2512 69.8325 48.5654 69.9657 48.7971 70.2028C49.0289 70.4398 49.159 70.7613 49.159 71.0966C49.1591 71.4332 49.0294 71.7563 48.798 71.9957C48.5667 72.2352 48.2525 72.3716 47.9235 72.3755Z" fill="#ED1C24"/>
</svg>
