<svg width="114" height="114" viewBox="0 0 114 114" fill="none" xmlns="http://www.w3.org/2000/svg">
<path d="M97.9991 23.0543V67.2986C97.9991 69.1695 97.2566 70.9638 95.9347 72.2867C94.6129 73.6097 92.8202 74.3529 90.9508 74.3529H23.0756C21.2063 74.3529 19.4136 73.6097 18.0917 72.2867C16.7699 70.9638 16.0273 69.1695 16.0273 67.2986V23.0543C16.0273 21.1834 16.7699 19.3891 18.0917 18.0661C19.4136 16.7432 21.2063 16 23.0756 16H90.9649C92.8318 16.0037 94.621 16.7486 95.9397 18.0711C97.2585 19.3937 97.9991 21.1858 97.9991 23.0543Z" fill="#ECEFF1"/>
<path opacity="0.46" d="M98 23.0543L26.8403 23.28C25.8357 23.2837 24.8734 23.6848 24.1631 24.3957C23.4527 25.1066 23.052 26.0698 23.0483 27.0752C23.0483 39.2085 23.0483 74.4093 23.0483 74.4093C21.179 74.4093 19.3862 73.6661 18.0644 72.3432C16.7426 71.0202 16 69.226 16 67.355V23.0543C16 21.1834 16.7426 19.3891 18.0644 18.0661C19.3862 16.7432 21.179 16 23.0483 16H90.9658C92.8327 16.0037 94.6218 16.7486 95.9406 18.0711C97.2594 19.3937 98 21.1858 98 23.0543Z" fill="#D2D9DC"/>
<path d="M73.5256 83.9191L56.9762 87.7002L40.4268 83.9191L42.6681 74.4099L56.2432 69.4155L71.2279 74.4099L71.9609 77.4997L73.5256 83.9191Z" fill="#0062BA"/>
<path d="M97.9991 66.437V67.2694C97.9991 69.1403 97.2566 70.9346 95.9347 72.2575C94.6129 73.5805 92.8202 74.3237 90.9508 74.3237H23.0756C21.2063 74.3237 19.4136 73.5805 18.0917 72.2575C16.7699 70.9346 16.0273 69.1403 16.0273 67.2694V66.437H97.9991Z" fill="#006EE5"/>
<path d="M73.53 83.9194H48.2266L49.7208 77.5H71.9935L73.53 83.9194Z" fill="#3C3F4D"/>
<path d="M83.2844 89.2092V91.4665H30.6758V89.2092C30.6758 88.5132 30.813 87.8241 31.0795 87.1813C31.3461 86.5384 31.7367 85.9546 32.2291 85.4631C32.7214 84.9716 33.3058 84.5822 33.9488 84.3172C34.5918 84.0521 35.2807 83.9166 35.9761 83.9185H77.9981C79.4001 83.9185 80.7447 84.4759 81.736 85.4681C82.7274 86.4603 83.2844 87.806 83.2844 89.2092Z" fill="#0062BA"/>
<path d="M89.1906 74.41H52.0742L53.9491 56.8872H87.4144L89.1906 74.41Z" fill="#D5D8DB"/>
<path d="M54.3171 37.1198L53.9506 40.4777L52.5409 51.1861C52.4209 52.1187 51.9653 52.9755 51.2596 53.5962C50.5538 54.2169 49.6462 54.5588 48.7066 54.558H31.8753C30.9366 54.5558 30.0306 54.2128 29.3254 53.5927C28.6203 52.9726 28.1639 52.1175 28.041 51.1861L26.1943 37.0775L40.2909 33.3105L54.3171 37.1198Z" fill="#39B54A"/>
<path d="M53.9463 40.4788L52.5366 51.1872C52.4166 52.1198 51.9611 52.9767 51.2553 53.5974C50.5495 54.218 49.6419 54.56 48.7024 54.5591H37.2277C36.289 54.557 35.383 54.214 34.6779 53.5939C33.9727 52.9737 33.5163 52.1186 33.3934 51.1872L32.4349 43.8649C32.3786 43.434 32.415 42.9961 32.5417 42.5804C32.6684 42.1648 32.8825 41.7811 33.1695 41.4551C33.4566 41.1291 33.8099 40.8683 34.206 40.6901C34.602 40.512 35.0315 40.4207 35.4656 40.4224L53.9463 40.4788Z" fill="#80D261"/>
<path d="M56.244 33.3408V35.4006C56.244 35.8609 56.0613 36.3022 55.7362 36.6277C55.411 36.9531 54.97 37.136 54.5101 37.136H26.0068C25.7779 37.1378 25.5509 37.0943 25.3389 37.0079C25.1269 36.9216 24.9341 36.794 24.7716 36.6327C24.6091 36.4714 24.4801 36.2794 24.3921 36.068C24.3041 35.8565 24.2588 35.6297 24.2588 35.4006V33.3408C24.2588 32.8768 24.443 32.4318 24.7708 32.1037C25.0986 31.7756 25.5432 31.5913 26.0068 31.5913H54.5101C54.9713 31.595 55.4123 31.781 55.737 32.1087C56.0618 32.4364 56.244 32.8792 56.244 33.3408Z" fill="#39B54A"/>
<path d="M56.2464 33.3408V35.4006C56.2464 35.8609 56.0637 36.3022 55.7385 36.6277C55.4133 36.9531 54.9723 37.136 54.5125 37.136H32.705C32.2439 37.136 31.8014 36.9536 31.474 36.6286C31.1466 36.3035 30.9608 35.8621 30.957 35.4006V33.3408C30.9607 32.8779 31.1461 32.4351 31.4731 32.1078C31.8001 31.7805 32.2426 31.595 32.705 31.5913H54.5125C54.9736 31.595 55.4146 31.781 55.7394 32.1087C56.0641 32.4364 56.2464 32.8792 56.2464 33.3408Z" fill="#80D261"/>
<path d="M40.2588 23.7168C39.511 23.7168 38.7939 24.0141 38.2652 24.5433C37.7365 25.0724 37.4395 25.7901 37.4395 26.5385V40.1109C37.4395 40.8593 37.7365 41.577 38.2652 42.1062C38.7939 42.6353 39.511 42.9326 40.2588 42.9326C41.0065 42.9326 41.7236 42.6353 42.2523 42.1062C42.7811 41.577 43.0781 40.8593 43.0781 40.1109V26.5667C43.0818 26.1938 43.0117 25.8238 42.8716 25.4782C42.7316 25.1326 42.5245 24.8182 42.2624 24.5532C42.0002 24.2882 41.6881 24.0778 41.3442 23.9343C41.0003 23.7907 40.6314 23.7168 40.2588 23.7168Z" fill="#006EE5"/>
<path d="M89.0645 74.4083H51.9199L52.7375 66.437H88.2469L89.0645 74.4083Z" fill="#2D303B"/>
<path d="M89.5843 56.8872H56.0766L51.8477 97.9995H93.8556L89.5843 56.8872Z" fill="#E30E08"/>
<path d="M69.93 70.1782H46.6283L43.668 98.0002H72.8902L69.93 70.1782Z" fill="#FFC344"/>
<path d="M81.873 62.206C81.5403 62.206 81.2211 62.0737 80.9859 61.8382C80.7506 61.6027 80.6184 61.2834 80.6184 60.9503V52.6122C80.6631 51.5607 80.4948 50.5109 80.1235 49.5262C79.7523 48.5415 79.1858 47.6421 78.4582 46.8822C77.7305 46.1223 76.8568 45.5176 75.8896 45.1045C74.9224 44.6914 73.8816 44.4785 72.83 44.4785C71.7784 44.4785 70.7377 44.6914 69.7704 45.1045C68.8032 45.5176 67.9295 46.1223 67.2019 46.8822C66.4742 47.6421 65.9078 48.5415 65.5365 49.5262C65.1653 50.5109 64.9969 51.5607 65.0416 52.6122V60.908C65.0416 61.241 64.9095 61.5604 64.6742 61.7959C64.4389 62.0314 64.1198 62.1637 63.787 62.1637C63.4543 62.1637 63.1352 62.0314 62.8999 61.7959C62.6646 61.5604 62.5324 61.241 62.5324 60.908V52.6122C62.4812 51.2267 62.7096 49.845 63.2041 48.5499C63.6985 47.2547 64.4488 46.0726 65.41 45.0743C66.3713 44.076 67.5238 43.2818 68.7987 42.7394C70.0736 42.197 71.4447 41.9175 72.83 41.9175C74.2153 41.9175 75.5864 42.197 76.8613 42.7394C78.1362 43.2818 79.2887 44.076 80.25 45.0743C81.2113 46.0726 81.9615 47.2547 82.456 48.5499C82.9504 49.845 83.1788 51.2267 83.1276 52.6122V60.908C83.1333 61.0764 83.105 61.2443 83.0445 61.4015C82.984 61.5588 82.8925 61.7023 82.7754 61.8234C82.6583 61.9445 82.5181 62.0408 82.3631 62.1065C82.208 62.1723 82.0414 62.2061 81.873 62.206Z" fill="white"/>
<path d="M58.2776 87.3189C56.5141 87.3152 54.8239 86.6124 53.5769 85.3644C52.3299 84.1163 51.6277 82.4247 51.624 80.6597V75.2561C51.624 74.9231 51.7562 74.6037 51.9915 74.3683C52.2268 74.1328 52.5459 74.0005 52.8786 74.0005C53.2114 74.0005 53.5305 74.1328 53.7658 74.3683C54.001 74.6037 54.1332 74.9231 54.1332 75.2561V80.6597C54.1332 81.7598 54.5699 82.8148 55.3471 83.5927C56.1243 84.3706 57.1785 84.8076 58.2776 84.8076C59.3768 84.8076 60.4309 84.3706 61.2082 83.5927C61.9854 82.8148 62.422 81.7598 62.422 80.6597V75.2561C62.455 74.9443 62.6022 74.6556 62.8351 74.4459C63.068 74.2361 63.3703 74.12 63.6837 74.12C63.997 74.12 64.2993 74.2361 64.5322 74.4459C64.7652 74.6556 64.9123 74.9443 64.9453 75.2561V80.6597C64.9416 82.4271 64.2375 84.1209 62.9874 85.3694C61.7374 86.6178 60.0436 87.3189 58.2776 87.3189Z" fill="#2F3639"/>
<path d="M68.8486 30.0209H63.4919C63.1592 30.0209 62.84 29.8887 62.6048 29.6535C62.3695 29.4182 62.2373 29.0991 62.2373 28.7663C62.2373 28.4336 62.3695 28.1145 62.6048 27.8792C62.84 27.6439 63.1592 27.5117 63.4919 27.5117H68.8486C69.1814 27.5117 69.5005 27.6439 69.7358 27.8792C69.971 28.1145 70.1032 28.4336 70.1032 28.7663C70.1032 29.0991 69.971 29.4182 69.7358 29.6535C69.5005 29.8887 69.1814 30.0209 68.8486 30.0209Z" fill="#E30E08"/>
<path d="M91.784 30.0209H74.3747C74.042 30.0209 73.7229 29.8887 73.4876 29.6535C73.2523 29.4182 73.1201 29.0991 73.1201 28.7663C73.1201 28.4336 73.2523 28.1145 73.4876 27.8792C73.7229 27.6439 74.042 27.5117 74.3747 27.5117H91.784C92.1168 27.5117 92.4359 27.6439 92.6712 27.8792C92.9065 28.1145 93.0386 28.4336 93.0386 28.7663C93.0386 29.0991 92.9065 29.4182 92.6712 29.6535C92.4359 29.8887 92.1168 30.0209 91.784 30.0209Z" fill="#006EE5"/>
<path d="M68.8486 35.8896H63.4919C63.1592 35.8896 62.84 35.7574 62.6048 35.5221C62.3695 35.2868 62.2373 34.9677 62.2373 34.635C62.2373 34.3022 62.3695 33.9831 62.6048 33.7478C62.84 33.5126 63.1592 33.3804 63.4919 33.3804H68.8486C69.1814 33.3804 69.5005 33.5126 69.7358 33.7478C69.971 33.9831 70.1032 34.3022 70.1032 34.635C70.1032 34.9677 69.971 35.2868 69.7358 35.5221C69.5005 35.7574 69.1814 35.8896 68.8486 35.8896Z" fill="#E30E08"/>
<path d="M91.784 35.8896H74.3747C74.042 35.8896 73.7229 35.7574 73.4876 35.5221C73.2523 35.2868 73.1201 34.9677 73.1201 34.635C73.1201 34.3022 73.2523 33.9831 73.4876 33.7478C73.7229 33.5126 74.042 33.3804 74.3747 33.3804H91.784C91.9488 33.3804 92.1119 33.4128 92.2641 33.4759C92.4164 33.5389 92.5547 33.6313 92.6712 33.7478C92.7877 33.8643 92.8801 34.0026 92.9431 34.1549C93.0062 34.3071 93.0386 34.4702 93.0386 34.635C93.0386 34.7997 93.0062 34.9629 92.9431 35.1151C92.8801 35.2673 92.7877 35.4056 92.6712 35.5221C92.5547 35.6386 92.4164 35.731 92.2641 35.7941C92.1119 35.8571 91.9488 35.8896 91.784 35.8896Z" fill="#006EE5"/>
</svg>
