<svg width="114" height="114" viewBox="0 0 114 114" fill="none" xmlns="http://www.w3.org/2000/svg">
<path d="M95.603 77.4846H17.8319C17.3463 77.4846 16.8806 77.2884 16.5372 76.9393C16.1939 76.5902 16.001 76.1167 16.001 75.623V69.394H97.9269V75.1218C97.9269 75.7485 97.682 76.3494 97.2462 76.7925C96.8104 77.2356 96.2193 77.4846 95.603 77.4846Z" fill="#0062BA"/>
<path d="M95.6021 77.485H74.1523V44.6504H87.7433C88.0943 44.6509 88.4418 44.7221 88.7657 44.8597C89.0896 44.9973 89.3835 45.1987 89.6305 45.4523L97.1654 53.2134C97.6545 53.7166 97.9279 54.3962 97.9259 55.1036V75.1509C97.9185 75.7726 97.6704 76.3662 97.2354 76.8031C96.8004 77.24 96.2135 77.485 95.6021 77.485Z" fill="#006EE5"/>
<path d="M97.169 53.2134L89.6341 45.395C89.3871 45.1414 89.0932 44.94 88.7693 44.8024C88.4454 44.6648 88.0979 44.5936 87.7469 44.5931H78.6064C78.9693 44.584 79.3301 44.6505 79.6668 44.7884C80.0034 44.9263 80.3088 45.1327 80.5641 45.395L88.099 53.1562C88.592 53.6579 88.8703 54.3371 88.8736 55.0463V77.485H95.6761C96.2924 77.485 96.8835 77.2361 97.3193 76.793C97.7551 76.3499 97.9999 75.7489 97.9999 75.1223V55.075C97.976 54.3672 97.6772 53.6978 97.169 53.2134Z" fill="#0062BA"/>
<path d="M78.688 60.9322V50.7224C78.688 50.4262 78.8037 50.1421 79.0098 49.9326C79.2158 49.7231 79.4952 49.6055 79.7865 49.6055H86.4905C86.7811 49.6082 87.0591 49.7264 87.2651 49.9348L93.0676 55.9204C93.1706 56.02 93.2525 56.14 93.3082 56.2729C93.3639 56.4059 93.3923 56.5491 93.3916 56.6936V60.9895C93.3916 61.1355 93.3631 61.28 93.3077 61.4147C93.2523 61.5495 93.1712 61.6717 93.069 61.7742C92.9668 61.8768 92.8455 61.9577 92.7123 62.0123C92.5791 62.0668 92.4366 62.094 92.293 62.0921H79.7865C79.6381 62.0942 79.4908 62.0654 79.3537 62.0073C79.2167 61.9492 79.0928 61.8631 78.9898 61.7544C78.8868 61.6457 78.8069 61.5166 78.755 61.3751C78.7031 61.2337 78.6803 61.0829 78.688 60.9322Z" fill="#83DFFF"/>
<path d="M85.505 83.9999C89.472 83.9999 92.6878 80.7303 92.6878 76.697C92.6878 72.6637 89.472 69.394 85.505 69.394C81.5381 69.394 78.3223 72.6637 78.3223 76.697C78.3223 80.7303 81.5381 83.9999 85.505 83.9999Z" fill="#495256"/>
<path d="M85.505 79.5184C87.0373 79.5184 88.2795 78.2554 88.2795 76.6974C88.2795 75.1394 87.0373 73.8765 85.505 73.8765C83.9727 73.8765 82.7305 75.1394 82.7305 76.6974C82.7305 78.2554 83.9727 79.5184 85.505 79.5184Z" fill="#9AA7AD"/>
<path d="M16.001 72.8602H74.1533V31.3337C74.1533 30.9805 74.0153 30.6417 73.7696 30.392C73.524 30.1423 73.1909 30.002 72.8435 30.002H17.3108C16.9634 30.002 16.6302 30.1423 16.3846 30.392C16.139 30.6417 16.001 30.9805 16.001 31.3337V72.8602Z" fill="#FFC06C"/>
<path d="M72.8446 30.0012H65.0703V72.8595H74.2107V31.3329C74.2109 31.1531 74.1753 30.9752 74.1059 30.8097C74.0366 30.6443 73.9351 30.4949 73.8074 30.3704C73.6798 30.246 73.5286 30.1491 73.3632 30.0857C73.1977 30.0222 73.0213 29.9935 72.8446 30.0012Z" fill="#EDA558"/>
<path d="M30.3507 83.9999C34.3177 83.9999 37.5335 80.7303 37.5335 76.697C37.5335 72.6637 34.3177 69.394 30.3507 69.394C26.3838 69.394 23.168 72.6637 23.168 76.697C23.168 80.7303 26.3838 83.9999 30.3507 83.9999Z" fill="#495256"/>
<path d="M30.3526 79.5184C31.885 79.5184 33.1272 78.2554 33.1272 76.6974C33.1272 75.1394 31.885 73.8765 30.3526 73.8765C28.8203 73.8765 27.5781 75.1394 27.5781 76.6974C27.5781 78.2554 28.8203 79.5184 30.3526 79.5184Z" fill="#9AA7AD"/>
<path d="M50.6067 45.3941H38.9312C38.8017 45.3941 38.6735 45.3682 38.5539 45.3178C38.4343 45.2675 38.3256 45.1936 38.2341 45.1005C38.1425 45.0075 38.0699 44.897 38.0204 44.7754C37.9708 44.6537 37.9453 44.5234 37.9453 44.3918V30.0723H51.5926V44.3918C51.5889 44.6565 51.4839 44.9093 51.2998 45.0964C51.1157 45.2836 50.867 45.3904 50.6067 45.3941Z" fill="#E30E08"/>
<path d="M54.7168 67.3309H67.6458C67.8187 67.3498 67.9936 67.3314 68.159 67.277C68.3245 67.2226 68.4768 67.1334 68.6062 67.0153C68.7355 66.8971 68.8389 66.7526 68.9097 66.5911C68.9805 66.4296 69.0171 66.2548 69.0171 66.078C69.0171 65.9012 68.9805 65.7264 68.9097 65.5649C68.8389 65.4034 68.7355 65.2589 68.6062 65.1407C68.4768 65.0225 68.3245 64.9334 68.159 64.879C67.9936 64.8246 67.8187 64.8062 67.6458 64.825H54.7168C54.4127 64.8581 54.1314 65.0044 53.9269 65.2357C53.7225 65.467 53.6094 65.767 53.6094 66.078C53.6094 66.389 53.7225 66.689 53.9269 66.9203C54.1314 67.1516 54.4127 67.2978 54.7168 67.3309Z" fill="#ECEFF1"/>
<path d="M54.7168 60.0863H67.6458C67.8187 60.1051 67.9936 60.0868 68.159 60.0324C68.3245 59.978 68.4768 59.8888 68.6062 59.7706C68.7355 59.6524 68.8389 59.5079 68.9097 59.3464C68.9805 59.185 69.0171 59.0102 69.0171 58.8334C69.0171 58.6566 68.9805 58.4817 68.9097 58.3203C68.8389 58.1588 68.7355 58.0143 68.6062 57.8961C68.4768 57.7779 68.3245 57.6887 68.159 57.6344C67.9936 57.58 67.8187 57.5616 67.6458 57.5804H54.7168C54.4127 57.6135 54.1314 57.7598 53.9269 57.9911C53.7225 58.2224 53.6094 58.5224 53.6094 58.8334C53.6094 59.1443 53.7225 59.4443 53.9269 59.6756C54.1314 59.9069 54.4127 60.0532 54.7168 60.0863Z" fill="#ECEFF1"/>
</svg>
