<svg width="114" height="114" viewBox="0 0 114 114" fill="none" xmlns="http://www.w3.org/2000/svg">
<g clip-path="url(#clip0_18103_25123)">
<path d="M56.9996 74.3226C53.927 75.5027 50.9211 78.464 49.652 81.4476C48.5164 78.7312 46.0227 74.6566 43.8184 72.1406C44.9316 71.7398 46.0672 71.4281 47.2027 71.1609C50.0305 73.1648 53.3926 74.3226 56.9996 74.3226Z" fill="#F9D171"/>
<path d="M57 74.3226C60.0727 75.5027 63.0785 78.464 64.3477 81.4476C65.4832 78.7312 67.977 74.6566 70.1813 72.1406C69.068 71.7398 67.9324 71.4281 66.7969 71.1609C63.9691 73.1648 60.607 74.3226 57 74.3226Z" fill="#F9D171"/>
<path d="M85.0547 82.4273C84.4313 83.1398 83.7633 83.8078 83.073 84.4535C79.7777 82.0042 75.3246 80.0894 70.1813 78.8648C68.1105 80.4902 65.5055 83.4515 64.3477 85.4109C62.8781 83.0285 59.6719 81.1136 57 80.4011C54.3281 81.1136 51.1219 83.0285 49.6523 85.4109C48.4945 83.4738 45.8895 80.5125 43.8188 78.8648C38.6754 80.0894 34.2223 82.0042 30.927 84.4535C30.2367 83.8078 29.5687 83.1398 28.9453 82.4273C32.352 77.8851 37.5621 74.2558 43.8188 72.1628C46.023 74.6789 48.5168 78.7535 49.6523 81.4476C50.9438 78.4417 53.9051 75.5249 57 74.3226C60.0949 75.5249 63.0563 78.4417 64.3477 81.4476C65.4832 78.7312 67.977 74.6566 70.1813 72.1628C76.4379 74.2558 81.648 77.8851 85.0547 82.4273Z" fill="#ED1C24"/>
<path d="M83.0738 84.4534C68.9797 98.2804 45.0219 98.2804 30.9277 84.4534C34.223 82.0042 38.6762 80.0894 43.8195 78.8647C45.8902 80.5124 48.4953 83.4737 49.6531 85.4108C51.1227 83.0284 54.3289 81.1136 57.0008 80.4011C59.6727 81.1136 62.8789 83.0284 64.3484 85.4108C65.5063 83.4515 68.1113 80.5124 70.182 78.8647C75.3254 80.0671 79.7563 82.0042 83.0738 84.4534Z" fill="#E30E08"/>
<path d="M111.907 47.3813H103.535C102.311 41.4363 99.9727 35.8699 96.6996 30.9492L102.645 25.0266C103.357 24.2918 103.357 23.0895 102.645 22.3547L91.6453 11.4C90.9105 10.6652 89.7305 10.6652 89.018 11.4L83.0731 17.3227C78.1523 14.0719 72.5859 11.734 66.6188 10.4871V2.09297C66.6188 1.06875 65.7727 0.222656 64.7484 0.222656H49.2293C48.1828 0.222656 47.3367 1.06875 47.3367 2.09297V10.4648C41.4586 11.6449 35.8031 14.0719 30.9047 17.3004L24.982 11.3777C24.2695 10.643 23.0672 10.643 22.3547 11.3777L11.3555 22.3547C10.643 23.0895 10.643 24.2695 11.3555 25.0266L17.3004 30.9492C14.0051 35.8477 11.6672 41.5254 10.4648 47.3813H2.0707C1.04648 47.3813 0.222656 48.2273 0.222656 49.2516V64.7707C0.222656 65.8172 1.04648 66.641 2.09297 66.641H10.4648C11.6895 72.6082 14.0273 78.1523 17.3004 83.1176L11.3555 89.018C10.643 89.7305 10.643 90.9105 11.3555 91.6898L22.3547 102.645C23.0672 103.379 24.2695 103.379 24.982 102.645L30.9047 96.6996C35.8254 99.9504 41.3918 102.311 47.3367 103.535V111.885C47.3367 112.931 48.1828 113.777 49.2293 113.777H64.7484C65.7727 113.777 66.6188 112.954 66.6188 111.907V103.535C72.5859 102.333 78.1523 99.9727 83.0731 96.6996L89.018 102.645C89.7305 103.379 90.9105 103.379 91.6453 102.645L102.645 91.6898C103.357 90.9328 103.357 89.7527 102.645 89.018L96.6996 83.0953C99.9504 78.1523 102.288 72.6082 103.535 66.6188H111.907C112.954 66.6188 113.777 65.7949 113.777 64.7484V49.2516C113.777 48.2273 112.931 47.3813 111.907 47.3813ZM85.0547 82.4273C70.7156 98.9039 43.2844 98.9039 28.9676 82.4273C7.08047 58.6031 24.2473 19.0148 57 19.1484C89.7527 19.0148 106.92 58.6031 85.0547 82.4273Z" fill="#54CC5A"/>
<path d="M74.968 56.0203C74.3891 66.4851 65.5051 75.6808 54.7285 74.1667C63.7238 73.0089 70.3144 64.7261 70.9824 55.7976C72.3184 55.9535 73.8547 56.0425 74.968 56.0203Z" fill="#F9EFB7"/>
<path d="M70.9828 55.7977C70.3148 64.7262 63.7242 73.009 54.7289 74.1668C46.0453 73.0536 39.7664 65.0157 39.0762 56.4434C39.143 56.577 39.1875 56.7106 39.2766 56.8665C43.7965 55.0184 48.3609 51.1219 50.8102 46.8469C55.2633 50.9661 63.1453 55.0629 70.9828 55.7977Z" fill="#FFF8C5"/>
<path d="M76.6598 48.3386C76.6598 50.9436 76.1699 53.6378 75.1012 56.0425C74.0992 56.0425 73.0305 56.0202 71.7168 55.9089C71.4719 55.8421 71.2047 55.8644 70.9375 55.8198C75.9918 43.8632 67.6422 30.2144 54.9062 28.7671C66.1504 27.3198 76.8379 37.0276 76.6598 48.3386Z" fill="#848484"/>
<path d="M72.4067 48.3386C72.4067 50.8546 71.9613 53.4597 70.9371 55.7976C63.1442 55.0406 55.2176 50.9214 50.7867 46.8468C48.3375 51.1218 43.7508 55.0183 39.2531 56.8664C33.3528 44.9988 41.7246 30.0363 54.9059 28.7449C64.5469 29.7691 72.5403 38.5195 72.4067 48.3386Z" fill="#939393"/>
<path d="M40.1449 61.4752C36.8941 63.2788 32.6859 60.6959 32.7527 56.9776C32.7527 54.2389 34.9348 52.0124 37.6512 51.9456C37.9184 53.4819 38.4082 55.0182 39.0539 56.4432C39.232 58.2022 39.6106 59.8499 40.1449 61.4752Z" fill="#EDE1A6"/>
<path d="M81.7363 56.9777C81.7586 60.9633 77.2609 63.3902 73.9434 61.2527C74.5 59.5828 74.834 57.8683 74.9676 56.0203H75.1012C75.6578 54.7289 76.1031 53.3261 76.348 51.9234C79.2426 51.723 81.7363 54.1054 81.7363 56.9777Z" fill="#EDE1A6"/>
</g>
<defs>
<clipPath id="clip0_18103_25123">
<rect width="114" height="114" fill="white"/>
</clipPath>
</defs>
</svg>
