<svg width="115" height="114" viewBox="0 0 115 114" fill="none" xmlns="http://www.w3.org/2000/svg">
<path fill-rule="evenodd" clip-rule="evenodd" d="M100.584 1.66992C102.158 2.0902 103.308 3.05504 104.035 4.56445C104.184 15.6231 104.184 26.6816 104.035 37.7402C103.496 39.5041 102.346 40.6174 100.584 41.0801C90.3258 41.007 80.0836 41.0812 69.8574 41.3027C68.4874 41.046 67.0773 41.0088 65.627 41.1914C62.3265 44.7069 58.9497 48.1581 55.4961 51.5449C55.3928 51.6772 55.3556 51.8257 55.3848 51.9902C51.7187 48.4355 48.0819 44.8358 44.4746 41.1914C32.8223 41.1173 21.1699 41.0429 9.51758 40.9688C7.84766 40.4863 6.7715 39.4102 6.28907 37.7402C6.14062 26.8301 6.14062 15.9199 6.28907 5.00977C6.75649 3.42928 7.75844 2.3531 9.29493 1.78125C39.7245 1.66992 70.1542 1.63281 100.584 1.66992Z" fill="#0054A6"/>
<path opacity="0.999" fill-rule="evenodd" clip-rule="evenodd" d="M100.584 1.66987C102.458 1.57954 104.314 1.69087 106.15 2.00386C107.09 2.57208 107.795 3.35137 108.266 4.34175C108.522 10.006 108.634 15.6837 108.6 21.375C108.634 27.066 108.522 32.7438 108.266 38.4082C107.783 39.4843 107.004 40.2635 105.928 40.746C104.165 41.058 102.384 41.1693 100.584 41.08C102.346 40.6174 103.496 39.5041 104.035 37.7402C104.184 26.6815 104.184 15.623 104.035 4.56441C103.308 3.055 102.157 2.09015 100.584 1.66987Z" fill="#0054A6"/>
<path fill-rule="evenodd" clip-rule="evenodd" d="M28.4442 11.0215C29.2874 10.8689 29.9926 11.0915 30.5595 11.6895C31.3561 13.3574 32.2098 14.9902 33.12 16.5879C35.0894 17.139 37.0933 17.5472 39.1317 17.8126C40.0544 18.4183 40.2399 19.1976 39.6884 20.1504C38.5081 21.5537 37.2463 22.8896 35.9032 24.1583C35.9411 26.0949 36.1265 28.0247 36.4599 29.9473C36.3202 31.312 35.5779 31.8686 34.2333 31.6172C32.5262 30.7638 30.8193 29.9101 29.1122 29.0567C27.4051 29.9101 25.6982 30.7638 23.9911 31.6172C23.2216 31.8673 22.5907 31.6818 22.0985 31.0606C22.0594 28.7407 22.2078 26.44 22.5438 24.1583C21.2079 22.8223 19.872 21.4864 18.536 20.1504C18.0349 19.2228 18.2204 18.4435 19.0927 17.8126C21.1016 17.4654 23.1054 17.0943 25.1044 16.6993C26.1393 14.7377 27.2526 12.8451 28.4442 11.0215Z" fill="#FEFEFD"/>
<path fill-rule="evenodd" clip-rule="evenodd" d="M56.4977 11.0215C57.2785 10.9087 57.9837 11.0572 58.6129 11.4668C59.569 13.1933 60.4968 14.9374 61.3961 16.6992C63.3849 17.1421 65.3888 17.5131 67.4078 17.8125C68.3305 18.4182 68.516 19.1975 67.9645 20.1504C66.4177 21.547 65.0448 23.0685 63.8453 24.7149C64.2283 26.407 64.5251 28.1142 64.736 29.836C64.6491 31.2594 63.907 31.853 62.5094 31.6172C60.8023 30.7638 59.0954 29.9101 57.3883 29.0567C55.6342 29.9709 53.853 30.8243 52.0445 31.6172C51.113 31.8766 50.4822 31.5426 50.152 30.6153C50.3212 28.4651 50.4697 26.3126 50.5973 24.1582C49.417 22.755 48.1552 21.4191 46.8121 20.1504C46.1945 18.832 46.6026 17.9784 48.0367 17.5899C49.8166 17.2935 51.5979 16.9966 53.3805 16.6992C54.3375 14.747 55.3766 12.8545 56.4977 11.0215Z" fill="#FEFEFD"/>
<path fill-rule="evenodd" clip-rule="evenodd" d="M84.775 11.0214C85.5113 10.9242 86.1793 11.0726 86.7789 11.4667C87.7154 13.2288 88.6804 14.9729 89.6735 16.6992C91.5927 17.118 93.5225 17.4891 95.4625 17.8124C95.7811 17.916 96.0408 18.1016 96.2418 18.3691C96.3903 18.9628 96.3903 19.5566 96.2418 20.1503C94.9059 21.4863 93.5699 22.8222 92.234 24.1581C92.3968 25.9681 92.5822 27.7866 92.7906 29.6132C93.0059 31.1794 92.338 31.8474 90.7867 31.6171C89.0796 30.7637 87.3727 29.91 85.6656 29.0566C83.9116 29.9708 82.1303 30.8243 80.3219 31.6171C79.4847 31.879 78.8539 31.6194 78.4293 30.8378C78.5778 28.6113 78.7261 26.3847 78.8746 24.1581C77.6128 22.8222 76.3513 21.4863 75.0895 20.1503C74.4718 18.8319 74.8799 17.9784 76.3141 17.5898C78.1129 17.3277 79.8942 16.9937 81.6578 16.5878C82.6431 14.6903 83.6822 12.8349 84.775 11.0214Z" fill="#FEFEFD"/>
<path fill-rule="evenodd" clip-rule="evenodd" d="M69.8573 41.3027C66.0427 45.2286 62.1834 49.1251 58.2792 52.9922C57.069 53.4286 56.1042 53.0946 55.3846 51.9902C55.3555 51.8257 55.3926 51.6772 55.4959 51.5449C58.9496 48.1581 62.3264 44.7069 65.6268 41.1914C67.0772 41.0088 68.4873 41.046 69.8573 41.3027Z" fill="#0054A6"/>
<path opacity="0.991" fill-rule="evenodd" clip-rule="evenodd" d="M20.8738 58.8926C26.2222 60.4563 29.1168 64.0188 29.5574 69.5801C29.6431 74.4133 27.9363 78.4581 24.4363 81.7148C23.2805 82.4547 22.0931 83.0857 20.8738 83.6074C16.3048 82.1317 13.5216 79.0145 12.5242 74.2559C11.2548 69.9648 11.9228 66.0312 14.5281 62.4551C16.2649 60.603 18.3801 59.4156 20.8738 58.8926Z" fill="#FECBBC"/>
<path fill-rule="evenodd" clip-rule="evenodd" d="M20.873 83.6074C22.0923 83.0857 23.2797 82.4547 24.4355 81.7149C27.9355 78.4581 29.6424 74.4133 29.5566 69.5801C29.116 64.0188 26.2215 60.4563 20.873 58.8926C28.6709 58.3758 33.0497 62.0124 34.0098 69.8027C33.9704 74.6404 32.1891 78.6854 28.666 81.9375C26.2849 83.4972 23.6874 84.0539 20.873 83.6074Z" fill="#F4BCAE"/>
<path opacity="0.991" fill-rule="evenodd" clip-rule="evenodd" d="M55.3844 58.8926C62.5243 61.487 65.2334 66.5339 63.5114 74.0332C62.5836 78.1599 60.2457 81.1658 56.4977 83.0508C56.0484 83.1632 55.6031 83.2746 55.1618 83.3848C52.5845 82.7803 50.5437 81.3702 49.0387 79.1543C46.6926 75.2899 45.9503 71.1338 46.8122 66.6855C48.1554 62.4103 51.0128 59.8126 55.3844 58.8926Z" fill="#FECCBC"/>
<path fill-rule="evenodd" clip-rule="evenodd" d="M55.1621 83.3847C55.6034 83.2745 56.0487 83.1632 56.498 83.0507C60.246 81.1657 62.5839 78.1599 63.5117 74.0332C65.2337 66.5339 62.5247 61.4869 55.3848 58.8925C62.0838 58.215 66.3513 61.1095 68.1875 67.5761C68.8517 73.08 67.2559 77.7929 63.4004 81.7148C60.8839 83.5682 58.1379 84.1248 55.1621 83.3847Z" fill="#F4BCAE"/>
<path opacity="0.992" fill-rule="evenodd" clip-rule="evenodd" d="M89.8974 58.8926C96.8961 61.4567 99.6052 66.4293 98.0243 73.8105C97.2744 76.9081 95.7528 79.5431 93.4599 81.7148C92.3047 82.5151 91.0432 83.0717 89.6747 83.3848C86.7686 82.7462 84.5792 81.1132 83.1064 78.4863C80.8992 74.4473 80.3797 70.2169 81.5478 65.7949C83.0917 61.9866 85.8749 59.6859 89.8974 58.8926Z" fill="#FECBBC"/>
<path fill-rule="evenodd" clip-rule="evenodd" d="M89.6738 83.3848C91.0423 83.0718 92.3038 82.5151 93.459 81.7149C95.7519 79.5431 97.2735 76.9082 98.0234 73.8106C99.6043 66.4293 96.8952 61.4567 89.8965 58.8926C95.2155 58.2678 99.1861 60.2718 101.809 64.9043C103.605 70.4405 102.788 75.5616 99.3594 80.2676C96.7222 83.2537 93.4937 84.2926 89.6738 83.3848Z" fill="#F4BCAE"/>
<path opacity="0.998" fill-rule="evenodd" clip-rule="evenodd" d="M62.0649 84.7207C68.0344 85.4566 71.8565 88.7223 73.5317 94.5176C73.6803 98.8222 73.6803 103.127 73.5317 107.432C72.8132 110.044 71.1433 111.602 68.522 112.107C59.3928 112.145 50.2639 112.107 41.1353 111.996C40.767 111.861 40.3958 111.749 40.022 111.662C39.2195 110.971 38.4402 110.229 37.6841 109.436C37.4002 108.942 37.1775 108.422 37.0161 107.877C36.7676 105.626 36.6563 103.362 36.6821 101.086C35.8516 96.2078 37.0391 91.9401 40.2446 88.2832C42.2741 86.3043 44.7234 85.154 47.5923 84.8321C52.4159 84.7207 57.2402 84.6836 62.0649 84.7207Z" fill="#7FD3FE"/>
<path fill-rule="evenodd" clip-rule="evenodd" d="M38.0176 86.7246C35.0411 88.517 33.1485 91.1148 32.3398 94.5176C32.1279 99.0565 32.202 103.584 32.5625 108.1C33.4322 110.072 34.8795 111.408 36.9043 112.107C26.8102 112.145 16.7165 112.107 6.62305 111.996C4.4336 111.291 2.98634 109.844 2.28125 107.654C2.13281 103.201 2.13281 98.7481 2.28125 94.295C3.59679 89.3429 6.7511 86.2626 11.7441 85.0547C18.7131 84.6938 25.6895 84.6197 32.6738 84.8321C34.6247 85.0489 36.406 85.6799 38.0176 86.7246Z" fill="#2DE5A8"/>
<path fill-rule="evenodd" clip-rule="evenodd" d="M62.0645 84.7207C66.8484 84.0788 71.0789 85.2662 74.7559 88.2832C77.875 91.8965 78.9883 96.09 78.0957 100.863C78.1226 103.362 78.0113 105.848 77.7617 108.322C77.1 109.762 76.098 110.875 74.7559 111.662C72.7085 112.074 70.6303 112.223 68.5215 112.107C71.1428 111.602 72.8127 110.044 73.5312 107.432C73.6798 103.127 73.6798 98.8222 73.5312 94.5176C71.856 88.7223 68.0339 85.4566 62.0645 84.7207Z" fill="#61C2E0"/>
<path fill-rule="evenodd" clip-rule="evenodd" d="M82.1035 84.9434C87.4477 84.9062 92.7915 84.9434 98.1348 85.0547C103.52 86.2842 106.823 89.5869 108.043 94.9629C108.191 99.1192 108.191 103.275 108.043 107.432C107.153 109.993 105.409 111.552 102.811 112.107C93.6814 112.145 84.5525 112.107 75.4238 111.996C75.1484 111.944 74.9257 111.833 74.7559 111.662C76.098 110.875 77.1 109.762 77.7617 108.322C78.0113 105.848 78.1226 103.362 78.0957 100.863C78.9883 96.09 77.8751 91.8965 74.7559 88.2832C76.7742 86.2729 79.2235 85.1596 82.1035 84.9434Z" fill="#2DE5A8"/>
<path fill-rule="evenodd" clip-rule="evenodd" d="M82.1035 84.9434C85.3311 84.7949 88.5968 84.7207 91.9004 84.7207C95.6194 84.6938 99.3304 84.8051 103.033 85.0547C108.026 86.2626 111.181 89.3429 112.496 94.295C112.711 98.985 112.637 103.661 112.273 108.322C111.568 109.918 110.418 111.068 108.822 111.773C106.837 112.088 104.833 112.2 102.811 112.107C105.409 111.552 107.153 109.993 108.043 107.432C108.191 103.275 108.191 99.1192 108.043 94.9629C106.823 89.5869 103.52 86.2842 98.1348 85.0547C92.7915 84.9434 87.4477 84.9062 82.1035 84.9434Z" fill="#28D397"/>
<path fill-rule="evenodd" clip-rule="evenodd" d="M38.0182 86.7246C38.8317 87.1323 39.5739 87.6518 40.2447 88.2832C37.0391 91.9401 35.8517 96.2078 36.6822 101.086C36.6564 103.362 36.7677 105.626 37.0162 107.877C37.1776 108.422 37.4003 108.942 37.6842 109.436C38.4403 110.229 39.2196 110.971 40.0221 111.662C39.8522 111.833 39.6295 111.944 39.3541 111.996C38.541 112.107 37.7247 112.144 36.9049 112.107C34.88 111.408 33.4328 110.072 32.5631 108.1C32.2026 103.584 32.1285 99.0564 32.3404 94.5176C33.1491 91.1147 35.0417 88.517 38.0182 86.7246Z" fill="#26D395"/>
</svg>
