<svg width="16" height="16" viewBox="0 0 16 16" fill="none" xmlns="http://www.w3.org/2000/svg">
<path d="M10.216 14.5392C9.88653 14.5392 9.55803 14.4582 9.26203 14.2952C6.93353 13.0117 5.53653 11.2507 4.77453 9.9992C3.40003 7.7402 3.06253 5.5102 3.02153 4.0372C3.00153 3.3307 3.36953 2.6602 3.98203 2.2872L4.98003 1.6797C5.32253 1.4717 5.72553 1.4097 6.11453 1.5037C6.50353 1.5982 6.83303 1.8387 7.04153 2.1812L7.82153 3.4627C8.02953 3.8052 8.09203 4.2077 7.99753 4.5972C7.90303 4.9862 7.66203 5.3157 7.32003 5.5237L6.67753 5.9152C6.48353 6.0332 6.39103 6.2717 6.45653 6.4822C6.66853 7.1662 6.96553 7.8247 7.33903 8.4392C7.71103 9.0507 8.15903 9.6162 8.66953 10.1202C8.83003 10.2782 9.07953 10.3067 9.27703 10.1862L9.92053 9.7947C10.625 9.3647 11.551 9.58969 11.9815 10.2962L12.7615 11.5777C12.9695 11.9202 13.032 12.3227 12.9375 12.7122C12.843 13.1012 12.602 13.4307 12.26 13.6387L11.2635 14.2452C10.943 14.4402 10.5805 14.5382 10.218 14.5382L10.216 14.5392ZM5.75903 2.4617C5.67053 2.4617 5.58103 2.4852 5.49953 2.5347L4.50153 3.1422C4.19553 3.3287 4.01153 3.6607 4.02153 4.0097C4.05853 5.3622 4.36803 7.4087 5.62903 9.4797C6.32703 10.6272 7.60853 12.2427 9.74403 13.4197C10.053 13.5897 10.4345 13.5787 10.741 13.3922L11.738 12.7857C11.852 12.7162 11.9325 12.6067 11.9635 12.4767C11.995 12.3472 11.974 12.2127 11.905 12.0987L11.125 10.8172C10.982 10.5822 10.674 10.5062 10.438 10.6502L9.79453 11.0422C9.20453 11.4002 8.45253 11.3142 7.96553 10.8337C7.39603 10.2722 6.89753 9.6422 6.48253 8.9607C6.06653 8.2757 5.73553 7.5422 5.49953 6.7802C5.29703 6.1272 5.56653 5.4207 6.15553 5.0622L6.79803 4.6707C6.91253 4.6012 6.99303 4.4917 7.02403 4.3617C7.05553 4.2322 7.03453 4.0977 6.96553 3.9837L6.18553 2.7022C6.09153 2.5477 5.92653 2.4622 5.75803 2.4622L5.75903 2.4617Z" fill="#D2D9DC"/>
<path d="M6.15651 3.424C6.07851 3.315 5.96251 3.243 5.83051 3.2215C5.70051 3.2 5.56701 3.231 5.45901 3.308L5.12751 3.5445C4.73401 3.8255 4.49951 4.2815 4.49951 4.765V5.0005C4.49951 5.276 4.72401 5.5005 4.99951 5.5005C5.27501 5.5005 5.49951 5.276 5.49951 5.0005V4.765C5.49951 4.604 5.57801 4.452 5.70851 4.358L6.04001 4.1215C6.14851 4.044 6.22051 3.9285 6.24251 3.797C6.26451 3.6655 6.23401 3.5325 6.15651 3.424Z" fill="#ED1C24"/>
</svg>
