<svg width="50" height="50" viewBox="0 0 50 50" fill="none" xmlns="http://www.w3.org/2000/svg">
<path d="M44.0497 25.892C44.0497 28.742 42.4664 31.3087 39.9164 32.5921L35.3664 34.892V41.667H14.6247V34.892L10.0748 32.5921C7.52471 31.3087 5.94141 28.742 5.94141 25.892C5.94141 23.667 6.92473 21.567 8.62472 20.1421L14.6331 15.0921C15.233 14.5837 15.9914 14.3504 16.7747 14.4254C17.4914 14.492 18.1331 14.8087 18.6164 15.3337C17.7248 16.6004 17.2164 18.142 17.2164 19.792C17.2164 20.0504 17.2331 20.3087 17.2581 20.5587L11.6581 25.7337L15.6747 27.9837H34.3164L38.3331 25.7337L32.733 20.5587C32.7581 20.3087 32.7748 20.0504 32.7748 19.792C32.7748 18.1587 32.2581 16.617 31.3581 15.3504C31.8414 14.817 32.4914 14.492 33.2164 14.4254C33.9997 14.3504 34.7581 14.5837 35.3664 15.0921L41.3664 20.1421C43.0747 21.567 44.0497 23.667 44.0497 25.892Z" fill="#2B79C2"/>
<path d="M45.8327 41.6668V45.0002C45.8327 45.4585 45.4577 45.8335 44.9994 45.8335H4.99935C4.53268 45.8335 4.16602 45.4585 4.16602 45.0002V41.6668C4.16602 41.2085 4.53268 40.8335 4.99935 40.8335H44.9994C45.4577 40.8335 45.8327 41.2085 45.8327 41.6668Z" fill="#3B4651"/>
<path d="M31.1078 19.792C31.1078 23.167 28.3745 25.9003 24.9995 25.9003C21.6245 25.9003 18.8828 23.167 18.8828 19.792C18.8828 17.7837 19.8495 16.0003 21.3578 14.892L21.1745 15.9087C20.9828 17.0003 21.5829 18.1087 22.6578 18.5586C22.9495 18.667 23.2412 18.7253 23.5328 18.7253C24.2995 18.7253 25.0245 18.3587 25.4745 17.742L27.9078 14.4253C29.8079 15.4503 31.1078 17.4753 31.1078 19.792Z" fill="#3B4651"/>
<path d="M29.6584 9.20579L24.1334 16.7566C23.9934 16.9481 23.7724 17.0586 23.5367 17.0586C23.4409 17.0586 23.3452 17.0365 23.2494 16.9997C22.9326 16.8671 22.7558 16.5282 22.8147 16.1967L23.7209 11.0769H22.3875C22.137 11.0769 21.9013 10.9443 21.7687 10.7307C21.6287 10.517 21.614 10.2518 21.7245 10.0235L24.2513 4.59427C24.3765 4.33646 24.6343 4.16699 24.9216 4.16699H27.8683C28.104 4.16699 28.325 4.27751 28.465 4.47642C28.6049 4.66792 28.6418 4.91103 28.5681 5.13939L27.6031 8.03448H29.0617C29.3416 8.03448 29.5994 8.18919 29.7247 8.43968C29.8499 8.68274 29.8204 8.9848 29.6584 9.20579Z" fill="#2B79C2"/>
</svg>
