<svg width="217" height="125" viewBox="0 0 217 125" fill="none" xmlns="http://www.w3.org/2000/svg">
<g style="mix-blend-mode:multiply">
<path d="M214.097 124.477H2.05831C0.914806 124.477 0 123.546 0 122.419C0 121.275 0.914806 120.36 2.05831 120.36H214.097C215.241 120.36 216.156 121.275 216.156 122.419C216.156 123.546 215.241 124.477 214.097 124.477Z" fill="#CFE2F8"/>
</g>
<path d="M13.2156 38.8465C13.2156 38.8465 52.0132 70.2276 103.046 23.0825C112.668 9.62176 106.134 -1.92767 97.2797 1.53553C88.4257 4.99872 90.7454 13.4607 98.8153 16.9239C106.902 20.3871 118.435 20.0113 128.824 13.085C139.214 6.15856 156.922 4.99872 156.922 4.99872" stroke="#1A5FB4" stroke-linecap="round" stroke-linejoin="round" stroke-dasharray="9 9"/>
<path d="M177.946 3.67555L162.084 2.76074L161.626 7.22042L177.946 3.67555Z" fill="#639BDE"/>
<path d="M177.946 3.67542L162.852 3.8061L161.626 7.22029L177.946 3.67542Z" fill="#4C87D0"/>
<path d="M177.946 3.67542L162.852 3.8061L164.894 8.42914L177.946 3.67542Z" fill="#7AAEEC"/>
<path d="M177.946 3.67556L162.084 2.76075L160.467 0L177.946 3.67556Z" fill="#7AAEEC"/>
<path d="M58.3026 28.6857H143.184C146.418 28.6857 149.032 31.2994 149.032 34.5339V102.589C149.032 105.823 146.418 108.437 143.184 108.437H58.3026C55.0844 108.437 52.4543 105.823 52.4543 102.589V34.5339C52.4543 31.2994 55.0844 28.6857 58.3026 28.6857Z" fill="#0054A5"/>
<path d="M61.8638 47.0635H139.639C141.779 47.0635 143.51 48.7951 143.51 50.9351V100.514C143.51 102.654 141.779 104.386 139.639 104.386H61.8638C59.7238 104.386 57.9922 102.654 57.9922 100.514V50.9351C57.9922 48.7951 59.7238 47.0635 61.8638 47.0635Z" fill="#CFE2F8"/>
<path d="M62.5008 48.7787H69.0515C70.6361 48.7787 71.9266 50.0692 71.9266 51.6538V58.2535C71.9266 59.8544 70.6361 61.1449 69.0515 61.1449H62.5008C60.9163 61.1449 59.6257 59.8544 59.6257 58.2535V51.6538C59.6257 50.0692 60.9163 48.7787 62.5008 48.7787Z" fill="#7AAEEC"/>
<path d="M62.5008 62.6804H69.0515C70.6361 62.6804 71.9266 63.971 71.9266 65.5719V72.1552C71.9266 73.7561 70.6361 75.0466 69.0515 75.0466H62.5008C60.9163 75.0466 59.6257 73.7561 59.6257 72.1552V65.5719C59.6257 63.971 60.9163 62.6804 62.5008 62.6804Z" stroke="white" stroke-linecap="round" stroke-linejoin="round"/>
<path d="M62.5008 76.5823H69.0515C70.6361 76.5823 71.9266 77.8728 71.9266 79.4737V86.0734C71.9266 87.658 70.6361 88.9485 69.0515 88.9485H62.5008C60.9163 88.9485 59.6257 87.658 59.6257 86.0734V79.4737C59.6257 77.8728 60.9163 76.5823 62.5008 76.5823Z" stroke="white" stroke-linecap="round" stroke-linejoin="round"/>
<path d="M62.5008 90.5004H69.0515C70.6361 90.5004 71.9266 91.7909 71.9266 93.3755V99.9751C71.9266 101.56 70.6361 102.85 69.0515 102.85H62.5008C60.9163 102.85 59.6257 101.56 59.6257 99.9751V93.3755C59.6257 91.7909 60.9163 90.5004 62.5008 90.5004Z" stroke="white" stroke-linecap="round" stroke-linejoin="round"/>
<path d="M76.4027 48.7787H82.937C84.5379 48.7787 85.8285 50.0692 85.8285 51.6538V58.2535C85.8285 59.8544 84.5379 61.1449 82.937 61.1449H76.4027C74.8181 61.1449 73.5276 59.8544 73.5276 58.2535V51.6538C73.5276 50.0692 74.8181 48.7787 76.4027 48.7787Z" stroke="white" stroke-linecap="round" stroke-linejoin="round"/>
<path d="M90.3043 48.7787H96.8386C98.4232 48.7787 99.7137 50.0692 99.7137 51.6538V58.2535C99.7137 59.8544 98.4232 61.1449 96.8386 61.1449H90.3043C88.7034 61.1449 87.4128 59.8544 87.4128 58.2535V51.6538C87.4128 50.0692 88.7034 48.7787 90.3043 48.7787Z" stroke="white" stroke-linecap="round" stroke-linejoin="round"/>
<path d="M104.19 48.7787H110.724C112.325 48.7787 113.616 50.0692 113.616 51.6538V58.2535C113.616 59.8544 112.325 61.1449 110.724 61.1449H104.19C102.605 61.1449 101.315 59.8544 101.315 58.2535V51.6538C101.315 50.0692 102.605 48.7787 104.19 48.7787Z" fill="#7AAEEC" stroke="#7AAEEC" stroke-linecap="round" stroke-linejoin="round"/>
<path d="M118.092 48.7787H124.626C126.211 48.7787 127.501 50.0692 127.501 51.6538V58.2535C127.501 59.8544 126.211 61.1449 124.626 61.1449H118.092C116.491 61.1449 115.2 59.8544 115.2 58.2535V51.6538C115.2 50.0692 116.491 48.7787 118.092 48.7787Z" stroke="#ED333B" stroke-linecap="round" stroke-linejoin="round"/>
<path d="M131.977 48.7787H138.511C140.112 48.7787 141.403 50.0692 141.403 51.6538V58.2535C141.403 59.8544 140.112 61.1449 138.511 61.1449H131.977C130.393 61.1449 129.102 59.8544 129.102 58.2535V51.6538C129.102 50.0692 130.393 48.7787 131.977 48.7787Z" stroke="white" stroke-linecap="round" stroke-linejoin="round"/>
<path d="M76.4027 62.6804H82.937C84.5379 62.6804 85.8285 63.971 85.8285 65.5719V72.1552C85.8285 73.7561 84.5379 75.0466 82.937 75.0466H76.4027C74.8181 75.0466 73.5276 73.7561 73.5276 72.1552V65.5719C73.5276 63.971 74.8181 62.6804 76.4027 62.6804Z" stroke="white" stroke-linecap="round" stroke-linejoin="round"/>
<path d="M90.3043 62.6804H96.8386C98.4232 62.6804 99.7137 63.971 99.7137 65.5719V72.1552C99.7137 73.7561 98.4232 75.0466 96.8386 75.0466H90.3043C88.7034 75.0466 87.4128 73.7561 87.4128 72.1552V65.5719C87.4128 63.971 88.7034 62.6804 90.3043 62.6804Z" fill="#7AAEEC" stroke="#7AAEEC" stroke-linecap="round" stroke-linejoin="round"/>
<path d="M104.19 62.6804H110.724C112.325 62.6804 113.616 63.971 113.616 65.5719V72.1552C113.616 73.7561 112.325 75.0466 110.724 75.0466H104.19C102.605 75.0466 101.315 73.7561 101.315 72.1552V65.5719C101.315 63.971 102.605 62.6804 104.19 62.6804Z" stroke="white" stroke-linecap="round" stroke-linejoin="round"/>
<path d="M118.092 62.6804H124.626C126.211 62.6804 127.501 63.971 127.501 65.5719V72.1552C127.501 73.7561 126.211 75.0466 124.626 75.0466H118.092C116.491 75.0466 115.2 73.7561 115.2 72.1552V65.5719C115.2 63.971 116.491 62.6804 118.092 62.6804Z" stroke="white" stroke-linecap="round" stroke-linejoin="round"/>
<path d="M131.977 62.6804H138.511C140.112 62.6804 141.403 63.971 141.403 65.5719V72.1552C141.403 73.7561 140.112 75.0466 138.511 75.0466H131.977C130.393 75.0466 129.102 73.7561 129.102 72.1552V65.5719C129.102 63.971 130.393 62.6804 131.977 62.6804Z" stroke="white" stroke-linecap="round" stroke-linejoin="round"/>
<path d="M76.4027 76.5823H82.937C84.5379 76.5823 85.8285 77.8728 85.8285 79.4737V86.0734C85.8285 87.658 84.5379 88.9485 82.937 88.9485H76.4027C74.8181 88.9485 73.5276 87.658 73.5276 86.0734V79.4737C73.5276 77.8728 74.8181 76.5823 76.4027 76.5823Z" stroke="white" stroke-linecap="round" stroke-linejoin="round"/>
<path d="M90.3043 76.5823H96.8386C98.4232 76.5823 99.7137 77.8728 99.7137 79.4737V86.0734C99.7137 87.658 98.4232 88.9485 96.8386 88.9485H90.3043C88.7034 88.9485 87.4128 87.658 87.4128 86.0734V79.4737C87.4128 77.8728 88.7034 76.5823 90.3043 76.5823Z" stroke="white" stroke-linecap="round" stroke-linejoin="round"/>
<path d="M104.19 76.5823H110.724C112.325 76.5823 113.616 77.8728 113.616 79.4737V86.0734C113.616 87.658 112.325 88.9485 110.724 88.9485H104.19C102.605 88.9485 101.315 87.658 101.315 86.0734V79.4737C101.315 77.8728 102.605 76.5823 104.19 76.5823Z" stroke="white" stroke-linecap="round" stroke-linejoin="round"/>
<path d="M118.092 76.5823H124.626C126.211 76.5823 127.501 77.8728 127.501 79.4737V86.0734C127.501 87.658 126.211 88.9485 124.626 88.9485H118.092C116.491 88.9485 115.2 87.658 115.2 86.0734V79.4737C115.2 77.8728 116.491 76.5823 118.092 76.5823Z" fill="#7AAEEC" stroke="#7AAEEC" stroke-linecap="round" stroke-linejoin="round"/>
<path d="M131.977 76.5823H138.511C140.112 76.5823 141.403 77.8728 141.403 79.4737V86.0734C141.403 87.658 140.112 88.9485 138.511 88.9485H131.977C130.393 88.9485 129.102 87.658 129.102 86.0734V79.4737C129.102 77.8728 130.393 76.5823 131.977 76.5823Z" stroke="white" stroke-linecap="round" stroke-linejoin="round"/>
<path d="M76.4027 90.5004H82.937C84.5379 90.5004 85.8285 91.7909 85.8285 93.3755V99.9751C85.8285 101.56 84.5379 102.85 82.937 102.85H76.4027C74.8181 102.85 73.5276 101.56 73.5276 99.9751V93.3755C73.5276 91.7909 74.8181 90.5004 76.4027 90.5004Z" stroke="white" stroke-linecap="round" stroke-linejoin="round"/>
<path d="M90.3043 90.5004H96.8386C98.4232 90.5004 99.7137 91.7909 99.7137 93.3755V99.9751C99.7137 101.56 98.4232 102.85 96.8386 102.85H90.3043C88.7034 102.85 87.4128 101.56 87.4128 99.9751V93.3755C87.4128 91.7909 88.7034 90.5004 90.3043 90.5004Z" stroke="white" stroke-linecap="round" stroke-linejoin="round"/>
<path d="M104.19 90.5004H110.724C112.325 90.5004 113.616 91.7909 113.616 93.3755V99.9751C113.616 101.56 112.325 102.85 110.724 102.85H104.19C102.605 102.85 101.315 101.56 101.315 99.9751V93.3755C101.315 91.7909 102.605 90.5004 104.19 90.5004Z" stroke="white" stroke-linecap="round" stroke-linejoin="round"/>
<path d="M118.092 90.5004H124.626C126.211 90.5004 127.501 91.7909 127.501 93.3755V99.9751C127.501 101.56 126.211 102.85 124.626 102.85H118.092C116.491 102.85 115.2 101.56 115.2 99.9751V93.3755C115.2 91.7909 116.491 90.5004 118.092 90.5004Z" stroke="white" stroke-linecap="round" stroke-linejoin="round"/>
<path d="M131.977 90.5004H138.511C140.112 90.5004 141.403 91.7909 141.403 93.3755V99.9751C141.403 101.56 140.112 102.85 138.511 102.85H131.977C130.393 102.85 129.102 101.56 129.102 99.9751V93.3755C129.102 91.7909 130.393 90.5004 131.977 90.5004Z" stroke="white" stroke-linecap="round" stroke-linejoin="round"/>
<path d="M60.475 31.1361C61.5531 31.1198 62.4189 32.0019 62.4353 33.0637C62.4353 34.1419 61.5695 35.024 60.4913 35.024C59.4131 35.024 58.531 34.1582 58.531 33.0801C58.531 32.0019 59.3968 31.1361 60.475 31.1361Z" fill="#1C71D8"/>
<path d="M60.4588 21.939C61.2266 21.939 61.8637 22.8864 61.8637 24.079L61.8801 31.9365C61.8801 33.129 61.2593 34.0928 60.4915 34.0928C59.7074 34.0928 59.0866 33.129 59.0703 31.9528L59.054 24.079C59.054 22.9028 59.6747 21.939 60.4588 21.939Z" fill="#1A5FB4"/>
<path d="M70.5543 31.0216C71.6161 31.0216 72.4983 31.8874 72.4983 32.9656C72.4983 34.0437 71.6161 34.9095 70.5543 34.9095C69.4761 34.9095 68.594 34.0437 68.594 32.9656C68.594 31.8874 69.4761 31.0216 70.5543 31.0216Z" fill="#1C71D8"/>
<path d="M70.5543 21.8409C71.3221 21.8409 71.9428 22.7884 71.9428 23.9809V31.8385C71.9428 33.031 71.3221 33.9785 70.5543 33.9785C69.7702 33.9785 69.1494 33.031 69.1494 31.8385V23.9809C69.1494 22.7884 69.7702 21.8409 70.5543 21.8409Z" fill="#1A5FB4"/>
<path d="M141.027 31.1361C142.089 31.1361 142.971 32.0019 142.955 33.0801C142.955 34.1582 142.089 35.024 141.011 35.024C139.932 35.024 139.067 34.1419 139.067 33.0637C139.067 32.0019 139.949 31.1198 141.027 31.1361Z" fill="#1C71D8"/>
<path d="M141.043 21.939C141.811 21.939 142.448 22.9028 142.448 24.079L142.416 31.9528C142.416 33.129 141.795 34.0928 141.011 34.0928C140.243 34.0928 139.606 33.129 139.622 31.9365L139.638 24.079C139.638 22.8864 140.276 21.939 141.043 21.939Z" fill="#1A5FB4"/>
<path d="M80.6173 31.0216C81.6955 31.0216 82.5613 31.8874 82.5613 32.9656C82.5613 34.0437 81.6955 34.9095 80.6173 34.9095C79.5391 34.9095 78.6733 34.0437 78.6733 32.9656C78.6733 31.8874 79.5391 31.0216 80.6173 31.0216Z" fill="#1C71D8"/>
<path d="M80.617 21.8409C81.3848 21.8409 82.0219 22.7884 82.0219 23.9809V31.8385C82.0219 33.031 81.3848 33.9785 80.617 33.9785C79.8329 33.9785 79.2122 33.031 79.2122 31.8385V23.9809C79.2122 22.7884 79.8329 21.8409 80.617 21.8409Z" fill="#1A5FB4"/>
<path d="M90.6801 31.0216C91.7582 31.0216 92.624 31.8874 92.624 32.9656C92.624 34.0437 91.7582 34.9095 90.6801 34.9095C89.6019 34.9095 88.7361 34.0437 88.7361 32.9656C88.7361 31.8874 89.6019 31.0216 90.6801 31.0216Z" fill="#1C71D8"/>
<path d="M90.68 21.8409C91.4641 21.8409 92.0849 22.7884 92.0849 23.9809V31.8385C92.0849 33.031 91.4641 33.9785 90.68 33.9785C89.9122 33.9785 89.2751 33.031 89.2751 31.8385V23.9809C89.2751 22.7884 89.9122 21.8409 90.68 21.8409Z" fill="#1A5FB4"/>
<path d="M100.743 31.0216C101.821 31.0216 102.703 31.8874 102.703 32.9656C102.703 34.0437 101.821 34.9095 100.743 34.9095C99.6812 34.9095 98.7991 34.0437 98.7991 32.9656C98.7991 31.8874 99.6812 31.0216 100.743 31.0216Z" fill="#1C71D8"/>
<path d="M100.743 21.8409C101.527 21.8409 102.148 22.7884 102.148 23.9809V31.8385C102.148 33.031 101.527 33.9785 100.743 33.9785C99.975 33.9785 99.3542 33.031 99.3542 31.8385V23.9809C99.3542 22.7884 99.975 21.8409 100.743 21.8409Z" fill="#1A5FB4"/>
<path d="M110.822 31.0216C111.884 31.0216 112.766 31.8874 112.766 32.9656C112.766 34.0437 111.884 34.9095 110.822 34.9095C109.744 34.9095 108.862 34.0437 108.862 32.9656C108.862 31.8874 109.744 31.0216 110.822 31.0216Z" fill="#1C71D8"/>
<path d="M110.822 21.8409C111.59 21.8409 112.211 22.7884 112.211 23.9809V31.8385C112.211 33.031 111.59 33.9785 110.822 33.9785C110.038 33.9785 109.417 33.031 109.417 31.8385V23.9809C109.417 22.7884 110.038 21.8409 110.822 21.8409Z" fill="#1A5FB4"/>
<path d="M120.885 31.0216C121.963 31.0216 122.829 31.8874 122.829 32.9656C122.829 34.0437 121.963 34.9095 120.885 34.9095C119.807 34.9095 118.941 34.0437 118.941 32.9656C118.941 31.8874 119.807 31.0216 120.885 31.0216Z" fill="#1C71D8"/>
<path d="M120.885 21.8409C121.653 21.8409 122.29 22.7884 122.29 23.9809V31.8385C122.29 33.031 121.653 33.9785 120.885 33.9785C120.101 33.9785 119.48 33.031 119.48 31.8385V23.9809C119.48 22.7884 120.101 21.8409 120.885 21.8409Z" fill="#1A5FB4"/>
<path d="M130.948 31.0216C132.026 31.0216 132.892 31.8874 132.892 32.9656C132.892 34.0437 132.026 34.9095 130.948 34.9095C129.87 34.9095 129.004 34.0437 129.004 32.9656C129.004 31.8874 129.87 31.0216 130.948 31.0216Z" fill="#1C71D8"/>
<path d="M130.948 21.8409C131.716 21.8409 132.353 22.7884 132.353 23.9809V31.8385C132.353 33.031 131.716 33.9785 130.948 33.9785C130.18 33.9785 129.543 33.031 129.543 31.8385V23.9809C129.543 22.7884 130.18 21.8409 130.948 21.8409Z" fill="#1A5FB4"/>
<path d="M61.8472 54.5943L64.7059 57.4694L69.721 52.4543" stroke="white" stroke-linecap="round" stroke-linejoin="round"/>
<path d="M103.52 54.5943L106.379 57.4694L111.394 52.4543" stroke="white" stroke-linecap="round" stroke-linejoin="round"/>
<path d="M89.6348 68.5124L92.4935 71.3712L97.5086 66.3561" stroke="white" stroke-linecap="round" stroke-linejoin="round"/>
<path d="M118.19 51.3925C118.146 51.3925 118.103 51.3979 118.059 51.4088C117.994 51.4197 117.939 51.447 117.896 51.4905C117.749 51.6375 117.749 51.8826 117.896 52.0296L120.82 54.9537L117.896 57.8942C117.749 58.0248 117.749 58.2699 117.896 58.4169C118.043 58.5639 118.271 58.5639 118.418 58.4169L121.359 55.4928L124.283 58.4169C124.43 58.5639 124.675 58.5639 124.806 58.4169C124.953 58.2699 124.953 58.0248 124.806 57.8942L121.882 54.9537L124.806 52.0296C124.953 51.8826 124.953 51.6375 124.822 51.4905C124.822 51.4905 124.817 51.4905 124.806 51.4905C124.675 51.3435 124.43 51.3435 124.283 51.4905L121.359 54.431L118.418 51.4905C118.369 51.4415 118.288 51.3925 118.19 51.3925Z" fill="#ED333B"/>
<path d="M118.157 58.1555L124.544 51.7682L118.157 58.1555Z" fill="#7AAEEC"/>
<path d="M117.422 82.4141L120.28 85.2729L125.295 80.2578" stroke="white" stroke-linecap="round" stroke-linejoin="round"/>
<path d="M167.415 27.1169V25.1836C167.415 24.8064 167.131 24.5234 166.753 24.5234H165.855C165.571 24.5234 165.287 24.3348 165.24 24.0519C165.098 23.6275 164.909 23.2031 164.72 22.7787C164.578 22.543 164.625 22.2129 164.862 22.0243L165.524 21.3641C165.76 21.1283 165.76 20.7039 165.524 20.421L164.153 19.0535C163.916 18.8178 163.491 18.8178 163.207 19.0535L162.545 19.7137C162.356 19.9023 162.025 19.9495 161.789 19.8552C161.41 19.6665 160.985 19.4779 160.512 19.3365C160.229 19.2422 160.039 19.0064 160.039 18.7235V17.8275C160.039 17.4503 159.756 17.1674 159.378 17.1674H157.439C157.061 17.1674 156.777 17.4503 156.777 17.8275V18.7235C156.777 19.0064 156.588 19.2893 156.304 19.3365C155.879 19.4779 155.453 19.6665 155.028 19.8552C154.792 19.9966 154.461 19.9495 154.272 19.7137L153.61 19.1007C153.373 18.8649 152.948 18.8649 152.664 19.1007L151.293 20.4682C151.057 20.7039 151.057 21.1283 151.293 21.4113L151.955 22.0714C152.144 22.26 152.191 22.5901 152.097 22.8259C151.908 23.2031 151.718 23.6275 151.577 24.099C151.482 24.382 151.246 24.5706 150.962 24.5706H150.064C149.686 24.5706 149.402 24.8535 149.402 25.2308V27.1641C149.402 27.5413 149.686 27.8242 150.064 27.8242H150.962C151.246 27.8242 151.529 28.0129 151.577 28.2958C151.718 28.7202 151.908 29.1446 152.097 29.569C152.239 29.8047 152.191 30.1348 151.955 30.3234L151.293 30.9836C151.057 31.2194 151.057 31.6437 151.293 31.9267L152.664 33.2941C152.9 33.5299 153.326 33.5299 153.61 33.2941L154.272 32.634C154.461 32.4454 154.792 32.3982 155.028 32.4925C155.406 32.6811 155.832 32.8698 156.304 33.0112C156.588 33.1055 156.777 33.3413 156.777 33.6242V34.5202C156.777 34.8974 157.061 35.1803 157.439 35.1803H159.378C159.756 35.1803 160.039 34.8974 160.039 34.5202V33.6242C160.039 33.3413 160.229 33.0584 160.512 33.0112C160.938 32.8698 161.363 32.6811 161.789 32.4925C162.025 32.3511 162.356 32.3982 162.545 32.634L163.207 33.2941C163.443 33.5299 163.869 33.5299 164.153 33.2941L165.524 31.9267C165.76 31.6909 165.76 31.2665 165.524 30.9836L164.862 30.3234C164.673 30.1348 164.625 29.8047 164.72 29.569C164.909 29.1917 165.098 28.7673 165.24 28.2958C165.335 28.0129 165.571 27.8242 165.855 27.8242H166.753C167.131 27.7771 167.415 27.4942 167.415 27.1169ZM158.385 29.7576C156.399 29.7576 154.792 28.1543 154.792 26.1738C154.792 24.1934 156.399 22.5901 158.385 22.5901C160.37 22.5901 161.978 24.1934 161.978 26.1738C161.978 28.1543 160.37 29.7576 158.385 29.7576Z" fill="#829198"/>
<path d="M183.309 17.944V16.3519C183.309 16.0412 183.075 15.8082 182.763 15.8082H182.024C181.79 15.8082 181.557 15.6529 181.518 15.4199C181.401 15.0704 181.245 14.7209 181.089 14.3714C180.972 14.1772 181.011 13.9054 181.206 13.75L181.751 13.2064C181.946 13.0122 181.946 12.6627 181.751 12.4297L180.622 11.3036C180.427 11.1094 180.077 11.1094 179.843 11.3036L179.298 11.8472C179.143 12.0026 178.87 12.0414 178.675 11.9637C178.364 11.8084 178.013 11.6531 177.624 11.5366C177.39 11.4589 177.235 11.2647 177.235 11.0317V10.2939C177.235 9.98324 177.001 9.75024 176.69 9.75024H175.093C174.782 9.75024 174.548 9.98324 174.548 10.2939V11.0317C174.548 11.2647 174.392 11.4977 174.159 11.5366C173.808 11.6531 173.458 11.8084 173.108 11.9637C172.913 12.0802 172.64 12.0414 172.485 11.8472L171.94 11.3424C171.745 11.1482 171.394 11.1482 171.161 11.3424L170.032 12.4686C169.837 12.6627 169.837 13.0122 170.032 13.2452L170.577 13.7889C170.733 13.9442 170.772 14.216 170.694 14.4102C170.538 14.7209 170.382 15.0704 170.265 15.4587C170.188 15.6917 169.993 15.847 169.759 15.847H169.019C168.708 15.847 168.474 16.08 168.474 16.3907V17.9828C168.474 18.2935 168.708 18.5265 169.019 18.5265H169.759C169.993 18.5265 170.226 18.6818 170.265 18.9148C170.382 19.2643 170.538 19.6138 170.694 19.9633C170.81 20.1575 170.772 20.4293 170.577 20.5847L170.032 21.1283C169.837 21.3225 169.837 21.672 170.032 21.905L171.161 23.0311C171.356 23.2253 171.706 23.2253 171.94 23.0311L172.485 22.4875C172.64 22.3321 172.913 22.2933 173.108 22.371C173.419 22.5263 173.77 22.6816 174.159 22.7981C174.392 22.8758 174.548 23.07 174.548 23.303V24.0408C174.548 24.3515 174.782 24.5845 175.093 24.5845H176.69C177.001 24.5845 177.235 24.3515 177.235 24.0408V23.303C177.235 23.07 177.39 22.837 177.624 22.7981C177.974 22.6816 178.325 22.5263 178.675 22.371C178.87 22.2545 179.143 22.2933 179.298 22.4875L179.843 23.0311C180.038 23.2253 180.388 23.2253 180.622 23.0311L181.751 21.905C181.946 21.7108 181.946 21.3613 181.751 21.1283L181.206 20.5847C181.05 20.4293 181.011 20.1575 181.089 19.9633C181.245 19.6527 181.401 19.3032 181.518 18.9148C181.595 18.6818 181.79 18.5265 182.024 18.5265H182.763C183.075 18.4877 183.309 18.2547 183.309 17.944ZM175.872 20.1187C174.237 20.1187 172.913 18.7983 172.913 17.1673C172.913 15.5364 174.237 14.216 175.872 14.216C177.507 14.216 178.831 15.5364 178.831 17.1673C178.831 18.7983 177.507 20.1187 175.872 20.1187Z" fill="#829198"/>
<path d="M193.904 39.1052V36.4895C193.904 35.9792 193.521 35.5964 193.009 35.5964H191.794C191.41 35.5964 191.026 35.3412 190.962 34.9584C190.77 34.3842 190.514 33.8101 190.258 33.2359C190.067 32.9169 190.131 32.4703 190.45 32.2151L191.346 31.322C191.666 31.003 191.666 30.4288 191.346 30.046L189.491 28.1959C189.171 27.8769 188.595 27.8769 188.212 28.1959L187.316 29.0891C187.06 29.3443 186.612 29.4081 186.293 29.2805C185.781 29.0253 185.205 28.7701 184.566 28.5787C184.182 28.4511 183.926 28.1321 183.926 27.7493V26.5372C183.926 26.0268 183.542 25.644 183.03 25.644H180.408C179.896 25.644 179.512 26.0268 179.512 26.5372V27.7493C179.512 28.1321 179.257 28.5149 178.873 28.5787C178.297 28.7701 177.721 29.0253 177.146 29.2805C176.826 29.4719 176.378 29.4081 176.122 29.0891L175.227 28.2597C174.907 27.9407 174.331 27.9407 173.947 28.2597L172.093 30.1098C171.773 30.4288 171.773 31.003 172.093 31.3858L172.988 32.2789C173.244 32.5341 173.308 32.9807 173.18 33.2997C172.924 33.8101 172.668 34.3842 172.476 35.0222C172.348 35.405 172.029 35.6602 171.645 35.6602H170.429C169.918 35.6602 169.534 36.043 169.534 36.5533V39.169C169.534 39.6794 169.918 40.0622 170.429 40.0622H171.645C172.029 40.0622 172.412 40.3174 172.476 40.7001C172.668 41.2743 172.924 41.8485 173.18 42.4227C173.372 42.7417 173.308 43.1882 172.988 43.4434L172.093 44.3366C171.773 44.6556 171.773 45.2297 172.093 45.6125L173.947 47.4626C174.267 47.7816 174.843 47.7816 175.227 47.4626L176.122 46.5695C176.378 46.3143 176.826 46.2505 177.146 46.3781C177.657 46.6333 178.233 46.8885 178.873 47.0799C179.257 47.2075 179.512 47.5264 179.512 47.9092V49.1214C179.512 49.6317 179.896 50.0145 180.408 50.0145H183.03C183.542 50.0145 183.926 49.6317 183.926 49.1214V47.9092C183.926 47.5264 184.182 47.1437 184.566 47.0799C185.141 46.8885 185.717 46.6333 186.293 46.3781C186.612 46.1867 187.06 46.2505 187.316 46.5695L188.212 47.4626C188.531 47.7816 189.107 47.7816 189.491 47.4626L191.346 45.6125C191.666 45.2935 191.666 44.7194 191.346 44.3366L190.45 43.4434C190.194 43.1882 190.131 42.7417 190.258 42.4227C190.514 41.9123 190.77 41.3381 190.962 40.7001C191.09 40.3174 191.41 40.0622 191.794 40.0622H193.009C193.521 39.9984 193.904 39.6156 193.904 39.1052ZM181.687 42.6779C179.001 42.6779 176.826 40.5088 176.826 37.8293C176.826 35.1498 179.001 32.9807 181.687 32.9807C184.374 32.9807 186.548 35.1498 186.548 37.8293C186.548 40.5088 184.374 42.6779 181.687 42.6779Z" fill="#829198"/>
<path d="M160.565 101.478H167.116V120.983H160.565V101.478Z" fill="#7AAEEC"/>
<path d="M170.497 106.33H177.048V120.983H170.497V106.33Z" fill="#7AAEEC"/>
<path d="M179.825 96.512H186.375V120.983H179.825V96.512Z" fill="#7AAEEC"/>
<path d="M190.753 83.5902H197.304V120.983H190.753V83.5902Z" fill="#7AAEEC"/>
<path d="M196.7 74.5076L192.975 75.161L193.531 75.8308L182.259 85.0115C182.183 85.066 182.123 85.1313 182.079 85.2075L173.127 99.2073L163.358 89.6182L162.149 90.8597L172.67 101.184C173.013 101.527 173.552 101.511 173.895 101.168C173.938 101.124 173.977 101.08 174.009 101.037L183.468 86.253L194.609 77.1866L195.213 77.9381L196.7 74.5076Z" fill="#E84E58"/>
<path d="M44.5151 17.5283C53.4672 13.9834 63.579 18.3614 67.1239 27.2971C70.6688 36.2491 66.2908 46.361 57.3551 49.9059C48.4194 53.4508 38.2912 49.0728 34.7463 40.1371C31.2014 31.2014 35.5794 21.0732 44.5151 17.5283Z" fill="#4D93E6"/>
<path d="M46.3611 22.1839C52.7321 19.6519 59.9525 22.772 62.4846 29.143C65.0003 35.514 61.8802 42.7344 55.5092 45.2664C49.1382 47.7822 41.9178 44.662 39.4021 38.291C36.87 31.9201 39.9902 24.6996 46.3611 22.1839Z" fill="#A7CAF2"/>
<path d="M48.0763 26.513C52.0623 24.9447 56.5546 26.8887 58.1392 30.8583C59.7238 34.8443 57.7635 39.3529 53.7939 40.9212C49.8079 42.5058 45.3156 40.5455 43.731 36.5759C42.1628 32.5899 44.1067 28.0976 48.0763 26.513Z" fill="#4D93E6"/>
<path d="M49.8081 30.8584C51.3763 30.2213 53.1733 31.0054 53.8104 32.59C54.4311 34.1745 53.647 35.9551 52.0788 36.5922C50.4942 37.213 48.6973 36.4452 48.0765 34.8606C47.4394 33.2761 48.2235 31.4791 49.8081 30.8584Z" fill="#A7CAF2"/>
<path d="M74.4912 13.9508L74.8996 14.4572L53.3037 32.4593L52.8953 31.9529L74.4912 13.9508Z" fill="#1A63BA"/>
<path d="M74.5242 10.6182L70.8976 13.6403C69.0844 15.1595 70.9466 17.2015 70.9466 17.2015L74.6385 14.1304C75.8964 13.0685 74.5242 10.6182 74.5242 10.6182ZM78.1997 15.0125C78.1997 15.0125 76.0271 13.2156 74.7529 14.2774L71.0773 17.3485C71.0773 17.3485 72.7436 19.5539 74.5569 18.0346L78.1997 15.0125Z" fill="#134989"/>
<path d="M54.6435 32.6716L50.7229 34.1908L52.9119 30.5969L54.6435 32.6716Z" fill="#134989"/>
<path d="M157.575 73.9033C159.144 74.9652 159.797 76.7294 159.046 77.8239C158.294 78.9184 156.415 78.9511 154.864 77.8729C153.295 76.8111 152.642 75.0468 153.393 73.9523C154.145 72.8578 156.023 72.8252 157.575 73.9033Z" fill="#FFDC33"/>
<path d="M157.918 69.0514L161.643 71.4528C162.754 72.1716 163.211 73.7562 162.362 74.7853L160.32 77.2357C159.601 78.1015 158.392 78.4119 157.379 77.7421L153.965 75.5531C152.936 74.8833 152.707 73.6745 153.197 72.6617L154.602 69.7866C155.174 68.5777 156.791 68.3327 157.918 69.0514Z" fill="#CCAE1D"/>
<path d="M172.915 66.7806C171.543 68.7899 169.501 70.0478 167.295 70.4562C166.184 70.6686 162.738 74.0174 161.627 73.7887C160.5 73.5763 159.405 73.1189 158.409 72.4328C157.412 71.7467 156.595 70.8973 155.974 69.9334C155.354 68.9696 157.232 64.559 157.036 63.4481C156.612 61.2428 157.036 58.8741 158.409 56.8648C161.153 52.8625 166.625 51.8334 170.628 54.5778C174.63 57.3059 175.659 62.7784 172.915 66.7806Z" fill="#FFDC33"/>
<path fill-rule="evenodd" clip-rule="evenodd" d="M166.821 63.5627C167.034 63.9221 167.116 64.3305 167.116 64.7225C167.508 65.0166 167.785 65.5066 167.753 66.2091C167.72 66.9115 167.573 67.4506 167.23 67.8427C166.887 68.2184 166.364 68.3981 165.678 68.4471C164.992 68.4798 164.469 68.3817 164.061 68.3981C163.669 68.4307 163.375 68.5288 162.999 69.0352C162.378 69.8683 160.761 72.1717 159.977 73.2825C159.835 73.228 159.694 73.1627 159.552 73.0865C160.287 72.0246 161.97 69.6396 162.639 68.7575C163.064 68.1694 163.554 67.9733 164.044 67.9407C164.534 67.908 165.025 68.006 165.645 67.9733C166.266 67.9407 166.642 67.7936 166.887 67.5159C167.132 67.2546 167.263 66.8298 167.295 66.1927C167.312 65.7517 167.181 65.4903 167.017 65.2943C166.985 65.3923 167.001 65.5066 166.968 65.6047C166.838 65.915 166.658 66.1764 166.38 66.3071C166.119 66.4541 165.76 66.4541 165.433 66.2744C165.139 66.1111 164.926 65.9259 164.796 65.719C164.665 65.5066 164.632 65.2779 164.681 65.0656C164.796 64.6408 165.204 64.3795 165.694 64.3468C166.005 64.3305 166.315 64.3958 166.625 64.4938C166.593 64.2488 166.544 64.0037 166.429 63.8077C166.152 63.3176 165.547 62.9746 164.959 62.8602C164.91 62.8602 164.894 62.8602 164.845 62.8602C164.861 63.0073 164.877 63.1543 164.845 63.285C164.763 63.8894 164.338 64.4121 163.75 64.5428C163.489 64.6082 163.277 64.5918 163.081 64.5101C162.901 64.4285 162.787 64.2324 162.754 64.0364C162.705 63.6607 162.917 63.2523 163.228 62.8439C163.456 62.5662 163.799 62.4355 164.175 62.3865C164.061 62.2231 163.897 62.0761 163.652 61.9291C162.983 61.5534 162.411 61.488 161.904 61.6841C161.414 61.8637 160.973 62.3375 160.647 63.1053C160.32 63.8567 160.418 64.3631 160.532 64.9185C160.663 65.474 160.81 66.0947 160.483 66.8952C160.173 67.663 159.356 68.9698 158.588 70.1297C158.147 70.8158 157.788 71.3385 157.51 71.7306C157.401 71.6326 157.287 71.5237 157.167 71.4039C157.445 71.0281 157.804 70.4891 158.212 69.8683C158.964 68.7248 159.781 67.3853 160.058 66.7155C160.336 66.0457 160.205 65.5883 160.091 65.0166C159.96 64.4448 159.846 63.775 160.222 62.9092C160.581 62.0761 161.104 61.488 161.741 61.243C162.378 60.9979 163.13 61.096 163.881 61.5207C164.306 61.7657 164.567 62.0761 164.714 62.4028C164.828 62.4192 164.926 62.3865 165.041 62.4028C165.4 62.4845 165.743 62.6152 166.054 62.7949C166.364 62.9909 166.642 63.2523 166.821 63.5627ZM163.603 63.1379C163.326 63.481 163.195 63.8404 163.211 63.9874C163.228 64.0527 163.228 64.0691 163.277 64.0854C163.326 64.1181 163.456 64.1344 163.652 64.0854C164.012 64.0201 164.322 63.6444 164.387 63.2196C164.404 63.1053 164.355 62.9746 164.338 62.8602C164.012 62.8766 163.734 62.9582 163.603 63.1379ZM165.727 64.8042C165.384 64.8205 165.172 65.0002 165.123 65.1799C165.106 65.2616 165.123 65.3596 165.188 65.474C165.27 65.5883 165.4 65.7353 165.662 65.866C165.874 65.9967 166.021 65.9804 166.168 65.8987C166.299 65.8334 166.446 65.67 166.527 65.425C166.593 65.3106 166.576 65.1309 166.609 64.9839C166.331 64.8532 166.021 64.8042 165.727 64.8042Z" fill="white"/>
<path d="M169.321 54.8884C167.377 53.9899 164.78 53.5815 162.868 54.97C160.941 56.3586 160.647 58.5803 162.525 60.1158C164.388 61.6677 167.671 60.1158 168.798 60.5079C169.925 60.8836 171.559 61.3574 172.082 59.6421C172.621 57.9268 171.363 55.9829 169.321 54.8884Z" fill="#E6C319"/>
<path d="M7.77588 62.9091L37.213 52.4379L44.2538 72.2205L14.8166 82.7081L7.77588 62.9091Z" fill="#7AAEEC"/>
<path d="M7.77588 62.9091L26.7418 69.6231L37.213 52.4379L26.3497 68.5286L7.77588 62.9091Z" fill="#4481CB"/>
<path d="M14.8167 82.7082L25.2879 65.5229L44.2538 72.2206L25.68 66.6011L14.8167 82.7082Z" fill="#4481CB"/>
<path d="M7.77588 62.9091L37.213 52.4379L26.3497 68.5287L7.77588 62.9091Z" fill="#9BC2F0"/>
</svg>
