<svg width="64" height="64" viewBox="0 0 64 64" fill="none" xmlns="http://www.w3.org/2000/svg">
<g clip-path="url(#clip0_18104_28879)">
<path opacity="0.994" fill-rule="evenodd" clip-rule="evenodd" d="M15.0625 7.18747C27.2291 7.35413 39.3959 7.35413 51.5625 7.18747C53.0335 7.13031 54.4919 7.19281 55.9375 7.37497C56.0876 7.48778 56.1919 7.63362 56.25 7.81247C56.3125 9.06177 56.3332 10.3118 56.3125 11.5625C56.1878 15.9578 56.146 20.3745 56.1875 24.8125C55.2709 24.8125 54.3541 24.8125 53.4375 24.8125C53.4375 21.1041 53.4375 17.3958 53.4375 13.6875C53.4582 12.7282 53.4375 11.7699 53.375 10.8125C53.3125 10.75 53.25 10.6875 53.1875 10.625C37.2709 10.5625 21.3542 10.5416 5.4375 10.5625C4.60313 10.5417 3.76979 10.5625 2.9375 10.625C2.875 10.6875 2.8125 10.75 2.75 10.8125C2.68754 11.7699 2.6667 12.7282 2.6875 13.6875C2.66666 21.9792 2.6875 30.271 2.75 38.5625C2.78845 38.6635 2.85095 38.7468 2.9375 38.8125C15.0991 38.9372 27.2658 38.9788 39.4375 38.9375C39.4375 40.8958 39.4375 42.8541 39.4375 44.8125C37.249 44.7712 35.0824 44.8128 32.9375 44.9375C30.4791 44.9375 28.0209 44.9375 25.5625 44.9375C24.7709 44.9375 23.9791 44.9375 23.1875 44.9375C17.3125 44.7708 11.4375 44.7708 5.5625 44.9375C3.812 44.9583 2.062 44.9375 0.3125 44.875C0.18418 44.8108 0.0591805 44.7483 -0.0625 44.6875C-0.0625 32.3125 -0.0625 19.9375 -0.0625 7.56247C0.110199 7.39991 0.318532 7.29573 0.5625 7.24997C5.39565 7.18747 10.229 7.16663 15.0625 7.18747Z" fill="#293D7C"/>
<path fill-rule="evenodd" clip-rule="evenodd" d="M5.43748 10.5625C5.40213 10.6611 5.33963 10.7444 5.24998 10.8125C5.18752 11.7699 5.16668 12.7282 5.18748 13.6875C4.35414 13.6875 3.52082 13.6875 2.68748 13.6875C2.66668 12.7282 2.68752 11.7699 2.74998 10.8125C2.81248 10.75 2.87498 10.6875 2.93748 10.625C3.76977 10.5625 4.60311 10.5417 5.43748 10.5625Z" fill="#FD9418"/>
<path fill-rule="evenodd" clip-rule="evenodd" d="M5.43748 10.5625C21.3542 10.5417 37.2709 10.5625 53.1875 10.625C53.25 10.6875 53.3125 10.75 53.375 10.8125C53.4375 11.7699 53.4582 12.7283 53.4375 13.6875C53.3959 13.6875 53.3541 13.6875 53.3125 13.6875C37.2709 13.6875 21.2291 13.6875 5.18748 13.6875C5.16668 12.7283 5.18752 11.7699 5.24998 10.8125C5.33963 10.7445 5.40213 10.6611 5.43748 10.5625Z" fill="#FEAE10"/>
<path fill-rule="evenodd" clip-rule="evenodd" d="M2.6875 13.6875C3.52084 13.6875 4.35416 13.6875 5.1875 13.6875C5.14628 22.026 5.18795 30.3594 5.3125 38.6875C16.6873 38.8125 28.0623 38.8541 39.4375 38.8125C39.4375 38.8541 39.4375 38.8959 39.4375 38.9375C27.2658 38.9789 15.0991 38.9373 2.9375 38.8125C2.85095 38.7469 2.78845 38.6635 2.75 38.5625C2.6875 30.271 2.66666 21.9792 2.6875 13.6875Z" fill="#D4E5F7"/>
<path fill-rule="evenodd" clip-rule="evenodd" d="M5.18725 13.6875C21.2289 13.6875 37.2706 13.6875 53.3123 13.6875C53.3123 17.3541 53.3123 21.0209 53.3123 24.6875C50.9789 24.6875 48.6456 24.6875 46.3123 24.6875C46.3536 21.9575 46.3119 19.2492 46.1873 16.5625C46.0885 16.4007 45.9635 16.2549 45.8123 16.125C33.958 16.021 22.1246 16.0417 10.3123 16.1875C10.156 16.1971 10.0519 16.2805 9.99975 16.4375C9.91641 19.4375 9.91641 22.4375 9.99975 25.4375C10.0623 25.5 10.1248 25.5625 10.1873 25.625C11.0195 25.6875 11.8529 25.7083 12.6873 25.6875C21.5623 25.6875 30.4373 25.6875 39.3123 25.6875C39.3123 26.3959 39.3123 27.1041 39.3123 27.8125C37.9373 27.8125 36.5623 27.8125 35.1873 27.8125C34.3529 27.7917 33.5195 27.8125 32.6873 27.875C32.6248 27.9375 32.5623 28 32.4998 28.0625C32.4164 30.6459 32.4164 33.2291 32.4998 35.8125C32.5623 35.875 32.6248 35.9375 32.6873 36C33.5195 36.0625 34.3529 36.0833 35.1873 36.0625C36.6039 36.0625 38.0206 36.0625 39.4373 36.0625C39.4373 36.9791 39.4373 37.8959 39.4373 38.8125C28.062 38.8541 16.687 38.8125 5.31225 38.6875C5.1877 30.3594 5.14603 22.026 5.18725 13.6875Z" fill="#FEFEFE"/>
<path fill-rule="evenodd" clip-rule="evenodd" d="M10.3125 16.1874C11.0671 16.1463 11.8171 16.1879 12.5625 16.3124C12.4179 19.3488 12.3971 22.3904 12.5 25.4374C12.5896 25.5054 12.6521 25.5888 12.6875 25.6874C11.8531 25.7082 11.0198 25.6874 10.1875 25.6249C10.125 25.5624 10.0625 25.4999 10 25.4374C9.91667 22.4374 9.91667 19.4374 10 16.4374C10.0521 16.2804 10.1563 16.1971 10.3125 16.1874Z" fill="#AEC1ED"/>
<path fill-rule="evenodd" clip-rule="evenodd" d="M10.3125 16.1876C22.1249 16.0418 33.9583 16.0211 45.8125 16.1251C45.9637 16.2549 46.0887 16.4008 46.1875 16.5626C46.1875 19.3126 46.1875 22.0626 46.1875 24.8126C44.1037 24.7917 42.0204 24.8126 39.9375 24.8751C39.7916 25.0209 39.6459 25.1667 39.5 25.3126C39.4375 28.8957 39.4166 32.4789 39.4375 36.0626C38.0209 36.0626 36.6041 36.0626 35.1875 36.0626C35.1521 35.9639 35.0896 35.8806 35 35.8126C34.9166 33.2292 34.9166 30.6459 35 28.0626C35.0896 27.9946 35.1521 27.9112 35.1875 27.8126C36.5625 27.8126 37.9375 27.8126 39.3125 27.8126C39.3125 27.1042 39.3125 26.3959 39.3125 25.6876C30.4375 25.6876 21.5625 25.6876 12.6875 25.6876C12.6521 25.5889 12.5896 25.5056 12.5 25.4376C12.3971 22.3906 12.4179 19.3489 12.5625 16.3126C11.8171 16.1881 11.0671 16.1464 10.3125 16.1876Z" fill="#C3DDF3"/>
<path fill-rule="evenodd" clip-rule="evenodd" d="M53.3125 13.6875C53.3541 13.6875 53.3959 13.6875 53.4375 13.6875C53.4375 17.3959 53.4375 21.1041 53.4375 24.8125C51.0209 24.8125 48.6041 24.8125 46.1875 24.8125C46.1875 22.0625 46.1875 19.3125 46.1875 16.5625C46.3121 19.2492 46.3539 21.9575 46.3125 24.6875C48.6459 24.6875 50.9791 24.6875 53.3125 24.6875C53.3125 21.0209 53.3125 17.3541 53.3125 13.6875Z" fill="#D5DCEA"/>
<path opacity="0.996" fill-rule="evenodd" clip-rule="evenodd" d="M46.1875 24.8125C48.6041 24.8125 51.0209 24.8125 53.4375 24.8125C54.3541 24.8125 55.2709 24.8125 56.1875 24.8125C58.5209 24.8125 60.8541 24.8125 63.1875 24.8125C63.5296 24.8574 63.7796 25.0241 63.9375 25.3125C63.9375 35.7291 63.9375 46.1459 63.9375 56.5625C63.7487 56.7295 63.5404 56.8754 63.3125 57C59.146 57.0625 54.9794 57.0834 50.8125 57.0625C47.2706 57.0834 43.7289 57.0625 40.1875 57C39.922 56.8598 39.6929 56.6723 39.5 56.4375C39.4376 55.7304 39.4167 55.022 39.4375 54.3125C32.3541 54.3125 25.2709 54.3125 18.1875 54.3125C25.2498 54.1876 32.333 54.146 39.4375 54.1875C39.4375 52.7291 39.4375 51.2709 39.4375 49.8125C39.4375 49.7709 39.4375 49.7291 39.4375 49.6875C39.4375 48.1041 39.4375 46.5209 39.4375 44.9375C39.4375 44.8959 39.4375 44.8541 39.4375 44.8125C39.4375 42.8541 39.4375 40.8959 39.4375 38.9375C39.4375 38.8959 39.4375 38.8541 39.4375 38.8125C39.4375 37.8959 39.4375 36.9791 39.4375 36.0625C39.4166 32.4789 39.4375 28.8956 39.5 25.3125C39.6459 25.1666 39.7916 25.0209 39.9375 24.875C42.0204 24.8125 44.1038 24.7916 46.1875 24.8125Z" fill="#455FA0"/>
<path fill-rule="evenodd" clip-rule="evenodd" d="M44.3125 26.6875C44.187 26.8353 44.0828 27.002 44 27.1875C43.9376 27.8111 43.9167 28.4361 43.9375 29.0625C43.1459 29.0625 42.3541 29.0625 41.5625 29.0625C41.5625 28.4375 41.5625 27.8125 41.5625 27.1875C41.5639 26.9978 41.6471 26.852 41.8125 26.75C42.6447 26.6875 43.4781 26.6667 44.3125 26.6875Z" fill="#FE9518"/>
<path fill-rule="evenodd" clip-rule="evenodd" d="M44.3124 26.6875C50.0209 26.6666 55.7293 26.6875 61.4374 26.75C61.5519 26.7968 61.6562 26.8593 61.7499 26.9375C61.8123 27.6446 61.8332 28.353 61.8124 29.0625C55.8541 29.0625 49.8958 29.0625 43.9374 29.0625C43.9167 28.4361 43.9376 27.8111 43.9999 27.1875C44.0827 27.002 44.1869 26.8354 44.3124 26.6875Z" fill="#FEAF13"/>
<path fill-rule="evenodd" clip-rule="evenodd" d="M10.4381 27.9375C14.1467 27.9166 17.855 27.9375 21.5631 28C22.3171 28.2441 22.5046 28.7234 22.1256 29.4375C21.9792 29.6116 21.7917 29.7159 21.5631 29.75C17.8547 29.8334 14.1465 29.8334 10.4381 29.75C9.77584 29.1365 9.77584 28.5323 10.4381 27.9375Z" fill="#5EC1D8"/>
<path fill-rule="evenodd" clip-rule="evenodd" d="M23.812 27.9375C25.8123 27.9166 27.8123 27.9375 29.812 28C30.566 28.2441 30.7535 28.7234 30.3745 29.4375C30.2281 29.6116 30.0406 29.7159 29.812 29.75C27.812 29.8334 25.812 29.8334 23.812 29.75C23.1512 29.1461 23.1512 28.5419 23.812 27.9375Z" fill="#5EC1D8"/>
<path fill-rule="evenodd" clip-rule="evenodd" d="M35.1875 27.8125C35.1522 27.9111 35.0897 27.9945 35 28.0625C34.9167 30.6458 34.9167 33.2291 35 35.8125C35.0897 35.8805 35.1522 35.9638 35.1875 36.0625C34.3532 36.0832 33.5198 36.0625 32.6875 36C32.625 35.9375 32.5625 35.875 32.5 35.8125C32.4167 33.2291 32.4167 30.6458 32.5 28.0625C32.5625 28 32.625 27.9375 32.6875 27.875C33.5198 27.8125 34.3532 27.7917 35.1875 27.8125Z" fill="#AFC2ED"/>
<path fill-rule="evenodd" clip-rule="evenodd" d="M41.5616 27.1875C41.5616 27.8125 41.5616 28.4375 41.5616 29.0625C42.3533 29.0625 43.145 29.0625 43.9366 29.0625C49.895 29.0625 55.8533 29.0625 61.8116 29.0625C61.8116 29.1041 61.8116 29.1459 61.8116 29.1875C55.8533 29.1875 49.895 29.1875 43.9366 29.1875C43.1033 29.1875 42.27 29.1875 41.4366 29.1875C41.3965 28.4967 41.4381 27.83 41.5616 27.1875Z" fill="#FCD285"/>
<path fill-rule="evenodd" clip-rule="evenodd" d="M41.4375 29.1875C42.2709 29.1875 43.1041 29.1875 43.9375 29.1875C43.9375 29.6875 43.9375 30.1875 43.9375 30.6875C43.7758 30.7862 43.6299 30.9112 43.5 31.0625C43.4166 32.9375 43.4166 34.8125 43.5 36.6875C43.5468 36.802 43.6093 36.9062 43.6875 37C44.5198 37.0625 45.3531 37.0833 46.1875 37.0625C46.2709 37.0625 46.3541 37.0625 46.4375 37.0625C45.6276 37.1864 44.7943 37.228 43.9375 37.1875C43.9166 42.3544 43.9375 47.521 44 52.6875C44.1306 52.7966 44.2348 52.9216 44.3125 53.0625C43.4781 53.0833 42.6448 53.0625 41.8125 53C41.6624 52.8871 41.5581 52.7414 41.5 52.5625C41.4375 44.771 41.4166 36.9792 41.4375 29.1875Z" fill="#D7E8FA"/>
<path fill-rule="evenodd" clip-rule="evenodd" d="M43.9375 29.1875C49.8959 29.1875 55.8541 29.1875 61.8125 29.1875C61.8334 37.0626 61.8125 44.9376 61.75 52.8125C61.6875 52.875 61.625 52.9375 61.5625 53C55.8126 53.0625 50.0626 53.0834 44.3125 53.0625C44.2348 52.9216 44.1306 52.7966 44 52.6875C43.9375 47.521 43.9166 42.3544 43.9375 37.1875C44.7943 37.228 45.6276 37.1864 46.4375 37.0625C50.8128 37.0834 55.1878 37.0625 59.5625 37C59.6666 36.8959 59.7709 36.7916 59.875 36.6875C59.9584 34.8125 59.9584 32.9375 59.875 31.0625C59.7709 30.9584 59.6666 30.8541 59.5625 30.75C55.146 30.6875 50.7294 30.6666 46.3125 30.6875C45.5209 30.6875 44.7291 30.6875 43.9375 30.6875C43.9375 30.1875 43.9375 29.6875 43.9375 29.1875Z" fill="#FEFEFE"/>
<path fill-rule="evenodd" clip-rule="evenodd" d="M43.9375 30.6875C44.7292 30.6875 45.5209 30.6875 46.3125 30.6875C46.1914 30.7886 46.0873 30.9136 46 31.0625C45.9167 32.9375 45.9167 34.8125 46 36.6875C46.0642 36.8159 46.1267 36.9409 46.1875 37.0625C45.3532 37.0833 44.5198 37.0625 43.6875 37C43.6093 36.9062 43.5468 36.802 43.5 36.6875C43.4167 34.8125 43.4167 32.9375 43.5 31.0625C43.6299 30.9112 43.7758 30.7863 43.9375 30.6875Z" fill="#AEC1ED"/>
<path fill-rule="evenodd" clip-rule="evenodd" d="M46.3125 30.6875C50.7294 30.6666 55.146 30.6875 59.5625 30.75C59.6667 30.8541 59.7709 30.9584 59.875 31.0625C59.9584 32.9375 59.9584 34.8125 59.875 36.6875C59.7709 36.7916 59.6667 36.8959 59.5625 37C55.1878 37.0625 50.8128 37.0834 46.4375 37.0625C46.3542 37.0625 46.2709 37.0625 46.1875 37.0625C46.1267 36.9409 46.0642 36.8159 46 36.6875C45.9167 34.8125 45.9167 32.9375 46 31.0625C46.0873 30.9136 46.1914 30.7886 46.3125 30.6875Z" fill="#C3DDF4"/>
<path fill-rule="evenodd" clip-rule="evenodd" d="M10.6873 30.9375C14.3125 30.9166 17.9375 30.9375 21.5623 31C22.3293 31.3343 22.496 31.855 22.0623 32.5625C21.9166 32.698 21.75 32.8021 21.5623 32.875C17.9373 32.9584 14.3123 32.9584 10.6873 32.875C9.94348 32.5654 9.75598 32.0446 10.1248 31.3125C10.3312 31.2001 10.5187 31.0751 10.6873 30.9375Z" fill="#68C4DA"/>
<path fill-rule="evenodd" clip-rule="evenodd" d="M24.0622 30.9375C25.9794 30.9166 27.896 30.9375 29.8122 31C30.427 31.2389 30.6561 31.6764 30.4997 32.3125C30.3464 32.5908 30.1171 32.7783 29.8122 32.875C27.8956 32.9584 25.9789 32.9584 24.0622 32.875C23.3185 32.5654 23.131 32.0446 23.4997 31.3125C23.7062 31.2001 23.8937 31.0751 24.0622 30.9375Z" fill="#67C4DA"/>
<path fill-rule="evenodd" clip-rule="evenodd" d="M10.4381 34.0625C14.23 34.0416 18.0216 34.0625 21.8131 34.125C22.339 34.5088 22.4431 34.9879 22.1256 35.5625C21.9792 35.7366 21.7917 35.8409 21.5631 35.875C17.8547 35.9584 14.1465 35.9584 10.4381 35.875C9.77584 35.2615 9.77584 34.6573 10.4381 34.0625Z" fill="#5EC1D8"/>
<path fill-rule="evenodd" clip-rule="evenodd" d="M23.812 34.0625C25.8957 34.0416 27.9791 34.0625 30.062 34.125C30.5878 34.5088 30.692 34.9879 30.3745 35.5625C30.2281 35.7366 30.0406 35.8409 29.812 35.875C27.812 35.9584 25.812 35.9584 23.812 35.875C23.1512 35.2711 23.1512 34.6669 23.812 34.0625Z" fill="#5FC1D8"/>
<path fill-rule="evenodd" clip-rule="evenodd" d="M47.0633 38.6875C50.147 38.6666 53.2303 38.6875 56.3133 38.75C56.9787 39.3275 56.9787 39.9108 56.3133 40.5C53.23 40.5834 50.1467 40.5834 47.0633 40.5C46.2341 39.8794 46.2341 39.2753 47.0633 38.6875Z" fill="#5EC1D8"/>
<path fill-rule="evenodd" clip-rule="evenodd" d="M27.437 40.1875C29.0411 40.0215 29.812 40.7298 29.7495 42.3125C29.3246 43.3713 28.5538 43.7672 27.437 43.5C25.9429 42.3915 25.9429 41.2872 27.437 40.1875Z" fill="#435D9F"/>
<path fill-rule="evenodd" clip-rule="evenodd" d="M47.0637 41.5625C50.1473 41.5416 53.2307 41.5625 56.3137 41.625C56.9803 42.2084 56.9803 42.7916 56.3137 43.375C53.2303 43.4584 50.1471 43.4584 47.0637 43.375C46.2392 42.7666 46.2392 42.1625 47.0637 41.5625Z" fill="#5EC1D8"/>
<path fill-rule="evenodd" clip-rule="evenodd" d="M47.0625 44.4375C50.0628 44.4166 53.0627 44.4375 56.0625 44.5C56.827 44.7901 57.0145 45.311 56.625 46.0625C56.5312 46.1408 56.427 46.2033 56.3125 46.25C53.2291 46.3334 50.1459 46.3334 47.0625 46.25C46.6619 46.0731 46.4535 45.7606 46.4375 45.3125C46.555 44.9514 46.7632 44.6598 47.0625 44.4375Z" fill="#5FC1D8"/>
<path fill-rule="evenodd" clip-rule="evenodd" d="M23.1875 44.9375C23.9791 44.9375 24.7709 44.9375 25.5625 44.9375C25.5625 46.5625 25.5625 48.1875 25.5625 49.8125C24.7709 49.8125 23.9791 49.8125 23.1875 49.8125C23.1875 48.1875 23.1875 46.5625 23.1875 44.9375Z" fill="#2D4B88"/>
<path fill-rule="evenodd" clip-rule="evenodd" d="M25.5625 44.9375C28.0209 44.9375 30.4791 44.9375 32.9375 44.9375C32.9375 46.5625 32.9375 48.1875 32.9375 49.8125C30.4791 49.8125 28.0209 49.8125 25.5625 49.8125C25.5625 48.1875 25.5625 46.5625 25.5625 44.9375Z" fill="#435D9F"/>
<path fill-rule="evenodd" clip-rule="evenodd" d="M46.1875 48.4374C46.9387 48.4167 47.6887 48.4376 48.4375 48.4999C48.375 48.5624 48.3125 48.6249 48.25 48.6874C48.1667 49.6041 48.1667 50.5208 48.25 51.4374C48.3125 51.4999 48.375 51.5624 48.4375 51.6249C47.6887 51.6873 46.9387 51.7082 46.1875 51.6874C45.9979 51.6861 45.852 51.6028 45.75 51.4374C45.6667 50.5208 45.6667 49.6041 45.75 48.6874C45.852 48.5221 45.9979 48.4388 46.1875 48.4374Z" fill="#AEC1ED"/>
<path fill-rule="evenodd" clip-rule="evenodd" d="M46.1875 48.4375C46.5811 48.3544 46.9978 48.3128 47.4375 48.3125C50.7701 48.4047 54.1034 48.4673 57.4375 48.5C57.5 48.5625 57.5625 48.625 57.625 48.6875C57.7084 49.5625 57.7084 50.4375 57.625 51.3125C57.5625 51.4584 57.4584 51.5625 57.3125 51.625C54.0201 51.6579 50.7284 51.7204 47.4375 51.8125C46.9978 51.8122 46.5811 51.7706 46.1875 51.6875C46.9386 51.7083 47.6886 51.6874 48.4375 51.625C48.375 51.5625 48.3125 51.5 48.25 51.4375C48.1666 50.5209 48.1666 49.6041 48.25 48.6875C48.3125 48.625 48.375 48.5625 48.4375 48.5C47.6886 48.4376 46.9386 48.4167 46.1875 48.4375Z" fill="#C3DDF4"/>
<path fill-rule="evenodd" clip-rule="evenodd" d="M5.5625 44.9375C11.4375 44.7708 17.3125 44.7708 23.1875 44.9375C23.1875 46.5625 23.1875 48.1875 23.1875 49.8125C21.4791 49.8125 19.7709 49.8125 18.0625 49.8125C17.3125 49.8125 16.5625 49.8125 15.8125 49.8125C18.2074 49.6878 20.6241 49.6462 23.0625 49.6875C23.0625 48.1041 23.0625 46.5208 23.0625 44.9375C17.2291 44.9375 11.3958 44.9375 5.5625 44.9375Z" fill="#4F91C8"/>
<path fill-rule="evenodd" clip-rule="evenodd" d="M39.4375 44.8125C39.4375 44.8541 39.4375 44.8959 39.4375 44.9375C37.3125 44.9375 35.1875 44.9375 33.0625 44.9375C33.0625 46.5209 33.0625 48.1041 33.0625 49.6875C35.1875 49.6875 37.3125 49.6875 39.4375 49.6875C39.4375 49.7291 39.4375 49.7709 39.4375 49.8125C37.2709 49.8125 35.1041 49.8125 32.9375 49.8125C32.9375 48.1875 32.9375 46.5625 32.9375 44.9375C35.0824 44.8129 37.249 44.7713 39.4375 44.8125Z" fill="#549AD1"/>
<path fill-rule="evenodd" clip-rule="evenodd" d="M15.8125 49.8125C16.5625 49.8125 17.3125 49.8125 18.0625 49.8125C17.9848 49.9534 17.8807 50.0784 17.75 50.1875C17.6667 51.3959 17.6667 52.6041 17.75 53.8125C17.8125 53.9584 17.9167 54.0625 18.0625 54.125C17.2719 54.1875 16.4803 54.2083 15.6875 54.1875C15.4487 54.1782 15.3028 54.0532 15.25 53.8125C15.1667 52.6041 15.1667 51.3959 15.25 50.1875C15.3912 49.9824 15.5787 49.8574 15.8125 49.8125Z" fill="#1B2C64"/>
<path fill-rule="evenodd" clip-rule="evenodd" d="M18.0625 49.8125C19.7709 49.8125 21.4791 49.8125 23.1875 49.8125C23.9791 49.8125 24.7709 49.8125 25.5625 49.8125C28.0209 49.8125 30.4791 49.8125 32.9375 49.8125C35.1041 49.8125 37.2709 49.8125 39.4375 49.8125C39.4375 51.2709 39.4375 52.7291 39.4375 54.1875C32.333 54.146 25.2498 54.1876 18.1875 54.3125C17.3307 54.353 16.4974 54.3114 15.6875 54.1875C16.4803 54.2083 17.2719 54.1875 18.0625 54.125C17.9166 54.0625 17.8125 53.9584 17.75 53.8125C17.6666 52.6041 17.6666 51.3959 17.75 50.1875C17.8806 50.0784 17.9848 49.9534 18.0625 49.8125Z" fill="#293D7C"/>
</g>
<defs>
<clipPath id="clip0_18104_28879">
<rect width="64" height="64" fill="white"/>
</clipPath>
</defs>
</svg>
