<svg width="50" height="50" viewBox="0 0 50 50" fill="none" xmlns="http://www.w3.org/2000/svg">
<path d="M43.2984 50H6.69844C4.89844 50 3.39844 48.5 3.39844 46.7V23.3C3.39844 21.5 4.89844 20 6.69844 20H43.3984C45.1984 20 46.6984 21.5 46.6984 23.3V46.6C46.6984 48.5 45.1984 50 43.2984 50Z" fill="#0054A6"/>
<path d="M42.4953 46.7H7.49531C6.99531 46.7 6.69531 46.3 6.69531 45.9V24.2C6.69531 23.7 7.09531 23.4 7.49531 23.4H42.4953C42.9953 23.4 43.2953 23.8 43.2953 24.2V45.9C43.2953 46.3 42.9953 46.7 42.4953 46.7Z" fill="#D2D9DC"/>
<path d="M29.1953 37.5H24.9953C24.4953 37.5 24.1953 37.1 24.1953 36.7V25.8C24.1953 25.3 24.5953 25 24.9953 25C25.3953 25 25.7953 25.4 25.7953 25.8V35.8H29.0953C29.5953 35.8 29.8953 36.2 29.8953 36.6C29.8953 37 29.5953 37.5 29.1953 37.5Z" fill="#002548"/>
<path d="M25 37.5H20.8C20.3 37.5 20 37.1 20 36.7C20 36.3 20.4 35.9 20.8 35.9H24.1V25.9C24.1 25.4 24.5 25.1 24.9 25.1C25.3 25.1 25.7 25.5 25.7 25.9V36.7C25.8 37.1 25.5 37.5 25 37.5Z" fill="#002548"/>
<path d="M32.6 11.9L31.5 11.6C31.3 11 31.1 10.5 30.8 9.99995L31.4 8.99995C31.6 8.69995 31.5 8.39995 31.3 8.19995L30.1 6.99995C29.9 6.79995 29.5 6.69995 29.3 6.89995L28.4 7.49995C27.9 7.19995 27.3 6.99995 26.8 6.79995L26.5 5.69995C26.4 5.39995 26.2 5.19995 25.9 5.19995H24.3C24 5.19995 23.7 5.39995 23.6 5.69995L23.3 6.79995C22.7 6.99995 22.2 7.19995 21.7 7.49995L20.8 6.89995C20.5 6.69995 20.2 6.79995 20 6.99995L18.8 8.19995C18.6 8.39995 18.5 8.79995 18.7 8.99995L19.3 9.89995C19 10.4 18.8 10.9 18.6 11.5L17.5 11.8C17.2 11.9 17 12.1 17 12.5V14.1C17 14.4 17.2 14.7 17.5 14.8L18.6 15.1C18.8 15.7 19 16.2 19.3 16.7L18.7 17.6C18.5 17.9 18.6 18.2 18.8 18.4L20 19.6C20.2 19.8 20.6 19.9 20.8 19.7L21.7 19.1C22.2 19.4 22.7 19.6 23.3 19.8L23.6 20.9C23.7 21.2 23.9 21.4 24.3 21.4H25.9C26.2 21.4 26.5 21.2 26.5 20.9L26.8 19.8C27.4 19.6 27.9 19.4 28.4 19.1L29.3 19.7C29.6 19.9 29.9 19.8 30.1 19.6L31.3 18.4C31.5 18.2 31.6 17.8 31.4 17.6L30.8 16.7C31.1 16.2 31.3 15.6 31.5 15.1L32.6 14.8C32.9 14.7 33.1 14.5 33.1 14.1V12.5C33.1 12.2 32.9 11.9 32.6 11.9ZM25 17.4C22.8 17.4 21 15.6 21 13.4C21 11.2 22.8 9.39995 25 9.39995C27.2 9.39995 29 11.2 29 13.4C29 15.6 27.2 17.4 25 17.4Z" fill="#839299"/>
<path d="M24.9953 26.7C17.5953 26.7 11.6953 20.7 11.6953 13.4C11.6953 6.1 17.5953 0 24.9953 0C32.3953 0 38.2953 6 38.2953 13.3C38.2953 20.6 32.3953 26.7 24.9953 26.7ZM24.9953 1.7C18.5953 1.7 13.2953 6.9 13.2953 13.4C13.2953 19.9 18.5953 25 24.9953 25C31.3953 25 36.6953 19.8 36.6953 13.3C36.6953 6.8 31.3953 1.7 24.9953 1.7Z" fill="#002548"/>
<path d="M14.9953 42.5C18.1986 42.5 20.7953 39.9033 20.7953 36.7C20.7953 33.4968 18.1986 30.9 14.9953 30.9C11.7921 30.9 9.19531 33.4968 9.19531 36.7C9.19531 39.9033 11.7921 42.5 14.9953 42.5Z" fill="#F9FAFB"/>
<path d="M14.9969 43.3C11.2969 43.3 8.29688 40.3 8.29688 36.6C8.29688 32.9 11.2969 29.9 14.9969 29.9C18.6969 29.9 21.6969 32.9 21.6969 36.6C21.6969 40.3 18.6969 43.3 14.9969 43.3ZM14.9969 31.7C12.1969 31.7 9.99687 33.9 9.99687 36.7C9.99687 39.5 12.1969 41.7 14.9969 41.7C17.7969 41.7 19.9969 39.5 19.9969 36.7C19.9969 33.9 17.7969 31.7 14.9969 31.7Z" fill="#54CC5A"/>
<path d="M34.9953 42.5C38.1986 42.5 40.7953 39.9033 40.7953 36.7C40.7953 33.4968 38.1986 30.9 34.9953 30.9C31.7921 30.9 29.1953 33.4968 29.1953 36.7C29.1953 39.9033 31.7921 42.5 34.9953 42.5Z" fill="#F9FAFB"/>
<path d="M34.9969 43.3C31.2969 43.3 28.2969 40.3 28.2969 36.6C28.2969 32.9 31.2969 29.9 34.9969 29.9C38.6969 29.9 41.6969 32.9 41.6969 36.6C41.6969 40.3 38.6969 43.3 34.9969 43.3ZM34.9969 31.7C32.1969 31.7 29.9969 33.9 29.9969 36.7C29.9969 39.5 32.1969 41.7 34.9969 41.7C37.7969 41.7 39.9969 39.5 39.9969 36.7C39.9969 33.9 37.7969 31.7 34.9969 31.7Z" fill="#ED1C24"/>
<path d="M14.1969 39.2C13.9969 39.2 13.7969 39.1 13.5969 39L11.8969 37.3C11.5969 37 11.5969 36.4 11.8969 36.1C12.1969 35.8 12.7969 35.8 13.0969 36.1L14.1969 37.2L16.8969 34.5C17.1969 34.2 17.7969 34.2 18.0969 34.5C18.3969 34.8 18.3969 35.4 18.0969 35.7L14.7969 39C14.5969 39.1 14.3969 39.2 14.1969 39.2Z" fill="#54CC5A"/>
<path d="M36.1953 36.7L37.6953 35.2C37.9953 34.9 37.9953 34.3 37.6953 34C37.3953 33.7 36.7953 33.7 36.4953 34L34.9953 35.5L33.4953 34C33.1953 33.7 32.5953 33.7 32.2953 34C31.9953 34.3 31.9953 34.9 32.2953 35.2L33.7953 36.7L32.2953 38.2C31.9953 38.5 31.9953 39.1 32.2953 39.4C32.4953 39.6 32.6953 39.6 32.8953 39.6C33.0953 39.6 33.2953 39.5 33.4953 39.4L34.9953 37.9L36.4953 39.4C36.6953 39.6 36.8953 39.6 37.0953 39.6C37.2953 39.6 37.4953 39.5 37.6953 39.4C37.9953 39.1 37.9953 38.5 37.6953 38.2L36.1953 36.7Z" fill="#ED1C24"/>
</svg>
