<svg width="50" height="50" viewBox="0 0 50 50" fill="none" xmlns="http://www.w3.org/2000/svg">
<path d="M39.151 33.9064C38.7342 33.9064 38.3965 33.5687 38.3965 33.152V22.7867C38.3965 22.37 38.7343 22.0322 39.151 22.0322C39.5677 22.0322 39.9055 22.37 39.9055 22.7867V33.152C39.9056 33.5687 39.5678 33.9064 39.151 33.9064Z" fill="#FFE077"/>
<path d="M15.4512 25.7831L13.4502 25.7847L7.37817 23.3432C6.65649 23.0531 6.65649 21.8803 7.37817 21.5902L24.4657 14.7195C24.8114 14.5805 25.1878 14.5805 25.5335 14.7195C26.7326 15.2016 42.9042 21.704 42.621 21.5902C43.3427 21.8803 43.3427 23.0531 42.621 23.3432L36.549 25.7846L34.5479 26.0388L15.4512 25.7831Z" fill="#766E7A"/>
<path d="M36.5488 22.8228V25.7846L34.5367 26.6014H15.4623L13.4502 25.7845V22.8227C13.4502 21.4917 14.5337 20.4082 15.8646 20.4082H34.1343C35.4653 20.4083 36.5488 21.4918 36.5488 22.8228Z" fill="#665F6D"/>
<path d="M34.2977 33.0457L33.9946 23.0327C33.9946 22.8104 33.8145 22.6303 33.5922 22.6303L31.7204 22.4204H15.8657C15.6435 22.4204 15.4633 22.6006 15.4633 22.8229L15.4629 26.6017L16.7619 28.1636L15.4634 29.6138V33.5043C15.4634 33.7266 15.6436 33.9067 15.8658 33.9067H31.7205L33.8962 33.4473C34.1179 33.4472 34.2977 33.2675 34.2977 33.0457Z" fill="#857E87"/>
<path d="M34.5376 22.8229V26.6015L33.6777 27.9846L34.5376 29.6135V33.5038C34.5376 33.7262 34.3585 33.9062 34.1362 33.9062H31.7207V22.4204H34.1352C34.3575 22.4204 34.5376 22.6005 34.5376 22.8229Z" fill="#766E7A"/>
<path d="M15.4629 26.6016H33.5923V29.6137H15.4629V26.6016Z" fill="#FFE077"/>
<path d="M31.7207 26.6016H34.5376V29.6137H31.7207V26.6016Z" fill="#FFD05B"/>
<path d="M42.7404 7.72634C42.5483 7.53425 42.0909 6.89763 42.0712 6.87937C41.8201 6.64529 41.5308 6.24148 41.2726 6.01961C31.4499 -2.41975 16.6293 -1.98528 7.32122 7.32312C-1.96862 16.6152 -2.41706 31.3993 5.97278 41.2235C6.19212 41.4499 6.46341 41.6919 6.6723 41.9191C6.6721 41.9189 6.67249 41.9193 6.6723 41.9191C18.4017 51.2597 31.3613 51.88 41.3724 41.8369C51.1352 32.0718 52.5032 17.4915 42.7404 7.72634ZM10.1673 10.1696C17.8519 2.48396 30.0152 2.00857 38.2546 8.74324C38.3008 8.78103 38.3042 8.85105 38.262 8.89324L36.0793 11.0762C35.3821 11.7736 35.2927 12.8735 35.8682 13.6743C36.5926 14.6823 38.0478 14.8006 38.9254 13.9227L41.1081 11.7397C41.1133 11.7346 41.1394 11.71 41.1801 11.7102C41.2005 11.7103 41.2166 11.7169 41.2294 11.7243C41.24 11.7303 41.25 11.7372 41.2582 11.7471C47.992 19.9878 47.5166 32.1527 39.8321 39.8384C32.1475 47.524 19.9842 47.9994 11.7448 41.2647C11.7284 41.2342 11.6744 41.2101 11.7373 41.1147C13.0351 39.8168 12.3875 40.4643 13.6854 39.1664C14.551 38.3007 14.4497 36.869 13.471 36.1338C12.6698 35.5318 11.5479 35.6112 10.8393 36.3199L8.89124 38.2681C8.84905 38.3103 8.77904 38.3069 8.74124 38.2607C2.00736 30.0202 2.48275 17.8552 10.1673 10.1696Z" fill="#FF7E92"/>
<path d="M42.6783 42.685C32.6671 52.7286 16.1579 52.3905 6.58437 41.9132C6.3751 41.6868 6.17188 41.4563 5.97266 41.2239C15.1056 48.9957 28.7013 49.1305 37.9991 41.4715C38.634 40.9694 39.2456 40.4251 39.8321 39.8385C40.4438 39.2268 41.0103 38.5857 41.5304 37.9207C41.5374 37.9127 41.5444 37.9036 41.5515 37.8945C49.1159 28.5924 48.9952 15.1196 41.1903 5.94922C41.4771 6.19268 41.7598 6.44424 42.0374 6.70381C42.0565 6.72197 42.0746 6.74209 42.0937 6.76016C42.2909 6.94434 42.4861 7.13145 42.6782 7.32363C52.4409 17.0887 52.4409 32.9199 42.6783 42.685Z" fill="#FF5F7A"/>
</svg>
