<svg width="1600" height="417" viewBox="0 0 1600 417" fill="none" xmlns="http://www.w3.org/2000/svg">
<mask id="mask0_12920_129868" style="mask-type:luminance" maskUnits="userSpaceOnUse" x="0" y="0" width="1600" height="417">
<path d="M1600 0H0V417H1600V0Z" fill="white"/>
</mask>
<g mask="url(#mask0_12920_129868)">
<path d="M1600.5 234.987C1785.24 234.987 1935 133.277 1935 7.8105C1935 -117.656 1785.24 -219.366 1600.5 -219.366C1415.76 -219.366 1266 -117.656 1266 7.8105C1266 133.277 1415.76 234.987 1600.5 234.987Z" fill="#0054A6"/>
</g>
<mask id="mask1_12920_129868" style="mask-type:luminance" maskUnits="userSpaceOnUse" x="0" y="0" width="1600" height="319">
<path d="M1600 0H0V318.523H1600V0Z" fill="white"/>
</mask>
<g mask="url(#mask1_12920_129868)">
<path d="M245 -434.337V13.3583" stroke="#0054A6" stroke-width="2" stroke-miterlimit="10"/>
<path d="M203.5 -412.809V34.8871" stroke="#0054A6" stroke-width="2" stroke-miterlimit="10"/>
<path d="M162 -391.28V56.4159" stroke="#0054A6" stroke-width="2" stroke-miterlimit="10"/>
<path d="M120.5 -369.751V77.9447" stroke="#0054A6" stroke-width="2" stroke-miterlimit="10"/>
<path d="M79 -348.222V99.4735" stroke="#0054A6" stroke-width="2" stroke-miterlimit="10"/>
<path d="M37.5 -326.693V121.002" stroke="#0054A6" stroke-width="2" stroke-miterlimit="10"/>
</g>
<mask id="mask2_12920_129868" style="mask-type:luminance" maskUnits="userSpaceOnUse" x="0" y="0" width="1600" height="319">
<path d="M1600 0H0V318.523H1600V0Z" fill="white"/>
</mask>
<g mask="url(#mask2_12920_129868)">
<path opacity="0.1" d="M1599.5 536.497C1502.21 536.497 1423.05 482.742 1423.05 416.66C1423.05 350.579 1502.2 296.824 1599.5 296.824C1696.8 296.824 1775.95 350.579 1775.95 416.66C1775.95 482.742 1696.79 536.497 1599.5 536.497ZM1599.5 298.304C1503.41 298.304 1425.23 351.4 1425.23 416.66C1425.23 481.92 1503.41 535.016 1599.5 535.016C1695.59 535.016 1773.77 481.92 1773.77 416.66C1773.77 351.4 1695.59 298.304 1599.5 298.304Z" fill="white"/>
<path opacity="0.1" d="M1599.5 572.608C1472.88 572.608 1369.88 502.648 1369.88 416.661C1369.88 330.673 1472.89 260.713 1599.5 260.713C1726.11 260.713 1829.12 330.673 1829.12 416.661C1829.12 502.648 1726.12 572.608 1599.5 572.608ZM1599.5 262.187C1474.08 262.187 1372.05 331.481 1372.05 416.661C1372.05 501.84 1474.08 571.134 1599.5 571.134C1724.92 571.134 1826.95 501.84 1826.95 416.661C1826.95 331.481 1724.92 262.187 1599.5 262.187Z" fill="white"/>
<path opacity="0.1" d="M1599.5 608.725C1523.96 608.725 1452.94 588.744 1399.53 552.471C1346.12 516.197 1316.7 467.964 1316.7 416.661C1316.7 365.357 1346.12 317.124 1399.53 280.85C1452.94 244.577 1523.96 224.596 1599.5 224.596C1675.04 224.596 1746.06 244.577 1799.47 280.85C1852.88 317.124 1882.3 365.357 1882.3 416.661C1882.3 467.964 1852.88 516.197 1799.47 552.471C1746.06 588.744 1675.04 608.725 1599.5 608.725ZM1599.5 226.077C1524.54 226.077 1454.07 245.901 1401.07 281.896C1348.07 317.891 1318.88 365.751 1318.88 416.661C1318.88 467.57 1348.07 515.43 1401.07 551.425C1454.07 587.42 1524.54 607.245 1599.5 607.245C1674.46 607.245 1744.93 587.42 1797.93 551.425C1850.93 515.43 1880.12 467.57 1880.12 416.661C1880.12 365.751 1850.93 317.891 1797.93 281.896C1744.93 245.901 1674.46 226.077 1599.5 226.077Z" fill="white"/>
<path opacity="0.1" d="M1599.5 644.835C1509.76 644.835 1425.39 621.099 1361.93 578.006C1298.47 534.914 1263.53 477.607 1263.53 416.66C1263.53 355.713 1298.48 298.413 1361.93 255.314C1425.38 212.214 1509.76 188.485 1599.5 188.485C1689.24 188.485 1773.61 212.221 1837.07 255.314C1900.53 298.406 1935.47 355.713 1935.47 416.66C1935.47 477.607 1900.52 534.907 1837.07 578.006C1773.62 621.105 1689.24 644.835 1599.5 644.835ZM1599.5 189.959C1510.34 189.959 1426.52 213.539 1363.47 256.359C1300.42 299.18 1265.7 356.107 1265.7 416.66C1265.7 477.213 1300.42 534.14 1363.47 576.96C1426.52 619.781 1510.34 643.361 1599.5 643.361C1688.66 643.361 1772.48 619.781 1835.53 576.96C1898.58 534.14 1933.3 477.213 1933.3 416.66C1933.3 356.107 1898.58 299.18 1835.53 256.359C1772.48 213.539 1688.66 189.959 1599.5 189.959Z" fill="white"/>
<path opacity="0.1" d="M1599.5 680.953C1546.97 680.953 1496 673.964 1448.03 660.184C1401.69 646.873 1360.07 627.816 1324.33 603.543C1288.59 579.27 1260.53 551.003 1240.93 519.531C1220.64 486.946 1210.35 452.336 1210.35 416.66C1210.35 380.984 1220.64 346.368 1240.93 313.789C1260.53 282.317 1288.59 254.05 1324.33 229.778C1360.07 205.505 1401.69 186.448 1448.03 173.136C1496.01 159.356 1546.97 152.368 1599.5 152.368C1652.03 152.368 1703 159.356 1750.97 173.136C1797.31 186.448 1838.93 205.505 1874.67 229.778C1910.41 254.05 1938.47 282.317 1958.07 313.789C1978.36 346.375 1988.65 380.984 1988.65 416.66C1988.65 452.336 1978.36 486.952 1958.07 519.531C1938.47 551.003 1910.41 579.27 1874.67 603.543C1838.93 627.816 1797.31 646.873 1750.97 660.184C1703 673.964 1652.03 680.953 1599.5 680.953ZM1599.5 153.848C1496.14 153.848 1398.96 181.184 1325.87 230.823C1252.78 280.463 1212.53 346.463 1212.53 416.66C1212.53 486.857 1252.78 552.857 1325.87 602.497C1398.96 652.136 1496.14 679.472 1599.5 679.472C1702.86 679.472 1800.04 652.136 1873.13 602.497C1946.22 552.857 1986.47 486.857 1986.47 416.66C1986.47 346.463 1946.22 280.463 1873.13 230.823C1800.04 181.184 1702.86 153.848 1599.5 153.848Z" fill="white"/>
<path opacity="0.1" d="M1599.5 717.063C1539.79 717.063 1481.86 709.117 1427.33 693.456C1374.66 678.324 1327.35 656.666 1286.73 629.079C1246.11 601.492 1214.21 569.361 1191.94 533.59C1168.87 496.556 1157.18 457.213 1157.18 416.66C1157.18 376.108 1168.88 336.765 1191.94 299.731C1214.22 263.96 1246.11 231.829 1286.73 204.242C1327.35 176.654 1374.66 154.989 1427.33 139.865C1481.86 124.197 1539.79 116.257 1599.5 116.257C1659.21 116.257 1717.14 124.203 1771.67 139.865C1824.34 154.996 1871.65 176.654 1912.27 204.242C1952.89 231.829 1984.79 263.96 2007.06 299.731C2030.13 336.765 2041.82 376.108 2041.82 416.66C2041.82 457.213 2030.12 496.556 2007.06 533.59C1984.78 569.361 1952.89 601.492 1912.27 629.079C1871.65 656.666 1824.34 678.331 1771.67 693.456C1717.14 709.124 1659.21 717.063 1599.5 717.063ZM1599.5 117.731C1540.08 117.731 1482.44 125.636 1428.17 141.223C1375.76 156.28 1328.69 177.836 1288.26 205.287C1247.83 232.739 1216.1 264.707 1193.93 300.308C1170.98 337.159 1159.34 376.312 1159.34 416.667C1159.34 457.022 1170.98 496.169 1193.93 533.026C1216.1 568.621 1247.84 600.589 1288.26 628.047C1328.68 655.505 1375.75 677.054 1428.17 692.111C1482.43 707.698 1540.08 715.603 1599.5 715.603C1658.92 715.603 1716.56 707.698 1770.83 692.111C1823.24 677.054 1870.31 655.498 1910.74 628.047C1951.17 600.595 1982.9 568.628 2005.07 533.026C2028.02 496.176 2039.66 457.022 2039.66 416.667C2039.66 376.312 2028.02 337.165 2005.07 300.308C1982.9 264.713 1951.16 232.746 1910.74 205.287C1870.32 177.829 1823.25 156.28 1770.83 141.223C1716.56 125.636 1658.92 117.731 1599.5 117.731Z" fill="white"/>
<path opacity="0.1" d="M1599.5 753.181C1532.61 753.181 1467.72 744.284 1406.63 726.735C1347.63 709.783 1294.64 685.524 1249.13 654.615C1203.62 623.707 1167.9 587.719 1142.94 547.649C1117.1 506.159 1104 462.089 1104 416.66C1104 371.232 1117.1 327.162 1142.94 285.672C1167.9 245.602 1203.62 209.614 1249.13 178.706C1294.64 147.797 1347.63 123.538 1406.63 106.586C1467.72 89.037 1532.61 80.1401 1599.5 80.1401C1666.39 80.1401 1731.28 89.037 1792.37 106.586C1851.37 123.538 1904.36 147.797 1949.87 178.706C1995.38 209.614 2031.1 245.602 2056.06 285.672C2081.9 327.162 2095 371.232 2095 416.66C2095 462.089 2081.9 506.159 2056.06 547.649C2031.1 587.719 1995.38 623.707 1949.87 654.615C1904.36 685.524 1851.37 709.783 1792.37 726.735C1731.28 744.284 1666.39 753.181 1599.5 753.181ZM1599.5 81.6207C1532.9 81.6207 1468.3 90.4768 1407.48 107.951C1348.74 124.828 1295.98 148.986 1250.67 179.752C1205.36 210.524 1169.79 246.349 1144.95 286.25C1119.23 327.556 1106.18 371.429 1106.18 416.66C1106.18 461.892 1119.22 505.772 1144.95 547.071C1169.8 586.965 1205.37 622.797 1250.67 653.569C1295.98 684.342 1348.73 708.499 1407.48 725.37C1468.3 742.837 1532.9 751.7 1599.5 751.7C1666.1 751.7 1730.7 742.844 1791.52 725.37C1850.26 708.493 1903.02 684.335 1948.33 653.569C1993.64 622.797 2029.21 586.972 2054.05 547.071C2079.77 505.765 2092.82 461.892 2092.82 416.66C2092.82 371.429 2079.78 327.549 2054.05 286.25C2029.2 246.356 1993.63 210.524 1948.33 179.752C1903.02 148.979 1850.27 124.822 1791.52 107.951C1730.7 90.4768 1666.1 81.6207 1599.5 81.6207Z" fill="white"/>
</g>
</svg>
