<svg width="472" height="660" viewBox="0 0 472 660" fill="none" xmlns="http://www.w3.org/2000/svg">
<g opacity="0.6">
<path d="M357.714 81.609C360.796 78.5269 364.875 76.9859 368.954 76.9859C373.033 76.9859 377.113 78.5269 380.195 81.609L412.193 113.608L444.192 81.609C447.274 78.5269 451.353 76.9859 455.432 76.9859C459.511 76.9859 463.591 78.5269 466.673 81.609C472.837 87.8636 472.837 97.9256 466.673 104.18L412.103 158.75L357.533 104.18C351.459 97.9256 351.459 87.8636 357.714 81.609Z" fill="white"/>
</g>
<g opacity="0.7">
<path d="M357.714 4.62312C360.796 1.54109 364.875 9.91821e-05 368.954 9.91821e-05C373.033 9.91821e-05 377.113 1.54109 380.195 4.62312L412.193 36.6218L444.192 4.62312C447.274 1.54109 451.353 9.91821e-05 455.432 9.91821e-05C459.511 9.91821e-05 463.591 1.54109 466.673 4.62312C472.837 10.8778 472.837 20.9397 466.673 27.1944L412.103 81.7644L357.533 27.1944C351.459 20.9397 351.459 10.8778 357.714 4.62312Z" fill="white"/>
</g>
<g opacity="0.45">
<path d="M357.714 168.631C360.796 165.549 364.875 164.008 368.954 164.008C373.033 164.008 377.113 165.549 380.195 168.631L412.193 200.629L444.192 168.631C447.274 165.549 451.353 164.008 455.432 164.008C459.511 164.008 463.591 165.549 466.673 168.631C472.837 174.885 472.837 184.947 466.673 191.202L412.103 245.772L357.533 191.202C351.459 184.947 351.459 174.885 357.714 168.631Z" fill="white"/>
</g>
<g opacity="0.35">
<path d="M357.714 271.128C360.796 268.046 364.875 266.504 368.954 266.504C373.033 266.504 377.113 268.046 380.195 271.128L412.193 303.126L444.192 271.128C447.274 268.046 451.353 266.504 455.432 266.504C459.511 266.504 463.591 268.046 466.673 271.128C472.837 277.382 472.837 287.444 466.673 293.699L412.103 348.269L357.533 293.699C351.459 287.444 351.459 277.292 357.714 271.128Z" fill="white"/>
</g>
<g opacity="0.25">
<path d="M357.714 411.632C360.796 408.55 364.875 407.009 368.954 407.009C373.033 407.009 377.113 408.55 380.195 411.632L412.193 443.63L444.192 411.632C447.274 408.55 451.353 407.009 455.432 407.009C459.511 407.009 463.591 408.55 466.673 411.632C472.837 417.886 472.837 427.948 466.673 434.203L412.103 488.773L357.533 434.203C351.459 427.948 351.459 417.796 357.714 411.632Z" fill="white"/>
</g>
<g opacity="0.15">
<path d="M357.713 582.049C360.796 578.967 364.875 577.426 368.954 577.426C373.033 577.426 377.112 578.967 380.194 582.049L412.193 614.048L444.191 582.049C447.273 578.967 451.353 577.426 455.432 577.426C459.511 577.426 463.59 578.967 466.672 582.049C472.836 588.304 472.836 598.366 466.672 604.621L412.283 659.1L357.713 604.53C351.459 598.366 351.459 588.214 357.713 582.049Z" fill="white"/>
</g>
<g opacity="0.7">
<path d="M278.909 284.815C271.729 291.996 262.174 295.951 252.073 295.951C241.91 295.951 232.417 291.996 225.236 284.815L144.97 204.548L64.7639 284.815C57.5832 291.996 48.0291 295.951 37.9273 295.951C27.7646 295.951 18.2714 291.996 11.0907 284.815C-3.69688 270.027 -3.69688 245.929 11.0907 231.081L144.97 97.1409L278.909 231.081C293.697 245.929 293.697 269.966 278.909 284.815Z" fill="#0054A6"/>
</g>
<g opacity="0.6">
<path d="M199.19 105.356C200.59 106.756 202.476 107.486 204.363 107.486C206.249 107.486 208.075 106.756 209.535 105.356L224.201 90.6904L238.867 105.356C240.267 106.756 242.153 107.486 244.04 107.486C245.926 107.486 247.752 106.756 249.212 105.356C252.072 102.496 252.072 97.8712 249.212 95.011L224.201 70L199.19 95.011C196.33 97.8712 196.33 102.496 199.19 105.356Z" fill="#FFD433"/>
</g>
</svg>
