<svg width="80" height="80" viewBox="0 0 80 80" fill="none" xmlns="http://www.w3.org/2000/svg">
<g id="choose-qbatch-as-your-growth-partner_spectacular-price-quality-ratio 1" clip-path="url(#clip0_6034_17532)">
<g id="Group">
<path id="Vector" fill-rule="evenodd" clip-rule="evenodd" d="M46.6 6.7C51.1 7.6 55.3 9.3 58.9 11.8L60.4 11.1L65.5 8.8L68.3 11.6L71.1 14.4L68.8 19.5L68.1 21C70.6 24.7 72.3 28.8 73.2 33.3L74.7 33.9L79.9 35.9V39.9V43.9L74.7 45.9L73.2 46.5C72.3 51 70.6 55.2 68.1 58.8L68.8 60.3L71.1 65.4L68.3 68.2L65.5 71L60.4 68.7L58.9 68C55.2 70.5 51.1 72.2 46.6 73.1L46 74.8L44 80H40H36L34 74.8L33.4 73.3C28.9 72.4 24.7 70.7 21.1 68.2L19.6 68.9L14.5 71.2L11.7 68.4L8.9 65.6L11.2 60.5L11.9 59C9.4 55.3 7.7 51.2 6.8 46.7L5.2 46L0 44V40V36L5.2 34L6.7 33.4C7.6 28.9 9.3 24.7 11.8 21.1L11.1 19.6L8.8 14.5L11.6 11.7L14.4 8.9L19.5 11.2L21 11.9C24.7 9.4 28.8 7.7 33.3 6.8L34 5.2L36 0H40H44L46 5.2L46.6 6.7Z" fill="#839299"/>
<path id="Vector_2" d="M40.0008 61.6998C51.9854 61.6998 61.7008 51.9844 61.7008 39.9998C61.7008 28.0152 51.9854 18.2998 40.0008 18.2998C28.0162 18.2998 18.3008 28.0152 18.3008 39.9998C18.3008 51.9844 28.0162 61.6998 40.0008 61.6998Z" fill="#FFDD33"/>
<path id="Vector_3" fill-rule="evenodd" clip-rule="evenodd" d="M46.9996 27.8002C47.4996 27.1002 48.4996 27.0002 49.0996 27.4002C49.7996 27.9002 49.8996 28.9002 49.4996 29.5002L32.9996 52.4002C32.4996 53.1002 31.4996 53.2002 30.8996 52.8002C30.1996 52.3002 30.0996 51.3002 30.4996 50.7002L46.9996 27.8002ZM46.4996 42.4002C44.9996 42.4002 43.5996 43.0002 42.6996 44.0002C41.6996 45.0002 41.0996 46.3002 41.0996 47.8002C41.0996 49.3002 41.6996 50.7002 42.6996 51.6002C43.6996 52.6002 44.9996 53.2002 46.4996 53.2002C47.9996 53.2002 49.3996 52.6002 50.2996 51.6002C51.2996 50.6002 51.8996 49.3002 51.8996 47.8002C51.8996 46.3002 51.2996 44.9002 50.2996 44.0002C49.3996 43.0002 47.9996 42.4002 46.4996 42.4002ZM48.1996 46.2002C47.7996 45.8002 47.1996 45.5002 46.4996 45.5002C45.7996 45.5002 45.2996 45.8002 44.7996 46.2002C44.3996 46.6002 44.0996 47.2002 44.0996 47.9002C44.0996 48.6002 44.3996 49.1002 44.7996 49.6002C45.1996 50.1002 45.7996 50.3002 46.4996 50.3002C47.1996 50.3002 47.6996 50.0002 48.1996 49.6002C48.5996 49.2002 48.8996 48.6002 48.8996 47.9002C48.8996 47.2002 48.5996 46.6002 48.1996 46.2002ZM33.4996 26.7002C31.9996 26.7002 30.5996 27.3002 29.6996 28.3002C28.6996 29.3002 28.0996 30.6002 28.0996 32.1002C28.0996 33.6002 28.6996 35.0002 29.6996 35.9002C30.6996 36.9002 31.9996 37.5002 33.4996 37.5002C34.9996 37.5002 36.3996 36.9002 37.2996 35.9002C38.2996 34.9002 38.8996 33.6002 38.8996 32.1002C38.8996 30.6002 38.2996 29.2002 37.2996 28.3002C36.2996 27.4002 34.9996 26.7002 33.4996 26.7002ZM35.0996 30.5002C34.6996 30.1002 34.0996 29.8002 33.3996 29.8002C32.6996 29.8002 32.1996 30.1002 31.6996 30.5002C31.2996 30.9002 30.9996 31.5002 30.9996 32.2002C30.9996 32.9002 31.2996 33.4002 31.6996 33.9002C32.0996 34.3002 32.6996 34.6002 33.3996 34.6002C34.0996 34.6002 34.5996 34.3002 35.0996 33.9002C35.4996 33.5002 35.7996 32.9002 35.7996 32.2002C35.7996 31.5002 35.5996 30.9002 35.0996 30.5002Z" fill="#0054A6"/>
</g>
</g>
<defs>
<clipPath id="clip0_6034_17532">
<rect width="80" height="80" fill="white"/>
</clipPath>
</defs>
</svg>
