<svg width="80" height="80" viewBox="0 0 80 80" fill="none" xmlns="http://www.w3.org/2000/svg">
<path d="M26.5 72.2002V74.4002H0V72.2002C0 66.4002 3.7 61.5002 8.8 59.7002L13.2 61.2002L17.6 59.7002C22.8 61.5002 26.5 66.4002 26.5 72.2002Z" fill="#0054A6"/>
<path d="M20.9996 53.4003C20.9996 57.7003 17.4996 61.1003 13.2996 61.1003C8.99961 61.1003 5.59961 57.6003 5.59961 53.4003C5.59961 49.1003 9.09961 45.7003 13.2996 45.7003C17.4996 45.6003 20.9996 49.1003 20.9996 53.4003Z" fill="#FED2A4"/>
<path d="M80 72.2002V74.4002H53.5V72.2002C53.5 66.4002 57.2 61.5002 62.3 59.7002L66.7 61.2002L71.1 59.7002C76.3 61.5002 80 66.4002 80 72.2002Z" fill="#0054A6"/>
<path d="M74.4996 53.4003C74.4996 57.7003 70.9996 61.1003 66.7996 61.1003C62.4996 61.1003 59.0996 57.6003 59.0996 53.4003C59.0996 49.1003 62.5996 45.7003 66.7996 45.7003C70.9996 45.6003 74.4996 49.1003 74.4996 53.4003Z" fill="#FED2A4"/>
<path fill-rule="evenodd" clip-rule="evenodd" d="M37.2992 11C37.2992 7.4 34.3992 4.5 30.7992 4.5H10.1992C6.59922 4.5 3.69922 7.4 3.69922 11V25.2C3.69922 26.9 4.39922 28.6 5.59922 29.8C6.79922 31 8.49922 31.7 10.1992 31.7H16.6992V38.2C16.6992 38.7 16.9992 39.2 17.4992 39.4C17.9992 39.6 18.4992 39.5 18.8992 39.1L26.2992 31.7H30.8992C32.5992 31.7 34.2992 31 35.4992 29.8C36.6992 28.6 37.3992 26.9 37.3992 25.2V11H37.2992Z" fill="#002548"/>
<path fill-rule="evenodd" clip-rule="evenodd" d="M10.2004 14.8002H15.4004C16.1004 14.8002 16.7004 14.2002 16.7004 13.5002C16.7004 12.8002 16.1004 12.2002 15.4004 12.2002H10.2004C9.50039 12.2002 8.90039 12.8002 8.90039 13.5002C8.90039 14.2002 9.50039 14.8002 10.2004 14.8002Z" fill="#F9FAFB"/>
<path fill-rule="evenodd" clip-rule="evenodd" d="M20.4992 14.8002H30.7992C31.4992 14.8002 32.0992 14.2002 32.0992 13.5002C32.0992 12.8002 31.4992 12.2002 30.7992 12.2002H20.4992C19.7992 12.2002 19.1992 12.8002 19.1992 13.5002C19.1992 14.2002 19.7992 14.8002 20.4992 14.8002Z" fill="#F9FAFB"/>
<path fill-rule="evenodd" clip-rule="evenodd" d="M10.3 20.0004H31C31.7 20.0004 32.3 19.4004 32.3 18.7004C32.3 18.0004 31.7 17.4004 31 17.4004H10.3C9.5 17.4004 9 18.0004 9 18.7004C9 19.4004 9.5 20.0004 10.3 20.0004Z" fill="#F9FAFB"/>
<path fill-rule="evenodd" clip-rule="evenodd" d="M10.3 25.1996H31C31.7 25.1996 32.3 24.5996 32.3 23.8996C32.3 23.1996 31.7 22.5996 31 22.5996H10.3C9.6 22.5996 9 23.1996 9 23.8996C9 24.5996 9.6 25.1996 10.3 25.1996Z" fill="#F9FAFB"/>
<path fill-rule="evenodd" clip-rule="evenodd" d="M76.0004 11C76.0004 7.4 73.1004 4.5 69.5004 4.5H48.9004C45.3004 4.5 42.4004 7.4 42.4004 11V25.2C42.4004 26.9 43.1004 28.6 44.3004 29.8C45.5004 31 47.2004 31.7 48.9004 31.7H49.6004L55.7004 39C56.0004 39.4 56.6004 39.6 57.1004 39.4C57.6004 39.2 58.0004 38.7 58.0004 38.2V31.7H69.6004C71.3004 31.7 73.0004 31 74.2004 29.8C75.4004 28.6 76.1004 26.9 76.1004 25.2L76.0004 11Z" fill="#54CC5A"/>
<path fill-rule="evenodd" clip-rule="evenodd" d="M48.8996 25.1996H59.1996C59.8996 25.1996 60.4996 24.5996 60.4996 23.8996C60.4996 23.1996 59.8996 22.5996 59.1996 22.5996H48.8996C48.1996 22.5996 47.5996 23.1996 47.5996 23.8996C47.5996 24.5996 48.1996 25.1996 48.8996 25.1996Z" fill="#F9FAFB"/>
<path fill-rule="evenodd" clip-rule="evenodd" d="M64.6008 25.1996H69.8008C70.5008 25.1996 71.1008 24.5996 71.1008 23.8996C71.1008 23.1996 70.5008 22.5996 69.8008 22.5996H64.6008C63.9008 22.5996 63.3008 23.1996 63.3008 23.8996C63.3008 24.5996 63.9008 25.1996 64.6008 25.1996Z" fill="#F9FAFB"/>
<path fill-rule="evenodd" clip-rule="evenodd" d="M48.9992 20.0004H69.6992C70.3992 20.0004 70.9992 19.4004 70.9992 18.7004C70.9992 18.0004 70.3992 17.4004 69.6992 17.4004H48.9992C48.2992 17.4004 47.6992 18.0004 47.6992 18.7004C47.6992 19.4004 48.2992 20.0004 48.9992 20.0004Z" fill="#F9FAFB"/>
<path fill-rule="evenodd" clip-rule="evenodd" d="M48.9992 14.8002H69.6992C70.3992 14.8002 70.9992 14.2002 70.9992 13.5002C70.9992 12.8002 70.3992 12.2002 69.6992 12.2002H48.9992C48.2992 12.2002 47.6992 12.8002 47.6992 13.5002C47.6992 14.2002 48.2992 14.8002 48.9992 14.8002Z" fill="#F9FAFB"/>
<path d="M39.9 75.5002C47.0245 75.5002 52.8 69.7247 52.8 62.6002C52.8 55.4757 47.0245 49.7002 39.9 49.7002C32.7755 49.7002 27 55.4757 27 62.6002C27 69.7247 32.7755 75.5002 39.9 75.5002Z" fill="#ED1C24"/>
<path fill-rule="evenodd" clip-rule="evenodd" d="M33.8009 63.4996L37.7009 67.3996C38.0009 67.6996 38.3009 67.7996 38.7009 67.7996C39.1009 67.7996 39.4009 67.5996 39.6009 67.2996L46.1009 59.5996C46.6009 59.0996 46.5009 58.1996 45.9009 57.7996C45.4009 57.2996 44.5009 57.3996 44.1009 57.9996L38.6009 64.6996L35.7009 61.7996C35.2009 61.2996 34.4009 61.2996 33.9009 61.7996C33.3009 62.1996 33.3009 62.9996 33.8009 63.4996Z" fill="#F9FAFB"/>
</svg>
