<svg width="114" height="114" viewBox="0 0 114 114" fill="none" xmlns="http://www.w3.org/2000/svg">
<g clip-path="url(#clip0_9643_18920)">
<path fill-rule="evenodd" clip-rule="evenodd" d="M53.3992 16.7001C53.3992 11.7001 49.2992 7.6001 44.2992 7.6001H15.2992C10.2992 7.6001 6.19922 11.7001 6.19922 16.7001V36.6001C6.19922 39.0001 7.19922 41.3001 8.89922 43.0001C10.5992 44.7001 12.8992 45.7001 15.2992 45.7001H24.3992V54.8001C24.3992 55.5001 24.7992 56.2001 25.4992 56.5001C26.1992 56.8001 26.9992 56.6001 27.4992 56.1001L37.7992 45.7001H44.2992C46.6992 45.7001 48.9992 44.7001 50.6992 43.0001C52.3992 41.3001 53.3992 39.0001 53.3992 36.6001V16.7001Z" fill="#0054A6"/>
<path fill-rule="evenodd" clip-rule="evenodd" d="M15.2792 22.1H22.5172C23.5512 22.1 24.3784 21.3 24.3784 20.3C24.3784 19.3 23.5512 18.5 22.5172 18.5H15.2792C14.2452 18.5 13.418 19.3 13.418 20.3C13.418 21.3 14.2452 22.1 15.2792 22.1Z" fill="#D2D9DC"/>
<path fill-rule="evenodd" clip-rule="evenodd" d="M29.7519 22.1H44.2848C45.2691 22.1 46.0797 21.3 46.0797 20.3C46.0797 19.3 45.2691 18.5 44.2848 18.5H29.7519C28.7676 18.5 27.957 19.3 27.957 20.3C27.957 21.3 28.7676 22.1 29.7519 22.1Z" fill="#D2D9DC"/>
<path fill-rule="evenodd" clip-rule="evenodd" d="M15.3757 29.4003H44.4079C45.3985 29.4003 46.2367 28.6003 46.2367 27.6003C46.2367 26.6003 45.3985 25.8003 44.4079 25.8003H15.3757C14.3851 25.8003 13.5469 26.6003 13.5469 27.6003C13.5469 28.6003 14.3089 29.4003 15.3757 29.4003Z" fill="#D2D9DC"/>
<path fill-rule="evenodd" clip-rule="evenodd" d="M15.427 36.6H44.5099C45.5171 36.6 46.2725 35.8 46.2725 34.8C46.2725 33.8 45.5171 33 44.5099 33H15.427C14.4198 33 13.6644 33.8 13.6644 34.8C13.5385 35.8 14.4198 36.6 15.427 36.6Z" fill="#D2D9DC"/>
<path fill-rule="evenodd" clip-rule="evenodd" d="M107.798 16.7001C107.798 11.7001 103.698 7.6001 98.6977 7.6001H69.6977C64.6977 7.6001 60.5977 11.7001 60.5977 16.7001V36.6001C60.5977 39.0001 61.5977 41.3001 63.2977 43.0001C64.9977 44.7001 67.2977 45.7001 69.6977 45.7001H70.6977L79.1977 55.9001C79.6977 56.5001 80.4977 56.7001 81.1977 56.4001C81.8977 56.1001 82.3977 55.5001 82.3977 54.7001V45.6001H98.6977C101.098 45.6001 103.398 44.6001 105.098 42.9001C106.798 41.2001 107.798 38.9001 107.798 36.5001V16.7001Z" fill="#0054A6"/>
<path fill-rule="evenodd" clip-rule="evenodd" d="M69.6737 36.6H84.1497C85.1837 36.6 86.0109 35.8 86.0109 34.8C86.0109 33.8 85.1837 33 84.1497 33H69.6737C68.6397 33 67.8125 33.8 67.8125 34.8C67.8125 35.8 68.6397 36.6 69.6737 36.6Z" fill="#D2D9DC"/>
<path fill-rule="evenodd" clip-rule="evenodd" d="M91.7293 36.6H99.0084C100.023 36.6 100.835 35.8 100.835 34.8C100.835 33.8 100.023 33 99.0084 33H91.7293C90.7143 33 89.9023 33.8 89.9023 34.8C89.9313 35.8 90.7433 36.6 91.7293 36.6Z" fill="#D2D9DC"/>
<path fill-rule="evenodd" clip-rule="evenodd" d="M69.7702 29.4003H98.8024C99.793 29.4003 100.631 28.6003 100.631 27.6003C100.631 26.6003 99.793 25.8003 98.8024 25.8003H69.7702C68.7796 25.8003 67.9414 26.6003 67.9414 27.6003C67.9414 28.6003 68.7796 29.4003 69.7702 29.4003Z" fill="#D2D9DC"/>
<path fill-rule="evenodd" clip-rule="evenodd" d="M69.8332 22.1H98.9161C99.9233 22.1 100.679 21.3 100.679 20.3C100.679 19.3 99.9233 18.5 98.9161 18.5H69.8332C68.826 18.5 68.0706 19.3 68.0706 20.3C67.9447 21.3 68.826 22.1 69.8332 22.1Z" fill="#D2D9DC"/>
<path fill-rule="evenodd" clip-rule="evenodd" d="M56.9984 54.6001C46.9984 54.6001 38.8984 62.7001 38.8984 72.7001C38.8984 82.7001 46.9984 90.8001 56.9984 90.8001C66.9984 90.8001 75.0984 82.7001 75.0984 72.7001C75.0984 62.7001 66.9984 54.6001 56.9984 54.6001ZM65.5984 68.5001L56.4984 79.4001C56.1984 79.8001 55.6984 80.0001 55.1984 80.0001C54.6984 80.0001 54.1984 79.8001 53.7984 79.5001L48.4984 74.0001C47.7984 73.3001 47.7984 72.1001 48.4984 71.4001C49.1984 70.7001 50.3984 70.7001 51.0984 71.4001L55.0984 75.4001L62.8984 66.0001C63.4984 65.2001 64.6984 65.1001 65.4984 65.8001C66.1984 66.6001 66.2984 67.7001 65.5984 68.5001Z" fill="#54CC5A"/>
<path d="M30.5992 78.7001C30.0992 63.9001 8.69922 63.9001 8.19922 78.7001C8.69922 93.4001 30.0992 93.5001 30.5992 78.7001Z" fill="#FED2A4"/>
<path d="M4.39844 106.4H34.4984C36.8984 106.4 38.8984 104.4 38.8984 102V98.1001C38.8984 93.6001 35.8984 89.7001 31.4984 88.6001C25.9984 95.3001 16.1984 96.2001 9.49844 90.8001C8.69844 90.2001 7.99844 89.4001 7.29844 88.6001L6.59844 88.8001C2.59844 90.1001 -0.101562 93.9001 -0.101562 98.1001V102C-0.0015625 104.4 1.99844 106.4 4.39844 106.4Z" fill="#002548"/>
<path d="M105.798 78.7001C105.298 63.9001 83.8984 63.9001 83.3984 78.7001C83.8984 93.4001 105.298 93.5001 105.798 78.7001Z" fill="#FED2A4"/>
<path d="M107.298 88.8001L106.598 88.6001C101.098 95.3001 91.0977 96.2001 84.4977 90.6001C83.7977 90.0001 83.0977 89.3001 82.4977 88.6001C78.1977 89.7001 75.0977 93.6001 75.0977 98.1001V102C75.0977 104.4 77.0977 106.4 79.4977 106.4H109.598C111.998 106.4 113.998 104.4 113.998 102V98.1001C113.998 93.9001 111.298 90.2001 107.298 88.8001Z" fill="#002548"/>
</g>
<defs>
<clipPath id="clip0_9643_18920">
<rect width="114" height="114" fill="white"/>
</clipPath>
</defs>
</svg>
