<svg width="32" height="32" viewBox="0 0 32 32" fill="none" xmlns="http://www.w3.org/2000/svg">
<g clip-path="url(#clip0_5595_11309)">
<path fill-rule="evenodd" clip-rule="evenodd" d="M21.0667 5.53337C21.0667 4.60003 20.3333 3.8667 19.4 3.8667H1.66667C0.733333 3.93337 0 4.6667 0 5.53337V28.2C0 29.1334 0.733333 29.8667 1.66667 29.8667H19.4667C20.4 29.8667 21.1333 29.1334 21.1333 28.2L21.0667 5.53337Z" fill="#002548"/>
<path d="M1.33398 5.53339H19.8007V28.2001H1.33398V5.53339Z" fill="#F9FAFB"/>
<path fill-rule="evenodd" clip-rule="evenodd" d="M15.1996 3.20003C14.9996 3.00003 14.7329 2.93336 14.3996 3.00003L12.4663 3.33336V3.0667C12.4663 2.00003 11.5996 1.13336 10.5329 1.13336C9.46628 1.13336 8.59961 2.00003 8.59961 3.0667V3.33336L6.66628 3.00003C6.39961 2.93336 6.13294 3.00003 5.86628 3.20003C5.66628 3.33336 5.59961 3.60003 5.59961 3.93336V6.00003H15.5329V3.93336C15.5329 3.60003 15.3996 3.33336 15.1996 3.20003ZM10.5329 3.53336C10.2663 3.53336 9.99961 3.33336 9.99961 3.00003C9.99961 2.73336 10.1996 2.4667 10.5329 2.4667C10.7996 2.4667 11.0663 2.6667 11.0663 3.00003C11.0663 3.33336 10.7996 3.53336 10.5329 3.53336Z" fill="#839299"/>
<path fill-rule="evenodd" clip-rule="evenodd" d="M3.33284 25.2667C3.26617 25.1334 3.26617 24.9334 3.46617 24.8C3.66617 24.6667 3.79951 24.7334 3.93284 24.9334L4.19951 25.4667L5.46617 24.2C5.59951 24.0667 5.79951 24.0667 5.93284 24.2C6.06617 24.3334 6.06617 24.5334 5.93284 24.6667L4.39951 26.2L4.33284 26.2667C4.19951 26.3334 3.99951 26.3334 3.86617 26.1334L3.33284 25.2667Z" fill="#54CC5A"/>
<path fill-rule="evenodd" clip-rule="evenodd" d="M7.26693 24.9334C7.06693 24.9334 6.93359 24.8001 6.93359 24.6001C6.93359 24.4001 7.06693 24.2667 7.26693 24.2667H17.5336C17.7336 24.2667 17.8669 24.4001 17.8669 24.6001C17.8669 24.8001 17.7336 24.9334 17.5336 24.9334H7.26693ZM7.26693 26.1334C7.06693 26.1334 6.93359 26.0001 6.93359 25.8001C6.93359 25.6001 7.06693 25.4667 7.26693 25.4667H17.5336C17.7336 25.4667 17.8669 25.6001 17.8669 25.8001C17.8669 26.0001 17.7336 26.1334 17.5336 26.1334H7.26693Z" fill="#D2D9DC"/>
<path fill-rule="evenodd" clip-rule="evenodd" d="M3.33279 22.4667C3.26613 22.3334 3.33279 22.1334 3.46613 22C3.59946 21.9334 3.79946 21.9334 3.93279 22.1334L4.19946 22.6667L5.46613 21.4C5.59946 21.2667 5.79946 21.2667 5.93279 21.4C6.06613 21.5334 6.06613 21.7334 5.93279 21.8667L4.39946 23.4L4.33279 23.4667C4.19946 23.5334 3.99946 23.5334 3.86613 23.3334L3.33279 22.4667Z" fill="#54CC5A"/>
<path fill-rule="evenodd" clip-rule="evenodd" d="M7.26693 22.1333C7.06693 22.1333 6.93359 22 6.93359 21.8C6.93359 21.6 7.06693 21.4667 7.26693 21.4667H17.5336C17.7336 21.4667 17.8669 21.6 17.8669 21.8C17.8669 22 17.7336 22.1333 17.5336 22.1333H7.26693ZM7.26693 23.3333C7.06693 23.3333 6.93359 23.2 6.93359 23C6.93359 22.8 7.06693 22.6667 7.26693 22.6667H17.5336C17.7336 22.6667 17.8669 22.8 17.8669 23C17.8669 23.2 17.7336 23.3333 17.5336 23.3333H7.26693Z" fill="#D2D9DC"/>
<path fill-rule="evenodd" clip-rule="evenodd" d="M11.7339 9.13333L12.9339 9.66667L13.9339 9L15.2672 10.3333L14.6005 11.3333L15.1339 12.5333L16.2672 12.7333V14.6667L15.1339 14.8667L14.6005 16.0667L15.2672 17.0667L13.9339 18.4L12.9339 17.7333L11.7339 18.2667L11.5339 19.4H9.60052L9.40052 18.2667L8.20052 17.7333L7.20052 18.4L5.86719 17.0667L6.53385 16.0667L6.00052 14.8667L4.86719 14.6667V12.7333L6.00052 12.5333L6.46719 11.3333L5.80052 10.3333L7.13385 9L8.13385 9.66667L9.33385 9.13333L9.53385 8H11.4672L11.7339 9.13333Z" fill="#FFDD33"/>
<path d="M10.5329 16.6C12.153 16.6 13.4663 15.2867 13.4663 13.6667C13.4663 12.0466 12.153 10.7333 10.5329 10.7333C8.91291 10.7333 7.59961 12.0466 7.59961 13.6667C7.59961 15.2867 8.91291 16.6 10.5329 16.6Z" fill="#F9FAFB"/>
<path fill-rule="evenodd" clip-rule="evenodd" d="M8.86604 13.6667C8.79938 13.5334 8.79938 13.3334 8.99938 13.2C9.13271 13.1334 9.33271 13.1334 9.46604 13.3334L9.93271 14.2L11.7327 12.4C11.866 12.2667 12.066 12.2667 12.1994 12.4C12.3327 12.5334 12.3327 12.7334 12.1994 12.8667L10.066 15L9.99938 15.0667C9.86604 15.1334 9.66604 15.1334 9.53271 14.9334L8.86604 13.6667Z" fill="#54CC5A"/>
<path d="M24.4004 24.5334L25.6004 23.3334L28.4004 26.1334L27.2004 27.3334L24.4004 24.5334Z" fill="#D2D9DC"/>
<path d="M25.7997 14.4C22.9331 11.5333 18.3331 11.5333 15.4664 14.4C12.5997 17.2667 12.5997 21.8667 15.4664 24.7333C18.3331 27.6 22.9331 27.6 25.7997 24.7333C28.6664 21.8667 28.6664 17.2 25.7997 14.4ZM24.5997 23.4667C22.3997 25.6667 18.8664 25.6667 16.6664 23.4667C14.4664 21.2667 14.4664 17.7333 16.6664 15.6C18.8664 13.4 22.3997 13.4 24.5997 15.6C26.7997 17.8 26.7997 21.3333 24.5997 23.4667Z" fill="#0054A6"/>
<path fill-rule="evenodd" clip-rule="evenodd" d="M31.6661 28.8L28.3328 25.4667C28.1328 25.2667 27.7328 25.2667 27.4661 25.4667L26.5328 26.4C26.3328 26.6 26.3328 27 26.5328 27.2667L29.8661 30.6C30.3328 31.0667 31.1328 31.0667 31.5995 30.6C32.1328 30.0667 32.1328 29.2667 31.6661 28.8Z" fill="#002548"/>
</g>
<defs>
<clipPath id="clip0_5595_11309">
<rect width="32" height="32" fill="white"/>
</clipPath>
</defs>
</svg>
