<svg width="214" height="257" viewBox="0 0 214 257" fill="none" xmlns="http://www.w3.org/2000/svg">
<path d="M107 256.84C165.896 256.84 213.64 254.051 213.64 250.61C213.64 247.169 165.896 244.38 107 244.38C48.1042 244.38 0.359863 247.169 0.359863 250.61C0.359863 254.051 48.1042 256.84 107 256.84Z" fill="#D2D9DC"/>
<path d="M85.0297 122.12C93.2091 122.12 99.8397 115.489 99.8397 107.31C99.8397 99.1307 93.2091 92.5 85.0297 92.5C76.8504 92.5 70.2197 99.1307 70.2197 107.31C70.2197 115.489 76.8504 122.12 85.0297 122.12Z" fill="#54CC5A"/>
<path opacity="0.19" d="M85.0297 122.12C93.2091 122.12 99.8397 115.489 99.8397 107.31C99.8397 99.1307 93.2091 92.5 85.0297 92.5C76.8504 92.5 70.2197 99.1307 70.2197 107.31C70.2197 115.489 76.8504 122.12 85.0297 122.12Z" fill="#2D2F31"/>
<path d="M97.74 109.65C98.8495 102.814 94.207 96.3727 87.3707 95.2632C80.5344 94.1537 74.093 98.7962 72.9835 105.632C71.874 112.469 76.5165 118.91 83.3528 120.02C90.1892 121.129 96.6305 116.487 97.74 109.65Z" fill="#54CC5A"/>
<path d="M89.1898 102.9C89.1898 105.02 87.4698 107.31 85.3498 107.31C83.2298 107.31 81.5098 105.02 81.5098 102.9C81.5098 100.78 83.2298 99.2695 85.3498 99.2695C87.4698 99.2695 89.1898 100.78 89.1898 102.9Z" fill="#54CC5A"/>
<path d="M80.5799 115.49H89.9599C90.9499 115.49 91.8199 114.85 92.1199 113.91L92.6199 112.33C92.9899 111.17 92.3899 109.92 91.2499 109.51C87.4299 108.11 83.4799 108.29 79.4399 109.64C78.3099 110.02 77.6799 111.23 77.9899 112.38L78.3799 113.81C78.6599 114.8 79.5499 115.49 80.5799 115.49Z" fill="#54CC5A"/>
<path opacity="0.19" d="M89.1898 102.9C89.1898 105.02 87.4698 107.31 85.3498 107.31C83.2298 107.31 81.5098 105.02 81.5098 102.9C81.5098 100.78 83.2298 99.2695 85.3498 99.2695C87.4698 99.2695 89.1898 100.78 89.1898 102.9Z" fill="#2D2F31"/>
<path opacity="0.19" d="M80.5799 115.49H89.9599C90.9499 115.49 91.8199 114.85 92.1199 113.91L92.6199 112.33C92.9899 111.17 92.3899 109.92 91.2499 109.51C87.4299 108.11 83.4799 108.29 79.4399 109.64C78.3099 110.02 77.6799 111.23 77.9899 112.38L78.3799 113.81C78.6599 114.8 79.5499 115.49 80.5799 115.49Z" fill="#2D2F31"/>
<path d="M55.3097 125.31C62.1139 125.31 67.6297 119.794 67.6297 112.99C67.6297 106.186 62.1139 100.67 55.3097 100.67C48.5056 100.67 42.9897 106.186 42.9897 112.99C42.9897 119.794 48.5056 125.31 55.3097 125.31Z" fill="#54CC5A"/>
<path opacity="0.19" d="M55.3097 125.31C62.1139 125.31 67.6297 119.794 67.6297 112.99C67.6297 106.186 62.1139 100.67 55.3097 100.67C48.5056 100.67 42.9897 106.186 42.9897 112.99C42.9897 119.794 48.5056 125.31 55.3097 125.31Z" fill="#2D2F31"/>
<path d="M65.861 114.919C66.783 109.239 62.9253 103.886 57.2448 102.964C51.5642 102.042 46.2118 105.9 45.2899 111.581C44.368 117.261 48.2256 122.614 53.9062 123.535C59.5868 124.457 64.9391 120.6 65.861 114.919Z" fill="#54CC5A"/>
<path d="M58.7696 109.32C58.7696 111.09 57.3396 112.99 55.5696 112.99C53.7996 112.99 52.3696 111.08 52.3696 109.32C52.3696 107.56 53.7996 106.3 55.5696 106.3C57.3396 106.3 58.7696 107.55 58.7696 109.32Z" fill="#54CC5A"/>
<path d="M51.5998 119.78H59.3998C60.2198 119.78 60.9498 119.25 61.1998 118.47L61.6198 117.16C61.9298 116.2 61.4298 115.16 60.4798 114.81C57.2998 113.65 54.0198 113.8 50.6598 114.92C49.7198 115.23 49.1898 116.24 49.4498 117.2L49.7698 118.39C50.0098 119.21 50.7498 119.78 51.5998 119.78Z" fill="#54CC5A"/>
<path opacity="0.19" d="M58.7696 109.32C58.7696 111.09 57.3396 112.99 55.5696 112.99C53.7996 112.99 52.3696 111.08 52.3696 109.32C52.3696 107.56 53.7996 106.3 55.5696 106.3C57.3396 106.3 58.7696 107.55 58.7696 109.32Z" fill="#2D2F31"/>
<path opacity="0.19" d="M51.5998 119.78H59.3998C60.2198 119.78 60.9498 119.25 61.1998 118.47L61.6198 117.16C61.9298 116.2 61.4298 115.16 60.4798 114.81C57.2998 113.65 54.0198 113.8 50.6598 114.92C49.7198 115.23 49.1898 116.24 49.4498 117.2L49.7698 118.39C50.0098 119.21 50.7498 119.78 51.5998 119.78Z" fill="#2D2F31"/>
<path d="M188.84 172.681L138.93 172.441C138.33 172.431 137.84 173.101 137.84 173.921L137.95 193.671C137.95 194.491 138.46 195.151 139.06 195.131L188.68 194.071C189.26 194.051 189.72 193.411 189.73 192.621L189.9 174.181C189.92 173.351 189.44 172.681 188.84 172.681Z" fill="#0054A6"/>
<path d="M139.04 193.87C138.94 193.87 138.85 193.77 138.85 193.65L138.74 173.9C138.74 173.84 138.75 173.79 138.79 173.75C138.83 173.7 138.88 173.67 138.93 173.67L188.84 173.91C188.9 173.91 188.94 173.94 188.98 173.99C189.01 174.03 189.03 174.08 189.02 174.14L188.85 192.58C188.85 192.7 188.77 192.79 188.67 192.8L139.04 193.87ZM138.92 173.86C138.91 173.88 138.91 173.89 138.91 173.91L139.02 193.66C139.02 193.69 139.03 193.71 139.04 193.71L188.66 192.65C188.67 192.65 188.68 192.63 188.68 192.6L188.85 174.16C188.85 174.14 188.85 174.13 188.84 174.11L138.92 173.86Z" fill="#002548"/>
<path d="M143.38 182.88H140.95V192.16H143.38V182.88Z" fill="#54CC5A"/>
<path d="M147.44 186.07H145.01V192.16H147.44V186.07Z" fill="#54CC5A"/>
<path d="M151.5 178.19H149.07V192.16H151.5V178.19Z" fill="#54CC5A"/>
<path d="M155.56 188.811H153.13V192.171H155.56V188.811Z" fill="#54CC5A"/>
<path d="M159.62 180.061H157.19V192.171H159.62V180.061Z" fill="#54CC5A"/>
<path d="M163.68 182.15H161.25V192.16H163.68V182.15Z" fill="#54CC5A"/>
<path d="M167.73 184.431H165.3V192.161H167.73V184.431Z" fill="#54CC5A"/>
<path d="M171.79 175.36H169.36V192.16H171.79V175.36Z" fill="#54CC5A"/>
<path d="M175.85 177.141H173.42V192.161H175.85V177.141Z" fill="#54CC5A"/>
<path d="M179.91 179.83H177.479V192.16H179.91V179.83Z" fill="#54CC5A"/>
<path d="M183.97 189.12H181.54V192.17H183.97V189.12Z" fill="#54CC5A"/>
<path d="M188.02 183.2H185.59V192.16H188.02V183.2Z" fill="#54CC5A"/>
<path d="M137.701 45.5814C138.834 42.8107 137.507 39.6459 134.736 38.5127C131.965 37.3794 128.801 38.7067 127.667 41.4774C126.534 44.2481 127.861 47.4129 130.632 48.5462C133.403 49.6794 136.567 48.3521 137.701 45.5814Z" fill="#FFDD33"/>
<path opacity="0.19" d="M137.701 45.5814C138.834 42.8107 137.507 39.6459 134.736 38.5127C131.965 37.3794 128.801 38.7067 127.667 41.4774C126.534 44.2481 127.861 47.4129 130.632 48.5462C133.403 49.6794 136.567 48.3521 137.701 45.5814Z" fill="#2D2F31"/>
<path d="M132.79 48.2405C135.325 48.2405 137.38 46.1855 137.38 43.6506C137.38 41.1156 135.325 39.0605 132.79 39.0605C130.255 39.0605 128.2 41.1156 128.2 43.6506C128.2 46.1855 130.255 48.2405 132.79 48.2405Z" fill="#FFDD33"/>
<path d="M132.34 47.0602V46.5602C131.82 46.5402 131.3 46.4202 130.94 46.2602C130.81 46.2002 130.74 46.0602 130.78 45.9202L130.91 45.4602C130.96 45.2902 131.14 45.2001 131.31 45.2701C131.67 45.4201 132.12 45.5402 132.6 45.5402C133.1 45.5402 133.47 45.3701 133.47 45.0201C133.47 44.7101 133.18 44.5202 132.48 44.3302C131.49 44.0602 130.77 43.6202 130.77 42.7502C130.77 41.9602 131.35 41.3601 132.35 41.2001V40.7001C132.35 40.5401 132.48 40.4102 132.64 40.4102H132.93C133.09 40.4102 133.22 40.5401 133.22 40.7001V41.1502C133.7 41.1702 134.05 41.2502 134.33 41.3502C134.47 41.4002 134.55 41.5501 134.51 41.7001L134.39 42.1301C134.35 42.3001 134.17 42.3902 134.01 42.3302C133.75 42.2302 133.39 42.1301 132.92 42.1301C132.33 42.1301 132.16 42.3802 132.16 42.6002C132.16 42.8702 132.52 43.0602 133.29 43.3002C134.39 43.6302 134.85 44.0902 134.85 44.9102C134.85 45.6702 134.29 46.3501 133.2 46.5201V47.0802C133.2 47.2402 133.07 47.3702 132.91 47.3702H132.62C132.47 47.3502 132.34 47.2201 132.34 47.0602Z" fill="#FFDD33"/>
<g opacity="0.19">
<path d="M132.34 47.0602V46.5602C131.82 46.5402 131.3 46.4202 130.94 46.2602C130.81 46.2002 130.74 46.0602 130.78 45.9202L130.91 45.4602C130.96 45.2902 131.14 45.2001 131.31 45.2701C131.67 45.4201 132.12 45.5402 132.6 45.5402C133.1 45.5402 133.47 45.3701 133.47 45.0201C133.47 44.7101 133.18 44.5202 132.48 44.3302C131.49 44.0602 130.77 43.6202 130.77 42.7502C130.77 41.9602 131.35 41.3601 132.35 41.2001V40.7001C132.35 40.5401 132.48 40.4102 132.64 40.4102H132.93C133.09 40.4102 133.22 40.5401 133.22 40.7001V41.1502C133.7 41.1702 134.05 41.2502 134.33 41.3502C134.47 41.4002 134.55 41.5501 134.51 41.7001L134.39 42.1301C134.35 42.3001 134.17 42.3902 134.01 42.3302C133.75 42.2302 133.39 42.1301 132.92 42.1301C132.33 42.1301 132.16 42.3802 132.16 42.6002C132.16 42.8702 132.52 43.0602 133.29 43.3002C134.39 43.6302 134.85 44.0902 134.85 44.9102C134.85 45.6702 134.29 46.3501 133.2 46.5201V47.0802C133.2 47.2402 133.07 47.3702 132.91 47.3702H132.62C132.47 47.3502 132.34 47.2201 132.34 47.0602Z" fill="#2D2F31"/>
</g>
<path d="M37.1196 59.5098C37.1196 69.0198 45.1196 76.7298 54.9896 76.7298C64.8596 76.7298 73.2996 68.6898 73.2996 59.1798C73.2996 49.6698 64.8596 42.2998 54.9896 42.2998C45.1196 42.2998 37.1196 49.9998 37.1196 59.5098Z" fill="#0054A6"/>
<path d="M39.5498 59.5104C39.5498 67.7404 46.4698 74.4104 55.0198 74.4104C63.5598 74.4104 70.8698 67.4504 70.8698 59.2204C70.8698 50.9904 63.5598 44.6104 55.0198 44.6104C46.4798 44.6104 39.5498 51.2804 39.5498 59.5104Z" fill="#D2D9DC"/>
<path d="M66.91 58.7396C66.95 59.3696 67.51 59.8596 68.17 59.8196C68.83 59.7796 69.33 59.2396 69.29 58.6096C69.25 57.9796 68.69 57.4896 68.03 57.5296C67.38 57.5596 66.88 58.1096 66.91 58.7396Z" fill="#002548"/>
<path d="M41.1897 60.1801C41.2297 60.8101 41.7897 61.3001 42.4497 61.2601C43.1097 61.2201 43.6097 60.6801 43.5697 60.0501C43.5297 59.4201 42.9697 58.9301 42.3097 58.9701C41.6497 59.0101 41.1497 59.5501 41.1897 60.1801Z" fill="#002548"/>
<path d="M55.6295 70.4805C54.9795 70.5905 54.5495 71.1904 54.6695 71.8104C54.7895 72.4304 55.4095 72.8505 56.0595 72.7305C56.7095 72.6205 57.1395 72.0205 57.0195 71.4005C56.8995 70.7805 56.2795 70.3605 55.6295 70.4805Z" fill="#002548"/>
<path d="M52.7096 46.0501C52.0596 46.1601 51.6296 46.7601 51.7496 47.3801C51.8696 48.0001 52.4896 48.4201 53.1396 48.3001C53.7896 48.1901 54.2196 47.5901 54.0996 46.9701C53.9796 46.3501 53.3596 45.9401 52.7096 46.0501Z" fill="#002548"/>
<path d="M48.88 71.1299C48.76 71.4199 48.79 71.6999 48.95 71.7499C49.11 71.7999 49.33 71.5899 49.46 71.2999C49.58 71.0099 49.55 70.7299 49.39 70.6799C49.22 70.6399 49 70.8399 48.88 71.1299Z" fill="#002548"/>
<path d="M59.2296 47.9704C59.1096 48.2604 59.1396 48.5404 59.2996 48.5904C59.4596 48.6404 59.6796 48.4304 59.8096 48.1404C59.9296 47.8504 59.8996 47.5704 59.7396 47.5204C59.5696 47.4704 59.3496 47.6704 59.2296 47.9704Z" fill="#002548"/>
<path d="M43.47 66.7301C43.21 66.9201 43.09 67.1701 43.2 67.2901C43.31 67.4101 43.61 67.3501 43.87 67.1601C44.13 66.9701 44.25 66.7201 44.14 66.6001C44.04 66.4801 43.74 66.5401 43.47 66.7301Z" fill="#002548"/>
<path d="M64.7996 52.11C64.5396 52.3 64.4196 52.55 64.5296 52.67C64.6396 52.79 64.9395 52.73 65.1995 52.54C65.4595 52.35 65.5796 52.1 65.4696 51.98C65.3696 51.86 65.0596 51.92 64.7996 52.11Z" fill="#002548"/>
<path d="M42.7996 53.6098C42.4996 53.4698 42.2196 53.4798 42.1596 53.6298C42.0996 53.7798 42.2996 54.0098 42.5896 54.1498C42.8896 54.2898 43.1696 54.2798 43.2296 54.1298C43.2896 53.9798 43.0896 53.7498 42.7996 53.6098Z" fill="#002548"/>
<path d="M47.7198 48.7104C47.5398 48.4504 47.2898 48.3104 47.1598 48.4104C47.0298 48.5104 47.0698 48.8004 47.2498 49.0704C47.4298 49.3304 47.6798 49.4704 47.8098 49.3704C47.9398 49.2704 47.8998 48.9804 47.7198 48.7104Z" fill="#002548"/>
<path d="M61.4298 70.1996C61.2498 69.9396 60.9998 69.7996 60.8698 69.8996C60.7398 69.9996 60.7798 70.2896 60.9598 70.5596C61.1398 70.8196 61.3898 70.9596 61.5198 70.8596C61.6498 70.7496 61.6098 70.4596 61.4298 70.1996Z" fill="#002548"/>
<path d="M55.4996 59.0504L65.0596 63.6504C65.2496 63.7404 65.4596 63.6104 65.4596 63.4104L65.4196 62.2204C65.4096 61.9904 65.6896 61.8604 65.8696 62.0104L72.7896 67.8804C72.9996 68.0604 72.8296 68.3904 72.5496 68.3404L63.6396 66.5104C63.4296 66.4704 63.3496 66.2104 63.4996 66.0604L64.5396 65.0704C64.6696 64.9504 64.6396 64.7404 64.4796 64.6504L55.2196 59.5204C55.0896 59.4504 55.0396 59.2904 55.1196 59.1704C55.2096 59.0304 55.3696 58.9904 55.4996 59.0504Z" fill="#ED1C24"/>
<path d="M54.4997 58.6002L54.5197 49.5901C54.5197 49.3901 54.2897 49.2702 54.1097 49.3602L53.0297 49.9402C52.8197 50.0502 52.5697 49.8702 52.6297 49.6502L54.8597 41.0302C54.9297 40.7702 55.3197 40.7601 55.3897 41.0201L57.7997 49.4802C57.8597 49.6802 57.6597 49.8702 57.4497 49.8002L56.0597 49.3602C55.8897 49.3102 55.7097 49.4302 55.6997 49.6002L55.0497 58.6002C55.0397 58.7402 54.9197 58.8602 54.7697 58.8502C54.6197 58.8502 54.5097 58.7402 54.4997 58.6002Z" fill="#ED1C24"/>
<path d="M55.0996 60.3106C55.801 60.3106 56.3696 59.7599 56.3696 59.0806C56.3696 58.4013 55.801 57.8506 55.0996 57.8506C54.3982 57.8506 53.8296 58.4013 53.8296 59.0806C53.8296 59.7599 54.3982 60.3106 55.0996 60.3106Z" fill="#ED1C24"/>
<path d="M33.08 190.48L85.74 190.25C86.24 190.25 86.65 190.65 86.65 191.16L86.54 209.59C86.54 210.1 86.12 210.5 85.61 210.49C80.97 210.35 33.38 209.74 32.47 209.78C31.57 209.82 32.06 195.26 32.19 191.36C32.2 190.87 32.59 190.48 33.08 190.48Z" fill="#0054A6"/>
<path d="M85.6297 209.77C82.6597 209.68 54.2197 209.33 40.5497 209.16C36.5497 209.11 33.7196 209.07 32.9596 209.06H32.8896L32.8796 208.99C32.5596 207.17 32.5596 201.08 32.8996 191.37C32.8996 191.27 32.9896 191.19 33.0896 191.19L85.7496 190.96C85.7996 190.96 85.8496 190.98 85.8896 191.02C85.9296 191.06 85.9496 191.1 85.9397 191.15L85.8297 209.58C85.8197 209.69 85.7297 209.77 85.6297 209.77ZM33.0296 208.89C33.8796 208.9 36.6697 208.94 40.5497 208.98C54.2197 209.15 82.6597 209.51 85.6297 209.59H85.6396C85.6496 209.59 85.6496 209.58 85.6496 209.57L85.7596 191.14L85.7397 191.04V191.13L33.0796 191.36C33.0696 191.36 33.0596 191.37 33.0596 191.38C32.7396 200.95 32.7296 207 33.0296 208.89Z" fill="#002548"/>
<path d="M35.3301 195.24C35.3301 195.74 35.5001 196.14 35.7001 196.14H55.8701C56.0801 196.14 56.2401 195.74 56.2401 195.24C56.2401 194.74 56.0701 194.34 55.8701 194.34H35.7001C35.4901 194.34 35.3301 194.74 35.3301 195.24Z" fill="#002548"/>
<path d="M35.3301 198.32C35.3301 198.82 35.5001 199.22 35.7001 199.22H55.8701C56.0801 199.22 56.2401 198.82 56.2401 198.32C56.2401 197.82 56.0701 197.42 55.8701 197.42H35.7001C35.4901 197.41 35.3301 197.82 35.3301 198.32Z" fill="#002548"/>
<path d="M35.3301 201.39C35.3301 201.89 35.5001 202.29 35.7001 202.29H55.8701C56.0801 202.29 56.2401 201.89 56.2401 201.39C56.2401 200.89 56.0701 200.49 55.8701 200.49H35.7001C35.4901 200.49 35.3301 200.89 35.3301 201.39Z" fill="#002548"/>
<path d="M35.3301 204.47C35.3301 204.97 35.5001 205.37 35.7001 205.37H55.8701C56.0801 205.37 56.2401 204.97 56.2401 204.47C56.2401 203.97 56.0701 203.57 55.8701 203.57H35.7001C35.4901 203.57 35.3301 203.97 35.3301 204.47Z" fill="#002548"/>
<path d="M64.7654 196.701C65.2109 194.815 64.0427 192.924 62.1561 192.479C60.2695 192.033 58.379 193.201 57.9336 195.088C57.4881 196.975 58.6563 198.865 60.5429 199.311C62.4295 199.756 64.3199 198.588 64.7654 196.701Z" fill="#FFDD33"/>
<path d="M70.0701 199.39C72.0086 199.39 73.5801 197.819 73.5801 195.88C73.5801 193.942 72.0086 192.37 70.0701 192.37C68.1315 192.37 66.5601 193.942 66.5601 195.88C66.5601 197.819 68.1315 199.39 70.0701 199.39Z" fill="#FFDD33"/>
<path d="M78.7898 199.5C80.7283 199.5 82.2998 197.929 82.2998 195.99C82.2998 194.052 80.7283 192.48 78.7898 192.48C76.8513 192.48 75.2798 194.052 75.2798 195.99C75.2798 197.929 76.8513 199.5 78.7898 199.5Z" fill="#FFDD33"/>
<g opacity="0.19">
<path d="M64.2098 200.87H58.4898C58.1298 200.87 57.8398 201.16 57.8398 201.52C57.8398 201.88 58.1298 202.17 58.4898 202.17H64.2098C64.5698 202.17 64.8598 201.88 64.8598 201.52C64.8598 201.16 64.5698 200.87 64.2098 200.87Z" fill="#F9FAFB"/>
<path d="M72.9301 200.87H67.2101C66.8501 200.87 66.5601 201.16 66.5601 201.52C66.5601 201.88 66.8501 202.17 67.2101 202.17H72.9301C73.2901 202.17 73.5801 201.88 73.5801 201.52C73.5801 201.16 73.2901 200.87 72.9301 200.87Z" fill="#F9FAFB"/>
<path d="M75.9298 202.17H81.6498C82.0098 202.17 82.2998 201.88 82.2998 201.52C82.2998 201.16 82.0098 200.87 81.6498 200.87H75.9298C75.5698 200.87 75.2798 201.16 75.2798 201.52C75.2798 201.88 75.5698 202.17 75.9298 202.17Z" fill="#F9FAFB"/>
<path d="M64.2098 202.89H58.4898C58.1298 202.89 57.8398 203.18 57.8398 203.54V207.37C57.8398 207.73 58.1298 208.02 58.4898 208.02H64.2098C64.5698 208.02 64.8598 207.73 64.8598 207.37V203.54C64.8598 203.18 64.5698 202.89 64.2098 202.89Z" fill="#F9FAFB"/>
<path d="M72.9301 202.89H67.2101C66.8501 202.89 66.5601 203.18 66.5601 203.54V207.37C66.5601 207.73 66.8501 208.02 67.2101 208.02H72.9301C73.2901 208.02 73.5801 207.73 73.5801 207.37V203.54C73.5801 203.18 73.2901 202.89 72.9301 202.89Z" fill="#F9FAFB"/>
<path d="M81.6498 202.89H75.9298C75.5698 202.89 75.2798 203.18 75.2798 203.54V207.37C75.2798 207.73 75.5698 208.02 75.9298 208.02H81.6498C82.0098 208.02 82.2998 207.73 82.2998 207.37V203.54C82.2998 203.18 82.0098 202.89 81.6498 202.89Z" fill="#F9FAFB"/>
</g>
<path d="M82.7598 157.37C82.6398 157.44 82.6198 157.6 82.7198 157.7L93.2098 167.05C94.7798 168.47 95.6798 170.52 95.6698 172.68L95.4198 251.27C95.4198 251.5 95.5998 251.68 95.8198 251.68H115.96C116.22 251.68 116.42 251.46 116.4 251.19L112.28 175.42C112.15 172.99 113.3 170.67 115.28 169.37L123.62 163.55C123.77 163.45 123.68 163.21 123.51 163.23L108.27 165.07C106.24 165.38 104.17 164.82 102.54 163.53L88.3798 152.26C88.1498 152.08 87.8198 152.15 87.6798 152.42C86.5498 154.61 84.8698 156.22 82.7598 157.37Z" fill="#002548"/>
<path d="M175.42 112.57C176.18 112.5 176.93 112.53 177.66 112.66L178.93 111.01L182.06 112.45L181.63 114.49C182.2 114.96 182.72 115.52 183.15 116.14L185.21 115.87L186.4 119.1L184.65 120.23C184.72 120.99 184.69 121.74 184.56 122.47L186.21 123.74L184.77 126.87L182.73 126.44C182.26 127.01 181.7 127.53 181.08 127.96L181.35 130.02L178.12 131.21L176.99 129.46C176.23 129.53 175.48 129.5 174.75 129.37L173.48 131.02L170.35 129.58L170.78 127.54C170.21 127.07 169.69 126.51 169.26 125.89L167.2 126.16L166.01 122.93L167.76 121.8C167.69 121.04 167.72 120.29 167.85 119.56L166.2 118.29L167.64 115.16L169.68 115.59C170.15 115.02 170.71 114.5 171.33 114.07L171.06 112.01L174.29 110.82L175.42 112.57ZM175.68 117.33C173.25 117.8 171.98 120.39 173.03 122.57C173.74 124.06 175.41 124.91 177.03 124.6C179.46 124.13 180.73 121.54 179.69 119.36C178.97 117.87 177.3 117.02 175.68 117.33Z" fill="#0054A6"/>
<path d="M181.3 106.101C185.55 95.9909 183.33 86.6309 183.3 86.5309L185.93 85.8809C186.03 86.3009 188.41 96.1809 183.8 107.151L181.3 106.101Z" fill="#182F2F"/>
<path d="M188.51 86.8306L181.46 88.8206L183.52 82.8506L188.51 86.8306Z" fill="#182F2F"/>
<path d="M43.6398 100.94C40.4198 90.4604 43.5598 81.3603 43.5898 81.2703L41.0398 80.3604C40.8998 80.7604 37.5498 90.3604 41.0498 101.74L43.6398 100.94Z" fill="#182F2F"/>
<path d="M38.3896 81.0401L45.1996 83.7301L43.7496 77.5801L38.3896 81.0401Z" fill="#182F2F"/>
<path d="M71.4901 125.791C72.5901 125.751 73.6701 125.861 74.7101 126.111L76.6801 123.841L81.0601 126.181L80.2601 129.081C81.0401 129.811 81.7401 130.651 82.3201 131.581L85.3201 131.361L86.7601 136.121L84.1501 137.601C84.1901 138.701 84.0801 139.781 83.8301 140.821L86.1001 142.791L83.7601 147.171L80.8601 146.371C80.1301 147.151 79.2901 147.851 78.3601 148.431L78.5801 151.431L73.8201 152.871L72.3301 150.261C71.2301 150.301 70.1501 150.191 69.1101 149.941L67.1401 152.211L62.7601 149.871L63.5601 146.971C62.7801 146.241 62.0801 145.401 61.5001 144.471L58.5001 144.691L57.0601 139.931L59.6701 138.451C59.6301 137.351 59.7401 136.271 59.9901 135.231L57.7201 133.261L60.0601 128.881L62.9601 129.681C63.6901 128.901 64.5301 128.201 65.4601 127.621L65.2401 124.621L70.0001 123.181L71.4901 125.791ZM71.4701 132.671C67.9401 133.141 65.8801 136.761 67.2001 140.001C68.1001 142.201 70.4301 143.571 72.7901 143.261C76.3201 142.791 78.3801 139.171 77.0601 135.931C76.1601 133.721 73.8301 132.351 71.4701 132.671Z" fill="#839299"/>
<path d="M83.1601 65.2699C84.2001 65.1699 85.2301 65.2199 86.2301 65.3899L87.9601 63.1299L92.2401 65.0999L91.6501 67.8799C92.4301 68.5299 93.1401 69.2799 93.7301 70.1299L96.5501 69.7599L98.1801 74.1799L95.7901 75.7299C95.8901 76.7699 95.8401 77.7999 95.6701 78.7999L97.9301 80.5299L95.9601 84.8099L93.1801 84.2199C92.5301 84.9999 91.7801 85.7099 90.9301 86.2999L91.3001 89.1199L86.8801 90.7499L85.3301 88.3599C84.2901 88.4599 83.2601 88.4099 82.2601 88.2399L80.5301 90.4999L76.2501 88.5299L76.8401 85.7499C76.0601 85.0999 75.3501 84.3499 74.7601 83.4999L71.9401 83.8699L70.3101 79.4499L72.7001 77.8999C72.6001 76.8599 72.6501 75.8299 72.8201 74.8299L70.5601 73.0999L72.5301 68.8199L75.3101 69.4099C75.9601 68.6299 76.7101 67.9199 77.5601 67.3299L77.1901 64.5099L81.6101 62.8799L83.1601 65.2699ZM83.5201 71.7799C80.2001 72.4199 78.4601 75.9599 79.8901 78.9499C80.8601 80.9799 83.1401 82.1499 85.3601 81.7199C88.6801 81.0799 90.4201 77.5399 88.9901 74.5499C88.0201 72.5199 85.7301 71.3499 83.5201 71.7799Z" fill="#839299"/>
<path d="M149.71 126.02C151.05 125.89 152.38 125.95 153.67 126.18L155.91 123.27L161.43 125.82L160.67 129.41C161.68 130.25 162.59 131.22 163.36 132.32L167 131.84L169.1 137.54L166.02 139.54C166.15 140.88 166.09 142.21 165.86 143.5L168.77 145.74L166.22 151.26L162.63 150.5C161.79 151.51 160.82 152.42 159.72 153.19L160.2 156.83L154.5 158.93L152.5 155.85C151.16 155.98 149.83 155.92 148.54 155.69L146.3 158.6L140.78 156.05L141.54 152.46C140.53 151.62 139.62 150.65 138.85 149.55L135.21 150.03L133.11 144.33L136.19 142.33C136.06 140.99 136.12 139.66 136.35 138.37L133.44 136.13L135.99 130.61L139.58 131.37C140.42 130.36 141.39 129.45 142.49 128.68L142.01 125.04L147.71 122.94L149.71 126.02ZM150.18 134.42C145.9 135.25 143.65 139.82 145.5 143.67C146.76 146.3 149.7 147.8 152.56 147.25C156.84 146.42 159.09 141.85 157.24 138C155.98 135.38 153.04 133.87 150.18 134.42Z" fill="#839299"/>
<path d="M139.86 13.9502C140.01 6.20019 133.94 -0.0398088 126.29 0.000191237C118.65 0.0501912 112.33 6.36019 112.17 14.1102C112.06 19.7202 115.21 24.5402 119.86 26.7502C119.83 28.4102 119.79 30.2902 119.79 30.2902L131.92 30.2202C131.92 30.2202 132.03 28.2302 132.09 26.4602C136.61 24.1102 139.75 19.3802 139.86 13.9502Z" fill="#FFDD33"/>
<path d="M124.49 30.1602C124.51 25.6102 124.83 21.0602 124.76 16.5102C124.75 15.5902 124.72 14.6702 124.63 13.7602C124.52 12.6102 124.28 11.3402 123.24 10.7102C122.79 10.4302 122.22 10.3302 121.7 10.5302C121.2 10.7302 120.83 11.1602 120.59 11.6302C120.06 12.6402 119.93 13.8902 120.07 14.9902C120.36 17.2502 121.79 19.2202 123.93 19.9902C126.06 20.7602 128.59 20.3102 130.3 18.7002C131.97 17.1302 132.91 14.4102 132.15 12.2102C131.82 11.2602 131.02 10.2002 129.9 10.3302C128.81 10.4602 128.27 11.5502 128.02 12.5102C127.73 13.6202 127.66 14.8102 127.55 15.9402C127.43 17.2702 127.35 18.5902 127.28 19.9202C127.14 22.6502 127.06 25.3902 126.91 28.1202C126.88 28.7202 126.84 29.3302 126.8 29.9302C126.79 30.1302 127.1 30.1202 127.11 29.9202C127.44 25.0802 127.43 20.2302 127.91 15.4002C128.02 14.3302 128.08 13.2102 128.44 12.1802C128.61 11.6802 128.88 11.1502 129.33 10.8602C129.81 10.5502 130.39 10.5802 130.85 10.8902C131.81 11.5302 132.1 12.8402 132.08 13.9502C132.07 15.0902 131.72 16.2302 131.12 17.2102C129.9 19.2002 127.66 20.2502 125.4 20.0002C123.19 19.7502 121.37 18.2802 120.66 16.1602C120.32 15.1402 120.24 14.0302 120.46 12.9602C120.68 11.9002 121.37 10.4002 122.69 10.8002C123.95 11.1902 124.22 12.6602 124.33 13.8202C124.41 14.6202 124.43 15.4302 124.45 16.2402C124.53 20.4502 124.27 24.6802 124.2 28.8902C124.19 29.3202 124.19 29.7402 124.19 30.1702C124.18 30.3802 124.49 30.3602 124.49 30.1602Z" fill="white"/>
<path d="M122.95 36.4099C122.95 36.4099 123.44 36.7299 123.73 37.1199C123.88 37.3199 124.12 37.4299 124.37 37.4299L126.81 37.4099C127.08 37.4099 127.34 37.2699 127.5 37.0399C127.68 36.7699 128.01 36.4499 128.35 36.3799L122.95 36.4099Z" fill="#839299"/>
<path d="M120.44 29.53C120.44 29.58 120.93 33.44 121.12 34.92C121.2 35.53 121.56 36.06 122.1 36.31C122.3 36.4 122.53 36.46 122.79 36.46C123.84 36.45 128.13 36.42 128.13 36.42C128.13 36.42 129.53 36.41 129.86 35.29C130.22 34.11 130.93 29.46 130.93 29.46L120.44 29.53Z" fill="#D2D9DC"/>
<path d="M130.53 34.5602L120.83 34.6602C120.68 34.6602 120.57 34.5402 120.57 34.3902V34.3602C120.57 34.2102 120.69 34.0902 120.84 34.0902L130.54 33.9902C130.69 33.9902 130.8 34.1102 130.8 34.2602V34.2902C130.8 34.4302 130.68 34.5602 130.53 34.5602Z" fill="#839299"/>
<path d="M130.68 33.3405L120.73 33.4405C120.58 33.4405 120.47 33.3205 120.47 33.1705V33.1405C120.47 32.9905 120.59 32.8705 120.74 32.8705L130.69 32.7705C130.84 32.7705 130.95 32.8905 130.95 33.0405V33.0705C130.94 33.2205 130.82 33.3405 130.68 33.3405Z" fill="#839299"/>
<path d="M130.9 32.1208L120.55 32.2308C120.4 32.2308 120.29 32.1108 120.29 31.9608V31.9308C120.29 31.7808 120.41 31.6608 120.56 31.6608L130.91 31.5508C131.06 31.5508 131.17 31.6708 131.17 31.8208V31.8508C131.17 32.0008 131.05 32.1208 130.9 32.1208Z" fill="#D2D9DC"/>
<path d="M130.9 32.1204C130.89 32.1104 130.99 32.1304 131.1 32.0204C131.15 31.9604 131.17 31.8704 131.15 31.7604C131.13 31.6604 131.03 31.5604 130.89 31.5704C130.32 31.5804 129.5 31.5904 128.49 31.6104C126.46 31.6304 123.66 31.6704 120.56 31.7104C120.48 31.7104 120.4 31.7604 120.36 31.8304C120.32 31.9004 120.32 32.0004 120.36 32.0704C120.4 32.1404 120.47 32.1904 120.55 32.1804C120.64 32.1804 120.74 32.1804 120.83 32.1804C121.21 32.1804 121.58 32.1704 121.94 32.1704C122.67 32.1604 123.37 32.1604 124.04 32.1504C125.38 32.1404 126.59 32.1304 127.6 32.1204C128.61 32.1204 129.43 32.1104 130 32.1104C130.28 32.1104 130.5 32.1104 130.65 32.1104C130.72 32.1104 130.78 32.1104 130.82 32.1104C130.88 32.1204 130.9 32.1204 130.9 32.1204C130.9 32.1204 130.88 32.1204 130.84 32.1304C130.8 32.1304 130.74 32.1304 130.67 32.1404C130.51 32.1404 130.3 32.1504 130.02 32.1604C129.45 32.1704 128.63 32.1804 127.62 32.2004C126.6 32.2104 125.4 32.2304 124.06 32.2504C123.39 32.2604 122.69 32.2704 121.96 32.2704C121.59 32.2704 121.22 32.2804 120.85 32.2804C120.76 32.2804 120.66 32.2804 120.57 32.2804C120.46 32.2804 120.35 32.2204 120.3 32.1204C120.27 32.0704 120.26 32.0104 120.26 31.9604C120.26 31.9104 120.27 31.8504 120.3 31.8004C120.35 31.7004 120.46 31.6304 120.58 31.6304C123.67 31.6004 126.47 31.5804 128.51 31.5604C129.52 31.5604 130.34 31.5504 130.91 31.5504C131.06 31.5404 131.18 31.6604 131.2 31.7704C131.22 31.8804 131.19 31.9904 131.13 32.0404C131.08 32.1004 131.02 32.1204 130.98 32.1304C130.92 32.1204 130.9 32.1204 130.9 32.1204Z" fill="#D2D9DC"/>
<path d="M119.25 27.2101C119.25 27.3101 119.42 29.6801 119.51 30.8901C119.54 31.3401 119.78 31.7401 120.14 31.9801L120.68 32.3301L131 32.2601L131.54 31.9001C131.92 31.6501 132.17 31.2401 132.22 30.7901L132.6 27.1201L119.25 27.2101Z" fill="#839299"/>
<path d="M132.53 27.0506C132.53 27.0806 129.53 27.1306 125.83 27.1706C122.13 27.2106 119.13 27.2206 119.13 27.1906C119.13 27.1606 122.13 27.1106 125.83 27.0706C129.53 27.0306 132.53 27.0206 132.53 27.0506Z" fill="#F5F7F9"/>
<g opacity="0.19">
<path d="M123.43 4.13061C123.42 3.53061 123.82 2.9206 124.39 2.4206C125.21 1.7106 126.28 1.38061 127.34 1.45061C130.46 1.63061 132.6 2.59061 134.71 5.07061C135.43 5.91061 136.26 7.45061 136.19 8.63061C136.15 9.22061 135.91 9.79061 135.46 10.1806C134.28 11.1806 132.66 10.3706 131.72 9.31061C130.84 8.32061 130.14 7.08061 128.93 6.55061C127.93 6.12061 126.78 6.2606 125.7 6.10061C124.62 5.94061 123.45 5.24061 123.43 4.13061Z" fill="#F9FAFB"/>
</g>
<g opacity="0.19">
<path d="M134.58 13.1201C134.9 12.2001 136.01 11.6101 136.75 11.7801C137.36 11.9401 137.9 12.3801 138.13 12.9701C138.41 13.6801 138.22 14.5801 137.65 15.1101C137.08 15.6401 136.17 15.7501 135.52 15.3601C134.88 14.9601 134.32 13.8601 134.58 13.1201Z" fill="#F9FAFB"/>
</g>
<path d="M101.9 121.98C103.31 121.24 104.8 120.7 106.32 120.36L107.46 116.15L114.67 116.45L115.46 120.74C116.95 121.2 118.39 121.86 119.73 122.72L123.51 120.55L128.4 125.86L125.92 129.45C126.66 130.86 127.2 132.35 127.54 133.87L131.75 135.01L131.45 142.22L127.16 143.01C126.7 144.5 126.04 145.93 125.18 147.28L127.35 151.06L122.04 155.95L118.45 153.47C117.04 154.21 115.55 154.75 114.03 155.09L112.89 159.3L105.68 159L104.89 154.71C103.4 154.25 101.97 153.59 100.62 152.73L96.8401 154.9L91.9501 149.59L94.4301 146C93.6901 144.59 93.1501 143.1 92.8101 141.58L88.6001 140.44L88.9001 133.23L93.1901 132.44C93.6501 130.95 94.3101 129.52 95.1701 128.17L93.0001 124.39L98.3101 119.5L101.9 121.98ZM106.21 130.99C101.89 133.84 101.49 139.87 105.26 143.26C107.83 145.57 111.74 145.89 114.63 143.99C118.96 141.14 119.36 135.11 115.59 131.72C113.01 129.41 109.1 129.09 106.21 130.99Z" fill="#0054A6"/>
<path d="M87.3298 24.0702C88.7398 23.3302 90.2298 22.7902 91.7498 22.4502L92.8898 18.2402L100.1 18.5402L100.89 22.8302C102.38 23.2902 103.82 23.9502 105.16 24.8102L108.94 22.6402L113.83 27.9502L111.35 31.5402C112.09 32.9502 112.63 34.4402 112.97 35.9602L117.18 37.1002L116.88 44.3102L112.59 45.1002C112.13 46.5902 111.47 48.0202 110.61 49.3702L112.78 53.1502L107.47 58.0402L103.88 55.5602C102.47 56.3002 100.98 56.8402 99.4598 57.1802L98.3198 61.3902L91.1098 61.0902L90.3198 56.8002C88.8298 56.3402 87.3998 55.6802 86.0498 54.8202L82.2698 56.9902L77.3798 51.6802L79.8598 48.0902C79.1198 46.6802 78.5798 45.1902 78.2398 43.6702L74.0298 42.5302L74.3298 35.3202L78.6198 34.5302C79.0798 33.0402 79.7398 31.6102 80.5998 30.2602L78.4298 26.4802L83.7398 21.5902L87.3298 24.0702ZM91.6498 33.0802C87.3298 35.9302 86.9298 41.9602 90.6998 45.3502C93.2698 47.6602 97.1798 47.9802 100.07 46.0802C104.4 43.2302 104.8 37.2002 101.03 33.8102C98.4498 31.5002 94.5398 31.1802 91.6498 33.0802Z" fill="#0054A6"/>
<path d="M57.7498 82.8807C58.3998 82.5407 59.0899 82.2907 59.7999 82.1307L60.3298 80.1807L63.6698 80.3207L64.0398 82.3107C64.7298 82.5207 65.3998 82.8307 66.0198 83.2307L67.7698 82.2207L70.0398 84.6807L68.8898 86.3407C69.2298 86.9907 69.4798 87.6807 69.6398 88.3907L71.5898 88.9207L71.4498 92.2607L69.4599 92.6307C69.2499 93.3207 68.9398 93.9907 68.5398 94.6107L69.5499 96.3607L67.0898 98.6307L65.4298 97.4807C64.7798 97.8207 64.0898 98.0707 63.3798 98.2307L62.8498 100.181L59.5098 100.041L59.1398 98.0507C58.4498 97.8407 57.7799 97.5307 57.1599 97.1307L55.4099 98.1407L53.1398 95.6807L54.2898 94.0207C53.9498 93.3707 53.6998 92.6807 53.5398 91.9707L51.5898 91.4407L51.7299 88.1007L53.7198 87.7307C53.9298 87.0407 54.2398 86.3707 54.6398 85.7507L53.6298 84.0007L56.0898 81.7307L57.7498 82.8807ZM59.7498 87.0607C57.7398 88.3807 57.5598 91.1807 59.3098 92.7507C60.4998 93.8207 62.3199 93.9707 63.6599 93.0907C65.6699 91.7707 65.8498 88.9707 64.0998 87.4007C62.9098 86.3307 61.0898 86.1807 59.7498 87.0607Z" fill="#0054A6"/>
<path d="M149.57 59.3204C152.15 60.3404 154.54 61.6804 156.7 63.2904L163.57 60.1104L171.31 69.8404L166.5 75.6204C167.57 78.0704 168.31 80.6804 168.69 83.3804L175.84 85.9004L174.31 98.1604L166.75 98.9104C165.72 101.44 164.35 103.79 162.71 105.92L165.95 112.67L156.04 120.28L150.15 115.56C147.66 116.61 145 117.34 142.25 117.72L139.68 124.74L127.2 123.24L126.44 115.82C123.86 114.8 121.47 113.46 119.31 111.85L112.44 115.03L104.7 105.3L109.51 99.5204C108.44 97.0704 107.7 94.4604 107.32 91.7604L100.17 89.2404L101.7 76.9804L109.26 76.2304C110.29 73.7004 111.66 71.3504 113.3 69.2204L110.06 62.4704L119.97 54.8604L125.86 59.5804C128.35 58.5304 131.01 57.8004 133.76 57.4204L136.33 50.4004L148.81 51.9004L149.57 59.3204ZM142.47 74.9304C133.81 72.4404 125.36 78.6104 125.1 87.2904C124.93 93.2004 128.92 98.6604 134.7 100.32C143.36 102.81 151.82 96.6404 152.07 87.9604C152.24 82.0504 148.25 76.5904 142.47 74.9304Z" fill="#0054A6"/>
<path d="M149.57 59.3204C152.15 60.3404 154.54 61.6804 156.7 63.2904L163.57 60.1104L171.31 69.8404L166.5 75.6204C167.57 78.0704 168.31 80.6804 168.69 83.3804L175.84 85.9004L174.31 98.1604L166.75 98.9104C165.72 101.44 164.35 103.79 162.71 105.92L165.95 112.67L156.04 120.28L150.15 115.56C147.66 116.61 145 117.34 142.25 117.72L139.68 124.74L127.2 123.24L126.44 115.82C123.86 114.8 121.47 113.46 119.31 111.85L112.44 115.03L104.7 105.3L109.51 99.5204C108.44 97.0704 107.7 94.4604 107.32 91.7604L100.17 89.2404L101.7 76.9804L109.26 76.2304C110.29 73.7004 111.66 71.3504 113.3 69.2204L110.06 62.4704L119.97 54.8604L125.86 59.5804C128.35 58.5304 131.01 57.8004 133.76 57.4204L136.33 50.4004L148.81 51.9004L149.57 59.3204ZM142.47 74.9304C133.81 72.4404 125.36 78.6104 125.1 87.2904C124.93 93.2004 128.92 98.6604 134.7 100.32C143.36 102.81 151.82 96.6404 152.07 87.9604C152.24 82.0504 148.25 76.5904 142.47 74.9304Z" fill="#0054A6"/>
<path d="M174.735 49.867C175.64 45.1255 172.53 40.548 167.788 39.643C163.047 38.7379 158.469 41.848 157.564 46.5895C156.659 51.331 159.769 55.9085 164.511 56.8136C169.252 57.7186 173.83 54.6085 174.735 49.867Z" fill="#FFDD33"/>
<path opacity="0.19" d="M174.735 49.867C175.64 45.1255 172.53 40.548 167.788 39.643C163.047 38.7379 158.469 41.848 157.564 46.5895C156.659 51.331 159.769 55.9085 164.511 56.8136C169.252 57.7186 173.83 54.6085 174.735 49.867Z" fill="#2D2F31"/>
<path d="M168.144 55.6123C172.106 54.6127 174.508 50.5899 173.509 46.6272C172.509 42.6646 168.486 40.2626 164.524 41.2622C160.561 42.2619 158.159 46.2846 159.159 50.2473C160.158 54.21 164.181 56.612 168.144 55.6123Z" fill="#FFDD33"/>
<path d="M165.61 53.9307V53.1307C164.77 53.1007 163.94 52.9007 163.35 52.6407C163.14 52.5507 163.03 52.3107 163.09 52.0907L163.29 51.3407C163.36 51.0607 163.66 50.9207 163.93 51.0307C164.51 51.2807 165.24 51.4707 166.02 51.4707C166.83 51.4707 167.43 51.2007 167.43 50.6307C167.43 50.1207 166.96 49.8207 165.84 49.5207C164.24 49.0807 163.09 48.3807 163.09 46.9707C163.09 45.7007 164.02 44.7207 165.64 44.4607V43.6507C165.64 43.3907 165.85 43.1807 166.11 43.1807H166.58C166.84 43.1807 167.05 43.3907 167.05 43.6507V44.3707C167.83 44.4007 168.39 44.5307 168.84 44.6907C169.07 44.7707 169.2 45.0207 169.13 45.2507L168.94 45.9407C168.87 46.2107 168.58 46.3507 168.32 46.2607C167.91 46.1007 167.32 45.9407 166.56 45.9407C165.6 45.9407 165.33 46.3407 165.33 46.6907C165.33 47.1307 165.91 47.4307 167.15 47.8107C168.93 48.3407 169.67 49.0807 169.67 50.4107C169.67 51.6307 168.77 52.7307 167.01 53.0007V53.9007C167.01 54.1607 166.8 54.3707 166.54 54.3707H166.07C165.82 54.4007 165.61 54.1907 165.61 53.9307Z" fill="#FFDD33"/>
<g opacity="0.19">
<path d="M165.61 53.9307V53.1307C164.77 53.1007 163.94 52.9007 163.35 52.6407C163.14 52.5507 163.03 52.3107 163.09 52.0907L163.29 51.3407C163.36 51.0607 163.66 50.9207 163.93 51.0307C164.51 51.2807 165.24 51.4707 166.02 51.4707C166.83 51.4707 167.43 51.2007 167.43 50.6307C167.43 50.1207 166.96 49.8207 165.84 49.5207C164.24 49.0807 163.09 48.3807 163.09 46.9707C163.09 45.7007 164.02 44.7207 165.64 44.4607V43.6507C165.64 43.3907 165.85 43.1807 166.11 43.1807H166.58C166.84 43.1807 167.05 43.3907 167.05 43.6507V44.3707C167.83 44.4007 168.39 44.5307 168.84 44.6907C169.07 44.7707 169.2 45.0207 169.13 45.2507L168.94 45.9407C168.87 46.2107 168.58 46.3507 168.32 46.2607C167.91 46.1007 167.32 45.9407 166.56 45.9407C165.6 45.9407 165.33 46.3407 165.33 46.6907C165.33 47.1307 165.91 47.4307 167.15 47.8107C168.93 48.3407 169.67 49.0807 169.67 50.4107C169.67 51.6307 168.77 52.7307 167.01 53.0007V53.9007C167.01 54.1607 166.8 54.3707 166.54 54.3707H166.07C165.82 54.4007 165.61 54.1907 165.61 53.9307Z" fill="#2D2F31"/>
</g>
<path d="M155.568 42.6466C156.513 38.6705 154.056 34.6809 150.08 33.7355C146.104 32.7902 142.114 35.2472 141.169 39.2234C140.223 43.1995 142.68 47.1892 146.656 48.1345C150.633 49.0798 154.622 46.6228 155.568 42.6466Z" fill="#FFDD33"/>
<path opacity="0.19" d="M155.568 42.6466C156.513 38.6705 154.056 34.6809 150.08 33.7355C146.104 32.7902 142.114 35.2472 141.169 39.2234C140.223 43.1995 142.68 47.1892 146.656 48.1345C150.633 49.0798 154.622 46.6228 155.568 42.6466Z" fill="#2D2F31"/>
<path d="M154.626 42.5487C155.428 39.1855 153.351 35.8094 149.987 35.008C146.624 34.2065 143.248 36.2833 142.447 39.6466C141.645 43.0099 143.722 46.386 147.085 47.1874C150.449 47.9888 153.825 45.912 154.626 42.5487Z" fill="#FFDD33"/>
<path d="M147.92 45.7609V45.0809C147.21 45.0509 146.51 44.8809 146.01 44.6709C145.83 44.5909 145.74 44.3909 145.79 44.2009L145.96 43.5709C146.02 43.3409 146.28 43.2209 146.5 43.3109C146.99 43.5209 147.61 43.6809 148.26 43.6809C148.94 43.6809 149.45 43.4509 149.45 42.9709C149.45 42.5409 149.06 42.2909 148.11 42.0309C146.75 41.6609 145.78 41.0709 145.78 39.8709C145.78 38.7909 146.57 37.9709 147.94 37.7509V37.0709C147.94 36.8509 148.12 36.6709 148.34 36.6709H148.74C148.96 36.6709 149.14 36.8509 149.14 37.0709V37.6809C149.8 37.7109 150.28 37.8209 150.66 37.9509C150.85 38.0209 150.96 38.2309 150.91 38.4309L150.75 39.0209C150.69 39.2509 150.45 39.3709 150.23 39.2909C149.88 39.1609 149.39 39.0209 148.74 39.0209C147.93 39.0209 147.7 39.3609 147.7 39.6609C147.7 40.0309 148.19 40.2909 149.24 40.6109C150.75 41.0609 151.37 41.6909 151.37 42.8109C151.37 43.8409 150.6 44.7709 149.12 45.0009V45.7609C149.12 45.9809 148.94 46.1609 148.72 46.1609H148.32C148.1 46.1509 147.92 45.9809 147.92 45.7609Z" fill="#FFDD33"/>
<g opacity="0.19">
<path d="M147.92 45.7609V45.0809C147.21 45.0509 146.51 44.8809 146.01 44.6709C145.83 44.5909 145.74 44.3909 145.79 44.2009L145.96 43.5709C146.02 43.3409 146.28 43.2209 146.5 43.3109C146.99 43.5209 147.61 43.6809 148.26 43.6809C148.94 43.6809 149.45 43.4509 149.45 42.9709C149.45 42.5409 149.06 42.2909 148.11 42.0309C146.75 41.6609 145.78 41.0709 145.78 39.8709C145.78 38.7909 146.57 37.9709 147.94 37.7509V37.0709C147.94 36.8509 148.12 36.6709 148.34 36.6709H148.74C148.96 36.6709 149.14 36.8509 149.14 37.0709V37.6809C149.8 37.7109 150.28 37.8209 150.66 37.9509C150.85 38.0209 150.96 38.2309 150.91 38.4309L150.75 39.0209C150.69 39.2509 150.45 39.3709 150.23 39.2909C149.88 39.1609 149.39 39.0209 148.74 39.0209C147.93 39.0209 147.7 39.3609 147.7 39.6609C147.7 40.0309 148.19 40.2909 149.24 40.6109C150.75 41.0609 151.37 41.6909 151.37 42.8109C151.37 43.8409 150.6 44.7709 149.12 45.0009V45.7609C149.12 45.9809 148.94 46.1609 148.72 46.1609H148.32C148.1 46.1509 147.92 45.9809 147.92 45.7609Z" fill="#2D2F31"/>
</g>
</svg>
