<svg width="40" height="40" viewBox="0 0 40 40" fill="none" xmlns="http://www.w3.org/2000/svg">
<g clip-path="url(#clip0_11903_50940)">
<path d="M18.5984 31.3001C13.7984 30.7001 9.99844 27.2001 8.89844 22.6001C9.99844 27.2001 13.8984 30.8001 18.5984 31.3001Z" fill="#F0F0F0"/>
<path d="M27.3969 28.7002C26.5969 29.4002 25.7969 29.9002 24.7969 30.4002C25.7969 29.9002 26.5969 29.3002 27.3969 28.7002Z" fill="#F0F0F0"/>
<path d="M24.7984 30.4004C24.4984 30.5004 24.1984 30.7004 23.8984 30.8004C24.1984 30.6004 24.4984 30.5004 24.7984 30.4004Z" fill="#F0F0F0"/>
<path d="M22.8953 31C22.7953 31 22.7953 31 22.6953 31C22.7953 31.1 22.8953 31.1 22.8953 31Z" fill="#F0F0F0"/>
<path d="M23.8969 30.7002H23.7969C23.7969 30.8002 23.8969 30.8002 23.8969 30.7002Z" fill="#F0F0F0"/>
<path d="M29.2969 13.4002C28.9969 13.0002 28.6969 12.6002 28.2969 12.2002C28.6969 12.6002 29.0969 13.0002 29.2969 13.4002Z" fill="#F0F0F0"/>
<path d="M10.2 14.1C9.1 15.9 8.5 18.1 8.6 20.5C8.6 20.7 8.6 20.9 8.6 21.1C8.6 21.3 8.6 21.5 8.7 21.6C8.7 21.8 8.7 22 8.8 22.1C8.8 22.3 8.9 22.5 8.9 22.6C10 27.2 13.9 30.7 18.6 31.3C19 31.3 19.3 31.4 19.7 31.4C20 31.4 20.3 31.4 20.6 31.4C20.7 31.4 20.7 31.4 20.8 31.4C21.1 31.4 21.4 31.3 21.7 31.3C21.8 31.3 21.8 31.3 21.9 31.3C22.2 31.3 22.5 31.2 22.8 31.1C22.9 31.1 22.9 31.1 23 31.1C23.3 31 23.6 30.9 23.9 30.8H24C24.3 30.7 24.6 30.6 24.9 30.4C24.9 30.4 24.9 30.4 25 30.4C25.9 30 26.8 29.4 27.6 28.7C27.7 28.6 27.8 28.5 27.9 28.4L28 28.3C28.2 28.1 28.3 28 28.5 27.8C29 27.3 29.4 26.8 29.7 26.2C29.8 26 29.9 25.9 30 25.7C30.1 25.6 30.1 25.5 30.2 25.4C30.3 25.2 30.4 25 30.5 24.8C30.5 24.7 30.6 24.6 30.6 24.5C30.7 24.3 30.8 24 30.9 23.7C31 23.4 31.1 23.1 31.2 22.8L33 23.7V35.4L32.3 36.1L30.9 35C30.4 34.4 29.5 34.3 28.8 34.7C27.4 35.6 25.8 36.2 24.1 36.6C23.3 36.8 22.8 37.5 22.8 38.3C22.8 39.2 22 40 21.1 40H18.8C17.8 40 17.1 39.2 17.1 38.3C17.1 37.5 16.6 36.8 15.8 36.6C14.1 36.2 12.6 35.5 11.1 34.7C10.8 34.5 10.5 34.5 10.2 34.5C9.8 34.5 9.3 34.7 9 35C8.3 35.7 7.2 35.7 6.6 35L5 33.3C4.7 33 4.5 32.5 4.5 32.1C4.5 31.7 4.7 31.2 5 30.9C5.5 30.4 5.7 29.5 5.3 28.8C4.4 27.4 3.8 25.8 3.4 24.1C3.2 23.3 2.5 22.8 1.7 22.8C0.8 22.8 0 22 0 21.1V18.8C0 17.8 0.8 17.1 1.7 17.1C2.5 17.1 3.2 16.6 3.4 15.8C3.8 14.1 4.5 12.6 5.3 11.1C5.5 10.8 5.5 10.5 5.5 10.2C5.5 9.8 5.3 9.3 5 9C4.4 8.4 4.4 7.3 5 6.7L6.7 5C7 4.7 7.4 4.5 7.9 4.5C8.4 4.5 8.8 4.7 9.1 5C9.6 5.5 10.5 5.7 11.2 5.3C12.6 4.4 14.2 3.8 15.9 3.4C16.7 3.2 17.2 2.5 17.2 1.7C17.2 0.8 18 0 18.9 0H21.2C22.2 0 22.9 0.8 22.9 1.7C22.9 2.5 23.4 3.2 24.2 3.4C25.9 3.8 27.4 4.5 28.9 5.3C29.2 5.5 29.5 5.5 29.8 5.5C30.2 5.5 30.7 5.3 31 5C31.7 4.3 32.8 4.3 33.4 5L35 6.7C35.3 7 35.5 7.5 35.5 7.9C35.5 8.3 35.3 8.8 35 9.1C34.4 9.7 34.3 10.5 34.8 11.2C35 11.5 35.2 11.9 35.4 12.2L30.3 14.8C30.1 14.3 29.8 13.9 29.5 13.5C29.2 13.1 28.9 12.7 28.5 12.3C28.3 12.1 28.1 11.9 28 11.8C25.8 9.8 23 8.6 20 8.6C17.8 8.6 15.8 9.2 14.1 10.3C13.8 10.5 13.5 10.7 13.2 10.9C12.3 11.6 11.5 12.3 10.9 13.2C10.6 13.5 10.4 13.8 10.2 14.1Z" fill="#0054A6"/>
<path d="M37.0969 14.2998V18.0998C37.0969 18.5998 36.6969 18.9998 36.1969 18.9998H35.0969C34.5969 18.9998 34.1969 18.5998 34.1969 18.0998V14.2998C32.3969 15.1998 31.2969 16.9998 31.2969 18.8998V19.5998C31.2969 20.6998 31.8969 21.6998 32.8969 22.1998L34.0969 22.7998V36.3998C34.0969 36.7998 34.3969 37.0998 34.7969 37.0998H36.1969C36.5969 37.0998 36.8969 36.7998 36.8969 36.3998V22.8998L38.0969 22.2998C39.0969 21.7998 39.6969 20.7998 39.6969 19.6998V18.9998C39.9969 16.9998 38.8969 15.1998 37.0969 14.2998Z" fill="#839299"/>
<path d="M13.6016 27.9998H16.8016V24.7998L13.6016 27.5998V27.9998Z" fill="#FFDD33"/>
<path d="M18.3984 28H21.5984V20.5L18.3984 23.3V28Z" fill="#FFDD33"/>
<path d="M24.0031 18.3999L23.2031 19.0999V27.9999H26.4031V19.0999L25.7031 18.3999H24.0031Z" fill="#FFDD33"/>
<path d="M21.6016 12L22.7016 13.1L13.6016 21.2V25.5L25.0016 15.4L26.4016 16.8V12H21.6016Z" fill="#54CC5A"/>
</g>
<defs>
<clipPath id="clip0_11903_50940">
<rect width="40" height="40" fill="white"/>
</clipPath>
</defs>
</svg>
