<svg width="420" height="338" viewBox="0 0 420 338" fill="none" xmlns="http://www.w3.org/2000/svg">
<path d="M209.997 274.202C291.6 274.202 357.752 270.832 357.752 266.675C357.752 262.517 291.6 259.147 209.997 259.147C128.394 259.147 62.2422 262.517 62.2422 266.675C62.2422 270.832 128.394 274.202 209.997 274.202Z" fill="#D2D9DC"/>
<path d="M186.506 209.121L181.141 257.219H243.371L235.264 209.121H186.506Z" fill="#5F737C"/>
<path d="M256.77 267.063H165.704C163.226 267.063 161.372 265.304 161.848 263.413L163.014 258.795C163.366 257.402 164.898 256.384 166.708 256.325L254.498 253.584C256.396 253.525 258.075 254.529 258.485 255.973L260.589 263.332C261.153 265.245 259.284 267.063 256.77 267.063Z" fill="#839299"/>
<path d="M71.6243 222.989C71.4557 222.989 71.3164 222.849 71.3164 222.681C71.3164 222.512 71.4557 222.373 71.6243 222.373L353.09 222.16C353.259 222.16 353.398 222.3 353.398 222.468C353.398 222.637 353.259 222.776 353.09 222.776L71.6243 222.989Z" fill="#002548"/>
<path d="M341.919 229.387H78.0743C68.1497 229.387 60.1016 221.339 60.1016 211.415V80.9435C60.1016 71.0189 68.1497 62.9707 78.0743 62.9707H341.919C351.844 62.9707 359.892 71.0189 359.892 80.9435V211.415C359.892 221.339 351.844 229.387 341.919 229.387Z" fill="#839299"/>
<path d="M341.339 219.294H78.6522C73.4773 219.294 69.2773 215.102 69.2773 209.919V82.4388C69.2773 77.264 73.47 73.064 78.6522 73.064H341.346C346.521 73.064 350.721 77.2566 350.721 82.4388V209.919C350.714 215.094 346.514 219.294 341.339 219.294Z" fill="#D2D9DC"/>
<path d="M83.0209 219.302L82.3172 213.863C81.423 210.154 85.9602 206.606 89.7717 206.577L245.721 205.302C249.687 205.272 252.912 208.475 252.912 212.434V218.898L83.0209 219.302Z" fill="#F9FAFB"/>
<path d="M260.376 219.302L260.025 213.863C259.585 210.154 261.828 206.606 263.712 206.577L340.88 205.302C342.837 205.272 344.435 208.475 344.435 212.434V213.694C344.435 216.568 342.112 218.906 339.238 218.92L260.376 219.302Z" fill="#F9FAFB"/>
<path d="M251.669 121.126L337.289 119.682C340.734 119.623 343.504 122.577 343.299 126.103L340.353 176.781C340.191 179.552 337.963 181.729 335.244 181.758L252.944 182.572C250.914 182.594 249.235 180.952 249.155 178.87L247.183 125.971C247.088 123.361 249.111 121.17 251.669 121.126Z" fill="#F9FAFB"/>
<path d="M252.979 122.416L336.364 121.038C339.721 120.979 342.418 123.794 342.213 127.144L339.34 175.359C339.186 177.998 337.009 180.065 334.363 180.094L254.211 180.871C252.232 180.893 250.597 179.332 250.517 177.353L248.596 127.026C248.516 124.541 250.487 122.46 252.979 122.416Z" fill="#0054A6"/>
<path d="M254.541 124.08L333.946 122.768C337.141 122.716 339.707 125.392 339.516 128.588L336.782 174.502C336.636 177.016 334.561 178.98 332.047 179.01L255.721 179.75C253.838 179.765 252.276 178.284 252.203 176.4L250.378 128.478C250.29 126.103 252.166 124.116 254.541 124.08Z" fill="#F9FAFB"/>
<path d="M336.56 121.001L252.824 122.386C250.325 122.43 248.346 124.519 248.441 127.019L248.573 130.567H342.226L342.431 127.136C342.637 123.772 339.925 120.95 336.56 121.001Z" fill="#0054A6"/>
<path d="M255.455 124.102C255.455 124.52 255.118 124.857 254.7 124.857C254.282 124.857 253.945 124.52 253.945 124.102C253.945 123.684 254.282 123.347 254.7 123.347C255.118 123.347 255.455 123.684 255.455 124.102Z" fill="#D2D9DC"/>
<path d="M255.455 126.308C255.455 126.726 255.118 127.063 254.7 127.063C254.282 127.063 253.945 126.726 253.945 126.308C253.945 125.89 254.282 125.553 254.7 125.553C255.118 125.553 255.455 125.89 255.455 126.308Z" fill="#D2D9DC"/>
<path d="M255.455 128.514C255.455 128.932 255.118 129.269 254.7 129.269C254.282 129.269 253.945 128.932 253.945 128.514C253.945 128.097 254.282 127.76 254.7 127.76C255.118 127.76 255.455 128.097 255.455 128.514Z" fill="#D2D9DC"/>
<path d="M294.528 138.623C294.52 139.59 293.736 140.367 292.768 140.36C291.801 140.353 291.024 139.568 291.031 138.601C291.039 137.633 291.823 136.856 292.79 136.864C293.758 136.864 294.535 137.655 294.528 138.623Z" fill="#839299"/>
<path d="M294.469 138.623C294.462 139.554 293.699 140.309 292.768 140.301C291.838 140.294 291.083 139.532 291.09 138.601C291.097 137.67 291.86 136.915 292.79 136.922C293.729 136.922 294.476 137.684 294.469 138.623Z" fill="#839299"/>
<path d="M291.391 137.897C291.654 137.391 292.182 137.047 292.791 137.047C292.886 137.047 292.981 137.054 293.069 137.076L291.391 137.897Z" fill="#839299"/>
<path d="M297.215 138.527L297.223 138.828C297.245 139.634 297.751 140.272 298.366 140.279L332.399 140.352C333.036 140.352 333.55 139.678 333.55 138.85C333.55 138.036 333.051 137.369 332.428 137.347L298.388 136.98C297.729 136.958 297.194 137.669 297.215 138.527Z" fill="#839299"/>
<path d="M330.938 169.693L257.881 170.991C256.598 171.013 255.631 172.164 255.836 173.432L256.159 175.447C256.32 176.473 257.214 177.228 258.248 177.221L330.659 176.935C331.737 176.928 332.638 176.122 332.748 175.052L333.071 172.024C333.21 170.764 332.206 169.671 330.938 169.693Z" fill="#002548"/>
<path d="M299.332 161.652H319.408V147.711C319.408 147.022 318.851 146.458 318.155 146.458H301.164C300.152 146.458 299.324 147.279 299.324 148.297V161.652H299.332Z" fill="#002548"/>
<path d="M300.832 161.374H319.406V146.187H302.672C301.66 146.187 300.832 147.008 300.832 148.026V161.374Z" fill="#0054A6"/>
<path d="M276.844 139.072H277.672V131.449H276.844V139.072Z" fill="#839299"/>
<path d="M276.207 131.981H278.457C278.457 131.688 278.223 131.454 277.93 131.454H276.735C276.449 131.454 276.207 131.688 276.207 131.981Z" fill="#839299"/>
<path d="M279.229 140.95H280.695V137.05H279.229V140.95Z" fill="#839299"/>
<path d="M268.468 140.95H269.934V137.05H268.468V140.95Z" fill="#839299"/>
<path d="M285.068 149.456H265.988V160.326H285.068V149.456Z" fill="#0054A6"/>
<path d="M267.562 149.536H282.068V138.981C282.068 138.805 281.929 138.666 281.753 138.666H267.562V149.536Z" fill="#0054A6"/>
<path d="M266.029 150.328H284.801C285.175 150.328 285.483 150.02 285.483 149.646V149.419C285.483 149.045 285.175 148.738 284.801 148.738H266.029C265.656 148.738 265.348 149.045 265.348 149.419V149.646C265.348 150.028 265.656 150.328 266.029 150.328Z" fill="#002548"/>
<path d="M270.848 140.286H269.199V143.511H270.848V140.286Z" fill="#002548"/>
<path d="M273.7 140.286H272.051V143.511H273.7V140.286Z" fill="#002548"/>
<path d="M277.071 140.286H275.422V143.511H277.071V140.286Z" fill="#002548"/>
<path d="M279.915 140.286H278.266V143.511H279.915V140.286Z" fill="#002548"/>
<path d="M271.821 152.124H270.172V155.349H271.821V152.124Z" fill="#002548"/>
<path d="M274.665 152.124H273.016V155.349H274.665V152.124Z" fill="#002548"/>
<path d="M278.036 152.124H276.387V155.349H278.036V152.124Z" fill="#002548"/>
<path d="M280.887 152.124H279.238V155.349H280.887V152.124Z" fill="#002548"/>
<path d="M322.53 164.98C318.894 166.725 315.544 168.608 314.518 171.203L271.639 171.438L270.063 165.281C269.696 163.844 268.523 162.635 266.896 161.982C261.641 159.893 257.551 158.325 257.8 155.092L285.763 154.836C285.954 154.836 286.13 154.96 286.188 155.144L286.591 156.382C287.083 157.878 288.739 158.933 290.66 158.97L315.368 159.431L316.314 157.753C316.387 157.614 316.534 157.533 316.695 157.533L326.51 157.57C326.715 157.57 326.84 157.79 326.737 157.966L322.53 164.98Z" fill="#F9FAFB"/>
<path d="M322.531 165.962C318.895 167.707 315.545 170.954 314.519 173.549L271.64 173.783L270.064 166.263C269.697 164.826 268.524 163.617 266.897 162.965C261.642 160.876 258.087 158.589 257.801 156.075L285.185 155.693C285.361 155.693 285.515 155.789 285.588 155.95L286.307 157.577C287.01 159.138 288.755 159.915 290.675 159.952L315.384 160.414L316.293 158.801C316.396 158.625 316.579 158.515 316.784 158.508L326.533 158.405L322.531 165.962Z" fill="#839299"/>
<path d="M314.314 165.083C313.544 165.083 312.914 164.453 312.914 163.683C312.914 162.913 313.544 162.283 314.314 162.283C315.084 162.283 315.714 162.913 315.714 163.683C315.714 164.453 315.084 165.083 314.314 165.083ZM314.314 162.605C313.72 162.605 313.237 163.089 313.237 163.683C313.237 164.277 313.72 164.76 314.314 164.76C314.908 164.76 315.392 164.277 315.392 163.683C315.384 163.089 314.9 162.605 314.314 162.605Z" fill="#0054A6"/>
<path d="M309.849 165.083C309.08 165.083 308.449 164.453 308.449 163.683C308.449 162.913 309.08 162.283 309.849 162.283C310.619 162.283 311.249 162.913 311.249 163.683C311.249 164.453 310.626 165.083 309.849 165.083ZM309.849 162.605C309.256 162.605 308.772 163.089 308.772 163.683C308.772 164.277 309.256 164.76 309.849 164.76C310.443 164.76 310.927 164.277 310.927 163.683C310.927 163.089 310.443 162.605 309.849 162.605Z" fill="#0054A6"/>
<path d="M305.845 164.973C305.076 164.973 304.445 164.342 304.445 163.573C304.445 162.803 305.076 162.173 305.845 162.173C306.615 162.173 307.245 162.803 307.245 163.573C307.253 164.35 306.622 164.973 305.845 164.973ZM305.845 162.503C305.252 162.503 304.768 162.986 304.768 163.58C304.768 164.174 305.252 164.658 305.845 164.658C306.439 164.658 306.923 164.174 306.923 163.58C306.923 162.986 306.439 162.503 305.845 162.503Z" fill="#0054A6"/>
<path d="M280.888 159.799C280.119 159.799 279.488 159.168 279.488 158.399C279.488 157.629 280.119 156.999 280.888 156.999C281.658 156.999 282.288 157.629 282.288 158.399C282.288 159.176 281.658 159.799 280.888 159.799ZM280.888 157.328C280.295 157.328 279.811 157.812 279.811 158.406C279.811 159 280.295 159.483 280.888 159.483C281.482 159.483 281.966 159 281.966 158.406C281.966 157.805 281.482 157.328 280.888 157.328Z" fill="#0054A6"/>
<path d="M276.388 159.798C275.619 159.798 274.988 159.168 274.988 158.398C274.988 157.629 275.619 156.998 276.388 156.998C277.158 156.998 277.788 157.629 277.788 158.398C277.788 159.175 277.165 159.798 276.388 159.798ZM276.388 157.328C275.795 157.328 275.311 157.812 275.311 158.406C275.311 158.999 275.795 159.483 276.388 159.483C276.982 159.483 277.466 158.999 277.466 158.406C277.466 157.805 276.982 157.328 276.388 157.328Z" fill="#0054A6"/>
<path d="M272.869 159.798C272.099 159.798 271.469 159.168 271.469 158.398C271.469 157.629 272.099 156.998 272.869 156.998C273.638 156.998 274.269 157.629 274.269 158.398C274.269 159.175 273.646 159.798 272.869 159.798ZM272.869 157.328C272.275 157.328 271.791 157.812 271.791 158.406C271.791 158.999 272.275 159.483 272.869 159.483C273.462 159.483 273.946 158.999 273.946 158.406C273.946 157.805 273.462 157.328 272.869 157.328Z" fill="#0054A6"/>
<path d="M315.801 161.843L291.708 161.418C291.62 161.418 291.547 161.345 291.547 161.249C291.547 161.161 291.62 161.088 291.715 161.088L315.809 161.513C315.897 161.513 315.97 161.586 315.97 161.682C315.963 161.777 315.889 161.843 315.801 161.843Z" fill="#002548"/>
<path d="M261.4 156.895C261.312 156.895 261.238 156.822 261.238 156.734C261.238 156.646 261.312 156.573 261.4 156.566L282.253 156.133C282.348 156.141 282.414 156.206 282.422 156.294C282.422 156.382 282.348 156.456 282.26 156.463L261.4 156.895Z" fill="#002548"/>
<path d="M230.197 189.821L85.4839 193.413C82.354 193.493 79.7812 190.679 79.7812 187.182V125.069C79.7812 121.632 82.2807 118.839 85.3593 118.839H230.072C233.158 118.839 235.65 121.632 235.65 125.069V183.591C235.65 186.977 233.224 189.741 230.197 189.821Z" fill="#002548"/>
<path fill-rule="evenodd" clip-rule="evenodd" d="M185.707 127.862H191.996C192.209 127.862 192.384 128.016 192.384 128.199L192.443 130.809C192.45 131.021 192.663 131.182 192.898 131.146L204.391 129.335C204.413 129.335 204.435 129.328 204.457 129.328H212.358C212.38 129.328 212.395 129.328 212.417 129.321L221.352 128.119C221.462 128.104 221.572 128.133 221.66 128.192L223.632 129.621C223.793 129.738 223.822 129.951 223.698 130.105L221.286 132.905C221.22 132.986 221.191 133.088 221.213 133.191L222.29 137.779C222.305 137.853 222.298 137.926 222.261 137.999L218.545 145.095C218.42 145.329 218.061 145.366 217.885 145.16L215.679 142.661C215.605 142.58 215.583 142.478 215.605 142.375L216.536 138.329C216.617 137.985 216.133 137.765 215.862 138.029L213.531 140.337C213.487 140.381 213.428 140.411 213.37 140.433L210.658 141.268C210.562 141.298 210.489 141.356 210.438 141.437L209.111 143.658C208.987 143.87 209.133 144.134 209.404 144.164L212.461 144.537C212.644 144.559 212.791 144.699 212.798 144.86L213.216 151.963C213.223 152.073 213.172 152.182 213.069 152.248L210.196 154.315C210.064 154.411 210.013 154.572 210.079 154.711L210.746 156.199C210.841 156.419 210.672 156.654 210.416 156.676L209.632 156.727C209.5 156.734 209.375 156.683 209.294 156.595L207.051 153.978C206.854 153.751 206.458 153.817 206.37 154.096L206.135 154.829C206.106 154.917 206.121 155.004 206.165 155.085L208.356 158.845C208.437 158.977 208.408 159.138 208.29 159.248L204.442 162.789C204.259 162.957 203.98 163.023 203.724 162.965L203.042 162.796C202.661 162.701 202.272 162.891 202.155 163.221C202.089 163.419 202.126 163.632 202.265 163.8L204.251 166.182C204.471 166.446 204.435 166.806 204.171 167.033L203.079 167.964C202.793 168.206 202.346 168.206 202.067 167.956L195.969 162.628C195.683 162.378 195.228 162.378 194.943 162.635L191.688 165.559C191.593 165.647 191.527 165.757 191.498 165.875L191.234 166.937C191.102 167.473 190.325 167.626 189.951 167.187L184.82 161.257C184.681 161.096 184.476 160.993 184.256 160.964L180.73 160.509C180.627 160.495 180.532 160.465 180.437 160.421L178.978 159.718C178.575 159.52 178.121 159.901 178.311 160.275L178.641 160.927C178.766 161.169 179.015 161.33 179.301 161.374L181.756 161.704C182.064 161.748 182.328 161.931 182.438 162.195L182.562 162.481C182.709 162.825 182.562 163.207 182.218 163.404L176.787 166.505C176.545 166.644 176.215 166.564 176.09 166.329L172.806 160.223C172.697 160.025 172.44 159.93 172.205 160.003C171.942 160.091 171.817 160.363 171.934 160.59L174.727 165.757C175.196 166.63 176.295 167.084 177.351 166.849L177.813 166.747C178.48 166.6 179.066 167.157 178.854 167.736L178.165 169.62C178.113 169.767 178.011 169.891 177.886 169.987L175.394 171.775C174.815 172.186 174.5 172.823 174.544 173.483L174.683 175.557C174.727 176.173 174.448 176.774 173.928 177.192L172.924 177.998C172.491 178.343 172.271 178.856 172.337 179.376L172.389 179.794C172.455 180.307 172.242 180.813 171.817 181.157L168.013 184.273C167.58 184.624 166.987 184.771 166.408 184.661L165.667 184.522C165.044 184.404 164.531 184.001 164.333 183.459L162.2 177.815C161.973 177.207 162.171 176.532 162.706 176.1C163.241 175.675 163.439 175.015 163.219 174.407L162.039 171.13C161.628 169.987 160.302 169.32 158.99 169.584L155.984 170.199C155.735 170.251 155.479 170.192 155.288 170.038L151.029 166.681C150.861 166.549 150.766 166.358 150.766 166.16V162.224C150.766 161.162 151.191 160.143 151.96 159.329L152.481 158.787C153.441 157.775 154.804 157.13 156.285 156.976L159.334 156.668L161.394 156.434C161.797 156.39 162.178 156.624 162.266 156.984L162.413 157.585C162.464 157.797 162.625 157.973 162.845 158.068L165.799 159.322L166.158 158.112L171.553 158.647L171.634 157.262C171.648 157.049 171.48 156.859 171.245 156.822L168.944 156.412L167.969 154.543L166.217 154.176L167.001 156.463L165.616 154.968L163.688 153.216C163.41 152.967 162.97 152.937 162.655 153.143C162.273 153.392 162.229 153.883 162.559 154.191L164.348 155.847H163.3C163.109 155.847 162.919 155.789 162.779 155.671L160.69 154.037C160.368 153.78 159.877 153.81 159.583 154.096L157.876 155.789C157.758 155.906 157.604 155.979 157.428 156.009L156.058 156.229C155.633 156.295 155.222 156.045 155.142 155.671L154.848 154.293C154.753 153.839 155.164 153.429 155.684 153.465L156.681 153.531C157.245 153.568 157.67 153.077 157.48 152.6L157.018 151.435C156.901 151.134 157.025 150.804 157.319 150.621L160.756 148.54L165.96 148.166L166.957 145.168L165.623 144.743L166.092 142.082L165.095 142.177L163.871 144.406L163.967 146.868L162.435 147.389L161.614 145.512L160.331 146.253L159.642 143.804C159.635 143.782 159.642 143.76 159.657 143.739L164.78 137.376L171.604 139.172L171.685 140.257L169.919 140.968L169.823 142.639L172.704 140.572L176.801 138.549L176.889 137.23L178.744 137.222C178.817 137.222 178.89 137.244 178.956 137.274L179.645 137.662C179.96 137.838 180.342 137.567 180.224 137.259L179.447 135.258C179.403 135.155 179.425 135.038 179.499 134.943L180.166 134.092C180.246 133.99 180.386 133.931 180.525 133.946L182.211 134.1C182.284 134.107 182.35 134.129 182.409 134.173L182.621 134.32C182.944 134.54 183.383 134.232 183.215 133.902C183.112 133.697 183.244 133.462 183.493 133.418L184.278 133.271C184.615 133.213 184.703 132.824 184.424 132.648L184.014 132.392C183.809 132.26 183.794 131.996 183.977 131.849L185.964 130.266C186 130.237 186.037 130.215 186.081 130.2L187.745 129.629C187.965 129.555 188.06 129.328 187.95 129.145L187.789 128.874C187.708 128.727 187.517 128.654 187.342 128.698L185.78 129.071C185.524 129.13 185.275 128.954 185.289 128.72L185.319 128.177C185.333 128.009 185.502 127.862 185.707 127.862Z" fill="#54CC5A"/>
<path fill-rule="evenodd" clip-rule="evenodd" d="M213.716 175.074L210.102 176.261C209.941 176.312 209.809 176.415 209.721 176.547L208.666 178.218C208.57 178.365 208.409 178.475 208.226 178.526L204.979 179.318C204.627 179.406 204.407 179.706 204.451 180.021L205.067 184.207C205.081 184.324 205.067 184.449 205.008 184.559L204.532 185.504C204.341 185.878 204.59 186.318 205.045 186.398L205.638 186.508C205.785 186.538 205.939 186.523 206.078 186.464L211.312 184.419C211.634 184.295 212.015 184.39 212.206 184.654L213.423 186.303C213.459 186.354 213.503 186.391 213.547 186.435L215.446 187.93C215.6 188.055 215.812 188.114 216.017 188.084L219.067 187.74C219.418 187.696 219.69 187.439 219.697 187.117L219.741 185.805C219.748 185.68 219.792 185.555 219.873 185.453L221.742 183.078C221.83 182.968 221.874 182.843 221.874 182.704V180.879C221.874 180.703 221.793 180.534 221.654 180.417L219.125 178.226C219.037 178.152 218.971 178.057 218.935 177.947L218.466 176.554C218.26 175.939 217.285 175.939 217.08 176.554L216.912 177.038C216.765 177.471 216.179 177.639 215.783 177.368L215.211 176.979C214.933 176.796 214.845 176.459 214.999 176.181L215.006 176.166C215.167 175.873 215.057 175.514 214.742 175.338L214.354 175.118C214.163 175.022 213.928 175 213.716 175.074Z" fill="#54CC5A"/>
<path fill-rule="evenodd" clip-rule="evenodd" d="M212.792 170.991L212.711 171.225C212.623 171.482 212.726 171.753 212.953 171.914L215.042 173.38C215.13 173.446 215.24 173.49 215.35 173.505L219.293 174.194C219.33 174.201 219.374 174.209 219.41 174.223L219.924 174.399C220.569 174.619 221.155 173.989 220.803 173.461L220.598 173.153C220.517 173.036 220.393 172.941 220.246 172.889L213.759 170.573C213.363 170.434 212.916 170.624 212.792 170.991Z" fill="#54CC5A"/>
<path fill-rule="evenodd" clip-rule="evenodd" d="M206.399 168.433C205.886 168.946 205.197 169.635 204.801 170.023C204.618 170.206 204.567 170.463 204.669 170.698L205.542 172.625C205.674 172.926 206.04 173.087 206.392 173.014L207.719 172.713C207.968 172.655 208.166 172.493 208.239 172.273L208.759 170.72C208.818 170.544 208.789 170.36 208.686 170.206C208.437 169.833 207.946 169.1 207.565 168.535C207.308 168.154 206.722 168.103 206.399 168.433Z" fill="#54CC5A"/>
<path fill-rule="evenodd" clip-rule="evenodd" d="M199.694 168.718L202.713 172.097C202.721 172.105 202.735 172.119 202.743 172.127L204.597 173.959C204.722 174.084 204.898 174.157 205.081 174.172L208.636 174.399L208.614 174.458C208.526 174.714 208.262 174.897 207.962 174.905L202.992 175.125C202.735 175.139 202.494 175.029 202.354 174.839L198.425 169.554C198.228 169.29 198.279 168.938 198.535 168.726L198.631 168.645C198.939 168.396 199.43 168.425 199.694 168.718Z" fill="#54CC5A"/>
<path fill-rule="evenodd" clip-rule="evenodd" d="M127.523 165.823L126.629 166.996C126.504 167.157 126.284 167.238 126.064 167.194L124.378 166.857C124.129 166.805 123.953 166.615 123.953 166.388V165.317C123.953 165.061 123.726 164.848 123.44 164.841L122.465 164.804C122.069 164.79 121.828 164.409 122.011 164.101L123.059 162.356L121.417 161.88C121.417 161.88 120.186 163.668 119.936 163.676C119.687 163.683 118.06 161.425 118.06 161.425L120.098 159.116L123.242 159.036L124.745 160.971L125.683 157.841L129.179 155.474L136.091 151.105C136.143 151.076 136.179 151.032 136.209 150.98L137.491 148.495C137.55 148.386 137.528 148.254 137.44 148.166L135.388 146.018C135.344 145.967 135.314 145.908 135.307 145.842L135.183 144.677C135.153 144.369 134.691 144.288 134.53 144.559C134.413 144.757 134.105 144.779 133.951 144.603L132.566 143.049C132.265 142.712 131.694 142.705 131.386 143.035L129.634 144.919C129.583 144.97 129.546 145.028 129.517 145.094L128.754 146.758C128.505 147.301 127.647 147.323 127.362 146.795L127.318 146.714C127.244 146.575 127.12 146.458 126.958 146.392C126.203 146.069 123.931 145.08 123.917 144.669C123.902 144.244 125.427 141.899 125.844 141.261C125.91 141.158 126.013 141.07 126.13 141.012L129.069 139.538C129.084 139.531 129.091 139.524 129.106 139.524L131.884 138.307C132.155 138.19 132.324 137.933 132.309 137.662L132.265 137.002C132.236 136.585 131.796 136.284 131.334 136.379L130 136.65C129.868 136.68 129.751 136.731 129.648 136.812L129.055 137.303C128.688 137.603 128.102 137.515 127.867 137.127L127.032 135.742C126.819 135.382 126.299 135.272 125.925 135.507L124.789 136.218C124.598 136.335 124.356 136.372 124.136 136.313L120.288 135.294C120.208 135.272 120.134 135.243 120.068 135.199L116.77 133.161C116.587 133.052 116.359 133.015 116.14 133.066L113.552 133.675C113.31 133.733 113.046 133.675 112.856 133.528L108.377 130.024C108.187 129.878 107.923 129.819 107.674 129.878C106.838 130.083 104.888 130.545 104.075 130.64C103.254 130.743 102.374 131.71 102.022 132.135C101.927 132.253 101.92 132.399 101.993 132.524L102.374 133.154C102.506 133.374 102.359 133.645 102.081 133.689L100.688 133.894C100.402 133.938 100.248 134.224 100.402 134.444L100.732 134.928C100.784 135.001 100.806 135.097 100.784 135.184L100.534 136.394C100.49 136.599 100.263 136.731 100.036 136.687L98.7019 136.409C98.4307 136.35 98.1815 136.541 98.1961 136.79L98.3207 138.659C98.3281 138.732 98.3574 138.805 98.4087 138.864L99.5228 140.132C99.6768 140.308 99.6255 140.557 99.4129 140.667C98.3281 141.261 95.3741 142.866 95.66 142.683C96.0192 142.456 99.2663 142.727 99.2956 142.228C99.3249 141.73 101.48 141.246 101.626 141.078C101.736 140.946 102.55 139.89 102.946 139.377C103.07 139.216 103.312 139.172 103.496 139.267L106.787 140.997C106.999 141.107 107.131 141.305 107.161 141.517L107.534 145.094C107.542 145.197 107.578 145.292 107.637 145.38L109.044 147.491L110.672 150.167C110.774 150.335 110.789 150.533 110.723 150.709L109.843 152.959C109.184 154.66 109.337 156.522 110.276 158.112C111.038 159.41 111.822 160.744 111.866 160.868C111.881 160.905 111.925 160.978 111.998 161.074C112.665 161.99 113.611 162.708 114.71 163.185L119.812 165.405C119.834 165.413 119.856 165.427 119.878 165.442L123.638 167.7C123.675 167.722 123.704 167.744 123.733 167.773L124.364 168.396C124.488 168.521 124.672 168.572 124.855 168.55C125.28 168.484 125.61 168.865 125.441 169.217L124.459 171.225C124.422 171.306 124.408 171.401 124.422 171.489L125.067 175.411C125.082 175.521 125.141 175.616 125.229 175.689L127.911 177.939C127.992 178.005 128.043 178.093 128.065 178.189L129.011 182.125C129.018 182.147 129.018 182.169 129.018 182.198L129.795 193.046C129.802 193.186 129.883 193.317 130.015 193.405L132.507 195.018C132.61 195.084 132.734 195.113 132.866 195.106L133.724 195.047C134.186 195.018 134.391 194.512 134.061 194.226L133.225 193.501C133.13 193.42 133.072 193.303 133.064 193.186L132.991 192.159C132.991 192.152 132.991 192.137 132.991 192.13V190.239C132.991 190.21 132.991 190.18 132.998 190.151L133.299 188.7C133.299 188.692 133.299 188.685 133.306 188.67L133.453 187.659C133.475 187.49 133.599 187.344 133.775 187.278L135.894 186.457C136.165 186.354 136.297 186.068 136.172 185.819L135.894 185.262C135.762 184.991 135.93 184.676 136.253 184.602L137.088 184.412C137.22 184.382 137.337 184.309 137.411 184.199L139.126 181.751C139.243 181.59 139.236 181.377 139.111 181.223L139.075 181.179C138.847 180.901 139.023 180.505 139.405 180.432L140.365 180.256C140.555 180.219 140.717 180.094 140.768 179.926L142.161 175.894C142.183 175.828 142.219 175.77 142.263 175.726L144.257 173.659C144.462 173.446 144.418 173.116 144.154 172.955L141.398 171.24C141.303 171.181 141.186 171.152 141.061 171.152L139.089 171.24C138.957 171.247 138.833 171.211 138.73 171.137L137.543 170.309C137.418 170.221 137.337 170.089 137.337 169.943L137.294 168.645C137.286 168.44 137.132 168.257 136.912 168.198L134.501 167.553C134.435 167.538 134.376 167.509 134.318 167.472L132.815 166.41C132.661 166.3 132.456 166.278 132.273 166.344L131.056 166.791C130.909 166.842 130.741 166.835 130.601 166.776L128.241 165.684C127.97 165.559 127.669 165.625 127.523 165.823Z" fill="#54CC5A"/>
<path fill-rule="evenodd" clip-rule="evenodd" d="M129.627 134.547L129.935 133.191C129.994 132.92 130.243 132.707 130.551 132.656L132.765 132.319C132.941 132.289 133.116 132.319 133.27 132.399L136.004 133.77C136.188 133.865 136.239 134.078 136.114 134.232L135.03 135.515C134.942 135.624 134.934 135.771 135.022 135.881L136.583 137.897C136.627 137.955 136.649 138.036 136.642 138.109L136.356 140.448C136.349 140.492 136.334 140.535 136.305 140.579L135.447 141.826C135.367 141.943 135.213 141.994 135.066 141.965L132.706 141.466C132.669 141.459 132.633 141.444 132.596 141.437L132.383 141.364C131.775 141.144 131.746 140.389 132.332 140.125L132.772 139.934C133.065 139.802 133.234 139.524 133.19 139.238C133.102 138.644 132.933 137.692 132.779 137.428C132.647 137.193 132.559 136.636 132.508 136.226C132.471 135.925 132.222 135.683 131.885 135.632L130.229 135.361C129.818 135.28 129.547 134.921 129.627 134.547Z" fill="#54CC5A"/>
<path fill-rule="evenodd" clip-rule="evenodd" d="M120.107 130.266L119.095 131.014C118.78 131.248 118.729 131.659 118.978 131.952L119.953 133.081C119.968 133.103 119.99 133.125 120.004 133.147L121.28 135.016C121.368 135.148 121.499 135.243 121.661 135.295L122.856 135.705C123.119 135.793 123.413 135.749 123.625 135.588L124.453 134.957C124.527 134.899 124.593 134.833 124.637 134.752L125.597 133.081C125.656 132.986 125.678 132.876 125.678 132.773C125.678 132.172 124.857 131.871 124.373 132.297L124.321 132.341C124.014 132.612 123.515 132.604 123.222 132.326L121.148 130.34C120.876 130.068 120.415 130.039 120.107 130.266Z" fill="#54CC5A"/>
<path fill-rule="evenodd" clip-rule="evenodd" d="M140.913 127.063L137.248 129.717C137.138 129.797 137.094 129.937 137.138 130.061L137.842 131.908C137.878 132.004 137.966 132.077 138.076 132.106L140.136 132.649C140.304 132.693 140.429 132.824 140.451 132.978L141.001 137.098C141.008 137.164 141.001 137.222 140.971 137.281L139.733 140.14C139.696 140.22 139.696 140.301 139.718 140.382L140.759 143.841C140.796 143.951 140.883 144.046 141.001 144.098L141.851 144.442C142.056 144.53 142.305 144.457 142.415 144.274L144.101 141.532C144.145 141.466 144.204 141.408 144.285 141.371L147.077 140.081C147.114 140.066 147.143 140.044 147.172 140.022L151.263 136.643C151.329 136.592 151.373 136.519 151.394 136.445L152.831 130.721C152.846 130.662 152.875 130.604 152.919 130.56L155.177 128.089C155.272 127.979 155.301 127.84 155.25 127.708L154.986 127.078C154.898 126.873 154.634 126.77 154.407 126.851L153.146 127.327C153.066 127.356 152.985 127.364 152.897 127.349L152.12 127.232C151.651 127.158 151.629 126.572 152.091 126.469C152.428 126.396 152.538 126.008 152.274 125.802L151.996 125.583C151.974 125.561 151.952 125.539 151.93 125.517L150.925 124.241C150.845 124.139 150.713 124.073 150.566 124.073H147.744C147.627 124.073 147.517 124.117 147.436 124.19L145.853 125.612C145.751 125.7 145.707 125.832 145.736 125.956L145.897 126.711C145.963 127.012 145.626 127.261 145.303 127.144L144.409 126.829C144.307 126.792 144.226 126.726 144.175 126.638L143.911 126.169C143.801 125.978 143.537 125.898 143.324 125.993L141.008 127.034C140.964 127.034 140.935 127.049 140.913 127.063Z" fill="#54CC5A"/>
<path fill-rule="evenodd" clip-rule="evenodd" d="M134.207 124.534L138.642 123.479C138.7 123.464 138.759 123.464 138.81 123.479L142.768 124.322C143.135 124.402 143.23 124.82 142.922 125.018L142.336 125.392C142.329 125.399 142.321 125.399 142.314 125.407L136.927 129.284L134.515 131.043C134.339 131.168 134.119 131.219 133.899 131.19L131.51 130.809C131.268 130.772 131.019 130.838 130.843 130.992L130.103 131.637C129.736 131.959 129.128 131.864 128.893 131.461L128.563 130.889C128.549 130.867 128.541 130.838 128.527 130.816L128.27 130.208C128.123 129.856 128.329 129.467 128.724 129.335L130.176 128.866C130.359 128.808 130.564 128.815 130.74 128.881L131.84 129.306C132.03 129.379 132.25 129.379 132.441 129.306L132.463 129.299C132.932 129.123 133.078 128.588 132.749 128.236L132.463 127.935C132.265 127.723 132.228 127.43 132.367 127.188L133.694 124.893C133.826 124.71 134.002 124.586 134.207 124.534Z" fill="#54CC5A"/>
<path fill-rule="evenodd" clip-rule="evenodd" d="M123.413 127.386L125.026 126.997C125.466 126.895 125.913 127.151 125.979 127.554L126.221 129.049C126.272 129.35 126.081 129.651 125.766 129.768L124.395 130.288C123.97 130.449 123.479 130.237 123.362 129.841L122.878 128.214C122.768 127.855 123.01 127.481 123.413 127.386Z" fill="#54CC5A"/>
<path d="M115.378 142.727C117.714 142.727 119.607 140.833 119.607 138.498C119.607 136.162 117.714 134.268 115.378 134.268C113.042 134.268 111.148 136.162 111.148 138.498C111.148 140.833 113.042 142.727 115.378 142.727Z" fill="#F9FAFB"/>
<path d="M202.785 149.832C203.679 147.674 202.654 145.2 200.496 144.306C198.338 143.412 195.864 144.437 194.97 146.595C194.076 148.753 195.101 151.227 197.259 152.121C199.417 153.015 201.891 151.99 202.785 149.832Z" fill="#F9FAFB"/>
<path d="M222.912 176.4L161.224 176.107C160.484 176.1 159.876 176.921 159.883 177.932L160.022 202.341C160.029 203.359 160.645 204.173 161.393 204.136L222.736 202.824C223.447 202.795 224.019 202.003 224.026 201.036L224.239 178.24C224.246 177.229 223.653 176.408 222.912 176.4Z" fill="#F9FAFB"/>
<path d="M166.728 189.015H163.723V200.486H166.728V189.015Z" fill="#ED1C24"/>
<path d="M171.74 192.958H168.734V200.486H171.74V192.958Z" fill="#ED1C24"/>
<path d="M176.763 183.209H173.758V200.486H176.763V183.209Z" fill="#ED1C24"/>
<path d="M181.775 196.337H178.77V200.486H181.775V196.337Z" fill="#ED1C24"/>
<path d="M186.79 185.519H183.785V200.486H186.79V185.519Z" fill="#ED1C24"/>
<path d="M191.81 188.113H188.805V200.486H191.81V188.113Z" fill="#ED1C24"/>
<path d="M196.826 190.928H193.82V200.486H196.826V190.928Z" fill="#ED1C24"/>
<path d="M201.845 179.721H198.84V200.486H201.845V179.721Z" fill="#ED1C24"/>
<path d="M206.861 181.912H203.855V200.478H206.861V181.912Z" fill="#ED1C24"/>
<path d="M211.872 185.24H208.867V200.486H211.872V185.24Z" fill="#ED1C24"/>
<path d="M216.892 196.718H213.887V200.486H216.892V196.718Z" fill="#ED1C24"/>
<path d="M221.908 189.403H218.902V200.479H221.908V189.403Z" fill="#ED1C24"/>
<path d="M140.325 113.231H82.5583C81.019 113.231 79.7656 111.985 79.7656 110.439V93.822C79.7656 92.2827 81.0117 91.0293 82.5583 91.0293H140.325C141.864 91.0293 143.117 92.2754 143.117 93.822V110.439C143.117 111.985 141.864 113.231 140.325 113.231Z" fill="#002548"/>
<path d="M207.09 113.231H149.324C147.785 113.231 146.531 111.985 146.531 110.439V93.822C146.531 92.2827 147.777 91.0293 149.324 91.0293H207.09C208.63 91.0293 209.883 92.2754 209.883 93.822V110.439C209.883 111.985 208.637 113.231 207.09 113.231Z" fill="#002548"/>
<path d="M273.86 113.231H216.093C214.554 113.231 213.301 111.985 213.301 110.439V93.822C213.301 92.2827 214.547 91.0293 216.093 91.0293H273.86C275.399 91.0293 276.653 92.2754 276.653 93.822V110.439C276.653 111.985 275.407 113.231 273.86 113.231Z" fill="#002548"/>
<path d="M340.626 113.231H282.859C281.32 113.231 280.066 111.985 280.066 110.439V93.822C280.066 92.2827 281.312 91.0293 282.859 91.0293H340.626C342.165 91.0293 343.418 92.2754 343.418 93.822V110.439C343.418 111.985 342.172 113.231 340.626 113.231Z" fill="#002548"/>
<path d="M134.674 104.194H88.298C83.5923 104.194 79.7734 100.375 79.7734 95.6691C79.7734 90.9634 83.5923 87.1445 88.298 87.1445H134.674C139.38 87.1445 143.199 90.9634 143.199 95.6691C143.199 100.382 139.38 104.194 134.674 104.194Z" fill="#ED1C24"/>
<path d="M97.7064 95.5228H88.7567C88.5221 95.5228 88.3242 95.3322 88.3242 95.0903C88.3242 94.8484 88.5148 94.6578 88.7567 94.6578H97.7064C97.941 94.6578 98.1389 94.8484 98.1389 95.0903C98.1389 95.3322 97.9483 95.5228 97.7064 95.5228Z" fill="#F9FAFB"/>
<path d="M91.5614 101.299C91.3268 101.299 91.1289 100.983 91.1289 100.588V92.9426C91.1289 92.5541 91.3195 92.2316 91.5614 92.2316C91.7959 92.2316 91.9938 92.5468 91.9938 92.9426V100.588C91.9865 100.983 91.7959 101.299 91.5614 101.299Z" fill="#F9FAFB"/>
<path d="M94.8309 101.299C94.5964 101.299 94.3984 100.983 94.3984 100.588V92.9426C94.3984 92.5541 94.589 92.2316 94.8309 92.2316C95.0655 92.2316 95.2634 92.5468 95.2634 92.9426V100.588C95.2634 100.983 95.0655 101.299 94.8309 101.299Z" fill="#F9FAFB"/>
<path d="M97.4318 98.5352H88.8046C88.5407 98.5352 88.3281 98.3446 88.3281 98.1027C88.3281 97.8609 88.5407 97.6703 88.8046 97.6703H97.4318C97.6957 97.6703 97.9082 97.8609 97.9082 98.1027C97.9082 98.3446 97.6957 98.5352 97.4318 98.5352Z" fill="#F9FAFB"/>
<path d="M97.9104 101.475H88.4769C88.2204 101.475 88.0078 101.262 88.0078 101.005V92.4882C88.0078 92.2316 88.2204 92.019 88.4769 92.019H97.9104C98.167 92.019 98.3795 92.2316 98.3795 92.4882V101.005C98.3795 101.269 98.167 101.475 97.9104 101.475ZM88.946 100.536H97.4413V92.9573H88.946V100.536Z" fill="#F9FAFB"/>
<path d="M88.4764 101.475H84.445C84.3131 101.475 84.1885 101.416 84.1005 101.321C84.0126 101.225 83.9686 101.094 83.9832 100.962L85.0754 89.593C85.0974 89.3511 85.3026 89.1678 85.5445 89.1678H87.4942C87.7361 89.1678 87.9414 89.3511 87.9634 89.593L88.9602 100.962C88.9749 101.094 88.9309 101.218 88.8356 101.321C88.733 101.423 88.6084 101.475 88.4764 101.475ZM84.9581 100.536H87.9707L87.0618 90.1061H85.9696L84.9581 100.536Z" fill="#F9FAFB"/>
<path d="M122.918 92.8694H103.443C102.996 92.8694 102.637 92.5102 102.637 92.0631C102.637 91.616 102.996 91.2568 103.443 91.2568H122.918C123.366 91.2568 123.725 91.616 123.725 92.0631C123.725 92.5102 123.366 92.8694 122.918 92.8694Z" fill="#F9FAFB"/>
<path d="M122.918 96.2925H103.443C102.996 96.2925 102.637 95.9333 102.637 95.4862C102.637 95.0391 102.996 94.6799 103.443 94.6799H122.918C123.366 94.6799 123.725 95.0391 123.725 95.4862C123.725 95.9333 123.366 96.2925 122.918 96.2925Z" fill="#F9FAFB"/>
<path d="M110.421 99.7228H103.443C102.996 99.7228 102.637 99.3636 102.637 98.9165C102.637 98.4694 102.996 98.1102 103.443 98.1102H110.421C110.868 98.1102 111.227 98.4694 111.227 98.9165C111.227 99.3636 110.868 99.7228 110.421 99.7228Z" fill="#F9FAFB"/>
<path d="M131.548 101.174L140.043 96.0138C140.27 95.8745 140.27 95.4494 140.043 95.3101L131.511 90.2159C131.313 90.0986 131.093 90.2892 131.101 90.5677L131.108 92.2316C131.108 92.4441 130.976 92.6201 130.815 92.6201L126.336 92.6567C126.175 92.6567 126.043 92.8326 126.043 93.0452L126.065 98.4253C126.065 98.6379 126.197 98.8138 126.358 98.8138L130.837 98.7771C130.998 98.7771 131.13 98.9457 131.13 99.1656L131.137 100.829C131.137 101.108 131.357 101.299 131.548 101.174Z" fill="#F9FAFB"/>
<path d="M268.131 104.194H221.755C217.049 104.194 213.23 100.375 213.23 95.6691C213.23 90.9634 217.049 87.1445 221.755 87.1445H268.131C272.837 87.1445 276.656 90.9634 276.656 95.6691C276.656 100.382 272.837 104.194 268.131 104.194Z" fill="#ED1C24"/>
<path d="M227.25 99.0268H221.086C220.917 99.0268 220.771 98.9095 220.734 98.7483C220.719 98.697 220.705 98.653 220.683 98.609C220.683 98.6017 220.675 98.6017 220.675 98.5943C220.653 98.5357 220.624 98.4844 220.587 98.4331C220.375 98.1252 220.03 97.942 219.664 97.942C219.297 97.942 218.946 98.1252 218.733 98.4331C218.696 98.4844 218.667 98.5357 218.645 98.5943C218.645 98.6017 218.638 98.6017 218.638 98.609C218.616 98.653 218.601 98.697 218.586 98.7483C218.55 98.9095 218.403 99.0268 218.235 99.0268H217.927C217.604 99.0268 217.348 98.7703 217.348 98.4478V92.9797C217.348 92.6572 217.604 92.4006 217.927 92.4006H227.243C227.565 92.4006 227.822 92.6572 227.822 92.9797V98.4478C227.829 98.7629 227.565 99.0268 227.25 99.0268ZM221.335 98.3012H227.104V93.119H218.073V98.1252C218.095 98.0886 218.117 98.0593 218.139 98.0226C218.484 97.5169 219.056 97.2163 219.664 97.2163C220.272 97.2163 220.844 97.5169 221.188 98.0226C221.247 98.1033 221.298 98.1912 221.335 98.2865C221.335 98.2938 221.335 98.3012 221.335 98.3012Z" fill="#F9FAFB"/>
<path d="M231.794 99.0267H231.53C231.361 99.0267 231.215 98.9094 231.178 98.7482C231.164 98.6969 231.149 98.6529 231.127 98.6089C231.127 98.6016 231.12 98.6016 231.12 98.5942C231.098 98.5356 231.068 98.4843 231.032 98.433C230.819 98.1251 230.475 97.9419 230.101 97.9419C229.734 97.9419 229.382 98.1251 229.17 98.433C229.133 98.4843 229.104 98.5356 229.082 98.5942C229.082 98.6016 229.075 98.6016 229.075 98.6089C229.053 98.6529 229.038 98.6969 229.023 98.7482C228.987 98.9094 228.84 99.0267 228.671 99.0267H228.591C228.268 99.0267 228.012 98.7702 228.012 98.4477V94.167C228.012 93.8445 228.268 93.588 228.591 93.588H229.522C229.756 93.5806 230.834 93.5806 231.647 94.4529C232.446 95.3105 232.395 96.366 232.366 96.6299V98.4477C232.373 98.7628 232.109 99.0267 231.794 99.0267ZM230.101 97.2162C230.709 97.2162 231.281 97.5168 231.625 98.0225C231.633 98.0299 231.64 98.0445 231.647 98.0518V96.6005C231.647 96.5859 231.647 96.5712 231.647 96.5566C231.669 96.4026 231.728 95.589 231.12 94.9367C230.511 94.2843 229.705 94.2916 229.551 94.299C229.544 94.299 229.536 94.299 229.536 94.299H228.737V97.81C229.089 97.4361 229.58 97.2162 230.101 97.2162Z" fill="#F9FAFB"/>
<path d="M219.662 100.47C219.127 100.47 218.688 100.03 218.688 99.4954C218.688 99.2608 218.768 99.0409 218.922 98.865C219.105 98.6451 219.369 98.5205 219.662 98.5205C219.948 98.5205 220.219 98.6451 220.395 98.865C220.549 99.0409 220.63 99.2682 220.63 99.4954C220.637 100.03 220.197 100.47 219.662 100.47ZM219.662 99.2388C219.589 99.2388 219.523 99.2681 219.479 99.3195C219.479 99.3268 219.472 99.3268 219.472 99.3341C219.442 99.3634 219.413 99.4221 219.413 99.4954C219.413 99.6346 219.53 99.7519 219.67 99.7519C219.809 99.7519 219.919 99.6346 219.919 99.4954C219.919 99.4221 219.882 99.3708 219.86 99.3341C219.86 99.3268 219.853 99.3268 219.853 99.3195C219.794 99.2681 219.736 99.2388 219.662 99.2388Z" fill="#F9FAFB"/>
<path d="M230.1 100.471C229.565 100.471 229.125 100.031 229.125 99.4957C229.125 99.2612 229.206 99.0413 229.36 98.8654C229.543 98.6455 229.807 98.5209 230.1 98.5209C230.393 98.5209 230.657 98.6455 230.84 98.8654C230.994 99.0413 231.075 99.2685 231.075 99.4957C231.075 100.031 230.642 100.471 230.1 100.471ZM230.1 99.2392C230.027 99.2392 229.961 99.2685 229.917 99.3198C229.917 99.3272 229.909 99.3272 229.909 99.3345C229.88 99.3638 229.851 99.4224 229.851 99.4957C229.851 99.635 229.968 99.7523 230.107 99.7523C230.246 99.7523 230.364 99.635 230.364 99.4957C230.364 99.4224 230.327 99.3711 230.305 99.3345C230.305 99.3272 230.298 99.3272 230.298 99.3198C230.239 99.2685 230.173 99.2392 230.1 99.2392Z" fill="#F9FAFB"/>
<path d="M256.196 92.8692H236.72C236.273 92.8692 235.914 92.51 235.914 92.0629C235.914 91.6158 236.273 91.2566 236.72 91.2566H256.196C256.643 91.2566 257.002 91.6158 257.002 92.0629C257.002 92.51 256.643 92.8692 256.196 92.8692Z" fill="#F9FAFB"/>
<path d="M256.196 96.2921H236.72C236.273 96.2921 235.914 95.933 235.914 95.4859C235.914 95.0387 236.273 94.6796 236.72 94.6796H256.196C256.643 94.6796 257.002 95.0387 257.002 95.4859C257.002 95.933 256.643 96.2921 256.196 96.2921Z" fill="#F9FAFB"/>
<path d="M243.698 99.7225H236.72C236.273 99.7225 235.914 99.3634 235.914 98.9163C235.914 98.4691 236.273 98.11 236.72 98.11H243.698C244.145 98.11 244.505 98.4691 244.505 98.9163C244.505 99.3634 244.145 99.7225 243.698 99.7225Z" fill="#F9FAFB"/>
<path d="M264.825 101.174L273.32 96.0138C273.548 95.8745 273.548 95.4494 273.32 95.3101L264.788 90.2159C264.59 90.0986 264.371 90.2892 264.378 90.5677L264.385 92.2316C264.385 92.4441 264.253 92.6201 264.092 92.6201L259.614 92.6567C259.452 92.6567 259.32 92.8326 259.32 93.0452L259.342 98.4253C259.342 98.6379 259.474 98.8138 259.635 98.8138L264.114 98.7771C264.275 98.7771 264.407 98.9457 264.407 99.1656L264.415 100.829C264.407 101.108 264.627 101.299 264.825 101.174Z" fill="#F9FAFB"/>
<path d="M335.104 104.194H288.728C284.022 104.194 280.203 100.375 280.203 95.6693C280.203 90.9635 284.022 87.1447 288.728 87.1447H335.104C339.809 87.1447 343.628 90.9635 343.628 95.6693C343.628 100.382 339.809 104.194 335.104 104.194Z" fill="#ED1C24"/>
<path d="M290.199 100.8C290.111 100.8 290.023 100.8 289.936 100.793C286.945 100.661 284.607 98.2787 284.731 95.4787C284.79 94.1153 285.413 92.8692 286.49 91.953C287.553 91.0441 288.939 90.5823 290.383 90.6483C293.373 90.7802 295.711 93.1624 295.587 95.9624C295.528 97.3258 294.905 98.5719 293.828 99.4881C292.831 100.338 291.548 100.8 290.199 100.8ZM290.119 91.3593C288.939 91.3593 287.825 91.7624 286.952 92.5027C286.036 93.287 285.501 94.3572 285.45 95.5153C285.347 97.9195 287.37 99.9645 289.972 100.082C291.233 100.133 292.442 99.73 293.366 98.9457C294.282 98.1614 294.817 97.0912 294.869 95.9331C294.971 93.5289 292.948 91.4839 290.346 91.3666C290.273 91.3593 290.192 91.3593 290.119 91.3593Z" fill="#F9FAFB"/>
<path d="M291.454 95.742C291.454 96.5776 291.395 97.4059 291.248 98.2269C291.212 98.4321 291.168 98.6373 291.117 98.8352C291.065 99.0405 291.007 99.2384 290.933 99.4363C290.86 99.6342 290.772 99.8248 290.662 100.001C290.603 100.089 290.537 100.169 290.457 100.243C290.413 100.279 290.369 100.309 290.325 100.331C290.274 100.353 290.222 100.367 290.171 100.367C290.12 100.367 290.061 100.36 290.01 100.338C289.958 100.316 289.914 100.287 289.87 100.257C289.79 100.191 289.724 100.111 289.658 100.023C289.541 99.8468 289.453 99.6562 289.379 99.4583C289.306 99.2604 289.247 99.0625 289.196 98.8646C289.145 98.6593 289.101 98.4614 289.064 98.2562C288.991 97.8457 288.94 97.4352 288.903 97.0174C288.866 96.5996 288.852 96.1892 288.852 95.7714C288.852 95.5661 288.859 95.3536 288.866 95.1483C288.874 94.9431 288.888 94.7305 288.903 94.5253C288.932 94.1075 288.976 93.697 289.049 93.2865C289.086 93.0813 289.123 92.8761 289.174 92.6708C289.225 92.4656 289.277 92.2677 289.35 92.0698C289.387 91.9745 289.423 91.8719 289.467 91.7766C289.511 91.6813 289.563 91.586 289.614 91.4981C289.673 91.4101 289.738 91.3295 289.819 91.2635C289.863 91.2269 289.907 91.2049 289.951 91.1829C290.002 91.1609 290.054 91.1536 290.105 91.1536C290.156 91.1536 290.208 91.1682 290.259 91.1902C290.31 91.2122 290.354 91.2415 290.391 91.2708C290.471 91.3368 290.537 91.4174 290.603 91.5054C290.721 91.674 290.809 91.8646 290.889 92.0625C290.97 92.253 291.029 92.4583 291.087 92.6562C291.146 92.8541 291.19 93.0593 291.226 93.2646C291.388 94.0782 291.454 94.9138 291.454 95.742ZM291.395 95.742C291.395 95.3242 291.38 94.9138 291.344 94.496C291.307 94.0855 291.256 93.6677 291.182 93.2646C291.146 93.0593 291.102 92.8614 291.051 92.6562C290.999 92.4583 290.933 92.2604 290.86 92.0625C290.787 91.8719 290.699 91.6813 290.581 91.5127C290.523 91.4248 290.457 91.3441 290.376 91.2782C290.34 91.2489 290.296 91.2195 290.252 91.1975C290.208 91.1756 290.156 91.1609 290.105 91.1609C290.054 91.1609 290.002 91.1682 289.958 91.1902C289.914 91.2122 289.87 91.2342 289.826 91.2708C289.746 91.3368 289.687 91.4174 289.629 91.5054C289.57 91.5934 289.526 91.6813 289.482 91.7766C289.438 91.8719 289.401 91.9672 289.372 92.0625C289.306 92.2604 289.255 92.4583 289.203 92.6635C289.159 92.8687 289.123 93.0667 289.086 93.2719C289.02 93.6824 288.984 94.0928 288.954 94.5106C288.925 94.9211 288.918 95.3389 288.918 95.7567C288.918 96.1745 288.932 96.585 288.962 97.0028C288.991 97.4132 289.042 97.8311 289.108 98.2342C289.145 98.4394 289.189 98.6447 289.233 98.8426C289.284 99.0405 289.343 99.2457 289.409 99.4363C289.482 99.6269 289.563 99.8174 289.68 99.9934C289.738 100.081 289.804 100.162 289.878 100.221C289.914 100.25 289.958 100.279 290.002 100.301C290.046 100.323 290.098 100.331 290.149 100.331C290.2 100.331 290.244 100.316 290.296 100.294C290.34 100.272 290.384 100.243 290.42 100.213C290.493 100.147 290.559 100.067 290.618 99.9787C290.728 99.8028 290.809 99.6122 290.882 99.4216C290.955 99.2237 291.007 99.0258 291.058 98.8279C291.109 98.63 291.146 98.4248 291.182 98.2195C291.256 97.8091 291.3 97.3986 291.329 96.9881C291.38 96.5703 291.395 96.1598 291.395 95.742Z" fill="#F9FAFB"/>
<path d="M290.156 100.484C290.09 100.484 290.024 100.47 289.966 100.448C289.907 100.426 289.856 100.389 289.797 100.345C289.717 100.279 289.643 100.199 289.563 100.081C289.453 99.92 289.365 99.7368 289.269 99.4949C289.203 99.3117 289.138 99.1138 289.079 98.8865C289.028 98.6886 288.984 98.4907 288.947 98.2708C288.874 97.875 288.822 97.4719 288.786 97.0174C288.749 96.607 288.734 96.1892 288.734 95.7567C288.734 95.5368 288.742 95.3169 288.749 95.1263C288.756 94.9138 288.771 94.7012 288.786 94.496C288.822 94.0415 288.866 93.6384 288.932 93.2426C288.969 93.0227 289.013 92.8174 289.057 92.6195C289.108 92.3923 289.167 92.1944 289.233 92.0038C289.269 91.8939 289.313 91.7912 289.35 91.7033C289.401 91.5933 289.453 91.4981 289.504 91.4101C289.577 91.2928 289.651 91.2122 289.731 91.1462C289.783 91.1022 289.841 91.0656 289.9 91.0436C289.966 91.0143 290.039 91.007 290.105 91.007C290.171 91.007 290.237 91.0216 290.303 91.0509C290.354 91.0729 290.413 91.1096 290.464 91.1536C290.545 91.2195 290.618 91.3001 290.699 91.4101C290.809 91.564 290.904 91.7546 290.999 91.9892C291.073 92.1724 291.139 92.3703 291.197 92.5975C291.249 92.7954 291.3 92.9933 291.344 93.2132C291.498 93.9902 291.571 94.8111 291.571 95.72C291.571 96.6363 291.505 97.4572 291.366 98.2268C291.329 98.4467 291.285 98.652 291.234 98.8499C291.175 99.0771 291.117 99.275 291.051 99.4583C290.963 99.7002 290.867 99.8907 290.765 100.045C290.691 100.155 290.618 100.243 290.538 100.309C290.486 100.353 290.428 100.389 290.376 100.411C290.31 100.44 290.237 100.455 290.171 100.462C290.164 100.484 290.164 100.484 290.156 100.484ZM290.098 91.2928C290.068 91.2928 290.039 91.3002 290.01 91.3148C289.98 91.3295 289.944 91.3515 289.914 91.3735C289.856 91.4248 289.797 91.4907 289.739 91.5787C289.695 91.652 289.651 91.7399 289.607 91.8352C289.57 91.9159 289.533 92.0111 289.497 92.1138C289.438 92.2897 289.387 92.4803 289.335 92.7002C289.291 92.8907 289.255 93.0886 289.225 93.3012C289.167 93.6823 289.123 94.0855 289.094 94.5253C289.072 94.8991 289.057 95.3096 289.057 95.764C289.057 96.1818 289.072 96.5996 289.101 96.9954C289.13 97.4352 289.181 97.831 289.247 98.2195C289.284 98.4321 289.328 98.63 289.372 98.8206C289.423 99.0405 289.482 99.231 289.548 99.3996C289.629 99.6195 289.709 99.7881 289.805 99.9274C289.863 100.015 289.922 100.081 289.98 100.133C290.017 100.162 290.046 100.177 290.076 100.191C290.112 100.206 290.142 100.213 290.171 100.213C290.2 100.213 290.237 100.206 290.266 100.191C290.296 100.177 290.332 100.155 290.362 100.125C290.42 100.074 290.479 100.008 290.538 99.92C290.625 99.7808 290.706 99.6122 290.787 99.385C290.853 99.209 290.904 99.0185 290.963 98.8059C291.007 98.6153 291.051 98.4248 291.087 98.2049C291.153 97.8237 291.205 97.4279 291.234 96.9808C291.263 96.585 291.278 96.1672 291.278 95.7494C291.278 95.3316 291.263 94.9138 291.227 94.5179C291.19 94.0782 291.139 93.6823 291.065 93.2939C291.029 93.0813 290.985 92.8834 290.933 92.6928C290.875 92.4803 290.816 92.2897 290.75 92.1138C290.662 91.8939 290.581 91.7253 290.486 91.586C290.428 91.4981 290.369 91.4321 290.31 91.3808C290.274 91.3515 290.244 91.3295 290.208 91.3148C290.164 91.3002 290.134 91.2928 290.098 91.2928Z" fill="#F9FAFB"/>
<path d="M293.552 95.7423C293.552 96.2774 293.478 96.8125 293.339 97.3329C293.193 97.846 292.973 98.3444 292.68 98.7915C292.533 99.0114 292.364 99.224 292.174 99.4146C291.983 99.6051 291.778 99.7737 291.551 99.9203C291.324 100.06 291.082 100.177 290.825 100.25C290.569 100.331 290.305 100.367 290.033 100.367C289.77 100.367 289.498 100.331 289.242 100.25C288.985 100.17 288.743 100.06 288.516 99.9203C288.289 99.7811 288.084 99.6051 287.893 99.4146C287.703 99.224 287.534 99.0187 287.387 98.7915C287.087 98.3444 286.867 97.8533 286.72 97.3329C286.647 97.0763 286.596 96.8125 286.559 96.5486C286.522 96.2847 286.508 96.0135 286.508 95.7496C286.508 95.4784 286.53 95.2146 286.559 94.9507C286.596 94.6868 286.647 94.4229 286.72 94.1664C286.867 93.6533 287.087 93.1549 287.387 92.7078C287.534 92.4879 287.703 92.2753 287.893 92.0847C288.084 91.8941 288.289 91.7255 288.516 91.5863C288.743 91.447 288.985 91.3297 289.242 91.2564C289.498 91.1758 289.762 91.1392 290.033 91.1392C290.297 91.1392 290.569 91.1831 290.825 91.2564C291.082 91.3371 291.324 91.447 291.551 91.5863C291.778 91.7255 291.983 91.9015 292.174 92.092C292.364 92.2826 292.533 92.4879 292.68 92.7151C292.98 93.1622 293.2 93.6533 293.339 94.1737C293.478 94.6721 293.544 95.2072 293.552 95.7423ZM293.479 95.7423C293.479 95.2146 293.413 94.6795 293.273 94.1737C293.134 93.6606 292.921 93.1695 292.636 92.7297C292.489 92.5098 292.328 92.2973 292.144 92.1067C291.961 91.9161 291.756 91.7475 291.536 91.6009C291.316 91.4617 291.074 91.3444 290.818 91.2711C290.569 91.1905 290.305 91.1538 290.033 91.1538C289.77 91.1538 289.506 91.1978 289.249 91.2711C289 91.3517 288.758 91.4617 288.531 91.6009C288.311 91.7402 288.106 91.9161 287.922 92.1067C287.739 92.2973 287.571 92.5025 287.431 92.7297C287.138 93.1695 286.933 93.668 286.794 94.1737C286.728 94.4303 286.676 94.6868 286.64 94.9507C286.603 95.2146 286.588 95.4784 286.588 95.7423C286.588 96.0062 286.603 96.2701 286.64 96.5339C286.676 96.7978 286.728 97.0543 286.794 97.3109C286.933 97.824 287.146 98.3151 287.431 98.7549C287.578 98.9748 287.739 99.1873 287.922 99.3779C288.106 99.5685 288.311 99.7371 288.531 99.8837C288.751 100.023 288.993 100.14 289.249 100.214C289.498 100.294 289.762 100.331 290.026 100.331C290.29 100.331 290.554 100.287 290.803 100.214C291.052 100.133 291.294 100.023 291.521 99.8837C291.741 99.7444 291.947 99.5685 292.13 99.3779C292.313 99.1873 292.482 98.9821 292.621 98.7622C292.914 98.3224 293.119 97.824 293.266 97.3182C293.413 96.8051 293.479 96.2774 293.479 95.7423Z" fill="#F9FAFB"/>
<path d="M290.025 100.485C289.747 100.485 289.468 100.441 289.197 100.36C288.933 100.279 288.684 100.162 288.442 100.016C288.215 99.869 287.995 99.7004 287.797 99.4952C287.606 99.3046 287.43 99.092 287.277 98.8575C286.983 98.4177 286.749 97.9119 286.595 97.3622C286.522 97.0983 286.47 96.8271 286.434 96.5559C286.397 96.292 286.382 96.0135 286.375 95.735C286.375 95.4564 286.397 95.1852 286.434 94.914C286.47 94.6428 286.529 94.3716 286.595 94.1077C286.749 93.558 286.976 93.0596 287.277 92.6125C287.43 92.3779 287.606 92.1653 287.797 91.9748C287.995 91.7769 288.215 91.6009 288.442 91.4543C288.684 91.3077 288.933 91.1905 289.197 91.1098C289.468 91.0292 289.739 90.9852 290.018 90.9852C290.296 90.9852 290.575 91.0292 290.839 91.1098C291.103 91.1905 291.352 91.3077 291.594 91.4543C291.821 91.6009 292.041 91.7695 292.239 91.9748C292.429 92.1653 292.605 92.3779 292.759 92.6125C293.052 93.0522 293.287 93.558 293.441 94.1004C293.58 94.6135 293.661 95.1632 293.661 95.7203C293.661 96.2847 293.588 96.8271 293.441 97.3402C293.287 97.8899 293.06 98.3884 292.759 98.8355C292.605 99.07 292.429 99.2826 292.239 99.4732C292.041 99.6711 291.821 99.847 291.594 99.9936C291.352 100.148 291.095 100.265 290.839 100.338C290.582 100.448 290.304 100.485 290.025 100.485ZM290.025 91.2711C289.776 91.2711 289.527 91.3077 289.278 91.3884C289.043 91.4617 288.808 91.5716 288.589 91.7109C288.383 91.8428 288.185 92.0041 288.002 92.1947C287.826 92.3706 287.665 92.5758 287.526 92.7957C287.255 93.2135 287.042 93.6899 286.903 94.2104C286.837 94.4522 286.785 94.7088 286.749 94.9727C286.719 95.2292 286.698 95.4858 286.698 95.7496C286.698 96.0135 286.712 96.27 286.749 96.5266C286.785 96.7905 286.837 97.047 286.903 97.2889C287.042 97.8093 287.255 98.2858 287.526 98.7036C287.672 98.9235 287.834 99.1287 288.002 99.3046C288.185 99.4952 288.383 99.6564 288.589 99.7884C288.808 99.9276 289.036 100.038 289.278 100.104C289.519 100.177 289.769 100.214 290.025 100.221C290.274 100.221 290.524 100.184 290.766 100.104C291 100.03 291.235 99.9276 291.455 99.7884C291.66 99.6564 291.858 99.4952 292.041 99.3046C292.217 99.1287 292.378 98.9235 292.517 98.7036C292.789 98.2858 293.001 97.8166 293.14 97.2889C293.272 96.7978 293.338 96.2847 293.346 95.7496C293.346 95.2146 293.28 94.7015 293.148 94.2104C293.009 93.6899 292.796 93.2135 292.525 92.7957C292.378 92.5758 292.217 92.3706 292.048 92.1947C291.865 92.0041 291.667 91.8428 291.462 91.7109C291.242 91.5716 291.007 91.4617 290.773 91.3884C290.531 91.3077 290.274 91.2711 290.025 91.2711Z" fill="#F9FAFB"/>
<path d="M285.92 93.9174L286.975 93.91L288.031 93.9027L290.149 93.8954L292.267 93.9027L293.323 93.91L294.378 93.9174L293.323 93.9247L292.267 93.932L290.149 93.9394L288.031 93.932L286.975 93.9247L285.92 93.9174C285.912 93.9247 285.912 93.9247 285.92 93.9174C285.912 93.9174 285.912 93.9174 285.92 93.9174Z" fill="#F9FAFB"/>
<path d="M290.15 94.0638L286.976 94.0565L285.87 94.0418L285.789 93.9685V93.9172L285.796 93.7999L285.914 93.7926L288.032 93.778H290.15L293.324 93.7853L294.497 93.7999L294.504 94.0418H294.38L292.261 94.0565L290.15 94.0638Z" fill="#F9FAFB"/>
<path d="M287.144 92.1362C287.393 92.1289 287.642 92.1289 287.892 92.1289L288.639 92.1216C288.888 92.1216 289.138 92.1216 289.387 92.1216H290.134L291.637 92.1289L292.385 92.1362C292.634 92.1362 292.883 92.1436 293.132 92.1436V92.1509C292.883 92.1582 292.634 92.1582 292.385 92.1582L291.637 92.1656L290.134 92.1729H289.387C289.138 92.1729 288.888 92.1729 288.639 92.1729L287.892 92.1656C287.642 92.1656 287.393 92.1582 287.144 92.1582C287.144 92.1436 287.137 92.1436 287.144 92.1362Z" fill="#F9FAFB"/>
<path d="M290.149 92.2827H289.204C289.021 92.2827 288.83 92.2827 288.647 92.2827L287.643 92.2754C287.474 92.2754 287.305 92.2754 287.144 92.268H287.027L287.02 92.0261L287.144 92.0188C287.305 92.0188 287.467 92.0115 287.628 92.0115L288.647 92.0042C288.823 92.0042 288.999 92.0042 289.175 92.0042H290.149L292.678 92.0188C292.839 92.0188 293.001 92.0188 293.155 92.0261H293.279L293.272 92.268H293.155C292.986 92.268 292.825 92.2754 292.656 92.2754L291.652 92.2827H290.149Z" fill="#F9FAFB"/>
<path d="M285.547 95.6911L286.698 95.6837L287.848 95.6764H290.15H292.444L293.595 95.6837L294.746 95.6911V95.6984L293.595 95.713H292.444L290.15 95.7204L287.848 95.713H286.698L285.547 95.7057V95.6984V95.6911Z" fill="#F9FAFB"/>
<path d="M290.15 95.8376L286.697 95.8303L285.429 95.823L285.422 95.5737H285.546L287.848 95.5591L290.15 95.5518L293.595 95.5664L294.797 95.5737L294.87 95.647L294.863 95.8156L294.745 95.823L292.444 95.8376H290.15Z" fill="#F9FAFB"/>
<path d="M285.92 97.4724L286.975 97.4651L288.031 97.4578L290.149 97.4504L292.267 97.4578L293.323 97.4651L294.378 97.4724V97.4798L293.323 97.4871L292.267 97.4944L290.149 97.5018L288.031 97.4944L286.975 97.4871L285.92 97.4798C285.912 97.4798 285.912 97.4798 285.92 97.4724C285.912 97.4724 285.912 97.4724 285.92 97.4724Z" fill="#F9FAFB"/>
<path d="M290.15 97.6187L286.976 97.6114L285.87 97.6041L285.789 97.5308V97.4722L285.796 97.3549L285.914 97.3475L288.032 97.3329H290.15L293.324 97.3402L294.497 97.3549L294.504 97.5968H294.38L292.261 97.6114L290.15 97.6187Z" fill="#F9FAFB"/>
<path d="M293.303 99.2681H287.3C287.292 99.2681 287.285 99.2608 287.285 99.2534C287.285 99.2461 287.292 99.2388 287.3 99.2388H293.303C293.31 99.2388 293.318 99.2461 293.318 99.2534C293.318 99.2608 293.31 99.2681 293.303 99.2681Z" fill="#F9FAFB"/>
<path d="M293.303 99.3927H287.299C287.226 99.3927 287.16 99.334 287.16 99.2534C287.16 99.1728 287.219 99.1141 287.299 99.1141H293.303C293.376 99.1141 293.442 99.1728 293.442 99.2534C293.442 99.334 293.376 99.3927 293.303 99.3927Z" fill="#F9FAFB"/>
<path d="M335.402 92.8692H302.982C302.535 92.8692 302.176 92.51 302.176 92.0629C302.176 91.6158 302.535 91.2566 302.982 91.2566H335.402C335.849 91.2566 336.208 91.6158 336.208 92.0629C336.208 92.51 335.849 92.8692 335.402 92.8692Z" fill="#F9FAFB"/>
<path d="M335.402 96.2921H302.982C302.535 96.2921 302.176 95.933 302.176 95.4859C302.176 95.0387 302.535 94.6796 302.982 94.6796H335.402C335.849 94.6796 336.208 95.0387 336.208 95.4859C336.208 95.933 335.849 96.2921 335.402 96.2921Z" fill="#F9FAFB"/>
<path d="M322.905 99.7227H302.99C302.543 99.7227 302.184 99.3635 302.184 98.9164C302.184 98.4693 302.543 98.1101 302.99 98.1101H322.905C323.352 98.1101 323.711 98.4693 323.711 98.9164C323.711 99.3635 323.352 99.7227 322.905 99.7227Z" fill="#F9FAFB"/>
<path d="M201.404 104.194H155.021C150.315 104.194 146.496 100.375 146.496 95.6693C146.496 90.9635 150.315 87.1447 155.021 87.1447H201.397C206.102 87.1447 209.921 90.9635 209.921 95.6693C209.921 100.382 206.11 104.194 201.404 104.194Z" fill="#ED1C24"/>
<path d="M156.614 92.4512H160.448C160.734 92.4512 160.968 92.2167 160.968 91.9308V89.534C160.968 89.2481 160.734 89.0135 160.448 89.0135H156.614C156.328 89.0135 156.094 89.2481 156.094 89.534V91.9308C156.094 92.2167 156.328 92.4512 156.614 92.4512ZM156.878 91.6669V89.7905H160.191V91.6669H156.878Z" fill="#F9FAFB"/>
<path d="M166.62 94.2397C166.466 93.9685 166.18 93.7999 165.872 93.7999H165.865H163.768V93.2721C163.768 92.9863 163.534 92.7517 163.248 92.7517H159.414C159.128 92.7517 158.894 92.9863 158.894 93.2721V95.4931H158.579V93.2721C158.579 92.9863 158.344 92.7517 158.058 92.7517H154.225C153.939 92.7517 153.704 92.9863 153.704 93.2721V95.5297L149.16 95.5664C148.859 95.5664 148.581 95.735 148.441 96.0062C148.302 96.2774 148.317 96.5999 148.493 96.8564L150.347 99.5611C150.692 100.067 151.271 100.367 151.879 100.367H162.529C163.072 100.367 163.563 100.096 163.856 99.6271L166.605 95.1193C166.766 94.848 166.773 94.5109 166.62 94.2397ZM159.671 95.4784V93.5213H162.984V93.7925H161.95C161.474 93.7925 161.027 94.0271 160.756 94.4229L160.03 95.4711L159.671 95.4784ZM154.481 93.5287H157.794V95.5004L154.555 95.5224H154.481V93.5287ZM165.931 94.7014L163.182 99.202C163.035 99.4292 162.793 99.5685 162.522 99.5685H151.872C151.52 99.5685 151.183 99.3925 150.985 99.0993L149.131 96.402C149.123 96.3946 149.116 96.38 149.131 96.358C149.138 96.336 149.152 96.336 149.16 96.336L154.562 96.292L158.659 96.2627L159.282 96.2554L160.243 96.248C160.367 96.248 160.492 96.1821 160.565 96.0795L161.408 94.8627C161.533 94.6795 161.738 94.5695 161.958 94.5695H165.872C165.901 94.5695 165.923 94.5842 165.938 94.6062C165.952 94.6501 165.952 94.6721 165.931 94.7014Z" fill="#F9FAFB"/>
<path d="M188.778 92.8694H169.302C168.855 92.8694 168.496 92.5102 168.496 92.0631C168.496 91.616 168.855 91.2568 169.302 91.2568H188.778C189.225 91.2568 189.584 91.616 189.584 92.0631C189.591 92.5102 189.225 92.8694 188.778 92.8694Z" fill="#F9FAFB"/>
<path d="M188.778 96.2925H169.302C168.855 96.2925 168.496 95.9333 168.496 95.4862C168.496 95.0391 168.855 94.6799 169.302 94.6799H188.778C189.225 94.6799 189.584 95.0391 189.584 95.4862C189.591 95.9333 189.225 96.2925 188.778 96.2925Z" fill="#F9FAFB"/>
<path d="M176.28 99.7228H169.302C168.855 99.7228 168.496 99.3636 168.496 98.9165C168.496 98.4694 168.855 98.1102 169.302 98.1102H176.28C176.728 98.1102 177.087 98.4694 177.087 98.9165C177.087 99.3636 176.728 99.7228 176.28 99.7228Z" fill="#F9FAFB"/>
<path d="M197.403 101.174L205.898 96.0138C206.126 95.8745 206.126 95.4494 205.898 95.3101L197.366 90.2159C197.169 90.0986 196.949 90.2892 196.956 90.5677L196.963 92.2316C196.963 92.4441 196.831 92.6201 196.67 92.6201L192.192 92.6567C192.03 92.6567 191.898 92.8326 191.898 93.0452L191.92 98.4253C191.92 98.6379 192.052 98.8138 192.214 98.8138L196.692 98.7771C196.853 98.7771 196.985 98.9457 196.985 99.1656L196.993 100.829C196.993 101.108 197.213 101.299 197.403 101.174Z" fill="#F9FAFB"/>
<path d="M235.06 227.416H229.32V258.025H235.06V227.416Z" fill="#0054A6"/>
<path d="M244.653 237.934H238.914V258.025H244.653V237.934Z" fill="#0054A6"/>
<path d="M254.247 211.935H248.508V258.025H254.247V211.935Z" fill="#0054A6"/>
<path d="M263.853 246.957H258.113V258.033H263.853V246.957Z" fill="#0054A6"/>
<path d="M273.446 218.1H267.707V258.025H273.446V218.1Z" fill="#0054A6"/>
<path d="M283.04 225.011H277.301V258.025H283.04V225.011Z" fill="#0054A6"/>
<path d="M292.638 232.525H286.898V258.025H292.638V232.525Z" fill="#0054A6"/>
<path d="M302.231 202.619H296.492V258.025H302.231V202.619Z" fill="#0054A6"/>
<path d="M311.825 208.483H306.086V258.025H311.825V208.483Z" fill="#0054A6"/>
<path d="M321.419 217.352H315.68V258.033H321.419V217.352Z" fill="#0054A6"/>
<path d="M331.013 247.983H325.273V258.025H331.013V247.983Z" fill="#0054A6"/>
<path d="M340.61 228.471H334.871V258.025H340.61V228.471Z" fill="#0054A6"/>
<path d="M127.183 146.377L126.706 147.169V147.176C126.633 147.301 126.464 147.345 126.34 147.264C126.215 147.191 126.171 147.022 126.252 146.897L126.735 146.098C126.809 145.974 126.97 145.937 127.095 146.011C127.219 146.084 127.263 146.245 127.183 146.377Z" fill="#0054A6"/>
<path d="M125.66 149.045L125.235 149.866V149.873C125.169 150.005 125.001 150.057 124.869 149.991C124.737 149.925 124.685 149.756 124.751 149.624L125.184 148.803C125.25 148.671 125.418 148.62 125.55 148.693C125.675 148.745 125.726 148.906 125.66 149.045Z" fill="#0054A6"/>
<path d="M124.288 151.794L123.914 152.637V152.644C123.848 152.784 123.687 152.849 123.548 152.784C123.409 152.718 123.343 152.556 123.409 152.417L123.79 151.567C123.856 151.428 124.017 151.369 124.156 151.428C124.295 151.493 124.354 151.655 124.288 151.794Z" fill="#0054A6"/>
<path d="M123.093 154.623L122.763 155.488V155.496C122.704 155.642 122.543 155.715 122.396 155.657C122.25 155.598 122.176 155.437 122.235 155.29L122.572 154.418C122.631 154.271 122.792 154.198 122.939 154.257C123.078 154.315 123.151 154.477 123.093 154.623Z" fill="#0054A6"/>
<path d="M122.059 157.519L121.78 158.398V158.406C121.729 158.559 121.568 158.64 121.421 158.596C121.267 158.545 121.187 158.384 121.231 158.237L121.517 157.35C121.568 157.196 121.729 157.115 121.876 157.167C122.022 157.203 122.11 157.365 122.059 157.519Z" fill="#0054A6"/>
<path d="M121.192 160.465L120.965 161.359V161.366C120.929 161.528 120.767 161.623 120.606 161.579C120.445 161.542 120.35 161.381 120.394 161.22L120.628 160.318C120.672 160.164 120.826 160.069 120.987 160.106C121.141 160.15 121.229 160.304 121.192 160.465Z" fill="#0054A6"/>
<path d="M120.5 163.463L120.324 164.365V164.372C120.295 164.533 120.133 164.643 119.972 164.607C119.811 164.577 119.701 164.416 119.738 164.255L119.921 163.338C119.95 163.177 120.111 163.075 120.273 163.104C120.427 163.133 120.529 163.294 120.5 163.463Z" fill="#0054A6"/>
<path d="M119.962 166.49L119.838 167.407V167.414C119.816 167.582 119.662 167.7 119.493 167.678C119.324 167.656 119.207 167.502 119.229 167.333L119.361 166.41C119.383 166.241 119.537 166.124 119.706 166.153C119.874 166.16 119.984 166.314 119.962 166.49Z" fill="#0054A6"/>
<path d="M119.604 169.539L119.53 170.456V170.463C119.516 170.631 119.362 170.763 119.193 170.749C119.025 170.734 118.893 170.58 118.907 170.412L118.988 169.481C119.003 169.312 119.157 169.18 119.325 169.195C119.486 169.217 119.618 169.363 119.604 169.539Z" fill="#0054A6"/>
<path d="M119.406 172.603L119.384 173.527V173.534C119.377 173.71 119.23 173.849 119.054 173.842C118.878 173.835 118.739 173.688 118.746 173.512L118.776 172.581C118.783 172.405 118.93 172.266 119.098 172.273C119.274 172.281 119.413 172.427 119.406 172.603Z" fill="#0054A6"/>
<path d="M119.384 175.682L119.406 176.605V176.613C119.413 176.789 119.266 176.943 119.09 176.943C118.914 176.95 118.761 176.803 118.761 176.627L118.739 175.697C118.731 175.521 118.878 175.374 119.054 175.367C119.23 175.352 119.376 175.499 119.384 175.682Z" fill="#0054A6"/>
<path d="M119.524 178.746L119.597 179.662V179.669C119.612 179.852 119.48 180.014 119.297 180.028C119.114 180.043 118.952 179.911 118.938 179.728L118.864 178.797C118.85 178.614 118.982 178.46 119.165 178.445C119.355 178.43 119.509 178.562 119.524 178.746Z" fill="#0054A6"/>
<path d="M119.837 181.802L119.962 182.718V182.726C119.984 182.909 119.859 183.078 119.676 183.107C119.493 183.129 119.324 183.004 119.295 182.821L119.17 181.898C119.148 181.714 119.273 181.546 119.456 181.524C119.647 181.487 119.808 181.612 119.837 181.802Z" fill="#0054A6"/>
<path d="M120.321 184.837L120.497 185.738V185.746C120.534 185.929 120.417 186.112 120.226 186.149C120.043 186.185 119.86 186.068 119.823 185.878L119.647 184.961C119.61 184.778 119.735 184.602 119.918 184.565C120.109 184.529 120.285 184.646 120.321 184.837Z" fill="#0054A6"/>
<path d="M120.973 187.835L121.2 188.729V188.736C121.252 188.92 121.134 189.11 120.951 189.161C120.768 189.213 120.577 189.095 120.526 188.912L120.299 188.011C120.255 187.827 120.365 187.637 120.548 187.593C120.739 187.534 120.929 187.644 120.973 187.835Z" fill="#0054A6"/>
<path d="M121.804 190.789L122.083 191.668V191.676C122.141 191.859 122.039 192.064 121.855 192.123C121.672 192.181 121.467 192.079 121.408 191.896L121.13 191.009C121.071 190.825 121.174 190.627 121.357 190.569C121.548 190.496 121.745 190.598 121.804 190.789Z" fill="#0054A6"/>
<path d="M122.805 193.691L123.134 194.549V194.556C123.208 194.74 123.112 194.952 122.929 195.018C122.746 195.091 122.533 194.996 122.467 194.813L122.13 193.941C122.057 193.757 122.152 193.552 122.336 193.479C122.526 193.406 122.731 193.501 122.805 193.691Z" fill="#0054A6"/>
<path d="M123.972 196.521L124.353 197.356V197.364C124.433 197.547 124.36 197.767 124.177 197.847C123.994 197.928 123.774 197.855 123.693 197.671L123.305 196.821C123.224 196.638 123.305 196.425 123.488 196.337C123.671 196.257 123.891 196.337 123.972 196.521Z" fill="#0054A6"/>
<path d="M125.316 199.284L125.748 200.097V200.105C125.844 200.288 125.778 200.508 125.594 200.61C125.411 200.706 125.191 200.64 125.089 200.457L124.649 199.628C124.554 199.445 124.62 199.225 124.803 199.13C124.993 199.027 125.221 199.101 125.316 199.284Z" fill="#0054A6"/>
<path d="M126.822 201.952L127.306 202.736V202.744C127.416 202.92 127.357 203.154 127.181 203.264C127.005 203.374 126.771 203.315 126.661 203.139L126.177 202.341C126.067 202.165 126.125 201.93 126.301 201.827C126.477 201.717 126.712 201.776 126.822 201.952Z" fill="#0054A6"/>
<path d="M128.48 204.532L129.008 205.287L129.015 205.294C129.132 205.463 129.096 205.705 128.92 205.822C128.751 205.939 128.509 205.903 128.392 205.727L127.857 204.965C127.74 204.796 127.776 204.554 127.952 204.437C128.121 204.312 128.363 204.356 128.48 204.532Z" fill="#0054A6"/>
<path d="M130.289 207.01L130.861 207.735L130.868 207.743C131 207.911 130.971 208.153 130.802 208.278C130.634 208.41 130.392 208.38 130.267 208.212L129.688 207.479C129.556 207.31 129.585 207.076 129.754 206.944C129.915 206.812 130.157 206.841 130.289 207.01Z" fill="#0054A6"/>
<path d="M132.241 209.377L132.849 210.066L132.856 210.073C132.996 210.235 132.981 210.477 132.82 210.616C132.658 210.755 132.417 210.74 132.277 210.579L131.662 209.875C131.522 209.714 131.537 209.472 131.698 209.333C131.852 209.201 132.094 209.216 132.241 209.377Z" fill="#0054A6"/>
<path d="M134.314 211.635L134.959 212.287L134.966 212.294C135.12 212.448 135.12 212.698 134.966 212.844C134.812 212.998 134.563 212.998 134.417 212.844L133.764 212.177C133.61 212.023 133.618 211.781 133.772 211.627C133.911 211.481 134.16 211.481 134.314 211.635Z" fill="#0054A6"/>
<path d="M136.514 213.775L137.196 214.391L137.203 214.398C137.364 214.545 137.379 214.794 137.232 214.955C137.086 215.116 136.836 215.131 136.675 214.984L135.986 214.354C135.825 214.207 135.81 213.958 135.957 213.797C136.103 213.636 136.353 213.621 136.514 213.775Z" fill="#0054A6"/>
<path d="M138.829 215.783L139.547 216.362L139.555 216.37C139.723 216.509 139.753 216.758 139.613 216.927C139.474 217.095 139.225 217.125 139.056 216.985L138.331 216.399C138.162 216.26 138.133 216.011 138.272 215.842C138.411 215.673 138.661 215.644 138.829 215.783Z" fill="#0054A6"/>
<path d="M141.255 217.667L142.003 218.202L142.01 218.21C142.186 218.341 142.23 218.591 142.098 218.767C141.966 218.943 141.717 218.986 141.541 218.855L140.786 218.305C140.61 218.173 140.566 217.924 140.698 217.748C140.822 217.572 141.072 217.535 141.255 217.667Z" fill="#0054A6"/>
<path d="M143.776 219.412L144.553 219.91H144.56C144.751 220.027 144.802 220.277 144.685 220.467C144.568 220.658 144.318 220.709 144.128 220.592L143.344 220.086C143.16 219.969 143.102 219.72 143.226 219.529C143.336 219.346 143.585 219.287 143.776 219.412Z" fill="#0054A6"/>
<path d="M146.395 221.017L147.194 221.471H147.201C147.399 221.581 147.465 221.831 147.355 222.028C147.245 222.226 146.996 222.292 146.798 222.182L145.984 221.721C145.786 221.611 145.72 221.361 145.83 221.171C145.948 220.973 146.197 220.9 146.395 221.017Z" fill="#0054A6"/>
<path d="M149.09 222.476L149.919 222.886H149.926C150.131 222.989 150.212 223.231 150.109 223.436C150.007 223.641 149.765 223.722 149.559 223.619L148.724 223.201C148.519 223.099 148.438 222.857 148.541 222.652C148.643 222.454 148.885 222.373 149.09 222.476Z" fill="#0054A6"/>
<path d="M151.871 223.773L152.714 224.132H152.722C152.934 224.22 153.03 224.462 152.942 224.674C152.854 224.887 152.612 224.982 152.399 224.894L151.542 224.528C151.329 224.44 151.234 224.198 151.322 223.985C151.417 223.78 151.659 223.685 151.871 223.773Z" fill="#0054A6"/>
<path d="M154.713 224.916L155.577 225.224H155.585C155.805 225.305 155.915 225.539 155.834 225.759C155.753 225.979 155.519 226.089 155.299 226.009L154.419 225.693C154.207 225.613 154.089 225.378 154.17 225.158C154.258 224.953 154.493 224.843 154.713 224.916Z" fill="#0054A6"/>
<path d="M157.624 225.899L158.504 226.162H158.511C158.731 226.228 158.863 226.463 158.797 226.683C158.731 226.903 158.496 227.035 158.276 226.969L157.382 226.705C157.162 226.639 157.038 226.404 157.104 226.184C157.162 225.957 157.397 225.833 157.624 225.899Z" fill="#0054A6"/>
<path d="M160.578 226.705L161.473 226.91H161.48C161.707 226.961 161.846 227.189 161.795 227.416C161.744 227.643 161.517 227.782 161.289 227.731L160.38 227.519C160.153 227.467 160.014 227.24 160.065 227.013C160.117 226.793 160.344 226.654 160.578 226.705Z" fill="#0054A6"/>
<path d="M163.577 227.335L164.486 227.489H164.493C164.728 227.526 164.881 227.746 164.845 227.98C164.808 228.215 164.588 228.369 164.354 228.332L163.43 228.171C163.196 228.134 163.042 227.914 163.086 227.68C163.115 227.453 163.335 227.291 163.577 227.335Z" fill="#0054A6"/>
<path d="M166.603 227.782L167.519 227.885H167.526C167.761 227.907 167.93 228.12 167.908 228.361C167.886 228.596 167.673 228.765 167.431 228.743L166.5 228.64C166.266 228.611 166.097 228.405 166.119 228.164C166.156 227.922 166.361 227.753 166.603 227.782Z" fill="#0054A6"/>
<path d="M169.657 228.054L170.574 228.098H170.581C170.823 228.112 171.006 228.31 170.991 228.552C170.977 228.794 170.779 228.977 170.537 228.962L169.606 228.911C169.364 228.896 169.188 228.699 169.196 228.457C169.21 228.222 169.415 228.039 169.657 228.054Z" fill="#0054A6"/>
<path d="M172.725 228.149L173.641 228.142H173.649C173.89 228.142 174.088 228.332 174.088 228.574C174.088 228.816 173.898 229.014 173.656 229.014H172.725C172.483 229.014 172.292 228.823 172.285 228.581C172.285 228.347 172.476 228.149 172.725 228.149Z" fill="#0054A6"/>
<path d="M175.786 228.076L176.702 228.024H176.709C176.951 228.01 177.156 228.193 177.171 228.435C177.186 228.677 177.003 228.882 176.761 228.897L175.83 228.948C175.588 228.963 175.383 228.779 175.368 228.537C175.353 228.296 175.537 228.09 175.786 228.076Z" fill="#0054A6"/>
<path d="M178.843 227.841L179.759 227.738H179.766C180.008 227.709 180.228 227.885 180.257 228.127C180.287 228.369 180.111 228.589 179.869 228.618L178.938 228.72C178.696 228.75 178.476 228.574 178.454 228.332C178.417 228.083 178.593 227.863 178.843 227.841Z" fill="#0054A6"/>
<path d="M181.883 227.445L182.792 227.299H182.799C183.041 227.262 183.268 227.423 183.312 227.665C183.349 227.907 183.188 228.134 182.946 228.178L182.022 228.325C181.78 228.361 181.553 228.2 181.509 227.958C181.472 227.716 181.634 227.489 181.883 227.445Z" fill="#0054A6"/>
<path d="M184.905 226.903L185.806 226.712H185.814C186.055 226.661 186.297 226.815 186.349 227.057C186.4 227.298 186.246 227.54 186.004 227.592L185.088 227.782C184.846 227.833 184.604 227.68 184.553 227.438C184.502 227.188 184.655 226.954 184.905 226.903Z" fill="#0054A6"/>
<path d="M187.898 226.214L188.785 225.979H188.792C189.034 225.913 189.283 226.06 189.342 226.302C189.408 226.544 189.261 226.793 189.019 226.852L188.118 227.086C187.876 227.152 187.627 227.005 187.568 226.764C187.509 226.522 187.649 226.272 187.898 226.214Z" fill="#0054A6"/>
<path d="M190.851 225.378L191.73 225.1H191.738C191.98 225.026 192.236 225.158 192.309 225.4C192.383 225.642 192.251 225.899 192.009 225.972L191.115 226.25C190.873 226.324 190.616 226.192 190.543 225.95C190.47 225.708 190.609 225.459 190.851 225.378Z" fill="#0054A6"/>
<path d="M193.768 224.418L194.633 224.103H194.64C194.874 224.015 195.138 224.139 195.226 224.374C195.314 224.609 195.19 224.872 194.955 224.96L194.076 225.276C193.841 225.363 193.577 225.239 193.489 225.004C193.401 224.77 193.526 224.506 193.768 224.418Z" fill="#0054A6"/>
<path d="M196.634 223.326L197.484 222.974H197.492C197.726 222.879 197.99 222.989 198.093 223.223C198.188 223.458 198.078 223.722 197.844 223.824L196.979 224.184C196.744 224.279 196.48 224.169 196.385 223.934C196.282 223.692 196.4 223.429 196.634 223.326Z" fill="#0054A6"/>
<path d="M199.456 222.109L200.292 221.721H200.299C200.526 221.611 200.805 221.713 200.907 221.94C201.01 222.168 200.915 222.446 200.688 222.549L199.845 222.937C199.617 223.047 199.346 222.945 199.236 222.717C199.119 222.49 199.222 222.219 199.456 222.109Z" fill="#0054A6"/>
<path d="M202.219 220.775L203.04 220.35H203.047C203.274 220.232 203.553 220.32 203.663 220.548C203.78 220.775 203.692 221.053 203.465 221.163L202.636 221.589C202.409 221.706 202.131 221.618 202.021 221.391C201.903 221.171 201.991 220.9 202.219 220.775Z" fill="#0054A6"/>
<path d="M204.931 219.331L205.73 218.877H205.737C205.957 218.752 206.243 218.825 206.368 219.045C206.492 219.265 206.419 219.551 206.199 219.676L205.385 220.137C205.165 220.262 204.887 220.189 204.755 219.961C204.623 219.742 204.704 219.456 204.931 219.331Z" fill="#0054A6"/>
<path d="M207.577 217.77L208.361 217.279H208.369C208.581 217.147 208.867 217.205 209.006 217.425C209.138 217.638 209.08 217.924 208.86 218.063L208.068 218.554C207.855 218.686 207.57 218.62 207.43 218.407C207.291 218.195 207.35 217.909 207.577 217.77Z" fill="#0054A6"/>
<path d="M210.157 216.106L210.919 215.585H210.926C211.139 215.439 211.425 215.498 211.571 215.71C211.718 215.923 211.659 216.209 211.447 216.355L210.677 216.883C210.465 217.029 210.179 216.971 210.032 216.758C209.886 216.546 209.937 216.253 210.157 216.106Z" fill="#0054A6"/>
<path d="M212.672 214.34L213.412 213.79H213.419C213.625 213.636 213.918 213.68 214.072 213.885C214.226 214.09 214.182 214.384 213.976 214.537L213.229 215.087C213.023 215.241 212.73 215.197 212.584 214.992C212.415 214.787 212.459 214.493 212.672 214.34Z" fill="#0054A6"/>
<path d="M215.119 212.485L215.837 211.913H215.844C216.042 211.752 216.336 211.789 216.497 211.986C216.658 212.184 216.621 212.478 216.423 212.639L215.69 213.218C215.493 213.379 215.199 213.343 215.038 213.145C214.877 212.939 214.914 212.646 215.119 212.485Z" fill="#0054A6"/>
<path d="M217.501 210.543L218.204 209.942C218.402 209.773 218.696 209.795 218.864 209.993C219.033 210.191 219.011 210.484 218.813 210.653L218.102 211.254C217.904 211.422 217.611 211.4 217.442 211.202C217.274 211.004 217.303 210.711 217.501 210.543Z" fill="#0054A6"/>
<path d="M219.81 208.519L220.492 207.896C220.682 207.72 220.975 207.735 221.151 207.926C221.327 208.116 221.313 208.409 221.122 208.585L220.433 209.216C220.242 209.392 219.949 209.377 219.773 209.186C219.605 208.988 219.619 208.695 219.81 208.519Z" fill="#0054A6"/>
<path d="M222.059 206.416L222.719 205.771C222.902 205.588 223.202 205.595 223.378 205.778C223.562 205.961 223.554 206.262 223.371 206.438L222.704 207.09C222.521 207.274 222.22 207.266 222.044 207.083C221.868 206.9 221.868 206.599 222.059 206.416Z" fill="#0054A6"/>
<path d="M224.235 204.246L224.872 203.579C225.055 203.396 225.349 203.389 225.539 203.565C225.73 203.74 225.73 204.041 225.554 204.232L224.909 204.899C224.726 205.082 224.432 205.089 224.249 204.913C224.059 204.737 224.051 204.437 224.235 204.246Z" fill="#0054A6"/>
<path d="M226.357 202.018L226.98 201.336C227.156 201.146 227.449 201.131 227.647 201.307C227.838 201.483 227.852 201.776 227.676 201.974L227.046 202.663C226.87 202.854 226.577 202.868 226.379 202.692C226.189 202.509 226.181 202.209 226.357 202.018Z" fill="#0054A6"/>
<path d="M228.399 199.724L229 199.027C229.169 198.829 229.469 198.807 229.667 198.976C229.865 199.145 229.887 199.445 229.718 199.643L229.11 200.347C228.941 200.545 228.641 200.567 228.443 200.398C228.252 200.215 228.23 199.922 228.399 199.724Z" fill="#0054A6"/>
<path d="M230.385 197.371L230.972 196.652C231.14 196.447 231.433 196.418 231.639 196.586C231.844 196.755 231.873 197.048 231.705 197.253L231.118 197.972C230.95 198.177 230.657 198.206 230.451 198.038C230.253 197.869 230.224 197.576 230.385 197.371Z" fill="#0054A6"/>
<path d="M232.315 194.967L232.88 194.234C233.041 194.029 233.334 193.992 233.547 194.146C233.752 194.307 233.789 194.6 233.635 194.813L233.063 195.546C232.902 195.751 232.609 195.788 232.396 195.626C232.191 195.473 232.154 195.179 232.315 194.967Z" fill="#0054A6"/>
<path d="M234.178 192.519L234.727 191.778C234.881 191.566 235.182 191.522 235.394 191.676C235.607 191.83 235.651 192.13 235.497 192.343L234.947 193.09C234.793 193.303 234.493 193.347 234.28 193.193C234.068 193.024 234.024 192.731 234.178 192.519Z" fill="#0054A6"/>
<path d="M235.982 190.019L236.509 189.264C236.663 189.051 236.956 189 237.169 189.147C237.382 189.301 237.433 189.594 237.286 189.806L236.751 190.569C236.597 190.781 236.304 190.833 236.092 190.686C235.886 190.539 235.828 190.239 235.982 190.019Z" fill="#0054A6"/>
<path d="M237.731 187.49L238.244 186.721C238.39 186.501 238.684 186.442 238.904 186.589C239.123 186.735 239.182 187.028 239.035 187.248L238.515 188.025C238.368 188.245 238.075 188.304 237.855 188.157C237.635 188.003 237.577 187.71 237.731 187.49Z" fill="#0054A6"/>
<path d="M239.422 184.91L239.92 184.133C240.06 183.913 240.36 183.847 240.58 183.987C240.8 184.126 240.866 184.426 240.727 184.646L240.228 185.431C240.089 185.65 239.788 185.716 239.568 185.577C239.341 185.431 239.275 185.137 239.422 184.91Z" fill="#0054A6"/>
<path d="M241.059 182.308L241.543 181.516C241.682 181.289 241.975 181.216 242.202 181.355C242.43 181.494 242.503 181.787 242.364 182.015L241.88 182.806C241.741 183.034 241.447 183.1 241.22 182.968C240.993 182.828 240.92 182.535 241.059 182.308Z" fill="#0054A6"/>
<path d="M242.651 179.669L243.12 178.87C243.252 178.643 243.553 178.562 243.78 178.702C244.007 178.834 244.088 179.134 243.949 179.361L243.48 180.16C243.348 180.388 243.047 180.468 242.82 180.329C242.593 180.19 242.519 179.897 242.651 179.669Z" fill="#0054A6"/>
<path d="M244.204 177.001L244.666 176.195C244.798 175.96 245.091 175.887 245.325 176.012C245.56 176.144 245.633 176.437 245.509 176.671L245.047 177.478C244.915 177.705 244.622 177.786 244.387 177.654C244.153 177.529 244.072 177.236 244.204 177.001Z" fill="#0054A6"/>
<path d="M245.722 174.318L246.169 173.512C246.301 173.278 246.594 173.197 246.828 173.322C247.063 173.454 247.144 173.747 247.019 173.981L246.565 174.795C246.433 175.029 246.139 175.11 245.912 174.978C245.678 174.839 245.59 174.546 245.722 174.318Z" fill="#0054A6"/>
<path d="M247.209 171.614L247.656 170.8C247.781 170.566 248.081 170.478 248.316 170.61C248.55 170.734 248.638 171.035 248.506 171.269L248.059 172.083C247.935 172.317 247.634 172.405 247.407 172.273C247.172 172.142 247.084 171.848 247.209 171.614Z" fill="#0054A6"/>
<path d="M248.682 168.902L249.121 168.088C249.246 167.854 249.539 167.766 249.781 167.89C250.016 168.015 250.104 168.308 249.979 168.55L249.539 169.363C249.415 169.598 249.121 169.686 248.879 169.561C248.645 169.429 248.557 169.136 248.682 168.902Z" fill="#0054A6"/>
<path d="M250.147 166.175L250.587 165.361C250.712 165.127 251.005 165.039 251.247 165.163C251.481 165.288 251.569 165.581 251.445 165.823L251.005 166.637C250.88 166.871 250.587 166.959 250.345 166.835C250.103 166.71 250.015 166.417 250.147 166.175Z" fill="#0054A6"/>
<path d="M251.6 163.456L252.039 162.635C252.164 162.4 252.464 162.305 252.699 162.437C252.934 162.561 253.029 162.862 252.897 163.097L252.457 163.91C252.333 164.145 252.032 164.233 251.797 164.108C251.563 163.983 251.475 163.69 251.6 163.456Z" fill="#0054A6"/>
<path d="M253.065 160.729L253.505 159.915C253.63 159.681 253.93 159.593 254.165 159.717C254.399 159.842 254.487 160.143 254.363 160.377L253.923 161.191C253.798 161.425 253.498 161.513 253.263 161.389C253.021 161.264 252.933 160.964 253.065 160.729Z" fill="#0054A6"/>
<path d="M254.533 158.01L254.98 157.196C255.112 156.962 255.405 156.874 255.647 156.998C255.882 157.13 255.97 157.423 255.845 157.665L255.398 158.479C255.266 158.713 254.973 158.801 254.731 158.669C254.496 158.545 254.409 158.244 254.533 158.01Z" fill="#0054A6"/>
<path d="M256.028 155.298L256.482 154.484C256.614 154.249 256.915 154.162 257.149 154.293C257.384 154.425 257.472 154.726 257.34 154.96L256.885 155.767C256.754 156.001 256.453 156.089 256.218 155.957C255.977 155.833 255.896 155.532 256.028 155.298Z" fill="#0054A6"/>
<path d="M257.544 152.6L258.006 151.794C258.137 151.559 258.438 151.479 258.673 151.611C258.907 151.742 258.988 152.043 258.856 152.278L258.394 153.084C258.262 153.318 257.962 153.399 257.727 153.267C257.492 153.135 257.412 152.835 257.544 152.6Z" fill="#0054A6"/>
<path d="M259.096 149.925L259.572 149.126C259.711 148.898 260.005 148.818 260.239 148.957C260.466 149.096 260.547 149.39 260.408 149.624L259.939 150.423C259.799 150.658 259.506 150.731 259.272 150.592C259.037 150.452 258.956 150.152 259.096 149.925Z" fill="#0054A6"/>
<path d="M260.688 147.264L261.172 146.473C261.311 146.245 261.611 146.172 261.839 146.311C262.066 146.451 262.139 146.751 262 146.978L261.516 147.763C261.377 147.99 261.076 148.063 260.849 147.924C260.622 147.792 260.549 147.491 260.688 147.264Z" fill="#0054A6"/>
<path d="M262.331 144.64L262.836 143.856C262.983 143.636 263.276 143.57 263.503 143.709C263.723 143.856 263.789 144.149 263.65 144.376L263.151 145.153C263.005 145.38 262.712 145.439 262.484 145.3C262.257 145.161 262.191 144.86 262.331 144.64Z" fill="#0054A6"/>
<path d="M264.03 142.045L264.55 141.275C264.697 141.056 264.997 140.997 265.217 141.144C265.437 141.29 265.495 141.591 265.349 141.811L264.836 142.58C264.689 142.8 264.389 142.859 264.169 142.712C263.942 142.558 263.883 142.265 264.03 142.045Z" fill="#0054A6"/>
<path d="M265.788 139.487L266.331 138.732C266.485 138.52 266.778 138.468 266.99 138.622C267.203 138.776 267.254 139.069 267.1 139.282L266.565 140.037C266.411 140.249 266.118 140.301 265.898 140.147C265.686 140 265.634 139.7 265.788 139.487Z" fill="#0054A6"/>
<path d="M267.621 136.98L268.186 136.24C268.347 136.035 268.64 135.991 268.845 136.152C269.051 136.313 269.095 136.606 268.933 136.812L268.376 137.545C268.215 137.75 267.922 137.794 267.709 137.633C267.504 137.486 267.46 137.193 267.621 136.98Z" fill="#0054A6"/>
<path d="M269.529 134.532L270.116 133.807C270.277 133.601 270.577 133.572 270.775 133.741C270.981 133.902 271.01 134.202 270.841 134.4L270.262 135.119C270.101 135.324 269.8 135.353 269.603 135.185C269.397 135.031 269.368 134.737 269.529 134.532Z" fill="#0054A6"/>
<path d="M271.515 132.15L272.124 131.446C272.292 131.249 272.586 131.234 272.784 131.402C272.981 131.571 272.996 131.864 272.828 132.062L272.226 132.758C272.058 132.956 271.757 132.978 271.567 132.802C271.369 132.641 271.347 132.341 271.515 132.15Z" fill="#0054A6"/>
<path d="M273.583 129.826L274.221 129.144C274.396 128.954 274.69 128.947 274.88 129.123C275.071 129.298 275.078 129.592 274.902 129.782L274.272 130.457V130.464C274.096 130.654 273.803 130.662 273.612 130.486C273.414 130.31 273.407 130.017 273.583 129.826Z" fill="#0054A6"/>
<path d="M275.728 127.583L276.388 126.924C276.571 126.741 276.864 126.748 277.04 126.924C277.216 127.1 277.216 127.4 277.04 127.576L276.388 128.228L276.381 128.236C276.197 128.419 275.904 128.419 275.721 128.236C275.545 128.06 275.545 127.767 275.728 127.583Z" fill="#0054A6"/>
<path d="M277.965 125.428L278.654 124.798C278.844 124.63 279.13 124.637 279.306 124.827C279.475 125.018 279.467 125.304 279.277 125.48H279.269L278.588 126.103L278.58 126.11C278.39 126.286 278.104 126.271 277.928 126.081C277.767 125.89 277.781 125.597 277.965 125.428Z" fill="#0054A6"/>
<path d="M280.289 123.362L281 122.761C281.19 122.599 281.484 122.621 281.645 122.819C281.806 123.01 281.784 123.303 281.586 123.464H281.579L280.875 124.058L280.868 124.065C280.677 124.226 280.384 124.204 280.223 124.007C280.062 123.809 280.098 123.523 280.289 123.362Z" fill="#0054A6"/>
<path d="M282.698 121.397L283.439 120.833C283.637 120.679 283.923 120.716 284.076 120.921C284.23 121.119 284.194 121.405 283.989 121.558H283.981L283.248 122.116L283.241 122.123C283.043 122.277 282.757 122.24 282.603 122.035C282.464 121.837 282.501 121.551 282.698 121.397Z" fill="#0054A6"/>
<path d="M285.207 119.55L285.977 119.022C286.182 118.883 286.461 118.934 286.607 119.139C286.746 119.345 286.695 119.623 286.49 119.77H286.483L285.728 120.298L285.72 120.305C285.515 120.444 285.229 120.4 285.09 120.188C284.951 119.975 285.002 119.697 285.207 119.55Z" fill="#0054A6"/>
<path d="M287.81 117.835L288.609 117.344C288.822 117.219 289.093 117.285 289.218 117.49C289.342 117.703 289.276 117.974 289.071 118.099H289.064L288.28 118.582L288.272 118.59C288.06 118.722 287.788 118.656 287.656 118.443C287.532 118.238 287.598 117.967 287.81 117.835Z" fill="#0054A6"/>
<path d="M290.492 116.259L291.313 115.819C291.525 115.702 291.789 115.782 291.906 115.995C292.024 116.207 291.943 116.471 291.73 116.589H291.723L290.917 117.028H290.909C290.697 117.146 290.433 117.065 290.316 116.852C290.198 116.64 290.279 116.376 290.492 116.259Z" fill="#0054A6"/>
<path d="M293.269 114.844L294.12 114.448C294.332 114.346 294.589 114.441 294.691 114.661C294.794 114.873 294.699 115.13 294.479 115.233H294.472L293.636 115.621H293.629C293.416 115.724 293.16 115.628 293.057 115.416C292.954 115.203 293.05 114.947 293.269 114.844Z" fill="#0054A6"/>
<path d="M296.12 113.591L296.993 113.254C297.212 113.166 297.454 113.275 297.535 113.495C297.623 113.715 297.513 113.957 297.293 114.038H297.286L296.428 114.375H296.421C296.201 114.463 295.959 114.353 295.871 114.133C295.798 113.928 295.9 113.679 296.12 113.591Z" fill="#0054A6"/>
<path d="M299.054 112.528L299.948 112.249C300.168 112.183 300.403 112.301 300.469 112.52C300.535 112.74 300.418 112.975 300.198 113.041H300.19L299.318 113.319H299.311C299.091 113.393 298.856 113.268 298.79 113.048C298.71 112.836 298.834 112.601 299.054 112.528Z" fill="#0054A6"/>
<path d="M302.043 111.663L302.952 111.443C303.172 111.392 303.392 111.524 303.443 111.744C303.494 111.964 303.362 112.183 303.142 112.235H303.135L302.241 112.455H302.233C302.014 112.506 301.794 112.374 301.735 112.154C301.691 111.934 301.823 111.714 302.043 111.663Z" fill="#0054A6"/>
<path d="M305.099 111.003L306.023 110.857C306.243 110.82 306.448 110.967 306.477 111.186C306.514 111.406 306.367 111.612 306.148 111.641H306.14L305.239 111.787H305.231C305.011 111.824 304.806 111.678 304.77 111.458C304.726 111.245 304.872 111.04 305.099 111.003Z" fill="#0054A6"/>
<path d="M308.194 110.6L309.133 110.534C309.345 110.519 309.536 110.681 309.55 110.9C309.565 111.113 309.404 111.304 309.184 111.318H309.177L308.26 111.384H308.246C308.026 111.399 307.843 111.238 307.821 111.018C307.813 110.813 307.974 110.622 308.194 110.6Z" fill="#0054A6"/>
<path d="M311.321 110.498L312.26 110.527C312.472 110.534 312.641 110.71 312.633 110.923C312.626 111.135 312.45 111.304 312.238 111.296H312.223L311.307 111.267H311.292C311.079 111.26 310.911 111.084 310.918 110.871C310.926 110.659 311.101 110.49 311.321 110.498Z" fill="#0054A6"/>
<path d="M314.444 110.725L315.374 110.871C315.58 110.901 315.719 111.099 315.69 111.304C315.66 111.509 315.462 111.648 315.257 111.619H315.242L314.341 111.487H314.326C314.121 111.458 313.974 111.26 314.004 111.055C314.04 110.835 314.238 110.696 314.444 110.725Z" fill="#0054A6"/>
<path d="M317.524 111.348L318.426 111.619C318.617 111.678 318.727 111.883 318.668 112.073C318.609 112.264 318.404 112.374 318.213 112.315L318.199 112.308L317.326 112.051L317.312 112.044C317.114 111.985 317.004 111.78 317.063 111.582C317.121 111.406 317.327 111.289 317.524 111.348Z" fill="#0054A6"/>
<path d="M320.477 112.425L321.327 112.836C321.503 112.924 321.577 113.136 321.489 113.312C321.401 113.488 321.195 113.561 321.02 113.473L321.005 113.466L320.184 113.078L320.169 113.07C319.993 112.982 319.913 112.77 320.001 112.594C320.081 112.411 320.294 112.337 320.477 112.425Z" fill="#0054A6"/>
<path d="M323.218 113.972L323.98 114.536C324.134 114.646 324.163 114.866 324.046 115.013C323.936 115.167 323.724 115.196 323.57 115.086L323.555 115.071L322.822 114.536L322.807 114.522C322.653 114.412 322.624 114.192 322.734 114.038C322.844 113.891 323.064 113.855 323.218 113.972Z" fill="#0054A6"/>
<path d="M325.608 116.039L326.238 116.743C326.363 116.882 326.348 117.087 326.209 117.212C326.077 117.329 325.864 117.322 325.747 117.19L325.732 117.175L325.124 116.501L325.109 116.486C324.985 116.347 324.999 116.142 325.131 116.017C325.27 115.885 325.476 115.9 325.608 116.039Z" fill="#0054A6"/>
<path d="M327.536 118.524L328.02 119.337C328.108 119.491 328.057 119.682 327.91 119.77C327.756 119.858 327.566 119.807 327.478 119.66L327.47 119.645L327.001 118.868L326.994 118.854C326.906 118.7 326.95 118.502 327.104 118.414C327.243 118.319 327.441 118.37 327.536 118.524Z" fill="#0054A6"/>
<path d="M328.944 121.339L329.252 122.233C329.304 122.394 329.223 122.57 329.062 122.621C328.9 122.673 328.732 122.592 328.673 122.431L328.666 122.409L328.365 121.551L328.358 121.529C328.299 121.368 328.387 121.192 328.549 121.133C328.71 121.089 328.886 121.177 328.944 121.339Z" fill="#0054A6"/>
<path d="M329.737 124.388L329.832 125.333C329.847 125.495 329.73 125.634 329.568 125.656C329.407 125.671 329.268 125.561 329.246 125.399V125.377L329.143 124.476V124.454C329.121 124.293 329.239 124.146 329.407 124.124C329.576 124.109 329.722 124.227 329.737 124.388Z" fill="#0054A6"/>
<path d="M329.781 127.547L329.627 128.485C329.605 128.639 329.459 128.734 329.312 128.712C329.166 128.69 329.063 128.551 329.085 128.397V128.375L329.217 127.481V127.459C329.239 127.305 329.386 127.202 329.539 127.224C329.701 127.246 329.803 127.386 329.781 127.547Z" fill="#0054A6"/>
<path d="M328.964 130.596L328.847 130.86C328.788 130.992 328.634 131.05 328.502 130.992C328.37 130.933 328.312 130.779 328.37 130.647V130.64L328.48 130.383V130.376C328.539 130.244 328.693 130.178 328.832 130.237C328.964 130.303 329.023 130.457 328.964 130.596Z" fill="#0054A6"/>
</svg>
