<svg width="112" height="112" viewBox="0 0 112 112" fill="none" xmlns="http://www.w3.org/2000/svg">
<path d="M104 108H8C3.58 108 0 104.42 0 100V17.4H112V100C112 104.42 108.42 108 104 108Z" fill="#D2D9DC"/>
<path d="M112 20.89H0V12C0 7.58 3.58 4 8 4H104C108.42 4 112 7.58 112 12V20.89Z" fill="#002548"/>
<path d="M33.1904 16.2C35.2615 16.2 36.9404 14.521 36.9404 12.45C36.9404 10.3789 35.2615 8.69995 33.1904 8.69995C31.1194 8.69995 29.4404 10.3789 29.4404 12.45C29.4404 14.521 31.1194 16.2 33.1904 16.2Z" fill="#54CC5A"/>
<path d="M21.5195 16.2C23.5906 16.2 25.2695 14.521 25.2695 12.45C25.2695 10.3789 23.5906 8.69995 21.5195 8.69995C19.4485 8.69995 17.7695 10.3789 17.7695 12.45C17.7695 14.521 19.4485 16.2 21.5195 16.2Z" fill="#FFDD33"/>
<path d="M9.84961 16.2C11.9207 16.2 13.5996 14.521 13.5996 12.45C13.5996 10.3789 11.9207 8.69995 9.84961 8.69995C7.77854 8.69995 6.09961 10.3789 6.09961 12.45C6.09961 14.521 7.77854 16.2 9.84961 16.2Z" fill="#ED1C24"/>
<path opacity="0.19" d="M95.1997 15.43H54.9297C53.5497 15.43 52.4297 14.31 52.4297 12.93V11.97C52.4297 10.59 53.5497 9.46997 54.9297 9.46997H95.1997C96.5797 9.46997 97.6997 10.59 97.6997 11.97V12.93C97.6997 14.31 96.5797 15.43 95.1997 15.43Z" fill="#F9FAFB"/>
<path d="M59.2601 81.54H20.6301C19.1101 81.54 17.8701 80.31 17.8701 78.78V40.15C17.8701 38.63 19.1001 37.39 20.6301 37.39H59.2601C60.7801 37.39 62.0201 38.62 62.0201 40.15V78.78C62.0201 80.3 60.7901 81.54 59.2601 81.54Z" fill="#FFBD86"/>
<path d="M48.7604 51.18L40.0204 47.4L31.1504 51.17V37.39H48.7704V51.18H48.7604Z" fill="#0054A6"/>
<path d="M96.3096 49.9H72.1597C70.4897 49.9 69.1396 48.55 69.1396 46.88C69.1396 45.21 70.4897 43.86 72.1597 43.86H96.3196C97.9896 43.86 99.3396 45.21 99.3396 46.88C99.3396 48.55 97.9796 49.9 96.3096 49.9Z" fill="#839299"/>
<path d="M96.3096 68.02H72.1597C70.4897 68.02 69.1396 66.67 69.1396 65C69.1396 63.33 70.4897 61.98 72.1597 61.98H96.3196C97.9896 61.98 99.3396 63.33 99.3396 65C99.3296 66.67 97.9796 68.02 96.3096 68.02Z" fill="#839299"/>
<path d="M96.3096 86.14H72.1597C70.4897 86.14 69.1396 84.79 69.1396 83.12C69.1396 81.45 70.4897 80.1 72.1597 80.1H96.3196C97.9896 80.1 99.3396 81.45 99.3396 83.12C99.3396 84.79 97.9796 86.14 96.3096 86.14Z" fill="#839299"/>
<path d="M92.6597 55.94C90.9897 55.94 89.6396 54.59 89.6396 52.92V40.85C89.6396 39.18 90.9897 37.83 92.6597 37.83C94.3297 37.83 95.6796 39.18 95.6796 40.85V52.93C95.6796 54.59 94.3297 55.94 92.6597 55.94Z" fill="#ED1C24"/>
<path d="M80.5796 74.0599C78.9096 74.0599 77.5596 72.7099 77.5596 71.0399V58.9599C77.5596 57.2899 78.9096 55.9399 80.5796 55.9399C82.2496 55.9399 83.5996 57.2899 83.5996 58.9599V71.0399C83.5996 72.7099 82.2496 74.0599 80.5796 74.0599Z" fill="#ED1C24"/>
<path d="M92.6597 92.1799C90.9897 92.1799 89.6396 90.8299 89.6396 89.1599V77.0799C89.6396 75.4099 90.9897 74.0599 92.6597 74.0599C94.3297 74.0599 95.6796 75.4099 95.6796 77.0799V89.1599C95.6796 90.8299 94.3297 92.1799 92.6597 92.1799Z" fill="#ED1C24"/>
<path d="M40.5796 85.88L37.8596 84.31C38.0096 83.48 38.0996 82.63 38.0996 81.76C38.0996 80.89 38.0096 80.04 37.8596 79.21L40.5796 77.64C41.6896 77 42.0696 75.57 41.4296 74.46L39.0996 70.43C38.4596 69.32 37.0296 68.94 35.9196 69.58L34.5396 70.37C33.7896 70.81 32.8396 70.81 32.1196 70.31C31.4696 69.85 30.7696 69.45 30.0396 69.11C29.2496 68.74 28.7796 67.92 28.7796 67.05V65.46C28.7796 64.18 27.7396 63.13 26.4496 63.13H21.7996C20.5196 63.13 19.4696 64.17 19.4696 65.46V67.05C19.4696 67.92 18.9996 68.75 18.2096 69.11C17.4796 69.45 16.7896 69.85 16.1296 70.31C15.4196 70.81 14.4696 70.8 13.7096 70.37L12.3296 69.58C11.2196 68.94 9.78958 69.32 9.14958 70.43L6.81958 74.46C6.17958 75.57 6.55958 77 7.66958 77.64L10.3896 79.21C10.2396 80.04 10.1496 80.89 10.1496 81.76C10.1496 82.63 10.2396 83.48 10.3896 84.31L7.69958 85.88C6.58958 86.52 6.20958 87.95 6.84958 89.06L9.17958 93.09C9.81958 94.2 11.2496 94.58 12.3596 93.94L13.7396 93.15C14.4896 92.71 15.4396 92.71 16.1596 93.21C16.8096 93.67 17.5096 94.07 18.2396 94.41C19.0296 94.78 19.4996 95.6 19.4996 96.47V98.06C19.4996 99.34 20.5396 100.39 21.8296 100.39H26.4796C27.7596 100.39 28.8096 99.35 28.8096 98.06V96.47C28.8096 95.6 29.2796 94.77 30.0696 94.41C30.7996 94.07 31.4896 93.67 32.1496 93.21C32.8596 92.71 33.8096 92.72 34.5696 93.15L35.9496 93.94C37.0596 94.58 38.4896 94.2 39.1296 93.09L41.4596 89.06C42.0696 87.95 41.6896 86.52 40.5796 85.88ZM24.1396 91.08C18.9996 91.08 14.8296 86.91 14.8296 81.77C14.8296 76.63 18.9996 72.46 24.1396 72.46C29.2796 72.46 33.4496 76.63 33.4496 81.77C33.4496 86.91 29.2796 91.08 24.1396 91.08Z" fill="#0054A6"/>
</svg>
