<svg width="50" height="50" viewBox="0 0 50 50" fill="none" xmlns="http://www.w3.org/2000/svg">
<g clip-path="url(#clip0_18065_7869)">
<path d="M50 25C50 38.8047 38.8047 50 25 50C15.4062 50 7.07031 44.5859 2.875 36.6562C2.45312 35.8516 2.07031 35.0234 1.73438 34.1719V34.1641C1.50781 33.6016 1.3125 33.0391 1.13281 32.4609C0.398438 30.1016 0 27.6016 0 25C0 22.3125 0.421875 19.7266 1.21094 17.2969C1.35156 16.8438 1.51563 16.3906 1.6875 15.9453V15.9375L1.85156 15.5391C1.95312 15.2812 2.07031 15.0234 2.1875 14.7656C2.39844 14.2812 2.63281 13.8125 2.875 13.3438C7.07031 5.41406 15.4062 0 25 0C38.8047 0 50 11.1953 50 25Z" fill="#FFC42E"/>
<path d="M39.3203 42.6641H21.0078C20.0156 42.6641 19.2109 41.8594 19.2109 40.8672V10.7891C19.2109 9.79688 20.0156 8.99219 21.0078 8.99219H39.3203C40.3125 8.99219 41.1172 9.79688 41.1172 10.7891V40.875C41.1172 41.8594 40.3125 42.6641 39.3203 42.6641Z" fill="#617586"/>
<path d="M21.4375 13.4688H38.9062V37.6719H21.4375V13.4688Z" fill="#EBF0F3"/>
<path d="M27.7578 10.7031H32.5703V11.4063H27.7578V10.7031Z" fill="#E5E8EA"/>
<path d="M31.8828 40.0464C31.8828 40.9917 31.1172 41.7651 30.1641 41.7651C29.2188 41.7651 28.4453 40.9995 28.4453 40.0464C28.4453 39.1011 29.2109 38.3276 30.1641 38.3276C31.1172 38.3276 31.8828 39.1011 31.8828 40.0464Z" fill="#E5E8EA"/>
<path d="M31.4688 40.0469C31.4688 40.7656 30.8828 41.3516 30.1641 41.3516C29.4453 41.3516 28.8594 40.7656 28.8594 40.0469C28.8594 39.3281 29.4453 38.7422 30.1641 38.7422C30.8906 38.7422 31.4688 39.3281 31.4688 40.0469Z" fill="#617586"/>
<path d="M23.7188 16.3823H36.625V18.0073H23.7188V16.3823Z" fill="#DDDDDD"/>
<path d="M23.7188 20.5698H36.625V22.1948H23.7188V20.5698Z" fill="#DDDDDD"/>
<path d="M23.7188 24.7573H36.625V26.3823H23.7188V24.7573Z" fill="#DDDDDD"/>
<path d="M23.7188 28.9448H36.625V30.5698H23.7188V28.9448Z" fill="#DDDDDD"/>
<path d="M23.7188 33.1323H36.625V34.7573H23.7188V33.1323Z" fill="#DDDDDD"/>
<path d="M42.0117 21.2114H38.6289L38.9102 17.8677H41.7305L42.0117 21.2114Z" fill="#72CF7B"/>
<path d="M38.6289 31.6489H42.0117L41.7305 34.9927H38.9102L38.6289 31.6489Z" fill="#72CF7B"/>
<path d="M34.957 27.5786L36.6445 30.5083L33.6133 31.9302L32.1992 29.4927L34.957 27.5786Z" fill="#72CF7B"/>
<path d="M43.9961 30.5083L45.6914 27.5786L48.4414 29.4927L47.0273 31.9302L43.9961 30.5083Z" fill="#72CF7B"/>
<path d="M36.6445 22.3599L34.957 25.2817L32.1992 23.3677L33.6133 20.9302L36.6445 22.3599Z" fill="#72CF7B"/>
<path d="M45.6914 25.2817L43.9961 22.3599L47.0273 20.9302L48.4414 23.3677L45.6914 25.2817Z" fill="#72CF7B"/>
<path d="M41.0119 19.7426C36.7541 19.3208 33.2072 22.8676 33.6369 27.1254C33.9494 30.2739 36.5041 32.8129 39.6447 33.1176C43.8947 33.5317 47.4338 29.9848 47.0119 25.7348C46.6994 22.5942 44.1525 20.0551 41.0119 19.7426ZM41.0119 30.4614C38.215 30.9223 35.8322 28.5317 36.2854 25.7348C36.5666 24.0395 37.9338 22.6723 39.6291 22.3911C42.4338 21.9379 44.8166 24.3208 44.3479 27.1254C44.0744 28.8208 42.7072 30.1879 41.0119 30.4614Z" fill="#72CF7B"/>
<path d="M29.4844 16.3667V35.5073C29.4844 36.6011 28.5938 37.4839 27.5078 37.4839H2.875C2.45312 36.6792 2.07031 35.8511 1.73438 34.9995V34.9917C1.50781 34.4292 1.3125 33.8667 1.13281 33.2886C0.398438 30.9292 0 28.4292 0 25.8276C0 23.1401 0.421875 20.5542 1.21094 18.1245C1.35156 17.6714 1.51563 17.2183 1.6875 16.7729V16.7651L1.85156 16.3667H29.4844Z" fill="#DDDDDD"/>
<path d="M29.4844 16.1479V18.1245H1.21094C1.35156 17.6714 1.51563 17.2183 1.6875 16.7729V16.7651L1.85156 16.3667C1.95312 16.1089 2.07031 15.8511 2.1875 15.5933C2.39844 15.1089 2.63281 14.6401 2.875 14.1714H27.5078C28.5938 14.1714 29.4844 15.0542 29.4844 16.1479Z" fill="#FF576B"/>
<path d="M2.50781 16.1479C2.50781 16.2261 2.49219 16.3042 2.46875 16.3667C2.38281 16.6167 2.14062 16.7964 1.86719 16.7964C1.80469 16.7964 1.74219 16.7886 1.6875 16.7729V16.7651L1.85156 16.3667C1.95312 16.1089 2.07031 15.8511 2.1875 15.5933C2.375 15.7026 2.50781 15.9136 2.50781 16.1479Z" fill="#E5E8EA"/>
<path d="M4.53906 16.1479C4.53906 16.5073 4.25 16.7964 3.89063 16.7964C3.53125 16.7964 3.25 16.5073 3.25 16.1479C3.25 15.7886 3.53906 15.4995 3.89063 15.4995C4.25 15.5073 4.53906 15.7964 4.53906 16.1479Z" fill="#E5E8EA"/>
<path d="M6.57031 16.1479C6.57031 16.5073 6.28125 16.7964 5.92969 16.7964C5.57031 16.7964 5.28125 16.5073 5.28125 16.1479C5.28125 15.7886 5.57031 15.4995 5.92969 15.4995C6.28125 15.5073 6.57031 15.7964 6.57031 16.1479Z" fill="#E5E8EA"/>
<path d="M26.2344 16.6167H14.0156C13.7578 16.6167 13.5469 16.4058 13.5469 16.1479C13.5469 15.8901 13.7578 15.6792 14.0156 15.6792H26.2266C26.4844 15.6792 26.6953 15.8901 26.6953 16.1479C26.6953 16.4058 26.4922 16.6167 26.2344 16.6167Z" fill="#E5E8EA"/>
<path d="M1.13281 21.1636H26.7891V24.5776H1.13281V21.1636Z" fill="#EBF0F3"/>
<path d="M26.0156 35.0234H15.2266C14.8047 35.0234 14.4531 34.6797 14.4531 34.25V27.7969C14.4531 27.375 14.7969 27.0234 15.2266 27.0234H26.0156C26.4375 27.0234 26.7891 27.3672 26.7891 27.7969V34.25C26.7891 34.6719 26.4453 35.0234 26.0156 35.0234Z" fill="#EBF0F3"/>
<path d="M13.459 27.8042V34.2495C13.459 34.6792 13.1152 35.0151 12.6934 35.0151H1.9043C1.8418 35.0151 1.78711 35.0073 1.73242 34.9995V34.9917C1.50586 34.4292 1.31055 33.8667 1.13086 33.2886V27.8042C1.13086 27.3745 1.47461 27.0308 1.9043 27.0308H12.6934C13.1152 27.0308 13.459 27.3745 13.459 27.8042Z" fill="#EBF0F3"/>
</g>
<defs>
<clipPath id="clip0_18065_7869">
<rect width="50" height="50" fill="white"/>
</clipPath>
</defs>
</svg>
