<svg width="256" height="258" viewBox="0 0 256 258" fill="none" xmlns="http://www.w3.org/2000/svg">
<path d="M126.89 257.31C194.274 257.31 248.9 254.118 248.9 250.18C248.9 246.242 194.274 243.05 126.89 243.05C59.5056 243.05 4.87988 246.242 4.87988 250.18C4.87988 254.118 59.5056 257.31 126.89 257.31Z" fill="#D2D9DC"/>
<path opacity="0.19" d="M126.89 257.31C194.274 257.31 248.9 254.118 248.9 250.18C248.9 246.242 194.274 243.05 126.89 243.05C59.5056 243.05 4.87988 246.242 4.87988 250.18C4.87988 254.118 59.5056 257.31 126.89 257.31Z" fill="#2D2F31"/>
<path d="M206.27 249.771H68.4201V76.3205L52.1001 55.0605H189.95C198.97 55.0605 206.28 62.3705 206.28 71.3905V249.771H206.27Z" fill="#D2D9DC"/>
<path d="M68.42 108.151H35.77V68.5806C35.77 61.1106 41.82 55.0605 49.29 55.0605H54.9C62.37 55.0605 68.42 61.1106 68.42 68.5806V108.151Z" fill="#5F737C"/>
<path d="M196.34 106.48H82.8199C81.7399 106.48 80.8599 105.6 80.8599 104.52V103.71C80.8599 102.63 81.7399 101.75 82.8199 101.75H196.34C197.42 101.75 198.3 102.63 198.3 103.71V104.52C198.3 105.6 197.43 106.48 196.34 106.48Z" fill="#839299"/>
<path d="M168.59 92.0903H110.58C109.5 92.0903 108.62 91.2103 108.62 90.1303V89.3204C108.62 88.2404 109.5 87.3604 110.58 87.3604H168.59C169.67 87.3604 170.55 88.2404 170.55 89.3204V90.1303C170.55 91.2203 169.67 92.0903 168.59 92.0903Z" fill="#5F737C"/>
<path d="M147.81 117.46H82.8301C81.7501 117.46 80.8701 116.58 80.8701 115.5V114.69C80.8701 113.61 81.7501 112.73 82.8301 112.73H147.81C148.89 112.73 149.77 113.61 149.77 114.69V115.5C149.77 116.58 148.89 117.46 147.81 117.46Z" fill="#839299"/>
<path d="M196.13 117.46H157.08C156 117.46 155.12 116.58 155.12 115.5V114.69C155.12 113.61 156 112.73 157.08 112.73H196.13C197.21 112.73 198.09 113.61 198.09 114.69V115.5C198.09 116.58 197.21 117.46 196.13 117.46Z" fill="#839299"/>
<path d="M131.15 124.43H196.13C197.21 124.43 198.09 125.31 198.09 126.39V127.2C198.09 128.28 197.21 129.16 196.13 129.16H131.15C130.07 129.16 129.19 128.28 129.19 127.2V126.39C129.18 125.31 130.06 124.43 131.15 124.43Z" fill="#839299"/>
<path d="M82.8199 124.43H121.87C122.95 124.43 123.83 125.31 123.83 126.39V127.2C123.83 128.28 122.95 129.16 121.87 129.16H82.8199C81.7399 129.16 80.8599 128.28 80.8599 127.2V126.39C80.8599 125.31 81.7399 124.43 82.8199 124.43Z" fill="#839299"/>
<path d="M196.34 140.621H82.8199C81.7399 140.621 80.8599 139.741 80.8599 138.661V137.851C80.8599 136.771 81.7399 135.891 82.8199 135.891H196.34C197.42 135.891 198.3 136.771 198.3 137.851V138.661C198.3 139.751 197.43 140.621 196.34 140.621Z" fill="#839299"/>
<path d="M147.81 151.61H82.8199C81.7399 151.61 80.8599 150.73 80.8599 149.65V148.84C80.8599 147.76 81.7399 146.88 82.8199 146.88H147.81C148.89 146.88 149.77 147.76 149.77 148.84V149.65C149.77 150.73 148.89 151.61 147.81 151.61Z" fill="#839299"/>
<path d="M196.13 151.61H157.08C156 151.61 155.12 150.73 155.12 149.65V148.84C155.12 147.76 156 146.88 157.08 146.88H196.13C197.21 146.88 198.09 147.76 198.09 148.84V149.65C198.09 150.73 197.21 151.61 196.13 151.61Z" fill="#839299"/>
<path d="M131.15 158.57H196.14C197.22 158.57 198.1 159.45 198.1 160.53V161.34C198.1 162.42 197.22 163.3 196.14 163.3H131.15C130.07 163.3 129.19 162.42 129.19 161.34V160.53C129.18 159.45 130.06 158.57 131.15 158.57Z" fill="#839299"/>
<path d="M82.8199 158.57H121.87C122.95 158.57 123.83 159.45 123.83 160.53V161.34C123.83 162.42 122.95 163.3 121.87 163.3H82.8199C81.7399 163.3 80.8599 162.42 80.8599 161.34V160.53C80.8599 159.45 81.7399 158.57 82.8199 158.57Z" fill="#839299"/>
<path d="M196.34 175.18H82.8199C81.7399 175.18 80.8599 174.3 80.8599 173.22V172.41C80.8599 171.33 81.7399 170.45 82.8199 170.45H196.34C197.42 170.45 198.3 171.33 198.3 172.41V173.22C198.3 174.3 197.43 175.18 196.34 175.18Z" fill="#839299"/>
<path d="M147.81 186.16H82.8301C81.7501 186.16 80.8701 185.28 80.8701 184.2V183.39C80.8701 182.31 81.7501 181.43 82.8301 181.43H147.81C148.89 181.43 149.77 182.31 149.77 183.39V184.2C149.77 185.29 148.89 186.16 147.81 186.16Z" fill="#839299"/>
<path d="M196.13 186.16H157.08C156 186.16 155.12 185.28 155.12 184.2V183.39C155.12 182.31 156 181.43 157.08 181.43H196.13C197.21 181.43 198.09 182.31 198.09 183.39V184.2C198.09 185.29 197.21 186.16 196.13 186.16Z" fill="#839299"/>
<path d="M131.15 193.13H196.13C197.21 193.13 198.09 194.01 198.09 195.09V195.9C198.09 196.98 197.21 197.86 196.13 197.86H131.15C130.07 197.86 129.19 196.98 129.19 195.9V195.09C129.18 194.01 130.06 193.13 131.15 193.13Z" fill="#839299"/>
<path d="M82.8199 193.13H121.87C122.95 193.13 123.83 194.01 123.83 195.09V195.9C123.83 196.98 122.95 197.86 121.87 197.86H82.8199C81.7399 197.86 80.8599 196.98 80.8599 195.9V195.09C80.8599 194.01 81.7399 193.13 82.8199 193.13Z" fill="#839299"/>
<path d="M147.82 140C146.64 135.45 138.11 126.52 134.34 124.91C130.57 123.31 116 117.57 109.53 117.7C103.06 117.83 79.8701 132.52 79.8701 132.52L60.7301 126.78L53.8501 159.89L92.1401 170.97L126.22 181.78L146 176.24L162.94 165.73C162.94 165.73 141.81 143.3 145.72 146.64C149.63 149.97 151.6 154.55 147.82 140Z" fill="#FFBD86"/>
<path d="M104.84 140C106.02 135.45 114.55 126.52 118.32 124.91C122.09 123.31 136.66 117.57 143.13 117.7C149.6 117.83 172.79 132.52 172.79 132.52L191.93 126.78L198.81 159.89L166.82 169.71L134 136.42C134 136.42 121.83 139.46 117.92 142.79C114.01 146.14 101.07 154.55 104.84 140Z" fill="#FED2A4"/>
<path d="M167.6 176.58L166.82 177.33C165.14 178.94 162.43 178.89 160.8 177.22L153.47 169.69C151.85 168.02 151.89 165.34 153.58 163.73L154.36 162.98C156.04 161.37 158.75 161.42 160.38 163.09L167.71 170.62C169.34 172.29 169.29 174.97 167.6 176.58Z" fill="#FFBD86"/>
<path d="M157.64 180.04L156.86 180.79C155.18 182.4 152.47 182.35 150.84 180.68L144.59 174.271C142.97 172.601 143.01 169.92 144.7 168.31L145.48 167.56C147.16 165.95 149.87 166 151.5 167.67L157.75 174.081C159.38 175.751 159.33 178.43 157.64 180.04Z" fill="#FFBD86"/>
<path d="M147.37 183.18L146.59 183.93C144.91 185.54 142.2 185.49 140.57 183.82L135.74 178.86C134.12 177.19 134.16 174.51 135.85 172.9L136.63 172.15C138.31 170.54 141.02 170.59 142.65 172.26L147.48 177.22C149.11 178.89 149.06 181.57 147.37 183.18Z" fill="#FFBD86"/>
<path d="M136.8 185.93L136.02 186.68C134.34 188.29 131.63 188.24 130 186.57L127.1 183.59C125.48 181.92 125.52 179.24 127.21 177.63L127.99 176.88C129.67 175.27 132.38 175.32 134.01 176.99L136.91 179.97C138.54 181.64 138.49 184.32 136.8 185.93Z" fill="#FFBD86"/>
<path d="M84.76 176.58L85.54 177.33C87.22 178.94 89.93 178.89 91.56 177.22L98.89 169.69C100.51 168.02 100.47 165.34 98.78 163.73L98 162.98C96.32 161.37 93.61 161.42 91.98 163.09L84.65 170.62C83.03 172.29 83.08 174.97 84.76 176.58Z" fill="#FED2A4"/>
<path d="M94.7199 180.04L95.4999 180.79C97.1799 182.4 99.8899 182.35 101.52 180.68L107.77 174.271C109.39 172.601 109.35 169.92 107.66 168.31L106.88 167.56C105.2 165.95 102.49 166 100.86 167.67L94.6199 174.081C92.9899 175.751 93.0299 178.43 94.7199 180.04Z" fill="#FED2A4"/>
<path d="M104.99 183.18L105.77 183.93C107.45 185.54 110.16 185.49 111.79 183.82L116.62 178.86C118.24 177.19 118.2 174.51 116.51 172.9L115.73 172.15C114.05 170.54 111.34 170.59 109.71 172.26L104.88 177.22C103.26 178.89 103.31 181.57 104.99 183.18Z" fill="#FED2A4"/>
<path d="M115.56 185.93L116.34 186.68C118.02 188.29 120.73 188.24 122.36 186.57L125.26 183.59C126.88 181.92 126.84 179.24 125.15 177.63L124.37 176.88C122.69 175.27 119.98 175.32 118.35 176.99L115.45 179.97C113.83 181.64 113.87 184.32 115.56 185.93Z" fill="#FED2A4"/>
<path d="M67.38 126.821L58.96 165.401L47.52 162.111L55.47 123.181L67.38 126.821Z" fill="#F2F3F5"/>
<path d="M186.11 126.821L194.53 165.401L205.97 162.111L198.02 123.181L186.11 126.821Z" fill="#F2F3F5"/>
<path d="M256 103.99V148.99L206.27 163.23L205.67 163.4L205.38 162.27L203.25 153.91L196.88 128.86L195.76 124.43L195.62 123.91L195.25 122.44L206.27 119.09L256 103.99Z" fill="#0054A6"/>
<path opacity="0.19" d="M256 138.03V148.83L206.27 163.23L205.67 163.4L205.38 162.27L203.25 153.91L204.23 153.62L206.27 153L256 138.03Z" fill="#2D2F31"/>
<path d="M58.34 122.441L57.95 123.931L50.33 153.911L48.19 162.301L47.92 163.401L0 149.681V104.721L58.34 122.441Z" fill="#0054A6"/>
<path opacity="0.19" d="M50.33 153.91L48.19 162.3L47.92 163.4L0 149.53V138.76L49.26 153.58L50.33 153.91Z" fill="#2D2F31"/>
<path opacity="0.19" d="M193.67 161.46L168.45 163.39L134 136.42L166.82 169.7L193.67 161.46Z" fill="#2D2F31"/>
<path opacity="0.19" d="M157.79 174.18C152.1 169.32 147.01 163.9 142.53 157.91C148.22 162.75 153.31 168.19 157.79 174.18Z" fill="#2D2F31"/>
<path opacity="0.19" d="M147.73 177.531C142.55 173.221 137.97 168.341 134 162.891C139.18 167.191 143.76 172.091 147.73 177.531Z" fill="#2D2F31"/>
<path opacity="0.19" d="M137.19 180.47C132.66 176.85 128.73 172.66 125.41 167.91C129.94 171.52 133.87 175.72 137.19 180.47Z" fill="#2D2F31"/>
<path d="M45.4224 251.565H92.1924V242.625H45.4224V251.565Z" fill="#FFDD33"/>
<path d="M42.9868 242.628H89.7568V233.688H42.9868V242.628Z" fill="#FFDD33"/>
<path d="M46.2276 224.742H92.9976V215.802H46.2276V224.742Z" fill="#FFDD33"/>
<path d="M45.4224 206.847H92.1924V197.907H45.4224V206.847Z" fill="#FFDD33"/>
<path d="M43.5362 215.795H90.3062V206.855H43.5362V215.795Z" fill="#FFDD33"/>
<path d="M40.8067 233.68H87.5767V224.74H40.8067V233.68Z" fill="#FFDD33"/>
<g opacity="0.19">
<path d="M74.0153 251.566H85.9053V242.626H74.0153V251.566Z" fill="#2D2F31"/>
<path d="M48.6028 251.566H55.0728V242.626H48.6028V251.566Z" fill="#2D2F31"/>
<path d="M45.4224 251.571H92.1924V250.511H45.4224V251.571Z" fill="#2D2F31"/>
<path d="M71.5792 242.628H83.4692V233.688H71.5792V242.628Z" fill="#2D2F31"/>
<path d="M46.1672 242.628H52.6372V233.688H46.1672V242.628Z" fill="#2D2F31"/>
<path d="M42.9868 242.623H89.7568V241.563H42.9868V242.623Z" fill="#2D2F31"/>
<path d="M74.8302 224.743H86.7202V215.803H74.8302V224.743Z" fill="#2D2F31"/>
<path d="M49.4177 224.743H55.8877V215.803H49.4177V224.743Z" fill="#2D2F31"/>
<path d="M46.2276 224.737H92.9976V223.677H46.2276V224.737Z" fill="#2D2F31"/>
<path d="M74.0153 206.848H85.9053V197.908H74.0153V206.848Z" fill="#2D2F31"/>
<path d="M48.6028 206.848H55.0728V197.908H48.6028V206.848Z" fill="#2D2F31"/>
<path d="M45.4224 206.852H92.1924V205.792H45.4224V206.852Z" fill="#2D2F31"/>
<path d="M72.1295 215.795H84.0195V206.855H72.1295V215.795Z" fill="#2D2F31"/>
<path d="M46.717 215.795H53.187V206.855H46.717V215.795Z" fill="#2D2F31"/>
<path d="M43.5366 215.79H90.3066V214.73H43.5366V215.79Z" fill="#2D2F31"/>
<path d="M69.3996 233.681H81.2896V224.741H69.3996V233.681Z" fill="#2D2F31"/>
<path d="M43.987 233.681H50.457V224.741H43.987V233.681Z" fill="#2D2F31"/>
<path d="M40.8067 233.686H87.5767V232.626H40.8067V233.686Z" fill="#2D2F31"/>
</g>
<path d="M128.902 34.3574C131.501 20.7404 122.569 7.59457 108.952 4.99538C95.335 2.39619 82.1892 11.3279 79.59 24.9449C76.9909 38.5618 85.9225 51.7076 99.5395 54.3068C113.157 56.906 126.302 47.9743 128.902 34.3574Z" fill="#FFDD33"/>
<path opacity="0.19" d="M128.902 34.3574C131.501 20.7404 122.569 7.59457 108.952 4.99538C95.335 2.39619 82.1892 11.3279 79.59 24.9449C76.9909 38.5618 85.9225 51.7076 99.5395 54.3068C113.157 56.906 126.302 47.9743 128.902 34.3574Z" fill="#2D2F31"/>
<path d="M109.981 50.799C121.354 47.9297 128.249 36.3833 125.38 25.0094C122.51 13.6354 110.964 6.74107 99.5899 9.61036C88.216 12.4796 81.3216 24.0261 84.1909 35.4C87.0602 46.7739 98.6066 53.6683 109.981 50.799Z" fill="#FFDD33"/>
<path d="M107.15 28.4999C103.58 27.3999 101.92 26.5299 101.92 25.2799C101.92 24.2499 102.7 23.1199 105.46 23.1199C107.63 23.1199 109.31 23.5799 110.5 24.0399C111.25 24.3199 112.07 23.8999 112.28 23.1199L112.82 21.1399C113 20.4599 112.64 19.7499 111.99 19.5199C110.7 19.0599 109.08 18.6899 106.85 18.5899V16.5099C106.85 15.7699 106.25 15.1699 105.5 15.1699H104.15C103.4 15.1699 102.81 15.7699 102.81 16.5099V18.8299C98.1603 19.5799 95.4903 22.3699 95.4903 26.0299C95.4903 30.0799 98.7903 32.0799 103.39 33.3499C106.61 34.2099 107.95 35.0799 107.95 36.5299C107.95 38.1499 106.22 38.9299 103.9 38.9299C101.67 38.9299 99.5903 38.3699 97.9103 37.6699C97.1503 37.3599 96.2903 37.7499 96.0703 38.5499L95.4903 40.6999C95.3103 41.3399 95.6203 42.0199 96.2303 42.2799C97.9203 43.0199 100.3 43.5799 102.71 43.6799V45.9999C102.71 46.7399 103.31 47.3399 104.06 47.3399H105.41C106.16 47.3399 106.75 46.7399 106.75 45.9999V43.4199C111.79 42.6199 114.38 39.4799 114.38 35.9799C114.38 32.1599 112.27 30.0399 107.15 28.4999Z" fill="#FFDD33"/>
<g opacity="0.19">
<path d="M107.15 28.4999C103.58 27.3999 101.92 26.5299 101.92 25.2799C101.92 24.2499 102.7 23.1199 105.46 23.1199C107.63 23.1199 109.31 23.5799 110.5 24.0399C111.25 24.3199 112.07 23.8999 112.28 23.1199L112.82 21.1399C113 20.4599 112.64 19.7499 111.99 19.5199C110.7 19.0599 109.08 18.6899 106.85 18.5899V16.5099C106.85 15.7699 106.25 15.1699 105.5 15.1699H104.15C103.4 15.1699 102.81 15.7699 102.81 16.5099V18.8299C98.1603 19.5799 95.4903 22.3699 95.4903 26.0299C95.4903 30.0799 98.7903 32.0799 103.39 33.3499C106.61 34.2099 107.95 35.0799 107.95 36.5299C107.95 38.1499 106.22 38.9299 103.9 38.9299C101.67 38.9299 99.5903 38.3699 97.9103 37.6699C97.1503 37.3599 96.2903 37.7499 96.0703 38.5499L95.4903 40.6999C95.3103 41.3399 95.6203 42.0199 96.2303 42.2799C97.9203 43.0199 100.3 43.5799 102.71 43.6799V45.9999C102.71 46.7399 103.31 47.3399 104.06 47.3399H105.41C106.16 47.3399 106.75 46.7399 106.75 45.9999V43.4199C111.79 42.6199 114.38 39.4799 114.38 35.9799C114.38 32.1599 112.27 30.0399 107.15 28.4999Z" fill="#2D2F31"/>
</g>
</svg>
