<svg width="254" height="244" viewBox="0 0 254 244" fill="none" xmlns="http://www.w3.org/2000/svg">
<path d="M127 243.4C197.14 243.4 254 240.078 254 235.98C254 231.882 197.14 228.56 127 228.56C56.8598 228.56 0 231.882 0 235.98C0 240.078 56.8598 243.4 127 243.4Z" fill="#D2D9DC"/>
<path d="M98.8004 189.1H223.64C225.25 189.1 226.56 187.79 226.56 186.18V7.78035C226.56 6.17035 225.25 4.86035 223.64 4.86035H98.8004C97.1904 4.86035 95.8804 6.17035 95.8804 7.78035V186.18C95.8804 187.79 97.1904 189.1 98.8004 189.1Z" fill="#0054A6"/>
<path d="M219.04 13.25H103.4V172.92H219.04V13.25Z" fill="#D2D9DC"/>
<path d="M154.14 157.471H125.13C122.53 157.471 120.43 155.361 120.43 152.771V151.471C120.43 148.871 122.54 146.771 125.13 146.771H154.14C156.74 146.771 158.84 148.881 158.84 151.471V152.771C158.85 155.361 156.74 157.471 154.14 157.471Z" fill="#F9FAFB"/>
<path d="M197.3 157.471H173.9C171.3 157.471 169.2 155.361 169.2 152.771V151.471C169.2 148.871 171.31 146.771 173.9 146.771H197.3C199.9 146.771 202 148.881 202 151.471V152.771C202.01 155.361 199.9 157.471 197.3 157.471Z" fill="#F9FAFB"/>
<path opacity="0.72" d="M194.501 48.7196H144.431C143.251 48.7196 142.291 47.7596 142.291 46.5796V45.9896C142.291 44.8096 143.251 43.8496 144.431 43.8496H194.501C195.681 43.8496 196.641 44.8096 196.641 45.9896V46.5796C196.641 47.7596 195.681 48.7196 194.501 48.7196Z" fill="#F9FAFB"/>
<path opacity="0.72" d="M202.081 56.6093H144.431C143.251 56.6093 142.291 55.6493 142.291 54.4693V53.8793C142.291 52.6993 143.251 51.7393 144.431 51.7393H202.081C203.261 51.7393 204.221 52.6993 204.221 53.8793V54.4693C204.221 55.6493 203.261 56.6093 202.081 56.6093Z" fill="#F9FAFB"/>
<path d="M125.12 58.0799H127.02C130.83 58.0799 133.92 54.9899 133.92 51.1799V49.2799C133.92 45.4699 130.83 42.3799 127.02 42.3799H125.12C121.31 42.3799 118.22 45.4699 118.22 49.2799V51.1799C118.22 54.9899 121.31 58.0799 125.12 58.0799Z" fill="#54CC5A"/>
<path d="M125.54 54.0204L121.18 50.2304C120.82 49.9204 120.78 49.3804 121.1 49.0204C121.41 48.6604 121.95 48.6204 122.31 48.9404L125.39 51.6204L129.77 46.7204C130.09 46.3704 130.63 46.3404 130.98 46.6504C131.33 46.9704 131.36 47.5104 131.05 47.8604L125.54 54.0204Z" fill="#F9FAFB"/>
<path opacity="0.72" d="M181 70.9999H144.43C143.25 70.9999 142.29 70.0399 142.29 68.8599V68.2699C142.29 67.0899 143.25 66.1299 144.43 66.1299H181C182.18 66.1299 183.14 67.0899 183.14 68.2699V68.8599C183.14 70.0399 182.18 70.9999 181 70.9999Z" fill="#F9FAFB"/>
<path opacity="0.72" d="M190.39 78.8895H144.42C143.24 78.8895 142.28 77.9295 142.28 76.7495V76.1595C142.28 74.9795 143.24 74.0195 144.42 74.0195H190.39C191.57 74.0195 192.53 74.9795 192.53 76.1595V76.7495C192.54 77.9295 191.58 78.8895 190.39 78.8895Z" fill="#F9FAFB"/>
<path d="M125.12 80.3602H127.02C130.83 80.3602 133.92 77.2702 133.92 73.4602V71.5602C133.92 67.7502 130.83 64.6602 127.02 64.6602H125.12C121.31 64.6602 118.22 67.7502 118.22 71.5602V73.4602C118.22 77.2702 121.31 80.3602 125.12 80.3602Z" fill="#54CC5A"/>
<path d="M125.54 76.3L121.18 72.51C120.82 72.2 120.78 71.66 121.1 71.3C121.41 70.94 121.95 70.9 122.31 71.21L125.39 73.89L129.77 68.99C130.09 68.64 130.63 68.61 130.98 68.92C131.33 69.24 131.36 69.78 131.05 70.13L125.54 76.3Z" fill="#F9FAFB"/>
<path opacity="0.72" d="M199.421 93.2802H144.431C143.251 93.2802 142.291 92.3202 142.291 91.1402V90.5502C142.291 89.3702 143.251 88.4102 144.431 88.4102H199.421C200.601 88.4102 201.561 89.3702 201.561 90.5502V91.1402C201.561 92.3202 200.601 93.2802 199.421 93.2802Z" fill="#F9FAFB"/>
<path opacity="0.72" d="M194.501 101.17H144.431C143.251 101.17 142.291 100.21 142.291 99.0298V98.4398C142.291 97.2598 143.251 96.2998 144.431 96.2998H194.501C195.681 96.2998 196.641 97.2598 196.641 98.4398V99.0298C196.641 100.21 195.681 101.17 194.501 101.17Z" fill="#F9FAFB"/>
<path d="M125.12 102.64H127.02C130.83 102.64 133.92 99.5504 133.92 95.7404V93.8404C133.92 90.0304 130.83 86.9404 127.02 86.9404H125.12C121.31 86.9404 118.22 90.0304 118.22 93.8404V95.7404C118.22 99.5504 121.31 102.64 125.12 102.64Z" fill="#54CC5A"/>
<path d="M125.54 98.5802L121.18 94.7902C120.82 94.4802 120.78 93.9402 121.1 93.5802C121.41 93.2202 121.95 93.1803 122.31 93.4903L125.39 96.1702L129.77 91.2703C130.09 90.9203 130.63 90.8902 130.98 91.2002C131.33 91.5202 131.36 92.0603 131.05 92.4103L125.54 98.5802Z" fill="#F9FAFB"/>
<path opacity="0.72" d="M181 115.56H144.43C143.25 115.56 142.29 114.6 142.29 113.42V112.83C142.29 111.65 143.25 110.69 144.43 110.69H181C182.18 110.69 183.14 111.65 183.14 112.83V113.42C183.14 114.6 182.18 115.56 181 115.56Z" fill="#F9FAFB"/>
<path opacity="0.72" d="M168.99 123.45H144.42C143.24 123.45 142.28 122.49 142.28 121.31V120.72C142.28 119.54 143.24 118.58 144.42 118.58H168.99C170.17 118.58 171.13 119.54 171.13 120.72V121.31C171.14 122.49 170.18 123.45 168.99 123.45Z" fill="#F9FAFB"/>
<path d="M125.94 126.62H128C132.12 126.62 135.47 123.28 135.47 119.15V117.09C135.47 112.97 132.13 109.62 128 109.62H125.94C121.82 109.62 118.47 112.96 118.47 117.09V119.15C118.47 123.28 121.81 126.62 125.94 126.62Z" fill="#54CC5A"/>
<path d="M126.38 122.23L121.66 118.13C121.27 117.79 121.23 117.21 121.57 116.82C121.91 116.43 122.49 116.39 122.88 116.73L126.21 119.63L130.95 114.33C131.29 113.95 131.88 113.92 132.26 114.26C132.64 114.6 132.67 115.19 132.33 115.57L126.38 122.23Z" fill="#F9FAFB"/>
<path d="M144.1 32.8101H123.03C120.38 32.8101 118.22 30.6601 118.22 28.0001V26.6801C118.22 24.0301 120.37 21.8701 123.03 21.8701H144.1C146.75 21.8701 148.91 24.0201 148.91 26.6801V28.0001C148.9 30.6601 146.75 32.8101 144.1 32.8101Z" fill="#F9FAFB"/>
<path d="M199.421 32.8101H160.601C157.951 32.8101 155.791 30.6601 155.791 28.0001V26.6801C155.791 24.0301 157.941 21.8701 160.601 21.8701H199.421C202.071 21.8701 204.231 24.0201 204.231 26.6801V28.0001C204.221 30.6601 202.071 32.8101 199.421 32.8101Z" fill="#F9FAFB"/>
<path d="M181.71 17.2203H140.72C137.53 17.2203 134.94 14.6303 134.94 11.4403V9.85031C134.94 6.66031 137.53 4.07031 140.72 4.07031H181.71C184.9 4.07031 187.49 6.66031 187.49 9.85031V11.4403C187.49 14.6403 184.9 17.2203 181.71 17.2203Z" fill="#002548"/>
<path d="M170.12 4.86004H152.311C151.321 4.86004 150.521 4.06004 150.521 3.07004V2.58004C150.521 1.59004 151.321 0.790039 152.311 0.790039H170.12C171.11 0.790039 171.911 1.59004 171.911 2.58004V3.07004C171.911 4.06004 171.11 4.86004 170.12 4.86004Z" fill="#002548"/>
<path d="M163.96 214.66H29.2402C28.2502 214.66 27.4502 213.86 27.4502 212.87V126.36C27.4502 125.37 28.2502 124.57 29.2402 124.57H163.96C164.95 124.57 165.75 125.37 165.75 126.36V212.87C165.75 213.86 164.95 214.66 163.96 214.66Z" fill="#0054A6"/>
<path d="M163.26 126.87H29.9404V207.4H163.26V126.87Z" fill="#002548"/>
<path d="M35.5104 211.23C35.5104 212.1 34.7604 212.81 33.8404 212.81C32.9204 212.81 32.1704 212.1 32.1704 211.23C32.1704 210.36 32.9204 209.65 33.8404 209.65C34.7604 209.65 35.5104 210.36 35.5104 211.23Z" fill="#ED1C24"/>
<path d="M41.1203 211.23C41.1203 212.1 40.3703 212.81 39.4503 212.81C38.5303 212.81 37.7803 212.1 37.7803 211.23C37.7803 210.36 38.5303 209.65 39.4503 209.65C40.3703 209.65 41.1203 210.36 41.1203 211.23Z" fill="#FFDD33"/>
<path d="M46.7204 211.23C46.7204 212.1 45.9704 212.81 45.0504 212.81C44.1304 212.81 43.3804 212.1 43.3804 211.23C43.3804 210.36 44.1304 209.65 45.0504 209.65C45.9804 209.65 46.7204 210.36 46.7204 211.23Z" fill="#54CC5A"/>
<g opacity="0.2">
<path d="M100.15 131.811H36.0804C35.3104 131.811 34.6904 132.441 34.6904 133.211V171.341C34.6904 172.111 35.3104 172.741 36.0804 172.741H100.15C100.92 172.741 101.54 172.111 101.54 171.341V133.211C101.54 132.431 100.91 131.811 100.15 131.811Z" fill="black"/>
<path d="M154.581 175.941V138.861C154.581 134.981 151.511 131.841 147.721 131.841H135.451H120.381H112.371V131.851C112.211 131.831 112.041 131.811 111.871 131.811C110.041 131.811 108.561 133.311 108.561 135.161V140.831H115.181V140.341H115.191V179.221C115.191 181.721 117.081 183.761 119.471 183.941C119.451 183.951 119.431 183.951 119.411 183.961H119.831H148.651H151.391C155.301 183.961 158.471 181.141 158.471 177.651V175.951H154.581V175.941Z" fill="black"/>
<path d="M100.62 179.65H57.0404C56.5404 179.65 56.1304 180.06 56.1304 180.57V204.91C56.1304 205.42 56.5404 205.83 57.0404 205.83H100.62C101.12 205.83 101.53 205.42 101.53 204.91V180.57C101.54 180.06 101.13 179.65 100.62 179.65Z" fill="black"/>
</g>
<path d="M101.12 171.541H38.5C37.68 171.541 37.02 170.881 37.02 170.061V133.291C37.02 132.471 37.68 131.811 38.5 131.811H101.13C101.95 131.811 102.61 132.471 102.61 133.291V170.061C102.6 170.881 101.94 171.541 101.12 171.541Z" fill="white"/>
<path d="M44.8902 156.04H43.2002V168.18H44.8902V156.04Z" fill="#002548"/>
<path d="M48.5601 140.49H46.8701V168.18H48.5601V140.49Z" fill="#FFDD33"/>
<path d="M52.2203 150.521H50.5303V168.18H52.2203V150.521Z" fill="#0054A6"/>
<path d="M59.5606 140.49H57.8706V168.18H59.5606V140.49Z" fill="#002548"/>
<path d="M63.2305 156.04H61.5405V168.18H63.2305V156.04Z" fill="#FFDD33"/>
<path d="M66.9005 150.521H65.2104V168.18H66.9005V150.521Z" fill="#0054A6"/>
<path d="M74.2403 150.521H72.5503V168.18H74.2403V150.521Z" fill="#002548"/>
<path d="M77.9005 140.49H76.2104V168.18H77.9005V140.49Z" fill="#FFDD33"/>
<path d="M81.5704 135.16H79.8804V168.19H81.5704V135.16Z" fill="#0054A6"/>
<path d="M88.9102 145.479H87.2202V168.189H88.9102V145.479Z" fill="#002548"/>
<path d="M92.5801 139.76H90.8901V168.19H92.5801V139.76Z" fill="#FFDD33"/>
<path d="M96.2501 150.52H94.5601V168.18H96.2501V150.52Z" fill="#0054A6"/>
<path d="M98.9404 167.36H40.6704V168.19H98.9404V167.36Z" fill="#1D3856"/>
<path d="M113.24 131.84H121.1H135.88H147.92C151.64 131.84 154.65 134.89 154.65 138.65V176.53C154.65 179.78 152.05 182.42 148.83 182.42H120.55C118.04 182.42 116.01 180.36 116.01 177.82V140.08H113.24V131.84Z" fill="white"/>
<path d="M126.86 167.67H121.13C120.85 167.67 120.62 167.9 120.62 168.18V168.32C120.62 168.6 120.85 168.83 121.13 168.83H126.86C127.14 168.83 127.37 168.6 127.37 168.32V168.18C127.37 167.9 127.14 167.67 126.86 167.67Z" fill="#D2D9DC"/>
<path d="M132.3 167.67H128.9C128.62 167.67 128.39 167.9 128.39 168.18V168.32C128.39 168.6 128.62 168.83 128.9 168.83H132.3C132.58 168.83 132.81 168.6 132.81 168.32V168.18C132.8 167.9 132.58 167.67 132.3 167.67Z" fill="#D2D9DC"/>
<path d="M128.79 170.07H121.13C120.85 170.07 120.62 170.3 120.62 170.58V170.72C120.62 171 120.85 171.23 121.13 171.23H128.79C129.07 171.23 129.3 171 129.3 170.72V170.58C129.29 170.29 129.06 170.07 128.79 170.07Z" fill="#D2D9DC"/>
<path d="M135.87 170.07H130.77C130.49 170.07 130.26 170.3 130.26 170.58V170.72C130.26 171 130.49 171.23 130.77 171.23H135.87C136.15 171.23 136.38 171 136.38 170.72V170.58C136.38 170.29 136.15 170.07 135.87 170.07Z" fill="#D2D9DC"/>
<path d="M149.17 171.24H144.82C144.39 171.24 144.05 170.89 144.05 170.47V170.26C144.05 169.83 144.4 169.49 144.82 169.49H149.17C149.6 169.49 149.94 169.84 149.94 170.26V170.47C149.94 170.9 149.59 171.24 149.17 171.24Z" fill="#29478C"/>
<path d="M146.09 145.18H134.74C134.44 145.18 134.2 144.94 134.2 144.64V144.49C134.2 144.19 134.44 143.95 134.74 143.95H146.09C146.39 143.95 146.63 144.19 146.63 144.49V144.64C146.63 144.93 146.39 145.18 146.09 145.18Z" fill="#D2D9DC"/>
<path d="M149.39 148.24H134.74C134.44 148.24 134.2 148 134.2 147.7V147.55C134.2 147.25 134.44 147.01 134.74 147.01H149.39C149.69 147.01 149.93 147.25 149.93 147.55V147.7C149.93 148 149.69 148.24 149.39 148.24Z" fill="#D2D9DC"/>
<path d="M149.39 151.35H134.74C134.44 151.35 134.2 151.11 134.2 150.81V150.66C134.2 150.36 134.44 150.12 134.74 150.12H149.39C149.69 150.12 149.93 150.36 149.93 150.66V150.81C149.93 151.11 149.69 151.35 149.39 151.35Z" fill="#D2D9DC"/>
<path d="M125.42 176.35V174.65H158.47V176.3C158.47 179.68 155.36 182.42 151.52 182.42H120.14C123.18 181.7 125.42 179.26 125.42 176.35Z" fill="#839299"/>
<path d="M112.75 131.811C110.96 131.811 109.5 133.271 109.5 135.061V140.561H116V135.061C116 133.261 114.55 131.811 112.75 131.811Z" fill="#839299"/>
<path d="M122.92 149.16H120.91V152.91H122.92V149.16Z" fill="#1B4787"/>
<path d="M125.94 147.051H123.93V152.911H125.94V147.051Z" fill="#1B4787"/>
<path d="M128.96 145.36H126.95V152.91H128.96V145.36Z" fill="#1B4787"/>
<path d="M131.98 143.561H129.97V152.901H131.98V143.561Z" fill="#1B4787"/>
<path d="M122.63 149.16H120.62V152.91H122.63V149.16Z" fill="#28569B"/>
<path d="M125.65 147.051H123.64V152.911H125.65V147.051Z" fill="#28569B"/>
<path d="M128.67 145.36H126.66V152.91H128.67V145.36Z" fill="#28569B"/>
<path d="M131.69 143.561H129.68V152.901H131.69V143.561Z" fill="#28569B"/>
<path d="M143.63 157.24H134.88C134.55 157.24 134.28 156.97 134.28 156.64V156.47C134.28 156.14 134.55 155.87 134.88 155.87H143.63C143.96 155.87 144.23 156.14 144.23 156.47V156.64C144.23 156.97 143.96 157.24 143.63 157.24Z" fill="#D2D9DC"/>
<path d="M151.08 160.4H134.88C134.55 160.4 134.28 160.13 134.28 159.8V159.63C134.28 159.3 134.55 159.03 134.88 159.03H151.08C151.41 159.03 151.68 159.3 151.68 159.63V159.8C151.68 160.13 151.41 160.4 151.08 160.4Z" fill="#D2D9DC"/>
<path d="M148.55 163.73H134.83C134.52 163.73 134.27 163.48 134.27 163.17V163.02C134.27 162.71 134.52 162.46 134.83 162.46H148.56C148.87 162.46 149.11 162.71 149.11 163.01V163.16C149.11 163.48 148.86 163.73 148.55 163.73Z" fill="#D2D9DC"/>
<path d="M149.1 137.511H120.42V140.781H149.1V137.511Z" fill="#D2D9DC"/>
<path d="M101.77 203.67H58.87C58.41 203.67 58.04 203.3 58.04 202.84V179.08C58.04 178.62 58.41 178.25 58.87 178.25H101.77C102.23 178.25 102.6 178.62 102.6 179.08V202.84C102.6 203.29 102.23 203.67 101.77 203.67Z" fill="white"/>
<path d="M63.4603 184.701L61.9003 182.921C60.9303 183.971 60.3403 185.341 60.3403 186.851H62.7203C62.7203 186.051 63.0003 185.301 63.4603 184.701Z" fill="#002548"/>
<path d="M70.3303 186.851H72.7103C72.7103 185.341 72.1203 183.961 71.1503 182.921L69.5903 184.701C70.0603 185.301 70.3303 186.051 70.3303 186.851Z" fill="#FEE46F"/>
<path d="M63.8801 184.23C64.4901 183.66 65.3101 183.29 66.2101 183.22V180.94C64.7201 181.01 63.3801 181.59 62.3501 182.49L63.8801 184.23Z" fill="#0054A6"/>
<path d="M66.8403 180.94V183.22C67.7403 183.29 68.5603 183.66 69.1703 184.23L70.7003 182.48C69.6803 181.58 68.3303 181.01 66.8403 180.94Z" fill="#0054A6"/>
<path d="M69.5903 189.49L71.1503 191.27C72.1203 190.22 72.7103 188.85 72.7103 187.34H70.3303C70.3303 188.14 70.0603 188.89 69.5903 189.49Z" fill="#FEE46F"/>
<path d="M62.7203 187.33H60.3403C60.3403 188.84 60.9303 190.22 61.9003 191.26L63.4603 189.48C63.0003 188.89 62.7203 188.14 62.7203 187.33Z" fill="#002548"/>
<path d="M69.1703 189.95C68.5603 190.52 67.7403 190.89 66.8403 190.96V193.24C68.3303 193.17 69.6703 192.59 70.7003 191.69L69.1703 189.95Z" fill="#FEE46F"/>
<path d="M66.2101 193.25V190.97C65.3101 190.9 64.4901 190.53 63.8801 189.96L62.3501 191.71C63.3801 192.61 64.7201 193.18 66.2101 193.25Z" fill="#002548"/>
<path d="M77.2802 184.701L75.7202 182.921C74.7502 183.971 74.1602 185.341 74.1602 186.851H76.5402C76.5502 186.051 76.8202 185.301 77.2802 184.701Z" fill="#FEE46F"/>
<path d="M84.1599 186.851H86.5399C86.5399 185.341 85.9499 183.961 84.9799 182.921L83.4199 184.701C83.8799 185.301 84.1599 186.051 84.1599 186.851Z" fill="#0054A6"/>
<path d="M77.6999 184.23C78.3099 183.66 79.1299 183.29 80.0299 183.22V180.94C78.5399 181.01 77.1999 181.59 76.1699 182.49L77.6999 184.23Z" fill="#FEE46F"/>
<path d="M80.6699 180.94V183.22C81.5699 183.29 82.3899 183.66 82.9999 184.23L84.5299 182.48C83.4999 181.58 82.1499 181.01 80.6699 180.94Z" fill="#0054A6"/>
<path d="M83.4199 189.49L84.9799 191.27C85.9499 190.22 86.5399 188.85 86.5399 187.34H84.1599C84.1599 188.14 83.8799 188.89 83.4199 189.49Z" fill="#002548"/>
<path d="M76.5499 187.33H74.1699C74.1699 188.84 74.7599 190.22 75.7299 191.26L77.2899 189.48C76.8199 188.89 76.5499 188.14 76.5499 187.33Z" fill="#ED1C24"/>
<path d="M82.9999 189.95C82.3899 190.52 81.5699 190.89 80.6699 190.96V193.24C82.1599 193.17 83.4999 192.59 84.5299 191.69L82.9999 189.95Z" fill="#002548"/>
<path d="M80.0299 193.25V190.97C79.1299 190.9 78.3099 190.53 77.6999 189.96L76.1699 191.71C77.1999 192.61 78.5499 193.18 80.0299 193.25Z" fill="#002548"/>
<path d="M91.1102 184.701L89.5502 182.921C88.5802 183.971 87.9902 185.341 87.9902 186.851H90.3702C90.3702 186.051 90.6402 185.301 91.1102 184.701Z" fill="#ED1C24"/>
<path d="M97.9802 186.851H100.36C100.36 185.341 99.7702 183.961 98.8002 182.921L97.2402 184.701C97.7102 185.301 97.9802 186.051 97.9802 186.851Z" fill="#002548"/>
<path d="M91.53 184.23C92.14 183.66 92.96 183.29 93.86 183.22V180.94C92.37 181.01 91.03 181.59 90 182.49L91.53 184.23Z" fill="#ED1C24"/>
<path d="M94.4902 180.94V183.22C95.3902 183.29 96.2102 183.66 96.8202 184.23L98.3502 182.48C97.3202 181.58 95.9802 181.01 94.4902 180.94Z" fill="#002548"/>
<path d="M97.2402 189.49L98.8002 191.27C99.7702 190.22 100.36 188.85 100.36 187.34H97.9802C97.9802 188.14 97.7102 188.89 97.2402 189.49Z" fill="#FEE46F"/>
<path d="M90.3702 187.33H87.9902C87.9902 188.84 88.5802 190.22 89.5502 191.26L91.1102 189.48C90.6402 188.89 90.3702 188.14 90.3702 187.33Z" fill="#0054A6"/>
<path d="M96.8202 189.95C96.2102 190.52 95.3902 190.89 94.4902 190.96V193.24C95.9802 193.17 97.3202 192.59 98.3502 191.69L96.8202 189.95Z" fill="#FEE46F"/>
<path d="M93.86 193.25V190.97C92.96 190.9 92.14 190.53 91.53 189.96L90 191.7C91.03 192.61 92.37 193.18 93.86 193.25Z" fill="#0054A6"/>
<path d="M64.5401 196.53H60.7301C60.5201 196.53 60.3501 196.36 60.3501 196.15V196.04C60.3501 195.83 60.5201 195.66 60.7301 195.66H64.5401C64.7501 195.66 64.9201 195.83 64.9201 196.04V196.15C64.9201 196.35 64.7501 196.53 64.5401 196.53Z" fill="#F0D169"/>
<path d="M70.4403 198.54H60.7203C60.5103 198.54 60.3403 198.37 60.3403 198.16V198.05C60.3403 197.84 60.5103 197.67 60.7203 197.67H70.4403C70.6503 197.67 70.8203 197.84 70.8203 198.05V198.16C70.8303 198.36 70.6503 198.54 70.4403 198.54Z" fill="#D2D9DC"/>
<path d="M71.4101 200.721H60.7301C60.5201 200.721 60.3501 200.551 60.3501 200.341V200.231C60.3501 200.021 60.5201 199.851 60.7301 199.851H71.4101C71.6201 199.851 71.7901 200.021 71.7901 200.231V200.341C71.7901 200.551 71.6201 200.721 71.4101 200.721Z" fill="#D2D9DC"/>
<path d="M79.1602 196.53H75.3502C75.1402 196.53 74.9702 196.36 74.9702 196.15V196.04C74.9702 195.83 75.1402 195.66 75.3502 195.66H79.1602C79.3702 195.66 79.5402 195.83 79.5402 196.04V196.15C79.5402 196.35 79.3702 196.53 79.1602 196.53Z" fill="#002548"/>
<path d="M85.06 198.54H75.34C75.13 198.54 74.96 198.37 74.96 198.16V198.05C74.96 197.84 75.13 197.67 75.34 197.67H85.06C85.27 197.67 85.44 197.84 85.44 198.05V198.16C85.45 198.36 85.28 198.54 85.06 198.54Z" fill="#D2D9DC"/>
<path d="M86.0302 200.721H75.3502C75.1402 200.721 74.9702 200.551 74.9702 200.341V200.231C74.9702 200.021 75.1402 199.851 75.3502 199.851H86.0302C86.2402 199.851 86.4102 200.021 86.4102 200.231V200.341C86.4102 200.551 86.2402 200.721 86.0302 200.721Z" fill="#D2D9DC"/>
<path d="M92.98 196.53H89.17C88.96 196.53 88.79 196.36 88.79 196.15V196.04C88.79 195.83 88.96 195.66 89.17 195.66H92.98C93.19 195.66 93.36 195.83 93.36 196.04V196.15C93.37 196.35 93.2 196.53 92.98 196.53Z" fill="#002548"/>
<path d="M98.89 198.54H89.17C88.96 198.54 88.79 198.37 88.79 198.16V198.05C88.79 197.84 88.96 197.67 89.17 197.67H98.89C99.1 197.67 99.2701 197.84 99.2701 198.05V198.16C99.2701 198.36 99.1 198.54 98.89 198.54Z" fill="#D2D9DC"/>
<path d="M99.8501 200.721H89.17C88.96 200.721 88.79 200.551 88.79 200.341V200.231C88.79 200.021 88.96 199.851 89.17 199.851H99.8501C100.06 199.851 100.23 200.021 100.23 200.231V200.341C100.24 200.551 100.07 200.721 99.8501 200.721Z" fill="#D2D9DC"/>
<path d="M148.735 203.467L146.242 206.797L160.721 217.64L163.214 214.31L148.735 203.467Z" fill="#D2D9DC"/>
<path opacity="0.19" d="M148.75 203.46L150.24 204.58L149.47 205.6C148.89 206.37 149.05 207.46 149.82 208.04L161.41 216.72L160.73 217.63L146.25 206.79L148.75 203.46Z" fill="#2D2F31"/>
<path d="M121.04 209.47C129.87 216.08 142.39 214.28 149 205.45C155.61 196.62 153.82 184.1 144.98 177.49C136.15 170.88 123.63 172.68 117.02 181.51C110.41 190.34 112.21 202.86 121.04 209.47ZM121.02 184.5C125.98 177.88 135.37 176.53 141.99 181.49C148.61 186.45 149.96 195.84 145 202.46C140.04 209.08 130.65 210.43 124.03 205.47C117.41 200.51 116.06 191.12 121.02 184.5Z" fill="#D2D9DC"/>
<path opacity="0.19" d="M117.02 181.51C118.77 179.17 120.94 177.33 123.34 176C121.62 177.19 120.06 178.67 118.74 180.44C112.13 189.27 113.92 201.79 122.76 208.4C129.25 213.26 137.73 213.57 144.4 209.89C137.53 214.66 128.1 214.76 121.04 209.47C112.21 202.86 110.41 190.34 117.02 181.51Z" fill="#2D2F31"/>
<path opacity="0.19" d="M124.03 205.471C130.65 210.431 140.04 209.081 145 202.461C149.96 195.841 148.61 186.451 141.99 181.491C135.37 176.531 125.98 177.881 121.02 184.501C116.06 191.121 117.41 200.511 124.03 205.471Z" fill="#F9FAFB"/>
<path opacity="0.19" d="M145 202.461C149.96 195.841 148.61 186.451 141.99 181.491C140.52 180.391 138.91 179.621 137.25 179.131C139.21 179.591 141.12 180.441 142.84 181.731C149.49 186.711 150.84 196.141 145.86 202.791C141.44 208.691 133.53 210.411 127.15 207.251C133.35 209.891 140.78 208.091 145 202.461Z" fill="#2D2F31"/>
<path d="M155.23 212.84L157.08 210.37C158.29 208.76 160.57 208.43 162.17 209.63L186.23 227.65C187.84 228.85 188.16 231.13 186.96 232.75L185.11 235.22C183.9 236.83 181.62 237.16 180.02 235.96L155.96 217.94C154.35 216.73 154.03 214.45 155.23 212.84Z" fill="#0054A6"/>
<path opacity="0.19" d="M155.73 212.17C156.08 212.97 156.63 213.69 157.37 214.24L178.95 230.4C181.24 232.12 184.49 231.65 186.2 229.36L186.21 229.35C186.47 229 186.68 228.62 186.84 228.24C187.89 229.5 187.99 231.37 186.96 232.75L185.11 235.22C183.9 236.83 181.62 237.16 180.02 235.96L155.96 217.94C154.35 216.74 154.03 214.46 155.23 212.84L155.73 212.17Z" fill="#F9FAFB"/>
<path opacity="0.19" d="M127.69 203.591C128.17 204.321 129.15 204.521 129.88 204.051C130.61 203.571 130.81 202.591 130.33 201.861C129.85 201.131 128.87 200.931 128.14 201.411C127.41 201.881 127.21 202.861 127.69 203.591Z" fill="#F9FAFB"/>
<path opacity="0.19" d="M131.55 199.33C133.793 199.33 135.61 197.512 135.61 195.27C135.61 193.028 133.793 191.21 131.55 191.21C129.308 191.21 127.49 193.028 127.49 195.27C127.49 197.512 129.308 199.33 131.55 199.33Z" fill="#F9FAFB"/>
</svg>
