<svg width="254" height="223" viewBox="0 0 254 223" fill="none" xmlns="http://www.w3.org/2000/svg">
<path d="M127 222.53C197.14 222.53 254 219.208 254 215.11C254 211.012 197.14 207.69 127 207.69C56.8598 207.69 0 211.012 0 215.11C0 219.208 56.8598 222.53 127 222.53Z" fill="#D2D9DC"/>
<path d="M118.68 187.66H29.7599C27.2099 187.66 25.1499 185.6 25.1499 183.05V121.44C25.1499 118.89 27.2099 116.83 29.7599 116.83H118.68C121.23 116.83 123.29 118.89 123.29 121.44V183.05C123.29 185.6 121.23 187.66 118.68 187.66Z" fill="#0054A6"/>
<path d="M32.8899 124.49C32.0799 124.49 31.4199 123.83 31.4199 123.02V115.33C31.4199 114.52 32.0799 113.86 32.8899 113.86C33.6999 113.86 34.3599 114.52 34.3599 115.33V123.02C34.3699 123.83 33.7099 124.49 32.8899 124.49Z" fill="#002548"/>
<path d="M46.7801 123.971C45.9701 123.971 45.3101 123.311 45.3101 122.501V114.811C45.3101 114.001 45.9701 113.341 46.7801 113.341C47.5901 113.341 48.2501 114.001 48.2501 114.811V122.501C48.2501 123.311 47.5901 123.971 46.7801 123.971Z" fill="#002548"/>
<path d="M60.6599 124.49C59.8499 124.49 59.1899 123.83 59.1899 123.02V115.33C59.1899 114.52 59.8499 113.86 60.6599 113.86C61.4699 113.86 62.1299 114.52 62.1299 115.33V123.02C62.1299 123.83 61.4699 124.49 60.6599 124.49Z" fill="#002548"/>
<path d="M74.5398 124.471C73.7298 124.471 73.0698 123.811 73.0698 123.001V115.311C73.0698 114.501 73.7298 113.841 74.5398 113.841C75.3498 113.841 76.0098 114.501 76.0098 115.311V123.001C76.0198 123.811 75.3598 124.471 74.5398 124.471Z" fill="#002548"/>
<path d="M88.43 124.471C87.62 124.471 86.96 123.811 86.96 123.001V115.311C86.96 114.501 87.62 113.841 88.43 113.841C89.24 113.841 89.9 114.501 89.9 115.311V123.001C89.9 123.811 89.24 124.471 88.43 124.471Z" fill="#002548"/>
<path d="M102.31 123.97C101.5 123.97 100.84 123.31 100.84 123V115.31C100.84 113.99 101.5 113.33 102.31 113.33C103.12 113.33 103.78 113.99 103.78 114.8V122.49C103.79 123.31 103.13 123.97 102.31 123.97Z" fill="#002548"/>
<path d="M116.2 124.471C115.39 124.471 114.73 123.811 114.73 123.001V115.311C114.73 114.501 115.39 113.841 116.2 113.841C117.01 113.841 117.67 114.501 117.67 115.311V123.001C117.67 123.811 117.01 124.471 116.2 124.471Z" fill="#002548"/>
<path d="M117.07 184.87H30.8499C29.3799 184.87 28.1899 183.68 28.1899 182.21V131.94C28.1899 130.47 29.3799 129.28 30.8499 129.28H117.07C118.54 129.28 119.73 130.47 119.73 131.94V182.21C119.73 183.68 118.54 184.87 117.07 184.87Z" fill="white"/>
<path d="M220.58 103.951H68.6602C67.0202 103.951 65.7602 102.611 65.8502 100.971L70.9702 7.83059C71.0602 6.19059 72.4702 4.85059 74.1102 4.85059H226.03C227.67 4.85059 228.93 6.19059 228.84 7.83059L223.72 100.971C223.64 102.611 222.22 103.951 220.58 103.951Z" fill="#002548"/>
<path d="M156.68 20.7005H141.99C137.09 20.7005 133.31 16.7005 133.57 11.8105L133.72 9.09047C133.98 4.35047 138.08 0.480469 142.82 0.480469H157.5C162.4 0.480469 166.19 4.48047 165.92 9.38047L165.77 12.0905C165.52 16.8205 161.42 20.7005 156.68 20.7005Z" fill="#002548"/>
<path d="M170.05 215.931H165.34L152.39 2.55078H157.09L170.05 215.931Z" fill="#002548"/>
<path d="M134.73 215.931H139.43L152.39 2.55078H147.68L134.73 215.931Z" fill="#002548"/>
<path d="M219.78 103.951H67.8502C66.2102 103.951 64.9502 102.611 65.0402 100.971L70.1602 7.83059C70.2502 6.19059 71.6602 4.85059 73.3002 4.85059H225.22C226.86 4.85059 228.12 6.19059 228.03 7.83059L222.91 100.971C222.83 102.611 221.41 103.951 219.78 103.951Z" fill="#0054A6"/>
<path d="M70.2603 101.101C68.9503 101.101 67.9403 100.031 68.0103 98.7209L72.8803 10.0909C72.9503 8.78094 74.0803 7.71094 75.3903 7.71094H222.8C224.11 7.71094 225.12 8.78094 225.05 10.0909L220.18 98.7209C220.11 100.031 218.98 101.101 217.67 101.101H70.2603Z" fill="#002548"/>
<path opacity="0.19" d="M218.59 54.1207H174.22C173.1 54.1207 172.25 53.2207 172.31 52.1007L174.53 11.7607C174.54 11.6007 174.42 11.4707 174.26 11.4707C174.1 11.4707 173.97 11.6007 173.96 11.7607L171.74 52.1007C171.68 53.2207 170.72 54.1207 169.61 54.1207H123.5C122.38 54.1207 121.53 53.2207 121.59 52.1007L123.81 11.7607C123.82 11.6007 123.7 11.4707 123.54 11.4707C123.38 11.4707 123.25 11.6007 123.24 11.7607L121.02 52.1007C120.96 53.2207 120 54.1207 118.89 54.1207H74.5203C74.3603 54.1207 74.2303 54.2507 74.2203 54.4107C74.2103 54.5707 74.3303 54.7007 74.4903 54.7007H118.86C119.98 54.7007 120.83 55.6007 120.77 56.7207L118.55 97.0607C118.54 97.2207 118.66 97.3507 118.82 97.3507C118.98 97.3507 119.11 97.2207 119.12 97.0607L121.34 56.7207C121.4 55.6007 122.36 54.7007 123.47 54.7007H169.58C170.7 54.7007 171.55 55.6007 171.49 56.7207L169.27 97.0607C169.26 97.2207 169.38 97.3507 169.54 97.3507C169.7 97.3507 169.83 97.2207 169.84 97.0607L172.06 56.7207C172.12 55.6007 173.08 54.7007 174.19 54.7007H218.56C218.72 54.7007 218.85 54.5707 218.86 54.4107C218.87 54.2507 218.75 54.1207 218.59 54.1207Z" fill="#F9FAFB"/>
<path d="M146.24 18.7803H128.42L127.42 36.9103L145.22 37.3903L146.24 18.7803Z" fill="#002548"/>
<path d="M144.31 36.6102C138.35 36.3202 132.38 36.0302 126.42 35.7402C127.41 29.5802 128.03 23.4002 128.28 17.2402C134.28 17.5302 140.28 17.8202 146.27 18.1102C145.99 24.2702 145.34 30.4502 144.31 36.6102Z" fill="#ED1C24"/>
<path d="M167.73 30.8906L149.88 32.2506L150.28 50.3306L168.13 49.4406L167.73 30.8906Z" fill="#002548"/>
<path d="M167.16 48.7407C161.17 48.9107 155.17 49.0707 149.18 49.2407C149.7 43.0507 149.85 36.8707 149.63 30.7307C155.66 30.5607 161.69 30.3907 167.71 30.2207C167.9 36.3607 167.71 42.5407 167.16 48.7407Z" fill="#0054A6"/>
<path d="M115.61 63.8606L82.71 62.6006L79.75 91.8706L112.58 93.9006L115.61 63.8606Z" fill="#002548"/>
<path d="M110.94 92.5708C99.9502 91.6808 88.9602 90.7908 77.9702 89.9008C80.1802 80.0008 81.7002 70.0408 82.5402 60.0908C93.6002 60.9808 104.65 61.8808 115.7 62.7708C114.81 72.7208 113.22 82.6808 110.94 92.5708Z" fill="white"/>
<g opacity="0.19">
<path d="M81.7405 22.8809C80.7205 22.8809 79.9305 22.0509 79.9905 21.0309C80.0505 20.0109 80.9305 19.1709 81.9505 19.1709C82.9705 19.1709 83.7605 20.0009 83.7005 21.0309C83.6405 22.0409 82.7605 22.8809 81.7405 22.8809Z" fill="#F9FAFB"/>
<path d="M110.821 22.8809H87.9905C86.9705 22.8809 86.1805 22.0509 86.2405 21.0309C86.3005 20.0109 87.1805 19.1709 88.2005 19.1709H111.031C112.051 19.1709 112.841 20.0009 112.781 21.0309C112.721 22.0409 111.841 22.8809 110.821 22.8809Z" fill="#F9FAFB"/>
<path d="M81.3006 30.9705C80.2806 30.9705 79.4906 30.1405 79.5506 29.1205C79.6106 28.1005 80.4906 27.2705 81.5106 27.2705C82.5306 27.2705 83.3206 28.1005 83.2606 29.1205C83.2006 30.1305 82.3206 30.9705 81.3006 30.9705Z" fill="#F9FAFB"/>
<path d="M114.421 30.9705H87.5506C86.5306 30.9705 85.7406 30.1405 85.8006 29.1205C85.8606 28.1005 86.7406 27.2705 87.7606 27.2705H114.631C115.651 27.2705 116.441 28.1005 116.381 29.1205C116.321 30.1305 115.441 30.9705 114.421 30.9705Z" fill="#F9FAFB"/>
<path d="M80.8504 39.0606C79.8304 39.0606 79.0404 38.2306 79.1004 37.2006C79.1604 36.1806 80.0404 35.3506 81.0604 35.3506C82.0804 35.3506 82.8704 36.1806 82.8104 37.2006C82.7604 38.2206 81.8704 39.0606 80.8504 39.0606Z" fill="#F9FAFB"/>
<path d="M100.18 39.0606H87.1004C86.0804 39.0606 85.2904 38.2306 85.3504 37.2006C85.4104 36.1806 86.2904 35.3506 87.3104 35.3506H100.39C101.41 35.3506 102.2 36.1806 102.14 37.2006C102.08 38.2206 101.2 39.0606 100.18 39.0606Z" fill="#F9FAFB"/>
<path d="M112.29 47.1504H99.2102C98.1902 47.1504 97.4002 46.3204 97.4602 45.3004C97.5202 44.2804 98.4002 43.4404 99.4202 43.4404H112.5C113.52 43.4404 114.31 44.2704 114.25 45.3004C114.19 46.3104 113.31 47.1504 112.29 47.1504Z" fill="#F9FAFB"/>
<path d="M80.4104 47.1504C79.3904 47.1504 78.6004 46.3204 78.6604 45.3004C78.7204 44.2804 79.6004 43.4404 80.6204 43.4404C81.6404 43.4404 82.4304 44.2704 82.3704 45.3004C82.3104 46.3104 81.4304 47.1504 80.4104 47.1504Z" fill="#F9FAFB"/>
<path d="M92.6907 47.1504H86.6507C85.6307 47.1504 84.8407 46.3204 84.9007 45.3004C84.9607 44.2804 85.8407 43.4404 86.8607 43.4404H92.9007C93.9207 43.4404 94.7107 44.2704 94.6507 45.3004C94.6007 46.3104 93.7107 47.1504 92.6907 47.1504Z" fill="#F9FAFB"/>
</g>
<path d="M137.171 71.2207H128.321L127.101 93.3707H135.951L137.171 71.2207Z" fill="#0054A6"/>
<path d="M150.6 75.791H141.74L140.78 93.371H149.63L150.6 75.791Z" fill="#0054A6"/>
<path d="M164.92 63.9912H156.07L154.46 93.3712H163.31L164.92 63.9912Z" fill="#0054A6"/>
<path d="M130.29 83.7206C129.41 83.7206 128.53 83.7006 127.64 83.6506C126.09 83.5706 124.09 83.3806 122.28 82.5606C121.99 82.4306 121.86 82.0906 121.99 81.8106C122.12 81.5206 122.46 81.3906 122.74 81.5206C124.37 82.2506 126.24 82.4306 127.69 82.5106C138.31 83.0606 147.61 80.2906 156.98 73.8006C159.21 72.2506 162.54 69.3906 164.59 66.4206C164.77 66.1606 165.12 66.1006 165.38 66.2706C165.64 66.4506 165.71 66.8006 165.53 67.0606C163.4 70.1606 160.05 73.0506 157.63 74.7306C148.83 80.8306 140.08 83.7206 130.29 83.7206Z" fill="white"/>
<path d="M166.85 70.8009C166.78 70.8009 166.7 70.7909 166.63 70.7609C166.34 70.6409 166.2 70.3109 166.32 70.0109C167.13 68.0509 167.3 65.8509 166.81 63.8609C164.58 65.3609 162.21 66.6209 159.74 67.6109C159.45 67.7309 159.12 67.5909 159 67.2909C158.88 67.0009 159.02 66.6709 159.32 66.5509C161.95 65.4909 164.48 64.1109 166.82 62.4709C166.97 62.3709 167.15 62.3409 167.33 62.3909C167.5 62.4509 167.64 62.5809 167.69 62.7509C168.51 65.1809 168.4 67.9809 167.39 70.4309C167.28 70.6709 167.07 70.8009 166.85 70.8009Z" fill="white"/>
<path d="M213.46 48.9602H180.53C179.97 48.9602 179.46 48.7402 179.08 48.3402C178.7 47.9402 178.51 47.4202 178.54 46.8602L180.07 19.0202C180.13 17.8802 181.11 16.9502 182.25 16.9502H215.18C215.74 16.9502 216.25 17.1702 216.63 17.5702C217.01 17.9702 217.2 18.4902 217.17 19.0502L215.64 46.8902C215.58 48.0302 214.6 48.9602 213.46 48.9602ZM182.26 17.5202C181.42 17.5202 180.69 18.2102 180.65 19.0502L179.12 46.8902C179.1 47.2902 179.23 47.6702 179.5 47.9502C179.77 48.2302 180.13 48.3902 180.53 48.3902H213.46C214.3 48.3902 215.03 47.7002 215.07 46.8602L216.6 19.0202C216.62 18.6202 216.49 18.2402 216.22 17.9602C215.95 17.6802 215.59 17.5202 215.19 17.5202H182.26Z" fill="#0054A6"/>
<path d="M216.58 24.9404H180.05C179.89 24.9404 179.76 24.8104 179.76 24.6504C179.76 24.4904 179.89 24.3604 180.05 24.3604H216.58C216.74 24.3604 216.87 24.4904 216.87 24.6504C216.87 24.8104 216.74 24.9404 216.58 24.9404Z" fill="#0054A6"/>
<path d="M187.36 48.9597C187.35 48.9597 187.35 48.9597 187.34 48.9597C187.18 48.9497 187.06 48.8197 187.07 48.6597L188.39 24.6397C188.4 24.4797 188.53 24.3597 188.69 24.3697C188.85 24.3797 188.97 24.5097 188.96 24.6697L187.64 48.6897C187.64 48.8397 187.51 48.9597 187.36 48.9597Z" fill="#0054A6"/>
<path d="M212.4 27.79H192.57C192.41 27.79 192.28 27.66 192.28 27.5C192.28 27.34 192.41 27.21 192.57 27.21H212.4C212.56 27.21 212.69 27.34 212.69 27.5C212.69 27.66 212.56 27.79 212.4 27.79Z" fill="#0054A6"/>
<path d="M209.41 31.2997H192.37C192.21 31.2997 192.08 31.1697 192.08 31.0097C192.08 30.8497 192.21 30.7197 192.37 30.7197H209.41C209.57 30.7197 209.7 30.8497 209.7 31.0097C209.7 31.1697 209.57 31.2997 209.41 31.2997Z" fill="#0054A6"/>
<path d="M202.09 34.9101H192.17C192.01 34.9101 191.88 34.7801 191.88 34.6201C191.88 34.4601 192.01 34.3301 192.17 34.3301H202.09C202.25 34.3301 202.38 34.4601 202.38 34.6201C202.38 34.7801 202.25 34.9101 202.09 34.9101Z" fill="#0054A6"/>
<path d="M203.89 41.9599H191.79C191.63 41.9599 191.5 41.8299 191.5 41.6699C191.5 41.5099 191.63 41.3799 191.79 41.3799H203.89C204.05 41.3799 204.18 41.5099 204.18 41.6699C204.18 41.8299 204.05 41.9599 203.89 41.9599Z" fill="#0054A6"/>
<path d="M201.51 45.58H191.59C191.43 45.58 191.3 45.45 191.3 45.29C191.3 45.13 191.43 45 191.59 45H201.51C201.67 45 201.8 45.13 201.8 45.29C201.79 45.45 201.66 45.58 201.51 45.58Z" fill="#0054A6"/>
<path d="M207.31 45.58H204.13C203.97 45.58 203.84 45.45 203.84 45.29C203.84 45.13 203.97 45 204.13 45H207.31C207.47 45 207.6 45.13 207.6 45.29C207.6 45.45 207.47 45.58 207.31 45.58Z" fill="#0054A6"/>
<path d="M210.55 38.4101H191.98C191.82 38.4101 191.69 38.2801 191.69 38.1201C191.69 37.9601 191.82 37.8301 191.98 37.8301H210.55C210.71 37.8301 210.84 37.9601 210.84 38.1201C210.84 38.2801 210.71 38.4101 210.55 38.4101Z" fill="#0054A6"/>
<path d="M193.24 89.4607C188.94 89.4607 185.41 88.1907 183.22 85.8207C180.88 83.3007 179.91 79.3207 180.56 74.9307C180.96 72.2407 181.84 69.9807 183.18 68.2107C184.53 66.4407 186.47 64.9807 188.96 63.8707C194.46 61.4207 200.83 61.5107 205.99 64.1007C208.3 65.2607 209.75 66.7307 210.3 68.4607C210.39 68.7607 210.23 69.0807 209.93 69.1807C209.63 69.2707 209.31 69.1107 209.21 68.8107C208.76 67.3807 207.5 66.1407 205.48 65.1207C200.62 62.6807 194.62 62.6007 189.42 64.9107C187.1 65.9407 185.31 67.2807 184.08 68.9007C182.86 70.5107 182.05 72.5907 181.68 75.0907C181.08 79.1507 181.95 82.7706 184.05 85.0406C186.97 88.2006 191.81 88.4207 194.43 88.2807C199.31 88.0107 203.5 86.3106 206.24 83.4806C209.45 80.1807 210.34 75.2407 208.33 71.9907C207.94 71.3607 207.1 70.2907 205.87 70.1607C205.56 70.1307 205.33 69.8507 205.36 69.5407C205.39 69.2307 205.67 69.0007 205.98 69.0307C207.26 69.1607 208.43 70.0007 209.3 71.3907C211.58 75.0707 210.62 80.6107 207.06 84.2707C204.12 87.3007 199.65 89.1207 194.49 89.4107C194.08 89.4507 193.66 89.4607 193.24 89.4607Z" fill="#54CC5A"/>
<path d="M102.98 35.1207C95.15 34.1507 87.32 33.1907 79.48 32.2207C81.38 24.2607 82.79 16.2507 83.72 8.2207C91.6 9.1907 99.48 10.1607 107.36 11.1307C106.38 19.1607 104.92 27.1707 102.98 35.1207Z" fill="#0054A6"/>
<mask id="mask0_5442_10795" style="mask-type:luminance" maskUnits="userSpaceOnUse" x="28" y="129" width="92" height="56">
<path d="M116.77 184.761H31.1499C29.5099 184.761 28.1899 183.431 28.1899 181.801V132.141C28.1899 130.501 29.5199 129.181 31.1499 129.181H116.77C118.41 129.181 119.73 130.511 119.73 132.141V181.801C119.73 183.431 118.4 184.761 116.77 184.761Z" fill="white"/>
</mask>
<g mask="url(#mask0_5442_10795)">
<g opacity="0.19">
<path d="M106.83 207.411H85.3599V107.021H106.83V207.411ZM86.2099 206.561H105.99V107.861H86.2099V206.561Z" fill="black"/>
<path d="M65.72 207.411H44.25V107.021H65.72V207.411ZM45.09 206.561H64.87V107.861H45.09V206.561Z" fill="black"/>
</g>
</g>
<mask id="mask1_5442_10795" style="mask-type:luminance" maskUnits="userSpaceOnUse" x="28" y="129" width="92" height="56">
<path d="M116.77 184.761H31.1499C29.5099 184.761 28.1899 183.431 28.1899 181.801V132.141C28.1899 130.501 29.5199 129.181 31.1499 129.181H116.77C118.41 129.181 119.73 130.511 119.73 132.141V181.801C119.73 183.431 118.4 184.761 116.77 184.761Z" fill="white"/>
</mask>
<g mask="url(#mask1_5442_10795)">
<g opacity="0.19">
<path d="M123.26 188.231H22.8799V166.761H123.27V188.231H123.26ZM23.7199 187.391H122.42V167.611H23.7199V187.391Z" fill="black"/>
<path d="M123.26 167.63H22.8799V146.16H123.27V167.63H123.26ZM23.7199 166.79H122.42V147.01H23.7199V166.79Z" fill="black"/>
<path d="M123.26 147.12H22.8799V125.65H123.27V147.12H123.26ZM23.7199 146.27H122.42V126.49H23.7199V146.27Z" fill="black"/>
</g>
</g>
<path d="M57.5202 155.9H48.2402C47.8302 155.9 47.4902 155.56 47.4902 155.15V154.95C47.4902 154.54 47.8302 154.2 48.2402 154.2H57.5202C57.9302 154.2 58.2702 154.54 58.2702 154.95V155.15C58.2702 155.56 57.9402 155.9 57.5202 155.9Z" fill="#002548"/>
<path d="M59.47 158.52H48.25C47.84 158.52 47.5 158.18 47.5 157.77V157.57C47.5 157.16 47.84 156.82 48.25 156.82H59.47C59.88 156.82 60.22 157.16 60.22 157.57V157.77C60.22 158.18 59.88 158.52 59.47 158.52Z" fill="#002548"/>
<path d="M61.29 161.44H48.25C47.84 161.44 47.5 161.1 47.5 160.69V160.49C47.5 160.08 47.84 159.74 48.25 159.74H61.29C61.7 159.74 62.04 160.08 62.04 160.49V160.69C62.04 161.11 61.7 161.44 61.29 161.44Z" fill="#002548"/>
<path d="M58.23 164.371H48.3C47.86 164.371 47.5 164.011 47.5 163.571V163.361C47.5 162.921 47.86 162.561 48.3 162.561H58.23C58.67 162.561 59.03 162.921 59.03 163.361V163.571C59.03 164.011 58.67 164.371 58.23 164.371Z" fill="#002548"/>
<path d="M77.03 170.671H67.75C67.34 170.671 67 170.331 67 169.921V169.721C67 169.311 67.34 168.971 67.75 168.971H77.03C77.44 168.971 77.78 169.311 77.78 169.721V169.921C77.78 170.341 77.44 170.671 77.03 170.671Z" fill="#002548"/>
<path d="M78.9798 173.971H67.7598C67.3498 173.971 67.0098 173.631 67.0098 173.221V173.021C67.0098 172.611 67.3498 172.271 67.7598 172.271H78.9798C79.3898 172.271 79.7298 172.611 79.7298 173.021V173.221C79.7198 173.641 79.3898 173.971 78.9798 173.971Z" fill="#002548"/>
<path d="M77.3599 177.01H67.4299C66.9899 177.01 66.6299 176.65 66.6299 176.21V176C66.6299 175.56 66.9899 175.2 67.4299 175.2H77.3599C77.7999 175.2 78.1599 175.56 78.1599 176V176.21C78.1599 176.65 77.7999 177.01 77.3599 177.01Z" fill="#002548"/>
<path d="M41.46 173.64H30.23C29.82 173.64 29.48 173.3 29.48 172.89V172.69C29.48 172.28 29.82 171.94 30.23 171.94H41.45C41.86 171.94 42.2 172.28 42.2 172.69V172.89C42.21 173.31 41.87 173.64 41.46 173.64Z" fill="#0054A6"/>
<path d="M39.8399 176.68H29.9099C29.4699 176.68 29.1099 176.32 29.1099 175.88V175.67C29.1099 175.23 29.4699 174.87 29.9099 174.87H39.8399C40.2799 174.87 40.6399 175.23 40.6399 175.67V175.88C40.6399 176.32 40.2799 176.68 39.8399 176.68Z" fill="#0054A6"/>
<path d="M80.0198 132.93H68.7998C68.3898 132.93 68.0498 132.59 68.0498 132.18V131.98C68.0498 131.57 68.3898 131.23 68.7998 131.23H80.0198C80.4298 131.23 80.7698 131.57 80.7698 131.98V132.18C80.7698 132.59 80.4398 132.93 80.0198 132.93Z" fill="#002548"/>
<path d="M78.3999 135.97H68.4699C68.0299 135.97 67.6699 135.61 67.6699 135.17V134.96C67.6699 134.52 68.0299 134.16 68.4699 134.16H78.3999C78.8399 134.16 79.1999 134.52 79.1999 134.96V135.17C79.1999 135.61 78.8399 135.97 78.3999 135.97Z" fill="#002548"/>
<path d="M117.09 141.441L113.8 140.54L111.2 142.751L111.03 139.34L108.13 137.54L111.32 136.331L112.14 133.021L114.27 135.68L117.67 135.43L115.8 138.281L117.09 141.441Z" fill="#FFDD33"/>
<path d="M47.7702 126.33H39.3002C37.7202 126.33 36.4502 127.61 36.4502 129.18C36.4502 130.62 37.5102 131.8 38.8902 132C38.1002 134.61 38.1202 134.54 38.1202 134.54L40.9302 132.03H47.7802C49.3602 132.03 50.6302 130.75 50.6302 129.18C50.6302 127.61 49.3502 126.33 47.7702 126.33Z" fill="#54CC5A"/>
<path d="M41.9001 129.25C41.9001 129.74 41.5101 130.13 41.0201 130.13C40.5401 130.13 40.1401 129.74 40.1401 129.25C40.1401 128.76 40.5301 128.37 41.0201 128.37C41.5101 128.37 41.9001 128.77 41.9001 129.25Z" fill="white"/>
<path d="M44.3801 129.25C44.3801 129.74 43.9901 130.13 43.5001 130.13C43.0101 130.13 42.6201 129.74 42.6201 129.25C42.6201 128.76 43.0101 128.37 43.5001 128.37C43.9901 128.37 44.3801 128.77 44.3801 129.25Z" fill="white"/>
<path d="M46.7898 129.25C46.7898 129.74 46.3998 130.13 45.9098 130.13C45.4198 130.13 45.0298 129.74 45.0298 129.25C45.0298 128.76 45.4198 128.37 45.9098 128.37C46.3898 128.37 46.7898 128.77 46.7898 129.25Z" fill="white"/>
<path d="M55.7798 142.941C53.1998 142.941 51.0898 140.841 51.0898 138.251C51.0898 135.671 53.1898 133.561 55.7798 133.561C58.3598 133.561 60.4698 135.661 60.4698 138.251C60.4698 140.841 58.3698 142.941 55.7798 142.941ZM55.7798 134.411C53.6598 134.411 51.9398 136.131 51.9398 138.251C51.9398 140.371 53.6598 142.091 55.7798 142.091C57.8998 142.091 59.6199 140.371 59.6199 138.251C59.6299 136.131 57.8998 134.411 55.7798 134.411Z" fill="#54CC5A"/>
<path d="M62.0001 135.76C61.3201 135.51 60.3701 135.73 59.6801 135.9C58.9101 136.1 58.1701 136.5 57.5101 136.93C56.8401 137.37 56.2301 137.9 55.7201 138.53C55.6501 138.61 55.4501 138.96 55.3801 138.98C55.4801 138.95 55.1001 138.66 55.0001 138.56C54.6301 138.17 54.2901 137.77 53.9001 137.4C53.7601 137.27 53.5001 137.44 53.6201 137.62C53.8901 138.01 54.1901 138.38 54.4901 138.75C54.7401 139.06 54.9301 139.61 55.3201 139.77C55.6401 139.9 55.9301 139.72 56.1601 139.53C56.5201 139.22 56.8501 138.88 57.2401 138.59C57.9801 138.03 58.7501 137.57 59.6001 137.19C60.0301 137 60.4601 136.79 60.9101 136.63C61.3101 136.49 61.7101 136.42 62.0601 136.19C62.2301 136.06 62.1801 135.83 62.0001 135.76Z" fill="#54CC5A"/>
</svg>
