<svg width="420" height="280" viewBox="0 0 420 280" fill="none" xmlns="http://www.w3.org/2000/svg">
<g clip-path="url(#clip0_14658_11869)">
<path opacity="0.1" d="M75.6008 251.753C59.8211 241.604 42.8341 229.864 37.9262 211.756C35.3099 202.103 38.8138 189.057 48.69 187.478C57.9882 185.99 67.5329 195.665 75.9665 191.477C85.5425 186.721 85.2356 174.48 82.5717 165.838C80.7007 159.768 78.2305 153.884 75.2088 148.297C70.7439 140.042 65.0958 132.464 60.7709 124.136C56.446 115.807 53.4466 106.364 54.8774 97.0892C56.3082 87.8139 63.0881 78.9351 72.3365 77.3419C83.2134 75.4682 93.135 83.5456 100.62 91.6567C106.869 98.4271 114.217 107.98 123.752 110.093C133.445 112.242 142.128 102.171 145.609 94.0423C149.972 83.8564 149.837 72.3904 152.268 61.7067C155.004 49.683 159.233 32.9451 169.29 25.1152C177.786 18.5016 185.196 14.8062 196.416 16.8479C212.753 19.8204 217.503 36.78 220.239 50.8954C222.643 63.2949 223.221 78.0593 233.085 87.3956C236.202 90.3451 240.34 91.9585 244.469 93.1261C263.234 98.4338 280.093 78.8371 292.766 67.5509C297.598 63.2484 302.429 58.9459 307.26 54.6435C317.43 45.5866 325.648 33.303 340.154 30.7796C347.935 29.4261 357.125 33.2873 359.239 40.8999C362.354 52.1302 355.33 62.2449 347.852 69.9214C339.526 78.4692 331.754 87.0635 325.06 97.0399C322.155 101.369 319.349 106.767 321.417 111.552C322.615 114.327 325.289 116.246 328.145 117.233C335.071 119.626 339.219 118.12 345.804 116.35C351.222 114.894 356.559 114.535 360.685 119.038C374.488 134.105 344.696 151.012 336.558 159.26C333.012 162.854 329.235 166.968 329.122 172.015C328.932 180.529 339.515 185.561 347.899 184.06C360.296 181.84 368.975 171.374 381.959 177.863C391.51 182.637 391.598 196.772 388.59 205.576C386.056 212.993 381.18 219.375 375.946 225.208C362.725 239.942 346.813 252.011 330.442 263.142" fill="#839299"/>
<path d="M213.19 257.046C284.417 257.046 342.158 254.832 342.158 252.102C342.158 249.372 284.417 247.158 213.19 247.158C141.963 247.158 84.2227 249.372 84.2227 252.102C84.2227 254.832 141.963 257.046 213.19 257.046Z" fill="#0054A6"/>
<g opacity="0.1">
<path d="M86.9139 154.713C86.8456 150.989 83.6508 148.074 79.9251 148.074C69.6709 148.074 39.6269 148.074 29.3728 148.074C25.6471 148.074 22.4523 150.989 22.384 154.713C22.3145 158.509 25.3699 161.606 29.1488 161.606H65.2565L84.0265 173.481L78.9681 161.606H80.1485C83.928 161.606 86.9833 158.509 86.9139 154.713Z" fill="#002548"/>
</g>
<path d="M86.9139 152.572C86.8456 148.847 83.6508 145.933 79.9251 145.933C69.6709 145.933 39.6269 145.933 29.3728 145.933C25.6471 145.933 22.4523 148.848 22.384 152.572C22.3145 156.367 25.3699 159.465 29.1488 159.465H65.2565L84.0265 171.34L78.9681 159.465H80.1485C83.928 159.465 86.9833 156.367 86.9139 152.572Z" fill="#0054A6"/>
<path d="M32.4281 154.715L30.2441 155.863L30.6613 153.431L28.8945 151.709L31.3361 151.354L32.4281 149.142L33.5196 151.354L35.9612 151.709L34.1944 153.431L34.6116 155.863L32.4281 154.715Z" fill="#FFDD33"/>
<path d="M42.9744 154.715L40.791 155.863L41.2082 153.431L39.4414 151.709L41.883 151.354L42.9744 149.142L44.0664 151.354L46.5075 151.709L44.7412 153.431L45.1579 155.863L42.9744 154.715Z" fill="#FFDD33"/>
<path d="M53.5252 154.715L51.3418 155.863L51.759 153.431L49.9922 151.709L52.4338 151.354L53.5252 149.142L54.6172 151.354L57.0588 151.709L55.292 153.431L55.7092 155.863L53.5252 154.715Z" fill="#FFDD33"/>
<path d="M64.0721 154.715L61.8887 155.863L62.3053 153.431L60.5391 151.709L62.9801 151.354L64.0721 149.142L65.1641 151.354L67.6051 151.709L65.8389 153.431L66.2555 155.863L64.0721 154.715Z" fill="#FFDD33"/>
<path d="M74.2948 154.715L72.1113 155.863L72.5285 153.431L70.7617 151.709L73.2033 151.354L74.2948 149.142L75.3868 151.354L77.8284 151.709L76.0616 153.431L76.4788 155.863L74.2948 154.715Z" fill="#FFDD33"/>
<g opacity="0.1">
<path d="M323.664 79.1133C323.733 75.3887 326.927 72.4739 330.653 72.4739C340.907 72.4739 370.951 72.4739 381.205 72.4739C384.931 72.4739 388.126 75.3887 388.194 79.1133C388.264 82.9084 385.208 86.0063 381.429 86.0063H345.322L326.552 97.8811L331.61 86.0063H330.43C326.65 86.0063 323.595 82.9084 323.664 79.1133Z" fill="#002548"/>
</g>
<path d="M323.664 76.971C323.733 73.2459 326.927 70.3317 330.653 70.3317C340.907 70.3317 370.951 70.3317 381.205 70.3317C384.931 70.3317 388.126 73.2465 388.194 76.971C388.264 80.7656 385.208 83.8641 381.429 83.8641H345.322L326.552 95.7389L331.61 83.8641H330.43C326.65 83.8641 323.595 80.7656 323.664 76.971Z" fill="#0054A6"/>
<path d="M378.15 79.1138L380.334 80.2618L379.917 77.8302L381.684 76.1082L379.242 75.7532L378.15 73.5412L377.059 75.7532L374.617 76.1082L376.384 77.8302L375.967 80.2618L378.15 79.1138Z" fill="#FFDD33"/>
<path d="M367.604 79.1138L369.787 80.2618L369.37 77.8302L371.137 76.1082L368.695 75.7532L367.604 73.5412L366.512 75.7532L364.071 76.1082L365.837 77.8302L365.42 80.2618L367.604 79.1138Z" fill="#FFDD33"/>
<path d="M357.053 79.1138L359.236 80.2618L358.819 77.8302L360.586 76.1082L358.144 75.7532L357.053 73.5412L355.961 75.7532L353.519 76.1082L355.286 77.8302L354.869 80.2618L357.053 79.1138Z" fill="#FFDD33"/>
<path d="M346.506 79.1138L348.689 80.2618L348.273 77.8302L350.039 76.1082L347.598 75.7532L346.506 73.5412L345.414 75.7532L342.973 76.1082L344.739 77.8302L344.323 80.2618L346.506 79.1138Z" fill="#FFDD33"/>
<path d="M336.283 79.1138L338.467 80.2618L338.05 77.8302L339.816 76.1082L337.375 75.7532L336.283 73.5412L335.191 75.7532L332.75 76.1082L334.517 77.8302L334.099 80.2618L336.283 79.1138Z" fill="#FFDD33"/>
<path d="M307.223 218.333H108C104.758 218.333 102.129 215.704 102.129 212.462V91.5356C102.129 88.2932 104.758 85.6646 108 85.6646H307.223C310.465 85.6646 313.094 88.2932 313.094 91.5356V212.462C313.094 215.704 310.466 218.333 307.223 218.333Z" fill="#D7D8DC"/>
<path d="M313.094 198.348H102.129V71.55C102.129 68.3076 104.758 65.679 108 65.679H307.223C310.465 65.679 313.094 68.3076 313.094 71.55L313.094 198.348Z" fill="#494982"/>
<path d="M305.605 191.022V72.9557L109.243 72.9557L109.243 191.022L305.605 191.022Z" fill="#D4F9FF"/>
<path d="M305.749 72.98H109.387V83.1155H305.749V72.98Z" fill="#D7D8DC"/>
<path d="M118.519 78.7053C118.519 79.608 117.787 80.34 116.885 80.34C115.982 80.34 115.25 79.608 115.25 78.7053C115.25 77.8026 115.982 77.0707 116.885 77.0707C117.787 77.0707 118.519 77.802 118.519 78.7053Z" fill="#0054A6"/>
<path d="M126.429 78.7053C126.429 79.608 125.698 80.34 124.795 80.34C123.892 80.34 123.16 79.608 123.16 78.7053C123.16 77.8026 123.892 77.0707 124.795 77.0707C125.698 77.0707 126.429 77.802 126.429 78.7053Z" fill="#FFD417"/>
<path d="M134.34 78.7053C134.34 79.608 133.608 80.34 132.705 80.34C131.802 80.34 131.07 79.608 131.07 78.7053C131.07 77.8026 131.802 77.0707 132.705 77.0707C133.608 77.0707 134.34 77.802 134.34 78.7053Z" fill="#94C420"/>
<path d="M284.209 76.0158H140.984V80.3401H284.209V76.0158Z" fill="white"/>
<path d="M302.123 78.6037L298.152 76.311V80.8958L302.123 78.6037Z" fill="#494982"/>
<path d="M291.309 78.6037L295.279 76.311V80.8958L291.309 78.6037Z" fill="#494982"/>
<g opacity="0.05">
<path d="M166.63 105.258C163.897 105.258 161.66 107.494 161.66 110.228C161.66 112.961 163.897 115.198 166.63 115.198H246.218V105.258H166.63V105.258Z" fill="black"/>
<path d="M255.812 105.258H246.219V115.197H255.812C258.545 115.197 260.782 112.961 260.782 110.227C260.782 107.494 258.545 105.258 255.812 105.258Z" fill="black"/>
<path d="M254.174 109.834C254.174 110.942 253.275 111.841 252.167 111.841C251.059 111.841 250.16 110.942 250.16 109.834C250.16 108.726 251.059 107.827 252.167 107.827C253.275 107.827 254.174 108.726 254.174 109.834Z" stroke="black" stroke-width="0.548072" stroke-miterlimit="10"/>
<path d="M253.547 111.296L255.538 113.288" stroke="black" stroke-width="0.434336" stroke-miterlimit="10" stroke-linecap="round" stroke-linejoin="round"/>
</g>
<path d="M166.63 103.006C163.897 103.006 161.66 105.242 161.66 107.976C161.66 110.709 163.897 112.946 166.63 112.946H246.218V103.006H166.63Z" fill="white"/>
<path d="M255.812 103.006H246.219V112.945H255.812C258.545 112.945 260.782 110.708 260.782 107.975C260.782 105.242 258.545 103.006 255.812 103.006Z" fill="#69B9C5"/>
<path d="M252.167 109.589C253.276 109.589 254.174 108.69 254.174 107.582C254.174 106.473 253.276 105.575 252.167 105.575C251.059 105.575 250.16 106.473 250.16 107.582C250.16 108.69 251.059 109.589 252.167 109.589Z" stroke="white" stroke-width="0.548072" stroke-miterlimit="10"/>
<path d="M253.543 109.044L255.534 111.035" stroke="white" stroke-width="0.434336" stroke-miterlimit="10" stroke-linecap="round" stroke-linejoin="round"/>
<path d="M221.478 218.332H191.254V243.415H221.478V218.332Z" fill="#D7D8DC"/>
<path d="M221.478 218.332H191.254V226.386H221.478V218.332Z" fill="#ADACB2"/>
<path d="M249.734 250.694H165.09C165.09 246.674 168.348 243.415 172.368 243.415H242.456C246.476 243.415 249.734 246.674 249.734 250.694Z" fill="#ECEDEF"/>
<path d="M143.5 117.575H280.153" stroke="#6EC1CF" stroke-width="0.562968" stroke-miterlimit="10"/>
<path d="M153.211 122.204H270.442" stroke="#6EC1CF" stroke-width="0.562968" stroke-miterlimit="10"/>
<path d="M149.776 182.902C135.646 182.902 124.191 171.448 124.191 157.318C124.191 143.188 135.646 131.734 149.776 131.734C163.905 131.734 175.36 143.188 175.36 157.318C175.36 171.448 163.905 182.902 149.776 182.902Z" fill="white"/>
<path d="M190.606 99.0002V93.9952H192.356C192.705 93.9952 192.992 94.0555 193.219 94.176C193.445 94.295 193.614 94.4555 193.724 94.6575C193.835 94.8579 193.891 95.0803 193.891 95.3247C193.891 95.5397 193.852 95.7173 193.776 95.8574C193.701 95.9975 193.601 96.1083 193.478 96.1898C193.355 96.2713 193.223 96.3315 193.079 96.3706V96.4195C193.232 96.4293 193.386 96.4831 193.541 96.5808C193.696 96.6786 193.825 96.8187 193.93 97.0012C194.034 97.1836 194.086 97.4068 194.086 97.6708C194.086 97.9217 194.029 98.1473 193.915 98.3477C193.801 98.5481 193.621 98.707 193.375 98.8243C193.129 98.9416 192.809 99.0002 192.415 99.0002H190.606ZM191.212 98.4626H192.415C192.81 98.4626 193.092 98.386 193.258 98.2329C193.425 98.0781 193.509 97.8907 193.509 97.6708C193.509 97.5013 193.466 97.3449 193.38 97.2016C193.294 97.0565 193.171 96.9409 193.011 96.8545C192.851 96.7665 192.662 96.7226 192.444 96.7226H191.212V98.4626ZM191.212 96.1947H192.336C192.519 96.1947 192.683 96.1588 192.83 96.0871C192.978 96.0155 193.096 95.9144 193.182 95.7841C193.27 95.6538 193.314 95.5006 193.314 95.3247C193.314 95.1047 193.237 94.9182 193.084 94.765C192.931 94.6102 192.688 94.5328 192.356 94.5328H191.212V96.1947ZM196.529 99.0784C196.19 99.0784 195.893 98.9978 195.637 98.8365C195.383 98.6752 195.184 98.4496 195.04 98.1596C194.899 97.8695 194.828 97.5307 194.828 97.1429C194.828 96.7519 194.899 96.4106 195.04 96.1189C195.184 95.8273 195.383 95.6008 195.637 95.4395C195.893 95.2782 196.19 95.1976 196.529 95.1976C196.868 95.1976 197.164 95.2782 197.418 95.4395C197.674 95.6008 197.873 95.8273 198.015 96.1189C198.158 96.4106 198.23 96.7519 198.23 97.1429C198.23 97.5307 198.158 97.8695 198.015 98.1596C197.873 98.4496 197.674 98.6752 197.418 98.8365C197.164 98.9978 196.868 99.0784 196.529 99.0784ZM196.529 98.5603C196.786 98.5603 196.998 98.4944 197.164 98.3624C197.33 98.2304 197.453 98.0569 197.533 97.8418C197.613 97.6268 197.653 97.3938 197.653 97.1429C197.653 96.892 197.613 96.6582 197.533 96.4415C197.453 96.2248 197.33 96.0497 197.164 95.9161C196.998 95.7825 196.786 95.7157 196.529 95.7157C196.271 95.7157 196.06 95.7825 195.893 95.9161C195.727 96.0497 195.604 96.2248 195.524 96.4415C195.445 96.6582 195.405 96.892 195.405 97.1429C195.405 97.3938 195.445 97.6268 195.524 97.8418C195.604 98.0569 195.727 98.2304 195.893 98.3624C196.06 98.4944 196.271 98.5603 196.529 98.5603ZM200.635 99.0784C200.296 99.0784 199.999 98.9978 199.743 98.8365C199.489 98.6752 199.29 98.4496 199.147 98.1596C199.005 97.8695 198.934 97.5307 198.934 97.1429C198.934 96.7519 199.005 96.4106 199.147 96.1189C199.29 95.8273 199.489 95.6008 199.743 95.4395C199.999 95.2782 200.296 95.1976 200.635 95.1976C200.974 95.1976 201.271 95.2782 201.525 95.4395C201.78 95.6008 201.979 95.8273 202.121 96.1189C202.264 96.4106 202.336 96.7519 202.336 97.1429C202.336 97.5307 202.264 97.8695 202.121 98.1596C201.979 98.4496 201.78 98.6752 201.525 98.8365C201.271 98.9978 200.974 99.0784 200.635 99.0784ZM200.635 98.5603C200.893 98.5603 201.104 98.4944 201.271 98.3624C201.437 98.2304 201.56 98.0569 201.64 97.8418C201.719 97.6268 201.759 97.3938 201.759 97.1429C201.759 96.892 201.719 96.6582 201.64 96.4415C201.56 96.2248 201.437 96.0497 201.271 95.9161C201.104 95.7825 200.893 95.7157 200.635 95.7157C200.378 95.7157 200.166 95.7825 200 95.9161C199.834 96.0497 199.711 96.2248 199.631 96.4415C199.551 96.6582 199.511 96.892 199.511 97.1429C199.511 97.3938 199.551 97.6268 199.631 97.8418C199.711 98.0569 199.834 98.2304 200 98.3624C200.166 98.4944 200.378 98.5603 200.635 98.5603ZM203.754 97.6317L203.744 96.9181H203.862L205.504 95.2465H206.218L204.468 97.0158H204.419L203.754 97.6317ZM203.216 99.0002V93.9952H203.793V99.0002H203.216ZM205.602 99.0002L204.135 97.1429L204.546 96.7421L206.335 99.0002H205.602ZM212.942 93.9952V99.0002H212.356L209.629 95.0705H209.58V99.0002H208.974V93.9952H209.56L212.297 97.9347H212.346V93.9952H212.942ZM215.602 99.0784C215.263 99.0784 214.966 98.9978 214.71 98.8365C214.456 98.6752 214.257 98.4496 214.114 98.1596C213.972 97.8695 213.901 97.5307 213.901 97.1429C213.901 96.7519 213.972 96.4106 214.114 96.1189C214.257 95.8273 214.456 95.6008 214.71 95.4395C214.966 95.2782 215.263 95.1976 215.602 95.1976C215.941 95.1976 216.237 95.2782 216.492 95.4395C216.747 95.6008 216.946 95.8273 217.088 96.1189C217.231 96.4106 217.303 96.7519 217.303 97.1429C217.303 97.5307 217.231 97.8695 217.088 98.1596C216.946 98.4496 216.747 98.6752 216.492 98.8365C216.237 98.9978 215.941 99.0784 215.602 99.0784ZM215.602 98.5603C215.859 98.5603 216.071 98.4944 216.237 98.3624C216.404 98.2304 216.527 98.0569 216.606 97.8418C216.686 97.6268 216.726 97.3938 216.726 97.1429C216.726 96.892 216.686 96.6582 216.606 96.4415C216.527 96.2248 216.404 96.0497 216.237 95.9161C216.071 95.7825 215.859 95.7157 215.602 95.7157C215.345 95.7157 215.133 95.7825 214.967 95.9161C214.8 96.0497 214.677 96.2248 214.598 96.4415C214.518 96.6582 214.478 96.892 214.478 97.1429C214.478 97.3938 214.518 97.6268 214.598 97.8418C214.677 98.0569 214.8 98.2304 214.967 98.3624C215.133 98.4944 215.345 98.5603 215.602 98.5603ZM218.906 99.0002L217.762 95.2465H218.369L219.18 98.1204H219.219L220.021 95.2465H220.636L221.428 98.1107H221.467L222.279 95.2465H222.885L221.741 99.0002H221.174L220.353 96.1165H220.294L219.473 99.0002H218.906Z" fill="#494982"/>
<path d="M273.533 182.902C259.403 182.902 247.949 171.448 247.949 157.318C247.949 143.188 259.403 131.734 273.533 131.734C287.663 131.734 299.118 143.188 299.118 157.318C299.118 171.448 287.663 182.902 273.533 182.902Z" fill="white"/>
<g opacity="0.1">
<path d="M341.986 171.981L336.289 177.678L349.463 190.852L355.16 185.155L341.986 171.981Z" fill="black"/>
<path d="M396.811 226.422L390.733 232.5C389.657 233.576 387.911 233.576 386.834 232.5L349.21 194.875C348.133 193.798 348.133 192.053 349.21 190.976L355.287 184.899C356.364 183.822 358.11 183.822 359.186 184.899L396.811 222.523C397.887 223.6 397.887 225.346 396.811 226.422Z" fill="black"/>
<path d="M284.284 119.972C268.697 135.559 268.697 160.831 284.284 176.418C299.871 192.005 325.143 192.005 340.73 176.418C356.317 160.831 356.317 135.559 340.73 119.972C325.143 104.384 299.871 104.384 284.284 119.972ZM335.979 171.667C323.016 184.63 301.998 184.63 289.035 171.667C276.072 158.703 276.072 137.686 289.035 124.723C301.998 111.759 323.016 111.759 335.979 124.723C348.942 137.686 348.942 158.704 335.979 171.667Z" fill="black"/>
<path opacity="0.7" d="M319.43 142.301C324.566 140.146 326.982 134.236 324.828 129.1C322.673 123.964 316.763 121.548 311.627 123.703C306.491 125.858 304.075 131.768 306.23 136.903C308.385 142.039 314.295 144.456 319.43 142.301Z" fill="black"/>
</g>
<path d="M341.986 168.765L336.289 174.461L349.463 187.635L355.16 181.938L341.986 168.765Z" fill="#69B9C5"/>
<path d="M396.811 223.203L390.733 229.28C389.657 230.357 387.911 230.357 386.834 229.28L349.21 191.656C348.133 190.579 348.133 188.834 349.21 187.758L355.287 181.68C356.364 180.604 358.11 180.604 359.186 181.68L396.811 219.305C397.887 220.381 397.887 222.126 396.811 223.203Z" fill="#3C3C6B"/>
<path d="M284.284 116.753C268.697 132.34 268.697 157.612 284.284 173.199C299.871 188.786 325.143 188.786 340.73 173.199C356.317 157.612 356.317 132.34 340.73 116.753C325.143 101.165 299.871 101.165 284.284 116.753ZM335.979 168.448C323.016 181.411 301.998 181.411 289.035 168.448C276.072 155.484 276.072 134.467 289.035 121.504C301.998 108.54 323.016 108.54 335.979 121.504C348.942 134.467 348.942 155.484 335.979 168.448Z" fill="#3C3C6B"/>
<path opacity="0.7" d="M319.43 139.083C324.566 136.928 326.982 131.018 324.828 125.882C322.673 120.746 316.763 118.33 311.627 120.485C306.491 122.64 304.075 128.55 306.23 133.686C308.385 138.821 314.295 141.238 319.43 139.083Z" fill="white"/>
<g opacity="0.1">
<path d="M232.469 173.566H186.68C184.648 173.566 183 171.918 183 169.886V156.146C183 154.741 183.8 153.459 185.061 152.841L208.183 141.518C209.212 141.014 210.418 141.018 211.444 141.53L234.112 152.834C235.36 153.457 236.149 154.732 236.149 156.127V169.886C236.149 171.918 234.502 173.566 232.469 173.566Z" fill="#002548"/>
<path d="M185.578 168.584V157.944C185.578 157.017 186.11 156.173 186.946 155.774L208.769 145.342C209.431 145.026 210.201 145.029 210.86 145.351L232.222 155.769C233.049 156.172 233.573 157.011 233.573 157.93V168.584C233.573 169.912 232.497 170.989 231.168 170.989H187.983C186.654 170.989 185.578 169.912 185.578 168.584Z" fill="#002548"/>
<path d="M194.891 165.813V160.129H198.3V160.74H195.58V162.66H198.044V163.271H195.58V165.813H194.891ZM204.275 162.971C204.275 163.571 204.166 164.089 203.95 164.525C203.733 164.962 203.436 165.299 203.059 165.536C202.681 165.773 202.25 165.891 201.766 165.891C201.281 165.891 200.85 165.773 200.472 165.536C200.095 165.299 199.798 164.962 199.581 164.525C199.365 164.089 199.257 163.571 199.257 162.971C199.257 162.372 199.365 161.854 199.581 161.417C199.798 160.98 200.095 160.644 200.472 160.407C200.85 160.17 201.281 160.051 201.766 160.051C202.25 160.051 202.681 160.17 203.059 160.407C203.436 160.644 203.733 160.98 203.95 161.417C204.166 161.854 204.275 162.372 204.275 162.971ZM203.608 162.971C203.608 162.479 203.526 162.064 203.361 161.725C203.199 161.386 202.977 161.13 202.698 160.956C202.421 160.782 202.11 160.695 201.766 160.695C201.421 160.695 201.11 160.782 200.83 160.956C200.553 161.13 200.332 161.386 200.167 161.725C200.004 162.064 199.923 162.479 199.923 162.971C199.923 163.463 200.004 163.879 200.167 164.217C200.332 164.556 200.553 164.812 200.83 164.986C201.11 165.16 201.421 165.247 201.766 165.247C202.11 165.247 202.421 165.16 202.698 164.986C202.977 164.812 203.199 164.556 203.361 164.217C203.526 163.879 203.608 163.463 203.608 162.971ZM205.432 165.813V160.129H207.352C207.797 160.129 208.161 160.205 208.446 160.357C208.731 160.507 208.942 160.713 209.079 160.976C209.216 161.238 209.284 161.537 209.284 161.872C209.284 162.207 209.216 162.504 209.079 162.763C208.942 163.022 208.732 163.226 208.449 163.374C208.166 163.52 207.804 163.593 207.364 163.593H205.809V162.971H207.341C207.645 162.971 207.889 162.927 208.074 162.838C208.261 162.749 208.396 162.623 208.479 162.461C208.564 162.296 208.607 162.1 208.607 161.872C208.607 161.645 208.564 161.446 208.479 161.275C208.394 161.105 208.258 160.974 208.071 160.881C207.884 160.787 207.637 160.74 207.33 160.74H206.12V165.813H205.432ZM208.107 163.26L209.506 165.813H208.707L207.33 163.26H208.107ZM215.738 161.55C215.704 161.269 215.569 161.051 215.333 160.895C215.096 160.74 214.805 160.662 214.461 160.662C214.209 160.662 213.989 160.703 213.801 160.784C213.614 160.866 213.467 160.977 213.362 161.12C213.258 161.262 213.207 161.424 213.207 161.606C213.207 161.757 213.243 161.888 213.315 161.997C213.389 162.104 213.483 162.194 213.598 162.266C213.713 162.337 213.833 162.395 213.959 162.441C214.085 162.485 214.2 162.522 214.306 162.549L214.883 162.705C215.031 162.744 215.196 162.797 215.377 162.866C215.56 162.934 215.735 163.028 215.902 163.146C216.07 163.263 216.209 163.412 216.318 163.596C216.427 163.779 216.482 164.004 216.482 164.27C216.482 164.577 216.401 164.855 216.24 165.103C216.081 165.351 215.848 165.548 215.541 165.694C215.235 165.84 214.864 165.913 214.428 165.913C214.021 165.913 213.668 165.847 213.37 165.716C213.074 165.585 212.841 165.402 212.671 165.167C212.503 164.932 212.407 164.659 212.385 164.348H213.096C213.114 164.562 213.186 164.74 213.312 164.881C213.44 165.019 213.601 165.123 213.795 165.192C213.991 165.258 214.202 165.291 214.428 165.291C214.691 165.291 214.926 165.249 215.135 165.164C215.345 165.077 215.51 164.957 215.632 164.803C215.754 164.648 215.815 164.466 215.815 164.259C215.815 164.07 215.763 163.917 215.657 163.798C215.552 163.68 215.413 163.584 215.241 163.51C215.069 163.436 214.883 163.371 214.683 163.315L213.984 163.116C213.54 162.988 213.188 162.806 212.929 162.569C212.67 162.332 212.54 162.022 212.54 161.639C212.54 161.321 212.626 161.043 212.799 160.806C212.973 160.568 213.206 160.383 213.498 160.251C213.792 160.118 214.121 160.051 214.483 160.051C214.85 160.051 215.175 160.117 215.46 160.248C215.745 160.378 215.971 160.556 216.137 160.781C216.306 161.007 216.395 161.263 216.404 161.55H215.738ZM217.846 165.813H217.125L219.212 160.129H219.922L222.01 165.813H221.288L219.589 161.028H219.545L217.846 165.813ZM218.113 163.593H221.022V164.203H218.113V163.593ZM222.895 165.813V160.129H223.583V165.203H226.225V165.813H222.895ZM227.291 165.813V160.129H230.722V160.74H227.98V162.66H230.544V163.271H227.98V165.203H230.766V165.813H227.291Z" fill="#002548"/>
<path d="M222.016 158.102L209.816 150.895L204.488 154.043V150.54H201.516V155.799L197.617 158.102H222.016Z" fill="#002548"/>
</g>
<path d="M232.469 171.423H186.68C184.648 171.423 183 169.776 183 167.743V154.003C183 152.598 183.8 151.316 185.061 150.698L208.183 139.375C209.212 138.871 210.418 138.875 211.444 139.387L234.112 150.691C235.36 151.314 236.149 152.589 236.149 153.984V167.743C236.149 169.776 234.502 171.423 232.469 171.423Z" fill="#FFDD33"/>
<path d="M185.578 166.442V155.8C185.578 154.874 186.11 154.03 186.946 153.631L208.769 143.199C209.431 142.883 210.201 142.886 210.86 143.208L232.222 153.626C233.049 154.029 233.573 154.868 233.573 155.787V166.441C233.573 167.769 232.497 168.846 231.168 168.846H187.983C186.654 168.846 185.578 167.769 185.578 166.442Z" fill="#0054A6"/>
<path d="M193.688 164V158.316H195.609C196.055 158.316 196.419 158.396 196.702 158.557C196.987 158.716 197.198 158.932 197.335 159.204C197.472 159.476 197.541 159.779 197.541 160.114C197.541 160.449 197.472 160.754 197.335 161.028C197.2 161.301 196.991 161.52 196.708 161.683C196.425 161.843 196.062 161.924 195.62 161.924H194.243V161.313H195.598C195.903 161.313 196.148 161.261 196.333 161.155C196.518 161.05 196.652 160.907 196.736 160.728C196.821 160.546 196.863 160.342 196.863 160.114C196.863 159.887 196.821 159.683 196.736 159.504C196.652 159.324 196.517 159.184 196.331 159.082C196.144 158.978 195.896 158.926 195.587 158.926H194.377V164H193.688ZM198.561 164V159.737H199.193V160.381H199.238C199.316 160.17 199.456 159.999 199.66 159.867C199.863 159.736 200.093 159.67 200.348 159.67C200.396 159.67 200.456 159.671 200.528 159.673C200.601 159.675 200.655 159.678 200.692 159.681V160.348C200.67 160.342 200.619 160.334 200.539 160.323C200.462 160.31 200.379 160.303 200.292 160.303C200.085 160.303 199.9 160.347 199.737 160.434C199.576 160.519 199.449 160.637 199.354 160.789C199.262 160.939 199.216 161.11 199.216 161.302V164H198.561ZM203.071 164.089C202.686 164.089 202.348 163.997 202.058 163.814C201.769 163.631 201.543 163.375 201.38 163.045C201.219 162.716 201.139 162.331 201.139 161.891C201.139 161.447 201.219 161.059 201.38 160.728C201.543 160.397 201.769 160.139 202.058 159.956C202.348 159.773 202.686 159.681 203.071 159.681C203.456 159.681 203.792 159.773 204.081 159.956C204.371 160.139 204.597 160.397 204.758 160.728C204.921 161.059 205.002 161.447 205.002 161.891C205.002 162.331 204.921 162.716 204.758 163.045C204.597 163.375 204.371 163.631 204.081 163.814C203.792 163.997 203.456 164.089 203.071 164.089ZM203.071 163.5C203.363 163.5 203.604 163.425 203.792 163.276C203.981 163.126 204.121 162.929 204.211 162.684C204.302 162.44 204.347 162.176 204.347 161.891C204.347 161.606 204.302 161.34 204.211 161.094C204.121 160.848 203.981 160.649 203.792 160.497C203.604 160.346 203.363 160.27 203.071 160.27C202.778 160.27 202.538 160.346 202.349 160.497C202.16 160.649 202.021 160.848 201.93 161.094C201.839 161.34 201.794 161.606 201.794 161.891C201.794 162.176 201.839 162.44 201.93 162.684C202.021 162.929 202.16 163.126 202.349 163.276C202.538 163.425 202.778 163.5 203.071 163.5ZM206.002 165.599V159.737H206.635V160.414H206.713C206.761 160.34 206.827 160.246 206.913 160.131C207 160.014 207.124 159.911 207.284 159.82C207.447 159.728 207.668 159.681 207.945 159.681C208.304 159.681 208.62 159.771 208.894 159.951C209.168 160.13 209.382 160.385 209.535 160.714C209.689 161.043 209.766 161.432 209.766 161.88C209.766 162.331 209.689 162.722 209.535 163.054C209.382 163.383 209.169 163.638 208.897 163.82C208.625 163.999 208.311 164.089 207.956 164.089C207.682 164.089 207.463 164.043 207.298 163.953C207.134 163.86 207.007 163.756 206.918 163.639C206.829 163.521 206.761 163.423 206.713 163.345H206.657V165.599H206.002ZM206.646 161.868C206.646 162.19 206.693 162.474 206.788 162.721C206.882 162.965 207.02 163.156 207.201 163.295C207.383 163.432 207.605 163.5 207.867 163.5C208.141 163.5 208.37 163.428 208.553 163.284C208.738 163.138 208.877 162.942 208.969 162.696C209.064 162.448 209.111 162.172 209.111 161.868C209.111 161.569 209.064 161.299 208.972 161.058C208.881 160.816 208.743 160.624 208.558 160.484C208.375 160.341 208.145 160.27 207.867 160.27C207.601 160.27 207.377 160.337 207.196 160.472C207.014 160.606 206.877 160.793 206.785 161.033C206.692 161.272 206.646 161.55 206.646 161.868ZM212.552 164.089C212.142 164.089 211.787 163.998 211.489 163.817C211.193 163.634 210.965 163.378 210.804 163.051C210.645 162.721 210.565 162.338 210.565 161.902C210.565 161.465 210.645 161.08 210.804 160.747C210.965 160.412 211.189 160.151 211.475 159.965C211.764 159.776 212.101 159.681 212.486 159.681C212.708 159.681 212.927 159.718 213.143 159.792C213.36 159.866 213.557 159.987 213.735 160.153C213.912 160.318 214.054 160.536 214.159 160.808C214.265 161.08 214.317 161.415 214.317 161.813V162.09H211.031V161.524H213.651C213.651 161.284 213.603 161.069 213.507 160.88C213.413 160.692 213.278 160.543 213.102 160.434C212.928 160.324 212.723 160.27 212.486 160.27C212.225 160.27 211.999 160.335 211.808 160.464C211.62 160.592 211.474 160.758 211.373 160.964C211.271 161.169 211.22 161.389 211.22 161.624V162.002C211.22 162.324 211.276 162.597 211.387 162.82C211.499 163.042 211.656 163.212 211.856 163.328C212.055 163.443 212.288 163.5 212.552 163.5C212.724 163.5 212.88 163.476 213.019 163.428C213.159 163.378 213.28 163.304 213.382 163.206C213.484 163.106 213.563 162.982 213.618 162.834L214.251 163.012C214.184 163.227 214.072 163.415 213.915 163.578C213.758 163.739 213.563 163.865 213.332 163.956C213.101 164.044 212.841 164.089 212.552 164.089ZM215.314 164V159.737H215.947V160.381H215.991C216.069 160.17 216.209 159.999 216.413 159.867C216.616 159.736 216.846 159.67 217.101 159.67C217.149 159.67 217.209 159.671 217.282 159.673C217.354 159.675 217.408 159.678 217.445 159.681V160.348C217.423 160.342 217.372 160.334 217.293 160.323C217.215 160.31 217.133 160.303 217.046 160.303C216.838 160.303 216.653 160.347 216.491 160.434C216.33 160.519 216.202 160.637 216.108 160.789C216.015 160.939 215.969 161.11 215.969 161.302V164H215.314ZM220.343 159.737V160.292H218.134V159.737H220.343ZM218.778 158.716H219.433V162.779C219.433 162.964 219.459 163.103 219.513 163.195C219.569 163.286 219.639 163.347 219.724 163.378C219.811 163.408 219.903 163.423 219.999 163.423C220.071 163.423 220.13 163.419 220.176 163.412C220.223 163.402 220.26 163.395 220.287 163.389L220.421 163.978C220.376 163.994 220.314 164.011 220.235 164.028C220.155 164.046 220.054 164.056 219.932 164.056C219.747 164.056 219.566 164.016 219.388 163.936C219.212 163.857 219.066 163.735 218.95 163.573C218.835 163.41 218.778 163.204 218.778 162.956V158.716ZM221.75 165.599C221.639 165.599 221.54 165.589 221.453 165.571C221.366 165.554 221.306 165.538 221.273 165.521L221.439 164.944C221.598 164.984 221.739 164.999 221.861 164.988C221.983 164.977 222.091 164.922 222.186 164.824C222.282 164.728 222.37 164.572 222.45 164.355L222.572 164.022L220.995 159.737H221.706L222.882 163.134H222.927L224.104 159.737H224.814L223.005 164.622C222.923 164.842 222.822 165.024 222.702 165.168C222.582 165.315 222.442 165.423 222.283 165.493C222.126 165.563 221.948 165.599 221.75 165.599Z" fill="white"/>
<path d="M222.016 155.96L209.816 148.753L204.488 151.901V148.397H201.516V153.656L197.617 155.96H222.016Z" fill="white"/>
<path d="M143.355 118.887V120.932H140.465V182.192H159.575V120.932V115L143.355 118.887Z" fill="#6C57B4"/>
<path d="M140.465 121.705L159.575 125.598V121.705H140.465Z" fill="#0054A6"/>
<path d="M158.474 122.857H141.57V125.017H158.474V122.857Z" fill="#839299"/>
<path d="M156.723 125.017H158.474V122.857H146.121L156.723 125.017Z" fill="#D2D9DC"/>
<path d="M143.098 125.018H144.205L145.113 122.856H144.005L143.098 125.018Z" fill="#839299"/>
<path d="M152.148 125.018H153.044L153.951 122.856H153.056L152.148 125.018Z" fill="#839299"/>
<path d="M147.254 125.018H147.706L148.614 122.856H148.161L147.254 125.018Z" fill="#839299"/>
<path d="M153.504 125.018H153.956L154.864 122.856H154.411L153.504 125.018Z" fill="#839299"/>
<path d="M144.664 125.018H145.313L146.22 122.856H145.572L144.664 125.018Z" fill="#839299"/>
<path d="M148.613 125.018H149.262L150.17 122.856H149.521L148.613 125.018Z" fill="#839299"/>
<path d="M148 123.24L148.417 123.324L148.613 122.857H148.161L148 123.24Z" fill="#839299"/>
<path d="M149.254 123.495L149.851 123.617L150.17 122.857H149.522L149.254 123.495Z" fill="#839299"/>
<path d="M152.512 124.159L153.336 124.327L153.953 122.857H153.058L152.512 124.159Z" fill="#839299"/>
<path d="M153.758 124.413L154.175 124.498L154.863 122.857H154.411L153.758 124.413Z" fill="#839299"/>
<path d="M158.569 125.114H141.473V122.762H158.569V125.114ZM141.664 124.922H158.377V122.954H141.664V124.922Z" fill="#FEFEFE"/>
<path d="M160.212 120.932H139.828V121.705H160.212V120.932Z" fill="#0054A6"/>
<path d="M160.212 126.169H139.828V126.943H160.212V126.169Z" fill="#0054A6"/>
<path d="M140.465 126.942L159.575 130.836V126.942H140.465Z" fill="#0054A6"/>
<path d="M158.474 128.095H141.57V130.255H158.474V128.095Z" fill="#839299"/>
<path d="M156.723 130.255H158.474V128.095H146.121L156.723 130.255Z" fill="#D2D9DC"/>
<path d="M143.098 130.256H144.205L145.113 128.093H144.005L143.098 130.256Z" fill="#839299"/>
<path d="M152.148 130.256H153.044L153.951 128.093H153.056L152.148 130.256Z" fill="#839299"/>
<path d="M147.254 130.256H147.706L148.614 128.093H148.161L147.254 130.256Z" fill="#839299"/>
<path d="M153.504 130.256H153.956L154.864 128.093H154.411L153.504 130.256Z" fill="#839299"/>
<path d="M144.664 130.256H145.313L146.22 128.093H145.572L144.664 130.256Z" fill="#839299"/>
<path d="M148.613 130.256H149.262L150.17 128.093H149.521L148.613 130.256Z" fill="#839299"/>
<path d="M148 128.477L148.417 128.562L148.613 128.094H148.161L148 128.477Z" fill="#839299"/>
<path d="M149.254 128.733L149.851 128.854L150.17 128.094H149.522L149.254 128.733Z" fill="#839299"/>
<path d="M152.512 129.396L153.336 129.564L153.953 128.094H153.058L152.512 129.396Z" fill="#839299"/>
<path d="M153.758 129.651L154.175 129.735L154.863 128.094H154.411L153.758 129.651Z" fill="#839299"/>
<path d="M158.569 130.351H141.473V128H158.569V130.351ZM141.664 130.16H158.377V128.191H141.664V130.16Z" fill="#FEFEFE"/>
<path d="M160.212 131.407H139.828V132.18H160.212V131.407Z" fill="#0054A6"/>
<path d="M140.465 132.18L159.575 136.073V132.18H140.465Z" fill="#0054A6"/>
<path d="M158.474 133.333H141.57V135.493H158.474V133.333Z" fill="#839299"/>
<path d="M156.723 135.493H158.474V133.333H146.121L156.723 135.493Z" fill="#D2D9DC"/>
<path d="M143.098 135.494H144.205L145.113 133.331H144.005L143.098 135.494Z" fill="#839299"/>
<path d="M152.148 135.494H153.044L153.951 133.331H153.056L152.148 135.494Z" fill="#839299"/>
<path d="M147.254 135.494H147.706L148.614 133.331H148.161L147.254 135.494Z" fill="#839299"/>
<path d="M153.504 135.494H153.956L154.864 133.331H154.411L153.504 135.494Z" fill="#839299"/>
<path d="M144.664 135.494H145.313L146.22 133.331H145.572L144.664 135.494Z" fill="#839299"/>
<path d="M148.613 135.494H149.262L150.17 133.331H149.521L148.613 135.494Z" fill="#839299"/>
<path d="M148 133.715L148.417 133.8L148.613 133.332H148.161L148 133.715Z" fill="#839299"/>
<path d="M149.254 133.97L149.851 134.092L150.17 133.332H149.522L149.254 133.97Z" fill="#839299"/>
<path d="M152.512 134.634L153.336 134.802L153.953 133.332H153.058L152.512 134.634Z" fill="#839299"/>
<path d="M153.758 134.888L154.175 134.973L154.863 133.332H154.411L153.758 134.888Z" fill="#839299"/>
<path d="M158.569 135.589H141.473V133.237H158.569V135.589ZM141.664 135.398H158.377V133.429H141.664V135.398Z" fill="#FEFEFE"/>
<path d="M160.212 136.645H139.828V137.418H160.212V136.645Z" fill="#0054A6"/>
<path d="M140.465 137.418L159.575 141.311V137.418H140.465Z" fill="#0054A6"/>
<path d="M158.474 138.57H141.57V140.73H158.474V138.57Z" fill="#839299"/>
<path d="M156.723 140.73H158.474V138.57H146.121L156.723 140.73Z" fill="#D2D9DC"/>
<path d="M143.098 140.731H144.205L145.113 138.568H144.005L143.098 140.731Z" fill="#839299"/>
<path d="M152.148 140.731H153.044L153.951 138.568H153.056L152.148 140.731Z" fill="#839299"/>
<path d="M147.254 140.731H147.706L148.614 138.568H148.161L147.254 140.731Z" fill="#839299"/>
<path d="M153.504 140.731H153.956L154.864 138.568H154.411L153.504 140.731Z" fill="#839299"/>
<path d="M144.664 140.731H145.313L146.22 138.568H145.572L144.664 140.731Z" fill="#839299"/>
<path d="M148.613 140.731H149.262L150.17 138.568H149.521L148.613 140.731Z" fill="#839299"/>
<path d="M148 138.952L148.417 139.037L148.613 138.569H148.161L148 138.952Z" fill="#839299"/>
<path d="M149.254 139.208L149.851 139.329L150.17 138.569H149.522L149.254 139.208Z" fill="#839299"/>
<path d="M152.512 139.871L153.336 140.039L153.953 138.569H153.058L152.512 139.871Z" fill="#839299"/>
<path d="M153.758 140.125L154.175 140.21L154.863 138.569H154.411L153.758 140.125Z" fill="#839299"/>
<path d="M158.569 140.825H141.473V138.474H158.569V140.825ZM141.664 140.634H158.377V138.665H141.664V140.634Z" fill="#FEFEFE"/>
<path d="M160.212 141.882H139.828V142.656H160.212V141.882Z" fill="#0054A6"/>
<path d="M140.465 142.655L159.575 146.549V142.655H140.465Z" fill="#0054A6"/>
<path d="M158.474 143.807H141.57V145.967H158.474V143.807Z" fill="#839299"/>
<path d="M156.723 145.967H158.474V143.807H146.121L156.723 145.967Z" fill="#D2D9DC"/>
<path d="M143.098 145.968H144.205L145.113 143.806H144.005L143.098 145.968Z" fill="#839299"/>
<path d="M152.148 145.968H153.044L153.951 143.806H153.056L152.148 145.968Z" fill="#839299"/>
<path d="M147.254 145.968H147.706L148.614 143.806H148.161L147.254 145.968Z" fill="#839299"/>
<path d="M153.504 145.968H153.956L154.864 143.806H154.411L153.504 145.968Z" fill="#839299"/>
<path d="M144.664 145.968H145.313L146.22 143.806H145.572L144.664 145.968Z" fill="#839299"/>
<path d="M148.613 145.968H149.262L150.17 143.806H149.521L148.613 145.968Z" fill="#839299"/>
<path d="M148 144.19L148.417 144.275L148.613 143.807H148.161L148 144.19Z" fill="#839299"/>
<path d="M149.254 144.445L149.851 144.567L150.17 143.807H149.522L149.254 144.445Z" fill="#839299"/>
<path d="M152.512 145.109L153.336 145.277L153.953 143.807H153.058L152.512 145.109Z" fill="#839299"/>
<path d="M153.758 145.363L154.175 145.448L154.863 143.807H154.411L153.758 145.363Z" fill="#839299"/>
<path d="M158.569 146.063H141.473V143.711H158.569V146.063ZM141.664 145.871H158.377V143.903H141.664V145.871Z" fill="#FEFEFE"/>
<path d="M160.212 147.12H139.828V147.893H160.212V147.12Z" fill="#0054A6"/>
<path d="M140.465 147.893L159.575 151.787V147.893H140.465Z" fill="#0054A6"/>
<path d="M158.474 149.045H141.57V151.205H158.474V149.045Z" fill="#839299"/>
<path d="M156.723 151.205H158.474V149.045H146.121L156.723 151.205Z" fill="#D2D9DC"/>
<path d="M143.098 151.206H144.205L145.113 149.043H144.005L143.098 151.206Z" fill="#839299"/>
<path d="M152.148 151.206H153.044L153.951 149.043H153.056L152.148 151.206Z" fill="#839299"/>
<path d="M147.254 151.206H147.706L148.614 149.043H148.161L147.254 151.206Z" fill="#839299"/>
<path d="M153.504 151.206H153.956L154.864 149.043H154.411L153.504 151.206Z" fill="#839299"/>
<path d="M144.664 151.206H145.313L146.22 149.043H145.572L144.664 151.206Z" fill="#839299"/>
<path d="M148.613 151.206H149.262L150.17 149.043H149.521L148.613 151.206Z" fill="#839299"/>
<path d="M148 149.428L148.417 149.513L148.613 149.045H148.161L148 149.428Z" fill="#839299"/>
<path d="M149.254 149.683L149.851 149.805L150.17 149.045H149.522L149.254 149.683Z" fill="#839299"/>
<path d="M152.512 150.347L153.336 150.515L153.953 149.045H153.058L152.512 150.347Z" fill="#839299"/>
<path d="M153.758 150.601L154.175 150.686L154.863 149.045H154.411L153.758 150.601Z" fill="#839299"/>
<path d="M158.569 151.301H141.473V148.949H158.569V151.301ZM141.664 151.109H158.377V149.141H141.664V151.109Z" fill="#FEFEFE"/>
<path d="M160.212 152.357H139.828V153.131H160.212V152.357Z" fill="#0054A6"/>
<path d="M140.465 153.13L159.575 157.024V153.13H140.465Z" fill="#0054A6"/>
<path d="M158.474 154.283H141.57V156.443H158.474V154.283Z" fill="#839299"/>
<path d="M156.723 156.443H158.474V154.283H146.121L156.723 156.443Z" fill="#D2D9DC"/>
<path d="M143.098 156.444H144.205L145.113 154.281H144.005L143.098 156.444Z" fill="#839299"/>
<path d="M152.148 156.444H153.044L153.951 154.281H153.056L152.148 156.444Z" fill="#839299"/>
<path d="M147.254 156.444H147.706L148.614 154.281H148.161L147.254 156.444Z" fill="#839299"/>
<path d="M153.504 156.444H153.956L154.864 154.281H154.411L153.504 156.444Z" fill="#839299"/>
<path d="M144.664 156.444H145.313L146.22 154.281H145.572L144.664 156.444Z" fill="#839299"/>
<path d="M148.613 156.444H149.262L150.17 154.281H149.521L148.613 156.444Z" fill="#839299"/>
<path d="M148 154.665L148.417 154.75L148.613 154.282H148.161L148 154.665Z" fill="#839299"/>
<path d="M149.254 154.921L149.851 155.042L150.17 154.282H149.522L149.254 154.921Z" fill="#839299"/>
<path d="M152.512 155.584L153.336 155.752L153.953 154.282H153.058L152.512 155.584Z" fill="#839299"/>
<path d="M153.758 155.839L154.175 155.924L154.863 154.282H154.411L153.758 155.839Z" fill="#839299"/>
<path d="M158.569 156.538H141.473V154.187H158.569V156.538ZM141.664 156.347H158.377V154.378H141.664V156.347Z" fill="#FEFEFE"/>
<path d="M160.212 157.595H139.828V158.368H160.212V157.595Z" fill="#0054A6"/>
<path d="M140.465 158.368L159.575 162.262V158.368H140.465Z" fill="#0054A6"/>
<path d="M158.474 159.521H141.57V161.681H158.474V159.521Z" fill="#839299"/>
<path d="M156.723 161.681H158.474V159.521H146.121L156.723 161.681Z" fill="#D2D9DC"/>
<path d="M143.098 161.682H144.205L145.113 159.52H144.005L143.098 161.682Z" fill="#839299"/>
<path d="M152.148 161.682H153.044L153.951 159.52H153.056L152.148 161.682Z" fill="#839299"/>
<path d="M147.254 161.682H147.706L148.614 159.52H148.161L147.254 161.682Z" fill="#839299"/>
<path d="M153.504 161.682H153.956L154.864 159.52H154.411L153.504 161.682Z" fill="#839299"/>
<path d="M144.664 161.682H145.313L146.22 159.52H145.572L144.664 161.682Z" fill="#839299"/>
<path d="M148.613 161.682H149.262L150.17 159.52H149.521L148.613 161.682Z" fill="#839299"/>
<path d="M148 159.904L148.417 159.989L148.613 159.521H148.161L148 159.904Z" fill="#839299"/>
<path d="M149.254 160.159L149.851 160.281L150.17 159.521H149.522L149.254 160.159Z" fill="#839299"/>
<path d="M152.512 160.823L153.336 160.991L153.953 159.521H153.058L152.512 160.823Z" fill="#839299"/>
<path d="M153.758 161.077L154.175 161.162L154.863 159.521H154.411L153.758 161.077Z" fill="#839299"/>
<path d="M158.569 161.778H141.473V159.426H158.569V161.778ZM141.664 161.586H158.377V159.618H141.664V161.586Z" fill="#FEFEFE"/>
<path d="M160.212 162.833H139.828V163.606H160.212V162.833Z" fill="#0054A6"/>
<path d="M140.465 163.606L159.575 167.5V163.606H140.465Z" fill="#0054A6"/>
<path d="M158.474 164.758H141.57V166.918H158.474V164.758Z" fill="#839299"/>
<path d="M156.723 166.918H158.474V164.758H146.121L156.723 166.918Z" fill="#D2D9DC"/>
<path d="M143.098 166.92H144.205L145.113 164.757H144.005L143.098 166.92Z" fill="#839299"/>
<path d="M152.148 166.92H153.044L153.951 164.757H153.056L152.148 166.92Z" fill="#839299"/>
<path d="M147.254 166.92H147.706L148.614 164.757H148.161L147.254 166.92Z" fill="#839299"/>
<path d="M153.504 166.92H153.956L154.864 164.757H154.411L153.504 166.92Z" fill="#839299"/>
<path d="M144.664 166.92H145.313L146.22 164.757H145.572L144.664 166.92Z" fill="#839299"/>
<path d="M148.613 166.92H149.262L150.17 164.757H149.521L148.613 166.92Z" fill="#839299"/>
<path d="M148 165.141L148.417 165.226L148.613 164.759H148.161L148 165.141Z" fill="#839299"/>
<path d="M149.254 165.397L149.851 165.518L150.17 164.759H149.522L149.254 165.397Z" fill="#839299"/>
<path d="M152.512 166.06L153.336 166.229L153.953 164.759H153.058L152.512 166.06Z" fill="#839299"/>
<path d="M153.758 166.315L154.175 166.4L154.863 164.759H154.411L153.758 166.315Z" fill="#839299"/>
<path d="M158.569 167.014H141.473V164.662H158.569V167.014ZM141.664 166.823H158.377V164.854H141.664V166.823Z" fill="#FEFEFE"/>
<path d="M160.212 168.07H139.828V168.844H160.212V168.07Z" fill="#0054A6"/>
<path d="M140.465 168.844L159.575 172.737V168.844H140.465Z" fill="#0054A6"/>
<path d="M158.474 169.995H141.57V172.155H158.474V169.995Z" fill="#839299"/>
<path d="M156.723 172.156H158.474V169.996H146.121L156.723 172.156Z" fill="#D2D9DC"/>
<path d="M143.098 172.157H144.205L145.113 169.995H144.005L143.098 172.157Z" fill="#839299"/>
<path d="M152.148 172.157H153.044L153.951 169.995H153.056L152.148 172.157Z" fill="#839299"/>
<path d="M147.254 172.157H147.706L148.614 169.995H148.161L147.254 172.157Z" fill="#839299"/>
<path d="M153.504 172.157H153.956L154.864 169.995H154.411L153.504 172.157Z" fill="#839299"/>
<path d="M144.664 172.157H145.313L146.22 169.995H145.572L144.664 172.157Z" fill="#839299"/>
<path d="M148.613 172.157H149.262L150.17 169.995H149.521L148.613 172.157Z" fill="#839299"/>
<path d="M148 170.378L148.417 170.463L148.613 169.996H148.161L148 170.378Z" fill="#839299"/>
<path d="M149.254 170.634L149.851 170.755L150.17 169.996H149.522L149.254 170.634Z" fill="#839299"/>
<path d="M152.512 171.297L153.336 171.466L153.953 169.996H153.058L152.512 171.297Z" fill="#839299"/>
<path d="M153.758 171.552L154.175 171.637L154.863 169.996H154.411L153.758 171.552Z" fill="#839299"/>
<path d="M158.569 172.252H141.473V169.9H158.569V172.252ZM141.664 172.06H158.377V170.091H141.664V172.06Z" fill="#FEFEFE"/>
<path d="M160.212 173.308H139.828V174.081H160.212V173.308Z" fill="#0054A6"/>
<path d="M140.465 174.081L159.575 177.975V174.081H140.465Z" fill="#0054A6"/>
<path d="M158.474 175.234H141.57V177.394H158.474V175.234Z" fill="#839299"/>
<path d="M156.723 177.394H158.474V175.234H146.121L156.723 177.394Z" fill="#D2D9DC"/>
<path d="M143.098 177.395H144.205L145.113 175.232H144.005L143.098 177.395Z" fill="#839299"/>
<path d="M152.148 177.395H153.044L153.951 175.232H153.056L152.148 177.395Z" fill="#839299"/>
<path d="M147.254 177.395H147.706L148.614 175.232H148.161L147.254 177.395Z" fill="#839299"/>
<path d="M153.504 177.395H153.956L154.864 175.232H154.411L153.504 177.395Z" fill="#839299"/>
<path d="M144.664 177.395H145.313L146.22 175.232H145.572L144.664 177.395Z" fill="#839299"/>
<path d="M148.613 177.395H149.262L150.17 175.232H149.521L148.613 177.395Z" fill="#839299"/>
<path d="M148 175.616L148.417 175.701L148.613 175.234H148.161L148 175.616Z" fill="#839299"/>
<path d="M149.254 175.872L149.851 175.993L150.17 175.234H149.522L149.254 175.872Z" fill="#839299"/>
<path d="M152.512 176.535L153.336 176.703L153.953 175.234H153.058L152.512 176.535Z" fill="#839299"/>
<path d="M153.758 176.79L154.175 176.875L154.863 175.234H154.411L153.758 176.79Z" fill="#839299"/>
<path d="M158.569 177.489H141.473V175.138H158.569V177.489ZM141.664 177.298H158.377V175.33H141.664V177.298Z" fill="#FEFEFE"/>
<path d="M160.212 178.546H139.828V179.319H160.212V178.546Z" fill="#0054A6"/>
<path d="M266.527 116.887V118.932H263.637V180.192H282.747V118.932V113L266.527 116.887Z" fill="#6C57B4"/>
<path d="M263.637 119.705L282.747 123.598V119.705H263.637Z" fill="#0054A6"/>
<path d="M281.646 120.857H264.742V123.017H281.646V120.857Z" fill="#839299"/>
<path d="M279.895 123.017H281.646V120.857H269.293L279.895 123.017Z" fill="#D2D9DC"/>
<path d="M266.27 123.018H267.377L268.285 120.856H267.177L266.27 123.018Z" fill="#839299"/>
<path d="M275.32 123.018H276.216L277.123 120.856H276.228L275.32 123.018Z" fill="#839299"/>
<path d="M270.426 123.018H270.878L271.785 120.856H271.333L270.426 123.018Z" fill="#839299"/>
<path d="M276.676 123.018H277.128L278.035 120.856H277.583L276.676 123.018Z" fill="#839299"/>
<path d="M267.836 123.018H268.484L269.392 120.856H268.743L267.836 123.018Z" fill="#839299"/>
<path d="M271.785 123.018H272.434L273.341 120.856H272.693L271.785 123.018Z" fill="#839299"/>
<path d="M271.172 121.24L271.589 121.324L271.785 120.857H271.333L271.172 121.24Z" fill="#839299"/>
<path d="M272.426 121.495L273.023 121.617L273.342 120.857H272.693L272.426 121.495Z" fill="#839299"/>
<path d="M275.684 122.159L276.508 122.327L277.125 120.857H276.23L275.684 122.159Z" fill="#839299"/>
<path d="M276.93 122.413L277.346 122.498L278.035 120.857H277.583L276.93 122.413Z" fill="#839299"/>
<path d="M281.74 123.114H264.645V120.762H281.74V123.114ZM264.836 122.922H281.549V120.954H264.836V122.922Z" fill="#FEFEFE"/>
<path d="M283.384 118.932H263V119.705H283.384V118.932Z" fill="#0054A6"/>
<path d="M283.384 124.169H263V124.943H283.384V124.169Z" fill="#0054A6"/>
<path d="M263.637 124.942L282.747 128.836V124.942H263.637Z" fill="#0054A6"/>
<path d="M281.646 126.095H264.742V128.255H281.646V126.095Z" fill="#839299"/>
<path d="M279.895 128.255H281.646V126.095H269.293L279.895 128.255Z" fill="#D2D9DC"/>
<path d="M266.27 128.256H267.377L268.285 126.093H267.177L266.27 128.256Z" fill="#839299"/>
<path d="M275.32 128.256H276.216L277.123 126.093H276.228L275.32 128.256Z" fill="#839299"/>
<path d="M270.426 128.256H270.878L271.785 126.093H271.333L270.426 128.256Z" fill="#839299"/>
<path d="M276.676 128.256H277.128L278.035 126.093H277.583L276.676 128.256Z" fill="#839299"/>
<path d="M267.836 128.256H268.484L269.392 126.093H268.743L267.836 128.256Z" fill="#839299"/>
<path d="M271.785 128.256H272.434L273.341 126.093H272.693L271.785 128.256Z" fill="#839299"/>
<path d="M271.172 126.477L271.589 126.562L271.785 126.094H271.333L271.172 126.477Z" fill="#839299"/>
<path d="M272.426 126.733L273.023 126.854L273.342 126.094H272.693L272.426 126.733Z" fill="#839299"/>
<path d="M275.684 127.396L276.508 127.564L277.125 126.094H276.23L275.684 127.396Z" fill="#839299"/>
<path d="M276.93 127.651L277.346 127.735L278.035 126.094H277.583L276.93 127.651Z" fill="#839299"/>
<path d="M281.74 128.351H264.645V126H281.74V128.351ZM264.836 128.16H281.549V126.191H264.836V128.16Z" fill="#FEFEFE"/>
<path d="M283.384 129.407H263V130.18H283.384V129.407Z" fill="#0054A6"/>
<path d="M263.637 130.18L282.747 134.073V130.18H263.637Z" fill="#0054A6"/>
<path d="M281.646 131.333H264.742V133.493H281.646V131.333Z" fill="#839299"/>
<path d="M279.895 133.493H281.646V131.333H269.293L279.895 133.493Z" fill="#D2D9DC"/>
<path d="M266.27 133.494H267.377L268.285 131.331H267.177L266.27 133.494Z" fill="#839299"/>
<path d="M275.32 133.494H276.216L277.123 131.331H276.228L275.32 133.494Z" fill="#839299"/>
<path d="M270.426 133.494H270.878L271.785 131.331H271.333L270.426 133.494Z" fill="#839299"/>
<path d="M276.676 133.494H277.128L278.035 131.331H277.583L276.676 133.494Z" fill="#839299"/>
<path d="M267.836 133.494H268.484L269.392 131.331H268.743L267.836 133.494Z" fill="#839299"/>
<path d="M271.785 133.494H272.434L273.341 131.331H272.693L271.785 133.494Z" fill="#839299"/>
<path d="M271.172 131.715L271.589 131.8L271.785 131.332H271.333L271.172 131.715Z" fill="#839299"/>
<path d="M272.426 131.97L273.023 132.092L273.342 131.332H272.693L272.426 131.97Z" fill="#839299"/>
<path d="M275.684 132.634L276.508 132.802L277.125 131.332H276.23L275.684 132.634Z" fill="#839299"/>
<path d="M276.93 132.888L277.346 132.973L278.035 131.332H277.583L276.93 132.888Z" fill="#839299"/>
<path d="M281.74 133.589H264.645V131.237H281.74V133.589ZM264.836 133.398H281.549V131.429H264.836V133.398Z" fill="#FEFEFE"/>
<path d="M283.384 134.645H263V135.418H283.384V134.645Z" fill="#0054A6"/>
<path d="M263.637 135.418L282.747 139.311V135.418H263.637Z" fill="#0054A6"/>
<path d="M281.646 136.57H264.742V138.73H281.646V136.57Z" fill="#839299"/>
<path d="M279.895 138.73H281.646V136.57H269.293L279.895 138.73Z" fill="#D2D9DC"/>
<path d="M266.27 138.731H267.377L268.285 136.568H267.177L266.27 138.731Z" fill="#839299"/>
<path d="M275.32 138.731H276.216L277.123 136.568H276.228L275.32 138.731Z" fill="#839299"/>
<path d="M270.426 138.731H270.878L271.785 136.568H271.333L270.426 138.731Z" fill="#839299"/>
<path d="M276.676 138.731H277.128L278.035 136.568H277.583L276.676 138.731Z" fill="#839299"/>
<path d="M267.836 138.731H268.484L269.392 136.568H268.743L267.836 138.731Z" fill="#839299"/>
<path d="M271.785 138.731H272.434L273.341 136.568H272.693L271.785 138.731Z" fill="#839299"/>
<path d="M271.172 136.952L271.589 137.037L271.785 136.569H271.333L271.172 136.952Z" fill="#839299"/>
<path d="M272.426 137.208L273.023 137.329L273.342 136.569H272.693L272.426 137.208Z" fill="#839299"/>
<path d="M275.684 137.871L276.508 138.039L277.125 136.569H276.23L275.684 137.871Z" fill="#839299"/>
<path d="M276.93 138.125L277.346 138.21L278.035 136.569H277.583L276.93 138.125Z" fill="#839299"/>
<path d="M281.74 138.825H264.645V136.474H281.74V138.825ZM264.836 138.634H281.549V136.665H264.836V138.634Z" fill="#FEFEFE"/>
<path d="M283.384 139.882H263V140.656H283.384V139.882Z" fill="#0054A6"/>
<path d="M263.637 140.655L282.747 144.549V140.655H263.637Z" fill="#0054A6"/>
<path d="M281.646 141.807H264.742V143.967H281.646V141.807Z" fill="#839299"/>
<path d="M279.895 143.967H281.646V141.807H269.293L279.895 143.967Z" fill="#D2D9DC"/>
<path d="M266.27 143.968H267.377L268.285 141.806H267.177L266.27 143.968Z" fill="#839299"/>
<path d="M275.32 143.968H276.216L277.123 141.806H276.228L275.32 143.968Z" fill="#839299"/>
<path d="M270.426 143.968H270.878L271.785 141.806H271.333L270.426 143.968Z" fill="#839299"/>
<path d="M276.676 143.968H277.128L278.035 141.806H277.583L276.676 143.968Z" fill="#839299"/>
<path d="M267.836 143.968H268.484L269.392 141.806H268.743L267.836 143.968Z" fill="#839299"/>
<path d="M271.785 143.968H272.434L273.341 141.806H272.693L271.785 143.968Z" fill="#839299"/>
<path d="M271.172 142.19L271.589 142.275L271.785 141.807H271.333L271.172 142.19Z" fill="#839299"/>
<path d="M272.426 142.445L273.023 142.567L273.342 141.807H272.693L272.426 142.445Z" fill="#839299"/>
<path d="M275.684 143.109L276.508 143.277L277.125 141.807H276.23L275.684 143.109Z" fill="#839299"/>
<path d="M276.93 143.363L277.346 143.448L278.035 141.807H277.583L276.93 143.363Z" fill="#839299"/>
<path d="M281.74 144.063H264.645V141.711H281.74V144.063ZM264.836 143.871H281.549V141.903H264.836V143.871Z" fill="#FEFEFE"/>
<path d="M283.384 145.12H263V145.893H283.384V145.12Z" fill="#0054A6"/>
<path d="M263.637 145.893L282.747 149.787V145.893H263.637Z" fill="#0054A6"/>
<path d="M281.646 147.045H264.742V149.205H281.646V147.045Z" fill="#839299"/>
<path d="M279.895 149.205H281.646V147.045H269.293L279.895 149.205Z" fill="#D2D9DC"/>
<path d="M266.27 149.206H267.377L268.285 147.043H267.177L266.27 149.206Z" fill="#839299"/>
<path d="M275.32 149.206H276.216L277.123 147.043H276.228L275.32 149.206Z" fill="#839299"/>
<path d="M270.426 149.206H270.878L271.785 147.043H271.333L270.426 149.206Z" fill="#839299"/>
<path d="M276.676 149.206H277.128L278.035 147.043H277.583L276.676 149.206Z" fill="#839299"/>
<path d="M267.836 149.206H268.484L269.392 147.043H268.743L267.836 149.206Z" fill="#839299"/>
<path d="M271.785 149.206H272.434L273.341 147.043H272.693L271.785 149.206Z" fill="#839299"/>
<path d="M271.172 147.428L271.589 147.513L271.785 147.045H271.333L271.172 147.428Z" fill="#839299"/>
<path d="M272.426 147.683L273.023 147.805L273.342 147.045H272.693L272.426 147.683Z" fill="#839299"/>
<path d="M275.684 148.347L276.508 148.515L277.125 147.045H276.23L275.684 148.347Z" fill="#839299"/>
<path d="M276.93 148.601L277.346 148.686L278.035 147.045H277.583L276.93 148.601Z" fill="#839299"/>
<path d="M281.74 149.301H264.645V146.949H281.74V149.301ZM264.836 149.109H281.549V147.141H264.836V149.109Z" fill="#FEFEFE"/>
<path d="M283.384 150.357H263V151.131H283.384V150.357Z" fill="#0054A6"/>
<path d="M263.637 151.13L282.747 155.024V151.13H263.637Z" fill="#0054A6"/>
<path d="M281.646 152.283H264.742V154.443H281.646V152.283Z" fill="#839299"/>
<path d="M279.895 154.443H281.646V152.283H269.293L279.895 154.443Z" fill="#D2D9DC"/>
<path d="M266.27 154.444H267.377L268.285 152.281H267.177L266.27 154.444Z" fill="#839299"/>
<path d="M275.32 154.444H276.216L277.123 152.281H276.228L275.32 154.444Z" fill="#839299"/>
<path d="M270.426 154.444H270.878L271.785 152.281H271.333L270.426 154.444Z" fill="#839299"/>
<path d="M276.676 154.444H277.128L278.035 152.281H277.583L276.676 154.444Z" fill="#839299"/>
<path d="M267.836 154.444H268.484L269.392 152.281H268.743L267.836 154.444Z" fill="#839299"/>
<path d="M271.785 154.444H272.434L273.341 152.281H272.693L271.785 154.444Z" fill="#839299"/>
<path d="M271.172 152.665L271.589 152.75L271.785 152.282H271.333L271.172 152.665Z" fill="#839299"/>
<path d="M272.426 152.921L273.023 153.042L273.342 152.282H272.693L272.426 152.921Z" fill="#839299"/>
<path d="M275.684 153.584L276.508 153.752L277.125 152.282H276.23L275.684 153.584Z" fill="#839299"/>
<path d="M276.93 153.839L277.346 153.924L278.035 152.282H277.583L276.93 153.839Z" fill="#839299"/>
<path d="M281.74 154.538H264.645V152.187H281.74V154.538ZM264.836 154.347H281.549V152.378H264.836V154.347Z" fill="#FEFEFE"/>
<path d="M283.384 155.595H263V156.368H283.384V155.595Z" fill="#0054A6"/>
<path d="M263.637 156.368L282.747 160.262V156.368H263.637Z" fill="#0054A6"/>
<path d="M281.646 157.521H264.742V159.681H281.646V157.521Z" fill="#839299"/>
<path d="M279.895 159.681H281.646V157.521H269.293L279.895 159.681Z" fill="#D2D9DC"/>
<path d="M266.27 159.682H267.377L268.285 157.52H267.177L266.27 159.682Z" fill="#839299"/>
<path d="M275.32 159.682H276.216L277.123 157.52H276.228L275.32 159.682Z" fill="#839299"/>
<path d="M270.426 159.682H270.878L271.785 157.52H271.333L270.426 159.682Z" fill="#839299"/>
<path d="M276.676 159.682H277.128L278.035 157.52H277.583L276.676 159.682Z" fill="#839299"/>
<path d="M267.836 159.682H268.484L269.392 157.52H268.743L267.836 159.682Z" fill="#839299"/>
<path d="M271.785 159.682H272.434L273.341 157.52H272.693L271.785 159.682Z" fill="#839299"/>
<path d="M271.172 157.904L271.589 157.989L271.785 157.521H271.333L271.172 157.904Z" fill="#839299"/>
<path d="M272.426 158.159L273.023 158.281L273.342 157.521H272.693L272.426 158.159Z" fill="#839299"/>
<path d="M275.684 158.823L276.508 158.991L277.125 157.521H276.23L275.684 158.823Z" fill="#839299"/>
<path d="M276.93 159.077L277.346 159.162L278.035 157.521H277.583L276.93 159.077Z" fill="#839299"/>
<path d="M281.74 159.778H264.645V157.426H281.74V159.778ZM264.836 159.586H281.549V157.618H264.836V159.586Z" fill="#FEFEFE"/>
<path d="M283.384 160.833H263V161.606H283.384V160.833Z" fill="#0054A6"/>
<path d="M263.637 161.606L282.747 165.5V161.606H263.637Z" fill="#0054A6"/>
<path d="M281.646 162.758H264.742V164.918H281.646V162.758Z" fill="#839299"/>
<path d="M279.895 164.918H281.646V162.758H269.293L279.895 164.918Z" fill="#D2D9DC"/>
<path d="M266.27 164.92H267.377L268.285 162.757H267.177L266.27 164.92Z" fill="#839299"/>
<path d="M275.32 164.92H276.216L277.123 162.757H276.228L275.32 164.92Z" fill="#839299"/>
<path d="M270.426 164.92H270.878L271.785 162.757H271.333L270.426 164.92Z" fill="#839299"/>
<path d="M276.676 164.92H277.128L278.035 162.757H277.583L276.676 164.92Z" fill="#839299"/>
<path d="M267.836 164.92H268.484L269.392 162.757H268.743L267.836 164.92Z" fill="#839299"/>
<path d="M271.785 164.92H272.434L273.341 162.757H272.693L271.785 164.92Z" fill="#839299"/>
<path d="M271.172 163.141L271.589 163.226L271.785 162.759H271.333L271.172 163.141Z" fill="#839299"/>
<path d="M272.426 163.397L273.023 163.518L273.342 162.759H272.693L272.426 163.397Z" fill="#839299"/>
<path d="M275.684 164.06L276.508 164.229L277.125 162.759H276.23L275.684 164.06Z" fill="#839299"/>
<path d="M276.93 164.315L277.346 164.4L278.035 162.759H277.583L276.93 164.315Z" fill="#839299"/>
<path d="M281.74 165.014H264.645V162.662H281.74V165.014ZM264.836 164.823H281.549V162.854H264.836V164.823Z" fill="#FEFEFE"/>
<path d="M283.384 166.07H263V166.844H283.384V166.07Z" fill="#0054A6"/>
<path d="M263.637 166.844L282.747 170.737V166.844H263.637Z" fill="#0054A6"/>
<path d="M281.646 167.995H264.742V170.155H281.646V167.995Z" fill="#839299"/>
<path d="M279.895 170.156H281.646V167.996H269.293L279.895 170.156Z" fill="#D2D9DC"/>
<path d="M266.27 170.157H267.377L268.285 167.995H267.177L266.27 170.157Z" fill="#839299"/>
<path d="M275.32 170.157H276.216L277.123 167.995H276.228L275.32 170.157Z" fill="#839299"/>
<path d="M270.426 170.157H270.878L271.785 167.995H271.333L270.426 170.157Z" fill="#839299"/>
<path d="M276.676 170.157H277.128L278.035 167.995H277.583L276.676 170.157Z" fill="#839299"/>
<path d="M267.836 170.157H268.484L269.392 167.995H268.743L267.836 170.157Z" fill="#839299"/>
<path d="M271.785 170.157H272.434L273.341 167.995H272.693L271.785 170.157Z" fill="#839299"/>
<path d="M271.172 168.378L271.589 168.463L271.785 167.996H271.333L271.172 168.378Z" fill="#839299"/>
<path d="M272.426 168.634L273.023 168.755L273.342 167.996H272.693L272.426 168.634Z" fill="#839299"/>
<path d="M275.684 169.297L276.508 169.466L277.125 167.996H276.23L275.684 169.297Z" fill="#839299"/>
<path d="M276.93 169.552L277.346 169.637L278.035 167.996H277.583L276.93 169.552Z" fill="#839299"/>
<path d="M281.74 170.252H264.645V167.9H281.74V170.252ZM264.836 170.06H281.549V168.091H264.836V170.06Z" fill="#FEFEFE"/>
<path d="M283.384 171.308H263V172.081H283.384V171.308Z" fill="#0054A6"/>
<path d="M263.637 172.081L282.747 175.975V172.081H263.637Z" fill="#0054A6"/>
<path d="M281.646 173.234H264.742V175.394H281.646V173.234Z" fill="#839299"/>
<path d="M279.895 175.394H281.646V173.234H269.293L279.895 175.394Z" fill="#D2D9DC"/>
<path d="M266.27 175.395H267.377L268.285 173.232H267.177L266.27 175.395Z" fill="#839299"/>
<path d="M275.32 175.395H276.216L277.123 173.232H276.228L275.32 175.395Z" fill="#839299"/>
<path d="M270.426 175.395H270.878L271.785 173.232H271.333L270.426 175.395Z" fill="#839299"/>
<path d="M276.676 175.395H277.128L278.035 173.232H277.583L276.676 175.395Z" fill="#839299"/>
<path d="M267.836 175.395H268.484L269.392 173.232H268.743L267.836 175.395Z" fill="#839299"/>
<path d="M271.785 175.395H272.434L273.341 173.232H272.693L271.785 175.395Z" fill="#839299"/>
<path d="M271.172 173.616L271.589 173.701L271.785 173.234H271.333L271.172 173.616Z" fill="#839299"/>
<path d="M272.426 173.872L273.023 173.993L273.342 173.234H272.693L272.426 173.872Z" fill="#839299"/>
<path d="M275.684 174.535L276.508 174.703L277.125 173.234H276.23L275.684 174.535Z" fill="#839299"/>
<path d="M276.93 174.79L277.346 174.875L278.035 173.234H277.583L276.93 174.79Z" fill="#839299"/>
<path d="M281.74 175.489H264.645V173.138H281.74V175.489ZM264.836 175.298H281.549V173.33H264.836V175.298Z" fill="#FEFEFE"/>
<path d="M283.384 176.546H263V177.319H283.384V176.546Z" fill="#0054A6"/>
<g opacity="0.1">
<path d="M149.527 247.921C156.426 253.032 166.162 251.583 171.273 244.684C175.425 239.08 175.248 231.604 171.337 226.256L178.356 216.782L178.832 213.668L180.335 214.111L185.701 206.868L184.944 204.257L188.915 202.529L190.451 200.456L190.753 196.416L193.945 195.741L193.923 192.343C193.919 191.684 193.706 191.095 193.375 190.595L168.926 223.597L168.036 222.938L192.614 189.763C191.833 189.185 190.797 188.954 189.763 189.261L186.507 190.231L163.9 220.746C157.644 218.563 150.441 220.571 146.29 226.175C141.178 233.074 142.628 242.81 149.527 247.921ZM157.176 237.596C159.23 239.118 159.662 242.016 158.14 244.069C156.619 246.123 153.72 246.555 151.667 245.033C149.613 243.512 149.181 240.613 150.703 238.559C152.224 236.506 155.123 236.075 157.176 237.596Z" fill="black"/>
<path d="M168.925 223.597L193.374 190.596C193.164 190.277 192.916 189.988 192.613 189.763L168.035 222.938L168.925 223.597Z" fill="black"/>
</g>
<path d="M147.492 246.413C154.391 251.524 164.127 250.074 169.238 243.175C173.39 237.572 173.212 230.096 169.302 224.747L176.321 215.274L176.797 212.16L178.3 212.603L183.666 205.36L182.908 202.749L186.88 201.021L188.416 198.948L188.718 194.907L191.909 194.232L191.889 190.835C191.884 190.176 191.671 189.587 191.34 189.087L166.89 222.089L166.001 221.429L190.578 188.255C189.799 187.677 188.762 187.445 187.728 187.753L184.472 188.722L161.865 219.237C155.609 217.055 148.406 219.062 144.254 224.666C139.144 231.566 140.593 241.302 147.492 246.413ZM155.141 236.088C157.195 237.609 157.626 240.507 156.105 242.561C154.583 244.615 151.685 245.046 149.632 243.525C147.578 242.003 147.146 239.105 148.668 237.051C150.189 234.998 153.088 234.566 155.141 236.088Z" fill="#FFDD33"/>
<path d="M166.89 222.089L191.339 189.087C191.129 188.769 190.88 188.48 190.578 188.255L166 221.43L166.89 222.089Z" fill="#F28E0A"/>
</g>
<defs>
<clipPath id="clip0_14658_11869">
<rect width="420" height="280" fill="white"/>
</clipPath>
</defs>
</svg>
