<svg width="64" height="64" viewBox="0 0 64 64" fill="none" xmlns="http://www.w3.org/2000/svg">
<g clip-path="url(#clip0_14818_9533)">
<path opacity="0.998" fill-rule="evenodd" clip-rule="evenodd" d="M49.5625 1.4375C50.2192 1.69821 50.6985 2.15654 51 2.8125C51.0625 4.81206 51.0834 6.81206 51.0625 8.8125C36.6459 8.8125 22.2291 8.8125 7.81249 8.8125C7.77083 8.8125 7.72916 8.8125 7.68749 8.8125C7.66667 6.93704 7.68751 5.06204 7.74999 3.1875C7.86048 2.36889 8.29798 1.80639 9.06249 1.5C22.5624 1.4375 36.0624 1.41666 49.5625 1.4375Z" fill="#4F66D0"/>
<path fill-rule="evenodd" clip-rule="evenodd" d="M49.5625 1.43749C51.313 1.41667 53.063 1.43751 54.8125 1.49999C55.577 1.80638 56.0145 2.36888 56.125 3.18749C56.1875 5.06203 56.2084 6.93703 56.1875 8.81249C54.4791 8.81249 52.7709 8.81249 51.0625 8.81249C51.0834 6.81206 51.0625 4.81206 51 2.81249C50.6985 2.15653 50.2193 1.69821 49.5625 1.43749Z" fill="#3C58BC"/>
<path fill-rule="evenodd" clip-rule="evenodd" d="M15.9371 4.18749C17.4793 4.16668 19.0209 4.1875 20.5621 4.24999C21.3407 4.77134 21.3823 5.35466 20.6871 5.99999C19.0621 6.08333 17.4371 6.08333 15.8121 5.99999C15.1249 5.33535 15.1666 4.73118 15.9371 4.18749Z" fill="#C6EDFD"/>
<path fill-rule="evenodd" clip-rule="evenodd" d="M11.3135 4.31234C12.4172 4.1451 12.8547 4.60344 12.626 5.68734C12.1208 6.2889 11.5791 6.33058 11.001 5.81234C10.6899 5.2194 10.794 4.7194 11.3135 4.31234Z" fill="#C3EAFC"/>
<path opacity="0.998" fill-rule="evenodd" clip-rule="evenodd" d="M3.5625 8.81258C3.5625 8.85424 3.5625 8.89592 3.5625 8.93758C3.5625 20.646 3.5625 32.3542 3.5625 44.0626C2.35416 44.0626 1.14583 44.0626 -0.0625 44.0626C-0.0625 32.771 -0.0625 21.4792 -0.0625 10.1876C0.198939 9.69663 0.573939 9.30079 1.0625 9.00008C1.88455 8.82791 2.71789 8.76541 3.5625 8.81258Z" fill="#C7EEFE"/>
<path fill-rule="evenodd" clip-rule="evenodd" d="M7.8125 8.9375C7.8125 8.89584 7.8125 8.85416 7.8125 8.8125C22.2291 8.8125 36.6459 8.8125 51.0625 8.8125C52.7709 8.8125 54.4791 8.8125 56.1875 8.8125C56.4791 8.8125 56.7709 8.8125 57.0625 8.8125C57.8334 9.06166 58.3959 9.56166 58.75 10.3125C58.8125 21.5624 58.8334 32.8124 58.8125 44.0625C57.8959 44.0625 56.9791 44.0625 56.0625 44.0625C56.0625 32.3541 56.0625 20.6459 56.0625 8.9375C54.3959 8.9375 52.7291 8.9375 51.0625 8.9375C36.6459 8.9375 22.2291 8.9375 7.8125 8.9375Z" fill="#C5EAFA"/>
<path fill-rule="evenodd" clip-rule="evenodd" d="M3.5625 8.9375C4.9375 8.9375 6.3125 8.9375 7.6875 8.9375C7.6875 20.6459 7.6875 32.3541 7.6875 44.0625C6.3125 44.0625 4.9375 44.0625 3.5625 44.0625C3.5625 32.3541 3.5625 20.6459 3.5625 8.9375Z" fill="#99E6FB"/>
<path fill-rule="evenodd" clip-rule="evenodd" d="M3.5625 8.9375C3.5625 8.89584 3.5625 8.85416 3.5625 8.8125C4.9375 8.8125 6.3125 8.8125 7.6875 8.8125C7.72916 8.8125 7.77084 8.8125 7.8125 8.8125C7.8125 8.85416 7.8125 8.89584 7.8125 8.9375C7.8125 20.6459 7.8125 32.3541 7.8125 44.0625C7.77084 44.0625 7.72916 44.0625 7.6875 44.0625C7.6875 32.3541 7.6875 20.6459 7.6875 8.9375C6.3125 8.9375 4.9375 8.9375 3.5625 8.9375Z" fill="#AEE9F7"/>
<path fill-rule="evenodd" clip-rule="evenodd" d="M7.8125 8.9375C22.2291 8.9375 36.6459 8.9375 51.0625 8.9375C51.0625 20.6459 51.0625 32.3541 51.0625 44.0625C49.9791 44.0625 48.8959 44.0625 47.8125 44.0625C47.8125 43.1041 47.8125 42.1459 47.8125 41.1875C47.8125 40.5209 47.8125 39.8541 47.8125 39.1875C47.8125 38.2291 47.8125 37.2709 47.8125 36.3125C47.8332 35.1868 47.8125 34.0618 47.75 32.9375C47.6041 32.4584 47.2916 32.1459 46.8125 32C42.5628 31.9375 38.3127 31.9166 34.0625 31.9375C33.4375 31.9375 32.8125 31.9375 32.1875 31.9375C27.104 31.9166 22.0206 31.9375 16.9375 32C16.534 32.1954 16.2631 32.5079 16.125 32.9375C16.0625 34.0618 16.0417 35.1868 16.0625 36.3125C16.0625 38.8959 16.0625 41.4791 16.0625 44.0625C13.3125 44.0625 10.5625 44.0625 7.8125 44.0625C7.8125 32.3541 7.8125 20.6459 7.8125 8.9375Z" fill="#F7FAFD"/>
<path fill-rule="evenodd" clip-rule="evenodd" d="M51.0625 8.9375C52.7291 8.9375 54.3959 8.9375 56.0625 8.9375C56.0625 20.6459 56.0625 32.3541 56.0625 44.0625C54.3959 44.0625 52.7291 44.0625 51.0625 44.0625C51.0625 32.3541 51.0625 20.6459 51.0625 8.9375Z" fill="#F7FAFD"/>
<path fill-rule="evenodd" clip-rule="evenodd" d="M57.0625 8.81249C58.8546 8.79167 60.6464 8.81251 62.4375 8.87499C63.1165 9.11703 63.6165 9.55453 63.9375 10.1875C63.9375 21.4791 63.9375 32.7709 63.9375 44.0625C62.2291 44.0625 60.5209 44.0625 58.8125 44.0625C58.8334 32.8124 58.8125 21.5624 58.75 10.3125C58.3959 9.56166 57.8334 9.06166 57.0625 8.81249Z" fill="#99E6FC"/>
<path fill-rule="evenodd" clip-rule="evenodd" d="M32.1875 31.9375C32.1875 33.3959 32.1875 34.8541 32.1875 36.3125C26.8125 36.3125 21.4375 36.3125 16.0625 36.3125C16.0417 35.1868 16.0625 34.0618 16.125 32.9375C16.2631 32.5079 16.534 32.1954 16.9375 32C22.0206 31.9375 27.104 31.9166 32.1875 31.9375Z" fill="#F7FAFD"/>
<path fill-rule="evenodd" clip-rule="evenodd" d="M32.1875 31.9375C32.8125 31.9375 33.4375 31.9375 34.0625 31.9375C34.0625 33.3959 34.0625 34.8541 34.0625 36.3125C33.4375 36.3125 32.8125 36.3125 32.1875 36.3125C32.1875 34.8541 32.1875 33.3959 32.1875 31.9375Z" fill="#F7FAFD"/>
<path fill-rule="evenodd" clip-rule="evenodd" d="M34.0625 31.9375C38.3127 31.9166 42.5627 31.9375 46.8125 32C47.2916 32.1459 47.6041 32.4584 47.75 32.9375C47.8125 34.0618 47.8333 35.1868 47.8125 36.3125C43.2291 36.3125 38.6459 36.3125 34.0625 36.3125C34.0625 34.8541 34.0625 33.3959 34.0625 31.9375Z" fill="#F7FAFD"/>
<path fill-rule="evenodd" clip-rule="evenodd" d="M16.0625 36.3125C21.4375 36.3125 26.8125 36.3125 32.1875 36.3125C32.1875 38.8959 32.1875 41.4791 32.1875 44.0625C26.8125 44.0625 21.4375 44.0625 16.0625 44.0625C16.0625 41.4791 16.0625 38.8959 16.0625 36.3125Z" fill="#F7FAFD"/>
<path fill-rule="evenodd" clip-rule="evenodd" d="M32.1875 36.3125C32.8125 36.3125 33.4375 36.3125 34.0625 36.3125C34.0625 37.2709 34.0625 38.2291 34.0625 39.1875C38.6459 39.1875 43.2291 39.1875 47.8125 39.1875C47.8125 39.8541 47.8125 40.5209 47.8125 41.1875C43.2291 41.1875 38.6459 41.1875 34.0625 41.1875C34.0625 42.1459 34.0625 43.1041 34.0625 44.0625C33.4375 44.0625 32.8125 44.0625 32.1875 44.0625C32.1875 41.4791 32.1875 38.8959 32.1875 36.3125Z" fill="#F7FAFD"/>
<path fill-rule="evenodd" clip-rule="evenodd" d="M34.0625 36.3125C38.6459 36.3125 43.2291 36.3125 47.8125 36.3125C47.8125 37.2709 47.8125 38.2291 47.8125 39.1875C43.2291 39.1875 38.6459 39.1875 34.0625 39.1875C34.0625 38.2291 34.0625 37.2709 34.0625 36.3125Z" fill="#F7FAFD"/>
<path fill-rule="evenodd" clip-rule="evenodd" d="M19.8131 39.1875C20.8973 39.1667 21.9806 39.1875 23.0631 39.25C24.0631 39.875 24.0631 40.5 23.0631 41.125C21.9798 41.2083 20.8965 41.2083 19.8131 41.125C18.9868 40.4747 18.9868 39.8288 19.8131 39.1875Z" fill="#F7FAFD"/>
<path fill-rule="evenodd" clip-rule="evenodd" d="M47.8125 41.1875C47.8125 42.1459 47.8125 43.1041 47.8125 44.0625C43.2291 44.0625 38.6459 44.0625 34.0625 44.0625C34.0625 43.1041 34.0625 42.1459 34.0625 41.1875C38.6459 41.1875 43.2291 41.1875 47.8125 41.1875Z" fill="#F7FAFD"/>
<path fill-rule="evenodd" clip-rule="evenodd" d="M-0.0625 44.0625C1.14583 44.0625 2.35416 44.0625 3.5625 44.0625C4.9375 44.0625 6.3125 44.0625 7.6875 44.0625C7.72916 44.0625 7.77084 44.0625 7.8125 44.0625C10.5625 44.0625 13.3125 44.0625 16.0625 44.0625C21.4375 44.0625 26.8125 44.0625 32.1875 44.0625C32.8125 44.0625 33.4375 44.0625 34.0625 44.0625C38.6459 44.0625 43.2291 44.0625 47.8125 44.0625C48.8959 44.0625 49.9791 44.0625 51.0625 44.0625C52.7291 44.0625 54.3959 44.0625 56.0625 44.0625C56.9791 44.0625 57.8959 44.0625 58.8125 44.0625C58.8334 45.6048 58.8125 47.1464 58.75 48.6875C58.4448 49.514 57.8823 50.0556 57.0625 50.3125C56.2709 50.3125 55.4791 50.3125 54.6875 50.3125C54.7082 49.4781 54.6875 48.6448 54.625 47.8125C54.2029 47.2814 53.6821 47.1772 53.0625 47.5C52.9842 47.5938 52.9217 47.698 52.875 47.8125C52.8125 48.6448 52.7918 49.4781 52.8125 50.3125C47.9791 50.3125 43.1459 50.3125 38.3125 50.3125C36.6753 50.1474 35.0503 50.1474 33.4375 50.3125C30.8125 50.3125 28.1875 50.3125 25.5625 50.3125C17.5208 50.3334 9.47906 50.3125 1.4375 50.25C0.758475 50.008 0.258475 49.5705 -0.0625 48.9375C-0.0625 47.3125 -0.0625 45.6875 -0.0625 44.0625Z" fill="#A9B5BE"/>
<path fill-rule="evenodd" clip-rule="evenodd" d="M58.8125 44.0625C60.5209 44.0625 62.2291 44.0625 63.9375 44.0625C63.9375 45.6875 63.9375 47.3125 63.9375 48.9375C63.6165 49.5705 63.1165 50.008 62.4375 50.25C60.6464 50.3125 58.8546 50.3334 57.0625 50.3125C57.8823 50.0556 58.4448 49.514 58.75 48.6875C58.8125 47.1464 58.8334 45.6048 58.8125 44.0625Z" fill="#8D9CA8"/>
<path fill-rule="evenodd" clip-rule="evenodd" d="M54.6875 50.3124C54.0625 50.3124 53.4375 50.3124 52.8125 50.3124C52.7917 49.478 52.8125 48.6447 52.875 47.8124C52.9217 47.6979 52.9842 47.5937 53.0625 47.4999C53.6821 47.1772 54.2028 47.2813 54.625 47.8124C54.6875 48.6447 54.7082 49.478 54.6875 50.3124Z" fill="#7A8C98"/>
<path fill-rule="evenodd" clip-rule="evenodd" d="M25.5625 50.3125C28.1875 50.3125 30.8125 50.3125 33.4375 50.3125C33.4375 52.8959 33.4375 55.4791 33.4375 58.0625C30.8125 58.0625 28.1875 58.0625 25.5625 58.0625C25.5625 55.4791 25.5625 52.8959 25.5625 50.3125Z" fill="#8C9BA7"/>
<path fill-rule="evenodd" clip-rule="evenodd" d="M38.3125 50.3123C38.3125 52.8957 38.3125 55.4789 38.3125 58.0623C36.6875 58.0623 35.0625 58.0623 33.4375 58.0623C33.4375 55.4789 33.4375 52.8957 33.4375 50.3123C35.0503 50.1472 36.6753 50.1472 38.3125 50.3123Z" fill="#7A8C98"/>
<path opacity="0.999" fill-rule="evenodd" clip-rule="evenodd" d="M25.5625 58.0625C28.1875 58.0625 30.8125 58.0625 33.4375 58.0625C35.0625 58.0625 36.6875 58.0625 38.3125 58.0625C39.1875 58.0625 40.0625 58.0625 40.9375 58.0625C41.1379 58.1995 41.3254 58.3663 41.5 58.5625C41.5834 59.6875 41.5834 60.8125 41.5 61.9375C41.4138 62.1688 41.268 62.3355 41.0625 62.4375C33.3124 62.4584 25.5624 62.4375 17.8125 62.375C17.7084 62.2709 17.6042 62.1666 17.5 62.0625C17.4167 60.8541 17.4167 59.6459 17.5 58.4375C17.6042 58.3334 17.7084 58.2291 17.8125 58.125C20.3955 58.0625 22.9789 58.0416 25.5625 58.0625Z" fill="#A8B4BE"/>
<path fill-rule="evenodd" clip-rule="evenodd" d="M40.9375 58.0625C42.6464 58.0416 44.3546 58.0625 46.0625 58.125C46.1666 58.2291 46.2709 58.3334 46.375 58.4375C46.4584 59.6459 46.4584 60.8541 46.375 62.0625C46.2709 62.1666 46.1666 62.2709 46.0625 62.375C44.3964 62.4375 42.7296 62.4584 41.0625 62.4375C41.268 62.3355 41.4137 62.1688 41.5 61.9375C41.5834 60.8125 41.5834 59.6875 41.5 58.5625C41.3254 58.3663 41.1379 58.1995 40.9375 58.0625Z" fill="#8D9CA8"/>
<path d="M47.2283 31.4587C47.9029 31.4605 48.5549 31.2098 49.0614 30.7537C49.5678 30.2976 49.8938 29.6678 49.9777 28.9828C50.0616 28.2979 49.8978 27.6052 49.5171 27.0353C49.1364 26.4654 48.5651 26.0577 47.9108 25.889C47.9108 25.8564 47.9205 25.8253 47.9205 25.792C47.9256 25.3414 47.8244 24.8963 47.6254 24.4943C47.4265 24.0923 47.1358 23.7454 46.7778 23.4829C46.4199 23.2204 46.0054 23.0501 45.5695 22.9865C45.1335 22.9228 44.689 22.9677 44.2736 23.1173C44.1164 22.5701 43.853 22.0609 43.4994 21.62C43.1457 21.1791 42.7089 20.8156 42.2151 20.5511C41.7212 20.2866 41.1803 20.1265 40.6247 20.0803C40.0691 20.0342 39.5101 20.103 38.981 20.2826C38.4519 20.4621 37.9635 20.7489 37.545 21.1256C37.1265 21.5024 36.7864 21.9615 36.5449 22.4756C36.3035 22.9897 36.1657 23.5483 36.1396 24.118C36.1136 24.6878 36.2 25.2571 36.3935 25.792H36.1519C35.4175 25.792 34.7132 26.0905 34.1939 26.6219C33.6746 27.1532 33.3828 27.8739 33.3828 28.6253C33.3828 29.3768 33.6746 30.0974 34.1939 30.6288C34.7132 31.1601 35.4175 31.4587 36.1519 31.4587H47.2283Z" fill="#3B5892"/>
<path d="M14 18H25.0764V35H14V18Z" fill="#78A0D4"/>
<path d="M20.2305 20.8335H29.9223V35.0002H20.2305V20.8335Z" fill="#C0DAFC"/>
<path d="M38.586 30.2853C40.5142 30.3298 42.396 29.6775 43.9008 28.443C45.4055 27.2086 46.4369 25.471 46.8137 23.5356C46.4596 23.2528 46.0414 23.0662 45.598 22.993C45.1545 22.9198 44.7002 22.9624 44.2772 23.1169C44.1152 22.5753 43.8491 22.0722 43.4944 21.6373C43.1397 21.2024 42.7036 20.8444 42.2117 20.5845C41.7199 20.3245 41.1822 20.1677 40.6303 20.1234C40.0784 20.0791 39.5234 20.1481 38.9979 20.3264C38.4725 20.5047 37.9871 20.7886 37.5705 21.1616C37.1538 21.5345 36.8142 21.989 36.5716 22.4981C36.329 23.0073 36.1884 23.561 36.1579 24.1265C36.1275 24.6921 36.2078 25.2582 36.3943 25.7916H36.1527C35.4349 25.7925 34.7457 26.079 34.2306 26.5904C33.7156 27.1018 33.415 27.7981 33.3926 28.5321C34.8922 29.6771 36.7149 30.2923 38.586 30.2853Z" fill="#4C6CB5"/>
<path d="M41.6918 24.375L38.2305 28.625H39.615V34.2917H43.7686V28.625H45.1532L41.6918 24.375Z" fill="#F0AE42"/>
<path d="M22.3086 22.9585H25.0777V24.3752H22.3086V22.9585Z" fill="#78A0D4"/>
<path d="M26.4629 22.9585H27.8474V24.3752H26.4629V22.9585Z" fill="#78A0D4"/>
<path d="M22.3086 25.792H25.0777V27.2087H22.3086V25.792Z" fill="#78A0D4"/>
<path d="M26.4629 25.792H27.8474V27.2087H26.4629V25.792Z" fill="#78A0D4"/>
<path d="M22.3086 28.625H25.0777V30.0417H22.3086V28.625Z" fill="#78A0D4"/>
<path d="M26.4629 28.625H27.8474V30.0417H26.4629V28.625Z" fill="#78A0D4"/>
<path d="M22.3086 31.4585H25.0777V32.8752H22.3086V31.4585Z" fill="#78A0D4"/>
<path d="M26.4629 31.4585H27.8474V32.8752H26.4629V31.4585Z" fill="#78A0D4"/>
<path d="M42.6492 31.2572V25.5501L41.6918 24.375L38.2305 28.625H39.615V31.9655H41.957C42.1406 31.9655 42.3167 31.8909 42.4465 31.758C42.5763 31.6252 42.6492 31.445 42.6492 31.2572Z" fill="#F9D266"/>
</g>
<defs>
<clipPath id="clip0_14818_9533">
<rect width="64" height="64" fill="white"/>
</clipPath>
</defs>
</svg>
