<svg width="114" height="114" viewBox="0 0 114 114" fill="none" xmlns="http://www.w3.org/2000/svg">
<g clip-path="url(#clip0_14818_10059)">
<path fill-rule="evenodd" clip-rule="evenodd" d="M91.2806 17.1236C107.881 26.7098 113.577 47.9661 103.995 64.5702C94.4084 81.1705 73.1483 86.8666 56.548 77.2804C39.9477 67.698 34.2515 46.4379 43.834 29.8376C53.4202 13.2335 74.6803 7.53738 91.2806 17.1236Z" fill="white"/>
<path fill-rule="evenodd" clip-rule="evenodd" d="M56.9995 43.2167V57C56.9995 62.9031 61.784 67.6875 67.687 67.6875H81.937C87.8401 67.6875 92.6245 62.9031 92.6245 57V43.2167L94.2099 44.2747C95.8486 45.3649 98.0609 44.9231 99.151 43.2879C100.241 41.6527 99.7994 39.4369 98.1642 38.3467C98.1642 38.3467 86.9174 30.8513 80.74 26.733C77.149 24.339 72.475 24.339 68.884 26.733C62.7067 30.8513 51.4599 38.3467 51.4599 38.3467C49.8247 39.4369 49.3829 41.6527 50.473 43.2879C51.5632 44.9231 53.7755 45.3649 55.4142 44.2747L56.9995 43.2167Z" fill="#FFDD33"/>
<path fill-rule="evenodd" clip-rule="evenodd" d="M19.2446 65.9098C19.8823 67.0106 21.0579 67.6875 22.3298 67.6875H41.4354C42.6787 67.6875 43.8294 67.0427 44.4743 65.9846C45.1226 64.9266 45.1725 63.6049 44.6096 62.5005C42.5612 58.4998 41.3464 54.1144 41.0436 49.6328C40.9153 47.766 39.3621 46.3125 37.4882 46.3125H21.375C19.4085 46.3125 17.8125 47.9085 17.8125 49.875V60.5625C17.8125 62.5112 18.3362 64.3352 19.2446 65.9098Z" fill="#0D7BA8"/>
<path fill-rule="evenodd" clip-rule="evenodd" d="M51.9982 76.5189C52.2084 76.2517 52.383 75.9489 52.5112 75.6212C53.0421 74.2532 52.6822 72.6964 51.6028 71.7024C48.6958 69.0341 46.3517 65.9063 44.6096 62.5005C44.0004 61.3106 42.7749 60.5625 41.4354 60.5625C41.4354 60.5625 21.66 60.5625 10.6875 60.5625C4.78444 60.5625 0 65.3469 0 71.25V92.625C0 98.5281 4.78444 103.312 10.6875 103.312H34.4707C35.7426 103.312 36.9182 102.632 37.5559 101.531L51.9982 76.5189Z" fill="#0054A6"/>
<path fill-rule="evenodd" clip-rule="evenodd" d="M51.5757 71.6812C50.7777 70.9473 49.6947 70.616 48.6223 70.7799C47.5536 70.9437 46.6167 71.585 46.0752 72.5219L31.3834 97.9689C29.9655 100.423 29.5843 103.341 30.3182 106.077C31.0485 108.817 32.8405 111.15 35.295 112.568C40.4072 115.518 46.9444 113.769 49.8942 108.656L64.4113 83.5122C64.935 82.6038 65.0348 81.5066 64.675 80.5197C64.3187 79.5329 63.5421 78.7527 62.5588 78.3894C60.8168 77.7481 59.1068 76.9501 57.4431 75.9882C55.2913 74.7485 53.332 73.2986 51.5757 71.6812Z" fill="#002548"/>
<path fill-rule="evenodd" clip-rule="evenodd" d="M71.25 10.6875C71.25 7.85175 70.1243 5.13356 68.1186 3.13144C66.1164 1.12575 63.3983 0 60.5625 0C48.2256 0 23.0244 0 10.6875 0C7.85175 0 5.13356 1.12575 3.13144 3.13144C1.12575 5.13356 0 7.85175 0 10.6875V42.75C0 45.5858 1.12575 48.3039 3.13144 50.3061C5.13356 52.3118 7.85175 53.4375 10.6875 53.4375H37.4882C38.475 53.4375 39.4191 53.0278 40.0924 52.3082C40.7657 51.585 41.1112 50.6196 41.0436 49.6328C40.6161 43.3378 41.9912 36.8469 45.3827 30.9759C50.4628 22.173 59.0021 16.6048 68.2967 14.9874L67.6875 15.0409C67.6875 15.0409 71.25 14.7203 71.25 11.4606V10.6875Z" fill="#0054A6"/>
<path d="M17.8125 16.0312C19.78 16.0312 21.375 14.4363 21.375 12.4688C21.375 10.5012 19.78 8.90625 17.8125 8.90625C15.845 8.90625 14.25 10.5012 14.25 12.4688C14.25 14.4363 15.845 16.0312 17.8125 16.0312Z" fill="white"/>
<path d="M32.0625 85.5C34.03 85.5 35.625 83.905 35.625 81.9375C35.625 79.97 34.03 78.375 32.0625 78.375C30.095 78.375 28.5 79.97 28.5 81.9375C28.5 83.905 30.095 85.5 32.0625 85.5Z" fill="white"/>
<path d="M17.8125 85.5C19.78 85.5 21.375 83.905 21.375 81.9375C21.375 79.97 19.78 78.375 17.8125 78.375C15.845 78.375 14.25 79.97 14.25 81.9375C14.25 83.905 15.845 85.5 17.8125 85.5Z" fill="white"/>
<path fill-rule="evenodd" clip-rule="evenodd" d="M46.7934 28.7387C47.5451 27.6486 47.6306 26.2307 47.0143 25.0622C46.398 23.8901 45.1832 23.1562 43.8615 23.1562H21.375C17.4384 23.1562 14.25 26.3447 14.25 30.2812V35.625C14.25 39.5616 17.4384 42.75 21.375 42.75H38.3468C40.0033 42.75 41.4426 41.6064 41.8166 39.9926C42.5362 36.9004 43.7154 33.8651 45.3827 30.9759C45.828 30.2064 46.2983 29.4619 46.7934 28.7387Z" fill="white"/>
<path fill-rule="evenodd" clip-rule="evenodd" d="M46.7852 76.9502L49.1257 77.8622C48.2493 77.8551 47.4193 77.5202 46.7852 76.9502Z" fill="black"/>
<path fill-rule="evenodd" clip-rule="evenodd" d="M93.9611 12.743C74.8056 1.68146 50.2742 8.25784 39.2126 27.4134C28.1546 46.569 34.7274 71.1003 53.883 82.1583C73.0386 93.2199 97.5699 86.6471 108.632 67.4915C119.69 48.336 113.117 23.801 93.9611 12.743ZM90.3986 18.9133C106.148 28.0083 111.553 48.1756 102.461 63.929C93.3662 79.6788 73.1953 85.0831 57.4455 75.9881C41.6957 66.8966 36.2914 46.7257 45.3829 30.9759C54.4779 15.2225 74.6488 9.81821 90.3986 18.9133Z" fill="#2C3789"/>
</g>
<defs>
<clipPath id="clip0_14818_10059">
<rect width="114" height="114" fill="white"/>
</clipPath>
</defs>
</svg>
