<svg width="420" height="332" viewBox="0 0 420 332" fill="none" xmlns="http://www.w3.org/2000/svg">
<path d="M297.9 278.9V53.1C297.9 47 292 42 284.8 42H115.1C107.9 42 102 47 102 53.1V278.9C102 285 107.9 290 115.1 290H284.8C292.1 290 297.9 285 297.9 278.9Z" fill="#002548"/>
<path d="M293.998 52.7001V267.2C293.998 271.3 289.898 274.6 284.798 274.6H115.098C109.998 274.6 105.898 271.3 105.898 267.2V52.7001C105.898 48.6001 109.998 45.3 115.098 45.3H284.798C289.898 45.3 293.998 48.6001 293.998 52.7001Z" fill="#F9FAFB"/>
<path d="M293.998 52.7001V61.3H105.898V52.7001C105.898 48.6001 109.998 45.3 115.098 45.3H284.798C289.898 45.3 293.998 48.6001 293.998 52.7001Z" fill="#0054A6"/>
<path d="M254.804 57.1002H132.704C130.904 57.1002 129.504 55.7002 129.504 53.9002C129.504 52.1002 130.904 50.7002 132.704 50.7002H254.904C256.704 50.7002 258.104 52.1002 258.104 53.9002C258.104 55.7002 256.604 57.1002 254.804 57.1002Z" fill="#D2D9DC"/>
<path d="M122.302 57.1002H112.602C110.802 57.1002 109.402 55.7002 109.402 53.9002C109.402 52.1002 110.802 50.7002 112.602 50.7002H122.302C124.102 50.7002 125.502 52.1002 125.502 53.9002C125.502 55.7002 124.002 57.1002 122.302 57.1002Z" fill="#D2D9DC"/>
<path d="M273.002 57.1002H264.802C263.002 57.1002 261.602 55.7002 261.602 53.9002C261.602 52.1002 263.002 50.7002 264.802 50.7002H273.002C274.802 50.7002 276.202 52.1002 276.202 53.9002C276.202 55.7002 274.802 57.1002 273.002 57.1002Z" fill="#D2D9DC"/>
<path d="M289.404 51.8001H280.104C279.804 51.8001 279.504 51.5001 279.504 51.2001C279.504 50.9001 279.804 50.6001 280.104 50.6001H289.404C289.704 50.6001 290.004 50.9001 290.004 51.2001C290.004 51.6001 289.804 51.8001 289.404 51.8001Z" fill="#D2D9DC"/>
<path d="M289.404 54.5H280.104C279.804 54.5 279.504 54.2001 279.504 53.9001C279.504 53.6001 279.804 53.3 280.104 53.3H289.404C289.704 53.3 290.004 53.6001 290.004 53.9001C290.004 54.2001 289.804 54.5 289.404 54.5Z" fill="#D2D9DC"/>
<path d="M289.404 57.1001H280.104C279.804 57.1001 279.504 56.8001 279.504 56.5001C279.504 56.2001 279.804 55.9001 280.104 55.9001H289.404C289.704 55.9001 290.004 56.2001 290.004 56.5001C290.004 56.9001 289.804 57.1001 289.404 57.1001Z" fill="#D2D9DC"/>
<path d="M203.399 118.1C198.399 118.1 193.499 116.4 189.699 113.1L203.599 98.5L220.999 108.8C219.199 111.4 216.799 113.6 214.099 115.2C210.799 117.2 207.099 118.1 203.399 118.1Z" fill="#54CC5A"/>
<path d="M204.699 95.6V75.7C215.399 76.3 223.999 84.9 224.699 95.6H204.699Z" fill="#54CC5A"/>
<path d="M212 98.8999H228.6C228.4 101.9 227.6 104.8 226.2 107.4L212 98.8999Z" fill="#FFDD33"/>
<path d="M187.8 111.4C184.1 107.5 182 102.4 182 96.9C182 85.6 190.9 76.4 202 75.7V96.4L187.8 111.4Z" fill="#0054A6"/>
<path d="M238.701 91.3C240.579 91.3 242.101 89.7778 242.101 87.9C242.101 86.0222 240.579 84.5 238.701 84.5C236.823 84.5 235.301 86.0222 235.301 87.9C235.301 89.7778 236.823 91.3 238.701 91.3Z" fill="#FFDD33"/>
<path d="M241.123 103.563C242.45 102.236 242.45 100.083 241.123 98.755C239.795 97.4273 237.642 97.4273 236.314 98.755C234.987 100.083 234.987 102.236 236.314 103.563C237.642 104.891 239.795 104.891 241.123 103.563Z" fill="#54CC5A"/>
<path d="M287.001 86.3999H249.301C249.001 86.3999 248.801 86.1999 248.801 85.8999C248.801 85.5999 249.001 85.3999 249.301 85.3999H287.001C287.301 85.3999 287.501 85.5999 287.501 85.8999C287.501 86.1999 287.301 86.3999 287.001 86.3999Z" fill="#D2D9DC"/>
<path d="M287.001 90.2H249.301C249.001 90.2 248.801 90 248.801 89.7C248.801 89.4 249.001 89.2 249.301 89.2H287.001C287.301 89.2 287.501 89.4 287.501 89.7C287.501 90 287.301 90.2 287.001 90.2Z" fill="#D2D9DC"/>
<path d="M287.001 100H249.301C249.001 100 248.801 99.8 248.801 99.5C248.801 99.2 249.001 99 249.301 99H287.001C287.301 99 287.501 99.2 287.501 99.5C287.501 99.8 287.301 100 287.001 100Z" fill="#D2D9DC"/>
<path d="M287.001 103.8H249.301C249.001 103.8 248.801 103.6 248.801 103.3C248.801 103 249.001 102.8 249.301 102.8H287.001C287.301 102.8 287.501 103 287.501 103.3C287.501 103.6 287.301 103.8 287.001 103.8Z" fill="#D2D9DC"/>
<path d="M184.503 175.4H122.203V207.6H184.503V175.4Z" fill="#0054A6"/>
<path d="M141.002 215.1H122.602C122.202 215.1 121.902 214.8 121.902 214.4C121.902 214 122.202 213.7 122.602 213.7H141.002C141.402 213.7 141.702 214 141.702 214.4C141.702 214.8 141.402 215.1 141.002 215.1Z" fill="#D2D9DC"/>
<path d="M173.401 215.1H145.001C144.601 215.1 144.301 214.8 144.301 214.4C144.301 214 144.601 213.7 145.001 213.7H173.501C173.901 213.7 174.201 214 174.201 214.4C174.101 214.8 173.801 215.1 173.401 215.1Z" fill="#D2D9DC"/>
<path d="M184.104 215.1H178.104C177.804 215.1 177.504 214.8 177.504 214.5C177.504 214.2 177.804 213.9 178.104 213.9H184.104C184.404 213.9 184.704 214.2 184.704 214.5C184.704 214.9 184.404 215.1 184.104 215.1Z" fill="#D2D9DC"/>
<path d="M184.002 222.6H122.602C122.202 222.6 121.902 222.3 121.902 221.9C121.902 221.5 122.202 221.2 122.602 221.2H184.002C184.402 221.2 184.702 221.5 184.702 221.9C184.702 222.3 184.402 222.6 184.002 222.6Z" fill="#D2D9DC"/>
<path d="M141.002 236.7H122.602C122.202 236.7 121.902 236.4 121.902 236C121.902 235.6 122.202 235.3 122.602 235.3H141.002C141.402 235.3 141.702 235.6 141.702 236C141.702 236.3 141.402 236.7 141.002 236.7Z" fill="#D2D9DC"/>
<path d="M173.401 236.7H145.001C144.601 236.7 144.301 236.4 144.301 236C144.301 235.6 144.601 235.3 145.001 235.3H173.501C173.901 235.3 174.201 235.6 174.201 236C174.101 236.3 173.801 236.7 173.401 236.7Z" fill="#D2D9DC"/>
<path d="M153.204 229.2H122.704C122.304 229.2 122.004 228.9 122.004 228.5C122.004 228.1 122.304 227.8 122.704 227.8H153.204C153.604 227.8 153.904 228.1 153.904 228.5C153.904 228.9 153.604 229.2 153.204 229.2Z" fill="#D2D9DC"/>
<path d="M184.001 229.2H160.501C160.101 229.2 159.801 228.9 159.801 228.5C159.801 228.1 160.101 227.8 160.501 227.8H184.001C184.401 227.8 184.701 228.1 184.701 228.5C184.701 228.9 184.401 229.2 184.001 229.2Z" fill="#D2D9DC"/>
<path d="M184.104 236.7H178.104C177.804 236.7 177.504 236.4 177.504 236.1C177.504 235.8 177.804 235.5 178.104 235.5H184.104C184.404 235.5 184.704 235.8 184.704 236.1C184.704 236.4 184.404 236.7 184.104 236.7Z" fill="#D2D9DC"/>
<path d="M135.2 198.7L142.9 186.5C143.3 185.8 144.2 185.9 144.5 186.5L151.1 198C151.5 198.7 152.4 198.7 152.8 197.9L154.3 194.9C154.7 194.1 155.7 194.1 156 194.9L157.3 197.5C157.7 198.3 158.8 198.3 159.1 197.4L162.6 187.3C162.9 186.3 164.2 186.3 164.5 187.4L167.9 199C168.1 199.7 167.6 200.5 167 200.5H136C135.2 200.6 134.8 199.5 135.2 198.7Z" fill="white"/>
<path d="M153.201 185.8C154.802 185.8 156.101 184.322 156.101 182.5C156.101 180.677 154.802 179.2 153.201 179.2C151.599 179.2 150.301 180.677 150.301 182.5C150.301 184.322 151.599 185.8 153.201 185.8Z" fill="white"/>
<path d="M144.099 181.1C143.999 181.1 143.999 181.1 143.899 181.1V181C143.899 180.3 143.399 179.7 142.699 179.7C142.199 179.7 141.699 180.1 141.599 180.7C141.499 180.6 141.299 180.5 141.099 180.5C140.799 180.5 140.599 180.7 140.499 180.9C140.399 180.8 140.299 180.8 140.099 180.8C139.599 180.8 139.199 181.3 139.199 181.9C139.199 182.5 139.599 183 140.099 183C140.299 183 140.499 182.9 140.699 182.8C140.999 183.1 141.499 183.3 142.099 183.3C142.599 183.3 143.099 183.1 143.499 182.9C143.599 183 143.799 183.1 143.999 183.1C144.399 183.1 144.799 182.7 144.799 182.2C144.899 181.5 144.499 181.1 144.099 181.1Z" fill="white"/>
<path d="M164.298 181.1C164.198 181.1 164.198 181.1 164.098 181.1V181C164.098 180.3 163.598 179.7 162.898 179.7C162.398 179.7 161.898 180.1 161.798 180.7C161.698 180.6 161.498 180.5 161.298 180.5C160.998 180.5 160.798 180.7 160.698 180.9C160.598 180.8 160.498 180.8 160.298 180.8C159.798 180.8 159.398 181.3 159.398 181.9C159.398 182.5 159.798 183 160.298 183C160.498 183 160.698 182.9 160.898 182.8C161.198 183.1 161.698 183.3 162.298 183.3C162.798 183.3 163.298 183.1 163.698 182.9C163.798 183 163.998 183.1 164.198 183.1C164.598 183.1 164.998 182.7 164.998 182.2C165.098 181.5 164.798 181.1 164.298 181.1Z" fill="white"/>
<path d="M73.3017 81.1001H161.602C164.302 81.1001 166.502 83.7001 166.502 86.8001V157.5C166.502 160.7 164.302 163.2 161.602 163.2H73.3017C70.6017 163.2 68.4017 160.6 68.4017 157.5V86.9001C68.3017 83.7001 70.5017 81.1001 73.3017 81.1001Z" fill="#002548"/>
<path d="M74.5031 89.1001H160.403C163.103 89.1001 165.203 91.4001 165.203 94.1001V157.1C165.203 159.9 163.003 162.1 160.403 162.1H74.5031C71.8031 162.1 69.7031 159.8 69.7031 157.1V94.1001C69.7031 91.4001 71.8031 89.1001 74.5031 89.1001Z" fill="#D2D9DC"/>
<path d="M139.8 86.7H157.9C158.6 86.7 159.2 86.2 159.2 85.7C159.2 85.1 158.6 84.7 157.9 84.7H139.8C139.1 84.7 138.5 85.2 138.5 85.7C138.5 86.2 139.1 86.7 139.8 86.7Z" fill="#F9FAFB"/>
<path d="M156.502 100.6L98.0023 100.5C97.6023 100.5 97.4023 100.1 97.4023 99.6999C97.4023 99.2999 97.7023 98.8999 98.0023 98.8999L156.502 98.9999C156.902 98.9999 157.102 99.3999 157.102 99.7999C157.202 100.2 156.902 100.6 156.502 100.6Z" fill="#C5D0F0"/>
<path d="M139.501 110L97.8008 109.9C97.5008 109.9 97.3008 109.5 97.3008 109.1C97.3008 108.7 97.5008 108.3 97.8008 108.3L139.501 108.4C139.801 108.4 140.001 108.8 140.001 109.2C140.001 109.6 139.801 110 139.501 110Z" fill="#C5D0F0"/>
<path d="M121.702 105.1H98.0023C97.6023 105.1 97.4023 104.7 97.4023 104.3C97.4023 103.9 97.7023 103.5 98.0023 103.5H121.702C122.102 103.5 122.302 103.9 122.302 104.3C122.302 104.7 122.102 105.1 121.702 105.1Z" fill="#C5D0F0"/>
<path d="M132.799 105.1H125.799C125.399 105.1 125.199 104.7 125.199 104.3C125.199 103.9 125.499 103.5 125.799 103.5H132.799C133.199 103.5 133.399 103.9 133.399 104.3C133.399 104.8 133.199 105.1 132.799 105.1Z" fill="#C5D0F0"/>
<path d="M156.502 122.8L98.0023 122.7C97.6023 122.7 97.4023 122.3 97.4023 121.9C97.4023 121.5 97.7023 121.1 98.0023 121.1L156.502 121.2C156.902 121.2 157.102 121.6 157.102 122C157.102 122.4 156.802 122.8 156.502 122.8Z" fill="#C5D0F0"/>
<path d="M139.501 132.2L97.8008 132.1C97.5008 132.1 97.3008 131.7 97.3008 131.3C97.3008 130.9 97.5008 130.5 97.8008 130.5L139.501 130.6C139.801 130.6 140.001 131 140.001 131.4C140.001 131.8 139.801 132.2 139.501 132.2Z" fill="#C5D0F0"/>
<path d="M121.702 127.3H98.0023C97.6023 127.3 97.4023 126.9 97.4023 126.5C97.4023 126.1 97.7023 125.7 98.0023 125.7H121.702C122.102 125.7 122.302 126.1 122.302 126.5C122.302 126.9 122.002 127.3 121.702 127.3Z" fill="#C5D0F0"/>
<path d="M132.799 127.3H125.799C125.399 127.3 125.199 126.9 125.199 126.5C125.199 126.1 125.499 125.7 125.799 125.7H132.799C133.199 125.7 133.399 126.1 133.399 126.5C133.399 127 133.099 127.3 132.799 127.3Z" fill="#C5D0F0"/>
<path d="M156.502 145L98.0023 144.9C97.6023 144.9 97.4023 144.5 97.4023 144.1C97.4023 143.7 97.7023 143.3 98.0023 143.3L156.502 143.4C156.902 143.4 157.102 143.8 157.102 144.2C157.102 144.6 156.802 145 156.502 145Z" fill="#C5D0F0"/>
<path d="M139.501 154.4L97.8008 154.3C97.5008 154.3 97.3008 153.9 97.3008 153.5C97.3008 153.1 97.5008 152.7 97.8008 152.7L139.501 152.8C139.801 152.8 140.001 153.2 140.001 153.6C139.901 154 139.701 154.4 139.501 154.4Z" fill="#C5D0F0"/>
<path d="M121.601 149.5H97.9008C97.5008 149.5 97.3008 149.1 97.3008 148.7C97.3008 148.3 97.6008 147.9 97.9008 147.9H121.601C122.001 147.9 122.201 148.3 122.201 148.7C122.301 149.1 122.001 149.5 121.601 149.5Z" fill="#C5D0F0"/>
<path d="M132.702 149.5H125.702C125.302 149.5 125.102 149.1 125.102 148.7C125.102 148.3 125.402 147.9 125.702 147.9H132.702C133.102 147.9 133.302 148.3 133.302 148.7C133.402 149.2 133.102 149.5 132.702 149.5Z" fill="#C5D0F0"/>
<path d="M84.0031 110.9C83.8031 110.9 83.6031 110.9 83.4031 110.9C83.2031 110.9 83.1031 110.7 83.1031 110.6C83.1031 110.4 83.3031 110.3 83.4031 110.3C83.8031 110.3 84.2031 110.3 84.6031 110.3C84.8031 110.3 84.9031 110.4 84.9031 110.6C84.9031 110.8 84.8031 110.9 84.6031 110.9C84.5031 110.9 84.3031 110.9 84.0031 110.9ZM82.2031 110.6C81.7031 110.5 81.3031 110.3 80.9031 110.1C80.8031 110 80.7031 109.8 80.8031 109.7C80.9031 109.6 81.1031 109.5 81.2031 109.6C81.5031 109.8 81.9031 110 82.3031 110.1C82.5031 110.1 82.5031 110.3 82.5031 110.5C82.4031 110.6 82.3031 110.6 82.2031 110.6ZM85.9031 110.6C85.8031 110.6 85.7031 110.5 85.6031 110.4C85.6031 110.2 85.6031 110.1 85.8031 110C86.2031 109.9 86.5031 109.7 86.9031 109.5C87.0031 109.4 87.2031 109.5 87.3031 109.6C87.4031 109.7 87.3031 109.9 87.2031 110C86.8031 110.3 86.4031 110.5 85.9031 110.6ZM80.0031 109.4C79.9031 109.4 79.9031 109.4 79.8031 109.3C79.5031 109 79.2031 108.7 78.9031 108.3C78.8031 108.2 78.8031 108 79.0031 107.9C79.1031 107.8 79.3031 107.8 79.4031 108C79.6031 108.3 79.9031 108.6 80.2031 108.9C80.3031 109 80.3031 109.2 80.2031 109.3C80.2031 109.4 80.1031 109.4 80.0031 109.4ZM88.1031 109.4C88.0031 109.4 87.9031 109.4 87.9031 109.3C87.8031 109.2 87.8031 109 87.9031 108.9C88.2031 108.6 88.5031 108.3 88.7031 108C88.8031 107.9 89.0031 107.8 89.1031 107.9C89.2031 108 89.3031 108.2 89.2031 108.3C88.9031 108.7 88.6031 109 88.3031 109.3C88.2031 109.4 88.2031 109.4 88.1031 109.4ZM78.5031 107.4C78.4031 107.4 78.3031 107.3 78.2031 107.2C78.0031 106.8 77.9031 106.4 77.8031 105.9C77.8031 105.7 77.9031 105.6 78.0031 105.6C78.2031 105.6 78.3031 105.7 78.3031 105.8C78.4031 106.2 78.5031 106.6 78.7031 106.9C78.8031 107 78.7031 107.2 78.6031 107.3C78.6031 107.4 78.6031 107.4 78.5031 107.4ZM89.6031 107.3H89.5031C89.4031 107.2 89.3031 107.1 89.4031 106.9C89.6031 106.5 89.7031 106.1 89.8031 105.8C89.8031 105.6 90.0031 105.5 90.1031 105.6C90.3031 105.6 90.4031 105.8 90.3031 105.9C90.2031 106.3 90.1031 106.8 89.9031 107.2C89.8031 107.3 89.7031 107.3 89.6031 107.3ZM78.0031 104.9C77.8031 104.9 77.7031 104.8 77.7031 104.6C77.7031 104.2 77.7031 103.7 77.8031 103.3C77.8031 103.1 78.0031 103 78.1031 103.1C78.3031 103.1 78.4031 103.3 78.3031 103.4C78.2031 103.8 78.2031 104.2 78.2031 104.6C78.3031 104.8 78.2031 104.9 78.0031 104.9ZM90.1031 104.9C89.9031 104.9 89.8031 104.8 89.8031 104.6C89.8031 104.2 89.8031 103.8 89.7031 103.4C89.7031 103.2 89.8031 103.1 89.9031 103.1C90.1031 103.1 90.2031 103.2 90.2031 103.3C90.3031 103.7 90.3031 104.2 90.3031 104.6C90.4031 104.8 90.2031 104.9 90.1031 104.9ZM78.5031 102.4H78.4031C78.3031 102.3 78.2031 102.2 78.3031 102C78.5031 101.6 78.7031 101.2 79.0031 100.9C79.1031 100.8 79.3031 100.7 79.4031 100.8C79.5031 100.9 79.6031 101.1 79.5031 101.2C79.3031 101.5 79.1031 101.9 78.9031 102.2C78.7031 102.4 78.6031 102.4 78.5031 102.4ZM89.5031 102.4C89.4031 102.4 89.3031 102.3 89.2031 102.2C89.0031 101.8 88.8031 101.5 88.6031 101.2C88.5031 101.1 88.5031 100.9 88.7031 100.8C88.8031 100.7 89.0031 100.7 89.1031 100.9C89.4031 101.3 89.6031 101.6 89.8031 102C89.9031 102.1 89.8031 102.3 89.7031 102.4C89.6031 102.4 89.6031 102.4 89.5031 102.4ZM80.0031 100.4C79.9031 100.4 79.8031 100.4 79.8031 100.3C79.7031 100.2 79.7031 100 79.8031 99.9C80.1031 99.6 80.5031 99.3 80.9031 99.1C81.0031 99 81.2031 99.1 81.3031 99.2C81.4031 99.3 81.3031 99.5 81.2031 99.6C80.9031 99.8 80.5031 100 80.2031 100.3C80.1031 100.4 80.1031 100.4 80.0031 100.4ZM88.1031 100.4C88.0031 100.4 88.0031 100.4 87.9031 100.3C87.6031 100 87.3031 99.8 86.9031 99.6C86.8031 99.5 86.7031 99.3 86.8031 99.2C86.9031 99.1 87.1031 99 87.2031 99.1C87.6031 99.3 87.9031 99.6 88.3031 99.9C88.4031 100 88.4031 100.2 88.3031 100.3C88.2031 100.4 88.1031 100.4 88.1031 100.4ZM82.2031 99.2C82.1031 99.2 82.0031 99.1 81.9031 99C81.9031 98.8 81.9031 98.7 82.1031 98.6C82.5031 98.5 83.0031 98.4 83.4031 98.3C83.6031 98.3 83.7031 98.4 83.7031 98.6C83.7031 98.8 83.6031 98.9 83.4031 98.9C83.0031 98.9 82.6031 99 82.2031 99.2ZM85.9031 99.2C85.4031 99.1 85.0031 99 84.6031 98.9C84.4031 98.9 84.3031 98.7 84.3031 98.6C84.3031 98.4 84.5031 98.3 84.6031 98.3C85.0031 98.3 85.5031 98.4 85.9031 98.6C86.1031 98.6 86.1031 98.8 86.1031 99C86.1031 99.1 86.0031 99.2 85.9031 99.2Z" fill="#C5D0F0"/>
<path d="M93.0008 97.3999C89.4008 99.1999 86.4008 102 83.9008 105C82.5008 104.1 81.0008 103.3 79.4008 102.7L79.3008 102.8C80.7008 104.1 82.8008 106 84.2008 107.3C87.1008 104.2 90.3008 100.6 93.1008 97.3999H93.0008Z" fill="#FF699B"/>
<path d="M84.0031 133.5C83.8031 133.5 83.6031 133.5 83.4031 133.5C83.2031 133.5 83.1031 133.3 83.1031 133.2C83.1031 133 83.3031 132.9 83.4031 132.9C83.8031 132.9 84.2031 132.9 84.6031 132.9C84.8031 132.9 84.9031 133 84.9031 133.2C84.9031 133.4 84.8031 133.5 84.6031 133.5C84.5031 133.4 84.3031 133.5 84.0031 133.5ZM82.2031 133.2C81.7031 133.1 81.3031 132.9 80.9031 132.7C80.8031 132.6 80.7031 132.4 80.8031 132.3C80.9031 132.2 81.1031 132.1 81.2031 132.2C81.5031 132.4 81.9031 132.6 82.3031 132.7C82.5031 132.7 82.5031 132.9 82.5031 133.1C82.4031 133.1 82.3031 133.2 82.2031 133.2ZM85.9031 133.2C85.8031 133.2 85.7031 133.1 85.6031 133C85.6031 132.8 85.6031 132.7 85.8031 132.6C86.2031 132.5 86.5031 132.3 86.9031 132.1C87.0031 132 87.2031 132.1 87.3031 132.2C87.4031 132.3 87.3031 132.5 87.2031 132.6C86.8031 132.8 86.4031 133 85.9031 133.2ZM80.0031 131.9C79.9031 131.9 79.9031 131.9 79.8031 131.8C79.5031 131.5 79.2031 131.2 78.9031 130.8C78.8031 130.7 78.8031 130.5 79.0031 130.4C79.1031 130.3 79.3031 130.3 79.4031 130.5C79.6031 130.8 79.9031 131.1 80.2031 131.4C80.3031 131.5 80.3031 131.7 80.2031 131.8C80.2031 131.9 80.1031 131.9 80.0031 131.9ZM88.1031 131.9C88.0031 131.9 87.9031 131.9 87.9031 131.8C87.8031 131.7 87.8031 131.5 87.9031 131.4C88.2031 131.1 88.5031 130.8 88.7031 130.5C88.8031 130.4 89.0031 130.3 89.1031 130.4C89.2031 130.5 89.3031 130.7 89.2031 130.8C88.9031 131.2 88.6031 131.5 88.3031 131.8C88.2031 131.9 88.2031 131.9 88.1031 131.9ZM78.5031 129.9C78.4031 129.9 78.3031 129.8 78.2031 129.7C78.0031 129.3 77.9031 128.9 77.8031 128.4C77.8031 128.2 77.9031 128.1 78.0031 128.1C78.2031 128.1 78.3031 128.2 78.3031 128.3C78.4031 128.7 78.5031 129.1 78.7031 129.4C78.8031 129.5 78.7031 129.7 78.6031 129.8C78.6031 129.9 78.6031 129.9 78.5031 129.9ZM89.6031 129.9H89.5031C89.4031 129.8 89.3031 129.7 89.4031 129.5C89.6031 129.1 89.7031 128.7 89.8031 128.4C89.8031 128.2 90.0031 128.1 90.1031 128.2C90.3031 128.2 90.4031 128.4 90.3031 128.5C90.2031 128.9 90.1031 129.4 89.9031 129.8C89.8031 129.8 89.7031 129.9 89.6031 129.9ZM78.0031 127.4C77.8031 127.4 77.7031 127.3 77.7031 127.1C77.7031 126.7 77.7031 126.2 77.8031 125.8C77.8031 125.6 78.0031 125.5 78.1031 125.6C78.3031 125.6 78.4031 125.8 78.3031 125.9C78.2031 126.3 78.2031 126.7 78.2031 127.1C78.3031 127.3 78.2031 127.4 78.0031 127.4ZM90.1031 127.4C89.9031 127.4 89.8031 127.3 89.8031 127.1C89.8031 126.7 89.8031 126.3 89.7031 125.9C89.7031 125.7 89.8031 125.6 89.9031 125.6C90.1031 125.6 90.2031 125.7 90.2031 125.8C90.3031 126.2 90.3031 126.7 90.3031 127.1C90.4031 127.3 90.2031 127.4 90.1031 127.4ZM78.5031 125H78.4031C78.3031 124.9 78.2031 124.8 78.3031 124.6C78.5031 124.2 78.7031 123.8 79.0031 123.5C79.1031 123.4 79.3031 123.3 79.4031 123.4C79.5031 123.5 79.6031 123.7 79.5031 123.8C79.3031 124.1 79.1031 124.5 78.9031 124.8C78.7031 124.9 78.6031 125 78.5031 125ZM89.5031 125C89.4031 125 89.3031 124.9 89.2031 124.8C89.0031 124.4 88.8031 124.1 88.6031 123.8C88.5031 123.7 88.5031 123.5 88.7031 123.4C88.8031 123.3 89.0031 123.3 89.1031 123.5C89.4031 123.9 89.6031 124.2 89.8031 124.6C89.9031 124.7 89.8031 124.9 89.7031 125C89.6031 125 89.6031 125 89.5031 125ZM80.0031 122.9C79.9031 122.9 79.8031 122.9 79.8031 122.8C79.7031 122.7 79.7031 122.5 79.8031 122.4C80.1031 122.1 80.5031 121.8 80.9031 121.6C81.0031 121.5 81.2031 121.6 81.3031 121.7C81.4031 121.8 81.3031 122 81.2031 122.1C80.9031 122.3 80.5031 122.5 80.2031 122.8C80.1031 122.9 80.1031 122.9 80.0031 122.9ZM88.1031 122.9C88.0031 122.9 88.0031 122.9 87.9031 122.8C87.6031 122.5 87.3031 122.3 86.9031 122.1C86.8031 122 86.7031 121.8 86.8031 121.7C86.9031 121.6 87.1031 121.5 87.2031 121.6C87.6031 121.8 87.9031 122.1 88.3031 122.4C88.4031 122.5 88.4031 122.7 88.3031 122.8C88.2031 122.9 88.1031 122.9 88.1031 122.9ZM82.2031 121.7C82.1031 121.7 82.0031 121.6 81.9031 121.5C81.9031 121.3 81.9031 121.2 82.1031 121.1C82.5031 121 83.0031 120.9 83.4031 120.8C83.6031 120.8 83.7031 120.9 83.7031 121.1C83.7031 121.3 83.6031 121.4 83.4031 121.4C83.0031 121.5 82.6031 121.5 82.2031 121.7ZM85.9031 121.7C85.4031 121.6 85.0031 121.5 84.6031 121.4C84.4031 121.4 84.3031 121.2 84.3031 121.1C84.3031 120.9 84.5031 120.8 84.6031 120.8C85.0031 120.8 85.5031 120.9 85.9031 121.1C86.1031 121.1 86.1031 121.3 86.1031 121.5C86.1031 121.6 86.0031 121.7 85.9031 121.7Z" fill="#C5D0F0"/>
<path d="M93.0008 119.9C89.4008 121.7 86.4008 124.5 83.9008 127.5C82.5008 126.6 81.0008 125.8 79.4008 125.2L79.3008 125.3C80.7008 126.6 82.8008 128.5 84.2008 129.8C87.1008 126.7 90.3008 123.1 93.1008 119.9H93.0008Z" fill="#FF699B"/>
<path d="M84.0031 156C83.8031 156 83.6031 156 83.4031 156C83.2031 156 83.1031 155.8 83.1031 155.7C83.1031 155.5 83.3031 155.4 83.4031 155.4C83.8031 155.4 84.2031 155.4 84.6031 155.4C84.8031 155.4 84.9031 155.5 84.9031 155.7C84.9031 155.9 84.8031 156 84.6031 156C84.5031 156 84.3031 156 84.0031 156ZM82.2031 155.7C81.7031 155.6 81.3031 155.4 80.9031 155.2C80.8031 155.1 80.7031 154.9 80.8031 154.8C80.9031 154.7 81.1031 154.6 81.2031 154.7C81.5031 154.9 81.9031 155.1 82.3031 155.2C82.5031 155.2 82.5031 155.4 82.5031 155.6C82.4031 155.6 82.3031 155.7 82.2031 155.7ZM85.9031 155.7C85.8031 155.7 85.7031 155.6 85.6031 155.5C85.6031 155.3 85.6031 155.2 85.8031 155.1C86.2031 155 86.5031 154.8 86.9031 154.6C87.0031 154.5 87.2031 154.6 87.3031 154.7C87.4031 154.8 87.3031 155 87.2031 155.1C86.8031 155.3 86.4031 155.5 85.9031 155.7ZM80.0031 154.4C79.9031 154.4 79.9031 154.4 79.8031 154.3C79.5031 154 79.2031 153.7 78.9031 153.3C78.8031 153.2 78.8031 153 79.0031 152.9C79.1031 152.8 79.3031 152.8 79.4031 153C79.6031 153.3 79.9031 153.6 80.2031 153.9C80.3031 154 80.3031 154.2 80.2031 154.3C80.2031 154.4 80.1031 154.4 80.0031 154.4ZM88.1031 154.4C88.0031 154.4 87.9031 154.4 87.9031 154.3C87.8031 154.2 87.8031 154 87.9031 153.9C88.2031 153.6 88.5031 153.3 88.7031 153C88.8031 152.9 89.0031 152.8 89.1031 152.9C89.2031 153 89.3031 153.2 89.2031 153.3C88.9031 153.7 88.6031 154 88.3031 154.3C88.2031 154.4 88.2031 154.4 88.1031 154.4ZM78.5031 152.4C78.4031 152.4 78.3031 152.3 78.2031 152.2C78.0031 151.8 77.9031 151.4 77.8031 150.9C77.8031 150.7 77.9031 150.6 78.0031 150.6C78.2031 150.6 78.3031 150.7 78.3031 150.8C78.4031 151.2 78.5031 151.6 78.7031 151.9C78.8031 152 78.7031 152.2 78.6031 152.3C78.6031 152.4 78.6031 152.4 78.5031 152.4ZM89.6031 152.4H89.5031C89.4031 152.3 89.3031 152.2 89.4031 152C89.6031 151.6 89.7031 151.2 89.8031 150.9C89.8031 150.7 90.0031 150.6 90.1031 150.7C90.3031 150.7 90.4031 150.9 90.3031 151C90.2031 151.4 90.1031 151.9 89.9031 152.3C89.8031 152.3 89.7031 152.4 89.6031 152.4ZM78.0031 150C77.8031 150 77.7031 149.9 77.7031 149.7C77.7031 149.3 77.7031 148.8 77.8031 148.4C77.8031 148.2 78.0031 148.1 78.1031 148.2C78.3031 148.2 78.4031 148.4 78.3031 148.5C78.2031 148.9 78.2031 149.3 78.2031 149.7C78.3031 149.8 78.2031 150 78.0031 150ZM90.1031 149.9C89.9031 149.9 89.8031 149.8 89.8031 149.6C89.8031 149.2 89.8031 148.8 89.7031 148.4C89.7031 148.2 89.8031 148.1 89.9031 148.1C90.1031 148.1 90.2031 148.2 90.2031 148.3C90.3031 148.7 90.3031 149.2 90.3031 149.6C90.4031 149.8 90.2031 149.9 90.1031 149.9ZM78.5031 147.5H78.4031C78.3031 147.4 78.2031 147.3 78.3031 147.1C78.5031 146.7 78.7031 146.3 79.0031 146C79.1031 145.9 79.3031 145.8 79.4031 145.9C79.5031 146 79.6031 146.2 79.5031 146.3C79.3031 146.6 79.1031 147 78.9031 147.3C78.7031 147.4 78.6031 147.5 78.5031 147.5ZM89.5031 147.5C89.4031 147.5 89.3031 147.4 89.2031 147.3C89.0031 146.9 88.8031 146.6 88.6031 146.3C88.5031 146.2 88.5031 146 88.7031 145.9C88.8031 145.8 89.0031 145.8 89.1031 146C89.4031 146.4 89.6031 146.7 89.8031 147.1C89.9031 147.2 89.8031 147.4 89.7031 147.5C89.6031 147.5 89.6031 147.5 89.5031 147.5ZM80.0031 145.5C79.9031 145.5 79.8031 145.5 79.8031 145.4C79.7031 145.3 79.7031 145.1 79.8031 145C80.1031 144.7 80.5031 144.4 80.9031 144.2C81.0031 144.1 81.2031 144.2 81.3031 144.3C81.4031 144.4 81.3031 144.6 81.2031 144.7C80.9031 144.9 80.5031 145.1 80.2031 145.4C80.1031 145.4 80.1031 145.5 80.0031 145.5ZM88.1031 145.5C88.0031 145.5 88.0031 145.5 87.9031 145.4C87.6031 145.1 87.3031 144.9 86.9031 144.7C86.8031 144.6 86.7031 144.4 86.8031 144.3C86.9031 144.2 87.1031 144.1 87.2031 144.2C87.6031 144.4 87.9031 144.7 88.3031 145C88.4031 145.1 88.4031 145.3 88.3031 145.4C88.2031 145.4 88.1031 145.5 88.1031 145.5ZM82.2031 144.2C82.1031 144.2 82.0031 144.1 81.9031 144C81.9031 143.8 81.9031 143.7 82.1031 143.6C82.5031 143.5 83.0031 143.4 83.4031 143.3C83.6031 143.3 83.7031 143.4 83.7031 143.6C83.7031 143.8 83.6031 143.9 83.4031 143.9C83.0031 144 82.6031 144.1 82.2031 144.2ZM85.9031 144.2C85.4031 144.1 85.0031 144 84.6031 143.9C84.4031 143.9 84.3031 143.7 84.3031 143.6C84.3031 143.4 84.5031 143.3 84.6031 143.3C85.0031 143.3 85.5031 143.4 85.9031 143.6C86.1031 143.6 86.1031 143.8 86.1031 144C86.1031 144.1 86.0031 144.2 85.9031 144.2Z" fill="#C5D0F0"/>
<path d="M93.0008 142.4C89.4008 144.2 86.4008 147 83.9008 150C82.5008 149.1 81.0008 148.3 79.4008 147.7L79.3008 147.8C80.7008 149.1 82.8008 151 84.2008 152.3C87.1008 149.2 90.3008 145.6 93.1008 142.4H93.0008Z" fill="#FF699B"/>
<path d="M213.003 136H324.903C328.403 136 331.203 138.8 331.203 142.2V219.3C331.203 222.7 328.403 225.5 324.903 225.5H213.003C209.503 225.5 206.703 222.7 206.703 219.3V142.2C206.703 138.8 209.503 136 213.003 136Z" fill="#002548"/>
<path d="M214.502 144.8H323.202C326.602 144.8 329.302 147.3 329.302 150.3V218.9C329.302 221.9 326.602 224.4 323.202 224.4H214.502C211.102 224.4 208.402 221.9 208.402 218.9V150.3C208.402 147.2 211.202 144.8 214.502 144.8Z" fill="#F9FAFB"/>
<path d="M297.202 142.1H320.202C321.102 142.1 321.802 141.6 321.802 141C321.802 140.4 321.102 139.9 320.202 139.9H297.202C296.302 139.9 295.602 140.4 295.602 141C295.602 141.6 296.302 142.1 297.202 142.1Z" fill="white"/>
<path d="M244.3 176.4H239.5V186.4H244.3V176.4Z" fill="#54CC5A"/>
<path d="M252.902 169.9H248.102V186.3H252.902V169.9Z" fill="#0054A6"/>
<path d="M261.402 178.6H256.602V186.4H261.402V178.6Z" fill="#FFDD33"/>
<path d="M269.902 165H265.102V186.4H269.902V165Z" fill="#0054A6"/>
<path d="M278.499 170.8H273.699V186.3H278.499V170.8Z" fill="#54CC5A"/>
<path d="M286.999 165.7H282.199V186.4H286.999V165.7Z" fill="#0054A6"/>
<path d="M295.601 158H290.801V186.3H295.601V158Z" fill="#FFDD33"/>
<path d="M288.798 151.2L284.898 150.6L280.998 150C280.798 150 280.698 150.2 280.798 150.5L282.398 153.4L274.498 157.6L272.098 155.3L271.398 154.6L270.498 155L259.198 160.6L256.398 159.1L255.798 158.8L255.298 159L242.598 163.9C242.498 164 242.398 164.1 242.398 164.3C242.398 164.5 242.598 164.6 242.798 164.6L245.398 164.1L255.498 162L258.498 163.7L259.198 164.1L259.898 163.8L270.898 158.3L273.398 160.6L274.198 161.3L275.098 160.8L283.898 156.1L284.398 157.1L285.498 159C285.598 159.2 285.798 159.3 285.998 159.2C285.998 159.2 285.998 159.2 285.998 159.1L287.598 155.5L289.098 152.1L289.198 151.9C289.198 151.6 288.998 151.3 288.798 151.2Z" fill="#54CC5A"/>
<path d="M223.117 201.656C223.65 199.398 222.252 197.136 219.994 196.603C217.737 196.07 215.475 197.468 214.942 199.726C214.409 201.983 215.807 204.245 218.064 204.778C220.321 205.311 222.584 203.913 223.117 201.656Z" fill="#ED1C24"/>
<path d="M223.046 211.713C223.579 209.456 222.181 207.193 219.924 206.66C217.667 206.127 215.404 207.525 214.871 209.783C214.338 212.04 215.736 214.302 217.994 214.835C220.251 215.368 222.513 213.97 223.046 211.713Z" fill="#54CC5A"/>
<path d="M319.202 200.1H226.302C226.102 200.1 225.902 199.9 225.902 199.7C225.902 199.5 226.102 199.3 226.302 199.3H319.202C319.402 199.3 319.602 199.5 319.602 199.7C319.602 199.9 319.402 200.1 319.202 200.1Z" fill="#D2D9DC"/>
<path d="M319.202 203.1H226.302C226.102 203.1 225.902 202.9 225.902 202.7C225.902 202.5 226.102 202.3 226.302 202.3H319.202C319.402 202.3 319.602 202.5 319.602 202.7C319.602 203 319.402 203.1 319.202 203.1Z" fill="#D2D9DC"/>
<path d="M319.202 210.9H226.302C226.102 210.9 225.902 210.7 225.902 210.5C225.902 210.3 226.102 210.1 226.302 210.1H319.202C319.402 210.1 319.602 210.3 319.602 210.5C319.602 210.8 319.402 210.9 319.202 210.9Z" fill="#D2D9DC"/>
<path d="M319.202 214H226.302C226.102 214 225.902 213.8 225.902 213.6C225.902 213.4 226.102 213.2 226.302 213.2H319.202C319.402 213.2 319.602 213.4 319.602 213.6C319.602 213.8 319.402 214 319.202 214Z" fill="#D2D9DC"/>
<path d="M223.001 208.1C221.201 209 219.801 210.3 218.601 211.8C217.901 211.4 217.201 211 216.401 210.7L216.301 210.8C217.001 211.4 218.001 212.3 218.701 213C220.101 211.5 221.701 209.7 223.001 208.1Z" fill="white"/>
<path d="M220.801 203.3C221.101 203 221.401 202.7 221.601 202.4C220.901 201.8 220.201 201.2 219.501 200.6C220.201 200 220.901 199.4 221.501 198.7C221.201 198.4 220.901 198.1 220.701 197.8C220.101 198.5 219.501 199.2 218.901 199.9C218.301 199.2 217.701 198.5 217.101 197.8C216.801 198.1 216.501 198.4 216.301 198.7C217.001 199.3 217.701 199.9 218.301 200.5C217.601 201.1 217.001 201.7 216.301 202.4C216.601 202.7 216.901 203 217.101 203.3C217.701 202.6 218.301 201.9 218.901 201.2C219.601 201.9 220.201 202.6 220.801 203.3Z" fill="white"/>
<path d="M308.803 80.5L299.203 78.9L303.103 74.8L308.803 80.5Z" fill="#5F737C"/>
<path d="M299.603 80.6L288.203 74.3L303.503 77L299.603 80.6Z" fill="#D2D9DC"/>
<path d="M288.203 74.2L309.003 69.7L305.403 73.5L288.203 74.2Z" fill="#D2D9DC"/>
<path d="M288.203 74.2999L303.603 76.9999L308.803 80.4999L305.403 73.3999L288.203 74.2999Z" fill="#839299"/>
<path d="M336.802 141.4C336.602 141.4 336.502 141.3 336.402 141.2C336.202 141 336.302 140.6 336.502 140.4C337.702 139.5 338.902 138.4 339.902 137.3C340.102 137.1 340.502 137.1 340.702 137.3C340.902 137.5 340.902 137.9 340.702 138.1C339.602 139.2 338.402 140.3 337.202 141.3C337.102 141.4 336.902 141.4 336.802 141.4ZM343.402 134.7C343.302 134.7 343.202 134.7 343.102 134.6C342.902 134.4 342.802 134.1 343.002 133.8C343.902 132.6 344.802 131.3 345.502 129.9C345.602 129.6 346.002 129.6 346.202 129.7C346.502 129.8 346.502 130.2 346.402 130.4C345.602 131.8 344.702 133.1 343.802 134.4C343.702 134.7 343.502 134.7 343.402 134.7ZM348.002 126.6C347.902 126.6 347.902 126.6 347.802 126.6C347.502 126.5 347.402 126.2 347.502 125.9C348.102 124.5 348.602 123 349.002 121.5C349.102 121.2 349.402 121 349.702 121.1C350.002 121.2 350.202 121.5 350.102 121.8C349.702 123.3 349.202 124.8 348.602 126.3C348.402 126.5 348.202 126.6 348.002 126.6ZM350.402 117.6C350.002 117.6 349.802 117.3 349.902 117C349.902 116.7 350.002 116.3 350.002 116C350.102 115.3 350.102 114.5 350.102 113.9C350.102 113.4 350.102 112.9 350.002 112.5C350.002 112.2 350.202 111.9 350.502 111.9C350.802 111.9 351.102 112.1 351.102 112.4C351.102 112.9 351.202 113.4 351.202 113.9C351.202 114.6 351.202 115.4 351.102 116.1C351.102 116.5 351.002 116.8 351.002 117.2C350.902 117.4 350.702 117.6 350.402 117.6ZM344.702 111.7C344.502 111.7 344.202 111.7 344.002 111.7C343.702 111.7 343.502 111.4 343.502 111.1C343.502 110.8 343.802 110.6 344.102 110.6C344.302 110.6 344.502 110.6 344.702 110.6C345.902 110.6 347.102 110.1 348.102 109.3C348.302 109.1 348.702 109.1 348.902 109.4C349.102 109.6 349.102 110 348.802 110.2C347.602 111.1 346.102 111.7 344.702 111.7ZM340.602 108.8C340.402 108.8 340.202 108.7 340.102 108.4C340.002 107.9 339.902 107.4 339.902 106.9C339.902 105.7 340.402 104.6 341.202 103.9C341.302 103.8 341.502 103.7 341.602 103.6C341.902 103.4 342.202 103.5 342.302 103.8C342.502 104.1 342.402 104.4 342.102 104.5C342.002 104.6 341.902 104.6 341.802 104.7C341.202 105.2 340.902 106 340.902 106.9C340.902 107.3 341.002 107.7 341.102 108C341.202 108.3 341.002 108.6 340.702 108.7C340.802 108.8 340.702 108.8 340.602 108.8ZM349.502 108.3C349.302 108.3 349.102 108.2 349.002 108C348.502 106.9 347.802 106 346.902 105.3C346.702 105.1 346.402 105 346.202 104.8C345.902 104.7 345.802 104.3 346.002 104.1C346.102 103.8 346.502 103.7 346.702 103.9C347.002 104.1 347.302 104.3 347.602 104.5C348.602 105.3 349.402 106.4 350.002 107.6C350.102 107.9 350.002 108.2 349.702 108.3C349.702 108.3 349.602 108.3 349.502 108.3ZM350.802 106.4H350.702C350.402 106.3 350.202 106 350.302 105.7C350.502 104.8 350.602 103.9 350.602 102.9C350.602 102.6 350.602 102.3 350.602 102C350.602 101.8 350.602 101.5 350.502 101.3C350.502 101 350.702 100.7 351.002 100.7C351.302 100.7 351.602 100.9 351.602 101.2C351.602 101.5 351.702 101.7 351.702 102C351.702 102.3 351.702 102.7 351.702 103C351.702 104.1 351.602 105.1 351.302 106.1C351.202 106.2 351.002 106.4 350.802 106.4ZM349.802 97.2001C349.602 97.2001 349.402 97.1001 349.302 96.9001C348.702 95.5001 348.002 94.2001 347.002 92.9001C346.802 92.7001 346.902 92.3001 347.102 92.1001C347.302 91.9001 347.702 92.0001 347.902 92.2001C348.902 93.5001 349.702 94.9001 350.302 96.4001C350.402 96.7001 350.302 97.0001 350.002 97.1001C350.002 97.2001 349.902 97.2001 349.802 97.2001ZM344.402 89.7001C344.302 89.7001 344.102 89.7001 344.002 89.6001C342.902 88.6001 341.602 87.7001 340.302 86.8001C340.002 86.6001 340.002 86.3001 340.102 86.1001C340.302 85.8001 340.602 85.8001 340.802 85.9001C342.202 86.8001 343.502 87.7001 344.602 88.8001C344.802 89.0001 344.802 89.3001 344.602 89.6001C344.702 89.6001 344.502 89.7001 344.402 89.7001ZM336.402 84.7001C336.302 84.7001 336.302 84.7001 336.202 84.7001C334.802 84.1001 333.402 83.6001 331.802 83.2001C331.502 83.1001 331.302 82.8001 331.402 82.5001C331.502 82.2001 331.802 82.0001 332.102 82.1001C333.702 82.5001 335.202 83.0001 336.602 83.6001C336.902 83.7001 337.002 84.0001 336.902 84.3001C336.902 84.6001 336.702 84.7001 336.402 84.7001ZM327.402 82.3001C325.902 82.1001 324.402 81.9001 322.702 81.7001C322.402 81.7001 322.202 81.4001 322.202 81.1001C322.202 80.8001 322.502 80.6001 322.802 80.6001C324.502 80.8001 326.002 80.9001 327.502 81.2001C327.802 81.2001 328.002 81.5001 327.902 81.8001C327.902 82.1001 327.702 82.3001 327.402 82.3001ZM318.102 81.4001C316.502 81.3001 315.102 81.3001 313.402 81.2001C313.102 81.2001 312.902 80.9001 312.902 80.6001C312.902 80.3001 313.202 80.1001 313.502 80.1001C315.202 80.2001 316.702 80.2001 318.202 80.3001C318.502 80.3001 318.702 80.6001 318.702 80.9001C318.602 81.2001 318.402 81.4001 318.102 81.4001Z" fill="#D2D9DC"/>
<path d="M75.2023 86.3C75.9203 86.3 76.5023 85.7179 76.5023 85C76.5023 84.282 75.9203 83.7 75.2023 83.7C74.4844 83.7 73.9023 84.282 73.9023 85C73.9023 85.7179 74.4844 86.3 75.2023 86.3Z" fill="#ED1C24"/>
<path d="M79.0031 86.3C79.7211 86.3 80.3031 85.7179 80.3031 85C80.3031 84.282 79.7211 83.7 79.0031 83.7C78.2852 83.7 77.7031 84.282 77.7031 85C77.7031 85.7179 78.2852 86.3 79.0031 86.3Z" fill="#FFDD33"/>
<path d="M83.0031 86.3C83.7211 86.3 84.3031 85.7179 84.3031 85C84.3031 84.282 83.7211 83.7 83.0031 83.7C82.2852 83.7 81.7031 84.282 81.7031 85C81.7031 85.7179 82.2852 86.3 83.0031 86.3Z" fill="#54CC5A"/>
<path d="M214.702 141.5C215.42 141.5 216.002 140.918 216.002 140.2C216.002 139.482 215.42 138.9 214.702 138.9C213.984 138.9 213.402 139.482 213.402 140.2C213.402 140.918 213.984 141.5 214.702 141.5Z" fill="#ED1C24"/>
<path d="M218.601 141.5C219.319 141.5 219.901 140.918 219.901 140.2C219.901 139.482 219.319 138.9 218.601 138.9C217.883 138.9 217.301 139.482 217.301 140.2C217.301 140.918 217.883 141.5 218.601 141.5Z" fill="#FFDD33"/>
<path d="M222.601 141.5C223.319 141.5 223.901 140.918 223.901 140.2C223.901 139.482 223.319 138.9 222.601 138.9C221.883 138.9 221.301 139.482 221.301 140.2C221.301 140.918 221.883 141.5 222.601 141.5Z" fill="#54CC5A"/>
</svg>
