<svg width="420" height="332" viewBox="0 0 420 332" fill="none" xmlns="http://www.w3.org/2000/svg">
<path d="M297.9 278.9V53.1C297.9 47 292 42 284.8 42H115.1C107.9 42 102 47 102 53.1V278.9C102 285 107.9 290 115.1 290H284.8C292.1 290 297.9 285 297.9 278.9Z" fill="#002548"/>
<path d="M293.998 52.7001V267.2C293.998 271.3 289.898 274.6 284.798 274.6H115.098C109.998 274.6 105.898 271.3 105.898 267.2V52.7001C105.898 48.6001 109.998 45.3 115.098 45.3H284.798C289.898 45.3 293.998 48.6001 293.998 52.7001Z" fill="#F9FAFB"/>
<path d="M293.998 52.7001V61.3H105.898V52.7001C105.898 48.6001 109.998 45.3 115.098 45.3H284.798C289.898 45.3 293.998 48.6001 293.998 52.7001Z" fill="#0054A6"/>
<path d="M254.8 57.0999H132.7C130.9 57.0999 129.5 55.7 129.5 53.9C129.5 52.1 130.9 50.7 132.7 50.7H254.9C256.7 50.7 258.1 52.1 258.1 53.9C258.1 55.7 256.6 57.0999 254.8 57.0999Z" fill="#D2D9DC"/>
<path d="M122.298 57.0999H112.598C110.798 57.0999 109.398 55.7 109.398 53.9C109.398 52.1 110.798 50.7 112.598 50.7H122.298C124.098 50.7 125.498 52.1 125.498 53.9C125.498 55.7 123.998 57.0999 122.298 57.0999Z" fill="#D2D9DC"/>
<path d="M273.002 57.0999H264.802C263.002 57.0999 261.602 55.7 261.602 53.9C261.602 52.1 263.002 50.7 264.802 50.7H273.002C274.802 50.7 276.202 52.1 276.202 53.9C276.202 55.7 274.802 57.0999 273.002 57.0999Z" fill="#D2D9DC"/>
<path d="M289.4 51.8H280.1C279.8 51.8 279.5 51.5 279.5 51.2C279.5 50.9 279.8 50.6 280.1 50.6H289.4C289.7 50.6 290 50.9 290 51.2C290 51.6 289.8 51.8 289.4 51.8Z" fill="#D2D9DC"/>
<path d="M289.4 54.4999H280.1C279.8 54.4999 279.5 54.1999 279.5 53.8999C279.5 53.5999 279.8 53.2999 280.1 53.2999H289.4C289.7 53.2999 290 53.5999 290 53.8999C290 54.1999 289.8 54.4999 289.4 54.4999Z" fill="#D2D9DC"/>
<path d="M289.4 57.1H280.1C279.8 57.1 279.5 56.8 279.5 56.5C279.5 56.2 279.8 55.9 280.1 55.9H289.4C289.7 55.9 290 56.2 290 56.5C290 56.9 289.8 57.1 289.4 57.1Z" fill="#D2D9DC"/>
<path d="M203.403 118.1C198.403 118.1 193.503 116.4 189.703 113.1L203.603 98.5L221.003 108.8C219.203 111.4 216.803 113.6 214.103 115.2C210.803 117.2 207.103 118.1 203.403 118.1Z" fill="#54CC5A"/>
<path d="M204.703 95.6V75.7C215.403 76.3 224.003 84.9 224.703 95.6H204.703Z" fill="#54CC5A"/>
<path d="M212 98.8999H228.6C228.4 101.9 227.6 104.8 226.2 107.4L212 98.8999Z" fill="#FFDD33"/>
<path d="M187.8 111.4C184.1 107.5 182 102.4 182 96.9C182 85.6 190.9 76.4 202 75.7V96.4L187.8 111.4Z" fill="#0054A6"/>
<path d="M238.705 91.3C240.582 91.3 242.105 89.7778 242.105 87.9C242.105 86.0222 240.582 84.5 238.705 84.5C236.827 84.5 235.305 86.0222 235.305 87.9C235.305 89.7778 236.827 91.3 238.705 91.3Z" fill="#FFDD33"/>
<path d="M241.126 103.563C242.454 102.236 242.454 100.083 241.126 98.755C239.799 97.4273 237.646 97.4273 236.318 98.755C234.99 100.083 234.99 102.236 236.318 103.563C237.646 104.891 239.799 104.891 241.126 103.563Z" fill="#54CC5A"/>
<path d="M287.005 86.3999H249.305C249.005 86.3999 248.805 86.1999 248.805 85.8999C248.805 85.5999 249.005 85.3999 249.305 85.3999H287.005C287.305 85.3999 287.505 85.5999 287.505 85.8999C287.505 86.1999 287.305 86.3999 287.005 86.3999Z" fill="#D2D9DC"/>
<path d="M287.005 90.2H249.305C249.005 90.2 248.805 90 248.805 89.7C248.805 89.4 249.005 89.2 249.305 89.2H287.005C287.305 89.2 287.505 89.4 287.505 89.7C287.505 90 287.305 90.2 287.005 90.2Z" fill="#D2D9DC"/>
<path d="M287.005 100H249.305C249.005 100 248.805 99.8 248.805 99.5C248.805 99.2 249.005 99 249.305 99H287.005C287.305 99 287.505 99.2 287.505 99.5C287.505 99.8 287.305 100 287.005 100Z" fill="#D2D9DC"/>
<path d="M287.005 103.8H249.305C249.005 103.8 248.805 103.6 248.805 103.3C248.805 103 249.005 102.8 249.305 102.8H287.005C287.305 102.8 287.505 103 287.505 103.3C287.505 103.6 287.305 103.8 287.005 103.8Z" fill="#D2D9DC"/>
<path d="M184.503 175.4H122.203V207.6H184.503V175.4Z" fill="#0054A6"/>
<path d="M140.998 215.1H122.598C122.198 215.1 121.898 214.8 121.898 214.4C121.898 214 122.198 213.7 122.598 213.7H140.998C141.398 213.7 141.698 214 141.698 214.4C141.698 214.8 141.398 215.1 140.998 215.1Z" fill="#D2D9DC"/>
<path d="M173.397 215.1H144.997C144.597 215.1 144.297 214.8 144.297 214.4C144.297 214 144.597 213.7 144.997 213.7H173.497C173.897 213.7 174.197 214 174.197 214.4C174.097 214.8 173.797 215.1 173.397 215.1Z" fill="#D2D9DC"/>
<path d="M184.1 215.1H178.1C177.8 215.1 177.5 214.8 177.5 214.5C177.5 214.2 177.8 213.9 178.1 213.9H184.1C184.4 213.9 184.7 214.2 184.7 214.5C184.7 214.9 184.4 215.1 184.1 215.1Z" fill="#D2D9DC"/>
<path d="M183.998 222.6H122.598C122.198 222.6 121.898 222.3 121.898 221.9C121.898 221.5 122.198 221.2 122.598 221.2H183.998C184.398 221.2 184.698 221.5 184.698 221.9C184.698 222.3 184.398 222.6 183.998 222.6Z" fill="#D2D9DC"/>
<path d="M140.998 236.7H122.598C122.198 236.7 121.898 236.4 121.898 236C121.898 235.6 122.198 235.3 122.598 235.3H140.998C141.398 235.3 141.698 235.6 141.698 236C141.698 236.3 141.398 236.7 140.998 236.7Z" fill="#D2D9DC"/>
<path d="M173.397 236.7H144.997C144.597 236.7 144.297 236.4 144.297 236C144.297 235.6 144.597 235.3 144.997 235.3H173.497C173.897 235.3 174.197 235.6 174.197 236C174.097 236.3 173.797 236.7 173.397 236.7Z" fill="#D2D9DC"/>
<path d="M153.2 229.2H122.7C122.3 229.2 122 228.9 122 228.5C122 228.1 122.3 227.8 122.7 227.8H153.2C153.6 227.8 153.9 228.1 153.9 228.5C153.9 228.9 153.6 229.2 153.2 229.2Z" fill="#D2D9DC"/>
<path d="M183.997 229.2H160.497C160.097 229.2 159.797 228.9 159.797 228.5C159.797 228.1 160.097 227.8 160.497 227.8H183.997C184.397 227.8 184.697 228.1 184.697 228.5C184.697 228.9 184.397 229.2 183.997 229.2Z" fill="#D2D9DC"/>
<path d="M184.1 236.7H178.1C177.8 236.7 177.5 236.4 177.5 236.1C177.5 235.8 177.8 235.5 178.1 235.5H184.1C184.4 235.5 184.7 235.8 184.7 236.1C184.7 236.4 184.4 236.7 184.1 236.7Z" fill="#D2D9DC"/>
<path d="M135.204 198.7L142.904 186.5C143.304 185.8 144.204 185.9 144.504 186.5L151.104 198C151.504 198.7 152.404 198.7 152.804 197.9L154.304 194.9C154.704 194.1 155.704 194.1 156.004 194.9L157.304 197.5C157.704 198.3 158.804 198.3 159.104 197.4L162.604 187.3C162.904 186.3 164.204 186.3 164.504 187.4L167.904 199C168.104 199.7 167.604 200.5 167.004 200.5H136.004C135.204 200.6 134.804 199.5 135.204 198.7Z" fill="white"/>
<path d="M153.205 185.8C154.806 185.8 156.105 184.322 156.105 182.5C156.105 180.677 154.806 179.2 153.205 179.2C151.603 179.2 150.305 180.677 150.305 182.5C150.305 184.322 151.603 185.8 153.205 185.8Z" fill="white"/>
<path d="M144.103 181.1C144.003 181.1 144.003 181.1 143.903 181.1V181C143.903 180.3 143.403 179.7 142.703 179.7C142.203 179.7 141.703 180.1 141.603 180.7C141.503 180.6 141.303 180.5 141.103 180.5C140.803 180.5 140.603 180.7 140.503 180.9C140.403 180.8 140.303 180.8 140.103 180.8C139.603 180.8 139.203 181.3 139.203 181.9C139.203 182.5 139.603 183 140.103 183C140.303 183 140.503 182.9 140.703 182.8C141.003 183.1 141.503 183.3 142.103 183.3C142.603 183.3 143.103 183.1 143.503 182.9C143.603 183 143.803 183.1 144.003 183.1C144.403 183.1 144.803 182.7 144.803 182.2C144.903 181.5 144.503 181.1 144.103 181.1Z" fill="white"/>
<path d="M164.306 181.1C164.206 181.1 164.206 181.1 164.106 181.1V181C164.106 180.3 163.606 179.7 162.906 179.7C162.406 179.7 161.906 180.1 161.806 180.7C161.706 180.6 161.506 180.5 161.306 180.5C161.006 180.5 160.806 180.7 160.706 180.9C160.606 180.8 160.506 180.8 160.306 180.8C159.806 180.8 159.406 181.3 159.406 181.9C159.406 182.5 159.806 183 160.306 183C160.506 183 160.706 182.9 160.906 182.8C161.206 183.1 161.706 183.3 162.306 183.3C162.806 183.3 163.306 183.1 163.706 182.9C163.806 183 164.006 183.1 164.206 183.1C164.606 183.1 165.006 182.7 165.006 182.2C165.106 181.5 164.806 181.1 164.306 181.1Z" fill="white"/>
<path d="M73.3017 81.1001H161.602C164.302 81.1001 166.502 83.7001 166.502 86.8001V157.5C166.502 160.7 164.302 163.2 161.602 163.2H73.3017C70.6017 163.2 68.4017 160.6 68.4017 157.5V86.9001C68.3017 83.7001 70.5017 81.1001 73.3017 81.1001Z" fill="#002548"/>
<path d="M74.5031 89.1001H160.403C163.103 89.1001 165.203 91.4001 165.203 94.1001V157.1C165.203 159.9 163.003 162.1 160.403 162.1H74.5031C71.8031 162.1 69.7031 159.8 69.7031 157.1V94.1001C69.7031 91.4001 71.8031 89.1001 74.5031 89.1001Z" fill="#D2D9DC"/>
<path d="M139.8 86.7H157.9C158.6 86.7 159.2 86.2 159.2 85.7C159.2 85.1 158.6 84.7 157.9 84.7H139.8C139.1 84.7 138.5 85.2 138.5 85.7C138.5 86.2 139.1 86.7 139.8 86.7Z" fill="#F9FAFB"/>
<path d="M156.506 100.6L98.0062 100.5C97.6062 100.5 97.4062 100.1 97.4062 99.6999C97.4062 99.2999 97.7062 98.8999 98.0062 98.8999L156.506 98.9999C156.906 98.9999 157.106 99.3999 157.106 99.7999C157.206 100.2 156.906 100.6 156.506 100.6Z" fill="#C5D0F0"/>
<path d="M139.505 110L97.8047 109.9C97.5047 109.9 97.3047 109.5 97.3047 109.1C97.3047 108.7 97.5047 108.3 97.8047 108.3L139.505 108.4C139.805 108.4 140.005 108.8 140.005 109.2C140.005 109.6 139.805 110 139.505 110Z" fill="#C5D0F0"/>
<path d="M121.706 105.1H98.0062C97.6062 105.1 97.4062 104.7 97.4062 104.3C97.4062 103.9 97.7062 103.5 98.0062 103.5H121.706C122.106 103.5 122.306 103.9 122.306 104.3C122.306 104.7 122.106 105.1 121.706 105.1Z" fill="#C5D0F0"/>
<path d="M132.803 105.1H125.803C125.403 105.1 125.203 104.7 125.203 104.3C125.203 103.9 125.503 103.5 125.803 103.5H132.803C133.203 103.5 133.403 103.9 133.403 104.3C133.403 104.8 133.203 105.1 132.803 105.1Z" fill="#C5D0F0"/>
<path d="M156.506 122.8L98.0062 122.7C97.6062 122.7 97.4062 122.3 97.4062 121.9C97.4062 121.5 97.7062 121.1 98.0062 121.1L156.506 121.2C156.906 121.2 157.106 121.6 157.106 122C157.106 122.4 156.806 122.8 156.506 122.8Z" fill="#C5D0F0"/>
<path d="M139.505 132.2L97.8047 132.1C97.5047 132.1 97.3047 131.7 97.3047 131.3C97.3047 130.9 97.5047 130.5 97.8047 130.5L139.505 130.6C139.805 130.6 140.005 131 140.005 131.4C140.005 131.8 139.805 132.2 139.505 132.2Z" fill="#C5D0F0"/>
<path d="M121.706 127.3H98.0062C97.6062 127.3 97.4062 126.9 97.4062 126.5C97.4062 126.1 97.7062 125.7 98.0062 125.7H121.706C122.106 125.7 122.306 126.1 122.306 126.5C122.306 126.9 122.006 127.3 121.706 127.3Z" fill="#C5D0F0"/>
<path d="M132.803 127.3H125.803C125.403 127.3 125.203 126.9 125.203 126.5C125.203 126.1 125.503 125.7 125.803 125.7H132.803C133.203 125.7 133.403 126.1 133.403 126.5C133.403 127 133.103 127.3 132.803 127.3Z" fill="#C5D0F0"/>
<path d="M156.506 145L98.0062 144.9C97.6062 144.9 97.4062 144.5 97.4062 144.1C97.4062 143.7 97.7062 143.3 98.0062 143.3L156.506 143.4C156.906 143.4 157.106 143.8 157.106 144.2C157.106 144.6 156.806 145 156.506 145Z" fill="#C5D0F0"/>
<path d="M139.505 154.4L97.8047 154.3C97.5047 154.3 97.3047 153.9 97.3047 153.5C97.3047 153.1 97.5047 152.7 97.8047 152.7L139.505 152.8C139.805 152.8 140.005 153.2 140.005 153.6C139.905 154 139.705 154.4 139.505 154.4Z" fill="#C5D0F0"/>
<path d="M121.605 149.5H97.9047C97.5047 149.5 97.3047 149.1 97.3047 148.7C97.3047 148.3 97.6047 147.9 97.9047 147.9H121.605C122.005 147.9 122.205 148.3 122.205 148.7C122.305 149.1 122.005 149.5 121.605 149.5Z" fill="#C5D0F0"/>
<path d="M132.702 149.5H125.702C125.302 149.5 125.102 149.1 125.102 148.7C125.102 148.3 125.402 147.9 125.702 147.9H132.702C133.102 147.9 133.302 148.3 133.302 148.7C133.402 149.2 133.102 149.5 132.702 149.5Z" fill="#C5D0F0"/>
<path d="M84.0031 110.9C83.8031 110.9 83.6031 110.9 83.4031 110.9C83.2031 110.9 83.1031 110.7 83.1031 110.6C83.1031 110.4 83.3031 110.3 83.4031 110.3C83.8031 110.3 84.2031 110.3 84.6031 110.3C84.8031 110.3 84.9031 110.4 84.9031 110.6C84.9031 110.8 84.8031 110.9 84.6031 110.9C84.5031 110.9 84.3031 110.9 84.0031 110.9ZM82.2031 110.6C81.7031 110.5 81.3031 110.3 80.9031 110.1C80.8031 110 80.7031 109.8 80.8031 109.7C80.9031 109.6 81.1031 109.5 81.2031 109.6C81.5031 109.8 81.9031 110 82.3031 110.1C82.5031 110.1 82.5031 110.3 82.5031 110.5C82.4031 110.6 82.3031 110.6 82.2031 110.6ZM85.9031 110.6C85.8031 110.6 85.7031 110.5 85.6031 110.4C85.6031 110.2 85.6031 110.1 85.8031 110C86.2031 109.9 86.5031 109.7 86.9031 109.5C87.0031 109.4 87.2031 109.5 87.3031 109.6C87.4031 109.7 87.3031 109.9 87.2031 110C86.8031 110.3 86.4031 110.5 85.9031 110.6ZM80.0031 109.4C79.9031 109.4 79.9031 109.4 79.8031 109.3C79.5031 109 79.2031 108.7 78.9031 108.3C78.8031 108.2 78.8031 108 79.0031 107.9C79.1031 107.8 79.3031 107.8 79.4031 108C79.6031 108.3 79.9031 108.6 80.2031 108.9C80.3031 109 80.3031 109.2 80.2031 109.3C80.2031 109.4 80.1031 109.4 80.0031 109.4ZM88.1031 109.4C88.0031 109.4 87.9031 109.4 87.9031 109.3C87.8031 109.2 87.8031 109 87.9031 108.9C88.2031 108.6 88.5031 108.3 88.7031 108C88.8031 107.9 89.0031 107.8 89.1031 107.9C89.2031 108 89.3031 108.2 89.2031 108.3C88.9031 108.7 88.6031 109 88.3031 109.3C88.2031 109.4 88.2031 109.4 88.1031 109.4ZM78.5031 107.4C78.4031 107.4 78.3031 107.3 78.2031 107.2C78.0031 106.8 77.9031 106.4 77.8031 105.9C77.8031 105.7 77.9031 105.6 78.0031 105.6C78.2031 105.6 78.3031 105.7 78.3031 105.8C78.4031 106.2 78.5031 106.6 78.7031 106.9C78.8031 107 78.7031 107.2 78.6031 107.3C78.6031 107.4 78.6031 107.4 78.5031 107.4ZM89.6031 107.3H89.5031C89.4031 107.2 89.3031 107.1 89.4031 106.9C89.6031 106.5 89.7031 106.1 89.8031 105.8C89.8031 105.6 90.0031 105.5 90.1031 105.6C90.3031 105.6 90.4031 105.8 90.3031 105.9C90.2031 106.3 90.1031 106.8 89.9031 107.2C89.8031 107.3 89.7031 107.3 89.6031 107.3ZM78.0031 104.9C77.8031 104.9 77.7031 104.8 77.7031 104.6C77.7031 104.2 77.7031 103.7 77.8031 103.3C77.8031 103.1 78.0031 103 78.1031 103.1C78.3031 103.1 78.4031 103.3 78.3031 103.4C78.2031 103.8 78.2031 104.2 78.2031 104.6C78.3031 104.8 78.2031 104.9 78.0031 104.9ZM90.1031 104.9C89.9031 104.9 89.8031 104.8 89.8031 104.6C89.8031 104.2 89.8031 103.8 89.7031 103.4C89.7031 103.2 89.8031 103.1 89.9031 103.1C90.1031 103.1 90.2031 103.2 90.2031 103.3C90.3031 103.7 90.3031 104.2 90.3031 104.6C90.4031 104.8 90.2031 104.9 90.1031 104.9ZM78.5031 102.4H78.4031C78.3031 102.3 78.2031 102.2 78.3031 102C78.5031 101.6 78.7031 101.2 79.0031 100.9C79.1031 100.8 79.3031 100.7 79.4031 100.8C79.5031 100.9 79.6031 101.1 79.5031 101.2C79.3031 101.5 79.1031 101.9 78.9031 102.2C78.7031 102.4 78.6031 102.4 78.5031 102.4ZM89.5031 102.4C89.4031 102.4 89.3031 102.3 89.2031 102.2C89.0031 101.8 88.8031 101.5 88.6031 101.2C88.5031 101.1 88.5031 100.9 88.7031 100.8C88.8031 100.7 89.0031 100.7 89.1031 100.9C89.4031 101.3 89.6031 101.6 89.8031 102C89.9031 102.1 89.8031 102.3 89.7031 102.4C89.6031 102.4 89.6031 102.4 89.5031 102.4ZM80.0031 100.4C79.9031 100.4 79.8031 100.4 79.8031 100.3C79.7031 100.2 79.7031 100 79.8031 99.9C80.1031 99.6 80.5031 99.3 80.9031 99.1C81.0031 99 81.2031 99.1 81.3031 99.2C81.4031 99.3 81.3031 99.5 81.2031 99.6C80.9031 99.8 80.5031 100 80.2031 100.3C80.1031 100.4 80.1031 100.4 80.0031 100.4ZM88.1031 100.4C88.0031 100.4 88.0031 100.4 87.9031 100.3C87.6031 100 87.3031 99.8 86.9031 99.6C86.8031 99.5 86.7031 99.3 86.8031 99.2C86.9031 99.1 87.1031 99 87.2031 99.1C87.6031 99.3 87.9031 99.6 88.3031 99.9C88.4031 100 88.4031 100.2 88.3031 100.3C88.2031 100.4 88.1031 100.4 88.1031 100.4ZM82.2031 99.2C82.1031 99.2 82.0031 99.1 81.9031 99C81.9031 98.8 81.9031 98.7 82.1031 98.6C82.5031 98.5 83.0031 98.4 83.4031 98.3C83.6031 98.3 83.7031 98.4 83.7031 98.6C83.7031 98.8 83.6031 98.9 83.4031 98.9C83.0031 98.9 82.6031 99 82.2031 99.2ZM85.9031 99.2C85.4031 99.1 85.0031 99 84.6031 98.9C84.4031 98.9 84.3031 98.7 84.3031 98.6C84.3031 98.4 84.5031 98.3 84.6031 98.3C85.0031 98.3 85.5031 98.4 85.9031 98.6C86.1031 98.6 86.1031 98.8 86.1031 99C86.1031 99.1 86.0031 99.2 85.9031 99.2Z" fill="#C5D0F0"/>
<path d="M93.0047 97.3999C89.4047 99.1999 86.4047 102 83.9047 105C82.5047 104.1 81.0047 103.3 79.4047 102.7L79.3047 102.8C80.7047 104.1 82.8047 106 84.2047 107.3C87.1047 104.2 90.3047 100.6 93.1047 97.3999H93.0047Z" fill="#FF699B"/>
<path d="M84.0031 133.5C83.8031 133.5 83.6031 133.5 83.4031 133.5C83.2031 133.5 83.1031 133.3 83.1031 133.2C83.1031 133 83.3031 132.9 83.4031 132.9C83.8031 132.9 84.2031 132.9 84.6031 132.9C84.8031 132.9 84.9031 133 84.9031 133.2C84.9031 133.4 84.8031 133.5 84.6031 133.5C84.5031 133.4 84.3031 133.5 84.0031 133.5ZM82.2031 133.2C81.7031 133.1 81.3031 132.9 80.9031 132.7C80.8031 132.6 80.7031 132.4 80.8031 132.3C80.9031 132.2 81.1031 132.1 81.2031 132.2C81.5031 132.4 81.9031 132.6 82.3031 132.7C82.5031 132.7 82.5031 132.9 82.5031 133.1C82.4031 133.1 82.3031 133.2 82.2031 133.2ZM85.9031 133.2C85.8031 133.2 85.7031 133.1 85.6031 133C85.6031 132.8 85.6031 132.7 85.8031 132.6C86.2031 132.5 86.5031 132.3 86.9031 132.1C87.0031 132 87.2031 132.1 87.3031 132.2C87.4031 132.3 87.3031 132.5 87.2031 132.6C86.8031 132.8 86.4031 133 85.9031 133.2ZM80.0031 131.9C79.9031 131.9 79.9031 131.9 79.8031 131.8C79.5031 131.5 79.2031 131.2 78.9031 130.8C78.8031 130.7 78.8031 130.5 79.0031 130.4C79.1031 130.3 79.3031 130.3 79.4031 130.5C79.6031 130.8 79.9031 131.1 80.2031 131.4C80.3031 131.5 80.3031 131.7 80.2031 131.8C80.2031 131.9 80.1031 131.9 80.0031 131.9ZM88.1031 131.9C88.0031 131.9 87.9031 131.9 87.9031 131.8C87.8031 131.7 87.8031 131.5 87.9031 131.4C88.2031 131.1 88.5031 130.8 88.7031 130.5C88.8031 130.4 89.0031 130.3 89.1031 130.4C89.2031 130.5 89.3031 130.7 89.2031 130.8C88.9031 131.2 88.6031 131.5 88.3031 131.8C88.2031 131.9 88.2031 131.9 88.1031 131.9ZM78.5031 129.9C78.4031 129.9 78.3031 129.8 78.2031 129.7C78.0031 129.3 77.9031 128.9 77.8031 128.4C77.8031 128.2 77.9031 128.1 78.0031 128.1C78.2031 128.1 78.3031 128.2 78.3031 128.3C78.4031 128.7 78.5031 129.1 78.7031 129.4C78.8031 129.5 78.7031 129.7 78.6031 129.8C78.6031 129.9 78.6031 129.9 78.5031 129.9ZM89.6031 129.9H89.5031C89.4031 129.8 89.3031 129.7 89.4031 129.5C89.6031 129.1 89.7031 128.7 89.8031 128.4C89.8031 128.2 90.0031 128.1 90.1031 128.2C90.3031 128.2 90.4031 128.4 90.3031 128.5C90.2031 128.9 90.1031 129.4 89.9031 129.8C89.8031 129.8 89.7031 129.9 89.6031 129.9ZM78.0031 127.4C77.8031 127.4 77.7031 127.3 77.7031 127.1C77.7031 126.7 77.7031 126.2 77.8031 125.8C77.8031 125.6 78.0031 125.5 78.1031 125.6C78.3031 125.6 78.4031 125.8 78.3031 125.9C78.2031 126.3 78.2031 126.7 78.2031 127.1C78.3031 127.3 78.2031 127.4 78.0031 127.4ZM90.1031 127.4C89.9031 127.4 89.8031 127.3 89.8031 127.1C89.8031 126.7 89.8031 126.3 89.7031 125.9C89.7031 125.7 89.8031 125.6 89.9031 125.6C90.1031 125.6 90.2031 125.7 90.2031 125.8C90.3031 126.2 90.3031 126.7 90.3031 127.1C90.4031 127.3 90.2031 127.4 90.1031 127.4ZM78.5031 125H78.4031C78.3031 124.9 78.2031 124.8 78.3031 124.6C78.5031 124.2 78.7031 123.8 79.0031 123.5C79.1031 123.4 79.3031 123.3 79.4031 123.4C79.5031 123.5 79.6031 123.7 79.5031 123.8C79.3031 124.1 79.1031 124.5 78.9031 124.8C78.7031 124.9 78.6031 125 78.5031 125ZM89.5031 125C89.4031 125 89.3031 124.9 89.2031 124.8C89.0031 124.4 88.8031 124.1 88.6031 123.8C88.5031 123.7 88.5031 123.5 88.7031 123.4C88.8031 123.3 89.0031 123.3 89.1031 123.5C89.4031 123.9 89.6031 124.2 89.8031 124.6C89.9031 124.7 89.8031 124.9 89.7031 125C89.6031 125 89.6031 125 89.5031 125ZM80.0031 122.9C79.9031 122.9 79.8031 122.9 79.8031 122.8C79.7031 122.7 79.7031 122.5 79.8031 122.4C80.1031 122.1 80.5031 121.8 80.9031 121.6C81.0031 121.5 81.2031 121.6 81.3031 121.7C81.4031 121.8 81.3031 122 81.2031 122.1C80.9031 122.3 80.5031 122.5 80.2031 122.8C80.1031 122.9 80.1031 122.9 80.0031 122.9ZM88.1031 122.9C88.0031 122.9 88.0031 122.9 87.9031 122.8C87.6031 122.5 87.3031 122.3 86.9031 122.1C86.8031 122 86.7031 121.8 86.8031 121.7C86.9031 121.6 87.1031 121.5 87.2031 121.6C87.6031 121.8 87.9031 122.1 88.3031 122.4C88.4031 122.5 88.4031 122.7 88.3031 122.8C88.2031 122.9 88.1031 122.9 88.1031 122.9ZM82.2031 121.7C82.1031 121.7 82.0031 121.6 81.9031 121.5C81.9031 121.3 81.9031 121.2 82.1031 121.1C82.5031 121 83.0031 120.9 83.4031 120.8C83.6031 120.8 83.7031 120.9 83.7031 121.1C83.7031 121.3 83.6031 121.4 83.4031 121.4C83.0031 121.5 82.6031 121.5 82.2031 121.7ZM85.9031 121.7C85.4031 121.6 85.0031 121.5 84.6031 121.4C84.4031 121.4 84.3031 121.2 84.3031 121.1C84.3031 120.9 84.5031 120.8 84.6031 120.8C85.0031 120.8 85.5031 120.9 85.9031 121.1C86.1031 121.1 86.1031 121.3 86.1031 121.5C86.1031 121.6 86.0031 121.7 85.9031 121.7Z" fill="#C5D0F0"/>
<path d="M93.0047 119.9C89.4047 121.7 86.4047 124.5 83.9047 127.5C82.5047 126.6 81.0047 125.8 79.4047 125.2L79.3047 125.3C80.7047 126.6 82.8047 128.5 84.2047 129.8C87.1047 126.7 90.3047 123.1 93.1047 119.9H93.0047Z" fill="#FF699B"/>
<path d="M84.0031 156C83.8031 156 83.6031 156 83.4031 156C83.2031 156 83.1031 155.8 83.1031 155.7C83.1031 155.5 83.3031 155.4 83.4031 155.4C83.8031 155.4 84.2031 155.4 84.6031 155.4C84.8031 155.4 84.9031 155.5 84.9031 155.7C84.9031 155.9 84.8031 156 84.6031 156C84.5031 156 84.3031 156 84.0031 156ZM82.2031 155.7C81.7031 155.6 81.3031 155.4 80.9031 155.2C80.8031 155.1 80.7031 154.9 80.8031 154.8C80.9031 154.7 81.1031 154.6 81.2031 154.7C81.5031 154.9 81.9031 155.1 82.3031 155.2C82.5031 155.2 82.5031 155.4 82.5031 155.6C82.4031 155.6 82.3031 155.7 82.2031 155.7ZM85.9031 155.7C85.8031 155.7 85.7031 155.6 85.6031 155.5C85.6031 155.3 85.6031 155.2 85.8031 155.1C86.2031 155 86.5031 154.8 86.9031 154.6C87.0031 154.5 87.2031 154.6 87.3031 154.7C87.4031 154.8 87.3031 155 87.2031 155.1C86.8031 155.3 86.4031 155.5 85.9031 155.7ZM80.0031 154.4C79.9031 154.4 79.9031 154.4 79.8031 154.3C79.5031 154 79.2031 153.7 78.9031 153.3C78.8031 153.2 78.8031 153 79.0031 152.9C79.1031 152.8 79.3031 152.8 79.4031 153C79.6031 153.3 79.9031 153.6 80.2031 153.9C80.3031 154 80.3031 154.2 80.2031 154.3C80.2031 154.4 80.1031 154.4 80.0031 154.4ZM88.1031 154.4C88.0031 154.4 87.9031 154.4 87.9031 154.3C87.8031 154.2 87.8031 154 87.9031 153.9C88.2031 153.6 88.5031 153.3 88.7031 153C88.8031 152.9 89.0031 152.8 89.1031 152.9C89.2031 153 89.3031 153.2 89.2031 153.3C88.9031 153.7 88.6031 154 88.3031 154.3C88.2031 154.4 88.2031 154.4 88.1031 154.4ZM78.5031 152.4C78.4031 152.4 78.3031 152.3 78.2031 152.2C78.0031 151.8 77.9031 151.4 77.8031 150.9C77.8031 150.7 77.9031 150.6 78.0031 150.6C78.2031 150.6 78.3031 150.7 78.3031 150.8C78.4031 151.2 78.5031 151.6 78.7031 151.9C78.8031 152 78.7031 152.2 78.6031 152.3C78.6031 152.4 78.6031 152.4 78.5031 152.4ZM89.6031 152.4H89.5031C89.4031 152.3 89.3031 152.2 89.4031 152C89.6031 151.6 89.7031 151.2 89.8031 150.9C89.8031 150.7 90.0031 150.6 90.1031 150.7C90.3031 150.7 90.4031 150.9 90.3031 151C90.2031 151.4 90.1031 151.9 89.9031 152.3C89.8031 152.3 89.7031 152.4 89.6031 152.4ZM78.0031 150C77.8031 150 77.7031 149.9 77.7031 149.7C77.7031 149.3 77.7031 148.8 77.8031 148.4C77.8031 148.2 78.0031 148.1 78.1031 148.2C78.3031 148.2 78.4031 148.4 78.3031 148.5C78.2031 148.9 78.2031 149.3 78.2031 149.7C78.3031 149.8 78.2031 150 78.0031 150ZM90.1031 149.9C89.9031 149.9 89.8031 149.8 89.8031 149.6C89.8031 149.2 89.8031 148.8 89.7031 148.4C89.7031 148.2 89.8031 148.1 89.9031 148.1C90.1031 148.1 90.2031 148.2 90.2031 148.3C90.3031 148.7 90.3031 149.2 90.3031 149.6C90.4031 149.8 90.2031 149.9 90.1031 149.9ZM78.5031 147.5H78.4031C78.3031 147.4 78.2031 147.3 78.3031 147.1C78.5031 146.7 78.7031 146.3 79.0031 146C79.1031 145.9 79.3031 145.8 79.4031 145.9C79.5031 146 79.6031 146.2 79.5031 146.3C79.3031 146.6 79.1031 147 78.9031 147.3C78.7031 147.4 78.6031 147.5 78.5031 147.5ZM89.5031 147.5C89.4031 147.5 89.3031 147.4 89.2031 147.3C89.0031 146.9 88.8031 146.6 88.6031 146.3C88.5031 146.2 88.5031 146 88.7031 145.9C88.8031 145.8 89.0031 145.8 89.1031 146C89.4031 146.4 89.6031 146.7 89.8031 147.1C89.9031 147.2 89.8031 147.4 89.7031 147.5C89.6031 147.5 89.6031 147.5 89.5031 147.5ZM80.0031 145.5C79.9031 145.5 79.8031 145.5 79.8031 145.4C79.7031 145.3 79.7031 145.1 79.8031 145C80.1031 144.7 80.5031 144.4 80.9031 144.2C81.0031 144.1 81.2031 144.2 81.3031 144.3C81.4031 144.4 81.3031 144.6 81.2031 144.7C80.9031 144.9 80.5031 145.1 80.2031 145.4C80.1031 145.4 80.1031 145.5 80.0031 145.5ZM88.1031 145.5C88.0031 145.5 88.0031 145.5 87.9031 145.4C87.6031 145.1 87.3031 144.9 86.9031 144.7C86.8031 144.6 86.7031 144.4 86.8031 144.3C86.9031 144.2 87.1031 144.1 87.2031 144.2C87.6031 144.4 87.9031 144.7 88.3031 145C88.4031 145.1 88.4031 145.3 88.3031 145.4C88.2031 145.4 88.1031 145.5 88.1031 145.5ZM82.2031 144.2C82.1031 144.2 82.0031 144.1 81.9031 144C81.9031 143.8 81.9031 143.7 82.1031 143.6C82.5031 143.5 83.0031 143.4 83.4031 143.3C83.6031 143.3 83.7031 143.4 83.7031 143.6C83.7031 143.8 83.6031 143.9 83.4031 143.9C83.0031 144 82.6031 144.1 82.2031 144.2ZM85.9031 144.2C85.4031 144.1 85.0031 144 84.6031 143.9C84.4031 143.9 84.3031 143.7 84.3031 143.6C84.3031 143.4 84.5031 143.3 84.6031 143.3C85.0031 143.3 85.5031 143.4 85.9031 143.6C86.1031 143.6 86.1031 143.8 86.1031 144C86.1031 144.1 86.0031 144.2 85.9031 144.2Z" fill="#C5D0F0"/>
<path d="M93.0047 142.4C89.4047 144.2 86.4047 147 83.9047 150C82.5047 149.1 81.0047 148.3 79.4047 147.7L79.3047 147.8C80.7047 149.1 82.8047 151 84.2047 152.3C87.1047 149.2 90.3047 145.6 93.1047 142.4H93.0047Z" fill="#FF699B"/>
<path d="M213.003 136H324.903C328.403 136 331.203 138.8 331.203 142.2V219.3C331.203 222.7 328.403 225.5 324.903 225.5H213.003C209.503 225.5 206.703 222.7 206.703 219.3V142.2C206.703 138.8 209.503 136 213.003 136Z" fill="#002548"/>
<path d="M214.506 144.8H323.206C326.606 144.8 329.306 147.3 329.306 150.3V218.9C329.306 221.9 326.606 224.4 323.206 224.4H214.506C211.106 224.4 208.406 221.9 208.406 218.9V150.3C208.406 147.2 211.206 144.8 214.506 144.8Z" fill="#F9FAFB"/>
<path d="M297.202 142.1H320.202C321.102 142.1 321.802 141.6 321.802 141C321.802 140.4 321.102 139.9 320.202 139.9H297.202C296.302 139.9 295.602 140.4 295.602 141C295.602 141.6 296.302 142.1 297.202 142.1Z" fill="white"/>
<path d="M244.3 176.4H239.5V186.4H244.3V176.4Z" fill="#54CC5A"/>
<path d="M252.902 169.9H248.102V186.3H252.902V169.9Z" fill="#0054A6"/>
<path d="M261.402 178.6H256.602V186.4H261.402V178.6Z" fill="#FFDD33"/>
<path d="M269.902 165H265.102V186.4H269.902V165Z" fill="#0054A6"/>
<path d="M278.503 170.8H273.703V186.3H278.503V170.8Z" fill="#54CC5A"/>
<path d="M287.003 165.7H282.203V186.4H287.003V165.7Z" fill="#0054A6"/>
<path d="M295.597 158H290.797V186.3H295.597V158Z" fill="#FFDD33"/>
<path d="M288.798 151.2L284.898 150.6L280.998 150C280.798 150 280.698 150.2 280.798 150.5L282.398 153.4L274.498 157.6L272.098 155.3L271.398 154.6L270.498 155L259.198 160.6L256.398 159.1L255.798 158.8L255.298 159L242.598 163.9C242.498 164 242.398 164.1 242.398 164.3C242.398 164.5 242.598 164.6 242.798 164.6L245.398 164.1L255.498 162L258.498 163.7L259.198 164.1L259.898 163.8L270.898 158.3L273.398 160.6L274.198 161.3L275.098 160.8L283.898 156.1L284.398 157.1L285.498 159C285.598 159.2 285.798 159.3 285.998 159.2C285.998 159.2 285.998 159.2 285.998 159.1L287.598 155.5L289.098 152.1L289.198 151.9C289.198 151.6 288.998 151.3 288.798 151.2Z" fill="#54CC5A"/>
<path d="M223.117 201.656C223.65 199.398 222.252 197.136 219.994 196.603C217.737 196.07 215.475 197.468 214.942 199.726C214.409 201.983 215.807 204.245 218.064 204.778C220.321 205.311 222.584 203.913 223.117 201.656Z" fill="#ED1C24"/>
<path d="M223.046 211.713C223.579 209.456 222.181 207.193 219.924 206.66C217.667 206.127 215.404 207.525 214.871 209.783C214.338 212.04 215.736 214.302 217.994 214.835C220.251 215.368 222.513 213.97 223.046 211.713Z" fill="#54CC5A"/>
<path d="M319.198 200.1H226.298C226.098 200.1 225.898 199.9 225.898 199.7C225.898 199.5 226.098 199.3 226.298 199.3H319.198C319.398 199.3 319.598 199.5 319.598 199.7C319.598 199.9 319.398 200.1 319.198 200.1Z" fill="#D2D9DC"/>
<path d="M319.198 203.1H226.298C226.098 203.1 225.898 202.9 225.898 202.7C225.898 202.5 226.098 202.3 226.298 202.3H319.198C319.398 202.3 319.598 202.5 319.598 202.7C319.598 203 319.398 203.1 319.198 203.1Z" fill="#D2D9DC"/>
<path d="M319.198 210.9H226.298C226.098 210.9 225.898 210.7 225.898 210.5C225.898 210.3 226.098 210.1 226.298 210.1H319.198C319.398 210.1 319.598 210.3 319.598 210.5C319.598 210.8 319.398 210.9 319.198 210.9Z" fill="#D2D9DC"/>
<path d="M319.198 214H226.298C226.098 214 225.898 213.8 225.898 213.6C225.898 213.4 226.098 213.2 226.298 213.2H319.198C319.398 213.2 319.598 213.4 319.598 213.6C319.598 213.8 319.398 214 319.198 214Z" fill="#D2D9DC"/>
<path d="M223.005 208.1C221.205 209 219.805 210.3 218.605 211.8C217.905 211.4 217.205 211 216.405 210.7L216.305 210.8C217.005 211.4 218.005 212.3 218.705 213C220.105 211.5 221.705 209.7 223.005 208.1Z" fill="white"/>
<path d="M220.805 203.3C221.105 203 221.405 202.7 221.605 202.4C220.905 201.8 220.205 201.2 219.505 200.6C220.205 200 220.905 199.4 221.505 198.7C221.205 198.4 220.905 198.1 220.705 197.8C220.105 198.5 219.505 199.2 218.905 199.9C218.305 199.2 217.705 198.5 217.105 197.8C216.805 198.1 216.505 198.4 216.305 198.7C217.005 199.3 217.705 199.9 218.305 200.5C217.605 201.1 217.005 201.7 216.305 202.4C216.605 202.7 216.905 203 217.105 203.3C217.705 202.6 218.305 201.9 218.905 201.2C219.605 201.9 220.205 202.6 220.805 203.3Z" fill="white"/>
<path d="M308.803 80.5L299.203 78.9L303.103 74.8L308.803 80.5Z" fill="#5F737C"/>
<path d="M299.603 80.6L288.203 74.3L303.503 77L299.603 80.6Z" fill="#D2D9DC"/>
<path d="M288.203 74.2L309.003 69.7L305.403 73.5L288.203 74.2Z" fill="#D2D9DC"/>
<path d="M288.203 74.2999L303.603 76.9999L308.803 80.4999L305.403 73.3999L288.203 74.2999Z" fill="#839299"/>
<path d="M336.798 141.4C336.598 141.4 336.498 141.3 336.398 141.2C336.198 141 336.298 140.6 336.498 140.4C337.698 139.5 338.898 138.4 339.898 137.3C340.098 137.1 340.498 137.1 340.698 137.3C340.898 137.5 340.898 137.9 340.698 138.1C339.598 139.2 338.398 140.3 337.198 141.3C337.098 141.4 336.898 141.4 336.798 141.4ZM343.398 134.7C343.298 134.7 343.198 134.7 343.098 134.6C342.898 134.4 342.798 134.1 342.998 133.8C343.898 132.6 344.798 131.3 345.498 129.9C345.598 129.6 345.998 129.6 346.198 129.7C346.498 129.8 346.498 130.2 346.398 130.4C345.598 131.8 344.698 133.1 343.798 134.4C343.698 134.7 343.498 134.7 343.398 134.7ZM347.998 126.6C347.898 126.6 347.898 126.6 347.798 126.6C347.498 126.5 347.398 126.2 347.498 125.9C348.098 124.5 348.598 123 348.998 121.5C349.098 121.2 349.398 121 349.698 121.1C349.998 121.2 350.198 121.5 350.098 121.8C349.698 123.3 349.198 124.8 348.598 126.3C348.398 126.5 348.198 126.6 347.998 126.6ZM350.398 117.6C349.998 117.6 349.798 117.3 349.898 117C349.898 116.7 349.998 116.3 349.998 116C350.098 115.3 350.098 114.5 350.098 113.9C350.098 113.4 350.098 112.9 349.998 112.5C349.998 112.2 350.198 111.9 350.498 111.9C350.798 111.9 351.098 112.1 351.098 112.4C351.098 112.9 351.198 113.4 351.198 113.9C351.198 114.6 351.198 115.4 351.098 116.1C351.098 116.5 350.998 116.8 350.998 117.2C350.898 117.4 350.698 117.6 350.398 117.6ZM344.698 111.7C344.498 111.7 344.198 111.7 343.998 111.7C343.698 111.7 343.498 111.4 343.498 111.1C343.498 110.8 343.798 110.6 344.098 110.6C344.298 110.6 344.498 110.6 344.698 110.6C345.898 110.6 347.098 110.1 348.098 109.3C348.298 109.1 348.698 109.1 348.898 109.4C349.098 109.6 349.098 110 348.798 110.2C347.598 111.1 346.098 111.7 344.698 111.7ZM340.598 108.8C340.398 108.8 340.198 108.7 340.098 108.4C339.998 107.9 339.898 107.4 339.898 106.9C339.898 105.7 340.398 104.6 341.198 103.9C341.298 103.8 341.498 103.7 341.598 103.6C341.898 103.4 342.198 103.5 342.298 103.8C342.498 104.1 342.398 104.4 342.098 104.5C341.998 104.6 341.898 104.6 341.798 104.7C341.198 105.2 340.898 106 340.898 106.9C340.898 107.3 340.998 107.7 341.098 108C341.198 108.3 340.998 108.6 340.698 108.7C340.798 108.8 340.698 108.8 340.598 108.8ZM349.498 108.3C349.298 108.3 349.098 108.2 348.998 108C348.498 106.9 347.798 106 346.898 105.3C346.698 105.1 346.398 105 346.198 104.8C345.898 104.7 345.798 104.3 345.998 104.1C346.098 103.8 346.498 103.7 346.698 103.9C346.998 104.1 347.298 104.3 347.598 104.5C348.598 105.3 349.398 106.4 349.998 107.6C350.098 107.9 349.998 108.2 349.698 108.3C349.698 108.3 349.598 108.3 349.498 108.3ZM350.798 106.4H350.698C350.398 106.3 350.198 106 350.298 105.7C350.498 104.8 350.598 103.9 350.598 102.9C350.598 102.6 350.598 102.3 350.598 102C350.598 101.8 350.598 101.5 350.498 101.3C350.498 101 350.698 100.7 350.998 100.7C351.298 100.7 351.598 100.9 351.598 101.2C351.598 101.5 351.698 101.7 351.698 102C351.698 102.3 351.698 102.7 351.698 103C351.698 104.1 351.598 105.1 351.298 106.1C351.198 106.2 350.998 106.4 350.798 106.4ZM349.798 97.2001C349.598 97.2001 349.398 97.1001 349.298 96.9001C348.698 95.5001 347.998 94.2001 346.998 92.9001C346.798 92.7001 346.898 92.3001 347.098 92.1001C347.298 91.9001 347.698 92.0001 347.898 92.2001C348.898 93.5001 349.698 94.9001 350.298 96.4001C350.398 96.7001 350.298 97.0001 349.998 97.1001C349.998 97.2001 349.898 97.2001 349.798 97.2001ZM344.398 89.7001C344.298 89.7001 344.098 89.7001 343.998 89.6001C342.898 88.6001 341.598 87.7001 340.298 86.8001C339.998 86.6001 339.998 86.3001 340.098 86.1001C340.298 85.8001 340.598 85.8001 340.798 85.9001C342.198 86.8001 343.498 87.7001 344.598 88.8001C344.798 89.0001 344.798 89.3001 344.598 89.6001C344.698 89.6001 344.498 89.7001 344.398 89.7001ZM336.398 84.7001C336.298 84.7001 336.298 84.7001 336.198 84.7001C334.798 84.1001 333.398 83.6001 331.798 83.2001C331.498 83.1001 331.298 82.8001 331.398 82.5001C331.498 82.2001 331.798 82.0001 332.098 82.1001C333.698 82.5001 335.198 83.0001 336.598 83.6001C336.898 83.7001 336.998 84.0001 336.898 84.3001C336.898 84.6001 336.698 84.7001 336.398 84.7001ZM327.398 82.3001C325.898 82.1001 324.398 81.9001 322.698 81.7001C322.398 81.7001 322.198 81.4001 322.198 81.1001C322.198 80.8001 322.498 80.6001 322.798 80.6001C324.498 80.8001 325.998 80.9001 327.498 81.2001C327.798 81.2001 327.998 81.5001 327.898 81.8001C327.898 82.1001 327.698 82.3001 327.398 82.3001ZM318.098 81.4001C316.498 81.3001 315.098 81.3001 313.398 81.2001C313.098 81.2001 312.898 80.9001 312.898 80.6001C312.898 80.3001 313.198 80.1001 313.498 80.1001C315.198 80.2001 316.698 80.2001 318.198 80.3001C318.498 80.3001 318.698 80.6001 318.698 80.9001C318.598 81.2001 318.398 81.4001 318.098 81.4001Z" fill="#D2D9DC"/>
<path d="M75.1984 86.3C75.9164 86.3 76.4984 85.7179 76.4984 85C76.4984 84.282 75.9164 83.7 75.1984 83.7C74.4805 83.7 73.8984 84.282 73.8984 85C73.8984 85.7179 74.4805 86.3 75.1984 86.3Z" fill="#ED1C24"/>
<path d="M78.9953 86.3C79.7133 86.3 80.2953 85.7179 80.2953 85C80.2953 84.282 79.7133 83.7 78.9953 83.7C78.2773 83.7 77.6953 84.282 77.6953 85C77.6953 85.7179 78.2773 86.3 78.9953 86.3Z" fill="#FFDD33"/>
<path d="M82.9953 86.3C83.7133 86.3 84.2953 85.7179 84.2953 85C84.2953 84.282 83.7133 83.7 82.9953 83.7C82.2773 83.7 81.6953 84.282 81.6953 85C81.6953 85.7179 82.2773 86.3 82.9953 86.3Z" fill="#54CC5A"/>
<path d="M214.698 141.5C215.416 141.5 215.998 140.918 215.998 140.2C215.998 139.482 215.416 138.9 214.698 138.9C213.98 138.9 213.398 139.482 213.398 140.2C213.398 140.918 213.98 141.5 214.698 141.5Z" fill="#ED1C24"/>
<path d="M218.597 141.5C219.315 141.5 219.897 140.918 219.897 140.2C219.897 139.482 219.315 138.9 218.597 138.9C217.879 138.9 217.297 139.482 217.297 140.2C217.297 140.918 217.879 141.5 218.597 141.5Z" fill="#FFDD33"/>
<path d="M222.597 141.5C223.315 141.5 223.897 140.918 223.897 140.2C223.897 139.482 223.315 138.9 222.597 138.9C221.879 138.9 221.297 139.482 221.297 140.2C221.297 140.918 221.879 141.5 222.597 141.5Z" fill="#54CC5A"/>
</svg>
