<svg width="375" height="372" viewBox="0 0 375 372" fill="none" xmlns="http://www.w3.org/2000/svg">
<path d="M375 0H-4V372H375V0Z" fill="#0A2545"/>
<mask id="mask0_12920_150423" style="mask-type:luminance" maskUnits="userSpaceOnUse" x="-4" y="0" width="379" height="331">
<path d="M375 0H-4V330.755H375V0Z" fill="white"/>
</mask>
<g mask="url(#mask0_12920_150423)">
<path d="M375.118 186.386C418.879 186.386 454.353 105.712 454.353 6.19501C454.353 -93.3219 418.879 -173.996 375.118 -173.996C331.358 -173.996 295.884 -93.3219 295.884 6.19501C295.884 105.712 331.358 186.386 375.118 186.386Z" fill="#0054A6"/>
</g>
<mask id="mask1_12920_150423" style="mask-type:luminance" maskUnits="userSpaceOnUse" x="-4" y="0" width="379" height="253">
<path d="M375 0H-4V252.645H375V0Z" fill="white"/>
</mask>
<g mask="url(#mask1_12920_150423)">
<path d="M54.0342 -344.507V10.5954" stroke="#0054A6" stroke-width="2" stroke-miterlimit="10"/>
<path d="M44.2041 -327.43V27.6715" stroke="#0054A6" stroke-width="2" stroke-miterlimit="10"/>
<path d="M34.374 -310.354V44.7479" stroke="#0054A6" stroke-width="2" stroke-miterlimit="10"/>
<path d="M24.5435 -293.278V61.8239" stroke="#0054A6" stroke-width="2" stroke-miterlimit="10"/>
<path d="M14.7129 -276.202V78.9" stroke="#0054A6" stroke-width="2" stroke-miterlimit="10"/>
<path d="M4.88281 -259.126V95.9762" stroke="#0054A6" stroke-width="2" stroke-miterlimit="10"/>
</g>
<mask id="mask2_12920_150423" style="mask-type:luminance" maskUnits="userSpaceOnUse" x="-4" y="0" width="379" height="254">
<path d="M375 0H-4V253.023H375V0Z" fill="white"/>
</mask>
<g mask="url(#mask2_12920_150423)">
<path opacity="0.1" d="M374.882 425.537C351.836 425.537 333.085 382.9 333.085 330.486C333.085 278.071 351.834 235.434 374.882 235.434C397.929 235.434 416.678 278.071 416.678 330.486C416.678 382.9 397.927 425.537 374.882 425.537ZM374.882 236.608C352.12 236.608 333.601 278.723 333.601 330.486C333.601 382.248 352.12 424.363 374.882 424.363C397.643 424.363 416.162 382.248 416.162 330.486C416.162 278.723 397.643 236.608 374.882 236.608Z" fill="white"/>
<path opacity="0.1" d="M374.881 454.179C344.888 454.179 320.49 398.689 320.49 330.486C320.49 262.282 344.89 206.792 374.881 206.792C404.872 206.792 429.272 262.282 429.272 330.486C429.272 398.689 404.874 454.179 374.881 454.179ZM374.881 207.961C345.172 207.961 321.004 262.923 321.004 330.486C321.004 398.048 345.172 453.01 374.881 453.01C404.59 453.01 428.758 398.048 428.758 330.486C428.758 262.923 404.59 207.961 374.881 207.961Z" fill="white"/>
<path opacity="0.1" d="M374.881 482.827C356.987 482.827 340.164 466.979 327.513 438.207C314.861 409.436 307.893 371.178 307.893 330.486C307.893 289.793 314.861 251.535 327.513 222.764C340.164 193.993 356.987 178.145 374.881 178.145C392.774 178.145 409.597 193.993 422.249 222.764C434.9 251.535 441.869 289.793 441.869 330.486C441.869 371.178 434.9 409.436 422.249 438.207C409.597 466.979 392.774 482.827 374.881 482.827ZM374.881 179.319C357.125 179.319 340.432 195.043 327.878 223.594C315.323 252.144 308.409 290.106 308.409 330.486C308.409 370.866 315.323 408.827 327.878 437.378C340.432 465.928 357.125 481.652 374.881 481.652C392.637 481.652 409.33 465.928 421.884 437.378C434.438 408.827 441.353 370.866 441.353 330.486C441.353 290.106 434.438 252.144 421.884 223.594C409.33 195.043 392.637 179.319 374.881 179.319Z" fill="white"/>
<path opacity="0.1" d="M374.882 511.468C353.625 511.468 333.639 492.641 318.607 458.461C303.575 424.282 295.299 378.827 295.299 330.485C295.299 282.143 303.578 236.694 318.607 202.509C333.637 168.324 353.625 149.502 374.882 149.502C396.139 149.502 416.124 168.329 431.156 202.509C446.188 236.689 454.465 282.143 454.465 330.485C454.465 378.827 446.186 424.276 431.156 458.461C416.126 492.647 396.139 511.468 374.882 511.468ZM374.882 150.671C353.762 150.671 333.907 169.374 318.972 203.338C304.037 237.303 295.813 282.456 295.813 330.485C295.813 378.515 304.037 423.668 318.972 457.632C333.907 491.596 353.762 510.299 374.882 510.299C396.001 510.299 415.856 491.596 430.791 457.632C445.726 423.668 453.951 378.515 453.951 330.485C453.951 282.456 445.726 237.303 430.791 203.338C415.856 169.374 396.001 150.671 374.882 150.671Z" fill="white"/>
<path opacity="0.1" d="M374.881 540.116C362.438 540.116 350.365 534.573 339.002 523.643C328.025 513.084 318.166 497.969 309.7 478.716C301.234 459.463 294.588 437.043 289.945 412.08C285.139 386.234 282.701 358.782 282.701 330.485C282.701 302.188 285.139 274.731 289.945 248.89C294.588 223.927 301.234 201.507 309.7 182.254C318.166 163.001 328.025 147.886 339.002 137.328C350.367 126.398 362.438 120.854 374.881 120.854C387.324 120.854 399.398 126.398 410.761 137.328C421.737 147.886 431.596 163.001 440.062 182.254C448.528 201.507 455.175 223.927 459.817 248.89C464.624 274.736 467.061 302.188 467.061 330.485C467.061 358.782 464.624 386.239 459.817 412.08C455.175 437.043 448.528 459.463 440.062 478.716C431.596 497.969 421.737 513.084 410.761 523.643C399.398 534.573 387.324 540.116 374.881 540.116ZM374.881 122.029C350.398 122.029 327.378 143.711 310.065 183.084C292.752 222.457 283.218 274.806 283.218 330.485C283.218 386.164 292.752 438.514 310.065 477.887C327.378 517.259 350.398 538.941 374.881 538.941C399.364 538.941 422.384 517.259 439.697 477.887C457.01 438.514 466.545 386.164 466.545 330.485C466.545 274.806 457.01 222.457 439.697 183.084C422.384 143.711 399.364 122.029 374.881 122.029Z" fill="white"/>
<path opacity="0.1" d="M374.881 568.758C360.737 568.758 347.015 562.455 334.098 550.033C321.622 538.031 310.415 520.852 300.794 498.971C291.172 477.089 283.615 451.604 278.34 423.231C272.875 393.856 270.106 362.65 270.106 330.485C270.106 298.32 272.878 267.114 278.34 237.739C283.618 209.366 291.172 183.881 300.794 162C310.415 140.118 321.622 122.934 334.098 110.937C347.015 98.5097 360.737 92.2124 374.881 92.2124C389.025 92.2124 402.747 98.5151 415.664 110.937C428.14 122.939 439.347 140.118 448.968 162C458.59 183.881 466.147 209.366 471.422 237.739C476.886 267.114 479.656 298.32 479.656 330.485C479.656 362.65 476.884 393.856 471.422 423.231C466.144 451.604 458.59 477.089 448.968 498.971C439.347 520.852 428.14 538.036 415.664 550.033C402.747 562.461 389.025 568.758 374.881 568.758ZM374.881 93.3814C360.806 93.3814 347.152 99.6517 334.297 112.015C321.883 123.957 310.733 141.055 301.156 162.829C291.579 184.603 284.063 209.959 278.812 238.197C273.375 267.426 270.618 298.482 270.618 330.491C270.618 362.499 273.375 393.549 278.812 422.784C284.063 451.017 291.582 476.373 301.156 498.152C310.73 519.931 321.88 537.024 334.297 548.966C347.15 561.329 360.806 567.6 374.881 567.6C388.956 567.6 402.61 561.329 415.465 548.966C427.879 537.024 439.029 519.926 448.606 498.152C458.183 476.378 465.699 451.022 470.95 422.784C476.387 393.555 479.144 362.499 479.144 330.491C479.144 298.482 476.387 267.432 470.95 238.197C465.699 209.964 458.18 184.608 448.606 162.829C439.031 141.05 427.882 123.957 415.465 112.015C402.61 99.6517 388.956 93.3814 374.881 93.3814Z" fill="white"/>
<path opacity="0.1" d="M374.881 597.406C359.037 597.406 343.666 590.349 329.195 576.429C315.22 562.984 302.668 543.742 291.887 519.226C281.107 494.71 272.646 466.165 266.734 434.383C260.613 401.474 257.51 366.519 257.51 330.486C257.51 294.453 260.613 259.497 266.734 226.589C272.646 194.806 281.107 166.261 291.887 141.745C302.668 117.23 315.22 97.9876 329.195 84.542C343.666 70.6223 359.037 63.5654 374.881 63.5654C390.726 63.5654 406.097 70.6223 420.567 84.542C434.543 97.9876 447.095 117.23 457.875 141.745C468.655 166.261 477.117 194.806 483.029 226.589C489.15 259.497 492.253 294.453 492.253 330.486C492.253 366.519 489.15 401.474 483.029 434.383C477.117 466.165 468.655 494.71 457.875 519.226C447.095 543.742 434.543 562.984 420.567 576.429C406.097 590.349 390.726 597.406 374.881 597.406ZM374.881 64.7398C359.105 64.7398 343.803 71.7643 329.397 85.6247C315.483 99.0111 302.985 118.172 292.252 142.575C281.519 166.983 273.094 195.399 267.21 227.047C261.117 259.81 258.026 294.609 258.026 330.486C258.026 366.362 261.115 401.167 267.21 433.925C273.096 465.567 281.522 493.988 292.252 518.396C302.985 542.804 315.48 561.966 329.397 575.347C343.803 589.202 359.105 596.231 374.881 596.231C390.657 596.231 405.959 589.207 420.366 575.347C434.28 561.96 446.778 542.799 457.51 518.396C468.243 493.988 476.669 465.573 482.553 433.925C488.645 401.162 491.737 366.362 491.737 330.486C491.737 294.609 488.648 259.804 482.553 227.047C476.667 195.404 468.241 166.983 457.51 142.575C446.778 118.167 434.282 99.0058 420.366 85.6247C405.959 71.7643 390.657 64.7398 374.881 64.7398Z" fill="white"/>
</g>
</svg>
