<svg width="375" height="366" viewBox="0 0 375 366" fill="none" xmlns="http://www.w3.org/2000/svg">
<path d="M375 0H0V366H375V0Z" fill="#0A2545"/>
<mask id="mask0_14732_39626" style="mask-type:luminance" maskUnits="userSpaceOnUse" x="0" y="0" width="375" height="366">
<path d="M375 0H0V366H375V0Z" fill="white"/>
</mask>
<g mask="url(#mask0_14732_39626)">
<g opacity="0.1">
<path d="M368.754 315.164C341.027 315.164 318.469 295.707 318.469 271.793C318.469 247.879 341.027 228.423 368.754 228.423C396.48 228.423 419.039 247.879 419.039 271.793C419.039 295.707 396.48 315.164 368.754 315.164ZM368.754 228.956C341.367 228.956 319.088 248.172 319.088 271.793C319.088 295.414 341.367 314.63 368.754 314.63C396.141 314.63 418.42 295.414 418.42 271.793C418.42 248.172 396.141 228.956 368.754 228.956Z" fill="white"/>
<path d="M368.752 328.235C332.668 328.235 303.312 302.916 303.312 271.793C303.312 240.671 332.668 215.352 368.752 215.352C404.837 215.352 434.192 240.671 434.192 271.793C434.192 302.916 404.837 328.235 368.752 328.235ZM368.752 215.888C333.01 215.888 303.934 240.968 303.934 271.793C303.934 302.619 333.01 327.699 368.752 327.699C404.495 327.699 433.571 302.621 433.571 271.793C433.571 240.966 404.495 215.888 368.752 215.888Z" fill="white"/>
<path d="M368.751 341.305C347.223 341.305 326.985 334.075 311.762 320.945C296.54 307.816 288.156 290.36 288.156 271.793C288.156 253.226 296.54 235.771 311.762 222.641C326.985 209.512 347.223 202.281 368.751 202.281C390.278 202.281 410.516 209.512 425.739 222.641C440.962 235.771 449.345 253.226 449.345 271.793C449.345 290.36 440.962 307.816 425.739 320.945C410.516 334.075 390.278 341.305 368.751 341.305ZM368.751 202.817C347.39 202.817 327.306 209.991 312.201 223.019C297.095 236.048 288.777 253.37 288.777 271.793C288.777 290.217 297.095 307.539 312.201 320.567C327.306 333.595 347.39 340.77 368.751 340.77C390.112 340.77 410.195 333.595 425.301 320.567C440.406 307.539 448.724 290.217 448.724 271.793C448.724 253.37 440.406 236.048 425.301 223.019C410.195 209.991 390.112 202.817 368.751 202.817Z" fill="white"/>
<path d="M368.749 354.376C343.174 354.376 319.13 345.787 301.045 330.189C282.961 314.592 273 293.851 273 271.793C273 249.735 282.959 228.997 301.043 213.399C319.127 197.802 343.174 189.21 368.749 189.21C394.324 189.21 418.369 197.8 436.453 213.397C454.538 228.995 464.498 249.735 464.498 271.793C464.498 293.851 454.54 314.59 436.455 330.187C418.371 345.785 394.324 354.376 368.749 354.376ZM368.749 189.746C343.341 189.746 319.451 198.281 301.484 213.777C283.516 229.274 273.621 249.879 273.621 271.793C273.621 293.708 283.516 314.313 301.484 329.809C319.451 345.306 343.341 353.84 368.749 353.84C394.158 353.84 418.048 345.306 436.015 329.809C453.982 314.313 463.877 293.708 463.877 271.793C463.877 249.879 453.982 229.274 436.015 213.777C418.048 198.281 394.158 189.746 368.749 189.746Z" fill="white"/>
<path d="M368.753 367.445C353.781 367.445 339.257 364.916 325.586 359.927C312.379 355.11 300.52 348.213 290.334 339.427C280.148 330.646 272.151 320.416 266.566 309.025C260.784 297.233 257.852 284.706 257.852 271.793C257.852 258.88 260.784 246.353 266.566 234.562C272.151 223.171 280.148 212.942 290.334 204.157C300.52 195.372 312.379 188.477 325.586 183.657C339.259 178.668 353.784 176.14 368.753 176.14C383.723 176.14 398.249 178.668 411.92 183.657C425.127 188.475 436.987 195.372 447.173 204.157C457.359 212.942 465.353 223.171 470.941 234.562C476.725 246.355 479.657 258.882 479.657 271.793C479.657 284.704 476.723 297.233 470.941 309.025C465.355 320.416 457.359 330.644 447.173 339.429C436.987 348.215 425.127 355.11 411.92 359.929C398.249 364.916 383.725 367.445 368.753 367.445ZM368.753 176.675C339.295 176.675 311.601 186.568 290.772 204.535C269.943 222.502 258.47 246.386 258.47 271.793C258.47 297.201 269.941 321.087 290.772 339.051C311.603 357.016 339.295 366.911 368.753 366.911C398.212 366.911 425.905 357.018 446.734 339.051C467.563 321.087 479.036 297.199 479.036 271.793C479.036 246.388 467.566 222.5 446.734 204.535C425.905 186.57 398.212 176.675 368.753 176.675Z" fill="white"/>
<path d="M368.752 380.516C351.734 380.516 335.227 377.641 319.685 371.971C304.673 366.495 291.192 358.656 279.616 348.672C268.041 338.688 258.952 327.06 252.602 314.113C246.028 300.708 242.695 286.471 242.695 271.793C242.695 257.115 246.028 242.878 252.602 229.474C258.952 216.526 268.041 204.899 279.616 194.915C291.192 184.931 304.673 177.092 319.685 171.616C335.227 165.945 351.734 163.071 368.752 163.071C385.77 163.071 402.277 165.945 417.818 171.616C432.83 177.092 446.311 184.931 457.887 194.915C469.463 204.899 478.552 216.526 484.901 229.474C491.475 242.878 494.808 257.115 494.808 271.793C494.808 286.471 491.475 300.708 484.901 314.113C478.552 327.06 469.463 338.688 457.887 348.672C446.311 358.656 432.83 366.495 417.818 371.971C402.277 377.641 385.77 380.516 368.752 380.516ZM368.752 163.605C351.818 163.605 335.391 166.465 319.927 172.107C304.99 177.557 291.574 185.357 280.055 195.293C268.535 205.228 259.491 216.799 253.172 229.682C246.63 243.02 243.314 257.188 243.314 271.793C243.314 286.398 246.63 300.567 253.172 313.904C259.491 326.787 268.535 338.358 280.055 348.294C291.574 358.229 304.99 366.03 319.927 371.48C335.391 377.122 351.818 379.982 368.752 379.982C385.685 379.982 402.112 377.122 417.577 371.48C432.513 366.03 445.929 358.229 457.448 348.294C468.968 338.358 478.012 326.787 484.331 313.904C490.873 300.567 494.189 286.398 494.189 271.793C494.189 257.188 490.873 243.02 484.331 229.682C478.012 216.799 468.968 205.228 457.448 195.293C445.929 185.357 432.513 177.557 417.577 172.107C402.112 166.465 385.685 163.605 368.752 163.605Z" fill="white"/>
<path d="M368.75 393.587C349.686 393.587 331.194 390.366 313.784 384.015C296.968 377.88 281.867 369.099 268.899 357.914C255.931 346.729 245.748 333.705 238.637 319.201C231.273 304.185 227.539 288.236 227.539 271.793C227.539 255.351 231.273 239.401 238.637 224.386C245.75 209.882 255.931 196.858 268.899 185.673C281.867 174.488 296.97 165.707 313.784 159.572C331.194 153.22 349.686 150 368.75 150C387.814 150 406.306 153.22 423.716 159.572C440.532 165.707 455.633 174.488 468.601 185.673C481.569 196.858 491.75 209.884 498.863 224.386C506.227 239.401 509.961 255.351 509.961 271.793C509.961 288.236 506.227 304.185 498.863 319.201C491.75 333.705 481.569 346.729 468.601 357.914C455.633 369.099 440.53 377.882 423.716 384.015C406.306 390.366 387.814 393.587 368.75 393.587ZM368.75 150.536C349.77 150.536 331.358 153.742 314.026 160.065C297.284 166.172 282.249 174.915 269.338 186.051C256.426 197.187 246.289 210.155 239.206 224.594C231.875 239.543 228.158 255.424 228.158 271.793C228.158 288.163 231.877 304.044 239.206 318.993C246.287 333.432 256.423 346.4 269.335 357.536C282.247 368.672 297.282 377.415 314.023 383.522C331.355 389.845 349.768 393.051 368.748 393.051C387.727 393.051 406.14 389.845 423.472 383.522C440.213 377.415 455.248 368.672 468.16 357.536C481.072 346.4 491.209 333.432 498.289 318.993C505.62 304.044 509.337 288.163 509.337 271.793C509.337 255.424 505.62 239.543 498.289 224.594C491.209 210.155 481.072 197.187 468.16 186.051C455.248 174.915 440.213 166.172 423.472 160.065C406.142 153.742 387.73 150.536 368.75 150.536Z" fill="white"/>
</g>
</g>
<mask id="mask1_14732_39626" style="mask-type:luminance" maskUnits="userSpaceOnUse" x="0" y="0" width="343" height="266">
<path d="M343 0H0V265.051H343V0Z" fill="white"/>
</mask>
<g mask="url(#mask1_14732_39626)">
<g opacity="0.7">
<path d="M12.9972 66.3638L144.5 -301.818" stroke="#9C9C9C" stroke-width="0.5" stroke-miterlimit="10"/>
<path d="M25.6379 57.2729L157.141 -310.909" stroke="#9C9C9C" stroke-width="0.5" stroke-miterlimit="10"/>
<path d="M38.2863 48.182L169.789 -320" stroke="#9C9C9C" stroke-width="0.5" stroke-miterlimit="10"/>
<path d="M51.9426 38.182L183.445 -330" stroke="#9C9C9C" stroke-width="0.5" stroke-miterlimit="10"/>
<path d="M65.5832 30.0001L197.086 -338.182" stroke="#9C9C9C" stroke-width="0.5" stroke-miterlimit="10"/>
</g>
</g>
</svg>
