<svg width="48" height="48" viewBox="0 0 48 48" fill="none" xmlns="http://www.w3.org/2000/svg">
<path d="M31.1998 7.2L23.9998 0L16.7998 7.2H20.7998V25.6H27.1998V7.2H31.1998Z" fill="#0054A6"/>
<path d="M17.6002 13.5999L10.4002 6.3999L3.2002 13.5999H7.2002V25.5999H13.6002V13.5999H17.6002Z" fill="#0054A6"/>
<path d="M44.8004 13.5999L37.6004 6.3999L30.4004 13.5999H34.4004V25.5999H40.8004V13.5999H44.8004Z" fill="#0054A6"/>
<path d="M2.40039 24H45.6004V48H2.40039V24Z" fill="#54CC5A"/>
<path opacity="0.19" d="M8.79961 44.7999H39.1996C39.1996 42.9999 40.5996 41.5999 42.3996 41.5999V30.4C40.5996 30.4 39.1996 29 39.1996 27.2H8.79961C8.79961 29 7.39961 30.4 5.59961 30.4V41.5999C7.39961 41.5999 8.79961 42.9999 8.79961 44.7999Z" fill="#2D2F31"/>
<path d="M24.0004 41.5999C27.0932 41.5999 29.6004 39.0927 29.6004 35.9999C29.6004 32.9071 27.0932 30.3999 24.0004 30.3999C20.9076 30.3999 18.4004 32.9071 18.4004 35.9999C18.4004 39.0927 20.9076 41.5999 24.0004 41.5999Z" fill="#54CC5A"/>
<g opacity="0.19">
<path d="M26.2 36.5C26 36.3 25.8 36.1001 25.5 35.9001C25.2 35.8001 24.9 35.6 24.6 35.5C24.5 35.5 24.4 35.4001 24.3 35.4001V33.7001C24.3 33.7001 24.4 33.7 24.4 33.8C24.5 33.9 24.6 34 24.7 34.1C24.8 34.2 24.8 34.4 24.8 34.5H26.2C26.2 34.1 26.1 33.8 25.9 33.5C25.7 33.2 25.4 33 25.1 32.8C24.9 32.7 24.6 32.6 24.3 32.6V31.8H23.7V32.6C23.4 32.6 23.1 32.7 22.8 32.8C22.5 33 22.2 33.2 22 33.5C21.8 33.8 21.7 34.1 21.7 34.5C21.7 35 21.8 35.4001 22.1 35.7001C22.4 36.0001 22.8 36.2001 23.3 36.4001C23.4 36.4001 23.5 36.5 23.7 36.5V38.4001C23.6 38.4001 23.6 38.4 23.5 38.3C23.3 38.2 23.2 38.1001 23.1 37.9001C23 37.7001 22.9 37.6001 22.9 37.4001H21.5C21.5 37.9001 21.6 38.2 21.8 38.6C22 38.9 22.3 39.2 22.7 39.3C23 39.4 23.3 39.5 23.6 39.5V40.2001H24.2V39.5C24.6 39.5 25 39.4001 25.3 39.2001C25.6 39.0001 25.9 38.8 26.1 38.5C26.3 38.2 26.4 37.9 26.4 37.5C26.5 37.1 26.4 36.8 26.2 36.5ZM23.5 35.1C23.4 35 23.3 34.9 23.2 34.8C23.1 34.7 23.1 34.6001 23.1 34.4001C23.1 34.2001 23.1 34.1 23.2 34C23.3 33.9 23.4 33.8001 23.5 33.7001C23.6 33.7001 23.6 33.7001 23.7 33.7001V35.2001C23.6 35.1001 23.5 35.1 23.5 35.1ZM25 38C24.9 38.1 24.8 38.2 24.6 38.3C24.5 38.3 24.4 38.4001 24.3 38.4001V36.7001C24.4 36.7001 24.5 36.8 24.5 36.8C24.7 36.9 24.8 37 24.9 37.1C25 37.2 25 37.4 25 37.6C25.1 37.8 25 37.9 25 38Z" fill="#2D2F31"/>
</g>
</svg>
