<svg width="316" height="316" viewBox="0 0 316 316" fill="none" xmlns="http://www.w3.org/2000/svg">
<g clip-path="url(#clip0_14616_24027)">
<path opacity="0.5" d="M66.3507 203.236C56.2098 191.338 51.8072 174.758 54.7096 159.397C55.7826 153.719 57.8561 148.122 61.5136 143.649C65.1716 139.175 70.5487 135.925 76.3203 135.64C85.5943 135.183 95.1233 142.087 103.584 138.262C108.41 136.08 111.205 130.934 112.669 125.845C116.487 112.567 125.602 99.5699 137.219 91.9932C151.296 82.8123 169.862 81.8549 185.165 88.5054C200.712 95.262 214.629 112.656 211.947 130.355C211.222 135.137 209.972 139.996 210.891 144.744C213.683 159.17 229.965 157.282 240.649 161.154C248.447 163.979 254.91 170.283 257.928 178.008C260.946 185.733 260.469 194.749 256.653 202.113L66.3507 203.236Z" fill="white"/>
<path opacity="0.5" d="M236.796 114.196C241.143 115.525 246.386 114.228 249.024 110.525C251.183 107.494 251.345 103.432 250.562 99.794C249.83 96.3904 248.273 93.0603 245.617 90.8087C240.224 86.235 226.837 83 224.761 92.4005C222.948 100.613 228.706 111.724 236.796 114.196Z" fill="white"/>
<path opacity="0.5" d="M71.2112 80.594C65.5447 85.6803 61.5755 92.9552 61.5781 100.57C61.5807 108.184 66.0499 115.913 73.1302 118.715C77.514 120.449 82.4234 120.251 87.0805 119.514C92.6486 118.634 97.3405 114.923 100.882 110.733C110.565 99.2752 106.721 74.8828 89.4761 73.3098C82.6336 72.6854 76.1632 76.1488 71.2112 80.594Z" fill="white"/>
<path d="M58.7461 172.707H83.9992V186.707H97.2647V160.754H102.112V199.659H110.531V151.078H116.399H123.031V170.429H140.379V163.463H143.951V156.496H155.176V163.463H160.788V173.526H165.636V151.078H173.034V170.816H187.065V162.302H203.348V193.398H212.577V174.44H231.059V182.37H234.006V164.237H237.833V178.17H243.956V169.675H248.293V173.913H257.211V248.24H58.7461V172.707Z" fill="#9ACBED"/>
<path d="M262.061 193.724H232.003L231.956 206.807H218.69V199.659H213.843V215.491H205.423V186.55H199.556H192.923V195.893H175.575V191.221H172.004V186.55H160.778V191.221H155.166V197.969H150.319V182.917H142.92V196.152H128.889V190.443H118.232V211.293H107.224V190.443H84.8947V203.899H81.9481V191.741H78.1215V201.083H71.9987V185.512H67.6616V207.541H52.5078V247.242H262.014L262.061 193.724Z" fill="#4783BE"/>
<path d="M259.566 251.084H50.8808C49.7126 251.084 48.7656 250.137 48.7656 248.969C48.7656 247.801 49.7126 246.854 50.8808 246.854H259.566C260.734 246.854 261.681 247.801 261.681 248.969C261.681 250.138 260.734 251.084 259.566 251.084Z" fill="#456BA3"/>
<path d="M119.586 214.515C114.987 214.515 111.26 218.007 111.26 222.314C111.26 222.605 111.279 222.891 111.313 223.173C110.63 222.98 109.905 222.873 109.154 222.873C105.045 222.873 101.715 225.993 101.715 229.842C101.715 231.957 102.725 233.849 104.314 235.127C104.091 235.105 103.865 235.092 103.636 235.092C100.156 235.092 97.3359 237.734 97.3359 240.993C97.3359 244.252 100.157 246.893 103.636 246.893H127.913V222.315C127.913 218.006 124.184 214.515 119.586 214.515Z" fill="#54CC5A"/>
<path d="M202.166 214.515C206.765 214.515 210.493 218.007 210.493 222.314C210.493 222.605 210.473 222.891 210.44 223.173C211.123 222.98 211.847 222.873 212.598 222.873C216.707 222.873 220.038 225.993 220.038 229.842C220.038 231.957 219.027 233.849 217.438 235.127C217.661 235.105 217.887 235.092 218.117 235.092C221.596 235.092 224.417 237.734 224.417 240.993C224.417 244.252 221.596 246.893 218.117 246.893H193.84V222.315C193.84 218.006 197.568 214.515 202.166 214.515Z" fill="#54CC5A"/>
<path d="M264.902 251.085H56.2167C55.0486 251.085 54.1016 250.138 54.1016 248.97C54.1016 247.802 55.0486 246.855 56.2167 246.855H264.902C266.07 246.855 267.017 247.802 267.017 248.97C267.017 250.139 266.07 251.085 264.902 251.085Z" fill="#456BA3"/>
<path d="M104.971 131.554H71.0726C66.2439 131.554 62.293 135.505 62.293 140.333C62.293 145.162 66.2439 149.113 71.0726 149.113H94.0076L103.592 159.394V149.113H104.97C109.799 149.113 113.75 145.162 113.75 140.333C113.75 135.505 109.799 131.554 104.971 131.554Z" fill="#0054A6"/>
<path d="M72.4536 137.643L73.3277 139.415L75.2826 139.699L73.8684 141.077L74.2019 143.024L72.4536 142.105L70.7052 143.024L71.0393 141.077L69.625 139.699L71.5794 139.415L72.4536 137.643Z" fill="#FFDD33"/>
<path d="M80.2392 137.643L81.1134 139.415L83.0678 139.699L81.6535 141.077L81.9876 143.024L80.2392 142.105L78.4909 143.024L78.8244 141.077L77.4102 139.699L79.3651 139.415L80.2392 137.643Z" fill="#FFDD33"/>
<path d="M88.0244 137.643L88.8986 139.415L90.8535 139.699L89.4387 141.077L89.7727 143.024L88.0244 142.105L86.2761 143.024L86.6101 141.077L85.1953 139.699L87.1502 139.415L88.0244 137.643Z" fill="#FFDD33"/>
<path d="M95.809 137.643L96.6837 139.415L98.6381 139.699L97.2238 141.077L97.5574 143.024L95.809 142.105L94.0607 143.024L94.3948 141.077L92.9805 139.699L94.9349 139.415L95.809 137.643Z" fill="#FFDD33"/>
<path d="M103.599 137.643L104.473 139.415L106.427 139.699L105.013 141.077L105.347 143.024L103.599 142.105L101.85 143.024L102.184 141.077L100.77 139.699L102.724 139.415L103.599 137.643Z" fill="white"/>
<path d="M192.12 246.952H129.504C125.869 246.952 122.922 244.005 122.922 240.371V111.446C122.922 107.811 125.869 104.865 129.504 104.865H192.12C195.755 104.865 198.702 107.812 198.702 111.446V240.371C198.702 244.005 195.755 246.952 192.12 246.952Z" fill="#2F4B74"/>
<path d="M191.518 114.587H129.832V237.226H191.518V114.587Z" fill="#1F2D41"/>
<path d="M191.518 115.853H129.832V237.227H191.518V115.853Z" fill="#B3D7F3"/>
<path d="M169.55 111.299H148.55C147.859 111.299 147.293 110.733 147.293 110.042C147.293 109.351 147.859 108.785 148.55 108.785H169.55C170.241 108.785 170.807 109.351 170.807 110.042C170.806 110.734 170.241 111.299 169.55 111.299Z" fill="#002B49"/>
<path d="M172.053 243.109H150.468C149.938 243.109 149.504 242.675 149.504 242.145C149.504 241.615 149.938 241.181 150.468 241.181H172.053C172.583 241.181 173.017 241.615 173.017 242.145C173.017 242.675 172.583 243.109 172.053 243.109Z" fill="#002B49"/>
<path d="M176.771 110.042C176.771 110.888 176.086 111.575 175.239 111.575C174.393 111.575 173.707 110.889 173.707 110.042C173.707 109.196 174.393 108.51 175.239 108.51C176.086 108.51 176.771 109.196 176.771 110.042Z" fill="#002B49"/>
<path d="M175.864 110.042C175.864 110.387 175.585 110.666 175.241 110.666C174.897 110.666 174.617 110.387 174.617 110.042C174.617 109.698 174.896 109.419 175.241 109.419C175.585 109.419 175.864 109.698 175.864 110.042Z" fill="#2F4B74"/>
<path d="M176.021 109.591C176.021 109.773 175.872 109.921 175.69 109.921C175.507 109.921 175.359 109.773 175.359 109.591C175.359 109.408 175.508 109.26 175.69 109.26C175.872 109.26 176.021 109.408 176.021 109.591Z" fill="white"/>
<g opacity="0.5">
<path d="M180.555 218.982V237.15H191.518V218.982H180.555Z" fill="#619FC5"/>
<path d="M180.555 196.348V214.516H191.518V196.348H180.555Z" fill="#619FC5"/>
<path d="M159.324 225.084H175.701V196.347L159.324 225.084Z" fill="#619FC5"/>
<path d="M159.324 228.601V237.15H175.701V228.601H159.324Z" fill="#619FC5"/>
<path d="M170.371 194.766L154.586 221.111L130.586 213.51L146.371 187.165L170.371 194.766Z" fill="#619FC5"/>
<path d="M129.832 228.066V237.15H153.365V228.066H129.832Z" fill="#619FC5"/>
<path d="M129.832 224.643H153.365L129.832 217.349V224.643Z" fill="#54CC5A"/>
<path d="M171.805 178.332V191.611H191.518V178.332H171.805Z" fill="#619FC5"/>
<path d="M180.555 156.503V174.672H191.518V156.503H180.555Z" fill="#619FC5"/>
<path d="M180.555 133.869V152.038H191.518V133.869H180.555Z" fill="#619FC5"/>
<path d="M159.324 162.605H175.701V133.869L159.324 162.605Z" fill="#54CC5A"/>
<path d="M159.324 166.122V174.672H175.701V166.122H159.324Z" fill="#619FC5"/>
<path d="M170.371 132.287L154.586 158.632L130.586 151.031L146.371 124.686L170.371 132.287Z" fill="#619FC5"/>
<path d="M129.832 165.587V174.672H153.365V165.587H129.832Z" fill="#619FC5"/>
<path d="M129.832 162.165H153.365L129.832 154.87V162.165Z" fill="#54CC5A"/>
<path d="M170.98 115.853V129.132H191.518V115.853H170.98Z" fill="#619FC5"/>
<path d="M167.514 190.446L147.19 184.018H129.832V178.333H167.514V190.446Z" fill="#619FC5"/>
<path d="M129.832 207.543V186.845H141.598L129.832 207.543Z" fill="#619FC5"/>
<path d="M167.513 126.841V115.853H148.672V120.691L167.513 126.841Z" fill="#619FC5"/>
<path d="M129.832 144.135L144.412 120.144V115.853H129.832V144.135Z" fill="#619FC5"/>
</g>
<path d="M190.952 115.853H188.577H132.774H129.832V118.533V222.516V237.15H132.774H188.577H191.518V222.516V115.853H190.952ZM132.774 218.981V118.533H188.577V218.981H132.774Z" fill="white"/>
<path d="M170.493 228.066H152.024C150.342 228.066 148.965 226.689 148.965 225.006V224.362C148.965 222.679 150.342 221.302 152.024 221.302H170.493C172.176 221.302 173.552 222.679 173.552 224.362V225.006C173.552 226.689 172.175 228.066 170.493 228.066Z" fill="#488CAE"/>
<path d="M170.493 227.642H152.024C150.342 227.642 148.965 226.265 148.965 224.582V223.937C148.965 222.254 150.342 220.878 152.024 220.878H170.493C172.176 220.878 173.552 222.254 173.552 223.937V224.582C173.552 226.265 172.175 227.642 170.493 227.642Z" fill="#70B6E0"/>
<path d="M153.842 225.804V223.755H154.558C154.701 223.755 154.818 223.78 154.911 223.83C155.004 223.878 155.073 223.944 155.118 224.027C155.163 224.109 155.186 224.2 155.186 224.3C155.186 224.388 155.17 224.46 155.139 224.518C155.108 224.575 155.068 224.62 155.017 224.654C154.967 224.687 154.913 224.712 154.854 224.728V224.748C154.917 224.752 154.98 224.774 155.043 224.814C155.106 224.854 155.159 224.911 155.202 224.986C155.245 225.06 155.266 225.152 155.266 225.26C155.266 225.363 155.243 225.455 155.196 225.537C155.149 225.619 155.076 225.684 154.975 225.732C154.874 225.78 154.743 225.804 154.582 225.804H153.842ZM154.09 225.584H154.582C154.744 225.584 154.859 225.553 154.927 225.49C154.996 225.427 155.03 225.35 155.03 225.26C155.03 225.19 155.012 225.126 154.977 225.068C154.942 225.008 154.891 224.961 154.826 224.926C154.761 224.89 154.683 224.872 154.594 224.872H154.09V225.584ZM154.09 224.656H154.55C154.625 224.656 154.692 224.641 154.752 224.612C154.813 224.582 154.861 224.541 154.896 224.488C154.932 224.434 154.95 224.372 154.95 224.3C154.95 224.21 154.919 224.133 154.856 224.071C154.793 224.007 154.694 223.976 154.558 223.976H154.09V224.656ZM157.018 223.755H157.266V225.112C157.266 225.252 157.233 225.377 157.167 225.487C157.102 225.596 157.009 225.683 156.89 225.746C156.771 225.809 156.631 225.84 156.47 225.84C156.309 225.84 156.169 225.809 156.05 225.746C155.93 225.683 155.838 225.596 155.772 225.487C155.706 225.377 155.674 225.252 155.674 225.112V223.755H155.922V225.092C155.922 225.192 155.944 225.281 155.988 225.359C156.032 225.436 156.094 225.497 156.176 225.542C156.258 225.586 156.356 225.608 156.47 225.608C156.584 225.608 156.682 225.586 156.764 225.542C156.846 225.497 156.909 225.436 156.952 225.359C156.996 225.281 157.018 225.192 157.018 225.092V223.755ZM157.585 223.755H157.869L158.438 224.712H158.462L159.03 223.755H159.314L158.574 224.96V225.804H158.326V224.96L157.585 223.755ZM162.051 223.755V225.804H161.811L160.695 224.196H160.675V225.804H160.427V223.755H160.667L161.787 225.368H161.807V223.755H162.051ZM164.276 224.78C164.276 224.996 164.237 225.182 164.159 225.34C164.081 225.497 163.974 225.619 163.838 225.704C163.702 225.789 163.546 225.832 163.372 225.832C163.197 225.832 163.042 225.789 162.906 225.704C162.77 225.619 162.663 225.497 162.585 225.34C162.507 225.182 162.468 224.996 162.468 224.78C162.468 224.564 162.507 224.377 162.585 224.22C162.663 224.062 162.77 223.941 162.906 223.856C163.042 223.77 163.197 223.727 163.372 223.727C163.546 223.727 163.702 223.77 163.838 223.856C163.974 223.941 164.081 224.062 164.159 224.22C164.237 224.377 164.276 224.564 164.276 224.78ZM164.036 224.78C164.036 224.602 164.006 224.453 163.947 224.331C163.888 224.209 163.809 224.116 163.708 224.054C163.608 223.991 163.496 223.96 163.372 223.96C163.248 223.96 163.135 223.991 163.035 224.054C162.935 224.116 162.855 224.209 162.796 224.331C162.737 224.453 162.708 224.602 162.708 224.78C162.708 224.957 162.737 225.107 162.796 225.229C162.855 225.351 162.935 225.443 163.035 225.506C163.135 225.569 163.248 225.6 163.372 225.6C163.496 225.6 163.608 225.569 163.708 225.506C163.809 225.443 163.888 225.351 163.947 225.229C164.006 225.107 164.036 224.957 164.036 224.78ZM165.065 225.804L164.505 223.755H164.757L165.185 225.424H165.205L165.641 223.755H165.921L166.357 225.424H166.377L166.806 223.755H167.058L166.497 225.804H166.241L165.789 224.172H165.773L165.321 225.804H165.065ZM167.647 223.755L167.627 225.228H167.395L167.375 223.755H167.647ZM167.511 225.82C167.461 225.82 167.419 225.802 167.384 225.767C167.348 225.732 167.331 225.689 167.331 225.64C167.331 225.591 167.348 225.548 167.384 225.513C167.419 225.478 167.461 225.46 167.511 225.46C167.56 225.46 167.602 225.478 167.638 225.513C167.673 225.548 167.691 225.591 167.691 225.64C167.691 225.673 167.682 225.703 167.666 225.73C167.65 225.757 167.628 225.779 167.601 225.796C167.574 225.812 167.544 225.82 167.511 225.82Z" fill="white"/>
<path d="M191.518 230.704H129.832V237.226H191.518V230.704Z" fill="#002B49"/>
<path d="M148.379 234.019L150.424 235.2V232.838L148.379 234.019Z" stroke="white" stroke-width="0.338012" stroke-miterlimit="10"/>
<path d="M160.825 235.199C161.477 235.199 162.006 234.671 162.006 234.019C162.006 233.367 161.477 232.838 160.825 232.838C160.173 232.838 159.645 233.367 159.645 234.019C159.645 234.671 160.173 235.199 160.825 235.199Z" stroke="white" stroke-width="0.338012" stroke-miterlimit="10"/>
<path d="M174.136 232.976H172.051V235.062H174.136V232.976Z" stroke="white" stroke-width="0.338012" stroke-miterlimit="10"/>
<path d="M231.602 138.442L218.996 164.157L219.566 165.586L232.626 138.943L231.602 138.442Z" fill="#E0A524"/>
<path d="M183.292 177.981C183.292 179.256 173.888 180.289 162.287 180.289C150.686 180.289 141.281 179.256 141.281 177.981C141.281 176.707 150.686 175.674 162.287 175.674C173.888 175.674 183.292 176.707 183.292 177.981Z" fill="#456BA3"/>
<path d="M178.305 162.422H144.617V177.153H178.305V162.422Z" fill="#ECC51B"/>
<path d="M178.305 162.422H144.617V165.481H178.305V162.422Z" fill="#ECC51B"/>
<path d="M181.235 163.896H141.281L144.868 150.122H177.648L181.235 163.896Z" fill="#213653"/>
<path d="M167.912 159.785L161.257 155.221L154.602 159.785V178.518H167.912V159.785Z" fill="#EECB3B"/>
<path d="M163.944 170.43H159.051V177.973H163.944V170.43Z" fill="white"/>
<path d="M163.414 170.906H159.578V177.973H163.414V170.906Z" fill="#2F4B74"/>
<path d="M160.738 174.782C160.738 174.971 160.585 175.124 160.397 175.124C160.208 175.124 160.055 174.971 160.055 174.782C160.055 174.593 160.208 174.44 160.397 174.44C160.585 174.44 160.738 174.593 160.738 174.782Z" fill="white"/>
<path d="M164.23 159.199H158.699V164.73H164.23V159.199Z" fill="white"/>
<path d="M163.816 159.615H159.117V164.314H163.816V159.615Z" fill="#70B6E0"/>
<path d="M161.916 159.199H161.086V164.73H161.916V159.199Z" fill="white"/>
<path d="M153.178 167.979H146.633V172.562H153.178V167.979Z" fill="white"/>
<path d="M152.686 168.324H147.125V172.218H152.686V168.324Z" fill="#70B6E0"/>
<path d="M150.274 167.979H149.613V172.562H150.274V167.979Z" fill="white"/>
<path d="M176.455 167.979H169.91V172.562H176.455V167.979Z" fill="white"/>
<path d="M175.963 168.324H170.402V172.218H175.963V168.324Z" fill="#70B6E0"/>
<path d="M173.551 167.979H172.891V172.562H173.551V167.979Z" fill="white"/>
<path d="M164.967 177.663H157.984V178.518H164.967V177.663Z" fill="white"/>
<path d="M167.912 161.515V159.785L161.257 155.221L154.602 159.785V161.904L161.532 157.063L167.912 161.515Z" fill="#ECC51B"/>
<path d="M152.727 160.508L161.491 154.498L170.255 160.508" stroke="#2F4B74" stroke-width="1.93925" stroke-miterlimit="10"/>
<path d="M153.508 174.255C152.902 174.255 152.412 174.715 152.412 175.282C152.412 175.32 152.414 175.358 152.419 175.395C152.329 175.369 152.233 175.355 152.134 175.355C151.593 175.355 151.155 175.766 151.155 176.273C151.155 176.551 151.288 176.8 151.497 176.968C151.468 176.965 151.438 176.964 151.408 176.964C150.95 176.964 150.578 177.311 150.578 177.741C150.578 178.17 150.95 178.517 151.408 178.517H154.604V175.282C154.605 174.715 154.113 174.255 153.508 174.255Z" fill="#54CC5A"/>
<path d="M169.01 174.255C169.616 174.255 170.106 174.715 170.106 175.282C170.106 175.32 170.104 175.358 170.099 175.395C170.19 175.369 170.285 175.355 170.384 175.355C170.925 175.355 171.363 175.766 171.363 176.273C171.363 176.551 171.23 176.8 171.021 176.968C171.05 176.965 171.08 176.964 171.111 176.964C171.568 176.964 171.94 177.311 171.94 177.741C171.94 178.17 171.568 178.517 171.111 178.517H167.914V175.282C167.914 174.715 168.405 174.255 169.01 174.255Z" fill="#54CC5A"/>
<path d="M188.192 186.237L185.117 189.893L200.603 202.917L203.677 199.262L188.192 186.237Z" fill="#839299"/>
<path d="M190.912 183.009L188.191 186.244L203.677 199.269L206.397 196.034L190.912 183.009Z" fill="#839299"/>
<path d="M233.066 220.197C234.497 218.496 234.278 215.956 232.576 214.524L211.219 196.559C209.517 195.128 206.977 195.347 205.545 197.049L203.676 199.271L231.196 222.42L233.066 220.197Z" fill="#053255"/>
<path d="M203.674 199.271L201.285 202.111C199.854 203.813 200.073 206.353 201.775 207.785L223.132 225.749C224.834 227.181 227.374 226.962 228.805 225.26L231.195 222.419L203.674 199.271Z" fill="#002B49"/>
<path d="M184.047 139.688C176.967 133.732 167.99 130.89 158.771 131.685C149.548 132.483 141.195 136.818 135.239 143.899C129.283 150.98 126.441 159.957 127.237 169.176C128.032 178.394 132.37 186.752 139.451 192.707C146.532 198.664 155.509 201.506 164.728 200.71C165.134 200.675 165.538 200.634 165.941 200.585C174.678 199.527 182.566 195.265 188.259 188.496C194.216 181.415 197.058 172.439 196.262 163.22C195.466 154.001 191.129 145.644 184.047 139.688ZM165.3 195.547C149.091 197.509 134.361 185.959 132.399 169.749C130.438 153.54 141.988 138.81 158.197 136.848C174.406 134.887 189.136 146.437 191.098 162.646C193.06 178.855 181.51 193.586 165.3 195.547Z" fill="#053255"/>
<path d="M158.199 136.847C141.99 138.808 130.439 153.539 132.401 169.748C134.362 185.957 149.092 197.508 165.302 195.547C181.511 193.585 193.061 178.855 191.1 162.646C189.138 146.436 174.408 134.886 158.199 136.847ZM182.825 183.924C178.158 189.472 171.752 192.714 165.065 193.523C157.748 194.408 150.095 192.379 144.023 187.272C132.402 177.497 130.9 160.09 140.675 148.469C145.343 142.921 151.748 139.679 158.435 138.87C165.752 137.985 173.405 140.014 179.478 145.121C191.098 154.896 192.6 172.303 182.825 183.924Z" fill="#002B49"/>
<path opacity="0.5" d="M169.119 155.098C172.531 155.098 175.297 152.332 175.297 148.92C175.297 145.508 172.531 142.742 169.119 142.742C165.707 142.742 162.941 145.508 162.941 148.92C162.941 152.332 165.707 155.098 169.119 155.098Z" fill="white"/>
<path d="M240.01 123.075C235.24 120.737 229.61 122.441 227.434 126.88C225.786 130.242 226.593 134.207 229.152 136.95L222.063 151.413L222.523 153.361L219.398 155.058L220.056 158.659L217.176 159.591L218.997 164.157L231.602 138.442L232.626 138.944L219.567 165.586L219.59 165.644C220.049 166.795 221.698 166.929 222.223 165.858L234.875 140.049C238.889 140.755 242.937 138.954 244.705 135.347C246.881 130.907 244.779 125.413 240.01 123.075ZM243.448 134.846C241.509 138.707 236.607 140.165 232.501 138.103C228.394 136.041 226.637 131.239 228.575 127.378C230.514 123.516 235.416 122.058 239.522 124.12C243.629 126.182 245.386 130.984 243.448 134.846Z" fill="#FFDD33"/>
<path d="M239.521 124.12C235.414 122.058 230.513 123.516 228.574 127.378C226.635 131.239 228.393 136.041 232.5 138.104C236.607 140.166 241.508 138.707 243.446 134.846C245.385 130.984 243.628 126.182 239.521 124.12ZM240.433 128.706C239.786 130.026 238.112 130.533 236.694 129.837C235.276 129.142 234.65 127.508 235.297 126.188C235.945 124.868 237.619 124.362 239.037 125.057C240.455 125.752 241.08 127.386 240.433 128.706Z" fill="#E0A524"/>
<path d="M157.411 76.0095C157.411 73.3074 159.601 71.1167 162.304 71.1167V64.7598C156.091 64.7598 151.055 69.7961 151.055 76.009C151.055 82.2218 162.304 96.0118 162.304 96.0118V80.9022C159.602 80.9022 157.411 78.7116 157.411 76.0095Z" fill="#053255"/>
<path d="M162.305 64.7598V71.1162C165.007 71.1162 167.198 73.3069 167.198 76.009C167.198 78.7111 165.007 80.9022 162.305 80.9022V96.0118C162.305 96.0118 173.554 82.2218 173.554 76.009C173.554 69.7961 168.518 64.7598 162.305 64.7598Z" fill="#2F4B74"/>
</g>
<defs>
<clipPath id="clip0_14616_24027">
<rect width="316" height="316" fill="white"/>
</clipPath>
</defs>
</svg>
