<svg width="420" height="280" viewBox="0 0 420 280" fill="none" xmlns="http://www.w3.org/2000/svg">
<g clip-path="url(#clip0_16116_9232)">
<path opacity="0.1" d="M75.6027 251.753C59.8231 241.604 42.836 229.864 37.9282 211.756C35.3119 202.103 38.8158 189.057 48.6919 187.478C57.9902 185.99 67.5348 195.665 75.9684 191.477C85.5444 186.721 85.2375 174.479 82.5736 165.838C80.7027 159.768 78.2325 153.884 75.2107 148.297C70.7459 140.042 65.0977 132.464 60.7728 124.135C56.4479 115.807 53.4486 106.364 54.8794 97.0892C56.3102 87.8139 63.0901 78.9351 72.3385 77.3419C83.2154 75.4681 93.1369 83.5456 100.622 91.6566C106.871 98.427 114.219 107.979 123.754 110.093C133.447 112.242 142.13 102.171 145.611 94.0422C149.974 83.8564 149.839 72.3904 152.27 61.7067C155.006 49.6829 159.235 32.9451 169.292 25.1152C177.788 18.5016 185.198 14.8061 196.418 16.8479C212.755 19.8204 217.505 36.78 220.241 50.8953C222.645 63.2948 223.223 78.0592 233.087 87.3956C236.203 90.3451 240.342 91.9584 244.471 93.126C263.236 98.4337 280.095 78.8371 292.768 67.5508C297.6 63.2484 302.431 58.9459 307.262 54.6434C317.432 45.5865 325.65 33.3029 340.156 30.7796C347.937 29.426 357.127 33.2872 359.241 40.8999C362.356 52.1301 355.332 62.2448 347.854 69.9213C339.528 78.4692 331.756 87.0635 325.062 97.0399C322.157 101.369 319.351 106.767 321.419 111.552C322.617 114.327 325.291 116.246 328.147 117.233C335.073 119.626 339.22 118.12 345.806 116.35C351.224 114.894 356.561 114.535 360.687 119.038C374.49 134.105 344.698 151.012 336.56 159.26C333.014 162.854 329.237 166.968 329.124 172.015C328.934 180.529 339.517 185.561 347.901 184.06C360.298 181.84 368.977 171.374 381.961 177.863C391.512 182.636 391.6 196.772 388.592 205.576C386.058 212.993 381.182 219.375 375.948 225.208C362.727 239.942 346.815 252.011 330.444 263.142" fill="#839299"/>
<path d="M213.188 257.046C284.415 257.046 342.156 254.832 342.156 252.102C342.156 249.372 284.415 247.158 213.188 247.158C141.961 247.158 84.2207 249.372 84.2207 252.102C84.2207 254.832 141.961 257.046 213.188 257.046Z" fill="#0054A6"/>
<g opacity="0.1">
<path d="M86.9119 154.714C86.8436 150.989 83.6488 148.074 79.9231 148.074C69.669 148.074 39.625 148.074 29.3708 148.074C25.6451 148.074 22.4503 150.989 22.382 154.714C22.3126 158.509 25.3679 161.607 29.1468 161.607H65.2545L84.0246 173.481L78.9661 161.607H80.1466C83.926 161.607 86.9814 158.509 86.9119 154.714Z" fill="#002548"/>
</g>
<path d="M86.9119 152.572C86.8436 148.847 83.6488 145.933 79.9231 145.933C69.669 145.933 39.625 145.933 29.3708 145.933C25.6451 145.933 22.4503 148.848 22.382 152.572C22.3126 156.367 25.3679 159.465 29.1468 159.465H65.2545L84.0246 171.34L78.9661 159.465H80.1466C83.926 159.465 86.9814 156.367 86.9119 152.572Z" fill="#0054A6"/>
<path d="M32.4281 154.714L30.2441 155.862L30.6613 153.431L28.8945 151.709L31.3361 151.354L32.4281 149.142L33.5196 151.354L35.9612 151.709L34.1944 153.431L34.6116 155.862L32.4281 154.714Z" fill="#FFDD33"/>
<path d="M42.9764 154.714L40.793 155.862L41.2102 153.431L39.4434 151.709L41.885 151.354L42.9764 149.142L44.0684 151.354L46.5094 151.709L44.7432 153.431L45.1598 155.862L42.9764 154.714Z" fill="#FFDD33"/>
<path d="M53.5233 154.714L51.3398 155.862L51.757 153.431L49.9902 151.709L52.4318 151.354L53.5233 149.142L54.6153 151.354L57.0569 151.709L55.2901 153.431L55.7073 155.862L53.5233 154.714Z" fill="#FFDD33"/>
<path d="M64.0721 154.714L61.8887 155.862L62.3053 153.431L60.5391 151.709L62.9801 151.354L64.0721 149.142L65.1641 151.354L67.6051 151.709L65.8389 153.431L66.2555 155.862L64.0721 154.714Z" fill="#FFDD33"/>
<path d="M74.2948 154.714L72.1113 155.862L72.5285 153.431L70.7617 151.709L73.2033 151.354L74.2948 149.142L75.3868 151.354L77.8284 151.709L76.0616 153.431L76.4788 155.862L74.2948 154.714Z" fill="#FFDD33"/>
<g opacity="0.1">
<path d="M323.662 79.1135C323.731 75.3889 326.925 72.4741 330.651 72.4741C340.905 72.4741 370.949 72.4741 381.203 72.4741C384.929 72.4741 388.124 75.3889 388.192 79.1135C388.262 82.9086 385.206 86.0065 381.427 86.0065H345.32L326.55 97.8813L331.608 86.0065H330.428C326.648 86.0065 323.593 82.9086 323.662 79.1135Z" fill="#002548"/>
</g>
<path d="M323.662 76.9711C323.731 73.246 326.925 70.3318 330.651 70.3318C340.905 70.3318 370.949 70.3318 381.203 70.3318C384.929 70.3318 388.124 73.2466 388.192 76.9711C388.262 80.7657 385.206 83.8642 381.427 83.8642H345.32L326.55 95.739L331.608 83.8642H330.428C326.648 83.8642 323.593 80.7657 323.662 76.9711Z" fill="#0054A6"/>
<path d="M378.148 79.1138L380.332 80.2618L379.915 77.8303L381.682 76.1083L379.24 75.7533L378.148 73.5413L377.057 75.7533L374.615 76.1083L376.382 77.8303L375.965 80.2618L378.148 79.1138Z" fill="#FFDD33"/>
<path d="M367.6 79.1138L369.783 80.2618L369.366 77.8303L371.133 76.1083L368.691 75.7533L367.6 73.5413L366.508 75.7533L364.067 76.1083L365.833 77.8303L365.416 80.2618L367.6 79.1138Z" fill="#FFDD33"/>
<path d="M357.053 79.1138L359.236 80.2618L358.819 77.8303L360.586 76.1083L358.144 75.7533L357.053 73.5413L355.961 75.7533L353.519 76.1083L355.286 77.8303L354.869 80.2618L357.053 79.1138Z" fill="#FFDD33"/>
<path d="M346.504 79.1138L348.688 80.2618L348.271 77.8303L350.037 76.1083L347.596 75.7533L346.504 73.5413L345.412 75.7533L342.971 76.1083L344.737 77.8303L344.321 80.2618L346.504 79.1138Z" fill="#FFDD33"/>
<path d="M336.281 79.1138L338.465 80.2618L338.048 77.8303L339.814 76.1083L337.373 75.7533L336.281 73.5413L335.189 75.7533L332.748 76.1083L334.515 77.8303L334.097 80.2618L336.281 79.1138Z" fill="#FFDD33"/>
<g opacity="0.1">
<path d="M73.1973 42.7281C73.1973 51.314 80.1575 58.2743 88.7434 58.2743C95.7177 58.2743 101.619 53.6817 103.589 47.356H115.379L118.165 45.8848L118.703 47.356H127.718L129.365 45.1932L133.117 47.356H135.697L139.124 45.1932L141.566 47.356L144.283 45.3164C144.81 44.9205 145.156 44.3986 145.361 43.8352H104.29V42.7281H145.577C145.577 41.7571 145.146 40.7866 144.283 40.1392L141.566 38.0997H103.589C101.619 31.774 95.7177 27.1814 88.7434 27.1814C80.1575 27.1814 73.1973 34.1422 73.1973 42.7281ZM86.047 42.7281C86.047 45.284 83.975 47.356 81.4192 47.356C78.8633 47.356 76.7914 45.284 76.7914 42.7281C76.7914 40.1723 78.8633 38.0997 81.4192 38.0997C83.975 38.0997 86.047 40.1723 86.047 42.7281Z" fill="black"/>
<path d="M104.289 43.8351H145.361C145.491 43.4767 145.576 43.1049 145.576 42.728H104.289V43.8351Z" fill="black"/>
</g>
<path d="M73.1973 40.1949C73.1973 48.7808 80.1575 55.7411 88.7434 55.7411C95.7177 55.7411 101.619 51.1485 103.589 44.8228H115.379L118.165 43.3516L118.703 44.8228H127.718L129.365 42.66L133.117 44.8228H135.697L139.124 42.66L141.566 44.8228L144.283 42.7838C144.81 42.3879 145.156 41.866 145.361 41.302H104.29V40.1949H145.577C145.577 39.2244 145.146 38.2534 144.283 37.606L141.566 35.5665H103.589C101.619 29.2408 95.7177 24.6482 88.7434 24.6482C80.1575 24.6488 73.1973 31.609 73.1973 40.1949ZM86.047 40.1949C86.047 42.7508 83.975 44.8228 81.4192 44.8228C78.8633 44.8228 76.7914 42.7508 76.7914 40.1949C76.7914 37.6391 78.8633 35.5671 81.4192 35.5671C83.975 35.5671 86.047 37.6391 86.047 40.1949Z" fill="#FFDD33"/>
<path d="M104.289 41.3024H145.361C145.491 40.944 145.576 40.5722 145.576 40.1953H104.289V41.3024Z" fill="#F28E0A"/>
<g opacity="0.1">
<path d="M297.405 53.6599H251.615C249.583 53.6599 247.936 52.0123 247.936 49.9801V36.2399C247.936 34.8355 248.735 33.5531 249.997 32.9354L273.118 21.6122C274.147 21.1082 275.353 21.1127 276.379 21.6239L299.047 32.9287C300.296 33.5514 301.085 34.8265 301.085 36.2215V49.9801C301.085 52.0123 299.437 53.6599 297.405 53.6599Z" fill="#002548"/>
<path d="M250.514 48.6784V38.0378C250.514 37.1116 251.046 36.2676 251.881 35.8684L273.705 25.4367C274.367 25.1203 275.137 25.1236 275.796 25.4451L297.158 35.8633C297.984 36.2665 298.508 37.1054 298.508 38.0244V48.6784C298.508 50.0061 297.432 51.083 296.104 51.083H252.918C251.59 51.083 250.514 50.0067 250.514 48.6784Z" fill="#002548"/>
<path d="M259.829 45.9075V40.2234H263.237V40.834H260.517V42.7546H262.982V43.3652H260.517V45.9075H259.829ZM269.212 43.0654C269.212 43.6649 269.104 44.183 268.887 44.6197C268.671 45.0563 268.374 45.3931 267.996 45.6299C267.619 45.8668 267.188 45.9852 266.703 45.9852C266.218 45.9852 265.787 45.8668 265.41 45.6299C265.032 45.3931 264.735 45.0563 264.519 44.6197C264.302 44.183 264.194 43.6649 264.194 43.0654C264.194 42.4659 264.302 41.9478 264.519 41.5112C264.735 41.0745 265.032 40.7378 265.41 40.5009C265.787 40.2641 266.218 40.1457 266.703 40.1457C267.188 40.1457 267.619 40.2641 267.996 40.5009C268.374 40.7378 268.671 41.0745 268.887 41.5112C269.104 41.9478 269.212 42.4659 269.212 43.0654ZM268.546 43.0654C268.546 42.5732 268.464 42.1579 268.299 41.8192C268.136 41.4806 267.915 41.2244 267.636 41.0505C267.358 40.8765 267.047 40.7896 266.703 40.7896C266.359 40.7896 266.047 40.8765 265.768 41.0505C265.49 41.2244 265.269 41.4806 265.104 41.8192C264.942 42.1579 264.86 42.5732 264.86 43.0654C264.86 43.5576 264.942 43.973 265.104 44.3116C265.269 44.6502 265.49 44.9065 265.768 45.0804C266.047 45.2543 266.359 45.3413 266.703 45.3413C267.047 45.3413 267.358 45.2543 267.636 45.0804C267.915 44.9065 268.136 44.6502 268.299 44.3116C268.464 43.973 268.546 43.5576 268.546 43.0654ZM270.369 45.9075V40.2234H272.29C272.734 40.2234 273.099 40.2992 273.383 40.451C273.668 40.6008 273.879 40.8071 274.016 41.0699C274.153 41.3326 274.222 41.6314 274.222 41.9663C274.222 42.3012 274.153 42.5982 274.016 42.8573C273.879 43.1163 273.669 43.3198 273.386 43.4679C273.103 43.614 272.741 43.6871 272.301 43.6871H270.747V43.0654H272.279C272.582 43.0654 272.827 43.021 273.012 42.9322C273.198 42.8434 273.334 42.7176 273.417 42.5547C273.502 42.3901 273.544 42.1939 273.544 41.9663C273.544 41.7388 273.502 41.5399 273.417 41.3696C273.332 41.1994 273.196 41.068 273.009 40.9755C272.822 40.8811 272.575 40.834 272.268 40.834H271.058V45.9075H270.369ZM273.045 43.3541L274.444 45.9075H273.644L272.268 43.3541H273.045ZM280.675 41.6444C280.642 41.3631 280.507 41.1448 280.27 40.9894C280.033 40.834 279.743 40.7563 279.399 40.7563C279.147 40.7563 278.927 40.797 278.738 40.8784C278.551 40.9598 278.405 41.0717 278.299 41.2142C278.196 41.3567 278.144 41.5186 278.144 41.6999C278.144 41.8516 278.18 41.9821 278.252 42.0912C278.326 42.1986 278.421 42.2883 278.535 42.3605C278.65 42.4308 278.77 42.4891 278.896 42.5353C279.022 42.5797 279.138 42.6158 279.243 42.6436L279.82 42.799C279.968 42.8378 280.133 42.8915 280.314 42.96C280.498 43.0284 280.672 43.1219 280.839 43.2403C281.007 43.3568 281.146 43.5067 281.255 43.6899C281.365 43.8731 281.419 44.0979 281.419 44.3643C281.419 44.6715 281.339 44.949 281.178 45.197C281.018 45.4449 280.785 45.642 280.478 45.7881C280.173 45.9343 279.802 46.0074 279.365 46.0074C278.958 46.0074 278.606 45.9417 278.308 45.8103C278.012 45.679 277.779 45.4958 277.608 45.2608C277.44 45.0258 277.345 44.7529 277.323 44.442H278.033C278.052 44.6567 278.124 44.8343 278.25 44.9749C278.377 45.1137 278.538 45.2173 278.732 45.2858C278.929 45.3524 279.14 45.3857 279.365 45.3857C279.628 45.3857 279.864 45.3431 280.073 45.258C280.282 45.1711 280.448 45.0508 280.57 44.8972C280.692 44.7418 280.753 44.5605 280.753 44.3532C280.753 44.1645 280.7 44.0109 280.595 43.8925C280.489 43.7741 280.351 43.6779 280.178 43.6039C280.006 43.5298 279.82 43.4651 279.621 43.4096L278.921 43.2097C278.477 43.0821 278.126 42.8998 277.867 42.663C277.607 42.4261 277.478 42.1162 277.478 41.7332C277.478 41.415 277.564 41.1374 277.736 40.9006C277.91 40.6619 278.143 40.4769 278.435 40.3455C278.73 40.2123 279.058 40.1457 279.421 40.1457C279.787 40.1457 280.113 40.2113 280.398 40.3427C280.683 40.4722 280.908 40.6499 281.075 40.8756C281.243 41.1013 281.332 41.3576 281.341 41.6444H280.675ZM282.784 45.9075H282.062L284.149 40.2234H284.86L286.947 45.9075H286.225L284.527 41.1226H284.482L282.784 45.9075ZM283.05 43.6871H285.959V44.2977H283.05V43.6871ZM287.832 45.9075V40.2234H288.521V45.2969H291.163V45.9075H287.832ZM292.229 45.9075V40.2234H295.659V40.834H292.917V42.7546H295.482V43.3652H292.917V45.2969H295.704V45.9075H292.229Z" fill="#002548"/>
<path d="M286.951 38.1966L274.752 30.9894L269.423 34.1371V30.6338H266.451V35.8933L262.553 38.1966H286.951Z" fill="#002548"/>
</g>
<path d="M297.407 51.5174H251.617C249.585 51.5174 247.938 49.8698 247.938 47.8376V34.0969C247.938 32.6924 248.737 31.41 249.999 30.7923L273.12 19.4691C274.149 18.9651 275.355 18.9696 276.381 19.4809L299.049 30.7856C300.298 31.4083 301.087 32.6834 301.087 34.0784V47.837C301.087 49.8698 299.439 51.5174 297.407 51.5174Z" fill="#FFDD33"/>
<path d="M250.516 46.5358V35.8947C250.516 34.9685 251.048 34.1246 251.883 33.7253L273.707 23.2936C274.369 22.9772 275.139 22.9806 275.798 23.302L297.16 33.7202C297.986 34.1234 298.51 34.9623 298.51 35.8813V46.5353C298.51 47.863 297.434 48.9399 296.106 48.9399H252.92C251.592 48.9405 250.516 47.8636 250.516 46.5358Z" fill="#0054A6"/>
<path d="M259.831 43.7649V38.0808H263.239V38.6914H260.519V40.612H262.984V41.2226H260.519V43.7649H259.831ZM269.214 40.9228C269.214 41.5223 269.106 42.0404 268.889 42.4771C268.673 42.9138 268.376 43.2505 267.998 43.4873C267.621 43.7242 267.19 43.8426 266.705 43.8426C266.22 43.8426 265.789 43.7242 265.412 43.4873C265.034 43.2505 264.737 42.9138 264.521 42.4771C264.304 42.0404 264.196 41.5223 264.196 40.9228C264.196 40.3233 264.304 39.8053 264.521 39.3686C264.737 38.9319 265.034 38.5952 265.412 38.3583C265.789 38.1215 266.22 38.0031 266.705 38.0031C267.19 38.0031 267.621 38.1215 267.998 38.3583C268.376 38.5952 268.673 38.9319 268.889 39.3686C269.106 39.8053 269.214 40.3233 269.214 40.9228ZM268.548 40.9228C268.548 40.4307 268.466 40.0153 268.301 39.6767C268.138 39.3381 267.917 39.0818 267.638 38.9079C267.36 38.7339 267.049 38.647 266.705 38.647C266.361 38.647 266.049 38.7339 265.77 38.9079C265.492 39.0818 265.271 39.3381 265.106 39.6767C264.943 40.0153 264.862 40.4307 264.862 40.9228C264.862 41.415 264.943 41.8304 265.106 42.169C265.271 42.5076 265.492 42.7639 265.77 42.9378C266.049 43.1117 266.361 43.1987 266.705 43.1987C267.049 43.1987 267.36 43.1117 267.638 42.9378C267.917 42.7639 268.138 42.5076 268.301 42.169C268.466 41.8304 268.548 41.415 268.548 40.9228ZM270.371 43.7649V38.0808H272.292C272.736 38.0808 273.1 38.1567 273.385 38.3084C273.67 38.4583 273.881 38.6646 274.018 38.9273C274.155 39.19 274.224 39.4889 274.224 39.8238C274.224 40.1587 274.155 40.4556 274.018 40.7147C273.881 40.9737 273.671 41.1773 273.388 41.3253C273.105 41.4715 272.743 41.5445 272.303 41.5445H270.749V40.9228H272.281C272.584 40.9228 272.829 40.8784 273.014 40.7896C273.2 40.7008 273.335 40.575 273.419 40.4122C273.504 40.2475 273.546 40.0514 273.546 39.8238C273.546 39.5962 273.504 39.3973 273.419 39.227C273.334 39.0568 273.198 38.9254 273.011 38.8329C272.824 38.7386 272.577 38.6914 272.27 38.6914H271.06V43.7649H270.371ZM273.047 41.2115L274.446 43.7649H273.646L272.27 41.2115H273.047ZM280.677 39.5018C280.644 39.2206 280.509 39.0022 280.272 38.8468C280.035 38.6914 279.745 38.6137 279.401 38.6137C279.149 38.6137 278.929 38.6544 278.74 38.7358C278.553 38.8172 278.407 38.9292 278.301 39.0716C278.198 39.2141 278.146 39.376 278.146 39.5573C278.146 39.709 278.182 39.8395 278.254 39.9487C278.328 40.056 278.423 40.1457 278.537 40.2179C278.652 40.2882 278.772 40.3465 278.898 40.3927C279.024 40.4371 279.14 40.4732 279.245 40.501L279.822 40.6564C279.97 40.6953 280.135 40.7489 280.316 40.8174C280.5 40.8858 280.674 40.9793 280.841 41.0977C281.009 41.2143 281.148 41.3641 281.257 41.5473C281.366 41.7305 281.421 41.9553 281.421 42.2217C281.421 42.5289 281.341 42.8064 281.18 43.0544C281.02 43.3023 280.787 43.4994 280.48 43.6455C280.175 43.7917 279.804 43.8648 279.367 43.8648C278.96 43.8648 278.608 43.7991 278.31 43.6678C278.014 43.5364 277.781 43.3532 277.61 43.1182C277.442 42.8832 277.347 42.6103 277.324 42.2995H278.035C278.054 42.5141 278.126 42.6917 278.251 42.8323C278.379 42.9711 278.54 43.0747 278.734 43.1432C278.931 43.2098 279.141 43.2431 279.367 43.2431C279.63 43.2431 279.866 43.2006 280.075 43.1154C280.284 43.0285 280.45 42.9082 280.572 42.7546C280.694 42.5992 280.755 42.4179 280.755 42.2106C280.755 42.0219 280.702 41.8683 280.597 41.7499C280.491 41.6315 280.352 41.5353 280.18 41.4613C280.008 41.3873 279.822 41.3225 279.623 41.267L278.923 41.0672C278.479 40.9395 278.128 40.7572 277.868 40.5204C277.609 40.2836 277.48 39.9736 277.48 39.5906C277.48 39.2724 277.566 38.9948 277.738 38.758C277.912 38.5193 278.145 38.3343 278.437 38.2029C278.732 38.0697 279.06 38.0031 279.423 38.0031C279.789 38.0031 280.115 38.0688 280.4 38.2001C280.685 38.3297 280.91 38.5073 281.077 38.733C281.245 38.9588 281.334 39.215 281.343 39.5018H280.677ZM282.786 43.7649H282.064L284.151 38.0808H284.862L286.949 43.7649H286.227L284.529 38.98H284.484L282.786 43.7649ZM283.052 41.5445H285.961V42.1551H283.052V41.5445ZM287.834 43.7649V38.0808H288.523V43.1543H291.165V43.7649H287.834ZM292.231 43.7649V38.0808H295.661V38.6914H292.919V40.612H295.483V41.2226H292.919V43.1543H295.706V43.7649H292.231Z" fill="white"/>
<path d="M286.951 36.0538L274.752 28.8471L269.423 31.9949V28.491H266.451V33.7505L262.553 36.0538H286.951Z" fill="white"/>
<path d="M307.223 218.333H108C104.758 218.333 102.129 215.704 102.129 212.462V91.5356C102.129 88.2932 104.758 85.6646 108 85.6646H307.223C310.465 85.6646 313.094 88.2932 313.094 91.5356V212.462C313.094 215.704 310.466 218.333 307.223 218.333Z" fill="#D7D8DC"/>
<path d="M313.094 198.348H102.129V71.55C102.129 68.3076 104.758 65.679 108 65.679H307.223C310.465 65.679 313.094 68.3076 313.094 71.55L313.094 198.348Z" fill="#494982"/>
<path d="M305.604 191.022V72.9558L109.241 72.9558L109.241 191.022L305.604 191.022Z" fill="#D4F9FF"/>
<path d="M305.747 72.98H109.385V83.1154H305.747V72.98Z" fill="#D7D8DC"/>
<path d="M118.517 78.7052C118.517 79.6079 117.785 80.3398 116.883 80.3398C115.98 80.3398 115.248 79.6079 115.248 78.7052C115.248 77.8025 115.98 77.0706 116.883 77.0706C117.785 77.0706 118.517 77.8019 118.517 78.7052Z" fill="#0054A6"/>
<path d="M126.427 78.7052C126.427 79.6079 125.696 80.3398 124.793 80.3398C123.89 80.3398 123.158 79.6079 123.158 78.7052C123.158 77.8025 123.89 77.0706 124.793 77.0706C125.696 77.0706 126.427 77.8019 126.427 78.7052Z" fill="#FFD417"/>
<path d="M134.338 78.7052C134.338 79.6079 133.606 80.3398 132.703 80.3398C131.8 80.3398 131.068 79.6079 131.068 78.7052C131.068 77.8025 131.8 77.0706 132.703 77.0706C133.606 77.0706 134.338 77.8019 134.338 78.7052Z" fill="#94C420"/>
<path d="M284.207 76.0156H140.982V80.3399H284.207V76.0156Z" fill="white"/>
<path d="M302.121 78.6037L298.15 76.311V80.8958L302.121 78.6037Z" fill="#494982"/>
<path d="M291.307 78.6037L295.277 76.311V80.8958L291.307 78.6037Z" fill="#494982"/>
<g opacity="0.05">
<path d="M166.63 105.258C163.897 105.258 161.66 107.494 161.66 110.228C161.66 112.961 163.897 115.198 166.63 115.198H246.218V105.258H166.63V105.258Z" fill="black"/>
<path d="M255.812 105.258H246.219V115.197H255.812C258.545 115.197 260.782 112.961 260.782 110.227C260.782 107.494 258.545 105.258 255.812 105.258Z" fill="black"/>
<path d="M254.176 109.834C254.176 110.942 253.277 111.841 252.169 111.841C251.061 111.841 250.162 110.942 250.162 109.834C250.162 108.726 251.061 107.827 252.169 107.827C253.277 107.827 254.176 108.726 254.176 109.834Z" stroke="black" stroke-width="0.548072" stroke-miterlimit="10"/>
<path d="M253.545 111.296L255.536 113.288" stroke="black" stroke-width="0.434336" stroke-miterlimit="10" stroke-linecap="round" stroke-linejoin="round"/>
</g>
<path d="M166.63 103.006C163.897 103.006 161.66 105.242 161.66 107.976C161.66 110.709 163.897 112.946 166.63 112.946H246.218V103.006H166.63Z" fill="white"/>
<path d="M255.812 103.006H246.219V112.945H255.812C258.545 112.945 260.782 110.708 260.782 107.975C260.782 105.242 258.545 103.006 255.812 103.006Z" fill="#69B9C5"/>
<path d="M252.169 109.589C253.278 109.589 254.176 108.69 254.176 107.582C254.176 106.473 253.278 105.574 252.169 105.574C251.061 105.574 250.162 106.473 250.162 107.582C250.162 108.69 251.061 109.589 252.169 109.589Z" stroke="white" stroke-width="0.548072" stroke-miterlimit="10"/>
<path d="M253.545 109.044L255.536 111.035" stroke="white" stroke-width="0.434336" stroke-miterlimit="10" stroke-linecap="round" stroke-linejoin="round"/>
<path d="M221.476 218.332H191.252V243.415H221.476V218.332Z" fill="#D7D8DC"/>
<path d="M221.476 218.332H191.252V226.386H221.476V218.332Z" fill="#ADACB2"/>
<path d="M249.734 250.694H165.09C165.09 246.674 168.348 243.415 172.368 243.415H242.456C246.476 243.415 249.734 246.674 249.734 250.694Z" fill="#ECEDEF"/>
<path d="M143.502 117.575H280.155" stroke="#6EC1CF" stroke-width="0.562968" stroke-miterlimit="10"/>
<path d="M153.211 122.204H270.442" stroke="#6EC1CF" stroke-width="0.562968" stroke-miterlimit="10"/>
<path d="M149.774 182.902C135.644 182.902 124.189 171.448 124.189 157.318C124.189 143.188 135.644 131.734 149.774 131.734C163.904 131.734 175.358 143.188 175.358 157.318C175.358 171.448 163.904 182.902 149.774 182.902Z" fill="white"/>
<path d="M167.574 157.32H132.436V176.083H167.574V157.32Z" fill="#FFDD33"/>
<path d="M167.574 157.318H132.436V159.037H167.574V157.318Z" fill="#FFDD33"/>
<path d="M167.574 172.279H132.436V176.083H167.574V172.279Z" fill="#0054A6"/>
<path d="M146.948 174.713H139.85V176.006H146.948V174.713Z" fill="white" stroke="#211915" stroke-width="0.107688" stroke-miterlimit="10"/>
<path d="M169.209 141.963H131.477V157.32H169.209V141.963Z" fill="#002548"/>
<path d="M152.358 176.084H134.596V145.826L143.477 138.712L152.358 145.826V176.084Z" fill="#FFDD33"/>
<path d="M152.358 148.159V145.826L143.477 138.712L134.596 145.826V148.159L143.477 141.045L152.358 148.159Z" fill="#FFDD33"/>
<path d="M152.358 171.789H134.596V176.083H152.358V171.789Z" fill="#0054A6"/>
<path d="M146.948 174.713H139.85V176.006H146.948V174.713Z" fill="#ECEDEF"/>
<path d="M146.268 173.419H140.531V174.713H146.268V173.419Z" fill="#F7F7F8"/>
<path d="M145.936 163.974H140.861V173.419H145.936V163.974Z" fill="white"/>
<path d="M145.473 164.438H141.324V173.419H145.473V164.438Z" fill="#002548"/>
<path d="M144.51 165.759H142.291V170.444H144.51V165.759Z" fill="white"/>
<path d="M144.046 166.221H142.752V169.981H144.046V166.221Z" fill="#839299"/>
<path d="M152.843 147.399L143.477 139.897L134.111 147.399L132.953 145.955L143.477 137.526L154 145.955L152.843 147.399Z" fill="#002548"/>
<path d="M146.948 155.679H139.848V156.56H146.948V155.679Z" fill="#002548"/>
<path d="M143.915 147.168H142.881V155.188H143.915V147.168Z" fill="#839299"/>
<path d="M142.486 147.168H141.361V155.188H142.486V147.168Z" fill="#839299"/>
<path d="M145.435 147.168H144.311V155.188H145.435V147.168Z" fill="#839299"/>
<path d="M142.881 147.168H142.486V155.188H142.881V147.168Z" fill="white"/>
<path d="M140.871 146.677V155.679H145.925V146.677H140.871ZM145.434 155.188H144.309H143.915H142.881H142.486H141.362V147.168H142.486H142.881H143.915H144.309H145.434V155.188Z" fill="white"/>
<path d="M144.311 147.168H143.916V155.188H144.311V147.168Z" fill="white"/>
<path d="M166.57 168.278H154.201V169.159H166.57V168.278Z" fill="#002548"/>
<path d="M175.855 176.073H123.693V177.338H175.855V176.073Z" fill="#0054A6"/>
<path d="M131.395 171.823C130.842 171.823 130.394 172.212 130.361 172.702C130.204 172.629 130.03 172.585 129.843 172.585C129.214 172.585 128.704 173.043 128.704 173.609C128.704 173.866 128.813 174.097 128.986 174.277C128.644 174.43 128.406 174.745 128.406 175.113C128.406 175.63 128.872 176.05 129.447 176.05H132.437V172.759C132.436 172.242 131.97 171.823 131.395 171.823Z" fill="#54CC5A"/>
<path d="M168.616 171.823C169.169 171.823 169.617 172.212 169.65 172.702C169.806 172.63 169.981 172.585 170.168 172.585C170.797 172.585 171.307 173.043 171.307 173.609C171.307 173.866 171.198 174.097 171.024 174.277C171.367 174.431 171.605 174.745 171.605 175.113C171.605 175.631 171.139 176.05 170.563 176.05H167.574V172.76C167.575 172.242 168.041 171.823 168.616 171.823Z" fill="#54CC5A"/>
<path d="M162.365 162.85H160.582V167.788H162.365V162.85Z" fill="#839299"/>
<path d="M160.187 162.85H158.404V167.788H160.187V162.85Z" fill="#839299"/>
<path d="M164.827 162.85H162.76V167.788H164.827V162.85Z" fill="#839299"/>
<path d="M158.011 162.85H155.945V167.788H158.011V162.85Z" fill="#839299"/>
<path d="M158.407 162.85H158.012V167.788H158.407V162.85Z" fill="white"/>
<path d="M160.584 162.85H160.189V167.788H160.584V162.85Z" fill="white"/>
<path d="M155.455 162.359V168.278H165.319V162.359H155.455ZM164.828 167.787H162.761H162.366H160.584H160.189H158.406H158.011H155.946V162.85H158.011H158.406H160.189H160.584H162.366H162.761H164.828V167.787Z" fill="white"/>
<path d="M162.762 162.85H162.367V167.788H162.762V162.85Z" fill="white"/>
<path d="M146.984 163.248H139.814L140.317 162.039H146.482L146.984 163.248Z" fill="#002548"/>
<path d="M146.983 163.248H139.814V163.661H146.983V163.248Z" fill="#002548"/>
<path d="M181.453 94.8063C181.423 94.5586 181.304 94.3664 181.096 94.2295C180.887 94.0927 180.631 94.0242 180.328 94.0242C180.107 94.0242 179.913 94.0601 179.747 94.1318C179.582 94.2034 179.454 94.302 179.361 94.4275C179.269 94.5529 179.224 94.6955 179.224 94.8551C179.224 94.9887 179.256 95.1036 179.319 95.1997C179.384 95.2942 179.467 95.3732 179.568 95.4368C179.669 95.4987 179.775 95.55 179.886 95.5908C179.997 95.6299 180.099 95.6616 180.192 95.6861L180.7 95.8229C180.83 95.8571 180.975 95.9044 181.135 95.9647C181.296 96.0249 181.45 96.1072 181.597 96.2115C181.745 96.3141 181.867 96.4461 181.963 96.6074C182.059 96.7687 182.108 96.9667 182.108 97.2013C182.108 97.4717 182.037 97.7161 181.895 97.9344C181.755 98.1527 181.55 98.3263 181.279 98.455C181.01 98.5837 180.684 98.648 180.299 98.648C179.941 98.648 179.63 98.5902 179.368 98.4745C179.107 98.3588 178.902 98.1976 178.752 97.9906C178.604 97.7837 178.52 97.5434 178.5 97.2697H179.126C179.142 97.4587 179.206 97.6151 179.317 97.7389C179.429 97.8611 179.571 97.9523 179.742 98.0126C179.915 98.0713 180.1 98.1006 180.299 98.1006C180.53 98.1006 180.738 98.0631 180.922 97.9882C181.106 97.9116 181.252 97.8057 181.36 97.6705C181.467 97.5336 181.521 97.374 181.521 97.1915C181.521 97.0253 181.475 96.8901 181.382 96.7858C181.289 96.6815 181.167 96.5968 181.015 96.5316C180.864 96.4665 180.7 96.4094 180.524 96.3606L179.908 96.1846C179.517 96.0722 179.207 95.9117 178.979 95.7032C178.751 95.4946 178.637 95.2217 178.637 94.8845C178.637 94.6042 178.713 94.3599 178.865 94.1513C179.018 93.9411 179.223 93.7782 179.48 93.6625C179.739 93.5452 180.029 93.4866 180.348 93.4866C180.671 93.4866 180.957 93.5444 181.208 93.6601C181.459 93.7741 181.658 93.9305 181.805 94.1293C181.953 94.3281 182.031 94.5537 182.039 94.8063H181.453ZM183.104 98.5601V93.555H186.125V94.0927H183.71V95.7838H185.968V96.3215H183.71V98.0224H186.164V98.5601H183.104ZM187.422 98.5601H186.787L188.625 93.555H189.25L191.088 98.5601H190.453L188.957 94.3468H188.918L187.422 98.5601ZM187.657 96.605H190.218V97.1426H187.657V96.605ZM191.868 98.5601V93.555H193.559C193.95 93.555 194.271 93.6218 194.522 93.7554C194.773 93.8874 194.958 94.069 195.079 94.3004C195.2 94.5317 195.26 94.7949 195.26 95.0898C195.26 95.3847 195.2 95.6461 195.079 95.8742C194.958 96.1023 194.774 96.2816 194.524 96.4119C194.275 96.5406 193.956 96.605 193.569 96.605H192.2V96.0575H193.549C193.816 96.0575 194.031 96.0184 194.194 95.9402C194.359 95.862 194.478 95.7512 194.551 95.6079C194.626 95.4629 194.664 95.2902 194.664 95.0898C194.664 94.8894 194.626 94.7142 194.551 94.5643C194.476 94.4144 194.356 94.2988 194.192 94.2173C194.027 94.1342 193.81 94.0927 193.539 94.0927H192.474V98.5601H191.868ZM194.224 96.3117L195.455 98.5601H194.752L193.539 96.3117H194.224ZM200.297 95.1191H199.691C199.655 94.9448 199.593 94.7916 199.503 94.6596C199.415 94.5277 199.308 94.4169 199.18 94.3273C199.055 94.236 198.916 94.1676 198.763 94.122C198.609 94.0764 198.45 94.0536 198.284 94.0536C197.981 94.0536 197.706 94.1301 197.46 94.2833C197.216 94.4364 197.021 94.6621 196.876 94.9602C196.733 95.2584 196.661 95.6242 196.661 96.0575C196.661 96.4909 196.733 96.8567 196.876 97.1548C197.021 97.453 197.216 97.6786 197.46 97.8318C197.706 97.9849 197.981 98.0615 198.284 98.0615C198.45 98.0615 198.609 98.0387 198.763 97.9931C198.916 97.9475 199.055 97.8798 199.18 97.7902C199.308 97.699 199.415 97.5874 199.503 97.4554C199.593 97.3218 199.655 97.1687 199.691 96.996H200.297C200.252 97.2518 200.169 97.4807 200.048 97.6827C199.927 97.8847 199.778 98.0566 199.598 98.1984C199.419 98.3385 199.218 98.4452 198.995 98.5185C198.773 98.5918 198.536 98.6285 198.284 98.6285C197.857 98.6285 197.477 98.5242 197.145 98.3157C196.812 98.1071 196.551 97.8106 196.36 97.4261C196.17 97.0416 196.074 96.5854 196.074 96.0575C196.074 95.5297 196.17 95.0735 196.36 94.689C196.551 94.3045 196.812 94.0079 197.145 93.7994C197.477 93.5908 197.857 93.4866 198.284 93.4866C198.536 93.4866 198.773 93.5232 198.995 93.5965C199.218 93.6699 199.419 93.7774 199.598 93.9191C199.778 94.0593 199.927 94.2303 200.048 94.4324C200.169 94.6328 200.252 94.8617 200.297 95.1191ZM201.277 98.5601V93.555H201.883V95.7838H204.551V93.555H205.158V98.5601H204.551V96.3215H201.883V98.5601H201.277ZM207.876 93.555H208.57L209.959 95.8913H210.017L211.405 93.555H212.099L210.291 96.4974V98.5601H209.685V96.4974L207.876 93.555ZM216.871 96.0575C216.871 96.5854 216.776 97.0416 216.585 97.4261C216.395 97.8106 216.133 98.1071 215.801 98.3157C215.468 98.5242 215.089 98.6285 214.662 98.6285C214.235 98.6285 213.855 98.5242 213.523 98.3157C213.191 98.1071 212.929 97.8106 212.738 97.4261C212.548 97.0416 212.453 96.5854 212.453 96.0575C212.453 95.5297 212.548 95.0735 212.738 94.689C212.929 94.3045 213.191 94.0079 213.523 93.7994C213.855 93.5908 214.235 93.4866 214.662 93.4866C215.089 93.4866 215.468 93.5908 215.801 93.7994C216.133 94.0079 216.395 94.3045 216.585 94.689C216.776 95.0735 216.871 95.5297 216.871 96.0575ZM216.285 96.0575C216.285 95.6242 216.212 95.2584 216.067 94.9602C215.924 94.6621 215.729 94.4364 215.483 94.2833C215.239 94.1301 214.965 94.0536 214.662 94.0536C214.359 94.0536 214.084 94.1301 213.838 94.2833C213.594 94.4364 213.399 94.6621 213.254 94.9602C213.111 95.2584 213.039 95.6242 213.039 96.0575C213.039 96.4909 213.111 96.8567 213.254 97.1548C213.399 97.453 213.594 97.6786 213.838 97.8318C214.084 97.9849 214.359 98.0615 214.662 98.0615C214.965 98.0615 215.239 97.9849 215.483 97.8318C215.729 97.6786 215.924 97.453 216.067 97.1548C216.212 96.8567 216.285 96.4909 216.285 96.0575ZM221.175 93.555H221.781V96.8689C221.781 97.211 221.7 97.5165 221.539 97.7854C221.379 98.0525 221.154 98.2635 220.862 98.4183C220.57 98.5715 220.228 98.648 219.835 98.648C219.443 98.648 219.101 98.5715 218.809 98.4183C218.517 98.2635 218.291 98.0525 218.13 97.7854C217.97 97.5165 217.89 97.211 217.89 96.8689V93.555H218.496V96.82C218.496 97.0644 218.55 97.2819 218.658 97.4725C218.765 97.6615 218.918 97.8106 219.117 97.9198C219.317 98.0273 219.557 98.0811 219.835 98.0811C220.114 98.0811 220.354 98.0273 220.554 97.9198C220.754 97.8106 220.908 97.6615 221.013 97.4725C221.121 97.2819 221.175 97.0644 221.175 96.82V93.555ZM222.991 98.5601V93.555H224.682C225.073 93.555 225.394 93.6218 225.645 93.7554C225.896 93.8874 226.082 94.069 226.202 94.3004C226.323 94.5317 226.383 94.7949 226.383 95.0898C226.383 95.3847 226.323 95.6461 226.202 95.8742C226.082 96.1023 225.897 96.2816 225.648 96.4119C225.398 96.5406 225.08 96.605 224.692 96.605H223.324V96.0575H224.673C224.94 96.0575 225.155 96.0184 225.318 95.9402C225.482 95.862 225.601 95.7512 225.675 95.6079C225.749 95.4629 225.787 95.2902 225.787 95.0898C225.787 94.8894 225.749 94.7142 225.675 94.5643C225.6 94.4144 225.48 94.2988 225.315 94.2173C225.151 94.1342 224.933 94.0927 224.663 94.0927H223.597V98.5601H222.991ZM225.347 96.3117L226.579 98.5601H225.875L224.663 96.3117H225.347ZM229.329 98.5601V93.555H229.935V95.7838H232.604V93.555H233.21V98.5601H232.604V96.3215H229.935V98.5601H229.329ZM238.646 96.0575C238.646 96.5854 238.551 97.0416 238.36 97.4261C238.169 97.8106 237.908 98.1071 237.576 98.3157C237.243 98.5242 236.864 98.6285 236.437 98.6285C236.01 98.6285 235.63 98.5242 235.298 98.3157C234.966 98.1071 234.704 97.8106 234.513 97.4261C234.323 97.0416 234.227 96.5854 234.227 96.0575C234.227 95.5297 234.323 95.0735 234.513 94.689C234.704 94.3045 234.966 94.0079 235.298 93.7994C235.63 93.5908 236.01 93.4866 236.437 93.4866C236.864 93.4866 237.243 93.5908 237.576 93.7994C237.908 94.0079 238.169 94.3045 238.36 94.689C238.551 95.0735 238.646 95.5297 238.646 96.0575ZM238.059 96.0575C238.059 95.6242 237.987 95.2584 237.842 94.9602C237.699 94.6621 237.504 94.4364 237.258 94.2833C237.013 94.1301 236.74 94.0536 236.437 94.0536C236.134 94.0536 235.859 94.1301 235.613 94.2833C235.369 94.4364 235.174 94.6621 235.029 94.9602C234.886 95.2584 234.814 95.6242 234.814 96.0575C234.814 96.4909 234.886 96.8567 235.029 97.1548C235.174 97.453 235.369 97.6786 235.613 97.8318C235.859 97.9849 236.134 98.0615 236.437 98.0615C236.74 98.0615 237.013 97.9849 237.258 97.8318C237.504 97.6786 237.699 97.453 237.842 97.1548C237.987 96.8567 238.059 96.4909 238.059 96.0575ZM242.95 93.555H243.556V96.8689C243.556 97.211 243.475 97.5165 243.314 97.7854C243.154 98.0525 242.928 98.2635 242.637 98.4183C242.345 98.5715 242.003 98.648 241.61 98.648C241.218 98.648 240.876 98.5715 240.584 98.4183C240.292 98.2635 240.066 98.0525 239.905 97.7854C239.745 97.5165 239.665 97.211 239.665 96.8689V93.555H240.271V96.82C240.271 97.0644 240.325 97.2819 240.432 97.4725C240.54 97.6615 240.693 97.8106 240.892 97.9198C241.092 98.0273 241.332 98.0811 241.61 98.0811C241.889 98.0811 242.129 98.0273 242.329 97.9198C242.529 97.8106 242.682 97.6615 242.788 97.4725C242.896 97.2819 242.95 97.0644 242.95 96.82V93.555ZM247.503 94.8063C247.474 94.5586 247.355 94.3664 247.146 94.2295C246.938 94.0927 246.682 94.0242 246.379 94.0242C246.157 94.0242 245.964 94.0601 245.797 94.1318C245.633 94.2034 245.504 94.302 245.411 94.4275C245.32 94.5529 245.274 94.6955 245.274 94.8551C245.274 94.9887 245.306 95.1036 245.37 95.1997C245.435 95.2942 245.518 95.3732 245.619 95.4368C245.72 95.4987 245.826 95.55 245.937 95.5908C246.047 95.6299 246.149 95.6616 246.242 95.6861L246.75 95.8229C246.881 95.8571 247.026 95.9044 247.185 95.9647C247.347 96.0249 247.501 96.1072 247.647 96.2115C247.796 96.3141 247.918 96.4461 248.014 96.6074C248.11 96.7687 248.158 96.9667 248.158 97.2013C248.158 97.4717 248.087 97.7161 247.946 97.9344C247.805 98.1527 247.6 98.3263 247.33 98.455C247.061 98.5837 246.734 98.648 246.35 98.648C245.991 98.648 245.681 98.5902 245.419 98.4745C245.158 98.3588 244.953 98.1976 244.803 97.9906C244.654 97.7837 244.571 97.5434 244.551 97.2697H245.177C245.193 97.4587 245.256 97.6151 245.367 97.7389C245.48 97.8611 245.621 97.9523 245.792 98.0126C245.965 98.0713 246.151 98.1006 246.35 98.1006C246.581 98.1006 246.789 98.0631 246.973 97.9882C247.157 97.9116 247.303 97.8057 247.41 97.6705C247.518 97.5336 247.572 97.374 247.572 97.1915C247.572 97.0253 247.525 96.8901 247.432 96.7858C247.339 96.6815 247.217 96.5968 247.066 96.5316C246.914 96.4665 246.75 96.4094 246.575 96.3606L245.959 96.1846C245.568 96.0722 245.258 95.9117 245.03 95.7032C244.802 95.4946 244.688 95.2217 244.688 94.8845C244.688 94.6042 244.764 94.3599 244.915 94.1513C245.068 93.9411 245.274 93.7782 245.531 93.6625C245.79 93.5452 246.079 93.4866 246.399 93.4866C246.721 93.4866 247.008 93.5444 247.259 93.6601C247.51 93.7741 247.708 93.9305 247.855 94.1293C248.003 94.3281 248.082 94.5537 248.09 94.8063H247.503ZM249.155 98.5601V93.555H252.175V94.0927H249.761V95.7838H252.019V96.3215H249.761V98.0224H252.214V98.5601H249.155Z" fill="#494982"/>
<g opacity="0.05">
<path d="M209.694 184.035C195.564 184.035 184.109 172.581 184.109 158.451C184.109 144.321 195.564 132.867 209.694 132.867C223.823 132.867 235.278 144.321 235.278 158.451C235.278 172.58 223.823 184.035 209.694 184.035Z" fill="black"/>
<path d="M227.494 158.453H192.355V177.216H227.494V158.453Z" fill="black"/>
<path d="M227.494 158.451H192.355V160.17H227.494V158.451Z" fill="black"/>
<path d="M227.494 173.412H192.355V177.216H227.494V173.412Z" fill="black"/>
<path d="M206.868 175.845H199.77V177.139H206.868V175.845Z" fill="black" stroke="black" stroke-width="0.107688" stroke-miterlimit="10"/>
<path d="M229.129 143.096H191.396V158.453H229.129V143.096Z" fill="black"/>
<path d="M212.278 177.216H194.516V146.958L203.397 139.845L212.278 146.958V177.216Z" fill="black"/>
<path d="M212.278 149.292V146.958L203.397 139.845L194.516 146.958V149.292L203.397 142.178L212.278 149.292Z" fill="black"/>
<path d="M212.278 172.922H194.516V177.216H212.278V172.922Z" fill="black"/>
<path d="M206.868 175.845H199.77V177.139H206.868V175.845Z" fill="black"/>
<path d="M206.188 174.552H200.451V175.845H206.188V174.552Z" fill="black"/>
<path d="M205.856 165.108H200.781V174.552H205.856V165.108Z" fill="black"/>
<path d="M205.393 165.571H201.244V174.552H205.393V165.571Z" fill="black"/>
<path d="M204.43 166.891H202.211V171.577H204.43V166.891Z" fill="black"/>
<path d="M203.965 167.354H202.672V171.114H203.965V167.354Z" fill="black"/>
<path d="M212.763 148.532L203.397 141.031L194.031 148.532L192.873 147.088L203.397 138.659L213.92 147.088L212.763 148.532Z" fill="black"/>
<path d="M206.87 156.812H199.77V157.693H206.87V156.812Z" fill="black"/>
<path d="M203.836 148.3H202.803V156.321H203.836V148.3Z" fill="black"/>
<path d="M202.408 148.3H201.283V156.321H202.408V148.3Z" fill="black"/>
<path d="M205.355 148.3H204.23V156.321H205.355V148.3Z" fill="black"/>
<path d="M202.801 148.3H202.406V156.321H202.801V148.3Z" fill="black"/>
<path d="M200.793 147.81V156.812H205.846V147.81H200.793ZM205.356 156.321H204.231H203.837H202.803H202.408H201.284V148.301H202.408H202.803H203.837H204.231H205.356V156.321Z" fill="black"/>
<path d="M204.231 148.3H203.836V156.321H204.231V148.3Z" fill="black"/>
<path d="M226.49 169.41H214.121V170.291H226.49V169.41Z" fill="black"/>
<path d="M235.775 177.206H183.613V178.471H235.775V177.206Z" fill="black"/>
<path d="M191.315 172.956C190.762 172.956 190.314 173.344 190.281 173.834C190.124 173.762 189.95 173.717 189.763 173.717C189.134 173.717 188.624 174.176 188.624 174.741C188.624 174.998 188.733 175.23 188.906 175.409C188.564 175.563 188.326 175.878 188.326 176.246C188.326 176.763 188.792 177.182 189.367 177.182H192.357V173.892C192.356 173.375 191.89 172.956 191.315 172.956Z" fill="black"/>
<path d="M228.536 172.956C229.088 172.956 229.536 173.344 229.57 173.834C229.726 173.762 229.9 173.717 230.088 173.717C230.717 173.717 231.227 174.176 231.227 174.741C231.227 174.998 231.118 175.23 230.944 175.409C231.287 175.563 231.524 175.878 231.524 176.246C231.524 176.763 231.059 177.182 230.483 177.182H227.494V173.892C227.495 173.375 227.961 172.956 228.536 172.956Z" fill="black"/>
<path d="M222.284 163.983H220.502V168.921H222.284V163.983Z" fill="black"/>
<path d="M220.107 163.983H218.324V168.921H220.107V163.983Z" fill="black"/>
<path d="M224.747 163.983H222.68V168.921H224.747V163.983Z" fill="black"/>
<path d="M217.929 163.983H215.863V168.921H217.929V163.983Z" fill="black"/>
<path d="M218.323 163.983H217.928V168.921H218.323V163.983Z" fill="black"/>
<path d="M220.5 163.983H220.105V168.921H220.5V163.983Z" fill="black"/>
<path d="M215.373 163.492V169.411H225.237V163.492H215.373ZM224.746 168.92H222.679H222.284H220.502H220.107H218.324H217.929H215.864V163.982H217.929H218.324H220.107H220.502H222.284H222.679H224.746V168.92Z" fill="black"/>
<path d="M222.678 163.983H222.283V168.921H222.678V163.983Z" fill="black"/>
<path d="M206.903 164.38H199.734L200.237 163.171H206.402L206.903 164.38Z" fill="black"/>
<path d="M206.903 164.38H199.734V164.795H206.903V164.38Z" fill="black"/>
</g>
<path d="M209.694 181.783C195.564 181.783 184.109 170.329 184.109 156.199C184.109 142.069 195.564 130.615 209.694 130.615C223.823 130.615 235.278 142.069 235.278 156.199C235.278 170.329 223.823 181.783 209.694 181.783Z" fill="white"/>
<path d="M227.494 156.201H192.355V174.965H227.494V156.201Z" fill="#FFDD33"/>
<path d="M227.494 156.199H192.355V157.918H227.494V156.199Z" fill="#FFDD33"/>
<path d="M227.494 171.16H192.355V174.964H227.494V171.16Z" fill="#0054A6"/>
<path d="M206.868 173.594H199.77V174.888H206.868V173.594Z" fill="white" stroke="#211915" stroke-width="0.107688" stroke-miterlimit="10"/>
<path d="M229.129 140.844H191.396V156.201H229.129V140.844Z" fill="#002548"/>
<path d="M212.278 174.965H194.516V144.707L203.397 137.593L212.278 144.707V174.965Z" fill="#FFDD33"/>
<path d="M212.278 147.04V144.707L203.397 137.593L194.516 144.707V147.04L203.397 139.927L212.278 147.04Z" fill="#FFDD33"/>
<path d="M212.278 170.67H194.516V174.964H212.278V170.67Z" fill="#0054A6"/>
<path d="M206.868 173.594H199.77V174.888H206.868V173.594Z" fill="#ECEDEF"/>
<path d="M206.188 172.3H200.451V173.594H206.188V172.3Z" fill="#F7F7F8"/>
<path d="M205.856 162.855H200.781V172.3H205.856V162.855Z" fill="white"/>
<path d="M205.393 163.319H201.244V172.3H205.393V163.319Z" fill="#002548"/>
<path d="M204.43 164.64H202.211V169.325H204.43V164.64Z" fill="white"/>
<path d="M203.965 165.103H202.672V168.862H203.965V165.103Z" fill="#839299"/>
<path d="M212.763 146.281L203.397 138.779L194.031 146.281L192.873 144.836L203.397 136.407L213.92 144.836L212.763 146.281Z" fill="#002548"/>
<path d="M206.87 154.561H199.77V155.441H206.87V154.561Z" fill="#002548"/>
<path d="M203.836 146.049H202.803V154.07H203.836V146.049Z" fill="#839299"/>
<path d="M202.408 146.049H201.283V154.07H202.408V146.049Z" fill="#839299"/>
<path d="M205.357 146.049H204.232V154.07H205.357V146.049Z" fill="#839299"/>
<path d="M202.803 146.049H202.408V154.07H202.803V146.049Z" fill="white"/>
<path d="M200.793 145.559V154.561H205.846V145.559H200.793ZM205.356 154.07H204.231H203.837H202.803H202.408H201.284V146.049H202.408H202.803H203.837H204.231H205.356V154.07Z" fill="white"/>
<path d="M204.233 146.049H203.838V154.07H204.233V146.049Z" fill="white"/>
<path d="M226.49 167.159H214.121V168.04H226.49V167.159Z" fill="#002548"/>
<path d="M235.775 174.954H183.613V176.219H235.775V174.954Z" fill="#0054A6"/>
<path d="M191.315 170.704C190.762 170.704 190.314 171.093 190.281 171.583C190.124 171.511 189.95 171.466 189.763 171.466C189.134 171.466 188.624 171.924 188.624 172.49C188.624 172.747 188.733 172.978 188.906 173.158C188.564 173.311 188.326 173.626 188.326 173.994C188.326 174.512 188.792 174.931 189.367 174.931H192.357V171.64C192.356 171.123 191.89 170.704 191.315 170.704Z" fill="#54CC5A"/>
<path d="M228.536 170.704C229.088 170.704 229.536 171.093 229.57 171.583C229.726 171.511 229.9 171.466 230.088 171.466C230.717 171.466 231.227 171.924 231.227 172.49C231.227 172.747 231.118 172.978 230.944 173.158C231.287 173.311 231.524 173.626 231.524 173.994C231.524 174.512 231.059 174.931 230.483 174.931H227.494V171.64C227.495 171.123 227.961 170.704 228.536 170.704Z" fill="#54CC5A"/>
<path d="M222.284 161.731H220.502V166.669H222.284V161.731Z" fill="#839299"/>
<path d="M220.107 161.731H218.324V166.669H220.107V161.731Z" fill="#839299"/>
<path d="M224.747 161.731H222.68V166.669H224.747V161.731Z" fill="#839299"/>
<path d="M217.931 161.731H215.865V166.669H217.931V161.731Z" fill="#839299"/>
<path d="M218.326 161.731H217.932V166.669H218.326V161.731Z" fill="white"/>
<path d="M220.504 161.731H220.109V166.669H220.504V161.731Z" fill="white"/>
<path d="M215.375 161.24V167.159H225.239V161.24H215.375ZM224.748 166.668H222.681H222.286H220.503H220.109H218.326H217.931H215.866V161.731H217.931H218.326H220.109H220.503H222.286H222.681H224.748V166.668Z" fill="white"/>
<path d="M222.682 161.731H222.287V166.669H222.682V161.731Z" fill="white"/>
<path d="M206.903 162.129H199.734L200.237 160.92H206.402L206.903 162.129Z" fill="#002548"/>
<path d="M206.903 162.129H199.734V162.542H206.903V162.129Z" fill="#002548"/>
<path d="M273.533 182.902C259.403 182.902 247.949 171.448 247.949 157.318C247.949 143.188 259.403 131.734 273.533 131.734C287.663 131.734 299.118 143.188 299.118 157.318C299.118 171.448 287.663 182.902 273.533 182.902Z" fill="white"/>
<path d="M291.334 157.32H256.195V176.083H291.334V157.32Z" fill="#FFDD33"/>
<path d="M291.334 157.318H256.195V159.037H291.334V157.318Z" fill="#FFDD33"/>
<path d="M291.334 172.279H256.195V176.083H291.334V172.279Z" fill="#0054A6"/>
<path d="M270.707 174.713H263.609V176.006H270.707V174.713Z" fill="white" stroke="#211915" stroke-width="0.107688" stroke-miterlimit="10"/>
<path d="M292.969 141.963H255.236V157.32H292.969V141.963Z" fill="#002548"/>
<path d="M276.118 176.084H258.355V145.826L267.237 138.712L276.118 145.826V176.084Z" fill="#FFDD33"/>
<path d="M276.118 148.159V145.826L267.237 138.712L258.355 145.826V148.159L267.237 141.045L276.118 148.159Z" fill="#FFDD33"/>
<path d="M276.118 171.789H258.355V176.083H276.118V171.789Z" fill="#0054A6"/>
<path d="M270.707 174.713H263.609V176.006H270.707V174.713Z" fill="#ECEDEF"/>
<path d="M270.028 173.419H264.291V174.713H270.028V173.419Z" fill="#F7F7F8"/>
<path d="M269.696 163.974H264.621V173.419H269.696V163.974Z" fill="white"/>
<path d="M269.233 164.438H265.084V173.419H269.233V164.438Z" fill="#002548"/>
<path d="M268.27 165.759H266.051V170.444H268.27V165.759Z" fill="white"/>
<path d="M267.805 166.221H266.512V169.981H267.805V166.221Z" fill="#839299"/>
<path d="M276.602 147.399L267.236 139.897L257.87 147.399L256.713 145.955L267.236 137.526L277.759 145.955L276.602 147.399Z" fill="#002548"/>
<path d="M270.71 155.679H263.609V156.56H270.71V155.679Z" fill="#002548"/>
<path d="M267.676 147.168H266.643V155.188H267.676V147.168Z" fill="#839299"/>
<path d="M266.248 147.168H265.123V155.188H266.248V147.168Z" fill="#839299"/>
<path d="M269.197 147.168H268.072V155.188H269.197V147.168Z" fill="#839299"/>
<path d="M266.643 147.168H266.248V155.188H266.643V147.168Z" fill="white"/>
<path d="M264.633 146.677V155.679H269.686V146.677H264.633ZM269.196 155.188H268.071H267.676H266.643H266.248H265.123V147.168H266.248H266.643H267.676H268.071H269.196V155.188Z" fill="white"/>
<path d="M268.073 147.168H267.678V155.188H268.073V147.168Z" fill="white"/>
<path d="M290.33 168.278H277.961V169.159H290.33V168.278Z" fill="#002548"/>
<path d="M299.615 176.073H247.453V177.338H299.615V176.073Z" fill="#0054A6"/>
<path d="M255.155 171.823C254.602 171.823 254.154 172.212 254.12 172.702C253.964 172.629 253.79 172.585 253.602 172.585C252.974 172.585 252.464 173.043 252.464 173.609C252.464 173.866 252.573 174.097 252.746 174.277C252.403 174.43 252.166 174.745 252.166 175.113C252.166 175.63 252.632 176.05 253.207 176.05H256.196V172.759C256.196 172.242 255.73 171.823 255.155 171.823Z" fill="#54CC5A"/>
<path d="M292.376 171.823C292.928 171.823 293.376 172.212 293.41 172.702C293.566 172.63 293.74 172.585 293.928 172.585C294.557 172.585 295.066 173.043 295.066 173.609C295.066 173.866 294.958 174.097 294.784 174.277C295.127 174.431 295.364 174.745 295.364 175.113C295.364 175.631 294.898 176.05 294.323 176.05H291.334V172.76C291.335 172.242 291.8 171.823 292.376 171.823Z" fill="#54CC5A"/>
<path d="M286.124 162.85H284.342V167.788H286.124V162.85Z" fill="#839299"/>
<path d="M283.947 162.85H282.164V167.788H283.947V162.85Z" fill="#839299"/>
<path d="M288.587 162.85H286.52V167.788H288.587V162.85Z" fill="#839299"/>
<path d="M281.77 162.85H279.705V167.788H281.77V162.85Z" fill="#839299"/>
<path d="M282.166 162.85H281.771V167.788H282.166V162.85Z" fill="white"/>
<path d="M284.344 162.85H283.949V167.788H284.344V162.85Z" fill="white"/>
<path d="M279.215 162.359V168.278H289.079V162.359H279.215ZM288.588 167.787H286.521H286.126H284.343H283.949H282.166H281.771H279.706V162.85H281.771H282.166H283.949H284.343H286.126H286.521H288.588V167.787Z" fill="white"/>
<path d="M286.522 162.85H286.127V167.788H286.522V162.85Z" fill="white"/>
<path d="M270.743 163.248H263.574L264.077 162.039H270.242L270.743 163.248Z" fill="#002548"/>
<path d="M270.743 163.248H263.574V163.661H270.743V163.248Z" fill="#002548"/>
<g opacity="0.1">
<path d="M341.984 171.981L336.287 177.678L349.461 190.852L355.158 185.155L341.984 171.981Z" fill="black"/>
<path d="M396.811 226.423L390.733 232.5C389.657 233.577 387.911 233.577 386.834 232.5L349.21 194.876C348.133 193.799 348.133 192.053 349.21 190.976L355.287 184.899C356.364 183.822 358.11 183.822 359.186 184.899L396.811 222.523C397.887 223.6 397.887 225.346 396.811 226.423Z" fill="black"/>
<path d="M284.282 119.972C268.695 135.559 268.695 160.831 284.282 176.418C299.869 192.005 325.141 192.005 340.728 176.418C356.315 160.831 356.315 135.559 340.728 119.972C325.141 104.385 299.869 104.385 284.282 119.972ZM335.977 171.667C323.014 184.631 301.997 184.631 289.033 171.667C276.07 158.704 276.07 137.686 289.033 124.723C301.997 111.759 323.014 111.759 335.977 124.723C348.94 137.686 348.94 158.704 335.977 171.667Z" fill="black"/>
<path opacity="0.7" d="M319.428 142.301C324.564 140.146 326.98 134.236 324.826 129.1C322.671 123.965 316.761 121.548 311.625 123.703C306.489 125.858 304.073 131.768 306.228 136.904C308.383 142.039 314.293 144.456 319.428 142.301Z" fill="black"/>
</g>
<path d="M341.986 168.765L336.289 174.462L349.463 187.635L355.16 181.938L341.986 168.765Z" fill="#69B9C5"/>
<path d="M396.813 223.203L390.735 229.28C389.659 230.357 387.913 230.357 386.836 229.28L349.212 191.656C348.135 190.579 348.135 188.834 349.212 187.758L355.289 181.68C356.366 180.604 358.111 180.604 359.188 181.68L396.813 219.305C397.889 220.381 397.889 222.126 396.813 223.203Z" fill="#3C3C6B"/>
<path d="M284.284 116.753C268.697 132.34 268.697 157.612 284.284 173.199C299.871 188.786 325.143 188.786 340.73 173.199C356.317 157.612 356.317 132.34 340.73 116.753C325.143 101.165 299.871 101.165 284.284 116.753ZM335.979 168.448C323.016 181.411 301.998 181.411 289.035 168.448C276.072 155.485 276.072 134.467 289.035 121.504C301.998 108.54 323.016 108.54 335.979 121.504C348.942 134.467 348.942 155.485 335.979 168.448Z" fill="#3C3C6B"/>
<path opacity="0.7" d="M319.43 139.083C324.566 136.928 326.982 131.018 324.828 125.882C322.673 120.747 316.763 118.33 311.627 120.485C306.491 122.64 304.075 128.55 306.23 133.686C308.385 138.821 314.295 141.238 319.43 139.083Z" fill="white"/>
</g>
<defs>
<clipPath id="clip0_16116_9232">
<rect width="420" height="280" fill="white"/>
</clipPath>
</defs>
</svg>
