<svg width="73" height="65" viewBox="0 0 73 65" fill="none" xmlns="http://www.w3.org/2000/svg">
<g clip-path="url(#clip0_4038_11806)">
<path d="M0.212891 32.4294C0.212891 37.8596 5.51533 42.9288 13.8751 45.7861C12.2057 54.1903 13.5759 60.9639 18.1524 63.6034C22.8567 66.3161 29.8648 64.4383 36.5165 58.624C43.0003 64.2036 49.5534 66.3995 54.1257 63.7525C58.8254 61.0319 60.2549 53.7988 58.5393 45.1323C67.2465 42.2536 72.117 37.931 72.117 32.4294C72.117 27.1252 66.8047 22.5363 58.5577 19.6972C60.4045 10.6726 58.8397 4.0633 54.0737 1.31488C49.4787 -1.33477 42.8496 0.974672 36.2704 6.70042C29.4258 0.622991 22.8621 -1.23252 18.1007 1.52391C13.5102 4.18109 12.2003 11.0779 13.8751 19.6376C5.79761 22.4539 0.212891 27.1464 0.212891 32.4294Z" fill="white"/>
<path d="M56.8111 22.5166C56.1487 22.2885 55.4622 22.0728 54.7555 21.8688C54.8716 21.3947 54.9783 20.9267 55.0731 20.4667C56.6291 12.9133 55.6117 6.82827 52.1375 4.82481C48.8062 2.90376 43.3582 4.90677 37.8559 9.69525C37.3268 10.1557 36.7962 10.6432 36.2658 11.1541C35.9124 10.8161 35.5596 10.4894 35.2077 10.177C29.4411 5.0568 23.661 2.8991 20.1903 4.90836C16.8622 6.83498 15.8766 12.5555 17.2773 19.7139C17.4125 20.4053 17.5706 21.1114 17.7494 21.8293C16.9314 22.0616 16.1416 22.3091 15.386 22.5725C8.6253 24.9296 4.30762 28.6237 4.30762 32.4554C4.30762 36.4129 8.94265 40.3823 15.9844 42.7892C16.5401 42.9791 17.1168 43.1587 17.711 43.3292C17.5181 44.1056 17.3503 44.8665 17.2095 45.6086C15.8739 52.6428 16.9169 58.2282 20.2362 60.1427C23.6647 62.1197 29.4186 60.0875 35.0215 55.1899C35.4644 54.8028 35.9088 54.3922 36.354 53.9619C36.9311 54.5176 37.5073 55.0435 38.0804 55.5368C43.5074 60.207 48.8675 62.0928 52.1837 60.173C55.6088 58.1902 56.7219 52.1902 55.2767 44.8902C55.1664 44.3326 55.0379 43.7631 54.8937 43.1834C55.2978 43.0639 55.6945 42.9406 56.0813 42.8124C63.4019 40.3869 68.1649 36.4658 68.1649 32.4554C68.1649 28.6098 63.708 24.8908 56.8111 22.5166Z" fill="#53C1DE"/>
<path d="M55.2235 40.223C54.8743 40.3386 54.5161 40.4504 54.151 40.5587C53.3428 38.0002 52.2521 35.2796 50.9173 32.4688C52.191 29.7249 53.2396 27.0391 54.0251 24.4972C54.6784 24.6863 55.3124 24.8856 55.9233 25.096C61.8326 27.1303 65.4371 30.138 65.4371 32.4555C65.4371 34.9241 61.5443 38.1286 55.2235 40.223ZM52.6008 45.42C53.2398 48.648 53.3311 51.5665 52.9078 53.848C52.5275 55.898 51.7626 57.2648 50.8169 57.8123C48.8045 58.9771 44.5009 57.463 39.8596 53.469C39.3276 53.0112 38.7916 52.5223 38.254 52.0049C40.0533 50.037 41.8516 47.7493 43.6067 45.2085C46.6937 44.9346 49.6103 44.4867 52.2551 43.8753C52.3854 44.4008 52.5011 44.9162 52.6008 45.42ZM26.0782 57.611C24.112 58.3053 22.546 58.3252 21.5994 57.7794C19.5852 56.6176 18.7478 52.1331 19.89 46.1175C20.0209 45.4286 20.1766 44.7209 20.3561 43.9975C22.9719 44.576 25.8671 44.9922 28.9615 45.2431C30.7285 47.7293 32.5787 50.0145 34.4433 52.0155C34.0359 52.4087 33.6301 52.7831 33.2266 53.136C30.749 55.3016 28.2662 56.8382 26.0782 57.611ZM16.8669 40.2079C13.7531 39.1437 11.1817 37.7605 9.41909 36.2511C7.83528 34.8948 7.03564 33.5482 7.03564 32.4555C7.03564 30.1303 10.5023 27.1644 16.2841 25.1485C16.9857 24.9039 17.72 24.6734 18.4822 24.4569C19.2812 27.0562 20.3295 29.7738 21.5944 32.5219C20.3131 35.3108 19.25 38.0717 18.4431 40.7015C17.8998 40.5453 17.3734 40.3809 16.8669 40.2079ZM19.9546 19.1901C18.7545 13.057 19.5515 8.43035 21.5572 7.26937C23.6935 6.03258 28.4175 7.79598 33.3965 12.217C33.7148 12.4996 34.0343 12.7953 34.3547 13.1013C32.4994 15.0935 30.666 17.3616 28.9148 19.8331C25.9116 20.1115 23.0367 20.5586 20.3936 21.1574C20.2274 20.489 20.0802 19.8322 19.9546 19.1901ZM47.4997 25.9917C46.8679 24.9003 46.2192 23.8347 45.5579 22.7982C47.5953 23.0557 49.5474 23.3977 51.3806 23.8161C50.8302 25.5799 50.1443 27.4241 49.3368 29.3147C48.7576 28.215 48.1449 27.1062 47.4997 25.9917ZM36.2669 15.0509C37.5252 16.4141 38.7853 17.936 40.0247 19.5874C38.7757 19.5284 37.5113 19.4977 36.2364 19.4977C34.9736 19.4977 33.7185 19.5277 32.4773 19.5857C33.718 17.9497 34.989 16.4298 36.2669 15.0509ZM24.9621 26.0106C24.3309 27.1051 23.7296 28.2078 23.1595 29.3127C22.3651 27.4287 21.6855 25.576 21.1303 23.7872C22.9523 23.3795 24.8952 23.0461 26.9196 22.7934C26.249 23.8395 25.595 24.9131 24.9621 26.0106ZM26.978 42.3122C24.8863 42.0788 22.9142 41.7626 21.0927 41.3662C21.6567 39.5454 22.3513 37.6532 23.1626 35.7286C23.7342 36.8326 24.3379 37.9359 24.9729 39.0327C25.6198 40.1502 26.2901 41.2448 26.978 42.3122ZM36.3424 50.0525C35.0494 48.6574 33.7598 47.1143 32.5003 45.4545C33.723 45.5024 34.9695 45.527 36.2364 45.527C37.538 45.527 38.8247 45.4977 40.0912 45.4413C38.8477 47.131 37.5921 48.6765 36.3424 50.0525ZM49.3628 35.6305C50.2163 37.5759 50.9358 39.4582 51.5071 41.248C49.6556 41.6703 47.6566 42.0105 45.5504 42.2633C46.2133 41.2128 46.8676 40.1289 47.5107 39.014C48.1612 37.886 48.7788 36.7563 49.3628 35.6305ZM45.1477 37.6511C44.1495 39.3819 43.1247 41.0342 42.0843 42.5938C40.1894 42.7292 38.2317 42.799 36.2364 42.799C34.2492 42.799 32.3162 42.7373 30.4549 42.6165C29.3725 41.0364 28.3255 39.3793 27.3336 37.666C26.3444 35.9574 25.4342 34.2344 24.6092 32.521C25.4339 30.8036 26.342 29.0786 27.3255 27.3731L27.3253 27.3734C28.3115 25.6633 29.3494 24.0143 30.4217 22.4441C32.3208 22.3006 34.2682 22.2256 36.2363 22.2256C38.2133 22.2256 40.1633 22.3011 42.0619 22.4459C43.1178 24.0046 44.1487 25.6483 45.1387 27.3587C46.14 29.0882 47.0597 30.8017 47.8915 32.4822C47.0622 34.1916 46.1445 35.9224 45.1477 37.6511ZM50.7751 7.18821C52.9135 8.42137 53.7451 13.3947 52.4015 19.9162C52.3158 20.3323 52.2193 20.7562 52.1145 21.1857C49.4652 20.5744 46.5884 20.1195 43.5764 19.837C41.8217 17.3383 40.0034 15.0667 38.1783 13.1C38.669 12.628 39.159 12.1779 39.647 11.7531C44.3613 7.65038 48.7676 6.03053 50.7751 7.18821Z" fill="white"/>
<path d="M36.2364 26.7532C39.3856 26.7532 41.9386 29.3061 41.9386 32.4554C41.9386 35.6046 39.3856 38.1576 36.2364 38.1576C33.0872 38.1576 30.5342 35.6046 30.5342 32.4554C30.5342 29.3061 33.0872 26.7532 36.2364 26.7532Z" fill="#53C1DE"/>
</g>
<defs>
<clipPath id="clip0_4038_11806">
<rect width="72.3478" height="65" fill="white"/>
</clipPath>
</defs>
</svg>
