<svg width="574" height="397" viewBox="0 0 574 397" fill="none" xmlns="http://www.w3.org/2000/svg">
<g clip-path="url(#clip0_14818_9769)">
<path d="M8.75943 359.787L0.210087 358.006C0.151867 357.544 0.104912 357.079 0.0682869 356.602C-0.00683975 355.49 -0.0228081 354.39 0.0232086 353.3L8.39226 350.845C8.48992 350.326 8.61013 349.82 8.7416 349.314L2.22909 343.504C2.84419 342.05 3.57199 340.651 4.4134 339.331L12.9017 341.392C13.2416 340.995 13.5929 340.617 13.9619 340.247L11.2273 331.953C12.4753 331.006 13.8041 330.158 15.2043 329.43L21.5243 335.455C22.0154 335.284 22.514 335.128 23.0183 334.993L24.7951 326.441C25.2618 326.388 25.7304 326.341 26.2046 326.304C27.3165 326.221 28.4161 326.213 29.5045 326.256L31.9659 334.628C32.4805 334.723 32.9904 334.841 33.4881 334.976L39.301 328.46C40.7556 329.077 42.152 329.811 43.4761 330.647L41.4148 339.138C41.8121 339.474 42.1905 339.831 42.5605 340.196L50.8535 337.46C51.801 338.71 52.6443 340.038 53.3767 341.437L47.3479 347.76C47.5226 348.25 47.6766 348.747 47.8137 349.252L56.3621 351.029C56.4194 351.494 56.4663 351.964 56.5001 352.434C56.5818 353.55 56.5931 354.648 56.548 355.74L48.1743 358.197C48.0804 358.711 47.963 359.22 47.8278 359.721L54.344 365.534C53.7261 366.988 52.9974 368.387 52.156 369.707L43.6696 367.648C43.3305 368.042 42.9755 368.422 42.6093 368.792L45.342 377.086C44.0959 378.028 42.7671 378.876 41.3679 379.612L35.046 373.579C34.5558 373.755 34.06 373.907 33.5519 374.045L31.7752 382.591C31.3104 382.649 30.8427 382.699 30.3666 382.732C29.2557 382.817 28.1532 382.823 27.0629 382.778L24.6035 374.41C24.0889 374.313 23.5846 374.195 23.0803 374.063L17.2693 380.576C15.8128 379.958 14.4192 379.229 13.0933 378.386L15.1574 369.897C14.7601 369.562 14.3807 369.205 14.0136 368.839L5.71778 371.577C4.77119 370.33 3.92788 368.998 3.19258 367.599L9.22335 361.276C9.05244 360.789 8.89465 360.291 8.75943 359.787ZM29.5073 371.048C38.6389 370.376 45.4932 362.431 44.8161 353.296C44.1438 344.172 36.1945 337.313 27.0695 337.988C17.9333 338.66 11.0808 346.608 11.7513 355.735C12.4284 364.871 20.3758 371.725 29.5073 371.048Z" fill="#FFDD33"/>
<path d="M58.3591 390.663L61.2627 385.756C61.0777 385.469 60.9002 385.175 60.7424 384.877L55.0451 385.004C54.692 384.034 54.4187 383.042 54.2365 382.033L59.2052 379.238C59.1902 378.9 59.1855 378.558 59.1958 378.219L54.1961 375.477C54.3708 374.47 54.631 373.475 54.9709 372.5L60.673 372.562C60.8251 372.261 60.9979 371.964 61.1801 371.675L58.2201 366.806C58.5516 366.414 58.8915 366.034 59.2549 365.663C59.6193 365.293 59.9996 364.947 60.3875 364.614L65.2913 367.52C65.5824 367.333 65.8717 367.16 66.1703 366.999L66.0407 361.299C67.0126 360.945 68.0081 360.677 69.0119 360.49L71.8123 365.459C72.1513 365.444 72.4903 365.442 72.8293 365.455L75.5676 360.452C76.5762 360.628 77.5735 360.886 78.5482 361.227L78.4863 366.928C78.7886 367.085 79.0816 367.255 79.3727 367.439L84.2437 364.478C84.6316 364.806 85.0156 365.148 85.3838 365.511C85.7547 365.878 86.0993 366.257 86.4318 366.645L83.5282 371.549C83.7141 371.837 83.8887 372.129 84.0475 372.428L89.7467 372.299C90.1017 373.272 90.3702 374.265 90.5562 375.269L85.5847 378.067C85.6035 378.406 85.6035 378.748 85.5932 379.087L90.5938 381.827C90.421 382.835 90.1618 383.832 89.8181 384.804L84.1188 384.745C83.963 385.043 83.7911 385.34 83.6108 385.629L86.5689 390.499C86.2393 390.89 85.8993 391.274 85.535 391.643C85.1706 392.012 84.7884 392.357 84.4024 392.689L79.4986 389.786C79.2084 389.971 78.9182 390.147 78.6177 390.307L78.7454 396.007C77.7744 396.36 76.7837 396.63 75.778 396.815L72.9776 391.847C72.6405 391.86 72.3015 391.863 71.9616 391.853L69.2195 396.852C68.2109 396.678 67.2173 396.421 66.2407 396.078L66.3018 390.379C66.0059 390.221 65.7092 390.049 65.4162 389.869L60.5462 392.826C60.1583 392.5 59.7733 392.16 59.4052 391.793C59.039 391.429 58.6906 391.049 58.3591 390.663ZM67.3742 383.737C70.1783 386.51 74.7037 386.485 77.4805 383.677C80.2545 380.87 80.2301 376.343 77.4195 373.568C74.6126 370.793 70.0881 370.82 67.3131 373.627C64.5372 376.436 64.5635 380.959 67.3742 383.737Z" fill="#002548"/>
<path d="M220.807 163.769L219.127 168.521L177.467 286.183L175.568 291.485C175.219 292.453 174.325 293.069 173.386 293.069C173.103 293.069 172.841 293.025 172.601 292.937C171.379 292.497 170.767 291.155 171.182 289.923L173.081 284.621L214.762 166.959L216.443 162.207C216.879 160.975 218.21 160.359 219.432 160.799C220.611 161.195 221.244 162.537 220.807 163.769Z" fill="#7C8EA1"/>
<path d="M272.454 214.835C272.04 215.143 271.559 215.275 271.101 215.275C270.381 215.275 269.661 214.923 269.181 214.285L266.584 210.611L235.159 166.234L232.278 162.164C231.536 161.108 231.755 159.656 232.824 158.864C233.871 158.116 235.312 158.38 236.076 159.436L238.956 163.506L270.403 207.882L273 211.557C273.742 212.635 273.502 214.087 272.454 214.835Z" fill="#7C8EA1"/>
<path d="M106.376 243.458L104.085 248.717L50.9024 370.536C50.5315 371.417 49.6585 371.923 48.7638 371.923C48.4583 371.923 48.1309 371.879 47.8254 371.725C46.6688 371.197 46.1232 369.81 46.647 368.622L99.8293 246.802L102.121 241.566C102.644 240.378 104.019 239.828 105.176 240.378C106.332 240.884 106.878 242.27 106.376 243.458Z" fill="#7C8EA1"/>
<path d="M159.181 294.786C158.766 295.094 158.286 295.226 157.828 295.226C157.108 295.226 156.387 294.874 155.907 294.236L152.699 289.682L122.322 246.802L119.005 242.116C118.263 241.06 118.481 239.586 119.55 238.816C120.598 238.068 122.038 238.288 122.802 239.366L126.119 244.052L156.497 286.932L159.726 291.508C160.468 292.542 160.228 294.038 159.181 294.786Z" fill="#7C8EA1"/>
<path d="M302.39 169.425L289.951 207.068L288.532 211.403C288.205 212.393 287.288 213.009 286.328 213.009C286.066 213.009 285.848 212.987 285.586 212.899C284.364 212.503 283.731 211.161 284.124 209.929L285.542 205.594L298.025 167.951C298.418 166.696 299.727 166.036 300.971 166.454C302.128 166.872 302.804 168.215 302.39 169.425Z" fill="#7C8EA1"/>
<path d="M323.125 106.942L321.728 111.166L307.369 154.618C307.02 155.652 306.038 156.334 305.012 156.334C304.75 156.334 304.467 156.29 304.227 156.202C302.917 155.784 302.219 154.354 302.655 153.056L317.037 109.582L318.411 105.38C318.848 104.06 320.223 103.355 321.554 103.796C322.841 104.214 323.54 105.644 323.125 106.942Z" fill="#7C8EA1"/>
<path d="M106.377 243.458L104.086 248.717C102.602 248.233 101.162 247.595 99.8086 246.802L102.1 241.566C102.624 240.378 103.999 239.828 105.155 240.378C106.334 240.884 106.879 242.27 106.377 243.458Z" fill="#7C8EA1"/>
<path d="M126.107 244.052C124.95 245.086 123.685 246.01 122.332 246.802L119.015 242.116C118.273 241.06 118.491 239.586 119.56 238.816C120.608 238.068 122.048 238.288 122.812 239.366L126.107 244.052Z" fill="#7C8EA1"/>
<path d="M159.73 291.51C160.472 292.544 160.254 294.018 159.185 294.788C158.77 295.096 158.29 295.228 157.831 295.228C157.111 295.228 156.391 294.876 155.911 294.238L152.703 289.684C153.86 288.65 155.125 287.726 156.478 286.934L159.73 291.51Z" fill="#7C8EA1"/>
<path d="M177.473 286.185L175.574 291.487C175.225 292.455 174.33 293.071 173.392 293.071C173.108 293.071 172.846 293.027 172.606 292.939C171.384 292.499 170.773 291.157 171.188 289.925L173.087 284.623C174.614 284.975 176.076 285.525 177.473 286.185Z" fill="#7C8EA1"/>
<path opacity="0.1" d="M220.817 163.771L219.136 168.523C217.587 168.171 216.125 167.621 214.75 166.939L216.43 162.187C216.867 160.955 218.198 160.339 219.42 160.779C220.62 161.197 221.253 162.539 220.817 163.771Z" fill="#2D2F31"/>
<path d="M238.94 163.528C237.805 164.584 236.518 165.486 235.165 166.256L232.284 162.186C231.542 161.13 231.76 159.678 232.83 158.886C233.877 158.138 235.318 158.402 236.081 159.458L238.94 163.528Z" fill="#7C8EA1"/>
<path d="M272.994 211.579C273.736 212.635 273.518 214.087 272.448 214.835C272.034 215.143 271.554 215.275 271.095 215.275C270.375 215.275 269.655 214.923 269.175 214.285L266.578 210.61C267.735 209.576 269 208.652 270.375 207.882L272.994 211.579Z" fill="#7C8EA1"/>
<path d="M289.943 207.09L288.524 211.424C288.197 212.414 287.28 213.03 286.32 213.03C286.058 213.03 285.84 213.008 285.578 212.92C284.356 212.524 283.723 211.182 284.116 209.95L285.535 205.616C287.04 205.946 288.546 206.452 289.943 207.09Z" fill="#7C8EA1"/>
<path d="M323.124 106.942L321.727 111.166C320.09 110.814 318.519 110.264 317.035 109.56L318.41 105.358C318.846 104.038 320.221 103.334 321.553 103.774C322.84 104.214 323.538 105.644 323.124 106.942Z" fill="#7C8EA1"/>
<path d="M224.321 166.39C234.987 166.39 243.634 157.672 243.634 146.919C243.634 136.165 234.987 127.448 224.321 127.448C213.655 127.448 205.008 136.165 205.008 146.919C205.008 157.672 213.655 166.39 224.321 166.39Z" fill="#0054A6"/>
<path d="M48.7607 337.667H37.4347C36.1471 337.667 35.0996 336.611 35.0996 335.313C35.0996 334.015 36.1471 332.958 37.4347 332.958H48.7607C50.0483 332.958 51.0958 334.015 51.0958 335.313C51.0958 336.633 50.0483 337.667 48.7607 337.667Z" fill="#7C8EA1"/>
<path d="M82.7393 383.342C81.4518 383.342 80.4043 382.286 80.4043 380.987V369.569C80.4043 368.271 81.4518 367.215 82.7393 367.215C84.0269 367.215 85.0744 368.271 85.0744 369.569V380.987C85.0744 382.308 84.0269 383.342 82.7393 383.342Z" fill="#7C8EA1"/>
<path d="M116.726 383.341C115.438 383.341 114.391 382.285 114.391 380.987V369.568C114.391 368.27 115.438 367.214 116.726 367.214C118.013 367.214 119.061 368.27 119.061 369.568V380.987C119.061 382.307 118.013 383.341 116.726 383.341Z" fill="#7C8EA1"/>
<path d="M150.691 383.342C149.403 383.342 148.355 382.286 148.355 380.987V369.569C148.355 368.271 149.403 367.215 150.691 367.215C151.978 367.215 153.026 368.271 153.026 369.569V380.987C153.026 382.308 151.978 383.342 150.691 383.342Z" fill="#7C8EA1"/>
<path d="M184.669 383.341C183.381 383.341 182.334 382.285 182.334 380.987V369.568C182.334 368.27 183.381 367.214 184.669 367.214C185.957 367.214 187.004 368.27 187.004 369.568V380.987C187.004 382.307 185.957 383.341 184.669 383.341Z" fill="#7C8EA1"/>
<path d="M218.649 383.341C217.362 383.341 216.314 382.285 216.314 380.987V369.568C216.314 368.27 217.362 367.214 218.649 367.214C219.937 367.214 220.985 368.27 220.985 369.568V380.987C220.985 382.307 219.937 383.341 218.649 383.341Z" fill="#7C8EA1"/>
<path d="M252.628 383.341C251.34 383.341 250.293 382.285 250.293 380.987V369.568C250.293 368.27 251.34 367.214 252.628 367.214C253.916 367.214 254.963 368.27 254.963 369.568V380.987C254.963 382.307 253.916 383.341 252.628 383.341Z" fill="#7C8EA1"/>
<path d="M286.618 383.341C285.331 383.341 284.283 382.285 284.283 380.987V369.568C284.283 368.27 285.331 367.214 286.618 367.214C287.906 367.214 288.953 368.27 288.953 369.568V380.987C288.953 382.307 287.906 383.341 286.618 383.341Z" fill="#7C8EA1"/>
<path d="M320.579 383.341C319.292 383.341 318.244 382.285 318.244 380.987V369.568C318.244 368.27 319.292 367.214 320.579 367.214C321.867 367.214 322.914 368.27 322.914 369.568V380.987C322.914 382.307 321.867 383.341 320.579 383.341Z" fill="#7C8EA1"/>
<path d="M48.7607 303.411H37.4347C36.1471 303.411 35.0996 302.355 35.0996 301.057C35.0996 299.759 36.1471 298.703 37.4347 298.703H48.7607C50.0483 298.703 51.0958 299.759 51.0958 301.057C51.0958 302.355 50.0483 303.411 48.7607 303.411Z" fill="#7C8EA1"/>
<path d="M48.7607 269.155H37.4347C36.1471 269.155 35.0996 268.099 35.0996 266.801C35.0996 265.503 36.1471 264.447 37.4347 264.447H48.7607C50.0483 264.447 51.0958 265.503 51.0958 266.801C51.0958 268.121 50.0483 269.155 48.7607 269.155Z" fill="#7C8EA1"/>
<path d="M48.7607 234.899H37.4347C36.1471 234.899 35.0996 233.843 35.0996 232.545C35.0996 231.247 36.1471 230.191 37.4347 230.191H48.7607C50.0483 230.191 51.0958 231.247 51.0958 232.545C51.0958 233.865 50.0483 234.899 48.7607 234.899Z" fill="#7C8EA1"/>
<path d="M48.7607 200.643H37.4347C36.1471 200.643 35.0996 199.587 35.0996 198.289C35.0996 196.991 36.1471 195.935 37.4347 195.935H48.7607C50.0483 195.935 51.0958 196.991 51.0958 198.289C51.0958 199.587 50.0483 200.643 48.7607 200.643Z" fill="#7C8EA1"/>
<path d="M48.7607 166.389H37.4347C36.1471 166.389 35.0996 165.333 35.0996 164.035C35.0996 162.737 36.1471 161.681 37.4347 161.681H48.7607C50.0483 161.681 51.0958 162.737 51.0958 164.035C51.0958 165.355 50.0483 166.389 48.7607 166.389Z" fill="#7C8EA1"/>
<path d="M48.7607 132.132H37.4347C36.1471 132.132 35.0996 131.076 35.0996 129.777C35.0996 128.479 36.1471 127.423 37.4347 127.423H48.7607C50.0483 127.423 51.0958 128.479 51.0958 129.777C51.0958 131.098 50.0483 132.132 48.7607 132.132Z" fill="#7C8EA1"/>
<path d="M48.7607 97.8777H37.4347C36.1471 97.8777 35.0996 96.8216 35.0996 95.5235C35.0996 94.2255 36.1471 93.1694 37.4347 93.1694H48.7607C50.0483 93.1694 51.0958 94.2255 51.0958 95.5235C51.0958 96.8216 50.0483 97.8777 48.7607 97.8777Z" fill="#7C8EA1"/>
<path d="M326.259 109.296C336.925 109.296 345.572 100.579 345.572 89.8254C345.572 79.0719 336.925 70.3545 326.259 70.3545C315.592 70.3545 306.945 79.0719 306.945 89.8254C306.945 100.579 315.592 109.296 326.259 109.296Z" fill="#ED1C24"/>
<path d="M280.956 246.318C291.622 246.318 300.269 237.6 300.269 226.847C300.269 216.093 291.622 207.376 280.956 207.376C270.289 207.376 261.643 216.093 261.643 226.847C261.643 237.6 270.289 246.318 280.956 246.318Z" fill="#0054A6"/>
<path d="M167.692 326.249C178.359 326.249 187.005 317.531 187.005 306.778C187.005 296.024 178.359 287.307 167.692 287.307C157.026 287.307 148.379 296.024 148.379 306.778C148.379 317.531 157.026 326.249 167.692 326.249Z" fill="#0054A6"/>
<path d="M111.065 246.318C121.732 246.318 130.378 237.6 130.378 226.847C130.378 216.093 121.732 207.376 111.065 207.376C100.399 207.376 91.752 216.093 91.752 226.847C91.752 237.6 100.399 246.318 111.065 246.318Z" fill="#0054A6"/>
<path d="M343.238 371.923H37.4347C36.1471 371.923 35.0996 370.867 35.0996 369.568C35.0996 368.27 36.1471 367.214 37.4347 367.214H343.238C344.526 367.214 345.573 368.27 345.573 369.568C345.573 370.889 344.526 371.923 343.238 371.923Z" fill="#7C8EA1"/>
<path d="M48.7667 383.342C47.4791 383.342 46.4316 382.286 46.4316 380.988V72.7091C46.4316 71.411 47.4791 70.355 48.7667 70.355C50.0542 70.355 51.1017 71.411 51.1017 72.7091V381.01C51.1017 382.308 50.0542 383.342 48.7667 383.342Z" fill="#7C8EA1"/>
<path d="M436.485 175.013L407.7 145.994C407.242 145.532 406.587 145.29 405.976 145.312C405.322 145.334 404.711 145.642 404.296 146.126L404.121 146.324C402.747 147.93 401.459 149.448 400.019 150.878C398.578 152.33 397.094 153.628 395.501 154.992L395.305 155.168C394.803 155.586 394.519 156.202 394.497 156.862C394.476 157.523 394.716 158.139 395.174 158.601L423.958 187.62C424.395 188.06 424.984 188.302 425.617 188.302C426.228 188.302 426.839 188.06 427.275 187.62L436.506 178.314C437.401 177.411 437.401 175.915 436.485 175.013Z" fill="#D2D9DC"/>
<path opacity="0.1" d="M436.488 178.334L427.235 187.64C426.82 188.08 426.209 188.323 425.598 188.323C424.966 188.323 424.376 188.08 423.94 187.64L419.423 183.086L400 163.505L395.177 158.643C394.719 158.181 394.457 157.543 394.501 156.883C394.523 156.223 394.806 155.607 395.286 155.189L395.505 155.035C397.098 153.649 398.582 152.351 400.022 150.899C401.44 149.469 402.75 147.929 404.125 146.344L404.277 146.124C404.692 145.64 405.303 145.354 405.958 145.332C406.591 145.31 407.245 145.552 407.704 146.014L412.548 150.899L436.466 175.012C437.405 175.914 437.405 177.41 436.488 178.334Z" fill="#2D2F31"/>
<path opacity="0.1" d="M436.483 178.335L427.231 187.641C426.816 188.081 426.205 188.323 425.594 188.323C424.961 188.323 424.372 188.081 423.935 187.641L419.418 183.087L431.966 170.437L436.483 174.991C437.4 175.915 437.4 177.411 436.483 178.335Z" fill="#2D2F31"/>
<path opacity="0.1" d="M412.57 150.878C410.672 153.166 408.686 155.366 406.569 157.479C404.452 159.613 402.248 161.615 400 163.485L395.177 158.623C394.719 158.161 394.457 157.523 394.501 156.862C394.523 156.202 394.806 155.586 395.286 155.168L395.505 155.014C397.098 153.628 398.582 152.33 400.022 150.878C401.44 149.448 402.75 147.908 404.125 146.324L404.277 146.104C404.692 145.62 405.303 145.334 405.958 145.312C406.591 145.29 407.245 145.532 407.704 145.994L412.57 150.878Z" fill="#2D2F31"/>
<path d="M403.314 26.4178C368.376 -8.80593 311.506 -8.80593 276.546 26.4178C241.607 61.6635 241.607 118.976 276.546 154.222C294.026 171.845 316.983 180.645 339.919 180.645C362.877 180.645 385.834 171.845 403.293 154.222C420.227 137.149 429.546 114.466 429.546 90.3309C429.567 66.1737 420.249 43.4906 403.314 26.4178ZM390.33 141.109C376.865 154.684 358.97 162.142 339.941 162.142C320.911 162.142 303.017 154.662 289.552 141.109C261.771 113.102 261.771 67.5378 289.552 39.5304C317.332 11.5231 362.528 11.5231 390.308 39.5304C418.11 67.5378 418.11 113.102 390.33 141.109Z" fill="#7C8EA1"/>
<path d="M507.916 241.213C507.916 242.907 507.262 244.491 506.083 245.657L494.059 257.78C492.902 258.968 491.331 259.628 489.651 259.628C487.992 259.628 486.443 258.968 485.242 257.78L422.567 194.592C421.411 193.426 420.756 191.842 420.756 190.148C420.756 188.476 421.411 186.914 422.567 185.704L434.592 173.581C436.948 171.205 441.051 171.205 443.408 173.581L506.083 236.768C507.262 237.979 507.916 239.541 507.916 241.213Z" fill="#002548"/>
<path opacity="0.1" d="M507.916 241.215C507.916 242.909 507.261 244.493 506.083 245.659L494.059 257.782C492.902 258.97 491.331 259.63 489.65 259.63C487.992 259.63 486.442 258.97 485.242 257.782L450.107 222.36H491.789L506.083 236.771C507.261 237.981 507.916 239.543 507.916 241.215Z" fill="#2D2F31"/>
<path opacity="0.1" d="M184.091 366.41H49.7062C48.4186 366.41 47.3711 365.354 47.3711 364.056V228.573L184.091 366.41Z" fill="#2D2F31"/>
</g>
<defs>
<clipPath id="clip0_14818_9769">
<rect width="574" height="396.432" fill="white"/>
</clipPath>
</defs>
</svg>
