<svg width="383" height="334" viewBox="0 0 383 334" fill="none" xmlns="http://www.w3.org/2000/svg">
<path fill-rule="evenodd" clip-rule="evenodd" d="M229.408 333.395C237.338 333 245.303 332.557 253.232 332.497V157.401H238.226V133.514H214.402V333.231H229.408V333.395Z" fill="#E9F4FF"/>
<path fill-rule="evenodd" clip-rule="evenodd" d="M295.736 304.033V217.396L280.941 212.315V333.231H293.083H295.736H314.693V304.033H295.736Z" fill="#E9F4FF"/>
<path fill-rule="evenodd" clip-rule="evenodd" d="M142.176 38.6719H131.939V139.145H122.744V314.759H132.98V214.286H142.176V38.6719Z" fill="#E9F4FF"/>
<path fill-rule="evenodd" clip-rule="evenodd" d="M56.0715 117.974V197.542H39.5235V174.186L15.3535 182.489V279.518V333.395H39.5235V333.231H73.3105V274.395V197.542V117.974H56.0715Z" fill="#E9F4FF"/>
<path fill-rule="evenodd" clip-rule="evenodd" d="M207.632 107.106V0L141.95 13.176V158.859H137.059V333.231H141.95H167.767H180.28H207.632H214.403V107.106H207.632Z" fill="#0054A6"/>
<path fill-rule="evenodd" clip-rule="evenodd" d="M116.016 63.3155V56.0615H82.1385V63.3155H73.3105V333.231H124.844V63.3155H116.016Z" fill="#0054A6"/>
<path d="M280.94 169.097H229.408V333.232H280.94V169.097Z" fill="#0054A6"/>
<path fill-rule="evenodd" clip-rule="evenodd" d="M238.226 323.699V184.641H235.816V323.722C236.62 323.715 237.422 323.707 238.226 323.699Z" fill="#839299"/>
<path fill-rule="evenodd" clip-rule="evenodd" d="M247.2 323.611V184.641H244.791V323.634C245.594 323.627 246.397 323.619 247.2 323.611Z" fill="#839299"/>
<path fill-rule="evenodd" clip-rule="evenodd" d="M256.177 323.538V184.641H253.768V323.555C254.57 323.548 255.374 323.543 256.177 323.538Z" fill="#839299"/>
<path fill-rule="evenodd" clip-rule="evenodd" d="M265.152 323.517V184.641H262.742V323.517C263.546 323.516 264.348 323.516 265.152 323.517Z" fill="#839299"/>
<path fill-rule="evenodd" clip-rule="evenodd" d="M274.126 323.584V184.641H271.717V323.557C272.517 323.564 273.322 323.572 274.126 323.584Z" fill="#839299"/>
<path d="M153.248 18.5781H150.229V256.677H153.248V18.5781Z" fill="#839299"/>
<path d="M164.495 18.5781H161.475V256.677H164.495V18.5781Z" fill="#839299"/>
<path d="M175.745 18.5781H172.725V256.677H175.745V18.5781Z" fill="#839299"/>
<path d="M186.993 18.5781H183.973V256.677H186.993V18.5781Z" fill="#839299"/>
<path d="M198.243 18.5781H195.223V256.677H198.243V18.5781Z" fill="#839299"/>
<path fill-rule="evenodd" clip-rule="evenodd" d="M43.9786 215.557V220.169H28.0566V333.231H64.4526V332.425V220.169V215.557H43.9786Z" fill="#0054A6"/>
<path d="M220.28 235.066H172.725V333.231H220.28V235.066Z" fill="#839299"/>
<path d="M269 284.148H220.279V333.231H269V284.148Z" fill="#839299"/>
<path d="M119.101 70.6924H79.0547V73.1004H119.101V70.6924Z" fill="#839299"/>
<path d="M119.101 79.666H79.0547V82.075H119.101V79.666Z" fill="#839299"/>
<path d="M119.101 88.6416H79.0547V91.0506H119.101V88.6416Z" fill="#839299"/>
<path d="M119.101 97.6162H79.0547V100.025H119.101V97.6162Z" fill="#839299"/>
<path d="M119.101 106.592H79.0547V109H119.101V106.592Z" fill="#839299"/>
<path d="M119.101 115.565H79.0547V117.973H119.101V115.565Z" fill="#839299"/>
<path d="M119.101 124.54H79.0547V126.949H119.101V124.54Z" fill="#839299"/>
<path d="M119.101 133.516H79.0547V135.925H119.101V133.516Z" fill="#839299"/>
<path d="M119.101 142.489H79.0547V144.898H119.101V142.489Z" fill="#839299"/>
<path d="M119.101 142.489H79.0547V144.898H119.101V142.489Z" fill="#839299"/>
<path d="M119.101 151.464H79.0547V153.873H119.101V151.464Z" fill="#839299"/>
<path d="M119.101 160.438H79.0547V162.847H119.101V160.438Z" fill="#839299"/>
<path d="M119.101 169.413H79.0547V171.822H119.101V169.413Z" fill="#839299"/>
<path d="M119.101 178.389H79.0547V180.799H119.101V178.389Z" fill="#839299"/>
<path d="M119.101 187.362H79.0547V189.771H119.101V187.362Z" fill="#839299"/>
<path d="M119.101 196.337H79.0547V198.746H119.101V196.337Z" fill="#839299"/>
<path d="M119.101 205.312H79.0547V207.721H119.101V205.312Z" fill="#839299"/>
<path d="M119.101 214.286H79.0547V216.695H119.101V214.286Z" fill="#839299"/>
<path d="M119.101 214.286H79.0547V216.695H119.101V214.286Z" fill="#839299"/>
<path d="M119.101 223.261H79.0547V225.671H119.101V223.261Z" fill="#839299"/>
<path d="M119.101 232.236H79.0547V234.644H119.101V232.236Z" fill="#839299"/>
<path d="M119.101 241.21H79.0547V243.62H119.101V241.21Z" fill="#839299"/>
<path d="M119.101 250.186H79.0547V252.595H119.101V250.186Z" fill="#839299"/>
<path d="M119.101 259.16H79.0547V261.569H119.101V259.16Z" fill="#839299"/>
<path d="M119.101 268.135H79.0547V270.544H119.101V268.135Z" fill="#839299"/>
<path d="M119.101 277.109H79.0547V279.518H119.101V277.109Z" fill="#839299"/>
<path d="M119.101 286.083H79.0547V288.492H119.101V286.083Z" fill="#839299"/>
<path d="M119.101 286.083H79.0547V288.492H119.101V286.083Z" fill="#839299"/>
<path d="M119.101 295.059H79.0547V297.468H119.101V295.059Z" fill="#839299"/>
<path d="M119.101 304.033H79.0547V306.442H119.101V304.033Z" fill="#839299"/>
<path d="M119.101 313.008H79.0547V315.417H119.101V313.008Z" fill="#839299"/>
<path d="M119.101 321.982H79.0547V324.391H119.101V321.982Z" fill="#839299"/>
<path fill-rule="evenodd" clip-rule="evenodd" d="M179.137 333.231H116.824V187.484L179.137 203.326V333.231Z" fill="#839299"/>
<path fill-rule="evenodd" clip-rule="evenodd" d="M127.863 321.753V209.321H124.844V321.801C125.847 321.764 126.855 321.751 127.863 321.753Z" fill="#0054A6"/>
<path fill-rule="evenodd" clip-rule="evenodd" d="M139.112 322.231V209.321H136.092V322.049C137.098 322.106 138.104 322.169 139.112 322.231Z" fill="#0054A6"/>
<path fill-rule="evenodd" clip-rule="evenodd" d="M149.57 322.647H150.36V209.321H147.342V322.62C148.083 322.637 148.827 322.647 149.57 322.647Z" fill="#0054A6"/>
<path d="M161.61 209.321H158.588V322.647H161.61V209.321Z" fill="#0054A6"/>
<path d="M172.857 209.321H169.838V322.647H172.857V209.321Z" fill="#0054A6"/>
<path d="M106.643 257.593H53.6465V333.232H106.643V257.593Z" fill="#839299"/>
<path d="M73.312 275.543H0V333.231H73.312V275.543Z" fill="#839299"/>
<path d="M99.9016 284.763H7.39258V287.172H99.9016V284.763Z" fill="#E9F4FF"/>
<path d="M99.9016 293.736H7.39258V296.146H99.9016V293.736Z" fill="#E9F4FF"/>
<path d="M99.9016 302.712H7.39258V305.121H99.9016V302.712Z" fill="#E9F4FF"/>
<path d="M99.9016 311.686H7.39258V314.095H99.9016V311.686Z" fill="#E9F4FF"/>
<path d="M99.9016 320.661H7.39258V323.071H99.9016V320.661Z" fill="#E9F4FF"/>
<path d="M99.9015 266.93H61.2285V269.339H99.9015V266.93Z" fill="#E9F4FF"/>
<path d="M99.9015 275.903H61.2285V278.311H99.9015V275.903Z" fill="#E9F4FF"/>
<path d="M382.092 71.1821L348.27 3.53906L314.451 71.1821H382.092Z" fill="#002548"/>
<path d="M322.903 3.33203C330.983 3.33203 338.149 7.24702 342.611 13.281C342.707 13.413 342.799 13.546 342.893 13.678C343.088 13.954 343.281 14.236 343.462 14.521C343.556 14.664 343.65 14.806 343.739 14.951C343.837 15.107 343.93 15.265 344.022 15.425C344.114 15.578 344.203 15.733 344.29 15.889C344.376 16.043 344.462 16.198 344.546 16.357C344.639 16.53 344.726 16.707 344.816 16.881C344.886 17.024 344.96 17.166 345.029 17.311C345.177 17.619 345.318 17.93 345.452 18.245C345.497 18.352 345.538 18.463 345.583 18.57C345.677 18.802 345.769 19.031 345.857 19.265C345.907 19.402 345.955 19.538 346.004 19.676C346.077 19.89 346.151 20.106 346.222 20.322C346.267 20.459 346.308 20.595 346.35 20.735C346.423 20.969 346.49 21.207 346.551 21.445C346.586 21.563 346.618 21.682 346.648 21.802C346.74 22.156 346.822 22.513 346.897 22.875C346.907 22.921 346.914 22.969 346.922 23.016C346.986 23.335 347.043 23.658 347.097 23.981C347.115 24.104 347.13 24.227 347.15 24.35C347.185 24.605 347.219 24.862 347.246 25.118C347.261 25.252 347.275 25.386 347.287 25.518C347.313 25.783 347.332 26.048 347.349 26.313C347.356 26.433 347.365 26.553 347.37 26.672C347.388 27.056 347.4 27.441 347.4 27.828C347.4 28.249 347.388 28.669 347.368 29.085C347.36 29.229 347.345 29.369 347.335 29.512C347.317 29.784 347.3 30.057 347.273 30.327C347.256 30.487 347.231 30.646 347.211 30.807C347.182 31.054 347.155 31.303 347.117 31.548C347.091 31.72 347.056 31.888 347.026 32.057C346.986 32.289 346.949 32.523 346.902 32.752C346.865 32.931 346.82 33.106 346.78 33.281C346.731 33.499 346.686 33.719 346.631 33.934C346.583 34.122 346.526 34.305 346.472 34.492C346.415 34.693 346.364 34.894 346.303 35.094C346.242 35.288 346.173 35.478 346.108 35.669C346.047 35.856 345.986 36.044 345.92 36.228C345.847 36.434 345.762 36.634 345.681 36.837C345.616 37.003 345.553 37.172 345.485 37.336C345.395 37.552 345.294 37.763 345.197 37.975C345.132 38.123 345.067 38.272 344.997 38.417C344.889 38.645 344.772 38.866 344.655 39.089C344.59 39.216 344.528 39.344 344.461 39.469C344.333 39.703 344.198 39.934 344.063 40.164C344.001 40.271 343.941 40.383 343.875 40.49C343.729 40.733 343.573 40.97 343.419 41.208C343.358 41.298 343.305 41.391 343.244 41.479C343.077 41.729 342.901 41.971 342.725 42.214C342.671 42.287 342.621 42.363 342.567 42.435C342.378 42.69 342.18 42.939 341.981 43.186C341.936 43.242 341.893 43.3 341.846 43.357C341.632 43.617 341.41 43.873 341.185 44.125C341.152 44.163 341.119 44.203 341.086 44.241C340.846 44.505 340.602 44.762 340.353 45.014C340.329 45.039 340.305 45.064 340.282 45.088C340.018 45.354 339.747 45.612 339.47 45.866C339.46 45.875 339.45 45.886 339.441 45.894C339.155 46.157 338.863 46.412 338.564 46.66L338.562 46.663C334.664 49.907 329.744 51.961 324.355 52.276C324.35 52.277 324.347 52.277 324.343 52.277C323.947 52.3 323.549 52.313 323.151 52.317C323.131 52.317 323.112 52.319 323.092 52.319V52.318C323.029 52.319 322.967 52.323 322.903 52.323C309.376 52.323 298.406 41.354 298.406 27.827C298.406 14.3 309.376 3.33203 322.903 3.33203Z" fill="#FFDD33"/>
<path d="M322.954 35.4986L324.271 32.3506C327.143 33.5536 329.966 34.9566 332.664 36.5226L330.951 39.4736C328.382 37.9826 325.688 36.6446 322.954 35.4986Z" fill="#0054A6"/>
<path d="M346.666 51.9328L349.148 49.5928C351.289 51.8628 353.301 54.2908 355.133 56.8128L352.372 58.8178C350.628 56.4128 348.707 54.0978 346.666 51.9328Z" fill="#0054A6"/>
<path d="M361.686 76.586L364.906 75.458C365.938 78.403 366.789 81.445 367.43 84.498L364.09 85.201C363.48 82.291 362.67 79.394 361.686 76.586Z" fill="#0054A6"/>
<path d="M365.349 105.219L368.75 105.493C368.498 108.608 368.042 111.73 367.396 114.772L364.058 114.063C364.675 111.163 365.108 108.188 365.349 105.219Z" fill="#0054A6"/>
<path d="M309.062 31.3354L309.692 27.9814C312.757 28.5574 315.814 29.3404 318.777 30.3074L317.718 33.5515C314.896 32.6315 311.982 31.8854 309.062 31.3354Z" fill="#0054A6"/>
<path d="M355.472 63.4694L358.385 61.6934C360.012 64.3584 361.477 67.1543 362.742 70.0023L359.624 71.3894C358.417 68.6734 357.02 66.0094 355.472 63.4694Z" fill="#0054A6"/>
<path d="M365.576 99.5543C365.576 96.5973 365.39 93.6223 365.019 90.7103L368.402 90.2793C368.792 93.3343 368.988 96.4553 368.988 99.5533V99.6333H365.576V99.5543Z" fill="#0054A6"/>
<path d="M232.288 64.5398C233.789 61.8098 235.482 59.1488 237.32 56.6328L240.076 58.6468C238.324 61.0448 236.71 63.5818 235.28 66.1838L232.288 64.5398Z" fill="#0054A6"/>
<path d="M229.67 79.5591L226.401 78.578C227.297 75.592 228.399 72.6351 229.675 69.7891L232.789 71.1841C231.573 73.8951 230.523 76.7131 229.67 79.5591Z" fill="#0054A6"/>
<path d="M226.979 93.8128L223.579 93.5348C223.835 90.4208 224.293 87.2998 224.942 84.2578L228.279 84.9718C227.661 87.8698 227.223 90.8448 226.979 93.8128Z" fill="#0054A6"/>
<path d="M265.053 33.6864C267.873 32.3524 270.809 31.1904 273.78 30.2324L274.826 33.4794C271.998 34.3924 269.201 35.5004 266.512 36.7724L265.053 33.6864Z" fill="#0054A6"/>
<path d="M279.427 28.6594C282.456 27.9464 285.568 27.4244 288.675 27.1064L289.021 30.5014C286.061 30.8044 283.095 31.3024 280.209 31.9804L279.427 28.6594Z" fill="#0054A6"/>
<path d="M252.047 41.6052C254.529 39.7112 257.158 37.9632 259.856 36.4092L261.559 39.3652C258.988 40.8482 256.483 42.5142 254.116 44.3182L252.047 41.6052Z" fill="#0054A6"/>
<path d="M294.6 30.1566L294.525 26.7446C297.635 26.6776 300.799 26.8076 303.891 27.1326L303.534 30.5266C300.587 30.2156 297.572 30.0936 294.6 30.1566Z" fill="#0054A6"/>
<path d="M335.666 42.471L337.611 39.667C340.172 41.442 342.643 43.402 344.957 45.491L342.67 48.024C340.465 46.032 338.109 44.164 335.666 42.471Z" fill="#0054A6"/>
<path d="M245.711 147.232L243.232 149.577C241.088 147.308 239.072 144.881 237.239 142.363L239.999 140.355C241.744 142.756 243.667 145.069 245.711 147.232Z" fill="#0054A6"/>
<path d="M240.968 52.0417C243.001 49.6817 245.208 47.4277 247.529 45.3447L249.809 47.8837C247.594 49.8697 245.491 52.0187 243.551 54.2697L240.968 52.0417Z" fill="#0054A6"/>
<path d="M256.721 156.684L254.78 159.491C252.217 157.718 249.744 155.761 247.426 153.674L249.711 151.14C251.92 153.128 254.278 154.994 256.721 156.684Z" fill="#0054A6"/>
<path d="M266.254 162.204C266.066 162.897 265.972 163.603 265.986 164.36C265.997 164.869 266.022 165.366 265.997 165.859C263.859 164.884 261.759 163.802 259.731 162.627L261.438 159.674C263.005 160.581 264.618 161.421 266.254 162.204Z" fill="#0054A6"/>
<path d="M226.746 99.3945V99.5545C226.746 102.538 226.937 105.54 227.312 108.476L223.929 108.911C223.532 105.831 223.332 102.683 223.332 99.5555V99.3955H226.746V99.3945Z" fill="#0054A6"/>
<path d="M230.662 122.596L227.442 123.729C226.406 120.785 225.553 117.744 224.908 114.691L228.248 113.985C228.862 116.893 229.674 119.79 230.662 122.596Z" fill="#0054A6"/>
<path d="M236.891 135.706L233.981 137.485C232.351 134.821 230.883 132.027 229.613 129.181L232.729 127.791C233.938 130.505 235.339 133.167 236.891 135.706Z" fill="#0054A6"/>
<path d="M360.074 134.496C358.578 137.226 356.889 139.889 355.05 142.409L352.291 140.4C354.045 137.997 355.655 135.459 357.081 132.856L360.074 134.496Z" fill="#0054A6"/>
<path d="M348.822 144.781L351.408 147.006C349.377 149.37 347.172 151.626 344.855 153.71L342.571 151.174C344.781 149.186 346.884 147.035 348.822 144.781Z" fill="#0054A6"/>
<path d="M362.674 119.477L365.943 120.456C365.05 123.444 363.953 126.402 362.679 129.248L359.565 127.855C360.776 125.143 361.821 122.324 362.674 119.477Z" fill="#0054A6"/>
<path d="M340.34 157.456C337.861 159.35 335.236 161.102 332.537 162.66L330.83 159.706C333.403 158.22 335.906 156.551 338.269 154.744L340.34 157.456Z" fill="#0054A6"/>
<path d="M312.973 170.43C309.946 171.147 306.835 171.672 303.728 171.993L303.378 168.598C306.338 168.291 309.303 167.791 312.189 167.109L312.973 170.43Z" fill="#0054A6"/>
<path d="M297.799 168.951L297.879 172.362C297.308 172.376 296.736 172.382 296.162 172.382C293.608 172.382 291.035 172.249 288.512 171.985L288.866 168.591C291.813 168.899 294.831 169.021 297.799 168.951Z" fill="#0054A6"/>
<path d="M283.336 167.787L282.711 171.141C279.644 170.569 276.586 169.789 273.621 168.825L274.676 165.581C277.501 166.499 280.414 167.242 283.336 167.787Z" fill="#0054A6"/>
<path d="M327.344 165.388C324.523 166.727 321.587 167.892 318.622 168.853L317.571 165.607C320.396 164.691 323.192 163.581 325.882 162.306L327.344 165.388Z" fill="#0054A6"/>
<path d="M202.647 227.37L202.71 223.958C199.716 223.902 196.699 223.619 193.749 223.117L193.177 226.481C196.295 227.012 199.481 227.311 202.647 227.37ZM208.593 227.204C211.154 227.013 213.739 226.662 216.277 226.162C216.853 226.049 217.426 225.928 217.998 225.799L217.248 222.471C216.709 222.592 216.166 222.706 215.618 222.814C213.213 223.289 210.766 223.621 208.339 223.801L208.593 227.204ZM187.367 225.211L188.251 221.915C185.362 221.141 182.504 220.142 179.754 218.944L178.392 222.072C181.296 223.337 184.316 224.393 187.367 225.211ZM223.73 224.228C226.744 223.251 229.706 222.04 232.534 220.629L231.01 217.575C228.334 218.911 225.531 220.057 222.679 220.982L223.73 224.228ZM173.057 219.448L174.703 216.459C172.078 215.014 169.539 213.36 167.156 211.546L165.088 214.259C167.604 216.177 170.286 217.922 173.057 219.448ZM237.726 217.726C240.412 216.055 242.996 214.165 245.407 212.11L243.192 209.513C240.911 211.458 238.465 213.247 235.924 214.828L237.726 217.726ZM160.53 210.44L162.839 207.929C160.631 205.9 158.56 203.688 156.681 201.359L154.025 203.501C156.01 205.961 158.199 208.297 160.53 210.44ZM249.749 208.043C251.953 205.778 254.01 203.325 255.857 200.756L253.088 198.763C251.336 201.197 249.393 203.519 247.302 205.664L249.749 208.043ZM150.511 198.698L153.356 196.814C151.702 194.317 150.223 191.672 148.958 188.956L145.865 190.395C147.2 193.267 148.765 196.061 150.511 198.698ZM259.105 195.775C260.71 193.046 262.124 190.174 263.305 187.244L260.141 185.969C259.022 188.744 257.682 191.461 256.163 194.046L259.105 195.775ZM143.612 184.891L146.825 183.746C145.825 180.936 145.023 178.015 144.442 175.063L144.42 174.947L141.074 175.626L141.091 175.706C141.708 178.839 142.555 181.923 143.612 184.891ZM265.271 181.632C266.175 178.599 266.862 175.475 267.305 172.346L263.926 171.867C263.506 174.828 262.858 177.785 262.001 180.655L265.271 181.632ZM140.201 169.732L143.596 169.388C143.392 167.365 143.288 165.311 143.288 163.283C143.288 162.319 143.31 161.345 143.356 160.387L139.949 160.223C139.9 161.234 139.876 162.264 139.876 163.283C139.876 165.426 139.985 167.595 140.201 169.732ZM267.866 166.425C267.912 165.424 267.934 164.412 267.934 163.419C267.934 161.263 267.825 159.075 267.603 156.916L264.208 157.263C264.418 159.306 264.522 161.378 264.522 163.419C264.523 164.36 264.5 165.316 264.454 166.263L267.866 166.425ZM143.89 154.784C144.313 151.823 144.964 148.866 145.824 145.997L142.555 145.017C141.647 148.049 140.959 151.172 140.512 154.302L143.89 154.784ZM263.369 151.64L266.729 151.049L266.708 150.941C266.104 147.884 265.266 144.818 264.218 141.866L261.002 143.008C261.995 145.802 262.791 148.706 263.369 151.64ZM147.688 140.686C148.809 137.911 150.151 135.195 151.672 132.612L148.732 130.881C147.125 133.609 145.709 136.477 144.523 139.408L147.688 140.686ZM258.874 137.795L261.97 136.359C260.638 133.488 259.077 130.693 257.33 128.051L254.482 129.932C256.137 132.433 257.613 135.078 258.874 137.795ZM154.753 127.897C156.504 125.465 158.453 123.145 160.544 121.002L158.102 118.62C155.893 120.884 153.836 123.334 151.984 125.902L154.753 127.897ZM251.162 125.386L253.82 123.247C251.84 120.784 249.653 118.446 247.322 116.301L245.011 118.81C247.218 120.843 249.287 123.055 251.162 125.386ZM164.658 117.156C166.94 115.214 169.387 113.426 171.93 111.847L170.129 108.948C167.442 110.617 164.857 112.505 162.445 114.557L164.658 117.156ZM240.695 115.191L242.766 112.479C240.25 110.558 237.57 108.81 234.802 107.282L233.154 110.27C235.777 111.717 238.315 113.373 240.695 115.191ZM176.848 109.104C179.525 107.771 182.327 106.627 185.182 105.704L184.133 102.458C181.116 103.434 178.154 104.642 175.326 106.05L176.848 109.104ZM228.103 107.781L229.469 104.654C226.567 103.387 223.548 102.329 220.495 101.508L219.609 104.803C222.5 105.579 225.358 106.581 228.103 107.781ZM190.614 104.221C191.137 104.104 191.663 103.992 192.192 103.888C194.614 103.411 197.081 103.078 199.523 102.899L199.274 99.496C196.694 99.686 194.089 100.038 191.532 100.542C190.975 100.651 190.42 100.769 189.868 100.893L190.614 104.221ZM214.113 103.595L214.689 100.232C211.571 99.698 208.385 99.397 205.22 99.335L205.153 102.747C208.148 102.804 211.165 103.09 214.113 103.595Z" fill="white"/>
<path d="M308.604 98.0778L302.005 100.967C301.748 100.68 301.489 100.391 301.236 100.088C300.655 99.3758 300.118 98.6398 299.63 97.8878L304.085 92.2348C303.901 91.8418 303.74 91.4448 303.589 91.0438L296.433 90.2438C296.15 88.9738 295.973 87.6838 295.905 86.3918L302.601 83.7228C302.639 83.2938 302.696 82.8708 302.764 82.4468L296.96 78.1758C297.351 76.9428 297.838 75.7368 298.435 74.5758L305.564 75.6078C305.813 75.2598 306.072 74.9158 306.346 74.5848L303.456 67.9838C303.743 67.7258 304.036 67.4698 304.337 67.2208C305.046 66.6278 305.781 66.0958 306.535 65.6078L312.19 70.0648C312.579 69.8808 312.978 69.7168 313.378 69.5698L314.176 62.4118C315.45 62.1298 316.738 61.9538 318.031 61.8848L320.703 68.5788C321.129 68.6208 321.557 68.6758 321.98 68.7458L326.248 62.9428C327.481 63.3308 328.686 63.8198 329.846 64.4108L328.814 71.5468C329.163 71.7928 329.502 72.0518 329.839 72.3268L336.439 69.4358C336.702 69.7188 336.957 70.0128 337.204 70.3158C337.791 71.0248 338.325 71.7608 338.815 72.5158L334.361 78.1678C334.542 78.5608 334.706 78.9588 334.853 79.3598L342.014 80.1558C342.292 81.4278 342.475 82.7148 342.535 84.0098L335.844 86.6788C335.803 87.1088 335.748 87.5318 335.677 87.9548L341.481 92.2258C341.092 93.4578 340.604 94.6628 340.014 95.8258L332.877 94.7938C332.633 95.1418 332.371 95.4828 332.099 95.8188L334.987 102.416C334.704 102.677 334.41 102.932 334.108 103.184C333.399 103.771 332.663 104.302 331.909 104.793L326.257 100.339C325.864 100.52 325.469 100.683 325.065 100.833L324.269 107.994C322.994 108.272 321.708 108.448 320.415 108.516L317.741 101.819C317.316 101.782 316.891 101.725 316.466 101.653L312.198 107.459C310.968 107.072 309.76 106.58 308.596 105.989L309.632 98.8548C309.282 98.6108 308.94 98.3508 308.604 98.0778ZM327.943 95.7358C333.763 90.9198 334.577 82.3008 329.756 76.4778C324.945 70.6618 316.318 69.8488 310.504 74.6628C304.68 79.4808 303.87 88.1038 308.684 93.9228C313.503 99.7398 322.125 100.555 327.943 95.7358Z" fill="white"/>
<path d="M284.614 179.426C285.417 179.507 286.135 179.493 286.83 179.48C288.148 179.452 289.395 179.426 290.601 180.179C291.773 180.908 292.168 182.647 292.218 183.557C292.242 184.031 292.212 184.457 292.189 184.83C292.136 185.568 292.123 185.97 292.369 186.341C292.7 186.845 293.541 187.299 294.507 187.196C294.653 187.18 294.8 187.151 294.939 187.113C295.96 186.82 297.444 185.217 298.42 184.157C298.57 183.995 298.712 183.841 298.843 183.701C299.127 183.399 299.408 183.071 299.706 182.722C300.796 181.45 301.922 180.131 303.429 179.815C303.676 179.763 303.932 179.724 304.207 179.693C304.987 179.613 305.794 179.622 306.733 179.634C307.368 179.642 308.028 179.654 308.76 179.632H308.789L364.218 179.753C364.444 179.756 364.668 179.746 364.888 179.724C367.819 179.411 370.044 176.953 370.068 174L370.258 152.689C370.287 149.495 367.706 146.869 364.51 146.841L285.302 146.525C285.077 146.523 284.85 146.534 284.629 146.558C281.7 146.871 279.476 149.329 279.452 152.278L279.256 173.588C279.233 176.526 281.413 179.019 284.324 179.388L284.614 179.426Z" fill="#FFDD33"/>
<path d="M356.892 174.967H356.894C359.497 174.967 361.614 172.85 361.615 170.249L361.625 157.188C361.625 155.928 361.137 154.742 360.243 153.849C359.351 152.956 358.168 152.464 356.906 152.463L334.251 152.449C331.649 152.449 329.529 154.566 329.529 157.168L329.518 170.228C329.518 171.489 330.009 172.675 330.9 173.567C331.792 174.46 332.975 174.951 334.238 174.952L356.892 174.967ZM334.247 154.948L356.904 154.962C357.5 154.962 358.056 155.193 358.477 155.614C358.895 156.035 359.126 156.593 359.126 157.186L359.117 170.247C359.116 171.471 358.118 172.468 356.893 172.468L334.238 172.452C333.644 172.452 333.088 172.222 332.667 171.801C332.247 171.382 332.019 170.822 332.019 170.231L332.025 157.17C332.028 155.944 333.024 154.948 334.247 154.948Z" fill="white"/>
<path d="M345.294 166.183C345.572 166.183 345.849 166.089 346.076 165.905L359.399 155.137C359.935 154.703 360.019 153.917 359.586 153.38C359.151 152.844 358.365 152.761 357.829 153.194L345.279 163.337L332.754 153.554C332.211 153.13 331.426 153.226 331.001 153.77C330.577 154.313 330.674 155.099 331.217 155.524L344.523 165.918C344.751 166.094 345.021 166.183 345.294 166.183Z" fill="white"/>
<path d="M324.878 160.78C325.567 160.78 326.127 160.221 326.127 159.532C326.127 158.843 325.568 158.283 324.88 158.283L289.145 158.26C288.455 158.26 287.895 158.818 287.895 159.508C287.895 160.197 288.455 160.758 289.145 160.759L324.876 160.78H324.878Z" fill="white"/>
<path d="M324.872 168.163C325.562 168.163 326.123 167.604 326.123 166.915C326.123 166.226 325.563 165.666 324.874 165.666L306.34 165.653C305.651 165.653 305.089 166.212 305.089 166.901C305.089 167.592 305.648 168.152 306.339 168.152L324.872 168.163Z" fill="white"/>
<path d="M267.542 197.554H288.207C288.757 197.52 289.845 197.304 290.491 196.169C291.171 194.978 291.642 193.686 293.668 193.686H303.59C304.96 193.686 306.07 194.796 306.07 196.169V200.037V207.076V222.948C306.07 224.319 304.96 225.431 303.59 225.431H267.542C266.172 225.431 265.061 224.32 265.061 222.948V200.037C265.06 198.665 266.172 197.554 267.542 197.554Z" fill="#002548"/>
<path d="M309.327 207.233L316.012 197.202L309.95 193.162L317.976 189.193L326.006 185.223L325.428 194.159L324.853 203.095L318.637 198.952L311.95 208.981L309.327 207.233Z" fill="#002548"/>
<path d="M122.442 54.5851L113.338 52.6891C113.276 52.1961 113.226 51.7011 113.187 51.1931C113.107 50.0091 113.09 48.8381 113.139 47.6771L122.051 45.0631C122.155 44.5101 122.283 43.9711 122.423 43.4331L115.488 37.2461C116.143 35.6971 116.918 34.2081 117.814 32.8021L126.853 34.9971C127.215 34.5741 127.589 34.1711 127.982 33.7771L125.07 24.9451C126.399 23.9371 127.814 23.0341 129.305 22.2591L136.035 28.6741C136.558 28.4921 137.089 28.3261 137.626 28.1821L139.518 19.0761C140.015 19.0191 140.514 18.9691 141.019 18.9301C142.203 18.8411 143.374 18.8331 144.533 18.8791L147.154 27.7941C147.702 27.8951 148.245 28.0211 148.775 28.1641L154.965 21.2261C156.514 21.8831 158.001 22.6641 159.411 23.5551L157.216 32.5961C157.639 32.9541 158.042 33.3341 158.436 33.7231L167.267 30.8101C168.276 32.1411 169.174 33.5551 169.954 35.0451L163.534 41.7781C163.72 42.2991 163.884 42.8291 164.03 43.3671L173.133 45.2591C173.194 45.7541 173.244 46.2551 173.28 46.7551C173.367 47.9431 173.379 49.1131 173.331 50.2751L164.414 52.8921C164.314 53.4391 164.189 53.9811 164.045 54.5151L170.984 60.7051C170.326 62.2531 169.55 63.7431 168.654 65.1491L159.617 62.9561C159.256 63.3761 158.878 63.7801 158.488 64.1741L161.398 73.0061C160.071 74.0101 158.656 74.9121 157.166 75.6961L150.434 69.2721C149.912 69.4591 149.384 69.6211 148.843 69.7681L146.951 78.8681C146.456 78.9301 145.958 78.9831 145.451 79.0191C144.268 79.1091 143.094 79.1161 141.933 79.0681L139.314 70.1571C138.766 70.0531 138.229 69.9281 137.692 69.7871L131.504 76.7231C129.953 76.0651 128.469 75.2881 127.057 74.3911L129.255 65.3511C128.832 64.9941 128.428 64.6141 128.037 64.2241L119.203 67.1401C118.195 65.8121 117.297 64.3941 116.514 62.9041L122.936 56.1711C122.754 55.6521 122.586 55.1221 122.442 54.5851ZM144.536 66.5771C154.26 65.8611 161.559 57.4011 160.838 47.6731C160.122 37.9571 151.657 30.6531 141.94 31.3721C132.211 32.0871 124.914 40.5511 125.628 50.2701C126.349 59.9991 134.812 67.2981 144.536 66.5771Z" fill="#FFDD33"/>
<path d="M175.26 87.464L178.352 82.239C178.155 81.933 177.966 81.62 177.798 81.303L171.731 81.438C171.355 80.405 171.064 79.349 170.87 78.275L176.161 75.298C176.145 74.938 176.14 74.574 176.151 74.213L170.827 71.293C171.013 70.221 171.29 69.161 171.652 68.123L177.724 68.189C177.886 67.869 178.07 67.552 178.264 67.244L175.112 62.06C175.465 61.642 175.827 61.237 176.214 60.842C176.602 60.448 177.007 60.08 177.42 59.725L182.642 62.82C182.952 62.621 183.26 62.437 183.578 62.265L183.44 56.195C184.475 55.818 185.535 55.533 186.604 55.334L189.586 60.625C189.947 60.609 190.308 60.607 190.669 60.621L193.585 55.293C194.659 55.481 195.721 55.756 196.759 56.119L196.693 62.19C197.015 62.357 197.327 62.538 197.637 62.734L202.824 59.581C203.237 59.93 203.646 60.294 204.038 60.681C204.433 61.071 204.8 61.475 205.154 61.888L202.062 67.11C202.26 67.417 202.446 67.728 202.615 68.046L208.684 67.909C209.062 68.945 209.348 70.002 209.546 71.072L204.252 74.051C204.272 74.412 204.272 74.776 204.261 75.137L209.586 78.055C209.402 79.129 209.126 80.19 208.76 81.225L202.691 81.162C202.525 81.48 202.342 81.796 202.15 82.104L205.3 87.29C204.949 87.706 204.587 88.115 204.199 88.508C203.811 88.901 203.404 89.268 202.993 89.622L197.771 86.531C197.462 86.728 197.153 86.915 196.833 87.085L196.969 93.155C195.935 93.531 194.88 93.818 193.809 94.016L190.827 88.725C190.468 88.739 190.107 88.742 189.745 88.732L186.825 94.055C185.751 93.87 184.693 93.596 183.653 93.231L183.718 87.162C183.403 86.994 183.087 86.811 182.775 86.619L177.589 89.768C177.176 89.421 176.766 89.058 176.374 88.668C175.984 88.28 175.613 87.875 175.26 87.464ZM184.86 80.089C187.846 83.042 192.665 83.015 195.622 80.025C198.576 77.036 198.55 72.215 195.557 69.26C192.568 66.305 187.75 66.334 184.795 69.323C181.839 72.314 181.867 77.131 184.86 80.089Z" fill="#002548"/>
</svg>
