<svg width="48" height="48" viewBox="0 0 48 48" fill="none" xmlns="http://www.w3.org/2000/svg">
<g id="domain-specific-data-scraping-solutions_real-estate-and-housing 1">
<g id="Group">
<g id="Group_2">
<path id="Vector" d="M24.5 9.5001L20 7.3001V1.1001H24.5V9.5001Z" fill="#ED1C24"/>
</g>
<g id="Group_3">
<path id="Vector_2" d="M26.8992 46.2001H3.69922V11.3001L15.2992 3.6001L26.7992 11.3001V46.2001H26.8992Z" fill="#D2D9DC"/>
</g>
<path id="Vector_3" d="M10.3008 34.3003H19.3008V44.9003H10.3008V34.3003Z" fill="#839299"/>
<g id="Group_4">
<path id="Vector_4" d="M30.6 12.9002L29 15.0002L14.9 5.1002L1.7 15.0002L0 12.9002L14.9 1.7002L30.6 12.9002Z" fill="#ED1C24"/>
</g>
<path id="Vector_5" d="M24.8008 18.2002H45.9008V23.9002H24.8008V18.2002Z" fill="#839299"/>
<path id="Vector_6" d="M24.8008 23.8999H45.9008V44.2999H24.8008V23.8999Z" fill="#0054A6"/>
<path id="Vector_7" d="M48 45.6C48 46.3 47.4 46.9 46.7 46.9H1.3C0.6 46.9 0 46.3 0 45.6C0 44.9 0.6 44.3 1.3 44.3H46.6C47.4 44.2 48 44.8 48 45.6Z" fill="#002548"/>
<path id="Vector_8" d="M10.3008 22.8003H19.3008V31.6003H10.3008V22.8003Z" fill="#F9FAFB"/>
<path id="Vector_9" d="M10.3008 11.3999H19.3008V20.1999H10.3008V11.3999Z" fill="#F9FAFB"/>
<path id="Vector_10" d="M29.4004 27.8003H32.0004V30.5003H29.4004V27.8003Z" fill="#FFDD33"/>
<path id="Vector_11" d="M34.3008 27.8003H36.9008V30.5003H34.3008V27.8003Z" fill="#FFDD33"/>
<path id="Vector_12" d="M29.4004 32.6001H32.0004V35.3001H29.4004V32.6001Z" fill="#FFDD33"/>
<path id="Vector_13" d="M34.3008 32.6001H36.9008V35.3001H34.3008V32.6001Z" fill="#FFDD33"/>
<path id="Vector_14" d="M29.4004 37.5H32.0004V40.2H29.4004V37.5Z" fill="#FFDD33"/>
<path id="Vector_15" d="M34.3008 37.5H36.9008V40.2H34.3008V37.5Z" fill="#FFDD33"/>
<path id="Vector_16" d="M39.0996 27.8003H41.6996V30.5003H39.0996V27.8003Z" fill="#FFDD33"/>
<path id="Vector_17" d="M39.0996 32.6001H41.6996V35.3001H39.0996V32.6001Z" fill="#FFDD33"/>
<path id="Vector_18" d="M39.0996 37.5H41.6996V40.2H39.0996V37.5Z" fill="#FFDD33"/>
</g>
</g>
</svg>
