<svg width="48" height="48" viewBox="0 0 48 48" fill="none" xmlns="http://www.w3.org/2000/svg">
<g id="your-personal-assistant-to_recurring-web-scrapping 1" clip-path="url(#clip0_6034_12926)">
<g id="Group">
<path id="Vector" d="M37.9 20C32.4 20 28 15.6 28 10.1C28 9.49998 28.1 8.99998 28.1 8.49998H1.6C0.7 8.39998 0 9.09998 0 10.1V39.8C0 40.7 0.7 41.4 1.6 41.4H44.5C45.4 41.4 46.1 40.7 46.1 39.8V15.5C44.4 18.2 41.4 20 37.9 20Z" fill="#839299"/>
<path id="Vector_2" d="M37.9008 20C33.0008 20 28.9008 16.4 28.2008 11.8H3.30078V34.9001H42.9008V18.6C41.4008 19.5 39.7008 20 37.9008 20Z" fill="#002548"/>
<path id="Vector_3" d="M37.8996 20C32.3996 20 27.9996 15.6 27.9996 10.1C27.9996 8.29995 28.4996 6.59995 29.2996 5.19995H6.59961V34.9H39.5996V19.9C39.0996 19.9 38.4996 20 37.8996 20Z" fill="#F9FAFB"/>
<path id="Vector_4" d="M31.3008 48L29.8008 47.3C28.7008 46.7 28.0008 45.6 28.0008 44.3V41.4H18.1008V44.3C18.1008 45.5 17.4008 46.7 16.3008 47.3L14.8008 48H31.3008Z" fill="#5F737C"/>
<path id="Vector_5" d="M23.1 39.8C22.2 39.8 21.5 39.1 21.5 38.2C21.5 37.3 22.2 36.6 23.1 36.6C24 36.6 24.7 37.3 24.7 38.2C24.7 39 24 39.8 23.1 39.8Z" fill="#5F737C"/>
<path id="Vector_6" d="M9.90039 15H21.4004V26.5H9.90039V15Z" fill="#002548"/>
<path id="Vector_7" opacity="0.19" d="M9.90039 23.3V26.6H19.8004L13.2004 20L9.90039 23.3Z" fill="#F9FAFB"/>
<path id="Vector_8" d="M18.1 20L11.5 26.6H21.4V23.3L18.1 20Z" fill="#0054A6"/>
<path id="Vector_9" d="M15.6996 20C14.7996 20 14.0996 19.3 14.0996 18.4C14.0996 17.5 14.7996 16.8 15.6996 16.8C16.5996 16.8 17.2996 17.5 17.2996 18.4C17.2996 19.3 16.5996 20 15.6996 20Z" fill="#FAB400"/>
<path id="Vector_10" d="M23.0996 21.6H36.2996V23.2H23.0996V21.6Z" fill="#839299"/>
<path id="Vector_11" d="M23.0996 24.9H36.2996V26.5H23.0996V24.9Z" fill="#839299"/>
<path id="Vector_12" d="M9.90039 28.2H36.3004V29.7999H9.90039V28.2Z" fill="#839299"/>
<path id="Vector_13" d="M9.90039 31.5H36.3004V33.1H9.90039V31.5Z" fill="#839299"/>
<path id="Vector_14" d="M23.0996 18.3V20H36.2996V19.9C34.8996 19.7 33.5996 19.1 32.4996 18.4H23.0996V18.3Z" fill="#839299"/>
<path id="Vector_15" d="M23.0996 15V16.6H30.5996C30.0996 16.1 29.6996 15.5 29.3996 15H23.0996Z" fill="#839299"/>
<path id="Vector_16" d="M28.2004 8.40002H9.90039V11.7H28.2004C28.1004 11.2 28.1004 10.6 28.1004 10.1C28.1004 9.60003 28.1004 8.90002 28.2004 8.40002Z" fill="#002548"/>
<path id="Vector_17" d="M37.9008 20.1C32.3008 20.1 27.8008 15.6 27.8008 10C27.8008 4.4 32.4008 0 37.9008 0C43.4008 0 48.0008 4.5 48.0008 10.1C48.0008 15.7 43.5008 20.1 37.9008 20.1Z" fill="#0054A6"/>
<path id="Vector_18" d="M40 8C38.9 8 38 7.1 38 6C38 4.9 38.9 4 40 4C41.1 4 42 4.9 42 6C42 7.1 41.1 8 40 8Z" fill="#F9FAFB"/>
<path id="Vector_19" d="M40 16.1C38.9 16.1 38 15.2 38 14.1C38 13 38.9 12.1 40 12.1C41.1 12.1 42 13 42 14.1C42 15.2 41.1 16.1 40 16.1Z" fill="#F9FAFB"/>
<path id="Vector_20" d="M33.9004 12.1C32.8004 12.1 31.9004 11.2 31.9004 10.1C31.9004 8.99998 32.8004 8.09998 33.9004 8.09998C35.0004 8.09998 35.9004 8.99998 35.9004 10.1C35.9004 11.2 35.0004 12.1 33.9004 12.1Z" fill="#F9FAFB"/>
<path id="Vector_21" d="M39.7 14.5L33 10.1L39.7 5.69995L40.3 6.49995L34.9 10.1L40.3 13.7L39.7 14.5Z" fill="#F9FAFB"/>
</g>
</g>
<defs>
<clipPath id="clip0_6034_12926">
<rect width="48" height="48" fill="white"/>
</clipPath>
</defs>
</svg>
