<svg width="40" height="40" viewBox="0 0 40 40" fill="none" xmlns="http://www.w3.org/2000/svg">
<g clip-path="url(#clip0_11642_34957)">
<g clip-path="url(#clip1_11642_34957)">
<path d="M20 40C31.0457 40 40 31.0457 40 20C40 8.9543 31.0457 0 20 0C8.9543 0 0 8.9543 0 20C0 31.0457 8.9543 40 20 40Z" fill="#FF4500"/>
<path d="M33.3334 20C33.3334 18.3892 32.0275 17.0834 30.4167 17.0834C29.6305 17.0834 28.9184 17.396 28.3938 17.9018C26.4002 16.4632 23.6534 15.534 20.5938 15.4272L21.9225 9.17636L26.2633 10.0992C26.316 11.2028 27.22 12.0835 28.3366 12.0835C29.4873 12.0835 30.42 11.1507 30.42 10.0001C30.42 8.84948 29.4873 7.91675 28.3366 7.91675C27.5182 7.91675 26.8172 8.393 26.4765 9.07956L21.6295 8.04925C21.4945 8.01995 21.3534 8.04644 21.2376 8.1219C21.1216 8.19722 21.0405 8.31542 21.0117 8.4505L19.528 15.4254C16.4236 15.5116 13.6327 16.442 11.6134 17.8967C11.0895 17.3941 10.3798 17.0835 9.59633 17.0835C7.98555 17.0835 6.67969 18.3894 6.67969 20.0002C6.67969 21.1853 7.38773 22.2033 8.40297 22.6596C8.35797 22.9496 8.33336 23.2436 8.33336 23.5418C8.33336 28.0292 13.5567 31.6668 20 31.6668C26.4433 31.6668 31.6666 28.0292 31.6666 23.5418C31.6666 23.2456 31.6424 22.9534 31.598 22.6654C32.6198 22.2116 33.3334 21.19 33.3334 20ZM13.3366 22.0836C13.3366 20.9348 14.2716 20 15.4209 20C16.5691 20 17.5033 20.9348 17.5033 22.0836C17.5033 23.2321 16.5691 24.1665 15.4209 24.1665C14.2716 24.1665 13.3366 23.2321 13.3366 22.0836ZM24.9534 27.5885C23.5315 29.0085 20.8069 29.1189 20.0057 29.1189C19.2043 29.1189 16.4795 29.0085 15.0593 27.5882C14.8485 27.3775 14.8485 27.0356 15.0595 26.8247C15.2702 26.614 15.6121 26.6139 15.823 26.8248C16.7191 27.721 18.6363 28.0391 20.0057 28.0391C21.3751 28.0391 23.2927 27.721 24.1905 26.8245C24.4016 26.6139 24.7434 26.6142 24.954 26.825C25.1646 27.036 25.1645 27.3779 24.9534 27.5885ZM24.5866 24.1671C23.4379 24.1671 22.5033 23.2325 22.5033 22.0839C22.5033 20.9349 23.4379 20 24.5866 20C25.7354 20 26.67 20.9349 26.67 22.0839C26.6699 23.2325 25.7353 24.1671 24.5866 24.1671Z" fill="white"/>
</g>
</g>
<defs>
<clipPath id="clip0_11642_34957">
<rect width="40" height="40" fill="white"/>
</clipPath>
<clipPath id="clip1_11642_34957">
<rect width="40" height="40" fill="white"/>
</clipPath>
</defs>
</svg>
