<svg width="156" height="50" viewBox="0 0 156 50" fill="none" xmlns="http://www.w3.org/2000/svg">
<path d="M85.3806 15.4859C85.3806 16.727 84.3665 17.8347 83.0441 17.8347C82.0301 17.8347 81.1487 18.1008 80.3993 18.6769C79.562 19.2091 78.9006 19.9622 78.3719 20.8041C77.3139 22.2225 76.7856 23.9063 76.5649 24.5263V32.9466C76.5649 34.2319 75.4632 35.2957 74.1408 35.2957C72.8624 35.2957 71.8047 34.2319 71.8047 32.9466V15.4859C71.8047 14.2006 72.8624 13.1814 74.1408 13.1814C75.4632 13.1814 76.5649 14.201 76.5649 15.4859V15.7963C76.8292 15.4859 77.1819 15.1317 77.4906 14.9098C78.9453 13.9352 80.8404 13.1372 83.0441 13.1814C84.3665 13.1814 85.3806 14.201 85.3806 15.4859Z" fill="#636466"/>
<path d="M84.0879 24.2177C84.1322 18.1907 88.8044 13.1387 94.8426 13.1387C100.573 13.1387 105.113 17.4373 105.466 23.4197V23.6413C105.466 23.7301 105.466 23.9513 105.422 24.0401C105.289 25.1039 104.364 25.8131 103.129 25.8131H89.1128C89.3331 26.8326 89.8178 27.9845 90.6115 28.7379C91.5372 29.8017 93.3003 30.5987 94.8426 30.7317C96.4294 30.8644 98.3248 30.4659 99.4268 29.6241C100.352 28.6488 102.16 28.7822 102.733 29.4906C103.306 30.1117 103.746 31.4412 102.733 32.3713C100.573 34.3651 97.9721 35.2961 94.8423 35.2961C88.8044 35.2526 84.1322 30.2448 84.0879 24.2177ZM88.8924 22.0463H101.366C100.926 20.2737 98.6775 17.6592 94.8426 17.3488C91.0965 17.5258 89.2451 20.2295 88.8924 22.0463Z" fill="#636466"/>
<path d="M127.92 32.903C127.92 34.1883 126.862 35.2963 125.539 35.2963C124.349 35.2963 123.424 34.4544 123.203 33.3906C121.529 34.5425 119.413 35.2963 117.209 35.2963C111.259 35.2963 106.498 30.2442 106.498 24.2615C106.498 18.1899 111.259 13.1378 117.209 13.1378C119.369 13.1378 121.484 13.8467 123.115 14.9989V6.66773C123.115 5.38243 124.173 4.27441 125.539 4.27441C126.862 4.27441 127.92 5.38243 127.92 6.66773V24.2169V24.2615L127.92 32.903ZM117.209 17.9683C115.622 17.9683 114.168 18.6329 113.066 19.7852C111.964 20.8932 111.303 22.4882 111.303 24.2611C111.303 25.9449 111.964 27.5402 113.066 28.6482C114.168 29.8008 115.622 30.4654 117.209 30.4654C118.84 30.4654 120.251 29.8008 121.352 28.6482C122.454 27.5406 123.115 25.9449 123.115 24.2611C123.115 22.4882 122.454 20.8932 121.352 19.7852C120.251 18.6329 118.84 17.9683 117.209 17.9683Z" fill="#636466"/>
<path d="M136.307 7.59747C136.307 8.92701 135.294 10.0347 133.927 10.0347C132.605 10.0347 131.547 8.92701 131.547 7.59747V6.66675C131.547 5.33721 132.605 4.27344 133.927 4.27344C135.294 4.27344 136.307 5.33721 136.307 6.66675V7.59747ZM136.307 15.6186V32.902C136.307 34.2315 135.294 35.2953 133.927 35.2953C132.605 35.2953 131.547 34.2315 131.547 32.902V15.6186C131.547 14.2006 132.605 13.1811 133.927 13.1811C135.294 13.1811 136.307 14.2006 136.307 15.6186Z" fill="#636466"/>
<path d="M139.337 28.9562C140.131 27.8931 141.674 27.76 142.643 28.6019C143.789 29.5772 145.773 30.5957 147.492 30.5518C148.682 30.5518 149.784 30.1533 150.489 29.7099C151.106 29.1781 151.282 28.7353 151.282 28.3804C151.282 28.1589 151.238 28.0704 151.15 27.937C151.106 27.8043 150.93 27.627 150.577 27.4058C149.96 26.9624 148.637 26.4747 147.051 26.1647H147.007C145.64 25.899 144.317 25.5444 143.172 25.0121C141.982 24.4364 140.924 23.6387 140.13 22.4422C139.646 21.6445 139.381 20.6696 139.381 19.6504C139.381 17.6117 140.527 15.8833 141.982 14.7753C143.524 13.7119 145.376 13.1357 147.404 13.1357C150.445 13.1357 152.604 14.5983 154.015 15.573C155.073 16.2821 155.382 17.7447 154.72 18.8521C154.015 19.9158 152.56 20.2262 151.459 19.4728C150.048 18.5424 148.814 17.8329 147.404 17.8329C146.302 17.8329 145.332 18.1875 144.759 18.6305C144.186 19.0297 144.054 19.4285 144.054 19.6501C144.054 19.827 144.054 19.8716 144.142 20.0043C144.186 20.0928 144.318 20.2701 144.627 20.4474C145.2 20.8462 146.346 21.245 147.845 21.5111L147.889 21.5557H147.933C149.388 21.8212 150.754 22.2203 152.032 22.8407C153.222 23.3726 154.413 24.2145 155.162 25.4552C155.691 26.3413 155.999 27.3609 155.999 28.3801C155.999 30.5515 154.809 32.3687 153.222 33.5206C151.635 34.6283 149.652 35.2935 147.492 35.2935C144.054 35.2493 141.409 33.654 139.646 32.236C138.676 31.4383 138.544 29.9311 139.337 28.9562Z" fill="#636466"/>
<path d="M55.7493 38.5539C52.6529 40.1767 36.6123 46.8077 33.1973 48.5974C29.7824 50.3879 27.8852 50.3704 25.1876 49.0738C22.4899 47.7771 5.41988 40.8447 2.34497 39.367C0.808036 38.6284 0 38.0052 0 37.4164V31.5197C0 31.5197 22.2229 26.6555 25.8107 25.3616C29.3983 24.0674 30.6429 24.0208 33.696 25.1453C36.7494 26.2697 55.0051 29.5814 58.0227 30.6925C58.0227 30.6925 58.0213 35.959 58.0213 36.5056C58.0217 37.0886 57.3255 37.7282 55.7493 38.5539Z" fill="#A41E11"/>
<path d="M55.7501 32.6555C52.6537 34.2776 36.613 40.9092 33.1981 42.699C29.7831 44.4895 27.886 44.472 25.1883 43.1753C22.4903 41.8794 5.42061 34.9456 2.3457 33.4686C-0.729196 31.9909 -0.793664 30.9738 2.227 29.7848C5.24733 28.5952 22.2236 21.8987 25.8118 20.6045C29.3994 19.311 30.644 19.2636 33.6971 20.3885C36.7505 21.5129 52.6953 27.8939 55.7125 29.005C58.7305 30.1171 58.8465 31.0328 55.7501 32.6555Z" fill="#D82C20"/>
<path d="M55.7493 28.9396C52.6529 30.5623 36.6123 37.1933 33.1973 38.9837C29.7824 40.7735 27.8852 40.756 25.1876 39.4594C22.4896 38.1634 5.41988 31.2304 2.34497 29.7527C0.808036 29.014 0 28.3916 0 27.8027V21.9053C0 21.9053 22.2229 17.0415 25.8107 15.7473C29.3983 14.4534 30.6429 14.4064 33.696 15.5309C36.7494 16.6553 55.0051 19.9664 58.0227 21.0778C58.0227 21.0778 58.0213 26.3442 58.0213 26.8916C58.0217 27.4742 57.3255 28.1138 55.7493 28.9396Z" fill="#A41E11"/>
<path d="M55.7501 23.0411C52.6537 24.6639 36.613 31.2948 33.1981 33.0853C29.7831 34.875 27.886 34.8575 25.1883 33.5609C22.4903 32.265 5.42061 25.3315 2.3457 23.8542C-0.729196 22.3768 -0.793664 21.3597 2.227 20.1701C5.24733 18.9811 22.2236 12.2843 25.8118 10.9904C29.3994 9.69654 30.644 9.64956 33.6971 10.774C36.7505 11.8985 52.6953 18.2791 55.7125 19.3906C58.7305 20.5024 58.8465 21.4183 55.7501 23.0411Z" fill="#D82C20"/>
<path d="M55.7493 18.9673C52.6529 20.5901 36.6123 27.2214 33.1973 29.0118C29.7824 30.8016 27.8852 30.7841 25.1876 29.4875C22.4896 28.1915 5.41988 21.2581 2.34497 19.7807C0.808036 19.0421 0 18.4193 0 17.8308V11.9334C0 11.9334 22.2229 7.06959 25.8107 5.77571C29.3983 4.48148 30.6429 4.43484 33.696 5.55932C36.7494 6.68379 55.0051 9.99481 58.0227 11.1063C58.0227 11.1063 58.0213 16.3727 58.0213 16.9197C58.0217 17.502 57.3255 18.1415 55.7493 18.9673Z" fill="#A41E11"/>
<path d="M55.7501 13.0682C52.6537 14.6909 36.613 21.3222 33.1981 23.1123C29.7831 24.9021 27.886 24.8846 25.1883 23.5883C22.4907 22.292 5.42061 15.359 2.3457 13.8816C-0.729196 12.4043 -0.793664 11.3868 2.227 10.1975C5.24733 9.00819 22.2236 2.31207 25.8118 1.01784C29.3994 -0.276388 30.644 -0.323023 33.6971 0.801797C36.7505 1.92628 52.6953 8.30689 55.7125 9.41833C58.7305 10.5294 58.8465 11.4458 55.7501 13.0682Z" fill="#D82C20"/>
<path d="M36.6163 7.38872L31.5887 7.91341L30.4631 10.6363L28.6451 7.59791L22.8398 7.07323L27.1716 5.5026L25.8721 3.0918L29.9276 4.68642L33.7512 3.42787L32.7177 5.92098L36.6163 7.38872Z" fill="white"/>
<path d="M30.1625 20.5989L20.7793 16.6861L34.2249 14.6113L30.1625 20.5989Z" fill="white"/>
<path d="M17.1531 14.5038C21.122 14.5038 24.3394 13.2499 24.3394 11.7031C24.3394 10.1563 21.122 8.90234 17.1531 8.90234C13.1842 8.90234 9.9668 10.1563 9.9668 11.7031C9.9668 13.2499 13.1842 14.5038 17.1531 14.5038Z" fill="white"/>
<path d="M42.5566 8.13281L50.5142 11.2946L42.5635 14.453L42.5566 8.13281Z" fill="#7A0C00"/>
<path d="M33.7539 11.6341L42.5573 8.13281L42.5641 14.453L41.7012 14.7925L33.7539 11.6341Z" fill="#AD2115"/>
</svg>
