<svg width="69" height="65" viewBox="0 0 69 65" fill="none" xmlns="http://www.w3.org/2000/svg">
<g clip-path="url(#clip0_4038_11796)">
<path d="M47.2531 45.2157C49.7698 44.9553 51.6791 42.7857 51.5923 40.1821C51.5055 37.5785 49.3359 35.4956 46.7324 35.4956H46.5589C43.8686 35.5824 41.7858 37.8389 41.8726 40.5292C41.9594 41.831 42.48 42.9592 43.2611 43.7403C40.3105 49.555 35.7977 53.8075 29.0287 57.3658C24.4291 59.7958 19.6561 60.6637 14.883 60.0562C10.9777 59.5354 7.94034 57.7997 6.03111 54.9358C3.25404 50.6832 2.99369 46.0836 5.33684 41.4839C6.98572 38.186 9.58922 35.756 11.2381 34.541C10.891 33.4127 10.3703 31.5035 10.1099 30.1149C-2.47365 39.2274 -1.1719 51.5511 2.64656 57.3658C5.51041 61.7051 11.3249 64.3955 17.7468 64.3955C19.4825 64.3955 21.2182 64.2219 22.9538 63.788C34.0621 61.6183 42.48 55.0226 47.2531 45.2157ZM62.527 34.4542C55.9314 26.7302 46.2117 22.4777 35.1035 22.4777H33.7149C32.9339 20.9155 31.285 19.8741 29.4626 19.8741H29.289C26.5987 19.9609 24.5159 22.2173 24.6027 24.9077C24.6895 27.5113 26.8591 29.5942 29.4626 29.5942H29.6361C31.5454 29.5074 33.1942 28.2924 33.8885 26.6434H35.4506C42.0461 26.6434 48.2945 28.5527 53.9354 32.2845C58.2746 35.1485 61.3988 38.8803 63.1345 43.3932C64.6098 47.0382 64.523 50.5964 62.9609 53.634C60.531 58.2336 56.4521 60.7505 51.0716 60.7505C47.6003 60.7505 44.3025 59.709 42.5668 58.9279C41.6122 59.7958 39.8766 61.1844 38.6616 62.0522C42.3933 63.788 46.2117 64.7426 49.8566 64.7426C58.1878 64.7426 64.3494 60.1429 66.6926 55.5433C69.2093 50.5097 69.0357 41.831 62.527 34.4542ZM18.4411 46.6911C18.5279 49.2947 20.6975 51.3775 23.301 51.3775H23.4745C26.1648 51.2907 28.2476 49.0343 28.1608 46.3439C28.074 43.7403 25.9045 41.6575 23.301 41.6575H23.1274C22.9538 41.6575 22.6935 41.6575 22.5199 41.7442C18.9618 35.8428 17.4865 29.4206 18.0072 22.4777C18.3543 17.2705 20.09 12.7576 23.1274 9.02578C25.6441 5.81469 30.504 4.25253 33.8017 4.16575C43.0007 3.99217 46.906 15.448 47.1663 20.0476C48.2945 20.308 50.2038 20.9155 51.5055 21.3494C50.4641 7.29005 41.7858 0 33.4546 0C25.6441 0 18.4411 5.64111 15.5773 13.9726C11.5852 25.0813 14.1887 35.756 19.0486 44.1743C18.6147 44.7818 18.3543 45.7364 18.4411 46.6911Z" fill="#764ABC"/>
</g>
<defs>
<clipPath id="clip0_4038_11796">
<rect width="68.1967" height="65" fill="white"/>
</clipPath>
</defs>
</svg>
