<svg width="48" height="48" viewBox="0 0 48 48" fill="none" xmlns="http://www.w3.org/2000/svg">
<path d="M46 26H9C7.9 26 7 25.1 7 24V4.5C7 3.4 7.9 2.5 9 2.5H46C47.1 2.5 48 3.4 48 4.5V24C48 25.1 47.1 26 46 26Z" fill="#54CC5A"/>
<path opacity="0.19" d="M44.9 7.5C43.9 7.5 43.1 6.7 43.1 5.7C43 5.3 42.7 5 42.3 5H12.7C12.3 5 12 5.3 12 5.7C12 6.7 11.2 7.5 10.2 7.5C9.8 7.5 9.5 7.8 9.5 8.2V20.3C9.5 20.7 9.8 21 10.2 21C11.2 21 12 21.8 12 22.8C12 23.2 12.3 23.5 12.7 23.5H42.4C42.8 23.5 43.1 23.2 43.1 22.8C43.1 21.8 43.9 21 44.9 21C45.3 21 45.6 20.7 45.6 20.3V8.2C45.6 7.8 45.3 7.5 44.9 7.5Z" fill="#F9FAFB"/>
<path d="M36.4016 39H37.7016V30C37.7016 29.5 38.1016 29 38.7016 29H42.0016C42.5016 29 43.0016 29.4 43.0016 30V39H44.3016C44.6016 39 44.9016 39.2 45.0016 39.4C45.1016 39.7 45.1016 39.9 44.9016 40.1L41.3016 45C41.1016 45.2 40.9016 45.4 40.7016 45.4C40.2016 45.6 39.7016 45.4 39.4016 45L35.8016 40.2C35.7016 40.1 35.7016 40 35.6016 39.8C35.7016 39.4 36.0016 39 36.4016 39Z" fill="#0054A6"/>
<path d="M24.1008 39H25.4008V30C25.4008 29.5 25.8008 29 26.4008 29H29.7008C30.2008 29 30.7008 29.4 30.7008 30V39H32.0008C32.3008 39 32.6008 39.2 32.7008 39.4C32.8008 39.7 32.8008 39.9 32.6008 40.1L29.0008 45C28.8008 45.2 28.6008 45.4 28.4008 45.4C27.9008 45.6 27.4008 45.4 27.1008 45L23.5008 40.2C23.4008 40.1 23.4008 40 23.3008 39.8C23.4008 39.4 23.7008 39 24.1008 39Z" fill="#0054A6"/>
<path opacity="0.19" d="M44.9 7.5C43.9 7.5 43.1 6.7 43.1 5.7C43 5.3 42.7 5 42.3 5H12.7C12.3 5 12 5.3 12 5.7C12 6.7 11.2 7.5 10.2 7.5C9.8 7.5 9.5 7.8 9.5 8.2V20.3C9.5 20.7 9.8 21 10.2 21C11.2 21 12 21.8 12 22.8C12 23.2 12.3 23.5 12.7 23.5H42.4C42.8 23.5 43.1 23.2 43.1 22.8C43.1 21.8 43.9 21 44.9 21C45.3 21 45.6 20.7 45.6 20.3V8.2C45.6 7.8 45.3 7.5 44.9 7.5Z" fill="#F9FAFB"/>
<path d="M27.5 19.7C30.5376 19.7 33 17.2376 33 14.2C33 11.1624 30.5376 8.7 27.5 8.7C24.4624 8.7 22 11.1624 22 14.2C22 17.2376 24.4624 19.7 27.5 19.7Z" fill="#54CC5A"/>
<path d="M38.6 15.8C39.4837 15.8 40.2 15.0836 40.2 14.2C40.2 13.3163 39.4837 12.6 38.6 12.6C37.7163 12.6 37 13.3163 37 14.2C37 15.0836 37.7163 15.8 38.6 15.8Z" fill="#54CC5A"/>
<path d="M16.4008 15.8C17.2844 15.8 18.0008 15.0836 18.0008 14.2C18.0008 13.3163 17.2844 12.6 16.4008 12.6C15.5171 12.6 14.8008 13.3163 14.8008 14.2C14.8008 15.0836 15.5171 15.8 16.4008 15.8Z" fill="#54CC5A"/>
<path d="M19.5 20.7V44.1C19.5 44.9 18.9 45.5 18.1 45.5H1.4C0.6 45.5 0 44.9 0 44.1V20.7C0 19.9 0.6 19.3 1.4 19.3H15.5C15.6 19.3 15.7 19.3 15.8 19.3H15.7H18.2C18.9 19.3 19.5 19.9 19.5 20.7Z" fill="#5F737C"/>
<path d="M15.7 30.7C15.7 30.2 15.3 29.8 14.8 29.8H11.4C10.9 29.8 10.5 30.2 10.5 30.7V34.1C10.5 34.6 10.9 35 11.4 35H14.8C15.3 35 15.7 34.6 15.7 34.1V30.7Z" fill="#D2D9DC"/>
<path d="M11.4 41.6H14.8C15.3 41.6 15.7 41.2 15.7 40.7V37.3C15.7 36.8 15.3 36.4 14.8 36.4H11.4C10.9 36.4 10.5 36.8 10.5 37.3V40.7C10.5 41.2 10.9 41.6 11.4 41.6Z" fill="#ED1C24"/>
<path d="M8.10234 29.8H4.80234C4.30234 29.8 3.90234 30.2 3.90234 30.7V34.1C3.90234 34.6 4.30234 35 4.80234 35H8.20234C8.70234 35 9.10234 34.6 9.10234 34.1V30.7C9.10234 30.2 8.60234 29.8 8.10234 29.8Z" fill="#D2D9DC"/>
<path d="M3.80078 40.7C3.80078 41.2 4.20078 41.6 4.70078 41.6H8.10078C8.60078 41.6 9.00078 41.2 9.00078 40.7V37.3C9.00078 36.8 8.60078 36.4 8.10078 36.4H4.80078C4.30078 36.4 3.90078 36.8 3.90078 37.3L3.80078 40.7Z" fill="#D2D9DC"/>
<path d="M3.80078 25.2V23.2C3.80078 22.8 4.10078 22.4 4.60078 22.4H14.9008C15.3008 22.4 15.7008 22.7 15.7008 23.2V25.2C15.7008 25.6 15.4008 26 14.9008 26H4.60078C4.20078 26 3.80078 25.6 3.80078 25.2Z" fill="#D2D9DC"/>
</svg>
