<svg width="48" height="48" viewBox="0 0 48 48" fill="none" xmlns="http://www.w3.org/2000/svg">
<g clip-path="url(#clip0_14476_48760)">
<path d="M40 9.5V14H0V9.5C0 6.46 2.46 4 5.5 4H34.5C37.54 4 40 6.46 40 9.5Z" fill="#2196F3"/>
<path d="M19 35C19 26.178 26.178 19 35 19C36.748 19 38.424 19.292 40 19.812V14H0V32.5C0 35.54 2.46 38 5.5 38H19.292C19.106 37.026 19 36.026 19 35Z" fill="#ECEFF1"/>
<path d="M10 10C8.896 10 8 9.104 8 8V2C8 0.896 8.896 0 10 0C11.104 0 12 0.896 12 2V8C12 9.104 11.104 10 10 10Z" fill="#607D8B"/>
<path d="M30 10C28.896 10 28 9.104 28 8V2C28 0.896 28.896 0 30 0C31.104 0 32 0.896 32 2V8C32 9.104 31.104 10 30 10Z" fill="#607D8B"/>
<path d="M44.1928 25.8088C39.1248 20.7408 30.8768 20.7408 25.8088 25.8088C20.7408 30.8768 20.7408 39.1248 25.8088 44.1928C30.8768 49.2608 39.1248 49.2608 44.1928 44.1928C49.2608 39.1248 49.2608 30.8768 44.1928 25.8088ZM37.4748 40.3048L35.0008 37.8288L32.5268 40.3028C31.7468 41.0828 30.4788 41.0828 29.6988 40.3028C28.9188 39.5228 28.9188 38.2548 29.6988 37.4748L32.1728 35.0008L29.6988 32.5268C28.9188 31.7468 28.9188 30.4788 29.6988 29.6988C30.4788 28.9188 31.7468 28.9188 32.5268 29.6988L35.0008 32.1728L37.4748 29.6988C38.2548 28.9188 39.5228 28.9188 40.3028 29.6988C41.0828 30.4788 41.0828 31.7468 40.3028 32.5268L37.8288 35.0008L40.3028 37.4748C41.0828 38.2548 41.0828 39.5228 40.3028 40.3028C39.5228 41.0848 38.2568 41.0848 37.4748 40.3048Z" fill="#F44336"/>
</g>
<defs>
<clipPath id="clip0_14476_48760">
<rect width="48" height="48" fill="white"/>
</clipPath>
</defs>
</svg>
