<svg width="48" height="48" viewBox="0 0 48 48" fill="none" xmlns="http://www.w3.org/2000/svg">
<g clip-path="url(#clip0_14476_48703)">
<path d="M44.85 20.9251V46.3011C44.85 47.2398 44.0895 48.0003 43.1508 48.0003H4.84766C3.90894 48.0003 3.14844 47.2398 3.14844 46.3011V20.9251L23.9993 19.7236L44.85 20.9251Z" fill="#EAF6FF"/>
<path d="M29.8496 20.9251C28.2957 22.4238 26.3446 23.5117 24.1697 24.0175L22.113 29.3011C21.8291 30.0306 20.7916 30.0171 20.5262 29.2808L18.9403 24.8772C18.7545 24.3612 18.3411 23.9554 17.8171 23.7938C15.9739 23.2254 14.3169 22.2309 12.9629 20.9251L23.7545 19.7236L29.8496 20.9251Z" fill="#C4E2FF"/>
<path d="M37.8661 20.9245V46.3005C37.8661 47.2389 37.1054 47.9996 36.167 47.9996H43.1515C44.0898 47.9996 44.8506 47.239 44.8506 46.3005V20.9245L39.5009 20.6162L37.8661 20.9245Z" fill="#C4E2FF"/>
<path d="M44.85 12.4805V20.9252H3.14844V12.4805C3.14844 11.5427 3.90894 10.7822 4.84766 10.7822H43.1508C44.0895 10.7822 44.85 11.5427 44.85 12.4805Z" fill="#627AD1"/>
<path d="M33.5711 12.1714C33.5711 15.6096 32.1431 18.7145 29.849 20.9252H12.9625C10.6839 18.729 9.25985 15.6522 9.24045 12.2412C9.23754 11.748 9.26463 11.2608 9.31985 10.7822H33.4925C33.5449 11.2385 33.5711 11.7016 33.5711 12.1714Z" fill="#4F66D0"/>
<path d="M43.1515 10.7812H36.167C37.1053 10.7812 37.8661 11.5419 37.8661 12.4804V20.9247H44.8506V12.4804C44.8506 11.5419 44.0899 10.7812 43.1515 10.7812Z" fill="#4F66D0"/>
<path d="M16.6702 31.5979H14.6778C14.325 31.5979 14.0391 31.312 14.0391 30.9592V28.9668C14.0391 28.6141 14.325 28.3281 14.6778 28.3281H16.6702C17.0229 28.3281 17.3089 28.6141 17.3089 28.9668V30.9592C17.3089 31.312 17.0229 31.5979 16.6702 31.5979Z" fill="#8AC9FE"/>
<path d="M17.3089 28.9675V30.9593C17.3089 31.3119 17.0231 31.5987 16.6704 31.5987H15.0352C15.3877 31.5987 15.6745 31.3119 15.6745 30.9593V28.9675C15.6745 28.6148 15.3877 28.3281 15.0352 28.3281H16.6704C17.0231 28.3281 17.3089 28.6149 17.3089 28.9675Z" fill="#60B7FF"/>
<path d="M31.4651 31.5979H29.4727C29.1199 31.5979 28.834 31.312 28.834 30.9592V28.9668C28.834 28.6141 29.1199 28.3281 29.4727 28.3281H31.4651C31.8179 28.3281 32.1038 28.6141 32.1038 28.9668V30.9592C32.1038 31.312 31.8179 31.5979 31.4651 31.5979Z" fill="#8AC9FE"/>
<path d="M32.1029 28.9675V30.9593C32.1029 31.3119 31.8171 31.5987 31.4644 31.5987H29.8301C30.1828 31.5987 30.4685 31.3119 30.4685 30.9593V28.9675C30.4685 28.6148 30.1828 28.3281 29.8301 28.3281H31.4644C31.8171 28.3281 32.1029 28.6149 32.1029 28.9675Z" fill="#60B7FF"/>
<path d="M38.8616 31.5979H36.8692C36.5164 31.5979 36.2305 31.312 36.2305 30.9592V28.9668C36.2305 28.6141 36.5164 28.3281 36.8692 28.3281H38.8616C39.2143 28.3281 39.5003 28.6141 39.5003 28.9668V30.9592C39.5003 31.312 39.2143 31.5979 38.8616 31.5979Z" fill="#8AC9FE"/>
<path d="M39.5003 28.9675V30.9593C39.5003 31.3119 39.2145 31.5987 38.8618 31.5987H37.2266C37.5792 31.5987 37.865 31.3119 37.865 30.9593V28.9675C37.865 28.6148 37.5793 28.3281 37.2266 28.3281H38.8618C39.2145 28.3281 39.5003 28.6149 39.5003 28.9675Z" fill="#60B7FF"/>
<path d="M16.6702 38.5179H14.6778C14.325 38.5179 14.0391 38.2319 14.0391 37.8791V35.8868C14.0391 35.534 14.325 35.248 14.6778 35.248H16.6702C17.0229 35.248 17.3089 35.534 17.3089 35.8868V37.8791C17.3089 38.2318 17.0229 38.5179 16.6702 38.5179Z" fill="#8AC9FE"/>
<path d="M17.3089 35.8865V37.8792C17.3089 38.2318 17.0231 38.5177 16.6704 38.5177H15.0352C15.3877 38.5177 15.6745 38.2318 15.6745 37.8792V35.8865C15.6745 35.5339 15.3877 35.248 15.0352 35.248H16.6704C17.0231 35.2481 17.3089 35.5339 17.3089 35.8865Z" fill="#60B7FF"/>
<path d="M24.0676 38.5179H22.0752C21.7225 38.5179 21.4365 38.2319 21.4365 37.8791V35.8868C21.4365 35.534 21.7225 35.248 22.0752 35.248H24.0676C24.4204 35.248 24.7063 35.534 24.7063 35.8868V37.8791C24.7063 38.2318 24.4204 38.5179 24.0676 38.5179Z" fill="#8AC9FE"/>
<path d="M24.7063 35.8865V37.8792C24.7063 38.2318 24.4206 38.5177 24.0679 38.5177H22.4326C22.7852 38.5177 23.0711 38.2318 23.0711 37.8792V35.8865C23.0711 35.5339 22.7853 35.248 22.4326 35.248H24.0679C24.4205 35.2481 24.7063 35.5339 24.7063 35.8865Z" fill="#60B7FF"/>
<path d="M31.4651 38.5179H29.4727C29.1199 38.5179 28.834 38.2319 28.834 37.8791V35.8868C28.834 35.534 29.1199 35.248 29.4727 35.248H31.4651C31.8179 35.248 32.1038 35.534 32.1038 35.8868V37.8791C32.1038 38.2318 31.8179 38.5179 31.4651 38.5179Z" fill="#8AC9FE"/>
<path d="M32.1029 35.8865V37.8792C32.1029 38.2318 31.8171 38.5177 31.4644 38.5177H29.8301C30.1828 38.5177 30.4685 38.2318 30.4685 37.8792V35.8865C30.4685 35.5339 30.1828 35.248 29.8301 35.248H31.4644C31.8171 35.2481 32.1029 35.5339 32.1029 35.8865Z" fill="#60B7FF"/>
<path d="M38.8616 38.5179H36.8692C36.5164 38.5179 36.2305 38.2319 36.2305 37.8791V35.8868C36.2305 35.534 36.5164 35.248 36.8692 35.248H38.8616C39.2143 35.248 39.5003 35.534 39.5003 35.8868V37.8791C39.5003 38.2318 39.2143 38.5179 38.8616 38.5179Z" fill="#8AC9FE"/>
<path d="M39.5003 35.8865V37.8792C39.5003 38.2318 39.2145 38.5177 38.8618 38.5177H37.2266C37.5792 38.5177 37.865 38.2318 37.865 37.8792V35.8865C37.865 35.5339 37.5793 35.248 37.2266 35.248H38.8618C39.2145 35.2481 39.5003 35.5339 39.5003 35.8865Z" fill="#60B7FF"/>
<path d="M16.6702 45.4368H14.6778C14.325 45.4368 14.0391 45.1509 14.0391 44.7981V42.8057C14.0391 42.4529 14.325 42.167 14.6778 42.167H16.6702C17.0229 42.167 17.3089 42.4529 17.3089 42.8057V44.7981C17.3089 45.1509 17.0229 45.4368 16.6702 45.4368Z" fill="#8AC9FE"/>
<path d="M17.3089 42.8064V44.7982C17.3089 45.1508 17.0231 45.4376 16.6704 45.4376H15.0352C15.3877 45.4376 15.6745 45.1508 15.6745 44.7982V42.8064C15.6745 42.4537 15.3877 42.167 15.0352 42.167H16.6704C17.0231 42.167 17.3089 42.4538 17.3089 42.8064Z" fill="#60B7FF"/>
<path d="M24.0676 45.4368H22.0752C21.7225 45.4368 21.4365 45.1509 21.4365 44.7981V42.8057C21.4365 42.4529 21.7225 42.167 22.0752 42.167H24.0676C24.4204 42.167 24.7063 42.4529 24.7063 42.8057V44.7981C24.7063 45.1509 24.4204 45.4368 24.0676 45.4368Z" fill="#8AC9FE"/>
<path d="M24.7063 42.8064V44.7982C24.7063 45.1508 24.4206 45.4376 24.0679 45.4376H22.4326C22.7852 45.4376 23.0711 45.1508 23.0711 44.7982V42.8064C23.0711 42.4537 22.7853 42.167 22.4326 42.167H24.0679C24.4205 42.167 24.7063 42.4538 24.7063 42.8064Z" fill="#60B7FF"/>
<path d="M31.4651 45.4368H29.4727C29.1199 45.4368 28.834 45.1509 28.834 44.7981V42.8057C28.834 42.4529 29.1199 42.167 29.4727 42.167H31.4651C31.8179 42.167 32.1038 42.4529 32.1038 42.8057V44.7981C32.1038 45.1509 31.8179 45.4368 31.4651 45.4368Z" fill="#8AC9FE"/>
<path d="M32.1029 42.8064V44.7982C32.1029 45.1508 31.8171 45.4376 31.4644 45.4376H29.8301C30.1828 45.4376 30.4685 45.1508 30.4685 44.7982V42.8064C30.4685 42.4537 30.1828 42.167 29.8301 42.167H31.4644C31.8171 42.167 32.1029 42.4538 32.1029 42.8064Z" fill="#60B7FF"/>
<path d="M9.08212 30.6878H6.54365C6.14362 30.6878 5.81934 30.3636 5.81934 29.9636C5.81934 29.5635 6.14352 29.2393 6.54365 29.2393H9.08221C9.48224 29.2393 9.80652 29.5634 9.80652 29.9636C9.80643 30.3636 9.48215 30.6878 9.08212 30.6878Z" fill="#C4E2FF"/>
<path d="M9.08212 37.7181H6.54365C6.14362 37.7181 5.81934 37.3939 5.81934 36.9938C5.81934 36.5937 6.14352 36.2695 6.54365 36.2695H9.08221C9.48224 36.2695 9.80652 36.5937 9.80652 36.9938C9.80643 37.3939 9.48215 37.7181 9.08212 37.7181Z" fill="#C4E2FF"/>
<path d="M9.08212 44.5267H6.54365C6.14362 44.5267 5.81934 44.2025 5.81934 43.8023C5.81934 43.4023 6.14352 43.0781 6.54365 43.0781H9.08221C9.48224 43.0781 9.80652 43.4023 9.80652 43.8023C9.80643 44.2024 9.48215 44.5267 9.08212 44.5267Z" fill="#C4E2FF"/>
<path d="M36.1671 12.1676C36.1671 5.41776 30.6709 -0.0484264 23.9099 0.000323565C17.1671 0.0489798 11.7924 5.4982 11.8323 12.241C11.8647 17.7344 15.5388 22.3617 20.5617 23.8387C20.9803 23.9618 21.3165 24.2747 21.4643 24.6853L23.1196 29.2802C23.3851 30.0172 24.4226 30.0304 24.7067 29.3004L26.5111 24.6633C26.6637 24.271 26.9884 23.9688 27.3928 23.8516C32.461 22.3826 36.1671 17.7094 36.1671 12.1676Z" fill="#FD4755"/>
<path d="M23.6568 0.00472369C23.3349 0.0136299 23.0163 0.0352862 22.7013 0.0686612C28.8125 0.715067 33.5742 5.885 33.5742 12.1676C33.5742 17.5389 30.0926 22.0943 25.2637 23.7072C24.5612 23.9418 23.995 24.4688 23.7277 25.1595L23.1559 26.6372C23.0149 26.9997 22.6881 27.1784 22.3623 27.1769L23.1201 29.2804C23.3856 30.0174 24.4231 30.0306 24.7073 29.3006L26.5117 24.6635C26.6643 24.2712 26.9891 23.969 27.3934 23.8518C32.4615 22.3827 36.1676 17.7094 36.1676 12.1677C36.1676 5.33357 30.5335 -0.184464 23.6568 0.00472369Z" fill="#FB2B3A"/>
<path d="M31.6532 12.227C31.6532 15.5621 29.2816 20.213 29.2816 20.213L18.5564 20.1035C16.0604 18.3759 14.4258 15.4923 14.4258 12.227C14.4258 7.49978 17.8576 3.57222 22.3622 2.79297L24.2485 2.82494C24.2484 2.82494 31.6532 6.17387 31.6532 12.227Z" fill="#EAF6FF"/>
<path d="M24 2.65332C23.4416 2.65332 22.8945 2.7017 22.3623 2.79338C26.8695 3.57038 30.2987 7.49832 30.2987 12.2274C30.2987 15.5625 28.5934 18.5004 26.0063 20.2134H29.2817C31.8687 18.5004 33.5741 15.5625 33.5741 12.2274C33.5741 6.93994 29.2875 2.65332 24 2.65332Z" fill="#C4E2FF"/>
<path d="M29.2809 19.423V20.2137C27.7664 21.2176 25.9506 21.8018 23.9992 21.8018C21.977 21.8018 20.1011 21.1749 18.5557 20.1042V19.423C18.5557 17.924 19.7717 16.708 21.2707 16.708H26.5659C28.0648 16.708 29.2809 17.924 29.2809 19.423Z" fill="#60B7FF"/>
<path d="M26.0062 20.2132C24.9251 20.9298 23.6901 21.4309 22.3623 21.6601C22.8946 21.7519 23.4414 21.8014 23.9999 21.8014C25.9514 21.8014 27.7672 21.2171 29.2816 20.2132V19.4225C29.2816 18.7429 29.031 18.1219 28.618 17.6455C27.9203 18.6598 27.033 19.5333 26.0062 20.2132Z" fill="#26A6FE"/>
<path d="M27.6208 10.8019V13.0047C27.6208 15.05 25.9627 16.7071 23.9183 16.7071C23.5581 16.7071 23.2105 16.656 22.8811 16.5594C22.2757 16.3836 21.7339 16.0562 21.3003 15.6226C20.6311 14.9535 20.2158 14.0273 20.2158 13.0047V10.8019L23.9994 9.94824L25.5445 10.3123L27.6208 10.8019Z" fill="#FFDFCF"/>
<path d="M27.6214 10.8021V13.0048C27.6214 15.0502 25.9634 16.7073 23.919 16.7073C23.5588 16.7073 23.2111 16.6561 22.8818 16.5595L22.8809 16.5586C24.4201 16.1095 25.5452 14.69 25.5452 13.0048V10.3125L27.6214 10.8021Z" fill="#FFCEBF"/>
<path d="M27.6205 9.03101V10.8018H20.2158V9.03101C20.2158 7.63957 21.3436 6.5127 22.7351 6.5127H25.1012C26.4927 6.51279 27.6205 7.63966 27.6205 9.03101Z" fill="#B98080"/>
<path d="M25.1017 6.5127H23.0254C24.4168 6.5127 25.5446 7.63957 25.5446 9.03101V10.8018H27.6209V9.03091C27.6209 7.63957 26.4931 6.5127 25.1017 6.5127Z" fill="#AE6C6C"/>
<path d="M28.6374 11.5062H19.1999C18.7999 11.5062 18.4756 11.1821 18.4756 10.7819C18.4756 10.3818 18.7998 10.0576 19.1999 10.0576H28.6374C29.0375 10.0576 29.3616 10.3818 29.3616 10.7819C29.3616 11.1821 29.0375 11.5062 28.6374 11.5062Z" fill="#AE6C6C"/>
</g>
<defs>
<clipPath id="clip0_14476_48703">
<rect width="48" height="48" fill="white"/>
</clipPath>
</defs>
</svg>
