<svg width="334" height="248" viewBox="0 0 334 248" fill="none" xmlns="http://www.w3.org/2000/svg">
<path d="M266.199 207.2H67.7994C62.2994 207.2 57.8994 202.8 57.8994 197.3V63.7999C57.8994 58.2999 62.2994 53.8999 67.7994 53.8999H266.199C271.699 53.8999 276.099 58.2999 276.099 63.7999V197.4C275.999 202.8 271.599 207.2 266.199 207.2Z" fill="#829198"/>
<path d="M274.5 216H59.4998C51.3998 216 44.7998 209.4 44.7998 201.3H289.1C289.1 209.4 282.6 216 274.5 216Z" fill="#5F737C"/>
<path d="M268.399 61.8999H65.8994V196.5H268.399V61.8999Z" fill="#F8F9FA"/>
<path d="M268.3 61.8999H65.7002V66.7999H268.3V61.8999Z" fill="#002548"/>
<path d="M68.4002 65.5999C69.0629 65.5999 69.6002 65.0627 69.6002 64.4C69.6002 63.7372 69.0629 63.2 68.4002 63.2C67.7375 63.2 67.2002 63.7372 67.2002 64.4C67.2002 65.0627 67.7375 65.5999 68.4002 65.5999Z" fill="#EC1C24"/>
<path d="M73.4002 65.5999C74.0629 65.5999 74.6002 65.0627 74.6002 64.4C74.6002 63.7372 74.0629 63.2 73.4002 63.2C72.7375 63.2 72.2002 63.7372 72.2002 64.4C72.2002 65.0627 72.7375 65.5999 73.4002 65.5999Z" fill="#FFDC33"/>
<path d="M78.4002 65.5999C79.0629 65.5999 79.6002 65.0627 79.6002 64.4C79.6002 63.7372 79.0629 63.2 78.4002 63.2C77.7375 63.2 77.2002 63.7372 77.2002 64.4C77.2002 65.0627 77.7375 65.5999 78.4002 65.5999Z" fill="#54CB5A"/>
<path d="M223.5 158.9H216.9V184.6H223.5V158.9Z" fill="#54CB5A"/>
<path d="M223.5 185.9H216.9V190.1H223.5V185.9Z" fill="#54CB5A"/>
<path d="M223.5 191.4H216.9V194H223.5V191.4Z" fill="#54CB5A"/>
<path d="M223.5 195.3H216.9V196.6H223.5V195.3Z" fill="#54CB5A"/>
<path d="M225.7 158.9H214.7L220.2 151.3L225.7 158.9Z" fill="#54CB5A"/>
<path d="M236.6 150.7H230V184.6H236.6V150.7Z" fill="#54CB5A"/>
<path d="M236.6 185.9H230V190.1H236.6V185.9Z" fill="#54CB5A"/>
<path d="M236.6 191.4H230V194H236.6V191.4Z" fill="#54CB5A"/>
<path d="M236.6 195.3H230V196.6H236.6V195.3Z" fill="#54CB5A"/>
<path d="M238.8 150.7H227.8L233.3 143.1L238.8 150.7Z" fill="#54CB5A"/>
<path d="M249.8 142.5H243.2V184.6H249.8V142.5Z" fill="#54CB5A"/>
<path d="M249.8 185.9H243.2V190.1H249.8V185.9Z" fill="#54CB5A"/>
<path d="M249.8 191.4H243.2V194H249.8V191.4Z" fill="#54CB5A"/>
<path d="M249.8 195.3H243.2V196.6H249.8V195.3Z" fill="#54CB5A"/>
<path d="M251.9 142.5H241L246.5 134.9L251.9 142.5Z" fill="#54CB5A"/>
<path d="M262.901 134.3H256.301V184.6H262.901V134.3Z" fill="#54CB5A"/>
<path d="M262.901 185.9H256.301V190.1H262.901V185.9Z" fill="#54CB5A"/>
<path d="M262.901 191.4H256.301V194H262.901V191.4Z" fill="#54CB5A"/>
<path d="M262.901 195.3H256.301V196.6H262.901V195.3Z" fill="#54CB5A"/>
<path d="M265.101 134.3H254.101L259.601 126.7L265.101 134.3Z" fill="#54CB5A"/>
<path d="M82.1996 137.8H74.5996V192.2H82.1996V137.8Z" fill="#0054A5"/>
<path d="M95.3998 150.9H87.7998V192.1H95.3998V150.9Z" fill="#0054A5"/>
<path d="M108.499 171.6H100.899V192.2H108.499V171.6Z" fill="#0054A5"/>
<path d="M121.7 159.8H114.1V192.2H121.7V159.8Z" fill="#0054A5"/>
<path d="M134.8 147.4H127.2V192.1H134.8V147.4Z" fill="#0054A5"/>
<path d="M147.9 140.1H140.3V192.1H147.9V140.1Z" fill="#0054A5"/>
<path d="M70.2 130.9L70.3 146.2V161.5L70.4 192.2L70.2 192C77.2 192 84.2 192 91.3 192H112.4H133.5L154.6 192.1L133.5 192.2H112.4H91.3C84.3 192.2 77.3 192.2 70.2 192.2H70V192L70.1 161.3V146L70.2 130.9Z" fill="#002548"/>
<path d="M68.5 133.9C69.1 133.7 69.6 133.7 70.2 133.7C70.8 133.7 71.3 133.7 71.9 133.9C71.3 134.1 70.8 134.1 70.2 134.1C69.6 134.1 69.1 134.1 68.5 133.9Z" fill="#002548"/>
<path d="M68.5 138.6C69.1 138.4 69.6 138.4 70.2 138.4C70.8 138.4 71.3 138.4 71.9 138.6C71.3 138.8 70.8 138.8 70.2 138.8C69.6 138.8 69.1 138.8 68.5 138.6Z" fill="#002548"/>
<path d="M68.5 143.3C69.1 143.1 69.6 143.1 70.2 143.1C70.8 143.1 71.3 143.1 71.9 143.3C71.3 143.5 70.8 143.5 70.2 143.5C69.6 143.5 69.1 143.4 68.5 143.3Z" fill="#002548"/>
<path d="M68.5 147.9C69.1 147.7 69.6 147.7 70.2 147.7C70.8 147.7 71.3 147.7 71.9 147.9C71.3 148.1 70.8 148.1 70.2 148.1C69.6 148.1 69.1 148.1 68.5 147.9Z" fill="#002548"/>
<path d="M68.5 152.6C69.1 152.4 69.6 152.4 70.2 152.4C70.8 152.4 71.3 152.4 71.9 152.6C71.3 152.8 70.8 152.8 70.2 152.8C69.6 152.8 69.1 152.7 68.5 152.6Z" fill="#002548"/>
<path d="M68.5 157.2C69.1 157 69.6 157 70.2 157C70.8 157 71.3 157 71.9 157.2C71.3 157.4 70.8 157.4 70.2 157.4C69.6 157.4 69.1 157.4 68.5 157.2Z" fill="#002548"/>
<path d="M68.5 161.9C69.1 161.7 69.6 161.7 70.2 161.7C70.8 161.7 71.3 161.7 71.9 161.9C71.3 162.1 70.8 162.1 70.2 162.1C69.6 162.1 69.1 162.1 68.5 161.9Z" fill="#002548"/>
<path d="M68.5 166.5C69.1 166.3 69.6 166.3 70.2 166.3C70.8 166.3 71.3 166.3 71.9 166.5C71.3 166.7 70.8 166.7 70.2 166.7C69.6 166.8 69.1 166.7 68.5 166.5Z" fill="#002548"/>
<path d="M68.5 171.2C69.1 171 69.6 171 70.2 171C70.8 171 71.3 171 71.9 171.2C71.3 171.4 70.8 171.4 70.2 171.4C69.6 171.4 69.1 171.4 68.5 171.2Z" fill="#002548"/>
<path d="M68.5 175.9C69.1 175.7 69.6 175.7 70.2 175.7C70.8 175.7 71.3 175.7 71.9 175.9C71.3 176.1 70.8 176.1 70.2 176.1C69.6 176.1 69.1 176 68.5 175.9Z" fill="#002548"/>
<path d="M68.5 180.5C69.1 180.3 69.6 180.3 70.2 180.3C70.8 180.3 71.3 180.3 71.9 180.5C71.3 180.7 70.8 180.7 70.2 180.7C69.6 180.7 69.1 180.7 68.5 180.5Z" fill="#002548"/>
<path d="M68.5 185.2C69.1 185 69.6 185 70.2 185C70.8 185 71.3 185 71.9 185.2C71.3 185.4 70.8 185.4 70.2 185.4C69.6 185.4 69.1 185.4 68.5 185.2Z" fill="#002548"/>
<path d="M123.5 92.9L152.5 98.9L156.5 79.5L127.5 73.5L123.5 92.9Z" fill="#002548"/>
<path d="M125 91.8999L151.6 97.4999L155.1 80.4999L128.5 74.8999L125 91.8999Z" fill="#0054A5"/>
<path d="M129.8 80.7C129.5 82.3 130.5 83.9 132.1 84.2C133.7 84.5 135.3 83.5 135.6 81.9C135.9 80.3 134.9 78.7 133.3 78.4C131.7 78.1 130.1 79.1 129.8 80.7Z" fill="#FFDC33"/>
<path d="M133.2 93.7L151.5 97.5L145 83.2L133.2 93.7Z" fill="#0054A5"/>
<path opacity="0.19" d="M133.2 93.7L151.5 97.5L145 83.2L133.2 93.7Z" fill="#F8F9FA"/>
<path d="M126 92.2L141.2 95.3L135.3 85.7L126 92.2Z" fill="#0054A5"/>
<path opacity="0.19" d="M126 92.2L141.2 95.3L135.3 85.7L126 92.2Z" fill="#F8F9FA"/>
<path opacity="0.19" d="M126 92.2L141.2 95.3L135.3 85.7L126 92.2Z" fill="#F8F9FA"/>
<path d="M119.699 117.8H88.8994V138.9H119.699V117.8Z" fill="#FDD1A3"/>
<path d="M88.8994 119.3C90.1994 120.1 91.4994 120.8 92.7994 121.6C94.0994 122.4 95.3994 123.2 96.6994 124C99.2994 125.6 101.899 127.2 104.399 128.8H104.099C106.699 127.2 109.299 125.6 111.799 124C113.099 123.2 114.399 122.4 115.699 121.6C116.999 120.8 118.299 120 119.599 119.3C118.399 120.2 117.099 121 115.799 121.9C114.499 122.7 113.299 123.6 111.999 124.4C109.499 126.1 106.899 127.7 104.299 129.3L104.099 129.4L103.899 129.3C101.299 127.7 98.7994 126 96.1994 124.4C94.8994 123.6 93.6994 122.7 92.3994 121.9C91.3994 121 90.0994 120.2 88.8994 119.3Z" fill="#F8F9FA"/>
<path d="M88.8994 135.1C89.7994 134.3 90.7994 133.5 91.7994 132.8C92.7994 132.1 93.7994 131.3 94.7994 130.6C95.7994 129.9 96.7994 129.2 97.8994 128.5C98.8994 127.8 99.9994 127.2 101.099 126.6C100.199 127.4 99.1994 128.2 98.1994 128.9C97.1994 129.6 96.1994 130.4 95.1994 131.1C94.1994 131.8 93.1994 132.5 92.0994 133.2C91.0994 133.9 89.9994 134.5 88.8994 135.1Z" fill="#F8F9FA"/>
<path d="M119.599 135.1C118.499 134.5 117.499 133.9 116.399 133.2C115.399 132.5 114.299 131.8 113.299 131.1C112.299 130.4 111.299 129.7 110.299 128.9C109.299 128.2 108.299 127.4 107.399 126.6C108.499 127.2 109.499 127.8 110.599 128.5C111.599 129.2 112.699 129.9 113.699 130.6C114.699 131.3 115.699 132 116.699 132.8C117.699 133.6 118.699 134.3 119.599 135.1Z" fill="#F8F9FA"/>
<path d="M121.699 143.7L123.599 148.4L121.699 149.2L119.699 144.4L116.499 146.9V133.6L125.799 143L121.699 143.7Z" fill="#002548"/>
<path d="M116.499 132.2C116.399 132 116.399 131.8 116.399 131.5C116.399 131.3 116.399 131.1 116.499 130.8C116.599 131 116.599 131.2 116.599 131.5C116.599 131.7 116.499 131.9 116.499 132.2Z" fill="#002548"/>
<path d="M115.3 132.6C115.1 132.5 114.9 132.4 114.7 132.2C114.5 132 114.4 131.9 114.3 131.6C114.5 131.7 114.7 131.8 114.9 132C115.1 132.2 115.2 132.4 115.3 132.6Z" fill="#002548"/>
<path d="M114.799 133.8C114.599 133.9 114.399 133.9 114.099 133.9C113.899 133.9 113.699 133.9 113.399 133.8C113.599 133.7 113.799 133.7 114.099 133.7C114.399 133.7 114.599 133.7 114.799 133.8Z" fill="#002548"/>
<path d="M115.3 134.9C115.2 135.1 115.1 135.3 114.9 135.5C114.7 135.7 114.6 135.8 114.3 135.9C114.4 135.7 114.5 135.5 114.7 135.3C114.9 135.2 115.1 135 115.3 134.9Z" fill="#002548"/>
<path d="M118.1 133.8C118.3 133.7 118.5 133.7 118.8 133.7C119 133.7 119.2 133.7 119.5 133.8C119.3 133.9 119.1 133.9 118.8 133.9C118.5 133.9 118.3 133.9 118.1 133.8Z" fill="#002548"/>
<path d="M117.6 132.6C117.7 132.4 117.8 132.2 118 132C118.2 131.8 118.3 131.7 118.6 131.6C118.5 131.8 118.4 132 118.2 132.2C118 132.4 117.8 132.5 117.6 132.6Z" fill="#002548"/>
<path d="M102.5 107.7L79.5996 101.8L87.1996 72.3999L104.2 76.7999L108.6 83.8999L102.5 107.7Z" fill="#D1D8DB"/>
<path d="M104.199 76.7998L108.599 83.8998L102.699 82.3998L104.199 76.7998Z" fill="#829198"/>
<path d="M87.8991 78.7008L100.685 81.9836L100.884 81.2088L88.098 77.9259L87.8991 78.7008Z" fill="#829198"/>
<path d="M87.4176 80.6178L100.203 83.9006L100.402 83.1258L87.6166 79.8429L87.4176 80.6178Z" fill="#829198"/>
<path d="M86.9606 82.4379L99.7461 85.7207L99.9451 84.9458L87.1595 81.663L86.9606 82.4379Z" fill="#829198"/>
<path d="M86.392 84.3959L105.086 89.1958L105.285 88.4209L86.5909 83.621L86.392 84.3959Z" fill="#829198"/>
<path d="M85.9095 86.3129L104.604 91.1128L104.802 90.3379L86.1085 85.538L85.9095 86.3129Z" fill="#829198"/>
<path d="M85.4281 88.2299L104.122 93.0298L104.321 92.2549L85.6271 87.455L85.4281 88.2299Z" fill="#829198"/>
<path d="M84.9466 90.1471L103.641 94.947L103.84 94.1721L85.1456 89.3722L84.9466 90.1471Z" fill="#829198"/>
<path d="M84.4896 91.9672L103.184 96.7671L103.383 95.9922L84.6886 91.1923L84.4896 91.9672Z" fill="#829198"/>
<path d="M84.0082 93.8839L102.702 98.6838L102.901 97.909L84.2071 93.109L84.0082 93.8839Z" fill="#829198"/>
<path d="M83.5267 95.8012L102.221 100.601L102.42 99.8262L83.7257 95.0263L83.5267 95.8012Z" fill="#829198"/>
<path d="M83.0443 97.7182L101.738 102.518L101.937 101.743L83.2433 96.9433L83.0443 97.7182Z" fill="#829198"/>
<path d="M82.5629 99.6351L101.257 104.435L101.456 103.66L82.7618 98.8603L82.5629 99.6351Z" fill="#829198"/>
<path d="M117.8 110.3L146.8 104.2L142.8 84.7998L113.8 90.8998L117.8 110.3Z" fill="#002548"/>
<path d="M118.799 108.8L145.399 103.3L141.799 86.2998L115.199 91.7998L118.799 108.8Z" fill="#0054A5"/>
<path d="M118.7 96.5999C119 98.1999 120.6 99.1999 122.2 98.8999C123.8 98.5999 124.8 96.9999 124.5 95.3999C124.2 93.7999 122.6 92.7999 121 93.0999C119.4 93.4999 118.4 94.9999 118.7 96.5999Z" fill="#FFDC33"/>
<path d="M127.1 107.1L145.4 103.3L133.6 92.7998L127.1 107.1Z" fill="#0054A5"/>
<path opacity="0.19" d="M127.1 107.1L145.4 103.3L133.6 92.7998L127.1 107.1Z" fill="#F8F9FA"/>
<path d="M119.899 108.6L134.999 105.5L125.699 98.8999L119.899 108.6Z" fill="#0054A5"/>
<path opacity="0.19" d="M119.899 108.6L134.999 105.5L125.699 98.8999L119.899 108.6Z" fill="#F8F9FA"/>
<path opacity="0.19" d="M119.899 108.6L134.999 105.5L125.699 98.8999L119.899 108.6Z" fill="#F8F9FA"/>
<path d="M253.3 86.7L244.8 81.4L243.2 84C242.7 84.8 241.9 85.2 241 85.1C240.5 85.1 240 85 239.5 85.1C238.6 85.1 237.8 84.6 237.3 83.9L235.8 81.2L226.9 85.9L228.4 88.6C228.8 89.4 228.8 90.4 228.2 91.1C227.9 91.5 227.6 91.9 227.4 92.4C227 93.2 226.1 93.7 225.2 93.7L222.1 93.6L221.8 103.6L224.9 103.7C225.8 103.7 226.6 104.3 227 105.1C227.1 105.3 227.2 105.5 227.3 105.8C227.4 106 227.5 106.2 227.7 106.4C228.2 107.2 228.2 108.1 227.7 108.9L226.1 111.5L234.6 116.8L236.2 114.2C236.7 113.4 237.5 113 238.4 113.1C238.9 113.1 239.4 113.2 239.9 113.1C240.8 113.1 241.6 113.6 242.1 114.3L243.6 117L252.5 112.3L251 109.6C250.6 108.8 250.6 107.8 251.2 107.1C251.5 106.7 251.7 106.3 252 105.8C252.4 105 253.3 104.5 254.2 104.5L257.3 104.6L257.6 94.6L254.5 94.5C253.6 94.5 252.8 93.9 252.4 93.1C252.3 92.9 252.2 92.7 252.1 92.4C252 92.2 251.9 92 251.7 91.8C251.2 91 251.2 90.1 251.7 89.3L253.3 86.7ZM246.9 95.2C249 99.2 247.5 104.2 243.5 106.3C239.5 108.4 234.5 106.9 232.4 102.9C230.3 98.9 231.8 93.9 235.8 91.8C239.8 89.7 244.8 91.2 246.9 95.2Z" fill="#829198"/>
<path d="M227.1 117.9L223.6 111.8L221.7 112.9C221.2 113.2 220.5 113.2 219.9 112.8C219.6 112.6 219.3 112.4 219 112.3C218.4 112 218.1 111.4 218.1 110.8V108.6H211.1V110.8C211.1 111.4 210.7 112 210.2 112.3C209.9 112.5 209.6 112.6 209.3 112.8C208.8 113.1 208.1 113.2 207.5 112.9L205.6 111.8L202.1 117.9L204 119C204.5 119.3 204.9 119.9 204.8 120.6C204.8 120.8 204.8 120.9 204.8 121.1C204.8 121.3 204.8 121.4 204.8 121.6C204.8 122.2 204.5 122.8 204 123.1L202.1 124.2L205.6 130.3L207.5 129.2C208 128.9 208.7 128.9 209.3 129.3C209.6 129.5 209.9 129.7 210.2 129.8C210.8 130.1 211.1 130.7 211.1 131.3V133.5H218.1V131.3C218.1 130.7 218.5 130.1 219 129.8C219.3 129.6 219.6 129.5 219.9 129.3C220.4 129 221.1 128.9 221.7 129.2L223.6 130.3L227.1 124.2L225.2 123.1C224.7 122.8 224.4 122.2 224.4 121.6C224.4 121.4 224.4 121.3 224.4 121.1C224.4 120.9 224.4 120.8 224.4 120.6C224.4 120 224.7 119.4 225.2 119L227.1 117.9ZM220.3 121C220.3 124.2 217.7 126.8 214.5 126.8C211.3 126.8 208.7 124.2 208.7 121C208.7 117.8 211.3 115.2 214.5 115.2C217.8 115.2 220.3 117.8 220.3 121Z" fill="#829198"/>
<path opacity="0.6" d="M123.599 177.2C123.599 179 122.099 180.4 120.399 180.4C118.699 180.4 117.199 178.9 117.199 177.2C117.199 175.4 118.699 174 120.399 174C122.099 174 123.599 175.4 123.599 177.2Z" fill="#FFDC33"/>
<path opacity="0.6" d="M127.599 171C127.599 171.9 126.899 172.6 125.999 172.6C125.099 172.6 124.399 171.9 124.399 171C124.399 170.1 125.099 169.4 125.999 169.4C126.799 169.4 127.599 170.1 127.599 171Z" fill="#FFDC33"/>
<path opacity="0.6" d="M196.899 175.6C196.899 176.5 196.199 177.2 195.299 177.2C194.399 177.2 193.699 176.5 193.699 175.6C193.699 174.7 194.399 174 195.299 174C196.199 174 196.899 174.8 196.899 175.6Z" fill="#FFDC33"/>
<path opacity="0.6" d="M228.5 190C228.5 190.9 227.8 191.6 226.9 191.6C226 191.6 225.3 190.9 225.3 190C225.3 189.1 226 188.4 226.9 188.4C227.8 188.5 228.5 189.2 228.5 190Z" fill="#FFDC33"/>
<path opacity="0.6" d="M226.099 194.7C226.099 195.7 225.299 196.6 224.199 196.6H106.799C105.799 196.6 104.899 195.8 104.899 194.7C104.899 193.7 105.699 192.8 106.799 192.8C106.999 192.8 107.099 192.8 107.199 192.9C107.199 190.8 108.899 189.2 110.899 189.2C111.899 189.2 112.899 189.6 113.599 190.3C113.599 190.1 113.599 189.8 113.599 189.6C113.599 185.7 116.699 182.6 120.599 182.6C121.699 182.6 122.799 182.9 123.699 183.3C123.899 180.7 125.999 178.6 128.699 178.6C130.799 178.6 132.599 179.9 133.399 181.8C134.599 179.8 136.799 178.5 139.299 178.5C139.799 178.5 140.199 178.5 140.599 178.6C140.499 178.1 140.499 177.5 140.499 177C140.499 171.8 144.699 167.5 149.999 167.5C152.399 167.5 154.499 168.4 156.199 169.8C156.499 169.2 157.099 168.8 157.899 168.8C158.199 168.8 158.399 168.9 158.599 168.9L160.399 121.8H170.699L172.499 168.9C172.699 168.8 172.999 168.8 173.199 168.8C173.899 168.8 174.599 169.2 174.899 169.8C176.599 168.4 178.699 167.5 181.099 167.5C186.299 167.5 190.599 171.7 190.599 177C190.599 177.6 190.599 178.1 190.499 178.6C190.899 178.5 191.399 178.5 191.799 178.5C194.299 178.5 196.499 179.8 197.699 181.8C198.399 179.9 200.199 178.6 202.399 178.6C205.099 178.6 207.199 180.7 207.399 183.3C208.299 182.8 209.399 182.6 210.499 182.6C214.399 182.6 217.499 185.7 217.499 189.6C217.499 189.8 217.499 190.1 217.499 190.3C218.199 189.6 219.099 189.2 220.199 189.2C222.299 189.2 223.899 190.9 223.899 192.9C223.999 192.9 224.199 192.8 224.299 192.8C225.199 192.8 226.099 193.6 226.099 194.7Z" fill="#FFDC33"/>
<path d="M196.3 179.2L193.9 179.6L193.3 182.2L192.8 179.6L190.3 179.2L192.8 178.6L193.3 176.1L193.9 178.6L196.3 179.2Z" fill="#FBFBFB"/>
<path d="M172.6 158.5L170.1 159L169.6 161.5L169 159L166.6 158.5L169 157.9L169.6 155.5L170.1 157.9L172.6 158.5Z" fill="#FBFBFB"/>
<path d="M137.1 184.1L135.7 184.3L135.4 185.8L135.1 184.3L133.7 184.1L135.1 183.7L135.4 182.4L135.7 183.7L137.1 184.1Z" fill="#FBFBFB"/>
<path d="M210.5 188.4L209.2 188.6L208.8 190L208.5 188.6L207.2 188.4L208.5 188L208.8 186.7L209.2 188L210.5 188.4Z" fill="#FBFBFB"/>
<path d="M118.3 193.4L116.9 193.7L116.6 195.1L116.3 193.7L115 193.4L116.3 193.1L116.6 191.7L116.9 193.1L118.3 193.4Z" fill="#FBFBFB"/>
<path d="M177.7 192.2L176.3 192.5L176 193.9L175.7 192.5L174.3 192.2L175.7 191.9L176 190.5L176.3 191.9L177.7 192.2Z" fill="#FBFBFB"/>
<path d="M167.7 154.6L166.3 154.9L166 156.3L165.7 154.9L164.3 154.6L165.7 154.3L166 152.9L166.3 154.3L167.7 154.6Z" fill="#FBFBFB"/>
<path d="M213.7 191.5C213.2 191.5 213.2 192.3 213.7 192.3C214.3 192.3 214.3 191.5 213.7 191.5Z" fill="#FBFBFB"/>
<path d="M162.4 149.6C161.9 149.6 161.9 150.4 162.4 150.4C162.9 150.4 162.9 149.6 162.4 149.6Z" fill="#FBFBFB"/>
<path d="M128.6 193.4C128.1 193.4 128.1 194.2 128.6 194.2C129.1 194.2 129.1 193.4 128.6 193.4Z" fill="#FBFBFB"/>
<path d="M153.7 188C153.2 188 153.2 188.8 153.7 188.8C154.2 188.8 154.2 188 153.7 188Z" fill="#FBFBFB"/>
<path d="M203.8 184.4C203.4 184.4 203.4 185 203.8 185C204.2 184.9 204.2 184.4 203.8 184.4Z" fill="#FBFBFB"/>
<path d="M169.3 180.2C168.9 180.2 168.9 180.8 169.3 180.8C169.6 180.7 169.6 180.2 169.3 180.2Z" fill="#FBFBFB"/>
<path d="M143.9 174.7C143.5 174.7 143.5 175.3 143.9 175.3C144.3 175.2 144.3 174.7 143.9 174.7Z" fill="#FBFBFB"/>
<path d="M187.2 175.8C186.2 175.8 186.2 177.3 187.2 177.3C188.2 177.3 188.2 175.8 187.2 175.8Z" fill="#FBFBFB"/>
<path d="M147.5 172.1C146.5 172.1 146.5 173.6 147.5 173.6C148.5 173.6 148.5 172.1 147.5 172.1Z" fill="#FBFBFB"/>
<path d="M147.9 84.6001C147.5 84.6001 133.7 91.0001 132.9 106.7C132.1 121.1 142.1 134.8 143.4 133.9C145 132.8 142.3 123.8 145.4 113.5C146.5 109.9 151.2 106.6 151.2 106.6L147.9 84.6001Z" fill="#0054A5"/>
<path opacity="0.19" d="M151.2 106.6C151.2 106.6 149.1 108 147.4 110C145.3 105.4 141.5 96.9001 139 91.3001C143 86.6001 147.6 84.6001 147.8 84.6001L151.2 106.6Z" fill="#2D2F31"/>
<path d="M183 84.6001C183.4 84.6001 197.2 91.0001 198 106.7C198.7 121.1 188.7 134.8 187.5 133.9C185.9 132.8 188.6 123.8 185.6 113.5C184.5 109.9 179.8 106.6 179.8 106.6L183 84.6001Z" fill="#0054A5"/>
<path opacity="0.19" d="M191.9 91.4001C189.4 97.0001 185.6 105.6 183.5 110.1C181.8 108.1 179.7 106.6 179.7 106.6L183 84.6001C183.2 84.6001 187.8 86.7001 191.9 91.4001Z" fill="#2D2F31"/>
<path d="M175.9 120.6H155.1C155.1 120.6 145.3 103.1 146.5 82.1C147.1 71.7 149.8 61.2 153.1 52.5C157.6 40.5 163.2 32 165.6 32C168 32 173.6 40.5 178.1 52.5C181.4 61.2 184.1 71.7 184.6 82.2C185.7 103.1 175.9 120.6 175.9 120.6Z" fill="#D1D8DB"/>
<path opacity="0.19" d="M178 79.5C178 86.1 172.6 91.5 166 91.5C159.4 91.5 154 86.1 154 79.5C154 72.9 159.4 67.5 166 67.5C172.6 67.5 178 72.9 178 79.5Z" fill="#2D2F31"/>
<path d="M177.5 78.3C177.5 84.9 172.1 90.3 165.5 90.3C158.9 90.3 153.5 84.9 153.5 78.3C153.5 71.7 158.9 66.3 165.5 66.3C172.2 66.3 177.5 71.6 177.5 78.3Z" fill="#EC1C24"/>
<path d="M173.9 78.3C173.9 82.9 170.2 86.6 165.6 86.6C161 86.6 157.3 82.9 157.3 78.3C157.3 73.7 161 70 165.6 70C170.1 69.9 173.9 73.7 173.9 78.3Z" fill="#F8F9FA"/>
<g opacity="0.19">
<path d="M173.9 78.3C173.9 79.4 173.7 80.4 173.3 81.3L168.6 86C167.7 86.4 166.6 86.6 165.6 86.6C164.8 86.6 164.1 86.5 163.4 86.3L173.6 76C173.8 76.7 173.9 77.5 173.9 78.3Z" fill="#2D2F31"/>
<path d="M166.8 70L157.3 79.5C157.2 79.1 157.2 78.7 157.2 78.3C157.2 73.7 160.9 70 165.5 70C165.9 69.9 166.4 70 166.8 70Z" fill="#2D2F31"/>
<path d="M172.8 74.2L161.5 85.5C161.3 85.4 161.1 85.3 160.9 85.1L172.5 73.5C172.6 73.8 172.7 74 172.8 74.2Z" fill="#2D2F31"/>
</g>
<path d="M178 52.5H153C157.5 40.5 163.1 32 165.5 32C168 32 173.5 40.5 178 52.5Z" fill="#EC1C24"/>
<path d="M157.3 49.9C157.3 50.3 157 50.5999 156.6 50.5999C156.2 50.5999 155.9 50.3 155.9 49.9C155.9 49.5 156.2 49.2 156.6 49.2C157 49.2 157.3 49.6 157.3 49.9Z" fill="#D1D8DB"/>
<path d="M161.8 49.9C161.8 50.3 161.5 50.5999 161.1 50.5999C160.7 50.5999 160.4 50.3 160.4 49.9C160.4 49.5 160.7 49.2 161.1 49.2C161.5 49.2 161.8 49.6 161.8 49.9Z" fill="#D1D8DB"/>
<path d="M166.201 50C166.201 50.4 165.901 50.7001 165.501 50.7001C165.101 50.7001 164.801 50.4 164.801 50C164.801 49.6 165.101 49.3 165.501 49.3C165.901 49.3 166.201 49.6 166.201 50Z" fill="#D1D8DB"/>
<path d="M170.701 50C170.701 50.4 170.401 50.7001 170.001 50.7001C169.601 50.7001 169.301 50.4 169.301 50C169.301 49.6 169.601 49.3 170.001 49.3C170.401 49.3 170.701 49.6 170.701 50Z" fill="#D1D8DB"/>
<path d="M175.1 50C175.1 50.4 174.8 50.7001 174.4 50.7001C174 50.7001 173.7 50.4 173.7 50C173.7 49.6 174 49.3 174.4 49.3C174.8 49.3 175.1 49.6 175.1 50Z" fill="#D1D8DB"/>
<path d="M157.3 117.4C157.3 117.8 157 118.1 156.6 118.1C156.2 118.1 155.9 117.8 155.9 117.4C155.9 117 156.2 116.7 156.6 116.7C157 116.7 157.3 117 157.3 117.4Z" fill="#829198"/>
<path d="M161.701 117.4C161.701 117.8 161.401 118.1 161.001 118.1C160.601 118.1 160.301 117.8 160.301 117.4C160.301 117 160.601 116.7 161.001 116.7C161.401 116.7 161.701 117 161.701 117.4Z" fill="#829198"/>
<path d="M166.201 117.4C166.201 117.8 165.901 118.1 165.501 118.1C165.101 118.1 164.801 117.8 164.801 117.4C164.801 117 165.101 116.7 165.501 116.7C165.901 116.7 166.201 117 166.201 117.4Z" fill="#829198"/>
<path d="M170.701 117.4C170.701 117.8 170.401 118.1 170.001 118.1C169.601 118.1 169.301 117.8 169.301 117.4C169.301 117 169.601 116.7 170.001 116.7C170.301 116.7 170.701 117 170.701 117.4Z" fill="#829198"/>
<path d="M175.1 117.4C175.1 117.8 174.8 118.1 174.4 118.1C174 118.1 173.7 117.8 173.7 117.4C173.7 117 174 116.7 174.4 116.7C174.8 116.7 175.1 117 175.1 117.4Z" fill="#829198"/>
<path d="M174 126.9H157L156.2 120.6H174.8L174 126.9Z" fill="#EC1C24"/>
<path opacity="0.19" d="M174.8 120.6L174.4 123.7L156.5 123L156.2 120.6H174.8Z" fill="#2D2F31"/>
</svg>
