<svg width="420" height="332" viewBox="0 0 420 332" fill="none" xmlns="http://www.w3.org/2000/svg">
<path d="M182.477 232.646V274.946H216.277V232.646H182.477Z" fill="#002548"/>
<path opacity="0.19" d="M182.477 232.646V274.946H216.277V232.646H182.477Z" fill="#F9FAFB"/>
<path d="M134.898 284V279L153.198 274.9H245.498L263.898 278.9V284H134.898Z" fill="#002548"/>
<path d="M306.82 242.699V101.099L91.9203 101.099L91.9203 242.699L306.82 242.699Z" fill="#002548"/>
<path d="M304.8 103.1H94V234.5H304.8V103.1Z" fill="#5F737C"/>
<path d="M303.202 105.3H95.6016V232.2H303.202V105.3Z" fill="#D2D9DC"/>
<path d="M206 110.3H156V113.6H206V110.3Z" fill="#D2D9DC"/>
<path d="M181 123.9H156V127.2H181V123.9Z" fill="#D2D9DC"/>
<path d="M212.801 123.9H187.801V127.2H212.801V123.9Z" fill="#D2D9DC"/>
<path d="M242.703 123.9H217.703V127.2H242.703V123.9Z" fill="#D2D9DC"/>
<path d="M169.5 130.9H156V134.2H169.5V130.9Z" fill="#D2D9DC"/>
<path d="M224.401 130.9H176.301V134.2H224.401V130.9Z" fill="#D2D9DC"/>
<path d="M242.701 130.9H229.301V134.2H242.701V130.9Z" fill="#D2D9DC"/>
<path d="M181 137.9H156V141.2H181V137.9Z" fill="#D2D9DC"/>
<path d="M212.801 137.9H187.801V141.2H212.801V137.9Z" fill="#D2D9DC"/>
<path d="M242.703 137.9H217.703V141.2H242.703V137.9Z" fill="#D2D9DC"/>
<path d="M169.5 145H156V148.3H169.5V145Z" fill="#D2D9DC"/>
<path d="M224.401 145H176.301V148.3H224.401V145Z" fill="#D2D9DC"/>
<path d="M242.701 145H229.301V148.3H242.701V145Z" fill="#D2D9DC"/>
<path d="M160.8 152H156V155.3H160.8V152Z" fill="#D2D9DC"/>
<path d="M200.302 152H167.602V155.3H200.302V152Z" fill="#D2D9DC"/>
<path d="M242.603 152H205.203V155.3H242.603V152Z" fill="#D2D9DC"/>
<path d="M181 159H156V162.3H181V159Z" fill="#D2D9DC"/>
<path d="M212.801 159H187.801V162.3H212.801V159Z" fill="#D2D9DC"/>
<path d="M242.703 159H217.703V162.3H242.703V159Z" fill="#D2D9DC"/>
<path d="M169.5 166.1H156V169.4H169.5V166.1Z" fill="#D2D9DC"/>
<path d="M224.401 166.1H176.301V169.4H224.401V166.1Z" fill="#D2D9DC"/>
<path d="M242.701 166.1H229.301V169.4H242.701V166.1Z" fill="#D2D9DC"/>
<path d="M181 173.1H156V176.4H181V173.1Z" fill="#D2D9DC"/>
<path d="M212.801 173.1H187.801V176.4H212.801V173.1Z" fill="#D2D9DC"/>
<path d="M242.703 173.1H217.703V176.4H242.703V173.1Z" fill="#D2D9DC"/>
<path d="M160.8 193H156V196.3H160.8V193Z" fill="#D2D9DC"/>
<path d="M200.302 193H167.602V196.3H200.302V193Z" fill="#D2D9DC"/>
<path d="M242.603 193H205.203V196.3H242.603V193Z" fill="#D2D9DC"/>
<path d="M181 200.1H156V203.4H181V200.1Z" fill="#D2D9DC"/>
<path d="M212.801 200.1H187.801V203.4H212.801V200.1Z" fill="#D2D9DC"/>
<path d="M242.703 200.1H217.703V203.4H242.703V200.1Z" fill="#D2D9DC"/>
<path d="M169.5 207.1H156V210.4H169.5V207.1Z" fill="#D2D9DC"/>
<path d="M224.401 207.1H176.301V210.4H224.401V207.1Z" fill="#D2D9DC"/>
<path d="M242.701 207.1H229.301V210.4H242.701V207.1Z" fill="#D2D9DC"/>
<path d="M181 214.1H156V217.4H181V214.1Z" fill="#D2D9DC"/>
<path d="M169.5 180.1H156V183.4H169.5V180.1Z" fill="#D2D9DC"/>
<path d="M200.401 180.1H176.301V183.4H200.401V180.1Z" fill="#D2D9DC"/>
<path d="M326.433 187.532L318.867 195.098L357.616 233.847L365.182 226.281L326.433 187.532Z" fill="#D2D9DC"/>
<path opacity="0.19" d="M326.412 187.679L322.664 191.427L361.413 230.176L365.161 226.428L326.412 187.679Z" fill="#2D2F31"/>
<path d="M359.426 229.297L356.598 232.125L357.093 232.62L359.921 229.792L359.426 229.297Z" fill="#0F303F"/>
<path d="M355.418 228.085L354.004 229.499L354.499 229.994L355.913 228.58L355.418 228.085Z" fill="#0F303F"/>
<path d="M354.235 224.071L351.406 226.899L351.901 227.394L354.73 224.566L354.235 224.071Z" fill="#0F303F"/>
<path d="M350.223 222.859L348.809 224.273L349.304 224.768L350.718 223.354L350.223 222.859Z" fill="#0F303F"/>
<path d="M348.973 218.929L346.145 221.758L346.639 222.253L349.468 219.424L348.973 218.929Z" fill="#0F303F"/>
<path d="M344.961 217.719L343.547 219.133L344.042 219.628L345.456 218.214L344.961 217.719Z" fill="#0F303F"/>
<path d="M343.778 213.704L340.949 216.532L341.444 217.027L344.273 214.199L343.778 213.704Z" fill="#0F303F"/>
<path d="M339.77 212.493L338.355 213.907L338.85 214.402L340.265 212.988L339.77 212.493Z" fill="#0F303F"/>
<path d="M338.585 208.48L335.754 211.306L336.248 211.802L339.079 208.976L338.585 208.48Z" fill="#0F303F"/>
<path d="M334.578 207.274L333.164 208.688L333.659 209.183L335.073 207.769L334.578 207.274Z" fill="#0F303F"/>
<path d="M333.394 203.269L330.566 206.099L331.062 206.593L333.889 203.764L333.394 203.269Z" fill="#0F303F"/>
<path d="M329.32 202.01L327.906 203.425L328.401 203.92L329.815 202.505L329.32 202.01Z" fill="#0F303F"/>
<path d="M328.133 197.977L325.305 200.806L325.8 201.301L328.628 198.472L328.133 197.977Z" fill="#0F303F"/>
<path d="M324.125 196.779L322.711 198.193L323.206 198.688L324.62 197.274L324.125 196.779Z" fill="#0F303F"/>
<path d="M322.964 192.75L320.137 195.58L320.632 196.075L323.459 193.245L322.964 192.75Z" fill="#0F303F"/>
<path d="M319.801 233L331.401 229.2L332.101 220.7L323.601 221.4L319.801 233Z" fill="#FFDD33"/>
<path d="M346.098 206.6C343.998 204.5 343.998 200.9 346.098 198.8L354.898 190C356.998 187.9 360.598 187.9 362.698 190C364.798 192.1 364.798 195.7 362.698 197.8L353.898 206.6C351.798 208.8 348.298 208.8 346.098 206.6Z" fill="#002548"/>
<path d="M353.657 191.35L346.586 198.421L354.364 206.199L361.435 199.128L353.657 191.35Z" fill="#FFDD33"/>
<path d="M352.049 192.887L350.352 194.584L358.13 202.362L359.827 200.665L352.049 192.887Z" fill="#0F303F"/>
<path d="M331.3 229.2L329.2 223.5L323.5 221.4L348.6 196.3L356.4 204.1L331.3 229.2Z" fill="#0054A6"/>
<path d="M352.503 200.2L329.203 223.5L331.303 229.2L356.403 204.1L352.503 200.2Z" fill="#002548"/>
<path d="M319.801 233L324.301 231.5C324.201 230.8 323.901 230 323.301 229.5C322.701 228.9 322.001 228.6 321.301 228.5L319.801 233Z" fill="#002548"/>
<path d="M106.8 127.8L105.5 124.7C105.5 124.7 83.5 125.1 82.5 131.5V136.3L106.8 127.8Z" fill="#839299"/>
<path d="M56.6016 127.8L57.9016 124.7C57.9016 124.7 79.9016 125.1 80.9016 131.5V136.3L56.6016 127.8Z" fill="#839299"/>
<path d="M85.6 134.1C85.6 136.2 83.9 137.9 81.8 137.9C79.7 137.9 78 136.2 78 134.1C78 132 79.7 130.3 81.8 130.3C83.9 130.2 85.6 132 85.6 134.1Z" fill="#839299"/>
<path d="M108.698 127.5L84.2984 132.7C84.1984 134 83.0984 134.9 81.7984 134.9C80.4984 134.9 79.3984 133.9 79.2984 132.7L54.8984 127.5V159L79.2984 164.2V164.3C79.2984 165.7 80.3984 166.8 81.7984 166.8C83.1984 166.8 84.2984 165.7 84.2984 164.3V164.2L108.698 159V127.5Z" fill="#002548"/>
<path d="M79.3008 165.5L54.8008 160.2V128.8L79.3008 134.1V165.5Z" fill="#0054A6"/>
<path d="M84.2031 165.5L108.703 160.2V128.8L84.2031 134.1V165.5Z" fill="#0054A6"/>
<path d="M81.7031 136.3C80.4031 136.3 79.3031 135.3 79.2031 134C79.2031 134.1 79.2031 134.2 79.2031 134.3V165.5C79.2031 166.9 80.3031 168 81.7031 168C83.1031 168 84.2031 166.9 84.2031 165.5V134.3C84.2031 134.2 84.2031 134.1 84.2031 134C84.1031 135.3 83.0031 136.3 81.7031 136.3Z" fill="#002548"/>
<path d="M81.7031 164.5C80.3031 164.5 79.2031 163.4 79.2031 162V163C79.2031 164.4 80.3031 165.5 81.7031 165.5C83.1031 165.5 84.2031 164.4 84.2031 163V162C84.3031 163.4 83.1031 164.5 81.7031 164.5Z" fill="#FFDD33"/>
<path d="M81.7031 162.1C80.3031 162.1 79.2031 161 79.2031 159.6V160.6C79.2031 162 80.3031 163.1 81.7031 163.1C83.1031 163.1 84.2031 162 84.2031 160.6V159.6C84.3031 161 83.1031 162.1 81.7031 162.1Z" fill="#FFDD33"/>
<path d="M81.7031 143.4C80.3031 143.4 79.2031 142.3 79.2031 140.9V141.9C79.2031 143.3 80.3031 144.4 81.7031 144.4C83.1031 144.4 84.2031 143.3 84.2031 141.9V140.9C84.3031 142.3 83.1031 143.4 81.7031 143.4Z" fill="#FFDD33"/>
<path d="M81.7031 141.1C80.3031 141.1 79.2031 140 79.2031 138.6V139.6C79.2031 141 80.3031 142.1 81.7031 142.1C83.1031 142.1 84.2031 141 84.2031 139.6V138.6C84.3031 139.9 83.1031 141.1 81.7031 141.1Z" fill="#FFDD33"/>
<path d="M303.331 235.236L303.059 105L282.385 105.043L282.657 235.279L303.331 235.236Z" fill="#E6F4FF"/>
<path d="M276.04 224.744L275.953 183.243L252.072 183.293L252.158 224.794L276.04 224.744Z" fill="url(#paint0_linear_14347_36510)"/>
<path d="M190.315 219.043C177.947 219.069 166.642 214.504 158.011 206.954C147.781 198.007 141.308 184.868 141.278 170.209C141.221 143.183 163.085 121.228 190.111 121.172C205.389 121.14 219.047 128.113 228.043 139.064C231.453 143.213 234.194 147.935 236.1 153.064C238.06 158.34 239.137 164.047 239.149 170.005C239.166 177.975 237.276 185.503 233.909 192.16C230.684 198.539 226.103 204.116 220.544 208.512C218.986 209.744 217.352 210.883 215.649 211.921C208.265 216.423 199.595 219.023 190.315 219.043Z" fill="#D4ECFF"/>
<path d="M168.794 143.242C168.794 143.242 172.265 140.005 178.568 145.043C184.872 150.08 183.131 149.422 180.572 152.988C178.013 156.553 179.51 159.862 177.611 162.433C175.712 165.004 174.052 163.186 172.154 166.253C170.256 169.321 171.259 173.624 169.19 174.208C167.121 174.792 166.948 171.067 164.214 170.741C161.481 170.416 160.494 173.398 158.252 170.422C156.01 167.446 156.003 163.803 153.436 163.643C150.868 163.482 148.549 162.825 147.137 160.841C145.725 158.856 145.231 160.017 144.313 156.872C143.396 153.728 144.304 152.401 149.105 151.563C153.905 150.725 155.729 151.549 158.374 149.391C161.019 147.232 161.344 144.334 164.656 144.409C167.969 144.486 168.794 143.242 168.794 143.242Z" fill="#FCCF88"/>
<path d="M213.037 156.48C213.528 153.664 213.609 152.422 211.377 154.165C209.145 155.909 206.569 151.857 207.557 149.205C208.545 146.553 204.824 148.88 203.412 146.895C202.001 144.911 202.989 142.259 200.918 141.932C198.847 141.606 195.291 143.6 195.618 141.612C195.945 139.624 201.25 142.263 201.741 139.447C202.232 136.63 202.803 132.655 199.075 131.835C195.348 131.014 194.02 129.444 193.114 132.013C192.209 134.581 197.178 135.068 195.111 136.645C193.044 138.223 192.87 134.249 190.638 135.661C188.405 137.073 189.065 135.747 186.499 136.498C183.934 137.248 183.273 138.078 182.863 139.817C182.453 141.557 180.22 142.804 180.876 139.821C180.876 139.821 181.197 135.184 185.17 134.513C189.143 133.842 190.129 130.032 193.936 129.03C197.743 128.028 202.208 125.452 206.849 127.181C211.489 128.911 220.936 132.368 223.26 134.93C224.22 135.989 226.114 137.456 228.042 139.064C231.452 143.213 234.193 147.935 236.099 153.064C236.128 153.693 235.982 154.267 235.556 154.777C233.821 156.851 234.97 151.632 232.071 151.141C229.172 150.651 229.343 153.465 226.113 152.81C222.882 152.154 225.215 159.353 221.821 159.774C218.427 160.195 218.587 157.38 216.19 159.289C213.792 161.198 212.546 159.296 213.037 156.48Z" fill="#FCCF88"/>
<path d="M229.124 174.239C230.534 173.145 231.364 171.46 231.351 169.675C231.336 167.681 230.92 165.286 229.118 164.643C225.887 163.49 227.388 168.787 222.336 167.969C217.283 167.152 217.372 170.215 219.696 172.777C222.02 175.339 223.838 173.679 224.174 176.08C224.388 177.609 227.148 175.774 229.124 174.239Z" fill="#FCCF88"/>
<path d="M220.545 208.512C219.705 208.048 218.634 207.372 217.781 206.565C216.122 204.996 220.755 203.33 218.27 202.756C215.785 202.181 209.087 206.501 210.987 204.592C212.888 202.684 216.435 196.467 214.124 199.618C211.812 202.769 209.827 204.098 209.827 204.098C209.827 204.098 206.265 203.36 208.5 202.942C210.735 202.523 211.064 201.694 212.3 198.794C213.536 195.893 209.735 199.379 210.807 197.306C211.879 195.234 208.733 195.572 211.295 193.331C213.857 191.09 215.012 188.852 217.914 190.833C220.816 192.814 220.486 193.063 224.375 192.144C228.105 191.263 233.477 192.092 233.911 192.161C230.686 198.539 226.104 204.116 220.545 208.512Z" fill="#FCCF88"/>
<path d="M159.115 207.391C165.954 210.813 177.958 209.877 181.352 209.456C184.746 209.035 178.363 205.737 177.687 199.031C177.01 192.326 181.564 192.15 187.439 190.234C193.314 188.317 205.09 196.987 207.002 200.46C208.913 203.934 203.616 205.104 206.184 205.43C208.751 205.756 206.272 208.162 209.667 208.072C212.392 208 214.802 210.809 215.648 211.921C208.264 216.423 199.594 219.023 190.314 219.043C177.946 219.069 166.641 214.504 158.01 206.954C158.285 207.016 158.65 207.159 159.115 207.391Z" fill="#FCCF88"/>
<path d="M122.776 188.695L122.77 185.432L96.1711 185.487L96.1779 188.751L122.776 188.695Z" fill="url(#paint1_linear_14347_36510)"/>
<path d="M122.808 203.808L122.801 200.544L96.2023 200.599L96.2091 203.863L122.808 203.808Z" fill="url(#paint2_linear_14347_36510)"/>
<path d="M122.827 212.951L122.82 209.688L96.2218 209.743L96.2286 213.007L122.827 212.951Z" fill="url(#paint3_linear_14347_36510)"/>
<path d="M122.78 191.483L122.777 190.384L96.1789 190.439L96.1812 191.539L122.78 191.483Z" fill="url(#paint4_linear_14347_36510)"/>
<path d="M122.834 215.485L122.832 214.386L96.2336 214.441L96.2358 215.541L122.834 215.485Z" fill="url(#paint5_linear_14347_36510)"/>
<path d="M122.811 206.258L122.809 205.158L96.2101 205.214L96.2124 206.313L122.811 206.258Z" fill="url(#paint6_linear_14347_36510)"/>
<path d="M122.79 196.225L122.789 195.675L96.1906 195.73L96.1917 196.28L122.79 196.225Z" fill="url(#paint7_linear_14347_36510)"/>
<path d="M122.814 208.119L122.812 207.569L96.214 207.625L96.2152 208.175L122.814 208.119Z" fill="url(#paint8_linear_14347_36510)"/>
<path d="M122.837 217.432L122.836 216.882L96.2375 216.938L96.2386 217.487L122.837 217.432Z" fill="url(#paint9_linear_14347_36510)"/>
<path d="M122.785 194.405L122.781 192.627L96.1828 192.682L96.1865 194.46L122.785 194.405Z" fill="url(#paint10_linear_14347_36510)"/>
<path d="M122.797 199.103L122.793 197.325L96.1945 197.381L96.1982 199.159L122.797 199.103Z" fill="url(#paint11_linear_14347_36510)"/>
<path d="M122.844 220.961L122.84 219.184L96.2414 219.239L96.2451 221.017L122.844 220.961Z" fill="url(#paint12_linear_14347_36510)"/>
<path d="M258.892 195.509L258.897 198.064L267.003 198.047C267.246 198.047 267.492 198.055 267.741 198.071L265.92 195.951C265.876 195.896 265.844 195.84 265.824 195.785C265.805 195.73 265.795 195.677 265.795 195.627C265.795 195.544 265.812 195.47 265.848 195.403C265.884 195.337 265.927 195.287 265.977 195.254L266.614 194.788L269.683 198.316L269.686 199.519L258.9 199.541L258.905 201.881L257.777 201.883L257.764 195.511L258.892 195.509Z" fill="white"/>
<path d="M265.073 208.132C265.074 208.608 264.996 209.058 264.839 209.485C264.682 209.911 264.453 210.285 264.153 210.606C263.852 210.927 263.482 211.183 263.043 211.372C262.603 211.561 262.102 211.656 261.537 211.657C260.99 211.658 260.481 211.56 260.01 211.362C259.54 211.163 259.13 210.886 258.781 210.53C258.432 210.174 258.157 209.745 257.957 209.242C257.757 208.739 257.656 208.186 257.655 207.583C257.653 206.986 257.748 206.445 257.938 205.961C258.127 205.476 258.397 205.062 258.748 204.719C259.099 204.375 259.524 204.11 260.024 203.924C260.524 203.738 261.084 203.644 261.704 203.643C262.223 203.642 262.777 203.756 263.363 203.988C263.95 204.219 264.581 204.585 265.257 205.087L269.321 208.09C269.42 208.167 269.505 208.275 269.574 208.413C269.644 208.551 269.679 208.709 269.679 208.886L269.682 210.197L264.455 206.084C264.649 206.366 264.8 206.678 264.909 207.021C265.017 207.363 265.072 207.734 265.073 208.132ZM261.449 205.07C261.067 205.071 260.719 205.127 260.404 205.238C260.089 205.349 259.818 205.512 259.592 205.725C259.366 205.938 259.191 206.199 259.067 206.506C258.943 206.813 258.881 207.163 258.882 207.556C258.883 207.954 258.947 208.313 259.075 208.634C259.203 208.954 259.381 209.229 259.608 209.458C259.835 209.687 260.104 209.864 260.414 209.987C260.724 210.111 261.061 210.173 261.427 210.172C261.814 210.171 262.163 210.11 262.476 209.987C262.788 209.865 263.053 209.693 263.271 209.471C263.489 209.25 263.656 208.984 263.771 208.674C263.886 208.364 263.944 208.023 263.943 207.653C263.942 207.255 263.874 206.895 263.738 206.575C263.601 206.254 263.418 205.982 263.188 205.759C262.958 205.535 262.692 205.364 262.391 205.246C262.089 205.128 261.775 205.069 261.449 205.07Z" fill="white"/>
<path opacity="0.4" d="M325.793 114H277V144.233H325.793V114Z" fill="#002548"/>
<path opacity="0.8" d="M298.812 136.968H277V144.234H298.812V136.968Z" fill="#002548"/>
<path opacity="0.3" d="M325.908 136.968H298.77V144.234H325.908V136.968Z" fill="#002548"/>
<path opacity="0.7" d="M294.961 139.807V138.807H279.251V139.807H294.961Z" fill="#003A7A"/>
<path opacity="0.7" d="M290.645 142.058V141.058H279.251V142.058H290.645Z" fill="#003A7A"/>
<path d="M290.101 133.338C288.447 133.338 287.102 131.992 287.102 130.338V121.838C287.102 120.873 286.317 120.088 285.352 120.088C284.387 120.088 283.602 120.873 283.602 121.838V124.796C283.602 126.106 282.536 127.171 281.227 127.171H279.227C278.881 127.171 278.602 126.891 278.602 126.546C278.602 126.201 278.881 125.921 279.227 125.921H281.227C281.847 125.921 282.352 125.417 282.352 124.796V121.838C282.352 120.184 283.697 118.838 285.352 118.838C287.006 118.838 288.352 120.184 288.352 121.838V130.338C288.352 131.303 289.137 132.088 290.101 132.088C291.066 132.088 291.851 131.303 291.851 130.338V125.088C291.851 123.434 293.197 122.088 294.851 122.088C296.506 122.088 297.851 123.434 297.851 125.088V125.713C297.851 126.609 298.58 127.338 299.476 127.338C300.372 127.338 301.101 126.609 301.101 125.713V121.088C301.101 119.434 302.447 118.088 304.101 118.088C305.756 118.088 307.101 119.434 307.101 121.088V129.713C307.101 130.609 307.83 131.338 308.726 131.338C309.622 131.338 310.351 130.609 310.351 129.713V127.463C310.351 126.153 311.417 125.088 312.726 125.088H312.976C313.322 125.088 313.601 125.368 313.601 125.713C313.601 126.058 313.322 126.338 312.976 126.338H312.726C312.106 126.338 311.601 126.843 311.601 127.463V129.713C311.601 131.298 310.312 132.588 308.726 132.588C307.141 132.588 305.851 131.298 305.851 129.713V121.088C305.851 120.123 305.066 119.338 304.101 119.338C303.136 119.338 302.351 120.123 302.351 121.088V125.713C302.351 127.298 301.062 128.588 299.476 128.588C297.891 128.588 296.601 127.298 296.601 125.713V125.088C296.601 124.123 295.816 123.338 294.851 123.338C293.886 123.338 293.101 124.123 293.101 125.088V130.338C293.102 131.992 291.756 133.338 290.101 133.338Z" fill="#83D3FF"/>
<defs>
<linearGradient id="paint0_linear_14347_36510" x1="275.249" y1="203.995" x2="252.359" y2="204.043" gradientUnits="userSpaceOnUse">
<stop offset="0.0112" stop-color="#58B3EC"/>
<stop offset="0.3272" stop-color="#56B2EB"/>
<stop offset="0.5139" stop-color="#4DAFE9"/>
<stop offset="0.6669" stop-color="#3FA9E6"/>
<stop offset="0.8017" stop-color="#2BA2E1"/>
<stop offset="0.9234" stop-color="#1198DA"/>
<stop offset="0.9888" stop-color="#0092D6"/>
</linearGradient>
<linearGradient id="paint1_linear_14347_36510" x1="109.47" y1="185.459" x2="109.477" y2="188.723" gradientUnits="userSpaceOnUse">
<stop offset="0.0112" stop-color="#58B3EC"/>
<stop offset="0.3272" stop-color="#56B2EB"/>
<stop offset="0.5139" stop-color="#4DAFE9"/>
<stop offset="0.6669" stop-color="#3FA9E6"/>
<stop offset="0.8017" stop-color="#2BA2E1"/>
<stop offset="0.9234" stop-color="#1198DA"/>
<stop offset="0.9888" stop-color="#0092D6"/>
</linearGradient>
<linearGradient id="paint2_linear_14347_36510" x1="109.501" y1="200.572" x2="109.508" y2="203.835" gradientUnits="userSpaceOnUse">
<stop offset="0.0112" stop-color="#58B3EC"/>
<stop offset="0.3272" stop-color="#56B2EB"/>
<stop offset="0.5139" stop-color="#4DAFE9"/>
<stop offset="0.6669" stop-color="#3FA9E6"/>
<stop offset="0.8017" stop-color="#2BA2E1"/>
<stop offset="0.9234" stop-color="#1198DA"/>
<stop offset="0.9888" stop-color="#0092D6"/>
</linearGradient>
<linearGradient id="paint3_linear_14347_36510" x1="109.521" y1="209.715" x2="109.528" y2="212.979" gradientUnits="userSpaceOnUse">
<stop offset="0.0112" stop-color="#58B3EC"/>
<stop offset="0.3272" stop-color="#56B2EB"/>
<stop offset="0.5139" stop-color="#4DAFE9"/>
<stop offset="0.6669" stop-color="#3FA9E6"/>
<stop offset="0.8017" stop-color="#2BA2E1"/>
<stop offset="0.9234" stop-color="#1198DA"/>
<stop offset="0.9888" stop-color="#0092D6"/>
</linearGradient>
<linearGradient id="paint4_linear_14347_36510" x1="109.478" y1="190.411" x2="109.48" y2="191.511" gradientUnits="userSpaceOnUse">
<stop offset="0.0112" stop-color="#58B3EC"/>
<stop offset="0.3272" stop-color="#56B2EB"/>
<stop offset="0.5139" stop-color="#4DAFE9"/>
<stop offset="0.6669" stop-color="#3FA9E6"/>
<stop offset="0.8017" stop-color="#2BA2E1"/>
<stop offset="0.9234" stop-color="#1198DA"/>
<stop offset="0.9888" stop-color="#0092D6"/>
</linearGradient>
<linearGradient id="paint5_linear_14347_36510" x1="109.533" y1="214.414" x2="109.535" y2="215.513" gradientUnits="userSpaceOnUse">
<stop offset="0.0112" stop-color="#58B3EC"/>
<stop offset="0.3272" stop-color="#56B2EB"/>
<stop offset="0.5139" stop-color="#4DAFE9"/>
<stop offset="0.6669" stop-color="#3FA9E6"/>
<stop offset="0.8017" stop-color="#2BA2E1"/>
<stop offset="0.9234" stop-color="#1198DA"/>
<stop offset="0.9888" stop-color="#0092D6"/>
</linearGradient>
<linearGradient id="paint6_linear_14347_36510" x1="109.509" y1="205.186" x2="109.512" y2="206.286" gradientUnits="userSpaceOnUse">
<stop offset="0.0112" stop-color="#58B3EC"/>
<stop offset="0.3272" stop-color="#56B2EB"/>
<stop offset="0.5139" stop-color="#4DAFE9"/>
<stop offset="0.6669" stop-color="#3FA9E6"/>
<stop offset="0.8017" stop-color="#2BA2E1"/>
<stop offset="0.9234" stop-color="#1198DA"/>
<stop offset="0.9888" stop-color="#0092D6"/>
</linearGradient>
<linearGradient id="paint7_linear_14347_36510" x1="109.49" y1="195.703" x2="109.491" y2="196.253" gradientUnits="userSpaceOnUse">
<stop offset="0.0112" stop-color="#58B3EC"/>
<stop offset="0.3272" stop-color="#56B2EB"/>
<stop offset="0.5139" stop-color="#4DAFE9"/>
<stop offset="0.6669" stop-color="#3FA9E6"/>
<stop offset="0.8017" stop-color="#2BA2E1"/>
<stop offset="0.9234" stop-color="#1198DA"/>
<stop offset="0.9888" stop-color="#0092D6"/>
</linearGradient>
<linearGradient id="paint8_linear_14347_36510" x1="109.513" y1="207.597" x2="109.514" y2="208.147" gradientUnits="userSpaceOnUse">
<stop offset="0.0112" stop-color="#58B3EC"/>
<stop offset="0.3272" stop-color="#56B2EB"/>
<stop offset="0.5139" stop-color="#4DAFE9"/>
<stop offset="0.6669" stop-color="#3FA9E6"/>
<stop offset="0.8017" stop-color="#2BA2E1"/>
<stop offset="0.9234" stop-color="#1198DA"/>
<stop offset="0.9888" stop-color="#0092D6"/>
</linearGradient>
<linearGradient id="paint9_linear_14347_36510" x1="109.537" y1="216.91" x2="109.538" y2="217.46" gradientUnits="userSpaceOnUse">
<stop offset="0.0112" stop-color="#58B3EC"/>
<stop offset="0.3272" stop-color="#56B2EB"/>
<stop offset="0.5139" stop-color="#4DAFE9"/>
<stop offset="0.6669" stop-color="#3FA9E6"/>
<stop offset="0.8017" stop-color="#2BA2E1"/>
<stop offset="0.9234" stop-color="#1198DA"/>
<stop offset="0.9888" stop-color="#0092D6"/>
</linearGradient>
<linearGradient id="paint10_linear_14347_36510" x1="109.482" y1="192.655" x2="109.486" y2="194.433" gradientUnits="userSpaceOnUse">
<stop offset="0.0112" stop-color="#58B3EC"/>
<stop offset="0.3272" stop-color="#56B2EB"/>
<stop offset="0.5139" stop-color="#4DAFE9"/>
<stop offset="0.6669" stop-color="#3FA9E6"/>
<stop offset="0.8017" stop-color="#2BA2E1"/>
<stop offset="0.9234" stop-color="#1198DA"/>
<stop offset="0.9888" stop-color="#0092D6"/>
</linearGradient>
<linearGradient id="paint11_linear_14347_36510" x1="109.494" y1="197.353" x2="109.497" y2="199.131" gradientUnits="userSpaceOnUse">
<stop offset="0.0112" stop-color="#58B3EC"/>
<stop offset="0.3272" stop-color="#56B2EB"/>
<stop offset="0.5139" stop-color="#4DAFE9"/>
<stop offset="0.6669" stop-color="#3FA9E6"/>
<stop offset="0.8017" stop-color="#2BA2E1"/>
<stop offset="0.9234" stop-color="#1198DA"/>
<stop offset="0.9888" stop-color="#0092D6"/>
</linearGradient>
<linearGradient id="paint12_linear_14347_36510" x1="109.54" y1="219.211" x2="109.544" y2="220.989" gradientUnits="userSpaceOnUse">
<stop offset="0.0112" stop-color="#58B3EC"/>
<stop offset="0.3272" stop-color="#56B2EB"/>
<stop offset="0.5139" stop-color="#4DAFE9"/>
<stop offset="0.6669" stop-color="#3FA9E6"/>
<stop offset="0.8017" stop-color="#2BA2E1"/>
<stop offset="0.9234" stop-color="#1198DA"/>
<stop offset="0.9888" stop-color="#0092D6"/>
</linearGradient>
</defs>
</svg>
