<svg width="394" height="295" viewBox="0 0 394 295" fill="none" xmlns="http://www.w3.org/2000/svg">
<path d="M333.118 154.526C334.837 154.284 336.47 154.457 337.953 155.414C338.043 155.472 338.131 155.533 338.218 155.596C338.304 155.659 338.39 155.724 338.474 155.791C338.557 155.859 338.638 155.928 338.719 155.999C338.799 156.071 338.878 156.144 338.955 156.22C339.03 156.295 339.104 156.372 339.177 156.451C339.25 156.53 339.32 156.611 339.387 156.694C339.456 156.776 339.523 156.86 339.588 156.946C339.652 157.032 339.713 157.12 339.773 157.209C339.832 157.298 339.89 157.389 339.945 157.481C340.001 157.573 340.054 157.666 340.104 157.76C340.154 157.855 340.202 157.951 340.248 158.048C340.294 158.145 340.337 158.243 340.377 158.343C340.418 158.442 340.456 158.542 340.493 158.643C340.527 158.744 340.56 158.846 340.59 158.949C340.621 159.052 340.649 159.155 340.674 159.26C340.701 159.364 340.724 159.469 340.743 159.574C340.764 159.679 340.782 159.784 340.798 159.89C340.813 159.996 340.827 160.102 340.838 160.209C340.848 160.315 340.855 160.422 340.861 160.529C340.865 160.636 340.867 160.743 340.867 160.85C340.867 160.957 340.864 161.064 340.858 161.171C340.853 161.278 340.844 161.385 340.832 161.491C340.823 161.597 340.809 161.704 340.792 161.809C340.777 161.915 340.759 162.021 340.737 162.125C340.714 162.23 340.689 162.334 340.662 162.438C340.638 162.542 340.609 162.645 340.576 162.747C340.543 162.849 340.509 162.951 340.472 163.051C340.436 163.152 340.396 163.251 340.354 163.349C340.312 163.448 340.268 163.546 340.222 163.642C340.176 163.738 340.127 163.833 340.075 163.927C340.023 164.021 339.969 164.113 339.914 164.205C339.858 164.296 339.799 164.385 339.738 164.474C338.727 165.919 337.178 166.723 335.476 167.039C334.238 167.268 332.827 167.035 331.687 166.515C330.195 165.834 329.078 164.542 328.522 163.012C328.486 162.911 328.451 162.809 328.419 162.706C328.386 162.603 328.356 162.499 328.33 162.395C328.303 162.291 328.278 162.186 328.255 162.08C328.234 161.975 328.215 161.869 328.2 161.762C328.183 161.656 328.168 161.549 328.157 161.442C328.147 161.334 328.139 161.227 328.134 161.119C328.128 161.012 328.125 160.904 328.125 160.796C328.125 160.689 328.128 160.581 328.134 160.473C328.138 160.366 328.145 160.258 328.157 160.151C328.168 160.044 328.182 159.937 328.197 159.83C328.214 159.724 328.233 159.618 328.255 159.512C328.276 159.407 328.3 159.302 328.327 159.197C328.354 159.093 328.383 158.989 328.416 158.886C328.447 158.783 328.481 158.681 328.52 158.58C328.556 158.479 328.596 158.379 328.638 158.28C328.68 158.181 328.725 158.083 328.773 157.986C329.709 156.086 331.18 155.203 333.118 154.526Z" fill="#002548"/>
<path d="M333.391 156.444C334.773 156.294 335.977 156.396 337.114 157.274C337.231 157.365 337.345 157.462 337.454 157.565C337.561 157.667 337.664 157.775 337.762 157.888C337.858 158.001 337.949 158.118 338.035 158.24C338.122 158.361 338.201 158.487 338.274 158.617C338.347 158.746 338.414 158.879 338.473 159.016C338.535 159.152 338.588 159.291 338.634 159.432C338.68 159.574 338.72 159.717 338.752 159.862C338.785 160.008 338.81 160.155 338.827 160.302C338.963 161.415 338.672 162.614 337.946 163.484C337.143 164.45 336.126 164.884 334.908 165.025C334.14 165.133 333.362 165.019 332.631 164.759C331.623 164.4 330.923 163.667 330.5 162.696C330.002 161.553 329.947 160.293 330.419 159.132C331.015 157.659 332.015 157.053 333.391 156.444Z" fill="#FEFEFE"/>
<path d="M102.779 49.5435C102.976 49.5292 103.173 49.5232 103.371 49.5253C103.569 49.5275 103.766 49.5377 103.963 49.5561C104.16 49.5747 104.356 49.6014 104.551 49.6358C104.746 49.6705 104.939 49.7131 105.13 49.7635C105.321 49.8142 105.51 49.8726 105.696 49.9385C105.883 50.0048 106.066 50.0785 106.247 50.1597C106.427 50.2411 106.603 50.3297 106.776 50.4256C106.949 50.5214 107.118 50.6242 107.283 50.7341C107.372 50.7943 107.46 50.8568 107.547 50.9215C107.633 50.9861 107.718 51.0528 107.802 51.1218C107.885 51.1906 107.966 51.2615 108.046 51.3345C108.126 51.4074 108.204 51.4823 108.28 51.559C108.356 51.6358 108.43 51.7143 108.502 51.7946C108.574 51.875 108.644 51.9571 108.712 52.0409C108.78 52.1249 108.846 52.2104 108.91 52.2976C108.974 52.3847 109.036 52.4734 109.095 52.5637C109.154 52.6539 109.212 52.7455 109.267 52.8385C109.321 52.9315 109.374 53.0259 109.424 53.1213C109.474 53.2171 109.522 53.3139 109.568 53.412C109.613 53.5101 109.656 53.6091 109.696 53.7092C109.737 53.8093 109.775 53.9104 109.81 54.0123C109.846 54.1144 109.879 54.2172 109.909 54.3207C109.94 54.4246 109.967 54.5288 109.992 54.6338C110.017 54.739 110.04 54.8445 110.06 54.9507C110.081 55.0591 110.099 55.168 110.114 55.2773C110.129 55.3866 110.142 55.4964 110.151 55.6063C110.161 55.7161 110.168 55.8263 110.173 55.9366C110.177 56.047 110.179 56.1573 110.178 56.2676C110.177 56.3779 110.173 56.4882 110.167 56.5986C110.16 56.7086 110.151 56.8186 110.139 56.9284C110.127 57.0381 110.113 57.1474 110.095 57.2564C110.078 57.3656 110.058 57.4742 110.036 57.5822C110.013 57.6902 109.988 57.7977 109.96 57.9045C109.933 58.0114 109.902 58.1175 109.869 58.2228C109.836 58.3281 109.8 58.4325 109.762 58.5359C109.724 58.6395 109.683 58.7421 109.64 58.8438C109.597 58.9454 109.551 59.0457 109.503 59.1451C109.455 59.2445 109.404 59.3426 109.351 59.4392C109.298 59.5361 109.243 59.6316 109.185 59.7258C109.128 59.82 109.068 59.9126 109.006 60.0037C107.79 61.7519 106.038 62.5311 103.998 62.8766C102.519 62.8438 101.218 62.6255 99.9339 61.8482C99.8397 61.791 99.7468 61.7315 99.6555 61.6698C99.5641 61.608 99.4744 61.5439 99.3862 61.4775C99.2981 61.4111 99.2117 61.3427 99.1271 61.272C99.0424 61.2014 98.9596 61.1287 98.8787 61.0539C98.7976 60.979 98.7185 60.9023 98.6413 60.8235C98.5642 60.7446 98.4891 60.6639 98.4162 60.5816C98.3431 60.499 98.2721 60.4148 98.2031 60.3287C98.1341 60.2425 98.0676 60.1547 98.0032 60.0651C97.9387 59.9757 97.8765 59.8846 97.8165 59.792C97.7566 59.6996 97.6992 59.6055 97.644 59.51C97.5889 59.4146 97.5361 59.3178 97.4859 59.2197C97.4356 59.1215 97.3878 59.0221 97.3424 58.9216C97.2971 58.8211 97.2544 58.7195 97.2143 58.6168C97.1741 58.5142 97.1366 58.4106 97.1016 58.306C97.0668 58.2015 97.0344 58.0961 97.0046 57.9898C96.975 57.8836 96.9481 57.7768 96.9236 57.6692C96.8993 57.5622 96.8777 57.4546 96.8588 57.3466C96.8399 57.2386 96.8238 57.1301 96.8104 57.0211C96.797 56.9124 96.7864 56.8033 96.7785 56.6939C96.7705 56.5843 96.7655 56.4748 96.7632 56.3652C96.7609 56.2555 96.7613 56.1459 96.7643 56.0363C96.7676 55.9266 96.7736 55.817 96.7822 55.7077C96.7908 55.5983 96.8022 55.4892 96.8165 55.3804C96.8307 55.2717 96.8477 55.1634 96.8675 55.0555C96.887 54.9475 96.9094 54.8402 96.9346 54.7335C96.9598 54.6266 96.9874 54.5205 97.0178 54.4152C97.0483 54.3099 97.0815 54.2054 97.1172 54.1015C97.1529 53.9977 97.1912 53.895 97.2321 53.7933C97.273 53.6915 97.3164 53.5907 97.3623 53.4912C97.4083 53.3917 97.4566 53.2932 97.5078 53.196C97.5586 53.0989 97.612 53.0031 97.6679 52.9088C97.7237 52.8142 97.7817 52.7211 97.8422 52.6297C99.0279 50.8167 100.722 49.9935 102.779 49.5435Z" fill="#002548"/>
<path d="M102.688 51.6483C103.513 51.5916 104.318 51.6368 105.097 51.9364C106.223 52.3686 107.154 53.2068 107.641 54.3162C107.704 54.459 107.76 54.6049 107.808 54.7538C107.855 54.9024 107.895 55.0532 107.927 55.2062C107.96 55.3593 107.984 55.5135 108 55.6689C108.016 55.8243 108.024 55.9801 108.024 56.1366C108.023 56.2927 108.015 56.4485 107.999 56.6039C107.982 56.7593 107.958 56.9134 107.925 57.0663C107.893 57.2193 107.852 57.3701 107.804 57.5187C107.756 57.6673 107.7 57.8131 107.636 57.9558C106.951 59.4899 105.801 60.1839 104.317 60.7741C103.441 60.8424 102.638 60.7874 101.814 60.4556C100.669 59.9945 99.7779 59.1359 99.2988 57.9953C98.8144 56.842 98.8032 55.4984 99.3172 54.3529C100.013 52.8005 101.2 52.2195 102.688 51.6483Z" fill="#FEFEFE"/>
<path d="M290.052 62.0091C291.785 61.8914 293.257 61.8854 294.852 62.67C294.96 62.723 295.066 62.7786 295.171 62.8369C295.275 62.8951 295.378 62.9557 295.48 63.0191C295.581 63.0825 295.682 63.1482 295.782 63.2166C295.88 63.2847 295.977 63.3551 296.073 63.4281C296.167 63.5013 296.26 63.5765 296.352 63.6541C296.444 63.7316 296.533 63.8112 296.62 63.8932C296.708 63.9751 296.793 64.0591 296.876 64.1452C296.96 64.2313 297.042 64.3195 297.121 64.4093C297.199 64.4995 297.276 64.5915 297.351 64.6853C297.426 64.7793 297.498 64.8749 297.567 64.9725C297.638 65.0697 297.706 65.1687 297.772 65.2694C297.837 65.3704 297.899 65.4726 297.959 65.5765C298.018 65.6803 298.076 65.7854 298.132 65.8919C298.185 65.9986 298.237 66.1065 298.287 66.2156C298.337 66.3248 298.384 66.4351 298.428 66.5466C298.473 66.6581 298.514 66.7705 298.552 66.8842C298.591 66.9979 298.626 67.1126 298.659 67.2281C298.691 67.3436 298.721 67.4598 298.748 67.5769C298.775 67.694 298.799 67.8115 298.82 67.9297C298.841 68.048 298.859 68.1665 298.875 68.2858C298.888 68.4049 298.9 68.5243 298.909 68.6441C298.919 68.7639 298.926 68.8836 298.93 69.0036C298.931 69.1237 298.931 69.2436 298.93 69.3635C298.926 69.4836 298.92 69.6034 298.912 69.7232C298.903 69.8429 298.89 69.9623 298.875 70.0814C298.861 70.2005 298.844 70.3192 298.823 70.4374C298.802 70.5558 298.778 70.6735 298.751 70.7905C298.726 70.9076 298.697 71.0239 298.665 71.1396C298.632 71.2552 298.596 71.3698 298.558 71.4839C298.52 71.5976 298.478 71.7104 298.434 71.8223C298.392 71.9342 298.346 72.0448 298.296 72.1544C298.246 72.264 298.194 72.3722 298.14 72.479C297.029 74.6576 295.267 75.7198 293.009 76.4659C291.322 76.6187 289.844 76.5821 288.284 75.8386C288.174 75.7864 288.066 75.7316 287.958 75.674C287.852 75.6164 287.747 75.5561 287.643 75.4932C287.539 75.4304 287.437 75.365 287.337 75.2969C287.236 75.2291 287.137 75.1587 287.04 75.0861C286.943 75.0132 286.848 74.938 286.754 74.8604C286.661 74.7828 286.57 74.7028 286.48 74.6207C286.391 74.5387 286.304 74.4543 286.219 74.3678C286.133 74.2816 286.05 74.193 285.97 74.1023C285.889 74.0117 285.811 73.9192 285.734 73.8249C285.658 73.7303 285.585 73.6339 285.513 73.5357C285.442 73.4375 285.373 73.3377 285.306 73.2361C285.24 73.1345 285.177 73.0312 285.115 72.9265C285.054 72.8218 284.995 72.7155 284.939 72.6076C284.883 72.5001 284.83 72.391 284.78 72.2807C284.729 72.1704 284.681 72.0589 284.636 71.946C284.591 71.8332 284.549 71.7195 284.51 71.6047C284.47 71.489 284.433 71.3725 284.399 71.255C284.365 71.1376 284.334 71.0194 284.306 70.9001C284.278 70.7812 284.252 70.6616 284.23 70.5412C284.208 70.4208 284.189 70.2999 284.173 70.1788C284.157 70.0575 284.144 69.9359 284.134 69.8141C284.124 69.6923 284.117 69.5701 284.113 69.4477C284.109 69.3254 284.108 69.2033 284.111 69.081C284.113 68.9586 284.118 68.8365 284.127 68.7144C284.135 68.5924 284.146 68.4707 284.161 68.3493C284.175 68.2279 284.193 68.1067 284.213 67.9861C284.234 67.8657 284.257 67.7455 284.284 67.626C284.31 67.5068 284.34 67.3881 284.373 67.27C284.405 67.1522 284.44 67.0352 284.479 66.9189C284.517 66.8028 284.558 66.6877 284.603 66.5735C284.647 66.4596 284.694 66.3467 284.744 66.2348C284.793 66.1232 284.846 66.0127 284.901 65.9035C285.994 63.761 287.849 62.7331 290.052 62.0091Z" fill="#002548"/>
<path d="M291.01 63.9225C292.202 63.8553 293.299 64.0385 294.333 64.6601C294.408 64.7057 294.481 64.7533 294.554 64.8028C294.627 64.8523 294.698 64.9036 294.767 64.9567C294.838 65.0099 294.908 65.0649 294.975 65.1217C295.042 65.1783 295.108 65.2366 295.173 65.2966C295.237 65.3568 295.299 65.4185 295.361 65.4817C295.422 65.5449 295.482 65.6099 295.539 65.6763C295.597 65.7427 295.652 65.8105 295.706 65.8798C295.762 65.949 295.815 66.0196 295.865 66.0916C295.915 66.1636 295.964 66.2366 296.012 66.3108C296.058 66.3853 296.103 66.4609 296.147 66.5376C296.189 66.6144 296.23 66.6922 296.268 66.771C296.308 66.8497 296.346 66.9297 296.38 67.0103C296.415 67.0911 296.447 67.1728 296.478 67.2552C296.509 67.3375 296.538 67.4206 296.565 67.5046C296.592 67.5884 296.616 67.673 296.637 67.7581C296.66 67.8432 296.68 67.9289 296.697 68.015C296.716 68.1044 296.733 68.194 296.746 68.284C296.761 68.3742 296.774 68.4646 296.784 68.5554C296.793 68.6461 296.8 68.737 296.804 68.8281C296.81 68.9193 296.812 69.0105 296.812 69.1018C296.812 69.1929 296.811 69.2841 296.807 69.3754C296.803 69.4666 296.797 69.5574 296.789 69.6482C296.78 69.7391 296.768 69.8296 296.755 69.9198C296.741 70.0101 296.726 70.1 296.709 70.1894C296.691 70.279 296.671 70.368 296.648 70.4564C296.625 70.5448 296.6 70.6327 296.573 70.72C296.546 70.8073 296.518 70.8938 296.487 70.9795C296.456 71.0652 296.424 71.1502 296.389 71.2344C296.353 71.3184 296.315 71.4016 296.277 71.4839C296.236 71.5659 296.194 71.647 296.15 71.7272C296.106 71.8075 296.061 71.8865 296.015 71.9643C295.967 72.0419 295.917 72.1185 295.865 72.194C294.9 73.6181 293.544 74.2535 291.902 74.5781C290.863 74.5588 289.913 74.427 288.988 73.9289C287.738 73.2562 286.766 72.0651 286.41 70.6841C286.039 69.2445 286.225 67.736 287.015 66.4697C287.952 64.968 289.343 64.3102 291.01 63.9225Z" fill="#FFDD33"/>
<path d="M59.0559 135.097C59.2661 135.079 59.4765 135.07 59.6874 135.07C59.8984 135.07 60.1089 135.079 60.3189 135.097C60.5292 135.114 60.7382 135.141 60.9461 135.176C61.1541 135.211 61.3602 135.254 61.5644 135.307C61.7686 135.359 61.9704 135.42 62.1697 135.489C62.3687 135.558 62.5648 135.635 62.7574 135.721C62.9501 135.806 63.1391 135.9 63.3242 136.001C63.5091 136.102 63.6894 136.211 63.8652 136.327C63.9664 136.395 64.0657 136.465 64.1632 136.537C64.2607 136.609 64.3564 136.684 64.4503 136.761C64.5442 136.838 64.636 136.918 64.7258 136.999C64.8158 137.081 64.9036 137.165 64.9892 137.251C65.075 137.337 65.1585 137.425 65.2399 137.515C65.3211 137.605 65.4001 137.698 65.477 137.792C65.5539 137.886 65.6282 137.982 65.7001 138.08C65.7721 138.178 65.8415 138.277 65.9086 138.379C65.9756 138.48 66.0399 138.583 66.1019 138.687C66.1638 138.792 66.2228 138.898 66.2796 139.005C66.3362 139.113 66.3901 139.222 66.4412 139.332C66.4924 139.442 66.541 139.553 66.5866 139.666C66.6321 139.778 66.6748 139.892 66.7148 140.007C66.755 140.122 66.792 140.237 66.8263 140.354C66.8604 140.47 66.8917 140.588 66.9199 140.706C66.9483 140.824 66.9738 140.943 66.9962 141.062C67.0204 141.186 67.0416 141.31 67.0599 141.434C67.0779 141.559 67.093 141.684 67.1051 141.809C67.1171 141.935 67.1258 142.06 67.1316 142.186C67.1374 142.312 67.14 142.437 67.1394 142.564C67.1388 142.69 67.1352 142.815 67.1287 142.941C67.122 143.067 67.1122 143.192 67.0991 143.317C67.0862 143.443 67.0701 143.568 67.051 143.692C67.0319 143.817 67.0099 143.94 66.9847 144.064C66.9594 144.187 66.9311 144.31 66.8997 144.432C66.8685 144.554 66.8342 144.675 66.7969 144.796C66.7595 144.916 66.7193 145.035 66.6762 145.153C66.633 145.272 66.5868 145.389 66.5377 145.505C66.4887 145.621 66.4369 145.736 66.3821 145.849C66.3275 145.963 66.2702 146.075 66.2099 146.185C66.1497 146.296 66.0867 146.405 66.0212 146.513C65.9555 146.62 65.8873 146.726 65.8166 146.83C64.4528 148.809 62.5599 149.585 60.2669 149.985C58.6748 150.059 57.0402 149.681 55.686 148.829C53.9809 147.755 52.8234 145.99 52.4048 144.031C52.3794 143.911 52.3571 143.791 52.3376 143.67C52.3182 143.549 52.3019 143.428 52.2887 143.307C52.2754 143.185 52.2653 143.063 52.2584 142.941C52.2514 142.819 52.2473 142.697 52.2463 142.575C52.2453 142.452 52.2475 142.33 52.2527 142.208C52.2579 142.086 52.2662 141.964 52.2777 141.842C52.2891 141.72 52.3035 141.599 52.3209 141.478C52.3384 141.357 52.359 141.236 52.3826 141.116C52.4062 140.996 52.4328 140.877 52.4624 140.758C52.4919 140.64 52.5244 140.522 52.56 140.405C52.5956 140.288 52.6339 140.172 52.6752 140.056C52.7167 139.941 52.7609 139.827 52.808 139.715C52.8553 139.602 52.9051 139.49 52.9578 139.38C53.0106 139.269 53.0661 139.161 53.1243 139.053C53.1826 138.945 53.2435 138.839 53.3072 138.735C53.3707 138.63 53.4368 138.527 53.5056 138.426C54.8613 136.42 56.7528 135.569 59.0559 135.097Z" fill="#002548"/>
<path d="M59.2335 137.209C60.3797 137.181 61.4683 137.337 62.4666 137.937C62.6108 138.022 62.7505 138.114 62.8856 138.212C63.0207 138.311 63.1507 138.416 63.2755 138.528C63.4002 138.639 63.5193 138.756 63.6325 138.879C63.7457 139.003 63.8528 139.131 63.9535 139.264C64.054 139.398 64.1479 139.536 64.2351 139.679C64.3222 139.822 64.4021 139.968 64.4748 140.119C64.5476 140.27 64.6128 140.424 64.6704 140.581C64.728 140.738 64.7779 140.897 64.8199 141.059C65.2009 142.498 65.0329 144.025 64.2575 145.31C63.3171 146.867 61.9672 147.492 60.2714 147.887C59.0554 147.915 58.03 147.804 56.9501 147.166C56.8031 147.079 56.6608 146.985 56.5231 146.885C56.3854 146.783 56.2531 146.676 56.126 146.562C55.9992 146.448 55.8782 146.327 55.763 146.201C55.648 146.075 55.5395 145.944 55.4373 145.807C55.3354 145.67 55.2405 145.528 55.1526 145.382C55.0645 145.236 54.984 145.086 54.911 144.931C54.8378 144.777 54.7725 144.619 54.7151 144.459C54.6578 144.298 54.6084 144.135 54.567 143.969C54.2192 142.529 54.4008 141.019 55.1931 139.755C56.1622 138.209 57.5418 137.609 59.2335 137.209Z" fill="#FFDD33"/>
<path d="M303.66 179.867C304.487 179.682 305.258 179.79 306.059 179.639C308.305 179.215 310.39 178.278 312.696 177.929C320.528 176.743 328.983 179.193 335.611 183.378C345.108 189.375 351.48 199.209 353.922 210.103C356.476 221.504 354.06 234.264 347.815 244.102C345.773 247.315 337.333 257.489 334.238 258.236C334.396 257.823 334.445 257.382 334.448 256.943L334.465 210.284L334.454 197.128C334.451 194.785 334.684 192.052 334.238 189.749C333.791 187.447 332.473 185.277 330.837 183.624C329.268 182.038 327.433 180.908 325.265 180.34C322.15 179.523 318.363 179.917 315.155 179.917L303.66 179.867Z" fill="#DAE6F1"/>
<path d="M125.418 88.1399C125.415 85.2076 125.133 81.9845 125.533 79.0916C125.901 82.3487 125.067 88.5211 125.759 91.1742C125.882 91.6427 126.194 91.9022 126.558 92.1926C126.999 92.5448 127.34 92.815 127.407 93.4136C127.454 93.834 127.532 94.4302 127.23 94.7459C126.079 95.9482 125.523 95.578 125.462 97.5455C125.309 102.475 125.455 107.45 125.479 112.384C121.883 112.274 118.255 112.384 114.656 112.396L94.2933 112.451C90.9075 112.458 85.3365 112.868 82.2061 112.246C79.9838 111.805 77.903 110.639 76.2566 109.099C76.1143 108.967 75.9754 108.831 75.8399 108.692C75.7044 108.552 75.5725 108.41 75.444 108.264C75.3155 108.119 75.1908 107.97 75.07 107.818C74.949 107.666 74.8319 107.511 74.7187 107.353C74.6055 107.195 74.4962 107.035 74.3908 106.871C74.2855 106.708 74.1845 106.542 74.0876 106.374C73.9907 106.206 73.8979 106.035 73.8095 105.862C73.7209 105.689 73.637 105.514 73.5573 105.337C73.4774 105.16 73.4021 104.981 73.3312 104.8C73.2607 104.619 73.1944 104.437 73.1325 104.253C73.0708 104.068 73.0138 103.883 72.9614 103.696C72.9088 103.509 72.861 103.321 72.8179 103.131C72.7749 102.942 72.7367 102.751 72.703 102.56C72.6695 102.369 72.6408 102.177 72.6169 101.984C72.5928 101.791 72.5737 101.598 72.5593 101.404C72.5449 101.211 72.5354 101.017 72.5308 100.823C72.4524 97.7606 73.724 94.7097 75.8627 92.5291C77.9086 90.4435 80.821 89.091 83.6685 88.5417C87.6336 87.7765 94.3234 88.1862 98.6216 88.1865L125.418 88.1399Z" fill="#D2D9DC"/>
<path d="M95.8683 93.1318C96.5062 93.2492 96.6835 93.278 97.1802 93.6814C97.655 94.6678 97.4165 96.067 97.38 97.1421C98.1738 97.1092 99.1298 96.9821 99.9074 97.136C100.539 97.2609 100.973 97.5688 101.305 98.0953L101.121 98.5342C99.9262 99.4141 98.7097 99.1909 97.314 99.1379C97.3828 100.404 97.6615 101.902 96.9074 102.998C96.3131 102.916 96.1333 102.916 95.6396 102.547C95.1516 101.519 95.3752 100.244 95.4199 99.1324C94.4688 99.1601 93.1647 99.3299 92.2619 99.0415C91.6978 98.8611 91.2944 98.6459 91.0117 98.1356L91.1871 97.7929C92.5837 96.9043 93.8354 97.0876 95.4105 97.1271C95.3607 95.8305 95.0872 94.25 95.8683 93.1318Z" fill="#002548"/>
<path d="M62.5744 262.951C55.5608 259.124 49.7228 252.586 45.4315 245.957C45.2224 245.633 45.0174 245.307 44.8164 244.977C44.6153 244.648 44.4185 244.317 44.2255 243.983C44.0325 243.649 43.8438 243.313 43.659 242.974C43.4741 242.636 43.2935 242.295 43.1171 241.952C42.9407 241.609 42.7684 241.264 42.6005 240.917C42.4326 240.57 42.2688 240.221 42.1093 239.87C41.95 239.519 41.7949 239.166 41.6439 238.811C41.493 238.456 41.3465 238.099 41.2045 237.741C41.0622 237.382 40.9246 237.022 40.7913 236.66C40.658 236.298 40.5289 235.935 40.4046 235.57C40.2801 235.205 40.16 234.838 40.0445 234.471C39.9288 234.103 39.8178 233.733 39.7113 233.363C39.6049 232.992 39.5031 232.62 39.4056 232.247C39.3081 231.874 39.2152 231.5 39.1269 231.125C39.0386 230.749 38.9549 230.373 38.8759 229.996C38.7968 229.618 38.7224 229.24 38.6524 228.861C38.5825 228.481 38.5173 228.101 38.4565 227.721C38.3959 227.34 38.3398 226.958 38.2886 226.576C38.2373 226.194 38.1906 225.811 38.1486 225.428C38.1067 225.045 38.0695 224.661 38.0368 224.277C38.0041 223.892 37.9763 223.508 37.9533 223.123C37.9301 222.738 37.9115 222.353 37.8977 221.968C37.8839 221.582 37.8748 221.197 37.8703 220.811C37.8659 220.426 37.8662 220.04 37.8712 219.654C37.8764 219.269 37.8862 218.884 37.9006 218.498C37.915 218.113 37.9341 217.728 37.9579 217.343C37.9817 216.958 38.0102 216.573 38.0434 216.189C38.0767 215.805 38.1146 215.421 38.1572 215.038C38.1998 214.655 38.2471 214.272 38.2989 213.89C38.3509 213.508 38.4077 213.127 38.4689 212.746C38.5301 212.365 38.5959 211.986 38.6665 211.607C38.7372 211.227 38.8122 210.849 38.892 210.472C41.2581 199.576 47.5107 189.534 56.9947 183.446C66.1401 177.577 76.4838 175.853 87.0531 178.166C83.6325 180.185 77.0623 187.021 73.7898 190.124C70.5944 193.153 65.796 197.155 63.1329 200.555C62.7975 200.983 62.6958 201.425 62.6523 201.958C62.4498 204.442 62.5579 206.998 62.5579 209.488L62.5633 222.493L62.5744 262.951Z" fill="#DAE6F1"/>
<path d="M318.301 102.168C319.104 101.247 319.352 99.1575 319.801 97.9673C320.214 96.8914 320.71 95.8553 321.29 94.8593C323.648 90.8804 327.207 89.1953 331.561 88.1191C331.564 88.1572 331.567 88.195 331.573 88.2331C331.627 88.6944 331.607 89.0782 331.521 89.5328C330.625 94.1818 327.547 98.5186 323.248 100.625C321.797 101.336 319.905 101.771 318.603 102.706C316.582 104.158 315.217 106.289 313.27 107.796C314.572 108.332 316.395 108.182 317.797 108.241C318.972 107.837 320.089 107.278 321.27 106.898C325.298 105.603 328.834 106.353 332.555 108.195C332.572 108.203 332.586 108.214 332.601 108.224C336.433 107.545 340.606 108.741 343.767 110.929C347.485 113.501 349.812 117.243 350.569 121.692C351.335 126.186 350.166 130.752 347.522 134.449C347.371 134.663 347.213 134.873 347.05 135.079C346.887 135.285 346.719 135.488 346.546 135.686C346.374 135.884 346.196 136.077 346.013 136.267C345.831 136.456 345.645 136.641 345.455 136.821C345.263 137.001 345.067 137.176 344.867 137.346C344.666 137.517 344.461 137.682 344.254 137.843C344.047 138.003 343.834 138.158 343.618 138.308C343.403 138.458 343.184 138.603 342.961 138.742C342.738 138.881 342.512 139.015 342.281 139.143C342.051 139.271 341.819 139.393 341.584 139.509C341.348 139.626 341.109 139.737 340.867 139.842C340.627 139.947 340.384 140.045 340.139 140.138C339.893 140.231 339.645 140.318 339.393 140.398C339.144 140.479 338.892 140.553 338.639 140.622C338.385 140.69 338.13 140.752 337.873 140.807C337.616 140.863 337.357 140.912 337.098 140.955C333.156 141.575 328.834 141.237 324.834 141.236C317.371 140.888 309.78 141.218 302.305 141.194C290.467 141.155 278.592 140.913 266.76 141.119L266.787 166.371C266.791 169.962 267.148 174.393 266.695 177.916C266.329 173.439 266.603 168.719 266.594 164.218L266.584 137.848L266.67 120.843C266.682 118.073 266.443 115.09 266.773 112.354C267.007 112.194 267.196 112.09 267.464 111.989C267.784 111.869 268.162 111.776 268.417 111.538C269.131 110.871 268.86 108.868 268.841 107.922C275.31 107.984 281.78 108.006 288.25 107.988C289.937 107.988 293.416 108.296 294.893 107.928C295.282 106.603 295.037 105.203 295.339 103.874C295.639 102.55 296.886 100.684 296.722 99.3951C298.844 100.575 300.615 103.679 301.277 105.949C301.467 106.598 301.617 107.146 301.458 107.819C302.374 108.01 308.119 108.203 308.697 107.829C309.17 108.277 309.639 108.879 309.628 109.57C309.628 109.634 309.619 109.698 309.616 109.763C309.653 109.726 309.694 109.693 309.728 109.654C310.189 109.126 310.111 108.61 310.034 107.966L312.369 108.014C313.147 107.639 317.84 102.935 318.301 102.168Z" fill="#D2D9DC"/>
<path d="M310.031 107.964L312.366 108.013C312.17 108.795 310.912 110.086 310.204 110.47C310.163 110.493 310.117 110.509 310.074 110.528C310.016 110.247 309.78 109.995 309.613 109.761C309.651 109.725 309.691 109.692 309.726 109.652C310.186 109.125 310.109 108.609 310.031 107.964Z" fill="#D2D9DC"/>
<path d="M127.378 76.9604C127.415 75.7236 127.714 73.5534 126.75 72.6152C126.657 72.5252 126.443 72.3583 126.346 72.2791C125.754 71.7959 125.679 71.4837 125.606 70.7387C125.452 69.1667 125.117 61.8273 125.938 60.7587C126.307 60.2778 127.055 60.0007 127.367 59.5691C127.554 59.3113 127.469 57.0647 127.468 56.606L127.433 45.504C127.407 38.1749 127.163 31.5426 133.828 26.7495C135.963 25.2145 138.41 24.2181 141.037 24.0016C143.607 23.7901 146.242 23.8876 148.82 23.8919L161.36 23.922L199.313 23.9217L235.184 23.9465L245.949 23.9466C248.13 23.9439 250.386 23.8163 252.553 24.0578C255.607 24.3982 258.463 25.5678 260.801 27.5753C264.355 30.6269 266.377 34.9229 266.712 39.5704C266.887 42.0062 266.78 44.5024 266.776 46.9439L266.742 62.6871C266.737 65.4876 266.601 68.3572 266.792 71.1464C267.463 71.5216 268.53 71.698 268.755 72.5182C269.15 73.9575 268.846 79.5734 268.846 81.424C268.843 90.2553 268.751 99.0955 268.838 107.926C268.857 108.873 269.128 110.875 268.414 111.542C268.159 111.781 267.781 111.873 267.461 111.993C267.193 112.094 267.004 112.198 266.77 112.359C266.441 115.094 266.68 118.078 266.667 120.847L266.581 137.853L266.591 164.223C266.6 168.724 266.326 173.444 266.692 177.92C267.145 174.398 266.788 169.966 266.785 166.375L266.757 141.123C278.589 140.917 290.464 141.16 302.302 141.198C309.777 141.223 317.368 140.892 324.831 141.24C322.974 141.493 320.973 141.377 319.095 141.371C315.542 141.36 311.986 141.29 308.433 141.324C310.483 142.795 311.781 147.36 312.184 149.764C313.25 156.118 311.208 162.616 307.494 167.771C307.121 168.287 306.734 168.79 306.33 169.281C305.925 169.772 305.505 170.249 305.069 170.713C304.635 171.177 304.186 171.626 303.722 172.061C303.259 172.496 302.782 172.916 302.29 173.32C301.799 173.724 301.295 174.112 300.779 174.484C300.264 174.856 299.737 175.211 299.198 175.549C298.66 175.887 298.111 176.207 297.551 176.51C296.992 176.812 296.424 177.097 295.846 177.363C294.187 178.129 292.445 178.705 290.787 179.471L290.816 179.633L291.792 179.919C295.743 179.909 299.708 179.968 303.658 179.873L315.153 179.923C318.361 179.923 322.148 179.529 325.263 180.345C327.432 180.913 329.266 182.044 330.835 183.63C332.471 185.283 333.79 187.453 334.236 189.754C334.682 192.057 334.449 194.791 334.452 197.134L334.463 210.29L334.446 256.949C334.443 257.388 334.394 257.829 334.236 258.241C334.821 259.997 333.844 262.608 333.044 264.182C332.186 265.867 330.72 268.005 328.99 268.878C331.904 268.901 350.773 268.541 351.706 269.354C351.896 269.52 351.887 269.532 352.005 269.718C351.928 270.176 351.821 270.345 351.412 270.605C350.246 271.346 347.545 270.946 346.163 270.937L109.066 270.94L57.925 270.966C54.678 270.966 42.798 271.412 40.6089 270.794C40.2401 270.69 39.9774 270.595 39.75 270.271C39.7756 269.909 39.8353 269.829 40.1067 269.572C40.5271 269.176 41.2272 268.941 41.7952 268.873C43.5934 268.657 45.7324 268.936 47.5692 268.939L62.5791 268.945L62.5736 262.956L62.5624 222.498L62.5569 209.493C62.5569 207.003 62.4489 204.446 62.6514 201.963C62.6949 201.43 62.7966 200.987 63.132 200.559C65.7949 197.16 70.5933 193.158 73.7888 190.128C77.0614 187.026 83.6316 180.19 87.0522 178.17C88.7896 177.845 90.0103 177.838 91.6637 178.528C91.1845 177.095 89.6316 175.847 88.6557 174.694C84.7945 170.135 80.2533 163.951 80.1211 157.742C80.0419 154.029 81.6611 150.443 84.2318 147.799C86.4271 145.54 89.4247 144.046 92.4852 143.377C96.7944 142.435 101.71 142.911 106.117 142.909C113.192 142.925 120.266 142.886 127.34 142.79L127.31 131.317C127.306 129.036 127.205 126.696 127.425 124.426C127.458 124.174 127.514 123.881 127.488 123.628C127.423 122.987 126.364 122.576 125.94 122.114C124.962 121.048 125.468 113.999 125.48 112.389C125.456 107.455 125.31 102.48 125.463 97.5505C125.524 95.583 126.08 95.9532 127.231 94.7509C127.533 94.4352 127.455 93.839 127.408 93.4186C127.341 92.82 127 92.5498 126.558 92.1976C126.194 91.9072 125.882 91.6477 125.76 91.1792C125.068 88.5261 125.902 82.3537 125.534 79.0965C125.833 78.0232 126.189 77.7271 127.106 77.1418C127.197 77.0827 127.287 77.0205 127.378 76.9604Z" fill="#002548"/>
<path d="M64.6445 247.34C66.5658 247.338 68.4999 247.382 70.4194 247.323L80.9599 247.351C82.7881 247.354 84.7188 247.474 86.5355 247.309L86.5876 247.448L86.3776 247.466C83.4826 247.709 72.1405 247.129 70.9892 247.51C70.8106 247.569 70.6745 247.716 70.5172 247.82C70.3153 248.289 70.3068 248.477 70.3882 248.981C70.704 249.373 70.8889 249.338 71.3704 249.393C75.3312 249.842 79.6312 248.832 83.5442 249.539C79.2088 249.774 74.7141 249.672 70.3722 249.573C68.4659 249.534 66.5596 249.532 64.6532 249.565L64.6445 247.34Z" fill="#0054A6"/>
<path d="M64.6016 229.629L68.3694 229.659C68.9122 229.739 69.9074 229.752 70.3188 230.11C70.6076 235.82 70.3511 241.601 70.4194 247.323C68.4999 247.382 66.5657 247.338 64.6445 247.34L64.6016 229.629Z" fill="#FEFEFE"/>
<path d="M64.8304 206.759C66.6413 206.768 68.5141 206.681 70.3168 206.816L70.3517 220.535C70.3592 222.819 70.2203 225.215 70.4119 227.487L70.5173 227.524C70.3364 228.238 70.3669 228.933 70.3796 229.663L68.3694 229.659L64.6016 229.629L64.6289 227.558L64.6569 206.85L64.8304 206.759Z" fill="#0054A6"/>
<path d="M70.4119 227.488L70.5173 227.524C70.3364 228.239 70.3669 228.933 70.3796 229.663L68.3694 229.659L64.6016 229.629L64.6289 227.558C66.5088 227.551 68.5537 227.705 70.4119 227.488Z" fill="#0054A6"/>
<path d="M279.381 192.323C279.368 191.34 279.403 190.407 279.643 189.448C280.284 186.883 281.831 184.699 284.112 183.337C285.338 182.604 286.742 182.07 288.17 181.927C290.98 181.644 321.569 181.606 323.303 182.027C325.661 182.08 328.031 183.468 329.635 185.143C331.198 186.78 332.572 189.204 332.385 191.55C332.359 191.858 332.235 192.129 332.108 192.405L315.974 192.356C313.227 192.347 310.325 192.525 307.604 192.254C304.675 192.574 301.427 192.313 298.467 192.315L279.381 192.323Z" fill="#FEFEFE"/>
<path d="M300.317 185.601C302.891 185.292 308.889 185.296 311.475 185.566C312.082 185.629 312.655 185.683 313.061 186.182C313.067 186.428 313.087 186.65 312.984 186.879C312.785 187.32 312.488 187.343 312.071 187.52C311.901 187.54 311.967 187.537 311.792 187.539C309.229 187.564 302.586 187.945 300.521 187.361C300.302 187.299 300.144 187.074 299.983 186.918C299.89 186.361 300.057 186.087 300.317 185.601Z" fill="#002548"/>
<path d="M64.6786 204.476L70.3242 204.47L70.3835 206.596C68.9645 206.561 66.0849 206.186 64.8338 206.759L64.6602 206.851L64.6786 204.476Z" fill="#002548"/>
<path d="M81.6672 237.182C84.0016 237.168 96.0153 236.694 97.2773 237.631C97.6041 237.873 97.5837 238.013 97.645 238.388C97.4224 238.812 97.2001 239.031 96.8293 239.33C94.4137 239.332 82.2685 239.895 81.0691 238.845C80.7567 238.571 80.7887 238.469 80.7734 238.084C81.0276 237.705 81.3122 237.466 81.6672 237.182Z" fill="#002548"/>
<path d="M279.296 255.868C281.168 255.561 283.221 255.713 285.121 255.715L295.339 255.734L332.087 255.734C332.908 257.553 332.401 260.57 331.696 262.395C330.76 264.828 329.006 267.065 326.582 268.146C324.546 269.054 322.337 268.925 320.16 268.886C316.109 269.066 311.991 268.922 307.934 268.91L291.112 268.917C287.713 268.89 284.785 268.166 282.353 265.651C279.646 262.851 279.251 259.576 279.296 255.868Z" fill="#FEFEFE"/>
<path d="M305.13 259.076C305.921 259.002 306.59 258.949 307.33 259.318C307.427 259.367 307.523 259.421 307.617 259.48C307.71 259.539 307.799 259.602 307.885 259.67C307.972 259.737 308.055 259.809 308.136 259.885C308.214 259.961 308.289 260.04 308.36 260.123C308.433 260.207 308.501 260.293 308.565 260.383C308.628 260.473 308.687 260.566 308.74 260.662C308.794 260.757 308.843 260.855 308.887 260.956C308.931 261.056 308.971 261.159 309.005 261.263C309.302 262.176 309.218 263.208 308.72 264.036C308.162 264.968 307.324 265.407 306.299 265.654C305.947 265.692 305.61 265.674 305.265 265.588C304.3 265.348 303.471 264.833 303.01 263.929C302.561 263.039 302.547 261.966 302.901 261.041C303.313 259.965 304.139 259.508 305.13 259.076Z" fill="#002548"/>
<path d="M81.733 258.452C84.3858 258.369 94.9859 257.977 96.7351 258.714C97.182 258.902 97.2908 259.085 97.4662 259.517C97.4104 260.028 97.194 260.224 96.8566 260.577C94.6213 260.55 82.607 260.923 81.4437 260.335C81.0872 260.155 81.0958 259.983 80.9844 259.628C81.1689 259.017 81.2717 258.901 81.733 258.452Z" fill="#002548"/>
<path d="M145.3 268.616C143.752 268.603 142.259 268.344 140.786 267.868C136.663 266.535 133.159 263.717 131.233 259.817C130.229 257.785 129.732 255.606 129.657 253.346C129.333 243.648 129.534 233.874 129.539 224.169L129.624 167.86L129.532 78.9915L129.518 52.7042C129.514 48.0868 129.232 43.2517 129.632 38.6602C129.683 38.0235 129.773 37.3925 129.904 36.7673C130.035 36.1422 130.205 35.5279 130.415 34.9245C131.561 31.6535 133.968 28.8332 137.115 27.3433C138.657 26.6137 140.151 26.3432 141.842 26.2548C148.509 25.9064 155.313 26.1498 161.993 26.1305L203.186 26.1347L235.302 26.2286C241.13 26.2348 247.2 25.9008 252.996 26.3336C254.114 26.4171 255.391 27.0205 256.448 27.4025C255.98 28.7144 255.061 29.9323 254.855 31.2975C254.842 31.384 254.825 31.4705 254.812 31.557C254.805 31.6094 254.8 31.662 254.795 31.7144C252.903 30.6511 251.377 30.0015 249.204 29.8438C243.745 29.4476 238.059 29.7971 232.571 29.7844L197.51 29.7573L162.378 29.7392C158.311 29.7357 146.736 29.2583 143.508 30.1823C139.984 31.1909 136.936 33.3106 135.139 36.5473C134.062 38.4879 133.646 40.4387 133.578 42.6392C133.397 48.4326 133.528 54.2602 133.535 60.0574L133.582 91.2243L133.667 182.534L133.701 232.549C133.709 236.465 133.253 249.318 134.071 252.178C134.96 255.287 137.178 258.75 139.86 260.606C140.951 263.586 143.314 266.195 145.3 268.616Z" fill="#0054A6"/>
<path d="M256.447 27.4031C260.032 29.2216 262.578 32.0546 263.822 35.905C265.321 40.5474 264.654 47.6872 264.629 52.6022L264.6 69.4346L264.525 143.215L264.523 226.37C264.46 234.959 264.881 243.65 264.556 252.224C264.455 254.872 264.02 257.172 262.795 259.545C260.743 263.521 257.365 266.439 253.084 267.781C248.653 269.171 241.401 268.558 236.585 268.555L219.991 268.544L171.358 268.542C162.68 268.547 153.975 268.413 145.299 268.616C143.313 266.195 140.95 263.586 139.859 260.606C141.849 262.005 143.789 262.922 146.232 263.176C151.606 263.734 158.498 263.304 164.042 263.293L198.587 263.296L232.254 263.357C237.115 263.367 244.524 263.838 249.122 263.119C252.741 262.554 256.135 260.154 258.247 257.204C258.438 256.935 258.619 256.661 258.792 256.38C258.964 256.1 259.126 255.813 259.279 255.522C259.432 255.23 259.575 254.934 259.708 254.633C259.841 254.331 259.964 254.026 260.076 253.717C260.189 253.407 260.291 253.094 260.382 252.778C260.473 252.461 260.554 252.142 260.624 251.82C260.694 251.499 260.753 251.175 260.801 250.849C260.849 250.523 260.886 250.197 260.912 249.868C261.28 244.588 261.06 239.152 261.069 233.857L261.136 206.781L260.982 114.701L261.05 61.2877L261.059 48.9806C261.07 46.0974 261.308 43.0623 260.806 40.2148C260.134 36.4003 257.872 33.8821 254.794 31.7153C254.8 31.6629 254.804 31.6103 254.812 31.5579C254.824 31.4713 254.841 31.3849 254.854 31.2984C255.06 29.9329 255.979 28.7149 256.447 27.4031Z" fill="#0054A6"/>
<path d="M266.757 141.118C278.589 140.913 290.464 141.155 302.302 141.194C309.777 141.218 317.368 140.888 324.831 141.235C322.974 141.488 320.973 141.373 319.095 141.366C315.542 141.355 311.986 141.285 308.433 141.319C310.483 142.79 311.781 147.355 312.185 149.76C313.25 156.114 311.208 162.612 307.494 167.767C307.121 168.282 306.734 168.785 306.33 169.276C305.925 169.767 305.505 170.244 305.069 170.708C304.636 171.172 304.186 171.621 303.722 172.056C303.259 172.491 302.782 172.911 302.291 173.315C301.799 173.719 301.295 174.107 300.779 174.479C300.264 174.851 299.737 175.206 299.198 175.544C298.66 175.882 298.111 176.202 297.551 176.505C296.992 176.808 296.424 177.092 295.846 177.358C294.187 178.125 292.445 178.701 290.787 179.466L290.816 179.628L291.792 179.914C290.77 179.851 289.744 179.791 288.719 179.868C288.516 179.882 288.313 179.901 288.112 179.925C287.91 179.949 287.709 179.978 287.509 180.012C287.308 180.046 287.109 180.084 286.91 180.128C286.712 180.172 286.514 180.22 286.318 180.274C286.122 180.328 285.927 180.386 285.734 180.449C285.541 180.512 285.349 180.58 285.159 180.652C284.969 180.725 284.781 180.802 284.595 180.884C284.409 180.965 284.225 181.052 284.043 181.143C283.861 181.234 283.682 181.329 283.504 181.429C283.327 181.528 283.153 181.632 282.981 181.74C282.808 181.849 282.639 181.961 282.473 182.078C282.306 182.195 282.143 182.315 281.982 182.44C281.822 182.565 281.664 182.693 281.51 182.826C281.356 182.958 281.205 183.094 281.057 183.234C280.91 183.374 280.766 183.518 280.625 183.665C280.485 183.812 280.348 183.962 280.215 184.116C278.818 185.747 277.771 187.935 277.473 190.071C277.029 193.247 277.326 196.791 277.324 200.017L277.296 219.046L277.25 245.584C277.243 250.04 276.956 254.68 277.309 259.112C277.646 263.326 279.547 266.102 282.668 268.793L256.633 268.79C258.154 267.97 259.531 267.048 260.797 265.864C263.489 263.347 265.468 259.921 266.223 256.309C266.871 253.208 266.66 249.85 266.664 246.691L266.667 234.282L266.691 196.905C266.692 190.586 266.499 184.229 266.692 177.915C267.145 174.393 266.788 169.961 266.785 166.37L266.757 141.118Z" fill="#DAE6F1"/>
<path d="M286.832 149.896C287.211 149.949 287.505 150.049 287.859 150.185C288.84 151.224 288.403 153.567 288.374 154.95C289.223 154.927 290.309 154.789 291.132 155.005C291.671 155.146 292.247 155.396 292.529 155.892L292.408 156.239C291.124 157.144 289.877 156.943 288.391 156.899C288.379 158.265 288.878 160.518 287.93 161.607C287.408 161.882 287.141 161.856 286.565 161.761C286.051 160.378 286.31 158.37 286.323 156.901C284.988 156.927 283.447 157.083 282.148 156.767C281.523 156.615 280.855 156.429 280.5 155.86C280.555 155.721 280.559 155.653 280.662 155.559C281.841 154.482 284.824 154.843 286.311 154.879C286.279 153.309 285.967 151.266 286.832 149.896Z" fill="#002548"/>
<path d="M127.424 124.42C127.692 128.453 127.55 132.591 127.56 136.635L127.588 158.132L127.593 224.306L127.576 245.074C127.568 248.758 127.2 252.776 127.794 256.405C128.382 259.999 130.498 263.564 133.232 265.943C134.598 267.133 136.154 268.022 137.719 268.917L116.081 268.878L116.112 223.036L116.111 211.194C116.108 207.89 116.447 204.219 115.615 201.017C115.289 199.76 94.53 180.917 91.6625 178.523C91.1834 177.089 89.6304 175.841 88.6546 174.689C84.7934 170.13 80.2522 163.945 80.12 157.737C80.0408 154.024 81.66 150.438 84.2307 147.793C86.426 145.535 89.4236 144.041 92.484 143.372C96.7932 142.429 101.709 142.906 106.116 142.903C113.191 142.92 120.265 142.88 127.338 142.785L127.309 131.311C127.305 129.031 127.204 126.691 127.424 124.42Z" fill="#DAE6F1"/>
<path d="M97.645 151.767C98.2183 151.704 98.817 151.65 99.3761 151.83C100.12 152.07 100.769 152.715 101.131 153.393C101.181 153.484 101.226 153.578 101.267 153.673C101.308 153.769 101.343 153.867 101.374 153.966C101.405 154.066 101.431 154.167 101.452 154.269C101.472 154.371 101.488 154.474 101.499 154.577C101.509 154.681 101.515 154.785 101.515 154.889C101.515 154.993 101.51 155.097 101.5 155.2C101.489 155.304 101.474 155.407 101.454 155.509C101.433 155.611 101.408 155.712 101.377 155.811C101.064 156.836 100.457 157.233 99.5561 157.686C99.1297 157.708 98.6989 157.706 98.2748 157.65C98.1704 157.637 98.067 157.618 97.9647 157.593C97.8622 157.569 97.7614 157.539 97.6621 157.505C97.5629 157.469 97.4657 157.429 97.3708 157.384C97.2756 157.339 97.1831 157.289 97.0936 157.233C97.004 157.178 96.9173 157.119 96.8339 157.055C96.7504 156.991 96.6706 156.922 96.5942 156.849C96.5181 156.777 96.4459 156.7 96.3779 156.62C96.3098 156.54 96.246 156.456 96.1867 156.369C95.7427 155.715 95.6165 154.946 95.7893 154.177C96.0507 153.012 96.7011 152.393 97.645 151.767Z" fill="#FEFEFE"/>
<path d="M105.681 151.773C106.221 151.715 106.775 151.649 107.309 151.779C108.058 151.961 108.729 152.515 109.12 153.169C109.576 153.933 109.681 154.794 109.457 155.652C109.157 156.801 108.429 157.317 107.464 157.874C107.082 157.89 106.697 157.9 106.316 157.857C105.418 157.758 104.629 157.387 104.075 156.656C104.014 156.576 103.958 156.494 103.907 156.408C103.855 156.323 103.809 156.235 103.767 156.144C103.725 156.054 103.688 155.961 103.656 155.867C103.624 155.772 103.598 155.676 103.576 155.579C103.555 155.481 103.539 155.383 103.528 155.284C103.517 155.185 103.512 155.085 103.512 154.985C103.512 154.886 103.517 154.786 103.528 154.687C103.539 154.588 103.555 154.489 103.577 154.392C103.847 153.112 104.639 152.431 105.681 151.773Z" fill="#FEFEFE"/>
<path d="M93.8355 158.502C96.2903 158.418 109.811 158.151 111.531 158.772C112.334 159.063 113.009 159.571 113.363 160.364C113.703 161.13 113.755 162.302 113.418 163.078C113.02 163.997 112.104 164.446 111.231 164.8C105.268 164.827 99.3048 164.816 93.3417 164.768C92.3799 164.224 91.593 163.622 91.2391 162.53C90.9792 161.726 90.9933 160.894 91.4148 160.148C91.9653 159.173 92.8219 158.807 93.8355 158.502Z" fill="#1661AC"/>
<path d="M288.569 214.491C294.512 214.173 300.617 214.437 306.577 214.429L315.561 214.445C317.099 214.441 318.674 214.305 320.209 214.41C320.839 214.453 321.404 214.562 321.962 214.87C322.239 215.225 322.423 215.428 322.311 215.903C322.164 216.531 321.798 216.603 321.277 216.848C321.239 216.867 321.202 216.891 321.162 216.906C320.701 217.078 293.72 217.146 290.112 216.992C289.55 216.968 288.787 216.967 288.298 216.675C287.935 216.458 287.941 216.279 287.828 215.898C287.944 215.275 288.171 214.975 288.569 214.491Z" fill="#C0E7E5"/>
<path d="M288.462 234.075C295.396 233.957 302.347 234.069 309.281 234.076C312.869 234.08 316.716 233.785 320.272 234.079C320.981 234.138 321.559 234.26 322.13 234.71C322.305 235.183 322.351 235.389 322.098 235.854C321.81 236.382 321.404 236.411 320.874 236.562C317.321 236.959 312.339 236.636 308.564 236.639L295.886 236.659C293.562 236.662 290.691 236.992 288.454 236.45C288.12 236.171 287.881 236.036 287.851 235.558C287.813 234.96 288.114 234.526 288.462 234.075Z" fill="#C0E7E5"/>
<path d="M288.499 209.509C295.283 209.276 302.142 209.483 308.935 209.485C312.387 209.486 318.722 209.078 321.898 209.762C322.241 210.299 322.31 210.398 322.313 211.027C322.037 211.546 321.821 211.691 321.297 211.948C320.251 212.313 290.909 212.352 288.66 211.949C288.173 211.57 288.052 211.486 287.824 210.92C287.888 210.27 288.087 210.005 288.499 209.509Z" fill="#C0E7E5"/>
<path d="M288.575 229.081C295.209 228.807 301.953 229.059 308.596 229.061L316.909 229.06C318.234 229.055 319.631 228.933 320.946 229.051C321.419 229.093 321.652 229.233 321.995 229.549C322.164 229.942 322.294 230.238 322.127 230.672C321.928 231.188 321.537 231.346 321.082 231.567C321.044 231.587 321.007 231.612 320.966 231.628C320.318 231.88 293.732 231.805 290.619 231.704C290.014 231.684 289.084 231.704 288.552 231.411C288.114 231.17 288.022 230.932 287.875 230.479C287.95 229.84 288.169 229.567 288.575 229.081Z" fill="#C0E7E5"/>
<path d="M139.862 260.602C137.18 258.745 134.962 255.282 134.073 252.174C133.255 249.314 133.711 236.461 133.703 232.544L133.669 182.53L133.584 91.2198L133.537 60.053C133.53 54.2558 133.399 48.4282 133.58 42.6347C133.648 40.4342 134.064 38.4835 135.141 36.5428C136.938 33.3061 139.986 31.1865 143.51 30.1779C146.738 29.2539 158.313 29.7313 162.38 29.7347L197.512 29.7529L232.573 29.78C238.061 29.7926 243.747 29.443 249.206 29.8393C251.379 29.997 252.905 30.6468 254.797 31.71C257.875 33.8767 260.137 36.3949 260.809 40.2094C261.311 43.0571 261.073 46.092 261.062 48.9753L261.052 61.2823L260.985 114.696L261.138 206.776L261.071 233.852C261.062 239.146 261.283 244.583 260.915 249.863C260.889 250.191 260.852 250.518 260.804 250.844C260.756 251.17 260.697 251.493 260.627 251.815C260.557 252.137 260.476 252.456 260.385 252.772C260.293 253.089 260.192 253.402 260.079 253.711C259.967 254.021 259.844 254.326 259.711 254.627C259.578 254.929 259.435 255.225 259.282 255.517C259.129 255.808 258.967 256.094 258.794 256.375C258.622 256.656 258.44 256.93 258.25 257.199C256.138 260.148 252.744 262.548 249.125 263.114C244.527 263.832 237.118 263.361 232.257 263.352L198.589 263.291L164.045 263.288C158.501 263.298 151.609 263.729 146.235 263.171C143.792 262.918 141.852 262.001 139.862 260.602Z" fill="#002548"/>
<path d="M135.605 49.7962L135.771 49.2739C137.249 48.7442 157.47 49.1021 160.394 49.1016L232.13 49.0949L249.865 49.1165C251.674 49.1102 257.208 48.7486 258.661 49.1707C258.788 49.2075 258.825 49.2486 258.916 49.3226C259.03 49.8552 259.046 50.3162 259.031 50.8596C257.596 51.3549 242.354 51.0176 239.753 51.0205L173.344 51.0305L148.638 50.9922C144.494 50.9868 140.267 51.207 136.135 50.9487C135.724 50.6476 135.735 50.2791 135.605 49.7962Z" fill="#FFDD33"/>
<path d="M145.107 31.8745C148.529 31.7303 151.987 31.8155 155.414 31.808L175.312 31.8365L222.734 31.8278L241.786 31.8414C244.17 31.8457 247.94 31.4923 250.131 32.0109C252.21 32.5033 254.421 33.6768 255.922 35.2044C259.233 38.5746 259.059 42.6526 258.992 47.0428L249.933 47.0033L135.707 47.0612C135.655 43.6446 135.391 40.3915 137.224 37.3422C139.015 34.3627 141.811 32.7219 145.107 31.8745Z" fill="#FEFEFE"/>
<path d="M183.527 38.1828C189.61 38.0905 195.706 38.1834 201.791 38.1684C203.811 38.1635 208.247 37.8469 209.901 38.2346C210.37 38.3445 210.467 38.5578 210.695 38.954C210.718 39.5405 210.626 39.785 210.317 40.28C204.694 40.417 199.039 40.2809 193.413 40.2921C190.547 40.2979 186.864 40.6481 184.102 40.2127C183.572 40.1291 183.448 40.0153 183.127 39.5943C183.078 38.9759 183.214 38.7096 183.527 38.1828Z" fill="#002548"/>
<path d="M135.605 49.7957C135.735 50.2786 135.724 50.6471 136.135 50.9481C140.267 51.2062 144.494 50.9861 148.638 50.9916L173.344 51.0299L239.753 51.0198C242.354 51.0169 257.596 51.3542 259.031 50.8589C258.942 56.1229 259.028 61.4026 259.027 66.6684L135.707 66.6514C135.702 61.058 135.907 55.3773 135.605 49.7957Z" fill="#839299"/>
<path d="M233.753 55.6629C234.264 55.6428 234.822 55.6033 235.324 55.7298C236.164 55.9409 236.971 56.5093 237.386 57.2761C237.822 58.0833 237.846 58.9919 237.574 59.8565C237.175 61.1257 236.343 61.7102 235.227 62.2851C234.776 62.3286 234.27 62.3323 233.825 62.2376C233.707 62.2111 233.59 62.1782 233.475 62.1392C233.359 62.1 233.246 62.0548 233.136 62.0034C233.026 61.952 232.919 61.8948 232.814 61.8319C232.71 61.7689 232.61 61.7005 232.513 61.6263C232.416 61.5525 232.324 61.4737 232.236 61.3899C232.148 61.306 232.064 61.2178 231.986 61.1249C231.907 61.0318 231.834 60.9349 231.766 60.8342C231.698 60.7333 231.635 60.629 231.578 60.5214C231.174 59.7465 231.13 58.8219 231.386 57.9935C231.772 56.7398 232.648 56.2034 233.753 55.6629Z" fill="#FEFEFE"/>
<path d="M246.378 55.6449C246.878 55.6406 247.415 55.6196 247.902 55.7427C248.763 55.9606 249.551 56.5237 250.005 57.2899C250.449 58.0413 250.522 58.9636 250.278 59.7937C249.892 61.1096 249.039 61.6998 247.895 62.2906C247.338 62.3366 246.697 62.3734 246.16 62.2063C245.35 61.9543 244.629 61.2967 244.25 60.5453C244.199 60.4438 244.153 60.3401 244.112 60.2342C244.071 60.1281 244.036 60.0204 244.005 59.9111C243.975 59.8015 243.95 59.6909 243.931 59.579C243.911 59.4669 243.897 59.3543 243.889 59.2411C243.88 59.1279 243.877 59.0145 243.88 58.9009C243.883 58.7873 243.891 58.6742 243.905 58.5613C243.918 58.4486 243.938 58.3366 243.962 58.2258C243.987 58.115 244.017 58.0057 244.053 57.8977C244.447 56.6958 245.303 56.1546 246.378 55.6449Z" fill="#FEFEFE"/>
<path d="M146.103 54.8831C149.393 54.8191 158.534 54.4791 161.276 55.0598C161.979 55.2086 162.3 55.387 162.69 55.9697C162.57 56.7219 162.118 57.0676 161.534 57.5253C159.129 57.5362 146.493 58.0679 145.342 56.8962C145.037 56.5865 145.086 56.4401 145.078 56.0321C145.34 55.5006 145.642 55.2469 146.103 54.8831Z" fill="#FFDD33"/>
<path d="M146.422 59.5467C149.759 59.473 153.11 59.5447 156.449 59.536C157.944 59.532 159.619 59.3299 161.084 59.5156C161.596 59.5807 161.901 59.7414 162.299 60.0585C162.557 60.5616 162.554 60.7975 162.458 61.3497C162.161 61.8458 161.924 61.99 161.407 62.2348C158.614 62.2195 155.817 62.1697 153.025 62.1939C151.034 62.2109 148.83 62.4171 146.867 62.1231C146.205 62.0241 145.692 61.8788 145.184 61.429C145.02 60.9036 145.016 60.7304 145.286 60.2351C145.517 59.8103 145.992 59.6811 146.422 59.5467Z" fill="#FFDD33"/>
<path d="M135.762 68.7034L258.983 68.7091L258.955 196.188L258.944 232.704L258.972 243.116C258.987 245.374 259.123 247.701 258.872 249.946C258.544 252.877 257.228 255.3 255.304 257.502C252.615 260.066 249.665 261.212 245.97 261.262C238.042 261.37 230.09 261.191 222.16 261.175L177.309 261.169L157.556 261.174C153.849 261.192 149.779 261.569 146.131 261.017C143.57 260.63 141.148 259.145 139.325 257.346C137.542 255.586 136.229 252.929 135.924 250.445C135.654 248.253 135.794 245.924 135.793 243.715L135.792 232.13L135.817 193.25L135.762 68.7034Z" fill="#FEFEFE"/>
<path d="M194.223 167.065C196.437 167.081 209.15 166.722 210.259 167.213C210.614 167.371 210.619 167.541 210.744 167.878C210.686 168.476 210.551 168.739 210.149 169.183C206.67 169.06 203.19 169.121 199.71 169.14C198.114 169.149 196.259 169.345 194.699 169.072C194.203 168.986 194.103 168.821 193.814 168.425C193.76 167.85 193.945 167.557 194.223 167.065Z" fill="#DAE6F1"/>
<path d="M194.27 114.724L203.821 114.687C205.599 114.682 207.487 114.559 209.251 114.781C209.935 114.867 210.158 114.942 210.579 115.468C210.548 116.053 210.405 116.214 210.102 116.703C207.83 116.934 196.432 117.089 194.512 116.708C194.078 116.622 193.972 116.416 193.74 116.067C193.718 115.467 193.931 115.202 194.27 114.724Z" fill="#DAE6F1"/>
<path d="M194.277 159.99L211.438 159.995C214.606 159.99 217.801 159.876 220.965 160C221.721 160.029 222.103 160.087 222.635 160.665C222.719 161.224 222.602 161.388 222.391 161.901C217.813 162.26 212.977 161.963 208.37 161.979C204.154 161.993 199.151 162.35 195.013 161.941C194.439 161.884 194.234 161.733 193.879 161.296C193.881 160.679 193.97 160.535 194.277 159.99Z" fill="#DAE6F1"/>
<path d="M194.413 107.473C197.865 107.684 219.673 107.291 221.001 107.936C221.345 108.103 221.354 108.266 221.477 108.601C221.378 109.158 221.172 109.363 220.772 109.751C215.447 109.821 210.114 109.76 204.788 109.757C201.351 109.756 197.821 109.915 194.397 109.662C193.956 109.376 193.897 109.342 193.668 108.837C193.763 108.205 193.992 107.942 194.413 107.473Z" fill="#DAE6F1"/>
<path d="M194.016 100.503C205.365 100.515 216.726 100.402 228.074 100.532C229.179 100.545 230.619 100.367 231.44 101.206C231.515 101.801 231.321 101.985 231.042 102.504C222.134 102.411 213.221 102.562 204.311 102.509C201.266 102.49 197.87 102.828 194.866 102.476C194.313 102.411 194.273 102.402 193.862 102.012C193.728 101.417 193.83 101.076 194.016 100.503Z" fill="#DAE6F1"/>
<path d="M194.788 153.146C203.774 153.388 212.821 153.149 221.812 153.13C225.699 153.122 229.973 152.767 233.806 153.333C234.121 153.826 234.135 153.859 234.084 154.44C233.721 154.874 233.642 154.915 233.101 155.089C226.638 155.275 220.121 155.057 213.65 155.079C207.82 155.1 201.889 155.39 196.072 155.138C195.157 155.098 194.411 155.132 193.758 154.417L193.789 153.929C194.134 153.445 194.241 153.39 194.788 153.146Z" fill="#DAE6F1"/>
<path d="M164.176 153.881C165.747 153.721 167.184 153.778 168.633 154.461C170.307 155.25 171.609 156.76 172.205 158.506C172.243 158.615 172.278 158.725 172.31 158.836C172.342 158.947 172.372 159.058 172.398 159.17C172.425 159.283 172.449 159.396 172.469 159.509C172.49 159.623 172.508 159.737 172.523 159.852C172.538 159.966 172.551 160.081 172.56 160.196C172.569 160.311 172.575 160.426 172.579 160.542C172.582 160.657 172.583 160.773 172.58 160.888C172.578 161.004 172.573 161.119 172.564 161.234C172.556 161.349 172.545 161.464 172.531 161.579C172.517 161.694 172.5 161.808 172.48 161.921C172.46 162.035 172.437 162.148 172.412 162.261C172.386 162.373 172.358 162.485 172.326 162.597C172.295 162.708 172.261 162.818 172.224 162.927C172.187 163.037 172.148 163.145 172.106 163.253C172.063 163.36 172.018 163.467 171.97 163.572C171.923 163.677 171.872 163.781 171.819 163.883C170.798 165.881 169.117 166.969 167.038 167.649C166.852 167.686 166.665 167.715 166.476 167.736C166.288 167.758 166.098 167.772 165.909 167.778C165.719 167.785 165.529 167.784 165.34 167.775C165.15 167.766 164.961 167.749 164.773 167.725C164.585 167.701 164.398 167.669 164.212 167.63C164.026 167.591 163.843 167.544 163.661 167.49C163.478 167.435 163.299 167.374 163.122 167.305C162.945 167.237 162.771 167.161 162.601 167.078C162.494 167.026 162.389 166.971 162.286 166.913C162.182 166.856 162.08 166.796 161.979 166.733C161.878 166.671 161.779 166.605 161.682 166.538C161.585 166.47 161.489 166.4 161.395 166.328C161.301 166.256 161.209 166.181 161.119 166.104C161.029 166.027 160.94 165.948 160.854 165.867C160.768 165.786 160.683 165.703 160.601 165.617C160.519 165.532 160.439 165.444 160.361 165.355C160.283 165.265 160.208 165.174 160.134 165.081C160.061 164.988 159.99 164.893 159.921 164.796C159.853 164.7 159.787 164.601 159.723 164.501C159.659 164.401 159.598 164.3 159.54 164.197C159.481 164.094 159.425 163.989 159.371 163.884C159.318 163.778 159.267 163.671 159.219 163.562C159.171 163.454 159.125 163.345 159.082 163.234C159.04 163.124 159 163.012 158.963 162.899C158.37 161.116 158.554 159.199 159.409 157.53C160.454 155.488 162.055 154.541 164.176 153.881Z" fill="#FFDD33"/>
<path d="M149.597 144.541C150.219 144.619 150.637 144.719 151.085 145.157C151.612 147.625 151.237 152.179 151.235 154.853L151.209 176.73L180.737 176.734L180.726 159.178C180.724 156.695 180.524 154.072 180.714 151.607C180.759 151.023 180.864 150.602 181.314 150.216C181.858 150.167 181.94 150.234 182.41 150.472C182.559 150.702 182.666 150.88 182.689 151.159C182.908 153.804 182.703 156.651 182.706 159.313L182.72 176.736L243.487 176.729L243.45 168.29L243.442 154.692C243.439 152.295 243.312 149.815 243.481 147.426C243.532 146.712 243.637 146.33 244.169 145.867L244.532 145.95C245.067 146.432 245.281 146.939 245.421 147.641C245.77 149.393 245.44 154.87 245.439 157.079L245.438 170.967C245.439 172.998 245.553 175.069 245.468 177.095C245.445 177.641 245.386 178.04 245.07 178.49C244.324 178.791 243.545 178.828 242.75 178.836C221.054 179.049 199.33 178.799 177.63 178.811L158.965 178.819C156.001 178.82 152.486 179.169 149.579 178.618C149.426 178.409 149.365 178.253 149.31 177.998C148.665 175.048 149.134 167.934 149.127 164.463L149.088 152.516C149.08 150.373 148.97 148.171 149.109 146.035C149.147 145.448 149.285 145.037 149.597 144.541Z" fill="#002548"/>
<path d="M164.66 88.9731C164.865 88.957 165.063 88.9374 165.268 88.9659C165.785 89.0385 183.892 101.636 184.34 102.36C184.513 102.639 184.519 102.991 184.384 103.29C184.263 103.559 184.039 103.776 183.764 103.867C182.892 104.153 181.504 103.19 180.727 102.779L180.726 124.726L243.392 124.7L243.4 92.2831L210.58 92.2681L200.525 92.2644C198.852 92.271 197.147 92.397 195.479 92.3065C194.705 92.2641 193.753 92.1418 193.121 91.6656C192.82 91.4386 192.885 91.4349 192.821 91.0973C192.867 91.0423 192.911 90.9854 192.96 90.9329C193.39 90.4719 194.27 90.3206 194.875 90.2556C196.538 90.0757 198.366 90.2464 200.048 90.2493L211.503 90.2628L233.423 90.2657C236.391 90.266 242.083 89.7868 244.733 90.5514C245.016 90.6332 245.119 90.5981 245.257 90.8651C245.665 91.6519 245.717 124.469 245.164 126.289C245.068 126.364 245.034 126.401 244.902 126.441C242.739 127.088 233.922 126.674 231.266 126.673L199.897 126.676L165.727 126.771L155.729 126.786C154.136 126.79 152.429 126.948 150.85 126.763C150.429 126.713 150.145 126.63 149.778 126.421C149.071 124.924 149.469 105.975 149.47 102.977C148.972 103.228 148.421 103.562 147.891 103.726C147.405 103.878 147.145 103.73 146.719 103.535C146.399 103.088 146.353 103.045 146.336 102.467C147.073 101.026 162.167 90.6612 164.66 88.9731Z" fill="#002548"/>
<path d="M165.016 94.1548C166.622 94.5435 176.204 100.716 178.657 102.043L178.662 124.72L170.455 124.707L170.53 109.119L165.491 109.12L159.567 109.124L159.549 124.745L151.613 124.74L151.623 102.694C155.796 99.6184 160.463 96.6298 165.016 94.1548Z" fill="#FEFEFE"/>
<path d="M149.669 199.757C154.179 199.623 158.729 199.744 163.242 199.745L189.326 199.73L224.974 199.706C230.822 199.71 236.69 199.61 242.536 199.728C243.253 199.742 244.521 199.645 245.105 200.034C245.382 200.808 245.448 201.646 245.468 202.463C245.633 209.256 245.416 216.094 245.433 222.893C245.442 226.302 245.788 232.243 245.399 235.299C245.324 235.892 245.196 236.025 244.804 236.442C223.22 236.199 201.618 236.362 180.032 236.368L161.388 236.388C157.437 236.393 153.414 236.578 149.483 236.168C149.349 235.924 149.287 235.744 149.234 235.467C148.864 233.522 149.066 231.286 149.072 229.301L149.104 218.433L149.084 207.098C149.08 205.149 148.947 203.096 149.137 201.159C149.192 200.592 149.344 200.222 149.669 199.757Z" fill="#002548"/>
<path d="M176.446 201.717L180.691 201.694L180.693 234.359C172.546 234.234 164.381 234.353 156.232 234.364L151.207 234.362L151.253 201.803L176.446 201.717Z" fill="#FEFEFE"/>
<path d="M164.582 210.671C166.174 210.565 167.581 210.76 168.979 211.568C169.084 211.629 169.186 211.693 169.287 211.759C169.388 211.825 169.487 211.893 169.584 211.964C169.682 212.035 169.778 212.109 169.871 212.185C169.965 212.26 170.057 212.338 170.147 212.418C170.237 212.498 170.325 212.581 170.411 212.666C170.497 212.75 170.581 212.837 170.662 212.925C170.744 213.014 170.823 213.105 170.9 213.198C170.977 213.29 171.052 213.384 171.125 213.481C171.197 213.577 171.267 213.675 171.335 213.775C171.403 213.875 171.468 213.977 171.53 214.08C171.593 214.183 171.653 214.287 171.711 214.393C171.768 214.499 171.823 214.607 171.875 214.715C171.927 214.824 171.976 214.934 172.023 215.045C172.07 215.156 172.114 215.268 172.155 215.382C172.196 215.495 172.234 215.609 172.27 215.725C172.305 215.84 172.338 215.956 172.368 216.073C172.395 216.184 172.42 216.295 172.442 216.407C172.464 216.518 172.484 216.631 172.501 216.744C172.518 216.856 172.532 216.969 172.543 217.083C172.554 217.196 172.563 217.31 172.568 217.424C172.574 217.538 172.577 217.652 172.577 217.766C172.577 217.88 172.575 217.994 172.57 218.108C172.564 218.222 172.556 218.335 172.545 218.449C172.535 218.562 172.521 218.675 172.505 218.788C172.488 218.901 172.469 219.014 172.447 219.126C172.426 219.238 172.401 219.349 172.374 219.46C172.347 219.571 172.317 219.68 172.284 219.79C172.252 219.899 172.216 220.008 172.179 220.115C172.141 220.223 172.1 220.329 172.057 220.435C172.014 220.54 171.969 220.645 171.921 220.748C171.873 220.852 171.822 220.954 171.769 221.055C171.716 221.156 171.661 221.255 171.602 221.354C170.401 223.361 168.618 224.221 166.426 224.773C165.019 224.92 163.446 224.576 162.205 223.9C162.102 223.843 162 223.784 161.9 223.723C161.8 223.661 161.702 223.597 161.605 223.53C161.508 223.463 161.413 223.394 161.319 223.323C161.226 223.252 161.134 223.178 161.044 223.102C160.955 223.026 160.867 222.948 160.781 222.868C160.695 222.788 160.611 222.705 160.529 222.621C160.448 222.536 160.368 222.45 160.291 222.362C160.213 222.273 160.138 222.183 160.065 222.09C159.992 221.998 159.922 221.904 159.854 221.808C159.785 221.713 159.72 221.615 159.656 221.516C159.593 221.417 159.532 221.317 159.474 221.215C159.416 221.112 159.36 221.009 159.307 220.904C159.254 220.799 159.203 220.693 159.155 220.585C159.108 220.478 159.063 220.37 159.02 220.26C158.978 220.15 158.938 220.04 158.901 219.928C158.864 219.816 158.831 219.704 158.799 219.591C158.306 217.758 158.663 215.798 159.615 214.172C160.766 212.205 162.435 211.248 164.582 210.671Z" fill="#839299"/>
<path d="M182.691 201.758L243.386 201.781C243.486 212.624 243.474 223.51 243.325 234.352L182.742 234.364L182.691 201.758Z" fill="#FEFEFE"/>
<path d="M194.369 224.495C197.614 224.516 200.859 224.519 204.105 224.503C206.068 224.492 208.118 224.369 210.072 224.549C210.66 224.603 210.986 224.699 211.367 225.155C211.402 225.754 211.291 225.871 211.01 226.383C208.47 226.515 205.869 226.412 203.321 226.415C200.715 226.419 198.053 226.531 195.453 226.402C194.725 226.366 194.552 226.384 194.065 225.845C194.025 225.22 194.099 225.069 194.369 224.495Z" fill="#DAE6F1"/>
<path d="M194.387 217.388C200.485 217.265 206.608 217.464 212.708 217.508C215.552 217.529 218.827 217.197 221.628 217.592C222.047 217.651 222.236 217.854 222.483 218.186C222.479 218.823 222.344 218.981 222.035 219.521C216.696 219.908 210.517 219.511 205.086 219.505C202.619 219.501 196.721 219.852 194.773 219.424C194.323 219.326 194.235 219.152 194.002 218.776C193.962 218.167 194.038 217.89 194.387 217.388Z" fill="#DAE6F1"/>
<path d="M194.174 210.448C202.605 210.156 211.129 210.459 219.57 210.448L228.686 210.436C230.102 210.435 231.759 210.276 233.143 210.524C233.607 210.607 233.725 210.739 234.003 211.106C234.05 211.64 233.887 211.893 233.618 212.345L207.577 212.41C204.024 212.416 198.425 212.756 195.052 212.362C194.509 212.298 194.383 212.241 193.986 211.868C193.838 211.314 193.986 210.975 194.174 210.448Z" fill="#DAE6F1"/>
<path fill-rule="evenodd" clip-rule="evenodd" d="M101.234 183.393V186.729H89.7148V268.524H116.046V267.941V186.729V183.393H101.234Z" fill="#0062BA"/>
<path d="M125.288 166.295C124.707 166.353 124.187 166.343 123.684 166.334C122.731 166.313 121.829 166.295 120.956 166.839C120.108 167.367 119.823 168.625 119.787 169.283C119.769 169.626 119.791 169.934 119.807 170.204C119.846 170.738 119.855 171.029 119.677 171.297C119.438 171.662 118.829 171.99 118.131 171.916C118.025 171.904 117.919 171.883 117.818 171.856C117.079 171.644 116.006 170.484 115.3 169.717C115.191 169.6 115.088 169.489 114.994 169.387C114.788 169.169 114.585 168.932 114.369 168.679C113.581 167.759 112.766 166.805 111.676 166.576C111.497 166.538 111.312 166.51 111.113 166.488C110.549 166.43 109.965 166.436 109.286 166.445C108.826 166.451 108.349 166.46 107.819 166.444H107.798L67.698 166.531C67.5345 166.533 67.3724 166.526 67.2132 166.51C65.0928 166.284 63.4831 164.506 63.4658 162.369L63.3283 146.952C63.3073 144.641 65.1746 142.741 67.4867 142.721L124.79 142.492C124.953 142.491 125.117 142.499 125.277 142.516C127.396 142.743 129.005 144.521 129.022 146.654L129.164 162.071C129.181 164.197 127.603 166 125.497 166.267L125.288 166.295Z" fill="#0054A6"/>
<path d="M72.9983 163.069H72.9969C71.1137 163.069 69.5822 161.537 69.5815 159.656L69.5742 150.207C69.5742 149.295 69.9273 148.437 70.574 147.791C71.2194 147.145 72.0752 146.789 72.9882 146.788L89.378 146.778C91.2604 146.778 92.7941 148.31 92.7941 150.192L92.8021 159.641C92.8021 160.553 92.4469 161.411 91.8023 162.056C91.157 162.702 90.3011 163.057 89.3874 163.058L72.9983 163.069ZM89.3809 148.586L72.9896 148.596C72.5585 148.596 72.1562 148.763 71.8516 149.068C71.5492 149.373 71.3821 149.776 71.3821 150.205L71.3886 159.654C71.3894 160.54 72.1114 161.261 72.9976 161.261L89.3874 161.25C89.8171 161.25 90.2194 161.083 90.5239 160.779C90.8278 160.475 90.9927 160.07 90.9927 159.643L90.9884 150.194C90.9862 149.307 90.2657 148.586 89.3809 148.586Z" fill="white"/>
<path d="M81.3876 156.715C81.1865 156.715 80.9861 156.647 80.8219 156.513L71.1833 148.723C70.7955 148.409 70.7348 147.841 71.048 147.452C71.3627 147.064 71.9314 147.004 72.3191 147.318L81.3985 154.656L90.4597 147.578C90.8525 147.271 91.4204 147.341 91.7279 147.734C92.0347 148.127 91.9645 148.696 91.5716 149.003L81.9454 156.523C81.7804 156.65 81.5851 156.715 81.3876 156.715Z" fill="white"/>
<path d="M96.1614 152.805C95.663 152.805 95.2578 152.401 95.2578 151.902C95.2578 151.404 95.6622 150.999 96.16 150.999L122.013 150.982C122.512 150.982 122.917 151.386 122.917 151.885C122.917 152.383 122.512 152.789 122.013 152.79L96.1629 152.805H96.1614Z" fill="white"/>
<path d="M96.1668 158.146C95.6676 158.146 95.2617 157.742 95.2617 157.244C95.2617 156.745 95.6669 156.34 96.1653 156.34L109.574 156.331C110.072 156.331 110.479 156.735 110.479 157.233C110.479 157.733 110.074 158.138 109.574 158.138L96.1668 158.146Z" fill="white"/>
<path fill-rule="evenodd" clip-rule="evenodd" d="M330.763 105.193V27.7068L283.245 37.239V142.634H279.707V268.784H283.245H301.923H310.975H330.763H335.662V105.193H330.763Z" fill="#0062BA"/>
<path d="M297.657 262.352L302.431 264.442C302.617 264.234 302.804 264.025 302.987 263.806C303.408 263.291 303.796 262.758 304.149 262.214L300.926 258.125C301.059 257.84 301.176 257.553 301.285 257.263L306.462 256.684C306.667 255.765 306.795 254.832 306.844 253.897L302 251.966C301.972 251.656 301.931 251.35 301.882 251.043L306.081 247.953C305.798 247.061 305.446 246.189 305.014 245.349L299.856 246.096C299.676 245.844 299.489 245.595 299.29 245.356L301.381 240.58C301.174 240.393 300.962 240.208 300.744 240.028C300.231 239.599 299.699 239.214 299.154 238.861L295.063 242.086C294.781 241.952 294.492 241.834 294.203 241.727L293.626 236.549C292.704 236.345 291.772 236.218 290.837 236.168L288.904 241.011C288.596 241.041 288.286 241.081 287.98 241.131L284.892 236.933C284 237.214 283.128 237.568 282.289 237.995L283.036 243.158C282.783 243.336 282.538 243.523 282.294 243.722L277.52 241.631C277.329 241.835 277.145 242.048 276.966 242.267C276.541 242.78 276.155 243.313 275.801 243.859L279.023 247.948C278.892 248.232 278.773 248.52 278.667 248.81L273.486 249.386C273.285 250.306 273.153 251.237 273.109 252.174L277.95 254.105C277.98 254.416 278.019 254.722 278.071 255.028L273.872 258.118C274.153 259.009 274.506 259.881 274.933 260.722L280.096 259.976C280.273 260.228 280.463 260.474 280.659 260.717L278.57 265.49C278.775 265.679 278.987 265.863 279.206 266.046C279.719 266.47 280.251 266.854 280.797 267.21L284.886 263.987C285.17 264.118 285.456 264.236 285.748 264.345L286.324 269.525C287.246 269.727 288.177 269.854 289.112 269.903L291.047 265.058C291.354 265.031 291.662 264.99 291.969 264.938L295.057 269.138C295.947 268.858 296.821 268.502 297.663 268.075L296.913 262.914C297.166 262.737 297.414 262.549 297.657 262.352ZM283.666 260.657C279.455 257.173 278.867 250.938 282.354 246.725C285.835 242.517 292.076 241.929 296.282 245.412C300.496 248.898 301.082 255.136 297.599 259.346C294.113 263.554 287.875 264.144 283.666 260.657Z" fill="white"/>
<path d="M292.446 96.3145H290.262V268.568H292.446V96.3145Z" fill="#D2D9DC"/>
<path d="M300.583 96.3145H298.398V268.568H300.583V96.3145Z" fill="#D2D9DC"/>
<path d="M308.72 96.3145H306.535V268.568H308.72V96.3145Z" fill="#D2D9DC"/>
<path d="M316.861 96.3145H314.676V268.568H316.861V96.3145Z" fill="#D2D9DC"/>
<path d="M324.997 96.3145H322.812V268.568H324.997V96.3145Z" fill="#D2D9DC"/>
</svg>
