<svg width="64" height="64" viewBox="0 0 64 64" fill="none" xmlns="http://www.w3.org/2000/svg">
<path d="M19 20.7H63.7V57.5C63.7 58.7 62.7 59.7 61.5 59.7H21.2C20 59.7 19 58.7 19 57.5V20.7Z" fill="#D2D9DC"/>
<path d="M61.1 15H21.6C20.2 15 19 16.2 19 17.6V20.7H63.7V17.6C63.7 16.1 62.6 15 61.1 15Z" fill="#002548"/>
<path d="M25.6953 32.4001C23.8953 33.6001 21.7953 34.4001 19.4953 34.4001C17.1953 34.4001 14.9953 33.6001 13.1953 32.4001L7.19531 38.4001C10.4953 41.2001 14.7953 42.8001 19.4953 42.8001C24.0953 42.8001 28.3953 41.2001 31.6953 38.4001L25.6953 32.4001Z" fill="#FFDD33"/>
<path d="M30.7953 42.2H28.9953C27.9953 42.2 27.1953 43 27.1953 44V56.7H32.5953V44C32.5953 43 31.7953 42.2 30.7953 42.2Z" fill="#54CC5A"/>
<path d="M51.6984 42.2H53.4984C54.4984 42.2 55.2984 43 55.2984 44V56.7H49.8984V44C49.8984 43 50.6984 42.2 51.6984 42.2Z" fill="#54CC5A"/>
<path d="M42.1938 46.6001H40.3938C39.3938 46.6001 38.5938 47.4001 38.5938 48.4001V56.7001H43.9938V48.4001C43.8938 47.4001 43.1938 46.6001 42.1938 46.6001Z" fill="#54CC5A"/>
<path d="M58.2953 57.3001H24.2953C23.8953 57.3001 23.6953 57.0001 23.6953 56.7001C23.6953 56.4001 23.9953 56.1001 24.2953 56.1001H58.2953C58.6953 56.1001 58.8953 56.4001 58.8953 56.7001C58.8953 57.0001 58.5953 57.3001 58.2953 57.3001Z" fill="#0054A6"/>
<path d="M58.9969 27.1001C57.9969 27.1001 57.1969 27.9001 57.1969 28.9001C57.1969 29.1001 57.1969 29.3001 57.2969 29.4001L52.7969 31.7001C52.4969 31.2001 51.8969 30.9001 51.2969 30.9001C50.6969 30.9001 50.0969 31.2001 49.7969 31.7001L45.2969 29.4001C45.2969 29.2001 45.3969 29.1001 45.3969 28.9001C45.3969 27.9001 44.5969 27.1001 43.5969 27.1001C42.5969 27.1001 41.7969 27.9001 41.7969 28.9001C41.7969 29.9001 42.5969 30.7001 43.5969 30.7001C44.0969 30.7001 44.5969 30.5001 44.8969 30.2001L49.4969 32.5001H49.5969C49.5969 32.6001 49.5969 32.7001 49.5969 32.8001C49.5969 33.8001 50.3969 34.6001 51.3969 34.6001C52.3969 34.6001 53.1969 33.8001 53.1969 32.8001C53.1969 32.7001 53.1969 32.6001 53.1969 32.5001H53.2969L57.8969 30.2001C58.1969 30.5001 58.6969 30.7001 59.1969 30.7001C60.1969 30.7001 60.9969 29.9001 60.9969 28.9001C60.7969 27.9001 59.9969 27.1001 58.9969 27.1001Z" fill="#0054A6"/>
<path d="M30.1984 25.4001C29.8984 27.0001 29.2984 28.5001 28.3984 29.8001L34.3984 35.8001C36.7984 32.9001 38.2984 29.3001 38.6984 25.4001H30.1984Z" fill="#FFDD33"/>
<path d="M10.5969 29.7001C9.39688 28 8.69687 25.8 8.69687 23.5C8.69687 17.5 13.5969 12.7 19.4969 12.7C24.7969 12.7 29.2969 16.6 30.0969 21.7001H38.5969C37.6969 11.9001 29.4969 4.30005 19.4969 4.30005C8.89688 4.30005 0.296875 12.9 0.296875 23.5C0.296875 28.1 1.89687 32.4001 4.59687 35.7001L10.5969 29.7001Z" fill="#0054A6"/>
<path d="M32.9936 16.6C32.8936 16.6 32.6936 16.6 32.5936 16.5C32.2936 16.3 32.1936 15.9 32.4936 15.6L37.1936 8.99995C37.2936 8.79995 37.4936 8.69995 37.6936 8.69995H46.8936C47.2936 8.69995 47.4936 8.99995 47.4936 9.29995C47.4936 9.69995 47.1936 9.89995 46.8936 9.89995H37.9936L33.4936 16.2C33.3936 16.5 33.1936 16.6 32.9936 16.6Z" fill="#839299"/>
<path d="M43.6953 7.39995H37.7953C37.3953 7.39995 37.1953 7.09995 37.1953 6.79995C37.1953 6.49995 37.4953 6.19995 37.7953 6.19995H43.6953C44.0953 6.19995 44.2953 6.49995 44.2953 6.79995C44.2953 7.09995 43.9953 7.39995 43.6953 7.39995Z" fill="#839299"/>
<path d="M49.5981 38.1999H40.6981C40.4981 38.1999 40.2981 38.0999 40.1981 37.8999L33.8981 29.1999C33.6981 28.8999 33.7981 28.4999 33.9981 28.2999C34.2981 28.0999 34.6981 28.1999 34.8981 28.3999L40.9981 36.7999H49.5981C49.9981 36.7999 50.1981 37.0999 50.1981 37.3999C50.1981 37.6999 49.9981 38.1999 49.5981 38.1999Z" fill="#839299"/>
<path d="M46.6016 40.7999H40.7016C40.3016 40.7999 40.1016 40.4999 40.1016 40.1999C40.1016 39.8999 40.4016 39.5999 40.7016 39.5999H46.6016C47.0016 39.5999 47.2016 39.8999 47.2016 40.1999C47.2016 40.4999 47.0016 40.7999 46.6016 40.7999Z" fill="#839299"/>
</svg>
