<svg width="114" height="114" viewBox="0 0 114 114" fill="none" xmlns="http://www.w3.org/2000/svg">
<path d="M16.0312 19.5938H97.9688C98.9136 19.5938 99.8197 19.9691 100.488 20.6372C101.156 21.3053 101.531 22.2114 101.531 23.1562V80.1562H12.4688V23.1562C12.4688 22.2114 12.8441 21.3053 13.5122 20.6372C14.1803 19.9691 15.0864 19.5937 16.0312 19.5938Z" fill="#00479B"/>
<path d="M19.5938 26.7188H94.4062V73.0312H19.5938V26.7188Z" fill="#FFCD00"/>
<path d="M89.0625 26.7188V37.4062C89.0625 44.9649 86.0598 52.214 80.715 57.5588C75.3703 62.9036 68.1212 65.9062 60.5625 65.9062H19.5938V73.0312H94.4062V26.7188H89.0625Z" fill="#EBBF00"/>
<path d="M8.90625 108.656H105.094C106.039 108.656 106.945 108.281 107.613 107.613C108.281 106.945 108.656 106.039 108.656 105.094V101.531H5.34375V105.094C5.34375 106.039 5.71908 106.945 6.38718 107.613C7.05528 108.281 7.96142 108.656 8.90625 108.656Z" fill="#004FAC"/>
<path d="M101.531 80.1562H12.4688L5.34375 101.531H44.5312H69.4688H108.656L101.531 80.1562Z" fill="#BCBEC0"/>
<path d="M101.531 80.1562H95.5943L96.8412 83.8969C97.3776 85.5037 97.5244 87.215 97.2695 88.8897C97.0146 90.5644 96.3652 92.1545 95.3749 93.5289C94.3847 94.9033 93.0819 96.0226 91.574 96.7946C90.0661 97.5665 88.3963 97.969 86.7023 97.9688H6.53184L5.34375 101.531H108.656L101.531 80.1562Z" fill="#A9ABAD"/>
<path d="M46.3125 94.4062L44.5312 101.531H69.4688L67.6875 94.4062H46.3125Z" fill="#6D6E71"/>
<path d="M5.34375 5.34375V33.8438H12.4688H19.5938H28.5L39.1875 44.5312V33.8438H48.0938V26.7188V19.5938V5.34375H5.34375Z" fill="#7ED63E"/>
<path d="M102.493 33.8438C102.182 34.8419 101.776 35.8081 101.282 36.7294L106.911 42.3581L99.3581 49.9106L93.7294 44.2819C92.8081 44.7763 91.8419 45.1819 90.8438 45.4931V53.4375H80.1562V45.4931C79.1581 45.1819 78.1919 44.7763 77.2706 44.2819L71.6419 49.9106L64.0894 42.3581L69.7181 36.7294C69.2237 35.8081 68.8181 34.8419 68.5069 33.8438H60.5625V23.1562H68.5069C68.8181 22.1581 69.2237 21.1919 69.7181 20.2706L64.0894 14.6419L71.6419 7.08938L77.2706 12.7181C78.1919 12.2237 79.1581 11.8181 80.1562 11.5069V3.5625H90.8438V11.5069C91.8419 11.8181 92.8081 12.2237 93.7294 12.7181L99.3581 7.08938L106.911 14.6419L101.282 20.2706C101.776 21.1919 102.182 22.1581 102.493 23.1562H110.438V33.8438H102.493Z" fill="#D80027"/>
<path d="M85.5 37.4062C90.4188 37.4062 94.4062 33.4188 94.4062 28.5C94.4062 23.5812 90.4188 19.5938 85.5 19.5938C80.5812 19.5938 76.5938 23.5812 76.5938 28.5C76.5938 33.4188 80.5812 37.4062 85.5 37.4062Z" fill="#F1F2F2"/>
<path d="M26.7188 57H32.0625V65.9062H26.7188V57Z" fill="#ED1C24"/>
<path d="M69.4688 58.7812H74.8125V65.9062H69.4688V58.7812Z" fill="#4E901E"/>
<path d="M80.1562 60.5625H85.5V65.9062H80.1562V60.5625Z" fill="#D80027"/>
<path d="M37.4062 53.4375H42.75V65.9062H37.4062V53.4375Z" fill="#006DF0"/>
<path d="M48.0938 42.75H53.4375V65.9062H48.0938V42.75Z" fill="#5EAC24"/>
<path d="M58.7812 53.4375H64.125V65.9062H58.7812V53.4375Z" fill="#FF9811"/>
<path d="M65.9062 85.5H69.4688V89.0625H65.9062V85.5Z" fill="#F1F2F2"/>
<path d="M16.0312 85.5H19.5938V89.0625H16.0312V85.5Z" fill="#F1F2F2"/>
<path d="M23.1562 85.5H26.7188V89.0625H23.1562V85.5Z" fill="#F1F2F2"/>
<path d="M30.2812 85.5H33.8438V89.0625H30.2812V85.5Z" fill="#F1F2F2"/>
<path d="M37.4062 85.5H40.9688V89.0625H37.4062V85.5Z" fill="#F1F2F2"/>
<path d="M73.0312 85.5H76.5938V89.0625H73.0312V85.5Z" fill="#F1F2F2"/>
<path d="M80.1562 85.5H83.7188V89.0625H80.1562V85.5Z" fill="#F1F2F2"/>
<path d="M87.2812 85.5H90.8438V89.0625H87.2812V85.5Z" fill="#F1F2F2"/>
<path d="M44.5312 85.5H48.0938V89.0625H44.5312V85.5Z" fill="#F1F2F2"/>
<path d="M51.6562 85.5H55.2188V89.0625H51.6562V85.5Z" fill="#F1F2F2"/>
<path d="M58.7812 85.5H62.3438V89.0625H58.7812V85.5Z" fill="#F1F2F2"/>
<path d="M94.4062 85.5H97.9688V89.0625H94.4062V85.5Z" fill="#F1F2F2"/>
<path d="M73.0312 92.625H83.7188V96.1875H73.0312V92.625Z" fill="#F1F2F2"/>
<path d="M87.2812 92.625H90.8438V96.1875H87.2812V92.625Z" fill="#F1F2F2"/>
<path d="M94.4062 92.625H97.9688V96.1875H94.4062V92.625Z" fill="#F1F2F2"/>
<path d="M16.0312 92.625H19.5938V96.1875H16.0312V92.625Z" fill="#F1F2F2"/>
<path d="M23.1562 92.625H26.7188V96.1875H23.1562V92.625Z" fill="#F1F2F2"/>
<path d="M30.2812 92.625H40.9688V96.1875H30.2812V92.625Z" fill="#F1F2F2"/>
<path d="M14.25 10.6875H12.4688C11.9963 10.6875 11.5433 10.8752 11.2092 11.2092C10.8752 11.5433 10.6875 11.9963 10.6875 12.4688C10.6875 12.9412 10.8752 13.3942 11.2092 13.7283C11.5433 14.0623 11.9963 14.25 12.4688 14.25H14.25C14.7224 14.25 15.1755 14.0623 15.5095 13.7283C15.8436 13.3942 16.0312 12.9412 16.0312 12.4688C16.0312 11.9963 15.8436 11.5433 15.5095 11.2092C15.1755 10.8752 14.7224 10.6875 14.25 10.6875Z" fill="#F1F2F2"/>
<path d="M14.25 17.8125H12.4688C11.9963 17.8125 11.5433 18.0002 11.2092 18.3342C10.8752 18.6683 10.6875 19.1213 10.6875 19.5938C10.6875 20.0662 10.8752 20.5192 11.2092 20.8533C11.5433 21.1873 11.9963 21.375 12.4688 21.375H14.25C14.7224 21.375 15.1755 21.1873 15.5095 20.8533C15.8436 20.5192 16.0312 20.0662 16.0312 19.5938C16.0312 19.1213 15.8436 18.6683 15.5095 18.3342C15.1755 18.0002 14.7224 17.8125 14.25 17.8125Z" fill="#F1F2F2"/>
<path d="M14.25 24.9375H12.4688C11.9963 24.9375 11.5433 25.1252 11.2092 25.4592C10.8752 25.7933 10.6875 26.2463 10.6875 26.7188C10.6875 27.1912 10.8752 27.6442 11.2092 27.9783C11.5433 28.3123 11.9963 28.5 12.4688 28.5H14.25C14.7224 28.5 15.1755 28.3123 15.5095 27.9783C15.8436 27.6442 16.0312 27.1912 16.0312 26.7188C16.0312 26.2463 15.8436 25.7933 15.5095 25.4592C15.1755 25.1252 14.7224 24.9375 14.25 24.9375Z" fill="#F1F2F2"/>
<path d="M21.375 14.25H40.9688C41.4412 14.25 41.8942 14.0623 42.2283 13.7283C42.5623 13.3942 42.75 12.9412 42.75 12.4688C42.75 11.9963 42.5623 11.5433 42.2283 11.2092C41.8942 10.8752 41.4412 10.6875 40.9688 10.6875H21.375C20.9026 10.6875 20.4495 10.8752 20.1155 11.2092C19.7814 11.5433 19.5938 11.9963 19.5938 12.4688C19.5938 12.9412 19.7814 13.3942 20.1155 13.7283C20.4495 14.0623 20.9026 14.25 21.375 14.25Z" fill="#F1F2F2"/>
<path d="M21.375 21.375H40.9688C41.4412 21.375 41.8942 21.1873 42.2283 20.8533C42.5623 20.5192 42.75 20.0662 42.75 19.5938C42.75 19.1213 42.5623 18.6683 42.2283 18.3342C41.8942 18.0002 41.4412 17.8125 40.9688 17.8125H21.375C20.9026 17.8125 20.4495 18.0002 20.1155 18.3342C19.7814 18.6683 19.5938 19.1213 19.5938 19.5938C19.5938 20.0662 19.7814 20.5192 20.1155 20.8533C20.4495 21.1873 20.9026 21.375 21.375 21.375Z" fill="#F1F2F2"/>
<path d="M21.375 28.5H40.9688C41.4412 28.5 41.8942 28.3123 42.2283 27.9783C42.5623 27.6442 42.75 27.1912 42.75 26.7188C42.75 26.2463 42.5623 25.7933 42.2283 25.4592C41.8942 25.1252 41.4412 24.9375 40.9688 24.9375H21.375C20.9026 24.9375 20.4495 25.1252 20.1155 25.4592C19.7814 25.7933 19.5938 26.2463 19.5938 26.7188C19.5938 27.1912 19.7814 27.6442 20.1155 27.9783C20.4495 28.3123 20.9026 28.5 21.375 28.5Z" fill="#F1F2F2"/>
</svg>
