<svg width="64" height="64" viewBox="0 0 64 64" fill="none" xmlns="http://www.w3.org/2000/svg">
<path d="M48.0096 14.7521V21.8667L59.7323 33.3121V62.4001H4.26562V33.3121L15.999 21.8667V14.7521L31.999 3.7334L48.0096 14.7521Z" fill="#F0C419"/>
<path d="M32 43.2002H39.4667V62.4002H32V43.2002Z" fill="#67B9CC"/>
<path d="M24.5352 43.2002H32.0018V62.4002H24.5352V43.2002Z" fill="#2FA8CC"/>
<path d="M27.7357 29.3335H23.469C22.8799 29.3335 22.4023 29.8111 22.4023 30.4002V34.6668C22.4023 35.2559 22.8799 35.7335 23.469 35.7335H27.7357C28.3248 35.7335 28.8023 35.2559 28.8023 34.6668V30.4002C28.8023 29.8111 28.3248 29.3335 27.7357 29.3335Z" fill="#2FA8CC"/>
<path d="M14.9349 37.8667H10.6682C10.0791 37.8667 9.60156 38.3443 9.60156 38.9334V43.2C9.60156 43.7891 10.0791 44.2667 10.6682 44.2667H14.9349C15.524 44.2667 16.0016 43.7891 16.0016 43.2V38.9334C16.0016 38.3443 15.524 37.8667 14.9349 37.8667Z" fill="#2FA8CC"/>
<path d="M14.9349 49.6001H10.6682C10.0791 49.6001 9.60156 50.0777 9.60156 50.6668V54.9334C9.60156 55.5225 10.0791 56.0001 10.6682 56.0001H14.9349C15.524 56.0001 16.0016 55.5225 16.0016 54.9334V50.6668C16.0016 50.0777 15.524 49.6001 14.9349 49.6001Z" fill="#2FA8CC"/>
<path d="M53.3353 37.8667H49.0686C48.4795 37.8667 48.002 38.3443 48.002 38.9334V43.2C48.002 43.7891 48.4795 44.2667 49.0686 44.2667H53.3353C53.9244 44.2667 54.402 43.7891 54.402 43.2V38.9334C54.402 38.3443 53.9244 37.8667 53.3353 37.8667Z" fill="#2FA8CC"/>
<path d="M53.3353 49.6001H49.0686C48.4795 49.6001 48.002 50.0777 48.002 50.6668V54.9334C48.002 55.5225 48.4795 56.0001 49.0686 56.0001H53.3353C53.9244 56.0001 54.402 55.5225 54.402 54.9334V50.6668C54.402 50.0777 53.9244 49.6001 53.3353 49.6001Z" fill="#2FA8CC"/>
<path d="M40.5345 29.3335H36.2678C35.6787 29.3335 35.2012 29.8111 35.2012 30.4002V34.6668C35.2012 35.2559 35.6787 35.7335 36.2678 35.7335H40.5345C41.1236 35.7335 41.6012 35.2559 41.6012 34.6668V30.4002C41.6012 29.8111 41.1236 29.3335 40.5345 29.3335Z" fill="#2FA8CC"/>
<path d="M27.7357 17.6001H23.469C22.8799 17.6001 22.4023 18.0777 22.4023 18.6668V22.9334C22.4023 23.5225 22.8799 24.0001 23.469 24.0001H27.7357C28.3248 24.0001 28.8023 23.5225 28.8023 22.9334V18.6668C28.8023 18.0777 28.3248 17.6001 27.7357 17.6001Z" fill="#2FA8CC"/>
<path d="M40.5345 17.6001H36.2678C35.6787 17.6001 35.2012 18.0777 35.2012 18.6668V22.9334C35.2012 23.5225 35.6787 24.0001 36.2678 24.0001H40.5345C41.1236 24.0001 41.6012 23.5225 41.6012 22.9334V18.6668C41.6012 18.0777 41.1236 17.6001 40.5345 17.6001Z" fill="#2FA8CC"/>
<path d="M41.6007 44.2666H22.4007C21.8115 44.2666 21.334 43.7891 21.334 43.2C21.334 42.6109 21.8115 42.1333 22.4007 42.1333H41.6007C42.1898 42.1333 42.6673 42.6109 42.6673 43.2C42.6673 43.7891 42.1898 44.2666 41.6007 44.2666Z" fill="#F29C1F"/>
<path d="M62.9333 63.4668H1.06667C0.477563 63.4668 0 62.9893 0 62.4002C0 61.8111 0.477563 61.3335 1.06667 61.3335H62.9333C63.5224 61.3335 64 61.8111 64 62.4002C64 62.9893 63.5224 63.4668 62.9333 63.4668Z" fill="#A56A43"/>
<path d="M53.3336 17.6001C52.9565 17.5961 52.5876 17.4891 52.2669 17.2907L32.0002 5.15208L11.7336 17.2907C10.7493 17.6965 9.61648 17.3144 9.07903 16.3953C8.54157 15.4763 8.76399 14.3017 9.60024 13.6427L30.9336 0.842747C31.6097 0.436532 32.4548 0.436532 33.1309 0.842747L54.4642 13.6427C55.2865 14.1413 55.6735 15.1284 55.4093 16.053C55.1452 16.9775 54.2951 17.6111 53.3336 17.6001Z" fill="#F29C1F"/>
<path d="M16 25.0666C15.9916 25.8204 15.5861 26.5138 14.9333 26.8906L4.26662 33.2906C3.74984 33.6016 3.12555 33.6793 2.54828 33.5045C1.97101 33.3297 1.49471 32.9187 1.23729 32.3733C0.791383 31.3387 1.19591 30.1343 2.17596 29.5786L16 21.3013V25.0666Z" fill="#E57E25"/>
<path d="M48 25.0666C48.0083 25.8204 48.4138 26.5138 49.0667 26.8906L59.7333 33.2906C60.2501 33.6016 60.8744 33.6793 61.4517 33.5045C62.0289 33.3297 62.5052 32.9187 62.7627 32.3733C63.2086 31.3387 62.804 30.1343 61.824 29.5786L48 21.3013V25.0666Z" fill="#E57E25"/>
</svg>
