<svg width="64" height="64" viewBox="0 0 64 64" fill="none" xmlns="http://www.w3.org/2000/svg">
<g clip-path="url(#clip0_18225_54348)">
<path d="M48 18.6729V13.3281L44.5193 12.176C44.2729 11.3677 43.949 10.5932 43.5573 9.85938L45.0359 6.74688C43.9958 5.28438 42.7167 4.00521 41.2542 2.9651L38.1417 4.44375C37.4078 4.05313 36.6339 3.72917 35.825 3.48177L34.6729 0H29.3271L28.175 3.48073L25.8583 4.44271L22.7458 2.96406C21.2833 4.00417 20.0042 5.28333 18.9641 6.74583L20.4427 9.85833L19.4807 12.175L16 13.3271V18.6719L19.4807 19.824L20.4427 22.1406L18.9641 25.2531C20.0042 26.7156 21.2833 27.9948 22.7458 29.0349L25.8583 27.5563L28.175 28.5182L29.3271 32H34.6719L35.824 28.5193C36.6323 28.2729 37.4068 27.949 38.1406 27.5573L41.2531 29.0359C42.7156 27.9958 43.9948 26.7167 45.0349 25.2542L43.5563 22.1417C43.9479 21.4078 44.2708 20.6339 44.5182 19.825L48 18.6729Z" fill="#F16565"/>
<path d="M40.8904 15.9999C40.8904 20.9087 36.9107 24.8884 32.0018 24.8884C27.093 24.8884 23.1133 20.9087 23.1133 15.9999C23.1133 11.091 27.093 7.11133 32.0018 7.11133C36.9107 7.11133 40.8904 11.091 40.8904 15.9999Z" fill="#BAC0C0"/>
<path d="M34.1224 17.0664C34.6036 16.4305 34.8214 15.5836 34.5505 14.6737C34.2911 13.8044 33.5646 13.1029 32.6839 12.8841C30.9151 12.4466 29.3344 13.7716 29.3344 15.4664C29.3344 16.069 29.5422 16.6196 29.8797 17.0664C28.6953 17.0664 27.7344 18.0263 27.7344 19.2117V23.7972C29.0005 24.4914 30.4542 24.8883 32.001 24.8883C33.5479 24.8883 35.0005 24.4914 36.2677 23.7972V19.2117C36.2677 18.0263 35.3068 17.0664 34.1224 17.0664Z" fill="#3584BE"/>
<path d="M63.9992 52.0054V47.195L60.8674 46.158C60.6456 45.4304 60.3534 44.733 60.0013 44.0726L61.3315 41.2715C60.3951 39.9554 59.2451 38.8044 57.9279 37.8679L55.1268 39.1981C54.4664 38.846 53.769 38.5549 53.0414 38.332L52.0044 35.2002H47.194L46.157 38.332L44.0716 39.1971L41.2695 37.8669C39.9534 38.8033 38.8023 39.9533 37.8669 41.2705L39.1971 44.0726L38.331 46.158L35.1992 47.195V52.0054L38.331 53.0424L39.1971 55.1278L37.8669 57.9288C38.8034 59.245 39.9534 60.396 41.2706 61.3325L44.0716 60.0023C44.732 60.3544 45.4294 60.6455 46.157 60.8684L47.194 64.0002H52.0044L53.0414 60.8684C53.769 60.6465 54.4664 60.3544 55.1268 60.0023L57.9279 61.3325C59.244 60.396 60.3951 59.246 61.3305 57.9299L60.0003 55.1288C60.3523 54.4684 60.6435 53.771 60.8664 53.0434L63.9992 52.0054Z" fill="#F1D656"/>
<path d="M57.6016 49.6001C57.6016 54.0183 54.0198 57.6001 49.6016 57.6001C45.1833 57.6001 41.6016 54.0183 41.6016 49.6001C41.6016 45.1819 45.1833 41.6001 49.6016 41.6001C54.0198 41.6001 57.6016 45.1819 57.6016 49.6001Z" fill="#BAC0C0"/>
<path d="M28.8 52.0054V47.195L25.6682 46.158C25.4464 45.4304 25.1542 44.733 24.8021 44.0726L26.1323 41.2715C25.1958 39.9554 24.0458 38.8044 22.7286 37.8679L19.9276 39.1981C19.2672 38.846 18.5698 38.5549 17.8422 38.332L16.8052 35.2002H11.9948L10.9578 38.332L8.8724 39.1971L6.07031 37.8669C4.75417 38.8033 3.60312 39.9533 2.66771 41.2705L3.99792 44.0726L3.13177 46.158L0 47.195V52.0054L3.13177 53.0424L3.99792 55.1278L2.66771 57.9288C3.60417 59.245 4.75417 60.396 6.07135 61.3325L8.8724 60.0023C9.53281 60.3544 10.2302 60.6455 10.9578 60.8684L11.9948 64.0002H16.8052L17.8422 60.8684C18.5698 60.6465 19.2672 60.3544 19.9276 60.0023L22.7286 61.3325C24.0448 60.396 25.1958 59.246 26.1312 57.9299L24.801 55.1288C25.1531 54.4684 25.4443 53.771 25.6672 53.0434L28.8 52.0054Z" fill="#3584BE"/>
<path d="M22.3984 49.6001C22.3984 54.0183 18.8167 57.6001 14.3984 57.6001C9.98021 57.6001 6.39844 54.0183 6.39844 49.6001C6.39844 45.1819 9.98021 41.6001 14.3984 41.6001C18.8167 41.6001 22.3984 45.1819 22.3984 49.6001Z" fill="#BAC0C0"/>
<path d="M13.5974 50.6665H15.1974C15.6391 50.6665 15.9974 51.0248 15.9974 51.4665C15.9974 51.9081 15.6391 52.2665 15.1974 52.2665H11.7307V54.3998H15.1974C16.8156 54.3998 18.1307 53.0847 18.1307 51.4665C18.1307 49.8482 16.8156 48.5331 15.1974 48.5331H13.5974C13.1557 48.5331 12.7974 48.1748 12.7974 47.7331C12.7974 47.2915 13.1557 46.9331 13.5974 46.9331H17.0641V44.7998H13.5974C11.9792 44.7998 10.6641 46.1149 10.6641 47.7331C10.6641 49.3514 11.9792 50.6665 13.5974 50.6665Z" fill="#888888"/>
<path d="M50.1333 44.7998H48V50.1331C48 50.7217 48.4781 51.1998 49.0667 51.1998H53.3333V49.0665H50.1333V44.7998Z" fill="#888888"/>
<path d="M51.1992 16H53.3326V18.1333H51.1992V16Z" fill="#888888"/>
<path d="M55.4648 16H57.5982V18.1333H55.4648V16Z" fill="#888888"/>
<path d="M55.4648 20.2666H57.5982V22.3999H55.4648V20.2666Z" fill="#888888"/>
<path d="M55.4648 24.5332H57.5982V26.6665H55.4648V24.5332Z" fill="#888888"/>
<path d="M55.4648 28.7998H57.5982V30.9331H55.4648V28.7998Z" fill="#888888"/>
<path d="M10.6641 16H12.7974V18.1333H10.6641V16Z" fill="#888888"/>
<path d="M6.39844 16H8.53177V18.1333H6.39844V16Z" fill="#888888"/>
<path d="M6.39844 20.2666H8.53177V22.3999H6.39844V20.2666Z" fill="#888888"/>
<path d="M6.39844 24.5332H8.53177V26.6665H6.39844V24.5332Z" fill="#888888"/>
<path d="M6.39844 28.7998H8.53177V30.9331H6.39844V28.7998Z" fill="#888888"/>
<path d="M30.9336 61.8667H33.0669V64H30.9336V61.8667Z" fill="#888888"/>
<path d="M26.6641 61.8667H28.7974V64H26.6641V61.8667Z" fill="#888888"/>
<path d="M35.1992 61.8667H37.3326V64H35.1992V61.8667Z" fill="#888888"/>
</g>
<defs>
<clipPath id="clip0_18225_54348">
<rect width="64" height="64" fill="white"/>
</clipPath>
</defs>
</svg>
