<svg width="100" height="100" viewBox="0 0 100 100" fill="none" xmlns="http://www.w3.org/2000/svg">
<path d="M1.9 80.8999H38.1C39.1 80.8999 40 81.6999 40 82.7999V87.3999C40 88.3999 39.2 89.2999 38.1 89.2999H1.9C0.9 89.2999 0 88.4999 0 87.3999V82.7999C0 81.7999 0.8 80.8999 1.9 80.8999Z" fill="#FFDD33"/>
<path d="M5.80039 72.6H42.0004C43.0004 72.6 43.9004 73.4 43.9004 74.5V79.1C43.9004 80.1 43.1004 81 42.0004 81H5.80039C4.80039 81 3.90039 80.2 3.90039 79.1V74.5C3.90039 73.4 4.80039 72.6 5.80039 72.6Z" fill="#FFDD33"/>
<path d="M1.9 64.2H38.1C39.1 64.2 40 65 40 66.1V70.7C40 71.7 39.2 72.6 38.1 72.6H1.9C0.9 72.6 0 71.8 0 70.7V66.1C0 65.1 0.8 64.2 1.9 64.2Z" fill="#FFDD33"/>
<path d="M96.2992 89.2999H60.0992C59.0992 89.2999 58.1992 88.4999 58.1992 87.3999V82.7999C58.1992 81.7999 58.9992 80.8999 60.0992 80.8999H96.2992C97.2992 80.8999 98.1992 81.6999 98.1992 82.7999V87.3999C98.0992 88.4999 97.2992 89.2999 96.2992 89.2999Z" fill="#FFDD33"/>
<path d="M92.2992 80.9H56.0992C55.0992 80.9 54.1992 80.1 54.1992 79V74.4C54.1992 73.4 54.9992 72.5 56.0992 72.5H92.2992C93.2992 72.5 94.1992 73.3 94.1992 74.4V79C94.1992 80.1 93.3992 80.9 92.2992 80.9Z" fill="#FFDD33"/>
<path d="M96.2992 72.6H60.0992C59.0992 72.6 58.1992 71.8 58.1992 70.7V66.1C58.1992 65.1 58.9992 64.2 60.0992 64.2H96.2992C97.2992 64.2 98.1992 65 98.1992 66.1V70.7C98.0992 71.7 97.2992 72.6 96.2992 72.6Z" fill="#FFDD33"/>
<path d="M92.6 64.1999H56.4C55.4 64.1999 54.5 63.3999 54.5 62.2999V57.6999C54.5 56.6999 55.3 55.7999 56.4 55.7999H92.6C93.6 55.7999 94.5 56.5999 94.5 57.6999V62.2999C94.4 63.3999 93.6 64.1999 92.6 64.1999Z" fill="#FFDD33"/>
<path d="M98.1 55.9H61.9C60.9 55.9 60 55.1 60 54V49.4C60 48.4 60.8 47.5 61.9 47.5H98.1C99.1 47.5 100 48.3 100 49.4V54C100 55 99.2 55.9 98.1 55.9Z" fill="#FFDD33"/>
<path opacity="0.19" d="M5.80039 72.6H42.0004C43.0004 72.6 43.9004 73.4 43.9004 74.5V79.1C43.9004 80.1 43.1004 81 42.0004 81H5.80039C4.80039 81 3.90039 80.2 3.90039 79.1V74.5C3.90039 73.4 4.80039 72.6 5.80039 72.6Z" fill="#2D2F31"/>
<path opacity="0.19" d="M96.2992 89.2999H60.0992C59.0992 89.2999 58.1992 88.4999 58.1992 87.3999V82.7999C58.1992 81.7999 58.9992 80.8999 60.0992 80.8999H96.2992C97.2992 80.8999 98.1992 81.6999 98.1992 82.7999V87.3999C98.0992 88.4999 97.2992 89.2999 96.2992 89.2999Z" fill="#2D2F31"/>
<path opacity="0.19" d="M96.2992 72.6H60.0992C59.0992 72.6 58.1992 71.8 58.1992 70.7V66.1C58.1992 65.1 58.9992 64.2 60.0992 64.2H96.2992C97.2992 64.2 98.1992 65 98.1992 66.1V70.7C98.0992 71.7 97.2992 72.6 96.2992 72.6Z" fill="#2D2F31"/>
<path opacity="0.19" d="M98.1 55.9H61.9C60.9 55.9 60 55.1 60 54V49.4C60 48.4 60.8 47.5 61.9 47.5H98.1C99.1 47.5 100 48.3 100 49.4V54C100 55 99.2 55.9 98.1 55.9Z" fill="#2D2F31"/>
<path d="M76.2008 47.5C86.3628 47.5 94.6008 39.262 94.6008 29.1C94.6008 18.9379 86.3628 10.7 76.2008 10.7C66.0387 10.7 57.8008 18.9379 57.8008 29.1C57.8008 39.262 66.0387 47.5 76.2008 47.5Z" fill="#FFDD33"/>
<path d="M40.9008 40.6999L41.2008 25.7999L26.3008 26.0999L23.1008 29.2999L27.0008 33.1999L9.30078 50.8999L16.1008 57.6999L33.8008 39.9999L37.7008 43.8999L40.9008 40.6999Z" fill="#54CC5A"/>
<path opacity="0.19" d="M78.9 31.8999C78.6 31.5999 78.3 31.2999 77.9 30.9999C77.6 30.8999 77.3 30.6999 77 30.5999V35.4999C77.3 35.4999 77.6 35.3999 77.9 35.2999C78.3 35.0999 78.7 34.8999 78.9 34.4999C79.2 34.1999 79.3 33.6999 79.3 33.1999C79.3 32.6999 79.2 32.1999 78.9 31.8999ZM74.8 22.9999C74.4 23.0999 74.1 23.3999 73.9 23.6999C73.7 23.9999 73.6 24.3999 73.6 24.8999C73.6 25.2999 73.7 25.6999 73.9 25.9999C74.1 26.2999 74.4 26.4999 74.7 26.7999C74.9 26.8999 75.1 26.9999 75.4 27.1999V22.8999C75.2 22.8999 75 22.8999 74.8 22.9999ZM74.8 22.9999C74.4 23.0999 74.1 23.3999 73.9 23.6999C73.7 23.9999 73.6 24.3999 73.6 24.8999C73.6 25.2999 73.7 25.6999 73.9 25.9999C74.1 26.2999 74.4 26.4999 74.7 26.7999C74.9 26.8999 75.1 26.9999 75.4 27.1999V22.8999C75.2 22.8999 75 22.8999 74.8 22.9999ZM78.9 31.8999C78.6 31.5999 78.3 31.2999 77.9 30.9999C77.6 30.8999 77.3 30.6999 77 30.5999V35.4999C77.3 35.4999 77.6 35.3999 77.9 35.2999C78.3 35.0999 78.7 34.8999 78.9 34.4999C79.2 34.1999 79.3 33.6999 79.3 33.1999C79.3 32.6999 79.2 32.1999 78.9 31.8999ZM78.9 31.8999C78.6 31.5999 78.3 31.2999 77.9 30.9999C77.6 30.8999 77.3 30.6999 77 30.5999V35.4999C77.3 35.4999 77.6 35.3999 77.9 35.2999C78.3 35.0999 78.7 34.8999 78.9 34.4999C79.2 34.1999 79.3 33.6999 79.3 33.1999C79.3 32.6999 79.2 32.1999 78.9 31.8999ZM73.9 23.6999C73.7 23.9999 73.6 24.3999 73.6 24.8999C73.6 25.2999 73.7 25.6999 73.9 25.9999C74.1 26.2999 74.4 26.4999 74.7 26.7999C74.9 26.8999 75.1 26.9999 75.4 27.1999V22.8999C75.2 22.8999 75 22.9999 74.8 23.0999C74.4 23.1999 74.1 23.3999 73.9 23.6999ZM76.2 14.3999C68.1 14.3999 61.5 20.9999 61.5 29.0999C61.5 37.1999 68.1 43.7999 76.2 43.7999C84.3 43.7999 90.9 37.1999 90.9 29.0999C90.9 20.9999 84.3 14.3999 76.2 14.3999ZM81.7 35.3999C81.3 36.1999 80.6 36.7999 79.7 37.1999C79 37.5999 78.1 37.7999 77.1 37.8999V39.7999H75.5V37.8999C74.7 37.7999 73.9 37.5999 73.2 37.2999C72.3 36.8999 71.5 36.1999 71 35.3999C70.5 34.5999 70.2 33.5999 70.2 32.4999H73.2C73.2 33.0999 73.4 33.5999 73.6 33.9999C73.9 34.3999 74.2 34.7999 74.7 35.0999C74.9 35.1999 75.2 35.2999 75.4 35.3999V29.9999C75.2 29.8999 74.9 29.7999 74.7 29.7999C73.3 29.2999 72.3 28.6999 71.6 27.9999C70.9 27.2999 70.6 26.2999 70.6 25.0999C70.6 24.0999 70.8 23.2999 71.3 22.5999C71.8 21.8999 72.4 21.2999 73.3 20.9999C74 20.6999 74.7 20.4999 75.5 20.4999V18.4999H77V20.4999C77.8 20.5999 78.5 20.7999 79.1 21.0999C79.9 21.4999 80.6 22.0999 81.1 22.7999C81.6 23.4999 81.8 24.3999 81.9 25.3999H78.8C78.8 24.8999 78.7 24.4999 78.4 24.1999C78.2 23.7999 77.9 23.4999 77.5 23.2999C77.4 23.1999 77.2 23.1999 77 23.0999V27.8999C77.2 27.9999 77.5 28.0999 77.7 28.1999C78.5 28.4999 79.3 28.7999 80 29.1999C80.7 29.5999 81.2 30.0999 81.7 30.6999C82.1 31.2999 82.3 32.0999 82.3 33.0999C82.3 33.7999 82.1 34.5999 81.7 35.3999ZM77.9 30.9999C77.6 30.8999 77.3 30.6999 77 30.5999V35.4999C77.3 35.4999 77.6 35.3999 77.9 35.2999C78.3 35.0999 78.7 34.8999 78.9 34.4999C79.2 34.1999 79.3 33.6999 79.3 33.1999C79.3 32.6999 79.2 32.1999 78.9 31.8999C78.7 31.4999 78.3 31.1999 77.9 30.9999ZM73.9 23.6999C73.7 23.9999 73.6 24.3999 73.6 24.8999C73.6 25.2999 73.7 25.6999 73.9 25.9999C74.1 26.2999 74.4 26.4999 74.7 26.7999C74.9 26.8999 75.1 26.9999 75.4 27.1999V22.8999C75.2 22.8999 75 22.9999 74.8 23.0999C74.4 23.1999 74.1 23.3999 73.9 23.6999ZM74.8 22.9999C74.4 23.0999 74.1 23.3999 73.9 23.6999C73.7 23.9999 73.6 24.3999 73.6 24.8999C73.6 25.2999 73.7 25.6999 73.9 25.9999C74.1 26.2999 74.4 26.4999 74.7 26.7999C74.9 26.8999 75.1 26.9999 75.4 27.1999V22.8999C75.2 22.8999 75 22.8999 74.8 22.9999ZM78.9 31.8999C78.6 31.5999 78.3 31.2999 77.9 30.9999C77.6 30.8999 77.3 30.6999 77 30.5999V35.4999C77.3 35.4999 77.6 35.3999 77.9 35.2999C78.3 35.0999 78.7 34.8999 78.9 34.4999C79.2 34.1999 79.3 33.6999 79.3 33.1999C79.3 32.6999 79.2 32.1999 78.9 31.8999ZM78.9 31.8999C78.6 31.5999 78.3 31.2999 77.9 30.9999C77.6 30.8999 77.3 30.6999 77 30.5999V35.4999C77.3 35.4999 77.6 35.3999 77.9 35.2999C78.3 35.0999 78.7 34.8999 78.9 34.4999C79.2 34.1999 79.3 33.6999 79.3 33.1999C79.3 32.6999 79.2 32.1999 78.9 31.8999ZM74.8 22.9999C74.4 23.0999 74.1 23.3999 73.9 23.6999C73.7 23.9999 73.6 24.3999 73.6 24.8999C73.6 25.2999 73.7 25.6999 73.9 25.9999C74.1 26.2999 74.4 26.4999 74.7 26.7999C74.9 26.8999 75.1 26.9999 75.4 27.1999V22.8999C75.2 22.8999 75 22.8999 74.8 22.9999ZM78.9 31.8999C78.6 31.5999 78.3 31.2999 77.9 30.9999C77.6 30.8999 77.3 30.6999 77 30.5999V35.4999C77.3 35.4999 77.6 35.3999 77.9 35.2999C78.3 35.0999 78.7 34.8999 78.9 34.4999C79.2 34.1999 79.3 33.6999 79.3 33.1999C79.3 32.6999 79.2 32.1999 78.9 31.8999Z" fill="#2D2F31"/>
</svg>
