<svg width="532" height="467" viewBox="0 0 532 467" fill="none" xmlns="http://www.w3.org/2000/svg">
<path d="M400.343 57.9971L67.3818 276.8L30.0371 301.337V295.693L65.35 273.023L400.343 57.9971Z" fill="url(#paint0_linear_14749_9581)"/>
<path d="M376.523 30.8525L51.9658 243.871L30.0371 258.264V252.992L50.4273 239.915L376.523 30.8525Z" fill="url(#paint1_linear_14749_9581)"/>
<path d="M531.999 181.116V466.999H24.9766V247.697V190.673H41.4093V219.722H62.3394L70.6194 233.283H79.0216V163.007H98.351V181.116H114.756V216.071H136.794V172.211H154.185V190.662H163.228L171.056 177.841H179.964V135.319H204.866V198.427H230.321V213.638H240.188V190.673H277.8V216.071H292.186V181.116H314.129V233.283H315.412V163.007H334.749V181.116H351.147V216.071H373.178V172.211H390.569V190.662H399.626L407.454 177.841H416.355V135.319H441.25V198.427H466.719V213.638H476.586V190.673H496.389V216.071H528.571V181.116H531.999Z" fill="url(#paint2_linear_14749_9581)"/>
<path d="M246.828 273.923L250.807 280.175L254.479 285.946C254.471 285.915 254.226 285.041 253.811 282.511C253.732 282.03 253.648 281.49 253.557 280.885C253.53 280.707 253.491 280.529 253.442 280.353C253.442 280.353 253.442 280.353 253.442 280.353C251.87 276.74 247.011 274.016 246.833 273.925C246.83 273.924 246.828 273.923 246.828 273.923Z" fill="#EDDAD3"/>
<path d="M253.426 280.309L253.426 280.309C253.426 280.309 253.638 280.747 253.812 282.509L252.374 280.344C252.374 280.344 249.804 276.671 248.924 275.716C248.043 274.76 246.834 273.924 246.834 273.924C246.834 273.924 251.889 276.346 253.426 280.309Z" fill="#FFCA55"/>
<g opacity="0.38">
<path d="M228.36 45.8236C228.36 45.8236 224.488 46.4884 224.488 49.0511C224.488 51.614 225.779 56.1175 225.779 56.1175L227.069 60.9428L230.84 64.1597L232.231 62.2505C232.231 62.2505 233.743 60.8953 235.135 60.7283C239.94 60.1516 239.974 58.7455 239.974 58.7455L244.168 56.4393C244.168 56.4393 245.781 53.2223 244.168 52.2573C242.555 51.2922 237.895 48.397 237.483 48.397C237.071 48.397 234.812 42.2849 234.812 42.2849L230.08 35.8516C230.08 35.8516 226.746 38.5184 227.392 40.2409C228.037 41.9634 229.005 42.6067 228.682 44.2153C228.36 45.8236 228.36 45.8236 228.36 45.8236Z" fill="#0054A6"/>
<path d="M322.003 134.358C322.003 171.708 306.858 205.519 282.341 230.043C280.542 222.66 280.266 218.267 277.65 214.089C274.956 209.785 260.637 189.3 260.637 189.3C260.637 189.3 240.634 187.947 237.929 186.868C235.225 185.799 221.171 184.721 221.171 184.721C221.171 184.721 211.986 177.17 209.822 169.08C207.659 161 209.242 164.932 215.221 156.146C217.975 152.116 215.221 156.146 223.335 146.448C231.448 136.74 229.235 138.29 230.996 136.652C233.012 134.779 245.403 136.741 245.403 136.741L250.006 135.839C250.006 135.839 251.717 135.662 261.178 129.739C270.638 123.807 282.528 128.661 293.346 126.768C304.154 124.885 306.859 123.807 316.585 120.845C318.463 120.277 319.909 119.767 321.158 119.237C321.718 124.209 322.003 129.249 322.003 134.358Z" fill="#0054A6"/>
<path d="M147.226 234.142C151.829 242.271 153.815 243.448 153.107 245.988C152.468 248.272 152.743 255.136 152.802 256.49C152.822 256.656 152.802 256.814 152.782 256.97C152.625 258.176 151.897 263.648 151.71 265.531C110.199 254.754 76.4182 224.905 60.3192 185.936C60.6042 182.132 60.9387 177.7 61.0471 176.268C61.0665 175.974 61.0373 175.68 60.9682 175.385C60.6929 174.327 60.0341 171.238 60.2208 166.393C60.4667 160.294 56.5427 159.892 56.6708 158.343C56.7886 156.794 54.3004 152.979 54.743 149.38C55.0578 146.85 52.4713 146.409 50.9077 146.37C50.819 146.37 50.7407 146.36 50.6618 146.35C50.3078 142.398 50.1309 138.398 50.1309 134.358C50.1309 93.33 68.413 56.558 97.2966 31.7002C95.3985 35.338 93.9235 39.6822 94.0021 44.2909C94.0219 45.1344 94.8578 46.0461 95.3201 46.7912C95.6841 47.4092 96.2644 47.8702 96.9623 48.0467C98.4965 48.4389 100.847 49.1938 101.663 49.4586C101.86 49.5174 102.056 49.5567 102.263 49.5763L113.73 50.5667C114.605 50.6354 115.471 50.2822 116.031 49.596L118.568 46.5461C120.879 43.7712 122.502 44.8892 123.328 45.9383C123.83 46.5757 124.577 46.958 125.393 46.9777L141.925 47.3503L146.262 47.6741C148.376 47.8209 150.235 49.1254 151.101 51.057L152.625 54.4106C153.707 56.8032 153.402 59.598 151.828 61.7061L143.371 73.13C143.174 73.3848 143.036 73.669 142.948 73.9732L138.847 87.8681C138.316 89.672 136.123 90.3881 134.618 89.241C132.159 87.3484 129.003 84.1516 127.783 79.6113C127.448 78.3171 125.433 78.7977 124.449 79.1113C124.065 79.2487 123.653 79.2878 123.249 79.239C121.39 78.9839 116.001 78.0819 112.972 75.9442C110.848 74.4439 109.205 72.0513 108.183 70.2864C107.455 69.0215 105.862 68.58 104.583 69.2667L92.3394 75.7777C91.179 76.3857 90.6383 77.7193 91.0317 78.9645C91.3659 80.0235 91.7398 81.1216 92.133 82.22C92.4183 83.0042 93.0573 83.6123 93.8541 83.8771C95.2212 84.3283 97.4438 85.2891 98.5451 85.7791C98.968 85.9655 99.3417 86.2597 99.6172 86.6423C100.729 88.1523 103.748 92.261 105.036 94.0262C105.695 94.9381 106.403 96.1148 107.022 97.1933C107.809 98.5565 109.589 98.9485 110.897 98.0659C112.677 96.8501 115.401 95.4869 118.794 95.3204C125.059 95.0165 118.794 95.3204 123.102 100.312C127.016 104.851 123.249 108.745 122.521 109.411C122.452 109.48 122.384 109.529 122.315 109.588L106.973 121.011C106.53 122.031 101.81 122.365 96.8829 127.15C91.9657 131.925 86.2715 131.504 83.3702 135.436C80.4692 139.368 77.4501 138.142 75.1686 140.81C72.8771 143.467 68.3925 139.162 67.9305 145.35C67.4582 151.537 69.2087 149.997 68.2747 152.773C66.2685 158.715 69.5824 161.304 70.0644 161.853C70.5464 162.402 70.0742 163.157 71.4313 167.795C72.7985 172.434 70.9201 171.6 72.7099 176.846C74.4996 182.092 78.935 182.484 80.3022 183.74C81.6593 184.995 82.0527 185.946 85.0521 187.633C88.0518 189.329 93.1262 183.936 96.7551 184.965C100.374 186.015 102.292 185.142 104.583 185.554C106.324 185.878 106.541 184.426 111.763 185.152C122.187 186.603 117.574 185.74 122.187 186.603C126.809 187.476 129.346 183.701 132.425 188.927C135.513 194.163 148.238 206.715 149.094 209.382C149.94 212.04 151.208 209.02 149.94 212.04C148.671 215.05 149.055 216.639 148.16 221.767C147.255 226.886 142.624 226.013 147.226 234.142Z" fill="#0054A6"/>
<path d="M314.351 89.4276C313.584 87.9962 312.659 86.535 311.587 85.6526C307.398 82.1813 307.398 84.9562 307.614 87.6433C308.057 93.2423 312.158 95.0366 309.296 96.6549C306.434 98.253 306.11 97.2921 303.523 92.3107C300.946 87.3195 304.497 84.7504 301.586 81.8476C298.694 78.9649 299.973 72.7478 293.531 75.523C287.07 78.3173 280.619 85.3876 283.206 88.604C285.782 91.8301 288.683 101.597 292.883 103.95C297.072 106.304 300.622 108.873 296.747 109.196C292.883 109.52 291.909 119.492 290.621 116.6C289.332 113.697 292.883 112.099 288.683 106.304C284.494 100.508 271.266 87.6433 269.005 87.6433C266.743 87.6433 259.977 87.9668 257.39 90.8597C254.813 93.7523 251.912 96.9001 251.263 98.5472C250.614 100.185 250.939 101.479 251.263 107.588C251.588 113.697 255.777 120.454 254.489 123.022C253.201 125.602 254.164 128.818 247.723 127.857C241.262 126.886 230.837 136.535 231.585 113.06C232.027 98.9883 233.837 96.9685 235.125 92.3107C236.423 87.6433 237.397 84.7504 235.459 79.9159C233.512 75.0914 235.774 63.8739 240.937 62.2461C246.1 60.6184 245.137 62.9224 249.001 62.2461C252.876 61.589 257.715 61.6968 259.977 58.7455C262.229 55.7936 264.815 53.8425 266.418 53.6954C268.041 53.5484 266.418 52.8813 269.329 53.6954C272.23 54.5096 276.429 54.98 276.744 53.2935C277.069 51.6167 275.456 50.0086 275.456 48.7139C275.456 47.6648 276.321 44.8797 278.229 43.909C277.452 39.1629 275.338 33.1129 269.644 31.6319C259.918 29.1216 252.709 22.3754 250.909 21.4338C249.1 20.4925 249.1 16.1877 247.3 14.7461C245.501 13.3045 228.556 11.1474 228.556 11.1474L217.03 6.47968L204.117 -0.00195312C255.413 6.78383 297.682 42.1045 314.351 89.4276Z" fill="#0054A6"/>
</g>
<path d="M299.186 41.1903C299.186 37.2315 295.968 34.0225 291.997 34.0225C288.027 34.0225 284.809 37.2315 284.809 41.1903C284.809 41.3272 284.813 41.4628 284.821 41.5976H284.809C284.809 47.0552 291.997 55.6079 291.997 55.6079C291.997 55.6079 299.186 47.0552 299.186 41.5976H299.174C299.181 41.4628 299.186 41.3272 299.186 41.1903ZM291.997 45.8342C289.425 45.8342 287.34 43.755 287.34 41.1903C287.34 38.6258 289.425 36.5466 291.997 36.5466C294.569 36.5466 296.655 38.6258 296.655 41.1903C296.654 43.755 294.569 45.8342 291.997 45.8342Z" fill="#ED1C24"/>
<path d="M242.497 157.925C242.497 153.966 239.278 150.757 235.308 150.757C231.338 150.757 228.119 153.966 228.119 157.925C228.119 158.062 228.124 158.197 228.131 158.332H228.119C228.119 163.79 235.308 172.343 235.308 172.343C235.308 172.343 242.497 163.79 242.497 158.332H242.484C242.492 158.197 242.497 158.062 242.497 157.925ZM235.308 162.569C232.736 162.569 230.651 160.489 230.651 157.925C230.651 155.36 232.736 153.281 235.308 153.281C237.88 153.281 239.965 155.36 239.965 157.925C239.965 160.489 237.88 162.569 235.308 162.569Z" fill="#4783BE"/>
<path d="M116.108 88.7218C116.108 84.763 112.89 81.5537 108.919 81.5537C104.949 81.5537 101.73 84.763 101.73 88.7218C101.73 88.8584 101.735 88.994 101.743 89.1291H101.73C101.73 94.5867 108.919 103.139 108.919 103.139C108.919 103.139 116.108 94.5867 116.108 89.1291H116.096C116.103 88.994 116.108 88.8584 116.108 88.7218ZM108.919 93.3658C106.347 93.3658 104.262 91.2865 104.262 88.7218C104.262 86.1571 106.347 84.0778 108.919 84.0778C111.491 84.0778 113.577 86.1571 113.577 88.7218C113.577 91.2865 111.491 93.3658 108.919 93.3658Z" fill="#ED1C24"/>
<path d="M85.1374 44.7335C85.1374 40.7747 81.9188 37.5654 77.9484 37.5654C73.9781 37.5654 70.7598 40.7747 70.7598 44.7335C70.7598 44.8701 70.7644 45.0057 70.7721 45.1408H70.7598C70.7598 50.5982 77.9484 59.1511 77.9484 59.1511C77.9484 59.1511 85.1374 50.5982 85.1374 45.1408H85.1251C85.1328 45.0057 85.1374 44.8701 85.1374 44.7335ZM77.9484 49.3775C75.3765 49.3775 73.2912 47.2982 73.2912 44.7338C73.2912 42.1691 75.3765 40.0898 77.9484 40.0898C80.5206 40.0898 82.6059 42.1691 82.6059 44.7338C82.6057 47.2982 80.5206 49.3775 77.9484 49.3775Z" fill="#1661AC"/>
<path d="M262.19 53.0021C262.19 49.0433 258.972 45.834 255.001 45.834C251.031 45.834 247.812 49.0433 247.812 53.0021C247.812 53.1387 247.817 53.2743 247.825 53.4094H247.812C247.812 58.867 255.001 67.4197 255.001 67.4197C255.001 67.4197 262.19 58.867 262.19 53.4094H262.178C262.186 53.2743 262.19 53.1387 262.19 53.0021ZM255.001 57.646C252.429 57.646 250.344 55.5668 250.344 53.0021C250.344 50.4373 252.429 48.3581 255.001 48.3581C257.574 48.3581 259.659 50.4373 259.659 53.0021C259.659 55.5668 257.573 57.646 255.001 57.646Z" fill="#D2D9DC"/>
<path d="M142.562 7.10329C140.489 7.10329 138.583 7.81527 137.077 9.01297C134.537 3.91265 129.258 0.40918 123.16 0.40918C117.53 0.40918 112.601 3.39424 109.873 7.86609C109.159 7.66664 108.403 7.55913 107.623 7.55913C105.988 7.55913 104.465 8.02672 103.177 8.83421C100.844 5.19974 96.7564 2.79258 92.1072 2.79258C84.8468 2.79258 78.9609 8.66132 78.9609 15.9007H99.2569H105.254H107.623H115.989H133.739H138.696H151.386C151.385 11.0414 147.435 7.10329 142.562 7.10329Z" fill="#D2D9DC"/>
<path d="M237.435 81.5206C236.388 81.5206 235.387 81.6746 234.464 81.9557C233.247 79.0131 230.225 76.9287 226.688 76.9287C222.757 76.9287 219.461 79.5042 218.575 82.9719C217.896 82.716 217.156 82.5745 216.381 82.5745C213.108 82.5745 210.455 85.0887 210.455 88.1902H219.124H222.306H229.087H234.253H245.783C245.782 84.5072 242.045 81.5206 237.435 81.5206Z" fill="#D2D9DC"/>
<path opacity="0.72" d="M347.158 165.253H360.658C363.113 165.253 365.104 163.268 365.104 160.821V147.359C365.104 144.911 363.113 142.927 360.658 142.927H347.158C344.703 142.927 342.713 144.911 342.713 147.359V160.821C342.713 163.268 344.703 165.253 347.158 165.253Z" fill="#839299"/>
<path opacity="0.72" d="M448.645 120.29H375.792C374.515 120.29 373.48 119.258 373.48 117.985V115.661C373.48 114.388 374.515 113.356 375.792 113.356H448.645C449.922 113.356 450.957 114.388 450.957 115.661V117.985C450.957 119.258 449.922 120.29 448.645 120.29Z" fill="#839299"/>
<path opacity="0.72" d="M459.446 131.5H375.792C374.515 131.5 373.48 130.468 373.48 129.195V126.871C373.48 125.598 374.515 124.566 375.792 124.566H459.446C460.723 124.566 461.758 125.598 461.758 126.871V129.195C461.758 130.468 460.723 131.5 459.446 131.5Z" fill="#839299"/>
<path opacity="0.72" d="M347.158 133.591H360.658C363.113 133.591 365.104 131.607 365.104 129.159V115.698C365.104 113.25 363.113 111.266 360.658 111.266H347.158C344.703 111.266 342.713 113.25 342.713 115.698V129.159C342.713 131.607 344.703 133.591 347.158 133.591Z" fill="#839299"/>
<path d="M353.146 159.483L346.932 154.1C346.423 153.659 346.369 152.889 346.811 152.381C347.254 151.873 348.026 151.819 348.535 152.26L352.929 156.067L359.174 149.098C359.624 148.596 360.396 148.553 360.9 149.001C361.403 149.45 361.446 150.22 360.997 150.722L353.146 159.483Z" fill="#0054A6"/>
<path opacity="0.72" d="M429.709 151.951H375.485C374.378 151.951 373.48 151.056 373.48 149.953V147.016C373.48 145.912 374.378 145.018 375.485 145.018H429.709C430.816 145.018 431.713 145.912 431.713 147.016V149.953C431.713 151.056 430.816 151.951 429.709 151.951Z" fill="#839299"/>
<path opacity="0.72" d="M443.023 163.161H375.563C374.413 163.161 373.48 162.232 373.48 161.085V158.304C373.48 157.157 374.413 156.228 375.563 156.228H443.023C444.174 156.228 445.106 157.157 445.106 158.304V161.085C445.106 162.232 444.174 163.161 443.023 163.161Z" fill="#839299"/>
<path opacity="0.72" d="M455.554 183.611H375.895C374.561 183.611 373.48 182.533 373.48 181.203V179.084C373.48 177.755 374.561 176.677 375.895 176.677H455.554C456.888 176.677 457.969 177.755 457.969 179.084V181.203C457.969 182.533 456.888 183.611 455.554 183.611Z" fill="#839299"/>
<path opacity="0.72" d="M448.791 194.821H375.646C374.45 194.821 373.48 193.854 373.48 192.661V190.046C373.48 188.854 374.45 187.887 375.646 187.887H448.791C449.987 187.887 450.957 188.854 450.957 190.046V192.661C450.957 193.854 449.987 194.821 448.791 194.821Z" fill="#839299"/>
<path opacity="0.72" d="M347.158 196.913H360.658C363.113 196.913 365.104 194.928 365.104 192.481V179.019C365.104 176.571 363.113 174.587 360.658 174.587H347.158C344.703 174.587 342.713 176.571 342.713 179.019V192.481C342.713 194.929 344.703 196.913 347.158 196.913Z" fill="#839299"/>
<path d="M353.144 191.145L346.93 185.762C346.421 185.321 346.367 184.551 346.809 184.043C347.252 183.535 348.024 183.481 348.533 183.922L352.927 187.729L359.172 180.76C359.622 180.258 360.394 180.215 360.898 180.663C361.401 181.112 361.445 181.882 360.995 182.384L353.144 191.145Z" fill="#0054A6"/>
<path d="M353.144 127.823L346.93 122.44C346.421 121.999 346.367 121.229 346.809 120.721C347.252 120.213 348.024 120.159 348.533 120.6L352.927 124.407L359.172 117.438C359.622 116.936 360.394 116.893 360.898 117.341C361.401 117.79 361.445 118.56 360.995 119.062L353.144 127.823Z" fill="#0054A6"/>
<path d="M193.172 408.785H291.37C295.371 408.785 298.614 405.551 298.614 401.562V155.203C298.614 151.214 295.371 147.98 291.37 147.98H193.172C189.171 147.98 185.928 151.214 185.928 155.203V401.562C185.927 405.551 189.171 408.785 193.172 408.785Z" fill="#587AA3"/>
<path d="M188.65 410.788H307.304C311.305 410.788 314.548 407.555 314.548 403.565V152.868C314.548 148.879 311.305 145.646 307.304 145.646H188.65C184.649 145.646 181.406 148.879 181.406 152.868V403.565C181.406 407.555 184.649 410.788 188.65 410.788Z" fill="#0054A6"/>
<path opacity="0.73" d="M303.446 155.204V401.56C303.446 405.549 300.203 408.783 296.202 408.783H198.004C194.003 408.783 190.76 405.549 190.76 401.56V155.204C190.76 151.215 194.003 147.981 198.004 147.981H296.202C300.203 147.981 303.446 151.215 303.446 155.204Z" fill="#6BB0FF"/>
<path d="M210.719 285.64H230.476V378.299H210.719V285.64ZM229.104 287.007H212.09V376.932H229.104V287.007Z" fill="#002548"/>
<path d="M198.1 408.785H243.094C247.214 408.785 250.553 405.455 250.553 401.348V327.631C250.553 323.524 247.214 320.194 243.094 320.194H198.1C193.98 320.194 190.641 323.524 190.641 327.631V401.348C190.641 405.455 193.98 408.785 198.1 408.785Z" fill="#0054A6"/>
<path d="M210.131 288.419H231.066V284.226H210.131V288.419Z" fill="#002548"/>
<path opacity="0.97" d="M312.483 156.123V402.489C312.483 406.477 309.237 409.708 305.238 409.708H197.881C197.67 409.708 197.464 409.699 197.262 409.682C193.554 409.368 190.641 406.267 190.641 402.489V156.123C190.641 152.131 193.882 148.899 197.881 148.899H305.238C309.237 148.899 312.483 152.131 312.483 156.123Z" fill="url(#paint3_linear_14749_9581)"/>
<path opacity="0.95" d="M352.801 337.398H250.803C245.14 337.398 240.549 332.82 240.549 327.173V225.471C240.549 219.825 245.14 215.247 250.803 215.247H352.801C358.464 215.247 363.055 219.825 363.055 225.471V327.173C363.055 332.82 358.464 337.398 352.801 337.398Z" fill="#D2D9DC"/>
<path d="M281.174 282.578H272.854V274.288H274.387V281.049H281.174V282.578Z" fill="#0054A6"/>
<path d="M330.748 282.578H322.428V281.049H329.215V274.288H330.748V282.578Z" fill="#0054A6"/>
<path d="M274.387 233.149H272.854V224.859H281.174V226.388H274.387V233.149Z" fill="#0054A6"/>
<path d="M330.748 233.149H329.215V226.388H322.428V224.859H330.748V233.149Z" fill="#0054A6"/>
<path d="M331.483 322.809C324.039 322.809 317.982 316.77 317.982 309.347C317.982 301.925 324.039 295.886 331.483 295.886C338.927 295.886 344.984 301.925 344.984 309.347C344.984 316.77 338.927 322.809 331.483 322.809ZM331.483 298.491C325.48 298.491 320.596 303.361 320.596 309.347C320.596 315.333 325.479 320.203 331.483 320.203C337.487 320.203 342.371 315.333 342.371 309.347C342.371 303.361 337.486 298.491 331.483 298.491Z" fill="#0054A6"/>
<path d="M330.622 314.646L324.488 308.53L326.336 306.688L330.622 310.961L336.63 304.971L338.477 306.813L330.622 314.646Z" fill="#0054A6"/>
<path d="M305.926 287.308H297.648V288.836H305.926V287.308Z" fill="#0054A6"/>
<path d="M306.748 304.315H258.58V307.275H306.748V304.315Z" fill="#0054A6"/>
<path d="M281.415 311.42H258.58V314.38H281.415V311.42Z" fill="#0054A6"/>
<path d="M316.344 266.53H288.93V231.202H316.344V266.53ZM289.442 266.019H315.832V231.713H289.442V266.019Z" fill="#0054A6"/>
<path d="M316.697 268.49V275.21H315.213C314.938 273.385 313.291 271.977 311.3 271.977C309.309 271.977 307.662 273.385 307.387 275.21H306.529C306.255 273.385 304.607 271.977 302.616 271.977C300.626 271.977 298.97 273.385 298.695 275.21H297.888C297.614 273.385 295.966 271.977 293.976 271.977C291.985 271.977 290.329 273.385 290.054 275.21H288.578V268.49H316.697Z" fill="#0054A6"/>
<path opacity="0.95" d="M223.246 262.878H163.951C159.266 262.878 155.469 259.091 155.469 254.42V195.298C155.469 190.627 159.266 186.84 163.951 186.84H223.246C227.93 186.84 231.728 190.627 231.728 195.298V254.42C231.728 259.091 227.93 262.878 223.246 262.878Z" fill="#D2D9DC"/>
<path d="M177.379 237.203H170.496V230.346H171.764V235.939H177.379V237.203Z" fill="#0054A6"/>
<path d="M218.385 237.203H211.502V235.939H217.116V230.346H218.385V237.203Z" fill="#0054A6"/>
<path d="M171.764 201.832H170.496V194.975H177.379V196.239H171.764V201.832Z" fill="#0054A6"/>
<path d="M218.385 201.832H217.116V196.239H211.502V194.975H218.385V201.832Z" fill="#0054A6"/>
<path d="M208.983 245.212H173.676V247.66H208.983V245.212Z" fill="#0054A6"/>
<path d="M197.832 251.089H173.676V253.537H197.832V251.089Z" fill="#0054A6"/>
<path d="M190.184 211.279C190.184 211.558 190.126 211.8 190.011 212.006C189.896 212.212 189.738 212.383 189.537 212.519C189.337 212.655 189.104 212.758 188.836 212.828C188.569 212.897 188.286 212.932 187.989 212.932H184.838V206.484H188.435C188.66 206.484 188.863 206.533 189.045 206.63C189.227 206.726 189.383 206.852 189.51 207.007C189.638 207.161 189.736 207.337 189.806 207.533C189.876 207.73 189.911 207.932 189.911 208.137C189.911 208.446 189.833 208.737 189.679 209.009C189.524 209.281 189.292 209.487 188.982 209.626C189.352 209.736 189.645 209.929 189.861 210.208C190.076 210.486 190.184 210.843 190.184 211.279ZM186.332 207.756V209.091H187.798C187.962 209.091 188.108 209.036 188.235 208.927C188.363 208.818 188.427 208.649 188.427 208.419C188.427 208.207 188.37 208.043 188.258 207.928C188.146 207.813 188.011 207.756 187.853 207.756H186.332ZM188.663 210.979C188.663 210.78 188.606 210.61 188.49 210.471C188.375 210.332 188.229 210.262 188.053 210.262H186.332V211.67H187.989C188.184 211.67 188.345 211.606 188.472 211.479C188.6 211.352 188.663 211.185 188.663 210.979Z" fill="#0054A6"/>
<path d="M193.845 211.661C194.1 211.661 194.316 211.608 194.492 211.502C194.668 211.396 194.81 211.255 194.92 211.08C195.029 210.904 195.106 210.703 195.152 210.476C195.197 210.249 195.22 210.017 195.22 209.781V206.485H196.714V209.781C196.714 210.229 196.657 210.647 196.546 211.034C196.433 211.422 196.26 211.761 196.026 212.051C195.793 212.342 195.495 212.57 195.134 212.737C194.773 212.903 194.343 212.986 193.845 212.986C193.329 212.986 192.889 212.899 192.525 212.723C192.161 212.548 191.865 212.313 191.637 212.019C191.409 211.726 191.242 211.385 191.136 210.998C191.029 210.61 190.977 210.205 190.977 209.781V206.484H192.47V209.781C192.47 210.029 192.494 210.265 192.543 210.489C192.591 210.713 192.67 210.913 192.78 211.089C192.889 211.264 193.03 211.403 193.203 211.506C193.376 211.609 193.59 211.661 193.845 211.661Z" fill="#0054A6"/>
<path d="M198.873 206.484L200.266 209.445L201.678 206.484H203.308L201.004 210.734V212.932H199.52V210.716L197.252 206.485L198.873 206.484Z" fill="#0054A6"/>
<path d="M180.371 218.69H178.404V223.83H176.91V218.69H174.934V217.382H180.371L180.371 218.69Z" fill="#0054A6"/>
<path d="M181.1 223.83V217.382H182.593V223.83H181.1Z" fill="#0054A6"/>
<path d="M183.459 220.551C183.459 220.164 183.531 219.778 183.677 219.394C183.823 219.009 184.036 218.666 184.315 218.363C184.594 218.06 184.934 217.815 185.335 217.627C185.735 217.44 186.191 217.346 186.701 217.346C187.308 217.346 187.835 217.476 188.281 217.736C188.727 217.997 189.059 218.336 189.278 218.753L188.131 219.552C188.058 219.383 187.965 219.242 187.853 219.13C187.74 219.018 187.618 218.927 187.484 218.858C187.35 218.788 187.214 218.74 187.074 218.712C186.934 218.685 186.798 218.672 186.664 218.672C186.379 218.672 186.13 218.729 185.917 218.844C185.705 218.959 185.529 219.108 185.389 219.289C185.249 219.471 185.146 219.676 185.079 219.907C185.013 220.137 184.979 220.37 184.979 220.606C184.979 220.86 185.018 221.105 185.097 221.342C185.176 221.578 185.29 221.786 185.439 221.968C185.588 222.15 185.767 222.293 185.977 222.399C186.186 222.505 186.421 222.558 186.682 222.558C186.816 222.558 186.954 222.542 187.097 222.508C187.239 222.475 187.376 222.424 187.507 222.354C187.637 222.285 187.757 222.194 187.866 222.082C187.976 221.97 188.064 221.832 188.13 221.669L189.351 222.386C189.254 222.622 189.11 222.834 188.918 223.022C188.727 223.209 188.507 223.367 188.258 223.494C188.009 223.621 187.745 223.718 187.466 223.785C187.187 223.851 186.913 223.885 186.646 223.885C186.178 223.885 185.749 223.789 185.358 223.599C184.966 223.408 184.629 223.155 184.347 222.84C184.064 222.525 183.845 222.168 183.691 221.769C183.536 221.369 183.459 220.963 183.459 220.551Z" fill="#0054A6"/>
<path d="M190.098 223.83V217.382H191.591V220.161L193.959 217.382H195.635L193.213 220.26L195.799 223.83H194.096L192.265 221.232L191.592 221.932V223.83H190.098Z" fill="#0054A6"/>
<path d="M200.828 222.522V223.83H196.283V217.382H200.746V218.69H197.777V219.943H200.327V221.15H197.777V222.522L200.828 222.522Z" fill="#0054A6"/>
<path d="M206.664 218.69H204.697V223.83H203.203V218.69H201.227V217.382H206.664V218.69Z" fill="#0054A6"/>
<path d="M211.273 219.272C211.255 219.247 211.191 219.202 211.082 219.135C210.973 219.068 210.836 218.999 210.672 218.926C210.508 218.854 210.329 218.79 210.134 218.736C209.94 218.681 209.746 218.654 209.551 218.654C209.017 218.654 208.75 218.833 208.75 219.19C208.75 219.299 208.779 219.39 208.837 219.462C208.894 219.535 208.979 219.6 209.092 219.658C209.204 219.715 209.345 219.768 209.515 219.817C209.685 219.865 209.882 219.92 210.107 219.98C210.417 220.065 210.696 220.157 210.945 220.257C211.194 220.357 211.405 220.481 211.578 220.629C211.751 220.778 211.884 220.958 211.979 221.17C212.073 221.382 212.12 221.636 212.12 221.933C212.12 222.296 212.052 222.603 211.915 222.854C211.778 223.105 211.598 223.308 211.373 223.462C211.148 223.617 210.89 223.729 210.599 223.798C210.307 223.868 210.007 223.903 209.697 223.903C209.46 223.903 209.217 223.885 208.969 223.848C208.719 223.812 208.476 223.759 208.24 223.689C208.003 223.62 207.774 223.537 207.552 223.439C207.331 223.343 207.125 223.231 206.938 223.104L207.593 221.805C207.617 221.835 207.697 221.893 207.83 221.978C207.964 222.062 208.129 222.147 208.326 222.232C208.524 222.317 208.744 222.392 208.987 222.459C209.229 222.526 209.475 222.559 209.724 222.559C210.253 222.559 210.517 222.399 210.517 222.078C210.517 221.957 210.477 221.857 210.398 221.778C210.32 221.699 210.21 221.628 210.071 221.565C209.931 221.501 209.766 221.442 209.574 221.388C209.383 221.333 209.175 221.273 208.951 221.206C208.653 221.115 208.395 221.017 208.176 220.911C207.958 220.805 207.777 220.682 207.635 220.543C207.492 220.404 207.385 220.243 207.316 220.062C207.246 219.88 207.211 219.668 207.211 219.426C207.211 219.087 207.275 218.788 207.402 218.527C207.53 218.267 207.703 218.047 207.921 217.869C208.14 217.69 208.394 217.555 208.682 217.464C208.97 217.374 209.275 217.328 209.597 217.328C209.822 217.328 210.043 217.35 210.262 217.392C210.481 217.434 210.69 217.489 210.891 217.555C211.091 217.622 211.278 217.698 211.451 217.782C211.624 217.867 211.783 217.952 211.929 218.037L211.273 219.272Z" fill="#0054A6"/>
<path opacity="0.95" d="M240.235 158.683H279.111C282.182 158.683 284.672 161.165 284.672 164.228V202.991C284.672 206.053 282.182 208.536 279.111 208.536H240.235C237.164 208.536 234.674 206.053 234.674 202.991V164.228C234.674 161.165 237.164 158.683 240.235 158.683Z" fill="#D2D9DC"/>
<path d="M257.529 196.417H245.848V198.022H257.529V196.417Z" fill="#0054A6"/>
<path d="M263.142 200.271H245.848V201.876H263.142V200.271Z" fill="#0054A6"/>
<path d="M248.489 190.074H243.977V185.578H244.808V189.245H248.489V190.074Z" fill="#0054A6"/>
<path d="M275.372 190.074H270.859V189.245H274.54V185.578H275.372V190.074Z" fill="#0054A6"/>
<path d="M244.808 168.854H243.977V164.358H248.489V165.188H244.808V168.854Z" fill="#0054A6"/>
<path d="M275.372 168.854H274.54V165.188H270.859V164.358H275.372V168.854Z" fill="#0054A6"/>
<path d="M252.573 174.522C252.513 174.462 252.404 174.381 252.246 174.279C252.088 174.177 251.896 174.077 251.67 173.979C251.444 173.881 251.198 173.798 250.934 173.73C250.669 173.662 250.4 173.628 250.127 173.628C249.641 173.628 249.278 173.718 249.039 173.896C248.799 174.075 248.68 174.326 248.68 174.65C248.68 174.837 248.725 174.992 248.814 175.116C248.904 175.239 249.034 175.348 249.205 175.441C249.376 175.535 249.591 175.62 249.851 175.697C250.112 175.773 250.413 175.854 250.754 175.939C251.198 176.058 251.602 176.186 251.965 176.322C252.327 176.458 252.635 176.628 252.887 176.833C253.138 177.037 253.333 177.282 253.469 177.567C253.606 177.852 253.674 178.204 253.674 178.621C253.674 179.106 253.583 179.521 253.399 179.866C253.215 180.21 252.968 180.489 252.656 180.702C252.345 180.915 251.986 181.07 251.581 181.168C251.175 181.265 250.75 181.315 250.306 181.315C249.623 181.315 248.949 181.212 248.283 181.008C247.617 180.804 247.02 180.514 246.49 180.14L247.272 178.621C247.348 178.697 247.487 178.797 247.688 178.921C247.888 179.044 248.125 179.168 248.399 179.291C248.672 179.414 248.975 179.519 249.308 179.604C249.641 179.689 249.982 179.731 250.332 179.731C251.305 179.731 251.792 179.421 251.792 178.799C251.792 178.604 251.736 178.438 251.626 178.302C251.514 178.165 251.356 178.046 251.152 177.944C250.947 177.842 250.699 177.748 250.409 177.663C250.119 177.578 249.794 177.484 249.436 177.382C249 177.263 248.622 177.133 248.302 176.993C247.982 176.852 247.715 176.686 247.502 176.495C247.289 176.303 247.128 176.082 247.022 175.831C246.915 175.58 246.862 175.28 246.862 174.931C246.862 174.471 246.947 174.062 247.118 173.705C247.289 173.347 247.525 173.049 247.828 172.811C248.131 172.573 248.484 172.392 248.885 172.268C249.286 172.145 249.717 172.083 250.178 172.083C250.819 172.083 251.408 172.183 251.946 172.383C252.483 172.583 252.953 172.819 253.354 173.092L252.573 174.522Z" fill="#0054A6"/>
<path d="M256.671 181.341C256.347 181.341 256.044 181.287 255.762 181.181C255.48 181.075 255.237 180.926 255.032 180.734C254.827 180.543 254.667 180.319 254.552 180.064C254.437 179.808 254.379 179.527 254.379 179.221C254.379 178.906 254.449 178.615 254.59 178.346C254.731 178.078 254.927 177.851 255.179 177.663C255.431 177.476 255.732 177.329 256.082 177.222C256.432 177.116 256.816 177.063 257.235 177.063C257.533 177.063 257.826 177.089 258.112 177.139C258.398 177.191 258.651 177.263 258.874 177.357V176.974C258.874 176.531 258.748 176.191 258.496 175.952C258.244 175.714 257.871 175.595 257.375 175.595C257.017 175.595 256.667 175.659 256.325 175.786C255.984 175.914 255.634 176.101 255.275 176.348L254.75 175.263C255.612 174.692 256.543 174.407 257.542 174.407C258.506 174.407 259.255 174.643 259.789 175.116C260.322 175.588 260.589 176.271 260.589 177.165V179.246C260.589 179.425 260.621 179.552 260.685 179.629C260.749 179.706 260.854 179.749 260.999 179.757V181.212C260.709 181.272 260.457 181.302 260.244 181.302C259.919 181.302 259.67 181.23 259.495 181.085C259.319 180.94 259.211 180.749 259.168 180.51L259.13 180.14C258.831 180.532 258.468 180.829 258.041 181.034C257.615 181.239 257.158 181.341 256.671 181.341ZM257.158 180.09C257.448 180.09 257.723 180.038 257.984 179.936C258.244 179.834 258.447 179.698 258.592 179.527C258.78 179.383 258.874 179.221 258.874 179.042V178.276C258.669 178.2 258.447 178.138 258.208 178.091C257.969 178.044 257.738 178.021 257.517 178.021C257.073 178.021 256.71 178.121 256.428 178.321C256.146 178.521 256.006 178.774 256.006 179.081C256.006 179.37 256.117 179.611 256.339 179.802C256.56 179.994 256.834 180.09 257.158 180.09Z" fill="#0054A6"/>
<path d="M262.176 171.892H263.892V179.068C263.892 179.315 263.951 179.506 264.071 179.642C264.191 179.779 264.361 179.847 264.584 179.847C264.686 179.847 264.799 179.83 264.923 179.796C265.046 179.762 265.164 179.719 265.275 179.668L265.505 180.97C265.275 181.081 265.006 181.167 264.699 181.226C264.391 181.285 264.114 181.315 263.866 181.315C263.329 181.315 262.912 181.173 262.618 180.888C262.323 180.602 262.176 180.196 262.176 179.668L262.176 171.892Z" fill="#0054A6"/>
<path d="M269.361 181.34C268.822 181.34 268.336 181.249 267.901 181.066C267.465 180.883 267.094 180.634 266.787 180.319C266.479 180.004 266.242 179.638 266.076 179.221C265.91 178.804 265.826 178.365 265.826 177.906C265.826 177.429 265.907 176.98 266.07 176.559C266.232 176.137 266.466 175.767 266.774 175.448C267.081 175.129 267.454 174.875 267.894 174.688C268.334 174.501 268.827 174.407 269.373 174.407C269.919 174.407 270.408 174.501 270.839 174.688C271.271 174.875 271.638 175.127 271.941 175.441C272.244 175.756 272.474 176.123 272.632 176.54C272.79 176.957 272.869 177.391 272.869 177.842C272.869 177.953 272.867 178.059 272.863 178.161C272.859 178.263 272.848 178.349 272.831 178.417H267.645C267.67 178.681 267.734 178.915 267.837 179.119C267.939 179.323 268.071 179.498 268.234 179.643C268.396 179.787 268.58 179.898 268.784 179.975C268.989 180.051 269.203 180.09 269.425 180.09C269.766 180.09 270.088 180.007 270.391 179.84C270.694 179.675 270.901 179.455 271.013 179.183L272.485 179.592C272.237 180.102 271.843 180.522 271.301 180.849C270.758 181.177 270.112 181.34 269.361 181.34ZM271.102 177.305C271.059 176.803 270.874 176.401 270.545 176.099C270.217 175.797 269.817 175.646 269.348 175.646C269.117 175.646 268.902 175.686 268.701 175.767C268.501 175.848 268.323 175.96 268.17 176.105C268.016 176.25 267.89 176.424 267.792 176.628C267.694 176.833 267.636 177.059 267.619 177.305L271.102 177.305Z" fill="#0054A6"/>
<path d="M379.863 373.794H364.678V375.801H379.863V373.794Z" fill="#CED2D6"/>
<path fill-rule="evenodd" clip-rule="evenodd" d="M393.783 375.819H379.344V371.736H392.601C393.256 371.736 393.783 372.267 393.783 372.92V375.819Z" fill="#9395A1"/>
<path fill-rule="evenodd" clip-rule="evenodd" d="M394.547 307.574H350.078V308.689C350.078 308.907 350.259 309.082 350.472 309.082H351.069V310.165C351.069 310.388 351.244 310.563 351.462 310.563H393.492C393.706 310.563 393.887 310.388 393.887 310.165V309.082H394.152C394.366 309.082 394.546 308.907 394.546 308.689L394.547 307.574Z" fill="#6FAFBF"/>
<path fill-rule="evenodd" clip-rule="evenodd" d="M379.298 375.786H365.359V375.34C365.359 375.069 365.583 374.846 365.86 374.846H378.804C379.075 374.846 379.299 375.068 379.299 375.34V375.786H379.298Z" fill="#A5B1BF"/>
<path d="M433.908 372.209H408.24V375.326H433.908V372.209Z" fill="#88553F"/>
<path d="M427.34 372.209H401.666V375.326H427.34V372.209Z" fill="#79736E"/>
<path d="M427.34 372.209H401.666V375.326H427.34V372.209Z" fill="#95593E"/>
<path d="M409.472 324.301H406.176V331.394H409.472V324.301Z" fill="#626F7F"/>
<path d="M409.472 334.336H406.176V341.424H409.472V334.336Z" fill="#626F7F"/>
<path d="M409.472 344.021H406.176V351.114H409.472V344.021Z" fill="#626F7F"/>
<path d="M430.362 324.086H427.066V331.179H430.362V324.086Z" fill="#6C757D"/>
<path d="M430.362 334.336H427.066V341.424H430.362V334.336Z" fill="#6C757D"/>
<path d="M430.362 344.021H427.066V351.114H430.362V344.021Z" fill="#6C757D"/>
<path d="M430.362 354.052H427.066V361.139H430.362V354.052Z" fill="#6C757D"/>
<path d="M409.472 354.052H406.176V361.139H409.472V354.052Z" fill="#626F7F"/>
<path d="M422.248 364.199H406.578V372.21H422.248V364.199Z" fill="#966A56"/>
<path fill-rule="evenodd" clip-rule="evenodd" d="M414.408 365.377H410.851C409.798 365.377 408.945 366.232 408.945 367.282V372.167H414.408V365.377Z" fill="#A5B1BF"/>
<path fill-rule="evenodd" clip-rule="evenodd" d="M423.089 373.248H405.828V372.542C405.828 372.351 405.982 372.191 406.174 372.191H422.738C422.93 372.191 423.089 372.351 423.089 372.542V373.248Z" fill="#A5B1BF"/>
<path fill-rule="evenodd" clip-rule="evenodd" d="M423.825 374.286L405.137 374.292V373.601C405.137 373.41 405.291 373.257 405.483 373.257L423.473 373.246C423.665 373.246 423.825 373.4 423.825 373.592V374.286Z" fill="#909BA3"/>
<path fill-rule="evenodd" clip-rule="evenodd" d="M424.775 375.318L404.09 375.323V374.633C404.09 374.442 404.244 374.288 404.436 374.288L424.429 374.282C424.62 374.277 424.775 374.431 424.775 374.627V375.318Z" fill="#838D9A"/>
<path d="M402.618 364.56H401.969V372.209H402.618V364.56Z" fill="#A5B1BF"/>
<path fill-rule="evenodd" clip-rule="evenodd" d="M402.794 370.739C402.794 370.644 402.714 370.569 402.619 370.569H401.969C401.873 370.569 401.793 370.644 401.793 370.739V372.21H402.795L402.794 370.739Z" fill="#A5B1BF"/>
<path d="M426.985 364.56H426.336V372.209H426.985V364.56Z" fill="#A5B1BF"/>
<path fill-rule="evenodd" clip-rule="evenodd" d="M427.16 370.739C427.16 370.644 427.08 370.569 426.985 370.569H426.335C426.239 370.569 426.164 370.644 426.164 370.739V372.21H427.16V370.739Z" fill="#A5B1BF"/>
<path d="M433.569 364.56H432.92V372.209H433.569V364.56Z" fill="#8B97A1"/>
<path fill-rule="evenodd" clip-rule="evenodd" d="M433.737 370.739C433.737 370.644 433.663 370.569 433.567 370.569H432.917C432.821 370.569 432.736 370.644 432.736 370.739V372.21H433.737V370.739Z" fill="#8B97A1"/>
<path fill-rule="evenodd" clip-rule="evenodd" d="M433.91 364.082C433.91 364.369 433.675 364.602 433.388 364.602H408.364C408.082 364.602 407.848 364.369 407.848 364.082V363.047H433.91V364.082Z" fill="#4E6477"/>
<path fill-rule="evenodd" clip-rule="evenodd" d="M442.586 377.225C442.586 378.324 441.691 379.216 440.594 379.216H393.325C392.223 379.216 391.328 378.325 391.328 377.225C391.328 376.127 392.223 375.234 393.325 375.234H440.594C441.691 375.234 442.586 376.126 442.586 377.225Z" fill="#E3E5E4"/>
<path d="M433.908 372.209H408.24V375.326H433.908V372.209Z" fill="#797C8A"/>
<path d="M427.34 372.209H401.666V375.326H427.34V372.209Z" fill="#79736E"/>
<path d="M427.34 372.209H401.666V375.326H427.34V372.209Z" fill="#797C8A"/>
<path fill-rule="evenodd" clip-rule="evenodd" d="M414.408 365.377H410.851C409.798 365.377 408.945 366.232 408.945 367.282V372.167H414.408V365.377Z" fill="#A5B1BF"/>
<path fill-rule="evenodd" clip-rule="evenodd" d="M423.089 373.248H405.828V372.542C405.828 372.351 405.982 372.191 406.174 372.191H422.738C422.93 372.191 423.089 372.351 423.089 372.542V373.248Z" fill="#A5B1BF"/>
<path fill-rule="evenodd" clip-rule="evenodd" d="M402.794 370.739C402.794 370.644 402.714 370.569 402.619 370.569H401.969C401.873 370.569 401.793 370.644 401.793 370.739V372.21H402.795L402.794 370.739Z" fill="#A5B1BF"/>
<path d="M426.985 364.56H426.336V372.209H426.985V364.56Z" fill="#A5B1BF"/>
<path fill-rule="evenodd" clip-rule="evenodd" d="M427.16 370.739C427.16 370.644 427.08 370.569 426.985 370.569H426.335C426.239 370.569 426.164 370.644 426.164 370.739V372.21H427.16V370.739Z" fill="#A5B1BF"/>
<path fill-rule="evenodd" clip-rule="evenodd" d="M433.737 370.739C433.737 370.644 433.663 370.569 433.567 370.569H432.917C432.821 370.569 432.736 370.644 432.736 370.739V372.21H433.737V370.739Z" fill="#8B97A1"/>
<path fill-rule="evenodd" clip-rule="evenodd" d="M413.931 369.358C413.931 369.512 413.809 369.64 413.649 369.64C413.49 369.64 413.367 369.512 413.367 369.358C413.367 369.199 413.49 369.076 413.649 369.076C413.809 369.076 413.931 369.199 413.931 369.358Z" fill="#797C8A"/>
<path fill-rule="evenodd" clip-rule="evenodd" d="M415.433 369.343C415.433 369.496 415.306 369.624 415.151 369.624C414.997 369.624 414.869 369.496 414.869 369.343C414.869 369.189 414.997 369.061 415.151 369.061C415.306 369.061 415.433 369.188 415.433 369.343Z" fill="#797C8A"/>
<path fill-rule="evenodd" clip-rule="evenodd" d="M442.586 377.225C442.586 378.324 441.691 379.216 440.594 379.216H393.325C392.223 379.216 391.328 378.325 391.328 377.225C391.328 376.127 392.223 375.234 393.325 375.234H440.594C441.691 375.234 442.586 376.126 442.586 377.225Z" fill="#F2F3F4"/>
<path fill-rule="evenodd" clip-rule="evenodd" d="M440.597 375.234H427.281V379.216H440.597C441.694 379.216 442.588 378.324 442.588 377.225C442.588 376.126 441.693 375.234 440.597 375.234Z" fill="#CED1D1"/>
<path d="M460.246 371.631H447.979V383.109H460.246V371.631Z" fill="#86C7D5"/>
<path d="M470.434 320.356H324.596V396.385H470.434V320.356Z" fill="#F2EEDA"/>
<path d="M470.434 320.356H324.596V396.385H470.434V320.356Z" fill="white"/>
<path d="M408.079 329.325H336.152V382.775H408.079V329.325Z" fill="#FAFAFA"/>
<path d="M405.715 327.573H338.506V377.524H405.715V327.573Z" fill="#839299"/>
<path d="M373.63 327.015H370.59V380.603H373.63V327.015Z" fill="#FAFAFA"/>
<path fill-rule="evenodd" clip-rule="evenodd" d="M412.734 382.11C412.734 383.58 411.542 384.769 410.067 384.769H334.483C333.013 384.769 331.82 383.58 331.82 382.11C331.82 380.644 333.012 379.455 334.483 379.455H410.067C411.542 379.455 412.729 380.644 412.734 382.11Z" fill="#0054A6"/>
<path fill-rule="evenodd" clip-rule="evenodd" d="M477.429 408.67H318.264V396.884C318.264 393.863 320.724 391.41 323.758 391.41H471.934C474.969 391.41 477.428 393.863 477.428 396.884L477.429 408.67Z" fill="#0054A6"/>
<path d="M459.112 335.294H424.855V404.022H459.112V335.294Z" fill="#839299"/>
<path fill-rule="evenodd" clip-rule="evenodd" d="M476.594 300.937C476.594 296.259 472.793 292.469 468.107 292.469H327.929C323.233 292.469 319.432 296.259 319.432 300.937V331.808H476.594V300.937Z" fill="#0054A6"/>
<path fill-rule="evenodd" clip-rule="evenodd" d="M477.099 313.714L494.915 331.807H301.791L319.436 313.714H477.099Z" fill="#0054A6"/>
<path fill-rule="evenodd" clip-rule="evenodd" d="M377.948 406.916H367.965C366.512 406.916 365.33 405.737 365.33 404.288V402.595C365.33 401.145 366.512 399.967 367.965 399.967H377.948C379.402 399.967 380.584 401.145 380.584 402.595V404.288C380.584 405.738 379.402 406.916 377.948 406.916Z" fill="#E9EFF8"/>
<path fill-rule="evenodd" clip-rule="evenodd" d="M359.468 399.45H349.485C348.032 399.45 346.85 398.271 346.85 396.822V395.128C346.85 393.679 348.032 392.5 349.485 392.5H359.468C360.921 392.5 362.104 393.679 362.104 395.128V396.816C362.104 398.271 360.921 399.45 359.468 399.45Z" fill="#E9EFF8"/>
<path fill-rule="evenodd" clip-rule="evenodd" d="M348.227 407.161H338.249C336.789 407.161 335.607 405.988 335.607 404.534V402.845C335.607 401.391 336.789 400.218 338.249 400.218H348.227C349.685 400.218 350.867 401.391 350.867 402.845V404.534C350.867 405.988 349.685 407.161 348.227 407.161Z" fill="#E9EFF8"/>
<path fill-rule="evenodd" clip-rule="evenodd" d="M334.37 400.096H324.387C322.934 400.096 321.752 398.918 321.752 397.463V395.774C321.752 394.32 322.934 393.146 324.387 393.146H334.37C335.824 393.146 337.006 394.32 337.006 395.774V397.463C337.006 398.918 335.824 400.096 334.37 400.096Z" fill="#E9EFF8"/>
<path d="M459.046 335.482H448.062V401.142H459.046V335.482Z" fill="#FAFAFA"/>
<path d="M435.892 335.294H424.902V400.949H435.892V335.294Z" fill="#FAFAFA"/>
<path fill-rule="evenodd" clip-rule="evenodd" d="M336.147 352.205C332.202 352.025 329.061 348.781 329.061 344.799V338.487H336.147V352.205Z" fill="white"/>
<path fill-rule="evenodd" clip-rule="evenodd" d="M336.493 352.211C336.381 352.211 336.264 352.211 336.152 352.205V338.487H338.511V351.935C337.867 352.115 337.191 352.211 336.493 352.211Z" fill="#FAFAFA"/>
<path fill-rule="evenodd" clip-rule="evenodd" d="M366.192 352.196C362.104 352.196 358.792 348.905 358.77 344.832C358.744 348.905 355.427 352.196 351.343 352.196C347.259 352.196 343.952 348.91 343.916 344.853C343.894 348.225 341.615 351.065 338.506 351.935V338.488H343.916V338.473H358.77H370.591V350.762C369.355 351.665 367.843 352.196 366.192 352.196Z" fill="#D0D9EE"/>
<path fill-rule="evenodd" clip-rule="evenodd" d="M370.59 350.762V338.473H373.625V344.79C373.625 347.237 372.431 349.414 370.59 350.762Z" fill="#FAFAFA"/>
<path fill-rule="evenodd" clip-rule="evenodd" d="M410.4 352.226C409.586 352.226 408.804 352.099 408.074 351.855V338.502H417.828V344.82C417.828 348.908 414.506 352.226 410.4 352.226Z" fill="white"/>
<path fill-rule="evenodd" clip-rule="evenodd" d="M408.079 351.855C407.206 351.573 406.412 351.127 405.721 350.564V338.502H408.079V351.855Z" fill="#FAFAFA"/>
<path fill-rule="evenodd" clip-rule="evenodd" d="M395.583 352.244C392.005 352.244 389.018 349.722 388.309 346.361C387.585 349.696 384.614 352.196 381.053 352.196C377.054 352.196 373.785 349.037 373.631 345.087V338.473H388.48V338.52H402.973V338.504H405.715V350.566C404.139 349.282 403.101 347.354 402.995 345.188C402.802 349.117 399.565 352.244 395.583 352.244Z" fill="#D0D9EE"/>
<path fill-rule="evenodd" clip-rule="evenodd" d="M373.631 345.087C373.625 344.986 373.625 344.885 373.625 344.79V338.473H373.631V345.087Z" fill="#D2AB67"/>
<path fill-rule="evenodd" clip-rule="evenodd" d="M424.854 352.2C420.946 351.982 417.848 348.754 417.848 344.799V338.487H424.854V352.2Z" fill="white"/>
<path fill-rule="evenodd" clip-rule="evenodd" d="M424.898 352.2C424.887 352.2 424.871 352.2 424.855 352.2V338.487H424.898V352.2Z" fill="#D2AB67"/>
<path fill-rule="evenodd" clip-rule="evenodd" d="M459.115 350.943V338.473H462.411V344.79C462.411 347.354 461.102 349.61 459.115 350.943Z" fill="white"/>
<path fill-rule="evenodd" clip-rule="evenodd" d="M440.129 352.195C438.553 352.195 437.094 351.707 435.891 350.868V338.472H447.551H447.562H448.067V347.491C447.743 346.669 447.562 345.771 447.551 344.831C447.529 348.904 444.218 352.195 440.129 352.195ZM459.051 350.985V338.472H459.115V350.943C459.094 350.953 459.073 350.969 459.051 350.985Z" fill="#D0D9EE"/>
<path fill-rule="evenodd" clip-rule="evenodd" d="M454.979 352.196C451.826 352.196 449.143 350.247 448.062 347.492V338.473H459.046V350.985C457.875 351.749 456.48 352.196 454.979 352.196Z" fill="#FAFAFA"/>
<path fill-rule="evenodd" clip-rule="evenodd" d="M425.275 352.212C425.153 352.212 425.031 352.206 424.902 352.201V338.488H432.702V338.473H435.892V350.869C433.985 349.547 432.729 347.35 432.708 344.854C432.676 348.926 429.365 352.212 425.275 352.212Z" fill="#FAFAFA"/>
<path fill-rule="evenodd" clip-rule="evenodd" d="M324.594 351.605V338.502H329.05V344.82C329.05 347.851 327.213 350.463 324.594 351.605Z" fill="white"/>
<path fill-rule="evenodd" clip-rule="evenodd" d="M469.832 352.196C465.732 352.196 462.404 348.878 462.404 344.79V338.473H470.406V352.169C470.215 352.18 470.028 352.196 469.832 352.196Z" fill="white"/>
<path fill-rule="evenodd" clip-rule="evenodd" d="M439.356 373.147C439.356 373.806 438.824 374.342 438.159 374.342H429.176C428.516 374.342 427.979 373.811 427.979 373.147C427.979 372.484 428.516 371.947 429.176 371.947H438.159C438.824 371.948 439.356 372.484 439.356 373.147Z" fill="white"/>
<path fill-rule="evenodd" clip-rule="evenodd" d="M431.35 373.149C431.35 374.524 430.231 375.639 428.852 375.639C427.474 375.639 426.355 374.524 426.355 373.149C426.355 371.774 427.474 370.659 428.852 370.659C430.232 370.659 431.35 371.774 431.35 373.149Z" fill="white"/>
<path fill-rule="evenodd" clip-rule="evenodd" d="M316.79 338.116C316.79 342.21 313.462 345.532 309.357 345.532C305.247 345.527 301.924 342.209 301.924 338.116V331.799H316.789L316.79 338.116Z" fill="#DEE7F5"/>
<path fill-rule="evenodd" clip-rule="evenodd" d="M331.629 338.099C331.629 342.197 328.302 345.516 324.196 345.516C320.091 345.516 316.764 342.198 316.764 338.099V331.781H331.629L331.629 338.099Z" fill="#0054A6"/>
<path fill-rule="evenodd" clip-rule="evenodd" d="M346.516 338.082C346.516 342.176 343.182 345.498 339.078 345.498C334.973 345.498 331.645 342.175 331.645 338.082V331.765H346.516V338.082Z" fill="#DEE7F5"/>
<path fill-rule="evenodd" clip-rule="evenodd" d="M361.381 338.069C361.381 342.167 358.054 345.486 353.948 345.486C349.843 345.486 346.516 342.167 346.516 338.069V331.752H361.381L361.381 338.069Z" fill="#0054A6"/>
<path fill-rule="evenodd" clip-rule="evenodd" d="M376.245 338.069C376.245 342.167 372.917 345.486 368.812 345.486C364.706 345.486 361.379 342.167 361.379 338.069V331.752H376.244L376.245 338.069Z" fill="#DEE7F5"/>
<path fill-rule="evenodd" clip-rule="evenodd" d="M391.12 338.067C391.12 342.165 387.787 345.484 383.682 345.484C379.578 345.484 376.244 342.165 376.244 338.067V331.75H391.12L391.12 338.067Z" fill="#0054A6"/>
<path fill-rule="evenodd" clip-rule="evenodd" d="M405.657 338.116C405.657 342.21 402.329 345.532 398.224 345.532C394.114 345.527 390.791 342.209 390.791 338.116V331.799H405.657L405.657 338.116Z" fill="#DEE7F5"/>
<path fill-rule="evenodd" clip-rule="evenodd" d="M420.492 338.099C420.492 342.197 417.164 345.516 413.059 345.516C408.949 345.516 405.621 342.198 405.621 338.099V331.781H420.492V338.099Z" fill="#0054A6"/>
<path fill-rule="evenodd" clip-rule="evenodd" d="M435.375 338.082C435.375 342.176 432.047 345.498 427.942 345.498C423.832 345.498 420.51 342.175 420.51 338.082V331.765H435.375L435.375 338.082Z" fill="#DEE7F5"/>
<path fill-rule="evenodd" clip-rule="evenodd" d="M450.246 338.067C450.246 342.165 446.918 345.484 442.813 345.484C438.702 345.484 435.375 342.165 435.375 338.067V331.75H450.246V338.067Z" fill="#0054A6"/>
<path fill-rule="evenodd" clip-rule="evenodd" d="M465.108 338.069C465.108 342.167 461.78 345.486 457.674 345.486C453.564 345.486 450.236 342.167 450.236 338.069V331.752H465.108V338.069Z" fill="#DEE7F5"/>
<path fill-rule="evenodd" clip-rule="evenodd" d="M479.986 338.069C479.986 342.167 476.653 345.486 472.543 345.486C468.443 345.486 465.115 342.167 465.115 338.069V331.752H479.986V338.069Z" fill="#0054A6"/>
<path fill-rule="evenodd" clip-rule="evenodd" d="M494.861 338.116C494.861 342.21 491.528 345.532 487.428 345.532C483.318 345.527 479.99 342.209 479.99 338.116V331.799H494.861V338.116Z" fill="#DEE7F5"/>
<path fill-rule="evenodd" clip-rule="evenodd" d="M470.102 405.016C470.102 402.817 468.312 401.034 466.109 401.034H417.493C415.283 401.034 413.494 402.818 413.494 405.016V408.339H470.102L470.102 405.016Z" fill="#0054A6"/>
<path fill-rule="evenodd" clip-rule="evenodd" d="M479.989 331.796L464.33 313.714H477.098L494.86 331.796H479.989Z" fill="white"/>
<path fill-rule="evenodd" clip-rule="evenodd" d="M450.238 331.749L440.51 313.667L452.442 313.715L465.103 331.749H450.238Z" fill="white"/>
<path fill-rule="evenodd" clip-rule="evenodd" d="M420.487 331.781L415.871 313.699L427.994 313.667L435.374 331.765L420.487 331.781Z" fill="white"/>
<path fill-rule="evenodd" clip-rule="evenodd" d="M390.791 331.797L391.675 313.715L403.793 313.699L405.657 331.797H390.791Z" fill="white"/>
<path fill-rule="evenodd" clip-rule="evenodd" d="M316.789 331.796L331.64 313.714H319.281L301.924 331.796H316.789Z" fill="white"/>
<path fill-rule="evenodd" clip-rule="evenodd" d="M346.547 331.749L355.466 313.667L343.534 313.715L331.682 331.749H346.547Z" fill="white"/>
<path fill-rule="evenodd" clip-rule="evenodd" d="M376.301 331.784L379.927 313.66L367.979 313.671L361.414 331.769L376.301 331.784Z" fill="white"/>
<path fill-rule="evenodd" clip-rule="evenodd" d="M162.631 271.909C162.336 271.909 162.095 271.669 162.095 271.375C162.095 271.08 162.336 270.84 162.631 270.84L163.716 270.854C164.011 270.86 164.245 271.105 164.238 271.401C164.231 271.697 163.984 271.929 163.69 271.922L162.631 271.909ZM157.837 271.116C158.131 271.08 158.398 271.287 158.434 271.581C158.469 271.875 158.26 272.14 157.965 272.176C157.615 272.216 157.265 272.26 156.916 272.31C156.624 272.352 156.352 272.15 156.308 271.859C156.265 271.567 156.468 271.295 156.761 271.253C157.119 271.201 157.479 271.157 157.837 271.116ZM151.452 272.364C151.737 272.284 152.033 272.45 152.113 272.734C152.193 273.017 152.028 273.313 151.743 273.393L150.729 273.69C150.446 273.778 150.146 273.621 150.058 273.339C149.97 273.057 150.128 272.758 150.412 272.67C150.756 272.564 151.103 272.462 151.452 272.364ZM145.341 274.605C145.609 274.479 145.928 274.595 146.054 274.863C146.18 275.128 146.063 275.448 145.796 275.574C145.476 275.72 145.154 275.869 144.84 276.027C144.575 276.159 144.253 276.051 144.12 275.788C143.99 275.522 144.098 275.2 144.363 275.071L145.341 274.605ZM139.663 277.775C139.909 277.611 140.242 277.677 140.408 277.921C140.573 278.164 140.509 278.498 140.262 278.662L139.391 279.259C139.15 279.431 138.814 279.375 138.644 279.133C138.472 278.893 138.529 278.56 138.77 278.388L139.663 277.775ZM134.554 281.794C134.77 281.594 135.11 281.606 135.311 281.821C135.513 282.037 135.501 282.375 135.283 282.577L134.516 283.304C134.305 283.509 133.964 283.505 133.758 283.294C133.551 283.084 133.556 282.744 133.767 282.539L134.554 281.794ZM130.136 286.557C130.318 286.326 130.656 286.286 130.889 286.467C131.122 286.651 131.161 286.987 130.979 287.218C130.76 287.492 130.548 287.77 130.337 288.049C130.16 288.289 129.824 288.341 129.586 288.165C129.347 287.989 129.297 287.654 129.472 287.418C129.695 287.135 129.91 286.841 130.136 286.557ZM126.516 291.95C126.66 291.693 126.988 291.603 127.247 291.747C127.505 291.888 127.596 292.216 127.452 292.474C127.28 292.777 127.114 293.089 126.948 293.398C126.812 293.66 126.487 293.762 126.226 293.626C125.964 293.488 125.861 293.165 125.998 292.905C126.168 292.585 126.338 292.266 126.516 291.95ZM123.793 297.847C123.894 297.569 124.202 297.427 124.48 297.527C124.757 297.629 124.901 297.936 124.799 298.212L124.449 299.205C124.355 299.486 124.05 299.638 123.77 299.544C123.49 299.45 123.337 299.149 123.43 298.867C123.558 298.538 123.67 298.182 123.793 297.847ZM122.035 304.096C122.091 303.807 122.372 303.617 122.663 303.673C122.952 303.727 123.143 304.008 123.088 304.298L122.898 305.335C122.85 305.626 122.575 305.824 122.282 305.776C121.99 305.728 121.793 305.452 121.841 305.161L122.035 304.096ZM121.288 310.544C121.297 310.248 121.545 310.019 121.841 310.027C122.136 310.037 122.368 310.284 122.359 310.578L122.334 311.632C122.331 311.926 122.09 312.164 121.795 312.164C121.498 312.162 121.26 311.92 121.262 311.624C121.264 311.265 121.276 310.903 121.288 310.544ZM121.552 317.025C121.516 316.732 121.727 316.466 122.02 316.43C122.313 316.394 122.582 316.604 122.616 316.898C122.656 317.245 122.704 317.595 122.754 317.942C122.797 318.234 122.596 318.505 122.302 318.549C122.01 318.591 121.738 318.39 121.695 318.098C121.644 317.74 121.592 317.383 121.552 317.025ZM122.831 323.391C122.748 323.107 122.912 322.812 123.196 322.728C123.479 322.646 123.778 322.81 123.86 323.092C123.956 323.431 124.056 323.769 124.163 324.104C124.252 324.386 124.096 324.686 123.814 324.775C123.533 324.863 123.23 324.707 123.141 324.428C123.031 324.084 122.93 323.736 122.831 323.391ZM125.099 329.471C124.974 329.203 125.09 328.886 125.358 328.76C125.626 328.636 125.945 328.752 126.071 329.018C126.218 329.337 126.371 329.655 126.528 329.966C126.66 330.232 126.555 330.553 126.291 330.685C126.026 330.817 125.704 330.711 125.571 330.448C125.406 330.134 125.248 329.795 125.099 329.471ZM128.301 335.122C128.136 334.876 128.201 334.542 128.445 334.379C128.69 334.215 129.024 334.279 129.19 334.522C129.385 334.814 129.586 335.104 129.791 335.387C129.963 335.627 129.909 335.96 129.669 336.134C129.429 336.306 129.095 336.252 128.921 336.012C128.711 335.719 128.503 335.421 128.301 335.122ZM132.353 340.203C132.15 339.987 132.16 339.65 132.376 339.448C132.591 339.246 132.93 339.256 133.133 339.472L133.864 340.233C134.072 340.443 134.07 340.782 133.86 340.988C133.65 341.196 133.31 341.194 133.102 340.984C132.848 340.728 132.6 340.467 132.353 340.203ZM137.146 344.589C136.913 344.409 136.871 344.074 137.052 343.84C137.232 343.609 137.57 343.565 137.803 343.746C138.081 343.964 138.361 344.178 138.645 344.385C138.884 344.561 138.935 344.895 138.759 345.134C138.583 345.37 138.247 345.422 138.01 345.246L137.146 344.589ZM142.57 348.178C142.312 348.037 142.217 347.711 142.359 347.453C142.502 347.194 142.828 347.1 143.087 347.242L144.019 347.743C144.282 347.879 144.384 348.202 144.248 348.464C144.11 348.724 143.786 348.828 143.524 348.69L142.57 348.178ZM148.491 350.871C148.213 350.771 148.069 350.465 148.169 350.188C148.269 349.91 148.576 349.766 148.854 349.866L149.853 350.214C150.134 350.306 150.286 350.609 150.193 350.889C150.1 351.169 149.796 351.32 149.516 351.228L148.491 350.871ZM154.763 352.599C154.474 352.543 154.284 352.263 154.339 351.974C154.394 351.684 154.675 351.494 154.966 351.55C155.309 351.616 155.663 351.668 156.004 351.736C156.296 351.78 156.495 352.055 156.449 352.347C156.403 352.637 156.128 352.836 155.836 352.79L154.763 352.599ZM161.233 353.32C160.937 353.312 160.705 353.064 160.714 352.768C160.723 352.475 160.971 352.243 161.267 352.253L162.323 352.273C162.62 352.275 162.858 352.517 162.856 352.812C162.855 353.106 162.614 353.344 162.317 353.342L161.233 353.32ZM167.735 353.032C167.442 353.07 167.173 352.862 167.136 352.571C167.099 352.277 167.307 352.009 167.6 351.971C167.95 351.93 168.3 351.884 168.647 351.83C168.94 351.786 169.214 351.985 169.258 352.277C169.304 352.569 169.102 352.84 168.811 352.886C168.452 352.94 168.095 352.988 167.735 353.032ZM174.111 351.734C173.827 351.816 173.53 351.654 173.447 351.37C173.365 351.087 173.528 350.791 173.813 350.707C174.151 350.611 174.489 350.507 174.825 350.402C175.108 350.314 175.409 350.47 175.498 350.751C175.587 351.031 175.431 351.332 175.15 351.42C174.804 351.53 174.459 351.636 174.111 351.734ZM180.203 349.447C179.935 349.575 179.616 349.461 179.49 349.193C179.362 348.925 179.476 348.608 179.744 348.482C180.064 348.332 180.381 348.178 180.697 348.021C180.96 347.887 181.282 347.993 181.417 348.256C181.55 348.52 181.444 348.842 181.179 348.975C180.857 349.137 180.53 349.295 180.203 349.447ZM185.857 346.233C185.614 346.401 185.28 346.337 185.113 346.095C184.946 345.85 185.009 345.518 185.253 345.352L186.12 344.747C186.36 344.575 186.695 344.629 186.869 344.869C187.041 345.107 186.987 345.44 186.747 345.614L185.857 346.233ZM190.937 342.176C190.722 342.378 190.382 342.37 190.18 342.154C189.977 341.941 189.987 341.601 190.202 341.399C190.458 341.16 190.707 340.906 190.963 340.668C191.172 340.46 191.512 340.46 191.72 340.668C191.929 340.878 191.929 341.218 191.72 341.425L190.937 342.176ZM195.32 337.381C195.139 337.614 194.801 337.656 194.568 337.475C194.334 337.295 194.291 336.959 194.472 336.726L195.109 335.887C195.283 335.647 195.618 335.595 195.858 335.769C196.097 335.943 196.149 336.276 195.975 336.516C195.762 336.807 195.538 337.093 195.32 337.381ZM198.899 331.958C198.757 332.215 198.432 332.313 198.171 332.171C197.912 332.032 197.815 331.706 197.956 331.446L198.455 330.515C198.589 330.254 198.913 330.15 199.176 330.284C199.439 330.418 199.543 330.741 199.408 331.003L198.899 331.958ZM201.576 326.045C201.476 326.323 201.167 326.467 200.89 326.367C200.611 326.267 200.467 325.959 200.567 325.684L200.911 324.689C201.002 324.408 201.306 324.256 201.586 324.346C201.869 324.436 202.022 324.739 201.931 325.019L201.576 326.045ZM203.285 319.78C203.23 320.071 202.95 320.261 202.661 320.209C202.37 320.155 202.177 319.876 202.231 319.586L202.413 318.547C202.459 318.256 202.735 318.056 203.027 318.102C203.32 318.148 203.518 318.423 203.472 318.715L203.285 319.78ZM203.984 313.328C203.977 313.624 203.73 313.855 203.435 313.85C203.139 313.841 202.905 313.596 202.912 313.302L202.93 312.247C202.93 311.952 203.169 311.712 203.466 311.712C203.761 311.712 204.001 311.952 204.001 312.247L203.984 313.328ZM203.671 306.849C203.708 307.142 203.5 307.41 203.208 307.446C202.914 307.484 202.645 307.276 202.609 306.985C202.575 306.653 202.519 306.27 202.461 305.942C202.415 305.652 202.615 305.377 202.906 305.331C203.199 305.285 203.474 305.482 203.52 305.774C203.573 306.126 203.635 306.497 203.671 306.849ZM202.343 300.493C202.428 300.775 202.267 301.074 201.984 301.158C201.7 301.242 201.401 301.08 201.317 300.798L201.007 299.788C200.916 299.508 201.069 299.207 201.351 299.115C201.632 299.025 201.935 299.179 202.026 299.458L202.343 300.493ZM200.027 294.427C200.156 294.693 200.043 295.012 199.777 295.14C199.511 295.268 199.19 295.156 199.062 294.891L198.595 293.944C198.461 293.682 198.565 293.358 198.827 293.225C199.092 293.091 199.414 293.195 199.55 293.456C199.715 293.778 199.872 294.102 200.027 294.427ZM196.782 288.802C196.952 289.044 196.89 289.378 196.648 289.545C196.404 289.713 196.069 289.653 195.902 289.412L195.292 288.549C195.118 288.309 195.17 287.975 195.409 287.802C195.648 287.628 195.984 287.68 196.158 287.92L196.782 288.802ZM192.696 283.753C192.899 283.967 192.891 284.304 192.677 284.508C192.463 284.712 192.123 284.704 191.919 284.49L191.181 283.733C190.973 283.525 190.973 283.186 191.181 282.978C191.392 282.769 191.73 282.769 191.939 282.978L192.696 283.753ZM187.868 279.403C188.102 279.58 188.148 279.918 187.967 280.152C187.788 280.385 187.452 280.429 187.216 280.25L186.369 279.616C186.13 279.443 186.077 279.109 186.251 278.871C186.426 278.632 186.761 278.58 187 278.754L187.868 279.403ZM182.417 275.855C182.678 275.997 182.773 276.323 182.633 276.58C182.491 276.838 182.165 276.934 181.906 276.794L180.977 276.305C180.709 276.169 180.603 275.847 180.736 275.584C180.87 275.32 181.192 275.214 181.456 275.348C181.769 275.522 182.101 275.686 182.417 275.855ZM176.475 273.207C176.753 273.305 176.901 273.61 176.802 273.888C176.704 274.166 176.398 274.313 176.119 274.216L175.118 273.874C174.835 273.784 174.681 273.483 174.773 273.201C174.864 272.921 175.167 272.768 175.448 272.858C175.792 272.971 176.134 273.087 176.475 273.207ZM170.186 271.525C170.478 271.577 170.672 271.855 170.62 272.146C170.568 272.436 170.29 272.63 169.998 272.58L168.954 272.4C168.661 272.356 168.462 272.082 168.506 271.791C168.551 271.501 168.826 271.301 169.117 271.345C169.474 271.399 169.83 271.463 170.186 271.525Z" fill="#D0D9EE"/>
<path fill-rule="evenodd" clip-rule="evenodd" d="M347.246 45.7444C346.972 45.7444 346.75 45.5225 346.75 45.2491C346.75 44.9754 346.972 44.7559 347.246 44.7559L348.25 44.7677C348.524 44.7738 348.739 45.0014 348.733 45.2732C348.727 45.5467 348.499 45.7627 348.225 45.7564L347.246 45.7444ZM342.81 45.0075C343.082 44.9756 343.329 45.1691 343.362 45.4409C343.395 45.7104 343.2 45.9581 342.929 45.9901C342.604 46.0283 342.281 46.068 341.958 46.1141C341.687 46.1541 341.434 45.9662 341.395 45.6967C341.356 45.4269 341.543 45.1753 341.814 45.1374C342.145 45.0874 342.477 45.0475 342.81 45.0075ZM336.9 46.1659C337.165 46.092 337.439 46.2438 337.513 46.5077C337.588 46.7693 337.434 47.0428 337.171 47.1169L336.232 47.3925C335.971 47.4743 335.692 47.3267 335.611 47.067C335.53 46.8074 335.675 46.5298 335.938 46.4477C336.257 46.3498 336.579 46.2538 336.9 46.1659ZM331.246 48.2394C331.494 48.1215 331.789 48.2292 331.905 48.477C332.022 48.7228 331.914 49.0183 331.666 49.1341C331.371 49.2699 331.073 49.4097 330.782 49.5555C330.536 49.6753 330.239 49.5755 330.117 49.3318C329.995 49.0881 330.095 48.7905 330.34 48.6686L331.246 48.2394ZM325.992 51.1734C326.218 51.0197 326.528 51.0797 326.68 51.3074C326.833 51.5331 326.773 51.8406 326.547 51.9924L325.738 52.5456C325.516 52.7035 325.206 52.6516 325.047 52.4298C324.889 52.2061 324.941 51.8985 325.165 51.7408L325.992 51.1734ZM321.263 54.8906C321.464 54.7048 321.777 54.7169 321.965 54.9167C322.151 55.1164 322.139 55.4299 321.939 55.6157L321.228 56.2867C321.033 56.4786 320.718 56.4744 320.526 56.2788C320.336 56.0849 320.34 55.7717 320.535 55.5798L321.263 54.8906ZM317.175 59.2989C317.345 59.0852 317.657 59.0471 317.872 59.2168C318.088 59.3847 318.123 59.6963 317.954 59.9119C317.752 60.1656 317.556 60.4213 317.361 60.6809C317.197 60.9025 316.886 60.9485 316.666 60.7866C316.446 60.625 316.399 60.3153 316.561 60.0958C316.767 59.8319 316.966 59.5603 317.175 59.2989ZM313.827 64.2902C313.96 64.0523 314.262 63.9665 314.501 64.1004C314.74 64.2323 314.825 64.5338 314.692 64.7734C314.532 65.0552 314.379 65.3426 314.225 65.6302C314.099 65.8718 313.799 65.9658 313.556 65.84C313.314 65.7142 313.219 65.4145 313.345 65.1729C313.503 64.8775 313.662 64.5818 313.827 64.2902ZM311.306 69.745C311.399 69.4893 311.684 69.3576 311.941 69.4516C312.198 69.5453 312.33 69.8292 312.236 70.0845L311.912 71.0035C311.825 71.263 311.544 71.403 311.284 71.3169C311.024 71.2311 310.884 70.9514 310.97 70.6919C311.088 70.3861 311.192 70.0566 311.306 69.745ZM309.679 75.5294C309.73 75.2618 309.991 75.086 310.26 75.1379C310.529 75.1877 310.705 75.4474 310.653 75.715L310.477 76.6756C310.432 76.9453 310.178 77.129 309.907 77.0832C309.637 77.0393 309.455 76.7835 309.499 76.514L309.679 75.5294ZM308.987 81.4956C308.996 81.2238 309.225 81.0083 309.499 81.0183C309.771 81.0262 309.986 81.2541 309.977 81.5275L309.954 82.5023C309.953 82.7757 309.729 82.9957 309.456 82.9936C309.182 82.9936 308.962 82.7699 308.963 82.4962C308.966 82.1628 308.976 81.8291 308.987 81.4956ZM309.232 87.4938C309.198 87.2222 309.393 86.9766 309.665 86.9445C309.936 86.9105 310.184 87.1043 310.217 87.374C310.253 87.6976 310.298 88.0211 310.345 88.3427C310.384 88.6122 310.197 88.864 309.927 88.9038C309.655 88.9436 309.404 88.7559 309.364 88.4864C309.317 88.1567 309.27 87.8251 309.232 87.4938ZM310.415 93.3839C310.338 93.1223 310.489 92.8487 310.753 92.7726C311.016 92.6968 311.291 92.8466 311.367 93.1082C311.457 93.4218 311.548 93.7334 311.648 94.045C311.731 94.3046 311.586 94.5822 311.325 94.6661C311.063 94.7459 310.785 94.602 310.703 94.3425C310.6 94.0271 310.506 93.7055 310.415 93.3839ZM312.515 99.0125C312.398 98.7649 312.506 98.4693 312.754 98.3533C313.001 98.2375 313.297 98.3454 313.413 98.5912C313.549 98.8867 313.691 99.1804 313.837 99.4701C313.96 99.7138 313.861 100.011 313.617 100.135C313.372 100.257 313.073 100.159 312.951 99.9154C312.798 99.6259 312.652 99.3102 312.515 99.0125ZM315.477 104.24C315.324 104.014 315.384 103.704 315.611 103.553C315.838 103.401 316.147 103.461 316.299 103.687C316.481 103.954 316.666 104.224 316.855 104.487C317.016 104.707 316.965 105.017 316.744 105.177C316.521 105.337 316.211 105.286 316.051 105.065C315.857 104.793 315.665 104.517 315.477 104.24ZM319.226 108.942C319.039 108.744 319.048 108.43 319.247 108.244C319.447 108.057 319.76 108.067 319.949 108.264L320.626 108.971C320.818 109.165 320.816 109.479 320.622 109.671C320.427 109.862 320.113 109.86 319.92 109.666C319.685 109.429 319.455 109.187 319.226 108.942ZM323.662 113.002C323.447 112.834 323.408 112.525 323.575 112.309C323.742 112.093 324.055 112.055 324.271 112.221C324.528 112.423 324.787 112.621 325.051 112.812C325.27 112.974 325.318 113.286 325.155 113.505C324.993 113.725 324.682 113.771 324.461 113.609L323.662 113.002ZM328.681 116.322C328.442 116.192 328.354 115.891 328.486 115.651C328.618 115.413 328.921 115.325 329.159 115.457L330.023 115.92C330.266 116.046 330.36 116.346 330.234 116.588C330.108 116.829 329.807 116.923 329.565 116.797L328.681 116.322ZM334.161 118.815C333.904 118.723 333.77 118.439 333.863 118.182C333.955 117.926 334.24 117.792 334.497 117.884L335.422 118.205C335.682 118.291 335.822 118.573 335.737 118.831C335.651 119.09 335.369 119.23 335.11 119.144L334.161 118.815ZM339.965 120.414C339.697 120.362 339.521 120.103 339.572 119.835C339.623 119.568 339.883 119.392 340.153 119.442C340.47 119.504 340.798 119.552 341.113 119.613C341.384 119.657 341.568 119.911 341.526 120.181C341.483 120.45 341.229 120.634 340.958 120.59L339.965 120.414ZM345.951 121.082C345.678 121.073 345.464 120.844 345.472 120.572C345.48 120.299 345.71 120.085 345.983 120.093L346.962 120.113C347.236 120.115 347.456 120.337 347.455 120.61C347.453 120.884 347.229 121.104 346.957 121.102L345.951 121.082ZM351.968 120.814C351.698 120.85 351.449 120.656 351.414 120.386C351.38 120.117 351.573 119.867 351.844 119.833C352.168 119.793 352.491 119.751 352.814 119.701C353.084 119.662 353.338 119.845 353.379 120.115C353.421 120.384 353.235 120.638 352.964 120.68C352.634 120.73 352.301 120.774 351.968 120.814ZM357.87 119.614C357.607 119.689 357.332 119.54 357.255 119.276C357.179 119.014 357.33 118.741 357.593 118.665C357.907 118.575 358.219 118.479 358.531 118.381C358.792 118.299 359.071 118.443 359.153 118.703C359.235 118.963 359.091 119.242 358.831 119.324C358.512 119.424 358.191 119.522 357.87 119.614ZM363.507 117.498C363.259 117.614 362.964 117.508 362.847 117.263C362.73 117.015 362.835 116.719 363.083 116.603C363.379 116.466 363.672 116.324 363.964 116.176C364.208 116.054 364.507 116.152 364.631 116.396C364.754 116.639 364.656 116.937 364.411 117.059C364.112 117.211 363.81 117.357 363.507 117.498ZM368.74 114.524C368.514 114.678 368.204 114.62 368.05 114.394C367.896 114.169 367.955 113.861 368.18 113.707L368.983 113.148C369.205 112.988 369.515 113.038 369.675 113.26C369.836 113.48 369.785 113.789 369.563 113.949L368.74 114.524ZM373.44 110.769C373.241 110.957 372.927 110.947 372.738 110.749C372.551 110.549 372.56 110.236 372.759 110.05C372.997 109.829 373.227 109.593 373.464 109.375C373.657 109.181 373.971 109.181 374.165 109.375C374.358 109.567 374.358 109.88 374.165 110.074L373.44 110.769ZM377.495 106.331C377.328 106.547 377.016 106.585 376.8 106.419C376.584 106.251 376.545 105.939 376.712 105.724L377.301 104.947C377.462 104.727 377.772 104.679 377.994 104.839C378.215 105.001 378.263 105.31 378.102 105.53C377.905 105.8 377.698 106.063 377.495 106.331ZM380.807 101.312C380.677 101.551 380.376 101.641 380.135 101.509C379.895 101.379 379.805 101.08 379.936 100.84L380.397 99.9771C380.522 99.7355 380.821 99.6395 381.065 99.7634C381.308 99.8873 381.404 100.187 381.28 100.428L380.807 101.312ZM383.285 95.8408C383.192 96.0985 382.908 96.2324 382.65 96.1385C382.393 96.0466 382.259 95.7629 382.352 95.5053L382.67 94.5866C382.755 94.3268 383.035 94.185 383.295 94.2689C383.556 94.3529 383.698 94.6326 383.614 94.8921L383.285 95.8408ZM384.867 90.0444C384.818 90.312 384.558 90.4899 384.289 90.4399C384.02 90.3899 383.842 90.132 383.891 89.8646L384.061 88.9017C384.102 88.632 384.358 88.4483 384.628 88.4902C384.899 88.5341 385.083 88.7878 385.04 89.0575L384.867 90.0444ZM385.514 84.0723C385.508 84.3458 385.28 84.5618 385.006 84.5555C384.732 84.5476 384.515 84.3218 384.522 84.0481L384.538 83.0715C384.538 82.7997 384.761 82.5781 385.034 82.5781C385.309 82.5781 385.53 82.7997 385.53 83.0715L385.514 84.0723ZM385.224 78.0782C385.258 78.3479 385.066 78.5953 384.795 78.6293C384.524 78.6632 384.275 78.4714 384.241 78.2019C384.21 77.8961 384.159 77.5406 384.105 77.2371C384.062 76.9674 384.247 76.7137 384.516 76.6719C384.787 76.6298 385.042 76.8137 385.084 77.0834C385.134 77.4069 385.191 77.7524 385.224 78.0782ZM383.996 72.1957C384.074 72.4554 383.925 72.7331 383.663 72.811C383.401 72.8868 383.124 72.7389 383.046 72.4773L382.758 71.5425C382.674 71.2849 382.817 71.0052 383.077 70.9214C383.338 70.8375 383.617 70.9775 383.702 71.237L383.996 72.1957ZM381.852 66.5811C381.971 66.8268 381.868 67.1242 381.621 67.2423C381.374 67.36 381.078 67.2561 380.959 67.0107L380.527 66.1336C380.403 65.892 380.499 65.5923 380.743 65.4686C380.987 65.3449 381.285 65.4407 381.411 65.6844C381.563 65.9799 381.709 66.2815 381.852 66.5811ZM378.849 61.3759C379.006 61.5996 378.949 61.9093 378.725 62.0632C378.5 62.2188 378.19 62.163 378.035 61.9393L377.47 61.1403C377.309 60.9204 377.357 60.6109 377.579 60.4492C377.8 60.2893 378.11 60.3374 378.271 60.559L378.849 61.3759ZM375.067 56.7041C375.257 56.902 375.249 57.2155 375.05 57.4033C374.852 57.591 374.538 57.5829 374.349 57.3873L373.667 56.6862C373.474 56.4925 373.474 56.1789 373.667 55.987C373.86 55.7933 374.175 55.7933 374.368 55.987L375.067 56.7041ZM370.6 52.6774C370.816 52.8432 370.858 53.1548 370.692 53.3706C370.526 53.5882 370.213 53.6282 369.997 53.4626L369.213 52.8772C368.991 52.7155 368.943 52.4058 369.105 52.1863C369.266 51.9647 369.576 51.9166 369.797 52.0765L370.6 52.6774ZM365.557 49.3958C365.797 49.5257 365.886 49.8271 365.755 50.067C365.625 50.3066 365.323 50.3945 365.082 50.2647L364.223 49.8113C363.974 49.6873 363.876 49.3878 364.001 49.1441C364.124 48.9005 364.422 48.8026 364.667 48.9265C364.957 49.086 365.263 49.2381 365.557 49.3958ZM360.057 46.9449C360.315 47.0349 360.451 47.3183 360.36 47.576C360.27 47.8318 359.985 47.9676 359.728 47.8776L358.801 47.562C358.54 47.4781 358.398 47.1984 358.482 46.9389C358.566 46.6791 358.847 46.5373 359.107 46.6212C359.425 46.7252 359.743 46.8331 360.057 46.9449ZM354.237 45.3888C354.506 45.4367 354.686 45.6925 354.639 45.9622C354.591 46.2317 354.333 46.4115 354.064 46.3638L353.097 46.198C352.827 46.158 352.642 45.9043 352.683 45.6346C352.725 45.3651 352.978 45.1812 353.249 45.2214C353.578 45.2711 353.908 45.3311 354.237 45.3888Z" fill="#D0D9EE"/>
<path fill-rule="evenodd" clip-rule="evenodd" d="M92.2978 375.504C92.0395 375.504 91.8291 375.294 91.8291 375.037C91.8291 374.777 92.0395 374.567 92.2978 374.567C92.6264 374.569 92.9429 374.581 93.2694 374.603C93.5278 374.621 93.7231 374.845 93.7062 375.102C93.6882 375.36 93.4636 375.556 93.2055 375.538C92.8988 375.518 92.6045 375.506 92.2978 375.504ZM88.5289 375.128C88.7762 375.051 89.0407 375.188 89.1177 375.436C89.1948 375.684 89.0557 375.945 88.8082 376.021C88.5207 376.107 88.2333 376.209 87.9538 376.319C87.7123 376.413 87.4391 376.295 87.3447 376.055C87.2497 375.814 87.3677 375.542 87.6092 375.446C87.9079 375.328 88.2214 375.218 88.5289 375.128ZM83.511 378.027C83.6992 377.849 83.9977 377.859 84.1751 378.047C84.3524 378.234 84.3434 378.532 84.1539 378.71C83.9325 378.916 83.7264 379.127 83.5189 379.347C83.3447 379.539 83.0462 379.553 82.8549 379.379C82.6635 379.205 82.6495 378.908 82.8238 378.718C83.0462 378.48 83.2716 378.246 83.511 378.027ZM80.2739 382.824C80.3649 382.581 80.6373 382.461 80.8796 382.553C81.1222 382.645 81.2444 382.916 81.1522 383.158C81.0461 383.44 80.9477 383.721 80.8627 384.009C80.7896 384.256 80.5291 384.4 80.2797 384.326C80.0313 384.254 79.8881 383.995 79.9614 383.747C80.0585 383.432 80.1575 383.132 80.2739 382.824ZM79.4845 388.555C79.4605 388.297 79.6499 388.07 79.9081 388.046C80.1665 388.02 80.3961 388.209 80.4199 388.467C80.4449 388.751 80.4779 389.084 80.5331 389.362C80.5772 389.615 80.4059 389.859 80.1496 389.901C79.8941 389.945 79.6507 389.773 79.6077 389.52C79.5507 389.21 79.5114 388.869 79.4845 388.555ZM81.2953 394.05C81.1591 393.828 81.2293 393.538 81.4505 393.405C81.6719 393.271 81.9613 393.341 82.0966 393.56C82.2518 393.816 82.4181 394.072 82.5944 394.313C82.7456 394.523 82.6976 394.815 82.4872 394.966C82.2769 395.118 81.9834 395.07 81.8322 394.859C81.6429 394.595 81.4645 394.327 81.2953 394.05ZM85.3417 398.19C85.1223 398.05 85.0593 397.761 85.1994 397.543C85.3396 397.325 85.6302 397.264 85.8484 397.401C86.1058 397.569 86.3634 397.707 86.6247 397.861C86.853 397.983 86.939 398.268 86.8168 398.496C86.6946 398.724 86.4091 398.81 86.181 398.686C85.8996 398.538 85.6082 398.364 85.3417 398.19ZM90.8016 400.142C90.5453 400.112 90.3598 399.878 90.389 399.622C90.4191 399.365 90.6524 399.181 90.91 399.209C91.2085 399.247 91.5089 399.267 91.8105 399.281C92.0689 399.289 92.2711 399.509 92.2621 399.766C92.2521 400.024 92.0338 400.226 91.7744 400.216C91.4516 400.204 91.122 400.18 90.8016 400.142ZM96.5656 399.504C96.3212 399.588 96.0528 399.461 95.9676 399.217C95.8815 398.973 96.0098 398.706 96.255 398.62C96.5303 398.534 96.8269 398.404 97.0933 398.29C97.3297 398.184 97.6082 398.292 97.7133 398.528C97.8183 398.764 97.7112 399.041 97.4749 399.145C97.1927 399.269 96.8581 399.413 96.5656 399.504ZM101.463 396.401C101.282 396.586 100.985 396.59 100.799 396.409C100.614 396.229 100.611 395.931 100.792 395.745C101.006 395.53 101.205 395.31 101.403 395.08C101.571 394.883 101.868 394.859 102.065 395.026C102.264 395.192 102.287 395.488 102.12 395.685C101.908 395.931 101.693 396.171 101.463 396.401ZM104.501 391.475C104.42 391.721 104.154 391.853 103.908 391.773C103.662 391.691 103.529 391.427 103.61 391.179C103.705 390.896 103.791 390.606 103.864 390.314C103.927 390.063 104.183 389.911 104.435 389.975C104.687 390.037 104.839 390.292 104.776 390.544C104.695 390.858 104.604 391.167 104.501 391.475ZM105.056 385.719C105.089 385.974 104.91 386.212 104.653 386.244C104.395 386.278 104.159 386.098 104.125 385.842C104.085 385.543 104.034 385.249 103.974 384.954C103.92 384.702 104.083 384.452 104.336 384.4C104.589 384.346 104.839 384.508 104.893 384.76C104.962 385.076 105.013 385.399 105.056 385.719ZM103.021 380.302C103.164 380.517 103.106 380.809 102.891 380.953C102.674 381.097 102.383 381.037 102.24 380.823C102.075 380.573 101.895 380.33 101.712 380.092C101.552 379.89 101.586 379.595 101.79 379.435C101.994 379.275 102.29 379.311 102.45 379.513C102.648 379.766 102.844 380.034 103.021 380.302ZM98.8072 376.329C99.0315 376.459 99.1068 376.746 98.9756 376.97C98.8454 377.192 98.557 377.268 98.3334 377.138C98.073 376.984 97.8077 376.842 97.5361 376.709C97.3038 376.595 97.2077 376.315 97.3218 376.083C97.435 375.852 97.7185 375.754 97.9508 375.867C98.2424 376.015 98.5258 376.163 98.8072 376.329Z" fill="#D0D9EE"/>
<path fill-rule="evenodd" clip-rule="evenodd" d="M157.711 322.26C153.926 322.26 150.867 319.194 150.867 315.431C150.867 311.656 153.926 308.608 157.711 308.608C161.495 308.608 164.557 311.656 164.557 315.431C164.559 319.194 161.495 322.26 157.711 322.26ZM172.523 315.431C172.523 313.048 174.116 311.049 176.295 310.428C175.86 308.816 175.214 307.276 174.391 305.862C172.425 306.942 169.883 306.669 168.216 305.019L168.18 304.981L168.144 304.931H168.132C167.969 304.771 167.797 304.605 167.636 304.449C167.768 304.571 167.918 304.707 168.057 304.843C166.487 303.181 166.223 300.712 167.299 298.799C165.878 297.98 164.346 297.333 162.727 296.901C162.094 299.072 160.091 300.66 157.712 300.66C155.335 300.66 153.329 299.073 152.696 296.901C151.079 297.333 149.548 297.98 148.113 298.799C149.199 300.736 148.936 303.219 147.319 304.893L147.74 304.493C147.58 304.657 147.406 304.819 147.242 304.981L147.159 305.068C145.464 306.668 142.972 306.942 141.03 305.861C140.21 307.275 139.56 308.815 139.127 310.427C141.306 311.048 142.899 313.062 142.899 315.431C142.899 317.804 141.306 319.799 139.127 320.42C139.56 322.036 140.21 323.572 141.03 324.99C143 323.91 145.512 324.185 147.196 325.819L147.23 325.871L147.268 325.895C148.921 327.573 149.21 330.087 148.113 332.049C149.548 332.868 151.078 333.515 152.696 333.946C153.316 331.841 155.222 330.277 157.513 330.189H157.911C160.204 330.277 162.108 331.841 162.726 333.946C164.346 333.515 165.877 332.868 167.299 332.049C166.223 330.101 166.5 327.607 168.119 325.933L168.132 325.921L168.244 325.809C169.923 324.185 172.425 323.909 174.391 324.99C175.215 323.572 175.849 322.036 176.295 320.42C174.117 319.799 172.522 317.804 172.523 315.431Z" fill="#D0D9EE"/>
<path fill-rule="evenodd" clip-rule="evenodd" d="M157.712 320.633C154.824 320.633 152.496 318.302 152.496 315.431C152.496 312.551 154.824 310.23 157.712 310.23C160.6 310.23 162.927 312.551 162.927 315.431C162.928 318.3 160.6 320.633 157.712 320.633ZM157.712 308.608C153.927 308.608 150.867 311.656 150.867 315.431C150.868 319.195 153.927 322.261 157.712 322.261C161.496 322.261 164.558 319.195 164.558 315.431C164.559 311.656 161.496 308.608 157.712 308.608Z" fill="#F2F2F3"/>
<path fill-rule="evenodd" clip-rule="evenodd" d="M147.231 304.982L147.16 305.069L147.243 304.982H147.231ZM147.321 304.894L147.741 304.494C147.581 304.658 147.407 304.82 147.243 304.982L147.321 304.894ZM157.516 330.19L157.713 330.198L157.912 330.19H157.516ZM168.058 304.844C167.919 304.708 167.769 304.572 167.637 304.45C167.798 304.606 167.969 304.772 168.133 304.932L168.058 304.844Z" fill="#BAC1C2"/>
<path fill-rule="evenodd" clip-rule="evenodd" d="M157.713 326.24C151.72 326.24 146.866 321.407 146.866 315.431C146.866 309.456 151.719 304.611 157.713 304.611C163.704 304.611 168.562 309.456 168.562 315.431C168.562 321.407 163.704 326.24 157.713 326.24ZM168.218 305.018L168.185 304.986L168.143 304.936C165.462 302.29 161.778 300.664 157.713 300.664C153.623 300.664 149.92 302.312 147.237 304.986C144.56 307.659 142.9 311.35 142.9 315.431C142.9 319.483 144.537 323.157 147.191 325.829L147.237 325.865L147.269 325.897C149.947 328.555 153.636 330.197 157.713 330.197C161.773 330.197 165.446 328.573 168.124 325.933L168.137 325.917L168.185 325.865L168.237 325.819L168.249 325.813C170.891 323.144 172.52 319.471 172.52 315.43C172.522 311.368 170.873 307.689 168.218 305.018Z" fill="#BCC9E7"/>
<path fill-rule="evenodd" clip-rule="evenodd" d="M157.712 320.633C154.824 320.633 152.496 318.302 152.496 315.431C152.496 312.551 154.824 310.23 157.712 310.23C160.6 310.23 162.927 312.551 162.927 315.431C162.928 318.3 160.6 320.633 157.712 320.633ZM157.712 308.608C153.927 308.608 150.867 311.656 150.867 315.431C150.868 319.195 153.927 322.261 157.712 322.261C161.496 322.261 164.558 319.195 164.558 315.431C164.559 311.656 161.496 308.608 157.712 308.608Z" fill="white"/>
<path fill-rule="evenodd" clip-rule="evenodd" d="M171.387 288.958C169.772 288.958 168.468 287.652 168.468 286.048C168.468 284.438 169.772 283.138 171.387 283.138C172.999 283.138 174.306 284.438 174.306 286.048C174.306 287.652 173 288.958 171.387 288.958ZM177.701 286.048C177.701 285.032 178.38 284.179 179.31 283.915C179.123 283.228 178.849 282.571 178.498 281.967C177.659 282.429 176.576 282.311 175.865 281.608L175.85 281.592L175.835 281.572H175.829C175.76 281.502 175.686 281.432 175.618 281.366C175.674 281.418 175.738 281.474 175.797 281.532C175.128 280.825 175.016 279.772 175.473 278.957C174.868 278.606 174.215 278.332 173.525 278.148C173.255 279.073 172.4 279.75 171.387 279.75C170.373 279.75 169.518 279.073 169.247 278.148C168.558 278.332 167.906 278.608 167.294 278.957C167.757 279.782 167.645 280.841 166.956 281.554L167.135 281.384C167.067 281.454 166.993 281.524 166.922 281.592L166.887 281.63C166.165 282.311 165.103 282.429 164.275 281.967C163.925 282.571 163.647 283.228 163.463 283.915C164.392 284.179 165.072 285.038 165.072 286.048C165.072 287.059 164.392 287.91 163.463 288.175C163.647 288.865 163.925 289.517 164.275 290.123C165.115 289.661 166.185 289.779 166.903 290.476L166.917 290.498L166.934 290.508C167.639 291.223 167.762 292.296 167.294 293.133C167.906 293.482 168.558 293.758 169.247 293.942C169.513 293.043 170.325 292.378 171.302 292.34H171.472C172.449 292.378 173.261 293.043 173.525 293.942C174.215 293.758 174.868 293.482 175.473 293.133C175.015 292.302 175.133 291.237 175.824 290.524L175.829 290.52L175.877 290.472C176.593 289.779 177.658 289.661 178.498 290.123C178.848 289.517 179.12 288.864 179.309 288.175C178.381 287.91 177.701 287.059 177.701 286.048Z" fill="#D0D9EE"/>
<path fill-rule="evenodd" clip-rule="evenodd" d="M171.387 288.264C170.156 288.264 169.164 287.271 169.164 286.049C169.164 284.82 170.155 283.83 171.387 283.83C172.618 283.83 173.611 284.82 173.611 286.049C173.611 287.271 172.618 288.264 171.387 288.264ZM171.387 283.139C169.773 283.139 168.469 284.439 168.469 286.049C168.469 287.653 169.773 288.959 171.387 288.959C173 288.959 174.306 287.653 174.306 286.049C174.306 284.439 173 283.139 171.387 283.139Z" fill="#F2F2F3"/>
<path fill-rule="evenodd" clip-rule="evenodd" d="M166.917 281.591L166.887 281.629L166.922 281.591H166.917ZM166.955 281.553L167.134 281.383C167.066 281.453 166.992 281.523 166.922 281.591L166.955 281.553ZM171.302 292.339L171.386 292.341L171.471 292.339H171.302ZM175.796 281.531C175.737 281.473 175.673 281.417 175.617 281.365C175.685 281.431 175.759 281.501 175.828 281.571L175.796 281.531Z" fill="#BAC1C2"/>
<path fill-rule="evenodd" clip-rule="evenodd" d="M171.387 290.657C168.831 290.657 166.762 288.595 166.762 286.049C166.762 283.5 168.831 281.435 171.387 281.435C173.941 281.435 176.013 283.5 176.013 286.049C176.013 288.595 173.941 290.657 171.387 290.657ZM175.865 281.609L175.851 281.596L175.834 281.575C174.691 280.446 173.119 279.753 171.387 279.753C169.644 279.753 168.065 280.454 166.92 281.596C165.779 282.735 165.072 284.309 165.072 286.049C165.072 287.776 165.769 289.34 166.901 290.481L166.92 290.497L166.934 290.511C168.076 291.644 169.648 292.342 171.387 292.342C173.118 292.342 174.684 291.651 175.825 290.525L175.83 290.519L175.851 290.497L175.873 290.477L175.878 290.473C177.005 289.336 177.7 287.771 177.7 286.049C177.7 284.315 176.997 282.747 175.865 281.609Z" fill="#BCC9E7"/>
<path fill-rule="evenodd" clip-rule="evenodd" d="M171.387 288.264C170.156 288.264 169.164 287.271 169.164 286.049C169.164 284.82 170.155 283.83 171.387 283.83C172.618 283.83 173.611 284.82 173.611 286.049C173.611 287.271 172.618 288.264 171.387 288.264ZM171.387 283.139C169.773 283.139 168.469 284.439 168.469 286.049C168.469 287.653 169.773 288.959 171.387 288.959C173 288.959 174.306 287.653 174.306 286.049C174.306 284.439 173 283.139 171.387 283.139Z" fill="white"/>
<path fill-rule="evenodd" clip-rule="evenodd" d="M347.218 90.6621C341.898 90.6621 337.604 86.3535 337.604 81.0708C337.604 75.7658 341.898 71.4842 347.218 71.4842C352.53 71.4842 356.833 75.7662 356.833 81.0708C356.833 86.3535 352.53 90.6621 347.218 90.6621ZM368.021 81.0708C368.021 77.7232 370.262 74.912 373.324 74.0405C372.709 71.7788 371.804 69.6116 370.647 67.6272C367.886 69.147 364.318 68.7578 361.974 66.4383L361.925 66.3893L361.871 66.3176H361.854C361.629 66.0943 361.387 65.8618 361.158 65.6432C361.343 65.8128 361.558 66.0049 361.751 66.1927C359.54 63.8596 359.173 60.3918 360.688 57.7055C358.69 56.5525 356.538 55.6451 354.26 55.042C353.373 58.0899 350.558 60.32 347.219 60.32C343.88 60.32 341.061 58.0899 340.168 55.042C337.9 55.6451 335.749 56.5525 333.732 57.7055C335.261 60.4277 334.888 63.9132 332.62 66.2687L333.212 65.7057C332.988 65.9336 332.741 66.1619 332.513 66.3898L332.396 66.5147C330.011 68.7578 326.515 69.1469 323.786 67.6276C322.634 69.6121 321.719 71.7792 321.109 74.0409C324.171 74.9124 326.407 77.7413 326.407 81.0713C326.407 84.4054 324.171 87.2077 321.109 88.0792C321.719 90.3493 322.634 92.5081 323.786 94.4972C326.551 92.9778 330.084 93.3666 332.445 95.6637L332.494 95.735L332.548 95.7709C334.87 98.1263 335.273 101.657 333.731 104.415C335.748 105.568 337.9 106.475 340.168 107.079C341.042 104.124 343.718 101.925 346.936 101.8H347.496C350.719 101.926 353.39 104.124 354.26 107.079C356.537 106.475 358.689 105.568 360.688 104.415C359.173 101.679 359.563 98.171 361.835 95.8203L361.854 95.8026L362.015 95.6506C364.372 93.367 367.887 92.9783 370.648 94.4972C371.805 92.5081 372.696 90.3498 373.324 88.0792C370.262 87.2072 368.021 84.4049 368.021 81.0708Z" fill="#D0D9EE"/>
<path fill-rule="evenodd" clip-rule="evenodd" d="M347.22 88.376C343.163 88.376 339.891 85.1001 339.891 81.073C339.891 77.0239 343.163 73.7658 347.22 73.7658C351.276 73.7658 354.544 77.0235 354.544 81.073C354.544 85.1001 351.276 88.376 347.22 88.376ZM347.22 71.4863C341.899 71.4863 337.605 75.7684 337.605 81.073C337.605 86.3556 341.9 90.6642 347.22 90.6642C352.531 90.6642 356.834 86.3556 356.834 81.073C356.834 75.7679 352.531 71.4863 347.22 71.4863Z" fill="#F2F2F3"/>
<path fill-rule="evenodd" clip-rule="evenodd" d="M332.499 66.3902L332.4 66.5151L332.517 66.3902H332.499ZM332.624 66.269L333.216 65.706C332.987 65.9339 332.745 66.1623 332.517 66.3902L332.624 66.269ZM346.945 101.801L347.223 101.814L347.501 101.801H346.945ZM361.755 66.193C361.562 66.0057 361.347 65.8137 361.163 65.6436C361.392 65.8626 361.63 66.0947 361.858 66.3179L361.755 66.193Z" fill="#BAC1C2"/>
<path fill-rule="evenodd" clip-rule="evenodd" d="M347.219 96.2538C338.797 96.2538 331.98 89.4649 331.98 81.0713C331.98 72.6778 338.798 65.8712 347.219 65.8712C355.633 65.8712 362.459 72.6778 362.459 81.0713C362.459 89.4649 355.633 96.2538 347.219 96.2538ZM361.975 66.4393L361.926 66.3987L361.873 66.3274C358.103 62.6135 352.925 60.3252 347.219 60.3252C341.473 60.3252 336.269 62.6405 332.504 66.3987C328.739 70.1532 326.408 75.3375 326.408 81.0713C326.408 86.7655 328.708 91.9228 332.441 95.6773L332.504 95.7262L332.549 95.771C336.305 99.5073 341.491 101.814 347.22 101.814C352.921 101.814 358.08 99.5301 361.846 95.8204L361.864 95.8027L361.927 95.7267L362.003 95.6638L362.016 95.6549C365.727 91.9051 368.023 86.7473 368.023 81.0713C368.022 75.3595 365.705 70.1928 361.975 66.4393Z" fill="#BCC9E7"/>
<path fill-rule="evenodd" clip-rule="evenodd" d="M347.22 88.376C343.163 88.376 339.891 85.1001 339.891 81.073C339.891 77.0239 343.163 73.7658 347.22 73.7658C351.276 73.7658 354.544 77.0235 354.544 81.073C354.544 85.1001 351.276 88.376 347.22 88.376ZM347.22 71.4863C341.899 71.4863 337.605 75.7684 337.605 81.073C337.605 86.3556 341.9 90.6642 347.22 90.6642C352.531 90.6642 356.834 86.3556 356.834 81.073C356.834 75.7679 352.531 71.4863 347.22 71.4863Z" fill="white"/>
<defs>
<linearGradient id="paint0_linear_14749_9581" x1="351.686" y1="75.9355" x2="431.171" y2="16.8312" gradientUnits="userSpaceOnUse">
<stop stop-color="white"/>
<stop offset="1" stop-color="#9CD4FF"/>
</linearGradient>
<linearGradient id="paint1_linear_14749_9581" x1="330.705" y1="47.7191" x2="410.19" y2="-11.3852" gradientUnits="userSpaceOnUse">
<stop stop-color="white"/>
<stop offset="1" stop-color="#9CD4FF"/>
</linearGradient>
<linearGradient id="paint2_linear_14749_9581" x1="25.0313" y1="301.502" x2="531.667" y2="294.473" gradientUnits="userSpaceOnUse">
<stop stop-color="#0062BA" stop-opacity="0"/>
<stop offset="1" stop-color="#002C54"/>
</linearGradient>
<linearGradient id="paint3_linear_14749_9581" x1="251.562" y1="166.425" x2="251.562" y2="497.493" gradientUnits="userSpaceOnUse">
<stop stop-color="white"/>
<stop offset="1" stop-color="white"/>
</linearGradient>
</defs>
</svg>
