<svg width="420" height="312" viewBox="0 0 420 312" fill="none" xmlns="http://www.w3.org/2000/svg">
<path d="M125.999 44.7661L114.053 37.347L111.915 40.9937C111.286 42.1254 110.029 42.6284 108.771 42.5027C108.017 42.5027 107.388 42.3769 106.633 42.3769C105.376 42.3769 104.244 41.7482 103.616 40.6164L101.604 36.844L89.2802 43.5087L91.2922 47.2811C91.9209 48.4129 91.7952 49.6703 91.0407 50.8021C90.6634 51.4308 90.2862 51.9338 89.9089 52.5626C89.2802 53.6943 88.1485 54.323 86.891 54.323L82.6155 54.1973L82.2383 68.1554L86.5137 68.2811C87.7712 68.2811 88.9029 69.0356 89.4059 70.2931C89.5317 70.5446 89.6574 70.9218 89.9089 71.1733C90.0347 71.4248 90.2862 71.8021 90.4119 72.0536C91.0407 73.1853 91.0407 74.4428 90.4119 75.5745L88.1485 79.2212L100.095 86.6404L102.358 82.9937C102.987 81.862 104.244 81.359 105.502 81.4847C106.256 81.4847 106.885 81.6105 107.639 81.6105C108.897 81.6105 110.029 82.2392 110.657 83.3709L112.669 87.1434L124.993 80.4787L122.981 76.7063C122.352 75.5745 122.478 74.3171 123.232 73.1853C123.61 72.5566 123.987 72.0536 124.364 71.4248C124.993 70.2931 126.125 69.6644 127.382 69.6644L131.657 69.7901L132.035 55.832L127.759 55.7063C126.502 55.7063 125.37 54.9518 124.867 53.6943C124.741 53.4428 124.616 53.0656 124.364 52.8141C124.238 52.5626 123.987 52.1853 123.861 51.9338C123.232 50.8021 123.232 49.5446 123.861 48.4129L125.999 44.7661ZM117.196 56.5865C120.214 62.1194 118.077 69.1614 112.544 72.1793C107.011 75.1973 99.9688 73.0596 96.9509 67.5266C93.9329 61.9937 96.0706 54.9518 101.604 51.9338C107.262 48.9159 114.178 51.0536 117.196 56.5865Z" fill="#D1D8DB"/>
<path d="M89.4058 88.2751L84.5016 79.7242L81.8609 81.2332C81.1064 81.7362 80.1004 81.6104 79.4717 81.1074C79.0944 80.8559 78.5914 80.6045 78.2142 80.353C77.4597 79.9757 76.9567 79.2212 76.9567 78.2152V75.1973H67.1483V78.2152C67.1483 79.0955 66.6453 79.85 65.8908 80.353C65.5136 80.6045 65.0106 80.8559 64.6334 81.1074C63.8789 81.6104 62.9986 81.6104 62.2441 81.2332L59.6034 79.7242L54.6992 88.2751L57.3399 89.7841C58.0944 90.2871 58.4717 91.0416 58.4717 91.9218C58.4717 92.1733 58.4717 92.4248 58.4717 92.6763C58.4717 92.9278 58.4717 93.1793 58.4717 93.4308C58.4717 94.311 58.0944 95.1913 57.3399 95.5685L54.6992 97.0775L59.6034 105.628L62.2441 104.119C62.9986 103.616 64.0046 103.742 64.6334 104.245C65.0106 104.497 65.5136 104.748 65.8908 105C66.6453 105.377 67.1483 106.131 67.1483 107.137V110.155H76.9567V106.886C76.9567 106.006 77.4597 105.251 78.2142 104.748C78.5914 104.497 79.0944 104.245 79.4717 103.994C80.2262 103.491 81.1064 103.491 81.8609 103.868L84.5016 105.377L89.4058 96.826L86.7651 95.5685C86.0106 95.0655 85.6333 94.311 85.6333 93.4308C85.6333 93.1793 85.6333 92.9278 85.6333 92.6763C85.6333 92.4248 85.6333 92.1733 85.6333 91.9218C85.6333 91.0416 86.0106 90.1613 86.7651 89.7841L89.4058 88.2751ZM80.1004 92.6763C80.1004 97.0775 76.4537 100.724 72.0525 100.724C67.6513 100.724 64.0046 97.0775 64.0046 92.6763C64.0046 88.2751 67.6513 84.6284 72.0525 84.6284C76.4537 84.6284 80.1004 88.1494 80.1004 92.6763Z" fill="#D1D8DB"/>
<path d="M338.014 264.449H102.613C95.8227 264.449 90.1641 258.916 90.1641 252V93.8082C90.1641 86.8921 95.697 81.3591 102.613 81.3591H338.14C345.056 81.3591 350.589 86.8921 350.589 93.8082V252C350.463 258.79 344.931 264.449 338.014 264.449Z" fill="#829198"/>
<path d="M348.576 274.886H92.0494C82.3667 274.886 74.5703 267.09 74.5703 257.407H366.181C366.055 267.09 358.259 274.886 348.576 274.886Z" fill="#5F737C"/>
<path d="M341.282 91.042H99.5938V251.749H341.282V91.042Z" fill="#F8F9FA"/>
<path d="M341.154 91.042H99.3398V96.9522H341.154V91.042Z" fill="#002548"/>
<path d="M102.611 95.4425C103.444 95.4425 104.12 94.7669 104.12 93.9335C104.12 93.1002 103.444 92.4246 102.611 92.4246C101.777 92.4246 101.102 93.1002 101.102 93.9335C101.102 94.7669 101.777 95.4425 102.611 95.4425Z" fill="#EC1C24"/>
<path d="M108.521 95.4425C109.354 95.4425 110.03 94.7669 110.03 93.9335C110.03 93.1002 109.354 92.4246 108.521 92.4246C107.687 92.4246 107.012 93.1002 107.012 93.9335C107.012 94.7669 107.687 95.4425 108.521 95.4425Z" fill="#FFDC33"/>
<path d="M114.556 95.4425C115.389 95.4425 116.065 94.7669 116.065 93.9335C116.065 93.1002 115.389 92.4246 114.556 92.4246C113.722 92.4246 113.047 93.1002 113.047 93.9335C113.047 94.7669 113.722 95.4425 114.556 95.4425Z" fill="#54CB5A"/>
<path d="M344.802 108.018C346.94 108.143 349.078 108.646 350.964 109.652L349.203 111.916L360.521 113.299L356.12 102.736L354.359 105C351.215 103.742 347.82 103.239 344.551 103.491C340.527 103.868 336.629 105.503 333.611 108.018C330.593 110.532 328.455 114.053 327.449 117.7C326.443 121.347 326.694 125.245 327.952 128.64C327.197 125.119 327.575 121.347 328.958 118.203C330.341 114.934 332.605 112.293 335.497 110.532C338.389 108.772 341.658 107.766 344.802 108.018Z" fill="#54CB5A"/>
<path d="M363.161 129.52C364.167 125.748 363.79 121.724 362.406 118.203C363.287 121.85 363.035 125.748 361.652 129.143C360.269 132.538 357.879 135.305 354.987 137.191C352.095 138.951 348.574 139.832 345.305 139.58C343.167 139.454 341.155 138.826 339.394 137.82L341.029 135.556L329.586 134.173L334.113 144.736L335.999 142.347C339.017 143.604 342.161 144.233 345.305 143.981C349.58 143.73 353.604 142.095 356.748 139.58C359.891 136.939 362.155 133.293 363.161 129.52Z" fill="#54CB5A"/>
<path d="M215.28 148.634C218.926 148.76 222.447 149.766 225.591 151.275L222.699 155.048L241.687 157.437L234.268 139.832L231.375 143.604C226.094 141.467 220.435 140.587 215.028 141.09C208.238 141.718 201.825 144.485 196.795 148.76C191.765 152.91 188.244 158.694 186.609 164.856C184.974 171.018 185.351 177.431 187.363 183.09C186.106 177.179 186.609 171.018 188.998 165.61C191.262 160.203 195.034 155.676 199.813 152.784C204.465 149.766 209.998 148.257 215.28 148.634Z" fill="#54CB5A"/>
<path d="M245.836 184.347C247.471 178.059 246.968 171.269 244.705 165.485C246.213 171.646 245.836 178.059 243.447 183.592C241.184 189.125 237.16 193.904 232.255 196.922C227.351 199.94 221.567 201.323 216.16 200.946C212.639 200.694 209.243 199.688 206.225 198.053L208.992 194.407L190.004 192.143L197.549 209.622L200.567 205.598C205.471 207.736 210.878 208.742 216.16 208.365C223.201 207.988 229.992 205.221 235.273 200.946C240.429 196.67 244.202 190.76 245.836 184.347Z" fill="#54CB5A"/>
<path d="M262.312 221.82H170.138C169.258 221.82 168.629 221.191 168.629 220.311V219.808C168.629 218.928 169.258 218.299 170.138 218.299H262.312C263.192 218.299 263.821 218.928 263.821 219.808V220.311C263.821 221.191 263.066 221.82 262.312 221.82Z" fill="#D1D8DB"/>
<path d="M235.654 221.82H170.013C169.133 221.82 168.504 221.191 168.504 220.311V219.808C168.504 218.928 169.133 218.299 170.013 218.299H235.654C236.534 218.299 237.163 218.928 237.163 219.808V220.311C237.163 221.191 236.534 221.82 235.654 221.82Z" fill="#0054A5"/>
<path d="M220.564 192.269L229.115 187.365L227.606 184.724C227.103 183.97 227.229 182.964 227.732 182.335C227.983 181.958 228.234 181.455 228.486 181.078C228.863 180.323 229.618 179.82 230.624 179.82H233.642V170.012H230.624C229.743 170.012 228.989 169.509 228.486 168.754C228.234 168.377 227.983 167.874 227.732 167.497C227.229 166.742 227.229 165.862 227.606 165.108L229.115 162.467L220.564 157.563L219.055 160.203C218.552 160.958 217.797 161.335 216.917 161.335C216.666 161.335 216.414 161.335 216.163 161.335C215.911 161.335 215.66 161.335 215.408 161.335C214.528 161.335 213.648 160.958 213.27 160.203L211.761 157.563L203.211 162.467L204.72 165.108C205.223 165.862 205.097 166.868 204.594 167.497C204.342 167.874 204.091 168.377 203.839 168.754C203.462 169.509 202.708 170.012 201.702 170.012H198.684V179.82H201.702C202.582 179.82 203.336 180.323 203.839 181.078C204.091 181.455 204.342 181.958 204.594 182.335C205.097 183.09 205.097 183.97 204.72 184.724L203.211 187.365L211.761 192.269L213.27 189.629C213.773 188.874 214.528 188.497 215.408 188.497C215.66 188.497 215.911 188.497 216.163 188.497C216.414 188.497 216.666 188.497 216.917 188.497C217.797 188.497 218.678 188.874 219.055 189.629L220.564 192.269ZM216.163 182.838C211.761 182.838 208.115 179.191 208.115 174.79C208.115 170.389 211.761 166.742 216.163 166.742C220.564 166.742 224.211 170.389 224.211 174.79C224.211 179.191 220.564 182.838 216.163 182.838Z" fill="#829198"/>
<path d="M143.604 175.042L131.658 186.737C130.778 187.617 129.269 187.617 128.263 186.737L120.341 178.689C119.46 177.809 119.46 176.3 120.341 175.294L132.287 163.599C125.999 161.461 118.832 162.844 113.802 167.749C107.766 173.659 106.76 182.587 110.784 189.503C110.784 189.503 110.784 189.629 110.909 189.629L55.7058 242.317C53.4424 244.455 53.4424 247.976 55.5801 250.114C57.7178 252.252 61.2388 252.252 63.3765 250.114L117.197 196.042C117.197 196.042 117.323 196.042 117.323 196.168C124.239 200.317 133.167 199.437 139.203 193.527C144.107 188.623 145.616 181.455 143.604 175.042ZM61.8675 247.473C60.9873 248.605 59.3526 248.856 58.2208 247.976C57.0891 247.096 56.8376 245.461 57.7178 244.329C58.5981 243.198 60.2328 242.946 61.3645 243.826C62.4963 244.707 62.7478 246.341 61.8675 247.473Z" fill="#D1D8DB"/>
<path d="M293.999 257.532C293.874 257.532 293.748 257.532 293.622 257.407C293.371 257.155 293.371 256.778 293.622 256.652C294.377 255.898 295.005 255.018 295.76 254.137C296.011 253.886 296.263 253.886 296.514 254.012C296.766 254.263 296.766 254.515 296.64 254.766C295.886 255.772 295.131 256.652 294.502 257.407C294.251 257.532 294.125 257.532 293.999 257.532ZM299.281 250.365C299.155 250.365 299.029 250.365 299.029 250.239C298.778 250.113 298.652 249.736 298.904 249.485C299.532 248.479 300.161 247.598 300.664 246.592C300.79 246.341 301.167 246.215 301.419 246.467C301.67 246.592 301.796 246.97 301.544 247.221C300.916 248.227 300.413 249.107 299.784 250.113C299.658 250.239 299.532 250.365 299.281 250.365ZM303.556 242.317H303.431C303.179 242.191 302.928 241.94 303.053 241.688C303.179 241.185 303.179 240.808 303.179 240.305C303.179 239.676 303.053 239.173 302.928 238.544C302.802 238.293 303.053 237.916 303.305 237.79C303.556 237.664 303.934 237.916 304.059 238.167C304.311 238.796 304.437 239.55 304.437 240.179C304.437 240.682 304.311 241.185 304.311 241.814C304.059 242.191 303.808 242.317 303.556 242.317ZM300.413 234.395C300.287 234.395 300.161 234.269 300.035 234.269L299.281 233.515C298.778 232.886 298.275 232.383 297.772 231.754C297.52 231.503 297.646 231.125 297.898 231C298.149 230.748 298.526 230.874 298.652 231.125C299.155 231.754 299.658 232.257 300.161 232.886L300.916 233.64C301.167 233.892 301.167 234.269 300.916 234.395C300.664 234.269 300.538 234.395 300.413 234.395ZM295.634 226.85C295.383 226.85 295.131 226.598 295.131 226.347C295.131 226.095 295.131 225.97 295.131 225.718C295.131 225.592 295.131 225.467 295.131 225.467C295.131 224.586 295.383 223.706 295.886 222.826C296.011 222.574 296.389 222.449 296.64 222.574C296.892 222.7 297.017 223.077 296.892 223.329C296.514 224.083 296.389 224.838 296.263 225.592C296.263 225.718 296.263 225.718 296.263 225.844C296.263 225.97 296.263 226.221 296.263 226.347C296.137 226.473 296.011 226.85 295.634 226.85ZM299.784 219.179C299.658 219.179 299.532 219.179 299.407 219.053C299.155 218.802 299.155 218.425 299.407 218.299C300.287 217.544 301.041 216.79 301.922 216.035C302.173 215.784 302.55 215.91 302.676 216.035C302.928 216.287 302.802 216.664 302.676 216.79C301.796 217.544 301.041 218.299 300.161 219.053C300.035 219.179 299.91 219.179 299.784 219.179ZM306.7 213.395C306.574 213.395 306.323 213.269 306.197 213.143C306.071 212.892 306.071 212.515 306.323 212.389C307.203 211.76 308.209 211.006 309.089 210.377C309.341 210.251 309.718 210.251 309.844 210.503C309.97 210.754 309.97 211.131 309.718 211.257C308.838 211.886 307.832 212.515 306.952 213.269C306.952 213.395 306.826 213.395 306.7 213.395Z" fill="#0054A5"/>
<path d="M310.473 210L321.539 201.952L316.257 199.437L311.604 204.844L310.473 210Z" fill="#FFBC85"/>
<path opacity="0.19" d="M310.473 210L321.539 201.952L316.257 199.437L311.604 204.844L310.473 210Z" fill="#2D2F31"/>
<path d="M308.086 197.928L310.475 210L315.002 203.209L337.763 188.12L308.086 197.928Z" fill="#FFBC85"/>
<path d="M302.93 193.653L308.085 197.928L337.762 188.12L302.93 193.653Z" fill="#FDD1A3"/>
<path d="M315 203.209L322.419 210.503L337.76 188.12L315 203.209Z" fill="#FDD1A3"/>
<path d="M176.555 109.149C172.909 109.149 169.262 108.143 166.118 106.383C161.214 103.616 157.819 99.0895 156.31 93.6823C154.801 88.2752 155.556 82.6165 158.448 77.7123C162.22 71.1734 169.136 67.1494 176.681 67.1494C180.328 67.1494 183.975 68.1554 187.118 69.9159C197.178 75.7003 200.573 88.6524 194.789 98.5865C191.017 105.125 184.1 109.149 176.555 109.149Z" fill="#002548"/>
<path d="M195.882 89.7267C196.729 79.0647 188.773 69.7349 178.111 68.8879C167.449 68.041 158.119 75.9976 157.272 86.6596C156.425 97.3216 164.382 106.651 175.044 107.498C185.706 108.345 195.035 100.389 195.882 89.7267Z" fill="#0054A5"/>
<g opacity="0.19">
<path d="M195.882 89.7267C196.729 79.0647 188.773 69.7349 178.111 68.8879C167.449 68.041 158.119 75.9976 157.272 86.6596C156.425 97.3216 164.382 106.651 175.044 107.498C185.706 108.345 195.035 100.389 195.882 89.7267Z" fill="#F8F9FA"/>
</g>
<path d="M199.187 82.1136C197.553 76.0776 193.654 71.0477 188.247 67.904C184.726 65.892 180.702 64.7603 176.553 64.7603C168.253 64.7603 160.457 69.2872 156.307 76.4549C153.163 81.862 152.409 88.1495 153.918 94.1854C155.553 100.221 159.451 105.251 164.858 108.395C168.379 110.407 172.403 111.539 176.553 111.539C184.852 111.539 192.648 107.012 196.798 99.8441C199.942 94.4369 200.822 88.1495 199.187 82.1136ZM193.906 98.2094C190.259 104.623 183.469 108.269 176.553 108.269C173.157 108.269 169.762 107.389 166.618 105.629C157.062 100.096 153.792 87.898 159.325 78.3411C162.972 71.9279 169.762 68.2812 176.678 68.2812C180.074 68.2812 183.469 69.1615 186.612 70.9219C196.169 76.3291 199.439 88.6525 193.906 98.2094Z" fill="#0054A5"/>
<path d="M176.554 73.5628C176.302 73.5628 176.051 73.3113 176.051 73.0598V69.9161C176.051 69.6646 176.302 69.4131 176.554 69.4131C176.805 69.4131 177.057 69.6646 177.057 69.9161V73.0598C177.057 73.3113 176.805 73.5628 176.554 73.5628Z" fill="#D1D8DB"/>
<path d="M161.467 88.653H158.323C158.072 88.653 157.82 88.4015 157.82 88.15C157.82 87.8985 158.072 87.647 158.323 87.647H161.467C161.719 87.647 161.97 87.8985 161.97 88.15C161.97 88.4015 161.719 88.653 161.467 88.653Z" fill="#D1D8DB"/>
<path d="M176.554 106.886C176.302 106.886 176.051 106.635 176.051 106.383V103.24C176.051 102.988 176.302 102.737 176.554 102.737C176.805 102.737 177.057 102.988 177.057 103.24V106.383C177.057 106.761 176.805 106.886 176.554 106.886Z" fill="#D1D8DB"/>
<path d="M194.916 88.6527H191.773C191.521 88.6527 191.27 88.4012 191.27 88.1497C191.27 87.8982 191.521 87.6467 191.773 87.6467H194.916C195.168 87.6467 195.419 87.8982 195.419 88.1497C195.419 88.4012 195.168 88.6527 194.916 88.6527Z" fill="#D1D8DB"/>
<path d="M176.552 88.5268L166.618 88.401C166.366 88.401 165.989 88.1495 166.115 87.7723C166.115 87.5208 166.366 87.2693 166.744 87.2693L176.678 87.395C177.055 87.395 177.306 87.6465 177.181 88.0238C177.181 88.2753 176.803 88.5268 176.552 88.5268Z" fill="#EC1C24"/>
<path d="M176.554 88.6527H176.428C176.302 88.5269 176.176 88.2754 176.302 88.1497L182.212 77.3353C182.338 77.2096 182.59 77.0838 182.715 77.2096C182.841 77.3353 182.967 77.5868 182.841 77.7125L176.931 88.5269C176.805 88.6527 176.679 88.6527 176.554 88.6527Z" fill="#EC1C24"/>
<path d="M177.18 89.2815C176.551 89.6588 175.797 89.4073 175.419 88.7785C175.042 88.1498 175.294 87.3953 175.922 87.0181C176.551 86.6408 177.306 86.8923 177.683 87.5211C178.06 88.1498 177.809 88.9043 177.18 89.2815Z" fill="#EC1C24"/>
<path d="M176.928 88.7782C176.677 88.904 176.174 88.904 176.048 88.5267C175.922 88.2752 175.922 87.7722 176.299 87.6465C176.551 87.5207 177.054 87.5208 177.18 87.898C177.305 88.1495 177.18 88.5267 176.928 88.7782Z" fill="#D1D8DB"/>
</svg>
