<svg width="60" height="60" viewBox="0 0 60 60" fill="none" xmlns="http://www.w3.org/2000/svg">
<g clip-path="url(#clip0_19176_4824)">
<path opacity="0.995" fill-rule="evenodd" clip-rule="evenodd" d="M7.08985 -0.0585938C22.3242 -0.0585938 37.5586 -0.0585938 52.793 -0.0585938C53.0633 0.114538 53.2781 0.348913 53.4375 0.644531C53.5157 1.97265 53.5157 3.30079 53.4375 4.62891C53.3399 5.03906 53.0859 5.29297 52.6758 5.39062C49.9027 5.44922 47.1292 5.46874 44.3555 5.44922C43.8867 5.44922 43.418 5.44922 42.9492 5.44922C34.2773 5.44922 25.6055 5.44922 16.9336 5.44922C16.4648 5.44922 15.9961 5.44922 15.5273 5.44922C12.7536 5.46874 9.98019 5.44922 7.20703 5.39062C6.79688 5.29297 6.54297 5.03906 6.44532 4.62891C6.36719 3.30079 6.36719 1.97265 6.44532 0.644531C6.60466 0.348913 6.8195 0.114538 7.08985 -0.0585938Z" fill="#6261F4"/>
<path opacity="0.912" fill-rule="evenodd" clip-rule="evenodd" d="M15.5273 5.44922C15.9961 5.44922 16.4648 5.44922 16.9336 5.44922C16.9336 6.69922 16.9336 7.94921 16.9336 9.19922C16.4648 9.19922 15.9961 9.19922 15.5273 9.19922C15.5273 7.94921 15.5273 6.69922 15.5273 5.44922Z" fill="#AC9EF8"/>
<path opacity="0.912" fill-rule="evenodd" clip-rule="evenodd" d="M42.9492 5.44922C43.418 5.44922 43.8867 5.44922 44.3555 5.44922C44.3555 6.69922 44.3555 7.94921 44.3555 9.19922C43.8867 9.19922 43.418 9.19922 42.9492 9.19922C42.9492 7.94921 42.9492 6.69922 42.9492 5.44922Z" fill="#AC9EF8"/>
<path opacity="0.995" fill-rule="evenodd" clip-rule="evenodd" d="M15.5273 9.19921C15.9961 9.19921 16.4648 9.19921 16.9336 9.19921C17.0118 9.19921 17.0898 9.19921 17.168 9.19921C16.1518 12.8333 15.1362 16.4661 14.1211 20.0977C14.1211 20.332 14.1211 20.5664 14.1211 20.8008C14.0821 20.8008 14.0429 20.8008 14.0039 20.8008C14.0039 20.5664 14.0039 20.332 14.0039 20.0977C10.4484 20.1146 6.89367 20.0756 3.33984 19.9805C4.74711 16.7171 6.21196 13.4749 7.73438 10.2539C8.08464 9.78625 8.53385 9.45421 9.08203 9.25781C11.2301 9.19923 13.3786 9.17969 15.5273 9.19921Z" fill="#FECF84"/>
<path fill-rule="evenodd" clip-rule="evenodd" d="M17.168 9.19922C20.1367 9.19922 23.1055 9.19922 26.0742 9.19922C25.5575 12.8249 25.0888 16.4577 24.668 20.0977C24.668 20.332 24.668 20.5664 24.668 20.8008C24.6289 20.8008 24.5898 20.8008 24.5508 20.8008C24.5508 20.5664 24.5508 20.332 24.5508 20.0977C21.0742 20.0977 17.5977 20.0977 14.1211 20.0977C15.1362 16.4661 16.1518 12.8333 17.168 9.19922Z" fill="#F661A6"/>
<path fill-rule="evenodd" clip-rule="evenodd" d="M26.0742 9.19922C28.6523 9.19922 31.2305 9.19922 33.8086 9.19922C34.3211 12.8254 34.7898 16.4582 35.2148 20.0977C31.6992 20.0977 28.1836 20.0977 24.668 20.0977C25.0888 16.4577 25.5575 12.8249 26.0742 9.19922Z" fill="#FECF84"/>
<path fill-rule="evenodd" clip-rule="evenodd" d="M33.8086 9.19922C36.7773 9.19922 39.7461 9.19922 42.7148 9.19922C43.731 12.8333 44.7466 16.4661 45.7617 20.0977C42.2851 20.0977 38.8086 20.0977 35.332 20.0977C35.332 20.332 35.332 20.5664 35.332 20.8008C35.293 20.8008 35.2539 20.8008 35.2148 20.8008C35.2148 20.5664 35.2148 20.332 35.2148 20.0977C34.7898 16.4582 34.3211 12.8254 33.8086 9.19922Z" fill="#F661A6"/>
<path opacity="0.995" fill-rule="evenodd" clip-rule="evenodd" d="M42.7148 9.19921C42.793 9.19921 42.8711 9.19921 42.9492 9.19921C43.418 9.19921 43.8867 9.19921 44.3555 9.19921C46.5042 9.17969 48.6527 9.19923 50.8008 9.25781C51.4718 9.53818 51.9991 9.98739 52.3828 10.6055C53.7589 13.7388 55.1456 16.8637 56.543 19.9805C52.9891 20.0756 49.4345 20.1146 45.8789 20.0977C45.8789 20.332 45.8789 20.5664 45.8789 20.8008C45.8399 20.8008 45.8007 20.8008 45.7617 20.8008C45.7617 20.5664 45.7617 20.332 45.7617 20.0977C44.7466 16.4661 43.731 12.8333 42.7148 9.19921Z" fill="#FECF84"/>
<path opacity="0.995" fill-rule="evenodd" clip-rule="evenodd" d="M3.33995 19.9805C6.89378 20.0756 10.4485 20.1146 14.004 20.0977C14.004 20.332 14.004 20.5664 14.004 20.8008C13.6653 22.9943 12.4544 24.4591 10.3712 25.1953C9.60615 25.4229 8.8249 25.5205 8.02745 25.4883C7.19065 25.339 6.40939 25.0266 5.6837 24.5508C4.07066 23.4735 3.28942 21.95 3.33995 19.9805Z" fill="#FCBF39"/>
<path fill-rule="evenodd" clip-rule="evenodd" d="M14.1211 20.0977C17.5977 20.0977 21.0742 20.0977 24.5508 20.0977C24.5508 20.332 24.5508 20.5664 24.5508 20.8008C24.0418 23.7895 22.2645 25.352 19.2188 25.4883C16.2976 25.2425 14.5984 23.6801 14.1211 20.8008C14.1211 20.5664 14.1211 20.332 14.1211 20.0977Z" fill="#E54B91"/>
<path fill-rule="evenodd" clip-rule="evenodd" d="M24.668 20.0977C28.1836 20.0977 31.6992 20.0977 35.2148 20.0977C35.2148 20.332 35.2148 20.5664 35.2148 20.8008C34.8775 22.9932 33.6664 24.4581 31.582 25.1953C28.828 25.9182 26.6991 25.0785 25.1953 22.6758C24.9116 22.0788 24.7358 21.4538 24.668 20.8008C24.668 20.5664 24.668 20.332 24.668 20.0977Z" fill="#FDBF39"/>
<path fill-rule="evenodd" clip-rule="evenodd" d="M45.7617 20.0977C45.7617 20.332 45.7617 20.5664 45.7617 20.8008C45.2284 23.7561 43.4511 25.3187 40.4297 25.4883C37.5086 25.2425 35.8093 23.6801 35.332 20.8008C35.332 20.5664 35.332 20.332 35.332 20.0977C38.8086 20.0977 42.2851 20.0977 45.7617 20.0977Z" fill="#E54B91"/>
<path opacity="0.996" fill-rule="evenodd" clip-rule="evenodd" d="M56.543 19.9805C56.5935 21.95 55.8123 23.4735 54.1992 24.5508C53.4577 24.9799 52.6764 25.2923 51.8555 25.4883C49.5701 25.6443 47.7928 24.7849 46.5234 22.9102C46.1782 22.2456 45.9633 21.5425 45.8789 20.8008C45.8789 20.5664 45.8789 20.332 45.8789 20.0977C49.4345 20.1146 52.9891 20.0756 56.543 19.9805Z" fill="#FDBF39"/>
<path fill-rule="evenodd" clip-rule="evenodd" d="M14.0039 20.8008C14.0429 20.8008 14.0821 20.8008 14.1211 20.8008C14.5984 23.6801 16.2976 25.2425 19.2188 25.4883C22.2645 25.352 24.0418 23.7895 24.5508 20.8008C24.5898 20.8008 24.6289 20.8008 24.668 20.8008C24.7358 21.4538 24.9116 22.0788 25.1953 22.6758C26.6991 25.0785 28.828 25.9182 31.582 25.1953C33.6664 24.4581 34.8775 22.9932 35.2148 20.8008C35.2539 20.8008 35.293 20.8008 35.332 20.8008C35.8093 23.6801 37.5086 25.2425 40.4297 25.4883C43.4511 25.3187 45.2284 23.7561 45.7617 20.8008C45.8007 20.8008 45.8399 20.8008 45.8789 20.8008C45.9633 21.5425 46.1782 22.2456 46.5234 22.9102C47.7928 24.7849 49.5701 25.6443 51.8555 25.4883C51.8555 31.3086 51.8555 37.1289 51.8555 42.9492C47.5977 42.9492 43.3398 42.9492 39.082 42.9492C39.3663 41.2716 39.6397 39.5919 39.9023 37.9102C40.0897 37.9416 40.2459 37.9024 40.3711 37.793C41.9639 37.3448 42.6084 36.2902 42.3047 34.6289C41.9878 33.7649 41.3824 33.2375 40.4883 33.0469C39.1216 32.9883 37.7544 32.9687 36.3867 32.9883C35.7626 31.5464 35.1375 30.1011 34.5117 28.6523C33.9666 28.2689 33.576 28.3861 33.3398 29.0039C33.8645 30.3442 34.4114 31.6724 34.9805 32.9883C31.6211 32.9883 28.2618 32.9883 24.9023 32.9883C25.4714 31.6724 26.0183 30.3442 26.543 29.0039C26.3068 28.3861 25.9163 28.2689 25.3711 28.6523C24.7121 30.0871 24.0871 31.5323 23.4961 32.9883C22.0502 32.9687 20.605 32.9883 19.1602 33.0469C17.6621 33.7589 17.1738 34.9112 17.6953 36.5039C18.0812 37.1841 18.6476 37.6138 19.3945 37.793C19.5608 37.9044 19.7561 37.9434 19.9805 37.9102C20.5056 40.8708 20.9939 43.8395 21.4453 46.8164C21.5729 47.2484 21.8268 47.5804 22.207 47.8125C26.035 47.8711 29.8631 47.8907 33.6914 47.8711C33.6914 48.6914 33.6914 49.5117 33.6914 50.332C28.1054 50.332 22.5196 50.332 16.9336 50.332C16.9723 48.3193 16.9332 46.3271 16.8164 44.3555C16.5352 43.7541 16.2227 43.1681 15.8789 42.5977C16.1858 41.925 16.5374 41.2805 16.9336 40.6641C13.9651 40.6055 10.9963 40.5859 8.02734 40.6055C8.02734 35.5664 8.02734 30.5273 8.02734 25.4883C8.82479 25.5205 9.60605 25.4229 10.3711 25.1953C12.4543 24.4591 13.6652 22.9943 14.0039 20.8008Z" fill="#FEFEFE"/>
<path opacity="0.975" fill-rule="evenodd" clip-rule="evenodd" d="M5.68359 24.5508C6.40929 25.0266 7.19054 25.339 8.02734 25.4883C8.02734 30.5273 8.02734 35.5664 8.02734 40.6055C7.24609 40.6055 6.46485 40.6055 5.68359 40.6055C5.68359 35.2539 5.68359 29.9024 5.68359 24.5508Z" fill="#AC9EF8"/>
<path opacity="0.975" fill-rule="evenodd" clip-rule="evenodd" d="M54.1992 24.5508C54.1992 30.6445 54.1992 36.7383 54.1992 42.832C53.44 42.9482 52.6587 42.9872 51.8555 42.9492C51.8555 37.1289 51.8555 31.3086 51.8555 25.4883C52.6764 25.2923 53.4577 24.9799 54.1992 24.5508Z" fill="#AB9EF8"/>
<path fill-rule="evenodd" clip-rule="evenodd" d="M24.9023 32.9883C24.676 33.4807 24.4807 33.9885 24.3164 34.5118C24.6301 35.566 24.2591 36.1911 23.2031 36.3868C22.2475 36.1559 21.9351 35.57 22.2656 34.629C22.5295 34.3326 22.8225 34.0786 23.1445 33.8672C23.2741 33.5756 23.3913 33.2826 23.4961 32.9883C24.087 31.5324 24.7121 30.0871 25.3711 28.6524C25.9162 28.269 26.3068 28.3861 26.5429 29.004C26.0183 30.3442 25.4714 31.6724 24.9023 32.9883Z" fill="#DFDDF8"/>
<path fill-rule="evenodd" clip-rule="evenodd" d="M36.3867 32.9883C36.522 33.3374 36.6586 33.689 36.7969 34.043C37.8346 34.4688 38.0494 35.1523 37.4414 36.0938C35.9337 36.6462 35.3087 36.1189 35.5664 34.5118C35.4021 33.9885 35.2068 33.4807 34.9805 32.9883C34.4114 31.6724 33.8645 30.3442 33.3398 29.004C33.576 28.3861 33.9666 28.269 34.5117 28.6524C35.1375 30.1012 35.7626 31.5465 36.3867 32.9883Z" fill="#DFDDF8"/>
<path fill-rule="evenodd" clip-rule="evenodd" d="M23.4962 32.9883C23.3914 33.2826 23.2742 33.5755 23.1446 33.8672C22.8226 34.0786 22.5296 34.3326 22.2657 34.6289C21.9352 35.5699 22.2477 36.1559 23.2032 36.3867C24.2592 36.191 24.6302 35.566 24.3165 34.5117C24.4808 33.9885 24.6761 33.4807 24.9024 32.9883C28.2618 32.9883 31.6211 32.9883 34.9805 32.9883C35.2068 33.4807 35.4022 33.9885 35.5665 34.5117C35.3088 36.1188 35.9337 36.6462 37.4415 36.0938C38.0495 35.1523 37.8346 34.4687 36.797 34.043C36.6587 33.689 36.522 33.3374 36.3868 32.9883C37.7545 32.9687 39.1217 32.9883 40.4884 33.0469C41.3825 33.2376 41.9879 33.7649 42.3048 34.6289C42.6085 36.2902 41.964 37.3449 40.3712 37.793C33.3789 37.793 26.3868 37.793 19.3946 37.793C18.6477 37.6138 18.0813 37.1841 17.6954 36.5039C17.1739 34.9112 17.6622 33.7589 19.1602 33.0469C20.605 32.9883 22.0503 32.9687 23.4962 32.9883Z" fill="#E54A91"/>
<path fill-rule="evenodd" clip-rule="evenodd" d="M19.3945 37.793C26.3868 37.793 33.3789 37.793 40.3711 37.793C40.2459 37.9024 40.0897 37.9416 39.9023 37.9102C39.6397 39.5919 39.3663 41.2716 39.082 42.9492C37.8225 42.913 36.5725 42.952 35.332 43.0664C35.2621 43.0389 35.223 42.9803 35.2148 42.8906C35.5146 42.1891 35.6904 41.4664 35.7422 40.7227C35.3571 40.2557 34.9665 40.2557 34.5703 40.7227C34.0973 42.1024 33.6482 43.4891 33.2227 44.8828C33.2658 45.1799 33.422 45.3947 33.6914 45.5273C33.6914 46.3086 33.6914 47.0898 33.6914 47.8711C29.8631 47.8907 26.035 47.8711 22.207 47.8125C21.8268 47.5804 21.5729 47.2484 21.4453 46.8164C20.9939 43.8395 20.5056 40.8708 19.9805 37.9102C19.7561 37.9434 19.5608 37.9044 19.3945 37.793Z" fill="#F662A6"/>
<path fill-rule="evenodd" clip-rule="evenodd" d="M24.4336 40.3712C24.8029 40.3078 25.0959 40.425 25.3125 40.7227C25.7422 42.0118 26.1718 43.3009 26.6015 44.5899C26.6991 45.2735 26.4062 45.5665 25.7226 45.4688C25.625 45.3712 25.5273 45.2735 25.4296 45.1759C24.9999 43.8868 24.5703 42.5977 24.1406 41.3087C24.0261 40.92 24.1237 40.6074 24.4336 40.3712Z" fill="#FEFAFC"/>
<path fill-rule="evenodd" clip-rule="evenodd" d="M29.5899 40.3711C29.9256 40.319 30.2186 40.3971 30.4688 40.6055C30.5469 42.168 30.5469 43.7305 30.4688 45.293C30.1172 45.6055 29.7657 45.6055 29.4141 45.293C29.3359 43.7305 29.3359 42.168 29.4141 40.6055C29.4981 40.5417 29.5567 40.4636 29.5899 40.3711Z" fill="#FEFDFE"/>
<path fill-rule="evenodd" clip-rule="evenodd" d="M35.332 43.0666C34.3307 43.564 33.7837 44.3843 33.6914 45.5275C33.422 45.3948 33.2658 45.18 33.2227 44.883C33.6482 43.4892 34.0973 42.1026 34.5703 40.7228C34.9665 40.2558 35.3571 40.2558 35.7422 40.7228C35.6904 41.4666 35.5146 42.1893 35.2148 42.8908C35.223 42.9804 35.2621 43.039 35.332 43.0666Z" fill="#FEF9FB"/>
<path opacity="0.995" fill-rule="evenodd" clip-rule="evenodd" d="M-0.0585938 40.7227C-0.0585938 40.6836 -0.0585938 40.6445 -0.0585938 40.6055C1.85546 40.6055 3.76954 40.6055 5.68359 40.6055C6.46485 40.6055 7.24609 40.6055 8.02734 40.6055C10.9963 40.5859 13.9651 40.6055 16.9336 40.6641C16.5374 41.2805 16.1858 41.925 15.8789 42.5977C16.2227 43.1681 16.5352 43.7541 16.8164 44.3555C11.2111 44.4737 5.58613 44.5519 -0.0585938 44.5899C-0.0585938 44.5508 -0.0585938 44.5117 -0.0585938 44.4727C0.304543 43.8448 0.656106 43.2003 0.996094 42.5391C0.626605 41.9358 0.275043 41.3304 -0.0585938 40.7227Z" fill="#FDBF39"/>
<path opacity="0.996" fill-rule="evenodd" clip-rule="evenodd" d="M54.1992 42.832C55.4108 42.8125 56.6217 42.832 57.832 42.8906C58.96 43.2174 59.6631 43.9401 59.9414 45.0586C59.9414 49.3163 59.9414 53.5742 59.9414 57.832C59.6885 58.8662 59.0634 59.5693 58.0664 59.9414C50.5274 59.9414 42.9883 59.9414 35.4492 59.9414C34.7104 59.5931 34.1634 59.0462 33.8086 58.3007C33.7 56.3114 33.6609 54.3192 33.6914 52.3242C33.6914 51.6601 33.6914 50.9961 33.6914 50.332C33.6914 49.5117 33.6914 48.6914 33.6914 47.8711C33.6914 47.0898 33.6914 46.3086 33.6914 45.5273C33.7838 44.3841 34.3307 43.5638 35.332 43.0664C36.5725 42.952 37.8225 42.913 39.082 42.9492C43.3398 42.9492 47.5977 42.9492 51.8555 42.9492C52.6587 42.9872 53.44 42.9481 54.1992 42.832Z" fill="#35C9AD"/>
<path opacity="0.994" fill-rule="evenodd" clip-rule="evenodd" d="M16.8164 44.3555C16.9332 46.3271 16.9723 48.3193 16.9336 50.332C16.9336 50.9961 16.9336 51.6601 16.9336 52.3242C16.9336 54.3164 16.9336 56.3086 16.9336 58.3008C16.9336 58.8477 16.9336 59.3945 16.9336 59.9414C11.2695 59.9414 5.60547 59.9414 -0.0585938 59.9414C-0.0585938 54.8242 -0.0585938 49.7071 -0.0585938 44.5898C5.58613 44.5519 11.2111 44.4737 16.8164 44.3555Z" fill="#FED085"/>
<path fill-rule="evenodd" clip-rule="evenodd" d="M37.6758 47.168C41.6604 47.1484 45.6448 47.168 49.6289 47.2266C50.1259 47.6712 50.0869 48.0618 49.5117 48.3985C45.6055 48.4766 41.6992 48.4766 37.793 48.3985C37.2289 48.0368 37.1897 47.6267 37.6758 47.168Z" fill="#F8FDFC"/>
<path fill-rule="evenodd" clip-rule="evenodd" d="M4.04285 48.2224C5.27815 48.1098 5.8055 48.6566 5.62489 49.8631C5.55279 50.0524 5.4356 50.2086 5.27332 50.3318C5.19519 51.2693 5.19519 52.2068 5.27332 53.1443C6.15598 55.5093 7.77708 56.232 10.1366 55.3123C11.394 54.4113 11.9409 53.1809 11.7772 51.6209C11.7577 51.1911 11.7382 50.7615 11.7186 50.3318C10.9735 49.5728 11.0321 48.8892 11.8944 48.281C12.8338 48.0465 13.3807 48.3981 13.535 49.3357C13.5116 49.7146 13.3748 50.0467 13.1249 50.3318C13.5064 52.6929 12.8229 54.6655 11.0741 56.2498C8.58882 57.6123 6.45991 57.2022 4.68739 55.0193C4.29149 54.4123 4.05712 53.7482 3.98426 53.0271C3.9452 52.1286 3.90613 51.2303 3.86707 50.3318C3.47915 49.8965 3.36196 49.3887 3.51551 48.8084C3.71558 48.6283 3.89137 48.4329 4.04285 48.2224Z" fill="#FFFDFC"/>
<path fill-rule="evenodd" clip-rule="evenodd" d="M16.9336 50.332C22.5196 50.332 28.1054 50.332 33.6914 50.332C33.6914 50.9961 33.6914 51.6601 33.6914 52.3242C28.1054 52.3242 22.5196 52.3242 16.9336 52.3242C16.9336 51.6601 16.9336 50.9961 16.9336 50.332Z" fill="#ADA0F9"/>
<path fill-rule="evenodd" clip-rule="evenodd" d="M37.793 51.8554C38.4192 51.836 39.0442 51.8555 39.668 51.914C40.2929 52.3046 40.2929 52.6953 39.668 53.0859C39.0039 53.1641 38.3399 53.1641 37.6758 53.0859C37.1878 52.6177 37.2268 52.2076 37.793 51.8554Z" fill="#F8FDFC"/>
<path fill-rule="evenodd" clip-rule="evenodd" d="M42.1289 51.8554C43.2623 51.836 44.3952 51.8554 45.5273 51.914C46.082 52.2565 46.121 52.647 45.6445 53.0859C44.4727 53.1641 43.3008 53.1641 42.1289 53.0859C41.666 52.6817 41.666 52.2716 42.1289 51.8554Z" fill="#FAFDFC"/>
<path fill-rule="evenodd" clip-rule="evenodd" d="M47.9882 51.8554C49.1216 51.836 50.2545 51.8554 51.3866 51.914C51.9413 52.2565 51.9803 52.647 51.5038 53.0859C50.3319 53.1641 49.1601 53.1641 47.9882 53.0859C47.5271 52.6762 47.5271 52.2661 47.9882 51.8554Z" fill="#FAFDFD"/>
<path fill-rule="evenodd" clip-rule="evenodd" d="M53.8476 51.8554C54.5127 51.836 55.1768 51.8555 55.8397 51.914C56.1663 52.168 56.264 52.5001 56.1327 52.9101C56.0448 52.9835 55.9471 53.0421 55.8397 53.0859C55.1756 53.1641 54.5117 53.1641 53.8476 53.0859C53.3864 52.6762 53.3864 52.266 53.8476 51.8554Z" fill="#F9FDFC"/>
<path opacity="0.991" fill-rule="evenodd" clip-rule="evenodd" d="M16.9336 52.3242C22.5196 52.3242 28.1054 52.3242 33.6914 52.3242C33.6609 54.3192 33.7 56.3114 33.8086 58.3008C28.1836 58.3008 22.5586 58.3008 16.9336 58.3008C16.9336 56.3086 16.9336 54.3164 16.9336 52.3242Z" fill="#6162F3"/>
</g>
<defs>
<clipPath id="clip0_19176_4824">
<rect width="60" height="60" fill="white"/>
</clipPath>
</defs>
</svg>
