<svg width="50" height="50" viewBox="0 0 50 50" fill="none" xmlns="http://www.w3.org/2000/svg">
<path d="M20.3125 36.7188V22.6562H4.6875V36.7188" fill="#EFBD50"/>
<path d="M45.3125 36.7188V22.6562H29.6875V36.7188" fill="#EFBD50"/>
<path d="M14.8438 22.6562V31.25L12.5 28.9062L10.1562 31.25V22.6562" fill="#7FC675"/>
<path d="M39.8438 22.6562V31.25L37.5 28.9062L35.1562 31.25V22.6562" fill="#7FC675"/>
<path d="M23.4375 41.4062H26.5625V46.0938H23.4375V41.4062Z" fill="#99AECE"/>
<path d="M37.5 42.1875H12.5C12.2928 42.1875 12.0941 42.1052 11.9476 41.9587C11.8011 41.8122 11.7188 41.6135 11.7188 41.4062V36.7188H13.2812V40.625H36.7188V36.7188H38.2812V41.4062C38.2812 41.6135 38.1989 41.8122 38.0524 41.9587C37.9059 42.1052 37.7072 42.1875 37.5 42.1875Z" fill="#72769B"/>
<path d="M32.0312 14.0625H42.9688V15.625L47.6562 11.7188L42.9688 7.8125V9.375H32.0312" fill="#CFD2D3"/>
<path d="M17.1875 14.0625H7.03125V15.625L2.34375 11.7188L7.03125 7.8125V9.375H17.1875" fill="#CFD2D3"/>
<path d="M25 21.0938C30.1777 21.0938 34.375 16.8964 34.375 11.7188C34.375 6.54108 30.1777 2.34375 25 2.34375C19.8223 2.34375 15.625 6.54108 15.625 11.7188C15.625 16.8964 19.8223 21.0938 25 21.0938Z" fill="#99AECE"/>
<path d="M21.875 10.9375C22.7379 10.9375 23.4375 10.2379 23.4375 9.375C23.4375 8.51206 22.7379 7.8125 21.875 7.8125C21.0121 7.8125 20.3125 8.51206 20.3125 9.375C20.3125 10.2379 21.0121 10.9375 21.875 10.9375Z" fill="#F95F5F"/>
<path d="M28.125 15.625C28.9879 15.625 29.6875 14.9254 29.6875 14.0625C29.6875 13.1996 28.9879 12.5 28.125 12.5C27.2621 12.5 26.5625 13.1996 26.5625 14.0625C26.5625 14.9254 27.2621 15.625 28.125 15.625Z" fill="#F95F5F"/>
<path d="M2.34375 44.5312H47.6562V47.6562H2.34375V44.5312Z" fill="#72769B"/>
<path d="M2.34375 35.1562H22.6562V38.2812H2.34375V35.1562Z" fill="#7FC675"/>
<path d="M27.3438 35.1562H47.6562V38.2812H27.3438V35.1562Z" fill="#7FC675"/>
<path d="M20.582 15.0337L28.3148 7.30088L29.4195 8.40557L21.6867 16.1384L20.582 15.0337Z" fill="#F2F2F2"/>
</svg>
