<svg width="420" height="338" viewBox="0 0 420 338" fill="none" xmlns="http://www.w3.org/2000/svg">
<path d="M209.998 264.197C293.592 264.197 361.359 261.02 361.359 257.101C361.359 253.183 293.592 250.006 209.998 250.006C126.403 250.006 58.6367 253.183 58.6367 257.101C58.6367 261.02 126.403 264.197 209.998 264.197Z" fill="#D2D9DC"/>
<path d="M353.296 246.099H69.0156V256.457H353.296V246.099Z" fill="#839299"/>
<path d="M238.862 246.099H183.441V250.314H238.862V246.099Z" fill="#5F737C"/>
<path d="M323.919 95.2292H98.3867V246.092H323.919V95.2292Z" fill="#D2D9DC"/>
<path d="M322.283 97.0688H100.027V244.252H322.283V97.0688Z" fill="#002548"/>
<path d="M312.439 106.532H109.871V234.797H312.439V106.532Z" fill="#F9FAFB"/>
<path d="M312.439 106.532H109.871V111.465H312.439V106.532Z" fill="#839299"/>
<path d="M114.518 109.002C114.518 109.515 114.1 109.933 113.587 109.933C113.074 109.933 112.656 109.515 112.656 109.002C112.656 108.489 113.074 108.071 113.587 108.071C114.1 108.064 114.518 108.482 114.518 109.002Z" fill="#C8C8C8"/>
<path d="M118.331 109.002C118.331 109.515 117.913 109.933 117.4 109.933C116.887 109.933 116.469 109.515 116.469 109.002C116.469 108.489 116.887 108.071 117.4 108.071C117.913 108.064 118.331 108.482 118.331 109.002Z" fill="white"/>
<path d="M122.143 109.002C122.143 109.515 121.725 109.933 121.212 109.933C120.699 109.933 120.281 109.515 120.281 109.002C120.281 108.489 120.699 108.071 121.212 108.071C121.725 108.064 122.143 108.482 122.143 109.002Z" fill="#0054A6"/>
<path d="M309.257 111.465H109.871V138.937H309.257V111.465Z" fill="#0054A6"/>
<path d="M312.438 111.465H309.25V220.745H312.438V111.465Z" fill="#DCDCDC"/>
<path d="M310.848 149.353C310.394 149.353 310.027 148.986 310.027 148.532V112.931C310.027 112.476 310.394 112.11 310.848 112.11C311.303 112.11 311.669 112.476 311.669 112.931V148.532C311.669 148.986 311.303 149.353 310.848 149.353Z" fill="#A8A8A8"/>
<path d="M300.456 116.801H257.555V122.526H300.456V116.801Z" fill="white"/>
<path d="M300.522 122.585H257.496V116.743H300.522V122.585ZM257.613 122.467H300.398V116.86H257.613V122.467Z" fill="#C8C8C8"/>
<path d="M300.521 116.743H294.672V122.592H300.521V116.743Z" fill="#839299"/>
<path d="M299.416 121.266L298.888 121.669L297.906 120.379L297.547 119.902C297.62 119.873 297.686 119.836 297.752 119.785C297.877 119.69 297.965 119.565 298.023 119.433L298.404 119.932L299.416 121.266Z" fill="white"/>
<path d="M298.377 118.224C297.893 117.593 296.984 117.469 296.354 117.96C295.724 118.443 295.599 119.352 296.09 119.983C296.523 120.554 297.3 120.708 297.915 120.379C297.981 120.342 298.055 120.298 298.113 120.247C298.231 120.159 298.333 120.049 298.414 119.939C298.766 119.433 298.766 118.737 298.377 118.224ZM297.754 119.785C297.688 119.836 297.622 119.873 297.549 119.902C297.197 120.041 296.787 119.939 296.545 119.624C296.251 119.242 296.325 118.7 296.706 118.414C297.087 118.121 297.629 118.194 297.915 118.575C298.113 118.832 298.143 119.154 298.025 119.433C297.967 119.572 297.879 119.69 297.754 119.785Z" fill="white"/>
<path d="M259.066 117.923H258.758V121.398H259.066V117.923Z" fill="#C8C8C8"/>
<path d="M249.987 116.802H133.273V122.526H249.987V116.802Z" fill="white"/>
<path d="M250.038 122.585H133.215V116.743H250.038V122.585ZM133.332 122.468H249.928V116.86H133.332V122.468Z" fill="#C8C8C8"/>
<path d="M134.777 117.923H134.469V121.398H134.777V117.923Z" fill="#C8C8C8"/>
<path d="M122.464 121.624L120.383 119.704L122.464 117.71L122.787 118.047L121.064 119.696L122.787 121.28L122.464 121.624Z" fill="white"/>
<path d="M127.499 117.703L129.588 119.623L127.506 121.617L127.184 121.28L128.906 119.631L127.184 118.047L127.499 117.703Z" fill="white"/>
<path d="M119.059 181.333H164.504V146.465H119.059V181.333Z" fill="#D2D9DC"/>
<path d="M123.588 154.088C123.038 156.991 125.538 159.497 128.44 158.94C130.068 158.632 131.372 157.32 131.68 155.7C132.23 152.798 129.731 150.291 126.828 150.848C125.201 151.156 123.896 152.468 123.588 154.088Z" fill="#F9FAFB"/>
<path d="M134.055 173.82H164.51L149.279 155.055L134.055 173.82Z" fill="#5F737C"/>
<path d="M119.066 173.819H146.07L132.568 161.601L119.066 173.819Z" fill="#839299"/>
<path d="M164.511 173.819H119.066V181.333H164.511V173.819Z" fill="#839299"/>
<path fill-rule="evenodd" clip-rule="evenodd" d="M168.108 211.703L145.695 209.065L127.621 216.673C131.821 219.548 138.356 221.393 145.695 221.387C156.67 221.378 165.846 217.233 168.108 211.703Z" fill="#4783BE"/>
<path fill-rule="evenodd" clip-rule="evenodd" d="M123.874 212.549L141.948 204.942L132.292 193.769C124.443 195.732 119 200.007 119 204.959C119 207.824 120.82 210.459 123.874 212.549Z" fill="#002548"/>
<path fill-rule="evenodd" clip-rule="evenodd" d="M148.051 203.185L170.464 205.822C170.814 204.966 170.999 204.078 170.999 203.166C170.999 196.996 162.553 191.893 151.531 191L148.051 203.185Z" fill="#0054A6"/>
<path fill-rule="evenodd" clip-rule="evenodd" d="M144.774 205.956L148.254 193.772C147.119 193.681 145.957 193.634 144.774 193.634C141.325 193.638 138.052 194.049 135.117 194.783L144.774 205.956Z" fill="#81A0FB"/>
<path fill-rule="evenodd" clip-rule="evenodd" d="M123.874 212.549C120.82 210.459 119 207.824 119 204.959V209.446C119 212.31 120.82 214.945 123.874 217.035V212.549Z" fill="white"/>
<path fill-rule="evenodd" clip-rule="evenodd" d="M168.108 211.703C165.846 217.233 156.67 221.378 145.695 221.387C138.356 221.392 131.821 219.548 127.621 216.672V221.158C131.821 224.034 138.356 225.879 145.695 225.873C156.67 225.864 165.846 221.72 168.108 216.189V211.703Z" fill="#839299"/>
<path fill-rule="evenodd" clip-rule="evenodd" d="M170.464 205.822L148.051 203.185V207.378L170.464 210.309V205.822Z" fill="#839299"/>
<path fill-rule="evenodd" clip-rule="evenodd" d="M123.875 217.035L141.949 209.194V204.942L123.875 212.549V217.035Z" fill="#839299"/>
<path fill-rule="evenodd" clip-rule="evenodd" d="M146.406 209.148L148.051 203.206V203.185L148.253 202.478V193.773L144.773 205.956L144.774 209.453L145.695 209.065L146.406 209.148Z" fill="#4783BE"/>
<path fill-rule="evenodd" clip-rule="evenodd" d="M144.774 205.956L135.117 194.783V197.039L141.948 204.942V207.14L144.277 209.663L144.775 209.453L144.774 205.956Z" fill="white"/>
<path d="M241.709 230.328C271.141 230.328 295 228.99 295 227.34C295 225.69 271.141 224.352 241.709 224.352C212.277 224.352 188.418 225.69 188.418 227.34C188.418 228.99 212.277 230.328 241.709 230.328Z" fill="#D2D9DC"/>
<path d="M172.99 158.569C170.235 160.281 169.388 163.904 171.1 166.659L176.806 175.842L177.736 171.858L180.691 172.548L181.649 171.622L182.47 171.879L183.381 170.877L184.764 170.453L187.046 167.059L191.991 162.121L182.238 154.905L179.721 154.387L172.99 158.569Z" fill="#839299"/>
<path d="M226.042 189.625L224.961 189.59C220.976 189.457 217.424 187.056 215.808 183.414L201.059 150.156C199.4 146.421 194.824 145.009 191.353 147.166L172.988 158.577C176.459 156.42 181.041 157.828 182.695 161.567L197.443 194.825C199.06 198.467 202.611 200.868 206.596 201.001L207.677 201.036C211.377 201.158 214.733 203.245 216.486 206.501L234.851 195.09C233.093 191.837 229.739 189.756 226.042 189.625Z" fill="#D2D9DC"/>
<path d="M186.754 160.337C187.82 159.674 188.024 158.074 187.209 156.762C186.394 155.45 184.868 154.923 183.802 155.586C182.736 156.248 182.532 157.849 183.347 159.161C184.162 160.473 185.688 160.999 186.754 160.337Z" fill="#0054A6"/>
<path d="M194.102 151.052L188.103 154.78C187.859 154.931 187.533 154.855 187.382 154.611C187.23 154.367 187.306 154.042 187.55 153.89L193.549 150.163C193.793 150.011 194.118 150.087 194.27 150.331C194.422 150.575 194.346 150.901 194.102 151.052Z" fill="#0054A6"/>
<path d="M198.644 152.094L189.505 157.772C189.261 157.924 188.936 157.848 188.784 157.604C188.633 157.36 188.708 157.034 188.953 156.883L198.086 151.208C198.33 151.056 198.656 151.132 198.807 151.376C198.968 151.622 198.888 151.942 198.644 152.094Z" fill="#0054A6"/>
<path d="M203.613 196.502C204.68 195.84 204.883 194.239 204.068 192.927C203.253 191.615 201.728 191.089 200.661 191.751C199.595 192.414 199.391 194.015 200.207 195.327C201.022 196.639 202.547 197.165 203.613 196.502Z" fill="#0054A6"/>
<path d="M210.965 187.215L204.966 190.942C204.722 191.093 204.397 191.017 204.245 190.773C204.093 190.529 204.169 190.204 204.414 190.052L210.412 186.325C210.656 186.173 210.982 186.249 211.133 186.493C211.288 186.743 211.209 187.063 210.965 187.215Z" fill="#0054A6"/>
<path d="M215.518 188.256L206.384 193.931C206.14 194.083 205.815 194.007 205.663 193.762C205.511 193.518 205.587 193.193 205.831 193.041L214.965 187.366C215.209 187.215 215.534 187.291 215.686 187.535C215.838 187.779 215.767 188.101 215.518 188.256Z" fill="#0054A6"/>
<path d="M191.82 171.842C192.887 171.179 193.09 169.579 192.275 168.267C191.46 166.955 189.935 166.428 188.868 167.091C187.802 167.753 187.598 169.354 188.414 170.666C189.229 171.978 190.754 172.504 191.82 171.842Z" fill="#0054A6"/>
<path d="M201.024 161.403L193.165 166.286C192.921 166.438 192.596 166.362 192.444 166.118C192.293 165.874 192.369 165.548 192.613 165.397L200.472 160.513C200.716 160.362 201.041 160.438 201.193 160.682C201.344 160.926 201.274 161.248 201.024 161.403Z" fill="#0054A6"/>
<path d="M196.813 167.884L194.568 169.279C194.324 169.43 193.998 169.354 193.847 169.11C193.695 168.866 193.771 168.541 194.015 168.389L196.26 166.994C196.505 166.842 196.83 166.918 196.982 167.163C197.137 167.412 197.063 167.729 196.813 167.884Z" fill="#0054A6"/>
<path d="M217.738 201.584C218.501 200.587 218.124 199.018 216.897 198.08C215.67 197.142 214.057 197.19 213.295 198.187C212.532 199.185 212.909 200.754 214.136 201.692C215.363 202.63 216.976 202.582 217.738 201.584Z" fill="#0054A6"/>
<path d="M222.816 193.63L218.271 196.454C218.027 196.605 217.701 196.529 217.55 196.285C217.398 196.041 217.474 195.716 217.718 195.564L222.263 192.74C222.507 192.588 222.833 192.664 222.984 192.909C223.136 193.153 223.06 193.478 222.816 193.63Z" fill="#0054A6"/>
<path d="M221.923 198.05L219.677 199.445C219.433 199.596 219.108 199.52 218.956 199.276C218.804 199.032 218.88 198.707 219.124 198.555L221.37 197.16C221.614 197.008 221.939 197.084 222.091 197.328C222.243 197.572 222.167 197.898 221.923 198.05Z" fill="#0054A6"/>
<path d="M197.328 182.576C198.395 181.913 198.598 180.312 197.783 179C196.968 177.688 195.443 177.162 194.376 177.824C193.31 178.487 193.106 180.088 193.921 181.4C194.737 182.712 196.262 183.238 197.328 182.576Z" fill="#0054A6"/>
<path d="M204.426 173.444L198.677 177.017C198.433 177.168 198.108 177.092 197.956 176.848C197.804 176.604 197.88 176.279 198.124 176.127L203.874 172.555C204.118 172.403 204.443 172.479 204.595 172.723C204.746 172.967 204.676 173.289 204.426 173.444Z" fill="#0054A6"/>
<path d="M208.555 178.494L200.279 183.636C200.035 183.788 199.709 183.712 199.558 183.468C199.406 183.224 199.482 182.899 199.726 182.747L208.003 177.604C208.247 177.453 208.572 177.529 208.724 177.773C208.875 178.017 208.799 178.342 208.555 178.494Z" fill="#0054A6"/>
<path d="M209.459 174.189L200.087 180.013C199.843 180.164 199.518 180.088 199.366 179.844C199.215 179.6 199.291 179.275 199.535 179.123L208.907 173.3C209.151 173.148 209.476 173.224 209.628 173.468C209.78 173.712 209.704 174.038 209.459 174.189Z" fill="#0054A6"/>
<path d="M240.998 176.629L238.235 175.249C238.092 173.818 237.721 172.395 237.11 171.044L238.81 168.47C238.869 168.381 238.867 168.261 238.801 168.176L236.544 165.239C236.478 165.153 236.364 165.119 236.261 165.151L233.339 166.13C232.191 165.191 230.914 164.462 229.562 163.954L228.945 160.931C228.923 160.826 228.837 160.746 228.728 160.728L225.06 160.248C224.952 160.234 224.846 160.288 224.8 160.386L223.421 163.145C221.989 163.288 220.567 163.662 219.216 164.274L216.642 162.574C216.553 162.514 216.433 162.517 216.347 162.582L213.411 164.839C213.325 164.905 213.291 165.016 213.322 165.122L214.302 168.044C213.362 169.193 212.634 170.47 212.125 171.818L209.103 172.438C208.997 172.461 208.917 172.544 208.9 172.652L208.42 176.323C208.406 176.429 208.46 176.534 208.557 176.583L211.317 177.96C211.46 179.394 211.834 180.814 212.445 182.168L210.746 184.739C210.686 184.83 210.688 184.947 210.754 185.036L213.011 187.972C213.077 188.058 213.188 188.092 213.294 188.058L216.216 187.078C217.364 188.018 218.641 188.744 219.99 189.255L220.61 192.277C220.632 192.383 220.715 192.463 220.824 192.477L224.495 192.96C224.6 192.975 224.706 192.92 224.755 192.823L226.132 190.061C227.566 189.918 228.985 189.546 230.339 188.935L232.91 190.635C233.002 190.692 233.119 190.692 233.208 190.626L236.144 188.37C236.23 188.304 236.264 188.19 236.23 188.087L235.25 185.164C236.19 184.016 236.916 182.739 237.427 181.388L240.449 180.771C240.555 180.748 240.635 180.662 240.649 180.554L241.132 176.886C241.149 176.777 241.095 176.674 240.998 176.629ZM224.78 183.762C220.83 183.762 217.627 180.559 217.627 176.609C217.627 172.658 220.83 169.456 224.78 169.456C228.731 169.456 231.933 172.658 231.933 176.609C231.933 180.557 228.731 183.762 224.78 183.762Z" fill="#839299"/>
<path d="M258.169 188.056L256.435 187.356C256.281 186.496 255.986 185.656 255.552 184.87L256.455 183.236C256.486 183.179 256.478 183.108 256.432 183.059L254.929 181.394C254.886 181.345 254.818 181.331 254.758 181.354L253.038 182.085C252.301 181.577 251.493 181.197 250.653 180.954L250.136 179.157C250.116 179.097 250.062 179.051 249.996 179.049L247.756 178.934C247.691 178.929 247.631 178.969 247.605 179.029L246.905 180.763C246.045 180.917 245.205 181.211 244.42 181.645L242.783 180.743C242.726 180.711 242.654 180.72 242.606 180.765L240.943 182.265C240.894 182.311 240.877 182.379 240.903 182.439L241.634 184.159C241.123 184.896 240.746 185.705 240.503 186.544L238.706 187.061C238.643 187.081 238.601 187.136 238.598 187.201L238.481 189.441C238.478 189.507 238.518 189.567 238.578 189.592L240.312 190.292C240.466 191.152 240.76 191.992 241.194 192.778L240.292 194.415C240.26 194.472 240.266 194.54 240.312 194.592L241.814 196.254C241.857 196.303 241.929 196.317 241.989 196.294L243.708 195.563C244.445 196.074 245.254 196.451 246.094 196.694L246.611 198.491C246.631 198.554 246.685 198.597 246.751 198.6L248.99 198.714C249.056 198.72 249.116 198.68 249.142 198.62L249.842 196.886C250.701 196.731 251.541 196.437 252.327 196.003L253.961 196.906C254.018 196.937 254.089 196.928 254.138 196.886L255.803 195.383C255.852 195.34 255.866 195.269 255.843 195.209L255.109 193.489C255.621 192.752 256.001 191.944 256.243 191.104L258.037 190.587C258.1 190.567 258.146 190.512 258.149 190.447L258.263 188.207C258.269 188.141 258.229 188.081 258.169 188.056ZM248.376 193.42C245.837 193.42 243.777 191.361 243.777 188.821C243.777 186.282 245.837 184.222 248.376 184.222C250.916 184.222 252.975 186.282 252.975 188.821C252.973 191.364 250.916 193.42 248.376 193.42Z" fill="#839299"/>
<path d="M243.585 204.424L241.736 203.501C241.639 202.541 241.388 201.59 240.982 200.685L242.119 198.962C242.159 198.902 242.159 198.822 242.111 198.765L240.602 196.8C240.559 196.742 240.482 196.72 240.414 196.742L238.457 197.397C237.688 196.771 236.831 196.282 235.932 195.943L235.517 193.917C235.503 193.846 235.443 193.794 235.375 193.783L232.918 193.46C232.844 193.452 232.778 193.489 232.744 193.554L231.824 195.403C230.861 195.497 229.913 195.748 229.007 196.157L227.284 195.017C227.224 194.977 227.144 194.98 227.087 195.026L225.122 196.537C225.065 196.58 225.042 196.657 225.065 196.722L225.719 198.682C225.09 199.451 224.605 200.305 224.265 201.207L222.24 201.619C222.168 201.633 222.117 201.69 222.105 201.764L221.782 204.221C221.774 204.293 221.811 204.361 221.874 204.393L223.725 205.315C223.819 206.275 224.071 207.226 224.479 208.129L223.339 209.852C223.299 209.912 223.302 209.989 223.348 210.049L224.859 212.014C224.902 212.071 224.979 212.094 225.045 212.071L227.002 211.417C227.77 212.046 228.627 212.534 229.53 212.874L229.941 214.897C229.955 214.968 230.015 215.022 230.087 215.034L232.541 215.354C232.612 215.362 232.684 215.328 232.715 215.262L233.638 213.414C234.597 213.317 235.549 213.065 236.451 212.66L238.174 213.797C238.234 213.837 238.311 213.837 238.371 213.791L240.337 212.28C240.394 212.237 240.417 212.16 240.394 212.091L239.74 210.134C240.368 209.366 240.854 208.512 241.196 207.609L243.219 207.195C243.29 207.181 243.345 207.124 243.353 207.052L243.676 204.595C243.687 204.527 243.65 204.455 243.585 204.424ZM232.729 209.74C229.787 209.74 227.399 207.355 227.399 204.41C227.399 201.467 229.787 199.079 232.729 199.079C235.674 199.079 238.06 201.464 238.06 204.41C238.06 207.355 235.674 209.74 232.729 209.74Z" fill="#839299"/>
<path d="M221.401 197.776L220.41 197.282C220.358 196.768 220.224 196.257 220.004 195.771L220.616 194.845C220.636 194.814 220.636 194.771 220.61 194.74L219.799 193.683C219.776 193.654 219.736 193.643 219.699 193.654L218.647 194.003C218.236 193.666 217.776 193.406 217.293 193.223L217.07 192.134C217.062 192.097 217.03 192.069 216.996 192.063L215.676 191.892C215.636 191.883 215.599 191.906 215.582 191.94L215.088 192.934C214.571 192.986 214.059 193.12 213.577 193.337L212.654 192.729C212.62 192.706 212.58 192.709 212.548 192.731L211.494 193.543C211.463 193.568 211.451 193.606 211.463 193.646L211.814 194.694C211.477 195.105 211.214 195.565 211.031 196.051L209.946 196.271C209.906 196.279 209.877 196.311 209.872 196.348L209.7 197.665C209.694 197.705 209.714 197.739 209.749 197.756L210.743 198.251C210.794 198.765 210.929 199.276 211.149 199.762L210.537 200.687C210.514 200.719 210.517 200.762 210.543 200.793L211.351 201.85C211.374 201.879 211.417 201.893 211.454 201.879L212.505 201.53C212.917 201.867 213.374 202.127 213.859 202.31L214.079 203.398C214.088 203.435 214.119 203.464 214.157 203.47L215.474 203.644C215.514 203.65 215.551 203.627 215.568 203.593L216.062 202.601C216.576 202.547 217.09 202.416 217.573 202.196L218.496 202.804C218.53 202.827 218.57 202.824 218.602 202.801L219.656 201.99C219.687 201.967 219.699 201.927 219.687 201.887L219.336 200.839C219.673 200.427 219.936 199.967 220.118 199.482L221.204 199.262C221.244 199.253 221.273 199.222 221.278 199.185L221.45 197.868C221.458 197.831 221.438 197.793 221.401 197.776ZM215.576 200.444C214.099 200.444 212.903 199.245 212.903 197.768C212.903 196.291 214.099 195.094 215.576 195.094C217.056 195.094 218.253 196.291 218.253 197.768C218.253 199.245 217.056 200.444 215.576 200.444Z" fill="#D2D9DC"/>
<path d="M255.969 170.212L254.752 169.324C254.801 168.604 254.729 167.887 254.549 167.207L255.578 166.104C255.615 166.064 255.621 166.01 255.598 165.964L254.749 164.367C254.724 164.319 254.672 164.296 254.621 164.302L253.129 164.536C252.67 164.005 252.118 163.545 251.49 163.179L251.438 161.674C251.438 161.619 251.401 161.576 251.35 161.559L249.621 161.028C249.573 161.014 249.516 161.034 249.484 161.074L248.599 162.291C247.876 162.242 247.162 162.313 246.479 162.493L245.379 161.465C245.339 161.431 245.282 161.422 245.237 161.448L243.64 162.293C243.594 162.319 243.565 162.371 243.574 162.422L243.808 163.913C243.28 164.373 242.817 164.924 242.454 165.553L240.946 165.604C240.894 165.607 240.849 165.641 240.832 165.693L240.303 167.421C240.286 167.473 240.306 167.527 240.346 167.558L241.566 168.447C241.514 169.167 241.589 169.884 241.769 170.563L240.74 171.666C240.703 171.703 240.697 171.76 240.72 171.806L241.569 173.403C241.591 173.452 241.643 173.474 241.697 173.469L243.185 173.234C243.648 173.763 244.197 174.226 244.825 174.591L244.877 176.097C244.879 176.148 244.914 176.194 244.965 176.211L246.693 176.74C246.745 176.757 246.799 176.737 246.831 176.697L247.719 175.48C248.442 175.528 249.156 175.457 249.836 175.277L250.938 176.305C250.978 176.343 251.033 176.348 251.081 176.325L252.678 175.48C252.724 175.454 252.752 175.403 252.741 175.351L252.507 173.86C253.038 173.4 253.498 172.849 253.864 172.22L255.369 172.169C255.423 172.166 255.469 172.132 255.483 172.08L256.015 170.352C256.029 170.298 256.012 170.244 255.969 170.212ZM248.159 172.752C246.019 172.752 244.285 171.018 244.285 168.878C244.285 166.741 246.019 165.007 248.159 165.007C250.296 165.007 252.03 166.741 252.03 168.878C252.03 171.018 250.296 172.752 248.159 172.752Z" fill="#839299"/>
<path d="M290.598 223.598H253.03C251.825 223.598 250.848 222.621 250.848 221.415V200.696C250.848 199.49 251.825 198.513 253.03 198.513H290.598C291.804 198.513 292.781 199.49 292.781 200.696V221.415C292.784 222.621 291.804 223.598 290.598 223.598Z" fill="#002548"/>
<path d="M289.953 222.369H253.579C252.827 222.369 252.219 221.761 252.219 221.009V200.593C252.219 199.842 252.827 199.233 253.579 199.233H289.953C290.704 199.233 291.312 199.842 291.312 200.593V221.009C291.312 221.761 290.704 222.369 289.953 222.369Z" fill="#D2D9DC"/>
<g opacity="0.67">
<path d="M257.111 205.429H254.426V220.924H257.111V205.429Z" fill="#0054A6"/>
</g>
<g opacity="0.67">
<path d="M260.717 205.429H258.031V220.924H260.717V205.429Z" fill="#0054A6"/>
</g>
<g opacity="0.67">
<path d="M264.142 205.429H261.457V220.924H264.142V205.429Z" fill="#0054A6"/>
</g>
<g opacity="0.67">
<path d="M267.748 205.429H265.062V220.924H267.748V205.429Z" fill="#0054A6"/>
</g>
<g opacity="0.67">
<path d="M271.279 205.429H268.594V220.924H271.279V205.429Z" fill="#0054A6"/>
</g>
<g opacity="0.67">
<path d="M274.884 205.429H272.199V220.924H274.884V205.429Z" fill="#0054A6"/>
</g>
<g opacity="0.67">
<path d="M278.478 205.429H275.793V220.924H278.478V205.429Z" fill="#0054A6"/>
</g>
<g opacity="0.67">
<path d="M282.084 205.429H279.398V220.924H282.084V205.429Z" fill="#0054A6"/>
</g>
<g opacity="0.67">
<path d="M285.615 205.429H282.93V220.924H285.615V205.429Z" fill="#0054A6"/>
</g>
<g opacity="0.67">
<path d="M289.22 205.429H286.535V220.924H289.22V205.429Z" fill="#0054A6"/>
</g>
<path d="M292.785 203.553V199.999C292.785 199.162 292.191 198.442 291.466 198.442H252.286C251.561 198.442 250.918 199.162 250.918 199.999V203.553H292.785Z" fill="#002548"/>
<g opacity="0.19">
<path d="M257.127 214.114H254.441V220.924H257.127V214.114Z" fill="#2D2F31"/>
<path d="M260.732 211.914H258.047V220.924H260.732V211.914Z" fill="#2D2F31"/>
<path d="M264.154 210.64H261.469V220.921H264.154V210.64Z" fill="#2D2F31"/>
<path d="M267.759 217.007H265.074V220.921H267.759V217.007Z" fill="#2D2F31"/>
<path d="M271.287 213.128H268.602V220.921H271.287V213.128Z" fill="#2D2F31"/>
<path d="M274.9 211.694H272.215V220.921H274.9V211.694Z" fill="#2D2F31"/>
<path d="M278.498 213.419H275.812V220.924H278.498V213.419Z" fill="#2D2F31"/>
<path d="M282.099 209.134H279.414V220.921H282.099V209.134Z" fill="#2D2F31"/>
<path d="M285.631 210.871H282.945V220.921H285.631V210.871Z" fill="#2D2F31"/>
<path d="M289.236 205.347H286.551V220.924H289.236V205.347Z" fill="#2D2F31"/>
</g>
<path d="M266.024 174.483C268.27 172.661 268.613 169.363 266.791 167.118C264.968 164.872 261.671 164.529 259.425 166.351C257.18 168.173 256.837 171.471 258.659 173.716C260.481 175.962 263.779 176.305 266.024 174.483Z" fill="#FFDD33"/>
<path opacity="0.19" d="M264.974 174.24C267.012 173.038 267.69 170.411 266.488 168.372C265.286 166.334 262.659 165.656 260.62 166.858C258.582 168.061 257.904 170.688 259.106 172.726C260.309 174.764 262.936 175.442 264.974 174.24Z" fill="#2D2F31"/>
<path d="M261.599 173.526L261.717 173.074C261.251 172.934 260.814 172.703 260.52 172.471C260.414 172.389 260.388 172.24 260.454 172.126L260.677 171.734C260.76 171.592 260.948 171.554 261.08 171.654C261.371 171.877 261.748 172.089 262.185 172.203C262.639 172.32 263.016 172.254 263.096 171.937C263.171 171.654 262.954 171.417 262.365 171.086C261.531 170.609 260.985 170.049 261.191 169.258C261.377 168.543 262.039 168.132 262.982 168.221L263.099 167.769C263.136 167.624 263.285 167.538 263.431 167.575L263.696 167.644C263.842 167.681 263.928 167.829 263.891 167.975L263.785 168.381C264.216 168.509 264.513 168.666 264.742 168.821C264.859 168.898 264.893 169.055 264.825 169.178L264.619 169.54C264.539 169.68 264.359 169.72 264.228 169.629C264.019 169.48 263.713 169.306 263.291 169.198C262.754 169.058 262.542 169.243 262.491 169.44C262.428 169.686 262.705 169.938 263.351 170.335C264.27 170.892 264.579 171.414 264.388 172.16C264.21 172.843 263.545 173.328 262.522 173.228L262.391 173.734C262.354 173.88 262.205 173.965 262.059 173.928L261.794 173.86C261.648 173.82 261.562 173.671 261.599 173.526Z" fill="#FFDD33"/>
<path d="M285.517 168.505C287.793 164.371 286.286 159.175 282.152 156.899C278.017 154.624 272.821 156.131 270.546 160.265C268.27 164.399 269.777 169.595 273.911 171.871C278.046 174.146 283.242 172.639 285.517 168.505Z" fill="#FFDD33"/>
<path opacity="0.19" d="M279.771 171.423C283.529 170.533 285.854 166.765 284.964 163.006C284.074 159.248 280.306 156.923 276.547 157.813C272.789 158.703 270.464 162.472 271.354 166.23C272.244 169.988 276.013 172.313 279.771 171.423Z" fill="#2D2F31"/>
<path d="M276.194 169.472L276.386 168.735C275.626 168.506 274.912 168.129 274.435 167.752C274.263 167.618 274.22 167.378 274.329 167.19L274.692 166.553C274.826 166.318 275.132 166.258 275.346 166.421C275.823 166.784 276.437 167.132 277.151 167.315C277.891 167.507 278.508 167.398 278.64 166.884C278.76 166.421 278.405 166.035 277.448 165.493C276.086 164.713 275.197 163.802 275.532 162.51C275.832 161.345 276.914 160.673 278.454 160.819L278.645 160.082C278.705 159.845 278.948 159.702 279.185 159.765L279.617 159.876C279.854 159.936 279.997 160.179 279.934 160.416L279.762 161.079C280.465 161.291 280.951 161.545 281.325 161.796C281.516 161.925 281.574 162.182 281.459 162.382L281.122 162.973C280.994 163.202 280.697 163.267 280.482 163.116C280.142 162.876 279.645 162.587 278.951 162.41C278.074 162.185 277.728 162.482 277.646 162.807C277.543 163.207 277.997 163.619 279.048 164.264C280.551 165.173 281.054 166.024 280.739 167.241C280.451 168.358 279.365 169.146 277.697 168.984L277.486 169.809C277.426 170.046 277.183 170.189 276.946 170.126L276.511 170.015C276.274 169.952 276.132 169.709 276.194 169.472Z" fill="#FFDD33"/>
<path d="M285.938 190.206C289.173 186.584 288.86 181.025 285.238 177.79C281.616 174.555 276.058 174.868 272.823 178.49C269.587 182.112 269.901 187.67 273.523 190.906C277.144 194.141 282.703 193.827 285.938 190.206Z" fill="#FFDD33"/>
<path opacity="0.19" d="M285.768 188.12C287.729 184.663 286.516 180.271 283.059 178.31C279.602 176.35 275.211 177.562 273.25 181.019C271.289 184.476 272.501 188.868 275.958 190.829C279.415 192.789 283.807 191.577 285.768 188.12Z" fill="#2D2F31"/>
<path d="M277.488 189.575L277.682 188.818C276.899 188.583 276.168 188.195 275.674 187.809C275.497 187.672 275.454 187.424 275.565 187.229L275.939 186.572C276.077 186.332 276.394 186.269 276.614 186.438C277.105 186.812 277.736 187.169 278.47 187.358C279.23 187.555 279.865 187.444 280.002 186.915C280.124 186.438 279.759 186.041 278.776 185.484C277.374 184.681 276.459 183.744 276.802 182.416C277.111 181.216 278.225 180.528 279.81 180.673L280.004 179.916C280.067 179.673 280.316 179.525 280.559 179.588L281.004 179.702C281.247 179.765 281.396 180.013 281.333 180.256L281.159 180.936C281.881 181.153 282.381 181.416 282.767 181.673C282.964 181.804 283.021 182.067 282.904 182.276L282.558 182.884C282.424 183.119 282.121 183.187 281.901 183.033C281.55 182.784 281.041 182.49 280.324 182.307C279.422 182.073 279.068 182.381 278.982 182.716C278.876 183.127 279.345 183.553 280.424 184.215C281.973 185.152 282.487 186.027 282.164 187.278C281.867 188.426 280.75 189.238 279.033 189.069L278.813 189.917C278.75 190.16 278.502 190.309 278.259 190.246L277.813 190.132C277.571 190.066 277.425 189.817 277.488 189.575Z" fill="#FFDD33"/>
<path d="M300.27 175.358C301.624 171.718 299.771 167.668 296.13 166.314C292.489 164.959 288.44 166.813 287.085 170.453C285.731 174.094 287.584 178.144 291.225 179.498C294.866 180.852 298.915 178.999 300.27 175.358Z" fill="#FFDD33"/>
<path opacity="0.19" d="M299.528 173.255C299.618 170.079 297.116 167.431 293.94 167.341C290.764 167.251 288.116 169.753 288.026 172.929C287.936 176.105 290.438 178.753 293.614 178.843C296.791 178.933 299.438 176.431 299.528 173.255Z" fill="#2D2F31"/>
<path d="M292.153 177.091L292.31 176.485C291.685 176.297 291.099 175.985 290.705 175.677C290.565 175.565 290.53 175.368 290.619 175.211L290.919 174.686C291.028 174.494 291.282 174.443 291.459 174.577C291.85 174.874 292.359 175.163 292.944 175.314C293.553 175.471 294.061 175.383 294.17 174.96C294.267 174.577 293.976 174.26 293.19 173.814C292.067 173.172 291.336 172.423 291.61 171.36C291.859 170.401 292.747 169.849 294.016 169.966L294.173 169.361C294.224 169.166 294.421 169.049 294.618 169.098L294.975 169.189C295.17 169.241 295.287 169.438 295.238 169.635L295.098 170.181C295.678 170.355 296.078 170.563 296.384 170.772C296.541 170.878 296.587 171.089 296.495 171.252L296.218 171.737C296.112 171.926 295.867 171.98 295.692 171.855C295.413 171.657 295.004 171.42 294.433 171.275C293.71 171.089 293.427 171.335 293.359 171.603C293.273 171.935 293.647 172.272 294.513 172.803C295.75 173.551 296.164 174.251 295.904 175.254C295.667 176.171 294.773 176.822 293.399 176.688L293.224 177.365C293.173 177.559 292.976 177.676 292.779 177.628L292.422 177.536C292.222 177.485 292.104 177.288 292.153 177.091Z" fill="#FFDD33"/>
<path d="M323.974 133.281C326.112 133.407 328.25 133.91 330.136 134.916L328.375 137.18L339.693 138.563L335.291 128L333.531 130.263C330.387 129.006 326.992 128.503 323.723 128.754C319.699 129.132 315.8 130.766 312.782 133.281C309.764 135.796 307.627 139.317 306.621 142.964C305.615 146.611 305.866 150.509 307.124 153.904C306.369 150.383 306.747 146.611 308.13 143.467C309.513 140.198 311.776 137.557 314.669 135.796C317.561 134.036 320.83 133.03 323.974 133.281Z" fill="#54CB5A"/>
<path d="M342.333 154.784C343.339 151.012 342.961 146.988 341.578 143.467C342.458 147.114 342.207 151.012 340.824 154.407C339.44 157.802 337.051 160.569 334.159 162.455C331.267 164.215 327.746 165.096 324.476 164.844C322.339 164.718 320.327 164.09 318.566 163.084L320.201 160.82L308.758 159.437L313.285 170L315.171 167.611C318.189 168.868 321.333 169.497 324.476 169.245C328.752 168.994 332.776 167.359 335.92 164.844C339.063 162.203 341.327 158.557 342.333 154.784Z" fill="#54CB5A"/>
<path d="M106.56 195.313L100.487 201.258C100.039 201.706 99.2718 201.706 98.7603 201.258L94.7326 197.167C94.2851 196.719 94.2851 195.952 94.7326 195.441L100.806 189.495C97.6095 188.408 93.9654 189.111 91.4081 191.605C88.3393 194.61 87.8279 199.149 89.8737 202.665C89.8737 202.665 89.8737 202.729 89.9376 202.729L61.8713 229.517C60.7205 230.604 60.7205 232.394 61.8073 233.48C62.8942 234.567 64.6843 234.567 65.7711 233.48L93.1343 205.99C93.1343 205.99 93.1982 205.99 93.1982 206.053C96.7145 208.163 101.254 207.716 104.322 204.711C106.816 202.217 107.583 198.573 106.56 195.313ZM65.0039 232.138C64.5564 232.713 63.7253 232.841 63.1499 232.394C62.5745 231.946 62.4466 231.115 62.8942 230.54C63.3417 229.964 64.1728 229.836 64.7482 230.284C65.3236 230.731 65.4515 231.563 65.0039 232.138Z" fill="#D1D8DB"/>
<path d="M130.3 76.9222L118.353 69.503L116.216 73.1497C115.587 74.2814 114.329 74.7844 113.072 74.6587C112.318 74.6587 111.689 74.5329 110.934 74.5329C109.677 74.5329 108.545 73.9042 107.916 72.7725L105.904 69L93.581 75.6647L95.593 79.4371C96.2217 80.5689 96.0959 81.8264 95.3415 82.9581C94.9642 83.5868 94.587 84.0898 94.2097 84.7186C93.581 85.8503 92.4492 86.479 91.1918 86.479L86.9163 86.3533L86.5391 100.311L90.8145 100.437C92.072 100.437 93.2037 101.192 93.7067 102.449C93.8325 102.701 93.9582 103.078 94.2097 103.329C94.3355 103.581 94.587 103.958 94.7127 104.21C95.3415 105.341 95.3415 106.599 94.7127 107.731L92.4492 111.377L104.395 118.796L106.659 115.15C107.288 114.018 108.545 113.515 109.803 113.641C110.557 113.641 111.186 113.766 111.94 113.766C113.198 113.766 114.329 114.395 114.958 115.527L116.97 119.299L129.294 112.635L127.282 108.862C126.653 107.731 126.779 106.473 127.533 105.341C127.91 104.713 128.288 104.21 128.665 103.581C129.294 102.449 130.425 101.82 131.683 101.82L135.958 101.946L136.335 87.988L132.06 87.8623C130.803 87.8623 129.671 87.1078 129.168 85.8503C129.042 85.5988 128.916 85.2216 128.665 84.9701C128.539 84.7186 128.288 84.3413 128.162 84.0898C127.533 82.9581 127.533 81.7006 128.162 80.5689L130.3 76.9222ZM121.497 88.7425C124.515 94.2754 122.377 101.317 116.844 104.335C111.312 107.353 104.27 105.216 101.252 99.6826C98.2337 94.1497 100.371 87.1078 105.904 84.0898C111.563 81.0719 118.479 83.2096 121.497 88.7425Z" fill="#D1D8DB"/>
<path d="M93.7066 120.431L88.8024 111.88L86.1617 113.389C85.4072 113.892 84.4012 113.766 83.7725 113.263C83.3952 113.012 82.8922 112.76 82.515 112.509C81.7605 112.132 81.2575 111.377 81.2575 110.371V107.353H71.4491V110.371C71.4491 111.251 70.9461 112.006 70.1916 112.509C69.8144 112.76 69.3114 113.012 68.9341 113.263C68.1796 113.766 67.2994 113.766 66.5449 113.389L63.9042 111.88L59 120.431L61.6407 121.94C62.3952 122.443 62.7725 123.198 62.7725 124.078C62.7725 124.329 62.7725 124.581 62.7725 124.832C62.7725 125.084 62.7725 125.335 62.7725 125.587C62.7725 126.467 62.3952 127.347 61.6407 127.725L59 129.234L63.9042 137.784L66.5449 136.275C67.2994 135.772 68.3054 135.898 68.9341 136.401C69.3114 136.653 69.8144 136.904 70.1916 137.156C70.9461 137.533 71.4491 138.287 71.4491 139.293V142.311H81.2575V139.042C81.2575 138.162 81.7605 137.407 82.515 136.904C82.8922 136.653 83.3952 136.401 83.7725 136.15C84.5269 135.647 85.4072 135.647 86.1617 136.024L88.8024 137.533L93.7066 128.982L91.0659 127.725C90.3114 127.222 89.9341 126.467 89.9341 125.587C89.9341 125.335 89.9341 125.084 89.9341 124.832C89.9341 124.581 89.9341 124.329 89.9341 124.078C89.9341 123.198 90.3114 122.317 91.0659 121.94L93.7066 120.431ZM84.4012 124.832C84.4012 129.234 80.7545 132.88 76.3533 132.88C71.9521 132.88 68.3054 129.234 68.3054 124.832C68.3054 120.431 71.9521 116.784 76.3533 116.784C80.7545 116.784 84.4012 120.305 84.4012 124.832Z" fill="#D1D8DB"/>
</svg>
