<svg width="100" height="100" viewBox="0 0 100 100" fill="none" xmlns="http://www.w3.org/2000/svg">
<g clip-path="url(#clip0_6034_12706)">
<path d="M35.7988 47.6999C35.1988 47.0999 34.4988 46.4999 33.6988 45.9999C34.7988 44.4999 35.3988 42.6999 35.3988 40.6999C35.3988 35.7999 31.3988 31.7999 26.4988 31.7999C21.5988 31.7999 17.5988 35.7999 17.5988 40.6999C17.5988 42.6999 18.1988 44.4999 19.2988 45.9999C15.6988 48.3999 13.2988 52.4999 13.2988 57.0999V59.4999C13.2988 63.3999 16.4988 66.5999 20.3988 66.5999H32.3988C36.2988 66.5999 39.4988 63.3999 39.4988 59.4999V56.9999C39.6988 53.3999 38.2988 50.0999 35.7988 47.6999Z" fill="#FFDD33"/>
<path d="M82.6992 47.6999C81.9992 46.9999 81.2992 46.4999 80.5992 45.9999C81.6992 44.4999 82.2992 42.6999 82.2992 40.6999C82.2992 35.7999 78.2992 31.7999 73.3992 31.7999C68.4992 31.7999 64.4992 35.7999 64.4992 40.6999C64.4992 42.6999 65.0992 44.4999 66.1992 45.9999C62.5992 48.3999 60.1992 52.4999 60.1992 57.0999V59.4999C60.1992 63.3999 63.3992 66.5999 67.2992 66.5999H79.2992C83.1992 66.5999 86.3992 63.3999 86.3992 59.4999V56.9999C86.4992 53.3999 85.1992 50.0999 82.6992 47.6999Z" fill="#54CC5A"/>
<path d="M63.1 48.7C61.8 47.4 60.3 46.3 58.7 45.5C60.8 43.3 62.1 40.3 62.1 37C62.1 30.3 56.7 24.9 50 24.9C43.3 24.9 37.9 30.3 37.9 37C37.9 40.3 39.2 43.3 41.4 45.5C35.5 48.7 31.5 54.9 31.5 62.1V65.8C31.5 70.9 35.7 75.1 40.8 75.1H59.2C64.3 75.1 68.5 70.9 68.5 65.8V61.9C68.6 56.9 66.6 52.2 63.1 48.7Z" fill="#0054A6"/>
<path d="M8.49934 65C8.99934 66.5 8.29934 68.2 6.79934 68.7C6.49934 68.8 6.09934 68.9 5.79934 68.9C4.59934 68.9 3.49934 68.2 3.09934 67C-4.80066 45.6 2.89934 21.7 21.6993 8.79997C40.0993 -3.80003 64.5993 -2.70003 81.6993 11.4L81.2993 7.49997C81.0993 5.89997 82.2993 4.49997 83.8993 4.29997C85.4993 4.09997 86.8993 5.29997 87.0993 6.89997L88.2993 18.3C88.4993 19.9 87.2993 21.3 85.6993 21.5L74.2993 22.7C74.1993 22.7 74.0993 22.7 73.9993 22.7C72.4993 22.7 71.2993 21.6 71.0993 20.1C70.8993 18.5 72.0993 17.1 73.6993 16.9L78.5993 16.4C63.4993 3.39997 41.4993 2.29997 24.9993 13.6C8.39934 25 1.59934 46.1 8.49934 65ZM96.9993 33C96.4993 31.5 94.7993 30.7 93.2993 31.3C91.7993 31.9 90.9993 33.4 91.4993 35C98.3993 53.9 91.5993 75 74.9993 86.4C58.4993 97.7 36.4993 96.6 21.3993 83.6L26.2993 83.1C27.8993 82.9 28.9993 81.5 28.8993 79.9C28.6993 78.3 27.2993 77.2 25.6993 77.3L14.2993 78.5C12.6993 78.7 11.5993 80.1 11.6993 81.7L12.8993 93.1C13.0993 94.6 14.2993 95.7 15.7993 95.7C15.8993 95.7 15.9993 95.7 16.0993 95.7C17.6993 95.5 18.7993 94.1 18.6993 92.5L18.2993 88.6C27.3993 96.2 38.6993 100 49.9993 100C59.7993 100 69.6993 97.1 78.2993 91.2C97.0993 78.3 104.799 54.4 96.9993 33Z" fill="#839299"/>
</g>
<defs>
<clipPath id="clip0_6034_12706">
<rect width="100" height="100" fill="white"/>
</clipPath>
</defs>
</svg>
