<svg width="420" height="312" viewBox="0 0 420 312" fill="none" xmlns="http://www.w3.org/2000/svg">
<path d="M94.5625 87.0171V81.8614C94.5625 80.8554 93.808 80.1009 92.8021 80.1009H90.4128C89.6583 80.1009 88.9038 79.5979 88.7781 78.8434C88.4008 77.7117 87.8979 76.5799 87.3949 75.4482C87.0176 74.8195 87.1434 73.9392 87.7721 73.4362L89.5326 71.6757C90.1613 71.047 90.1613 69.9153 89.5326 69.1608L85.8859 65.5141C85.2571 64.8853 84.1254 64.8853 83.3709 65.5141L81.6104 67.2746C81.1074 67.7775 80.2272 67.9033 79.5985 67.6518C78.5925 67.1488 77.4607 66.6458 76.2032 66.2686C75.4488 66.0171 74.9458 65.3883 74.9458 64.6338V62.2446C74.9458 61.2386 74.1913 60.4841 73.1853 60.4841H68.0296C67.0236 60.4841 66.2691 61.2386 66.2691 62.2446V64.6338C66.2691 65.3883 65.7661 66.1428 65.0116 66.2686C63.8799 66.6458 62.7482 67.1488 61.6164 67.6518C60.9877 68.029 60.1074 67.9033 59.6044 67.2746L57.844 65.6398C57.2152 65.0111 56.0835 65.0111 55.329 65.6398L51.6823 69.2865C51.0535 69.9153 51.0535 71.047 51.6823 71.8015L53.4428 73.562C53.9458 74.065 54.0715 74.9452 53.82 75.574C53.317 76.5799 52.814 77.7117 52.4368 78.9692C52.1853 79.7237 51.5565 80.2266 50.802 80.2266H48.4128C47.4068 80.2266 46.6523 80.9811 46.6523 81.9871V87.1428C46.6523 88.1488 47.4068 88.9033 48.4128 88.9033H50.802C51.5565 88.9033 52.311 89.4063 52.4368 90.1608C52.814 91.2925 53.317 92.4243 53.82 93.556C54.1973 94.1847 54.0715 95.065 53.4428 95.568L51.6823 97.3284C51.0535 97.9572 51.0535 99.0889 51.6823 99.8434L55.329 103.49C55.9577 104.119 57.0895 104.119 57.844 103.49L59.6044 101.73C60.1074 101.227 60.9877 101.101 61.6164 101.352C62.6224 101.855 63.7541 102.358 65.0116 102.736C65.7661 102.987 66.2691 103.616 66.2691 104.37V106.76C66.2691 107.766 67.0236 108.52 68.0296 108.52H73.1853C74.1913 108.52 74.9458 107.766 74.9458 106.76V104.37C74.9458 103.616 75.4488 102.861 76.2032 102.736C77.335 102.358 78.4667 101.855 79.5985 101.352C80.2272 100.975 81.1074 101.101 81.6104 101.73L83.3709 103.49C83.9997 104.119 85.1314 104.119 85.8859 103.49L89.5326 99.8434C90.1613 99.2147 90.1613 98.0829 89.5326 97.3284L87.7721 95.568C87.2691 95.065 87.1434 94.1847 87.3949 93.556C87.8979 92.55 88.4008 91.4183 88.7781 90.1608C89.0296 89.4063 89.6583 88.9033 90.4128 88.9033H92.8021C93.808 88.7775 94.5625 88.0231 94.5625 87.0171ZM70.5446 94.059C65.2631 94.059 60.9877 89.7835 60.9877 84.5021C60.9877 79.2207 65.2631 74.9452 70.5446 74.9452C75.826 74.9452 80.1014 79.2207 80.1014 84.5021C80.1014 89.7835 75.826 94.059 70.5446 94.059Z" fill="#829198"/>
<path d="M229.24 99.0895V213.521C229.24 215.784 227.353 217.545 225.216 217.545H79.4732C77.2097 217.545 75.4492 215.658 75.4492 213.521V99.0895C75.4492 96.826 77.3354 95.0655 79.4732 95.0655H225.09C227.353 94.9398 229.24 96.826 229.24 99.0895Z" fill="#D1D8DB"/>
<path d="M229.24 99.0895V105.377H75.3242V99.0895C75.3242 96.826 77.2104 95.0655 79.3482 95.0655H225.091C227.354 94.9398 229.24 96.826 229.24 99.0895Z" fill="#002548"/>
<path d="M92.8047 100.598C92.8047 101.227 93.3077 101.855 94.0622 101.855C94.8167 101.855 95.3197 101.352 95.3197 100.598C95.3197 99.8433 94.8167 99.3403 94.0622 99.3403C93.3077 99.3403 92.8047 99.9691 92.8047 100.598Z" fill="#54CB5A"/>
<path d="M88.777 101.855C89.4715 101.855 90.0345 101.292 90.0345 100.598C90.0345 99.9033 89.4715 99.3403 88.777 99.3403C88.0825 99.3403 87.5195 99.9033 87.5195 100.598C87.5195 101.292 88.0825 101.855 88.777 101.855Z" fill="#FFDC33"/>
<path d="M83.6247 101.855C84.3192 101.855 84.8822 101.292 84.8822 100.598C84.8822 99.9033 84.3192 99.3403 83.6247 99.3403C82.9302 99.3403 82.3672 99.9033 82.3672 100.598C82.3672 101.292 82.9302 101.855 83.6247 101.855Z" fill="#EC1C24"/>
<path d="M85.7645 121.471H93.561C94.1897 121.471 94.6927 120.968 94.6927 120.34C94.6927 119.711 94.1897 119.208 93.561 119.208H85.7645C85.1358 119.208 84.6328 119.711 84.6328 120.34C84.6328 120.968 85.1358 121.471 85.7645 121.471Z" fill="#54CB5A"/>
<path d="M100.225 121.471H128.142C128.77 121.471 129.273 120.968 129.273 120.34C129.273 119.711 128.77 119.208 128.142 119.208H100.225C99.5967 119.208 99.0938 119.711 99.0938 120.34C99.0938 120.968 99.5967 121.471 100.225 121.471Z" fill="#54CB5A"/>
<path d="M134.683 121.471H153.671H157.569H161.467C162.096 121.471 162.599 120.968 162.599 120.34C162.599 119.711 162.096 119.208 161.467 119.208H157.569H153.671H134.683C134.054 119.208 133.551 119.711 133.551 120.34C133.551 120.968 134.054 121.471 134.683 121.471Z" fill="#54CB5A"/>
<path d="M85.7645 141.591H102.238C102.866 141.591 103.369 141.088 103.369 140.46C103.369 139.831 102.866 139.328 102.238 139.328H85.7645C85.1358 139.328 84.6328 139.831 84.6328 140.46C84.6328 140.963 85.1358 141.591 85.7645 141.591Z" fill="#54CB5A"/>
<path d="M138.704 140.334C138.704 139.706 138.201 139.203 137.573 139.203H108.776C108.148 139.203 107.645 139.706 107.645 140.334C107.645 140.963 108.148 141.466 108.776 141.466H137.447C138.201 141.592 138.704 140.963 138.704 140.334Z" fill="#54CB5A"/>
<path d="M157.442 141.591H170.017C170.646 141.591 171.149 141.088 171.149 140.46C171.149 139.831 170.646 139.328 170.017 139.328H153.544H143.987C143.358 139.328 142.855 139.831 142.855 140.46C142.855 141.088 143.358 141.591 143.987 141.591H157.442Z" fill="#54CB5A"/>
<path d="M112.046 159.322H85.7645C85.1358 159.322 84.6328 159.825 84.6328 160.454C84.6328 161.083 85.1358 161.586 85.7645 161.586H111.92C112.549 161.586 113.052 161.083 113.052 160.454C113.178 159.825 112.675 159.322 112.046 159.322Z" fill="#54CB5A"/>
<path d="M141.094 159.322H118.585C117.956 159.322 117.453 159.825 117.453 160.454C117.453 161.083 117.956 161.586 118.585 161.586H141.094C141.723 161.586 142.226 161.083 142.226 160.454C142.226 159.825 141.723 159.322 141.094 159.322Z" fill="#54CB5A"/>
<path d="M85.7645 131.531H114.687C115.315 131.531 115.818 131.028 115.818 130.4C115.818 129.771 115.315 129.268 114.687 129.268H85.7645C85.1358 129.268 84.6328 129.771 84.6328 130.4C84.6328 130.903 85.1358 131.531 85.7645 131.531Z" fill="#54CB5A"/>
<path d="M85.7645 151.651H125.878C126.507 151.651 127.01 151.148 127.01 150.519C127.01 149.891 126.507 149.388 125.878 149.388H85.7645C85.1358 149.388 84.6328 149.891 84.6328 150.519C84.6328 151.022 85.1358 151.651 85.7645 151.651Z" fill="#54CB5A"/>
<path d="M132.542 151.651H157.44H193.781C194.41 151.651 194.913 151.148 194.913 150.519C194.913 149.891 194.41 149.388 193.781 149.388H153.668H132.542C131.913 149.388 131.41 149.891 131.41 150.519C131.41 151.022 131.913 151.651 132.542 151.651Z" fill="#54CB5A"/>
<path d="M168.003 121.471H195.919C196.548 121.471 197.051 120.968 197.051 120.34C197.051 119.711 196.548 119.208 195.919 119.208H168.003C167.374 119.208 166.871 119.711 166.871 120.34C166.871 120.968 167.374 121.471 168.003 121.471Z" fill="#54CB5A"/>
<path d="M219.184 119.083H202.46C201.831 119.083 201.328 119.586 201.328 120.215C201.328 120.843 201.831 121.346 202.46 121.346H219.059C219.687 121.346 220.19 120.843 220.19 120.215C220.316 119.586 219.813 119.083 219.184 119.083Z" fill="#54CB5A"/>
<path d="M206.485 140.334C206.485 139.706 205.982 139.203 205.353 139.203H176.683C176.054 139.203 175.551 139.706 175.551 140.334C175.551 140.963 176.054 141.466 176.683 141.466H205.353C205.982 141.592 206.485 140.963 206.485 140.334Z" fill="#54CB5A"/>
<path d="M219.183 139.203H211.89C211.261 139.203 210.758 139.706 210.758 140.334C210.758 140.963 211.261 141.466 211.89 141.466H219.183C219.812 141.466 220.315 140.963 220.315 140.334C220.315 139.706 219.812 139.203 219.183 139.203Z" fill="#54CB5A"/>
<path d="M179.827 159.322H153.671H147.761C147.132 159.322 146.629 159.825 146.629 160.454C146.629 161.083 147.132 161.586 147.761 161.586H157.569H179.827C180.455 161.586 180.958 161.083 180.958 160.454C181.084 159.825 180.455 159.322 179.827 159.322Z" fill="#54CB5A"/>
<path d="M208.996 159.322H186.487C185.858 159.322 185.355 159.825 185.355 160.454C185.355 161.083 185.858 161.586 186.487 161.586H208.996C209.625 161.586 210.128 161.083 210.128 160.454C210.128 159.825 209.625 159.322 208.996 159.322Z" fill="#54CB5A"/>
<path d="M219.181 159.322H215.534C214.905 159.322 214.402 159.825 214.402 160.454C214.402 161.083 214.905 161.586 215.534 161.586H219.181C219.81 161.586 220.313 161.083 220.313 160.454C220.313 159.825 219.81 159.322 219.181 159.322Z" fill="#54CB5A"/>
<path d="M182.59 129.143H157.44H153.542H121.35C120.722 129.143 120.219 129.646 120.219 130.274C120.219 130.903 120.722 131.406 121.35 131.406H153.668H157.566H182.716C183.345 131.406 183.847 130.903 183.847 130.274C183.722 129.646 183.219 129.143 182.59 129.143Z" fill="#54CB5A"/>
<path d="M219.185 129.143H189.257C188.628 129.143 188.125 129.646 188.125 130.274C188.125 130.903 188.628 131.406 189.257 131.406H219.185C219.814 131.406 220.317 130.903 220.317 130.274C220.317 129.646 219.814 129.143 219.185 129.143Z" fill="#54CB5A"/>
<path d="M219.185 149.262H200.448C199.819 149.262 199.316 149.765 199.316 150.394C199.316 151.023 199.819 151.526 200.448 151.526H219.185C219.813 151.526 220.316 151.023 220.316 150.394C220.316 149.765 219.813 149.262 219.185 149.262Z" fill="#54CB5A"/>
<path d="M198.431 235.149H165.61C164.227 235.149 162.97 234.646 161.964 233.766C160.832 232.76 160.203 231.251 160.203 229.742V212.892C160.203 211.383 160.832 209.999 161.838 208.993C162.844 207.987 164.227 207.359 165.736 207.359H198.556C199.688 207.359 200.694 207.736 201.574 208.239C203.083 209.245 204.089 210.88 204.089 212.766V229.616C204.089 230.874 203.586 232.131 202.832 233.011C201.7 234.395 200.065 235.149 198.431 235.149Z" fill="#EC1C24"/>
<path d="M164.729 227.981C164.604 227.981 164.604 227.981 164.478 227.856C164.352 227.73 164.478 227.604 164.478 227.478L175.921 219.053C175.921 219.053 176.047 219.053 176.172 219.053L187.49 222.826L198.807 214.526C198.933 214.401 199.059 214.526 199.184 214.526C199.31 214.652 199.184 214.778 199.184 214.904L187.741 223.203C187.741 223.203 187.615 223.203 187.49 223.203L176.172 219.431L164.855 227.73C164.855 227.981 164.855 227.981 164.729 227.981Z" fill="#F8F9FA"/>
<path d="M200.571 214.903C200.571 215.658 199.942 216.287 199.188 216.287C198.433 216.287 197.805 215.658 197.805 214.903C197.805 214.149 198.433 213.52 199.188 213.52C199.942 213.52 200.571 214.149 200.571 214.903Z" fill="#F8F9FA"/>
<path d="M189.126 222.825C189.126 223.58 188.497 224.209 187.743 224.209C186.988 224.209 186.359 223.58 186.359 222.825C186.359 222.071 186.988 221.442 187.743 221.442C188.497 221.442 189.126 222.071 189.126 222.825Z" fill="#F8F9FA"/>
<path d="M177.681 219.431C177.681 220.185 177.052 220.814 176.297 220.814C175.543 220.814 174.914 220.185 174.914 219.431C174.914 218.676 175.543 218.047 176.297 218.047C177.052 218.047 177.681 218.676 177.681 219.431Z" fill="#F8F9FA"/>
<path d="M166.114 227.73C166.114 228.484 165.485 229.113 164.731 229.113C163.976 229.113 163.348 228.484 163.348 227.73C163.348 226.975 163.976 226.347 164.731 226.347C165.485 226.347 166.114 226.975 166.114 227.73Z" fill="#F8F9FA"/>
<path d="M92.2967 205.724H114.303C116.063 205.724 117.698 204.97 118.83 203.838C119.961 202.706 120.716 201.071 120.716 199.311V179.443C120.716 177.934 120.213 176.425 119.207 175.293C118.075 173.784 116.189 172.904 114.177 172.904H92.2967C90.662 172.904 89.0273 173.533 87.8955 174.539C86.6381 175.67 85.7578 177.431 85.7578 179.317V199.185C85.7578 200.946 86.5123 202.58 87.644 203.712C88.7758 204.97 90.4105 205.724 92.2967 205.724Z" fill="#0054A5"/>
<path d="M102.609 182.46H102.735C106.508 182.46 109.651 185.478 109.651 189.377C109.651 190.005 109.526 190.76 109.4 191.389L112.669 191.892C112.669 191.892 112.921 190.508 112.921 189.377C112.921 183.718 108.394 179.191 102.735 179.191H102.609V182.46Z" fill="#54CB5A"/>
<path d="M112.672 191.891L109.402 191.388L112.672 191.891Z" fill="#FFDC33"/>
<path d="M108.018 193.778C106.76 195.287 104.874 196.293 102.736 196.293C98.964 196.293 95.8202 193.275 95.8202 189.377C95.8202 186.61 97.455 184.221 99.9699 183.089V179.568C95.6945 180.826 92.5508 184.724 92.5508 189.377C92.5508 195.035 97.0777 199.562 102.736 199.562C106.509 199.562 109.904 197.425 111.665 194.281L108.018 193.778Z" fill="#FFDC33"/>
<path d="M303.682 106.634H249.862C247.473 106.634 245.461 104.622 245.461 102.233V48.4124C245.461 46.0232 247.473 44.0112 249.862 44.0112H303.682C306.072 44.0112 308.084 46.0232 308.084 48.4124V102.233C308.084 104.622 306.072 106.634 303.682 106.634Z" fill="#0054A5"/>
<path d="M251.118 91.2919L262.939 74.1901C263.065 74.0644 263.316 73.9386 263.442 73.9386C263.693 73.9386 263.945 74.0644 264.071 74.1901L271.49 83.9985L283.059 67.3997C283.184 67.2739 283.436 67.1482 283.687 67.1482C283.939 67.1482 284.19 67.2739 284.316 67.3997L302.927 91.1662C303.053 91.4177 303.053 91.6691 302.927 91.9206C302.801 92.1721 302.55 92.2979 302.298 92.2979H277.903H265.705H251.622C251.37 92.2979 251.119 92.0464 250.993 91.9206C250.867 91.7949 250.867 91.5434 251.118 91.2919Z" fill="#F8F9FA"/>
<path d="M259.293 63.6278C259.419 66.52 261.808 68.7834 264.826 68.6577C267.844 68.5319 270.233 66.1427 270.107 63.2505C269.982 60.3583 267.592 58.0948 264.574 58.2206C261.556 58.2206 259.293 60.7355 259.293 63.6278Z" fill="#F8F9FA"/>
<path d="M303.682 267.844H249.862C247.473 267.844 245.461 265.832 245.461 263.443V209.622C245.461 207.233 247.473 205.221 249.862 205.221H303.682C306.072 205.221 308.084 207.233 308.084 209.622V263.443C308.084 265.832 306.072 267.844 303.682 267.844Z" fill="#002548"/>
<path d="M267.844 244.706L254.641 238.041V235.904L267.844 228.233V231.88L258.665 236.784L267.844 241.059V244.706Z" fill="#F8F9FA"/>
<path d="M281.927 225.215L274.382 247.85H270.609L278.029 225.215H281.927Z" fill="#F8F9FA"/>
<path d="M284.695 241.059L294.378 236.658L284.695 231.754V227.981L298.779 235.652V237.916L284.695 244.706V241.059Z" fill="#F8F9FA"/>
<path d="M348.827 148.383H295.007C292.617 148.383 290.605 146.371 290.605 143.982V90.1615C290.605 87.7722 292.617 85.7603 295.007 85.7603H348.827C351.216 85.7603 353.228 87.7722 353.228 90.1615V143.982C353.228 146.371 351.342 148.383 348.827 148.383Z" fill="#EC1C24"/>
<path d="M309.219 104.12V130.15C309.219 131.784 310.602 132.916 311.859 132.162L333.74 118.455C335.123 117.575 335.123 115.186 333.74 114.431L311.859 101.982C310.602 101.227 309.219 102.359 309.219 104.12Z" fill="#F8F9FA"/>
<path d="M348.827 223.832H295.007C292.617 223.832 290.605 221.82 290.605 219.431V165.61C290.605 163.221 292.617 161.209 295.007 161.209H348.827C351.216 161.209 353.228 163.221 353.228 165.61V219.431C353.228 221.82 351.342 223.832 348.827 223.832Z" fill="#0054A5"/>
<path d="M311.48 193.149H302.301V210H311.48V193.149Z" fill="#F8F9FA"/>
<path d="M326.32 183.466H317.141V209.999H326.32V183.466Z" fill="#F8F9FA"/>
<path d="M341.66 174.916H332.48V210H341.66V174.916Z" fill="#F8F9FA"/>
<path d="M261.681 178.436C274.459 178.436 284.818 168.077 284.818 155.298C284.818 142.52 274.459 132.16 261.681 132.16C248.902 132.16 238.543 142.52 238.543 155.298C238.543 168.077 248.902 178.436 261.681 178.436Z" fill="#54CB5A"/>
<path d="M257.657 167.496L248.98 158.693L251.747 155.927L257.657 161.837L273.501 145.993L276.268 148.759L257.657 167.496Z" fill="#F8F9FA"/>
</svg>
