<svg width="168" height="120" viewBox="0 0 168 120" fill="none" xmlns="http://www.w3.org/2000/svg">
<path d="M84 120C130.392 120 168 117.792 168 115.069C168 112.346 130.392 110.138 84 110.138C37.6081 110.138 0 112.346 0 115.069C0 117.792 37.6081 120 84 120Z" fill="#D2D9DC"/>
<path d="M98.3121 85.9218H69.834V113.324H98.3121V85.9218Z" fill="#2D2F31"/>
<path d="M154.816 6.02795V93.5742C154.816 96.9016 152.358 99.5969 149.328 99.5969H18.8276C15.7979 99.5969 13.3398 96.9016 13.3398 93.5742V6.02795C13.3398 2.69535 15.7979 7.56488e-06 18.8276 7.56488e-06H149.333C152.358 -0.00521596 154.816 2.69535 154.816 6.02795Z" fill="#2D2F31"/>
<path d="M154.816 81.205V93.5743C154.816 96.9016 152.358 99.597 149.328 99.597H18.8276C15.7979 99.597 13.3398 96.9016 13.3398 93.5743V81.205H154.816Z" fill="#D2D9DC"/>
<path d="M147.363 4.72205H20.7919C19.3108 4.72205 18.1104 5.92868 18.1104 7.41738V73.6255C18.1104 75.1142 19.3108 76.3209 20.7919 76.3209H147.369C148.85 76.3209 150.05 75.1142 150.05 73.6255V7.42261C150.045 5.9339 148.845 4.72205 147.363 4.72205Z" fill="#F9FAFB"/>
<path d="M106.824 20.7635C106.824 20.7635 109.511 15.8012 109.963 15.1482C110.42 14.4953 111.091 13.7536 111.761 13.905C112.431 14.0565 116.074 14.7617 116.074 14.7617L115.752 17.41L111.974 23.7775L106.824 20.7635Z" fill="#54CC5A"/>
<path d="M111.351 13.8998C111.351 13.8998 113.653 13.5446 115.633 17.1802C117.613 20.8106 118.896 23.4171 118.896 23.4171L116.818 24.6394L124.332 26.9534L126.634 19.4316L124.462 20.424C124.462 20.424 122.16 16.1564 121.391 14.8349C120.622 13.5133 118.834 12.7454 116.755 12.9701C114.676 13.1947 111.351 13.8998 111.351 13.8998Z" fill="#54CC5A"/>
<path d="M127.814 26.6713C127.814 26.6713 130.802 31.456 131.145 32.1769C131.488 32.8925 131.8 33.8484 131.337 34.3603C130.875 34.8722 128.479 37.719 128.479 37.719L126.343 36.1363L122.674 29.7061L127.814 26.6713Z" fill="#54CC5A"/>
<path d="M131.545 33.9999C131.545 33.9999 130.724 36.1886 126.603 36.1468C122.482 36.105 119.598 35.9483 119.598 35.9483L119.556 33.5298L113.866 38.9779L119.26 44.682L119.468 42.2896C119.468 42.2896 124.301 42.3628 125.818 42.3366C127.336 42.3105 128.884 41.1196 129.705 39.1869C130.526 37.2594 131.545 33.9999 131.545 33.9999Z" fill="#54CC5A"/>
<path d="M111.163 41.7777C111.163 41.7777 105.54 41.7673 104.756 41.6732C103.971 41.5792 102.999 41.3389 102.812 40.6703C102.625 40.0069 101.508 36.4497 101.508 36.4497L103.976 35.4781L111.345 35.7863L111.163 41.7777Z" fill="#54CC5A"/>
<path d="M103.01 41.0412C103.01 41.0412 101.607 39.1764 103.841 35.6924C106.076 32.2135 107.744 29.842 107.744 29.842L109.802 31.1009L108.253 23.3596L100.578 24.9006L102.48 26.3527C102.48 26.3527 99.8397 30.4166 99.0498 31.7225C98.2599 33.0284 98.4366 34.9767 99.6267 36.7057C100.812 38.4399 103.01 41.0412 103.01 41.0412Z" fill="#54CC5A"/>
<path d="M55.0742 11.8209C54.9962 13.0902 55.0742 39.422 55.0742 39.422L75.6792 21.5732C70.7735 15.6132 63.363 11.8209 55.0742 11.8209Z" fill="#ED1C24"/>
<path d="M85.1791 39.3593C85.1791 32.8508 82.8769 26.8855 79.0469 22.2366L58.4419 40.0854H85.1635C85.1635 39.8451 85.1791 39.6048 85.1791 39.3593Z" fill="#54CC5A"/>
<path d="M52.5746 15.1483C37.8107 15.1483 25.8374 27.1833 25.8374 42.0233C25.8374 56.8634 37.8107 68.8984 52.5746 68.8984C61.8508 68.8984 70.0096 64.145 74.801 56.9365L52.5746 42.7442C52.5746 42.7494 52.4966 16.4176 52.5746 15.1483Z" fill="#0054A6"/>
<path d="M56.8203 42.4047L79.0519 56.597C81.7646 52.5174 83.4016 47.6491 83.5419 42.4047H56.8203Z" fill="#ED1C24"/>
<path d="M92.3248 58.3781H88.9365V68.3445H92.3248V58.3781Z" fill="#002548"/>
<path d="M96.6227 56.7223H93.2344V68.3446H96.6227V56.7223Z" fill="#0054A6"/>
<path d="M100.962 54.3821H97.5737V68.3446H100.962V54.3821Z" fill="#002548"/>
<path d="M105.259 52.5173H101.871V68.3446H105.259V52.5173Z" fill="#0054A6"/>
<path d="M109.599 53.609H106.211V68.3446H109.599V53.609Z" fill="#002548"/>
<path d="M113.896 54.3821H110.508V68.3446H113.896V54.3821Z" fill="#0054A6"/>
<path d="M118.235 55.129H114.847V68.3393H118.235V55.129Z" fill="#002548"/>
<path d="M122.533 54.3821H119.145V68.3446H122.533V54.3821Z" fill="#0054A6"/>
<path d="M126.878 52.5173H123.49V68.3446H126.878V52.5173Z" fill="#002548"/>
<path d="M131.175 50.5271H127.787V68.3445H131.175V50.5271Z" fill="#0054A6"/>
<path d="M135.515 48.2235H132.127V68.3445H135.515V48.2235Z" fill="#002548"/>
<path d="M139.813 46.902H136.424V68.3445H139.813V46.902Z" fill="#0054A6"/>
<path d="M141.081 42.6083L137.931 42.9321L138.399 43.653L117.872 53.468L102.36 50.3965L88.9365 57.3752L88.9417 58.0908L102.479 51.0547L117.976 54.1261L138.752 44.1858L139.205 44.8753L141.081 42.6083Z" fill="#54CC5A"/>
<path d="M121.557 112.013H46.5889V115.471H121.557V112.013Z" fill="#2D2F31"/>
</svg>
