<svg width="100" height="100" viewBox="0 0 100 100" fill="none" xmlns="http://www.w3.org/2000/svg">
<g id="data-driven-organizations_acquire-more-customers 1" clip-path="url(#clip0_6034_12689)">
<g id="Group">
<path id="Vector" d="M32.3 30.9999C31.5 30.1999 30.6 29.4999 29.7 28.8999C31.1 26.9999 31.9 24.6999 31.9 22.1999C31.9 15.9999 26.8 10.8999 20.6 10.8999C14.4 10.8999 9.3 15.8999 9.3 22.1999C9.3 24.6999 10.1 26.9999 11.5 28.8999C7 31.8999 4 37.0999 4 42.8999V45.9999C4 50.9999 8 54.9999 13 54.9999H28.3C33.3 54.9999 37.3 50.9999 37.3 45.9999V42.7999C37.2 38.2999 35.4 34.0999 32.3 30.9999Z" fill="#FFDD33"/>
<path id="Vector_2" d="M91.6008 30.9999C90.8008 30.1999 89.9008 29.4999 89.0008 28.8999C90.4008 26.9999 91.2008 24.6999 91.2008 22.1999C91.2008 15.9999 86.1008 10.8999 79.9008 10.8999C73.7008 10.8999 68.6008 15.9999 68.6008 22.1999C68.6008 24.6999 69.4008 26.9999 70.8008 28.8999C66.3008 31.8999 63.3008 37.0999 63.3008 42.8999V45.9999C63.3008 50.9999 67.3008 54.9999 72.3008 54.9999H87.6008C92.6008 54.9999 96.6008 50.9999 96.6008 45.9999V42.7999C96.5008 38.2999 94.8008 34.0999 91.6008 30.9999Z" fill="#54CC5A"/>
<path id="Vector_3" d="M66.7992 32.2999C65.0992 30.5999 63.1992 29.3 61.1992 28.2C63.8992 25.4 65.5992 21.7 65.5992 17.5C65.5992 8.99995 58.6992 2.19995 50.2992 2.19995C41.8992 2.19995 34.8992 8.99995 34.8992 17.5C34.8992 21.7 36.5992 25.5 39.2992 28.2999C31.7992 32.2999 26.6992 40.2 26.6992 49.2999V54C26.6992 60.5 31.9992 65.8 38.4992 65.8H61.8992C68.3992 65.8 73.6992 60.5 73.6992 54V49C73.6992 42.7 71.2992 36.7 66.7992 32.2999Z" fill="#0054A6"/>
<path id="Vector_4" fill-rule="evenodd" clip-rule="evenodd" d="M50.0992 77.7C49.3992 77.2 49.2992 76.1 49.7992 75.4C50.2992 74.7 51.3992 74.6 52.0992 75.1L60.1992 81.5C60.8992 82 60.9992 83.1 60.4992 83.8C60.3992 83.9 60.2992 84 60.1992 84.1L52.1992 90.4C51.4992 90.9 50.4992 90.8 49.8992 90.1C49.3992 89.4 49.4992 88.4 50.1992 87.8L54.5992 84.3H40.7992C39.8992 84.3 39.1992 83.6 39.1992 82.7C39.1992 81.8 39.8992 81.1 40.7992 81.1H54.4992L50.0992 77.7Z" fill="#839299"/>
<path id="Vector_5" d="M15.1 97.9C23.4395 97.9 30.2 91.1395 30.2 82.8C30.2 74.4605 23.4395 67.7 15.1 67.7C6.7605 67.7 0 74.4605 0 82.8C0 91.1395 6.7605 97.9 15.1 97.9Z" fill="#ED1C24"/>
<path id="Vector_6" fill-rule="evenodd" clip-rule="evenodd" d="M7.19961 84.4C6.29961 84.4 5.59961 83.7 5.59961 82.8C5.59961 81.9 6.29961 81.2 7.19961 81.2H23.0996C23.9996 81.2 24.6996 81.9 24.6996 82.8C24.6996 83.7 23.9996 84.4 23.0996 84.4H7.19961Z" fill="#F9FAFB"/>
<path id="Vector_7" d="M84.9008 97.9C93.2403 97.9 100.001 91.1395 100.001 82.8C100.001 74.4605 93.2403 67.7 84.9008 67.7C76.5613 67.7 69.8008 74.4605 69.8008 82.8C69.8008 91.1395 76.5613 97.9 84.9008 97.9Z" fill="#54CC5A"/>
<path id="Vector_8" fill-rule="evenodd" clip-rule="evenodd" d="M76.9008 84.3999C76.0008 84.3999 75.3008 83.6999 75.3008 82.7999C75.3008 81.8999 76.0008 81.1999 76.9008 81.1999H83.2008V74.8999C83.2008 73.9999 83.9008 73.2999 84.8008 73.2999C85.7008 73.2999 86.4008 73.9999 86.4008 74.8999V81.1999H92.7008C93.6008 81.1999 94.3008 81.8999 94.3008 82.7999C94.3008 83.6999 93.6008 84.3999 92.7008 84.3999H86.4008V90.6999C86.4008 91.5999 85.7008 92.2999 84.8008 92.2999C83.9008 92.2999 83.2008 91.5999 83.2008 90.6999V84.3999H76.9008Z" fill="#F9FAFB"/>
</g>
</g>
<defs>
<clipPath id="clip0_6034_12689">
<rect width="100" height="100" fill="white"/>
</clipPath>
</defs>
</svg>
