<svg width="210" height="45" viewBox="0 0 210 45" fill="none" xmlns="http://www.w3.org/2000/svg">
<g clip-path="url(#clip0_5123_4623)">
<path d="M0 4.1232C0 1.84706 1.84709 0 4.12327 0H20.2526C22.5288 0 24.3759 1.84706 24.3759 4.1232V7.31435C24.3759 8.45384 23.4524 9.37453 22.3157 9.37453H2.06022C0.923545 9.37453 0 8.451 0 7.31435V4.1232Z" fill="#262626"/>
<path d="M0 17.0612C0 15.9217 0.923545 15.001 2.06022 15.001H40.8747C43.1509 15.001 44.998 16.848 44.998 19.1242V29.8144C44.998 30.9539 44.0744 31.8774 42.9378 31.8774H4.12327C1.84709 31.8746 0 30.0275 0 27.7514V17.0612Z" fill="#262626"/>
<path d="M20.625 39.5612C20.625 38.4217 21.5485 37.501 22.6852 37.501H42.9379C44.0774 37.501 44.9981 38.4245 44.9981 39.5612V40.8768C44.9981 43.153 43.151 45 40.8748 45H24.7483C22.4721 45 20.625 43.153 20.625 40.8768V39.5612Z" fill="#262626"/>
<path d="M70.491 27.6377H74.8245L82.875 40.7944H92.7299L83.8042 26.7113C88.7573 25.0092 91.6473 21.19 91.6473 15.6688C91.6473 7.92817 86.231 3.75098 77.5099 3.75098H61.875V40.7973H70.491V27.6377ZM70.491 20.6217V11.0255H77.0439C81.1188 11.0255 83.1847 12.7788 83.1847 15.8222C83.1847 18.8144 81.1217 20.6217 77.0439 20.6217H70.491Z" fill="#262626"/>
<path d="M107.555 41.3634C112.974 41.3634 117.927 38.6298 119.939 33.4182L113.025 31.1989C112.252 33.5717 110.24 34.8106 107.66 34.8106C104.511 34.8106 102.295 32.6965 101.727 28.9796H120.146V26.8143C120.146 19.1249 115.656 13.0381 107.401 13.0381C99.5584 13.0381 93.7813 19.1248 93.7813 27.1752C93.7784 35.6375 99.3509 41.3634 107.555 41.3634ZM107.299 19.4346C110.343 19.4346 111.942 21.4976 111.994 23.9244H101.985C102.809 20.9321 104.77 19.4346 107.299 19.4346Z" fill="#262626"/>
<path d="M124.824 33.5195C124.824 39.092 127.765 41.0527 133.647 41.0527C135.608 41.0527 137.157 40.8992 138.6 40.6918V33.9316C137.671 34.0339 137.208 34.085 136.227 34.085C134.164 34.085 132.976 33.673 132.976 31.4025V20.414H138.29V13.6054H132.976V6.07227H124.824V13.6054H121.368V20.4168H124.826V33.5195H124.824Z" fill="#262626"/>
<path d="M168.134 27.2263C168.134 18.764 162.51 13.0381 154.511 13.0381C146.463 13.0381 140.891 18.764 140.891 27.2263C140.891 35.6887 146.463 41.3634 154.511 41.3634C162.51 41.3634 168.134 35.6887 168.134 27.2263ZM149.095 27.2263C149.095 22.4808 151.209 19.7955 154.511 19.7955C157.813 19.7955 159.93 22.478 159.93 27.2263C159.93 31.9747 157.816 34.6572 154.511 34.6572C151.212 34.6572 149.095 31.9747 149.095 27.2263Z" fill="#262626"/>
<path d="M197.863 27.2263C197.863 18.764 192.24 13.0381 184.243 13.0381C176.196 13.0381 170.623 18.764 170.623 27.2263C170.623 35.6887 176.196 41.3634 184.243 41.3634C192.24 41.3634 197.863 35.6887 197.863 27.2263ZM178.824 27.2263C178.824 22.4808 180.938 19.7955 184.24 19.7955C187.542 19.7955 189.659 22.478 189.659 27.2263C189.659 31.9747 187.545 34.6572 184.24 34.6572C180.938 34.6572 178.824 31.9747 178.824 27.2263Z" fill="#262626"/>
<path d="M210 3.75098H201.745V40.7973H210V3.75098Z" fill="#262626"/>
</g>
<defs>
<clipPath id="clip0_5123_4623">
<rect width="210" height="45" fill="white"/>
</clipPath>
</defs>
</svg>
