<svg width="48" height="48" viewBox="0 0 48 48" fill="none" xmlns="http://www.w3.org/2000/svg">
<g clip-path="url(#clip0_14282_22623)">
<path opacity="0.992" fill-rule="evenodd" clip-rule="evenodd" d="M23.9531 5.76552C30.2061 5.72058 36.4561 5.76746 42.7031 5.90614C45.6026 6.69597 47.3527 8.55534 47.9531 11.4843C47.9531 13.7343 47.9531 15.9843 47.9531 18.2343C47.2622 21.2222 45.4184 23.0815 42.4219 23.8124C36.2676 23.9496 30.1113 23.9965 23.9531 23.953C23.9531 20.4217 23.9531 16.8905 23.9531 13.3593C29.3595 13.3749 34.7657 13.3593 40.1719 13.3124C41.1243 12.8609 41.3899 12.1578 40.9688 11.203C40.7565 10.928 40.4908 10.7249 40.1719 10.5936C34.7657 10.5468 29.3595 10.5311 23.9531 10.5468C23.9531 8.95302 23.9531 7.35927 23.9531 5.76552Z" fill="#D9EDFE"/>
<path fill-rule="evenodd" clip-rule="evenodd" d="M23.9531 5.76552C23.9531 7.35927 23.9531 8.95302 23.9531 10.5468C18.5155 10.5311 13.078 10.5468 7.64062 10.5936C6.65504 11.1469 6.45191 11.9125 7.03125 12.8905C7.24297 13.0715 7.47734 13.2121 7.73438 13.3124C13.1406 13.3593 18.5467 13.3749 23.9531 13.3593C23.9531 16.8905 23.9531 20.4217 23.9531 23.953C20.328 23.9374 16.703 23.953 13.0781 23.9999C12.4665 24.8159 11.8103 25.5971 11.1094 26.3436C10.0469 27.0311 8.98437 27.0311 7.92188 26.3436C7.23007 25.5583 6.57382 24.7458 5.95312 23.9061C2.71693 23.3103 0.716934 21.4197 -0.046875 18.2343C-0.046875 15.9843 -0.046875 13.7343 -0.046875 11.4843C0.5536 8.55534 2.3036 6.69597 5.20312 5.90614C11.4502 5.76746 17.7002 5.72058 23.9531 5.76552Z" fill="#D9EDFE"/>
<path fill-rule="evenodd" clip-rule="evenodd" d="M23.9531 10.5469C23.9531 11.4844 23.9531 12.4219 23.9531 13.3594C18.5467 13.375 13.1405 13.3594 7.7343 13.3125C7.47727 13.2122 7.24289 13.0716 7.03118 12.8906C6.45184 11.9126 6.65497 11.147 7.64055 10.5938C13.078 10.5469 18.5155 10.5312 23.9531 10.5469Z" fill="#839299"/>
<path fill-rule="evenodd" clip-rule="evenodd" d="M23.9531 10.5469C29.3595 10.5312 34.7657 10.5469 40.1719 10.5938C40.4908 10.725 40.7565 10.9282 40.9688 11.2031C41.3899 12.1579 41.1243 12.861 40.1719 13.3125C34.7657 13.3594 29.3595 13.375 23.9531 13.3594C23.9531 12.4219 23.9531 11.4844 23.9531 10.5469Z" fill="#839299"/>
<path fill-rule="evenodd" clip-rule="evenodd" d="M7.82802 16.1719C12.2969 16.1562 16.7656 16.1719 21.2343 16.2188C22.3653 16.684 22.6309 17.4495 22.0311 18.5156C21.8195 18.6966 21.5851 18.8372 21.328 18.9375C16.7655 19 12.203 19 7.64052 18.9375C6.76922 18.4486 6.53485 17.7455 6.93739 16.8281C7.17449 16.5108 7.47136 16.2921 7.82802 16.1719Z" fill="#839299"/>
<path opacity="0.976" fill-rule="evenodd" clip-rule="evenodd" d="M8.01562 28.1719C8.31328 28.1722 8.57891 28.2659 8.8125 28.4531C9.42037 29.669 10.0298 30.8877 10.6406 32.1094C12.0155 32.3482 13.3904 32.5825 14.7656 32.8125C15.3808 33.2437 15.4902 33.7905 15.0938 34.4531C14.216 35.3622 13.3097 36.2372 12.375 37.0781C12.5012 38.4452 12.7043 39.8046 12.9844 41.1562C12.7534 42.0843 12.1909 42.3655 11.2969 42C10.2006 41.4207 9.10686 40.8426 8.01562 40.2656C8.01562 36.2344 8.01562 32.2031 8.01562 28.1719Z" fill="#FDB800"/>
<path opacity="0.976" fill-rule="evenodd" clip-rule="evenodd" d="M23.9531 28.1718C24.3326 28.1662 24.6295 28.3225 24.8438 28.6405C25.4219 29.7967 26 30.9531 26.5781 32.1093C27.9524 32.3481 29.3274 32.5824 30.7031 32.8124C31.3064 33.2518 31.4158 33.7987 31.0312 34.453C30.0496 35.3408 29.0965 36.2627 28.1719 37.2186C28.5226 38.6511 28.7257 40.1042 28.7812 41.578C28.4592 42.0743 28.0061 42.2462 27.4219 42.0936C26.2631 41.4831 25.1068 40.8737 23.9531 40.2655C23.9531 36.2343 23.9531 32.203 23.9531 28.1718Z" fill="#FDB800"/>
<path opacity="0.976" fill-rule="evenodd" clip-rule="evenodd" d="M39.8906 28.1718C40.2701 28.1662 40.567 28.3225 40.7812 28.6405C41.3728 29.8081 41.951 30.98 42.5156 32.1561C43.8961 32.3489 45.2711 32.5676 46.6406 32.8124C47.2474 33.2685 47.3411 33.8154 46.9219 34.453C45.9532 35.3593 45.0157 36.2968 44.1094 37.2655C44.3735 38.5221 44.5923 39.7877 44.7656 41.0624C44.695 41.9273 44.2263 42.2711 43.3594 42.0936C42.2006 41.4831 41.0443 40.8737 39.8906 40.2655C39.8906 36.2343 39.8906 32.203 39.8906 28.1718Z" fill="#FDB800"/>
<path fill-rule="evenodd" clip-rule="evenodd" d="M8.01531 28.172C8.01531 32.2033 8.01531 36.2345 8.01531 40.2658C6.86158 40.8739 5.70533 41.4833 4.54656 42.0939C3.67968 42.2714 3.21093 41.9276 3.14031 41.0626C3.3137 39.7879 3.53245 38.5223 3.79656 37.2658C2.89031 36.297 1.95281 35.3595 0.984059 34.4533C0.564762 33.8157 0.658512 33.2687 1.26531 32.8126C2.63482 32.5679 4.00982 32.3491 5.39031 32.1564C5.95496 30.9802 6.53308 29.8083 7.12468 28.6408C7.33894 28.3228 7.63581 28.1665 8.01531 28.172Z" fill="#FDB800"/>
<path fill-rule="evenodd" clip-rule="evenodd" d="M23.9528 28.172C23.9528 32.2033 23.9528 36.2345 23.9528 40.2658C22.788 40.9107 21.6004 41.5045 20.3903 42.047C20.1025 42.0594 19.8213 42.0282 19.5466 41.9533C19.1616 41.7935 19.0053 41.4966 19.0778 41.0626C19.2363 39.7675 19.4552 38.4862 19.7341 37.2189C19.0588 36.5594 18.4025 35.8875 17.7653 35.2033C17.4841 34.8595 17.1716 34.547 16.8278 34.2658C16.5086 33.6781 16.6336 33.1937 17.2028 32.8126C18.5785 32.5827 19.9535 32.3483 21.3278 32.1095C21.906 30.9533 22.484 29.797 23.0622 28.6408C23.2764 28.3228 23.5733 28.1665 23.9528 28.172Z" fill="#FDB800"/>
<path fill-rule="evenodd" clip-rule="evenodd" d="M39.5157 28.2656C39.6094 28.2656 39.7032 28.2656 39.7969 28.2656C39.7969 32.2657 39.7969 36.2656 39.7969 40.2656C38.578 41.0157 37.2967 41.6407 35.9532 42.1406C35.3551 42.0896 35.0114 41.7615 34.9219 41.1562C35.202 39.8045 35.4051 38.4451 35.5313 37.0781C35.1528 36.7154 34.7935 36.3404 34.4532 35.9531C34.0414 35.4474 33.5727 35.0099 33.0469 34.6406C32.6206 34.3046 32.48 33.8672 32.625 33.3281C32.7814 32.9845 33.047 32.7814 33.4219 32.7188C34.7102 32.5548 35.9914 32.3517 37.2657 32.1094C37.8801 30.8647 38.5051 29.6304 39.1407 28.4062C39.2574 28.3321 39.3824 28.2852 39.5157 28.2656Z" fill="#FDB800"/>
<path fill-rule="evenodd" clip-rule="evenodd" d="M39.5156 28.2657C39.6157 28.1782 39.7407 28.1468 39.8906 28.172C39.8906 32.2032 39.8906 36.2345 39.8906 40.2657C39.8594 40.2657 39.8281 40.2657 39.7969 40.2657C39.7969 36.2657 39.7969 32.2657 39.7969 28.2657C39.7031 28.2657 39.6094 28.2657 39.5156 28.2657Z" fill="#FFBC66"/>
<path opacity="0.01" fill-rule="evenodd" clip-rule="evenodd" d="M16.8281 34.2656C17.1719 34.5469 17.4844 34.8593 17.7656 35.2031C17.3594 34.9844 17.0468 34.6718 16.8281 34.2656Z" fill="#FFB657"/>
<path opacity="0.969" fill-rule="evenodd" clip-rule="evenodd" d="M33.0469 34.6406C33.5726 35.0099 34.0414 35.4474 34.4531 35.9531C33.9274 35.5838 33.4586 35.1463 33.0469 34.6406Z" fill="#FFB759"/>
<path opacity="0.788" fill-rule="evenodd" clip-rule="evenodd" d="M19.5469 41.9531C19.8216 42.028 20.1028 42.0592 20.3906 42.0469C20.1594 42.1532 19.9094 42.1688 19.6406 42.0938C19.5885 42.0578 19.5573 42.011 19.5469 41.9531Z" fill="#FFB759"/>
</g>
<defs>
<clipPath id="clip0_14282_22623">
<rect width="48" height="48" fill="white"/>
</clipPath>
</defs>
</svg>
