<svg width="64" height="64" viewBox="0 0 64 64" fill="none" xmlns="http://www.w3.org/2000/svg">
<path opacity="0.991" fill-rule="evenodd" clip-rule="evenodd" d="M56.9375 3.18741C58.8852 2.86041 60.1561 3.65208 60.75 5.56241C60.8125 6.60325 60.8333 7.64491 60.8125 8.68741C59.5625 8.68741 58.3125 8.68741 57.0625 8.68741C57.1036 6.83206 57.062 4.99873 56.9375 3.18741Z" fill="#F4644D"/>
<path opacity="0.999" fill-rule="evenodd" clip-rule="evenodd" d="M56.9375 3.1875C57.062 4.99881 57.1036 6.83215 57.0625 8.6875C57.0209 8.6875 56.9791 8.6875 56.9375 8.6875C56.1459 8.6875 55.3541 8.6875 54.5625 8.6875C54.6031 7.70605 54.5615 6.74773 54.4375 5.8125C54.6787 4.36318 55.512 3.48818 56.9375 3.1875Z" fill="#E8533A"/>
<path opacity="0.999" fill-rule="evenodd" clip-rule="evenodd" d="M18.3125 5.8125C30.3541 5.8125 42.3959 5.8125 54.4375 5.8125C54.4375 6.8125 54.4375 7.8125 54.4375 8.8125C54.4375 10.0208 54.4375 11.2292 54.4375 12.4375C55.3125 12.4375 56.1875 12.4375 57.0625 12.4375C58.3125 12.4375 59.5625 12.4375 60.8125 12.4375C60.8125 12.4792 60.8125 12.5209 60.8125 12.5625C59.5625 12.5625 58.3125 12.5625 57.0625 12.5625C56.1875 12.5625 55.3125 12.5625 54.4375 12.5625C54.4166 21.1459 54.4375 29.7292 54.5 38.3125C55.3409 40.2025 56.2159 42.0775 57.125 43.9375C57.2912 44.0728 57.4787 44.1561 57.6875 44.1875C57.7084 46.9379 57.6875 49.6879 57.625 52.4375C57.3734 53.2726 56.8525 53.8768 56.0625 54.25C47.3587 54.4355 38.6505 54.498 29.9375 54.4375C29.8768 54.0295 29.7309 53.6545 29.5 53.3125C28.914 52.6641 28.3515 51.9975 27.8125 51.3125C28.141 50.6802 28.4326 50.0344 28.6875 49.375C29.6464 49.2985 30.6047 49.2152 31.5625 49.125C32.0416 48.9791 32.3541 48.6666 32.5 48.1875C32.5834 46.7709 32.5834 45.3541 32.5 43.9375C32.3541 43.4584 32.0416 43.1459 31.5625 43C30.557 42.9367 29.557 42.8326 28.5625 42.6875C28.4116 42.0271 28.1616 41.4021 27.8125 40.8125C28.482 40.039 29.1279 39.2472 29.75 38.4375C29.8334 38.0625 29.8334 37.6875 29.75 37.3125C28.7709 36.1666 27.7084 35.1041 26.5625 34.125C26.1875 34.0416 25.8125 34.0416 25.4375 34.125C24.6278 34.7471 23.836 35.393 23.0625 36.0625C22.5081 35.7436 21.9249 35.4936 21.3125 35.3125C21.1106 34.281 20.9649 33.2394 20.875 32.1875C20.6796 31.784 20.3671 31.5131 19.9375 31.375C18.5209 31.2916 17.1041 31.2916 15.6875 31.375C15.2579 31.5131 14.9454 31.784 14.75 32.1875C14.643 33.1855 14.5596 34.1855 14.5 35.1875C14.11 35.3721 13.7142 35.5389 13.3125 35.6875C13.3125 28.6459 13.3125 21.6041 13.3125 14.5625C14.3134 14.5833 15.3134 14.5625 16.3125 14.5C17.3162 14.2881 17.9621 13.684 18.25 12.6875C18.3125 10.3962 18.3334 8.10455 18.3125 5.8125Z" fill="#839299" fill-opacity="0.15"/>
<path fill-rule="evenodd" clip-rule="evenodd" d="M18.3125 5.8125C18.3334 8.10455 18.3125 10.3962 18.25 12.6875C17.9621 13.684 17.3162 14.2881 16.3125 14.5C15.3134 14.5625 14.3134 14.5833 13.3125 14.5625C12.0815 14.6034 10.8732 14.5618 9.6875 14.4375C12.5209 11.5208 15.3959 8.64584 18.3125 5.8125Z" fill="#839299" fill-opacity="0.15"/>
<path fill-rule="evenodd" clip-rule="evenodd" d="M21.3141 8.31257C22.377 8.22822 22.7728 8.68654 22.5016 9.68757C21.8968 10.3796 21.3552 10.3379 20.8766 9.56257C20.7211 9.02394 20.867 8.60728 21.3141 8.31257Z" fill="#9D9BA3"/>
<path fill-rule="evenodd" clip-rule="evenodd" d="M31.1891 8.31257C32.252 8.22822 32.6478 8.68654 32.3766 9.68757C31.7718 10.3796 31.2302 10.3379 30.7516 9.56257C30.5961 9.02394 30.742 8.60728 31.1891 8.31257Z" fill="#9D9BA3"/>
<path fill-rule="evenodd" clip-rule="evenodd" d="M41.0641 8.31257C42.127 8.22822 42.5228 8.68654 42.2516 9.68757C41.6468 10.3796 41.1052 10.3379 40.6266 9.56257C40.4711 9.02394 40.617 8.60728 41.0641 8.31257Z" fill="#9D9BA3"/>
<path fill-rule="evenodd" clip-rule="evenodd" d="M50.9391 8.31257C52.002 8.22822 52.3978 8.68654 52.1266 9.68757C51.5218 10.3796 50.9802 10.3379 50.5016 9.56257C50.3461 9.02394 50.492 8.60728 50.9391 8.31257Z" fill="#9D9BA3"/>
<path fill-rule="evenodd" clip-rule="evenodd" d="M54.4375 5.8125C54.5615 6.74773 54.6031 7.70605 54.5625 8.6875C55.3541 8.6875 56.1459 8.6875 56.9375 8.6875C56.9375 8.72916 56.9375 8.77084 56.9375 8.8125C56.1041 8.8125 55.2709 8.8125 54.4375 8.8125C54.4375 7.8125 54.4375 6.8125 54.4375 5.8125Z" fill="#E18779"/>
<path fill-rule="evenodd" clip-rule="evenodd" d="M54.4375 8.8125C55.2709 8.8125 56.1041 8.8125 56.9375 8.8125C57.0617 9.9982 57.1034 11.2065 57.0625 12.4375C56.1875 12.4375 55.3125 12.4375 54.4375 12.4375C54.4375 11.2292 54.4375 10.0208 54.4375 8.8125Z" fill="#ACD0E2"/>
<path opacity="0.983" fill-rule="evenodd" clip-rule="evenodd" d="M56.9375 8.8125C56.9375 8.77084 56.9375 8.72916 56.9375 8.6875C56.9791 8.6875 57.0209 8.6875 57.0625 8.6875C58.3125 8.6875 59.5625 8.6875 60.8125 8.6875C60.8125 9.9375 60.8125 11.1875 60.8125 12.4375C59.5625 12.4375 58.3125 12.4375 57.0625 12.4375C57.1034 11.2065 57.0618 9.9982 56.9375 8.8125Z" fill="#E6EEF3"/>
<path fill-rule="evenodd" clip-rule="evenodd" d="M57.0625 12.5625C57.0416 21.2292 57.0625 29.8959 57.125 38.5625C57.699 39.8353 58.3031 41.0853 58.9375 42.3125C58.7231 42.8664 58.4731 43.4081 58.1875 43.9375C58.0529 44.0881 57.8863 44.1715 57.6875 44.1875C57.4788 44.1561 57.2913 44.0728 57.125 43.9375C56.2159 42.0775 55.3409 40.2025 54.5 38.3125C54.4375 29.7292 54.4166 21.1459 54.4375 12.5625C55.3125 12.5625 56.1875 12.5625 57.0625 12.5625Z" fill="#F19C42"/>
<path opacity="0.983" fill-rule="evenodd" clip-rule="evenodd" d="M57.0625 12.5625C58.3125 12.5625 59.5625 12.5625 60.8125 12.5625C60.8334 21.1876 60.8125 29.8126 60.75 38.4375C60.1441 39.7325 59.5399 41.0241 58.9375 42.3125C58.3031 41.0853 57.699 39.8353 57.125 38.5625C57.0625 29.8959 57.0416 21.2292 57.0625 12.5625Z" fill="#FEB055"/>
<path fill-rule="evenodd" clip-rule="evenodd" d="M9.6875 14.4375C10.8732 14.5618 12.0815 14.6034 13.3125 14.5625C13.3125 21.6041 13.3125 28.6459 13.3125 35.6875C13.0359 35.8466 12.7443 35.9716 12.4375 36.0625C11.7953 35.4415 11.1286 34.8374 10.4375 34.25C10.1364 34.0366 9.80306 33.9325 9.4375 33.9375C9.41666 27.479 9.4375 21.0208 9.5 14.5625C9.54783 14.493 9.61033 14.4514 9.6875 14.4375Z" fill="#839299" fill-opacity="0.15"/>
<path fill-rule="evenodd" clip-rule="evenodd" d="M46.4375 32.4375C46.4375 28.0625 46.4375 23.6875 46.4375 19.3125C46.4167 18.3117 46.4375 17.3117 46.5 16.3125C46.5625 16.25 46.625 16.1875 46.6875 16.125C47.9375 16.0417 49.1875 16.0417 50.4375 16.125C50.5385 16.1635 50.6218 16.226 50.6875 16.3125C50.8326 21.5574 50.8535 26.8074 50.75 32.0625C50.6458 32.1667 50.5416 32.2709 50.4375 32.375C49.1048 32.4375 47.7715 32.4584 46.4375 32.4375Z" fill="#F4644D"/>
<path fill-rule="evenodd" clip-rule="evenodd" d="M15.939 18.1876C16.8336 18.1445 17.2295 18.5611 17.1265 19.4376C16.8483 19.9827 16.4108 20.1702 15.814 20.0001C15.1269 19.3355 15.1685 18.7314 15.939 18.1876Z" fill="#9C9BA2"/>
<path fill-rule="evenodd" clip-rule="evenodd" d="M18.4372 18.1875C22.0624 18.1666 25.6874 18.1875 29.3122 18.25C29.9608 18.6141 30.1067 19.135 29.7497 19.8125C29.6559 19.8908 29.5517 19.9533 29.4372 20C25.7705 20.0834 22.1038 20.0834 18.4372 20C17.9732 19.6859 17.8274 19.2484 17.9997 18.6875C18.1717 18.5369 18.3174 18.3703 18.4372 18.1875Z" fill="#9A99A1"/>
<path fill-rule="evenodd" clip-rule="evenodd" d="M46.4375 19.3125C46.4375 23.6875 46.4375 28.0625 46.4375 32.4375C44.9791 32.4375 43.5208 32.4375 42.0625 32.4375C42.0625 29.1875 42.0625 25.9375 42.0625 22.6875C42.0417 21.645 42.0625 20.6034 42.125 19.5625C42.1875 19.5 42.25 19.4375 42.3125 19.375C43.6868 19.3125 45.0618 19.2916 46.4375 19.3125Z" fill="#F8D36B"/>
<path fill-rule="evenodd" clip-rule="evenodd" d="M14.9372 22.4375C19.729 22.4166 24.5207 22.4375 29.3122 22.5C29.9608 22.8641 30.1067 23.385 29.7497 24.0625C29.6559 24.1408 29.5517 24.2033 29.4372 24.25C24.6038 24.3334 19.7705 24.3334 14.9372 24.25C14.4732 23.9359 14.3274 23.4984 14.4997 22.9375C14.6717 22.7869 14.8174 22.6203 14.9372 22.4375Z" fill="#9B9AA1"/>
<path fill-rule="evenodd" clip-rule="evenodd" d="M41.9375 22.6875C41.9375 25.8959 41.9375 29.1041 41.9375 32.3125C40.5208 32.3125 39.1041 32.3125 37.6875 32.3125C37.6875 30.1875 37.6875 28.0625 37.6875 25.9375C37.6667 24.9366 37.6875 23.9366 37.75 22.9375C37.8125 22.875 37.875 22.8125 37.9375 22.75C39.2701 22.6875 40.6035 22.6666 41.9375 22.6875Z" fill="#8BC932"/>
<path fill-rule="evenodd" clip-rule="evenodd" d="M41.9375 22.6875C41.9791 22.6875 42.0209 22.6875 42.0625 22.6875C42.0625 25.9375 42.0625 29.1875 42.0625 32.4375C40.6041 32.4375 39.1459 32.4375 37.6875 32.4375C37.6875 32.3959 37.6875 32.3541 37.6875 32.3125C39.1041 32.3125 40.5209 32.3125 41.9375 32.3125C41.9375 29.1041 41.9375 25.8959 41.9375 22.6875Z" fill="#9BCD45"/>
<path fill-rule="evenodd" clip-rule="evenodd" d="M37.6875 25.9375C37.6875 28.0625 37.6875 30.1875 37.6875 32.3125C37.6875 32.3541 37.6875 32.3959 37.6875 32.4375C36.306 32.4764 34.931 32.4348 33.5625 32.3125C33.476 32.2469 33.4135 32.1635 33.375 32.0625C33.2917 30.1041 33.2917 28.1459 33.375 26.1875C33.4375 26.125 33.5 26.0625 33.5625 26C34.9369 25.9375 36.3119 25.9166 37.6875 25.9375Z" fill="#55C1EC"/>
<path fill-rule="evenodd" clip-rule="evenodd" d="M14.9372 26.6875C15.8964 26.6667 16.8548 26.6875 17.8122 26.75C18.6455 27.3333 18.6455 27.9166 17.8122 28.5C16.8538 28.5833 15.8955 28.5833 14.9372 28.5C14.4732 28.1858 14.3274 27.7483 14.4997 27.1875C14.6717 27.0368 14.8174 26.8702 14.9372 26.6875Z" fill="#9B9AA2"/>
<path fill-rule="evenodd" clip-rule="evenodd" d="M20.0613 26.6875C21.8951 26.6666 23.7285 26.6875 25.5613 26.75C26.1417 27.009 26.3292 27.4465 26.1238 28.0625C26.0613 28.2916 25.9155 28.4375 25.6863 28.5C23.7697 28.5834 21.853 28.5834 19.9363 28.5C19.2476 27.8413 19.2892 27.2371 20.0613 26.6875Z" fill="#9B9AA2"/>
<path fill-rule="evenodd" clip-rule="evenodd" d="M27.814 26.6876C28.7086 26.6445 29.1045 27.0611 29.0015 27.9376C28.7233 28.4827 28.2858 28.6702 27.689 28.5001C27.0019 27.8355 27.0435 27.2314 27.814 26.6876Z" fill="#9C9BA2"/>
<path opacity="0.997" fill-rule="evenodd" clip-rule="evenodd" d="M29.9386 54.4375C29.8705 54.6992 29.7663 54.9492 29.6261 55.1875C28.6386 56.2587 27.5761 57.2379 26.4386 58.125C26.0468 58.2238 25.6718 58.1822 25.3136 58C24.5413 57.3942 23.7706 56.7899 23.0011 56.1875C22.4598 56.4685 21.8973 56.6977 21.3136 56.875C21.1456 57.9287 20.9997 58.9912 20.8761 60.0625C20.7197 60.4227 20.449 60.6518 20.0636 60.75C18.5636 60.8334 17.0636 60.8334 15.5636 60.75C15.1782 60.6518 14.9075 60.4227 14.7511 60.0625C14.6111 59.0229 14.4861 57.9813 14.3761 56.9375C13.764 56.7043 13.1598 56.4543 12.5636 56.1875C11.3315 55.3678 10.1856 54.4094 9.12609 53.3125C8.65709 52.659 8.17793 52.034 7.68859 51.4375C7.44532 50.8255 7.23699 50.2005 7.06359 49.5625C6.40068 47.2269 6.40068 44.8935 7.06359 42.5625C7.23699 41.9245 7.44532 41.2995 7.68859 40.6875C8.93819 38.813 10.5215 37.2714 12.4386 36.0625C12.7453 35.9717 13.037 35.8467 13.3136 35.6875C13.7153 35.5389 14.1111 35.3722 14.5011 35.1875C14.5607 34.1855 14.6441 33.1855 14.7511 32.1875C14.9465 31.784 15.259 31.5132 15.6886 31.375C17.1052 31.2917 18.522 31.2917 19.9386 31.375C20.3682 31.5132 20.6807 31.784 20.8761 32.1875C20.966 33.2394 21.1117 34.281 21.3136 35.3125C21.926 35.4937 22.5092 35.7437 23.0636 36.0625C23.8371 35.393 24.6288 34.7472 25.4386 34.125C25.8136 34.0417 26.1886 34.0417 26.5636 34.125C27.7095 35.1042 28.772 36.1667 29.7511 37.3125C29.8345 37.6875 29.8345 38.0625 29.7511 38.4375C29.129 39.2473 28.4831 40.039 27.8136 40.8125C28.1627 41.4022 28.4127 42.0272 28.5636 42.6875C29.5581 42.8327 30.5581 42.9368 31.5636 43C32.0427 43.1459 32.3552 43.4584 32.5011 43.9375C32.5845 45.3542 32.5845 46.7709 32.5011 48.1875C32.3552 48.6667 32.0427 48.9792 31.5636 49.125C30.6058 49.2153 29.6475 49.2985 28.6886 49.375C28.4337 50.0344 28.1421 50.6803 27.8136 51.3125C28.3526 51.9975 28.9151 52.6642 29.5011 53.3125C29.732 53.6545 29.8778 54.0295 29.9386 54.4375Z" fill="#4B7EC1"/>
<path fill-rule="evenodd" clip-rule="evenodd" d="M9.43745 33.9374C9.80301 33.9324 10.1364 34.0366 10.4375 34.2499C11.1285 34.8373 11.7952 35.4414 12.4375 36.0624C10.5204 37.2713 8.93705 38.8129 7.68745 40.6874C7.02628 40.0346 6.42211 39.3262 5.87495 38.5624C5.60984 38.0003 5.65151 37.4587 5.99995 36.9374C6.89579 36.0416 7.79161 35.1458 8.68745 34.2499C8.9258 34.1097 9.1758 34.0056 9.43745 33.9374Z" fill="#4B7EC1"/>
<path fill-rule="evenodd" clip-rule="evenodd" d="M36.3127 38.1874C37.0788 38.0693 37.5372 38.3818 37.6877 39.1249C37.6168 39.7166 37.2835 40.0291 36.6877 40.0624C35.9722 39.8829 35.7013 39.4245 35.8752 38.6874C36.0472 38.5368 36.193 38.3701 36.3127 38.1874Z" fill="#9D9BA3"/>
<path fill-rule="evenodd" clip-rule="evenodd" d="M38.936 38.1875C42.5613 38.1666 46.1863 38.1875 49.811 38.25C50.3914 38.509 50.5789 38.9465 50.3735 39.5625C50.2218 39.7561 50.0343 39.9019 49.811 40C46.186 40.0834 42.561 40.0834 38.936 40C38.5778 39.8259 38.4111 39.5343 38.436 39.125C38.4273 38.7043 38.5939 38.3918 38.936 38.1875Z" fill="#9A99A1"/>
<path fill-rule="evenodd" clip-rule="evenodd" d="M16.5641 39.1876C20.8072 38.9549 23.4947 40.8715 24.6266 44.9376C24.9195 48.9585 23.1487 51.5626 19.3141 52.7501C15.4371 53.3222 12.7496 51.8014 11.2516 48.1876C10.3874 43.6175 12.1583 40.6175 16.5641 39.1876Z" fill="#0D4B9C"/>
<path fill-rule="evenodd" clip-rule="evenodd" d="M35.436 42.4375C40.2279 42.4166 45.0195 42.4375 49.811 42.5C50.3914 42.759 50.5789 43.1965 50.3735 43.8125C50.2218 44.0061 50.0343 44.1519 49.811 44.25C45.0194 44.3334 40.2276 44.3334 35.436 44.25C35.0778 44.0759 34.9111 43.7843 34.936 43.375C34.9273 42.9543 35.0939 42.6418 35.436 42.4375Z" fill="#9A99A1"/>
<path fill-rule="evenodd" clip-rule="evenodd" d="M7.0625 42.5625C6.39959 44.8935 6.39959 47.2269 7.0625 49.5625C5.89099 49.4161 4.72433 49.2286 3.5625 49C3.36985 48.8026 3.22403 48.5734 3.125 48.3125C3.04167 46.8125 3.04167 45.3125 3.125 43.8125C3.22403 43.5516 3.36985 43.3224 3.5625 43.125C4.72307 42.8889 5.88973 42.7014 7.0625 42.5625Z" fill="#4B7EC1"/>
<path fill-rule="evenodd" clip-rule="evenodd" d="M17.061 42.9375C19.5615 42.8162 20.8323 43.9828 20.8735 46.4375C20.2624 48.7957 18.7833 49.6082 16.436 48.875C14.8419 47.872 14.3626 46.4763 14.9985 44.6875C15.5054 43.8833 16.1929 43.3 17.061 42.9375Z" fill="#EFE7DC"/>
<path fill-rule="evenodd" clip-rule="evenodd" d="M35.436 46.6875C36.3953 46.6667 37.3536 46.6875 38.311 46.75C39.1444 47.3333 39.1444 47.9166 38.311 48.5C37.3526 48.5833 36.3944 48.5833 35.436 48.5C35.0778 48.3258 34.9111 48.0342 34.936 47.625C34.9273 47.2042 35.0939 46.8917 35.436 46.6875Z" fill="#9B9AA1"/>
<path fill-rule="evenodd" clip-rule="evenodd" d="M40.5642 46.6875C42.3979 46.6666 44.2313 46.6875 46.0642 46.75C46.6445 47.009 46.832 47.4465 46.6267 48.0625C46.4749 48.2561 46.2874 48.4019 46.0642 48.5C44.2308 48.5834 42.3975 48.5834 40.5642 48.5C39.739 47.8964 39.739 47.2923 40.5642 46.6875Z" fill="#9A99A1"/>
<path fill-rule="evenodd" clip-rule="evenodd" d="M48.1877 46.6874C48.9538 46.5693 49.4122 46.8818 49.5627 47.6249C49.4918 48.2166 49.1585 48.5291 48.5627 48.5624C47.8472 48.3829 47.5763 47.9245 47.7502 47.1874C47.9222 47.0368 48.068 46.8701 48.1877 46.6874Z" fill="#9D9BA3"/>
<path fill-rule="evenodd" clip-rule="evenodd" d="M7.68881 51.4375C8.17815 52.034 8.65731 52.659 9.12631 53.3125C10.1859 54.4094 11.3317 55.3677 12.5638 56.1875C11.7568 56.8625 10.9235 57.5083 10.0638 58.125C9.56975 58.239 9.11143 58.1556 8.68881 57.875C7.61763 56.8875 6.63846 55.825 5.75131 54.6875C5.65255 54.2957 5.69421 53.9207 5.87631 53.5625C6.42348 52.7987 7.02764 52.0904 7.68881 51.4375Z" fill="#4B7EC1"/>
</svg>
