<svg width="32" height="32" viewBox="0 0 32 32" fill="none" xmlns="http://www.w3.org/2000/svg">
<g clip-path="url(#clip0_495_4207)">
<path d="M31.6853 18.352V13.952C31.6857 13.7412 31.6155 13.5364 31.486 13.3702C31.3565 13.204 31.1751 13.0858 30.9706 13.0346L28.4906 12.416C28.392 12.3915 28.3012 12.3425 28.2266 12.2735C28.152 12.2045 28.0961 12.1177 28.064 12.0213C27.8899 11.5228 27.6869 11.0349 27.456 10.56C27.4115 10.4676 27.3906 10.3657 27.3953 10.2633C27.3999 10.1609 27.4299 10.0612 27.4826 9.97332L28.8 7.78131C28.9087 7.60097 28.9536 7.38932 28.9274 7.18038C28.9013 6.97145 28.8057 6.77736 28.656 6.62931L25.5413 3.51465C25.3913 3.36615 25.196 3.27189 24.9864 3.24678C24.7768 3.22167 24.5648 3.26713 24.384 3.37598L22.1973 4.68798C22.1094 4.74068 22.0097 4.77071 21.9073 4.77536C21.8049 4.78002 21.703 4.75915 21.6106 4.71465C21.1374 4.4802 20.6492 4.27709 20.1493 4.10665C20.0493 4.07537 19.9587 4.0194 19.886 3.9439C19.8133 3.8684 19.7608 3.7758 19.7333 3.67465L19.1306 1.19998C19.0805 0.994569 18.9628 0.81195 18.7964 0.681396C18.6301 0.550843 18.4248 0.479915 18.2133 0.479981H13.8133C13.6021 0.480845 13.3972 0.55212 13.2311 0.682527C13.0649 0.812933 12.947 0.995023 12.896 1.19998L12.2666 3.67465C12.2425 3.77404 12.1937 3.86573 12.1247 3.94125C12.0557 4.01676 11.9688 4.07365 11.872 4.10665C11.3703 4.27708 10.8804 4.48018 10.4053 4.71465C10.3139 4.75916 10.2128 4.78004 10.1112 4.77538C10.0097 4.77072 9.91092 4.74067 9.82397 4.68798L7.64264 3.37598C7.46177 3.26713 7.24978 3.22167 7.04019 3.24678C6.83059 3.27189 6.63534 3.36615 6.48531 3.51465L3.37598 6.62931C3.22624 6.77736 3.13063 6.97145 3.10452 7.18038C3.0784 7.38932 3.12329 7.60097 3.23198 7.78131L4.54931 9.97332C4.59786 10.0635 4.62327 10.1643 4.62327 10.2666C4.62327 10.369 4.59786 10.4698 4.54931 10.56C4.31791 11.0339 4.11662 11.522 3.94664 12.0213C3.91364 12.1181 3.85675 12.205 3.78124 12.274C3.70573 12.343 3.61403 12.3918 3.51464 12.416L1.06664 13.0346C0.860242 13.0838 0.676416 13.201 0.54482 13.3675C0.413224 13.5339 0.341532 13.7398 0.341309 13.952V18.352C0.341277 18.5648 0.412772 18.7715 0.544313 18.9388C0.675854 19.1062 0.85981 19.2244 1.06664 19.2746L3.53598 19.8933C3.63537 19.9175 3.72706 19.9663 3.80258 20.0353C3.87809 20.1042 3.93498 20.1912 3.96798 20.288C4.13796 20.7873 4.33924 21.2754 4.57064 21.7493C4.61919 21.8395 4.6446 21.9403 4.6446 22.0426C4.6446 22.145 4.61919 22.2458 4.57064 22.336L3.23198 24.5333C3.12329 24.7137 3.0784 24.9253 3.10452 25.1342C3.13063 25.3432 3.22624 25.5373 3.37598 25.6853L6.48531 28.8C6.63534 28.9485 6.83059 29.0427 7.04019 29.0678C7.24978 29.093 7.46177 29.0475 7.64264 28.9386L9.83464 27.6266C9.92383 27.5781 10.0238 27.5527 10.1253 27.5527C10.2269 27.5527 10.3268 27.5781 10.416 27.6266C10.8911 27.8611 11.381 28.0642 11.8826 28.2346C11.9795 28.2676 12.0664 28.3245 12.1354 28.4C12.2043 28.4756 12.2532 28.5673 12.2773 28.6666L12.896 31.1413C12.947 31.3463 13.0649 31.5284 13.2311 31.6588C13.3972 31.7892 13.6021 31.8605 13.8133 31.8613H18.2133C18.4248 31.8614 18.6301 31.7905 18.7964 31.6599C18.9628 31.5293 19.0805 31.3467 19.1306 31.1413L19.7333 28.6346C19.7592 28.5361 19.8086 28.4452 19.8774 28.37C19.9461 28.2947 20.0321 28.2373 20.128 28.2026C20.63 28.0332 21.12 27.83 21.5946 27.5946C21.6848 27.5461 21.7856 27.5207 21.888 27.5207C21.9904 27.5207 22.0912 27.5461 22.1813 27.5946L24.368 28.9066C24.547 29.0236 24.7602 29.0767 24.9732 29.0574C25.1861 29.038 25.3863 28.9473 25.5413 28.8L28.6506 25.6853C28.8012 25.5379 28.8978 25.3442 28.9249 25.1352C28.952 24.9262 28.908 24.7142 28.8 24.5333L27.488 22.3413C27.4353 22.2534 27.4052 22.1537 27.4006 22.0513C27.3959 21.9489 27.4168 21.847 27.4613 21.7546C27.6914 21.271 27.8926 20.7741 28.064 20.2666C28.0961 20.1702 28.152 20.0835 28.2266 20.0145C28.3012 19.9455 28.392 19.8965 28.4906 19.872L30.9706 19.2533C31.1755 19.2011 31.357 19.0819 31.4865 18.9148C31.616 18.7476 31.6859 18.5421 31.6853 18.3306V18.352Z" fill="#FFC344"/>
<path d="M25.1946 4.43193C25.6055 4.8463 25.8671 5.38536 25.9386 5.96451C26.01 6.54367 25.8871 7.13015 25.5892 7.63193L25.2532 8.19193C25.115 8.42631 25.0342 8.69011 25.0175 8.96173C25.0008 9.23335 25.0487 9.50506 25.1572 9.7546C25.2266 9.9146 25.2959 10.0693 25.3546 10.2293C25.4524 10.484 25.6101 10.7115 25.8143 10.8925C26.0185 11.0735 26.2633 11.2027 26.5279 11.2693L27.1626 11.4293C27.4598 11.5009 27.7416 11.6256 27.9946 11.7973C27.8407 11.3662 27.6627 10.9442 27.4612 10.5333C27.4167 10.4409 27.3959 10.339 27.4005 10.2366C27.4052 10.1342 27.4352 10.0345 27.4879 9.9466L28.7999 7.78127C28.9086 7.60092 28.9535 7.38927 28.9274 7.18033C28.9013 6.9714 28.8056 6.77731 28.6559 6.62927L25.5412 3.5146C25.3912 3.3661 25.196 3.27185 24.9864 3.24673C24.7768 3.22162 24.5648 3.26708 24.3839 3.37593L24.2292 3.4666L25.1946 4.43193Z" fill="#FEB237"/>
<path d="M30.9708 13.0347L28.6561 12.4587C28.9936 12.9086 29.1803 13.4537 29.1894 14.0161V15.7707C29.1901 16.3596 28.9935 16.9317 28.6309 17.3957C28.2684 17.8597 27.7609 18.1889 27.1894 18.3307L26.5548 18.4907C26.2901 18.5573 26.0454 18.6865 25.8411 18.8675C25.6369 19.0485 25.4793 19.276 25.3814 19.5307C25.3228 19.6854 25.2534 19.8454 25.1841 20.0054C25.0755 20.2549 25.0276 20.5267 25.0443 20.7983C25.061 21.0699 25.1418 21.3337 25.2801 21.5681L25.6001 22.1281C25.898 22.6299 26.0208 23.2163 25.9494 23.7955C25.878 24.3746 25.6163 24.9137 25.2054 25.3281L23.9628 26.5707C23.5456 26.9768 23.007 27.2352 22.4292 27.3065C21.8513 27.3777 21.2661 27.258 20.7628 26.9654L20.2294 26.6294C19.996 26.4886 19.732 26.4063 19.4599 26.3896C19.1878 26.3729 18.9157 26.4222 18.6668 26.5334L18.1921 26.7307C17.9324 26.825 17.6995 26.9811 17.5137 27.1855C17.3278 27.39 17.1946 27.6366 17.1254 27.9041L16.9654 28.5387C16.8186 29.1075 16.488 29.6119 16.0251 29.9736C15.5622 30.3352 14.9928 30.5339 14.4054 30.5387H12.8054L12.9388 31.0721C12.9898 31.277 13.1077 31.4591 13.2738 31.5895C13.44 31.7199 13.6449 31.7912 13.8561 31.7921H18.2561C18.4675 31.7921 18.6729 31.7212 18.8392 31.5907C19.0056 31.4601 19.1232 31.2775 19.1734 31.0721L19.7334 28.6347C19.7594 28.5354 19.8095 28.444 19.8793 28.3686C19.949 28.2932 20.0363 28.2363 20.1334 28.2027C20.6333 28.0323 21.1215 27.8292 21.5948 27.5947C21.6849 27.5462 21.7857 27.5208 21.8881 27.5208C21.9905 27.5208 22.0913 27.5462 22.1814 27.5947L24.3681 28.9067C24.5471 29.0237 24.7603 29.0768 24.9733 29.0574C25.1863 29.0381 25.3864 28.9474 25.5414 28.8001L28.6508 25.6854C28.8013 25.538 28.8979 25.3442 28.925 25.1353C28.9521 24.9263 28.9081 24.7143 28.8001 24.5334L27.4881 22.3414C27.4354 22.2535 27.4054 22.1538 27.4007 22.0514C27.3961 21.949 27.4169 21.8471 27.4614 21.7547C27.6915 21.2711 27.8927 20.7742 28.0641 20.2667C28.0962 20.1703 28.1521 20.0836 28.2267 20.0146C28.3013 19.9456 28.3921 19.8966 28.4908 19.8721L30.9708 19.2534C31.1756 19.2011 31.3572 19.082 31.4866 18.9149C31.6161 18.7477 31.686 18.5422 31.6854 18.3307V13.9521C31.6858 13.7413 31.6156 13.5365 31.4861 13.3703C31.3566 13.2041 31.1752 13.0859 30.9708 13.0347Z" fill="#FEB237"/>
<path d="M28.6401 18.2934H28.5761C28.5149 18.2849 28.4559 18.2643 28.4028 18.2328C28.3496 18.2012 28.3033 18.1594 28.2666 18.1097C28.2298 18.06 28.2033 18.0035 28.1887 17.9435C28.1741 17.8834 28.1716 17.821 28.1814 17.76C28.3237 16.6838 28.3237 15.5936 28.1814 14.5174C28.1716 14.4563 28.1741 14.394 28.1887 14.3339C28.2033 14.2739 28.2298 14.2173 28.2666 14.1677C28.3033 14.118 28.3496 14.0761 28.4028 14.0446C28.4559 14.0131 28.5149 13.9925 28.5761 13.984C28.6372 13.9734 28.6998 13.9754 28.7602 13.9897C28.8205 14.004 28.8773 14.0304 28.9272 14.0673C28.977 14.1042 29.0189 14.1508 29.0502 14.2043C29.0815 14.2578 29.1017 14.3172 29.1094 14.3787C29.1841 14.957 29.2215 15.5396 29.2214 16.1227C29.2216 16.7041 29.1842 17.2848 29.1094 17.8614C29.1025 17.9802 29.0497 18.0917 28.9622 18.1723C28.8746 18.2529 28.7591 18.2963 28.6401 18.2934Z" fill="#FEB237"/>
<path d="M29.1626 15.7706C29.1614 16.1649 29.0728 16.5541 28.9031 16.9101C28.7334 17.2661 28.4869 17.58 28.1813 17.8292C28.1789 17.9415 28.2177 18.0507 28.2904 18.1362C28.3632 18.2217 28.4648 18.2776 28.5759 18.2932H28.6399C28.7511 18.2928 28.8584 18.2521 28.9418 18.1785C29.0252 18.1049 29.079 18.0035 29.0933 17.8932C29.1681 17.3167 29.2055 16.7359 29.2053 16.1546C29.2053 15.7972 29.2053 15.4346 29.1626 15.0879V15.7706Z" fill="#F6AB31"/>
<path d="M23.7493 26.7307C23.6791 26.7299 23.61 26.7132 23.5471 26.6818C23.4843 26.6504 23.4295 26.6051 23.3867 26.5494C23.3494 26.5018 23.3219 26.4474 23.3058 26.3891C23.2896 26.3309 23.2851 26.2701 23.2925 26.2101C23.3 26.1501 23.3192 26.0922 23.3491 26.0397C23.379 25.9872 23.4189 25.9411 23.4667 25.9041C24.3293 25.2445 25.1004 24.4733 25.76 23.6107C25.8376 23.535 25.9395 23.4891 26.0477 23.4814C26.1559 23.4737 26.2633 23.5045 26.3509 23.5684C26.4385 23.6324 26.5006 23.7253 26.5262 23.8306C26.5518 23.936 26.5392 24.0471 26.4907 24.1441C25.7807 25.0697 24.9523 25.8981 24.0267 26.6081C23.9456 26.6703 23.8462 26.7041 23.744 26.7041L23.7493 26.7307Z" fill="#FEB237"/>
<path d="M26.4959 24.1707C26.5692 24.0735 26.6013 23.9513 26.5854 23.8306C26.5694 23.7099 26.5066 23.6002 26.4106 23.5254C26.3477 23.4792 26.2745 23.4492 26.1972 23.438C26.12 23.4268 26.0413 23.4349 25.9679 23.4614C25.9699 23.8123 25.9027 24.1602 25.77 24.4851C25.6372 24.81 25.4417 25.1056 25.1946 25.3547L23.9519 26.5974L23.8132 26.7254C23.8927 26.7144 23.968 26.6831 24.0319 26.6347C24.9575 25.9247 25.7859 25.0963 26.4959 24.1707Z" fill="#F6AB31"/>
<path d="M15.9999 29.3332C15.4166 29.3342 14.8339 29.295 14.2559 29.2159C14.193 29.212 14.1316 29.1952 14.0755 29.1665C14.0194 29.1378 13.9698 29.0978 13.9298 29.0491C13.8898 29.0003 13.8603 28.9439 13.8431 28.8833C13.8259 28.8226 13.8214 28.7591 13.8298 28.6966C13.8383 28.6342 13.8595 28.5741 13.8922 28.5202C13.9249 28.4663 13.9683 28.4198 14.0198 28.3834C14.0713 28.3471 14.1298 28.3217 14.1915 28.309C14.2532 28.2962 14.3169 28.2963 14.3786 28.3092C15.455 28.4479 16.5448 28.4479 17.6213 28.3092C17.6833 28.296 17.7473 28.2957 17.8095 28.3084C17.8716 28.3212 17.9304 28.3466 17.9822 28.3833C18.0339 28.4199 18.0775 28.4668 18.1103 28.5211C18.143 28.5755 18.1641 28.636 18.1722 28.6989C18.1803 28.7618 18.1753 28.8257 18.1575 28.8865C18.1397 28.9474 18.1095 29.0039 18.0688 29.0525C18.028 29.1011 17.9776 29.1407 17.9208 29.1688C17.864 29.1969 17.8019 29.213 17.7386 29.2159C17.1624 29.2952 16.5815 29.3344 15.9999 29.3332Z" fill="#FEB237"/>
<path d="M17.6375 28.3254L16.9761 28.3947L16.9281 28.5654C16.8606 28.8368 16.7508 29.096 16.6028 29.3334C16.9868 29.3334 17.3761 29.2854 17.7548 29.232C17.8181 29.2291 17.8802 29.213 17.937 29.1849C17.9938 29.1568 18.0442 29.1172 18.085 29.0686C18.1257 29.02 18.1559 28.9635 18.1737 28.9026C18.1915 28.8418 18.1965 28.7779 18.1884 28.715C18.1803 28.6521 18.1592 28.5916 18.1265 28.5373C18.0937 28.4829 18.0501 28.436 17.9984 28.3994C17.9466 28.3628 17.8878 28.3373 17.8257 28.3245C17.7635 28.3118 17.6995 28.3121 17.6375 28.3254Z" fill="#F6AB31"/>
<path d="M8.27738 26.7307C8.17678 26.7308 8.07909 26.6969 8.00005 26.6347C7.07302 25.9263 6.24441 25.0977 5.53605 24.1707C5.48623 24.1249 5.44718 24.0686 5.4217 24.0059C5.39621 23.9432 5.38492 23.8756 5.38863 23.808C5.39234 23.7404 5.41097 23.6745 5.44318 23.615C5.47538 23.5554 5.52036 23.5038 5.5749 23.4637C5.62943 23.4236 5.69216 23.396 5.7586 23.383C5.82503 23.37 5.89351 23.3719 5.95913 23.3885C6.02475 23.4051 6.08588 23.4361 6.13814 23.4791C6.1904 23.5221 6.23248 23.5762 6.26138 23.6374C6.92254 24.4986 7.69353 25.2695 8.55471 25.9307C8.63232 25.9884 8.68969 26.0692 8.71863 26.1615C8.74756 26.2538 8.74657 26.3529 8.71581 26.4446C8.68504 26.5363 8.62607 26.6159 8.54733 26.6721C8.46859 26.7283 8.3741 26.7581 8.27738 26.7574V26.7307Z" fill="#FEB237"/>
<path d="M3.39196 18.2933C3.27983 18.2942 3.17124 18.2541 3.08673 18.1804C3.00222 18.1067 2.94763 18.0045 2.93329 17.8933C2.85849 17.3168 2.82107 16.736 2.82129 16.1547C2.82079 15.568 2.8582 14.9819 2.93329 14.4C2.94956 14.2791 3.0132 14.1695 3.11022 14.0955C3.20724 14.0215 3.32969 13.9891 3.45063 14.0053C3.57157 14.0216 3.68109 14.0852 3.7551 14.1823C3.82912 14.2793 3.86156 14.4017 3.84529 14.5227C3.70305 15.5989 3.70305 16.6891 3.84529 17.7653C3.85511 17.8263 3.85264 17.8887 3.83802 17.9488C3.8234 18.0088 3.79693 18.0653 3.76017 18.115C3.7234 18.1647 3.67708 18.2065 3.62393 18.2381C3.57077 18.2696 3.51185 18.2902 3.45063 18.2987L3.39196 18.2933Z" fill="#FEB237"/>
<path d="M5.89871 8.87479C5.79868 8.87677 5.70092 8.84482 5.62138 8.78412C5.57322 8.74748 5.53279 8.70168 5.50242 8.64935C5.47204 8.59702 5.45232 8.5392 5.44439 8.47922C5.43646 8.41923 5.44047 8.35827 5.4562 8.29984C5.47193 8.24142 5.49907 8.18668 5.53605 8.13879C6.24441 7.21176 7.07302 6.38315 8.00005 5.67479C8.04751 5.63795 8.10181 5.61092 8.15981 5.59526C8.21781 5.5796 8.27835 5.57563 8.3379 5.58357C8.39745 5.59151 8.45482 5.6112 8.50669 5.64151C8.55856 5.67182 8.60389 5.71214 8.64005 5.76012C8.67508 5.80914 8.70011 5.86458 8.71371 5.92328C8.72731 5.98198 8.72922 6.04279 8.71931 6.10222C8.70941 6.16165 8.68789 6.21855 8.65598 6.26967C8.62408 6.32078 8.58242 6.36511 8.53338 6.40012C7.6708 7.05969 6.89962 7.83087 6.24005 8.69345C6.20003 8.74697 6.14868 8.79097 6.08967 8.82232C6.03066 8.85367 5.96545 8.87158 5.89871 8.87479Z" fill="#FEB237"/>
<path d="M17.696 3.98944H17.6374C16.5609 3.85075 15.4711 3.85075 14.3947 3.98944C14.333 4.00239 14.2693 4.00249 14.2076 3.98972C14.1459 3.97696 14.0874 3.95161 14.0359 3.91526C13.9845 3.87891 13.941 3.83234 13.9083 3.77845C13.8756 3.72456 13.8544 3.66451 13.8459 3.60205C13.8375 3.53959 13.842 3.47606 13.8592 3.41542C13.8764 3.35478 13.9059 3.29834 13.9459 3.24961C13.9859 3.20088 14.0355 3.16092 14.0916 3.13222C14.1477 3.10351 14.2091 3.08668 14.272 3.08277C15.4278 2.92814 16.599 2.92814 17.7547 3.08277C17.8682 3.10003 17.971 3.1592 18.043 3.2486C18.115 3.338 18.1508 3.45114 18.1434 3.56567C18.1361 3.6802 18.086 3.78781 18.0032 3.86725C17.9204 3.94669 17.8108 3.99219 17.696 3.99477V3.98944Z" fill="#FEB237"/>
<path d="M26.1333 8.87475C26.0634 8.87538 25.9943 8.85982 25.9314 8.82928C25.8684 8.79875 25.8134 8.75408 25.7707 8.69875C25.1094 7.8325 24.3345 7.05931 23.4667 6.40009C23.4187 6.36332 23.3784 6.31746 23.3482 6.26513C23.3179 6.2128 23.2983 6.15502 23.2903 6.09509C23.2824 6.03517 23.2864 5.97427 23.302 5.91588C23.3176 5.85748 23.3446 5.80273 23.3813 5.75475C23.4181 5.70678 23.464 5.66651 23.5163 5.63626C23.5686 5.60601 23.6264 5.58636 23.6863 5.57844C23.7463 5.57051 23.8072 5.57447 23.8655 5.59008C23.9239 5.60569 23.9787 5.63265 24.0267 5.66942C24.9523 6.37943 25.7807 7.20784 26.4907 8.13342C26.564 8.23067 26.5961 8.35283 26.5802 8.47356C26.5642 8.59429 26.5014 8.70391 26.4053 8.77875C26.3274 8.83917 26.232 8.87284 26.1333 8.87475Z" fill="#FEB237"/>
<path d="M26.496 8.1387C26.2666 7.84003 26.0266 7.55736 25.776 7.28003C25.7257 7.41178 25.6632 7.53856 25.5893 7.6587L25.3066 8.13336C25.4666 8.3147 25.616 8.50136 25.7653 8.6987C25.8081 8.75402 25.8631 8.79869 25.926 8.82923C25.9889 8.85976 26.058 8.87532 26.128 8.8747C26.2296 8.87664 26.3291 8.84475 26.4106 8.78403C26.5067 8.70918 26.5695 8.59957 26.5855 8.47884C26.6014 8.35811 26.5693 8.23594 26.496 8.1387Z" fill="#F6AB31"/>
<path d="M21.8933 19.504H10.1333L12.0106 11.056C12.0346 10.9451 12.0893 10.8432 12.1686 10.7621C12.2478 10.681 12.3484 10.6238 12.4586 10.5973L12.72 10.528C14.8789 9.98938 17.137 9.98938 19.296 10.528L19.5626 10.5973C19.6724 10.625 19.7723 10.6825 19.8513 10.7634C19.9304 10.8444 19.9855 10.9456 20.0106 11.056L21.8933 19.504Z" fill="#39B54A"/>
<path opacity="0.79" d="M20.016 11.056C19.9909 10.9457 19.9357 10.8445 19.8567 10.7635C19.7776 10.6826 19.6777 10.6251 19.568 10.5974L19.3013 10.528C18.741 10.3894 18.1728 10.2843 17.6 10.2134L18.6666 15.0134C18.7329 15.3198 18.7332 15.6369 18.6674 15.9435C18.6016 16.25 18.4713 16.5391 18.2851 16.7914C18.099 17.0436 17.8612 17.2534 17.5876 17.4066C17.3141 17.5598 17.011 17.6531 16.6986 17.68C14.653 17.8562 12.5964 17.8652 10.5493 17.7067L10.1333 19.504H21.8666L20.016 11.056Z" fill="#009245"/>
<path d="M23.0879 21.5574L22.5546 21.6267C18.2175 22.1654 13.8304 22.1654 9.49326 21.6267L8.95993 21.5574C8.8659 21.5479 8.77522 21.5174 8.69461 21.468C8.614 21.4187 8.54554 21.3518 8.49431 21.2724C8.44307 21.193 8.41038 21.1031 8.39866 21.0093C8.38694 20.9155 8.39649 20.8203 8.4266 20.7307L8.91193 19.2747C8.98215 19.0638 9.12419 18.8842 9.31327 18.7672C9.50235 18.6503 9.72649 18.6034 9.9466 18.6347L10.4426 18.7041C14.1408 19.2374 17.8964 19.2374 21.5946 18.7041L22.0959 18.6347C22.3153 18.6036 22.5387 18.6507 22.7269 18.7677C22.9151 18.8847 23.0561 19.0642 23.1253 19.2747L23.6106 20.7307C23.6407 20.8203 23.6503 20.9155 23.6385 21.0093C23.6268 21.1031 23.5941 21.193 23.5429 21.2724C23.4917 21.3518 23.4232 21.4187 23.3426 21.468C23.262 21.5174 23.1713 21.5479 23.0773 21.5574H23.0879Z" fill="#B2CAEC"/>
<path d="M23.6052 20.7306L23.1199 19.2746C23.0507 19.0641 22.9097 18.8846 22.7215 18.7676C22.5333 18.6506 22.31 18.6035 22.0906 18.6346L21.5892 18.7039L20.8639 18.8053L20.9119 18.9546C20.9641 19.1058 20.9815 19.2669 20.963 19.4258C20.9445 19.5847 20.8905 19.7375 20.805 19.8727C20.7195 20.0079 20.6046 20.1221 20.4689 20.2069C20.3333 20.2917 20.1802 20.3449 20.0212 20.3626C16.1937 20.8407 12.3252 20.8979 8.48523 20.5333L8.42123 20.7306C8.39111 20.8202 8.38157 20.9154 8.39329 21.0092C8.40501 21.1029 8.4377 21.1929 8.48893 21.2723C8.54017 21.3517 8.60863 21.4186 8.68924 21.4679C8.76985 21.5172 8.86053 21.5478 8.95456 21.5573L9.48789 21.6266C13.825 22.1653 18.2121 22.1653 22.5492 21.6266L23.0826 21.5573C23.1766 21.5478 23.2673 21.5172 23.3479 21.4679C23.4285 21.4186 23.4969 21.3517 23.5482 21.2723C23.5994 21.1929 23.6321 21.1029 23.6438 21.0092C23.6556 20.9154 23.646 20.8202 23.6159 20.7306H23.6052Z" fill="#82AEE3"/>
<path d="M23.4666 14.5387C23.3553 14.5393 23.2475 14.4994 23.1634 14.4264C23.0792 14.3534 23.0246 14.2523 23.0096 14.1419C22.9945 14.0315 23.0202 13.9195 23.0817 13.8266C23.1433 13.7338 23.2365 13.6665 23.344 13.6374L24.2933 13.3814C24.4114 13.3495 24.5373 13.3659 24.6434 13.4269C24.7494 13.488 24.8268 13.5886 24.8586 13.7067C24.8905 13.8248 24.8741 13.9507 24.8131 14.0567C24.752 14.1628 24.6514 14.2402 24.5333 14.272L23.5893 14.5227C23.5494 14.5337 23.5081 14.5391 23.4666 14.5387Z" fill="#FFF3BE"/>
<path d="M22.5227 12.7626C22.4013 12.7609 22.285 12.7132 22.1974 12.6293C22.1545 12.5866 22.1204 12.5359 22.0972 12.4801C22.074 12.4243 22.062 12.3644 22.062 12.3039C22.062 12.2434 22.074 12.1836 22.0972 12.1277C22.1204 12.0719 22.1545 12.0212 22.1974 11.9786L22.8907 11.2853C22.9333 11.2424 22.984 11.2083 23.0398 11.1851C23.0957 11.1619 23.1556 11.1499 23.216 11.1499C23.2765 11.1499 23.3364 11.1619 23.3922 11.1851C23.448 11.2083 23.4987 11.2424 23.5414 11.2853C23.6254 11.3727 23.6724 11.4893 23.6724 11.6106C23.6724 11.7319 23.6254 11.8485 23.5414 11.9359L22.848 12.6293C22.7604 12.7132 22.6441 12.7609 22.5227 12.7626Z" fill="#FFF3BE"/>
<path d="M24.4854 16.7999C24.4447 16.8051 24.4035 16.8051 24.3627 16.7999L23.4187 16.5332C23.301 16.5008 23.2009 16.4232 23.14 16.3174C23.0791 16.2116 23.0623 16.086 23.0934 15.9679C23.1247 15.8506 23.2012 15.7505 23.3062 15.6895C23.4111 15.6285 23.536 15.6116 23.6534 15.6426L24.6027 15.8986C24.7098 15.9276 24.8027 15.9945 24.8642 16.0867C24.9258 16.179 24.9518 16.2905 24.9375 16.4005C24.9232 16.5104 24.8695 16.6115 24.7864 16.685C24.7032 16.7584 24.5963 16.7992 24.4854 16.7999Z" fill="#FFF3BE"/>
<path d="M8.5706 14.5385C8.52987 14.5437 8.48866 14.5437 8.44793 14.5385L7.50393 14.2879C7.38623 14.2554 7.28607 14.1779 7.22517 14.072C7.16427 13.9662 7.14754 13.8406 7.1786 13.7225C7.20995 13.611 7.28237 13.5154 7.38131 13.455C7.48025 13.3947 7.59838 13.374 7.71193 13.3972L8.66126 13.6532C8.76832 13.6822 8.86122 13.7491 8.92278 13.8414C8.98433 13.9336 9.01035 14.0451 8.99603 14.1551C8.98172 14.2651 8.92802 14.3662 8.8449 14.4396C8.76177 14.5131 8.65485 14.5539 8.54393 14.5545L8.5706 14.5385Z" fill="#FFF3BE"/>
<path d="M9.50391 12.7626C9.38391 12.7618 9.26902 12.7139 9.18391 12.6293L8.49058 11.936C8.44768 11.8933 8.41364 11.8426 8.39041 11.7868C8.36718 11.731 8.35522 11.6711 8.35522 11.6106C8.35522 11.5502 8.36718 11.4903 8.39041 11.4344C8.41364 11.3786 8.44768 11.3279 8.49058 11.2853C8.53275 11.2426 8.58299 11.2086 8.63838 11.1855C8.69377 11.1623 8.7532 11.1504 8.81324 11.1504C8.87328 11.1504 8.93272 11.1623 8.98811 11.1855C9.0435 11.2086 9.09374 11.2426 9.13591 11.2853L9.82924 11.9786C9.87214 12.0213 9.90618 12.0719 9.9294 12.1278C9.95263 12.1836 9.96459 12.2435 9.96459 12.304C9.96459 12.3644 9.95263 12.4243 9.9294 12.4801C9.90618 12.536 9.87214 12.5867 9.82924 12.6293C9.74156 12.7133 9.62531 12.7609 9.50391 12.7626Z" fill="#FFF3BE"/>
<path d="M7.54676 16.7999C7.43584 16.7992 7.32892 16.7584 7.2458 16.685C7.16267 16.6115 7.10898 16.5104 7.09466 16.4005C7.08034 16.2905 7.10637 16.179 7.16792 16.0867C7.22947 15.9945 7.32238 15.9276 7.42943 15.8986L8.37343 15.6426C8.49082 15.6116 8.61569 15.6285 8.72066 15.6895C8.82563 15.7505 8.90214 15.8506 8.93343 15.9679C8.96469 16.0853 8.94869 16.2102 8.88887 16.3159C8.82904 16.4216 8.73015 16.4996 8.61343 16.5332L7.6641 16.7839C7.62516 16.7891 7.5857 16.7891 7.54676 16.7839V16.7999Z" fill="#FFF3BE"/>
<path d="M16.9601 13.6961L15.7388 14.9334C15.7238 14.9481 15.7037 14.9563 15.6828 14.9563C15.6618 14.9563 15.6417 14.9481 15.6268 14.9334L14.9868 14.2934C14.9723 14.2783 14.9549 14.2662 14.9357 14.2579C14.9164 14.2497 14.8957 14.2454 14.8748 14.2454C14.8538 14.2454 14.8331 14.2497 14.8138 14.2579C14.7946 14.2662 14.7772 14.2783 14.7628 14.2934L14.2881 14.7628C14.26 14.7933 14.2444 14.8333 14.2444 14.8748C14.2444 14.9163 14.26 14.9562 14.2881 14.9868L15.5681 16.2668C15.5825 16.2819 15.5999 16.294 15.6192 16.3023C15.6384 16.3105 15.6592 16.3148 15.6801 16.3148C15.701 16.3148 15.7218 16.3105 15.741 16.3023C15.7603 16.294 15.7777 16.2819 15.7921 16.2668L17.6588 14.4001C17.6869 14.3696 17.7025 14.3296 17.7025 14.2881C17.7025 14.2466 17.6869 14.2066 17.6588 14.1761L17.1841 13.7014C17.1536 13.6733 17.1136 13.6577 17.0721 13.6577C17.0306 13.6577 16.9906 13.6733 16.9601 13.7014V13.6961Z" fill="white"/>
</g>
<defs>
<clipPath id="clip0_495_4207">
<rect width="32" height="32" fill="white"/>
</clipPath>
</defs>
</svg>
