<svg width="32" height="32" viewBox="0 0 32 32" fill="none" xmlns="http://www.w3.org/2000/svg">
<g clip-path="url(#clip0_495_4042)">
<path d="M31.6853 18.1974V13.7921C31.6857 13.5813 31.6155 13.3765 31.486 13.2103C31.3565 13.0441 31.1751 12.9259 30.9706 12.8747L28.4906 12.2667C28.3912 12.2426 28.2996 12.1938 28.224 12.1248C28.1485 12.0558 28.0916 11.9689 28.0586 11.8721C27.8887 11.3728 27.6874 10.8847 27.456 10.4107C27.406 10.321 27.3798 10.2201 27.3798 10.1174C27.3798 10.0147 27.406 9.91376 27.456 9.82407L28.8 7.6214C28.9068 7.44051 28.9507 7.22929 28.9246 7.02082C28.8985 6.81236 28.8041 6.61842 28.656 6.4694L25.5413 3.35474C25.3932 3.2037 25.1989 3.10646 24.9892 3.07843C24.7796 3.05041 24.5665 3.09322 24.384 3.20007L22.192 4.52807C22.1028 4.57661 22.0029 4.60205 21.9013 4.60205C21.7998 4.60205 21.6998 4.57661 21.6106 4.52807C21.1349 4.30268 20.645 4.10849 20.144 3.94674C20.0442 3.91604 19.954 3.86017 19.8821 3.78451C19.8101 3.70885 19.7589 3.61594 19.7333 3.51474L19.1306 1.06674C19.0848 0.85684 18.9691 0.668706 18.8025 0.533081C18.6358 0.397455 18.4281 0.32236 18.2133 0.320068H13.8133C13.5982 0.321393 13.39 0.396135 13.2232 0.53192C13.0564 0.667705 12.9409 0.856389 12.896 1.06674L12.2666 3.51474C12.2407 3.6141 12.1906 3.70552 12.1208 3.78088C12.051 3.85623 11.9637 3.91321 11.8666 3.94674C11.3664 4.11628 10.8782 4.31941 10.4053 4.55474C10.3152 4.60328 10.2144 4.6287 10.112 4.6287C10.0096 4.6287 9.90879 4.60328 9.81864 4.55474L7.64264 3.20007C7.46177 3.09122 7.24978 3.04576 7.04019 3.07087C6.83059 3.09598 6.63534 3.19024 6.48531 3.33874L3.37598 6.4694C3.22624 6.61744 3.13063 6.81153 3.10452 7.02047C3.0784 7.22941 3.12329 7.44106 3.23198 7.6214L4.54398 9.8134C4.59668 9.90133 4.6267 10.001 4.63136 10.1034C4.63601 10.2058 4.61515 10.3077 4.57064 10.4001C4.33749 10.8739 4.13442 11.362 3.96264 11.8614C3.93054 11.9587 3.87393 12.0461 3.79828 12.1153C3.72262 12.1844 3.63046 12.2329 3.53064 12.2561L1.06664 12.8747C0.860242 12.9239 0.676416 13.0411 0.54482 13.2076C0.413224 13.374 0.341532 13.5799 0.341309 13.7921V18.1974C0.341532 18.4096 0.413224 18.6155 0.54482 18.7819C0.676416 18.9483 0.860242 19.0656 1.06664 19.1147L3.53064 19.7334C3.63003 19.7575 3.72173 19.8064 3.79724 19.8754C3.87275 19.9443 3.92964 20.0313 3.96264 20.1281C4.13442 20.6275 4.33749 21.1155 4.57064 21.5894C4.61515 21.6817 4.63601 21.7837 4.63136 21.8861C4.6267 21.9885 4.59668 22.0881 4.54398 22.1761L3.23198 24.3681C3.12329 24.5484 3.0784 24.7601 3.10452 24.969C3.13063 25.1779 3.22624 25.372 3.37598 25.5201L6.48531 28.6347C6.63534 28.7832 6.83059 28.8775 7.04019 28.9026C7.24978 28.9277 7.46177 28.8823 7.64264 28.7734L9.82931 27.4614C9.91723 27.4087 10.0169 27.3787 10.1193 27.374C10.2217 27.3694 10.3236 27.3902 10.416 27.4347C10.8888 27.6701 11.3771 27.8732 11.8773 28.0427C11.9744 28.0763 12.0617 28.1332 12.1315 28.2086C12.2012 28.284 12.2513 28.3754 12.2773 28.4747L12.896 30.9334C12.9461 31.1388 13.0638 31.3214 13.2302 31.452C13.3965 31.5825 13.6019 31.6535 13.8133 31.6534H18.2133C18.4245 31.6525 18.6294 31.5813 18.7956 31.4509C18.9617 31.3205 19.0796 31.1384 19.1306 30.9334L19.7333 28.4747C19.7574 28.3753 19.8063 28.2836 19.8753 28.2081C19.9442 28.1326 20.0312 28.0757 20.128 28.0427C20.6296 27.8723 21.1196 27.6692 21.5946 27.4347C21.686 27.3902 21.7871 27.3693 21.8887 27.374C21.9903 27.3787 22.089 27.4087 22.176 27.4614L24.384 28.8001C24.5648 28.9089 24.7768 28.9544 24.9864 28.9293C25.196 28.9042 25.3913 28.8099 25.5413 28.6614L28.6506 25.5467C28.8059 25.3966 28.9053 25.1979 28.9325 24.9837C28.9596 24.7694 28.9129 24.5522 28.8 24.3681L27.4826 22.1761C27.4327 22.0864 27.4064 21.9854 27.4064 21.8827C27.4064 21.7801 27.4327 21.6791 27.4826 21.5894C27.714 21.1154 27.9153 20.6274 28.0853 20.1281C28.1183 20.0313 28.1752 19.9443 28.2507 19.8754C28.3262 19.8064 28.4179 19.7575 28.5173 19.7334L30.9973 19.1147C31.2017 19.0635 31.3831 18.9454 31.5127 18.7792C31.6422 18.6129 31.7123 18.4081 31.712 18.1974H31.6853Z" fill="#FFC344"/>
<path d="M25.1892 4.26674C25.6053 4.68432 25.8712 5.22797 25.9455 5.81273C26.0198 6.39748 25.8983 6.99038 25.5999 7.49874L25.2639 8.03207C25.1205 8.26526 25.0359 8.52979 25.0173 8.80292C24.9987 9.07605 25.0468 9.3496 25.1572 9.60007C25.2266 9.76007 25.2906 9.91474 25.3546 10.0747C25.4523 10.3286 25.6093 10.5555 25.8124 10.7364C26.0156 10.9173 26.2591 11.047 26.5226 11.1147L27.1626 11.2747C27.4581 11.3465 27.7382 11.4711 27.9892 11.6427C27.8355 11.2117 27.6574 10.7897 27.4559 10.3787C27.4059 10.289 27.3797 10.1881 27.3797 10.0854C27.3797 9.98273 27.4059 9.88176 27.4559 9.79207L28.7999 7.6214C28.9068 7.44051 28.9506 7.22929 28.9245 7.02082C28.8985 6.81236 28.804 6.61842 28.6559 6.4694L25.5412 3.35474C25.3931 3.2037 25.1988 3.10646 24.9892 3.07844C24.7795 3.05042 24.5665 3.09322 24.3839 3.20007L24.2292 3.29074L25.1892 4.26674Z" fill="#FEB237"/>
<path d="M30.9707 12.8746L28.6507 12.2986C28.9913 12.7469 29.1783 13.293 29.1841 13.8559V15.6106C29.1792 16.198 28.9805 16.7674 28.6189 17.2303C28.2572 17.6932 27.7529 18.0237 27.1841 18.1706L26.5441 18.3306C26.2778 18.4009 26.0324 18.5347 25.829 18.7204C25.6256 18.9062 25.4702 19.1384 25.3761 19.3973C25.3121 19.5573 25.2481 19.7119 25.1787 19.8719C25.0676 20.1208 25.0182 20.3929 25.035 20.665C25.0517 20.9371 25.1339 21.2011 25.2747 21.4346L25.6107 21.9679C25.9091 22.4746 26.0317 23.0657 25.9594 23.6493C25.887 24.2328 25.6238 24.7761 25.2107 25.1946L23.9734 26.4373C23.5562 26.8433 23.0176 27.1017 22.4398 27.173C21.862 27.2442 21.2767 27.1245 20.7734 26.8319L20.2081 26.4959C19.9746 26.3551 19.7106 26.2729 19.4385 26.2561C19.1664 26.2394 18.8943 26.2887 18.6454 26.3999L18.1707 26.5973C17.9043 26.6868 17.6642 26.8408 17.4716 27.0455C17.279 27.2501 17.1399 27.4992 17.0667 27.7706L16.9067 28.4053C16.7599 28.9696 16.4321 29.4702 15.9736 29.8304C15.5151 30.1907 14.9511 30.3907 14.3681 30.3999H12.7681L12.9067 30.9333C12.9569 31.1387 13.0746 31.3213 13.2409 31.4518C13.4073 31.5824 13.6126 31.6533 13.8241 31.6533H18.2241C18.4334 31.65 18.6359 31.5777 18.7999 31.4475C18.9638 31.3172 19.0802 31.1365 19.1307 30.9333L19.7334 28.4746C19.7575 28.3752 19.8064 28.2835 19.8753 28.208C19.9443 28.1325 20.0313 28.0756 20.1281 28.0426C20.6297 27.8722 21.1196 27.6691 21.5947 27.4346C21.6861 27.3901 21.7872 27.3692 21.8888 27.3738C21.9904 27.3785 22.0891 27.4086 22.1761 27.4613L24.3841 28.7999C24.5649 28.9088 24.7769 28.9542 24.9865 28.9291C25.1961 28.904 25.3914 28.8097 25.5414 28.6613L28.6507 25.5466C28.806 25.3964 28.9054 25.1978 28.9326 24.9835C28.9597 24.7692 28.913 24.5521 28.8001 24.3679L27.4827 22.1759C27.4328 22.0862 27.4065 21.9853 27.4065 21.8826C27.4065 21.7799 27.4328 21.6789 27.4827 21.5893C27.7141 21.1153 27.9154 20.6272 28.0854 20.1279C28.1184 20.0311 28.1753 19.9442 28.2508 19.8752C28.3263 19.8062 28.418 19.7574 28.5174 19.7333L30.9974 19.1146C31.2018 19.0634 31.3832 18.9453 31.5127 18.779C31.6423 18.6128 31.7124 18.408 31.7121 18.1973V13.7919C31.7124 13.5812 31.6423 13.3764 31.5127 13.2101C31.3832 13.0439 31.2018 12.9258 30.9974 12.8746H30.9707Z" fill="#FEB237"/>
<path d="M28.6348 18.1334H28.5761C28.5149 18.1249 28.4559 18.1043 28.4028 18.0728C28.3496 18.0413 28.3033 17.9994 28.2666 17.9497C28.2298 17.9001 28.2033 17.8435 28.1887 17.7835C28.1741 17.7234 28.1716 17.6611 28.1814 17.6C28.3237 16.5238 28.3237 15.4336 28.1814 14.3574C28.1652 14.2364 28.1976 14.114 28.2716 14.017C28.3456 13.92 28.4552 13.8563 28.5761 13.84C28.697 13.8238 28.8195 13.8562 28.9165 13.9302C29.0135 14.0042 29.0772 14.1138 29.0934 14.2347C29.2428 15.3926 29.2428 16.5648 29.0934 17.7227C29.0815 17.8359 29.028 17.9405 28.9432 18.0164C28.8585 18.0923 28.7485 18.134 28.6348 18.1334Z" fill="#FEB237"/>
<path d="M29.1628 15.6107C29.161 16.0055 29.0715 16.3949 28.9009 16.7509C28.7303 17.107 28.4827 17.4206 28.1761 17.6694C28.1739 17.7824 28.2135 17.8923 28.2873 17.9779C28.3611 18.0636 28.464 18.1189 28.5761 18.1333H28.6348C28.7461 18.1344 28.854 18.095 28.9384 18.0224C29.0228 17.9498 29.0779 17.8489 29.0934 17.7387C29.1679 17.1621 29.2053 16.5814 29.2054 16C29.2054 15.6427 29.2054 15.28 29.1628 14.9333V15.6107Z" fill="#F6AB31"/>
<path d="M23.7494 26.5707C23.6522 26.5726 23.557 26.5436 23.4773 26.4878C23.3977 26.4321 23.3379 26.3525 23.3064 26.2605C23.275 26.1685 23.2735 26.0689 23.3024 25.9761C23.3312 25.8833 23.3887 25.802 23.4668 25.744C24.3293 25.0844 25.1005 24.3133 25.7601 23.4507C25.7939 23.3969 25.8384 23.3508 25.8909 23.3152C25.9434 23.2796 26.0028 23.2552 26.0652 23.2437C26.1276 23.2322 26.1917 23.2337 26.2535 23.2483C26.3152 23.2628 26.3733 23.29 26.424 23.3281C26.4748 23.3663 26.517 23.4145 26.5481 23.4698C26.5793 23.5251 26.5986 23.5863 26.6048 23.6494C26.6111 23.7126 26.6042 23.7763 26.5846 23.8367C26.5649 23.897 26.533 23.9526 26.4908 24C25.7824 24.927 24.9538 25.7556 24.0268 26.464C23.9477 26.5262 23.85 26.5601 23.7494 26.56V26.5707Z" fill="#FEB237"/>
<path d="M26.4906 24.0001C26.5275 23.9522 26.5547 23.8974 26.5704 23.839C26.5861 23.7806 26.5902 23.7196 26.5822 23.6596C26.5743 23.5997 26.5546 23.5418 26.5242 23.4895C26.4938 23.4372 26.4534 23.3914 26.4052 23.3547C26.3424 23.3085 26.2691 23.2785 26.1919 23.2673C26.1147 23.2562 26.0359 23.2642 25.9626 23.2907C25.9679 23.6422 25.9021 23.991 25.7692 24.3164C25.6363 24.6417 25.4391 24.9369 25.1892 25.1841L23.9519 26.4267L23.8132 26.5547C23.8908 26.5428 23.9642 26.5117 24.0266 26.4641C24.9536 25.7557 25.7822 24.9271 26.4906 24.0001Z" fill="#F6AB31"/>
<path d="M15.9999 29.1893C15.4184 29.1904 14.8374 29.1512 14.2613 29.072C14.1487 29.0479 14.0493 28.9823 13.9829 28.8883C13.9164 28.7943 13.8877 28.6788 13.9025 28.5646C13.9173 28.4504 13.9744 28.346 14.0626 28.272C14.1508 28.1981 14.2636 28.16 14.3786 28.1653C15.4551 28.304 16.5448 28.304 17.6213 28.1653C17.683 28.1524 17.7467 28.1523 17.8084 28.165C17.8701 28.1778 17.9285 28.2031 17.98 28.2395C18.0315 28.2758 18.075 28.3224 18.1077 28.3763C18.1404 28.4302 18.1616 28.4902 18.17 28.5527C18.1785 28.6151 18.174 28.6787 18.1568 28.7393C18.1396 28.8 18.1101 28.8564 18.0701 28.9051C18.0301 28.9539 17.9805 28.9938 17.9244 29.0225C17.8683 29.0512 17.8069 29.0681 17.7439 29.072C17.166 29.151 16.5833 29.1902 15.9999 29.1893Z" fill="#FEB237"/>
<path d="M17.6321 28.1653L16.9707 28.2346L16.9281 28.4053C16.8611 28.6778 16.7493 28.9373 16.5974 29.1733C16.9867 29.1733 17.3707 29.1253 17.7547 29.072C17.8177 29.0681 17.8791 29.0512 17.9352 29.0225C17.9913 28.9938 18.0409 28.9539 18.0809 28.9051C18.1209 28.8564 18.1504 28.8 18.1676 28.7393C18.1848 28.6787 18.1893 28.6151 18.1808 28.5527C18.1724 28.4902 18.1512 28.4302 18.1185 28.3763C18.0858 28.3224 18.0423 28.2758 17.9908 28.2395C17.9393 28.2031 17.8809 28.1778 17.8192 28.165C17.7575 28.1523 17.6938 28.1524 17.6321 28.1653Z" fill="#F6AB31"/>
<path d="M8.27196 26.5707C8.1715 26.5699 8.07406 26.5362 7.99463 26.4747C7.06835 25.7614 6.23992 24.9294 5.53063 24C5.48212 23.903 5.46954 23.792 5.49513 23.6866C5.52073 23.5812 5.58283 23.4883 5.67043 23.4244C5.75802 23.3604 5.86544 23.3296 5.97361 23.3374C6.08178 23.3451 6.18371 23.3909 6.26129 23.4667C6.91962 24.3304 7.69096 25.1017 8.55463 25.76C8.60278 25.7967 8.64321 25.8425 8.67359 25.8948C8.70397 25.9471 8.72369 26.0049 8.73162 26.0649C8.73955 26.1249 8.73554 26.1859 8.71981 26.2443C8.70407 26.3027 8.67694 26.3575 8.63996 26.4054C8.59477 26.4585 8.53829 26.501 8.47463 26.5296C8.41097 26.5582 8.34173 26.5722 8.27196 26.5707Z" fill="#FEB237"/>
<path d="M3.38659 18.1334C3.27618 18.1332 3.16955 18.0932 3.08627 18.0207C3.003 17.9482 2.94867 17.8481 2.93326 17.7388C2.7768 16.5814 2.7768 15.4082 2.93326 14.2508C2.94101 14.1892 2.96115 14.1299 2.99247 14.0764C3.0238 14.0228 3.06565 13.9762 3.1155 13.9393C3.16536 13.9024 3.22217 13.876 3.28252 13.8617C3.34286 13.8474 3.40549 13.8455 3.46659 13.8561C3.52829 13.8639 3.58779 13.884 3.64156 13.9153C3.69532 13.9465 3.74226 13.9883 3.77957 14.038C3.81689 14.0878 3.84382 14.1445 3.85877 14.2049C3.87372 14.2653 3.87638 14.328 3.86659 14.3894C3.72435 15.4656 3.72435 16.5559 3.86659 17.6321C3.87638 17.6935 3.87372 17.7563 3.85877 17.8166C3.84382 17.877 3.81689 17.9337 3.77957 17.9835C3.74226 18.0332 3.69532 18.075 3.64156 18.1062C3.58779 18.1375 3.52829 18.1576 3.46659 18.1654L3.38659 18.1334Z" fill="#FEB237"/>
<path d="M5.89872 8.71468C5.79705 8.71663 5.69762 8.68474 5.61605 8.62402C5.52594 8.54981 5.46712 8.44436 5.4513 8.32871C5.43549 8.21306 5.46384 8.09569 5.53072 8.00002C6.24093 7.06656 7.07121 6.23091 8.00005 5.51468C8.04663 5.46698 8.10306 5.43 8.16539 5.40634C8.22772 5.38267 8.29447 5.37287 8.36097 5.37764C8.42748 5.3824 8.49214 5.4016 8.55047 5.43391C8.60879 5.46622 8.65937 5.51086 8.69868 5.56471C8.73799 5.61857 8.76509 5.68035 8.77808 5.74574C8.79107 5.81114 8.78965 5.87858 8.77392 5.94338C8.75818 6.00817 8.72851 6.06875 8.68697 6.1209C8.64543 6.17305 8.59302 6.21552 8.53338 6.24535C7.66971 6.90367 6.89837 7.67501 6.24005 8.53868C6.19926 8.59094 6.14762 8.63374 6.08869 8.66413C6.02977 8.69451 5.96495 8.71176 5.89872 8.71468Z" fill="#FEB237"/>
<path d="M17.6961 3.82928H17.6321C16.5557 3.69059 15.4659 3.69059 14.3894 3.82928C14.3274 3.84256 14.2634 3.84285 14.2012 3.83011C14.1391 3.81737 14.0803 3.79189 14.0285 3.75527C13.9768 3.71866 13.9332 3.67171 13.9004 3.61738C13.8677 3.56306 13.8466 3.50254 13.8385 3.43966C13.8304 3.37677 13.8354 3.31288 13.8532 3.25202C13.871 3.19116 13.9012 3.13465 13.9419 3.08606C13.9827 3.03747 14.0331 2.99786 14.0899 2.96973C14.1467 2.9416 14.2088 2.92556 14.2721 2.92262C15.4279 2.76798 16.599 2.76798 17.7548 2.92262C17.8682 2.93988 17.9711 2.99905 18.0431 3.08845C18.115 3.17785 18.1509 3.29098 18.1435 3.40551C18.1362 3.52004 18.0861 3.62765 18.0033 3.70709C17.9205 3.78653 17.8109 3.83204 17.6961 3.83462V3.82928Z" fill="#FEB237"/>
<path d="M26.1333 8.71463C26.0633 8.7161 25.9939 8.70091 25.9308 8.67031C25.8678 8.63971 25.8129 8.59458 25.7707 8.53863C25.1111 7.67605 24.3399 6.90487 23.4773 6.2453C23.4292 6.20866 23.3888 6.16286 23.3584 6.11053C23.328 6.0582 23.3083 6.00038 23.3003 5.94039C23.2924 5.88041 23.2964 5.81945 23.3122 5.76102C23.3279 5.70259 23.355 5.64786 23.392 5.59996C23.4282 5.55198 23.4735 5.51167 23.5254 5.48136C23.5772 5.45105 23.6346 5.43135 23.6942 5.42341C23.7537 5.41547 23.8142 5.41945 23.8722 5.43511C23.9302 5.45077 23.9845 5.4778 24.032 5.51463C24.9585 6.22993 25.7854 7.06576 26.4907 7.99996C26.5276 8.04786 26.5548 8.10259 26.5705 8.16102C26.5862 8.21945 26.5903 8.28041 26.5823 8.34039C26.5744 8.40038 26.5547 8.4582 26.5243 8.51053C26.4939 8.56286 26.4535 8.60866 26.4053 8.6453C26.3246 8.6973 26.2291 8.72164 26.1333 8.71463Z" fill="#FEB237"/>
<path d="M26.4906 8.00002C26.2666 7.70136 26.0266 7.41869 25.7759 7.14136C25.7234 7.27215 25.661 7.39874 25.5893 7.52002L25.3013 7.99469C25.4613 8.17602 25.6159 8.36802 25.7653 8.56002C25.84 8.65457 25.9485 8.71634 26.068 8.73226C26.1874 8.74819 26.3084 8.71702 26.4053 8.64536C26.4534 8.60872 26.4939 8.56292 26.5242 8.51059C26.5546 8.45826 26.5743 8.40044 26.5823 8.34045C26.5902 8.28047 26.5862 8.21951 26.5704 8.16108C26.5547 8.10265 26.5276 8.04792 26.4906 8.00002Z" fill="#F6AB31"/>
<path d="M21.8666 19.344H10.1333L12.0106 10.896C12.0357 10.7857 12.0909 10.6845 12.1699 10.6035C12.249 10.5226 12.3489 10.4651 12.4586 10.4374L12.7253 10.368C14.8842 9.82947 17.1424 9.82947 19.3013 10.368L19.5626 10.4374C19.6729 10.4639 19.7734 10.5211 19.8527 10.6022C19.9319 10.6833 19.9867 10.7852 20.0106 10.896L21.8666 19.344Z" fill="#E94444"/>
<path d="M20.0106 10.8959C19.9867 10.7851 19.9319 10.6832 19.8527 10.6021C19.7734 10.5209 19.6729 10.4638 19.5626 10.4373L19.3013 10.3679C18.7414 10.2285 18.1731 10.1252 17.6 10.0586L18.6666 14.8586C18.7321 15.1654 18.7315 15.4826 18.6651 15.7891C18.5986 16.0957 18.4677 16.3846 18.2811 16.6368C18.0946 16.889 17.8565 17.0986 17.5827 17.2517C17.309 17.4049 17.0058 17.4981 16.6933 17.5253C14.6469 17.6926 12.5903 17.6926 10.544 17.5253L10.1333 19.3439H21.8666L20.0106 10.8959Z" fill="#D83131"/>
<path d="M23.0828 21.3973L22.5494 21.4666C18.2105 22.0053 13.8217 22.0053 9.48277 21.4666L8.94943 21.3973C8.8554 21.3878 8.76472 21.3572 8.68411 21.3079C8.6035 21.2585 8.53504 21.1917 8.48381 21.1123C8.43257 21.0329 8.39988 20.9429 8.38816 20.8492C8.37644 20.7554 8.38599 20.6602 8.4161 20.5706L8.90143 19.1146C8.9706 18.9041 9.11163 18.7246 9.29982 18.6076C9.48801 18.4906 9.71136 18.4435 9.93077 18.4746L10.4321 18.5493C14.1307 19.0771 17.8855 19.0771 21.5841 18.5493L22.0801 18.4746C22.3002 18.4432 22.5243 18.4901 22.7134 18.6071C22.9025 18.724 23.0445 18.9036 23.1148 19.1146L23.6001 20.5706C23.6302 20.6602 23.6398 20.7554 23.628 20.8492C23.6163 20.9429 23.5836 21.0329 23.5324 21.1123C23.4812 21.1917 23.4127 21.2585 23.3321 21.3079C23.2515 21.3572 23.1608 21.3878 23.0668 21.3973H23.0828Z" fill="#B2CAEC"/>
<path d="M23.6052 20.5706L23.1199 19.1146C23.0497 18.9036 22.9076 18.724 22.7186 18.6071C22.5295 18.4901 22.3053 18.4432 22.0852 18.4746L21.5892 18.5493L20.8586 18.6666L20.9119 18.8159C20.9641 18.9672 20.9815 19.1282 20.963 19.2871C20.9445 19.4461 20.8905 19.5988 20.805 19.734C20.7195 19.8692 20.6046 19.9835 20.4689 20.0683C20.3333 20.1531 20.1802 20.2063 20.0212 20.2239C16.1939 20.7046 12.3251 20.7618 8.48523 20.3946L8.42123 20.5919C8.39111 20.6815 8.38157 20.7767 8.39329 20.8705C8.40501 20.9643 8.4377 21.0542 8.48893 21.1336C8.54017 21.213 8.60863 21.2799 8.68924 21.3292C8.76985 21.3785 8.86053 21.4091 8.95456 21.4186L9.48789 21.4879C13.8268 22.0266 18.2157 22.0266 22.5546 21.4879L23.0879 21.4186C23.1819 21.4091 23.2726 21.3785 23.3532 21.3292C23.4338 21.2799 23.5023 21.213 23.5535 21.1336C23.6048 21.0542 23.6374 20.9643 23.6492 20.8705C23.6609 20.7767 23.6513 20.6815 23.6212 20.5919L23.6052 20.5706Z" fill="#82AEE3"/>
<path d="M15.9999 14.9333C15.8778 14.9319 15.7611 14.8824 15.6753 14.7955C15.5894 14.7086 15.5413 14.5914 15.5413 14.4693V12.4853C15.5413 12.3636 15.5896 12.247 15.6756 12.161C15.7616 12.0749 15.8783 12.0266 15.9999 12.0266C16.1216 12.0266 16.2382 12.0749 16.3243 12.161C16.4103 12.247 16.4586 12.3636 16.4586 12.4853V14.4426C16.463 14.5055 16.4544 14.5686 16.4333 14.628C16.4122 14.6874 16.3791 14.7418 16.3361 14.7878C16.2931 14.8339 16.241 14.8705 16.1832 14.8956C16.1253 14.9206 16.0629 14.9334 15.9999 14.9333Z" fill="white"/>
<path d="M23.4667 14.4C23.3558 14.3993 23.2488 14.3585 23.1657 14.285C23.0826 14.2116 23.0289 14.1105 23.0146 14.0005C23.0003 13.8905 23.0263 13.7791 23.0878 13.6868C23.1494 13.5945 23.2423 13.5277 23.3494 13.4986L24.2934 13.2426C24.3539 13.2131 24.4202 13.1973 24.4875 13.1963C24.5548 13.1954 24.6216 13.2092 24.683 13.2369C24.7443 13.2646 24.7989 13.3055 24.8426 13.3567C24.8864 13.4078 24.9184 13.468 24.9364 13.5329C24.9543 13.5978 24.9577 13.6659 24.9463 13.7322C24.935 13.7986 24.9092 13.8617 24.8707 13.917C24.8322 13.9722 24.7821 14.0184 24.7238 14.0521C24.6655 14.0858 24.6004 14.1062 24.5334 14.1119L23.5894 14.3626C23.5503 14.3804 23.509 14.393 23.4667 14.4Z" fill="#FFF3BE"/>
<path d="M22.5227 12.6027C22.4622 12.6042 22.402 12.5931 22.346 12.5702C22.29 12.5472 22.2394 12.5129 22.1974 12.4694C22.1545 12.4268 22.1204 12.3761 22.0972 12.3202C22.074 12.2644 22.062 12.2045 22.062 12.144C22.062 12.0836 22.074 12.0237 22.0972 11.9679C22.1204 11.912 22.1545 11.8613 22.1974 11.8187L22.8907 11.1254C22.9329 11.0827 22.9831 11.0487 23.0385 11.0256C23.0939 11.0024 23.1533 10.9905 23.2134 10.9905C23.2734 10.9905 23.3328 11.0024 23.3882 11.0256C23.4436 11.0487 23.4939 11.0827 23.536 11.1254C23.5789 11.168 23.613 11.2187 23.6362 11.2745C23.6594 11.3304 23.6714 11.3902 23.6714 11.4507C23.6714 11.5112 23.6594 11.5711 23.6362 11.6269C23.613 11.6827 23.5789 11.7334 23.536 11.776L22.8427 12.4694C22.8013 12.5122 22.7515 12.5462 22.6965 12.5691C22.6414 12.592 22.5823 12.6035 22.5227 12.6027Z" fill="#FFF3BE"/>
<path d="M24.4801 16.6401C24.4411 16.6453 24.4017 16.6453 24.3627 16.6401L23.4134 16.3735C23.2932 16.3416 23.1905 16.2633 23.128 16.1558C23.0655 16.0483 23.0482 15.9204 23.0801 15.8001C23.1119 15.6799 23.1902 15.5772 23.2977 15.5147C23.4052 15.4522 23.5332 15.435 23.6534 15.4668L24.5974 15.7228C24.7045 15.7518 24.7974 15.8187 24.8589 15.9109C24.9205 16.0032 24.9465 16.1147 24.9322 16.2247C24.9179 16.3347 24.8642 16.4357 24.781 16.5092C24.6979 16.5826 24.591 16.6235 24.4801 16.6241V16.6401Z" fill="#FFF3BE"/>
<path d="M8.56539 14.4001C8.52645 14.4053 8.487 14.4053 8.44806 14.4001L7.49872 14.1495C7.38201 14.1159 7.28312 14.0378 7.22329 13.9321C7.16346 13.8264 7.14746 13.7015 7.17872 13.5841C7.21007 13.4725 7.2825 13.377 7.38144 13.3166C7.48038 13.2563 7.5985 13.2356 7.71206 13.2588L8.65606 13.5148C8.75226 13.5496 8.83407 13.6155 8.88849 13.7021C8.9429 13.7888 8.9668 13.8911 8.95638 13.9929C8.94596 14.0946 8.90182 14.19 8.83097 14.2638C8.76013 14.3376 8.66665 14.3856 8.56539 14.4001Z" fill="#FFF3BE"/>
<path d="M9.50397 12.6027C9.4436 12.6032 9.38372 12.5917 9.32785 12.5688C9.27198 12.5459 9.22125 12.5121 9.17864 12.4693L8.4853 11.776C8.40122 11.6886 8.35425 11.572 8.35425 11.4507C8.35425 11.3294 8.40122 11.2128 8.4853 11.1253C8.52793 11.0824 8.57862 11.0484 8.63445 11.0252C8.69029 11.0019 8.75016 10.99 8.81064 10.99C8.87111 10.99 8.93099 11.0019 8.98682 11.0252C9.04265 11.0484 9.09334 11.0824 9.13597 11.1253L9.8293 11.8187C9.91339 11.9061 9.96036 12.0227 9.96036 12.144C9.96036 12.2653 9.91339 12.3819 9.8293 12.4693C9.78669 12.5121 9.73596 12.5459 9.68009 12.5688C9.62422 12.5917 9.56434 12.6032 9.50397 12.6027Z" fill="#FFF3BE"/>
<path d="M7.54139 16.6401C7.43047 16.6395 7.32355 16.5986 7.24042 16.5252C7.1573 16.4517 7.10361 16.3507 7.08929 16.2407C7.07497 16.1307 7.101 16.0192 7.16255 15.9269C7.2241 15.8347 7.317 15.7678 7.42406 15.7388L8.37339 15.4668C8.49079 15.4359 8.61565 15.4527 8.72062 15.5137C8.82559 15.5747 8.90211 15.6748 8.93339 15.7921C8.96445 15.9102 8.94772 16.0358 8.88682 16.1416C8.82592 16.2474 8.72576 16.325 8.60806 16.3575L7.66406 16.6081C7.62333 16.6133 7.58212 16.6133 7.54139 16.6081V16.6401Z" fill="#FFF3BE"/>
<path d="M16.0107 16.8746C16.264 16.8746 16.4693 16.6693 16.4693 16.4159C16.4693 16.1626 16.264 15.9573 16.0107 15.9573C15.7574 15.9573 15.552 16.1626 15.552 16.4159C15.552 16.6693 15.7574 16.8746 16.0107 16.8746Z" fill="white"/>
</g>
<defs>
<clipPath id="clip0_495_4042">
<rect width="32" height="32" fill="white"/>
</clipPath>
</defs>
</svg>
