<svg width="393" height="396" viewBox="0 0 393 396" fill="none" xmlns="http://www.w3.org/2000/svg">
<path d="M168.921 287.926L338.504 286.197L337.472 185.007L167.889 186.736L168.921 287.926Z" fill="#D2D9DC"/>
<path d="M332.798 189.8L333.698 281.5L173.598 283.1L172.698 191.4L332.798 189.8ZM337.498 185L167.898 186.7L168.898 287.9L338.498 286.2L337.498 185Z" fill="#002548"/>
<path d="M236.16 152.762L243.27 168.643L251.575 164.924L244.465 149.043L236.16 152.762Z" fill="#839299"/>
<path d="M244.258 166.863L251 181.923L256.202 179.594L249.46 164.534L244.258 166.863Z" fill="#839299"/>
<path d="M227.83 138.376L237.637 160.281L249.137 155.133L239.33 133.228L227.83 138.376Z" fill="#002548"/>
<path d="M259.497 157.194L257.004 151.627L230.444 163.52L232.937 169.088L259.497 157.194Z" fill="#002548"/>
<path d="M232.945 119.487L221.992 124.391L228.652 139.268L239.605 134.364L232.945 119.487Z" fill="#0054A6"/>
<path d="M240.948 137.269L229.996 142.172L236.656 157.049L247.609 152.146L240.948 137.269Z" fill="#002548"/>
<path d="M242.311 130.576L224.148 138.707L227.376 145.917L245.539 137.786L242.311 130.576Z" fill="#002548"/>
<path d="M243.788 134.002L225.625 142.133L228.853 149.343L247.016 141.212L243.788 134.002Z" fill="#D2D9DC"/>
<path d="M247.743 132.041L221.457 143.809L223.214 147.733L249.5 135.966L247.743 132.041Z" fill="#002548"/>
<path d="M120.303 209.8L109.003 153.2C107.303 144.6 112.803 136.2 121.503 134.4C130.103 132.7 138.503 138.2 140.303 146.9L151.603 203.6C153.303 212.2 147.803 220.6 139.103 222.4C130.503 224.1 122.103 218.5 120.303 209.8Z" fill="#0054A6"/>
<path d="M115.001 144.1C115.001 144.1 88.7014 183.1 115.001 216" stroke="#002548" stroke-width="1.2017" stroke-miterlimit="10"/>
<path d="M149.199 226.9L104.199 271.9C97.199 279 85.699 279.1 78.599 272.1C71.499 265.1 71.399 253.6 78.399 246.5L123.399 201.5C130.399 194.4 141.899 194.3 148.999 201.3C156.099 208.3 156.299 219.8 149.199 226.9Z" fill="#002548"/>
<path d="M139.2 227.4C131.8 228.8 124.6 224 123.2 216.6C121.8 209.2 126.6 202 134 200.6C141.4 199.2 148.6 204 150 211.4C151.4 218.8 146.6 226 139.2 227.4Z" fill="#002548"/>
<path d="M138.101 221.8C133.801 222.6 129.701 219.8 128.801 215.6C128.001 211.3 130.801 207.2 135.001 206.3C139.301 205.5 143.401 208.3 144.301 212.5C145.201 216.8 142.401 221 138.101 221.8Z" fill="#D2D9DC"/>
<path d="M135.1 205.8C134.1 206 133 205.3 132.8 204.3C132.6 203.3 133.3 202.2 134.3 202C135.3 201.8 136.4 202.5 136.6 203.5C136.8 204.6 136.1 205.6 135.1 205.8Z" fill="#D2D9DC"/>
<path d="M141.3 207.1C140.4 206.5 140.2 205.3 140.8 204.4C141.4 203.5 142.6 203.3 143.5 203.9C144.4 204.5 144.6 205.7 144 206.6C143.4 207.5 142.2 207.7 141.3 207.1Z" fill="#D2D9DC"/>
<path d="M144.8 212.5C144.6 211.5 145.3 210.4 146.3 210.2C147.3 210 148.4 210.7 148.6 211.7C148.8 212.7 148.1 213.8 147.1 214C146 214.3 145 213.6 144.8 212.5Z" fill="#D2D9DC"/>
<path d="M143.499 218.8C144.099 217.9 145.299 217.7 146.199 218.3C147.099 218.9 147.299 220.1 146.699 221C146.099 221.9 144.899 222.1 143.999 221.5C143.099 220.9 142.899 219.7 143.499 218.8Z" fill="#D2D9DC"/>
<path d="M138.101 222.3C139.101 222.1 140.201 222.8 140.401 223.8C140.601 224.8 139.901 225.9 138.901 226.1C137.901 226.3 136.801 225.6 136.601 224.6C136.301 223.5 137.001 222.5 138.101 222.3Z" fill="#D2D9DC"/>
<path d="M131.801 221C132.701 221.6 132.901 222.8 132.301 223.7C131.701 224.6 130.501 224.8 129.601 224.2C128.701 223.6 128.501 222.4 129.101 221.5C129.701 220.6 130.901 220.4 131.801 221Z" fill="#D2D9DC"/>
<path d="M128.299 215.6C128.499 216.6 127.799 217.7 126.799 217.9C125.799 218.1 124.699 217.4 124.499 216.4C124.299 215.4 124.999 214.3 125.999 214.1C127.099 213.8 128.099 214.5 128.299 215.6Z" fill="#D2D9DC"/>
<path d="M129.699 209.3C129.099 210.2 127.899 210.4 126.999 209.8C126.099 209.2 125.899 208 126.499 207.1C127.099 206.2 128.299 206 129.199 206.6C129.999 207.2 130.299 208.4 129.699 209.3Z" fill="#D2D9DC"/>
<path d="M206.986 115.921L176.281 125.947L179.323 135.263L210.028 125.237L206.986 115.921Z" fill="#D2D9DC"/>
<path d="M218.498 123.5L209.198 126.5L205.398 115L214.798 111.9L218.498 123.5Z" fill="#002548"/>
<path d="M130.102 132.7C130.102 132.7 162.302 90.6999 219.202 106.3" stroke="#002548" stroke-width="1.2017" stroke-miterlimit="10"/>
<path d="M181.45 121.656L135.441 136.68L139.973 150.558L185.982 135.535L181.45 121.656Z" fill="#0054A6"/>
<path d="M181.522 120.459L178.766 121.359L183.98 137.329L186.737 136.429L181.522 120.459Z" fill="#002548"/>
<path d="M159.999 152.7L129.499 162.5C121.099 165.3 112.099 160.7 109.399 152.3C106.599 143.9 111.199 134.9 119.599 132.2L150.099 122.4C158.499 119.6 167.499 124.2 170.199 132.6C172.899 140.9 168.299 149.9 159.999 152.7Z" fill="#002548"/>
<path d="M122.099 154.2C118.599 152.9 116.799 149 118.099 145.5C119.399 142 123.299 140.2 126.799 141.5C130.299 142.8 132.099 146.7 130.799 150.2C129.599 153.7 125.599 155.5 122.099 154.2Z" fill="#002548"/>
<path d="M123.098 151.5C121.098 150.7 119.998 148.5 120.798 146.4C121.598 144.4 123.798 143.3 125.898 144.1C127.898 144.9 128.998 147.1 128.198 149.2C127.398 151.2 125.198 152.3 123.098 151.5Z" fill="#D2D9DC"/>
<path d="M125.999 143.9C125.499 143.7 125.199 143.2 125.399 142.7C125.599 142.2 126.099 141.9 126.599 142.1C127.099 142.3 127.399 142.8 127.199 143.3C126.999 143.9 126.499 144.1 125.999 143.9Z" fill="#D2D9DC"/>
<path d="M128.295 146.099C128.095 145.599 128.295 144.999 128.795 144.799C129.295 144.599 129.895 144.799 130.095 145.299C130.295 145.799 130.095 146.399 129.595 146.599C129.095 146.799 128.495 146.599 128.295 146.099Z" fill="#D2D9DC"/>
<path d="M128.399 149.299C128.599 148.799 129.099 148.499 129.599 148.699C130.099 148.899 130.399 149.399 130.199 149.899C129.999 150.399 129.499 150.699 128.999 150.499C128.499 150.399 128.199 149.799 128.399 149.299Z" fill="#D2D9DC"/>
<path d="M126.198 151.7C126.698 151.5 127.298 151.7 127.498 152.2C127.698 152.7 127.498 153.3 126.998 153.5C126.498 153.7 125.898 153.5 125.698 153C125.498 152.4 125.698 151.9 126.198 151.7Z" fill="#D2D9DC"/>
<path d="M122.997 151.7C123.497 151.9 123.797 152.4 123.597 152.9C123.397 153.4 122.897 153.7 122.397 153.5C121.897 153.3 121.597 152.8 121.797 152.3C121.897 151.8 122.497 151.6 122.997 151.7Z" fill="#D2D9DC"/>
<path d="M120.697 149.5C120.897 150 120.697 150.6 120.197 150.8C119.697 151 119.097 150.8 118.897 150.3C118.697 149.8 118.897 149.2 119.397 149C119.897 148.8 120.497 149.1 120.697 149.5Z" fill="#D2D9DC"/>
<path d="M120.597 146.3C120.397 146.8 119.897 147.1 119.397 146.9C118.897 146.7 118.597 146.2 118.797 145.7C118.997 145.2 119.497 144.9 119.997 145.1C120.497 145.3 120.797 145.8 120.597 146.3Z" fill="#D2D9DC"/>
<path d="M122.799 144C122.299 144.2 121.699 144 121.499 143.5C121.299 143 121.499 142.4 121.999 142.2C122.499 142 123.099 142.2 123.299 142.7C123.499 143.2 123.299 143.8 122.799 144Z" fill="#D2D9DC"/>
<path d="M236.299 117.8C233.899 124.3 226.699 127.6 220.199 125.2C213.699 122.8 210.399 115.6 212.799 109.1C215.199 102.6 222.399 99.3 228.899 101.7C235.399 104.1 238.699 111.3 236.299 117.8Z" fill="#002548"/>
<path d="M222.2 119.8C218.7 118.5 216.9 114.6 218.2 111.1C219.5 107.6 223.4 105.8 226.9 107.1C230.4 108.4 232.2 112.3 230.9 115.8C229.6 119.3 225.7 121.1 222.2 119.8Z" fill="#002548"/>
<path d="M223.2 117.099C221.2 116.299 220.1 114.099 220.9 111.999C221.7 109.999 223.9 108.899 226 109.699C228 110.499 229.1 112.699 228.3 114.799C227.5 116.899 225.2 117.899 223.2 117.099Z" fill="#D2D9DC"/>
<path d="M226.002 109.599C225.502 109.399 225.202 108.899 225.402 108.399C225.602 107.899 226.103 107.599 226.603 107.799C227.103 107.999 227.402 108.499 227.202 108.999C227.102 109.499 226.502 109.699 226.002 109.599Z" fill="#D2D9DC"/>
<path d="M228.299 111.799C228.099 111.299 228.299 110.699 228.799 110.499C229.299 110.299 229.899 110.499 230.099 110.999C230.299 111.499 230.099 112.099 229.599 112.299C229.099 112.399 228.599 112.199 228.299 111.799Z" fill="#D2D9DC"/>
<path d="M228.402 115C228.602 114.5 229.103 114.2 229.603 114.4C230.103 114.6 230.402 115.1 230.202 115.6C230.002 116.1 229.502 116.4 229.002 116.2C228.502 116 228.202 115.5 228.402 115Z" fill="#D2D9DC"/>
<path d="M226.202 117.299C226.702 117.099 227.302 117.299 227.502 117.799C227.702 118.299 227.502 118.899 227.002 119.099C226.502 119.299 225.902 119.099 225.702 118.599C225.502 118.099 225.702 117.499 226.202 117.299Z" fill="#D2D9DC"/>
<path d="M223.001 117.399C223.501 117.599 223.801 118.099 223.601 118.599C223.401 119.099 222.901 119.399 222.401 119.199C221.901 118.999 221.601 118.499 221.801 117.999C222.001 117.399 222.501 117.199 223.001 117.399Z" fill="#D2D9DC"/>
<path d="M220.701 115.2C220.901 115.7 220.701 116.3 220.201 116.5C219.701 116.7 219.101 116.5 218.901 116C218.701 115.5 218.901 114.9 219.401 114.7C219.901 114.5 220.501 114.7 220.701 115.2Z" fill="#D2D9DC"/>
<path d="M220.601 111.999C220.401 112.499 219.901 112.799 219.401 112.599C218.901 112.399 218.601 111.899 218.801 111.399C219.001 110.899 219.501 110.599 220.001 110.799C220.501 110.899 220.801 111.499 220.601 111.999Z" fill="#D2D9DC"/>
<path d="M222.802 109.599C222.302 109.799 221.702 109.599 221.502 109.099C221.302 108.599 221.502 107.999 222.002 107.799C222.502 107.599 223.102 107.799 223.302 108.299C223.502 108.799 223.302 109.399 222.802 109.599Z" fill="#D2D9DC"/>
<path d="M206.722 112.161L203.965 113.062L209.18 129.032L211.936 128.131L206.722 112.161Z" fill="#002548"/>
<path d="M96.0992 281.9H73.1992V264.3C73.1992 258 78.2992 252.9 84.5992 252.9C90.8992 252.9 95.9992 258 95.9992 264.3V281.9H96.0992Z" fill="#0054A6"/>
<path d="M124.9 284.4H70V277.4C70 276.4 70.8 275.6 71.8 275.6H123C124 275.6 124.8 276.4 124.8 277.4V284.4H124.9Z" fill="#002548"/>
<path d="M140.4 281.3H54.5V295H140.4V281.3Z" fill="#0054A6"/>
<path d="M244.4 262.8C245.1 262.2 245.9 261.5 246.6 260.8C247.3 260.1 247.9 259.4 248.6 258.6C246.1 252.7 247.6 250.1 253.9 249.4C254.5 247.7 255 245.9 255.3 244C250.1 240.3 250.1 237.4 255.3 233.7C255 231.9 254.5 230.1 253.9 228.3C247.6 227.6 246.1 224.9 248.6 219.1C248 218.4 247.3 217.6 246.6 216.9C245.9 216.2 245.2 215.6 244.4 214.9C238.5 217.4 235.9 215.9 235.2 209.6C233.5 209 231.7 208.5 229.8 208.2C226.1 213.4 223.2 213.4 219.5 208.2C217.7 208.5 215.9 209 214.1 209.6C213.4 215.9 210.7 217.4 204.9 214.9C204.2 215.5 203.4 216.2 202.7 216.9C202 217.6 201.4 218.3 200.7 219.1C203.2 225 201.8 227.6 195.4 228.3C194.8 230 194.3 231.8 194 233.7C199.2 237.4 199.2 240.3 194 244C194.3 245.8 194.8 247.6 195.4 249.3C201.7 250 203.2 252.7 200.7 258.5C201.3 259.2 202 260 202.7 260.7C203.4 261.4 204.1 262 204.9 262.7C210.8 260.2 213.4 261.7 214.1 268C215.8 268.6 217.6 269.1 219.4 269.4C223.1 264.2 226.1 264.2 229.7 269.4C231.5 269.1 233.3 268.6 235.1 268C235.8 261.7 238.5 260.2 244.4 262.8ZM214.4 249C208.8 243.4 208.8 234.3 214.4 228.7C220 223.1 229.1 223.1 234.7 228.7C240.3 234.3 240.3 243.4 234.7 249C229.1 254.6 220.1 254.6 214.4 249Z" fill="#839299"/>
<path d="M300.699 256.2C301.199 255.7 301.799 255.3 302.299 254.8C302.799 254.3 303.299 253.8 303.699 253.2C301.899 248.9 302.899 247 307.499 246.5C307.999 245.2 308.299 243.9 308.499 242.6C304.799 239.9 304.799 237.8 308.499 235.1C308.299 233.8 307.899 232.5 307.499 231.2C302.899 230.7 301.799 228.8 303.699 224.5C303.299 224 302.799 223.4 302.299 222.9C301.799 222.4 301.299 221.9 300.699 221.5C296.399 223.3 294.499 222.3 293.999 217.7C292.699 217.2 291.399 216.9 290.099 216.7C287.399 220.4 285.299 220.4 282.599 216.7C281.299 216.9 279.999 217.3 278.699 217.7C278.199 222.3 276.299 223.4 271.999 221.5C271.499 221.9 270.899 222.4 270.399 222.9C269.899 223.4 269.399 223.9 268.999 224.5C270.799 228.8 269.799 230.7 265.199 231.2C264.699 232.5 264.399 233.8 264.199 235.1C267.899 237.8 267.899 239.9 264.199 242.6C264.399 243.9 264.799 245.2 265.199 246.5C269.799 247 270.899 248.9 268.999 253.2C269.399 253.7 269.899 254.3 270.399 254.8C270.899 255.3 271.399 255.8 271.999 256.2C276.299 254.4 278.199 255.4 278.699 260C279.999 260.5 281.299 260.8 282.599 261C285.299 257.3 287.399 257.3 290.099 261C291.399 260.8 292.699 260.4 293.999 260C294.499 255.4 296.499 254.3 300.699 256.2ZM279.099 246.2C274.999 242.1 274.999 235.6 279.099 231.5C283.199 227.4 289.699 227.4 293.799 231.5C297.899 235.6 297.899 242.1 293.799 246.2C289.699 250.3 283.099 250.3 279.099 246.2Z" fill="#839299"/>
</svg>
