<svg width="188" height="30" viewBox="0 0 188 30" fill="none" xmlns="http://www.w3.org/2000/svg">
<mask id="mask0_15449_11121" style="mask-type:alpha" maskUnits="userSpaceOnUse" x="0" y="0" width="188" height="30">
<rect x="3.8147e-06" width="187.5" height="30" fill="#D9D9D9"/>
</mask>
<g mask="url(#mask0_15449_11121)">
<path d="M-0.00341797 8.60018L-0.00341797 9.70146L2.56821 9.70146C4.81411 9.70146 5.24271 9.75229 5.82562 10.0403C6.97428 10.6164 7.3686 11.9548 6.68283 13.0392C6.1685 13.8694 5.75704 14.0049 3.494 14.1066L1.40241 14.1913L3.99118 17.8679L6.56282 21.5614H8.19152C9.46019 21.5614 9.76879 21.5106 9.64878 21.3411C8.19152 19.5283 5.99706 16.4108 6.11707 16.3091C6.18564 16.2414 6.56282 16.0889 6.92285 15.9703C7.84863 15.6823 8.96301 14.5302 9.30589 13.5136C10.0945 11.2263 9.25446 8.80349 7.33431 7.82081C6.76855 7.53278 6.30565 7.4989 3.3397 7.4989L-0.00341797 7.4989L-0.00341797 8.60018Z" fill="#B02020"/>
<path d="M15.9122 8.09781C13.802 9.12054 12.4251 10.8933 11.9423 13.2626C11.4058 15.8705 12.7112 18.8535 15.0538 20.3364C16.5917 21.308 17.5395 21.5637 19.5423 21.5637C21.1875 21.5637 21.4379 21.5126 22.5466 21.0183C24.1381 20.3024 25.5151 19.041 26.2662 17.5921C26.8563 16.5012 26.8742 16.3819 26.8742 14.4899C26.8742 12.5978 26.8563 12.4785 26.284 11.3705C25.533 9.93872 24.2812 8.72849 22.8327 8.02963C21.7598 7.51826 21.6346 7.50122 19.4529 7.50122C17.1997 7.50122 17.1639 7.50122 15.9122 8.09781ZM21.3485 10.041C23.2082 10.8421 24.2812 12.4614 24.2812 14.4387C24.2633 19.4671 17.3607 21.1035 15.0717 16.6376C13.802 14.166 14.7498 11.4217 17.307 10.1433C18.3442 9.61485 20.2576 9.56372 21.3485 10.041Z" fill="#B02020"/>
<path d="M29.0197 14.5302L29.0197 21.5614H30.3909H31.7621L31.7963 16.4108L31.8478 11.2602L34.8472 16.4108L37.8295 21.5614H39.3378L40.8461 21.5614V14.5302V7.4989H38.2751L35.7042 7.4989V8.60018V9.70146H36.9896L38.2751 9.70146V13.683C38.2751 15.8686 38.2066 17.6646 38.138 17.6646C38.0523 17.6646 37.898 17.4613 37.7781 17.1902C37.6581 16.936 36.3555 14.6488 34.8986 12.1073L32.242 7.4989L30.6308 7.4989H29.0197V14.5302Z" fill="#B02020"/>
<path d="M43.0005 14.5323V21.5636L46.7634 21.5636H50.5263V20.3776V19.1916H48.0177L45.5091 19.1916V17.4126V15.6336L46.9307 15.6336L48.3522 15.6336V14.4476V13.2616L46.9307 13.2616H45.5091V11.4826V9.70366H48.0177L50.5263 9.70366V8.60238V7.5011L46.7634 7.5011L43.0005 7.5011L43.0005 14.5323Z" fill="#B02020"/>
<path d="M52.6918 7.70587C52.7629 7.82447 53.7584 9.21378 54.8961 10.8064C56.0516 12.3821 57.7938 14.8218 58.7893 16.2111L60.5848 18.7526V20.1588V21.5651H62.0069L63.4291 21.5651V14.5338V7.50256H62.0069L60.5848 7.50256V10.8233V14.1441L58.7537 11.6366C57.7404 10.2473 56.6383 8.75633 56.3183 8.29887L55.7139 7.50256L54.1317 7.50256C52.9229 7.50256 52.6029 7.55339 52.6918 7.70587Z" fill="#B02020"/>
<path d="M105.74 7.57338C104.247 7.77894 103.228 8.2814 102.043 9.40053C100.621 10.7252 100.005 12.0727 99.8865 14.1511C99.768 16.4579 100.384 18.1023 101.972 19.6326C105.669 23.1955 111.973 21.5967 113.49 16.7091C115.054 11.6845 110.93 6.84252 105.74 7.57338ZM108.631 8.9209C109.84 9.24065 111.309 10.5653 112.02 11.9357C113.205 14.1968 112.636 17.1202 110.717 18.9017C109.627 19.8838 108.418 20.3406 106.83 20.3406C104.46 20.3406 102.659 19.1986 101.593 17.0289C100.503 14.8135 100.929 12.3011 102.683 10.474C104.223 8.85239 106.333 8.30424 108.631 8.9209Z" fill="#031625"/>
<path d="M156.684 7.56207C154.722 7.88218 152.803 9.50563 151.888 11.6321C151.234 13.1184 151.234 15.9537 151.866 17.3942C154.308 22.9505 161.415 22.9505 163.792 17.3942C164.489 15.7479 164.424 13.0726 163.639 11.3806C163.05 10.0773 161.808 8.75107 160.587 8.06511C159.736 7.6078 157.97 7.37915 156.684 7.56207ZM159.911 9.11692C165.231 11.6321 163.617 20.321 157.818 20.3438C152.149 20.3667 150.362 11.9522 155.485 9.27697C156.859 8.54528 158.603 8.47668 159.911 9.11692Z" fill="#031625"/>
<path d="M70.8931 14.5302V21.5614H71.4297H71.9664V14.5302V7.49892H71.4297H70.8931V14.5302Z" fill="#031625"/>
<path d="M74.1121 14.5072V21.5384H74.6954H75.2787V15.748C75.2787 10.8537 75.3254 10.0035 75.6054 10.2792C75.7687 10.4631 76.7953 11.9107 77.892 13.4962C83.6319 21.7912 83.3286 21.4235 84.1219 21.4925L84.8452 21.5614V14.5531V7.5219H84.2619H83.6786L83.6319 13.4732L83.5619 19.4245L82.3486 17.6781C75.7687 8.11933 75.3954 7.63679 74.742 7.56786L74.1121 7.49892V14.5072Z" fill="#031625"/>
<path d="M86.9908 14.5082V21.5394H87.5741H88.1574V15.749C88.1574 10.8547 88.2041 10.0045 88.4841 10.2802C88.6474 10.464 89.6741 11.9117 90.7707 13.4971C96.5106 21.7922 96.2073 21.4245 97.0006 21.4934L97.7239 21.5624V14.5541V7.52288H97.1406H96.5573L96.5106 13.4742L96.4406 19.4254L95.2273 17.6791C88.6474 8.1203 88.2741 7.63777 87.6208 7.56883L86.9908 7.4999V14.5082Z" fill="#031625"/>
<path d="M115.971 7.7286C115.971 7.86692 116.981 11.0483 118.21 14.7598C119.901 19.9007 120.537 21.5605 120.801 21.5605C121.064 21.5605 121.372 20.9151 121.877 19.3013C122.272 18.0795 123.282 14.9904 124.116 12.4545C124.95 9.94171 125.631 7.77471 125.631 7.68249C125.631 7.59028 125.389 7.49807 125.104 7.49807C124.621 7.49807 124.467 7.82081 123.15 11.9243C122.382 14.3679 121.547 16.973 121.328 17.6876C121.108 18.4253 120.889 19.0247 120.823 19.0247C120.735 19.0247 119.857 16.4197 118.847 13.2614C117.134 7.86692 116.981 7.49807 116.498 7.49807C116.212 7.49807 115.971 7.61333 115.971 7.7286Z" fill="#031625"/>
<path d="M131.542 7.86874C131.096 9.02137 126.706 21.3084 126.706 21.4236C126.706 21.4928 126.965 21.5619 127.27 21.5619C127.88 21.5619 127.903 21.5158 129.406 17.3433L130.063 15.5452L132.199 15.6144L134.335 15.6835L135.368 18.6112C136.33 21.3084 136.447 21.5619 136.987 21.5619C137.715 21.5619 137.762 21.7233 135.626 15.7988C134.687 13.1939 133.654 10.2662 133.326 9.27494C132.809 7.77653 132.621 7.4999 132.199 7.4999C131.917 7.4999 131.612 7.66127 131.542 7.86874ZM133.02 11.9721C133.419 13.1017 133.748 14.116 133.748 14.2312C133.748 14.3234 133.02 14.4157 132.105 14.4157C131.213 14.4157 130.462 14.3926 130.462 14.3465C130.462 14.3004 130.791 13.4013 131.166 12.3179C131.565 11.2575 131.941 10.2432 132.011 10.0587C132.175 9.59768 132.222 9.71294 133.02 11.9721Z" fill="#031625"/>
<path d="M138.577 8.12136C138.646 8.7438 138.691 8.76685 140.121 8.7899L141.596 8.81296L141.664 15.1987L141.71 21.5614L142.277 21.5614H142.845L142.89 15.1987L142.958 8.83601L144.502 8.7899C145.342 8.7899 146.023 8.69769 146.023 8.58242C146.023 8.49021 146.023 8.21357 146.023 7.95999C146.023 7.52197 145.864 7.49892 142.255 7.49892L138.509 7.49892L138.577 8.12136Z" fill="#031625"/>
<path d="M148.17 14.5302V21.5614H148.707H149.243V14.5302V7.49892H148.707H148.17V14.5302Z" fill="#031625"/>
<path d="M166.417 14.5072V21.5384H167.001H167.584L167.631 15.771L167.701 10.0035L169.194 12.1405C170.991 14.737 173.931 18.9649 174.934 20.3895C175.494 21.1938 175.844 21.4465 176.404 21.4925L177.151 21.5614V14.5531V7.5219H176.567H175.984L175.937 13.5421L175.867 19.5393L174.071 16.9199C168.237 8.39506 167.654 7.63679 167.024 7.56786L166.417 7.49892V14.5072Z" fill="#031625"/>
<path d="M181.813 8.27991C180.689 9.47156 180.559 10.9611 181.489 12.359C181.705 12.7028 182.678 13.4132 183.629 13.9402C184.58 14.4673 185.552 15.1777 185.79 15.5673C187.195 17.6298 185.942 20.3339 183.586 20.3339C182.721 20.3339 182.462 20.2193 181.878 19.6235C181.511 19.2339 181.143 18.6152 181.078 18.2485C180.949 17.561 180.689 17.4464 180.17 17.7902C179.803 18.0423 179.998 19.0048 180.603 19.8985C181.878 21.8005 184.493 22.1214 186.071 20.6089C186.784 19.8985 187.476 18.4089 187.498 17.5839C187.498 15.7277 186.201 13.8257 184.299 12.9778C182.548 12.1757 181.705 11.007 182.073 9.9528C182.591 8.50907 183.91 8.21116 184.861 9.28823C185.488 9.97572 186.201 9.99863 186.201 9.33406C186.201 9.1049 185.855 8.60074 185.444 8.21116C184.796 7.61533 184.493 7.50075 183.607 7.50075C182.678 7.50075 182.44 7.61533 181.813 8.27991Z" fill="#031625"/>
</g>
</svg>
