<svg width="357" height="48" viewBox="0 0 357 48" fill="none" xmlns="http://www.w3.org/2000/svg">
<mask id="mask0_4757_936" style="mask-type:alpha" maskUnits="userSpaceOnUse" x="0" y="14" width="258" height="20">
<rect y="14" width="258" height="20" fill="#D9D9D9"/>
</mask>
<g mask="url(#mask0_4757_936)">
<path d="M0 15.7766V17.2844H3.53857C6.62891 17.2844 7.21868 17.354 8.02075 17.7484C9.60131 18.5371 10.1439 20.3697 9.20027 21.8543C8.49256 22.991 7.92639 23.1765 4.81245 23.3157L1.93442 23.4317L5.49657 28.4655L9.03514 33.5225H11.2762C13.0219 33.5225 13.4466 33.4529 13.2814 33.221C11.2762 30.7389 8.25665 26.4706 8.42179 26.3314C8.51615 26.2386 9.03514 26.0298 9.53054 25.8674C10.8044 25.4731 12.3378 23.8957 12.8096 22.5038C13.8948 19.3722 12.7388 16.055 10.0967 14.7095C9.31822 14.3152 8.68128 14.2688 4.60014 14.2688H0V15.7766Z" fill="#B02020"/>
<path d="M21.9024 15.0856C18.9988 16.4859 17.1041 18.913 16.4398 22.157C15.7016 25.7277 17.4978 29.8118 20.7213 31.8422C22.8374 33.1725 24.1415 33.5225 26.8975 33.5225C29.1612 33.5225 29.5057 33.4525 31.0313 32.7757C33.2213 31.7955 35.116 30.0685 36.1494 28.0848C36.9615 26.5912 36.9861 26.4278 36.9861 23.8373C36.9861 21.2468 36.9615 21.0834 36.174 19.5665C35.1406 17.6061 33.4181 15.9491 31.425 14.9923C29.9486 14.2921 29.7764 14.2688 26.7744 14.2688C23.674 14.2688 23.6248 14.2688 21.9024 15.0856ZM29.3827 17.7461C31.9418 18.843 33.4181 21.0601 33.4181 23.7673C33.3935 30.652 23.8955 32.8924 20.7459 26.7779C18.9988 23.3939 20.3029 19.6365 23.8217 17.8862C25.2488 17.1627 27.8817 17.0927 29.3827 17.7461Z" fill="#B02020"/>
<path d="M39.9382 23.8957V33.5225H41.825H43.7117L43.7589 26.4706L43.8296 19.4186L47.9568 26.4706L52.0605 33.5225H54.1359H56.2113V23.8957V14.2688H52.6737H49.136V15.7766V17.2844H50.9049H52.6737V22.7358C52.6737 25.7282 52.5793 28.1872 52.485 28.1872C52.3671 28.1872 52.1548 27.9088 51.9897 27.5376C51.8246 27.1897 50.0322 24.058 48.0276 20.5784L44.372 14.2688H42.1551H39.9382V23.8957Z" fill="#B02020"/>
<path d="M59.1755 23.8957V33.5225H64.3533H69.5311V31.8987V30.2749H66.0793H62.6274V27.8392V25.4035H64.5834H66.5395V23.7797V22.1559H64.5834H62.6274V19.7201V17.2844H66.0793H69.5311V15.7766V14.2688H64.3533H59.1755V23.8957Z" fill="#B02020"/>
<path d="M72.5092 14.5472C72.607 14.7095 73.9768 16.6117 75.5423 18.7923C77.1323 20.9496 79.5295 24.29 80.8993 26.1922L83.3699 29.6718V31.5971V33.5225H85.3268H87.2837V23.8957V14.2688H85.3268H83.3699V18.8155V23.3621L80.8504 19.9289C79.4561 18.0267 77.9395 15.9854 77.4992 15.3591L76.6675 14.2688H74.4905C72.8271 14.2688 72.3868 14.3384 72.5092 14.5472Z" fill="#B02020"/>
<path d="M145.5 14.3696C143.446 14.651 142.044 15.3389 140.413 16.8712C138.456 18.6849 137.609 20.5299 137.446 23.3755C137.283 26.5338 138.13 28.7853 140.315 30.8804C145.402 35.7586 154.076 33.5697 156.163 26.8778C158.316 19.9983 152.642 13.3689 145.5 14.3696ZM149.479 16.2145C151.142 16.6523 153.163 18.466 154.142 20.3422C155.772 23.438 154.99 27.4407 152.348 29.8798C150.848 31.2244 149.185 31.8498 147 31.8498C143.739 31.8498 141.261 30.2863 139.793 27.3156C138.293 24.2823 138.88 20.8426 141.294 18.3409C143.413 16.1207 146.315 15.3702 149.479 16.2145Z" fill="#031625"/>
<path d="M215.598 14.3554C212.899 14.7937 210.259 17.0164 208.999 19.9279C208.099 21.9628 208.099 25.8448 208.969 27.8171C212.329 35.4245 222.108 35.4245 225.378 27.8171C226.338 25.563 226.248 21.9002 225.168 19.5835C224.358 17.7991 222.648 15.9833 220.968 15.0441C219.798 14.418 217.368 14.105 215.598 14.3554ZM220.038 16.4842C227.358 19.9279 225.138 31.8243 217.158 31.8556C209.359 31.8869 206.899 20.3662 213.949 16.7034C215.838 15.7016 218.238 15.6077 220.038 16.4842Z" fill="#031625"/>
<path d="M97.5527 23.8958V33.5226H98.2912H99.0296V23.8958V14.2689H98.2912H97.5527V23.8958Z" fill="#031625"/>
<path d="M101.981 23.8643V33.4912H102.784H103.587V25.5632C103.587 18.8621 103.651 17.6981 104.036 18.0756C104.261 18.3273 105.673 20.3093 107.182 22.4801C115.08 33.8372 114.663 33.3339 115.755 33.4283L116.75 33.5226V23.9273V14.3004H115.947H115.145L115.08 22.4486L114.984 30.5968L113.315 28.2059C104.261 15.1184 103.747 14.4577 102.848 14.3633L101.981 14.2689V23.8643Z" fill="#031625"/>
<path d="M119.704 23.8643V33.4912H120.507H121.309V25.5632C121.309 18.8621 121.374 17.6981 121.759 18.0756C121.984 18.3273 123.396 20.3093 124.905 22.4801C132.803 33.8372 132.386 33.3339 133.478 33.4283L134.473 33.5226V23.9273V14.3004H133.67H132.868L132.803 22.4486L132.707 30.5968L131.038 28.2059C121.984 15.1184 121.47 14.4577 120.571 14.3633L119.704 14.2689V23.8643Z" fill="#031625"/>
<path d="M159.58 14.5846C159.58 14.774 160.97 19.1297 162.661 24.2114C164.987 31.2501 165.864 33.5226 166.226 33.5226C166.589 33.5226 167.011 32.6389 167.706 30.4294C168.25 28.7566 169.64 24.5271 170.788 21.0551C171.936 17.6147 172.872 14.6477 172.872 14.5215C172.872 14.3952 172.54 14.2689 172.147 14.2689C171.482 14.2689 171.271 14.7108 169.458 20.3291C168.401 23.6749 167.253 27.2415 166.951 28.22C166.649 29.23 166.347 30.0507 166.256 30.0507C166.135 30.0507 164.927 26.484 163.537 22.1598C161.181 14.774 160.97 14.2689 160.305 14.2689C159.912 14.2689 159.58 14.4268 159.58 14.5846Z" fill="#031625"/>
<path d="M181.004 14.7739C180.391 16.3521 174.351 33.1749 174.351 33.3327C174.351 33.4274 174.706 33.5221 175.126 33.5221C175.966 33.5221 175.998 33.4589 178.065 27.7461L178.969 25.2842L181.909 25.3789L184.848 25.4736L186.269 29.4821C187.593 33.1749 187.755 33.5221 188.497 33.5221C189.499 33.5221 189.563 33.743 186.624 25.6314C185.332 22.0649 183.911 18.0564 183.459 16.6993C182.748 14.6477 182.49 14.2689 181.909 14.2689C181.521 14.2689 181.101 14.4899 181.004 14.7739ZM183.039 20.3921C183.588 21.9386 184.04 23.3274 184.04 23.4852C184.04 23.6114 183.039 23.7377 181.779 23.7377C180.552 23.7377 179.519 23.7061 179.519 23.643C179.519 23.5799 179.971 22.3489 180.487 20.8655C181.037 19.4136 181.553 18.0249 181.65 17.7724C181.876 17.1411 181.941 17.2989 183.039 20.3921Z" fill="#031625"/>
<path d="M190.684 15.1212C190.778 15.9734 190.84 16.0049 192.808 16.0365L194.838 16.0681L194.932 24.8111L194.994 33.5226H195.775H196.556L196.619 24.8111L196.712 16.0996L198.836 16.0365C199.992 16.0365 200.929 15.9102 200.929 15.7524C200.929 15.6262 200.929 15.2474 200.929 14.9002C200.929 14.3005 200.71 14.2689 195.744 14.2689H190.591L190.684 15.1212Z" fill="#031625"/>
<path d="M203.884 23.8958V33.5226H204.622H205.361V23.8958V14.2689H204.622H203.884V23.8958Z" fill="#031625"/>
<path d="M228.994 23.8643V33.4912H229.797H230.599L230.663 25.5946L230.76 17.6981L232.815 20.6239C235.287 24.1789 239.332 29.9676 240.713 31.9182C241.483 33.0193 241.965 33.3653 242.735 33.4283L243.763 33.5226V23.9273V14.3004H242.96H242.157L242.093 22.543L241.997 30.7541L239.525 27.1677C231.498 15.4959 230.696 14.4577 229.829 14.3633L228.994 14.2689V23.8643Z" fill="#031625"/>
<path d="M250.179 15.3357C248.633 16.9673 248.454 19.0067 249.733 20.9207C250.03 21.3913 251.369 22.3639 252.677 23.0856C253.986 23.8072 255.325 24.7799 255.652 25.3133C257.585 28.1371 255.86 31.8395 252.618 31.8395C251.428 31.8395 251.071 31.6826 250.268 30.8668C249.763 30.3334 249.257 29.4863 249.168 28.9843C248.99 28.043 248.633 27.8861 247.919 28.3568C247.413 28.7019 247.681 30.0197 248.514 31.2434C250.268 33.8476 253.867 34.2868 256.038 32.216C257.02 31.2434 257.972 29.2039 258.001 28.0744C258.001 25.5329 256.217 22.9287 253.599 21.7678C251.19 20.6696 250.03 19.0695 250.536 17.6262C251.25 15.6495 253.064 15.2416 254.373 16.7163C255.235 17.6576 256.217 17.6889 256.217 16.779C256.217 16.4653 255.741 15.775 255.176 15.2416C254.284 14.4258 253.867 14.2689 252.648 14.2689C251.369 14.2689 251.042 14.4258 250.179 15.3357Z" fill="#031625"/>
</g>
</svg>
