<svg width="65" height="65" viewBox="0 0 65 65" fill="none" xmlns="http://www.w3.org/2000/svg">
<path d="M42.0079 32.6861L32.2461 50.2581L38.8053 32.9367L38.9052 32.6709L42.0079 32.6861Z" fill="#FF496C"/>
<path d="M34.3878 33.8506L34.3674 34.0097L32.2465 50.258L30.1238 34.0097L30.1035 33.8506H32.2465H34.3878Z" fill="#FF496C"/>
<path d="M25.685 32.9367L32.246 50.2581L22.4824 32.6861L25.5852 32.6709L25.685 32.9367Z" fill="#FF496C"/>
<path d="M22.3299 32.7626L22.4044 32.915L17.003 31.9941L15.2324 27.6777L20.2378 28.585L20.2784 28.5918L22.3283 32.7626H22.3299Z" fill="#FF496C"/>
<path d="M27.8987 28.6865L30.0095 34.0253L25.7422 32.9149L27.8987 28.6865Z" fill="#FF496C"/>
<path d="M36.5913 28.6865L38.7478 32.9149L34.4805 34.0253L36.5913 28.6865Z" fill="#FF496C"/>
<path d="M49.2579 27.6777L47.4874 31.9941L42.0859 32.915L42.1604 32.7626H42.1621L44.212 28.5918L44.2526 28.585L49.2579 27.6777Z" fill="#FF496C"/>
<path d="M39.7484 18.2813L44.1969 28.2768L36.7168 28.2869V28.2852L37.7087 18.2627H39.7484V18.2813Z" fill="#FF496C"/>
<path d="M27.7734 28.2852L32.2456 18.2627L36.716 28.2852V28.2869H36.5908L32.2456 28.2937L27.8987 28.2869H27.7734V28.2852Z" fill="#FF496C"/>
<path d="M27.775 28.2852V28.2869L20.2949 28.2768L24.7434 18.2813V18.2627H26.7831L27.775 28.2852Z" fill="#FF496C"/>
<path d="M42.0858 32.915L47.4872 31.9941L32.2461 50.2585L42.0079 32.6865L42.1603 32.7626L42.0858 32.915Z" fill="#FD405F"/>
<path d="M38.8053 32.937L32.2461 50.2585L34.3671 34.0102L34.4805 34.0255L38.7478 32.915L38.8053 32.937Z" fill="#FD405F"/>
<path d="M30.1238 34.0102L32.2465 50.2585L25.6855 32.937L25.7431 32.915L30.0104 34.0255L30.1238 34.0102Z" fill="#FD405F"/>
<path d="M22.4832 32.6865L32.2467 50.2585L17.0039 31.9941L22.4053 32.915L22.3309 32.7626L22.4832 32.6865Z" fill="#FD405F"/>
<path d="M27.7742 28.2865H27.8995V28.686L25.743 32.9144L25.6854 32.9364L25.5855 32.6706L22.4828 32.6859L22.3305 32.762H22.3288L20.2789 28.5912L20.2383 28.5844L20.2941 28.2764L27.7742 28.2865Z" fill="#FD405F"/>
<path d="M34.3866 33.851H32.2453H30.1023L30.1227 34.0102L30.0092 34.0254L27.8984 28.6866V28.2871L32.2453 28.2939L36.5905 28.2871V28.6866L34.4797 34.0254L34.3663 34.0102L34.3866 33.851Z" fill="#FD405F"/>
<path d="M44.1971 28.2764L44.253 28.5844L44.2124 28.5912L42.1625 32.762H42.1608L42.0085 32.6859L38.9057 32.6706L38.8059 32.9364L38.7483 32.9144L36.5918 28.686V28.2865H36.7171L44.1971 28.2764Z" fill="#FD405F"/>
<path d="M41.0633 18.2627L49.5031 27.08L49.2577 27.6775L44.2523 28.5848L44.1965 28.2768L39.748 18.2813V18.2627H41.0633Z" fill="#FD405F"/>
<path d="M37.7085 18.2627L36.7165 28.2852L32.2461 18.2627H37.7085Z" fill="#FD405F"/>
<path d="M32.2453 18.2627L27.7732 28.2852L26.7812 18.2627H32.2453Z" fill="#FD405F"/>
<path d="M24.7414 18.2627V18.2813L20.293 28.2768L20.2371 28.5848L15.2318 27.6775L14.9863 27.08L23.4262 18.2627H24.7414Z" fill="#FD405F"/>
<path d="M65.0001 32.5005C65.0001 36.7492 64.1842 40.8083 62.7014 44.5271L62.6947 44.5238L57.862 45.4852L54.8405 40.9758C55.8409 38.342 56.3876 35.4847 56.3876 32.5005C56.3876 20.0912 46.9271 9.89264 34.8242 8.72467L34.8276 8.68913L38.0962 4.27793L35.6249 0.149414C52.1085 1.72025 65.0001 15.6055 65.0001 32.5005Z" fill="#96EFFF"/>
<path d="M57.1982 47.2587L61.9225 46.3193C56.7293 57.3591 45.5066 65 32.4999 65C19.4559 65 8.20781 57.3168 3.0332 46.2279L3.03997 46.2245L5.65521 42.0469L11.0092 42.9423H11.0109C14.8839 50.9031 23.0512 56.3875 32.4999 56.3875C42.0501 56.3875 50.2919 50.7829 54.1141 42.6833L54.1428 42.6969L57.1982 47.2587Z" fill="#6CE0F9"/>
<path d="M32.9689 8.6125V8.61758C32.8132 8.61419 32.6574 8.6125 32.5 8.6125C19.307 8.6125 8.6125 19.307 8.6125 32.5C8.6125 35.5858 9.19818 38.5328 10.2629 41.2411L10.2341 41.253L4.81914 40.3474L2.26146 44.4319C0.800651 40.7384 0 36.7132 0 32.5C0 14.5505 14.5505 0 32.5 0C32.8927 0 33.282 0.00677083 33.6714 0.0203125L36.202 4.25039L32.9689 8.6125Z" fill="#40DAF4"/>
</svg>
