<svg width="142" height="50" viewBox="0 0 142 50" fill="none" xmlns="http://www.w3.org/2000/svg">
<g clip-path="url(#clip0_5080_8106)">
<path d="M60.6275 41.8426C60.6275 41.8426 66.8723 41.3052 66.8723 33.2089C66.8723 25.1127 59.3072 24.3604 59.3072 24.3604H45.6758V49.903H52.5272V43.7413L58.4508 49.903H68.5851L60.6275 41.8426ZM57.9869 36.6122H52.5272V30.7729H58.0226C58.0226 30.7729 59.557 31.3461 59.557 33.6747C59.557 36.0032 57.9869 36.6122 57.9869 36.6122ZM83.7866 24.5395H76.8282C71.8681 24.5395 70.1909 29.0533 70.1909 31.2028V49.903H77.1493V45.425H83.6796V49.903H90.4239V31.2028C90.4239 25.7575 85.4995 24.5395 83.7866 24.5395ZM83.6796 38.1885H77.1137V31.9909C77.1137 31.9909 77.1137 30.5938 79.2904 30.5938H81.6812C83.6082 30.5938 83.6439 31.9909 83.6439 31.9909V38.1885H83.6796ZM93.5998 24.5395H100.844V49.903H93.5998V24.5395ZM111.014 43.3472V24.5395H103.806V43.3472V49.903H111.014H120.756V43.3472H111.014ZM123.146 43.4188V49.903H134.815C137.206 49.903 141.31 48.1476 141.452 43.2397V40.732C141.452 36.5406 138.027 34.0687 134.815 34.0687H128.999V31.0595H140.525V24.5395H129.463C126.608 24.5395 122.79 26.9039 122.79 31.3103V33.5672C122.79 37.9736 126.572 40.2305 129.463 40.2305C137.491 40.2663 127.536 40.2305 134.958 40.2305V43.383L123.146 43.4188Z" fill="#CC0000"/>
<path d="M2.4979 49.8673H30.6885C30.6885 49.8673 25.3002 25.1844 43.1423 15.1895C47.0319 13.2908 59.4144 6.19759 79.683 21.2438C80.3254 20.7064 80.932 20.2765 80.932 20.2765C80.932 20.2765 62.3762 1.68374 41.7149 3.76154C31.3308 4.69298 18.5558 14.1864 11.0621 26.7249C3.56843 39.2634 2.4979 49.8673 2.4979 49.8673ZM61.2343 5.7677L61.377 3.36748C61.0558 3.18836 60.1637 2.75847 57.9156 2.11363L57.7729 4.47803C58.9505 4.8721 60.0924 5.30199 61.2343 5.7677ZM57.8443 13.3624L57.7015 15.6194C58.8791 15.6552 60.0567 15.7985 61.2343 16.0493L61.377 13.8282C60.1637 13.5774 58.9861 13.4341 57.8443 13.3624ZM44.6411 2.18528H44.9979L44.2842 0C43.178 0 42.0361 0.0716485 40.8585 0.214945L41.5365 2.32858C42.5714 2.2211 43.6062 2.18528 44.6411 2.18528ZM46.3539 15.3686L47.1746 17.8405C48.2095 17.3389 49.2443 16.909 50.2792 16.5866L49.4941 14.2222C48.2809 14.5805 47.246 14.9745 46.3539 15.3686ZM30.1532 5.94682L28.5474 3.47495C27.6553 3.94067 26.7275 4.44221 25.7641 5.01539L27.4055 7.52309C28.3333 6.9499 29.2254 6.41254 30.1532 5.94682ZM37.4685 22.0677L39.1814 24.6471C39.788 23.7515 40.5017 22.9275 41.2867 22.1036L39.6809 19.6675C38.8602 20.4198 38.1108 21.2438 37.4685 22.0677ZM32.2943 33.6031L35.1847 35.8959C35.3275 34.4987 35.5772 33.1016 35.9341 31.7044L33.3648 29.6625C32.9009 30.988 32.5798 32.3135 32.2943 33.6031ZM16.6646 16.5866L14.131 14.3655C13.2032 15.2611 12.3111 16.1567 11.4903 17.0523L14.238 19.4167C14.9874 18.4495 15.8081 17.4822 16.6646 16.5866ZM5.88791 32.6001L1.78422 31.0954C1.10621 32.6359 0.356843 34.4271 0 35.3943L4.10369 36.899C4.56759 35.6809 5.31696 33.9255 5.88791 32.6001ZM31.759 42.7025C31.8304 44.6012 32.0088 46.1416 32.1872 47.2163L36.4694 48.7568C36.1482 47.3596 35.827 45.7834 35.6129 44.0996L31.759 42.7025Z" fill="#CC0000"/>
</g>
<defs>
<clipPath id="clip0_5080_8106">
<rect width="141.667" height="50" fill="white"/>
</clipPath>
</defs>
</svg>
