<svg width="100" height="100" viewBox="0 0 100 100" fill="none" xmlns="http://www.w3.org/2000/svg">
<g id="onboarding-remote-developers_talent-shortage-ruining-product-health">
<g id="Group">
<path id="Vector" d="M18.5404 54.375H13.7487C11.6654 54.375 10.207 52.7084 10.207 50.8334V37.5H11.457C12.2904 37.5 12.9154 36.875 12.9154 36.0417C12.9154 35.2084 12.2904 34.5834 11.457 34.5834H6.04036C5.20703 34.5834 4.58203 35.2084 4.58203 36.0417C4.58203 36.875 5.20703 37.5 6.04036 37.5H7.29036V50.8334C7.29036 54.375 10.207 57.5 13.957 57.5H18.5404C19.3737 57.5 19.9987 56.875 19.9987 56.0417C19.9987 55 19.3737 54.375 18.5404 54.375Z" fill="#839299"/>
<path id="Vector_2" d="M70.207 34.5834H64.7904C63.957 34.5834 63.332 35.2084 63.332 36.0417C63.332 36.875 63.957 37.5 64.7904 37.5H66.0404V50.8334C66.0404 52.9167 64.3737 54.375 62.4987 54.375H58.5404C57.707 54.375 57.082 55 57.082 55.8334C57.082 56.6667 57.707 57.2917 58.5404 57.2917H62.4987C66.0404 57.2917 69.1654 54.375 69.1654 50.625V37.5H70.4154C71.2487 37.5 71.8737 36.875 71.8737 36.0417C71.6654 35.2084 71.0404 34.5834 70.207 34.5834Z" fill="#839299"/>
</g>
<path id="Vector_3" d="M35.418 69.1666H41.043V93.9583H35.418V69.1666Z" fill="#D2D9DC"/>
<path id="Vector_4" d="M44.9987 71.4583H31.2487C31.0404 71.4583 30.832 71.25 30.832 71.0417V63.75H45.6237V71.0417C45.6237 71.25 45.4154 71.4583 44.9987 71.4583Z" fill="#839299"/>
<path id="Vector_5" d="M60.0007 54.375L38.1257 51.25L16.2507 54.375C14.3757 55.8333 13.5424 58.3333 13.334 60.625C13.1257 62.7083 14.7924 64.5833 16.8757 64.5833H59.3757C61.459 64.5833 63.1257 62.7083 62.9174 60.625C62.709 58.3333 61.8757 55.8333 60.0007 54.375Z" fill="#5F737C"/>
<path id="Vector_6" opacity="0.19" d="M59.3763 64.5833H54.168C56.2513 64.5833 58.3346 62.0833 58.1263 60C57.918 57.9167 57.5013 56.0417 56.043 54.375H60.0013C61.8763 55.8333 62.7096 58.3333 62.918 60.625C63.1263 62.7083 61.4596 64.5833 59.3763 64.5833Z" fill="#2D2F31"/>
<path id="Vector_7" d="M16.25 4.79163H60V54.375H16.25V4.79163Z" fill="#839299"/>
<path id="Vector_8" d="M81.043 28.75C88.9821 28.75 95.418 22.3141 95.418 14.375C95.418 6.43591 88.9821 0 81.043 0C73.1039 0 66.668 6.43591 66.668 14.375C66.668 22.3141 73.1039 28.75 81.043 28.75Z" fill="#FFDD33"/>
<path id="Vector_9" d="M38.125 0H20.2083C18.125 0 16.25 1.875 16.25 3.95833V6.04167C16.25 9.375 18.5417 12.2917 21.875 13.125C23.9583 13.5417 26.4583 14.1667 29.375 14.5833C35.2083 15.4167 41.0417 15.4167 46.875 14.5833C49.7917 14.1667 52.2917 13.75 54.375 13.125C57.7083 12.2917 60 9.375 60 6.04167V3.95833C60 1.66667 58.125 0 56.0417 0H38.125Z" fill="#5F737C"/>
<g id="Group_2">
<g id="Group_3">
<path id="Vector_10" d="M52.2917 26.4583H23.9583C23.125 26.4583 22.5 25.8333 22.5 25C22.5 24.1666 23.125 23.5416 23.9583 23.5416H52.2917C53.125 23.5416 53.75 24.1666 53.75 25C53.75 25.8333 53.125 26.4583 52.2917 26.4583Z" fill="#D2D9DC"/>
</g>
<g id="Group_4">
<path id="Vector_11" d="M52.2917 36.0417H23.9583C23.125 36.0417 22.5 35.4167 22.5 34.5833C22.5 33.75 23.125 33.125 23.9583 33.125H52.2917C53.125 33.125 53.75 33.75 53.75 34.5833C53.75 35.4167 53.125 36.0417 52.2917 36.0417Z" fill="#D2D9DC"/>
</g>
<g id="Group_5">
<path id="Vector_12" d="M52.2917 45.6249H23.9583C23.125 45.6249 22.5 44.9999 22.5 44.1666C22.5 43.3333 23.125 42.7083 23.9583 42.7083H52.2917C53.125 42.7083 53.75 43.3333 53.75 44.1666C53.75 44.9999 53.125 45.6249 52.2917 45.6249Z" fill="#D2D9DC"/>
</g>
</g>
<path id="Vector_13" d="M58.1263 92.5H18.1263C17.293 92.5 16.668 93.125 16.668 93.9583V98.5417C16.668 99.375 17.293 100 18.1263 100C18.9596 100 19.5846 99.375 19.5846 98.5417V95.4167H36.4596V98.5417C36.4596 99.375 37.0846 100 37.918 100C38.7513 100 39.3763 99.375 39.3763 98.5417V95.4167H56.2513V98.5417C56.2513 99.375 56.8763 100 57.7096 100C58.543 100 59.168 99.375 59.168 98.5417V93.9583C59.5846 93.125 58.9596 92.5 58.1263 92.5Z" fill="#839299"/>
<g id="Group_6" opacity="0.19">
<g id="Group_7">
<g id="Group_8">
<path id="Vector_14" d="M81.0391 23.9584C82.0746 23.9584 82.9141 23.1189 82.9141 22.0834C82.9141 21.0478 82.0746 20.2084 81.0391 20.2084C80.0035 20.2084 79.1641 21.0478 79.1641 22.0834C79.1641 23.1189 80.0035 23.9584 81.0391 23.9584Z" fill="#2D2F31"/>
</g>
<g id="Group_9">
<g id="Group_10">
<path id="Vector_15" d="M81.0404 18.1251C80.207 18.1251 79.582 17.5001 79.582 16.6667C79.582 14.5834 80.6237 12.7084 82.2904 11.4584C82.707 11.0417 83.1237 10.4167 83.1237 9.79172C83.1237 8.95838 82.2904 8.12505 81.457 7.91672C80.4154 7.91672 79.582 8.54172 79.3737 9.58338V9.79172C79.3737 10.6251 78.7487 11.2501 77.9154 11.2501C77.082 11.2501 76.457 10.6251 76.457 9.79172C76.457 9.58338 76.457 9.37505 76.457 9.16672C76.8737 6.45838 79.1654 4.79172 81.8737 5.00005C84.1654 5.20838 86.0404 7.08338 86.2487 9.58338C86.457 11.2501 85.6237 12.9167 84.3737 13.7501C83.332 14.5834 82.9154 15.6251 82.9154 16.6667C82.4987 17.5001 81.8737 18.1251 81.0404 18.1251Z" fill="#2D2F31"/>
</g>
</g>
</g>
</g>
</g>
</svg>
