<svg width="387" height="175" viewBox="0 0 387 175" fill="none" xmlns="http://www.w3.org/2000/svg">
<path d="M31.0143 62.1187C13.8843 62.1187 0 48.2344 0 31.1044C0 13.9745 13.8843 0 31.0143 0C48.1443 0 62.0286 13.8843 62.0286 31.0143C62.0286 48.1443 48.1443 62.1187 31.0143 62.1187ZM31.0143 14.5154C21.9083 14.5154 14.4252 21.9083 14.4252 31.1044C14.4252 40.3005 21.8182 47.6935 31.0143 47.6935C40.2104 47.6935 47.6033 40.3005 47.6033 31.1044C47.6033 21.9083 40.2104 14.5154 31.0143 14.5154Z" fill="#D2D9DC"/>
<path d="M31.0177 62.1186C22.7232 62.1186 14.9696 58.8729 9.10938 53.0127L19.3874 42.7347C22.5429 45.8902 26.6901 47.6032 31.1079 47.6032C35.5256 47.6032 39.6729 45.8902 42.8284 42.7347C45.9839 39.5792 47.6969 35.4319 47.6969 31.0142H62.2123C62.2123 39.3087 58.9666 47.0623 53.1064 52.9225C47.156 58.8729 39.3122 62.1186 31.0177 62.1186Z" fill="#0054A6"/>
<path d="M9.10594 53.0128C3.24568 47.1525 0 39.399 0 31.1044C0 22.8099 3.24568 15.0564 9.10594 9.1961C14.9662 3.33584 22.7198 0 31.0143 0V14.5154C26.5966 14.5154 22.4493 16.2284 19.2938 19.3839C16.1382 22.5395 14.4252 26.6867 14.4252 31.1044C14.4252 35.5222 16.1382 39.6694 19.2938 42.825L9.10594 53.0128Z" fill="#FFDD33"/>
<path d="M325.559 30.7438V132.712C325.559 135.958 322.944 138.573 319.699 138.573H119.368C116.122 138.573 113.508 135.958 113.508 132.712V30.7438C113.508 27.4981 116.122 24.8835 119.368 24.8835H319.699C322.944 24.8835 325.559 27.4981 325.559 30.7438Z" fill="#D2D9DC"/>
<path d="M313.651 127.303H252.434C249.91 127.303 247.836 125.229 247.836 122.705V54.4555C247.836 51.9311 249.91 49.8574 252.434 49.8574H313.561C316.085 49.8574 318.159 51.9311 318.159 54.4555V122.705C318.249 125.229 316.176 127.303 313.651 127.303Z" fill="#0054A6"/>
<path d="M237.026 66.8069H124.779C122.525 66.8069 120.812 65.0038 120.812 62.84C120.812 60.586 122.616 58.873 124.779 58.873H236.936C239.19 58.873 240.903 60.6762 240.903 62.84C240.993 65.0038 239.19 66.8069 237.026 66.8069Z" fill="#839299"/>
<path d="M237.026 78.888H124.779C122.525 78.888 120.812 77.0848 120.812 74.921C120.812 72.6671 122.616 70.9541 124.779 70.9541H236.936C239.19 70.9541 240.903 72.7573 240.903 74.921C240.993 77.0848 239.19 78.888 237.026 78.888Z" fill="#839299"/>
<path d="M237.026 91.0594H124.779C122.525 91.0594 120.812 89.2562 120.812 87.0924C120.812 84.8385 122.616 83.1255 124.779 83.1255H236.936C239.19 83.1255 240.903 84.9286 240.903 87.0924C240.993 89.2562 239.19 91.0594 237.026 91.0594Z" fill="#839299"/>
<path d="M237.026 103.501H124.779C122.525 103.501 120.812 101.698 120.812 99.5343C120.812 97.2804 122.616 95.5674 124.779 95.5674H236.936C239.19 95.5674 240.903 97.3705 240.903 99.5343C240.993 101.698 239.19 103.501 237.026 103.501Z" fill="#839299"/>
<path d="M283.094 95.2969C273.808 95.2969 266.234 87.7237 266.234 78.4374C266.234 69.1511 273.808 61.5779 283.094 61.5779C292.38 61.5779 299.953 69.1511 299.953 78.4374C299.953 87.7237 292.29 95.2969 283.094 95.2969ZM283.094 63.0204C274.619 63.0204 267.677 69.9626 267.677 78.4374C267.677 86.9122 274.529 93.8544 283.094 93.8544C291.659 93.8544 298.511 86.9122 298.511 78.4374C298.511 69.9626 291.569 63.0204 283.094 63.0204Z" fill="#F9FAFB"/>
<path d="M283.092 115.492C278.945 115.492 275.609 112.156 275.609 108.009C275.609 103.862 278.945 100.526 283.092 100.526C287.24 100.526 290.576 103.862 290.576 108.009C290.576 112.066 287.15 115.492 283.092 115.492ZM283.092 101.878C279.757 101.878 276.962 104.583 276.962 108.009C276.962 111.345 279.666 114.14 283.092 114.14C286.428 114.14 289.223 111.435 289.223 108.009C289.133 104.583 286.428 101.878 283.092 101.878Z" fill="#F9FAFB"/>
<path d="M303.913 106.747C299.766 106.747 296.43 103.411 296.43 99.2639C296.43 95.1166 299.766 91.7808 303.913 91.7808C308.06 91.7808 311.396 95.1166 311.396 99.2639C311.396 103.411 308.06 106.747 303.913 106.747ZM303.913 93.1331C300.577 93.1331 297.782 95.8379 297.782 99.2639C297.782 102.6 300.487 105.395 303.913 105.395C307.249 105.395 310.044 102.69 310.044 99.2639C310.044 95.928 307.249 93.1331 303.913 93.1331Z" fill="#F9FAFB"/>
<path d="M262.178 106.747C258.031 106.747 254.695 103.411 254.695 99.2639C254.695 95.1166 258.031 91.7808 262.178 91.7808C266.326 91.7808 269.662 95.1166 269.662 99.2639C269.752 103.411 266.326 106.747 262.178 106.747ZM262.178 93.1331C258.843 93.1331 256.048 95.8379 256.048 99.2639C256.048 102.6 258.752 105.395 262.178 105.395C265.514 105.395 268.309 102.69 268.309 99.2639C268.309 95.928 265.604 93.1331 262.178 93.1331Z" fill="#F9FAFB"/>
<path d="M265.696 99.2639C265.696 101.157 264.163 102.69 262.27 102.69C260.376 102.69 258.844 101.157 258.844 99.2639C258.844 97.3706 260.376 95.8379 262.27 95.8379C264.163 95.8379 265.696 97.3706 265.696 99.2639Z" fill="#F9FAFB"/>
<path d="M307.344 99.2639C307.344 101.157 305.812 102.69 303.918 102.69C302.025 102.69 300.492 101.157 300.492 99.2639C300.492 97.3706 302.025 95.8379 303.918 95.8379C305.812 95.8379 307.344 97.3706 307.344 99.2639Z" fill="#F9FAFB"/>
<path d="M286.524 107.919C286.524 109.812 284.991 111.345 283.098 111.345C281.205 111.345 279.672 109.812 279.672 107.919C279.672 106.026 281.205 104.493 283.098 104.493C284.991 104.493 286.524 106.026 286.524 107.919Z" fill="#F9FAFB"/>
<path d="M295.027 89.4808L294.07 90.437L298.724 95.0915L299.681 94.1352L295.027 89.4808Z" fill="#F9FAFB"/>
<path d="M271.099 89.4619L266.445 94.1157L267.402 95.072L272.055 90.4182L271.099 89.4619Z" fill="#F9FAFB"/>
<path d="M283.727 94.5754H282.375V101.157H283.727V94.5754Z" fill="#F9FAFB"/>
<path d="M283.093 78.9782C286.031 78.9782 288.412 76.5967 288.412 73.6589C288.412 70.7211 286.031 68.3396 283.093 68.3396C280.155 68.3396 277.773 70.7211 277.773 73.6589C277.773 76.5967 280.155 78.9782 283.093 78.9782Z" fill="#F9FAFB"/>
<path d="M289.042 77.8062C287.78 79.6995 285.526 80.9617 283.092 80.9617C280.567 80.9617 278.403 79.6995 277.141 77.8062C275.068 78.5274 273.625 80.5109 273.625 82.7648V86.3711H292.648V82.7648C292.558 80.4207 291.116 78.5274 289.042 77.8062Z" fill="#F9FAFB"/>
<path d="M91.5092 77.626C77.715 77.626 66.4453 66.3563 66.4453 52.5622C66.4453 38.768 77.715 27.4983 91.5092 27.4983C105.303 27.4983 116.573 38.768 116.573 52.5622C116.573 66.3563 105.393 77.626 91.5092 77.626ZM91.5092 28.8507C78.4363 28.8507 67.7977 39.4893 67.7977 52.5622C67.7977 65.635 78.4363 76.2737 91.5092 76.2737C104.582 76.2737 115.221 65.635 115.221 52.5622C115.221 39.4893 104.582 28.8507 91.5092 28.8507Z" fill="#54CC5A"/>
<path d="M91.507 45.2595C84.2944 45.2595 77.4424 42.1941 72.6641 36.7846L73.6558 35.8831C78.1637 41.0221 84.6551 43.9071 91.4169 43.9071C98.1787 43.9071 104.67 41.0221 109.178 35.8831L110.17 36.7846C105.572 42.1941 98.7197 45.2595 91.507 45.2595Z" fill="#54CC5A"/>
<path d="M109.272 69.1513C104.764 64.1025 98.2725 61.1273 91.5106 61.1273C84.7488 61.1273 78.2574 64.0123 73.7496 69.1513L72.7578 68.2497C77.5362 62.8403 84.3882 59.7749 91.5106 59.7749C98.6331 59.7749 105.575 62.8403 110.263 68.2497L109.272 69.1513Z" fill="#54CC5A"/>
<path d="M91.5106 77.626C83.6668 77.626 77.2656 66.3563 77.2656 52.5622C77.2656 38.768 83.6668 27.4983 91.5106 27.4983C99.3543 27.4983 105.755 38.768 105.755 52.5622C105.755 66.3563 99.3543 77.626 91.5106 77.626ZM91.5106 28.8507C84.4783 28.8507 78.7082 39.4893 78.7082 52.5622C78.7082 65.635 84.4783 76.2737 91.5106 76.2737C98.5429 76.2737 104.313 65.635 104.313 52.5622C104.313 39.4893 98.633 28.8507 91.5106 28.8507Z" fill="#54CC5A"/>
<path d="M92.1414 28.1294H90.7891V76.9048H92.1414V28.1294Z" fill="#54CC5A"/>
<path d="M115.854 51.8408H67.0781V53.1932H115.854V51.8408Z" fill="#54CC5A"/>
<path d="M181.096 169.262L202.75 121.667L199.221 120.061L177.567 167.657L181.096 169.262Z" fill="#FFDD33"/>
<path d="M174.088 166.085L195.742 118.49L192.214 116.884L170.56 164.48L174.088 166.085Z" fill="#FFDD33"/>
<path d="M177.83 167.786L199.484 120.19L195.463 118.361L173.809 165.957L177.83 167.786Z" fill="#FFDD33"/>
<path opacity="0.19" d="M174.088 166.085L195.742 118.49L192.214 116.884L170.56 164.48L174.088 166.085Z" fill="#2D2F31"/>
<path opacity="0.19" d="M174.088 166.085L195.742 118.49L192.214 116.884L170.56 164.48L174.088 166.085Z" fill="#2D2F31"/>
<path opacity="0.19" d="M177.83 167.786L199.484 120.19L195.463 118.361L173.809 165.957L177.83 167.786Z" fill="#2D2F31"/>
<path d="M177.882 167.694L177.612 167.603L174.096 165.981L173.825 165.89L170.58 164.358L169.047 167.784C168.236 169.587 168.596 171.39 169.768 171.931L170.85 172.472L171.121 172.562L174.637 174.185L174.907 174.275L175.989 174.816C177.161 175.357 178.784 174.365 179.595 172.562L181.128 169.136L177.882 167.694Z" fill="#F9FAFB"/>
<path d="M202.767 121.623V107.558L192.219 116.845L202.767 121.623Z" fill="#F9FAFB"/>
<path d="M202.76 114.591V107.558L197.531 112.247L202.76 114.591Z" fill="#FFDD33"/>
<path d="M325.559 30.7438V37.2352H113.508V30.7438C113.508 27.4981 116.122 24.8835 119.368 24.8835H319.699C322.944 24.8835 325.559 27.4981 325.559 30.7438Z" fill="#002548"/>
<path d="M123.151 33.2681C124.197 33.2681 125.044 32.4204 125.044 31.3748C125.044 30.3291 124.197 29.4814 123.151 29.4814C122.105 29.4814 121.258 30.3291 121.258 31.3748C121.258 32.4204 122.105 33.2681 123.151 33.2681Z" fill="#ED1C24"/>
<path d="M133.162 31.3748C133.162 32.4567 132.26 33.2681 131.268 33.2681C130.186 33.2681 129.375 32.3665 129.375 31.3748C129.375 30.383 130.277 29.4814 131.268 29.4814C132.26 29.4814 133.162 30.2929 133.162 31.3748Z" fill="#FFDD33"/>
<path d="M139.292 33.2681C140.337 33.2681 141.185 32.4204 141.185 31.3748C141.185 30.3291 140.337 29.4814 139.292 29.4814C138.246 29.4814 137.398 30.3291 137.398 31.3748C137.398 32.4204 138.246 33.2681 139.292 33.2681Z" fill="#54CC5A"/>
<path d="M331.96 58.2421L331.69 58.3323C330.067 58.9634 329.165 60.7665 329.796 62.4795L331.329 66.5366C331.96 68.1595 333.763 69.061 335.476 68.4299L335.837 68.2496C337.099 67.7988 338.542 68.1595 339.443 69.2414C339.984 69.8725 340.525 70.5036 341.156 71.0445C342.148 71.9461 342.418 73.3886 341.878 74.6508L341.607 75.3721C340.886 76.9949 341.607 78.8882 343.23 79.6095L347.197 81.4127C348.82 82.1339 350.713 81.4127 351.434 79.7898L351.524 79.6095C352.065 78.3473 353.508 77.5359 354.86 77.7162C356.303 77.8965 357.835 77.9867 359.278 77.8965C360.63 77.8064 361.983 78.6178 362.434 79.88L362.524 80.1505C363.155 81.7733 364.958 82.6749 366.671 82.0438L370.728 80.5111C372.351 79.88 373.252 78.0768 372.621 76.3638L372.441 76.0032C371.99 74.741 372.351 73.2985 373.433 72.3969C374.515 71.4953 375.597 70.4134 376.498 69.3315C377.4 68.2496 378.932 67.889 380.285 68.4299L380.465 68.6103C382.088 69.3315 383.981 68.6103 384.703 66.9874L386.506 63.0205C387.227 61.3976 386.506 59.5043 384.883 58.7831L383.801 58.3323C382.629 57.7913 381.817 56.5291 381.908 55.2669C381.998 54.3653 381.998 53.5539 381.908 52.6523C381.817 51.3 382.629 49.9476 383.981 49.4968L384.252 49.4066C385.875 48.7755 386.776 46.9724 386.145 45.2594L384.612 41.2023C383.981 39.5794 382.178 38.6779 380.465 39.309L380.104 39.4893C378.842 39.9401 377.4 39.5794 376.498 38.4975C375.867 37.6861 375.146 36.9649 374.424 36.3338C373.433 35.4322 373.072 33.8995 373.703 32.6373L373.974 32.0963C374.695 30.4735 373.974 28.5802 372.351 27.8589L368.384 26.0558C366.761 25.3345 364.868 26.0558 364.147 27.6786L363.966 28.0392C363.425 29.3014 362.073 30.0227 360.63 29.9326C359.368 29.7522 358.016 29.7522 356.754 29.8424C355.401 29.9326 354.049 29.1211 353.598 27.7688L353.508 27.4983C352.877 25.8755 351.074 24.9739 349.361 25.605L345.304 27.1377C343.681 27.7688 342.779 29.5719 343.41 31.2849L343.591 31.6456C344.041 32.9078 343.681 34.3503 342.599 35.2519C341.607 36.0633 340.705 36.9649 339.894 37.8664C338.992 38.9483 337.46 39.309 336.198 38.6779C334.575 37.9566 332.681 38.6779 331.96 40.3007L330.157 44.2676C329.436 45.8905 330.157 47.7838 331.78 48.5051L332.14 48.6854C333.403 49.2263 334.124 50.4885 334.034 51.8409C333.944 52.8326 333.944 53.9145 333.944 54.9964C334.034 56.439 333.222 57.7012 331.96 58.2421ZM353.688 42.3743C359.999 39.9401 367.122 43.1857 369.556 49.4968C371.99 55.8078 368.745 62.9303 362.434 65.3646C356.122 67.7988 349 64.5532 346.566 58.2421C344.131 51.9311 347.377 44.8086 353.688 42.3743Z" fill="#839299"/>
<path d="M298.776 28.8507L298.596 28.9408C297.604 29.3015 297.153 30.3834 297.514 31.3751L298.416 33.7192C298.776 34.7109 299.858 35.1617 300.85 34.8011L301.03 34.7109C301.751 34.4405 302.653 34.6208 303.104 35.2519C303.374 35.6125 303.735 35.9732 304.095 36.3338C304.636 36.8747 304.817 37.6862 304.456 38.4074L304.276 38.768C303.825 39.6696 304.276 40.8417 305.177 41.2023L307.431 42.194C308.333 42.6448 309.505 42.194 309.866 41.2925L309.956 41.2023C310.316 40.481 311.128 40.0303 311.939 40.1204C312.751 40.2106 313.652 40.3007 314.464 40.2106C315.275 40.2106 315.996 40.6614 316.267 41.3826L316.447 41.5629C316.808 42.5547 317.89 43.0055 318.881 42.6448L321.225 41.7433C322.217 41.3826 322.668 40.3007 322.307 39.309L322.217 39.0385C321.947 38.3173 322.127 37.5058 322.758 36.9649C323.389 36.4239 324.02 35.883 324.561 35.2519C325.102 34.6208 326.004 34.4405 326.725 34.7109L326.905 34.8011C327.807 35.2519 328.979 34.8011 329.34 33.8995L330.331 31.6456C330.782 30.744 330.331 29.5719 329.43 29.2113L328.799 28.9408C328.077 28.6704 327.627 27.9491 327.717 27.1377C327.717 26.5967 327.717 26.146 327.717 25.605C327.717 24.7936 328.168 24.0723 328.889 23.8018L329.069 23.7117C330.061 23.3511 330.512 22.2692 330.151 21.2774L329.25 18.9333C328.889 17.9416 327.807 17.4908 326.815 17.8514L326.635 17.9416C325.914 18.2121 325.012 18.0317 324.561 17.4006C324.201 16.9499 323.75 16.4991 323.389 16.1384C322.848 15.5975 322.668 14.7861 322.938 13.9746L323.029 13.7042C323.479 12.8026 323.029 11.6305 322.127 11.2699L319.873 10.2782C318.972 9.82739 317.799 10.2782 317.439 11.1798L317.349 11.3601C316.988 12.0813 316.267 12.5321 315.455 12.442C314.734 12.3518 313.923 12.3518 313.201 12.3518C312.39 12.3518 311.669 11.901 311.398 11.1798L311.308 10.9994C310.947 10.0077 309.866 9.55691 308.874 9.91755L306.53 10.8191C305.538 11.1798 305.087 12.2617 305.448 13.2534L305.538 13.4337C305.808 14.155 305.628 15.0565 304.997 15.5073C304.456 15.9581 303.915 16.4991 303.464 17.04C302.923 17.6711 302.022 17.8514 301.301 17.4908C300.399 17.04 299.227 17.4908 298.866 18.3924L297.875 20.6463C297.424 21.5479 297.875 22.72 298.776 23.0806L298.957 23.1707C299.678 23.5314 300.129 24.2526 300.038 25.0641C299.948 25.6952 299.948 26.2361 300.038 26.8672C299.948 27.7688 299.497 28.4901 298.776 28.8507ZM311.308 19.6546C315.005 18.2121 319.152 20.1054 320.504 23.8018C321.947 27.4983 320.053 31.6456 316.357 32.9979C312.66 34.4405 308.513 32.5472 307.161 28.8507C305.809 25.1542 307.702 21.007 311.308 19.6546Z" fill="#5F737C"/>
<path d="M152.729 96.1984V156.334C152.729 159.399 150.205 161.923 147.139 161.923H26.4179C23.3525 161.923 20.8281 159.399 20.8281 156.334V96.1984C20.8281 93.1331 23.3525 90.6086 26.4179 90.6086H147.049C150.205 90.6086 152.729 93.1331 152.729 96.1984Z" fill="#F9FAFB"/>
<path d="M41.5626 122.434H37.0547V151.826H41.5626V122.434Z" fill="#54CC5A"/>
<path d="M48.5001 130.278H43.9922V151.736H48.5001V130.278Z" fill="#54CC5A"/>
<path d="M55.4454 113.779H50.9375V151.735H55.4454V113.779Z" fill="#54CC5A"/>
<path d="M62.3907 139.023H57.8828V151.735H62.3907V139.023Z" fill="#54CC5A"/>
<path d="M69.3282 126.942H64.8203V151.736H69.3282V126.942Z" fill="#54CC5A"/>
<path d="M76.2735 118.558H71.7656V151.736H76.2735V118.558Z" fill="#54CC5A"/>
<path d="M101.695 122.434H97.1875V151.826H101.695V122.434Z" fill="#54CC5A"/>
<path d="M108.641 130.278H104.133V151.736H108.641V130.278Z" fill="#54CC5A"/>
<path d="M115.586 113.779H111.078V151.735H115.586V113.779Z" fill="#54CC5A"/>
<path d="M122.524 139.023H118.016V151.735H122.524V139.023Z" fill="#54CC5A"/>
<path d="M129.469 126.942H124.961V151.736H129.469V126.942Z" fill="#54CC5A"/>
<path d="M136.406 118.558H131.898V151.736H136.406V118.558Z" fill="#54CC5A"/>
<path d="M152.729 96.1984V100.796H20.8281V96.1984C20.8281 93.1331 23.3525 90.6086 26.4179 90.6086H147.049C150.205 90.6086 152.729 93.1331 152.729 96.1984Z" fill="#002548"/>
<path d="M29.0268 98.1819C30.172 98.1819 31.1004 97.2535 31.1004 96.1083C31.1004 94.9631 30.172 94.0347 29.0268 94.0347C27.8815 94.0347 26.9531 94.9631 26.9531 96.1083C26.9531 97.2535 27.8815 98.1819 29.0268 98.1819Z" fill="#ED1C24"/>
<path d="M37.1439 98.1819C38.2892 98.1819 39.2176 97.2535 39.2176 96.1083C39.2176 94.9631 38.2892 94.0347 37.1439 94.0347C35.9987 94.0347 35.0703 94.9631 35.0703 96.1083C35.0703 97.2535 35.9987 98.1819 37.1439 98.1819Z" fill="#FFDD33"/>
<path d="M45.1674 98.1819C46.3126 98.1819 47.241 97.2535 47.241 96.1083C47.241 94.9631 46.3126 94.0347 45.1674 94.0347C44.0221 94.0347 43.0938 94.9631 43.0938 96.1083C43.0938 97.2535 44.0221 98.1819 45.1674 98.1819Z" fill="#54CC5A"/>
</svg>
