<svg width="48" height="48" viewBox="0 0 48 48" fill="none" xmlns="http://www.w3.org/2000/svg">
<path d="M48 21.1C48 22.7 47.4 24.1 46.3 25.2C45.2 26.3 43.7 26.9 42.2 26.9H5.8C2.6 27 0 24.3 0 21.1C0 19.5 0.6 18.1 1.7 17C2.8 15.9 4.3 15.3 5.8 15.3H5.9C5.9 15 5.8 14.7 5.8 14.5C5.8 11.1 8.6 8.30002 12 8.30002C12.6 8.30002 13.3 8.40002 13.9 8.60002C15.8 4.80002 19.7 2.40002 24 2.40002C28.2 2.40002 32.1 4.70002 34 8.40002C34.8 8.10002 35.6 8.00002 36.4 8.00002C40.4 8.00002 43.7 11.3 43.7 15.3C43.7 15.4 43.7 15.5 43.7 15.5C46.2 16.2 48 18.5 48 21.1Z" fill="#D2D9DC"/>
<path d="M38.1984 29C37.8984 28.7 37.5984 28.6 37.0984 28.6C36.3984 28.6 35.8984 28.2 35.6984 27.6C35.4984 26.8 35.0984 26 34.6984 25.3C34.3984 24.7 34.4984 24 34.9984 23.5C35.5984 22.9 35.5984 22 34.9984 21.4L33.6984 20.1C33.0984 19.5 32.1984 19.5 31.5984 20.1C31.0984 20.6 30.3984 20.7 29.7984 20.4C29.0984 20 28.2984 19.7 27.4984 19.4C27.1984 19.3 26.8984 19.1 26.6984 18.9C26.4984 18.6 26.3984 18.3 26.3984 18C26.3984 17.2 25.6984 16.5 24.8984 16.5H22.9984C22.5984 16.5 22.1984 16.7 21.8984 16.9C21.5984 17.2 21.4984 17.5 21.4984 18C21.4984 18.7 21.0984 19.2 20.3984 19.4C19.5984 19.6 18.7984 20 18.0984 20.4C17.4984 20.7 16.7984 20.6 16.2984 20.1C15.6984 19.5 14.7984 19.5 14.1984 20.1L12.9984 21.4C12.3984 22 12.3984 22.9 12.9984 23.5C13.4984 24 13.5984 24.7 13.2984 25.3C12.8984 26 12.5984 26.8 12.2984 27.6C12.1984 27.9 11.9984 28.2 11.7984 28.4C11.4984 28.6 11.1984 28.7 10.8984 28.7C10.0984 28.7 9.39844 29.4 9.39844 30.2V32C9.39844 32.4 9.59844 32.8 9.79844 33.1C10.0984 33.4 10.3984 33.5 10.8984 33.5C11.5984 33.5 12.0984 33.9 12.2984 34.6C12.4984 35.4 12.8984 36.2 13.2984 36.9C13.5984 37.5 13.4984 38.2 12.9984 38.7C12.3984 39.3 12.3984 40.2 12.9984 40.8L14.2984 42.1C14.8984 42.7 15.7984 42.7 16.3984 42.1C16.8984 41.6 17.5984 41.5 18.1984 41.8C18.8984 42.2 19.6984 42.5 20.4984 42.8C20.7984 42.9 21.0984 43.1 21.2984 43.3C21.4984 43.6 21.5984 43.9 21.5984 44.2C21.5984 45 22.2984 45.7 23.0984 45.7H24.9984C25.3984 45.7 25.7984 45.5 26.0984 45.3C26.3984 45 26.4984 44.7 26.4984 44.2C26.4984 43.5 26.8984 43 27.5984 42.8C28.3984 42.6 29.1984 42.2 29.8984 41.8C30.4984 41.5 31.1984 41.6 31.6984 42.1C32.2984 42.7 33.1984 42.7 33.7984 42.1L35.0984 40.8C35.6984 40.2 35.6984 39.3 35.0984 38.7C34.5984 38.2 34.4984 37.5 34.7984 36.9C35.1984 36.2 35.4984 35.4 35.7984 34.6C35.8984 34.3 36.0984 34 36.2984 33.8C36.5984 33.6 36.8984 33.5 37.1984 33.5C37.9984 33.5 38.6984 32.8 38.6984 32V30.1C38.5984 29.7 38.3984 29.3 38.1984 29ZM23.9984 39.5C19.2984 39.5 15.4984 35.7 15.4984 31C15.4984 26.3 19.2984 22.5 23.9984 22.5C28.6984 22.5 32.4984 26.3 32.4984 31C32.4984 35.7 28.6984 39.5 23.9984 39.5Z" fill="#0054A6"/>
<path d="M28.2953 28C27.5953 28 26.9953 27.4 27.0953 26.8C27.0953 26.5 27.1953 26.2 27.4953 26L28.6953 24.8C27.0953 24.2 25.3953 25 24.7953 26.5C24.5953 27 24.4953 27.6 24.5953 28.2C24.6953 28.6 24.4953 29 24.2953 29.2L23.2953 30.2L22.2953 31.2C21.9953 31.5 21.5953 31.6 21.1953 31.5C19.7953 31.2 18.3953 32 17.7953 33.4C17.4953 34.1 17.4953 34.9 17.7953 35.6L18.9953 34.4C19.1953 34.2 19.4953 34.1 19.7953 34C20.4953 34 21.0953 34.6 20.9953 35.2C20.9953 35.5 20.8953 35.8 20.5953 36L19.3953 37.2C20.9953 37.8 22.6953 37 23.2953 35.5C23.4953 35 23.5953 34.4 23.4953 33.8C23.3953 33.4 23.5953 33 23.7953 32.8L25.8953 30.7C26.1953 30.4 26.5953 30.3 26.9953 30.4C28.3953 30.7 29.7953 29.9 30.3953 28.5C30.6953 27.8 30.6953 27 30.3953 26.3L29.1953 27.5C28.8953 27.8 28.5953 28 28.2953 28Z" fill="#5F737C"/>
<path d="M26.3 34C26.1 34 26 33.9 25.9 33.8L19.9 27.8C19.7 27.6 19.7 27.2 19.9 26.9C20.1 26.7 20.5 26.7 20.7 26.9L26.7 32.9C26.9 33.1 26.9 33.5 26.7 33.8C26.6 33.9 26.5 34 26.3 34Z" fill="#839299"/>
<path d="M21.2 26.5L18.9 25L18 25.9L19.5 28.2L21.2 26.5Z" fill="#839299"/>
<path d="M27.4984 32.2L24.8984 34.8L26.8984 36.8C27.5984 37.5 28.7984 37.5 29.4984 36.8C30.1984 36.1 30.1984 34.9 29.4984 34.2L27.4984 32.2Z" fill="#ED1C24"/>
</svg>
