<svg width="306" height="180" viewBox="0 0 306 180" fill="none" xmlns="http://www.w3.org/2000/svg">
<path d="M243.802 58.9065V140.855C243.802 146.988 238.878 151.912 232.745 151.912H73.4003C67.2681 151.912 62.3438 146.988 62.3438 140.855V58.9065C62.3438 52.7743 67.2681 47.8499 73.4003 47.8499H232.745C238.785 47.757 243.802 52.7743 243.802 58.9065Z" fill="#002548"/>
<path d="M232.924 151.54H73.207C69.5834 151.54 66.7031 148.66 66.7031 145.037V59.0925C66.7031 55.4689 69.5834 52.5886 73.207 52.5886H232.924C236.547 52.5886 239.428 55.4689 239.428 59.0925V145.13C239.428 148.66 236.547 151.54 232.924 151.54Z" fill="#D2D9DC"/>
<path d="M122.086 144.014L176.997 144.2" stroke="white" stroke-miterlimit="10"/>
<path d="M130.812 146.802L185.724 146.988" stroke="white" stroke-miterlimit="10"/>
<path d="M243.802 137.51V140.855C243.802 146.988 238.878 151.912 232.745 151.912H73.4003C67.2681 151.912 62.3438 146.988 62.3438 140.855V137.51H243.802Z" fill="#002548"/>
<path d="M114.282 65.689H77.1172V96.443H114.282V65.689Z" fill="#F9FAFB"/>
<path d="M85.4832 77.5819L84.7399 75.7236H82.4171L81.6738 77.5819H81.0234L83.3463 71.8213H83.9037L86.1336 77.5819H85.4832ZM84.5541 75.0732L83.9037 73.3079C83.8108 73.1221 83.7179 72.8433 83.625 72.4717C83.5321 72.7504 83.4392 73.0292 83.3463 73.3079L82.6959 75.0732H84.5541Z" fill="#0054A6"/>
<path d="M89.5748 77.582L89.4819 76.9316C89.296 77.2103 89.0173 77.3962 88.8315 77.4891C88.6456 77.582 88.3669 77.6749 87.9953 77.6749C87.5307 77.6749 87.252 77.582 86.9732 77.3032C86.6945 77.1174 86.6016 76.7458 86.6016 76.3741C86.6016 75.5379 87.3449 75.0733 88.7386 74.9804H89.4819V74.7017C89.4819 74.33 89.3889 74.1442 89.296 73.9584C89.1102 73.7726 88.9244 73.6797 88.5527 73.6797C88.1811 73.6797 87.8094 73.7726 87.3449 74.0513L87.159 73.5867C87.3449 73.4938 87.6236 73.4009 87.9023 73.308C88.1811 73.2151 88.3669 73.2151 88.6456 73.2151C89.2031 73.2151 89.5748 73.308 89.7606 73.5867C90.0393 73.7726 90.1322 74.1442 90.1322 74.7017V77.6749H89.5748V77.582ZM88.0882 77.1174C88.4598 77.1174 88.8315 77.0245 89.0173 76.7458C89.296 76.5599 89.3889 76.1883 89.3889 75.8166V75.445H88.7386C88.1811 75.445 87.8094 75.5379 87.6236 75.7237C87.4378 75.9096 87.2519 76.0954 87.2519 76.3741C87.2519 76.6529 87.3449 76.7458 87.4378 76.9316C87.6236 77.0245 87.8094 77.1174 88.0882 77.1174Z" fill="#0054A6"/>
<path d="M108.797 77.21H91.5156V77.6745H108.797V77.21Z" fill="#0054A6"/>
<path d="M109.356 82.6919H81.2969V83.1565H109.356V82.6919Z" fill="#D2D9DC"/>
<path d="M100.158 86.873H81.2969V87.3376H100.158V86.873Z" fill="#D2D9DC"/>
<path d="M109.356 90.9612H81.2969V91.4257H109.356V90.9612Z" fill="#D2D9DC"/>
<path d="M218.525 114.747H181.453V115.305H218.525V114.747Z" fill="#5F737C"/>
<path d="M218.525 117.999H181.453V118.556H218.525V117.999Z" fill="#5F737C"/>
<path d="M218.525 121.344H181.453V121.901H218.525V121.344Z" fill="#5F737C"/>
<path d="M144.194 107.314V124.317H128.492V102.947H139.456L144.194 107.314Z" fill="#839299"/>
<path opacity="0.19" d="M144.197 107.314L139.18 107.965L139.366 102.947H139.458L144.197 107.314Z" fill="#F9FAFB"/>
<path d="M166.312 107.314V124.317H150.609V102.947H161.573L166.312 107.314Z" fill="#839299"/>
<path opacity="0.19" d="M166.314 107.314L161.297 107.965L161.483 102.947H161.576L166.314 107.314Z" fill="#F9FAFB"/>
<path d="M114.189 104.062H77.1172V104.619H114.189V104.062Z" fill="#5F737C"/>
<path d="M99.7878 107.314H77.1172V107.871H99.7878V107.314Z" fill="#5F737C"/>
<path d="M114.189 114.189H77.1172V114.747H114.189V114.189Z" fill="#5F737C"/>
<path d="M114.189 123.76H77.1172V124.317H114.189V123.76Z" fill="#5F737C"/>
<path d="M99.7878 117.534H77.1172V118.092H99.7878V117.534Z" fill="#5F737C"/>
<path d="M99.7878 120.508H77.1172V121.065H99.7878V120.508Z" fill="#5F737C"/>
<path d="M114.189 110.566H77.1172V111.123H114.189V110.566Z" fill="#5F737C"/>
<path d="M165.75 68.3838H128.492V94.4922H165.75V68.3838Z" fill="#0054A6"/>
<path opacity="0.19" d="M142.616 74.8877L129.516 94.3993H155.717L142.616 74.8877Z" fill="#2D2F31"/>
<path d="M136.016 73.5869C136.016 74.9806 134.808 76.1885 133.414 76.1885C132.02 76.1885 130.812 74.9806 130.812 73.5869C130.812 72.1932 132.02 70.9854 133.414 70.9854C134.808 70.9854 136.016 72.1003 136.016 73.5869Z" fill="#FFDD33"/>
<path opacity="0.19" d="M129.234 94.3993H136.482L142.614 74.8877L129.234 94.3993Z" fill="#2D2F31"/>
<path d="M149.114 74.8877L135.734 94.3993H162.493L149.114 74.8877Z" fill="#002548"/>
<path opacity="0.19" d="M135.734 94.3993H143.074L149.114 74.8877L135.734 94.3993Z" fill="#F9FAFB"/>
<path d="M56.0263 60.7647H1.30078C0.557477 60.7647 0 60.2072 0 59.4639V26.6658H57.2341V59.5568C57.2341 60.2072 56.6767 60.7647 56.0263 60.7647Z" fill="#D2D9DC"/>
<path d="M21.2798 39.1158L13.1035 43.8544L21.2798 48.5929V51.7519L9.85156 45.248V42.5536L21.2798 35.9568V39.1158Z" fill="#54CC5A"/>
<path d="M35.9609 39.4874L44.2302 44.2259L35.9609 48.9645V52.1235L47.3892 45.5267V42.9252L35.9609 36.3284V39.4874Z" fill="#54CC5A"/>
<path d="M24.4542 31.6856L21.8438 32.9028L32.4845 55.7228L35.0949 54.5056L24.4542 31.6856Z" fill="#54CC5A"/>
<path d="M57.3271 27.0373H0V21.1838C0 20.4405 0.557477 19.8831 1.30078 19.8831H56.0263C56.7696 19.8831 57.3271 20.4405 57.3271 21.1838V27.0373Z" fill="#002548"/>
<path d="M4.09096 23.5067C4.09096 24.0641 3.62639 24.5287 3.06892 24.5287C2.51144 24.5287 2.04688 24.0641 2.04688 23.5067C2.04688 22.9492 2.51144 22.4846 3.06892 22.4846C3.62639 22.4846 4.09096 22.9492 4.09096 23.5067Z" fill="#EB2F06"/>
<path d="M7.61439 23.5067C7.61439 24.0641 7.14982 24.5287 6.59235 24.5287C6.03487 24.5287 5.57031 24.0641 5.57031 23.5067C5.57031 22.9492 6.03487 22.4846 6.59235 22.4846C7.14982 22.4846 7.61439 22.9492 7.61439 23.5067Z" fill="#F6B93B"/>
<path d="M11.1534 23.5067C11.1534 24.0641 10.6889 24.5287 10.1314 24.5287C9.57394 24.5287 9.10938 24.0641 9.10938 23.5067C9.10938 22.9492 9.57394 22.4846 10.1314 22.4846C10.7818 22.4846 11.1534 22.9492 11.1534 23.5067Z" fill="#2BCBBA"/>
<path d="M265.073 40.7886H210.348C209.604 40.7886 209.047 40.2311 209.047 39.4878V6.6897H266.281V39.5807C266.281 40.2311 265.724 40.7886 265.073 40.7886Z" fill="#D2D9DC"/>
<path d="M266.374 7.06135H209.047V1.30078C209.047 0.557475 209.604 0 210.348 0H265.073C265.816 0 266.374 0.557475 266.374 1.30078V7.06135Z" fill="#002548"/>
<path d="M213.146 3.53058C213.146 4.08806 212.681 4.55262 212.124 4.55262C211.566 4.55262 211.102 4.08806 211.102 3.53058C211.102 2.97311 211.566 2.50854 212.124 2.50854C212.681 2.50854 213.146 2.97311 213.146 3.53058Z" fill="#EB2F06"/>
<path d="M216.669 3.53058C216.669 4.08806 216.205 4.55262 215.647 4.55262C215.09 4.55262 214.625 4.08806 214.625 3.53058C214.625 2.97311 215.09 2.50854 215.647 2.50854C216.205 2.50854 216.669 2.97311 216.669 3.53058Z" fill="#F6B93B"/>
<path d="M220.2 3.53058C220.2 4.08806 219.736 4.55262 219.178 4.55262C218.621 4.55262 218.156 4.08806 218.156 3.53058C218.156 2.97311 218.621 2.50854 219.178 2.50854C219.736 2.50854 220.2 2.97311 220.2 3.53058Z" fill="#2BCBBA"/>
<path d="M223.55 65.8748H177.094V108.615H223.55V65.8748Z" fill="#F9FAFB"/>
<path d="M213.144 87.2445C213.144 88.5453 212.958 89.7532 212.586 90.8681C211.936 93.098 210.728 94.9563 209.149 96.5358C206.919 98.6728 203.853 99.9736 200.508 100.066C200.415 100.066 200.415 100.066 200.322 100.066C200.229 100.066 200.229 100.066 200.136 100.066C196.791 99.9736 193.818 98.6728 191.495 96.5358C189.916 94.9563 188.708 93.098 188.057 90.8681C187.686 89.7532 187.5 88.5453 187.5 87.2445C187.5 86.6871 187.5 86.0367 187.593 85.4792C188.057 82.4131 189.451 79.7186 191.681 77.7675C193.911 75.7234 196.884 74.5155 200.136 74.4226C200.229 74.4226 200.229 74.4226 200.322 74.4226C200.415 74.4226 200.415 74.4226 200.508 74.4226C203.76 74.5155 206.733 75.7234 208.963 77.7675C211.1 79.7186 212.586 82.4131 213.051 85.4792C213.051 86.0367 213.144 86.5941 213.144 87.2445Z" fill="#54CC5A"/>
<path d="M200.32 100.16C200.227 100.16 200.227 100.16 200.134 100.16C196.882 100.16 193.816 98.8588 191.401 96.6288C189.728 95.0493 188.52 93.0982 187.87 90.8683C187.498 89.6604 187.312 88.4525 187.312 87.2447C187.312 86.5943 187.313 86.0368 187.405 85.4793C187.777 82.5061 189.264 79.7188 191.494 77.6747C193.816 75.5377 196.882 74.3298 200.042 74.3298C200.134 74.3298 200.32 74.3298 200.413 74.3298C203.572 74.3298 206.545 75.5377 208.868 77.6747C211.098 79.7188 212.585 82.5061 212.956 85.4793C213.049 86.0368 213.049 86.6872 213.049 87.2447C213.049 88.4525 212.863 89.7533 212.492 90.8683C211.841 93.0053 210.634 95.0493 208.961 96.6288C206.638 98.8588 203.479 100.16 200.227 100.16C200.506 100.16 200.413 100.16 200.32 100.16ZM200.32 99.8808C200.413 99.8808 200.413 99.8808 200.506 99.8808C203.665 99.8808 206.731 98.58 209.054 96.443C210.634 94.8635 211.841 92.9123 212.492 90.8683C212.863 89.7533 213.049 88.5455 213.049 87.3376C213.049 86.6872 213.049 86.1297 212.956 85.5723C212.585 82.692 211.098 79.9975 208.961 77.9534C206.731 75.9093 203.758 74.7015 200.692 74.7015C200.599 74.7015 200.599 74.7015 200.506 74.7015C200.413 74.7015 200.413 74.7015 200.32 74.7015C197.254 74.7015 194.281 75.9093 191.958 77.9534C189.821 79.9046 188.335 82.5991 187.963 85.5723C187.87 86.1297 187.87 86.6872 187.87 87.3376C187.87 88.5455 188.056 89.7533 188.427 90.8683C189.078 93.0053 190.193 94.9564 191.865 96.443C194.188 98.6729 197.161 99.8808 200.413 99.8808C200.227 99.8808 200.32 99.8808 200.32 99.8808Z" fill="#2D2F31"/>
<path d="M200.32 81.2983C198.183 81.2983 196.046 80.7408 194.187 79.7188C193.258 79.2542 192.422 78.6038 191.679 77.8605L191.586 77.7676L191.679 77.6747C194.002 75.5377 197.068 74.3298 200.227 74.3298C200.32 74.3298 200.506 74.3298 200.598 74.3298C203.757 74.4227 206.824 75.5377 209.146 77.6747L209.239 77.7676L209.146 77.8605C208.403 78.6038 207.567 79.1613 206.638 79.7188C204.594 80.7408 202.457 81.2983 200.32 81.2983ZM191.958 77.7676C192.701 78.418 193.444 78.9755 194.373 79.44C196.232 80.4621 198.276 80.9266 200.413 80.9266C202.55 80.9266 204.594 80.3692 206.452 79.44C207.288 78.9755 208.124 78.418 208.775 77.7676C206.545 75.7235 203.665 74.6086 200.598 74.6086C200.506 74.6086 200.506 74.6086 200.413 74.6086C200.32 74.6086 200.32 74.6086 200.227 74.6086C197.068 74.6086 194.187 75.8164 191.958 77.7676Z" fill="#2D2F31"/>
<path d="M200.317 100.159C200.224 100.159 200.224 100.159 200.131 100.159C196.879 100.067 193.813 98.8587 191.398 96.6288L191.305 96.5358L191.398 96.4429C192.141 95.6996 193.07 95.0492 193.999 94.4918C195.95 93.4697 198.087 92.8193 200.317 92.8193C202.547 92.8193 204.684 93.3768 206.635 94.4918C207.564 95.0492 208.494 95.6996 209.237 96.4429L209.33 96.5358L209.237 96.6288C206.914 98.8587 203.755 100.159 200.503 100.159C200.503 100.159 200.41 100.159 200.317 100.159ZM200.317 99.8807C200.41 99.8807 200.41 99.8807 200.503 99.8807C203.662 99.8807 206.635 98.6728 208.865 96.5358C208.122 95.8855 207.286 95.2351 206.449 94.7705C204.591 93.7485 202.454 93.191 200.317 93.191C198.18 93.191 196.043 93.7485 194.185 94.7705C193.256 95.2351 192.513 95.8855 191.769 96.5358C194.092 98.6728 197.065 99.8807 200.131 99.8807C200.224 99.8807 200.317 99.8807 200.317 99.8807Z" fill="#2D2F31"/>
<path d="M200.321 100.16C200.228 100.16 200.228 100.16 200.135 100.16C197.72 100.067 195.397 98.0225 194.003 94.6777C193.074 92.5407 192.609 89.9391 192.609 87.2447C192.609 84.4573 193.167 81.7628 194.096 79.5329C195.49 76.281 197.72 74.4227 200.135 74.3298C200.228 74.3298 200.414 74.3298 200.507 74.3298C202.923 74.4227 205.06 76.3739 206.546 79.5329C207.568 81.7628 208.033 84.4573 208.033 87.2447C208.033 89.9391 207.568 92.4478 206.639 94.6777C205.245 98.0225 202.923 100.067 200.507 100.16C200.507 100.16 200.414 100.16 200.321 100.16ZM200.321 99.8808C200.414 99.8808 200.414 99.8808 200.507 99.8808C202.83 99.7879 205.06 97.7438 206.36 94.5848C207.29 92.4478 207.754 89.9391 207.754 87.2447C207.754 84.4573 207.197 81.8557 206.268 79.6258C204.874 76.5597 202.83 74.7015 200.507 74.6086C200.414 74.6086 200.414 74.6086 200.321 74.6086C200.228 74.6086 200.228 74.6086 200.135 74.6086C197.812 74.7015 195.768 76.5597 194.375 79.6258C193.353 81.8557 192.888 84.4573 192.888 87.2447C192.888 89.8462 193.353 92.4478 194.282 94.5848C195.676 97.8367 197.812 99.7879 200.135 99.8808C200.228 99.8808 200.228 99.8808 200.321 99.8808Z" fill="#2D2F31"/>
<path d="M200.505 74.4226H200.227V99.9736H200.505V74.4226Z" fill="#2D2F31"/>
<path d="M213.145 87.0588H187.594V87.3376H213.145V87.0588Z" fill="#2D2F31"/>
<path d="M92.4488 150.983V166.035C92.4488 167.336 91.3339 168.451 90.0331 168.451H81.7639L79.0694 173.189C78.5119 174.118 77.2112 174.118 76.6537 173.189L73.9592 168.451H65.7829C64.4821 168.451 63.3672 167.336 63.3672 166.035V151.076C63.3672 149.775 64.4821 148.66 65.7829 148.66H90.0331C91.3339 148.567 92.4488 149.682 92.4488 150.983Z" fill="#0054A6"/>
<path d="M59.2788 133.237V157.951C59.2788 160.181 57.5135 161.947 55.2836 161.947H41.6254L37.1656 169.658C36.3294 171.145 34.0995 171.145 33.2633 169.658L28.8035 161.947H15.3312C13.1013 161.947 11.3359 160.181 11.3359 157.951V133.237C11.3359 131.007 13.1013 129.241 15.3312 129.241H55.2836C57.4206 129.241 59.2788 131.007 59.2788 133.237Z" fill="#0054A6"/>
<path d="M25.173 146.059C25.173 147.731 23.8722 149.032 22.1998 149.032C20.5273 149.032 19.2266 147.731 19.2266 146.059C19.2266 144.386 20.5273 143.085 22.1998 143.085C23.8722 142.993 25.173 144.386 25.173 146.059Z" fill="#F9FAFB"/>
<path d="M38.2745 146.059C38.2745 147.731 36.9738 149.032 35.3013 149.032C33.6289 149.032 32.3281 147.731 32.3281 146.059C32.3281 144.386 33.6289 143.085 35.3013 143.085C36.9738 142.993 38.2745 144.386 38.2745 146.059Z" fill="#F9FAFB"/>
<path d="M51.3761 146.059C51.3761 147.731 50.0753 149.032 48.4029 149.032C46.7305 149.032 45.4297 147.731 45.4297 146.059C45.4297 144.386 46.7305 143.085 48.4029 143.085C49.9824 142.993 51.3761 144.386 51.3761 146.059Z" fill="#F9FAFB"/>
<path d="M70.9788 158.602C70.9788 159.717 70.0496 160.646 68.9347 160.646C67.8197 160.646 66.8906 159.717 66.8906 158.602C66.8906 157.487 67.8197 156.558 68.9347 156.558C70.0496 156.558 70.9788 157.487 70.9788 158.602Z" fill="#F9FAFB"/>
<path d="M79.9006 158.602C79.9006 159.717 78.9715 160.646 77.8566 160.646C76.7416 160.646 75.8125 159.717 75.8125 158.602C75.8125 157.487 76.7416 156.558 77.8566 156.558C78.9715 156.558 79.9006 157.487 79.9006 158.602Z" fill="#F9FAFB"/>
<path d="M88.8225 158.602C88.8225 159.717 87.8934 160.646 86.7784 160.646C85.6635 160.646 84.7344 159.717 84.7344 158.602C84.7344 157.487 85.6635 156.558 86.7784 156.558C87.8934 156.558 88.8225 157.487 88.8225 158.602Z" fill="#F9FAFB"/>
<path d="M28.805 98.5802H27.9688V98.4873C28.2475 98.5802 28.5262 98.5802 28.805 98.5802Z" fill="#1ABC9C"/>
<path d="M34.8438 100.16L35.68 100.253C35.4012 100.16 35.1225 100.16 34.8438 100.16Z" fill="#2C3E50"/>
<path d="M305.679 91.8908C305.679 95.6073 302.706 98.5805 298.989 98.5805H298.896H264.612C264.333 98.5805 264.054 98.5805 263.775 98.4876C260.523 98.023 257.922 95.2356 257.922 91.8908C257.922 88.1743 260.895 85.2011 264.612 85.2011C265.448 85.2011 266.191 85.3869 266.934 85.6656C266.749 84.9223 266.656 84.0861 266.656 83.3428C266.656 77.768 271.208 73.2153 276.783 73.2153C281.243 73.2153 284.959 76.0956 286.353 79.998C287.468 79.2547 288.769 78.7901 290.163 78.7901C293.879 78.7901 296.852 81.7633 296.852 85.4798C296.852 85.5727 296.852 85.5727 296.852 85.6656C297.503 85.4798 298.153 85.294 298.896 85.294C302.706 85.294 305.679 88.2672 305.679 91.8908Z" fill="#0054A6"/>
<path d="M280.78 87.6168H277.714V94.864H275.112V87.6168H271.953L276.32 82.5066L280.78 87.6168Z" fill="#F9FAFB"/>
<path d="M290.444 89.7538H287.471V82.5066H284.869V89.7538H281.617L286.077 94.864L290.444 89.7538Z" fill="#F9FAFB"/>
<path d="M244.173 21.3699L232.188 28.3384V14.4944L244.173 21.3699Z" fill="#ED1C24"/>
<path d="M263.68 36.3289H211.742V37.7225H263.68V36.3289Z" fill="#2D2F31"/>
<path d="M240.173 36.3289H211.742V37.7225H240.173V36.3289Z" fill="#ED1C24"/>
<path d="M167.237 22.1131C167.237 27.6878 165.007 32.7051 161.384 36.3287C161.198 36.5145 161.105 36.6074 160.919 36.7932C157.296 40.231 152.371 42.368 146.982 42.368C141.779 42.368 137.041 40.4168 133.417 37.1649C133.324 37.072 133.324 37.072 133.231 36.9791C129.236 33.2626 126.82 28.0595 126.82 22.206C126.82 11.0565 135.833 2.04395 146.982 2.04395C158.132 2.04395 167.237 10.9636 167.237 22.1131Z" fill="#D2D9DC"/>
<path d="M147.07 23.7856C151.381 23.7856 154.875 20.2913 154.875 15.9809C154.875 11.6705 151.381 8.17627 147.07 8.17627C142.76 8.17627 139.266 11.6705 139.266 15.9809C139.266 20.2913 142.76 23.7856 147.07 23.7856Z" fill="#0054A6"/>
<path d="M161.016 36.7004C157.392 40.1382 152.468 42.2752 147.079 42.2752C141.876 42.2752 137.138 40.324 133.514 37.0721C133.421 36.9791 133.421 36.9791 133.328 36.8862C134.815 31.8689 138.717 27.9666 143.734 26.7588C144.849 26.48 146.057 26.2942 147.265 26.2942C148.194 26.2942 149.123 26.3871 150.052 26.5729C155.163 27.6879 159.437 31.5902 161.016 36.7004Z" fill="#0054A6"/>
<path d="M230.978 154.978C231.071 154.049 230.978 153.12 230.978 152.098C230.885 150.89 231.536 149.682 232.651 149.218L232.93 149.032C234.416 148.381 235.066 146.616 234.416 145.222L232.837 141.599C232.186 140.112 230.421 139.462 229.027 140.112C227.819 140.67 226.519 140.298 225.589 139.369C224.846 138.533 224.01 137.696 223.081 136.953C222.152 136.117 221.78 134.816 222.245 133.701L222.337 133.329C222.895 131.843 222.152 130.17 220.665 129.613L216.949 128.219C215.462 127.662 213.79 128.405 213.232 129.892L213.139 130.078C212.675 131.285 211.56 132.029 210.259 131.936C209.051 131.843 207.843 131.936 206.728 132.029C205.427 132.215 204.22 131.471 203.755 130.356L203.569 130.078C202.919 128.591 201.153 127.941 199.76 128.591L196.136 130.17C194.65 130.821 193.999 132.586 194.65 133.98L194.835 134.444C195.393 135.559 195.021 136.953 194.185 137.789C193.535 138.44 192.884 139.09 192.327 139.74C191.491 140.67 190.19 141.041 189.075 140.67L188.703 140.577C187.217 140.019 185.544 140.762 184.987 142.249L183.593 145.966C183.035 147.452 183.779 149.125 185.265 149.682L185.544 149.775C186.752 150.24 187.495 151.355 187.402 152.655C187.402 153.491 187.402 154.235 187.402 155.071C187.495 156.279 186.752 157.394 185.73 157.858L184.801 158.323C183.314 158.973 182.664 160.739 183.314 162.132L184.894 165.756C185.544 167.243 187.309 167.893 188.703 167.243L189.075 167.057C190.283 166.499 191.676 166.871 192.513 167.893C193.349 168.915 194.278 169.844 195.3 170.68C196.229 171.517 196.601 172.817 196.229 173.932L196.043 174.304C195.486 175.79 196.229 177.463 197.716 178.02L201.432 179.414C202.919 179.972 204.591 179.228 205.149 177.742L205.242 177.463C205.706 176.255 206.821 175.512 208.122 175.605C209.516 175.698 210.816 175.605 212.117 175.419C213.418 175.233 214.626 175.883 215.183 177.091L215.276 177.277C215.927 178.764 217.692 179.414 219.086 178.764L222.709 177.184C224.196 176.534 224.846 174.768 224.196 173.375L223.917 172.724C223.452 171.609 223.638 170.309 224.567 169.472C225.125 168.915 225.589 168.357 226.147 167.8C226.983 166.871 228.284 166.499 229.399 166.964L229.77 167.057C231.257 167.614 232.929 166.871 233.487 165.384L234.881 161.668C235.438 160.181 234.695 158.509 233.208 157.951L233.022 157.858C231.722 157.394 230.978 156.279 230.978 154.978ZM219.55 157.858C217.32 163.619 210.909 166.592 205.056 164.362C199.295 162.132 196.322 155.721 198.552 149.868C200.782 144.107 207.193 141.134 213.046 143.364C218.807 145.594 221.78 152.098 219.55 157.858Z" fill="#839299"/>
<path d="M256.621 134.816C256.621 134.259 256.621 133.701 256.621 133.144C256.528 132.4 256.993 131.75 257.643 131.471L257.829 131.378C258.665 131.007 259.037 129.985 258.665 129.148L257.736 127.104C257.364 126.268 256.342 125.896 255.506 126.268C254.856 126.547 254.02 126.361 253.555 125.804C253.09 125.339 252.626 124.874 252.161 124.41C251.604 123.945 251.418 123.202 251.604 122.459L251.697 122.273C252.068 121.437 251.604 120.415 250.675 120.136L248.538 119.3C247.701 118.928 246.679 119.393 246.401 120.322L246.308 120.415C246.029 121.065 245.379 121.53 244.635 121.53C243.985 121.53 243.242 121.53 242.591 121.622C241.848 121.715 241.105 121.344 240.826 120.6L240.733 120.415C240.361 119.578 239.339 119.207 238.503 119.578L236.459 120.508C235.623 120.879 235.251 121.901 235.623 122.737L235.716 123.016C235.994 123.667 235.809 124.41 235.344 124.967C234.972 125.339 234.601 125.711 234.229 126.082C233.765 126.64 233.021 126.826 232.278 126.64L232.092 126.547C231.256 126.175 230.234 126.64 229.955 127.569L229.119 129.706C228.747 130.542 229.212 131.564 230.141 131.843L230.234 131.936C230.884 132.215 231.349 132.865 231.349 133.608C231.349 134.073 231.349 134.537 231.349 135.002C231.349 135.745 230.977 136.396 230.327 136.674L229.769 136.953C228.933 137.325 228.561 138.347 228.933 139.183L229.862 141.227C230.234 142.063 231.256 142.435 232.092 142.063L232.278 141.97C232.928 141.692 233.765 141.877 234.229 142.435C234.694 142.992 235.251 143.55 235.809 144.014C236.366 144.479 236.552 145.222 236.366 145.873L236.273 146.059C235.902 146.895 236.366 147.917 237.295 148.195L239.432 149.032C240.268 149.403 241.291 148.939 241.569 148.01L241.662 147.824C241.941 147.173 242.591 146.709 243.335 146.709C244.078 146.709 244.914 146.709 245.657 146.616C246.401 146.523 247.144 146.895 247.423 147.638V147.731C247.794 148.567 248.816 148.939 249.653 148.567L251.697 147.638C252.533 147.266 252.905 146.244 252.533 145.408L252.347 145.036C252.068 144.386 252.161 143.643 252.719 143.178C252.997 142.899 253.369 142.528 253.648 142.249C254.112 141.692 254.856 141.506 255.506 141.785L255.692 141.877C256.528 142.249 257.55 141.785 257.829 140.855L258.665 138.718C259.037 137.882 258.572 136.86 257.643 136.581L257.55 136.489C256.993 136.21 256.528 135.559 256.621 134.816ZM249.931 136.489C248.631 139.833 244.914 141.506 241.569 140.298C238.224 138.997 236.552 135.281 237.76 131.936C239.061 128.591 242.777 126.919 246.122 128.126C249.56 129.427 251.232 133.144 249.931 136.489Z" fill="#5F737C"/>
</svg>
