<svg width="48" height="48" viewBox="0 0 48 48" fill="none" xmlns="http://www.w3.org/2000/svg">
<g clip-path="url(#clip0_11826_17324)">
<path d="M48 18.9C48 20.5 47.4 21.9 46.3 23C45.2 24.1 43.7 24.7 42.2 24.7H5.8C2.6 24.7 0 22.1 0 18.9C0 17.3 0.6 15.9 1.7 14.8C2.8 13.7 4.3 13.1 5.8 13.1H5.9C5.9 12.8 5.8 12.5 5.8 12.3C5.8 8.90001 8.6 6.10001 12 6.10001C12.6 6.10001 13.3 6.20001 13.9 6.40001C15.8 2.60001 19.7 0.200012 24 0.200012C28.2 0.200012 32.1 2.50001 34 6.20001C34.8 5.90001 35.5 5.80001 36.4 5.80001C40.4 5.80001 43.7 9.10001 43.7 13.1C43.7 13.2 43.7 13.3 43.7 13.3C46.2 13.9 48 16.2 48 18.9Z" fill="#0054A6"/>
<path d="M38.5984 16.9V44.5C38.5984 46.4 37.0984 47.9 35.1984 47.9H12.7984C10.8984 47.9 9.39844 46.4 9.39844 44.5V16.9C9.39844 15 10.8984 13.5 12.7984 13.5H35.2984C37.0984 13.5 38.5984 15 38.5984 16.9Z" fill="#D2D9DC"/>
<path d="M33.4031 20.6H14.7031C14.1031 20.6 13.7031 20.2 13.7031 19.6C13.7031 19 14.1031 18.6 14.7031 18.6H33.4031C34.0031 18.6 34.4031 19 34.4031 19.6C34.4031 20.1 33.9031 20.6 33.4031 20.6Z" fill="#5F737C"/>
<path d="M33.0016 31.4L30.8016 31C30.7016 30.8 30.6016 30.6 30.6016 30.4L31.9016 28.6C32.2016 28.2 32.1016 27.7 31.8016 27.3L29.9016 25.4C29.6016 25.1 29.0016 25 28.6016 25.3L26.8016 26.6C26.6016 26.5 26.4016 26.4 26.2016 26.3L25.9016 24.7L25.8016 24.1C25.8016 23.9 25.7016 23.8 25.6016 23.7C25.4016 23.4 25.1016 23.3 24.8016 23.3H22.1016C21.8016 23.3 21.5016 23.5 21.3016 23.7C21.2016 23.8 21.1016 24 21.1016 24.1L21.0016 24.7L20.7016 26.3C20.5016 26.4 20.3016 26.5 20.1016 26.6L18.3016 25.3C17.9016 25 17.4016 25.1 17.0016 25.4L15.1016 27.3C14.8016 27.6 14.7016 28.2 15.0016 28.6L16.3016 30.4C16.2016 30.6 16.1016 30.8 16.1016 31L13.9016 31.4C13.4016 31.5 13.1016 31.9 13.1016 32.4V35C13.1016 35.5 13.5016 35.9 13.9016 36L16.1016 36.4C16.2016 36.6 16.2016 36.8 16.3016 37L15.0016 38.8C14.7016 39.2 14.8016 39.7 15.1016 40.1L17.0016 42C17.3016 42.3 17.9016 42.4 18.3016 42.1L20.1016 40.8C20.3016 40.9 20.5016 41 20.6016 41L21.0016 43.2C21.1016 43.7 21.5016 44 22.0016 44H24.7016C25.2016 44 25.6016 43.7 25.7016 43.2L26.1016 41C26.3016 40.9 26.5016 40.9 26.6016 40.8L28.4016 42.1C28.8016 42.4 29.3016 42.3 29.7016 42L31.6016 40.1C31.9016 39.8 32.0016 39.2 31.7016 38.8L30.4016 37C30.5016 36.8 30.6016 36.6 30.6016 36.4L33.0016 36C33.5016 35.9 33.8016 35.5 33.8016 35V32.3C33.8016 31.8 33.5016 31.4 33.0016 31.4ZM23.5016 37.6C21.3016 37.6 19.5016 35.8 19.5016 33.6C19.5016 31.4 21.3016 29.6 23.5016 29.6C25.7016 29.6 27.5016 31.4 27.5016 33.6C27.4016 35.9 25.7016 37.6 23.5016 37.6Z" fill="#002548"/>
</g>
<defs>
<clipPath id="clip0_11826_17324">
<rect width="48" height="48" fill="white"/>
</clipPath>
</defs>
</svg>
