<svg width="114" height="114" viewBox="0 0 114 114" fill="none" xmlns="http://www.w3.org/2000/svg">
<path d="M82.2595 38.5859V44.2684H39.7934V38.5859H36.9863V45.6351C36.9863 46.4263 37.6341 47.0737 38.4259 47.0737H59.6589V52.7561H62.466V47.0737H83.699C84.4908 47.0737 85.1386 46.4263 85.1386 45.6351V38.5859H82.2595Z" fill="#54CC5A"/>
<path d="M90.7533 58.4386V89.5122H69.5203L66.7132 92.3175H55.4129L52.6058 89.5122H31.3008V58.4386C31.3008 55.3456 33.82 52.7561 36.9869 52.7561H85.0672C88.2341 52.7561 90.7533 55.2736 90.7533 58.4386Z" fill="#D2D9DC"/>
<path d="M36.9863 58.4385H85.0666V86.7069H36.9863V58.4385Z" fill="#0054A6"/>
<path opacity="0.19" d="M59.5859 86.7071H85.0656V61.2439C85.0656 75.2702 73.6933 86.7071 59.5859 86.7071Z" fill="#F9FAFB"/>
<path d="M69.5207 89.5122L66.7136 92.3175H55.4133L52.6062 89.5122H28.4941V92.3175C28.4941 95.4105 31.0133 97.9999 34.1803 97.9999H87.9467C91.0417 97.9999 93.6328 95.4824 93.6328 92.3175V89.5122H69.5207Z" fill="#839299"/>
<path d="M56.78 32.9754C56.78 29.0912 53.613 25.9263 49.7263 25.9263C49.2224 25.9263 48.7906 25.9982 48.2867 26.0702C48.2867 25.9982 48.2867 25.9982 48.2867 25.9263C48.2867 20.4596 43.8962 16 38.426 16C32.9558 16 28.4932 20.4596 28.4932 25.9263C28.4932 25.9982 28.4932 25.9982 28.4932 26.0702C27.9894 25.9982 27.5575 25.9263 27.0537 25.9263C23.167 25.9263 20 29.0912 20 32.9754C20 36.8596 23.167 40.0246 27.0537 40.0246H49.6543C53.613 40.0246 56.78 36.8596 56.78 32.9754Z" fill="#839299"/>
<path d="M83.6987 24.4877C89.9397 24.4877 94.999 22.5877 94.999 20.2439C94.999 17.9 89.9397 16 83.6987 16C77.4578 16 72.3984 17.9 72.3984 20.2439C72.3984 22.5877 77.4578 24.4877 83.6987 24.4877Z" fill="#FFDD33"/>
<path d="M83.6987 31.5368C77.4368 31.5368 72.3984 29.6667 72.3984 27.293V34.3421C72.3984 36.7158 77.4368 38.586 83.6987 38.586C89.9607 38.586 94.999 36.7158 94.999 34.3421V27.293C94.999 29.6667 89.8887 31.5368 83.6987 31.5368Z" fill="#FFDD33"/>
<path opacity="0.19" d="M83.6987 24.4877C89.9397 24.4877 94.999 22.5877 94.999 20.2439C94.999 17.9 89.9397 16 83.6987 16C77.4578 16 72.3984 17.9 72.3984 20.2439C72.3984 22.5877 77.4578 24.4877 83.6987 24.4877Z" fill="#F9FAFB"/>
<path opacity="0.19" d="M83.6987 31.5368C77.4368 31.5368 72.3984 29.6667 72.3984 27.293V34.3421C72.3984 36.7158 77.4368 38.586 83.6987 38.586C89.9607 38.586 94.999 36.7158 94.999 34.3421V27.293C94.999 29.6667 89.8887 31.5368 83.6987 31.5368Z" fill="#2D2F31"/>
<path d="M83.6987 24.4878C77.4368 24.4878 72.3984 22.6176 72.3984 20.2439V27.293C72.3984 29.6667 77.4368 31.5369 83.6987 31.5369C89.9607 31.5369 94.999 29.6667 94.999 27.293V20.2439C94.999 22.6176 89.8887 24.4878 83.6987 24.4878Z" fill="#FFDD33"/>
</svg>
