<svg width="536" height="400" viewBox="0 0 536 400" fill="none" xmlns="http://www.w3.org/2000/svg">
<g opacity="0.3">
<path d="M397.803 223.5C407.503 192.5 412.203 159.8 412.703 128.4C413.203 95.2 409.603 59.3 387.703 34.5C366.203 10.2 331.703 1.89997 299.303 0.399973C286.203 -0.200027 272.803 0.199974 260.303 4.39997C235.103 12.8 217.503 35.1 195.103 49.5C152.003 77.2 93.8026 73.9 52.3026 104C41.6026 111.7 32.5026 121.5 25.0026 132.3C-5.1974 175.6 -7.59739 235.6 15.5026 283C38.6026 330.5 84.9026 364.9 136.203 377.5C187.503 390.1 242.803 381.9 290.303 358.8C345.603 332 380.103 280.6 397.803 223.5Z" fill="#0054A6"/>
<path opacity="0.7" d="M397.803 223.5C407.503 192.5 412.203 159.8 412.703 128.4C413.203 95.2 409.603 59.3 387.703 34.5C366.203 10.2 331.703 1.89997 299.303 0.399973C286.203 -0.200027 272.803 0.199974 260.303 4.39997C235.103 12.8 217.503 35.1 195.103 49.5C152.003 77.2 93.8026 73.9 52.3026 104C41.6026 111.7 32.5026 121.5 25.0026 132.3C-5.1974 175.6 -7.59739 235.6 15.5026 283C38.6026 330.5 84.9026 364.9 136.203 377.5C187.503 390.1 242.803 381.9 290.303 358.8C345.603 332 380.103 280.6 397.803 223.5Z" fill="#0054A6"/>
</g>
<path opacity="0.3" d="M200.606 83.9999C173.106 101.3 148.206 123 127.406 146.5C105.406 171.4 84.8058 201 85.3058 234.1C85.8058 266.6 106.606 295.3 130.306 317.5C139.906 326.5 150.306 334.9 162.506 339.9C187.106 349.9 215.006 344.4 241.306 348C292.106 355 334.206 395.4 385.306 399.4C398.406 400.4 411.706 399 424.506 395.7C475.606 382.5 516.406 338.5 529.806 287.4C543.206 236.3 530.306 180 499.606 137.1C468.906 94.1999 421.506 64.4999 370.406 51.0999C310.906 35.5999 251.206 52.1999 200.606 83.9999Z" fill="#0054A6"/>
<path d="M339.498 15.4V96.3C339.498 98.7 337.598 100.7 335.098 100.7H227.198C226.798 100.7 226.398 100.6 225.998 100.5C224.198 100 222.898 98.3 222.898 96.3V15.4C222.898 13 224.798 11 227.298 11H335.198C337.598 11 339.498 13 339.498 15.4Z" fill="#6B9BCA"/>
<path d="M289.602 64.1001L291.502 63.2001C292.402 62.8001 292.902 61.9001 292.702 60.9001L292.302 58.6001C292.102 57.7001 291.402 57.0001 290.402 56.9001L288.202 56.7001C287.402 56.6001 286.802 56.2001 286.402 55.5001C286.002 54.6001 285.502 53.7001 285.002 52.9001C284.602 52.2001 284.602 51.4001 285.002 50.7001L285.902 49.1001L286.102 48.8001C286.602 48.0001 286.502 46.9001 285.802 46.2001L284.102 44.6001C283.402 43.9001 282.402 43.8001 281.502 44.3001L279.602 45.5001C278.902 45.9001 278.102 45.9001 277.402 45.5001C275.502 44.3001 273.402 43.5001 271.202 42.9001C270.402 42.7001 269.802 42.1001 269.602 41.4001L269.002 39.2001C268.802 38.3001 267.902 37.6001 267.002 37.6001H264.602C263.602 37.6001 262.802 38.2001 262.602 39.2001L262.002 41.5001C261.802 42.2001 261.202 42.8001 260.502 43.0001C259.602 43.2001 258.702 43.5001 257.802 43.9001C257.102 44.2001 256.202 44.0001 255.702 43.5001L253.902 41.9001C253.202 41.3001 252.102 41.2001 251.302 41.8001L249.402 43.1001C248.602 43.6001 248.302 44.7001 248.602 45.6001L249.502 47.8001C249.802 48.5001 249.602 49.3001 249.102 49.9001C248.502 50.6001 248.002 51.3001 247.502 52.1001C247.102 52.8001 246.302 53.1001 245.502 53.1001L243.102 52.9001C242.102 52.8001 241.202 53.4001 240.902 54.3001L240.102 56.5001C239.802 57.4001 240.102 58.4001 240.902 58.9001L242.902 60.2001C243.502 60.6001 243.902 61.4001 243.802 62.2001C243.702 63.0001 243.702 63.9001 243.702 64.7001C243.702 64.8001 243.702 65.0001 243.702 65.1001C243.702 65.8001 243.302 66.5001 242.602 66.8001L240.502 68.0001C239.702 68.5001 239.202 69.5001 239.502 70.4001L240.102 72.7001C240.302 73.6001 241.202 74.3001 242.102 74.3001H244.402C245.202 74.3001 245.902 74.7001 246.302 75.4001C246.702 76.1001 247.102 76.7001 247.502 77.4001C247.602 77.6001 247.702 77.7001 247.802 77.9001C248.202 78.5001 248.302 79.4001 248.002 80.0001L247.002 82.0001C246.602 82.9001 246.802 83.9001 247.502 84.5001L249.302 86.0001C250.002 86.6001 251.102 86.7001 251.902 86.1001L253.702 84.8001C254.302 84.3001 255.202 84.3001 255.902 84.6001C256.802 85.0001 257.702 85.4001 258.602 85.7001C259.302 86.0001 259.902 86.6001 260.002 87.3001L260.402 89.5001C260.602 90.4001 261.302 91.2001 262.302 91.2001L264.702 91.4001C265.702 91.5001 266.502 90.9001 266.902 90.0001L267.602 88.0001C267.902 87.3001 268.502 86.7001 269.302 86.6001C270.302 86.4001 271.302 86.2001 272.302 85.9001C273.002 85.7001 273.802 85.9001 274.402 86.4001L275.902 87.9001C276.602 88.6001 277.602 88.7001 278.402 88.2001L280.502 87.0001C281.302 86.5001 281.702 85.5001 281.502 84.6001L280.902 82.6001C280.702 81.8001 280.902 81.0001 281.502 80.5001C282.202 79.8001 282.902 79.1001 283.602 78.3001C284.102 77.7001 284.902 77.4001 285.602 77.5001L287.702 77.9001C288.602 78.1001 289.602 77.6001 290.002 76.7001L291.002 74.6001C291.402 73.7001 291.202 72.7001 290.402 72.1001L288.802 70.8001C288.202 70.3001 287.902 69.5001 288.102 68.8001C288.302 67.8001 288.402 66.9001 288.402 65.9001C288.402 65.1001 288.802 64.4001 289.602 64.1001ZM278.102 64.6001C278.102 71.5001 272.302 77.0001 265.302 76.6001C259.302 76.2001 254.502 71.4001 254.102 65.4001C253.702 58.4001 259.202 52.6001 266.102 52.6001C269.402 52.6001 272.402 53.9001 274.602 56.1001C276.802 58.3001 278.002 61.2001 278.102 64.6001Z" fill="#0054A6"/>
<path d="M319.297 40.3002L319.897 40.0002C320.597 39.7002 320.997 38.9002 320.897 38.2002L320.797 37.5002C320.697 36.7002 319.997 36.2002 319.297 36.1002L318.597 36.0002C317.997 36.0002 317.497 35.6002 317.197 35.1002C316.997 34.7002 316.797 34.3002 316.597 33.9002C316.297 33.4002 316.297 32.8002 316.597 32.3002L316.997 31.7002C317.397 31.0002 317.297 30.2002 316.697 29.7002L316.197 29.2002C315.697 28.7002 314.797 28.5002 314.197 29.0002L313.597 29.4002C313.097 29.7002 312.497 29.7002 311.997 29.4002C310.997 28.8002 309.797 28.3002 308.697 28.0002C308.097 27.8002 307.697 27.4002 307.497 26.8002L307.297 26.0002C307.097 25.2002 306.397 24.7002 305.697 24.7002H304.997C304.197 24.7002 303.497 25.2002 303.397 26.0002L303.197 26.8002C303.097 27.4002 302.597 27.8002 301.997 28.0002C301.597 28.1002 301.197 28.2002 300.797 28.4002C300.197 28.6002 299.597 28.5002 299.197 28.1002L298.497 27.5002C297.897 27.0002 297.097 27.0002 296.497 27.4002L295.897 27.8002C295.297 28.2002 294.997 29.1002 295.297 29.8002L295.597 30.6002C295.797 31.2002 295.697 31.8002 295.297 32.2002C294.997 32.5002 294.797 32.8002 294.597 33.2002C294.297 33.7002 293.697 34.0002 293.097 33.9002L292.297 33.8002C291.497 33.7002 290.797 34.2002 290.597 34.9002L290.297 35.6002C289.997 36.3002 290.297 37.1002 290.897 37.5002L291.697 38.0002C292.197 38.3002 292.397 38.9002 292.397 39.5002C292.397 39.9002 292.297 40.4002 292.297 40.8002C292.297 41.4002 291.997 41.9002 291.497 42.2002L290.697 42.6002C289.997 43.0002 289.697 43.8002 289.897 44.5002L290.097 45.2002C290.297 45.9002 290.997 46.5002 291.697 46.4002H292.497C293.097 46.4002 293.597 46.7002 293.897 47.2002C294.097 47.6002 294.397 48.0002 294.597 48.3002C294.897 48.8002 294.997 49.4002 294.697 49.9002L294.397 50.6002C294.097 51.3002 294.197 52.1002 294.797 52.6002L295.397 53.1002C295.997 53.6002 296.797 53.6002 297.397 53.2002L297.997 52.8002C298.497 52.5002 299.097 52.4002 299.597 52.6002C299.997 52.8002 300.397 53.0002 300.897 53.1002C301.397 53.3002 301.797 53.8002 301.897 54.4002L301.997 55.1002C302.097 55.9002 302.797 56.4002 303.497 56.5002L304.297 56.6002C305.097 56.7002 305.797 56.2002 305.997 55.5002L306.197 54.9002C306.397 54.3002 306.897 53.9002 307.497 53.8002C307.997 53.7002 308.397 53.6002 308.897 53.5002C309.497 53.3002 310.097 53.5002 310.497 53.9002L310.997 54.4002C311.497 54.9002 312.397 55.1002 312.997 54.7002L313.597 54.3002C314.297 53.9002 314.597 53.1002 314.397 52.4002L314.197 51.8002C313.997 51.2002 314.197 50.6002 314.597 50.2002C314.897 49.9002 315.297 49.5002 315.597 49.1002C315.997 48.6002 316.597 48.4002 317.197 48.5002L317.897 48.6002C318.597 48.7002 319.397 48.4002 319.697 47.7002L319.997 47.0002C320.297 46.3002 320.097 45.5002 319.497 45.0002L318.997 44.6002C318.497 44.2002 318.297 43.7002 318.397 43.1002C318.497 42.6002 318.497 42.1002 318.597 41.6002C318.397 41.1002 318.797 40.6002 319.297 40.3002ZM313.397 40.8002C313.397 45.4002 309.697 49.1002 305.097 49.1002C300.497 49.1002 296.797 45.4002 296.797 40.8002C296.797 36.2002 300.497 32.5002 305.097 32.5002C309.697 32.4002 313.397 36.1002 313.397 40.8002Z" fill="#0054A6"/>
<path d="M339.498 15.4V15.6H222.898V15.4C222.898 13 224.798 11 227.298 11H335.198C337.598 11 339.498 13 339.498 15.4Z" fill="#0054A6"/>
<path d="M229.402 13.2999C229.402 13.7999 229.002 14.1999 228.502 14.1999C228.002 14.1999 227.602 13.7999 227.602 13.2999C227.602 12.7999 228.002 12.3999 228.502 12.3999C229.002 12.4999 229.402 12.7999 229.402 13.2999Z" fill="#8EB3D7"/>
<path d="M233.597 13.2999C233.597 13.7999 233.197 14.1999 232.697 14.1999C232.197 14.1999 231.797 13.7999 231.797 13.2999C231.797 12.7999 232.197 12.3999 232.697 12.3999C233.197 12.4999 233.597 12.7999 233.597 13.2999Z" fill="#8EB3D7"/>
<path d="M237.8 13.2999C237.8 13.7999 237.4 14.1999 236.9 14.1999C236.4 14.1999 236 13.7999 236 13.2999C236 12.7999 236.4 12.3999 236.9 12.3999C237.4 12.4999 237.8 12.7999 237.8 13.2999Z" fill="#8EB3D7"/>
<path d="M499.9 179.7H392.4C386.4 179.7 381.5 174.8 381.5 168.8V150.2C381.5 144.2 386.4 139.3 392.4 139.3H499.9C505.9 139.3 510.8 144.2 510.8 150.2V168.8C510.8 174.8 505.9 179.7 499.9 179.7Z" fill="#6B9BCA"/>
<path d="M492.202 158.7H404.102V159.8H492.202V158.7Z" fill="#002548"/>
<path d="M464.902 159.7L450.602 150H415.502L401.702 159.7L401.102 158.8L415.102 148.9H450.902L465.502 158.8L464.902 159.7Z" fill="#002548"/>
<path d="M467.9 159.3C467.9 160.8 466.7 162 465.2 162C463.7 162 462.5 160.8 462.5 159.3C462.5 157.8 463.7 156.6 465.2 156.6C466.7 156.5 467.9 157.7 467.9 159.3Z" fill="#0054A6"/>
<path d="M415.302 152.2C416.793 152.2 418.002 150.991 418.002 149.5C418.002 148.009 416.793 146.8 415.302 146.8C413.81 146.8 412.602 148.009 412.602 149.5C412.602 150.991 413.81 152.2 415.302 152.2Z" fill="#0054A6"/>
<path d="M453.502 149.5C453.502 151 452.302 152.2 450.802 152.2C449.302 152.2 448.102 151 448.102 149.5C448.102 148 449.302 146.8 450.802 146.8C452.302 146.8 453.502 147.9 453.502 149.5Z" fill="#0054A6"/>
<path d="M480.802 169.6H415.102L401.102 159.7L401.702 158.8L415.502 168.5H480.402L491.902 158.8L492.602 159.7L480.802 169.6Z" fill="#002548"/>
<path d="M439.306 169.1C439.306 170.6 438.106 171.8 436.606 171.8C435.106 171.8 433.906 170.6 433.906 169.1C433.906 167.6 435.106 166.4 436.606 166.4C438.106 166.4 439.306 167.5 439.306 169.1Z" fill="#0054A6"/>
<path d="M418.002 169.1C418.002 170.6 416.802 171.8 415.302 171.8C413.802 171.8 412.602 170.6 412.602 169.1C412.602 167.6 413.802 166.4 415.302 166.4C416.802 166.3 418.002 167.5 418.002 169.1Z" fill="#0054A6"/>
<path d="M483.306 169.1C483.306 170.6 482.106 171.8 480.606 171.8C479.106 171.8 477.906 170.6 477.906 169.1C477.906 167.6 479.106 166.4 480.606 166.4C482.106 166.3 483.306 167.5 483.306 169.1Z" fill="#0054A6"/>
<path d="M492.2 162C493.691 162 494.9 160.791 494.9 159.3C494.9 157.808 493.691 156.6 492.2 156.6C490.709 156.6 489.5 157.808 489.5 159.3C489.5 160.791 490.709 162 492.2 162Z" fill="#0054A6"/>
<path d="M404.103 159.3C404.103 160.8 402.903 162 401.403 162C399.903 162 398.703 160.8 398.703 159.3C398.703 157.8 399.903 156.6 401.403 156.6C402.903 156.5 404.103 157.7 404.103 159.3Z" fill="#0054A6"/>
<path d="M161.902 161H89.0016C83.0016 161 78.1016 156.1 78.1016 150.1V77.2999C78.1016 71.2999 83.0016 66.3999 89.0016 66.3999H161.802C167.802 66.3999 172.702 71.2999 172.702 77.2999V150.1C172.802 156.1 167.902 161 161.902 161Z" fill="#6B9BCA"/>
<path d="M152.598 142.6H97.0984C96.8984 142.6 96.6984 142.5 96.5984 142.3C96.4984 142.1 96.4984 141.9 96.5984 141.8L108.898 118C108.998 117.7 109.398 117.6 109.598 117.8C109.898 117.9 109.998 118.3 109.798 118.5L97.8984 141.5H152.598C152.898 141.5 153.098 141.7 153.098 142C153.098 142.3 152.898 142.6 152.598 142.6Z" fill="#002548"/>
<path d="M152.602 107.8C152.502 107.8 152.502 107.8 152.402 107.8L126.502 100C126.302 99.9 126.202 99.8 126.102 99.6C126.102 99.4 126.202 99.2 126.302 99.1L152.202 81.9C152.402 81.7 152.802 81.8 152.902 82C153.102 82.2 153.002 82.6 152.802 82.7L127.802 99.3L152.602 106.8C152.902 106.9 153.002 107.2 153.002 107.5C153.102 107.7 152.802 107.8 152.602 107.8Z" fill="#002548"/>
<path d="M158.8 76.1001H146.5V88.4001H158.8V76.1001Z" fill="#0054A6"/>
<path d="M158.8 101.1H146.5V113.4H158.8V101.1Z" fill="#0054A6"/>
<path d="M132.902 93.3003H120.602V105.6H132.902V93.3003Z" fill="#0054A6"/>
<path d="M115.495 112.1H103.195V124.4H115.495V112.1Z" fill="#0054A6"/>
<path d="M103.198 135.9H90.8984V148.2H103.198V135.9Z" fill="#0054A6"/>
<path d="M158.8 135.9H146.5V148.2H158.8V135.9Z" fill="#0054A6"/>
<path d="M71.3 277.5H12.9C6.9 277.5 2 272.6 2 266.6V208.2C2 202.2 6.9 197.3 12.9 197.3H71.3C77.3 197.3 82.2 202.2 82.2 208.2V266.6C82.2 272.6 77.4 277.5 71.3 277.5Z" fill="#6B9BCA"/>
<path d="M63.9 205H10.5V209.1H63.9V205Z" fill="#0054A6"/>
<path d="M41.3 211.8H10.5V215.9H41.3V211.8Z" fill="#0054A6"/>
<path d="M28.5 218.601H10.5V222.701H28.5V218.601Z" fill="#0054A6"/>
<path d="M40.1 225.4H10.5V229.5H40.1V225.4Z" fill="#0054A6"/>
<path d="M56.6 232.201H10.5V236.301H56.6V232.201Z" fill="#0054A6"/>
<path d="M41.3 239H10.5V243.1H41.3V239Z" fill="#0054A6"/>
<path d="M32 245.8H10.5V249.9H32V245.8Z" fill="#0054A6"/>
<path d="M45.3 252.601H10.5V256.701H45.3V252.601Z" fill="#0054A6"/>
<path d="M52.7 259.4H10.5V263.5H52.7V259.4Z" fill="#0054A6"/>
<path d="M63.9 266.201H10.5V270.301H63.9V266.201Z" fill="#0054A6"/>
<path d="M63.9 205H10.5V209.1H63.9V205Z" fill="#0054A6"/>
<path d="M41.3 211.8H10.5V215.9H41.3V211.8Z" fill="#0054A6"/>
<path d="M28.5 218.601H10.5V222.701H28.5V218.601Z" fill="#0054A6"/>
<path d="M40.1 225.4H10.5V229.5H40.1V225.4Z" fill="#0054A6"/>
<path d="M56.6 232.201H10.5V236.301H56.6V232.201Z" fill="#0054A6"/>
<path d="M41.3 239H10.5V243.1H41.3V239Z" fill="#0054A6"/>
<path d="M32 245.8H10.5V249.9H32V245.8Z" fill="#0054A6"/>
<path d="M45.3 252.601H10.5V256.701H45.3V252.601Z" fill="#0054A6"/>
<path d="M52.7 259.4H10.5V263.5H52.7V259.4Z" fill="#0054A6"/>
<path d="M63.9 266.201H10.5V270.301H63.9V266.201Z" fill="#0054A6"/>
<path d="M62.6969 190.2H46.4969C43.6969 190.2 41.2969 192.5 41.2969 195.4V197.3H67.7969V195.4C67.7969 192.5 65.4969 190.2 62.6969 190.2Z" fill="#0054A6"/>
<path d="M49.3016 190.2H33.4016C30.5016 190.2 28.1016 192.6 28.1016 195.5V197.2H54.6016V195.5C54.6016 192.5 52.2016 190.2 49.3016 190.2Z" fill="#246CB2"/>
<path d="M35.1 190.2H18.5C15.8 190.2 13.5 192.4 13.5 195.2V197.3H40V195.2C40 192.4 37.8 190.2 35.1 190.2Z" fill="#6B9BCA"/>
<path d="M382.698 341.4C382.698 341.4 375.398 358 345.898 365C317.398 371.8 278.298 365.5 275.598 365.1C272.898 365.5 233.898 371.8 205.298 365.1C175.698 358.1 168.398 341.6 168.398 341.6L182.698 307.8L232.898 311.7L237.798 305.9L275.498 315.9L313.198 305.9L318.098 311.6L368.598 307.6L382.698 341.4Z" fill="#246CB2"/>
<path d="M281.5 372.4C281.3 372.4 281 372.2 281 372C281 371.7 281.2 371.5 281.4 371.4C281.5 371.4 291.1 370.2 295.8 368.6C296.1 368.5 296.3 368.7 296.4 368.9C296.5 369.2 296.3 369.4 296.1 369.5C291.3 371.1 282 372.4 281.5 372.4Z" fill="#AE3838"/>
<path d="M212.203 383.1C222.903 381.5 229.903 380.6 238.803 379.3C247.703 378 260.703 376.4 260.103 365.3C259.503 354.2 243.403 354.5 239.703 354.8C236.003 355.2 216.003 356 206.603 354.7C204.303 354.4 202.603 354.2 201.103 354.1C196.503 353.9 194.003 354.8 183.403 357C169.403 359.9 169.503 366.7 169.503 366.7C169.503 366.7 169.203 371.1 174.703 374.7C175.603 375.3 176.703 375.9 178.003 376.4C187.003 380 201.503 384.7 212.203 383.1Z" fill="#F9FAFB"/>
<path d="M257.206 365.3C257.206 365.3 258.806 369.1 249.506 372.4C240.206 375.7 232.306 378.4 227.506 376.1C222.706 373.8 220.806 365.6 223.306 360.5C225.806 355.4 234.906 356.7 239.206 357.9C243.506 359.1 252.206 359.2 255.106 361.5C258.206 363.8 257.206 365.3 257.206 365.3Z" fill="#B2CBE3"/>
<path d="M174.703 374.7C169.403 370 170.203 364.5 176.203 361.5C182.103 358.5 200.703 354.2 201.103 354.1C196.503 353.9 194.003 354.8 183.403 357C169.403 359.9 169.503 366.7 169.503 366.7C169.503 366.7 169.203 371.2 174.703 374.7Z" fill="#B2C9D8"/>
<path d="M217.302 372.1C217.102 372.1 216.802 372 216.702 371.8C216.602 371.6 213.602 366.9 216.402 362.3C216.602 362 217.102 361.8 217.402 362.1C217.702 362.3 217.902 362.8 217.602 363.1C215.202 367 217.702 370.9 217.802 371.1C218.002 371.4 217.902 371.9 217.602 372.1C217.602 372 217.502 372.1 217.302 372.1Z" fill="#212473"/>
<path d="M214.201 372.4C214.001 372.4 213.701 372.3 213.601 372.1C213.501 371.9 210.501 367.2 213.301 362.6C213.501 362.3 214.001 362.1 214.301 362.4C214.601 362.6 214.801 363.1 214.501 363.4C212.101 367.3 214.601 371.2 214.701 371.4C214.901 371.7 214.801 372.2 214.501 372.4C214.501 372.4 214.401 372.4 214.201 372.4Z" fill="#212473"/>
<path d="M211.099 372.4C210.899 372.4 210.599 372.3 210.499 372.1C210.399 371.9 207.399 367.2 210.199 362.6C210.399 362.3 210.899 362.1 211.199 362.4C211.499 362.6 211.699 363.1 211.399 363.4C208.999 367.3 211.499 371.2 211.599 371.4C211.799 371.7 211.699 372.2 211.399 372.4C211.399 372.4 211.299 372.4 211.099 372.4Z" fill="#212473"/>
<path d="M208.005 372.7C207.805 372.7 207.505 372.6 207.405 372.4C207.305 372.2 204.305 367.5 207.105 362.9C207.305 362.6 207.805 362.4 208.105 362.7C208.405 362.9 208.605 363.4 208.305 363.7C205.905 367.6 208.505 371.6 208.505 371.7C208.705 372 208.605 372.5 208.305 372.7C208.305 372.6 208.205 372.7 208.005 372.7Z" fill="#212473"/>
<path d="M251.002 375C245.402 375.4 240.802 375.6 238.102 375.7C236.402 375.8 235.402 375.8 235.402 375.8C235.402 375.8 230.102 372 229.102 358.2C229.102 358.2 232.802 356.9 238.702 354.9C240.002 354.5 241.302 354 242.802 353.5L248.302 354.2C248.302 354.2 252.902 364.5 253.702 367.7C254.002 369.3 252.502 372.5 251.002 375Z" fill="#B2CBE3"/>
<path d="M251.002 375L238.102 375.7L238.702 354.9C240.002 354.5 241.302 354 242.802 353.5L248.302 354.2C248.302 354.2 252.902 364.5 253.702 367.7C254.002 369.3 252.502 372.5 251.002 375Z" fill="#8EB3D7"/>
<path d="M363.305 354.3C354.605 358.5 339.605 362.3 323.105 365.5C287.505 372.5 245.105 376.9 245.105 376.9L239.805 350.5L282.905 335.8L360.605 309.3C360.605 309.3 378.805 301.2 385.005 319.7C391.105 338.2 380.005 346.3 363.305 354.3Z" fill="#4783BE"/>
<path d="M337.6 382.8C326.9 381.2 319.9 380.4 311 379.1C302.1 377.8 289.1 376.2 289.6 365.1C290.2 354 306.3 354.2 310 354.6C313.7 354.9 333.7 355.7 343.1 354.5C345.4 354.2 347.1 354 348.6 353.9C353.2 353.7 355.7 354.6 366.3 356.8C380.3 359.7 380.2 366.5 380.2 366.5C380.2 366.5 380.5 370.9 375 374.5C374.1 375.1 373 375.7 371.7 376.2C362.8 379.8 348.3 384.5 337.6 382.8Z" fill="#F9FAFB"/>
<path d="M292.499 365.1C292.499 365.1 290.899 369 300.199 372.2C309.499 375.5 317.399 378.2 322.199 375.9C326.999 373.6 328.799 365.4 326.299 360.3C323.799 355.2 314.699 356.5 310.399 357.7C306.099 358.9 297.399 359 294.499 361.4C291.599 363.7 292.499 365.1 292.499 365.1Z" fill="#B2CBE3"/>
<path d="M375.103 374.4C380.403 369.7 379.603 364.2 373.603 361.2C367.703 358.2 349.103 354 348.703 353.9C353.303 353.7 355.803 354.6 366.403 356.8C380.403 359.7 380.303 366.5 380.303 366.5C380.303 366.5 380.603 370.9 375.103 374.4Z" fill="#B2C9D8"/>
<path d="M332.399 371.9C332.599 371.9 332.899 371.8 332.999 371.6C333.099 371.4 336.099 366.7 333.199 362.1C332.999 361.8 332.499 361.7 332.199 361.9C331.899 362.1 331.699 362.6 331.999 362.9C334.399 366.7 331.899 370.7 331.799 370.9C331.599 371.2 331.699 371.7 331.999 371.9C332.199 371.8 332.299 371.9 332.399 371.9Z" fill="#212473"/>
<path d="M335.602 372.2C335.802 372.2 336.102 372.1 336.202 371.9C336.302 371.7 339.302 367 336.402 362.4C336.202 362.1 335.702 361.9 335.402 362.2C335.102 362.4 334.902 362.9 335.202 363.2C337.602 367 335.102 371 335.002 371.2C334.802 371.5 334.902 372 335.202 372.2C335.302 372.2 335.402 372.2 335.602 372.2Z" fill="#212473"/>
<path d="M338.696 372.2C338.896 372.2 339.196 372.1 339.296 371.9C339.396 371.7 342.396 367 339.496 362.4C339.296 362.1 338.796 361.9 338.496 362.2C338.196 362.4 337.996 362.9 338.296 363.2C340.696 367 338.196 371 338.096 371.2C337.896 371.5 337.996 372 338.296 372.2C338.396 372.2 338.496 372.2 338.696 372.2Z" fill="#212473"/>
<path d="M341.798 372.5C341.998 372.5 342.298 372.4 342.398 372.2C342.498 372 345.498 367.3 342.598 362.7C342.398 362.4 341.898 362.3 341.598 362.5C341.298 362.7 341.098 363.2 341.398 363.5C343.798 367.4 341.198 371.4 341.198 371.5C340.998 371.8 341.098 372.3 341.398 372.5C341.498 372.4 341.598 372.5 341.798 372.5Z" fill="#212473"/>
<path d="M298.701 374.8C304.301 375.2 308.901 375.3 311.601 375.4C313.301 375.5 314.301 375.5 314.301 375.5C314.301 375.5 319.601 371.7 320.601 357.9C320.601 357.9 316.901 356.6 311.001 354.6C309.701 354.2 308.401 353.7 306.901 353.2L301.401 353.9C301.401 353.9 296.801 364.2 296.101 367.4C295.801 369.1 297.301 372.3 298.701 374.8Z" fill="#B2CBE3"/>
<path d="M298.701 374.8L311.601 375.4L311.001 354.6C309.701 354.2 308.401 353.7 306.901 353.2L301.401 353.9C301.401 353.9 296.801 364.2 296.101 367.4C295.801 369.1 297.301 372.3 298.701 374.8Z" fill="#8EB3D7"/>
<path d="M304.702 376.8L309.902 350.4L189.002 309.4C189.002 309.4 170.802 301.3 164.702 319.8C158.602 338.3 169.702 346.4 186.402 354.4C213.902 367.5 304.702 376.8 304.702 376.8Z" fill="#4783BE"/>
<path d="M411.497 277.4L407.397 292.5C407.397 292.5 395.897 296.6 374.397 300.2C374.197 300.2 373.997 300.3 373.797 300.3C362.197 302.2 349.897 302.4 340.797 302.1L345.797 279C352.197 278.3 361.097 278.3 370.297 278.3C385.597 278.5 402.197 278.9 411.497 277.4Z" fill="#B2CBE3"/>
<path d="M370.297 278.4L374.397 300.2C374.197 300.2 373.997 300.3 373.797 300.3C362.197 302.2 349.897 302.4 340.797 302.1L345.797 279C352.197 278.4 360.997 278.4 370.297 278.4Z" fill="#8EB3D7"/>
<path d="M404.094 293.6C404.094 293.6 407.994 292.8 410.494 293.2C412.994 293.6 422.294 292.7 429.894 287.4C437.494 282.1 442.694 281.1 444.994 279.1C447.194 277.1 442.494 276 436.594 279.1C432.094 281.5 431.794 281 431.794 281C431.794 281 438.994 275.8 443.494 273.6C447.994 271.4 449.194 271 449.594 269.9C449.994 268.9 446.794 266.7 442.494 269.3C438.194 271.9 433.394 274 431.594 275.1C431.594 275.1 436.294 271.9 437.494 270.7C438.794 269.6 445.594 263.6 446.594 262.7C447.694 261.8 448.094 261 447.594 260.2C447.094 259.5 445.494 259.1 441.894 262.1C437.594 265.6 428.594 271.1 428.594 271.1C428.594 271.1 433.094 267.2 432.494 263.2C431.894 259.2 421.694 255.9 420.694 256C419.694 256.1 419.794 258.3 421.594 259.7C423.394 261.1 426.894 262.8 426.994 264.5C427.094 266.2 423.294 270.2 421.594 270.7C419.894 271.2 421.094 262.1 420.794 260.3C420.494 258.6 418.194 256.1 416.794 256.5C415.394 256.9 416.394 260.7 416.294 263.2C416.194 265.6 414.594 269.6 412.494 272.2C410.394 274.8 409.094 276.9 408.294 279.3C407.594 281.7 404.394 281.9 404.394 281.9L404.094 293.6Z" fill="#B2CBE3"/>
<path d="M415.491 282.6C415.291 282.6 415.191 282.5 415.091 282.3C414.991 282.1 414.991 281.8 415.291 281.6C418.991 279.5 421.291 274.3 421.291 274.3C421.391 274 421.691 273.9 421.991 274C422.291 274.1 422.391 274.4 422.291 274.7C422.191 274.9 419.891 280.3 415.791 282.5C415.691 282.6 415.591 282.6 415.491 282.6Z" fill="#002548"/>
<path d="M426.89 283.9C426.79 283.9 426.59 283.8 426.49 283.7C424.19 280.9 422.79 274.3 422.69 274C422.59 273.7 422.79 273.5 423.09 273.4C423.39 273.3 423.59 273.5 423.69 273.8C423.69 273.9 425.09 280.5 427.19 283.1C427.39 283.3 427.29 283.6 427.09 283.8C427.09 283.8 426.99 283.9 426.89 283.9Z" fill="#002548"/>
<path d="M362.697 277.4L363.597 302.9C363.597 302.9 340.697 304.6 333.897 302.2C330.897 301.2 326.997 292.4 324.097 285.2C321.197 278 317.897 267.5 317.897 267.5L309.797 205.5C309.797 205.5 318.597 206.4 325.997 214C332.397 220.6 343.697 270.8 348.297 275.5C350.997 278.4 353.897 276.2 362.697 277.4Z" fill="#F9FAFB"/>
<path d="M357.5 276.7C357.5 276.7 362.4 274.1 367.2 276.6L369.7 302.2C369.7 302.2 363.3 305.2 360.1 303.6L357.5 276.7Z" fill="#D5E2EF"/>
<path d="M143.398 277.7L147.598 292.8C147.598 292.8 159.098 296.9 180.598 300.5C180.798 300.5 180.998 300.6 181.198 300.6C192.798 302.5 205.098 302.6 214.198 302.4L209.098 279.3C202.698 278.7 193.798 278.6 184.498 278.7C169.398 278.7 152.798 279.2 143.398 277.7Z" fill="#B2CBE3"/>
<path d="M184.703 278.6L180.703 300.4C180.903 300.4 181.103 300.5 181.303 300.5C192.903 302.4 205.203 302.5 214.303 302.3L209.203 279.2C202.803 278.6 194.003 278.5 184.703 278.6Z" fill="#8EB3D7"/>
<path d="M150.899 293.9C150.899 293.9 146.999 293.1 144.499 293.5C141.999 293.9 132.699 293 125.099 287.7C117.499 282.4 112.199 281.5 109.999 279.4C107.799 277.4 112.499 276.3 118.399 279.4C122.899 281.8 123.199 281.3 123.199 281.3C123.199 281.3 115.999 276.1 111.399 273.9C106.899 271.7 105.699 271.3 105.299 270.2C104.899 269.2 108.099 267 112.399 269.6C116.699 272.2 121.499 274.3 123.299 275.4C123.299 275.4 118.599 272.2 117.299 271.1C115.999 270 109.199 264 108.199 263.1C107.099 262.2 106.699 261.4 107.199 260.6C107.699 259.9 109.299 259.5 112.899 262.5C117.199 266 126.299 271.4 126.299 271.4C126.299 271.4 121.799 267.5 122.399 263.5C122.999 259.5 133.199 256.2 134.199 256.3C135.199 256.4 135.099 258.6 133.299 260C131.499 261.4 127.999 263.1 127.899 264.8C127.799 266.5 131.599 270.5 133.299 271C134.999 271.5 133.799 262.4 133.999 260.6C134.299 258.9 136.599 256.4 137.899 256.8C139.299 257.2 138.299 261 138.399 263.5C138.499 265.9 140.199 269.9 142.199 272.5C144.299 275.1 145.699 277.2 146.399 279.6C147.099 282 150.299 282.2 150.299 282.2L150.899 293.9Z" fill="#B2CBE3"/>
<path d="M139.503 282.9C139.403 282.9 139.303 282.9 139.303 282.8C135.303 280.5 132.903 275.2 132.803 275C132.703 274.7 132.803 274.4 133.103 274.3C133.403 274.2 133.603 274.3 133.803 274.6C133.803 274.7 136.103 279.8 139.903 281.9C140.103 282 140.203 282.3 140.103 282.6C139.803 282.8 139.703 282.9 139.503 282.9Z" fill="#002548"/>
<path d="M128.099 284.2C127.999 284.2 127.899 284.2 127.799 284.1C127.599 283.9 127.598 283.6 127.698 283.4C129.798 280.8 131.198 274.2 131.198 274.1C131.298 273.8 131.499 273.7 131.799 273.7C132.099 273.8 132.198 274 132.198 274.3C132.098 274.6 130.798 281.2 128.498 284C128.398 284.1 128.299 284.2 128.099 284.2Z" fill="#002548"/>
<path d="M192.198 277.6L191.398 303.1C191.398 303.1 214.298 304.7 221.098 302.4C224.098 301.4 227.998 292.6 230.798 285.4C233.598 278.2 236.998 267.7 236.998 267.7L244.898 205.7C244.898 205.7 236.998 204.6 229.598 212.2C223.198 218.8 211.098 271.1 206.598 275.8C203.998 278.6 200.998 276.4 192.198 277.6Z" fill="#F9FAFB"/>
<path d="M197.498 276.8C197.498 276.8 192.598 274.2 187.798 276.7L185.398 302.3C185.398 302.3 191.798 305.2 194.998 303.7L197.498 276.8Z" fill="#D5E2EF"/>
<path d="M292.902 209.7L275.302 227L257.602 209.7C259.702 206.7 261.002 203.3 261.902 200C263.902 192.7 263.502 186.1 263.502 186.1H287.002C287.002 186.1 286.802 189.8 287.502 194.8C288.202 199.4 289.702 205 292.902 209.7Z" fill="#B2CBE3"/>
<path d="M287.498 194.8C282.698 197.2 273.998 200.3 261.898 200C263.898 192.7 263.498 186.1 263.498 186.1H286.998C286.998 186.1 286.798 189.8 287.498 194.8Z" fill="#8EB3D7"/>
<path d="M311.599 164C313.199 167.2 310.899 171.6 306.399 173.8C301.899 176 296.999 175.3 295.399 172.1C293.799 168.9 296.099 164.5 300.599 162.3C305.099 160.1 309.999 160.9 311.599 164Z" fill="#8EB3D7"/>
<path d="M238.801 164.6C237.301 167.8 239.601 172.2 244.101 174.3C248.601 176.5 253.501 175.6 255.001 172.4C256.501 169.2 254.201 164.8 249.701 162.7C245.201 160.5 240.301 161.4 238.801 164.6Z" fill="#8EB3D7"/>
<path d="M303.002 161.7C303.102 178.8 290.802 194.5 275.802 194.6C260.802 194.7 248.802 179.2 248.602 162.1C248.502 145 260.502 131 275.502 130.9C290.602 130.8 302.802 144.6 303.002 161.7Z" fill="#B2CBE3"/>
<path d="M251.6 159.1C251.6 159.1 253 155 254.2 152.9L260.6 152C260.6 152 260.6 154.6 264.6 154.7C268.7 154.8 287.1 153 295.4 150.6C295.4 150.6 299.4 154.4 299.9 157.4C299.9 157.4 303.3 151.4 299.9 147.4C296.5 143.4 288.6 135.3 286.3 135.4C284 135.4 262 135.4 262 135.4C262 135.4 254 145.3 253.2 145.5C252.5 145.7 251.7 147.8 251.7 147.8L249 157.4L251.6 159.1Z" fill="#8EB3D7"/>
<path d="M250.799 173.7C250.799 173.7 249.699 159.8 254.699 148L253.599 132.6C253.599 132.7 236.299 141.6 250.799 173.7Z" fill="#002548"/>
<path d="M301.005 173.7C301.005 173.7 302.105 159.8 297.005 148C297.005 148 283.405 151.4 270.505 152.2C257.505 153 266.705 148.5 267.805 148C266.905 148.3 258.805 151.1 251.505 150.6C251.405 150.6 251.305 150.6 251.205 150.6C250.105 150.5 249.005 150.4 247.905 150.1C247.405 150 246.905 149.8 246.505 149.6C245.405 149.1 244.405 148.4 243.605 147.8C240.805 145.4 239.805 142.5 239.805 142.5C242.405 139.7 244.505 136.9 245.705 135.2L245.805 135.1C246.205 134.5 246.505 134 246.705 133.8C246.805 133.7 246.805 133.6 246.805 133.6C249.105 130.4 253.005 126.4 259.105 123.1C271.005 116.8 292.705 120.1 298.005 132.7C298.005 132.6 315.405 141.6 301.005 173.7Z" fill="#002548"/>
<path d="M298.005 132.6C298.005 132.6 286.705 122.4 274.605 122.6C262.505 122.8 252.905 130 248.905 135.4C244.905 140.7 242.105 143.4 242.105 143.4C242.105 144.8 243.605 147.7 243.605 147.7C240.805 145.3 239.805 142.4 239.805 142.4C242.405 139.6 244.505 136.8 245.705 135.1L245.805 135C246.205 134.4 246.505 133.9 246.705 133.7C246.805 133.6 246.805 133.5 246.805 133.5C249.105 130.3 253.005 126.3 259.105 123C271.005 116.7 292.705 120 298.005 132.6Z" fill="#0054A6"/>
<path d="M274.601 175.7C274.301 175.7 274.101 175.6 274.001 175.3C272.201 171.4 273.501 165.9 273.501 165.7C273.601 165.3 273.901 165.1 274.301 165.2C274.701 165.3 274.901 165.6 274.801 166C274.801 166.1 273.601 171.3 275.201 174.8C275.401 175.1 275.201 175.5 274.901 175.7C274.801 175.7 274.701 175.7 274.601 175.7Z" fill="#002548"/>
<path d="M275.506 180.4C274.706 180.4 274.106 180.3 274.006 180.3C273.606 180.3 273.406 179.9 273.406 179.5C273.406 179.1 273.806 178.9 274.206 178.9C274.306 178.9 281.506 179.8 284.506 174.4C284.706 174.1 285.106 174 285.406 174.1C285.706 174.3 285.806 174.7 285.706 175C283.106 179.8 278.006 180.4 275.506 180.4Z" fill="#002548"/>
<path d="M291.6 160.9C291.4 160.9 291.2 160.8 291.1 160.7C288.8 158 284.301 156.8 281.701 157.4C281.301 157.5 281 157.3 280.9 156.9C280.8 156.5 281 156.2 281.4 156.1C284.4 155.4 289.501 156.7 292.201 159.9C292.401 160.2 292.4 160.6 292.1 160.8C291.9 160.8 291.7 160.9 291.6 160.9Z" fill="#002548"/>
<path d="M285.502 166.9C284.002 166.9 282.602 166.6 281.302 165.9C281.002 165.7 280.802 165.3 281.002 165C281.202 164.7 281.602 164.5 281.902 164.7C283.802 165.7 286.002 165.8 288.102 165.1C288.502 165 288.802 165.2 288.902 165.5C289.002 165.9 288.802 166.2 288.502 166.3C287.502 166.8 286.502 166.9 285.502 166.9Z" fill="#002548"/>
<path d="M257.803 160.9C257.603 160.9 257.503 160.8 257.403 160.7C257.103 160.5 257.103 160 257.303 159.8C260.003 156.7 265.003 155.3 268.103 156C268.503 156.1 268.703 156.4 268.603 156.8C268.503 157.2 268.203 157.4 267.803 157.3C265.203 156.7 260.703 157.9 258.403 160.7C258.203 160.8 258.003 160.9 257.803 160.9Z" fill="#002548"/>
<path d="M263.906 166.9C262.906 166.9 261.906 166.7 261.006 166.4C260.606 166.3 260.506 165.9 260.606 165.6C260.706 165.2 261.106 165.1 261.406 165.2C263.406 165.9 265.706 165.7 267.606 164.7C267.906 164.5 268.306 164.7 268.506 165C268.706 165.3 268.506 165.7 268.206 165.9C266.806 166.6 265.406 166.9 263.906 166.9Z" fill="#002548"/>
<path d="M319.999 310.5C321.799 313.2 309.399 320.6 275.499 324.3C275.099 324.2 274.599 324.2 274.199 324.1C273.699 324 273.299 324 272.799 323.9C240.999 320.1 229.199 313.1 230.999 310.5C232.099 308.9 232.599 306.9 232.799 305.5C232.799 305.3 232.799 305.2 232.799 305C232.699 301.8 232.399 298.2 232.099 294.3C230.599 275.7 227.399 250.8 227.699 234.8C228.099 212.4 230.399 207.9 240.899 205.6C245.799 204.5 253.799 204 260.799 203.7C260.799 203.7 264.499 215.3 275.399 215.2C286.399 215.2 289.999 203.6 289.999 203.6C291.699 203.7 293.399 203.7 295.099 203.8C300.599 204.1 306.099 204.6 309.899 205.4C320.399 207.7 322.699 212.2 323.199 234.6C323.299 237.8 320.799 266.6 319.399 287.2C318.899 294.7 318.499 301 318.299 304.7C318.299 306.3 318.699 308.7 319.999 310.5Z" fill="#F9FAFB"/>
<path d="M230.9 284.6C230.6 284.6 230.3 284.3 230.2 284C228.5 266.5 227.2 248.7 226.5 231.2C226.5 230.8 226.8 230.5 227.1 230.5C227.5 230.5 227.8 230.8 227.8 231.1C228.5 248.6 229.7 266.4 231.5 283.9C231.6 284.2 231.3 284.5 230.9 284.6Z" fill="#C7D7E2"/>
<path d="M228.402 258.7C228.202 258.7 228.002 258.6 227.902 258.5C225.402 255.7 223.002 252.6 221.002 249.3C220.802 249 220.902 248.6 221.202 248.4C221.502 248.2 221.902 248.3 222.102 248.6C224.102 251.8 226.302 254.8 228.802 257.6C229.002 257.9 229.002 258.3 228.702 258.5C228.702 258.7 228.602 258.7 228.402 258.7Z" fill="#C7D7E2"/>
<path d="M319.903 274C319.503 274 319.203 273.7 319.203 273.3C319.203 265.9 319.303 258.3 319.503 250.9C319.603 243.5 319.803 235.9 319.803 228.5C319.803 228.1 320.103 227.8 320.503 227.8C320.903 227.8 321.203 228.1 321.203 228.5C321.203 235.9 321.103 243.5 320.903 250.9C320.803 258.3 320.603 265.9 320.603 273.3C320.603 273.7 320.303 274 319.903 274Z" fill="#C7D7E2"/>
<path d="M320.1 257.5C319.9 257.5 319.7 257.4 319.6 257.3C319.4 257 319.4 256.6 319.7 256.4C322.3 254.1 324.6 251.5 326.5 248.5C326.7 248.2 327.1 248.1 327.4 248.3C327.7 248.5 327.8 248.9 327.6 249.2C325.7 252.3 323.3 255.1 320.6 257.4C320.4 257.5 320.2 257.5 320.1 257.5Z" fill="#C7D7E2"/>
<path d="M275.503 324.4C241.603 320.7 229.103 313.4 230.903 310.7C232.003 309.1 232.503 307.1 232.703 305.7C232.703 305.5 232.703 305.4 232.703 305.2C237.703 309.7 249.303 315.8 274.103 313.8C312.503 310.8 319.203 287.5 319.203 287.5C318.703 295 318.303 301.3 318.103 305C318.303 306.4 318.703 308.8 320.003 310.6C321.803 313.2 309.303 320.6 275.503 324.4Z" fill="#D5E2EF"/>
<path d="M271.702 220.6C271.702 220.6 269.502 241.6 277.802 251.4C286.102 261.1 293.202 269.8 293.002 291.7L304.702 297.5C304.702 297.5 303.502 268 291.102 257C278.702 246 277.102 237.8 276.302 235.1C275.502 232.5 274.702 222.2 274.702 222.2L271.702 220.6Z" fill="#C1D7E5"/>
<path d="M274.002 220.6L274.102 324.3C273.602 324.2 273.202 324.2 272.702 324.1L272.602 220.6H274.002Z" fill="#8EB3D7"/>
<path d="M279.305 254.8C279.305 255.6 278.605 256.3 277.805 256.3C277.005 256.3 276.305 255.6 276.305 254.8C276.305 254 277.005 253.3 277.805 253.3C278.605 253.3 279.305 254 279.305 254.8Z" fill="#8EB3D7"/>
<path d="M279.305 272.1C279.305 272.9 278.605 273.6 277.805 273.6C277.005 273.6 276.305 272.9 276.305 272.1C276.305 271.3 277.005 270.6 277.805 270.6C278.605 270.6 279.305 271.3 279.305 272.1Z" fill="#8EB3D7"/>
<path d="M279.305 288.9C279.305 289.7 278.605 290.4 277.805 290.4C277.005 290.4 276.305 289.7 276.305 288.9C276.305 288.1 277.005 287.4 277.805 287.4C278.605 287.4 279.305 288.1 279.305 288.9Z" fill="#8EB3D7"/>
<path d="M279.305 305.7C279.305 306.5 278.605 307.2 277.805 307.2C277.005 307.2 276.305 306.5 276.305 305.7C276.305 304.9 277.005 304.2 277.805 304.2C278.705 304.3 279.305 304.9 279.305 305.7Z" fill="#8EB3D7"/>
<path d="M308.503 273.5C305.503 263.2 287.403 252.4 282.503 244.3C279.003 238.4 277.703 228.6 277.303 223.7L282.703 218.3L275.203 215.3L267.703 218.3L273.203 223.8C272.803 250.7 286.503 255.2 291.903 265.9C297.503 277 297.403 292 297.403 292L306.003 298.7L311.203 290.1C311.403 290 311.503 283.8 308.503 273.5Z" fill="#0054A6"/>
<path d="M289.905 203.7C289.905 203.7 285.705 212.4 275.305 215.3C275.305 215.3 279.705 220.4 287.605 220.5C295.505 220.6 293.005 203.7 293.005 203.7H289.905Z" fill="#D5E2EF"/>
<path d="M260.601 203.8C260.601 203.8 264.901 212.5 275.201 215.3C275.201 215.3 270.801 220.4 262.901 220.6C255.001 220.7 257.501 203.8 257.501 203.8H260.601Z" fill="#D5E2EF"/>
</svg>
