<svg width="48" height="48" viewBox="0 0 48 48" fill="none" xmlns="http://www.w3.org/2000/svg">
<path d="M48 21.9C48 23.5 47.4 24.9 46.3 26C45.2 27.1 43.7 27.7 42.2 27.7H5.8C2.6 27.7 0 25.1 0 21.9C0 20.3 0.6 18.9 1.7 17.8C2.8 16.6 4.3 16 5.8 16H5.9C5.9 15.7 5.8 15.4 5.8 15.2C5.8 11.8 8.6 9.00001 12 9.00001C12.6 9.00001 13.3 9.10001 13.9 9.30001C15.8 5.50001 19.7 3.10001 24 3.10001C28.2 3.10001 32.1 5.40001 34 9.10001C34.8 8.80001 35.5 8.70001 36.4 8.70001C40.4 8.70001 43.7 12 43.7 16C43.7 16.1 43.7 16.2 43.7 16.2C46.2 16.9 48 19.2 48 21.9Z" fill="#D2D9DC"/>
<path fill-rule="evenodd" clip-rule="evenodd" d="M3.89688 40.5C3.59688 40.5 3.29688 40.2 3.29688 39.9C3.29688 39.6 3.59688 39.3 3.89688 39.3H5.69687C5.99687 39.3 6.29688 39.6 6.29688 39.9C6.29688 40.2 5.99687 40.5 5.69687 40.5H3.89688ZM8.09688 40.5C7.79688 40.5 7.49687 40.2 7.49687 39.9C7.49687 39.6 7.79688 39.3 8.09688 39.3H10.0969V30.4C10.0969 30.1 10.3969 29.8 10.6969 29.8C10.9969 29.8 11.2969 30.1 11.2969 30.4V39.9C11.2969 40.2 10.9969 40.5 10.6969 40.5H8.09688Z" fill="#002548"/>
<path fill-rule="evenodd" clip-rule="evenodd" d="M43.1984 39C43.4984 39 43.7984 39.3 43.7984 39.6C43.7984 39.9 43.4984 40.2 43.1984 40.2H41.3984C41.0984 40.2 40.7984 39.9 40.7984 39.6C40.7984 39.3 41.0984 39 41.3984 39H43.1984ZM39.0984 39C39.3984 39 39.6984 39.3 39.6984 39.6C39.6984 39.9 39.3984 40.2 39.0984 40.2H36.4984C36.1984 40.2 35.8984 39.9 35.8984 39.6V30.1C35.8984 29.8 36.1984 29.5 36.4984 29.5C36.7984 29.5 37.0984 29.8 37.0984 30.1V39H39.0984Z" fill="#002548"/>
<path fill-rule="evenodd" clip-rule="evenodd" d="M32.6016 43.7C32.9016 43.7 33.2016 44 33.2016 44.3C33.2016 44.6 32.9016 44.9 32.6016 44.9H31.5016C31.2016 44.9 30.9016 44.6 30.9016 44.3C30.9016 44 31.2016 43.7 31.5016 43.7H32.6016ZM29.2016 43.7C29.5016 43.7 29.8016 44 29.8016 44.3C29.8016 44.6 29.5016 44.9 29.2016 44.9H27.7016C27.4016 44.9 27.1016 44.6 27.1016 44.3V39.1C27.1016 38.8 27.4016 38.5 27.7016 38.5C28.0016 38.5 28.3016 38.8 28.3016 39.1V43.7H29.2016Z" fill="#002548"/>
<path fill-rule="evenodd" clip-rule="evenodd" d="M14.6 44.9C14.3 44.9 14 44.6 14 44.3C14 44 14.3 43.7 14.6 43.7H15.7C16 43.7 16.3 44 16.3 44.3C16.3 44.6 16 44.9 15.7 44.9H14.6ZM17.9 44.9C17.6 44.9 17.3 44.6 17.3 44.3C17.3 44 17.6 43.7 17.9 43.7H18.8V39.1C18.8 38.8 19.1 38.5 19.4 38.5C19.7 38.5 20 38.8 20 39.1V44.3C20 44.6 19.7 44.9 19.4 44.9H17.9Z" fill="#002548"/>
<path fill-rule="evenodd" clip-rule="evenodd" d="M23.6031 18.2L28.0031 23.8H25.8031V28.5H21.3031V23.8H19.2031L23.6031 18.2Z" fill="#54CC5A"/>
<path fill-rule="evenodd" clip-rule="evenodd" d="M43.1984 39C43.4984 39 43.7984 39.3 43.7984 39.6C43.7984 39.9 43.4984 40.2 43.1984 40.2H41.3984C41.0984 40.2 40.7984 39.9 40.7984 39.6C40.7984 39.3 41.0984 39 41.3984 39H43.1984ZM39.0984 39C39.3984 39 39.6984 39.3 39.6984 39.6C39.6984 39.9 39.3984 40.2 39.0984 40.2H36.4984C36.1984 40.2 35.8984 39.9 35.8984 39.6V30.1C35.8984 29.8 36.1984 29.5 36.4984 29.5C36.7984 29.5 37.0984 29.8 37.0984 30.1V39H39.0984Z" fill="#002548"/>
<path fill-rule="evenodd" clip-rule="evenodd" d="M32.6016 43.7C32.9016 43.7 33.2016 44 33.2016 44.3C33.2016 44.6 32.9016 44.9 32.6016 44.9H31.5016C31.2016 44.9 30.9016 44.6 30.9016 44.3C30.9016 44 31.2016 43.7 31.5016 43.7H32.6016ZM29.2016 43.7C29.5016 43.7 29.8016 44 29.8016 44.3C29.8016 44.6 29.5016 44.9 29.2016 44.9H27.7016C27.4016 44.9 27.1016 44.6 27.1016 44.3V39.1C27.1016 38.8 27.4016 38.5 27.7016 38.5C28.0016 38.5 28.3016 38.8 28.3016 39.1V43.7H29.2016Z" fill="#002548"/>
<path d="M37.6 21.9C37.3 21.6 37 21.5 36.5 21.5C35.8 21.5 35.3 21.1 35.1 20.5C34.9 19.7 34.5 18.9 34.2 18.2C33.9 17.6 34 16.9 34.5 16.4C35.1 15.8 35.1 14.9 34.5 14.3L33.2 13C32.6 12.4 31.7 12.4 31.1 13C30.6 13.5 29.9 13.6 29.3 13.3C28.6 12.9 27.8 12.6 27 12.4C26.7 12.3 26.4 12.1 26.2 11.9C26 11.6 25.9 11.3 25.9 11C25.9 10.2 25.2 9.5 24.4 9.5H22.6C22.2 9.5 21.8 9.7 21.5 9.9C21.2 10 21 10.4 21 10.8C21 11.5 20.6 12 20 12.2C19.2 12.4 18.4 12.8 17.7 13.1C17.1 13.4 16.4 13.3 15.9 12.8C15.3 12.2 14.4 12.2 13.8 12.8L12.5 14.1C11.9 14.7 11.9 15.6 12.5 16.2C13 16.7 13.1 17.4 12.8 18C12.4 18.7 12.1 19.5 11.9 20.3C11.8 20.6 11.6 20.9 11.4 21.1C11.1 21.3 10.8 21.4 10.5 21.4C9.7 21.4 9 22.1 9 22.9V24.7C9 25.1 9.2 25.5 9.4 25.8C9.7 26.1 10 26.2 10.5 26.2C11.2 26.2 11.7 26.6 11.9 27.2C12.1 28 12.5 28.8 12.8 29.5C13.1 30.1 13 30.8 12.5 31.3C11.9 31.9 11.9 32.8 12.5 33.4L13.8 34.7C14.4 35.3 15.3 35.3 15.9 34.7C16.4 34.2 17.1 34.1 17.7 34.4C18.4 34.8 19.2 35.1 20 35.4C20.3 35.5 20.6 35.7 20.8 35.9C21 36.2 21.1 36.5 21.1 36.8C21.1 37.6 21.8 38.3 22.6 38.3H24.4C24.8 38.3 25.2 38.1 25.5 37.9C25.8 37.6 25.9 37.3 25.9 36.8C25.9 36.1 26.3 35.6 26.9 35.4C27.7 35.2 28.5 34.8 29.2 34.4C29.8 34.1 30.5 34.2 31 34.7C31.6 35.3 32.5 35.3 33.1 34.7L34.4 33.4C35 32.8 35 31.9 34.4 31.3C33.9 30.8 33.8 30.1 34.1 29.5C34.5 28.8 34.8 28 35 27.2C35.1 26.9 35.3 26.6 35.5 26.4C35.8 26.2 36.1 26.1 36.4 26.1C37.2 26.1 37.9 25.4 37.9 24.6V22.8C38 22.5 37.8 22.1 37.6 21.9ZM23.5 32.3C18.8 32.3 15 28.5 15 23.8C15 19.1 18.8 15.3 23.5 15.3C28.2 15.3 32 19.1 32 23.8C31.9 28.5 28.1 32.3 23.5 32.3Z" fill="#0054A6"/>
</svg>
