<svg width="261" height="174" viewBox="0 0 261 174" fill="none" xmlns="http://www.w3.org/2000/svg">
<path d="M223.089 172.563H36.3629C33.6363 172.563 31.4375 170.36 31.4375 167.629V46.2891C31.4375 43.5575 33.6363 41.3545 36.3629 41.3545H223.089C225.815 41.3545 228.014 43.5575 228.014 46.2891V167.629C228.102 170.36 225.903 172.563 223.089 172.563Z" fill="#002548"/>
<path d="M224.138 173.356H35.3017C33.1028 173.356 31.3438 171.594 31.3438 169.391V53.5149H228.008V169.479C228.096 171.594 226.337 173.356 224.138 173.356Z" fill="#D2D9DC"/>
<path d="M219.829 49.285C220.801 49.285 221.588 48.496 221.588 47.5226C221.588 46.5493 220.801 45.7603 219.829 45.7603C218.858 45.7603 218.07 46.5493 218.07 47.5226C218.07 48.496 218.858 49.285 219.829 49.285Z" fill="#ED1C24"/>
<path d="M213.846 47.5226C213.846 48.4919 213.055 49.285 212.087 49.285C211.12 49.285 210.328 48.4919 210.328 47.5226C210.328 46.5533 211.12 45.7603 212.087 45.7603C213.055 45.7603 213.846 46.5533 213.846 47.5226Z" fill="#FFDD33"/>
<path d="M206.198 47.5226C206.198 48.4919 205.406 49.285 204.439 49.285C203.471 49.285 202.68 48.4919 202.68 47.5226C202.68 46.5533 203.471 45.7603 204.439 45.7603C205.406 45.7603 206.198 46.5533 206.198 47.5226Z" fill="#54CC5A"/>
<path d="M82.0068 160.403H44.7145C41.9879 160.403 39.7891 158.2 39.7891 155.468V118.458C39.7891 115.727 41.9879 113.524 44.7145 113.524H82.0068C84.7334 113.524 86.9322 115.727 86.9322 118.458V155.468C86.9322 158.2 84.7334 160.403 82.0068 160.403Z" fill="#0054A6"/>
<path d="M75.7629 140.312L73.7399 139.166C73.652 139.078 73.564 138.99 73.564 138.814C73.564 138.462 73.652 138.109 73.652 137.757C73.652 137.052 73.564 136.435 73.4761 135.73C73.4761 135.554 73.4761 135.465 73.652 135.377L75.3231 134.408C76.0267 134.056 76.2026 133.174 75.8508 132.469L73.564 128.504C73.2122 127.799 72.3327 127.623 71.629 127.975L69.782 129.033C69.6941 129.121 69.5182 129.121 69.4302 129.033C68.5507 128.328 67.5832 127.799 66.5277 127.447C66.3518 127.359 66.2639 127.27 66.2639 127.094V125.42C66.2639 124.627 65.6482 124.01 64.8566 124.01H60.283C59.4914 124.01 58.8758 124.627 58.8758 125.42V127.094C58.8758 127.27 58.7878 127.359 58.6119 127.447C57.4685 127.887 56.3251 128.504 55.4456 129.385C55.3576 129.473 55.1817 129.473 55.0938 129.385L54.0383 128.768C53.3347 128.416 52.4551 128.592 52.1033 129.297L49.8165 133.262C49.4647 133.967 49.6406 134.849 50.3443 135.201L51.4877 135.906C51.5756 135.994 51.6636 136.082 51.6636 136.259C51.5756 136.787 51.5756 137.228 51.5756 137.757C51.5756 138.55 51.6636 139.431 51.8395 140.224C51.8395 140.4 51.8395 140.488 51.6636 140.576L50.784 141.105C50.0804 141.458 49.9045 142.339 50.2563 143.044L52.5431 147.009C52.8949 147.714 53.7744 147.89 54.4781 147.538L55.7974 146.745C55.8853 146.657 56.0612 146.657 56.1492 146.745C57.1167 147.45 58.2601 147.978 59.4914 148.331C59.6673 148.331 59.7553 148.507 59.7553 148.683V150.005C59.7553 150.798 60.371 151.415 61.1626 151.415H65.7362C66.5277 151.415 67.1434 150.798 67.1434 150.005V147.978C67.1434 147.802 67.2314 147.714 67.3193 147.626C68.2868 147.185 69.2543 146.568 70.0459 145.775C70.1338 145.687 70.3097 145.687 70.4856 145.687L72.0688 146.568C72.7724 146.921 73.652 146.745 74.0038 146.04L76.2906 142.074C76.7304 141.546 76.4665 140.664 75.7629 140.312ZM63.0975 143.22C60.1071 143.22 57.6444 140.753 57.6444 137.757C57.6444 134.761 60.1071 132.293 63.0975 132.293C66.088 132.293 68.5507 134.761 68.5507 137.757C68.5507 140.753 66.088 143.22 63.0975 143.22Z" fill="#F9FAFB"/>
<path d="M138.558 78.0118H99.5948C97.308 78.0118 95.4609 76.1613 95.4609 73.8702V63.4722C95.4609 61.1811 97.308 59.3306 99.5948 59.3306H138.558C140.845 59.3306 142.692 61.1811 142.692 63.4722V73.8702C142.692 76.1613 140.845 78.0118 138.558 78.0118Z" fill="#839299"/>
<path d="M104.961 74.2226C107.973 74.2226 110.414 71.7766 110.414 68.7593C110.414 65.7419 107.973 63.2959 104.961 63.2959C101.949 63.2959 99.5078 65.7419 99.5078 68.7593C99.5078 71.7766 101.949 74.2226 104.961 74.2226Z" fill="#F9FAFB"/>
<path d="M136.801 66.1158H115.692C115.428 66.1158 115.164 65.8514 115.164 65.5871C115.164 65.3227 115.428 65.0583 115.692 65.0583H136.801C137.065 65.0583 137.328 65.3227 137.328 65.5871C137.328 65.9395 137.152 66.1158 136.801 66.1158Z" fill="#D2D9DC"/>
<path d="M136.801 69.7288H115.692C115.428 69.7288 115.164 69.4645 115.164 69.2001C115.164 68.9357 115.428 68.6714 115.692 68.6714H136.801C137.065 68.6714 137.328 68.9357 137.328 69.2001C137.328 69.4645 137.152 69.7288 136.801 69.7288Z" fill="#D2D9DC"/>
<path d="M131.609 73.2535H115.778C115.514 73.2535 115.25 72.9891 115.25 72.7248C115.25 72.4604 115.514 72.196 115.778 72.196H131.609C131.873 72.196 132.137 72.4604 132.137 72.7248C132.049 72.9891 131.873 73.2535 131.609 73.2535Z" fill="#D2D9DC"/>
<path d="M138.558 105.505H99.5948C97.308 105.505 95.4609 103.654 95.4609 101.363V90.9653C95.4609 88.6742 97.308 86.8237 99.5948 86.8237H138.558C140.845 86.8237 142.692 88.6742 142.692 90.9653V101.363C142.692 103.654 140.845 105.505 138.558 105.505Z" fill="#839299"/>
<path d="M110.414 96.2524C110.414 99.2485 107.951 101.716 104.961 101.716C101.971 101.716 99.5078 99.2485 99.5078 96.2524C99.5078 93.2564 101.971 90.7891 104.961 90.7891C108.039 90.7891 110.414 93.2564 110.414 96.2524Z" fill="#F9FAFB"/>
<path d="M136.801 93.6089H115.692C115.428 93.6089 115.164 93.3446 115.164 93.0802C115.164 92.8159 115.428 92.5515 115.692 92.5515H136.801C137.065 92.5515 137.328 92.8159 137.328 93.0802C137.328 93.4327 137.152 93.6089 136.801 93.6089Z" fill="#D2D9DC"/>
<path d="M136.801 97.2217H115.692C115.428 97.2217 115.164 96.9574 115.164 96.693C115.164 96.4287 115.428 96.1643 115.692 96.1643H136.801C137.065 96.1643 137.328 96.4287 137.328 96.693C137.328 96.9574 137.152 97.2217 136.801 97.2217Z" fill="#D2D9DC"/>
<path d="M131.609 100.747H115.778C115.514 100.747 115.25 100.482 115.25 100.218C115.25 99.9536 115.514 99.6892 115.778 99.6892H131.609C131.873 99.6892 132.137 99.9536 132.137 100.218C132.049 100.482 131.873 100.747 131.609 100.747Z" fill="#D2D9DC"/>
<path d="M205.668 160.579H166.704C164.417 160.579 162.57 158.729 162.57 156.438V146.04C162.57 143.748 164.417 141.898 166.704 141.898H205.668C207.954 141.898 209.801 143.748 209.801 146.04V156.438C209.801 158.729 207.954 160.579 205.668 160.579Z" fill="#839299"/>
<path d="M172.07 156.79C175.082 156.79 177.523 154.344 177.523 151.327C177.523 148.309 175.082 145.863 172.07 145.863C169.059 145.863 166.617 148.309 166.617 151.327C166.617 154.344 169.059 156.79 172.07 156.79Z" fill="#F9FAFB"/>
<path d="M203.91 148.683H182.801C182.537 148.683 182.273 148.419 182.273 148.154C182.273 147.89 182.537 147.626 182.801 147.626H203.91C204.174 147.626 204.438 147.89 204.438 148.154C204.438 148.507 204.262 148.683 203.91 148.683Z" fill="#D2D9DC"/>
<path d="M203.91 152.296H182.801C182.537 152.296 182.273 152.032 182.273 151.767C182.273 151.503 182.537 151.239 182.801 151.239H203.91C204.174 151.239 204.438 151.503 204.438 151.767C204.438 152.032 204.262 152.296 203.91 152.296Z" fill="#D2D9DC"/>
<path d="M198.719 155.821H182.887C182.623 155.821 182.359 155.557 182.359 155.292C182.359 155.028 182.623 154.763 182.887 154.763H198.719C198.983 154.763 199.246 155.028 199.246 155.292C199.246 155.557 198.983 155.821 198.719 155.821Z" fill="#D2D9DC"/>
<path d="M138.999 160.667H101.707C98.9801 160.667 96.7812 158.464 96.7812 155.733V118.723C96.7812 115.991 98.9801 113.788 101.707 113.788H138.999C141.726 113.788 143.924 115.991 143.924 118.723V155.733C143.924 158.464 141.726 160.667 138.999 160.667Z" fill="#F9FAFB"/>
<path d="M103.114 139.783C102.85 139.695 102.586 139.431 102.498 139.166C102.322 138.902 102.234 138.638 102.234 138.373C102.234 138.021 102.322 137.756 102.498 137.492C102.674 137.228 102.938 137.051 103.29 136.875L112.965 132.91C113.053 132.91 113.141 132.822 113.141 132.822C113.404 132.822 113.668 132.998 113.844 133.262C114.108 133.527 114.196 133.879 114.196 134.144C114.196 134.496 114.02 134.76 113.668 134.937L105.313 138.373L113.668 141.898C113.932 141.986 114.108 142.25 114.108 142.603C114.108 142.955 114.02 143.22 113.844 143.572C113.668 143.837 113.404 144.013 113.229 144.013C113.141 144.013 113.141 144.013 113.053 144.013L103.114 139.783Z" fill="#54CC5A"/>
<path d="M117.453 147.626C117.277 147.45 117.102 147.185 117.102 146.921C117.102 146.745 117.102 146.568 117.19 146.304L122.731 130.002C122.819 129.738 122.994 129.473 123.17 129.297C123.346 129.121 123.61 129.033 123.786 129.033C124.05 129.033 124.314 129.121 124.49 129.297C124.666 129.473 124.841 129.738 124.841 130.002C124.841 130.178 124.841 130.354 124.754 130.619L119.212 147.185C119.037 147.626 118.685 147.89 118.245 147.89C117.893 147.89 117.629 147.802 117.453 147.626Z" fill="#54CC5A"/>
<path d="M128.007 144.101C127.743 144.101 127.567 143.925 127.391 143.66C127.215 143.396 127.127 143.044 127.127 142.691C127.127 142.339 127.303 142.074 127.567 141.986L135.922 138.461L127.567 135.025C127.215 134.849 127.039 134.584 127.039 134.232C127.039 133.879 127.127 133.615 127.391 133.351C127.655 133.086 127.831 132.91 128.095 132.91C128.182 132.91 128.182 132.91 128.27 132.998L137.945 136.963C138.297 137.14 138.561 137.316 138.737 137.58C138.913 137.845 139.001 138.109 139.001 138.461C139.001 138.726 138.913 138.99 138.737 139.254C138.561 139.519 138.385 139.695 138.121 139.783L128.27 144.013C128.095 144.013 128.007 144.101 128.007 144.101Z" fill="#54CC5A"/>
<path d="M112.266 1.2605H99.8644C98.9849 1.2605 98.2812 1.96545 98.2812 2.84664V22.9377C98.2812 23.8189 98.9849 24.5239 99.8644 24.5239H115.08C115.96 24.5239 116.664 23.8189 116.664 22.9377V5.4902L112.266 1.2605Z" fill="#D2D9DC"/>
<path d="M112.266 1.2605L116.751 5.4902H113.057C112.617 5.4902 112.266 5.13772 112.266 4.69713V1.2605Z" fill="#839299"/>
<path d="M112.789 15.6237H102.147C101.971 15.6237 101.883 15.5356 101.883 15.3593C101.883 15.1831 101.971 15.095 102.147 15.095H112.789C112.965 15.095 113.053 15.1831 113.053 15.3593C113.053 15.4474 112.877 15.6237 112.789 15.6237Z" fill="#4CA3E9"/>
<path d="M112.789 12.7157H102.147C101.971 12.7157 101.883 12.6276 101.883 12.4514C101.883 12.2751 101.971 12.187 102.147 12.187H112.789C112.965 12.187 113.053 12.2751 113.053 12.4514C113.053 12.5395 112.877 12.7157 112.789 12.7157Z" fill="#839299"/>
<path d="M112.789 9.80801H102.147C101.971 9.80801 101.883 9.71989 101.883 9.54365C101.883 9.36742 101.971 9.2793 102.147 9.2793H112.789C112.965 9.2793 113.053 9.36742 113.053 9.54365C113.053 9.63177 112.877 9.80801 112.789 9.80801Z" fill="#839299"/>
<path d="M112.789 6.81192H102.147C101.971 6.81192 101.883 6.7238 101.883 6.54756C101.883 6.37132 101.971 6.2832 102.147 6.2832H112.789C112.965 6.2832 113.053 6.37132 113.053 6.54756C113.053 6.7238 112.877 6.81192 112.789 6.81192Z" fill="#839299"/>
<path d="M110.15 18.1791H102.147C101.971 18.1791 101.883 18.091 101.883 17.9147C101.883 17.7385 101.971 17.6504 102.147 17.6504H110.15C110.326 17.6504 110.414 17.7385 110.414 17.9147C110.414 18.091 110.238 18.1791 110.15 18.1791Z" fill="#4CA3E9"/>
<path d="M113.056 11.6584L111.297 13.5089H96.9604C95.817 13.5089 94.9375 14.39 94.9375 15.5356V30.4277C94.9375 31.5732 95.817 32.4544 96.9604 32.4544L119.477 32.3663C120.62 32.3663 121.5 31.4851 121.5 30.3396V15.095V13.4207V12.3633C121.5 11.7465 120.972 11.2178 120.356 11.2178H113.76C113.584 11.3059 113.232 11.4821 113.056 11.6584Z" fill="#FFBD86"/>
<path d="M124.488 25.0525H121.586V19.6772H124.488C125.28 19.6772 125.896 20.2941 125.896 21.0871V23.6426C125.896 24.4357 125.28 25.0525 124.488 25.0525Z" fill="#002548"/>
<path d="M175.326 38.3584V41.2663H169.961V38.3584C169.961 37.5653 170.577 36.9485 171.368 36.9485H173.919C174.622 36.9485 175.326 37.5653 175.326 38.3584Z" fill="#002548"/>
<path d="M173.043 41.2663H172.252V30.6039C172.252 26.2861 168.733 22.7613 164.424 22.7613H123.789V21.9683H164.424C169.173 21.9683 173.043 25.8455 173.043 30.6039V41.2663Z" fill="#002548"/>
<path d="M231.004 66.5564H228.102V61.1812H231.004C231.796 61.1812 232.411 61.798 232.411 62.5911V65.1465C232.411 65.9396 231.796 66.5564 231.004 66.5564Z" fill="#002548"/>
<path d="M250.529 133.791V136.699H245.164V133.791C245.164 132.998 245.78 132.381 246.571 132.381H249.122C249.826 132.381 250.529 132.998 250.529 133.791Z" fill="#002548"/>
<path d="M248.239 136.699H247.448V72.1078C247.448 67.79 243.93 64.2652 239.62 64.2652H230.297V63.4722H239.62C244.369 63.4722 248.239 67.3494 248.239 72.1078V136.699Z" fill="#002548"/>
<path d="M18.5917 19.1484V16.2405H13.2266V19.1484C13.2266 19.9415 13.8422 20.5583 14.6338 20.5583H17.1845C17.9761 20.5583 18.5917 19.8534 18.5917 19.1484Z" fill="#002548"/>
<path d="M66.7891 38.3584V41.2663H72.1542V38.3584C72.1542 37.5653 71.5386 36.9485 70.747 36.9485H68.1963C67.4047 36.9485 66.7891 37.5653 66.7891 38.3584Z" fill="#002548"/>
<path d="M69.869 39.5921H69.0774V36.8604C69.0774 32.8951 65.9111 29.7228 61.9532 29.7228H24.221C19.4715 29.7228 15.6016 25.8456 15.6016 21.0872V18.3555H16.3931V21.0872C16.3931 25.405 19.9113 28.9297 24.221 28.9297H61.9532C66.3508 28.9297 69.869 32.4545 69.869 36.8604V39.5921Z" fill="#002548"/>
<path d="M180.775 65.1465H156.588C154.829 65.1465 153.422 66.5564 153.422 68.3188V107.532C153.422 109.294 154.829 110.704 156.588 110.704H186.317C188.076 110.704 189.483 109.294 189.483 107.532V73.4297L180.775 65.1465Z" fill="#839299"/>
<path d="M180.781 65.1465L189.489 73.4297H182.364C181.485 73.4297 180.781 72.7247 180.781 71.8435V65.1465Z" fill="#F9FAFB"/>
<path d="M181.744 97.7505H161.075C160.811 97.7505 160.547 97.4862 160.547 97.2218C160.547 96.9575 160.811 96.6931 161.075 96.6931H181.744C182.008 96.6931 182.271 96.9575 182.271 97.2218C182.271 97.5743 182.096 97.7505 181.744 97.7505Z" fill="#D2D9DC"/>
<path d="M181.744 92.1109H161.075C160.811 92.1109 160.547 91.8465 160.547 91.5822C160.547 91.3178 160.811 91.0535 161.075 91.0535H181.744C182.008 91.0535 182.271 91.3178 182.271 91.5822C182.271 91.8465 182.096 92.1109 181.744 92.1109Z" fill="#D2D9DC"/>
<path d="M181.744 86.4712H161.075C160.811 86.4712 160.547 86.2069 160.547 85.9425C160.547 85.6782 160.811 85.4138 161.075 85.4138H181.744C182.008 85.4138 182.271 85.6782 182.271 85.9425C182.271 86.2069 182.096 86.4712 181.744 86.4712Z" fill="#D2D9DC"/>
<path d="M181.744 80.7435H161.075C160.811 80.7435 160.547 80.4791 160.547 80.2148C160.547 79.9504 160.811 79.686 161.075 79.686H181.744C182.008 79.686 182.271 79.9504 182.271 80.2148C182.271 80.4791 182.096 80.7435 181.744 80.7435Z" fill="#D2D9DC"/>
<path d="M176.642 102.773H161.075C160.811 102.773 160.547 102.509 160.547 102.245C160.547 101.98 160.811 101.716 161.075 101.716H176.642C176.906 101.716 177.17 101.98 177.17 102.245C177.17 102.597 176.906 102.773 176.642 102.773Z" fill="#D2D9DC"/>
<path d="M158.171 72.196C159.289 72.196 160.194 71.2886 160.194 70.1693C160.194 69.05 159.289 68.1426 158.171 68.1426C157.054 68.1426 156.148 69.05 156.148 70.1693C156.148 71.2886 157.054 72.196 158.171 72.196Z" fill="#0054A6"/>
<path d="M204.354 88.8506H180.166C178.407 88.8506 177 90.2605 177 92.0229V131.236C177 132.998 178.407 134.408 180.166 134.408H209.895C211.654 134.408 213.061 132.998 213.061 131.236V97.1338L204.354 88.8506Z" fill="white"/>
<path d="M204.352 88.8506L213.059 97.1338H205.935C205.055 97.1338 204.352 96.4288 204.352 95.5476V88.8506Z" fill="#839299"/>
<path d="M205.408 121.543H184.739C184.475 121.543 184.211 121.278 184.211 121.014C184.211 120.749 184.475 120.485 184.739 120.485H205.408C205.672 120.485 205.936 120.749 205.936 121.014C205.936 121.366 205.672 121.543 205.408 121.543Z" fill="#D2D9DC"/>
<path d="M205.408 115.903H184.739C184.475 115.903 184.211 115.639 184.211 115.374C184.211 115.11 184.475 114.845 184.739 114.845H205.408C205.672 114.845 205.936 115.11 205.936 115.374C205.936 115.639 205.672 115.903 205.408 115.903Z" fill="#D2D9DC"/>
<path d="M205.408 110.175H184.739C184.475 110.175 184.211 109.911 184.211 109.647C184.211 109.382 184.475 109.118 184.739 109.118H205.408C205.672 109.118 205.936 109.382 205.936 109.647C205.936 109.999 205.672 110.175 205.408 110.175Z" fill="#D2D9DC"/>
<path d="M205.408 104.536H184.739C184.475 104.536 184.211 104.271 184.211 104.007C184.211 103.743 184.475 103.478 184.739 103.478H205.408C205.672 103.478 205.936 103.743 205.936 104.007C205.936 104.271 205.672 104.536 205.408 104.536Z" fill="#D2D9DC"/>
<path d="M200.221 126.565H184.653C184.389 126.565 184.125 126.301 184.125 126.037C184.125 125.772 184.389 125.508 184.653 125.508H200.221C200.484 125.508 200.748 125.772 200.748 126.037C200.748 126.389 200.572 126.565 200.221 126.565Z" fill="#D2D9DC"/>
<path d="M183.772 93.9613C183.772 95.1069 182.893 95.988 181.75 95.988C180.606 95.988 179.727 95.1069 179.727 93.9613C179.727 92.8158 180.606 91.9346 181.75 91.9346C182.893 91.9346 183.772 92.8158 183.772 93.9613Z" fill="#0054A6"/>
<path d="M216.839 81.2722H200.392C199.6 81.2722 198.984 80.6553 198.984 79.8623V63.4722C198.984 62.6791 199.6 62.0623 200.392 62.0623H216.839C217.631 62.0623 218.246 62.6791 218.246 63.4722V79.8623C218.246 80.5672 217.631 81.2722 216.839 81.2722Z" fill="#0054A6"/>
<path d="M208.305 73.9582L210.504 71.7553C210.592 71.6671 210.768 71.6671 210.856 71.6671C211.911 72.0196 213.054 71.7553 213.846 71.0503C214.462 70.4335 214.726 69.7285 214.814 68.9355C214.814 68.583 214.462 68.4067 214.198 68.6711L213.23 69.6404C212.966 69.9048 212.703 69.9048 212.615 69.7285L210.944 68.0543C210.768 67.878 210.768 67.7018 210.944 67.5256L212.087 66.38C212.351 66.1157 212.175 65.7632 211.823 65.7632C211.119 65.7632 210.328 66.1157 209.8 66.6444C209.009 67.4374 208.745 68.6711 209.097 69.7285C209.184 69.9048 209.097 69.9929 209.009 70.081L206.81 72.284C206.722 72.3721 206.546 72.3721 206.458 72.3721C205.402 72.0196 204.259 72.284 203.467 72.9889C202.852 73.6058 202.588 74.3107 202.5 75.1038C202.5 75.4563 202.852 75.6325 203.116 75.3681L204.259 74.2226C204.435 74.0464 204.611 74.0464 204.787 74.2226L206.458 75.8968C206.634 76.0731 206.634 76.2493 206.458 76.4256L205.315 77.5711C205.051 77.8355 205.227 78.1879 205.578 78.1879C206.282 78.1879 207.074 77.8355 207.601 77.3067C208.393 76.5137 208.657 75.28 208.305 74.2226C208.217 74.1345 208.217 74.0463 208.305 73.9582Z" fill="white"/>
<path d="M219.042 31.3971C219.13 31.3971 226.518 31.3971 226.518 31.3971H243.669H250.178C254.224 31.3971 257.566 28.0486 257.566 23.9951C257.566 19.9417 254.224 16.5931 250.178 16.5931C250.09 16.5931 250.09 16.5931 250.002 16.5931C248.858 9.3674 242.614 3.81592 235.138 3.81592C229.245 3.81592 224.055 7.25255 221.593 12.1872C220.801 11.9228 219.922 11.8347 219.042 11.8347C213.677 11.8347 209.367 16.1526 209.367 21.5278C209.367 26.903 213.677 31.3971 219.042 31.3971Z" fill="#0054A6"/>
<path d="M46.8271 100.13H9.53478C6.80822 100.13 4.60938 97.9267 4.60938 95.195V58.1851C4.60938 55.4535 6.80822 53.2505 9.53478 53.2505H46.8271C49.5537 53.2505 51.7525 55.4535 51.7525 58.1851V95.195C51.8405 97.9267 49.5537 100.13 46.8271 100.13Z" fill="#54CC5A"/>
<path d="M50.0802 103.831H6.27924C3.28881 103.831 0.914062 101.452 0.914062 98.4555V54.8367C0.914062 51.8406 3.28881 49.4614 6.27924 49.4614H50.1681C53.1586 49.4614 55.5333 51.8406 55.5333 54.8367V98.4555C55.5333 101.363 53.0706 103.831 50.0802 103.831ZM6.27924 51.0476C4.16835 51.0476 2.49723 52.7218 2.49723 54.8367V98.4555C2.49723 100.57 4.16835 102.245 6.27924 102.245H50.1681C52.279 102.245 53.9501 100.57 53.9501 98.4555V54.8367C53.9501 52.7218 52.279 51.0476 50.1681 51.0476H6.27924Z" fill="#54CC5A"/>
<path d="M11.4699 89.5553H28.269C29.6763 89.5553 30.4679 88.0573 29.6763 86.9118L21.3207 74.5751C20.6171 73.6058 19.2098 73.6058 18.5062 74.5751L10.1506 86.9118C9.27103 87.9692 10.0626 89.5553 11.4699 89.5553Z" fill="#F9FAFB"/>
<path d="M27.2121 89.5553H44.0112C45.4185 89.5553 46.2101 88.0573 45.4185 86.9118L37.0629 74.5751C36.3592 73.6058 34.952 73.6058 34.2484 74.5751L25.8928 86.9118C25.0132 87.9692 25.8048 89.5553 27.2121 89.5553Z" fill="#F9FAFB"/>
<path d="M30.7351 66.9088C30.7351 68.6712 29.3279 70.1692 27.4809 70.1692C25.7218 70.1692 24.2266 68.7593 24.2266 66.9088C24.2266 65.1465 25.6338 63.6484 27.4809 63.6484C29.3279 63.7366 30.7351 65.1465 30.7351 66.9088Z" fill="#F9FAFB"/>
<path d="M74.9732 86.8237L68.2887 93.5207C68.0249 93.7851 67.673 93.6088 67.5851 93.3445L65.2983 84.3563C65.2103 84.0039 65.4742 83.7395 65.826 83.8276L74.7093 86.0306C75.0612 86.2068 75.1491 86.5593 74.9732 86.8237Z" fill="#002548"/>
<path d="M75.1527 94.1375L75.5925 93.6969C75.9443 93.3444 75.9443 92.8157 75.5925 92.5514L71.0189 87.9692C70.6671 87.6167 70.1394 87.6167 69.8755 87.9692L69.4357 88.4098C69.0839 88.7623 69.0839 89.291 69.4357 89.5553L74.0093 94.1375C74.3611 94.49 74.8889 94.49 75.1527 94.1375Z" fill="#002548"/>
<path d="M177.228 26.0302C178.173 22.0031 175.681 17.971 171.661 17.0241C167.642 16.0772 163.617 18.5742 162.672 22.6012C161.727 26.6283 164.219 30.6604 168.239 31.6073C172.258 32.5542 176.283 30.0572 177.228 26.0302Z" fill="#002548"/>
<path d="M171.806 20.4703C171.806 20.3821 171.718 20.294 171.63 20.2059C171.63 20.2059 171.63 20.2059 171.63 20.1178C171.542 20.0297 171.542 19.9416 171.454 19.9416C171.454 19.9416 171.454 19.9416 171.366 19.8534C171.19 19.6772 171.014 19.5891 170.838 19.501H170.75C170.662 19.501 170.574 19.4128 170.486 19.4128H170.398C170.31 19.4128 170.223 19.4128 170.047 19.4128H169.607C169.519 19.4128 169.343 19.4128 169.255 19.4128H169.167C169.079 19.4128 168.991 19.501 168.903 19.501H168.815C168.639 19.5891 168.463 19.6772 168.288 19.8534C168.288 19.8534 168.288 19.8534 168.2 19.9416C168.112 20.0297 168.112 20.0297 168.024 20.1178C168.024 20.1178 168.024 20.1178 168.024 20.2059C167.936 20.294 167.936 20.3821 167.848 20.4703C167.76 20.6465 167.672 20.9109 167.672 21.1752V22.2326C167.672 22.4089 167.848 22.5851 168.024 22.5851C168.2 22.5851 168.375 22.4089 168.375 22.2326V21.1752C168.375 20.999 168.375 20.8227 168.463 20.7346C168.463 20.6465 168.551 20.5584 168.639 20.4703C168.639 20.4703 168.639 20.3821 168.727 20.3821C168.815 20.294 168.903 20.2059 168.903 20.2059C168.991 20.1178 169.079 20.1178 169.167 20.1178H169.255C169.343 20.1178 169.431 20.0297 169.519 20.0297H169.959C170.047 20.0297 170.135 20.0297 170.223 20.1178H170.31C170.398 20.1178 170.486 20.2059 170.574 20.2059C170.662 20.294 170.75 20.294 170.75 20.3821C170.75 20.3821 170.75 20.3821 170.838 20.4703C170.926 20.5584 170.926 20.6465 171.014 20.7346C171.102 20.9109 171.102 20.999 171.102 21.1752V22.2326C171.102 22.4089 171.278 22.5851 171.454 22.5851C171.63 22.5851 171.806 22.4089 171.806 22.2326V21.1752C171.982 20.9109 171.894 20.6465 171.806 20.4703Z" fill="#F9FAFB"/>
<path d="M169.961 26.7267C169.785 26.7267 169.609 26.5505 169.609 26.3743V25.3168C169.609 25.1406 169.785 24.9644 169.961 24.9644C170.137 24.9644 170.313 25.1406 170.313 25.3168V26.4624C170.225 26.5505 170.137 26.7267 169.961 26.7267Z" fill="#F9FAFB"/>
<path d="M171.718 28.8416H168.2C167.321 28.8416 166.617 28.1366 166.617 27.2554V23.7307C166.617 22.8495 167.321 22.1445 168.2 22.1445H171.718C172.598 22.1445 173.302 22.8495 173.302 23.7307V27.2554C173.302 28.1366 172.598 28.8416 171.718 28.8416ZM168.112 22.7614C167.585 22.7614 167.145 23.202 167.145 23.7307V27.2554C167.145 27.7841 167.585 28.2247 168.112 28.2247H171.631C172.158 28.2247 172.598 27.7841 172.598 27.2554V23.7307C172.598 23.202 172.158 22.7614 171.631 22.7614H168.112Z" fill="#F9FAFB"/>
<path d="M170.571 25.2286C170.571 25.5811 170.307 25.9336 169.868 25.9336C169.516 25.9336 169.164 25.6692 169.164 25.2286C169.164 24.8762 169.428 24.5237 169.868 24.5237C170.307 24.5237 170.571 24.8762 170.571 25.2286Z" fill="#F9FAFB"/>
<path d="M255.894 149.212H239.71C238.743 149.212 238.039 148.419 238.039 147.538V138.461C238.039 137.492 238.831 136.787 239.71 136.787H255.894C256.861 136.787 257.565 137.58 257.565 138.461V147.538C257.565 148.419 256.773 149.212 255.894 149.212Z" fill="#D7D7D7"/>
<path d="M256.421 136.699H239.094C238.655 136.699 238.215 136.963 238.039 137.404L247.098 145.687C247.538 146.04 248.066 146.04 248.418 145.687L257.477 137.404C257.301 137.051 256.949 136.699 256.421 136.699Z" fill="#E7E7E7"/>
<path d="M256.421 136.699H239.094C238.655 136.699 238.215 136.963 238.039 137.404L247.098 144.453C247.538 144.806 248.066 144.806 248.418 144.453L257.477 137.404C257.301 137.051 256.949 136.699 256.421 136.699Z" fill="#E7E7E7"/>
<path d="M252.548 145.687L250.789 147.538H236.453C235.309 147.538 234.43 148.419 234.43 149.564V164.456C234.43 165.602 235.309 166.483 236.453 166.483L258.969 166.395C260.112 166.395 260.992 165.514 260.992 164.368V149.124V147.45V146.392C260.992 145.775 260.464 145.247 259.848 145.247H253.252C253.076 145.335 252.812 145.423 252.548 145.687Z" fill="#FFBD86"/>
<path d="M26.1598 16.1525H5.75454C3.81956 16.1525 2.14844 14.5663 2.14844 12.5396V4.25643C2.14844 2.31781 3.7316 0.643555 5.75454 0.643555H26.0718C28.0068 0.643555 29.6779 2.22969 29.6779 4.25643V12.6277C29.6779 14.5663 28.0948 16.1525 26.1598 16.1525Z" fill="#002548"/>
<path d="M6.01462 5.75456H5.57485C5.13508 5.75456 4.69531 5.40209 4.69531 4.87338C4.69531 4.43278 5.04713 3.99219 5.57485 3.99219H6.01462C6.45439 3.99219 6.89415 4.34466 6.89415 4.87338C6.8062 5.31397 6.45439 5.75456 6.01462 5.75456Z" fill="#54CC5A"/>
<path d="M14.4599 5.75456H14.0202C13.5804 5.75456 13.1406 5.40209 13.1406 4.87338C13.1406 4.43278 13.4924 3.99219 14.0202 3.99219H14.4599C14.8997 3.99219 15.3395 4.34466 15.3395 4.87338C15.3395 5.31397 14.9877 5.75456 14.4599 5.75456Z" fill="#54CC5A"/>
<path d="M11.0255 5.75456H9.09047C8.65071 5.75456 8.21094 5.40209 8.21094 4.87338C8.21094 4.43278 8.56275 3.99219 9.09047 3.99219H11.0255C11.4652 3.99219 11.905 4.34466 11.905 4.87338C11.817 5.31397 11.4652 5.75456 11.0255 5.75456Z" fill="#54CC5A"/>
<path d="M25.5391 5.75456H18.2389C17.7991 5.75456 17.3594 5.40209 17.3594 4.87338C17.3594 4.43278 17.7112 3.99219 18.2389 3.99219H25.5391C25.9788 3.99219 26.4186 4.34466 26.4186 4.87338C26.3306 5.31397 25.9788 5.75456 25.5391 5.75456Z" fill="#54CC5A"/>
<path d="M6.01462 12.8041H5.57485C5.13508 12.8041 4.69531 12.4516 4.69531 11.9229C4.69531 11.4823 5.04713 11.0417 5.57485 11.0417H6.01462C6.45439 11.0417 6.89415 11.3942 6.89415 11.9229C6.8062 12.4516 6.45439 12.8041 6.01462 12.8041Z" fill="#54CC5A"/>
<path d="M26.4209 12.8041H25.9811C25.5413 12.8041 25.1016 12.4516 25.1016 11.9229C25.1016 11.4823 25.4534 11.0417 25.9811 11.0417H26.4209C26.8606 11.0417 27.3004 11.3942 27.3004 11.9229C27.2125 12.4516 26.8606 12.8041 26.4209 12.8041Z" fill="#54CC5A"/>
<path d="M11.0255 12.8041H9.09047C8.65071 12.8041 8.21094 12.4516 8.21094 11.9229C8.21094 11.4823 8.56275 11.0417 9.09047 11.0417H11.0255C11.4652 11.0417 11.905 11.3942 11.905 11.9229C11.817 12.4516 11.4652 12.8041 11.0255 12.8041Z" fill="#54CC5A"/>
<path d="M22.464 12.8041H16.3952C15.9554 12.8041 15.5156 12.4516 15.5156 11.9229C15.5156 11.4823 15.8674 11.0417 16.3952 11.0417H22.464C22.9037 11.0417 23.3435 11.3942 23.3435 11.9229C23.3435 12.4516 22.9037 12.8041 22.464 12.8041Z" fill="#54CC5A"/>
<path d="M6.01462 9.19109H5.57485C5.13508 9.19109 4.69531 8.83861 4.69531 8.3099C4.69531 7.86931 5.04713 7.42871 5.57485 7.42871H6.01462C6.45439 7.42871 6.89415 7.78119 6.89415 8.3099C6.8062 8.83861 6.45439 9.19109 6.01462 9.19109Z" fill="#54CC5A"/>
<path d="M9.27243 9.19109H8.83266C8.39289 9.19109 7.95312 8.83861 7.95312 8.3099C7.95312 7.86931 8.30494 7.42871 8.83266 7.42871H9.27243C9.7122 7.42871 10.152 7.78119 10.152 8.3099C10.152 8.83861 9.7122 9.19109 9.27243 9.19109Z" fill="#54CC5A"/>
<path d="M16.1321 9.19109H12.6139C12.1741 9.19109 11.7344 8.83861 11.7344 8.3099C11.7344 7.86931 12.0862 7.42871 12.6139 7.42871H16.1321C16.5718 7.42871 17.0116 7.78119 17.0116 8.3099C16.9236 8.83861 16.5718 9.19109 16.1321 9.19109Z" fill="#54CC5A"/>
<path d="M233.023 18.2673H230.385V24.788H228.01V18.2673H225.195L229.153 13.7732L233.023 18.2673Z" fill="#F9FAFB"/>
<path d="M241.728 20.2059H239.002V13.7732H236.715V20.2059H233.812L237.77 24.788L241.728 20.2059Z" fill="#F9FAFB"/>
</svg>
