<svg width="114" height="114" viewBox="0 0 114 114" fill="none" xmlns="http://www.w3.org/2000/svg">
<path d="M95.4825 48.6561L89.2246 47.0737C88.9368 47.0018 88.7211 46.786 88.6491 46.4982C88.1456 44.9158 87.4982 43.4053 86.7789 41.8947C86.6351 41.607 86.6351 41.3193 86.7789 41.1035L90.0877 35.5649C90.8789 34.2702 90.6632 32.6158 89.5842 31.5368L82.3912 24.2719C81.3123 23.193 79.6579 22.9772 78.3632 23.7684L72.8246 27.2211C72.6088 27.3649 72.2491 27.3649 72.0333 27.2211C70.5947 26.5018 69.0123 25.8544 67.4298 25.3509C67.1421 25.2789 66.9263 25.0632 66.8544 24.7754L65.2719 18.5175C64.9123 17.007 63.6175 16 62.107 16H51.893C50.3825 16 49.0877 17.007 48.7281 18.5175L47.1456 24.7754C47.0737 25.0632 46.8579 25.2789 46.5702 25.3509C44.9877 25.8544 43.4772 26.5018 41.9667 27.2211C41.6789 27.3649 41.3912 27.3649 41.1754 27.2211L35.6368 23.9123C34.3421 23.1211 32.6877 23.3368 31.6088 24.4158L24.4158 31.6807C23.3368 32.7596 23.1211 34.414 23.9123 35.7088L27.2211 41.2474C27.3649 41.4632 27.3649 41.8228 27.2211 42.0386C26.5018 43.4772 25.8544 45.0596 25.3509 46.6421C25.2789 46.9298 25.0632 47.1456 24.7754 47.2175L18.5175 48.8C17.007 49.0877 16 50.3825 16 51.893V62.107C16 63.6175 17.007 64.9123 18.5175 65.3439L24.7754 66.9263C25.0632 66.9982 25.2789 67.214 25.3509 67.5018C25.8544 69.0842 26.5018 70.5947 27.2211 72.1053C27.3649 72.393 27.3649 72.6807 27.2211 72.8965L23.9123 78.3632C23.1211 79.6579 23.3368 81.3123 24.4158 82.3912L31.6088 89.5842C32.6877 90.6632 34.3421 90.8789 35.6368 90.0877L41.1754 86.7789C41.3912 86.6351 41.7509 86.6351 41.9667 86.7789C43.4053 87.4982 44.9877 88.1456 46.5702 88.6491C46.8579 88.7211 47.0737 88.9368 47.1456 89.2246L48.7281 95.4825C49.0877 96.9211 50.3825 98 51.893 98H62.107C63.6175 98 64.9123 96.993 65.2719 95.4825L66.8544 89.2246C66.9263 88.9368 67.1421 88.7211 67.4298 88.6491C69.0123 88.1456 70.5228 87.4982 72.0333 86.7789C72.3211 86.6351 72.6088 86.6351 72.8246 86.7789L78.3632 90.0877C79.6579 90.8789 81.3123 90.6632 82.3912 89.5842L89.5842 82.3912C90.6632 81.3123 90.8789 79.6579 90.0877 78.3632L86.7789 72.8246C86.6351 72.6088 86.6351 72.2491 86.7789 72.0333C87.4982 70.5947 88.1456 69.0123 88.6491 67.4298C88.7211 67.1421 88.9368 66.9263 89.2246 66.8544L95.4825 65.2719C96.9211 64.9123 98 63.6175 98 62.0351V51.893C98 50.3825 96.993 49.0877 95.4825 48.6561ZM57 79.8737C44.3404 79.8737 34.1263 69.5877 34.1263 57C34.1263 44.3404 44.4123 34.1263 57 34.1263C69.6596 34.1263 79.8737 44.3404 79.8737 57C79.8737 69.6596 69.6596 79.8737 57 79.8737Z" fill="#839299"/>
<path d="M56.9992 71.0982C56.4238 71.0982 55.9922 70.6666 55.9922 70.0911V63.114C55.9922 62.5385 56.4238 62.1069 56.9992 62.1069C57.5746 62.1069 58.0062 62.5385 58.0062 63.114V70.0911C58.0062 70.5947 57.5746 71.0982 56.9992 71.0982Z" fill="#D2D9DC"/>
<path d="M54.8417 74.1195H44.1242C43.5488 74.1195 43.1172 73.6879 43.1172 73.1125C43.1172 72.537 43.5488 72.1055 44.1242 72.1055H54.8417C55.4172 72.1055 55.8488 72.537 55.8488 73.1125C55.8488 73.6879 55.4172 74.1195 54.8417 74.1195Z" fill="#D2D9DC"/>
<path d="M70.1629 74.1195H58.3664C57.791 74.1195 57.3594 73.6879 57.3594 73.1125C57.3594 72.537 57.791 72.1055 58.3664 72.1055H70.1629C70.7383 72.1055 71.1699 72.537 71.1699 73.1125C71.1699 73.6879 70.7383 74.1195 70.1629 74.1195Z" fill="#D2D9DC"/>
<path d="M59.1579 70.9546V69.8757C59.1579 69.3002 58.7264 68.8687 58.1509 68.8687H55.9211C55.3457 68.8687 54.9141 69.3002 54.9141 69.8757V70.9546H53.8351C53.2597 70.9546 52.8281 71.3862 52.8281 71.9616V74.2634C52.8281 74.8388 53.2597 75.2704 53.8351 75.2704H60.3808C60.9562 75.2704 61.3878 74.8388 61.3878 74.2634V72.0336C61.3878 71.4581 60.9562 71.0265 60.3808 71.0265H59.1579V70.9546Z" fill="#54CC5A"/>
<path d="M56.9993 64.5528C64.7061 64.5528 70.9537 58.3052 70.9537 50.5984C70.9537 42.8916 64.7061 36.644 56.9993 36.644C49.2925 36.644 43.0449 42.8916 43.0449 50.5984C43.0449 58.3052 49.2925 64.5528 56.9993 64.5528Z" fill="#0054A6"/>
<path opacity="0.19" d="M63.7607 44.0525H69.3712C69.0116 43.3332 68.58 42.6858 68.0765 42.0384H63.1853C62.9695 41.3911 62.7537 40.8156 62.466 40.2402C61.8186 38.8735 61.0274 37.7227 60.2362 36.9314C59.2291 36.7156 58.1502 36.5718 56.9993 36.5718C55.9204 36.5718 54.8414 36.7156 53.7625 36.9314C52.8993 37.7227 52.18 38.8016 51.5326 40.2402C51.2449 40.8156 51.0291 41.3911 50.8133 42.0384H45.9221C45.4186 42.6858 44.987 43.3332 44.6274 44.0525H50.2379C49.8063 45.7788 49.5905 47.649 49.5186 49.5191H43.0449C43.0449 49.8788 43.0449 50.1665 43.0449 50.5262C43.0449 50.8858 43.0449 51.1735 43.0449 51.5332H49.5186C49.5905 53.4753 49.8063 55.3455 50.2379 56.9998H44.6274C44.987 57.7191 45.4186 58.3665 45.9221 59.0139H50.8133C51.0291 59.6613 51.2449 60.2367 51.5326 60.8121C52.18 62.1788 52.9712 63.3297 53.7625 64.1209C54.7695 64.3367 55.8484 64.4806 56.9993 64.4806C58.0783 64.4806 59.1572 64.3367 60.2362 64.1209C61.0993 63.3297 61.8186 62.2507 62.466 60.8121C62.7537 60.2367 62.9695 59.6613 63.1853 59.0139H68.0765C68.58 58.3665 69.0116 57.7191 69.3712 56.9998H63.7607C64.1923 55.2735 64.4081 53.4034 64.48 51.5332H70.9537C70.9537 51.1735 70.9537 50.8858 70.9537 50.5262C70.9537 50.1665 70.9537 49.8788 70.9537 49.5191H64.48C64.4081 47.649 64.1204 45.7788 63.7607 44.0525ZM55.9923 63.2577C54.9133 62.6823 53.7625 61.2437 52.9712 59.0858H55.9923V63.2577ZM55.9923 57.0718H52.3239C51.8923 55.4893 51.6046 53.6191 51.5326 51.6051H55.9204V57.0718H55.9923ZM55.9923 49.5911H51.6046C51.6765 47.577 51.9642 45.7069 52.3958 44.1244H56.0642V49.5911H55.9923ZM55.9923 42.0384H52.9712C53.7625 39.8805 54.9133 38.442 55.9923 37.8665V42.0384ZM58.0063 37.9384C59.0853 38.5139 60.2362 39.9525 61.0274 42.1104H58.0063V37.9384ZM58.0063 44.0525H61.6747C62.1063 45.6349 62.394 47.5051 62.466 49.5191H58.0783V44.0525H58.0063ZM58.0063 63.2577V59.0858H61.0274C60.2362 61.2437 59.1572 62.6823 58.0063 63.2577ZM61.6747 57.0718H58.0063V51.6051H62.394C62.394 53.6191 62.1063 55.4893 61.6747 57.0718Z" fill="#F9FAFB"/>
</svg>
