<svg width="48" height="48" viewBox="0 0 48 48" fill="none" xmlns="http://www.w3.org/2000/svg">
<g clip-path="url(#clip0_12083_17535)">
<path d="M48.0016 8.4H45.2016V2.8H39.6016V0H48.0016V8.4Z" fill="#002548"/>
<path d="M48.0016 48.0001H39.6016V45.2001H45.2016V39.6001H48.0016V48.0001Z" fill="#002548"/>
<path d="M34.8984 36.8999L36.8984 34.8999L47.5984 45.5999L45.5984 47.5999L34.8984 36.8999Z" fill="#002548"/>
<path d="M34.8984 11.0999L45.5984 0.399902L47.5984 2.3999L36.8984 13.0999L34.8984 11.0999Z" fill="#002548"/>
<path d="M2.8 8.4H0V0H8.4V2.8H2.8V8.4Z" fill="#002548"/>
<path d="M8.4 48.0001H0V39.6001H2.8V45.2001H8.4V48.0001Z" fill="#002548"/>
<path d="M0.398438 2.3999L2.39844 0.399902L13.0984 11.0999L11.0984 13.0999L0.398438 2.3999Z" fill="#002548"/>
<path d="M0.398438 45.5999L11.0984 34.8999L13.0984 36.8999L2.39844 47.5999L0.398438 45.5999Z" fill="#002548"/>
<path d="M24.0031 5.69995C13.9031 5.69995 5.70312 13.9 5.70312 24C5.70312 34.1 13.9031 42.2999 24.0031 42.2999C34.1031 42.2999 42.3031 34.1 42.3031 24C42.3031 13.9 34.1031 5.69995 24.0031 5.69995Z" fill="#D2D9DC"/>
<path d="M28.3984 21.2C27.7984 21.5 26.3984 22.6 23.9984 22.6C21.5984 22.6 20.1984 21.5 19.5984 21.2C19.2984 21.6 16.8984 23.2999 16.8984 26.7999V33.7999H30.9984V26.7999C30.9984 23.2999 28.5984 21.6 28.3984 21.2Z" fill="#0054A6"/>
<path d="M23.9969 11.3C21.6969 11.3 19.7969 13.2 19.7969 15.5C19.7969 17.8 21.6969 19.7 23.9969 19.7C26.2969 19.7 28.1969 17.8 28.1969 15.5C28.1969 13.2 26.2969 11.3 23.9969 11.3Z" fill="#0054A6"/>
</g>
<defs>
<clipPath id="clip0_12083_17535">
<rect width="48" height="48" fill="white"/>
</clipPath>
</defs>
</svg>
