<svg width="100" height="100" viewBox="0 0 100 100" fill="none" xmlns="http://www.w3.org/2000/svg">
<g id="onboarding-remote-developers_managing-scaling-team-inescapable-hassle" clip-path="url(#clip0_6586_23345)">
<path id="Vector" d="M81.0404 0L87.9154 6.875L62.082 32.7083L55.207 39.5833L60.4154 44.7917L67.2904 37.9167L93.1237 12.0833L99.9987 18.9583V0H81.0404Z" fill="#ED1C24"/>
<path id="Vector_2" d="M5.83203 27.0834H73.5404V100H5.83203V27.0834Z" fill="#D2D9DC"/>
<path id="Vector_3" d="M34.5846 79.1667C31.668 79.1667 29.3763 76.875 29.3763 73.9583V73.125C29.3763 71.6667 28.7513 70.2083 27.7096 69.1667C23.7513 65.625 21.668 60.8333 21.668 55.625C21.668 45.625 30.0013 37.5 40.0013 37.5C50.0013 37.5 58.3346 45.8333 58.3346 55.625C58.3346 60.8333 56.043 65.8333 52.293 69.1667C51.2513 70.2083 50.6263 71.6667 50.6263 73.125V73.9583C50.6263 76.875 48.3346 79.1667 45.418 79.1667H34.5846Z" fill="#FFDD33"/>
<path id="Vector_4" d="M29.375 79.1666H50.2083V84.375C50.2083 87.2916 47.9167 89.5833 45 89.5833H34.5833C31.6667 89.5833 29.375 87.2916 29.375 84.375V79.1666Z" fill="#0054A6"/>
<path id="Vector_5" opacity="0.19" d="M49.7917 51.875C49.375 51.0416 48.5417 50.4166 47.5 50.4166H31.875C30.4167 50.4166 29.375 51.6666 29.375 52.9166C29.375 53.5416 29.5833 53.9583 29.7917 54.375L37.0833 64.1666V79.1666H42.2917V64.375L49.5833 54.5833C50.2083 53.9583 50.4167 52.9166 49.7917 51.875ZM39.7917 59.1666L37.2917 55.625H42.5L39.7917 59.1666Z" fill="#F9FAFB"/>
</g>
<defs>
<clipPath id="clip0_6586_23345">
<rect width="100" height="100" fill="white"/>
</clipPath>
</defs>
</svg>
