<svg width="420" height="332" viewBox="0 0 420 332" fill="none" xmlns="http://www.w3.org/2000/svg">
<path d="M191.344 210.26V256.86H228.644V210.26H191.344Z" fill="#002548"/>
<path opacity="0.19" d="M191.344 210.26V256.86H228.644V210.26H191.344Z" fill="#F9FAFB"/>
<path d="M138.898 266.9V261.3L159.098 256.9H260.898L281.098 261.3V266.9H138.898Z" fill="#002548"/>
<path d="M328.492 221.29L328.492 65.0901L91.4922 65.0901L91.4922 221.29L328.492 221.29Z" fill="#002548"/>
<path d="M326.203 67.4H93.7031V212.3H326.203V67.4Z" fill="#5F737C"/>
<path d="M324.498 68H94.8984V210H324.498V68Z" fill="#D2D9DC"/>
<path d="M102 192.6V84.2C102 81.4 104.2 79.2 107 79.2H312.4C315.2 79.2 317.4 81.4 317.4 84.2V192.6C317.4 194.7 315.7 196.4 313.6 196.4H105.8C103.7 196.4 102 194.7 102 192.6Z" fill="#F9FAFB"/>
<path d="M170.803 178.8H111.103C109.503 178.8 108.203 177.5 108.203 175.9V101.5C108.203 99.9 109.503 98.6 111.103 98.6H170.803C172.403 98.6 173.703 99.9 173.703 101.5V175.9C173.703 177.5 172.403 178.8 170.803 178.8Z" fill="#0054A6"/>
<path d="M142.603 140.8H118.203C116.503 140.8 115.203 139.5 115.203 137.8V109.9C115.203 108.2 116.503 106.9 118.203 106.9H142.603C144.303 106.9 145.603 108.2 145.603 109.9V137.8C145.603 139.5 144.303 140.8 142.603 140.8Z" fill="#F9FAFB"/>
<path d="M139.102 136.7C136.502 135.7 134.002 133.9 133.202 128.7C135.202 127.4 136.602 124.8 136.602 121.9C136.602 117.7 133.802 114.2 130.402 114.2C127.002 114.2 124.202 117.6 124.202 121.9C124.202 124.9 125.602 127.5 127.602 128.7C126.802 134 124.302 135.7 121.702 136.7C118.502 137.9 118.602 140.8 118.602 140.8H142.202C142.202 140.8 142.302 137.9 139.102 136.7Z" fill="#002548"/>
<path d="M162.602 119.1H151.602C150.802 119.1 150.102 118.4 150.102 117.6V117.5C150.102 116.7 150.802 116 151.602 116H162.602C163.402 116 164.102 116.7 164.102 117.5V117.6C164.102 118.4 163.402 119.1 162.602 119.1Z" fill="#F9FAFB"/>
<path d="M168.202 125H151.602C150.802 125 150.102 124.3 150.102 123.5V123.4C150.102 122.6 150.802 121.9 151.602 121.9H168.202C169.002 121.9 169.702 122.6 169.702 123.4V123.5C169.702 124.3 169.102 125 168.202 125Z" fill="#F9FAFB"/>
<path d="M168.202 130.9H151.602C150.802 130.9 150.102 130.2 150.102 129.4V129.3C150.102 128.5 150.802 127.8 151.602 127.8H168.202C169.002 127.8 169.702 128.5 169.702 129.3V129.4C169.702 130.2 169.102 130.9 168.202 130.9Z" fill="#F9FAFB"/>
<path d="M133.397 151.6H116.797C115.997 151.6 115.297 150.9 115.297 150.1V150C115.297 149.2 115.997 148.5 116.797 148.5H133.397C134.197 148.5 134.897 149.2 134.897 150V150.1C134.897 150.9 134.197 151.6 133.397 151.6Z" fill="#D2D9DC"/>
<path d="M144.797 157.5H116.797C115.997 157.5 115.297 156.8 115.297 156V155.9C115.297 155.1 115.997 154.4 116.797 154.4H144.797C145.597 154.4 146.297 155.1 146.297 155.9V156C146.297 156.8 145.597 157.5 144.797 157.5Z" fill="#D2D9DC"/>
<path d="M144.797 169H116.797C115.997 169 115.297 168.3 115.297 167.5V167.4C115.297 166.6 115.997 165.9 116.797 165.9H144.797C145.597 165.9 146.297 166.6 146.297 167.4V167.5C146.297 168.4 145.597 169 144.797 169Z" fill="#D2D9DC"/>
<path d="M126.397 163.4H116.797C115.997 163.4 115.297 162.7 115.297 161.9V161.8C115.297 161 115.997 160.3 116.797 160.3H126.397C127.197 160.3 127.897 161 127.897 161.8V161.9C127.897 162.7 127.197 163.4 126.397 163.4Z" fill="#D2D9DC"/>
<path d="M168.1 163.4H157C156.2 163.4 155.5 162.7 155.5 161.9V161.8C155.5 161 156.2 160.3 157 160.3H168.1C168.9 160.3 169.6 161 169.6 161.8V161.9C169.6 162.7 168.9 163.4 168.1 163.4Z" fill="#D2D9DC"/>
<path d="M152.903 157.5H150.203C149.403 157.5 148.703 156.8 148.703 156V155.9C148.703 155.1 149.403 154.4 150.203 154.4H152.903C153.703 154.4 154.403 155.1 154.403 155.9V156C154.503 156.8 153.803 157.5 152.903 157.5Z" fill="#D2D9DC"/>
<path d="M167.803 157.5H158.203C157.403 157.5 156.703 156.8 156.703 156V155.9C156.703 155.1 157.403 154.4 158.203 154.4H167.803C168.603 154.4 169.303 155.1 169.303 155.9V156C169.403 156.8 168.703 157.5 167.803 157.5Z" fill="#D2D9DC"/>
<path d="M317.597 86H101.797V82.7C101.797 80.6 103.497 78.9 105.597 78.9H313.697C315.797 78.9 317.497 80.6 317.497 82.7V86H317.597Z" fill="#002548"/>
<path d="M106.502 83.8C107.275 83.8 107.902 83.218 107.902 82.5C107.902 81.782 107.275 81.2 106.502 81.2C105.728 81.2 105.102 81.782 105.102 82.5C105.102 83.218 105.728 83.8 106.502 83.8Z" fill="#ED1C24"/>
<path d="M112.4 83.8C113.173 83.8 113.8 83.218 113.8 82.5C113.8 81.782 113.173 81.2 112.4 81.2C111.627 81.2 111 81.782 111 82.5C111 83.218 111.627 83.8 112.4 83.8Z" fill="#FFDD33"/>
<path d="M118.298 83.8C119.072 83.8 119.698 83.218 119.698 82.5C119.698 81.782 119.072 81.2 118.298 81.2C117.525 81.2 116.898 81.782 116.898 82.5C116.898 83.218 117.525 83.8 118.298 83.8Z" fill="#54CC5A"/>
<path d="M224.502 83.5H126.702C126.102 83.5 125.602 83 125.602 82.4C125.602 81.8 126.102 81.3 126.702 81.3H224.502C225.102 81.3 225.602 81.8 225.602 82.4C225.502 83 225.002 83.5 224.502 83.5Z" fill="white"/>
<path d="M277.997 83.5H232.897C232.297 83.5 231.797 83 231.797 82.4C231.797 81.8 232.297 81.3 232.897 81.3H277.997C278.597 81.3 279.097 81.8 279.097 82.4C279.097 83 278.597 83.5 277.997 83.5Z" fill="white"/>
<path d="M311.4 90.9H303.7C303.3 90.9 303 90.6 303 90.2C303 89.8 303.3 89.5 303.7 89.5H311.4C311.8 89.5 312.1 89.8 312.1 90.2C312.1 90.5 311.8 90.9 311.4 90.9Z" fill="#0054A6"/>
<path d="M311.4 92.7H303.7C303.3 92.7 303 92.4 303 92C303 91.6 303.3 91.3 303.7 91.3H311.4C311.8 91.3 312.1 91.6 312.1 92C312.1 92.4 311.8 92.7 311.4 92.7Z" fill="#0054A6"/>
<path d="M311.4 94.5H303.7C303.3 94.5 303 94.2 303 93.8C303 93.4 303.3 93.1 303.7 93.1H311.4C311.8 93.1 312.1 93.4 312.1 93.8C312.1 94.2 311.8 94.5 311.4 94.5Z" fill="#0054A6"/>
<path d="M255.998 140.9H189.398C187.998 140.9 186.898 139.8 186.898 138.4V103C186.898 101.6 187.998 100.5 189.398 100.5H255.998C257.398 100.5 258.498 101.6 258.498 103V138.4C258.398 139.8 257.298 140.9 255.998 140.9Z" fill="#D2D9DC"/>
<path d="M250.197 114.1H195.897C193.397 114.1 191.297 112.1 191.297 109.5V109.2C191.297 106.7 193.297 104.6 195.897 104.6H250.197C252.697 104.6 254.797 106.6 254.797 109.2V109.5C254.697 112.1 252.697 114.1 250.197 114.1Z" fill="#F9FAFB"/>
<path d="M199.504 110.7C198.304 111.4 196.804 111 196.204 109.8C195.504 108.6 195.904 107.1 197.104 106.5C198.304 105.8 199.804 106.2 200.404 107.4C201.104 108.6 200.704 110.1 199.504 110.7ZM197.204 106.8C196.204 107.4 195.804 108.7 196.404 109.8C197.004 110.9 198.304 111.2 199.404 110.6C200.404 110 200.804 108.7 200.204 107.6C199.604 106.5 198.204 106.1 197.204 106.8Z" fill="#0054A6"/>
<path d="M199.673 110.564L199.414 110.716L200.678 112.873L200.936 112.721L199.673 110.564Z" fill="#0054A6"/>
<path d="M224.7 125.1H195.5C194.4 125.1 193.5 124.2 193.5 123.1V123C193.5 121.9 194.4 121 195.5 121H224.7C225.8 121 226.7 121.9 226.7 123V123.1C226.6 124.2 225.7 125.1 224.7 125.1Z" fill="#839299"/>
<path d="M251.002 133.9H195.602C194.502 133.9 193.602 133 193.602 131.9V131.8C193.602 130.7 194.502 129.8 195.602 129.8H251.002C252.102 129.8 253.002 130.7 253.002 131.8V131.9C253.002 133 252.102 133.9 251.002 133.9Z" fill="#839299"/>
<path d="M289.898 96.5L294.298 104.9L295.098 100.2L299.398 98.5L289.898 96.5Z" fill="#D2D9DC"/>
<path d="M295.098 100.2L289.898 96.5L294.298 104.9L295.098 100.2Z" fill="#839299"/>
<path d="M298.897 138.3H270.697C269.697 138.3 268.797 137.5 268.797 136.4V116.8C268.797 115.8 269.597 114.9 270.697 114.9H298.897C299.897 114.9 300.797 115.7 300.797 116.8V136.4C300.797 137.5 299.997 138.3 298.897 138.3Z" fill="#D2D9DC"/>
<path d="M282.903 122.5H273.503C272.803 122.5 272.203 121.9 272.203 121.2V121.1C272.203 120.4 272.803 119.8 273.503 119.8H282.903C283.603 119.8 284.203 120.4 284.203 121.1V121.2C284.203 121.9 283.603 122.5 282.903 122.5Z" fill="#839299"/>
<path d="M296.103 128H273.503C272.803 128 272.203 127.4 272.203 126.7V126.6C272.203 125.9 272.803 125.3 273.503 125.3H296.103C296.803 125.3 297.403 125.9 297.403 126.6V126.7C297.403 127.4 296.803 128 296.103 128Z" fill="#839299"/>
<path d="M296.103 133.5H273.503C272.803 133.5 272.203 132.9 272.203 132.2V132.1C272.203 131.4 272.803 130.8 273.503 130.8H296.103C296.803 130.8 297.403 131.4 297.403 132.1V132.2C297.403 132.9 296.803 133.5 296.103 133.5Z" fill="#839299"/>
<path d="M306.802 175.2H189.002C187.702 175.2 186.602 174.1 186.602 172.8V149.6C186.602 148.3 187.702 147.2 189.002 147.2H306.802C308.102 147.2 309.202 148.3 309.202 149.6V172.8C309.202 174.2 308.102 175.2 306.802 175.2Z" fill="#002548"/>
<path d="M205.397 170.9C210.699 170.9 214.997 166.602 214.997 161.3C214.997 155.998 210.699 151.7 205.397 151.7C200.095 151.7 195.797 155.998 195.797 161.3C195.797 166.602 200.095 170.9 205.397 170.9Z" fill="#FFDD33"/>
<path d="M246.098 158.6H222.898C222.098 158.6 221.398 157.9 221.398 157.1C221.398 156.3 222.098 155.6 222.898 155.6H246.098C246.898 155.6 247.598 156.3 247.598 157.1C247.598 157.9 246.998 158.6 246.098 158.6Z" fill="#D2D9DC"/>
<path d="M280.598 166H222.898C222.098 166 221.398 165.3 221.398 164.5C221.398 163.7 222.098 163 222.898 163H280.598C281.398 163 282.098 163.7 282.098 164.5C282.098 165.3 281.398 166 280.598 166Z" fill="#D2D9DC"/>
</svg>
