<svg width="64" height="64" viewBox="0 0 64 64" fill="none" xmlns="http://www.w3.org/2000/svg">
<g id="enterprise-software-development-expertise_scm-development">
<g id="Group">
<path id="Vector" d="M64 5.40005V58.5C64 59.7001 63 60.6 61.9 60.6H2.1C0.9 60.6 0 59.6 0 58.5V5.40005C0 4.20005 1 3.30005 2.1 3.30005H61.8C63 3.30005 64 4.20005 64 5.40005Z" fill="#002548"/>
<path id="Vector_2" d="M3.59961 14.9001H60.4996V57.2001H3.59961V14.9001Z" fill="#F9FAFB"/>
<path id="Vector_3" d="M5.49961 11C6.54895 11 7.39961 10.1493 7.39961 9.09995C7.39961 8.05061 6.54895 7.19995 5.49961 7.19995C4.45027 7.19995 3.59961 8.05061 3.59961 9.09995C3.59961 10.1493 4.45027 11 5.49961 11Z" fill="#ED1C24"/>
<path id="Vector_4" d="M11.4 11C12.4493 11 13.3 10.1493 13.3 9.09995C13.3 8.05061 12.4493 7.19995 11.4 7.19995C10.3507 7.19995 9.5 8.05061 9.5 9.09995C9.5 10.1493 10.3507 11 11.4 11Z" fill="#FFDD33"/>
<path id="Vector_5" d="M17.3004 11C18.3497 11 19.2004 10.1493 19.2004 9.09995C19.2004 8.05061 18.3497 7.19995 17.3004 7.19995C16.251 7.19995 15.4004 8.05061 15.4004 9.09995C15.4004 10.1493 16.251 11 17.3004 11Z" fill="#54CC5A"/>
<path id="Vector_6" d="M26.4 7.19995H58.6C59.6 7.19995 60.5 7.99995 60.5 9.09995C60.5 10.1 59.7 11 58.6 11H26.4C25.4 11 24.5 10.2 24.5 9.09995C24.6 7.99995 25.4 7.19995 26.4 7.19995Z" fill="#D2D9DC"/>
<g id="Group_2">
<g id="Group_3">
<path id="Vector_7" d="M36.0004 29.7001C36.0004 29.1 35.5004 28.6 34.9004 28.6H34.1004C33.6004 28.6 33.2004 28.3 33.1004 27.8C32.9004 27.1 32.6004 26.5 32.3004 25.9C32.1004 25.5 32.2004 25.0001 32.5004 24.6L33.0004 24.1C33.5004 23.6 33.5004 22.9 33.1004 22.5L32.4004 21.8C32.0004 21.4 31.3004 21.4 30.9004 21.8L30.4004 22.3C30.1004 22.6 29.5004 22.7 29.1004 22.5C28.5004 22.2 27.9004 21.9001 27.2004 21.7001C26.7004 21.6001 26.4004 21.1001 26.4004 20.7001V20C26.4004 19.3 25.9004 18.8 25.3004 18.8H24.3004C23.7004 18.8 23.2004 19.3 23.2004 19.9V20.7001C23.2004 21.2001 22.9004 21.6001 22.4004 21.7001C21.7004 21.9001 21.1004 22.2 20.5004 22.5C20.1004 22.7 19.6004 22.6 19.2004 22.3L18.7004 22C18.2004 21.5 17.5004 21.5 17.1004 21.9L16.4004 22.6C16.0004 23.0001 16.0004 23.7 16.4004 24.1L16.9004 24.6C17.2004 24.9001 17.3004 25.5 17.1004 25.9C16.8004 26.5 16.5004 27.1 16.3004 27.8C16.2004 28.3 15.7004 28.6 15.3004 28.6H14.5004C13.9004 28.6 13.4004 29.1 13.4004 29.7001V30.7001C13.4004 31.3001 13.9004 31.8 14.5004 31.8H15.3004C15.8004 31.8 16.2004 32.1 16.3004 32.6C16.5004 33.3 16.8004 33.9 17.1004 34.5C17.3004 34.9 17.2004 35.4 16.9004 35.8L16.4004 36.3C15.9004 36.8 15.9004 37.5001 16.3004 37.9001L17.0004 38.6C17.4004 39 18.1004 39 18.5004 38.6L19.0004 38.1C19.3004 37.8 19.9004 37.7001 20.3004 37.9001C20.9004 38.2001 21.5004 38.5 22.2004 38.7001C22.7004 38.8001 23.0004 39.3001 23.0004 39.7001V40.4001C23.0004 41.1001 23.5004 41.6 24.1004 41.6H25.1004C25.7004 41.6 26.2004 41.1 26.2004 40.5V39.7001C26.2004 39.2001 26.5004 38.8001 27.0004 38.7001C27.7004 38.5 28.3004 38.2001 28.9004 37.9001C29.3004 37.7001 29.8004 37.8 30.2004 38.1L30.7004 38.6C31.2004 39.1 31.9004 39.1 32.3004 38.7001L33.0004 38C33.4004 37.6 33.4004 36.9 33.0004 36.5L32.5004 36C32.2004 35.7001 32.1004 35.1 32.3004 34.7001C32.6004 34.1 32.9004 33.5 33.1004 32.8C33.2004 32.3 33.7004 32 34.1004 32H34.8004C35.4004 32 35.9004 31.5 35.9004 30.9V29.7001H36.0004ZM26.0004 34.6C22.6004 35.5 19.5004 32.4 20.4004 29C20.8004 27.5 22.0004 26.3 23.5004 25.9C26.9004 25 30.0004 28.1 29.1004 31.5C28.7004 33 27.5004 34.2 26.0004 34.6Z" fill="#839299"/>
</g>
</g>
<g id="Group_4">
<g id="Group_5">
<path id="Vector_8" d="M50.6 37.4001V36.9001C50.6 36.5001 50.3 36.2001 49.9 36.2001H49.6C49.3 36.2001 49 36.0001 48.9 35.7001C48.8 35.4001 48.7 35.0001 48.5 34.7001C48.4 34.4001 48.4 34.1001 48.6 33.9001L48.9 33.6001C49.2 33.3001 49.2 32.9001 48.9 32.6001L48.6 32.3001C48.3 32.0001 47.9 32.0001 47.6 32.3001L47.3 32.6001C47.1 32.8001 46.8 32.8001 46.5 32.7001C46.2 32.5001 45.9 32.4001 45.5 32.3001C45.2 32.2001 45 32.0001 45 31.6001V31.3001C45 30.9001 44.7 30.6001 44.3 30.6001H43.8C43.4 30.6001 43.1 30.9001 43.1 31.3001V31.6001C43.1 31.9001 42.9 32.2001 42.6 32.3001C42.3 32.4001 41.9 32.5001 41.6 32.7001C41.3 32.8001 41 32.8001 40.8 32.6001L40.5 32.3001C40.2 32.0001 39.8 32.0001 39.5 32.3001L39.2 32.6001C38.9 32.9001 38.9 33.3001 39.2 33.6001L39.5 33.9001C39.7 34.1001 39.7 34.4001 39.6 34.7001C39.4 35.0001 39.3 35.3001 39.2 35.7001C39.1 36.0001 38.9 36.2001 38.5 36.2001H38.2C37.8 36.2001 37.5 36.5001 37.5 36.9001V37.4001C37.5 37.8001 37.8 38.1001 38.2 38.1001H38.5C38.8 38.1001 39.1 38.3001 39.2 38.6001C39.3 38.9001 39.4 39.3001 39.6 39.6001C39.7 39.9001 39.7 40.2001 39.5 40.4001L39.2 40.7001C38.9 41.0001 38.9 41.4001 39.2 41.7001L39.5 42.0001C39.8 42.3001 40.2 42.3001 40.5 42.0001L40.8 41.7001C41 41.5001 41.3 41.5001 41.6 41.6001C41.9 41.8001 42.2 41.9001 42.6 42.0001C42.9 42.1001 43.1 42.3001 43.1 42.7001V43.0001C43.1 43.4001 43.4 43.7001 43.8 43.7001H44.3C44.7 43.7001 45 43.4001 45 43.0001V42.7001C45 42.4001 45.2 42.1001 45.5 42.0001C45.8 41.9001 46.2 41.8001 46.5 41.6001C46.8 41.5001 47.1 41.5001 47.3 41.7001L47.6 42.0001C47.9 42.3001 48.3 42.3001 48.6 42.0001L48.9 41.7001C49.2 41.4001 49.2 41.0001 48.9 40.7001L48.6 40.4001C48.4 40.2001 48.4 39.9001 48.5 39.6001C48.7 39.3001 48.8 39.0001 48.9 38.6001C49 38.3001 49.2 38.1001 49.6 38.1001H49.9C50.3 38.1001 50.6 37.8001 50.6 37.4001ZM44.1 39.8001C42.7 39.8001 41.5 38.6001 41.5 37.2001C41.5 35.8001 42.7 34.6001 44.1 34.6001C45.5 34.6001 46.7 35.8001 46.7 37.2001C46.7 38.6001 45.5 39.8001 44.1 39.8001Z" fill="#D2D9DC"/>
</g>
</g>
<g id="Group_6">
<g id="Group_7">
<path id="Vector_9" d="M38.8 47.5999V47.2C38.8 46.9 38.6 46.7 38.3 46.7H38C37.7 46.7 37.5 46.4999 37.5 46.2999C37.4 45.9999 37.3 45.8 37.2 45.5C37.1 45.3 37.1 44.9999 37.3 44.7999L37.5 44.5999C37.7 44.3999 37.7 43.9999 37.5 43.7999L37.2 43.5C37 43.3 36.6 43.3 36.4 43.5L36.2 43.7C36 43.9 35.8 43.8999 35.5 43.7999C35.3 43.6999 35 43.6 34.7 43.5C34.5 43.4 34.3 43.2 34.3 43V42.7C34.3 42.4 34.1 42.2 33.8 42.2H33.4C33.1 42.2 32.9 42.4 32.9 42.7V43C32.9 43.3 32.7 43.5 32.5 43.5C32.2 43.6 32 43.6999 31.7 43.7999C31.5 43.8999 31.2 43.9 31.1 43.7L30.9 43.5C30.7 43.3 30.3 43.3 30.1 43.5L29.8 43.7999C29.6 43.9999 29.6 44.3999 29.8 44.5999L30 44.7999C30.2 44.9999 30.2 45.2 30.1 45.5C30 45.7 29.9 45.9999 29.8 46.2999C29.7 46.4999 29.5 46.7 29.3 46.7H29C28.7 46.7 28.5 46.9 28.5 47.2V47.5999C28.5 47.8999 28.7 48.0999 29 48.0999H29.3C29.6 48.0999 29.8 48.3 29.8 48.5C29.9 48.8 30 48.9999 30.1 49.2999C30.2 49.4999 30.2 49.8 30 50L29.8 50.2C29.6 50.4 29.6 50.8 29.8 51L30.1 51.2999C30.3 51.4999 30.7 51.4999 30.9 51.2999L31 51C31.2 50.8 31.4 50.8 31.7 50.9C31.9 51 32.2 51.1 32.5 51.2C32.7 51.3 32.9 51.5 32.9 51.7V52C32.9 52.3 33.1 52.5 33.4 52.5H33.8C34.1 52.5 34.3 52.3 34.3 52V51.7C34.3 51.4 34.5 51.2 34.7 51.2C35 51.1 35.2 51 35.5 50.9C35.7 50.8 36 50.8 36.1 51L36.3 51.2C36.5 51.4 36.9 51.4 37.1 51.2L37.4 50.9C37.6 50.7 37.6 50.2999 37.4 50.0999L37.2 49.9C37 49.7 37 49.5 37.1 49.2C37.2 49 37.3 48.7 37.4 48.4C37.5 48.2 37.7 48 37.9 48H38.2C38.6 48.1 38.8 47.8999 38.8 47.5999ZM33.6 49.5C32.4 49.5 31.5 48.6 31.5 47.4C31.5 46.2 32.4 45.2999 33.6 45.2999C34.8 45.2999 35.7 46.2 35.7 47.4C35.7 48.5 34.7 49.5 33.6 49.5Z" fill="#D2D9DC"/>
</g>
</g>
</g>
</g>
</svg>
