<svg width="50" height="50" viewBox="0 0 50 50" fill="none" xmlns="http://www.w3.org/2000/svg">
<g clip-path="url(#clip0_14476_48868)">
<path d="M2.24912 24.1848C3.08677 24.1848 3.76582 23.5057 3.76582 22.6681C3.76582 21.8304 3.08677 21.1514 2.24912 21.1514C1.41147 21.1514 0.732422 21.8304 0.732422 22.6681C0.732422 23.5057 1.41147 24.1848 2.24912 24.1848Z" fill="#6CF5C2"/>
<path d="M2.24912 15.0847C3.08677 15.0847 3.76582 14.4056 3.76582 13.568C3.76582 12.7303 3.08677 12.0513 2.24912 12.0513C1.41147 12.0513 0.732422 12.7303 0.732422 13.568C0.732422 14.4056 1.41147 15.0847 2.24912 15.0847Z" fill="#6CF5C2"/>
<path d="M2.24912 33.2853C3.08677 33.2853 3.76582 32.6063 3.76582 31.7687C3.76582 30.931 3.08677 30.252 2.24912 30.252C1.41147 30.252 0.732422 30.931 0.732422 31.7687C0.732422 32.6063 1.41147 33.2853 2.24912 33.2853Z" fill="#6CF5C2"/>
<path d="M47.7511 24.1848C48.5887 24.1848 49.2678 23.5057 49.2678 22.6681C49.2678 21.8304 48.5887 21.1514 47.7511 21.1514C46.9134 21.1514 46.2344 21.8304 46.2344 22.6681C46.2344 23.5057 46.9134 24.1848 47.7511 24.1848Z" fill="#6CF5C2"/>
<path d="M47.7511 15.0847C48.5887 15.0847 49.2678 14.4056 49.2678 13.568C49.2678 12.7303 48.5887 12.0513 47.7511 12.0513C46.9134 12.0513 46.2344 12.7303 46.2344 13.568C46.2344 14.4056 46.9134 15.0847 47.7511 15.0847Z" fill="#6CF5C2"/>
<path d="M47.7511 33.2853C48.5887 33.2853 49.2678 32.6063 49.2678 31.7687C49.2678 30.931 48.5887 30.252 47.7511 30.252C46.9134 30.252 46.2344 30.931 46.2344 31.7687C46.2344 32.6063 46.9134 33.2853 47.7511 33.2853Z" fill="#6CF5C2"/>
<path d="M13.8689 15.8695H5.58594L4.27061 14.5541C4.41641 14.2563 4.49834 13.9218 4.49834 13.5685C4.49834 12.3282 3.48936 11.3193 2.24922 11.3193C1.00908 11.3193 0 12.3282 0 13.5685C0 14.8087 1.00898 15.8176 2.24912 15.8176C2.60244 15.8176 2.93701 15.7356 3.23477 15.5898L4.76465 17.1197C4.90195 17.2571 5.08828 17.3343 5.28252 17.3343H13.8688C14.2733 17.3343 14.6013 17.0063 14.6013 16.6019C14.6013 16.1974 14.2734 15.8695 13.8689 15.8695ZM1.46484 13.5685C1.46484 13.136 1.8167 12.7842 2.24912 12.7842C2.68154 12.7842 3.0334 13.136 3.0334 13.5685C3.0334 14.0009 2.68154 14.3527 2.24912 14.3527C1.8167 14.3527 1.46484 14.0009 1.46484 13.5685Z" fill="#0681AF"/>
<path d="M13.8689 28.0029H5.28262C5.08838 28.0029 4.90205 28.0801 4.76475 28.2175L3.23486 29.7474C2.93711 29.6016 2.60254 29.5196 2.24922 29.5196C1.00898 29.5196 0 30.5285 0 31.7687C0 33.009 1.00898 34.0179 2.24912 34.0179C3.48926 34.0179 4.49824 33.0089 4.49824 31.7687C4.49824 31.4154 4.41631 31.0809 4.27051 30.7831L5.58594 29.4678H13.8689C14.2734 29.4678 14.6014 29.1398 14.6014 28.7354C14.6014 28.3309 14.2734 28.0029 13.8689 28.0029ZM2.24912 32.553C1.8167 32.553 1.46484 32.2012 1.46484 31.7687C1.46484 31.3363 1.8167 30.9845 2.24912 30.9845C2.68154 30.9845 3.0334 31.3363 3.0334 31.7687C3.0334 32.2012 2.68154 32.553 2.24912 32.553Z" fill="#0681AF"/>
<path d="M37.6737 17.3343H44.7172C44.9114 17.3343 45.0978 17.2571 45.2351 17.1197L46.7649 15.5898C47.0627 15.7356 47.3973 15.8176 47.7506 15.8176C48.9908 15.8176 49.9997 14.8086 49.9997 13.5685C49.9997 12.3283 48.9907 11.3193 47.7506 11.3193C46.5104 11.3193 45.5015 12.3283 45.5015 13.5685C45.5015 13.9218 45.5834 14.2563 45.7292 14.5541L44.4139 15.8695H37.6738C37.2693 15.8695 36.9414 16.1975 36.9414 16.602C36.9414 17.0064 37.2692 17.3343 37.6737 17.3343ZM47.7506 12.7841C48.183 12.7841 48.5349 13.1359 48.5349 13.5684C48.5349 14.0008 48.183 14.3526 47.7506 14.3526C47.3182 14.3526 46.9663 14.0008 46.9663 13.5684C46.9663 13.1359 47.3182 12.7841 47.7506 12.7841Z" fill="#0681AF"/>
<path d="M2.24912 24.9177C3.23301 24.9177 4.07129 24.2826 4.37578 23.401H12.8661C13.2706 23.401 13.5985 23.073 13.5985 22.6686C13.5985 22.2641 13.2706 21.9361 12.8661 21.9361H4.37588C4.07139 21.0544 3.23311 20.4194 2.24922 20.4194C1.00898 20.4193 0 21.4283 0 22.6686C0 23.9088 1.00898 24.9177 2.24912 24.9177ZM2.24912 21.8842C2.68154 21.8842 3.0334 22.236 3.0334 22.6685C3.0334 23.1009 2.68154 23.4527 2.24912 23.4527C1.8167 23.4527 1.46484 23.101 1.46484 22.6686C1.46484 22.2361 1.8167 21.8842 2.24912 21.8842Z" fill="#0681AF"/>
<path d="M47.7513 20.4194C46.7674 20.4194 45.9291 21.0545 45.6246 21.9361H36.0732C35.6687 21.9361 35.3408 22.2641 35.3408 22.6686C35.3408 23.073 35.6687 23.401 36.0732 23.401H45.6246C45.9291 24.2827 46.7674 24.9177 47.7513 24.9177C48.9915 24.9177 50.0004 23.9087 50.0004 22.6686C50.0004 21.4284 48.9914 20.4194 47.7513 20.4194ZM47.7513 23.4529C47.3188 23.4529 46.967 23.1011 46.967 22.6687C46.967 22.2362 47.3188 21.8844 47.7513 21.8844C48.1837 21.8844 48.5355 22.2362 48.5355 22.6687C48.5355 23.1011 48.1837 23.4529 47.7513 23.4529Z" fill="#0681AF"/>
<path d="M47.7509 29.5196C47.3976 29.5196 47.063 29.6016 46.7652 29.7474L45.2353 28.2175C45.098 28.0801 44.9117 28.0029 44.7175 28.0029H35.4473C35.0428 28.0029 34.7148 28.3309 34.7148 28.7354C34.7148 29.1398 35.0428 29.4678 35.4473 29.4678H44.4141L45.7294 30.7831C45.5836 31.0809 45.5017 31.4154 45.5017 31.7687C45.5017 33.009 46.5106 34.0179 47.7508 34.0179C48.9909 34.0179 50 33.009 50 31.7687C50 30.5285 48.991 29.5196 47.7509 29.5196ZM47.7509 32.553C47.3185 32.553 46.9666 32.2012 46.9666 31.7687C46.9666 31.3363 47.3185 30.9845 47.7509 30.9845C48.1833 30.9845 48.5352 31.3363 48.5352 31.7687C48.5352 32.2012 48.1833 32.553 47.7509 32.553Z" fill="#0681AF"/>
<path d="M38.4097 8.31489L37.0668 7.77778C36.9761 7.74155 36.8726 7.76274 36.8035 7.83179L34.5837 10.0516L35.6173 16.6016L25.0002 21.1518V10.5347L28.7652 7.72427L30.5397 5.5061C30.6421 5.37817 30.5919 5.18774 30.4397 5.1269L25.5441 3.1687C25.1949 3.02905 24.8053 3.02905 24.4561 3.1687L10.7538 8.64966C10.1977 8.87212 9.83301 9.41079 9.83301 10.0097V23.0958C9.83301 31.0822 14.6953 38.2639 22.1105 41.23L25.0002 42.386L27.7459 40.4726C35.1611 37.5066 39.1129 31.7595 39.1129 23.7732L39.5306 11.0887L38.4097 8.31489Z" fill="#DFF6FD"/>
<path d="M39.2464 8.64971L38.4094 8.31494V21.338C38.4094 29.3244 33.5471 36.5063 26.1318 39.4723L23.2422 40.6282L20.3524 39.4724C18.2464 38.63 16.3464 37.4475 14.7051 36.0031C16.6883 38.2564 19.203 40.0673 22.1103 41.2302L25 42.386L27.8897 41.2302C35.305 38.2642 40.1673 31.0823 40.1673 23.0959V10.0099C40.1672 9.41084 39.8025 8.87217 39.2464 8.64971Z" fill="#C8EFFE"/>
<path d="M35.1807 10.2906L34.5835 10.0517L32.7081 11.9271C32.6338 12.0014 32.6153 12.1149 32.6624 12.209L33.9992 14.8828C34.0563 14.9969 34.0158 15.1357 33.9064 15.2013L27.2356 19.2038C27.0262 19.3295 26.7824 19.1037 26.8917 18.8852L29.4715 13.7257C29.5185 13.6316 29.5001 13.5181 29.4258 13.4438L26.6713 10.6893C26.5833 10.6013 26.5756 10.4613 26.6533 10.3641L28.7651 7.72429L25.1813 6.2908C25.0649 6.24421 24.9351 6.24421 24.8187 6.2908L13.1731 10.949C12.9878 11.0231 12.8662 11.2027 12.8662 11.4023V22.9381C12.8662 26.1938 13.7729 29.3986 15.5553 32.1232C15.9286 32.694 16.3341 33.2379 16.769 33.7529C18.5056 35.8088 20.7864 36.7631 23.3099 37.7724L25 37.61L26.6746 37.7028C29.798 36.4535 32.6106 33.1623 34.4717 30.3553C36.2888 27.6147 36.1772 13.1051 36.1772 13.1051L35.1807 10.2906Z" fill="#FE646F"/>
<path d="M36.8273 10.949L35.1812 10.2905V20.9941C35.1812 24.2824 34.2521 27.5163 32.435 30.2569C30.5739 33.0639 27.9339 35.211 24.8104 36.4605L23.0474 37.1657L21.2843 36.4605C19.6289 35.7983 18.1094 34.884 16.7695 33.7529C18.5061 35.8088 20.714 37.4042 23.2374 38.4136L25.0005 39.1188L26.7637 38.4136C29.8871 37.1643 32.5271 35.017 34.3882 32.2101C36.2053 29.4694 37.1344 26.2355 37.1344 22.9473V11.4024C37.1343 11.2027 37.0127 11.0232 36.8273 10.949Z" fill="#FD4755"/>
<path d="M24.1547 34.4177L17.7729 45.4712C17.397 46.1223 17.8669 46.9361 18.6186 46.9361H31.3821C32.1339 46.9361 32.6037 46.1223 32.2278 45.4712C32.2278 45.4712 24.6086 33.7679 24.205 34.3391C24.1873 34.3641 24.1705 34.3904 24.1547 34.4177Z" fill="#FEE45A"/>
<path d="M32.2278 45.4714L25.8461 34.418C25.486 33.7943 24.6086 33.7681 24.205 34.3393L29.7864 44.0066C30.1623 44.6577 29.6925 45.4715 28.9407 45.4715H17.7729C17.397 46.1225 17.8669 46.9363 18.6186 46.9363H31.3821C32.1339 46.9362 32.6037 46.1224 32.2278 45.4714Z" fill="#FED402"/>
<path d="M25 38.6201C24.5955 38.6201 24.2676 38.948 24.2676 39.3525V40.8692C24.2676 41.2737 24.5955 41.6017 25 41.6017C25.4045 41.6017 25.7324 41.2737 25.7324 40.8692V39.3525C25.7324 38.948 25.4045 38.6201 25 38.6201Z" fill="#0681AF"/>
<path d="M25 44.6353C25.4045 44.6353 25.7324 44.3073 25.7324 43.9028C25.7324 43.4983 25.4045 43.1704 25 43.1704C24.5955 43.1704 24.2676 43.4983 24.2676 43.9028C24.2676 44.3073 24.5955 44.6353 25 44.6353Z" fill="#0681AF"/>
</g>
<defs>
<clipPath id="clip0_14476_48868">
<rect width="50" height="50" fill="white"/>
</clipPath>
</defs>
</svg>
