<svg width="50" height="50" viewBox="0 0 50 50" fill="none" xmlns="http://www.w3.org/2000/svg">
<g clip-path="url(#clip0_18045_31344)">
<path d="M50 47.1305C50 47.6107 38.8918 48 25.1894 48C11.487 48 0.378906 47.6107 0.378906 47.1305C0.378906 46.65 11.487 46.2607 25.1894 46.2607C38.8918 46.2607 50 46.65 50 47.1305Z" fill="#A0DAEA"/>
<path d="M28.5645 41.4164L28.55 41.4031H21.8299L21.8157 41.4164C21.6509 41.5683 20.151 42.918 18.2422 43.4948L18.2561 43.5986H32.1239L32.1378 43.4948C30.2257 42.9171 28.7288 41.5683 28.5645 41.4164Z" fill="#E2EAF5"/>
<path d="M28.5483 38.2122H21.8281V41.5477L28.5483 41.8555V38.2122Z" fill="#E2EAF5"/>
<path d="M21.8281 41.4033V38.3013H28.5483C28.5483 38.3013 27.0236 40.9286 21.8281 41.4033Z" fill="#B0BDCD"/>
<path d="M1.33822 38.3018C0.809271 38.3018 0.378906 37.8713 0.378906 37.3426V35.633H50V37.3426C50 37.8713 49.5696 38.3018 49.0405 38.3018H1.33822Z" fill="white"/>
<path d="M47.983 33.7223V8.72543H2.39593V33.7223H47.983ZM0.378906 35.6777V7.72921C0.378906 7.20044 0.809271 6.77002 1.33822 6.77002H49.0405C49.5696 6.77002 50 7.20044 50 7.72921V35.6777H0.378906Z" fill="#3E5670"/>
<path d="M2.35156 33.7666H48.0275V8.68053H2.35156V33.7666Z" fill="white"/>
<path d="M33.9904 43.4467H16.3911C15.9651 44.5254 15.7461 45.6746 15.7461 46.8343V47.1299H34.6355V46.8343C34.6355 45.6746 34.4165 44.5254 33.9904 43.4467Z" fill="white"/>
<path d="M16.9318 21.3779H9.43359V21.0887H16.9318V21.3779Z" fill="#EE293A"/>
<path d="M9.43441 20.6897C9.13413 20.6897 8.89062 20.9333 8.89062 21.2335C8.89062 21.5338 9.13413 21.7773 9.43441 21.7773C9.73469 21.7773 9.97819 21.5338 9.97819 21.2335C9.97819 20.9333 9.73469 20.6897 9.43441 20.6897Z" fill="#EE293A"/>
<path d="M17.8436 17.6279H13.4309L11.4573 15.3789H5.50781V15.0897H11.5883L13.5619 17.3387H17.8436V17.6279Z" fill="#EE293A"/>
<path d="M5.50863 14.6907C5.20835 14.6907 4.96484 14.9343 4.96484 15.2345C4.96484 15.5348 5.20835 15.7783 5.50863 15.7783C5.80888 15.7783 6.05238 15.5348 6.05238 15.2345C6.05238 14.9343 5.80888 14.6907 5.50863 14.6907Z" fill="#EE293A"/>
<path d="M11.5883 27.376H5.50781V27.0867H11.4573L13.4309 24.8377H17.4968V25.127H13.5619L11.5883 27.376Z" fill="#EE293A"/>
<path d="M5.50863 26.6878C5.20835 26.6878 4.96484 26.9313 4.96484 27.2316C4.96484 27.5318 5.20835 27.7754 5.50863 27.7754C5.80888 27.7754 6.05238 27.5318 6.05238 27.2316C6.05238 26.9313 5.80888 26.6878 5.50863 26.6878Z" fill="#EE293A"/>
<path d="M38.9556 21.3779H31.4258V21.0887H38.9556V21.3779Z" fill="#EE293A"/>
<path d="M38.954 21.7773C39.2542 21.7773 39.4978 21.5338 39.4978 21.2335C39.4978 20.9333 39.2542 20.6897 38.954 20.6897C38.6537 20.6897 38.4102 20.9333 38.4102 21.2335C38.4102 21.5338 38.6537 21.7773 38.954 21.7773Z" fill="#EE293A"/>
<path d="M42.8813 27.376H36.801L34.8273 25.127H30.3516V24.8377H34.9581L36.9317 27.0867H42.8813V27.376Z" fill="#EE293A"/>
<path d="M42.8798 27.7754C43.18 27.7754 43.4236 27.5318 43.4236 27.2316C43.4236 26.9313 43.18 26.6878 42.8798 26.6878C42.5795 26.6878 42.3359 26.9313 42.3359 27.2316C42.3359 27.5318 42.5795 27.7754 42.8798 27.7754Z" fill="#EE293A"/>
<path d="M34.9556 17.6279H30.1914V17.3387H34.8245L36.7985 15.0897H42.8787V15.3789H36.9292L34.9556 17.6279Z" fill="#EE293A"/>
<path d="M42.8798 15.7783C43.18 15.7783 43.4236 15.5348 43.4236 15.2345C43.4236 14.9343 43.18 14.6907 42.8798 14.6907C42.5795 14.6907 42.3359 14.9343 42.3359 15.2345C42.3359 15.5348 42.5795 15.7783 42.8798 15.7783Z" fill="#EE293A"/>
<path d="M24.34 13.8799H24.0508V10.7903H24.34V13.8799Z" fill="#EE293A"/>
<path d="M24.74 10.7914C24.74 10.4909 24.4964 10.2476 24.1962 10.2476C23.8959 10.2476 23.6523 10.4909 23.6523 10.7914C23.6523 11.0917 23.8959 11.335 24.1962 11.335C24.4964 11.335 24.74 11.0917 24.74 10.7914Z" fill="#EE293A"/>
<path d="M28.0386 14.9629L27.8477 14.7454L30.0475 12.8148V9.74836H30.3368V12.9459L28.0386 14.9629Z" fill="#EE293A"/>
<path d="M30.7361 9.74916C30.7361 9.4489 30.4925 9.20534 30.1923 9.20534C29.892 9.20534 29.6484 9.4489 29.6484 9.74916C29.6484 10.0494 29.892 10.293 30.1923 10.293C30.4925 10.293 30.7361 10.0494 30.7361 9.74916Z" fill="#EE293A"/>
<path d="M20.349 14.9629L18.0508 12.9459V9.74836H18.34V12.8148L20.5399 14.7454L20.349 14.9629Z" fill="#EE293A"/>
<path d="M18.74 9.74916C18.74 9.4489 18.4964 9.20534 18.1962 9.20534C17.8959 9.20534 17.6523 9.4489 17.6523 9.74916C17.6523 10.0494 17.8959 10.293 18.1962 10.293C18.4964 10.293 18.74 10.0494 18.74 9.74916Z" fill="#EE293A"/>
<path d="M24.34 31.959H24.0508V28.5266H24.34V31.959Z" fill="#EE293A"/>
<path d="M23.6523 31.9581C23.6523 32.2584 23.8959 32.502 24.1962 32.502C24.4964 32.502 24.74 32.2584 24.74 31.9581C24.74 31.6579 24.4964 31.4143 24.1962 31.4143C23.8959 31.4143 23.6523 31.6579 23.6523 31.9581Z" fill="#EE293A"/>
<path d="M30.3391 33.001H30.0498V29.9345L27.8008 27.9609V27.3962H28.09V27.8298L30.3391 29.8035V33.001Z" fill="#EE293A"/>
<path d="M29.6484 33.0011C29.6484 33.3014 29.892 33.5449 30.1923 33.5449C30.4925 33.5449 30.7361 33.3014 30.7361 33.0011C30.7361 32.7009 30.4925 32.4576 30.1923 32.4576C29.892 32.4576 29.6484 32.7009 29.6484 33.0011Z" fill="#EE293A"/>
<path d="M18.34 33.001H18.0508V29.8035L20.2998 27.8298V27.3962H20.5891V27.9609L18.34 29.9345V33.001Z" fill="#EE293A"/>
<path d="M17.6523 33.0011C17.6523 33.3014 17.8959 33.5449 18.1962 33.5449C18.4964 33.5449 18.74 33.3014 18.74 33.0011C18.74 32.7009 18.4964 32.4576 18.1962 32.4576C17.8959 32.4576 17.6523 32.7009 17.6523 33.0011Z" fill="#EE293A"/>
<path d="M16.4244 27.6611C16.7929 27.4448 17.1406 27.0849 17.3228 26.6982C17.3876 26.5608 17.4376 26.4 17.3798 26.2594C17.3167 26.1055 17.1319 26.0236 16.9673 26.0497C16.803 26.0754 16.6627 26.1911 16.573 26.3311C16.5334 26.3933 16.5001 26.4624 16.4417 26.5073C16.3833 26.5521 16.2878 26.5608 16.243 26.5023C16.1987 26.4448 16.21 26.3378 16.1394 26.321C16.0761 26.3059 16.0362 26.3864 16.024 26.4503C15.9847 26.6612 15.9563 27.0106 15.9832 27.2235L16.4244 27.6611Z" fill="#FEC5A4"/>
<path d="M10.0898 46.2656H11.1483V45.4777H10.0898V46.2656Z" fill="white"/>
<path d="M12.5823 46.7805L11.2898 46.1337C11.2577 46.1175 11.2213 46.1111 11.1854 46.1157C11.0503 46.1328 10.6517 46.1435 10.0807 45.814C9.97764 45.7544 9.84614 45.8048 9.81108 45.9185L9.51222 46.8883C9.47568 47.0069 9.5642 47.127 9.6882 47.127L12.4995 47.1299C12.6939 47.1299 12.7561 46.8678 12.5823 46.7805Z" fill="#27181B"/>
<path d="M7.21484 46.2656H8.27328V45.4777H7.21484V46.2656Z" fill="white"/>
<path d="M9.70716 46.7805L8.41496 46.1337C8.3826 46.1175 8.34638 46.1111 8.31048 46.1157C8.17528 46.1328 7.77674 46.1435 7.2057 45.814C7.10264 45.7544 6.97114 45.8048 6.93608 45.9185L6.63722 46.8883C6.60068 47.0069 6.68919 47.127 6.81323 47.127L9.62446 47.1299C9.81907 47.1299 9.88118 46.8678 9.70716 46.7805Z" fill="#27181B"/>
<path d="M9.56192 25.8803L10.4469 27.4817L10.5436 32.6592L8.46295 32.4657L8.14844 26.4979L8.48494 25.8933L9.56192 25.8803Z" fill="white"/>
<path d="M11.1907 45.6553H10.0703C10.0266 45.6553 9.99309 45.6165 9.99939 45.5734L10.7843 40.1891C10.8127 39.9959 10.791 39.7986 10.7213 39.6161L9.65072 36.7865L9.41292 39.8266C9.40866 39.9235 9.39767 40.0202 9.38003 40.1153L8.40967 45.5963C8.40359 45.6304 8.37386 45.6553 8.33909 45.6553H7.19639C7.15708 45.6553 7.12511 45.6237 7.12471 45.5844L7.05887 39.4894L6.64453 31.4432C8.50087 31.8271 10.2015 32.2896 11.6044 32.3131L13.0753 39.3459C13.1586 39.7448 13.1328 40.159 13.0001 40.5443L11.2584 45.607C11.2483 45.6359 11.2211 45.6553 11.1907 45.6553Z" fill="#2F4154"/>
<path d="M13.8553 28.8638L15.8104 27.0829C15.8506 27.0464 15.9119 27.0467 15.9516 27.0837L16.5388 27.6313C16.579 27.6689 16.583 27.7314 16.548 27.7739L14.3745 30.4007C13.9889 30.8667 13.2964 30.9274 12.8356 30.5352L9.99584 28.119L9.5625 25.8804C9.5625 25.8804 11.0335 25.9952 12.0014 26.9145C12.8024 27.6756 13.4891 28.5653 13.702 28.8494C13.7387 28.8986 13.8099 28.9052 13.8553 28.8638Z" fill="#0267C1"/>
<path d="M9.5625 25.8805C9.5625 25.8805 11.2632 26.3286 11.9152 30.4416C12.0462 31.268 12.1281 32.6912 12.1506 33.9261C12.1559 34.209 11.8377 34.3776 11.6065 34.2145L10.6001 33.504C10.3766 33.3461 10.2423 33.0904 10.2412 32.8167C10.2341 30.9261 9.95034 28.5035 9.5625 25.8805Z" fill="#0267C1"/>
<path d="M6.30078 29.4091L6.9137 34.2803L7.49413 33.9141L8.09123 33.5377L8.44352 33.3153C8.68184 33.1649 8.83518 32.9115 8.85768 32.6306C9.04247 30.331 8.48405 25.8931 8.48405 25.8931L6.30078 29.4091Z" fill="#0267C1"/>
<path d="M6.73828 30.6507L7.30905 32.7646L7.1368 31.0143L7.97621 28.5258L6.73828 30.6507Z" fill="#024D91"/>
<path d="M18.6669 27.6902C18.2671 27.543 17.8494 27.4438 17.4262 27.3952C17.3016 27.6367 17.1442 27.884 17.0195 28.1256C17.213 28.1718 17.3944 28.2809 17.5495 28.4053C17.9397 28.1979 18.277 27.8976 18.6669 27.6902Z" fill="#FEC5A4"/>
<path d="M18.8707 25.4261C16.5545 22.4849 17.0613 18.2235 20.0023 15.9076C22.9435 13.5915 27.2049 14.0983 29.521 17.0392C31.8369 19.9804 31.3301 24.2419 28.3891 26.5577C25.4479 28.8738 21.1865 28.367 18.8707 25.4261ZM30.289 16.4344C27.6391 13.0694 22.7627 12.4897 19.3977 15.1396C16.8918 17.1127 15.9309 20.3206 16.6977 23.2196L16.3983 25.7703L4.87552 34.8442C4.72383 34.9637 4.69768 35.1835 4.81712 35.3354L5.94235 36.7643C6.06179 36.9159 6.28183 36.9419 6.43352 36.8225L17.9563 27.7486L20.5062 28.0558C23.1445 29.481 26.4878 29.2987 28.9937 27.3257C32.3587 24.6758 32.9389 19.7997 30.289 16.4344Z" fill="#3E5670"/>
<path d="M28.2606 26.3994C27.0893 27.3215 25.6841 27.8089 24.197 27.8089C22.1661 27.8089 20.2813 26.8952 19.0264 25.3013C17.9397 23.9213 17.4555 22.201 17.6629 20.4568C17.8703 18.7125 18.7444 17.154 20.1242 16.0672C21.2954 15.1447 22.7007 14.657 24.188 14.657C26.219 14.657 28.1035 15.5714 29.3586 17.1652C30.4451 18.545 30.9293 20.2653 30.7219 22.0098C30.5148 23.7538 29.6403 25.3126 28.2606 26.3994ZM29.5177 17.0397C27.2016 14.0988 22.9402 13.5923 19.9989 15.9081C17.058 18.2242 16.5512 22.4854 18.8673 25.4266C21.1832 28.3678 25.4446 28.8746 28.3858 26.5585C31.3267 24.2423 31.8335 19.9809 29.5177 17.0397Z" fill="#2F4154"/>
<path d="M24.1982 27.8086C22.7606 27.8086 21.3961 27.3507 20.2767 26.5179C19.8144 26.174 19.3941 25.7664 19.0277 25.301C18.6354 24.8029 18.3219 24.2608 18.0907 23.6889C17.8639 23.128 17.7167 22.5382 17.6531 21.9345C17.6022 21.4489 17.6051 20.9537 17.6641 20.4564C17.8156 19.1822 18.323 18.0067 19.1237 17.0423C19.4187 16.6865 19.7537 16.3596 20.1254 16.0669C21.2966 15.1444 22.7019 14.657 24.1892 14.657C26.2202 14.657 28.1047 15.5711 29.3598 17.1646C29.6659 17.5534 29.9242 17.969 30.1324 18.4047C30.6641 19.5157 30.8721 20.7564 30.7231 22.0095C30.6901 22.2866 30.6404 22.5591 30.5744 22.8258C30.4327 23.3979 30.2166 23.9435 29.9323 24.4505C29.5675 25.1008 29.0908 25.688 28.5155 26.1887C28.433 26.2605 28.3483 26.3308 28.2618 26.399C28.1472 26.489 28.0307 26.5749 27.9118 26.6568C27.2777 27.0932 26.5838 27.4103 25.8519 27.5997C25.3179 27.738 24.764 27.8086 24.1982 27.8086Z" fill="#F0F4FA"/>
<path d="M25.852 27.6006C26.5839 27.4111 27.2778 27.0941 27.9119 26.6576C27.2778 27.0944 26.5839 27.4111 25.852 27.6006ZM28.5156 26.1896C29.0909 25.6889 29.5676 25.1017 29.9324 24.4514C29.5676 25.1017 29.0909 25.6891 28.5156 26.1896ZM30.5745 22.8266C30.6405 22.5599 30.6902 22.2874 30.7232 22.0103C30.8722 20.7572 30.6642 19.5166 30.1325 18.4055C30.6645 19.5166 30.8722 20.7572 30.7232 22.01C30.6902 22.2871 30.6405 22.5599 30.5745 22.8266ZM17.6532 21.9354C17.602 21.4494 17.6052 20.9545 17.6642 20.4573C17.6052 20.9545 17.6023 21.4497 17.6532 21.9354Z" fill="#8996A5"/>
<path d="M17.9411 27.7619L17.4837 28.1221L15.9258 26.1435L16.3828 25.7837L17.9411 27.7619Z" fill="#2F4154"/>
<path d="M6.95312 34.6331C6.96195 35.0545 7.10401 35.5266 7.34901 35.8694C7.43605 35.9912 7.55016 36.1115 7.69876 36.1297C7.86161 36.1494 8.02091 36.0296 8.0778 35.8757C8.13473 35.7219 8.1028 35.5457 8.02545 35.4011C7.99126 35.3371 7.94773 35.2752 7.93728 35.2035C7.92687 35.1318 7.96522 35.0456 8.03702 35.0351C8.10783 35.0247 8.19455 35.0858 8.24298 35.0331C8.28631 34.986 8.23647 34.9128 8.18729 34.8717C8.02493 34.7363 7.73778 34.5437 7.5418 34.4644L6.95312 34.6331Z" fill="#FEC5A4"/>
<path d="M8.48527 27.5053L6.97008 30.8926C6.96074 30.9134 6.95854 30.9368 6.96383 30.9591L7.77148 34.3553C7.78433 34.4094 7.75259 34.4638 7.69934 34.4794L6.9277 34.7048C6.87642 34.7198 6.8221 34.6935 6.80196 34.644L5.42273 31.2487C5.2899 30.9218 5.26485 30.5611 5.35117 30.2189C5.5601 29.3904 5.96229 27.8287 6.14921 27.3225C6.45702 26.4891 7.72586 25.9708 8.48304 25.8927L8.48527 27.5053Z" fill="#0267C1"/>
<path d="M18.1437 27.6132C17.8929 27.686 17.6606 27.8437 17.5409 28.0792C17.5061 28.1474 17.4885 28.2244 17.4992 28.3004C17.5261 28.4885 17.6959 28.5443 17.8504 28.5677C18.1486 28.6128 18.4749 28.575 18.7109 28.3875C18.8813 28.2518 19.0878 27.8718 18.9296 27.6583C18.7844 27.4624 18.3407 27.5556 18.1437 27.6132Z" fill="#FEC5A4"/>
<path d="M8.41406 24.2218L8.48499 25.8931L9.21529 26.5633C9.24572 26.5992 9.3021 26.5952 9.32703 26.5552L9.56197 25.8801L9.56009 25.8052L9.55812 25.7193L9.54189 25.0207L9.54025 24.951L8.41406 24.2218Z" fill="#FEC5A4"/>
<path d="M8.75391 24.6468C8.75391 24.6468 8.87655 25.4509 9.55863 25.8047L9.55667 25.7188L9.54044 25.0202L8.75391 24.6468Z" fill="#DD9169"/>
<path d="M10.2674 23.5163C10.3139 23.8469 10.4183 24.378 10.5276 24.6935C10.5338 24.7118 10.5401 24.7317 10.5325 24.7494C10.5213 24.7754 10.4873 24.7806 10.4594 24.7867C10.3301 24.8145 10.2422 24.9331 10.1798 25.0496C10.1173 25.1662 10.0635 25.2946 9.95793 25.3745C9.85226 25.454 9.73126 25.5385 9.59343 25.5391C9.44596 25.5394 9.29095 25.4367 9.20877 25.3186C8.96978 25.0204 8.67872 24.5813 8.37109 24.0974L8.5343 23.301L10.2674 23.5163Z" fill="#FEC5A4"/>
<path d="M7.71398 23.1424C7.79963 23.0293 7.92072 22.9587 8.03607 22.8806C8.12407 22.821 8.20934 22.7493 8.25097 22.6489C8.30405 22.5211 8.27364 22.3758 8.32224 22.2468C8.39485 22.0542 8.60424 21.9914 8.79252 22.0166C9.03044 22.0481 9.25937 22.1369 9.50119 22.1418C9.54365 22.1427 9.58588 22.1415 9.628 22.1389C9.69954 22.1271 9.77032 22.1199 9.84049 22.1187C9.96765 22.1048 10.0952 22.0915 10.224 22.1019C10.4347 22.1196 10.6818 22.2101 10.6822 22.4539C10.6824 22.5063 10.6738 22.5581 10.6619 22.6096C10.6255 22.7666 10.5569 22.9217 10.6021 23.0831C10.6392 23.2156 10.7247 23.3562 10.7515 23.497C10.7671 23.5815 10.7622 23.666 10.7127 23.7493C10.6978 23.7744 10.6788 23.7955 10.6574 23.8126C10.6452 23.8375 10.6312 23.8615 10.6153 23.8843C10.5713 23.9474 10.5139 24.022 10.4345 24.0397C10.3675 24.0544 10.3146 24.0174 10.2883 23.9581C10.2355 23.8381 10.2557 23.7067 10.2188 23.5824C10.1976 23.51 10.1113 23.5332 10.0539 23.5367C9.88197 23.5465 9.79748 23.5526 9.62554 23.5595C9.53179 23.5638 9.43821 23.5685 9.3442 23.5734C9.28936 23.5763 9.14218 23.5543 9.13249 23.6336C9.12769 23.6758 9.15306 23.7163 9.16966 23.7533C9.24669 23.9237 9.31155 24.1013 9.38146 24.2751C9.39925 24.3191 9.45803 24.4851 9.36234 24.484C9.3488 24.484 9.33561 24.4785 9.32352 24.4727C9.19995 24.4169 9.11219 24.2986 9.03562 24.191C8.99744 24.1369 8.95934 24.0819 8.91549 24.0313C8.87629 23.9859 8.81905 23.9182 8.75897 23.9003C8.66354 23.8719 8.63326 23.9593 8.61639 24.0342C8.61402 24.044 8.61211 24.0539 8.61023 24.0628C8.59331 24.1415 8.57057 24.219 8.54642 24.296C8.52339 24.3692 8.51052 24.4597 8.44275 24.5063C8.3564 24.5656 8.24449 24.4846 8.1674 24.4493C8.09265 24.4151 7.94973 24.3845 7.91181 24.3009C7.86443 24.1962 7.88195 24.079 7.86691 23.9682C7.83616 23.7409 7.60322 23.602 7.62665 23.3582C7.63469 23.2749 7.66735 23.204 7.71398 23.1424Z" fill="#27191C"/>
<path d="M21.8499 19.4836C21.7232 19.7194 21.6318 19.9849 21.5821 20.2803L19.8792 19.6147L19.8477 18.9326L20.0056 18.8918L21.8499 19.4836Z" fill="#3E5670"/>
<path d="M19.8794 19.6147L19.1597 20.3382L19.0391 20.3691C19.2418 19.0411 19.8253 18.6897 19.8253 18.6897L19.8478 18.9327L19.8794 19.6147Z" fill="#2F4154"/>
<path d="M21.6964 21.9808L21.3157 22.0791L20.327 21.8572L18.5703 20.7699L19.0476 20.5987L21.5613 21.2692C21.5859 21.4887 21.6287 21.7193 21.6912 21.9614C21.6929 21.9677 21.6946 21.9744 21.6964 21.9808Z" fill="#2F4154"/>
<path d="M22.4024 23.6628C21.908 23.791 21.534 23.7389 21.3463 23.5532C21.1467 23.3556 20.952 23.1453 20.6515 23.1025C20.3506 23.0603 20.2656 23.4548 19.9271 23.5584C19.5887 23.6619 19.1875 23.2116 19.1875 23.2116L19.8427 23.3521C19.8843 23.3608 19.928 23.3481 19.9581 23.3183L20.2517 23.0279C20.2925 22.9877 20.3382 22.953 20.3877 22.9249C20.4371 22.8968 20.49 22.8751 20.5456 22.861C20.6983 22.8213 20.86 22.839 21.0006 22.9101L21.2578 23.04C21.3197 23.0716 21.392 23.0771 21.4579 23.0548L22.0058 22.8717C22.1209 23.143 22.2545 23.4085 22.4024 23.6628Z" fill="#2F4154"/>
<path d="M23.0195 25.9514C22.8355 26.0472 22.5703 26.3457 22.5703 26.3457L22.4688 26.2008L22.469 26.2005C22.4841 26.186 22.9651 25.7226 23.0224 25.392C23.0965 25.2323 23.0872 25.0301 23.0652 24.8858C23.049 24.7799 23.0476 24.6804 23.0525 24.5951C23.1407 24.7004 23.231 24.801 23.3232 24.8962C23.3438 24.9925 23.3684 25.101 23.397 25.2173C23.5008 25.6399 23.2035 25.8557 23.0195 25.9514Z" fill="#3E5670"/>
<path d="M23.0222 25.3914C22.9649 25.722 22.4839 26.1854 22.4688 26.1999L22.4685 26.2002C22.2171 26.035 22.38 25.6292 22.38 25.6292C22.662 25.6758 22.8353 25.6185 22.9389 25.5132C22.9742 25.4773 23.0013 25.436 23.0222 25.3914Z" fill="#2F4154"/>
<path d="M27.4683 17.654L26.2986 19.0645C26.1111 18.831 25.9017 18.6436 25.6758 18.4992L27.0078 17.083L27.1658 17.0422L27.4683 17.654Z" fill="#3E5670"/>
<path d="M28.5713 17.9075L28.451 17.9385L27.4707 17.6541L27.1681 17.0423L27.0703 16.8187C27.0703 16.8187 27.7509 16.8436 28.5713 17.9075Z" fill="#2F4154"/>
<path d="M29.1726 18.0325L28.1622 19.8343L27.4043 20.5074L27.0237 20.6055C27.0222 20.5991 27.0208 20.5927 27.019 20.5864C26.9565 20.3446 26.8822 20.1218 26.7969 19.9182L28.6719 18.1138L29.1726 18.0325Z" fill="#2F4154"/>
<path d="M29.815 20.4664C29.815 20.4664 29.682 21.0545 29.336 21.128C28.9897 21.2014 28.7239 20.8971 28.4815 21.08C28.2391 21.2628 28.1708 21.5413 28.0919 21.8106C28.0172 22.0646 27.7141 22.292 27.2171 22.4189C27.2244 22.1245 27.2134 21.8271 27.1836 21.5338L27.7526 21.4288C27.8211 21.4161 27.8816 21.3767 27.9209 21.3189L28.0826 21.0805C28.1711 20.9504 28.3045 20.8566 28.4569 20.8173C28.5125 20.8028 28.5692 20.7962 28.6261 20.7968C28.6831 20.7973 28.7398 20.8057 28.7948 20.8211L29.1922 20.933C29.2336 20.9446 29.2776 20.9347 29.3097 20.9067L29.815 20.4664Z" fill="#2F4154"/>
<path d="M28.3918 24.6699L28.3912 24.6696C28.3713 24.6644 27.7259 24.492 27.5156 24.2305C27.5553 24.2595 27.5992 24.2826 27.6475 24.2968C27.7893 24.3387 27.9689 24.3049 28.1931 24.1276C28.1931 24.1276 28.5318 24.4038 28.3918 24.6699Z" fill="#2F4154"/>
<path d="M28.3922 24.6695L28.3737 24.8457C28.3737 24.8457 27.9968 24.7129 27.7897 24.7184C27.5823 24.7236 27.2178 24.6788 27.1038 24.2588C27.0706 24.1364 27.0376 24.0236 27.0078 23.9253C27.0419 23.7994 27.072 23.6701 27.0978 23.5377C27.1452 23.6114 27.1947 23.7031 27.2334 23.8078C27.2841 23.9449 27.374 24.1263 27.516 24.2302C27.7263 24.4916 28.3717 24.664 28.3916 24.6693L28.3922 24.6695Z" fill="#3E5670"/>
<path d="M23.4276 18.2583C23.3581 18.2791 23.2899 18.302 23.2231 18.3271C23.1467 18.1611 22.9497 17.8253 22.5578 17.6853C22.0273 17.4961 20.841 17.7703 20.3281 18.2291C20.4916 17.823 20.6822 17.4516 20.9992 17.2427C21.3689 17.1013 21.7409 17.0399 22.1161 17.0932C22.7212 17.2586 23.127 17.6887 23.4276 18.2583Z" fill="#2F4154"/>
<path d="M26.4054 16.6605C25.7346 16.5075 24.564 16.8418 24.1914 17.2645C23.9158 17.5774 23.9065 17.9682 23.9201 18.1499C23.8495 18.16 23.7787 18.1727 23.7078 18.1875C23.6951 17.5433 23.842 16.9703 24.2915 16.5323C24.5935 16.3041 24.949 16.1774 25.341 16.1222C25.7196 16.1514 26.0658 16.3839 26.4054 16.6605Z" fill="#2F4154"/>
<path d="M23.6448 18.201L23.6396 18.2022C23.6116 18.2085 23.5835 18.2155 23.5555 18.2227C23.5341 18.2282 23.5129 18.234 23.4918 18.2398L23.4866 18.2412L23.2422 17.295L23.3212 17.2745L23.4001 17.254L23.6448 18.201Z" fill="#2F4154"/>
<path d="M27.2163 22.4177C27.2071 22.8013 27.1669 23.1793 27.0963 23.5369C27.0705 23.6693 27.0405 23.7986 27.0063 23.9245C26.7605 24.8316 26.3052 25.5516 25.6598 25.7934C25.6147 25.8105 25.5687 25.8249 25.5218 25.8371C25.4747 25.8492 25.4275 25.8588 25.3798 25.8657C24.7035 25.9658 23.9665 25.5617 23.3203 24.8947C23.228 24.7995 23.1377 24.6988 23.0495 24.5935C22.8135 24.3118 22.5942 23.9968 22.3995 23.6618C22.2517 23.4076 22.1181 23.142 22.003 22.8707C21.878 22.578 21.7744 22.2786 21.6963 21.9801C21.6946 21.9737 21.6929 21.967 21.6911 21.9607C21.6287 21.7186 21.5858 21.488 21.5613 21.2685C21.5202 20.9083 21.5286 20.5786 21.5795 20.2792C21.6292 19.9839 21.7206 19.7186 21.8473 19.4826C22.1409 18.9356 22.6243 18.5491 23.2213 18.3264C23.2876 18.3015 23.3556 18.2787 23.4244 18.2581L23.4258 18.2578C23.4458 18.2515 23.4658 18.2457 23.486 18.2399L23.4912 18.2384C23.5123 18.2327 23.5334 18.2269 23.5549 18.2217C23.5829 18.2144 23.611 18.2072 23.639 18.2008L23.6442 18.2C23.6642 18.1948 23.6844 18.1904 23.7044 18.1861H23.705C23.7758 18.1713 23.8467 18.1586 23.9173 18.1485C24.5436 18.0591 25.1524 18.1638 25.6743 18.4982C25.9002 18.6425 26.1096 18.83 26.2971 19.0634C26.4874 19.3 26.6549 19.5835 26.794 19.9173C26.8793 20.121 26.9537 20.3437 27.0162 20.5855C27.0179 20.5919 27.0193 20.5982 27.0208 20.6046V20.6049C27.0972 20.904 27.151 21.2158 27.1828 21.5326C27.2126 21.8259 27.2236 22.1232 27.2163 22.4177Z" fill="#EE293A"/>
<path d="M25.6612 25.7939C25.6161 25.811 25.5701 25.8254 25.5232 25.8376C25.4761 25.8497 25.4289 25.8593 25.3812 25.8662L23.4258 18.2586L23.4272 18.2583C23.4472 18.252 23.4671 18.2462 23.4874 18.2404L23.4926 18.2389C23.5137 18.2332 23.5348 18.2274 23.5562 18.2222C23.5843 18.2149 23.6124 18.2077 23.6404 18.2013L23.6456 18.2005C23.6656 18.1953 23.6858 18.1909 23.7058 18.1866L25.6612 25.7939Z" fill="#2F4154"/>
<path d="M47.2316 4.4446V10.9336C47.2316 10.9336 47.5388 13.4647 46.0878 14.9538C44.6363 16.4435 42.8307 18.0203 40.6234 18.709C38.4163 18.0203 36.6107 16.4435 35.1589 14.9538C33.7083 13.4647 34.0155 10.9336 34.0155 10.9336V4.4446C38.2335 4.89874 40.3911 2.68848 40.6234 2.43509C40.8559 2.68848 43.0136 4.89874 47.2316 4.4446Z" fill="#035693"/>
<path d="M46.0853 14.9528C44.6337 16.4425 42.8282 18.0193 40.6211 18.708V2.43411C40.8534 2.68751 43.011 4.89776 47.229 4.44361V10.9329C47.229 10.9329 47.5362 13.464 46.0853 14.9528Z" fill="#0267C1"/>
<path d="M35.5612 6.04443L35.5606 11.033L35.5499 11.1195C35.5482 11.1369 35.3819 12.9665 36.2656 13.8733C37.3625 14.9988 38.8467 16.3766 40.6219 17.0694C42.3974 16.3766 43.8816 14.9988 44.9782 13.8733C45.7271 13.1047 45.7485 11.622 45.6935 11.1158L45.6828 11.0275V6.04443C43.3155 5.95504 41.6352 5.1373 40.6219 4.44336C39.6089 5.13759 37.9283 5.95533 35.5612 6.04443ZM40.6219 17.3008L40.5834 17.286C38.7518 16.5831 37.2311 15.1735 36.1111 14.024C35.1508 13.0382 35.3333 11.1126 35.3356 11.0938L35.3454 11.0137V5.835L35.4501 5.83211C37.8687 5.76384 39.5637 4.91977 40.5603 4.22381L40.6219 4.18042L40.6838 4.22381C41.68 4.91949 43.3754 5.76355 45.7936 5.83211L45.8986 5.835V11.0203L45.9078 11.0897C45.9663 11.6269 45.94 13.1956 45.1329 14.024C44.0129 15.1735 42.4922 16.5831 40.6606 17.286L40.6219 17.3008Z" fill="white"/>
<path d="M42.9834 14.9893C42.8457 14.9893 42.7344 14.8776 42.7344 14.7402C42.7344 14.6025 42.8457 14.4911 42.9834 14.4911C43.1208 14.4911 43.2325 14.6025 43.2325 14.7402C43.2325 14.8776 43.1208 14.9893 42.9834 14.9893Z" fill="#19548A"/>
<path d="M43.7951 14.123C43.6967 14.123 43.6172 14.0435 43.6172 13.9452C43.6172 13.8468 43.6967 13.7673 43.7951 13.7673C43.8931 13.7673 43.973 13.8468 43.973 13.9452C43.973 14.0435 43.8931 14.123 43.7951 14.123Z" fill="#19548A"/>
<path d="M37.1393 11.5264H36.3762L36.0273 10.8096V9.60624C36.0273 9.49256 36.1199 9.4 36.2336 9.4H37.2315C37.292 9.4 37.3412 9.35083 37.3412 9.29037V8.75899C37.3412 8.69854 37.292 8.64936 37.2315 8.64936H36.9408C36.8272 8.64936 36.7346 8.5568 36.7346 8.44283V7.38731C36.7346 7.27363 36.8272 7.18107 36.9408 7.18107H39.3504V7.27768H36.9408C36.8804 7.27768 36.8312 7.32686 36.8312 7.38731V8.44283C36.8312 8.50358 36.8804 8.55275 36.9408 8.55275H37.2315C37.3452 8.55275 37.4378 8.64531 37.4378 8.75899V9.29037C37.4378 9.40405 37.3452 9.49661 37.2315 9.49661H36.2336C36.1731 9.49661 36.124 9.54579 36.124 9.60624V10.7873L36.4366 11.4298H37.1393V11.5264ZM39.53 7.27768H39.5228V7.18107H39.53V7.27768Z" fill="#194B73"/>
<path d="M39.275 15.4229H38.6759L38.1992 14.7674L38.2773 14.7104L38.7251 15.3262H39.275C39.3354 15.3262 39.3849 15.2771 39.3849 15.2166V13.6965C39.3849 13.5826 39.4772 13.49 39.5912 13.49H40.0022C40.1159 13.49 40.2084 13.5826 40.2084 13.6965V14.1154C40.2084 14.1761 40.2579 14.2253 40.3184 14.2253H40.6218V14.3219H40.3184C40.2044 14.3219 40.1121 14.2294 40.1121 14.1154V13.6965C40.1121 13.6358 40.0626 13.5866 40.0022 13.5866H39.5912C39.5307 13.5866 39.4812 13.6358 39.4812 13.6965V15.2166C39.4812 15.3303 39.3887 15.4229 39.275 15.4229Z" fill="#194B73"/>
<path d="M41.6804 15.8545H41.2011C41.0874 15.8545 40.9948 15.7619 40.9948 15.6482V14.4319C40.9948 14.3714 40.9456 14.3223 40.8852 14.3223H40.6211V14.2257H40.8852C40.9989 14.2257 41.0914 14.3182 41.0914 14.4319V15.6482C41.0914 15.7087 41.1406 15.7579 41.2011 15.7579H41.6804C41.7408 15.7579 41.79 15.7087 41.79 15.6482V12.6263C41.79 12.5126 41.8826 12.4201 41.9962 12.4201H44.9042V12.5167H41.9962C41.9358 12.5167 41.8866 12.5659 41.8866 12.6263V15.6482C41.8866 15.7619 41.7941 15.8545 41.6804 15.8545Z" fill="#19548A"/>
<path d="M39.524 9.55078H39.3516V5.75913L39.7814 5.57198L39.8503 5.72991L39.524 5.87194V7.18086V7.27747V9.55078Z" fill="#194B73"/>
<path d="M41.3726 8.85352H41.2578V6.63487H41.5158V6.74971H41.3726V8.85352ZM44.9468 6.74971H41.6307V6.63487H44.9468V6.74971Z" fill="#19548A"/>
<path d="M45.3607 11.8682H45.026C44.8993 11.8682 44.7963 11.7652 44.7963 11.6385V11.1655H44.9112V11.6385C44.9112 11.7018 44.9627 11.7533 45.026 11.7533H45.3607V11.8682ZM44.9112 11.0507H44.7963V8.81297L44.5296 8.57752H43.0865V8.46268H44.573L44.9112 8.76091V11.0507ZM42.9141 8.57752H42.3752C42.2485 8.57752 42.1455 8.47454 42.1455 8.34784V7.38518C42.1455 7.32183 42.094 7.27005 42.0307 7.27005H41.6289V7.15521H42.0307C42.1574 7.15521 42.2604 7.25848 42.2604 7.38518V8.34784C42.2604 8.41119 42.3119 8.46268 42.3752 8.46268H42.9141V8.57752Z" fill="#19548A"/>
<path d="M40.6205 11.166H40.0836V11.0512H39.9688H40.6205V11.166Z" fill="#194B73"/>
<path d="M45.1932 11.166H40.6211V11.0512H45.1932V11.166Z" fill="#19548A"/>
<path d="M40.0836 12.25H39.9688V11.0501H40.0836V11.165V12.25Z" fill="#194B73"/>
<path d="M45.4954 7.20508H45.4379V6.5768L45.2177 6.35638H44.3164V6.29911H45.2415L45.4954 6.55308V7.20508Z" fill="#19548A"/>
<path d="M42.0224 6.42969H41.9648V6.24485L42.6021 5.85261H43.4343V5.90988H42.6183L42.0224 6.27667V6.42969Z" fill="#19548A"/>
<path d="M37.0078 14.0312H38.9638V13.6536H37.0078V14.0312Z" fill="#194B73"/>
<path d="M45.1952 12.7979H44.9062V12.1395H45.1952V12.7979Z" fill="#19548A"/>
<path d="M43.0865 9.74707H42.9141V7.01354H43.0865V8.46217V8.577V9.74707Z" fill="#19548A"/>
<path d="M41.6305 9.30273H41.5156V5.47492H41.6305V6.63516V6.74999V7.15525V7.27009V9.30273Z" fill="#19548A"/>
<path d="M37.7188 12.5312H37.8339V10.8223H37.7188V12.5312Z" fill="#194B73"/>
<path d="M38.1344 13.2139H38.0195V10.0751V10.1899H38.1344V13.2139Z" fill="#194B73"/>
<path d="M39.7976 10.1895H38.0195V10.0746H39.7976V10.1895Z" fill="#194B73"/>
<path d="M42.9129 10.3793V11.4273C42.9129 12.6931 41.8866 13.7197 40.6205 13.7197C39.3544 13.7197 38.3281 12.6931 38.3281 11.4273V10.3837H38.5864V11.4273C38.5864 12.5488 39.4991 13.4614 40.6205 13.4614C41.7423 13.4614 42.6549 12.5488 42.6549 11.4273V10.3793H42.9129Z" fill="#FFB400"/>
<path d="M41.0419 12.0791C41.0546 12.1332 41.0136 12.1853 40.958 12.1853H40.2901C40.2346 12.1853 40.1935 12.1332 40.2062 12.0791L40.352 11.461C40.2363 11.3713 40.1657 11.2255 40.1817 11.0644C40.2019 10.8579 40.3671 10.6904 40.5733 10.6675C40.8415 10.6377 41.0685 10.8472 41.0685 11.1092C41.0685 11.2524 41.0011 11.3797 40.8961 11.461L41.0419 12.0791ZM42.0879 10.3788C42.061 10.3421 42.0324 10.3068 42.002 10.2727C41.6768 9.90504 41.1721 9.68925 40.6239 9.68925C40.0761 9.68925 39.5713 9.90504 39.2459 10.2727C39.2158 10.3068 39.1872 10.3421 39.1603 10.3788L39.1594 10.3803L39.1582 10.3815L39.1577 10.3823L39.1574 10.3826L39.1571 10.3829V10.3832H38.5898V11.4268C38.5898 12.5483 39.5025 13.4609 40.6239 13.4609C41.7457 13.4609 42.6583 12.5483 42.6583 11.4268V10.3788H42.0879Z" fill="#FECE00"/>
<path d="M42.7445 8.97266V10.3788H42.5724V8.97266C42.5724 8.21335 41.9545 7.59519 41.1949 7.59519H40.0454C39.2861 7.59519 38.6682 8.21335 38.6682 8.97266V10.3825L38.4961 10.3828V8.97266C38.4961 8.11818 39.1912 7.42337 40.0454 7.42337H41.1949C42.0494 7.42337 42.7445 8.11818 42.7445 8.97266Z" fill="#E2EAF5"/>
<path d="M42.2308 10.2732V10.3793H42.087C42.0601 10.3426 42.0315 10.3073 42.0011 10.2732C41.676 9.90553 41.1712 9.68974 40.6231 9.68974C40.0752 9.68974 39.5704 9.90553 39.245 10.2732C39.2149 10.3073 39.1863 10.3426 39.1594 10.3793L39.1585 10.3808L39.1574 10.3819L39.1568 10.3828H39.0156V10.2732C39.3529 9.81499 39.9468 9.51098 40.6231 9.51098C41.2996 9.51098 41.8935 9.81499 42.2308 10.2732Z" fill="#FBE261"/>
<path d="M42.5721 8.97295V10.379H42.2276V8.97295C42.2276 8.40339 41.7642 7.93999 41.1947 7.93999H40.0451C39.4756 7.93999 39.0125 8.40339 39.0125 8.97295V10.3825L38.668 10.3828V8.97295C38.668 8.21363 39.2858 7.59548 40.0451 7.59548H41.1947C41.9543 7.59548 42.5721 8.21363 42.5721 8.97295Z" fill="white"/>
<path d="M41.0383 12.0794C41.051 12.1335 41.0099 12.1855 40.9544 12.1855H40.2865C40.2309 12.1855 40.1899 12.1335 40.2026 12.0794L40.3484 11.4612C40.2327 11.3716 40.1621 11.2258 40.178 11.0647C40.1983 10.8581 40.3634 10.6906 40.5697 10.6678C40.8378 10.638 41.0649 10.8474 41.0649 11.1095C41.0649 11.2527 40.9975 11.38 40.8925 11.4612L41.0383 12.0794Z" fill="#2F4154"/>
<path d="M46.043 38.3018H46.3568V35.6779H46.043V38.3018Z" fill="#C0C6CB"/>
<path d="M46.043 35.6777H46.3568V33.7669H46.043V35.6777Z" fill="#395068"/>
<path d="M46.3565 33.7666H46.0426V33.1632H35.2031V31.4797C35.2031 31.029 35.5687 30.6631 36.0197 30.6631H45.5396C45.9909 30.6631 46.3565 31.029 46.3565 31.4797V33.7666Z" fill="#C0C6CB"/>
<path d="M34.8906 33.1636V41.7839C34.8906 42.16 35.1958 42.4648 35.5718 42.4648H45.3628C45.7388 42.4648 46.044 42.16 46.044 41.7839V40.5916V33.1636H34.8906Z" fill="white"/>
<path d="M34.8906 33.4404H46.044V33.1633H34.8906V33.4404Z" fill="#C5CCD4"/>
<path d="M45.2271 30.3491H35.7072C35.256 30.3491 34.8906 30.7148 34.8906 31.1657V33.1631H46.044V31.1657C46.044 30.7148 45.6784 30.3491 45.2271 30.3491Z" fill="#4FAFF7"/>
<path d="M44.8962 31.4498C44.727 31.4498 44.5898 31.587 44.5898 31.7562C44.5898 31.9254 44.727 32.0625 44.8962 32.0625C45.0654 32.0625 45.2025 31.9254 45.2025 31.7562C45.2025 31.587 45.0654 31.4498 44.8962 31.4498Z" fill="white"/>
<path d="M43.8139 31.4498C43.6449 31.4498 43.5078 31.587 43.5078 31.7562C43.5078 31.9254 43.6449 32.0625 43.8139 32.0625C43.9831 32.0625 44.1202 31.9254 44.1202 31.7562C44.1202 31.587 43.9831 31.4498 43.8139 31.4498Z" fill="white"/>
<path d="M42.7321 31.4498C42.5629 31.4498 42.4258 31.587 42.4258 31.7562C42.4258 31.9254 42.5629 32.0625 42.7321 32.0625C42.901 32.0625 43.0381 31.9254 43.0381 31.7562C43.0381 31.587 42.901 31.4498 42.7321 31.4498Z" fill="white"/>
<path d="M38.3007 31.3545H36.1367V31.1268H38.3007V31.3545Z" fill="white"/>
<path d="M38.3007 31.8701H36.1367V31.6425H38.3007V31.8701Z" fill="white"/>
<path d="M38.3007 32.3848H36.1367V32.1571H38.3007V32.3848Z" fill="white"/>
<path d="M43.4286 38.2028C43.4633 37.9405 43.4627 37.6784 43.4277 37.4224L43.9414 37.1282C43.8494 36.659 43.6646 36.2225 43.4069 35.8395L42.8359 35.9949C42.6785 35.7892 42.4942 35.6038 42.2842 35.4424L42.4384 34.8722C42.0551 34.6145 41.6189 34.4303 41.1495 34.3386L40.8561 34.8526C40.5938 34.8176 40.3314 34.8182 40.076 34.852L39.7815 34.3394C39.3118 34.4314 38.8759 34.6163 38.4929 34.874L38.6482 35.445C38.4428 35.6023 38.2574 35.7866 38.0957 35.9966L37.5256 35.8424C37.2681 36.2257 37.0836 36.6619 36.9922 37.1314L37.5059 37.4247C37.4709 37.6871 37.4715 37.9494 37.5065 38.2051L36.9931 38.4993C37.085 38.9685 37.2699 39.4047 37.5276 39.7877L38.0983 39.6326C38.2557 39.8383 38.4399 40.0237 38.6499 40.1843L38.4958 40.7547C38.8788 41.0121 39.3153 41.1967 39.7847 41.2881L40.078 40.7749C40.3407 40.8099 40.6028 40.8082 40.8585 40.7744L41.1526 41.2875C41.6221 41.1955 42.058 41.0107 42.441 40.7532L42.2857 40.1825C42.4914 40.0252 42.6771 39.8409 42.8373 39.6309L43.408 39.7854C43.6655 39.4021 43.85 38.9656 43.9417 38.4961L43.4286 38.2028Z" fill="#3E5670"/>
<path d="M41.314 39.8856C40.1717 40.3537 38.8614 39.8046 38.3936 38.6621C37.9256 37.5198 38.4749 36.2097 39.6172 35.7417C40.7598 35.2739 42.0699 35.8227 42.5376 36.9652C43.0056 38.1078 42.4566 39.4176 41.314 39.8856Z" fill="#2F4154"/>
<path d="M42.2015 37.8133C42.2015 38.7708 41.4254 39.5469 40.4679 39.5469C39.5105 39.5469 38.7344 38.7708 38.7344 37.8133C38.7344 36.8559 39.5105 36.0798 40.4679 36.0798C41.4254 36.0798 42.2015 36.8559 42.2015 37.8133Z" fill="white"/>
<path d="M41.8838 37.814C41.8838 38.5961 41.2495 39.2305 40.4673 39.2305C39.6851 39.2305 39.0508 38.5961 39.0508 37.814C39.0508 37.0315 39.6851 36.3974 40.4673 36.3974C41.2495 36.3974 41.8838 37.0315 41.8838 37.814Z" fill="#4FAFF7"/>
<path d="M15.9648 8.68066H16.279V6.76982H15.9648V8.68066Z" fill="#395068"/>
<path d="M15.5945 13.959H5.80354C5.53462 13.959 5.30208 13.8028 5.19141 13.5766C5.28151 13.6205 5.3827 13.6451 5.48966 13.6451H15.2806C15.6567 13.6451 15.9616 13.34 15.9616 12.9639V11.7719V8.68082H16.2757V13.2781C16.2757 13.6541 15.9705 13.959 15.5945 13.959Z" fill="#C0C6CB"/>
<path d="M4.80859 4.34428V12.9643C4.80859 13.3403 5.11368 13.6455 5.48975 13.6455H15.2807C15.6568 13.6455 15.9617 13.3403 15.9617 12.9643V11.7722V4.34428H4.80859Z" fill="white"/>
<path d="M4.80859 4.62012H15.9617V4.34318H4.80859V4.62012Z" fill="#C5CCD4"/>
<path d="M15.1451 1.52952H5.62521C5.17402 1.52952 4.80859 1.89544 4.80859 2.34611V4.34375H15.9617V2.34611C15.9617 1.89544 15.5963 1.52952 15.1451 1.52952Z" fill="#4FAFF7"/>
<path d="M14.8141 2.6308C14.6449 2.6308 14.5078 2.7679 14.5078 2.93683C14.5078 3.10605 14.6449 3.24316 14.8141 3.24316C14.9834 3.24316 15.1205 3.10605 15.1205 2.93683C15.1205 2.7679 14.9834 2.6308 14.8141 2.6308Z" fill="white"/>
<path d="M13.7318 2.6308C13.5629 2.6308 13.4258 2.7679 13.4258 2.93683C13.4258 3.10605 13.5629 3.24316 13.7318 3.24316C13.901 3.24316 14.0381 3.10605 14.0381 2.93683C14.0381 2.7679 13.901 2.6308 13.7318 2.6308Z" fill="white"/>
<path d="M12.6501 2.6308C12.4809 2.6308 12.3438 2.7679 12.3438 2.93683C12.3438 3.10605 12.4809 3.24316 12.6501 3.24316C12.819 3.24316 12.9561 3.10605 12.9561 2.93683C12.9561 2.7679 12.819 2.6308 12.6501 2.6308Z" fill="white"/>
<path d="M8.21872 2.53516H6.05469V2.3078H8.21872V2.53516Z" fill="white"/>
<path d="M8.21872 3.0498H6.05469V2.82216H8.21872V3.0498Z" fill="white"/>
<path d="M8.21872 3.56543H6.05469V3.33807H8.21872V3.56543Z" fill="white"/>
<path d="M15.3727 13.6455H5.40234C5.40234 13.6455 6.02411 12.0265 7.56727 11.5501C7.76035 11.7555 7.99882 11.9669 8.24894 12.1954C9.00375 12.8859 10.3875 13.2055 10.3875 13.2055C10.3875 13.2055 11.7714 12.8859 12.5261 12.1954C12.7763 11.9669 13.0147 11.7555 13.2079 11.5501C14.7511 12.0262 15.3727 13.6455 15.3727 13.6455Z" fill="#3E5670"/>
<path d="M13.6455 10.5684C13.6296 10.4772 13.5957 10.3844 13.5416 10.2881C13.3823 10.0055 13.1456 9.62855 12.7869 9.28288C12.6883 9.188 12.5804 9.09515 12.4624 9.0075V9.00721H12.4621C12.4031 8.96324 12.3415 8.92072 12.277 8.87965H12.2767C12.2345 8.85246 12.1911 8.82642 12.1465 8.80068H12.1462C11.693 8.54179 11.1173 8.36303 10.3849 8.36303C9.65224 8.36303 9.07673 8.54179 8.62345 8.80068H8.62337C8.5787 8.82642 8.53523 8.85246 8.49297 8.87965H8.49288C8.42843 8.92072 8.36676 8.96324 8.30758 9.00721H8.30749V9.0075C8.18933 9.09515 8.08132 9.188 7.98265 9.28288L7.98146 9.28403C7.6235 9.62941 7.38735 10.0057 7.22822 10.2881C7.17404 10.3844 7.1402 10.4772 7.1242 10.5684H7.12409C7.09487 10.3989 7.12337 10.2241 7.22822 10.0381C7.2544 9.99157 7.28269 9.94269 7.31347 9.89149L7.31359 9.8912L7.31364 9.89091C7.36331 9.80818 7.41899 9.72024 7.48147 9.62942C7.94826 8.95081 8.79811 8.1131 10.3849 8.1131C11.9704 8.1131 12.8202 8.94936 13.2871 9.62768C13.3501 9.71937 13.4063 9.80818 13.4563 9.89149C13.487 9.94269 13.5153 9.99157 13.5416 10.0381C13.6463 10.2241 13.675 10.3989 13.6455 10.5684Z" fill="#2F4154"/>
<path d="M12.1482 8.7996C12.1346 8.82679 12.121 8.85311 12.1071 8.87857C12.0828 8.92369 12.0582 8.96621 12.0336 9.00613C11.9651 9.11692 11.8956 9.20804 11.8256 9.2818C11.5439 9.58032 11.2578 9.60114 11.0302 9.51292C10.682 9.37841 10.3865 9.28498 10.3865 9.28498C10.3865 9.28498 10.091 9.37841 9.74291 9.51292C9.51526 9.60114 9.22918 9.58032 8.94741 9.2818C8.87753 9.20804 8.8079 9.11692 8.73955 9.00613C8.71479 8.96621 8.69017 8.92369 8.66587 8.87857C8.65219 8.85311 8.6386 8.82679 8.625 8.7996H8.62509C9.07836 8.54071 9.65388 8.36194 10.3865 8.36194C11.119 8.36194 11.6946 8.54071 12.1479 8.7996H12.1482Z" fill="#3E5670"/>
<path d="M12.4635 9.00656C12.3973 9.08784 12.3382 9.18069 12.2839 9.28193C12.0889 9.64525 11.9564 10.1176 11.7947 10.5674C11.7574 10.6724 11.7181 10.776 11.6761 10.8769C11.5734 11.124 11.364 11.3559 11.1433 11.5492C10.78 11.8671 10.386 12.0791 10.386 12.0791C10.386 12.0791 9.99204 11.8671 9.62876 11.5492C9.40802 11.3559 9.19868 11.124 9.09585 10.8769C9.05388 10.776 9.01468 10.6724 8.97693 10.5674C8.8155 10.1176 8.6831 9.64525 8.48805 9.28193C8.43382 9.18069 8.37463 9.08784 8.30859 9.00656L8.30868 9.00627C8.36786 8.9623 8.42953 8.91978 8.49398 8.8787C8.51154 8.92325 8.52942 8.96577 8.54735 9.00627C8.59303 9.10982 8.64 9.20123 8.6879 9.28193C9.04323 9.88187 9.44927 9.89315 9.74238 9.77975C10.0905 9.64525 10.386 9.55153 10.386 9.55153C10.386 9.55153 10.6815 9.64525 11.0296 9.77975C11.3226 9.89315 11.7288 9.88187 12.084 9.28193C12.132 9.20123 12.1789 9.10982 12.2246 9.00627C12.2425 8.96577 12.2604 8.92325 12.2781 8.8787C12.3426 8.91978 12.4042 8.9623 12.4632 9.00627L12.4635 9.00656Z" fill="#3E5670"/>
<path d="M13.2053 11.5496C13.012 11.755 12.7737 11.9665 12.5235 12.195C11.7688 12.8854 10.3849 13.2051 10.3849 13.2051C10.3849 13.2051 9.00113 12.8854 8.24633 12.195C7.9962 11.9665 7.75774 11.755 7.56465 11.5496C7.25665 11.2222 7.06414 10.9101 7.12425 10.5679C7.14025 10.4768 7.17409 10.3839 7.22827 10.2876C7.38739 10.0053 7.62355 9.62893 7.98151 9.28355C8.04642 9.68042 8.24726 10.1415 8.49996 10.5679C8.72428 10.9462 8.99078 11.2968 9.24267 11.5496C9.32218 11.6295 9.40022 11.6998 9.47511 11.7579C10.0543 12.2083 10.3849 12.7819 10.3849 12.7819C10.3849 12.7819 10.7156 12.2083 11.2947 11.7579C11.3696 11.6998 11.4477 11.6295 11.5273 11.5496C11.7792 11.2968 12.0456 10.9462 12.2698 10.5679C12.5229 10.1412 12.7225 9.67955 12.787 9.28239C13.1457 9.62806 13.3823 10.005 13.5417 10.2876C13.5958 10.3839 13.6296 10.4768 13.6455 10.5679C13.7057 10.9101 13.513 11.2222 13.2053 11.5496Z" fill="#2F4154"/>
<path d="M12.7899 9.28175C12.7254 9.67891 12.5258 10.1406 12.2727 10.5672C12.0485 10.9456 11.7821 11.2962 11.5301 11.549C11.4506 11.6288 11.3725 11.6991 11.2976 11.7573C10.7184 12.2076 10.3878 12.7812 10.3878 12.7812C10.3878 12.7812 10.0572 12.2076 9.47798 11.7573C9.40309 11.6991 9.32505 11.6288 9.24553 11.549C8.99364 11.2962 8.72714 10.9456 8.50282 10.5672C8.25012 10.1409 8.04929 9.67978 7.98438 9.28291L7.98556 9.28175C8.08423 9.18688 8.19224 9.09402 8.3104 9.00638C8.37644 9.08766 8.43562 9.18051 8.48986 9.28175C8.68491 9.64507 8.81731 10.1174 8.97874 10.5672C9.01649 10.6722 9.05569 10.7758 9.09766 10.8767C9.20049 11.1238 9.40983 11.3558 9.63057 11.549C9.99385 11.8669 10.3878 12.0789 10.3878 12.0789C10.3878 12.0789 10.7818 11.8669 11.1451 11.549C11.3658 11.3558 11.5752 11.1238 11.6779 10.8767C11.7199 10.7758 11.7592 10.6722 11.7965 10.5672C11.9582 10.1174 12.0907 9.64507 12.2857 9.28175C12.3401 9.18051 12.3991 9.08766 12.4653 9.00638C12.5833 9.09402 12.6912 9.18688 12.7899 9.28175Z" fill="#23313F"/>
<path d="M13.4591 9.89062C13.409 9.80732 13.3529 9.71851 13.2898 9.62682C12.823 8.9485 11.9731 8.11224 10.3876 8.11224C8.80087 8.11224 7.95102 8.94995 7.48424 9.62855C7.42176 9.71938 7.36607 9.80732 7.31641 9.89005C7.3239 9.85707 7.71828 8.16026 8.48309 6.81317C9.25545 5.45276 9.84355 5.10189 10.3876 5.10189C10.9318 5.10189 11.5199 5.45276 12.2922 6.81317C13.0645 8.17357 13.4591 9.89062 13.4591 9.89062Z" fill="#3E5670"/>
<path d="M12.2802 8.87899C12.2626 8.92354 12.2446 8.96606 12.2267 9.00656C12.181 9.11011 12.1341 9.20152 12.0861 9.28223C11.7309 9.88216 11.3248 9.89344 11.0317 9.78005C10.6836 9.64554 10.3881 9.55182 10.3881 9.55182C10.3881 9.55182 10.0926 9.64554 9.74449 9.78005C9.45138 9.89344 9.04535 9.88216 8.69002 9.28223C8.64211 9.20152 8.59514 9.11011 8.54946 9.00656C8.53153 8.96606 8.51365 8.92354 8.49609 8.87899H8.49618C8.53844 8.8518 8.58192 8.82577 8.62658 8.80003C8.64018 8.82722 8.65377 8.85354 8.66745 8.87899C8.69175 8.92412 8.71637 8.96664 8.74113 9.00656C8.80948 9.11734 8.87911 9.20846 8.94899 9.28223C9.23076 9.58075 9.51684 9.60157 9.74449 9.51335C10.0926 9.37884 10.3881 9.28541 10.3881 9.28541C10.3881 9.28541 10.6836 9.37884 11.0317 9.51335C11.2594 9.60157 11.5455 9.58075 11.8272 9.28223C11.8972 9.20846 11.9666 9.11734 12.0352 9.00656C12.0598 8.96664 12.0844 8.92412 12.1087 8.87899C12.1225 8.85354 12.1361 8.82722 12.1497 8.80003C12.1943 8.82577 12.2377 8.8518 12.2799 8.87899H12.2802Z" fill="white"/>
<path d="M7.80312 21.6982H3.84495C3.65661 21.6982 3.50391 21.5455 3.50391 21.3572V17.3992C3.50391 17.2106 3.65661 17.0582 3.84495 17.0582H7.80312C7.99149 17.0582 8.14419 17.2106 8.14419 17.3992V21.3572C8.14419 21.5455 7.99149 21.6982 7.80312 21.6982Z" fill="#C0C6CB"/>
<path d="M7.48672 16.7444H3.52854C3.3402 16.7444 3.1875 16.8972 3.1875 17.0855V21.0434C3.1875 21.232 3.3402 21.3848 3.52854 21.3848H7.48672C7.67509 21.3848 7.82779 21.232 7.82779 21.0434V17.0855C7.82779 16.8972 7.67509 16.7444 7.48672 16.7444Z" fill="#4FAFF7"/>
<path d="M5.07855 20.1777L5.07314 20.1774C4.95142 20.176 4.83386 20.1242 4.75064 20.0354L4.24857 19.5C4.14689 19.3915 4.15242 19.2211 4.26089 19.1193C4.36928 19.0178 4.53965 19.0233 4.64136 19.1318L5.0802 19.5998L6.38219 18.277C6.48647 18.1708 6.65688 18.1697 6.76289 18.2738C6.86885 18.3782 6.87018 18.5486 6.7659 18.6545L5.39899 20.0435C5.3149 20.1288 5.19836 20.1777 5.07855 20.1777Z" fill="white"/>
</g>
<defs>
<clipPath id="clip0_18045_31344">
<rect width="50" height="50" fill="white"/>
</clipPath>
</defs>
</svg>
