<svg width="50" height="50" viewBox="0 0 50 50" fill="none" xmlns="http://www.w3.org/2000/svg">
<path d="M16.0693 42.86H41.0693C42.0593 42.86 42.8593 42.06 42.8593 41.07V5.36001C42.8593 4.37001 42.0593 3.57001 41.0693 3.57001H16.0693C15.0793 3.57001 14.2793 4.37001 14.2793 5.36001V41.07C14.2893 42.06 15.0793 42.86 16.0693 42.86Z" fill="#002548"/>
<path d="M17.8603 5.35999H39.2903C40.2803 5.35999 41.0803 6.15999 41.0803 7.14999V33.94C38.2903 36.73 36.7303 38.29 33.9403 41.08H17.8603C16.8703 41.08 16.0703 40.28 16.0703 39.29V7.13999C16.0703 6.15999 16.8703 5.35999 17.8603 5.35999Z" fill="#D2D9DC"/>
<path d="M29.4594 16.07H18.7494C18.2594 16.07 17.8594 15.67 17.8594 15.18C17.8594 14.69 18.2594 14.29 18.7494 14.29H29.4594C29.9494 14.29 30.3494 14.69 30.3494 15.18C30.3494 15.67 29.9594 16.07 29.4594 16.07Z" fill="#F9FAFB"/>
<path d="M34.8192 16.96C34.5892 16.96 34.3592 16.87 34.1892 16.7L32.3992 14.91C32.0492 14.56 32.0492 14 32.3992 13.65C32.7492 13.3 33.3092 13.3 33.6592 13.65L34.8092 14.8L37.7492 11.86C38.0992 11.51 38.6592 11.51 39.0092 11.86C39.3592 12.21 39.3592 12.77 39.0092 13.12L35.4392 16.69C35.2792 16.88 35.0492 16.96 34.8192 16.96Z" fill="#54CC5A"/>
<path d="M29.4594 23.21H18.7494C18.2594 23.21 17.8594 22.81 17.8594 22.32C17.8594 21.83 18.2594 21.43 18.7494 21.43H29.4594C29.9494 21.43 30.3494 21.83 30.3494 22.32C30.3494 22.81 29.9594 23.21 29.4594 23.21Z" fill="#F9FAFB"/>
<path d="M34.8192 24.11C34.5892 24.11 34.3592 24.02 34.1892 23.85L32.3992 22.06C32.0492 21.71 32.0492 21.15 32.3992 20.8C32.7492 20.45 33.3092 20.45 33.6592 20.8L34.8092 21.95L37.7492 19.01C38.0992 18.66 38.6592 18.66 39.0092 19.01C39.3592 19.36 39.3592 19.92 39.0092 20.27L35.4392 23.84C35.2792 24.02 35.0492 24.11 34.8192 24.11Z" fill="#54CC5A"/>
<path d="M29.4594 30.36H18.7494C18.2594 30.36 17.8594 29.96 17.8594 29.47C17.8594 28.98 18.2594 28.58 18.7494 28.58H29.4594C29.9494 28.58 30.3494 28.98 30.3494 29.47C30.3594 29.96 29.9594 30.36 29.4594 30.36Z" fill="#F9FAFB"/>
<path d="M34.8192 31.25C34.5892 31.25 34.3592 31.16 34.1892 30.99L32.3992 29.2C32.0492 28.85 32.0492 28.29 32.3992 27.94C32.7492 27.59 33.3092 27.59 33.6592 27.94L34.8092 29.09L37.7492 26.15C38.0992 25.8 38.6592 25.8 39.0092 26.15C39.3592 26.5 39.3592 27.06 39.0092 27.41L35.4392 30.98C35.2792 31.16 35.0492 31.25 34.8192 31.25Z" fill="#54CC5A"/>
<path d="M41.0699 33.93H35.7099C34.7199 33.93 33.9199 34.73 33.9199 35.72V41.08L41.0699 33.93Z" fill="#839299"/>
<path d="M23.2106 3.57V1.79C23.2106 0.8 24.0106 0 25.0006 0H32.1406C33.1306 0 33.9306 0.8 33.9306 1.79V3.58H35.7206C36.7106 3.58 37.5106 4.38 37.5106 5.37V7.16C37.5106 8.15 36.7106 8.95 35.7206 8.95H21.4306C20.4406 8.95 19.6406 8.15 19.6406 7.16V5.36C19.6406 4.37 20.4406 3.57 21.4306 3.57H23.2106Z" fill="#FFDD33"/>
<g opacity="0.19">
<path d="M28.5697 3.57001C29.0612 3.57001 29.4597 3.17154 29.4597 2.68001C29.4597 2.18848 29.0612 1.79001 28.5697 1.79001C28.0782 1.79001 27.6797 2.18848 27.6797 2.68001C27.6797 3.17154 28.0782 3.57001 28.5697 3.57001Z" fill="#2D2F31"/>
</g>
<path d="M24.001 44.64L17.861 49.11L11.721 44.64C9.41102 42.96 8.04102 40.28 8.04102 37.42V25.89H27.681V37.42C27.681 40.27 26.311 42.96 24.001 44.64Z" fill="#002548"/>
<path d="M17.8602 50C17.6802 50 17.4902 49.94 17.3402 49.83L11.2002 45.36C8.67016 43.52 7.16016 40.55 7.16016 37.42V25.89C7.16016 25.4 7.56016 25 8.05016 25H27.6902C28.1802 25 28.5802 25.4 28.5802 25.89V37.42C28.5802 40.55 27.0702 43.52 24.5402 45.36L18.4002 49.83C18.2302 49.94 18.0402 50 17.8602 50ZM8.93016 26.79V37.42C8.93016 39.98 10.1702 42.41 12.2402 43.92L17.8602 48L23.4802 43.91C25.5502 42.4 26.7902 39.97 26.7902 37.41V26.79H8.93016Z" fill="#0054A6"/>
<path d="M17.86 41.07C20.8202 41.07 23.22 38.6703 23.22 35.71C23.22 32.7498 20.8202 30.35 17.86 30.35C14.8998 30.35 12.5 32.7498 12.5 35.71C12.5 38.6703 14.8998 41.07 17.86 41.07Z" fill="#F9FAFB"/>
<path d="M17.8602 38.39C17.6302 38.39 17.4002 38.3 17.2302 38.13L15.4402 36.34C15.0902 35.99 15.0902 35.43 15.4402 35.08C15.7902 34.73 16.3502 34.73 16.7002 35.08L17.8502 36.23L22.5802 31.5C22.9302 31.15 23.4902 31.15 23.8402 31.5C24.1902 31.85 24.1902 32.41 23.8402 32.76L18.4802 38.12C18.3102 38.31 18.0902 38.39 17.8602 38.39Z" fill="#54CC5A"/>
</svg>
