<svg width="48" height="48" viewBox="0 0 48 48" fill="none" xmlns="http://www.w3.org/2000/svg">
<path opacity="0.997" fill-rule="evenodd" clip-rule="evenodd" d="M22.0781 3.70313C22.0781 5.01563 22.0781 6.32813 22.0781 7.64063C28.1093 7.64063 34.1407 7.64063 40.1719 7.64063C40.1719 7.67187 40.1719 7.70313 40.1719 7.73438C29.3594 7.73438 18.5468 7.73438 7.73437 7.73438C7.71875 6.45275 7.73438 5.1715 7.78125 3.89063C7.95312 3.46875 8.25 3.17187 8.67187 3C13.0156 2.9375 17.3594 2.9375 21.7031 3C21.9397 3.17653 22.0648 3.41091 22.0781 3.70313Z" fill="#189ED0"/>
<path opacity="0.999" fill-rule="evenodd" clip-rule="evenodd" d="M22.0781 3.70313C27.797 3.6875 33.5157 3.70313 39.2344 3.75C39.6562 3.92187 39.9532 4.21875 40.125 4.64063C40.1719 5.64014 40.1875 6.64014 40.1719 7.64063C34.1407 7.64063 28.1093 7.64063 22.0781 7.64063C22.0781 6.32813 22.0781 5.01563 22.0781 3.70313Z" fill="#1189B3"/>
<path fill-rule="evenodd" clip-rule="evenodd" d="M10.2658 4.8281C10.8291 4.81252 11.3916 4.82815 11.9533 4.87497C12.2793 5.12871 12.3106 5.40996 12.047 5.71872C11.422 5.78123 10.7971 5.78123 10.172 5.71872C9.78419 5.37919 9.81541 5.08231 10.2658 4.8281Z" fill="#F799CC"/>
<path fill-rule="evenodd" clip-rule="evenodd" d="M14.0157 4.8281C14.6102 4.81252 15.2039 4.82815 15.7969 4.87497C16.1318 5.12114 16.163 5.40239 15.8907 5.71872C15.2344 5.78123 14.5782 5.78123 13.9219 5.71872C13.6655 5.39138 13.6967 5.09451 14.0157 4.8281Z" fill="#F6CC11"/>
<path fill-rule="evenodd" clip-rule="evenodd" d="M17.7656 4.82811C18.3914 4.81251 19.0164 4.82814 19.6406 4.87498C20.0156 5.15623 20.0156 5.43748 19.6406 5.71873C19.0156 5.78123 18.3906 5.78123 17.7656 5.71873C17.4167 5.43152 17.4167 5.13464 17.7656 4.82811Z" fill="#32D43F"/>
<path fill-rule="evenodd" clip-rule="evenodd" d="M7.73438 7.73438C18.5468 7.73438 29.3594 7.73438 40.1719 7.73438C40.1719 8.79687 40.1719 9.85941 40.1719 10.9219C40.1875 16.7345 40.1719 22.547 40.125 28.3594C39.9135 28.8522 39.5541 29.1803 39.0469 29.3438C28.9531 29.4063 18.8594 29.4063 8.76563 29.3438C8.3125 29.1406 7.98438 28.8125 7.78125 28.3594C7.73438 22.547 7.71875 16.7345 7.73438 10.9219C7.73438 9.85941 7.73438 8.79687 7.73438 7.73438Z" fill="#E1E6F3"/>
<path fill-rule="evenodd" clip-rule="evenodd" d="M14.3909 9.89063C14.6058 9.86663 14.8089 9.89785 15.0003 9.98438C15.1272 10.3465 15.1741 10.7215 15.1409 11.1094C16.0011 11.2666 16.5011 11.7822 16.6409 12.6563C16.6009 13.1334 16.3508 13.2896 15.8909 13.125C15.6833 12.2314 15.1208 11.8564 14.2034 12C13.5764 12.3248 13.4826 12.7623 13.9221 13.3125C14.589 13.4575 15.2452 13.645 15.8909 13.875C16.5561 14.4834 16.728 15.2177 16.4065 16.0781C16.1158 16.5593 15.6939 16.8405 15.1409 16.9219C15.1564 17.2359 15.1407 17.5484 15.094 17.8594C14.8403 18.1854 14.5591 18.2167 14.2503 17.9531C14.2035 17.6108 14.1879 17.2671 14.2034 16.9219C13.1712 16.7182 12.6869 16.0931 12.7503 15.0469C13.0226 14.6881 13.3039 14.6881 13.594 15.0469C13.6991 15.8425 14.1522 16.1707 14.9534 16.0313C15.6276 15.7853 15.7839 15.3477 15.4221 14.7188C14.9034 14.5464 14.3722 14.4214 13.8284 14.3438C12.7645 13.7918 12.4677 12.9637 12.9378 11.8594C13.2327 11.392 13.6546 11.142 14.2034 11.1094C14.1542 10.6744 14.2167 10.2682 14.3909 9.89063Z" fill="#14B195"/>
<path opacity="0.997" fill-rule="evenodd" clip-rule="evenodd" d="M7.73438 10.9218C7.71875 16.7344 7.73438 22.5469 7.78125 28.3593C7.98438 28.8124 8.3125 29.1406 8.76563 29.3437C18.8594 29.4063 28.9531 29.4063 39.0469 29.3437C39.5541 29.1803 39.9135 28.8522 40.125 28.3593C40.1719 22.5469 40.1875 16.7344 40.1719 10.9218C40.8601 10.9063 41.5476 10.9218 42.2344 10.9687C43.1438 11.1656 43.722 11.7124 43.9688 12.6093C44.0156 19.6093 44.0313 26.6093 44.0156 33.6093C30.6406 33.6093 17.2657 33.6093 3.89063 33.6093C3.875 26.6093 3.89063 19.6093 3.9375 12.6093C4.18425 11.7124 4.76238 11.1656 5.67188 10.9687C6.35867 10.9218 7.04617 10.9063 7.73438 10.9218Z" fill="#649AF5"/>
<path fill-rule="evenodd" clip-rule="evenodd" d="M21.1406 12.0469C26.047 12.0312 30.9533 12.0469 35.8594 12.0938C36.0938 12.2032 36.2656 12.375 36.375 12.6094C36.4376 13.5469 36.4376 14.4844 36.375 15.4219C36.2656 15.6563 36.0938 15.8281 35.8594 15.9375C30.9844 16 26.1094 16 21.2344 15.9375C21 15.8281 20.8282 15.6563 20.7188 15.4219C20.6562 14.4844 20.6562 13.5469 20.7188 12.6094C20.8436 12.4069 20.9843 12.2194 21.1406 12.0469Z" fill="#F19C21"/>
<path fill-rule="evenodd" clip-rule="evenodd" d="M21.7033 18.8906C26.3027 18.8451 30.8964 18.8919 35.4845 19.0312C35.9202 19.2287 36.2171 19.5568 36.3752 20.0156C36.4377 21.8281 36.4377 23.6407 36.3752 25.4531C36.2124 26.0847 35.8218 26.5066 35.2033 26.7187C30.7345 26.7813 26.2658 26.7813 21.797 26.7187C21.38 26.5206 21.0519 26.2237 20.8127 25.8281C20.7077 24.802 20.6608 23.7708 20.672 22.7344C20.6877 21.8281 20.7033 20.9219 20.7189 20.0156C20.9029 19.5041 21.2311 19.1291 21.7033 18.8906Z" fill="#E04241"/>
<path fill-rule="evenodd" clip-rule="evenodd" d="M11.2031 19.8281C13.4846 19.8125 15.7658 19.8281 18.0469 19.875C18.3104 20.1838 18.2792 20.4651 17.9531 20.7188C15.7343 20.7813 13.5156 20.7813 11.2969 20.7188C10.9543 20.4571 10.9231 20.1603 11.2031 19.8281Z" fill="#199FD2"/>
<path fill-rule="evenodd" clip-rule="evenodd" d="M23.1094 20.3907C23.9297 20.3522 24.7421 20.3991 25.5469 20.5313C26.6324 21.3922 26.6636 22.2985 25.6406 23.25C25.0665 23.4542 24.4727 23.5323 23.8594 23.4844C23.875 23.9854 23.8593 24.4854 23.8125 24.9844C23.5588 25.3105 23.2776 25.3417 22.9688 25.0782C22.9062 23.5782 22.9062 22.0782 22.9688 20.5782C23.036 20.5272 23.0829 20.4646 23.1094 20.3907Z" fill="#FECA02"/>
<path fill-rule="evenodd" clip-rule="evenodd" d="M28.2653 20.3908C28.4246 20.3758 28.5809 20.3913 28.7341 20.4376C29.4055 21.7966 30.0149 23.1871 30.5622 24.6095C30.6076 25.1811 30.3576 25.3686 29.8122 25.172C29.6459 24.8706 29.5053 24.5581 29.3903 24.2345C28.7966 24.1096 28.2028 24.1096 27.6091 24.2345C27.4994 24.614 27.3119 24.9421 27.0466 25.2189C26.513 25.2979 26.3098 25.0636 26.4372 24.5158C27.0032 23.1121 27.6126 21.7371 28.2653 20.3908Z" fill="#FECA02"/>
<path fill-rule="evenodd" clip-rule="evenodd" d="M30.3281 20.3906C30.5181 20.3754 30.7056 20.3911 30.8906 20.4375C31.2781 20.9188 31.6999 21.372 32.1562 21.7969C32.6125 21.372 33.0344 20.9188 33.4219 20.4375C34.1969 20.3661 34.3687 20.663 33.9375 21.3281C33.4968 21.7374 33.0905 22.175 32.7187 22.6406C32.6875 23.4218 32.6562 24.2032 32.625 24.9844C32.3125 25.3594 31.9999 25.3594 31.6875 24.9844C31.6563 24.2032 31.6249 23.4218 31.5937 22.6406C31.125 22.1093 30.6562 21.5782 30.1875 21.0469C30.1094 20.7965 30.1563 20.5777 30.3281 20.3906Z" fill="#FDC705"/>
<path fill-rule="evenodd" clip-rule="evenodd" d="M23.8594 21.3281C24.2668 21.3125 24.673 21.3282 25.0781 21.375C25.2952 21.4965 25.3889 21.684 25.3594 21.9375C25.3852 22.2243 25.2602 22.4118 24.9844 22.5C24.6107 22.5467 24.2357 22.5624 23.8594 22.5468C23.8594 22.1406 23.8594 21.7343 23.8594 21.3281Z" fill="#E04240"/>
<path fill-rule="evenodd" clip-rule="evenodd" d="M28.4531 22.0781C28.6304 22.4022 28.7867 22.746 28.9219 23.1094C28.6474 23.2016 28.3661 23.2328 28.0781 23.2031C28.1842 22.8223 28.3092 22.4473 28.4531 22.0781Z" fill="#E24B3D"/>
<path fill-rule="evenodd" clip-rule="evenodd" d="M11.297 22.3594C13.5472 22.3437 15.7972 22.3594 18.047 22.4063C18.3094 22.7193 18.2782 23.0005 17.9533 23.25C15.7345 23.3125 13.5158 23.3125 11.297 23.25C10.9296 22.9538 10.9296 22.6569 11.297 22.3594Z" fill="#109ED1"/>
<path fill-rule="evenodd" clip-rule="evenodd" d="M11.297 24.8906C13.516 24.875 15.7348 24.8906 17.9533 24.9375C18.2894 25.1745 18.3206 25.4558 18.047 25.7813C15.797 25.8438 13.547 25.8438 11.297 25.7813C10.9296 25.485 10.9296 25.1881 11.297 24.8906Z" fill="#0F9DD1"/>
<path opacity="0.99" fill-rule="evenodd" clip-rule="evenodd" d="M3.89062 33.6094C17.2656 33.6094 30.6406 33.6094 44.0156 33.6094C44.0313 34.7348 44.0156 35.8598 43.9687 36.9844C43.7032 37.75 43.1875 38.2657 42.4219 38.5313C37.52 38.6702 32.6137 38.7171 27.7031 38.6719C25.2031 38.5469 22.7031 38.5469 20.2031 38.6719C15.262 38.7167 10.3246 38.6698 5.39062 38.5313C4.67912 38.2261 4.19475 37.7105 3.93749 36.9844C3.89063 35.8598 3.87501 34.7348 3.89062 33.6094Z" fill="#426880"/>
<path fill-rule="evenodd" clip-rule="evenodd" d="M27.7031 38.6719C27.7031 40.4531 27.7031 42.2344 27.7031 44.0156C25.2031 44.0156 22.7032 44.0156 20.2031 44.0156C20.2031 42.2344 20.2031 40.4531 20.2031 38.6719C22.7032 38.5469 25.2031 38.5469 27.7031 38.6719Z" fill="#28475A"/>
<path opacity="0.994" fill-rule="evenodd" clip-rule="evenodd" d="M20.2031 44.0156C22.7032 44.0156 25.2031 44.0156 27.7031 44.0156C28.9848 44 30.266 44.0156 31.5469 44.0625C31.7969 44.3438 31.7969 44.625 31.5469 44.9063C26.4844 44.9688 21.4219 44.9688 16.3594 44.9063C16.1094 44.625 16.1094 44.3438 16.3594 44.0625C17.6403 44.0156 18.9215 44 20.2031 44.0156Z" fill="#426880"/>
</svg>
