<svg width="48" height="48" viewBox="0 0 48 48" fill="none" xmlns="http://www.w3.org/2000/svg">
<g clip-path="url(#clip0_12083_17504)">
<path fill-rule="evenodd" clip-rule="evenodd" d="M47.9984 7.00005V23C47.9984 28.9 45.3984 34.1 40.5984 37.5L27.9984 46.5L15.3984 37.5C10.5984 34.1 7.89844 29 7.89844 23V7.00005C23.0984 -2.59995 32.7984 -2.59995 47.9984 7.00005Z" fill="#002548"/>
<path fill-rule="evenodd" clip-rule="evenodd" d="M44.4016 8.99995C31.9016 1.59995 24.0016 1.59995 11.6016 8.99995V23C11.6016 27.7999 13.7016 31.7999 17.5016 34.5999L28.0016 42.0999L38.4016 34.5999C42.3016 31.7999 44.3016 27.7999 44.3016 23V8.99995H44.4016Z" fill="#0054A6"/>
<path fill-rule="evenodd" clip-rule="evenodd" d="M21.3984 19.4H24.4984V12.8C24.4984 10.9 25.9984 9.40005 27.8984 9.40005C29.7984 9.40005 31.2984 10.9 31.2984 12.8V19.4H34.3984V12.8C34.3984 9.20005 31.4984 6.30005 27.8984 6.30005C24.2984 6.30005 21.3984 9.20005 21.3984 12.8V19.4Z" fill="#002548"/>
<path fill-rule="evenodd" clip-rule="evenodd" d="M20.3984 16.3H35.4984C36.5984 16.3 37.4984 17.2 37.4984 18.3V30.6C37.4984 31.7001 36.5984 32.6 35.4984 32.6H20.3984C19.2984 32.6 18.3984 31.7001 18.3984 30.6V18.3C18.3984 17.2 19.2984 16.3 20.3984 16.3Z" fill="#FFDD33"/>
<path fill-rule="evenodd" clip-rule="evenodd" d="M29.1016 25.2V27.1C29.1016 27.7 28.6016 28.2 28.0016 28.2C27.4016 28.2 26.9016 27.7 26.9016 27.1V25.2C26.1016 24.8 25.6016 24 25.6016 23C25.6016 21.6 26.7016 20.5 28.1016 20.5C29.5016 20.5 30.6016 21.6 30.6016 23C30.4016 24 29.9016 24.8 29.1016 25.2Z" fill="#002548"/>
<path d="M11.8 48.2001C18.317 48.2001 23.6 42.9171 23.6 36.4001C23.6 29.8831 18.317 24.6001 11.8 24.6001C5.28304 24.6001 0 29.8831 0 36.4001C0 42.9171 5.28304 48.2001 11.8 48.2001Z" fill="#D2D9DC"/>
<path d="M11.8031 35.4C13.7914 35.4 15.4031 33.7882 15.4031 31.7999C15.4031 29.8117 13.7914 28.2 11.8031 28.2C9.8149 28.2 8.20312 29.8117 8.20312 31.7999C8.20312 33.7882 9.8149 35.4 11.8031 35.4Z" fill="#FFBD86"/>
<path fill-rule="evenodd" clip-rule="evenodd" d="M18.3969 42.2999C18.0969 38.9999 15.1969 36.3999 11.7969 36.3999C8.39687 36.3999 5.59688 38.9999 5.29688 42.2999C5.29688 42.5999 5.49687 42.8999 5.89687 42.8999H17.7969C18.1969 42.9999 18.3969 42.6999 18.3969 42.2999Z" fill="#002548"/>
</g>
<defs>
<clipPath id="clip0_12083_17504">
<rect width="48" height="48" fill="white"/>
</clipPath>
</defs>
</svg>
