<svg width="334" height="240" viewBox="0 0 334 240" fill="none" xmlns="http://www.w3.org/2000/svg">
<path d="M273.898 50H50.0984C47.1984 50 44.8984 52.2 44.8984 54.9V63.7V190.6C44.8984 193.3 47.1984 195.5 50.0984 195.5H273.898C276.798 195.5 279.098 193.3 279.098 190.6V63.8V55C279.098 52.2 276.798 50 273.898 50Z" fill="#F9FAFB"/>
<path d="M274.9 50H49.2C46.9 50 45 51.9 45 54.2V61.5H279.1V54.2C279.1 51.9 277.2 50 274.9 50Z" fill="#002548"/>
<path d="M255.298 75.6006H190.398C185.398 75.6006 181.398 79.7006 181.398 84.7006V195.701H264.398V84.7006C264.398 79.7006 260.298 75.6006 255.298 75.6006Z" fill="#D2D9DC"/>
<path d="M216.3 128.4H193C191.9 128.4 191 129.2 191 130.2C191 131.2 191.9 132 193 132H216.3C217.4 132 218.3 131.2 218.3 130.2C218.3 129.2 217.4 128.4 216.3 128.4Z" fill="#839299"/>
<path d="M216.3 135.601H193C191.9 135.601 191 136.401 191 137.401C191 138.401 191.9 139.201 193 139.201H216.3C217.4 139.201 218.3 138.401 218.3 137.401C218.3 136.401 217.4 135.601 216.3 135.601Z" fill="#839299"/>
<path d="M237 142.801H193C191.9 142.801 191 143.601 191 144.601C191 145.601 191.9 146.401 193 146.401H237C238.1 146.401 239 145.601 239 144.601C239 143.701 238.1 142.801 237 142.801Z" fill="#839299"/>
<path d="M248.698 128.4H225.398C224.298 128.4 223.398 129.2 223.398 130.2C223.398 131.2 224.298 132 225.398 132H248.698C249.798 132 250.698 131.2 250.698 130.2C250.698 129.2 249.798 128.4 248.698 128.4Z" fill="#839299"/>
<path d="M216.3 156.4H193C191.9 156.4 191 157.2 191 158.2C191 159.2 191.9 160 193 160H216.3C217.4 160 218.3 159.2 218.3 158.2C218.3 157.2 217.4 156.4 216.3 156.4Z" fill="#839299"/>
<path d="M216.3 163.601H193C191.9 163.601 191 164.401 191 165.401C191 166.401 191.9 167.201 193 167.201H216.3C217.4 167.201 218.3 166.401 218.3 165.401C218.3 164.501 217.4 163.601 216.3 163.601Z" fill="#839299"/>
<path d="M237 170.801H193C191.9 170.801 191 171.601 191 172.601C191 173.601 191.9 174.401 193 174.401H237C238.1 174.401 239 173.601 239 172.601C239 171.701 238.1 170.801 237 170.801Z" fill="#839299"/>
<path d="M248.698 156.4H225.398C224.298 156.4 223.398 157.2 223.398 158.2C223.398 159.2 224.298 160 225.398 160H248.698C249.798 160 250.698 159.2 250.698 158.2C250.698 157.2 249.798 156.4 248.698 156.4Z" fill="#839299"/>
<path d="M245.9 90.2002H195.8C193.2 90.2002 191 92.3002 191 95.0002C191 97.6002 193.1 99.8002 195.8 99.8002H245.9C248.5 99.8002 250.7 97.7002 250.7 95.0002C250.7 92.3002 248.5 90.2002 245.9 90.2002Z" fill="white"/>
<path d="M231.398 93.7002C230.698 93.7002 230.098 94.3002 230.098 95.0002C230.098 95.7002 230.698 96.3002 231.398 96.3002C232.098 96.3002 232.698 95.7002 232.698 95.0002C232.598 94.3002 232.098 93.7002 231.398 93.7002Z" fill="#5F737C"/>
<path d="M225.499 93.7002C224.799 93.7002 224.199 94.3002 224.199 95.0002C224.199 95.7002 224.799 96.3002 225.499 96.3002C226.199 96.3002 226.799 95.7002 226.799 95.0002C226.699 94.3002 226.199 93.7002 225.499 93.7002Z" fill="#5F737C"/>
<path d="M219.601 93.7002C218.901 93.7002 218.301 94.3002 218.301 95.0002C218.301 95.7002 218.901 96.3002 219.601 96.3002C220.301 96.3002 220.901 95.7002 220.901 95.0002C220.801 94.3002 220.301 93.7002 219.601 93.7002Z" fill="#5F737C"/>
<path d="M213.698 93.7002C212.998 93.7002 212.398 94.3002 212.398 95.0002C212.398 95.7002 212.998 96.3002 213.698 96.3002C214.398 96.3002 214.998 95.7002 214.998 95.0002C214.898 94.3002 214.398 93.7002 213.698 93.7002Z" fill="#5F737C"/>
<path d="M207.8 93.7002C207.1 93.7002 206.5 94.3002 206.5 95.0002C206.5 95.7002 207.1 96.3002 207.8 96.3002C208.5 96.3002 209.1 95.7002 209.1 95.0002C209 94.3002 208.5 93.7002 207.8 93.7002Z" fill="#5F737C"/>
<path d="M201.898 93.7002C201.198 93.7002 200.598 94.3002 200.598 95.0002C200.598 95.7002 201.198 96.3002 201.898 96.3002C202.598 96.3002 203.198 95.7002 203.198 95.0002C203.098 94.3002 202.598 93.7002 201.898 93.7002Z" fill="#5F737C"/>
<path d="M195.999 93.7002C195.299 93.7002 194.699 94.3002 194.699 95.0002C194.699 95.7002 195.299 96.3002 195.999 96.3002C196.699 96.3002 197.299 95.7002 197.299 95.0002C197.199 94.3002 196.699 93.7002 195.999 93.7002Z" fill="#5F737C"/>
<path d="M247.4 94.5004H241.2C241.1 94.5004 241 94.4004 241 94.3004C240.8 93.5004 240 92.9004 239.1 92.9004C237.9 92.9004 237 93.9004 237.2 95.1004C237.3 96.0004 238 96.7004 238.9 96.8004C239.9 96.9004 240.7 96.3004 241 95.4004C241 95.3004 241.1 95.2004 241.2 95.2004H245.7C245.8 95.2004 245.8 95.3004 245.8 95.3004V96.1004C245.8 96.3004 246 96.4004 246.1 96.4004H246.2C246.4 96.4004 246.5 96.2004 246.5 96.1004V95.3004C246.5 95.2004 246.6 95.2004 246.6 95.2004H246.7C246.8 95.2004 246.8 95.3004 246.8 95.3004V96.6004C246.8 96.7004 246.9 96.9004 247.1 96.9004H247.4C247.5 96.9004 247.7 96.8004 247.7 96.6004V94.7004C247.7 94.6004 247.6 94.5004 247.4 94.5004ZM238.9 95.7004C238.6 95.6004 238.3 95.4004 238.2 95.0004C238.1 94.4004 238.6 93.8004 239.2 94.0004C239.5 94.1004 239.8 94.3004 239.9 94.7004C240.1 95.3004 239.5 95.9004 238.9 95.7004Z" fill="#54CC5A"/>
<path d="M245.9 105.5H195.8C193.2 105.5 191 107.6 191 110.3C191 112.9 193.1 115.1 195.8 115.1H245.9C248.5 115.1 250.7 113 250.7 110.3C250.7 107.6 248.5 105.5 245.9 105.5Z" fill="white"/>
<path d="M231.398 109C230.698 109 230.098 109.6 230.098 110.3C230.098 111 230.698 111.6 231.398 111.6C232.098 111.6 232.698 111 232.698 110.3C232.598 109.6 232.098 109 231.398 109Z" fill="#5F737C"/>
<path d="M225.499 109C224.799 109 224.199 109.6 224.199 110.3C224.199 111 224.799 111.6 225.499 111.6C226.199 111.6 226.799 111 226.799 110.3C226.699 109.6 226.199 109 225.499 109Z" fill="#5F737C"/>
<path d="M219.601 109C218.901 109 218.301 109.6 218.301 110.3C218.301 111 218.901 111.6 219.601 111.6C220.301 111.6 220.901 111 220.901 110.3C220.801 109.6 220.301 109 219.601 109Z" fill="#5F737C"/>
<path d="M213.698 109C212.998 109 212.398 109.6 212.398 110.3C212.398 111 212.998 111.6 213.698 111.6C214.398 111.6 214.998 111 214.998 110.3C214.898 109.6 214.398 109 213.698 109Z" fill="#5F737C"/>
<path d="M207.8 109C207.1 109 206.5 109.6 206.5 110.3C206.5 111 207.1 111.6 207.8 111.6C208.5 111.6 209.1 111 209.1 110.3C209 109.6 208.5 109 207.8 109Z" fill="#5F737C"/>
<path d="M201.898 109C201.198 109 200.598 109.6 200.598 110.3C200.598 111 201.198 111.6 201.898 111.6C202.598 111.6 203.198 111 203.198 110.3C203.098 109.6 202.598 109 201.898 109Z" fill="#5F737C"/>
<path d="M195.999 109C195.299 109 194.699 109.6 194.699 110.3C194.699 111 195.299 111.6 195.999 111.6C196.699 111.6 197.299 111 197.299 110.3C197.199 109.6 196.699 109 195.999 109Z" fill="#5F737C"/>
<path d="M243.2 113.2C241 113.2 239.4 111.9 238.6 111.1C238.3 110.8 238.3 110.3 238.6 110C239.4 109.2 241 107.9 243.2 107.9C245.4 107.9 247 109.2 247.8 110C248.1 110.3 248.1 110.8 247.8 111.2C247 111.9 245.4 113.2 243.2 113.2ZM239 110.3C238.9 110.4 238.9 110.6 239 110.7C239.6 111.3 241.1 112.7 243.2 112.7C245.2 112.7 246.8 111.3 247.4 110.7C247.5 110.6 247.5 110.4 247.4 110.3C246.8 109.7 245.2 108.3 243.2 108.3C241.2 108.3 239.6 109.7 239 110.3Z" fill="#FFDD33"/>
<mask id="mask0_9702_58144" style="mask-type:luminance" maskUnits="userSpaceOnUse" x="238" y="107" width="11" height="7">
<path d="M243.2 113.2C241 113.2 239.4 111.9 238.6 111.1C238.3 110.8 238.3 110.3 238.6 110C239.4 109.2 241 107.9 243.2 107.9C245.4 107.9 247 109.2 247.8 110C248.1 110.3 248.1 110.8 247.8 111.2C247 111.9 245.4 113.2 243.2 113.2ZM239 110.3C238.9 110.4 238.9 110.6 239 110.7C239.6 111.3 241.1 112.7 243.2 112.7C245.2 112.7 246.8 111.3 247.4 110.7C247.5 110.6 247.5 110.4 247.4 110.3C246.8 109.7 245.2 108.3 243.2 108.3C241.2 108.3 239.6 109.7 239 110.3Z" fill="white"/>
</mask>
<g mask="url(#mask0_9702_58144)">
<path d="M243.201 108.101C241.901 108.101 240.801 109.201 240.801 110.501C240.801 111.801 241.901 112.901 243.201 112.901C244.501 112.901 245.601 111.801 245.601 110.501C245.601 109.201 244.601 108.101 243.201 108.101Z" fill="#FFDD33"/>
</g>
<path d="M240.742 107.043L240.188 107.47L245.558 114.44L246.113 114.013L240.742 107.043Z" fill="#FFDD33"/>
<path d="M153.302 95.4L119.002 81.5L84.6016 95.4V135.3C84.6016 144.1 84.9016 149.5 96.7016 156.8L118.902 170.3L141.102 156.8C153.902 149.1 153.202 144.1 153.202 135.3V95.4H153.302Z" fill="#0054A6"/>
<path d="M147.299 100.7L118.999 89.2002L90.6992 100.7V133.6C90.6992 140.9 91.3992 145.2 100.699 151.3L119.099 162.4L137.499 151.3C147.899 145.4 147.499 140.8 147.499 133.6V100.7H147.299Z" fill="#0054A6"/>
<g opacity="0.19">
<path d="M147.299 100.7L118.999 89.2002L90.6992 100.7V133.6C90.6992 140.9 91.3992 145.2 100.699 151.3L119.099 162.4L137.499 151.3C147.899 145.4 147.499 140.8 147.499 133.6V100.7H147.299Z" fill="#F9FAFB"/>
</g>
<path d="M118.998 100.5C105.398 100.5 94.3984 111.5 94.3984 125.1C94.3984 138.7 105.398 149.7 118.998 149.7C132.598 149.7 143.598 138.7 143.598 125.1C143.598 111.5 132.598 100.5 118.998 100.5Z" fill="#0054A6"/>
<path d="M129.598 115.4C125.198 119.5 120.798 123.6 116.398 127.6C115.798 128.2 114.798 128.2 114.098 127.6C112.198 125.7 110.198 123.9 108.298 122C105.598 119.4 101.398 123.5 104.198 126.1C107.198 129 110.198 131.8 113.198 134.7C114.398 135.8 116.198 135.8 117.298 134.7C122.798 129.6 128.298 124.5 133.698 119.4C136.498 117 132.398 112.9 129.598 115.4Z" fill="#54CC5A"/>
<path d="M303.699 165.7C302.099 165.7 300.599 166 299.199 166.6C297.599 158 290.099 151.5 281.099 151.5C272.299 151.5 264.999 157.7 263.199 165.9C262.299 165.7 261.399 165.6 260.499 165.6C254.299 165.6 249.199 170.7 249.199 176.9C249.199 183.1 257.899 183.7 264.199 183.7H300.599C306.799 183.7 314.999 183.1 314.999 176.9C314.999 170.7 309.899 165.7 303.699 165.7Z" fill="#0054A6"/>
<path d="M93.6016 23.9004H90.1016C89.8016 23.9004 89.6016 24.1004 89.6016 24.4004V27.9004C89.6016 28.1004 89.9016 28.3004 90.1016 28.0004V24.4004H93.7016C94.0016 24.2004 93.8016 23.9004 93.6016 23.9004Z" fill="#839299"/>
<path d="M93.6016 41.8008H90.1016V38.2008C89.9016 37.9008 89.6016 38.1008 89.6016 38.3008V41.8008C89.6016 42.1008 89.8016 42.3008 90.1016 42.3008H93.7016C94.0016 42.1008 93.8016 41.8008 93.6016 41.8008Z" fill="#839299"/>
<path d="M184.3 23.9004H180.7C180.4 24.1004 180.6 24.4004 180.8 24.4004H184.3V28.0004C184.5 28.3004 184.8 28.1004 184.8 27.9004V24.4004C184.8 24.1004 184.6 23.9004 184.3 23.9004Z" fill="#839299"/>
<path d="M184.3 38.2008V41.8008H180.7C180.4 42.0008 180.6 42.3008 180.8 42.3008H184.3C184.6 42.3008 184.8 42.1008 184.8 41.8008V38.3008C184.8 38.1008 184.5 37.9008 184.3 38.2008Z" fill="#839299"/>
<path d="M171.798 26.6006H102.998C99.3984 26.6006 96.3984 29.5006 96.3984 33.2006C96.3984 36.8006 99.2984 39.8006 102.998 39.8006H171.798C175.398 39.8006 178.398 36.9006 178.398 33.2006C178.298 29.5006 175.398 26.6006 171.798 26.6006Z" fill="#D2D9DC"/>
<path d="M108.802 31.4004C107.802 31.4004 107.102 32.2004 107.102 33.1004C107.102 34.1004 107.902 34.8004 108.802 34.8004C109.802 34.8004 110.502 34.0004 110.502 33.1004C110.602 32.2004 109.802 31.4004 108.802 31.4004Z" fill="#839299"/>
<path d="M116.903 31.4004C115.903 31.4004 115.203 32.2004 115.203 33.1004C115.203 34.1004 116.003 34.8004 116.903 34.8004C117.903 34.8004 118.603 34.0004 118.603 33.1004C118.603 32.2004 117.903 31.4004 116.903 31.4004Z" fill="#839299"/>
<path d="M125.001 31.4004C124.001 31.4004 123.301 32.2004 123.301 33.1004C123.301 34.1004 124.101 34.8004 125.001 34.8004C126.001 34.8004 126.701 34.0004 126.701 33.1004C126.701 32.2004 126.001 31.4004 125.001 31.4004Z" fill="#839299"/>
<path d="M133.102 31.4004C132.102 31.4004 131.402 32.2004 131.402 33.1004C131.402 34.1004 132.202 34.8004 133.102 34.8004C134.102 34.8004 134.802 34.0004 134.802 33.1004C134.802 32.2004 134.002 31.4004 133.102 31.4004Z" fill="#839299"/>
<path d="M141.2 31.4004C140.2 31.4004 139.5 32.2004 139.5 33.1004C139.5 34.1004 140.3 34.8004 141.2 34.8004C142.1 34.8004 142.9 34.0004 142.9 33.1004C142.9 32.2004 142.1 31.4004 141.2 31.4004Z" fill="#839299"/>
<path d="M149.302 31.4004C148.302 31.4004 147.602 32.2004 147.602 33.1004C147.602 34.1004 148.402 34.8004 149.302 34.8004C150.302 34.8004 151.002 34.0004 151.002 33.1004C151.002 32.2004 150.202 31.4004 149.302 31.4004Z" fill="#839299"/>
<path d="M156.101 34.4008C157.901 35.8008 160.001 33.7008 158.601 31.9008C156.801 30.5008 154.701 32.5008 156.101 34.4008Z" fill="#839299"/>
<path d="M164.703 34.4008C166.503 35.8008 168.603 33.7008 167.203 31.9008C165.403 30.5008 163.303 32.5008 164.703 34.4008Z" fill="#839299"/>
<path d="M53.4984 57.6004C54.3821 57.6004 55.0984 56.884 55.0984 56.0004C55.0984 55.1167 54.3821 54.4004 53.4984 54.4004C52.6148 54.4004 51.8984 55.1167 51.8984 56.0004C51.8984 56.884 52.6148 57.6004 53.4984 57.6004Z" fill="white"/>
<path d="M59.4984 57.6004C60.3821 57.6004 61.0984 56.884 61.0984 56.0004C61.0984 55.1167 60.3821 54.4004 59.4984 54.4004C58.6148 54.4004 57.8984 55.1167 57.8984 56.0004C57.8984 56.884 58.6148 57.6004 59.4984 57.6004Z" fill="white"/>
<path d="M65.6 57.6004C66.4837 57.6004 67.2 56.884 67.2 56.0004C67.2 55.1167 66.4837 54.4004 65.6 54.4004C64.7163 54.4004 64 55.1167 64 56.0004C64 56.884 64.7163 57.6004 65.6 57.6004Z" fill="white"/>
<path d="M78.2 158.4V214C78.2 215.2 77.3 216.1 76.1 216.1H21.1C19.9 216.1 19 215.1 19 214V158.5C19 157.3 20 156.4 21.1 156.4H76C77.2 156.3 78.2 157.2 78.2 158.4Z" fill="#D2D9DC"/>
<path d="M78.2 158.401V162.001H19V158.401C19 157.201 19.9 156.301 21.1 156.301H76C77.2 156.301 78.2 157.201 78.2 158.401Z" fill="#002548"/>
<path d="M57.8 181.301H56.7C56.3 181.301 55.9 180.901 55.9 180.501V179.001C55.9 177.701 55.6 176.501 55 175.401C54.3 174.201 53.4 173.101 52.2 172.401C52.2 172.401 49.9 171.301 48.4 171.301H48.2C44 171.301 40.5 174.801 40.5 179.001V180.501C40.5 180.901 40.1 181.301 39.7 181.301H38.6C37.2 181.301 36 182.501 36 183.901V198.901C36 200.401 37.2 201.601 38.6 201.601H57.7C59.2 201.601 60.4 200.401 60.4 198.901V183.901C60.4 182.501 59.3 181.301 57.8 181.301ZM50.2 192.001C49.8 192.201 49.6 192.601 49.6 193.001V198.501C49.6 198.701 49.5 198.801 49.3 198.801H47.5C47.4 198.801 47.2 198.701 47.2 198.501V193.001C47.2 192.601 47 192.201 46.6 192.001C45.6 191.401 45 190.401 45 189.101C45 187.201 46.5 185.701 48.4 185.701C50.3 185.701 51.8 187.201 51.8 189.101C51.8 190.301 51.2 191.401 50.2 192.001ZM53 180.501C53 180.901 52.6 181.301 52.2 181.301H44.3C43.9 181.301 43.5 180.901 43.5 180.501V178.701C43.5 176.101 45.6 173.901 48.3 173.901H48.5C48.5 173.901 50.4 173.901 51.9 175.601C52.6 176.401 53 177.501 53 178.701V180.501Z" fill="#F9FAFB"/>
</svg>
