<svg width="420" height="332" viewBox="0 0 420 332" fill="none" xmlns="http://www.w3.org/2000/svg">
<path d="M190.117 216.585V266.285H229.817V216.585H190.117Z" fill="#002548"/>
<path opacity="0.19" d="M190.117 216.585V266.285H229.817V216.585H190.117Z" fill="#F9FAFB"/>
<path d="M134.199 277V271.1L155.699 266.3H264.299L285.799 271V277H134.199Z" fill="#002548"/>
<path d="M336.285 228.384L336.285 61.9839L83.6852 61.9839L83.6852 228.384L336.285 228.384Z" fill="#002548"/>
<path d="M333.902 64.4004H86.1016V218.8H333.902V64.4004Z" fill="#737373"/>
<path d="M320.001 208.3H95.3008C93.4008 208.3 91.8008 206.7 91.8008 204.8V58.6001C91.8008 56.7001 93.4008 55.1001 95.3008 55.1001H320.001C321.901 55.1001 323.501 56.7001 323.501 58.6001V204.8C323.501 206.7 321.901 208.3 320.001 208.3Z" fill="#F9FAFB"/>
<path d="M323.501 62.8H91.8008V58.3C91.8008 56.5 93.3008 55 95.1008 55H320.201C322.001 55 323.501 56.5 323.501 58.3V62.8Z" fill="#002548"/>
<path d="M97.2008 60.6999C98.2501 60.6999 99.1008 59.8492 99.1008 58.7999C99.1008 57.7506 98.2501 56.8999 97.2008 56.8999C96.1514 56.8999 95.3008 57.7506 95.3008 58.7999C95.3008 59.8492 96.1514 60.6999 97.2008 60.6999Z" fill="#ED1C24"/>
<path d="M103.923 60.6989C104.972 60.6851 105.811 59.8233 105.797 58.774C105.783 57.7248 104.922 56.8854 103.872 56.8993C102.823 56.9131 101.984 57.7749 101.998 58.8241C102.012 59.8734 102.873 60.7127 103.923 60.6989Z" fill="#FFDD33"/>
<path d="M110.798 60.6999C111.848 60.6999 112.698 59.8492 112.698 58.7999C112.698 57.7506 111.848 56.8999 110.798 56.8999C109.749 56.8999 108.898 57.7506 108.898 58.7999C108.898 59.8492 109.749 60.6999 110.798 60.6999Z" fill="#54CC5A"/>
<path d="M239.101 102.5H237.201V85.1999H230.801V83.3999H245.501V85.1999H239.101V102.5Z" fill="white"/>
<path d="M254.399 91.4998H250.799V98.9998C250.799 99.4998 250.799 99.7998 250.899 100.1C250.999 100.4 251.099 100.6 251.299 100.8C251.499 101 251.699 101.1 251.899 101.1C252.099 101.2 252.399 101.2 252.599 101.2C252.899 101.2 253.199 101.2 253.499 101.1C253.799 101 254.099 100.9 254.399 100.7L254.499 102.3C253.799 102.6 252.999 102.8 252.099 102.8C251.799 102.8 251.399 102.8 250.999 102.7C250.599 102.6 250.299 102.4 249.999 102.2C249.699 101.9 249.399 101.6 249.199 101.2C248.999 100.8 248.899 100.2 248.899 99.4998V91.4998H246.199V89.8998H248.899V86.2998H250.699V89.8998H254.299V91.4998H254.399Z" fill="white"/>
<path d="M107.698 199H210.998C212.498 199 213.798 197.7 213.798 196.2V134.3C213.798 132.8 212.498 131.5 210.998 131.5H107.698C106.198 131.5 104.898 132.8 104.898 134.3V196.2C104.898 197.7 106.098 199 107.698 199Z" fill="#D2D9DC"/>
<path d="M146.099 138.6H122.199V159.9H146.099V138.6Z" fill="#0054A6"/>
<path d="M192.4 143.2H152.7C151.8 143.2 151 142.5 151 141.5C151 140.5 151.7 139.8 152.7 139.8H192.4C193.3 139.8 194.1 140.5 194.1 141.5C194.1 142.5 193.3 143.2 192.4 143.2Z" fill="#0054A6"/>
<path d="M167.1 152.2H151.7C150.8 152.2 150 151.5 150 150.5C150 149.5 150.7 148.8 151.7 148.8H167.1C168 148.8 168.8 149.5 168.8 150.5C168.8 151.5 168 152.2 167.1 152.2Z" fill="#0054A6"/>
<path d="M198.301 152.2H176.001C175.101 152.2 174.301 151.5 174.301 150.5C174.301 149.5 175.001 148.8 176.001 148.8H198.301C199.201 148.8 200.001 149.5 200.001 150.5C200.001 151.5 199.201 152.2 198.301 152.2Z" fill="#0054A6"/>
<path d="M180.098 162.4H161.898C160.098 162.4 158.598 160.9 158.598 159.1C158.598 157.3 160.098 155.8 161.898 155.8H180.098C181.898 155.8 183.398 157.3 183.398 159.1C183.398 160.9 181.898 162.4 180.098 162.4Z" fill="#002548"/>
<path d="M146.099 169.1H122.199V190.4H146.099V169.1Z" fill="#0054A6"/>
<path d="M192.4 173.7H152.7C151.8 173.7 151 173 151 172C151 171 151.7 170.3 152.7 170.3H192.4C193.3 170.3 194.1 171 194.1 172C194.1 173 193.3 173.7 192.4 173.7Z" fill="#0054A6"/>
<path d="M167.1 182.7H151.7C150.8 182.7 150 182 150 181C150 180 150.7 179.3 151.7 179.3H167.1C168 179.3 168.8 180 168.8 181C168.8 182 168 182.7 167.1 182.7Z" fill="#0054A6"/>
<path d="M198.301 182.7H176.001C175.101 182.7 174.301 182 174.301 181C174.301 180 175.001 179.3 176.001 179.3H198.301C199.201 179.3 200.001 180 200.001 181C200.001 182 199.201 182.7 198.301 182.7Z" fill="#0054A6"/>
<path d="M180.098 192.9H161.898C160.098 192.9 158.598 191.4 158.598 189.6C158.598 187.8 160.098 186.3 161.898 186.3H180.098C181.898 186.3 183.398 187.8 183.398 189.6C183.398 191.4 181.898 192.9 180.098 192.9Z" fill="#002548"/>
<path d="M196.399 72.8999H122.399C120.899 72.8999 119.699 74.0999 119.699 75.5999V120.1C119.699 121.6 120.899 122.8 122.399 122.8H196.399C197.899 122.8 199.099 121.6 199.099 120.1V75.5999C199.099 74.0999 197.899 72.8999 196.399 72.8999Z" fill="#0054A6"/>
<path d="M161.298 100.4H161.198L132.898 92.2002C132.698 92.1002 132.598 92.0002 132.598 91.7002C132.598 91.5002 132.698 91.3002 132.898 91.2002L161.198 82.7002C161.298 82.7002 161.298 82.7002 161.398 82.7002L190.598 88.8002C190.798 88.8002 190.898 89.0002 190.898 89.2002C190.898 89.4002 190.798 89.6002 190.598 89.7002L161.398 100.4C161.398 100.4 161.398 100.4 161.298 100.4ZM134.698 91.7002L161.298 99.4002L188.798 89.4002L161.398 83.7002L134.698 91.7002Z" fill="#F9FAFB"/>
<path d="M157.898 111.8C157.798 111.8 157.798 111.8 157.698 111.7C157.598 111.6 145.998 104.3 140.398 103.1C140.298 103.1 140.198 103 140.098 102.9C139.998 102.8 139.998 102.6 140.098 102.5C140.098 102.3 141.298 97.7004 144.198 94.5004C144.398 94.3004 144.598 94.3004 144.798 94.5004C144.998 94.7004 144.998 95.0004 144.798 95.2004C142.598 97.6004 141.398 101 140.998 102.2C146.498 103.6 156.298 109.7 157.898 110.6C167.698 105 177.498 103.3 179.898 103C178.398 98.0004 176.098 95.1004 175.998 95.0004C175.798 94.8004 175.798 94.5004 175.998 94.3004C176.198 94.1004 176.398 94.1004 176.598 94.3004C176.698 94.4004 179.298 97.6004 180.798 103.2C180.798 103.3 180.798 103.5 180.698 103.6C180.598 103.7 180.498 103.8 180.398 103.8C180.298 103.8 169.098 105.1 157.998 111.5C158.098 111.8 157.998 111.8 157.898 111.8Z" fill="#F9FAFB"/>
<path d="M133.9 104.9C133.7 104.9 133.5 104.7 133.5 104.4V91.9004C133.5 91.6004 133.7 91.4004 133.9 91.4004C134.1 91.4004 134.3 91.6004 134.3 91.9004V104.3C134.3 104.6 134.1 104.9 133.9 104.9Z" fill="#F9FAFB"/>
<path d="M134 108.4C132.9 108.4 132 107.4 132 106.1C132 104.9 132.9 103.8 134 103.8C135.1 103.8 136 104.8 136 106.1C136 107.4 135.1 108.4 134 108.4ZM134 104.9C133.4 104.9 132.9 105.5 132.9 106.2C132.9 106.9 133.4 107.5 134 107.5C134.6 107.5 135.1 106.9 135.1 106.2C135.2 105.4 134.7 104.9 134 104.9Z" fill="#F9FAFB"/>
<path d="M133.598 115.7C132.698 115.7 131.798 115.5 131.098 114.9C130.998 114.8 130.898 114.6 130.898 114.4C130.898 114.4 131.298 111 132.398 107.4C132.498 107.1 132.698 107 132.898 107.1C133.098 107.2 133.198 107.5 133.198 107.7C132.298 110.6 131.898 113.3 131.798 114.2C133.098 115.1 135.198 114.5 135.898 114.2C135.398 110.3 134.498 108 134.498 107.9C134.398 107.7 134.498 107.4 134.698 107.3C134.898 107.2 135.198 107.3 135.298 107.6C135.298 107.7 136.298 110.3 136.798 114.5C136.798 114.7 136.698 114.9 136.498 115C136.498 115.1 135.098 115.7 133.598 115.7Z" fill="#F9FAFB"/>
<path d="M310.198 71H224.498C222.798 71 221.398 72.4 221.398 74.1V196.3C221.398 198 222.798 199.4 224.498 199.4H310.198C311.898 199.4 313.298 198 313.298 196.3V74.1C313.298 72.4 311.898 71 310.198 71Z" fill="#D2D9DC"/>
<path d="M305.001 116.8H228.901C228.501 116.8 228.301 116.5 228.301 116.2V84.4999C228.301 84.0999 228.601 83.8999 228.901 83.8999H305.001C305.401 83.8999 305.601 84.1999 305.601 84.4999V116.2C305.701 116.6 305.401 116.8 305.001 116.8ZM229.501 115.5H304.301V85.1999H229.501V115.5Z" fill="#0054A6"/>
<path d="M229.402 116.8C229.102 116.8 228.902 116.6 228.802 116.4C228.702 116.1 228.802 115.7 229.202 115.6L304.602 84.4999C304.902 84.3999 305.302 84.4999 305.402 84.8999C305.502 85.1999 305.402 85.5999 305.002 85.6999L229.602 116.8C229.502 116.8 229.402 116.8 229.402 116.8Z" fill="#0054A6"/>
<path d="M304.199 116.2C304.099 116.2 303.999 116.2 303.999 116.2L229.199 85.8002C228.899 85.7002 228.699 85.3002 228.799 85.0002C228.899 84.7002 229.299 84.5002 229.599 84.6002L304.399 115C304.699 115.1 304.899 115.5 304.799 115.8C304.699 116 304.499 116.2 304.199 116.2Z" fill="#0054A6"/>
<path d="M248.198 136.2H235.498C235.098 136.2 234.898 135.9 234.898 135.6V122.9C234.898 122.5 235.198 122.3 235.498 122.3H248.198C248.598 122.3 248.798 122.6 248.798 122.9V135.6C248.898 135.9 248.598 136.2 248.198 136.2ZM236.098 134.9H247.498V123.5H236.098V134.9Z" fill="#002548"/>
<path d="M298.499 136.2H285.799C285.399 136.2 285.199 135.9 285.199 135.6V122.9C285.199 122.5 285.499 122.3 285.799 122.3H298.499C298.899 122.3 299.099 122.6 299.099 122.9V135.6C299.199 135.9 298.899 136.2 298.499 136.2ZM286.399 134.9H297.799V123.5H286.399V134.9Z" fill="#002548"/>
<path d="M273.698 136.2H260.998C260.598 136.2 260.398 135.9 260.398 135.6V122.9C260.398 122.5 260.698 122.3 260.998 122.3H273.698C274.098 122.3 274.298 122.6 274.298 122.9V135.6C274.398 135.9 274.098 136.2 273.698 136.2ZM261.598 134.9H272.998V123.5H261.598V134.9Z" fill="#002548"/>
<path d="M256.3 143.4C247.8 143.4 241.5 138.6 241.4 138.5C241.1 138.3 241.1 137.9 241.3 137.6C241.5 137.3 241.9 137.3 242.2 137.5C242.7 137.9 255.4 147.6 269.1 137.8C269.4 137.6 269.8 137.7 270 137.9C270.2 138.2 270.1 138.6 269.9 138.8C265.1 142.3 260.4 143.4 256.3 143.4Z" fill="#ED1C24"/>
<path d="M269.298 141.4H269.198C268.898 141.3 268.598 141 268.698 140.6L269.098 138.7L266.498 138.3C266.098 138.2 265.898 137.9 265.998 137.6C266.098 137.2 266.398 137 266.698 137.1L269.898 137.6C270.098 137.6 270.198 137.7 270.298 137.9C270.398 138 270.398 138.2 270.398 138.4L269.798 141C269.898 141.2 269.598 141.4 269.298 141.4Z" fill="#DD4E81"/>
<path d="M296.198 141.9H273.998C273.598 141.9 273.398 141.6 273.398 141.3C273.398 141 273.698 140.7 273.998 140.7H296.198C296.598 140.7 296.798 141 296.798 141.3C296.798 141.6 296.598 141.9 296.198 141.9Z" fill="#002548"/>
<path d="M291.1 144.6H273.6C273.2 144.6 273 144.3 273 144C273 143.7 273.3 143.4 273.6 143.4H291.1C291.5 143.4 291.7 143.7 291.7 144C291.7 144.3 291.4 144.6 291.1 144.6Z" fill="#002548"/>
<path d="M292.6 147.7H275.6C275.2 147.7 275 147.4 275 147.1C275 146.7 275.3 146.5 275.6 146.5H292.6C293 146.5 293.2 146.8 293.2 147.1C293.2 147.4 292.9 147.7 292.6 147.7Z" fill="#002548"/>
<path d="M254.901 193.1H229.401C229.001 193.1 228.801 192.8 228.801 192.5V147.6C228.801 147.2 229.101 147 229.401 147H254.901C255.301 147 255.501 147.3 255.501 147.6V192.5C255.601 192.8 255.301 193.1 254.901 193.1ZM230.001 191.8H254.201V148.2H230.001V191.8Z" fill="#0054A6"/>
<path d="M229.401 192.7C229.301 192.7 229.201 192.7 229.101 192.6C228.801 192.4 228.701 192 228.901 191.7L254.501 147.1C254.701 146.8 255.101 146.7 255.401 146.9C255.701 147.1 255.801 147.5 255.601 147.8L230.001 192.4C229.801 192.6 229.601 192.7 229.401 192.7Z" fill="#0054A6"/>
<path d="M254.699 192.7C254.499 192.7 254.299 192.6 254.099 192.4L228.799 147.8C228.599 147.5 228.699 147.1 228.999 146.9C229.299 146.7 229.699 146.8 229.899 147.1L255.199 191.7C255.399 192 255.299 192.4 254.999 192.6C254.899 192.7 254.799 192.7 254.699 192.7Z" fill="#0054A6"/>
<path d="M305.199 167.9H260.799C260.399 167.9 260.199 167.6 260.199 167.3V154C260.199 153.6 260.499 153.4 260.799 153.4H305.199C305.599 153.4 305.799 153.7 305.799 154V167.3C305.799 167.6 305.499 167.9 305.199 167.9ZM261.399 166.6H304.499V154.6H261.399V166.6Z" fill="#0054A6"/>
<path d="M271.099 187.9C266.999 187.9 263.699 184.6 263.699 180.5C263.699 176.4 266.999 173.1 271.099 173.1C275.199 173.1 278.499 176.4 278.499 180.5C278.499 184.6 275.199 187.9 271.099 187.9ZM271.099 174.4C267.699 174.4 264.999 177.2 264.999 180.5C264.999 183.9 267.799 186.6 271.099 186.6C274.499 186.6 277.199 183.8 277.199 180.5C277.199 177.1 274.499 174.4 271.099 174.4Z" fill="#002548"/>
<path d="M293.099 187.9C288.999 187.9 285.699 184.6 285.699 180.5C285.699 176.4 288.999 173.1 293.099 173.1C297.199 173.1 300.499 176.4 300.499 180.5C300.499 184.6 297.199 187.9 293.099 187.9ZM293.099 174.4C289.699 174.4 286.999 177.2 286.999 180.5C286.999 183.9 289.799 186.6 293.099 186.6C296.499 186.6 299.199 183.8 299.199 180.5C299.199 177.1 296.399 174.4 293.099 174.4Z" fill="#ED1C24"/>
<path d="M288.199 185.6C287.999 185.6 287.899 185.5 287.799 185.4C287.599 185.2 287.499 184.8 287.799 184.5L296.899 175.3C297.099 175.1 297.499 175.1 297.799 175.3C297.999 175.5 298.099 175.9 297.799 176.2L288.699 185.4C288.499 185.5 288.399 185.6 288.199 185.6Z" fill="#ED1C24"/>
<path d="M298.4 185.5C298.3 185.5 298.1 185.4 298 185.3L287.9 176.4C287.6 176.2 287.6 175.8 287.8 175.5C288 175.2 288.4 175.2 288.7 175.4L298.8 184.3C299.1 184.5 299.1 184.9 298.9 185.2C298.7 185.5 298.5 185.5 298.4 185.5Z" fill="#ED1C24"/>
<path d="M311.699 69.2002H222.799C221.899 69.2002 221.199 69.9002 221.199 70.8002V74.5002H313.399V70.8002C313.299 69.9002 312.599 69.2002 311.699 69.2002Z" fill="#002548"/>
<path d="M224.701 73.1999C225.474 73.1999 226.101 72.5731 226.101 71.7999C226.101 71.0267 225.474 70.3999 224.701 70.3999C223.928 70.3999 223.301 71.0267 223.301 71.7999C223.301 72.5731 223.928 73.1999 224.701 73.1999Z" fill="#ED1C24"/>
<path d="M229.002 73.1999C229.775 73.1999 230.402 72.5731 230.402 71.7999C230.402 71.0267 229.775 70.3999 229.002 70.3999C228.228 70.3999 227.602 71.0267 227.602 71.7999C227.602 72.5731 228.228 73.1999 229.002 73.1999Z" fill="#FFDD33"/>
<path d="M233.298 73.1999C234.072 73.1999 234.698 72.5731 234.698 71.7999C234.698 71.0267 234.072 70.3999 233.298 70.3999C232.525 70.3999 231.898 71.0267 231.898 71.7999C231.898 72.5731 232.525 73.1999 233.298 73.1999Z" fill="#54CC5A"/>
</svg>
