<svg width="420" height="332" viewBox="0 0 420 332" fill="none" xmlns="http://www.w3.org/2000/svg">
<path d="M190.117 216.585V266.285H229.817V216.585H190.117Z" fill="#002548"/>
<path opacity="0.19" d="M190.117 216.585V266.285H229.817V216.585H190.117Z" fill="#F9FAFB"/>
<path d="M134.203 277V271.1L155.703 266.3H264.303L285.803 271V277H134.203Z" fill="#002548"/>
<path d="M336.289 228.384L336.289 61.9836L83.6891 61.9836L83.6891 228.384L336.289 228.384Z" fill="#002548"/>
<path d="M333.902 64.3999H86.1016V218.8H333.902V64.3999Z" fill="#737373"/>
<path d="M320.005 208.3H95.3047C93.4047 208.3 91.8047 206.7 91.8047 204.8V58.6C91.8047 56.7 93.4047 55.1 95.3047 55.1H320.005C321.905 55.1 323.505 56.7 323.505 58.6V204.8C323.505 206.7 321.905 208.3 320.005 208.3Z" fill="#F9FAFB"/>
<path d="M323.505 62.8H91.8047V58.3C91.8047 56.5 93.3047 55 95.1047 55H320.205C322.005 55 323.505 56.5 323.505 58.3V62.8Z" fill="#002548"/>
<path d="M97.2047 60.7C98.254 60.7 99.1047 59.8494 99.1047 58.8C99.1047 57.7507 98.254 56.9 97.2047 56.9C96.1553 56.9 95.3047 57.7507 95.3047 58.8C95.3047 59.8494 96.1553 60.7 97.2047 60.7Z" fill="#ED1C24"/>
<path d="M103.926 60.6986C104.976 60.6848 105.815 59.823 105.801 58.7738C105.787 57.7246 104.926 56.8852 103.876 56.899C102.827 56.9129 101.988 57.7746 102.002 58.8239C102.015 59.8731 102.877 60.7125 103.926 60.6986Z" fill="#FFDD33"/>
<path d="M110.806 60.7C111.856 60.7 112.706 59.8494 112.706 58.8C112.706 57.7507 111.856 56.9 110.806 56.9C109.757 56.9 108.906 57.7507 108.906 58.8C108.906 59.8494 109.757 60.7 110.806 60.7Z" fill="#54CC5A"/>
<path d="M239.105 102.5H237.205V85.2H230.805V83.4H245.505V85.2H239.105V102.5Z" fill="white"/>
<path d="M254.403 91.5H250.803V99C250.803 99.5 250.803 99.8 250.903 100.1C251.003 100.4 251.103 100.6 251.303 100.8C251.503 101 251.703 101.1 251.903 101.1C252.103 101.2 252.403 101.2 252.603 101.2C252.903 101.2 253.203 101.2 253.503 101.1C253.803 101 254.103 100.9 254.403 100.7L254.503 102.3C253.803 102.6 253.003 102.8 252.103 102.8C251.803 102.8 251.403 102.8 251.003 102.7C250.603 102.6 250.303 102.4 250.003 102.2C249.703 101.9 249.403 101.6 249.203 101.2C249.003 100.8 248.903 100.2 248.903 99.5V91.5H246.203V89.9H248.903V86.3H250.703V89.9H254.303V91.5H254.403Z" fill="white"/>
<path d="M107.706 199H211.006C212.506 199 213.806 197.7 213.806 196.2V134.3C213.806 132.8 212.506 131.5 211.006 131.5H107.706C106.206 131.5 104.906 132.8 104.906 134.3V196.2C104.906 197.7 106.106 199 107.706 199Z" fill="#D2D9DC"/>
<path d="M146.103 138.6H122.203V159.9H146.103V138.6Z" fill="#0054A6"/>
<path d="M192.4 143.2H152.7C151.8 143.2 151 142.5 151 141.5C151 140.5 151.7 139.8 152.7 139.8H192.4C193.3 139.8 194.1 140.5 194.1 141.5C194.1 142.5 193.3 143.2 192.4 143.2Z" fill="#0054A6"/>
<path d="M167.1 152.2H151.7C150.8 152.2 150 151.5 150 150.5C150 149.5 150.7 148.8 151.7 148.8H167.1C168 148.8 168.8 149.5 168.8 150.5C168.8 151.5 168 152.2 167.1 152.2Z" fill="#0054A6"/>
<path d="M198.305 152.2H176.005C175.105 152.2 174.305 151.5 174.305 150.5C174.305 149.5 175.005 148.8 176.005 148.8H198.305C199.205 148.8 200.005 149.5 200.005 150.5C200.005 151.5 199.205 152.2 198.305 152.2Z" fill="#0054A6"/>
<path d="M180.102 162.4H161.902C160.102 162.4 158.602 160.9 158.602 159.1C158.602 157.3 160.102 155.8 161.902 155.8H180.102C181.902 155.8 183.402 157.3 183.402 159.1C183.402 160.9 181.902 162.4 180.102 162.4Z" fill="#002548"/>
<path d="M146.103 169.1H122.203V190.4H146.103V169.1Z" fill="#0054A6"/>
<path d="M192.4 173.7H152.7C151.8 173.7 151 173 151 172C151 171 151.7 170.3 152.7 170.3H192.4C193.3 170.3 194.1 171 194.1 172C194.1 173 193.3 173.7 192.4 173.7Z" fill="#0054A6"/>
<path d="M167.1 182.7H151.7C150.8 182.7 150 182 150 181C150 180 150.7 179.3 151.7 179.3H167.1C168 179.3 168.8 180 168.8 181C168.8 182 168 182.7 167.1 182.7Z" fill="#0054A6"/>
<path d="M198.305 182.7H176.005C175.105 182.7 174.305 182 174.305 181C174.305 180 175.005 179.3 176.005 179.3H198.305C199.205 179.3 200.005 180 200.005 181C200.005 182 199.205 182.7 198.305 182.7Z" fill="#0054A6"/>
<path d="M180.102 192.9H161.902C160.102 192.9 158.602 191.4 158.602 189.6C158.602 187.8 160.102 186.3 161.902 186.3H180.102C181.902 186.3 183.402 187.8 183.402 189.6C183.402 191.4 181.902 192.9 180.102 192.9Z" fill="#002548"/>
<path d="M196.403 72.9H122.403C120.903 72.9 119.703 74.1 119.703 75.6V120.1C119.703 121.6 120.903 122.8 122.403 122.8H196.403C197.903 122.8 199.103 121.6 199.103 120.1V75.6C199.103 74.1 197.903 72.9 196.403 72.9Z" fill="#0054A6"/>
<path d="M161.309 100.4H161.209L132.909 92.2C132.709 92.1 132.609 92 132.609 91.7C132.609 91.5 132.709 91.3 132.909 91.2L161.209 82.7C161.309 82.7 161.309 82.7 161.409 82.7L190.609 88.8C190.809 88.8 190.909 89 190.909 89.2C190.909 89.4 190.809 89.6 190.609 89.7L161.409 100.4C161.409 100.4 161.409 100.4 161.309 100.4ZM134.709 91.7L161.309 99.4L188.809 89.4L161.409 83.7L134.709 91.7Z" fill="#F9FAFB"/>
<path d="M157.906 111.8C157.806 111.8 157.806 111.8 157.706 111.7C157.606 111.6 146.006 104.3 140.406 103.1C140.306 103.1 140.206 103 140.106 102.9C140.006 102.8 140.006 102.6 140.106 102.5C140.106 102.3 141.306 97.6999 144.206 94.4999C144.406 94.2999 144.606 94.2999 144.806 94.4999C145.006 94.6999 145.006 94.9999 144.806 95.1999C142.606 97.5999 141.406 101 141.006 102.2C146.506 103.6 156.306 109.7 157.906 110.6C167.706 105 177.506 103.3 179.906 103C178.406 97.9999 176.106 95.0999 176.006 94.9999C175.806 94.7999 175.806 94.4999 176.006 94.2999C176.206 94.0999 176.406 94.0999 176.606 94.2999C176.706 94.3999 179.306 97.5999 180.806 103.2C180.806 103.3 180.806 103.5 180.706 103.6C180.606 103.7 180.506 103.8 180.406 103.8C180.306 103.8 169.106 105.1 158.006 111.5C158.106 111.8 158.006 111.8 157.906 111.8Z" fill="#F9FAFB"/>
<path d="M133.908 104.9C133.708 104.9 133.508 104.7 133.508 104.4V91.8999C133.508 91.5999 133.708 91.3999 133.908 91.3999C134.108 91.3999 134.308 91.5999 134.308 91.8999V104.3C134.308 104.6 134.108 104.9 133.908 104.9Z" fill="#F9FAFB"/>
<path d="M134.008 108.4C132.908 108.4 132.008 107.4 132.008 106.1C132.008 104.9 132.908 103.8 134.008 103.8C135.108 103.8 136.008 104.8 136.008 106.1C136.008 107.4 135.108 108.4 134.008 108.4ZM134.008 104.9C133.408 104.9 132.908 105.5 132.908 106.2C132.908 106.9 133.408 107.5 134.008 107.5C134.608 107.5 135.108 106.9 135.108 106.2C135.208 105.4 134.708 104.9 134.008 104.9Z" fill="#F9FAFB"/>
<path d="M133.606 115.7C132.706 115.7 131.806 115.5 131.106 114.9C131.006 114.8 130.906 114.6 130.906 114.4C130.906 114.4 131.306 111 132.406 107.4C132.506 107.1 132.706 107 132.906 107.1C133.106 107.2 133.206 107.5 133.206 107.7C132.306 110.6 131.906 113.3 131.806 114.2C133.106 115.1 135.206 114.5 135.906 114.2C135.406 110.3 134.506 108 134.506 107.9C134.406 107.7 134.506 107.4 134.706 107.3C134.906 107.2 135.206 107.3 135.306 107.6C135.306 107.7 136.306 110.3 136.806 114.5C136.806 114.7 136.706 114.9 136.506 115C136.506 115.1 135.106 115.7 133.606 115.7Z" fill="#F9FAFB"/>
<path d="M310.206 71H224.506C222.806 71 221.406 72.4 221.406 74.1V196.3C221.406 198 222.806 199.4 224.506 199.4H310.206C311.906 199.4 313.306 198 313.306 196.3V74.1C313.306 72.4 311.906 71 310.206 71Z" fill="#D2D9DC"/>
<path d="M305.005 116.8H228.905C228.505 116.8 228.305 116.5 228.305 116.2V84.5C228.305 84.1 228.605 83.9 228.905 83.9H305.005C305.405 83.9 305.605 84.2 305.605 84.5V116.2C305.705 116.6 305.405 116.8 305.005 116.8ZM229.505 115.5H304.305V85.2H229.505V115.5Z" fill="#0054A6"/>
<path d="M229.402 116.8C229.102 116.8 228.902 116.6 228.802 116.4C228.702 116.1 228.802 115.7 229.202 115.6L304.602 84.5001C304.902 84.4001 305.302 84.5001 305.402 84.9001C305.502 85.2001 305.402 85.6001 305.002 85.7001L229.602 116.8C229.502 116.8 229.402 116.8 229.402 116.8Z" fill="#0054A6"/>
<path d="M304.207 116.2C304.107 116.2 304.007 116.2 304.007 116.2L229.207 85.8C228.907 85.7 228.707 85.3 228.807 85C228.907 84.7 229.307 84.5 229.607 84.6L304.407 115C304.707 115.1 304.907 115.5 304.807 115.8C304.707 116 304.507 116.2 304.207 116.2Z" fill="#0054A6"/>
<path d="M248.206 136.2H235.506C235.106 136.2 234.906 135.9 234.906 135.6V122.9C234.906 122.5 235.206 122.3 235.506 122.3H248.206C248.606 122.3 248.806 122.6 248.806 122.9V135.6C248.906 135.9 248.606 136.2 248.206 136.2ZM236.106 134.9H247.506V123.5H236.106V134.9Z" fill="#002548"/>
<path d="M298.503 136.2H285.803C285.403 136.2 285.203 135.9 285.203 135.6V122.9C285.203 122.5 285.503 122.3 285.803 122.3H298.503C298.903 122.3 299.103 122.6 299.103 122.9V135.6C299.203 135.9 298.903 136.2 298.503 136.2ZM286.403 134.9H297.803V123.5H286.403V134.9Z" fill="#002548"/>
<path d="M273.706 136.2H261.006C260.606 136.2 260.406 135.9 260.406 135.6V122.9C260.406 122.5 260.706 122.3 261.006 122.3H273.706C274.106 122.3 274.306 122.6 274.306 122.9V135.6C274.406 135.9 274.106 136.2 273.706 136.2ZM261.606 134.9H273.006V123.5H261.606V134.9Z" fill="#002548"/>
<path d="M256.303 143.4C247.803 143.4 241.503 138.6 241.403 138.5C241.103 138.3 241.103 137.9 241.303 137.6C241.503 137.3 241.903 137.3 242.203 137.5C242.703 137.9 255.403 147.6 269.103 137.8C269.403 137.6 269.803 137.7 270.003 137.9C270.203 138.2 270.103 138.6 269.903 138.8C265.103 142.3 260.403 143.4 256.303 143.4Z" fill="#ED1C24"/>
<path d="M269.302 141.4H269.202C268.902 141.3 268.602 141 268.702 140.6L269.102 138.7L266.502 138.3C266.102 138.2 265.902 137.9 266.002 137.6C266.102 137.2 266.402 137 266.702 137.1L269.902 137.6C270.102 137.6 270.202 137.7 270.302 137.9C270.402 138 270.402 138.2 270.402 138.4L269.802 141C269.902 141.2 269.602 141.4 269.302 141.4Z" fill="#DD4E81"/>
<path d="M296.206 141.9H274.006C273.606 141.9 273.406 141.6 273.406 141.3C273.406 141 273.706 140.7 274.006 140.7H296.206C296.606 140.7 296.806 141 296.806 141.3C296.806 141.6 296.606 141.9 296.206 141.9Z" fill="#002548"/>
<path d="M291.1 144.6H273.6C273.2 144.6 273 144.3 273 144C273 143.7 273.3 143.4 273.6 143.4H291.1C291.5 143.4 291.7 143.7 291.7 144C291.7 144.3 291.4 144.6 291.1 144.6Z" fill="#002548"/>
<path d="M292.6 147.7H275.6C275.2 147.7 275 147.4 275 147.1C275 146.7 275.3 146.5 275.6 146.5H292.6C293 146.5 293.2 146.8 293.2 147.1C293.2 147.4 292.9 147.7 292.6 147.7Z" fill="#002548"/>
<path d="M254.905 193.1H229.405C229.005 193.1 228.805 192.8 228.805 192.5V147.6C228.805 147.2 229.105 147 229.405 147H254.905C255.305 147 255.505 147.3 255.505 147.6V192.5C255.605 192.8 255.305 193.1 254.905 193.1ZM230.005 191.8H254.205V148.2H230.005V191.8Z" fill="#0054A6"/>
<path d="M229.401 192.7C229.301 192.7 229.201 192.7 229.101 192.6C228.801 192.4 228.701 192 228.901 191.7L254.501 147.1C254.701 146.8 255.101 146.7 255.401 146.9C255.701 147.1 255.801 147.5 255.601 147.8L230.001 192.4C229.801 192.6 229.601 192.7 229.401 192.7Z" fill="#0054A6"/>
<path d="M254.707 192.7C254.507 192.7 254.307 192.6 254.107 192.4L228.807 147.8C228.607 147.5 228.707 147.1 229.007 146.9C229.307 146.7 229.707 146.8 229.907 147.1L255.207 191.7C255.407 192 255.307 192.4 255.007 192.6C254.907 192.7 254.807 192.7 254.707 192.7Z" fill="#0054A6"/>
<path d="M305.203 167.9H260.803C260.403 167.9 260.203 167.6 260.203 167.3V154C260.203 153.6 260.503 153.4 260.803 153.4H305.203C305.603 153.4 305.803 153.7 305.803 154V167.3C305.803 167.6 305.503 167.9 305.203 167.9ZM261.403 166.6H304.503V154.6H261.403V166.6Z" fill="#0054A6"/>
<path d="M271.103 187.9C267.003 187.9 263.703 184.6 263.703 180.5C263.703 176.4 267.003 173.1 271.103 173.1C275.203 173.1 278.503 176.4 278.503 180.5C278.503 184.6 275.203 187.9 271.103 187.9ZM271.103 174.4C267.703 174.4 265.003 177.2 265.003 180.5C265.003 183.9 267.803 186.6 271.103 186.6C274.503 186.6 277.203 183.8 277.203 180.5C277.203 177.1 274.503 174.4 271.103 174.4Z" fill="#002548"/>
<path d="M293.103 187.9C289.003 187.9 285.703 184.6 285.703 180.5C285.703 176.4 289.003 173.1 293.103 173.1C297.203 173.1 300.503 176.4 300.503 180.5C300.503 184.6 297.203 187.9 293.103 187.9ZM293.103 174.4C289.703 174.4 287.003 177.2 287.003 180.5C287.003 183.9 289.803 186.6 293.103 186.6C296.503 186.6 299.203 183.8 299.203 180.5C299.203 177.1 296.403 174.4 293.103 174.4Z" fill="#ED1C24"/>
<path d="M288.207 185.6C288.007 185.6 287.907 185.5 287.807 185.4C287.607 185.2 287.507 184.8 287.807 184.5L296.907 175.3C297.107 175.1 297.507 175.1 297.807 175.3C298.007 175.5 298.107 175.9 297.807 176.2L288.707 185.4C288.507 185.5 288.407 185.6 288.207 185.6Z" fill="#ED1C24"/>
<path d="M298.403 185.5C298.303 185.5 298.103 185.4 298.003 185.3L287.903 176.4C287.603 176.2 287.603 175.8 287.803 175.5C288.003 175.2 288.403 175.2 288.703 175.4L298.803 184.3C299.103 184.5 299.103 184.9 298.903 185.2C298.703 185.5 298.503 185.5 298.403 185.5Z" fill="#ED1C24"/>
<path d="M311.703 69.2H222.803C221.903 69.2 221.203 69.9 221.203 70.8V74.5H313.403V70.8C313.303 69.9 312.603 69.2 311.703 69.2Z" fill="#002548"/>
<path d="M224.705 73.2C225.478 73.2 226.105 72.5732 226.105 71.8C226.105 71.0268 225.478 70.4 224.705 70.4C223.931 70.4 223.305 71.0268 223.305 71.8C223.305 72.5732 223.931 73.2 224.705 73.2Z" fill="#ED1C24"/>
<path d="M229.002 73.2C229.775 73.2 230.402 72.5732 230.402 71.8C230.402 71.0268 229.775 70.4 229.002 70.4C228.228 70.4 227.602 71.0268 227.602 71.8C227.602 72.5732 228.228 73.2 229.002 73.2Z" fill="#FFDD33"/>
<path d="M233.306 73.2C234.079 73.2 234.706 72.5732 234.706 71.8C234.706 71.0268 234.079 70.4 233.306 70.4C232.533 70.4 231.906 71.0268 231.906 71.8C231.906 72.5732 232.533 73.2 233.306 73.2Z" fill="#54CC5A"/>
</svg>
