<svg width="112" height="112" viewBox="0 0 112 112" fill="none" xmlns="http://www.w3.org/2000/svg">
<g clip-path="url(#clip0_5112_6326)">
<path d="M49.3798 111.95H54.6198C55.2298 111.95 55.7298 111.45 55.7298 110.84V104.69H44.3398L48.4298 111.42C48.6298 111.75 48.9898 111.95 49.3798 111.95Z" fill="#002548"/>
<path d="M15.0004 111.95H9.76039C9.15039 111.95 8.65039 111.45 8.65039 110.84V104.69H20.0404L15.9504 111.42C15.7504 111.75 15.3904 111.95 15.0004 111.95Z" fill="#002548"/>
<path d="M65.45 17.73V97.6C65.45 101.5 62.28 104.69 58.36 104.69H7.09C3.17 104.69 0 101.5 0 97.6V17.73C0 13.81 3.17 10.64 7.09 10.64H58.35C62.28 10.63 65.45 13.8 65.45 17.73Z" fill="#002548"/>
<path d="M60.0896 93.39V86.7C60.0896 84.07 57.9596 81.95 55.3396 81.95H10.0996C7.46961 81.95 5.34961 84.08 5.34961 86.7V93.39C5.34961 96.02 7.47961 98.14 10.0996 98.14H55.3296C57.9596 98.14 60.0896 96.01 60.0896 93.39Z" fill="#65B9FF"/>
<path d="M60.0898 30.86V20.24C60.0898 18.55 58.7198 17.17 57.0198 17.17H8.40984C6.71984 17.17 5.33984 18.54 5.33984 20.24V30.85C5.33984 32.54 6.70984 33.92 8.40984 33.92H57.0198C58.7098 33.92 60.0898 32.55 60.0898 30.86Z" fill="#D2D9DC"/>
<path d="M60.0898 52.26V41.65C60.0898 39.96 58.7198 38.58 57.0198 38.58H8.40984C6.71984 38.58 5.33984 39.95 5.33984 41.65V52.26C5.33984 53.95 6.70984 55.33 8.40984 55.33H57.0198C58.7098 55.33 60.0898 53.96 60.0898 52.26Z" fill="#D2D9DC"/>
<path d="M60.0898 73.67V63.06C60.0898 61.37 58.7198 59.99 57.0198 59.99H8.40984C6.71984 59.99 5.33984 61.36 5.33984 63.06V73.67C5.33984 75.36 6.70984 76.74 8.40984 76.74H57.0198C58.7098 76.73 60.0898 75.36 60.0898 73.67Z" fill="#D2D9DC"/>
<path d="M60.0898 95.08V84.46C60.0898 82.77 58.7198 81.39 57.0198 81.39H8.40984C6.71984 81.39 5.33984 82.76 5.33984 84.46V95.07C5.33984 96.76 6.70984 98.14 8.40984 98.14H57.0198C58.7098 98.14 60.0898 96.77 60.0898 95.08Z" fill="#D2D9DC"/>
<path d="M21.14 29.7C20.54 29.7 20.04 29.21 20.04 28.6V22.5C20.04 21.9 20.53 21.4 21.14 21.4C21.74 21.4 22.24 21.89 22.24 22.5V28.61C22.24 29.21 21.75 29.7 21.14 29.7Z" fill="#839299"/>
<path d="M26.1098 29.7C25.5098 29.7 25.0098 29.21 25.0098 28.6V22.5C25.0098 21.9 25.4998 21.4 26.1098 21.4C26.7098 21.4 27.2098 21.89 27.2098 22.5V28.61C27.1998 29.21 26.7098 29.7 26.1098 29.7Z" fill="#839299"/>
<path d="M15.9594 29.7C15.3594 29.7 14.8594 29.21 14.8594 28.6V22.5C14.8594 21.9 15.3494 21.4 15.9594 21.4C16.5594 21.4 17.0594 21.89 17.0594 22.5V28.61C17.0494 29.21 16.5594 29.7 15.9594 29.7Z" fill="#839299"/>
<path d="M10.8998 29.7C10.2998 29.7 9.7998 29.21 9.7998 28.6V22.5C9.7998 21.9 10.2898 21.4 10.8998 21.4C11.4998 21.4 11.9998 21.89 11.9998 22.5V28.61C11.9998 29.21 11.5098 29.7 10.8998 29.7Z" fill="#839299"/>
<path d="M37.5302 28.1701C38.9771 28.1701 40.1502 26.997 40.1502 25.5501C40.1502 24.1031 38.9771 22.9301 37.5302 22.9301C36.0832 22.9301 34.9102 24.1031 34.9102 25.5501C34.9102 26.997 36.0832 28.1701 37.5302 28.1701Z" fill="#FFDD33"/>
<path d="M45.2694 28.1701C46.7164 28.1701 47.8894 26.997 47.8894 25.5501C47.8894 24.1031 46.7164 22.9301 45.2694 22.9301C43.8224 22.9301 42.6494 24.1031 42.6494 25.5501C42.6494 26.997 43.8224 28.1701 45.2694 28.1701Z" fill="#0054A6"/>
<path d="M53.0194 28.1701C54.4664 28.1701 55.6394 26.997 55.6394 25.5501C55.6394 24.1031 54.4664 22.9301 53.0194 22.9301C51.5724 22.9301 50.3994 24.1031 50.3994 25.5501C50.3994 26.997 51.5724 28.1701 53.0194 28.1701Z" fill="#ED1C24"/>
<path d="M21.14 51.1C20.54 51.1 20.04 50.61 20.04 50V43.9001C20.04 43.3001 20.53 42.8 21.14 42.8C21.74 42.8 22.24 43.2901 22.24 43.9001V50.01C22.24 50.61 21.75 51.1 21.14 51.1Z" fill="#839299"/>
<path d="M26.1098 51.1C25.5098 51.1 25.0098 50.61 25.0098 50V43.9001C25.0098 43.3001 25.4998 42.8 26.1098 42.8C26.7098 42.8 27.2098 43.2901 27.2098 43.9001V50.01C27.1998 50.61 26.7098 51.1 26.1098 51.1Z" fill="#839299"/>
<path d="M15.9594 51.1C15.3594 51.1 14.8594 50.61 14.8594 50V43.9001C14.8594 43.3001 15.3494 42.8 15.9594 42.8C16.5594 42.8 17.0594 43.2901 17.0594 43.9001V50.01C17.0494 50.61 16.5594 51.1 15.9594 51.1Z" fill="#839299"/>
<path d="M10.8998 51.1C10.2998 51.1 9.7998 50.61 9.7998 50V43.9001C9.7998 43.3001 10.2898 42.8 10.8998 42.8C11.4998 42.8 11.9998 43.2901 11.9998 43.9001V50.01C11.9998 50.61 11.5098 51.1 10.8998 51.1Z" fill="#839299"/>
<path d="M37.5302 49.5801C38.9771 49.5801 40.1502 48.4071 40.1502 46.9601C40.1502 45.5131 38.9771 44.3401 37.5302 44.3401C36.0832 44.3401 34.9102 45.5131 34.9102 46.9601C34.9102 48.4071 36.0832 49.5801 37.5302 49.5801Z" fill="#FFDD33"/>
<path d="M45.2694 49.5801C46.7164 49.5801 47.8894 48.4071 47.8894 46.9601C47.8894 45.5131 46.7164 44.3401 45.2694 44.3401C43.8224 44.3401 42.6494 45.5131 42.6494 46.9601C42.6494 48.4071 43.8224 49.5801 45.2694 49.5801Z" fill="#0054A6"/>
<path d="M53.0194 49.5801C54.4664 49.5801 55.6394 48.4071 55.6394 46.9601C55.6394 45.5131 54.4664 44.3401 53.0194 44.3401C51.5724 44.3401 50.3994 45.5131 50.3994 46.9601C50.3994 48.4071 51.5724 49.5801 53.0194 49.5801Z" fill="#ED1C24"/>
<path d="M21.14 72.51C20.54 72.51 20.04 72.02 20.04 71.41V65.3C20.04 64.7 20.53 64.2 21.14 64.2C21.74 64.2 22.24 64.69 22.24 65.3V71.41C22.24 72.02 21.75 72.51 21.14 72.51Z" fill="#839299"/>
<path d="M26.1098 72.51C25.5098 72.51 25.0098 72.02 25.0098 71.41V65.3C25.0098 64.7 25.4998 64.2 26.1098 64.2C26.7098 64.2 27.2098 64.69 27.2098 65.3V71.41C27.1998 72.02 26.7098 72.51 26.1098 72.51Z" fill="#839299"/>
<path d="M15.9594 72.51C15.3594 72.51 14.8594 72.02 14.8594 71.41V65.3C14.8594 64.7 15.3494 64.2 15.9594 64.2C16.5594 64.2 17.0594 64.69 17.0594 65.3V71.41C17.0494 72.02 16.5594 72.51 15.9594 72.51Z" fill="#839299"/>
<path d="M10.8998 72.51C10.2998 72.51 9.7998 72.02 9.7998 71.41V65.3C9.7998 64.7 10.2898 64.2 10.8998 64.2C11.4998 64.2 11.9998 64.69 11.9998 65.3V71.41C11.9998 72.02 11.5098 72.51 10.8998 72.51Z" fill="#839299"/>
<path d="M37.5302 70.98C38.9771 70.98 40.1502 69.807 40.1502 68.36C40.1502 66.913 38.9771 65.74 37.5302 65.74C36.0832 65.74 34.9102 66.913 34.9102 68.36C34.9102 69.807 36.0832 70.98 37.5302 70.98Z" fill="#FFDD33"/>
<path d="M45.2694 70.98C46.7164 70.98 47.8894 69.807 47.8894 68.36C47.8894 66.913 46.7164 65.74 45.2694 65.74C43.8224 65.74 42.6494 66.913 42.6494 68.36C42.6494 69.807 43.8224 70.98 45.2694 70.98Z" fill="#0054A6"/>
<path d="M53.0194 70.98C54.4664 70.98 55.6394 69.807 55.6394 68.36C55.6394 66.913 54.4664 65.74 53.0194 65.74C51.5724 65.74 50.3994 66.913 50.3994 68.36C50.3994 69.807 51.5724 70.98 53.0194 70.98Z" fill="#ED1C24"/>
<path d="M21.14 93.92C20.54 93.92 20.04 93.43 20.04 92.82V86.71C20.04 86.11 20.53 85.61 21.14 85.61C21.74 85.61 22.24 86.1 22.24 86.71V92.82C22.24 93.43 21.75 93.92 21.14 93.92Z" fill="#839299"/>
<path d="M26.1098 93.92C25.5098 93.92 25.0098 93.43 25.0098 92.82V86.71C25.0098 86.11 25.4998 85.61 26.1098 85.61C26.7098 85.61 27.2098 86.1 27.2098 86.71V92.82C27.1998 93.43 26.7098 93.92 26.1098 93.92Z" fill="#839299"/>
<path d="M15.9594 93.92C15.3594 93.92 14.8594 93.43 14.8594 92.82V86.71C14.8594 86.11 15.3494 85.61 15.9594 85.61C16.5594 85.61 17.0594 86.1 17.0594 86.71V92.82C17.0494 93.43 16.5594 93.92 15.9594 93.92Z" fill="#839299"/>
<path d="M10.8998 93.92C10.2998 93.92 9.7998 93.43 9.7998 92.82V86.71C9.7998 86.11 10.2898 85.61 10.8998 85.61C11.4998 85.61 11.9998 86.1 11.9998 86.71V92.82C11.9998 93.43 11.5098 93.92 10.8998 93.92Z" fill="#839299"/>
<path d="M37.5302 92.39C38.9771 92.39 40.1502 91.217 40.1502 89.77C40.1502 88.323 38.9771 87.15 37.5302 87.15C36.0832 87.15 34.9102 88.323 34.9102 89.77C34.9102 91.217 36.0832 92.39 37.5302 92.39Z" fill="#FFDD33"/>
<path d="M45.2694 92.39C46.7164 92.39 47.8894 91.217 47.8894 89.77C47.8894 88.323 46.7164 87.15 45.2694 87.15C43.8224 87.15 42.6494 88.323 42.6494 89.77C42.6494 91.217 43.8224 92.39 45.2694 92.39Z" fill="#0054A6"/>
<path d="M53.0194 92.39C54.4664 92.39 55.6394 91.217 55.6394 89.77C55.6394 88.323 54.4664 87.15 53.0194 87.15C51.5724 87.15 50.3994 88.323 50.3994 89.77C50.3994 91.217 51.5724 92.39 53.0194 92.39Z" fill="#ED1C24"/>
<path d="M111.98 20.27C112.31 27.27 109.22 33.57 104.24 37.64C101.02 40.29 96.9896 42 92.5896 42.38C92.2796 42.4 91.9896 42.56 91.7696 42.78C88.3696 46.16 84.3696 46.85 82.3196 46.96C81.8096 46.98 81.5196 46.38 81.8296 45.98C83.0296 44.45 84.3796 41.55 82.5896 40.8C74.9596 37.6 69.5996 30.06 69.5996 21.25C69.5996 9.35 79.4296 -0.269998 91.4396 0.0600017C97.2696 0.220002 102.6 2.86 106.36 6.95C109.64 10.53 111.75 15.18 111.98 20.27Z" fill="#0054A6"/>
<path d="M101.65 29.59C101.65 32.21 99.5198 34.34 96.8998 34.34C94.2698 34.34 92.1398 32.21 92.1398 29.59C92.1398 29.24 92.1798 28.9 92.2498 28.57L84.7098 24.44C83.8498 25.29 82.6598 25.83 81.3498 25.83C78.7198 25.83 76.5898 23.7 76.5898 21.07C76.5898 18.45 78.7198 16.32 81.3498 16.32C82.6698 16.32 83.8498 16.85 84.7098 17.71L92.2098 13.6C92.1598 13.35 92.1398 13.08 92.1398 12.81C92.1398 10.19 94.2698 8.05005 96.8998 8.05005C99.5198 8.05005 101.65 10.19 101.65 12.81C101.65 15.43 99.5198 17.57 96.8998 17.57C95.4898 17.57 94.2398 16.96 93.3498 15.99L85.9698 19.98C86.0598 20.33 86.0998 20.7 86.0998 21.07C86.0998 21.44 86.0598 21.81 85.9698 22.16L93.5198 26.24C94.3798 25.37 95.5798 24.83 96.8998 24.83C99.5198 24.83 101.65 26.96 101.65 29.59Z" fill="#D2D9DC"/>
</g>
<defs>
<clipPath id="clip0_5112_6326">
<rect width="112" height="112" fill="white"/>
</clipPath>
</defs>
</svg>
