<svg width="634" height="618" viewBox="0 0 634 618" fill="none" xmlns="http://www.w3.org/2000/svg">
<path opacity="0.46" d="M197.85 617.639H435.75L435.75 379.739H197.85L197.85 617.639Z" fill="#0054A6"/>
<path opacity="0.46" d="M9.86469 412.601L158.195 598.592L344.186 450.261L195.855 264.271L9.86469 412.601Z" fill="#0054A6"/>
<path opacity="0.46" d="M52.9327 137.74L0 369.668L231.929 422.601L284.861 190.672L52.9327 137.74Z" fill="#0054A6"/>
<path opacity="0.46" d="M294.856 3.324e-05L80.5078 103.225L183.733 317.573L398.081 214.348L294.856 3.324e-05Z" fill="#0054A6"/>
<path opacity="0.46" d="M553.199 103.294L338.852 0.0695801L235.627 214.417L449.975 317.642L553.199 103.294Z" fill="#0054A6"/>
<path d="M344.542 320.409L316.188 292.054L287.833 320.409L316.187 348.764L344.542 320.409Z" fill="#FFD433"/>
<path opacity="0.46" d="M633.507 369.564L580.574 137.635L348.645 190.568L401.578 422.497L633.507 369.564Z" fill="#0054A6"/>
<path opacity="0.46" d="M475.369 598.485L623.699 412.495L437.709 264.164L289.378 450.154L475.369 598.485Z" fill="#0054A6"/>
</svg>
