<svg width="1218" height="940" viewBox="0 0 1218 940" fill="none" xmlns="http://www.w3.org/2000/svg">
<g filter="url(#filter0_d_9529_33892)">
<g clip-path="url(#clip0_9529_33892)">
<g filter="url(#filter1_d_9529_33892)">
<g clip-path="url(#clip1_9529_33892)">
<path d="M20 44C20 30.7452 30.7452 20 44 20H1166C1179.25 20 1190 30.7452 1190 44V912H44C30.7452 912 20 901.255 20 888V44Z" fill="#002548"/>
<g clip-path="url(#clip2_9529_33892)">
<mask id="mask0_9529_33892" style="mask-type:luminance" maskUnits="userSpaceOnUse" x="-195" y="20" width="1600" height="892">
<path d="M1405 20H-195V912H1405V20Z" fill="white"/>
</mask>
<g mask="url(#mask0_9529_33892)">
<g opacity="0.1">
<path d="M1253 125.474C1154.04 125.474 1073.53 44.9592 1073.53 -54.0004C1073.53 -152.96 1154.04 -233.475 1253 -233.475C1351.96 -233.475 1432.47 -152.96 1432.47 -54.0004C1432.47 44.9592 1351.96 125.474 1253 125.474ZM1253 -231.266C1155.25 -231.266 1075.73 -151.747 1075.73 -54.0004C1075.73 43.7463 1155.25 123.265 1253 123.265C1350.75 123.265 1430.27 43.7463 1430.27 -54.0004C1430.27 -151.747 1350.75 -231.266 1253 -231.266Z" stroke="white" stroke-width="2" stroke-miterlimit="10"/>
<path d="M1253 179.562C1124.21 179.562 1019.44 74.7885 1019.44 -54.0012C1019.44 -182.791 1124.21 -287.564 1253 -287.564C1381.79 -287.564 1486.56 -182.791 1486.56 -54.0012C1486.56 74.7885 1381.79 179.562 1253 179.562ZM1253 -285.348C1125.43 -285.348 1021.65 -181.561 1021.65 -54.0012C1021.65 73.5589 1125.43 177.345 1253 177.345C1380.57 177.345 1484.35 73.5672 1484.35 -54.0012C1484.35 -181.57 1380.57 -285.348 1253 -285.348Z" stroke="white" stroke-width="2" stroke-miterlimit="10"/>
<path d="M1253 233.652C1176.17 233.652 1103.93 203.73 1049.6 149.398C995.272 95.0668 965.35 22.8338 965.35 -54.0001C965.35 -130.834 995.272 -203.067 1049.6 -257.399C1103.93 -311.73 1176.17 -341.652 1253 -341.652C1329.84 -341.652 1402.07 -311.73 1456.4 -257.399C1510.73 -203.067 1540.65 -130.834 1540.65 -54.0001C1540.65 22.8338 1510.73 95.0668 1456.4 149.398C1402.07 203.73 1329.84 233.652 1253 233.652ZM1253 -339.436C1176.76 -339.436 1105.08 -309.748 1051.17 -255.834C997.254 -201.921 967.566 -130.24 967.566 -54.0001C967.566 22.2398 997.254 93.9208 1051.17 147.834C1105.08 201.748 1176.76 231.435 1253 231.435C1329.24 231.435 1400.92 201.748 1454.84 147.834C1508.75 93.9208 1538.44 22.2398 1538.44 -54.0001C1538.44 -130.24 1508.75 -201.921 1454.84 -255.834C1400.92 -309.748 1329.24 -339.436 1253 -339.436Z" stroke="white" stroke-width="2" stroke-miterlimit="10"/>
<path d="M1253 287.74C1161.72 287.74 1075.9 252.197 1011.36 187.651C946.81 123.106 911.258 37.2796 911.258 -54.0009C911.258 -145.281 946.801 -231.099 1011.35 -295.645C1075.89 -360.19 1161.72 -395.742 1253 -395.742C1344.28 -395.742 1430.1 -360.199 1494.64 -295.653C1559.19 -231.108 1594.74 -145.281 1594.74 -54.0009C1594.74 37.2796 1559.2 123.098 1494.65 187.643C1430.11 252.189 1344.28 287.74 1253 287.74ZM1253 -393.525C1162.31 -393.525 1077.05 -358.208 1012.92 -294.081C948.792 -229.953 913.475 -144.687 913.475 -54.0009C913.475 36.6857 948.792 121.952 1012.92 186.079C1077.05 250.206 1162.31 285.524 1253 285.524C1343.69 285.524 1428.95 250.206 1493.08 186.079C1557.21 121.952 1592.52 36.6857 1592.52 -54.0009C1592.52 -144.687 1557.21 -229.953 1493.08 -294.081C1428.95 -358.208 1343.69 -393.525 1253 -393.525Z" stroke="white" stroke-width="2" stroke-miterlimit="10"/>
<path d="M1253 341.822C1199.56 341.822 1147.72 331.357 1098.93 310.712C1051.79 290.778 1009.47 262.236 973.11 225.881C936.755 189.543 908.213 147.207 888.279 100.069C867.643 51.2755 857.178 -0.563247 857.178 -53.9998C857.178 -107.436 867.643 -159.275 888.279 -208.069C908.213 -255.207 936.755 -297.534 973.11 -333.889C1009.47 -370.244 1051.79 -398.778 1098.93 -418.72C1147.73 -439.365 1199.57 -449.83 1253 -449.83C1306.43 -449.83 1358.28 -439.365 1407.07 -418.72C1454.21 -398.786 1496.53 -370.244 1532.89 -333.889C1569.24 -297.534 1597.78 -255.207 1617.72 -208.069C1638.37 -159.267 1648.83 -107.428 1648.83 -53.9998C1648.83 -0.571614 1638.36 51.2755 1617.72 100.069C1597.79 147.207 1569.24 189.535 1532.89 225.89C1496.53 262.245 1454.21 290.778 1407.07 310.721C1358.28 331.357 1306.44 341.822 1253 341.822ZM1253 -447.613C1147.86 -447.613 1049.02 -406.674 974.675 -332.325C900.334 -257.975 859.386 -159.141 859.386 -53.9998C859.386 51.1417 900.325 149.984 974.675 224.325C1049.02 298.666 1147.86 339.614 1253 339.614C1358.14 339.614 1456.98 298.675 1531.32 224.325C1605.67 149.984 1646.61 51.1333 1646.61 -53.9998C1646.61 -159.133 1605.67 -257.984 1531.32 -332.325C1456.98 -406.666 1358.14 -447.613 1253 -447.613Z" stroke="white" stroke-width="2" stroke-miterlimit="10"/>
<path d="M1253 395.912C1192.26 395.912 1133.35 384.017 1077.88 360.552C1024.3 337.891 976.181 305.451 934.866 264.136C893.551 222.82 861.111 174.704 838.449 121.125C814.985 65.6558 803.09 6.74013 803.09 -53.9992C803.09 -114.739 814.985 -173.654 838.449 -229.123C861.111 -282.702 893.551 -330.819 934.866 -372.134C976.181 -413.449 1024.3 -445.889 1077.88 -468.551C1133.35 -492.015 1192.26 -503.91 1253 -503.91C1313.74 -503.91 1372.66 -492.015 1428.13 -468.551C1481.7 -445.889 1529.82 -413.449 1571.14 -372.134C1612.45 -330.819 1644.89 -282.702 1667.55 -229.123C1691.02 -173.654 1702.91 -114.739 1702.91 -53.9992C1702.91 6.74013 1691.02 65.6558 1667.55 121.125C1644.89 174.704 1612.45 222.82 1571.14 264.136C1529.82 305.451 1481.7 337.891 1428.13 360.552C1372.66 384.017 1313.74 395.912 1253 395.912ZM1253 -501.702C1192.56 -501.702 1133.93 -489.865 1078.74 -466.518C1025.43 -443.966 977.545 -411.684 936.43 -370.57C895.316 -329.455 863.034 -281.573 840.482 -228.262C817.135 -173.069 805.298 -114.437 805.298 -53.9992C805.298 6.43898 817.135 65.0703 840.482 120.264C863.034 173.575 895.316 221.457 936.43 262.571C977.545 303.686 1025.43 335.967 1078.74 358.52C1133.93 381.867 1192.56 393.703 1253 393.703C1313.44 393.703 1372.07 381.867 1427.26 358.52C1480.57 335.967 1528.46 303.686 1569.57 262.571C1610.69 221.457 1642.97 173.575 1665.52 120.264C1688.87 65.0703 1700.7 6.43898 1700.7 -53.9992C1700.7 -114.437 1688.87 -173.069 1665.52 -228.262C1642.97 -281.573 1610.69 -329.455 1569.57 -370.57C1528.46 -411.684 1480.57 -443.966 1427.26 -466.518C1372.07 -489.865 1313.44 -501.702 1253 -501.702Z" stroke="white" stroke-width="2" stroke-miterlimit="10"/>
<path d="M1253 450C1184.96 450 1118.96 436.674 1056.82 410.391C996.801 385.003 942.904 348.665 896.62 302.38C850.335 256.096 813.989 202.199 788.609 142.179C762.326 80.0431 749 14.0421 749 -54C749 -122.042 762.326 -188.043 788.609 -250.179C813.997 -310.199 850.335 -364.096 896.62 -410.38C942.904 -456.665 996.809 -493.003 1056.82 -518.391C1118.96 -544.674 1184.96 -558 1253 -558C1321.04 -558 1387.04 -544.674 1449.18 -518.391C1509.2 -493.003 1563.1 -456.665 1609.38 -410.38C1655.66 -364.096 1692 -310.191 1717.39 -250.179C1743.67 -188.043 1757 -122.042 1757 -54C1757 14.0421 1743.67 80.0431 1717.39 142.179C1692 202.199 1655.66 256.096 1609.38 302.38C1563.1 348.665 1509.19 385.011 1449.18 410.391C1387.04 436.674 1321.04 450 1253 450ZM1253 -555.783C1185.26 -555.783 1119.54 -542.516 1057.68 -516.35C997.93 -491.079 944.268 -454.9 898.184 -408.816C852.1 -362.732 815.921 -309.07 790.642 -249.318C764.476 -187.458 751.208 -121.741 751.208 -54C751.208 13.741 764.484 79.4575 790.642 141.318C815.913 201.07 852.092 254.732 898.176 300.816C944.259 346.9 997.922 383.079 1057.67 408.35C1119.53 434.516 1185.25 447.783 1252.99 447.783C1320.73 447.783 1386.45 434.516 1448.31 408.35C1508.06 383.079 1561.72 346.9 1607.81 300.816C1653.89 254.732 1690.07 201.07 1715.34 141.318C1741.51 79.4575 1754.77 13.741 1754.77 -54C1754.77 -121.741 1741.51 -187.458 1715.34 -249.318C1690.07 -309.07 1653.89 -362.732 1607.81 -408.816C1561.72 -454.9 1508.06 -491.079 1448.31 -516.35C1386.46 -542.516 1320.74 -555.783 1253 -555.783Z" stroke="white" stroke-width="2" stroke-miterlimit="10"/>
</g>
</g>
<mask id="mask1_9529_33892" style="mask-type:luminance" maskUnits="userSpaceOnUse" x="-195" y="20" width="1600" height="892">
<path d="M1405 20H-195V912H1405V20Z" fill="white"/>
</mask>
<g mask="url(#mask1_9529_33892)">
<g opacity="0.7">
<path d="M510.693 620.879L-99.5469 1231.12" stroke="#0054A6" stroke-width="2" stroke-miterlimit="10"/>
<path d="M452.002 620.879L-158.238 1231.12" stroke="#0054A6" stroke-width="2" stroke-miterlimit="10"/>
<path d="M393.31 620.879L-216.93 1231.12" stroke="#0054A6" stroke-width="2" stroke-miterlimit="10"/>
<path d="M334.623 620.879L-275.617 1231.12" stroke="#0054A6" stroke-width="2" stroke-miterlimit="10"/>
<path d="M275.935 620.879L-334.305 1231.12" stroke="#0054A6" stroke-width="2" stroke-miterlimit="10"/>
<path d="M217.24 620.879L-393 1231.12" stroke="#0054A6" stroke-width="2" stroke-miterlimit="10"/>
<path d="M158.552 620.879L-451.688 1231.12" stroke="#0054A6" stroke-width="2" stroke-miterlimit="10"/>
</g>
</g>
</g>
</g>
</g>
</g>
</g>
<defs>
<filter id="filter0_d_9529_33892" x="0" y="0" width="1218" height="940" filterUnits="userSpaceOnUse" color-interpolation-filters="sRGB">
<feFlood flood-opacity="0" result="BackgroundImageFix"/>
<feColorMatrix in="SourceAlpha" type="matrix" values="0 0 0 0 0 0 0 0 0 0 0 0 0 0 0 0 0 0 127 0" result="hardAlpha"/>
<feOffset dx="4" dy="4"/>
<feGaussianBlur stdDeviation="12"/>
<feComposite in2="hardAlpha" operator="out"/>
<feColorMatrix type="matrix" values="0 0 0 0 0 0 0 0 0 0 0 0 0 0 0 0 0 0 0.16 0"/>
<feBlend mode="normal" in2="BackgroundImageFix" result="effect1_dropShadow_9529_33892"/>
<feBlend mode="normal" in="SourceGraphic" in2="effect1_dropShadow_9529_33892" result="shape"/>
</filter>
<filter id="filter1_d_9529_33892" x="0" y="0" width="1218" height="940" filterUnits="userSpaceOnUse" color-interpolation-filters="sRGB">
<feFlood flood-opacity="0" result="BackgroundImageFix"/>
<feColorMatrix in="SourceAlpha" type="matrix" values="0 0 0 0 0 0 0 0 0 0 0 0 0 0 0 0 0 0 127 0" result="hardAlpha"/>
<feOffset dx="4" dy="4"/>
<feGaussianBlur stdDeviation="12"/>
<feComposite in2="hardAlpha" operator="out"/>
<feColorMatrix type="matrix" values="0 0 0 0 0 0 0 0 0 0 0 0 0 0 0 0 0 0 0.16 0"/>
<feBlend mode="normal" in2="BackgroundImageFix" result="effect1_dropShadow_9529_33892"/>
<feBlend mode="normal" in="SourceGraphic" in2="effect1_dropShadow_9529_33892" result="shape"/>
</filter>
<clipPath id="clip0_9529_33892">
<path d="M20 44C20 30.7452 30.7452 20 44 20H1166C1179.25 20 1190 30.7452 1190 44V912H44C30.7452 912 20 901.255 20 888V44Z" fill="white"/>
</clipPath>
<clipPath id="clip1_9529_33892">
<path d="M20 44C20 30.7452 30.7452 20 44 20H1166C1179.25 20 1190 30.7452 1190 44V912H44C30.7452 912 20 901.255 20 888V44Z" fill="white"/>
</clipPath>
<clipPath id="clip2_9529_33892">
<path d="M20 44C20 30.7452 30.7452 20 44 20H1166C1179.25 20 1190 30.7452 1190 44V912H44C30.7452 912 20 901.255 20 888V44Z" fill="white"/>
</clipPath>
</defs>
</svg>
