<svg width="64" height="64" viewBox="0 0 64 64" fill="none" xmlns="http://www.w3.org/2000/svg">
<path d="M2 30H28V46H2V30Z" fill="#976947"/>
<path d="M34 46V39C34 37.6739 34.5268 36.4021 35.4645 35.4645C36.4021 34.5268 37.6739 34 39 34H55C56.3261 34 57.5979 34.5268 58.5355 35.4645C59.4732 36.4021 60 37.6739 60 39V46H34Z" fill="#D23F34"/>
<path d="M44 8V5C44 4.20435 44.3161 3.44129 44.8787 2.87868C45.4413 2.31607 46.2044 2 47 2C47.7956 2 48.5587 2.31607 49.1213 2.87868C49.6839 3.44129 50 4.20435 50 5V8" fill="#A72B25"/>
<path d="M38 16V15C38 12.6131 38.9482 10.3239 40.636 8.63604C42.3239 6.94821 44.6131 6 47 6C49.3869 6 51.6761 6.94821 53.364 8.63604C55.0518 10.3239 56 12.6131 56 15V16" fill="#D23F34"/>
<path d="M44 16V14.472C44.0002 11.553 44.6747 8.67343 45.971 6.058C46.3126 6.01945 46.6562 6.00009 47 6C47.3438 6.00009 47.6874 6.01945 48.029 6.058C49.3253 8.67343 49.9998 11.553 50 14.472V16H44Z" fill="#F2F2F2"/>
<path d="M35.511 21.96C34.8096 21.8441 34.1722 21.4829 33.7123 20.9408C33.2524 20.3987 33 19.7109 33 19C33 18.2044 33.3161 17.4413 33.8787 16.8787C34.4413 16.3161 35.2044 16 36 16H56C56.5304 16 57.0391 16.2107 57.4142 16.5858C57.7893 16.9609 58 17.4696 58 18V20C58 20.5304 57.7893 21.0391 57.4142 21.4142C57.0391 21.7893 56.5304 22 56 22H36C35.8362 21.9999 35.6727 21.9865 35.511 21.96Z" fill="#C8CDED"/>
<path d="M55 17V16H36C35.2044 16 34.4413 16.3161 33.8787 16.8787C33.3161 17.4413 33 18.2044 33 19H53C53.5304 19 54.0391 18.7893 54.4142 18.4142C54.7893 18.0391 55 17.5304 55 17Z" fill="#E2E7F6"/>
<path d="M57 38V34.422C56.3697 34.1445 55.6887 34.0008 55 34H39C37.6739 34 36.4021 34.5268 35.4645 35.4645C34.5268 36.4021 34 37.6739 34 39V42H53C54.0609 42 55.0783 41.5786 55.8284 40.8284C56.5786 40.0783 57 39.0609 57 38Z" fill="#E24A47"/>
<path d="M46 38H48V46H46V38Z" fill="#A72B25"/>
<path d="M52 31V34C52 35.3261 51.4732 36.5979 50.5355 37.5355C49.5979 38.4732 48.3261 39 47 39C45.6739 39 44.4021 38.4732 43.4645 37.5355C42.5268 36.5979 42 35.3261 42 34V31H52Z" fill="#F2B9A1"/>
<path d="M38 22V25C38 27.3869 38.9482 29.6761 40.636 31.364C42.3239 33.0518 44.6131 34 47 34C49.3869 34 51.6761 33.0518 53.364 31.364C55.0518 29.6761 56 27.3869 56 25V22" fill="#FBE1CA"/>
<path d="M19 20C22.866 20 26 16.866 26 13C26 9.13401 22.866 6 19 6C15.134 6 12 9.13401 12 13C12 16.866 15.134 20 19 20Z" fill="#78A0D4"/>
<path d="M23.9991 11.9998C23.9992 10.8866 23.7332 9.78954 23.2234 8.79996C22.7135 7.81039 21.9746 6.95697 21.0681 6.31082C19.4808 5.82299 17.7718 5.91535 16.2463 6.57139C14.7208 7.22743 13.4782 8.40443 12.7404 9.89215C12.0027 11.3799 11.8179 13.0814 12.219 14.6928C12.6201 16.3042 13.581 17.7206 14.9301 18.6888C15.9776 19.0129 17.0866 19.0864 18.1677 18.9034C19.2488 18.7203 20.2717 18.2859 21.1542 17.635C22.0366 16.9842 22.7538 16.1351 23.2479 15.1563C23.7421 14.1775 23.9994 13.0963 23.9991 11.9998Z" fill="#93BEE5"/>
<path d="M19 25H2V23H19C21.6522 23 24.1957 21.9464 26.0711 20.0711C27.9464 18.1957 29 15.6522 29 13C29 10.3478 27.9464 7.8043 26.0711 5.92893C24.1957 4.05357 21.6522 3 19 3V1C22.1826 1 25.2348 2.26428 27.4853 4.51472C29.7357 6.76515 31 9.8174 31 13C31 16.1826 29.7357 19.2348 27.4853 21.4853C25.2348 23.7357 22.1826 25 19 25Z" fill="#C8CDED"/>
<path d="M23 15H19C18.7348 15 18.4804 14.8946 18.2929 14.7071C18.1054 14.5196 18 14.2652 18 14V9H20V13H23V15Z" fill="#4C6CB5"/>
<path d="M2 19H10V21H2V19Z" fill="#C8CDED"/>
<path d="M32 46H62V62H32V46Z" fill="#976947"/>
<path d="M57 55V46H32V58H54C54.7956 58 55.5587 57.6839 56.1213 57.1213C56.6839 56.5587 57 55.7956 57 55Z" fill="#AA7B5C"/>
<path d="M2 46H28V62H2V46Z" fill="#674025"/>
<path d="M23 55V46H2V58H20C20.7956 58 21.5587 57.6839 22.1213 57.1213C22.6839 56.5587 23 55.7956 23 55Z" fill="#754E34"/>
<path d="M43 46V54H51V46" fill="#F4A93C"/>
<path d="M48 49V46H43V51H46C46.5304 51 47.0391 50.7893 47.4142 50.4142C47.7893 50.0391 48 49.5304 48 49Z" fill="#F6B940"/>
<path d="M12 46V54H18V46" fill="#F4A93C"/>
<path d="M15 50V46H12V51H14C14.2652 51 14.5196 50.8946 14.7071 50.7071C14.8946 50.5196 15 50.2652 15 50Z" fill="#F6B940"/>
<path d="M23 39V30H2V42H20C20.7956 42 21.5587 41.6839 22.1213 41.1213C22.6839 40.5587 23 39.7956 23 39Z" fill="#AA7B5C"/>
<path d="M12 30V38H18V30" fill="#F4A93C"/>
<path d="M15 34V30H12V35H14C14.2652 35 14.5196 34.8946 14.7071 34.7071C14.8946 34.5196 15 34.2652 15 34Z" fill="#F6B940"/>
</svg>
