<svg width="130" height="112" viewBox="0 0 130 112" fill="none" xmlns="http://www.w3.org/2000/svg">
<path d="M65 112C100.899 112 130 110.449 130 108.535C130 106.621 100.899 105.07 65 105.07C29.1015 105.07 0 106.621 0 108.535C0 110.449 29.1015 112 65 112Z" fill="#D2D9DC"/>
<path d="M25.1183 52.6903C24.6997 53.0993 24.1898 53.3054 23.6421 53.4322C23.3997 53.4892 23.151 53.5305 22.9055 53.578H21.6212C21.1963 53.5083 20.7651 53.4512 20.3401 53.3656C18.6341 53.0169 17.1011 52.2592 15.6689 51.2891C12.3324 49.035 9.55925 46.2103 7.32439 42.8498C6.37693 41.4263 5.64037 39.9014 5.29727 38.2053C5.20913 37.7646 5.14933 37.3176 5.08008 36.8738V35.6278C5.17136 35.2252 5.22802 34.8099 5.36652 34.4263C5.49558 34.0649 5.70962 33.7352 5.90163 33.3579C6.00865 33.4498 6.05901 33.4879 6.10623 33.5323C7.86894 35.3045 9.62536 37.0767 11.3912 38.8457C11.4982 38.9535 11.5171 39.0422 11.4762 39.1849C11.2086 40.1423 11.3818 41.0046 12.0396 41.7623C13.5285 43.468 15.1181 45.0753 16.8116 46.5717C17.5607 47.2343 18.42 47.4023 19.3706 47.136C19.484 47.1043 19.5721 47.0853 19.676 47.1899C21.4576 48.9938 23.2455 50.7913 25.0333 52.5921C25.0617 52.6206 25.0837 52.6491 25.1183 52.6903Z" fill="#D2D9DC"/>
<path d="M28.2114 49.5867C27.5913 50.2144 26.9713 50.8358 26.348 51.4603C26.3008 51.5079 26.2473 51.5523 26.2127 51.584C24.4059 49.7674 22.6117 47.9572 20.8018 46.1374C20.9277 46.0233 21.0756 45.8933 21.2173 45.757C21.7492 45.2275 22.2749 44.6918 22.8037 44.1592C23.2633 43.6963 23.7197 43.6963 24.1792 44.1592C25.5233 45.5129 26.8674 46.8666 28.2114 48.2203C28.6616 48.6768 28.6616 49.1333 28.2114 49.5867Z" fill="#D2D9DC"/>
<path d="M14.4789 35.6722C13.7927 36.3475 13.0876 37.0037 12.3951 37.6663C10.6608 35.9227 8.86342 34.1124 7.05664 32.2959C7.08497 32.261 7.12274 32.2166 7.16366 32.1722C7.79635 31.535 8.42274 30.8978 9.05543 30.2637C9.48666 29.8326 9.94938 29.8325 10.3775 30.2605C11.7373 31.6301 13.1002 32.9997 14.4569 34.3692C14.8692 34.7877 14.885 35.2728 14.4789 35.6722Z" fill="#D2D9DC"/>
<path d="M85.045 0H37.7823C35.1446 0 33.001 2.19384 33.001 4.90444V102.895C33.001 105.602 35.1414 107.799 37.7823 107.799H85.045C87.6828 107.799 89.8327 105.599 89.8327 102.895V4.90444C89.8327 2.19384 87.6828 0 85.045 0ZM86.8392 99.8673C86.8392 102.448 84.9223 104.534 82.5552 104.534H40.2753C37.9051 104.534 35.9881 102.448 35.9881 99.8673V8.61685C35.9881 3.36368 37.9051 3.10688 40.2753 3.10688H48.7458C49.2368 3.10688 49.6397 3.6712 49.6397 4.36866V4.66984C49.6397 6.3057 50.5274 6.31205 51.6196 6.31205H71.2078C72.3095 6.31205 73.194 6.3057 73.194 4.66984V4.36866C73.194 3.6712 73.5906 3.10688 74.0911 3.10688H82.5584C84.9223 3.10688 86.8424 3.80435 86.8424 8.61685V99.8673H86.8392Z" fill="#2D2F31"/>
<path d="M86.8394 8.61665V99.8639C86.8394 102.445 84.9224 104.531 82.5553 104.531H40.2754C37.9052 104.531 35.9883 102.445 35.9883 99.8639V8.61665C35.9883 3.36348 37.9052 3.10669 40.2754 3.10669H48.7459C49.2369 3.10669 49.6399 3.671 49.6399 4.36846V4.66964C49.6399 6.30551 50.5275 6.31185 51.6198 6.31185H71.2079C72.3096 6.31185 73.1941 6.30551 73.1941 4.66964V4.36846C73.1941 3.671 73.5907 3.10669 74.0912 3.10669H82.5585C84.9224 3.10669 86.8394 3.80732 86.8394 8.61665Z" fill="white"/>
<path d="M86.8406 8.61665V17.7661H35.9863V8.61665C35.9863 3.36348 37.9033 3.10669 40.2735 3.10669H48.744C49.235 3.10669 49.6379 3.671 49.6379 4.36846V4.66964C49.6379 6.30551 50.5255 6.31185 51.6178 6.31185H71.2059C72.3076 6.31185 73.1921 6.30551 73.1921 4.66964V4.36846C73.1921 3.671 73.5887 3.10669 74.0892 3.10669H82.5565C84.9236 3.10669 86.8406 3.80732 86.8406 8.61665Z" fill="#0054A6"/>
<path d="M84.2301 11.7271H80.1035V12.2089H84.2301V11.7271Z" fill="white"/>
<path d="M84.2301 13.3215H80.1035V13.8034H84.2301V13.3215Z" fill="white"/>
<path d="M84.2301 14.9194H80.1035V15.4013H84.2301V14.9194Z" fill="white"/>
<path d="M81.0485 12.6876C81.4431 12.6876 81.763 12.3654 81.763 11.9679C81.763 11.5705 81.4431 11.2483 81.0485 11.2483C80.6539 11.2483 80.334 11.5705 80.334 11.9679C80.334 12.3654 80.6539 12.6876 81.0485 12.6876Z" fill="white"/>
<path d="M83.8529 13.5627C83.8529 13.959 83.5318 14.2823 83.1384 14.2823C82.7449 14.2823 82.4238 13.959 82.4238 13.5627C82.4238 13.1664 82.7449 12.843 83.1384 12.843C83.5318 12.843 83.8529 13.1664 83.8529 13.5627Z" fill="white"/>
<path d="M81.7057 15.8802C82.1004 15.8802 82.4203 15.558 82.4203 15.1606C82.4203 14.7631 82.1004 14.4409 81.7057 14.4409C81.3111 14.4409 80.9912 14.7631 80.9912 15.1606C80.9912 15.558 81.3111 15.8802 81.7057 15.8802Z" fill="white"/>
<path d="M64.0882 4.27025H58.7465C58.564 4.27025 58.416 4.12125 58.416 3.93737C58.416 3.75349 58.564 3.60449 58.7465 3.60449H64.0882C64.2707 3.60449 64.4187 3.75349 64.4187 3.93737C64.4155 4.12125 64.2676 4.27025 64.0882 4.27025Z" fill="white"/>
<path d="M58.1873 100.374C58.1873 100.986 57.6963 101.481 57.0888 101.481C56.4813 101.481 55.9902 100.986 55.9902 100.374C55.9902 99.7626 56.4813 99.2681 57.0888 99.2681C57.6963 99.2681 58.1873 99.7626 58.1873 100.374Z" fill="#0054A6"/>
<path d="M61.4162 101.088C61.8074 101.088 62.1245 100.768 62.1245 100.374C62.1245 99.9805 61.8074 99.6611 61.4162 99.6611C61.0251 99.6611 60.708 99.9805 60.708 100.374C60.708 100.768 61.0251 101.088 61.4162 101.088Z" fill="#D2D9DC"/>
<path d="M66.4555 100.374C66.4555 100.768 66.1376 101.088 65.7473 101.088C65.357 101.088 65.0391 100.768 65.0391 100.374C65.0391 99.9813 65.357 99.6611 65.7473 99.6611C66.1376 99.6611 66.4555 99.9813 66.4555 100.374Z" fill="#D2D9DC"/>
<path d="M85.32 47.3262H37.5127V59.1514H85.32V47.3262Z" fill="#D2D9DC"/>
<path d="M47.7579 48.6797H38.7051V57.7974H47.7579V48.6797Z" fill="white"/>
<path d="M50.2793 57.2143C50.1125 57.525 49.7096 57.7976 49.7096 57.7976C49.7096 57.7976 49.3067 57.525 49.143 57.2143C48.9541 56.8656 49.058 56.5073 49.3287 56.5073C49.6309 56.5073 49.7096 56.8878 49.7096 56.8878C49.7096 56.8878 49.7883 56.5073 50.0905 56.5073C50.3643 56.5073 50.4713 56.8656 50.2793 57.2143Z" fill="#ED1C24"/>
<path d="M83.9962 56.6753C83.9962 57.2966 83.4988 57.7975 82.8819 57.7975C82.2649 57.7975 81.7676 57.2966 81.7676 56.6753C81.7676 56.0539 82.2681 55.553 82.8819 55.553C83.4957 55.553 83.9962 56.0539 83.9962 56.6753Z" fill="white"/>
<path d="M83.051 57.3159H82.2861L82.3585 56.1936H83.4162L83.4634 56.8245L83.3563 56.834L83.3154 56.3014H82.4593L82.3994 57.2081H83.051V57.3159Z" fill="#0054A6"/>
<path d="M83.1351 56.3013H82.6504V56.1047C82.6504 55.9684 82.7606 55.8606 82.8928 55.8606C83.0281 55.8606 83.1351 55.9716 83.1351 56.1047V56.3013ZM82.7574 56.1935H83.0281V56.1047C83.0281 56.0286 82.9683 55.9684 82.8928 55.9684C82.8172 55.9684 82.7574 56.0286 82.7574 56.1047V56.1935Z" fill="#0054A6"/>
<path d="M83.4603 56.9734H83.3525V57.4141H83.4603V56.9734Z" fill="#0054A6"/>
<path d="M83.6231 57.1414H83.1855V57.2491H83.6231V57.1414Z" fill="#0054A6"/>
<path d="M55.7031 48.7844H49.0488V49.3107H55.7031V48.7844Z" fill="#839299"/>
<path d="M53.081 53.5808H49.0488V54.1071H53.081V53.5808Z" fill="#FFDD33"/>
<path d="M67.5856 50.509H49.0488V51.0353H67.5856V50.509Z" fill="#839299"/>
<path d="M65.4452 51.4126H49.0488V51.9389H65.4452V51.4126Z" fill="#839299"/>
<path d="M45.637 55.9558H40.8242L40.84 55.7561L40.8494 55.6071L40.862 55.4328L40.8714 55.2837L40.884 55.1094L40.8935 54.9604L40.9061 54.786L40.9155 54.637L41.2114 50.522H42.0015C42.0015 51.2004 42.5492 51.752 43.2228 51.752C43.8995 51.752 44.4472 51.2004 44.4472 50.522H45.2373L45.5332 54.637L45.5426 54.786L45.5552 54.9604L45.5647 55.1094L45.5772 55.2837L45.5867 55.4328L45.5993 55.6071L45.6087 55.7561L45.637 55.9558Z" fill="#C8C8C8"/>
<path d="M41.2173 50.522L39.7441 52.3639L41.0064 53.4228L41.2173 50.522Z" fill="#2D2F31"/>
<path d="M45.2432 50.522L46.7163 52.3639L45.4541 53.4228L45.2432 50.522Z" fill="#2D2F31"/>
<path d="M85.32 60.2642H37.5127V72.0893H85.32V60.2642Z" fill="#D2D9DC"/>
<path d="M47.7579 61.6145H38.7051V70.7323H47.7579V61.6145Z" fill="white"/>
<path d="M50.2793 70.1523C50.1125 70.463 49.7096 70.7356 49.7096 70.7356C49.7096 70.7356 49.3067 70.463 49.143 70.1523C48.9541 69.8036 49.058 69.4453 49.3287 69.4453C49.6309 69.4453 49.7096 69.8257 49.7096 69.8257C49.7096 69.8257 49.7883 69.4453 50.0905 69.4453C50.3643 69.4453 50.4713 69.8036 50.2793 70.1523Z" fill="#ED1C24"/>
<path d="M83.9962 69.6101C83.9962 70.2314 83.4988 70.7324 82.8819 70.7324C82.2649 70.7324 81.7676 70.2314 81.7676 69.6101C81.7676 68.9887 82.2681 68.4878 82.8819 68.4878C83.4957 68.4878 83.9962 68.9919 83.9962 69.6101Z" fill="white"/>
<path d="M83.051 70.2536H82.2861L82.3585 69.1313H83.4162L83.4634 69.7622L83.3563 69.7686L83.3154 69.2391H82.4593L82.3994 70.1458H83.051V70.2536Z" fill="#0054A6"/>
<path d="M83.1351 69.239H82.6504V69.0425C82.6504 68.9061 82.7606 68.7983 82.8928 68.7983C83.0281 68.7983 83.1351 68.9093 83.1351 69.0425V69.239ZM82.7574 69.1312H83.0281V69.0425C83.0281 68.9664 82.9683 68.9061 82.8928 68.9061C82.8172 68.9061 82.7574 68.9664 82.7574 69.0425V69.1312Z" fill="#0054A6"/>
<path d="M83.4603 69.9111H83.3525V70.3518H83.4603V69.9111Z" fill="#0054A6"/>
<path d="M83.6231 70.0791H83.1855V70.1869H83.6231V70.0791Z" fill="#0054A6"/>
<path d="M55.7031 61.7224H49.0488V62.2487H55.7031V61.7224Z" fill="#839299"/>
<path d="M53.081 66.519H49.0488V67.0453H53.081V66.519Z" fill="#FFDD33"/>
<path d="M67.5856 63.447H49.0488V63.9733H67.5856V63.447Z" fill="#839299"/>
<path d="M65.4452 64.3503H49.0488V64.8766H65.4452V64.3503Z" fill="#839299"/>
<path d="M45.011 62.439V62.8543H43.2326H41.4541V62.439H45.011Z" fill="#839299"/>
<path d="M44.4941 63.1111H45.0104V63.7008C44.5004 63.6722 44.4941 63.1111 44.4941 63.1111Z" fill="#839299"/>
<path d="M45.011 63.9893V69.9114H43.6355L43.2326 64.4331L42.8296 69.9114H41.4541V63.9893C41.6839 63.948 42.2316 63.7832 42.2316 63.1111H43.0846C43.0846 63.5708 43.072 63.9797 43.2326 63.9797C43.3931 63.9766 43.3805 63.5708 43.3805 63.1111H44.2335C44.2335 63.7832 44.7812 63.948 45.011 63.9893Z" fill="#839299"/>
<path d="M41.4541 63.6976V63.1079H41.9703C41.9703 63.1111 41.9609 63.6722 41.4541 63.6976Z" fill="#839299"/>
<path d="M85.32 73.1987H37.5127V85.0239H85.32V73.1987Z" fill="#D2D9DC"/>
<path d="M47.7579 74.5527H38.7051V83.6705H47.7579V74.5527Z" fill="white"/>
<path d="M50.2793 83.0901C50.1125 83.4007 49.7096 83.6734 49.7096 83.6734C49.7096 83.6734 49.3067 83.4007 49.143 83.0901C48.9541 82.7413 49.058 82.3831 49.3287 82.3831C49.6309 82.3831 49.7096 82.7635 49.7096 82.7635C49.7096 82.7635 49.7883 82.3831 50.0905 82.3831C50.3643 82.3799 50.4713 82.7382 50.2793 83.0901Z" fill="#ED1C24"/>
<path d="M82.8819 83.6701C83.4973 83.6701 83.9962 83.1676 83.9962 82.5478C83.9962 81.928 83.4973 81.4255 82.8819 81.4255C82.2665 81.4255 81.7676 81.928 81.7676 82.5478C81.7676 83.1676 82.2665 83.6701 82.8819 83.6701Z" fill="white"/>
<path d="M83.051 83.1884H82.2861L82.3585 82.0693H83.4162L83.4634 82.7002L83.3563 82.7066L83.3154 82.1771H82.4593L82.3994 83.0807H83.051V83.1884Z" fill="#0054A6"/>
<path d="M83.1351 82.177H82.6504V81.9804C82.6504 81.8441 82.7606 81.7363 82.8928 81.7363C83.0281 81.7363 83.1351 81.8473 83.1351 81.9804V82.177ZM82.7574 82.0692H83.0281V81.9804C83.0281 81.9044 82.9683 81.8441 82.8928 81.8441C82.8172 81.8441 82.7574 81.9044 82.7574 81.9804V82.0692Z" fill="#0054A6"/>
<path d="M83.4603 82.8491H83.3525V83.2898H83.4603V82.8491Z" fill="#0054A6"/>
<path d="M83.6231 83.0139H83.1855V83.1217H83.6231V83.0139Z" fill="#0054A6"/>
<path d="M55.7031 74.657H49.0488V75.1833H55.7031V74.657Z" fill="#839299"/>
<path d="M53.081 79.4539H49.0488V79.9801H53.081V79.4539Z" fill="#FFDD33"/>
<path d="M67.5856 76.3816H49.0488V76.9079H67.5856V76.3816Z" fill="#839299"/>
<path d="M65.4452 77.2852H49.0488V77.8114H65.4452V77.2852Z" fill="#839299"/>
<path d="M46.2399 81.2388C46.0447 81.3022 40.4544 81.3213 40.2435 81.1818C40.1617 81.1311 40.0862 77.8974 40.1711 76.9368L43.7721 76.9685C43.7721 76.9685 43.7973 79.2891 43.8414 79.3113C44.2002 79.4825 45.859 80.2783 46.051 80.4336C46.2682 80.608 46.4351 81.1723 46.2399 81.2388Z" fill="#0054A6"/>
<path d="M46.1612 81.0136C45.2232 80.9851 41.446 80.9534 40.5174 80.9946C40.5111 80.9946 40.5111 81.0009 40.5174 81.0009C41.446 81.0517 45.2264 81.0517 46.1612 81.0295C46.1801 81.0263 46.1801 81.0136 46.1612 81.0136Z" fill="#2D2F31"/>
<path d="M45.6926 80.2274C45.4691 80.2179 45.2519 80.3225 45.1292 80.4525C45.0127 80.5793 44.912 80.76 44.9151 80.9534C44.9151 80.9597 44.9246 80.9597 44.9277 80.9534C44.9844 80.5856 45.318 80.2623 45.6926 80.2369C45.702 80.2369 45.702 80.2274 45.6926 80.2274Z" fill="#2D2F31"/>
<path d="M40.9133 76.9431C41.0203 78.2049 41.0203 79.4698 40.9133 80.7316C40.8063 79.4698 40.8063 78.2049 40.9133 76.9431Z" fill="#1A2E35"/>
<path d="M70.8495 22.8291H51.9854V41.8286H70.8495V22.8291Z" fill="#0054A6"/>
<path d="M65.266 34.702H58.9517C58.8321 34.702 58.7251 34.6259 58.6905 34.5117L56.8868 28.9542H55.4137C55.2626 28.9542 55.1367 28.8306 55.1367 28.6752C55.1367 28.5231 55.2595 28.3962 55.4137 28.3962H57.0851C57.2048 28.3962 57.3118 28.4723 57.3464 28.5865L59.15 34.144H65.266C65.4171 34.144 65.543 34.2676 65.543 34.423C65.543 34.5783 65.4203 34.702 65.266 34.702Z" fill="white"/>
<path d="M64.6543 36.8198C64.1664 36.8198 63.7666 36.4203 63.7666 35.9258C63.7666 35.4344 64.1632 35.0317 64.6543 35.0317C65.1453 35.0317 65.5419 35.4312 65.5419 35.9258C65.5419 36.4203 65.1421 36.8198 64.6543 36.8198ZM64.6543 35.5897C64.4685 35.5897 64.3206 35.7419 64.3206 35.9258C64.3206 36.1128 64.4717 36.2618 64.6543 36.2618C64.84 36.2618 64.9879 36.1096 64.9879 35.9258C64.9879 35.7419 64.84 35.5897 64.6543 35.5897Z" fill="white"/>
<path d="M59.4394 36.8198C58.9515 36.8198 58.5518 36.4203 58.5518 35.9258C58.5518 35.4344 58.9484 35.0317 59.4394 35.0317C59.9273 35.0317 60.3271 35.4312 60.3271 35.9258C60.3239 36.4203 59.9273 36.8198 59.4394 36.8198ZM59.4394 35.5897C59.2537 35.5897 59.1057 35.7419 59.1057 35.9258C59.1057 36.1128 59.2568 36.2618 59.4394 36.2618C59.6251 36.2618 59.7731 36.1096 59.7731 35.9258C59.7731 35.7419 59.622 35.5897 59.4394 35.5897Z" fill="white"/>
<path d="M66.7856 29.3982L65.3785 33.8398H59.4136L58.0098 29.3982L62.6652 29.4014L66.7856 29.3982Z" fill="white"/>
<path d="M70.68 26.5383C72.5436 26.5383 74.0543 25.0167 74.0543 23.1398C74.0543 21.2628 72.5436 19.7412 70.68 19.7412C68.8164 19.7412 67.3057 21.2628 67.3057 23.1398C67.3057 25.0167 68.8164 26.5383 70.68 26.5383Z" fill="#54CC5A"/>
<path d="M70.2948 25.077L68.8438 23.5996L69.3316 23.1146L70.1784 23.9769L71.9379 21.1997L72.514 21.5706L70.2948 25.077Z" fill="white"/>
<path d="M74.898 88.8728H47.9316V95.4194H74.898V88.8728Z" fill="#0054A6"/>
<path d="M51.8757 92.1002H51.5358V92.7058C51.5358 92.7882 51.4665 92.8579 51.3816 92.8579C51.2997 92.8579 51.2305 92.7882 51.2305 92.7058V91.0572C51.2305 90.9716 51.2997 90.9019 51.3816 90.9019H51.3847H51.8789C52.2094 90.9019 52.4738 91.1713 52.4738 91.501C52.4707 91.8308 52.2063 92.1002 51.8757 92.1002ZM51.5358 91.7895H51.8757C52.0363 91.7895 52.1622 91.6596 52.1653 91.5042C52.1622 91.3425 52.0363 91.2125 51.8757 91.2125H51.5358V91.7895Z" fill="white"/>
<path d="M53.6657 91.6118C53.6657 91.691 53.6028 91.7608 53.5178 91.7608C53.4548 91.7608 53.3982 91.7767 53.351 91.8147C53.2975 91.8496 53.2565 91.894 53.2219 91.9479C53.1558 92.0366 53.1212 92.1444 53.1086 92.1824V92.7119C53.1086 92.7943 53.0394 92.8609 52.9575 92.8609C52.8757 92.8609 52.8096 92.7943 52.8096 92.7119V91.6118C52.8096 91.5294 52.8757 91.466 52.9575 91.466C53.0394 91.466 53.1086 91.5294 53.1086 91.6118V91.6308C53.1243 91.6118 53.1464 91.5896 53.1684 91.5738C53.2597 91.5135 53.3793 91.4628 53.5178 91.466C53.5996 91.466 53.6657 91.5294 53.6657 91.6118Z" fill="white"/>
<path d="M54.0846 92.6549C53.965 92.5313 53.8926 92.3601 53.8926 92.1635C53.8926 91.9733 53.965 91.8085 54.0846 91.6753C54.2105 91.5453 54.371 91.4629 54.563 91.4629C54.7456 91.4629 54.9124 91.5453 55.0257 91.6753C55.1517 91.8085 55.2209 91.9733 55.2209 92.1635C55.2209 92.3601 55.1517 92.5313 55.0257 92.6549C54.9124 92.7849 54.7456 92.8673 54.563 92.8673C54.371 92.8673 54.2105 92.7881 54.0846 92.6549ZM54.1979 92.1635C54.1979 92.284 54.2325 92.3823 54.2986 92.4584C54.3679 92.5249 54.4592 92.563 54.5662 92.563C54.6638 92.563 54.7519 92.5281 54.8211 92.4584C54.8904 92.3791 54.9282 92.284 54.9282 92.1635C54.9282 92.0494 54.8904 91.9479 54.8211 91.8719C54.7519 91.8116 54.6638 91.7672 54.5662 91.7672C54.4623 91.7672 54.3679 91.8116 54.2986 91.8719C54.2325 91.9511 54.1979 92.0494 54.1979 92.1635Z" fill="white"/>
<path d="M55.5928 92.1635C55.5928 91.7768 55.9138 91.4661 56.2979 91.4629C56.4647 91.4629 56.6189 91.5231 56.7385 91.6182C56.8015 91.669 56.8141 91.7641 56.77 91.8243C56.7134 91.8909 56.6252 91.9036 56.5623 91.8528C56.4899 91.7989 56.4017 91.7641 56.2979 91.7641C56.0744 91.7641 55.8887 91.9511 55.8887 92.1667C55.8887 92.3823 56.0744 92.5662 56.2979 92.5662C56.3986 92.5662 56.4899 92.5313 56.5623 92.4774C56.6221 92.4298 56.7134 92.4425 56.77 92.5091C56.8141 92.5693 56.8046 92.6613 56.7385 92.7152C56.6189 92.8008 56.4647 92.8642 56.2979 92.8642C55.9138 92.861 55.5928 92.5471 55.5928 92.1635Z" fill="white"/>
<path d="M57.1357 92.1604C57.1389 91.7799 57.4316 91.4629 57.8125 91.4629C58.1745 91.4629 58.4578 91.7324 58.4798 92.1096C58.4798 92.1128 58.4798 92.1191 58.4798 92.1223C58.4798 92.1287 58.4798 92.1413 58.4767 92.1477C58.4672 92.2143 58.4106 92.2586 58.3319 92.2586H57.4505C57.4631 92.322 57.4946 92.395 57.5449 92.4425C57.6016 92.5091 57.7149 92.5598 57.8125 92.5693C57.9132 92.5788 58.0328 92.5535 58.1021 92.4996C58.1619 92.4393 58.2752 92.4457 58.3098 92.4901C58.3445 92.5281 58.3728 92.6137 58.3098 92.6708C58.1745 92.7976 58.0108 92.8547 57.8125 92.8547C57.4316 92.8578 57.1357 92.5408 57.1357 92.1604ZM57.4379 92.024H58.2217C58.1934 91.9131 58.0517 91.7482 57.8125 91.7292C57.5764 91.7419 57.46 91.9099 57.4379 92.024Z" fill="white"/>
<path d="M58.8223 92.1604C58.8254 91.7799 59.1181 91.4629 59.499 91.4629C59.861 91.4629 60.1443 91.7324 60.1663 92.1096C60.1663 92.1128 60.1663 92.1191 60.1663 92.1223C60.1663 92.1287 60.1663 92.1413 60.1632 92.1477C60.1537 92.2143 60.0971 92.2586 60.0184 92.2586H59.137C59.1496 92.322 59.1811 92.395 59.2315 92.4425C59.2881 92.5091 59.4014 92.5598 59.499 92.5693C59.5997 92.5788 59.7194 92.5535 59.7886 92.4996C59.8484 92.4393 59.9617 92.4457 59.9964 92.4901C60.031 92.5281 60.0593 92.6137 59.9964 92.6708C59.861 92.7976 59.6973 92.8547 59.499 92.8547C59.1181 92.8578 58.8223 92.5408 58.8223 92.1604ZM59.1244 92.024H59.9082C59.8799 91.9131 59.7382 91.7482 59.499 91.7292C59.2629 91.7419 59.1465 91.9099 59.1244 92.024Z" fill="white"/>
<path d="M61.8611 92.7089C61.8611 92.7914 61.795 92.8611 61.71 92.8611C61.6345 92.8611 61.5778 92.8072 61.5621 92.7406C61.4582 92.8135 61.3228 92.8611 61.1843 92.8611C60.8098 92.8611 60.5107 92.5441 60.5107 92.1668C60.5107 91.7832 60.8098 91.4662 61.1843 91.4662C61.3197 91.4662 61.4519 91.5105 61.5558 91.5835V91.0572C61.5558 90.9748 61.6219 90.905 61.7069 90.905C61.7887 90.905 61.858 90.9748 61.858 91.0572V92.1636C61.858 92.1636 61.858 92.1636 61.858 92.1668V92.7089H61.8611ZM61.1875 91.7673C61.0868 91.7673 60.9955 91.8086 60.9262 91.8815C60.857 91.9512 60.8161 92.0527 60.8161 92.1636C60.8161 92.2683 60.857 92.3697 60.9262 92.4394C60.9955 92.5124 61.0868 92.5536 61.1875 92.5536C61.2914 92.5536 61.3795 92.5124 61.4488 92.4394C61.518 92.3697 61.5589 92.2683 61.5589 92.1636C61.5589 92.0527 61.518 91.9512 61.4488 91.8815C61.3795 91.8117 61.2914 91.7673 61.1875 91.7673Z" fill="white"/>
<path d="M63.8899 91.6183C63.8899 91.7008 63.8175 91.7705 63.7357 91.7705H63.6664V92.5504C63.7514 92.5504 63.8175 92.6202 63.8175 92.7058C63.8175 92.7913 63.7514 92.8579 63.6664 92.8579C63.4964 92.8579 63.3579 92.7184 63.3579 92.5472V91.7673H63.2792C63.1942 91.7673 63.125 91.6976 63.125 91.6152C63.125 91.5296 63.1911 91.4598 63.2792 91.4598H63.3579V91.054C63.3579 90.9684 63.4272 90.8987 63.5122 90.8987C63.5971 90.8987 63.6633 90.9653 63.6633 91.054V91.4598H63.7325C63.8175 91.463 63.8899 91.5296 63.8899 91.6183Z" fill="white"/>
<path d="M64.4596 92.6549C64.34 92.5313 64.2676 92.3601 64.2676 92.1635C64.2676 91.9733 64.34 91.8085 64.4596 91.6753C64.5855 91.5453 64.746 91.4629 64.938 91.4629C65.1206 91.4629 65.2874 91.5453 65.4007 91.6753C65.5267 91.8085 65.5959 91.9733 65.5959 92.1635C65.5959 92.3601 65.5267 92.5313 65.4007 92.6549C65.2874 92.7849 65.1206 92.8673 64.938 92.8673C64.746 92.8673 64.5823 92.7881 64.4596 92.6549ZM64.5698 92.1635C64.5698 92.284 64.6044 92.3823 64.6705 92.4584C64.7397 92.5249 64.831 92.563 64.938 92.563C65.0356 92.563 65.1237 92.5281 65.193 92.4584C65.2622 92.3791 65.3 92.284 65.3 92.1635C65.3 92.0494 65.2622 91.9479 65.193 91.8719C65.1237 91.8116 65.0356 91.7672 64.938 91.7672C64.8342 91.7672 64.7397 91.8116 64.6705 91.8719C64.6075 91.9511 64.5698 92.0494 64.5698 92.1635Z" fill="white"/>
<path d="M66.8936 93.2353V92.1701C66.8936 92.1701 66.8936 92.1701 66.8936 92.1669V91.6153C66.8936 91.5329 66.9597 91.4663 67.0415 91.4663C67.1202 91.4663 67.1831 91.5202 67.1957 91.5804C67.2996 91.5139 67.4318 91.4663 67.5735 91.4663C67.9417 91.4663 68.2439 91.7833 68.2439 92.1669C68.2439 92.5505 67.9417 92.8581 67.5735 92.8581C67.435 92.8581 67.3027 92.8169 67.202 92.7439V93.2353C67.202 93.3146 67.1328 93.3875 67.0446 93.3875C66.9628 93.3843 66.8936 93.3114 66.8936 93.2353ZM67.1989 92.1638C67.1989 92.2716 67.2335 92.3794 67.3059 92.4428C67.3752 92.522 67.4664 92.5601 67.5703 92.5601C67.6647 92.5601 67.7592 92.522 67.8316 92.4428C67.8945 92.3794 67.9386 92.2716 67.9386 92.1638C67.9386 92.056 67.8945 91.9545 67.8316 91.8816C67.7592 91.8055 67.6647 91.7675 67.5703 91.7675C67.4664 91.7675 67.3752 91.8055 67.3059 91.8816C67.2367 91.9545 67.1989 92.056 67.1989 92.1638Z" fill="white"/>
<path d="M69.8972 92.1638V92.7122C69.8972 92.7947 69.8311 92.8612 69.7493 92.8612C69.6769 92.8612 69.6202 92.8073 69.6045 92.7408C69.5006 92.8169 69.3747 92.8612 69.2362 92.8612C69.0474 92.8612 68.8837 92.782 68.7641 92.6583C68.6444 92.5315 68.5752 92.3572 68.5752 92.1669C68.5752 91.9736 68.6444 91.8024 68.7641 91.6755C68.8837 91.5487 69.0474 91.4663 69.2362 91.4663C69.3747 91.4663 69.5006 91.5139 69.6045 91.59C69.6202 91.5202 69.6769 91.4663 69.7493 91.4663C69.828 91.4663 69.8972 91.5329 69.8972 91.6185V92.1638ZM69.6045 92.1638C69.6045 92.0465 69.5636 91.945 69.4975 91.8753C69.4314 91.7992 69.3369 91.7611 69.2394 91.7611C69.1386 91.7611 69.0442 91.7992 68.9813 91.8753C68.9151 91.945 68.8774 92.0465 68.8774 92.1638C68.8774 92.2779 68.9151 92.3794 68.9813 92.4523C69.0442 92.522 69.1386 92.5601 69.2394 92.5601C69.3369 92.5601 69.4314 92.522 69.4975 92.4523C69.5604 92.3794 69.6045 92.2811 69.6045 92.1638Z" fill="white"/>
<path d="M71.5717 91.6119V92.2713V92.6676C71.5717 93.0417 71.2789 93.3334 70.9075 93.3334C70.8068 93.3334 70.706 93.3048 70.6211 93.2636C70.5424 93.2287 70.5172 93.1431 70.5487 93.0639C70.5833 92.9973 70.6777 92.9656 70.747 93.0036C70.8005 93.029 70.8508 93.0417 70.9075 93.0417C71.0712 93.0385 71.2097 92.9339 71.2537 92.7881C71.175 92.8325 71.0806 92.8546 70.9893 92.8546C70.6714 92.8546 70.4102 92.5883 70.4102 92.2681V91.6087C70.4102 91.5263 70.4794 91.4597 70.555 91.4597C70.6399 91.4597 70.7029 91.5231 70.7029 91.6087V92.2681C70.7029 92.4298 70.8319 92.5535 70.9925 92.5535C71.1499 92.5535 71.2789 92.4298 71.2789 92.2681V91.6087C71.2789 91.5263 71.3387 91.4597 71.4237 91.4597C71.5024 91.4629 71.5717 91.5295 71.5717 91.6119Z" fill="white"/>
<path d="M21.3457 77.0033C21.3457 77.0033 22.29 65.2161 27.4648 65.1242C32.1108 65.0418 29.6116 77.0572 29.6116 77.0572" stroke="#1A2E35" stroke-width="2" stroke-miterlimit="10"/>
<path d="M18.4248 74.2609L38.3119 74.1848L41.2173 108.072L18.1855 109.245L18.4248 74.2609Z" fill="#0054A6"/>
<path d="M18.1858 109.245L11.1602 107.913L15.6645 73.8359L16.9456 74.7839L18.425 74.2608L18.1858 109.245Z" fill="#0054A6"/>
<path opacity="0.19" d="M18.1858 109.245L11.1602 107.913L15.6645 73.8359L16.9456 74.7839L18.425 74.2608L18.1858 109.245Z" fill="#2D2F31"/>
<path opacity="0.19" d="M14.6037 105.003L11.1602 107.913L15.6645 73.8359L16.9456 74.7839L14.6037 105.003Z" fill="#2D2F31"/>
<path d="M33.2126 77.0033C33.2126 77.0033 32.2683 65.2161 27.0935 65.1242C22.4474 65.0418 24.9467 77.0572 24.9467 77.0572" stroke="#1A2E35" stroke-width="2" stroke-miterlimit="10"/>
<path d="M80.8685 35.2759H124.593C126.12 35.2759 127.347 36.5123 127.347 38.0499V43.1065C127.347 44.6441 126.12 45.8805 124.593 45.8805H80.8685C79.3419 45.8805 78.1143 44.6441 78.1143 43.1065V38.0499C78.1174 36.5155 79.345 35.2759 80.8685 35.2759Z" fill="#002548"/>
<path opacity="0.998" d="M88.3232 40.5798C88.3232 42.2981 86.9414 43.6898 85.2354 43.6898C83.5293 43.6898 82.1475 42.2981 82.1475 40.5798C82.1475 38.8615 83.5293 37.4697 85.2354 37.4697C86.9414 37.4697 88.3232 38.8615 88.3232 40.5798Z" fill="white"/>
<path d="M86.3396 42.1268C86.1192 42.2885 85.5023 41.87 85.2284 41.87C84.9546 41.87 84.3376 42.2853 84.1173 42.1236C83.8969 41.9619 84.1015 41.2423 84.0166 40.9791C83.9316 40.716 83.3492 40.2563 83.4342 39.9932C83.5192 39.73 84.2621 39.7047 84.4824 39.543C84.7028 39.3813 84.9609 38.6807 85.2316 38.6807C85.5054 38.6807 85.7572 39.3845 85.9807 39.5462C86.2011 39.7078 86.9439 39.7364 87.0289 39.9995C87.1139 40.2626 86.5284 40.7223 86.4434 40.9823C86.3584 41.2454 86.5599 41.9651 86.3396 42.1268Z" fill="#FFDD33"/>
<path opacity="0.998" d="M96.9102 40.5798C96.9102 42.2981 95.5283 43.6898 93.8223 43.6898C92.1162 43.6898 90.7344 42.2981 90.7344 40.5798C90.7344 38.8615 92.1162 37.4697 93.8223 37.4697C95.5283 37.4697 96.9102 38.8615 96.9102 40.5798Z" fill="white"/>
<path d="M94.9245 42.1268C94.7042 42.2885 94.0872 41.87 93.8134 41.87C93.5395 41.87 92.9226 42.2853 92.7022 42.1236C92.4819 41.9619 92.6865 41.2423 92.6015 40.9791C92.5165 40.716 91.9342 40.2563 92.0192 39.9932C92.1042 39.73 92.847 39.7047 93.0674 39.543C93.2877 39.3813 93.5458 38.6807 93.8165 38.6807C94.0904 38.6807 94.3422 39.3845 94.5657 39.5462C94.786 39.7078 95.5289 39.7364 95.6139 39.9995C95.6989 40.2626 95.1134 40.7223 95.0284 40.9823C94.9434 41.2454 95.148 41.9651 94.9245 42.1268Z" fill="#FFDD33"/>
<path opacity="0.998" d="M106.061 40.5798C106.061 42.2981 104.679 43.6898 102.973 43.6898C101.267 43.6898 99.8848 42.2981 99.8848 40.5798C99.8848 38.8615 101.267 37.4697 102.973 37.4697C104.679 37.4697 106.061 38.8615 106.061 40.5798Z" fill="white"/>
<path d="M104.074 42.1268C103.854 42.2885 103.237 41.87 102.963 41.87C102.689 41.87 102.072 42.2853 101.852 42.1236C101.631 41.9619 101.836 41.2423 101.751 40.9791C101.666 40.716 101.084 40.2563 101.169 39.9932C101.254 39.73 101.996 39.7047 102.217 39.543C102.437 39.3813 102.695 38.6807 102.966 38.6807C103.24 38.6807 103.492 39.3845 103.715 39.5462C103.935 39.7078 104.678 39.7364 104.763 39.9995C104.848 40.2626 104.263 40.7223 104.178 40.9823C104.093 41.2454 104.297 41.9651 104.074 42.1268Z" fill="#FFDD33"/>
<path opacity="0.998" d="M114.483 40.5798C114.483 42.2981 113.102 43.6898 111.396 43.6898C109.689 43.6898 108.308 42.2981 108.308 40.5798C108.308 38.8615 109.689 37.4697 111.396 37.4697C113.102 37.4697 114.483 38.8615 114.483 40.5798Z" fill="white"/>
<path d="M112.497 42.1268C112.276 42.2885 111.659 41.87 111.386 41.87C111.112 41.87 110.495 42.2853 110.275 42.1236C110.054 41.9619 110.259 41.2423 110.174 40.9791C110.089 40.716 109.506 40.2563 109.591 39.9932C109.676 39.73 110.419 39.7047 110.64 39.543C110.86 39.3813 111.118 38.6807 111.389 38.6807C111.663 38.6807 111.914 39.3845 112.138 39.5462C112.358 39.7078 113.101 39.7364 113.186 39.9995C113.271 40.2626 112.686 40.7223 112.601 40.9823C112.516 41.2454 112.72 41.9651 112.497 42.1268Z" fill="#FFDD33"/>
<path opacity="0.998" d="M123.315 40.5798C123.315 42.2981 121.934 43.6898 120.228 43.6898C118.521 43.6898 117.14 42.2981 117.14 40.5798C117.14 38.8615 118.521 37.4697 120.228 37.4697C121.934 37.4697 123.315 38.8615 123.315 40.5798Z" fill="white"/>
<path d="M121.333 42.1268C121.112 42.2885 120.495 41.87 120.222 41.87C119.948 41.87 119.331 42.2853 119.11 42.1236C118.89 41.9619 119.095 41.2423 119.01 40.9791C118.925 40.716 118.342 40.2563 118.427 39.9932C118.512 39.73 119.255 39.7047 119.476 39.543C119.696 39.3813 119.954 38.6807 120.225 38.6807C120.499 38.6807 120.75 39.3845 120.974 39.5462C121.194 39.7078 121.937 39.7364 122.022 39.9995C122.107 40.2626 121.522 40.7223 121.437 40.9823C121.348 41.2454 121.553 41.9651 121.333 42.1268Z" fill="#FFDD33"/>
<path d="M5.79668 5.38599H23.8267C25.5674 5.38599 26.9681 6.79677 26.9681 8.54994V23.0382C26.9681 24.7913 25.5674 26.2021 23.8267 26.2021H5.79668C4.05601 26.2021 2.65528 24.7913 2.65528 23.0382V8.54994C2.65213 6.79677 4.05601 5.38599 5.79668 5.38599Z" fill="#002548"/>
<path d="M15.4521 16.0474V21.4075C15.4521 21.8681 15.0876 22.2352 14.6303 22.2352H13.9146C13.4573 22.2352 13.0928 21.8681 13.0928 21.4075V16.0474C13.0928 15.5868 13.4573 15.2197 13.9146 15.2197H14.6303C15.0876 15.2197 15.4521 15.5935 15.4521 16.0474Z" fill="#FFDD33"/>
<path d="M9.75306 9.8999C7.9305 9.91325 6.46582 11.4085 6.46582 13.2374C6.46582 15.0797 7.95037 16.5749 9.77955 16.5749C11.6087 16.5749 13.0933 15.0797 13.0933 13.2374C13.0933 11.3951 11.6087 9.8999 9.77955 9.8999C9.77292 9.8999 9.76631 9.8999 9.75306 9.8999ZM9.78619 11.0346C10.999 11.0346 11.9799 12.0226 11.9799 13.2441C11.9799 14.4656 10.999 15.4535 9.78619 15.4535C8.57336 15.4535 7.5925 14.4656 7.5925 13.2441C7.5925 12.0226 8.57336 11.0346 9.78619 11.0346Z" fill="#FFDD33"/>
<path d="M18.7462 9.8999C16.9237 9.91325 15.459 11.4085 15.459 13.2374C15.459 15.0797 16.9435 16.5749 18.7727 16.5749C20.6019 16.5749 22.0864 15.0797 22.0864 13.2374C22.0864 11.3951 20.6019 9.8999 18.7727 9.8999C18.7661 9.8999 18.7595 9.8999 18.7462 9.8999ZM18.7794 11.0346C19.9922 11.0346 20.973 12.0226 20.973 13.2441C20.973 14.4656 19.9922 15.4535 18.7794 15.4535C17.5665 15.4535 16.5857 14.4656 16.5857 13.2441C16.5857 12.0226 17.5665 11.0346 18.7794 11.0346Z" fill="#FFDD33"/>
<path d="M11.2777 8.09082H17.2755C18.0443 8.09082 18.6607 8.71166 18.6607 9.48596V15.4134C18.6607 20.5465 9.89258 20.66 9.89258 15.4134V9.48596C9.89258 8.71166 10.5089 8.09082 11.2777 8.09082Z" fill="#FFDD33"/>
<path d="M11.6158 20.8267H16.9377C17.395 20.8267 17.7595 21.1938 17.7595 21.6544V22.3752C17.7595 22.8358 17.395 23.2029 16.9377 23.2029H11.6158C11.1585 23.2029 10.794 22.8358 10.794 22.3752V21.6544C10.7874 21.1938 11.1585 20.8267 11.6158 20.8267Z" fill="#FFDD33"/>
<path d="M85.1129 55.5369H121.302C122.728 55.5369 123.877 56.694 123.877 58.1302V70.3294C123.877 71.7656 122.728 72.9227 121.302 72.9227H85.1129C83.687 72.9227 82.5381 71.7656 82.5381 70.3294V58.1302C82.5381 56.694 83.687 55.5369 85.1129 55.5369Z" fill="#839299"/>
<path d="M89.0221 52.1702H103.791C105.217 52.1702 106.366 53.3273 106.366 54.7635V66.633C106.366 68.0692 105.217 69.2263 103.791 69.2263H89.0221C87.5962 69.2263 86.4473 68.0692 86.4473 66.633V54.7635C86.4504 53.3242 87.5962 52.1702 89.0221 52.1702Z" fill="#D2D9DC"/>
<path d="M109.252 66.8264H110.017C110.328 66.8264 110.58 67.08 110.58 67.3939C110.58 67.7078 110.328 67.9614 110.017 67.9614H109.252C108.94 67.9614 108.688 67.7078 108.688 67.3939C108.692 67.08 108.94 66.8264 109.252 66.8264Z" fill="#FFDD33"/>
<path d="M112.176 66.8264H119.39C119.702 66.8264 119.954 67.08 119.954 67.3939C119.954 67.7078 119.702 67.9614 119.39 67.9614H112.176C111.864 67.9614 111.612 67.7078 111.612 67.3939C111.612 67.08 111.864 66.8264 112.176 66.8264Z" fill="#D2D9DC"/>
<path d="M91.0534 59.5981C90.4302 59.5981 89.9297 60.1022 89.9297 60.7299V64.3504C89.9297 64.9781 90.4302 65.4822 91.0534 65.4822H94.157V59.595H91.0534V59.5981Z" fill="#0054A6"/>
<path d="M94.1562 65.4853H99.564C102.218 65.4853 103.303 59.9848 102.082 59.6678C101.409 59.4935 98.5662 58.8974 98.5662 58.8974C98.5662 58.8974 100.08 56.0315 97.8107 56.0315C97.4425 56.0315 94.1594 59.5981 94.1594 59.5981V65.4853H94.1562Z" fill="#FFBD86"/>
<path opacity="0.998" d="M92.229 63.802C92.229 64.1444 91.952 64.4234 91.6121 64.4234C91.2721 64.4234 90.9951 64.1444 90.9951 63.802C90.9951 63.4597 91.2721 63.1807 91.6121 63.1807C91.952 63.1838 92.229 63.4597 92.229 63.802Z" fill="white"/>
<path opacity="0.998" d="M111.276 59.0626C111.276 59.8394 110.649 60.4702 109.878 60.4702C109.107 60.4702 108.48 59.8394 108.48 59.0626C108.48 58.2859 109.107 57.655 109.878 57.655C110.649 57.655 111.276 58.2859 111.276 59.0626Z" fill="white"/>
<path opacity="0.998" d="M114.749 59.0626C114.749 59.8394 114.123 60.4702 113.352 60.4702C112.58 60.4702 111.954 59.8394 111.954 59.0626C111.954 58.2859 112.58 57.655 113.352 57.655C114.123 57.655 114.749 58.2859 114.749 59.0626Z" fill="white"/>
<path opacity="0.998" d="M118.346 59.0626C118.346 59.8394 117.72 60.4702 116.948 60.4702C116.177 60.4702 115.551 59.8394 115.551 59.0626C115.551 58.2859 116.177 57.655 116.948 57.655C117.72 57.655 118.346 58.2859 118.346 59.0626Z" fill="white"/>
<path opacity="0.998" d="M121.819 59.0626C121.819 59.8394 121.192 60.4702 120.421 60.4702C119.65 60.4702 119.023 59.8394 119.023 59.0626C119.023 58.2859 119.65 57.655 120.421 57.655C121.192 57.655 121.819 58.2859 121.819 59.0626Z" fill="white"/>
<path d="M109.252 62.8257H110.017C110.328 62.8257 110.58 63.0793 110.58 63.3932C110.58 63.707 110.328 63.9606 110.017 63.9606H109.252C108.94 63.9606 108.688 63.707 108.688 63.3932C108.692 63.0761 108.94 62.8257 109.252 62.8257Z" fill="#FFDD33"/>
<path d="M112.176 62.8257H119.39C119.702 62.8257 119.954 63.0793 119.954 63.3932C119.954 63.707 119.702 63.9606 119.39 63.9606H112.176C111.864 63.9606 111.612 63.707 111.612 63.3932C111.612 63.0761 111.864 62.8257 112.176 62.8257Z" fill="#D2D9DC"/>
<path d="M110.588 59.1384C110.38 59.522 109.879 59.8612 109.879 59.8612C109.879 59.8612 109.379 59.522 109.171 59.1384C108.935 58.7041 109.064 58.2571 109.404 58.2571C109.782 58.2571 109.879 58.7295 109.879 58.7295C109.879 58.7295 109.977 58.2571 110.355 58.2571C110.691 58.2603 110.824 58.7041 110.588 59.1384Z" fill="#ED1C24"/>
<path d="M114.059 59.1384C113.851 59.522 113.351 59.8612 113.351 59.8612C113.351 59.8612 112.851 59.522 112.643 59.1384C112.407 58.7041 112.536 58.2571 112.876 58.2571C113.253 58.2571 113.351 58.7295 113.351 58.7295C113.351 58.7295 113.449 58.2571 113.826 58.2571C114.163 58.2603 114.295 58.7041 114.059 59.1384Z" fill="#ED1C24"/>
<path d="M117.657 59.1384C117.449 59.522 116.949 59.8612 116.949 59.8612C116.949 59.8612 116.448 59.522 116.24 59.1384C116.004 58.7041 116.133 58.2571 116.473 58.2571C116.851 58.2571 116.949 58.7295 116.949 58.7295C116.949 58.7295 117.046 58.2571 117.424 58.2571C117.761 58.2603 117.893 58.7041 117.657 59.1384Z" fill="#ED1C24"/>
<path d="M121.13 59.1384C120.922 59.522 120.421 59.8612 120.421 59.8612C120.421 59.8612 119.921 59.522 119.713 59.1384C119.477 58.7041 119.606 58.2571 119.946 58.2571C120.324 58.2571 120.421 58.7295 120.421 58.7295C120.421 58.7295 120.519 58.2571 120.897 58.2571C121.233 58.2603 121.366 58.7041 121.13 59.1384Z" fill="#ED1C24"/>
</svg>
