<svg width="573" height="460" viewBox="0 0 573 460" fill="none" xmlns="http://www.w3.org/2000/svg">
<path d="M286.5 410C389.849 410 473.63 405.563 473.63 400.09C473.63 394.617 389.849 390.18 286.5 390.18C183.151 390.18 99.3701 394.617 99.3701 400.09C99.3701 405.563 183.151 410 286.5 410Z" fill="#D2D9DC"/>
<path d="M193.58 282.9C192.38 284.07 190.91 284.66 189.33 285.02C188.63 285.18 187.92 285.3 187.21 285.43H183.52C182.29 285.23 181.05 285.07 179.84 284.82C174.93 283.82 170.52 281.66 166.39 278.89C156.78 272.45 148.8 264.37 142.37 254.77C139.64 250.7 137.52 246.34 136.53 241.49C136.27 240.23 136.11 238.95 135.9 237.68V234.12C136.16 232.97 136.33 231.78 136.72 230.68C137.09 229.65 137.71 228.7 138.26 227.63C138.57 227.89 138.72 228 138.85 228.13C143.92 233.19 148.99 238.26 154.07 243.32C154.38 243.63 154.43 243.88 154.32 244.29C153.55 247.03 154.04 249.5 155.94 251.66C160.23 256.53 164.8 261.13 169.68 265.41C171.84 267.3 174.31 267.79 177.05 267.02C177.38 266.93 177.63 266.88 177.93 267.18C183.06 272.34 188.21 277.48 193.36 282.63C193.42 282.7 193.48 282.78 193.58 282.9Z" fill="#D2D9DC"/>
<path d="M202.49 274.03C200.71 275.82 198.92 277.6 197.13 279.39C196.99 279.53 196.84 279.65 196.74 279.74C191.54 274.55 186.37 269.38 181.16 264.17C181.52 263.84 181.95 263.48 182.35 263.08C183.88 261.56 185.39 260.03 186.92 258.51C188.25 257.19 189.56 257.19 190.88 258.51C194.75 262.38 198.62 266.24 202.49 270.12C203.79 271.42 203.78 272.73 202.49 274.03Z" fill="#D2D9DC"/>
<path d="M162.95 234.25C160.97 236.18 158.94 238.06 156.95 239.95C151.96 234.96 146.78 229.79 141.58 224.6C141.66 224.5 141.77 224.37 141.89 224.25C143.71 222.43 145.52 220.61 147.34 218.79C148.58 217.56 149.91 217.55 151.15 218.78C155.07 222.69 158.98 226.61 162.89 230.53C164.07 231.72 164.12 233.11 162.95 234.25Z" fill="#D2D9DC"/>
<path d="M438.92 194.1L443.35 186.96L441.16 185.6C440.52 185.2 440.17 184.47 440.23 183.72C440.27 183.3 440.28 182.88 440.27 182.46C440.25 181.71 440.65 181 441.31 180.65L443.58 179.43L439.61 172.02L437.34 173.24C436.67 173.6 435.87 173.54 435.25 173.11C434.9 172.87 434.55 172.65 434.18 172.45C433.52 172.09 433.1 171.39 433.13 170.64L433.21 168.07L424.81 167.81L424.73 170.39C424.71 171.15 424.24 171.81 423.56 172.13C423.37 172.22 423.19 172.31 423.01 172.41C422.83 172.51 422.65 172.61 422.47 172.72C421.82 173.11 421.02 173.13 420.38 172.74L418.18 171.38L413.75 178.52L415.94 179.88C416.58 180.28 416.93 181.01 416.87 181.76C416.83 182.18 416.82 182.59 416.83 183.01C416.85 183.76 416.45 184.47 415.79 184.82L413.52 186.04L417.49 193.45L419.76 192.23C420.42 191.87 421.23 191.93 421.85 192.36C422.19 192.6 422.55 192.82 422.92 193.02C423.58 193.38 424 194.08 423.98 194.83L423.9 197.41L432.3 197.67L432.38 195.09C432.4 194.34 432.87 193.68 433.55 193.36C433.74 193.27 433.92 193.18 434.11 193.08C434.29 192.98 434.47 192.88 434.65 192.77C435.3 192.38 436.1 192.36 436.75 192.76L438.92 194.1ZM431.81 188.8C428.46 190.6 424.29 189.34 422.49 185.99C420.69 182.64 421.95 178.46 425.3 176.67C428.65 174.87 432.83 176.13 434.63 179.48C436.43 182.83 435.16 187 431.81 188.8Z" fill="#839299"/>
<path d="M141.68 282.8L138.74 277.7L137.18 278.6C136.72 278.87 136.16 278.84 135.71 278.55C135.46 278.39 135.21 278.24 134.95 278.11C134.48 277.87 134.18 277.39 134.18 276.87V275.07H128.29V276.87C128.29 277.4 127.99 277.87 127.52 278.11C127.26 278.24 127 278.39 126.76 278.55C126.32 278.84 125.75 278.87 125.29 278.6L123.73 277.7L120.79 282.8L122.36 283.7C122.82 283.96 123.07 284.47 123.05 285C123.04 285.14 123.04 285.29 123.04 285.43C123.04 285.58 123.04 285.72 123.05 285.86C123.08 286.39 122.83 286.89 122.37 287.15L120.8 288.06L123.74 293.16L125.31 292.26C125.77 292 126.33 292.02 126.78 292.31C127.02 292.47 127.28 292.62 127.54 292.75C128.01 292.99 128.31 293.47 128.31 293.99V295.79H134.2V294C134.2 293.47 134.5 293 134.97 292.76C135.23 292.63 135.48 292.48 135.73 292.32C136.17 292.03 136.74 292 137.2 292.27L138.77 293.17L141.71 288.07L140.14 287.17C139.68 286.91 139.43 286.4 139.46 285.87C139.47 285.73 139.47 285.58 139.47 285.43C139.47 285.28 139.47 285.14 139.46 285C139.43 284.47 139.69 283.97 140.15 283.7L141.68 282.8ZM136.05 285.44C136.05 288.1 133.89 290.26 131.23 290.26C128.57 290.26 126.4 288.1 126.4 285.44C126.4 282.78 128.56 280.61 131.23 280.61C133.9 280.61 136.05 282.77 136.05 285.44Z" fill="#839299"/>
<path d="M359.09 55.29C346.42 55.29 336.16 65.55 336.16 78.22C336.16 90.88 346.42 101.15 359.09 101.15C371.75 101.15 382.02 90.88 382.02 78.22C382.02 65.56 371.75 55.29 359.09 55.29ZM359.09 88.93C353.17 88.93 348.38 84.14 348.38 78.22C348.38 72.3 353.18 67.51 359.09 67.51C365.01 67.51 369.8 72.31 369.8 78.22C369.8 84.14 365 88.93 359.09 88.93Z" fill="#839299"/>
<path d="M363.5 56.24H354.68L355.16 50H363.01L363.5 56.24Z" fill="#839299"/>
<path d="M346.71 59.2096L340.47 65.4496L336.4 60.6896L341.95 55.1396L346.71 59.2096Z" fill="#839299"/>
<path d="M336.94 73.1797V81.9997L330.7 81.5197V73.6697L336.94 73.1797Z" fill="#839299"/>
<path d="M339.91 89.9697L346.15 96.2097L341.39 100.28L335.84 94.7297L339.91 89.9697Z" fill="#839299"/>
<path d="M353.88 99.7402H362.7L362.21 105.98H354.37L353.88 99.7402Z" fill="#839299"/>
<path d="M370.67 96.7703L376.91 90.5303L380.97 95.2903L375.43 100.84L370.67 96.7703Z" fill="#839299"/>
<path d="M380.44 82.8005V73.9805L386.68 74.4705V82.3105L380.44 82.8005Z" fill="#839299"/>
<path d="M377.47 66.01L371.23 59.77L375.99 55.71L381.54 61.25L377.47 66.01Z" fill="#839299"/>
<path d="M350.21 89.8496H214.14C206.54 89.8496 200.38 96.1196 200.38 103.87V383.98C200.38 391.71 206.55 398 214.14 398H350.21C357.81 398 363.99 391.71 363.99 383.98V103.87C363.99 96.1196 357.81 89.8496 350.21 89.8496ZM355.38 375.31C355.38 382.68 349.86 388.65 343.05 388.65H221.32C214.49 388.65 208.97 382.69 208.97 375.31V114.48C208.97 99.4596 214.49 98.7296 221.32 98.7296H245.71C247.13 98.7296 248.29 100.34 248.29 102.34V103.2C248.29 107.88 250.85 107.89 253.99 107.89H310.38C313.55 107.89 316.09 107.87 316.09 103.2V102.34C316.09 100.34 317.23 98.7296 318.67 98.7296H343.05C349.86 98.7296 355.38 100.73 355.38 114.48V375.31Z" fill="#2D2F31"/>
<path d="M355.38 114.48V375.31C355.38 382.68 349.86 388.65 343.05 388.65H221.32C214.49 388.65 208.97 382.69 208.97 375.31V114.48C208.97 99.4605 214.49 98.7305 221.32 98.7305H245.71C247.13 98.7305 248.29 100.34 248.29 102.34V103.2C248.29 107.88 250.85 107.89 253.99 107.89H310.38C313.55 107.89 316.09 107.87 316.09 103.2V102.34C316.09 100.34 317.23 98.7305 318.67 98.7305H343.05C349.85 98.7305 355.38 100.73 355.38 114.48Z" fill="white"/>
<path d="M355.38 114.48V140.63H208.97V114.48C208.97 99.4605 214.49 98.7305 221.32 98.7305H245.71C247.13 98.7305 248.29 100.34 248.29 102.34V103.2C248.29 107.88 250.85 107.89 253.99 107.89H310.38C313.55 107.89 316.09 107.87 316.09 103.2V102.34C316.09 100.34 317.23 98.7305 318.67 98.7305H343.05C349.85 98.7305 355.38 100.73 355.38 114.48Z" fill="#0054A6"/>
<path d="M345.22 128.63H338.61V129.4H345.22V128.63Z" fill="white"/>
<path d="M345.22 131.17H338.61V131.94H345.22V131.17Z" fill="white"/>
<path d="M345.22 133.71H338.61V134.48H345.22V133.71Z" fill="white"/>
<path d="M340.13 130.17C340.766 130.17 341.28 129.655 341.28 129.02C341.28 128.385 340.766 127.87 340.13 127.87C339.495 127.87 338.98 128.385 338.98 129.02C338.98 129.655 339.495 130.17 340.13 130.17Z" fill="white"/>
<path d="M344.62 131.56C344.62 132.19 344.11 132.71 343.47 132.71C342.84 132.71 342.32 132.2 342.32 131.56C342.32 130.93 342.83 130.41 343.47 130.41C344.11 130.41 344.62 130.92 344.62 131.56Z" fill="white"/>
<path d="M341.18 135.24C341.815 135.24 342.33 134.726 342.33 134.09C342.33 133.455 341.815 132.94 341.18 132.94C340.545 132.94 340.03 133.455 340.03 134.09C340.03 134.726 340.545 135.24 341.18 135.24Z" fill="white"/>
<path d="M289.87 102.05H274.49C273.97 102.05 273.54 101.62 273.54 101.1C273.54 100.58 273.97 100.15 274.49 100.15H289.87C290.39 100.15 290.82 100.58 290.82 101.1C290.82 101.63 290.39 102.05 289.87 102.05Z" fill="white"/>
<path d="M272.88 376.77C272.88 378.52 271.46 379.93 269.72 379.93C267.98 379.93 266.56 378.51 266.56 376.77C266.56 375.03 267.98 373.61 269.72 373.61C271.46 373.61 272.88 375.02 272.88 376.77Z" fill="#0054A6"/>
<path d="M282.18 378.81C283.307 378.81 284.22 377.897 284.22 376.77C284.22 375.644 283.307 374.73 282.18 374.73C281.053 374.73 280.14 375.644 280.14 376.77C280.14 377.897 281.053 378.81 282.18 378.81Z" fill="#D2D9DC"/>
<path d="M296.68 376.77C296.68 377.9 295.77 378.81 294.64 378.81C293.51 378.81 292.6 377.9 292.6 376.77C292.6 375.64 293.51 374.73 294.64 374.73C295.77 374.73 296.68 375.64 296.68 376.77Z" fill="#D2D9DC"/>
<path d="M341.14 232.84H223.21V261.8H341.14V232.84Z" fill="#D2D9DC"/>
<path d="M248.48 236.16H226.15V258.49H248.48V236.16Z" fill="white"/>
<path d="M254.71 257.06C254.3 257.82 253.31 258.49 253.31 258.49C253.31 258.49 252.32 257.82 251.91 257.06C251.44 256.2 251.7 255.33 252.37 255.33C253.12 255.33 253.31 256.26 253.31 256.26C253.31 256.26 253.51 255.33 254.25 255.33C254.92 255.33 255.18 256.21 254.71 257.06Z" fill="#ED1C24"/>
<path d="M337.88 255.74C337.88 257.26 336.65 258.49 335.13 258.49C333.61 258.49 332.38 257.26 332.38 255.74C332.38 254.22 333.61 252.99 335.13 252.99C336.65 252.99 337.88 254.22 337.88 255.74Z" fill="white"/>
<path d="M335.55 257.31H333.66L333.84 254.57H336.44L336.56 256.11L336.3 256.13L336.2 254.83H334.08L333.94 257.05H335.55V257.31Z" fill="#0054A6"/>
<path d="M335.75 254.83H334.55V254.35C334.55 254.02 334.82 253.75 335.15 253.75C335.48 253.75 335.75 254.02 335.75 254.35V254.83ZM334.82 254.57H335.49V254.35C335.49 254.17 335.34 254.01 335.15 254.01C334.97 254.01 334.82 254.16 334.82 254.35V254.57Z" fill="#0054A6"/>
<path d="M336.551 256.48H336.291V257.56H336.551V256.48Z" fill="#0054A6"/>
<path d="M336.96 256.881H335.88V257.141H336.96V256.881Z" fill="#0054A6"/>
<path d="M268.09 236.42H251.67V237.71H268.09V236.42Z" fill="#839299"/>
<path d="M261.62 248.16H251.67V249.45H261.62V248.16Z" fill="#FFDD33"/>
<path d="M297.4 240.64H251.67V241.93H297.4V240.64Z" fill="#839299"/>
<path d="M292.12 242.85H251.67V244.14H292.12V242.85Z" fill="#839299"/>
<path d="M243.26 253.98H231.39L231.43 253.49L231.46 253.13L231.49 252.7L231.52 252.33L231.55 251.9L231.58 251.53L231.61 251.1L231.64 250.74L232.37 240.66H234.32C234.32 242.32 235.67 243.67 237.33 243.67C239 243.67 240.35 242.32 240.35 240.66H242.3L243.03 250.74L243.06 251.1L243.09 251.53L243.12 251.9L243.15 252.33L243.18 252.7L243.21 253.13L243.24 253.49L243.26 253.98Z" fill="#C8C8C8"/>
<path d="M232.35 240.67L228.72 245.18L231.84 247.78L232.35 240.67Z" fill="#2D2F31"/>
<path d="M242.29 240.67L245.92 245.18L242.8 247.78L242.29 240.67Z" fill="#2D2F31"/>
<path d="M341.14 264.53H223.21V293.49H341.14V264.53Z" fill="#D2D9DC"/>
<path d="M248.48 267.84H226.15V290.17H248.48V267.84Z" fill="white"/>
<path d="M254.71 288.75C254.3 289.51 253.31 290.18 253.31 290.18C253.31 290.18 252.32 289.51 251.91 288.75C251.44 287.89 251.7 287.02 252.37 287.02C253.12 287.02 253.31 287.95 253.31 287.95C253.31 287.95 253.51 287.02 254.25 287.02C254.92 287.02 255.18 287.89 254.71 288.75Z" fill="#ED1C24"/>
<path d="M337.88 287.42C337.88 288.94 336.65 290.17 335.13 290.17C333.61 290.17 332.38 288.94 332.38 287.42C332.38 285.9 333.61 284.67 335.13 284.67C336.65 284.68 337.88 285.91 337.88 287.42Z" fill="white"/>
<path d="M335.55 288.99H333.66L333.84 286.25H336.44L336.56 287.79L336.3 287.81L336.2 286.51H334.08L333.94 288.73H335.55V288.99Z" fill="#0054A6"/>
<path d="M335.75 286.51H334.55V286.03C334.55 285.7 334.82 285.43 335.15 285.43C335.48 285.43 335.75 285.7 335.75 286.03V286.51ZM334.82 286.25H335.49V286.03C335.49 285.85 335.34 285.69 335.15 285.69C334.97 285.69 334.82 285.84 334.82 286.03V286.25Z" fill="#0054A6"/>
<path d="M336.551 288.16H336.291V289.24H336.551V288.16Z" fill="#0054A6"/>
<path d="M336.96 288.57H335.88V288.83H336.96V288.57Z" fill="#0054A6"/>
<path d="M268.09 268.1H251.67V269.39H268.09V268.1Z" fill="#839299"/>
<path d="M261.62 279.85H251.67V281.14H261.62V279.85Z" fill="#FFDD33"/>
<path d="M297.4 272.33H251.67V273.62H297.4V272.33Z" fill="#839299"/>
<path d="M292.12 274.54H251.67V275.83H292.12V274.54Z" fill="#839299"/>
<path d="M241.71 269.86V270.88H237.32H232.93V269.86H241.71Z" fill="#839299"/>
<path d="M240.43 271.5H241.7V272.94C240.45 272.88 240.43 271.5 240.43 271.5Z" fill="#839299"/>
<path d="M241.71 273.65V288.16H238.32L237.32 274.74L236.32 288.16H232.93V273.65C233.5 273.55 234.85 273.15 234.85 271.5H236.95C236.95 272.63 236.92 273.62 237.32 273.63C237.72 273.63 237.69 272.63 237.69 271.5H239.79C239.79 273.15 241.14 273.56 241.71 273.65Z" fill="#839299"/>
<path d="M232.93 272.94V271.5H234.2C234.21 271.5 234.18 272.88 232.93 272.94Z" fill="#839299"/>
<path d="M341.14 296.21H223.21V325.17H341.14V296.21Z" fill="#D2D9DC"/>
<path d="M248.48 299.53H226.15V321.86H248.48V299.53Z" fill="white"/>
<path d="M254.71 320.43C254.3 321.19 253.31 321.86 253.31 321.86C253.31 321.86 252.32 321.19 251.91 320.43C251.44 319.57 251.7 318.7 252.37 318.7C253.12 318.7 253.31 319.63 253.31 319.63C253.31 319.63 253.51 318.7 254.25 318.7C254.92 318.7 255.18 319.58 254.71 320.43Z" fill="#ED1C24"/>
<path d="M335.13 321.86C336.649 321.86 337.88 320.629 337.88 319.11C337.88 317.592 336.649 316.36 335.13 316.36C333.611 316.36 332.38 317.592 332.38 319.11C332.38 320.629 333.611 321.86 335.13 321.86Z" fill="white"/>
<path d="M335.55 320.68H333.66L333.84 317.94H336.44L336.56 319.48L336.3 319.5L336.2 318.2H334.08L333.94 320.42H335.55V320.68Z" fill="#0054A6"/>
<path d="M335.75 318.2H334.55V317.72C334.55 317.39 334.82 317.12 335.15 317.12C335.48 317.12 335.75 317.39 335.75 317.72V318.2ZM334.82 317.94H335.49V317.72C335.49 317.54 335.34 317.38 335.15 317.38C334.97 317.38 334.82 317.53 334.82 317.72V317.94Z" fill="#0054A6"/>
<path d="M336.551 319.851H336.291V320.931H336.551V319.851Z" fill="#0054A6"/>
<path d="M336.96 320.251H335.88V320.511H336.96V320.251Z" fill="#0054A6"/>
<path d="M268.09 299.79H251.67V301.08H268.09V299.79Z" fill="#839299"/>
<path d="M261.62 311.53H251.67V312.82H261.62V311.53Z" fill="#FFDD33"/>
<path d="M297.4 304.01H251.67V305.3H297.4V304.01Z" fill="#839299"/>
<path d="M292.12 306.22H251.67V307.51H292.12V306.22Z" fill="#839299"/>
<path d="M244.74 315.9C244.26 316.06 230.47 316.1 229.95 315.76C229.75 315.63 229.56 307.71 229.77 305.36L238.66 305.43C238.66 305.43 238.72 311.11 238.83 311.16C239.72 311.58 243.81 313.53 244.28 313.91C244.81 314.36 245.23 315.74 244.74 315.9Z" fill="#0054A6"/>
<path d="M244.55 315.35C242.24 315.28 232.92 315.2 230.63 315.3C230.61 315.3 230.61 315.31 230.63 315.31C232.92 315.43 242.24 315.43 244.55 315.38C244.6 315.38 244.6 315.35 244.55 315.35Z" fill="#2D2F31"/>
<path d="M243.4 313.42C242.85 313.39 242.31 313.65 242.01 313.97C241.72 314.28 241.47 314.72 241.48 315.2C241.48 315.21 241.51 315.21 241.51 315.2C241.65 314.3 242.48 313.51 243.39 313.44C243.42 313.45 243.42 313.42 243.4 313.42Z" fill="#2D2F31"/>
<path d="M231.61 305.381C231.95 308.471 231.95 311.571 231.61 314.661C231.27 311.571 231.27 308.471 231.61 305.381Z" fill="#1A2E35"/>
<path d="M309.34 162.1H255.03V216.41H309.34V162.1Z" fill="#0054A6"/>
<path d="M293.26 196.05H275.08C274.74 196.05 274.43 195.83 274.33 195.5L269.14 179.62H264.9C264.46 179.62 264.11 179.26 264.11 178.83C264.11 178.39 264.47 178.04 264.9 178.04H269.71C270.05 178.04 270.36 178.26 270.46 178.59L275.65 194.47H293.26C293.7 194.47 294.05 194.83 294.05 195.26C294.06 195.69 293.7 196.05 293.26 196.05Z" fill="white"/>
<path d="M291.5 202.1C290.09 202.1 288.95 200.95 288.95 199.55C288.95 198.14 290.1 197 291.5 197C292.9 197 294.05 198.15 294.05 199.55C294.05 200.95 292.91 202.1 291.5 202.1ZM291.5 198.58C290.97 198.58 290.54 199.01 290.54 199.54C290.54 200.07 290.97 200.5 291.5 200.5C292.03 200.5 292.46 200.07 292.46 199.54C292.47 199.01 292.03 198.58 291.5 198.58Z" fill="white"/>
<path d="M276.48 202.1C275.07 202.1 273.93 200.95 273.93 199.55C273.93 198.14 275.08 197 276.48 197C277.89 197 279.03 198.15 279.03 199.55C279.04 200.95 277.89 202.1 276.48 202.1ZM276.48 198.58C275.95 198.58 275.52 199.01 275.52 199.54C275.52 200.07 275.95 200.5 276.48 200.5C277.01 200.5 277.44 200.07 277.44 199.54C277.45 199.01 277.02 198.58 276.48 198.58Z" fill="white"/>
<path d="M297.63 180.88L293.59 193.58H276.42L272.37 180.88L285.78 180.89L297.63 180.88Z" fill="white"/>
<path d="M308.85 172.7C314.213 172.7 318.56 168.353 318.56 162.99C318.56 157.628 314.213 153.28 308.85 153.28C303.487 153.28 299.14 157.628 299.14 162.99C299.14 168.353 303.487 172.7 308.85 172.7Z" fill="#54CC5A"/>
<path d="M307.74 168.53L303.57 164.31L304.97 162.92L307.41 165.39L312.47 157.45L314.13 158.51L307.74 168.53Z" fill="white"/>
<path d="M312.16 338.02H252.2V352.47H312.16V338.02Z" fill="#0054A6"/>
<path d="M260.97 345.15H260.21V346.49C260.21 346.67 260.06 346.83 259.86 346.83C259.68 346.83 259.52 346.68 259.52 346.49V342.85C259.52 342.66 259.67 342.51 259.86 342.51H259.87H260.97C261.7 342.51 262.3 343.1 262.3 343.84C262.29 344.55 261.7 345.15 260.97 345.15ZM260.21 344.46H260.97C261.33 344.46 261.61 344.18 261.61 343.83C261.6 343.47 261.33 343.19 260.97 343.19H260.21V344.46Z" fill="white"/>
<path d="M264.95 344.07C264.95 344.24 264.81 344.4 264.62 344.4C264.48 344.4 264.36 344.44 264.25 344.52C264.13 344.59 264.04 344.7 263.97 344.82C263.82 345.02 263.75 345.25 263.72 345.34V346.51C263.72 346.69 263.57 346.84 263.38 346.84C263.2 346.84 263.05 346.69 263.05 346.51V344.08C263.05 343.9 263.2 343.76 263.38 343.76C263.57 343.76 263.72 343.9 263.72 344.08V344.12C263.76 344.08 263.81 344.03 263.85 344C264.05 343.86 264.32 343.75 264.63 343.76C264.8 343.75 264.95 343.89 264.95 344.07Z" fill="white"/>
<path d="M265.88 346.37C265.61 346.1 265.45 345.72 265.45 345.29C265.45 344.87 265.61 344.51 265.88 344.21C266.16 343.92 266.51 343.74 266.94 343.74C267.35 343.74 267.72 343.92 267.97 344.21C268.25 344.51 268.4 344.87 268.4 345.29C268.4 345.72 268.25 346.1 267.97 346.37C267.72 346.66 267.35 346.84 266.94 346.84C266.52 346.84 266.16 346.66 265.88 346.37ZM266.13 345.29C266.13 345.55 266.21 345.77 266.35 345.94C266.5 346.09 266.71 346.17 266.94 346.17C267.16 346.17 267.35 346.09 267.51 345.94C267.66 345.77 267.75 345.55 267.75 345.29C267.75 345.04 267.66 344.82 267.51 344.65C267.36 344.51 267.16 344.42 266.94 344.42C266.71 344.42 266.5 344.52 266.35 344.65C266.21 344.81 266.13 345.03 266.13 345.29Z" fill="white"/>
<path d="M269.23 345.29C269.23 344.43 269.95 343.75 270.8 343.74C271.17 343.74 271.51 343.88 271.78 344.08C271.92 344.19 271.95 344.4 271.85 344.54C271.73 344.69 271.53 344.71 271.39 344.6C271.23 344.48 271.03 344.4 270.8 344.4C270.3 344.4 269.89 344.81 269.89 345.29C269.89 345.76 270.3 346.17 270.8 346.17C271.02 346.17 271.23 346.09 271.39 345.97C271.53 345.86 271.73 345.89 271.85 346.04C271.95 346.18 271.92 346.37 271.78 346.5C271.51 346.69 271.17 346.83 270.8 346.83C269.95 346.82 269.23 346.13 269.23 345.29Z" fill="white"/>
<path d="M272.66 345.28C272.67 344.44 273.32 343.74 274.16 343.74C274.96 343.74 275.6 344.34 275.65 345.17C275.65 345.18 275.65 345.19 275.65 345.2C275.65 345.21 275.65 345.24 275.64 345.26C275.62 345.41 275.49 345.51 275.32 345.51H273.36C273.39 345.65 273.46 345.81 273.57 345.92C273.7 346.07 273.95 346.18 274.16 346.2C274.38 346.22 274.65 346.16 274.8 346.05C274.93 345.91 275.18 345.93 275.26 346.03C275.34 346.12 275.4 346.3 275.26 346.43C274.96 346.71 274.59 346.84 274.16 346.84C273.32 346.82 272.66 346.12 272.66 345.28ZM273.33 344.98H275.07C275.01 344.73 274.69 344.37 274.16 344.33C273.64 344.35 273.38 344.73 273.33 344.98Z" fill="white"/>
<path d="M276.41 345.28C276.42 344.44 277.07 343.74 277.91 343.74C278.71 343.74 279.35 344.34 279.4 345.17C279.4 345.18 279.4 345.19 279.4 345.2C279.4 345.21 279.4 345.24 279.39 345.26C279.37 345.41 279.24 345.51 279.07 345.51H277.11C277.14 345.65 277.21 345.81 277.32 345.92C277.45 346.07 277.7 346.18 277.91 346.2C278.13 346.22 278.4 346.16 278.55 346.05C278.68 345.91 278.93 345.93 279.01 346.03C279.09 346.12 279.15 346.3 279.01 346.43C278.71 346.71 278.34 346.84 277.91 346.84C277.07 346.82 276.42 346.12 276.41 345.28ZM277.08 344.98H278.82C278.76 344.73 278.44 344.37 277.91 344.33C277.39 344.35 277.13 344.73 277.08 344.98Z" fill="white"/>
<path d="M283.17 346.49C283.17 346.67 283.02 346.82 282.84 346.82C282.67 346.82 282.54 346.7 282.51 346.56C282.28 346.72 281.98 346.82 281.67 346.82C280.84 346.82 280.17 346.12 280.17 345.28C280.17 344.44 280.84 343.73 281.67 343.73C281.97 343.73 282.27 343.83 282.5 343.99V342.83C282.5 342.65 282.65 342.5 282.84 342.5C283.03 342.5 283.17 342.65 283.17 342.83V345.27C283.17 345.27 283.17 345.27 283.17 345.28V346.49ZM281.67 344.41C281.45 344.41 281.24 344.5 281.09 344.66C280.94 344.81 280.84 345.04 280.84 345.28C280.84 345.51 280.93 345.74 281.09 345.89C281.24 346.05 281.45 346.14 281.67 346.14C281.9 346.14 282.1 346.05 282.25 345.89C282.4 345.74 282.5 345.51 282.5 345.28C282.5 345.03 282.41 344.81 282.25 344.66C282.1 344.5 281.9 344.41 281.67 344.41Z" fill="white"/>
<path d="M287.68 344.08C287.68 344.26 287.52 344.42 287.33 344.42H287.18V346.14C287.37 346.14 287.52 346.29 287.52 346.49C287.52 346.68 287.37 346.83 287.18 346.83C286.8 346.83 286.5 346.52 286.5 346.15V344.43H286.32C286.13 344.43 285.98 344.28 285.98 344.09C285.98 343.9 286.13 343.75 286.32 343.75H286.5V342.86C286.5 342.67 286.65 342.52 286.85 342.52C287.04 342.52 287.19 342.67 287.19 342.86V343.75H287.34C287.52 343.74 287.68 343.89 287.68 344.08Z" fill="white"/>
<path d="M288.94 346.37C288.68 346.1 288.51 345.72 288.51 345.29C288.51 344.87 288.67 344.51 288.94 344.21C289.22 343.92 289.58 343.74 290 343.74C290.41 343.74 290.78 343.92 291.03 344.21C291.31 344.51 291.46 344.87 291.46 345.29C291.46 345.72 291.31 346.1 291.03 346.37C290.78 346.66 290.41 346.84 290 346.84C289.58 346.84 289.22 346.66 288.94 346.37ZM289.19 345.29C289.19 345.55 289.27 345.77 289.41 345.94C289.56 346.09 289.77 346.17 290 346.17C290.22 346.17 290.41 346.09 290.57 345.94C290.72 345.77 290.81 345.55 290.81 345.29C290.81 345.04 290.72 344.82 290.57 344.65C290.42 344.51 290.22 344.42 290 344.42C289.77 344.42 289.56 344.52 289.41 344.65C289.27 344.81 289.19 345.03 289.19 345.29Z" fill="white"/>
<path d="M294.36 347.65V345.3C294.36 345.3 294.36 345.3 294.36 345.29V344.07C294.36 343.89 294.51 343.74 294.69 343.74C294.86 343.74 295 343.86 295.03 343.99C295.26 343.84 295.55 343.74 295.87 343.74C296.69 343.74 297.36 344.44 297.36 345.29C297.36 346.13 296.69 346.82 295.87 346.82C295.56 346.82 295.27 346.73 295.04 346.57V347.65C295.04 347.82 294.89 347.98 294.69 347.98C294.51 347.98 294.36 347.82 294.36 347.65ZM295.04 345.29C295.04 345.53 295.12 345.76 295.28 345.91C295.43 346.08 295.64 346.17 295.87 346.17C296.08 346.17 296.29 346.08 296.45 345.91C296.59 345.77 296.69 345.53 296.69 345.29C296.69 345.05 296.59 344.83 296.45 344.67C296.29 344.5 296.08 344.42 295.87 344.42C295.64 344.42 295.44 344.51 295.28 344.67C295.12 344.82 295.04 345.05 295.04 345.29Z" fill="white"/>
<path d="M301.03 345.29V346.5C301.03 346.68 300.88 346.83 300.7 346.83C300.54 346.83 300.42 346.71 300.38 346.57C300.15 346.74 299.87 346.83 299.56 346.83C299.14 346.83 298.78 346.66 298.51 346.38C298.25 346.1 298.09 345.71 298.09 345.3C298.09 344.87 298.24 344.49 298.51 344.21C298.77 343.93 299.14 343.75 299.56 343.75C299.87 343.75 300.15 343.85 300.38 344.02C300.42 343.87 300.54 343.75 300.7 343.75C300.88 343.75 301.03 343.9 301.03 344.08V345.29ZM300.38 345.29C300.38 345.03 300.29 344.81 300.14 344.65C299.99 344.48 299.78 344.4 299.57 344.4C299.35 344.4 299.14 344.49 299 344.65C298.85 344.8 298.77 345.03 298.77 345.29C298.77 345.54 298.86 345.76 299 345.93C299.14 346.08 299.35 346.17 299.57 346.17C299.79 346.17 300 346.08 300.14 345.93C300.29 345.76 300.38 345.54 300.38 345.29Z" fill="white"/>
<path d="M304.75 344.07V345.52V346.4C304.75 347.23 304.1 347.87 303.28 347.87C303.06 347.87 302.83 347.81 302.64 347.72C302.47 347.65 302.41 347.46 302.48 347.28C302.56 347.13 302.77 347.06 302.92 347.14C303.04 347.2 303.15 347.23 303.28 347.23C303.64 347.22 303.95 346.99 304.05 346.67C303.88 346.77 303.67 346.82 303.46 346.82C302.75 346.82 302.17 346.23 302.17 345.53V344.08C302.17 343.9 302.32 343.75 302.49 343.75C302.68 343.75 302.82 343.89 302.82 344.08V345.53C302.82 345.89 303.11 346.16 303.46 346.16C303.81 346.16 304.1 345.89 304.1 345.53V344.08C304.1 343.9 304.24 343.75 304.42 343.75C304.6 343.74 304.75 343.88 304.75 344.07Z" fill="white"/>
<path d="M156.81 309.96C156.81 309.96 159.53 276.27 174.43 276.01C187.8 275.77 180.61 310.12 180.61 310.12" stroke="#1A2E35" stroke-width="2" stroke-miterlimit="10"/>
<path d="M148.41 302.12L205.66 301.91L214.02 398.77L147.72 402.12L148.41 302.12Z" fill="#0054A6"/>
<path d="M147.72 402.12L127.49 398.31L140.46 300.91L144.15 303.62L148.41 302.12L147.72 402.12Z" fill="#0054A6"/>
<path opacity="0.19" d="M147.72 402.12L127.49 398.31L140.46 300.91L144.15 303.62L148.41 302.12L147.72 402.12Z" fill="#2D2F31"/>
<path opacity="0.19" d="M137.4 390L127.49 398.31L140.46 300.91L144.15 303.62L137.4 390Z" fill="#2D2F31"/>
<path d="M190.98 309.96C190.98 309.96 188.26 276.27 173.36 276.01C159.99 275.77 167.18 310.12 167.18 310.12" stroke="#1A2E35" stroke-width="2" stroke-miterlimit="10"/>
<path d="M171.37 328.22L238.13 328.05L244.54 402.27L170.83 404.83L171.37 328.22Z" fill="#D2D9DC"/>
<path d="M170.83 404.83L155.34 401.91L165.27 327.29L168.1 329.36L171.37 328.22L170.83 404.83Z" fill="#2B454E"/>
<path d="M170.83 404.83L155.34 401.91L165.27 327.29L168.1 329.36L171.37 328.22L170.83 404.83Z" fill="#839299"/>
<path d="M162.93 395.54L155.34 401.91L165.27 327.29L168.1 329.36L162.93 395.54Z" fill="#5F737C"/>
<path d="M273.09 80.2205C271.9 91.5905 261.71 99.8505 250.34 98.6605C245.74 98.1805 241.66 96.2305 238.5 93.3205L228.14 94.8405L233.32 85.8805C232.06 82.8205 231.53 79.4205 231.9 75.9105C233.09 64.5405 243.28 56.2805 254.65 57.4705C266.02 58.6605 274.28 68.8505 273.09 80.2205Z" fill="#0054A6"/>
<path d="M250.07 89.8697L241.23 80.9196L244.2 77.9797L249.36 83.2096L260.1 66.3896L263.62 68.6296L250.07 89.8697Z" fill="#54CC5A"/>
<path d="M375.14 131.52H452.62C455.32 131.52 457.5 133.7 457.5 136.4V145.3C457.5 148 455.32 150.18 452.62 150.18H375.14C372.44 150.18 370.26 148 370.26 145.3V136.4C370.26 133.69 372.44 131.52 375.14 131.52Z" fill="#002548"/>
<path opacity="0.998" d="M388.35 140.839C388.35 143.859 385.9 146.309 382.88 146.309C379.86 146.309 377.41 143.859 377.41 140.839C377.41 137.819 379.86 135.369 382.88 135.369C385.9 135.369 388.35 137.819 388.35 140.839Z" fill="white"/>
<path d="M384.83 143.559C384.44 143.839 383.35 143.109 382.86 143.109C382.38 143.109 381.28 143.839 380.89 143.559C380.5 143.269 380.86 142.009 380.71 141.549C380.56 141.089 379.53 140.279 379.68 139.819C379.83 139.359 381.15 139.309 381.54 139.029C381.93 138.749 382.39 137.509 382.87 137.509C383.35 137.509 383.8 138.749 384.2 139.029C384.59 139.319 385.91 139.359 386.06 139.829C386.21 140.289 385.17 141.099 385.02 141.559C384.86 142.009 385.22 143.279 384.83 143.559Z" fill="#FFDD33"/>
<path opacity="0.998" d="M403.56 140.839C403.56 143.859 401.11 146.309 398.09 146.309C395.07 146.309 392.62 143.859 392.62 140.839C392.62 137.819 395.07 135.369 398.09 135.369C401.11 135.369 403.56 137.819 403.56 140.839Z" fill="white"/>
<path d="M400.04 143.559C399.65 143.839 398.56 143.109 398.07 143.109C397.59 143.109 396.49 143.839 396.1 143.559C395.71 143.269 396.07 142.009 395.92 141.549C395.77 141.089 394.74 140.279 394.89 139.819C395.04 139.359 396.36 139.309 396.75 139.029C397.14 138.749 397.6 137.509 398.08 137.509C398.56 137.509 399.01 138.749 399.41 139.029C399.8 139.319 401.12 139.359 401.27 139.829C401.42 140.289 400.38 141.099 400.23 141.559C400.07 142.009 400.43 143.279 400.04 143.559Z" fill="#FFDD33"/>
<path opacity="0.998" d="M419.77 140.839C419.77 143.859 417.32 146.309 414.3 146.309C411.28 146.309 408.83 143.859 408.83 140.839C408.83 137.819 411.28 135.369 414.3 135.369C417.32 135.369 419.77 137.819 419.77 140.839Z" fill="white"/>
<path d="M416.25 143.559C415.86 143.839 414.77 143.109 414.28 143.109C413.8 143.109 412.7 143.839 412.31 143.559C411.92 143.269 412.28 142.009 412.13 141.549C411.98 141.089 410.95 140.279 411.1 139.819C411.25 139.359 412.57 139.309 412.96 139.029C413.35 138.749 413.81 137.509 414.29 137.509C414.77 137.509 415.22 138.749 415.62 139.029C416.01 139.319 417.33 139.359 417.48 139.829C417.63 140.289 416.59 141.099 416.44 141.559C416.29 142.009 416.65 143.279 416.25 143.559Z" fill="#FFDD33"/>
<path opacity="0.998" d="M434.7 140.839C434.7 143.859 432.25 146.309 429.23 146.309C426.21 146.309 423.76 143.859 423.76 140.839C423.76 137.819 426.21 135.369 429.23 135.369C432.25 135.369 434.7 137.819 434.7 140.839Z" fill="white"/>
<path d="M431.18 143.559C430.79 143.839 429.7 143.109 429.21 143.109C428.73 143.109 427.63 143.839 427.24 143.559C426.85 143.269 427.21 142.009 427.06 141.549C426.91 141.089 425.88 140.279 426.03 139.819C426.18 139.359 427.5 139.309 427.89 139.029C428.28 138.749 428.74 137.509 429.22 137.509C429.7 137.509 430.15 138.749 430.55 139.029C430.94 139.319 432.26 139.359 432.41 139.829C432.56 140.289 431.52 141.099 431.37 141.559C431.21 142.009 431.57 143.279 431.18 143.559Z" fill="#FFDD33"/>
<path opacity="0.998" d="M450.35 140.839C450.35 143.859 447.9 146.309 444.88 146.309C441.86 146.309 439.41 143.859 439.41 140.839C439.41 137.819 441.86 135.369 444.88 135.369C447.9 135.369 450.35 137.819 450.35 140.839Z" fill="white"/>
<path d="M446.83 143.559C446.44 143.839 445.35 143.109 444.86 143.109C444.38 143.109 443.28 143.839 442.89 143.559C442.5 143.269 442.86 142.009 442.71 141.549C442.56 141.089 441.53 140.279 441.68 139.819C441.83 139.359 443.15 139.309 443.54 139.029C443.93 138.749 444.39 137.509 444.87 137.509C445.35 137.509 445.8 138.749 446.2 139.029C446.59 139.319 447.91 139.359 448.06 139.829C448.21 140.289 447.17 141.099 447.02 141.559C446.86 142.009 447.22 143.279 446.83 143.559Z" fill="#FFDD33"/>
<path d="M377.73 286H449.48C452.31 286 454.58 288.28 454.58 291.1V315.12C454.58 317.95 452.3 320.22 449.48 320.22H377.73C374.9 320.22 372.63 317.94 372.63 315.12V291.1C372.62 288.28 374.9 286 377.73 286Z" fill="#839299"/>
<path d="M425.59 292.09H427.11C427.73 292.09 428.22 292.59 428.22 293.2C428.22 293.82 427.72 294.31 427.11 294.31H425.59C424.97 294.31 424.48 293.81 424.48 293.2C424.47 292.59 424.97 292.09 425.59 292.09Z" fill="#54CC5A"/>
<path d="M425.59 300.05H427.68C428.3 300.05 428.79 300.55 428.79 301.16C428.79 301.16 428.79 302.27 427.68 302.27H425.59C424.97 302.27 424.48 301.77 424.48 301.16C424.47 300.54 424.97 300.05 425.59 300.05Z" fill="#0054A6"/>
<path d="M385.48 279.37H414.76C417.59 279.37 419.86 281.65 419.86 284.47V307.83C419.86 310.66 417.58 312.93 414.76 312.93H385.48C382.65 312.93 380.38 310.65 380.38 307.83V284.47C380.38 281.65 382.65 279.37 385.48 279.37Z" fill="#D2D9DC"/>
<path d="M431.38 292.09H445.68C446.3 292.09 446.79 292.59 446.79 293.2C446.79 293.82 446.29 294.31 445.68 294.31H431.38C430.76 294.31 430.27 293.81 430.27 293.2C430.27 292.59 430.77 292.09 431.38 292.09Z" fill="#D2D9DC"/>
<path d="M431.89 300.05H445.77C446.39 300.05 446.88 300.55 446.88 301.16C446.88 301.16 446.88 302.27 445.77 302.27H431.89C431.27 302.27 430.78 301.77 430.78 301.16C430.77 300.54 431.27 300.05 431.89 300.05Z" fill="#D2D9DC"/>
<path d="M391.09 283.99H408.8C410.71 283.99 412.25 285.53 412.25 287.44V303.3C412.25 305.21 410.71 306.75 408.8 306.75H391.09C389.18 306.75 387.64 305.21 387.64 303.3V287.44C387.64 285.53 389.18 283.99 391.09 283.99Z" fill="#FED2A4"/>
<path opacity="0.998" d="M396.71 283.99V288.53C396.71 289.42 397.43 290.14 398.32 290.14H402.29C403.18 290.14 403.9 289.42 403.9 288.53V283.99H396.71Z" fill="white"/>
<path d="M391.85 299.38H398.18C398.9 299.38 399.48 299.96 399.48 300.68V301.86C399.48 302.58 398.9 303.16 398.18 303.16H391.85C391.13 303.16 390.55 302.58 390.55 301.86V300.68C390.56 299.96 391.14 299.38 391.85 299.38Z" fill="#FFBD86"/>
<path d="M425.59 308.23H427.11C427.73 308.23 428.22 308.73 428.22 309.34C428.22 309.96 427.72 310.45 427.11 310.45H425.59C424.97 310.45 424.48 309.95 424.48 309.34C424.47 308.73 424.97 308.23 425.59 308.23Z" fill="#0054A6"/>
<path d="M431.38 308.23H445.68C446.3 308.23 446.79 308.73 446.79 309.34C446.79 309.96 446.29 310.45 445.68 310.45H431.38C430.76 310.45 430.27 309.95 430.27 309.34C430.27 308.73 430.77 308.23 431.38 308.23Z" fill="#D2D9DC"/>
<path d="M111.79 173.21H141.07C143.9 173.21 146.17 175.49 146.17 178.31V201.67C146.17 204.5 143.89 206.77 141.07 206.77H111.79C108.96 206.77 106.69 204.49 106.69 201.67V178.31C106.68 175.49 108.96 173.21 111.79 173.21Z" fill="#002548"/>
<path d="M127.466 190.409V199.063C127.466 199.8 126.877 200.41 126.119 200.41H124.961C124.224 200.41 123.613 199.821 123.613 199.063V190.409C123.613 189.672 124.203 189.062 124.961 189.062H126.119C126.877 189.083 127.466 189.672 127.466 190.409Z" fill="#FFDD33"/>
<path d="M118.223 180.492C115.275 180.513 112.875 182.914 112.875 185.882C112.875 188.851 115.296 191.272 118.265 191.272C121.234 191.272 123.655 188.851 123.655 185.882C123.655 182.914 121.234 180.492 118.265 180.492C118.244 180.492 118.223 180.492 118.223 180.492ZM118.265 182.324C120.223 182.324 121.823 183.924 121.823 185.882C121.823 187.84 120.223 189.441 118.265 189.441C116.307 189.441 114.707 187.84 114.707 185.882C114.707 183.903 116.286 182.324 118.265 182.324Z" fill="#FFDD33"/>
<path d="M132.814 180.492C129.867 180.513 127.466 182.914 127.466 185.882C127.466 188.851 129.888 191.272 132.856 191.272C135.825 191.272 138.246 188.851 138.246 185.882C138.246 182.914 135.825 180.492 132.856 180.492C132.856 180.492 132.835 180.492 132.814 180.492ZM132.877 182.324C134.835 182.324 136.436 183.924 136.436 185.882C136.436 187.84 134.835 189.441 132.877 189.441C130.919 189.441 129.319 187.84 129.319 185.882C129.298 183.903 130.898 182.324 132.877 182.324Z" fill="#FFDD33"/>
<path d="M120.686 177.565H130.435C131.677 177.565 132.688 178.576 132.688 179.818V189.377C132.688 197.652 118.454 197.841 118.454 189.377V179.818C118.433 178.576 119.444 177.565 120.686 177.565Z" fill="#FFDD33"/>
<path d="M121.234 198.115H129.887C130.624 198.115 131.235 198.705 131.235 199.463V200.621C131.235 201.358 130.645 201.968 129.887 201.968H121.234C120.497 201.968 119.886 201.379 119.886 200.621V199.463C119.886 198.705 120.497 198.115 121.234 198.115Z" fill="#FFDD33"/>
<path d="M162.76 189.47C162.76 192.63 160.2 195.19 157.04 195.19C153.88 195.19 151.32 192.63 151.32 189.47C151.32 186.31 153.88 183.75 157.04 183.75C160.2 183.74 162.76 186.31 162.76 189.47Z" fill="#002548"/>
<path d="M159.09 192.309C158.68 192.609 157.54 191.839 157.03 191.839C156.52 191.839 155.38 192.609 154.97 192.309C154.56 192.009 154.94 190.69 154.79 190.21C154.63 189.73 153.55 188.879 153.71 188.399C153.87 187.919 155.24 187.87 155.65 187.57C156.06 187.27 156.53 185.979 157.04 185.979C157.55 185.979 158.02 187.28 158.43 187.57C158.84 187.87 160.22 187.919 160.37 188.399C160.53 188.879 159.44 189.73 159.28 190.21C159.12 190.69 159.5 192.019 159.09 192.309Z" fill="#FFDD33"/>
<path d="M178.53 189.47C178.53 192.63 175.97 195.19 172.81 195.19C169.65 195.19 167.09 192.63 167.09 189.47C167.09 186.31 169.65 183.75 172.81 183.75C175.96 183.74 178.53 186.31 178.53 189.47Z" fill="#002548"/>
<path d="M174.85 192.309C174.44 192.609 173.3 191.839 172.79 191.839C172.28 191.839 171.14 192.609 170.73 192.309C170.32 192.009 170.7 190.69 170.55 190.21C170.39 189.73 169.31 188.879 169.47 188.399C169.63 187.919 171 187.87 171.41 187.57C171.82 187.27 172.29 185.979 172.8 185.979C173.31 185.979 173.78 187.28 174.19 187.57C174.6 187.87 175.98 187.919 176.13 188.399C176.29 188.879 175.2 189.73 175.04 190.21C174.88 190.69 175.26 192.019 174.85 192.309Z" fill="#FFDD33"/>
<path d="M193.79 189.47C193.79 192.63 191.23 195.19 188.07 195.19C184.91 195.19 182.35 192.63 182.35 189.47C182.35 186.31 184.91 183.75 188.07 183.75C191.23 183.74 193.79 186.31 193.79 189.47Z" fill="#002548"/>
<path d="M190.12 192.309C189.71 192.609 188.57 191.839 188.06 191.839C187.55 191.839 186.41 192.609 186 192.309C185.59 192.009 185.97 190.69 185.82 190.21C185.66 189.73 184.58 188.879 184.74 188.399C184.9 187.919 186.27 187.87 186.68 187.57C187.09 187.27 187.56 185.979 188.07 185.979C188.58 185.979 189.05 187.28 189.46 187.57C189.87 187.87 191.25 187.919 191.4 188.399C191.56 188.879 190.47 189.73 190.31 190.21C190.15 190.69 190.53 192.019 190.12 192.309Z" fill="#FFDD33"/>
<path d="M170.32 202.27C170.32 205.43 167.76 207.99 164.6 207.99C161.44 207.99 158.88 205.43 158.88 202.27C158.88 199.11 161.44 196.55 164.6 196.55C167.76 196.55 170.32 199.11 170.32 202.27Z" fill="#002548"/>
<path d="M166.64 205.12C166.23 205.42 165.09 204.65 164.58 204.65C164.07 204.65 162.93 205.42 162.52 205.12C162.11 204.82 162.49 203.5 162.34 203.02C162.18 202.54 161.1 201.69 161.26 201.21C161.42 200.73 162.79 200.68 163.2 200.38C163.61 200.08 164.08 198.79 164.59 198.79C165.1 198.79 165.57 200.09 165.98 200.38C166.39 200.68 167.77 200.73 167.92 201.21C168.08 201.69 166.99 202.54 166.83 203.02C166.67 203.5 167.05 204.82 166.64 205.12Z" fill="#FFDD33"/>
<path d="M185.59 202.27C185.59 205.43 183.03 207.99 179.87 207.99C176.71 207.99 174.15 205.43 174.15 202.27C174.15 199.11 176.71 196.55 179.87 196.55C183.02 196.55 185.59 199.11 185.59 202.27Z" fill="#002548"/>
<path d="M181.91 205.12C181.5 205.42 180.36 204.65 179.85 204.65C179.34 204.65 178.2 205.42 177.79 205.12C177.38 204.82 177.76 203.5 177.61 203.02C177.45 202.54 176.37 201.69 176.53 201.21C176.69 200.73 178.06 200.68 178.47 200.38C178.88 200.08 179.35 198.79 179.86 198.79C180.37 198.79 180.84 200.09 181.25 200.38C181.66 200.68 183.04 200.73 183.19 201.21C183.35 201.69 182.26 202.54 182.1 203.02C181.94 203.5 182.32 204.82 181.91 205.12Z" fill="#FFDD33"/>
<path d="M416.35 234.81C413.31 234.81 410.86 237.26 410.86 240.3V261.22C410.86 264.26 413.31 266.71 416.35 266.71H431.66L435.8 270.85C437.27 272.32 439.64 272.32 441.11 270.85L445.25 266.71H460.81C463.85 266.71 466.3 264.26 466.3 261.22V240.3C466.3 237.26 463.85 234.81 460.81 234.81H416.35Z" fill="#839299"/>
<path d="M422.11 252.96H455.65C456.55 252.96 457.27 253.68 457.27 254.58C457.27 255.48 456.55 256.2 455.65 256.2H422.11C421.21 256.2 420.49 255.48 420.49 254.58C420.5 253.69 421.22 252.96 422.11 252.96Z" fill="#D2D9DC"/>
<path d="M422.11 244.369H435.19C436.09 244.369 436.81 245.089 436.81 245.989C436.81 246.889 436.09 247.609 435.19 247.609H422.11C421.21 247.609 420.49 246.889 420.49 245.989C420.5 245.089 421.22 244.369 422.11 244.369Z" fill="#D2D9DC"/>
<path d="M321.09 204.84H392.84C395.67 204.84 397.94 207.12 397.94 209.94V233.96C397.94 236.79 395.66 239.06 392.84 239.06H321.09C318.26 239.06 315.99 236.78 315.99 233.96V209.94C315.99 207.11 318.26 204.84 321.09 204.84Z" fill="#839299"/>
<path d="M328.84 198.21H358.12C360.95 198.21 363.22 200.49 363.22 203.31V226.67C363.22 229.5 360.94 231.77 358.12 231.77H328.84C326.01 231.77 323.74 229.49 323.74 226.67V203.31C323.74 200.48 326.02 198.21 328.84 198.21Z" fill="#D2D9DC"/>
<path d="M368.95 227.06H370.47C371.09 227.06 371.58 227.56 371.58 228.17C371.58 228.79 371.08 229.28 370.47 229.28H368.95C368.33 229.28 367.84 228.78 367.84 228.17C367.84 227.56 368.34 227.06 368.95 227.06Z" fill="#FFDD33"/>
<path d="M374.75 227.06H389.06C389.68 227.06 390.17 227.56 390.17 228.17C390.17 228.79 389.67 229.28 389.06 229.28H374.75C374.13 229.28 373.64 228.78 373.64 228.17C373.63 227.56 374.13 227.06 374.75 227.06Z" fill="#D2D9DC"/>
<path d="M332.87 212.83C331.64 212.83 330.64 213.82 330.64 215.06V222.19C330.64 223.42 331.63 224.42 332.87 224.42H339.02V212.83H332.87Z" fill="#0054A6"/>
<path d="M339.02 224.42H349.74C355 224.42 357.15 213.59 354.73 212.97C353.39 212.62 347.76 211.45 347.76 211.45C347.76 211.45 350.76 205.81 346.26 205.81C345.53 205.81 339.02 212.83 339.02 212.83V224.42Z" fill="#FFBD86"/>
<path opacity="0.998" d="M335.2 221.11C335.2 221.78 334.65 222.33 333.98 222.33C333.31 222.33 332.76 221.78 332.76 221.11C332.76 220.44 333.31 219.89 333.98 219.89C334.65 219.89 335.2 220.44 335.2 221.11Z" fill="white"/>
<path opacity="0.998" d="M372.96 211.78C372.96 213.31 371.72 214.55 370.19 214.55C368.66 214.55 367.42 213.31 367.42 211.78C367.42 210.25 368.66 209.01 370.19 209.01C371.72 209.01 372.96 210.25 372.96 211.78Z" fill="white"/>
<path opacity="0.998" d="M379.85 211.78C379.85 213.31 378.61 214.55 377.08 214.55C375.55 214.55 374.31 213.31 374.31 211.78C374.31 210.25 375.55 209.01 377.08 209.01C378.61 209.01 379.85 210.25 379.85 211.78Z" fill="white"/>
<path opacity="0.998" d="M386.98 211.78C386.98 213.31 385.74 214.55 384.21 214.55C382.68 214.55 381.44 213.31 381.44 211.78C381.44 210.25 382.68 209.01 384.21 209.01C385.74 209.01 386.98 210.25 386.98 211.78Z" fill="white"/>
<path opacity="0.998" d="M393.86 211.78C393.86 213.31 392.62 214.55 391.09 214.55C389.56 214.55 388.32 213.31 388.32 211.78C388.32 210.25 389.56 209.01 391.09 209.01C392.62 209.01 393.86 210.25 393.86 211.78Z" fill="white"/>
<path d="M368.95 219.18H370.47C371.09 219.18 371.58 219.68 371.58 220.29C371.58 220.91 371.08 221.4 370.47 221.4H368.95C368.33 221.4 367.84 220.9 367.84 220.29C367.84 219.68 368.34 219.18 368.95 219.18Z" fill="#FFDD33"/>
<path d="M374.75 219.18H389.06C389.68 219.18 390.17 219.68 390.17 220.29C390.17 220.91 389.67 221.4 389.06 221.4H374.75C374.13 221.4 373.64 220.9 373.64 220.29C373.63 219.68 374.13 219.18 374.75 219.18Z" fill="#D2D9DC"/>
<path d="M371.6 211.93C371.19 212.69 370.2 213.36 370.2 213.36C370.2 213.36 369.21 212.69 368.8 211.93C368.33 211.07 368.59 210.2 369.26 210.2C370.01 210.2 370.2 211.13 370.2 211.13C370.2 211.13 370.4 210.2 371.14 210.2C371.8 210.2 372.06 211.07 371.6 211.93Z" fill="#ED1C24"/>
<path d="M378.48 211.93C378.07 212.69 377.08 213.36 377.08 213.36C377.08 213.36 376.09 212.69 375.68 211.93C375.21 211.07 375.47 210.2 376.14 210.2C376.89 210.2 377.08 211.13 377.08 211.13C377.08 211.13 377.28 210.2 378.02 210.2C378.69 210.2 378.95 211.07 378.48 211.93Z" fill="#ED1C24"/>
<path d="M385.61 211.93C385.2 212.69 384.21 213.36 384.21 213.36C384.21 213.36 383.22 212.69 382.81 211.93C382.34 211.07 382.6 210.2 383.27 210.2C384.02 210.2 384.21 211.13 384.21 211.13C384.21 211.13 384.41 210.2 385.15 210.2C385.82 210.2 386.08 211.07 385.61 211.93Z" fill="#ED1C24"/>
<path d="M392.5 211.93C392.09 212.69 391.1 213.36 391.1 213.36C391.1 213.36 390.11 212.69 389.7 211.93C389.23 211.07 389.49 210.2 390.16 210.2C390.91 210.2 391.1 211.13 391.1 211.13C391.1 211.13 391.3 210.2 392.04 210.2C392.7 210.2 392.96 211.07 392.5 211.93Z" fill="#ED1C24"/>
<path opacity="0.19" d="M171.37 328.22L238.13 328.05L244.54 402.27L170.83 404.83L171.37 328.22Z" fill="#2D2F31"/>
<path d="M206.98 359.59C200.35 359.59 194.91 354.86 191.21 345.86C188.38 338.96 187.56 332.09 187.52 331.8L189.12 331.61C189.15 331.88 192.44 358.79 207.63 357.97C211.23 357.78 214.02 356.41 215.92 353.88C221.36 346.66 218.14 332.35 218.11 332.21L219.68 331.85C219.82 332.47 223.1 347.04 217.21 354.85C215.01 357.77 211.82 359.36 207.72 359.57C207.48 359.58 207.23 359.59 206.98 359.59Z" fill="#FFDD33"/>
</svg>
