<svg width="158" height="45" viewBox="0 0 158 45" fill="none" xmlns="http://www.w3.org/2000/svg">
<path d="M33.9393 8.55462C33.9075 8.33229 33.7163 8.2123 33.5535 8.19818C33.3941 8.18406 30.0062 7.9335 30.0062 7.9335C30.0062 7.9335 27.6556 5.60427 27.3971 5.34664C27.1387 5.08901 26.636 5.16665 26.4378 5.22312C26.4094 5.23018 25.9244 5.38193 25.1208 5.62897C24.3385 3.37738 22.9507 1.30578 20.5116 1.30578C20.4443 1.30578 20.3735 1.30931 20.3062 1.31284C19.6088 0.398792 18.7521 0 18.0087 0C12.3268 0 9.61148 7.08297 8.75831 10.6827C6.54926 11.3638 4.98098 11.8508 4.77919 11.9108C3.54722 12.2955 3.50828 12.3343 3.34543 13.4919C3.22507 14.3706 0 39.2369 0 39.2369L25.135 43.9307L38.7539 40.9944C38.7504 40.9944 33.9712 8.77343 33.9393 8.55462ZM23.7331 6.05953C23.103 6.25363 22.3843 6.47596 21.6055 6.71594C21.6055 6.56772 21.6055 6.4195 21.6055 6.25716C21.6055 4.85609 21.4108 3.72677 21.0992 2.8339C22.356 2.99271 23.195 4.41848 23.7331 6.05953ZM19.5416 3.1127C19.892 3.98439 20.1186 5.23724 20.1186 6.93122C20.1186 7.01592 20.1186 7.09709 20.1186 7.17826C18.7344 7.60529 17.2334 8.0676 15.7253 8.53345C16.5714 5.27606 18.1538 3.70559 19.5416 3.1127ZM17.8529 1.52106C18.0972 1.52106 18.345 1.60223 18.5822 1.76457C16.759 2.61862 14.8084 4.77139 13.9836 9.06988C12.7799 9.44044 11.601 9.80394 10.5107 10.1427C11.4771 6.86417 13.7711 1.52106 17.8529 1.52106Z" fill="#95BF47"/>
<path d="M33.5568 8.19807C33.3975 8.18396 30.0095 7.93339 30.0095 7.93339C30.0095 7.93339 27.6589 5.60416 27.4005 5.34653C27.3049 5.25125 27.1739 5.20184 27.0358 5.18066L25.1348 43.9306L38.7501 40.9943C38.7501 40.9943 33.971 8.77332 33.9391 8.55452C33.9108 8.33218 33.7161 8.20866 33.5568 8.19807Z" fill="#5E8E3E"/>
<path d="M20.5114 15.6978L18.8334 20.6774C18.8334 20.6774 17.3607 19.894 15.5587 19.894C12.9143 19.894 12.7833 21.5491 12.7833 21.9656C12.7833 24.2383 18.7307 25.11 18.7307 30.439C18.7307 34.6316 16.065 37.3279 12.4682 37.3279C8.15277 37.3279 5.94727 34.6528 5.94727 34.6528L7.10135 30.8484C7.10135 30.8484 9.37058 32.7894 11.2823 32.7894C12.5319 32.7894 13.0417 31.8083 13.0417 31.0919C13.0417 28.1239 8.16339 27.9933 8.16339 23.1196C8.16339 19.0187 11.1159 15.0449 17.081 15.0449C19.375 15.0414 20.5114 15.6978 20.5114 15.6978Z" fill="white"/>
<path d="M54.6282 25.032C53.2688 24.298 52.5714 23.6768 52.5714 22.8263C52.5714 21.7429 53.5414 21.0476 55.0566 21.0476C56.8196 21.0476 58.3949 21.7817 58.3949 21.7817L59.6375 17.9914C59.6375 17.9914 58.494 17.1021 55.138 17.1021C50.4615 17.1021 47.2222 19.7701 47.2222 23.5251C47.2222 25.6531 48.7339 27.2765 50.7518 28.4376C52.3802 29.3658 52.9643 30.0222 52.9643 30.9892C52.9643 31.995 52.1501 32.8067 50.6349 32.8067C48.3799 32.8067 46.2487 31.6456 46.2487 31.6456L44.9282 35.4359C44.9282 35.4359 46.8965 36.7523 50.2066 36.7523C55.0176 36.7523 58.4728 34.3913 58.4728 30.1387C58.4693 27.8553 56.724 26.2319 54.6282 25.032Z" fill="black"/>
<path d="M73.7947 17.0633C71.4264 17.0633 69.5642 18.1855 68.1305 19.8866L68.0526 19.8478L70.1094 9.1333H64.7532L59.5527 36.4065H64.909L66.6932 27.0825C67.3906 23.5639 69.2138 21.397 70.9237 21.397C72.1273 21.397 72.5911 22.2087 72.5911 23.3698C72.5911 24.1039 72.5132 24.9932 72.3574 25.7308L70.3395 36.4065H75.6958L77.7915 25.3814C78.0252 24.2204 78.181 22.8299 78.181 21.8982C78.181 18.8808 76.5914 17.0633 73.7947 17.0633Z" fill="black"/>
<path d="M90.2875 17.0635C83.8445 17.0635 79.5786 22.8654 79.5786 29.3272C79.5786 33.4669 82.1381 36.7913 86.9527 36.7913C93.279 36.7913 97.5448 31.1447 97.5448 24.5276C97.5448 20.702 95.2933 17.0635 90.2875 17.0635ZM87.6501 32.694C85.827 32.694 85.0517 31.1483 85.0517 29.2143C85.0517 26.1581 86.6412 21.1679 89.5512 21.1679C91.4522 21.1679 92.0718 22.7913 92.0718 24.3794C92.0718 27.665 90.4822 32.694 87.6501 32.694Z" fill="black"/>
<path d="M111.242 17.0635C107.628 17.0635 105.578 20.2362 105.578 20.2362H105.5L105.812 17.374H101.079C100.845 19.308 100.42 22.2478 99.9918 24.4535L96.2676 43.9873H101.624L103.097 36.0961H103.213C103.213 36.0961 104.314 36.7913 106.357 36.7913C112.644 36.7913 116.758 30.3683 116.758 23.8712C116.754 20.275 115.161 17.0635 111.242 17.0635ZM106.12 32.7681C104.729 32.7681 103.907 31.9953 103.907 31.9953L104.799 27.0051C105.419 23.6771 107.168 21.4749 109.03 21.4749C110.658 21.4749 111.164 22.9818 111.164 24.4147C111.164 27.8556 109.108 32.7681 106.12 32.7681Z" fill="black"/>
<path d="M124.397 9.40479C122.691 9.40479 121.332 10.76 121.332 12.4998C121.332 14.0844 122.34 15.1679 123.852 15.1679H123.93C125.597 15.1679 127.035 14.0456 127.074 12.0728C127.074 10.527 126.026 9.40479 124.397 9.40479Z" fill="black"/>
<path d="M116.91 36.4064H122.262L125.912 17.4902H120.517L116.91 36.4064Z" fill="black"/>
<path d="M139.531 17.452H135.807L136.001 16.5626C136.313 14.7451 137.4 13.1182 139.184 13.1182C140.136 13.1182 140.89 13.3899 140.89 13.3899L141.938 9.21145C141.938 9.21145 141.007 8.74561 139.028 8.74561C137.127 8.74561 135.226 9.28556 133.789 10.5243C131.966 12.0701 131.112 14.3146 130.684 16.5591L130.528 17.4485H128.043L127.268 21.4717H129.753L126.921 36.4034H132.277L135.109 21.4717H138.795L139.531 17.452Z" fill="black"/>
<path d="M152.414 17.4902C152.414 17.4902 149.065 25.8966 147.564 30.488H147.486C147.383 29.0093 146.165 17.4902 146.165 17.4902H140.54L143.762 34.8606C143.84 35.2488 143.801 35.4782 143.645 35.75C143.025 36.9499 141.977 38.111 140.735 38.9615C139.726 39.6956 138.6 40.1614 137.708 40.472L139.181 44.9998C140.268 44.7669 142.519 43.8776 144.42 42.0989C146.866 39.8155 149.114 36.297 151.444 31.5009L158 17.4973H152.414V17.4902Z" fill="black"/>
</svg>
