<svg width="60" height="60" viewBox="0 0 60 60" fill="none" xmlns="http://www.w3.org/2000/svg">
<path d="M46.2002 16.2H12.2002V48.9H46.2002V16.2Z" fill="#FFDD33"/>
<path d="M60 9.00002V10.7H0V9.00002C0 6.50002 2.1 4.40002 4.6 4.40002H55.4C57.9 4.40002 60 6.50002 60 9.00002Z" fill="#002548"/>
<path d="M0 10.5V51C0 53.5 2.1 55.6 4.6 55.6H55.4C57.9 55.6 60 53.5 60 51V10.5H0ZM42.8 30.1L37.3 35.5L38.6 43.1C38.7 43.5 38.5 44 38.1 44.3C37.9 44.5 37.6 44.5 37.4 44.5C37.2 44.5 37 44.5 36.8 44.4L30 40.7L23.2 44.3C22.8 44.5 22.3 44.5 21.9 44.2C21.5 43.9 21.3 43.5 21.4 43L22.7 35.4L17.2 30C16.9 29.7 16.8 29.2 16.9 28.8C17 28.4 17.4 28 17.9 28L25.5 26.9L28.9 20C29.3 19.2 30.6 19.2 31.1 20L34.5 26.9L42.1 28C42.6 28.1 42.9 28.4 43.1 28.8C43.2 29.3 43.1 29.8 42.8 30.1Z" fill="#D2D9DC"/>
<path d="M5.00044 6.40002C5.60044 6.40002 6.10044 6.90002 6.10044 7.50002C6.10044 8.10002 5.60044 8.60002 5.00044 8.60002C4.40044 8.60002 3.90044 8.10002 3.90044 7.50002C3.80044 6.90002 4.30044 6.40002 5.00044 6.40002Z" fill="#ED1C24"/>
<path d="M8.6 6.40002C9.2 6.40002 9.7 6.90002 9.7 7.50002C9.7 8.10002 9.2 8.60002 8.6 8.60002C8 8.70002 7.5 8.20002 7.5 7.50002C7.5 6.90002 8 6.40002 8.6 6.40002Z" fill="#FFDD33"/>
<path d="M12.3002 6.40002C12.9002 6.40002 13.4002 6.90002 13.4002 7.50002C13.4002 8.10002 12.9002 8.60002 12.3002 8.60002C11.7002 8.60002 11.2002 8.10002 11.2002 7.50002C11.2002 6.90002 11.7002 6.40002 12.3002 6.40002Z" fill="#54CC5A"/>
</svg>
