<svg width="64" height="64" viewBox="0 0 64 64" fill="none" xmlns="http://www.w3.org/2000/svg">
<g clip-path="url(#clip0_11826_17521)">
<path d="M9.7 43.3999C4.4 43.3999 0 39.0999 0 33.6999C0 28.3999 4.3 23.9999 9.7 23.9999C10.2 23.9999 10.6 23.9999 11.1 24.0999C10.6 22.7999 10.3 21.3999 10.3 19.8999C10.3 13.2999 15.7 7.8999 22.3 7.8999C27.9 7.8999 32.6 11.7999 33.9 16.9999C35.9 15.4999 38.4 14.5999 41.1 14.5999C46.8 14.5999 51.7 18.6999 52.8 24.0999C53.3 23.9999 53.9 23.8999 54.4 23.8999C59.7 23.8999 64.1 28.1999 64.1 33.5999C64.1 38.8999 59.8 43.2999 54.4 43.2999H9.7V43.3999Z" fill="#D2D9DC"/>
<path d="M44.4031 42.5999C44.4031 49.9999 38.4031 55.9999 31.0031 55.9999C23.6031 55.9999 17.7031 49.9999 17.7031 42.6999C17.7031 35.3999 23.7031 29.3999 31.0031 29.3999C38.3031 29.3999 44.4031 35.1999 44.4031 42.5999Z" fill="#0054A6"/>
<path d="M33.1984 43.8L33.8984 47.3C33.9984 48 33.4984 48.6 32.8984 48.6H29.3984C28.6984 48.6 28.1984 48 28.3984 47.3L29.0984 43.8C28.0984 43.1 27.3984 41.9 27.3984 40.6C27.3984 39.5 27.7984 38.6001 28.4984 37.9001C29.1984 37.2001 30.1984 36.8 31.1984 36.8C32.1984 36.8 33.1984 37.2001 33.8984 37.9001C34.5984 38.6001 34.9984 39.6 34.9984 40.6C34.9984 41.7 34.5984 42.6 33.8984 43.3C33.5984 43.5 33.3984 43.6 33.1984 43.8Z" fill="#002548"/>
</g>
<defs>
<clipPath id="clip0_11826_17521">
<rect width="64" height="64" fill="white"/>
</clipPath>
</defs>
</svg>
