<svg width="48" height="48" viewBox="0 0 48 48" fill="none" xmlns="http://www.w3.org/2000/svg">
<path fill-rule="evenodd" clip-rule="evenodd" d="M21.9484 36.75H5.625C5.21062 36.75 4.875 36.4144 4.875 36V14.25C4.875 13.8356 5.21062 13.5 5.625 13.5H36.375C36.7894 13.5 37.125 13.8356 37.125 14.25V22.0211C36.2779 21.8434 35.3996 21.75 34.5 21.75C27.4631 21.75 21.75 27.4631 21.75 34.5C21.75 35.2676 21.8179 36.0195 21.9484 36.75Z" fill="#9FA8DA"/>
<path fill-rule="evenodd" clip-rule="evenodd" d="M22.5682 30H20.25C19.8356 30 19.5 29.6644 19.5 29.25V18.75C19.5 18.3356 19.8356 18 20.25 18H33C33.4144 18 33.75 18.3356 33.75 18.75V21.7717C28.6226 22.0699 24.3045 25.4032 22.5682 30Z" fill="#BBDEFB"/>
<path fill-rule="evenodd" clip-rule="evenodd" d="M16.875 22.5V36C16.875 36.4144 16.5394 36.75 16.125 36.75H8.625C8.21062 36.75 7.875 36.4144 7.875 36V22.5C7.875 22.0856 8.21062 21.75 8.625 21.75H16.125C16.5394 21.75 16.875 22.0856 16.875 22.5Z" fill="#BBDEFB"/>
<path fill-rule="evenodd" clip-rule="evenodd" d="M4.125 14.25V9C4.125 8.58562 4.46062 8.25 4.875 8.25H9C9.41437 8.25 9.75 8.58562 9.75 9V15H4.875C4.46062 15 4.125 14.6644 4.125 14.25Z" fill="#03A9F4"/>
<path fill-rule="evenodd" clip-rule="evenodd" d="M26.625 15V9C26.625 8.58562 26.9606 8.25 27.375 8.25H31.5C31.9144 8.25 32.25 8.58562 32.25 9V15H26.625Z" fill="#03A9F4"/>
<path fill-rule="evenodd" clip-rule="evenodd" d="M15.375 15V9C15.375 8.58562 15.7106 8.25 16.125 8.25H20.25C20.6644 8.25 21 8.58562 21 9V15H15.375Z" fill="#03A9F4"/>
<path fill-rule="evenodd" clip-rule="evenodd" d="M37.125 15H32.25V9C32.25 8.58562 32.5856 8.25 33 8.25H37.125C37.5394 8.25 37.875 8.58562 37.875 9V14.25C37.875 14.6644 37.5394 15 37.125 15Z" fill="#C62828"/>
<path fill-rule="evenodd" clip-rule="evenodd" d="M26.625 15H21V9C21 8.58562 21.3356 8.25 21.75 8.25H25.875C26.2894 8.25 26.625 8.58562 26.625 9V15Z" fill="#C62828"/>
<path fill-rule="evenodd" clip-rule="evenodd" d="M15.375 15H9.75V9C9.75 8.58562 10.0856 8.25 10.5 8.25H14.625C15.0394 8.25 15.375 8.58562 15.375 9V15Z" fill="#C62828"/>
<path fill-rule="evenodd" clip-rule="evenodd" d="M39.75 3V9C39.75 9.41437 39.4144 9.75 39 9.75H3C2.58562 9.75 2.25 9.41437 2.25 9V3C2.25 2.58562 2.58562 2.25 3 2.25H39C39.4144 2.25 39.75 2.58562 39.75 3Z" fill="#5C6BC0"/>
<path fill-rule="evenodd" clip-rule="evenodd" d="M22.8791 39.75H3C2.58562 39.75 2.25 39.4144 2.25 39V36C2.25 35.5856 2.58562 35.25 3 35.25H21.7717C21.8644 36.8464 22.2514 38.364 22.8791 39.75Z" fill="#5C6BC0"/>
<path fill-rule="evenodd" clip-rule="evenodd" d="M17.625 19.5V22.5C17.625 22.9144 17.2894 23.25 16.875 23.25H7.875C7.46062 23.25 7.125 22.9144 7.125 22.5V19.5C7.125 19.0856 7.46062 18.75 7.875 18.75H16.875C17.2894 18.75 17.625 19.0856 17.625 19.5Z" fill="#D32F2F"/>
<path d="M34.5 45.75C40.7132 45.75 45.75 40.7132 45.75 34.5C45.75 28.2868 40.7132 23.25 34.5 23.25C28.2868 23.25 23.25 28.2868 23.25 34.5C23.25 40.7132 28.2868 45.75 34.5 45.75Z" fill="#00B0FF"/>
<path fill-rule="evenodd" clip-rule="evenodd" d="M40.125 27.75V41.25C40.125 41.6644 39.7894 42 39.375 42H29.625C29.2106 42 28.875 41.6644 28.875 41.25V27.75C28.875 27.3356 29.2106 27 29.625 27H39.375C39.7894 27 40.125 27.3356 40.125 27.75Z" fill="#FDD835"/>
<path fill-rule="evenodd" clip-rule="evenodd" d="M34.5 29.625C35.5354 29.625 36.75 30.4646 36.75 31.875V33C36.75 33.414 36.414 33.75 36 33.75C35.586 33.75 35.25 33.414 35.25 33V31.875C35.25 31.293 34.707 31.125 34.5 31.125C34.293 31.125 33.75 31.293 33.75 31.875V33C33.75 33.414 33.414 33.75 33 33.75C32.586 33.75 32.25 33.414 32.25 33V31.875C32.25 30.4646 33.4646 29.625 34.5 29.625Z" fill="#F9A825"/>
<path fill-rule="evenodd" clip-rule="evenodd" d="M33.375 40.875C32.961 40.875 32.625 40.539 32.625 40.125C32.625 39.711 32.961 39.375 33.375 39.375H35.625C36.039 39.375 36.375 39.711 36.375 40.125C36.375 40.539 36.039 40.875 35.625 40.875H33.375Z" fill="#F9A825"/>
<path fill-rule="evenodd" clip-rule="evenodd" d="M37.4881 32.8657L38.2381 36.9907C38.2779 37.2097 38.2182 37.4347 38.0757 37.6054C37.9332 37.7764 37.7225 37.875 37.5001 37.875H31.5001C31.2777 37.875 31.0666 37.7764 30.9241 37.6054C30.7816 37.4347 30.7224 37.2097 30.7621 36.9907L31.5121 32.8657C31.577 32.5091 31.8875 32.25 32.2501 32.25H36.7501C37.1127 32.25 37.4232 32.5091 37.4881 32.8657Z" fill="#B71C1C"/>
</svg>
