<svg width="48" height="48" viewBox="0 0 48 48" fill="none" xmlns="http://www.w3.org/2000/svg">
<path opacity="0.891" fill-rule="evenodd" clip-rule="evenodd" d="M12.7031 1.73438C13.1643 2.0389 13.5706 2.4139 13.9219 2.85938C13.6065 3.25299 13.2471 3.59675 12.8438 3.89062C12.4261 3.56698 12.0354 3.2076 11.6719 2.8125C12.0347 2.46541 12.3785 2.10603 12.7031 1.73438Z" fill="#E9722C"/>
<path opacity="0.924" fill-rule="evenodd" clip-rule="evenodd" d="M35.0156 1.73438C35.4599 2.03726 35.8661 2.39664 36.2344 2.8125C35.8708 3.2076 35.4802 3.56698 35.0625 3.89062C34.6592 3.59675 34.2998 3.25299 33.9844 2.85938C34.3302 2.48249 34.6739 2.10749 35.0156 1.73438Z" fill="#EA732D"/>
<path opacity="0.997" fill-rule="evenodd" clip-rule="evenodd" d="M24.7031 10.4531C24.2032 10.4531 23.7031 10.4531 23.2031 10.4531C23.2031 9.70313 23.2031 8.95313 23.2031 8.20313C22.8268 8.21864 22.4518 8.20301 22.0781 8.15625C21.9063 8.10938 21.7969 8 21.75 7.82813C21.6875 6.57813 21.6875 5.32812 21.75 4.07813C21.7969 3.90626 21.9063 3.79688 22.0781 3.75C23.3281 3.6875 24.5782 3.6875 25.8281 3.75C26 3.79688 26.1094 3.90626 26.1563 4.07813C26.2188 5.32812 26.2188 6.57813 26.1563 7.82813C26.1094 8 26 8.10938 25.8281 8.15625C25.4545 8.20301 25.0795 8.21864 24.7031 8.20313C24.7031 8.95313 24.7031 9.70313 24.7031 10.4531Z" fill="#FFC119"/>
<path opacity="0.98" fill-rule="evenodd" clip-rule="evenodd" d="M18.5156 11.6719C18.0719 11.9897 17.6032 12.2709 17.1094 12.5156C16.519 11.8783 15.9097 11.2533 15.2812 10.6406C15.25 9.20313 15.2187 7.76562 15.1875 6.32813C14.7173 5.87362 14.2642 5.40487 13.8281 4.92188C14.1235 4.57956 14.436 4.25143 14.7656 3.9375C14.8594 3.875 14.9531 3.875 15.0469 3.9375C15.5937 4.48437 16.1407 5.03126 16.6875 5.57813C16.8082 7.04059 16.8707 8.50934 16.875 9.98438C17.4409 10.5346 17.9878 11.0971 18.5156 11.6719Z" fill="#FEC019"/>
<path opacity="0.959" fill-rule="evenodd" clip-rule="evenodd" d="M30.7969 12.5156C30.3031 12.2709 29.8343 11.9897 29.3906 11.6719C29.9184 11.0971 30.4654 10.5346 31.0312 9.98438C31.0356 8.50934 31.0981 7.04059 31.2188 5.57813C31.7656 5.03126 32.3125 4.48437 32.8594 3.9375C32.9531 3.875 33.0469 3.875 33.1406 3.9375C33.4703 4.25143 33.7827 4.57956 34.0781 4.92188C33.642 5.40487 33.1889 5.87362 32.7188 6.32813C32.6875 7.76562 32.6562 9.20313 32.625 10.6406C31.9966 11.2533 31.3872 11.8783 30.7969 12.5156Z" fill="#FEC019"/>
<path fill-rule="evenodd" clip-rule="evenodd" d="M23.2031 5.20312C23.7031 5.20312 24.2032 5.20312 24.7031 5.20312C24.7031 5.70312 24.7031 6.20313 24.7031 6.70312C24.2032 6.70312 23.7031 6.70312 23.2031 6.70312C23.2031 6.20313 23.2031 5.70312 23.2031 5.20312Z" fill="#E9732C"/>
<path opacity="0.984" fill-rule="evenodd" clip-rule="evenodd" d="M15.9844 13.3594C15.7031 13.8281 15.3281 14.2031 14.8594 14.4844C13.8471 13.5189 12.847 12.5346 11.8594 11.5312C11.7968 11.4687 11.7344 11.4687 11.6719 11.5312C11.3086 12.0426 10.8398 12.1988 10.2656 12C9.46875 11.2031 8.67188 10.4062 7.875 9.60938C7.84937 9.45928 7.80249 9.31864 7.73438 9.1875C7.80249 9.05636 7.84937 8.91574 7.875 8.76562C8.67188 7.96875 9.46875 7.17188 10.2656 6.375C10.4157 6.34937 10.5563 6.30249 10.6875 6.23438C10.8187 6.30249 10.9593 6.34937 11.1094 6.375C11.9716 7.20591 12.7998 8.06528 13.5938 8.95312C13.6286 9.453 13.4411 9.85922 13.0312 10.1719C12.9687 10.2344 12.9687 10.2968 13.0312 10.3594C14.0346 11.347 15.0189 12.3471 15.9844 13.3594Z" fill="#FEC119"/>
<path opacity="0.988" fill-rule="evenodd" clip-rule="evenodd" d="M33.0469 14.4844C32.5781 14.2031 32.2031 13.8281 31.9219 13.3594C32.8873 12.3471 33.8717 11.347 34.875 10.3594C34.9375 10.2968 34.9375 10.2344 34.875 10.1719C34.3628 9.80709 34.2065 9.33837 34.4062 8.76562C35.2031 7.96875 36 7.17188 36.7969 6.375C36.947 6.34937 37.0876 6.30249 37.2188 6.23438C37.3499 6.30249 37.4905 6.34937 37.6406 6.375C38.4375 7.17188 39.2344 7.96875 40.0312 8.76562C40.0568 8.91574 40.1037 9.05636 40.1719 9.1875C40.1037 9.31864 40.0568 9.45928 40.0312 9.60938C39.2344 10.4062 38.4375 11.2031 37.6406 12C37.0664 12.1988 36.5977 12.0426 36.2344 11.5312C36.1718 11.4687 36.1094 11.4687 36.0469 11.5312C35.0592 12.5346 34.0592 13.5189 33.0469 14.4844Z" fill="#FEC119"/>
<path fill-rule="evenodd" clip-rule="evenodd" d="M10.5469 8.20321C10.6455 8.1892 10.7392 8.20482 10.8281 8.25009C11.1406 8.56258 11.4532 8.87509 11.7656 9.18759C11.4063 9.54693 11.0468 9.90637 10.6875 10.2657C10.3236 9.93327 9.99544 9.57393 9.70312 9.18759C9.96769 8.8449 10.2489 8.51678 10.5469 8.20321Z" fill="#EA762C"/>
<path fill-rule="evenodd" clip-rule="evenodd" d="M37.0781 8.20312C37.5494 8.40795 37.9244 8.73608 38.2031 9.1875C37.9108 9.57384 37.5827 9.93319 37.2188 10.2656C36.8594 9.90628 36.5 9.54684 36.1406 9.1875C36.4722 8.87165 36.7848 8.54352 37.0781 8.20312Z" fill="#EA762C"/>
<path opacity="0.922" fill-rule="evenodd" clip-rule="evenodd" d="M4.26562 10.1719C4.68843 10.5166 5.06343 10.9072 5.39062 11.3438C5.09675 11.7471 4.75299 12.1065 4.35938 12.4219C3.95313 12.0781 3.57813 11.7031 3.23438 11.2969C3.58018 10.92 3.92393 10.545 4.26562 10.1719Z" fill="#EA722D"/>
<path opacity="0.925" fill-rule="evenodd" clip-rule="evenodd" d="M43.5469 10.1719C43.9511 10.5137 44.3261 10.8887 44.6719 11.2969C44.3281 11.7031 43.9531 12.0781 43.5469 12.4219C43.1576 12.0796 42.7826 11.7203 42.4219 11.3438C42.816 10.9654 43.191 10.5748 43.5469 10.1719Z" fill="#EA732C"/>
<path opacity="0.997" fill-rule="evenodd" clip-rule="evenodd" d="M23.2031 10.4531C23.7031 10.4531 24.2032 10.4531 24.7031 10.4531C26.352 10.5372 27.9145 10.9434 29.3906 11.6719C29.8343 11.9897 30.3031 12.2709 30.7969 12.5156C31.1719 12.7969 31.5469 13.0781 31.9219 13.3594C32.2031 13.8281 32.5781 14.2031 33.0469 14.4844C33.3281 14.8594 33.6094 15.2344 33.8906 15.6094C34.1353 16.1032 34.4166 16.5719 34.7344 17.0156C35.228 18.0278 35.5718 19.0902 35.7656 20.2031C35.8142 20.7174 35.8767 21.2174 35.9531 21.7031C35.9531 22.2031 35.9531 22.7032 35.9531 23.2031C35.8439 23.6843 35.7814 24.1843 35.7656 24.7031C35.5718 25.816 35.228 26.8785 34.7344 27.8906C34.3827 28.312 34.1015 28.7808 33.8906 29.2969C33.6094 29.6719 33.3281 30.0469 33.0469 30.4219C32.5781 30.7031 32.2031 31.0781 31.9219 31.5469C31.5469 31.8281 31.1719 32.1094 30.7969 32.3906C30.3031 32.6353 29.8343 32.9166 29.3906 33.2344C28.1501 33.8561 26.8376 34.2311 25.4531 34.3594C24.4503 34.4824 23.4503 34.4824 22.4531 34.3594C21.0686 34.2311 19.7561 33.8561 18.5156 33.2344C18.0942 32.8827 17.6255 32.6015 17.1094 32.3906C16.7344 32.1094 16.3594 31.8281 15.9844 31.5469C15.7031 31.0781 15.3281 30.7031 14.8594 30.4219C14.5781 30.0469 14.2969 29.6719 14.0156 29.2969C13.7709 28.8031 13.4897 28.3343 13.1719 27.8906C12.6783 26.8785 12.3345 25.816 12.1406 24.7031C12.1055 24.1867 12.0429 23.6867 11.9531 23.2031C11.9531 22.7032 11.9531 22.2031 11.9531 21.7031C12.0295 21.2174 12.0921 20.7174 12.1406 20.2031C12.3345 19.0902 12.6783 18.0278 13.1719 17.0156C13.4897 16.5719 13.7709 16.1032 14.0156 15.6094C14.2969 15.2344 14.5781 14.8594 14.8594 14.4844C15.3281 14.2031 15.7031 13.8281 15.9844 13.3594C16.3594 13.0781 16.7344 12.7969 17.1094 12.5156C17.6032 12.2709 18.0719 11.9897 18.5156 11.6719C19.9917 10.9434 21.5542 10.5372 23.2031 10.4531Z" fill="#3890CD"/>
<path opacity="0.986" fill-rule="evenodd" clip-rule="evenodd" d="M14.0156 15.6094C13.7709 16.1032 13.4897 16.5719 13.1719 17.0156C12.5971 16.4878 12.0346 15.9409 11.4844 15.375C10.0093 15.3707 8.54059 15.3082 7.07813 15.1875C6.53126 14.6407 5.98437 14.0937 5.4375 13.5469C5.375 13.4531 5.375 13.3594 5.4375 13.2656C5.75143 12.936 6.07956 12.6235 6.42188 12.3281C6.90487 12.7642 7.37362 13.2173 7.82813 13.6875C9.26562 13.7187 10.7032 13.75 12.1406 13.7812C12.7533 14.4097 13.3783 15.019 14.0156 15.6094Z" fill="#FEC019"/>
<path opacity="0.975" fill-rule="evenodd" clip-rule="evenodd" d="M34.7344 17.0156C34.4166 16.5719 34.1353 16.1032 33.8906 15.6094C34.5279 15.019 35.153 14.4097 35.7656 13.7812C37.2031 13.75 38.6407 13.7187 40.0781 13.6875C40.5326 13.2173 41.0014 12.7642 41.4844 12.3281C41.8267 12.6235 42.1548 12.936 42.4688 13.2656C42.5313 13.3594 42.5313 13.4531 42.4688 13.5469C41.9219 14.0937 41.375 14.6407 40.8281 15.1875C39.3656 15.3082 37.8969 15.3707 36.4219 15.375C35.8717 15.9409 35.3092 16.4878 34.7344 17.0156Z" fill="#FEC019"/>
<path fill-rule="evenodd" clip-rule="evenodd" d="M22.7346 13.4533C27.4748 13.2134 30.7403 15.2759 32.5314 19.6408C33.5498 23.4907 32.5966 26.7563 29.6721 29.4377C26.5187 31.7616 23.1749 32.074 19.6408 30.3752C15.6597 27.8323 14.2378 24.2542 15.3752 19.6408C16.6785 16.1958 19.1317 14.1333 22.7346 13.4533Z" fill="#7DCCE6"/>
<path fill-rule="evenodd" clip-rule="evenodd" d="M23.2969 15.703C24.7526 15.5666 26.0963 15.879 27.3281 16.6405C27.0784 17.0611 26.8128 17.4673 26.5313 17.8592C23.2372 16.4988 20.7372 17.3738 19.0313 20.4842C18.6045 20.3382 18.1983 20.1507 17.8125 19.9217C17.75 19.828 17.75 19.7342 17.8125 19.6405C18.9538 17.3568 20.782 16.0443 23.2969 15.703Z" fill="#9FDDEA"/>
<path fill-rule="evenodd" clip-rule="evenodd" d="M23.1092 19.1717C23.6921 19.6222 23.8171 20.1847 23.4842 20.8592C23.2363 21.4197 22.8301 21.826 22.2655 22.078C21.6087 22.3061 21.0774 22.1498 20.6717 21.6092C20.4656 20.4133 20.9343 19.5852 22.078 19.1249C22.4251 19.0706 22.7688 19.0862 23.1092 19.1717Z" fill="#E7F0F1"/>
<path fill-rule="evenodd" clip-rule="evenodd" d="M20.6719 21.6095C21.0776 22.15 21.6089 22.3063 22.2657 22.0782C22.2487 23.5459 22.9675 24.2177 24.4219 24.0938C25.6426 23.5117 25.9395 22.621 25.3125 21.422C24.8134 20.8649 24.204 20.6774 23.4844 20.8595C23.8172 20.1849 23.6923 19.6224 23.1094 19.172C25.0452 18.882 26.4045 19.632 27.1875 21.422C27.5803 24.0766 26.4396 25.5453 23.7657 25.8282C21.4044 25.4037 20.3731 23.9975 20.6719 21.6095Z" fill="#9FDDEA"/>
<path fill-rule="evenodd" clip-rule="evenodd" d="M4.45312 20.2031C4.95312 20.2031 5.45313 20.2031 5.95312 20.2031C5.95312 20.7031 5.95312 21.2032 5.95312 21.7031C5.45313 21.7031 4.95312 21.7031 4.45312 21.7031C4.45312 21.2032 4.45312 20.7031 4.45312 20.2031Z" fill="#E9732C"/>
<path fill-rule="evenodd" clip-rule="evenodd" d="M12.1406 20.2031C12.0921 20.7174 12.0295 21.2174 11.9531 21.7031C10.4531 21.7031 8.95312 21.7031 7.45312 21.7031C7.45312 21.2032 7.45312 20.7031 7.45312 20.2031C9.01563 20.2031 10.5781 20.2031 12.1406 20.2031Z" fill="#FEC01A"/>
<path fill-rule="evenodd" clip-rule="evenodd" d="M35.7656 20.2031C37.3282 20.2031 38.8906 20.2031 40.4531 20.2031C40.4531 20.7031 40.4531 21.2032 40.4531 21.7031C38.9531 21.7031 37.4531 21.7031 35.9531 21.7031C35.8767 21.2174 35.8142 20.7174 35.7656 20.2031Z" fill="#FEC01A"/>
<path fill-rule="evenodd" clip-rule="evenodd" d="M41.9531 20.2031C42.4531 20.2031 42.9532 20.2031 43.4531 20.2031C43.4531 20.7031 43.4531 21.2032 43.4531 21.7031C42.9532 21.7031 42.4531 21.7031 41.9531 21.7031C41.9531 21.2032 41.9531 20.7031 41.9531 20.2031Z" fill="#E9732C"/>
<path fill-rule="evenodd" clip-rule="evenodd" d="M22.2654 22.0783C22.83 21.8263 23.2362 21.4199 23.4842 20.8595C24.2038 20.6774 24.8132 20.8649 25.3123 21.422C25.9393 22.6211 25.6424 23.5117 24.4217 24.0939C22.9672 24.2177 22.2485 23.5459 22.2654 22.0783Z" fill="#7ECCE6"/>
<path fill-rule="evenodd" clip-rule="evenodd" d="M17.2034 21.6094C17.7034 21.6719 18.2034 21.7343 18.7034 21.7969C18.7034 22.2344 18.7034 22.6718 18.7034 23.1094C18.23 23.1446 17.7612 23.2071 17.2971 23.2969C17.2038 22.7378 17.1725 22.1753 17.2034 21.6094Z" fill="#9FDDEA"/>
<path fill-rule="evenodd" clip-rule="evenodd" d="M1.45312 23.2031C1.95312 23.2031 2.45313 23.2031 2.95312 23.2031C2.95312 23.7031 2.95312 24.2032 2.95312 24.7031C2.45313 24.7031 1.95312 24.7031 1.45312 24.7031C1.45312 24.2032 1.45312 23.7031 1.45312 23.2031Z" fill="#E9732C"/>
<path fill-rule="evenodd" clip-rule="evenodd" d="M11.9531 23.2031C12.0429 23.6867 12.1055 24.1867 12.1406 24.7031C9.57816 24.7031 7.01562 24.7031 4.45312 24.7031C4.45312 24.2032 4.45312 23.7031 4.45312 23.2031C6.95313 23.2031 9.45309 23.2031 11.9531 23.2031Z" fill="#FEC019"/>
<path fill-rule="evenodd" clip-rule="evenodd" d="M35.9531 23.2031C38.4532 23.2031 40.9531 23.2031 43.4531 23.2031C43.4531 23.7031 43.4531 24.2032 43.4531 24.7031C40.8907 24.7031 38.3281 24.7031 35.7656 24.7031C35.7814 24.1843 35.8439 23.6843 35.9531 23.2031Z" fill="#FEC01A"/>
<path fill-rule="evenodd" clip-rule="evenodd" d="M44.9531 23.2031C45.4531 23.2031 45.9532 23.2031 46.4531 23.2031C46.4531 23.7031 46.4531 24.2032 46.4531 24.7031C45.9532 24.7031 45.4531 24.7031 44.9531 24.7031C44.9531 24.2032 44.9531 23.7031 44.9531 23.2031Z" fill="#E9732C"/>
<path opacity="0.981" fill-rule="evenodd" clip-rule="evenodd" d="M13.1719 27.8906C13.4897 28.3343 13.7709 28.8031 14.0156 29.2969C13.3783 29.8872 12.7533 30.4966 12.1406 31.125C10.7032 31.1562 9.26562 31.1875 7.82813 31.2188C7.37362 31.6889 6.90487 32.142 6.42188 32.5781C6.07956 32.2827 5.75143 31.9703 5.4375 31.6406C5.375 31.5469 5.375 31.4531 5.4375 31.3594C5.98437 30.8125 6.53126 30.2656 7.07813 29.7188C8.54059 29.5981 10.0093 29.5356 11.4844 29.5312C12.0346 28.9654 12.5971 28.4184 13.1719 27.8906Z" fill="#FEC019"/>
<path opacity="0.983" fill-rule="evenodd" clip-rule="evenodd" d="M34.7344 27.8906C35.3092 28.4184 35.8717 28.9654 36.4219 29.5312C37.8969 29.5356 39.3656 29.5981 40.8281 29.7188C41.375 30.2656 41.9219 30.8125 42.4688 31.3594C42.5313 31.4531 42.5313 31.5469 42.4688 31.6406C42.1548 31.9703 41.8267 32.2827 41.4844 32.5781C41.0014 32.142 40.5326 31.6889 40.0781 31.2188C38.6407 31.1875 37.2031 31.1562 35.7656 31.125C35.153 30.4966 34.5279 29.8872 33.8906 29.2969C34.1015 28.7808 34.3827 28.312 34.7344 27.8906Z" fill="#FEC019"/>
<path opacity="0.984" fill-rule="evenodd" clip-rule="evenodd" d="M33.0469 30.4219C34.0592 31.3873 35.0592 32.3717 36.0469 33.375C36.1094 33.4375 36.1718 33.4375 36.2344 33.375C36.5977 32.8637 37.0664 32.7075 37.6406 32.9062C38.4375 33.7031 39.2344 34.5 40.0312 35.2969C40.0568 35.447 40.1037 35.5876 40.1719 35.7188C40.1037 35.8499 40.0568 35.9905 40.0312 36.1406C39.2344 36.9375 38.4375 37.7344 37.6406 38.5312C37.4905 38.5568 37.3499 38.6037 37.2188 38.6719C37.0876 38.6037 36.947 38.5568 36.7969 38.5312C36 37.7344 35.2031 36.9375 34.4062 36.1406C34.2075 35.5664 34.3637 35.0977 34.875 34.7344C34.9375 34.6718 34.9375 34.6094 34.875 34.5469C33.8717 33.5592 32.8873 32.5592 31.9219 31.5469C32.2031 31.0781 32.5781 30.7031 33.0469 30.4219Z" fill="#FEC019"/>
<path opacity="0.986" fill-rule="evenodd" clip-rule="evenodd" d="M14.8594 30.4219C15.3281 30.7031 15.7031 31.0781 15.9844 31.5469C15.0189 32.5592 14.0346 33.5592 13.0312 34.5469C12.9687 34.6094 12.9687 34.6718 13.0312 34.7344C13.5435 35.0992 13.6998 35.5679 13.5 36.1406C12.7031 36.9375 11.9062 37.7344 11.1094 38.5312C10.9593 38.5568 10.8187 38.6037 10.6875 38.6719C10.5563 38.6037 10.4157 38.5568 10.2656 38.5312C9.46875 37.7344 8.67188 36.9375 7.875 36.1406C7.84937 35.9905 7.80249 35.8499 7.73438 35.7188C7.80249 35.5876 7.84937 35.447 7.875 35.2969C8.67188 34.5 9.46875 33.7031 10.2656 32.9062C10.8398 32.7075 11.3086 32.8637 11.6719 33.375C11.7344 33.4375 11.7968 33.4375 11.8594 33.375C12.847 32.3717 13.8471 31.3873 14.8594 30.4219Z" fill="#FEC119"/>
<path opacity="0.955" fill-rule="evenodd" clip-rule="evenodd" d="M17.1094 32.3906C17.6255 32.6015 18.0942 32.8827 18.5156 33.2344C17.9878 33.8092 17.4409 34.3717 16.875 34.9219C16.8707 36.3969 16.8082 37.8656 16.6875 39.3281C16.1407 39.875 15.5937 40.4219 15.0469 40.9688C14.9531 41.0313 14.8594 41.0313 14.7656 40.9688C14.436 40.6548 14.1235 40.3267 13.8281 39.9844C14.2642 39.5014 14.7173 39.0326 15.1875 38.5781C15.2187 37.1407 15.25 35.7031 15.2812 34.2656C15.9097 33.653 16.519 33.0279 17.1094 32.3906Z" fill="#FEC019"/>
<path opacity="0.983" fill-rule="evenodd" clip-rule="evenodd" d="M30.7969 32.3906C31.3872 33.0279 31.9966 33.653 32.625 34.2656C32.6562 35.7031 32.6875 37.1407 32.7188 38.5781C33.1889 39.0326 33.642 39.5014 34.0781 39.9844C33.7827 40.3267 33.4703 40.6548 33.1406 40.9688C33.0469 41.0313 32.9531 41.0313 32.8594 40.9688C32.3125 40.4219 31.7656 39.875 31.2188 39.3281C31.0981 37.8656 31.0356 36.3969 31.0312 34.9219C30.4654 34.3717 29.9184 33.8092 29.3906 33.2344C29.8343 32.9166 30.3031 32.6353 30.7969 32.3906Z" fill="#FEC019"/>
<path opacity="0.891" fill-rule="evenodd" clip-rule="evenodd" d="M4.26562 32.4844C4.7139 32.7607 5.0889 33.12 5.39062 33.5625C5.06698 33.9802 4.7076 34.3708 4.3125 34.7344C3.93604 34.3736 3.57667 33.9986 3.23438 33.6094C3.58018 33.2325 3.92393 32.8575 4.26562 32.4844Z" fill="#E9722C"/>
<path opacity="0.926" fill-rule="evenodd" clip-rule="evenodd" d="M43.4531 32.4844C43.9143 32.7889 44.3206 33.1639 44.6719 33.6094C44.3296 33.9986 43.9703 34.3736 43.5938 34.7344C43.2031 34.3437 42.8125 33.9532 42.4219 33.5625C42.7847 33.2154 43.1285 32.856 43.4531 32.4844Z" fill="#EA732D"/>
<path fill-rule="evenodd" clip-rule="evenodd" d="M22.4531 34.3594C23.4503 34.4824 24.4503 34.4824 25.4531 34.3594C25.4531 37.1407 25.4531 39.9218 25.4531 42.7031C24.4531 42.7031 23.4532 42.7031 22.4531 42.7031C22.4531 39.9218 22.4531 37.1407 22.4531 34.3594Z" fill="#A2783B"/>
<path fill-rule="evenodd" clip-rule="evenodd" d="M10.6406 34.6406C11.0279 34.9809 11.4029 35.3403 11.7656 35.7188C11.4332 36.0827 11.0738 36.4108 10.6875 36.7031C10.2968 36.4375 9.96872 36.1094 9.70312 35.7188C9.999 35.3448 10.3115 34.9853 10.6406 34.6406Z" fill="#EA762C"/>
<path fill-rule="evenodd" clip-rule="evenodd" d="M37.1719 34.6406C37.5635 34.9541 37.9073 35.3135 38.2031 35.7188C37.9375 36.1094 37.6094 36.4375 37.2188 36.7031C36.8324 36.4108 36.4731 36.0827 36.1406 35.7188C36.5034 35.3717 36.8472 35.0123 37.1719 34.6406Z" fill="#EA762C"/>
<path opacity="0.922" fill-rule="evenodd" clip-rule="evenodd" d="M12.7031 41.0156C13.1876 41.2487 13.5938 41.5925 13.9219 42.0469C13.5781 42.4531 13.2031 42.8281 12.7969 43.1719C12.4076 42.8296 12.0326 42.4703 11.6719 42.0938C12.0347 41.7467 12.3785 41.3873 12.7031 41.0156Z" fill="#EA732D"/>
<path opacity="0.89" fill-rule="evenodd" clip-rule="evenodd" d="M34.9219 41.0156C35.4247 41.2521 35.831 41.6114 36.1406 42.0938C35.8467 42.4971 35.503 42.8565 35.1094 43.1719C34.7032 42.8281 34.3282 42.4531 33.9844 42.0469C34.2989 41.7012 34.6115 41.3575 34.9219 41.0156Z" fill="#E9732C"/>
<path fill-rule="evenodd" clip-rule="evenodd" d="M22.4531 42.7031C23.4531 42.7031 24.4531 42.7031 25.4531 42.7031C25.4812 43.4272 25.45 44.1459 25.3593 44.8594C24.9235 45.639 24.2673 45.9047 23.3906 45.6562C22.9687 45.4844 22.6718 45.1875 22.5 44.7656C22.4531 44.0788 22.4375 43.3913 22.4531 42.7031Z" fill="#80582E"/>
</svg>
