<svg width="114" height="114" viewBox="0 0 114 114" fill="none" xmlns="http://www.w3.org/2000/svg">
<path d="M3.7998 34.2001C3.7998 30.0001 7.1998 26.6001 11.3998 26.6001H102.6C106.8 26.6001 110.2 30.0001 110.2 34.2001V102.6H3.7998V34.2001Z" fill="#D2D9DC"/>
<path d="M11.4004 34.2H102.6V87.4H11.4004V34.2Z" fill="#2D2F31"/>
<path d="M114 95V100.7C114 103.8 111.4 106.4 108.3 106.4H5.7C2.6 106.4 0 103.8 0 100.7V95H43.7L49.4 98.8H64.6L70.3 95H114Z" fill="#839299"/>
<path d="M57.0002 53.2001C69.5923 53.2001 79.8002 42.9922 79.8002 30.4001C79.8002 17.808 69.5923 7.6001 57.0002 7.6001C44.4081 7.6001 34.2002 17.808 34.2002 30.4001C34.2002 42.9922 44.4081 53.2001 57.0002 53.2001Z" fill="#0054A6"/>
<path d="M57.0002 43.7001C59.0989 43.7001 60.8002 41.9988 60.8002 39.9001C60.8002 37.8014 59.0989 36.1001 57.0002 36.1001C54.9015 36.1001 53.2002 37.8014 53.2002 39.9001C53.2002 41.9988 54.9015 43.7001 57.0002 43.7001Z" fill="white"/>
<path d="M63.6996 33.2001C59.9996 29.5001 53.9996 29.5001 50.2996 33.2001L47.5996 30.5001C52.7996 25.3001 61.1996 25.3001 66.3996 30.5001L63.6996 33.2001Z" fill="white"/>
<path d="M70.4004 26.5C63.0004 19 51.0004 19 43.6004 26.5L40.9004 23.8C49.8004 14.9 64.2004 14.9 73.1004 23.8L70.4004 26.5Z" fill="white"/>
<path d="M30.4 72.2001L22.8 77.9001L24.7 68.4001L19 62.7001H26.6L30.4 55.1001L34.2 62.7001H41.8L36.1 68.4001L38 77.9001L30.4 72.2001Z" fill="#FFDD33"/>
<path d="M56.9996 75.9999L49.3996 81.6999L51.2996 72.1999L45.5996 66.4999H53.1996L56.9996 58.8999L60.7996 66.4999H68.3996L62.6996 72.1999L64.5996 81.6999L56.9996 75.9999Z" fill="#FFDD33"/>
<path d="M83.6002 72.2001L76.0002 77.9001L77.9002 68.4001L72.2002 62.7001H79.8002L83.6002 55.1001L87.4002 62.7001H95.0002L89.3002 68.4001L91.2002 77.9001L83.6002 72.2001Z" fill="#FFDD33"/>
</svg>
