<svg width="48" height="48" viewBox="0 0 48 48" fill="none" xmlns="http://www.w3.org/2000/svg">
<path opacity="0.985" fill-rule="evenodd" clip-rule="evenodd" d="M13.8278 12.6092C13.4528 13.0467 13.0466 13.453 12.6091 13.828C10.1694 15.1948 7.9975 14.8511 6.09345 12.7967C5.20857 11.5089 4.95857 10.1026 5.34345 8.57796C6.40958 5.84903 8.39396 4.7709 11.2966 5.34358C13.8829 6.36872 14.961 8.25935 14.531 11.0155C14.3956 11.5945 14.1612 12.1257 13.8278 12.6092Z" fill="#74DCFE"/>
<path opacity="0.983" fill-rule="evenodd" clip-rule="evenodd" d="M35.297 13.8281C34.8864 13.4484 34.4802 13.0734 34.0782 12.7031C32.7014 10.2295 33.0452 8.02634 35.1095 6.09369C36.3992 5.21461 37.8055 4.96461 39.3282 5.34369C41.8648 6.29 42.9743 8.11812 42.6564 10.8281C42.1095 12.9687 40.7502 14.2344 38.5782 14.6249C37.3827 14.7557 36.2891 14.4901 35.297 13.8281Z" fill="#74DCFE"/>
<path fill-rule="evenodd" clip-rule="evenodd" d="M9.51585 7.26584C10.3321 7.22238 10.6603 7.59738 10.5002 8.39084C10.2915 8.79966 9.96341 8.94029 9.51585 8.81271C9.08755 8.57445 8.94692 8.21508 9.09397 7.73459C9.19006 7.52955 9.33069 7.37331 9.51585 7.26584Z" fill="#287EFE"/>
<path fill-rule="evenodd" clip-rule="evenodd" d="M36.6094 7.45312C37.5475 7.43751 38.485 7.45313 39.4219 7.49999C39.8731 7.87887 39.9043 8.28512 39.5156 8.71874C38.933 8.85144 38.3393 8.89832 37.7344 8.85937C37.7344 8.98436 37.7344 9.10937 37.7344 9.23437C38.0796 9.21887 38.4233 9.2345 38.7656 9.28124C39.3496 9.67227 39.3808 10.1097 38.8594 10.5937C38.4972 10.7207 38.1222 10.7676 37.7344 10.7344C37.75 11.1418 37.7343 11.548 37.6875 11.9531C37.4592 12.396 37.0998 12.5366 36.6094 12.375C36.5 12.2656 36.3907 12.1563 36.2813 12.0469C36.2187 10.6406 36.2187 9.23437 36.2813 7.82812C36.4103 7.71514 36.5196 7.59014 36.6094 7.45312Z" fill="#267CFE"/>
<path fill-rule="evenodd" clip-rule="evenodd" d="M9.60938 9.14066C10.0575 9.06012 10.3856 9.21637 10.5938 9.60941C10.6563 10.4844 10.6563 11.3594 10.5938 12.2344C10.0941 12.8729 9.62531 12.8416 9.1875 12.1407C9.125 11.2969 9.125 10.4532 9.1875 9.60941C9.34756 9.46532 9.48816 9.30903 9.60938 9.14066Z" fill="#277EFE"/>
<path opacity="0.989" fill-rule="evenodd" clip-rule="evenodd" d="M13.8281 12.6094C15.5782 14.3906 17.3281 16.1719 19.0781 17.9531C19.0904 18.0224 19.0747 18.0849 19.0312 18.1406C18.6906 18.4826 18.3312 18.7951 17.9531 19.0781C16.1719 17.3281 14.3906 15.5782 12.6094 13.8281C13.0469 13.4531 13.4531 13.0469 13.8281 12.6094Z" fill="#74EC90"/>
<path opacity="0.978" fill-rule="evenodd" clip-rule="evenodd" d="M34.0781 12.7031C34.48 13.0734 34.8863 13.4484 35.2969 13.8281C33.5782 15.6094 31.8281 17.3594 30.0469 19.0781C29.9776 19.0904 29.9151 19.0747 29.8594 19.0312C29.5547 18.6496 29.2422 18.2902 28.9219 17.9531C30.6406 16.2031 32.3594 14.4532 34.0781 12.7031Z" fill="#75ED8F"/>
<path fill-rule="evenodd" clip-rule="evenodd" d="M23.7656 16.2658C22.7615 18.47 22.1677 20.7824 21.9844 23.2033C23.2657 23.2033 24.5468 23.2033 25.8281 23.2033C25.6444 20.7808 25.0507 18.4682 24.0469 16.2658C24.6193 16.2542 25.1818 16.3168 25.7344 16.4533C26.6783 18.6043 27.1784 20.8543 27.2344 23.2033C28.7032 23.2033 30.1718 23.2033 31.6406 23.2033C31.6406 23.7032 31.6406 24.2033 31.6406 24.7033C30.1718 24.7033 28.7032 24.7033 27.2344 24.7033C27.1734 26.9131 26.7203 29.0382 25.875 31.0783C25.8056 31.3098 25.665 31.4661 25.4531 31.547C25.4219 31.547 25.3906 31.547 25.3594 31.547C24.9144 31.5834 24.4769 31.5834 24.0469 31.547C25.0661 29.3762 25.6286 27.095 25.7344 24.7033C24.5156 24.7033 23.2969 24.7033 22.0781 24.7033C22.112 25.8086 22.2526 26.9023 22.5 27.9845C22.8576 29.229 23.2794 30.4478 23.7656 31.6408C23.6407 31.6408 23.5156 31.6408 23.3906 31.6408C22.9386 31.6546 22.5011 31.5921 22.0781 31.4533C21.4037 29.7244 20.9194 27.9432 20.625 26.1095C20.5782 25.6418 20.5626 25.173 20.5781 24.7033C19.1407 24.7033 17.7031 24.7033 16.2656 24.7033C16.2656 24.2033 16.2656 23.7032 16.2656 23.2033C17.7031 23.2033 19.1407 23.2033 20.5781 23.2033C20.6345 20.8531 21.1344 18.6031 22.0781 16.4533C22.6307 16.3168 23.1932 16.2542 23.7656 16.2658Z" fill="white"/>
<path fill-rule="evenodd" clip-rule="evenodd" d="M23.7656 16.2656C23.8594 16.2656 23.9531 16.2656 24.0469 16.2656C25.0507 18.4681 25.6444 20.7806 25.8281 23.2031C24.5468 23.2031 23.2657 23.2031 21.9844 23.2031C22.1677 20.7823 22.7615 18.4699 23.7656 16.2656Z" fill="#59C36A"/>
<path opacity="0.992" fill-rule="evenodd" clip-rule="evenodd" d="M22.0781 16.4531C21.1344 18.603 20.6345 20.853 20.5781 23.2031C19.1407 23.2031 17.7031 23.2031 16.2656 23.2031C16.4804 21.6832 17.0429 20.3082 17.9531 19.0781C18.3312 18.7951 18.6906 18.4826 19.0312 18.1406C19.0747 18.0849 19.0904 18.0224 19.0781 17.9531C19.9746 17.2577 20.9746 16.7577 22.0781 16.4531Z" fill="#59C36A"/>
<path opacity="0.993" fill-rule="evenodd" clip-rule="evenodd" d="M16.2656 24.7031C17.7031 24.7031 19.1407 24.7031 20.5781 24.7031C20.5626 25.1729 20.5782 25.6417 20.625 26.1094C20.9194 27.943 21.4037 29.7243 22.0781 31.4531C20.9952 31.2084 20.0265 30.7397 19.1719 30.0469C18.7969 29.6093 18.3907 29.2031 17.9531 28.8281C17.0069 27.6156 16.4444 26.2405 16.2656 24.7031Z" fill="#59C36A"/>
<path fill-rule="evenodd" clip-rule="evenodd" d="M25.3594 31.5469C24.7078 31.7269 24.0516 31.7581 23.3906 31.6406C23.5156 31.6406 23.6407 31.6406 23.7656 31.6406C23.2794 30.4477 22.8576 29.2289 22.5 27.9844C22.2526 26.9021 22.112 25.8084 22.0781 24.7031C23.2969 24.7031 24.5156 24.7031 25.7344 24.7031C25.6286 27.0949 25.0661 29.3761 24.0469 31.5469C24.4769 31.5833 24.9144 31.5833 25.3594 31.5469Z" fill="#59C36A"/>
<path opacity="0.994" fill-rule="evenodd" clip-rule="evenodd" d="M25.7344 16.4531C26.9211 16.7029 27.9836 17.2028 28.9219 17.9531C29.2422 18.2902 29.5547 18.6496 29.8594 19.0312C29.9151 19.0747 29.9776 19.0904 30.0469 19.0781C31.8373 21.5334 32.1967 24.1897 31.125 27.0469C30.8562 27.7039 30.4968 28.2977 30.0469 28.8281C29.6093 29.2031 29.2031 29.6093 28.8281 30.0469C27.8442 30.8511 26.7192 31.351 25.4531 31.5469C25.665 31.466 25.8056 31.3097 25.875 31.0781C26.7203 29.038 27.1734 26.913 27.2344 24.7031C28.7032 24.7031 30.1718 24.7031 31.6406 24.7031C31.6406 24.2032 31.6406 23.7031 31.6406 23.2031C30.1718 23.2031 28.7032 23.2031 27.2344 23.2031C27.1784 20.8542 26.6783 18.6042 25.7344 16.4531Z" fill="#59C36A"/>
<path opacity="0.978" fill-rule="evenodd" clip-rule="evenodd" d="M17.9531 28.8281C18.3907 29.2031 18.7969 29.6093 19.1719 30.0469C17.3906 31.7969 15.6094 33.5468 13.8281 35.2969C13.4484 34.8863 13.0734 34.48 12.7031 34.0781C14.4844 32.3594 16.2344 30.6094 17.9531 28.8281Z" fill="#75ED8F"/>
<path opacity="0.988" fill-rule="evenodd" clip-rule="evenodd" d="M30.0469 28.8281C31.7656 30.6094 33.5156 32.3594 35.2969 34.0781C34.8593 34.4531 34.4531 34.8593 34.0781 35.2969C32.3594 33.5156 30.6094 31.7656 28.8281 30.0469C29.2031 29.6093 29.6093 29.2031 30.0469 28.8281Z" fill="#74EC8F"/>
<path opacity="0.982" fill-rule="evenodd" clip-rule="evenodd" d="M12.7027 34.0781C13.073 34.48 13.448 34.8863 13.8277 35.2969C15.1946 37.7365 14.8508 39.9085 12.7965 41.8125C11.0703 42.8879 9.28905 42.9817 7.45272 42.0938C5.4231 40.6617 4.75123 38.7399 5.4371 36.3281C6.53932 33.9253 8.3987 32.941 11.0152 33.375C11.6139 33.534 12.1764 33.7684 12.7027 34.0781Z" fill="#74DCFE"/>
<path opacity="0.984" fill-rule="evenodd" clip-rule="evenodd" d="M34.0783 35.2967C34.4533 34.8592 34.8595 34.4529 35.297 34.0779C37.7367 32.7111 39.9086 33.0548 41.8126 35.1092C42.6917 36.3989 42.9417 37.8052 42.5626 39.3279C41.6163 41.8645 39.7882 42.974 37.0783 42.6561C34.9376 42.1092 33.6719 40.7498 33.2814 38.5779C33.1506 37.3824 33.4162 36.2887 34.0783 35.2967Z" fill="#74DCFE"/>
<path fill-rule="evenodd" clip-rule="evenodd" d="M36.6094 35.4844C36.9941 35.4158 37.3222 35.5096 37.5938 35.7656C37.7239 36.2224 37.7708 36.6911 37.7344 37.1719C38.3157 37.0579 38.8001 37.2142 39.1875 37.6406C39.2838 37.9856 39.2057 38.2825 38.9531 38.5312C38.5594 38.6594 38.1532 38.7063 37.7344 38.6719C37.7344 38.7968 37.7344 38.9219 37.7344 39.0469C38.2665 39.0313 38.7978 39.0469 39.3281 39.0937C39.9121 39.4848 39.9433 39.9222 39.4219 40.4062C38.4844 40.4688 37.5469 40.4688 36.6094 40.4062C36.5 40.2968 36.3907 40.1875 36.2813 40.0781C36.2187 38.6719 36.2187 37.2656 36.2813 35.8594C36.4103 35.7464 36.5196 35.6214 36.6094 35.4844Z" fill="#267CFE"/>
<path fill-rule="evenodd" clip-rule="evenodd" d="M9.42177 35.6717C10.3011 35.5879 11.0042 35.9005 11.5311 36.6092C11.9949 37.5303 12.245 38.4991 12.2811 39.5155C11.8829 39.9651 11.461 39.9964 11.0155 39.6092C10.3339 40.1781 9.55265 40.3813 8.67177 40.2186C7.50083 39.4868 7.1727 38.4712 7.6874 37.1717C8.08273 36.4474 8.66085 35.9475 9.42177 35.6717Z" fill="#267DFE"/>
<path fill-rule="evenodd" clip-rule="evenodd" d="M9.60921 37.1717C10.0347 37.0816 10.2535 37.2535 10.2655 37.6873C10.2312 38.2991 9.91868 38.6585 9.32796 38.7654C9.18785 38.7458 9.07847 38.6833 8.99983 38.5779C8.8975 37.9706 9.10062 37.5019 9.60921 37.1717Z" fill="#71D8FF"/>
</svg>
