<svg width="114" height="114" viewBox="0 0 114 114" fill="none" xmlns="http://www.w3.org/2000/svg">
<g clip-path="url(#clip0_18103_25307)">
<path opacity="0.997" fill-rule="evenodd" clip-rule="evenodd" d="M17.0314 -0.111328C17.3283 -0.111328 17.6252 -0.111328 17.9221 -0.111328C28.8233 2.62563 34.6124 9.60218 35.2893 20.8184C34.7032 32.1643 28.9142 39.2149 17.9221 41.9707C17.7736 41.9707 17.6252 41.9707 17.4768 41.9707C16.1453 41.6013 14.8094 41.2304 13.4689 40.8574C6.61184 37.8948 2.27004 32.7737 0.443549 25.4941C-1.11617 15.8151 2.11234 8.20762 10.1291 2.67188C12.3237 1.41013 14.6245 0.482394 17.0314 -0.111328Z" fill="#64E8FE"/>
<path fill-rule="evenodd" clip-rule="evenodd" d="M17.9238 -0.111328C20.5215 -0.111328 23.1191 -0.111328 25.7168 -0.111328C33.0812 1.68601 38.2764 6.06491 41.3027 13.0254C41.7645 14.3367 42.1357 15.6726 42.416 17.0332C43.764 27.9581 39.5335 35.8624 29.7246 40.7461C25.8666 42.2595 21.9331 42.6676 17.9238 41.9707C28.9159 39.2149 34.705 32.1643 35.291 20.8184C34.6141 9.60218 28.8251 2.62563 17.9238 -0.111328Z" fill="#13D9FE"/>
<path opacity="0.995" fill-rule="evenodd" clip-rule="evenodd" d="M88.2854 -0.111328C88.508 -0.111328 88.7307 -0.111328 88.9534 -0.111328C99.6282 2.7348 105.417 9.67424 106.321 20.707C105.635 31.8904 99.9205 38.9784 89.176 41.9707C80.0783 40.1093 74.3262 34.6914 71.9201 25.7168C71.2455 22.8178 71.2085 19.9233 71.8088 17.0332C72.0871 15.6777 72.4583 14.3417 72.9221 13.0254C74.7218 8.2935 77.839 4.69388 82.2737 2.22656C84.2083 1.19951 86.2122 0.42021 88.2854 -0.111328Z" fill="#6193FE"/>
<path fill-rule="evenodd" clip-rule="evenodd" d="M88.9512 -0.111328C91.6972 -0.111328 94.4434 -0.111328 97.1895 -0.111328C106.047 2.28884 111.613 7.92946 113.889 16.8105C113.889 19.5566 113.889 22.3028 113.889 25.0488C112.196 32.5319 107.818 37.8015 100.752 40.8574C99.4125 41.2293 98.0765 41.6004 96.7441 41.9707C94.1923 42.5574 91.6689 42.5574 89.1738 41.9707C99.9183 38.9784 105.633 31.8904 106.318 20.707C105.415 9.67424 99.626 2.7348 88.9512 -0.111328Z" fill="#407BFE"/>
<path fill-rule="evenodd" clip-rule="evenodd" d="M94.5172 7.45917C95.9293 7.42216 97.3393 7.45928 98.7476 7.5705C100.073 8.13266 100.407 9.0604 99.7496 10.3537C99.4793 10.6986 99.1453 10.9583 98.7476 11.133C97.4859 11.2072 96.2243 11.2814 94.9625 11.3557C94.2573 11.7638 93.7007 12.3205 93.2926 13.0256C93.1812 14.8796 93.1443 16.735 93.1812 18.592C94.1489 18.5551 95.1137 18.5922 96.0758 18.7033C97.3202 19.249 97.7283 20.1767 97.3004 21.4865C96.9568 21.9047 96.5487 22.2387 96.0758 22.4885C95.1137 22.5996 94.1489 22.6368 93.1812 22.5998C93.2184 26.0888 93.1812 29.5772 93.0699 33.0646C92.4382 34.4099 91.4363 34.7439 90.0641 34.0666C89.7539 33.8059 89.5682 33.4719 89.5074 33.0646C89.3961 29.5028 89.3589 25.9403 89.3961 22.3771C88.3543 22.4141 87.3154 22.3769 86.2789 22.2658C84.8185 21.1338 84.8185 20.0205 86.2789 18.926C87.3154 18.8148 88.3543 18.7777 89.3961 18.8146C89.3012 16.4963 89.4126 14.1955 89.7301 11.9123C90.6588 9.68382 92.2545 8.19943 94.5172 7.45917Z" fill="#FCFDFF"/>
<path opacity="0.967" fill-rule="evenodd" clip-rule="evenodd" d="M72.9199 13.0254C72.4561 14.3417 72.085 15.6776 71.8066 17.0332C62.008 13.4708 52.2111 13.4708 42.416 17.0332C42.1357 15.6726 41.7645 14.3366 41.3027 13.0254C51.8384 9.46811 62.3776 9.46811 72.9199 13.0254Z" fill="#FFCF64"/>
<path fill-rule="evenodd" clip-rule="evenodd" d="M23.7129 12.3575C25.7012 12.0508 27.4825 12.4961 29.0566 13.6934C29.9582 13.5022 30.7747 13.1312 31.5059 12.5801C31.7285 12.6543 31.877 12.8028 31.9512 13.0254C31.5393 14.1407 30.9085 15.1056 30.0586 15.92C29.8482 26.2252 24.6158 31.1606 14.3613 30.7266C12.8442 30.5302 11.434 30.0477 10.1309 29.2793C10.1775 29.1489 10.2517 29.0375 10.3535 28.9454C12.5724 28.8184 14.5763 28.1133 16.3652 26.8301C11.0212 23.9405 9.23994 19.5616 11.0215 13.6934C11.7597 13.7984 12.2792 14.2066 12.5801 14.918C14.8491 16.9797 17.5209 17.9816 20.5957 17.9239C20.4236 15.3722 21.4627 13.5167 23.7129 12.3575Z" fill="#FEFEFF"/>
<path opacity="0.95" fill-rule="evenodd" clip-rule="evenodd" d="M67.5763 65.7949C67.5763 58.2987 67.5763 50.8028 67.5763 43.3066C67.5394 42.1167 67.5765 40.9293 67.6877 39.7441C68.3327 38.7076 69.2603 38.3736 70.4709 38.7421C70.9863 38.9891 71.3203 39.3974 71.4728 39.9668C71.6213 49.6895 71.6213 59.412 71.4728 69.1347C70.7396 70.4956 69.6633 70.8296 68.2443 70.1367C67.9769 69.9356 67.7912 69.676 67.6877 69.3574C67.5765 68.1722 67.5394 66.9848 67.5763 65.7949Z" fill="#6665FF"/>
<path opacity="0.967" fill-rule="evenodd" clip-rule="evenodd" d="M13.4705 40.8574C14.811 41.2304 16.1469 41.6013 17.4783 41.9707C13.916 51.7658 13.916 61.5627 17.4783 71.3613C17.2314 71.374 17.0088 71.4482 16.8104 71.584C15.6695 71.7913 14.5562 72.0883 13.4705 72.4746C9.90826 61.9323 9.90826 51.3933 13.4705 40.8574Z" fill="#FFCF64"/>
<path opacity="0.964" fill-rule="evenodd" clip-rule="evenodd" d="M100.752 40.8574C103.374 48.7154 104.005 56.731 102.645 64.9043C102.152 67.4675 101.521 69.9909 100.752 72.4746C99.414 72.1028 98.0781 71.7316 96.7441 71.3613C100.3 61.5618 100.3 51.7649 96.7441 41.9707C98.0765 41.6004 99.4125 41.2293 100.752 40.8574Z" fill="#FFCF64"/>
<path opacity="0.991" fill-rule="evenodd" clip-rule="evenodd" d="M67.5762 43.3066C67.5762 50.8028 67.5762 58.2988 67.5762 65.7949C62.9538 63.2393 58.0554 61.3839 52.8809 60.2285C52.8809 56.4434 52.8809 52.6582 52.8809 48.873C58.0155 47.6415 62.914 45.7861 67.5762 43.3066Z" fill="#50C4FE" fill-opacity="0.3"/>
<path opacity="0.987" fill-rule="evenodd" clip-rule="evenodd" d="M52.8822 48.8731C52.8822 52.6582 52.8822 56.4434 52.8822 60.2285C52.8822 60.4512 52.8822 60.6739 52.8822 60.8965C51.9175 60.8965 50.9525 60.8965 49.9877 60.8965C48.6297 60.6057 47.2938 60.6057 45.9799 60.8965C45.3079 60.9333 44.6399 60.8961 43.976 60.7852C43.4935 60.5997 43.1595 60.2657 42.974 59.7832C42.7581 56.1261 42.8324 52.4892 43.1967 48.8731C43.3977 48.6057 43.6574 48.42 43.976 48.3164C46.9438 48.2051 49.9127 48.1679 52.8822 48.2051C52.8822 48.4278 52.8822 48.6504 52.8822 48.8731Z" fill="#FE95C2"/>
<path opacity="0.969" fill-rule="evenodd" clip-rule="evenodd" d="M49.9863 60.8966C50.0847 65.2136 50.3074 69.5185 50.6543 73.8106C50.2059 75.6676 49.0926 76.2242 47.3145 75.4805C47.047 75.2795 46.8613 75.0199 46.7578 74.7012C46.3461 70.1092 46.0865 65.5075 45.9785 60.8966C47.2924 60.6058 48.6283 60.6058 49.9863 60.8966Z" fill="#83A6C5"/>
<path fill-rule="evenodd" clip-rule="evenodd" d="M42.416 96.2989C42.0466 97.6304 41.6757 98.9663 41.3027 100.307C38.1486 107.725 32.5822 112.141 24.6035 113.555C21.9775 113.777 19.3798 113.665 16.8105 113.221C28.156 109.396 33.5369 101.454 32.9531 89.3966C31.1772 80.1628 25.7963 74.2254 16.8105 71.5841C17.0089 71.4482 17.2316 71.3741 17.4785 71.3614C28.4036 70.0137 36.3079 74.2441 41.1914 84.0528C42.7553 88.0279 43.1637 92.1101 42.416 96.2989Z" fill="#FF4848"/>
<path fill-rule="evenodd" clip-rule="evenodd" d="M96.7441 71.3613C98.0781 71.7315 99.414 72.1027 100.752 72.4746C107.818 75.5305 112.196 80.8001 113.889 88.2831C113.889 91.0292 113.889 93.7754 113.889 96.5214C111.008 107.354 103.957 113.069 92.7363 113.666C91.1991 113.709 89.7149 113.56 88.2832 113.221C93.4831 112.137 97.7508 109.539 101.086 105.428C101.262 105.15 101.373 104.854 101.42 104.537C103.353 103.976 104.578 102.715 105.094 100.752C105.242 95.1113 105.242 89.4706 105.094 83.83C104.434 82.0196 103.209 80.7578 101.42 80.0449C99.312 76.9827 96.566 74.6448 93.1816 73.0312C91.5997 72.4427 90.0411 71.8861 88.5059 71.3613C91.255 70.7777 94.001 70.7777 96.7441 71.3613Z" fill="#FF758F"/>
<path opacity="0.995" fill-rule="evenodd" clip-rule="evenodd" d="M88.5079 71.3613C90.0431 71.8861 91.6017 72.4428 93.1836 73.0312C96.568 74.6448 99.314 76.9827 101.422 80.0449C95.6324 80.0077 89.8434 80.0449 84.0547 80.1562C82.2123 80.7367 81.062 81.9613 80.6036 83.8301C80.4551 89.545 80.4551 95.2597 80.6036 100.975C81.0861 102.941 82.3107 104.166 84.2774 104.648C90.0017 104.83 95.7166 104.793 101.422 104.537C101.375 104.854 101.264 105.151 101.088 105.428C97.7528 109.539 93.4851 112.137 88.2852 113.221C83.1216 112.179 78.9281 109.582 75.7051 105.428C74.5455 103.851 73.6177 102.144 72.9219 100.307C72.5501 98.9671 72.1789 97.6312 71.8086 96.2988C70.444 87.2668 73.4127 80.0304 80.7149 74.5898C83.1091 73.0217 85.7066 71.9456 88.5079 71.3613Z" fill="#FF95C2"/>
<path opacity="0.995" fill-rule="evenodd" clip-rule="evenodd" d="M16.8065 71.584C25.7922 74.2254 31.1732 80.1627 32.9491 89.3965C33.5329 101.454 28.1519 109.396 16.8065 113.221C9.60678 111.552 4.5228 107.321 1.55452 100.529C-1.63536 91.4351 0.108783 83.4565 6.78695 76.5938C8.76614 74.8245 10.9927 73.4516 13.4666 72.4746C14.5523 72.0883 15.6656 71.7913 16.8065 71.584Z" fill="#FF6969"/>
<path fill-rule="evenodd" clip-rule="evenodd" d="M101.42 80.045C103.209 80.7579 104.434 82.0197 105.094 83.8301C105.242 89.4707 105.242 95.1114 105.094 100.752C104.578 102.715 103.354 103.976 101.42 104.537C95.7146 104.793 89.9997 104.83 84.2754 104.648C82.3087 104.166 81.0841 102.941 80.6016 100.975C80.4531 95.2597 80.4531 89.545 80.6016 83.8301C81.0601 81.9614 82.2103 80.7367 84.0528 80.1563C89.8414 80.045 95.6305 80.0078 101.42 80.045Z" fill="#FFFDFD"/>
<path fill-rule="evenodd" clip-rule="evenodd" d="M84.7208 83.8301C90.065 83.7929 95.4087 83.8301 100.752 83.9414C100.937 84.1269 101.123 84.3126 101.309 84.4981C101.457 89.7677 101.457 95.0371 101.309 100.307C101.123 100.492 100.937 100.678 100.752 100.863C95.4083 101.012 90.0645 101.012 84.7208 100.863C84.6094 100.752 84.4981 100.641 84.3868 100.529C84.2383 95.1114 84.2383 89.6933 84.3868 84.2754C84.5464 84.1543 84.6577 84.0058 84.7208 83.8301Z" fill="#FF96C2"/>
<path fill-rule="evenodd" clip-rule="evenodd" d="M17.03 84.7205C17.3358 84.6855 17.6327 84.7227 17.9207 84.8318C21.78 87.0584 25.6395 89.2849 29.4988 91.5115C29.7793 91.9154 29.7793 92.3235 29.4988 92.7361C25.491 95.0368 21.4832 97.3377 17.4753 99.6384C17.2577 99.5322 17.0721 99.3839 16.9187 99.1931C16.7358 94.3528 16.7729 89.5285 17.03 84.7205Z" fill="#FFFCFC"/>
<path fill-rule="evenodd" clip-rule="evenodd" d="M91.6212 86.9473C96.1854 87.0205 98.3007 89.3212 97.9669 93.8496C96.7456 96.9563 94.4819 98.1809 91.1759 97.5234C87.6728 95.8473 86.6709 93.2126 88.17 89.6191C89.0651 88.3765 90.2153 87.4859 91.6212 86.9473Z" fill="#FFFDFE"/>
<path fill-rule="evenodd" clip-rule="evenodd" d="M92.2955 90.7324C93.8834 90.7997 94.5142 91.6161 94.188 93.1816C93.5403 93.826 92.761 94.0115 91.8501 93.7383C90.8558 92.544 91.004 91.542 92.2955 90.7324Z" fill="#FF98C3"/>
<path opacity="0.968" fill-rule="evenodd" clip-rule="evenodd" d="M42.416 96.2988C52.2113 99.8611 62.0082 99.8611 71.8066 96.2988C72.1769 97.6312 72.5481 98.9671 72.9199 100.307C65.0613 102.918 57.0456 103.549 48.873 102.199C46.3098 101.707 43.7865 101.076 41.3027 100.307C41.6757 98.9663 42.0466 97.6303 42.416 96.2988Z" fill="#FFCF64"/>
</g>
<defs>
<clipPath id="clip0_18103_25307">
<rect width="114" height="114" fill="white"/>
</clipPath>
</defs>
</svg>
