<svg width="574" height="396" viewBox="0 0 574 396" fill="none" xmlns="http://www.w3.org/2000/svg">
<g clip-path="url(#clip0_18202_7183)">
<path d="M434.011 276.17V264.376L431.708 262.073V252.767L426.319 247.377V257.19L423.071 260.438L417.889 255.255L422.588 250.556L414.296 242.264L396.331 260.231H390.803L382.853 268.181C382.729 277.597 382.6 292.018 382.972 292.018C383.525 292.018 396.791 292.018 396.791 292.018V287.227H407.11V294.229H412.085V301.785L418.626 308.326L437.236 289.715V276.17H434.011V276.17Z" fill="#719BD8"/>
<path d="M140.191 208.741C140.191 207.083 139.085 184.417 140.191 184.417C141.296 184.417 126.372 184.417 126.372 184.417V171.702H145.166L152.075 178.612V165.068L166.309 150.833H180.543V140.744H199.337V110.892L192.151 103.705L177.226 118.631L170.593 111.997L185.518 97.0709L189.111 100.664L197.403 92.372L207.905 102.876L213.709 97.0709V84.3559H186.623L193.257 77.722H154.563L143.646 66.8037H128.582L95.7617 99.6276H109.235L118.252 90.6096L127.477 99.8347L117.803 109.509V125.818L106.437 137.185V181.653L140.191 208.741Z" fill="#719BD8"/>
<path d="M148.556 208.741H167.625L194.236 235.354H205.35V253.26L197.266 261.345V280.839C197.266 280.839 190.844 285.607 190.844 287.261C190.844 288.916 188.558 326.175 188.558 326.175L165.696 313.726V288.087L155.947 278.336V264.455L141.473 249.979V222.255L148.556 208.741Z" fill="#719BD8"/>
<path d="M229.395 185.681V220.093C229.395 220.093 254.268 216.776 254.268 220.093C254.268 223.409 269.192 235.018 269.192 235.018V251.188C269.192 251.188 269.192 266.942 269.192 268.601C269.192 270.259 279.663 279.073 279.663 279.073V295.135H293.651L307.027 281.758V259.065L315.916 250.175V229.214L329.243 215.886L322.799 209.442H313.135L304.987 201.293V176.974L317.352 189.341L309.819 196.875L316.659 203.716L329.51 190.863V185.266H341.325L352.104 196.046V204.752L361.017 213.666L379.879 194.802L385.476 200.399V216.775H395.632L390.658 211.8V204.752L396.175 210.27L400.399 214.495L411.178 203.716L401.836 194.372L418.003 178.203L403.094 163.292L427.875 138.509L410.671 121.303L427.3 104.673V115.199L441.936 129.837V116.443L433.421 107.926L450.688 90.6573H441.234V83.2751H368.272L355.006 70.0078L338.838 86.1772L342.984 90.3233L327.438 105.871L321.22 99.6519L312.1 108.773L298.212 94.8841L275.204 117.894L281.422 124.113V129.71L285.671 125.46V116.858H293.652V119.92L280.536 133.037L275.298 127.798L260.097 143.001V147.654L256.942 150.809H249.548V154.841L245.587 158.802L251.506 164.722H258.208V157.881L263.667 152.422L268.366 157.121C268.366 157.121 270.784 151.938 272.166 153.32C273.548 154.702 278.108 158.572 278.108 159.263C278.108 159.954 278.799 163.547 278.108 163.547C277.417 163.547 280.872 160.783 280.872 160.783V156.223L276.588 151.938L278.316 150.211L283.014 154.91V160.645L286.711 164.342V161.06L289.941 157.83L297.68 150.09V145.443H302.707V150.695C302.707 150.695 305.816 150.349 306.162 150.695C306.507 151.04 309.685 154.219 309.685 154.219V157.743H301.877V154.979H296.488L291.444 160.024V163.134L294.864 166.554H302.707V172.808H288.196L284.119 168.731L278.246 174.605L273.063 169.422V164.792H262.768L258 169.56H247.705L234.843 182.423V185.523L229.395 185.681Z" fill="#719BD8"/>
<path d="M323.191 51.5996C334.521 51.5996 343.706 60.7855 343.706 72.1166C343.706 83.448 323.191 108.453 323.191 108.453C323.191 108.453 302.676 83.448 302.676 72.1166C302.676 60.7852 311.861 51.5996 323.191 51.5996Z" fill="#ED1C24"/>
<path d="M323.19 86.1552C330.942 86.1552 337.227 79.8699 337.227 72.1167C337.227 64.3634 330.942 58.0781 323.19 58.0781C315.437 58.0781 309.152 64.3634 309.152 72.1167C309.152 79.8699 315.437 86.1552 323.19 86.1552Z" fill="white"/>
<path d="M114.437 101.054C125.767 101.054 134.952 110.24 134.952 121.571C134.952 132.902 114.437 157.907 114.437 157.907C114.437 157.907 93.9219 132.902 93.9219 121.571C93.9219 110.24 103.107 101.054 114.437 101.054Z" fill="#ED1C24"/>
<path d="M114.47 135.608C122.223 135.591 128.494 129.292 128.477 121.538C128.46 113.785 122.161 107.514 114.408 107.531C106.656 107.548 100.385 113.847 100.402 121.6C100.419 129.353 106.718 135.625 114.47 135.608Z" fill="white"/>
<path d="M174.32 32.8174C155.504 32.8174 140.25 48.0723 140.25 66.8905C140.25 85.7085 174.32 127.235 174.32 127.235C174.32 127.235 208.39 85.7085 208.39 66.8905C208.39 48.0725 193.136 32.8174 174.32 32.8174ZM174.32 90.2047C161.445 90.2047 151.008 79.7666 151.008 66.8905C151.008 54.0144 161.445 43.5763 174.32 43.5763C187.195 43.5763 197.632 54.0146 197.632 66.8905C197.632 79.7666 187.195 90.2047 174.32 90.2047Z" fill="#0054A6"/>
<path d="M395.941 32.8174C377.125 32.8174 361.871 48.0723 361.871 66.8905C361.871 85.7085 395.941 127.235 395.941 127.235C395.941 127.235 430.011 85.7085 430.011 66.8905C430.011 48.0725 414.757 32.8174 395.941 32.8174ZM395.941 90.2047C383.066 90.2047 372.629 79.7666 372.629 66.8905C372.629 54.0144 383.066 43.5763 395.941 43.5763C408.816 43.5763 419.253 54.0146 419.253 66.8905C419.253 79.7666 408.816 90.2047 395.941 90.2047Z" fill="#0054A6"/>
<path d="M323.193 120.711C323.058 120.711 322.949 120.601 322.949 120.467V119.003C322.949 118.868 323.058 118.759 323.193 118.759C323.328 118.759 323.437 118.868 323.437 119.003V120.467C323.437 120.601 323.328 120.711 323.193 120.711Z" fill="#363E44"/>
<path d="M323.193 154.917C323.058 154.917 322.949 154.807 322.949 154.673V151.822C322.949 151.688 323.058 151.578 323.193 151.578C323.328 151.578 323.437 151.688 323.437 151.822V154.673C323.437 154.808 323.328 154.917 323.193 154.917ZM323.193 149.216C323.058 149.216 322.949 149.107 322.949 148.972V146.121C322.949 145.987 323.058 145.877 323.193 145.877C323.328 145.877 323.437 145.987 323.437 146.121V148.972C323.437 149.107 323.328 149.216 323.193 149.216ZM323.193 143.515C323.058 143.515 322.949 143.406 322.949 143.271V140.42C322.949 140.286 323.058 140.176 323.193 140.176C323.328 140.176 323.437 140.286 323.437 140.42V143.271C323.437 143.406 323.328 143.515 323.193 143.515ZM323.193 137.814C323.058 137.814 322.949 137.704 322.949 137.57V134.719C322.949 134.585 323.058 134.475 323.193 134.475C323.328 134.475 323.437 134.585 323.437 134.719V137.57C323.437 137.704 323.328 137.814 323.193 137.814ZM323.193 132.113C323.058 132.113 322.949 132.003 322.949 131.869V129.018C322.949 128.883 323.058 128.774 323.193 128.774C323.328 128.774 323.437 128.883 323.437 129.018V131.869C323.437 132.003 323.328 132.113 323.193 132.113ZM323.193 126.412C323.058 126.412 322.949 126.302 322.949 126.168V123.317C322.949 123.183 323.058 123.073 323.193 123.073C323.328 123.073 323.437 123.183 323.437 123.317V126.168C323.437 126.302 323.328 126.412 323.193 126.412Z" fill="#363E44"/>
<path d="M324.657 159.231H322.949V157.523C322.949 157.389 323.058 157.279 323.193 157.279C323.328 157.279 323.437 157.389 323.437 157.523V158.743H324.657C324.792 158.743 324.901 158.853 324.901 158.987C324.901 159.122 324.792 159.231 324.657 159.231Z" fill="#363E44"/>
<path d="M391.442 159.231H388.406C388.271 159.231 388.162 159.122 388.162 158.987C388.162 158.852 388.271 158.743 388.406 158.743H391.442C391.577 158.743 391.686 158.852 391.686 158.987C391.686 159.122 391.577 159.231 391.442 159.231ZM385.371 159.231H382.335C382.2 159.231 382.091 159.122 382.091 158.987C382.091 158.852 382.2 158.743 382.335 158.743H385.371C385.506 158.743 385.615 158.852 385.615 158.987C385.615 159.122 385.506 159.231 385.371 159.231ZM379.299 159.231H376.264C376.129 159.231 376.02 159.122 376.02 158.987C376.02 158.852 376.129 158.743 376.264 158.743H379.299C379.434 158.743 379.543 158.852 379.543 158.987C379.543 159.122 379.434 159.231 379.299 159.231ZM373.228 159.231H370.192C370.057 159.231 369.948 159.122 369.948 158.987C369.948 158.852 370.057 158.743 370.192 158.743H373.228C373.363 158.743 373.472 158.852 373.472 158.987C373.472 159.122 373.363 159.231 373.228 159.231ZM367.157 159.231H364.121C363.986 159.231 363.877 159.122 363.877 158.987C363.877 158.852 363.986 158.743 364.121 158.743H367.157C367.292 158.743 367.401 158.852 367.401 158.987C367.401 159.122 367.291 159.231 367.157 159.231ZM361.085 159.231H358.05C357.915 159.231 357.806 159.122 357.806 158.987C357.806 158.852 357.915 158.743 358.05 158.743H361.085C361.22 158.743 361.329 158.852 361.329 158.987C361.329 159.122 361.22 159.231 361.085 159.231ZM355.014 159.231H351.979C351.844 159.231 351.735 159.122 351.735 158.987C351.735 158.852 351.844 158.743 351.979 158.743H355.014C355.149 158.743 355.258 158.852 355.258 158.987C355.258 159.122 355.149 159.231 355.014 159.231ZM348.943 159.231H345.907C345.772 159.231 345.663 159.122 345.663 158.987C345.663 158.852 345.772 158.743 345.907 158.743H348.943C349.078 158.743 349.187 158.852 349.187 158.987C349.187 159.122 349.078 159.231 348.943 159.231ZM342.871 159.231H339.836C339.701 159.231 339.592 159.122 339.592 158.987C339.592 158.852 339.701 158.743 339.836 158.743H342.871C343.006 158.743 343.115 158.852 343.115 158.987C343.115 159.122 343.006 159.231 342.871 159.231ZM336.8 159.231H333.765C333.63 159.231 333.521 159.122 333.521 158.987C333.521 158.852 333.63 158.743 333.765 158.743H336.8C336.935 158.743 337.044 158.852 337.044 158.987C337.044 159.122 336.935 159.231 336.8 159.231ZM330.729 159.231H327.693C327.558 159.231 327.449 159.122 327.449 158.987C327.449 158.852 327.558 158.743 327.693 158.743H330.729C330.864 158.743 330.973 158.852 330.973 158.987C330.973 159.122 330.864 159.231 330.729 159.231Z" fill="#363E44"/>
<path d="M396.186 159.231H394.478C394.343 159.231 394.234 159.122 394.234 158.987C394.234 158.853 394.343 158.743 394.478 158.743H395.698V157.523C395.698 157.389 395.807 157.279 395.942 157.279C396.077 157.279 396.186 157.389 396.186 157.523V159.231Z" fill="#363E44"/>
<path d="M395.943 155.032C395.808 155.032 395.699 154.922 395.699 154.788V152.051C395.699 151.917 395.808 151.807 395.943 151.807C396.078 151.807 396.187 151.917 396.187 152.051V154.788C396.187 154.922 396.078 155.032 395.943 155.032ZM395.943 149.559C395.808 149.559 395.699 149.45 395.699 149.315V146.579C395.699 146.444 395.808 146.335 395.943 146.335C396.078 146.335 396.187 146.444 396.187 146.579V149.315C396.187 149.45 396.078 149.559 395.943 149.559ZM395.943 144.087C395.808 144.087 395.699 143.977 395.699 143.843V141.106C395.699 140.972 395.808 140.862 395.943 140.862C396.078 140.862 396.187 140.972 396.187 141.106V143.843C396.187 143.977 396.078 144.087 395.943 144.087Z" fill="#363E44"/>
<path d="M395.943 138.614C395.808 138.614 395.699 138.505 395.699 138.37V136.906C395.699 136.771 395.808 136.662 395.943 136.662C396.078 136.662 396.187 136.771 396.187 136.906V138.37C396.187 138.505 396.078 138.614 395.943 138.614Z" fill="#363E44"/>
<path d="M174.322 134.866C174.187 134.866 174.078 134.757 174.078 134.622V133.158C174.078 133.023 174.187 132.914 174.322 132.914C174.457 132.914 174.566 133.023 174.566 133.158V134.622C174.566 134.757 174.457 134.866 174.322 134.866Z" fill="#363E44"/>
<path d="M174.322 154.062C174.187 154.062 174.078 153.953 174.078 153.818V150.619C174.078 150.484 174.187 150.375 174.322 150.375C174.457 150.375 174.566 150.484 174.566 150.619V153.818C174.566 153.953 174.457 154.062 174.322 154.062ZM174.322 147.663C174.187 147.663 174.078 147.554 174.078 147.419V144.22C174.078 144.085 174.187 143.976 174.322 143.976C174.457 143.976 174.566 144.085 174.566 144.22V147.419C174.566 147.554 174.457 147.663 174.322 147.663ZM174.322 141.264C174.187 141.264 174.078 141.155 174.078 141.02V137.821C174.078 137.686 174.187 137.577 174.322 137.577C174.457 137.577 174.566 137.686 174.566 137.821V141.02C174.566 141.155 174.457 141.264 174.322 141.264Z" fill="#363E44"/>
<path d="M174.565 158.725H172.857C172.722 158.725 172.613 158.616 172.613 158.481C172.613 158.347 172.722 158.237 172.857 158.237H174.077V157.017C174.077 156.883 174.186 156.773 174.321 156.773C174.456 156.773 174.565 156.883 174.565 157.017V158.725Z" fill="#363E44"/>
<path d="M169.891 158.725H166.925C166.79 158.725 166.681 158.616 166.681 158.481C166.681 158.347 166.79 158.237 166.925 158.237H169.891C170.026 158.237 170.135 158.347 170.135 158.481C170.135 158.616 170.026 158.725 169.891 158.725ZM163.958 158.725H160.992C160.857 158.725 160.748 158.616 160.748 158.481C160.748 158.347 160.857 158.237 160.992 158.237H163.958C164.093 158.237 164.202 158.347 164.202 158.481C164.202 158.616 164.093 158.725 163.958 158.725ZM158.025 158.725H155.058C154.923 158.725 154.814 158.616 154.814 158.481C154.814 158.347 154.923 158.237 155.058 158.237H158.025C158.16 158.237 158.269 158.347 158.269 158.481C158.269 158.616 158.16 158.725 158.025 158.725ZM152.092 158.725H149.125C148.99 158.725 148.881 158.616 148.881 158.481C148.881 158.347 148.99 158.237 149.125 158.237H152.092C152.227 158.237 152.336 158.347 152.336 158.481C152.336 158.616 152.227 158.725 152.092 158.725ZM146.159 158.725H143.192C143.057 158.725 142.948 158.616 142.948 158.481C142.948 158.347 143.057 158.237 143.192 158.237H146.159C146.293 158.237 146.403 158.347 146.403 158.481C146.403 158.616 146.293 158.725 146.159 158.725ZM140.225 158.725H137.259C137.124 158.725 137.015 158.616 137.015 158.481C137.015 158.347 137.124 158.237 137.259 158.237H140.225C140.36 158.237 140.469 158.347 140.469 158.481C140.469 158.616 140.36 158.725 140.225 158.725ZM134.292 158.725H131.326C131.191 158.725 131.082 158.616 131.082 158.481C131.082 158.347 131.191 158.237 131.326 158.237H134.292C134.427 158.237 134.536 158.347 134.536 158.481C134.536 158.616 134.427 158.725 134.292 158.725ZM128.359 158.725H125.392C125.258 158.725 125.148 158.616 125.148 158.481C125.148 158.347 125.258 158.237 125.392 158.237H128.359C128.494 158.237 128.603 158.347 128.603 158.481C128.603 158.616 128.494 158.725 128.359 158.725Z" fill="#363E44"/>
<path d="M122.427 158.725H120.963C120.828 158.725 120.719 158.616 120.719 158.481C120.719 158.347 120.828 158.237 120.963 158.237H122.427C122.562 158.237 122.671 158.347 122.671 158.481C122.671 158.616 122.562 158.725 122.427 158.725Z" fill="#363E44"/>
<path d="M112.089 244.217C111.826 244.217 111.566 244.183 111.008 244.239V305.59H300.706V244.239C300.427 244.183 300.178 244.217 299.914 244.217H112.089Z" fill="#4783BE"/>
<path d="M303.309 243H109V248.199H303.309V243Z" fill="#0062BA"/>
<path d="M157.764 271.059H132.836V305.482H157.764V271.059Z" fill="#0062BA"/>
<path d="M158.948 268.835H131.324V272.062H158.948V268.835Z" fill="#4783BE"/>
<path d="M158.645 271.983H131.021C130.867 271.983 130.742 271.858 130.742 271.704V268.476C130.742 268.322 130.867 268.197 131.021 268.197H158.645C158.799 268.197 158.924 268.322 158.924 268.476V271.704C158.924 271.858 158.799 271.983 158.645 271.983ZM131.3 271.425H158.366V268.755H131.3V271.425Z" fill="white"/>
<path d="M238.819 271.15H213.891V305.574H238.819V271.15Z" fill="#0062BA"/>
<path d="M240.002 268.927H212.379V272.154H240.002V268.927Z" fill="#4783BE"/>
<path d="M239.699 272.074H212.076C211.922 272.074 211.797 271.95 211.797 271.796V268.568C211.797 268.414 211.922 268.289 212.076 268.289H239.699C239.854 268.289 239.978 268.414 239.978 268.568V271.796C239.978 271.95 239.854 272.074 239.699 272.074ZM212.355 271.517H239.421V268.847H212.355V271.517Z" fill="white"/>
<path d="M280.62 271.241H255.691V305.665H280.62V271.241Z" fill="#0062BA"/>
<path d="M281.803 269.018H254.18V272.245H281.803V269.018Z" fill="#4783BE"/>
<path d="M281.5 272.165H253.877C253.723 272.165 253.598 272.04 253.598 271.886V268.659C253.598 268.505 253.723 268.38 253.877 268.38H281.5C281.654 268.38 281.779 268.505 281.779 268.659V271.886C281.779 272.04 281.654 272.165 281.5 272.165ZM254.156 271.607H281.221V268.938H254.156V271.607Z" fill="white"/>
<path d="M197.834 271.059H172.906V305.482H197.834V271.059Z" fill="#0062BA"/>
<path d="M199.014 268.835H171.391V272.062H199.014V268.835Z" fill="#4783BE"/>
<path d="M198.637 271.982H171.013C170.859 271.982 170.734 271.858 170.734 271.703V268.476C170.734 268.322 170.859 268.197 171.013 268.197H198.637C198.791 268.197 198.916 268.322 198.916 268.476V271.703C198.916 271.858 198.791 271.982 198.637 271.982ZM171.292 271.425H198.358V268.755H171.292V271.425Z" fill="white"/>
<path d="M443.669 306.723H426.348L445.73 333.216L426.348 359.71H443.669L463.051 333.216L443.669 306.723Z" fill="#4783BE"/>
<path d="M416.2 306.723H398.879L418.261 333.216L398.879 359.71H416.2L435.582 333.216L416.2 306.723Z" fill="#4783BE"/>
<path d="M408.111 333.216L388.729 306.723H218.877L180.113 359.71H388.729L408.111 333.216Z" fill="#4783BE"/>
<path d="M195.974 343.388H189.504L196.744 353.285L189.504 363.182H195.974L203.215 353.285L195.974 343.388Z" fill="white"/>
<path d="M185.713 343.388H179.242L186.483 353.285L179.242 363.182H185.713L192.953 353.285L185.713 343.388Z" fill="white"/>
<path d="M182.689 353.285L175.448 343.388H91.2026L78.3672 363.182H175.448L182.689 353.285Z" fill="white"/>
<path d="M474.184 306.132H469.508L474.741 313.285L469.508 320.438H474.184L479.417 313.285L474.184 306.132Z" fill="#0054A6"/>
<path d="M466.767 306.132H462.09L467.323 313.285L462.09 320.438H466.767L471.999 313.285L466.767 306.132Z" fill="#0054A6"/>
<path d="M464.583 313.285L459.35 306.132H419.257L409.98 320.438H459.35L464.583 313.285Z" fill="#0054A6"/>
<path d="M167.133 308.266L158.265 326.643H65.0586V260.995H206.133V308.266H167.133Z" fill="#FFDD33"/>
<path d="M203.179 264.998H68.4745C68.3395 264.998 68.2305 264.888 68.2305 264.754C68.2305 264.619 68.3395 264.51 68.4745 264.51H203.179C203.314 264.51 203.423 264.619 203.423 264.754C203.423 264.888 203.314 264.998 203.179 264.998Z" fill="#363E44"/>
<path d="M160.179 313.006H68.4745C68.3395 313.006 68.2305 312.896 68.2305 312.762C68.2305 312.627 68.3395 312.518 68.4745 312.518H160.027L164.001 304.511C164.042 304.428 164.127 304.376 164.219 304.376H203.179C203.314 304.376 203.423 304.485 203.423 304.62C203.423 304.755 203.314 304.864 203.179 304.864H164.371L160.397 312.87C160.356 312.953 160.271 313.006 160.179 313.006Z" fill="#363E44"/>
<path d="M68.4745 313.011C68.3395 313.011 68.2305 312.902 68.2305 312.767V265.675C68.2305 265.54 68.3395 265.431 68.4745 265.431C68.6094 265.431 68.7185 265.54 68.7185 265.675V312.767C68.7185 312.902 68.6092 313.011 68.4745 313.011Z" fill="#363E44"/>
<path d="M78.0956 313.011C77.9606 313.011 77.8516 312.902 77.8516 312.767V265.675C77.8516 265.54 77.9606 265.431 78.0956 265.431C78.2305 265.431 78.3396 265.54 78.3396 265.675V312.767C78.3396 312.902 78.2305 313.011 78.0956 313.011Z" fill="#363E44"/>
<path d="M87.7167 313.011C87.5817 313.011 87.4727 312.902 87.4727 312.767V265.675C87.4727 265.54 87.5817 265.431 87.7167 265.431C87.8516 265.431 87.9607 265.54 87.9607 265.675V312.767C87.9607 312.902 87.8516 313.011 87.7167 313.011Z" fill="#363E44"/>
<path d="M97.3417 313.011C97.2067 313.011 97.0977 312.902 97.0977 312.767V265.675C97.0977 265.54 97.2067 265.431 97.3417 265.431C97.4766 265.431 97.5857 265.54 97.5857 265.675V312.767C97.5857 312.902 97.4766 313.011 97.3417 313.011Z" fill="#363E44"/>
<path d="M106.963 313.011C106.828 313.011 106.719 312.902 106.719 312.767V265.675C106.719 265.54 106.828 265.431 106.963 265.431C107.098 265.431 107.207 265.54 107.207 265.675V312.767C107.207 312.902 107.098 313.011 106.963 313.011Z" fill="#363E44"/>
<path d="M116.584 313.011C116.449 313.011 116.34 312.902 116.34 312.767V265.675C116.34 265.54 116.449 265.431 116.584 265.431C116.719 265.431 116.828 265.54 116.828 265.675V312.767C116.828 312.902 116.719 313.011 116.584 313.011Z" fill="#363E44"/>
<path d="M126.205 313.011C126.07 313.011 125.961 312.902 125.961 312.767V265.675C125.961 265.54 126.07 265.431 126.205 265.431C126.34 265.431 126.449 265.54 126.449 265.675V312.767C126.449 312.902 126.34 313.011 126.205 313.011Z" fill="#363E44"/>
<path d="M135.826 313.011C135.691 313.011 135.582 312.902 135.582 312.767V265.675C135.582 265.54 135.691 265.431 135.826 265.431C135.961 265.431 136.07 265.54 136.07 265.675V312.767C136.07 312.902 135.961 313.011 135.826 313.011Z" fill="#363E44"/>
<path d="M145.451 313.011C145.316 313.011 145.207 312.902 145.207 312.767V265.675C145.207 265.54 145.316 265.431 145.451 265.431C145.586 265.431 145.695 265.54 145.695 265.675V312.767C145.695 312.902 145.586 313.011 145.451 313.011Z" fill="#363E44"/>
<path d="M155.072 313.011C154.937 313.011 154.828 312.902 154.828 312.767V265.675C154.828 265.54 154.937 265.431 155.072 265.431C155.207 265.431 155.316 265.54 155.316 265.675V312.767C155.316 312.902 155.207 313.011 155.072 313.011Z" fill="#363E44"/>
<path d="M164.693 303.512C164.558 303.512 164.449 303.403 164.449 303.268V265.675C164.449 265.54 164.558 265.431 164.693 265.431C164.828 265.431 164.937 265.54 164.937 265.675V303.268C164.937 303.403 164.828 303.512 164.693 303.512Z" fill="#363E44"/>
<path d="M174.314 303.512C174.179 303.512 174.07 303.403 174.07 303.268V265.675C174.07 265.54 174.179 265.431 174.314 265.431C174.449 265.431 174.558 265.54 174.558 265.675V303.268C174.558 303.403 174.449 303.512 174.314 303.512Z" fill="#363E44"/>
<path d="M183.935 303.512C183.8 303.512 183.691 303.403 183.691 303.268V265.675C183.691 265.54 183.8 265.431 183.935 265.431C184.07 265.431 184.179 265.54 184.179 265.675V303.268C184.179 303.403 184.07 303.512 183.935 303.512Z" fill="#363E44"/>
<path d="M193.557 303.512C193.422 303.512 193.312 303.403 193.312 303.268V265.675C193.312 265.54 193.422 265.431 193.557 265.431C193.691 265.431 193.801 265.54 193.801 265.675V303.268C193.801 303.403 193.691 303.512 193.557 303.512Z" fill="#363E44"/>
<path d="M203.178 303.512C203.043 303.512 202.934 303.403 202.934 303.268V265.675C202.934 265.54 203.043 265.431 203.178 265.431C203.313 265.431 203.422 265.54 203.422 265.675V303.268C203.422 303.403 203.313 303.512 203.178 303.512Z" fill="#363E44"/>
<path d="M98.328 322.802C98.3762 318.212 94.694 314.451 90.1035 314.403C85.5131 314.355 81.7527 318.037 81.7045 322.628C81.6563 327.219 85.3385 330.98 89.9289 331.028C94.5194 331.076 98.2798 327.393 98.328 322.802Z" fill="#363E44"/>
<path d="M90.034 327.341C87.4778 327.341 85.3984 325.262 85.3984 322.705C85.3984 320.149 87.4778 318.069 90.034 318.069C92.5901 318.069 94.6695 320.149 94.6695 322.705C94.6695 325.261 92.5899 327.341 90.034 327.341ZM90.034 318.557C87.7469 318.557 85.8864 320.418 85.8864 322.705C85.8864 324.993 87.7469 326.853 90.034 326.853C92.321 326.853 94.1815 324.993 94.1815 322.705C94.1815 320.418 92.321 318.557 90.034 318.557Z" fill="#FFDD33"/>
<path d="M116.995 322.814C117.045 318.223 113.365 314.461 108.774 314.411C104.184 314.361 100.422 318.042 100.372 322.633C100.322 327.224 104.003 330.986 108.593 331.036C113.183 331.086 116.945 327.405 116.995 322.814Z" fill="#363E44"/>
<path d="M108.694 327.341C106.138 327.341 104.059 325.262 104.059 322.705C104.059 320.149 106.138 318.069 108.694 318.069C111.25 318.069 113.33 320.149 113.33 322.705C113.33 325.261 111.25 327.341 108.694 327.341ZM108.694 318.557C106.407 318.557 104.547 320.418 104.547 322.705C104.547 324.993 106.407 326.853 108.694 326.853C110.981 326.853 112.842 324.993 112.842 322.705C112.842 320.418 110.981 318.557 108.694 318.557Z" fill="#FFDD33"/>
<path d="M135.652 322.791C135.703 318.2 132.023 314.438 127.432 314.387C122.842 314.337 119.079 318.018 119.029 322.608C118.978 327.199 122.659 330.962 127.249 331.012C131.84 331.063 135.602 327.382 135.652 322.791Z" fill="#363E44"/>
<path d="M127.358 327.341C124.802 327.341 122.723 325.262 122.723 322.705C122.723 320.149 124.802 318.069 127.358 318.069C129.914 318.069 131.994 320.149 131.994 322.705C131.994 325.261 129.914 327.341 127.358 327.341ZM127.358 318.557C125.071 318.557 123.211 320.418 123.211 322.705C123.211 324.993 125.071 326.853 127.358 326.853C129.645 326.853 131.506 324.993 131.506 322.705C131.506 320.418 129.645 318.557 127.358 318.557Z" fill="#FFDD33"/>
<path d="M273.157 323.312V326.177H209.672V261.455H210.862C228.579 261.455 244.571 268.802 255.91 280.592C260.534 285.397 264.384 290.937 267.263 297.018C271.042 305 273.157 313.91 273.157 323.312Z" fill="#0054A6"/>
<path d="M249.061 272.633C249.009 272.633 248.957 272.616 248.912 272.582C237.946 264.115 224.789 259.64 210.863 259.64H210.127C209.992 259.64 209.883 259.531 209.883 259.396C209.883 259.262 209.992 259.152 210.127 259.152H210.863C224.898 259.152 238.158 263.663 249.211 272.196C249.317 272.278 249.337 272.431 249.255 272.538C249.207 272.6 249.134 272.633 249.061 272.633Z" fill="#363E44"/>
<path d="M265.243 314.859C265.129 314.859 265.028 314.78 265.004 314.664C264.228 310.886 263.086 307.161 261.608 303.594C261.557 303.47 261.616 303.327 261.74 303.275C261.865 303.224 262.008 303.283 262.059 303.407C263.549 307.003 264.7 310.757 265.482 314.566C265.509 314.698 265.424 314.827 265.292 314.854C265.275 314.857 265.259 314.859 265.243 314.859Z" fill="#363E44"/>
<path d="M265.762 297.272V297.523H236.836V280.729H254.409C259.033 285.568 262.882 291.148 265.762 297.272Z" fill="#363E44"/>
<path d="M246.35 326.641L254.202 309.927H208.797C208.797 309.927 168.274 309.946 168.274 309.978L160.18 326.744C161.099 326.745 246.35 326.674 246.35 326.641Z" fill="#363E44"/>
<path d="M208.423 323.115C208.471 318.524 204.789 314.763 200.199 314.714C195.608 314.665 191.848 318.348 191.799 322.938C191.75 327.529 195.432 331.29 200.023 331.339C204.613 331.388 208.374 327.706 208.423 323.115Z" fill="#FFDD33"/>
<path d="M200.136 327.668C197.579 327.668 195.5 325.588 195.5 323.032C195.5 320.475 197.58 318.396 200.136 318.396C202.691 318.396 204.771 320.475 204.771 323.032C204.771 325.588 202.691 327.668 200.136 327.668ZM200.136 318.884C197.848 318.884 195.988 320.744 195.988 323.032C195.988 325.319 197.848 327.18 200.136 327.18C202.423 327.18 204.283 325.319 204.283 323.032C204.283 320.744 202.423 318.884 200.136 318.884Z" fill="#363E44"/>
<path d="M190.729 323.134C190.779 318.543 187.097 314.781 182.507 314.731C177.916 314.682 174.155 318.363 174.105 322.954C174.056 327.545 177.737 331.307 182.327 331.356C186.918 331.406 190.679 327.725 190.729 323.134Z" fill="#FFDD33"/>
<path d="M182.432 327.668C179.876 327.668 177.797 325.588 177.797 323.032C177.797 320.475 179.876 318.396 182.432 318.396C184.989 318.396 187.068 320.475 187.068 323.032C187.068 325.588 184.988 327.668 182.432 327.668ZM182.432 318.884C180.145 318.884 178.285 320.744 178.285 323.032C178.285 325.319 180.145 327.18 182.432 327.18C184.719 327.18 186.58 325.319 186.58 323.032C186.58 320.744 184.719 318.884 182.432 318.884Z" fill="#363E44"/>
<path d="M253.199 322.457C253.249 317.866 249.568 314.104 244.977 314.053C240.387 314.003 236.625 317.685 236.575 322.275C236.525 326.866 240.206 330.628 244.796 330.678C249.387 330.729 253.148 327.047 253.199 322.457Z" fill="#FFDD33"/>
<path d="M244.917 327.01C242.361 327.01 240.281 324.931 240.281 322.374C240.281 319.818 242.361 317.738 244.917 317.738C247.473 317.738 249.552 319.818 249.552 322.374C249.552 324.93 247.473 327.01 244.917 327.01ZM244.917 318.226C242.63 318.226 240.769 320.087 240.769 322.374C240.769 324.662 242.63 326.522 244.917 326.522C247.204 326.522 249.064 324.662 249.064 322.374C249.064 320.087 247.204 318.226 244.917 318.226Z" fill="#363E44"/>
<path d="M217.199 274.886L222.922 286.891L223.775 285.603L219.125 285.618L217.535 285.622L218.312 286.943L225.823 299.708L219.938 286.116L219.125 287.442L223.775 287.456L225.108 287.46L224.628 286.168L219.985 273.705L219.917 273.521L216.547 273.519L217.199 274.886Z" fill="white"/>
<path d="M402.894 308.266L394.027 326.643H300.82V260.995H441.895V308.266H402.894Z" fill="#FFDD33"/>
<path d="M438.94 264.998H304.236C304.101 264.998 303.992 264.888 303.992 264.754C303.992 264.619 304.101 264.51 304.236 264.51H438.94C439.075 264.51 439.184 264.619 439.184 264.754C439.184 264.888 439.075 264.998 438.94 264.998Z" fill="#363E44"/>
<path d="M395.94 313.006H304.236C304.101 313.006 303.992 312.896 303.992 312.762C303.992 312.627 304.101 312.518 304.236 312.518H395.789L399.762 304.511C399.804 304.428 399.888 304.376 399.981 304.376H438.941C439.075 304.376 439.185 304.485 439.185 304.62C439.185 304.755 439.075 304.864 438.941 304.864H400.132L396.159 312.87C396.118 312.953 396.033 313.006 395.94 313.006Z" fill="#363E44"/>
<path d="M304.236 313.011C304.101 313.011 303.992 312.902 303.992 312.767V265.675C303.992 265.54 304.101 265.431 304.236 265.431C304.371 265.431 304.48 265.54 304.48 265.675V312.767C304.48 312.902 304.371 313.011 304.236 313.011Z" fill="#363E44"/>
<path d="M313.857 313.011C313.722 313.011 313.613 312.902 313.613 312.767V265.675C313.613 265.54 313.722 265.431 313.857 265.431C313.992 265.431 314.101 265.54 314.101 265.675V312.767C314.101 312.902 313.992 313.011 313.857 313.011Z" fill="#363E44"/>
<path d="M323.478 313.011C323.343 313.011 323.234 312.902 323.234 312.767V265.675C323.234 265.54 323.343 265.431 323.478 265.431C323.613 265.431 323.722 265.54 323.722 265.675V312.767C323.722 312.902 323.613 313.011 323.478 313.011Z" fill="#363E44"/>
<path d="M333.103 313.011C332.968 313.011 332.859 312.902 332.859 312.767V265.675C332.859 265.54 332.968 265.431 333.103 265.431C333.238 265.431 333.347 265.54 333.347 265.675V312.767C333.347 312.902 333.238 313.011 333.103 313.011Z" fill="#363E44"/>
<path d="M342.724 313.011C342.59 313.011 342.48 312.902 342.48 312.767V265.675C342.48 265.54 342.59 265.431 342.724 265.431C342.859 265.431 342.968 265.54 342.968 265.675V312.767C342.968 312.902 342.859 313.011 342.724 313.011Z" fill="#363E44"/>
<path d="M352.346 313.011C352.211 313.011 352.102 312.902 352.102 312.767V265.675C352.102 265.54 352.211 265.431 352.346 265.431C352.48 265.431 352.59 265.54 352.59 265.675V312.767C352.59 312.902 352.48 313.011 352.346 313.011Z" fill="#363E44"/>
<path d="M361.967 313.011C361.832 313.011 361.723 312.902 361.723 312.767V265.675C361.723 265.54 361.832 265.431 361.967 265.431C362.102 265.431 362.211 265.54 362.211 265.675V312.767C362.211 312.902 362.102 313.011 361.967 313.011Z" fill="#363E44"/>
<path d="M371.588 313.011C371.453 313.011 371.344 312.902 371.344 312.767V265.675C371.344 265.54 371.453 265.431 371.588 265.431C371.723 265.431 371.832 265.54 371.832 265.675V312.767C371.832 312.902 371.722 313.011 371.588 313.011Z" fill="#363E44"/>
<path d="M381.209 313.011C381.074 313.011 380.965 312.902 380.965 312.767V265.675C380.965 265.54 381.074 265.431 381.209 265.431C381.344 265.431 381.453 265.54 381.453 265.675V312.767C381.453 312.902 381.344 313.011 381.209 313.011Z" fill="#363E44"/>
<path d="M390.83 313.011C390.695 313.011 390.586 312.902 390.586 312.767V265.675C390.586 265.54 390.695 265.431 390.83 265.431C390.965 265.431 391.074 265.54 391.074 265.675V312.767C391.074 312.902 390.965 313.011 390.83 313.011Z" fill="#363E44"/>
<path d="M400.455 303.512C400.32 303.512 400.211 303.403 400.211 303.268V265.675C400.211 265.54 400.32 265.431 400.455 265.431C400.59 265.431 400.699 265.54 400.699 265.675V303.268C400.699 303.403 400.59 303.512 400.455 303.512Z" fill="#363E44"/>
<path d="M410.076 303.512C409.941 303.512 409.832 303.403 409.832 303.268V265.675C409.832 265.54 409.941 265.431 410.076 265.431C410.211 265.431 410.32 265.54 410.32 265.675V303.268C410.32 303.403 410.211 303.512 410.076 303.512Z" fill="#363E44"/>
<path d="M419.697 303.512C419.562 303.512 419.453 303.403 419.453 303.268V265.675C419.453 265.54 419.562 265.431 419.697 265.431C419.832 265.431 419.941 265.54 419.941 265.675V303.268C419.941 303.403 419.832 303.512 419.697 303.512Z" fill="#363E44"/>
<path d="M429.318 303.512C429.183 303.512 429.074 303.403 429.074 303.268V265.675C429.074 265.54 429.183 265.431 429.318 265.431C429.453 265.431 429.562 265.54 429.562 265.675V303.268C429.562 303.403 429.453 303.512 429.318 303.512Z" fill="#363E44"/>
<path d="M438.939 303.512C438.804 303.512 438.695 303.403 438.695 303.268V265.675C438.695 265.54 438.804 265.431 438.939 265.431C439.074 265.431 439.183 265.54 439.183 265.675V303.268C439.183 303.403 439.074 303.512 438.939 303.512Z" fill="#363E44"/>
<path d="M334.076 322.804C334.125 318.213 330.443 314.452 325.853 314.402C321.262 314.353 317.501 318.035 317.452 322.626C317.403 327.217 321.085 330.978 325.675 331.027C330.265 331.077 334.027 327.395 334.076 322.804Z" fill="#363E44"/>
<path d="M325.784 327.341C323.228 327.341 321.148 325.262 321.148 322.705C321.148 320.149 323.228 318.069 325.784 318.069C328.34 318.069 330.42 320.149 330.42 322.705C330.42 325.261 328.34 327.341 325.784 327.341ZM325.784 318.557C323.497 318.557 321.636 320.418 321.636 322.705C321.636 324.993 323.497 326.853 325.784 326.853C328.071 326.853 329.932 324.993 329.932 322.705C329.932 320.418 328.071 318.557 325.784 318.557Z" fill="#FFDD33"/>
<path d="M352.748 322.814C352.798 318.223 349.117 314.462 344.526 314.412C339.936 314.362 336.175 318.044 336.125 322.635C336.075 327.226 339.756 330.987 344.347 331.037C348.937 331.087 352.699 327.405 352.748 322.814Z" fill="#363E44"/>
<path d="M344.448 327.341C341.892 327.341 339.812 325.262 339.812 322.705C339.812 320.149 341.892 318.069 344.448 318.069C347.004 318.069 349.084 320.149 349.084 322.705C349.084 325.261 347.004 327.341 344.448 327.341ZM344.448 318.557C342.161 318.557 340.301 320.418 340.301 322.705C340.301 324.993 342.161 326.853 344.448 326.853C346.735 326.853 348.596 324.993 348.596 322.705C348.596 320.418 346.735 318.557 344.448 318.557Z" fill="#FFDD33"/>
<path d="M371.421 322.823C371.472 318.232 367.793 314.468 363.203 314.416C358.612 314.364 354.849 318.044 354.797 322.635C354.745 327.226 358.424 330.989 363.015 331.041C367.605 331.093 371.369 327.413 371.421 322.823Z" fill="#363E44"/>
<path d="M363.112 327.341C360.556 327.341 358.477 325.262 358.477 322.705C358.477 320.149 360.556 318.069 363.112 318.069C365.668 318.069 367.748 320.149 367.748 322.705C367.748 325.261 365.668 327.341 363.112 327.341ZM363.112 318.557C360.825 318.557 358.965 320.418 358.965 322.705C358.965 324.993 360.825 326.853 363.112 326.853C365.399 326.853 367.26 324.993 367.26 322.705C367.26 320.418 365.399 318.557 363.112 318.557Z" fill="#FFDD33"/>
<path d="M508.915 323.312V326.177H445.43V261.455H446.619C464.337 261.455 480.329 268.802 491.668 280.592C496.292 285.397 500.142 290.937 503.021 297.018C506.8 305 508.915 313.91 508.915 323.312Z" fill="#0054A6"/>
<path d="M484.819 272.633C484.767 272.633 484.715 272.616 484.67 272.582C473.704 264.115 460.546 259.64 446.621 259.64H445.885C445.75 259.64 445.641 259.531 445.641 259.396C445.641 259.262 445.75 259.152 445.885 259.152H446.621C460.655 259.152 473.916 263.663 484.969 272.196C485.075 272.278 485.095 272.431 485.013 272.538C484.964 272.6 484.892 272.633 484.819 272.633Z" fill="#363E44"/>
<path d="M501.001 314.859C500.887 314.859 500.785 314.78 500.762 314.664C499.986 310.886 498.844 307.161 497.366 303.594C497.315 303.47 497.374 303.327 497.498 303.275C497.622 303.224 497.766 303.283 497.817 303.407C499.307 307.003 500.458 310.757 501.24 314.566C501.267 314.698 501.182 314.827 501.05 314.854C501.033 314.857 501.017 314.859 501.001 314.859Z" fill="#363E44"/>
<path d="M501.519 297.272V297.523H472.594V280.729H490.166C494.79 285.568 498.64 291.148 501.519 297.272Z" fill="#363E44"/>
<path d="M482.112 326.641L489.964 309.927H444.559C444.559 309.927 404.036 309.946 404.036 309.978L395.941 326.744C396.86 326.745 482.112 326.674 482.112 326.641Z" fill="#363E44"/>
<path d="M444.212 323.157C444.26 318.566 440.578 314.805 435.988 314.756C431.398 314.707 427.637 318.39 427.588 322.98C427.539 327.571 431.221 331.332 435.812 331.381C440.402 331.43 444.163 327.748 444.212 323.157Z" fill="#FFDD33"/>
<path d="M435.901 327.669C433.345 327.669 431.266 325.59 431.266 323.033C431.266 320.477 433.345 318.397 435.901 318.397C438.457 318.397 440.537 320.477 440.537 323.033C440.537 325.59 438.457 327.669 435.901 327.669ZM435.901 318.885C433.614 318.885 431.754 320.746 431.754 323.033C431.754 325.321 433.614 327.181 435.901 327.181C438.188 327.181 440.049 325.321 440.049 323.033C440.049 320.746 438.188 318.885 435.901 318.885Z" fill="#363E44"/>
<path d="M426.473 323.125C426.522 318.535 422.84 314.774 418.25 314.725C413.659 314.676 409.899 318.358 409.85 322.949C409.801 327.54 413.483 331.301 418.073 331.35C422.664 331.398 426.425 327.716 426.473 323.125Z" fill="#FFDD33"/>
<path d="M418.194 327.668C415.638 327.668 413.559 325.589 413.559 323.032C413.559 320.476 415.638 318.396 418.194 318.396C420.75 318.396 422.83 320.476 422.83 323.032C422.83 325.589 420.75 327.668 418.194 327.668ZM418.194 318.884C415.907 318.884 414.047 320.745 414.047 323.032C414.047 325.32 415.907 327.18 418.194 327.18C420.481 327.18 422.342 325.32 422.342 323.032C422.342 320.745 420.481 318.884 418.194 318.884Z" fill="#363E44"/>
<path d="M488.949 322.467C488.999 317.877 485.318 314.114 480.727 314.064C476.137 314.014 472.375 317.695 472.325 322.286C472.275 326.877 475.956 330.639 480.546 330.689C485.137 330.739 488.898 327.058 488.949 322.467Z" fill="#FFDD33"/>
<path d="M480.675 327.011C478.118 327.011 476.039 324.932 476.039 322.375C476.039 319.819 478.118 317.739 480.675 317.739C483.231 317.739 485.31 319.819 485.31 322.375C485.31 324.931 483.231 327.011 480.675 327.011ZM480.675 318.227C478.388 318.227 476.527 320.088 476.527 322.375C476.527 324.663 478.388 326.523 480.675 326.523C482.962 326.523 484.822 324.663 484.822 322.375C484.822 320.088 482.962 318.227 480.675 318.227Z" fill="#363E44"/>
<path d="M452.957 274.886L458.679 286.891L459.532 285.603L454.883 285.618L453.293 285.622L454.07 286.943L461.58 299.708L455.696 286.116L454.883 287.442L459.532 287.456L460.866 287.46L460.385 286.168L455.743 273.705L455.674 273.521L452.305 273.519L452.957 274.886Z" fill="white"/>
</g>
<defs>
<clipPath id="clip0_18202_7183">
<rect width="574" height="396" fill="white"/>
</clipPath>
</defs>
</svg>
