<svg width="105" height="55" viewBox="0 0 105 55" fill="none" xmlns="http://www.w3.org/2000/svg">
<g clip-path="url(#clip0_5122_12544)">
<path d="M96.0474 27.7853C95.9564 27.5892 95.9155 27.4906 95.8664 27.3965C94.5507 24.8729 93.2383 22.3494 91.909 19.8258C91.7758 19.5728 91.7927 19.4234 91.975 19.2051C94.0687 16.7395 96.1353 14.2603 98.2324 11.8049C98.3065 11.7183 98.3724 11.6266 98.4002 11.4721C97.7913 11.632 97.1825 11.7903 96.5703 11.9529C94.0436 12.6282 91.4967 13.3 88.9938 13.9854C88.7587 14.0492 88.6521 13.98 88.5338 13.7829C87.0996 11.365 85.6554 8.94034 84.2043 6.55318C84.1302 6.42803 84.0494 6.30662 83.8911 6.20193C83.7748 6.84646 83.6571 7.48759 83.5427 8.13212C83.1402 10.4067 82.7377 12.6677 82.3386 14.9526C82.295 15.1978 82.2354 15.4437 82.2145 15.6892C82.1945 15.9238 82.0744 16.0104 81.8627 16.078C78.8828 17.0226 75.9097 17.974 72.9332 18.9255C72.8027 18.9668 72.6745 19.0213 72.5341 19.1492C74.9694 20.1245 77.4047 21.0999 79.8739 22.0922C79.7839 22.1642 79.7244 22.2201 79.6584 22.2627C78.1363 23.2551 76.6109 24.2475 75.0922 25.2433C74.9099 25.3633 74.7658 25.3804 74.5612 25.2873C72.7414 24.462 70.9082 23.6504 69.0817 22.8319C68.2632 22.4636 67.5292 21.9759 66.9576 21.2666C65.6621 19.6706 65.9192 17.8564 67.6442 16.731C68.2091 16.3661 68.8517 16.0967 69.491 15.8853C72.41 14.927 75.3425 14.0028 78.2513 13.0752C78.4969 12.9965 78.6099 12.886 78.6572 12.6183C79.0496 10.3402 79.4521 8.04857 79.8613 5.79782C80.0792 4.58037 80.1942 3.33563 80.7814 2.21708C81.0063 1.78739 81.2752 1.36793 81.5999 1.00986C82.7634 -0.292852 84.3836 -0.340595 85.6249 0.898C86.0409 1.31746 86.3961 1.80853 86.7039 2.31666C88.0568 4.54354 89.3895 6.78406 90.7289 9.03481C90.8862 9.29978 91.0276 9.35298 91.3175 9.27591C94.5814 8.39266 97.8454 7.52305 101.126 6.65344C101.803 6.47373 102.483 6.40859 103.176 6.5392C104.681 6.82293 105.341 7.97832 104.83 9.44813C104.599 10.1165 104.198 10.6792 103.748 11.2146C101.468 13.9189 99.1815 16.6369 96.9153 19.331C96.7289 19.552 96.7252 19.7095 96.8544 19.9585C98.2209 22.5536 99.5738 25.142 100.947 27.7679C101.272 28.3885 101.522 29.0365 101.529 29.7492C101.545 31.3725 100.365 32.7025 98.7654 32.9412C97.8691 33.0732 97.0371 32.8802 96.1948 32.6189C94.1485 31.9812 92.1022 31.3537 90.0389 30.7297C89.8485 30.6724 89.7758 30.5963 89.7416 30.39C89.5062 28.9338 89.2478 27.4811 88.9975 26.0249C88.9911 25.985 89.0029 25.9424 89.0097 25.853C91.3469 26.5044 93.6773 27.1455 96.0788 27.8173" fill="#E25A1C"/>
<path d="M81.1249 22.7397L80.3707 28.5499C80.1195 30.481 79.8684 32.4077 79.6164 34.3345L79.6759 34.3758C82.2973 31.4498 84.9186 28.5102 87.5907 25.5433L87.8007 26.7642L88.0804 28.4198C88.1741 28.9723 88.2692 29.5247 88.369 30.0755C88.4099 30.2978 88.3504 30.4336 88.2039 30.5904C86.5093 32.3774 84.8215 34.1712 83.1303 35.9786C83.0563 36.0574 82.9863 36.1385 82.9017 36.232L83.0042 36.4003C83.0211 36.4274 83.0382 36.4539 83.0563 36.4796L85.9666 40.6059L91.7828 48.8587C91.8356 48.9334 91.912 48.992 91.9769 49.0585L91.9767 49.0991L90.8803 49.0969C89.4042 49.0934 87.9289 49.0888 86.4407 49.0954C86.1961 49.0954 86.0585 49.0248 85.9232 48.8154C83.7382 45.4597 81.5261 42.0972 79.3614 38.7552L79.2616 38.6085C79.2156 38.5423 79.1621 38.4663 79.0931 38.3664L78.2179 45.081C78.0438 46.4146 77.87 47.7446 77.6962 49.0746H72.8594L72.9418 48.3725C72.9689 48.141 72.9964 47.9117 73.0262 47.6832C73.3788 44.9465 73.7352 42.2289 74.0911 39.5018L74.4468 36.7704C74.9 33.292 75.3499 29.8136 75.8099 26.3351C75.8231 26.2325 75.8917 26.1005 75.9749 26.046C77.6391 24.9513 79.31 23.8668 80.9808 22.7824C81.0049 22.7663 81.039 22.765 81.1249 22.7397ZM73.3634 29.3904L73.3847 29.4221L72.9432 32.7949C72.8942 33.1699 72.8452 33.5459 72.7962 33.9236L71.1699 33.9217C70.8114 33.9216 70.4542 33.9224 70.097 33.9249C69.3732 33.9304 68.7136 34.4024 68.4938 35.0844C68.4092 35.3508 68.3778 35.6369 68.3406 35.9165L66.9876 46.2836C66.874 47.1566 66.7644 48.0297 66.6507 48.9163H62.1522L62.3482 47.3491C62.3646 47.2201 62.3811 47.0912 62.3977 46.9623L62.8366 43.593C62.9831 42.471 63.13 41.3524 63.2772 40.2441C63.5322 38.3037 63.7608 36.3564 64.0619 34.4126C64.4644 31.8208 67.0214 29.5019 69.609 29.3996C70.8469 29.345 72.0882 29.3904 73.3634 29.3904ZM35.3178 30.3394C37.5772 31.8058 38.8693 33.9543 39.1737 36.6143C39.5931 40.3996 38.2097 43.537 35.5545 46.1629C33.8025 47.8714 31.6986 48.9559 29.2971 49.3242C26.8505 49.6957 24.5472 49.2995 22.48 47.8844L22.3633 47.8032C22.2865 47.7487 22.2033 47.7009 22.0714 47.617L22.0402 47.5645L21.7279 49.924L21.6276 50.6917C21.4507 52.049 21.2724 53.4096 21.1033 54.784C21.0837 54.9425 21.036 55.0013 20.8669 54.9999C19.5376 54.9948 18.2083 55.0026 16.8757 54.9999C16.8452 54.9999 16.8148 54.9893 16.7434 54.9681L16.9035 53.6833C16.9304 53.4691 16.9575 53.255 16.9853 53.0413C17.2785 50.7906 17.5704 48.5398 17.8681 46.2891C18.2097 43.7109 18.4769 41.1396 18.9132 38.582C19.6844 34.0464 23.5133 30.1587 27.978 29.1697C30.5723 28.6036 33.0516 28.8659 35.3178 30.3394ZM13.6195 21.907C15.7064 21.983 17.3739 22.9675 18.6592 24.6045C18.8503 24.8466 19.0355 25.093 19.2215 25.3445L19.7788 26.1018L15.4446 29.3573C15.2122 28.989 15.0049 28.6207 14.7614 28.2762C14.1356 27.393 13.3577 26.7348 12.228 26.6564C11.2877 26.5895 10.4827 26.9012 9.84339 27.601C9.27177 28.2251 9.19736 29.1152 9.7311 29.8211C10.3196 30.5986 10.9623 31.3352 11.6218 32.0548C11.934 32.3958 12.25 32.7329 12.5674 33.0687L13.5215 34.0745C13.9983 34.5779 14.4727 35.084 14.9366 35.6014C15.9208 36.6927 16.7089 37.9136 16.9525 39.4209C17.242 41.1942 16.8906 42.8652 16.0595 44.4339C14.5205 47.3156 12.1021 49.0036 8.88888 49.5152C7.47505 49.7453 6.06798 49.7003 4.69474 49.2911C2.86487 48.7489 1.58972 47.5382 0.771182 45.8468C0.481989 45.2432 0.260443 44.6054 0 43.9575L4.73533 41.4032L4.82251 41.6211C4.84083 41.666 4.85926 41.7089 4.87942 41.7511C4.93333 41.8595 4.9853 41.9693 5.03659 42.0796L5.18972 42.4111C5.34338 42.7424 5.50245 43.0702 5.70133 43.3709C6.69237 44.8544 8.28885 45.3045 9.89548 44.5713C10.3115 44.3821 10.714 44.1178 11.0556 43.8109C12.0974 42.8765 12.2936 41.5738 11.5224 40.4006C11.0793 39.7254 10.5246 39.1184 9.98342 38.5148C8.69135 37.0688 7.34517 35.6672 6.09369 34.1838C5.22442 33.1675 4.6325 31.9876 4.44309 30.6371C4.23846 29.1503 4.53306 27.7521 5.29883 26.5108C7.20311 23.4041 9.96651 21.8047 13.6195 21.907ZM28.5104 33.4496C25.632 34.1237 23.5533 36.3869 23.2441 39.3468L23.2339 39.4516C23.0106 41.6682 24.1945 43.8167 26.393 44.601C28.1654 45.2455 29.8769 44.9761 31.4666 44.0179C33.567 42.7493 34.7035 40.8634 34.849 38.1864H34.8256C34.7515 37.8078 34.6988 37.2486 34.531 36.7268C33.7192 34.2066 31.1588 32.8391 28.5104 33.4496ZM55.1334 42.5917L55.1199 42.6197C54.8767 44.4919 54.6463 46.2686 54.4096 48.0419C54.3964 48.1326 54.3264 48.2551 54.2509 48.2899C50.6318 49.9745 45.8965 49.7392 42.9538 46.3494C41.3641 44.5284 40.6978 42.3595 40.7959 39.9723C41.0269 34.4136 45.5988 29.537 51.0783 28.855C54.2746 28.4594 57.0651 29.329 59.2298 31.8355C60.7045 33.5406 61.3878 35.5868 61.2863 37.8375C61.2258 39.2005 61.0264 40.5548 60.8526 41.9032L60.806 42.2708C60.5455 44.3647 60.2614 46.4654 59.9875 48.5456L59.973 48.6352C59.9649 48.6816 59.9555 48.7312 59.9452 48.7881H55.6496L55.7614 47.837C55.7803 47.6798 55.7997 47.5229 55.82 47.366C56.1319 44.9482 56.4762 42.5235 56.7502 40.1022C56.9207 38.5949 56.8134 37.0978 56.1278 35.703C55.4006 34.2196 54.183 33.4318 52.5763 33.2613C49.2548 32.9067 46.0822 35.2324 45.4057 38.5131C44.9389 40.6888 45.6753 42.7759 47.3945 43.9353C49.0688 45.0573 50.8446 45.0607 52.671 44.3343C53.5978 43.966 54.3825 43.3795 55.1334 42.5917Z" fill="#3C3A3E"/>
<path d="M25.7944 22.8745H26.9072L26.6441 21.1762L25.7944 22.8745ZM27.0844 23.9726H25.2329L24.6444 25.1355H23.332L26.224 19.6791H27.489L28.4732 25.1355H27.259L27.0844 23.9726ZM33.7092 20.7943H33.0496L32.8277 22.0527H33.4873C33.8864 22.0527 34.201 21.7891 34.201 21.2922C34.201 20.9788 34.0212 20.8107 33.7487 20.7954L33.7092 20.7943ZM32.1059 19.686L33.8445 19.6962C34.7509 19.6962 35.3834 20.2418 35.3834 21.1762C35.3834 22.3562 34.5581 23.1473 33.3811 23.1473H32.6336L32.2818 25.1423H31.1521L32.1059 19.686ZM39.2224 22.8745H40.3352L40.0724 21.1762L39.2224 22.8745ZM40.5091 23.9726H38.6576L38.069 25.1355H36.7567L39.6486 19.6791H40.9136L41.8979 25.1355H40.6836L40.5091 23.9726ZM47.6804 24.9527L47.6784 24.9548C47.2962 25.1307 46.8767 25.2358 46.4539 25.2358C45.0232 25.2358 44.1269 24.1547 44.1269 22.8009C44.1269 21.0685 45.5712 19.6123 47.2894 19.6123C47.719 19.6123 48.1079 19.7163 48.4259 19.8919L48.2672 21.1981C48.0295 20.9331 47.6449 20.7479 47.1714 20.7479C46.1871 20.7479 45.311 21.6448 45.311 22.6849C45.311 23.4761 45.8049 24.0968 46.5828 24.0968C47.0597 24.0968 47.5197 23.9116 47.8309 23.6568L47.6804 24.9527ZM54.7847 22.9427H52.4306L52.0484 25.1355H50.9221L51.8759 19.6791H53.0056L52.6268 21.8344H54.9775L55.3597 19.6791H56.4895L55.5356 25.1355H54.4059L54.7847 22.9427ZM58.8419 25.1185L59.794 19.6689H62.7908L62.6004 20.767H60.7333L60.5429 21.8242H62.2578L62.0673 22.9223H60.3525L60.162 24.0204H62.0291L61.8387 25.1185H58.8419Z" fill="#3C3A3E"/>
</g>
<defs>
<clipPath id="clip0_5122_12544">
<rect width="105" height="55" fill="white"/>
</clipPath>
</defs>
</svg>
