<svg width="48" height="48" viewBox="0 0 48 48" fill="none" xmlns="http://www.w3.org/2000/svg">
<path d="M38.4 38.6L41.3 45.6C41.5 46 41.3 46.5 40.8 46.7C40.6 46.8 40.5 46.8 40.3 46.7L38.1 46.3C37.8 46.2 37.5 46.3 37.4 46.5L36.2 47.7C35.9 48 35.4 48 35 47.7C34.9 47.6 34.8 47.5 34.8 47.4L33.6 43.3L31.5 36.5L38.4 38.6Z" fill="#54CC5A"/>
<path d="M29.2032 38.6L26.3032 45.6C26.1032 46 26.3032 46.5 26.8032 46.7C27.0032 46.8 27.1032 46.8 27.3032 46.7L29.5032 46.3C29.8032 46.2 30.1032 46.3 30.2032 46.5L31.4032 47.7C31.7032 48 32.2032 48 32.6032 47.7C32.7032 47.6 32.8032 47.5 32.8032 47.4L34.0032 43.3L36.1032 36.5L29.2032 38.6Z" fill="#54CC5A"/>
<path opacity="0.19" d="M38.4 38.6L41.3 45.6C41.5 46 41.3 46.5 40.8 46.7C40.6 46.8 40.5 46.8 40.3 46.7L38.1 46.3C37.8 46.2 37.5 46.3 37.4 46.5L36.2 47.7C35.9 48 35.4 48 35 47.7C34.9 47.6 34.8 47.5 34.8 47.4L33.6 43.3L31.5 36.5L38.4 38.6Z" fill="#2D2F31"/>
<path opacity="0.19" d="M29.2032 38.6L26.3032 45.6C26.1032 46 26.3032 46.5 26.8032 46.7C27.0032 46.8 27.1032 46.8 27.3032 46.7L29.5032 46.3C29.8032 46.2 30.1032 46.3 30.2032 46.5L31.4032 47.7C31.7032 48 32.2032 48 32.6032 47.7C32.7032 47.6 32.8032 47.5 32.8032 47.4L34.0032 43.3L36.1032 36.5L29.2032 38.6Z" fill="#2D2F31"/>
<path d="M26.6 11.5998H21.5L21.9 13.2998L24.2 23.7998L26.8 36.6998C26.6 37.9998 25.5 38.9998 24.2 38.9998H5.6C4.1 38.9998 2.9 37.7998 2.9 36.2998C2.9 36.0998 2.9 35.8998 3 35.6998L7.9 13.2998L8.3 11.5998H3.2C2.8 11.5998 2.5 11.2998 2.5 10.8998C2.5 10.6998 2.6 10.4998 2.7 10.3998L14.4 0.199805C14.7 -0.00019531 15.1 -0.00019531 15.3 0.199805L27 10.3998C27.3 10.5998 27.3 11.0998 27.1 11.2998C27 11.4998 26.8 11.5998 26.6 11.5998Z" fill="#0054A6"/>
<path d="M45.1984 29.8999L43.9984 31.5999C43.7984 31.8999 43.6984 32.1999 43.6984 32.4999V34.5999C43.6984 35.2999 43.1984 35.8999 42.5984 36.0999L40.5984 36.7999C40.2984 36.8999 39.9984 37.0999 39.7984 37.3999L38.4984 39.0999C38.0984 39.6999 37.2984 39.8999 36.5984 39.6999L34.3984 38.9999C34.0984 38.8999 33.6984 38.8999 33.3984 38.9999L31.2984 39.5999C30.5984 39.7999 29.8984 39.5999 29.3984 38.9999L28.0984 37.2999C27.8984 36.9999 27.5984 36.7999 27.2984 36.6999L25.2984 35.9999C24.5984 35.7999 24.1984 35.1999 24.1984 34.4999V32.3999C24.1984 32.0999 24.0984 31.7999 23.8984 31.4999L22.6984 29.7999C22.2984 29.1999 22.2984 28.4999 22.6984 27.8999L23.8984 26.1999C24.0984 25.8999 24.1984 25.5999 24.1984 25.2999V23.1999C24.1984 22.4999 24.6984 21.8999 25.2984 21.6999L27.2984 20.9999C27.5984 20.8999 27.8984 20.6999 28.0984 20.3999L29.3984 18.6999C29.7984 18.0999 30.5984 17.8999 31.2984 18.0999L33.3984 18.6999C33.6984 18.7999 34.0984 18.7999 34.3984 18.6999L36.4984 18.0999C37.1984 17.8999 37.8984 18.0999 38.3984 18.6999L39.6984 20.3999C39.8984 20.6999 40.1984 20.8999 40.4984 20.9999L42.4984 21.6999C43.1984 21.8999 43.5984 22.4999 43.5984 23.1999V25.2999C43.5984 25.5999 43.6984 25.8999 43.8984 26.1999L45.0984 27.8999C45.5984 28.5999 45.5984 29.2999 45.1984 29.8999Z" fill="#54CC5A"/>
<path opacity="0.19" d="M33.8969 35.5999C37.542 35.5999 40.4969 32.645 40.4969 28.9999C40.4969 25.3548 37.542 22.3999 33.8969 22.3999C30.2518 22.3999 27.2969 25.3548 27.2969 28.9999C27.2969 32.645 30.2518 35.5999 33.8969 35.5999Z" fill="#2D2F31"/>
<path d="M33.1031 32.2999C32.9031 32.2999 32.7031 32.1999 32.5031 32.0999L30.8031 30.3999C30.5031 30.0999 30.5031 29.4999 30.8031 29.1999C31.1031 28.8999 31.6031 28.8999 31.9031 29.1999L32.8031 30.0999L35.6031 25.9999C35.9031 25.5999 36.4031 25.4999 36.7031 25.7999C37.1031 26.0999 37.2031 26.5999 36.9031 26.8999L33.6031 31.8999C33.7031 32.0999 33.4031 32.1999 33.1031 32.2999Z" fill="#F9FAFB"/>
<path d="M11.6016 28.1001C10.2016 28.1001 9.10156 27.0001 9.10156 25.6001C9.10156 24.2001 10.2016 23.1001 11.6016 23.1001C13.0016 23.1001 14.1016 24.2001 14.1016 25.6001C14.1016 27.0001 13.0016 28.1001 11.6016 28.1001ZM11.6016 24.8001C11.1016 24.8001 10.8016 25.2001 10.8016 25.6001C10.8016 26.1001 11.2016 26.4001 11.6016 26.4001C12.1016 26.4001 12.4016 26.0001 12.4016 25.6001C12.4016 25.2001 12.0016 24.8001 11.6016 24.8001Z" fill="#D2D9DC"/>
<path d="M18.2031 34.7998C16.8031 34.7998 15.7031 33.6998 15.7031 32.2998C15.7031 30.8998 16.8031 29.7998 18.2031 29.7998C19.6031 29.7998 20.7031 30.8998 20.7031 32.2998C20.7031 33.5998 19.6031 34.7998 18.2031 34.7998ZM18.2031 31.3998C17.7031 31.3998 17.4031 31.7998 17.4031 32.1998C17.4031 32.6998 17.8031 32.9998 18.2031 32.9998C18.7031 32.9998 19.0031 32.5998 19.0031 32.1998C19.0031 31.7998 18.7031 31.3998 18.2031 31.3998Z" fill="#D2D9DC"/>
<path d="M9.90156 34.7999C9.40156 34.7999 9.10156 34.3999 9.10156 33.9999C9.10156 33.7999 9.20156 33.5999 9.30156 33.3999L19.2016 23.4999C19.5016 23.1999 20.1016 23.1999 20.4016 23.4999C20.7016 23.7999 20.7016 24.2999 20.4016 24.5999L10.5016 34.4999C10.4016 34.6999 10.2016 34.7999 9.90156 34.7999Z" fill="#D2D9DC"/>
</svg>
