<svg width="81" height="65" viewBox="0 0 81 65" fill="none" xmlns="http://www.w3.org/2000/svg">
<g clip-path="url(#clip0_5122_12574)">
<path d="M54.5117 20.6973L45.633 23.5965L37.9087 27.0056L35.7477 27.5761C35.1974 28.0996 34.6203 28.6298 33.9962 29.1667C33.3116 29.7572 32.6741 30.2942 32.1841 30.6833C31.6406 31.1129 30.8352 31.9182 30.4259 32.4281C29.8152 33.1932 29.332 34.0052 29.1239 34.6294C28.7548 35.7569 28.9361 36.8977 29.6474 37.9514C30.5601 39.2935 32.3788 40.6625 34.4995 41.5954C35.58 42.072 37.3987 42.6826 38.7677 43.0248C41.0426 43.602 45.4451 44.2261 47.8677 44.3202C48.3575 44.3403 49.0153 44.3403 49.0421 44.3202C49.0958 44.2865 49.4716 43.5685 49.9079 42.676C51.3978 39.6358 52.4715 36.7836 53.0553 34.3476C53.4043 32.8712 53.6794 30.9049 53.8605 28.5762C53.9076 27.9252 53.9276 25.7442 53.8874 25.0059C53.8269 23.7979 53.7196 22.8182 53.5519 21.8585C53.5251 21.7175 53.5183 21.59 53.5317 21.5833C53.5585 21.5632 53.639 21.5364 54.7329 21.2209L54.5116 20.6975V20.6973H54.5117V20.6973ZM52.485 21.8852C52.5655 21.8852 52.7802 23.9454 52.8339 25.2475C52.8474 25.5226 52.8405 25.7038 52.8272 25.7038C52.7735 25.7038 51.693 25.0663 50.9214 24.5831C50.2502 24.1603 48.9752 23.3147 48.7739 23.1536C48.7066 23.1067 48.7133 23.1 49.2637 22.912C50.1964 22.5965 52.4112 21.8852 52.485 21.8852ZM47.9618 23.3751C48.0222 23.3751 48.1764 23.4622 48.5456 23.6905C49.928 24.5562 51.8072 25.6031 52.6125 25.9521C52.8607 26.0595 52.8875 26.0192 52.3172 26.4085C51.0958 27.2406 49.5723 28.0593 47.7066 28.8848C47.3778 29.0324 47.1027 29.1465 47.096 29.1465C47.0827 29.1465 47.1228 28.9788 47.1764 28.7774C47.6261 27.1063 47.8811 25.4152 47.8946 24.0595C47.9013 23.3884 47.9013 23.3884 47.9618 23.3684C47.9483 23.3751 47.955 23.3751 47.9618 23.3751ZM47.029 23.7307C47.0691 23.7709 47.0423 25.2743 46.9886 25.6836C46.8678 26.6634 46.6799 27.5761 46.3713 28.603C46.2975 28.8511 46.2303 29.0593 46.217 29.0726C46.19 29.1062 45.2706 28.2069 44.9686 27.858C44.4451 27.2539 44.0358 26.6499 43.7338 26.0594C43.5795 25.7574 43.3379 25.1669 43.358 25.1467C43.4654 25.0729 47.0021 23.7039 47.029 23.7307ZM42.6399 25.4554C42.6466 25.4554 42.6533 25.4554 42.6601 25.4621C42.6734 25.4755 42.7205 25.5829 42.7608 25.7037C42.9754 26.2876 43.4586 27.1466 43.8748 27.6969C44.3311 28.3009 44.9284 28.9451 45.4249 29.3679C45.5861 29.5021 45.7336 29.6296 45.7537 29.6498C45.7941 29.6901 45.8075 29.6833 44.7135 30.0994C43.4453 30.5826 42.0627 31.0658 40.4789 31.5758C40.1005 31.6978 39.7226 31.8208 39.3449 31.9449C39.2844 31.9651 39.3046 31.9315 39.4791 31.6564C40.2642 30.4282 41.4587 28.019 42.1299 26.3144C42.244 26.0191 42.358 25.7239 42.3782 25.6568C42.4051 25.5627 42.4386 25.5292 42.5258 25.4822C42.5728 25.4689 42.6198 25.4554 42.6399 25.4554ZM41.2978 26.0124C41.3179 26.0259 40.9756 26.7439 40.6401 27.4016C39.9891 28.67 39.2777 29.9183 38.3248 31.4349C38.1637 31.6966 38.0094 31.9383 37.9892 31.9651C37.9557 32.0121 37.9422 31.9986 37.8349 31.7907C37.6067 31.341 37.4187 30.7638 37.3181 30.2336C37.2174 29.7101 37.2376 28.7975 37.3517 28.2338C37.4389 27.8177 37.4322 27.8245 37.6335 27.7238C38.4925 27.2876 41.2709 25.9856 41.2978 26.0124ZM52.8742 26.4823V26.7641C52.8742 28.2607 52.7132 30.3142 52.4782 31.8108C52.4379 32.0725 52.4043 32.2872 52.3977 32.294C52.3977 32.294 52.2031 32.2404 51.9749 32.1732C50.9683 31.8577 49.8744 31.3947 48.8878 30.8512C48.2368 30.4955 47.2906 29.9115 47.3175 29.8847C47.3241 29.878 47.606 29.7304 47.9348 29.5559C49.2503 28.8714 50.5118 28.1332 51.6058 27.4017C52.0152 27.1265 52.6325 26.6836 52.7668 26.5628L52.8742 26.4823ZM36.2309 28.4686C36.2577 28.4686 36.251 28.5223 36.2108 28.7639C36.1839 28.9384 36.1504 29.2606 36.137 29.4819C36.0832 30.4618 36.2444 31.1866 36.7276 32.1798C36.8618 32.455 36.9692 32.6831 36.9624 32.6898C36.9154 32.7301 32.4728 34.0321 31.0768 34.4146C30.6608 34.5286 30.2985 34.6293 30.2715 34.6359C30.2246 34.6494 30.2179 34.6427 30.238 34.5286C30.3923 33.5421 31.144 32.2536 32.1908 31.1664C32.8888 30.4416 33.4459 30.0188 34.3988 29.4752C35.0833 29.086 36.1369 28.5022 36.2175 28.4753C36.2175 28.4686 36.2242 28.4686 36.2309 28.4686ZM46.7001 30.341C46.7068 30.3343 46.8678 30.4216 47.0624 30.5356C48.4986 31.3678 50.4984 32.1396 52.2029 32.5355L52.3574 32.5691L52.1426 32.6898C51.2501 33.1865 48.3174 34.4078 45.3176 35.5286C44.8813 35.6896 44.4519 35.8507 44.3712 35.8842C44.2907 35.9178 44.2169 35.9379 44.2169 35.9313C44.2169 35.9244 44.3378 35.6896 44.492 35.4011C45.3309 33.8307 46.1765 31.9181 46.606 30.5893C46.6598 30.4618 46.6933 30.3478 46.7001 30.341ZM45.633 30.69C45.6398 30.6968 45.5861 30.8376 45.5189 30.9987C44.9351 32.4147 44.17 33.9583 43.1902 35.6897C42.942 36.1327 42.7339 36.4884 42.7271 36.4884C42.7205 36.4884 42.5191 36.3675 42.2775 36.2199C40.8547 35.3474 39.5931 34.2737 38.7677 33.2335L38.6468 33.0858L39.2575 32.918C41.4453 32.3208 43.3042 31.6766 45.1498 30.8847C45.4116 30.7773 45.6264 30.69 45.633 30.69ZM52.2635 33.0053C52.2702 33.1597 51.9279 34.5421 51.646 35.542C51.4112 36.3809 51.2097 37.0386 50.8407 38.1995C50.6797 38.7097 50.5388 39.1323 50.532 39.1323C50.5253 39.1323 50.4851 39.1257 50.4448 39.1123C48.4517 38.7498 46.6665 38.2465 44.9888 37.5755C44.519 37.3875 43.8479 37.0855 43.8076 37.052C43.7943 37.0384 44.1969 36.8506 44.707 36.6291C47.7605 35.2937 50.928 33.7769 52.0152 33.1261C52.1426 33.0455 52.2433 33.0053 52.2635 33.0053ZM36.9557 33.5288C36.9692 33.5422 36.1169 34.7703 34.9222 36.4413C34.5062 37.0252 34.023 37.7097 33.8419 37.9647C33.6606 38.2197 33.3855 38.6224 33.2312 38.864L32.9492 39.3002L32.6472 39.0452C32.2915 38.7499 31.6741 38.1191 31.399 37.7701C30.8218 37.0521 30.4326 36.2937 30.2783 35.6026C30.2044 35.2804 30.2044 35.1192 30.2715 35.0992C30.3721 35.0724 32.1639 34.6496 33.8418 34.2602C34.7746 34.0456 35.855 33.7906 36.2443 33.6966C36.6336 33.6025 36.9491 33.5288 36.9557 33.5288ZM37.8147 33.8576L38.0294 34.0992C38.9959 35.1797 39.9824 35.9784 41.1769 36.6762C41.3917 36.7971 41.5527 36.9044 41.5393 36.9112C41.4924 36.9447 37.3919 38.4009 35.4927 39.0586C34.4257 39.4344 33.5465 39.7364 33.5399 39.7364C33.5332 39.7364 33.4728 39.6962 33.4055 39.6492L33.2848 39.5619L33.4794 39.2801C34.1102 38.3674 34.9022 37.3675 36.6269 35.2871L37.8147 33.8576ZM43.1702 37.6895C43.1767 37.6829 43.472 37.7902 43.8344 37.9245C44.707 38.2533 45.3981 38.4613 46.3243 38.6962C47.4652 38.9848 49.116 39.2667 50.0892 39.3472C50.2368 39.3606 50.3173 39.3741 50.2905 39.3942C50.2434 39.4211 49.257 39.7499 48.5322 39.9781C47.3778 40.3404 43.8546 41.3806 40.9823 42.2061C40.4522 42.3604 39.9958 42.488 39.9689 42.4946C39.9019 42.5081 39.6804 42.4476 39.6804 42.4208C39.6804 42.4075 39.8414 42.1994 40.0361 41.9712C41.0024 40.8169 41.9621 39.5284 42.7608 38.307C42.9822 37.9714 43.1702 37.6963 43.1702 37.6895ZM41.9889 37.7232C41.9956 37.7299 41.5192 38.4949 40.6871 39.8102C40.3313 40.3672 39.9354 40.998 39.7944 41.2195C39.6602 41.4343 39.4589 41.7699 39.3448 41.9577L39.1502 42.3L39.0495 42.2732C38.8079 42.2061 37.11 41.6087 36.6604 41.4276C36.1033 41.2061 35.5262 40.9377 35.0967 40.7095C34.5599 40.4209 33.8888 39.9914 33.9424 39.978C33.9558 39.9713 34.8753 39.7229 35.9825 39.421C38.922 38.6223 40.5527 38.1593 41.6198 37.8238C41.8145 37.7634 41.9822 37.7164 41.9889 37.7232ZM50.3441 39.6827H50.3508C50.3777 39.7499 49.2906 42.7698 48.8944 43.7227C48.8073 43.9374 48.7739 43.9912 48.7268 43.9844C48.6127 43.9778 47.0357 43.7563 46.0759 43.6153C44.4049 43.3603 41.5997 42.8704 40.8951 42.7094L40.734 42.6759L41.7339 42.4475C43.8814 41.9644 44.9149 41.7027 45.9618 41.3805C47.2839 40.9779 48.5926 40.4745 49.9146 39.8572C50.1226 39.7632 50.2971 39.6894 50.3441 39.6827Z" fill="url(#paint0_linear_5122_12574)"/>
<path d="M45.3587 0.000343728C45.211 -0.0196789 42.8285 0.839315 41.2918 1.46336C39.218 2.30905 37.6075 3.11441 36.6142 3.8122C36.2452 4.07404 35.782 4.53704 35.7083 4.7182C35.6815 4.78533 35.668 4.86585 35.668 4.94637L36.5673 5.79868L38.708 6.4832L43.8017 7.39592L49.6268 8.39587L49.6872 7.89255C49.6671 7.89255 49.6537 7.88587 49.6337 7.88587L48.8684 7.76502L48.7142 7.4899C47.9223 6.09398 47.0498 4.36253 46.5398 3.19481C46.1439 2.28881 45.7681 1.242 45.56 0.490326C45.4459 0.0339828 45.4325 0.00715198 45.3588 0.000467448V0.000312562H45.3587V0.000343728ZM45.2511 0.34271H45.258C45.2646 0.349332 45.2915 0.537366 45.3184 0.758698C45.4324 1.69837 45.6406 2.60422 45.9694 3.58406C46.2176 4.3223 46.2176 4.28207 45.9291 4.19477C45.2446 4.00692 42.1777 3.47673 39.9563 3.16804C39.6006 3.12103 39.2986 3.07408 39.2986 3.0674C39.2718 3.04057 40.9025 2.1882 41.6206 1.85273C42.54 1.42984 45.0633 0.376225 45.2511 0.34271ZM38.7818 3.3492L39.0436 3.43635C40.4663 3.91962 44.0431 4.60416 46.0163 4.76521C46.2377 4.78536 46.4257 4.80553 46.4323 4.80553C46.439 4.81222 46.2512 4.91289 46.0095 5.02693C45.0566 5.50342 44.0097 6.08729 43.2849 6.53695C43.0702 6.67111 42.8755 6.77855 42.8487 6.77855C42.8218 6.77855 42.681 6.75169 42.5333 6.73155L42.2649 6.69122L41.5939 6.03351C40.4127 4.886 39.4866 4.00017 39.1309 3.66455L38.7818 3.3492ZM38.5134 3.5572L39.4597 4.73838C39.9764 5.38935 40.4998 6.02685 40.614 6.16772C40.728 6.30875 40.822 6.42288 40.8153 6.42957C40.7885 6.44968 39.4464 6.1879 38.7349 6.02692C38.0034 5.85909 37.7014 5.77857 37.2518 5.6377L36.8827 5.51685V5.42283C36.8893 4.97317 37.4599 4.30212 38.4262 3.61767L38.5134 3.5572ZM46.5532 5.16786C46.5801 5.16786 46.6135 5.22824 46.694 5.40943C46.9222 5.91272 47.6337 7.26841 47.808 7.5301C47.8619 7.61743 47.9557 7.62412 47.0095 7.46975C44.7346 7.10056 44.003 6.9799 44.003 6.96646C44.003 6.95978 44.0701 6.91277 44.1574 6.86576C44.8621 6.47661 45.5734 5.97994 46.2042 5.44976C46.3586 5.32222 46.4995 5.20144 46.5263 5.18126C46.533 5.16786 46.5465 5.16118 46.5532 5.16786Z" fill="url(#paint1_linear_5122_12574)"/>
<path d="M35.7535 4.62402C35.7535 4.62402 35.6059 4.859 35.7469 5.20799C35.8342 5.42267 36.0892 5.68436 36.3777 5.95285C36.3777 5.95285 39.364 8.86539 39.7265 9.28153C41.3773 11.1874 42.0954 13.0665 42.1625 15.657C42.2028 17.3213 41.8873 18.7843 41.1022 20.4822C39.7063 23.529 36.7601 26.8912 32.2168 30.6226L32.8813 30.4011C33.3108 30.0789 33.8946 29.7367 35.2636 28.9851C38.4245 27.2535 41.9813 25.663 46.3435 24.0256C52.6248 21.6632 62.9532 18.8983 68.8319 17.9991L69.4427 17.9051L69.3487 17.7574C68.8119 16.9252 68.4427 16.4085 67.9997 15.8583C66.7113 14.261 65.1477 12.9659 63.235 11.8921C60.6043 10.4224 57.2017 9.27485 52.8934 8.42254C52.0813 8.2614 50.2962 7.95274 48.8467 7.73128C45.773 7.25491 43.7865 6.92601 41.5988 6.55019C40.8137 6.41591 39.6391 6.21463 38.8607 6.0469C38.458 5.95957 37.6863 5.77841 37.0823 5.57038C36.5992 5.38238 35.9012 5.19447 35.7535 4.62402ZM37.485 6.30184C37.4917 6.29522 37.599 6.33536 37.74 6.38237C37.9951 6.46951 38.3239 6.57021 38.7132 6.67766C39.0077 6.75868 39.303 6.83697 39.599 6.91252C40.0017 7.01313 40.3372 7.10711 40.3439 7.10711C40.3909 7.15412 41.0688 9.32161 41.2969 10.1538C41.384 10.4693 41.4513 10.7377 41.4446 10.7377C41.4377 10.7445 41.364 10.6303 41.2768 10.476C40.4915 9.0935 39.25 7.69093 37.8138 6.56344C37.626 6.42934 37.485 6.30853 37.485 6.30184ZM40.7868 7.21453C40.8204 7.21453 40.9681 7.23467 41.1492 7.27491C42.2901 7.52991 44.3369 7.91916 45.6455 8.14065C45.867 8.17416 46.0416 8.21452 46.0416 8.22785C46.0416 8.24135 45.9609 8.28823 45.8602 8.34199C45.6389 8.45603 44.7462 8.98615 44.451 9.18752C43.7061 9.68412 43.035 10.221 42.5518 10.7042C42.3572 10.8988 42.1893 11.0599 42.1893 11.0599C42.1893 11.0599 42.1492 10.9458 42.1155 10.8048C41.8741 9.87197 41.3706 8.48948 40.9143 7.51645C40.8405 7.36214 40.78 7.22118 40.78 7.20781C40.78 7.22121 40.78 7.21453 40.7868 7.21453ZM46.5985 8.32184C46.6388 8.33521 46.7059 8.56341 46.8401 9.0667C47.0884 10.0399 47.2025 11.127 47.1623 12.1404C47.1488 12.4222 47.1354 12.6839 47.1219 12.7176L47.1018 12.7846L46.7529 12.6706C46.0348 12.4424 44.8671 12.1001 43.8672 11.8183C43.2967 11.6639 42.8338 11.523 42.8338 11.5096C42.8338 11.4692 43.6659 10.6371 44.0216 10.3217C44.6993 9.72435 46.5381 8.30166 46.5985 8.32184ZM47.0616 8.38887C47.0817 8.36885 49.84 8.84521 51.0949 9.08685C52.0278 9.26801 53.3834 9.54991 53.4639 9.58351C53.5041 9.59688 53.3632 9.67741 52.9135 9.87872C51.1419 10.6774 49.8264 11.3954 48.5179 12.2679C48.1757 12.4961 47.887 12.6839 47.8804 12.6839C47.8737 12.6839 47.867 12.4894 47.867 12.2545C47.867 10.9794 47.6119 9.69087 47.1421 8.6037C47.0951 8.49632 47.0549 8.39568 47.0616 8.38887ZM54.1953 9.79826C54.2155 9.81837 54.1282 10.362 54.0477 10.6841C53.8061 11.684 53.1552 13.1673 52.3566 14.5631C52.2156 14.8114 52.0881 15.0127 52.0746 15.0194C52.0613 15.0261 51.8801 14.9254 51.672 14.8046C50.8936 14.3483 50.0077 13.9188 49.0413 13.5161C48.773 13.402 48.538 13.308 48.5313 13.2947C48.4842 13.2544 50.6452 11.8249 51.7861 11.1404C52.6921 10.5902 54.1685 9.77136 54.1953 9.79826ZM54.7053 9.87875C54.7658 9.87875 55.9872 10.2143 56.6246 10.4022C58.2018 10.8721 60.0137 11.5364 61.1948 12.0733L61.6847 12.2948L61.3425 12.3753C58.4569 13.0396 55.9872 13.8048 53.6047 14.7711C53.4101 14.8516 53.2356 14.9188 53.2223 14.9188C53.2088 14.9188 53.276 14.7644 53.3632 14.5765C54.0813 13.0531 54.5443 11.4626 54.6583 10.1069C54.6652 9.97936 54.6852 9.87875 54.7053 9.87875ZM42.5451 12.6706C42.5652 12.6504 43.4981 12.8719 44.0014 13.0127C44.7664 13.2275 46.3904 13.7711 46.3904 13.8114C46.3904 13.8181 46.2093 13.9724 45.9946 14.1604C45.1155 14.8919 44.2698 15.6636 43.2564 16.6434C42.9544 16.9321 42.6994 17.1669 42.6861 17.1669C42.6726 17.1669 42.666 17.1266 42.6726 17.0729C42.8269 15.9454 42.7935 14.4959 42.5787 13.0262C42.5585 12.8382 42.5384 12.6772 42.5451 12.6706ZM62.1479 12.6907C62.1612 12.7041 61.7183 13.402 61.4365 13.7979C61.0339 14.3751 60.4432 15.1403 59.1077 16.818C58.4032 17.7037 57.6112 18.7038 57.3495 19.0393C57.081 19.3748 56.8596 19.6566 56.8528 19.6566C56.8461 19.6566 56.759 19.5359 56.665 19.3883C55.9133 18.2608 55.014 17.2743 53.9469 16.3884C53.7456 16.2206 53.5243 16.0394 53.4504 15.9857C53.3766 15.9321 53.3162 15.8784 53.3162 15.8717C53.3162 15.8516 54.4569 15.3616 55.3228 15.0127C56.8395 14.3952 58.9063 13.6571 60.4566 13.1805C61.2687 12.9256 62.1344 12.6772 62.1479 12.6907ZM62.6646 12.8249C62.6914 12.8182 62.8525 12.8987 63.0471 13.0127C64.6779 13.9455 66.2751 15.1469 67.5368 16.3817C67.8925 16.7307 68.7716 17.6434 68.7581 17.6501C68.7581 17.6501 68.4494 17.6769 68.0871 17.7037C65.2618 17.9186 61.6446 18.5158 58.1683 19.3546C57.9334 19.4082 57.7254 19.4552 57.7119 19.4552C57.6986 19.4552 57.9603 19.1936 58.2892 18.8782C60.3293 16.9119 61.2621 15.6703 62.3627 13.4557C62.517 13.1269 62.6512 12.845 62.6646 12.8249C62.6579 12.8249 62.6579 12.8249 62.6646 12.8249ZM47.7192 14.3551C47.8132 14.3751 48.6857 14.7846 49.3433 15.1134C49.9473 15.4152 50.8533 15.8985 50.9003 15.9387C50.907 15.9454 50.5848 16.1132 50.189 16.3079C48.9272 16.9387 47.8468 17.5359 46.7193 18.2205C46.3972 18.4151 46.1288 18.5763 46.1221 18.5763C46.0952 18.5763 46.1019 18.5493 46.2831 18.2205C46.8872 17.12 47.3703 15.8046 47.6455 14.5227C47.6722 14.4221 47.6991 14.3551 47.7192 14.3551ZM46.8468 14.5161C46.8669 14.5362 46.6388 15.3616 46.4979 15.8113C46.2227 16.6636 45.7596 17.7306 45.3101 18.5359C45.2026 18.7238 45.0415 18.9989 44.9543 19.1533L44.7866 19.4217L44.4108 19.0594C43.9746 18.6366 43.6188 18.3749 43.1626 18.1399C42.9812 18.046 42.8404 17.9654 42.8404 17.9521C42.8404 17.8984 43.988 16.8582 44.8671 16.1066C45.4979 15.563 46.8267 14.4959 46.8468 14.5161ZM52.1821 16.7106L52.511 16.9253C53.2625 17.4153 54.1483 18.0662 54.8262 18.6366C55.2087 18.9519 55.9468 19.6164 56.0946 19.7775L56.175 19.8648L55.6315 20.0191C52.5579 20.8713 50.1822 21.6297 47.4105 22.6498C47.1018 22.7638 46.8401 22.8578 46.8199 22.8578C46.7798 22.8578 46.7461 22.8913 47.4374 22.2537C49.2092 20.6231 50.7794 18.8245 51.9472 17.0729L52.1821 16.7106ZM50.7795 17.0595C50.7929 17.0729 49.8735 18.3681 49.3231 19.0996C48.6655 19.9721 47.4977 21.435 46.6924 22.3879C46.357 22.784 46.0685 23.1128 46.055 23.1195C46.0348 23.1262 46.0281 23.0256 46.0281 22.8712C46.0281 22.0591 45.8201 21.1934 45.4577 20.4552C45.3033 20.1465 45.2764 20.0727 45.3101 20.0392C45.4376 19.925 47.3904 18.811 48.6252 18.1467C49.4574 17.7038 50.7592 17.0461 50.7795 17.0595ZM42.2967 19.14C42.3169 19.14 42.4713 19.2204 42.6458 19.3144C43.0753 19.5493 43.4578 19.811 43.8 20.0929C43.8134 20.1063 43.639 20.2473 43.4108 20.415C42.7733 20.8713 41.8069 21.6029 41.2433 22.0525C40.6526 22.5223 40.6326 22.5357 40.6996 22.4351C41.1426 21.7572 41.3639 21.3747 41.5989 20.8848C41.8069 20.4487 42.0149 19.9319 42.1625 19.4822C42.2162 19.2876 42.2834 19.14 42.2967 19.14ZM44.5584 20.9116C44.5919 20.905 44.6323 20.9653 44.8134 21.2338C45.1959 21.8041 45.4912 22.5693 45.5651 23.1867L45.5784 23.3209L44.6591 23.6766C43.0148 24.3141 41.4982 24.945 40.4713 25.4147C40.1828 25.549 39.6795 25.7905 39.3507 25.9517C39.0218 26.1194 38.7534 26.2469 38.7534 26.2402C38.7534 26.2335 38.9614 26.0792 39.2164 25.8912C41.2231 24.435 42.9612 22.8377 44.2631 21.2405C44.4041 21.0727 44.5316 20.9183 44.5449 20.9116L44.5584 20.9116ZM43.5182 21.1667C43.5451 21.1935 42.7801 22.0592 42.2566 22.5893C40.9614 23.9115 39.6796 24.945 38.089 25.9517C37.8877 26.0792 37.7065 26.1932 37.6864 26.2067C37.6393 26.2335 37.6997 26.1664 38.3977 25.408C38.8407 24.9315 39.1762 24.5289 39.5587 24.0323C39.8137 23.7035 39.8607 23.6565 40.2299 23.3947C41.2164 22.6833 43.4914 21.1398 43.5182 21.1667Z" fill="url(#paint2_radial_5122_12574)"/>
<path d="M14.4574 48.9553C14.3336 48.9553 14.2098 48.9671 14.0871 48.9671C11.5866 49.1003 9.90011 50.2007 8.91405 52.3497C8.07071 54.2933 8.16279 56.8338 8.92352 58.7893C9.80814 60.7 11.2376 61.7084 13.6235 62.0893C14.1284 62.172 14.4669 62.4491 15.4446 63.5907L16.6477 65.0002H18.8296L17.3788 63.5376C16.5768 62.7357 15.9281 62.0374 15.9281 61.976C15.9281 61.9147 16.2349 61.7803 16.6062 61.6671C17.8305 61.2966 18.8472 60.3508 19.5584 58.9012C20.134 57.7372 20.2166 57.3774 20.2991 55.9291C20.515 51.6183 18.2421 48.9232 14.4573 48.954L14.4574 48.9553ZM16.3704 60.2283C15.3089 60.7424 13.7676 60.8451 12.7614 60.4759C11.7211 60.0939 10.7139 59.0135 10.2609 57.7904C9.75734 56.4529 9.82924 53.9856 10.4048 52.8745C11.3307 51.1053 12.555 50.2916 14.3442 50.2916C16.9979 50.2916 18.5075 51.9169 18.7045 54.9716C18.8603 57.5216 18.0063 59.4346 16.3716 60.2272L16.3704 60.2283ZM54.0628 52.6374C53.1476 52.6374 52.447 53.0079 51.9751 53.7378L51.6048 54.3158V52.8131H50.0209V61.8241H51.6038V58.9439C51.6038 56.3102 51.6366 56.0023 52.0047 55.2816C52.5119 54.2933 53.3846 53.8004 54.228 54.0363L54.7941 54.2014V52.6398H54.0628V52.6374ZM44.7571 52.5548C44.4468 52.5548 44.1177 52.5962 43.79 52.6682C41.6705 53.2224 40.4757 55.251 40.5488 57.3387C40.5488 59.0866 40.8884 59.9605 41.7319 60.877C43.4598 62.2946 45.0225 62.4078 47.1313 61.6472C47.491 61.4939 47.8826 61.3169 47.8826 61.3169V59.8993L47.1313 60.2885C45.4246 61.0315 44.139 61.0315 43.1093 60.1563C42.4525 59.4876 42.1634 58.6856 42.0303 57.7704H48.4168V56.5555C48.4168 54.0787 46.9261 52.5147 44.7558 52.5548H44.7571ZM42.1741 56.506C42.1741 56.506 42.41 54.961 43.2851 54.3547C43.7063 54.0574 44.1898 53.9136 44.6627 53.9136C45.1369 53.9136 45.6098 54.0669 46.0002 54.3654C46.8023 54.9822 46.9367 56.4943 46.9367 56.4943H42.1742V56.506H42.1741ZM3.98751 54.8808C2.27031 53.8405 1.50838 53.0903 1.60155 52.2057C1.86805 49.7584 4.8922 50.0969 6.56693 51.0228L6.57884 49.3764C6.57884 49.3764 5.65293 48.9754 4.32602 48.9541C2.29032 48.9234 0.974073 49.5909 0.357311 50.9497C-0.54858 52.9547 0.253538 54.4667 3.15265 56.1534C4.78022 57.1004 5.49961 57.9225 5.49961 58.8188C5.49961 60.6706 3.26697 61.3169 0.963576 60.1552C0.489528 59.9193 0.0884694 59.7223 0.067258 59.7223C-0.0153578 60.2472 0.0272282 61.5032 0.0272282 61.5032C0.0272282 61.5032 0.734928 61.8005 1.79632 62.0055C4.42871 62.5304 6.82424 61.2956 7.05066 59.2905C7.24765 57.4082 6.56698 56.421 3.98762 54.8794L3.98751 54.8808ZM68.0816 52.5337C67.7725 52.5337 67.4446 52.5761 67.1026 52.6481C64.9856 53.2024 63.7931 55.2311 63.8744 57.3187C63.8744 59.0643 64.213 59.9299 65.0562 60.8451C66.7842 62.2641 68.3469 62.3784 70.4664 61.6166C70.8249 61.4633 71.2153 61.2888 71.2153 61.2888V59.8688L70.4652 60.2602C68.7551 61.0009 67.4694 61.0009 66.4434 60.1258C65.7828 59.4583 65.4963 58.6657 65.363 57.7398H71.739V56.525C71.739 54.06 70.2481 52.4948 68.078 52.5362L68.0816 52.5337ZM65.4986 56.4848C65.4986 56.4848 65.7368 54.942 66.6107 54.324C67.0307 54.0257 67.5142 53.8817 67.9872 53.8817C68.4589 53.8817 68.9343 54.035 69.3248 54.3346C70.1268 54.9514 70.2613 56.4741 70.2613 56.4741H65.4999L65.4986 56.4848ZM36.4656 54.9008C34.7484 53.8629 33.9888 53.1104 34.0808 52.2257C34.3473 49.7772 37.3715 50.1169 39.0462 51.0428L39.0581 49.3964C39.0581 49.3964 38.1322 48.9953 36.8053 48.9764C34.7696 48.9458 33.4533 49.6133 32.8354 50.972C31.9308 52.977 32.7434 54.4891 35.633 56.1757C37.2583 57.1217 37.9777 57.9331 37.9777 58.8294C37.9777 60.6812 35.7462 61.3382 33.4428 60.1657C32.971 59.9298 32.5701 59.7352 32.5465 59.7352C32.4638 60.26 32.5064 61.5162 32.5064 61.5162C32.5064 61.5162 33.2058 61.8028 34.2637 62.0185C36.8986 62.5446 39.2952 61.3109 39.5205 59.3058C39.7163 57.4329 39.0369 56.4457 36.4657 54.903V54.9008H36.4656ZM77.3885 52.6162C76.4732 52.6162 75.7645 52.9877 75.3009 53.7178L74.9305 54.2934V52.7932H73.3465V61.8017H74.9293V58.9216C74.9293 56.289 74.9611 55.98 75.3304 55.2605C75.8376 54.2734 76.7102 53.7793 77.5536 54.0162L78.1196 54.1813V52.6163L77.3885 52.6162ZM23.8693 54.8489V49.1097H22.2724V61.8217H28.9882V60.3204H23.8694V54.8489H23.8693ZM60.7997 56.638L59.4835 60.0631L58.2179 56.6192L56.9323 52.8026H55.2977C56.3569 55.8055 57.509 58.8601 58.6708 61.8217C59.1745 61.8335 59.6792 61.8217 60.1828 61.8217L61.9603 57.3587L63.7707 52.8037H62.208C62.208 52.8037 61.5179 54.613 60.7986 56.6392L60.7997 56.638ZM27.5491 45.6457C27.8062 45.6457 28.0209 45.5632 28.1978 45.3863C28.3723 45.2117 28.4643 45.0064 28.4643 44.7494C28.4643 44.4922 28.3723 44.2775 28.1978 44.1124C28.0209 43.9473 27.8168 43.8647 27.5608 43.8647C27.3015 43.8647 27.0867 43.9473 26.9122 44.1218C26.7353 44.2965 26.6551 44.5111 26.6551 44.7588C26.6551 45.0183 26.7377 45.2329 26.9122 45.3958C27.0773 45.5608 27.292 45.6434 27.5491 45.6434V45.6457ZM26.983 44.1832C27.1363 44.03 27.3227 43.9591 27.5609 43.9591C27.785 43.9591 27.9714 44.03 28.1271 44.1832C28.2805 44.3365 28.363 44.5229 28.363 44.7494C28.363 44.9758 28.2805 45.1716 28.1271 45.3249C27.9715 45.4781 27.785 45.5513 27.5609 45.5513C27.3333 45.5513 27.1481 45.4806 26.9948 45.3249C26.8415 45.1716 26.7589 44.9758 26.7589 44.7494C26.7589 44.5229 26.8297 44.3366 26.983 44.1832ZM27.3639 44.832H27.4677C27.5409 44.832 27.6128 44.9027 27.6741 45.0372L27.798 45.3154H27.9926L27.8393 45.0063C27.7768 44.8826 27.7155 44.8106 27.6435 44.7905C27.7343 44.7693 27.8062 44.7386 27.8582 44.6772C27.91 44.6243 27.9289 44.5523 27.9289 44.4708C27.9289 44.3765 27.8994 44.3058 27.837 44.2539C27.7662 44.1949 27.6529 44.1631 27.5066 44.1631H27.1789V45.3154H27.344V44.8319L27.3639 44.832ZM27.3639 44.2965H27.5079C27.6116 44.2965 27.6848 44.3177 27.7249 44.3483C27.7638 44.379 27.7744 44.4192 27.7744 44.4922C27.7744 44.6255 27.6918 44.6881 27.5385 44.6881H27.3617V44.2965H27.3639ZM0.984625 44.7293C0.984625 44.3283 0.972877 44.03 0.963413 43.8542H0.972877C1.0141 44.0616 1.06485 44.2162 1.10613 44.3188L2.63933 47.7439H2.89648L4.42969 44.2882C4.47108 44.1939 4.51236 44.0523 4.56305 43.8553H4.57479C4.54417 44.1974 4.53357 44.4946 4.53357 44.7316V47.7546H5.05831V43.2609H4.40021L2.99084 46.3864C2.9389 46.5102 2.86695 46.6955 2.77498 46.9408H2.75366C2.72304 46.8193 2.65108 46.6341 2.5485 46.4076L1.17085 43.2502H0.471526V47.7438H0.976303V44.7315L0.984625 44.7293ZM6.20834 44.7377H6.66134V47.5364H6.20834V44.7377ZM6.43482 43.7115C6.52924 43.7115 6.6094 43.6795 6.6707 43.6172C6.73325 43.5557 6.77458 43.4756 6.77458 43.3813C6.77458 43.2892 6.74385 43.2066 6.67195 43.1454C6.60826 43.0828 6.52684 43.0509 6.43368 43.0509C6.34176 43.0509 6.2592 43.0828 6.19774 43.1454C6.13541 43.2066 6.09402 43.2892 6.09402 43.3813C6.09402 43.4839 6.12589 43.5557 6.19774 43.6172C6.26866 43.6795 6.3417 43.7115 6.43368 43.7115H6.43482ZM9.89065 47.5978V47.1047C9.64291 47.2899 9.37635 47.382 9.10039 47.382C8.77025 47.382 8.50239 47.2688 8.30659 47.0518C8.11204 46.8372 8.00827 46.5386 8.00827 46.1671C8.00827 45.7779 8.11204 45.4688 8.32666 45.2329C8.53306 45.0065 8.80087 44.8933 9.12878 44.8933C9.39648 44.8933 9.65346 44.9759 9.8907 45.1411V44.6163C9.67489 44.503 9.4284 44.4511 9.14999 44.4511C8.63569 44.4511 8.2348 44.6163 7.93523 44.9348C7.63794 45.2532 7.48462 45.6861 7.48462 46.2086C7.48462 46.6732 7.61787 47.0637 7.89514 47.3621C8.18405 47.6687 8.55335 47.8244 9.00619 47.8244C9.35634 47.8147 9.64291 47.7416 9.89065 47.5978ZM11.1868 46.1057C11.1868 45.7366 11.2693 45.4382 11.4227 45.2329C11.5666 45.0478 11.7411 44.9546 11.9475 44.9546C12.1221 44.9546 12.2459 44.9864 12.3367 45.0584V44.5229C12.2659 44.4923 12.1633 44.4817 12.0301 44.4817C11.8449 44.4817 11.6799 44.544 11.5347 44.6586C11.3814 44.7799 11.2588 44.9652 11.1868 45.2011H11.1751V44.5441H10.662V47.7522H11.1762V46.1057H11.1868ZM14.1389 47.8159C14.6225 47.8159 15.0117 47.6602 15.3006 47.3512C15.5884 47.0444 15.7323 46.6317 15.7323 46.1174C15.7323 45.5927 15.6003 45.1916 15.3313 44.8931C15.0648 44.5949 14.6944 44.4508 14.2108 44.4508C13.7271 44.4508 13.3379 44.5948 13.049 44.8731C12.74 45.1799 12.5773 45.6127 12.5773 46.1682C12.5773 46.6518 12.7094 47.0529 12.9878 47.3512C13.2755 47.6602 13.6565 47.8147 14.1389 47.8147V47.8159ZM13.4077 45.2022C13.6035 44.9958 13.8607 44.8932 14.179 44.8932C14.5094 44.8932 14.757 44.9958 14.941 45.2022C15.1261 45.4181 15.2182 45.726 15.2182 46.1376C15.2182 46.529 15.1356 46.8369 14.961 47.0433C14.7865 47.2592 14.5294 47.3735 14.1896 47.3735C13.8594 47.3735 13.6035 47.2591 13.4077 47.0433C13.2131 46.8263 13.1199 46.529 13.1199 46.1376C13.0999 45.7484 13.2025 45.43 13.4077 45.2022ZM17.9839 47.5364C18.1797 47.3619 18.2836 47.1472 18.2836 46.8782C18.2836 46.6423 18.2009 46.4465 18.0476 46.292C17.9225 46.1683 17.7292 46.0561 17.4497 45.9429C17.2019 45.8392 17.0486 45.7471 16.966 45.6752C16.8835 45.5926 16.8328 45.4901 16.8328 45.345C16.8328 45.2117 16.8847 45.1091 16.9862 45.0265C17.09 44.9441 17.2221 44.904 17.399 44.904C17.6762 44.904 17.9132 44.977 18.1301 45.1316V44.6173C17.9226 44.5136 17.6973 44.4641 17.4402 44.4641C17.11 44.4641 16.8316 44.555 16.6263 44.7305C16.4104 44.9052 16.3079 45.1316 16.3079 45.3981C16.3079 45.634 16.3786 45.8298 16.513 45.9736C16.6263 46.0963 16.8198 46.2214 17.0886 46.3334C17.3458 46.4466 17.5203 46.5492 17.6135 46.6317C17.7054 46.7143 17.7467 46.8169 17.7467 46.9385C17.7467 47.2379 17.5416 47.3926 17.1405 47.3926C16.8315 47.3926 16.5544 47.2911 16.3066 47.0859V47.6401C16.5307 47.7747 16.7996 47.8359 17.0968 47.8359C17.4778 47.8159 17.7761 47.7228 17.9814 47.5376L17.9839 47.5364ZM20.4325 44.4509C19.9488 44.4509 19.5596 44.5949 19.2707 44.8732C18.964 45.18 18.7989 45.6128 18.7989 46.1683C18.7989 46.6519 18.9323 47.053 19.2094 47.3513C19.4983 47.6603 19.8781 47.8148 20.3617 47.8148C20.857 47.8148 21.2345 47.6592 21.5234 47.35C21.8124 47.0435 21.9562 46.6306 21.9562 46.1163C21.9562 45.5915 21.8218 45.1906 21.5552 44.8921C21.277 44.5937 20.9065 44.4498 20.4347 44.4498L20.4325 44.4509ZM21.4302 46.1376C21.4302 46.5291 21.3476 46.837 21.1731 47.0434C20.9985 47.2593 20.7414 47.3736 20.4017 47.3736C20.0713 47.3736 19.8155 47.2592 19.6196 47.0434C19.4251 46.8264 19.3319 46.5291 19.3319 46.1376C19.3319 45.7248 19.4346 45.4064 19.641 45.1916C19.8355 44.9864 20.0927 44.8826 20.4123 44.8826C20.7307 44.8826 20.9867 44.9863 21.1718 45.1916C21.337 45.4181 21.429 45.726 21.429 46.1376H21.4302ZM22.8197 47.7428H23.3327V44.9653H24.084V44.5335H23.3327V44.0382C23.3327 43.5877 23.5071 43.3613 23.8681 43.3613C23.9896 43.3613 24.1134 43.3919 24.2055 43.4438V42.9804C24.1134 42.9391 23.9896 42.9297 23.835 42.9297C23.5579 42.9297 23.3315 43.0123 23.1462 43.1868C22.9303 43.392 22.816 43.6585 22.816 44.0196V44.5456H22.2733V44.9772H22.816V47.7443L22.8197 47.7428ZM24.9272 46.8676C24.9272 47.4951 25.2045 47.8147 25.7706 47.8147C25.9758 47.8147 26.1303 47.7818 26.2541 47.7086V47.2675C26.1598 47.3383 26.0477 47.3714 25.9239 47.3714C25.7494 47.3714 25.6267 47.33 25.5547 47.2368C25.4816 47.1449 25.4404 46.9891 25.4404 46.7744V44.9641H26.2541V44.5323H25.4404V43.5865C25.2634 43.6478 25.0901 43.6998 24.9261 43.7515V44.5323H24.3717V44.964H24.9261V46.8665L24.9272 46.8676ZM80.1248 52.7812C79.9502 52.6162 79.7438 52.5336 79.4879 52.5336C79.2285 52.5336 79.0137 52.6162 78.8392 52.7931C78.6646 52.9665 78.582 53.1823 78.582 53.43C78.582 53.6872 78.6647 53.9019 78.8379 54.0669C79.0125 54.232 79.2271 54.3147 79.4866 54.3147C79.7425 54.3147 79.9584 54.232 80.1354 54.0575C80.3088 53.8805 80.4007 53.6765 80.4007 53.4206C80.3913 53.1611 80.2981 52.9464 80.1236 52.7814L80.1248 52.7812ZM80.0423 53.9962C79.8889 54.1494 79.7025 54.2202 79.4761 54.2202C79.252 54.2202 79.0657 54.1494 78.91 53.9962C78.7567 53.8405 78.6741 53.6459 78.6741 53.4182C78.6741 53.1941 78.7448 53.0078 78.9005 52.8521C79.0538 52.6989 79.2391 52.628 79.4761 52.628C79.7002 52.628 79.8866 52.6989 80.0423 52.8521C80.1955 53.0078 80.2781 53.1941 80.2781 53.4182C80.2781 53.6565 80.2073 53.8405 80.0423 53.9962ZM79.5798 53.4713C79.6718 53.4501 79.745 53.4088 79.7957 53.3581C79.8476 53.305 79.8666 53.2329 79.8666 53.1506C79.8666 53.0586 79.837 52.9854 79.7746 52.9347C79.7038 52.8757 79.5895 52.8438 79.4445 52.8438H79.1166V53.9949H79.2817V53.5114H79.3843C79.4551 53.5114 79.5259 53.5821 79.5895 53.7166L79.7121 53.9937H79.908L79.7547 53.6846C79.7016 53.5502 79.6402 53.4888 79.5778 53.4687L79.5798 53.4713ZM79.4666 53.3676H79.2897V52.9784H79.4348C79.5375 52.9784 79.6094 52.9972 79.6507 53.0291C79.6919 53.0597 79.7014 53.0999 79.7014 53.173C79.7014 53.3063 79.6188 53.3677 79.4656 53.3677L79.4666 53.3676ZM50.7722 44.4003H50.9161V43.248H51.297V43.1041H50.3913V43.248H50.7723V44.4003H50.7722ZM51.645 43.5346C51.645 43.4224 51.645 43.3305 51.6367 43.2787C51.6462 43.3399 51.6674 43.3813 51.6769 43.4119L52.1192 44.4003H52.19L52.6333 43.4024C52.6453 43.3718 52.6547 43.3317 52.6747 43.2787C52.6652 43.3813 52.6652 43.4637 52.6652 43.5263V44.3991H52.8186V43.1041H52.6333L52.2325 43.9981C52.223 44.03 52.191 44.0924 52.171 44.1633H52.1592C52.151 44.1219 52.1298 44.0807 52.1003 44.01L51.6993 43.1042H51.4917V44.4015H51.6367V43.5358L51.645 43.5346Z" fill="#231F1F"/>
</g>
<defs>
<linearGradient id="paint0_linear_5122_12574" x1="35.6173" y1="39.9496" x2="38.8278" y2="38.0526" gradientUnits="userSpaceOnUse">
<stop stop-color="#909CA9"/>
<stop offset="1" stop-color="#EDEDEE"/>
</linearGradient>
<linearGradient id="paint1_linear_5122_12574" x1="35.6915" y1="4.18498" x2="38.2748" y2="4.18498" gradientUnits="userSpaceOnUse">
<stop stop-color="#939FAB"/>
<stop offset="1" stop-color="#DCDEE1"/>
</linearGradient>
<radialGradient id="paint2_radial_5122_12574" cx="0" cy="0" r="1" gradientUnits="userSpaceOnUse" gradientTransform="translate(48.7251 16.0324) rotate(-171.457) scale(3.33054 6.66274)">
<stop stop-color="#EE352C"/>
<stop offset="1" stop-color="#A91D22"/>
</radialGradient>
<clipPath id="clip0_5122_12574">
<rect width="80.4057" height="65" fill="white"/>
</clipPath>
</defs>
</svg>
