<svg width="454" height="232" viewBox="0 0 454 232" fill="none" xmlns="http://www.w3.org/2000/svg">
<path fill-rule="evenodd" clip-rule="evenodd" d="M227 199.4C301.51 199.4 361.92 202.22 361.92 205.7C361.92 209.18 301.51 212 227 212C152.49 212 92.0801 209.18 92.0801 205.7C92.0801 202.22 152.49 199.4 227 199.4Z" fill="#D2D9DC"/>
<path fill-rule="evenodd" clip-rule="evenodd" d="M206.11 96.55C205.88 96.55 205.69 96.36 205.69 96.13C205.69 95.9 205.88 95.71 206.11 95.71L206.96 95.72C207.19 95.73 207.38 95.92 207.37 96.15C207.36 96.38 207.17 96.57 206.94 96.56L206.11 96.55ZM202.34 95.92C202.57 95.89 202.78 96.06 202.81 96.29C202.84 96.52 202.67 96.73 202.44 96.76C202.16 96.79 201.89 96.83 201.61 96.87C201.38 96.9 201.17 96.74 201.13 96.51C201.1 96.28 201.25 96.07 201.48 96.03C201.78 95.99 202.06 95.96 202.34 95.92ZM197.32 96.91C197.54 96.85 197.78 96.98 197.84 97.2C197.9 97.42 197.77 97.66 197.55 97.72L196.75 97.95C196.53 98.02 196.29 97.9 196.22 97.67C196.15 97.45 196.28 97.21 196.5 97.14C196.77 97.07 197.05 96.99 197.32 96.91ZM192.52 98.67C192.73 98.57 192.98 98.66 193.08 98.87C193.18 99.08 193.09 99.33 192.88 99.43C192.63 99.55 192.38 99.66 192.13 99.79C191.92 99.89 191.67 99.81 191.56 99.6C191.46 99.39 191.54 99.14 191.75 99.04L192.52 98.67ZM188.05 101.18C188.24 101.05 188.5 101.1 188.63 101.29C188.76 101.48 188.71 101.74 188.52 101.88L187.83 102.35C187.64 102.48 187.38 102.44 187.24 102.25C187.11 102.06 187.15 101.8 187.34 101.66L188.05 101.18ZM184.04 104.34C184.21 104.18 184.48 104.19 184.64 104.36C184.8 104.53 184.79 104.8 184.62 104.96L184.02 105.53C183.86 105.69 183.59 105.69 183.42 105.52C183.26 105.35 183.26 105.09 183.43 104.92L184.04 104.34ZM180.56 108.1C180.7 107.92 180.97 107.88 181.15 108.03C181.33 108.17 181.36 108.44 181.22 108.62C181.05 108.84 180.88 109.06 180.72 109.28C180.58 109.47 180.32 109.51 180.13 109.37C179.94 109.23 179.9 108.97 180.04 108.78C180.22 108.55 180.38 108.32 180.56 108.1ZM177.72 112.35C177.83 112.14 178.09 112.07 178.29 112.19C178.49 112.3 178.57 112.56 178.45 112.76C178.31 113 178.18 113.24 178.05 113.49C177.94 113.7 177.69 113.78 177.48 113.67C177.27 113.56 177.19 113.31 177.3 113.1C177.44 112.85 177.58 112.6 177.72 112.35ZM175.58 117C175.66 116.78 175.9 116.67 176.12 116.75C176.34 116.83 176.45 117.07 176.37 117.29L176.09 118.07C176.02 118.29 175.78 118.41 175.56 118.34C175.34 118.27 175.22 118.03 175.29 117.81C175.39 117.55 175.48 117.27 175.58 117ZM174.19 121.93C174.23 121.7 174.45 121.55 174.68 121.59C174.91 121.63 175.06 121.86 175.01 122.08L174.86 122.9C174.82 123.13 174.61 123.28 174.38 123.25C174.15 123.21 173.99 123 174.03 122.77L174.19 121.93ZM173.61 127.01C173.62 126.78 173.81 126.6 174.05 126.6C174.28 126.61 174.46 126.8 174.46 127.03L174.44 127.86C174.44 128.09 174.25 128.28 174.02 128.28C173.79 128.28 173.6 128.09 173.6 127.86C173.59 127.58 173.6 127.3 173.61 127.01ZM173.81 132.12C173.78 131.89 173.95 131.68 174.18 131.65C174.41 131.62 174.62 131.79 174.65 132.02C174.68 132.3 174.72 132.57 174.76 132.84C174.79 133.07 174.63 133.28 174.41 133.32C174.18 133.35 173.97 133.2 173.93 132.97C173.88 132.69 173.85 132.41 173.81 132.12ZM174.82 137.14C174.75 136.92 174.88 136.68 175.11 136.62C175.33 136.56 175.57 136.68 175.63 136.91C175.71 137.18 175.78 137.44 175.87 137.71C175.94 137.93 175.82 138.17 175.6 138.24C175.38 138.31 175.14 138.19 175.07 137.97C174.98 137.69 174.9 137.42 174.82 137.14ZM176.6 141.94C176.5 141.73 176.59 141.48 176.8 141.38C177.01 141.28 177.26 141.37 177.36 141.58C177.47 141.83 177.6 142.08 177.72 142.33C177.82 142.54 177.74 142.79 177.53 142.9C177.32 143 177.07 142.92 176.96 142.71C176.84 142.46 176.72 142.19 176.6 141.94ZM179.12 146.39C178.99 146.2 179.04 145.94 179.23 145.8C179.42 145.67 179.69 145.72 179.82 145.91C179.97 146.14 180.13 146.37 180.29 146.59C180.43 146.78 180.38 147.04 180.19 147.18C180 147.31 179.74 147.27 179.6 147.08C179.44 146.86 179.28 146.63 179.12 146.39ZM182.3 150.4C182.14 150.23 182.15 149.96 182.32 149.8C182.49 149.64 182.76 149.65 182.92 149.82L183.5 150.42C183.66 150.58 183.66 150.85 183.5 151.02C183.34 151.18 183.07 151.18 182.9 151.02C182.7 150.82 182.5 150.61 182.3 150.4ZM186.07 153.86C185.89 153.72 185.85 153.45 186 153.27C186.14 153.09 186.41 153.05 186.59 153.19C186.81 153.36 187.03 153.53 187.25 153.69C187.44 153.83 187.48 154.09 187.34 154.28C187.2 154.47 186.94 154.51 186.75 154.37L186.07 153.86ZM190.34 156.69C190.14 156.58 190.06 156.32 190.17 156.12C190.28 155.92 190.54 155.84 190.74 155.95L191.47 156.35C191.68 156.46 191.76 156.71 191.65 156.92C191.54 157.13 191.29 157.21 191.08 157.1L190.34 156.69ZM194.99 158.81C194.77 158.73 194.66 158.49 194.74 158.27C194.82 158.05 195.06 157.94 195.28 158.01L196.07 158.29C196.29 158.36 196.41 158.6 196.34 158.82C196.27 159.04 196.03 159.16 195.81 159.09L194.99 158.81ZM199.93 160.17C199.7 160.13 199.55 159.91 199.6 159.68C199.64 159.45 199.86 159.3 200.09 159.34C200.36 159.39 200.64 159.43 200.91 159.49C201.14 159.53 201.3 159.74 201.26 159.97C201.22 160.2 201.01 160.36 200.78 160.32L199.93 160.17ZM205.01 160.74C204.78 160.73 204.59 160.54 204.6 160.3C204.61 160.07 204.8 159.89 205.03 159.89L205.86 159.91C206.09 159.91 206.28 160.1 206.28 160.33C206.28 160.56 206.09 160.75 205.85 160.75L205.01 160.74ZM210.12 160.52C209.89 160.55 209.68 160.39 209.65 160.15C209.62 159.92 209.79 159.71 210.01 159.68C210.29 159.65 210.56 159.61 210.83 159.57C211.06 159.53 211.28 159.69 211.31 159.92C211.35 160.15 211.19 160.36 210.96 160.4C210.69 160.44 210.41 160.48 210.12 160.52ZM215.14 159.49C214.92 159.56 214.68 159.43 214.62 159.2C214.56 158.98 214.68 158.74 214.91 158.68C215.18 158.6 215.44 158.52 215.71 158.44C215.93 158.37 216.17 158.49 216.24 158.72C216.31 158.94 216.19 159.18 215.96 159.25C215.68 159.33 215.41 159.42 215.14 159.49ZM219.93 157.69C219.72 157.79 219.47 157.7 219.37 157.49C219.27 157.28 219.36 157.03 219.57 156.93C219.82 156.81 220.07 156.69 220.32 156.57C220.53 156.46 220.78 156.55 220.89 156.75C220.99 156.96 220.91 157.21 220.7 157.32C220.44 157.45 220.19 157.57 219.93 157.69ZM224.37 155.16C224.18 155.29 223.91 155.24 223.78 155.05C223.65 154.86 223.7 154.6 223.89 154.46L224.57 153.98C224.76 153.85 225.02 153.89 225.16 154.08C225.3 154.27 225.25 154.53 225.07 154.67L224.37 155.16ZM228.37 151.96C228.2 152.12 227.93 152.11 227.77 151.94C227.61 151.77 227.62 151.5 227.79 151.34C227.99 151.15 228.19 150.95 228.39 150.77C228.55 150.61 228.82 150.61 228.99 150.77C229.15 150.93 229.15 151.2 228.99 151.37L228.37 151.96ZM231.81 148.18C231.67 148.36 231.4 148.4 231.22 148.25C231.03 148.11 231 147.84 231.14 147.66L231.64 147C231.78 146.81 232.04 146.77 232.23 146.91C232.42 147.05 232.46 147.31 232.32 147.5C232.16 147.72 231.98 147.95 231.81 148.18ZM234.63 143.9C234.52 144.11 234.26 144.18 234.06 144.07C233.85 143.96 233.78 143.7 233.89 143.5L234.28 142.76C234.39 142.55 234.64 142.47 234.85 142.58C235.06 142.68 235.14 142.94 235.03 143.15L234.63 143.9ZM236.73 139.24C236.65 139.46 236.41 139.57 236.19 139.49C235.97 139.41 235.86 139.17 235.94 138.95L236.21 138.17C236.28 137.95 236.52 137.83 236.74 137.9C236.96 137.97 237.08 138.21 237.01 138.43L236.73 139.24ZM238.07 134.3C238.03 134.53 237.81 134.68 237.58 134.64C237.35 134.6 237.2 134.38 237.24 134.15L237.38 133.33C237.42 133.1 237.63 132.94 237.86 132.98C238.09 133.02 238.25 133.23 238.21 133.46L238.07 134.3ZM238.63 129.21C238.62 129.44 238.43 129.63 238.2 129.62C237.97 129.61 237.78 129.42 237.79 129.19L237.8 128.36C237.8 128.13 237.99 127.94 238.22 127.94C238.45 127.94 238.64 128.13 238.64 128.36L238.63 129.21ZM238.38 124.1C238.41 124.33 238.25 124.54 238.02 124.57C237.79 124.6 237.58 124.44 237.55 124.21C237.52 123.95 237.48 123.65 237.43 123.39C237.39 123.16 237.55 122.94 237.78 122.91C238.01 122.87 238.23 123.03 238.26 123.26C238.3 123.53 238.35 123.82 238.38 124.1ZM237.33 119.09C237.4 119.31 237.27 119.55 237.05 119.61C236.83 119.68 236.59 119.55 236.53 119.33L236.29 118.53C236.22 118.31 236.34 118.07 236.56 118C236.78 117.93 237.02 118.05 237.09 118.27L237.33 119.09ZM235.52 114.31C235.62 114.52 235.53 114.77 235.32 114.87C235.11 114.97 234.86 114.88 234.76 114.67L234.39 113.92C234.28 113.71 234.37 113.46 234.57 113.35C234.78 113.25 235.03 113.33 235.14 113.53C235.27 113.79 235.39 114.05 235.52 114.31ZM232.96 109.87C233.09 110.06 233.04 110.32 232.85 110.46C232.66 110.59 232.4 110.55 232.26 110.35L231.78 109.67C231.64 109.48 231.68 109.22 231.87 109.08C232.06 108.94 232.32 108.98 232.46 109.17L232.96 109.87ZM229.75 105.89C229.91 106.06 229.9 106.33 229.73 106.49C229.56 106.65 229.3 106.64 229.13 106.47L228.55 105.87C228.39 105.71 228.39 105.44 228.55 105.27C228.71 105.11 228.98 105.11 229.15 105.27L229.75 105.89ZM225.95 102.46C226.13 102.6 226.17 102.87 226.03 103.05C225.89 103.23 225.62 103.27 225.44 103.13L224.77 102.63C224.58 102.49 224.54 102.23 224.68 102.04C224.82 101.85 225.08 101.81 225.27 101.95L225.95 102.46ZM221.67 99.66C221.87 99.77 221.95 100.03 221.84 100.23C221.73 100.43 221.47 100.51 221.27 100.4L220.54 100.01C220.33 99.9 220.24 99.65 220.35 99.44C220.45 99.23 220.71 99.15 220.92 99.25C221.16 99.4 221.42 99.53 221.67 99.66ZM217 97.57C217.22 97.65 217.33 97.89 217.26 98.11C217.18 98.33 216.94 98.44 216.72 98.37L215.93 98.1C215.71 98.03 215.59 97.79 215.66 97.57C215.73 97.35 215.97 97.23 216.19 97.3C216.46 97.39 216.73 97.48 217 97.57ZM212.05 96.25C212.28 96.29 212.43 96.51 212.39 96.74C212.35 96.97 212.13 97.12 211.9 97.08L211.08 96.94C210.85 96.9 210.69 96.69 210.73 96.46C210.77 96.23 210.98 96.07 211.21 96.11C211.49 96.15 211.77 96.2 212.05 96.25Z" fill="#D0D9EE"/>
<path fill-rule="evenodd" clip-rule="evenodd" d="M222.93 46.32C222.71 46.32 222.53 46.14 222.53 45.93C222.53 45.71 222.71 45.54 222.93 45.54C223.2 45.54 223.47 45.55 223.74 45.57C223.96 45.59 224.12 45.77 224.11 45.99C224.1 46.21 223.91 46.37 223.69 46.36C223.44 46.33 223.19 46.32 222.93 46.32ZM219.77 46C219.98 45.94 220.2 46.05 220.26 46.26C220.32 46.47 220.21 46.69 220 46.75C219.76 46.82 219.52 46.91 219.28 47C219.08 47.08 218.85 46.98 218.77 46.78C218.69 46.58 218.79 46.35 218.99 46.27C219.25 46.17 219.51 46.08 219.77 46ZM215.56 48.44C215.72 48.29 215.97 48.3 216.12 48.46C216.27 48.62 216.26 48.87 216.1 49.02C215.92 49.19 215.74 49.37 215.57 49.56C215.43 49.72 215.17 49.73 215.02 49.59C214.86 49.44 214.85 49.19 214.99 49.03C215.17 48.83 215.36 48.63 215.56 48.44ZM212.84 52.48C212.92 52.28 213.14 52.17 213.35 52.25C213.55 52.33 213.65 52.56 213.58 52.76C213.49 53 213.41 53.23 213.34 53.48C213.28 53.69 213.06 53.81 212.85 53.75C212.64 53.69 212.52 53.47 212.58 53.26C212.66 52.99 212.74 52.74 212.84 52.48ZM212.18 57.31C212.16 57.09 212.32 56.9 212.53 56.88C212.75 56.86 212.94 57.02 212.96 57.24C212.98 57.48 213.01 57.76 213.05 57.99C213.09 58.2 212.94 58.41 212.73 58.45C212.52 58.49 212.31 58.34 212.27 58.13C212.23 57.86 212.2 57.57 212.18 57.31ZM213.7 61.93C213.59 61.74 213.64 61.5 213.83 61.39C214.02 61.28 214.26 61.34 214.37 61.52C214.5 61.74 214.64 61.95 214.79 62.15C214.92 62.33 214.88 62.57 214.7 62.7C214.52 62.83 214.28 62.79 214.15 62.61C213.99 62.39 213.84 62.17 213.7 61.93ZM217.09 65.42C216.91 65.3 216.85 65.06 216.97 64.87C217.09 64.69 217.33 64.63 217.51 64.75C217.73 64.89 217.94 65.01 218.16 65.14C218.35 65.24 218.42 65.48 218.32 65.67C218.22 65.86 217.98 65.93 217.79 65.83C217.56 65.71 217.32 65.57 217.09 65.42ZM221.68 67.06C221.46 67.04 221.31 66.84 221.33 66.62C221.36 66.4 221.55 66.25 221.77 66.27C222.02 66.3 222.27 66.32 222.53 66.33C222.75 66.34 222.92 66.52 222.91 66.74C222.9 66.96 222.72 67.13 222.5 67.12C222.22 67.11 221.95 67.09 221.68 67.06ZM226.52 66.52C226.31 66.59 226.09 66.48 226.02 66.28C225.95 66.07 226.06 65.85 226.26 65.78C226.49 65.71 226.74 65.6 226.96 65.5C227.16 65.41 227.39 65.5 227.48 65.7C227.57 65.9 227.48 66.13 227.28 66.22C227.04 66.33 226.76 66.45 226.52 66.52ZM230.63 63.91C230.48 64.07 230.23 64.07 230.07 63.92C229.92 63.77 229.91 63.52 230.06 63.36C230.24 63.18 230.41 62.99 230.57 62.8C230.71 62.63 230.96 62.61 231.13 62.75C231.29 62.89 231.31 63.14 231.18 63.31C231 63.52 230.82 63.72 230.63 63.91ZM233.18 59.77C233.11 59.98 232.89 60.09 232.68 60.02C232.47 59.95 232.36 59.73 232.43 59.52C232.51 59.28 232.58 59.04 232.64 58.79C232.69 58.58 232.91 58.45 233.12 58.5C233.33 58.55 233.46 58.77 233.41 58.98C233.34 59.25 233.26 59.51 233.18 59.77ZM233.64 54.92C233.67 55.14 233.52 55.33 233.3 55.36C233.08 55.39 232.88 55.24 232.86 55.02C232.83 54.77 232.79 54.52 232.73 54.27C232.69 54.06 232.82 53.85 233.03 53.8C233.24 53.75 233.45 53.89 233.5 54.1C233.56 54.38 233.61 54.65 233.64 54.92ZM231.93 50.36C232.05 50.54 232 50.79 231.82 50.91C231.64 51.03 231.39 50.98 231.27 50.8C231.13 50.59 230.98 50.38 230.83 50.19C230.7 50.02 230.72 49.77 230.9 49.64C231.07 49.51 231.32 49.53 231.45 49.71C231.62 49.91 231.79 50.13 231.93 50.36ZM228.4 47.02C228.59 47.13 228.65 47.37 228.54 47.56C228.43 47.75 228.19 47.81 228 47.7C227.78 47.57 227.56 47.45 227.33 47.34C227.13 47.24 227.05 47.01 227.15 46.81C227.25 46.61 227.48 46.53 227.68 46.63C227.92 46.75 228.16 46.88 228.4 47.02Z" fill="#D0D9EE"/>
<path fill-rule="evenodd" clip-rule="evenodd" d="M129.64 183.69C123.13 183.69 117.87 178.4 117.87 171.91C117.87 165.4 123.13 160.14 129.64 160.14C136.15 160.14 141.41 165.4 141.41 171.91C141.41 178.41 136.15 183.69 129.64 183.69ZM155.11 171.92C155.11 167.81 157.85 164.36 161.6 163.29C160.85 160.51 159.74 157.85 158.32 155.41C154.94 157.27 150.57 156.8 147.7 153.95L147.64 153.88L147.58 153.8H147.56C147.28 153.52 146.98 153.24 146.71 152.97C146.94 153.18 147.2 153.41 147.43 153.65C144.73 150.79 144.28 146.53 146.13 143.23C143.69 141.82 141.05 140.7 138.27 139.96C137.18 143.7 133.74 146.44 129.64 146.44C125.55 146.44 122.1 143.7 121.01 139.96C118.23 140.7 115.6 141.82 113.13 143.23C115 146.57 114.54 150.85 111.76 153.74L112.48 153.05C112.21 153.33 111.91 153.61 111.62 153.89L111.48 154.04C108.57 156.8 104.28 157.27 100.94 155.41C99.5304 157.85 98.4104 160.51 97.6704 163.29C101.42 164.36 104.16 167.83 104.16 171.92C104.16 176.01 101.42 179.45 97.6704 180.52C98.4104 183.31 99.5304 185.96 100.94 188.4C104.33 186.54 108.65 187.01 111.54 189.83L111.6 189.92L111.67 189.96C114.52 192.85 115.01 197.19 113.13 200.58C115.6 201.99 118.23 203.11 121.01 203.85C122.08 200.22 125.35 197.52 129.3 197.37H129.98C133.92 197.52 137.2 200.22 138.26 203.85C141.04 203.11 143.68 201.99 146.12 200.58C144.27 197.22 144.74 192.92 147.53 190.03L147.55 190.01L147.74 189.82C150.63 187.02 154.93 186.54 158.31 188.41C159.73 185.96 160.82 183.32 161.59 180.53C157.85 179.45 155.11 176.01 155.11 171.92Z" fill="#839299"/>
<path fill-rule="evenodd" clip-rule="evenodd" d="M111.61 153.891L111.49 154.041L111.63 153.891H111.61ZM111.77 153.741L112.49 153.051C112.21 153.331 111.92 153.611 111.63 153.891L111.77 153.741ZM129.3 197.371L129.64 197.391L129.98 197.371H129.3ZM147.43 153.651C147.19 153.421 146.93 153.181 146.71 152.971C146.99 153.241 147.28 153.521 147.56 153.801L147.43 153.651Z" fill="#BAC1C2"/>
<path fill-rule="evenodd" clip-rule="evenodd" d="M199.58 50.8902C194.98 50.8902 191.27 47.1502 191.27 42.5702C191.27 37.9702 194.99 34.2602 199.58 34.2602C204.18 34.2602 207.89 37.9702 207.89 42.5702C207.9 47.1602 204.18 50.8902 199.58 50.8902ZM217.57 42.5702C217.57 39.6702 219.51 37.2302 222.15 36.4702C221.62 34.5102 220.84 32.6302 219.84 30.9102C217.45 32.2302 214.36 31.8902 212.34 29.8802L212.3 29.8302L212.26 29.7702H212.24C212.04 29.5702 211.83 29.3702 211.64 29.1802C211.8 29.3302 211.98 29.4902 212.15 29.6602C210.24 27.6402 209.92 24.6302 211.23 22.3002C209.5 21.3002 207.65 20.5102 205.68 19.9902C204.91 22.6302 202.48 24.5702 199.59 24.5702C196.7 24.5702 194.26 22.6302 193.5 19.9902C191.54 20.5202 189.68 21.3002 187.93 22.3002C189.25 24.6602 188.93 27.6802 186.96 29.7202L187.47 29.2302C187.28 29.4302 187.06 29.6302 186.86 29.8202L186.76 29.9302C184.7 31.8802 181.68 32.2102 179.32 30.9002C178.32 32.6202 177.53 34.5002 177.01 36.4602C179.66 37.2202 181.59 39.6702 181.59 42.5602C181.59 45.4502 179.65 47.8802 177.01 48.6402C177.54 50.6102 178.33 52.4802 179.32 54.2102C181.71 52.8902 184.76 53.2302 186.81 55.2202L186.85 55.2802L186.9 55.3102C188.91 57.3502 189.26 60.4202 187.93 62.8102C189.67 63.8102 191.53 64.6002 193.5 65.1202C194.25 62.5602 196.57 60.6502 199.35 60.5402H199.83C202.61 60.6502 204.93 62.5502 205.68 65.1202C207.65 64.5902 209.51 63.8102 211.23 62.8102C209.93 60.4402 210.26 57.4002 212.23 55.3602L212.25 55.3502L212.39 55.2102C214.43 53.2302 217.47 52.8902 219.86 54.2102C220.86 52.4802 221.63 50.6102 222.17 48.6402C219.51 47.8902 217.57 45.4602 217.57 42.5702Z" fill="#839299"/>
<path fill-rule="evenodd" clip-rule="evenodd" d="M336.42 172.411C331.82 172.411 328.11 168.67 328.11 164.09C328.11 159.49 331.83 155.781 336.42 155.781C341.02 155.781 344.73 159.49 344.73 164.09C344.73 168.681 341.01 172.411 336.42 172.411ZM354.41 164.101C354.41 161.201 356.35 158.761 358.99 158.001C358.46 156.041 357.68 154.161 356.68 152.441C354.29 153.761 351.2 153.421 349.18 151.411L349.14 151.361L349.1 151.301H349.08C348.88 151.101 348.67 150.901 348.48 150.711C348.64 150.861 348.82 151.021 348.99 151.191C347.08 149.171 346.76 146.161 348.07 143.831C346.34 142.831 344.49 142.041 342.52 141.521C341.75 144.161 339.32 146.101 336.43 146.101C333.54 146.101 331.1 144.161 330.34 141.521C328.38 142.051 326.52 142.831 324.77 143.831C326.09 146.191 325.77 149.211 323.8 151.251L324.31 150.76C324.12 150.96 323.9 151.161 323.7 151.351L323.6 151.461C321.54 153.411 318.52 153.74 316.16 152.43C315.16 154.15 314.37 156.031 313.85 157.991C316.5 158.751 318.43 161.201 318.43 164.09C318.43 166.98 316.49 169.411 313.85 170.171C314.38 172.141 315.17 174.011 316.16 175.741C318.55 174.421 321.6 174.761 323.65 176.751L323.69 176.811L323.74 176.84C325.75 178.881 326.1 181.951 324.77 184.34C326.51 185.34 328.37 186.13 330.34 186.65C331.09 184.09 333.41 182.181 336.19 182.071H336.67C339.45 182.181 341.77 184.08 342.52 186.65C344.49 186.12 346.35 185.34 348.07 184.34C346.77 181.971 347.1 178.931 349.07 176.891L349.09 176.881L349.23 176.741C351.27 174.761 354.31 174.421 356.7 175.741C357.7 174.011 358.47 172.141 359.01 170.171C356.34 169.421 354.41 166.991 354.41 164.101Z" fill="#839299"/>
<path fill-rule="evenodd" clip-rule="evenodd" d="M186.85 29.8404L186.76 29.9504L186.86 29.8404H186.85ZM186.96 29.7404L187.47 29.2504C187.27 29.4504 187.06 29.6504 186.86 29.8404L186.96 29.7404ZM199.34 60.5504L199.58 60.5604L199.82 60.5504H199.34ZM212.15 29.6704C211.98 29.5104 211.8 29.3404 211.64 29.1904C211.83 29.3804 212.04 29.5804 212.24 29.7804L212.15 29.6704Z" fill="#BAC1C2"/>
<path fill-rule="evenodd" clip-rule="evenodd" d="M146.57 77.4399C145.67 90.7099 142.48 105.41 127.85 109.22L127.49 109.31L127.13 109.22C112.51 105.41 109.31 90.7099 108.41 77.4399L108.32 76.1599L109.58 75.9199C115.68 74.7799 121.27 72.4899 126.89 69.9099L127.49 69.6299L128.09 69.9099C133.71 72.4899 139.3 74.7699 145.4 75.9199L146.66 76.1599L146.57 77.4399Z" fill="#54CC5A"/>
<path fill-rule="evenodd" clip-rule="evenodd" d="M145.13 77.3004C139.11 76.1704 133.73 74.0504 127.49 71.1904C121.25 74.0604 115.87 76.1704 109.85 77.3004C111.08 95.4204 116.45 104.91 127.49 107.78C138.53 104.9 143.9 95.4204 145.13 77.3004Z" fill="#F9FAFB"/>
<path fill-rule="evenodd" clip-rule="evenodd" d="M142.33 79.3903C137.17 78.1803 132.34 76.2603 127.49 74.0703C122.65 76.2603 117.81 78.1803 112.65 79.3903C113.37 87.4503 115.34 97.4203 121.96 102.35C123.63 103.6 125.5 104.46 127.49 105.05C129.48 104.46 131.34 103.6 133.02 102.35C139.64 97.4203 141.61 87.4503 142.33 79.3903Z" fill="#54CC5A"/>
<path fill-rule="evenodd" clip-rule="evenodd" d="M119.06 90.1302C118.55 89.4102 118.71 88.4102 119.43 87.9002C120.15 87.3802 121.15 87.5502 121.66 88.2702L124.86 92.7302L133.31 80.8802C133.82 80.1602 134.82 79.9902 135.54 80.5002C136.26 81.0102 136.43 82.0102 135.91 82.7302L126.22 96.3202C126.11 96.5002 125.97 96.6602 125.79 96.7802C125.07 97.3002 124.07 97.1302 123.56 96.4102L119.06 90.1302Z" fill="#F9FAFB"/>
<path fill-rule="evenodd" clip-rule="evenodd" d="M332.48 71.4902C332.2 71.4902 331.98 71.2702 331.98 70.9902C331.98 70.7202 332.2 70.4902 332.48 70.4902C332.83 70.4902 333.16 70.5102 333.51 70.5302C333.78 70.5502 333.99 70.7902 333.97 71.0602C333.95 71.3302 333.71 71.5402 333.44 71.5202C333.11 71.5102 332.8 71.5002 332.48 71.4902ZM328.49 71.0902C328.75 71.0102 329.03 71.1602 329.11 71.4202C329.19 71.6802 329.05 71.9602 328.78 72.0402C328.48 72.1302 328.17 72.2402 327.88 72.3502C327.62 72.4502 327.34 72.3302 327.23 72.0702C327.13 71.8102 327.26 71.5302 327.51 71.4202C327.83 71.3102 328.16 71.1902 328.49 71.0902ZM323.17 74.1702C323.37 73.9802 323.68 73.9902 323.87 74.1902C324.06 74.3902 324.05 74.7102 323.85 74.8902C323.61 75.1102 323.4 75.3302 323.18 75.5702C323 75.7702 322.68 75.7902 322.48 75.6002C322.28 75.4202 322.26 75.1002 322.45 74.9002C322.68 74.6502 322.92 74.4102 323.17 74.1702ZM319.74 79.2702C319.84 79.0102 320.12 78.8802 320.38 78.9802C320.64 79.0802 320.77 79.3702 320.67 79.6202C320.56 79.9202 320.45 80.2202 320.36 80.5202C320.28 80.7802 320.01 80.9302 319.74 80.8602C319.48 80.7802 319.33 80.5102 319.4 80.2402C319.52 79.9102 319.62 79.5902 319.74 79.2702ZM318.91 85.3502C318.88 85.0802 319.09 84.8302 319.36 84.8102C319.63 84.7802 319.88 84.9902 319.9 85.2602C319.93 85.5602 319.96 85.9102 320.02 86.2102C320.07 86.4802 319.88 86.7402 319.61 86.7802C319.34 86.8302 319.08 86.6402 319.04 86.3702C318.98 86.0502 318.94 85.6902 318.91 85.3502ZM320.83 91.1902C320.69 90.9502 320.76 90.6502 320.99 90.5002C321.23 90.3602 321.53 90.4302 321.67 90.6702C321.83 90.9402 322.01 91.2102 322.2 91.4702C322.36 91.6902 322.31 92.0002 322.09 92.1602C321.87 92.3202 321.56 92.2702 321.4 92.0502C321.19 91.7702 321.01 91.4802 320.83 91.1902ZM325.11 95.5902C324.88 95.4402 324.81 95.1302 324.96 94.9002C325.11 94.6702 325.42 94.6002 325.65 94.7502C325.92 94.9302 326.19 95.0702 326.47 95.2402C326.71 95.3702 326.8 95.6702 326.67 95.9102C326.54 96.1502 326.24 96.2402 326 96.1102C325.7 95.9502 325.39 95.7702 325.11 95.5902ZM330.89 97.6602C330.62 97.6302 330.42 97.3802 330.45 97.1102C330.48 96.8402 330.73 96.6402 331 96.6702C331.32 96.7102 331.63 96.7302 331.95 96.7402C332.22 96.7502 332.44 96.9802 332.43 97.2602C332.42 97.5302 332.19 97.7502 331.92 97.7402C331.58 97.7202 331.23 97.7002 330.89 97.6602ZM337 96.9802C336.74 97.0702 336.46 96.9302 336.37 96.6802C336.28 96.4202 336.42 96.1402 336.67 96.0502C336.96 95.9602 337.28 95.8202 337.56 95.7002C337.81 95.5902 338.1 95.7002 338.22 95.9502C338.33 96.2002 338.22 96.5002 337.97 96.6102C337.66 96.7302 337.31 96.8802 337 96.9802ZM342.18 93.6802C341.99 93.8802 341.67 93.8802 341.48 93.6902C341.28 93.5002 341.28 93.1802 341.47 92.9902C341.7 92.7602 341.91 92.5302 342.12 92.2802C342.3 92.0702 342.61 92.0402 342.82 92.2202C343.03 92.4002 343.06 92.7102 342.88 92.9202C342.65 93.1902 342.43 93.4402 342.18 93.6802ZM345.4 88.4502C345.31 88.7102 345.03 88.8502 344.77 88.7702C344.51 88.6802 344.37 88.4002 344.45 88.1402C344.55 87.8402 344.64 87.5302 344.72 87.2202C344.79 86.9502 345.06 86.7902 345.32 86.8602C345.59 86.9302 345.75 87.2002 345.68 87.4602C345.6 87.8002 345.51 88.1302 345.4 88.4502ZM345.99 82.3402C346.03 82.6102 345.84 82.8602 345.56 82.9002C345.29 82.9402 345.04 82.7402 345 82.4702C344.96 82.1502 344.91 81.8402 344.84 81.5302C344.78 81.2602 344.95 81.0002 345.22 80.9402C345.49 80.8802 345.75 81.0602 345.81 81.3202C345.89 81.6602 345.94 82.0002 345.99 82.3402ZM343.83 76.5902C343.98 76.8202 343.92 77.1302 343.69 77.2802C343.46 77.4302 343.15 77.3702 343 77.1402C342.83 76.8702 342.64 76.6202 342.44 76.3602C342.27 76.1402 342.31 75.8302 342.52 75.6602C342.74 75.4902 343.05 75.5302 343.22 75.7402C343.44 76.0202 343.64 76.3002 343.83 76.5902ZM339.37 72.3702C339.61 72.5102 339.69 72.8102 339.55 73.0502C339.41 73.2902 339.11 73.3702 338.87 73.2302C338.59 73.0702 338.31 72.9202 338.03 72.7802C337.78 72.6602 337.68 72.3602 337.8 72.1102C337.92 71.8602 338.22 71.7602 338.47 71.8802C338.77 72.0402 339.07 72.1902 339.37 72.3702Z" fill="#D0D9EE"/>
<path d="M339.08 119.75H318.48V126.87H339.08V119.75Z" fill="#839299"/>
<path fill-rule="evenodd" clip-rule="evenodd" d="M318.67 115.79C317.43 115.21 316.61 114.14 316.61 112.53V112.03C316.37 98.0903 304.12 94.1803 303.13 78.7603C303.06 77.6003 303.07 76.4703 303.16 75.3703C305.08 63.6703 316.19 55.8203 328.68 55.8203C342.91 55.8203 355.36 66.0203 354.45 80.4803C353.51 95.4403 341.84 99.2303 341.61 112.75C341.61 114.21 340.04 115.9 338.71 115.78H318.67V115.79Z" fill="#FFDD33"/>
<path fill-rule="evenodd" clip-rule="evenodd" d="M339.82 128.51C339.67 130.08 338.33 131.31 336.73 131.31H334.36L333.44 132.82C332.91 133.69 332.6 133.74 331.58 133.74H326C324.98 133.74 324.67 133.69 324.14 132.82L323.22 131.31H320.84C319.26 131.31 317.94 130.11 317.76 128.57V127.49C317.84 127.14 318.16 126.87 318.54 126.87H339.05C339.43 126.87 339.75 127.14 339.84 127.5C339.85 127.53 339.83 127.6 339.85 127.61V128.51H339.82ZM318.82 121.38H338.74C339.34 121.38 339.84 121.87 339.84 122.47V124.17C339.84 124.77 339.35 125.26 338.74 125.26H318.82C318.22 125.26 317.73 124.77 317.73 124.17V122.47C317.72 121.87 318.21 121.38 318.82 121.38ZM318.86 115.79H338.7C339.33 115.79 339.84 116.3 339.84 116.93V118.7C339.84 119.33 339.33 119.84 338.7 119.84H318.86C318.23 119.84 317.72 119.33 317.72 118.7V116.93C317.72 116.31 318.23 115.79 318.86 115.79Z" fill="#D2D9DC"/>
<path fill-rule="evenodd" clip-rule="evenodd" d="M324.24 115.791L322.13 90.2707H319.07C317.75 90.2707 316.55 89.7307 315.68 88.8607C314.81 87.9907 314.27 86.7907 314.27 85.4807C314.27 84.1607 314.81 82.9607 315.68 82.0907C316.55 81.2207 317.75 80.6807 319.07 80.6807C320.37 80.6807 321.5 81.2007 322.34 82.0407C323.2 82.8907 323.74 84.0807 323.86 85.3807L324.1 88.1107H333.45L333.69 85.3807C333.8 84.0907 334.35 82.9007 335.21 82.0407C336.05 81.2007 337.18 80.6807 338.48 80.6807C339.8 80.6807 341 81.2207 341.87 82.0907C342.74 82.9607 343.28 84.1607 343.28 85.4807C343.28 86.8007 342.74 88.0007 341.87 88.8707C341 89.7407 339.8 90.2807 338.48 90.2807H335.42L333.31 115.801H331.16L333.26 90.2807H324.29L326.39 115.801H324.24V115.791ZM321.94 88.1207L321.72 85.5707C321.65 84.7807 321.33 84.0707 320.83 83.5707C320.38 83.1207 319.77 82.8407 319.08 82.8407C318.35 82.8407 317.69 83.1407 317.21 83.6207C316.73 84.1007 316.43 84.7607 316.43 85.4807C316.43 86.2107 316.73 86.8707 317.2 87.3407C317.68 87.8207 318.34 88.1207 319.07 88.1207H321.94ZM335.62 88.1207H338.49C339.21 88.1207 339.88 87.8207 340.35 87.3407C340.83 86.8607 341.13 86.2007 341.13 85.4807C341.13 84.7507 340.83 84.0907 340.35 83.6207V83.6107C339.87 83.1307 339.21 82.8407 338.49 82.8407C337.8 82.8407 337.19 83.1207 336.74 83.5707C336.24 84.0707 335.91 84.7907 335.84 85.5707L335.62 88.1207Z" fill="#F9FAFB"/>
<path fill-rule="evenodd" clip-rule="evenodd" d="M338.06 64.7903C337.38 64.5003 337.05 63.7103 337.34 63.0303C337.63 62.3503 338.42 62.0303 339.1 62.3103C339.66 62.5503 340.19 62.8003 340.69 63.0703C341.2 63.3503 341.7 63.6503 342.19 63.9703C342.81 64.3803 342.98 65.2203 342.57 65.8403C342.16 66.4603 341.32 66.6303 340.71 66.2203C340.29 65.9503 339.86 65.6903 339.42 65.4503C338.95 65.2003 338.5 64.9803 338.06 64.7903ZM343.97 69.0903C343.48 68.5303 343.54 67.6803 344.1 67.1903C344.66 66.7003 345.51 66.7603 346 67.3203C347.42 68.9603 348.56 70.8403 349.34 72.9003C350.09 74.8903 350.5 77.0303 350.5 79.2703C350.5 80.0103 349.9 80.6203 349.15 80.6203C348.41 80.6203 347.8 80.0203 347.8 79.2703C347.8 77.3603 347.45 75.5403 346.82 73.8503C346.17 72.1003 345.2 70.4903 343.97 69.0903Z" fill="#F9FAFB"/>
<path fill-rule="evenodd" clip-rule="evenodd" d="M295.97 34.2401V88.2201C295.97 90.5201 294.11 92.3801 291.81 92.3801H203.8C201.5 92.3801 199.64 90.5201 199.64 88.2201V34.2401C199.64 31.9401 201.5 30.0801 203.8 30.0801H291.81C294.11 30.0801 295.97 31.9401 295.97 34.2401Z" fill="#D2D9DC"/>
<path fill-rule="evenodd" clip-rule="evenodd" d="M295.97 34.2401V38.5401H199.64V34.2401C199.64 31.9401 201.5 30.0801 203.8 30.0801H291.81C294.11 30.0801 295.97 31.9401 295.97 34.2401Z" fill="#0054A6"/>
<path fill-rule="evenodd" clip-rule="evenodd" d="M217.27 34.3103C217.27 35.4103 216.38 36.3003 215.28 36.3003C214.18 36.3003 213.29 35.4103 213.29 34.3103C213.29 33.2103 214.18 32.3203 215.28 32.3203C216.39 32.3203 217.27 33.2103 217.27 34.3103Z" fill="#54CC5A"/>
<path fill-rule="evenodd" clip-rule="evenodd" d="M212.09 34.3103C212.09 35.4103 211.2 36.3003 210.1 36.3003C209 36.3003 208.11 35.4103 208.11 34.3103C208.11 33.2103 209 32.3203 210.1 32.3203C211.2 32.3203 212.09 33.2103 212.09 34.3103Z" fill="#FFDD33"/>
<path fill-rule="evenodd" clip-rule="evenodd" d="M206.78 34.3103C206.78 35.4103 205.89 36.3003 204.79 36.3003C203.69 36.3003 202.8 35.4103 202.8 34.3103C202.8 33.2103 203.69 32.3203 204.79 32.3203C205.89 32.3203 206.78 33.2103 206.78 34.3103Z" fill="#ED1C24"/>
<path fill-rule="evenodd" clip-rule="evenodd" d="M211.4 65.6801V62.9501C211.96 62.9201 212.37 62.8401 212.66 62.7001C212.94 62.5601 213.18 62.3301 213.39 62.0101C213.6 61.6901 213.74 61.2801 213.81 60.7901C213.87 60.4201 213.9 59.7901 213.9 58.8801C213.9 57.4001 213.97 56.3701 214.11 55.7901C214.25 55.2101 214.49 54.7401 214.85 54.3801C215.21 54.0301 215.73 53.7501 216.41 53.5401C216.87 53.4001 217.61 53.3301 218.6 53.3301H219.2V56.0601C218.35 56.0601 217.81 56.1101 217.57 56.2001C217.33 56.2901 217.15 56.4401 217.04 56.6301C216.93 56.8201 216.87 57.1601 216.87 57.6301C216.87 58.1101 216.84 59.0201 216.78 60.3601C216.74 61.1201 216.64 61.7201 216.48 62.1901C216.32 62.6601 216.12 63.0401 215.87 63.3501C215.62 63.6501 215.25 63.9701 214.73 64.3001C215.18 64.5601 215.55 64.8601 215.84 65.2101C216.13 65.5601 216.35 65.9801 216.5 66.4701C216.66 66.9601 216.75 67.6301 216.8 68.4601C216.85 69.7201 216.87 70.5301 216.87 70.8801C216.87 71.3801 216.93 71.7301 217.05 71.9301C217.17 72.1301 217.35 72.2801 217.6 72.3801C217.85 72.4901 218.38 72.5401 219.2 72.5401V75.2701H218.6C217.57 75.2701 216.78 75.1901 216.24 75.0201C215.69 74.8601 215.23 74.5801 214.86 74.2001C214.48 73.8201 214.23 73.3501 214.1 72.7901C213.97 72.2301 213.91 71.3501 213.91 70.1401C213.91 68.7401 213.85 67.8301 213.73 67.4101C213.56 66.8001 213.31 66.3601 212.97 66.1001C212.62 65.8701 212.1 65.7201 211.4 65.6801ZM232.82 61.8501L229.66 62.4101C229.56 61.7801 229.31 61.3101 228.94 60.9901C228.56 60.6701 228.08 60.5101 227.48 60.5101C226.68 60.5101 226.04 60.7901 225.57 61.3401C225.09 61.8901 224.86 62.8201 224.86 64.1101C224.86 65.5501 225.1 66.5701 225.58 67.1601C226.06 67.7601 226.71 68.0501 227.52 68.0501C228.13 68.0501 228.63 67.8801 229.01 67.5301C229.4 67.1801 229.67 66.5901 229.83 65.7401L232.99 66.2801C232.66 67.7301 232.04 68.8201 231.11 69.5601C230.18 70.3001 228.94 70.6701 227.38 70.6701C225.61 70.6701 224.2 70.1101 223.15 68.9901C222.09 67.8701 221.57 66.3201 221.57 64.3301C221.57 62.3201 222.1 60.7701 223.16 59.6501C224.22 58.5301 225.65 57.9801 227.45 57.9801C228.92 57.9801 230.09 58.3001 230.97 58.9301C231.82 59.5801 232.44 60.5501 232.82 61.8501ZM234.51 64.1701C234.51 63.1001 234.77 62.0701 235.3 61.0701C235.83 60.0701 236.57 59.3101 237.53 58.7801C238.49 58.2501 239.56 57.9901 240.75 57.9901C242.58 57.9901 244.08 58.5901 245.26 59.7801C246.43 60.9801 247.02 62.4801 247.02 64.3001C247.02 66.1401 246.43 67.6601 245.25 68.8701C244.07 70.0801 242.58 70.6801 240.78 70.6801C239.67 70.6801 238.61 70.4301 237.6 69.9201C236.59 69.4201 235.83 68.6801 235.3 67.7101C234.77 66.7401 234.51 65.5601 234.51 64.1701ZM237.81 64.3401C237.81 65.5401 238.09 66.4701 238.66 67.1101C239.23 67.7501 239.93 68.0701 240.77 68.0701C241.6 68.0701 242.31 67.7501 242.87 67.1101C243.44 66.4701 243.72 65.5401 243.72 64.3201C243.72 63.1301 243.44 62.2201 242.87 61.5801C242.31 60.9401 241.6 60.6201 240.77 60.6201C239.93 60.6201 239.23 60.9401 238.66 61.5801C238.09 62.2101 237.81 63.1301 237.81 64.3401ZM260.66 70.3801H257.69V68.6001C257.2 69.2901 256.61 69.8101 255.93 70.1601C255.26 70.5101 254.57 70.6801 253.89 70.6801C252.49 70.6801 251.3 70.1201 250.3 68.9901C249.31 67.8601 248.81 66.3001 248.81 64.2801C248.81 62.2201 249.29 60.6601 250.26 59.5901C251.23 58.5201 252.45 57.9901 253.93 57.9901C255.29 57.9901 256.46 58.5501 257.45 59.6801V53.6401H260.65V70.3801H260.66ZM252.11 64.0801C252.11 65.3801 252.29 66.3201 252.64 66.9001C253.16 67.7401 253.88 68.1601 254.81 68.1601C255.55 68.1601 256.17 67.8401 256.69 67.2101C257.21 66.5801 257.47 65.6401 257.47 64.3901C257.47 62.9901 257.22 61.9901 256.72 61.3701C256.22 60.7501 255.58 60.4501 254.79 60.4501C254.03 60.4501 253.4 60.7501 252.88 61.3601C252.37 61.9601 252.11 62.8701 252.11 64.0801ZM270.83 66.5501L274.03 67.0901C273.62 68.2601 272.97 69.1501 272.09 69.7701C271.2 70.3801 270.09 70.6901 268.76 70.6901C266.65 70.6901 265.09 70.0001 264.08 68.6201C263.28 67.5101 262.88 66.1201 262.88 64.4301C262.88 62.4201 263.41 60.8401 264.45 59.7001C265.5 58.5601 266.83 57.9901 268.43 57.9901C270.23 57.9901 271.65 58.5901 272.7 59.7801C273.74 60.9701 274.24 62.8001 274.19 65.2601H266.17C266.19 66.2101 266.45 66.9501 266.95 67.4801C267.44 68.0101 268.06 68.2701 268.79 68.2701C269.29 68.2701 269.71 68.1301 270.05 67.8601C270.4 67.5901 270.65 67.1501 270.83 66.5501ZM271.02 63.3001C271 62.3701 270.76 61.6601 270.3 61.1801C269.84 60.6901 269.29 60.4501 268.64 60.4501C267.94 60.4501 267.37 60.7101 266.91 61.2201C266.45 61.7301 266.23 62.4301 266.24 63.3001H271.02ZM285.16 65.6801C284.6 65.7101 284.19 65.7901 283.91 65.9301C283.63 66.0701 283.38 66.3001 283.18 66.6201C282.98 66.9401 282.84 67.3501 282.75 67.8301C282.69 68.2001 282.66 68.8301 282.66 69.7301C282.66 71.2101 282.59 72.2401 282.46 72.8301C282.33 73.4101 282.08 73.8901 281.72 74.2401C281.36 74.5901 280.84 74.8701 280.15 75.0801C279.69 75.2201 278.95 75.2901 277.96 75.2901H277.36V72.5601C278.18 72.5601 278.71 72.5101 278.97 72.4001C279.22 72.3001 279.41 72.1501 279.52 71.9601C279.64 71.7601 279.7 71.4401 279.7 70.9701C279.71 70.5101 279.74 69.6201 279.79 68.3101C279.83 67.5101 279.93 66.8801 280.1 66.4001C280.27 65.9301 280.49 65.5201 280.77 65.1901C281.05 64.8601 281.41 64.5701 281.84 64.3201C281.28 63.9501 280.87 63.5901 280.61 63.2501C280.25 62.7501 280 62.1101 279.88 61.3301C279.8 60.8001 279.74 59.6301 279.71 57.8201C279.7 57.2501 279.65 56.8701 279.55 56.6801C279.46 56.4901 279.29 56.3501 279.04 56.2401C278.79 56.1301 278.24 56.0801 277.37 56.0801V53.3501H277.97C279 53.3501 279.79 53.4301 280.33 53.5901C280.88 53.7501 281.34 54.0201 281.71 54.4001C282.08 54.7901 282.34 55.2601 282.47 55.8201C282.6 56.3801 282.67 57.2601 282.67 58.4701C282.67 59.8601 282.73 60.7701 282.84 61.2001C283.01 61.8101 283.26 62.2501 283.6 62.5101C283.94 62.7701 284.46 62.9201 285.17 62.9601V65.6801H285.16Z" fill="#54CC5A"/>
<path fill-rule="evenodd" clip-rule="evenodd" d="M302.81 101.561V187.061C302.81 190.701 299.86 193.651 296.23 193.651H156.83C153.19 193.651 150.24 190.701 150.24 187.061V101.561C150.24 97.9207 153.19 94.9707 156.83 94.9707H296.23C299.86 94.9807 302.81 97.9307 302.81 101.561Z" fill="#D2D9DC"/>
<path fill-rule="evenodd" clip-rule="evenodd" d="M302.81 101.561V108.371H150.24V101.561C150.24 97.9207 153.19 94.9707 156.83 94.9707H296.23C299.86 94.9807 302.81 97.9307 302.81 101.561Z" fill="#0054A6"/>
<path fill-rule="evenodd" clip-rule="evenodd" d="M178.04 101.68C178.04 103.4 176.65 104.79 174.93 104.79C173.21 104.79 171.82 103.4 171.82 101.68C171.82 99.9603 173.21 98.5703 174.93 98.5703C176.65 98.5703 178.04 99.9603 178.04 101.68Z" fill="#54CC5A"/>
<path fill-rule="evenodd" clip-rule="evenodd" d="M169.93 101.68C169.93 103.4 168.54 104.79 166.82 104.79C165.1 104.79 163.71 103.4 163.71 101.68C163.71 99.9603 165.1 98.5703 166.82 98.5703C168.53 98.5703 169.93 99.9603 169.93 101.68Z" fill="#FFDD33"/>
<path fill-rule="evenodd" clip-rule="evenodd" d="M161.6 101.68C161.6 103.4 160.21 104.79 158.49 104.79C156.77 104.79 155.38 103.4 155.38 101.68C155.38 99.9603 156.77 98.5703 158.49 98.5703C160.21 98.5703 161.6 99.9603 161.6 101.68Z" fill="#ED1C24"/>
<path d="M250.61 128.34H206.15V133.27H250.61V128.34Z" fill="#5F737C"/>
<path d="M290.38 128.34H256.42V133.27H290.38V128.34Z" fill="#839299"/>
<path d="M242.16 137.01H165.93V141.94H242.16V137.01Z" fill="#5F737C"/>
<path d="M262.89 116.67H186.66V121.6H262.89V116.67Z" fill="#5F737C"/>
<path d="M266.67 137.01H248.14V141.94H266.67V137.01Z" fill="#5F737C"/>
<path d="M290.38 137.01H272.48V141.94H290.38V137.01Z" fill="#839299"/>
<path d="M290.38 116.67H268.59V121.6H290.38V116.67Z" fill="#839299"/>
<path d="M206.15 145.69H165.93V150.62H206.15V145.69Z" fill="#5F737C"/>
<path d="M266.67 145.69H212.13V150.62H266.67V145.69Z" fill="#5F737C"/>
<path d="M206.15 154.36H181.46V159.29H206.15V154.36Z" fill="#5F737C"/>
<path d="M290.38 154.36H211.96V159.29H290.38V154.36Z" fill="#839299"/>
<path d="M200.17 163.03H165.93V167.96H200.17V163.03Z" fill="#5F737C"/>
<path d="M266.67 163.03H206.15V167.96H266.67V163.03Z" fill="#5F737C"/>
<path d="M290.38 163.03H272.48V167.96H290.38V163.03Z" fill="#839299"/>
<path d="M223.27 171.7H165.93V176.63H223.27V171.7Z" fill="#5F737C"/>
<path d="M250.61 171.7H229.25V176.63H250.61V171.7Z" fill="#5F737C"/>
<path d="M290.38 171.7H256.42V176.63H290.38V171.7Z" fill="#839299"/>
<path d="M266.66 180.37H191.01V185.3H266.66V180.37Z" fill="#5F737C"/>
<path d="M290.38 180.37H272.48V185.3H290.38V180.37Z" fill="#839299"/>
<path fill-rule="evenodd" clip-rule="evenodd" d="M316.17 131.85C316.05 131.28 315.98 130.95 315.98 130.95C316.08 131.26 316.14 131.56 316.17 131.85Z" fill="#E68825"/>
<path d="M318.36 173.401H300.68C292.86 173.401 286.53 167.061 286.53 159.251C286.53 151.431 292.87 145.101 300.68 145.101H318.36C326.17 145.101 332.51 151.441 332.51 159.251C332.51 167.071 326.18 173.401 318.36 173.401Z" fill="#002548"/>
<path d="M302.861 155.631C302.361 155.091 301.871 154.731 301.411 154.551C300.941 154.371 300.471 154.281 299.991 154.281C299.281 154.281 298.641 154.411 298.071 154.661C297.501 154.911 297.011 155.261 296.601 155.701C296.191 156.141 295.871 156.661 295.651 157.251C295.431 157.841 295.311 158.481 295.311 159.161C295.311 159.891 295.421 160.571 295.651 161.181C295.871 161.801 296.191 162.331 296.601 162.781C297.011 163.231 297.501 163.581 298.071 163.841C298.641 164.101 299.281 164.231 299.991 164.231C300.541 164.231 301.081 164.101 301.601 163.841C302.121 163.581 302.601 163.161 303.051 162.581L305.051 164.011C304.431 164.861 303.681 165.471 302.801 165.861C301.911 166.251 300.971 166.441 299.971 166.441C298.921 166.441 297.951 166.271 297.071 165.931C296.191 165.591 295.431 165.111 294.801 164.491C294.161 163.871 293.671 163.121 293.311 162.251C292.951 161.381 292.771 160.411 292.771 159.341C292.771 158.251 292.951 157.261 293.311 156.361C293.671 155.471 294.171 154.711 294.801 154.081C295.441 153.451 296.191 152.971 297.071 152.631C297.951 152.291 298.921 152.121 299.971 152.121C300.891 152.121 301.751 152.281 302.541 152.611C303.331 152.941 304.061 153.491 304.751 154.281L302.861 155.631Z" fill="white"/>
<path d="M313.37 155.361C313.11 154.991 312.77 154.711 312.34 154.541C311.91 154.371 311.46 154.281 310.98 154.281C310.7 154.281 310.42 154.311 310.16 154.381C309.9 154.441 309.661 154.551 309.451 154.691C309.241 154.831 309.07 155.011 308.94 155.241C308.81 155.461 308.75 155.731 308.75 156.041C308.75 156.501 308.91 156.861 309.23 157.101C309.55 157.341 309.951 157.561 310.421 157.741C310.891 157.921 311.41 158.091 311.98 158.261C312.54 158.431 313.06 158.661 313.54 158.951C314.01 159.251 314.41 159.641 314.73 160.131C315.05 160.621 315.21 161.271 315.21 162.071C315.21 162.801 315.08 163.441 314.81 163.991C314.54 164.541 314.18 164.991 313.72 165.351C313.26 165.711 312.73 165.981 312.13 166.161C311.53 166.341 310.89 166.431 310.22 166.431C309.37 166.431 308.56 166.291 307.77 166.011C306.99 165.731 306.31 165.251 305.75 164.581L307.58 162.811C307.88 163.261 308.26 163.611 308.74 163.861C309.22 164.111 309.73 164.241 310.27 164.241C310.55 164.241 310.83 164.201 311.12 164.121C311.4 164.041 311.661 163.931 311.891 163.771C312.121 163.621 312.311 163.421 312.451 163.181C312.591 162.941 312.66 162.671 312.66 162.361C312.66 161.861 312.5 161.471 312.18 161.201C311.86 160.931 311.46 160.701 310.99 160.521C310.52 160.331 310 160.161 309.43 159.991C308.87 159.821 308.34 159.601 307.87 159.311C307.4 159.021 307 158.641 306.68 158.151C306.36 157.671 306.201 157.021 306.201 156.211C306.201 155.501 306.34 154.891 306.63 154.381C306.92 153.871 307.3 153.441 307.77 153.101C308.24 152.761 308.77 152.511 309.38 152.341C309.98 152.171 310.6 152.091 311.23 152.091C311.95 152.091 312.65 152.201 313.32 152.421C313.99 152.641 314.601 153.001 315.141 153.501L313.37 155.361Z" fill="white"/>
<path d="M324.431 155.361C324.171 154.991 323.831 154.711 323.401 154.541C322.971 154.371 322.521 154.281 322.041 154.281C321.761 154.281 321.481 154.311 321.221 154.381C320.961 154.441 320.721 154.551 320.511 154.691C320.301 154.831 320.131 155.011 320.001 155.241C319.871 155.461 319.811 155.731 319.811 156.041C319.811 156.501 319.971 156.861 320.291 157.101C320.611 157.341 321.011 157.561 321.481 157.741C321.951 157.921 322.471 158.091 323.041 158.261C323.601 158.431 324.121 158.661 324.601 158.951C325.071 159.251 325.471 159.641 325.791 160.131C326.111 160.621 326.271 161.271 326.271 162.071C326.271 162.801 326.141 163.441 325.871 163.991C325.601 164.541 325.241 164.991 324.781 165.351C324.321 165.711 323.791 165.981 323.191 166.161C322.591 166.341 321.951 166.431 321.281 166.431C320.431 166.431 319.621 166.291 318.831 166.011C318.051 165.731 317.371 165.251 316.811 164.581L318.641 162.811C318.941 163.261 319.321 163.611 319.801 163.861C320.281 164.111 320.791 164.241 321.331 164.241C321.611 164.241 321.891 164.201 322.181 164.121C322.461 164.041 322.721 163.931 322.951 163.771C323.181 163.621 323.371 163.421 323.511 163.181C323.651 162.941 323.721 162.671 323.721 162.361C323.721 161.861 323.561 161.471 323.241 161.201C322.921 160.931 322.521 160.701 322.051 160.521C321.581 160.331 321.061 160.161 320.491 159.991C319.931 159.821 319.401 159.601 318.931 159.311C318.461 159.021 318.061 158.641 317.741 158.151C317.421 157.671 317.261 157.021 317.261 156.211C317.261 155.501 317.401 154.891 317.691 154.381C317.981 153.871 318.361 153.441 318.831 153.101C319.301 152.761 319.831 152.511 320.441 152.341C321.041 152.171 321.661 152.091 322.291 152.091C323.011 152.091 323.711 152.201 324.381 152.421C325.051 152.641 325.661 153.001 326.201 153.501L324.431 155.361Z" fill="white"/>
<path d="M140.9 146.74H109.25C101.39 146.74 95.0103 140.36 95.0103 132.5C95.0103 124.64 101.39 118.26 109.25 118.26H140.9C148.76 118.26 155.14 124.64 155.14 132.5C155.14 140.37 148.76 146.74 140.9 146.74Z" fill="#FFDD33"/>
<path d="M99.9902 125.85H102.36V131.15H108.58V125.85H110.95V139.16H108.58V133.29H102.36V139.16H99.9902V125.85Z" fill="white"/>
<path d="M116.65 127.99H112.57V125.85H123.1V127.99H119.02V139.16H116.65V127.99Z" fill="white"/>
<path d="M124.78 125.85H128.39L131.94 135.18L135.53 125.85H139.1V139.16H136.84V128.1H136.8L132.76 139.16H131.11L127.07 128.1H127.03V139.16H124.77V125.85H124.78Z" fill="white"/>
<path d="M142.13 125.85H144.5V137.02H150.16V139.16H142.13V125.85Z" fill="white"/>
<path d="M189.65 85.9307H178.23C170.63 85.9307 164.46 79.7707 164.46 72.1607V70.7007C164.46 63.1007 170.62 56.9307 178.23 56.9307H189.65C197.25 56.9307 203.42 63.0907 203.42 70.7007V72.1607C203.42 79.7707 197.26 85.9307 189.65 85.9307Z" fill="#0054A6"/>
<path d="M181.54 75.78C181.54 76.55 181.41 77.29 181.17 78C180.92 78.71 180.56 79.34 180.07 79.88C179.58 80.42 178.98 80.85 178.24 81.17C177.51 81.49 176.65 81.65 175.68 81.65C174.14 81.65 172.88 81.29 171.9 80.58C170.92 79.86 170.27 78.73 169.96 77.17L173.2 76.4C173.31 77.04 173.57 77.55 173.98 77.94C174.39 78.32 174.9 78.52 175.5 78.52C176.49 78.52 177.16 78.19 177.52 77.52C177.88 76.85 178.05 75.93 178.05 74.76V61.71H181.51V75.78H181.54Z" fill="white"/>
<path d="M195.281 65.8802C194.911 65.3502 194.421 64.9602 193.811 64.7102C193.201 64.4602 192.551 64.3402 191.871 64.3402C191.471 64.3402 191.081 64.3802 190.701 64.4802C190.321 64.5702 189.981 64.7202 189.681 64.9202C189.381 65.1202 189.131 65.3802 188.951 65.7002C188.771 66.0202 188.681 66.4002 188.681 66.8402C188.681 67.5002 188.911 68.0002 189.371 68.3502C189.831 68.7002 190.391 69.0002 191.071 69.2602C191.751 69.5202 192.491 69.7702 193.291 70.0002C194.091 70.2402 194.841 70.5702 195.511 70.9902C196.191 71.4102 196.761 71.9702 197.211 72.6702C197.671 73.3702 197.901 74.2902 197.901 75.4402C197.901 76.4802 197.711 77.4002 197.321 78.1702C196.941 78.9502 196.421 79.5902 195.771 80.1102C195.121 80.6202 194.361 81.0102 193.501 81.2602C192.641 81.5202 191.731 81.6402 190.781 81.6402C189.571 81.6402 188.411 81.4402 187.291 81.0402C186.171 80.6402 185.211 79.9602 184.411 79.0102L187.021 76.4802C187.441 77.1202 188.001 77.6202 188.681 77.9802C189.371 78.3402 190.101 78.5102 190.861 78.5102C191.261 78.5102 191.661 78.4602 192.071 78.3502C192.471 78.2402 192.841 78.0702 193.171 77.8502C193.501 77.6302 193.761 77.3502 193.971 77.0102C194.171 76.6702 194.271 76.2802 194.271 75.8402C194.271 75.1302 194.041 74.5802 193.581 74.1902C193.121 73.8102 192.551 73.4802 191.881 73.2202C191.201 72.9502 190.461 72.7002 189.661 72.4602C188.851 72.2202 188.111 71.9002 187.441 71.4902C186.761 71.0802 186.191 70.5302 185.741 69.8402C185.281 69.1502 185.051 68.2302 185.051 67.0802C185.051 66.0702 185.261 65.2002 185.671 64.4702C186.081 63.7402 186.621 63.1302 187.291 62.6402C187.961 62.1502 188.721 61.7902 189.581 61.5602C190.441 61.3202 191.321 61.2002 192.221 61.2002C193.241 61.2002 194.241 61.3602 195.201 61.6702C196.161 61.9802 197.031 62.4902 197.801 63.2102L195.281 65.8802Z" fill="white"/>
</svg>
