<svg width="114" height="114" viewBox="0 0 114 114" fill="none" xmlns="http://www.w3.org/2000/svg">
<g clip-path="url(#clip0_9643_18962)">
<path d="M60.2984 66.9998V56.7998H53.5984V66.9998H13.3984V83.6998H19.9984V73.6998H53.5984V83.6998H60.2984V73.6998H93.9984V83.6998H100.698V66.9998H60.2984Z" fill="#0054A6"/>
<path d="M33.4 114H0V80.3999H33.4V114Z" fill="#FFDD33"/>
<path d="M73.7008 114H40.3008V80.3999H73.7008V114Z" fill="#FFDD33"/>
<path d="M114.002 114H80.6016V80.3999H114.002V114Z" fill="#FFDD33"/>
<path d="M73.6984 55C81.7984 49.6 87.0984 40.4 87.0984 30C87.0984 13.5 73.5984 0 56.9984 0C40.3984 0 26.8984 13.5 26.8984 30.1C26.8984 40.5 32.1984 49.7 40.2984 55.1L73.6984 55Z" fill="#002548"/>
<path d="M57.0008 33.3999C47.8008 33.3999 40.3008 40.8999 40.3008 50.0999V54.9999C45.1008 58.1999 50.8008 60.0999 57.0008 60.0999C63.2008 60.0999 68.9008 58.1999 73.7008 54.9999V50.0999C73.7008 40.8999 66.2008 33.3999 57.0008 33.3999Z" fill="#ED1C24"/>
<path d="M57 33.3999C51.5 33.3999 47 28.8999 47 23.3999C47 17.8999 51.5 13.3999 57 13.3999C62.5 13.3999 67 17.8999 67 23.3999C67 28.8999 62.5 33.3999 57 33.3999Z" fill="#FFD9B3"/>
</g>
<defs>
<clipPath id="clip0_9643_18962">
<rect width="114" height="114" fill="white"/>
</clipPath>
</defs>
</svg>
