<svg width="64" height="64" viewBox="0 0 64 64" fill="none" xmlns="http://www.w3.org/2000/svg">
<path opacity="0.993" fill-rule="evenodd" clip-rule="evenodd" d="M50.4357 37.3125C50.3585 37.3264 50.296 37.368 50.2482 37.4375C50.1037 38.7635 49.8119 40.0551 49.3732 41.3125C48.6225 42.8522 47.3934 43.7897 45.6857 44.125C43.9244 44.4046 42.1744 44.738 40.4357 45.125C38.9915 45.7189 37.6999 46.5314 36.5607 47.5625C35.2645 48.7726 33.7229 49.481 31.9357 49.6875C30.1472 49.4803 28.6055 48.7719 27.3107 47.5625C25.7817 46.0686 23.9484 45.1311 21.8107 44.75C20.422 44.5713 19.047 44.3213 17.6857 44C15.5704 43.3381 14.3412 41.9006 13.9982 39.6875C13.8732 38.9375 13.7482 38.1875 13.6232 37.4375C13.5753 37.368 13.5128 37.3264 13.4357 37.3125C13.3203 35.3618 12.6744 33.6117 11.4982 32.0625C10.3272 30.7211 9.41057 29.2211 8.74815 27.5625C8.37733 26.0028 8.62733 24.5444 9.49815 23.1875C10.6745 21.627 11.7579 20.002 12.7482 18.3125C12.94 17.7784 13.1068 17.2367 13.2482 16.6875C13.486 15.0938 13.7777 13.5105 14.1232 11.9375C14.8233 9.86345 16.2608 8.63429 18.4357 8.25C20.1583 7.98376 21.8667 7.65042 23.5607 7.25C24.1789 7.02424 24.7622 6.73257 25.3107 6.375C26.4773 5.54166 27.644 4.70834 28.8107 3.875C30.894 2.625 32.9773 2.625 35.0607 3.875C36.2273 4.70834 37.394 5.54166 38.5607 6.375C39.1092 6.73257 39.6924 7.02424 40.3107 7.25C42.0047 7.65042 43.713 7.98376 45.4357 8.25C47.6105 8.63429 49.048 9.86345 49.7482 11.9375C50.0937 13.5107 50.3854 15.0941 50.6232 16.6875C50.9387 18.0681 51.5219 19.3181 52.3732 20.4375C53.544 21.7789 54.4608 23.2789 55.1232 24.9375C55.494 26.4972 55.244 27.9556 54.3732 29.3125C53.1968 30.873 52.1134 32.498 51.1232 34.1875C50.7158 35.1916 50.4867 36.2334 50.4357 37.3125Z" fill="#FECA29"/>
<path fill-rule="evenodd" clip-rule="evenodd" d="M29.8142 11.3126C36.5276 10.8045 41.6319 13.3879 45.1267 19.0626C47.9767 24.9178 47.4767 30.4594 43.6267 35.6876C39.4067 40.4275 34.1776 42.115 27.9392 40.7501C22.7722 39.1665 19.3347 35.8123 17.6267 30.6876C16.0157 24.8189 17.3282 19.7146 21.5642 15.3751C23.9384 13.2505 26.6884 11.8964 29.8142 11.3126Z" fill="#FAA629"/>
<path fill-rule="evenodd" clip-rule="evenodd" d="M31.8125 17.8125C31.922 17.7962 32.0054 17.8378 32.0625 17.9375C32.9555 19.7027 33.8305 21.4734 34.6875 23.25C36.7571 23.6472 38.8405 23.9805 40.9375 24.25C39.3769 25.6648 37.8769 27.1439 36.4375 28.6875C36.8109 30.5529 37.1442 32.4279 37.4375 34.3125C37.3959 34.4375 37.3541 34.5625 37.3125 34.6875C35.5359 33.7367 33.7441 32.82 31.9375 31.9375C30.1276 32.9173 28.2944 33.8339 26.4375 34.6875C26.6899 32.6733 27.0233 30.6733 27.4375 28.6875C25.9981 27.1439 24.4981 25.6648 22.9375 24.25C25.0209 23.9167 27.1041 23.5834 29.1875 23.25C30.078 21.4483 30.953 19.6358 31.8125 17.8125Z" fill="white"/>
<path opacity="0.989" fill-rule="evenodd" clip-rule="evenodd" d="M13.4375 37.3125C13.5146 37.3264 13.5771 37.368 13.625 37.4375C13.75 38.1875 13.875 38.9375 14 39.6875C14.343 41.9006 15.5723 43.3381 17.6875 44C19.0489 44.3212 20.4239 44.5712 21.8125 44.75C23.9503 45.1311 25.7835 46.0686 27.3125 47.5625C23.5691 52.0153 19.8191 56.4736 16.0625 60.9375C15.8786 60.8274 15.7745 60.6607 15.75 60.4375C14.8977 57.2784 14.0852 54.1116 13.3125 50.9375C9.84408 50.6798 6.38574 50.3464 2.9375 49.9375C6.44039 45.7267 9.94039 41.5184 13.4375 37.3125Z" fill="#3D82C3"/>
<path opacity="0.989" fill-rule="evenodd" clip-rule="evenodd" d="M50.4375 37.3125C53.9346 41.5184 57.4346 45.7267 60.9375 49.9375C57.492 50.3601 54.0336 50.6934 50.5625 50.9375C49.7898 54.1116 48.9773 57.2784 48.125 60.4375C48.1005 60.6607 47.9964 60.8274 47.8125 60.9375C44.0559 56.4736 40.3059 52.0153 36.5625 47.5625C37.7018 46.5314 38.9934 45.7189 40.4375 45.125C42.1762 44.738 43.9262 44.4046 45.6875 44.125C47.3953 43.7898 48.6244 42.8523 49.375 41.3125C49.8138 40.0551 50.1055 38.7635 50.25 37.4375C50.2979 37.368 50.3604 37.3264 50.4375 37.3125Z" fill="#3D82C3"/>
</svg>
