<svg width="32" height="32" viewBox="0 0 32 32" fill="none" xmlns="http://www.w3.org/2000/svg">
<g clip-path="url(#clip0_5595_11279)">
<path d="M24.6678 19.8666L23.8012 20.3333L22.0012 21.3333L17.4678 23.7333C16.0012 23.4666 14.6012 22.9333 13.3345 22.1333C11.8012 21.2 10.5345 19.8666 9.66784 18.3333C8.93451 17.0666 8.40117 15.6666 8.20117 14.2L10.7345 9.73328L11.8012 7.93328L12.2678 7.13328C15.3345 2.46662 20.0678 0.199951 25.5345 0.199951C25.6012 0.199951 32.0012 0.266618 32.0012 0.266618C32.0012 0.266618 31.9345 6.66662 31.9345 6.73328C31.8012 12.2666 29.3345 16.8666 24.6678 19.8666Z" fill="#D2D9DC"/>
<path d="M19.8663 18.3999C23.3273 18.3999 26.1329 15.5942 26.1329 12.1332C26.1329 8.67226 23.3273 5.86658 19.8663 5.86658C16.4053 5.86658 13.5996 8.67226 13.5996 12.1332C13.5996 15.5942 16.4053 18.3999 19.8663 18.3999Z" fill="#F9FAFB"/>
<path d="M19.7995 16.8665C18.8661 16.8665 18.1328 16.1332 18.1328 15.1332C18.1328 14.9332 18.1995 14.6665 18.2661 14.4665C18.6661 13.5999 19.6661 13.1999 20.5328 13.5999C21.3995 13.9999 21.7995 14.9999 21.3995 15.8665C21.0661 16.4665 20.4661 16.8665 19.7995 16.8665ZM19.2661 14.9332C19.1328 15.1999 19.2661 15.5332 19.5328 15.6665C19.7995 15.7999 20.1328 15.6665 20.2661 15.3999C20.3995 15.1332 20.2661 14.7999 19.9995 14.6665C19.7328 14.5332 19.3995 14.6665 19.2661 14.9332Z" fill="#0054A6"/>
<path d="M19.9342 10.7332C19.0009 10.7332 18.2009 9.99991 18.2676 8.99991C18.2676 8.79991 18.3342 8.53324 18.4009 8.33324C18.8009 7.46658 19.8009 7.06658 20.6676 7.46658C21.5342 7.86658 21.9342 8.86658 21.5342 9.73324C21.2009 10.3332 20.6009 10.7332 19.9342 10.7332ZM19.4009 8.79991C19.2676 9.06658 19.4009 9.39991 19.6676 9.53324C19.8009 9.59991 19.9342 9.59991 20.1342 9.53324C20.4009 9.39991 20.6009 9.06658 20.4676 8.79991C20.3342 8.53324 20.0009 8.33324 19.7342 8.46658C19.6009 8.59991 19.4676 8.66658 19.4009 8.79991Z" fill="#0054A6"/>
<path d="M17.6 13.5332C17.2667 13.5332 17 13.2666 17 12.9999C17 12.7332 17.1333 12.5332 17.3333 12.4666L21.8 10.6666C22.0667 10.5332 22.4 10.6666 22.5333 10.9999C22.6667 11.2666 22.5333 11.5999 22.2 11.7332L17.7333 13.5332C17.7333 13.5332 17.6667 13.5332 17.6 13.5332Z" fill="#0054A6"/>
<path d="M17.5332 23.6666L14.4665 25.2666C12.3999 25.1333 10.3999 24.2666 8.86654 22.8C7.46654 21.2666 6.59987 19.2666 6.5332 17.1333L8.19987 14.1333C8.39987 15.2 8.7332 16.2666 9.19987 17.3333C9.3332 17.6666 9.5332 18 9.7332 18.3333C10.5999 19.8666 11.8665 21.2 13.3999 22.1333C14.0665 22.5333 14.7999 22.8666 15.5332 23.2C16.1332 23.3333 16.7999 23.5333 17.5332 23.6666Z" fill="#002548"/>
<path d="M18.8001 29.7333L16.4001 31.5333C15.8668 31.9333 15.0668 31.8666 14.6668 31.3333C14.5334 31.1999 14.4668 30.9999 14.4001 30.7999C14.0668 28.5333 15.9334 27.7999 14.4668 25.2666L17.5334 23.6666L22.0668 21.2666C23.0001 24.4666 21.6668 27.5999 18.8001 29.7333Z" fill="#0054A6"/>
<path d="M6.59964 17.1334C4.13297 15.6 3.33297 17.4 1.0663 17C0.399635 16.8667 -0.000364572 16.2 0.132969 15.5334C0.199635 15.3334 0.266302 15.1334 0.399635 15L2.2663 12.6667C4.4663 9.93335 7.6663 8.60002 10.7996 9.66669L8.2663 14.1334L6.59964 17.1334Z" fill="#0054A6"/>
<path d="M10.8005 30.4C9.86721 31.3333 8.46721 31.8 7.20054 31.5333C7.20054 31.5333 8.46721 28.7333 7.6672 27.9333C6.40054 26.7333 2.33387 30.6667 2.33387 30.6667C1.86721 31.1333 1.20054 31.0667 0.733872 30.6667C0.333872 30.2 0.333872 29.5333 0.733872 29.0666C0.733872 29.0666 4.80054 25.1333 3.60054 23.8666C2.80054 23.0666 0.000538565 24.2 0.000538565 24.2C-0.199461 22.8666 0.267205 21.5333 1.26721 20.6C2.86721 19.2 4.60054 18 6.53387 17.0667C6.60054 19.2 7.40054 21.2 8.8672 22.7333C10.3339 24.2 12.3339 25.0666 14.4672 25.2C14.4672 25.2667 12.2005 29 10.8005 30.4Z" fill="#ED1C24"/>
<path d="M31.9332 6.7333C30.2665 6.5333 28.7999 5.7333 27.5999 4.5333C26.4665 3.3333 25.7332 1.79997 25.5332 0.133301C25.5999 0.133301 31.9999 0.199967 31.9999 0.199967L31.9332 6.7333Z" fill="#ED1C24"/>
</g>
<defs>
<clipPath id="clip0_5595_11279">
<rect width="32" height="32" fill="white"/>
</clipPath>
</defs>
</svg>
