<svg width="48" height="48" viewBox="0 0 48 48" fill="none" xmlns="http://www.w3.org/2000/svg">
<g id="domain-specific-data-scraping-solutions_stock-inventory-and-order-management 1" clip-path="url(#clip0_6034_16809)">
<g id="Group">
<g id="Group_2">
<path id="Vector" d="M41.1996 29.6001H24.6996V25.3001C24.6996 24.9001 24.3996 24.6001 23.9996 24.6001C23.5996 24.6001 23.2996 24.9001 23.2996 25.3001V29.6001H6.79961C6.39961 29.6001 6.09961 29.9001 6.09961 30.3001V35.3001C6.09961 35.7001 6.39961 36.0001 6.79961 36.0001C7.19961 36.0001 7.49961 35.7001 7.49961 35.3001V31.0001H23.2996V35.3001C23.2996 35.7001 23.5996 36.0001 23.9996 36.0001C24.3996 36.0001 24.6996 35.7001 24.6996 35.3001V31.0001H40.4996V35.3001C40.4996 35.7001 40.7996 36.0001 41.1996 36.0001C41.5996 36.0001 41.8996 35.7001 41.8996 35.3001V30.3001C41.8996 29.9001 41.5996 29.6001 41.1996 29.6001Z" fill="#5F737C"/>
</g>
<g id="Group_3">
<path id="Vector_2" d="M36.5004 11.1L33.5004 10.7C33.3004 9.8 32.9004 9 32.5004 8.3L34.3004 5.8C34.5004 5.5 34.5004 5.1 34.2004 4.8L32.4004 3C32.1004 2.7 31.7004 2.7 31.4004 2.9L28.9004 4.7C28.2004 4.3 27.3004 3.9 26.5004 3.7L26.1004 0.7C26.0004 0.3 25.7004 0 25.3004 0H22.7004C22.3004 0 22.0004 0.3 22.0004 0.7L21.6004 3.7C20.7004 3.9 19.9004 4.3 19.2004 4.7L16.7004 2.9C16.4004 2.7 16.0004 2.7 15.7004 3L13.9004 4.8C13.6004 5.1 13.6004 5.5 13.8004 5.8L15.6004 8.3C15.2004 9 14.8004 9.9 14.6004 10.7L11.6004 11.1C11.2004 11.2 10.9004 11.5 10.9004 11.9V14.5C10.9004 14.9 11.2004 15.2 11.6004 15.3L14.6004 15.7C14.8004 16.6 15.2004 17.4 15.6004 18.1L13.8004 20.6C13.6004 20.9 13.6004 21.3 13.9004 21.6L15.7004 23.4C16.0004 23.7 16.4004 23.7 16.7004 23.5L19.2004 21.7C19.9004 22.1 20.8004 22.5 21.6004 22.7L22.0004 25.7C22.1004 26.1 22.4004 26.4 22.8004 26.4H25.4004C25.8004 26.4 26.1004 26.1 26.2004 25.7L26.6004 22.7C27.5004 22.5 28.3004 22.1 29.0004 21.7L31.5004 23.5C31.8004 23.7 32.2004 23.7 32.5004 23.4L34.3004 21.6C34.6004 21.3 34.6004 20.9 34.4004 20.6L32.4004 18C32.8004 17.3 33.2004 16.4 33.4004 15.6L36.4004 15.2C36.8004 15.1 37.1004 14.8 37.1004 14.4V11.8C37.1004 11.5 36.8004 11.1 36.5004 11.1ZM24.0004 18.5C21.0004 18.5 18.6004 16.1 18.6004 13.1C18.6004 10.1 21.0004 7.8 24.0004 7.8C27.0004 7.8 29.4004 10.2 29.4004 13.2C29.4004 16.2 27.0004 18.5 24.0004 18.5Z" fill="#839299"/>
</g>
<g id="Group_4">
<path id="Vector_3" d="M47.1004 34.2998H42.9004L41.2004 36.3998L39.5004 34.2998H35.3004C34.8004 34.2998 34.4004 34.6998 34.4004 35.1998V46.9998C34.4004 47.4998 34.8004 47.8998 35.3004 47.8998H47.1004C47.6004 47.8998 48.0004 47.4998 48.0004 46.9998V35.2998C48.0004 34.6998 47.6004 34.2998 47.1004 34.2998Z" fill="#FFBD86"/>
</g>
<g id="Group_5">
<path id="Vector_4" d="M42.1996 38.3998L41.4996 37.8998C41.2996 37.7998 41.0996 37.7998 40.9996 37.8998L40.2996 38.3998C39.9996 38.5998 39.5996 38.3998 39.5996 37.9998V34.2998H42.9996V37.9998C42.8996 38.3998 42.4996 38.5998 42.1996 38.3998Z" fill="#0054A6"/>
</g>
<g id="Group_6">
<path id="Vector_5" d="M29.8992 34.2998H25.6992L23.9992 36.3998L22.2992 34.2998H18.0992C17.5992 34.2998 17.1992 34.6998 17.1992 35.1998V46.9998C17.1992 47.4998 17.5992 47.8998 18.0992 47.8998H29.8992C30.3992 47.8998 30.7992 47.4998 30.7992 46.9998V35.2998C30.7992 34.6998 30.3992 34.2998 29.8992 34.2998Z" fill="#FFBD86"/>
</g>
<g id="Group_7">
<path id="Vector_6" d="M25.0008 38.3998L24.3008 37.8998C24.1008 37.7998 23.9008 37.7998 23.8008 37.8998L23.0008 38.3998C22.7008 38.5998 22.3008 38.3998 22.3008 37.9998V34.2998H25.7008V37.9998C25.7008 38.3998 25.3008 38.5998 25.0008 38.3998Z" fill="#0054A6"/>
</g>
<g id="Group_8">
<path id="Vector_7" d="M12.7 34.2998H8.5L6.8 36.3998L5.1 34.2998H0.9C0.4 34.2998 0 34.6998 0 35.1998V46.9998C0 47.5998 0.4 47.9998 0.9 47.9998H12.7C13.2 47.9998 13.6 47.5998 13.6 47.0998V35.2998C13.7 34.6998 13.3 34.2998 12.7 34.2998Z" fill="#FFBD86"/>
</g>
<g id="Group_9">
<path id="Vector_8" d="M7.79922 38.3998L7.09922 37.8998C6.89922 37.7998 6.69922 37.7998 6.59922 37.8998L5.89922 38.3998C5.59922 38.5998 5.19922 38.3998 5.19922 37.9998V34.2998H8.59922V37.9998C8.49922 38.3998 8.09922 38.5998 7.79922 38.3998Z" fill="#0054A6"/>
</g>
<g id="Group_10">
<path id="Vector_9" d="M45 45.6998H42.7C42.3 45.6998 42 45.3998 42 44.9998C42 44.5998 42.3 44.2998 42.7 44.2998H45C45.4 44.2998 45.7 44.5998 45.7 44.9998C45.7 45.3998 45.4 45.6998 45 45.6998Z" fill="#D2D9DC"/>
</g>
<g id="Group_11">
<path id="Vector_10" d="M27.9004 45.6998H25.6004C25.2004 45.6998 24.9004 45.3998 24.9004 44.9998C24.9004 44.5998 25.2004 44.2998 25.6004 44.2998H27.9004C28.3004 44.2998 28.6004 44.5998 28.6004 44.9998C28.6004 45.3998 28.3004 45.6998 27.9004 45.6998Z" fill="#D2D9DC"/>
</g>
<g id="Group_12">
<path id="Vector_11" d="M10.6992 45.6998H8.39922C7.99922 45.6998 7.69922 45.3998 7.69922 44.9998C7.69922 44.5998 7.99922 44.2998 8.39922 44.2998H10.6992C11.0992 44.2998 11.3992 44.5998 11.3992 44.9998C11.3992 45.3998 11.0992 45.6998 10.6992 45.6998Z" fill="#D2D9DC"/>
</g>
</g>
</g>
<defs>
<clipPath id="clip0_6034_16809">
<rect width="48" height="48" fill="white"/>
</clipPath>
</defs>
</svg>
