<svg width="48" height="48" viewBox="0 0 48 48" fill="none" xmlns="http://www.w3.org/2000/svg">
<g id="domain-specific-data-scraping-solutions_stock-and-financial-marketing 1">
<g id="Group">
<path id="Vector" d="M7.99922 26.7996L7.19922 26.1996L15.6992 15.5996L23.8992 20.9996L32.0992 10.5996L40.6992 15.7996L40.1992 16.6996L32.3992 11.9996L24.1992 22.3996L15.8992 16.9996L7.99922 26.7996Z" fill="#839299"/>
<path id="Vector_2" d="M10.5992 33.1997V42.3997C10.5992 42.9997 10.0992 43.3997 9.59922 43.3997H5.69922C5.09922 43.3997 4.69922 42.8997 4.69922 42.3997V33.1997C4.69922 32.5997 5.19922 32.1997 5.69922 32.1997H9.49922C10.0992 32.1997 10.5992 32.5997 10.5992 33.1997Z" fill="#54CC5A"/>
<path id="Vector_3" d="M18.8 23.3999V42.3999C18.8 42.9999 18.3 43.3999 17.8 43.3999H14C13.4 43.3999 13 42.8999 13 42.3999V23.3999C13 22.7999 13.5 22.3999 14 22.3999H17.8C18.3 22.3999 18.8 22.7999 18.8 23.3999Z" fill="#54CC5A"/>
<path id="Vector_4" d="M26.8996 28.2998V42.3998C26.8996 42.9998 26.3996 43.3998 25.8996 43.3998H22.0996C21.4996 43.3998 21.0996 42.8998 21.0996 42.3998V28.2998C21.0996 27.6998 21.5996 27.2998 22.0996 27.2998H25.8996C26.4996 27.2998 26.8996 27.6998 26.8996 28.2998Z" fill="#54CC5A"/>
<path id="Vector_5" d="M35.1008 18.5V42.4C35.1008 43 34.6008 43.4 34.1008 43.4H30.3008C29.7008 43.4 29.3008 42.9 29.3008 42.4V18.5C29.3008 17.9 29.8008 17.5 30.3008 17.5H34.1008C34.7008 17.5 35.1008 17.9 35.1008 18.5Z" fill="#54CC5A"/>
<path id="Vector_6" d="M43.3 23.3999V42.3999C43.3 42.9999 42.8 43.3999 42.3 43.3999H38.5C37.9 43.3999 37.5 42.8999 37.5 42.3999V23.3999C37.5 22.7999 38 22.3999 38.5 22.3999H42.3C42.8 22.3999 43.3 22.7999 43.3 23.3999Z" fill="#54CC5A"/>
<path id="Vector_7" d="M48 43.8997C48 45.0997 47 46.0997 45.8 46.0997H2.2C1 46.0997 0 45.0997 0 43.8997C0 42.6997 1 41.6997 2.2 41.6997H45.7C47 41.6997 48 42.6997 48 43.8997Z" fill="#002548"/>
<path id="Vector_8" d="M9.79961 26.4999C9.79961 27.6999 8.79961 28.5999 7.69961 28.5999C6.59961 28.5999 5.59961 27.5999 5.59961 26.4999C5.59961 25.2999 6.59961 24.3999 7.69961 24.3999C8.79961 24.3999 9.79961 25.2999 9.79961 26.4999Z" fill="#0054A6"/>
<path id="Vector_9" d="M18.0008 16.2997C18.0008 17.4997 17.0008 18.3997 15.9008 18.3997C14.8008 18.3997 13.8008 17.3997 13.8008 16.2997C13.8008 15.0997 14.8008 14.1997 15.9008 14.1997C17.0008 14.1997 18.0008 15.0997 18.0008 16.2997Z" fill="#0054A6"/>
<path id="Vector_10" d="M26.1004 21.6996C26.1004 22.8996 25.1004 23.7996 24.0004 23.7996C22.9004 23.7996 21.9004 22.7996 21.9004 21.6996C21.9004 20.4996 22.9004 19.5996 24.0004 19.5996C25.2004 19.5996 26.1004 20.5996 26.1004 21.6996Z" fill="#0054A6"/>
<path id="Vector_11" d="M34.2996 11.3999C34.2996 12.5999 33.2996 13.4999 32.1996 13.4999C30.9996 13.4999 30.0996 12.4999 30.0996 11.3999C30.0996 10.1999 31.0996 9.29987 32.1996 9.29987C33.3996 9.19987 34.2996 10.1999 34.2996 11.3999Z" fill="#0054A6"/>
<path id="Vector_12" d="M42.5008 16.2997C42.5008 17.4997 41.5008 18.3997 40.4008 18.3997C39.3008 18.3997 38.3008 17.3997 38.3008 16.2997C38.3008 15.0997 39.3008 14.1997 40.4008 14.1997C41.5008 14.1997 42.5008 15.0997 42.5008 16.2997Z" fill="#0054A6"/>
<path id="Vector_13" d="M14.6 9.0998C14.6 13.0998 11.3 16.3998 7.3 16.3998C3.3 16.3998 0 13.1998 0 9.0998C0 5.0998 3.3 1.7998 7.3 1.7998C11.3 1.7998 14.6 5.0998 14.6 9.0998Z" fill="#FFDD33"/>
<path id="Vector_14" opacity="0.19" d="M8.40039 10.1997C8.30039 10.0997 8.10039 9.99971 8.00039 9.89971C7.90039 9.79971 7.70039 9.79971 7.60039 9.69971V11.6997C7.70039 11.6997 7.90039 11.6997 8.00039 11.5997C8.20039 11.4997 8.30039 11.3997 8.40039 11.2997C8.50039 11.1997 8.50039 10.9997 8.50039 10.7997C8.50039 10.5997 8.50039 10.3997 8.40039 10.1997ZM6.70039 6.69971C6.60039 6.69971 6.40039 6.79971 6.40039 6.89971C6.30039 7.09971 6.20039 7.19971 6.20039 7.39971C6.20039 7.59971 6.20039 7.69971 6.30039 7.79971C6.40039 7.99971 6.50039 8.09971 6.70039 8.19971C6.80039 8.19971 6.90039 8.29971 7.00039 8.29971V6.59971C6.90039 6.59971 6.80039 6.59971 6.70039 6.69971ZM6.70039 6.69971C6.60039 6.69971 6.40039 6.79971 6.40039 6.89971C6.30039 7.09971 6.20039 7.19971 6.20039 7.39971C6.20039 7.59971 6.20039 7.69971 6.30039 7.79971C6.40039 7.99971 6.50039 8.09971 6.70039 8.19971C6.80039 8.19971 6.90039 8.29971 7.00039 8.29971V6.59971C6.90039 6.59971 6.80039 6.59971 6.70039 6.69971ZM8.40039 10.1997C8.30039 10.0997 8.10039 9.99971 8.00039 9.89971C7.90039 9.79971 7.70039 9.79971 7.60039 9.69971V11.6997C7.70039 11.6997 7.90039 11.6997 8.00039 11.5997C8.20039 11.4997 8.30039 11.3997 8.40039 11.2997C8.50039 11.1997 8.50039 10.9997 8.50039 10.7997C8.50039 10.5997 8.50039 10.3997 8.40039 10.1997ZM6.40039 6.89971C6.30039 7.09971 6.20039 7.19971 6.20039 7.39971C6.20039 7.59971 6.20039 7.69971 6.30039 7.79971C6.40039 7.99971 6.50039 8.09971 6.70039 8.19971C6.80039 8.19971 6.90039 8.29971 7.00039 8.29971V6.59971C6.90039 6.59971 6.80039 6.59971 6.70039 6.69971C6.60039 6.69971 6.40039 6.79971 6.40039 6.89971ZM7.30039 3.69971C4.30039 3.69971 1.90039 6.09971 1.90039 9.09971C1.90039 12.0997 4.30039 14.4997 7.30039 14.4997C10.3004 14.4997 12.7004 12.0997 12.7004 9.09971C12.7004 6.09971 10.3004 3.69971 7.30039 3.69971ZM9.50039 11.6997C9.30039 11.9997 9.00039 12.1997 8.70039 12.3997C8.40039 12.5997 8.00039 12.5997 7.60039 12.6997V13.3997H7.00039V12.5997C6.70039 12.5997 6.40039 12.4997 6.10039 12.3997C5.70039 12.1997 5.40039 11.9997 5.20039 11.5997C5.00039 11.2997 4.90039 10.8997 4.90039 10.3997H6.10039C6.10039 10.5997 6.20039 10.7997 6.30039 10.9997C6.40039 11.1997 6.60039 11.2997 6.80039 11.3997C6.90039 11.3997 7.00039 11.4997 7.10039 11.4997V9.49971C7.00039 9.49971 6.90039 9.39971 6.80039 9.39971C6.10039 9.19971 5.70039 8.99971 5.40039 8.69971C5.10039 8.39971 5.00039 7.99971 5.00039 7.49971C5.00039 7.09971 5.10039 6.79971 5.30039 6.49971C5.50039 6.19971 5.70039 5.99971 6.10039 5.79971C6.40039 5.69971 6.60039 5.59971 7.00039 5.59971V4.79971H7.60039V5.59971C7.90039 5.59971 8.20039 5.69971 8.40039 5.79971C8.80039 5.99971 9.10039 6.19971 9.30039 6.49971C9.50039 6.79971 9.60039 7.09971 9.60039 7.49971H8.30039C8.30039 7.29971 8.30039 7.09971 8.20039 6.99971C8.10039 6.89971 8.00039 6.79971 7.80039 6.69971C7.70039 6.69971 7.70039 6.59971 7.60039 6.59971V8.49971C7.70039 8.49971 7.80039 8.59971 7.90039 8.59971C8.20039 8.69971 8.60039 8.89971 8.80039 8.99971C9.10039 9.19971 9.30039 9.39971 9.50039 9.59971C9.70039 9.79971 9.70039 10.1997 9.70039 10.5997C9.80039 10.9997 9.70039 11.3997 9.50039 11.6997ZM8.00039 9.89971C7.90039 9.79971 7.70039 9.79971 7.60039 9.69971V11.6997C7.70039 11.6997 7.90039 11.6997 8.00039 11.5997C8.20039 11.4997 8.30039 11.3997 8.40039 11.2997C8.50039 11.1997 8.50039 10.9997 8.50039 10.7997C8.50039 10.5997 8.50039 10.3997 8.30039 10.2997C8.30039 10.0997 8.10039 9.99971 8.00039 9.89971ZM6.40039 6.89971C6.30039 7.09971 6.20039 7.19971 6.20039 7.39971C6.20039 7.59971 6.20039 7.69971 6.30039 7.79971C6.40039 7.99971 6.50039 8.09971 6.70039 8.19971C6.80039 8.19971 6.90039 8.29971 7.00039 8.29971V6.59971C6.90039 6.59971 6.80039 6.59971 6.70039 6.69971C6.60039 6.69971 6.40039 6.79971 6.40039 6.89971ZM6.70039 6.69971C6.60039 6.69971 6.40039 6.79971 6.40039 6.89971C6.30039 7.09971 6.20039 7.19971 6.20039 7.39971C6.20039 7.59971 6.20039 7.69971 6.30039 7.79971C6.40039 7.99971 6.50039 8.09971 6.70039 8.19971C6.80039 8.19971 6.90039 8.29971 7.00039 8.29971V6.59971C6.90039 6.59971 6.80039 6.59971 6.70039 6.69971ZM8.40039 10.1997C8.30039 10.0997 8.10039 9.99971 8.00039 9.89971C7.90039 9.79971 7.70039 9.79971 7.60039 9.69971V11.6997C7.70039 11.6997 7.90039 11.6997 8.00039 11.5997C8.20039 11.4997 8.30039 11.3997 8.40039 11.2997C8.50039 11.1997 8.50039 10.9997 8.50039 10.7997C8.50039 10.5997 8.50039 10.3997 8.40039 10.1997Z" fill="#2D2F31"/>
</g>
</g>
</svg>
