<svg width="48" height="48" viewBox="0 0 48 48" fill="none" xmlns="http://www.w3.org/2000/svg">
<g id="stopwatch" clip-path="url(#clip0_6427_14632)">
<g id="Group">
<path id="Vector" d="M24.474 16.3257L22.0941 18.3419L16.7025 11.9779C16.2975 11.4998 16.3567 10.7839 16.8348 10.3789L17.4834 9.82934C17.9616 9.42434 18.6774 9.4835 19.0824 9.96162L24.474 16.3257Z" fill="#FF4C4C"/>
<path id="Vector_2" d="M37.4805 16.3257L39.8604 18.3419L45.252 11.9779C45.657 11.4998 45.5978 10.7839 45.1197 10.3789L44.471 9.82934C43.9929 9.42434 43.277 9.4835 42.872 9.96162L37.4805 16.3257Z" fill="#FF4C4C"/>
</g>
<path id="Vector_3" d="M32.5015 6.44519H29.4531V12.8941H32.5015V6.44519Z" fill="#CCDFED"/>
<path id="Vector_4" d="M30.9792 44.3904C40.3803 44.3904 48.0014 36.7694 48.0014 27.3683C48.0014 17.9672 40.3803 10.3461 30.9792 10.3461C21.5781 10.3461 13.957 17.9672 13.957 27.3683C13.957 36.7694 21.5781 44.3904 30.9792 44.3904Z" fill="#3D6687"/>
<path id="Vector_5" d="M30.9762 10.3459C30.0767 10.3459 29.1938 10.4163 28.332 10.5507C36.4773 11.8211 42.71 18.8664 42.71 27.368C42.71 35.8697 36.4773 42.915 28.332 44.1854C29.1938 44.3198 30.0767 44.3901 30.9762 44.3901C40.3772 44.3902 47.9983 36.769 47.9983 27.3681C47.9983 17.9673 40.3772 10.3459 30.9762 10.3459Z" fill="#0C5177"/>
<path id="Vector_6" d="M30.978 41.8423C38.9718 41.8423 45.452 35.362 45.452 27.3682C45.452 19.3744 38.9718 12.8942 30.978 12.8942C22.9842 12.8942 16.5039 19.3744 16.5039 27.3682C16.5039 35.362 22.9842 41.8423 30.978 41.8423Z" fill="white"/>
<path id="Vector_7" d="M30.9772 12.8937C30.0668 12.8937 29.1763 12.9787 28.3125 13.1395C35.0335 14.3904 40.1223 20.2846 40.1223 27.3682C40.1223 34.4518 35.0335 40.3461 28.3125 41.5969C29.1763 41.7577 30.0668 41.8426 30.9772 41.8426C38.9711 41.8426 45.4516 35.3622 45.4516 27.3682C45.4516 19.3741 38.9711 12.8937 30.9772 12.8937Z" fill="#ECEFF1"/>
<path id="Vector_8" d="M35.2297 7.36228H26.7257C26.2904 7.36228 25.9375 7.0094 25.9375 6.57412V4.39771C25.9375 3.96243 26.2904 3.60956 26.7257 3.60956H35.2297C35.665 3.60956 36.0179 3.96243 36.0179 4.39771V6.57431C36.0179 7.0095 35.665 7.36228 35.2297 7.36228Z" fill="#FF4C4C"/>
<path id="Vector_9" d="M30.9759 29.5824C32.1988 29.5824 33.1901 28.5911 33.1901 27.3682C33.1901 26.1454 32.1988 25.1541 30.9759 25.1541C29.753 25.1541 28.7617 26.1454 28.7617 27.3682C28.7617 28.5911 29.753 29.5824 30.9759 29.5824Z" fill="#3D6687"/>
<path id="Vector_10" d="M31.2843 15.6344C31.1161 15.6301 30.9766 15.7639 30.9766 15.9322V21.6598C30.9766 21.8854 31.1466 22.0766 31.3712 22.0985C33.9466 22.3506 35.994 24.398 36.2461 26.9733C36.2681 27.198 36.4592 27.368 36.6848 27.368H42.4124C42.5807 27.368 42.7145 27.2285 42.7102 27.0603C42.5496 20.8223 37.5223 15.795 31.2843 15.6344Z" fill="#54CC5A"/>
<g id="Group_2">
<path id="Vector_11" d="M30.2578 37.3502V39.1057C30.2578 39.5046 30.5811 39.8278 30.98 39.8278C31.3789 39.8278 31.7021 39.5046 31.7021 39.1057V37.3502C31.7021 36.9513 31.3789 36.6281 30.98 36.6281C30.5811 36.6281 30.2578 36.9514 30.2578 37.3502Z" fill="#FF4C4C"/>
<path id="Vector_12" d="M21.7192 27.3682C21.7192 26.9692 21.396 26.646 20.9971 26.646H19.2417C18.8428 26.646 18.5195 26.9692 18.5195 27.3682C18.5195 27.7671 18.8428 28.0903 19.2417 28.0903H20.9971C21.3959 28.0903 21.7192 27.7671 21.7192 27.3682Z" fill="#FF4C4C"/>
</g>
<g id="Group_3">
<path id="Vector_13" d="M15.1913 17.8324H9.43228C9.03816 17.8324 8.71875 17.513 8.71875 17.1189C8.71875 16.7247 9.03816 16.4053 9.43228 16.4053H15.1913C15.5855 16.4053 15.9049 16.7247 15.9049 17.1189C15.9049 17.513 15.5855 17.8324 15.1913 17.8324Z" fill="#0C5177"/>
<path id="Vector_14" d="M12.3136 26.8393H9.11978C8.72566 26.8393 8.40625 26.5199 8.40625 26.1257C8.40625 25.7316 8.72566 25.4121 9.11978 25.4121H12.3136C12.7077 25.4121 13.0271 25.7315 13.0271 26.1257C13.0271 26.52 12.7077 26.8393 12.3136 26.8393Z" fill="#0C5177"/>
<path id="Vector_15" d="M13.9557 35.8462H11.1706C10.7764 35.8462 10.457 35.5268 10.457 35.1325C10.457 34.7383 10.7764 34.419 11.1706 34.419H13.9557C14.3498 34.419 14.6692 34.7384 14.6692 35.1325C14.6692 35.5267 14.3498 35.8462 13.9557 35.8462Z" fill="#0C5177"/>
<path id="Vector_16" d="M12.9957 22.3359H4.36197C3.96784 22.3359 3.64844 22.0165 3.64844 21.6223C3.64844 21.2282 3.96784 20.9088 4.36197 20.9088H12.9956C13.3897 20.9088 13.7091 21.2282 13.7091 21.6223C13.7091 22.0165 13.3898 22.3359 12.9957 22.3359Z" fill="#0C5177"/>
<path id="Vector_17" d="M12.5238 31.3428H0.713531C0.319406 31.3428 0 31.0234 0 30.6293C0 30.2351 0.319406 29.9156 0.713531 29.9156H12.5237C12.9178 29.9156 13.2372 30.2351 13.2372 30.6293C13.2372 31.0235 12.9179 31.3428 12.5238 31.3428Z" fill="#0C5177"/>
<path id="Vector_18" d="M16.503 39.9056H7.52994C7.13581 39.9056 6.81641 39.5862 6.81641 39.192C6.81641 38.7978 7.13581 38.4784 7.52994 38.4784H16.503C16.8972 38.4784 17.2166 38.7978 17.2166 39.192C17.2166 39.5862 16.8972 39.9056 16.503 39.9056Z" fill="#0C5177"/>
</g>
</g>
<defs>
<clipPath id="clip0_6427_14632">
<rect width="48" height="48" fill="white"/>
</clipPath>
</defs>
</svg>
