<svg width="64" height="64" viewBox="0 0 64 64" fill="none" xmlns="http://www.w3.org/2000/svg">
<g clip-path="url(#clip0_5442_2303)">
<path d="M60.7502 14.58C60.8002 14.17 60.8802 13.76 60.8802 13.33C60.8802 12.9 60.8102 12.49 60.7502 12.08L63.1502 10.26C63.6902 9.85 63.8402 9.11 63.5002 8.53L61.3402 4.8C61.0002 4.22 60.2902 3.98 59.6702 4.24L56.9002 5.4C56.2302 4.89 55.5102 4.43 54.7202 4.1L54.3502 1.16C54.2702 0.5 53.7002 0 53.0302 0H48.7202C48.0502 0 47.4802 0.5 47.4002 1.17L47.0302 4.1C46.2402 4.43 45.5202 4.89 44.8502 5.4L42.0802 4.23C41.4602 3.97 40.7402 4.21 40.4102 4.79L38.2502 8.52C37.9102 9.1 38.0602 9.85 38.6002 10.25L41.0002 12.07C40.9502 12.48 40.8802 12.89 40.8802 13.32C40.8802 13.75 40.9502 14.16 41.0102 14.57L38.6102 16.39C38.0702 16.8 37.9202 17.54 38.2602 18.12L40.4202 21.85C40.7602 22.43 41.4702 22.67 42.0902 22.41L44.8602 21.24C45.5302 21.75 46.2502 22.21 47.0402 22.54L47.4102 25.48C47.4902 26.15 48.0602 26.65 48.7302 26.65H53.0402C53.7102 26.65 54.2802 26.15 54.3602 25.48L54.7302 22.54C55.5202 22.21 56.2402 21.75 56.9102 21.24L59.6802 22.41C60.3002 22.67 61.0202 22.43 61.3502 21.84L63.5102 18.11C63.8502 17.53 63.7002 16.78 63.1602 16.38L60.7502 14.58ZM50.8802 18.67C47.9402 18.67 45.5502 16.28 45.5502 13.34C45.5502 10.4 47.9302 8 50.8802 8C53.8302 8 56.2102 10.39 56.2102 13.33C56.2102 16.27 53.8202 18.67 50.8802 18.67Z" fill="#5F737C"/>
<path d="M50.8802 0H48.7202C48.0502 0 47.4802 0.5 47.4002 1.17L47.0302 4.1C46.2402 4.43 45.5202 4.89 44.8502 5.4L42.0802 4.23C41.9102 4.16 41.7402 4.13 41.5602 4.13C41.1002 4.13 40.6502 4.37 40.4102 4.8L38.2502 8.53C37.9102 9.11 38.0602 9.86 38.6002 10.26L41.0002 12.08C40.9502 12.49 40.8802 12.9 40.8802 13.33C40.8802 13.76 40.9502 14.17 41.0102 14.58L38.6102 16.4C38.0702 16.81 37.9202 17.55 38.2602 18.13L40.4202 21.86C40.6702 22.28 41.1102 22.53 41.5702 22.53C41.7402 22.53 41.9202 22.5 42.0902 22.43L44.8602 21.26C45.5302 21.77 46.2502 22.23 47.0402 22.56L47.4102 25.5C47.4902 26.17 48.0602 26.67 48.7302 26.67H50.8902V18.67C47.9502 18.67 45.5602 16.28 45.5602 13.34C45.5602 10.4 47.9302 8 50.8802 8V0Z" fill="#5F737C"/>
<path d="M40.0101 42.67C40.1501 41.8 40.2101 40.9 40.2101 40C40.2101 39.11 40.1401 38.22 40.0101 37.35L44.4201 33.89C45.4501 33.08 45.7401 31.6 45.0801 30.46L42.2401 25.53C41.5801 24.39 40.1601 23.9 38.9301 24.39L33.7401 26.48C32.3201 25.34 30.7801 24.45 29.1501 23.83L28.3601 18.28C28.1701 16.98 27.0401 15.99 25.7201 15.99H20.0301C18.7101 15.99 17.5801 16.97 17.3901 18.28L16.6001 23.83C14.9701 24.46 13.4101 25.36 12.0301 26.48L6.81014 24.39C5.59014 23.9 4.17014 24.39 3.51014 25.53L0.670141 30.46C0.0101411 31.61 0.300141 33.08 1.34014 33.89L5.74014 37.32C5.60014 38.19 5.54014 39.09 5.54014 39.99C5.54014 40.88 5.61014 41.77 5.74014 42.64L1.33014 46.1C0.300141 46.91 0.0101411 48.39 0.670141 49.53L3.51014 54.46C4.17014 55.6 5.59014 56.09 6.82014 55.6L12.0101 53.51C13.4301 54.65 14.9701 55.54 16.6001 56.16L17.3901 61.71C17.5801 63.01 18.7101 64 20.0301 64H25.7201C27.0401 64 28.1701 63.02 28.3601 61.71L29.1501 56.16C30.7801 55.53 32.3401 54.63 33.7201 53.51L38.9401 55.6C40.1701 56.09 41.5801 55.6 42.2401 54.46L45.0801 49.53C45.7401 48.38 45.4501 46.91 44.4101 46.1L40.0101 42.67Z" fill="#0054A6"/>
<path d="M21.88 38H23.88C27.01 38 29.55 40.54 29.55 43.67C29.55 46.45 27.53 48.76 24.88 49.24V51.34C24.88 52.44 23.98 53.34 22.88 53.34C21.78 53.34 20.88 52.44 20.88 51.34V49.34H18.21C17.11 49.34 16.21 48.44 16.21 47.34C16.21 46.24 17.11 45.34 18.21 45.34H23.88C24.8 45.34 25.55 44.59 25.55 43.67C25.55 42.75 24.8 42 23.88 42H21.88C18.75 42 16.21 39.46 16.21 36.33C16.21 33.55 18.23 31.24 20.88 30.76V28.66C20.88 27.56 21.78 26.66 22.88 26.66C23.98 26.66 24.88 27.56 24.88 28.66V30.66H27.55C28.65 30.66 29.55 31.56 29.55 32.66C29.55 33.76 28.65 34.66 27.55 34.66H21.88C20.96 34.66 20.21 35.41 20.21 36.33C20.21 37.25 20.96 38 21.88 38Z" fill="white"/>
<path d="M22.8801 34.67H21.8801C20.9601 34.67 20.2101 35.42 20.2101 36.34C20.2101 37.26 20.9601 38.01 21.8801 38.01H22.8801V34.67ZM22.8801 16H20.0401C18.7201 16 17.5901 16.98 17.4001 18.29L16.6101 23.84C14.9801 24.47 13.4201 25.37 12.0401 26.49L6.82014 24.4C6.50014 24.27 6.17014 24.21 5.84014 24.21C4.91014 24.21 4.01014 24.7 3.52014 25.54L0.680141 30.47C0.0201411 31.62 0.310141 33.09 1.35014 33.9L5.75014 37.33C5.61014 38.2 5.55014 39.1 5.55014 40C5.55014 40.89 5.62014 41.78 5.75014 42.65L1.33014 46.1C0.300141 46.91 0.0101411 48.39 0.670141 49.53L3.51014 54.46C4.00014 55.31 4.90014 55.79 5.84014 55.79C6.17014 55.79 6.51014 55.73 6.83014 55.6L12.0201 53.51C13.4401 54.65 14.9801 55.54 16.6101 56.16L17.4001 61.71C17.5901 63.01 18.7201 64 20.0401 64H22.8801V53.33C21.7801 53.33 20.8801 52.43 20.8801 51.33V49.33H18.2101C17.1101 49.33 16.2101 48.43 16.2101 47.33C16.2101 46.23 17.1101 45.33 18.2101 45.33H22.8801V42H21.8801C18.7501 42 16.2101 39.46 16.2101 36.33C16.2101 33.55 18.2301 31.24 20.8801 30.76V28.66C20.8801 27.56 21.7801 26.66 22.8801 26.66V16Z" fill="#0054A6"/>
<path d="M22.88 45.33H18.21C17.11 45.33 16.21 46.23 16.21 47.33C16.21 48.43 17.11 49.33 18.21 49.33H20.88V51.33C20.88 52.43 21.78 53.33 22.88 53.33V45.33ZM22.88 26.67C21.78 26.67 20.88 27.57 20.88 28.67V30.77C18.23 31.24 16.21 33.55 16.21 36.34C16.21 39.47 18.75 42.01 21.88 42.01H22.88V38.01H21.88C20.96 38.01 20.21 37.26 20.21 36.34C20.21 35.42 20.96 34.67 21.88 34.67H22.88V26.67Z" fill="white"/>
</g>
<defs>
<clipPath id="clip0_5442_2303">
<rect width="64" height="64" fill="white"/>
</clipPath>
</defs>
</svg>
