<svg width="114" height="114" viewBox="0 0 114 114" fill="none" xmlns="http://www.w3.org/2000/svg">
<path fill-rule="evenodd" clip-rule="evenodd" d="M56.9998 3.5C44.1998 3.5 33.7998 14 33.7998 26.8C33.7998 39.6 44.1998 50 56.9998 50C69.7998 50 80.1998 39.6 80.1998 26.8C80.1998 14 69.7998 3.5 56.9998 3.5ZM59.3998 26.8C59.3998 28.1 58.2998 29.2 56.9998 29.2H45.2998C43.9998 29.2 42.8998 28.1 42.8998 26.8C42.8998 25.5 43.9998 24.4 45.2998 24.4H54.5998V14.1C54.5998 12.8 55.6998 11.7 56.9998 11.7C58.2998 11.7 59.3998 12.8 59.3998 14.1V26.8Z" fill="#0054A6"/>
<path fill-rule="evenodd" clip-rule="evenodd" d="M54.9004 63H13.5004C12.3004 63 11.4004 63.8999 11.4004 65.0999V73.3C11.4004 74.4 12.2004 75.4 13.3004 75.5C14.6004 75.6 15.6004 74.6 15.6004 73.4V67.1999H54.9004V73.3C54.9004 74.4 55.7004 75.4 56.8004 75.5C58.1004 75.6 59.1004 74.6 59.1004 73.4V67.1999H98.4004V73.3C98.4004 74.4 99.2004 75.4 100.3 75.5C101.6 75.6 102.6 74.6 102.6 73.4V65.0999C102.6 63.8999 101.7 63 100.5 63H59.1004V55.2999C59.1004 54.0999 58.2004 53.2 57.0004 53.2C55.8004 53.2 54.9004 54.0999 54.9004 55.2999V63Z" fill="#002548"/>
<path fill-rule="evenodd" clip-rule="evenodd" d="M100 80C92.3 80 86 86.3 86 94C86 101.7 92.3 108 100 108C107.7 108 114 101.7 114 94C114 86.3 107.7 80 100 80Z" fill="#54CC5A"/>
<path fill-rule="evenodd" clip-rule="evenodd" d="M73.1 93L72.9 92.9C67.8 92.9 64.5 87.3 67.1 82.8C67.1 82.7 67.1 82.6 67.1 82.6C65.9 81.6 64.5 80.8 63 80.3C62.9 80.3 62.8 80.3 62.8 80.4C60.3 84.9 53.7 84.9 51.2 80.4C51.1 80.3 51.1 80.3 51 80.3C49.5 80.9 48.2 81.7 46.9 82.6C46.8 82.7 46.8 82.8 46.9 82.8C49.5 87.2 46.3 92.8 41.1 92.8C41 92.8 40.9 92.9 40.9 93C40.7 94.5 40.7 96.1 40.9 97.7L41.1 97.9C46.2 97.9 49.5 103.4 46.9 107.9C46.9 108 46.9 108.1 46.9 108.1C48.1 109.1 49.5 109.9 51 110.4C51.1 110.4 51.2 110.4 51.2 110.3C53.8 105.8 60.2 105.8 62.8 110.3C62.8 110.4 62.9 110.4 63 110.4C64.5 109.8 65.8 109 67.1 108.1C67.2 108 67.2 108 67.1 107.9C64.5 103.4 67.8 97.9 72.9 97.9C73 97.9 73.1 97.8 73.1 97.7C73.3 96.1 73.3 94.5 73.1 93ZM64.2 99.5C61.9 103.5 56.7 104.8 52.8 102.6C48.8 100.3 47.4 95.2 49.8 91.2C52.1 87.2 57.2 85.8 61.2 88.1C65.2 90.4 66.5 95.5 64.2 99.5Z" fill="#839299"/>
<path d="M25.6 82.6001H0V108.2H25.6V82.6001Z" fill="#FFDD33"/>
</svg>
