<svg width="100" height="100" viewBox="0 0 100 100" fill="none" xmlns="http://www.w3.org/2000/svg">
<rect width="100" height="100" fill="white"/>
<g clip-path="url(#clip0_14593_81978)">
<path fill-rule="evenodd" clip-rule="evenodd" d="M96.0001 51.1328C96.0001 44.6618 92.8657 39.5557 86.8749 39.5557C80.8588 39.5557 77.2188 44.6618 77.2188 51.0824C77.2188 58.691 81.516 62.5332 87.6837 62.5332C90.6917 62.5332 92.9668 61.8507 94.6856 60.8901V55.8344C92.9666 56.6939 90.9951 57.2246 88.4925 57.2246C86.0406 57.2246 83.8666 56.3651 83.5887 53.3823H95.9494C95.9496 53.0539 96.0001 51.7394 96.0001 51.1328ZM83.513 48.7314C83.513 45.8749 85.2572 44.687 86.8496 44.687C88.3916 44.687 90.0347 45.8751 90.0347 48.7314H83.513Z" fill="black"/>
<path fill-rule="evenodd" clip-rule="evenodd" d="M67.4614 39.5547C64.9842 39.5547 63.3916 40.7176 62.5069 41.5264L62.1783 39.9592H56.6172V69.4332L62.9366 68.0935L62.9619 60.9397C63.8718 61.597 65.2116 62.5322 67.436 62.5322C71.9608 62.5322 76.081 58.8921 76.081 50.8791C76.056 43.5486 71.885 39.5547 67.4614 39.5547ZM65.9447 56.9711C64.4532 56.9711 63.5686 56.4402 62.9619 55.783L62.9366 46.405C63.5939 45.6719 64.5038 45.1664 65.9447 45.1664C68.245 45.1664 69.8374 47.7447 69.8374 51.0561C69.8374 54.4434 68.2702 56.9711 65.9447 56.9711Z" fill="black"/>
<path fill-rule="evenodd" clip-rule="evenodd" d="M47.9219 38.0639L54.2666 36.6989V31.5674L47.9219 32.9073V38.0639Z" fill="black"/>
<path d="M54.2666 39.9849H47.9219V62.1029H54.2666V39.9849Z" fill="black"/>
<path fill-rule="evenodd" clip-rule="evenodd" d="M41.1223 41.8554L40.7178 39.9848H35.2578V62.1028H41.5773V47.1131C43.0686 45.1666 45.5964 45.5207 46.38 45.7986V39.9848C45.5712 39.6816 42.6136 39.1255 41.1223 41.8554Z" fill="black"/>
<path fill-rule="evenodd" clip-rule="evenodd" d="M28.4822 34.5L22.3143 35.8145L22.2891 56.0619C22.2891 59.8031 25.0948 62.5584 28.836 62.5584C30.9088 62.5584 32.4254 62.1793 33.2596 61.7241V56.5928C32.4508 56.9214 28.4569 58.0841 28.4569 54.3431V45.3695H33.2596V39.9854H28.4569L28.4822 34.5Z" fill="black"/>
<path fill-rule="evenodd" clip-rule="evenodd" d="M11.3953 46.405C11.3953 45.4192 12.2042 45.0401 13.5439 45.0401C15.4649 45.0401 17.8916 45.6214 19.8129 46.6579V40.7176C17.7148 39.8835 15.642 39.5547 13.5439 39.5547C8.41254 39.5547 5 42.2343 5 46.7084C5 53.6851 14.6056 52.5729 14.6056 55.5809C14.6056 56.7436 13.5945 57.1229 12.1789 57.1229C10.0809 57.1229 7.40145 56.2634 5.27814 55.1007V61.1168C7.62894 62.1278 10.0052 62.5576 12.1789 62.5576C17.4367 62.5576 21.0515 59.9539 21.0515 55.4293C21.0262 47.8965 11.3953 49.2362 11.3953 46.405Z" fill="black"/>
</g>
<defs>
<clipPath id="clip0_14593_81978">
<rect width="91" height="91" fill="white" transform="translate(5 5)"/>
</clipPath>
</defs>
</svg>
