<svg width="114" height="114" viewBox="0 0 114 114" fill="none" xmlns="http://www.w3.org/2000/svg">
<g clip-path="url(#clip0_9643_18975)">
<path d="M5.7 22.8H0V0H23.3V5.7H5.7V22.8Z" fill="#839299"/>
<path d="M113.999 22.8H108.299V5.7H90.6992V0H113.999V22.8Z" fill="#839299"/>
<path d="M23.3 114H0V91.2002H5.7V108.3H23.3V114Z" fill="#839299"/>
<path d="M113.999 114H90.6992V108.3H108.299V91.2002H113.999V114Z" fill="#839299"/>
<path d="M90.8992 97.6L108.999 84.3L90.8992 71V78.3H55.6992V90.4H90.9992V97.6H90.8992Z" fill="#002548"/>
<path d="M34.6008 56.9998C34.6008 45.1998 44.1008 35.8998 55.7008 35.8998L61.8008 29.2998L55.7008 23.7998C37.3008 23.7998 22.3008 38.7998 22.3008 57.1998C22.3008 75.5998 37.3008 90.5998 55.7008 90.5998L61.8008 85.0998L55.7008 78.2998C44.1008 78.0998 34.6008 68.7998 34.6008 56.9998Z" fill="#002548"/>
<path d="M55.7 90.4L61.8 84.9L55.7 78.1C43.9 78.1 34.6 68.6 34.6 57H22.5C22.5 75.4 37.3 90.4 55.7 90.4Z" fill="#002548"/>
<path d="M58.7 23.7998V16.2998L40.5 29.6998L58.7 42.9998V35.9998C70.3 37.6998 78.3 48.2998 76.8 59.8998C75.3 70.2998 66.4 78.0998 55.8 78.0998L49.7 84.1998L55.8 90.2998C74.2 90.2998 89 75.2998 89 56.8998C89.1 39.7998 75.9 25.4998 58.7 23.7998Z" fill="#0054A6"/>
<path d="M55.6992 78.0999L49.6992 84.1999L55.7992 90.2999C74.1992 90.2999 88.9992 75.2999 88.9992 56.8999H76.9992C76.9992 68.7999 67.3992 78.0999 55.6992 78.0999Z" fill="#0054A6"/>
<path d="M10.6992 78.1001H55.7992V90.2001H10.6992V78.1001Z" fill="#0054A6"/>
<path d="M55.7984 45.3999C49.4984 45.3999 44.3984 50.4999 44.3984 56.7999C44.3984 63.0999 49.4984 68.1999 55.7984 68.1999C62.0984 68.1999 67.1984 63.0999 67.1984 56.7999C67.2984 50.4999 62.1984 45.3999 55.7984 45.3999ZM56.4984 60.0999L54.2984 62.2999L51.8984 60.0999L48.6984 56.8999L51.0984 54.4999L54.2984 57.6999L60.7984 51.1999L63.1984 53.3999L56.4984 60.0999Z" fill="#54CC5A"/>
</g>
<defs>
<clipPath id="clip0_9643_18975">
<rect width="114" height="114" fill="white"/>
</clipPath>
</defs>
</svg>
