<svg width="50" height="50" viewBox="0 0 50 50" fill="none" xmlns="http://www.w3.org/2000/svg">
<g clip-path="url(#clip0_18202_7544)">
<path fill-rule="evenodd" clip-rule="evenodd" d="M25 37.848C24.3526 37.848 23.8281 37.3237 23.8281 36.6762V19.6264C23.8281 18.9789 24.3526 18.4546 25 18.4546C25.6475 18.4546 26.1719 18.9789 26.1719 19.6264V36.6762C26.1719 37.3235 25.6475 37.848 25 37.848Z" fill="#3B566A"/>
<path fill-rule="evenodd" clip-rule="evenodd" d="M43.2012 20.6169H40.5982C40.258 20.6169 39.951 20.4127 39.8196 20.0989C39.4642 19.2525 38.6416 18.7057 37.724 18.7057C36.8064 18.7057 35.9839 19.2525 35.6285 20.0989C35.4971 20.4124 35.19 20.6169 34.8498 20.6169H32.247C31.7803 20.6169 31.4023 20.2388 31.4023 19.7723V5.06817C31.4023 4.60161 31.7803 4.22363 32.247 4.22363H37.7243C41.2101 4.22363 44.0458 7.05933 44.0458 10.5452V19.7721C44.0453 20.2388 43.6674 20.6169 43.2012 20.6169Z" fill="#E56353"/>
<path fill-rule="evenodd" clip-rule="evenodd" d="M42.6408 19.2095V10.5454C42.6408 7.83657 40.4356 5.63135 37.7268 5.63135H32.8125V19.2095H34.4992C35.1399 18.0382 36.3707 17.2983 37.7265 17.2983C39.0824 17.2983 40.3132 18.0382 40.9539 19.2095L42.6408 19.2095Z" fill="#27A2DB"/>
<path fill-rule="evenodd" clip-rule="evenodd" d="M44.0458 19.7722V14.0339V12.3447H31.4023V14.0339V14.1201V15.8089V19.7723C31.4023 20.2389 31.7803 20.617 32.247 20.617H33.7799H34.8498C35.19 20.617 35.4971 20.4125 35.6285 20.099C35.9384 19.3609 36.6036 18.8505 37.3774 18.732C37.4023 18.7282 37.4275 18.7248 37.4527 18.7218C37.542 18.7112 37.6326 18.7058 37.724 18.7058C38.6416 18.7058 39.4642 19.2526 39.8196 20.099C39.9511 20.4127 40.258 20.617 40.5982 20.617H41.6679H43.2012C43.6674 20.617 44.0452 20.2389 44.0458 19.7722Z" fill="#E56353"/>
<path fill-rule="evenodd" clip-rule="evenodd" d="M37.7257 24.9371C35.5421 24.9371 33.7656 23.1602 33.7656 20.9767C33.7656 18.793 35.5421 17.0166 37.7257 17.0166C39.9092 17.0166 41.6861 18.793 41.6861 20.9767C41.6861 23.1602 39.9092 24.9371 37.7257 24.9371Z" fill="#2F4859"/>
<path fill-rule="evenodd" clip-rule="evenodd" d="M8.01175 14.9647V14.9644V0.939752C8.01175 0.473193 8.38973 0.0952148 8.8564 0.0952148H32.2478C32.7144 0.0952148 33.0923 0.473192 33.0923 0.939752V14.9644V14.9647V19.7725C33.0923 20.2388 32.7143 20.6169 32.2478 20.6169C26.1584 20.6169 23.7624 20.6169 17.7124 20.6169C17.3722 20.6169 17.0652 20.4127 16.9336 20.0989C16.5784 19.2526 15.7558 18.7057 14.8379 18.7057C13.9201 18.7057 13.0979 19.2526 12.7427 20.0989C12.611 20.4124 12.3041 20.6169 11.9638 20.6169H8.85637C8.3897 20.6169 8.01172 20.2388 8.01172 19.7723L8.01175 14.9647Z" fill="#F7BE56"/>
<path fill-rule="evenodd" clip-rule="evenodd" d="M37.7241 18.7056C36.4716 18.7056 35.4531 19.7244 35.4531 20.9765C35.4531 22.2286 36.4719 23.2478 37.7241 23.2478C38.9763 23.2478 39.9953 22.2287 39.9953 20.9765C39.9953 19.7243 38.9763 18.7056 37.7241 18.7056Z" fill="#FEFEFE"/>
<path fill-rule="evenodd" clip-rule="evenodd" d="M14.8393 24.9371C12.6554 24.9371 10.8789 23.1602 10.8789 20.9767C10.8789 18.793 12.6554 17.0166 14.8393 17.0166C17.0232 17.0166 18.7997 18.793 18.7997 20.9767C18.7997 23.1602 17.0231 24.9371 14.8393 24.9371Z" fill="#2F4859" stroke="#2F4859" stroke-width="0.0878906"/>
<path fill-rule="evenodd" clip-rule="evenodd" d="M14.8376 18.7056C13.5851 18.7056 12.5664 19.7244 12.5664 20.9765C12.5664 22.2286 13.5855 23.2478 14.8376 23.2478C16.0899 23.2478 17.1089 22.2287 17.1089 20.9765C17.1089 19.7243 16.0898 18.7056 14.8376 18.7056Z" fill="#FEFEFE"/>
<path fill-rule="evenodd" clip-rule="evenodd" d="M42.8405 37.8479C42.1931 37.8479 41.6687 37.3235 41.6687 36.676V30.5058H8.33203V36.6759C8.33203 37.3233 7.80711 37.8478 7.16016 37.8478C6.5132 37.8478 5.98828 37.3233 5.98828 36.6759V29.3339C5.98828 28.6865 6.5132 28.1621 7.16016 28.1621H42.8405C43.4879 28.1621 44.0124 28.6865 44.0124 29.3339V36.6759C44.0124 37.3233 43.4878 37.8479 42.8405 37.8479Z" fill="#3B566A"/>
<path fill-rule="evenodd" clip-rule="evenodd" d="M12.8371 49.9998H1.48438C0.836843 49.9998 0.3125 49.4754 0.3125 48.828V46.0372C0.3125 43.8521 2.09027 42.0748 4.27532 42.0748L10.0463 42.0747C12.2313 42.0747 14.0091 43.852 14.0091 46.0371V48.828C14.009 49.4754 13.4845 49.9998 12.8371 49.9998Z" fill="#6BBEF6"/>
<path fill-rule="evenodd" clip-rule="evenodd" d="M7.16019 44.4183C4.70247 44.4183 2.70312 42.4192 2.70312 39.9615C2.70312 37.5039 4.7027 35.5044 7.16019 35.5044C9.61778 35.5044 11.6169 37.504 11.6169 39.9615C11.6169 42.4191 9.61732 44.4183 7.16019 44.4183Z" fill="#F1D0A5"/>
<path fill-rule="evenodd" clip-rule="evenodd" d="M30.6848 49.9998H19.332C18.6846 49.9998 18.1602 49.4754 18.1602 48.828V46.0372C18.1602 43.8521 19.9379 42.0748 22.123 42.0748L27.8942 42.0747C30.0793 42.0747 31.8566 43.852 31.8566 46.0371V48.828C31.8566 49.4754 31.3322 49.9998 30.6848 49.9998Z" fill="#6BBEF6"/>
<path fill-rule="evenodd" clip-rule="evenodd" d="M25.0078 44.4183C22.5501 44.4183 20.5508 42.4192 20.5508 39.9615C20.5508 37.5039 22.5504 35.5044 25.0078 35.5044C27.4653 35.5044 29.4646 37.504 29.4646 39.9615C29.4646 42.4191 27.4656 44.4183 25.0078 44.4183Z" fill="#F1D0A5"/>
<path fill-rule="evenodd" clip-rule="evenodd" d="M48.517 49.9998H37.1641C36.5166 49.9998 35.9922 49.4754 35.9922 48.828V46.0372C35.9922 43.8521 37.7696 42.0748 39.9545 42.0748L45.726 42.0747C47.9111 42.0747 49.6889 43.852 49.6889 46.0371V48.828C49.6889 49.4754 49.1643 49.9998 48.517 49.9998Z" fill="#6BBEF6"/>
<path fill-rule="evenodd" clip-rule="evenodd" d="M42.8396 44.4183C40.3819 44.4183 38.3828 42.4192 38.3828 39.9615C38.3828 37.5039 40.3819 35.5044 42.8396 35.5044C45.2972 35.5044 47.2967 37.504 47.2967 39.9615C47.2967 42.4191 45.2971 44.4183 42.8396 44.4183Z" fill="#F1D0A5"/>
</g>
<defs>
<clipPath id="clip0_18202_7544">
<rect width="50" height="50" fill="white"/>
</clipPath>
</defs>
</svg>
