<svg width="64" height="64" viewBox="0 0 64 64" fill="none" xmlns="http://www.w3.org/2000/svg">
<g clip-path="url(#clip0_5442_2873)">
<path d="M0 -1.17004H64V31.93H0V-1.17004Z" fill="#0054A6"/>
<path opacity="0.19" d="M64 -1.17004V31.93H0C28.96 28.28 50.97 17.9 64 -1.17004Z" fill="#F9FAFB"/>
<path d="M44.1399 49.59C45.3599 49.59 46.3399 50.58 46.3499 51.8C46.3399 53.01 45.3599 54 44.1399 54.01H19.8599C18.6399 54.01 17.6599 53.02 17.6499 51.8C17.6599 50.59 18.6399 49.6 19.8599 49.59H44.1399Z" fill="#5F737C"/>
<path d="M40.8299 49.59H23.1699L24.2699 40.76H39.7199L40.8299 49.59Z" fill="#839299"/>
<path d="M64 31.9301V36.3401C63.99 38.7701 62.02 40.7501 59.59 40.7501H4.41C1.98 40.7501 0.01 38.7801 0 36.3401V31.9301H64Z" fill="#D2D9DC"/>
<path d="M40 42.97H24L24.28 40.76H39.73L40 42.97Z" fill="#5F737C"/>
<path d="M43.03 12.0699V25.3099H29.79V12.0699H43.03Z" fill="#FFDD33"/>
<path d="M34.2102 3.23999V16.48H20.9702V3.23999H34.2102Z" fill="#54CC5A"/>
<path d="M29.79 12.0699H34.2V16.4799H29.79V12.0699Z" fill="#ED1C24"/>
<path d="M56.2798 35.24H58.4898V37.45H56.2798V35.24Z" fill="#5F737C"/>
<path opacity="0.19" d="M34.2102 17.59H29.8002C29.1902 17.59 28.7002 17.1 28.7002 16.49V12.08C28.7002 11.47 29.1902 10.98 29.8002 10.98H34.2102C34.8202 10.98 35.3102 11.47 35.3102 12.08V16.49C35.3102 17.09 34.8202 17.59 34.2102 17.59ZM30.9002 15.38H33.1102V13.17H30.9002V15.38Z" fill="#2D2F31"/>
<path opacity="0.19" d="M26.4799 17.59H20.9599C20.3499 17.59 19.8599 17.1 19.8599 16.49V3.24001C19.8599 2.63001 20.3499 2.14001 20.9599 2.14001H34.1999C34.8099 2.14001 35.2999 2.63001 35.2999 3.24001V8.76001H33.0999V4.35001H22.0699V15.38H26.4799V17.59Z" fill="#2D2F31"/>
<path opacity="0.19" d="M43.0299 26.41H29.7899C29.1799 26.41 28.6899 25.92 28.6899 25.31V19.79H30.8999V24.2H41.9299V13.17H37.5199V10.96H43.0399C43.6499 10.96 44.1399 11.45 44.1399 12.06V25.3C44.1399 25.92 43.6399 26.41 43.0299 26.41Z" fill="#2D2F31"/>
</g>
<defs>
<clipPath id="clip0_5442_2873">
<rect width="64" height="64" fill="white"/>
</clipPath>
</defs>
</svg>
