<svg width="660" height="536" viewBox="0 0 660 536" fill="none" xmlns="http://www.w3.org/2000/svg">
<path d="M348.398 220.4L336.998 218.6C331.498 217.7 327.298 213.2 326.798 207.6L325.898 196.1C325.598 191.7 322.898 187.9 318.898 186.1L308.998 181.6L299.098 177.1C295.098 175.3 290.498 175.7 286.898 178.3L277.598 185.1C273.098 188.4 266.898 188.2 262.598 184.5L253.998 177C250.698 174.2 246.098 173.3 241.998 174.9L221.598 182.4C217.498 183.9 214.498 187.5 213.898 191.9L212.098 203.3C211.198 208.8 206.698 213 201.098 213.5L189.598 214.4C185.198 214.7 181.398 217.4 179.598 221.4L175.098 231.3L170.598 241.2C168.798 245.2 169.198 249.8 171.798 253.4L178.598 262.7C181.898 267.2 181.698 273.4 177.998 277.7L170.498 286.5C167.698 289.8 166.798 294.4 168.398 298.5L175.898 318.9C177.398 323 180.998 326 185.398 326.6L196.798 328.4C202.298 329.3 206.498 333.8 206.998 339.4L207.898 350.9C208.198 355.3 210.898 359.1 214.898 360.9L224.798 365.4L234.698 369.9C238.698 371.7 243.298 371.3 246.898 368.7L256.198 361.9C260.698 358.6 266.898 358.8 271.198 362.5L279.998 370C283.298 372.8 287.898 373.7 291.998 372.1L312.398 364.6C316.498 363.1 319.498 359.5 320.098 355.1L321.898 343.7C322.798 338.2 327.298 334 332.898 333.5L344.398 332.6C348.798 332.3 352.598 329.6 354.398 325.6L363.498 305.9C365.298 301.9 364.898 297.3 362.298 293.7L355.498 284.4C352.198 279.9 352.398 273.7 356.098 269.4L363.598 260.6C366.398 257.3 367.298 252.7 365.698 248.6L358.198 228.2C356.398 224 352.798 221.1 348.398 220.4ZM282.698 316.1C259.498 324.7 233.598 312.8 225.098 289.6C216.498 266.4 228.398 240.5 251.598 232C274.798 223.4 300.698 235.3 309.198 258.5C317.798 281.6 305.898 307.5 282.698 316.1Z" fill="#8BAAC9"/>
<path d="M537.103 109.4L530.903 105.9C527.903 104.2 526.403 100.7 527.303 97.3L529.303 90.4C530.003 87.8 529.303 85 527.403 83.1L517.903 73.6C516.003 71.7 513.203 71 510.603 71.7L503.703 73.7C500.403 74.6 496.803 73.2 495.103 70.1L491.603 63.8C490.303 61.4 487.803 60 485.103 60H471.603C468.903 60 466.403 61.5 465.103 63.8L461.603 70.1C459.903 73.1 456.403 74.6 453.003 73.7L446.103 71.7C443.503 71 440.703 71.7 438.803 73.6L434.003 78.4L429.203 83.2C427.303 85.1 426.603 87.9 427.303 90.5L429.303 97.4C430.203 100.7 428.803 104.3 425.703 106L419.503 109.5C417.103 110.8 415.703 113.3 415.703 116V129.5C415.703 132.2 417.203 134.7 419.503 136L425.703 139.5C428.703 141.2 430.203 144.7 429.303 148.1L427.303 155C426.603 157.6 427.303 160.4 429.203 162.3L434.003 167.1L438.803 171.9C440.703 173.8 443.503 174.5 446.103 173.8L453.003 171.8C456.303 170.9 459.903 172.3 461.603 175.4L465.103 181.6C466.403 184 468.903 185.4 471.603 185.4H485.103C487.803 185.4 490.303 183.9 491.603 181.6L495.103 175.4C496.803 172.4 500.303 170.9 503.703 171.8L510.603 173.8C513.203 174.5 516.003 173.8 517.903 171.9L522.703 167.1L527.503 162.3C529.403 160.4 530.103 157.6 529.403 155L527.403 148.1C526.503 144.8 527.903 141.2 531.003 139.5L537.203 136C539.603 134.7 541.003 132.2 541.003 129.5V116C541.003 113.2 539.503 110.7 537.103 109.4ZM478.303 150.9C463.003 150.9 450.503 138.4 450.503 123.1C450.503 107.8 463.003 95.3 478.303 95.3C493.603 95.3 506.103 107.8 506.103 123.1C506.103 138.4 493.603 150.9 478.303 150.9Z" fill="#A5BDDB"/>
<path d="M317.4 417.9L311.7 414.7C308.9 413.2 307.6 409.9 308.4 406.8L310.2 400.5C310.9 398.1 310.2 395.5 308.5 393.8L299.8 385.1C298 383.3 295.5 382.7 293.1 383.3L286.8 385.1C283.7 386 280.5 384.6 278.9 381.8L275.7 376.1C274.5 373.9 272.2 372.6 269.7 372.6H257.3C254.8 372.6 252.5 373.9 251.3 376.1L248.1 381.8C246.5 384.6 243.3 385.9 240.2 385.1L233.9 383.3C231.5 382.6 228.9 383.3 227.2 385.1L222.8 389.5L218.4 393.9C216.6 395.7 216 398.2 216.7 400.6L218.5 406.9C219.4 410 218 413.2 215.2 414.8L209.5 418C207.3 419.2 206 421.5 206 424V436.4C206 438.9 207.3 441.2 209.5 442.4L215.2 445.6C218 447.2 219.3 450.4 218.5 453.5L216.7 459.8C216 462.2 216.7 464.8 218.4 466.5L222.8 470.9L227.2 475.3C229 477.1 231.5 477.7 233.9 477L240.2 475.2C243.3 474.3 246.5 475.7 248.1 478.5L251.3 484.2C252.5 486.4 254.8 487.7 257.3 487.7H269.7C272.2 487.7 274.5 486.4 275.7 484.2L278.9 478.5C280.5 475.7 283.7 474.4 286.8 475.2L293.1 477C295.5 477.7 298.1 477 299.8 475.3L304.2 470.9L308.6 466.5C310.4 464.7 311 462.2 310.3 459.8L308.5 453.5C307.6 450.4 309 447.2 311.8 445.6L317.5 442.4C319.7 441.2 321 438.9 321 436.4V424C320.9 421.4 319.5 419.1 317.4 417.9ZM263.3 456C249.2 456 237.8 444.5 237.8 430.5C237.8 416.4 249.3 405 263.3 405C277.4 405 288.8 416.5 288.8 430.5C288.9 444.5 277.4 456 263.3 456Z" fill="#0054A6"/>
<path fill-rule="evenodd" clip-rule="evenodd" d="M105.203 399.7L107.903 404L109.603 402.9C110.203 402.5 110.803 402.2 111.403 401.9C112.603 401.2 113.803 400.5 115.003 399.9L112.603 395.4C111.303 396 110.103 396.8 108.803 397.5C108.203 397.9 107.503 398.2 106.903 398.6L105.203 399.7Z" fill="#C9DEF2"/>
<path fill-rule="evenodd" clip-rule="evenodd" d="M92.7031 409L96.1031 412.8L99.2031 410.1L102.503 407.6L99.5031 403.5C98.3031 404.4 97.2031 405.3 96.0031 406.2L92.7031 409Z" fill="#C9DEF2"/>
<path fill-rule="evenodd" clip-rule="evenodd" d="M82 420.3L86 423.5L86.6 422.7C86.8 422.4 87 422.2 87.3 421.9L88.7 420.3L89.4 419.5C89.6 419.2 89.8 419 90.1 418.7L91.5 417.2L87.8 413.6L86.3 415.2C86 415.5 85.8 415.7 85.6 416L84.9 416.8L83.5 418.4C83.3 418.7 83 418.9 82.8 419.2L82 420.3Z" fill="#C9DEF2"/>
<path fill-rule="evenodd" clip-rule="evenodd" d="M148.602 383L149.602 388C151.002 387.7 152.302 387.5 153.702 387.2C155.102 387 156.502 386.8 157.802 386.5L157.102 381.4C155.702 381.6 154.302 381.8 152.802 382.1C151.402 382.5 150.002 382.8 148.602 383Z" fill="#C9DEF2"/>
<path fill-rule="evenodd" clip-rule="evenodd" d="M133.602 386.8L135.102 391.7C136.402 391.3 137.802 390.9 139.102 390.5C140.402 390.1 141.802 389.8 143.102 389.4L141.902 384.4C140.502 384.7 139.102 385.1 137.702 385.5C136.302 386 134.902 386.4 133.602 386.8Z" fill="#C9DEF2"/>
<path fill-rule="evenodd" clip-rule="evenodd" d="M119.102 392.3L121.202 397C122.502 396.4 123.702 395.9 125.002 395.4C125.602 395.1 126.302 394.9 126.902 394.6L128.802 393.9L127.002 389.1L125.002 389.9C124.302 390.2 123.602 390.4 123.002 390.7C121.702 391.2 120.402 391.7 119.102 392.3Z" fill="#C9DEF2"/>
<path fill-rule="evenodd" clip-rule="evenodd" d="M194.903 379.8L194.703 384.9C196.103 385 197.503 385 198.903 385.1L201.003 385.2L203.103 385.4L203.503 380.3L201.403 380.1L199.203 380C197.803 380 196.303 379.9 194.903 379.8Z" fill="#C9DEF2"/>
<path fill-rule="evenodd" clip-rule="evenodd" d="M179.398 379.7L179.498 384.8C182.298 384.7 185.098 384.7 187.898 384.7L187.998 379.6C185.198 379.6 182.298 379.6 179.398 379.7Z" fill="#C9DEF2"/>
<path fill-rule="evenodd" clip-rule="evenodd" d="M164 380.7L164.6 385.8L166.7 385.6L168.8 385.4L170.8 385.3L172.9 385.1L172.6 380L170.5 380.1L168.3 380.3L166.2 380.5L164 380.7Z" fill="#C9DEF2"/>
<path fill-rule="evenodd" clip-rule="evenodd" d="M240.497 387.8L239.297 392.8C242.097 393.5 244.897 394.1 247.697 394.8L248.797 389.8C245.997 389.2 243.197 388.5 240.497 387.8Z" fill="#C9DEF2"/>
<path fill-rule="evenodd" clip-rule="evenodd" d="M225.598 384.2L224.398 389.2C227.098 389.8 229.898 390.5 232.698 391.2L233.898 386.2C231.098 385.5 228.398 384.8 225.598 384.2Z" fill="#C9DEF2"/>
<path fill-rule="evenodd" clip-rule="evenodd" d="M210.403 381.2L209.703 386.3C212.403 386.7 215.203 387.2 217.903 387.8L218.903 382.8C216.103 382.1 213.303 381.6 210.403 381.2Z" fill="#C9DEF2"/>
<path fill-rule="evenodd" clip-rule="evenodd" d="M285.5 393.1L285.7 398.2C287.2 398.1 288.6 398 290.1 397.9C290.5 397.9 290.8 397.9 291.2 397.8L292.3 397.7L294.5 397.5L293.9 392.4L291.8 392.6L290.8 392.7C290.5 392.7 290.1 392.7 289.7 392.8C288.4 392.9 287 393.1 285.5 393.1Z" fill="#C9DEF2"/>
<path fill-rule="evenodd" clip-rule="evenodd" d="M270.4 392.9L270 398C270.7 398 271.5 398.1 272.2 398.1L274.4 398.2L276.6 398.3H278.8V393.2H276.7L274.6 393.1L272.5 393C271.8 393 271.1 393 270.4 392.9Z" fill="#C9DEF2"/>
<path fill-rule="evenodd" clip-rule="evenodd" d="M255.502 391.1L254.602 396.2C257.502 396.7 260.402 397.1 263.202 397.5L263.802 392.4C261.002 392 258.202 391.6 255.502 391.1Z" fill="#C9DEF2"/>
<path fill-rule="evenodd" clip-rule="evenodd" d="M329.203 382.2L331.503 386.8C334.103 385.5 336.703 384 339.203 382.4L336.503 378.1C334.103 379.6 331.703 381 329.203 382.2Z" fill="#C9DEF2"/>
<path fill-rule="evenodd" clip-rule="evenodd" d="M315.203 387.9L316.803 392.8L318.903 392.1C319.603 391.9 320.303 391.6 321.003 391.3C322.403 390.8 323.803 390.3 325.103 389.7L323.103 385C321.803 385.6 320.503 386 319.203 386.5C318.503 386.7 317.903 387 317.203 387.2L315.203 387.9Z" fill="#C9DEF2"/>
<path fill-rule="evenodd" clip-rule="evenodd" d="M300.703 391.5L301.603 396.6L303.803 396.2L304.903 396C305.303 395.9 305.603 395.9 306.003 395.8L310.303 394.8L309.003 389.8L304.903 390.7C304.603 390.8 304.203 390.9 303.903 390.9L302.903 391.1L300.703 391.5Z" fill="#C9DEF2"/>
<path fill-rule="evenodd" clip-rule="evenodd" d="M362.602 352.7L366.902 355.5C368.502 353 370.002 350.4 371.402 347.8L366.802 345.5C365.502 347.9 364.102 350.3 362.602 352.7Z" fill="#C9DEF2"/>
<path fill-rule="evenodd" clip-rule="evenodd" d="M353.203 364.4L356.903 367.9C358.903 365.8 360.903 363.5 362.703 361.2L358.703 358C357.003 360.3 355.203 362.4 353.203 364.4Z" fill="#C9DEF2"/>
<path fill-rule="evenodd" clip-rule="evenodd" d="M342 374.3L345.1 378.4C347.5 376.6 349.8 374.8 352 372.8L348.6 369C346.4 370.9 344.3 372.6 342 374.3Z" fill="#C9DEF2"/>
<path fill-rule="evenodd" clip-rule="evenodd" d="M374.898 310L379.998 310.2C380.098 308.8 380.098 307.3 380.098 305.9L380.198 301.6L375.098 301.5L374.998 305.8C374.998 307.1 374.898 308.6 374.898 310Z" fill="#C9DEF2"/>
<path fill-rule="evenodd" clip-rule="evenodd" d="M373.5 325L378.6 325.9C379.1 323 379.4 320.1 379.7 317.1L374.6 316.7C374.2 319.4 373.9 322.2 373.5 325Z" fill="#C9DEF2"/>
<path fill-rule="evenodd" clip-rule="evenodd" d="M369.5 339.3L374.3 341.2C375.4 338.4 376.3 335.6 377.1 332.7L372.1 331.4C371.4 334.1 370.5 336.7 369.5 339.3Z" fill="#C9DEF2"/>
<path fill-rule="evenodd" clip-rule="evenodd" d="M378.297 263.8L383.297 265.1C383.497 264.4 383.597 263.8 383.797 263.1L384.397 261.1L384.697 260.1C384.797 259.8 384.897 259.5 384.997 259.1L385.697 257.2L380.897 255.5L380.197 257.6C380.097 257.9 379.997 258.3 379.897 258.6L379.597 259.6L378.997 261.7C378.697 262.4 378.497 263.1 378.297 263.8Z" fill="#C9DEF2"/>
<path fill-rule="evenodd" clip-rule="evenodd" d="M375.797 279.2L380.897 279.6L381.097 277.5C381.197 276.8 381.297 276.1 381.297 275.4C381.397 274.7 381.497 274 381.597 273.4L381.897 271.4L376.797 270.5L376.397 272.7C376.297 273.4 376.197 274.1 376.097 274.9C375.997 275.6 375.897 276.3 375.797 277.1V279.2Z" fill="#C9DEF2"/>
<path fill-rule="evenodd" clip-rule="evenodd" d="M375.102 294.6L380.202 294.7C380.202 291.9 380.302 289 380.402 286.2L375.302 286C375.202 288.8 375.202 291.7 375.102 294.6Z" fill="#C9DEF2"/>
<path fill-rule="evenodd" clip-rule="evenodd" d="M400.5 222.9L404.3 226.3L405.7 224.8C406.2 224.3 406.6 223.8 407.1 223.3L408.6 221.8C408.8 221.6 409.1 221.3 409.3 221.1L410.1 220.4L406.6 216.6L405.8 217.3C405.5 217.5 405.3 217.8 405 218.1L403.5 219.6C403 220.1 402.5 220.6 402 221.2L400.5 222.9Z" fill="#C9DEF2"/>
<path fill-rule="evenodd" clip-rule="evenodd" d="M391 235.3L395.3 238.1C395.7 237.5 396.1 237 396.5 236.4L397.7 234.7L398.9 233C399.3 232.5 399.7 231.9 400.2 231.4L396.2 228.2C395.7 228.8 395.3 229.4 394.9 229.9L393.6 231.6L392.4 233.4C391.8 234.1 391.4 234.6 391 235.3Z" fill="#C9DEF2"/>
<path fill-rule="evenodd" clip-rule="evenodd" d="M383.5 248.9L388.2 251L388.6 250.1L389 249.2L389.9 247.3C390.2 246.7 390.5 246.1 390.9 245.5L391.9 243.7L387.4 241.2L386.4 243.1C386.1 243.7 385.7 244.4 385.4 245L384.4 247L383.9 248L383.5 248.9Z" fill="#C9DEF2"/>
<path fill-rule="evenodd" clip-rule="evenodd" d="M438.797 196.6L440.597 201.4C441.197 201.2 441.897 200.9 442.497 200.7L444.497 200.1C445.797 199.6 447.097 199.3 448.397 198.9L447.097 193.9C445.697 194.3 444.297 194.7 442.897 195.1L440.797 195.8C440.197 196.1 439.497 196.4 438.797 196.6Z" fill="#C9DEF2"/>
<path fill-rule="evenodd" clip-rule="evenodd" d="M424.703 203.3L427.303 207.7L429.103 206.7C429.703 206.4 430.303 206.1 430.903 205.7C431.503 205.4 432.103 205.1 432.703 204.8L434.603 203.9L432.403 199.2L430.403 200.1C429.703 200.4 429.103 200.8 428.503 201.1C427.903 201.4 427.203 201.8 426.603 202.1L424.703 203.3Z" fill="#C9DEF2"/>
<path fill-rule="evenodd" clip-rule="evenodd" d="M411.898 212.1L415.098 216.1C416.198 215.3 417.198 214.4 418.398 213.6L420.098 212.4C420.698 212 421.198 211.6 421.798 211.2L418.898 206.9C418.298 207.3 417.698 207.7 417.098 208.1L415.298 209.4C414.198 210.3 413.098 211.2 411.898 212.1Z" fill="#C9DEF2"/>
<path fill-rule="evenodd" clip-rule="evenodd" d="M484.897 190.5L484.797 195.6L493.297 195.8L493.397 190.6L484.897 190.5Z" fill="#C9DEF2"/>
<path fill-rule="evenodd" clip-rule="evenodd" d="M469.398 190.7L469.698 195.8C471.098 195.7 472.498 195.7 473.898 195.7C475.298 195.6 476.698 195.7 478.098 195.6V190.5C476.698 190.5 475.198 190.5 473.798 190.6C472.298 190.6 470.898 190.6 469.398 190.7Z" fill="#C9DEF2"/>
<path fill-rule="evenodd" clip-rule="evenodd" d="M454 192.4L454.9 197.4L455.9 197.2C456.2 197.1 456.6 197.1 456.9 197L458.9 196.7C459.6 196.6 460.3 196.5 461 196.4L463.1 196.2L462.6 191.1L460.4 191.3C459.7 191.4 459 191.5 458.2 191.6L456 191.9C455.6 192 455.3 192 454.9 192.1L454 192.4Z" fill="#C9DEF2"/>
<path fill-rule="evenodd" clip-rule="evenodd" d="M530.297 188L531.497 193C532.897 192.7 534.397 192.2 535.797 191.9C536.497 191.7 537.197 191.4 537.897 191.2C538.597 191 539.297 190.7 539.997 190.5L538.197 185.7C537.597 186 536.897 186.2 536.197 186.4C535.497 186.6 534.897 186.9 534.197 187.1C532.997 187.3 531.697 187.7 530.297 188Z" fill="#C9DEF2"/>
<path fill-rule="evenodd" clip-rule="evenodd" d="M515.398 190.2L515.798 195.3L517.998 195.1C518.698 195 519.498 194.9 520.198 194.8C521.698 194.6 523.098 194.5 524.598 194.2L523.798 189.1C522.398 189.4 520.998 189.5 519.598 189.7C518.898 189.8 518.198 189.9 517.498 189.9L515.398 190.2Z" fill="#C9DEF2"/>
<path fill-rule="evenodd" clip-rule="evenodd" d="M500.297 190.7V195.8C503.197 195.8 506.097 195.8 508.997 195.7L508.797 190.6C505.897 190.7 503.097 190.7 500.297 190.7Z" fill="#C9DEF2"/>
<path fill-rule="evenodd" clip-rule="evenodd" d="M569 165.9L572.5 169.6L573.3 168.8L574.1 168L575.7 166.4L576.5 165.6C576.8 165.3 577 165.1 577.2 164.8L578.7 163.2L574.9 159.8L573.5 161.4C573.3 161.7 573 161.9 572.8 162.2L572.1 162.9L570.6 164.4L569.9 165.1L569 165.9Z" fill="#C9DEF2"/>
<path fill-rule="evenodd" clip-rule="evenodd" d="M557.398 175.4L560.298 179.6L562.098 178.3L562.998 177.7L563.398 177.4L563.798 177.1L565.498 175.7C566.098 175.2 566.698 174.8 567.198 174.3L563.898 170.3C563.398 170.8 562.798 171.2 562.298 171.6L560.598 172.9L560.198 173.2L559.798 173.5L558.898 174.1L557.398 175.4Z" fill="#C9DEF2"/>
<path fill-rule="evenodd" clip-rule="evenodd" d="M544.398 182.9L546.598 187.5C549.298 186.2 551.898 184.8 554.398 183.3L551.798 178.9C549.398 180.4 546.898 181.7 544.398 182.9Z" fill="#C9DEF2"/>
<path fill-rule="evenodd" clip-rule="evenodd" d="M593.703 128.5L598.503 130.3C598.703 129.6 599.003 128.9 599.303 128.2L600.003 126.1L600.703 124C600.803 123.7 600.903 123.3 601.003 122.9L601.303 121.8L596.303 120.5L596.003 121.5C595.903 121.8 595.803 122.2 595.703 122.5L595.103 124.5L594.503 126.5C594.303 127.2 594.003 127.9 593.703 128.5Z" fill="#C9DEF2"/>
<path fill-rule="evenodd" clip-rule="evenodd" d="M587.5 142.2L592 144.7L593.1 142.8C593.5 142.2 593.8 141.5 594.1 140.8L595.1 138.8C595.3 138.5 595.4 138.1 595.6 137.8L596 136.8L591.3 134.7L590.9 135.7C590.8 136 590.6 136.3 590.4 136.6L589.5 138.5C589.2 139.1 588.9 139.8 588.6 140.4L587.5 142.2Z" fill="#C9DEF2"/>
<path fill-rule="evenodd" clip-rule="evenodd" d="M579.203 154.7L583.203 157.9L584.503 156.1C584.903 155.5 585.403 154.9 585.803 154.3C586.603 153.1 587.503 151.9 588.303 150.7L584.003 147.9C583.203 149.1 582.403 150.2 581.603 151.4C581.203 152 580.803 152.5 580.403 153.1L579.203 154.7Z" fill="#C9DEF2"/>
<path fill-rule="evenodd" clip-rule="evenodd" d="M598.902 83.9999L604.002 83.4999C603.602 80.5999 603.302 77.6999 602.702 74.7999L597.602 75.6999C598.202 78.3999 598.502 81.1999 598.902 83.9999Z" fill="#C9DEF2"/>
<path fill-rule="evenodd" clip-rule="evenodd" d="M599.398 98.9999L604.498 99.1999L604.598 96.9999C604.598 96.5999 604.598 96.2999 604.598 95.8999V94.7999L604.498 90.3999L599.398 90.5999L599.498 94.7999V95.8999C599.498 96.1999 599.498 96.5999 599.498 96.8999L599.398 98.9999Z" fill="#C9DEF2"/>
<path fill-rule="evenodd" clip-rule="evenodd" d="M597.797 113.9L602.797 114.9C602.897 114.2 603.097 113.5 603.197 112.7L603.497 110.5C603.697 109 603.997 107.6 603.997 106.1L598.897 105.6C598.797 107 598.597 108.4 598.397 109.8L598.097 111.9C597.997 112.6 597.897 113.2 597.797 113.9Z" fill="#C9DEF2"/>
<path d="M339.703 155.2C339.703 155.2 342.303 160.2 343.403 160.6C344.503 161.1 360.503 157.1 362.403 155.3C363.403 154.3 363.003 148.5 363.003 148.5L339.703 155.2Z" fill="#89AAC9"/>
<path d="M339.703 155.2C339.703 155.2 342.303 160.2 343.403 160.6C344.503 161.1 360.503 157.1 362.403 155.3C363.403 154.3 363.003 148.5 363.003 148.5L339.703 155.2Z" fill="#89AAC9"/>
<path d="M328.099 126.9C324.999 124.8 303.399 128 293.599 102.6C283.799 77.1999 305.699 47.4999 339.999 48.4999C374.299 49.4999 379.299 92.0999 372.199 104.1C365.099 116.1 355.299 115.9 356.699 121.2C358.099 126.5 359.699 130.4 359.699 130.4L331.799 137.9C331.799 137.9 331.199 128.9 328.099 126.9Z" fill="white"/>
<path d="M339.999 48.3999C305.699 47.3999 283.799 77.0999 293.599 102.5C303.399 127.9 324.999 124.8 328.099 126.8C331.199 128.9 331.799 137.8 331.799 137.8L359.699 130.3C359.699 130.3 357.999 126.5 356.699 121.1C355.399 115.7 365.099 115.9 372.199 104C379.199 92.0999 374.299 49.3999 339.999 48.3999ZM302.799 92.2999C286.599 92.2999 302.699 56.4999 319.299 57.3999C335.999 58.3999 319.099 92.3999 302.799 92.2999Z" fill="#C9DEF2"/>
<path d="M342.198 135.2C341.298 131.4 339.698 127.7 337.698 124.4C336.698 122.8 335.598 121.2 334.098 120C332.698 118.9 331.098 118.2 329.398 117.7C327.698 117.2 325.998 116.9 324.298 116.5C322.698 116.1 321.198 115.5 319.898 114.5C317.398 112.8 315.398 110.1 314.598 107.1C313.898 104.1 314.498 100.9 316.098 98.3999C317.598 96.0999 320.798 93.4999 323.698 94.8999C325.098 95.5999 326.198 96.7999 327.098 98.0999C327.598 98.7999 327.998 99.4999 328.298 100.2C328.598 100.8 328.798 101.6 328.698 102.2C328.598 102.8 328.098 103.2 327.498 103.2C326.798 103.2 326.198 102.9 325.698 102.4C324.698 101.3 324.398 99.4999 324.498 98.0999C324.598 95.0999 326.298 92.1999 329.098 90.9999C331.798 89.7999 335.298 90.2999 337.398 92.4999C338.398 93.5999 339.298 95.2999 338.498 96.6999C338.198 97.2999 337.698 97.7999 336.998 97.8999C336.298 98.0999 335.598 97.7999 335.098 97.2999C333.998 96.2999 333.698 94.6999 333.898 93.2999C334.198 91.6999 335.098 90.3999 336.298 89.2999C337.598 88.1999 339.198 87.3999 340.898 87.0999C341.698 86.8999 342.598 86.9999 343.298 87.4999C343.998 87.8999 344.498 88.5999 344.998 89.1999C345.598 89.9999 346.198 90.7999 346.698 91.6999C347.198 92.4999 347.698 93.2999 347.998 94.2999C348.198 94.9999 348.298 95.7999 347.898 96.4999C347.598 96.9999 347.098 97.2999 346.498 97.1999C344.698 96.8999 344.698 94.6999 345.098 93.2999C345.498 91.5999 346.398 90.0999 347.598 88.7999C348.198 88.1999 348.898 87.4999 349.698 87.2999C350.598 86.9999 351.598 87.1999 352.498 87.4999C353.998 87.9999 355.298 88.8999 356.398 89.9999C358.598 92.2999 359.698 95.4999 359.098 98.5999C358.798 100.2 358.198 101.8 357.098 103.2C355.998 104.7 354.398 105.7 352.998 106.9C350.298 109.2 348.698 112.4 348.198 115.9C347.598 119.8 348.198 123.6 349.498 127.3C350.098 129.2 350.898 131 351.698 132.8C351.898 133.2 352.498 133.3 352.898 133.1C353.298 132.8 353.398 132.4 353.198 131.9C351.398 127.9 349.798 123.7 349.698 119.3C349.598 115.6 350.598 111.8 353.198 109.1C354.598 107.6 356.398 106.5 357.798 105C359.098 103.6 359.998 101.9 360.498 99.9999C361.498 96.1999 360.598 92.2999 358.098 89.3999C356.898 87.9999 355.498 86.8999 353.798 86.1999C352.798 85.7999 351.798 85.3999 350.698 85.3999C349.498 85.3999 348.498 85.7999 347.598 86.4999C345.998 87.7999 344.798 89.4999 343.998 91.3999C343.198 93.2999 342.798 95.6999 344.198 97.3999C345.398 98.8999 347.698 99.2999 349.098 97.7999C350.598 96.0999 350.098 93.7999 349.098 91.9999C348.598 90.9999 347.998 90.0999 347.298 89.1999C346.698 88.2999 346.098 87.4999 345.298 86.6999C344.598 85.9999 343.698 85.3999 342.598 85.2999C341.498 85.0999 340.398 85.2999 339.398 85.6999C335.798 86.8999 332.398 89.7999 332.198 93.8999C332.098 95.7999 332.898 97.6999 334.398 98.8999C336.098 100.2 338.298 99.6999 339.598 97.9999C340.798 96.3999 340.598 94.1999 339.598 92.4999C338.598 90.8999 336.998 89.6999 335.198 89.0999C331.798 87.8999 327.698 88.7999 325.298 91.5999C322.898 94.2999 321.998 98.3999 323.398 101.7C324.098 103.5 325.698 105.1 327.798 104.9C328.798 104.8 329.698 104.3 330.098 103.4C330.598 102.5 330.598 101.5 330.298 100.6C329.798 98.7999 328.698 97.0999 327.398 95.6999C326.198 94.3999 324.698 93.0999 322.898 92.8999C319.098 92.2999 315.598 95.3999 313.998 98.4999C312.298 101.7 311.998 105.5 313.298 108.9C314.598 112.3 317.198 115.2 320.498 116.9C322.198 117.8 323.998 118.2 325.898 118.6C327.698 119 329.598 119.3 331.298 120.1C333.098 121 334.498 122.4 335.598 124.1C336.798 125.9 337.798 127.8 338.698 129.8C339.498 131.7 340.198 133.7 340.698 135.7C340.798 136.7 342.498 136.3 342.198 135.2Z" fill="#0054A6"/>
<path opacity="0.04" d="M293.203 101.4C293.303 101.8 293.503 102.1 293.603 102.5C303.403 127.9 325.003 124.8 328.103 126.8C331.203 128.9 331.803 137.8 331.803 137.8L359.703 130.3C359.703 130.3 358.003 126.5 356.703 121.1C355.403 115.7 365.103 115.9 372.203 104C374.703 99.7 375.703 91.4 374.303 82.5C346.503 127.9 310.603 112.9 293.203 101.4Z" fill="#89AAC9"/>
<path d="M329.602 134.8L360.102 126C360.102 126 367.102 144.8 365.402 148.5C363.302 153.1 340.502 159.4 336.302 155.4C332.202 151.4 329.602 134.8 329.602 134.8Z" fill="#0054A6"/>
<path opacity="0.16" d="M365.203 142.5C357.303 145.4 342.703 149.6 334.203 152C334.803 153.3 335.503 154.5 336.203 155.3C345.603 152.7 358.703 148.2 365.703 145.8C365.603 144.8 365.403 143.7 365.203 142.5Z" fill="white"/>
<path opacity="0.16" d="M331.398 143.7C331.798 145.1 332.198 146.6 332.598 148C341.898 146.2 356.898 141.4 364.198 139C363.898 137.8 363.498 136.6 363.198 135.4C354.698 138.5 338.998 142 331.398 143.7Z" fill="white"/>
<path opacity="0.16" d="M330.102 137.6C330.302 138.4 330.502 139.4 330.702 140.4C339.002 139.3 354.902 134.5 362.302 132.1C361.902 130.9 361.502 129.8 361.202 128.8C352.002 132.4 336.202 136.2 330.102 137.6Z" fill="white"/>
<path d="M610.003 75.0999L597.603 59.2999L590.703 78.1999L610.003 75.0999Z" fill="#C9DEF2"/>
<path d="M528.397 237.1L519.097 234.1C514.597 232.6 511.697 228.3 512.097 223.6L512.897 213.9C513.197 210.2 511.497 206.7 508.397 204.6L500.797 199.5L493.197 194.4C490.097 192.3 486.197 192.1 482.897 193.8L474.197 198.2C469.997 200.3 464.897 199.3 461.797 195.7L455.497 188.3C453.097 185.5 449.397 184.2 445.797 184.9L427.797 188.4C424.197 189.1 421.197 191.7 420.097 195.2L417.097 204.5C415.597 209 411.297 211.9 406.597 211.5L396.897 210.7C393.197 210.4 389.697 212.1 387.597 215.2L377.397 230.4C375.297 233.5 375.097 237.4 376.797 240.7L381.197 249.4C383.297 253.6 382.297 258.7 378.697 261.8L371.297 268.1C368.497 270.5 367.197 274.2 367.897 277.8L371.397 295.8C372.097 299.4 374.697 302.4 378.197 303.5L387.497 306.5C391.997 308 394.897 312.3 394.497 317L393.697 326.7C393.397 330.4 395.097 333.9 398.197 336L405.797 341.1L413.397 346.2C416.497 348.3 420.397 348.5 423.697 346.8L432.397 342.4C436.597 340.3 441.697 341.3 444.797 344.9L451.097 352.3C453.497 355.1 457.197 356.4 460.797 355.7L478.797 352.2C482.397 351.5 485.397 348.9 486.497 345.4L489.497 336.1C490.997 331.6 495.297 328.7 499.997 329.1L509.697 329.9C513.397 330.2 516.897 328.5 518.997 325.4L524.097 317.8L529.197 310.2C531.297 307.1 531.497 303.2 529.797 299.9L525.397 291.2C523.297 287 524.297 281.9 527.897 278.8L535.297 272.5C538.097 270.1 539.397 266.4 538.697 262.8L535.197 244.8C534.497 241.2 531.897 238.3 528.397 237.1ZM460.797 308C440.297 312 420.397 298.7 416.397 278.2C412.397 257.7 425.697 237.8 446.197 233.7C466.697 229.7 486.597 243 490.697 263.5C494.597 284 481.297 304 460.797 308Z" fill="#0054A6"/>
</svg>
