<svg width="50" height="50" viewBox="0 0 50 50" fill="none" xmlns="http://www.w3.org/2000/svg">
<g clip-path="url(#clip0_9995_61256)">
<path d="M42.7004 16.1001C40.0004 16.1001 37.9004 18.3001 37.9004 20.9001C37.9004 23.5001 40.1004 25.7001 42.7004 25.7001C45.3004 25.7001 47.5004 23.5001 47.5004 20.9001C47.5004 18.3001 45.4004 16.1001 42.7004 16.1001Z" fill="#FDD1A3"/>
<path d="M50.0004 32.9001C49.9004 29.0001 46.7004 25.8 42.7004 25.8C38.7004 25.8 35.4004 29.1 35.4004 33.1C35.4004 33.5 35.8004 33.9001 36.2004 33.9001H49.1004C49.5004 33.9001 49.9004 33.5 49.9004 33.1C50.0004 33 50.0004 32.9001 50.0004 32.9001Z" fill="#002548"/>
<path d="M26.9 21.6H20.4C20 21.2 19.8 21 19.5 20.7V14.2L20.4 13.3H26.9V21.6Z" fill="#829198"/>
<path d="M26.9 38.3H20.4C20 37.9 19.8 37.7 19.5 37.4V30.9L20.4 30H26.9V38.3Z" fill="#829198"/>
<path d="M20.4 38.2999H12.5C5.6 38.2999 0 32.7 0 25.7C0 18.7 5.6 13.2 12.5 13.2H20.4V21.6H12.5C10.2 21.6 8.3 23.5 8.3 25.8C8.3 28.1 10.2 30 12.5 30H20.4V38.2999Z" fill="#EC1C24"/>
<path d="M36 27.1L29.9 26.6V28.5L21 24.5L27.1 25V23.2L36 27.1Z" fill="#FFDC33"/>
<path d="M12.5 38.2999H20.4V29.9H12.5C10.2 29.9 8.3 28 8.3 25.7H0C0 32.7 5.6 38.2999 12.5 38.2999Z" fill="#0054A5"/>
</g>
<defs>
<clipPath id="clip0_9995_61256">
<rect width="50" height="50" fill="white"/>
</clipPath>
</defs>
</svg>
