<svg width="603" height="603" viewBox="0 0 603 603" fill="none" xmlns="http://www.w3.org/2000/svg">
<path d="M370.664 603H232.336C222.838 603 215.143 595.304 215.143 585.807V552.913C215.143 543.416 222.838 535.72 232.336 535.72H370.664C380.161 535.72 387.857 543.416 387.857 552.913V585.807C387.857 595.304 380.154 603 370.664 603Z" fill="#253E59"/>
<path d="M301.499 519.831C424.391 519.831 524.014 420.208 524.014 297.317C524.014 174.425 424.391 74.8022 301.499 74.8022C178.608 74.8022 78.9847 174.425 78.9847 297.317C78.9847 420.208 178.608 519.831 301.499 519.831Z" fill="#5E5F66"/>
<path d="M215.146 465.855C226.319 465.855 235.376 456.798 235.376 445.624C235.376 434.451 226.319 425.394 215.146 425.394C203.973 425.394 194.915 434.451 194.915 445.624C194.915 456.798 203.973 465.855 215.146 465.855Z" fill="#FFDABD"/>
<path d="M387.855 465.855C399.028 465.855 408.085 456.798 408.085 445.624C408.085 434.451 399.028 425.394 387.855 425.394C376.681 425.394 367.624 434.451 367.624 445.624C367.624 456.798 376.681 465.855 387.855 465.855Z" fill="#FFDABD"/>
<path d="M361.604 556.629H241.395C213.899 556.629 191.535 534.258 191.535 506.769V444.238H238.75V506.769C238.75 508.223 239.933 509.414 241.395 509.414H361.604C363.058 509.414 364.249 508.231 364.249 506.769V444.238H411.464V506.769C411.464 534.265 389.093 556.629 361.604 556.629Z" fill="#75A330"/>
<path d="M301.498 569.36C329.368 569.36 351.961 546.767 351.961 518.897C351.961 491.026 329.368 468.433 301.498 468.433C273.627 468.433 251.034 491.026 251.034 518.897C251.034 546.767 273.627 569.36 301.498 569.36Z" fill="#2B2F33"/>
<path d="M232.336 0H370.664C380.161 0 387.857 7.69579 387.857 17.193V50.0867C387.857 59.5839 380.161 67.2797 370.664 67.2797H232.336C222.838 67.2797 215.143 59.5839 215.143 50.0867V17.193C215.143 7.69579 222.838 0 232.336 0Z" fill="#253E59"/>
<path d="M387.855 177.606C399.028 177.606 408.085 168.548 408.085 157.375C408.085 146.202 399.028 137.145 387.855 137.145C376.681 137.145 367.624 146.202 367.624 157.375C367.624 168.548 376.681 177.606 387.855 177.606Z" fill="#FFDABD"/>
<path d="M215.146 177.606C226.319 177.606 235.376 168.548 235.376 157.375C235.376 146.202 226.319 137.145 215.146 137.145C203.973 137.145 194.915 146.202 194.915 157.375C194.915 168.548 203.973 177.606 215.146 177.606Z" fill="#FFDABD"/>
<path d="M411.464 158.762H364.249V96.2311C364.249 94.7764 363.066 93.5855 361.604 93.5855H241.395C239.933 93.5855 238.75 94.7689 238.75 96.2311V158.762H191.535V96.2311C191.535 68.7343 213.906 46.3706 241.395 46.3706H361.604C389.1 46.3706 411.464 68.7419 411.464 96.2311V158.762Z" fill="#FFCA00"/>
<path d="M301.498 134.567C329.368 134.567 351.961 111.974 351.961 84.1035C351.961 56.2332 329.368 33.6399 301.498 33.6399C273.627 33.6399 251.034 56.2332 251.034 84.1035C251.034 111.974 273.627 134.567 301.498 134.567Z" fill="#694528"/>
<path d="M603.002 232.336V370.664C603.002 380.161 595.306 387.857 585.809 387.857H552.915C543.418 387.857 535.722 380.161 535.722 370.664V232.336C535.722 222.839 543.418 215.143 552.915 215.143H585.809C595.306 215.143 603.002 222.839 603.002 232.336Z" fill="#253E59"/>
<path d="M445.622 408.088C456.795 408.088 465.853 399.03 465.853 387.857C465.853 376.684 456.795 367.626 445.622 367.626C434.449 367.626 425.392 376.684 425.392 387.857C425.392 399.03 434.449 408.088 445.622 408.088Z" fill="#FFDABD"/>
<path d="M445.622 235.374C456.795 235.374 465.853 226.316 465.853 215.143C465.853 203.97 456.795 194.912 445.622 194.912C434.449 194.912 425.392 203.97 425.392 215.143C425.392 226.316 434.449 235.374 445.622 235.374Z" fill="#FFDABD"/>
<path d="M556.627 241.396V361.604C556.627 389.101 534.256 411.465 506.767 411.465H444.235V364.25H506.767C508.221 364.25 509.412 363.066 509.412 361.604V241.396C509.412 239.941 508.229 238.75 506.767 238.75H444.235V191.535H506.767C534.263 191.535 556.627 213.907 556.627 241.396Z" fill="#C22222"/>
<path d="M518.896 351.963C546.766 351.963 569.359 329.37 569.359 301.5C569.359 273.63 546.766 251.036 518.896 251.036C491.025 251.036 468.432 273.63 468.432 301.5C468.432 329.37 491.025 351.963 518.896 351.963Z" fill="#2B2F33"/>
<path d="M0 370.664V232.336C0 222.839 7.69579 215.143 17.193 215.143H50.0867C59.5839 215.143 67.2797 222.839 67.2797 232.336V370.664C67.2797 380.161 59.5839 387.857 50.0867 387.857H17.193C7.69579 387.857 0 380.161 0 370.664Z" fill="#253E59"/>
<path d="M177.324 218.515C179.187 207.499 171.767 197.058 160.751 195.194C149.734 193.331 139.293 200.751 137.43 211.768C135.566 222.784 142.986 233.226 154.003 235.089C165.02 236.952 175.461 229.532 177.324 218.515Z" fill="#FFDABD"/>
<path d="M177.365 391.146C179.155 380.117 171.666 369.725 160.637 367.935C149.609 366.145 139.217 373.634 137.427 384.663C135.636 395.691 143.126 406.083 154.154 407.873C165.183 409.664 175.575 402.174 177.365 391.146Z" fill="#FFDABD"/>
<path d="M158.765 191.535V238.75H96.2338C94.7791 238.75 93.5882 239.934 93.5882 241.396V361.604C93.5882 363.059 94.7716 364.25 96.2338 364.25H158.765V411.465H96.2338C68.737 411.465 46.3733 389.093 46.3733 361.604V241.396C46.3733 213.899 68.7446 191.535 96.2338 191.535H158.765Z" fill="#4A7CB5"/>
<path d="M84.1055 351.963C111.976 351.963 134.569 329.37 134.569 301.5C134.569 273.63 111.976 251.036 84.1055 251.036C56.2353 251.036 33.642 273.63 33.642 301.5C33.642 329.37 56.2353 351.963 84.1055 351.963Z" fill="#FFDABD"/>
</svg>
