<svg width="50" height="50" viewBox="0 0 50 50" fill="none" xmlns="http://www.w3.org/2000/svg">
<g clip-path="url(#clip0_5349_17359)">
<path d="M32.7305 27.44V29.24C32.7305 29.42 32.6905 29.6 32.6005 29.75L31.2805 32.22V33.88C31.2805 34.47 30.8005 34.95 30.2105 34.95H21.7205C21.1305 34.95 20.6505 34.47 20.6505 33.88V32.04L19.0405 30.02C18.8905 29.83 18.8105 29.59 18.8105 29.35V26.54C18.8105 25.09 19.8505 23.87 21.2205 23.6V18.05C21.2205 16.4 21.5705 15.05 23.2305 15.05C24.8805 15.05 25.0005 16.4 25.0005 18.05V22L29.7305 22.98C31.5505 23.73 32.7305 25.48 32.7305 27.44Z" fill="#839299"/>
<path d="M28.9693 3.97C28.9693 5.78 27.7393 7.32 26.0693 7.79V10.72C26.0693 11.32 25.5893 11.8 24.9993 11.8C24.4093 11.8 23.9293 11.32 23.9293 10.72V7.79C22.2593 7.32 21.0293 5.78 21.0293 3.97C21.0293 1.78 22.8093 0 24.9993 0C27.1893 0 28.9693 1.78 28.9693 3.97Z" fill="#002548"/>
<path d="M15.6595 15.66C15.4495 15.87 15.1795 15.98 14.8995 15.98C14.6295 15.98 14.3495 15.87 14.1395 15.66L12.0695 13.59C11.4695 13.93 10.7995 14.09 10.1295 14.09C9.10953 14.09 8.09953 13.71 7.31953 12.93C5.79953 11.41 5.78953 8.84998 7.31953 7.31998C8.86953 5.77998 11.3895 5.77998 12.9295 7.31998C13.6695 8.05998 14.0995 9.09998 14.0995 10.13C14.0995 10.82 13.9195 11.49 13.5895 12.07L15.6595 14.14C16.0795 14.56 16.0795 15.24 15.6595 15.66Z" fill="#002548"/>
<path d="M11.8 25C11.8 25.59 11.32 26.07 10.72 26.07H7.79C7.32 27.74 5.78 28.97 3.97 28.97C1.78 28.97 0 27.19 0 25C0 22.81 1.78 21.03 3.97 21.03C5.78 21.03 7.32 22.26 7.79 23.93H10.72C11.32 23.93 11.8 24.41 11.8 25Z" fill="#002548"/>
<path d="M15.6602 35.86L13.5902 37.93C13.9202 38.51 14.1002 39.18 14.1002 39.87C14.1002 40.93 13.6802 41.93 12.9302 42.68C12.1602 43.45 11.1402 43.84 10.1302 43.84C9.11016 43.84 8.10016 43.45 7.32016 42.68C6.57016 41.93 6.16016 40.93 6.16016 39.87C6.16016 38.81 6.57016 37.82 7.32016 37.07C8.61016 35.78 10.5602 35.56 12.0702 36.41L14.1402 34.34C14.5602 33.92 15.2402 33.92 15.6602 34.34C16.0802 34.76 16.0802 35.44 15.6602 35.86Z" fill="#002548"/>
<path d="M28.9693 46.03C28.9693 48.22 27.1893 50 24.9993 50C22.8093 50 21.0293 48.22 21.0293 46.03C21.0293 44.22 22.2593 42.68 23.9293 42.21V39.28C23.9293 38.68 24.4093 38.2 24.9993 38.2C25.5893 38.2 26.0693 38.68 26.0693 39.28V42.21C27.7393 42.68 28.9693 44.22 28.9693 46.03Z" fill="#002548"/>
<path d="M43.8404 39.87C43.8404 42 42.0104 43.84 39.8704 43.84C37.7504 43.84 35.9004 42.01 35.9004 39.87C35.9004 39.18 36.0804 38.51 36.4104 37.93L34.3404 35.86C33.9204 35.44 33.9204 34.76 34.3404 34.34C34.7604 33.92 35.4404 33.92 35.8604 34.34L37.9304 36.41C39.4404 35.56 41.3904 35.78 42.6804 37.07C43.4304 37.82 43.8404 38.81 43.8404 39.87Z" fill="#002548"/>
<path d="M49.9992 25C49.9992 27.19 48.2192 28.97 46.0292 28.97C44.2192 28.97 42.6792 27.74 42.2092 26.07H39.2792C38.6792 26.07 38.1992 25.59 38.1992 25C38.1992 24.41 38.6792 23.93 39.2792 23.93H42.2092C42.6792 22.26 44.2192 21.03 46.0292 21.03C48.2192 21.03 49.9992 22.81 49.9992 25Z" fill="#002548"/>
<path d="M43.8404 10.13C43.8404 11.19 43.4304 12.18 42.6804 12.93C41.9004 13.71 40.8904 14.09 39.8704 14.09C39.2004 14.09 38.5304 13.93 37.9304 13.59L35.8604 15.66C35.6504 15.87 35.3704 15.98 35.1004 15.98C34.8204 15.98 34.5504 15.87 34.3404 15.66C33.9204 15.24 33.9204 14.56 34.3404 14.14L36.4104 12.07C36.0804 11.49 35.9004 10.82 35.9004 10.13C35.9004 9.06998 36.3204 8.06998 37.0704 7.31998C38.6104 5.77998 41.1304 5.77998 42.6804 7.31998C43.4304 8.06998 43.8404 9.06998 43.8404 10.13Z" fill="#002548"/>
</g>
<defs>
<clipPath id="clip0_5349_17359">
<rect width="50" height="50" fill="white"/>
</clipPath>
</defs>
</svg>
