<svg width="50" height="50" viewBox="0 0 50 50" fill="none" xmlns="http://www.w3.org/2000/svg">
<g clip-path="url(#clip0_12083_17880)">
<path fill-rule="evenodd" clip-rule="evenodd" d="M42 34.3C41.5 34.3 41.1 33.9 41.1 33.4V31.1H25H8.8V33.4C8.8 33.9 8.4 34.3 7.9 34.3C7.4 34.3 7 33.9 7 33.4V30.2C7 29.7 7.4 29.3 7.9 29.3H24.1V24.3C24.1 23.8 24.5 23.4 25 23.4C25.5 23.4 25.9 23.8 25.9 24.3V29.3H42C42.5 29.3 42.9 29.7 42.9 30.2V33.4C42.9 33.9 42.5 34.3 42 34.3Z" fill="#002548"/>
<path fill-rule="evenodd" clip-rule="evenodd" d="M8 49.2999C3.6 49.2999 0 45.6999 0 41.2999C0 36.8999 3.6 33.2999 8 33.2999C12.4 33.2999 16 36.8999 16 41.2999C15.9 45.6999 12.4 49.2999 8 49.2999Z" fill="#54CC5A"/>
<path fill-rule="evenodd" clip-rule="evenodd" d="M42 49.2999C37.6 49.2999 34 45.6999 34 41.2999C34 36.8999 37.6 33.2999 42 33.2999C46.4 33.2999 50 36.8999 50 41.2999C50 45.6999 46.4 49.2999 42 49.2999Z" fill="#ED1C24"/>
<path fill-rule="evenodd" clip-rule="evenodd" d="M44.3984 44.5999C44.1984 44.5999 43.9984 44.4999 43.7984 44.2999L41.9984 42.5999L40.1984 44.3999C39.8984 44.6999 39.2984 44.6999 38.9984 44.3999C38.6984 44.0999 38.6984 43.4999 38.9984 43.1999L40.7984 41.3999L38.9984 39.5999C38.6984 39.2999 38.6984 38.6999 38.9984 38.3999C39.2984 38.0999 39.8984 38.0999 40.1984 38.3999L41.9984 40.1999L43.7984 38.3999C44.0984 38.0999 44.6984 38.0999 44.9984 38.3999C45.2984 38.6999 45.2984 39.2999 44.9984 39.5999L43.1984 41.3999L44.9984 43.1999C45.2984 43.4999 45.2984 44.0999 44.9984 44.3999C44.8984 44.4999 44.6984 44.5999 44.3984 44.5999Z" fill="#F9FAFB"/>
<path fill-rule="evenodd" clip-rule="evenodd" d="M6.99844 44.1C6.79844 44.1 6.59844 44 6.39844 43.8L4.49844 42C4.19844 41.7 4.19844 41.1 4.49844 40.8C4.79844 40.5 5.39844 40.5 5.69844 40.8L6.99844 42L10.0984 38.8C10.3984 38.5 10.9984 38.5 11.2984 38.8C11.5984 39.1 11.5984 39.7 11.2984 40L7.49844 43.8C7.49844 44 7.29844 44.1 6.99844 44.1Z" fill="#F9FAFB"/>
<path fill-rule="evenodd" clip-rule="evenodd" d="M36.5016 25.1H13.5016C13.0016 25.1 12.6016 24.7 12.6016 24.2C12.6016 17.4 18.1016 11.9 24.9016 11.9C31.7016 11.9 37.2016 17.4 37.2016 24.2C37.3016 24.7 37.0016 25.1 36.5016 25.1Z" fill="#0054A6"/>
<path fill-rule="evenodd" clip-rule="evenodd" d="M25 13.6C21.4 13.6 18.5 10.7 18.5 7.09998C18.5 3.49998 21.4 0.599976 25 0.599976C28.6 0.599976 31.5 3.49998 31.5 7.09998C31.5 10.7 28.6 13.6 25 13.6Z" fill="#FFBD86"/>
<path d="M45.3969 17.7L44.3969 17.5C44.2969 17 43.9969 16.5 43.7969 16L44.2969 15.1C44.3969 14.9 44.3969 14.5 44.1969 14.3L43.0969 13.2C42.8969 13 42.5969 13 42.2969 13.1L41.3969 13.6C40.8969 13.3 40.3969 13.1 39.8969 13L39.6969 12C39.5969 11.7 39.3969 11.5 39.0969 11.5H37.5969C37.2969 11.5 37.0969 11.7 36.9969 12L36.7969 13C36.2969 13.1 35.7969 13.4 35.2969 13.6L34.3969 13.1C34.1969 13 33.7969 13 33.5969 13.2L32.4969 14.3C32.2969 14.5 32.2969 14.8 32.3969 15.1L32.8969 16C32.5969 16.5 32.3969 17 32.2969 17.5L31.2969 17.7C30.9969 17.8 30.7969 18 30.7969 18.3V19.8C30.7969 20.1 30.9969 20.3 31.2969 20.4L32.2969 20.6C32.3969 21.1 32.6969 21.6 32.8969 22.1L32.4969 23C32.3969 23.2 32.3969 23.6 32.5969 23.8L33.6969 24.9C33.8969 25.1 34.1969 25.1 34.4969 25L35.3969 24.5C35.8969 24.8 36.3969 25 36.8969 25.1L37.0969 26.1C37.1969 26.4 37.3969 26.6 37.6969 26.6H39.1969C39.4969 26.6 39.6969 26.4 39.7969 26.1L39.9969 25.1C40.4969 25 40.9969 24.7 41.4969 24.5L42.3969 25C42.5969 25.1 42.9969 25.1 43.1969 24.9L44.2969 23.8C44.4969 23.6 44.4969 23.3 44.3969 23L43.8969 22.1C44.1969 21.6 44.3969 21.1 44.4969 20.6L45.4969 20.4C45.7969 20.3 45.9969 20.1 45.9969 19.8V18.3C45.8969 18 45.6969 17.7 45.3969 17.7ZM38.3969 22.8C36.2969 22.8 34.6969 21.1 34.6969 19.1C34.6969 17 36.3969 15.4 38.3969 15.4C40.4969 15.4 42.0969 17.1 42.0969 19.1C42.1969 21.1 40.4969 22.8 38.3969 22.8Z" fill="#839299"/>
</g>
<defs>
<clipPath id="clip0_12083_17880">
<rect width="50" height="50" fill="white"/>
</clipPath>
</defs>
</svg>
