<svg width="64" height="64" viewBox="0 0 64 64" fill="none" xmlns="http://www.w3.org/2000/svg">
<g clip-path="url(#clip0_5442_9902)">
<path d="M44.9102 44.33L48.1202 41.12L52.9702 45.97L49.7602 49.18L44.9102 44.33Z" fill="#FFDD33"/>
<g opacity="0.19">
<path d="M44.9102 44.33L48.1202 41.12L52.9702 45.97L49.7602 49.18L44.9102 44.33Z" fill="#2D2F31"/>
</g>
<path d="M42.3501 62H5.1001C3.5801 62 2.3501 60.77 2.3501 59.25V7.5C2.3501 5.98 3.5801 4.75 5.1001 4.75H42.3501C43.8701 4.75 45.1001 5.98 45.1001 7.5V59.25C45.1001 60.77 43.8701 62 42.3501 62Z" fill="#0054A6"/>
<path d="M40.54 58.16H6.92C6.41 58.16 6 57.75 6 57.25V9.50997C6 8.99997 6.41 8.58997 6.92 8.58997H40.54C41.05 8.58997 41.46 8.99997 41.46 9.50997V57.25C41.45 57.75 41.04 58.16 40.54 58.16Z" fill="#D2D9DC"/>
<g opacity="0.19">
<path d="M40.54 8.58997H39.99V55.78C39.99 56.29 39.58 56.7 39.07 56.7H6V57.25C6 57.76 6.41 58.17 6.92 58.17H40.54C41.05 58.17 41.46 57.76 41.46 57.25V9.50997C41.45 8.99997 41.04 8.58997 40.54 8.58997Z" fill="#2D2F31"/>
</g>
<path d="M27.96 2.93H26.2V2.23C26.2 0.87 25.09 -0.24 23.73 -0.24C22.37 -0.24 21.26 0.87 21.26 2.23V2.93H19.5V2.23C19.5 -0.0999999 21.39 -2 23.73 -2C26.07 -2 27.96 -0.0999999 27.96 2.23V2.93Z" fill="#002548"/>
<path d="M34.7399 13.6701H12.7099C12.3799 13.6701 12.1099 13.4001 12.1099 13.0701V3.53005C12.1099 3.20005 12.3799 2.93005 12.7099 2.93005H34.7399C35.0699 2.93005 35.3399 3.20005 35.3399 3.53005V13.0701C35.3499 13.4001 35.0799 13.6701 34.7399 13.6701Z" fill="#002548"/>
<g opacity="0.19">
<path d="M33.2302 9.03003H14.2302C13.9302 9.03003 13.6802 9.28003 13.6802 9.58003V11.46C13.6802 11.76 13.9302 12.01 14.2302 12.01H33.2302C33.5302 12.01 33.7802 11.76 33.7802 11.46V9.58003C33.7802 9.27003 33.5302 9.03003 33.2302 9.03003Z" fill="#F9FAFB"/>
</g>
<path d="M19.7799 21.11H10.9199C10.5099 21.11 10.1899 20.78 10.1899 20.38C10.1899 19.98 10.5199 19.65 10.9199 19.65H19.7799C20.1899 19.65 20.5099 19.98 20.5099 20.38C20.5099 20.78 20.1899 21.11 19.7799 21.11Z" fill="#839299"/>
<path d="M34.9497 27.11H10.9297C10.5197 27.11 10.1997 26.78 10.1997 26.38C10.1997 25.98 10.5297 25.65 10.9297 25.65H34.9497C35.3597 25.65 35.6797 25.98 35.6797 26.38C35.6797 26.78 35.3497 27.11 34.9497 27.11Z" fill="#839299"/>
<path d="M34.9497 31.3901H10.9297C10.5197 31.3901 10.1997 31.0601 10.1997 30.6601C10.1997 30.2601 10.5297 29.9301 10.9297 29.9301H34.9497C35.3597 29.9301 35.6797 30.2601 35.6797 30.6601C35.6797 31.0601 35.3497 31.3901 34.9497 31.3901Z" fill="#839299"/>
<path d="M34.9497 35.6701H10.9297C10.5197 35.6701 10.1997 35.3401 10.1997 34.9401C10.1997 34.5401 10.5297 34.2101 10.9297 34.2101H34.9497C35.3597 34.2101 35.6797 34.5401 35.6797 34.9401C35.6797 35.3401 35.3497 35.6701 34.9497 35.6701Z" fill="#839299"/>
<path d="M34.9497 39.95H10.9297C10.5197 39.95 10.1997 39.62 10.1997 39.22C10.1997 38.82 10.5297 38.49 10.9297 38.49H34.9497C35.3597 38.49 35.6797 38.82 35.6797 39.22C35.6797 39.62 35.3497 39.95 34.9497 39.95Z" fill="#839299"/>
<path d="M34.9497 44.23H10.9297C10.5197 44.23 10.1997 43.9 10.1997 43.5C10.1997 43.1 10.5297 42.77 10.9297 42.77H34.9497C35.3597 42.77 35.6797 43.1 35.6797 43.5C35.6797 43.9 35.3497 44.23 34.9497 44.23Z" fill="#839299"/>
<path d="M34.9497 48.5201H10.9297C10.5197 48.5201 10.1997 48.1901 10.1997 47.7901C10.1997 47.3901 10.5297 47.0601 10.9297 47.0601H34.9497C35.3597 47.0601 35.6797 47.3901 35.6797 47.7901C35.6797 48.1901 35.3497 48.5201 34.9497 48.5201Z" fill="#839299"/>
<path d="M37.1299 45.97C44.1384 45.97 49.8199 40.2885 49.8199 33.28C49.8199 26.2715 44.1384 20.59 37.1299 20.59C30.1214 20.59 24.4399 26.2715 24.4399 33.28C24.4399 40.2885 30.1214 45.97 37.1299 45.97Z" fill="#D2D9DC"/>
<path d="M61.39 52.77L53.73 45.11C53.39 44.77 52.83 44.77 52.49 45.11L48.92 48.68C48.58 49.02 48.58 49.58 48.92 49.92L56.58 57.58C56.92 57.92 57.48 57.92 57.82 57.58L61.39 54.01C61.73 53.67 61.73 53.12 61.39 52.77Z" fill="#FFDD33"/>
<path d="M21.4302 33.32C21.4302 41.99 28.4602 49.02 37.1302 49.02C45.8002 49.02 52.8302 41.99 52.8302 33.32C52.8302 24.65 45.8002 17.62 37.1302 17.62C28.4602 17.62 21.4302 24.65 21.4302 33.32ZM24.4302 33.32C24.4302 26.31 30.1102 20.63 37.1202 20.63C44.1302 20.63 49.8102 26.31 49.8102 33.32C49.8102 40.33 44.1302 46.01 37.1202 46.01C30.1102 46.01 24.4302 40.32 24.4302 33.32Z" fill="#FFDD33"/>
<path d="M37.1201 26.59C33.3701 26.59 30.3301 29.63 30.3301 33.38C30.3301 37.13 33.3701 40.17 37.1201 40.17C40.8701 40.17 43.9101 37.13 43.9101 33.38C43.9101 29.63 40.8701 26.59 37.1201 26.59ZM37.1201 37.02C35.1101 37.02 33.4801 35.39 33.4801 33.38C33.4801 31.37 35.1101 29.74 37.1201 29.74C39.1301 29.74 40.7601 31.37 40.7601 33.38C40.7601 35.39 39.1301 37.02 37.1201 37.02Z" fill="#839299"/>
<path d="M43.7297 31.8399L45.3797 30.3799C45.6297 30.1599 45.6897 29.7999 45.5197 29.5099L44.6397 27.9899C44.4697 27.6999 44.1297 27.5699 43.8197 27.6799L41.7197 28.3899C42.6997 29.2899 43.4197 30.4899 43.7297 31.8399Z" fill="#839299"/>
<path d="M28.8599 30.3799L30.5099 31.8399C30.8199 30.4899 31.5399 29.2999 32.5199 28.3899L30.4199 27.6799C30.1099 27.5699 29.7599 27.6999 29.5999 27.9899L28.7199 29.5099C28.5499 29.7999 28.6099 30.1599 28.8599 30.3799Z" fill="#839299"/>
<path d="M37.1199 26.59C37.8099 26.59 38.4799 26.69 39.1099 26.89L38.6799 24.77C38.6099 24.45 38.3299 24.21 37.9999 24.21H36.2399C35.9099 24.21 35.6199 24.44 35.5599 24.77L35.1299 26.89C35.7599 26.7 36.4299 26.59 37.1199 26.59Z" fill="#839299"/>
<path d="M45.3298 36.28L43.7398 34.88C43.4398 36.22 42.7398 37.4 41.7798 38.31L43.7698 38.98C44.0798 39.09 44.4298 38.96 44.5898 38.67L45.4698 37.15C45.6298 36.87 45.5798 36.5 45.3298 36.28Z" fill="#839299"/>
<path d="M37.1199 40.16C36.4299 40.16 35.7599 40.06 35.1299 39.86L35.5599 41.98C35.6299 42.3 35.9099 42.54 36.2399 42.54H37.9999C38.3299 42.54 38.6199 42.31 38.6799 41.98L39.1099 39.86C38.4799 40.06 37.8099 40.16 37.1199 40.16Z" fill="#839299"/>
<path d="M30.4997 34.88L28.9097 36.28C28.6597 36.5 28.5997 36.86 28.7697 37.15L29.6497 38.67C29.8197 38.96 30.1597 39.09 30.4697 38.98L32.4597 38.31C31.4997 37.41 30.8097 36.22 30.4997 34.88Z" fill="#839299"/>
</g>
<defs>
<clipPath id="clip0_5442_9902">
<rect width="64" height="64" fill="white"/>
</clipPath>
</defs>
</svg>
