<svg width="98" height="84" viewBox="0 0 98 84" fill="none" xmlns="http://www.w3.org/2000/svg">
<g clip-path="url(#clip0_642_7064)">
<path d="M93.9824 31.2172H81.3333C81.5947 28.3897 82.0114 25.5788 82.5815 22.7976L82.6121 22.6632V21.3696L81.9574 21C77.2604 18.3488 73.7143 14.0345 72.0108 8.89836L71.7155 8.01636H26.2817L26.0031 8.89836C24.3047 14.0119 20.7809 18.3114 16.1123 20.9664L15.2765 21.4396L15.4854 22.372C16.1088 25.2906 16.5563 28.2443 16.8256 31.2172H4.01763L0 35.2548V53.2L4.88691 57.2403L6.33013 56.9604C9.18872 56.4003 13.3596 55.9104 18.4332 55.5211C20.1336 62.6498 23.8622 69.1268 29.164 74.1615C34.4658 79.1963 41.1113 82.5711 48.2895 83.8739L49 83.9999L49.2201 83.9607L49.8665 83.846C57.0428 82.5463 63.6882 79.1772 68.9928 74.149C74.2974 69.1207 78.0323 62.6506 79.7424 55.5267C84.7324 55.9132 88.8419 56.3948 91.6782 56.9464L93.1215 57.2264L98 53.2V35.2548L93.9824 31.2172ZM95.4312 51.9708L92.4221 54.4627L92.1686 54.4124C89.3156 53.8524 85.2172 53.3708 80.2606 52.9816C79.434 52.9181 78.5824 52.8556 77.7057 52.794C69.5924 52.234 59.5651 51.9232 49.039 51.9232C38.5129 51.9232 28.5608 52.2368 20.4698 52.7884C19.595 52.8481 18.7424 52.9097 17.9122 52.9732C12.8692 53.368 8.71786 53.8608 5.83698 54.4264L5.58066 54.4767L2.56883 51.9876V36.3244L5.07636 33.8044H92.9181L95.4256 36.3244L95.4312 51.9708Z" fill="#1E1C55"/>
<path d="M92.2829 34.6809H6.03485L3.8728 36.8229V51.5873L6.45278 53.6901C14.1008 52.2033 30.8789 51.2429 49.2007 51.2429C67.4388 51.2429 84.1891 52.1977 91.8733 53.6761L94.4477 51.5733V36.8229L92.2829 34.6809Z" fill="#FF1C3B"/>
<path d="M29.1486 22.1873H27.5549V21.2437H31.893V22.1873H30.2993V26.2473H29.1486V22.1873Z" fill="white"/>
<path d="M36.4373 25.3177V26.2473H32.5813V21.2437H36.3454V22.1733H33.7264V23.2597H36.0389V24.1613H33.7264V25.3177H36.4373Z" fill="white"/>
<path d="M37.0977 23.7468C37.0977 22.2376 38.2511 21.1568 39.8002 21.1568C40.186 21.1406 40.5704 21.2119 40.925 21.3656C41.2795 21.5193 41.595 21.7513 41.848 22.0444L41.1097 22.7304C40.9578 22.5453 40.7666 22.3968 40.5501 22.2955C40.3337 22.1943 40.0975 22.1429 39.8587 22.1452C39.644 22.1362 39.4297 22.1709 39.2287 22.2472C39.0277 22.3236 38.8441 22.44 38.689 22.5895C38.5339 22.739 38.4105 22.9184 38.3262 23.1171C38.2419 23.3157 38.1984 23.5294 38.1984 23.7454C38.1984 23.9614 38.2419 24.1751 38.3262 24.3737C38.4105 24.5724 38.5339 24.7518 38.689 24.9013C38.8441 25.0508 39.0277 25.1672 39.2287 25.2436C39.4297 25.3199 39.644 25.3546 39.8587 25.3456C40.0981 25.3482 40.3349 25.2965 40.5515 25.1942C40.7682 25.0918 40.959 24.9417 41.1097 24.7548L41.848 25.4408C41.5954 25.7362 41.2793 25.97 40.9236 26.1247C40.5679 26.2795 40.1819 26.351 39.7947 26.334C38.2511 26.334 37.0977 25.2532 37.0977 23.7468Z" fill="white"/>
<path d="M47.2616 21.2437V26.2473H46.1081V24.1949H43.8457V26.2473H42.6951V21.2437H43.8457V23.2037H46.1081V21.2437H47.2616Z" fill="white"/>
<path d="M48.5125 21.2437H49.6631V26.2473H48.5125V21.2437Z" fill="white"/>
<path d="M55.4444 26.2473V23.2401L53.9789 25.7125H53.4606L52.0007 23.3045V26.2473H50.9197V21.2437H51.8725L53.7309 24.3601L55.567 21.2493H56.5115V26.2529L55.4444 26.2473Z" fill="#FF1C3B"/>
<path d="M62.0949 23.0581C62.0949 24.1781 61.2591 24.8669 59.9328 24.8669H58.9298V26.2473H57.7764V21.2437H59.9328C61.2618 21.2437 62.0949 21.9381 62.0949 23.0581ZM60.9275 23.0581C60.9275 22.4981 60.5737 22.1873 59.8688 22.1873H58.9298V23.9233H59.8688C60.5737 23.9233 60.9275 23.6041 60.9275 23.0581Z" fill="#FF1C3B"/>
<path d="M62.9836 21.2437H64.1343V25.3037H66.6419V26.2473H62.9836V21.2437Z" fill="#FF1C3B"/>
<path d="M69.2274 24.4749V26.2473H68.0739V24.4609L66.1487 21.2437H67.3718L68.7008 23.4669L70.0298 21.2437H71.161L69.2274 24.4749Z" fill="#FF1C3B"/>
<path d="M46.2501 57.6938C46.2501 57.6938 46.0913 61.4794 46.8825 62.9522C47.3642 63.7688 48.0328 64.458 48.8329 64.9626C48.8056 64.9714 48.7818 64.9886 48.7648 65.0117C48.7478 65.0348 48.7385 65.0627 48.7381 65.0914V65.2846C48.7381 65.3027 48.7417 65.3205 48.7485 65.3372C48.7554 65.3538 48.7654 65.3689 48.7781 65.3817C48.7908 65.3944 48.8058 65.4045 48.8224 65.4114C48.839 65.4183 48.8567 65.4218 48.8746 65.4218H48.9944V67.239L48.6573 67.8187H48.2784L47.5902 68.5214V69.6638H47.2475V69.9438H51.4268V69.6638H51.0868V68.5102L50.3708 67.8187H50.0197L49.6854 67.239V65.4218H49.7551C49.773 65.4218 49.7907 65.4183 49.8073 65.4114C49.8239 65.4045 49.8389 65.3944 49.8516 65.3817C49.8643 65.3689 49.8743 65.3538 49.8812 65.3372C49.8881 65.3205 49.8916 65.3027 49.8916 65.2846V65.0914C49.8913 65.0681 49.885 65.0453 49.8733 65.0252C49.8616 65.005 49.8448 64.9883 49.8247 64.9766C50.6253 64.4667 51.2938 63.7729 51.775 62.9522C52.4019 61.7846 52.4326 59.1554 52.4158 58.1222V57.6938" fill="#FFBD3D"/>
<path d="M47.2866 69.8798H51.3599V69.7202H51.0813C51.0673 69.7202 51.0538 69.7146 51.0439 69.7046C51.0339 69.6946 51.0284 69.6811 51.0284 69.667V68.547L50.3458 67.889H50.0142C50.0045 67.8891 49.995 67.8866 49.9866 67.8816C49.9783 67.8767 49.9714 67.8695 49.9668 67.861L49.6353 67.287C49.6312 67.2761 49.6312 67.2642 49.6353 67.2534V65.4362C49.6349 65.4289 49.636 65.4217 49.6385 65.4149C49.641 65.4082 49.6448 65.402 49.6498 65.3967C49.6547 65.3915 49.6607 65.3873 49.6673 65.3845C49.6739 65.3816 49.681 65.3802 49.6882 65.3802H49.7579C49.7793 65.3802 49.7999 65.3716 49.815 65.3564C49.8302 65.3412 49.8387 65.3205 49.8387 65.299V65.1058C49.8385 65.0918 49.8348 65.078 49.828 65.0658C49.8212 65.0536 49.8115 65.0432 49.7997 65.0358C49.7917 65.0315 49.785 65.025 49.7806 65.0171C49.7762 65.0091 49.7741 65.0001 49.7746 64.991C49.7744 64.9822 49.7763 64.9736 49.7802 64.9658C49.7841 64.9579 49.7898 64.9512 49.7969 64.9462C50.5951 64.4416 51.2633 63.7547 51.7472 62.9414C52.3657 61.7878 52.3964 59.1978 52.3824 58.1394V57.7558C50.3746 57.4408 48.3304 57.4408 46.3226 57.7558C46.3226 58.1842 46.2223 61.5834 46.9494 62.9414C47.4226 63.75 48.0818 64.4327 48.8719 64.9322C48.8811 64.9373 48.8885 64.9452 48.893 64.9547C48.8975 64.9643 48.8989 64.975 48.897 64.9854C48.8948 64.9955 48.89 65.005 48.8832 65.0128C48.8764 65.0206 48.8677 65.0266 48.858 65.0302C48.8413 65.0345 48.8265 65.0443 48.8159 65.0579C48.8053 65.0716 48.7995 65.0884 48.7994 65.1058V65.299C48.8002 65.3208 48.8093 65.3414 48.8249 65.3566C48.8405 65.3717 48.8613 65.3802 48.883 65.3802H49.0028C49.0171 65.3809 49.0306 65.3871 49.0405 65.3975C49.0503 65.4079 49.0558 65.4218 49.0558 65.4362V67.2534C49.0586 67.2625 49.0586 67.2722 49.0558 67.2814L48.7214 67.861C48.7164 67.8692 48.7095 67.876 48.7012 67.8809C48.693 67.8858 48.6836 67.8886 48.6741 67.889H48.284L47.6265 68.5582V69.6782C47.6258 69.6921 47.62 69.7052 47.6102 69.715C47.6004 69.7249 47.5874 69.7307 47.5735 69.7314H47.2949L47.2866 69.8798Z" fill="#FFBD3D"/>
<path d="M54.132 58.0133C53.9902 57.9494 53.8369 57.915 53.6815 57.9123C53.5261 57.9096 53.3717 57.9385 53.2277 57.9974C53.0837 58.0563 52.9531 58.1438 52.8437 58.2549C52.7343 58.3659 52.6485 58.498 52.5913 58.6433C52.5349 58.776 52.5058 58.9189 52.5058 59.0633C52.5058 59.2076 52.5349 59.3505 52.5913 59.4833C52.6453 59.6 52.7226 59.7042 52.8185 59.7895C52.9144 59.8748 53.0267 59.9392 53.1485 59.9789C53.1668 59.9854 53.1862 59.9883 53.2056 59.9871C53.225 59.986 53.2439 59.981 53.2613 59.9724C53.2787 59.9638 53.2943 59.9517 53.307 59.937C53.3196 59.9222 53.3292 59.905 53.3352 59.8865C53.3476 59.8493 53.3449 59.8088 53.3277 59.7736C53.3105 59.7385 53.2801 59.7116 53.2433 59.6989C53.0939 59.6519 52.9663 59.5525 52.8839 59.4189C52.8551 59.317 52.8447 59.2108 52.8532 59.1053C52.8556 59.0572 52.8621 59.0094 52.8727 58.9625C52.919 58.8233 53.0082 58.7026 53.1275 58.618C53.2468 58.5334 53.3898 58.4893 53.5358 58.4921C53.7048 58.5067 53.8639 58.5783 53.9873 58.6952C54.1107 58.8121 54.1911 58.9674 54.2156 59.1361C54.3117 59.5209 54.3002 59.925 54.1822 60.3037C53.9088 60.8086 53.5352 61.2517 53.0845 61.6057L52.8532 61.7961L52.6665 61.9361C52.374 62.1126 52.1373 62.3689 51.9839 62.6753C51.9331 62.8032 51.911 62.9407 51.9191 63.0782C51.9273 63.2157 51.9656 63.3496 52.0313 63.4705C52.0943 63.5917 52.1886 63.6936 52.3043 63.7655C52.42 63.8374 52.5528 63.8767 52.6888 63.8793C52.7731 63.8805 52.857 63.8673 52.9368 63.8401C53.2656 63.7225 53.5525 63.4089 53.4355 63.0561C53.4313 63.0356 53.4228 63.0162 53.4106 62.9993C53.3984 62.9823 53.3828 62.9681 53.3648 62.9577C53.3468 62.9472 53.3267 62.9407 53.306 62.9385C53.2853 62.9364 53.2644 62.9387 53.2446 62.9452C53.2249 62.9518 53.2067 62.9625 53.1913 62.9766C53.176 62.9907 53.1637 63.0079 53.1554 63.0271C53.1472 63.0463 53.143 63.067 53.1433 63.0879C53.1435 63.1089 53.1481 63.1295 53.1569 63.1485C53.2238 63.3501 52.973 63.5125 52.8421 63.5601C52.7396 63.594 52.6283 63.5895 52.5289 63.5473C52.4295 63.505 52.3487 63.428 52.3015 63.3305C52.2561 63.2487 52.2293 63.1578 52.223 63.0644C52.2167 62.9709 52.2312 62.8772 52.2653 62.7901C52.401 62.5358 52.6033 62.3237 52.8504 62.1769L53.0454 62.0313C53.1262 61.9669 53.207 61.9025 53.2851 61.8353C54.0903 61.1521 54.5333 60.5025 54.6781 59.7857C54.7534 59.4525 54.9233 58.3185 54.132 58.0133Z" fill="#FFBD3D"/>
<path d="M53.5275 58.4472H53.5443C53.8953 58.4472 54.16 58.702 54.277 59.1304C54.3747 59.5256 54.3621 59.9403 54.2408 60.3288C53.9631 60.8405 53.5838 61.2894 53.1263 61.6476L52.8923 61.838C52.831 61.8856 52.7697 61.9332 52.7056 61.978C52.4214 62.1497 52.1907 62.398 52.0397 62.6948C51.9916 62.8151 51.9708 62.9446 51.979 63.074C51.9872 63.2034 52.0242 63.3293 52.0871 63.4424C52.1438 63.5558 52.2305 63.6513 52.3376 63.7184C52.4448 63.7856 52.5682 63.8218 52.6945 63.8232C52.7715 63.8243 52.848 63.811 52.9202 63.784C53.0748 63.7491 53.2099 63.655 53.2967 63.5217C53.3835 63.3884 53.4154 63.2265 53.3855 63.07C53.3816 63.058 53.3755 63.0468 53.3674 63.0372C53.3592 63.0276 53.3493 63.0197 53.3381 63.014C53.3156 63.0057 53.2909 63.0057 53.2684 63.014C53.2565 63.0178 53.2454 63.024 53.2358 63.0322C53.2263 63.0404 53.2184 63.0504 53.2127 63.0616C53.2078 63.0731 53.2053 63.0855 53.2053 63.098C53.2053 63.1105 53.2078 63.1229 53.2127 63.1344C53.2879 63.3668 53.0372 63.5516 52.8617 63.6132C52.7473 63.6519 52.6228 63.6474 52.5115 63.6005C52.4002 63.5536 52.3097 63.4675 52.2571 63.3584C52.2077 63.2699 52.1786 63.1715 52.1719 63.0702C52.1651 62.969 52.1809 62.8675 52.2181 62.7732C52.3553 62.5087 52.5638 62.2885 52.8199 62.1376L53.0149 61.992C53.1013 61.922 53.1793 61.8604 53.2545 61.796C54.0486 61.124 54.486 60.48 54.6476 59.7772C54.7144 59.4468 54.8816 58.3492 54.1294 58.058C53.9938 57.9992 53.8479 57.968 53.7002 57.9664C53.5525 57.9647 53.406 57.9926 53.2691 58.0483C53.1322 58.1041 53.0077 58.1866 52.9028 58.2911C52.798 58.3957 52.7149 58.5201 52.6583 58.6572C52.6031 58.7849 52.5747 58.9226 52.5747 59.0618C52.5747 59.201 52.6031 59.3387 52.6583 59.4664C52.7099 59.5772 52.7838 59.6759 52.8754 59.7564C52.967 59.8369 53.0743 59.8974 53.1904 59.934C53.2136 59.9437 53.2397 59.9437 53.2629 59.934C53.2847 59.9229 53.3017 59.9039 53.3102 59.8808C53.3141 59.8689 53.3156 59.8563 53.3147 59.8437C53.3137 59.8312 53.3102 59.819 53.3045 59.8078C53.2988 59.7966 53.291 59.7866 53.2815 59.7785C53.2719 59.7704 53.2609 59.7642 53.2489 59.7604C53.0876 59.7101 52.95 59.6027 52.8617 59.458C52.8324 59.3505 52.8211 59.2388 52.8282 59.1276C52.8376 58.9437 52.9185 58.7708 53.0534 58.6461C53.1884 58.5215 53.3667 58.4551 53.5498 58.4612L53.5275 58.4472Z" fill="#FFBD3D"/>
<path d="M46.6457 62.6865C46.4924 62.3801 46.2557 62.1238 45.9631 61.9473L45.7765 61.8073L45.5452 61.6169C45.0945 61.263 44.7209 60.8198 44.4475 60.3149C44.3295 59.9362 44.3179 59.5322 44.414 59.1473C44.4386 58.9782 44.5195 58.8225 44.6435 58.7056C44.7674 58.5886 44.9272 58.5173 45.0966 58.5033C45.2421 58.5011 45.3845 58.5455 45.5033 58.6301C45.622 58.7147 45.7108 58.835 45.7569 58.9737C45.7689 59.0204 45.7754 59.0683 45.7765 59.1165C45.7849 59.222 45.7745 59.3283 45.7458 59.4301C45.6638 59.5631 45.5374 59.6623 45.3892 59.7101C45.3693 59.7151 45.3507 59.7241 45.3345 59.7366C45.3184 59.7492 45.3049 59.765 45.2951 59.783C45.2853 59.801 45.2794 59.8209 45.2776 59.8414C45.2759 59.8618 45.2784 59.8825 45.2849 59.9019C45.2915 59.9214 45.302 59.9392 45.3159 59.9544C45.3297 59.9695 45.3464 59.9816 45.3651 59.9899C45.3839 59.9982 45.4041 60.0025 45.4245 60.0025C45.4449 60.0026 45.4652 59.9983 45.4839 59.9901C45.6059 59.9508 45.7184 59.8864 45.8143 59.8011C45.9102 59.7158 45.9875 59.6114 46.0411 59.4945C46.0975 59.3617 46.1266 59.2189 46.1266 59.0745C46.1266 58.9301 46.0975 58.7873 46.0411 58.6545C45.984 58.5092 45.8981 58.3771 45.7887 58.2661C45.6794 58.1551 45.5487 58.0675 45.4047 58.0086C45.2607 57.9497 45.1064 57.9208 44.9509 57.9235C44.7955 57.9263 44.6422 57.9606 44.5004 58.0245C43.7091 58.3297 43.8791 59.4637 43.9432 59.8053C44.0936 60.5221 44.5366 61.1717 45.3362 61.8549C45.4143 61.9221 45.495 61.9865 45.5758 62.0509L45.7709 62.1965C46.0186 62.3426 46.2212 62.5548 46.356 62.8097C46.3901 62.8969 46.4046 62.9905 46.3983 63.084C46.392 63.1775 46.3652 63.2683 46.3197 63.3501C46.2726 63.4476 46.1918 63.5247 46.0924 63.5669C45.993 63.6091 45.8817 63.6137 45.7792 63.5797C45.6483 63.5321 45.3975 63.3697 45.4644 63.1681C45.4731 63.1491 45.4778 63.1285 45.478 63.1076C45.4783 63.0867 45.4741 63.0659 45.4659 63.0467C45.4576 63.0275 45.4453 63.0103 45.43 62.9962C45.4146 62.9821 45.3964 62.9714 45.3767 62.9649C45.3569 62.9583 45.336 62.956 45.3153 62.9582C45.2946 62.9603 45.2745 62.9668 45.2565 62.9773C45.2385 62.9878 45.2229 63.0019 45.2107 63.0189C45.1985 63.0359 45.19 63.0552 45.1858 63.0757C45.0688 63.4285 45.3557 63.7421 45.6845 63.8597C45.7624 63.8872 45.8443 63.9014 45.9269 63.9017C46.0629 63.8992 46.1958 63.8599 46.3114 63.7879C46.4271 63.716 46.5214 63.6141 46.5844 63.4929C46.654 63.3717 46.6957 63.2363 46.7063 63.0967C46.7169 62.9571 46.6962 62.817 46.6457 62.6865Z" fill="#FFBD3D"/>
<path d="M45.339 63.0167C45.3252 63.014 45.3111 63.014 45.2973 63.0167C45.2861 63.0224 45.2761 63.0303 45.268 63.0399C45.2598 63.0495 45.2537 63.0606 45.2499 63.0727C45.22 63.2291 45.2518 63.3911 45.3386 63.5244C45.4255 63.6576 45.5605 63.7517 45.7152 63.7867C45.7875 63.8132 45.8639 63.8265 45.9409 63.8259C46.0675 63.8244 46.1912 63.7881 46.2988 63.721C46.4064 63.6539 46.4936 63.5584 46.551 63.4451C46.613 63.3315 46.6491 63.2055 46.6568 63.0763C46.6645 62.947 46.6436 62.8176 46.5956 62.6975C46.4448 62.4015 46.2152 62.1534 45.9325 61.9807C45.8656 61.9331 45.8015 61.8883 45.743 61.8407C45.6845 61.7931 45.5814 61.7091 45.509 61.6503C45.0515 61.292 44.6722 60.8431 44.3945 60.3315C44.2732 59.9429 44.2607 59.5283 44.3583 59.1331C44.4753 58.7047 44.74 58.4555 45.0911 58.4499C45.1834 58.4422 45.2764 58.4536 45.3643 58.4832C45.4521 58.5128 45.5331 58.5601 45.6021 58.6222C45.6712 58.6843 45.727 58.7599 45.7661 58.8443C45.8052 58.9288 45.8267 59.0204 45.8294 59.1135C45.8367 59.2247 45.8254 59.3364 45.796 59.4439C45.7076 59.5885 45.57 59.696 45.4087 59.7463C45.3968 59.75 45.3858 59.7562 45.3764 59.7644C45.3669 59.7725 45.3592 59.7826 45.3537 59.7938C45.3483 59.8051 45.3451 59.8174 45.3445 59.8299C45.3439 59.8424 45.3458 59.8549 45.3502 59.8667C45.354 59.8783 45.3602 59.889 45.3684 59.8982C45.3765 59.9074 45.3865 59.9147 45.3976 59.9199C45.4085 59.9247 45.4204 59.9272 45.4324 59.9272C45.4444 59.9272 45.4562 59.9247 45.4672 59.9199C45.5833 59.8832 45.6906 59.8228 45.7822 59.7423C45.8738 59.6618 45.9478 59.563 45.9994 59.4523C46.0545 59.3246 46.083 59.1868 46.083 59.0477C46.083 58.9085 46.0545 58.7707 45.9994 58.6431C45.9428 58.506 45.8596 58.3815 45.7548 58.277C45.6499 58.1725 45.5254 58.0899 45.3886 58.0342C45.2517 57.9784 45.1051 57.9506 44.9575 57.9522C44.8098 57.9539 44.6639 57.985 44.5283 58.0439C43.776 58.3239 43.9432 59.4439 44.0101 59.7631C44.1577 60.4659 44.5952 61.1099 45.4031 61.7819L45.64 61.9779L45.835 62.1235C46.091 62.2743 46.2996 62.4946 46.4368 62.7591C46.4739 62.8534 46.4897 62.9549 46.483 63.0561C46.4762 63.1573 46.4471 63.2557 46.3978 63.3443C46.3451 63.4534 46.2547 63.5395 46.1434 63.5864C46.0321 63.6333 45.9076 63.6378 45.7932 63.5991C45.6177 63.5375 45.3669 63.3527 45.4421 63.1203C45.447 63.1087 45.4496 63.0964 45.4496 63.0839C45.4496 63.0713 45.447 63.059 45.4421 63.0475C45.4311 63.0255 45.4122 63.0085 45.3892 62.9999L45.339 63.0167Z" fill="#FFBD3D"/>
<path d="M50.4683 60.231H49.7495V62.7622H50.4683V60.231Z" fill="white"/>
<path d="M47.7629 59.6426V60.2306H48.7548V60.3062V62.7618H49.4736V60.3062V60.2306H49.7495V59.6426H47.7629Z" fill="white"/>
<path d="M50.4683 59.6426H49.7495V60.2306H50.4683V59.6426Z" fill="white"/>
<path d="M50.4683 58.8281H49.7495V59.4161H50.4683V58.8281Z" fill="white"/>
<path d="M58.6428 73.685L58.966 72.4838L58.002 71.7026L59.239 71.641L59.6792 70.479L60.1222 71.641L61.3593 71.7026L60.3925 72.4838L60.7184 73.685L59.6792 73.0046L58.6428 73.685Z" fill="#FFBD3D"/>
<path d="M65.9538 67.357L66.1599 66.5926L65.5442 66.0942L66.3327 66.055L66.6113 65.313L66.8899 66.055L67.6784 66.0942L67.0626 66.5926L67.2688 67.357L66.6141 66.9202L65.9538 67.357Z" fill="#FFBD3D"/>
<path d="M70.941 60.2478L71.0831 59.7242L70.6624 59.3854L71.2029 59.3574L71.3951 58.8506L71.5846 59.3574L72.1251 59.3854L71.7044 59.7242L71.8465 60.2478L71.3951 59.951L70.941 60.2478Z" fill="#FFBD3D"/>
<path d="M48.83 76.9357L47.1025 76.8797L48.4315 75.7597L47.9495 74.0797L49.4123 75.0037L50.8443 74.0293L50.4208 75.7093L51.7861 76.7761L50.0614 76.8909L49.4736 78.5261L48.83 76.9357Z" fill="#FFBD3D"/>
<path d="M39.0813 73.0046L38.0449 73.685L38.3681 72.4838L37.4041 71.7026L38.6411 71.641L39.0813 70.479L39.5243 71.641L40.7614 71.7026L39.7946 72.4838L40.1205 73.685L39.0813 73.0046Z" fill="#FFBD3D"/>
<path d="M32.1494 66.9202L31.4835 67.357L31.6897 66.5926L31.074 66.0942L31.8625 66.055L32.1411 65.313L32.4197 66.055L33.2082 66.0942L32.598 66.5926L32.8042 67.357L32.1494 66.9202Z" fill="#FFBD3D"/>
<path d="M27.3684 59.951L26.917 60.2478L27.0591 59.7242L26.6384 59.3854L27.1789 59.3574L27.3684 58.8506L27.5606 59.3574L28.1012 59.3854L27.6804 59.7242L27.8225 60.2478L27.3684 59.951Z" fill="#FFBD3D"/>
<path d="M20.7316 38.0801H19.3608V37.2681H23.0971V38.0801H21.7319V41.5773H20.7316V38.0801Z" fill="white"/>
<path d="M23.2979 39.4185C23.2979 38.1361 24.2897 37.1785 25.6438 37.1785C26.9979 37.1785 27.9897 38.1193 27.9897 39.4185C27.9897 40.7177 26.9923 41.6445 25.6438 41.6445C24.2953 41.6445 23.2979 40.6981 23.2979 39.4185ZM26.9867 39.4185C26.9812 39.1533 26.8981 38.8956 26.7477 38.6776C26.5974 38.4596 26.3864 38.291 26.1412 38.1928C25.8961 38.0946 25.6275 38.0712 25.3692 38.1255C25.1109 38.1798 24.8742 38.3094 24.6887 38.4981C24.5032 38.6868 24.3772 38.9262 24.3263 39.1865C24.2755 39.4468 24.3021 39.7163 24.4028 39.9615C24.5035 40.2067 24.6738 40.4166 24.8926 40.565C25.1113 40.7134 25.3687 40.7938 25.6326 40.7961C25.8136 40.8025 25.9939 40.7711 26.1622 40.7039C26.3305 40.6367 26.4831 40.5352 26.6103 40.4057C26.7376 40.2762 26.8367 40.1217 26.9015 39.9517C26.9663 39.7818 26.9953 39.6002 26.9867 39.4185Z" fill="white"/>
<path d="M32.4557 38.8249C32.4557 39.7853 31.7397 40.3844 30.5946 40.3844H29.7309V41.5717H28.739V37.2625H30.5946C31.7397 37.2625 32.4557 37.8589 32.4557 38.8249ZM31.4527 38.8249C31.4527 38.3517 31.1462 38.0744 30.5389 38.0744H29.7309V39.5697H30.5389C31.1462 39.5697 31.4527 39.2953 31.4527 38.8249Z" fill="white"/>
<path d="M38.2762 40.7709V41.5717H34.9551V37.2625H38.1954V38.0633H35.9414V38.9985H37.9335V39.7741H35.9414V40.7709H38.2762Z" fill="white"/>
<path d="M38.7524 39.4548H40.4882V40.2248H38.7524V39.4548Z" fill="white"/>
<path d="M41.0623 39.4184C41.0623 38.1192 42.0541 37.1784 43.3915 37.1784C43.7235 37.1638 44.0545 37.2248 44.3599 37.3566C44.6652 37.4885 44.9371 37.6879 45.1551 37.94L44.5171 38.5308C44.3855 38.372 44.2206 38.2445 44.0342 38.1573C43.8477 38.0702 43.6444 38.0256 43.4388 38.0268C43.0856 38.0428 42.7521 38.1951 42.5078 38.4519C42.2635 38.7088 42.1271 39.0504 42.1271 39.4058C42.1271 39.7611 42.2635 40.1028 42.5078 40.3596C42.7521 40.6165 43.0856 40.7688 43.4388 40.7848C43.6452 40.7875 43.8495 40.743 44.0363 40.6547C44.2231 40.5664 44.3875 40.4367 44.5171 40.2752L45.1551 40.866C44.9374 41.1203 44.665 41.3216 44.3585 41.4545C44.052 41.5874 43.7194 41.6485 43.3859 41.6332C42.0541 41.6444 41.0623 40.7148 41.0623 39.4184Z" fill="white"/>
<path d="M45.4617 39.4185C45.4617 38.1361 46.4535 37.1785 47.8076 37.1785C49.1617 37.1785 50.1535 38.1193 50.1535 39.4185C50.1535 40.7177 49.1561 41.6445 47.8076 41.6445C46.4591 41.6445 45.4617 40.6981 45.4617 39.4185ZM49.1505 39.4185C49.145 39.1528 49.0616 38.8947 48.9108 38.6765C48.7599 38.4582 48.5483 38.2896 48.3025 38.1917C48.0567 38.0939 47.7876 38.0711 47.529 38.1263C47.2703 38.1815 47.0336 38.3122 46.8486 38.502C46.6636 38.6918 46.5384 38.9323 46.4888 39.1933C46.4392 39.4543 46.4674 39.7242 46.5698 39.9692C46.6722 40.2142 46.8443 40.4233 47.0645 40.5704C47.2847 40.7175 47.5432 40.796 47.8076 40.7961C47.9876 40.8009 48.1667 40.7683 48.3337 40.7004C48.5006 40.6326 48.6519 40.5308 48.7779 40.4015C48.9039 40.2722 49.0021 40.1182 49.0662 39.949C49.1303 39.7799 49.159 39.5993 49.1505 39.4185Z" fill="white"/>
<path d="M54.8036 41.5717V38.9873L53.5415 41.1153H53.0929L51.8224 39.0404V41.5604H50.8918V37.2625H51.7138L53.3186 39.9393L54.8983 37.2625H55.723V41.5717H54.8036Z" fill="white"/>
<path d="M60.6516 41.5717V38.9873L59.3895 41.1153H58.9437L57.6732 39.0404V41.5604H56.7427V37.2625H57.5618L59.1694 39.9393L60.7492 37.2625H61.5739V41.5717H60.6516Z" fill="white"/>
<path d="M65.9202 40.7709V41.5717H62.5991V37.2625H65.8422V38.0633H63.5854V38.9985H65.5775V39.7741H63.5854V40.7709H65.9202Z" fill="white"/>
<path d="M69.4421 41.5717L68.6063 40.3704H67.7035V41.5717H66.7117V37.2625H68.5672C69.7124 37.2625 70.4284 37.8589 70.4284 38.8249C70.4405 39.1155 70.3622 39.4027 70.2044 39.6466C70.0467 39.8904 69.8172 40.0789 69.548 40.1857L70.5092 41.5717H69.4421ZM68.5115 38.0801H67.7035V39.5836H68.5115C69.1189 39.5836 69.4254 39.3036 69.4254 38.8304C69.4254 38.3572 69.1189 38.0801 68.5115 38.0801Z" fill="white"/>
<path d="M70.9438 39.4184C70.9438 38.1192 71.9357 37.1784 73.2703 37.1784C73.6026 37.1648 73.9337 37.2262 74.2394 37.358C74.545 37.4898 74.8175 37.6886 75.0367 37.94L74.3903 38.542C74.2587 38.3832 74.0938 38.2557 73.9074 38.1685C73.721 38.0814 73.5177 38.0368 73.3121 38.038C72.9588 38.054 72.6254 38.2062 72.381 38.4631C72.1367 38.72 72.0003 39.0616 72.0003 39.417C72.0003 39.7723 72.1367 40.114 72.381 40.3708C72.6254 40.6277 72.9588 40.78 73.3121 40.796C73.5185 40.7986 73.7228 40.7542 73.9096 40.6659C74.0964 40.5776 74.2607 40.4478 74.3903 40.2864L75.0283 40.8772C74.8101 41.1316 74.5372 41.3328 74.2302 41.4657C73.9232 41.5986 73.5902 41.6597 73.2563 41.6444C71.9357 41.6444 70.9438 40.7148 70.9438 39.4184Z" fill="white"/>
<path d="M79.0235 40.7709V41.5717H75.7024V37.2625H78.9427V38.0633H76.6887V38.9985H78.6808V39.7741H76.6887V40.7709H79.0235Z" fill="white"/>
<path d="M7.4502 44.6487H9.4005C10.7936 44.6487 11.7632 45.4887 11.7632 46.8047C11.7632 48.1207 10.8019 48.9579 9.4005 48.9579H7.4502V44.6487ZM9.35035 48.1403C10.2029 48.1403 10.7601 47.6307 10.7601 46.8047C10.7601 45.9787 10.2029 45.4691 9.35035 45.4691H8.44485V48.1403H9.35035Z" fill="white"/>
<path d="M15.8309 48.1599V48.9579H12.5098V44.6487H15.7528V45.4495H13.4961V46.3847H15.4882V47.1603H13.4961V48.1599H15.8309Z" fill="white"/>
<path d="M20.6845 44.6487L18.8261 48.9579H17.8454L15.9954 44.6487H17.068L18.3747 47.7287L19.6982 44.6487H20.6845Z" fill="white"/>
<path d="M24.3594 48.1599V48.9579H21.0383V44.6487H24.2786V45.4495H22.0246V46.3847H24.0139V47.1603H22.0246V48.1599H24.3594Z" fill="white"/>
<path d="M25.1477 44.6487H26.1396V48.1599H28.2905V48.9719H25.1477V44.6487Z" fill="white"/>
<path d="M28.5051 46.8047C28.5051 45.5251 29.497 44.5647 30.8511 44.5647C32.2051 44.5647 33.197 45.5055 33.197 46.8047C33.197 48.1039 32.1996 49.0447 30.8511 49.0447C29.5026 49.0447 28.5051 48.0843 28.5051 46.8047ZM32.194 46.8047C32.1885 46.539 32.1051 46.2809 31.9542 46.0627C31.8034 45.8445 31.5918 45.6758 31.346 45.578C31.1001 45.4801 30.8311 45.4573 30.5724 45.5125C30.3138 45.5677 30.0771 45.6984 29.8921 45.8882C29.707 46.078 29.5819 46.3185 29.5323 46.5795C29.4827 46.8405 29.5108 47.1104 29.6133 47.3554C29.7157 47.6004 29.8878 47.8096 30.108 47.9566C30.3282 48.1037 30.5867 48.1822 30.8511 48.1823C31.0311 48.1871 31.2102 48.1546 31.3772 48.0867C31.5441 48.0188 31.6953 47.917 31.8214 47.7877C31.9474 47.6584 32.0455 47.5044 32.1097 47.3352C32.1738 47.1661 32.2025 46.9855 32.194 46.8047Z" fill="white"/>
<path d="M37.6631 46.2139C37.6631 47.1743 36.9471 47.7707 35.802 47.7707H34.9383V48.9579H33.9436V44.6487H35.802C36.9471 44.6487 37.6631 45.2479 37.6631 46.2139ZM36.6573 46.2139C36.6573 45.7379 36.3508 45.4635 35.7462 45.4635H34.9383V46.9587H35.7462C36.3508 46.9587 36.6573 46.6815 36.6573 46.2139Z" fill="white"/>
<path d="M42.2686 48.9579V46.3735L41.0064 48.5043H40.5607L39.3041 46.4295V48.9495H38.3735V44.6487H39.1927L40.8003 47.3283L42.38 44.6487H43.1852L43.1991 48.9579H42.2686Z" fill="white"/>
<path d="M47.5372 48.1599V48.9579H44.2161V44.6487H47.4591V45.4495H45.2024V46.3847H47.1945V47.1603H45.2024V48.1599H47.5372Z" fill="white"/>
<path d="M52.2598 44.6487V48.9579H51.4463L49.3149 46.3427V48.9579H48.3369V44.6487H49.156L51.2874 47.2667V44.6487H52.2598Z" fill="white"/>
<path d="M54.1656 45.4635H52.792V44.6487H56.531V45.4635H55.1658V48.9579H54.1739L54.1656 45.4635Z" fill="white"/>
<path d="M58.5259 46.8047C58.5259 45.5055 59.5205 44.5647 60.8551 44.5647C61.1873 44.5507 61.5184 44.6122 61.8238 44.7445C62.1291 44.8768 62.4008 45.0767 62.6187 45.3291L61.9807 45.9199C61.8502 45.7597 61.6855 45.631 61.4989 45.5433C61.3123 45.4556 61.1085 45.4111 60.9025 45.4131C60.5492 45.4291 60.2158 45.5814 59.9714 45.8382C59.7271 46.0951 59.5907 46.4367 59.5907 46.7921C59.5907 47.1474 59.7271 47.4891 59.9714 47.746C60.2158 48.0028 60.5492 48.1551 60.9025 48.1711C61.1089 48.1738 61.3132 48.1293 61.5 48.041C61.6867 47.9528 61.8511 47.823 61.9807 47.6615L62.6187 48.2523C62.4012 48.507 62.1289 48.7086 61.8224 48.842C61.5159 48.9754 61.1832 49.0371 60.8495 49.0223C59.5205 49.0335 58.5259 48.1039 58.5259 46.8047Z" fill="white"/>
<path d="M62.9253 46.8047C62.9253 45.5251 63.9172 44.5647 65.2712 44.5647C66.6253 44.5647 67.6172 45.5055 67.6172 46.8047C67.6172 48.1039 66.6197 49.0447 65.2712 49.0447C63.9227 49.0447 62.9253 48.0843 62.9253 46.8047ZM66.6142 46.8047C66.6087 46.539 66.5253 46.2809 66.3744 46.0627C66.2236 45.8445 66.012 45.6758 65.7661 45.578C65.5203 45.4801 65.2512 45.4573 64.9926 45.5125C64.7339 45.5677 64.4973 45.6984 64.3122 45.8882C64.1272 46.078 64.002 46.3185 63.9524 46.5795C63.9028 46.8405 63.931 47.1104 64.0334 47.3554C64.1358 47.6004 64.3079 47.8096 64.5281 47.9566C64.7483 48.1037 65.0068 48.1822 65.2712 48.1823C65.4513 48.1871 65.6304 48.1546 65.7973 48.0867C65.9643 48.0188 66.1155 47.917 66.2415 47.7877C66.3676 47.6584 66.4657 47.5044 66.5298 47.3352C66.5939 47.1661 66.6226 46.9855 66.6142 46.8047Z" fill="white"/>
<path d="M72.2672 48.9579V46.3735L71.0051 48.5043H70.5565L69.3 46.4295V48.9495H68.3694V44.6487H69.1913L70.7961 47.3283L72.3759 44.6487H73.1922V48.9579H72.2672Z" fill="white"/>
<path d="M77.9341 46.2139C77.9341 47.1743 77.2153 47.7707 76.0702 47.7707H75.2065V48.9579H74.2146V44.6487H76.0618C77.2153 44.6487 77.9341 45.2479 77.9341 46.2139ZM76.9283 46.2139C76.9283 45.7379 76.6218 45.4635 76.0144 45.4635H75.2065V46.9587H76.0144C76.619 46.9587 76.9283 46.6815 76.9283 46.2139Z" fill="white"/>
<path d="M81.2468 48.0367H79.2547L78.8758 48.9579H77.8589L79.7702 44.6487H80.7509L82.6678 48.9579H81.6341L81.2468 48.0367ZM80.9348 47.2779L80.255 45.6399L79.5751 47.2891L80.9348 47.2779Z" fill="white"/>
<path d="M87.0477 44.6487V48.9579H86.2342L84.0944 46.3427V48.9579H83.1165V44.6487H83.9356L86.067 47.2667V44.6487H87.0477Z" fill="white"/>
<path d="M90.1235 47.4319V48.9579H89.1317V47.4207L87.46 44.6487H88.5131L89.6582 46.5639L90.8033 44.6487H91.7785L90.1235 47.4319Z" fill="white"/>
<path d="M49.4097 81.3038L49.0001 81.3794L48.7438 81.3318C42.112 80.1635 35.9604 77.0852 31.0362 72.4705C26.1121 67.8559 22.6272 61.9036 21.0049 55.3366C28.9566 54.8074 38.7443 54.4966 49.0391 54.4966C59.3339 54.4966 69.2025 54.8018 77.1792 55.3366C73.9166 68.4742 63.3265 78.7782 49.4097 81.3038Z" stroke="white" stroke-miterlimit="10" stroke-linecap="round" stroke-dasharray="4 4"/>
<path d="M69.8851 10.5979H58.4786C57.865 12.5427 56.6513 14.2406 55.0133 15.4458C53.3752 16.651 51.398 17.3008 49.3679 17.3011C47.3381 17.3011 45.361 16.6513 43.7234 15.446C42.0857 14.2408 40.8726 12.5427 40.26 10.5979H28.1151C26.2281 15.631 22.7366 19.8949 18.1853 22.7247C18.7379 25.5323 19.1443 28.3669 19.4029 31.2171H78.7478C79.0049 28.3978 79.4085 25.594 79.957 22.8171C75.3354 19.9895 71.7895 15.6876 69.8851 10.5979Z" stroke="white" stroke-miterlimit="10" stroke-linecap="round" stroke-dasharray="4 4"/>
<path d="M49.3677 5.09323e-07C47.8514 -0.000553006 46.369 0.450879 45.1081 1.29718C43.8471 2.14349 42.8643 3.34664 42.2839 4.75442C41.7035 6.1622 41.5517 7.71135 41.8475 9.20589C42.1434 10.7004 42.8737 12.0732 43.9461 13.1505C45.0185 14.2278 46.3847 14.9613 47.872 15.2581C49.3592 15.5549 50.9007 15.4017 52.3013 14.8179C53.7019 14.2341 54.8987 13.246 55.7404 11.9785C56.582 10.7109 57.0307 9.22103 57.0296 7.6972C57.0296 6.68615 56.8314 5.68501 56.4463 4.75096C56.0612 3.81691 55.4968 2.96826 54.7853 2.25347C54.0738 1.53868 53.2291 0.971767 52.2996 0.585111C51.37 0.198455 50.3737 -0.000367278 49.3677 5.09323e-07Z" fill="#FF1C3B"/>
<path d="M49.9976 4.99805H45.6567V6.28325H47.8272V6.45125V11.816H49.3985V6.45125V6.28325H49.9976V11.816H51.5689V6.28325V4.99805H49.9976Z" fill="white"/>
<path d="M51.5689 3.21997H49.9976V4.50517H51.5689V3.21997Z" fill="white"/>
</g>
<defs>
<clipPath id="clip0_642_7064">
<rect width="98" height="84" fill="white"/>
</clipPath>
</defs>
</svg>
