<svg width="48" height="48" viewBox="0 0 48 48" fill="none" xmlns="http://www.w3.org/2000/svg">
<g clip-path="url(#clip0_12083_17694)">
<path d="M39.1999 15.1998C39.1999 6.99979 32.6999 0.299793 24.4999 -0.000207038C15.9999 -0.300207 8.89989 6.49979 8.79989 14.9998C8.69989 19.9998 11.0999 24.3998 14.6999 27.1998C15.4999 27.7998 15.9999 28.6998 15.9999 29.7998V32.4998H31.9999V29.7998C31.9999 28.7998 32.4999 27.8998 33.2999 27.2998C36.8999 24.4998 39.1999 20.0998 39.1999 15.1998Z" fill="#FFDD33"/>
<path d="M18.5 42.2998L19.6 43.4998H28.5L29.6 42.2998C29.9 41.9998 30.1 41.4998 30.1 41.0998V34.7998H18V41.0998C18 41.4998 18.2 41.9998 18.5 42.2998Z" fill="#0054A6"/>
<path opacity="0.19" d="M23.4953 40.3998C23.7953 40.2998 24.0953 40.2998 24.3953 40.3998L25.0953 40.5998V34.7998H22.6953V40.5998L23.4953 40.3998Z" fill="#F9FAFB"/>
<path d="M29.8953 41.7997L24.4953 40.3997C24.1953 40.2997 23.8953 40.2997 23.5953 40.3997L18.1953 41.7997C18.2953 41.9997 18.3953 42.1997 18.4953 42.2997L23.6953 47.7997C23.8953 47.9997 24.1953 47.9997 24.3953 47.7997L29.5953 42.2997C29.6953 42.1997 29.7953 41.9997 29.8953 41.7997Z" fill="#FED2A4"/>
<path d="M26.5016 45.5996H21.6016L23.7016 47.7996C23.9016 47.9996 24.2016 47.9996 24.4016 47.7996L26.5016 45.5996Z" fill="#002548"/>
<path d="M20.8016 29.4998C20.4016 29.4998 20.1016 29.1998 20.1016 28.7998V23.9998C20.1016 23.5998 20.4016 23.2998 20.8016 23.2998C21.2016 23.2998 21.5016 23.5998 21.5016 23.9998V28.7998C21.5016 29.1998 21.2016 29.4998 20.8016 29.4998Z" fill="#D2D9DC"/>
<path d="M27.2 29.4998C26.8 29.4998 26.5 29.1998 26.5 28.7998V23.9998C26.5 23.5998 26.8 23.2998 27.2 23.2998C27.6 23.2998 27.9 23.5998 27.9 23.9998V28.7998C27.9 29.1998 27.6 29.4998 27.2 29.4998Z" fill="#D2D9DC"/>
<path d="M22.3953 32.4998H19.1953V29.5998C19.1953 29.1998 19.4953 28.7998 19.9953 28.7998H21.6953C22.0953 28.7998 22.4953 29.0998 22.4953 29.5998V32.4998H22.3953Z" fill="#839299"/>
<path d="M28.8016 32.4998H25.6016V29.5998C25.6016 29.1998 25.9016 28.7998 26.4016 28.7998H28.0016C28.4016 28.7998 28.8016 29.0998 28.8016 29.5998V32.4998Z" fill="#839299"/>
<path d="M31.9984 35.2C32.8984 35.2 33.5984 34.5 33.5984 33.6C33.5984 32.7 32.8984 32 31.9984 32H15.9984C15.0984 32 14.3984 32.7 14.3984 33.6C14.3984 34.5 15.0984 35.2 15.9984 35.2H31.9984Z" fill="#D2D9DC"/>
<path d="M43.1969 5.5001H39.9969C39.5969 5.5001 39.2969 5.2001 39.2969 4.8001C39.2969 4.4001 39.5969 4.1001 39.9969 4.1001H43.1969C43.5969 4.1001 43.8969 4.4001 43.8969 4.8001C43.8969 5.2001 43.5969 5.5001 43.1969 5.5001Z" fill="#FFDD33"/>
<path d="M41.5984 7.1C41.1984 7.1 40.8984 6.8 40.8984 6.4V3.2C40.8984 2.8 41.1984 2.5 41.5984 2.5C41.9984 2.5 42.2984 2.8 42.2984 3.2V6.4C42.2984 6.8 41.9984 7.1 41.5984 7.1Z" fill="#FFDD33"/>
<path d="M8.00156 5.5001H4.80156C4.40156 5.5001 4.10156 5.2001 4.10156 4.8001C4.10156 4.4001 4.40156 4.1001 4.80156 4.1001H8.00156C8.40156 4.1001 8.70156 4.4001 8.70156 4.8001C8.70156 5.2001 8.40156 5.5001 8.00156 5.5001Z" fill="#FFDD33"/>
<path d="M6.40313 7.1C6.00313 7.1 5.70312 6.8 5.70312 6.4V3.2C5.70312 2.8 6.00313 2.5 6.40313 2.5C6.80313 2.5 7.10313 2.8 7.10313 3.2V6.4C7.10313 6.8 6.80313 7.1 6.40313 7.1Z" fill="#FFDD33"/>
<path d="M43.1969 24.6998H39.9969C39.5969 24.6998 39.2969 24.3998 39.2969 23.9998C39.2969 23.5998 39.5969 23.2998 39.9969 23.2998H43.1969C43.5969 23.2998 43.8969 23.5998 43.8969 23.9998C43.8969 24.3998 43.5969 24.6998 43.1969 24.6998Z" fill="#FFDD33"/>
<path d="M41.5984 26.2997C41.1984 26.2997 40.8984 25.9997 40.8984 25.5997V22.3997C40.8984 21.9997 41.1984 21.6997 41.5984 21.6997C41.9984 21.6997 42.2984 21.9997 42.2984 22.3997V25.5997C42.2984 25.9997 41.9984 26.2997 41.5984 26.2997Z" fill="#FFDD33"/>
<path d="M8.00156 24.6998H4.80156C4.40156 24.6998 4.10156 24.3998 4.10156 23.9998C4.10156 23.5998 4.40156 23.2998 4.80156 23.2998H8.00156C8.40156 23.2998 8.70156 23.5998 8.70156 23.9998C8.70156 24.3998 8.40156 24.6998 8.00156 24.6998Z" fill="#FFDD33"/>
<path d="M6.40313 26.2997C6.00313 26.2997 5.70312 25.9997 5.70312 25.5997V22.3997C5.70312 21.9997 6.00313 21.6997 6.40313 21.6997C6.80313 21.6997 7.10313 21.9997 7.10313 22.3997V25.5997C7.10313 25.9997 6.80313 26.2997 6.40313 26.2997Z" fill="#FFDD33"/>
<path d="M46.4 15.0997H43.2C42.8 15.0997 42.5 14.7997 42.5 14.3997C42.5 13.9997 42.8 13.6997 43.2 13.6997H46.4C46.8 13.6997 47.1 13.9997 47.1 14.3997C47.1 14.7997 46.8 15.0997 46.4 15.0997Z" fill="#FFDD33"/>
<path d="M44.8016 16.6996C44.4016 16.6996 44.1016 16.3996 44.1016 15.9996V12.7996C44.1016 12.3996 44.4016 12.0996 44.8016 12.0996C45.2016 12.0996 45.5016 12.3996 45.5016 12.7996V15.9996C45.5016 16.3996 45.2016 16.6996 44.8016 16.6996Z" fill="#FFDD33"/>
<path d="M4.79844 15.0997H1.59844C1.19844 15.0997 0.898438 14.7997 0.898438 14.3997C0.898438 13.9997 1.19844 13.6997 1.59844 13.6997H4.79844C5.19844 13.6997 5.49844 13.9997 5.49844 14.3997C5.49844 14.7997 5.19844 15.0997 4.79844 15.0997Z" fill="#FFDD33"/>
<path d="M3.2 16.6996C2.8 16.6996 2.5 16.3996 2.5 15.9996V12.7996C2.5 12.3996 2.8 12.0996 3.2 12.0996C3.6 12.0996 3.9 12.3996 3.9 12.7996V15.9996C3.9 16.3996 3.6 16.6996 3.2 16.6996Z" fill="#FFDD33"/>
<path d="M35.1969 14.3998C35.1969 12.3998 33.6969 10.7998 31.7969 10.4998C31.9969 10.0998 31.9969 9.6998 31.9969 9.2998C31.8969 8.1998 30.9969 7.2998 29.7969 7.1998C29.4969 7.1998 29.0969 7.1998 28.8969 7.2998L28.7969 7.1998C28.7969 5.8998 27.6969 4.7998 26.3969 4.7998C25.4969 4.7998 24.6969 5.2998 24.2969 6.0998C24.2969 6.1998 24.1969 6.1998 24.0969 6.1998H23.9969C23.8969 6.1998 23.7969 6.0998 23.7969 6.0998C23.3969 5.2998 22.5969 4.7998 21.6969 4.7998C20.3969 4.7998 19.2969 5.8998 19.2969 7.1998L19.1969 7.2998C18.8969 7.1998 18.5969 7.1998 18.2969 7.1998C17.1969 7.2998 16.2969 8.1998 16.0969 9.2998C16.0969 9.6998 16.0969 10.0998 16.1969 10.3998C14.2969 10.6998 12.7969 12.3998 12.7969 14.2998C12.7969 16.3998 14.3969 17.9998 16.2969 18.2998C15.9969 18.8998 15.8969 19.4998 15.9969 20.1998C16.0969 22.1998 17.7969 23.8998 19.7969 23.9998C21.5969 24.0998 23.0969 22.9998 23.6969 21.3998C23.6969 21.2998 23.7969 21.1998 23.9969 21.1998C24.0969 21.1998 24.1969 21.2998 24.2969 21.3998C24.8969 22.9998 26.3969 24.0998 28.1969 23.9998C30.1969 23.8998 31.8969 22.2998 31.9969 20.1998C31.9969 19.4998 31.8969 18.8998 31.6969 18.2998C33.5969 18.0998 35.1969 16.4998 35.1969 14.3998Z" fill="#FED2A4"/>
<path d="M35.1969 14.3998C35.1969 12.3998 33.6969 10.7998 31.7969 10.4998C31.9969 10.0998 31.9969 9.6998 31.9969 9.2998C31.8969 8.1998 30.9969 7.2998 29.7969 7.1998C29.4969 7.1998 29.0969 7.1998 28.8969 7.2998L28.7969 7.1998C28.7969 5.8998 27.6969 4.7998 26.3969 4.7998C25.9969 4.7998 25.5969 4.8998 25.2969 5.0998C26.0969 5.4998 26.5969 6.2998 26.5969 7.1998L26.6969 7.2998C26.9969 7.1998 27.2969 7.1998 27.5969 7.1998C28.6969 7.2998 29.5969 8.1998 29.7969 9.2998C29.7969 9.6998 29.7969 10.0998 29.6969 10.3998C31.5969 10.6998 33.0969 12.3998 33.0969 14.2998C33.0969 16.3998 31.4969 17.9998 29.5969 18.2998C29.8969 18.8998 29.9969 19.4998 29.8969 20.1998C29.7969 21.8998 28.5969 23.3998 26.9969 23.7998C27.3969 23.8998 27.7969 23.9998 28.2969 23.9998C30.2969 23.8998 31.9969 22.2998 32.0969 20.1998C32.0969 19.4998 31.9969 18.8998 31.7969 18.2998C33.5969 18.0998 35.1969 16.4998 35.1969 14.3998Z" fill="#FFBD86"/>
<path d="M29.8 7.19971C29.5 7.19971 29.1 7.19971 28.9 7.29971L28.8 7.19971C28.8 6.89971 28.7 6.49971 28.6 6.19971C27.4 6.69971 26.5 7.99971 26.5 9.39971C26.5 9.79971 26.8 10.0997 27.2 10.0997C27.6 10.0997 27.9 9.79971 27.9 9.39971C27.9 8.29971 28.8 7.29971 30 7.29971C30.4 7.29971 30.7 7.39971 31 7.59971C30.7 7.39971 30.3 7.29971 29.8 7.19971Z" fill="#EFBDA7"/>
<path d="M31.7 18.3997C31.9 18.3997 32.2 18.2997 32.4 18.2997C32.3 17.8997 32 17.6997 31.6 17.6997C31.5 17.6997 31.4 17.6997 31.2 17.6997C29.4 17.6997 27.9 16.1997 27.9 14.3997C27.9 13.9997 27.6 13.6997 27.2 13.6997C26.8 13.6997 26.5 13.9997 26.5 14.3997C26.5 16.9997 28.6 19.0997 31.2 19.0997C31.4 19.0997 31.6 19.0997 31.7 19.0997C31.8 19.0997 31.8 19.0997 31.9 19.0997C31.8 18.7997 31.8 18.5997 31.7 18.3997Z" fill="#EFBDA7"/>
<path d="M29.8 7.19971C29.5 7.19971 29.1 7.19971 28.9 7.29971L28.8 7.19971C28.8 6.89971 28.7 6.49971 28.6 6.19971C27.4 6.69971 26.5 7.99971 26.5 9.39971C26.5 9.79971 26.8 10.0997 27.2 10.0997C27.6 10.0997 27.9 9.79971 27.9 9.39971C27.9 8.29971 28.8 7.29971 30 7.29971C30.4 7.29971 30.7 7.39971 31 7.59971C30.7 7.39971 30.3 7.29971 29.8 7.19971Z" fill="#FFBD86"/>
<path d="M31.7 18.3997C31.9 18.3997 32.2 18.2997 32.4 18.2997C32.3 17.8997 32 17.6997 31.6 17.6997C31.5 17.6997 31.4 17.6997 31.2 17.6997C29.4 17.6997 27.9 16.1997 27.9 14.3997C27.9 13.9997 27.6 13.6997 27.2 13.6997C26.8 13.6997 26.5 13.9997 26.5 14.3997C26.5 16.9997 28.6 19.0997 31.2 19.0997C31.4 19.0997 31.6 19.0997 31.7 19.0997C31.8 19.0997 31.8 19.0997 31.9 19.0997C31.8 18.7997 31.8 18.5997 31.7 18.3997Z" fill="#FFBD86"/>
<path d="M18.2 7.19971C18.5 7.19971 18.9 7.19971 19.1 7.29971L19.2 7.19971C19.2 6.89971 19.3 6.49971 19.4 6.19971C20.6 6.69971 21.5 7.99971 21.5 9.39971C21.5 9.79971 21.2 10.0997 20.8 10.0997C20.4 10.0997 20.1 9.79971 20.1 9.39971C20.1 8.29971 19.2 7.29971 18 7.29971C17.6 7.29971 17.3 7.39971 17 7.59971C17.3 7.39971 17.7 7.29971 18.2 7.19971Z" fill="#FFBD86"/>
<path d="M16.3016 18.3997C16.1016 18.3997 15.8016 18.2997 15.6016 18.2997C15.7016 17.8997 16.0016 17.6997 16.4016 17.6997C16.5016 17.6997 16.6016 17.6997 16.8016 17.6997C18.6016 17.6997 20.1016 16.1997 20.1016 14.3997C20.1016 13.9997 20.4016 13.6997 20.8016 13.6997C21.2016 13.6997 21.5016 13.9997 21.5016 14.3997C21.5016 16.9997 19.4016 19.0997 16.8016 19.0997C16.6016 19.0997 16.4016 19.0997 16.3016 19.0997C16.2016 19.0997 16.2016 19.0997 16.1016 19.0997C16.2016 18.7997 16.2016 18.5997 16.3016 18.3997Z" fill="#FFBD86"/>
<path d="M24.6984 5.5C24.4984 5.7 24.3984 5.9 24.2984 6.1C24.2984 6.2 24.1984 6.2 24.0984 6.2H23.9984C23.8984 6.2 23.7984 6.1 23.7984 6.1C23.6984 5.9 23.4984 5.7 23.3984 5.5V22.3C23.5984 22 23.7984 21.7 23.8984 21.4C23.8984 21.3 23.9984 21.2 24.1984 21.2C24.3984 21.2 24.3984 21.3 24.4984 21.4C24.5984 21.7 24.7984 22 24.9984 22.3L24.6984 5.5Z" fill="#FFBD86"/>
</g>
<defs>
<clipPath id="clip0_12083_17694">
<rect width="48" height="48" fill="white"/>
</clipPath>
</defs>
</svg>
