<svg width="64" height="64" viewBox="0 0 64 64" fill="none" xmlns="http://www.w3.org/2000/svg">
<path fill-rule="evenodd" clip-rule="evenodd" d="M0.66 0H20.74C20.92 0 21.08 0.06 21.2 0.19L24.88 3.87C25.01 4 25.07 4.15 25.07 4.33V31.84C25.07 32.2 24.78 32.5 24.41 32.5H0.66C0.29 32.5 0 32.2 0 31.84V0.66C0 0.29 0.29 0 0.66 0Z" fill="#0054A6"/>
<path opacity="0.19" fill-rule="evenodd" clip-rule="evenodd" d="M0.66 0H1.86V32.5H0.66C0.29 32.5 0 32.2 0 31.84V0.66C0 0.29 0.29 0 0.66 0Z" fill="#2D2F31"/>
<path opacity="0.19" fill-rule="evenodd" clip-rule="evenodd" d="M21.01 0.0599976C21.08 0.0899976 21.14 0.139998 21.2 0.199998L24.88 3.88C24.94 3.94 24.98 4 25.02 4.07H21.34C21.16 4.07 21.01 3.92 21.01 3.74V0.0599976Z" fill="#2D2F31"/>
<path opacity="0.19" fill-rule="evenodd" clip-rule="evenodd" d="M10.11 26.41C9.52004 26.41 9.04004 25.93 9.04004 25.34C9.04004 24.75 9.52004 24.27 10.11 24.27H18.76C19.35 24.27 19.83 24.75 19.83 25.34C19.83 25.93 19.35 26.41 18.76 26.41H10.11ZM10.11 11.29C9.52004 11.29 9.04004 10.81 9.04004 10.22C9.04004 9.63 9.52004 9.15 10.11 9.15H18.76C19.35 9.15 19.83 9.63 19.83 10.22C19.83 10.81 19.35 11.29 18.76 11.29H10.11ZM10.11 8.22C9.52004 8.22 9.04004 7.74 9.04004 7.15C9.04004 6.56 9.52004 6.08 10.11 6.08H22.25C22.84 6.08 23.32 6.56 23.32 7.15C23.32 7.74 22.84 8.22 22.25 8.22H10.11ZM10.11 18.85C9.52004 18.85 9.04004 18.37 9.04004 17.78C9.04004 17.19 9.52004 16.71 10.11 16.71H18.76C19.35 16.71 19.83 17.19 19.83 17.78C19.83 18.37 19.35 18.85 18.76 18.85H10.11ZM10.11 15.78C9.52004 15.78 9.04004 15.3 9.04004 14.71C9.04004 14.12 9.52004 13.64 10.11 13.64H22.25C22.84 13.64 23.32 14.12 23.32 14.71C23.32 15.3 22.84 15.78 22.25 15.78H10.11ZM10.11 23.34C9.52004 23.34 9.04004 22.86 9.04004 22.27C9.04004 21.68 9.52004 21.2 10.11 21.2H22.25C22.84 21.2 23.32 21.68 23.32 22.27C23.32 22.86 22.84 23.34 22.25 23.34H10.11Z" fill="#F9FAFB"/>
<path fill-rule="evenodd" clip-rule="evenodd" d="M3.2699 21.21H6.3999C6.9699 21.21 7.4299 21.67 7.4299 22.24V25.37C7.4299 25.94 6.9699 26.4 6.3999 26.4H3.2699C2.6999 26.4 2.2399 25.94 2.2399 25.37V22.24C2.2299 21.67 2.6999 21.21 3.2699 21.21Z" fill="#ED1C24"/>
<path opacity="0.19" fill-rule="evenodd" clip-rule="evenodd" d="M5.30005 21.21H6.40005C6.97005 21.21 7.43005 21.67 7.43005 22.24V25.37C7.43005 25.94 6.97005 26.4 6.40005 26.4H5.30005C5.87005 26.4 6.33005 25.94 6.33005 25.37V22.24C6.33005 21.67 5.86005 21.21 5.30005 21.21Z" fill="#2D2F31"/>
<path fill-rule="evenodd" clip-rule="evenodd" d="M3.2699 13.65H6.3999C6.9699 13.65 7.4299 14.11 7.4299 14.68V17.81C7.4299 18.38 6.9699 18.84 6.3999 18.84H3.2699C2.6999 18.84 2.2399 18.38 2.2399 17.81V14.68C2.2299 14.11 2.6999 13.65 3.2699 13.65Z" fill="#FFDD33"/>
<path opacity="0.19" fill-rule="evenodd" clip-rule="evenodd" d="M5.30005 13.65H6.40005C6.97005 13.65 7.43005 14.11 7.43005 14.68V17.81C7.43005 18.38 6.97005 18.84 6.40005 18.84H5.30005C5.87005 18.84 6.33005 18.38 6.33005 17.81V14.68C6.33005 14.11 5.86005 13.65 5.30005 13.65Z" fill="#2D2F31"/>
<path fill-rule="evenodd" clip-rule="evenodd" d="M3.2699 6.09H6.3999C6.9699 6.09 7.4299 6.55 7.4299 7.12V10.25C7.4299 10.82 6.9699 11.28 6.3999 11.28H3.2699C2.6999 11.28 2.2399 10.82 2.2399 10.25V7.12C2.2299 6.56 2.6999 6.09 3.2699 6.09Z" fill="#54CC5A"/>
<path opacity="0.19" fill-rule="evenodd" clip-rule="evenodd" d="M5.30005 6.09H6.40005C6.97005 6.09 7.43005 6.55 7.43005 7.12V10.25C7.43005 10.82 6.97005 11.28 6.40005 11.28H5.30005C5.87005 11.28 6.33005 10.82 6.33005 10.25V7.12C6.33005 6.56 5.86005 6.09 5.30005 6.09Z" fill="#2D2F31"/>
<path fill-rule="evenodd" clip-rule="evenodd" d="M52.9501 36.98V19.15H32.0301C31.4401 19.15 30.9601 18.67 30.9601 18.08C30.9601 17.49 31.4401 17.01 32.0301 17.01H54.0201C54.6101 17.01 55.0901 17.49 55.0901 18.08V36.97L55.4501 36.51C55.8101 36.05 56.4801 35.97 56.9401 36.33C57.4001 36.69 57.4801 37.36 57.1201 37.82L54.8601 40.71C54.5001 41.17 53.8301 41.25 53.3701 40.89C53.2901 40.83 53.2301 40.76 53.1701 40.69L50.9201 37.81C50.5601 37.35 50.6401 36.68 51.1001 36.32C51.5601 35.96 52.2301 36.04 52.5901 36.5L52.9501 36.98ZM10.2001 40.37L10.5601 39.91V60.14C10.5601 60.73 11.0401 61.21 11.6301 61.21H38.9501C39.5401 61.21 40.0201 60.73 40.0201 60.14C40.0201 59.55 39.5401 59.07 38.9501 59.07H12.6901V39.91L13.0501 40.37C13.4101 40.83 14.0801 40.91 14.5401 40.55C15.0001 40.19 15.0801 39.52 14.7201 39.06L12.4701 36.18C12.4201 36.11 12.3501 36.04 12.2701 35.98C11.8101 35.62 11.1401 35.7 10.7801 36.16L8.52012 39.06C8.16012 39.52 8.24012 40.19 8.70012 40.55C9.17012 40.91 9.84012 40.83 10.2001 40.37Z" fill="#002548"/>
<path fill-rule="evenodd" clip-rule="evenodd" d="M19.09 46.81C18.51 46.87 17.98 46.45 17.91 45.87C17.85 45.29 18.27 44.76 18.85 44.69L20.51 44.51C20.77 44.48 21.02 44.55 21.22 44.69L31.71 50.75L40.3 35.57C40.54 35.14 41.04 34.94 41.5 35.07L45.3 36.09C45.87 36.24 46.21 36.83 46.05 37.39C45.9 37.96 45.31 38.3 44.75 38.14L41.74 37.33L33.03 52.72C32.74 53.23 32.09 53.4 31.58 53.11L20.4 46.66L19.09 46.81Z" fill="#0054A6"/>
<path d="M32.13 54.84C33.6046 54.84 34.8 53.6446 34.8 52.17C34.8 50.6954 33.6046 49.5 32.13 49.5C30.6554 49.5 29.46 50.6954 29.46 52.17C29.46 53.6446 30.6554 54.84 32.13 54.84Z" fill="#839299"/>
<path fill-rule="evenodd" clip-rule="evenodd" d="M32.1101 50.95C32.8001 50.95 33.3501 51.51 33.3501 52.19C33.3501 52.87 32.7901 53.43 32.1101 53.43C31.4301 53.43 30.8701 52.87 30.8701 52.19C30.8701 51.51 31.4201 50.95 32.1101 50.95Z" fill="#D2D9DC"/>
<path fill-rule="evenodd" clip-rule="evenodd" d="M34.1701 39.79L27.3301 35.84C27.0801 35.69 26.7501 35.78 26.6001 36.04L23.2201 41.9C23.0701 42.15 23.1601 42.48 23.4201 42.63L30.2601 46.58C30.5101 46.73 30.8401 46.64 30.9901 46.38L34.3701 40.52C34.5101 40.27 34.4201 39.94 34.1701 39.79Z" fill="#ECBA78"/>
<path fill-rule="evenodd" clip-rule="evenodd" d="M28.2001 36.35L27.3301 35.85C27.0801 35.7 26.7501 35.79 26.6001 36.05L23.2201 41.91C23.0701 42.16 23.1601 42.49 23.4201 42.64L24.2901 43.14C24.0401 42.99 23.9501 42.67 24.0901 42.41L27.4701 36.55C27.6201 36.29 27.9501 36.2 28.2001 36.35Z" fill="#E3A76F"/>
<path fill-rule="evenodd" clip-rule="evenodd" d="M30.62 40.16C30.33 40.67 29.68 40.84 29.17 40.55C28.66 40.26 28.49 39.61 28.78 39.1L29.82 37.29L31.66 38.35L30.62 40.16Z" fill="#E3A76F"/>
<path fill-rule="evenodd" clip-rule="evenodd" d="M38.8299 31.72L33.4599 28.62C33.2099 28.47 32.8799 28.56 32.7299 28.82L30.0899 33.39C29.9399 33.64 30.0299 33.97 30.2899 34.12L35.6599 37.22C35.9099 37.37 36.2399 37.28 36.3899 37.02L39.0299 32.45C39.1699 32.2 39.0799 31.87 38.8299 31.72Z" fill="#ECBA78"/>
<path fill-rule="evenodd" clip-rule="evenodd" d="M34.3299 29.13L33.4599 28.63C33.2099 28.48 32.8799 28.57 32.7299 28.83L30.0899 33.4C29.9399 33.65 30.0299 33.98 30.2899 34.13L31.1599 34.63C30.9099 34.48 30.8199 34.16 30.9699 33.9L33.6099 29.33C33.7499 29.07 34.0799 28.98 34.3299 29.13Z" fill="#E3A76F"/>
<path fill-rule="evenodd" clip-rule="evenodd" d="M36.2199 32.17C35.9299 32.68 35.2799 32.85 34.7699 32.56C34.2599 32.27 34.0899 31.62 34.3799 31.11L35.2299 29.64L37.0699 30.7L36.2199 32.17Z" fill="#E3A76F"/>
<path d="M53.4599 64C59.2755 64 63.9899 59.2856 63.9899 53.47C63.9899 47.6544 59.2755 42.94 53.4599 42.94C47.6444 42.94 42.9299 47.6544 42.9299 53.47C42.9299 59.2856 47.6444 64 53.4599 64Z" fill="#FFDD33"/>
<path opacity="0.19" fill-rule="evenodd" clip-rule="evenodd" d="M53.03 42.95C58.64 43.18 63.11 47.8 63.11 53.47C63.11 59.14 58.63 63.76 53.03 63.99C53.18 64 53.32 64 53.47 64C59.29 64 64 59.29 64 53.47C64 47.65 59.29 42.94 53.47 42.94C53.32 42.95 53.18 42.95 53.03 42.95Z" fill="#2D2F31"/>
<path opacity="0.19" d="M53.4701 61.06C57.673 61.06 61.0801 57.6529 61.0801 53.45C61.0801 49.2471 57.673 45.84 53.4701 45.84C49.2672 45.84 45.8601 49.2471 45.8601 53.45C45.8601 57.6529 49.2672 61.06 53.4701 61.06Z" fill="#2D2F31"/>
<path opacity="0.19" fill-rule="evenodd" clip-rule="evenodd" d="M46.7701 53.47C46.7701 49.42 49.9301 46.11 53.9201 45.88C53.7701 45.87 53.6201 45.87 53.4701 45.87C49.2701 45.87 45.8601 49.28 45.8601 53.48C45.8601 57.68 49.2701 61.09 53.4701 61.09C53.6201 61.09 53.7701 61.09 53.9201 61.08C49.9401 60.83 46.7701 57.52 46.7701 53.47Z" fill="#2D2F31"/>
<path fill-rule="evenodd" clip-rule="evenodd" d="M56.7001 50.75C56.9301 51.29 56.6701 51.92 56.1301 52.15C55.5901 52.38 54.9601 52.12 54.7301 51.58C54.5601 51.18 54.2401 50.94 53.8901 50.85C53.6501 50.79 53.4001 50.79 53.1701 50.83C52.9501 50.87 52.7601 50.96 52.6001 51.08C52.4401 51.21 52.3401 51.4 52.3501 51.63C52.3601 51.82 52.4601 51.96 52.6101 52.05C52.8801 52.23 53.2701 52.33 53.6501 52.39C54.2901 52.49 54.9801 52.67 55.5801 53.03C56.3001 53.46 56.8401 54.12 56.9601 55.12C56.9701 55.19 56.9701 55.28 56.9801 55.39C57.0001 56.32 56.5801 57.02 55.9401 57.5C55.5301 57.81 55.0401 58.02 54.5401 58.14V58.27C54.5401 58.86 54.0601 59.34 53.4701 59.34C52.8801 59.34 52.4001 58.86 52.4001 58.27V58.12C52.0101 58.02 51.6501 57.86 51.3201 57.64C50.6801 57.22 50.2001 56.59 49.9901 55.76C49.8501 55.19 50.2001 54.61 50.7701 54.47C51.3401 54.33 51.9201 54.68 52.0601 55.25C52.1301 55.52 52.2901 55.72 52.5001 55.86C52.7901 56.05 53.1601 56.14 53.5401 56.13C53.6001 56.13 53.6801 56.12 53.7801 56.11C54.1101 56.07 54.4301 55.97 54.6401 55.81C54.7601 55.72 54.8401 55.59 54.8401 55.44L54.8301 55.37C54.8001 55.13 54.6601 54.97 54.4701 54.85C54.1501 54.66 53.7201 54.55 53.3001 54.49C52.6801 54.39 52.0001 54.2 51.4401 53.83C50.7501 53.38 50.2601 52.72 50.2101 51.72C50.1601 50.74 50.5801 49.96 51.2501 49.42C51.5801 49.15 51.9701 48.95 52.4001 48.82V48.65C52.4001 48.06 52.8801 47.58 53.4701 47.58C54.0601 47.58 54.5401 48.06 54.5401 48.65V48.81C55.4501 49.09 56.2601 49.71 56.7001 50.75Z" fill="#FFDD33"/>
</svg>
