<svg width="420" height="332" viewBox="0 0 420 332" fill="none" xmlns="http://www.w3.org/2000/svg">
<path d="M200.402 232.077V274.777H234.502V232.077H200.402Z" fill="#002548"/>
<path opacity="0.19" d="M200.402 232.077V274.777H234.502V232.077H200.402Z" fill="#F9FAFB"/>
<path d="M152.398 284V278.9L170.898 274.8H264.098L282.598 278.9V284H152.398Z" fill="#002548"/>
<path d="M325.941 242.262V99.2617L108.941 99.2617L108.941 242.262L325.941 242.262Z" fill="#002548"/>
<path d="M324.002 101.3H111.102V234H324.002V101.3Z" fill="#5F737C"/>
<path d="M323.099 102.8H112.199V232.8H323.099V102.8Z" fill="#D2D9DC"/>
<path d="M217.501 241.099C218.992 241.099 220.201 239.89 220.201 238.399C220.201 236.908 218.992 235.699 217.501 235.699C216.01 235.699 214.801 236.908 214.801 238.399C214.801 239.89 216.01 241.099 217.501 241.099Z" fill="white"/>
<path d="M146.859 124H126.743C124.676 124 123 125.676 123 127.743V152.257C123 154.324 124.676 156 126.743 156H146.859C148.927 156 150.602 154.324 150.602 152.257V127.743C150.603 125.677 148.927 124 146.859 124ZM176.921 124H156.805C154.738 124 153.062 125.676 153.062 127.743V152.257C153.062 154.324 154.738 156 156.805 156H176.921C178.989 156 180.664 154.324 180.664 152.257V127.743C180.664 125.677 178.989 124 176.921 124ZM206.983 124H186.867C184.8 124 183.124 125.676 183.124 127.743V152.257C183.124 154.324 184.8 156 186.867 156H206.983C209.05 156 210.727 154.324 210.727 152.257V127.743C210.726 125.677 209.05 124 206.983 124Z" fill="#0054A6"/>
<path d="M299.001 112.9V223.4C299.001 225 297.701 226.4 296.001 226.4H221.801C220.201 226.4 218.801 225.1 218.801 223.4V112.9C218.801 111.3 220.101 109.9 221.801 109.9H296.001C297.701 109.9 299.001 111.2 299.001 112.9Z" fill="#F9FAFB"/>
<path d="M225.999 136.999C225.799 136.799 225.699 136.499 225.699 136.099C225.699 135.999 225.699 135.799 225.799 135.499L232.899 118.799C232.999 118.499 233.299 118.199 233.499 117.999C233.799 117.799 234.099 117.699 234.499 117.699H234.799C235.199 117.699 235.499 117.799 235.799 117.999C236.099 118.199 236.299 118.499 236.399 118.799L243.499 135.499C243.599 135.699 243.599 135.899 243.599 136.099C243.599 136.499 243.499 136.699 243.299 136.999C243.099 137.199 242.799 137.399 242.399 137.399C242.099 137.399 241.899 137.299 241.699 137.199C241.499 137.099 241.299 136.899 241.199 136.599L239.399 132.299H229.999L228.199 136.599C228.099 136.799 227.899 136.999 227.699 137.199C227.499 137.299 227.299 137.399 226.999 137.399C226.499 137.399 226.199 137.199 225.999 136.999ZM230.799 129.999H238.299L234.599 120.999L230.799 129.999Z" fill="#0054A6"/>
<path d="M259.9 121.2C259.9 121.6 259.7 122 259.4 122.3C259.1 122.6 258.7 122.8 258.2 122.8H248.8C247.8 122.8 247 122 247 121C247 120.6 247.2 120.2 247.5 119.9C247.8 119.6 248.2 119.4 248.7 119.4H258.1C259.1 119.4 259.9 120.2 259.9 121.2Z" fill="#ED1C24"/>
<path d="M296.6 121.2C296.6 121.6 296.4 122 296.1 122.3C295.8 122.6 295.4 122.8 294.9 122.8H264.3C263.3 122.8 262.5 122 262.5 121C262.5 120.6 262.7 120.2 263 119.9C263.3 119.6 263.7 119.4 264.2 119.4H294.8C295.8 119.4 296.6 120.2 296.6 121.2Z" fill="#ED1C24"/>
<path d="M282.399 169.3C282.399 169.7 282.199 170.1 281.899 170.4C281.599 170.7 281.199 170.9 280.699 170.9H223.999C222.999 170.9 222.199 170.1 222.199 169.1C222.199 168.7 222.399 168.3 222.699 168C222.999 167.7 223.399 167.5 223.899 167.5H280.699C281.599 167.5 282.499 168.3 282.399 169.3Z" fill="#0054A6"/>
<path d="M295.702 169.3C295.702 169.7 295.502 170.1 295.202 170.4C294.902 170.7 294.502 170.9 294.002 170.9H286.902C285.902 170.9 285.102 170.1 285.102 169.1C285.102 168.7 285.302 168.3 285.602 168C285.902 167.7 286.302 167.5 286.802 167.5H293.902C294.902 167.5 295.702 168.3 295.702 169.3Z" fill="#0054A6"/>
<path d="M295.701 177.1C295.701 177.5 295.501 177.9 295.201 178.2C294.901 178.5 294.501 178.7 294.001 178.7H258.601C257.601 178.7 256.801 177.9 256.801 176.9C256.801 176.5 257.001 176.1 257.301 175.8C257.601 175.5 258.001 175.3 258.501 175.3H293.901C294.901 175.3 295.701 176.2 295.701 177.1Z" fill="#ED1C24"/>
<path d="M296.6 127.5C296.6 127.8 296.3 128.1 296 128.1H247.6C247.3 128.1 247 127.8 247 127.5C247 127.2 247.3 126.9 247.6 126.9H296C296.3 126.9 296.6 127.2 296.6 127.5Z" fill="#D2D9DC"/>
<path d="M296.6 132.3C296.6 132.6 296.3 132.9 296 132.9H247.6C247.3 132.9 247 132.6 247 132.3C247 132 247.3 131.7 247.6 131.7H296C296.3 131.8 296.6 132 296.6 132.3Z" fill="#D2D9DC"/>
<path d="M296.6 137.2C296.6 137.5 296.3 137.8 296 137.8H247.6C247.3 137.8 247 137.5 247 137.2C247 136.9 247.3 136.6 247.6 136.6H296C296.3 136.6 296.6 136.9 296.6 137.2Z" fill="#D2D9DC"/>
<path d="M296.602 142C296.602 142.3 296.302 142.6 296.002 142.6H222.702C222.402 142.6 222.102 142.3 222.102 142C222.102 141.7 222.402 141.4 222.702 141.4H296.002C296.302 141.5 296.602 141.7 296.602 142Z" fill="#D2D9DC"/>
<path d="M296.602 146.9C296.602 147.2 296.302 147.5 296.002 147.5H222.702C222.402 147.5 222.102 147.2 222.102 146.9C222.102 146.6 222.402 146.3 222.702 146.3H296.002C296.302 146.3 296.602 146.6 296.602 146.9Z" fill="#D2D9DC"/>
<path d="M296.602 151.7C296.602 152 296.302 152.3 296.002 152.3H222.702C222.402 152.3 222.102 152 222.102 151.7C222.102 151.4 222.402 151.1 222.702 151.1H296.002C296.302 151.2 296.602 151.4 296.602 151.7Z" fill="#D2D9DC"/>
<path d="M296.602 156.599C296.602 156.899 296.302 157.199 296.002 157.199H222.702C222.402 157.199 222.102 156.899 222.102 156.599C222.102 156.299 222.402 155.999 222.702 155.999H296.002C296.302 155.999 296.602 156.299 296.602 156.599Z" fill="#D2D9DC"/>
<path d="M296.602 161.4C296.602 161.7 296.302 162 296.002 162H222.702C222.402 162 222.102 161.7 222.102 161.4C222.102 161.1 222.402 160.8 222.702 160.8H296.002C296.302 160.9 296.602 161.1 296.602 161.4Z" fill="#D2D9DC"/>
<path d="M296.602 184.799C296.602 185.099 296.302 185.399 296.002 185.399H222.702C222.402 185.399 222.102 185.099 222.102 184.799C222.102 184.499 222.402 184.199 222.702 184.199H296.002C296.302 184.199 296.602 184.499 296.602 184.799Z" fill="#D2D9DC"/>
<path d="M296.602 189.4C296.602 189.7 296.302 190 296.002 190H222.702C222.402 190 222.102 189.7 222.102 189.4C222.102 189.1 222.402 188.8 222.702 188.8H296.002C296.302 188.9 296.602 189.1 296.602 189.4Z" fill="#D2D9DC"/>
<path d="M296.602 194C296.602 194.3 296.302 194.6 296.002 194.6H222.702C222.402 194.6 222.102 194.3 222.102 194C222.102 193.7 222.402 193.4 222.702 193.4H296.002C296.302 193.5 296.602 193.7 296.602 194Z" fill="#D2D9DC"/>
<path d="M296.602 198.7C296.602 199 296.302 199.3 296.002 199.3H222.702C222.402 199.3 222.102 199 222.102 198.7C222.102 198.4 222.402 198.1 222.702 198.1H296.002C296.302 198.1 296.602 198.3 296.602 198.7Z" fill="#D2D9DC"/>
<path d="M296.602 203.299C296.602 203.599 296.302 203.899 296.002 203.899H222.702C222.402 203.899 222.102 203.599 222.102 203.299C222.102 202.999 222.402 202.699 222.702 202.699H296.002C296.302 202.699 296.602 202.999 296.602 203.299Z" fill="#D2D9DC"/>
<path d="M296.602 207.9C296.602 208.2 296.302 208.5 296.002 208.5H222.702C222.402 208.5 222.102 208.2 222.102 207.9C222.102 207.6 222.402 207.3 222.702 207.3H296.002C296.302 207.3 296.602 207.6 296.602 207.9Z" fill="#D2D9DC"/>
<path d="M270.7 212.5C270.7 212.8 270.4 213.1 270.1 213.1H222.6C222.3 213.1 222 212.8 222 212.5C222 212.2 222.3 211.9 222.6 211.9H270.1C270.5 211.9 270.7 212.2 270.7 212.5Z" fill="#D2D9DC"/>
<path d="M205.101 162.6H149.901C149.601 162.6 149.301 162.3 149.301 162C149.301 161.7 149.601 161.4 149.901 161.4H205.101C205.401 161.4 205.701 161.7 205.701 162C205.601 162.3 205.401 162.6 205.101 162.6Z" fill="#D2D9DC"/>
<path d="M169.802 204.5H135.802C134.902 204.5 134.102 203.8 134.102 202.8V178.7C134.102 177.8 134.802 177 135.802 177H169.802C170.702 177 171.502 177.7 171.502 178.7V202.8C171.402 203.7 170.702 204.5 169.802 204.5Z" fill="#0054A6"/>
<path d="M148.402 184.499C148.402 183.499 149.202 182.699 150.202 182.699C151.202 182.699 152.002 183.499 152.002 184.499C152.002 185.499 151.202 186.299 150.202 186.299C149.202 186.299 148.402 185.499 148.402 184.499Z" fill="#F9FAFB"/>
<path d="M164.902 198.699H140.702C140.102 198.699 139.802 197.999 140.102 197.499L146.902 188.699C147.202 188.299 147.802 188.299 148.002 188.699L149.302 190.399C149.602 190.799 150.202 190.799 150.402 190.399L154.602 184.999C154.902 184.599 155.502 184.599 155.702 184.999L165.402 197.499C165.802 197.999 165.502 198.699 164.902 198.699Z" fill="#F9FAFB"/>
<path d="M209.7 184.8H177.8C177.3 184.8 177 184.4 177 184V178.2C177 177.7 177.4 177.4 177.8 177.4H209.7C210.2 177.4 210.5 177.8 210.5 178.2V184C210.5 184.4 210.1 184.8 209.7 184.8Z" fill="#FFDD33"/>
<path d="M210.5 206.1C210.5 206.3 210.4 206.6 210.2 206.7C210 206.8 209.8 207 209.6 207H177.9C177.4 207 177 206.6 177 206.1C177 205.9 177.1 205.6 177.3 205.5C177.5 205.3 177.7 205.2 177.9 205.2H209.6C210.1 205.2 210.5 205.6 210.5 206.1Z" fill="#839299"/>
<path d="M210.502 221.9C210.502 222.1 210.402 222.4 210.202 222.5C210.002 222.6 209.802 222.8 209.602 222.8H135.002C134.502 222.8 134.102 222.4 134.102 221.9C134.102 221.7 134.202 221.4 134.402 221.3C134.602 221.1 134.802 221 135.002 221H209.602C210.102 221 210.502 221.4 210.502 221.9Z" fill="#839299"/>
<path d="M210.5 200.799C210.5 200.999 210.4 201.299 210.2 201.399C210 201.599 209.8 201.699 209.6 201.699H177.9C177.4 201.699 177 201.299 177 200.799C177 200.599 177.1 200.299 177.3 200.199C177.5 199.999 177.7 199.899 177.9 199.899H209.6C210.1 199.899 210.5 200.299 210.5 200.799Z" fill="#839299"/>
<path d="M177 190.2C177 190 177.1 189.7 177.3 189.6C177.5 189.4 177.7 189.3 177.9 189.3H209.6C210.1 189.3 210.5 189.7 210.5 190.2C210.5 190.7 210.1 191.1 209.6 191.1H177.9C177.4 191.1 177 190.7 177 190.2Z" fill="#839299"/>
<path d="M210.502 216.6C210.502 216.8 210.402 217.1 210.202 217.2C210.002 217.4 209.802 217.5 209.602 217.5H135.002C134.502 217.5 134.102 217.1 134.102 216.6C134.102 216.4 134.202 216.1 134.402 216C134.602 215.8 134.802 215.7 135.002 215.7H209.602C210.102 215.7 210.502 216.1 210.502 216.6Z" fill="#839299"/>
<path d="M210.5 195.5C210.5 195.7 210.4 196 210.2 196.1C210 196.3 209.8 196.4 209.6 196.4H177.9C177.4 196.4 177 196 177 195.5C177 195.3 177.1 195 177.3 194.9C177.5 194.7 177.7 194.6 177.9 194.6H209.6C210.1 194.6 210.5 195 210.5 195.5Z" fill="#839299"/>
<path d="M210.502 211.4C210.502 211.6 210.402 211.9 210.202 212C210.002 212.2 209.802 212.3 209.602 212.3H135.002C134.502 212.3 134.102 211.9 134.102 211.4C134.102 211.2 134.202 210.9 134.402 210.8C134.602 210.6 134.802 210.5 135.002 210.5H209.602C210.102 210.5 210.502 210.9 210.502 211.4Z" fill="#839299"/>
<path d="M108.384 187.66C108.384 187.656 108.383 187.654 108.381 187.654C108.379 187.654 108.377 187.65 108.377 187.64C108.367 187.575 108.361 187.517 108.36 187.467C108.358 187.416 108.358 187.367 108.359 187.318C108.36 187.27 108.36 187.22 108.358 187.167C108.357 187.114 108.353 187.049 108.346 186.97C108.346 186.935 108.344 186.905 108.341 186.881C108.338 186.857 108.334 186.843 108.329 186.839L108.316 186.84C108.29 186.841 108.242 186.84 108.171 186.837C108.101 186.834 108.025 186.832 107.944 186.83C107.862 186.828 107.787 186.823 107.716 186.817C107.646 186.81 107.601 186.802 107.584 186.794C107.579 186.79 107.577 186.786 107.577 186.781C107.579 186.732 107.579 186.663 107.575 186.57C107.57 186.478 107.564 186.385 107.557 186.291C107.55 186.197 107.544 186.112 107.537 186.038C107.531 185.963 107.527 185.92 107.527 185.906C107.541 185.91 107.589 185.908 107.672 185.899C107.755 185.891 107.846 185.882 107.945 185.873C108.043 185.863 108.134 185.854 108.218 185.842C108.301 185.831 108.348 185.823 108.362 185.818C108.36 185.77 108.36 185.712 108.36 185.644C108.36 185.576 108.362 185.495 108.364 185.403C108.367 185.342 108.37 185.284 108.372 185.228C108.375 185.173 108.378 185.124 108.382 185.08C108.385 185.053 108.388 185.032 108.39 185.017C108.391 185.002 108.395 184.983 108.398 184.961C108.425 184.978 108.484 184.987 108.574 184.989C108.664 184.991 108.76 184.988 108.863 184.981C108.966 184.974 109.065 184.968 109.16 184.964C109.254 184.959 109.319 184.958 109.354 184.961C109.355 185.01 109.357 185.075 109.36 185.159C109.362 185.243 109.364 185.327 109.367 185.412C109.369 185.498 109.371 185.575 109.373 185.642C109.375 185.711 109.38 185.755 109.39 185.777C109.443 185.78 109.504 185.78 109.574 185.778C109.645 185.776 109.717 185.774 109.792 185.773C109.866 185.771 109.939 185.77 110.009 185.77C110.079 185.771 110.138 185.774 110.187 185.782C110.183 185.966 110.186 186.131 110.193 186.276C110.202 186.421 110.199 186.574 110.186 186.737C110.173 186.746 110.129 186.753 110.055 186.757C109.98 186.761 109.898 186.765 109.808 186.767C109.718 186.77 109.633 186.772 109.554 186.777C109.476 186.781 109.425 186.79 109.404 186.804C109.409 186.843 109.411 186.9 109.408 186.975C109.406 187.05 109.402 187.129 109.398 187.212C109.394 187.296 109.389 187.375 109.385 187.449C109.38 187.524 109.379 187.577 109.379 187.608L109.38 187.621C109.38 187.634 109.33 187.643 109.229 187.648C109.129 187.653 109.018 187.656 108.897 187.657C108.776 187.659 108.664 187.658 108.558 187.657C108.451 187.654 108.393 187.655 108.384 187.66L108.384 187.66ZM120.779 205.403C120.295 205.236 119.913 204.854 119.746 204.371C119.716 204.282 119.595 204.282 119.564 204.371C119.397 204.854 119.014 205.236 118.531 205.403C118.442 205.433 118.442 205.554 118.531 205.585C119.014 205.752 119.397 206.135 119.564 206.619C119.594 206.707 119.715 206.707 119.746 206.619C119.914 206.135 120.295 205.754 120.779 205.585C120.867 205.554 120.867 205.433 120.779 205.403Z" fill="#D9D9E7"/>
<path d="M94.4355 189.039C94.425 189.038 94.4144 189.037 94.4038 189.036C94.5368 189.068 85.2939 185.116 84.5664 168.096C87.3969 165.513 89.3648 163.014 92.2755 160.62C92.2846 160.613 92.2938 160.607 92.303 160.6C92.3121 160.604 92.322 160.609 92.3311 160.613C96.1522 162.791 101.302 164.49 105.181 166.469C106.637 186.231 94.6458 188.984 94.4355 189.039Z" fill="#002548"/>
<path d="M94.4294 189.061C94.4188 189.06 94.4082 189.059 94.3977 189.058C94.5306 189.09 84.3759 185.062 83.6484 168.042C86.4789 165.459 89.3516 162.97 92.2623 160.576C92.2715 160.569 92.2806 160.563 92.2898 160.556C92.2989 160.56 92.3088 160.565 92.3179 160.569C96.1201 162.737 99.972 164.816 103.871 166.806C105.327 186.567 94.6397 189.005 94.4294 189.061Z" fill="#002548"/>
<path d="M94.223 187.66C92.6554 186.868 85.3593 182.639 84.5664 168.714C87.1162 166.441 89.6997 164.242 92.3121 162.119C95.6738 164.07 99.0608 165.942 102.47 167.734C103.304 183.595 95.8968 187.083 94.223 187.66Z" fill="#002548"/>
<path d="M94.5936 187.519C94.4515 187.578 94.3248 187.624 94.2235 187.66C94.0631 187.578 93.8429 187.463 93.5748 187.302C91.9861 177.685 91.9883 168.347 92.2746 162.149L92.3112 162.118C92.6328 162.306 92.9543 162.491 93.2758 162.676C96.3209 164.425 99.3871 166.112 102.471 167.733C103.254 182.621 96.774 186.606 94.5936 187.519Z" fill="#002548"/>
<path d="M91.4404 177.555C91.439 177.543 91.4362 177.537 91.4306 177.537C91.4256 177.537 91.4221 177.525 91.4193 177.5C91.3792 177.317 91.3525 177.154 91.3377 177.012C91.323 176.871 91.3103 176.733 91.3018 176.597C91.2927 176.462 91.2807 176.321 91.266 176.173C91.2512 176.026 91.2273 175.841 91.1956 175.62C91.1858 175.522 91.1752 175.439 91.1633 175.371C91.1513 175.304 91.14 175.264 91.1295 175.253C91.1197 175.253 91.1098 175.253 91.0999 175.253C91.0401 175.255 90.9304 175.252 90.7714 175.245C90.6124 175.238 90.4428 175.231 90.2606 175.224C90.0797 175.217 89.9109 175.205 89.7547 175.185C89.5992 175.165 89.5014 175.144 89.4606 175.122C89.45 175.11 89.4437 175.098 89.443 175.086C89.4402 174.952 89.424 174.759 89.3952 174.504C89.367 174.249 89.336 173.992 89.303 173.732C89.2706 173.473 89.2404 173.24 89.213 173.034C89.1855 172.829 89.1707 172.708 89.168 172.671C89.1975 172.682 89.3017 172.673 89.4811 172.644C89.6619 172.616 89.8596 172.587 90.0763 172.556C90.2937 172.526 90.4956 172.494 90.6807 172.459C90.8664 172.423 90.9741 172.399 91.0029 172.385C90.9917 172.25 90.9804 172.086 90.9698 171.895C90.9586 171.704 90.948 171.479 90.9375 171.22C90.9339 171.047 90.9311 170.883 90.929 170.727C90.9269 170.573 90.9262 170.433 90.9269 170.309C90.9311 170.235 90.9339 170.176 90.9361 170.132C90.9375 170.089 90.9417 170.036 90.9466 169.973C91.0099 170.018 91.145 170.039 91.3512 170.036C91.5594 170.033 91.7824 170.016 92.0217 169.985C92.2623 169.955 92.4938 169.928 92.7175 169.905C92.9412 169.881 93.0967 169.874 93.1819 169.88C93.1925 170.019 93.2065 170.207 93.2248 170.446C93.2431 170.685 93.2621 170.926 93.2825 171.172C93.3022 171.417 93.3205 171.637 93.3367 171.831C93.3529 172.026 93.3746 172.154 93.4014 172.216C93.5294 172.222 93.6786 172.219 93.8496 172.21C94.0213 172.201 94.1993 172.191 94.3829 172.181C94.5679 172.172 94.748 172.165 94.9239 172.162C95.1005 172.159 95.2511 172.167 95.3763 172.186C95.4002 172.722 95.4382 173.202 95.4889 173.622C95.5388 174.042 95.5649 174.489 95.5677 174.963C95.5367 174.989 95.427 175.009 95.2398 175.021C95.0527 175.033 94.8479 175.042 94.6242 175.049C94.4018 175.056 94.1943 175.066 94.0022 175.078C93.8108 175.091 93.6898 175.116 93.6406 175.155C93.6624 175.268 93.6779 175.431 93.6891 175.645C93.6997 175.859 93.7102 176.085 93.7194 176.324C93.7278 176.563 93.7356 176.788 93.7426 177.002C93.7496 177.215 93.7581 177.366 93.7672 177.453L93.7714 177.491C93.7757 177.528 93.6554 177.551 93.4133 177.56C93.1727 177.569 92.9096 177.572 92.6239 177.569C92.3404 177.566 92.0765 177.559 91.8317 177.549C91.5896 177.541 91.4595 177.543 91.4405 177.555H91.4404Z" fill="#C7D1D8"/>
<path d="M116.238 214.302C115.789 215.404 114.353 215.512 112.928 214.602C112.817 214.53 112.708 214.454 112.602 214.374C112.497 214.295 112.39 214.208 112.291 214.123C110.967 212.966 110.273 211.255 110.722 210.153C111.172 209.051 112.608 208.943 114.033 209.853C114.138 209.921 114.249 209.998 114.355 210.078C114.464 210.16 114.567 210.244 114.669 210.332C115.994 211.49 116.687 213.2 116.238 214.302Z" fill="#D9D9E7"/>
<path d="M116.828 213.544C116.379 214.645 114.943 214.754 113.518 213.843C113.407 213.771 113.298 213.696 113.192 213.616C113.087 213.537 112.98 213.449 112.881 213.364C111.557 212.208 110.863 210.496 111.312 209.395C111.762 208.293 113.198 208.184 114.623 209.095C114.728 209.163 114.839 209.24 114.945 209.319C115.054 209.402 115.157 209.486 115.259 209.573C116.583 210.731 117.277 212.442 116.828 213.544Z" fill="#002548"/>
<path d="M115.261 209.574L113.52 213.843C113.408 213.771 113.3 213.695 113.194 213.616C113.088 213.536 112.981 213.449 112.883 213.364L114.624 209.095C114.73 209.163 114.841 209.24 114.946 209.319C115.055 209.401 115.159 209.486 115.261 209.574Z" fill="#D9D9E7"/>
<path d="M117.227 191.387L119.719 189.262C120.331 188.741 121.252 188.815 121.772 189.425C122.294 190.037 122.22 190.958 121.608 191.478L119.116 193.603L117.227 191.387Z" fill="#D9D9E7"/>
<path d="M115.789 194.528C115.232 193.875 115.311 192.892 115.964 192.335L118.341 190.31L120.359 192.677L117.982 194.703C117.328 195.259 116.345 195.181 115.789 194.528Z" fill="#002548"/>
<path d="M74.793 196.902L74.812 193.93L79.0158 191.994L78.2265 196.551L74.793 196.902ZM88.1518 194.564L87.1365 191.49L89.5181 191.027L91.7435 194.204L88.1518 194.564Z" fill="#002548"/>
<path d="M103.316 192.079C105.582 192.459 108.859 193.111 108.859 194.083V224.983C107.545 225.711 106.331 226.197 103.316 227.25C95.1565 226.283 80.0859 219.681 80.0859 219.681L103.316 192.079Z" fill="#C8C8DC"/>
<path d="M59.6094 198.497C61.8756 198.877 103.318 191.107 103.318 192.079V227.25C88.589 226.968 61.8756 224.841 61.8756 224.841L59.6094 198.497Z" fill="#002548"/>
<path d="M77.7533 217.597C77.7526 217.578 77.7484 217.567 77.7392 217.567C77.7301 217.566 77.7259 217.547 77.7245 217.508C77.6794 217.217 77.6527 216.96 77.6443 216.738C77.6358 216.516 77.6316 216.299 77.633 216.086C77.6338 215.874 77.6295 215.651 77.6204 215.42C77.6119 215.187 77.5922 214.896 77.5627 214.547C77.557 214.391 77.5472 214.26 77.5345 214.153C77.5218 214.046 77.5064 213.983 77.4888 213.963L77.4374 213.962C77.3347 213.96 77.1454 213.946 76.8739 213.923C76.6037 213.899 76.316 213.875 76.0099 213.85C75.706 213.826 75.4259 213.794 75.1677 213.752C74.9116 213.711 74.7512 213.671 74.6872 213.633C74.6703 213.614 74.6619 213.595 74.6612 213.577C74.6689 213.373 74.6604 213.075 74.6366 212.685C74.6126 212.294 74.5845 211.898 74.5521 211.497C74.5204 211.096 74.4902 210.737 74.4614 210.42C74.4325 210.102 74.417 209.916 74.4149 209.859C74.4628 209.876 74.6366 209.862 74.937 209.819C75.2409 209.776 75.5772 209.731 75.9452 209.684C76.3181 209.636 76.6657 209.585 76.9879 209.529C77.3123 209.472 77.5015 209.433 77.5529 209.411C77.5452 209.194 77.5395 208.932 77.5374 208.625C77.5346 208.319 77.5339 207.956 77.536 207.54C77.543 207.262 77.5515 206.997 77.5599 206.747C77.5676 206.498 77.5768 206.272 77.5874 206.071C77.6 205.949 77.6099 205.854 77.6169 205.782C77.6232 205.712 77.6338 205.625 77.6472 205.523C77.7555 205.591 77.9919 205.615 78.3585 205.594C78.7293 205.573 79.131 205.529 79.5658 205.459C80.0055 205.39 80.4333 205.326 80.8463 205.269C81.2642 205.211 81.5548 205.184 81.7145 205.187C81.7216 205.421 81.7321 205.739 81.7448 206.142C81.7574 206.545 81.7708 206.951 81.7835 207.364C81.7962 207.775 81.8081 208.145 81.8186 208.471C81.8292 208.798 81.8553 209.012 81.8996 209.116C82.1388 209.124 82.4195 209.119 82.7432 209.102L83.7648 209.047C84.1222 209.028 84.4732 209.014 84.8173 209.007C85.1642 209 85.4604 209.011 85.7045 209.043C85.6848 209.977 85.6968 210.808 85.739 211.537C85.7805 212.265 85.7678 213.035 85.7031 213.847C85.6384 213.891 85.4203 213.915 85.053 213.92C84.6886 213.925 84.291 213.923 83.8618 213.917C83.4369 213.911 83.0436 213.91 82.6798 213.914C82.3196 213.919 82.0923 213.951 81.9952 214.012C82.0206 214.2 82.029 214.469 82.0206 214.822C82.0121 215.174 82.0002 215.546 81.9833 215.938C81.9664 216.328 81.9481 216.698 81.9305 217.047C81.9122 217.395 81.9059 217.64 81.9101 217.784L81.9122 217.846C81.9136 217.907 81.6906 217.927 81.2474 217.903C80.809 217.881 80.3355 217.845 79.8254 217.797C79.3238 217.749 78.8601 217.699 78.4338 217.647C78.0122 217.597 77.7871 217.58 77.7533 217.597ZM98.7101 198.037C98.7319 198.204 90.8483 199.356 81.1017 200.612C71.355 201.867 63.4369 202.748 63.4151 202.582C63.3933 202.415 71.2769 201.262 81.0236 200.007C90.7702 198.751 98.6883 197.869 98.7101 198.037ZM98.8282 226.954C98.8191 227.122 90.8574 226.816 81.0453 226.271C71.2332 225.726 63.287 225.147 63.2969 224.979C63.3067 224.81 71.2677 225.116 81.0798 225.661C90.8919 226.206 98.8374 226.785 98.8282 226.954Z" fill="#C7D1D8"/>
<path d="M74.6244 195.135L90.2157 191.994C90.2157 191.994 89.5178 190.258 88.7079 189.266C83.9933 189.833 77.6597 191.168 75.1099 192.544C74.3437 192.958 74.6244 195.135 74.6244 195.135Z" fill="#002548"/>
<path fill-rule="evenodd" clip-rule="evenodd" d="M105.14 214.343L105.287 213.389L101.568 212.819L97.8498 212.25L97.7034 213.204C96.1126 214.067 95.6145 215.618 95.6145 215.618L94.2812 227.16C94.2812 227.16 95.6286 228.302 99.1148 228.836C102.88 229.413 104.334 228.715 104.334 228.715L106.41 217.271C106.411 217.271 106.4 215.643 105.14 214.343Z" fill="#163E64"/>
<path fill-rule="evenodd" clip-rule="evenodd" d="M97.244 210.408L97.1328 212.375C97.1328 212.375 98.0848 212.993 101.463 213.51C104.84 214.027 106.078 213.745 106.078 213.745L106.633 211.846C106.633 211.846 104.945 211.894 101.598 211.381C98.2515 210.869 97.244 210.408 97.244 210.408Z" fill="#002548"/>
<path fill-rule="evenodd" clip-rule="evenodd" d="M97.2422 210.408C97.2422 210.408 101.844 209.971 106.631 211.846C106.631 211.846 104.998 211.903 101.597 211.381C98.1941 210.861 97.2422 210.408 97.2422 210.408Z" fill="#A7A7C6"/>
<path fill-rule="evenodd" clip-rule="evenodd" d="M97.4602 217.786C96.0193 218.99 96.0552 224.777 96.3535 225C96.6518 225.223 101.675 226.541 104.4 226.009L105.592 218.694C105.592 218.694 100.344 218.189 97.4602 217.786Z" fill="#C8C8DC"/>
<path d="M100.21 223.562C100.211 223.556 100.21 223.553 100.208 223.553C100.205 223.552 100.205 223.547 100.206 223.536C100.208 223.454 100.214 223.381 100.223 223.32C100.233 223.258 100.243 223.197 100.255 223.138C100.267 223.079 100.278 223.017 100.288 222.953C100.298 222.888 100.307 222.807 100.317 222.709C100.324 222.666 100.328 222.629 100.33 222.599C100.332 222.569 100.331 222.551 100.326 222.545L100.31 222.542C100.277 222.537 100.218 222.525 100.133 222.506C100.047 222.487 99.9549 222.468 99.8564 222.446C99.7572 222.425 99.6657 222.403 99.5806 222.379C99.4962 222.354 99.4434 222.335 99.4237 222.321C99.4195 222.316 99.4174 222.31 99.4181 222.304C99.4329 222.245 99.4477 222.159 99.4624 222.045C99.4772 221.931 99.4905 221.817 99.5033 221.699C99.5159 221.582 99.5265 221.478 99.5356 221.385C99.5441 221.293 99.5504 221.238 99.5525 221.222C99.568 221.23 99.6278 221.238 99.7312 221.245C99.8347 221.253 99.9479 221.263 100.071 221.274C100.193 221.284 100.307 221.293 100.412 221.298C100.516 221.302 100.576 221.304 100.593 221.301C100.602 221.242 100.615 221.17 100.63 221.087C100.646 221.004 100.666 220.906 100.688 220.794C100.705 220.719 100.722 220.648 100.738 220.582C100.753 220.516 100.768 220.455 100.782 220.403C100.793 220.371 100.801 220.346 100.806 220.327C100.812 220.309 100.82 220.287 100.829 220.26C100.858 220.287 100.927 220.312 101.037 220.334C101.147 220.357 101.266 220.375 101.393 220.389C101.52 220.403 101.643 220.418 101.759 220.434C101.875 220.449 101.954 220.462 101.997 220.474C101.987 220.533 101.975 220.614 101.959 220.717C101.942 220.82 101.927 220.923 101.91 221.029C101.894 221.134 101.879 221.229 101.866 221.312C101.854 221.395 101.85 221.452 101.857 221.48C101.921 221.495 101.996 221.509 102.082 221.523C102.169 221.536 102.258 221.55 102.35 221.564C102.441 221.578 102.53 221.594 102.616 221.61C102.702 221.626 102.774 221.644 102.832 221.664C102.785 221.889 102.752 222.09 102.73 222.27C102.707 222.449 102.67 222.636 102.618 222.833C102.6 222.841 102.545 222.84 102.452 222.828C102.36 222.817 102.259 222.802 102.149 222.785C102.038 222.768 101.934 222.753 101.836 222.741C101.738 222.729 101.675 222.728 101.645 222.74C101.643 222.789 101.632 222.859 101.613 222.95C101.593 223.041 101.572 223.137 101.548 223.239C101.524 223.34 101.501 223.436 101.478 223.526C101.455 223.617 101.441 223.681 101.436 223.719L101.433 223.735C101.43 223.751 101.367 223.751 101.242 223.734C101.118 223.718 100.981 223.697 100.834 223.671C100.686 223.645 100.547 223.619 100.418 223.594C100.292 223.569 100.222 223.558 100.21 223.562Z" fill="#C7D1D8"/>
<path d="M142.1 159.3V164.9C142.1 165.1 141.9 165.3 141.7 165.3H139.4C139.2 165.3 139 165.1 139 164.9V159.3C139 159.1 139.2 158.9 139.4 158.9H141.7C141.9 158.9 142.1 159 142.1 159.3Z" fill="#0054A6"/>
<path d="M146.6 159.3V164.9C146.6 165.1 146.4 165.3 146.2 165.3H143.9C143.7 165.3 143.5 165.1 143.5 164.9V159.3C143.5 159.1 143.7 158.9 143.9 158.9H146.2C146.5 158.9 146.6 159 146.6 159.3Z" fill="#0054A6"/>
<path d="M330.3 169.1C330.2 169.1 330.1 169.1 330.1 169C330 168.9 330.1 168.8 330.2 168.7C331 168.3 331.8 167.9 332.6 167.5C332.7 167.4 332.8 167.5 332.9 167.6C333 167.7 332.9 167.8 332.8 167.9C332.1 168.2 331.3 168.7 330.3 169.1C330.4 169.1 330.4 169.1 330.3 169.1ZM335.1 166.4C335 166.4 335 166.4 334.9 166.3C334.8 166.2 334.9 166.1 335 166C335.8 165.5 336.5 165 337.3 164.5C337.4 164.4 337.5 164.5 337.6 164.6C337.7 164.7 337.6 164.8 337.5 164.9C336.8 165.4 336 165.9 335.2 166.4H335.1ZM339.5 163.3C339.4 163.3 339.4 163.3 339.3 163.2C339.2 163.1 339.2 163 339.3 162.9C340 162.3 340.7 161.8 341.4 161.2C341.5 161.1 341.6 161.1 341.7 161.2C341.8 161.3 341.8 161.4 341.7 161.5C341 162.1 340.3 162.7 339.6 163.3C339.6 163.3 339.6 163.3 339.5 163.3ZM343.6 159.7C343.5 159.7 343.5 159.7 343.4 159.6C343.3 159.5 343.3 159.4 343.4 159.3C344 158.7 344.7 158 345.3 157.3C345.4 157.2 345.5 157.2 345.6 157.3C345.7 157.4 345.7 157.5 345.6 157.6C345 158.3 344.4 158.9 343.7 159.6C343.7 159.7 343.7 159.7 343.6 159.7ZM347.2 155.7C347.1 155.7 347.1 155.7 347.1 155.6C347 155.5 347 155.4 347.1 155.3C347.7 154.6 348.2 153.9 348.7 153.1C348.8 153 348.9 153 349 153C349.1 153.1 349.1 153.2 349.1 153.3C348.6 154 348 154.8 347.4 155.5C347.4 155.6 347.3 155.7 347.2 155.7ZM350.4 151.3H350.3C350.2 151.2 350.2 151.1 350.2 151C350.7 150.2 351.2 149.5 351.6 148.7C351.7 148.6 351.8 148.6 351.9 148.6C352 148.7 352 148.8 352 148.9C351.6 149.7 351.1 150.5 350.6 151.2C350.6 151.2 350.5 151.3 350.4 151.3ZM353.1 146.5C352.9 146.4 352.8 146.3 352.9 146.2C353.3 145.4 353.7 144.6 354 143.7C354 143.6 354.2 143.5 354.3 143.6C354.4 143.6 354.5 143.8 354.4 143.9C354 144.7 353.7 145.6 353.3 146.4C353.3 146.5 353.2 146.5 353.1 146.5ZM355.2 141.5C355 141.4 354.9 141.3 355 141.2C355.3 140.4 355.6 139.5 355.8 138.6C355.8 138.5 356 138.4 356.1 138.4C356.2 138.4 356.3 138.6 356.3 138.7C356 139.6 355.8 140.5 355.5 141.3C355.4 141.4 355.3 141.5 355.2 141.5ZM356.7 136.3C356.5 136.3 356.5 136.1 356.5 136C356.7 135.1 356.9 134.2 357 133.3C357 133.2 357.1 133.1 357.3 133.1C357.4 133.1 357.5 133.2 357.5 133.4C357.3 134.3 357.2 135.2 357 136.1C356.9 136.2 356.8 136.3 356.7 136.3ZM114.3 133.3C113.4 133.3 112.5 133.3 111.6 133.3C111.5 133.3 111.4 133.2 111.4 133.1C111.4 133 111.5 132.9 111.6 132.9C112.5 132.9 113.4 132.9 114.3 132.9C114.4 132.9 114.5 133 114.5 133.1C114.6 133.2 114.5 133.3 114.3 133.3ZM117.1 133.3C117 133.3 116.9 133.2 116.9 133.1C116.9 133 117 132.9 117.1 132.9C118 132.9 118.9 132.9 119.8 132.8C119.9 132.8 120 132.9 120 133C120 133.1 119.9 133.2 119.8 133.2C118.9 133.2 118 133.2 117.1 133.3ZM108.9 133.2C108 133.2 107.1 133.1 106.2 133.1C106.1 133.1 106 133 106 132.9C106 132.8 106.1 132.7 106.2 132.7C107.1 132.7 108 132.8 108.9 132.8C109 132.8 109.1 132.9 109.1 133C109.1 133.1 109 133.2 108.9 133.2ZM122.5 133.1C122.4 133.1 122.3 133 122.3 132.9C122.3 132.8 122.4 132.7 122.5 132.7C123.4 132.7 124.3 132.6 125.2 132.6C125.3 132.6 125.4 132.7 125.4 132.8C125.4 132.9 125.3 133 125.2 133C124.3 133 123.4 133.1 122.5 133.1ZM103.5 132.9C102.6 132.8 101.7 132.8 100.8 132.7C100.7 132.7 100.6 132.6 100.6 132.5C100.6 132.4 100.7 132.3 100.8 132.3C101.7 132.4 102.6 132.5 103.5 132.5C103.6 132.5 103.7 132.6 103.7 132.7C103.7 132.8 103.6 132.9 103.5 132.9ZM127.9 132.8C127.8 132.8 127.7 132.7 127.7 132.6C127.7 132.5 127.8 132.4 127.9 132.4C128.8 132.3 129.7 132.3 130.6 132.2C130.7 132.2 130.8 132.3 130.8 132.4C130.8 132.5 130.7 132.6 130.6 132.6C129.8 132.7 128.9 132.7 127.9 132.8ZM98 132.4C97.1 132.3 96.2 132.2 95.3 132.1C95.2 132.1 95.1 132 95.1 131.8C95.1 131.7 95.2 131.6 95.4 131.6C96.3 131.7 97.2 131.8 98.1 131.9C98.2 131.9 98.3 132 98.3 132.1C98.2 132.3 98.2 132.4 98 132.4ZM133.4 132.3C133.3 132.3 133.2 132.2 133.2 132.1C133.2 132 133.3 131.9 133.4 131.9C134.3 131.8 135.2 131.7 136.1 131.6C136.2 131.6 136.3 131.7 136.4 131.8C136.5 131.9 136.3 132 136.2 132.1C135.2 132.2 134.3 132.3 133.4 132.3ZM138.8 131.7C138.7 131.7 138.6 131.6 138.6 131.5C138.6 131.4 138.7 131.3 138.8 131.2C139.7 131.1 140.6 131 141.5 130.9C141.6 130.9 141.7 131 141.8 131.1C141.8 131.2 141.7 131.3 141.6 131.4C140.6 131.5 139.7 131.6 138.8 131.7ZM92.6 131.7C91.7 131.6 90.8 131.4 89.9 131.3C89.8 131.3 89.7 131.2 89.7 131C89.7 130.9 89.8 130.8 90 130.8C90.9 131 91.8 131.1 92.7 131.2C92.8 131.2 92.9 131.3 92.9 131.5C92.8 131.6 92.7 131.7 92.6 131.7ZM144.2 131C144.1 131 144 130.9 144 130.8C144 130.7 144.1 130.6 144.2 130.5C145.1 130.4 146 130.2 146.9 130.1C147 130.1 147.1 130.2 147.2 130.3C147.2 130.4 147.1 130.5 147 130.6C146 130.7 145.1 130.9 144.2 131ZM357.6 130.9C357.4 130.9 357.4 130.8 357.4 130.6C357.5 129.7 357.6 128.8 357.7 127.9C357.7 127.8 357.8 127.7 357.9 127.7C358 127.7 358.1 127.8 358.1 127.9C358 128.8 358 129.7 357.8 130.6C357.8 130.8 357.7 130.9 357.6 130.9ZM87.3 130.8C86.4 130.6 85.5 130.4 84.6 130.3C84.5 130.3 84.4 130.2 84.4 130C84.4 129.9 84.5 129.8 84.7 129.8C85.6 130 86.5 130.2 87.4 130.3C87.5 130.3 87.6 130.4 87.6 130.6C87.5 130.7 87.4 130.8 87.3 130.8ZM149.5 130.2C149.4 130.2 149.3 130.1 149.3 130C149.3 129.9 149.4 129.8 149.5 129.7C150.4 129.5 151.3 129.4 152.2 129.2C152.3 129.2 152.4 129.3 152.5 129.4C152.5 129.5 152.4 129.6 152.3 129.7C151.4 129.9 150.5 130 149.5 130.2C149.6 130.2 149.6 130.2 149.5 130.2ZM82 129.6C81.9 129.6 81.9 129.6 82 129.6C81.1 129.4 80.2 129.2 79.3 128.9C79.2 128.9 79.1 128.7 79.1 128.6C79.1 128.5 79.3 128.4 79.4 128.4C80.3 128.6 81.2 128.8 82 129.1C82.1 129.1 82.2 129.3 82.2 129.4C82.1 129.6 82.1 129.6 82 129.6ZM154.9 129.2C154.8 129.2 154.7 129.1 154.7 129C154.7 128.9 154.8 128.8 154.9 128.7C155.8 128.5 156.7 128.4 157.6 128.2C157.7 128.2 157.8 128.3 157.9 128.4C157.9 128.5 157.8 128.6 157.7 128.7C156.7 128.9 155.8 129 154.9 129.2ZM76.7 128.3C75.8 128 74.9 127.8 74 127.5C73.9 127.5 73.8 127.3 73.8 127.2C73.8 127.1 74 127 74.1 127C75 127.3 75.8 127.5 76.7 127.8C76.8 127.8 76.9 128 76.9 128.1C76.9 128.2 76.8 128.3 76.7 128.3ZM160.2 128.1C160.1 128.1 160 128 160 127.9C160 127.8 160.1 127.7 160.2 127.6C161.1 127.4 162 127.2 162.9 127C163 127 163.1 127.1 163.2 127.2C163.2 127.3 163.1 127.4 163 127.5C162.1 127.8 161.2 127.9 160.2 128.1ZM165.5 127C165.4 127 165.3 126.9 165.3 126.8C165.3 126.7 165.3 126.6 165.5 126.5C166.4 126.3 167.3 126.1 168.1 125.9C168.2 125.9 168.3 125.9 168.4 126.1C168.4 126.2 168.4 126.3 168.2 126.4C167.4 126.6 166.5 126.8 165.5 127C165.6 127 165.6 127 165.5 127ZM71.5 126.7C70.6 126.4 69.7 126.1 68.9 125.8C68.8 125.8 68.7 125.6 68.8 125.5C68.8 125.4 69 125.3 69.1 125.4C69.9 125.7 70.8 126 71.7 126.3C71.8 126.3 71.9 126.5 71.8 126.6C71.7 126.6 71.6 126.7 71.5 126.7ZM170.8 125.7C170.7 125.7 170.6 125.6 170.6 125.5C170.6 125.4 170.6 125.3 170.8 125.2C171.7 125 172.6 124.8 173.4 124.5C173.5 124.5 173.6 124.5 173.7 124.7C173.7 124.8 173.7 124.9 173.5 125C172.7 125.3 171.8 125.5 170.8 125.7C170.9 125.7 170.9 125.7 170.8 125.7ZM358 125.5C357.9 125.5 357.8 125.4 357.8 125.3C357.8 124.9 357.8 124.6 357.8 124.2C357.8 123.7 357.8 123.1 357.8 122.6C357.8 122.5 357.9 122.4 358 122.4C358.1 122.4 358.2 122.5 358.2 122.6C358.2 123.1 358.2 123.7 358.2 124.2C358.2 124.6 358.2 124.9 358.2 125.3C358.2 125.4 358.1 125.5 358 125.5ZM66.4 124.8C66.3 124.8 66.3 124.8 66.4 124.8C65.5 124.5 64.6 124.1 63.8 123.8C63.7 123.8 63.6 123.6 63.7 123.5C63.7 123.4 63.9 123.3 64 123.4C64.8 123.7 65.7 124.1 66.5 124.4C66.6 124.4 66.7 124.6 66.6 124.7C66.5 124.8 66.5 124.8 66.4 124.8ZM176.1 124.4C176 124.4 175.9 124.3 175.9 124.2C175.9 124.1 175.9 124 176.1 123.9C177 123.7 177.9 123.4 178.7 123.2C178.8 123.2 178.9 123.2 179 123.4C179 123.5 179 123.6 178.8 123.7C177.9 123.9 177.1 124.1 176.1 124.4ZM181.4 123C181.3 123 181.2 122.9 181.2 122.8C181.2 122.7 181.2 122.6 181.4 122.5C182.3 122.3 183.1 122 184 121.8C184.1 121.8 184.2 121.8 184.3 122C184.3 122.1 184.3 122.2 184.1 122.3C183.2 122.5 182.3 122.7 181.4 123ZM61.3 122.8C60.4 122.4 59.5 122 58.7 121.6C58.6 121.5 58.5 121.4 58.6 121.3C58.7 121.2 58.8 121.1 58.9 121.2C59.7 121.6 60.5 122 61.4 122.3C61.5 122.4 61.6 122.5 61.5 122.6C61.5 122.7 61.4 122.8 61.3 122.8ZM186.6 121.5C186.5 121.5 186.4 121.4 186.4 121.3C186.4 121.2 186.4 121.1 186.6 121C187.5 120.7 188.3 120.5 189.2 120.2C189.3 120.2 189.4 120.2 189.5 120.3C189.5 120.4 189.5 120.5 189.4 120.6C188.4 120.9 187.5 121.2 186.6 121.5ZM56.4 120.5H56.3C55.8 120.2 55.2 120 54.7 119.7C54.6 119.6 54.5 119.5 54.6 119.4C54.7 119.3 54.8 119.2 54.9 119.3C55.4 119.6 56 119.9 56.5 120.1C56.6 120.2 56.7 120.3 56.6 120.4C56.6 120.4 56.5 120.5 56.4 120.5ZM357.9 120C357.8 120 357.7 119.9 357.7 119.8C357.6 118.9 357.5 118 357.4 117.1C357.4 117 357.5 116.9 357.6 116.8C357.7 116.8 357.8 116.9 357.9 117C358 117.9 358.1 118.8 358.2 119.7C358.1 119.9 358 120 357.9 120ZM191.8 119.9C191.7 119.9 191.6 119.8 191.6 119.7C191.6 119.6 191.6 119.5 191.7 119.4C192.6 119.1 193.4 118.8 194.3 118.5C194.4 118.5 194.5 118.5 194.6 118.6C194.6 118.7 194.6 118.8 194.5 118.9C193.6 119.3 192.7 119.6 191.8 119.9ZM197 118.1C196.9 118.1 196.8 118 196.8 117.9C196.8 117.8 196.8 117.7 196.9 117.6C197.8 117.3 198.6 117 199.4 116.7C199.5 116.7 199.6 116.7 199.7 116.8C199.7 116.9 199.7 117 199.6 117.1C198.7 117.5 197.9 117.8 197 118.1ZM202 116.2C201.9 116.2 201.8 116.1 201.8 116.1C201.8 116 201.8 115.9 201.9 115.8C202.7 115.5 203.6 115.1 204.4 114.8C204.5 114.8 204.6 114.8 204.7 114.9C204.7 115 204.7 115.1 204.6 115.2C203.8 115.5 203 115.8 202 116.2C202.1 116.2 202.1 116.2 202 116.2ZM357.2 114.6C357.1 114.6 357 114.5 357 114.4C356.9 113.5 356.7 112.6 356.5 111.7C356.5 111.6 356.6 111.5 356.7 111.4C356.8 111.4 356.9 111.5 357 111.6C357.2 112.5 357.4 113.4 357.5 114.3C357.4 114.5 357.4 114.6 357.2 114.6ZM207 114C206.9 114 206.8 114 206.8 113.9C206.7 113.8 206.8 113.7 206.9 113.6C207.7 113.2 208.6 112.8 209.4 112.4C209.5 112.3 209.6 112.4 209.7 112.5C209.8 112.6 209.7 112.7 209.6 112.8C208.8 113.2 208 113.6 207 114C207.1 114 207.1 114 207 114ZM211.9 111.6C211.8 111.6 211.7 111.6 211.7 111.5C211.6 111.4 211.7 111.3 211.8 111.2C212.6 110.8 213.4 110.3 214.2 109.9C214.3 109.8 214.4 109.9 214.5 110C214.6 110.1 214.5 110.2 214.4 110.3C213.6 110.7 212.8 111.2 212 111.6H211.9ZM356 109.3C355.9 109.3 355.8 109.2 355.8 109.1C355.6 108.2 355.3 107.4 355.1 106.5C355.1 106.4 355.1 106.3 355.2 106.2C355.3 106.2 355.4 106.2 355.5 106.3C355.8 107.2 356 108.1 356.3 108.9C356.3 109.2 356.2 109.3 356 109.3C356.1 109.3 356.1 109.3 356 109.3ZM216.6 108.9C216.5 108.9 216.4 108.9 216.4 108.8C216.3 108.7 216.4 108.6 216.5 108.5C217.3 108 218 107.6 218.8 107.1C218.9 107 219 107.1 219.1 107.2C219.2 107.3 219.1 107.4 219 107.5C218.2 108 217.4 108.5 216.7 109C216.7 108.9 216.7 108.9 216.6 108.9ZM221.2 106C221.1 106 221.1 106 221 105.9C220.9 105.8 221 105.7 221.1 105.6C221.8 105.1 222.6 104.6 223.3 104C223.4 103.9 223.5 104 223.6 104.1C223.7 104.2 223.6 104.3 223.5 104.4C222.8 104.9 222 105.5 221.3 106C221.3 106 221.3 106 221.2 106ZM354.4 104.1C354.3 104.1 354.2 104 354.2 104C353.9 103.1 353.6 102.3 353.2 101.5C353.2 101.4 353.2 101.3 353.3 101.2C353.4 101.2 353.5 101.2 353.6 101.3C353.9 102.1 354.3 103 354.6 103.8C354.7 103.9 354.6 104.1 354.4 104.1ZM225.6 102.8C225.5 102.8 225.5 102.8 225.4 102.7C225.3 102.6 225.3 102.5 225.4 102.4C226.1 101.9 226.8 101.3 227.6 100.8C227.7 100.7 227.8 100.7 227.9 100.8C228 100.9 228 101 227.9 101.1C227.2 101.7 226.5 102.2 225.7 102.7C225.7 102.8 225.7 102.8 225.6 102.8ZM229.9 99.4996C229.8 99.4996 229.8 99.4996 229.7 99.3996C229.6 99.2996 229.6 99.1996 229.7 99.0996C230.4 98.4996 231.1 97.9996 231.8 97.3996C231.9 97.2996 232 97.2996 232.1 97.3996C232.2 97.4996 232.2 97.5996 232.1 97.6996C231.4 98.2996 230.7 98.7996 230 99.3996C230 99.4996 230 99.4996 229.9 99.4996ZM352.3 99.0996C352.2 99.0996 352.1 99.0996 352.1 98.9996C351.7 98.1996 351.3 97.3996 350.9 96.5996C350.8 96.4996 350.9 96.3996 351 96.2996C351.1 96.1996 351.2 96.2996 351.3 96.3996C351.7 97.1996 352.1 97.9996 352.5 98.7996C352.6 98.8996 352.5 98.9996 352.3 99.0996C352.4 99.0996 352.4 99.0996 352.3 99.0996ZM234.2 96.0996C234.1 96.0996 234.1 96.0996 234 95.9996C233.9 95.8996 233.9 95.7996 234 95.6996L236.1 93.9996C236.2 93.8996 236.3 93.8996 236.4 93.9996C236.5 94.0996 236.5 94.1996 236.4 94.2996L234.3 95.9996C234.3 96.0996 234.2 96.0996 234.2 96.0996ZM349.8 94.2996C349.7 94.2996 349.6 94.2996 349.6 94.1996C349.1 93.3996 348.7 92.6996 348.2 91.8996C348.1 91.7996 348.2 91.6996 348.3 91.5996C348.4 91.4996 348.5 91.5996 348.6 91.6996C349.1 92.4996 349.6 93.1996 350.1 93.9996C350.2 94.0996 350.1 94.1996 350 94.2996C349.9 94.2996 349.8 94.2996 349.8 94.2996ZM238.4 92.6996C238.3 92.6996 238.3 92.6996 238.2 92.5996C238.1 92.4996 238.1 92.3996 238.2 92.2996C238.9 91.6996 239.6 91.1996 240.3 90.5996C240.4 90.4996 240.5 90.4996 240.6 90.5996C240.7 90.6996 240.7 90.7996 240.6 90.8996C239.9 91.4996 239.2 91.9996 238.5 92.5996C238.5 92.5996 238.5 92.6996 238.4 92.6996ZM346.8 89.7996C346.7 89.7996 346.7 89.7996 346.6 89.6996C346.5 89.5996 346.4 89.3996 346.3 89.2996C345.9 88.6996 345.4 88.0996 344.9 87.4996C344.8 87.3996 344.8 87.2996 344.9 87.1996C345 87.0996 345.1 87.0996 345.2 87.1996C345.7 87.7996 346.1 88.3996 346.6 88.9996C346.7 89.0996 346.8 89.2996 346.9 89.3996C347 89.4996 347 89.5996 346.9 89.6996C346.8 89.7996 346.8 89.7996 346.8 89.7996ZM242.7 89.2996C242.6 89.2996 242.6 89.2996 242.5 89.1996C242.4 89.0996 242.4 88.9996 242.5 88.8996C243.2 88.2996 243.9 87.7996 244.6 87.1996C244.7 87.0996 244.8 87.0996 244.9 87.1996C245 87.2996 245 87.3996 244.9 87.4996C244.2 88.0996 243.5 88.5996 242.8 89.1996L242.7 89.2996ZM247 85.8996C246.9 85.8996 246.9 85.8996 246.8 85.7996C246.7 85.6996 246.7 85.5996 246.8 85.4996C247.5 84.9996 248.3 84.3996 249 83.8996C249.1 83.7996 249.2 83.8996 249.3 83.9996C249.4 84.0996 249.3 84.1996 249.2 84.2996C248.5 84.7996 247.7 85.3996 247 85.8996ZM343.3 85.5996C343.2 85.5996 343.2 85.5996 343.1 85.4996C342.5 84.7996 341.9 84.1996 341.2 83.4996C341.1 83.3996 341.1 83.2996 341.2 83.1996C341.3 83.0996 341.4 83.0996 341.5 83.1996C342.1 83.7996 342.8 84.4996 343.4 85.1996C343.5 85.2996 343.5 85.3996 343.4 85.4996C343.4 85.5996 343.3 85.5996 343.3 85.5996ZM251.4 82.7996C251.3 82.7996 251.3 82.7996 251.2 82.6996C251.1 82.5996 251.2 82.4996 251.3 82.3996C252.1 81.8996 252.8 81.3996 253.6 80.8996C253.7 80.7996 253.8 80.8996 253.9 80.9996C254 81.0996 253.9 81.1996 253.8 81.2996C253 81.7996 252.3 82.2996 251.5 82.7996C251.5 82.7996 251.5 82.7996 251.4 82.7996ZM339.4 81.6996C339.3 81.6996 339.3 81.6996 339.2 81.5996C338.5 80.9996 337.8 80.3996 337.1 79.7996C337 79.6996 337 79.5996 337.1 79.4996C337.2 79.3996 337.3 79.3996 337.4 79.4996C338.1 80.0996 338.8 80.6996 339.5 81.2996C339.6 81.3996 339.6 81.4996 339.5 81.5996C339.6 81.6996 339.5 81.6996 339.4 81.6996ZM256 79.7996C255.9 79.7996 255.8 79.7996 255.8 79.6996C255.7 79.5996 255.8 79.4996 255.9 79.3996C256.7 78.8996 257.5 78.4996 258.2 77.9996C258.3 77.8996 258.4 77.9996 258.5 78.0996C258.6 78.1996 258.5 78.2996 258.4 78.3996C257.6 78.8996 256.8 79.2996 256.1 79.7996H256ZM335.2 78.2996H335.1C334.4 77.7996 333.6 77.1996 332.9 76.6996C332.8 76.5996 332.8 76.4996 332.8 76.3996C332.9 76.2996 333 76.2996 333.1 76.2996C333.9 76.7996 334.6 77.2996 335.3 77.8996C335.4 77.9996 335.4 78.0996 335.3 78.1996C335.4 78.2996 335.3 78.2996 335.2 78.2996ZM260.7 77.0996C260.6 77.0996 260.5 77.0996 260.5 76.9996C260.4 76.8996 260.5 76.7996 260.6 76.6996C261.4 76.2996 262.2 75.7996 263 75.3996C263.1 75.2996 263.2 75.3996 263.3 75.4996C263.4 75.5996 263.3 75.6996 263.2 75.7996C262.4 76.1996 261.6 76.5996 260.8 77.0996H260.7ZM330.7 75.2996H330.6C329.8 74.7996 329 74.3996 328.2 73.8996C328.1 73.7996 328 73.6996 328.1 73.5996C328.2 73.4996 328.3 73.3996 328.4 73.4996C329.2 73.8996 330 74.3996 330.8 74.8996C330.9 74.9996 330.9 75.0996 330.9 75.1996C330.9 75.1996 330.8 75.2996 330.7 75.2996ZM265.5 74.5996C265.4 74.5996 265.3 74.5996 265.3 74.4996C265.2 74.3996 265.3 74.2996 265.4 74.1996C266.2 73.7996 267.1 73.3996 267.9 73.0996C268 72.9996 268.1 73.0996 268.2 73.1996C268.3 73.2996 268.2 73.3996 268.1 73.4996C267.3 73.7996 266.4 74.1996 265.5 74.5996C265.6 74.5996 265.6 74.5996 265.5 74.5996ZM325.9 72.6996C325 72.2996 324.2 71.8996 323.3 71.4996C323.2 71.4996 323.1 71.2996 323.2 71.1996C323.2 71.0996 323.4 70.9996 323.5 71.0996C324.3 71.4996 325.2 71.7996 326 72.1996C326.1 72.2996 326.2 72.3996 326.1 72.4996C326.1 72.5996 326 72.6996 325.9 72.6996ZM270.5 72.3996C270.4 72.3996 270.3 72.2996 270.3 72.2996C270.3 72.1996 270.3 72.0996 270.4 71.9996C271.2 71.6996 272.1 71.2996 272.9 70.9996C273 70.9996 273.1 70.9996 273.2 71.0996C273.2 71.1996 273.2 71.2996 273.1 71.3996C272.3 71.6996 271.4 72.0996 270.5 72.3996ZM275.6 70.4996C275.5 70.4996 275.4 70.3996 275.4 70.2996C275.4 70.1996 275.4 70.0996 275.5 69.9996C276.4 69.6996 277.2 69.3996 278.1 69.1996C278.2 69.1996 278.3 69.1996 278.4 69.3996C278.4 69.4996 278.4 69.5996 278.2 69.6996C277.4 69.8996 276.5 70.1996 275.6 70.4996ZM320.9 70.4996C320 70.1996 319.1 69.8996 318.3 69.5996C318.2 69.5996 318.1 69.3996 318.2 69.2996C318.2 69.1996 318.4 69.0996 318.5 69.1996C319.4 69.4996 320.2 69.7996 321.1 70.0996C321.2 70.0996 321.3 70.2996 321.2 70.3996C321.1 70.3996 321 70.4996 320.9 70.4996ZM280.8 68.8996C280.7 68.8996 280.6 68.7996 280.6 68.6996C280.6 68.5996 280.6 68.4996 280.8 68.3996C281.7 68.1996 282.6 67.8996 283.4 67.6996C283.5 67.6996 283.6 67.6996 283.7 67.8996C283.7 67.9996 283.7 68.0996 283.5 68.1996C282.6 68.4996 281.8 68.6996 280.8 68.8996ZM315.8 68.7996C315.7 68.7996 315.7 68.7996 315.8 68.7996C314.9 68.4996 314 68.2996 313.1 68.0996C313 68.0996 312.9 67.8996 312.9 67.7996C312.9 67.6996 313.1 67.5996 313.2 67.5996C314.1 67.7996 315 67.9996 315.8 68.2996C315.9 68.2996 316 68.4996 316 68.5996C316 68.6996 315.9 68.7996 315.8 68.7996ZM286.1 67.6996C286 67.6996 285.9 67.5996 285.9 67.4996C285.9 67.3996 286 67.2996 286.1 67.1996C287 66.9996 287.9 66.8996 288.8 66.6996C288.9 66.6996 289 66.7996 289.1 66.8996C289.1 66.9996 289 67.0996 288.9 67.1996C288 67.3996 287.1 67.5996 286.1 67.6996ZM310.5 67.5996C309.6 67.3996 308.7 67.2996 307.8 67.1996C307.7 67.1996 307.6 67.0996 307.6 66.8996C307.6 66.7996 307.7 66.6996 307.9 66.6996C308.8 66.7996 309.7 66.9996 310.6 67.0996C310.7 67.0996 310.8 67.1996 310.8 67.3996C310.7 67.4996 310.6 67.5996 310.5 67.5996ZM291.5 66.8996C291.4 66.8996 291.3 66.7996 291.3 66.6996C291.3 66.5996 291.4 66.4996 291.5 66.3996C292.4 66.2996 293.3 66.1996 294.2 66.0996C294.3 66.0996 294.4 66.1996 294.4 66.2996C294.4 66.3996 294.3 66.4996 294.2 66.4996C293.3 66.6996 292.4 66.7996 291.5 66.8996ZM305.1 66.7996C304.2 66.6996 303.3 66.5996 302.4 66.5996C302.3 66.5996 302.2 66.4996 302.2 66.3996C302.2 66.2996 302.3 66.1996 302.4 66.1996C303.3 66.1996 304.2 66.2996 305.1 66.3996C305.2 66.3996 305.3 66.4996 305.3 66.5996C305.3 66.6996 305.2 66.7996 305.1 66.7996ZM296.9 66.4996C296.8 66.4996 296.7 66.3996 296.7 66.2996C296.7 66.1996 296.8 66.0996 296.9 66.0996C297.8 66.0996 298.7 66.0996 299.6 66.0996C299.7 66.0996 299.8 66.1996 299.8 66.2996C299.8 66.3996 299.7 66.4996 299.6 66.4996C298.7 66.4996 297.8 66.4996 296.9 66.4996Z" fill="#839299"/>
<path d="M59.9 129.6L44 109.9L70.6 113.2L59.9 129.6Z" fill="#D2D9DC"/>
<path d="M44 109.9L64.1 123.2L67.1 126.1L66.8 119L44 109.9Z" fill="#839299"/>
<path d="M67.0984 126.1L62.8984 125.1L64.0984 123.3L67.0984 126.1Z" fill="#5F737C"/>
<path d="M312.6 125.1C312.6 125.6 312.2 125.9 311.8 125.9C311.3 125.9 311 125.5 311 125.1C311 124.6 311.4 124.3 311.8 124.3C312.2 124.3 312.6 124.6 312.6 125.1Z" fill="#ED1C24"/>
<path d="M314.702 125.1C314.702 125.6 314.302 125.9 313.902 125.9C313.402 125.9 313.102 125.5 313.102 125.1C313.102 124.6 313.502 124.3 313.902 124.3C314.402 124.3 314.702 124.6 314.702 125.1Z" fill="#FFDD33"/>
<path d="M316.901 125.1C316.901 125.6 316.501 125.9 316.101 125.9C315.601 125.9 315.301 125.5 315.301 125.1C315.301 124.6 315.701 124.3 316.101 124.3C316.501 124.3 316.901 124.6 316.901 125.1Z" fill="#54CC5A"/>
</svg>
