<svg width="64" height="64" viewBox="0 0 64 64" fill="none" xmlns="http://www.w3.org/2000/svg">
<path fill-rule="evenodd" clip-rule="evenodd" d="M26.578 10.5777L42.9027 22.7891H49.2198C50.3058 22.7891 51.2287 22.1234 51.5714 21.0929C51.9142 20.0624 51.5738 18.9767 50.7043 18.3262L29.3187 2.32907C28.4937 1.71182 27.5358 1.40332 26.578 1.40332C25.6203 1.40332 24.6624 1.71195 23.8374 2.32907L2.45179 18.3262C1.58216 18.9767 1.24191 20.0624 1.58466 21.0929C1.92741 22.1234 2.85029 22.7891 3.93629 22.7891H10.2534L26.578 10.5777Z" fill="#F2671F"/>
<path fill-rule="evenodd" clip-rule="evenodd" d="M26.578 10.5775L42.9027 22.7888H45.0444C46.1303 22.7888 47.0533 22.1232 47.396 21.0927C47.7388 20.0623 47.3985 18.9765 46.5289 18.326L25.1433 2.32884C24.9335 2.17184 24.7152 2.03497 24.4904 1.91797C24.2657 2.03497 24.0473 2.17197 23.8375 2.32884L2.45179 18.326C1.58216 18.9765 1.24191 20.0623 1.58466 21.0927C1.92741 22.1232 2.85029 22.7888 3.93629 22.7888H10.2534L26.578 10.5775Z" fill="#FF8748"/>
<path fill-rule="evenodd" clip-rule="evenodd" d="M26.5785 8.28271C26.9377 8.28271 27.2969 8.39846 27.6063 8.62984L41.9477 19.3576C42.5689 19.8222 42.9033 20.49 42.9033 21.2658V32.0056C37.3274 33.5455 33.0108 38.1197 31.843 43.8401H12.7282C11.3654 43.8401 10.2539 42.7286 10.2539 41.3658V21.2658C10.2539 20.49 10.5883 19.8223 11.2095 19.3576L25.5509 8.62984C25.8603 8.39846 26.2194 8.28271 26.5787 8.28271H26.5785Z" fill="#B6DBFF"/>
<path fill-rule="evenodd" clip-rule="evenodd" d="M26.5785 8.28271C26.9377 8.28271 27.2968 8.39846 27.6063 8.62984L39.7485 17.7126V33.2655C35.7389 35.4056 32.7792 39.2545 31.843 43.8401H12.7282C11.3654 43.8401 10.2539 42.7286 10.2539 41.3658V21.2658C10.2539 20.49 10.5883 19.8223 11.2095 19.3576L25.5509 8.62984C25.8603 8.39846 26.2195 8.28271 26.5787 8.28271H26.5785Z" fill="#E3F1FF"/>
<path fill-rule="evenodd" clip-rule="evenodd" d="M26.5781 25.917C31.6528 25.917 35.819 29.8027 36.2656 34.761V35.8011C35.5756 36.4676 34.9468 37.197 34.3894 37.9809H16.8906V34.7611C17.3372 29.803 21.5035 25.917 26.5781 25.917Z" fill="#2A92FA"/>
<path fill-rule="evenodd" clip-rule="evenodd" d="M33.8891 37.9808H16.8906V34.7611C17.3262 29.9253 21.3001 26.1104 26.2039 25.9248C30.3197 26.8551 33.5045 30.4931 33.8891 34.7611V37.9808Z" fill="#4EB1FC"/>
<path d="M26.5762 25.8854C29.1349 25.8854 31.2091 23.8112 31.2091 21.2525C31.2091 18.6938 29.1349 16.6196 26.5762 16.6196C24.0176 16.6196 21.9434 18.6938 21.9434 21.2525C21.9434 23.8112 24.0176 25.8854 26.5762 25.8854Z" fill="#FDB0A0"/>
<path fill-rule="evenodd" clip-rule="evenodd" d="M25.6482 25.7926C23.5344 25.3628 21.9434 23.4936 21.9434 21.2528C21.9434 19.0119 23.5342 17.1428 25.6482 16.7129C27.7622 17.1426 29.3531 19.0119 29.3531 21.2528C29.3531 23.4936 27.7621 25.3628 25.6482 25.7926Z" fill="#FFCEC0"/>
<path fill-rule="evenodd" clip-rule="evenodd" d="M25.6499 25.9606L24.8691 33.768L26.5828 36.2209L28.2964 33.768L27.5156 25.9617C27.2065 25.9321 26.8933 25.917 26.5764 25.917C26.2639 25.917 25.9548 25.9319 25.6498 25.9607L25.6499 25.9606Z" fill="#F23353"/>
<path fill-rule="evenodd" clip-rule="evenodd" d="M25.6499 25.9606L24.8691 33.7679L26.0169 35.4108L27.1646 33.7679L26.4991 27.1136L26.3796 25.9189C26.134 25.9238 25.8906 25.9378 25.6499 25.9607V25.9606Z" fill="#FF5471"/>
<path fill-rule="evenodd" clip-rule="evenodd" d="M48.4439 36.7092L49.9328 35.7106L52.2874 38.0652L51.2889 39.5542L52.2803 41.9472L54.0391 42.2941V45.624L52.2803 45.9707L51.2889 48.3637L52.2874 49.8527L49.9328 52.2074L48.4438 51.2089L46.0508 52.2002L45.7041 53.959H42.3742L42.0273 52.2002L39.6343 51.2089L38.1453 52.2074L35.7907 49.8527L36.7893 48.3637L35.7978 45.9707L34.0391 45.624V42.2941L35.7978 41.9472L36.7893 39.5542L35.7907 38.0652L38.1453 35.7106L39.6343 36.7092L42.0273 35.7177L42.3742 33.959H45.7041L46.0508 35.7177L48.4439 36.7092Z" fill="#F9AC00"/>
<path fill-rule="evenodd" clip-rule="evenodd" d="M48.4438 36.7092L49.2897 36.142L51.2131 38.0652L50.2146 39.5542L51.2059 41.9472L52.9647 42.294V43.9591V45.6241L51.2059 45.9709L50.2146 48.3639L51.2131 49.8529L49.2897 51.7761L48.4438 51.2089L47.5732 50.6251L45.0837 51.6566L44.6297 53.959H42.3742L42.0273 52.2002L39.6344 51.2089H39.6343L38.7437 50.84L37.5669 51.629L35.7907 49.8527L36.7893 48.3637L35.7978 45.9707L34.0391 45.624V42.294L35.7978 41.9472L36.7893 39.5542L35.7907 38.0652L37.5669 36.2891L38.7437 37.0781L39.6343 36.7092L42.0273 35.7177L42.3742 33.959H44.6297L45.0837 36.2616L47.5732 37.293L48.4438 36.7092Z" fill="#FCDB35"/>
<path d="M48.1083 45.1612C48.7597 42.4054 47.0538 39.6433 44.298 38.9919C41.5422 38.3405 38.7801 40.0464 38.1287 42.8022C37.4773 45.558 39.1832 48.3201 41.939 48.9715C44.6948 49.6229 47.4569 47.917 48.1083 45.1612Z" fill="#F9AC00"/>
<path d="M44.0404 49.0871C46.8726 49.0871 49.1686 46.7911 49.1686 43.9588C49.1686 41.1266 46.8726 38.8306 44.0404 38.8306C41.2081 38.8306 38.9121 41.1266 38.9121 43.9588C38.9121 46.7911 41.2081 49.0871 44.0404 49.0871Z" fill="#F3F3FF"/>
</svg>
