<svg width="114" height="114" viewBox="0 0 114 114" fill="none" xmlns="http://www.w3.org/2000/svg">
<g clip-path="url(#clip0_14818_10215)">
<path d="M53.2266 70.176H60.8482V85.4193H53.2266V70.176Z" fill="#8C6239"/>
<path d="M51.3203 81.6079H62.7532V106.378C62.7532 109.536 60.1935 112.094 57.0372 112.094C53.88 112.094 51.3203 109.536 51.3203 106.378V81.6079Z" fill="#FFDD33"/>
<path d="M93.241 37.7838C93.241 57.7785 77.0323 73.9863 57.0384 73.9863C37.0437 73.9863 20.8359 57.7785 20.8359 37.7838C20.8359 17.79 37.0437 1.5813 57.0384 1.5813C77.0323 1.5813 93.241 17.79 93.241 37.7838Z" fill="#0054A6"/>
<path d="M72.2241 43.9617L62.7543 41.5951V37.7839C65.0895 36.6167 66.5646 34.2292 66.5646 31.6182V20.6359C66.5646 15.3739 62.2994 11.1086 57.0383 11.1086C51.7763 11.1086 47.511 15.3739 47.511 20.6359V31.6182C47.511 34.2292 48.9861 36.6167 51.3214 37.7839V41.5951L41.8515 43.9617C38.4586 44.8097 36.0781 47.8591 36.0781 51.3564V60.6488H41.795V54.9328H45.6054V64.46H68.4703V54.9328H72.2806V60.6488H77.9975V51.3564C77.9975 47.8591 75.617 44.8097 72.2241 43.9617Z" fill="#FFDD33"/>
<path d="M94.7648 63.6331L91.625 61.4761C98.9274 50.7964 100.904 37.3475 96.9809 25.0179L100.61 23.8594C104.892 37.3101 102.735 51.9836 94.7648 63.6331Z" fill="#D2D9DC"/>
<path d="M13.4653 51.6939C7.33178 32.4237 14.5646 11.4122 31.2595 0.000244141L33.4104 3.15396C18.1028 13.6162 11.4709 32.882 17.0947 50.5502L13.4653 51.6939Z" fill="#D2D9DC"/>
<path d="M16.867 59.6565C16.1608 58.3588 15.5128 57.0211 14.9414 55.6783L18.4491 54.1875C18.971 55.4165 19.5633 56.6419 20.213 57.8309L16.867 59.6565Z" fill="#D2D9DC"/>
<path d="M43.6998 114V110.189C43.7006 106.691 41.3201 103.642 37.9264 102.794L28.4565 100.428V96.6172C30.7927 95.4491 32.2678 93.0625 32.2678 90.4515V79.4683C32.2678 74.2072 28.0025 69.9419 22.7405 69.9419C17.4794 69.9419 13.2141 74.2072 13.2141 79.4683V90.4515C13.2141 93.0625 14.6892 95.4491 17.0245 96.6172V100.428L7.55466 102.794C4.16089 103.643 1.78125 106.691 1.78125 110.189V114H43.6998Z" fill="#002548"/>
<path d="M112.294 114V110.189C112.294 106.691 109.914 103.643 106.52 102.794L97.0503 100.428V96.6172C99.3855 95.4491 100.862 93.0625 100.862 90.4515V79.4683C100.862 74.2072 96.5954 69.9419 91.3343 69.9419C86.0723 69.9419 81.807 74.2072 81.807 79.4683V90.4515C81.807 93.0625 83.2821 95.4491 85.6183 96.6172V100.428L76.1484 102.794C72.7546 103.643 70.3741 106.691 70.375 110.189V114H112.294Z" fill="#002548"/>
</g>
<defs>
<clipPath id="clip0_14818_10215">
<rect width="114" height="114" fill="white"/>
</clipPath>
</defs>
</svg>
