<svg width="50" height="50" viewBox="0 0 50 50" fill="none" xmlns="http://www.w3.org/2000/svg">
<path opacity="0.898" fill-rule="evenodd" clip-rule="evenodd" d="M12.6465 3.27148C12.6465 3.23894 12.6465 3.20638 12.6465 3.17383C14.9577 3.17383 17.2688 3.17383 19.5801 3.17383C19.6032 3.2999 19.5707 3.39756 19.4824 3.4668C17.2387 3.27247 14.9601 3.20737 12.6465 3.27148Z" fill="#FDB578"/>
<path fill-rule="evenodd" clip-rule="evenodd" d="M12.6465 3.17383C12.6465 3.20637 12.6465 3.23893 12.6465 3.27148C11.7793 6.63242 10.9004 9.98525 10.0098 13.3301C9.94463 13.3301 9.91211 13.3626 9.91211 13.4277C7.01497 13.4277 4.11784 13.4277 1.2207 13.4277C2.36794 10.4269 3.62119 7.46467 4.98047 4.54101C5.46483 3.82964 6.13215 3.39018 6.98242 3.22265C8.87017 3.17383 10.7582 3.15756 12.6465 3.17383Z" fill="#FD656F"/>
<path fill-rule="evenodd" clip-rule="evenodd" d="M12.6465 3.27142C14.9601 3.20731 17.2387 3.2724 19.4824 3.46673C19.2091 6.78614 18.9486 10.1065 18.7012 13.4277C15.7873 13.46 12.8901 13.4275 10.0098 13.33C10.9004 9.98519 11.7793 6.63235 12.6465 3.27142Z" fill="#FFCF64"/>
<path fill-rule="evenodd" clip-rule="evenodd" d="M19.5801 3.17383C21.8913 3.17383 24.2024 3.17383 26.5137 3.17383C26.7928 6.59292 27.0857 10.0108 27.3926 13.4277C24.4954 13.4277 21.5983 13.4277 18.7012 13.4277C18.9486 10.1065 19.2091 6.78621 19.4824 3.4668C19.5707 3.39756 19.6032 3.2999 19.5801 3.17383Z" fill="#FD646F"/>
<path fill-rule="evenodd" clip-rule="evenodd" d="M26.5137 3.17383C28.7923 3.17383 31.071 3.17383 33.3496 3.17383C34.2872 6.5807 35.1986 9.99863 36.084 13.4277C33.1868 13.4277 30.2897 13.4277 27.3926 13.4277C27.0857 10.0108 26.7928 6.59292 26.5137 3.17383Z" fill="#FFCF64"/>
<path fill-rule="evenodd" clip-rule="evenodd" d="M33.3496 3.17382C35.2054 3.15755 37.0608 3.17383 38.916 3.22265C39.5176 3.32812 40.0384 3.58854 40.4785 4.0039C40.8652 4.45687 41.1745 4.96142 41.4062 5.51757C42.5248 7.98216 43.6152 10.4561 44.6777 12.9394C44.6903 13.107 44.7229 13.2698 44.7754 13.4277C41.8782 13.4277 38.9812 13.4277 36.084 13.4277C35.1986 9.99863 34.2872 6.5807 33.3496 3.17382Z" fill="#FD656F"/>
<path fill-rule="evenodd" clip-rule="evenodd" d="M1.22094 13.4277C4.11808 13.4277 7.01521 13.4277 9.91235 13.4277C9.91235 14.5671 9.91235 15.7063 9.91235 16.8457C9.63489 18.6695 8.62578 19.8902 6.88501 20.5078C6.14092 20.6255 5.39223 20.6743 4.63891 20.6543C3.96885 20.5146 3.38292 20.2216 2.8811 19.7754C2.77518 19.5716 2.61243 19.4414 2.39282 19.3848C1.81822 18.8224 1.44386 18.1388 1.26977 17.334C1.22095 16.0323 1.20467 14.7302 1.22094 13.4277Z" fill="#FC4755"/>
<path fill-rule="evenodd" clip-rule="evenodd" d="M10.0098 13.3301C12.8901 13.4275 15.7873 13.4601 18.7012 13.4277C18.7012 14.5671 18.7012 15.7063 18.7012 16.8457C17.9371 19.8342 16.0165 21.0549 12.9395 20.5078C11.2672 19.8289 10.258 18.6082 9.91211 16.8457C9.91211 15.7063 9.91211 14.5671 9.91211 13.4277C9.91211 13.3626 9.94463 13.3301 10.0098 13.3301Z" fill="#FEC238"/>
<path fill-rule="evenodd" clip-rule="evenodd" d="M18.7012 13.4277C21.5983 13.4277 24.4954 13.4277 27.3926 13.4277C27.3926 14.5996 27.3926 15.7715 27.3926 16.9434C26.8548 19.3297 25.3574 20.5666 22.9004 20.6543C20.5439 20.4466 19.1442 19.1771 18.7012 16.8457C18.7012 15.7063 18.7012 14.5671 18.7012 13.4277Z" fill="#FC4755"/>
<path fill-rule="evenodd" clip-rule="evenodd" d="M27.3926 13.4277C30.2897 13.4277 33.1868 13.4277 36.084 13.4277C36.084 14.502 36.084 15.5762 36.084 16.6504C35.8988 18.5776 34.8896 19.8635 33.0566 20.5078C30.0487 21.0721 28.1607 19.8839 27.3926 16.9434C27.3926 15.7715 27.3926 14.5996 27.3926 13.4277Z" fill="#FEC238"/>
<path fill-rule="evenodd" clip-rule="evenodd" d="M36.084 13.4277C38.9812 13.4277 41.8782 13.4277 44.7754 13.4277C44.7754 14.6321 44.7754 15.8366 44.7754 17.041C44.5834 18.4495 43.8673 19.5074 42.627 20.2148C42.1973 20.4461 41.7416 20.5926 41.2598 20.6543C40.6059 20.6649 39.9548 20.6324 39.3066 20.5566C37.45 19.9041 36.3758 18.602 36.084 16.6504C36.084 15.5762 36.084 14.502 36.084 13.4277Z" fill="#FD4855"/>
<path opacity="0.792" fill-rule="evenodd" clip-rule="evenodd" d="M44.6777 12.9395C44.7482 12.9803 44.7971 13.0453 44.8242 13.1348C44.905 14.4537 44.8887 15.7559 44.7754 17.041C44.7754 15.8366 44.7754 14.6321 44.7754 13.4277C44.7229 13.2698 44.6903 13.107 44.6777 12.9395Z" fill="#F98089"/>
<path opacity="0.997" fill-rule="evenodd" clip-rule="evenodd" d="M36.084 16.6504C36.3758 18.602 37.45 19.9041 39.3066 20.5566C39.3066 23.5515 39.3066 26.5462 39.3066 29.541C38.4842 30.1105 37.9796 30.8918 37.793 31.8848C37.7441 32.6002 37.7279 33.3163 37.7441 34.0332C37.5488 34.0332 37.3535 34.0332 37.1582 34.0332C37.1745 31.3638 37.1582 28.6944 37.1094 26.0254C37.0326 25.7243 36.8536 25.5128 36.5723 25.3906C36.1177 25.3419 35.662 25.3256 35.2051 25.3418C31.3638 25.3255 27.5227 25.3418 23.6816 25.3906C23.4375 25.5046 23.2585 25.6836 23.1445 25.9277C23.0794 28.7923 23.0794 31.6569 23.1445 34.5215C23.291 34.7981 23.5026 35.0098 23.7793 35.1562C27.5878 35.2051 31.3964 35.2214 35.2051 35.2051C35.0928 36.4621 34.9301 37.699 34.7168 38.916C29.7363 38.916 24.7559 38.916 19.7754 38.916C19.7917 34.5864 19.7754 30.257 19.7266 25.9277C19.6126 25.6836 19.4336 25.5046 19.1895 25.3906C18.7675 25.3419 18.3443 25.3256 17.9199 25.3418C15.3155 25.3255 12.7114 25.3418 10.1074 25.3906C9.96094 25.5371 9.81445 25.6836 9.66797 25.8301C9.52251 30.1838 9.47368 34.5457 9.52148 38.916C7.89388 38.916 6.26628 38.916 4.63867 38.916C4.63867 32.8288 4.63867 26.7415 4.63867 20.6543C5.39199 20.6743 6.14068 20.6255 6.88477 20.5078C8.62554 19.8902 9.63465 18.6695 9.91211 16.8457C10.258 18.6082 11.2672 19.8289 12.9395 20.5078C16.0165 21.0549 17.9371 19.8342 18.7012 16.8457C19.1442 19.1771 20.5439 20.4466 22.9004 20.6543C25.3574 20.5666 26.8548 19.3297 27.3926 16.9434C28.1607 19.8839 30.0487 21.0721 33.0566 20.5078C34.8896 19.8635 35.8988 18.5776 36.084 16.6504Z" fill="#EBEEF0"/>
<path opacity="0.957" fill-rule="evenodd" clip-rule="evenodd" d="M2.39258 19.3848C2.61219 19.4414 2.77494 19.5716 2.88086 19.7754C2.66125 19.7188 2.4985 19.5886 2.39258 19.3848Z" fill="#F8868D"/>
<path fill-rule="evenodd" clip-rule="evenodd" d="M39.3066 20.5566C39.9548 20.6324 40.6059 20.6649 41.2598 20.6543C41.2598 23.3887 41.2598 26.123 41.2598 28.8574C40.5529 28.9303 39.902 29.1581 39.3066 29.541C39.3066 26.5462 39.3066 23.5515 39.3066 20.5566Z" fill="#D1D1D6"/>
<path fill-rule="evenodd" clip-rule="evenodd" d="M17.9201 25.3418C18.1454 25.486 18.3244 25.6814 18.4572 25.9277C18.506 32.2428 18.5223 38.5578 18.506 44.8731C15.5438 44.8731 12.5815 44.8731 9.6193 44.8731C9.65157 42.8704 9.61902 40.8848 9.52164 38.916C9.47384 34.5457 9.52267 30.1838 9.66813 25.8301C9.81461 25.6836 9.9611 25.5371 10.1076 25.3906C12.7116 25.3418 15.3157 25.3255 17.9201 25.3418Z" fill="#C4E2FE"/>
<path fill-rule="evenodd" clip-rule="evenodd" d="M17.9199 25.3418C18.3443 25.3255 18.7675 25.3419 19.1895 25.3906C19.4336 25.5045 19.6126 25.6836 19.7266 25.9277C19.7754 30.257 19.7917 34.5864 19.7754 38.916C19.7754 40.9016 19.7754 42.8874 19.7754 44.873C19.3522 44.873 18.929 44.873 18.5059 44.873C18.5222 38.5578 18.5059 32.2427 18.457 25.9277C18.3242 25.6813 18.1452 25.486 17.9199 25.3418Z" fill="#B1D5F2"/>
<path fill-rule="evenodd" clip-rule="evenodd" d="M35.2051 25.3418C35.4628 25.5185 35.6744 25.7463 35.8399 26.0254C35.8562 27.3438 35.8724 28.6621 35.8887 29.9805C35.887 31.353 35.8219 32.7039 35.6934 34.0332C35.5068 34.0404 35.3928 34.1381 35.3516 34.3262C35.3263 34.6277 35.2775 34.9206 35.2051 35.2051C31.3964 35.2214 27.5878 35.2051 23.7793 35.1563C23.5027 35.0098 23.291 34.7982 23.1446 34.5215C23.0794 31.6569 23.0794 28.7923 23.1446 25.9277C23.2585 25.6836 23.4375 25.5046 23.6817 25.3906C27.5227 25.3418 31.3638 25.3255 35.2051 25.3418Z" fill="#C4E2FE"/>
<path fill-rule="evenodd" clip-rule="evenodd" d="M35.2051 25.3418C35.662 25.3255 36.1177 25.3419 36.5723 25.3906C36.8536 25.5128 37.0326 25.7243 37.1094 26.0253C37.1582 28.6944 37.1745 31.3637 37.1582 34.0332C36.6699 34.0332 36.1816 34.0332 35.6934 34.0332C35.8219 32.7039 35.887 31.353 35.8887 29.9804C35.8724 28.6621 35.8562 27.3437 35.8398 26.0253C35.6744 25.7462 35.4628 25.5184 35.2051 25.3418Z" fill="#B1D5F2"/>
<path fill-rule="evenodd" clip-rule="evenodd" d="M41.26 28.8574C43.1795 28.9058 44.4002 29.8498 44.9221 31.6895C44.971 32.4374 44.9872 33.1861 44.971 33.9355C44.9873 35.0753 44.971 36.2146 44.9221 37.3535C44.5421 37.9159 44.0863 37.9811 43.5549 37.5488C43.4564 37.3999 43.4076 37.2371 43.4085 37.0605C43.4405 36.0014 43.4079 34.9597 43.3108 33.9355C43.327 33.2512 43.3108 32.5676 43.262 31.8848C42.9963 31.2121 42.5243 30.7563 41.846 30.5176C40.6118 30.2812 39.7817 30.7694 39.3557 31.9824C39.3069 32.6652 39.2907 33.3488 39.3069 34.0332C39.3232 35.1729 39.3069 36.3123 39.2581 37.4512C38.7223 37.9961 38.234 37.9636 37.7932 37.3535C37.7444 36.2473 37.7281 35.1404 37.7444 34.0332C37.7282 33.3163 37.7444 32.6002 37.7932 31.8848C37.9798 30.8918 38.4844 30.1105 39.3069 29.541C39.9022 29.1581 40.5532 28.9303 41.26 28.8574ZM41.846 30.5176C42.5243 30.7563 42.9963 31.2121 43.262 31.8848C43.3108 32.5676 43.327 33.2512 43.3108 33.9355C42.6272 33.9355 41.9436 33.9355 41.26 33.9355C41.26 32.7962 41.26 31.6569 41.26 30.5176C41.4553 30.5176 41.6506 30.5176 41.846 30.5176Z" fill="#A89CA8"/>
<path fill-rule="evenodd" clip-rule="evenodd" d="M41.8459 30.5176C41.6506 30.5176 41.4553 30.5176 41.26 30.5176C41.26 31.6569 41.26 32.7962 41.26 33.9355C41.26 33.9681 41.26 34.0007 41.26 34.0332C40.6089 34.0332 39.9579 34.0332 39.3069 34.0332C39.2906 33.3488 39.3069 32.6652 39.3557 31.9824C39.7817 30.7694 40.6117 30.2811 41.8459 30.5176Z" fill="#D1D1D6"/>
<path fill-rule="evenodd" clip-rule="evenodd" d="M44.9707 33.9356C45.7375 33.9038 46.4861 33.9364 47.2168 34.0332C46.7924 34.017 46.3692 34.0333 45.9473 34.0821C46.1056 34.2936 46.187 34.5377 46.1914 34.8145C46.5654 37.6112 46.9234 40.4107 47.2656 43.2129C47.3632 43.8623 47.3958 44.5134 47.3633 45.1661C47.0831 46.0125 46.5135 46.5333 45.6543 46.7286C42.3013 46.7449 38.9484 46.7286 35.5957 46.6797C34.6351 46.4519 34.1143 45.8496 34.0332 44.8731C34.2531 42.8858 34.4811 40.9 34.7168 38.9161C34.9301 37.6991 35.0928 36.4621 35.2051 35.2051C35.2774 34.9206 35.3263 34.6277 35.3516 34.3262C35.3928 34.1381 35.5067 34.0405 35.6934 34.0332C36.1816 34.0332 36.6699 34.0332 37.1582 34.0332C37.3535 34.0332 37.5488 34.0332 37.7441 34.0332C37.7278 35.1405 37.7441 36.2473 37.793 37.3536C38.2338 37.9636 38.7221 37.9961 39.2578 37.4512C39.3066 36.3123 39.3229 35.173 39.3066 34.0332C39.9577 34.0332 40.6087 34.0332 41.2598 34.0332C41.9434 34.0332 42.627 34.0332 43.3105 34.0332C43.2785 35.06 43.3111 36.0691 43.4082 37.0606C43.4073 37.2371 43.4562 37.3999 43.5547 37.5489C44.086 37.9811 44.5418 37.916 44.9219 37.3536C44.9707 36.2147 44.987 35.0753 44.9707 33.9356Z" fill="#FEC339"/>
<path fill-rule="evenodd" clip-rule="evenodd" d="M41.2598 34.0332C41.2598 34.0007 41.2598 33.9681 41.2598 33.9355C41.9434 33.9355 42.627 33.9355 43.3105 33.9355C43.4076 34.9597 43.4402 36.0014 43.4082 37.0605C43.3111 36.069 43.2785 35.06 43.3105 34.0332C42.627 34.0332 41.9434 34.0332 41.2598 34.0332Z" fill="#F7C75D"/>
<path fill-rule="evenodd" clip-rule="evenodd" d="M47.2168 34.0332C47.3698 34.1485 47.4513 34.3112 47.4609 34.5214C47.819 37.321 48.1771 40.1204 48.5352 42.9199C48.6671 43.7301 48.6996 44.5439 48.6328 45.3613C48.4212 45.9635 48.0144 46.3704 47.4121 46.582C46.8353 46.7149 46.2493 46.7637 45.6543 46.7285C46.5135 46.5333 47.0831 46.0125 47.3633 45.166C47.3958 44.5133 47.3632 43.8623 47.2656 43.2128C46.9234 40.4106 46.5654 37.6111 46.1914 34.8144C46.187 34.5377 46.1056 34.2935 45.9473 34.082C46.3692 34.0333 46.7924 34.017 47.2168 34.0332Z" fill="#EFAE2C"/>
<path fill-rule="evenodd" clip-rule="evenodd" d="M4.63891 38.916C6.26652 38.916 7.89412 38.916 9.52172 38.916C9.52172 40.8691 9.52172 42.8223 9.52172 44.7754C8.61027 44.7754 7.6988 44.7754 6.78735 44.7754C5.64759 44.4981 4.94772 43.782 4.68774 42.627C4.63892 41.3904 4.62264 40.1534 4.63891 38.916Z" fill="#FD6570"/>
<path fill-rule="evenodd" clip-rule="evenodd" d="M19.7754 38.916C24.7559 38.916 29.7363 38.916 34.7168 38.916C34.4811 40.9 34.2531 42.8857 34.0332 44.873C29.2806 44.873 24.528 44.873 19.7754 44.873C19.7754 42.8874 19.7754 40.9017 19.7754 38.916Z" fill="#FD646F"/>
<path opacity="0.933" fill-rule="evenodd" clip-rule="evenodd" d="M9.52148 38.916C9.61887 40.8848 9.65142 42.8704 9.61914 44.873C8.65744 44.905 7.71344 44.8725 6.78711 44.7754C7.69856 44.7754 8.61003 44.7754 9.52148 44.7754C9.52148 42.8223 9.52148 40.8691 9.52148 38.916Z" fill="#F29CA7"/>
</svg>
