<svg width="510" height="316" viewBox="0 0 510 316" fill="none" xmlns="http://www.w3.org/2000/svg">
<path opacity="0.2" d="M468.127 84.5084C468.537 78.7076 466.135 71.1058 463.483 66.0114C461.031 61.2951 456.697 58.2603 452.864 54.5589C445.148 47.0965 434.76 41.6837 424.421 38.8181C413.172 35.7037 400.582 34.9177 389.493 38.9872C366.775 47.3154 355.295 73.8321 357.938 96.538C359.359 108.776 365.313 119.562 371.358 130.099C372.91 132.816 374.471 135.522 375.942 138.278C377.343 140.905 379.355 144.427 379.605 146.706C379.885 149.323 378.484 153.83 377.623 157.034C376.693 160.477 375.772 163.919 374.841 167.362C373.91 170.805 373.18 175.262 373.18 175.262L401.843 182.964C401.843 182.964 403.755 175.242 406.617 165.541C408.568 158.914 411.501 153.064 415.824 147.651C424.541 136.716 437.672 130.527 447.4 120.488C452.154 115.582 457.598 110.14 461.732 104.697C465.665 99.5031 467.656 91.1451 468.127 84.5084Z" fill="white"/>
<path d="M478.244 88.1801C478.114 74.7874 470.478 62.9071 461.401 53.4944C451.933 43.6837 440.033 36.3306 426.623 33.2859C413.842 30.3805 400.361 31.0373 387.791 34.5795C375.331 38.0918 362.421 44.2707 354.644 54.9073C346.748 65.713 345.207 79.8519 347.218 92.7571C349.35 106.428 355.605 119.105 361.85 131.333C363.481 134.527 365.143 137.721 366.734 140.935C368.205 143.91 369.576 146.955 370.047 150.258C371.008 156.964 368.175 163.551 366.094 169.77C365.053 172.884 364.152 176.019 363.622 179.252C363.261 181.421 366.724 181.561 367.074 179.402C368.145 172.864 371.128 166.835 372.669 160.417C373.42 157.323 373.85 154.158 373.58 150.974C373.309 147.82 372.319 144.845 371.038 141.96C368.305 135.841 364.973 129.97 362 123.96C358.958 117.821 356.066 111.572 353.884 105.075C349.74 92.7769 348.089 79.1654 352.393 66.6881C354.524 60.5191 358.167 55.0864 363.101 50.778C367.935 46.5592 373.66 43.4648 379.584 41.0171C391.414 36.1118 404.505 33.9625 417.305 35.2162C430.466 36.4998 442.696 41.7335 452.824 50.1611C462.552 58.2505 471.769 69.4741 474.201 82.1106C476.723 95.2147 471.059 108.428 462.862 118.458C454.085 129.214 442.365 136.746 431.296 144.925C425.732 149.044 420.578 153.651 416.815 159.482C413.162 165.143 410.78 171.561 409.559 178.158C408.958 181.421 408.628 184.715 408.558 188.028C408.518 190.227 411.971 190.396 412.011 188.177C412.151 181.093 413.522 174.098 416.354 167.591C419.227 160.994 423.72 155.462 429.255 150.865C434.759 146.288 440.834 142.417 446.559 138.119C452.183 133.88 457.628 129.353 462.411 124.179C471.459 114.398 478.374 101.782 478.244 88.1801Z" fill="#FFDD33"/>
<path d="M423.72 106.836C420.627 107.234 418.646 110.368 417.364 112.876C416.924 113.742 416.494 114.607 416.053 115.473C414.612 115.871 413.111 116.01 411.59 115.692C409.718 115.314 408.157 114.249 407.326 112.747C408.557 112.359 409.708 111.742 410.669 110.836C411.72 109.861 412.421 108.418 412.28 106.966C412.11 105.274 410.559 104.299 408.908 104.647C405.865 105.294 404.624 108.697 405.085 111.483C404.464 111.562 403.864 111.592 403.313 111.582C402.983 111.572 402.643 111.553 402.292 111.523C402.242 108.219 401.602 104.11 398.349 102.548C396.948 101.871 395.227 102.08 394.126 103.205C393.035 104.309 392.675 105.99 392.965 107.483C393.645 110.856 397.468 112.398 400.551 112.995C400.521 113.523 400.491 114.04 400.461 114.528C400.191 118.498 399.63 122.448 398.94 126.358C396.147 142.149 390.763 157.323 387.12 172.914C386.67 174.825 386.249 176.745 385.859 178.665C385.639 179.73 387.29 180.277 387.51 179.193C391.153 161.223 397.649 143.94 400.771 125.851C401.492 121.702 402.122 117.453 402.252 113.224C403.353 113.324 404.474 113.284 405.565 113.125C406.826 115.911 409.869 117.443 412.951 117.552C413.672 117.582 414.372 117.513 415.063 117.413C413.722 120.08 412.401 122.756 411.09 125.443C403.003 142.109 395.667 159.362 392.164 177.62C391.734 179.839 391.364 182.068 391.053 184.297C390.903 185.391 392.635 185.461 392.785 184.377C395.036 168.258 400.531 152.805 407.126 137.99C410.299 130.865 413.742 123.861 417.244 116.896C419.546 116.11 421.658 114.717 423.55 113.164C424.781 112.15 426.602 110.956 427.012 109.324C427.523 107.324 425.321 106.627 423.72 106.836ZM395.016 108.08C394.426 107.035 394.416 105.563 395.197 104.598C396.067 103.513 397.488 103.811 398.409 104.667C400.161 106.299 400.571 108.846 400.601 111.304C398.349 110.876 396.057 109.931 395.016 108.08ZM406.716 109.682C406.836 108.478 407.436 107.274 408.507 106.647C409.008 106.349 409.879 106.05 410.339 106.578C410.689 106.976 410.579 107.642 410.439 108.1C409.939 109.712 408.437 110.647 406.776 111.145C406.696 110.677 406.656 110.199 406.716 109.682ZM424.931 109.632C424.44 110.239 423.77 110.737 423.179 111.244C422.489 111.831 421.788 112.408 421.058 112.946C420.227 113.552 419.336 114.1 418.395 114.567C419.466 112.368 420.717 109.931 422.899 108.856C423.399 108.607 423.94 108.478 424.5 108.508C424.76 108.518 425.271 108.508 425.331 108.816C425.401 109.065 425.081 109.443 424.931 109.632Z" fill="#FFDD33"/>
<path d="M413.952 191.471C411.88 188.138 407.247 187.212 403.764 186.118C398.82 184.556 393.846 183.103 388.842 181.76C383.587 180.347 378.273 178.874 372.909 177.959C368.565 177.223 363.972 177.183 360.059 179.421C359.668 179.64 359.428 179.949 359.298 180.287C357.416 182.207 357.116 185.143 358.157 187.7C358.858 189.401 360.088 190.675 361.57 191.64C359.328 192.844 358.017 195.252 358.297 197.879C358.637 201.112 361.019 203.729 363.731 205.351C364.072 205.55 364.422 205.739 364.772 205.928C364.052 206.366 363.431 207.013 362.981 207.829C361.86 209.898 362.32 212.256 363.701 214.087C365.373 216.306 368.075 217.629 370.627 218.585C373.89 219.818 377.322 220.604 380.695 221.46C385.379 222.654 392.585 225.291 396.308 220.744C397.719 219.022 398.209 216.575 397.629 214.435C397.479 213.888 397.248 213.391 396.978 212.923C401.072 212.903 404.885 211.888 406.696 208.008C407.737 205.759 407.297 203.321 406.006 201.361C407.627 201.361 409.218 201.112 410.679 200.396C413.932 198.804 416.014 194.804 413.952 191.471ZM390.943 212.615C392.705 213.132 394.296 214.107 394.406 216.077C394.666 220.545 389.392 220.027 386.43 219.361C381.576 218.266 376.592 217.241 371.868 215.669C369.666 214.933 367.074 213.978 365.743 211.958C365.213 211.162 364.962 210.266 365.343 209.361C365.643 208.655 366.364 207.809 367.224 207.988C367.474 208.038 367.695 208.018 367.895 207.958C368.065 208.346 368.385 208.655 368.896 208.764C370.987 209.222 373.109 209.58 375.231 209.918C379.094 211.033 383.077 211.58 387.07 211.978C387.901 212.057 388.812 212.177 389.762 212.306C390.163 212.416 390.553 212.505 390.943 212.615ZM401.402 208.674C398.79 210.048 395.517 209.411 392.715 209.122C391.814 209.023 390.913 208.933 390.023 208.844C387.22 208.197 384.288 207.878 381.486 207.421C379.324 207.063 377.152 206.665 374.981 206.296C374.26 206.087 373.549 205.878 372.829 205.63C369.696 204.565 365.783 203.55 363.301 201.262C361.5 199.6 360.108 195.341 363.451 194.376C363.681 194.307 363.872 194.207 364.042 194.078C364.192 194.177 364.362 194.267 364.572 194.317C369.066 195.501 373.699 196.088 378.333 196.625C384.778 197.978 391.284 199.113 397.769 200.207C398.309 200.297 398.86 200.396 399.41 200.505C400.691 201.023 401.872 201.7 402.723 202.704C404.575 204.864 403.834 207.391 401.402 208.674ZM410.92 195.769C409.078 198.794 404.705 197.948 401.792 197.481C401.352 197.411 400.912 197.341 400.471 197.272C398.299 196.406 395.918 195.909 393.716 195.441C386.18 193.849 378.493 193.222 370.887 192.038C368.475 191.541 366.093 190.914 364.002 189.849C362.33 188.993 360.879 187.73 360.399 185.869C360.129 184.844 360.149 183.64 360.659 182.705C360.959 182.735 361.289 182.675 361.62 182.476C367.665 179.014 375.651 181.939 381.876 183.491C390.143 185.561 398.39 187.879 406.476 190.585C408.598 191.292 412.691 192.864 410.92 195.769Z" fill="#FFDD33"/>
<path d="M441.195 11.3163C441.595 9.57501 441.995 7.83376 442.396 6.09251C442.586 5.24676 442.786 4.40099 442.976 3.55524C443.176 2.6697 443.507 1.6946 443.487 0.789148C443.467 0.132449 442.476 -0.365053 442.115 0.351346C441.715 1.12745 441.565 2.0329 441.375 2.87865L440.794 5.41589C440.384 7.20689 439.974 8.99791 439.563 10.7889C438.753 14.3212 437.942 17.8534 437.131 21.3856C436.891 22.4503 438.533 22.9876 438.783 21.913C439.573 18.3807 440.384 14.8485 441.195 11.3163Z" fill="#FFDD33"/>
<path d="M481.186 21.6344C479.625 22.51 478.254 23.7538 476.853 24.8582L472.52 28.2611C469.627 30.5297 466.745 32.8083 463.852 35.0769C462.982 35.7634 464.143 37.037 465.003 36.3604C467.856 34.1216 470.698 31.8829 473.55 29.6342C474.951 28.5298 476.363 27.4253 477.764 26.3209C479.185 25.1965 480.766 24.1418 482.007 22.8185C482.528 22.2613 481.957 21.2066 481.186 21.6344Z" fill="#FFDD33"/>
<path d="M508.989 49.5043C504.846 51.0764 500.883 53.136 496.88 55.0166C492.866 56.9071 488.853 58.7876 484.84 60.6781C483.829 61.1557 484.63 62.6781 485.631 62.2005C489.644 60.31 493.657 58.4294 497.67 56.5389C501.674 54.6584 505.787 52.9171 509.63 50.7281C510.421 50.2903 509.82 49.1959 508.989 49.5043Z" fill="#FFDD33"/>
<path d="M508.168 101.772C505.266 100.886 502.293 100.279 499.381 99.4234C496.469 98.5677 493.596 97.5827 490.764 96.4882C489.723 96.0902 489.203 97.722 490.234 98.12C493.116 99.2344 496.038 100.229 499.001 101.105C501.913 101.961 504.895 102.826 507.918 103.175C508.729 103.264 508.939 102.01 508.168 101.772Z" fill="#FFDD33"/>
<path d="M398.48 14.8285C396.849 10.2814 395.278 5.70436 393.476 1.20696C393.166 0.420912 391.805 0.898521 392.065 1.71442C393.506 6.25162 395.188 10.7192 396.789 15.1966C396.949 15.6344 397.319 15.9529 397.82 15.8534C398.24 15.7638 398.64 15.2663 398.48 14.8285Z" fill="#FFDD33"/>
<path d="M360.049 25.3258C355.896 21.2165 352.183 16.7091 348.74 12.0028C348.249 11.3361 347.079 12.1222 347.529 12.8187C350.721 17.7837 354.555 22.301 358.758 26.4601C359.549 27.2462 360.84 26.1019 360.049 25.3258Z" fill="#FFDD33"/>
<path d="M333.898 63.8025C330.485 62.1508 326.972 60.7179 323.359 59.5538C319.776 58.3896 316.063 57.3449 312.32 56.9171C311.479 56.8176 311.229 58.1807 312.06 58.3797C315.623 59.2652 319.196 60.0016 322.688 61.1259C326.201 62.2602 329.634 63.6234 332.947 65.2253C333.948 65.7128 334.898 64.2801 333.898 63.8025Z" fill="#FFDD33"/>
<path d="M330.545 106.418C325.401 109.214 320.237 111.99 315.163 114.906C314.432 115.324 315.003 116.468 315.774 116.08C320.998 113.433 326.132 110.627 331.286 107.851C332.207 107.364 331.466 105.921 330.545 106.418Z" fill="#FFDD33"/>
<path d="M492.446 161.691C488.352 158.646 484.249 155.611 480.386 152.268C476.543 148.945 472.9 145.402 469.467 141.671C468.716 140.855 467.425 142 468.176 142.815C471.679 146.616 475.392 150.218 479.305 153.591C483.198 156.944 487.261 160.158 491.645 162.875C492.456 163.382 493.186 162.248 492.446 161.691Z" fill="#FFDD33"/>
<path d="M262.941 147.186C265.749 142.209 268.435 137.232 271.488 132.377C276.86 124.001 282.477 115.746 289.07 108.22C292.489 104.457 296.03 100.937 300.425 98.0233C301.646 97.295 302.989 96.5666 304.454 96.0811C306.408 95.3527 307.873 95.9597 309.216 97.295C310.559 98.6303 310.071 100.087 309.583 101.544C308.972 103.122 307.995 104.457 307.019 105.792C301.158 113.683 294.32 120.723 286.506 126.793C285.285 127.764 284.552 128.614 285.041 130.313C285.651 132.377 285.529 134.44 285.529 136.504C285.529 142.816 285.529 149.25 285.529 155.562C285.529 158.354 285.895 161.146 286.506 163.817C286.75 165.152 286.872 166.851 288.215 167.337C289.681 167.823 290.657 166.244 291.634 165.152C295.053 161.51 297.861 157.262 300.181 152.892C305.065 143.909 310.559 135.533 316.786 127.521C318.74 125.215 320.694 122.908 322.647 120.602C323.136 119.995 323.746 119.509 324.357 119.024C325.211 118.417 325.944 118.781 326.554 119.388C327.165 119.995 326.554 120.48 326.066 120.966C323.258 123.637 321.06 126.914 318.618 129.949C313.246 137.111 308.972 144.88 304.821 152.77C302.501 157.14 300.059 161.389 297.006 165.395C296.152 166.487 295.297 167.458 294.32 168.429C290.902 171.707 286.018 170.979 283.576 166.973C282.721 165.759 282.233 164.424 281.988 163.088C280.889 159.204 280.767 155.319 280.523 151.435C280.279 146.215 281.012 140.874 281.012 135.533C281.012 134.804 281.012 134.076 281.012 133.348C281.012 130.92 280.035 130.07 277.593 130.556C276.738 130.799 276.494 131.406 276.128 132.012C274.54 134.683 272.953 137.232 271.488 139.903C269.168 144.151 266.97 148.643 265.017 153.134C264.528 154.105 264.04 155.077 263.429 156.048C262.819 157.262 261.964 158.111 260.377 157.747C258.79 157.383 257.446 156.776 257.08 155.077C256.836 153.741 256.714 152.406 256.836 151.071C257.446 141.602 259.766 132.377 262.453 123.394C267.581 106.521 274.662 90.4971 283.698 75.3234C288.337 67.6758 293.344 60.3924 299.204 53.8374C301.158 51.6524 303.233 49.7101 305.553 48.0107C307.141 46.7968 308.85 45.8257 310.926 45.4615C312.757 44.9759 314.344 45.4615 315.565 47.0396C315.565 47.2823 315.688 47.4037 315.81 47.5251C319.106 50.5599 318.496 53.9588 316.909 57.6005C315.321 61.3636 313.001 64.8839 310.315 68.04C305.187 73.9881 299.204 79.2079 292.367 83.2137C291.268 83.9421 290.169 84.549 288.948 84.9132C287.605 85.3988 286.628 86.2485 286.018 87.5838C276.494 106.278 268.557 125.7 263.185 146.094C263.185 146.458 263.063 146.822 262.941 147.186ZM290.413 80.0576C293.344 78.6009 296.03 76.6587 298.594 74.5951C303.722 70.5892 307.995 65.9764 311.048 60.1497C312.391 57.6005 313.368 54.8085 313.856 52.0165C313.978 51.6524 314.1 51.0454 313.734 50.6813C313.246 50.1957 312.635 50.6813 312.269 50.924C310.315 52.0165 308.606 53.4732 307.141 55.1727C304.943 57.8433 302.745 60.5138 300.792 63.3058C297.006 68.647 293.466 74.2309 290.413 80.0576ZM306.408 99.1158C305.431 98.873 304.821 99.3586 304.088 99.7228C302.623 100.573 301.158 101.665 299.815 102.758C292.733 108.706 287.116 115.989 281.744 123.637C281.5 123.879 281.012 124.365 281.5 124.85C281.622 124.85 281.866 124.85 281.988 124.85C282.355 124.486 282.843 124.244 283.331 123.879C288.46 119.631 293.343 115.018 297.983 110.162C300.547 107.37 303.111 104.578 305.309 101.422C305.798 100.694 306.408 100.087 306.408 99.1158Z" fill="white"/>
<path d="M199.86 130.434C201.569 128.371 203.278 126.429 204.866 124.608C212.192 116.232 219.884 108.463 228.797 101.908C231.483 100.087 234.292 98.2661 237.222 96.8094C237.955 96.4452 238.809 96.081 239.542 95.8383C243.815 94.2602 247.478 96.8094 247.478 101.422C247.478 103.486 247.112 105.671 246.624 107.734C245.525 112.105 244.059 116.475 243.327 120.845C242.838 123.03 242.838 125.215 243.083 127.278C243.205 129.706 244.182 130.313 246.501 129.949C248.333 129.585 250.042 128.735 251.63 127.885C255.903 125.579 259.932 122.787 264.084 120.238C265.06 119.752 266.037 119.145 267.014 118.66C267.869 118.295 268.357 118.781 268.846 119.388C269.334 120.116 268.846 120.602 268.357 120.966C267.625 121.452 266.892 121.937 266.159 122.423C262.741 124.85 259.322 127.157 255.903 129.463C253.949 130.92 251.874 132.134 249.554 132.741C244.914 134.197 241.007 131.77 239.908 127.157C239.176 124.244 239.542 121.452 240.152 118.66C241.129 113.925 242.35 109.191 243.449 104.457C243.693 103.243 244.059 101.908 244.182 100.572C244.304 98.6302 243.937 98.3875 242.106 98.873C239.908 99.3586 237.832 100.572 235.879 101.786C231.117 104.7 226.844 108.22 222.692 112.105C214.145 120.116 206.453 129.099 199.249 138.446C198.15 139.903 197.051 141.359 195.83 142.816C195.098 143.787 194.243 144.394 193.022 143.787C191.679 143.18 190.336 142.695 190.092 140.995C189.97 140.024 190.092 139.174 190.336 138.325C192.29 129.706 195.342 121.452 198.883 113.318C201.081 108.22 203.523 103.243 206.331 98.5088C207.064 97.2949 207.796 96.081 208.773 95.2313C210.116 93.896 211.093 94.0174 212.07 95.4741C212.558 96.3238 213.291 96.9308 214.023 97.5377C215.366 98.6302 215.366 99.2372 214.389 100.815C208.773 110.041 204.011 119.752 199.738 129.706C199.616 129.827 199.738 129.949 199.86 130.434Z" fill="white"/>
<path d="M157.562 153.984C157.807 149.25 158.906 144.394 160.371 139.539C164.4 126.55 169.528 113.925 175.999 102.029C176.854 100.572 177.709 99.1158 178.808 97.7805C179.418 97.0522 180.151 96.4452 181.005 95.9597C183.447 94.503 186.134 95.3527 187.355 97.9019C187.721 98.5089 187.721 99.3586 186.866 99.48C185.279 99.8442 184.791 101.179 184.18 102.272C181.738 107.128 179.296 111.862 176.976 116.839C172.581 126.186 168.551 135.654 165.255 145.487C164.034 149.007 163.179 152.649 162.691 156.412C162.691 156.655 162.691 157.019 162.691 157.262C162.691 157.869 162.324 158.718 163.179 158.961C163.667 159.204 164.156 158.597 164.522 158.233C168.185 154.834 171.482 150.949 174.778 147.186C182.104 139.053 188.82 130.313 195.902 121.937C196.634 121.209 197.245 120.359 197.977 119.631C199.076 118.538 199.809 118.538 200.419 119.145C201.274 119.995 200.541 120.723 200.053 121.209C197.977 124.001 195.657 126.55 193.582 129.221C187.965 136.261 182.471 143.423 176.976 150.464C174.412 153.741 171.848 157.019 168.796 159.932C168.185 160.539 167.575 161.146 166.964 161.632C164.034 163.938 160.249 163.088 158.661 159.811C157.807 158.111 157.562 156.169 157.562 153.984ZM195.291 82.364C195.291 82.971 194.925 83.2137 194.558 83.5779C192.605 85.3988 191.018 87.4624 190.285 90.0116C189.919 91.1041 189.064 91.4683 187.965 91.1041C186.622 90.7399 185.401 90.2544 184.424 89.2832C183.203 88.1907 182.959 87.0982 184.058 86.0057C185.889 83.8207 187.843 81.7571 190.407 80.4218C191.506 79.8148 194.681 80.9073 195.169 81.9998C195.291 82.1212 195.291 82.2426 195.291 82.364Z" fill="white"/>
<path d="M151.194 93.4105C148.874 94.3816 146.92 95.8383 145.089 97.295C138.984 102.029 133.489 107.492 128.239 113.197C118.593 123.515 110.046 134.683 102.842 146.943C101.255 149.614 99.79 152.406 98.2027 155.198C96.8596 157.626 95.5165 157.99 93.0745 156.533C92.2198 155.926 91.7314 155.198 91.7314 154.227C91.7314 153.134 91.8535 152.163 92.0977 151.071C94.0513 142.452 96.9817 133.955 100.034 125.7C105.162 111.498 111.267 97.6591 118.349 84.3063C123.966 73.6239 130.437 63.3058 138.251 54.0802C140.693 51.1668 143.257 48.4962 146.31 46.1898C147.286 45.4615 148.263 44.8545 149.362 44.4904C152.048 43.3979 153.636 43.762 155.467 45.947C155.589 46.0684 155.589 46.0684 155.589 46.1898C158.886 48.6176 158.519 51.6524 157.421 54.9299C156.077 58.693 154.002 61.9705 151.682 65.1266C145.821 73.3812 138.739 80.5432 130.437 86.6127C129.704 87.0982 129.094 87.7052 128.239 88.0693C125.675 89.0405 124.454 91.2255 123.233 93.5319C116.64 106.763 110.901 120.359 105.162 133.955C105.162 134.198 105.04 134.44 104.918 134.926C105.895 134.319 106.261 133.591 106.75 132.984C114.198 122.665 122.378 113.076 131.658 104.336C136.297 99.9656 141.059 95.7169 146.31 92.1966C147.653 91.3469 148.874 90.4971 150.339 90.0116C152.903 89.0405 155.711 91.1041 155.345 93.8961C155.223 95.3527 154.734 96.688 154.246 98.0233C151.804 103.243 149.362 108.463 146.92 113.804C142.28 123.879 137.763 134.076 133.978 144.516C132.757 147.915 131.658 151.435 130.925 155.077C130.681 156.412 129.948 158.475 131.291 159.204C132.39 159.932 133.611 158.233 134.588 157.383C139.594 153.741 143.379 149.128 147.164 144.394C152.292 137.961 157.298 131.527 162.793 125.457C164.502 123.515 166.212 121.816 168.043 120.116C168.409 119.752 168.898 119.388 169.264 119.024C170.119 118.417 170.974 118.417 171.584 119.145C172.317 119.995 171.584 120.48 171.096 120.966C169.264 122.787 167.433 124.608 165.723 126.55C161.45 131.406 157.543 136.625 153.636 141.845C149.606 147.186 145.577 152.527 140.815 157.262C138.984 159.082 137.03 160.661 134.954 162.117C133.123 163.452 131.169 164.059 128.972 162.846C126.774 161.753 125.919 159.811 125.797 157.626C125.797 153.256 126.896 149.128 127.995 145.001C130.07 137.961 133.001 131.406 136.053 124.85C140.571 115.139 145.089 105.549 150.095 96.2025C150.583 95.3527 151.194 94.6244 151.194 93.4105ZM129.704 82.1212C130.07 82.2426 130.315 82.1212 130.559 81.8785C132.268 80.4218 134.1 79.0865 135.687 77.6298C142.28 71.6817 147.897 65.1266 151.682 56.9935C152.537 55.1727 153.391 53.2304 153.636 51.1668C153.758 50.6813 154.124 49.9529 153.513 49.5887C152.903 49.346 152.415 49.9529 151.926 50.1957C150.095 51.531 148.507 53.2304 147.042 55.0513C140.327 62.9416 135.077 71.8031 129.948 80.9073C129.826 81.2715 129.338 81.6357 129.704 82.1212Z" fill="white"/>
<path d="M148.848 47.8892C156.296 47.8892 162.035 47.7678 167.651 48.3748C171.192 48.8603 174.611 49.3459 177.907 50.6812C179.251 51.2881 180.105 52.2592 180.349 53.7159C180.594 55.0512 180.105 55.5368 178.762 54.9298C176.809 54.2015 174.733 53.5945 172.535 53.2304C169.971 52.9876 167.529 52.6234 164.965 52.502C156.052 52.2592 147.016 52.502 138.103 52.9876C132.609 53.3517 126.992 53.9587 121.376 54.3229C120.155 54.4443 119.3 54.9298 118.934 56.1437C114.172 69.2538 108.433 81.8784 103.549 94.8671C97.8107 110.041 92.1942 125.093 87.066 140.388C86.8218 141.238 86.5776 142.088 86.3334 142.938C85.4787 145.123 85.1124 145.487 83.5251 145.001C81.0832 144.394 80.3506 143.302 80.839 141.117C82.5484 134.44 84.624 127.885 86.6997 121.33C88.0428 117.203 89.1417 113.076 89.6301 108.827C89.8743 105.914 89.7522 103.243 89.1417 100.451C88.287 96.3238 85.7229 93.4104 82.06 91.3468C77.7865 88.919 73.1467 87.4623 68.3849 86.3698C63.0126 85.0345 57.5181 83.8206 52.1458 82.6067C50.9248 82.2425 49.7038 81.8784 48.4828 81.3928C47.0176 80.9073 45.6745 80.0575 44.6977 78.965C42.7442 76.9014 42.6221 75.3233 44.0872 73.0169C45.5524 70.5891 47.8723 68.8897 50.0701 67.3116C55.3203 63.5485 61.1811 60.9993 67.1639 58.8143C78.0307 54.9298 89.1417 52.6234 100.497 51.1667C110.143 50.0742 119.911 49.2245 129.556 48.4962C136.638 48.132 143.598 47.6464 148.848 47.8892ZM93.4151 100.937C94.1477 100.451 94.2698 99.8441 94.514 99.3585C100.008 85.1559 106.236 71.1961 112.951 57.479C113.195 57.1148 113.317 56.8721 113.439 56.3865C113.684 55.7795 113.439 55.4154 112.707 55.4154C112.34 55.4154 111.852 55.4154 111.486 55.5368C105.137 56.2651 98.9096 57.3576 92.6826 58.6929C82.3042 60.8779 71.9258 63.5485 62.1579 67.7971C57.8844 69.618 53.733 71.5602 50.0701 74.4736C49.2154 75.0805 48.2386 75.6875 47.8723 76.78C48.3607 77.2656 48.9712 77.3869 49.4596 77.5083C52.5121 78.1153 55.5645 78.7222 58.617 79.4506C64.9661 80.7859 71.3153 82.1212 77.2981 84.6703C81.8158 86.6126 85.4787 89.4046 88.5312 93.1676C90.4848 95.5954 92.3163 97.9018 93.4151 100.937Z" fill="white"/>
<path d="M273.456 257.543C273.822 256.086 274.188 254.265 274.677 252.566C276.508 245.282 279.439 238.242 282.613 231.444C291.648 211.536 301.783 192.235 313.016 173.662C316.557 167.836 320.464 162.13 324.859 156.91C325.836 155.697 326.935 154.361 328.156 153.512C329.621 152.419 330.232 152.662 331.33 153.997C332.429 155.454 332.551 156.546 331.453 158.246C327.423 164.679 323.028 171.113 318.632 177.425C311.673 187.743 305.568 198.426 299.585 209.351C293.236 220.883 287.131 232.658 282.125 244.918C280.293 249.288 278.584 253.901 277.485 258.635C277.363 259.485 277.363 260.699 275.898 260.577C274.555 260.456 273.456 259.242 273.456 257.543ZM276.997 269.196C276.997 271.138 275.776 272.595 274.31 272.838C272.723 273.081 270.281 271.624 269.793 270.289C269.182 268.589 270.037 266.283 271.624 265.433C271.746 265.433 271.868 265.312 271.99 265.312C273.7 264.826 276.997 267.375 276.997 269.196Z" fill="white"/>
<path d="M204.758 238.12C206.468 236.057 208.177 234.114 209.764 232.294C217.09 223.918 224.782 216.149 233.696 209.594C236.382 207.773 239.19 205.952 242.12 204.495C242.853 204.131 243.708 203.767 244.44 203.524C248.714 201.946 252.377 204.495 252.377 209.108C252.377 211.172 252.01 213.357 251.522 215.42C250.423 219.79 248.958 224.16 248.225 228.531C247.737 230.716 247.737 232.901 247.981 234.964C248.103 237.392 249.08 237.999 251.4 237.635C253.231 237.271 254.941 236.421 256.528 235.571C260.801 233.265 264.831 230.473 268.982 227.924C269.959 227.438 270.936 226.831 271.912 226.345C272.767 225.981 273.256 226.467 273.744 227.074C274.232 227.802 273.744 228.288 273.256 228.652C272.523 229.137 271.79 229.623 271.058 230.109C267.639 232.536 264.22 234.843 260.802 237.149C258.848 238.606 256.772 239.82 254.452 240.427C249.813 241.883 245.905 239.456 244.807 234.843C244.074 231.929 244.44 229.137 245.051 226.345C246.028 221.611 247.249 216.877 248.347 212.143C248.592 210.929 248.958 209.594 249.08 208.258C249.202 206.316 248.836 206.073 247.004 206.559C244.807 207.044 242.731 208.258 240.777 209.472C236.015 212.386 231.742 215.906 227.591 219.79C219.044 227.802 211.352 236.785 204.148 246.132C203.049 247.589 201.95 249.045 200.729 250.502C199.996 251.473 199.142 252.08 197.921 251.473C196.578 250.866 195.234 250.381 194.99 248.681C194.868 247.71 194.99 246.86 195.234 246.011C197.188 237.392 200.241 229.137 203.781 221.004C205.979 215.906 208.421 210.929 211.229 206.195C211.962 204.981 212.695 203.767 213.671 202.917C215.014 201.582 215.991 201.703 216.968 203.16C217.456 204.01 218.189 204.617 218.922 205.224C220.265 206.316 220.265 206.923 219.288 208.501C213.671 217.727 208.91 227.438 204.636 237.392C204.514 237.513 204.636 237.635 204.758 238.12Z" fill="white"/>
<path d="M162.461 261.67C162.705 256.936 163.804 252.08 165.269 247.224C169.298 234.236 174.427 221.611 180.898 209.715C181.753 208.258 182.607 206.802 183.706 205.466C184.317 204.738 185.049 204.131 185.904 203.645C188.346 202.189 191.032 203.039 192.253 205.588C192.619 206.195 192.619 207.044 191.765 207.166C190.177 207.53 189.689 208.865 189.078 209.958C186.636 214.813 184.195 219.548 181.875 224.525C177.479 233.872 173.45 243.34 170.153 253.173C168.932 256.693 168.077 260.335 167.589 264.098C167.589 264.34 167.589 264.705 167.589 264.947C167.589 265.554 167.223 266.404 168.077 266.647C168.566 266.89 169.054 266.283 169.421 265.918C173.084 262.52 176.38 258.635 179.677 254.872C187.003 246.739 193.718 237.999 200.8 229.623C201.533 228.895 202.143 228.045 202.876 227.317C203.974 226.224 204.707 226.224 205.318 226.831C206.172 227.681 205.44 228.409 204.951 228.895C202.876 231.687 200.556 234.236 198.48 236.906C192.864 243.947 187.369 251.109 181.875 258.15C179.311 261.427 176.746 264.705 173.694 267.618C173.084 268.225 172.473 268.832 171.863 269.317C168.932 271.624 165.147 270.774 163.56 267.497C162.705 265.797 162.461 263.855 162.461 261.67ZM200.189 190.05C200.189 190.657 199.823 190.9 199.457 191.264C197.503 193.085 195.916 195.148 195.183 197.697C194.817 198.79 193.962 199.154 192.864 198.79C191.52 198.426 190.299 197.94 189.323 196.969C188.102 195.877 187.857 194.784 188.956 193.691C190.788 191.506 192.741 189.443 195.305 188.108C196.404 187.501 199.579 188.593 200.067 189.686C200.189 189.807 200.189 189.928 200.189 190.05Z" fill="white"/>
<path d="M148.432 222.461C145.745 225.617 143.181 228.895 140.495 232.051C137.809 235.328 135.123 238.727 132.315 242.005C130.972 243.704 129.262 245.282 127.553 246.739C124.378 249.409 118.151 247.346 117.785 242.247C117.663 239.213 117.907 236.178 118.884 233.265C121.448 225.01 125.965 217.969 132.559 212.386C134.879 210.443 137.565 208.987 140.617 208.38C144.036 207.651 146.844 208.501 149.042 211.414C150.874 213.964 150.874 213.964 152.949 211.657C154.17 210.201 155.391 208.744 156.612 207.287C157.833 205.952 158.077 206.073 159.298 207.287C160.886 208.865 160.764 210.443 159.787 212.386C155.758 220.276 151.85 228.166 148.676 236.421C147.455 239.698 146.234 242.976 145.623 246.375C145.379 247.831 145.257 249.288 145.501 250.623C145.623 252.201 146.478 252.687 148.065 252.201C148.92 251.959 149.775 251.352 150.507 250.866C152.461 249.409 154.048 247.71 155.758 245.889C161.008 240.184 166.38 234.236 171.63 228.409C172.119 227.923 172.607 227.438 173.218 226.952C173.828 226.224 174.561 226.224 175.293 226.831C176.026 227.559 175.782 228.166 175.293 228.773C173.706 230.594 171.997 232.536 170.409 234.357C167.357 238.12 164.182 241.762 161.008 245.525C158.444 248.438 155.758 251.352 152.583 253.537C150.385 255.115 147.943 255.722 145.379 254.508C142.449 253.173 141.594 250.745 141.35 247.953C141.106 245.039 141.716 242.126 142.571 239.334C144.036 233.872 146.112 228.773 148.432 223.675C148.554 223.432 148.676 223.068 148.798 222.825C148.676 222.704 148.554 222.582 148.432 222.461ZM124.134 243.826C125.843 242.854 127.186 241.519 128.407 240.184C134.879 232.536 141.35 225.01 147.821 217.484C148.065 217.12 148.676 216.756 148.31 216.027C146.966 215.663 145.745 215.906 144.524 216.391C142.693 216.998 140.984 218.091 139.274 219.183C135.001 222.34 131.704 226.467 128.896 230.837C126.82 234.114 124.989 237.635 124.134 241.398C123.89 242.247 123.524 242.976 124.134 243.826Z" fill="white"/>
<path d="M106.991 237.028C108.212 236.057 109.555 235.207 110.898 234.236C114.073 232.051 117.369 229.866 120.788 228.045C121.765 227.438 122.742 227.074 123.841 226.588C124.817 226.103 125.428 226.71 126.038 227.438C126.405 227.923 126.405 228.288 125.916 228.652C125.672 228.895 125.428 229.016 125.184 229.259C118.346 232.779 112.363 237.513 106.136 242.126C104.793 243.097 104.061 244.311 103.45 245.889C98.8104 259.849 93.6822 273.566 87.4552 286.919C84.1585 294.202 80.3734 301.364 75.3674 307.677C73.1696 310.347 70.7276 312.775 67.6752 314.474C65.2332 315.81 62.6691 316.417 59.8609 315.688C57.0526 315.081 55.3432 313.261 54.3664 310.711C53.1454 307.434 53.3896 304.278 54.1222 301C54.8548 297.116 56.32 293.474 57.9073 289.832C61.6923 281.578 67.0647 274.294 72.8033 267.375C79.7629 259.121 87.5773 251.716 96.0021 245.161C96.9789 244.311 97.7115 243.461 98.1999 242.369C101.13 235.328 104.061 228.288 106.991 221.247C107.235 220.519 107.479 219.912 107.724 219.183C107.724 218.819 107.601 218.576 107.357 218.334C106.991 218.212 106.747 218.334 106.503 218.576C105.526 219.669 104.671 220.64 103.816 221.611C97.2231 229.502 90.6297 237.392 84.0364 245.282C81.9607 247.71 79.6408 250.016 77.1989 252.201C75.4895 253.658 73.658 254.022 71.5823 253.173C69.7509 252.323 68.7741 250.988 68.652 248.924C68.5299 246.375 69.1404 243.826 69.9951 241.519C73.1696 232.172 78.1757 223.918 85.99 217.605C87.9436 216.027 90.1413 214.571 92.4612 213.599C96.7347 211.779 101.008 210.929 105.404 212.993C106.136 213.357 106.747 213.114 107.357 212.628C107.968 211.9 108.7 211.293 109.433 210.686C110.166 210.201 110.898 209.351 111.753 209.836C112.852 210.443 113.706 211.293 113.706 212.628C113.706 213.842 113.462 215.056 113.096 216.149C111.142 222.218 109.189 228.288 107.235 234.357C106.991 235.085 106.747 235.814 106.625 236.542C106.747 236.664 106.869 236.785 106.991 237.028ZM93.8043 252.566C93.3159 252.444 92.9496 252.808 92.7054 253.051C84.1585 261.063 75.9779 269.439 69.1404 279.029C64.7448 285.341 60.9597 291.896 58.762 299.301C57.7852 302.578 57.4189 305.856 58.0294 309.133C59.1283 314.11 60.9597 313.989 64.3785 311.804C66.4542 310.469 68.1636 308.526 69.7509 306.463C73.9022 300.879 76.8326 294.688 79.6409 288.376C84.769 277.086 89.0424 265.433 93.5601 253.901C93.6822 253.537 94.0485 253.051 93.8043 252.566ZM102.718 217.727C101.252 217.241 100.398 217.484 99.665 217.727C97.101 218.455 94.9032 219.548 92.8275 221.126C89.6529 223.311 86.8447 225.86 84.4027 228.895C80.1292 234.114 76.5884 239.82 74.6348 246.375C74.3906 246.982 74.0243 247.467 74.7569 248.317C84.769 238.849 93.438 228.288 102.718 217.727Z" fill="white"/>
<path d="M50.747 246.253C51.4796 242.854 51.968 237.635 53.3111 232.658C53.4332 232.294 53.5553 231.929 53.5553 231.565C53.9216 229.38 53.9216 229.38 51.8459 229.259C48.0608 228.773 44.3979 228.288 40.7349 227.438C39.2697 227.074 38.415 227.317 37.4382 228.409C29.3797 237.756 21.1991 247.103 13.1406 256.329C10.4544 259.363 7.89036 262.398 5.08209 265.19C3.4948 266.647 2.15172 266.647 0.686534 265.19C-0.0460585 264.583 -0.290256 263.733 0.442336 263.005C1.29703 261.913 2.15172 260.82 3.00641 259.728C11.9196 249.045 20.8328 238.242 29.746 227.438C32.188 224.403 32.3101 224.403 29.0134 222.582C24.8621 220.033 21.077 216.998 18.3909 212.75C15.0942 207.287 14.9721 201.46 16.9257 195.512C19.3676 188.35 23.6411 182.402 29.0134 177.182C35.9731 170.263 44.0316 164.801 53.189 161.28C57.0961 159.702 61.1254 158.731 65.2768 158.61C66.864 158.488 68.3292 158.731 69.7944 159.095C72.6027 159.824 74.6784 161.402 75.5331 164.315C75.6552 164.922 75.8993 165.408 76.1436 165.893C78.2192 169.292 77.7308 172.934 76.6319 176.454C76.0215 178.275 75.411 179.974 74.4342 181.553C72.8469 184.466 72.2364 187.743 71.1375 190.9C68.6955 198.304 66.2535 205.588 63.9337 212.871C63.079 215.542 62.3464 218.212 61.4917 220.883C61.2475 222.097 61.4917 222.582 62.8348 222.461C65.2768 222.218 67.5966 221.975 69.9165 221.611C71.8701 221.368 73.2132 222.097 74.3121 223.553C75.0447 224.525 74.9226 225.01 73.9458 225.738C73.0911 226.345 72.1143 226.588 71.0154 226.831C67.9629 227.681 64.9105 228.409 61.7359 228.773C60.1486 228.895 59.2939 229.623 59.0497 230.958C58.195 234.357 57.4624 237.756 56.7299 241.155C55.8752 244.797 55.2647 248.56 54.5321 252.201C52.9448 260.213 51.8459 268.346 51.968 276.479C51.968 277.329 52.4564 278.543 50.9912 278.786C49.6481 279.029 48.5492 278.179 48.305 276.722C47.8166 274.416 47.8166 272.109 47.9387 269.803C48.1829 262.52 49.2818 255.115 50.747 246.253ZM22.7864 201.46C22.4201 202.917 22.298 204.859 22.5422 206.68C23.1527 212.143 25.2284 216.513 30.967 218.455C31.8217 218.819 32.5543 219.183 33.409 219.426C35.7289 220.276 35.7289 220.276 37.1941 218.334C41.4675 213.114 45.741 207.894 50.0144 202.674C55.7531 195.512 61.7359 188.593 66.864 180.946C69.1839 177.668 71.3817 174.269 72.6027 170.263C73.7016 166.136 73.3353 165.893 69.1839 164.558C68.8176 164.437 68.4513 164.437 68.085 164.437C64.7884 164.315 61.4917 164.679 58.3171 165.65C44.8863 170.02 34.63 178.275 27.0599 190.171C24.8621 193.449 23.2748 197.212 22.7864 201.46ZM43.5432 221.733C47.0841 222.825 50.2586 222.704 53.4332 222.825C55.2647 222.825 55.3868 222.582 55.8752 220.64C56.6078 216.877 57.5845 213.114 58.5613 209.229C59.0497 207.287 59.9044 205.466 59.9044 203.281C54.6542 209.472 49.1597 215.42 43.5432 221.733Z" fill="white"/>
</svg>
