<svg width="420" height="332" viewBox="0 0 420 332" fill="none" xmlns="http://www.w3.org/2000/svg">
<path d="M182.477 232.646V274.946H216.277V232.646H182.477Z" fill="#002548"/>
<path opacity="0.19" d="M182.477 232.646V274.946H216.277V232.646H182.477Z" fill="#F9FAFB"/>
<path d="M134.902 284V279L153.202 274.9H245.502L263.902 278.9V284H134.902Z" fill="#002548"/>
<path d="M306.82 242.699V101.099L91.9203 101.099L91.9203 242.699L306.82 242.699Z" fill="#002548"/>
<path d="M304.8 103.1H94V234.5H304.8V103.1Z" fill="#5F737C"/>
<path d="M303.202 105.3H95.6016V232.2H303.202V105.3Z" fill="#D2D9DC"/>
<path d="M206 110.3H156V113.6H206V110.3Z" fill="#D2D9DC"/>
<path d="M181 123.9H156V127.2H181V123.9Z" fill="#D2D9DC"/>
<path d="M212.801 123.9H187.801V127.2H212.801V123.9Z" fill="#D2D9DC"/>
<path d="M242.703 123.9H217.703V127.2H242.703V123.9Z" fill="#D2D9DC"/>
<path d="M169.5 130.9H156V134.2H169.5V130.9Z" fill="#D2D9DC"/>
<path d="M224.401 130.9H176.301V134.2H224.401V130.9Z" fill="#D2D9DC"/>
<path d="M242.701 130.9H229.301V134.2H242.701V130.9Z" fill="#D2D9DC"/>
<path d="M181 137.9H156V141.2H181V137.9Z" fill="#D2D9DC"/>
<path d="M212.801 137.9H187.801V141.2H212.801V137.9Z" fill="#D2D9DC"/>
<path d="M242.703 137.9H217.703V141.2H242.703V137.9Z" fill="#D2D9DC"/>
<path d="M169.5 145H156V148.3H169.5V145Z" fill="#D2D9DC"/>
<path d="M224.401 145H176.301V148.3H224.401V145Z" fill="#D2D9DC"/>
<path d="M242.701 145H229.301V148.3H242.701V145Z" fill="#D2D9DC"/>
<path d="M160.8 152H156V155.3H160.8V152Z" fill="#D2D9DC"/>
<path d="M200.302 152H167.602V155.3H200.302V152Z" fill="#D2D9DC"/>
<path d="M242.603 152H205.203V155.3H242.603V152Z" fill="#D2D9DC"/>
<path d="M181 159H156V162.3H181V159Z" fill="#D2D9DC"/>
<path d="M212.801 159H187.801V162.3H212.801V159Z" fill="#D2D9DC"/>
<path d="M242.703 159H217.703V162.3H242.703V159Z" fill="#D2D9DC"/>
<path d="M169.5 166.1H156V169.4H169.5V166.1Z" fill="#D2D9DC"/>
<path d="M224.401 166.1H176.301V169.4H224.401V166.1Z" fill="#D2D9DC"/>
<path d="M242.701 166.1H229.301V169.4H242.701V166.1Z" fill="#D2D9DC"/>
<path d="M181 173.1H156V176.4H181V173.1Z" fill="#D2D9DC"/>
<path d="M212.801 173.1H187.801V176.4H212.801V173.1Z" fill="#D2D9DC"/>
<path d="M242.703 173.1H217.703V176.4H242.703V173.1Z" fill="#D2D9DC"/>
<path d="M160.8 193H156V196.3H160.8V193Z" fill="#D2D9DC"/>
<path d="M200.302 193H167.602V196.3H200.302V193Z" fill="#D2D9DC"/>
<path d="M242.603 193H205.203V196.3H242.603V193Z" fill="#D2D9DC"/>
<path d="M181 200.1H156V203.4H181V200.1Z" fill="#D2D9DC"/>
<path d="M212.801 200.1H187.801V203.4H212.801V200.1Z" fill="#D2D9DC"/>
<path d="M242.703 200.1H217.703V203.4H242.703V200.1Z" fill="#D2D9DC"/>
<path d="M169.5 207.1H156V210.4H169.5V207.1Z" fill="#D2D9DC"/>
<path d="M224.401 207.1H176.301V210.4H224.401V207.1Z" fill="#D2D9DC"/>
<path d="M242.701 207.1H229.301V210.4H242.701V207.1Z" fill="#D2D9DC"/>
<path d="M181 214.1H156V217.4H181V214.1Z" fill="#D2D9DC"/>
<path d="M169.5 180.1H156V183.4H169.5V180.1Z" fill="#D2D9DC"/>
<path d="M200.401 180.1H176.301V183.4H200.401V180.1Z" fill="#D2D9DC"/>
<path d="M303.331 235.236L303.059 105L282.385 105.043L282.657 235.279L303.331 235.236Z" fill="#E6F4FF"/>
<path d="M73.6781 168.391L72.3114 166.03C72.1352 165.73 71.6818 165.685 71.3776 165.858L70.0074 166.638L70.001 166.641C69.4309 166.056 68.6874 165.443 67.8923 165.009L68.3005 163.491C68.3924 163.155 68.1923 162.809 67.8534 162.718L65.2028 162.007C64.864 161.917 64.516 162.114 64.424 162.45L64.0144 163.959L64.018 163.963C63.1351 163.933 62.3528 163.977 61.3815 164.284L60.5956 162.927C60.4202 162.626 59.9979 162.507 59.6937 162.681L57.3112 164.037C57.0063 164.21 57.0381 164.551 57.2122 164.853L57.9988 166.21L58.0023 166.217C57.239 166.881 56.7418 167.547 56.3046 168.335L54.72 167.961C54.3812 167.87 54.0325 168.069 53.9419 168.406L53.2253 171.033C53.1334 171.369 53.3357 171.716 53.6738 171.807L55.2004 172.219L55.2117 172.229C55.1813 173.102 55.2407 173.904 55.5505 174.864L54.1803 175.644C53.8754 175.817 53.8316 176.128 54.0063 176.43L55.3744 178.79C55.5498 179.091 55.8186 179.171 56.1228 178.997L57.4923 178.217L57.4987 178.214C58.1686 178.971 58.8285 179.437 59.6237 179.871L59.2325 181.417C59.1412 181.753 59.3442 182.096 59.6824 182.187L62.3379 182.895C62.6767 182.986 63.034 182.783 63.1259 182.447L63.5546 180.927L63.59 180.902C64.4714 180.931 65.3323 180.844 66.3021 180.537L67.0887 181.893C67.2635 182.195 67.5018 182.348 67.8074 182.174L70.1892 180.819C70.4927 180.646 70.6462 180.271 70.4715 179.969L69.6856 178.612L69.6827 178.606C70.4446 177.942 70.8655 177.318 71.3033 176.53L72.8101 176.947C73.1489 177.038 73.4977 176.837 73.5889 176.502L74.3041 173.872C74.3961 173.536 74.193 173.185 73.8535 173.095L72.3227 172.675L72.3043 172.653C72.3347 171.78 72.2604 170.952 71.9513 169.991L73.3201 169.211C73.6257 169.037 73.8535 168.693 73.6781 168.391ZM60.6564 170.009C60.9606 169.627 61.3419 169.294 61.7939 169.036C62.3556 168.716 62.9654 168.548 63.5709 168.518C63.6353 168.516 63.6982 168.515 63.7619 168.515C63.7937 168.515 63.8255 168.515 63.8574 168.515C63.921 168.517 63.9854 168.52 64.0484 168.525C64.1113 168.53 64.1743 168.536 64.2372 168.542C64.2684 168.546 64.3002 168.551 64.3313 168.556C64.4572 168.573 64.581 168.597 64.7041 168.627C64.7338 168.635 64.765 168.643 64.7961 168.65C64.8569 168.667 64.9178 168.685 64.9772 168.704C65.0069 168.714 65.038 168.725 65.067 168.735C65.1271 168.755 65.1859 168.778 65.2446 168.8C65.2743 168.812 65.3033 168.824 65.3323 168.837C65.374 168.854 65.415 168.873 65.4547 168.892C65.5006 168.914 65.5459 168.936 65.5898 168.958C65.6471 168.987 65.7022 169.018 65.7574 169.049C65.8296 169.092 65.9024 169.137 65.9732 169.184C66.0085 169.207 66.0432 169.23 66.0779 169.257C66.1302 169.293 66.1811 169.332 66.2321 169.372C66.3071 169.432 66.3806 169.494 66.4521 169.56C66.4995 169.603 66.5462 169.649 66.5914 169.695C66.8192 169.927 67.0222 170.19 67.192 170.483C67.4983 171.01 67.666 171.579 67.707 172.148C67.7141 172.243 67.7183 172.338 67.7183 172.433C67.7183 172.496 67.7162 172.559 67.7134 172.622C67.7105 172.685 67.7056 172.748 67.6992 172.81C67.6843 172.966 67.6596 173.121 67.6256 173.274C67.6122 173.336 67.5966 173.396 67.5811 173.457C67.5563 173.547 67.5273 173.638 67.4969 173.726C67.475 173.786 67.453 173.845 67.4297 173.902C67.4177 173.932 67.4049 173.961 67.3929 173.99C67.3681 174.047 67.3406 174.105 67.3137 174.161C67.2712 174.247 67.2267 174.33 67.1786 174.411C67.1467 174.466 67.1128 174.52 67.0774 174.572C66.7471 175.076 66.2943 175.513 65.732 175.833C65.2587 176.102 64.7522 176.264 64.2422 176.325C64.1778 176.333 64.1142 176.339 64.0505 176.343C63.8595 176.357 63.6678 176.357 63.4782 176.343C63.4153 176.338 63.3516 176.332 63.2879 176.325C63.2568 176.321 63.2257 176.316 63.1938 176.312C63.1005 176.299 63.0064 176.282 62.9144 176.261C61.864 176.033 60.9111 175.382 60.3325 174.385C60.0573 173.911 59.8939 173.402 59.833 172.892C59.8076 172.673 59.8012 172.453 59.8125 172.235C59.8168 172.163 59.8217 172.09 59.8302 172.018C59.85 171.837 59.8826 171.658 59.9264 171.482C59.971 171.306 60.0276 171.134 60.0962 170.965C60.1082 170.937 60.1202 170.907 60.133 170.879C60.1577 170.82 60.1839 170.763 60.2122 170.708C60.2405 170.65 60.2702 170.594 60.3006 170.54C60.3622 170.43 60.4294 170.323 60.5015 170.217C60.5256 170.183 60.5496 170.149 60.5744 170.115C60.6006 170.079 60.6274 170.045 60.6564 170.009Z" fill="#0054A6"/>
<path d="M81.9762 178.057L80.6152 177.011C80.4419 176.877 80.1681 176.957 80.0323 177.13L79.4246 177.905L79.4218 177.908C78.9507 177.703 78.3728 177.522 77.8068 177.458L77.6788 176.48C77.6512 176.264 77.4524 176.111 77.2332 176.138L75.5255 176.349C75.3062 176.377 75.1527 176.574 75.1796 176.79L75.3041 177.762L75.3062 177.765C74.7877 177.954 74.3435 178.164 73.8547 178.572L73.0723 177.969C72.8983 177.835 72.6245 177.866 72.4887 178.039L71.4312 179.386C71.296 179.559 71.3958 179.75 71.5698 179.883L72.3508 180.486L72.3543 180.489C72.0706 181.054 71.9426 181.558 71.8775 182.119L70.8674 182.275C70.6495 182.302 70.4946 182.499 70.5229 182.716L70.7372 184.41C70.7648 184.628 70.9643 184.781 71.1836 184.754L72.1682 184.633L72.1767 184.637C72.3684 185.151 72.5955 185.602 73.0058 186.086L72.3974 186.862C72.2623 187.034 72.3104 187.225 72.4845 187.359L73.8448 188.407C74.0181 188.542 74.1942 188.523 74.3293 188.35L74.9377 187.575L74.9398 187.57C75.51 187.852 76.0058 187.967 76.5717 188.033L76.7153 189.021C76.7429 189.239 76.9431 189.391 77.1617 189.363L78.8736 189.148C79.0922 189.121 79.2506 188.919 79.223 188.702L79.1077 187.719L79.1212 187.696C79.6411 187.506 80.1193 187.252 80.6095 186.845L81.3905 187.448C81.5645 187.582 81.7392 187.614 81.875 187.442L82.9319 186.095C83.0677 185.922 83.0663 185.668 82.893 185.535L82.1106 184.931L82.1064 184.928C82.3914 184.362 82.4855 183.903 82.5492 183.342L83.5247 183.229C83.7433 183.202 83.8975 183.004 83.8699 182.788L83.6548 181.093C83.628 180.876 83.4242 180.72 83.2056 180.748L82.2167 180.864L82.2011 180.855C82.0094 180.342 81.7675 179.879 81.3572 179.394L81.9663 178.619C82.1 178.445 82.1495 178.191 81.9762 178.057ZM74.804 182.064C74.8889 181.771 75.0303 181.488 75.232 181.231C75.4817 180.913 75.7943 180.673 76.1388 180.513C76.1756 180.497 76.2124 180.48 76.2492 180.465C76.2676 180.458 76.2867 180.451 76.3058 180.444C76.3411 180.431 76.38 180.417 76.4182 180.405C76.4557 180.393 76.4939 180.381 76.5328 180.371C76.5519 180.365 76.5703 180.361 76.5894 180.356C76.6672 180.336 76.7451 180.322 76.8236 180.31C76.8427 180.307 76.8625 180.305 76.8816 180.301C76.9219 180.296 76.9608 180.293 77.0004 180.29C77.0202 180.289 77.0393 180.286 77.0606 180.286C77.0995 180.284 77.1398 180.282 77.1794 180.282C77.1985 180.282 77.2197 180.282 77.2388 180.283C77.2671 180.283 77.2947 180.284 77.323 180.285C77.3548 180.286 77.386 180.289 77.4171 180.292C77.4574 180.295 77.497 180.3 77.5373 180.306C77.5897 180.313 77.6413 180.322 77.6944 180.333C77.7205 180.338 77.7467 180.344 77.7722 180.35C77.8111 180.359 77.8493 180.37 77.8896 180.381C77.9469 180.397 78.0049 180.417 78.0622 180.438C78.1004 180.453 78.1379 180.468 78.1761 180.484C78.3636 180.566 78.5447 180.67 78.7137 180.801C79.0179 181.034 79.252 181.326 79.4126 181.645C79.4395 181.7 79.4643 181.754 79.4876 181.807C79.5025 181.845 79.5166 181.882 79.5293 181.919C79.5435 181.957 79.5555 181.993 79.5668 182.031C79.5951 182.126 79.6185 182.22 79.6347 182.318C79.6425 182.357 79.6482 182.396 79.6531 182.434C79.6602 182.493 79.6652 182.551 79.668 182.61C79.6701 182.65 79.6715 182.689 79.6715 182.729C79.6715 182.748 79.6715 182.768 79.6708 182.788C79.6701 182.828 79.6687 182.867 79.6659 182.906C79.6616 182.965 79.656 183.025 79.6482 183.083C79.6425 183.122 79.6354 183.161 79.6284 183.199C79.5576 183.57 79.3992 183.931 79.1502 184.248C78.9401 184.517 78.6847 184.73 78.4032 184.885C78.3685 184.904 78.3324 184.923 78.2971 184.941C78.1903 184.993 78.0778 185.038 77.9639 185.075C77.9257 185.087 77.8882 185.099 77.85 185.109C77.8309 185.114 77.8118 185.119 77.792 185.124C77.7347 185.138 77.6767 185.15 77.618 185.16C76.9537 185.276 76.2435 185.122 75.6691 184.679C75.3961 184.469 75.1789 184.213 75.0212 183.929C74.9539 183.808 74.8974 183.682 74.8521 183.553C74.8358 183.51 74.8224 183.467 74.8096 183.423C74.7778 183.313 74.7531 183.202 74.7368 183.089C74.7198 182.976 74.712 182.863 74.7113 182.749C74.7099 182.73 74.7113 182.709 74.7113 182.691C74.712 182.651 74.7141 182.612 74.7163 182.572C74.7184 182.533 74.7226 182.493 74.7276 182.454C74.7368 182.377 74.7495 182.298 74.7658 182.22C74.7714 182.194 74.7778 182.169 74.7835 182.144C74.7891 182.119 74.7969 182.091 74.804 182.064Z" fill="#0054A6"/>
<path d="M82.6837 126.724C82.6837 129.098 81.0808 131.132 78.8001 131.993C78.288 132.272 77.6888 132.431 77.0479 132.431H58.1366C57.9796 132.431 57.8253 132.421 57.6733 132.403C54.4879 132.113 52 129.681 52 126.724C52 123.844 54.357 121.464 57.4221 121.073C57.8798 118.821 60.0621 117.113 62.6858 117.113C63.5609 117.113 64.3857 117.303 65.1143 117.639C66.5071 116.085 68.6342 115.089 71.0181 115.089C74.5997 115.089 77.6004 117.334 78.3983 120.353C79.4863 120.471 80.3302 121.293 80.362 122.301C81.7782 123.348 82.6837 124.94 82.6837 126.724Z" fill="#0054A6"/>
<path d="M209.606 84.261C209.483 82.934 209.335 81.6076 209.209 80.2813C209.098 79.1353 209 77.9886 208.904 76.8412C208.818 75.8177 208.369 74.9285 207.444 74.289C206.981 73.9685 206.721 73.6085 206.622 73.1324C206.5 72.5417 206.037 72.2411 205.416 72.0996C204.563 71.9058 203.73 72.0048 202.935 72.3182C202.528 72.4788 202.277 72.7568 202.207 73.1487C202.168 73.3665 202.112 73.5823 202.066 73.7988C202.006 74.0768 201.794 74.2338 201.472 74.2338C197.983 74.2345 194.493 74.2345 191.003 74.2345C190.588 74.2345 190.398 74.093 190.328 73.7358C190.29 73.542 190.245 73.3489 190.208 73.155C190.136 72.7674 189.891 72.4823 189.483 72.3217C188.66 71.9977 187.8 71.8973 186.923 72.1173C186.352 72.2609 185.917 72.5545 185.796 73.1055C185.752 73.3057 185.683 73.5038 185.596 73.6934C185.542 73.8087 185.455 73.931 185.343 74.0032C184.222 74.7247 183.606 75.6719 183.509 76.8837C183.393 78.3451 183.248 79.8059 183.108 81.266C183.012 82.2789 182.909 83.2912 182.805 84.3035C182.653 85.7862 184.691 86.8112 185.941 86.49C186.928 86.2375 187.667 85.702 188.22 84.9847C188.74 84.3098 189.197 83.5989 189.681 82.9036C189.73 82.8335 189.782 82.7642 189.838 82.6857C190.452 83.1412 191.137 83.3952 191.912 83.3952C193.313 83.3959 194.33 82.8406 194.954 81.7512C194.997 81.6748 195.103 81.5737 195.181 81.5715C195.911 81.5581 196.641 81.5638 197.364 81.5638C198.134 83.3266 200.707 84.0467 202.591 82.6977C202.643 82.7734 202.694 82.847 202.745 82.9205C203.204 83.5827 203.656 84.2483 204.126 84.9048C204.462 85.3738 204.909 85.755 205.436 86.0663C206.571 86.7397 207.663 86.7037 208.735 85.9581C209.36 85.523 209.671 84.9557 209.606 84.261ZM188.032 79.7281C186.301 79.7288 184.889 78.4661 184.887 76.9183C184.885 75.331 186.287 74.0499 188.026 74.0478C189.766 74.0463 191.166 75.3246 191.168 76.9134C191.168 78.6125 189.599 79.7281 188.032 79.7281ZM204.331 79.7826C202.603 79.7818 201.198 78.5199 201.198 76.965C201.198 75.3755 202.593 74.1051 204.341 74.1029C206.067 74.1015 207.481 75.384 207.476 76.9509C207.474 78.5248 206.077 79.7833 204.331 79.7826Z" fill="#0054A6"/>
<path d="M185.941 77.5494C185.941 77.0932 185.941 76.673 185.941 76.228C186.26 76.228 186.562 76.2245 186.864 76.2309C186.918 76.2316 186.979 76.2627 187.021 76.2974C187.243 76.4834 187.461 76.6744 187.721 76.9C187.466 77.1165 187.241 77.3096 187.01 77.4971C186.969 77.5282 186.901 77.5466 186.846 77.548C186.551 77.5523 186.258 77.5494 185.941 77.5494Z" fill="#0054A6"/>
<path d="M189.976 77.5494C189.976 77.0932 189.976 76.673 189.976 76.228C189.657 76.228 189.354 76.2245 189.053 76.2309C189 76.2316 188.937 76.2627 188.896 76.2974C188.674 76.4834 188.456 76.6744 188.195 76.9C188.451 77.1165 188.676 77.3096 188.907 77.4971C188.947 77.5282 189.015 77.5466 189.07 77.548C189.365 77.5523 189.66 77.5494 189.976 77.5494Z" fill="#0054A6"/>
<path d="M187.231 75.1089C187.736 75.1089 188.2 75.1089 188.693 75.1089C188.693 75.3975 188.696 75.6706 188.689 75.9429C188.688 75.991 188.654 76.0476 188.615 76.0851C188.41 76.2867 188.198 76.4826 187.951 76.7189C187.711 76.4869 187.497 76.2839 187.291 76.0752C187.253 76.0391 187.234 75.9776 187.233 75.9266C187.228 75.6607 187.231 75.394 187.231 75.1089Z" fill="#0054A6"/>
<path d="M187.231 78.6732C187.736 78.6732 188.2 78.6732 188.693 78.6732C188.693 78.3846 188.696 78.1116 188.689 77.8385C188.688 77.7904 188.654 77.7338 188.615 77.697C188.41 77.4962 188.198 77.2995 187.951 77.0632C187.711 77.2953 187.497 77.4976 187.291 77.707C187.253 77.7437 187.234 77.8053 187.233 77.8555C187.228 78.1215 187.231 78.3882 187.231 78.6732Z" fill="#0054A6"/>
<path d="M205.234 78.4413C205.234 78.8544 204.861 79.194 204.404 79.1968C203.947 79.1996 203.567 78.8643 203.563 78.4526C203.557 78.0289 203.936 77.6837 204.405 77.6858C204.859 77.6872 205.234 78.0296 205.234 78.4413Z" fill="#0054A6"/>
<path d="M204.402 74.5623C204.859 74.5644 205.233 74.9032 205.233 75.3142C205.233 75.7372 204.846 76.0803 204.38 76.0725C203.925 76.0655 203.556 75.7196 203.563 75.3064C203.567 74.894 203.944 74.5594 204.402 74.5623Z" fill="#0054A6"/>
<path d="M202.734 76.1326C203.191 76.1354 203.565 76.475 203.565 76.8867C203.563 77.3083 203.174 77.6521 202.709 77.6436C202.253 77.6351 201.888 77.2892 201.895 76.876C201.9 76.4622 202.275 76.1305 202.734 76.1326Z" fill="#0054A6"/>
<path d="M206.083 76.1233C206.539 76.1269 206.911 76.4678 206.91 76.8802C206.908 77.2919 206.532 77.6322 206.077 77.6343C205.611 77.6357 205.23 77.2863 205.238 76.8632C205.247 76.4494 205.623 76.1198 206.083 76.1233Z" fill="#0054A6"/>
<path d="M316.437 122.163L320.475 128.489C321.006 129.319 321.874 129.319 322.404 128.489L326.445 122.164C326.976 121.332 326.542 120.652 325.48 120.652H324.242L324.243 114.002C324.243 112.604 322.991 111.469 321.444 111.469C319.896 111.469 318.642 112.602 318.642 114.001L318.641 120.65H317.402C316.341 120.651 315.907 121.332 316.437 122.163Z" fill="#0054A6"/>
<path d="M331.071 126.227H328.804C328.137 126.227 327.579 126.88 327.579 127.482V133.301H315.553V127.482C315.553 126.879 314.746 126.227 314.079 126.227H311.81C311.143 126.227 310.602 126.88 310.602 127.482V134.142V135.331V135.391C310.602 135.511 310.622 135.968 310.662 136.076C310.858 136.723 311.512 137.544 312.288 137.544H330.595C331.371 137.544 331.796 136.723 331.994 136.076C332.033 135.968 331.824 135.511 331.824 135.391V135.331V134.142V127.482C331.823 126.88 331.738 126.227 331.071 126.227Z" fill="#0054A6"/>
<path d="M67.34 160.447C66.68 160.447 66.1445 159.963 66.1445 159.366V158.285C66.1445 157.688 66.68 157.204 67.34 157.204C68.0007 157.204 68.5355 157.689 68.5355 158.285V159.366C68.5355 159.963 68 160.447 67.34 160.447ZM67.34 155.042C66.68 155.042 66.1445 154.557 66.1445 153.961V152.879C66.1445 152.282 66.68 151.798 67.34 151.798C68.0007 151.798 68.5355 152.282 68.5355 152.879V153.961C68.5355 154.558 68 155.042 67.34 155.042ZM67.34 149.636C66.68 149.636 66.1445 149.153 66.1445 148.556V147.475C66.1445 146.878 66.68 146.393 67.34 146.393C68.0007 146.393 68.5355 146.878 68.5355 147.475V148.556C68.5355 149.153 68 149.636 67.34 149.636ZM67.34 144.231C66.68 144.231 66.1445 143.747 66.1445 143.15V142.069C66.1445 141.472 66.68 140.987 67.34 140.987C68.0007 140.987 68.5355 141.472 68.5355 142.069V143.15C68.5355 143.747 68 144.231 67.34 144.231ZM67.34 138.826C66.68 138.826 66.1445 138.342 66.1445 137.745V136.664C66.1445 136.067 66.68 135.582 67.34 135.582C68.0007 135.582 68.5355 136.067 68.5355 136.664V137.745C68.5355 138.342 68 138.826 67.34 138.826Z" fill="#839299"/>
<path d="M196.007 109.475C195.347 109.475 194.812 108.991 194.812 108.394V107.313C194.812 106.716 195.347 106.232 196.007 106.232C196.667 106.232 197.202 106.716 197.202 107.313V108.394C197.202 108.991 196.667 109.475 196.007 109.475ZM196.007 104.07C195.347 104.07 194.812 103.585 194.812 102.988V101.907C194.812 101.31 195.347 100.826 196.007 100.826C196.667 100.826 197.202 101.311 197.202 101.907V102.988C197.202 103.586 196.667 104.07 196.007 104.07ZM196.007 98.6645C195.347 98.6645 194.812 98.1807 194.812 97.5836V96.5028C194.812 95.9057 195.347 95.4219 196.007 95.4219C196.667 95.4219 197.202 95.9057 197.202 96.5028V97.5836C197.202 98.1807 196.667 98.6645 196.007 98.6645ZM196.007 93.2594C195.347 93.2594 194.812 92.7755 194.812 92.1785V91.0976C194.812 90.5006 195.347 90.0167 196.007 90.0167C196.667 90.0167 197.202 90.5006 197.202 91.0976V92.1785C197.202 92.7755 196.667 93.2594 196.007 93.2594ZM196.007 87.8542C195.347 87.8542 194.812 87.3704 194.812 86.7733V85.6917C194.812 85.0947 195.347 84.6108 196.007 84.6108C196.667 84.6108 197.202 85.0954 197.202 85.6917V86.7733C197.202 87.3697 196.667 87.8542 196.007 87.8542Z" fill="#839299"/>
<path d="M86.2306 125.434C86.22 124.837 86.7463 124.345 87.407 124.336L88.6025 124.319C89.2625 124.31 89.8058 124.786 89.8171 125.383C89.827 125.98 89.3007 126.472 88.6407 126.481L87.4452 126.498C86.7845 126.507 86.2419 126.03 86.2306 125.434ZM92.2081 125.348C92.1974 124.751 92.7237 124.259 93.3844 124.25L94.5799 124.233C95.2406 124.224 95.7839 124.7 95.7938 125.296C95.8044 125.893 95.2774 126.385 94.6174 126.395L93.4226 126.412C92.7619 126.422 92.2187 125.946 92.2081 125.348ZM98.1841 125.264C98.1735 124.667 98.7012 124.174 99.3612 124.165L100.557 124.148C101.217 124.138 101.761 124.616 101.771 125.211C101.781 125.808 101.255 126.301 100.595 126.311L99.3994 126.327C98.7387 126.336 98.1947 125.86 98.1841 125.264ZM104.162 125.178C104.151 124.581 104.678 124.089 105.338 124.08L106.533 124.063C107.194 124.053 107.737 124.53 107.748 125.127C107.759 125.724 107.232 126.216 106.572 126.225L105.376 126.242C104.715 126.251 104.172 125.774 104.162 125.178ZM110.138 125.092C110.128 124.495 110.655 124.004 111.315 123.995L112.51 123.977C113.171 123.968 113.714 124.444 113.724 125.041C113.735 125.638 113.208 126.13 112.548 126.139L111.353 126.156C110.692 126.166 110.149 125.69 110.138 125.092Z" fill="#839299"/>
<path d="M279.391 129.444C279.38 128.847 279.907 128.356 280.567 128.347L281.762 128.33C282.423 128.32 282.966 128.796 282.977 129.393C282.987 129.991 282.461 130.481 281.801 130.491L280.605 130.508C279.945 130.518 279.401 130.042 279.391 129.444ZM285.368 129.359C285.357 128.762 285.883 128.27 286.545 128.261L287.739 128.244C288.399 128.235 288.943 128.711 288.954 129.308C288.965 129.905 288.438 130.397 287.778 130.406L286.582 130.423C285.921 130.433 285.379 129.956 285.368 129.359ZM291.344 129.274C291.333 128.677 291.861 128.185 292.521 128.175L293.716 128.158C294.376 128.149 294.919 128.625 294.931 129.222C294.941 129.819 294.414 130.311 293.754 130.32L292.559 130.337C291.899 130.347 291.355 129.871 291.344 129.274ZM297.321 129.188C297.31 128.591 297.837 128.1 298.497 128.09L299.693 128.073C300.353 128.064 300.896 128.54 300.907 129.137C300.918 129.734 300.39 130.226 299.73 130.235L298.536 130.252C297.876 130.262 297.332 129.785 297.321 129.188ZM303.298 129.103C303.288 128.506 303.815 128.014 304.475 128.005L305.67 127.987C306.33 127.978 306.874 128.455 306.884 129.051C306.895 129.648 306.368 130.14 305.708 130.149L304.513 130.166C303.852 130.177 303.308 129.7 303.298 129.103Z" fill="#839299"/>
<path d="M84.3048 177C84.2949 176.403 84.8212 175.911 85.4812 175.902L86.6767 175.885C87.3367 175.876 87.88 176.352 87.8913 176.949C87.9012 177.546 87.3749 178.037 86.7149 178.047L85.5194 178.063C84.8587 178.073 84.3154 177.597 84.3048 177ZM90.2823 176.914C90.2716 176.318 90.7979 175.825 91.4586 175.816L92.6541 175.799C93.3148 175.79 93.8581 176.266 93.8687 176.862C93.8793 177.459 93.3523 177.951 92.6923 177.96L91.4968 177.978C90.8361 177.989 90.2929 177.512 90.2823 176.914ZM96.2583 176.829C96.2477 176.233 96.7747 175.74 97.4354 175.731L98.6309 175.714C99.2909 175.704 99.8348 176.182 99.8447 176.777C99.8546 177.375 99.3283 177.866 98.6684 177.875L97.4722 177.892C96.8129 177.902 96.2689 177.426 96.2583 176.829ZM102.236 176.744C102.225 176.147 102.753 175.656 103.411 175.646L104.607 175.629C105.268 175.619 105.811 176.096 105.821 176.693C105.832 177.29 105.306 177.782 104.645 177.791L103.45 177.808C102.79 177.817 102.246 177.341 102.236 176.744ZM108.212 176.659C108.203 176.062 108.729 175.569 109.389 175.56L110.584 175.542C111.245 175.533 111.788 176.01 111.799 176.607C111.81 177.204 111.283 177.696 110.623 177.705L109.427 177.721C108.767 177.732 108.223 177.256 108.212 176.659Z" fill="#839299"/>
<path d="M247.747 178.769H266.718C269.31 178.769 271.375 180.254 271.248 182.027L269.089 212.215C268.971 213.869 266.978 215.169 264.559 215.169H247.746C245.242 215.169 243.211 213.778 243.211 212.063V181.875C243.211 180.16 245.242 178.769 247.747 178.769Z" fill="#0054A6"/>
<path d="M163.551 122.001L267.974 123.652C271.996 123.716 275.166 127.178 274.969 131.292L273.23 167.655C273.045 171.535 269.919 174.583 266.126 174.583H163.441C159.513 174.583 156.328 171.322 156.328 167.299V129.284C156.328 125.217 159.58 121.938 163.551 122.001Z" fill="#0054A6"/>
<path d="M202.043 178.769H233.049C235.554 178.769 237.585 180.16 237.585 181.875V212.063C237.585 213.778 235.554 215.169 233.049 215.169H202.043C199.538 215.169 197.508 213.778 197.508 212.063V181.875C197.508 180.16 199.538 178.769 202.043 178.769Z" fill="#0054A6"/>
<path d="M111.179 178.414H160.259C164.224 178.414 167.438 179.888 167.438 181.706V213.708C167.438 215.526 164.224 217 160.259 217H111.179C107.214 217 104 215.526 104 213.708V181.706C104 179.888 107.214 178.414 111.179 178.414Z" fill="#0054A6"/>
<path d="M163.938 125.366L226.283 126.792C228.684 126.847 230.577 129.836 230.46 133.387L229.422 164.776C229.311 168.125 227.444 170.756 225.18 170.756H163.872C161.526 170.756 159.625 167.941 159.625 164.468V131.654C159.625 128.143 161.567 125.312 163.938 125.366Z" fill="#D2D9DC"/>
<g opacity="0.6">
<path d="M140.907 203.172C140.829 203.779 140.766 204.388 140.717 204.998C140.706 205.143 140.734 205.341 140.874 205.355C140.959 205.364 141.03 205.293 141.087 205.228C141.329 204.951 141.589 204.594 141.472 204.24C141.428 204.109 141.335 203.998 141.3 203.864C141.246 203.663 141.33 203.448 141.308 203.24C141.287 203.033 141.037 202.828 140.897 202.979L140.907 203.172Z" fill="white"/>
<path d="M125.331 183.206C124.378 182.703 123.779 182.635 122.754 182.747C121.787 182.852 121.133 183.338 120.469 184.03C120.318 184.188 120.172 184.36 119.976 184.45C119.155 184.829 118.114 184.753 117.277 185.127C116.279 185.572 115.998 186.956 115.087 187.568C114.559 187.923 113.895 187.967 113.316 188.221C112.458 188.596 112.063 189.376 111.576 190.135C111.277 190.602 110.174 191.401 110.237 191.947C110.248 192.046 110.29 192.139 110.342 192.224C110.646 192.713 111.099 192.765 111.578 192.904C112.21 193.089 112.591 193.373 113.15 193.768C113.733 194.181 114.527 194.542 114.577 195.271C114.601 195.609 114.443 195.929 114.366 196.258C114.017 197.745 115.31 199.08 116.568 199.884C117.826 200.688 119.31 201.482 119.71 202.955C119.747 203.089 119.777 203.235 119.875 203.331C120.242 203.692 120.517 202.875 120.628 202.615C120.7 202.448 120.635 202.247 120.523 202.105C120.411 201.964 120.259 201.864 120.121 201.749C119.656 201.362 119.355 200.772 119.307 200.157C119.301 200.078 119.301 199.994 119.343 199.929C119.561 199.599 120.105 199.463 120.372 199.063C120.753 198.491 120.84 197.948 120.905 197.269C121.143 194.774 123.415 195.658 124.841 194.551C125.106 194.345 125.306 194.02 125.351 193.688C125.376 193.505 125.355 193.32 125.272 193.151C125.131 192.866 124.844 192.683 124.546 192.601C124.247 192.519 123.933 192.525 123.624 192.531C123.337 192.537 123.05 192.543 122.763 192.55C122.679 192.551 122.591 192.554 122.514 192.589C122.404 192.638 122.329 192.746 122.27 192.853C122.078 193.2 121.983 193.603 122 194.002C121.622 194.135 121.255 193.775 121.049 193.421C120.811 193.013 120.64 192.563 120.545 192.096C120.508 191.916 120.486 191.716 120.576 191.557C120.626 191.47 120.705 191.405 120.784 191.345C121.106 191.106 121.476 190.925 121.87 190.882C122.542 190.809 123.195 191.14 123.746 191.547C124.275 191.937 125.138 192.404 125.732 191.843C126.039 191.554 126.044 191.026 125.831 190.658C125.484 190.06 124.599 189.747 124.023 189.445C123.753 189.304 123.58 189.013 123.503 188.71C123.426 188.407 123.434 188.089 123.441 187.777C124.239 187.451 125.177 187.515 125.926 187.946C126.033 188.007 126.146 188.092 126.159 188.217C126.172 188.346 126.073 188.453 125.996 188.555C125.306 189.458 125.926 190.187 126.738 190.696C126.757 188.407 126.762 186.107 126.764 183.815C126.271 183.653 125.791 183.45 125.331 183.206Z" fill="white"/>
<path d="M132.543 185.145C132.432 184.995 132.212 185.033 132.029 185.034C131.446 185.038 130.983 184.529 130.422 184.363C130.129 184.276 129.818 184.286 129.512 184.281C128.581 184.267 127.652 184.108 126.764 183.815C126.763 186.106 126.758 188.407 126.738 190.696C127.244 191.014 127.825 191.246 128.209 191.382C128.617 191.526 129.006 191.763 129.442 191.674C129.846 191.592 130.21 191.135 130.63 191.019C130.933 190.935 131.258 190.979 131.566 190.915C131.874 190.851 132.195 190.612 132.183 190.287C132.172 190.022 131.947 189.823 131.724 189.694C131.724 189.719 131.336 189.402 131.299 189.334C130.961 188.656 131.453 188.059 131.641 187.473C131.914 186.626 131.51 186.128 132.348 185.659C132.527 185.559 132.667 185.311 132.543 185.145Z" fill="white"/>
<path d="M121.216 206.6C121.362 206.907 121.482 207.197 121.513 207.444C121.652 208.519 120.757 209.842 120.377 210.823C120.271 211.096 120.163 211.386 120.211 211.676C120.231 211.798 120.278 211.913 120.325 212.027C120.67 212.869 121.349 213.63 121.951 214.279C122.158 213.723 122.142 212.387 122.086 211.794C122.067 211.599 122.035 211.394 122.104 211.211C122.327 210.625 123.054 209.819 123.555 209.469C124.046 209.127 124.691 208.852 124.819 208.253C124.867 208.023 124.826 207.777 124.898 207.553C124.942 207.419 125.023 207.302 125.087 207.178C125.405 206.567 125.585 205.388 124.949 204.954C124.238 204.469 123.232 205.18 122.622 204.389C122.53 204.269 122.462 204.13 122.357 204.023C122.162 203.823 121.864 203.76 121.594 203.807C119.796 204.118 120.681 205.474 121.216 206.6Z" fill="white"/>
<path d="M132.509 197.722C133.077 198.097 134.057 197.273 134.417 196.31C134.462 196.189 134.504 196.063 134.587 195.966C134.755 195.768 135.044 195.743 135.296 195.78C135.548 195.816 135.8 195.9 136.052 195.866C136.414 195.818 136.714 195.531 136.883 195.196C137.052 194.861 137.113 194.481 137.171 194.108C137.439 194.039 137.729 194.066 137.981 194.181C138.176 194.271 138.368 194.468 138.314 194.681C138.289 194.779 138.217 194.855 138.149 194.927C137.936 195.155 137.738 195.397 137.556 195.651C137.444 195.808 137.334 196.013 137.418 196.187C137.648 196.663 138.067 196.416 137.947 197.096C137.795 197.949 136.676 198.297 137.315 199.316C137.549 199.688 137.975 199.911 138.404 199.931C138.712 199.946 139.091 199.781 139.095 199.462C139.096 199.367 139.062 199.27 139.091 199.18C139.128 199.064 139.256 199.006 139.374 198.988C139.758 198.927 140.13 199.127 140.485 199.292C140.592 199.342 140.72 199.388 140.822 199.328C141.154 199.131 140.999 198.968 141.45 198.925C141.835 198.888 142.285 199.195 142.503 199.498C142.555 199.571 142.602 199.665 142.569 199.749C142.54 199.822 142.461 199.86 142.42 199.927C142.354 200.038 142.421 200.19 142.525 200.262C142.63 200.335 142.76 200.351 142.883 200.377C143.461 200.5 143.475 201.07 143.883 201.354C144.215 201.585 145.06 201.631 144.985 200.967C144.958 200.724 144.722 200.524 144.761 200.283C144.795 200.071 145.025 199.958 145.232 199.93C145.438 199.903 145.658 199.924 145.843 199.824C145.966 199.758 146.059 199.645 146.171 199.561C146.86 199.041 148.495 199.483 149.024 200.065C149.518 200.609 149.574 201.547 150.21 201.9C150.136 201.177 149.783 200.488 149.246 200.019C149.148 199.932 149.039 199.848 148.987 199.725C148.944 199.622 148.946 199.506 148.952 199.394C148.98 198.821 149.089 198.288 149.24 197.753C149.222 197.817 149.644 196.655 149.34 196.875C149.883 196.482 151.069 195.836 151.749 195.878C152.104 195.9 152.453 196.112 152.602 196.445C152.751 196.779 152.661 197.222 152.368 197.429C152.088 197.628 151.699 197.59 151.414 197.782C151.139 197.966 151.022 198.365 151.151 198.676C151.329 198.422 151.599 198.237 151.896 198.167C152.293 198.073 152.745 198.172 153.089 197.944C153.342 197.776 153.475 197.455 153.479 197.143C153.482 196.832 153.37 196.529 153.221 196.259C153.113 196.063 152.983 195.876 152.925 195.658C152.833 195.31 152.943 194.931 153.137 194.631C153.862 193.516 155.203 193.034 156.444 193.444C156.527 193.472 156.615 193.508 156.658 193.586C156.72 193.699 156.66 193.843 156.686 193.971C156.728 194.171 157.024 194.247 157.151 194.09C157.239 193.981 157.233 193.825 157.267 193.687C157.353 193.33 157.706 193.111 158.048 193.009C158.466 192.884 159.591 192.309 159.706 193.07C159.716 193.136 159.714 193.207 159.742 193.267C159.821 193.439 160.083 193.414 160.208 193.276C160.466 192.989 160.511 192.519 160.761 192.2C160.982 191.917 161.308 191.747 161.493 191.431C161.951 190.648 161.602 189.625 160.805 189.246C160.041 188.883 159.153 189.044 158.326 189.198C157.756 189.304 155.8 189.71 155.661 188.756C155.65 188.677 155.652 188.594 155.616 188.525C155.57 188.439 155.475 188.393 155.418 188.316C155.344 188.217 155.341 188.082 155.301 187.963C155.157 187.535 154.613 187.456 154.174 187.451C154.218 187.185 154.243 186.861 154.036 186.696C153.919 186.603 153.761 186.593 153.614 186.586C153.231 186.57 152.308 186.712 151.991 186.48C151.57 186.173 151.86 185.651 151.677 185.227C151.482 184.778 150.758 184.715 150.677 184.23C150.66 184.125 150.679 184.017 150.667 183.911C150.637 183.653 150.434 183.459 150.244 183.289C149.9 182.981 149.51 182.655 149.054 182.667C148.969 182.737 149.046 182.884 149.142 182.936C149.239 182.989 149.362 183.016 149.411 183.117C149.504 183.311 149.236 183.469 149.03 183.51C149.02 183.793 149.295 183.98 149.507 184.158C149.866 184.459 150.121 184.89 150.217 185.358C149.493 185.492 148.752 185.523 148.021 185.451C147.14 185.364 146.573 186.811 145.529 186.41C145.374 186.35 145.236 186.244 145.075 186.212C144.668 186.133 144.34 186.531 143.975 186.732C143.419 187.038 142.736 186.88 142.14 186.669C141.427 186.417 140.561 186.056 139.843 186.49C139.574 186.652 139.36 186.905 139.076 187.035C138.479 187.309 137.802 186.973 137.153 186.908C135.55 186.749 134.585 188.372 134.065 189.723C133.986 189.928 133.915 190.143 133.925 190.364C133.935 190.584 134.044 190.813 134.238 190.903C134.526 191.038 134.861 190.824 135.049 190.561C135.237 190.299 135.352 189.977 135.582 189.753C135.812 189.529 136.235 189.457 136.417 189.724C136.507 189.856 136.51 190.028 136.511 190.189C136.511 190.495 136.512 190.8 136.512 191.106C136.513 191.274 136.512 191.448 136.446 191.602C136.336 191.858 136.073 192 135.829 192.122C135.298 192.388 134.768 192.653 134.237 192.919C134.058 193.009 133.877 193.1 133.725 193.232C133.032 193.837 133.498 194.675 132.963 195.257C132.747 195.492 132.389 195.563 132.212 195.831C132.082 196.029 132.082 196.286 132.088 196.525C132.103 197.191 132.269 197.563 132.509 197.722Z" fill="white"/>
<path d="M151.002 202.806C150.788 203.207 150.817 203.732 150.332 203.954C150.009 204.102 149.596 204.034 149.333 204.278C149.033 204.556 149.111 205.049 149.169 205.461C149.179 205.535 149.188 205.613 149.159 205.682C149.081 205.863 148.804 205.858 148.709 206.029C148.628 206.177 148.729 206.362 148.85 206.476C149.221 206.823 149.824 206.869 150.239 206.581C150.35 206.505 150.469 206.402 150.599 206.435C150.749 206.473 150.8 206.663 150.841 206.817C150.928 207.147 151.1 207.464 151.372 207.659C152.227 208.27 153.431 207.526 154.38 208.389C154.497 208.495 154.608 208.621 154.642 208.778C154.679 208.947 154.624 209.142 154.716 209.287C154.831 209.469 155.115 209.444 155.27 209.297C155.425 209.151 155.487 208.93 155.552 208.723C155.617 208.516 155.702 208.298 155.88 208.182C156.18 207.987 156.522 208.062 156.688 207.666C156.895 207.161 156.277 206.743 156.473 206.283C156.561 206.077 156.701 205.853 156.613 205.648C156.569 205.544 156.474 205.474 156.396 205.393C156.03 205.014 155.967 204.658 155.479 204.427C155.168 204.28 154.523 204.471 154.396 203.933C154.362 203.794 154.41 203.618 154.306 203.522C154.247 203.468 154.16 203.465 154.081 203.465C153.535 203.467 152.886 203.475 152.575 203.011C152.231 202.498 152.191 202.129 151.493 202.383C151.239 202.476 151.097 202.629 151.002 202.806Z" fill="white"/>
<path d="M134.731 199.984C134.617 200.147 134.553 200.344 134.433 200.502C134.096 200.948 133.949 200.554 133.568 200.704C133.436 200.756 133.319 200.848 133.182 200.881C132.904 200.947 132.628 200.755 132.343 200.754C131.246 200.75 131.822 202.575 132.353 202.925C132.452 202.99 132.576 202.991 132.692 202.99C133.054 202.986 133.416 202.982 133.778 202.979C133.881 202.978 133.992 202.979 134.077 203.039C134.339 203.226 134.089 203.686 134.246 203.971C134.355 204.167 134.606 204.204 134.82 204.244C135.274 204.329 135.373 204.84 135.651 205.155C136.008 205.56 136.349 205.723 136.55 206.311C136.669 206.66 136.711 207.038 136.868 207.371C137.192 208.055 138.033 208.423 138.734 208.189C139.434 207.954 139.906 207.145 139.781 206.394C139.708 205.956 139.464 205.572 139.294 205.163C138.951 204.336 139.183 203.328 140.133 203.171C140.373 203.131 140.677 203.117 140.767 202.883C140.896 202.547 140.398 202.153 140.604 201.861C140.679 201.755 140.822 201.718 140.888 201.606C140.975 201.457 140.876 201.263 140.753 201.141C140.631 201.02 140.477 200.915 140.427 200.748C140.143 199.806 139.21 200.395 138.587 200.519C138.032 200.629 137.716 200.558 137.254 200.281C136.539 199.854 135.455 198.945 134.731 199.984Z" fill="white"/>
<path d="M137.099 185.257C137.181 185.098 137.382 185.061 137.555 185.049C138.153 185.007 138.755 185.047 139.343 185.168C138.856 185.564 138.314 185.98 137.696 185.958C137.415 185.948 137.124 185.848 136.862 185.951C136.801 185.76 136.835 185.539 136.95 185.377L137.099 185.257Z" fill="white"/>
<path d="M130.19 192.528C130.8 193.027 132.95 192.361 131.947 191.717C131.785 191.613 131.59 191.581 131.402 191.551C131.148 191.511 130.888 191.471 130.637 191.525C130.386 191.579 130.142 191.747 130.066 192C129.994 192.244 130.053 192.416 130.19 192.528Z" fill="white"/>
<path d="M156.749 188.137C157.126 188.479 157.654 188.563 158.151 188.633C158.399 188.668 158.724 188.659 158.81 188.415C158.9 188.159 158.609 187.922 158.346 187.892C158.084 187.862 157.805 187.934 157.562 187.828C157.346 187.733 157.177 187.505 156.942 187.507C156.67 187.51 156.505 187.921 156.696 188.122L156.749 188.137Z" fill="white"/>
</g>
<path d="M109.753 120H142.247C144.872 120 147 121.794 147 124.007V162.96C147 165.173 144.872 166.967 142.247 166.967H109.753C107.128 166.967 105 165.173 105 162.96V124.007C105 121.794 107.128 120 109.753 120Z" fill="#0054A6"/>
<path d="M142.648 147.195H109.123C107.991 147.195 107.074 146.277 107.074 145.146V124.98C107.074 123.849 107.991 122.931 109.123 122.931H142.575C143.466 122.931 144.188 123.653 144.188 124.544V145.655C144.188 146.505 143.499 147.195 142.648 147.195Z" fill="#D2D9DC"/>
<path d="M142.676 154H109.15C108.019 154 107.102 153.083 107.102 151.952V150.601C107.102 149.47 108.019 148.553 109.15 148.553H142.602C143.493 148.553 144.215 149.275 144.215 150.166V152.461C144.215 153.311 143.526 154 142.676 154Z" fill="#D2D9DC"/>
<path d="M142.652 164.37H109.127C107.995 164.37 107.078 163.453 107.078 162.321V162.06C107.078 160.928 107.995 160.011 109.127 160.011H142.579C143.47 160.011 144.192 160.733 144.192 161.624V162.83C144.192 163.681 143.502 164.37 142.652 164.37Z" fill="#D2D9DC"/>
<path d="M116.838 158.035H109.348C108.865 158.035 108.469 157.639 108.469 157.155V157.043C108.469 156.559 108.865 156.163 109.348 156.163H116.838C117.322 156.163 117.718 156.559 117.718 157.043V157.155C117.718 157.639 117.322 158.035 116.838 158.035Z" fill="#D2D9DC"/>
</svg>
