<svg width="64" height="64" viewBox="0 0 64 64" fill="none" xmlns="http://www.w3.org/2000/svg">
<path d="M49.9101 4.96V59.04C49.9101 61.79 47.7001 64 44.9501 64H10.2901C7.54008 64 5.33008 61.79 5.33008 59.04V4.96C5.33008 2.23 7.55008 0 10.2901 0H44.9401C47.6901 0 49.9101 2.23 49.9101 4.96Z" fill="#002548"/>
<path d="M47.24 5.51004V54.95C47.24 56.52 45.97 57.79 44.4 57.79H10.84C9.27 57.79 8 56.52 8 54.95V5.51004C8 3.94004 9.27 2.67004 10.84 2.67004H44.4C45.97 2.67004 47.24 3.94004 47.24 5.51004Z" fill="#F9FAFB"/>
<path d="M34.6296 61.0399C34.6296 61.6799 34.1096 62.1999 33.4696 62.1999H21.7496C21.1196 62.1999 20.5996 61.6799 20.5996 61.0399C20.5996 60.3999 21.1196 59.8899 21.7496 59.8899H33.4696C34.1096 59.8899 34.6296 60.3999 34.6296 61.0399Z" fill="#5F737C"/>
<path d="M22.7905 19.61H20.0605V35.99H22.7905V19.61Z" fill="#D2D9DC"/>
<path d="M43.7617 44.4885V41.7585H27.3817V44.4885H43.7617Z" fill="#D2D9DC"/>
<path d="M29.2302 24.8H13.6202C12.8102 24.8 12.1602 24.14 12.1602 23.34V22.36C12.1602 18.32 15.4402 15.04 19.4802 15.04H23.3802C27.4202 15.04 30.7002 18.32 30.7002 22.36V23.34C30.7002 24.15 30.0402 24.8 29.2302 24.8Z" fill="#0054A6"/>
<path d="M21.4208 17C24.3866 17 26.7908 14.5958 26.7908 11.63C26.7908 8.66424 24.3866 6.26001 21.4208 6.26001C18.455 6.26001 16.0508 8.66424 16.0508 11.63C16.0508 14.5958 18.455 17 21.4208 17Z" fill="#FED2A4"/>
<path d="M30.39 45.36L28.91 44.5C28.99 44.05 29.04 43.59 29.04 43.11C29.04 42.63 28.99 42.17 28.91 41.72L30.39 40.86C31 40.51 31.2 39.73 30.85 39.13L29.58 36.93C29.23 36.32 28.45 36.12 27.85 36.47L27.1 36.9C26.69 37.14 26.17 37.1399 25.78 36.8699C25.42 36.6199 25.05 36.4 24.65 36.22C24.22 36.02 23.96 35.57 23.96 35.09V34.22C23.96 33.52 23.39 32.95 22.69 32.95H20.15C19.45 32.95 18.88 33.52 18.88 34.22V35.09C18.88 35.56 18.62 36.02 18.19 36.22C17.79 36.41 17.41 36.6199 17.06 36.8699C16.67 37.1399 16.15 37.14 15.74 36.9L15 36.4799C14.39 36.13 13.62 36.3399 13.27 36.9399L12 39.1399C11.65 39.7499 11.86 40.5199 12.46 40.8699L13.94 41.7299C13.86 42.1799 13.81 42.6399 13.81 43.1199C13.81 43.5999 13.86 44.0599 13.94 44.5099L12.46 45.3699C11.85 45.7199 11.65 46.4999 12 47.0999L13.27 49.2999C13.62 49.91 14.4 50.1099 15 49.7599L15.75 49.33C16.16 49.09 16.68 49.09 17.07 49.36C17.43 49.61 17.8 49.8299 18.2 50.0099C18.63 50.2099 18.89 50.66 18.89 51.1399V52C18.89 52.7 19.46 53.27 20.16 53.27H22.7C23.4 53.27 23.97 52.7 23.97 52V51.13C23.97 50.66 24.23 50.2 24.66 50C25.06 49.8099 25.44 49.5999 25.79 49.3499C26.18 49.0799 26.7 49.08 27.11 49.32L27.86 49.75C28.47 50.1 29.24 49.89 29.59 49.29L30.86 47.09C31.2 46.49 30.99 45.71 30.39 45.36ZM21.42 48.2C18.62 48.2 16.34 45.9299 16.34 43.1199C16.34 40.3199 18.61 38.04 21.42 38.04C24.23 38.04 26.5 40.3099 26.5 43.1199C26.5 45.9199 24.23 48.2 21.42 48.2Z" fill="#839299"/>
<path d="M57.2009 48.47H41.5909C40.7809 48.47 40.1309 47.81 40.1309 47.01V46.03C40.1309 41.99 43.4109 38.71 47.4509 38.71H51.3509C55.3909 38.71 58.6709 41.99 58.6709 46.03V47C58.6709 47.81 58.0109 48.47 57.2009 48.47Z" fill="#ED1C24"/>
<path d="M49.3895 40.66C52.3553 40.66 54.7595 38.2558 54.7595 35.29C54.7595 32.3243 52.3553 29.92 49.3895 29.92C46.4238 29.92 44.0195 32.3243 44.0195 35.29C44.0195 38.2558 46.4238 40.66 49.3895 40.66Z" fill="#FED2A4"/>
</svg>
