<svg width="50" height="50" viewBox="0 0 50 50" fill="none" xmlns="http://www.w3.org/2000/svg">
<g clip-path="url(#clip0_14405_62338)">
<path opacity="0.988" fill-rule="evenodd" clip-rule="evenodd" d="M24.8535 -0.0488281C24.886 -0.0488281 24.9187 -0.0488281 24.9512 -0.0488281C24.9512 4.86653 24.9512 9.78193 24.9512 14.6973C23.0657 15.6726 21.1777 16.6491 19.2871 17.627C19.2546 17.5456 19.222 17.4642 19.1895 17.3828C19.5319 15.3766 19.89 13.3746 20.2637 11.377C18.7485 9.78047 17.186 8.23422 15.5762 6.73828C17.7211 6.37136 19.8695 6.01328 22.0215 5.66406C23.0056 3.77722 23.9496 1.87292 24.8535 -0.0488281Z" fill="#FFB724"/>
<path fill-rule="evenodd" clip-rule="evenodd" d="M24.9512 -0.0488281C24.9837 -0.0488281 25.0163 -0.0488281 25.0488 -0.0488281C25.9527 1.87292 26.8968 3.77722 27.8809 5.66406C30.0382 6.01393 32.1866 6.372 34.3262 6.73828C32.7163 8.23422 31.1538 9.78047 29.6387 11.377C30.0123 13.3746 30.3704 15.3766 30.7129 17.3828C30.6804 17.4642 30.6478 17.5456 30.6152 17.627C28.7246 16.6491 26.8366 15.6726 24.9512 14.6973C24.9512 9.78193 24.9512 4.86653 24.9512 -0.0488281Z" fill="#FF9000"/>
<path opacity="0.984" fill-rule="evenodd" clip-rule="evenodd" d="M6.29883 8.93555C6.4049 8.94727 6.47 9.01237 6.49414 9.13086C7.18163 12.9344 7.83268 16.743 8.44727 20.5566C7.10966 21.6334 5.74247 22.6751 4.3457 23.6816C4.2806 21.9238 4.2155 20.166 4.15039 18.4082C2.77384 17.4209 1.37409 16.477 -0.0488281 15.5762C-0.0488281 15.511 -0.0488281 15.446 -0.0488281 15.3809C1.60523 14.8566 3.24911 14.3032 4.88281 13.7207C5.38475 12.1336 5.85675 10.5386 6.29883 8.93555Z" fill="#FFB624"/>
<path opacity="0.982" fill-rule="evenodd" clip-rule="evenodd" d="M49.9512 15.3808C49.9512 15.4459 49.9512 15.5109 49.9512 15.5761C48.5282 16.4769 47.1285 17.4208 45.752 18.4081C45.6868 20.1659 45.6218 21.9237 45.5566 23.6815C44.1599 22.675 42.7927 21.6333 41.4551 20.5565C42.0321 16.7359 42.6832 12.9273 43.4082 9.13077C43.404 9.04128 43.3715 8.97617 43.3105 8.93546C43.3602 8.76625 43.4415 8.7337 43.5547 8.8378C44.0211 10.4972 44.5257 12.1411 45.0684 13.7694C46.6962 14.3175 48.3238 14.8546 49.9512 15.3808Z" fill="#FF9000"/>
<path fill-rule="evenodd" clip-rule="evenodd" d="M8.44727 20.5566C7.83268 16.743 7.18163 12.9344 6.49414 9.13086C6.47 9.01237 6.4049 8.94727 6.29883 8.93555C6.32645 8.85849 6.37527 8.79338 6.44531 8.74023C7.50835 10.0962 8.53374 11.4797 9.52148 12.8906C11.2806 12.8832 13.0384 12.8995 14.7949 12.9395C13.7978 14.3641 12.7887 15.7801 11.7676 17.1875C12.3435 18.801 12.9294 20.4123 13.5254 22.0215C13.4766 22.054 13.4277 22.0866 13.3789 22.1191C11.7362 21.5878 10.0924 21.067 8.44727 20.5566Z" fill="#FF9000"/>
<path fill-rule="evenodd" clip-rule="evenodd" d="M43.3105 8.93555C43.3715 8.97626 43.404 9.04137 43.4082 9.13086C42.6832 12.9274 42.0321 16.736 41.4551 20.5566C39.81 21.067 38.166 21.5879 36.5234 22.1191C36.4746 22.0866 36.4258 22.054 36.377 22.0215C36.9729 20.4123 37.5589 18.801 38.1348 17.1875C37.1137 15.7801 36.1046 14.3641 35.1074 12.9395C36.864 12.8995 38.6218 12.8832 40.3809 12.8906C41.3476 11.5569 42.3241 10.2386 43.3105 8.93555Z" fill="#FFB624"/>
<path opacity="0.995" fill-rule="evenodd" clip-rule="evenodd" d="M24.9515 21.0449C24.9515 26.9043 24.9515 32.7637 24.9515 38.623C25.2769 38.623 25.6025 38.623 25.928 38.623C25.6228 38.7187 25.2974 38.7513 24.9515 38.7207C23.4239 38.7132 21.9916 38.3388 20.6546 37.5977C20.1608 37.2863 19.6726 36.9771 19.1897 36.6699C16.4279 34.0551 15.5327 30.8976 16.5042 27.1973C17.9648 23.3 20.7806 21.2492 24.9515 21.0449Z" fill="#F8C3B8"/>
<path fill-rule="evenodd" clip-rule="evenodd" d="M24.9512 21.0449C29.1221 21.2492 31.9378 23.3 33.3984 27.1973C34.3699 30.8975 33.4747 34.055 30.7129 36.6699C29.6227 37.4755 28.4183 38.0776 27.0996 38.4766C26.7148 38.5757 26.3242 38.6245 25.9277 38.623C25.6022 38.623 25.2767 38.623 24.9512 38.623C24.9512 32.7637 24.9512 26.9043 24.9512 21.0449Z" fill="#FEB19E"/>
<path opacity="0.989" fill-rule="evenodd" clip-rule="evenodd" d="M8.83824 26.9043C8.93528 30.7709 8.96784 34.6446 8.9359 38.5254C7.59938 38.5081 6.39495 38.1012 5.32262 37.3047C5.03629 36.9686 4.71077 36.6919 4.34606 36.4746C2.67452 34.0455 2.65824 31.6041 4.29723 29.1504C5.47946 27.7373 6.99314 26.9887 8.83824 26.9043Z" fill="#FEB09D"/>
<path opacity="0.992" fill-rule="evenodd" clip-rule="evenodd" d="M40.9664 26.9043C40.9664 30.778 40.9664 34.6517 40.9664 38.5254C39.6962 38.5409 38.5568 38.1666 37.5484 37.4023C37.174 37.1092 36.816 36.7999 36.4742 36.4746C35.1109 34.6166 34.8343 32.5983 35.6441 30.4199C36.7245 28.2193 38.4986 27.0475 40.9664 26.9043Z" fill="#FEB19E"/>
<path fill-rule="evenodd" clip-rule="evenodd" d="M8.83789 26.9043C11.9883 27.1022 13.9251 28.7299 14.6484 31.7871C14.9114 33.5352 14.5045 35.0977 13.4277 36.4746C12.2246 37.7922 10.7272 38.4758 8.93555 38.5254C8.96749 34.6446 8.93493 30.7709 8.83789 26.9043Z" fill="#E59788"/>
<path fill-rule="evenodd" clip-rule="evenodd" d="M40.9668 26.9043C44.163 27.1545 46.0998 28.8472 46.7773 31.9824C46.9484 33.6423 46.5415 35.1396 45.5566 36.4746C44.9114 37.1331 44.1628 37.6702 43.3105 38.0859C42.6788 38.3253 42.0278 38.4718 41.3574 38.5254C41.2272 38.5254 41.097 38.5254 40.9668 38.5254C40.9668 34.6517 40.9668 30.778 40.9668 26.9043Z" fill="#E59788"/>
<path opacity="0.997" fill-rule="evenodd" clip-rule="evenodd" d="M4.3457 36.4746C4.71042 36.6919 5.03594 36.9686 5.32227 37.3047C6.3946 38.1012 7.59902 38.5081 8.93555 38.5254C8.93555 42.334 8.93555 46.1426 8.93555 49.9512C5.94075 49.9512 2.94597 49.9512 -0.0488281 49.9512C-0.0488281 47.4121 -0.0488281 44.873 -0.0488281 42.334C0.469422 39.6694 1.93427 37.7163 4.3457 36.4746Z" fill="#50C4FE"/>
<path fill-rule="evenodd" clip-rule="evenodd" d="M13.4277 36.4746C14.3644 36.9271 15.1781 37.5457 15.8691 38.3301C12.0278 41.2307 10.3352 45.1043 10.791 49.9512C10.1726 49.9512 9.55403 49.9512 8.93555 49.9512C8.93555 46.1426 8.93555 42.334 8.93555 38.5254C10.7272 38.4758 12.2246 37.7922 13.4277 36.4746Z" fill="#4889FE"/>
<path opacity="0.997" fill-rule="evenodd" clip-rule="evenodd" d="M36.4746 36.4746C36.8164 36.7999 37.1744 37.1092 37.5488 37.4023C38.5572 38.1666 39.6966 38.5409 40.9668 38.5254C40.9668 42.334 40.9668 46.1426 40.9668 49.9512C40.3483 49.9512 39.7298 49.9512 39.1113 49.9512C39.5672 45.1043 37.8745 41.2307 34.0332 38.3301C34.7242 37.5457 35.538 36.9271 36.4746 36.4746Z" fill="#50C4FE"/>
<path fill-rule="evenodd" clip-rule="evenodd" d="M45.5566 36.4746C47.9679 37.7158 49.4327 39.6689 49.9512 42.334C49.9512 44.873 49.9512 47.4121 49.9512 49.9512C46.989 49.9512 44.0267 49.9512 41.0645 49.9512C41.0645 46.1751 41.0645 42.3991 41.0645 38.623C41.1905 38.6462 41.2882 38.6137 41.3574 38.5254C42.0278 38.4718 42.6788 38.3253 43.3105 38.0859C44.1628 37.6702 44.9114 37.1331 45.5566 36.4746Z" fill="#488AFE"/>
<path opacity="0.999" fill-rule="evenodd" clip-rule="evenodd" d="M19.1897 36.6699C19.6725 36.9771 20.1608 37.2863 20.6546 37.5977C21.9916 38.3388 23.4239 38.7132 24.9514 38.7207C24.9514 42.4642 24.9514 46.2077 24.9514 49.9512C20.2314 49.9512 15.5113 49.9512 10.7913 49.9512C10.3354 45.1043 12.0281 41.2307 15.8694 38.3301C16.8945 37.6223 18.0013 37.0688 19.1897 36.6699Z" fill="#48568C"/>
<path fill-rule="evenodd" clip-rule="evenodd" d="M30.7129 36.6699C31.9019 37.069 33.0086 37.6225 34.0332 38.3301C37.8745 41.2307 39.5672 45.1043 39.1113 49.9512C34.3913 49.9512 29.6712 49.9512 24.9512 49.9512C24.9512 46.2077 24.9512 42.4642 24.9512 38.7207C25.2971 38.7513 25.6226 38.7187 25.9277 38.623C26.3242 38.6245 26.7148 38.5757 27.0996 38.4766C28.4183 38.0776 29.6227 37.4755 30.7129 36.6699Z" fill="#2C3B73"/>
<path fill-rule="evenodd" clip-rule="evenodd" d="M40.9668 38.5254C41.097 38.5254 41.2272 38.5254 41.3574 38.5254C41.2882 38.6137 41.1905 38.6462 41.0645 38.623C41.0645 42.3991 41.0645 46.1751 41.0645 49.9512C41.0319 49.9512 40.9993 49.9512 40.9668 49.9512C40.9668 46.1426 40.9668 42.334 40.9668 38.5254Z" fill="#4B9BFE"/>
</g>
<defs>
<clipPath id="clip0_14405_62338">
<rect width="50" height="50" fill="white"/>
</clipPath>
</defs>
</svg>
