<svg width="454" height="232" viewBox="0 0 454 232" fill="none" xmlns="http://www.w3.org/2000/svg">
<path d="M228.75 210.47C271.452 210.47 306.07 205.357 306.07 199.05C306.07 192.743 271.452 187.63 228.75 187.63C186.047 187.63 151.43 192.743 151.43 199.05C151.43 205.357 186.047 210.47 228.75 210.47Z" fill="#D2D9DC"/>
<path d="M264.3 195.901C262.65 198.831 254.91 200.891 245.08 201.931C226.2 203.941 199.61 202.231 193.54 195.901L223.2 112.061H234.63L238.15 122.011L264.3 195.901Z" fill="#0054A6"/>
<path opacity="0.19" d="M212.02 201.77L228.75 109.11L203.65 200.34C206.17 200.92 209 201.4 212.02 201.77Z" fill="#F9FAFB"/>
<path opacity="0.19" d="M264.3 195.901C262.65 198.831 254.91 200.891 245.08 201.931L232.19 124.601L238.16 122.011L264.3 195.901Z" fill="#2D2F31"/>
<path d="M374.25 58.6004L338.33 69.8504C337.16 67.6004 334.75 66.2604 332.23 66.4204L328.85 55.6404C330.9 54.4104 332.1 52.1204 331.94 49.7404L368.01 38.4404C369.24 40.4904 371.53 41.6804 373.92 41.5304L377.3 52.3104C375.14 53.6004 373.93 56.0704 374.25 58.6004Z" fill="#54CC5A"/>
<path opacity="0.19" d="M362.39 51.2506C363.99 56.3606 361.14 61.8006 356.03 63.4006C350.92 65.0006 345.48 62.1606 343.88 57.0506C342.28 51.9406 345.13 46.5006 350.24 44.8906C355.35 43.3006 360.79 46.1406 362.39 51.2506Z" fill="#2D2F31"/>
<path d="M354.3 51.0602C354.02 50.3802 353.26 50.2302 352.02 50.6202C350.78 51.0102 350.26 51.5402 350.47 52.2002C350.6 52.6102 350.89 52.8402 351.35 52.9002C351.81 52.9602 352.68 52.9102 353.96 52.7702C355.24 52.6202 356.25 52.7302 356.99 53.1002C357.73 53.4702 358.23 54.0802 358.51 54.9602C358.83 55.9802 358.62 56.9102 357.88 57.7402C357.15 58.5802 356.19 59.1802 355.02 59.5502C352.18 60.4402 350.23 59.8602 349.15 57.8102L351.44 56.8902C351.97 57.9802 352.99 58.2802 354.49 57.8102C355.9 57.3702 356.45 56.6702 356.15 55.7202C356.02 55.3002 355.75 55.0302 355.34 54.9302C354.93 54.8302 354.06 54.8602 352.72 55.0002C351.38 55.1502 350.35 55.0602 349.63 54.7302C348.91 54.4002 348.43 53.8602 348.2 53.1002C347.95 52.2902 348.09 51.4902 348.64 50.7002C349.18 49.9102 350.14 49.3102 351.52 48.8702C354.24 48.0202 355.95 48.4702 356.65 50.2402L354.3 51.0602Z" fill="#54CC5A"/>
<path d="M352.81 48.7099L350.57 49.4099L349.94 47.3799L352.17 46.6699L352.81 48.7099Z" fill="#54CC5A"/>
<path d="M355.983 58.8221L353.75 59.5225L354.388 61.5549L356.62 60.8545L355.983 58.8221Z" fill="#54CC5A"/>
<path d="M374.51 33.2002L323.63 49.1402L331.76 75.1002L382.64 59.1602L374.51 33.2002ZM374.25 58.6002L338.33 69.8502C337.16 67.6002 334.75 66.2602 332.23 66.4202L328.85 55.6402C330.9 54.4102 332.1 52.1202 331.94 49.7402L368.01 38.4402C369.24 40.4902 371.53 41.6802 373.92 41.5302L377.3 52.3102C375.14 53.6002 373.93 56.0702 374.25 58.6002Z" fill="#54CC5A"/>
<path opacity="0.19" d="M332.64 72.8302L330.73 66.7002L332.64 72.8302Z" fill="#2D2F31"/>
<path opacity="0.19" d="M339.86 58.3105C340.22 59.4605 339.58 60.6905 338.42 61.0505C337.27 61.4105 336.04 60.7705 335.68 59.6205C335.32 58.4705 335.96 57.2405 337.12 56.8805C338.27 56.5205 339.49 57.1605 339.86 58.3105Z" fill="#2D2F31"/>
<path opacity="0.19" d="M370.59 48.6902C370.95 49.8402 370.31 51.0702 369.16 51.4302C368.01 51.7902 366.78 51.1502 366.42 50.0002C366.06 48.8502 366.7 47.6202 367.86 47.2602C369 46.8902 370.23 47.5302 370.59 48.6902Z" fill="#2D2F31"/>
<path opacity="0.19" d="M374.51 33.2002L323.63 49.1402L331.76 75.1002L382.64 59.1602L374.51 33.2002ZM374.25 58.6002L338.33 69.8502C337.16 67.6002 334.75 66.2602 332.23 66.4202L328.85 55.6402C330.9 54.4102 332.1 52.1202 331.94 49.7402L368.01 38.4402C369.24 40.4902 371.53 41.6802 373.92 41.5302L377.3 52.3102C375.14 53.6002 373.93 56.0702 374.25 58.6002Z" fill="#2D2F31"/>
<path opacity="0.19" d="M328.24 73.5399L326.32 67.4199L328.24 73.5399Z" fill="#2D2F31"/>
<path d="M378.8 62.6298C376.47 63.5998 374.9 65.8698 374.85 68.4098L337.68 74.2798C336.85 71.8798 334.67 70.1998 332.15 69.9898L330.39 58.8298C332.6 57.9098 334.12 55.8198 334.31 53.4398L371.65 47.5498C372.57 49.7598 374.66 51.2798 377.04 51.4698L378.8 62.6298Z" fill="#54CC5A"/>
<path opacity="0.19" d="M364.2 59.4098C365.03 64.6998 361.42 69.6698 356.13 70.4998C350.84 71.3298 345.87 67.7198 345.04 62.4298C344.21 57.1398 347.82 52.1698 353.11 51.3398C358.4 50.4998 363.37 54.1198 364.2 59.4098Z" fill="#2D2F31"/>
<path d="M356.229 58.0302C356.049 57.3102 355.319 57.0602 354.039 57.2602C352.749 57.4602 352.159 57.9102 352.269 58.5902C352.339 59.0102 352.589 59.2802 353.029 59.4102C353.479 59.5302 354.339 59.6202 355.629 59.6602C356.919 59.7002 357.909 59.9602 358.579 60.4302C359.249 60.9002 359.669 61.5903 359.809 62.4903C359.979 63.5403 359.629 64.4303 358.779 65.1503C357.929 65.8703 356.899 66.3302 355.679 66.5202C352.739 66.9802 350.899 66.1202 350.129 63.9402L352.529 63.3602C352.899 64.5102 353.859 64.9602 355.409 64.7203C356.869 64.4903 357.519 63.8802 357.359 62.8902C357.289 62.4502 357.059 62.1503 356.669 61.9903C356.279 61.8303 355.419 61.7302 354.069 61.6802C352.719 61.6302 351.719 61.3902 351.049 60.9602C350.389 60.5302 349.999 59.9202 349.869 59.1402C349.739 58.3002 349.999 57.5302 350.649 56.8402C351.299 56.1402 352.339 55.6802 353.769 55.4602C356.589 55.0102 358.209 55.7203 358.639 57.5603L356.229 58.0302Z" fill="#54CC5A"/>
<path d="M354.744 53.373L352.433 53.7383L352.766 55.8421L355.077 55.4768L354.744 53.373Z" fill="#54CC5A"/>
<path d="M356.738 65.9335L354.426 66.2979L354.758 68.4019L357.069 68.0375L356.738 65.9335Z" fill="#54CC5A"/>
<path d="M378.83 43.3301L326.16 51.6401L330.4 78.5101L383.07 70.2001L378.83 43.3301ZM330.39 58.8301C329.93 59.0201 329.43 59.1601 328.91 59.2501L327.91 52.9101L334.25 51.9101C334.33 52.4301 334.35 52.9401 334.31 53.4401L371.65 47.5501C372.57 49.7601 374.66 51.2801 377.04 51.4701L378.8 62.6301C376.47 63.6001 374.9 65.8701 374.85 68.4101L337.68 74.2801C336.85 71.8801 334.67 70.2001 332.15 69.9901L330.39 58.8301Z" fill="#54CC5A"/>
<path opacity="0.19" d="M340.87 63.0898C341.06 64.2798 340.24 65.4098 339.05 65.5898C337.86 65.7798 336.74 64.9598 336.55 63.7698C336.36 62.5798 337.18 61.4498 338.37 61.2698C339.57 61.0798 340.69 61.8898 340.87 63.0898Z" fill="#2D2F31"/>
<path opacity="0.19" d="M372.69 58.0699C372.88 59.2599 372.06 60.3799 370.87 60.5699C369.68 60.7599 368.56 59.9399 368.37 58.7499C368.18 57.5499 369 56.4299 370.19 56.2399C371.38 56.0599 372.5 56.8699 372.69 58.0699Z" fill="#2D2F31"/>
<path opacity="0.19" d="M378.83 43.3301L326.16 51.6401L330.4 78.5101L383.07 70.2001L378.83 43.3301ZM330.39 58.8301C329.93 59.0201 329.43 59.1601 328.91 59.2501L327.91 52.9101L334.25 51.9101C334.33 52.4301 334.35 52.9401 334.31 53.4401L371.65 47.5501C372.57 49.7601 374.66 51.2801 377.04 51.4701L378.8 62.6301C376.47 63.6001 374.9 65.8701 374.85 68.4101L337.68 74.2801C336.85 71.8801 334.67 70.2001 332.15 69.9901L330.39 58.8301Z" fill="#2D2F31"/>
<path d="M334.31 53.4402C334.12 55.8202 332.6 57.9102 330.39 58.8302C329.93 59.0202 329.43 59.1602 328.91 59.2502L327.91 52.9102L334.25 51.9102C334.33 52.4302 334.35 52.9402 334.31 53.4402Z" fill="#54CC5A"/>
<path opacity="0.19" d="M334.31 53.4402C334.12 55.8202 332.6 57.9102 330.39 58.8302C329.93 59.0202 329.43 59.1602 328.91 59.2502L327.91 52.9102L334.25 51.9102C334.33 52.4302 334.35 52.9402 334.31 53.4402Z" fill="#2D2F31"/>
<path d="M380.2 73.6198C379.67 73.6198 379.16 73.6898 378.67 73.8098C376.22 74.4198 374.33 76.4198 373.9 78.9298L336.26 79.0698C335.8 76.5698 333.9 74.5798 331.45 73.9998C330.96 73.8798 330.45 73.8198 329.92 73.8198L329.88 62.8898C330.41 62.8898 330.92 62.8198 331.41 62.6998C333.73 62.1198 335.55 60.2898 336.1 57.9698C336.22 57.4798 336.28 56.9698 336.28 56.4398L373.71 56.2998C373.71 56.8298 373.78 57.3398 373.9 57.8298C374.48 60.1498 376.31 61.9698 378.63 62.5198C379.12 62.6398 379.63 62.6998 380.16 62.6998L380.2 73.6198Z" fill="#54CC5A"/>
<path opacity="0.19" d="M380.16 62.6898C379.63 62.6898 379.12 62.6298 378.63 62.5098L378.67 73.8098C379.16 73.6898 379.67 73.6198 380.2 73.6198L380.16 62.6898ZM336.28 56.4398C336.28 56.9698 336.22 57.4798 336.1 57.9698L373.9 57.8298C373.78 57.3398 373.71 56.8298 373.71 56.2998L336.28 56.4398ZM331.41 62.6898C330.92 62.8098 330.41 62.8798 329.88 62.8798L329.92 73.8098C330.45 73.8098 330.96 73.8698 331.45 73.9898L331.41 62.6898Z" fill="#2D2F31"/>
<path opacity="0.19" d="M364.74 68.4103C364.76 73.7703 360.43 78.1202 355.08 78.1402C349.73 78.1602 345.37 73.8403 345.35 68.4803C345.33 63.1203 349.66 58.7603 355.01 58.7403C360.36 58.7303 364.72 63.0503 364.74 68.4103Z" fill="#2D2F31"/>
<path d="M357.07 65.841C357 65.111 356.32 64.741 355.02 64.751C353.72 64.751 353.07 65.101 353.07 65.801C353.07 66.221 353.28 66.531 353.7 66.721C354.12 66.911 354.96 67.131 356.23 67.361C357.5 67.601 358.43 68.001 359.03 68.571C359.63 69.141 359.93 69.881 359.93 70.791C359.93 71.861 359.46 72.681 358.51 73.261C357.56 73.851 356.47 74.141 355.24 74.141C352.27 74.151 350.57 73.021 350.15 70.751L352.61 70.541C352.8 71.731 353.68 72.331 355.25 72.321C356.72 72.311 357.46 71.811 357.46 70.811C357.46 70.371 357.28 70.041 356.92 69.821C356.56 69.601 355.72 69.371 354.4 69.121C353.08 68.871 352.12 68.481 351.53 67.951C350.94 67.421 350.64 66.761 350.64 65.971C350.64 65.121 351.01 64.401 351.76 63.811C352.51 63.221 353.61 62.921 355.05 62.921C357.9 62.911 359.4 63.851 359.55 65.741L357.07 65.841Z" fill="#54CC5A"/>
<path d="M356.328 61.0167L353.988 61.0254L353.996 63.1554L356.336 63.1467L356.328 61.0167Z" fill="#54CC5A"/>
<path d="M356.379 73.737L354.039 73.7461L354.047 75.8761L356.387 75.867L356.379 73.737Z" fill="#54CC5A"/>
<path d="M381.65 54.7402L328.33 54.9402L328.43 82.1402L381.75 81.9402L381.65 54.7402ZM378.67 73.8102C376.22 74.4202 374.33 76.4202 373.9 78.9302L336.26 79.0702C335.8 76.5702 333.9 74.5802 331.45 74.0002C330.96 73.8802 330.45 73.8202 329.92 73.8202L329.88 62.8902C330.41 62.8902 330.92 62.8202 331.41 62.7002C333.73 62.1202 335.55 60.2902 336.1 57.9702C336.22 57.4802 336.28 56.9702 336.28 56.4402L373.71 56.3002C373.71 56.8302 373.78 57.3402 373.9 57.8302C374.48 60.1502 376.31 61.9702 378.63 62.5202C379.12 62.6402 379.63 62.7002 380.16 62.7002L380.2 73.6302C379.67 73.6202 379.16 73.6902 378.67 73.8102Z" fill="#54CC5A"/>
<path opacity="0.19" d="M341.13 68.5004C341.13 69.7104 340.16 70.6904 338.95 70.7004C337.74 70.7004 336.76 69.7304 336.75 68.5204C336.75 67.3104 337.72 66.3304 338.93 66.3204C340.14 66.3104 341.12 67.2904 341.13 68.5004Z" fill="#2D2F31"/>
<path opacity="0.19" d="M373.34 68.3803C373.34 69.5903 372.37 70.5703 371.16 70.5803C369.95 70.5903 368.97 69.6103 368.96 68.4003C368.95 67.1903 369.93 66.2103 371.14 66.2003C372.35 66.1903 373.33 67.1703 373.34 68.3803Z" fill="#2D2F31"/>
<path opacity="0.19" d="M381.65 54.7402L328.33 54.9402L328.43 82.1402L381.75 81.9402L381.65 54.7402ZM378.67 73.8102C376.22 74.4202 374.33 76.4202 373.9 78.9302L336.26 79.0702C335.8 76.5702 333.9 74.5802 331.45 74.0002C330.96 73.8802 330.45 73.8202 329.92 73.8202L329.88 62.8902C330.41 62.8902 330.92 62.8202 331.41 62.7002C333.73 62.1202 335.55 60.2902 336.1 57.9702C336.22 57.4802 336.28 56.9702 336.28 56.4402L373.71 56.3002C373.71 56.8302 373.78 57.3402 373.9 57.8302C374.48 60.1502 376.31 61.9702 378.63 62.5202C379.12 62.6402 379.63 62.7002 380.16 62.7002L380.2 73.6302C379.67 73.6202 379.16 73.6902 378.67 73.8102Z" fill="#2D2F31"/>
<path d="M145.5 66.9503C145.5 92.0403 125.17 112.37 100.08 112.37C74.9997 112.37 54.6597 92.0403 54.6597 66.9503C54.6597 41.8603 74.9997 21.5303 100.08 21.5303C125.17 21.5403 145.5 41.8703 145.5 66.9503Z" fill="#002548"/>
<path d="M137.92 66.9503C137.92 67.6303 137.91 68.3103 137.86 68.9903C136.85 88.2703 121.4 103.71 102.12 104.74C101.44 104.78 100.76 104.8 100.08 104.8C99.3995 104.8 98.7195 104.79 98.0495 104.74C78.7695 103.73 63.3295 88.2803 62.3095 68.9903C62.2695 68.3204 62.2495 67.6303 62.2495 66.9503C62.2495 66.2703 62.2595 65.5903 62.3095 64.9203C63.3195 45.6403 78.7695 30.1904 98.0495 29.1704C98.7195 29.1304 99.3995 29.1104 100.08 29.1104C100.77 29.1104 101.44 29.1304 102.12 29.1704C121.4 30.1904 136.84 45.6503 137.86 64.9203C137.9 65.5903 137.92 66.2703 137.92 66.9503Z" fill="#D2D9DC"/>
<path d="M69.9395 66.6702V67.2302C69.9395 68.2002 69.1495 68.9802 68.1895 68.9802H62.3095C62.2695 68.3102 62.2495 67.6202 62.2495 66.9402C62.2495 66.2602 62.2595 65.5802 62.3095 64.9102H68.1895C69.1495 64.9202 69.9395 65.7002 69.9395 66.6702Z" fill="#0054A6"/>
<path d="M137.92 66.9507C137.92 67.6307 137.91 68.3107 137.86 68.9907H131.98C131.01 68.9907 130.22 68.2107 130.22 67.2407V66.6807C130.22 65.7107 131.01 64.9307 131.98 64.9307H137.86C137.9 65.5907 137.92 66.2707 137.92 66.9507Z" fill="#0054A6"/>
<path d="M102.12 29.1704V35.0604C102.12 36.0204 101.33 36.8104 100.36 36.8104H99.7998C98.8298 36.8104 98.0498 36.0204 98.0498 35.0604V29.1704C98.7198 29.1304 99.3998 29.1104 100.08 29.1104C100.77 29.1204 101.44 29.1404 102.12 29.1704Z" fill="#0054A6"/>
<path d="M102.12 98.8498V104.73C101.44 104.77 100.76 104.79 100.08 104.79C99.3998 104.79 98.7198 104.78 98.0498 104.73V98.8498C98.0498 97.8798 98.8298 97.0898 99.7998 97.0898H100.36C101.33 97.0898 102.12 97.8798 102.12 98.8498Z" fill="#0054A6"/>
<path d="M104.66 70.3005C105.35 70.9905 105.35 72.1005 104.66 72.7905L104.27 73.1805C103.58 73.8605 102.47 73.8605 101.78 73.1805L78.9796 50.3805C78.2896 49.6905 78.2996 48.5805 78.9796 47.8905L79.3696 47.4905C80.0596 46.8105 81.1696 46.8105 81.8596 47.4905L104.66 70.3005Z" fill="#5F737C"/>
<path d="M98.5796 73.1799C97.8996 73.8599 96.7796 73.8599 96.0996 73.1799L95.6996 72.7899C95.0096 72.1099 95.0096 70.9899 95.6996 70.2999L112.55 53.4599C113.23 52.7699 114.35 52.7699 115.03 53.4599L115.42 53.8499C116.11 54.5399 116.11 55.6499 115.42 56.3399L98.5796 73.1799Z" fill="#5F737C"/>
<path d="M354.53 103.17L103.87 132.35C100.45 132.75 97.3599 130.3 96.9599 126.88L96.8999 126.36L359.93 95.7402L359.99 96.2602C360.39 99.6802 357.95 102.77 354.53 103.17Z" fill="#0054A6"/>
<path d="M228.75 126.57C234.952 126.57 239.98 121.543 239.98 115.34C239.98 109.138 234.952 104.11 228.75 104.11C222.547 104.11 217.52 109.138 217.52 115.34C217.52 121.543 222.547 126.57 228.75 126.57Z" fill="#0054A6"/>
<path opacity="0.19" d="M228.75 104.11C222.55 104.11 217.52 109.14 217.52 115.34C217.52 116.15 217.61 116.94 217.77 117.7C220.57 116.67 224.27 115.81 229.07 115.52C233.23 115.27 236.8 116.09 239.78 117.41C239.91 116.74 239.97 116.05 239.97 115.34C239.98 109.14 234.95 104.11 228.75 104.11Z" fill="#2D2F31"/>
<path d="M104.85 122.342L96.5464 123.309L96.9036 126.378L105.208 125.411L104.85 122.342Z" fill="#0054A6"/>
<path d="M359.573 92.6918L351.269 93.6582L351.626 96.7275L359.93 95.7611L359.573 92.6918Z" fill="#0054A6"/>
<path d="M228.75 123.3C233.135 123.3 236.69 119.745 236.69 115.36C236.69 110.975 233.135 107.42 228.75 107.42C224.364 107.42 220.81 110.975 220.81 115.36C220.81 119.745 224.364 123.3 228.75 123.3Z" fill="#002548"/>
<path opacity="0.19" d="M223.94 117.581C224.36 118.761 224.35 119.851 223.92 120.001C223.49 120.151 222.81 119.311 222.39 118.131C221.97 116.951 221.98 115.861 222.41 115.711C222.84 115.561 223.53 116.401 223.94 117.581Z" fill="#F9FAFB"/>
<path d="M320.29 83.5002C328.806 83.5002 335.71 76.5964 335.71 68.0802C335.71 59.5639 328.806 52.6602 320.29 52.6602C311.773 52.6602 304.87 59.5639 304.87 68.0802C304.87 76.5964 311.773 83.5002 320.29 83.5002Z" fill="#FFDD33"/>
<path opacity="0.19" d="M320.29 83.5002C328.806 83.5002 335.71 76.5964 335.71 68.0802C335.71 59.5639 328.806 52.6602 320.29 52.6602C311.773 52.6602 304.87 59.5639 304.87 68.0802C304.87 76.5964 311.773 83.5002 320.29 83.5002Z" fill="#2D2F31"/>
<path d="M320.62 81.4701C327.827 81.4701 333.67 75.6274 333.67 68.4201C333.67 61.2128 327.827 55.3701 320.62 55.3701C313.412 55.3701 307.57 61.2128 307.57 68.4201C307.57 75.6274 313.412 81.4701 320.62 81.4701Z" fill="#FFDD33"/>
<path d="M322.07 67.3697C319.88 66.6897 318.86 66.1597 318.86 65.3897C318.86 64.7597 319.34 64.0597 321.04 64.0597C322.37 64.0597 323.41 64.3397 324.14 64.6297C324.6 64.7997 325.1 64.5397 325.23 64.0597L325.56 62.8397C325.67 62.4197 325.45 61.9897 325.05 61.8397C324.26 61.5597 323.26 61.3297 321.89 61.2697V59.9997C321.89 59.5497 321.52 59.1797 321.06 59.1797H320.23C319.77 59.1797 319.41 59.5497 319.41 59.9997V61.4297C316.55 61.8897 314.91 63.6097 314.91 65.8497C314.91 68.3397 316.94 69.5697 319.76 70.3497C321.74 70.8797 322.56 71.4097 322.56 72.2997C322.56 73.2997 321.5 73.7697 320.07 73.7697C318.7 73.7697 317.42 73.4297 316.39 72.9997C315.92 72.8097 315.39 73.0497 315.26 73.5397L314.9 74.8597C314.79 75.2497 314.98 75.6697 315.35 75.8297C316.39 76.2797 317.85 76.6297 319.33 76.6897V78.1197C319.33 78.5697 319.7 78.9397 320.16 78.9397H320.99C321.45 78.9397 321.81 78.5697 321.81 78.1197V76.5297C324.91 76.0397 326.5 74.1097 326.5 71.9597C326.52 69.6197 325.22 68.3097 322.07 67.3697Z" fill="#FFDD33"/>
<g opacity="0.19">
<path d="M322.07 67.3697C319.88 66.6897 318.86 66.1597 318.86 65.3897C318.86 64.7597 319.34 64.0597 321.04 64.0597C322.37 64.0597 323.41 64.3397 324.14 64.6297C324.6 64.7997 325.1 64.5397 325.23 64.0597L325.56 62.8397C325.67 62.4197 325.45 61.9897 325.05 61.8397C324.26 61.5597 323.26 61.3297 321.89 61.2697V59.9997C321.89 59.5497 321.52 59.1797 321.06 59.1797H320.23C319.77 59.1797 319.41 59.5497 319.41 59.9997V61.4297C316.55 61.8897 314.91 63.6097 314.91 65.8497C314.91 68.3397 316.94 69.5697 319.76 70.3497C321.74 70.8797 322.56 71.4097 322.56 72.2997C322.56 73.2997 321.5 73.7697 320.07 73.7697C318.7 73.7697 317.42 73.4297 316.39 72.9997C315.92 72.8097 315.39 73.0497 315.26 73.5397L314.9 74.8597C314.79 75.2497 314.98 75.6697 315.35 75.8297C316.39 76.2797 317.85 76.6297 319.33 76.6897V78.1197C319.33 78.5697 319.7 78.9397 320.16 78.9397H320.99C321.45 78.9397 321.81 78.5697 321.81 78.1197V76.5297C324.91 76.0397 326.5 74.1097 326.5 71.9597C326.52 69.6197 325.22 68.3097 322.07 67.3697Z" fill="#2D2F31"/>
</g>
<path d="M405.61 76.3506H377.77V81.6706H405.61V76.3506Z" fill="#FFDD33"/>
<path d="M404.159 71.0303H376.319V76.3503H404.159V71.0303Z" fill="#FFDD33"/>
<path d="M406.09 60.3809H378.25V65.7009H406.09V60.3809Z" fill="#FFDD33"/>
<path d="M405.61 49.7305H377.77V55.0505H405.61V49.7305Z" fill="#FFDD33"/>
<path d="M404.489 55.0605H376.649V60.3805H404.489V55.0605Z" fill="#FFDD33"/>
<path d="M402.86 65.7109H375.02V71.0309H402.86V65.7109Z" fill="#FFDD33"/>
<g opacity="0.19">
<path d="M401.87 76.3506H394.79V81.6706H401.87V76.3506Z" fill="#2D2F31"/>
<path d="M383.51 76.3506H379.66V81.6706H383.51V76.3506Z" fill="#2D2F31"/>
<path d="M405.61 81.0508H377.77V81.6808H405.61V81.0508Z" fill="#2D2F31"/>
<path d="M400.419 71.0303H393.339V76.3503H400.419V71.0303Z" fill="#2D2F31"/>
<path d="M382.059 71.0303H378.209V76.3503H382.059V71.0303Z" fill="#2D2F31"/>
<path d="M404.159 75.7207H376.319V76.3507H404.159V75.7207Z" fill="#2D2F31"/>
<path d="M402.35 60.3809H395.27V65.7009H402.35V60.3809Z" fill="#2D2F31"/>
<path d="M383.999 60.3809H380.149V65.7009H383.999V60.3809Z" fill="#2D2F31"/>
<path d="M406.09 65.0703H378.25V65.7003H406.09V65.0703Z" fill="#2D2F31"/>
<path d="M401.87 49.7305H394.79V55.0505H401.87V49.7305Z" fill="#2D2F31"/>
<path d="M383.51 49.7305H379.66V55.0505H383.51V49.7305Z" fill="#2D2F31"/>
<path d="M405.61 54.4307H377.77V55.0607H405.61V54.4307Z" fill="#2D2F31"/>
<path d="M400.749 55.0605H393.669V60.3805H400.749V55.0605Z" fill="#2D2F31"/>
<path d="M382.39 55.0605H378.54V60.3805H382.39V55.0605Z" fill="#2D2F31"/>
<path d="M404.489 59.75H376.649V60.38H404.489V59.75Z" fill="#2D2F31"/>
<path d="M399.12 65.7109H392.04V71.0309H399.12V65.7109Z" fill="#2D2F31"/>
<path d="M380.76 65.7109H376.91V71.0309H380.76V65.7109Z" fill="#2D2F31"/>
<path d="M402.86 70.4004H375.02V71.0304H402.86V70.4004Z" fill="#2D2F31"/>
</g>
<g opacity="0.19">
<path d="M104.85 122.342L96.5464 123.309L96.9036 126.378L105.208 125.411L104.85 122.342Z" fill="#2D2F31"/>
<path d="M359.573 92.6918L351.269 93.6582L351.626 96.7275L359.93 95.7611L359.573 92.6918Z" fill="#2D2F31"/>
</g>
<path d="M159.27 107.09C146.16 117.14 120.06 123.39 99.6398 123.39C79.2198 123.39 53.1198 117.14 40.0098 107.09H159.27Z" fill="#D2D9DC"/>
<path d="M414 78.9004C400.89 88.9504 374.79 95.2004 354.37 95.2004C333.95 95.2004 307.85 88.9504 294.74 78.9004H414Z" fill="#D2D9DC"/>
</svg>
