<svg width="76" height="76" viewBox="0 0 76 76" fill="none" xmlns="http://www.w3.org/2000/svg">
<rect width="76" height="76" rx="38" fill="url(#paint0_linear_14314_29005)"/>
<path d="M42.8784 54.0877C53.3608 54.0877 61.8584 45.5901 61.8584 35.1077C61.8584 24.6254 53.3608 16.1277 42.8784 16.1277C32.3961 16.1277 23.8984 24.6254 23.8984 35.1077C23.8984 45.5901 32.3961 54.0877 42.8784 54.0877Z" fill="#006EE5"/>
<path d="M44.2564 54.0445C43.8058 54.0792 43.3464 54.0965 42.8784 54.0965C37.8446 54.0965 33.017 52.0969 29.4576 48.5374C25.8981 44.978 23.8984 40.1503 23.8984 35.1165C23.8984 30.0827 25.8981 25.2551 29.4576 21.6956C33.017 18.1362 37.8446 16.1365 42.8784 16.1365C43.3464 16.1365 43.8058 16.1365 44.2564 16.1365C39.4674 16.4766 34.9852 18.6189 31.7127 22.132C28.4402 25.6451 26.6207 30.2678 26.6207 35.0689C26.6207 39.87 28.4402 44.4927 31.7127 48.0057C34.9852 51.5188 39.4674 53.6611 44.2564 54.0012V54.0445Z" fill="#0062BA"/>
<path d="M42.8798 49.7023C50.9402 49.7023 57.4745 43.1681 57.4745 35.1077C57.4745 27.0473 50.9402 20.513 42.8798 20.513C34.8194 20.513 28.2852 27.0473 28.2852 35.1077C28.2852 43.1681 34.8194 49.7023 42.8798 49.7023Z" fill="#ECEFF1"/>
<path d="M45.1853 49.5291C44.4223 49.6444 43.6517 49.7023 42.88 49.7024C40.934 49.7498 38.9982 49.4075 37.1866 48.6956C35.3749 47.9837 33.7239 46.9166 32.3309 45.557C30.9378 44.1975 29.8308 42.573 29.0749 40.7792C28.3191 38.9855 27.9297 37.0586 27.9297 35.1121C27.9297 33.1655 28.3191 31.2387 29.0749 29.4449C29.8308 27.6511 30.9378 26.0266 32.3309 24.6671C33.7239 23.3076 35.3749 22.2404 37.1866 21.5285C38.9982 20.8166 40.934 20.4743 42.88 20.5217C43.6521 20.5203 44.423 20.5812 45.1853 20.7037C41.7561 21.2504 38.6342 23.0019 36.3803 25.6435C34.1265 28.2852 32.8883 31.6439 32.8883 35.1164C32.8883 38.5889 34.1265 41.9476 36.3803 44.5893C38.6342 47.2309 41.7561 48.9824 45.1853 49.5291Z" fill="#D2D9DC"/>
<path d="M42.8808 37.1532C42.6127 37.1532 42.3471 37.1002 42.0994 36.9973C41.8518 36.8945 41.6269 36.7437 41.4376 36.5536C41.2484 36.3636 41.0986 36.138 40.9967 35.8899C40.8949 35.6418 40.843 35.3761 40.8442 35.1079V27.6372C40.826 27.358 40.8653 27.078 40.9596 26.8146C41.0539 26.5512 41.2013 26.3099 41.3926 26.1057C41.5839 25.9015 41.8151 25.7388 42.0718 25.6275C42.3285 25.5162 42.6054 25.4588 42.8852 25.4588C43.165 25.4588 43.4418 25.5162 43.6985 25.6275C43.9553 25.7388 44.1864 25.9015 44.3778 26.1057C44.5691 26.3099 44.7164 26.5512 44.8108 26.8146C44.9051 27.078 44.9444 27.358 44.9262 27.6372V35.1079C44.9262 35.6503 44.7107 36.1706 44.3271 36.5541C43.9435 36.9377 43.4233 37.1532 42.8808 37.1532Z" fill="#C40606"/>
<path d="M47.587 37.1531H42.881C42.3627 37.1193 41.8766 36.8896 41.5215 36.5105C41.1664 36.1315 40.9688 35.6315 40.9688 35.1121C40.9688 34.5927 41.1664 34.0927 41.5215 33.7137C41.8766 33.3346 42.3627 33.1049 42.881 33.0711H47.587C48.1053 33.1049 48.5914 33.3346 48.9465 33.7137C49.3017 34.0927 49.4993 34.5927 49.4993 35.1121C49.4993 35.6315 49.3017 36.1315 48.9465 36.5105C48.5914 36.8896 48.1053 37.1193 47.587 37.1531Z" fill="#E30E08"/>
<path d="M30.7625 35.8875H28.2838C28.0922 35.8672 27.9149 35.7768 27.7861 35.6336C27.6572 35.4903 27.5859 35.3045 27.5859 35.1118C27.5859 34.9192 27.6572 34.7334 27.7861 34.5901C27.9149 34.4469 28.0922 34.3565 28.2838 34.3362H30.7625C30.8712 34.3247 30.9812 34.3362 31.0852 34.3699C31.1892 34.4036 31.285 34.4589 31.3663 34.532C31.4476 34.6051 31.5126 34.6946 31.5571 34.7945C31.6016 34.8944 31.6246 35.0025 31.6246 35.1118C31.6246 35.2212 31.6016 35.3293 31.5571 35.4292C31.5126 35.5291 31.4476 35.6185 31.3663 35.6917C31.285 35.7648 31.1892 35.8201 31.0852 35.8538C30.9812 35.8875 30.8712 35.899 30.7625 35.8875Z" fill="#7F8F97"/>
<path d="M57.4734 35.8876H54.9948C54.8032 35.8673 54.6259 35.7768 54.497 35.6336C54.3682 35.4904 54.2969 35.3046 54.2969 35.1119C54.2969 34.9193 54.3682 34.7334 54.497 34.5902C54.6259 34.447 54.8032 34.3565 54.9948 34.3362H57.4734C57.665 34.3565 57.8423 34.447 57.9712 34.5902C58.1 34.7334 58.1713 34.9193 58.1713 35.1119C58.1713 35.3046 58.1 35.4904 57.9712 35.6336C57.8423 35.7768 57.665 35.8673 57.4734 35.8876Z" fill="#7F8F97"/>
<path d="M42.8807 23.7716C42.7794 23.7716 42.6791 23.7517 42.5855 23.7129C42.4919 23.6742 42.4069 23.6173 42.3353 23.5457C42.2637 23.4741 42.2069 23.3891 42.1681 23.2955C42.1293 23.2019 42.1094 23.1016 42.1094 23.0003V20.5216C42.1094 20.3171 42.1906 20.1209 42.3353 19.9762C42.4799 19.8316 42.6761 19.7503 42.8807 19.7503C43.0853 19.7503 43.2815 19.8316 43.4261 19.9762C43.5708 20.1209 43.652 20.3171 43.652 20.5216V23.0003C43.652 23.1016 43.6321 23.2019 43.5933 23.2955C43.5546 23.3891 43.4977 23.4741 43.4261 23.5457C43.3545 23.6173 43.2695 23.6742 43.1759 23.7129C43.0823 23.7517 42.982 23.7716 42.8807 23.7716Z" fill="#7F8F97"/>
<path d="M42.8808 50.4825C42.7787 50.4825 42.6777 50.4622 42.5836 50.4229C42.4894 50.3836 42.404 50.326 42.3323 50.2535C42.2605 50.1809 42.2039 50.0949 42.1656 50.0003C42.1274 49.9057 42.1083 49.8045 42.1094 49.7025V47.2238C42.1094 47.0192 42.1907 46.823 42.3353 46.6784C42.48 46.5337 42.6762 46.4525 42.8808 46.4525C43.0853 46.4525 43.2815 46.5337 43.4262 46.6784C43.5708 46.823 43.6521 47.0192 43.6521 47.2238V49.7025C43.6532 49.8045 43.6341 49.9057 43.5959 50.0003C43.5576 50.0949 43.501 50.1809 43.4293 50.2535C43.3575 50.326 43.2721 50.3836 43.1779 50.4229C43.0838 50.4622 42.9828 50.4825 42.8808 50.4825Z" fill="#7F8F97"/>
<path d="M50.4359 30.2369C51.7187 30.2369 52.7586 29.1971 52.7586 27.9143C52.7586 26.6315 51.7187 25.5916 50.4359 25.5916C49.1532 25.5916 48.1133 26.6315 48.1133 27.9143C48.1133 29.1971 49.1532 30.2369 50.4359 30.2369Z" fill="white"/>
<path d="M32.6887 55.8644V52.1897C32.6887 50.1072 31.8614 48.11 30.3889 46.6375C28.9164 45.165 26.9192 44.3377 24.8367 44.3377H22.93C20.8468 44.3377 18.8487 45.1647 17.3748 46.637C15.9009 48.1093 15.0717 50.1064 15.0694 52.1897V55.8644C14.4097 55.8644 13.777 56.1264 13.3106 56.5929C12.8441 57.0594 12.582 57.692 12.582 58.3517C12.582 59.0114 12.8441 59.644 13.3106 60.1105C13.777 60.577 14.4097 60.839 15.0694 60.839H32.6887C33.3484 60.839 33.981 60.577 34.4475 60.1105C34.914 59.644 35.176 59.0114 35.176 58.3517C35.176 57.692 34.914 57.0594 34.4475 56.5929C33.981 56.1264 33.3484 55.8644 32.6887 55.8644Z" fill="#FFC344"/>
<path d="M26.1107 44.4329C24.2722 44.7367 22.6011 45.683 21.3949 47.1034C20.1888 48.5238 19.5258 50.3261 19.524 52.1896V55.8643C18.8644 55.8643 18.2317 56.1263 17.7652 56.5928C17.2988 57.0592 17.0367 57.6919 17.0367 58.3516C17.0367 59.0113 17.2988 59.6439 17.7652 60.1104C18.2317 60.5769 18.8644 60.8389 19.524 60.8389H15.0694C14.4097 60.8389 13.777 60.5769 13.3106 60.1104C12.8441 59.6439 12.582 59.0113 12.582 58.3516C12.582 57.6919 12.8441 57.0592 13.3106 56.5928C13.777 56.1263 14.4097 55.8643 15.0694 55.8643V52.1896C15.0717 50.1055 15.9006 48.1075 17.3742 46.6338C18.8479 45.1601 20.846 44.3312 22.93 44.3289H24.8367C25.2633 44.3327 25.6891 44.3675 26.1107 44.4329Z" fill="#FEB237"/>
<path d="M25.866 37.4132C25.6053 37.4038 25.3454 37.4472 25.1018 37.5406C24.8582 37.6339 24.6359 37.7755 24.4482 37.9567C24.2606 38.1379 24.1113 38.355 24.0095 38.5952C23.9076 38.8354 23.8552 39.0936 23.8554 39.3545C23.8555 39.0936 23.8031 38.8354 23.7012 38.5952C23.5994 38.355 23.4501 38.1379 23.2625 37.9567C23.0748 37.7755 22.8525 37.6339 22.6089 37.5406C22.3653 37.4472 22.1054 37.4038 21.8447 37.4132C21.3374 37.4399 20.8598 37.661 20.5112 38.0306C20.1626 38.4002 19.9698 38.8898 19.9727 39.3978V40.4552C19.9727 41.4895 20.3836 42.4815 21.115 43.2129C21.8464 43.9443 22.8383 44.3552 23.8727 44.3552C24.907 44.3552 25.899 43.9443 26.6304 43.2129C27.3618 42.4815 27.7727 41.4895 27.7727 40.4552V39.3978C27.7775 38.8834 27.5806 38.3876 27.2242 38.0166C26.8678 37.6456 26.3802 37.429 25.866 37.4132Z" fill="#FFC344"/>
<path d="M24.8881 44.1989C24.3134 44.3511 23.7115 44.3697 23.1286 44.2532C22.5456 44.1366 21.9971 43.8881 21.5252 43.5266C21.0532 43.1651 20.6704 42.7003 20.406 42.1678C20.1416 41.6353 20.0028 41.0494 20.0001 40.4549V39.3975C19.995 38.8889 20.1872 38.398 20.5362 38.028C20.8852 37.658 21.364 37.4375 21.8721 37.4129C22.2536 37.3981 22.6309 37.4977 22.9554 37.6989C22.6632 37.8826 22.4235 38.1387 22.2595 38.4425C22.0955 38.7462 22.0128 39.0871 22.0194 39.4322V40.4549C22.0188 41.3077 22.2996 42.1368 22.8183 42.8138C23.337 43.4907 24.0645 43.9776 24.8881 44.1989Z" fill="#FEB237"/>
<path d="M22.0095 55.5002C21.9437 55.5132 21.876 55.5132 21.8102 55.5002C21.7575 55.4744 21.7104 55.4383 21.6718 55.3942C21.6332 55.35 21.6037 55.2986 21.5852 55.2429C21.5666 55.1873 21.5593 55.1285 21.5637 55.07C21.5682 55.0115 21.5842 54.9544 21.6108 54.9022L24.2108 49.5202C24.235 49.467 24.2696 49.4193 24.3126 49.3798C24.3556 49.3404 24.4062 49.3101 24.4612 49.2906C24.5163 49.2712 24.5746 49.2631 24.6329 49.2668C24.6911 49.2705 24.748 49.2859 24.8002 49.3122C24.9059 49.3627 24.9872 49.4532 25.0262 49.5638C25.0652 49.6743 25.0587 49.7958 25.0082 49.9015L22.3995 55.2748C22.36 55.3433 22.3031 55.4002 22.2347 55.4397C22.1662 55.4793 22.0886 55.5001 22.0095 55.5002Z" fill="#ECEFF1"/>
<path d="M21.533 52.1811C21.2159 52.1811 20.9059 52.0871 20.6423 51.9109C20.3786 51.7347 20.1731 51.4843 20.0517 51.1913C19.9304 50.8984 19.8986 50.576 19.9605 50.265C20.0224 49.9539 20.1751 49.6683 20.3993 49.444C20.6235 49.2198 20.9092 49.0671 21.2202 49.0052C21.5312 48.9434 21.8536 48.9751 22.1466 49.0965C22.4396 49.2178 22.69 49.4233 22.8661 49.687C23.0423 49.9507 23.1364 50.2607 23.1364 50.5778C23.1364 51.003 22.9674 51.4108 22.6667 51.7115C22.3661 52.0122 21.9583 52.1811 21.533 52.1811ZM21.533 49.8584C21.3904 49.8567 21.2505 49.8974 21.131 49.9754C21.0116 50.0534 20.9181 50.1651 20.8623 50.2964C20.8065 50.4277 20.791 50.5726 20.8178 50.7127C20.8446 50.8528 20.9124 50.9818 21.0126 51.0833C21.1129 51.1847 21.241 51.2541 21.3808 51.2826C21.5206 51.311 21.6656 51.2973 21.7976 51.2431C21.9295 51.1889 22.0424 51.0968 22.1218 50.9783C22.2013 50.8598 22.2437 50.7204 22.2437 50.5778C22.2448 50.4837 22.2273 50.3904 22.1921 50.3031C22.1569 50.2159 22.1047 50.1365 22.0386 50.0696C21.9725 50.0027 21.8938 49.9496 21.807 49.9133C21.7202 49.8771 21.6271 49.8584 21.533 49.8584Z" fill="#ECEFF1"/>
<path d="M25.0447 55.8642C24.7276 55.8642 24.4176 55.7702 24.154 55.594C23.8903 55.4178 23.6848 55.1674 23.5635 54.8744C23.4421 54.5815 23.4103 54.2591 23.4722 53.9481C23.5341 53.6371 23.6868 53.3514 23.911 53.1271C24.1352 52.9029 24.4209 52.7502 24.7319 52.6883C25.043 52.6265 25.3653 52.6582 25.6583 52.7796C25.9513 52.9009 26.2017 53.1064 26.3779 53.3701C26.554 53.6338 26.6481 53.9438 26.6481 54.2609C26.6481 54.6861 26.4792 55.0939 26.1785 55.3946C25.8778 55.6953 25.47 55.8642 25.0447 55.8642ZM25.0447 53.5415C24.9021 53.5398 24.7622 53.5805 24.6428 53.6585C24.5233 53.7365 24.4298 53.8482 24.374 53.9795C24.3182 54.1108 24.3028 54.2557 24.3295 54.3958C24.3563 54.5359 24.4241 54.6649 24.5244 54.7664C24.6246 54.8678 24.7528 54.9372 24.8925 54.9657C25.0323 54.9941 25.1774 54.9804 25.3093 54.9262C25.4413 54.872 25.5541 54.7799 25.6335 54.6614C25.713 54.5429 25.7554 54.4035 25.7554 54.2609C25.7554 54.0716 25.6808 53.8899 25.5478 53.7553C25.4148 53.6206 25.234 53.5438 25.0447 53.5415Z" fill="#ECEFF1"/>
<defs>
<linearGradient id="paint0_linear_14314_29005" x1="38" y1="0" x2="38" y2="76" gradientUnits="userSpaceOnUse">
<stop stop-color="#002548"/>
<stop offset="1" stop-color="#0054A6"/>
</linearGradient>
</defs>
</svg>
