<svg width="72" height="72" viewBox="0 0 72 72" fill="none" xmlns="http://www.w3.org/2000/svg">
<g id="all color icons for website-19">
<path id="Vector" d="M42.7561 58.3559C57.2701 58.3559 69.0361 46.5899 69.0361 32.0759C69.0361 17.5619 57.2701 5.7959 42.7561 5.7959C28.242 5.7959 16.4761 17.5619 16.4761 32.0759C16.4761 46.5899 28.242 58.3559 42.7561 58.3559Z" fill="#006EE5"/>
<path id="Vector_2" d="M44.6641 58.2961C44.0401 58.3441 43.4041 58.3681 42.7561 58.3681C35.7862 58.3681 29.1018 55.5993 24.1733 50.6709C19.2449 45.7424 16.4761 39.058 16.4761 32.0881C16.4761 25.1182 19.2449 18.4338 24.1733 13.5053C29.1018 8.57688 35.7862 5.80811 42.7561 5.80811C43.4041 5.80811 44.0401 5.80811 44.6641 5.80811C38.0331 6.27894 31.8269 9.24527 27.2958 14.1095C22.7647 18.9737 20.2454 25.3744 20.2454 32.0221C20.2454 38.6698 22.7647 45.0705 27.2958 49.9347C31.8269 54.7989 38.0331 57.7653 44.6641 58.2361V58.2961Z" fill="#0062BA"/>
<path id="Vector_3" d="M42.7561 52.2842C53.9167 52.2842 62.9641 43.2367 62.9641 32.0762C62.9641 20.9156 53.9167 11.8682 42.7561 11.8682C31.5955 11.8682 22.5481 20.9156 22.5481 32.0762C22.5481 43.2367 31.5955 52.2842 42.7561 52.2842Z" fill="#ECEFF1"/>
<path id="Vector_4" d="M45.9481 52.044C44.8916 52.2037 43.8246 52.2839 42.7561 52.284C40.0617 52.3497 37.3814 51.8757 34.8729 50.89C32.3644 49.9043 30.0785 48.4267 28.1496 46.5443C26.2207 44.6619 24.6879 42.4126 23.6414 39.9289C22.5948 37.4452 22.0557 34.7772 22.0557 32.082C22.0557 29.3868 22.5948 26.7189 23.6414 24.2352C24.6879 21.7515 26.2207 19.5022 28.1496 17.6198C30.0785 15.7373 32.3644 14.2598 34.8729 13.2741C37.3814 12.2883 40.0617 11.8144 42.7561 11.88C43.8251 11.878 44.8926 11.9623 45.9481 12.132C41.2 12.889 36.8773 15.3141 33.7566 18.9717C30.6358 22.6294 28.9215 27.28 28.9215 32.088C28.9215 36.8961 30.6358 41.5466 33.7566 45.2043C36.8773 48.862 41.2 51.2871 45.9481 52.044Z" fill="#D2D9DC"/>
<path id="Vector_5" d="M42.7559 34.9081C42.3846 34.9081 42.0169 34.8347 41.674 34.6923C41.3311 34.5498 41.0197 34.341 40.7576 34.0779C40.4956 33.8147 40.2881 33.5024 40.1471 33.1589C40.0061 32.8154 39.9344 32.4474 39.9359 32.0761V21.7321C39.9107 21.3455 39.9651 20.9578 40.0957 20.5931C40.2263 20.2283 40.4304 19.8943 40.6953 19.6115C40.9602 19.3288 41.2803 19.1034 41.6357 18.9494C41.9912 18.7953 42.3745 18.7158 42.7619 18.7158C43.1494 18.7158 43.5327 18.7953 43.8881 18.9494C44.2436 19.1034 44.5637 19.3288 44.8286 19.6115C45.0935 19.8943 45.2975 20.2283 45.4281 20.5931C45.5588 20.9578 45.6131 21.3455 45.5879 21.7321V32.0761C45.5879 32.8272 45.2896 33.5475 44.7585 34.0786C44.2274 34.6097 43.507 34.9081 42.7559 34.9081Z" fill="#C40606"/>
<path id="Vector_6" d="M49.2719 34.9079H42.7559C42.0382 34.8611 41.3652 34.543 40.8735 34.0181C40.3818 33.4933 40.1082 32.8011 40.1082 32.0819C40.1082 31.3627 40.3818 30.6704 40.8735 30.1456C41.3652 29.6207 42.0382 29.3027 42.7559 29.2559H49.2719C49.9896 29.3027 50.6626 29.6207 51.1543 30.1456C51.646 30.6704 51.9197 31.3627 51.9197 32.0819C51.9197 32.8011 51.646 33.4933 51.1543 34.0181C50.6626 34.543 49.9896 34.8611 49.2719 34.9079Z" fill="#E30E08"/>
<path id="Vector_7" d="M25.9801 33.156H22.5481C22.2828 33.1279 22.0373 33.0026 21.8589 32.8043C21.6805 32.606 21.5818 32.3487 21.5818 32.082C21.5818 31.8152 21.6805 31.5579 21.8589 31.3596C22.0373 31.1613 22.2828 31.036 22.5481 31.008H25.9801C26.1307 30.992 26.2829 31.0079 26.427 31.0546C26.571 31.1013 26.7036 31.1778 26.8162 31.2791C26.9287 31.3804 27.0187 31.5042 27.0803 31.6425C27.1419 31.7808 27.1738 31.9305 27.1738 32.082C27.1738 32.2334 27.1419 32.3831 27.0803 32.5214C27.0187 32.6597 26.9287 32.7835 26.8162 32.8848C26.7036 32.9861 26.571 33.0626 26.427 33.1093C26.2829 33.156 26.1307 33.1719 25.9801 33.156Z" fill="#7F8F97"/>
<path id="Vector_8" d="M62.964 33.1558H59.532C59.2667 33.1277 59.0212 33.0025 58.8428 32.8042C58.6644 32.6059 58.5657 32.3486 58.5657 32.0818C58.5657 31.8151 58.6644 31.5577 58.8428 31.3594C59.0212 31.1611 59.2667 31.0359 59.532 31.0078H62.964C63.2293 31.0359 63.4747 31.1611 63.6532 31.3594C63.8316 31.5577 63.9303 31.8151 63.9303 32.0818C63.9303 32.3486 63.8316 32.6059 63.6532 32.8042C63.4747 33.0025 63.2293 33.1277 62.964 33.1558Z" fill="#7F8F97"/>
<path id="Vector_9" d="M42.756 16.38C42.6157 16.38 42.4769 16.3524 42.3473 16.2987C42.2177 16.245 42.1 16.1664 42.0008 16.0672C41.9016 15.968 41.823 15.8503 41.7693 15.7207C41.7156 15.5911 41.688 15.4523 41.688 15.312V11.88C41.688 11.5968 41.8005 11.3251 42.0008 11.1248C42.2011 10.9245 42.4727 10.812 42.756 10.812C43.0392 10.812 43.3109 10.9245 43.5112 11.1248C43.7115 11.3251 43.824 11.5968 43.824 11.88V15.312C43.824 15.4523 43.7964 15.5911 43.7427 15.7207C43.689 15.8503 43.6104 15.968 43.5112 16.0672C43.412 16.1664 43.2943 16.245 43.1647 16.2987C43.0351 16.3524 42.8962 16.38 42.756 16.38Z" fill="#7F8F97"/>
<path id="Vector_10" d="M42.7561 53.3642C42.6148 53.3642 42.4749 53.3362 42.3446 53.2818C42.2142 53.2273 42.0959 53.1476 41.9966 53.0471C41.8973 52.9467 41.8188 52.8275 41.7659 52.6966C41.7129 52.5656 41.6865 52.4254 41.6881 52.2842V48.8522C41.6881 48.5689 41.8006 48.2973 42.0009 48.097C42.2012 47.8967 42.4728 47.7842 42.7561 47.7842C43.0393 47.7842 43.311 47.8967 43.5112 48.097C43.7115 48.2973 43.8241 48.5689 43.8241 48.8522V52.2842C43.8256 52.4254 43.7992 52.5656 43.7462 52.6966C43.6933 52.8275 43.6148 52.9467 43.5155 53.0471C43.4162 53.1476 43.2979 53.2273 43.1676 53.2818C43.0372 53.3362 42.8973 53.3642 42.7561 53.3642Z" fill="#7F8F97"/>
<path id="Vector_11" d="M53.2199 25.3319C54.9961 25.3319 56.4359 23.8921 56.4359 22.1159C56.4359 20.3398 54.9961 18.8999 53.2199 18.8999C51.4438 18.8999 50.0039 20.3398 50.0039 22.1159C50.0039 23.8921 51.4438 25.3319 53.2199 25.3319Z" fill="white"/>
<path id="Vector_12" d="M28.644 60.816V55.728C28.644 52.8445 27.4985 50.0792 25.4596 48.0403C23.4207 46.0014 20.6554 44.856 17.772 44.856H15.132C12.2474 44.856 9.48085 46.001 7.44004 48.0396C5.39924 50.0781 4.25114 52.8434 4.24796 55.728V60.816C3.33455 60.816 2.45855 61.1788 1.81268 61.8247C1.1668 62.4706 0.803955 63.3465 0.803955 64.26C0.803955 65.1734 1.1668 66.0494 1.81268 66.6952C2.45855 67.3411 3.33455 67.704 4.24796 67.704H28.644C29.5574 67.704 30.4334 67.3411 31.0792 66.6952C31.7251 66.0494 32.088 65.1734 32.088 64.26C32.088 63.3465 31.7251 62.4706 31.0792 61.8247C30.4334 61.1788 29.5574 60.816 28.644 60.816Z" fill="#FFC344"/>
<path id="Vector_13" d="M19.536 44.9882C16.9903 45.4088 14.6765 46.7191 13.0064 48.6858C11.3364 50.6525 10.4184 53.1481 10.416 55.7282V60.8162C9.50255 60.8162 8.62655 61.1791 7.98068 61.825C7.3348 62.4708 6.97195 63.3468 6.97195 64.2602C6.97195 65.1736 7.3348 66.0496 7.98068 66.6955C8.62655 67.3414 9.50255 67.7042 10.416 67.7042H4.24795C3.33455 67.7042 2.45855 67.3414 1.81268 66.6955C1.1668 66.0496 0.803955 65.1736 0.803955 64.2602C0.803955 63.3468 1.1668 62.4708 1.81268 61.825C2.45855 61.1791 3.33455 60.8162 4.24795 60.8162V55.7282C4.25113 52.8426 5.39885 50.0761 7.43931 48.0356C9.47977 45.9951 12.2463 44.8474 15.132 44.8442H17.772C18.3627 44.8495 18.9522 44.8976 19.536 44.9882Z" fill="#FEB237"/>
<path id="Vector_14" d="M19.2001 35.2678C18.8391 35.2549 18.4792 35.3149 18.1419 35.4442C17.8046 35.5735 17.4969 35.7695 17.237 36.0204C16.9772 36.2713 16.7705 36.572 16.6295 36.9045C16.4884 37.237 16.4159 37.5946 16.4161 37.9558C16.4163 37.5946 16.3437 37.237 16.2027 36.9045C16.0616 36.572 15.855 36.2713 15.5952 36.0204C15.3353 35.7695 15.0275 35.5735 14.6902 35.4442C14.353 35.3149 13.9931 35.2549 13.6321 35.2678C12.9296 35.3048 12.2684 35.611 11.7857 36.1227C11.3031 36.6344 11.036 37.3124 11.0401 38.0158V39.4798C11.0401 40.912 11.609 42.2855 12.6217 43.2982C13.6344 44.3109 15.0079 44.8798 16.4401 44.8798C17.8723 44.8798 19.2458 44.3109 20.2585 43.2982C21.2712 42.2855 21.8401 40.912 21.8401 39.4798V38.0158C21.8467 37.3036 21.5741 36.617 21.0806 36.1034C20.5871 35.5897 19.912 35.2898 19.2001 35.2678Z" fill="#FFC344"/>
<path id="Vector_15" d="M17.8441 44.6641C17.0484 44.8749 16.215 44.9007 15.4078 44.7393C14.6006 44.5779 13.8412 44.2338 13.1877 43.7333C12.5342 43.2327 12.0041 42.5891 11.6381 41.8518C11.272 41.1146 11.0798 40.3032 11.0761 39.4801V38.0161C11.069 37.3118 11.3351 36.6322 11.8183 36.1198C12.3016 35.6075 12.9646 35.3022 13.6681 35.2681C14.1964 35.2476 14.7187 35.3855 15.1681 35.6641C14.7635 35.9185 14.4315 36.2732 14.2045 36.6937C13.9774 37.1142 13.8629 37.5863 13.8721 38.0641V39.4801C13.8712 40.6609 14.2601 41.809 14.9782 42.7463C15.6964 43.6835 16.7037 44.3577 17.8441 44.6641Z" fill="#FEB237"/>
<path id="Vector_16" d="M13.8599 60.3122C13.7688 60.3303 13.675 60.3303 13.5839 60.3122C13.5109 60.2765 13.4458 60.2266 13.3923 60.1654C13.3388 60.1043 13.2981 60.0331 13.2724 59.956C13.2467 59.879 13.2366 59.7975 13.2427 59.7165C13.2488 59.6355 13.271 59.5565 13.3079 59.4842L16.9079 52.0322C16.9413 51.9586 16.9892 51.8925 17.0488 51.8379C17.1084 51.7833 17.1784 51.7413 17.2546 51.7144C17.3308 51.6875 17.4116 51.6763 17.4923 51.6814C17.5729 51.6865 17.6517 51.7079 17.7239 51.7442C17.8703 51.8142 17.9829 51.9395 18.0369 52.0926C18.0909 52.2456 18.0819 52.4138 18.0119 52.5602L14.3999 60.0002C14.3452 60.095 14.2665 60.1737 14.1717 60.2285C14.0769 60.2832 13.9694 60.3121 13.8599 60.3122Z" fill="#ECEFF1"/>
<path id="Vector_17" d="M13.2 55.7159C12.7609 55.7159 12.3317 55.5857 11.9666 55.3417C11.6015 55.0978 11.317 54.7511 11.149 54.3454C10.9809 53.9398 10.937 53.4934 11.0226 53.0628C11.1083 52.6321 11.3197 52.2366 11.6302 51.9261C11.9407 51.6156 12.3362 51.4042 12.7669 51.3185C13.1975 51.2329 13.6439 51.2768 14.0495 51.4449C14.4552 51.6129 14.8019 51.8974 15.0458 52.2625C15.2898 52.6276 15.42 53.0568 15.42 53.4959C15.42 54.0847 15.1861 54.6493 14.7698 55.0657C14.3534 55.482 13.7888 55.7159 13.2 55.7159ZM13.2 52.4999C13.0025 52.4975 12.8088 52.5539 12.6434 52.6619C12.478 52.7699 12.3485 52.9246 12.2713 53.1063C12.1941 53.2881 12.1726 53.4887 12.2097 53.6827C12.2467 53.8767 12.3406 54.0553 12.4794 54.1958C12.6183 54.3363 12.7957 54.4324 12.9892 54.4718C13.1827 54.5112 13.3836 54.4922 13.5663 54.4172C13.749 54.3421 13.9053 54.2145 14.0153 54.0505C14.1252 53.8864 14.184 53.6934 14.184 53.4959C14.1856 53.3657 14.1613 53.2364 14.1126 53.1156C14.0638 52.9949 13.9916 52.885 13.9001 52.7923C13.8085 52.6997 13.6995 52.6261 13.5793 52.5759C13.4592 52.5257 13.3302 52.4999 13.2 52.4999Z" fill="#ECEFF1"/>
<path id="Vector_18" d="M18.0601 60.816C17.621 60.816 17.1918 60.6858 16.8267 60.4418C16.4616 60.1979 16.1771 59.8512 16.0091 59.4455C15.8411 59.0399 15.7971 58.5935 15.8827 58.1629C15.9684 57.7322 16.1798 57.3367 16.4903 57.0262C16.8008 56.7157 17.1964 56.5043 17.627 56.4186C18.0576 56.333 18.504 56.3769 18.9096 56.545C19.3153 56.713 19.662 56.9975 19.906 57.3626C20.1499 57.7277 20.2801 58.1569 20.2801 58.596C20.2801 59.1848 20.0462 59.7494 19.6299 60.1658C19.2135 60.5821 18.6489 60.816 18.0601 60.816ZM18.0601 57.6C17.8626 57.5976 17.6689 57.654 17.5035 57.762C17.3381 57.87 17.2086 58.0247 17.1314 58.2064C17.0542 58.3882 17.0327 58.5888 17.0698 58.7828C17.1069 58.9768 17.2008 59.1554 17.3396 59.2959C17.4784 59.4364 17.6558 59.5325 17.8493 59.5719C18.0428 59.6113 18.2437 59.5923 18.4264 59.5173C18.6091 59.4422 18.7654 59.3146 18.8754 59.1506C18.9853 58.9865 19.0441 58.7935 19.0441 58.596C19.0441 58.3339 18.9408 58.0824 18.7566 57.8959C18.5724 57.7095 18.3222 57.6031 18.0601 57.6Z" fill="#ECEFF1"/>
</g>
</svg>
