<svg width="24" height="24" viewBox="0 0 24 24" fill="none" xmlns="http://www.w3.org/2000/svg">
<g clip-path="url(#clip0_5831_9263)">
<path d="M12 24C18.616 24 24 18.616 24 12C24 5.38401 18.6161 0 12 0C5.38394 0 0 5.38401 0 12C0 18.616 5.38401 24 12 24ZM12 1.59997C17.736 1.59997 22.4 6.26396 22.4 12C22.4 17.736 17.736 22.4 12 22.4C6.26396 22.4 1.59997 17.736 1.59997 12C1.59997 6.26396 6.26402 1.59997 12 1.59997Z" fill="white"/>
<path d="M15.4992 15.824C15.6472 15.944 15.8232 16.0001 15.9992 16.0001C16.2352 16.0001 16.4672 15.8961 16.6232 15.7001C16.8992 15.3561 16.8431 14.8521 16.4992 14.576L12.7992 11.616V5.60004C12.7992 5.16003 12.4392 4.80005 11.9992 4.80005C11.5592 4.80005 11.1992 5.16003 11.1992 5.60004V12.0001C11.1992 12.2441 11.3112 12.4721 11.4992 12.624L15.4992 15.824Z" fill="white"/>
</g>
<defs>
<clipPath id="clip0_5831_9263">
<rect width="24" height="24" fill="white"/>
</clipPath>
</defs>
</svg>
