<svg width="76" height="76" viewBox="0 0 76 76" fill="none" xmlns="http://www.w3.org/2000/svg">
<rect width="76" height="76" rx="38" fill="url(#paint0_linear_14505_62574)"/>
<path d="M42.8784 54.0878C53.3608 54.0878 61.8584 45.5902 61.8584 35.1078C61.8584 24.6254 53.3608 16.1278 42.8784 16.1278C32.3961 16.1278 23.8984 24.6254 23.8984 35.1078C23.8984 45.5902 32.3961 54.0878 42.8784 54.0878Z" fill="#006EE5"/>
<path d="M44.2564 54.0446C43.8058 54.0793 43.3464 54.0966 42.8784 54.0966C37.8446 54.0966 33.017 52.0969 29.4576 48.5375C25.8981 44.978 23.8984 40.1504 23.8984 35.1166C23.8984 30.0828 25.8981 25.2551 29.4576 21.6957C33.017 18.1363 37.8446 16.1366 42.8784 16.1366C43.3464 16.1366 43.8058 16.1366 44.2564 16.1366C39.4674 16.4766 34.9852 18.619 31.7127 22.1321C28.4402 25.6451 26.6207 30.2678 26.6207 35.0689C26.6207 39.87 28.4402 44.4927 31.7127 48.0058C34.9852 51.5189 39.4674 53.6612 44.2564 54.0013V54.0446Z" fill="#0062BA"/>
<path d="M42.8798 49.7024C50.9402 49.7024 57.4745 43.1681 57.4745 35.1077C57.4745 27.0473 50.9402 20.5131 42.8798 20.5131C34.8194 20.5131 28.2852 27.0473 28.2852 35.1077C28.2852 43.1681 34.8194 49.7024 42.8798 49.7024Z" fill="#ECEFF1"/>
<path d="M45.1853 49.5291C44.4223 49.6444 43.6517 49.7024 42.88 49.7025C40.934 49.7499 38.9982 49.4076 37.1866 48.6957C35.3749 47.9837 33.7239 46.9166 32.3309 45.5571C30.9378 44.1976 29.8308 42.5731 29.0749 40.7793C28.3191 38.9855 27.9297 37.0587 27.9297 35.1121C27.9297 33.1656 28.3191 31.2387 29.0749 29.4449C29.8308 27.6512 30.9378 26.0267 32.3309 24.6672C33.7239 23.3076 35.3749 22.2405 37.1866 21.5286C38.9982 20.8167 40.934 20.4744 42.88 20.5218C43.6521 20.5203 44.423 20.5812 45.1853 20.7038C41.7561 21.2505 38.6342 23.0019 36.3803 25.6436C34.1265 28.2852 32.8883 31.644 32.8883 35.1165C32.8883 38.589 34.1265 41.9477 36.3803 44.5893C38.6342 47.231 41.7561 48.9824 45.1853 49.5291Z" fill="#D2D9DC"/>
<path d="M42.8808 37.1533C42.6127 37.1533 42.3471 37.1003 42.0994 36.9974C41.8518 36.8945 41.6269 36.7437 41.4376 36.5537C41.2484 36.3636 41.0986 36.1381 40.9967 35.89C40.8949 35.6419 40.843 35.3761 40.8442 35.1079V27.6373C40.826 27.3581 40.8653 27.0781 40.9596 26.8146C41.0539 26.5512 41.2013 26.31 41.3926 26.1058C41.5839 25.9016 41.8151 25.7388 42.0718 25.6275C42.3285 25.5163 42.6054 25.4589 42.8852 25.4589C43.165 25.4589 43.4418 25.5163 43.6985 25.6275C43.9553 25.7388 44.1864 25.9016 44.3778 26.1058C44.5691 26.31 44.7164 26.5512 44.8108 26.8146C44.9051 27.0781 44.9444 27.3581 44.9262 27.6373V35.1079C44.9262 35.6504 44.7107 36.1706 44.3271 36.5542C43.9435 36.9378 43.4233 37.1533 42.8808 37.1533Z" fill="#C40606"/>
<path d="M47.587 37.1532H42.881C42.3627 37.1194 41.8766 36.8896 41.5215 36.5106C41.1664 36.1316 40.9688 35.6316 40.9688 35.1122C40.9688 34.5927 41.1664 34.0928 41.5215 33.7137C41.8766 33.3347 42.3627 33.105 42.881 33.0712H47.587C48.1053 33.105 48.5914 33.3347 48.9465 33.7137C49.3017 34.0928 49.4993 34.5927 49.4993 35.1122C49.4993 35.6316 49.3017 36.1316 48.9465 36.5106C48.5914 36.8896 48.1053 37.1194 47.587 37.1532Z" fill="#E30E08"/>
<path d="M30.7625 35.8876H28.2838C28.0922 35.8673 27.9149 35.7768 27.7861 35.6336C27.6572 35.4904 27.5859 35.3046 27.5859 35.1119C27.5859 34.9193 27.6572 34.7334 27.7861 34.5902C27.9149 34.447 28.0922 34.3565 28.2838 34.3362H30.7625C30.8712 34.3247 30.9812 34.3362 31.0852 34.37C31.1892 34.4037 31.285 34.4589 31.3663 34.5321C31.4476 34.6052 31.5126 34.6946 31.5571 34.7945C31.6016 34.8944 31.6246 35.0026 31.6246 35.1119C31.6246 35.2213 31.6016 35.3294 31.5571 35.4293C31.5126 35.5292 31.4476 35.6186 31.3663 35.6918C31.285 35.7649 31.1892 35.8201 31.0852 35.8539C30.9812 35.8876 30.8712 35.8991 30.7625 35.8876Z" fill="#7F8F97"/>
<path d="M57.4734 35.8876H54.9948C54.8032 35.8674 54.6259 35.7769 54.497 35.6337C54.3682 35.4905 54.2969 35.3046 54.2969 35.112C54.2969 34.9193 54.3682 34.7335 54.497 34.5903C54.6259 34.447 54.8032 34.3566 54.9948 34.3363H57.4734C57.665 34.3566 57.8423 34.447 57.9712 34.5903C58.1 34.7335 58.1713 34.9193 58.1713 35.112C58.1713 35.3046 58.1 35.4905 57.9712 35.6337C57.8423 35.7769 57.665 35.8674 57.4734 35.8876Z" fill="#7F8F97"/>
<path d="M42.8807 23.7717C42.7794 23.7717 42.6791 23.7517 42.5855 23.713C42.4919 23.6742 42.4069 23.6174 42.3353 23.5458C42.2637 23.4742 42.2069 23.3891 42.1681 23.2955C42.1293 23.202 42.1094 23.1017 42.1094 23.0004V20.5217C42.1094 20.3171 42.1906 20.1209 42.3353 19.9763C42.4799 19.8316 42.6761 19.7504 42.8807 19.7504C43.0853 19.7504 43.2815 19.8316 43.4261 19.9763C43.5708 20.1209 43.652 20.3171 43.652 20.5217V23.0004C43.652 23.1017 43.6321 23.202 43.5933 23.2955C43.5546 23.3891 43.4977 23.4742 43.4261 23.5458C43.3545 23.6174 43.2695 23.6742 43.1759 23.713C43.0823 23.7517 42.982 23.7717 42.8807 23.7717Z" fill="#7F8F97"/>
<path d="M42.8808 50.4825C42.7787 50.4825 42.6777 50.4623 42.5836 50.423C42.4894 50.3837 42.404 50.3261 42.3323 50.2535C42.2605 50.181 42.2039 50.0949 42.1656 50.0004C42.1274 49.9058 42.1083 49.8045 42.1094 49.7025V47.2238C42.1094 47.0193 42.1907 46.8231 42.3353 46.6784C42.48 46.5338 42.6762 46.4525 42.8808 46.4525C43.0853 46.4525 43.2815 46.5338 43.4262 46.6784C43.5708 46.8231 43.6521 47.0193 43.6521 47.2238V49.7025C43.6532 49.8045 43.6341 49.9058 43.5959 50.0004C43.5576 50.0949 43.501 50.181 43.4293 50.2535C43.3575 50.3261 43.2721 50.3837 43.1779 50.423C43.0838 50.4623 42.9828 50.4825 42.8808 50.4825Z" fill="#7F8F97"/>
<path d="M50.4359 30.237C51.7187 30.237 52.7586 29.1971 52.7586 27.9143C52.7586 26.6316 51.7187 25.5917 50.4359 25.5917C49.1532 25.5917 48.1133 26.6316 48.1133 27.9143C48.1133 29.1971 49.1532 30.237 50.4359 30.237Z" fill="white"/>
<path d="M32.6887 55.8644V52.1898C32.6887 50.1073 31.8614 48.1101 30.3889 46.6376C28.9164 45.165 26.9192 44.3378 24.8367 44.3378H22.93C20.8468 44.3378 18.8487 45.1648 17.3748 46.637C15.9009 48.1093 15.0717 50.1065 15.0694 52.1898V55.8644C14.4097 55.8644 13.777 56.1265 13.3106 56.593C12.8441 57.0594 12.582 57.6921 12.582 58.3518C12.582 59.0114 12.8441 59.6441 13.3106 60.1106C13.777 60.577 14.4097 60.8391 15.0694 60.8391H32.6887C33.3484 60.8391 33.981 60.577 34.4475 60.1106C34.914 59.6441 35.176 59.0114 35.176 58.3518C35.176 57.6921 34.914 57.0594 34.4475 56.593C33.981 56.1265 33.3484 55.8644 32.6887 55.8644Z" fill="#FFC344"/>
<path d="M26.1107 44.433C24.2722 44.7367 22.6011 45.683 21.3949 47.1034C20.1888 48.5239 19.5258 50.3262 19.524 52.1896V55.8643C18.8644 55.8643 18.2317 56.1264 17.7652 56.5928C17.2988 57.0593 17.0367 57.692 17.0367 58.3516C17.0367 59.0113 17.2988 59.644 17.7652 60.1105C18.2317 60.5769 18.8644 60.839 19.524 60.839H15.0694C14.4097 60.839 13.777 60.5769 13.3106 60.1105C12.8441 59.644 12.582 59.0113 12.582 58.3516C12.582 57.692 12.8441 57.0593 13.3106 56.5928C13.777 56.1264 14.4097 55.8643 15.0694 55.8643V52.1896C15.0717 50.1056 15.9006 48.1075 17.3742 46.6339C18.8479 45.1602 20.846 44.3313 22.93 44.329H24.8367C25.2633 44.3328 25.6891 44.3675 26.1107 44.433Z" fill="#FEB237"/>
<path d="M25.866 37.4132C25.6053 37.4039 25.3454 37.4472 25.1018 37.5406C24.8582 37.634 24.6359 37.7755 24.4482 37.9567C24.2606 38.1379 24.1113 38.3551 24.0095 38.5953C23.9076 38.8354 23.8552 39.0937 23.8554 39.3546C23.8555 39.0937 23.8031 38.8354 23.7012 38.5953C23.5994 38.3551 23.4501 38.1379 23.2625 37.9567C23.0748 37.7755 22.8525 37.634 22.6089 37.5406C22.3653 37.4472 22.1054 37.4039 21.8447 37.4132C21.3374 37.44 20.8598 37.6611 20.5112 38.0306C20.1626 38.4002 19.9698 38.8899 19.9727 39.3979V40.4552C19.9727 41.4896 20.3836 42.4816 21.115 43.2129C21.8464 43.9443 22.8383 44.3552 23.8727 44.3552C24.907 44.3552 25.899 43.9443 26.6304 43.2129C27.3618 42.4816 27.7727 41.4896 27.7727 40.4552V39.3979C27.7775 38.8835 27.5806 38.3877 27.2242 38.0167C26.8678 37.6457 26.3802 37.4291 25.866 37.4132Z" fill="#FFC344"/>
<path d="M24.8881 44.1989C24.3134 44.3512 23.7115 44.3698 23.1286 44.2532C22.5456 44.1367 21.9971 43.8882 21.5252 43.5267C21.0532 43.1652 20.6704 42.7003 20.406 42.1679C20.1416 41.6354 20.0028 41.0494 20.0001 40.4549V39.3976C19.995 38.889 20.1872 38.3981 20.5362 38.0281C20.8852 37.658 21.364 37.4376 21.8721 37.4129C22.2536 37.3982 22.6309 37.4977 22.9554 37.6989C22.6632 37.8827 22.4235 38.1388 22.2595 38.4425C22.0955 38.7462 22.0128 39.0872 22.0194 39.4323V40.4549C22.0188 41.3077 22.2996 42.1369 22.8183 42.8138C23.337 43.4908 24.0645 43.9776 24.8881 44.1989Z" fill="#FEB237"/>
<path d="M22.0095 55.5002C21.9437 55.5133 21.876 55.5133 21.8102 55.5002C21.7575 55.4744 21.7104 55.4384 21.6718 55.3942C21.6332 55.3501 21.6037 55.2987 21.5852 55.243C21.5666 55.1873 21.5593 55.1285 21.5637 55.07C21.5682 55.0115 21.5842 54.9545 21.6108 54.9022L24.2108 49.5202C24.235 49.4671 24.2696 49.4193 24.3126 49.3799C24.3556 49.3405 24.4062 49.3101 24.4612 49.2907C24.5163 49.2713 24.5746 49.2632 24.6329 49.2669C24.6911 49.2706 24.748 49.286 24.8002 49.3122C24.9059 49.3628 24.9872 49.4533 25.0262 49.5638C25.0652 49.6743 25.0587 49.7958 25.0082 49.9016L22.3995 55.2749C22.36 55.3434 22.3031 55.4002 22.2347 55.4398C22.1662 55.4793 22.0886 55.5002 22.0095 55.5002Z" fill="#ECEFF1"/>
<path d="M21.533 52.1812C21.2159 52.1812 20.9059 52.0871 20.6423 51.9109C20.3786 51.7348 20.1731 51.4844 20.0517 51.1914C19.9304 50.8984 19.8986 50.576 19.9605 50.265C20.0224 49.954 20.1751 49.6683 20.3993 49.4441C20.6235 49.2199 20.9092 49.0672 21.2202 49.0053C21.5312 48.9434 21.8536 48.9752 22.1466 49.0965C22.4396 49.2179 22.69 49.4234 22.8661 49.6871C23.0423 49.9507 23.1364 50.2607 23.1364 50.5778C23.1364 51.0031 22.9674 51.4109 22.6667 51.7116C22.3661 52.0122 21.9583 52.1812 21.533 52.1812ZM21.533 49.8585C21.3904 49.8568 21.2505 49.8975 21.131 49.9755C21.0116 50.0535 20.9181 50.1652 20.8623 50.2965C20.8065 50.4278 20.791 50.5727 20.8178 50.7128C20.8446 50.8529 20.9124 50.9819 21.0126 51.0833C21.1129 51.1848 21.241 51.2542 21.3808 51.2826C21.5206 51.3111 21.6656 51.2974 21.7976 51.2432C21.9295 51.189 22.0424 51.0968 22.1218 50.9783C22.2013 50.8599 22.2437 50.7205 22.2437 50.5778C22.2448 50.4838 22.2273 50.3904 22.1921 50.3032C22.1569 50.216 22.1047 50.1366 22.0386 50.0697C21.9725 50.0028 21.8938 49.9497 21.807 49.9134C21.7202 49.8771 21.6271 49.8585 21.533 49.8585Z" fill="#ECEFF1"/>
<path d="M25.0447 55.8643C24.7276 55.8643 24.4176 55.7702 24.154 55.594C23.8903 55.4179 23.6848 55.1675 23.5635 54.8745C23.4421 54.5815 23.4103 54.2591 23.4722 53.9481C23.5341 53.6371 23.6868 53.3514 23.911 53.1272C24.1352 52.903 24.4209 52.7503 24.7319 52.6884C25.043 52.6265 25.3653 52.6583 25.6583 52.7796C25.9513 52.901 26.2017 53.1065 26.3779 53.3702C26.554 53.6338 26.6481 53.9438 26.6481 54.2609C26.6481 54.6862 26.4792 55.094 26.1785 55.3947C25.8778 55.6953 25.47 55.8643 25.0447 55.8643ZM25.0447 53.5416C24.9021 53.5399 24.7622 53.5806 24.6428 53.6586C24.5233 53.7366 24.4298 53.8483 24.374 53.9796C24.3182 54.1109 24.3028 54.2558 24.3295 54.3959C24.3563 54.536 24.4241 54.665 24.5244 54.7664C24.6246 54.8679 24.7528 54.9373 24.8925 54.9657C25.0323 54.9942 25.1774 54.9805 25.3093 54.9263C25.4413 54.8721 25.5541 54.7799 25.6335 54.6615C25.713 54.543 25.7554 54.4036 25.7554 54.2609C25.7554 54.0716 25.6808 53.89 25.5478 53.7553C25.4148 53.6207 25.234 53.5439 25.0447 53.5416Z" fill="#ECEFF1"/>
<defs>
<linearGradient id="paint0_linear_14505_62574" x1="38" y1="0" x2="38" y2="76" gradientUnits="userSpaceOnUse">
<stop stop-color="#002548"/>
<stop offset="1" stop-color="#0054A6"/>
</linearGradient>
</defs>
</svg>
