<svg width="16" height="16" viewBox="0 0 16 16" fill="none" xmlns="http://www.w3.org/2000/svg">
<path d="M8 16C12.4107 16 16 12.4107 16 8C16 3.58934 12.4107 0 8 0C3.5893 0 0 3.58934 0 8C0 12.4107 3.58934 16 8 16ZM8 1.06665C11.824 1.06665 14.9334 4.17597 14.9334 8C14.9334 11.824 11.824 14.9334 8 14.9334C4.17597 14.9334 1.06665 11.824 1.06665 8C1.06665 4.17597 4.17602 1.06665 8 1.06665Z" fill="#0054A6"/>
<path d="M10.3315 10.5493C10.4302 10.6293 10.5475 10.6667 10.6648 10.6667C10.8222 10.6667 10.9768 10.5974 11.0808 10.4667C11.2648 10.2373 11.2275 9.90135 10.9982 9.71734L8.53149 7.744V3.73334C8.53149 3.44 8.29151 3.20001 7.99817 3.20001C7.70483 3.20001 7.46484 3.44 7.46484 3.73334V8.00002C7.46484 8.1627 7.53953 8.31469 7.66484 8.416L10.3315 10.5493Z" fill="#0054A6"/>
</svg>
