<svg width="64" height="64" viewBox="0 0 64 64" fill="none" xmlns="http://www.w3.org/2000/svg">
<path d="M58 2H6C3.79086 2 2 3.79086 2 6V58C2 60.2091 3.79086 62 6 62H58C60.2091 62 62 60.2091 62 58V6C62 3.79086 60.2091 2 58 2Z" fill="#0054A6"/>
<path d="M2 58C2 59.0609 2.42143 60.0783 3.17157 60.8284C3.92172 61.5786 4.93913 62 6 62H58C59.0609 62 60.0783 61.5786 60.8284 60.8284C61.5786 60.0783 62 59.0609 62 58V20H2V58Z" fill="#E0E0E0"/>
<path d="M2 20V53C5.46041 53.6652 8.97622 54.0001 12.5 54C36.386 54 55.959 39.03 57.838 20H2Z" fill="#F3F3F3"/>
<path d="M32 57H23V55H32C32.2652 55 32.5196 54.8946 32.7071 54.7071C32.8946 54.5196 33 54.2652 33 54V51H35V54C35 54.7956 34.6839 55.5587 34.1213 56.1213C33.5587 56.6839 32.7956 57 32 57Z" fill="#B3B3B3"/>
<path d="M35 41H33V37C33 33.8174 31.7357 30.7652 29.4853 28.5147C27.2348 26.2643 24.1826 25 21 25C17.8174 25 14.7652 26.2643 12.5147 28.5147C10.2643 30.7652 9 33.8174 9 37V41H7V37C7 33.287 8.475 29.726 11.1005 27.1005C13.726 24.475 17.287 23 21 23C24.713 23 28.274 24.475 30.8995 27.1005C33.525 29.726 35 33.287 35 37V41Z" fill="#B3B3B3"/>
<path d="M55 14C56.6569 14 58 12.6569 58 11C58 9.34315 56.6569 8 55 8C53.3431 8 52 9.34315 52 11C52 12.6569 53.3431 14 55 14Z" fill="white"/>
<path d="M45 14C46.6569 14 48 12.6569 48 11C48 9.34315 46.6569 8 45 8C43.3431 8 42 9.34315 42 11C42 12.6569 43.3431 14 45 14Z" fill="white"/>
<path d="M35 14C36.6569 14 38 12.6569 38 11C38 9.34315 36.6569 8 35 8C33.3431 8 32 9.34315 32 11C32 12.6569 33.3431 14 35 14Z" fill="white"/>
<path d="M8 40H10V52H8C7.46957 52 6.96086 51.7893 6.58579 51.4142C6.21071 51.0391 6 50.5304 6 50V42C6 41.4696 6.21071 40.9609 6.58579 40.5858C6.96086 40.2107 7.46957 40 8 40Z" fill="#0054A6"/>
<path d="M32 40H34C34.5304 40 35.0391 40.2107 35.4142 40.5858C35.7893 40.9609 36 41.4696 36 42V50C36 50.5304 35.7893 51.0391 35.4142 51.4142C35.0391 51.7893 34.5304 52 34 52H32V40Z" fill="#0054A6"/>
<path d="M10 42H12C12.5304 42 13.0391 42.2107 13.4142 42.5858C13.7893 42.9609 14 43.4696 14 44V48C14 48.5304 13.7893 49.0391 13.4142 49.4142C13.0391 49.7893 12.5304 50 12 50H10V42Z" fill="#0054A6"/>
<path d="M32 42H30C29.4696 42 28.9609 42.2107 28.5858 42.5858C28.2107 42.9609 28 43.4696 28 44V48C28 48.5304 28.2107 49.0391 28.5858 49.4142C28.9609 49.7893 29.4696 50 30 50H32V42Z" fill="#0054A6"/>
<path d="M22 54H20C18.8954 54 18 54.8954 18 56C18 57.1046 18.8954 58 20 58H22C23.1046 58 24 57.1046 24 56C24 54.8954 23.1046 54 22 54Z" fill="#0054A6"/>
<path d="M38 38V26C38 25.4696 38.2107 24.9609 38.5858 24.5858C38.9609 24.2107 39.4696 24 40 24H56C56.5304 24 57.0391 24.2107 57.4142 24.5858C57.7893 24.9609 58 25.4696 58 26V38C58 38.5304 57.7893 39.0391 57.4142 39.4142C57.0391 39.7893 56.5304 40 56 40H50L47 43V40H40C39.4696 40 38.9609 39.7893 38.5858 39.4142C38.2107 39.0391 38 38.5304 38 38Z" fill="white"/>
<path d="M42 28H54V36H42V28Z" fill="#FFDD33"/>
<path d="M42 28L48 32L54 28H42Z" fill="#FEB237"/>
<path d="M43 44H45V46H43V44Z" fill="#B3B3B3"/>
<path d="M39 44H41V46H39V44Z" fill="#B3B3B3"/>
</svg>
