<svg width="80" height="80" viewBox="0 0 80 80" fill="none" xmlns="http://www.w3.org/2000/svg">
<path d="M22.3003 14.6002L18.8003 26.2002C18.5003 27.1002 17.6003 27.6002 16.7003 27.3002C16.4003 27.2002 16.1003 27.0002 15.9003 26.8002L13.8003 24.5002L13.5003 24.2002C13.2003 24.3002 12.9003 24.5002 12.6003 24.6002C11.0003 25.4002 9.90033 26.9002 9.50033 28.7002C9.30033 30.3002 9.70033 31.9002 10.7003 33.1002C11.6003 34.3002 11.4003 36.0002 10.2003 36.9002C9.00033 37.8002 7.30033 37.6002 6.40034 36.4002C6.00034 35.8002 5.60034 35.2002 5.30034 34.6002C4.20034 32.5002 3.80033 30.1002 4.10033 27.8002C4.70033 24.5002 6.70033 21.5002 9.70033 19.9002L7.40034 17.3002C6.90034 16.7002 7.00033 15.6002 7.70033 15.0002C7.90033 14.8002 8.20033 14.7002 8.50033 14.6002L18.0003 12.9002L20.5003 12.5002C21.4003 12.3002 22.3003 12.9002 22.5003 13.9002C22.4003 14.0002 22.4003 14.3002 22.3003 14.6002Z" fill="#839299"/>
<path d="M54.2996 72.1001C52.8996 74.8001 50.2996 76.9001 47.3996 77.7001C44.0996 78.6001 40.5996 77.8001 37.8996 75.8001L36.3996 79.0001C35.9996 79.9001 34.9996 80.2001 34.1996 79.8001C33.8996 79.7001 33.6996 79.5001 33.4996 79.2001L31.8996 76.8001L26.6996 69.1001C26.1996 68.3001 26.3996 67.3001 27.0996 66.8001C27.2996 66.6001 27.5996 66.6001 27.7996 66.5001L37.1996 65.3001L39.7996 65.0001C40.6996 64.9001 41.5996 65.5001 41.6996 66.5001C41.6996 66.8001 41.6996 67.1001 41.5996 67.4001L40.4996 70.0001L40.1996 70.7001C42.1996 73.1001 45.6996 73.4001 48.0996 71.4001C48.6996 70.9001 49.1996 70.3001 49.4996 69.6001C49.6996 69.2001 50.0996 68.8001 50.4996 68.5001C51.7996 67.7001 53.4996 68.2001 54.1996 69.5001C54.6996 70.3001 54.6996 71.3001 54.2996 72.1001Z" fill="#839299"/>
<path d="M75.5996 25.5005L69.2996 35.8004C68.7996 36.6004 67.7996 36.8005 66.9996 36.4005C66.7996 36.3005 66.5996 36.1004 66.3996 35.8004L64.8996 33.4005L59.9996 25.5005C59.4996 24.7004 59.7996 23.7005 60.5996 23.2005C60.8996 23.0005 61.1996 23.0005 61.4996 23.0005H64.9996C65.8996 21.0005 65.5996 18.7004 64.2996 17.0004C63.3996 15.9004 62.0996 15.2004 60.6996 15.0004C60.4996 15.0004 60.2996 14.9004 60.0996 14.9004C58.7996 14.8004 57.6996 13.8004 57.5996 12.5004C57.5996 12.3004 57.5996 12.2004 57.5996 12.0004C57.6996 10.5004 58.9996 9.40045 60.4996 9.50045C61.5996 9.60045 62.6996 9.80045 63.7996 10.2004C65.5996 10.9004 67.1996 12.0004 68.4996 13.5004C70.0996 15.5004 70.9996 17.9004 70.8996 20.5005C70.8996 21.3005 70.7996 22.2004 70.5996 23.0005H74.0996C74.9996 23.0005 75.7996 23.8005 75.7996 24.7005C75.7996 25.0005 75.6996 25.3005 75.5996 25.5005Z" fill="#839299"/>
<path d="M40.0008 24.4C46.7387 24.4 52.2008 18.9379 52.2008 12.2C52.2008 5.46213 46.7387 0 40.0008 0C33.2629 0 27.8008 5.46213 27.8008 12.2C27.8008 18.9379 33.2629 24.4 40.0008 24.4Z" fill="#0054A6"/>
<path d="M40.0004 16.2996C42.2648 16.2996 44.1004 14.464 44.1004 12.1996C44.1004 9.93524 42.2648 8.09961 40.0004 8.09961C37.736 8.09961 35.9004 9.93524 35.9004 12.1996C35.9004 14.464 37.736 16.2996 40.0004 16.2996Z" fill="#FFDD33"/>
<path d="M14.2 66.4C20.9379 66.4 26.4 60.9379 26.4 54.2C26.4 47.4621 20.9379 42 14.2 42C7.46213 42 2 47.4621 2 54.2C2 60.9379 7.46213 66.4 14.2 66.4Z" fill="#0054A6"/>
<path d="M65.7996 66.4C72.5375 66.4 77.9996 60.9379 77.9996 54.2C77.9996 47.4621 72.5375 42 65.7996 42C59.0617 42 53.5996 47.4621 53.5996 54.2C53.5996 60.9379 59.0617 66.4 65.7996 66.4Z" fill="#0054A6"/>
</svg>
