<svg width="50" height="50" viewBox="0 0 50 50" fill="none" xmlns="http://www.w3.org/2000/svg">
<g clip-path="url(#clip0_12083_17787)">
<path d="M27.6984 0C26.6984 0 9.99844 0 8.49844 0C6.79844 0 5.39844 1.4 5.39844 3.1V16.8C5.39844 18.2 6.29844 19.5 7.59844 19.9H28.4984C29.7984 19.5 30.6984 18.2 30.6984 16.8V3.1C30.7984 1.4 29.3984 0 27.6984 0Z" fill="#002548"/>
<path d="M32.8969 19.8H3.29688C2.99687 19.8 2.79688 20 2.79688 20.3V21C2.79688 22.3 3.89687 23.4 5.19687 23.4H30.9969C32.2969 23.4 33.3969 22.3 33.3969 21V20.4C33.3969 20 33.1969 19.8 32.8969 19.8Z" fill="#5F737C"/>
<path d="M8.19531 5.8999V16.3999C8.19531 16.6999 8.49531 16.9999 8.79531 16.9999H27.4953C27.7953 16.9999 28.0953 16.6999 28.0953 16.3999C28.0953 15.8999 28.0953 7.8999 28.0953 5.8999H8.19531Z" fill="#54CC5A"/>
<path d="M31.9984 26.1001H29.8984C29.0984 26.1001 28.3984 26.8001 28.3984 27.6001V48.6001C28.3984 49.4001 29.0984 50.1001 29.8984 50.1001H31.9984V26.1001Z" fill="#002548"/>
<path d="M44.7938 17.9H43.8938V15.1C43.8938 12.8 41.9937 10.8 39.5938 10.8H34.3938C33.9938 10.8 33.5938 11.1 33.5938 11.6C33.5938 12 33.8938 12.4 34.3938 12.4H39.5938C41.0938 12.4 42.3938 13.6 42.3938 15.2V18H41.4938C40.8938 18 40.5938 18.7 40.8938 19.1L42.5938 21.6C42.8938 22 43.4938 22 43.7938 21.6L45.4938 19.1C45.6938 18.5 45.3938 17.9 44.7938 17.9Z" fill="#002548"/>
<path d="M25.3973 36.5001H20.1973C18.6973 36.5001 17.3973 35.3001 17.3973 33.7001V31.0001H18.2973C18.8973 31.0001 19.1973 30.3001 18.8973 29.9001L17.1973 27.4001C16.8973 27.0001 16.2973 27.0001 15.9973 27.4001L14.2973 29.9001C13.9973 30.3001 14.3973 31.0001 14.9973 31.0001H15.8973V33.8001C15.8973 36.1001 17.7973 38.1001 20.1973 38.1001H25.3973C25.7973 38.1001 26.1973 37.8001 26.1973 37.3001C26.0973 36.9001 25.7973 36.5001 25.3973 36.5001Z" fill="#002548"/>
<path d="M27.3937 2.80005H11.5938V6.10005H27.9937V3.30005C27.9937 3.00005 27.7937 2.80005 27.3937 2.80005Z" fill="#0054A6"/>
<path d="M11.7953 6.10005V2.80005H8.79531C8.39531 2.80005 8.19531 3.00005 8.19531 3.30005V6.10005H11.7953Z" fill="#0054A6"/>
<path d="M16.7 13.7L15.2 12.2C14.6 11.6 14.6 10.8 15.2 10.2C15.8 9.59995 16.6 9.59995 17.2 10.2L17.7 10.7L19 9.39995C19.6 8.79995 20.4 8.79995 21 9.39995C21.6 9.99995 21.6 10.8 21 11.4L18.7 13.7C18.2 14.3 17.3 14.3 16.7 13.7Z" fill="#D2D9DC"/>
<path d="M45.7969 26.1001H31.7969V50.0001H45.6969C46.4969 50.0001 47.1969 49.3001 47.1969 48.5001V27.5001C47.1969 26.7001 46.5969 26.1001 45.7969 26.1001Z" fill="#0054A6"/>
<path d="M43.3938 29.8999H35.6938C35.3938 29.8999 35.0938 30.1999 35.0938 30.4999V32.5999C35.0938 32.8999 35.3938 33.1999 35.6938 33.1999H43.3938C43.6938 33.1999 43.9938 32.8999 43.9938 32.5999V30.4999C44.0938 30.0999 43.7938 29.8999 43.3938 29.8999Z" fill="#D2D9DC"/>
<path d="M42.0969 47.7H37.0969C36.6969 47.7 36.2969 47.4 36.2969 46.9C36.2969 46.5 36.5969 46.1 37.0969 46.1H42.0969C42.4969 46.1 42.8969 46.4 42.8969 46.9C42.7969 47.4 42.4969 47.7 42.0969 47.7Z" fill="#839299"/>
</g>
<defs>
<clipPath id="clip0_12083_17787">
<rect width="50" height="50" fill="white"/>
</clipPath>
</defs>
</svg>
