<svg width="60" height="60" viewBox="0 0 60 60" fill="none" xmlns="http://www.w3.org/2000/svg">
<path d="M30 45L30.34 47.5C30.4101 47.9787 30.6514 48.4158 31.0192 48.7302C31.3869 49.0447 31.8562 49.2151 32.34 49.21L34.53 49.97L36.81 49.21C37.1622 49.2111 37.5044 49.0922 37.78 48.8728C38.0556 48.6535 38.2483 48.3468 38.3263 48.0033C38.4043 47.6598 38.363 47.3 38.2092 46.9831C38.0553 46.6662 37.7982 46.4112 37.48 46.26L35.35 44.9L32.35 44.01L30 45Z" fill="#D8ECFE"/>
<path d="M15.8401 10.69C16.6866 10.69 17.5141 10.439 18.2179 9.9687C18.9217 9.4984 19.4703 8.82996 19.7943 8.04789C20.1182 7.26582 20.203 6.40526 20.0378 5.57502C19.8727 4.74478 19.465 3.98216 18.8665 3.38359C18.2679 2.78502 17.5053 2.37739 16.675 2.21225C15.8448 2.0471 14.9842 2.13186 14.2022 2.4558C13.4201 2.77975 12.7517 3.32832 12.2814 4.03217C11.8111 4.73601 11.5601 5.5635 11.5601 6.41001C11.5601 7.54513 12.011 8.63377 12.8136 9.43642C13.6163 10.2391 14.7049 10.69 15.8401 10.69Z" fill="#FFCEBF"/>
<path d="M15.8399 2.13C15.3596 2.12759 14.8824 2.2088 14.4299 2.37C15.2677 2.66302 15.9937 3.20925 16.5073 3.93306C17.0209 4.65687 17.2969 5.52246 17.2969 6.41C17.2969 7.29753 17.0209 8.16312 16.5073 8.88693C15.9937 9.61074 15.2677 10.157 14.4299 10.45C14.8824 10.6112 15.3596 10.6924 15.8399 10.69C16.9751 10.69 18.0637 10.2391 18.8663 9.43641C19.669 8.63376 20.1199 7.54512 20.1199 6.41C20.1199 5.27487 19.669 4.18623 18.8663 3.38358C18.0637 2.58092 16.9751 2.13 15.8399 2.13Z" fill="#FFB09E"/>
<path d="M17.75 36.31L27.42 35.31C27.6825 35.2759 27.9478 35.3473 28.1577 35.5085C28.3677 35.6697 28.5051 35.9076 28.54 36.17L30 45H32.56L33.56 31C33.458 30.2073 33.0708 29.4788 32.4709 28.9506C31.871 28.4225 31.0993 28.1308 30.3 28.13H22.7L19.87 26.35L17.75 28.13V36.31Z" fill="#8D9CA8"/>
<path d="M35.33 44.88L32.4599 44.94L30.7099 30.94C30.6079 30.1473 30.2208 29.4188 29.6208 28.8906C29.0209 28.3625 28.2492 28.0708 27.45 28.07H30.29C31.0892 28.0708 31.8609 28.3625 32.4608 28.8906C33.0608 29.4188 33.4479 30.1473 33.5499 30.94L35.33 44.88Z" fill="#7A8C98"/>
<path d="M24.68 58.41H17.16L14.72 57.57L12.72 58.42H5.81997C5.59454 58.42 5.37834 58.3304 5.21893 58.171C5.05952 58.0116 4.96997 57.7954 4.96997 57.57C4.96997 57.3446 5.05952 57.1284 5.21893 56.969C5.37834 56.8096 5.59454 56.72 5.81997 56.72H24.68C24.9054 56.72 25.1216 56.8096 25.281 56.969C25.4404 57.1284 25.53 57.3446 25.53 57.57C25.53 57.7954 25.4404 58.0116 25.281 58.171C25.1216 58.3304 24.9054 58.42 24.68 58.42V58.41Z" fill="#E30E08"/>
<path d="M26.2899 49.19H39.5699C39.9978 49.1926 40.4073 49.3645 40.709 49.668C41.0106 49.9715 41.1799 50.3821 41.1799 50.81L42.5299 55.28L41.1799 58.41H24.6799V50.81C24.6799 50.3821 24.8492 49.9715 25.1509 49.668C25.4525 49.3645 25.862 49.1926 26.2899 49.19Z" fill="#39B54A"/>
<path d="M39.5699 49.19H36.1699C36.5988 49.1926 37.0093 49.3641 37.3125 49.6674C37.6158 49.9706 37.7873 50.3812 37.7899 50.81V58.41H41.1799L42.5299 55.28L41.1799 50.81C41.1799 50.3821 41.0106 49.9715 40.709 49.668C40.4073 49.3645 39.9978 49.1926 39.5699 49.19Z" fill="#009245"/>
<path d="M41.1799 42.62V58.41H57.6899V42.62C57.6913 42.4069 57.6503 42.1956 57.5693 41.9985C57.4884 41.8013 57.3691 41.6222 57.2184 41.4715C57.0677 41.3208 56.8886 41.2016 56.6914 41.1206C56.4943 41.0397 56.283 40.9987 56.0699 41H42.7999C42.3703 41 41.9582 41.1707 41.6544 41.4745C41.3506 41.7783 41.1799 42.1903 41.1799 42.62Z" fill="#FCC400"/>
<path d="M56.0699 41H52.6799C52.8922 41 53.1024 41.042 53.2984 41.1235C53.4944 41.205 53.6723 41.3245 53.8219 41.4751C53.9716 41.6257 54.0899 41.8043 54.1703 42.0008C54.2506 42.1973 54.2913 42.4077 54.2899 42.62V58.41H57.6899V42.62C57.6913 42.4069 57.6503 42.1956 57.5693 41.9985C57.4884 41.8013 57.3691 41.6222 57.2184 41.4715C57.0677 41.3208 56.8886 41.2016 56.6914 41.1206C56.4943 41.0397 56.283 40.9987 56.0699 41Z" fill="#F6AB31"/>
<path d="M17.1599 58.4H12.6899C12.2061 58.4051 11.7369 58.2347 11.3691 57.9202C11.0014 57.6058 10.7601 57.1687 10.6899 56.69V54.2L13.5599 52.64L15.6599 54.1L17.7899 55.46C18.0267 55.5726 18.23 55.745 18.3799 55.96C18.5461 56.1907 18.6452 56.463 18.6661 56.7466C18.6871 57.0301 18.6291 57.314 18.4987 57.5666C18.3682 57.8193 18.1703 58.0309 17.927 58.178C17.6836 58.3251 17.4043 58.4019 17.1199 58.4H17.1599Z" fill="#D8ECFE"/>
<path d="M11.76 28.07L10.76 54.2L13 54.15L19.6 28.07L15.6 27.01L11.76 28.07Z" fill="#8D9CA8"/>
<path d="M19.6 28.07L15.7 54.07H12.95L16.76 27.99L17.57 27.45L19.6 28.07Z" fill="#7A8C98"/>
<path d="M22.7 17.93V28.07H11.76V14.68L11.49 13.68H18.42C19.5499 13.68 20.6341 14.1268 21.4359 14.9229C22.2376 15.7191 22.6921 16.8001 22.7 17.93Z" fill="#006EE5"/>
<path d="M18.4201 13.65H15.5801C16.7161 13.65 17.8058 14.1006 18.61 14.903C19.4143 15.7053 19.8674 16.7939 19.8701 17.93V28.07H22.7001V17.93C22.7001 16.7949 22.2492 15.7062 21.4465 14.9036C20.6438 14.1009 19.5552 13.65 18.4201 13.65Z" fill="#0062BA"/>
<path d="M12.3999 28.45L13.5599 30C13.7352 30.2007 13.8673 30.4354 13.9479 30.6894C14.0284 30.9434 14.0558 31.2113 14.0283 31.4764C14.0008 31.7414 13.919 31.998 13.7879 32.23C13.6569 32.4621 13.4795 32.6646 13.2667 32.8251C13.0539 32.9855 12.8104 33.1004 12.5512 33.1626C12.2921 33.2247 12.0229 33.2328 11.7605 33.1864C11.4981 33.1399 11.2481 33.0399 11.0261 32.8926C10.804 32.7452 10.6147 32.5537 10.4699 32.33L9.17993 30.6L10.4699 29L12.3999 28.45Z" fill="#FFCEBF"/>
<path d="M13.3901 17.69L9.3001 22.54C9.17505 22.6915 9.10176 22.879 9.09097 23.0751C9.08017 23.2713 9.13243 23.4657 9.2401 23.63L12.4001 28.45L9.1801 30.6L5.5301 25.74C5.02506 25.0597 4.73921 24.2417 4.71063 23.395C4.68204 22.5482 4.91208 21.7128 5.3701 21L9.3701 14.86C9.5039 14.6289 9.67641 14.4226 9.8801 14.25C10.3499 13.848 10.9533 13.6369 11.5712 13.6582C12.1891 13.6795 12.7765 13.9318 13.2174 14.3652C13.6584 14.7986 13.9207 15.3815 13.9527 15.999C13.9847 16.6164 13.7839 17.2234 13.3901 17.7V17.69Z" fill="#006EE5"/>
<path d="M27.5299 11.33H26.7599V10.56C26.7599 10.3346 26.6704 10.1184 26.511 9.95895C26.3516 9.79955 26.1354 9.70999 25.9099 9.70999C25.6845 9.70999 25.4683 9.79955 25.3089 9.95895C25.1495 10.1184 25.0599 10.3346 25.0599 10.56V11.33H24.2899C24.0645 11.33 23.8483 11.4195 23.6889 11.579C23.5295 11.7384 23.4399 11.9546 23.4399 12.18C23.4399 12.4054 23.5295 12.6216 23.6889 12.781C23.8483 12.9404 24.0645 13.03 24.2899 13.03H25.0599V13.81C25.0599 13.9216 25.0819 14.0321 25.1246 14.1353C25.1674 14.2384 25.23 14.3321 25.3089 14.411C25.3878 14.49 25.4815 14.5526 25.5847 14.5953C25.6878 14.638 25.7983 14.66 25.9099 14.66C26.0216 14.66 26.1321 14.638 26.2352 14.5953C26.3383 14.5526 26.4321 14.49 26.511 14.411C26.5899 14.3321 26.6525 14.2384 26.6952 14.1353C26.738 14.0321 26.7599 13.9216 26.7599 13.81V13H27.5299C27.7554 13 27.9716 12.9104 28.131 12.751C28.2904 12.5916 28.3799 12.3754 28.3799 12.15C28.3799 11.9246 28.2904 11.7084 28.131 11.549C27.9716 11.3895 27.7554 11.3 27.5299 11.3V11.33Z" fill="#E30E08"/>
<path d="M30.62 8.43001C31.0895 8.43001 31.47 8.04945 31.47 7.58001C31.47 7.11057 31.0895 6.73001 30.62 6.73001C30.1506 6.73001 29.77 7.11057 29.77 7.58001C29.77 8.04945 30.1506 8.43001 30.62 8.43001Z" fill="#E30E08"/>
</svg>
