<svg width="420" height="244" viewBox="0 0 420 244" fill="none" xmlns="http://www.w3.org/2000/svg">
<path d="M243.389 98.1188C249.04 100.576 250.022 98.3645 250.022 98.3645C250.022 98.3645 268.202 78.096 271.765 72.9368C275.327 67.7775 272.502 65.1979 272.502 65.1979L227.42 45.6665C224.717 45.7893 223.366 51.9313 223.366 51.9313C223.366 51.9313 219.558 73.0596 218.453 81.904C217.838 86.8176 221.032 88.4145 221.032 88.4145L229.999 92.3454L187.497 190.371C187.497 190.371 186.514 192.582 189.954 194.056C193.393 195.53 195.482 193.81 195.482 193.81L197.693 194.793L199.167 191.354L202.606 192.828L201.132 196.267L206.783 198.724L208.257 195.285L211.696 196.759L210.222 200.198L213.662 201.672L222.015 182.509L218.575 181.035L217.101 184.475L212.556 182.509L214.03 179.07L209.485 177.104L208.011 180.544L204.572 179.07L206.537 174.525L203.098 173.051L236.756 95.2935C236.633 95.1707 237.738 95.662 243.389 98.1188ZM243.512 71.3399C240.686 70.1115 239.458 66.9177 240.686 64.0924C241.915 61.2671 245.109 60.0387 247.934 61.2671C250.759 62.4955 251.988 65.6893 250.759 68.5146C249.531 71.3399 246.337 72.5683 243.512 71.3399Z" fill="#0054A6"/>
<path opacity="0.19" d="M223.367 85.3436C223.122 85.3436 222.507 83.8695 222.016 81.2899C221.525 78.7103 221.156 75.0251 221.525 70.9714C221.893 66.9177 222.753 63.3554 223.613 60.8986C224.473 58.4418 225.333 56.9678 225.578 57.0906C226.07 57.3363 223.981 63.3554 223.367 71.2171C222.876 78.956 223.981 85.3436 223.367 85.3436Z" fill="#F9FAFB"/>
<path opacity="0.19" d="M240.196 72.9366C240.073 73.1823 239.213 72.9366 238.231 72.0767C237.248 71.2169 236.142 69.4971 235.774 67.4088C235.405 65.3206 235.897 63.478 236.634 62.2496C237.371 61.0212 238.108 60.6527 238.231 60.7755C238.476 60.8984 238.108 61.6354 237.862 62.741C237.616 63.8465 237.371 65.4434 237.616 67.0403C237.862 68.7601 238.599 70.1113 239.213 71.094C239.827 72.0767 240.319 72.6909 240.196 72.9366Z" fill="#F9FAFB"/>
<path opacity="0.19" d="M200.031 168.874C199.539 168.629 200.891 164.329 202.979 159.293C205.067 154.134 207.155 150.203 207.647 150.326C208.138 150.571 206.787 154.871 204.699 159.907C202.61 165.066 200.522 169.12 200.031 168.874Z" fill="#F9FAFB"/>
<path opacity="0.19" d="M190.443 190.002C189.952 189.757 190.197 188.16 190.934 186.44C191.672 184.72 192.777 183.369 193.146 183.615C193.637 183.86 193.391 185.457 192.654 187.177C191.917 189.02 190.934 190.248 190.443 190.002Z" fill="#F9FAFB"/>
<path opacity="0.19" d="M255.303 87.9231C255.549 88.046 255.426 89.0287 254.566 90.5028C254.198 91.2398 253.461 91.9768 252.601 92.7139C251.741 93.4509 250.758 94.0651 249.53 94.5565C248.302 95.0478 247.073 95.2935 246.091 95.4163C244.985 95.5392 244.002 95.4163 243.142 95.1707C241.545 94.8021 240.686 94.0651 240.808 93.9423C240.931 93.6966 241.914 93.8194 243.388 93.8194C244.862 93.8194 246.828 93.5737 248.916 92.7139C251.004 91.854 252.601 90.6256 253.584 89.5201C254.444 88.6602 255.058 87.8003 255.303 87.9231Z" fill="#2D2F31"/>
<path opacity="0.19" d="M251.621 71.7082C251.129 71.4625 251.621 69.8656 251.989 67.9002C252.358 65.9348 252.481 64.3379 252.972 64.215C253.463 64.0922 254.323 65.9348 253.832 68.2687C253.463 70.4798 252.112 71.9539 251.621 71.7082Z" fill="#2D2F31"/>
<path d="M179.51 21.8356C167.717 26.3806 160.101 29.3288 160.101 29.3288L154.205 31.5399C154.205 31.5399 142.658 36.9448 148.8 45.2979C154.942 53.6509 171.525 74.4107 171.525 74.4107L175.702 72.8138L195.11 123.546L203.463 125.143L208.131 114.579L205.183 106.963L201.129 105.121L198.673 98.7329L201.621 91.9767L195.479 89.2743L196.83 86.3261L194.373 79.9385H191.916L189.951 74.9021L191.794 70.8484L190.811 66.9175L194.25 65.5663L191.425 32.7683C191.425 32.7683 191.302 17.2905 179.51 21.8356ZM179.387 38.7874L163.295 44.9293L161.821 43.5781C155.188 36.4534 164.769 33.751 164.769 33.751C164.769 33.751 166.489 33.1368 173.245 30.5572C181.844 27.2405 179.387 38.7874 179.387 38.7874Z" fill="#FFDD33"/>
<path opacity="0.19" d="M185.287 90.1341C184.796 90.3797 182.831 86.6946 180.988 81.9038C179.145 77.1131 178.286 73.0594 178.777 72.9366C179.268 72.8137 180.988 76.4989 182.831 81.2896C184.55 85.9575 185.779 89.8884 185.287 90.1341Z" fill="#F9FAFB"/>
<path opacity="0.19" d="M189.097 99.1012C188.605 99.3469 187.623 98.487 187.009 97.013C186.394 95.5389 186.394 94.1876 186.886 94.0648C187.377 93.942 188.114 94.9247 188.728 96.2759C189.342 97.5043 189.465 98.7327 189.097 99.1012Z" fill="#F9FAFB"/>
<path opacity="0.19" d="M170.669 67.2863C170.546 67.5319 169.44 67.2863 168.089 66.1807C166.738 65.0752 165.264 63.3554 163.79 61.5128C160.719 57.7048 158.508 54.2653 158.876 54.0196C159.245 53.6511 162.193 56.4764 165.264 60.2844C166.861 62.127 168.089 64.0924 169.072 65.198C170.054 66.4264 170.791 67.0406 170.669 67.2863Z" fill="#F9FAFB"/>
<path opacity="0.19" d="M152.852 45.9121C153.343 45.6664 154.326 46.4034 155.063 47.6318C155.8 48.8602 156.046 50.0886 155.677 50.3343C155.186 50.58 154.203 49.8429 153.466 48.6145C152.606 47.3861 152.361 46.1577 152.852 45.9121Z" fill="#F9FAFB"/>
<path opacity="0.19" d="M156.414 33.8738C156.537 34.1195 156.046 34.6108 155.309 35.4707C154.572 36.2078 153.466 37.1905 152.606 38.5417C151.869 39.7701 151.624 41.1213 151.746 42.104C151.869 43.0868 152.115 43.7009 151.992 43.8238C151.869 43.9466 151.009 43.7009 150.518 42.3497C150.027 41.1213 150.027 39.1559 151.009 37.4362C152.115 35.7164 153.466 34.8565 154.572 34.2423C155.554 33.751 156.169 33.6281 156.414 33.8738Z" fill="#F9FAFB"/>
<path opacity="0.19" d="M191.793 61.7582C191.301 61.8811 190.196 55.9848 189.704 48.7373C189.213 41.4898 189.581 35.5935 190.196 35.5935C190.687 35.5935 191.178 41.4898 191.67 48.6144C192.038 55.862 192.284 61.6354 191.793 61.7582Z" fill="#2D2F31"/>
<path opacity="0.19" d="M190.942 80.43C190.451 80.6757 189.714 80.0615 189.345 78.9559C188.977 77.8504 189.222 76.8677 189.836 76.7448C190.328 76.622 190.942 77.359 191.188 78.3417C191.433 79.2016 191.433 80.1843 190.942 80.43Z" fill="#2D2F31"/>
<path opacity="0.19" d="M200.511 92.9594C200.265 93.4508 199.16 93.4508 197.931 92.9594C196.703 92.468 195.843 91.6082 196.089 91.1168C196.335 90.6255 197.44 90.6255 198.669 91.1168C199.897 91.6082 200.634 92.468 200.511 92.9594Z" fill="#2D2F31"/>
<path d="M236.509 168.628L235.035 176.859L237.983 177.596L236.018 184.843L240.317 188.774L236.632 191.968L239.089 195.53L235.158 198.724L237.738 203.023L234.052 206.217L236.509 209.779L232.578 212.973L231.227 217.395L235.527 223.66L241.914 222.555L249.653 179.684L251.864 180.052L253.215 170.962C260.34 169.98 263.657 161.995 263.657 161.995C267.833 150.571 263.78 143.938 258.989 140.375C253.461 136.199 245.968 135.216 239.58 137.796C235.281 139.515 230.982 142.832 229.507 149.588C225.822 164.452 236.509 168.628 236.509 168.628ZM243.02 147.746C243.511 145.043 246.091 143.201 248.793 143.692C251.496 144.183 253.338 146.763 252.847 149.465C252.356 152.168 249.776 154.01 247.073 153.519C244.371 153.028 242.528 150.448 243.02 147.746Z" fill="#FFDD33"/>
<path opacity="0.19" d="M246.826 154.87C246.826 154.625 247.563 154.502 248.668 154.379C249.651 154.133 251.125 153.765 252.108 152.782C253.213 151.799 253.582 150.571 253.705 149.588C253.828 148.483 253.95 147.746 254.196 147.746C254.442 147.746 254.81 148.36 255.056 149.588C255.179 150.202 255.179 150.939 254.933 151.922C254.687 152.782 254.073 153.642 253.336 154.379C251.739 155.73 249.774 155.976 248.668 155.853C247.44 155.484 246.703 155.116 246.826 154.87Z" fill="#2D2F31"/>
<path opacity="0.19" d="M250.758 168.26C250.881 167.769 252.723 167.769 254.812 167.032C256.9 166.294 258.251 165.066 258.742 165.435C258.988 165.557 258.865 166.172 258.251 166.909C257.76 167.646 256.777 168.383 255.426 168.874C254.197 169.365 252.846 169.365 251.986 169.12C251.126 168.874 250.758 168.506 250.758 168.26Z" fill="#2D2F31"/>
<path opacity="0.19" d="M240.436 220.098C240.19 220.098 240.067 217.887 240.436 214.202C240.804 210.639 241.664 205.726 242.77 200.321C243.875 194.916 244.735 190.125 245.349 186.563C245.963 183.001 246.209 180.79 246.455 180.79C246.7 180.79 246.946 183.001 246.7 186.686C246.455 190.371 245.718 195.285 244.612 200.689C243.507 205.972 242.524 210.762 241.787 214.447C241.05 217.887 240.681 220.098 240.436 220.098Z" fill="#2D2F31"/>
<path opacity="0.19" d="M242.766 151.799C242.275 152.045 241.169 151.062 240.924 149.22C240.678 147.5 241.415 146.149 241.907 146.272C242.398 146.395 242.521 147.623 242.766 148.974C243.012 150.325 243.135 151.554 242.766 151.799Z" fill="#F9FAFB"/>
<path opacity="0.19" d="M230.121 155.607C230.612 155.607 231.226 158.433 233.192 161.258C234.175 162.732 235.28 163.838 236.14 164.575C236.631 164.943 236.877 165.312 237.123 165.435C237.246 165.557 237.491 165.68 237.614 165.68C237.737 165.803 237.491 166.049 237 166.049C236.754 166.049 236.509 166.049 236.263 165.926C236.017 165.803 235.771 165.68 235.403 165.557C234.297 164.943 232.823 163.838 231.718 162.118C230.612 160.521 229.998 158.678 229.875 157.45C229.63 156.344 229.875 155.607 230.121 155.607Z" fill="#F9FAFB"/>
</svg>
