<svg width="312" height="222" viewBox="0 0 312 222" fill="none" xmlns="http://www.w3.org/2000/svg">
<path fill-rule="evenodd" clip-rule="evenodd" d="M188.1 46.8C188.9 46 190 45.3 191.1 44.8C192.2 44.4 193.4 44.1 194.6 44.1C195.8 44.1 197 44.3 198.1 44.8C199.2 45.3 200.2 45.9 201.1 46.8C201.9 47.6 202.6 48.7 203.1 49.8C203.5 50.9 203.8 52.1 203.8 53.3C203.8 54.5 203.6 55.7 203.1 56.8C202.6 57.9 202 58.9 201.1 59.8C200.3 60.6 199.2 61.3 198.1 61.8C197 62.2 195.8 62.5 194.6 62.5C193.4 62.5 192.2 62.3 191.1 61.8C190 61.3 189 60.7 188.1 59.8C187.3 59 186.6 57.9 186.1 56.8C185.7 55.7 185.4 54.5 185.4 53.3C185.4 52.1 185.6 50.9 186.1 49.8C186.6 48.7 187.2 47.6 188.1 46.8ZM191.4 45.6C190.4 46 189.5 46.6 188.7 47.4C187.9 48.2 187.3 49.1 186.9 50.1C186.5 51.1 186.3 52.2 186.3 53.3C186.3 54.4 186.5 55.5 186.9 56.5C187.3 57.5 187.9 58.4 188.7 59.2C189.5 60 190.4 60.6 191.4 61C192.4 61.4 193.5 61.6 194.6 61.6C195.7 61.6 196.8 61.4 197.8 61C198.8 60.6 199.7 60 200.5 59.2C201.3 58.4 201.9 57.5 202.3 56.5C202.7 55.5 202.9 54.4 202.9 53.3C202.9 52.2 202.7 51.1 202.3 50.1C201.9 49.1 201.3 48.2 200.5 47.4C199.7 46.6 198.8 46 197.8 45.6C196.8 45.2 195.7 45 194.6 45C193.5 45 192.4 45.2 191.4 45.6ZM190.4 38.8C189.8 39 189.3 39.2 188.7 39.4C188.1 39.6 187.6 39.9 187.1 40.2C186.6 40.5 186.1 40.8 185.6 41.2C185.1 41.6 184.6 42 184.2 42.4C184 42.5 183.8 42.6 183.7 42.7C183.5 42.7 183.3 42.7 183.1 42.6C181.8 41.8 180.3 41 179 40.2C178.9 40.2 178.9 40.1 178.8 40.1C178.7 40.1 178.6 40.1 178.6 40.1C178.5 40.1 178.5 40.2 178.4 40.2C178.3 40.2 178.3 40.3 178.3 40.4C177.3 41.9 176.3 43.8 175.4 45.4C175.4 45.5 175.3 45.5 175.3 45.6C175.3 45.7 175.3 45.8 175.3 45.8C175.3 45.9 175.4 45.9 175.4 46C175.4 46.1 175.5 46.1 175.6 46.1C176.8 46.9 178.4 47.7 179.7 48.4C179.9 48.5 180 48.7 180.1 48.9C180.1 49 180.1 49 180.2 49.1H180.3L180.2 49.5C180.1 49.8 180.1 50.1 180 50.4C179.9 50.7 179.9 51 179.9 51.3C179.9 51.6 179.8 51.9 179.8 52.2C179.8 52.5 179.8 52.8 179.8 53.1C179.8 53.4 179.8 53.7 179.8 54C179.8 54.3 179.8 54.6 179.9 54.9C179.9 55.2 180 55.5 180 55.8C180.1 56.1 180.1 56.4 180.2 56.7C180.3 56.9 180.2 57.1 180.1 57.3C180 57.5 179.9 57.7 179.7 57.8L176.1 59.9L175.7 60.1C175.6 60.1 175.6 60.2 175.5 60.2C175.5 60.3 175.4 60.3 175.4 60.4C175.4 60.5 175.4 60.6 175.4 60.6C175.4 60.7 175.4 60.7 175.5 60.8L178.2 65.4L178.4 65.8C178.4 65.9 178.5 65.9 178.5 66C178.6 66 178.6 66.1 178.7 66.1C178.8 66.1 178.9 66.1 178.9 66.1C179 66.1 179 66.1 179.1 66C180.4 65.2 181.8 64.4 183.2 63.6C183.4 63.5 183.6 63.5 183.8 63.5C184 63.5 184.2 63.6 184.3 63.8C184.7 64.2 185.2 64.6 185.7 65C186.2 65.4 186.7 65.7 187.2 66C187.7 66.3 188.3 66.6 188.8 66.8C189.4 67 189.9 67.2 190.5 67.4C190.7 67.5 190.9 67.6 191 67.7C191.1 67.9 191.2 68.1 191.2 68.3V73C191.2 73.1 191.2 73.2 191.2 73.2C191.2 73.3 191.3 73.3 191.3 73.4C191.4 73.5 191.4 73.5 191.5 73.5C191.6 73.5 191.6 73.5 191.7 73.5H197.5C197.6 73.5 197.7 73.5 197.7 73.5C197.8 73.5 197.8 73.4 197.9 73.4C198 73.3 198 73.3 198 73.2C198 73.1 198 73.1 198 73V68.3C198 68.1 198.1 67.9 198.2 67.7C198.3 67.5 198.5 67.4 198.7 67.4C199.3 67.2 199.8 67 200.4 66.8C201 66.6 201.5 66.3 202 66C202.5 65.7 203 65.4 203.5 65C204 64.6 204.5 64.2 204.9 63.8C205.1 63.6 205.3 63.6 205.5 63.5C205.7 63.5 205.9 63.5 206.1 63.7L210.1 66C210.2 66 210.2 66.1 210.3 66.1C210.4 66.1 210.5 66.1 210.5 66.1C210.6 66.1 210.6 66 210.7 66C210.8 66 210.8 65.9 210.8 65.8C211.8 64.1 212.7 62.5 213.7 60.8C213.7 60.7 213.8 60.7 213.8 60.6C213.8 60.5 213.8 60.4 213.8 60.4C213.8 60.3 213.7 60.3 213.7 60.2C213.7 60.1 213.6 60.1 213.5 60.1L209.4 57.8C209.2 57.7 209.1 57.5 209 57.3C209 57.2 209 57.2 208.9 57.1H208.8L208.9 56.7C209 56.4 209 56.1 209.1 55.8C209.2 55.5 209.2 55.2 209.2 54.9C209.2 54.6 209.3 54.3 209.3 54C209.3 53.7 209.3 53.4 209.3 53.1C209.3 52.8 209.3 52.5 209.3 52.2C209.3 51.9 209.3 51.6 209.2 51.3C209.2 51 209.1 50.7 209.1 50.4C209 50.1 209 49.8 208.9 49.5C208.8 49.3 208.9 49.1 209 48.9C209.1 48.7 209.2 48.5 209.4 48.5L213.4 46.2C213.5 46.2 213.5 46.1 213.6 46.1C213.6 46 213.7 46 213.7 45.9C213.7 45.8 213.7 45.7 213.7 45.7C213.7 45.6 213.7 45.6 213.6 45.5C212.6 44 211.6 42.1 210.7 40.5C210.7 40.4 210.6 40.4 210.6 40.3C210.5 40.3 210.5 40.2 210.4 40.2C210.3 40.2 210.2 40.2 210.2 40.2C210.1 40.2 210.1 40.2 210 40.3L205.9 42.7C205.7 42.8 205.5 42.8 205.3 42.8C205.1 42.8 204.9 42.7 204.7 42.5C204.3 42.1 203.8 41.7 203.3 41.3C202.8 40.9 202.3 40.6 201.8 40.3C201.3 40 200.7 39.7 200.2 39.5C199.6 39.3 199.1 39.1 198.5 38.9C198.3 38.8 198.1 38.7 198 38.6C197.9 38.4 197.8 38.2 197.8 38V33.3C197.8 33.2 197.8 33.1 197.8 33.1C197.8 33 197.7 33 197.7 32.9C197.6 32.8 197.6 32.8 197.5 32.8C197.4 32.8 197.4 32.8 197.3 32.8H191.5C191.4 32.8 191.3 32.8 191.3 32.8C191.2 32.8 191.2 32.9 191.1 32.9C191 33 190.9 33.2 190.9 33.3V38C190.9 38.2 190.8 38.4 190.7 38.6C190.8 38.7 190.6 38.8 190.4 38.8ZM188.4 38.7C187.8 39 187.2 39.2 186.7 39.6C186.1 39.9 185.6 40.3 185.1 40.7C184.6 41.1 184.1 41.5 183.6 42C183.6 42 183.6 42 183.5 42C183.5 42 183.5 42 183.4 42C182 41.2 180.7 40.4 179.3 39.6C179.1 39.5 179 39.5 178.8 39.4C178.6 39.4 178.4 39.4 178.3 39.4C178.1 39.4 177.9 39.5 177.8 39.6C177.7 39.7 177.5 39.9 177.4 40C176.4 41.6 175.5 43.3 174.5 45C174.4 45.2 174.3 45.3 174.3 45.5C174.3 45.7 174.3 45.9 174.3 46.1C174.3 46.3 174.4 46.5 174.5 46.6C174.6 46.7 174.8 46.9 174.9 47C176.2 47.8 177.6 48.6 179 49.3C179 49.3 179 49.3 179 49.4C179 49.4 179 49.4 179 49.5L178.9 49.9C178.9 50.1 178.8 50.3 178.8 50.5C178.7 50.8 178.7 51.1 178.7 51.5C178.7 51.8 178.6 52.1 178.6 52.5C178.6 52.8 178.6 53.2 178.6 53.5C178.6 53.8 178.6 54.1 178.6 54.5C178.6 54.8 178.7 55.2 178.7 55.5C178.7 55.8 178.8 56.1 178.8 56.5C178.9 56.8 178.9 57.1 179 57.4V57.5C179 57.5 179 57.5 178.9 57.6C177.4 58.4 175.9 59.3 174.4 60.2L174.5 60.3V60.4C174.4 60.6 174.3 60.7 174.3 60.9C174.3 61.1 174.2 61.3 174.3 61.5C174.3 61.7 174.4 61.9 174.5 62L177.6 67.4H177.7L177.8 67.5C178 67.6 178.1 67.7 178.3 67.7C178.5 67.7 178.7 67.8 178.9 67.7C179.1 67.7 179.3 67.6 179.4 67.5C180.8 66.8 182.1 65.9 183.5 65.1C183.5 65.1 183.5 65.1 183.6 65.1C183.6 65.1 183.6 65.1 183.7 65.1C184.2 65.5 184.7 66 185.2 66.4C185.7 66.8 186.3 67.1 186.8 67.5C187.4 67.8 187.9 68.1 188.5 68.4C189.1 68.7 189.7 68.9 190.3 69C190.3 69 190.3 69 190.4 69C190.4 69 190.4 69 190.4 69.1V73.8C190.4 74 190.4 74.2 190.5 74.3C190.6 74.5 190.7 74.6 190.8 74.8C190.9 74.9 191.1 75 191.3 75.1C191.5 75.2 191.7 75.2 191.8 75.2H197.6C197.8 75.2 198 75.2 198.1 75.1C198.3 75 198.4 74.9 198.6 74.8C198.7 74.7 198.8 74.5 198.9 74.3C199 74.1 199 73.9 199 73.8V69.1V69C199 69 199 69 199.1 69C199.7 68.8 200.3 68.6 200.9 68.4C201.5 68.1 202.1 67.9 202.6 67.5C203.2 67.2 203.7 66.8 204.2 66.4C204.7 66 205.2 65.6 205.7 65.1C205.7 65.1 205.7 65.1 205.8 65.1H205.9L210 67.4C210.2 67.5 210.3 67.6 210.5 67.6C210.7 67.6 210.9 67.6 211.1 67.6C211.3 67.6 211.5 67.5 211.6 67.4C211.7 67.3 211.9 67.2 212 67C213.1 65.3 214.1 63.4 215.1 61.6H215V61.5C215 61.3 215 61.1 215 60.9C215 60.7 214.9 60.5 214.8 60.4C214.7 60.3 214.5 60.1 214.4 60L210.3 57.7C210.3 57.7 210.3 57.7 210.3 57.6C210.3 57.6 210.3 57.6 210.3 57.5L210.4 57.1C210.4 56.9 210.5 56.8 210.5 56.6C210.6 56.3 210.6 56 210.6 55.6C210.6 55.3 210.7 55 210.7 54.6C210.7 54.3 210.7 53.9 210.7 53.6C210.7 53.3 210.7 53 210.7 52.6C210.7 52.3 210.7 51.9 210.6 51.6C210.6 51.3 210.5 51 210.5 50.6C210.4 50.3 210.4 50 210.3 49.7V49.6C210.3 49.6 210.3 49.6 210.4 49.5L214.5 47.2C214.7 47.1 214.8 47 214.9 46.8C215 46.6 215.1 46.5 215.1 46.3C215.1 46.1 215.2 45.9 215.1 45.7C215.1 45.5 215 45.3 214.9 45.2C213.9 43.4 212.8 41.6 211.8 39.8H211.7L211.6 39.7C211.4 39.6 211.3 39.5 211.1 39.5C210.9 39.5 210.7 39.4 210.5 39.5C210.3 39.5 210.1 39.6 210 39.7L209.7 39.9L205.9 42.1C205.9 42.1 205.9 42.1 205.8 42.1C205.8 42.1 205.8 42.1 205.7 42.1C205.2 41.7 204.7 41.2 204.2 40.8C203.7 40.4 203.1 40.1 202.6 39.7C202 39.4 201.5 39.1 200.9 38.8C200.3 38.5 199.7 38.3 199.1 38.2C199.1 38.2 199.1 38.2 199 38.2C199 38.2 199 38.2 199 38.1V33.4C199 33.2 199 33 198.9 32.9C198.8 32.7 198.7 32.6 198.6 32.4C198.5 32.3 198.3 32.2 198.1 32.1C197.9 32 197.7 32 197.6 32H191.8C191.6 32 191.4 32 191.3 32.1C191.1 32.2 191 32.3 190.8 32.4C190.5 32.7 190.4 33 190.4 33.4V38.1V38.2C190.4 38.2 190.4 38.2 190.3 38.2C189.5 38.2 188.9 38.4 188.4 38.7Z" fill="#839299"/>
<path fill-rule="evenodd" clip-rule="evenodd" d="M233.2 14.7002C230.1 14.7002 227.1 15.9002 224.9 18.1002C222.7 20.3002 221.5 23.3002 221.5 26.4002C221.5 29.5002 222.7 32.5002 224.9 34.7002C227.1 36.9002 230.1 38.1002 233.2 38.1002C236.3 38.1002 239.3 36.9002 241.5 34.7002C243.7 32.5002 244.9 29.5002 244.9 26.4002C244.9 23.3002 243.7 20.3002 241.5 18.1002C239.3 16.0002 236.3 14.7002 233.2 14.7002ZM222.7 27.1002H227.5C227.5 28.4002 227.7 29.7002 227.9 30.9002C226.7 31.2002 225.5 31.6002 224.4 32.2002C223.4 30.7002 222.8 28.9002 222.7 27.1002ZM228.7 27.1002H232.5V30.3002C231.4 30.3002 230.2 30.4002 229.1 30.6002C228.9 29.5002 228.8 28.3002 228.7 27.1002ZM233.8 27.1002H237.6C237.6 28.3002 237.5 29.5002 237.2 30.7002C236.1 30.5002 234.9 30.4002 233.8 30.4002V27.1002ZM238.8 27.1002H243.6C243.5 28.9002 242.9 30.7002 241.9 32.2002C240.8 31.6002 239.6 31.2002 238.4 30.9002C238.7 29.7002 238.8 28.4002 238.8 27.1002ZM243.6 25.8002H238.8C238.8 24.7002 238.7 23.6002 238.5 22.6002C239.8 22.3002 241.1 21.8002 242.2 21.2002C243.1 22.6002 243.5 24.2002 243.6 25.8002ZM237.3 22.9002C237.5 23.9002 237.5 24.9002 237.6 25.9002H233.8V23.3002C235 23.2002 236.2 23.1002 237.3 22.9002ZM229 22.9002C230.2 23.1002 231.3 23.2002 232.5 23.2002V25.8002H228.7C228.8 24.9002 228.8 23.9002 229 22.9002ZM227.5 25.8002H222.7C222.8 24.2002 223.3 22.6002 224.1 21.2002C225.2 21.9002 226.5 22.3002 227.8 22.6002C227.6 23.7002 227.5 24.8002 227.5 25.8002ZM232.5 16.1002V22.0002C231.4 22.0002 230.3 21.9002 229.2 21.7002C229.4 20.8002 229.7 19.8002 230.1 18.9002C230.6 17.9002 231.4 16.5002 232.5 16.1002ZM232.5 31.6002V36.9002C231.4 36.5002 230.6 35.1002 230.1 34.1002C229.8 33.4002 229.5 32.7002 229.3 31.9002C230.4 31.7002 231.5 31.6002 232.5 31.6002ZM233.8 36.8002V31.5002C234.9 31.5002 235.9 31.6002 236.9 31.8002C236.7 32.5002 236.5 33.3002 236.1 34.0002C235.7 35.1002 234.9 36.4002 233.8 36.8002ZM233.8 22.0002V16.1002C234.9 16.5002 235.7 17.9002 236.2 18.9002C236.6 19.8002 236.9 20.7002 237.1 21.7002C236 21.8002 234.9 21.9002 233.8 22.0002ZM241.5 20.2002C240.5 20.8002 239.4 21.2002 238.3 21.4002C238.1 20.4002 237.7 19.3002 237.3 18.4002C237 17.7002 236.6 17.1002 236.1 16.5002C237.8 17.0002 239.3 17.9002 240.5 19.1002C240.9 19.4002 241.2 19.8002 241.5 20.2002ZM228 21.4002C226.9 21.1002 225.8 20.7002 224.8 20.2002C225.1 19.8002 225.4 19.4002 225.8 19.1002C227 17.9002 228.6 17.0002 230.2 16.5002C229.7 17.1002 229.3 17.8002 229 18.4002C228.6 19.3002 228.3 20.4002 228 21.4002ZM225.1 33.2002C226 32.7002 227.1 32.4002 228.1 32.1002C228.3 32.9002 228.6 33.8002 229 34.6002C229.3 35.3002 229.7 35.9002 230.2 36.5002C228.5 36.0002 227 35.1002 225.8 33.9002C225.5 33.7002 225.3 33.4002 225.1 33.2002ZM238.2 32.1002C239.2 32.3002 240.3 32.7002 241.2 33.2002C241 33.4002 240.8 33.7002 240.6 33.9002C239.4 35.1002 237.8 36.0002 236.2 36.5002C236.7 35.9002 237.1 35.2002 237.4 34.6002C237.7 33.8002 237.9 33.0002 238.2 32.1002Z" fill="#0054A6"/>
<path fill-rule="evenodd" clip-rule="evenodd" d="M19.7999 88.3998H44.6999C45.5999 88.3998 46.2999 87.6998 46.2999 86.7998V55.8998L36.6999 45.7998H19.7999C18.8999 45.7998 18.1999 46.4998 18.1999 47.3998V86.6998C18.0999 87.5998 18.8999 88.3998 19.7999 88.3998Z" fill="#ED1C24"/>
<path opacity="0.19" fill-rule="evenodd" clip-rule="evenodd" d="M36.6992 45.7998V54.2998C36.6992 55.1998 37.3992 55.8998 38.2992 55.8998H46.2992L36.6992 45.7998Z" fill="#2D2F31"/>
<path fill-rule="evenodd" clip-rule="evenodd" d="M25.0996 60.7998H39.2996C40.0996 60.7998 40.7996 61.4998 40.7996 62.2998V80.3998C40.7996 81.1998 40.0996 81.8998 39.2996 81.8998H25.0996C24.2996 81.8998 23.5996 81.1998 23.5996 80.3998V62.2998C23.5996 61.4998 24.2996 60.7998 25.0996 60.7998Z" fill="#FFDD33"/>
<path fill-rule="evenodd" clip-rule="evenodd" d="M136.1 167.7H137.8H179.7H181.4L188.6 213.6H172.6H144.9H128.9L136.1 167.7Z" fill="#5F737C"/>
<path fill-rule="evenodd" clip-rule="evenodd" d="M122.601 213H195.001C198.801 213 201.901 216.1 201.901 219.9C201.901 221.1 200.901 222 199.801 222H117.901C116.701 222 115.801 221 115.801 219.9C115.701 216.1 118.801 213 122.601 213Z" fill="#839299"/>
<path fill-rule="evenodd" clip-rule="evenodd" d="M64.0004 60.7002H251.7C255.6 60.7002 258.8 63.9002 258.8 67.8002V179.9C258.8 183.8 255.6 187 251.7 187H64.0004C60.1004 187 56.9004 183.8 56.9004 179.9V67.8002C56.9004 63.9002 60.1004 60.7002 64.0004 60.7002Z" fill="#D2D9DC"/>
<path fill-rule="evenodd" clip-rule="evenodd" d="M258.7 176.4V190C258.7 193.9 255.5 197.1 251.6 197.1H64.0004C60.1004 197.1 56.9004 193.9 56.9004 190V176.4H258.7Z" fill="#839299"/>
<path d="M252.002 67.3999H63.6016V169.6H252.002V67.3999Z" fill="#0054A6"/>
<path d="M100.802 67.3999H63.6016V169.6H100.802V67.3999Z" fill="#002548"/>
<path fill-rule="evenodd" clip-rule="evenodd" d="M157.801 180.7C160.901 180.7 163.401 183.2 163.401 186.3C163.401 189.4 160.901 191.9 157.801 191.9C154.701 191.9 152.201 189.4 152.201 186.3C152.201 183.2 154.701 180.7 157.801 180.7Z" fill="#5F737C"/>
<path fill-rule="evenodd" clip-rule="evenodd" d="M141.9 91.3999H109.7C109.2 91.3999 108.9 91.8999 108.9 92.5999C108.9 93.1999 109.3 93.7999 109.7 93.7999H141.9C142.4 93.7999 142.7 93.2999 142.7 92.5999C142.7 91.8999 142.4 91.3999 141.9 91.3999Z" fill="#D2D9DC"/>
<path fill-rule="evenodd" clip-rule="evenodd" d="M141.9 101.3H109.7C109.2 101.3 108.9 101.8 108.9 102.5C108.9 103.1 109.3 103.7 109.7 103.7H141.9C142.4 103.7 142.7 103.2 142.7 102.5C142.7 101.8 142.4 101.3 141.9 101.3Z" fill="#D2D9DC"/>
<path fill-rule="evenodd" clip-rule="evenodd" d="M141.9 111.2H109.7C109.2 111.2 108.9 111.7 108.9 112.4C108.9 113 109.3 113.6 109.7 113.6H141.9C142.4 113.6 142.7 113.1 142.7 112.4C142.7 111.7 142.4 111.2 141.9 111.2Z" fill="#D2D9DC"/>
<path fill-rule="evenodd" clip-rule="evenodd" d="M141.9 121.1H109.7C109.2 121.1 108.9 121.6 108.9 122.3C108.9 122.9 109.3 123.5 109.7 123.5H141.9C142.4 123.5 142.7 123 142.7 122.3C142.7 121.7 142.4 121.1 141.9 121.1Z" fill="#D2D9DC"/>
<path fill-rule="evenodd" clip-rule="evenodd" d="M141.9 131.1H109.7C109.2 131.1 108.9 131.6 108.9 132.3C108.9 132.9 109.3 133.5 109.7 133.5H141.9C142.4 133.5 142.7 133 142.7 132.3C142.7 131.6 142.4 131.1 141.9 131.1Z" fill="#D2D9DC"/>
<path fill-rule="evenodd" clip-rule="evenodd" d="M141.9 141H109.7C109.2 141 108.9 141.5 108.9 142.2C108.9 142.8 109.3 143.4 109.7 143.4H141.9C142.4 143.4 142.7 142.9 142.7 142.2C142.7 141.5 142.4 141 141.9 141Z" fill="#D2D9DC"/>
<path fill-rule="evenodd" clip-rule="evenodd" d="M72.7016 95.8999H93.8015C94.4015 95.8999 94.9016 96.3999 94.9016 96.9999C94.9016 97.5999 94.4015 98.0999 93.8015 98.0999H72.7016C72.1016 98.0999 71.6016 97.5999 71.6016 96.9999C71.6016 96.3999 72.1016 95.8999 72.7016 95.8999Z" fill="#839299"/>
<path fill-rule="evenodd" clip-rule="evenodd" d="M72.7016 101H84.7016C85.3016 101 85.8015 101.5 85.8015 102.1C85.8015 102.7 85.3016 103.2 84.7016 103.2H72.7016C72.1016 103.2 71.6016 102.7 71.6016 102.1C71.6016 101.5 72.1016 101 72.7016 101Z" fill="#839299"/>
<path fill-rule="evenodd" clip-rule="evenodd" d="M72.7016 111.1H93.8015C94.4015 111.1 94.9016 111.6 94.9016 112.2C94.9016 112.8 94.4015 113.3 93.8015 113.3H72.7016C72.1016 113.3 71.6016 112.8 71.6016 112.2C71.6016 111.6 72.1016 111.1 72.7016 111.1Z" fill="#839299"/>
<path fill-rule="evenodd" clip-rule="evenodd" d="M72.7016 116.1H84.7016C85.3016 116.1 85.8015 116.6 85.8015 117.2C85.8015 117.8 85.3016 118.3 84.7016 118.3H72.7016C72.1016 118.3 71.6016 117.8 71.6016 117.2C71.6016 116.6 72.1016 116.1 72.7016 116.1Z" fill="#839299"/>
<path fill-rule="evenodd" clip-rule="evenodd" d="M88.7016 116.1H90.4016C91.0016 116.1 91.5016 116.6 91.5016 117.2C91.5016 117.8 91.0016 118.3 90.4016 118.3H88.7016C88.1016 118.3 87.6016 117.8 87.6016 117.2C87.6016 116.6 88.1016 116.1 88.7016 116.1Z" fill="#839299"/>
<path fill-rule="evenodd" clip-rule="evenodd" d="M72.7016 129.9H83.5016C84.1016 129.9 84.6016 129.4 84.6016 128.8C84.6016 128.2 84.1016 127.7 83.5016 127.7H72.7016C72.1016 127.7 71.6016 128.2 71.6016 128.8C71.6016 129.4 72.1016 129.9 72.7016 129.9Z" fill="#839299"/>
<path fill-rule="evenodd" clip-rule="evenodd" d="M72.7016 124.9H87.6016C88.2016 124.9 88.7016 124.4 88.7016 123.8C88.7016 123.2 88.2016 122.7 87.6016 122.7H72.7016C72.1016 122.7 71.6016 123.2 71.6016 123.8C71.6016 124.4 72.1016 124.9 72.7016 124.9Z" fill="#839299"/>
<path fill-rule="evenodd" clip-rule="evenodd" d="M92.0016 124.9H94.6016C95.2016 124.9 95.7016 124.4 95.7016 123.8C95.7016 123.2 95.2016 122.7 94.6016 122.7H92.0016C91.4016 122.7 90.9016 123.2 90.9016 123.8C90.8016 124.4 91.4016 124.9 92.0016 124.9Z" fill="#839299"/>
<path fill-rule="evenodd" clip-rule="evenodd" d="M72.7016 135.2H79.8015C80.4015 135.2 80.9016 134.7 80.9016 134.1C80.9016 133.5 80.4015 133 79.8015 133H72.7016C72.1016 133 71.6016 133.5 71.6016 134.1C71.6016 134.7 72.1016 135.2 72.7016 135.2Z" fill="#839299"/>
<path fill-rule="evenodd" clip-rule="evenodd" d="M72.7016 140.2H88.5016C89.1016 140.2 89.6016 139.7 89.6016 139.1C89.6016 138.5 89.1016 138 88.5016 138H72.7016C72.1016 138 71.6016 138.5 71.6016 139.1C71.6016 139.7 72.1016 140.2 72.7016 140.2Z" fill="#839299"/>
<path fill-rule="evenodd" clip-rule="evenodd" d="M83.3017 90.7001C88.4017 90.7001 92.6018 86.5001 92.6018 81.4001C92.6018 76.3001 88.4017 72.1001 83.3017 72.1001C78.2017 72.1001 74.0017 76.3001 74.0017 81.4001C73.9017 86.5001 78.1017 90.7001 83.3017 90.7001Z" fill="#0054A6"/>
<path fill-rule="evenodd" clip-rule="evenodd" d="M88.1 87.4998C86.8 88.4998 85.1 89.1998 83.3 89.1998C81.5 89.1998 79.8 88.5998 78.5 87.4998C78.6 84.8998 80.7 82.7998 83.3 82.7998C85.9 82.7998 88 84.8998 88.1 87.4998ZM83.3 74.7998C85.2 74.7998 86.8 76.3998 86.8 78.2998C86.8 80.1998 85.2 81.7998 83.3 81.7998C81.4 81.7998 79.8 80.2998 79.8 78.2998C79.8 76.2998 81.3 74.7998 83.3 74.7998Z" fill="#F9FAFB"/>
<path fill-rule="evenodd" clip-rule="evenodd" d="M236.202 151.8H113.302C110.502 151.8 108.102 154.1 108.102 157C108.102 159.8 110.402 162.2 113.302 162.2H236.202C239.002 162.2 241.402 159.9 241.402 157C241.402 154.1 239.102 151.8 236.202 151.8Z" fill="#002548"/>
<path fill-rule="evenodd" clip-rule="evenodd" d="M236.201 154.5H142.101C140.701 154.5 139.601 155.6 139.601 157C139.601 158.4 140.701 159.5 142.101 159.5H236.201C237.601 159.5 238.701 158.4 238.701 157C238.701 155.6 237.601 154.5 236.201 154.5ZM120.701 154.5C119.301 154.5 118.201 155.6 118.201 157V157.1C118.201 158.5 119.301 159.6 120.701 159.6C122.101 159.6 123.201 158.5 123.201 157.1V157C123.101 155.6 122.001 154.5 120.701 154.5ZM134.001 154.5H129.201C127.801 154.5 126.701 155.6 126.701 157C126.701 158.4 127.801 159.5 129.201 159.5H134.001C135.401 159.5 136.501 158.4 136.501 157C136.501 155.6 135.401 154.5 134.001 154.5Z" fill="#839299"/>
<path fill-rule="evenodd" clip-rule="evenodd" d="M174.801 100.6C176.101 100.6 177.201 101.7 177.201 103V109.2C177.201 110.5 176.101 111.6 174.801 111.6C173.501 111.6 172.401 110.5 172.401 109.2V103C172.301 101.7 173.401 100.6 174.801 100.6Z" fill="#5F737C"/>
<path fill-rule="evenodd" clip-rule="evenodd" d="M189.3 106.6C190.3 107.6 190.3 109.1 189.3 110.1L184.9 114.5C183.9 115.5 182.4 115.5 181.4 114.5C180.4 113.5 180.4 112 181.4 111L185.8 106.6C186.7 105.7 188.3 105.7 189.3 106.6Z" fill="#5F737C"/>
<path fill-rule="evenodd" clip-rule="evenodd" d="M195.201 121.1C195.201 122.4 194.101 123.5 192.801 123.5H186.601C185.301 123.5 184.201 122.4 184.201 121.1C184.201 119.8 185.301 118.7 186.601 118.7H192.801C194.101 118.7 195.201 119.8 195.201 121.1Z" fill="#5F737C"/>
<path fill-rule="evenodd" clip-rule="evenodd" d="M189.3 135.6C188.3 136.6 186.8 136.6 185.8 135.6L181.4 131.2C180.4 130.2 180.4 128.7 181.4 127.7C182.4 126.7 183.9 126.7 184.9 127.7L189.3 132.1C190.2 133.1 190.2 134.6 189.3 135.6Z" fill="#5F737C"/>
<path fill-rule="evenodd" clip-rule="evenodd" d="M174.801 130.5C176.101 130.5 177.201 131.6 177.201 132.9V139.1C177.201 140.4 176.101 141.5 174.801 141.5C173.501 141.5 172.401 140.4 172.401 139.1V133C172.301 131.6 173.401 130.5 174.801 130.5Z" fill="#5F737C"/>
<path fill-rule="evenodd" clip-rule="evenodd" d="M168.101 127.8C169.101 128.8 169.101 130.3 168.101 131.3L163.701 135.7C162.701 136.7 161.201 136.7 160.201 135.7C159.201 134.7 159.201 133.2 160.201 132.2L164.601 127.8C165.601 126.8 167.201 126.8 168.101 127.8Z" fill="#54CC5A"/>
<path fill-rule="evenodd" clip-rule="evenodd" d="M165.4 121.1C165.4 122.4 164.3 123.5 163 123.5H156.8C155.5 123.5 154.4 122.4 154.4 121.1C154.4 119.8 155.5 118.7 156.8 118.7H163C164.3 118.7 165.4 119.8 165.4 121.1Z" fill="#54CC5A"/>
<path fill-rule="evenodd" clip-rule="evenodd" d="M168.101 114.5C167.101 115.5 165.601 115.5 164.601 114.5L160.201 110.1C159.201 109.1 159.201 107.6 160.201 106.6C161.201 105.6 162.701 105.6 163.701 106.6L168.101 111C169.101 111.9 169.101 113.5 168.101 114.5Z" fill="#54CC5A"/>
<path fill-rule="evenodd" clip-rule="evenodd" d="M106.7 70.6001H214.5C215.7 70.6001 216.7 71.6001 216.7 72.8001V82.8001C216.7 84.0001 215.7 85.0001 214.5 85.0001H106.7C105.5 85.0001 104.5 84.0001 104.5 82.8001V72.8001C104.5 71.6001 105.5 70.6001 106.7 70.6001Z" fill="#54CC5A"/>
<path fill-rule="evenodd" clip-rule="evenodd" d="M192.9 79.7998C194 79.7998 194.9 78.8998 194.9 77.7998C194.9 76.6998 194 75.7998 192.9 75.7998C191.8 75.7998 190.9 76.6998 190.9 77.7998C190.9 78.8998 191.8 79.7998 192.9 79.7998Z" fill="#F9FAFB"/>
<path fill-rule="evenodd" clip-rule="evenodd" d="M201.201 79.7998C202.301 79.7998 203.201 78.8998 203.201 77.7998C203.201 76.6998 202.301 75.7998 201.201 75.7998C200.101 75.7998 199.201 76.6998 199.201 77.7998C199.201 78.8998 200.101 79.7998 201.201 79.7998Z" fill="#F9FAFB"/>
<path fill-rule="evenodd" clip-rule="evenodd" d="M209.5 79.7998C210.6 79.7998 211.5 78.8998 211.5 77.7998C211.5 76.6998 210.6 75.7998 209.5 75.7998C208.4 75.7998 207.5 76.6998 207.5 77.7998C207.5 78.8998 208.4 79.7998 209.5 79.7998Z" fill="#F9FAFB"/>
<path fill-rule="evenodd" clip-rule="evenodd" d="M216.401 91.3999H205.101C204.601 91.3999 204.301 91.8999 204.301 92.5999C204.301 93.1999 204.701 93.7999 205.101 93.7999H216.401C216.901 93.7999 217.201 93.2999 217.201 92.5999C217.301 91.8999 216.901 91.3999 216.401 91.3999Z" fill="#D2D9DC"/>
<path fill-rule="evenodd" clip-rule="evenodd" d="M217.1 101.3H205.2C204.7 101.3 204.4 101.8 204.4 102.5C204.4 103.1 204.8 103.7 205.2 103.7H217.1C217.6 103.7 217.9 103.2 217.9 102.5C217.9 101.8 217.5 101.3 217.1 101.3Z" fill="#D2D9DC"/>
<path fill-rule="evenodd" clip-rule="evenodd" d="M218 111.2H205.2C204.7 111.2 204.4 111.7 204.4 112.4C204.4 113 204.8 113.6 205.2 113.6H218C218.5 113.6 218.8 113.1 218.8 112.4C218.8 111.7 218.4 111.2 218 111.2Z" fill="#D2D9DC"/>
<path fill-rule="evenodd" clip-rule="evenodd" d="M237.4 121.1H205.2C204.7 121.1 204.4 121.6 204.4 122.3C204.4 122.9 204.8 123.5 205.2 123.5H237.4C237.9 123.5 238.2 123 238.2 122.3C238.3 121.7 237.9 121.1 237.4 121.1Z" fill="#D2D9DC"/>
<path fill-rule="evenodd" clip-rule="evenodd" d="M237.4 131.1H205.2C204.7 131.1 204.4 131.6 204.4 132.3C204.4 132.9 204.8 133.5 205.2 133.5H237.4C237.9 133.5 238.2 133 238.2 132.3C238.3 131.6 237.9 131.1 237.4 131.1Z" fill="#D2D9DC"/>
<path fill-rule="evenodd" clip-rule="evenodd" d="M237.4 141H205.2C204.7 141 204.4 141.5 204.4 142.2C204.4 142.8 204.8 143.4 205.2 143.4H237.4C237.9 143.4 238.2 142.9 238.2 142.2C238.3 141.5 237.9 141 237.4 141Z" fill="#D2D9DC"/>
<path fill-rule="evenodd" clip-rule="evenodd" d="M139.602 16C145.302 16 157.602 23.6 157.602 33.5C157.602 43.5 149.502 51.5 139.602 51.5H110.902H72.5016C68.4016 51.5 65.1016 48.1 65.1016 44.1C65.1016 40.1 68.1016 37 72.0016 36.7C72.0016 36.3 72.0016 39.9 72.0016 35.6C72.0016 29.6 75.9016 22.2 85.5016 22.1C84.1016 22.1 87.1016 22.1 85.5016 22.1C87.2016 9.6 99.0015 0 110.902 0C122.802 0 130.902 6.6 134.802 16C137.802 16 133.902 16 139.602 16Z" fill="#D2D9DC"/>
<path fill-rule="evenodd" clip-rule="evenodd" d="M98.502 51.5999C98.502 51.5999 99.6019 56.6999 104.302 56.6999C109.102 56.6999 110.302 56.6999 114.202 56.6999C118.102 56.6999 124.102 54.6999 124.102 47.8999C124.102 40.0999 124.102 38.6999 124.102 30.8999H106.802V51.5999H98.502Z" fill="#54CC5A"/>
<path fill-rule="evenodd" clip-rule="evenodd" d="M98.7012 36.2999L114.801 16.2999C115.001 16.0999 115.301 15.8999 115.601 15.8999C115.901 15.8999 116.201 15.9999 116.401 16.2999L132.501 36.2999C132.701 36.5999 132.801 36.9999 132.601 37.2999C132.401 37.6999 132.101 37.8999 131.701 37.8999H99.5012C99.1012 37.8999 98.8012 37.6999 98.6012 37.2999C98.4012 36.9999 98.5012 36.5999 98.7012 36.2999Z" fill="#54CC5A"/>
<path fill-rule="evenodd" clip-rule="evenodd" d="M273.1 147.7H306C308.4 147.7 310.3 149.7 310.3 152V169.9V171.2V182.6C310.3 182.8 310.2 183 310 183C309.8 183.1 309.6 183 309.5 182.9L302.1 175.5H273.1C270.7 175.5 268.8 173.5 268.8 171.2V152C268.7 149.6 270.7 147.7 273.1 147.7Z" fill="#0054A6"/>
<path fill-rule="evenodd" clip-rule="evenodd" d="M290.7 152.4L295.4 156.4C296.1 157 296.2 158.1 295.6 158.8C295 159.5 293.9 159.6 293.2 159L291.2 157.3V163.3C291.2 164.2 290.4 165 289.5 165C288.6 165 287.8 164.2 287.8 163.3V157.3L285.8 159C285.1 159.6 284 159.5 283.4 158.8C282.8 158.1 282.9 157 283.6 156.4L288.3 152.4C288.6 152.1 289 151.9 289.5 151.9C290 151.9 290.4 152.1 290.7 152.4Z" fill="#F9FAFB"/>
<path fill-rule="evenodd" clip-rule="evenodd" d="M291.201 168.3C291.201 167.4 290.401 166.6 289.501 166.6C288.601 166.6 287.801 167.4 287.801 168.3C287.801 169 287.801 168.7 287.801 169.4C287.801 170.3 288.601 171.1 289.501 171.1C290.401 171.1 291.201 170.3 291.201 169.4C291.201 168.7 291.201 169 291.201 168.3Z" fill="#F9FAFB"/>
<path fill-rule="evenodd" clip-rule="evenodd" d="M91.8008 221H4.50078C2.50078 221 0.800781 219.4 0.800781 217.3V165.8L22.4008 143.1H91.8008C93.8008 143.1 95.5008 144.7 95.5008 146.8V217.4C95.5008 219.3 93.8008 221 91.8008 221Z" fill="#0054A6"/>
<path fill-rule="evenodd" clip-rule="evenodd" d="M89.8015 215.3V148.8H22.4016L6.60156 165.8V215.3H89.8015Z" fill="#F9FAFB"/>
<path fill-rule="evenodd" clip-rule="evenodd" d="M22.4008 143.1V162.2C22.4008 164.2 20.8008 165.9 18.7008 165.9H0.800781L22.4008 143.1Z" fill="#002548"/>
<path fill-rule="evenodd" clip-rule="evenodd" d="M6.60156 215.3V192.2C17.9016 197.3 30.0016 201.7 42.7016 192.4C58.5016 180.8 74.6015 172.5 89.8015 180.9V215.3H6.60156Z" fill="#54CC5A"/>
<path opacity="0.19" fill-rule="evenodd" clip-rule="evenodd" d="M6.60156 215.3V192.2C17.9016 197.3 30.0016 201.7 42.7016 192.4C58.5016 180.8 74.6015 172.5 89.8015 180.9V215.3H6.60156Z" fill="#2D2F31"/>
<path fill-rule="evenodd" clip-rule="evenodd" d="M89.8015 215.3V192.2C78.5015 197.3 66.4016 201.7 53.7016 192.4C37.9016 180.8 21.8016 172.5 6.60156 180.9V215.3H89.8015Z" fill="#54CC5A"/>
<path fill-rule="evenodd" clip-rule="evenodd" d="M72.8015 169.6C77.3015 169.6 81.0016 165.9 81.0016 161.4C81.0016 156.9 77.3015 153.2 72.8015 153.2C68.3015 153.2 64.6016 156.9 64.6016 161.4C64.6016 165.9 68.3015 169.6 72.8015 169.6Z" fill="#FFDD33"/>
<path fill-rule="evenodd" clip-rule="evenodd" d="M52.8 159.6C54.9 159.6 59.4 162.4 59.4 166C59.4 169.7 56.4 172.6 52.8 172.6H38.8H24.7C23.2 172.6 22 171.3 22 169.9C22 168.5 23.1 167.3 24.5 167.2C24.5 167.1 24.5 168.4 24.5 166.8C24.5 164.6 25.9 161.9 29.4 161.9C28.9 161.9 30 161.9 29.4 161.9C30.1 157.3 34.4 153.8 38.7 153.8C43.1 153.8 46 156.2 47.4 159.7C48.7 159.6 50.7 159.6 52.8 159.6Z" fill="#D2D9DC"/>
<path fill-rule="evenodd" clip-rule="evenodd" d="M242.501 47.7998L305.601 47.8998C308.601 47.8998 311.101 50.3998 311.101 53.3998V79.4998C311.101 82.4998 308.601 84.9998 305.601 84.9998H261.801L260.501 86.9998C259.201 88.9998 256.601 90.5998 254.601 90.5998H253.601H247.701H241.801C239.101 90.5998 236.901 88.3998 237.001 85.6998V79.3998V58.2998V53.2998C237.001 50.2998 239.501 47.7998 242.501 47.7998Z" fill="#FFBD86"/>
<path fill-rule="evenodd" clip-rule="evenodd" d="M300.5 51.0996H247.6C245 51.0996 242.9 53.1996 242.9 55.7996V87.1996C242.9 89.7996 245 91.8996 247.6 91.8996H272.1L273.2 93.5996C274.3 95.2996 276.5 96.6996 278.2 96.6996H286.1H296.1H301.1C303.4 96.6996 305.2 94.8996 305.2 92.5996V87.2996V60.0996V55.8996C305.2 53.1996 303.1 51.0996 300.5 51.0996Z" fill="#D2D9DC"/>
<path fill-rule="evenodd" clip-rule="evenodd" d="M305.602 99.1999L242.502 99.0999C239.502 99.0999 237.002 96.5999 237.002 93.5999V64.9999C237.002 61.9999 239.502 59.4999 242.502 59.4999H272.902L274.202 57.4999C275.502 55.4999 278.102 53.8999 280.102 53.8999H294.402H300.302H306.202C308.902 53.8999 311.102 56.0999 311.002 58.7999V65.0999V88.7999V93.7999C311.102 96.6999 308.602 99.1999 305.602 99.1999Z" fill="#FED2A4"/>
<path fill-rule="evenodd" clip-rule="evenodd" d="M272.101 73.1998L268.401 76.3998C267.801 76.8998 267.801 77.6998 268.201 78.2998C268.701 78.8998 269.501 78.8998 270.101 78.4998L271.701 77.1998V85.2998C271.701 86.0998 272.301 86.6998 273.101 86.6998C273.801 86.6998 274.501 86.0998 274.501 85.2998V77.1998L276.101 78.4998C276.701 78.9998 277.501 78.8998 278.001 78.3998C278.501 77.7998 278.401 76.9998 277.901 76.4998L274.201 73.2998C274.001 73.0998 273.601 72.8998 273.201 72.8998C272.701 72.7998 272.401 72.8998 272.101 73.1998Z" fill="#54CC5A"/>
</svg>
