<svg width="420" height="328" viewBox="0 0 420 328" fill="none" xmlns="http://www.w3.org/2000/svg">
<path d="M243.162 179.408C243.162 179.713 242.877 179.989 242.3 180.116H240.834C240.258 179.989 239.973 179.713 239.973 179.401C239.973 179.088 240.258 178.82 240.834 178.686H242.3C242.877 178.82 243.162 179.088 243.162 179.408Z" fill="#839299"/>
<path d="M256.583 179.408C256.583 179.713 255.983 179.989 254.769 180.116H251.684C250.471 179.989 249.871 179.713 249.871 179.401C249.871 179.088 250.471 178.82 251.684 178.686H254.769C255.983 178.82 256.583 179.088 256.583 179.408Z" fill="#839299"/>
<path d="M270.001 179.408C270.001 179.713 269.401 179.989 268.187 180.116H265.102C263.889 179.989 263.289 179.713 263.289 179.401C263.289 179.088 263.889 178.82 265.102 178.686H268.187C269.401 178.82 270.001 179.088 270.001 179.408Z" fill="#839299"/>
<path d="M283.427 179.408C283.427 179.713 282.827 179.989 281.613 180.116H278.528C277.315 179.989 276.715 179.713 276.715 179.401C276.715 179.088 277.315 178.82 278.528 178.686H281.613C282.827 178.82 283.427 179.088 283.427 179.408Z" fill="#839299"/>
<path d="M296.853 179.408C296.853 179.713 296.252 179.989 295.039 180.116H291.954C290.741 179.989 290.141 179.713 290.141 179.401C290.141 179.088 290.741 178.82 291.954 178.686H295.039C296.252 178.82 296.853 179.088 296.853 179.408Z" fill="#839299"/>
<path d="M306.751 176.211C307.057 176.211 307.332 176.782 307.459 177.935V180.115H305.277C304.125 179.989 303.555 179.713 303.555 179.401C303.555 179.088 304.125 178.82 305.277 178.686H306.029V177.935C306.163 176.782 306.431 176.211 306.751 176.211Z" fill="#839299"/>
<path d="M306.765 162.954C307.071 162.954 307.346 163.547 307.473 164.746V167.792C307.346 168.99 307.071 169.583 306.758 169.583C306.445 169.583 306.177 168.99 306.043 167.792V164.746C306.177 163.547 306.445 162.954 306.765 162.954Z" fill="#839299"/>
<path d="M306.765 149.697C307.071 149.697 307.346 150.289 307.473 151.488V154.535C307.346 155.732 307.071 156.325 306.758 156.325C306.445 156.325 306.177 155.732 306.043 154.535V151.488C306.177 150.289 306.445 149.697 306.765 149.697Z" fill="#839299"/>
<path d="M306.765 136.438C307.071 136.438 307.346 137.031 307.473 138.23V141.277C307.346 142.474 307.071 143.067 306.758 143.067C306.445 143.067 306.177 142.474 306.043 141.277V138.23C306.177 137.031 306.445 136.438 306.765 136.438Z" fill="#839299"/>
<path d="M306.765 123.181C307.071 123.181 307.346 123.774 307.473 124.973V128.02C307.346 129.217 307.071 129.81 306.758 129.81C306.445 129.81 306.177 129.217 306.043 128.02V124.973C306.177 123.774 306.445 123.181 306.765 123.181Z" fill="#839299"/>
<path d="M303.555 113.356C303.555 113.051 304.125 112.775 305.279 112.648H307.459V114.83C307.332 115.982 307.057 116.553 306.744 116.553C306.431 116.553 306.163 115.982 306.029 114.83V114.078H305.279C304.125 113.944 303.555 113.676 303.555 113.356Z" fill="#839299"/>
<path d="M292.055 113.356C292.055 113.051 292.569 112.775 293.61 112.648H296.255C297.295 112.775 297.81 113.051 297.81 113.363C297.81 113.676 297.295 113.944 296.255 114.078H293.61C292.569 113.944 292.055 113.676 292.055 113.356Z" fill="#839299"/>
<path d="M283.121 110.175C283.426 110.175 283.702 110.745 283.828 111.898V112.649H284.58C285.732 112.775 286.302 113.051 286.302 113.364C286.302 113.676 285.732 113.944 284.58 114.079H282.398V111.898C282.533 110.745 282.801 110.175 283.121 110.175Z" fill="#839299"/>
<path d="M283.121 98.7061C283.426 98.7061 283.702 99.2189 283.828 100.256V102.891C283.702 103.927 283.426 104.44 283.113 104.44C282.801 104.44 282.533 103.927 282.398 102.891V100.256C282.533 99.2189 282.801 98.7061 283.121 98.7061Z" fill="#839299"/>
<path d="M283.121 87.2383C283.426 87.2383 283.702 87.7512 283.828 88.7882V91.4235C283.702 92.4595 283.426 92.9724 283.113 92.9724C282.801 92.9724 282.533 92.4596 282.398 91.4235V88.7882C282.533 87.7512 282.801 87.2383 283.121 87.2383Z" fill="#839299"/>
<path d="M283.121 75.77C283.426 75.77 283.702 76.2828 283.828 77.3198V79.9553C283.702 80.9912 283.426 81.5042 283.113 81.5042C282.801 81.5042 282.533 80.9913 282.398 79.9553V77.3198C282.533 76.2829 282.801 75.77 283.121 75.77Z" fill="#839299"/>
<path d="M283.121 64.3018C283.426 64.3018 283.702 64.8146 283.828 65.8516V68.487C283.702 69.523 283.426 70.0358 283.113 70.0358C282.801 70.0358 282.533 69.523 282.398 68.487V65.8516C282.533 64.8146 282.801 64.3018 283.121 64.3018Z" fill="#839299"/>
<path d="M279.914 55.3712C279.914 55.066 280.485 54.7903 281.638 54.6638H283.818V56.845C283.692 57.9974 283.416 58.5678 283.103 58.5678C282.79 58.5678 282.522 57.9974 282.388 56.845V56.0937H281.638C280.484 55.9596 279.914 55.6915 279.914 55.3712Z" fill="#839299"/>
<path d="M267.438 55.3712C267.438 55.066 267.996 54.7903 269.125 54.6638H271.993C273.121 54.7903 273.68 55.066 273.68 55.3787C273.68 55.6915 273.121 55.9596 271.993 56.0937H269.125C267.996 55.9596 267.438 55.6915 267.438 55.3712Z" fill="#839299"/>
<path d="M254.965 55.371C254.965 55.0658 255.523 54.7901 256.652 54.6636H259.521C260.649 54.7901 261.207 55.0658 261.207 55.3785C261.207 55.6912 260.649 55.9594 259.521 56.0935H256.652C255.523 55.9594 254.965 55.6912 254.965 55.371Z" fill="#839299"/>
<path d="M242.469 55.371C242.469 55.0658 243.027 54.7901 244.156 54.6636H247.025C248.153 54.7901 248.711 55.0658 248.711 55.3785C248.711 55.6912 248.153 55.9594 247.025 56.0935H244.156C243.027 55.9594 242.469 55.6912 242.469 55.371Z" fill="#839299"/>
<path d="M229.98 55.3712C229.98 55.066 230.539 54.7903 231.668 54.6638H234.536C235.664 54.7903 236.222 55.066 236.222 55.3787C236.222 55.6915 235.664 55.9596 234.536 56.0937H231.668C230.539 55.9596 229.98 55.6915 229.98 55.3712Z" fill="#839299"/>
<path d="M217.496 55.371C217.496 55.0658 218.054 54.7901 219.183 54.6636H222.052C223.18 54.7901 223.738 55.0658 223.738 55.3785C223.738 55.6912 223.18 55.9594 222.052 56.0935H219.183C218.054 55.9594 217.496 55.6912 217.496 55.371Z" fill="#839299"/>
<path d="M205.012 55.371C205.012 55.0658 205.57 54.7901 206.699 54.6636H209.568C210.695 54.7901 211.254 55.0658 211.254 55.3785C211.254 55.6912 210.695 55.9594 209.568 56.0935H206.699C205.57 55.9594 205.012 55.6912 205.012 55.371Z" fill="#839299"/>
<path d="M192.535 55.371C192.535 55.0658 193.093 54.7901 194.222 54.6636H197.091C198.219 54.7901 198.777 55.0658 198.777 55.3785C198.777 55.6912 198.219 55.9594 197.091 56.0935H194.222C193.093 55.9594 192.535 55.6912 192.535 55.371Z" fill="#839299"/>
<path d="M180.039 55.371C180.039 55.0658 180.597 54.7901 181.726 54.6636H184.595C185.723 54.7901 186.281 55.0658 186.281 55.3785C186.281 55.6912 185.723 55.9594 184.595 56.0935H181.726C180.597 55.9594 180.039 55.6912 180.039 55.371Z" fill="#839299"/>
<path d="M167.57 55.3712C167.57 55.066 168.129 54.7903 169.257 54.6638H172.126C173.254 54.7903 173.812 55.066 173.812 55.3787C173.812 55.6915 173.254 55.9596 172.126 56.0937H169.257C168.129 55.9596 167.57 55.6915 167.57 55.3712Z" fill="#839299"/>
<path d="M155.082 55.371C155.082 55.0658 155.64 54.7901 156.769 54.6636H159.638C160.766 54.7901 161.324 55.0658 161.324 55.3785C161.324 55.6912 160.766 55.9594 159.638 56.0935H156.769C155.64 55.9594 155.082 55.6912 155.082 55.371Z" fill="#839299"/>
<path d="M142.598 55.3712C142.598 55.066 143.156 54.7903 144.285 54.6638H147.154C148.281 54.7903 148.84 55.066 148.84 55.3787C148.84 55.6915 148.281 55.9596 147.154 56.0937H144.285C143.156 55.9596 142.598 55.6915 142.598 55.3712Z" fill="#839299"/>
<path d="M130.109 55.371C130.109 55.0658 130.668 54.7901 131.796 54.6636H134.665C135.793 54.7901 136.351 55.0658 136.351 55.3785C136.351 55.6912 135.793 55.9594 134.665 56.0935H131.796C130.668 55.9594 130.109 55.6912 130.109 55.371Z" fill="#839299"/>
<path d="M117.625 55.371C117.625 55.0658 118.183 54.7901 119.312 54.6636H122.181C123.309 54.7901 123.867 55.0658 123.867 55.3785C123.867 55.6912 123.309 55.9594 122.181 56.0935H119.312C118.183 55.9594 117.625 55.6912 117.625 55.371Z" fill="#839299"/>
<path d="M105.148 55.3712C105.148 55.066 105.707 54.7903 106.836 54.6638H109.704C110.832 54.7903 111.39 55.066 111.39 55.3787C111.39 55.6915 110.832 55.9596 109.704 56.0937H106.836C105.707 55.9596 105.148 55.6915 105.148 55.3712Z" fill="#839299"/>
<path d="M95.7074 58.5676C95.4022 58.5676 95.1266 57.9972 95 56.8437V54.6636H97.1813C98.3337 54.7901 98.9041 55.0658 98.9041 55.3785C98.9041 55.6912 98.3336 55.9594 97.1813 56.0935H96.43V56.8436C96.2958 57.9972 96.0277 58.5676 95.7074 58.5676Z" fill="#839299"/>
<path d="M95.7074 72.4256C95.4022 72.4256 95.1266 71.8059 95 70.5528V67.3683C95.1266 66.1165 95.4023 65.4968 95.715 65.4968C96.0277 65.4968 96.2958 66.1165 96.43 67.3683V70.5528C96.2958 71.8059 96.0277 72.4256 95.7074 72.4256Z" fill="#839299"/>
<path d="M95.7074 82.5435C95.4022 82.5435 95.1266 82.2583 95 81.6816V80.2159C95.1266 79.6397 95.4023 79.3545 95.715 79.3545C96.0277 79.3545 96.2958 79.6397 96.43 80.2159V81.6816C96.2958 82.2583 96.0277 82.5435 95.7074 82.5435Z" fill="#839299"/>
<path d="M280.997 227.805V281.22H210.922V227.805C210.922 225.799 212.544 224.171 214.549 224.171H277.37C277.511 224.171 277.651 224.178 277.785 224.197C279.592 224.401 280.997 225.94 280.997 227.805Z" fill="#FFCF3D"/>
<path d="M281.001 227.805V281.22H213.965C224.086 278.065 233.837 273.876 242.808 268.232C259.034 258.021 272.546 242.549 277.789 224.197C279.596 224.401 281.001 225.94 281.001 227.805Z" fill="#FFDD33"/>
<path d="M322.612 265.933V281.221H280.996V238.794H297.149L313.982 257.303C318.235 257.303 321.772 260.38 322.481 264.433C322.567 264.92 322.612 265.42 322.612 265.933Z" fill="#0054A6"/>
<path d="M314.871 280.319C314.871 280.622 314.859 280.922 314.83 281.221H294.424C294.395 280.921 294.383 280.622 294.383 280.319C294.383 274.66 298.968 270.075 304.627 270.075C310.286 270.075 314.871 274.66 314.871 280.319Z" fill="#2E363A"/>
<path d="M247.055 280.319C247.055 280.622 247.042 280.922 247.014 281.221H226.607C226.579 280.921 226.566 280.622 226.566 280.319C226.566 274.66 231.152 270.075 236.81 270.075C242.469 270.075 247.055 274.66 247.055 280.319Z" fill="#2E363A"/>
<path d="M283.449 255.43V241.604C283.449 241.411 283.606 241.255 283.798 241.255H295.863C295.968 241.255 296.067 241.302 296.133 241.383L307.426 255.209C307.612 255.437 307.45 255.779 307.155 255.779H283.798C283.606 255.779 283.449 255.622 283.449 255.43Z" fill="white"/>
<path d="M324.001 276.802V279.924C324.001 280.866 323.238 281.628 322.296 281.628H317.403C317.157 281.628 316.957 281.431 316.957 281.185V275.541C316.957 275.295 317.157 275.098 317.403 275.098H322.296C323.238 275.098 324.001 275.86 324.001 276.802Z" fill="#2E363A"/>
<path d="M322.615 265.933V270.722C322.545 270.729 322.475 270.729 322.398 270.729C320.661 270.729 319.25 269.317 319.25 267.58C319.25 265.837 320.661 264.426 322.398 264.426C322.43 264.426 322.456 264.426 322.488 264.432C322.551 264.796 322.59 265.167 322.609 265.543C322.615 265.671 322.615 265.805 322.615 265.933Z" fill="#FFCF3D"/>
<path d="M322.614 265.933V269.617C321.573 269.528 320.762 268.647 320.762 267.58C320.762 266.514 321.573 265.639 322.607 265.543C322.614 265.671 322.614 265.805 322.614 265.933Z" fill="#FFDD33"/>
<path d="M304.621 289.258C309.557 289.258 313.558 285.257 313.558 280.321C313.558 275.385 309.557 271.383 304.621 271.383C299.685 271.383 295.684 275.385 295.684 280.321C295.684 285.257 299.685 289.258 304.621 289.258Z" fill="#4A5258"/>
<path d="M308.959 284.66C311.355 282.263 311.355 278.378 308.959 275.982C306.562 273.585 302.677 273.585 300.28 275.982C297.884 278.378 297.884 282.263 300.28 284.66C302.677 287.056 306.562 287.056 308.959 284.66Z" fill="white"/>
<path d="M304.621 283.559C306.409 283.559 307.859 282.109 307.859 280.321C307.859 278.532 306.409 277.083 304.621 277.083C302.832 277.083 301.383 278.532 301.383 280.321C301.383 282.109 302.832 283.559 304.621 283.559Z" fill="#4A5258"/>
<path d="M218.435 282.115H210.909C208.966 282.115 207.391 280.539 207.391 278.596C207.391 276.653 208.966 275.078 210.909 275.078H218.435C219.479 275.078 220.326 275.924 220.326 276.969V280.224C220.326 281.268 219.479 282.115 218.435 282.115Z" fill="#4A5258"/>
<path d="M236.797 289.258C241.733 289.258 245.734 285.257 245.734 280.321C245.734 275.385 241.733 271.383 236.797 271.383C231.861 271.383 227.859 275.385 227.859 280.321C227.859 285.257 231.861 289.258 236.797 289.258Z" fill="#4A5258"/>
<path d="M241.138 284.659C243.535 282.263 243.535 278.378 241.138 275.981C238.742 273.585 234.857 273.585 232.46 275.981C230.064 278.378 230.064 282.263 232.46 284.659C234.857 287.056 238.742 287.056 241.138 284.659Z" fill="white"/>
<path d="M236.8 283.559C238.589 283.559 240.038 282.109 240.038 280.321C240.038 278.532 238.589 277.083 236.8 277.083C235.012 277.083 233.562 278.532 233.562 280.321C233.562 282.109 235.012 283.559 236.8 283.559Z" fill="#4A5258"/>
<path d="M248.837 83.3098V274.435C248.837 282.452 242.324 288.965 234.293 288.965H134.333C126.302 288.965 119.789 282.452 119.789 274.435V83.2962C119.789 75.8622 125.816 69.8357 133.25 69.8357H235.363C242.804 69.8357 248.837 75.8683 248.837 83.3098Z" fill="#3A4146"/>
<path d="M245.462 91.8227V271.598C245.462 276.874 241.182 281.154 235.906 281.154H132.693C127.416 281.154 123.137 276.874 123.137 271.598V91.8227C123.137 86.546 127.416 82.2666 132.693 82.2666H235.906C241.182 82.2666 245.462 86.546 245.462 91.8227Z" fill="white"/>
<path d="M172.095 78.3074C172.962 77.4407 172.962 76.0354 172.095 75.1686C171.228 74.3019 169.823 74.3019 168.956 75.1686C168.089 76.0354 168.089 77.4407 168.956 78.3074C169.823 79.1742 171.228 79.1742 172.095 78.3074Z" fill="white"/>
<path d="M201.127 76.7379C201.127 77.5864 200.428 78.2859 199.579 78.2859H177.938C177.075 78.2859 176.391 77.5864 176.391 76.7379C176.391 75.8746 177.075 75.1899 177.938 75.1899H199.579C200.428 75.1899 201.127 75.8746 201.127 76.7379Z" fill="white"/>
<path d="M240.768 190.396V232.726C240.768 234.342 239.463 235.646 237.848 235.646H130.742C129.137 235.646 127.832 234.342 127.832 232.726V190.396C127.832 188.78 129.137 187.476 130.742 187.476H237.848C239.464 187.476 240.768 188.78 240.768 190.396Z" fill="#F3F6FD"/>
<path d="M175.848 196.794V201.317C175.848 201.905 175.367 202.386 174.779 202.386H134.44C133.853 202.386 133.371 201.905 133.371 201.317V196.794C133.371 196.202 133.853 195.725 134.44 195.725H174.779C175.367 195.725 175.848 196.202 175.848 196.794Z" fill="#0054A6"/>
<path d="M173.238 202.386V225.396C173.238 226.501 172.342 227.398 171.237 227.398H137.966C136.862 227.398 135.965 226.501 135.965 225.396V202.386H173.238Z" fill="#0054A6"/>
<path d="M173.238 202.386H135.965V204.215H173.238V202.386Z" fill="#FFDD33"/>
<path d="M159.72 207.281V208.27C159.72 208.597 159.455 208.862 159.128 208.862H150.072C149.746 208.862 149.48 208.597 149.48 208.27V207.281C149.48 206.954 149.745 206.689 150.072 206.689H159.128C159.455 206.689 159.72 206.954 159.72 207.281Z" fill="#FFDD33"/>
<path d="M147.064 219.362V223.342C147.064 223.656 146.808 223.912 146.494 223.912H138.976C138.662 223.912 138.41 223.656 138.41 223.342V219.362C138.41 219.048 138.662 218.792 138.976 218.792H146.494C146.808 218.792 147.064 219.048 147.064 219.362Z" fill="white"/>
<path d="M169.567 220.994H168.273V223.462C168.273 223.573 168.183 223.662 168.073 223.662H167.237C167.126 223.662 167.036 223.573 167.036 223.462V220.994H165.743C165.614 220.994 165.549 220.838 165.64 220.747L167.553 218.834C167.609 218.778 167.7 218.778 167.756 218.834L169.67 220.748C169.761 220.839 169.696 220.994 169.567 220.994Z" fill="#4A5258"/>
<path d="M165.001 220.994H163.707V223.462C163.707 223.573 163.617 223.662 163.506 223.662H162.67C162.56 223.662 162.47 223.573 162.47 223.462V220.994H161.176C161.047 220.994 160.983 220.838 161.074 220.747L162.987 218.834C163.043 218.778 163.134 218.778 163.19 218.834L165.103 220.748C165.194 220.839 165.13 220.994 165.001 220.994Z" fill="#4A5258"/>
<path d="M216.812 199.294H179.809V208.368H216.812V199.294Z" fill="#839299"/>
<path d="M234.639 214.207H180.985C180.605 214.207 180.297 213.898 180.297 213.518C180.297 213.138 180.605 212.829 180.985 212.829H234.639C235.019 212.829 235.327 213.138 235.327 213.518C235.327 213.898 235.019 214.207 234.639 214.207Z" fill="#839299"/>
<path d="M234.639 219.017H180.985C180.605 219.017 180.297 218.709 180.297 218.329C180.297 217.948 180.605 217.64 180.985 217.64H234.639C235.019 217.64 235.327 217.948 235.327 218.329C235.327 218.709 235.019 219.017 234.639 219.017Z" fill="#839299"/>
<path d="M217.402 223.828H180.985C180.605 223.828 180.297 223.52 180.297 223.14C180.297 222.759 180.605 222.451 180.985 222.451H217.402C217.782 222.451 218.09 222.759 218.09 223.14C218.09 223.52 217.782 223.828 217.402 223.828Z" fill="#839299"/>
<path d="M238.501 96.8128V177.775C238.501 179.948 236.739 181.71 234.566 181.71H134.033C131.859 181.71 130.098 179.948 130.098 177.775V96.8128C130.098 94.6396 131.859 92.8777 134.033 92.8777H234.566C236.739 92.8777 238.501 94.6396 238.501 96.8128Z" fill="#F3F6FD"/>
<path d="M194.04 159.02H175.465V174.778H194.04V159.02Z" fill="#839299"/>
<path d="M194.032 137.575H155.77V154.394H194.032V137.575Z" fill="#839299"/>
<path d="M155.77 132.951H173.083V99.7594L162.238 99.749V120.474H155.77V132.951Z" fill="#839299"/>
<path d="M194.035 120.983H177.711V132.951H194.035V120.983Z" fill="#839299"/>
<path d="M198.66 132.951H226.146L226.177 99.8109L198.66 99.7844V132.951Z" fill="#839299"/>
<path d="M198.66 137.575V174.778H226.108L226.142 137.575H198.66Z" fill="#839299"/>
<path d="M170.84 159.02H142.46L142.445 174.778H170.84V159.02Z" fill="#839299"/>
<path d="M151.141 154.395V135.263V132.951V118.256H151.143V99.7391H151.792L142.504 99.7302L142.453 154.395H151.141Z" fill="#839299"/>
<path d="M177.711 99.7642V116.358H194.035V99.78L177.711 99.7642Z" fill="#839299"/>
<path d="M153.461 120.383C153.167 120.383 152.93 120.145 152.93 119.851V118.257C152.93 117.963 153.167 117.725 153.461 117.725C153.755 117.725 153.993 117.963 153.993 118.257V119.851C153.993 120.145 153.755 120.383 153.461 120.383Z" fill="#4A5258"/>
<path d="M153.461 131.436C153.167 131.436 152.93 131.199 152.93 130.905V128.141C152.93 127.848 153.167 127.61 153.461 127.61C153.755 127.61 153.993 127.848 153.993 128.141V130.905C153.993 131.199 153.755 131.436 153.461 131.436ZM153.461 125.91C153.167 125.91 152.93 125.672 152.93 125.378V122.615C152.93 122.321 153.167 122.083 153.461 122.083C153.755 122.083 153.993 122.321 153.993 122.615V125.378C153.993 125.672 153.755 125.91 153.461 125.91Z" fill="#4A5258"/>
<path d="M155.056 135.794H153.461C153.167 135.794 152.93 135.557 152.93 135.263V133.668C152.93 133.374 153.167 133.137 153.461 133.137C153.755 133.137 153.993 133.374 153.993 133.668V134.731H155.056C155.35 134.731 155.587 134.969 155.587 135.263C155.587 135.556 155.349 135.794 155.056 135.794Z" fill="#4A5258"/>
<path d="M191.701 135.795H188.648C188.354 135.795 188.116 135.557 188.116 135.263C188.116 134.969 188.354 134.732 188.648 134.732H191.701C191.995 134.732 192.232 134.969 192.232 135.263C192.232 135.557 191.994 135.795 191.701 135.795ZM185.593 135.795H182.539C182.246 135.795 182.008 135.557 182.008 135.263C182.008 134.969 182.246 134.732 182.539 134.732H185.593C185.887 134.732 186.125 134.969 186.125 135.263C186.125 135.557 185.887 135.795 185.593 135.795ZM179.486 135.795H176.432C176.138 135.795 175.901 135.557 175.901 135.263C175.901 134.969 176.138 134.732 176.432 134.732H179.486C179.78 134.732 180.018 134.969 180.018 135.263C180.018 135.557 179.78 135.795 179.486 135.795ZM173.378 135.795H170.325C170.031 135.795 169.794 135.557 169.794 135.263C169.794 134.969 170.031 134.732 170.325 134.732H173.378C173.672 134.732 173.91 134.969 173.91 135.263C173.91 135.557 173.672 135.795 173.378 135.795ZM167.271 135.795H164.217C163.923 135.795 163.685 135.557 163.685 135.263C163.685 134.969 163.923 134.732 164.217 134.732H167.271C167.565 134.732 167.802 134.969 167.802 135.263C167.802 135.557 167.565 135.795 167.271 135.795ZM161.164 135.795H158.11C157.816 135.795 157.578 135.557 157.578 135.263C157.578 134.969 157.816 134.732 158.11 134.732H161.164C161.458 134.732 161.695 134.969 161.695 135.263C161.695 135.557 161.458 135.795 161.164 135.795Z" fill="#4A5258"/>
<path d="M196.349 137.385C196.055 137.385 195.817 137.148 195.817 136.854V135.794H194.754C194.46 135.794 194.223 135.557 194.223 135.263C194.223 134.969 194.46 134.731 194.754 134.731H196.349C196.642 134.731 196.88 134.969 196.88 135.263V136.854C196.88 137.148 196.643 137.385 196.349 137.385Z" fill="#4A5258"/>
<path d="M196.348 170.441C196.054 170.441 195.816 170.203 195.816 169.909V166.602C195.816 166.309 196.054 166.071 196.348 166.071C196.642 166.071 196.879 166.309 196.879 166.602V169.909C196.879 170.203 196.642 170.441 196.348 170.441ZM196.348 163.829C196.054 163.829 195.816 163.591 195.816 163.297V159.991C195.816 159.697 196.054 159.46 196.348 159.46C196.642 159.46 196.879 159.697 196.879 159.991V163.297C196.879 163.591 196.642 163.829 196.348 163.829ZM196.348 157.217C196.054 157.217 195.816 156.979 195.816 156.685V153.377C195.816 153.084 196.054 152.846 196.348 152.846C196.642 152.846 196.879 153.084 196.879 153.377V156.685C196.879 156.979 196.642 157.217 196.348 157.217ZM196.348 150.606C196.054 150.606 195.816 150.368 195.816 150.074V146.768C195.816 146.474 196.054 146.237 196.348 146.237C196.642 146.237 196.879 146.474 196.879 146.768V150.074C196.879 150.368 196.642 150.606 196.348 150.606ZM196.348 143.993C196.054 143.993 195.816 143.756 195.816 143.462V140.156C195.816 139.862 196.054 139.624 196.348 139.624C196.642 139.624 196.879 139.862 196.879 140.156V143.462C196.879 143.756 196.642 143.993 196.348 143.993Z" fill="#4A5258"/>
<path d="M196.348 175.31C196.054 175.31 195.816 175.072 195.816 174.778V173.188C195.816 172.894 196.054 172.656 196.348 172.656C196.642 172.656 196.879 172.894 196.879 173.188V174.778C196.879 175.072 196.642 175.31 196.348 175.31Z" fill="#4A5258"/>
<path d="M161.539 102.569C161.539 110.464 153.525 118 153.525 118C153.525 118 145.512 110.464 145.512 102.569C145.512 98.145 149.101 94.5598 153.525 94.5598C157.953 94.5599 161.539 98.145 161.539 102.569Z" fill="#ED1C24"/>
<path d="M157.223 106.401C159.266 104.357 159.266 101.043 157.223 98.9997C155.179 96.956 151.865 96.956 149.822 98.9997C147.778 101.043 147.778 104.357 149.822 106.401C151.865 108.444 155.179 108.444 157.223 106.401Z" fill="#F3F6FD"/>
<path d="M196.354 176.222C197.393 176.222 198.236 175.379 198.236 174.34C198.236 173.301 197.393 172.458 196.354 172.458C195.315 172.458 194.473 173.301 194.473 174.34C194.473 175.379 195.315 176.222 196.354 176.222Z" fill="#ED1C24"/>
<path d="M155.728 247.251V266.189C155.728 267.504 154.662 268.57 153.336 268.57H133.217C131.902 268.57 130.836 267.504 130.836 266.189V247.251C130.836 245.936 131.902 244.859 133.217 244.859H153.336C154.662 244.859 155.728 245.936 155.728 247.251Z" fill="#839299"/>
<path d="M235.323 248.172H161.02V250.323H235.323V248.172Z" fill="#839299"/>
<path d="M235.323 255.038H161.02V257.189H235.323V255.038Z" fill="#839299"/>
<path d="M194.842 261.904H161.02V264.055H194.842V261.904Z" fill="#839299"/>
<path d="M313.514 185.567C318.281 180.8 318.281 173.072 313.514 168.305C308.747 163.538 301.019 163.538 296.252 168.305C291.485 173.072 291.485 180.8 296.252 185.567C301.019 190.333 308.747 190.333 313.514 185.567Z" fill="#839299"/>
<path d="M310.901 182.956C314.226 179.631 314.226 174.24 310.901 170.915C307.576 167.59 302.185 167.59 298.86 170.915C295.535 174.24 295.535 179.631 298.86 182.956C302.185 186.281 307.576 186.281 310.901 182.956Z" fill="white"/>
<path d="M304.82 173.947C302.412 173.947 300.163 172.99 298.487 171.252C298.36 171.12 298.364 170.909 298.496 170.782C298.628 170.654 298.839 170.658 298.966 170.79C300.515 172.397 302.595 173.282 304.82 173.282C307.052 173.282 309.134 172.397 310.684 170.79C310.812 170.658 311.022 170.654 311.154 170.782C311.286 170.909 311.29 171.12 311.162 171.252C309.487 172.99 307.235 173.947 304.82 173.947Z" fill="#839299"/>
<path d="M310.919 183.073C310.832 183.073 310.745 183.039 310.679 182.971C309.134 181.358 307.052 180.47 304.817 180.47C302.587 180.47 300.508 181.358 298.963 182.971C298.836 183.103 298.625 183.107 298.493 182.981C298.36 182.854 298.356 182.644 298.483 182.511C300.155 180.766 302.404 179.805 304.817 179.805C307.235 179.805 309.487 180.766 311.16 182.511C311.286 182.644 311.282 182.854 311.149 182.981C311.085 183.043 311.002 183.073 310.919 183.073Z" fill="#839299"/>
<path d="M313.277 177.209H296.368C296.184 177.209 296.035 177.06 296.035 176.876C296.035 176.693 296.184 176.544 296.368 176.544H313.277C313.46 176.544 313.609 176.693 313.609 176.876C313.609 177.06 313.46 177.209 313.277 177.209Z" fill="#839299"/>
<path d="M304.884 185.782C302.752 185.782 301.082 181.896 301.082 176.935C301.082 171.975 302.752 168.089 304.884 168.089C307.017 168.089 308.687 171.975 308.687 176.935C308.687 181.896 307.017 185.782 304.884 185.782ZM304.884 168.753C303.369 168.753 301.747 172.041 301.747 176.935C301.747 181.829 303.369 185.117 304.884 185.117C306.4 185.117 308.022 181.829 308.022 176.935C308.022 172.041 306.4 168.753 304.884 168.753Z" fill="#839299"/>
<path d="M287.774 67.9422C293.01 62.7062 293.01 54.2168 287.774 48.9808C282.538 43.7447 274.049 43.7446 268.813 48.9807C263.577 54.2168 263.577 62.7061 268.813 67.9422C274.049 73.1783 282.538 73.1783 287.774 67.9422Z" fill="#FFDD33"/>
<path d="M279.193 57.6413C281.075 57.3359 282.353 55.5627 282.048 53.6808C281.742 51.7989 279.969 50.521 278.087 50.8264C276.205 51.1318 274.927 52.905 275.233 54.7869C275.538 56.6688 277.311 57.9467 279.193 57.6413Z" fill="white"/>
<path d="M271.517 65.4698H285.045C285.437 65.4698 285.768 65.0982 285.644 64.706C284.735 61.5047 281.802 59.1299 278.291 59.1299C274.78 59.1299 271.827 61.5047 270.919 64.706C270.815 65.0983 271.125 65.4698 271.517 65.4698Z" fill="white"/>
<path d="M304.544 97.6643C304.544 98.1452 304.161 98.5279 303.68 98.5279H298.674C298.203 98.5279 297.82 98.1452 297.82 97.6643C297.82 97.1932 298.203 96.8103 298.674 96.8103H303.68C304.161 96.8103 304.544 97.1933 304.544 97.6643Z" fill="#4A5258"/>
<path d="M313.431 103.762L311.402 105.791C311.232 105.961 310.966 105.961 310.797 105.791L309.139 104.134C308.969 103.964 308.969 103.688 309.139 103.528L311.168 101.499C311.328 101.329 311.604 101.329 311.774 101.499L313.431 103.156C313.601 103.326 313.601 103.592 313.431 103.762Z" fill="#4A5258"/>
<path d="M288.928 103.762L290.957 105.791C291.128 105.961 291.393 105.961 291.563 105.791L293.221 104.134C293.39 103.964 293.39 103.688 293.221 103.528L291.191 101.499C291.032 101.329 290.756 101.329 290.586 101.499L288.928 103.156C288.758 103.326 288.758 103.592 288.928 103.762Z" fill="#4A5258"/>
<path d="M315.716 114.86C315.716 122.889 309.209 129.396 301.18 129.396C293.152 129.396 286.645 122.889 286.645 114.86C286.645 107.656 291.886 101.669 298.766 100.53C299.551 100.393 300.356 100.324 301.18 100.324C302.005 100.324 302.81 100.393 303.595 100.53C310.475 101.669 315.716 107.656 315.716 114.86Z" fill="#839299"/>
<path d="M309.94 123.615C314.774 118.781 314.774 110.943 309.94 106.108C305.106 101.274 297.267 101.274 292.433 106.108C287.599 110.943 287.599 118.781 292.433 123.615C297.268 128.449 305.106 128.449 309.94 123.615Z" fill="white"/>
<path d="M311.526 114.86C311.526 120.566 306.895 125.197 301.189 125.197C295.482 125.197 290.852 120.566 290.852 114.86C290.852 109.153 295.482 104.522 301.189 104.522V114.86H311.526Z" fill="#ED1C24"/>
<path d="M303.595 100.53C302.809 100.393 302.005 100.324 301.18 100.324C300.356 100.324 299.551 100.393 298.766 100.53L299.355 98.5278H303.006L303.595 100.53Z" fill="#4A5258"/>
</svg>
