<svg width="48" height="48" viewBox="0 0 48 48" fill="none" xmlns="http://www.w3.org/2000/svg">
<g id="domain-specific-data-scraping-solutions_travel-hotel-and-airline 1">
<g id="Group">
<path id="Vector" d="M4.99904 10.5001L1.89904 8.0001C1.59904 7.6001 1.69904 7.0001 2.09904 6.7001C2.19904 6.6001 2.29904 6.6001 2.29904 6.6001L3.29904 6.3001C3.49904 6.2001 3.79904 6.2001 3.99904 6.3001L10.399 8.7001L4.99904 10.5001Z" fill="#002548"/>
<path id="Vector_2" d="M5 10.4999L26.1 3.0999C28.8 2.0999 31.6 1.7999 34.4 1.9999C36 2.0999 37.4 2.4999 37.7 3.1999C38.1 4.4999 34.2 7.2999 27.4 10.0999C21.1 12.6999 14.5 16.5999 7.8 12.5999L5 10.4999Z" fill="#D2D9DC"/>
<path id="Vector_3" d="M18.8984 8.7999L12.1984 2.2999C11.7984 1.8999 11.7984 1.2999 12.1984 0.899902C12.2984 0.799902 12.3984 0.699902 12.5984 0.699902L14.1984 0.0999023C14.3984 -9.76548e-05 14.6984 -9.76548e-05 14.8984 0.0999023L27.9984 5.5999L18.8984 8.7999Z" fill="#839299"/>
<path id="Vector_4" d="M9 16.6997H30.5C31.6 16.6997 32.5 17.5997 32.5 18.6997V45.9997C32.5 47.0997 31.6 47.9997 30.5 47.9997H9V16.6997Z" fill="#0054A6"/>
<path id="Vector_5" d="M20.6992 23.6001H26.5992C27.0992 23.6001 27.5992 24.0001 27.5992 24.6001V26.6001C27.5992 27.1001 27.1992 27.6001 26.5992 27.6001H20.6992C20.1992 27.6001 19.6992 27.2001 19.6992 26.6001V24.6001C19.6992 24.0001 20.1992 23.6001 20.6992 23.6001Z" fill="#D2D9DC"/>
<path id="Vector_6" d="M9 16.6997H14.9V47.9997H9V16.6997Z" fill="#002548"/>
<g id="Group_2">
<path id="Vector_7" d="M10.8984 21.6001H8.39844C7.89844 21.6001 7.39844 21.2001 7.39844 20.6001C7.39844 20.1001 7.79844 19.6001 8.39844 19.6001H10.9984C11.4984 19.6001 11.9984 20.0001 11.9984 20.6001C11.8984 21.2001 11.4984 21.6001 10.8984 21.6001Z" fill="#FFDD33"/>
<path id="Vector_8" d="M10.8984 25.5H8.39844C7.89844 25.5 7.39844 25.1 7.39844 24.5C7.39844 24 7.79844 23.5 8.39844 23.5H10.9984C11.4984 23.5 11.9984 23.9 11.9984 24.5C11.8984 25.1 11.4984 25.5 10.8984 25.5Z" fill="#FFDD33"/>
<path id="Vector_9" d="M10.8984 29.3999H8.39844C7.89844 29.3999 7.39844 28.9999 7.39844 28.3999C7.39844 27.7999 7.79844 27.3999 8.39844 27.3999H10.9984C11.4984 27.3999 11.9984 27.7999 11.9984 28.3999C11.9984 28.9999 11.4984 29.3999 10.8984 29.3999Z" fill="#FFDD33"/>
<path id="Vector_10" d="M10.8984 33.3003H8.39844C7.89844 33.3003 7.39844 32.9003 7.39844 32.3003C7.39844 31.8003 7.79844 31.3003 8.39844 31.3003H10.9984C11.4984 31.3003 11.9984 31.7003 11.9984 32.3003C11.8984 32.9003 11.4984 33.3003 10.8984 33.3003Z" fill="#FFDD33"/>
<path id="Vector_11" d="M10.8984 37.3003H8.39844C7.89844 37.3003 7.39844 36.9003 7.39844 36.3003C7.39844 35.8003 7.79844 35.3003 8.39844 35.3003H10.9984C11.4984 35.3003 11.9984 35.7003 11.9984 36.3003C11.8984 36.8003 11.4984 37.3003 10.8984 37.3003Z" fill="#FFDD33"/>
<path id="Vector_12" d="M10.8984 41.2002H8.39844C7.89844 41.2002 7.39844 40.8002 7.39844 40.2002C7.39844 39.7002 7.79844 39.2002 8.39844 39.2002H10.9984C11.4984 39.2002 11.9984 39.6002 11.9984 40.2002C11.8984 40.7002 11.4984 41.2002 10.8984 41.2002Z" fill="#FFDD33"/>
<path id="Vector_13" d="M10.8984 45.1001H8.39844C7.89844 45.1001 7.39844 44.7001 7.39844 44.1001C7.39844 43.5001 7.79844 43.1001 8.39844 43.1001H10.9984C11.4984 43.1001 11.9984 43.5001 11.9984 44.1001C11.9984 44.7001 11.4984 45.1001 10.8984 45.1001Z" fill="#FFDD33"/>
</g>
<path id="Vector_14" d="M45.2996 30.4001C44.7996 30.4001 44.2996 30.0001 44.2996 29.4001V23.1001L41.5996 21.4001C41.0996 21.1001 40.9996 20.5001 41.2996 20.1001C41.5996 19.6001 42.1996 19.5001 42.5996 19.8001L45.6996 21.8001C45.9996 22.0001 46.1996 22.3001 46.1996 22.6001V29.4001C46.2996 30.0001 45.8996 30.4001 45.2996 30.4001Z" fill="#FFDD33"/>
<path id="Vector_15" opacity="0.19" d="M45.2996 30.4001C44.7996 30.4001 44.2996 30.0001 44.2996 29.4001V23.1001L41.5996 21.4001C41.0996 21.1001 40.9996 20.5001 41.2996 20.1001C41.5996 19.6001 42.1996 19.5001 42.5996 19.8001L45.6996 21.8001C45.9996 22.0001 46.1996 22.3001 46.1996 22.6001V29.4001C46.2996 30.0001 45.8996 30.4001 45.2996 30.4001Z" fill="#2D2F31"/>
<path id="Vector_16" d="M40.2988 17.6997C41.8988 17.6997 43.1988 18.9997 43.1988 20.5997V29.3997H37.2988V20.5997C37.2988 18.9997 38.5988 17.6997 40.2988 17.6997Z" fill="#FFDD33"/>
<path id="Vector_17" d="M38.2988 29.3999H42.1988V43.0999H38.2988V29.3999Z" fill="#D2D9DC"/>
<path id="Vector_18" d="M40.2988 47.0001L38.2988 43.1001H42.1988L40.2988 47.0001Z" fill="#002548"/>
</g>
</g>
</svg>
