<svg width="50" height="50" viewBox="0 0 50 50" fill="none" xmlns="http://www.w3.org/2000/svg">
<g clip-path="url(#clip0_18062_40552)">
<path d="M6.89655 28.4482H1.72414V42.2413H0L4.31034 50L8.62069 42.2413H6.89655V28.4482Z" fill="#ED1C24"/>
<path d="M41.3789 36.2069H43.103V50H48.2755V36.2069H49.9996L45.6893 28.4482L41.3789 36.2069Z" fill="#0054A6"/>
<path d="M37.0269 37.0694C36.8363 34.3901 35.7726 31.9538 34.112 30.0402L32.3163 31.8359L31.0973 30.6169L32.893 28.8212C30.9794 27.1606 28.5422 26.0969 25.8638 25.9062V28.4487H24.1397V25.9062C21.4604 26.0969 19.0241 27.1606 17.1105 28.8212L18.9062 30.6169L17.6872 31.8359L15.8915 30.0402C14.2309 31.9538 13.1672 34.391 12.9766 37.0694H15.519V38.7935H12.9766C13.4215 45.046 18.6381 50.0004 25.0018 50.0004C31.3654 50.0004 36.582 45.046 37.0269 38.7935H34.4845V37.0694H37.0269ZM25.0018 48.2763C23.1 48.2763 21.5535 46.7298 21.5535 44.828C21.5535 43.9954 21.8629 43.1893 22.4155 42.5608V34.9883L25.0018 32.4021L27.588 34.9883V42.5608C28.1406 43.1893 28.45 43.9954 28.45 44.828C28.45 46.7298 26.9035 48.2763 25.0018 48.2763Z" fill="#FFDD33"/>
<path d="M25.8636 43.2959V35.7019L25.0015 34.8398L24.1394 35.7019V43.2959L23.8549 43.5527C23.4823 43.889 23.2773 44.3415 23.2773 44.8277C23.2773 45.7786 24.0506 46.5519 25.0015 46.5519C25.9524 46.5519 26.7256 45.7786 26.7256 44.8277C26.7256 44.3415 26.5206 43.8882 26.1481 43.5527L25.8636 43.2959Z" fill="black"/>
<path d="M40.5372 15.5172C43.8545 15.5172 46.5535 12.8026 46.5535 9.46463C46.5535 6.14726 43.8545 3.44824 40.5372 3.44824C39.3442 3.44824 38.1905 3.79719 37.2 4.45848L29.6641 9.48273L37.2 14.507C38.1913 15.1683 39.3451 15.5172 40.5372 15.5172ZM43.1053 8.62066H44.8294V10.3448H43.1053V8.62066ZM39.657 8.62066H41.3811V10.3448H39.657V8.62066ZM36.2087 8.62066H37.9329V10.3448H36.2087V8.62066Z" fill="#0054A6"/>
<path d="M9.4656 3.44824C6.14824 3.44824 3.44922 6.16368 3.44922 9.50167C3.44922 12.819 6.14824 15.518 9.4656 15.518C10.6585 15.518 11.8123 15.1691 12.8028 14.5078L20.3387 9.48357L12.8028 4.45848C11.8115 3.79804 10.6577 3.44824 9.4656 3.44824ZM6.89749 10.3448H5.17336V8.62066H6.89749V10.3448ZM10.3458 10.3448H8.62163V8.62066H10.3458V10.3448ZM13.794 10.3448H12.0699V8.62066H13.794V10.3448Z" fill="#0054A6"/>
<path d="M50 9.46466C50 4.24552 45.7545 0 40.5353 0C38.6597 0 36.845 0.550158 35.2855 1.58986L13.7577 15.9415C12.4827 16.7914 10.9981 17.2414 9.46466 17.2414C5.19556 17.2414 1.72414 13.77 1.72414 9.5017C1.72414 5.21282 5.19556 1.72498 9.46466 1.72498C10.9981 1.72498 12.4836 2.17411 13.7577 3.02482L21.8923 8.44727L23.4468 7.41219L14.7137 1.58986C13.1541 0.550158 11.3395 0 9.46382 0C4.24552 0 0 4.26278 0 9.5017C0 14.7208 4.24552 18.9664 9.46466 18.9664C11.3403 18.9664 13.155 18.4162 14.7145 17.3769L36.2423 3.02398C37.5173 2.17411 39.0019 1.72414 40.5353 1.72414C44.8036 1.72414 48.2759 5.19557 48.2759 9.46466C48.2759 13.7535 44.8044 17.2414 40.5353 17.2414C39.0019 17.2414 37.5164 16.7922 36.2423 15.9415L28.1077 10.5191L26.5532 11.5542L35.2855 17.3757C36.845 18.4154 38.6597 18.9655 40.5353 18.9655C45.7545 18.9655 50 14.7036 50 9.46466Z" fill="#719BD8"/>
</g>
<defs>
<clipPath id="clip0_18062_40552">
<rect width="50" height="50" fill="white"/>
</clipPath>
</defs>
</svg>
