<svg width="48" height="48" viewBox="0 0 48 48" fill="none" xmlns="http://www.w3.org/2000/svg">
<g clip-path="url(#clip0_6034_12772)">
<path d="M0 14.7H22.6V22H0V14.7Z" fill="#0054A6"/>
<path d="M6.09922 18.9H4.19922C3.89922 18.9 3.69922 18.7 3.69922 18.4C3.69922 18.1 3.89922 17.9 4.19922 17.9H6.09922C6.39922 17.9 6.59922 18.1 6.59922 18.4C6.59922 18.7 6.39922 18.9 6.09922 18.9Z" fill="#D2D9DC"/>
<path d="M18.3996 18.9H11.0996C10.7996 18.9 10.5996 18.7 10.5996 18.4C10.5996 18.1 10.7996 17.9 11.0996 17.9H18.3996C18.6996 17.9 18.8996 18.1 18.8996 18.4C18.8996 18.7 18.6996 18.9 18.3996 18.9Z" fill="#D2D9DC"/>
<path d="M0 7.30005H22.6V14.6H0V7.30005Z" fill="#002548"/>
<path d="M6.09922 11.5H4.19922C3.89922 11.5 3.69922 11.3 3.69922 11C3.69922 10.7 3.89922 10.5 4.19922 10.5H6.09922C6.39922 10.5 6.59922 10.7 6.59922 11C6.59922 11.3 6.39922 11.5 6.09922 11.5Z" fill="#D2D9DC"/>
<path d="M18.3996 11.5H11.0996C10.7996 11.5 10.5996 11.3 10.5996 11C10.5996 10.7 10.7996 10.5 11.0996 10.5H18.3996C18.6996 10.5 18.8996 10.7 18.8996 11C18.8996 11.3 18.6996 11.5 18.3996 11.5Z" fill="#D2D9DC"/>
<path d="M0 0H22.6V7.3H0V0Z" fill="#0054A6"/>
<path d="M6.09922 4.19995H4.19922C3.89922 4.19995 3.69922 3.99995 3.69922 3.69995C3.69922 3.39995 3.89922 3.19995 4.19922 3.19995H6.09922C6.39922 3.19995 6.59922 3.39995 6.59922 3.69995C6.59922 3.99995 6.39922 4.19995 6.09922 4.19995Z" fill="#D2D9DC"/>
<path d="M18.3996 4.19995H11.0996C10.7996 4.19995 10.5996 3.99995 10.5996 3.69995C10.5996 3.39995 10.7996 3.19995 11.0996 3.19995H18.3996C18.6996 3.19995 18.8996 3.39995 18.8996 3.69995C18.8996 3.99995 18.6996 4.19995 18.3996 4.19995Z" fill="#D2D9DC"/>
<path d="M47.0992 38.1V33.8L44.2992 33.4C44.0992 32.7 43.7992 31.9 43.3992 31.3L45.0992 29L42.0992 25.9L39.7992 27.6C39.0992 27.2 38.3992 26.9 37.6992 26.7L37.2992 23.9H32.9992L32.5992 26.7C31.7992 26.9 31.0992 27.2 30.4992 27.6L28.1992 25.9L25.1992 29L26.8992 31.3C26.4992 32 26.1992 32.7 25.9992 33.4L23.1992 33.8V38.1L25.9992 38.5C26.1992 39.2 26.4992 40 26.8992 40.6L25.1992 42.9L28.1992 46L30.4992 44.3C31.1992 44.7 31.8992 45 32.5992 45.2L32.9992 48H37.2992L37.6992 45.2C38.3992 45 39.1992 44.7 39.7992 44.3L42.0992 46L45.0992 42.9L43.3992 40.6C43.7992 39.9 44.0992 39.2 44.2992 38.5L47.0992 38.1ZM35.0992 42.7C31.3992 42.7 28.3992 39.7 28.3992 36C28.3992 32.3 31.3992 29.3 35.0992 29.3C38.7992 29.3 41.7992 32.3 41.7992 36C41.7992 39.7 38.7992 42.7 35.0992 42.7Z" fill="#839299"/>
<path d="M47.9996 16.2L42.6996 23.7L37.3996 16.2H39.9996V5.4H31.0996V0H42.2996C43.9996 0 45.3996 1.4 45.3996 3.1V16.2H47.9996Z" fill="#54CC5A"/>
<path d="M12.4004 38.7H7.50039C5.80039 38.7 4.40039 37.3 4.40039 35.6V24.4H9.80039V33.3H12.4004V33.2V30.7L19.9004 36L12.4004 41.3V38.7Z" fill="#54CC5A"/>
</g>
<defs>
<clipPath id="clip0_6034_12772">
<rect width="48" height="48" fill="white"/>
</clipPath>
</defs>
</svg>
