<svg width="65" height="65" viewBox="0 0 65 65" fill="none" xmlns="http://www.w3.org/2000/svg">
<path d="M59.9219 0H5.07812C2.27355 0 0 2.27355 0 5.07812V59.9219C0 62.7264 2.27355 65 5.07812 65H59.9219C62.7264 65 65 62.7264 65 59.9219V5.07812C65 2.27355 62.7264 0 59.9219 0Z" fill="#3178C6"/>
<path fill-rule="evenodd" clip-rule="evenodd" d="M38.2175 50.9019V57.9147C39.358 58.4992 40.707 58.9375 42.2642 59.2297C43.8214 59.522 45.4627 59.668 47.1882 59.668C48.8696 59.668 50.4672 59.5072 51.9804 59.1858C53.4937 58.8644 54.8209 58.3347 55.9612 57.5971C57.1017 56.8593 58.0046 55.8949 58.6701 54.7041C59.3354 53.5135 59.668 52.0416 59.668 50.2884C59.668 49.0174 59.4778 47.9032 59.0977 46.9462C58.7176 45.9893 58.1692 45.1382 57.4526 44.3932C56.7364 43.648 55.8772 42.9797 54.8757 42.3879C53.8741 41.7963 52.7445 41.2374 51.4869 40.7116C50.5657 40.3315 49.7397 39.9628 49.0085 39.6048C48.2775 39.2468 47.6559 38.8817 47.1443 38.5089C46.6324 38.1365 46.2376 37.7419 45.9598 37.3255C45.6821 36.9091 45.5432 36.4381 45.5432 35.912C45.5432 35.4298 45.6673 34.9954 45.9159 34.6082C46.1645 34.221 46.5156 33.8886 46.9688 33.6111C47.4221 33.3333 47.9776 33.118 48.6357 32.9644C49.2936 32.811 50.0249 32.7344 50.829 32.7344C51.414 32.7344 52.0317 32.7783 52.6822 32.8659C53.333 32.9535 53.9873 33.0886 54.6454 33.2714C55.3033 33.4539 55.9429 33.684 56.5645 33.9617C57.1858 34.2393 57.7599 34.5607 58.2862 34.9258V28.3733C57.2188 27.9642 56.0526 27.6611 54.7879 27.4638C53.5232 27.2665 52.0719 27.168 50.4342 27.168C48.7673 27.168 47.1882 27.347 45.6968 27.705C44.2053 28.0627 42.8929 28.6216 41.7597 29.3813C40.6265 30.1412 39.731 31.1091 39.0729 32.2852C38.415 33.4613 38.0859 34.8674 38.0859 36.5038C38.0859 38.593 38.689 40.3754 39.8955 41.8511C41.1018 43.3266 42.933 44.5758 45.3895 45.5985C46.3546 45.9931 47.254 46.38 48.0873 46.7601C48.9209 47.14 49.641 47.5343 50.2478 47.9433C50.8546 48.3524 51.3335 48.798 51.6844 49.2802C52.0353 49.7623 52.2107 50.3103 52.2107 50.9239C52.2107 51.3767 52.1011 51.7969 51.8817 52.1841C51.6626 52.571 51.3297 52.9072 50.8838 53.1921C50.438 53.477 49.8822 53.6996 49.2169 53.8604C48.5517 54.0211 47.773 54.1016 46.881 54.1016C45.3604 54.1016 43.8544 53.835 42.363 53.3015C40.8713 52.7683 39.4895 51.9685 38.2175 50.9019ZM26.5286 33.4501H35.5469V27.6758H10.4102V33.4501H19.3844V59.1602H26.5286V33.4501Z" fill="white"/>
</svg>
