<svg width="50" height="50" viewBox="0 0 50 50" fill="none" xmlns="http://www.w3.org/2000/svg">
<g clip-path="url(#clip0_14476_48622)">
<path fill-rule="evenodd" clip-rule="evenodd" d="M2.2218 18.1611L17.5692 18.161C17.9882 18.161 18.2985 17.7813 18.2148 17.3707C17.4257 13.4981 14.0011 10.584 9.89553 10.584C5.78987 10.584 2.36526 13.4981 1.5762 17.3707C1.49251 17.7814 1.80276 18.1611 2.2218 18.1611Z" fill="#8AC9FE"/>
<path fill-rule="evenodd" clip-rule="evenodd" d="M16.0689 18.161H17.5694C17.9885 18.161 18.2987 17.7813 18.215 17.3707C17.426 13.498 14.0013 10.584 9.8958 10.584C9.64297 10.584 9.39277 10.5951 9.14551 10.6168C12.9126 10.9467 15.9741 13.7366 16.7146 17.3707C16.7982 17.7813 16.488 18.161 16.0689 18.161Z" fill="#60B7FF"/>
<path d="M11.141 9.42087C13.4099 8.73333 14.6918 6.33663 14.0043 4.06769C13.3167 1.79875 10.92 0.516773 8.65115 1.20431C6.38227 1.89186 5.10034 4.28856 5.7879 6.5575C6.47546 8.82644 8.87213 10.1084 11.141 9.42087Z" fill="#F6DCCD"/>
<path fill-rule="evenodd" clip-rule="evenodd" d="M9.8959 1.02148C12.2668 1.02148 14.1888 2.94346 14.1888 5.31436C14.1888 7.68516 12.2668 9.60713 9.8959 9.60713C9.69287 9.60713 9.49326 9.59268 9.29785 9.56543C11.3855 9.27432 12.9926 7.48213 12.9926 5.31426C12.9926 3.14639 11.3855 1.3542 9.29785 1.06309C9.49326 1.03594 9.69287 1.02148 9.8959 1.02148Z" fill="#F1CBBC"/>
<path fill-rule="evenodd" clip-rule="evenodd" d="M17.3263 18.1621L32.6737 18.162C33.0927 18.162 33.403 17.7823 33.3193 17.3717C32.5302 13.4991 29.1056 10.585 25 10.585C20.8944 10.585 17.4697 13.4991 16.6807 17.3717C16.597 17.7824 16.9073 18.1621 17.3263 18.1621Z" fill="#8AC9FE"/>
<path fill-rule="evenodd" clip-rule="evenodd" d="M31.1733 18.162H32.6739C33.093 18.162 33.4032 17.7823 33.3195 17.3717C32.5305 13.499 29.1058 10.585 25.0003 10.585C24.7475 10.585 24.4973 10.5961 24.25 10.6178C28.017 10.9477 31.0785 13.7376 31.819 17.3717C31.9026 17.7823 31.5924 18.162 31.1733 18.162Z" fill="#60B7FF"/>
<path d="M27.6327 8.70754C29.5009 7.24948 29.8334 4.55296 28.3753 2.6847C26.9172 0.816442 24.2206 0.483913 22.3524 1.94197C20.4842 3.40004 20.1517 6.09655 21.6098 7.96481C23.0679 9.83307 25.7644 10.1656 27.6327 8.70754Z" fill="#F6DCCD"/>
<path fill-rule="evenodd" clip-rule="evenodd" d="M25.0004 1.02246C27.3713 1.02246 29.2933 2.94443 29.2933 5.31533C29.2933 7.68613 27.3713 9.60811 25.0004 9.60811C24.7974 9.60811 24.5978 9.59365 24.4023 9.56641C26.49 9.27529 28.0971 7.48311 28.0971 5.31523C28.0971 3.14736 26.49 1.35518 24.4023 1.06406C24.5978 1.03691 24.7974 1.02246 25.0004 1.02246Z" fill="#F1CBBC"/>
<path fill-rule="evenodd" clip-rule="evenodd" d="M32.4308 18.1621L47.7782 18.162C48.1972 18.162 48.5074 17.7823 48.4238 17.3717C47.6347 13.4991 44.2101 10.585 40.1045 10.585C35.9989 10.585 32.5742 13.4991 31.7852 17.3717C31.7015 17.7824 32.0117 18.1621 32.4308 18.1621Z" fill="#8AC9FE"/>
<path fill-rule="evenodd" clip-rule="evenodd" d="M46.2779 18.162H47.7784C48.1975 18.162 48.5077 17.7823 48.424 17.3717C47.635 13.499 44.2103 10.585 40.1048 10.585C39.852 10.585 39.6018 10.5961 39.3545 10.6178C43.1216 10.9477 46.183 13.7376 46.9235 17.3717C47.0072 17.7823 46.6971 18.162 46.2779 18.162Z" fill="#60B7FF"/>
<path d="M41.3471 9.41501C43.616 8.72747 44.8979 6.33077 44.2103 4.06183C43.5228 1.79289 41.1261 0.510913 38.8572 1.19845C36.5883 1.886 35.3064 4.2827 35.994 6.55164C36.6815 8.82058 39.0782 10.1026 41.3471 9.41501Z" fill="#F6DCCD"/>
<path fill-rule="evenodd" clip-rule="evenodd" d="M40.1049 1.02246C42.4758 1.02246 44.3977 2.94443 44.3977 5.31533C44.3977 7.68613 42.4757 9.60811 40.1049 9.60811C39.9019 9.60811 39.7022 9.59365 39.5068 9.56641C41.5945 9.27529 43.2016 7.48311 43.2016 5.31523C43.2016 3.14736 41.5945 1.35518 39.5068 1.06406C39.7022 1.03691 39.9019 1.02246 40.1049 1.02246Z" fill="#F1CBBC"/>
<path fill-rule="evenodd" clip-rule="evenodd" d="M36.2732 16.1816C37.0796 16.1816 37.7373 16.8394 37.7373 17.6457V44.5845C37.7373 45.3908 37.0797 46.0485 36.2732 46.0485H13.7268C12.9204 46.0485 12.2627 45.3909 12.2627 44.5845V17.6457C12.2627 16.8394 12.9204 16.1816 13.7268 16.1816H36.2732Z" fill="#837683"/>
<path fill-rule="evenodd" clip-rule="evenodd" d="M34.3838 46.0484H36.2732C37.0796 46.0484 37.7373 45.3907 37.7373 44.5844V17.6457C37.7373 16.8394 37.0796 16.1816 36.2732 16.1816H34.3838V46.0484Z" fill="#685E68"/>
<path fill-rule="evenodd" clip-rule="evenodd" d="M35.0427 18.2188H14.9581C14.5955 18.2188 14.2998 18.5145 14.2998 18.8771V43.3538C14.2998 43.7164 14.5955 44.0121 14.9581 44.0121H35.0427C35.4053 44.0121 35.7011 43.7164 35.7011 43.3538V18.8771C35.701 18.5145 35.4053 18.2188 35.0427 18.2188Z" fill="#ECEFF1"/>
<path fill-rule="evenodd" clip-rule="evenodd" d="M34.3838 44.0122H35.0422C35.0629 44.0122 35.0834 44.0112 35.1036 44.0094C35.4376 43.9782 35.7005 43.6958 35.7005 43.3539V18.8771C35.7005 18.5352 35.4376 18.2527 35.1036 18.2216C35.0834 18.2197 35.0629 18.2188 35.0422 18.2188H34.3838V44.0122Z" fill="#D1D1D6"/>
<path fill-rule="evenodd" clip-rule="evenodd" d="M20.0217 15.2968H22.1085C22.3772 15.2968 22.6068 15.1456 22.7132 14.8988C23.0944 14.0134 23.9748 13.3936 25 13.3936C26.0252 13.3936 26.9056 14.0135 27.2868 14.8988C27.3932 15.1456 27.6228 15.2968 27.8915 15.2968H29.9783C30.3409 15.2968 30.6367 15.5926 30.6367 15.9552V18.445C30.6367 18.8076 30.3409 19.1033 29.9783 19.1033H20.0217C19.6591 19.1033 19.3633 18.8075 19.3633 18.445V15.9552C19.3633 15.5926 19.6591 15.2968 20.0217 15.2968Z" fill="#E3A76F"/>
<path fill-rule="evenodd" clip-rule="evenodd" d="M29.3197 18.4451H19.3633C19.3633 18.8077 19.659 19.1034 20.0217 19.1034H29.9782C30.3408 19.1034 30.6366 18.8076 30.6366 18.4451V18.2186V16.1818V15.9553C30.6366 15.5927 30.3408 15.297 29.9782 15.2969V16.1818V17.7867C29.9782 17.9517 29.917 18.1028 29.8161 18.2186C29.6951 18.3573 29.5174 18.4451 29.3197 18.4451Z" fill="#C48958"/>
<path d="M25.0003 16.191C25.4184 16.191 25.7574 15.852 25.7574 15.4339C25.7574 15.0157 25.4184 14.6768 25.0003 14.6768C24.5821 14.6768 24.2432 15.0157 24.2432 15.4339C24.2432 15.852 24.5821 16.191 25.0003 16.191Z" fill="#ECEFF1"/>
<path fill-rule="evenodd" clip-rule="evenodd" d="M26.6634 21.9844V23.5841C26.6634 23.7454 26.795 23.8771 26.9563 23.8771H28.556C28.7173 23.8771 28.8489 24.0087 28.8489 24.17V26.9114C28.8489 27.0728 28.7173 27.2044 28.556 27.2044H26.9563C26.795 27.2044 26.6634 27.336 26.6634 27.4974V29.097C26.6634 29.2583 26.5317 29.3899 26.3704 29.3899H23.629C23.4677 29.3899 23.336 29.2583 23.336 29.097V27.4974C23.336 27.336 23.2044 27.2044 23.0431 27.2044H21.4434C21.282 27.2044 21.1504 27.0728 21.1504 26.9114V24.17C21.1504 24.0087 21.282 23.8771 21.4434 23.8771H23.0431C23.2044 23.8771 23.336 23.7454 23.336 23.5841V21.9844C23.336 21.823 23.4677 21.6914 23.629 21.6914H26.3704C26.5317 21.6915 26.6634 21.823 26.6634 21.9844Z" fill="#FE646F"/>
<path fill-rule="evenodd" clip-rule="evenodd" d="M26.6641 21.9844V23.5841C26.6641 23.7454 26.7957 23.8771 26.957 23.8771H25.9805C25.8191 23.8771 25.6875 23.7454 25.6875 23.5841V21.9844C25.6875 21.823 25.5559 21.6914 25.3945 21.6914H26.3711C26.5324 21.6915 26.6641 21.823 26.6641 21.9844ZM27.5801 23.8771H28.5566C28.718 23.8771 28.8496 24.0087 28.8496 24.17V26.9114C28.8496 27.0728 28.718 27.2044 28.5566 27.2044H27.5801C27.7414 27.2044 27.873 27.0728 27.873 26.9114V24.17C27.8729 24.0086 27.7414 23.8771 27.5801 23.8771ZM26.957 27.2043C26.7957 27.2043 26.6641 27.3359 26.6641 27.4973V29.0969C26.6641 29.2582 26.5324 29.3898 26.3711 29.3898H25.3945C25.5559 29.3898 25.6875 29.2582 25.6875 29.0969V27.4973C25.6875 27.3359 25.8191 27.2043 25.9805 27.2043H26.957Z" fill="#FD4755"/>
<path fill-rule="evenodd" clip-rule="evenodd" d="M17.5098 39.9084C17.0783 39.9084 16.7285 39.5586 16.7285 39.1271C16.7285 38.6957 17.0783 38.3459 17.5098 38.3459H32.491C32.9225 38.3459 33.2723 38.6957 33.2723 39.1271C33.2723 39.5586 32.9225 39.9084 32.491 39.9084H17.5098ZM17.5098 34.0488C17.0783 34.0488 16.7285 33.699 16.7285 33.2676C16.7285 32.8361 17.0783 32.4863 17.5098 32.4863H32.491C32.9225 32.4863 33.2723 32.8361 33.2723 33.2676C33.2723 33.699 32.9225 34.0488 32.491 34.0488H17.5098ZM17.5098 36.9786C17.0783 36.9786 16.7285 36.6288 16.7285 36.1974C16.7285 35.7659 17.0783 35.4161 17.5098 35.4161H32.491C32.9225 35.4161 33.2723 35.7659 33.2723 36.1974C33.2723 36.6288 32.9225 36.9786 32.491 36.9786H17.5098Z" fill="#A79BA7"/>
<path d="M10.3244 48.9515C14.985 48.7835 18.627 44.8692 18.4591 40.2085C18.2911 35.5479 14.3768 31.9059 9.71616 32.0738C5.05553 32.2418 1.41349 36.1561 1.58145 40.8167C1.7494 45.4774 5.66373 49.1194 10.3244 48.9515Z" fill="#6CF5C2"/>
<path fill-rule="evenodd" clip-rule="evenodd" d="M10.0098 32.084C14.6751 32.084 18.457 35.8659 18.457 40.5312C18.457 45.1965 14.6751 48.9785 10.0098 48.9785C9.8458 48.9785 9.68311 48.9733 9.52148 48.9642C13.9595 48.7111 17.4805 45.0326 17.4805 40.5312C17.4805 36.0299 13.9595 32.3514 9.52148 32.0984C9.68311 32.0892 9.8458 32.084 10.0098 32.084Z" fill="#00E499"/>
<path d="M9.18359 42.2179C11.3111 42.1008 12.9408 40.2811 12.8237 38.1536C12.7066 36.0261 10.8869 34.3964 8.75943 34.5135C6.63191 34.6306 5.00218 36.4503 5.11931 38.5778C5.23644 40.7053 7.05608 42.335 9.18359 42.2179Z" fill="#E7E9EC"/>
<path fill-rule="evenodd" clip-rule="evenodd" d="M8.97891 34.4873C11.1086 34.4873 12.835 36.2138 12.835 38.3434C12.835 40.4729 11.1086 42.1994 8.97891 42.1994C8.9001 42.1994 8.82187 42.1968 8.74414 42.1921C10.7645 42.0707 12.3654 40.3941 12.3654 38.3434C12.3654 36.2927 10.7645 34.616 8.74424 34.4946C8.82187 34.4899 8.9001 34.4873 8.97891 34.4873Z" fill="#DBDCE0"/>
<path fill-rule="evenodd" clip-rule="evenodd" d="M5.69482 36.3218C6.37383 35.221 7.59082 34.4873 8.979 34.4873C11.1086 34.4873 12.8351 36.2138 12.8351 38.3434H5.69482H5.12305C5.12305 37.6021 5.33223 36.9096 5.69482 36.3218Z" fill="#FE646F"/>
<path fill-rule="evenodd" clip-rule="evenodd" d="M8.73242 34.4951C8.81377 34.4899 8.8958 34.4873 8.97842 34.4873C11.108 34.4873 12.8345 36.2138 12.8345 38.3434H12.3649C12.3649 36.2952 10.749 34.6202 8.73242 34.4951Z" fill="#FD4755"/>
<path fill-rule="evenodd" clip-rule="evenodd" d="M6.76287 42.0944L13.0997 39.4416C14.2823 38.9466 15.6549 39.509 16.15 40.6916C16.6451 41.8742 16.0826 43.2468 14.9 43.7419L8.56326 46.3948C7.38064 46.8899 6.00808 46.3274 5.51297 45.1448C5.01775 43.9622 5.58025 42.5895 6.76287 42.0944Z" fill="#ECEFF1"/>
<path fill-rule="evenodd" clip-rule="evenodd" d="M6.76269 42.0944L13.0995 39.4416C14.2821 38.9466 15.6547 39.509 16.1498 40.6916V40.6917C16.2969 41.0428 16.3506 41.4109 16.3225 41.7677C16.3038 41.5278 16.2475 41.2873 16.1498 41.054C15.5765 39.9073 14.28 39.3009 13.0974 39.796L6.76054 42.4488C5.92919 42.7969 5.40644 43.5866 5.34003 44.4311C5.26376 43.4549 5.81337 42.4919 6.76269 42.0944Z" fill="#D1D1D6"/>
<path fill-rule="evenodd" clip-rule="evenodd" d="M9.93164 40.7681L13.1 39.4416C14.2826 38.9465 15.6552 39.509 16.1503 40.6916C16.6454 41.8742 16.0829 43.2468 14.9003 43.7419L11.7319 45.0684L9.93164 40.7681Z" fill="#8AC9FE"/>
<path fill-rule="evenodd" clip-rule="evenodd" d="M9.93164 40.768L13.1 39.4416C14.2826 38.9466 15.6552 39.509 16.1503 40.6916C16.1522 40.6916 16.1948 40.8065 16.1987 40.8177C15.6479 39.7535 14.3522 39.2684 13.2287 39.7393L10.0577 41.0684L9.93164 40.768Z" fill="#60B7FF"/>
<path d="M40.7282 48.948C45.3794 48.5608 48.8361 44.4764 48.4489 39.8252C48.0617 35.174 43.9772 31.7173 39.326 32.1046C34.6748 32.4918 31.2182 36.5762 31.6054 41.2274C31.9926 45.8786 36.077 49.3352 40.7282 48.948Z" fill="#FE646F"/>
<path fill-rule="evenodd" clip-rule="evenodd" d="M39.9902 32.083C44.6554 32.083 48.4373 35.8649 48.4373 40.5301C48.4373 45.1952 44.6554 48.9771 39.9902 48.9771C39.8263 48.9771 39.6636 48.972 39.502 48.9628C43.9398 48.7098 47.4607 45.0313 47.4607 40.5301C47.4607 36.0288 43.9398 32.3504 39.502 32.0974C39.6636 32.0882 39.8263 32.083 39.9902 32.083Z" fill="#FD4755"/>
<path fill-rule="evenodd" clip-rule="evenodd" d="M36.4603 38.106C36.1552 37.8009 36.1552 37.3062 36.4603 37.0013C36.7653 36.6962 37.26 36.6962 37.5649 37.0013L39.9898 39.4262L42.4147 37.0013C42.7198 36.6962 43.2145 36.6962 43.5194 37.0013C43.8245 37.3063 43.8245 37.801 43.5194 38.106L41.0945 40.5309L43.5193 42.9557C43.8244 43.2607 43.8244 43.7554 43.5193 44.0604C43.2143 44.3654 42.7196 44.3654 42.4147 44.0604L39.9898 41.6355L37.565 44.0604C37.26 44.3654 36.7653 44.3654 36.4604 44.0604C36.1553 43.7553 36.1553 43.2606 36.4604 42.9557L38.8852 40.5309L36.4603 38.106Z" fill="#ECEFF1"/>
</g>
<defs>
<clipPath id="clip0_14476_48622">
<rect width="50" height="50" fill="white"/>
</clipPath>
</defs>
</svg>
