<svg width="64" height="64" viewBox="0 0 64 64" fill="none" xmlns="http://www.w3.org/2000/svg">
<g clip-path="url(#clip0_11826_17414)">
<path d="M55.1969 35.3999V44.9999C55.1969 45.4999 54.7969 45.8999 54.2969 45.8999C53.7969 45.8999 53.3969 45.4999 53.3969 44.9999V36.2999H32.8969V44.6999C32.8969 45.1999 32.4969 45.5999 31.9969 45.5999C31.4969 45.5999 31.0969 45.1999 31.0969 44.6999V36.2999H10.6969V44.9999C10.6969 45.4999 10.2969 45.8999 9.79688 45.8999C9.29688 45.8999 8.79688 45.4999 8.79688 44.9999V35.3999C8.79688 34.8999 9.19687 34.4999 9.69687 34.4999H30.9969V26.2999C30.9969 25.7999 31.3969 25.3999 31.8969 25.3999C32.3969 25.3999 32.7969 25.7999 32.7969 26.2999V34.4999H54.0969C54.7969 34.4999 55.1969 34.8999 55.1969 35.3999Z" fill="#0054A6"/>
<path d="M46.9016 8.49995V29C46.9016 29.7 46.4016 30.2 45.7016 30.2H17.8016C17.4016 30.2 17.1016 29.9 17.1016 29.5V8.59995C17.1016 8.19995 17.4016 7.89995 17.8016 7.89995H19.7016C19.9016 7.49995 20.3016 7.19995 20.8016 7.19995H45.6016C46.3016 7.29995 46.9016 7.79995 46.9016 8.49995Z" fill="#D2D9DC"/>
<path d="M46.9016 3.39995V8.59995H17.1016V3.39995C17.1016 2.99995 17.4016 2.69995 17.8016 2.69995H46.2016C46.6016 2.69995 46.9016 2.99995 46.9016 3.39995Z" fill="#002548"/>
<path d="M19 12.2999C19 11.7999 19.4 11.3999 19.9 11.3999H27.5C28 11.3999 28.4 11.7999 28.4 12.2999C28.4 12.7999 28 13.1999 27.5 13.1999H20C19.4 13.1999 19 12.7999 19 12.2999Z" fill="#839299"/>
<path d="M19 15.9999C19 16.4999 19.4 16.8999 19.9 16.8999H26C26.5 16.8999 26.9 16.4999 26.9 15.9999C26.9 15.4999 26.5 15.0999 26 15.0999H20C19.4 15.0999 19 15.4999 19 15.9999Z" fill="#839299"/>
<path d="M27.5016 22.5999H20.0016C19.5016 22.5999 19.1016 22.9999 19.1016 23.4999C19.1016 23.9999 19.5016 24.3999 20.0016 24.3999H27.6016C28.1016 24.3999 28.5016 23.9999 28.5016 23.4999C28.5016 22.9999 28.0016 22.5999 27.5016 22.5999Z" fill="#839299"/>
<path d="M26.0016 18.8H20.0016C19.5016 18.8 19.1016 19.2001 19.1016 19.7001C19.1016 20.2001 19.5016 20.6 20.0016 20.6H26.0016C26.5016 20.6 26.9016 20.2001 26.9016 19.7001C26.9016 19.2001 26.6016 18.8 26.0016 18.8Z" fill="#839299"/>
<path d="M18.8 44.3999V59.3999C18.8 60.3999 18 61.2999 16.9 61.2999H1.7C0.8 61.2999 0 60.5999 0 59.5999V44.1999C0 43.2999 0.7 42.5999 1.7 42.5999H4H4.1H16.9C17.9 42.4999 18.8 43.3999 18.8 44.3999Z" fill="#002548"/>
<path d="M41.4016 44.3999V59.3999C41.4016 60.3999 40.6016 61.2999 39.5016 61.2999H24.3016C23.4016 61.2999 22.6016 60.5999 22.6016 59.5999V44.1999C22.6016 43.2999 23.4016 42.5999 24.3016 42.5999H26.6016H26.7016H39.5016C40.5016 42.4999 41.4016 43.3999 41.4016 44.3999Z" fill="#0054A6"/>
<path d="M64.0031 44.3999V59.3999C64.0031 60.3999 63.2031 61.2999 62.1031 61.2999H46.9031C46.0031 61.2999 45.2031 60.5999 45.2031 59.5999V44.1999C45.2031 43.2999 45.9031 42.5999 46.9031 42.5999H49.2031H49.3031H62.1031C63.2031 42.4999 64.0031 43.3999 64.0031 44.3999Z" fill="#54CC5A"/>
<path d="M52.5016 21.1V22.7C52.5016 23.5 52.0016 24.1 51.2016 24.2C51.0016 25.2 50.6016 26.1 50.1016 26.9C50.5016 27.5 50.4016 28.3 49.9016 28.9L48.8016 30C48.3016 30.5 47.4016 30.6 46.8016 30.2C46.0016 30.7 45.1016 31.0999 44.1016 31.2999C44.0016 32 43.3016 32.5999 42.6016 32.5999H41.0016C40.2016 32.5999 39.6016 32.0999 39.5016 31.2999C38.5016 31.0999 37.6016 30.7 36.8016 30.2C36.2016 30.6 35.4016 30.5 34.8016 30L33.7016 28.9C33.2016 28.4 33.1016 27.5 33.5016 26.9C33.0016 26.1 32.6016 25.2 32.4016 24.2C31.7016 24.1 31.1016 23.4 31.1016 22.7V21.1C31.1016 20.3 31.6016 19.7 32.4016 19.6C32.6016 18.6 33.0016 17.7 33.5016 16.9C33.1016 16.3 33.2016 15.5 33.7016 14.9L34.8016 13.8C35.3016 13.3 36.2016 13.2 36.8016 13.6C37.6016 13.1 38.5016 12.7 39.5016 12.5C39.6016 11.8 40.3016 11.2 41.0016 11.2H42.6016C43.4016 11.2 44.0016 11.7 44.1016 12.5C45.1016 12.7 46.0016 13.1 46.8016 13.6C47.4016 13.2 48.2016 13.3 48.8016 13.8L49.9016 14.9C50.4016 15.4 50.5016 16.3 50.1016 16.9C50.6016 17.7 51.0016 18.6 51.2016 19.6C52.0016 19.7 52.5016 20.4 52.5016 21.1Z" fill="#5F737C"/>
<path d="M47.8984 21.5C47.9984 22.6 47.6984 23.6 47.2984 24.5C47.2984 24.5 47.2984 24.6 47.1984 24.6C46.1984 26.5 44.1984 27.9 41.8984 27.9C38.5984 27.9 35.8984 25.2 35.8984 21.9C35.8984 19.6 37.1984 17.5 39.1984 16.6C39.1984 16.6 39.2984 16.6 39.2984 16.5C40.1984 16.1 41.1984 15.8 42.2984 15.9C45.1984 16.1 47.6984 18.5 47.8984 21.5Z" fill="#54CC5A"/>
<path d="M4.99844 58.9H13.6984C13.9984 58.9 14.2984 58.6 14.2984 58.3V56.8C14.2984 54.7 12.5984 53 10.4984 53H8.19844C6.09844 53 4.39844 54.7 4.39844 56.8V58.3C4.39844 58.7 4.69844 58.9 4.99844 58.9Z" fill="#F9FAFB"/>
<path d="M27.7 58.9H36.4C36.7 58.9 37 58.6 37 58.3V56.8C37 54.7 35.3 53 33.2 53H30.8C28.7 53 27 54.7 27 56.8V58.3C27 58.7 27.3 58.9 27.7 58.9Z" fill="#F9FAFB"/>
<path d="M54.6031 51.6999C56.2031 51.6999 57.5031 50.3999 57.5031 48.7999C57.5031 47.1999 56.2031 45.8999 54.6031 45.8999C53.0031 45.8999 51.7031 47.1999 51.7031 48.7999C51.7031 50.3999 53.0031 51.6999 54.6031 51.6999Z" fill="#F9FAFB"/>
<path d="M32.0016 51.6999C33.6016 51.6999 34.9016 50.3999 34.9016 48.7999C34.9016 47.1999 33.6016 45.8999 32.0016 45.8999C30.4016 45.8999 29.1016 47.1999 29.1016 48.7999C29.1016 50.3999 30.4016 51.6999 32.0016 51.6999Z" fill="#F9FAFB"/>
<path d="M9.39724 51.6999C10.9972 51.6999 12.2972 50.3999 12.2972 48.7999C12.2972 47.1999 10.9972 45.8999 9.39724 45.8999C7.79724 45.8999 6.49724 47.1999 6.49724 48.7999C6.39724 50.3999 7.79724 51.6999 9.39724 51.6999Z" fill="#F9FAFB"/>
<path d="M50.3016 58.9H59.0016C59.3016 58.9 59.6016 58.6 59.6016 58.3V56.8C59.6016 54.7 57.9016 53 55.8016 53H53.4016C51.3016 53 49.6016 54.7 49.6016 56.8V58.3C49.7016 58.7 49.9016 58.9 50.3016 58.9Z" fill="#F9FAFB"/>
<path d="M49.5969 17.8L42.4969 24.9C42.2969 25.1 42.0969 25.2 41.7969 25.2C41.4969 25.2 41.2969 25.1 41.0969 24.9L37.5969 21.4C37.1969 21 37.1969 20.4 37.5969 20.1C37.9969 19.7 38.5969 19.7 38.8969 20.1L41.6969 22.9L48.0969 16.5C48.4969 16.1 49.0969 16.1 49.3969 16.5C49.9969 16.8 49.9969 17.4 49.5969 17.8Z" fill="#F9FAFB"/>
<path d="M28.1031 6.60005C28.6002 6.60005 29.0031 6.1971 29.0031 5.70005C29.0031 5.20299 28.6002 4.80005 28.1031 4.80005C27.6061 4.80005 27.2031 5.20299 27.2031 5.70005C27.2031 6.1971 27.6061 6.60005 28.1031 6.60005Z" fill="#54CC5A"/>
<path d="M24.2984 6.60005C24.7955 6.60005 25.1984 6.1971 25.1984 5.70005C25.1984 5.20299 24.7955 4.80005 24.2984 4.80005C23.8014 4.80005 23.3984 5.20299 23.3984 5.70005C23.3984 6.1971 23.8014 6.60005 24.2984 6.60005Z" fill="#FFDD33"/>
<path d="M20.6031 6.60005C21.1002 6.60005 21.5031 6.1971 21.5031 5.70005C21.5031 5.20299 21.1002 4.80005 20.6031 4.80005C20.1061 4.80005 19.7031 5.20299 19.7031 5.70005C19.7031 6.1971 20.1061 6.60005 20.6031 6.60005Z" fill="#ED1C24"/>
</g>
<defs>
<clipPath id="clip0_11826_17414">
<rect width="64" height="64" fill="white"/>
</clipPath>
</defs>
</svg>
