<svg width="48" height="48" viewBox="0 0 48 48" fill="none" xmlns="http://www.w3.org/2000/svg">
<g clip-path="url(#clip0_5648_11311)">
<path d="M45.3992 39.9H2.59922C1.59922 39.9 0.699219 39.1 0.699219 38V1.9C0.699219 0.9 1.49922 0 2.59922 0H45.3992C46.3992 0 47.2992 0.8 47.2992 1.9V38C47.2992 39 46.3992 39.9 45.3992 39.9Z" fill="#D2D9DC"/>
<path d="M47.2992 6.6H0.699219V1.9C0.699219 0.9 1.49922 0 2.59922 0H45.3992C46.3992 0 47.2992 0.8 47.2992 1.9V6.6Z" fill="#002548"/>
<g opacity="0.19">
<path d="M42.9984 3.80005H24.3984C24.0984 3.80005 23.8984 3.60005 23.8984 3.30005C23.8984 3.00005 24.0984 2.80005 24.3984 2.80005H42.9984C43.2984 2.80005 43.4984 3.00005 43.4984 3.30005C43.4984 3.60005 43.2984 3.80005 42.9984 3.80005Z" fill="#F9FAFB"/>
</g>
<path d="M5.59961 4.30005C6.15189 4.30005 6.59961 3.85233 6.59961 3.30005C6.59961 2.74776 6.15189 2.30005 5.59961 2.30005C5.04732 2.30005 4.59961 2.74776 4.59961 3.30005C4.59961 3.85233 5.04732 4.30005 5.59961 4.30005Z" fill="#ED1C24"/>
<path d="M9.69922 4.29999C10.2515 4.29999 10.6992 3.85227 10.6992 3.29999C10.6992 2.7477 10.2515 2.29999 9.69922 2.29999C9.14693 2.29999 8.69922 2.7477 8.69922 3.29999C8.69922 3.85227 9.14693 4.29999 9.69922 4.29999Z" fill="#FFDD33"/>
<path d="M13.8984 4.30005C14.4507 4.30005 14.8984 3.85233 14.8984 3.30005C14.8984 2.74776 14.4507 2.30005 13.8984 2.30005C13.3462 2.30005 12.8984 2.74776 12.8984 3.30005C12.8984 3.85233 13.3462 4.30005 13.8984 4.30005Z" fill="#54CC5A"/>
<path d="M29.3996 28.4V47.4C29.3996 48 28.6996 48.3 28.2996 47.9L23.9996 44.2L19.6996 47.9C19.2996 48.3 18.5996 48 18.5996 47.4V28.4H29.3996Z" fill="#ED1C24"/>
<path d="M36.5 23.4C36.5 24.9 34 26 33.4 27.3C32.8 28.7 33.8 31.2 32.8 32.2C31.8 33.2 29.3 32.2 27.9 32.8C26.6 33.5 25.5 36 24 36C22.5 36 21.4 33.5 20.1 32.9C18.7 32.3 16.2 33.3 15.2 32.3C14.2 31.3 15.2 28.8 14.6 27.4C14 26 11.5 25 11.5 23.4C11.5 21.9 14 20.8 14.6 19.5C15.2 18.1 14.2 15.6 15.2 14.6C16.2 13.6 18.7 14.6 20.1 14C21.4 13.4 22.5 10.9 24 10.9C25.5 10.9 26.6 13.4 27.9 14C29.3 14.6 31.8 13.6 32.8 14.6C33.8 15.6 32.8 18.1 33.4 19.5C34 20.9 36.5 21.9 36.5 23.4Z" fill="#FFDD33"/>
<path opacity="0.19" d="M23.9996 29.8C27.5342 29.8 30.3996 26.9346 30.3996 23.4C30.3996 19.8654 27.5342 17 23.9996 17C20.465 17 17.5996 19.8654 17.5996 23.4C17.5996 26.9346 20.465 29.8 23.9996 29.8Z" fill="#2D2F31"/>
<path d="M24.1 26.8C23.8 26.8 23.6 26.6 23.6 26.3V21.8L23.1 22.3C22.9 22.5 22.6 22.5 22.4 22.3C22.2 22.1 22.2 21.8 22.4 21.6L23.8 20.2C23.9 20.1 24.2 20 24.4 20.1C24.6 20.2 24.7 20.4 24.7 20.6V26.3C24.7 26.6 24.4 26.8 24.1 26.8Z" fill="#FFDD33"/>
<path d="M25.2 26.8H23C22.7 26.8 22.5 26.6 22.5 26.3C22.5 26 22.7 25.8 23 25.8H25.2C25.5 25.8 25.7 26 25.7 26.3C25.8 26.6 25.5 26.8 25.2 26.8Z" fill="#FFDD33"/>
</g>
<defs>
<clipPath id="clip0_5648_11311">
<rect width="48" height="48" fill="white"/>
</clipPath>
</defs>
</svg>
