<svg width="64" height="64" viewBox="0 0 64 64" fill="none" xmlns="http://www.w3.org/2000/svg">
<path d="M54.29 4.96V59.04C54.29 61.79 52.08 64 49.33 64H14.67C11.92 64 9.70996 61.79 9.70996 59.04V4.96C9.70996 2.23 11.93 0 14.67 0H49.32C52.07 0 54.29 2.23 54.29 4.96Z" fill="#002548"/>
<path d="M51.6199 5.51004V54.95C51.6199 56.52 50.3499 57.79 48.7799 57.79H15.2199C13.6499 57.79 12.3799 56.52 12.3799 54.95V5.51004C12.3799 3.94004 13.6499 2.67004 15.2199 2.67004H48.7799C50.3499 2.67004 51.6199 3.94004 51.6199 5.51004Z" fill="#F9FAFB"/>
<path d="M39.0095 61.0399C39.0095 61.6799 38.4895 62.1999 37.8495 62.1999H26.1295C25.4995 62.1999 24.9795 61.6799 24.9795 61.0399C24.9795 60.3999 25.4995 59.8899 26.1295 59.8899H37.8495C38.4895 59.8899 39.0095 60.3999 39.0095 61.0399Z" fill="#5F737C"/>
<path d="M33.8203 10.72H39.9603V19.16H33.8203V10.72Z" fill="#0054A6"/>
<path d="M43.0303 7.65002H49.1703V19.16H43.0303V7.65002Z" fill="#0054A6"/>
<path d="M14.8496 31.09H22.5196V32.62H14.8496V31.09Z" fill="#D2D9DC"/>
<path d="M24.0596 31.09H31.7296V32.62H24.0596V31.09Z" fill="#D2D9DC"/>
<path d="M14.8496 34.15H31.7296V35.68H14.8496V34.15Z" fill="#D2D9DC"/>
<path d="M14.8496 37.22H31.7296V38.75H14.8496V37.22Z" fill="#D2D9DC"/>
<path d="M15.6201 21.3101H30.9701V27.4501H15.6201V21.3101Z" fill="#ED1C24"/>
<path d="M17.9199 21.3101H19.4499V27.4501H17.9199V21.3101Z" fill="#FFDD33"/>
<path d="M20.9902 23.61H22.5202V27.45H20.9902V23.61Z" fill="#FFDD33"/>
<path d="M24.0596 25.14H25.5896V27.44H24.0596V25.14Z" fill="#FFDD33"/>
<path d="M41.8102 31.32C44.7925 31.32 47.2102 28.9024 47.2102 25.92C47.2102 22.9377 44.7925 20.52 41.8102 20.52C38.8278 20.52 36.4102 22.9377 36.4102 25.92C36.4102 28.9024 38.8278 31.32 41.8102 31.32Z" fill="#54CC5A"/>
<path d="M39.79 25.15C39.79 26.26 40.69 27.17 41.8 27.17C42.91 27.17 43.82 26.27 43.82 25.15C43.82 24.04 42.92 23.14 41.8 23.14C40.68 23.14 39.79 24.04 39.79 25.15Z" fill="#F9FAFB"/>
<path d="M41.8098 29.8901C42.7598 29.8901 43.6298 29.5501 44.3198 29.0001C43.6698 28.3201 42.7798 27.9301 41.8098 27.9301C40.8398 27.9301 39.9498 28.3201 39.2998 29.0001C39.9798 29.5601 40.8598 29.8901 41.8098 29.8901Z" fill="#F9FAFB"/>
<path d="M45.5496 33.87H38.0496C37.6796 33.87 37.3896 34.17 37.3896 34.53V36.82C37.3896 37.19 37.6896 37.48 38.0496 37.48H45.5496C45.9196 37.48 46.2096 37.18 46.2096 36.82V34.53C46.2196 34.17 45.9196 33.87 45.5496 33.87Z" fill="#0054A6"/>
<path d="M48.2901 44.61H35.5901C35.1901 44.61 34.8701 44.29 34.8701 43.89C34.8701 43.49 35.1901 43.17 35.5901 43.17H48.0001V41.46H41.0201C40.9101 41.71 40.6601 41.89 40.3701 41.89C39.9701 41.89 39.6501 41.57 39.6501 41.17C39.6501 40.54 40.1601 40.03 40.7901 40.03H48.2901C48.9201 40.03 49.4301 40.54 49.4301 41.17V43.46C49.4301 44.09 48.9101 44.61 48.2901 44.61Z" fill="#0054A6"/>
<path d="M15.6201 42.66H30.9701V44.19H15.6201V42.66Z" fill="#839299"/>
<path d="M15.6201 45.73H30.9701V47.26H15.6201V45.73Z" fill="#839299"/>
<path d="M22.5303 48.8H30.9703V50.3301H22.5303V48.8Z" fill="#839299"/>
<path d="M22.5303 51.8701H30.9703V53.4001H22.5303V51.8701Z" fill="#839299"/>
<path d="M15.6201 8.07996H30.9701V9.60996H15.6201V8.07996Z" fill="#D2D9DC"/>
<path d="M15.6201 11.1499H30.9701V12.6799H15.6201V11.1499Z" fill="#D2D9DC"/>
<path d="M22.5303 14.22H30.9703V15.75H22.5303V14.22Z" fill="#D2D9DC"/>
<path d="M22.5303 17.2899H30.9703V18.8199H22.5303V17.2899Z" fill="#D2D9DC"/>
<path d="M11.8697 9.09999C10.7897 9.71999 10.4197 11.1 11.0397 12.18L11.5097 13L15.4197 10.74L14.9497 9.91999C14.3297 8.84999 12.9497 8.47999 11.8697 9.09999Z" fill="#ED1C24"/>
<path d="M16.1698 12.03L33.3798 39.65L33.7098 43.69C33.7498 44.17 33.2098 44.48 32.8198 44.21L29.4798 41.91L12.2598 14.28L16.1698 12.03Z" fill="#FFBD86"/>
<path d="M33.3798 39.65C32.1898 39.09 31.5398 39.47 31.4298 40.78C30.2398 40.22 29.5898 40.6 29.4798 41.91L12.2598 14.28L16.1698 12.02L33.3798 39.65Z" fill="#0054A6"/>
<path d="M33.5904 42.28L33.7004 43.69C33.7404 44.17 33.2004 44.48 32.8104 44.21L31.6504 43.41L33.5904 42.28Z" fill="#5F737C"/>
<path opacity="0.19" d="M16.17 12.03L33.38 39.65C32.19 39.09 31.54 39.47 31.43 40.78L14.21 13.15L16.17 12.03Z" fill="#F9FAFB"/>
<path d="M11.1597 12.42L15.0997 10.15C15.6197 9.84998 16.2797 10.03 16.5697 10.55C16.8597 11.07 16.6897 11.73 16.1697 12.02L12.2297 14.29C11.7097 14.59 11.0497 14.41 10.7597 13.89C10.4697 13.38 10.6497 12.72 11.1597 12.42Z" fill="#D2D9DC"/>
</svg>
