<svg width="60" height="60" viewBox="0 0 60 60" fill="none" xmlns="http://www.w3.org/2000/svg">
<path d="M42.2799 14C42.2825 13.7252 42.2307 13.4526 42.1274 13.1979C42.024 12.9432 41.8712 12.7116 41.6778 12.5163C41.4844 12.321 41.2542 12.166 41.0005 12.0603C40.7469 11.9545 40.4747 11.9 40.1999 11.9H39.1999C38.9242 11.8987 38.651 11.9522 38.3962 12.0574C38.1414 12.1625 37.91 12.3173 37.7155 12.5127C37.521 12.7081 37.3674 12.9403 37.2634 13.1956C37.1594 13.4509 37.1073 13.7244 37.1099 14V11.39C37.1099 11.1143 37.0552 10.8414 36.9488 10.5871C36.8424 10.3327 36.6865 10.1021 36.4901 9.90854C36.2938 9.715 36.0609 9.56242 35.8051 9.45967C35.5493 9.35692 35.2756 9.30605 34.9999 9.31003H33.9999C33.4483 9.31003 32.9192 9.52917 32.5291 9.91925C32.139 10.3093 31.9199 10.8384 31.9199 11.39C31.9199 10.8384 31.7008 10.3093 31.3107 9.91925C30.9206 9.52917 30.3916 9.31003 29.8399 9.31003H28.8399C28.2883 9.31003 27.7592 9.52917 27.3691 9.91925C26.979 10.3093 26.7599 10.8384 26.7599 11.39C26.7599 10.8384 26.5408 10.3093 26.1507 9.91925C25.7606 9.52917 25.2316 9.31003 24.6799 9.31003H23.6799C23.1283 9.31003 22.5992 9.52917 22.2091 9.91925C21.819 10.3093 21.5999 10.8384 21.5999 11.39V15.18C21.5979 15.3971 21.5118 15.605 21.3599 15.76L18.8099 18.3C18.4574 18.6547 18.1793 19.0762 17.9922 19.5399C17.805 20.0036 17.7124 20.5 17.7199 21V24.31C17.7181 25.3028 18.1101 26.2558 18.8099 26.96L24.9999 33.11C25.5372 33.6621 25.8416 34.3997 25.8499 35.17V36.32L32.5699 37.76L37.9999 36.32V33.72C37.9983 33.3184 38.0801 32.9207 38.2402 32.5524C38.4003 32.184 38.6351 31.8529 38.9299 31.58C39.9813 30.6163 40.8218 29.4453 41.3984 28.1407C41.9749 26.8361 42.2751 25.4263 42.2799 24V14Z" fill="#FCD0AE"/>
<g opacity="0.5">
<path d="M40.2001 11.8999H39.2001H38.9201C38.9354 12.0328 38.9354 12.167 38.9201 12.2999V22.2999C38.9206 23.7305 38.6241 25.1456 38.0491 26.4556C37.4742 27.7656 36.6334 28.9419 35.5801 29.9099C35.285 30.1847 35.0501 30.5175 34.89 30.8876C34.73 31.2576 34.6483 31.6567 34.6501 32.0599C34.6501 32.7468 34.3772 33.4056 33.8915 33.8913C33.4058 34.377 32.747 34.6499 32.0601 34.6499H25.8201C25.8516 34.8215 25.8683 34.9955 25.8701 35.1699V36.3199L32.5901 37.7599L38.0001 36.3199V33.7199C37.9984 33.3182 38.0803 32.9206 38.2403 32.5522C38.4004 32.1839 38.6353 31.8528 38.9301 31.5799C39.9815 30.6162 40.822 29.4451 41.3985 28.1406C41.9751 26.836 42.2752 25.4262 42.2801 23.9999V13.9999C42.2827 13.7251 42.2309 13.4524 42.1275 13.1978C42.0242 12.9431 41.8714 12.7114 41.678 12.5162C41.4846 12.3209 41.2544 12.1659 41.0007 12.0601C40.747 11.9543 40.4749 11.8999 40.2001 11.8999Z" fill="#E59F6A"/>
<path d="M36.5 19C36.6618 19 36.817 18.9357 36.9314 18.8213C37.0457 18.7069 37.11 18.5518 37.11 18.39V11.39C37.1077 10.9928 36.9928 10.6044 36.7786 10.2698C36.5645 9.93528 36.2598 9.66834 35.9 9.5V18.36C35.8945 18.4421 35.906 18.5244 35.9337 18.6019C35.9614 18.6794 36.0047 18.7503 36.061 18.8104C36.1172 18.8704 36.1852 18.9182 36.2608 18.9508C36.3363 18.9834 36.4177 19.0002 36.5 19Z" fill="#E59F6A"/>
<path d="M31.3301 19C31.4919 19 31.647 18.9357 31.7614 18.8213C31.8758 18.7069 31.9401 18.5518 31.9401 18.39V11.39C31.9378 10.9928 31.8229 10.6044 31.6087 10.2698C31.3946 9.93528 31.0899 9.66834 30.7301 9.5V18.36C30.7246 18.4421 30.7361 18.5244 30.7638 18.6019C30.7914 18.6794 30.8348 18.7503 30.891 18.8104C30.9473 18.8704 31.0153 18.9182 31.0909 18.9508C31.1664 18.9834 31.2478 19.0002 31.3301 19Z" fill="#E59F6A"/>
<path d="M26.1602 19C26.322 19 26.4771 18.9357 26.5915 18.8213C26.7059 18.7069 26.7702 18.5518 26.7702 18.39V11.39C26.7679 10.9928 26.653 10.6044 26.4388 10.2698C26.2246 9.93528 25.92 9.66834 25.5602 9.5V18.36C25.5547 18.4421 25.5661 18.5244 25.5938 18.6019C25.6215 18.6794 25.6648 18.7503 25.7211 18.8104C25.7774 18.8704 25.8454 18.9182 25.9209 18.9508C25.9965 18.9834 26.0779 19.0002 26.1602 19Z" fill="#E59F6A"/>
<path d="M21.0001 22.8499C21.1619 22.8499 21.3171 22.7857 21.4315 22.6713C21.5458 22.5569 21.6101 22.4017 21.6101 22.2399V15.1799C21.6081 15.397 21.5221 15.6049 21.3701 15.7599L20.3701 16.7599V22.2699C20.3779 22.43 20.4484 22.5805 20.5662 22.6891C20.6841 22.7976 20.84 22.8554 21.0001 22.8499Z" fill="#E59F6A"/>
<path d="M34.53 33.0001C34.6891 33.0001 34.8417 32.9368 34.9543 32.8243C35.0668 32.7118 35.13 32.5592 35.13 32.4001C35.1309 32.2672 35.0884 32.1377 35.009 32.0312C34.9296 31.9247 34.8176 31.8471 34.69 31.8101C34.685 31.88 34.685 31.9501 34.69 32.0201C34.6924 32.3626 34.6278 32.7023 34.5 33.0201L34.53 33.0001Z" fill="#FFA78F"/>
<path d="M34.5302 33H29.3502C29.2031 32.9811 29.068 32.9092 28.9701 32.7979C28.8721 32.6865 28.8181 32.5433 28.8181 32.395C28.8181 32.2468 28.8721 32.1035 28.9701 31.9922C29.068 31.8809 29.2031 31.809 29.3502 31.79H34.5302C34.6772 31.809 34.8124 31.8809 34.9103 31.9922C35.0082 32.1035 35.0622 32.2468 35.0622 32.395C35.0622 32.5433 35.0082 32.6865 34.9103 32.7979C34.8124 32.9092 34.6772 32.9811 34.5302 33Z" fill="#E59F6A"/>
</g>
<path d="M39.6999 41.4901L31.2899 42.9301L24.1799 41.4901V36.9401C24.1826 36.7747 24.2501 36.617 24.368 36.501C24.4858 36.385 24.6446 36.32 24.8099 36.3201H39.0699C39.2353 36.32 39.394 36.385 39.5119 36.501C39.6298 36.617 39.6973 36.7747 39.6999 36.9401V41.4901Z" fill="#ECEFF1"/>
<path d="M39.0699 36.3201H36.3699V37.7001C36.3699 37.9793 36.3148 38.2558 36.2076 38.5137C36.1004 38.7715 35.9434 39.0057 35.7455 39.2027C35.5475 39.3997 35.3127 39.5556 35.0543 39.6616C34.7959 39.7675 34.5192 39.8214 34.2399 39.8201H24.1799V41.4901L31.2899 42.9301L39.6999 41.4901V36.9401C39.6973 36.7747 39.6298 36.617 39.5119 36.501C39.394 36.385 39.2353 36.32 39.0699 36.3201Z" fill="#D2D9DC"/>
<path d="M39.7399 41.49H24.1399C23.8084 41.49 23.4904 41.6217 23.256 41.8561C23.0216 42.0905 22.8899 42.4085 22.8899 42.74V49.88C22.8899 50.0948 22.9752 50.3008 23.1271 50.4527C23.279 50.6046 23.4851 50.69 23.6999 50.69H40.1799C40.3947 50.69 40.6007 50.6046 40.7527 50.4527C40.9046 50.3008 40.9899 50.0948 40.9899 49.88V42.74C40.9899 42.4085 40.8582 42.0905 40.6238 41.8561C40.3894 41.6217 40.0714 41.49 39.7399 41.49Z" fill="#006EE5"/>
<path d="M26.77 48.05C27.4824 48.05 28.06 47.4724 28.06 46.76C28.06 46.0475 27.4824 45.47 26.77 45.47C26.0575 45.47 25.48 46.0475 25.48 46.76C25.48 47.4724 26.0575 48.05 26.77 48.05Z" fill="#0062BA"/>
<path d="M39.7399 41.49H37.6599V44.61C37.6586 45.1878 37.5435 45.7597 37.3211 46.293C37.0988 46.8264 36.7736 47.3107 36.3641 47.7183C35.9546 48.126 35.4688 48.449 34.9345 48.6689C34.4001 48.8888 33.8277 49.0013 33.2499 49H22.8899V49.86C22.8899 49.9664 22.9108 50.0717 22.9516 50.17C22.9923 50.2682 23.0519 50.3575 23.1271 50.4327C23.2024 50.508 23.2916 50.5676 23.3899 50.6083C23.4882 50.649 23.5935 50.67 23.6999 50.67H40.1799C40.2863 50.67 40.3916 50.649 40.4899 50.6083C40.5881 50.5676 40.6774 50.508 40.7527 50.4327C40.8279 50.3575 40.8875 50.2682 40.9282 50.17C40.9689 50.0717 40.9899 49.9664 40.9899 49.86V42.74C40.9899 42.4085 40.8582 42.0905 40.6238 41.8561C40.3894 41.6217 40.0714 41.49 39.7399 41.49Z" fill="#0062BA"/>
<path d="M26.77 46.81C27.4824 46.81 28.06 46.2324 28.06 45.52C28.06 44.8075 27.4824 44.23 26.77 44.23C26.0575 44.23 25.48 44.8075 25.48 45.52C25.48 46.2324 26.0575 46.81 26.77 46.81Z" fill="#F2FBFF"/>
<path d="M49.3899 21.5599H46.81C46.6565 21.5604 46.5084 21.503 46.3954 21.3993C46.2823 21.2955 46.2125 21.1529 46.2 20.9999C46.2 20.8381 46.2642 20.683 46.3786 20.5686C46.493 20.4542 46.6482 20.3899 46.81 20.3899H49.3899C49.5517 20.3899 49.7069 20.4542 49.8213 20.5686C49.9357 20.683 50 20.8381 50 20.9999C49.9874 21.1529 49.9176 21.2955 49.8045 21.3993C49.6915 21.503 49.5434 21.5604 49.3899 21.5599Z" fill="#FCC400"/>
<path d="M47.7699 27.43C47.6798 27.4305 47.5908 27.4099 47.5099 27.37L45.2599 26.3C45.1316 26.2222 45.0365 26.0998 44.9928 25.9562C44.9491 25.8127 44.9598 25.658 45.0229 25.5219C45.086 25.3857 45.1971 25.2776 45.3349 25.2182C45.4728 25.1589 45.6276 25.1524 45.7699 25.2L47.9999 26.27C48.1243 26.3297 48.2248 26.4297 48.285 26.5538C48.3452 26.678 48.3616 26.8188 48.3314 26.9534C48.3012 27.088 48.2263 27.2084 48.1189 27.295C48.0115 27.3816 47.8779 27.4291 47.7399 27.43H47.7699Z" fill="#FCC400"/>
<path d="M45.52 16.7499C45.3803 16.7548 45.2433 16.7108 45.1326 16.6255C45.022 16.5402 44.9445 16.4189 44.9137 16.2826C44.8829 16.1463 44.9006 16.0035 44.9638 15.8788C45.0271 15.7542 45.1318 15.6556 45.26 15.5999L47.51 14.5299C47.6537 14.4745 47.8131 14.4754 47.9561 14.5326C48.0991 14.5898 48.2152 14.699 48.281 14.8383C48.3469 14.9776 48.3576 15.1366 48.311 15.2834C48.2644 15.4303 48.164 15.554 48.03 15.6299L45.77 16.6899C45.6923 16.7287 45.6068 16.7492 45.52 16.7499Z" fill="#FCC400"/>
<path d="M13.19 22.26H10.61C10.4482 22.26 10.2931 22.1958 10.1787 22.0814C10.0643 21.967 10 21.8118 10 21.65C10 21.4883 10.0643 21.3331 10.1787 21.2187C10.2931 21.1043 10.4482 21.04 10.61 21.04H13.19C13.3518 21.04 13.5069 21.1043 13.6213 21.2187C13.7357 21.3331 13.8 21.4883 13.8 21.65C13.8 21.8118 13.7357 21.967 13.6213 22.0814C13.5069 22.1958 13.3518 22.26 13.19 22.26Z" fill="#FCC400"/>
<path d="M12.2301 28.13C12.1043 28.1133 11.9868 28.0578 11.894 27.9712C11.8012 27.8847 11.7378 27.7713 11.7125 27.6469C11.6871 27.5226 11.7012 27.3934 11.7528 27.2775C11.8044 27.1615 11.8908 27.0645 12.0001 27L14.2601 25.93C14.4024 25.8823 14.5573 25.8888 14.6951 25.9482C14.8329 26.0076 14.944 26.1157 15.0071 26.2519C15.0702 26.388 15.081 26.5426 15.0372 26.6862C14.9935 26.8298 14.8984 26.9522 14.7701 27.03L12.5201 28.1C12.4275 28.1345 12.3277 28.1448 12.2301 28.13Z" fill="#FCC400"/>
<path d="M14.48 17.4501C14.3932 17.4494 14.3077 17.4289 14.23 17.3901L12 16.3301C11.8659 16.2542 11.7655 16.1305 11.719 15.9836C11.6724 15.8368 11.6831 15.6778 11.7489 15.5385C11.8148 15.3992 11.9309 15.29 12.0739 15.2328C12.2169 15.1756 12.3763 15.1746 12.52 15.2301L14.77 16.3001C14.8982 16.3557 15.0029 16.4544 15.0662 16.579C15.1294 16.7037 15.1471 16.8465 15.1163 16.9828C15.0855 17.1191 15.008 17.2404 14.8973 17.3257C14.7867 17.411 14.6497 17.455 14.51 17.4501H14.48Z" fill="#FCC400"/>
</svg>
