<svg width="60" height="60" viewBox="0 0 60 60" fill="none" xmlns="http://www.w3.org/2000/svg">
<path d="M41.51 50.5401H16.91C16.3513 50.5374 15.8161 50.3143 15.421 49.9192C15.0258 49.524 14.8027 48.9889 14.8 48.4301V14.6601C14.8 14.1005 15.0224 13.5638 15.4181 13.1681C15.8138 12.7724 16.3504 12.5501 16.91 12.5501H41.51C41.7875 12.5487 42.0625 12.6024 42.3191 12.708C42.5757 12.8136 42.8088 12.9689 43.005 13.1651C43.2012 13.3613 43.3566 13.5945 43.4621 13.851C43.5677 14.1076 43.6214 14.3826 43.62 14.6601V48.4301C43.62 48.9897 43.3977 49.5264 43.002 49.9221C42.6063 50.3178 42.0697 50.5401 41.51 50.5401Z" fill="#006EE5"/>
<path d="M41.51 12.5501H38.34C38.3547 12.6897 38.3547 12.8305 38.34 12.9701V42.5101C38.34 43.3427 38.176 44.1671 37.8574 44.9363C37.5387 45.7055 37.0717 46.4044 36.483 46.9931C35.8943 47.5819 35.1954 48.0489 34.4262 48.3675C33.657 48.6861 32.8325 48.8501 32 48.8501H14.84C14.9387 49.3265 15.1982 49.7546 15.5752 50.0623C15.9521 50.37 16.4234 50.5387 16.91 50.5401H41.51C42.0696 50.5401 42.6063 50.3178 43.002 49.9221C43.3977 49.5264 43.62 48.9897 43.62 48.4301V14.6601C43.6213 14.3826 43.5676 14.1076 43.462 13.851C43.3565 13.5945 43.2011 13.3613 43.0049 13.1651C42.8087 12.9689 42.5756 12.8136 42.319 12.708C42.0624 12.6024 41.7874 12.5487 41.51 12.5501Z" fill="#0062BA"/>
<path d="M40.16 15.1699H18.27C18.0463 15.1699 17.8316 15.2581 17.6725 15.4153C17.5134 15.5726 17.4227 15.7862 17.42 16.0099V47.0699C17.42 47.1815 17.442 47.2921 17.4847 47.3952C17.5275 47.4983 17.5901 47.592 17.669 47.671C17.7479 47.7499 17.8416 47.8125 17.9448 47.8552C18.0479 47.8979 18.1584 47.9199 18.27 47.9199H40.16C40.3837 47.9173 40.5974 47.8266 40.7546 47.6675C40.9119 47.5083 41.0001 47.2936 41 47.0699V15.9999C40.9949 15.7797 40.9044 15.5701 40.7477 15.4152C40.591 15.2604 40.3803 15.1725 40.16 15.1699Z" fill="#ECEFF1"/>
<path d="M40.16 15.1699H38.38V42.5099C38.3836 43.5928 38.1098 44.6586 37.5846 45.6056C37.0594 46.5527 36.3005 47.3494 35.38 47.9199H40.19C40.4137 47.9173 40.6273 47.8266 40.7846 47.6675C40.9418 47.5083 41.03 47.2936 41.03 47.0699V15.9999C41.0274 15.8883 41.0028 15.7783 40.9577 15.6761C40.9126 15.574 40.8478 15.4817 40.767 15.4047C40.6862 15.3276 40.591 15.2672 40.4868 15.2269C40.3827 15.1866 40.2716 15.1673 40.16 15.1699Z" fill="#D2D9DC"/>
<path d="M29.21 50.5401C32.4266 50.3861 35.454 48.9747 37.64 46.6101C38.0402 46.2535 38.3459 45.8034 38.53 45.3001C38.3471 44.7989 38.041 44.3519 37.64 44.0001C35.454 41.6354 32.4266 40.2241 29.21 40.0701C25.9962 40.2235 22.9717 41.6351 20.79 44.0001C20.3842 44.3517 20.0774 44.8033 19.9 45.3101C20.0799 45.8156 20.3863 46.2666 20.79 46.6201C22.9717 48.985 25.9962 50.3967 29.21 50.5501V50.5401Z" fill="white"/>
<path d="M32 11.24C31.9467 11.2378 31.896 11.2163 31.8574 11.1795C31.8187 11.1427 31.7948 11.0931 31.79 11.04C31.7328 10.3872 31.433 9.77957 30.9499 9.3369C30.4667 8.89423 29.8353 8.64868 29.18 8.64868C28.5247 8.64868 27.8932 8.89423 27.4101 9.3369C26.9269 9.77957 26.6272 10.3872 26.57 11.04C26.5652 11.0931 26.5412 11.1427 26.5026 11.1795C26.464 11.2163 26.4133 11.2378 26.36 11.24H21.77C21.6586 11.24 21.5518 11.2842 21.473 11.363C21.3942 11.4418 21.35 11.5486 21.35 11.66V16.48C21.35 16.6463 21.3829 16.811 21.4468 16.9645C21.5108 17.118 21.6045 17.2574 21.7225 17.3745C21.8406 17.4916 21.9807 17.5842 22.1347 17.647C22.2887 17.7097 22.4537 17.7413 22.62 17.74H35.81C36.5 17.74 36.88 11.24 36.65 11.24H32Z" fill="#D2D9DC"/>
<path d="M36.65 11.2399H35C35.0552 11.2399 35.1098 11.2508 35.1608 11.2719C35.2117 11.293 35.258 11.324 35.297 11.363C35.336 11.402 35.367 11.4483 35.3881 11.4992C35.4092 11.5502 35.42 11.6048 35.42 11.6599V16.4799C35.4214 16.6458 35.3897 16.8102 35.3268 16.9637C35.264 17.1172 35.1712 17.2566 35.054 17.3739C34.9367 17.4911 34.7973 17.5839 34.6438 17.6467C34.4903 17.7096 34.3259 17.7413 34.16 17.7399H35.85C36.1842 17.7399 36.5047 17.6072 36.741 17.3709C36.9773 17.1346 37.11 16.8141 37.11 16.4799V11.6599C37.1103 11.6013 37.0983 11.5432 37.0747 11.4894C37.0511 11.4357 37.0166 11.3874 36.9732 11.3479C36.9299 11.3083 36.8787 11.2783 36.8231 11.2597C36.7674 11.2411 36.7085 11.2344 36.65 11.2399Z" fill="#BCC5C9"/>
<path d="M23.55 37.3501H20.46C20.3486 37.3501 20.2418 37.3058 20.1631 37.227C20.0843 37.1483 20.04 37.0415 20.04 36.9301V27.0001L24 25.5601V36.9301C24.0002 36.9878 23.9884 37.045 23.9655 37.098C23.9425 37.151 23.9088 37.1988 23.8666 37.2382C23.8244 37.2776 23.7745 37.3079 23.72 37.3271C23.6655 37.3464 23.6077 37.3542 23.55 37.3501Z" fill="#E30E08"/>
<path d="M30.75 37.35H27.67C27.5586 37.35 27.4518 37.3058 27.373 37.227C27.2942 37.1482 27.25 37.0414 27.25 36.93V24.25L31.18 28.18V36.93C31.18 36.986 31.1688 37.0415 31.1471 37.0931C31.1254 37.1447 31.0935 37.1914 31.0535 37.2306C31.0134 37.2697 30.9659 37.3004 30.9138 37.3209C30.8617 37.3415 30.806 37.3513 30.75 37.35Z" fill="#FCC400"/>
<path d="M38 37.35H34.8699C34.7586 37.35 34.6517 37.3058 34.573 37.227C34.4942 37.1482 34.45 37.0414 34.45 36.93V25.56L38.38 24.25V36.93C38.3804 37.0348 38.3417 37.136 38.2714 37.2137C38.2011 37.2914 38.1043 37.34 38 37.35Z" fill="#006EE5"/>
<path d="M29.21 50.5401C32.1039 50.5401 34.45 48.194 34.45 45.3001C34.45 42.4061 32.1039 40.0601 29.21 40.0601C26.316 40.0601 23.97 42.4061 23.97 45.3001C23.97 48.194 26.316 50.5401 29.21 50.5401Z" fill="#80D261"/>
<path d="M48.1 18.9999L47.63 18.1899C47.5172 17.9979 47.3335 17.8578 47.1184 17.7998C46.9033 17.7418 46.6741 17.7706 46.48 17.8799L31.69 26.4399C31.643 26.4684 31.5907 26.4871 31.5363 26.495C31.4819 26.5029 31.4264 26.4997 31.3732 26.4857C31.3201 26.4718 31.2702 26.4472 31.2267 26.4136C31.1832 26.3799 31.147 26.3379 31.12 26.2899L28.69 22.0699C28.5212 21.791 28.2516 21.5876 27.937 21.502C27.6224 21.4163 27.2869 21.455 27 21.6099L10.63 30.9999C10.534 31.0549 10.4497 31.1282 10.3821 31.2159C10.3144 31.3035 10.2648 31.4036 10.236 31.5105C10.2072 31.6173 10.1998 31.7288 10.2142 31.8386C10.2286 31.9483 10.2646 32.0541 10.32 32.1499L10.79 32.9599C10.8458 33.0552 10.9198 33.1385 11.0078 33.2051C11.0958 33.2717 11.1961 33.3204 11.3029 33.3482C11.4097 33.3761 11.5209 33.3826 11.6302 33.3675C11.7396 33.3523 11.8448 33.3158 11.94 33.2599L26.73 24.7299C26.7778 24.7012 26.8309 24.6823 26.8861 24.6743C26.9413 24.6663 26.9975 24.6694 27.0515 24.6833C27.1055 24.6973 27.1561 24.7219 27.2005 24.7556C27.2449 24.7894 27.2822 24.8316 27.31 24.8799L29.74 29.0899C29.822 29.2351 29.932 29.3626 30.0637 29.465C30.1953 29.5673 30.3459 29.6426 30.5069 29.6863C30.6678 29.73 30.8358 29.7413 31.0011 29.7197C31.1665 29.698 31.3258 29.6437 31.47 29.5599L47.79 20.1299C47.9768 20.0173 48.1132 19.8372 48.1709 19.6269C48.2286 19.4165 48.2032 19.1921 48.1 18.9999Z" fill="#80D261"/>
<path d="M28.8 47.4599C28.6552 47.4611 28.5117 47.4333 28.3778 47.3784C28.2438 47.3235 28.1222 47.2424 28.02 47.1399L26.33 45.4499C26.2106 45.3319 26.143 45.1713 26.1421 45.0035C26.1412 44.8356 26.2069 44.6743 26.325 44.5549C26.443 44.4356 26.6036 44.368 26.7714 44.3671C26.9393 44.3661 27.1006 44.4319 27.22 44.5499L28.8 46.1299L31.15 43.7699C31.2064 43.7001 31.2768 43.6429 31.3567 43.6021C31.4367 43.5612 31.5243 43.5376 31.614 43.5329C31.7036 43.5281 31.7932 43.5423 31.8771 43.5744C31.9609 43.6065 32.037 43.656 32.1005 43.7194C32.1639 43.7829 32.2134 43.859 32.2455 43.9428C32.2776 44.0267 32.2918 44.1163 32.287 44.2059C32.2823 44.2956 32.2587 44.3832 32.2178 44.4632C32.177 44.5431 32.1198 44.6135 32.05 44.6699L29.57 47.1399C29.4703 47.243 29.3505 47.3246 29.2181 47.3797C29.0857 47.4347 28.9434 47.462 28.8 47.4599Z" fill="#0062BA"/>
<path d="M34.45 15.8H24C23.8329 15.8 23.6727 15.7337 23.5545 15.6155C23.4364 15.4974 23.37 15.3371 23.37 15.17C23.37 15.003 23.4364 14.8427 23.5545 14.7246C23.6727 14.6064 23.8329 14.54 24 14.54H34.45C34.6171 14.54 34.7773 14.6064 34.8955 14.7246C35.0136 14.8427 35.08 15.003 35.08 15.17C35.08 15.3371 35.0136 15.4974 34.8955 15.6155C34.7773 15.7337 34.6171 15.8 34.45 15.8Z" fill="#BCC5C9"/>
<path d="M29.21 11.8499C29.5469 11.8499 29.82 11.5768 29.82 11.2399C29.82 10.903 29.5469 10.6299 29.21 10.6299C28.8731 10.6299 28.6 10.903 28.6 11.2399C28.6 11.5768 28.8731 11.8499 29.21 11.8499Z" fill="#BCC5C9"/>
</svg>
