<svg width="60" height="60" viewBox="0 0 60 60" fill="none" xmlns="http://www.w3.org/2000/svg">
<path d="M39.26 29.6899L42.87 22.3899C43.0366 22.031 43.0567 21.6213 42.926 21.2479C42.7953 20.8744 42.5241 20.5666 42.17 20.3899L39.27 18.9699C38.9108 18.8059 38.502 18.7872 38.1292 18.9177C37.7565 19.0481 37.4486 19.3177 37.27 19.6699L32.27 29.8899L39.26 29.6899Z" fill="#E30E08"/>
<path d="M37.48 25.74C37.4411 25.8165 37.418 25.9001 37.412 25.9858C37.4061 26.0715 37.4175 26.1574 37.4455 26.2386C37.4735 26.3198 37.5175 26.3945 37.575 26.4583C37.6325 26.5221 37.7022 26.5737 37.78 26.61L40.19 27.79L40.77 26.63L38.35 25.44C38.2732 25.4025 38.1897 25.3805 38.1044 25.3752C38.0191 25.37 37.9336 25.3817 37.8528 25.4095C37.7719 25.4374 37.6974 25.4809 37.6335 25.5376C37.5695 25.5943 37.5173 25.6631 37.48 25.74Z" fill="#C40606"/>
<path d="M40.63 22.59C40.5529 22.5412 40.4664 22.5092 40.3761 22.4961C40.2858 22.4829 40.1937 22.4889 40.1059 22.5137C40.0181 22.5384 39.9365 22.5814 39.8663 22.6398C39.7962 22.6982 39.7392 22.7707 39.6989 22.8526C39.6587 22.9345 39.6362 23.0239 39.6328 23.1151C39.6294 23.2063 39.6452 23.2972 39.6793 23.3819C39.7133 23.4665 39.7649 23.543 39.8304 23.6065C39.896 23.6699 39.9742 23.7188 40.06 23.75L41.77 24.6L42.35 23.43L40.63 22.59Z" fill="#C40606"/>
<path d="M19.55 45.4301V51.5701H29.7901V48.0001H32.1101C34.5413 47.9974 36.8722 47.0305 38.5913 45.3113C40.3104 43.5922 41.2774 41.2613 41.28 38.8301V38.7201H41.85C42.0864 38.7153 42.3174 38.649 42.5204 38.5276C42.7233 38.4063 42.891 38.2342 43.0071 38.0282C43.1232 37.8223 43.1836 37.5896 43.1824 37.3532C43.1812 37.1168 43.1183 36.8848 43 36.6801C41.5743 34.4069 40.8059 31.7833 40.78 29.1001H19.55V45.4301Z" fill="#FCD0AE"/>
<path opacity="0.49" d="M43 36.6801C41.5743 34.4069 40.8059 31.7833 40.78 29.1001H36.94C36.94 32.7101 37.46 38.7501 37.46 38.7501V38.8601C37.4494 41.2861 36.479 43.6093 34.7607 45.322C33.0424 47.0346 30.716 47.9975 28.29 48.0001H26V51.5401H29.82V48.0001H32.14C34.5712 47.9974 36.9021 47.0305 38.6212 45.3113C40.3404 43.5922 41.3074 41.2613 41.31 38.8301V38.7201H41.88C42.1138 38.7103 42.3411 38.6403 42.5399 38.5169C42.7388 38.3935 42.9024 38.2209 43.015 38.0158C43.1277 37.8107 43.1854 37.58 43.1828 37.346C43.1802 37.112 43.1172 36.8826 43 36.6801Z" fill="#E59F6A"/>
<path d="M37.3 34.8C37.1277 34.8 36.9623 34.7315 36.8404 34.6096C36.7185 34.4877 36.6501 34.3224 36.6501 34.15C36.6646 33.9987 36.6473 33.8461 36.5994 33.702C36.5515 33.5578 36.474 33.4252 36.3718 33.3128C36.2697 33.2003 36.1451 33.1104 36.0062 33.049C35.8672 32.9875 35.717 32.9557 35.565 32.9557C35.4131 32.9557 35.2629 32.9875 35.1239 33.049C34.985 33.1104 34.8604 33.2003 34.7583 33.3128C34.6561 33.4252 34.5786 33.5578 34.5307 33.702C34.4828 33.8461 34.4655 33.9987 34.48 34.15C34.48 34.3224 34.4116 34.4877 34.2897 34.6096C34.1678 34.7315 34.0024 34.8 33.8301 34.8C33.6577 34.8 33.4923 34.7315 33.3704 34.6096C33.2485 34.4877 33.18 34.3224 33.18 34.15C33.1589 33.8238 33.2049 33.4967 33.3152 33.189C33.4255 32.8813 33.5977 32.5995 33.8213 32.361C34.0448 32.1225 34.3149 31.9324 34.6148 31.8025C34.9148 31.6725 35.2382 31.6055 35.565 31.6055C35.8919 31.6055 36.2153 31.6725 36.5153 31.8025C36.8152 31.9324 37.0853 32.1225 37.3088 32.361C37.5323 32.5995 37.7046 32.8813 37.8149 33.189C37.9252 33.4967 37.9712 33.8238 37.95 34.15C37.95 34.2353 37.9332 34.3199 37.9006 34.3987C37.8679 34.4776 37.82 34.5492 37.7597 34.6096C37.6993 34.67 37.6277 34.7178 37.5488 34.7505C37.4699 34.7832 37.3854 34.8 37.3 34.8Z" fill="#495256"/>
<path d="M20.05 12.2299H19.37V11.5599C19.37 11.3875 19.3015 11.2222 19.1796 11.1003C19.0577 10.9784 18.8924 10.9099 18.72 10.9099C18.5476 10.9099 18.3823 10.9784 18.2604 11.1003C18.1385 11.2222 18.07 11.3875 18.07 11.5599V12.2299H17.4C17.2276 12.2299 17.0623 12.2984 16.9404 12.4203C16.8185 12.5422 16.75 12.7075 16.75 12.8799C16.75 13.0523 16.8185 13.2176 16.9404 13.3395C17.0623 13.4614 17.2276 13.5299 17.4 13.5299H18.07V14.2099C18.07 14.3823 18.1385 14.5476 18.2604 14.6695C18.3823 14.7914 18.5476 14.8599 18.72 14.8599C18.8924 14.8599 19.0577 14.7914 19.1796 14.6695C19.3015 14.5476 19.37 14.3823 19.37 14.2099V13.5299H20.05C20.2224 13.5299 20.3877 13.4614 20.5096 13.3395C20.6315 13.2176 20.7 13.0523 20.7 12.8799C20.7 12.7075 20.6315 12.5422 20.5096 12.4203C20.3877 12.2984 20.2224 12.2299 20.05 12.2299Z" fill="#FCC400"/>
<path d="M37 8.99995H36.32V8.34995C36.32 8.26459 36.3031 8.18007 36.2705 8.10121C36.2378 8.02235 36.1899 7.95069 36.1296 7.89033C36.0692 7.82997 35.9976 7.7821 35.9187 7.74943C35.8398 7.71676 35.7553 7.69995 35.6699 7.69995C35.5846 7.69995 35.5001 7.71676 35.4212 7.74943C35.3423 7.7821 35.2707 7.82997 35.2103 7.89033C35.15 7.95069 35.1021 8.02235 35.0694 8.10121C35.0368 8.18007 35.02 8.26459 35.02 8.34995V8.99995H34.3499C34.1776 8.99995 34.0122 9.06843 33.8903 9.19033C33.7684 9.31223 33.7 9.47756 33.7 9.64995C33.7 9.82234 33.7684 9.98767 33.8903 10.1096C34.0122 10.2315 34.1776 10.3 34.3499 10.3H35V11C35 11.1723 35.0684 11.3377 35.1903 11.4596C35.3122 11.5815 35.4776 11.65 35.65 11.65C35.8223 11.65 35.9877 11.5815 36.1096 11.4596C36.2315 11.3377 36.2999 11.1723 36.2999 11V10.32H37C37.175 10.32 37.3429 10.2504 37.4666 10.1266C37.5904 10.0029 37.66 9.83499 37.66 9.65995C37.66 9.48491 37.5904 9.31704 37.4666 9.19326C37.3429 9.06949 37.175 8.99995 37 8.99995Z" fill="#FCC400"/>
<path d="M41.51 13.88H40.84V13.2C40.8202 13.0402 40.7427 12.8932 40.622 12.7866C40.5014 12.6799 40.346 12.6211 40.185 12.6211C40.024 12.6211 39.8685 12.6799 39.7479 12.7866C39.6272 12.8932 39.5497 13.0402 39.53 13.2V13.88H38.86C38.6876 13.88 38.5222 13.9485 38.4003 14.0704C38.2784 14.1923 38.21 14.3576 38.21 14.53C38.21 14.7024 38.2784 14.8677 38.4003 14.9896C38.5222 15.1115 38.6876 15.18 38.86 15.18H39.53V15.85C39.5185 15.9428 39.5268 16.037 39.5545 16.1263C39.5822 16.2157 39.6285 16.2981 39.6904 16.3682C39.7524 16.4382 39.8285 16.4944 39.9137 16.5328C39.999 16.5712 40.0914 16.5911 40.185 16.5911C40.2785 16.5911 40.3709 16.5712 40.4562 16.5328C40.5414 16.4944 40.6176 16.4382 40.6795 16.3682C40.7414 16.2981 40.7878 16.2157 40.8154 16.1263C40.8431 16.037 40.8515 15.9428 40.84 15.85V15.18H41.51C41.6824 15.18 41.8477 15.1115 41.9696 14.9896C42.0915 14.8677 42.16 14.7024 42.16 14.53C42.16 14.3576 42.0915 14.1923 41.9696 14.0704C41.8477 13.9485 41.6824 13.88 41.51 13.88Z" fill="#FCC400"/>
<path d="M31.68 19.5801V14.5801C31.6405 13.359 31.3271 12.1624 30.7628 11.0789C30.1985 9.9953 29.3978 9.05245 28.42 8.32007C27.4329 9.05343 26.6219 9.99767 26.0458 11.084C25.4698 12.1704 25.1432 13.3716 25.09 14.6001V19.5501L25.76 21.1201C26.0668 21.5164 26.4612 21.8363 26.9123 22.0549C27.3633 22.2735 27.8588 22.3848 28.36 22.3801C28.8654 22.388 29.3659 22.2804 29.8234 22.0655C30.2809 21.8506 30.6833 21.5341 31 21.1401L31.68 19.5801Z" fill="#ECEFF1"/>
<path d="M28.4401 8.3501C27.9165 8.77717 27.4344 9.25261 27.0001 9.7701C28.1619 11.1171 28.8101 12.8314 28.8301 14.6101V19.6101L28.1101 21.1701C27.7976 21.5758 27.3931 21.9015 26.9301 22.1201C27.3782 22.3385 27.8716 22.4482 28.3701 22.4401C28.8787 22.4394 29.3804 22.3218 29.8364 22.0964C30.2924 21.871 30.6906 21.5438 31.0001 21.1401L31.7101 19.5801V14.5801C31.665 13.3633 31.3479 12.1721 30.782 11.094C30.2161 10.0159 29.4159 9.07832 28.4401 8.3501Z" fill="#BCC5C9"/>
<path d="M28.44 8.3501C26.6703 9.69337 25.4937 11.6735 25.16 13.8701H31.66C31.3517 11.6792 30.1954 9.69692 28.44 8.3501Z" fill="#006EE5"/>
<path d="M28.44 8.3501C27.9165 8.77717 27.4344 9.25261 27 9.7701C27.987 10.9281 28.6129 12.3501 28.8 13.8601H31.66C31.3492 11.6728 30.1931 9.69453 28.44 8.3501Z" fill="#0062BA"/>
<path d="M26.61 19.21C26.61 19.9 23.86 23.28 23.86 23.28C23.86 23.28 23.86 19.95 23.86 19.22C23.8678 18.8619 24.0156 18.5211 24.2717 18.2706C24.5278 18.0201 24.8718 17.8799 25.23 17.88C25.4085 17.8747 25.5862 17.905 25.7528 17.9694C25.9193 18.0337 26.0713 18.1307 26.1999 18.2546C26.3285 18.3785 26.431 18.5268 26.5014 18.6909C26.5718 18.855 26.6087 19.0314 26.61 19.21Z" fill="#006EE5"/>
<path d="M30.15 19.1999C30.15 19.8899 32.85 23.2499 32.85 23.2499C32.85 23.2499 32.85 19.9299 32.85 19.1999C32.85 19.0231 32.815 18.848 32.7471 18.6848C32.6791 18.5216 32.5795 18.3734 32.454 18.2488C32.3285 18.1243 32.1796 18.0258 32.0159 17.959C31.8522 17.8923 31.6768 17.8586 31.5 17.8599C31.1453 17.865 30.8064 18.0075 30.5546 18.2574C30.3028 18.5074 30.1578 18.8452 30.15 19.1999Z" fill="#006EE5"/>
<path d="M27.19 30.4201C27.0176 30.4201 26.8523 30.3516 26.7304 30.2297C26.6085 30.1078 26.54 29.9425 26.54 29.7701V24.4801C26.54 24.3077 26.6085 24.1424 26.7304 24.0205C26.8523 23.8986 27.0176 23.8301 27.19 23.8301C27.3624 23.8301 27.5278 23.8986 27.6497 24.0205C27.7716 24.1424 27.84 24.3077 27.84 24.4801V29.7701C27.84 29.8554 27.8232 29.94 27.7906 30.0188C27.7579 30.0977 27.71 30.1693 27.6497 30.2297C27.5893 30.2901 27.5176 30.3379 27.4388 30.3706C27.3599 30.4033 27.2754 30.4201 27.19 30.4201Z" fill="#D2D9DC"/>
<path d="M29.62 30.4201C29.4476 30.4201 29.2823 30.3516 29.1604 30.2297C29.0385 30.1078 28.97 29.9425 28.97 29.7701V24.4801C28.97 24.3077 29.0385 24.1424 29.1604 24.0205C29.2823 23.8986 29.4476 23.8301 29.62 23.8301C29.7924 23.8301 29.9577 23.8986 30.0796 24.0205C30.2015 24.1424 30.27 24.3077 30.27 24.4801V29.7701C30.27 29.8554 30.2532 29.94 30.2205 30.0188C30.1878 30.0977 30.1399 30.1693 30.0796 30.2297C30.0192 30.2901 29.9476 30.3379 29.8687 30.3706C29.7899 30.4033 29.7053 30.4201 29.62 30.4201Z" fill="#D2D9DC"/>
<path d="M21.32 23.15L16.32 18.96L15 25.44L18.7 25.7L21.32 23.15Z" fill="#FFE6C4"/>
<path d="M23.47 29.5099L21.32 23.1499L18.62 25.6699L15 25.4399L16.45 29.6899L23.47 29.5099Z" fill="#FCC400"/>
<path d="M16.3401 19L15.9301 21L17.9301 20.32L16.3401 19Z" fill="#495256"/>
<path d="M21.32 23.1499L18.62 25.6699L19.93 29.5999L23.49 29.5099L21.32 23.1499Z" fill="#FEB237"/>
<path d="M25.18 39.5501C24.3843 39.5501 23.6213 39.234 23.0587 38.6714C22.4961 38.1088 22.18 37.3458 22.18 36.5501C22.18 35.7545 22.4961 34.9914 23.0587 34.4288C23.6213 33.8662 24.3843 33.5501 25.18 33.5501C25.6863 33.5861 26.1782 33.7351 26.6194 33.986C27.0607 34.2369 27.4401 34.5834 27.73 35.0001C28.6346 34.3181 29.3602 33.4268 29.8444 32.4026C30.3286 31.3784 30.557 30.252 30.51 29.1201H14.72C14.72 29.1201 11.72 40.6401 19.62 45.4701C22.1619 44.2772 24.1612 42.1707 25.22 39.5701" fill="#495256"/>
<path d="M25 37.1799C25.1724 37.1799 25.3377 37.1114 25.4596 36.9895C25.5815 36.8676 25.65 36.7023 25.65 36.5299C25.65 36.3575 25.5815 36.1922 25.4596 36.0703C25.3377 35.9484 25.1724 35.8799 25 35.8799C24.8276 35.8799 24.6623 35.9484 24.5404 36.0703C24.4185 36.1922 24.35 36.3575 24.35 36.5299C24.35 36.7023 24.4185 36.8676 24.5404 36.9895C24.6623 37.1114 24.8276 37.1799 25 37.1799Z" fill="#FAC2AA"/>
</svg>
