<svg width="60" height="60" viewBox="0 0 60 60" fill="none" xmlns="http://www.w3.org/2000/svg">
<path d="M46.0899 10.6499C39.0899 10.6499 33.4399 14.1499 33.4399 18.4699C33.459 19.6824 33.8812 20.854 34.6399 21.7999C34.9739 22.2513 35.1344 22.8077 35.0922 23.3677C35.05 23.9276 34.8078 24.4537 34.4099 24.8499L32.1499 27.0999L40.1499 25.3899C42.0595 26.0033 44.0542 26.3104 46.0599 26.2999C53.0599 26.2999 58.7199 22.7999 58.7199 18.4699C58.7199 14.1399 53.0799 10.6499 46.0899 10.6499Z" fill="#E30E08"/>
<path d="M46.0901 10.65C45.4221 10.648 44.7545 10.6814 44.0901 10.75C50.0901 11.34 54.7201 14.57 54.7201 18.47C54.7201 22.37 50.1201 25.6 44.0901 26.2C44.7545 26.2686 45.4221 26.302 46.0901 26.3C53.0901 26.3 58.7501 22.8 58.7501 18.47C58.7501 14.14 53.0801 10.65 46.0901 10.65Z" fill="#C40606"/>
<path d="M45.8099 20.74C45.7264 20.7413 45.6434 20.726 45.5658 20.6949C45.4882 20.6639 45.4175 20.6177 45.358 20.559C45.2984 20.5004 45.2511 20.4305 45.2188 20.3534C45.1865 20.2763 45.1699 20.1936 45.1699 20.11V19.89C45.165 19.459 45.2804 19.0351 45.5029 18.6659C45.7255 18.2968 46.0465 17.9969 46.4299 17.8C46.6081 17.7128 46.7652 17.588 46.8904 17.4342C47.0156 17.2804 47.106 17.1012 47.1551 16.9091C47.2043 16.7169 47.2112 16.5164 47.1753 16.3213C47.1394 16.1263 47.0616 15.9413 46.9472 15.7793C46.8328 15.6172 46.6846 15.482 46.5128 15.3828C46.341 15.2837 46.1498 15.223 45.9523 15.205C45.7547 15.187 45.5557 15.2121 45.3688 15.2786C45.1819 15.345 45.0117 15.4513 44.8699 15.59C44.7318 15.7169 44.622 15.8716 44.5479 16.044C44.4738 16.2163 44.437 16.4024 44.4399 16.59C44.4399 16.758 44.3739 16.9193 44.256 17.039C44.1382 17.1588 43.9779 17.2274 43.8099 17.23C43.6402 17.23 43.4774 17.1626 43.3574 17.0425C43.2374 16.9225 43.1699 16.7597 43.1699 16.59C43.1699 16.1228 43.2943 15.664 43.5304 15.2608C43.7665 14.8576 44.1057 14.5246 44.5132 14.296C44.9207 14.0674 45.3817 13.9515 45.8489 13.9602C46.316 13.9689 46.7724 14.1018 47.1711 14.3454C47.5698 14.589 47.8964 14.9344 48.1173 15.3461C48.3383 15.7578 48.4455 16.2209 48.4281 16.6878C48.4107 17.1547 48.2692 17.6086 48.0182 18.0026C47.7671 18.3967 47.4157 18.7168 46.9999 18.93C46.8214 19.0264 46.6739 19.1716 46.5747 19.3487C46.4756 19.5258 46.4288 19.7274 46.4399 19.93V20.15C46.4297 20.3101 46.3589 20.4602 46.2418 20.5698C46.1248 20.6795 45.9703 20.7403 45.8099 20.74Z" fill="white"/>
<path d="M45.8099 23C45.6402 23 45.4774 22.9325 45.3574 22.8125C45.2374 22.6925 45.1699 22.5297 45.1699 22.36C45.1894 22.2053 45.2646 22.063 45.3815 21.9599C45.4985 21.8567 45.649 21.7998 45.8049 21.7998C45.9608 21.7998 46.1114 21.8567 46.2283 21.9599C46.3452 22.063 46.4205 22.2053 46.4399 22.36C46.4399 22.528 46.3739 22.6893 46.256 22.809C46.1382 22.9288 45.9779 22.9973 45.8099 23Z" fill="white"/>
<path d="M21.71 7.6001C19.4 7.6001 17.1845 8.51776 15.5511 10.1512C13.9177 11.7846 13 14.0001 13 16.3101V19.7601C13.2915 19.4781 13.6415 19.2638 14.0252 19.1324C14.4089 19.0011 14.8169 18.9559 15.22 19.0001V18.6001C15.2198 18.5191 15.2363 18.439 15.2684 18.3647C15.3005 18.2904 15.3476 18.2234 15.4067 18.1681C15.4658 18.1128 15.5357 18.0702 15.6119 18.043C15.6882 18.0158 15.7692 18.0046 15.85 18.0101C19.1683 18.1897 22.4575 17.307 25.24 15.4901C25.3567 15.4123 25.4973 15.3787 25.6366 15.3952C25.7758 15.4117 25.9047 15.4772 26 15.5801C28.22 17.9601 28.21 17.8701 28.21 18.1801V19.0001C28.6028 18.9316 29.006 18.9536 29.389 19.0645C29.772 19.1754 30.1246 19.3723 30.42 19.6401V16.3101C30.42 14.0001 29.5023 11.7846 27.8689 10.1512C26.2355 8.51776 24.02 7.6001 21.71 7.6001Z" fill="#495256"/>
<path d="M14.74 16.31C14.7414 14.1506 15.5439 12.0685 16.9922 10.4669C18.4405 8.8652 20.4316 7.8579 22.58 7.63998C22.2902 7.62456 21.9998 7.62456 21.71 7.63998C19.4069 7.63995 17.1975 8.55212 15.5652 10.1769C13.9329 11.8017 13.0106 14.0069 13 16.31V19.76C13.4728 19.3103 14.0888 19.0413 14.74 19V16.31Z" fill="#31343F"/>
<path d="M28.0901 18.69V23.62C28.4532 23.6897 28.8272 23.6783 29.1854 23.5867C29.5435 23.4951 29.8771 23.3254 30.1621 23.0899C30.4471 22.8544 30.6765 22.5589 30.8341 22.2244C30.9916 21.8899 31.0732 21.5247 31.0732 21.155C31.0732 20.7853 30.9916 20.4201 30.8341 20.0857C30.6765 19.7512 30.4471 19.4556 30.1621 19.2201C29.8771 18.9846 29.5435 18.815 29.1854 18.7233C28.8272 18.6317 28.4532 18.6203 28.0901 18.69Z" fill="#F2BB88"/>
<path d="M15.3301 23.4601V18.6901C14.9691 18.6398 14.6017 18.6647 14.2508 18.7634C13.9 18.862 13.5734 19.0323 13.2916 19.2634C13.0098 19.4945 12.7788 19.7814 12.6134 20.1061C12.4479 20.4308 12.3514 20.7863 12.3301 21.1501C12.3342 21.5202 12.4191 21.885 12.5789 22.2189C12.7388 22.5528 12.9697 22.8477 13.2555 23.083C13.5412 23.3183 13.875 23.4883 14.2334 23.5811C14.5917 23.6738 14.966 23.6871 15.3301 23.6201V23.4601Z" fill="#F2BB88"/>
<path d="M29.8401 19.0001C29.3062 18.7086 28.6905 18.6031 28.0901 18.7001V23.6301C28.6917 23.728 29.3087 23.6187 29.8401 23.3201V19.0001Z" fill="#E3A76F"/>
<path d="M15.3301 23.3101C14.9482 23.102 14.6294 22.7948 14.4073 22.4209C14.1852 22.0469 14.068 21.62 14.068 21.1851C14.068 20.7502 14.1852 20.3233 14.4073 19.9493C14.6294 19.5754 14.9482 19.2682 15.3301 19.0601V18.6901C14.9691 18.6398 14.6017 18.6647 14.2508 18.7634C13.9 18.862 13.5734 19.0323 13.2916 19.2634C13.0098 19.4945 12.7788 19.7814 12.6134 20.1061C12.4479 20.4308 12.3514 20.7863 12.3301 21.1501C12.3342 21.5202 12.4191 21.885 12.5789 22.2189C12.7388 22.5528 12.9697 22.8477 13.2555 23.083C13.5412 23.3183 13.875 23.4883 14.2334 23.5811C14.5917 23.6738 14.966 23.6871 15.3301 23.6201V23.3101Z" fill="#E3A76F"/>
<path d="M21.7999 29.7501C20.5129 29.7705 19.2468 29.4237 18.1499 28.7501V32.1701L21.7899 36.6601L25.4299 32.1701V28.6201C24.3629 29.3569 23.0966 29.7511 21.7999 29.7501Z" fill="#FCD0AE"/>
<path opacity="0.5" d="M21.7999 29.7501C20.5129 29.7705 19.2468 29.4237 18.1499 28.7501V32.1701L21.7899 36.6601L25.4299 32.1701V28.6201C24.3629 29.3569 23.0966 29.7511 21.7999 29.7501Z" fill="#E59F6A"/>
<path d="M19.8899 29.49C19.2746 29.322 18.688 29.0624 18.1499 28.72V32.14L19.8899 34.29V29.49Z" fill="#E3A76F"/>
<path d="M35.06 35.6399L25.43 31.9099L21.79 36.3999L18.15 31.9099L8.52 35.6399C7.46856 36.1293 6.57874 36.9088 5.95517 37.8867C5.3316 38.8646 5.00022 40.0001 5 41.1599V50.1599C5 50.38 5.08745 50.5912 5.2431 50.7468C5.39876 50.9025 5.60987 50.9899 5.83 50.9899H37.83C38.0501 50.9899 38.2612 50.9025 38.4169 50.7468C38.5726 50.5912 38.66 50.38 38.66 50.1599V41.1599C38.6528 39.9914 38.3095 38.8497 37.6712 37.8709C37.0328 36.8921 36.1264 36.1177 35.06 35.6399Z" fill="#006EE5"/>
<path d="M6.71 50.1801V40.2901C6.70011 39.3201 6.92834 38.3625 7.37466 37.5012C7.82099 36.64 8.47179 35.9013 9.27 35.3501L8.52 35.6401C7.46856 36.1295 6.57874 36.909 5.95517 37.8869C5.3316 38.8647 5.00022 40.0003 5 41.1601V50.1601C5 50.3802 5.08745 50.5913 5.2431 50.747C5.39876 50.9027 5.60987 50.9901 5.83 50.9901H7.54C7.32329 50.9902 7.11515 50.9055 6.96006 50.7541C6.80497 50.6028 6.71522 50.3967 6.71 50.1801Z" fill="#0062BA"/>
<path d="M26 15.3499C25.9047 15.247 25.7758 15.1815 25.6365 15.165C25.4973 15.1485 25.3567 15.1821 25.24 15.2599C22.4575 17.0768 19.1683 17.9595 15.85 17.7799C15.7692 17.7744 15.6882 17.7856 15.6119 17.8128C15.5356 17.84 15.4658 17.8826 15.4067 17.9379C15.3476 17.9933 15.3005 18.0602 15.2684 18.1345C15.2363 18.2088 15.2198 18.289 15.22 18.3699V23.5799C15.22 25.3038 15.9048 26.9571 17.1238 28.1761C18.3428 29.3951 19.9961 30.0799 21.72 30.0799C23.4439 30.0799 25.0972 29.3951 26.3162 28.1761C27.5352 26.9571 28.22 25.3038 28.22 23.5799V17.9999C28.21 17.6399 28.22 17.7299 26 15.3499Z" fill="#FCD0AE"/>
<path opacity="0.5" d="M17 23.58V17.81C16.6303 17.8299 16.2597 17.8299 15.89 17.81C15.8092 17.8045 15.7282 17.8157 15.6519 17.8428C15.5757 17.87 15.5058 17.9126 15.4467 17.968C15.3876 18.0233 15.3405 18.0902 15.3084 18.1645C15.2763 18.2389 15.2598 18.319 15.26 18.4V23.61C15.2625 24.4611 15.4345 25.3032 15.7659 26.0872C16.0973 26.8712 16.5815 27.5813 17.1903 28.1761C17.7991 28.7709 18.5203 29.2386 19.3117 29.5517C20.1032 29.8648 20.949 30.0172 21.8 30C22.0608 29.9989 22.3212 29.9822 22.58 29.95C21.0353 29.7461 19.6175 28.9874 18.5908 27.8154C17.5642 26.6434 16.9988 25.138 17 23.58Z" fill="#E59F6A"/>
<path d="M26.18 38.7099L28.91 33.2499L25.43 31.9099L21.79 36.3999L25.34 38.9199C25.4065 38.9693 25.4831 39.0033 25.5644 39.0195C25.6456 39.0357 25.7294 39.0337 25.8097 39.0136C25.89 38.9935 25.9649 38.9558 26.029 38.9033C26.093 38.8508 26.1446 38.7848 26.18 38.7099Z" fill="#0062BA"/>
<path d="M17.3999 38.7099L14.6699 33.2499L18.1499 31.9099L21.7899 36.3999L18.2399 38.9199C18.1734 38.9693 18.0968 39.0033 18.0156 39.0195C17.9344 39.0357 17.8506 39.0337 17.7703 39.0136C17.6899 38.9935 17.615 38.9558 17.551 38.9033C17.4869 38.8508 17.4354 38.7848 17.3999 38.7099Z" fill="#0062BA"/>
<path d="M21.79 36.3999L19.21 38.2399L20.43 40.0699H23.15L24.37 38.2399L21.79 36.3999Z" fill="white"/>
<path d="M18.5801 51.0001H25.0001L23.1501 40.0701H20.4301L18.5801 51.0001Z" fill="white"/>
<path d="M22.66 36.9999L21.79 36.3799L19.21 38.2199L20.43 40.0499H22.17L21.17 38.6199C21.0971 38.5124 21.0699 38.3805 21.0943 38.253C21.1187 38.1255 21.1926 38.0129 21.3 37.9399L22.66 36.9999Z" fill="#ECEFF1"/>
<path d="M20.4301 40.0701L18.5801 51.0001H20.3201L22.1701 40.0601L20.4301 40.0701Z" fill="#ECEFF1"/>
<path d="M11.6801 51V42.56C11.6801 42.4716 11.6624 42.3841 11.628 42.3027C11.5936 42.2213 11.5432 42.1476 11.4798 42.0861C11.4163 42.0245 11.3412 41.9763 11.2588 41.9443C11.1764 41.9124 11.0884 41.8973 11.0001 41.9C10.8258 41.9025 10.6595 41.9729 10.5363 42.0961C10.413 42.2193 10.3427 42.3857 10.3401 42.56V51H11.6801Z" fill="#0062BA"/>
<path d="M33.22 51V45.18C33.2315 45.0872 33.2232 44.993 33.1955 44.9037C33.1678 44.8144 33.1215 44.732 33.0596 44.6619C32.9976 44.5918 32.9215 44.5357 32.8363 44.4973C32.751 44.4588 32.6585 44.439 32.565 44.439C32.4715 44.439 32.3791 44.4588 32.2938 44.4973C32.2086 44.5357 32.1324 44.5918 32.0705 44.6619C32.0086 44.732 31.9622 44.8144 31.9346 44.9037C31.9069 44.993 31.8985 45.0872 31.91 45.18V51H33.22Z" fill="#0062BA"/>
</svg>
