<svg width="60" height="60" viewBox="0 0 60 60" fill="none" xmlns="http://www.w3.org/2000/svg">
<path d="M27.5 37.9999V22.7099C27.4974 22.412 27.3772 22.1271 27.1655 21.9174C26.9539 21.7076 26.668 21.5899 26.37 21.5899H25.54C25.4193 21.5891 25.3027 21.5454 25.2112 21.4666C25.1196 21.3879 25.059 21.2792 25.04 21.1599H22.76C22.6942 21.1591 22.6306 21.1358 22.5797 21.094C22.5288 21.0522 22.4936 20.9944 22.48 20.9299C22.23 19.7699 21.22 18.4299 20.04 18.4299C19.5041 18.6803 19.04 19.0617 18.6904 19.5388C18.3409 20.016 18.1172 20.5735 18.04 21.1599C18.0233 21.281 17.9635 21.3921 17.8718 21.4728C17.78 21.5536 17.6623 21.5987 17.54 21.5999H13.54C13.4048 21.5999 13.275 21.6537 13.1794 21.7493C13.0838 21.845 13.03 21.9747 13.03 22.1099V37.9999C13.03 38.1352 13.0838 38.2649 13.1794 38.3606C13.275 38.4562 13.4048 38.5099 13.54 38.5099H27C27.1335 38.5073 27.2607 38.4524 27.3542 38.3571C27.4477 38.2617 27.5001 38.1335 27.5 37.9999Z" fill="#FCC400"/>
<path d="M22 21.1499C22.017 21.2727 22.0782 21.3851 22.172 21.4661C22.2659 21.547 22.386 21.5911 22.51 21.5899H25.51C25.3878 21.5886 25.27 21.5435 25.1783 21.4628C25.0865 21.382 25.0268 21.271 25.01 21.1499C24.9389 20.5988 24.7384 20.0723 24.4248 19.6136C24.1112 19.1549 23.6935 18.7769 23.2058 18.5106C22.7181 18.2443 22.1742 18.0973 21.6188 18.0815C21.0633 18.0657 20.512 18.1817 20.01 18.4199C20.5435 18.6723 21.0052 19.0545 21.3528 19.5314C21.7004 20.0083 21.923 20.5648 22 21.1499Z" fill="#FEB237"/>
<path d="M29.51 21.59H25.86C26.0087 21.5874 26.1565 21.6144 26.2947 21.6695C26.4329 21.7246 26.5588 21.8066 26.6649 21.9109C26.771 22.0152 26.8553 22.1395 26.9129 22.2767C26.9704 22.414 27 22.5612 27 22.71V38C27 38.1353 26.9463 38.265 26.8506 38.3606C26.755 38.4563 26.6252 38.51 26.49 38.51H29.49C29.6252 38.51 29.755 38.4563 29.8506 38.3606C29.9463 38.265 30 38.1353 30 38L31.4 36.42V23.65L30 22.1C30 22.033 29.9868 21.9667 29.9612 21.9049C29.9355 21.843 29.898 21.7868 29.8506 21.7394C29.8033 21.692 29.747 21.6545 29.6852 21.6288C29.6233 21.6032 29.557 21.59 29.49 21.59H29.51Z" fill="#FEB237"/>
<path d="M30.53 21.5901C30.463 21.5901 30.3967 21.6033 30.3348 21.6289C30.273 21.6545 30.2167 21.6921 30.1694 21.7395C30.122 21.7868 30.0845 21.843 30.0588 21.9049C30.0332 21.9668 30.02 22.0331 30.02 22.1001V26.5401C29.5381 26.5036 29.0539 26.5671 28.5977 26.7264C28.1415 26.8858 27.7231 27.1377 27.3687 27.4662C27.0144 27.7948 26.7317 28.193 26.5384 28.6359C26.345 29.0788 26.2452 29.5568 26.2452 30.0401C26.2452 30.5233 26.345 31.0014 26.5384 31.4443C26.7317 31.8872 27.0144 32.2854 27.3687 32.6139C27.7231 32.9425 28.1415 33.1944 28.5977 33.3537C29.0539 33.5131 29.5381 33.5765 30.02 33.5401V38.0001C30.02 38.1353 30.0737 38.2651 30.1694 38.3607C30.265 38.4564 30.3947 38.5101 30.53 38.5101H35C35.0016 39.1718 35.1902 39.8195 35.5441 40.3786C35.898 40.9377 36.4027 41.3854 37 41.6701C37.1791 41.7622 37.3818 41.7982 37.5816 41.7732C37.7815 41.7482 37.9691 41.6635 38.12 41.5301C38.6869 41.0478 39.0832 40.3955 39.25 39.6701C39.2968 39.4408 39.4224 39.2352 39.6051 39.089C39.7879 38.9428 40.0161 38.8654 40.25 38.8701H41.72L42.02 38.5101H43.46C43.7491 38.5101 44.0263 38.3952 44.2308 38.1908C44.4352 37.9864 44.55 37.7092 44.55 37.4201V21.5901H30.53Z" fill="#E30E08"/>
<path d="M46.44 21.5901H43.91V37.4301C43.9113 37.5728 43.8843 37.7143 43.8306 37.8465C43.7769 37.9786 43.6976 38.0989 43.5972 38.2002C43.4968 38.3016 43.3773 38.382 43.2456 38.4369C43.1139 38.4918 42.9726 38.5201 42.83 38.5201H46.44C46.5119 38.5272 46.5845 38.5189 46.6529 38.4959C46.7214 38.4728 46.7842 38.4354 46.8371 38.3863C46.8901 38.3371 46.932 38.2773 46.96 38.2107C46.9881 38.1441 47.0017 38.0723 47 38.0001V22.1001C47 22.0331 46.9868 21.9668 46.9611 21.9049C46.9355 21.843 46.8979 21.7868 46.8506 21.7395C46.8032 21.6921 46.747 21.6545 46.6851 21.6289C46.6232 21.6033 46.5569 21.5901 46.49 21.5901H46.44Z" fill="#C40606"/>
<path d="M38.87 39.31C38.7536 39.819 38.5254 40.2958 38.202 40.7057C37.8785 41.1156 37.468 41.4484 37 41.68C37.5333 41.933 38.1219 42.047 38.7111 42.0114C39.3003 41.9758 39.8709 41.7917 40.3699 41.4764C40.8688 41.161 41.2799 40.7246 41.5649 40.2077C41.85 39.6909 41.9996 39.1103 42 38.52H39.86C39.6275 38.5148 39.4004 38.5909 39.2179 38.7351C39.0353 38.8793 38.9088 39.0826 38.86 39.31H38.87Z" fill="#C40606"/>
<path d="M19.06 49.5401V48.8101C19.0598 48.3313 19.1801 47.8601 19.41 47.4401L21.17 43.8901C21.8246 42.3081 21.9849 40.565 21.63 38.8901C21.3532 35.2904 21.2864 31.6776 21.43 28.0701C20.6917 28.7402 20.096 29.5522 19.6784 30.4577C19.2609 31.3631 19.0302 32.3435 19 33.3401V36.6501C18.9778 36.9101 18.8903 37.1603 18.7456 37.3775C18.601 37.5946 18.4038 37.7718 18.1724 37.8924C17.9411 38.0131 17.683 38.0734 17.4221 38.0678C17.1612 38.0621 16.9059 37.9907 16.68 37.8601L14 35.1501C13.4111 34.5614 13.0802 33.7628 13.08 32.9301V25.8501C11.79 26.8501 10.56 27.9701 10.08 28.3601C9.82526 28.5863 9.62068 28.8633 9.47945 29.1733C9.33822 29.4833 9.26347 29.8194 9.26002 30.1601L8.49002 36.6401C8.39772 37.5753 8.60054 38.516 9.07002 39.3301C10.1939 41.3208 11.1957 43.3779 12.07 45.4901C12.2084 45.8403 12.2797 46.2135 12.28 46.5901V49.5401H19.06Z" fill="#FCD0AE"/>
<path d="M24.15 40.27L23.79 37.27V29.36C23.79 28.46 23.44 27.72 22.54 27.72C22.2919 27.7033 22.0438 27.7516 21.82 27.86C21.4995 28.0127 21.2294 28.2539 21.0416 28.5551C20.8538 28.8564 20.7561 29.2051 20.76 29.56V35.56C20.7616 36.6896 20.8283 37.8182 20.96 38.94L21.12 40.3C21.2628 41.5411 21.0477 42.7972 20.5 43.92L18.74 47.47C18.5101 47.8901 18.3897 48.3612 18.39 48.84V49.57H21.39V48.84C21.3897 48.3612 21.5101 47.8901 21.74 47.47C22.9 44.73 24.45 43.18 24.12 40.3L24.15 40.27Z" fill="#FCD0AE"/>
<g opacity="0.5">
<path d="M24.15 40.27L23.79 37.27V29.36C23.79 28.46 23.44 27.72 22.54 27.72C22.2919 27.7033 22.0438 27.7516 21.82 27.86C21.4995 28.0127 21.2294 28.2539 21.0416 28.5551C20.8538 28.8564 20.7561 29.2051 20.76 29.56V35.56C20.7616 36.6896 20.8283 37.8182 20.96 38.94L21.12 40.3C21.2628 41.5411 21.0477 42.7972 20.5 43.92L18.74 47.47C18.5101 47.8901 18.3897 48.3612 18.39 48.84V49.57H21.39V48.84C21.3897 48.3612 21.5101 47.8901 21.74 47.47C22.9 44.73 24.45 43.18 24.12 40.3L24.15 40.27Z" fill="#E59F6A"/>
</g>
<path d="M19.53 47.7H11.59C11.3911 47.7 11.2003 47.779 11.0596 47.9196C10.919 48.0603 10.84 48.251 10.84 48.45V50.75C10.8399 50.9498 10.9186 51.1416 11.059 51.2838C11.1994 51.4261 11.3901 51.5073 11.59 51.5099H19.82L20.28 51.0499V48.45C20.28 48.251 20.2009 48.0603 20.0603 47.9196C19.9196 47.779 19.7289 47.7 19.53 47.7Z" fill="#006EE5"/>
<path d="M22.85 50.75V48.45C22.85 48.3507 22.8302 48.2523 22.7919 48.1607C22.7536 48.069 22.6975 47.9859 22.6268 47.9161C22.5561 47.8463 22.4722 47.7913 22.3801 47.7542C22.2879 47.7171 22.1893 47.6987 22.09 47.7H19.09C19.1893 47.6987 19.2879 47.7171 19.3801 47.7542C19.4722 47.7913 19.5561 47.8463 19.6268 47.9161C19.6975 47.9859 19.7536 48.069 19.7919 48.1607C19.8302 48.2523 19.85 48.3507 19.85 48.45V51.51H22.12C22.3215 51.51 22.5148 51.4299 22.6574 51.2874C22.7999 51.1449 22.88 50.9516 22.88 50.75H22.85Z" fill="#0062BA"/>
<path d="M47 28.4899V32.2399L47.6 31.7499C48.1044 31.242 48.3883 30.5557 48.39 29.8399L49.15 23.3599C49.2417 22.4247 49.0389 21.4843 48.57 20.6699C47.4502 18.6772 46.4484 16.6203 45.57 14.5099C45.4393 14.1613 45.3716 13.7922 45.37 13.4199V10.4199H38.62V11.1499C38.6203 11.6287 38.4999 12.0999 38.27 12.5199L36.51 16.0699C35.29 18.5799 36.13 20.5099 36.25 22.7399V30.5999C36.25 31.4999 36.6 32.2399 37.5 32.2399C39.1 32.4099 41 29.0899 41 26.6199V23.3499C40.9952 23.1639 41.0292 22.9789 41.0997 22.8068C41.1703 22.6346 41.276 22.479 41.41 22.3499C41.6713 22.1365 41.9887 22.0031 42.324 21.9658C42.6593 21.9285 42.9983 21.989 43.3 22.1399L46 24.8499C46.3061 25.1347 46.5523 25.4778 46.724 25.859C46.8957 26.2403 46.9896 26.6519 47 27.0699V28.4899Z" fill="#FCD0AE"/>
<path d="M51 20.6699C49.8762 18.6792 48.8743 16.6221 48 14.5099C47.8612 14.1633 47.7899 13.7933 47.79 13.4199V10.4199H44.79V13.4199C44.7916 13.7922 44.8593 14.1613 44.99 14.5099C45.8645 16.622 46.8664 18.6791 47.99 20.6699C48.4511 21.487 48.65 22.426 48.56 23.3599L47.8 29.8399C47.794 30.1753 47.72 30.506 47.5825 30.8119C47.445 31.1179 47.2468 31.3927 47 31.6199V34.1599C48.29 33.1599 49.52 32.0299 50 31.6399C50.2576 31.4155 50.4647 31.139 50.6078 30.8288C50.7508 30.5186 50.8266 30.1815 50.83 29.8399L51.6 23.3599C51.6803 22.423 51.4709 21.484 51 20.6699Z" fill="#FCD0AE"/>
<path opacity="0.5" d="M51 20.6699C49.8762 18.6792 48.8743 16.6221 48 14.5099C47.8612 14.1633 47.7899 13.7933 47.79 13.4199V10.4199H44.79V13.4199C44.7916 13.7922 44.8593 14.1613 44.99 14.5099C45.8645 16.622 46.8664 18.6791 47.99 20.6699C48.4511 21.487 48.65 22.426 48.56 23.3599L47.8 29.8399C47.794 30.1753 47.72 30.506 47.5825 30.8119C47.445 31.1179 47.2468 31.3927 47 31.6199V34.1599C48.29 33.1599 49.52 32.0299 50 31.6399C50.2576 31.4155 50.4647 31.139 50.6078 30.8288C50.7508 30.5186 50.8266 30.1815 50.83 29.8399L51.6 23.3599C51.6803 22.423 51.4709 21.484 51 20.6699Z" fill="#E59F6A"/>
<path d="M45.88 12.31C46.0816 12.31 46.2749 12.2299 46.4174 12.0874C46.5599 11.9449 46.64 11.7516 46.64 11.55V9.00001L46.16 8.51001H38C37.7984 8.51001 37.6051 8.59008 37.4626 8.73261C37.3201 8.87514 37.24 9.06845 37.24 9.27001V11.57C37.24 11.6698 37.2596 11.7686 37.2978 11.8608C37.336 11.9531 37.392 12.0368 37.4626 12.1074C37.5332 12.178 37.6169 12.234 37.7091 12.2722C37.8014 12.3104 37.9002 12.33 38 12.33L45.88 12.31Z" fill="#006EE5"/>
<path d="M48.44 8.48999H46.16V11.55C46.16 11.7516 46.08 11.9449 45.9374 12.0874C45.7949 12.2299 45.6016 12.31 45.4 12.31H48.4C48.6016 12.31 48.7949 12.2299 48.9374 12.0874C49.08 11.9449 49.16 11.7516 49.16 11.55V9.24999C49.1603 9.05517 49.0857 8.86768 48.9517 8.72625C48.8178 8.58482 48.6346 8.50024 48.44 8.48999Z" fill="#0062BA"/>
</svg>
