<svg width="114" height="114" viewBox="0 0 114 114" fill="none" xmlns="http://www.w3.org/2000/svg">
<g clip-path="url(#clip0_14818_10104)">
<path d="M88.3942 111.773C101.306 111.773 111.773 101.306 111.773 88.394C111.773 75.4823 101.306 65.0154 88.3942 65.0154C75.4826 65.0154 65.0156 75.4823 65.0156 88.394C65.0156 101.306 75.4826 111.773 88.3942 111.773Z" fill="#FEFEFE"/>
<path d="M25.6052 92.6419C38.5168 92.6419 48.9837 82.175 48.9837 69.2634C48.9837 56.3517 38.5168 45.8848 25.6052 45.8848C12.6935 45.8848 2.22656 56.3517 2.22656 69.2634C2.22656 82.175 12.6935 92.6419 25.6052 92.6419Z" fill="#FEFEFE"/>
<path d="M36.7814 69.2634C36.7814 68.8842 36.7629 68.5093 36.7275 68.1394L40.7462 65.7695L36.1381 57.6167L32.1194 59.9867C31.5251 59.5505 30.8872 59.172 30.2137 58.8603V54.123H20.9973V58.8605C20.3236 59.1724 19.6859 59.5507 19.0916 59.9869L15.0729 57.617L10.4648 65.7697L14.4836 68.1397C14.4481 68.5095 14.4297 68.8842 14.4297 69.2636C14.4297 69.643 14.4481 70.0177 14.4836 70.3876L10.4648 72.7575L15.0729 80.9103L19.0916 78.5403C19.6859 78.9765 20.3238 79.355 20.9973 79.6667V84.4042H30.2135V79.6667C30.8872 79.3548 31.5249 78.9765 32.1192 78.5403L36.1379 80.9103L40.746 72.7575L36.7273 70.3876C36.7627 70.0175 36.7814 69.6426 36.7814 69.2634Z" fill="#3AA2F7"/>
<path d="M25.6055 73.7163C28.0648 73.7163 30.0586 71.7225 30.0586 69.2632C30.0586 66.8038 28.0648 64.8101 25.6055 64.8101C23.1461 64.8101 21.1523 66.8038 21.1523 69.2632C21.1523 71.7225 23.1461 73.7163 25.6055 73.7163Z" fill="#FFDD33"/>
<path d="M65.7399 48.9837C78.6516 48.9837 89.1185 38.5168 89.1185 25.6052C89.1185 12.6935 78.6516 2.22656 65.7399 2.22656C52.8283 2.22656 42.3613 12.6935 42.3613 25.6052C42.3613 38.5168 52.8283 48.9837 65.7399 48.9837Z" fill="#FEFEFE"/>
<path d="M76.9157 25.6052C76.9157 25.2258 76.8972 24.8511 76.8618 24.4812L80.8805 22.1113L76.2724 13.9585L72.2537 16.3285C71.6595 15.8923 71.0216 15.5138 70.348 15.2021V10.4648H61.1319V15.2023C60.4581 15.5142 59.8204 15.8925 59.2262 16.3287L55.2077 13.9588L50.5996 22.1115L54.6183 24.4814C54.5829 24.8513 54.5644 25.226 54.5644 25.6054C54.5644 25.9848 54.5829 26.3595 54.6183 26.7294L50.5996 29.0993L55.2077 37.2521L59.2264 34.8821C59.8207 35.3183 60.4586 35.6968 61.1321 36.0085V40.746H70.3482V36.0085C71.022 35.6966 71.6597 35.3183 72.254 34.8821L76.2727 37.2521L80.8807 29.0993L76.862 26.7294C76.8972 26.3593 76.9157 25.9844 76.9157 25.6052Z" fill="#3AA2F7"/>
<path d="M65.7402 30.0583C68.1996 30.0583 70.1933 28.0646 70.1933 25.6052C70.1933 23.1458 68.1996 21.1521 65.7402 21.1521C63.2808 21.1521 61.2871 23.1458 61.2871 25.6052C61.2871 28.0646 63.2808 30.0583 65.7402 30.0583Z" fill="#FFDD33"/>
<path d="M99.5702 88.3945C99.5702 88.0153 99.5517 87.6403 99.5163 87.2705L103.535 84.9006L98.927 76.7478L94.9083 79.1178C94.314 78.6816 93.6761 78.3031 93.0025 77.9913V73.2539H83.7864V77.9913C83.1126 78.3033 82.475 78.6816 81.8807 79.1178L77.862 76.7478L73.2539 84.9006L77.2726 87.2705C77.2372 87.6403 77.2187 88.0151 77.2187 88.3945C77.2187 88.7739 77.2372 89.1486 77.2726 89.5184L73.2539 91.8884L77.862 100.041L81.8807 97.6712C82.475 98.1074 83.1129 98.4859 83.7864 98.7976V103.535H93.0025V98.7974C93.6763 98.4854 94.314 98.1071 94.9083 97.671L98.927 100.041L103.535 91.8882L99.5163 89.5182C99.5517 89.1486 99.5702 88.7739 99.5702 88.3945Z" fill="#3AA2F7"/>
<path d="M88.3926 92.8469C90.8519 92.8469 92.8457 90.8532 92.8457 88.3938C92.8457 85.9344 90.8519 83.9407 88.3926 83.9407C85.9332 83.9407 83.9395 85.9344 83.9395 88.3938C83.9395 90.8532 85.9332 92.8469 88.3926 92.8469Z" fill="#FFDD33"/>
<path d="M111.641 77.6668L103.957 56.2754C103.541 55.118 102.266 54.5166 101.109 54.9326C99.9516 55.3483 99.3504 56.6234 99.7661 57.7808L103.284 67.5767C99.0859 64.5651 93.9434 62.7896 88.3937 62.7896C74.2749 62.7896 62.7886 74.2762 62.7886 88.3948C62.7886 94.4154 64.8784 99.9564 68.3692 104.333L33.6443 93.5751C43.8371 90.1961 51.2107 80.5753 51.2107 69.264C51.2107 55.1452 39.7242 43.6589 25.6056 43.6589C23.6527 43.6589 21.7505 43.8795 19.9219 44.2957L25.3284 38.4122C26.1604 37.5067 26.101 36.0982 25.1955 35.2661C24.2899 34.434 22.8814 34.4935 22.0493 35.399L8.04944 50.6335C8.03675 50.6473 8.02628 50.662 8.01426 50.6761C3.08177 55.346 0 61.9513 0 69.2638C0 79.2102 5.70087 87.8497 14.0066 92.0875C14.1005 92.1432 14.199 92.1928 14.3025 92.2347C16.6573 93.3981 19.2152 94.2099 21.908 94.6011L80.2283 112.669C80.2528 112.677 80.2775 112.682 80.3022 112.689C82.8467 113.539 85.5673 114 88.394 114C102.513 114 113.999 102.514 113.999 88.395C113.999 84.566 113.153 80.9316 111.641 77.6668ZM4.45333 69.2636C4.45333 57.6002 13.9422 48.1115 25.6054 48.1115C37.2685 48.1115 46.7574 57.6004 46.7574 69.2636C46.7574 80.9267 37.2685 90.4156 25.6054 90.4156C24.6831 90.4156 23.7745 90.3559 22.8832 90.2408L16.0127 88.1122C9.15781 84.6096 4.45333 77.4758 4.45333 69.2636ZM88.394 109.547C76.7306 109.547 67.2419 100.058 67.2419 88.3946C67.2419 76.7314 76.7308 67.2425 88.394 67.2425C100.057 67.2425 109.546 76.7314 109.546 88.3946C109.546 100.058 100.058 109.547 88.394 109.547Z" fill="#002548"/>
<path d="M16.2043 82.828L18.7713 81.3141V84.4039C18.7713 85.6337 19.7681 86.6305 20.9979 86.6305H30.214C31.4437 86.6305 32.4406 85.6337 32.4406 84.4039V81.3141L35.0076 82.828C35.5223 83.1314 36.1371 83.2154 36.7146 83.0606C37.2918 82.9061 37.7827 82.5258 38.0769 82.0055L42.6849 73.8527C43.2821 72.796 42.9232 71.4558 41.8778 70.8393L39.2055 69.2634L41.8776 67.6874C42.9229 67.0709 43.2821 65.7305 42.6847 64.674L38.0766 56.5212C37.7825 56.0009 37.2918 55.6208 36.7144 55.4661C36.1373 55.3111 35.5219 55.3955 35.0073 55.6987L32.4403 57.2126V54.1228C32.4403 52.8931 31.4435 51.8962 30.2138 51.8962H20.9979C19.7681 51.8962 18.7713 52.8931 18.7713 54.1228V57.2126L16.2043 55.6987C15.6895 55.395 15.0743 55.3111 14.4972 55.4661C13.9201 55.6206 13.4291 56.0009 13.135 56.5212L8.52693 64.674C7.92976 65.7307 8.28868 67.0709 9.33405 67.6874L12.0064 69.2634L9.33405 70.8393C8.28868 71.4558 7.92954 72.7962 8.52693 73.8527L13.135 82.0055C13.4291 82.5258 13.9199 82.9059 14.4972 83.0606C15.0746 83.2161 15.6897 83.1317 16.2043 82.828ZM13.4792 73.5648L15.6149 72.3053C16.3593 71.8662 16.7825 71.0359 16.7004 70.1756C16.6714 69.8712 16.6565 69.5644 16.6565 69.2634C16.6565 68.9623 16.6712 68.6555 16.7004 68.3511C16.7825 67.4908 16.3595 66.6605 15.6149 66.2214L13.4792 64.9619L15.8957 60.6865L17.9608 61.9044C18.7279 62.3568 19.6911 62.3083 20.4092 61.7815C20.8881 61.4299 21.4009 61.1269 21.9328 60.8806C22.7201 60.5161 23.2242 59.7275 23.2242 58.86V56.3491H27.9872V58.86C27.9872 59.7275 28.4913 60.5161 29.2786 60.8806C29.8108 61.1269 30.3233 61.4299 30.8023 61.7815C31.5203 62.3083 32.4833 62.3566 33.2506 61.9044L35.3157 60.6865L37.7322 64.9619L35.5965 66.2214C34.8521 66.6605 34.4289 67.4908 34.511 68.3511C34.54 68.6555 34.5549 68.9623 34.5549 69.2634C34.5549 69.5644 34.5402 69.8712 34.511 70.1756C34.4289 71.0359 34.8519 71.8662 35.5965 72.3053L37.7322 73.5648L35.3157 77.8403L33.2506 76.6223C32.4835 76.1699 31.5203 76.2182 30.8023 76.7452C30.3233 77.0968 29.8106 77.3999 29.2786 77.6461C28.4913 78.0106 27.9872 78.7992 27.9872 79.6667V82.1776H23.2242V79.6667C23.2242 78.7992 22.7201 78.0106 21.9328 77.6461C21.4006 77.3999 20.8881 77.0968 20.4092 76.7452C19.6911 76.2182 18.7279 76.1699 17.9608 76.6223L15.8957 77.8403L13.4792 73.5648Z" fill="#002548"/>
<path d="M25.6054 75.9431C29.2886 75.9431 32.2851 72.9466 32.2851 69.2634C32.2851 65.5802 29.2886 62.5837 25.6054 62.5837C21.9223 62.5837 18.9258 65.5802 18.9258 69.2634C18.9258 72.9466 21.9223 75.9431 25.6054 75.9431ZM25.6054 67.0368C26.8332 67.0368 27.832 68.0357 27.832 69.2634C27.832 70.4911 26.8332 71.49 25.6054 71.49C24.3777 71.49 23.3789 70.4911 23.3789 69.2634C23.3789 68.0357 24.3777 67.0368 25.6054 67.0368Z" fill="#002548"/>
<path d="M49.4691 24.0292L52.1414 25.6052L49.4691 27.1811C48.4235 27.7977 48.0646 29.138 48.6617 30.1945L53.2698 38.3473C53.5639 38.8676 54.0547 39.2477 54.632 39.4025C55.2093 39.5574 55.8245 39.4733 56.3393 39.1698L58.9061 37.656V40.7457C58.9061 41.9755 59.9029 42.9723 61.1326 42.9723H70.3488C71.5785 42.9723 72.5753 41.9755 72.5753 40.7457V37.656L75.1421 39.1698C75.6567 39.473 76.2719 39.5574 76.8494 39.4025C77.4266 39.2479 77.9175 38.8676 78.2116 38.3473L82.8197 30.1945C83.4169 29.1378 83.058 27.7977 82.0126 27.1811L79.3398 25.6052L82.0121 24.0292C83.0575 23.4127 83.4167 22.0723 82.8193 21.0158L78.2112 12.8631C77.9171 12.3427 77.4263 11.9626 76.849 11.8079C76.2719 11.6531 75.6567 11.7373 75.1419 12.0406L72.5749 13.5544V10.4648C72.5749 9.23511 71.5781 8.23828 70.3484 8.23828H61.1322C59.9025 8.23828 58.9056 9.23511 58.9056 10.4648V13.5546L56.3387 12.0408C55.8239 11.7373 55.2087 11.6534 54.6316 11.8081C54.0544 11.9626 53.5635 12.3429 53.2693 12.8633L48.6613 21.016C48.0646 22.0723 48.4235 23.4127 49.4691 24.0292ZM56.8352 26.5167C56.806 26.213 56.7913 25.9062 56.7913 25.6052C56.7913 25.3041 56.806 24.9976 56.8352 24.6936C56.9176 23.8331 56.4945 23.0026 55.7497 22.5633L53.614 21.3037L56.0305 17.0283L58.0956 18.2462C58.8627 18.6986 59.8259 18.6503 60.5439 18.1233C61.0229 17.7717 61.5357 17.4687 62.0678 17.2222C62.8551 16.8577 63.359 16.0693 63.359 15.2016V12.6914H68.122V15.2021C68.122 16.0695 68.6259 16.8582 69.4132 17.2226C69.9456 17.4689 70.4581 17.7722 70.937 18.1237C71.6551 18.6505 72.6181 18.6989 73.3854 18.2466L75.4505 17.0287L77.867 21.3041L75.7313 22.5637C74.9869 23.0028 74.5637 23.8331 74.6458 24.6934C74.6748 24.9978 74.6897 25.3046 74.6897 25.6056C74.6897 25.9064 74.675 26.2132 74.6458 26.5178C74.5637 27.3782 74.9867 28.2085 75.7313 28.6475L77.867 29.9071L75.4505 34.1825L73.3854 32.9646C72.6181 32.5122 71.6549 32.5607 70.9366 33.0875C70.4579 33.4391 69.9451 33.7421 69.4132 33.9884C68.6259 34.3529 68.1218 35.1415 68.1218 36.009V38.5194H63.3588V36.0085C63.3588 35.1411 62.8547 34.3524 62.0674 33.9879C61.5352 33.7417 61.0227 33.4386 60.5439 33.0871C59.8257 32.5598 58.8627 32.5115 58.0952 32.9642L56.0301 34.1821L53.6136 29.9067L55.7493 28.6471C56.4945 28.2078 56.9176 27.3773 56.8352 26.5167Z" fill="#002548"/>
<path d="M65.7402 32.2849C69.4234 32.2849 72.4199 29.2884 72.4199 25.6052C72.4199 21.922 69.4234 18.9255 65.7402 18.9255C62.057 18.9255 59.0605 21.922 59.0605 25.6052C59.0605 29.2884 62.057 32.2849 65.7402 32.2849ZM65.7402 23.3786C66.9679 23.3786 67.9668 24.3775 67.9668 25.6052C67.9668 26.8329 66.9679 27.8318 65.7402 27.8318C64.5125 27.8318 63.5137 26.8329 63.5137 25.6052C63.5137 24.3775 64.5125 23.3786 65.7402 23.3786Z" fill="#002548"/>
<path d="M99.5018 74.5972C98.9246 74.4424 98.3094 74.5266 97.7944 74.8299L95.2277 76.3437V73.2539C95.2277 72.0242 94.2308 71.0273 93.0011 71.0273H83.785C82.5552 71.0273 81.5584 72.0242 81.5584 73.2539V76.3437L78.9916 74.8299C78.4769 74.5264 77.8619 74.442 77.2843 74.5972C76.7072 74.7517 76.2162 75.132 75.9221 75.6523L71.314 83.8051C70.7169 84.8618 71.0758 86.202 72.1212 86.8185L74.7935 88.3945L72.1212 89.9704C71.0758 90.587 70.7167 91.9273 71.314 92.9838L75.9221 101.137C76.2162 101.657 76.707 102.037 77.2843 102.192C77.8617 102.347 78.4769 102.263 78.9914 101.959L81.5584 100.445V103.535C81.5584 104.765 82.5552 105.761 83.785 105.761H93.0011C94.2308 105.761 95.2277 104.765 95.2277 103.535V100.445L97.7947 101.959C98.3094 102.262 98.9242 102.346 99.5018 102.192C100.079 102.037 100.57 101.657 100.864 101.136L105.472 92.9836C106.069 91.9269 105.71 90.5867 104.665 89.9702L101.993 88.3942L104.665 86.8183C105.71 86.2018 106.069 84.8614 105.472 83.8049L100.864 75.6521C100.57 75.132 100.079 74.7517 99.5018 74.5972ZM97.2986 87.4822C97.3275 87.7866 97.3425 88.0937 97.3425 88.3945C97.3425 88.6955 97.3278 89.0023 97.2986 89.3067C97.2164 90.167 97.6395 90.9973 98.384 91.4364L100.52 92.6959L98.1033 96.9714L96.0381 95.7534C95.2711 95.301 94.3079 95.3493 93.5898 95.8764C93.1109 96.2279 92.5981 96.531 92.066 96.7774C91.2787 97.1419 90.7748 97.9303 90.7748 98.798V101.309H86.0117V98.798C86.0117 97.9306 85.5079 97.1419 84.7206 96.7774C84.1882 96.5312 83.6756 96.2279 83.1967 95.8764C82.4786 95.3493 81.5154 95.301 80.7484 95.7534L78.6833 96.9714L76.2668 92.6959L78.4025 91.4364C79.1468 90.9973 79.5701 90.167 79.4879 89.3067C79.459 89.0023 79.4441 88.6955 79.4441 88.3945C79.4441 88.0937 79.4588 87.7868 79.4879 87.4822C79.5701 86.6219 79.147 85.7916 78.4025 85.3525L76.2668 84.093L78.6833 79.8176L80.7484 81.0355C81.5157 81.4879 82.4789 81.4396 83.1972 80.9126C83.6759 80.561 84.1886 80.258 84.7206 80.0117C85.5079 79.6472 86.012 78.8586 86.012 77.9911V75.4802H90.775V77.9911C90.775 78.8586 91.2791 79.6472 92.0664 80.0117C92.5986 80.258 93.1111 80.561 93.5898 80.9126C94.3079 81.4394 95.2709 81.4879 96.0386 81.0355L98.1037 79.8176L100.52 84.093L98.3845 85.3525C97.6395 85.7916 97.2162 86.6219 97.2986 87.4822Z" fill="#002548"/>
<path d="M88.3945 81.7148C84.7113 81.7148 81.7148 84.7113 81.7148 88.3945C81.7148 92.0777 84.7113 95.0742 88.3945 95.0742C92.0777 95.0742 95.0742 92.0777 95.0742 88.3945C95.0742 84.7113 92.0777 81.7148 88.3945 81.7148ZM88.3945 90.6211C87.1668 90.6211 86.168 89.6222 86.168 88.3945C86.168 87.1668 87.1668 86.168 88.3945 86.168C89.6222 86.168 90.6211 87.1668 90.6211 88.3945C90.6211 89.6222 89.6224 90.6211 88.3945 90.6211Z" fill="#002548"/>
<path d="M34.6341 27.221C35.2355 27.221 35.8351 26.9787 36.2742 26.5011L40.3882 22.0242C40.2236 23.1949 40.1366 24.3899 40.1366 25.6051C40.1366 39.7239 51.6231 51.2103 65.7417 51.2103C77.6351 51.2103 87.6597 43.0593 90.5248 32.0506L94.2229 42.3464C94.5493 43.255 95.4054 43.821 96.3185 43.821C96.5684 43.821 96.8224 43.7787 97.0711 43.6892C98.2285 43.2735 98.8296 41.9984 98.4139 40.841L90.0967 17.686C90.09 17.6673 90.0811 17.6501 90.0739 17.6316C86.7145 7.4053 77.0771 0 65.7417 0C57.711 0 50.5332 3.71745 45.8354 9.5203C45.8198 9.53633 45.8029 9.55058 45.7878 9.56728L32.9953 23.4879C32.1633 24.3935 32.2227 25.802 33.1283 26.634C33.5558 27.0268 34.0955 27.221 34.6341 27.221ZM65.7417 4.45311C77.4051 4.45311 86.8937 13.942 86.8937 25.6051C86.8937 37.2683 77.4048 46.7572 65.7417 46.7572C54.0786 46.7572 44.5897 37.2683 44.5897 25.6051C44.5897 13.942 54.0781 4.45311 65.7417 4.45311Z" fill="#002548"/>
<path d="M29.3164 33.3984C29.902 33.3984 30.4764 33.1602 30.8906 32.746C31.3047 32.3319 31.543 31.7574 31.543 31.1719C31.543 30.5863 31.3047 30.0118 30.8906 29.5977C30.4764 29.1836 29.902 28.9453 29.3164 28.9453C28.7286 28.9453 28.1564 29.1836 27.7422 29.5977C27.3259 30.0118 27.0898 30.5863 27.0898 31.1719C27.0898 31.7574 27.3259 32.3319 27.7422 32.746C28.1564 33.1602 28.7286 33.3984 29.3164 33.3984Z" fill="#002548"/>
<path d="M96.9102 49.4294C96.9102 50.0172 97.1484 50.5895 97.5625 51.0036C97.9767 51.4177 98.5511 51.656 99.1367 51.656C99.7223 51.656 100.297 51.4177 100.711 51.0036C101.125 50.5895 101.363 50.015 101.363 49.4294C101.363 48.8439 101.125 48.2694 100.711 47.8553C100.297 47.4411 99.7223 47.2029 99.1367 47.2029C98.5511 47.2029 97.9767 47.4411 97.5625 47.8553C97.1484 48.2696 96.9102 48.8439 96.9102 49.4294Z" fill="#002548"/>
</g>
<defs>
<clipPath id="clip0_14818_10104">
<rect width="114" height="114" fill="white"/>
</clipPath>
</defs>
</svg>
