<svg width="60" height="60" viewBox="0 0 60 60" fill="none" xmlns="http://www.w3.org/2000/svg">
<path d="M38.53 34.1701C38.3593 34.1701 38.1955 34.103 38.0739 33.9832C37.9523 33.8635 37.8826 33.7007 37.88 33.5301V10.0601C37.8686 9.96861 37.8768 9.87579 37.904 9.78774C37.9312 9.69969 37.9768 9.61844 38.0378 9.54936C38.0988 9.48028 38.1737 9.42496 38.2577 9.38707C38.3417 9.34918 38.4328 9.32959 38.525 9.32959C38.6172 9.32959 38.7083 9.34918 38.7923 9.38707C38.8763 9.42496 38.9512 9.48028 39.0122 9.54936C39.0732 9.61844 39.1188 9.69969 39.146 9.78774C39.1732 9.87579 39.1814 9.96861 39.17 10.0601V33.5301C39.17 33.6998 39.1026 33.8626 38.9825 33.9826C38.8625 34.1026 38.6997 34.1701 38.53 34.1701Z" fill="#BCC5C9"/>
<path d="M19.84 52.0001H11.61V49.1001C11.6087 48.8988 11.6474 48.6993 11.7238 48.513C11.8002 48.3268 11.9128 48.1576 12.0552 48.0153C12.1975 47.8729 12.3667 47.7603 12.5529 47.6839C12.7392 47.6074 12.9387 47.5688 13.14 47.5701H18.31C18.7158 47.5701 19.105 47.7313 19.3919 48.0182C19.6788 48.3052 19.84 48.6943 19.84 49.1001V52.0001Z" fill="#9AA7AD"/>
<path d="M28.07 52.0001H19.84V45.3001C19.8387 45.0988 19.8773 44.8992 19.9538 44.713C20.0302 44.5267 20.1428 44.3576 20.2852 44.2152C20.4275 44.0729 20.5967 43.9602 20.7829 43.8838C20.9692 43.8074 21.1687 43.7687 21.37 43.7701H26.54C26.9458 43.7701 27.3349 43.9312 27.6219 44.2182C27.9088 44.5051 28.07 44.8943 28.07 45.3001V52.0001Z" fill="#E30E08"/>
<path d="M36.2899 52H28.0699V41.24C28.0699 40.8359 28.2298 40.4483 28.5145 40.1616C28.7993 39.875 29.1859 39.7126 29.5899 39.71H34.7599C35.1657 39.71 35.5549 39.8712 35.8418 40.1581C36.1288 40.445 36.2899 40.8342 36.2899 41.24V52Z" fill="#FCC400"/>
<path d="M44.52 52H36.29V35C36.2927 34.596 36.455 34.2094 36.7417 33.9246C37.0283 33.6398 37.416 33.48 37.82 33.48H43C43.2005 33.4787 43.3992 33.517 43.5848 33.5928C43.7704 33.6686 43.9391 33.7804 44.0813 33.9217C44.2235 34.0629 44.3364 34.2309 44.4134 34.416C44.4904 34.6011 44.53 34.7996 44.53 35L44.52 52Z" fill="#80D261"/>
<path d="M46.8 52.6601H9.45C9.36425 52.6601 9.27936 52.6429 9.20038 52.6095C9.1214 52.5761 9.04993 52.5272 8.99024 52.4656C8.93054 52.4041 8.88382 52.3311 8.85286 52.2512C8.8219 52.1712 8.80733 52.0858 8.81 52.0001C8.80998 51.8294 8.87709 51.6656 8.99684 51.544C9.11658 51.4224 9.27935 51.3527 9.45 51.3501H46.8C46.9724 51.3501 47.1377 51.4186 47.2596 51.5405C47.3815 51.6624 47.45 51.8277 47.45 52.0001C47.4527 52.0867 47.4378 52.1729 47.4063 52.2535C47.3747 52.3342 47.3271 52.4076 47.2663 52.4693C47.2055 52.531 47.1329 52.5797 47.0527 52.6125C46.9726 52.6453 46.8866 52.6615 46.8 52.6601Z" fill="#2F5066"/>
<path d="M38.53 16.1999H46.8C46.8573 16.2009 46.9135 16.1843 46.9611 16.1523C47.0086 16.1203 47.0452 16.0746 47.0659 16.0212C47.0866 15.9677 47.0905 15.9093 47.0769 15.8536C47.0633 15.7979 47.033 15.7478 46.99 15.7099L44.84 13.8199C44.8087 13.7946 44.7835 13.7626 44.7661 13.7262C44.7487 13.6899 44.7397 13.6502 44.7397 13.6099C44.7397 13.5696 44.7487 13.5299 44.7661 13.4935C44.7835 13.4572 44.8087 13.4252 44.84 13.3999L47 11.5099C47.0536 11.4746 47.0934 11.4219 47.1128 11.3608C47.1322 11.2996 47.13 11.2336 47.1066 11.1739C47.0832 11.1141 47.04 11.0642 46.9841 11.0326C46.9283 11.0009 46.8633 10.9894 46.8 10.9999H38.53V16.1999Z" fill="#E30E08"/>
<path d="M39.19 18.6201L30.19 23.4901C29.39 23.9301 29.19 24.6901 28.89 25.6701L27.14 32.0001L29.49 32.8101L31.49 30.2101L33.19 25.0801L37.7 22.3401C38.3209 21.9682 38.8028 21.4031 39.0719 20.7312C39.341 20.0594 39.3825 19.3178 39.19 18.6201Z" fill="#006EE5"/>
<path d="M39.19 18.6201L38.19 19.1801C38.1041 19.6312 37.9244 20.0592 37.6625 20.4365C37.4007 20.8138 37.0626 21.1318 36.67 21.3701L32.56 23.8701C32.2989 24.0256 32.1034 24.2709 32.01 24.5601L31.42 26.3301C31.1183 27.2413 30.6235 28.0766 29.9694 28.779C29.3154 29.4814 28.5174 30.0343 27.63 30.4001L27.14 32.0001L31.51 30.2101L33.21 25.0801L37.72 22.3401C38.3373 21.9653 38.8151 21.3989 39.0805 20.7273C39.3459 20.0556 39.3843 19.3156 39.19 18.6201Z" fill="#0062BA"/>
<path d="M31.51 30.1899L34.09 33.2399C34.52 33.8099 34.89 34.2399 34.81 34.8299L34.21 39.7099H32.63L32.22 35.5099C32.2091 35.3855 32.1641 35.2665 32.0901 35.166C32.016 35.0654 31.9156 34.9872 31.8 34.9399L27.14 31.9399L31.51 30.1899Z" fill="#495256"/>
<path d="M27.14 32L26.89 36.63C26.9259 36.941 26.8882 37.2561 26.78 37.55L23.78 43.81H25.45L29.92 37.87C30.1418 37.5434 30.273 37.1638 30.3 36.77L31.49 30.21L27.14 32Z" fill="#5C6A71"/>
<path d="M31.19 19.62L31.92 21.05C32.003 21.2094 32.0535 21.3836 32.0687 21.5626C32.0839 21.7417 32.0635 21.9219 32.0086 22.093C31.9538 22.2641 31.8656 22.4226 31.7491 22.5594C31.6326 22.6962 31.4902 22.8086 31.33 22.89L30.76 23.18C30.6007 23.2629 30.4264 23.3135 30.2474 23.3287C30.0684 23.3439 29.8881 23.3235 29.717 23.2686C29.546 23.2137 29.3874 23.1255 29.2506 23.0091C29.1138 22.8926 29.0015 22.7502 28.92 22.59L28.19 21.16C28.1071 21.0006 28.0566 20.8264 28.0414 20.6474C28.0262 20.4684 28.0466 20.2881 28.1014 20.117C28.1563 19.9459 28.2445 19.7874 28.361 19.6506C28.4775 19.5138 28.6199 19.4014 28.78 19.32L29.35 19.03C29.5094 18.9471 29.6837 18.8966 29.8627 18.8813C30.0417 18.8661 30.222 18.8866 30.393 18.9414C30.5641 18.9963 30.7226 19.0845 30.8594 19.201C30.9962 19.3174 31.1086 19.4599 31.19 19.62Z" fill="#FCD0AE"/>
</svg>
