<svg width="48" height="48" viewBox="0 0 48 48" fill="none" xmlns="http://www.w3.org/2000/svg">
<g clip-path="url(#clip0_11318_33876)">
<path d="M19.8984 22.2L18.1984 21.9C18.0984 21.7 18.0984 21.6 17.9984 21.4L18.9984 20C19.1984 19.7 19.1984 19.3 18.8984 19L17.3984 17.5C17.0984 17.2 16.6984 17.2 16.3984 17.4L14.9984 18.4C14.7984 18.3 14.6984 18.3 14.4984 18.2L14.3984 17L14.2984 16.5C14.2984 16.4 14.1984 16.3 14.1984 16.2C14.0984 16 13.7984 15.9 13.5984 15.9H11.4984C11.1984 15.9 10.9984 16 10.8984 16.2C10.7984 16.3 10.7984 16.4 10.7984 16.5L10.5984 17L10.3984 18.2C10.1984 18.3 10.0984 18.3 9.89844 18.4L8.49844 17.4C8.19844 17.2 7.79844 17.2 7.49844 17.5L5.99844 19C5.69844 19.3 5.69844 19.7 5.89844 20L6.89844 21.4C6.79844 21.6 6.79844 21.7 6.69844 21.9L4.99844 22.2C4.59844 22.3 4.39844 22.6 4.39844 23V25C4.39844 25.4 4.69844 25.7 4.99844 25.8L6.69844 26.1C6.79844 26.3 6.79844 26.4 6.89844 26.5L5.89844 27.9C5.69844 28.2 5.69844 28.6 5.99844 28.9L7.49844 30.4C7.79844 30.7 8.19844 30.7 8.49844 30.5L9.89844 29.5C9.99844 29.6 10.1984 29.6 10.2984 29.7L10.5984 31.4C10.6984 31.8 10.9984 32 11.3984 32H13.4984C13.8984 32 14.1984 31.7 14.2984 31.4L14.5984 29.7C14.6984 29.6 14.8984 29.6 14.9984 29.5L16.3984 30.5C16.6984 30.7 17.0984 30.7 17.3984 30.4L18.8984 28.9C19.1984 28.6 19.1984 28.2 18.9984 27.9L17.9984 26.5C18.0984 26.4 18.0984 26.2 18.1984 26.1L19.8984 25.8C20.2984 25.7 20.4984 25.4 20.4984 25V22.9C20.4984 22.6 20.2984 22.2 19.8984 22.2ZM12.4984 27.1C10.7984 27.1 9.39844 25.7 9.39844 24C9.39844 22.3 10.7984 20.9 12.4984 20.9C14.1984 20.9 15.5984 22.3 15.5984 24C15.5984 25.7 14.1984 27.1 12.4984 27.1Z" fill="#839299"/>
<path d="M35.9967 11.6L36.9967 10.6C37.2967 10.3 37.2967 9.69999 36.9967 9.39999C36.6967 9.09999 36.0967 9.09999 35.7967 9.39999L33.2967 11.9C32.9967 12.2 32.9967 12.8 33.2967 13.1L35.7967 15.6C35.9967 15.8 36.1967 15.9 36.3967 15.9C36.8967 15.9 37.2967 15.5 37.2967 15C37.2967 14.8 37.1967 14.6 37.0967 14.4L36.0967 13.4C41.8967 13.6 46.3967 18.4 46.3967 24.1C45.7967 38.4 25.4967 38.3 24.8967 24.1C24.8967 17.2 19.2967 11.6 12.3967 11.6C-3.90327 12.2 -4.20327 35.3 11.9967 36.4L10.9967 37.4C10.6967 37.7 10.6967 38.3 10.9967 38.6C11.2967 38.9 11.8967 38.9 12.1967 38.6L14.6967 36.1C14.9967 35.8 14.9967 35.2 14.6967 34.9L12.1967 32.4C11.8967 32.1 11.2967 32.1 10.9967 32.4C10.6967 32.7 10.6967 33.3 10.9967 33.6L11.9967 34.6C-2.00327 33.6 -1.60327 13.8 12.3967 13.3C18.2967 13.3 23.0967 18.1 23.0967 24C23.0967 30.9 28.6967 36.5 35.5967 36.5C51.8967 35.8 52.1967 12.7 35.9967 11.6Z" fill="#002548"/>
<path d="M30.1953 27.6C30.4953 27.9 31.0953 27.9 31.3953 27.6C31.6953 27.3 31.6953 26.7 31.3953 26.4L29.0953 24L31.4953 21.6C31.7953 21.3 31.7953 20.7 31.4953 20.4C31.1953 20.1 30.5953 20.1 30.2953 20.4L27.2953 23.4C26.9953 23.7 26.9953 24.3 27.2953 24.6L30.1953 27.6Z" fill="#54CC5A"/>
<path d="M39.8 27.6C40.1 27.9 40.7 27.9 41 27.6L44 24.6C44.3 24.3 44.3 23.7 44 23.4L41 20.4C40.7 20.1 40.1 20.1 39.8 20.4C39.5 20.7 39.5 21.3 39.8 21.6L42.2 24L39.8 26.4C39.4 26.7 39.4 27.2 39.8 27.6Z" fill="#54CC5A"/>
<path d="M35.2991 28.7L37.4991 19.8C37.5991 19.3 37.2991 18.9 36.8991 18.8C36.3991 18.7 35.9991 19 35.8991 19.4L33.6991 28.3C33.5991 28.8 33.8991 29.2 34.2991 29.3C34.6991 29.4 35.1991 29.1 35.2991 28.7Z" fill="#54CC5A"/>
</g>
<defs>
<clipPath id="clip0_11318_33876">
<rect width="48" height="48" fill="white"/>
</clipPath>
</defs>
</svg>
