<svg width="48" height="48" viewBox="0 0 48 48" fill="none" xmlns="http://www.w3.org/2000/svg">
<g clip-path="url(#clip0_11624_19001)">
<g clip-path="url(#clip1_11624_19001)">
<path fill-rule="evenodd" clip-rule="evenodd" d="M23.7 16.4H44.9C45.4 16.4 45.9 16.8 45.9 17.4V47H23.7H1.5V17.4C1.5 16.9 1.9 16.4 2.5 16.4H23.7Z" fill="#5F737C"/>
<path fill-rule="evenodd" clip-rule="evenodd" d="M37.6016 27.2H41.1016C41.4016 27.2 41.6016 27.4 41.6016 27.7V30.6C41.6016 30.9 41.4016 31.1 41.1016 31.1H37.6016C37.3016 31.1 37.1016 30.9 37.1016 30.6V27.7C37.1016 27.4 37.3016 27.2 37.6016 27.2ZM37.6016 33.8H41.1016C41.4016 33.8 41.6016 34 41.6016 34.3V37.2C41.6016 37.5 41.4016 37.7 41.1016 37.7H37.6016C37.3016 37.7 37.1016 37.5 37.1016 37.2V34.3C37.1016 34.1 37.3016 33.8 37.6016 33.8ZM37.6016 20.5H41.1016C41.4016 20.5 41.6016 20.7 41.6016 21V23.9C41.6016 24.2 41.4016 24.4 41.1016 24.4H37.6016C37.3016 24.4 37.1016 24.2 37.1016 23.9V21C37.1016 20.8 37.3016 20.5 37.6016 20.5Z" fill="#002548"/>
<path fill-rule="evenodd" clip-rule="evenodd" d="M6.29688 27.2H9.79688C10.0969 27.2 10.2969 27.4 10.2969 27.7V30.6C10.2969 30.9 10.0969 31.1 9.79688 31.1H6.29688C5.99687 31.1 5.79688 30.9 5.79688 30.6V27.7C5.79688 27.4 5.99687 27.2 6.29688 27.2ZM6.29688 33.8H9.79688C10.0969 33.8 10.2969 34 10.2969 34.3V37.2C10.2969 37.5 10.0969 37.7 9.79688 37.7H6.29688C5.99687 37.7 5.79688 37.5 5.79688 37.2V34.3C5.79688 34.1 5.99687 33.8 6.29688 33.8ZM6.29688 20.5H9.79688C10.0969 20.5 10.2969 20.7 10.2969 21V23.9C10.2969 24.2 10.0969 24.4 9.79688 24.4H6.29688C5.99687 24.4 5.79688 24.2 5.79688 23.9V21C5.79688 20.8 5.99687 20.5 6.29688 20.5Z" fill="#002548"/>
<path fill-rule="evenodd" clip-rule="evenodd" d="M24.1016 0.700012H28.0016C28.3016 0.700012 28.5016 0.900012 28.5016 1.20001V3.70001C28.5016 4.00001 28.3016 4.20001 28.0016 4.20001H24.1016C23.8016 4.20001 23.6016 4.00001 23.6016 3.70001V1.20001C23.7016 0.900012 23.9016 0.700012 24.1016 0.700012Z" fill="#0054A6"/>
<path fill-rule="evenodd" clip-rule="evenodd" d="M24.3 7.9C24.3 8.3 24 8.6 23.6 8.6C23.2 8.6 23 8.3 23 7.9V0.7C23 0.3 23.3 0 23.7 0C24.1 0 24.4 0.3 24.4 0.7V7.9H24.3Z" fill="#2D2F31"/>
<path fill-rule="evenodd" clip-rule="evenodd" d="M19.8984 7.90002H27.2984C27.5984 7.90002 27.7984 8.10002 27.7984 8.40002V17.4C27.7984 17.7 27.5984 17.9 27.2984 17.9H19.8984C19.5984 17.9 19.3984 17.7 19.3984 17.4V8.40002C19.4984 8.20002 19.6984 7.90002 19.8984 7.90002Z" fill="#5F737C"/>
<path fill-rule="evenodd" clip-rule="evenodd" d="M15.5 11.4H31.9C32.4 11.4 32.9 11.8 32.9 12.4V47H14.5V12.4C14.5 11.8 14.9 11.4 15.5 11.4Z" fill="#D2D9DC"/>
<path fill-rule="evenodd" clip-rule="evenodd" d="M17.8984 14.3H29.2984C29.5984 14.3 29.7984 14.5 29.7984 14.8V16.5C29.7984 16.8 29.5984 17 29.2984 17H17.8984C17.5984 17 17.3984 16.8 17.3984 16.5V14.8C17.3984 14.6 17.6984 14.3 17.8984 14.3Z" fill="#0054A6"/>
<path fill-rule="evenodd" clip-rule="evenodd" d="M17.8984 20.5H21.3984C21.6984 20.5 21.8984 20.7 21.8984 21V23.9C21.8984 24.2 21.6984 24.4 21.3984 24.4H17.8984C17.5984 24.4 17.3984 24.2 17.3984 23.9V21C17.3984 20.8 17.6984 20.5 17.8984 20.5Z" fill="#0054A6"/>
<path fill-rule="evenodd" clip-rule="evenodd" d="M25.8984 20.5H29.3984C29.6984 20.5 29.8984 20.7 29.8984 21V23.9C29.8984 24.2 29.6984 24.4 29.3984 24.4H25.8984C25.5984 24.4 25.3984 24.2 25.3984 23.9V21C25.3984 20.8 25.5984 20.5 25.8984 20.5Z" fill="#0054A6"/>
<path fill-rule="evenodd" clip-rule="evenodd" d="M17.8984 27.2H21.3984C21.6984 27.2 21.8984 27.4 21.8984 27.7V30.6C21.8984 30.9 21.6984 31.1 21.3984 31.1H17.8984C17.5984 31.1 17.3984 30.9 17.3984 30.6V27.7C17.3984 27.4 17.6984 27.2 17.8984 27.2Z" fill="#0054A6"/>
<path fill-rule="evenodd" clip-rule="evenodd" d="M25.8984 27.2H29.3984C29.6984 27.2 29.8984 27.4 29.8984 27.7V30.6C29.8984 30.9 29.6984 31.1 29.3984 31.1H25.8984C25.5984 31.1 25.3984 30.9 25.3984 30.6V27.7C25.3984 27.4 25.5984 27.2 25.8984 27.2Z" fill="#0054A6"/>
<path fill-rule="evenodd" clip-rule="evenodd" d="M17.8984 34H29.2984C29.5984 34 29.7984 34.2 29.7984 34.5V46.4H17.3984V34.5C17.3984 34.3 17.6984 34 17.8984 34Z" fill="#0054A6"/>
<path opacity="0.19" fill-rule="evenodd" clip-rule="evenodd" d="M23 34H24.4V45.1H23V34Z" fill="#F9FAFB"/>
<path fill-rule="evenodd" clip-rule="evenodd" d="M0.5 48H46.8C47.1 48 47.3 47.8 47.3 47.5V45.7C47.3 45.4 47.1 45.2 46.8 45.2H0.5C0.2 45.2 0 45.4 0 45.7V47.5C0 47.8 0.2 48 0.5 48Z" fill="#839299"/>
<path fill-rule="evenodd" clip-rule="evenodd" d="M38.6984 0C41.2984 0 43.5984 1 45.2984 2.7C46.9984 4.4 47.9984 6.8 47.9984 9.3C47.9984 11.8 46.9984 14.2 45.2984 15.9C43.5984 17.6 41.2984 18.6 38.6984 18.6C36.0984 18.6 33.7984 17.6 32.0984 15.9C30.3984 14.2 29.3984 11.9 29.3984 9.3C29.3984 6.7 30.3984 4.4 32.0984 2.7C33.7984 1 36.0984 0 38.6984 0Z" fill="#002548"/>
<path d="M38.7016 15.4C42.0705 15.4 44.8016 12.6689 44.8016 9.30001C44.8016 5.93108 42.0705 3.20001 38.7016 3.20001C35.3326 3.20001 32.6016 5.93108 32.6016 9.30001C32.6016 12.6689 35.3326 15.4 38.7016 15.4Z" fill="#54CC5A"/>
<g opacity="0.19">
<path fill-rule="evenodd" clip-rule="evenodd" d="M43.5016 5.70001C43.8016 6.00001 44.0016 6.40001 44.2016 6.90001C43.5016 7.20001 42.6016 7.50001 41.7016 7.70001C40.8016 7.90001 39.8016 8.00001 38.7016 8.00001C37.6016 8.00001 36.6016 7.90001 35.7016 7.70001C34.8016 7.50001 33.9016 7.20001 33.2016 6.90001C33.4016 6.50001 33.6016 6.10001 33.9016 5.70001C34.5016 6.00001 35.2016 6.20001 36.0016 6.30001C36.8016 6.50001 37.8016 6.60001 38.7016 6.60001C39.6016 6.60001 40.6016 6.50001 41.4016 6.30001C42.2016 6.20001 42.9016 5.90001 43.5016 5.70001ZM44.2016 11.8C44.0016 12.2 43.8016 12.6 43.5016 13C42.9016 12.7 42.2016 12.5 41.4016 12.4C40.6016 12.2 39.7016 12.1 38.7016 12.1C37.7016 12.1 36.8016 12.2 36.0016 12.3C35.2016 12.5 34.5016 12.7 33.8016 13C33.5016 12.6 33.3016 12.2 33.1016 11.8C33.8016 11.5 34.7016 11.2 35.7016 11C36.6016 10.8 37.6016 10.7 38.6016 10.7C39.6016 10.7 40.6016 10.8 41.6016 11C42.6016 11.2 43.5016 11.5 44.2016 11.8Z" fill="#2D2F31"/>
<path fill-rule="evenodd" clip-rule="evenodd" d="M38.7047 3.29999C39.6047 3.29999 40.4047 4.09999 40.9047 5.29999C41.3047 6.39999 41.6047 7.79999 41.6047 9.39999C41.6047 11 41.3047 12.4 40.9047 13.5C40.4047 14.7 39.6047 15.5 38.7047 15.5C37.8047 15.5 37.0047 14.7 36.5047 13.5C36.1047 12.4 35.8047 11 35.8047 9.39999C35.8047 7.79999 36.1047 6.39999 36.5047 5.29999C37.0047 3.99999 37.8047 3.29999 38.7047 3.29999ZM39.6047 5.79999C39.3047 5.09999 39.0047 4.69999 38.7047 4.69999C38.4047 4.69999 38.1047 5.09999 37.8047 5.79999C37.4047 6.69999 37.2047 7.89999 37.2047 9.29999C37.2047 10.7 37.4047 12 37.8047 12.8C38.1047 13.5 38.4047 13.9 38.7047 13.9C39.0047 13.9 39.3047 13.5 39.6047 12.8C40.0047 11.9 40.2047 10.7 40.2047 9.29999C40.1047 7.89999 39.9047 6.69999 39.6047 5.79999Z" fill="#2D2F31"/>
</g>
</g>
</g>
<defs>
<clipPath id="clip0_11624_19001">
<rect width="48" height="48" fill="white"/>
</clipPath>
<clipPath id="clip1_11624_19001">
<rect width="48" height="48" fill="white"/>
</clipPath>
</defs>
</svg>
