<svg width="64" height="64" viewBox="0 0 64 64" fill="none" xmlns="http://www.w3.org/2000/svg">
<g clip-path="url(#clip0_14818_10504)">
<path fill-rule="evenodd" clip-rule="evenodd" d="M30.9376 -0.0625C31.6042 -0.0625 32.271 -0.0625 32.9376 -0.0625C33.0626 0.0208334 33.1876 0.104167 33.3126 0.1875C31.2842 1.46035 30.7217 3.21035 31.6251 5.4375C32.095 6.13695 32.6991 6.67861 33.4376 7.0625C33.2776 7.24141 33.0692 7.32474 32.8126 7.3125C32.2292 7.3125 31.646 7.3125 31.0626 7.3125C28.6324 6.49474 27.7365 4.82807 28.3751 2.3125C28.8552 1.10272 29.7094 0.31105 30.9376 -0.0625Z" fill="#FFB09E"/>
<path opacity="0.985" fill-rule="evenodd" clip-rule="evenodd" d="M33.3121 0.1875C34.8854 0.805748 35.6771 1.97241 35.6871 3.6875C35.6527 5.29979 34.9027 6.42479 33.4371 7.0625C32.6986 6.67861 32.0944 6.13695 31.6246 5.4375C30.7212 3.21035 31.2837 1.46035 33.3121 0.1875Z" fill="#FFCDBE"/>
<path fill-rule="evenodd" clip-rule="evenodd" d="M31.0634 7.3125C31.6468 7.3125 32.23 7.3125 32.8134 7.3125C33.0634 7.39584 33.3134 7.47916 33.5634 7.5625C30.7716 8.16675 29.0216 9.85425 28.3134 12.625C28.3804 13.3779 28.7554 13.8987 29.4384 14.1875C28.3959 14.2083 27.3543 14.1875 26.3134 14.125C25.4468 13.7035 25.1343 13.016 25.3759 12.0625C26.3915 9.3992 28.2874 7.81587 31.0634 7.3125Z" fill="#6099D7"/>
<path opacity="0.99" fill-rule="evenodd" clip-rule="evenodd" d="M33.5625 7.5625C35.976 8.20449 37.6217 9.70449 38.5 12.0625C38.7142 13.0075 38.4017 13.695 37.5625 14.125C34.8545 14.1875 32.1461 14.2084 29.4375 14.1875C28.7545 13.8987 28.3795 13.3779 28.3125 12.625C29.0207 9.85425 30.7708 8.16675 33.5625 7.5625Z" fill="#7AABDF"/>
<path opacity="0.951" fill-rule="evenodd" clip-rule="evenodd" d="M21.0621 7.81256C22.2729 7.73515 22.7104 8.27682 22.3746 9.43756C17.1053 11.9254 13.0635 15.7171 10.2496 20.8126C9.92757 21.5816 9.57341 22.3316 9.18715 23.0626C8.5899 23.5649 8.0274 23.5233 7.49965 22.9376C7.3616 22.2218 7.4866 21.5551 7.87465 20.9376C10.7593 15.0321 15.1551 10.657 21.0621 7.81256Z" fill="#798C98"/>
<path opacity="0.953" fill-rule="evenodd" clip-rule="evenodd" d="M41.938 7.81251C42.2326 7.7921 42.5243 7.81293 42.813 7.87501C48.7435 10.6805 53.1393 15.0346 56.0005 20.9375C56.3885 21.555 56.5135 22.2218 56.3755 22.9375C55.8478 23.5233 55.2853 23.5649 54.688 23.0625C52.8438 18.6028 49.9688 14.957 46.063 12.125C44.569 11.1802 43.0481 10.2844 41.5005 9.43751C41.21 8.77085 41.3559 8.22918 41.938 7.81251Z" fill="#798C98"/>
<path fill-rule="evenodd" clip-rule="evenodd" d="M35.1875 17.5625C31.5591 18.4169 28.6425 20.3336 26.4375 23.3125C25.9921 22.6304 25.3671 22.1929 24.5625 22C23.3966 21.9375 22.2299 21.9168 21.0625 21.9375C24.4781 18.3189 28.6864 16.7564 33.6875 17.25C34.217 17.2919 34.717 17.396 35.1875 17.5625Z" fill="#0054A6"/>
<path opacity="0.998" fill-rule="evenodd" clip-rule="evenodd" d="M35.1875 17.5625C38.2989 18.1781 40.8822 19.6781 42.9375 22.0625C40.2705 22.0416 37.6039 22.0625 34.9375 22.125C33.3871 22.8561 32.908 24.0436 33.5 25.6875C33.8804 26.3596 34.4429 26.7971 35.1875 27C37.271 27.0417 38.2917 28.1042 38.25 30.1875C38.5625 31.0834 39.1666 31.6875 40.0625 32C42.4928 31.823 43.5969 32.9271 43.375 35.3125C43.0413 36.2294 42.3954 36.7919 41.4375 37C40.3864 37.0116 39.3446 37.095 38.3125 37.25C36.8599 38.2295 36.5474 39.5004 37.375 41.0625C37.6729 41.4091 38.0271 41.6799 38.4375 41.875C39.928 42.0548 41.428 42.1173 42.9375 42.0625C40.8272 44.4311 38.2022 45.9311 35.0625 46.5625C30.714 45.422 27.464 42.8804 25.3125 38.9375C25.3125 38.8541 25.3125 38.7709 25.3125 38.6875C25.6235 37.9391 26.1653 37.4184 26.9375 37.125C27.8125 37.0834 28.6875 37.0416 29.5625 37C31.133 36.5914 31.8205 35.5705 31.625 33.9375C31.366 33.0534 30.8035 32.4493 29.9375 32.125C27.8129 32.0625 25.6879 32.0416 23.5625 32.0625C23.5625 32.0209 23.5625 31.9791 23.5625 31.9375C23.5816 30.2589 23.8734 28.6339 24.4375 27.0625C24.4375 27.0209 24.4375 26.9791 24.4375 26.9375C25.8095 26.7109 26.5595 25.8984 26.6875 24.5C26.6899 24.1213 26.6066 23.7671 26.4375 23.4375C26.4375 23.3959 26.4375 23.3541 26.4375 23.3125C28.6425 20.3336 31.5591 18.4169 35.1875 17.5625Z" fill="#0054A6"/>
<path fill-rule="evenodd" clip-rule="evenodd" d="M21.0635 21.9375C22.2308 21.9167 23.3976 21.9375 24.5635 22C25.3681 22.1928 25.9931 22.6303 26.4385 23.3125C26.4385 23.3541 26.4385 23.3958 26.4385 23.4375C25.5823 24.4816 24.9157 25.6482 24.4385 26.9375C24.4385 26.9791 24.4385 27.0208 24.4385 27.0625C22.508 27.1387 21.6121 28.1387 21.751 30.0625C22.0412 30.9985 22.6453 31.6235 23.5635 31.9375C23.5635 31.9791 23.5635 32.0208 23.5635 32.0625C23.5988 34.1918 24.0363 36.2335 24.876 38.1875C24.9685 38.4148 25.1143 38.5815 25.3135 38.6875C25.3135 38.7708 25.3135 38.8541 25.3135 38.9375C25.0292 41.5236 23.571 42.5653 20.9385 42.0625C17.1677 37.6516 16.1468 32.6516 17.876 27.0625C18.5628 25.1023 19.6253 23.394 21.0635 21.9375Z" fill="#6FD7A3"/>
<path opacity="0.996" fill-rule="evenodd" clip-rule="evenodd" d="M42.9368 22.0625C46.2657 25.8248 47.4532 30.1998 46.4993 35.1875C45.8984 37.8065 44.7109 40.0983 42.9368 42.0625C41.4273 42.1173 39.9273 42.0548 38.4368 41.875C38.0264 41.6799 37.6722 41.4091 37.3743 41.0625C36.5467 39.5004 36.8592 38.2295 38.3118 37.25C39.3439 37.095 40.3857 37.0116 41.4368 37C42.3947 36.7919 43.0405 36.2294 43.3743 35.3125C43.5962 32.9271 42.492 31.823 40.0618 32C39.1659 31.6875 38.5618 31.0834 38.2493 30.1875C38.291 28.1043 37.2703 27.0418 35.1868 27C34.4422 26.7971 33.8797 26.3596 33.4993 25.6875C32.9073 24.0436 33.3864 22.8561 34.9368 22.125C37.6032 22.0625 40.2698 22.0416 42.9368 22.0625Z" fill="#9BE69D"/>
<path fill-rule="evenodd" clip-rule="evenodd" d="M26.4375 23.4375C26.6066 23.7671 26.6899 24.1213 26.6875 24.5C26.5595 25.8984 25.8095 26.7109 24.4375 26.9375C24.9148 25.6483 25.5814 24.4816 26.4375 23.4375Z" fill="#9BE59F"/>
<path fill-rule="evenodd" clip-rule="evenodd" d="M7.93676 25.8125C5.83293 27.1038 5.27043 28.8954 6.24926 31.1875C6.71621 31.8423 7.27871 32.3839 7.93676 32.8125C7.71104 32.878 7.50271 32.9614 7.31176 33.0625C6.77009 33.0625 6.22842 33.0625 5.68676 33.0625C3.39816 32.237 2.46066 30.612 2.87426 28.1875C3.51881 26.4999 4.74797 25.6249 6.56176 25.5625C7.04428 25.5458 7.50262 25.6292 7.93676 25.8125Z" fill="#F89580"/>
<path fill-rule="evenodd" clip-rule="evenodd" d="M58.8124 25.8125C56.7069 27.1086 56.1444 28.9003 57.1249 31.1875C57.5919 31.8422 58.1544 32.3838 58.8124 32.8125C58.5866 32.878 58.3784 32.9613 58.1874 33.0625C57.6457 33.0625 57.104 33.0625 56.5624 33.0625C54.2096 32.2755 53.2721 30.6505 53.7499 28.1875C54.3351 26.457 55.5435 25.582 57.3749 25.5625C57.878 25.544 58.3572 25.6273 58.8124 25.8125Z" fill="#DD7F66"/>
<path opacity="0.984" fill-rule="evenodd" clip-rule="evenodd" d="M7.93691 25.8125C10.0235 26.8817 10.711 28.5485 9.99941 30.8125C9.5763 31.7565 8.8888 32.4231 7.93691 32.8125C7.27886 32.3839 6.71636 31.8422 6.24941 31.1875C5.27058 28.8954 5.83308 27.1037 7.93691 25.8125Z" fill="#FEB09D"/>
<path opacity="0.984" fill-rule="evenodd" clip-rule="evenodd" d="M58.813 25.8125C60.9004 26.8843 61.5879 28.551 60.8755 30.8125C60.4524 31.7565 59.7649 32.4231 58.813 32.8125C58.155 32.3839 57.5925 31.8422 57.1255 31.1875C56.145 28.9004 56.7075 27.1086 58.813 25.8125Z" fill="#E4917F"/>
<path fill-rule="evenodd" clip-rule="evenodd" d="M24.4378 27.0625C23.8737 28.6339 23.5819 30.2589 23.5628 31.9375C22.6447 31.6235 22.0406 30.9985 21.7503 30.0625C21.6114 28.1387 22.5073 27.1388 24.4378 27.0625Z" fill="#0054A6"/>
<path fill-rule="evenodd" clip-rule="evenodd" d="M23.5625 32.0625C25.6879 32.0416 27.8129 32.0625 29.9375 32.125C30.8035 32.4493 31.366 33.0534 31.625 33.9375C31.8205 35.5705 31.133 36.5914 29.5625 37C28.6875 37.0416 27.8125 37.0834 26.9375 37.125C26.1653 37.4184 25.6235 37.9391 25.3125 38.6875C25.1134 38.5815 24.9675 38.4149 24.875 38.1875C24.0354 36.2335 23.5979 34.1919 23.5625 32.0625Z" fill="#9BE69D"/>
<path fill-rule="evenodd" clip-rule="evenodd" d="M5.6875 33.0625C6.22916 33.0625 6.77084 33.0625 7.3125 33.0625C7.59193 33.0257 7.84193 33.0674 8.0625 33.1875C5.57363 33.7803 3.88613 35.2803 3 37.6875C2.78721 38.8267 3.22471 39.5767 4.3125 39.9375C3.27 39.9583 2.22834 39.9375 1.1875 39.875C0.641314 39.7234 0.224646 39.4109 -0.0625 38.9375C-0.0625 38.4792 -0.0625 38.0209 -0.0625 37.5625C1.00473 34.9972 2.9214 33.4972 5.6875 33.0625Z" fill="#FD4855"/>
<path fill-rule="evenodd" clip-rule="evenodd" d="M56.5625 33.0625C57.1041 33.0625 57.6459 33.0625 58.1875 33.0625C58.4269 33.027 58.6351 33.0687 58.8125 33.1875C56.3946 33.8343 54.7489 35.3343 53.875 37.6875C53.6769 38.883 54.1561 39.633 55.3125 39.9375C54.0941 39.99 52.8858 39.9275 51.6875 39.75C51.0925 39.4567 50.7591 38.9774 50.6875 38.3125C51.4664 35.242 53.4246 33.492 56.5625 33.0625Z" fill="#FC9F2F"/>
<path opacity="0.993" fill-rule="evenodd" clip-rule="evenodd" d="M8.06199 33.1875C10.653 33.7991 12.3405 35.3824 13.1245 37.9375C13.2329 38.9493 12.7954 39.595 11.812 39.875C9.31234 39.9375 6.81234 39.9584 4.31199 39.9375C3.2242 39.5766 2.7867 38.8266 2.99949 37.6875C3.88561 35.2803 5.57311 33.7803 8.06199 33.1875Z" fill="#FE636E"/>
<path opacity="0.982" fill-rule="evenodd" clip-rule="evenodd" d="M58.813 33.1875C61.3304 33.7054 63.0387 35.1636 63.938 37.5625C63.938 38.0209 63.938 38.4791 63.938 38.9375C63.6509 39.4109 63.2341 39.7234 62.688 39.875C60.23 39.9375 57.7716 39.9584 55.313 39.9375C54.1566 39.633 53.6774 38.883 53.8755 37.6875C54.7494 35.3342 56.3951 33.8342 58.813 33.1875Z" fill="#F8B86B"/>
<path fill-rule="evenodd" clip-rule="evenodd" d="M25.3125 38.9375C27.464 42.8804 30.714 45.422 35.0625 46.5625C29.5221 47.6182 24.8138 46.1182 20.9375 42.0625C23.57 42.5654 25.0283 41.5236 25.3125 38.9375Z" fill="#0054A6"/>
<path opacity="0.952" fill-rule="evenodd" clip-rule="evenodd" d="M8.81218 42.1875C9.3029 42.1309 9.69872 42.2975 9.99968 42.6875C11.9545 46.657 14.7671 49.8863 18.4372 52.375C19.7394 53.1617 21.0519 53.9324 22.3747 54.6875C22.7114 55.5553 22.4198 56.0969 21.4997 56.3125C15.4573 53.7287 10.999 49.4787 8.12468 43.5625C7.9957 42.9218 8.22486 42.4634 8.81218 42.1875Z" fill="#798C98"/>
<path opacity="0.954" fill-rule="evenodd" clip-rule="evenodd" d="M54.4381 42.1875C55.4221 42.1502 55.8596 42.6085 55.7506 43.5625C52.8763 49.4787 48.418 53.7287 42.3756 56.3125C41.4555 56.0969 41.1638 55.5553 41.5006 54.6875C42.6778 53.9843 43.8653 53.2968 45.0631 52.625C48.9326 50.131 51.8701 46.8185 53.8756 42.6875C54.0502 42.4913 54.2377 42.3245 54.4381 42.1875Z" fill="#798C98"/>
<path fill-rule="evenodd" clip-rule="evenodd" d="M33.3126 49.9375C31.2842 51.2103 30.7217 52.9603 31.6251 55.1875C32.095 55.887 32.6991 56.4286 33.4376 56.8125C33.3109 56.9592 33.1442 57.0425 32.9376 57.0625C32.3126 57.0625 31.6876 57.0625 31.0626 57.0625C28.6324 56.2447 27.7365 54.5781 28.3751 52.0625C29.4307 49.9613 31.0765 49.253 33.3126 49.9375Z" fill="#FFB09E"/>
<path opacity="0.985" fill-rule="evenodd" clip-rule="evenodd" d="M33.3121 49.9375C34.8854 50.5558 35.6771 51.7224 35.6871 53.4375C35.6527 55.0497 34.9027 56.1747 33.4371 56.8125C32.6986 56.4286 32.0944 55.887 31.6246 55.1875C30.7212 52.9604 31.2837 51.2104 33.3121 49.9375Z" fill="#FFCDBE"/>
<path fill-rule="evenodd" clip-rule="evenodd" d="M31.0619 57.0625C31.6869 57.0625 32.3119 57.0625 32.9369 57.0625C33.0704 57.1793 33.237 57.221 33.4369 57.1875C30.7464 57.9405 29.0381 59.6696 28.3119 62.375C28.4292 63.0914 28.8042 63.6122 29.4369 63.9375C28.3952 63.9375 27.3535 63.9375 26.3119 63.9375C25.3207 63.3656 25.05 62.5322 25.4994 61.4375C26.5725 58.9669 28.4266 57.5085 31.0619 57.0625Z" fill="#FFD15B"/>
<path opacity="0.995" fill-rule="evenodd" clip-rule="evenodd" d="M33.4375 57.1875C35.7537 57.8158 37.3996 59.2324 38.375 61.4375C38.7869 62.5141 38.516 63.3475 37.5625 63.9375C34.8541 63.9375 32.1459 63.9375 29.4375 63.9375C28.8049 63.6122 28.4299 63.0914 28.3125 62.375C29.0387 59.6696 30.747 57.9405 33.4375 57.1875Z" fill="#FFE176"/>
</g>
<defs>
<clipPath id="clip0_14818_10504">
<rect width="64" height="64" fill="white"/>
</clipPath>
</defs>
</svg>
