<svg width="114" height="114" viewBox="0 0 114 114" fill="none" xmlns="http://www.w3.org/2000/svg">
<path d="M105.094 65.9062V69.4688H103.312C103.312 68.9963 103.125 68.5433 102.791 68.2092C102.457 67.8752 102.004 67.6875 101.531 67.6875V65.9062C101.515 55.3399 97.7446 45.1231 90.893 37.0792C84.0413 29.0354 74.5543 23.688 64.125 21.9913V18.3469C75.5276 20.0315 85.9428 25.7646 93.4656 34.4976C100.988 43.2306 105.116 54.3799 105.094 65.9062ZM64.125 46.3125V53.4375H49.875V46.3125H64.125ZM21.375 65.9062C21.3778 63.545 22.3171 61.2813 23.9867 59.6117C25.6563 57.9421 27.92 57.0028 30.2812 57H83.7188C86.08 57.0028 88.3437 57.9421 90.0133 59.6117C91.6829 61.2813 92.6222 63.545 92.625 65.9062V67.8834C91.4668 66.6938 90.082 65.7483 88.5523 65.1028C87.0226 64.4573 85.3791 64.1248 83.7188 64.125H30.2812C28.6209 64.1248 26.9774 64.4573 25.4477 65.1028C23.918 65.7483 22.5332 66.6938 21.375 67.8834V65.9062ZM55.2188 14.25H58.7812C59.2537 14.25 59.7067 14.4377 60.0408 14.7717C60.3748 15.1058 60.5625 15.5588 60.5625 16.0312V42.75H53.4375V16.0312C53.4375 15.5588 53.6252 15.1058 53.9592 14.7717C54.2933 14.4377 54.7463 14.25 55.2188 14.25ZM8.90625 65.9062C8.88389 54.3799 13.0116 43.2306 20.5344 34.4976C28.0572 25.7646 38.4724 20.0315 49.875 18.3469V21.9949C39.4463 23.6914 29.9597 29.0383 23.1082 37.0814C16.2566 45.1245 12.4858 55.3405 12.4688 65.9062V67.6875C11.9963 67.6875 11.5433 67.8752 11.2092 68.2092C10.8752 68.5433 10.6875 68.9963 10.6875 69.4688H8.90625V65.9062ZM8.90625 85.5C7.96142 85.5 7.05528 85.1247 6.38718 84.4566C5.71908 83.7885 5.34375 82.8823 5.34375 81.9375V76.5938C5.34375 75.6489 5.71908 74.7428 6.38718 74.0747C7.05528 73.4066 7.96142 73.0312 8.90625 73.0312H10.6875V85.5H8.90625ZM14.25 87.2812V71.25H17.8125V87.2812H14.25ZM92.625 92.625C92.6213 94.1044 92.0574 95.5275 91.0468 96.6078C90.0361 97.6882 88.6538 98.3457 87.1779 98.4479L67.8371 99.7357C66.9582 99.7957 66.0766 99.6664 65.2519 99.3567C64.4272 99.0469 63.6785 98.5639 63.0563 97.9403L61.2999 96.1875C60.1595 95.0471 58.6128 94.4065 57 94.4065C55.3872 94.4065 53.8405 95.0471 52.7001 96.1875L50.9473 97.9403C50.3206 98.5577 49.5712 99.0368 48.7476 99.3463C47.9241 99.6559 47.0447 99.7892 46.1664 99.7375L26.8221 98.4479C25.3462 98.3457 23.9639 97.6882 22.9532 96.6078C21.9426 95.5275 21.3787 94.1044 21.375 92.625V76.5938C21.3778 74.2325 22.3171 71.9688 23.9867 70.2992C25.6563 68.6296 27.92 67.6903 30.2812 67.6875H83.7188C86.08 67.6903 88.3437 68.6296 90.0133 70.2992C91.6829 71.9688 92.6222 74.2325 92.625 76.5938V92.625ZM99.75 87.2812H96.1875V71.25H99.75V87.2812ZM108.656 81.9375C108.656 82.8823 108.281 83.7885 107.613 84.4566C106.945 85.1247 106.039 85.5 105.094 85.5H103.312V73.0312H105.094C106.039 73.0312 106.945 73.4066 107.613 74.0747C108.281 74.7428 108.656 75.6489 108.656 76.5938V81.9375Z" fill="#0054A6"/>
</svg>
