<svg width="50" height="50" viewBox="0 0 50 50" fill="none" xmlns="http://www.w3.org/2000/svg">
<g clip-path="url(#clip0_14818_7367)">
<path opacity="0.992" fill-rule="evenodd" clip-rule="evenodd" d="M39.2083 17.139C38.9992 16.8488 38.7388 16.6047 38.427 16.4066C32.8109 12.4756 27.212 8.52047 21.6302 4.54138C15.7396 8.67572 9.88026 12.8424 4.05203 17.0414C3.70909 17.3021 3.35102 17.5463 2.97781 17.7738C2.6395 17.8536 2.31399 17.821 2.00125 17.6761C1.58226 17.0824 1.17536 16.4802 0.780548 15.8695C0.706819 15.5958 0.73937 15.3353 0.878204 15.0883C3.29686 13.2712 5.75454 11.5134 8.25125 9.81482C10.1011 8.53093 11.9565 7.24512 13.8177 5.9574C13.9681 5.82349 14.0984 5.67701 14.2083 5.51794C16.3526 4.08681 18.4685 2.60569 20.5559 1.07458C21.1117 0.720263 21.6976 0.655158 22.3138 0.879272C29.0574 5.5397 35.7469 10.2761 42.3821 15.0883C42.5774 15.4137 42.5774 15.7393 42.3821 16.0648C42.0174 16.6902 41.5779 17.2598 41.0638 17.7738C40.7708 17.8389 40.4778 17.8389 40.1848 17.7738C39.8954 17.4994 39.5698 17.2879 39.2083 17.139Z" fill="#FE663B"/>
<path opacity="0.988" fill-rule="evenodd" clip-rule="evenodd" d="M14.2092 5.51786C14.0994 5.67692 13.9691 5.8234 13.8186 5.95731C11.9575 7.24503 10.102 8.53084 8.25219 9.81473C8.23592 7.79624 8.25219 5.77801 8.30102 3.76004C8.34645 3.62032 8.42784 3.50638 8.54516 3.41825C10.2616 3.25822 11.9868 3.22567 13.7209 3.32059C13.9913 3.49266 14.1377 3.7368 14.1604 4.05301C14.2091 4.54021 14.2254 5.02849 14.2092 5.51786Z" fill="#E8572E"/>
<path opacity="0.998" fill-rule="evenodd" clip-rule="evenodd" d="M39.2091 17.1387C39.2091 20.4265 39.2091 23.7142 39.2091 27.002C38.7573 26.8786 38.3017 26.7647 37.8419 26.6602C36.4751 26.6113 35.1079 26.595 33.7404 26.6113C33.6544 25.7604 33.1987 25.2232 32.3732 25C31.2664 24.9349 30.1596 24.9349 29.0529 25C28.3678 25.2811 27.9772 25.7855 27.881 26.5137C26.456 26.5935 25.0236 26.6423 23.5841 26.6602C21.5593 27.239 20.6153 28.5898 20.7521 30.7129C19.5628 30.6809 18.3909 30.7134 17.2364 30.8105C16.3196 30.9829 15.8314 31.5363 15.7716 32.4707C15.0255 32.8438 14.2768 33.2181 13.5255 33.5938C13.0013 33.9749 12.6595 34.4795 12.5001 35.1074C12.4513 37.5812 12.435 40.0551 12.4513 42.5293C10.2334 42.5729 8.01985 42.5241 5.81066 42.3828C5.01313 42.1062 4.47602 41.569 4.19933 40.7715C4.05395 32.8656 4.00512 24.9555 4.05285 17.041C9.88107 12.842 15.7404 8.67535 21.631 4.54102C27.2128 8.52011 32.8117 12.4752 38.4278 16.4062C38.7396 16.6043 39 16.8484 39.2091 17.1387Z" fill="#E3F1FF"/>
<path fill-rule="evenodd" clip-rule="evenodd" d="M33.7402 26.6114C34.1896 27.96 34.5803 29.3272 34.9121 30.7129C36.8652 30.7129 38.8184 30.7129 40.7715 30.7129C32.9429 30.8105 25.0979 30.8431 17.2363 30.8106C18.3908 30.7134 19.5627 30.6809 20.752 30.7129C22.7062 30.7454 24.6593 30.7129 26.6113 30.6153C27.0361 29.2397 27.4593 27.8725 27.8809 26.5137C27.9771 25.7856 28.3677 25.2811 29.0527 25C30.1595 24.9349 31.2663 24.9349 32.373 25C33.1985 25.2233 33.6543 25.7604 33.7402 26.6114Z" fill="#9EB9CE"/>
<path fill-rule="evenodd" clip-rule="evenodd" d="M27.8802 26.5137C27.4586 27.8725 27.0354 29.2396 26.6106 30.6152C24.6586 30.7129 22.7055 30.7454 20.7513 30.7129C20.6145 28.5898 21.5585 27.239 23.5833 26.6602C25.0228 26.6423 26.4552 26.5935 27.8802 26.5137Z" fill="#B1CBDD"/>
<path opacity="0.995" fill-rule="evenodd" clip-rule="evenodd" d="M33.7402 26.6116C35.1078 26.5953 36.475 26.6116 37.8418 26.6604C38.3016 26.765 38.7572 26.8789 39.209 27.0022C40.4444 27.9121 40.9978 29.1491 40.8691 30.7131C40.8366 30.7131 40.804 30.7131 40.7715 30.7131C38.8184 30.7131 36.8652 30.7131 34.9121 30.7131C34.5803 29.3274 34.1896 27.9602 33.7402 26.6116Z" fill="#B1CBDD"/>
<path opacity="0.996" fill-rule="evenodd" clip-rule="evenodd" d="M40.7715 30.7125C40.804 30.7125 40.8366 30.7125 40.8691 30.7125C42.1771 30.671 43.4792 30.7199 44.7754 30.859C45.4617 31.173 45.8198 31.7101 45.8496 32.4704C45.7194 37.4833 45.7194 42.4964 45.8496 47.5094C45.7599 48.3637 45.3041 48.9008 44.4824 49.1207C41.0645 49.1859 37.6465 49.1859 34.2285 49.1207C33.8665 49.0293 33.5572 48.8503 33.3008 48.5836C33.0117 47.6252 32.6861 46.6812 32.3242 45.7516C31.3426 44.7606 30.3335 44.7281 29.2969 45.654C29.142 45.8659 29.0117 46.0938 28.9062 46.3375C28.7847 47.0764 28.5894 47.7925 28.3203 48.486C28.0894 48.815 27.7801 49.0266 27.3926 49.1207C23.9421 49.1859 20.4915 49.1859 17.041 49.1207C16.2083 48.903 15.7852 48.3659 15.7715 47.5094C15.7715 42.4964 15.7715 37.4833 15.7715 32.4704C15.8312 31.536 16.3195 30.9826 17.2363 30.8102C25.0979 30.8427 32.9429 30.8101 40.7715 30.7125Z" fill="#09558E"/>
<path opacity="0.981" fill-rule="evenodd" clip-rule="evenodd" d="M45.8496 32.4707C46.6885 32.825 47.5022 33.2319 48.291 33.6914C48.7088 34.1202 48.9854 34.6247 49.1211 35.2051C49.1862 38.3626 49.1862 41.5202 49.1211 44.6777C49.0175 45.3344 48.7082 45.8715 48.1933 46.2891C47.4249 46.7222 46.6436 47.129 45.8496 47.5098C45.7194 42.4968 45.7194 37.4837 45.8496 32.4707Z" fill="#AFC9DC"/>
<path opacity="0.995" fill-rule="evenodd" clip-rule="evenodd" d="M15.7717 32.4707C15.7717 37.4837 15.7717 42.4968 15.7717 47.5098C15.0256 47.1367 14.2769 46.7624 13.5256 46.3867C13.0329 46.0242 12.6911 45.5521 12.5003 44.9707C12.4514 44.1575 12.4352 43.3438 12.4514 42.5293C12.4351 40.0551 12.4514 37.5812 12.5003 35.1074C12.6596 34.4795 13.0014 33.9749 13.5256 33.5938C14.2769 33.2181 15.0256 32.8438 15.7717 32.4707Z" fill="#B1CBDD"/>
<path fill-rule="evenodd" clip-rule="evenodd" d="M20.3619 33.3494C21.4847 33.2495 21.8265 33.7053 21.3872 34.7166C20.8176 35.2862 20.2479 35.856 19.6783 36.4256C18.6982 36.7803 18.2587 36.4385 18.3599 35.4002C19.047 34.7295 19.7143 34.0459 20.3619 33.3494Z" fill="#0F6AAE"/>
<path fill-rule="evenodd" clip-rule="evenodd" d="M25.3418 33.3492C26.3711 33.222 26.7455 33.6451 26.4649 34.6187C24.2025 36.8811 21.9402 39.1435 19.6778 41.4059C19.168 41.7663 18.7285 41.6849 18.3594 41.1617C18.2943 40.9013 18.2943 40.6409 18.3594 40.3805C20.7066 38.0496 23.034 35.7059 25.3418 33.3492Z" fill="#0F6AAE"/>
</g>
<defs>
<clipPath id="clip0_14818_7367">
<rect width="50" height="50" fill="white"/>
</clipPath>
</defs>
</svg>
