<svg width="334" height="370" viewBox="0 0 334 370" fill="none" xmlns="http://www.w3.org/2000/svg">
<path d="M328.52 121.72L322.45 118.22C322.79 116.37 323 114.48 323 112.53C323 110.59 322.8 108.69 322.46 106.84L328.53 103.34C331.01 101.91 331.87 98.72 330.43 96.24L325.23 87.24C323.8 84.76 320.61 83.9 318.13 85.34L315.06 87.11C313.38 88.08 311.26 88.09 309.66 86.98C308.2 85.96 306.65 85.07 305.02 84.31C303.25 83.49 302.2 81.64 302.2 79.7V76.15C302.2 73.28 299.87 70.95 297 70.95H286.6C283.73 70.95 281.4 73.28 281.4 76.15V79.7C281.4 81.64 280.35 83.49 278.59 84.31C276.96 85.07 275.41 85.96 273.95 86.98C272.36 88.09 270.23 88.08 268.55 87.11L265.48 85.34C263 83.91 259.81 84.76 258.38 87.24L253.18 96.24C251.75 98.72 252.6 101.91 255.08 103.34L261.15 106.84C260.81 108.69 260.6 110.58 260.6 112.53C260.6 114.47 260.8 116.37 261.14 118.22L255.07 121.72C252.59 123.15 251.73 126.34 253.17 128.82L258.37 137.82C259.8 140.3 262.99 141.16 265.47 139.72L268.54 137.95C270.22 136.98 272.34 136.97 273.94 138.08C275.4 139.1 276.95 139.99 278.58 140.75C280.35 141.57 281.4 143.42 281.4 145.36V148.91C281.4 151.78 283.73 154.11 286.6 154.11H297C299.87 154.11 302.2 151.78 302.2 148.91V145.36C302.2 143.42 303.25 141.57 305.01 140.75C306.64 139.99 308.19 139.1 309.65 138.08C311.24 136.97 313.37 136.98 315.05 137.95L318.12 139.72C320.6 141.15 323.79 140.3 325.22 137.82L330.42 128.82C331.85 126.34 331 123.15 328.52 121.72ZM291.81 133.32C280.33 133.32 271.02 124.01 271.02 112.53C271.02 101.05 280.33 91.74 291.81 91.74C303.29 91.74 312.6 101.05 312.6 112.53C312.6 124.01 303.29 133.32 291.81 133.32Z" fill="#D2D9DC"/>
<path d="M162.63 334C244.617 334 311.08 327.741 311.08 320.021C311.08 312.3 244.617 306.042 162.63 306.042C80.6435 306.042 14.1802 312.3 14.1802 320.021C14.1802 327.741 80.6435 334 162.63 334Z" fill="#D2D9DC"/>
<path d="M205.65 320.759H119.61L134.41 278.223H190.86L205.65 320.759Z" fill="#839299"/>
<path opacity="0.19" d="M205.65 320.759H119.61L134.41 278.223H190.86L205.65 320.759Z" fill="#2D2F31"/>
<path d="M285.19 297.726H40.0798C31.6298 297.726 24.7798 290.896 24.7798 282.47V146.836H300.49V282.47C300.49 290.896 293.64 297.726 285.19 297.726Z" fill="#D2D9DC"/>
<path d="M300.49 264.792H24.7798V116.714C24.7798 111.091 29.3598 106.524 34.9998 106.524H290.27C295.91 106.524 300.49 111.091 300.49 116.714V264.792Z" fill="#002548"/>
<path d="M162.63 288.443C167.065 288.443 170.66 284.858 170.66 280.436C170.66 276.014 167.065 272.43 162.63 272.43C158.195 272.43 154.6 276.014 154.6 280.436C154.6 284.858 158.195 288.443 162.63 288.443Z" fill="#839299"/>
<path d="M290.09 117.093V157.894L224.22 249.447L35.1802 191.257V117.093H290.09Z" fill="#0054A6"/>
<path d="M35.1802 191.257C35.1802 191.257 73.2202 159.18 111.78 178.743C150.34 198.306 157.3 237.542 208.99 233.613C262.05 229.575 226.69 164.385 290.09 157.894V254.213H35.1802V191.257Z" fill="#0054A6"/>
<path d="M35.1802 117.093C35.1802 117.093 44.8502 154.335 106.35 145.52C162.63 137.454 159.76 192.344 196.58 194.318C233.39 196.292 244.22 156.947 257.79 143.167C271.36 129.377 290.1 131.741 290.1 131.741V117.103H35.1802V117.093Z" fill="#D2D9DC"/>
<path d="M73.21 160.317C73.8893 160.317 74.44 159.808 74.44 159.18C74.44 158.553 73.8893 158.044 73.21 158.044C72.5307 158.044 71.98 158.553 71.98 159.18C71.98 159.808 72.5307 160.317 73.21 160.317Z" fill="#D2D9DC"/>
<path d="M152.94 198.934C152.94 199.562 152.39 200.071 151.71 200.071C151.03 200.071 150.48 199.562 150.48 198.934C150.48 198.306 151.03 197.798 151.71 197.798C152.39 197.798 152.94 198.306 152.94 198.934Z" fill="#D2D9DC"/>
<path d="M121.74 146.099H66.3598C64.5098 146.099 63.0098 144.603 63.0098 142.758V122.019C63.0098 120.174 64.5098 118.679 66.3598 118.679H121.74C123.59 118.679 125.09 120.174 125.09 122.019V142.758C125.09 144.603 123.59 146.099 121.74 146.099Z" fill="#002548"/>
<path d="M74.9101 127.333H68.1401V134.074H74.9101V127.333Z" fill="#839299"/>
<path d="M78.2998 130.704H71.5298V137.444H78.2998V130.704Z" fill="#839299"/>
<path d="M88.7998 127.333H82.0298V134.074H88.7998V127.333Z" fill="#839299"/>
<path d="M92.1802 130.704H85.4102V137.444H92.1802V130.704Z" fill="#F9FAFB"/>
<path d="M102.69 127.333V130.704H99.2999V134.074H95.9199V127.333H102.69Z" fill="#F9FAFB"/>
<path d="M102.69 130.704H99.2998V134.074H102.69V130.704Z" fill="#839299"/>
<path d="M106.07 130.704V137.444H99.2998V134.074H102.69V130.704H106.07Z" fill="#F9FAFB"/>
<path d="M116.58 127.333V130.704H113.19V134.074H109.8V127.333H116.58Z" fill="#839299"/>
<path d="M116.58 130.704H113.19V134.074H116.58V130.704Z" fill="#F9FAFB"/>
<path d="M119.96 130.704V137.444H113.19V134.074H116.58V130.704H119.96Z" fill="#839299"/>
<path d="M12 148.043V88.736C12 86.1735 14.08 84.0996 16.65 84.0996H45.48C48.05 84.0996 50.13 86.1735 50.13 88.736V148.043C50.13 150.605 48.05 152.679 45.48 152.679H16.65C14.08 152.679 12 150.605 12 148.043Z" fill="#ED1C24"/>
<path d="M44.8699 143.616L41.0899 139.857C41.6799 139.159 41.9999 138.281 41.9999 137.354C41.9999 136.307 41.5899 135.32 40.8499 134.582C39.3099 133.057 36.8099 133.057 35.2799 134.582C34.5399 135.32 34.1299 136.307 34.1299 137.354C34.1299 138.401 34.5399 139.388 35.2799 140.126C36.0499 140.894 37.0599 141.273 38.0699 141.273C38.9599 141.273 39.8599 140.974 40.5799 140.375L44.3599 144.134L44.8699 143.616ZM35.7899 139.617C35.1799 139.019 34.8499 138.212 34.8499 137.364C34.8499 136.517 35.1799 135.709 35.7899 135.111C36.4199 134.492 37.2399 134.173 38.0599 134.173C38.8799 134.173 39.6999 134.482 40.3299 135.111C40.9399 135.709 41.2699 136.517 41.2699 137.364C41.2699 138.212 40.9399 139.019 40.3299 139.617C39.0799 140.854 37.0399 140.854 35.7899 139.617Z" fill="#F9FAFB"/>
<path d="M39.5498 116.874C38.3298 116.874 37.1098 116.415 36.1798 115.488C35.2798 114.591 34.7798 113.404 34.7798 112.138C34.7798 110.871 35.2798 109.675 36.1798 108.787C38.0398 106.943 41.0598 106.943 42.9198 108.787C43.8198 109.685 44.3198 110.871 44.3198 112.138C44.3198 113.404 43.8198 114.601 42.9198 115.488C41.9898 116.415 40.7698 116.874 39.5498 116.874ZM39.5498 108.129C38.5198 108.129 37.4898 108.518 36.6998 109.306C35.9398 110.064 35.5198 111.071 35.5198 112.138C35.5198 113.205 35.9398 114.212 36.6998 114.969C38.2698 116.535 40.8298 116.535 42.3998 114.969C43.1598 114.212 43.5798 113.205 43.5798 112.138C43.5798 111.071 43.1598 110.064 42.3998 109.306C41.6098 108.518 40.5798 108.129 39.5498 108.129Z" fill="#F9FAFB"/>
<path d="M42.799 121.732L35.7695 128.725L36.2922 129.248L43.3216 122.255L42.799 121.732Z" fill="#F9FAFB"/>
<path d="M18.7197 94.3397L24.9196 98.4577L21.4296 98.1486C21.4096 98.1486 21.3896 98.1486 21.3596 98.1486C21.0696 98.1486 20.8096 98.3181 20.6896 98.5773L19.2296 101.748L18.7197 94.3397ZM17.8896 92.9039L18.7096 104.66L21.3797 98.8864L27.7397 99.4547L17.8896 92.9039Z" fill="#F9FAFB"/>
<path d="M34.6201 92.9039L35.4501 104.66L38.1101 98.8864L44.4801 99.4448L34.6201 92.9039Z" fill="#F9FAFB"/>
<path d="M18.7197 121.57V123.435H19.4597V122.298H22.4397V128.679H21.3297V129.407H24.2997V128.679H23.1797V122.298H26.1597V123.435H26.8997V121.57H18.7197Z" fill="#F9FAFB"/>
<path d="M24.2755 110.308L17.2461 117.301L17.7688 117.823L24.7982 110.83L24.2755 110.308Z" fill="#F9FAFB"/>
<path d="M23.5898 109.077C22.5998 109.077 21.7998 109.874 21.7998 110.851C21.7998 109.874 20.9998 109.077 20.0098 109.077C20.9998 109.077 21.7998 108.279 21.7998 107.302C21.7998 108.279 22.5998 109.077 23.5898 109.077Z" fill="#F9FAFB"/>
<path d="M27.0999 108.05C26.3599 108.05 25.7499 108.648 25.7499 109.386C25.7499 108.648 25.1499 108.05 24.3999 108.05C25.1399 108.05 25.7499 107.451 25.7499 106.714C25.7499 107.451 26.3499 108.05 27.0999 108.05Z" fill="#F9FAFB"/>
<path d="M28.1097 111.37C27.3697 111.37 26.7597 111.968 26.7597 112.706C26.7597 111.968 26.1597 111.37 25.4097 111.37C26.1497 111.37 26.7597 110.772 26.7597 110.034C26.7597 110.772 27.3697 111.37 28.1097 111.37Z" fill="#F9FAFB"/>
<path d="M27.51 134.173C27.19 133.854 26.67 133.854 26.35 134.173L25.42 135.091L25.08 134.752C24.76 134.433 24.24 134.433 23.92 134.752C23.65 135.021 23.61 135.42 23.79 135.729L17.97 141.512C17.68 141.801 17.52 142.18 17.52 142.589C17.52 142.998 17.68 143.377 17.97 143.666C18.27 143.965 18.66 144.114 19.05 144.114C19.44 144.114 19.83 143.965 20.13 143.666L25.95 137.883C26.26 138.062 26.67 138.012 26.93 137.753C27.25 137.434 27.25 136.915 26.93 136.596L26.59 136.257L27.52 135.34C27.83 135.011 27.83 134.492 27.51 134.173ZM19.6 143.147C19.29 143.456 18.79 143.456 18.48 143.147C18.33 142.998 18.25 142.798 18.25 142.589C18.25 142.379 18.33 142.18 18.48 142.03L24.28 136.267L25.4 137.384L19.6 143.147Z" fill="#F9FAFB"/>
<path d="M155.29 89.4938H67.8101C66.0301 89.4938 64.5801 88.058 64.5801 86.2732V69.6817C64.5801 67.9068 66.0201 66.4611 67.8101 66.4611H155.29C157.07 66.4611 158.52 67.8969 158.52 69.6817V86.2832C158.51 88.058 157.07 89.4938 155.29 89.4938Z" fill="#002548"/>
<path d="M71.4301 73.002H70.6001V82.9629H71.4301V73.002Z" fill="#D2D9DC"/>
<path d="M76.9603 74.1486H72.0503V76.9704H76.9603V74.1486Z" fill="#D2D9DC"/>
<path d="M78.7703 77.8079H72.0503V80.6297H78.7703V77.8079Z" fill="#D2D9DC"/>
<path d="M108.23 73.002H107.4V82.9629H108.23V73.002Z" fill="#D2D9DC"/>
<path d="M101.867 76.9795H106.777V74.1577H101.867V76.9795Z" fill="#D2D9DC"/>
<path d="M100.056 80.6389H106.776V77.8171H100.056V80.6389Z" fill="#D2D9DC"/>
<path d="M89.83 73.002H89V82.9629H89.83V73.002Z" fill="#D2D9DC"/>
<path d="M92.4002 74.1486H86.4302V76.9704H92.4002V74.1486Z" fill="#D2D9DC"/>
<path d="M93.5001 77.8079H85.3301V80.6297H93.5001V77.8079Z" fill="#D2D9DC"/>
<path d="M137.98 77.5686H127.97V78.3962H137.98V77.5686Z" fill="#D2D9DC"/>
<path d="M136.827 80.9462V75.0135H133.987V80.9462H136.827Z" fill="#D2D9DC"/>
<path d="M133.148 82.0416V73.9153H130.308V82.0416H133.148Z" fill="#D2D9DC"/>
<path d="M123.46 72.992H113.45V73.8196H123.46V72.992Z" fill="#D2D9DC"/>
<path d="M121.709 80.3604V74.4277H118.869V80.3604H121.709Z" fill="#D2D9DC"/>
<path d="M118.039 82.5507V74.4244H115.199V82.5507H118.039Z" fill="#D2D9DC"/>
<path d="M152.5 82.1353H142.49V82.9629H152.5V82.1353Z" fill="#D2D9DC"/>
<path d="M147.917 75.601V81.5337H150.757V75.601H147.917Z" fill="#D2D9DC"/>
<path d="M144.237 73.4107V81.5369H147.077V73.4107H144.237Z" fill="#D2D9DC"/>
<path d="M52.5299 58.5043L49.8399 56.9488C49.9899 56.1312 50.0799 55.2937 50.0799 54.4262C50.0799 53.5587 49.9899 52.7212 49.8399 51.9036L52.5299 50.3481C53.6299 49.71 54.0099 48.3041 53.3699 47.2073L51.0599 43.2189C50.4199 42.1221 49.0099 41.7432 47.9099 42.3814L46.5499 43.1691C45.7999 43.5978 44.8599 43.6078 44.1499 43.1092C43.4999 42.6606 42.8099 42.2617 42.0899 41.9227C41.3099 41.5638 40.8399 40.7461 40.8399 39.8787V38.3033C40.8399 37.037 39.8099 36 38.5299 36H33.9099C32.6399 36 31.5999 37.027 31.5999 38.3033V39.8787C31.5999 40.7362 31.1299 41.5538 30.3499 41.9227C29.6299 42.2617 28.9399 42.6506 28.2899 43.1092C27.5799 43.5978 26.6399 43.5978 25.8899 43.1691L24.5299 42.3814C23.4299 41.7432 22.0099 42.1221 21.3799 43.2189L19.0699 47.2073C18.4299 48.3041 18.8099 49.7199 19.9099 50.3481L22.5999 51.9036C22.4499 52.7212 22.3599 53.5587 22.3599 54.4262C22.3599 55.2937 22.4499 56.1312 22.5999 56.9488L19.9099 58.5043C18.8099 59.1424 18.4299 60.5483 19.0699 61.6451L21.3799 65.6335C22.0199 66.7303 23.4299 67.1092 24.5299 66.471L25.8899 65.6833C26.6399 65.2546 27.5799 65.2446 28.2899 65.7432C28.9399 66.1919 29.6299 66.5907 30.3499 66.9297C31.1299 67.2887 31.5999 68.1063 31.5999 68.9737V70.5491C31.5999 71.8154 32.6299 72.8524 33.9099 72.8524H38.5299C39.7999 72.8524 40.8399 71.8254 40.8399 70.5491V68.9737C40.8399 68.1162 41.3099 67.2986 42.0899 66.9297C42.8099 66.5907 43.4999 66.2018 44.1499 65.7432C44.8599 65.2546 45.7999 65.2546 46.5499 65.6833L47.9099 66.471C49.0099 67.1092 50.4299 66.7303 51.0599 65.6335L53.3699 61.6451C54.0099 60.5483 53.6299 59.1424 52.5299 58.5043ZM36.2299 63.6393C31.1299 63.6393 26.9999 59.5213 26.9999 54.4362C26.9999 49.351 31.1299 45.233 36.2299 45.233C41.3299 45.233 45.4599 49.351 45.4599 54.4362C45.4599 59.5213 41.3299 63.6393 36.2299 63.6393Z" fill="#D2D9DC"/>
<path d="M321.1 177.018L319 175.812C319.12 175.174 319.19 174.516 319.19 173.848C319.19 173.18 319.12 172.521 319 171.883L321.1 170.677C321.96 170.178 322.26 169.081 321.76 168.224L319.96 165.113C319.46 164.256 318.36 163.956 317.5 164.455L316.44 165.063C315.86 165.402 315.12 165.402 314.57 165.023C314.06 164.674 313.53 164.365 312.97 164.106C312.36 163.827 311.99 163.189 311.99 162.511V161.284C311.99 160.297 311.18 159.489 310.19 159.489H306.59C305.6 159.489 304.79 160.297 304.79 161.284V162.511C304.79 163.179 304.43 163.817 303.82 164.106C303.26 164.365 302.72 164.674 302.22 165.023C301.67 165.412 300.93 165.402 300.35 165.063L299.29 164.455C298.43 163.956 297.33 164.256 296.83 165.113L295.03 168.224C294.53 169.081 294.83 170.178 295.69 170.677L297.79 171.883C297.67 172.521 297.6 173.18 297.6 173.848C297.6 174.516 297.67 175.174 297.79 175.812L295.69 177.018C294.83 177.517 294.53 178.614 295.03 179.471L296.83 182.582C297.33 183.44 298.43 183.739 299.29 183.24L300.35 182.632C300.93 182.293 301.67 182.293 302.22 182.672C302.73 183.021 303.26 183.33 303.82 183.589C304.43 183.868 304.8 184.506 304.8 185.184V186.411C304.8 187.398 305.61 188.206 306.6 188.206H310.2C311.19 188.206 312 187.398 312 186.411V185.184C312 184.516 312.36 183.878 312.97 183.589C313.53 183.33 314.07 183.021 314.57 182.672C315.12 182.283 315.86 182.293 316.44 182.632L317.5 183.24C318.36 183.739 319.46 183.44 319.96 182.582L321.76 179.471C322.25 178.604 321.96 177.507 321.1 177.018ZM308.39 181.017C304.42 181.017 301.19 177.806 301.19 173.838C301.19 169.879 304.41 166.659 308.39 166.659C312.36 166.659 315.59 169.869 315.59 173.838C315.59 177.806 312.37 181.017 308.39 181.017Z" fill="#839299"/>
<path d="M228.07 320.759H97.2002C97.2002 316.381 100.76 312.832 105.15 312.832H220.11C224.51 312.832 228.07 316.381 228.07 320.759Z" fill="#839299"/>
<path opacity="0.19" d="M35.1802 191.257C35.1802 191.257 73.2202 159.18 111.78 178.743C150.34 198.306 157.3 237.542 208.99 233.613C262.05 229.575 226.69 164.385 290.09 157.894V254.213H35.1802V191.257Z" fill="#2D2F31"/>
<path d="M210.45 232.197H207.53V234.889H210.45V232.197Z" fill="#D2D9DC"/>
<path d="M157.3 237.781C157.16 237.781 157.05 237.681 157.03 237.552C157.02 237.412 157.13 237.292 157.27 237.282L262.3 229.296C262.45 229.286 262.58 229.385 262.59 229.525C262.6 229.665 262.49 229.784 262.35 229.794L157.32 237.781C157.31 237.781 157.3 237.781 157.3 237.781Z" fill="#D2D9DC"/>
<path d="M158.53 237.542C158.53 238.17 157.98 238.678 157.3 238.678C156.62 238.678 156.07 238.17 156.07 237.542C156.07 236.913 156.62 236.405 157.3 236.405C157.98 236.405 158.53 236.913 158.53 237.542Z" fill="#D2D9DC"/>
<path d="M263.56 229.545C263.56 230.173 263.01 230.682 262.33 230.682C261.65 230.682 261.1 230.173 261.1 229.545C261.1 228.917 261.65 228.408 262.33 228.408C263.01 228.418 263.56 228.927 263.56 229.545Z" fill="#D2D9DC"/>
<path d="M151.71 199.184C151.67 199.184 151.62 199.174 151.58 199.154L73.0802 159.4C72.9502 159.33 72.9002 159.18 72.9702 159.061C73.0402 158.941 73.2002 158.901 73.3302 158.961L151.83 198.715C151.96 198.785 152.01 198.934 151.94 199.054C151.89 199.134 151.8 199.184 151.71 199.184Z" fill="#D2D9DC"/>
<path d="M112.46 176.839H109.54V179.531H112.46V176.839Z" fill="#D2D9DC"/>
</svg>
