<svg width="50" height="50" viewBox="0 0 50 50" fill="none" xmlns="http://www.w3.org/2000/svg">
<path d="M44.5312 1.5625H19.5312C18.4952 1.5625 17.5017 1.97405 16.7691 2.70661C16.0366 3.43918 15.625 4.43275 15.625 5.46875V22.6562C15.625 23.6923 16.0366 24.6858 16.7691 25.4184C17.5017 26.1509 18.4952 26.5625 19.5312 26.5625H28.125V30.4688C28.1254 30.613 28.1658 30.7544 28.2417 30.8771C28.3175 30.9998 28.4258 31.0991 28.5547 31.1641C28.6844 31.2299 28.8299 31.2582 28.9749 31.2457C29.1198 31.2333 29.2584 31.1807 29.375 31.0938L35.4141 26.5625H44.5312C45.5673 26.5625 46.5608 26.1509 47.2934 25.4184C48.026 24.6858 48.4375 23.6923 48.4375 22.6562V5.46875C48.4375 4.43275 48.026 3.43918 47.2934 2.70661C46.5608 1.97405 45.5673 1.5625 44.5312 1.5625Z" fill="#68B1FC"/>
<path d="M48.4375 5.46875V22.6562C48.4375 23.6923 48.0259 24.6858 47.2934 25.4184C46.5608 26.1509 45.5673 26.5625 44.5312 26.5625H41.4062C42.4423 26.5625 43.4358 26.1509 44.1684 25.4184C44.9009 24.6858 45.3125 23.6923 45.3125 22.6562V5.46875C45.3125 4.43275 44.9009 3.43918 44.1684 2.70661C43.4358 1.97405 42.4423 1.5625 41.4062 1.5625H44.5312C45.5673 1.5625 46.5608 1.97405 47.2934 2.70661C48.0259 3.43918 48.4375 4.43275 48.4375 5.46875Z" fill="#539FFB"/>
<path d="M11.7188 15.625C9.85395 15.625 8.06552 16.3658 6.74691 17.6844C5.42829 19.003 4.6875 20.7914 4.6875 22.6562V30.4688C4.6875 32.3336 5.42829 34.122 6.74691 35.4406C8.06552 36.7592 9.85395 37.5 11.7188 37.5C13.5836 37.5 15.372 36.7592 16.6906 35.4406C18.0092 34.122 18.75 32.3336 18.75 30.4688V22.6562C18.75 20.7914 18.0092 19.003 16.6906 17.6844C15.372 16.3658 13.5836 15.625 11.7188 15.625Z" fill="#E7EAEF"/>
<path d="M11.7188 15.625C11.1927 15.6247 10.6684 15.6849 10.1562 15.8047C11.709 16.1586 13.0956 17.0292 14.0891 18.2739C15.0826 19.5186 15.6241 21.0637 15.625 22.6563V30.4688C15.6241 32.0613 15.0826 33.6064 14.0891 34.8511C13.0956 36.0958 11.709 36.9664 10.1562 37.3203C10.6684 37.4401 11.1927 37.5004 11.7188 37.5C13.5836 37.5 15.372 36.7592 16.6906 35.4406C18.0092 34.122 18.75 32.3336 18.75 30.4688V22.6563C18.75 20.7914 18.0092 19.003 16.6906 17.6844C15.372 16.3658 13.5836 15.625 11.7188 15.625Z" fill="#D8DBE0"/>
<path d="M13.2812 39.0625H10.1562C9.72478 39.0625 9.375 39.4123 9.375 39.8438V44.5312C9.375 44.9627 9.72478 45.3125 10.1562 45.3125H13.2812C13.7127 45.3125 14.0625 44.9627 14.0625 44.5312V39.8438C14.0625 39.4123 13.7127 39.0625 13.2812 39.0625Z" fill="#E7EAEF"/>
<path d="M13.2812 39.0625H11.7188C11.926 39.0625 12.1247 39.1448 12.2712 39.2913C12.4177 39.4378 12.5 39.6365 12.5 39.8438V44.5312C12.5 44.7385 12.4177 44.9372 12.2712 45.0837C12.1247 45.2302 11.926 45.3125 11.7188 45.3125H13.2812C13.4885 45.3125 13.6872 45.2302 13.8337 45.0837C13.9802 44.9372 14.0625 44.7385 14.0625 44.5312V39.8438C14.0625 39.6365 13.9802 39.4378 13.8337 39.2913C13.6872 39.1448 13.4885 39.0625 13.2812 39.0625Z" fill="#D8DBE0"/>
<path d="M4.6875 29.6875V30.4688C4.6875 32.3336 5.42829 34.122 6.74691 35.4406C8.06552 36.7592 9.85395 37.5 11.7188 37.5C13.5836 37.5 15.372 36.7592 16.6906 35.4406C18.0092 34.122 18.75 32.3336 18.75 30.4688V29.6875H4.6875Z" fill="#68B1FC"/>
<path d="M10.1562 26.5625C10.1562 26.7697 10.0739 26.9684 9.92743 27.1149C9.78091 27.2614 9.5822 27.3438 9.375 27.3438H4.6875V25.7812H9.375C9.5822 25.7812 9.78091 25.8636 9.92743 26.0101C10.0739 26.1566 10.1562 26.3553 10.1562 26.5625Z" fill="#68B1FC"/>
<path d="M10.1563 22.6562C10.1563 22.8635 10.0739 23.0622 9.92743 23.2087C9.78092 23.3552 9.5822 23.4375 9.375 23.4375H4.6875V22.6562C4.68731 22.3951 4.70296 22.1342 4.73438 21.875H9.375C9.5822 21.875 9.78092 21.9573 9.92743 22.1038C10.0739 22.2503 10.1563 22.449 10.1563 22.6562Z" fill="#68B1FC"/>
<path d="M18.75 25.7812V27.3438H14.0625C13.8553 27.3438 13.6566 27.2614 13.5101 27.1149C13.3636 26.9684 13.2812 26.7697 13.2812 26.5625C13.2812 26.3553 13.3636 26.1566 13.5101 26.0101C13.6566 25.8636 13.8553 25.7812 14.0625 25.7812H18.75Z" fill="#68B1FC"/>
<path d="M18.75 22.6562V23.4375H14.0625C13.8553 23.4375 13.6566 23.3552 13.5101 23.2087C13.3636 23.0622 13.2812 22.8635 13.2812 22.6562C13.2812 22.449 13.3636 22.2503 13.5101 22.1038C13.6566 21.9573 13.8553 21.875 14.0625 21.875H18.7031C18.7345 22.1342 18.7502 22.3951 18.75 22.6562Z" fill="#68B1FC"/>
<path d="M15.625 25.7812H18.75V27.3438H15.625V25.7812Z" fill="#539FFB"/>
<path d="M18.75 22.6562V23.4375H15.625V22.6562C15.6252 22.3951 15.6095 22.1342 15.5781 21.875H18.7031C18.7345 22.1342 18.7502 22.3951 18.75 22.6562Z" fill="#539FFB"/>
<path d="M17.1875 43.75H6.25C5.6284 43.75 5.03226 43.9969 4.59272 44.4365C4.15318 44.876 3.90625 45.4721 3.90625 46.0938V47.6562C3.90625 47.8635 3.98856 48.0622 4.13507 48.2087C4.28159 48.3552 4.4803 48.4375 4.6875 48.4375H18.75C18.9572 48.4375 19.1559 48.3552 19.3024 48.2087C19.4489 48.0622 19.5312 47.8635 19.5312 47.6562V46.0938C19.5312 45.4721 19.2843 44.876 18.8448 44.4365C18.4052 43.9969 17.8091 43.75 17.1875 43.75Z" fill="#68B1FC"/>
<path d="M17.1875 43.75H14.0625C14.6841 43.75 15.2802 43.9969 15.7198 44.4365C16.1593 44.876 16.4062 45.4721 16.4062 46.0938V47.6562C16.4062 47.8635 16.3239 48.0622 16.1774 48.2087C16.0309 48.3552 15.8322 48.4375 15.625 48.4375H18.75C18.9572 48.4375 19.1559 48.3552 19.3024 48.2087C19.4489 48.0622 19.5312 47.8635 19.5312 47.6562V46.0938C19.5312 45.4721 19.2843 44.876 18.8448 44.4365C18.4052 43.9969 17.8091 43.75 17.1875 43.75Z" fill="#539FFB"/>
<path d="M11.7188 40.625C9.02515 40.625 6.44186 39.555 4.5372 37.6503C2.63253 35.7456 1.5625 33.1624 1.5625 30.4688C1.5625 30.2615 1.64481 30.0628 1.79132 29.9163C1.93784 29.7698 2.13655 29.6875 2.34375 29.6875C2.55095 29.6875 2.74966 29.7698 2.89618 29.9163C3.04269 30.0628 3.125 30.2615 3.125 30.4688C3.125 32.748 4.03041 34.9338 5.64205 36.5454C7.25369 38.1571 9.43955 39.0625 11.7188 39.0625C13.998 39.0625 16.1838 38.1571 17.7955 36.5454C19.4071 34.9338 20.3125 32.748 20.3125 30.4688C20.3125 30.2615 20.3948 30.0628 20.5413 29.9163C20.6878 29.7698 20.8865 29.6875 21.0938 29.6875C21.301 29.6875 21.4997 29.7698 21.6462 29.9163C21.7927 30.0628 21.875 30.2615 21.875 30.4688C21.875 31.8025 21.6123 33.1232 21.1019 34.3554C20.5915 35.5876 19.8434 36.7072 18.9003 37.6503C17.9572 38.5934 16.8376 39.3415 15.6054 39.8519C14.3732 40.3623 13.0525 40.625 11.7188 40.625Z" fill="#68B1FC"/>
<path d="M15.625 29.6875V30.4688C15.6241 32.0613 15.0826 33.6064 14.0891 34.8511C13.0956 36.0958 11.709 36.9664 10.1562 37.3203C10.6684 37.4401 11.1927 37.5003 11.7188 37.5C13.5836 37.5 15.372 36.7592 16.6906 35.4406C18.0092 34.122 18.75 32.3336 18.75 30.4688V29.6875H15.625Z" fill="#539FFB"/>
<path d="M32.0312 23.4375C37.2089 23.4375 41.4062 19.2402 41.4062 14.0625C41.4062 8.88483 37.2089 4.6875 32.0312 4.6875C26.8536 4.6875 22.6562 8.88483 22.6562 14.0625C22.6562 19.2402 26.8536 23.4375 32.0312 23.4375Z" fill="#FCB860"/>
<path d="M32.0312 4.68766C31.5074 4.6908 30.9847 4.73783 30.4688 4.82828C32.6415 5.20892 34.6105 6.34352 36.0294 8.03254C37.4482 9.72155 38.2261 11.8568 38.2261 14.0627C38.2261 16.2685 37.4482 18.4038 36.0294 20.0928C34.6105 21.7818 32.6415 22.9164 30.4688 23.297C31.7511 23.5215 33.0661 23.4765 34.3301 23.1649C35.594 22.8532 36.7792 22.2817 37.8102 21.4867C38.8411 20.6918 39.6952 19.6909 40.318 18.5477C40.9408 17.4045 41.3188 16.1442 41.4277 14.8469C41.5366 13.5496 41.3741 12.2439 40.9507 11.0129C40.5272 9.78185 39.852 8.65251 38.968 7.6968C38.0841 6.74109 37.0108 5.97995 35.8165 5.46187C34.6222 4.94379 33.3331 4.68012 32.0312 4.68766Z" fill="#FCAA52"/>
<path d="M32.8125 13.2812H31.25C31.0428 13.2812 30.8441 13.1989 30.6976 13.0524C30.5511 12.9059 30.4688 12.7072 30.4688 12.5C30.4688 12.2928 30.5511 12.0941 30.6976 11.9476C30.8441 11.8011 31.0428 11.7188 31.25 11.7188H34.375C34.5822 11.7188 34.7809 11.6364 34.9274 11.4899C35.0739 11.3434 35.1562 11.1447 35.1562 10.9375C35.1562 10.7303 35.0739 10.5316 34.9274 10.3851C34.7809 10.2386 34.5822 10.1562 34.375 10.1562H32.8125V8.59375C32.8125 8.38655 32.7302 8.18784 32.5837 8.04132C32.4372 7.89481 32.2385 7.8125 32.0312 7.8125C31.824 7.8125 31.6253 7.89481 31.4788 8.04132C31.3323 8.18784 31.25 8.38655 31.25 8.59375V10.1562C30.6284 10.1562 30.0323 10.4032 29.5927 10.8427C29.1532 11.2823 28.9062 11.8784 28.9062 12.5C28.9062 13.1216 29.1532 13.7177 29.5927 14.1573C30.0323 14.5968 30.6284 14.8438 31.25 14.8438H32.8125C33.0197 14.8438 33.2184 14.9261 33.3649 15.0726C33.5114 15.2191 33.5938 15.4178 33.5938 15.625C33.5938 15.8322 33.5114 16.0309 33.3649 16.1774C33.2184 16.3239 33.0197 16.4062 32.8125 16.4062H29.6875C29.4803 16.4062 29.2816 16.4886 29.1351 16.6351C28.9886 16.7816 28.9062 16.9803 28.9062 17.1875C28.9062 17.3947 28.9886 17.5934 29.1351 17.7399C29.2816 17.8864 29.4803 17.9688 29.6875 17.9688H31.25V19.5312C31.25 19.7385 31.3323 19.9372 31.4788 20.0837C31.6253 20.2302 31.824 20.3125 32.0312 20.3125C32.2385 20.3125 32.4372 20.2302 32.5837 20.0837C32.7302 19.9372 32.8125 19.7385 32.8125 19.5312V17.9688C33.4341 17.9688 34.0302 17.7218 34.4698 17.2823C34.9093 16.8427 35.1562 16.2466 35.1562 15.625C35.1562 15.0034 34.9093 14.4073 34.4698 13.9677C34.0302 13.5282 33.4341 13.2812 32.8125 13.2812Z" fill="#F7F065"/>
</svg>
