<svg width="50" height="50" viewBox="0 0 50 50" fill="none" xmlns="http://www.w3.org/2000/svg">
<path fill-rule="evenodd" clip-rule="evenodd" d="M35.3027 11.9629C34.7688 12.3978 34.1828 12.7558 33.5449 13.0371C32.4658 12.5462 31.4241 11.9766 30.4199 11.3281C27.481 9.81212 24.356 9.03092 21.0449 8.98439C16.9344 8.75978 13.0607 9.60613 9.42377 11.5234C8.01679 12.3444 6.86119 13.4349 5.95697 14.7949C5.13956 16.2984 5.00936 17.8609 5.56635 19.4824C5.60371 19.5367 5.65254 19.5693 5.71283 19.5801C6.27805 20.9116 7.15695 22.0022 8.34955 22.8516C10.8459 24.4089 13.385 25.8901 15.9667 27.2949C16.309 27.5893 16.6833 27.8497 17.0898 28.0762C17.1223 27.0345 17.1549 25.9929 17.1874 24.9512C17.3607 24.3601 17.67 23.8555 18.1152 23.4375C24.8265 19.5942 31.4997 15.7042 38.1347 11.7676C38.4082 11.647 38.6687 11.5005 38.916 11.3281C39.1676 11.2061 39.428 11.1734 39.6972 11.2305C41.2169 12.1036 42.7144 12.9988 44.1894 13.916C43.7219 13.8643 43.2988 13.9782 42.9199 14.2578C36.2394 18.1705 29.5336 22.0442 22.8027 25.8789C22.2434 26.3309 21.8691 26.9005 21.6796 27.5879C21.6145 31.7871 21.6145 35.9863 21.6796 40.1856C21.7569 40.3071 21.8057 40.4373 21.8261 40.5762C20.3349 39.7979 18.8701 38.9678 17.4316 38.0859C17.1942 37.7854 17.0965 37.4436 17.1386 37.0606C17.2354 36.3952 17.268 35.7116 17.2363 35.0098C17.6626 35.2881 18.1184 35.5159 18.6035 35.6934C19.2172 35.4191 19.8032 35.0935 20.3613 34.7168C20.5585 33.226 20.6562 31.7286 20.6542 30.2246C20.0159 29.7174 19.316 29.2943 18.5546 28.9551C17.9435 29.2687 17.3413 29.5942 16.748 29.9317C16.3519 29.7827 15.9613 29.6036 15.5761 29.3945C13.1022 27.9622 10.6282 26.53 8.15424 25.0977C6.33687 24.1266 4.82319 22.8082 3.61322 21.1426C3.07185 20.1847 2.69749 19.1756 2.49018 18.1152C2.46662 15.6069 3.41064 13.54 5.32221 11.9141C8.11144 9.73513 11.269 8.36794 14.7949 7.81251C18.5776 7.19833 22.3536 7.23088 26.123 7.91017C28.4196 8.45616 30.6006 9.30252 32.666 10.4492C33.5475 10.9549 34.4264 11.4595 35.3027 11.9629ZM29.1503 15.4785C25.0709 17.8932 20.9694 20.2858 16.8456 22.6563C16.1371 23.3486 15.8117 24.195 15.8691 25.1953C15.9384 25.8937 15.9709 26.5935 15.9667 27.2949C13.385 25.8901 10.8459 24.4089 8.34955 22.8516C7.15695 22.0022 6.27805 20.9116 5.71283 19.5801C6.53848 18.1848 7.64524 17.0617 9.03314 16.2109C11.8195 14.6422 14.8143 13.7633 18.0175 13.5742C21.4712 13.3097 24.8241 13.7653 28.0761 14.9414C28.4674 15.072 28.8254 15.251 29.1503 15.4785Z" fill="#E1E5EF"/>
<path opacity="0.996" fill-rule="evenodd" clip-rule="evenodd" d="M33.5451 13.0371C32.1528 13.972 30.6879 14.7857 29.1506 15.4785C28.8257 15.251 28.4677 15.072 28.0764 14.9414C24.8243 13.7653 21.4715 13.3097 18.0178 13.5742C14.8146 13.7633 11.8197 14.6422 9.03342 16.2109C7.64552 17.0617 6.53875 18.1848 5.7131 19.5801C5.65281 19.5692 5.60398 19.5367 5.56662 19.4824C5.00963 17.8608 5.13983 16.2983 5.95724 14.7949C6.86146 13.4349 8.01706 12.3444 9.42404 11.5234C13.061 9.60611 16.9347 8.75976 21.0451 8.98437C24.3563 9.0309 27.4813 9.8121 30.4201 11.3281C31.4243 11.9766 32.466 12.5462 33.5451 13.0371Z" fill="#B0B8CF"/>
<path fill-rule="evenodd" clip-rule="evenodd" d="M38.1349 11.7676C31.4999 15.7042 24.8267 19.5942 18.1153 23.4375C17.6701 23.8555 17.3609 24.3601 17.1876 24.9512C17.1551 25.9929 17.1225 27.0345 17.09 28.0762C16.6835 27.8497 16.3092 27.5893 15.9669 27.2949C15.9711 26.5935 15.9386 25.8937 15.8693 25.1953C15.8118 24.195 16.1373 23.3486 16.8458 22.6562C20.9695 20.2857 25.0711 17.8932 29.1505 15.4785C30.6878 14.7857 32.1526 13.972 33.545 13.0371C34.183 12.7558 34.769 12.3978 35.3028 11.9629C35.8157 11.6251 36.3692 11.3647 36.963 11.1816C37.3829 11.3266 37.7735 11.5219 38.1349 11.7676Z" fill="#4E5E77"/>
<path fill-rule="evenodd" clip-rule="evenodd" d="M44.1895 13.916C45.1335 14.3878 46.0449 14.9086 46.9239 15.4785C39.9344 19.4947 32.9358 23.5149 25.9278 27.5391C25.3205 27.9231 24.9136 28.4602 24.7071 29.1504C24.6601 33.5339 24.6439 37.8958 24.6582 42.2363C23.6653 41.7566 22.7213 41.2031 21.8262 40.5762C21.8058 40.4373 21.757 40.3071 21.6797 40.1856C21.6146 35.9863 21.6146 31.7871 21.6797 27.5879C21.8692 26.9005 22.2435 26.3309 22.8028 25.8789C29.5337 22.0442 36.2395 18.1705 42.9199 14.2578C43.2989 13.9782 43.722 13.8643 44.1895 13.916Z" fill="#1E2A43"/>
<path opacity="0.997" fill-rule="evenodd" clip-rule="evenodd" d="M46.924 15.4785C47.212 15.5873 47.4235 15.7826 47.5588 16.0645C47.6239 20.3613 47.6239 24.6582 47.5588 28.9551C47.2314 29.8685 46.6292 30.5357 45.7521 30.957C39.1932 34.7084 32.6503 38.4845 26.1232 42.2852C25.605 42.6249 25.1167 42.6086 24.6584 42.2363C24.644 37.8958 24.6602 33.5339 24.7072 29.1504C24.9137 28.4602 25.3207 27.923 25.9279 27.5391C32.9359 23.5149 39.9345 19.4947 46.924 15.4785Z" fill="#4C5C76"/>
<path fill-rule="evenodd" clip-rule="evenodd" d="M47.1191 19.9707C44.0801 24.8017 41.1179 29.6845 38.2324 34.6191C36.7281 35.5363 35.1982 36.4152 33.6426 37.2559C37.8093 30.3223 41.9759 23.3887 46.1426 16.4551C46.3201 16.252 46.5479 16.1217 46.8262 16.0645C46.9382 16.0955 47.0196 16.1605 47.0703 16.2598C47.1191 17.4963 47.1354 18.7333 47.1191 19.9707Z" fill="#88C9FD"/>
<path fill-rule="evenodd" clip-rule="evenodd" d="M33.3495 16.5527C33.8044 16.4564 34.1624 16.5867 34.4238 16.9434C34.3772 17.0389 34.3121 17.1202 34.2284 17.1875C33.2033 17.7488 32.1943 18.3348 31.2011 18.9453C30.8059 19.1477 30.4316 19.1315 30.078 18.8965C30.0116 18.6547 30.093 18.4757 30.3222 18.3594C31.3698 17.8038 32.3789 17.2016 33.3495 16.5527Z" fill="#C9CEE2"/>
<path fill-rule="evenodd" clip-rule="evenodd" d="M46.1426 16.4551C41.9759 23.3887 37.8093 30.3223 33.6426 37.2559C32.3731 38.0536 31.0711 38.8022 29.7363 39.502C33.8773 32.5549 38.044 25.6213 42.2363 18.7012C43.5058 17.9034 44.8078 17.1548 46.1426 16.4551Z" fill="#57B3FD"/>
<path opacity="0.994" fill-rule="evenodd" clip-rule="evenodd" d="M2.4901 18.1152C2.69742 19.1756 3.07177 20.1847 3.61315 21.1426C4.82312 22.8082 6.33679 24.1266 8.15417 25.0977C10.6281 26.53 13.1021 27.9622 15.576 29.3945C15.9612 29.6036 16.3518 29.7827 16.7479 29.9316C16.7479 29.9642 16.7479 29.9968 16.7479 30.0293C16.6684 30.2374 16.6196 30.4652 16.6014 30.7129C16.5294 31.9817 16.4805 33.2513 16.4549 34.5215C16.2861 34.4612 16.1396 34.3636 16.0155 34.2285C15.9765 34.2508 15.9603 34.2834 15.9667 34.3262C12.9906 32.5611 9.99577 30.8196 6.98229 29.1016C2.81326 26.5695 1.31587 22.9074 2.4901 18.1152Z" fill="#B0B8CF"/>
<path fill-rule="evenodd" clip-rule="evenodd" d="M42.2361 18.7012C38.0438 25.6213 33.8771 32.5549 29.7361 39.502C28.3322 40.408 26.8837 41.2543 25.3904 42.041C25.2633 42.0274 25.182 41.9624 25.1463 41.8457C25.1299 40.5758 25.1463 39.3062 25.1951 38.0371C27.6307 33.9781 30.0884 29.9417 32.5681 25.9277C32.8538 25.9316 33.1141 25.8503 33.3494 25.6836C35.3025 24.5442 37.2556 23.405 39.2088 22.2656C39.6549 21.9401 39.7526 21.5495 39.5017 21.0938C39.4102 21.0262 39.3452 21.0425 39.3064 21.1426C37.3727 22.1908 35.4521 23.265 33.5447 24.3652C33.7075 24.0397 33.8702 23.7142 34.033 23.3887C36.77 21.825 39.5044 20.2625 42.2361 18.7012Z" fill="#88C9FD"/>
<path fill-rule="evenodd" clip-rule="evenodd" d="M47.1191 19.9707C47.1354 22.8681 47.1191 25.7651 47.0703 28.6621C46.9199 29.3 46.5781 29.8046 46.0449 30.1758C43.45 31.6818 40.8458 33.163 38.2324 34.6191C41.1179 29.6845 44.0801 24.8017 47.1191 19.9707Z" fill="#57B2FD"/>
<path fill-rule="evenodd" clip-rule="evenodd" d="M39.3064 21.1426C39.4595 21.5094 39.3619 21.8187 39.0135 22.0703C36.8759 23.3133 34.7274 24.534 32.5681 25.7324C32.4447 25.5105 32.4609 25.2827 32.617 25.0488C32.8894 24.7593 33.1987 24.5314 33.5447 24.3652C35.4521 23.265 37.3727 22.1908 39.3064 21.1426Z" fill="#1F2C46"/>
<path fill-rule="evenodd" clip-rule="evenodd" d="M39.3066 21.1426C39.3454 21.0425 39.4104 21.0262 39.502 21.0938C39.7528 21.5495 39.6552 21.9401 39.209 22.2656C37.2559 23.405 35.3027 24.5442 33.3496 25.6836C33.1144 25.8503 32.854 25.9316 32.5684 25.9277C32.5684 25.8626 32.5684 25.7976 32.5684 25.7324C34.7276 24.534 36.8761 23.3133 39.0137 22.0703C39.3621 21.8187 39.4598 21.5094 39.3066 21.1426Z" fill="#4C5D77"/>
<path fill-rule="evenodd" clip-rule="evenodd" d="M34.0333 23.3887C33.8705 23.7142 33.7078 24.0397 33.545 24.3652C33.199 24.5314 32.8898 24.7593 32.6173 25.0488C32.4613 25.2827 32.445 25.5105 32.5685 25.7324C32.5685 25.7976 32.5685 25.8626 32.5685 25.9277C30.0888 29.9417 27.6311 33.9781 25.1954 38.0371C25.1466 39.3062 25.1303 40.5758 25.1466 41.8457C25.0815 39.7789 25.049 37.6956 25.049 35.5957C25.0342 33.4087 25.083 31.2277 25.1954 29.0527C25.4342 28.521 25.8086 28.1141 26.3185 27.832C28.9044 26.3677 31.476 24.8866 34.0333 23.3887Z" fill="#57B2FC"/>
<path fill-rule="evenodd" clip-rule="evenodd" d="M20.6543 30.2246C20.0221 30.5244 19.4035 30.85 18.7988 31.2012C18.1003 30.8356 17.4167 30.445 16.748 30.0293C16.748 29.9968 16.748 29.9642 16.748 29.9316C17.3414 29.5942 17.9436 29.2687 18.5547 28.9551C19.316 29.2942 20.0159 29.7174 20.6543 30.2246Z" fill="#F35170"/>
<path fill-rule="evenodd" clip-rule="evenodd" d="M16.748 30.0293C17.4167 30.445 18.1003 30.8356 18.7988 31.2012C19.4035 30.85 20.0221 30.5244 20.6543 30.2246C20.6562 31.7286 20.5586 33.226 20.3613 34.7168C19.8032 35.0935 19.2173 35.419 18.6035 35.6934C18.1185 35.5159 17.6627 35.2881 17.2363 35.0098C17.2038 35.0098 17.1712 35.0098 17.1387 35.0098C16.928 34.823 16.7001 34.6603 16.4551 34.5215C16.4807 33.2513 16.5295 31.9817 16.6016 30.7129C16.6197 30.4652 16.6686 30.2374 16.748 30.0293Z" fill="#E53664"/>
<path fill-rule="evenodd" clip-rule="evenodd" d="M16.4553 34.5215C16.7003 34.6603 16.9282 34.823 17.1389 35.0098C17.1705 35.6791 17.138 36.3302 17.0412 36.9629C16.6012 36.8323 16.2594 36.5719 16.0158 36.1816C15.967 35.564 15.9508 34.9455 15.967 34.3262C15.9607 34.2834 15.9769 34.2508 16.0158 34.2285C16.14 34.3636 16.2864 34.4612 16.4553 34.5215Z" fill="#505F78"/>
<path fill-rule="evenodd" clip-rule="evenodd" d="M17.1387 35.0098C17.1712 35.0098 17.2038 35.0098 17.2363 35.0098C17.2681 35.7116 17.2354 36.3952 17.1387 37.0605C17.0735 37.0605 17.041 37.028 17.041 36.9629C17.1378 36.3302 17.1703 35.6791 17.1387 35.0098Z" fill="#8B96A9"/>
</svg>
