<svg width="206" height="45" viewBox="0 0 206 45" fill="none" xmlns="http://www.w3.org/2000/svg">
<path fill-rule="evenodd" clip-rule="evenodd" d="M114.798 28.5976C114.798 28.9944 114.758 29.401 114.653 29.7548C114.207 31.2359 112.671 32.4956 110.748 32.4956C109.153 32.4956 107.874 31.5798 107.874 29.6589C107.874 26.7165 111.111 25.9065 114.801 25.923V28.5976H114.798ZM120.572 23.4732C120.572 18.6198 118.501 14.3516 111.505 14.3516C107.914 14.3516 105.06 15.3599 103.504 16.2592L104.64 20.1604C106.067 19.2579 108.33 18.5173 110.477 18.5173C114.028 18.5074 114.606 20.5274 114.606 21.8234V22.1276C106.87 22.1176 101.978 24.7989 101.978 30.2606C101.978 33.5998 104.472 36.7241 108.799 36.7241C111.465 36.7241 113.691 35.6628 115.026 33.9602H115.158C115.158 33.9602 116.04 37.6564 120.909 36.248C120.658 34.7041 120.572 33.0576 120.572 31.0839V23.4732Z" fill="#287BB5"/>
<path fill-rule="evenodd" clip-rule="evenodd" d="M0 7.74219C0 7.74219 5.05726 28.4782 5.86655 31.8438C6.80468 35.7781 8.50584 37.2196 13.3979 36.2509L16.5558 23.3901C17.3552 20.1964 17.8937 17.9217 18.4057 14.6685H18.4948C18.8582 17.9515 19.3735 20.2063 20.0309 23.4033C20.0309 23.4033 21.3158 29.2386 21.9732 32.3034C22.6305 35.3648 24.4671 37.2989 29.2634 36.2509L36.7915 7.74549H30.7168L28.1469 20.0674C27.4532 23.6513 26.8256 26.4582 26.3466 29.7378H26.2575C25.8181 26.4879 25.2632 23.7967 24.5596 20.3022L21.884 7.74219H15.5583L12.6977 19.9848C11.8851 23.7042 11.1286 26.7094 10.6463 29.88H10.5572C10.0617 26.8946 9.40433 23.119 8.69413 19.5186C8.69413 19.5186 6.99296 10.7607 6.39838 7.74219H0Z" fill="#287BB5"/>
<path fill-rule="evenodd" clip-rule="evenodd" d="M48.2704 28.5976C48.2704 28.9944 48.2374 29.401 48.1284 29.7548C47.6824 31.2359 46.1464 32.4956 44.2272 32.4956C42.6285 32.4956 41.3534 31.5798 41.3534 29.6589C41.3534 26.7165 44.5873 25.9065 48.2704 25.923V28.5976ZM54.0478 23.4732C54.0478 18.6198 51.98 14.3516 44.9804 14.3516C41.3865 14.3516 38.5358 15.3599 36.9766 16.2592L38.1196 20.1604C39.5399 19.2579 41.806 18.5173 43.9564 18.5173C47.5041 18.5074 48.0887 20.5274 48.0887 21.8234V22.1276C40.3459 22.1176 35.4604 24.7989 35.4604 30.2606C35.4604 33.5998 37.9511 36.7241 42.275 36.7241C44.9374 36.7241 47.1671 35.6628 48.5016 33.9602H48.6338C48.6338 33.9602 49.519 37.6564 54.3913 36.248C54.1337 34.7041 54.0511 33.0576 54.0511 31.0839V23.4732H54.0478Z" fill="#287BB5"/>
<path fill-rule="evenodd" clip-rule="evenodd" d="M63.6899 30.1916V7.73975H57.9092V36.2484H63.6899V30.1916Z" fill="#287BB5"/>
<path fill-rule="evenodd" clip-rule="evenodd" d="M139.361 7.74219V28.7724C139.361 31.6653 139.903 33.7019 141.072 34.9417C142.089 36.0261 143.764 36.727 145.772 36.727C147.487 36.727 149.168 36.403 149.961 36.1087L149.885 31.5826C149.297 31.7281 148.617 31.8405 147.692 31.8405C145.723 31.8405 145.062 30.5842 145.062 27.9757V19.9385H150.096V14.4834H145.062V7.74219H139.361Z" fill="#287BB5"/>
<path fill-rule="evenodd" clip-rule="evenodd" d="M124.426 14.8351V36.2489H130.392V25.2792C130.392 24.6907 130.432 24.1749 130.521 23.6988C130.963 21.4044 132.717 19.9365 135.241 19.9365C135.931 19.9365 136.427 20.0092 136.959 20.0852V14.4847C136.513 14.3921 136.209 14.3491 135.647 14.3491C133.421 14.3491 130.891 15.7873 129.827 18.8719H129.662V14.8351H124.426Z" fill="#287BB5"/>
<path fill-rule="evenodd" clip-rule="evenodd" d="M67.7432 14.8343V36.248H73.5536V23.6881C73.5536 23.0963 73.6229 22.4747 73.8277 21.9358C74.3067 20.6729 75.4827 19.1884 77.3622 19.1884C79.7075 19.1884 80.8042 21.1754 80.8042 24.0418V36.248H86.6113V23.5393C86.6113 22.9739 86.6906 22.2995 86.8524 21.8036C87.3314 20.3654 88.5965 19.1917 90.3439 19.1917C92.7223 19.1917 93.8619 21.1456 93.8619 24.5179V36.2513H99.6789V23.6352C99.6789 16.9832 96.303 14.3516 92.491 14.3516C90.8031 14.3516 89.4719 14.7747 88.2695 15.512C87.2554 16.1336 86.3503 17.0163 85.5608 18.1801H85.475C84.5534 15.8724 82.3963 14.3516 79.5754 14.3516C75.9616 14.3516 74.3331 16.1832 73.3455 17.747H73.2596V14.8376H67.7432V14.8343Z" fill="#287BB5"/>
<path fill-rule="evenodd" clip-rule="evenodd" d="M182.52 15.1487C183.571 15.1487 184.436 14.5998 184.555 13.889L185.596 2.11592C185.596 0.95547 184.231 0 182.52 0C180.812 0 179.448 0.95547 179.448 2.11592L180.489 13.889C180.604 14.5998 181.476 15.1487 182.524 15.1487H182.52Z" fill="#F2AE48"/>
<path fill-rule="evenodd" clip-rule="evenodd" d="M176.165 18.8218C176.693 17.9127 176.65 16.8844 176.095 16.4315L166.427 9.64073C165.422 9.05885 163.91 9.75975 163.061 11.2442C162.202 12.7286 162.354 14.385 163.358 14.9669L174.064 19.9558C174.734 20.2038 175.646 19.7244 176.174 18.8152L176.165 18.8218Z" fill="#F2AE48"/>
<path fill-rule="evenodd" clip-rule="evenodd" d="M188.882 18.8181C189.411 19.7273 190.319 20.21 190.99 19.9588L201.696 14.9698C202.7 14.3879 202.845 12.7283 201.99 11.2471C201.137 9.76268 199.628 9.06178 198.62 9.64366L188.955 16.4344C188.4 16.8874 188.364 17.9123 188.886 18.8248L188.882 18.8181Z" fill="#F2AE48"/>
<path fill-rule="evenodd" clip-rule="evenodd" d="M182.52 29.8481C183.571 29.8481 184.436 30.397 184.555 31.1045L185.596 42.8809C185.596 44.0413 184.231 45.0001 182.52 45.0001C180.812 45.0001 179.448 44.0413 179.448 42.8809L180.489 31.1045C180.604 30.397 181.476 29.8481 182.524 29.8481H182.52Z" fill="#F2AE48"/>
<path fill-rule="evenodd" clip-rule="evenodd" d="M188.882 26.1777C189.411 25.2652 190.319 24.7858 190.99 25.0371L201.696 30.0227C202.7 30.6046 202.845 32.261 201.99 33.7487C201.137 35.2299 199.628 35.9341 198.62 35.3555L188.955 28.5647C188.4 28.1052 188.364 27.0803 188.886 26.1711L188.882 26.1777Z" fill="#F2AE48"/>
<path fill-rule="evenodd" clip-rule="evenodd" d="M176.165 26.1748C176.693 27.084 176.65 28.1089 176.095 28.5685L166.427 35.3493C165.422 35.9312 163.91 35.2303 163.061 33.7492C162.202 32.2614 162.354 30.6083 163.358 30.0231L174.064 25.0408C174.728 24.7863 175.639 25.2623 176.165 26.1748Z" fill="#F2AE48"/>
<path fill-rule="evenodd" clip-rule="evenodd" d="M202.677 37.28C202.783 37.3428 202.948 37.399 203.116 37.399C203.331 37.399 203.45 37.2999 203.45 37.1511C203.45 37.0089 203.358 36.9296 203.123 36.8469C202.826 36.7345 202.634 36.5791 202.634 36.3146C202.634 36.0138 202.882 35.7856 203.278 35.7856C203.473 35.7856 203.622 35.8286 203.718 35.8815L203.632 36.1526C203.566 36.1163 203.44 36.0634 203.272 36.0634C203.057 36.0634 202.971 36.1791 202.971 36.2816C202.971 36.427 203.073 36.4898 203.318 36.5824C203.632 36.6981 203.787 36.8634 203.787 37.1246C203.787 37.4189 203.569 37.6734 203.097 37.6734C202.902 37.6734 202.7 37.6205 202.601 37.561L202.677 37.28Z" fill="#F2AE48"/>
<path fill-rule="evenodd" clip-rule="evenodd" d="M205.636 36.8995C205.623 36.6647 205.61 36.3804 205.61 36.1324H205.603C205.547 36.354 205.471 36.6019 205.385 36.8333L205.121 37.6268H204.863L204.619 36.8466C204.55 36.6118 204.484 36.3639 204.437 36.1357H204.434C204.427 36.3738 204.411 36.6647 204.401 36.916L204.361 37.6499H204.051L204.173 35.8217H204.609L204.85 36.5556C204.916 36.7672 204.969 36.9854 205.019 37.1871H205.025C205.071 36.992 205.138 36.7639 205.207 36.5523L205.458 35.8184H205.891L206 37.6466H205.673L205.636 36.8995Z" fill="#F2AE48"/>
</svg>
