<svg width="334" height="336" viewBox="0 0 334 336" fill="none" xmlns="http://www.w3.org/2000/svg">
<path d="M167 230.008C256.47 230.008 329 225.792 329 220.592C329 215.391 256.47 211.176 167 211.176C77.5299 211.176 5 215.391 5 220.592C5 225.792 77.5299 230.008 167 230.008Z" fill="#D2D9DC"/>
<path d="M325.044 116.505H105.368L158.013 89H272.413L325.044 116.505Z" fill="#002548"/>
<path opacity="0.19" d="M258.477 116.505H105.368L158.013 89H180.896L258.477 116.505Z" fill="#2D2F31"/>
<g opacity="0.2">
<path opacity="0.19" d="M166.925 89L114.287 116.505H113.021L165.658 89H166.925Z" fill="#2D2F31"/>
<path opacity="0.19" d="M182.155 89L129.51 116.505H128.257L180.895 89H182.155Z" fill="#2D2F31"/>
<path opacity="0.19" d="M197.391 89L144.747 116.505H143.487L196.118 89H197.391Z" fill="#2D2F31"/>
<path opacity="0.19" d="M212.615 89L159.977 116.505H158.717L211.348 89H212.615Z" fill="#2D2F31"/>
<path opacity="0.19" d="M227.845 89L175.207 116.505H173.955L226.599 89H227.845Z" fill="#2D2F31"/>
<path opacity="0.19" d="M243.089 89L190.444 116.505H189.185L241.822 89H243.089Z" fill="#2D2F31"/>
<path opacity="0.19" d="M258.476 89L205.832 116.505H204.565L257.21 89H258.476Z" fill="#2D2F31"/>
<path opacity="0.19" d="M273.138 89.3746L221.219 116.505H219.959L272.502 89.0408L273.138 89.3746Z" fill="#2D2F31"/>
<path opacity="0.19" d="M280.832 93.3944L236.6 116.505H235.347L280.195 93.0674L280.832 93.3944Z" fill="#2D2F31"/>
</g>
<path opacity="0.19" d="M272.413 89L249.865 116.505H325.044L272.413 89Z" fill="#2D2F31"/>
<path d="M230.24 116.505H10.5645L63.2092 89H177.616L230.24 116.505Z" fill="#0054A6"/>
<path d="M230.24 116.505H10.5645L63.2092 89H177.616L177.705 89.0409L178.335 89.3747L185.392 93.0675H185.399L186.029 93.3946L230.24 116.505Z" fill="#0054A6"/>
<g opacity="0.2">
<path opacity="0.19" d="M72.1219 89L19.4841 116.505H18.2178L70.8556 89H72.1219Z" fill="#2D2F31"/>
<path opacity="0.19" d="M87.3519 89L34.7141 116.505H33.4614L86.0924 89H87.3519Z" fill="#2D2F31"/>
<path opacity="0.19" d="M102.589 89L49.9514 116.505H48.6851L101.316 89H102.589Z" fill="#2D2F31"/>
<path opacity="0.19" d="M117.812 89L65.174 116.505H63.9146L116.546 89H117.812Z" fill="#2D2F31"/>
<path opacity="0.19" d="M133.042 89L80.404 116.505H79.1514L131.796 89H133.042Z" fill="#2D2F31"/>
<path opacity="0.19" d="M148.293 89L95.6481 116.505H94.3818L147.02 89H148.293Z" fill="#2D2F31"/>
<path opacity="0.19" d="M163.674 89L111.029 116.505H109.77L162.407 89H163.674Z" fill="#2D2F31"/>
<path opacity="0.19" d="M178.335 89.3746L126.416 116.505H125.157L177.706 89.0408L178.335 89.3746Z" fill="#2D2F31"/>
<path opacity="0.19" d="M186.029 93.3944L141.803 116.505H140.544L185.392 93.0674H185.399L186.029 93.3944Z" fill="#2D2F31"/>
</g>
<path opacity="0.19" d="M177.617 89L155.062 116.505H230.241L177.617 89Z" fill="#2D2F31"/>
<path d="M223.738 116.505H127.73L175.734 91.4326L223.738 116.505Z" fill="#839299"/>
<path d="M223.738 116.505H127.73L175.734 91.4326L223.738 116.505Z" fill="#839299"/>
<path d="M318.658 116.505H222.657L270.661 91.4326L318.658 116.505Z" fill="#839299"/>
<path d="M318.658 116.505H222.657L270.661 91.4326L318.658 116.505Z" fill="#839299"/>
<path d="M319.068 116.505H17.6084V219.57H319.068V116.505Z" fill="#839299"/>
<path d="M319.068 116.505H17.6084V219.57H319.068V116.505Z" fill="#839299"/>
<path d="M318.931 205.575H17.6084V219.57H318.931V205.575Z" fill="#839299"/>
<path d="M127.73 116.505H17.6084V219.57H127.73V116.505Z" fill="#D2D9DC"/>
<path d="M305.432 151.335H301.147V219.57H305.432V151.335Z" fill="#D2D9DC"/>
<path d="M305.432 151.335H301.147V219.57H305.432V151.335Z" fill="#D2D9DC"/>
<path d="M303.29 151.335H229.46V219.427H303.29V151.335Z" fill="#F9FAFB"/>
<path opacity="0.1" d="M303.29 151.846H229.46V152.166H303.29V151.846Z" fill="#2D2F31"/>
<path opacity="0.1" d="M303.29 152.936H229.46V153.256H303.29V152.936Z" fill="#2D2F31"/>
<path opacity="0.1" d="M303.29 154.019H229.46V154.339H303.29V154.019Z" fill="#2D2F31"/>
<path opacity="0.1" d="M303.29 155.103H229.46V155.423H303.29V155.103Z" fill="#2D2F31"/>
<path opacity="0.1" d="M303.29 156.186H229.46V156.506H303.29V156.186Z" fill="#2D2F31"/>
<path opacity="0.1" d="M303.29 157.276H229.46V157.596H303.29V157.276Z" fill="#2D2F31"/>
<path opacity="0.1" d="M303.29 158.359H229.46V158.679H303.29V158.359Z" fill="#2D2F31"/>
<path opacity="0.1" d="M303.29 159.442H229.46V159.763H303.29V159.442Z" fill="#2D2F31"/>
<path opacity="0.1" d="M303.29 160.532H229.46V160.853H303.29V160.532Z" fill="#2D2F31"/>
<path opacity="0.1" d="M303.29 161.616H229.46V161.936H303.29V161.616Z" fill="#2D2F31"/>
<path opacity="0.1" d="M303.29 162.707H229.46V163.027H303.29V162.707Z" fill="#2D2F31"/>
<path opacity="0.1" d="M303.29 163.789H229.46V164.11H303.29V163.789Z" fill="#2D2F31"/>
<path opacity="0.1" d="M303.29 164.873H229.46V165.193H303.29V164.873Z" fill="#2D2F31"/>
<path opacity="0.1" d="M303.29 165.956H229.46V166.276H303.29V165.956Z" fill="#2D2F31"/>
<path opacity="0.1" d="M303.29 167.046H229.46V167.366H303.29V167.046Z" fill="#2D2F31"/>
<path opacity="0.1" d="M303.29 168.13H229.46V168.45H303.29V168.13Z" fill="#2D2F31"/>
<path opacity="0.1" d="M303.29 169.213H229.46V169.533H303.29V169.213Z" fill="#2D2F31"/>
<path opacity="0.1" d="M303.29 170.296H229.46V170.616H303.29V170.296Z" fill="#2D2F31"/>
<path opacity="0.1" d="M303.29 171.386H229.46V171.706H303.29V171.386Z" fill="#2D2F31"/>
<path opacity="0.1" d="M303.29 172.476H229.46V172.797H303.29V172.476Z" fill="#2D2F31"/>
<path opacity="0.1" d="M303.29 173.56H229.46V173.88H303.29V173.56Z" fill="#2D2F31"/>
<path opacity="0.1" d="M303.29 174.643H229.46V174.963H303.29V174.643Z" fill="#2D2F31"/>
<path opacity="0.1" d="M303.29 175.726H229.46V176.046H303.29V175.726Z" fill="#2D2F31"/>
<path opacity="0.1" d="M303.29 176.816H229.46V177.136H303.29V176.816Z" fill="#2D2F31"/>
<path opacity="0.1" d="M303.29 177.9H229.46V178.22H303.29V177.9Z" fill="#2D2F31"/>
<path opacity="0.1" d="M303.29 178.983H229.46V179.303H303.29V178.983Z" fill="#2D2F31"/>
<path opacity="0.1" d="M303.29 180.066H229.46V180.387H303.29V180.066Z" fill="#2D2F31"/>
<path opacity="0.1" d="M303.29 181.156H229.46V181.476H303.29V181.156Z" fill="#2D2F31"/>
<path opacity="0.1" d="M303.29 182.246H229.46V182.567H303.29V182.246Z" fill="#2D2F31"/>
<path opacity="0.1" d="M303.29 183.33H229.46V183.65H303.29V183.33Z" fill="#2D2F31"/>
<path opacity="0.1" d="M303.29 184.413H229.46V184.733H303.29V184.413Z" fill="#2D2F31"/>
<path opacity="0.1" d="M303.29 185.497H229.46V185.817H303.29V185.497Z" fill="#2D2F31"/>
<path opacity="0.1" d="M303.29 186.587H229.46V186.907H303.29V186.587Z" fill="#2D2F31"/>
<path opacity="0.1" d="M303.29 187.67H229.46V187.99H303.29V187.67Z" fill="#2D2F31"/>
<path opacity="0.1" d="M303.29 188.753H229.46V189.073H303.29V188.753Z" fill="#2D2F31"/>
<path opacity="0.1" d="M303.29 189.837H229.46V190.157H303.29V189.837Z" fill="#2D2F31"/>
<path opacity="0.1" d="M303.29 190.927H229.46V191.247H303.29V190.927Z" fill="#2D2F31"/>
<path opacity="0.1" d="M303.29 192.017H229.46V192.337H303.29V192.017Z" fill="#2D2F31"/>
<path opacity="0.1" d="M303.29 193.1H229.46V193.421H303.29V193.1Z" fill="#2D2F31"/>
<path opacity="0.1" d="M303.29 194.183H229.46V194.504H303.29V194.183Z" fill="#2D2F31"/>
<path opacity="0.1" d="M303.29 195.267H229.46V195.587H303.29V195.267Z" fill="#2D2F31"/>
<path opacity="0.1" d="M303.29 196.357H229.46V196.677H303.29V196.357Z" fill="#2D2F31"/>
<path opacity="0.1" d="M303.29 197.44H229.46V197.761H303.29V197.44Z" fill="#2D2F31"/>
<path opacity="0.1" d="M303.29 198.523H229.46V198.844H303.29V198.523Z" fill="#2D2F31"/>
<path opacity="0.1" d="M303.29 199.607H229.46V199.927H303.29V199.607Z" fill="#2D2F31"/>
<path opacity="0.1" d="M303.29 200.697H229.46V201.017H303.29V200.697Z" fill="#2D2F31"/>
<path opacity="0.1" d="M303.29 201.787H229.46V202.107H303.29V201.787Z" fill="#2D2F31"/>
<path opacity="0.1" d="M303.29 202.87H229.46V203.191H303.29V202.87Z" fill="#2D2F31"/>
<path opacity="0.1" d="M303.29 203.954H229.46V204.274H303.29V203.954Z" fill="#2D2F31"/>
<path opacity="0.1" d="M303.29 205.037H229.46V205.357H303.29V205.037Z" fill="#2D2F31"/>
<path opacity="0.1" d="M303.29 206.127H229.46V206.447H303.29V206.127Z" fill="#2D2F31"/>
<path opacity="0.1" d="M303.29 207.21H229.46V207.531H303.29V207.21Z" fill="#2D2F31"/>
<path opacity="0.1" d="M303.29 208.294H229.46V208.614H303.29V208.294Z" fill="#2D2F31"/>
<path opacity="0.1" d="M303.29 209.377H229.46V209.697H303.29V209.377Z" fill="#2D2F31"/>
<path opacity="0.1" d="M303.29 210.467H229.46V210.788H303.29V210.467Z" fill="#2D2F31"/>
<path opacity="0.1" d="M303.29 211.557H229.46V211.878H303.29V211.557Z" fill="#2D2F31"/>
<path opacity="0.1" d="M303.29 212.64H229.46V212.961H303.29V212.64Z" fill="#2D2F31"/>
<path opacity="0.1" d="M303.29 213.724H229.46V214.044H303.29V213.724Z" fill="#2D2F31"/>
<path opacity="0.1" d="M303.29 214.807H229.46V215.128H303.29V214.807Z" fill="#2D2F31"/>
<path opacity="0.1" d="M303.29 215.897H229.46V216.217H303.29V215.897Z" fill="#2D2F31"/>
<path opacity="0.1" d="M303.29 216.981H229.46V217.301H303.29V216.981Z" fill="#2D2F31"/>
<path opacity="0.1" d="M303.29 218.064H229.46V218.384H303.29V218.064Z" fill="#2D2F31"/>
<path opacity="0.1" d="M303.29 219.147H229.46V219.468H303.29V219.147Z" fill="#2D2F31"/>
<path opacity="0.19" d="M303.29 151.335H229.46V153.249L303.29 152.67V151.335Z" fill="#2D2F31"/>
<path d="M217.345 151.335H213.06V219.57H217.345V151.335Z" fill="#D2D9DC"/>
<path d="M217.345 151.335H213.06V219.57H217.345V151.335Z" fill="#D2D9DC"/>
<path d="M215.202 151.335H141.373V219.427H215.202V151.335Z" fill="#F9FAFB"/>
<path opacity="0.1" d="M215.202 151.846H141.373V152.166H215.202V151.846Z" fill="#2D2F31"/>
<path opacity="0.1" d="M215.202 152.936H141.373V153.256H215.202V152.936Z" fill="#2D2F31"/>
<path opacity="0.1" d="M215.202 154.019H141.373V154.339H215.202V154.019Z" fill="#2D2F31"/>
<path opacity="0.1" d="M215.202 155.103H141.373V155.423H215.202V155.103Z" fill="#2D2F31"/>
<path opacity="0.1" d="M215.202 156.186H141.373V156.506H215.202V156.186Z" fill="#2D2F31"/>
<path opacity="0.1" d="M215.202 157.276H141.373V157.596H215.202V157.276Z" fill="#2D2F31"/>
<path opacity="0.1" d="M215.202 158.359H141.373V158.679H215.202V158.359Z" fill="#2D2F31"/>
<path opacity="0.1" d="M215.202 159.442H141.373V159.763H215.202V159.442Z" fill="#2D2F31"/>
<path opacity="0.1" d="M215.202 160.532H141.373V160.853H215.202V160.532Z" fill="#2D2F31"/>
<path opacity="0.1" d="M215.202 161.616H141.373V161.936H215.202V161.616Z" fill="#2D2F31"/>
<path opacity="0.1" d="M215.202 162.707H141.373V163.027H215.202V162.707Z" fill="#2D2F31"/>
<path opacity="0.1" d="M215.202 163.789H141.373V164.11H215.202V163.789Z" fill="#2D2F31"/>
<path opacity="0.1" d="M215.202 164.873H141.373V165.193H215.202V164.873Z" fill="#2D2F31"/>
<path opacity="0.1" d="M215.202 165.956H141.373V166.276H215.202V165.956Z" fill="#2D2F31"/>
<path opacity="0.1" d="M215.202 167.046H141.373V167.366H215.202V167.046Z" fill="#2D2F31"/>
<path opacity="0.1" d="M215.202 168.13H141.373V168.45H215.202V168.13Z" fill="#2D2F31"/>
<path opacity="0.1" d="M215.202 169.213H141.373V169.533H215.202V169.213Z" fill="#2D2F31"/>
<path opacity="0.1" d="M215.202 170.296H141.373V170.616H215.202V170.296Z" fill="#2D2F31"/>
<path opacity="0.1" d="M215.202 171.386H141.373V171.706H215.202V171.386Z" fill="#2D2F31"/>
<path opacity="0.1" d="M215.202 172.476H141.373V172.797H215.202V172.476Z" fill="#2D2F31"/>
<path opacity="0.1" d="M215.202 173.56H141.373V173.88H215.202V173.56Z" fill="#2D2F31"/>
<path opacity="0.1" d="M215.202 174.643H141.373V174.963H215.202V174.643Z" fill="#2D2F31"/>
<path opacity="0.1" d="M215.202 175.726H141.373V176.046H215.202V175.726Z" fill="#2D2F31"/>
<path opacity="0.1" d="M215.202 176.816H141.373V177.136H215.202V176.816Z" fill="#2D2F31"/>
<path opacity="0.1" d="M215.202 177.9H141.373V178.22H215.202V177.9Z" fill="#2D2F31"/>
<path opacity="0.1" d="M215.202 178.983H141.373V179.303H215.202V178.983Z" fill="#2D2F31"/>
<path opacity="0.1" d="M215.202 180.066H141.373V180.387H215.202V180.066Z" fill="#2D2F31"/>
<path opacity="0.1" d="M215.202 181.156H141.373V181.476H215.202V181.156Z" fill="#2D2F31"/>
<path opacity="0.1" d="M215.202 182.246H141.373V182.567H215.202V182.246Z" fill="#2D2F31"/>
<path opacity="0.1" d="M215.202 183.33H141.373V183.65H215.202V183.33Z" fill="#2D2F31"/>
<path opacity="0.1" d="M215.202 184.413H141.373V184.733H215.202V184.413Z" fill="#2D2F31"/>
<path opacity="0.1" d="M215.202 185.497H141.373V185.817H215.202V185.497Z" fill="#2D2F31"/>
<path opacity="0.1" d="M215.202 186.587H141.373V186.907H215.202V186.587Z" fill="#2D2F31"/>
<path opacity="0.1" d="M215.202 187.67H141.373V187.99H215.202V187.67Z" fill="#2D2F31"/>
<path opacity="0.1" d="M215.202 188.753H141.373V189.073H215.202V188.753Z" fill="#2D2F31"/>
<path opacity="0.1" d="M215.202 189.837H141.373V190.157H215.202V189.837Z" fill="#2D2F31"/>
<path opacity="0.1" d="M215.202 190.927H141.373V191.247H215.202V190.927Z" fill="#2D2F31"/>
<path opacity="0.1" d="M215.202 192.017H141.373V192.337H215.202V192.017Z" fill="#2D2F31"/>
<path opacity="0.1" d="M215.202 193.1H141.373V193.421H215.202V193.1Z" fill="#2D2F31"/>
<path opacity="0.1" d="M215.202 194.183H141.373V194.504H215.202V194.183Z" fill="#2D2F31"/>
<path opacity="0.1" d="M215.202 195.267H141.373V195.587H215.202V195.267Z" fill="#2D2F31"/>
<path opacity="0.1" d="M215.202 196.357H141.373V196.677H215.202V196.357Z" fill="#2D2F31"/>
<path opacity="0.1" d="M215.202 197.44H141.373V197.761H215.202V197.44Z" fill="#2D2F31"/>
<path opacity="0.1" d="M215.202 198.523H141.373V198.844H215.202V198.523Z" fill="#2D2F31"/>
<path opacity="0.1" d="M215.202 199.607H141.373V199.927H215.202V199.607Z" fill="#2D2F31"/>
<path opacity="0.1" d="M215.202 200.697H141.373V201.017H215.202V200.697Z" fill="#2D2F31"/>
<path opacity="0.1" d="M215.202 201.787H141.373V202.107H215.202V201.787Z" fill="#2D2F31"/>
<path opacity="0.1" d="M215.202 202.87H141.373V203.191H215.202V202.87Z" fill="#2D2F31"/>
<path opacity="0.1" d="M215.202 203.954H141.373V204.274H215.202V203.954Z" fill="#2D2F31"/>
<path opacity="0.1" d="M215.202 205.037H141.373V205.357H215.202V205.037Z" fill="#2D2F31"/>
<path opacity="0.1" d="M215.202 206.127H141.373V206.447H215.202V206.127Z" fill="#2D2F31"/>
<path opacity="0.1" d="M215.202 207.21H141.373V207.531H215.202V207.21Z" fill="#2D2F31"/>
<path opacity="0.1" d="M215.202 208.294H141.373V208.614H215.202V208.294Z" fill="#2D2F31"/>
<path opacity="0.1" d="M215.202 209.377H141.373V209.697H215.202V209.377Z" fill="#2D2F31"/>
<path opacity="0.1" d="M215.202 210.467H141.373V210.788H215.202V210.467Z" fill="#2D2F31"/>
<path opacity="0.1" d="M215.202 211.557H141.373V211.878H215.202V211.557Z" fill="#2D2F31"/>
<path opacity="0.1" d="M215.202 212.64H141.373V212.961H215.202V212.64Z" fill="#2D2F31"/>
<path opacity="0.1" d="M215.202 213.724H141.373V214.044H215.202V213.724Z" fill="#2D2F31"/>
<path opacity="0.1" d="M215.202 214.807H141.373V215.128H215.202V214.807Z" fill="#2D2F31"/>
<path opacity="0.1" d="M215.202 215.897H141.373V216.217H215.202V215.897Z" fill="#2D2F31"/>
<path opacity="0.1" d="M215.202 216.981H141.373V217.301H215.202V216.981Z" fill="#2D2F31"/>
<path opacity="0.1" d="M215.202 218.064H141.373V218.384H215.202V218.064Z" fill="#2D2F31"/>
<path opacity="0.1" d="M215.202 219.147H141.373V219.468H215.202V219.147Z" fill="#2D2F31"/>
<path opacity="0.19" d="M215.202 151.335H141.373V153.249L215.202 152.67V151.335Z" fill="#2D2F31"/>
<path d="M28.3951 219.568H34.2544L34.2544 151.333H28.3951L28.3951 219.568Z" fill="#FFDD33"/>
<g opacity="0.7">
<path d="M28.3951 219.568H34.2544L34.2544 151.333H28.3951L28.3951 219.568Z" fill="#FFDD33"/>
</g>
<path d="M68.2804 219.568H74.1396L74.1396 151.333H68.2804L68.2804 219.568Z" fill="#FFDD33"/>
<g opacity="0.7">
<path d="M68.2804 219.568H74.1396L74.1396 151.333H68.2804L68.2804 219.568Z" fill="#FFDD33"/>
</g>
<path d="M108.167 219.568H114.026L114.026 151.333H108.167L108.167 219.568Z" fill="#FFDD33"/>
<g opacity="0.7">
<path d="M108.167 219.568H114.026L114.026 151.333H108.167L108.167 219.568Z" fill="#FFDD33"/>
</g>
<path d="M34.2549 219.568H37.1846L37.1846 151.333H34.2549L34.2549 219.568Z" fill="#FFDD33"/>
<g opacity="0.4">
<path d="M34.2549 219.568H37.1846L37.1846 151.333H34.2549L34.2549 219.568Z" fill="#FFDD33"/>
</g>
<path d="M74.1407 219.568H77.0703L77.0703 151.333H74.1407L74.1407 219.568Z" fill="#FFDD33"/>
<g opacity="0.4">
<path d="M74.1407 219.568H77.0703L77.0703 151.333H74.1407L74.1407 219.568Z" fill="#FFDD33"/>
</g>
<path d="M114.026 219.568H116.956L116.956 151.333H114.026L114.026 219.568Z" fill="#FFDD33"/>
<g opacity="0.4">
<path d="M114.026 219.568H116.956L116.956 151.333H114.026L114.026 219.568Z" fill="#FFDD33"/>
</g>
<path d="M44.7899 133.511H29.375V145.244H44.7899V133.511Z" fill="#002548"/>
<path d="M26.4625 145.248H29.3784V133.516H26.4625V145.248Z" fill="#839299"/>
<path d="M26.4625 145.248H29.3784V133.516H26.4625V145.248Z" fill="#839299"/>
<path d="M67.6312 133.511H52.2163V145.244H67.6312V133.511Z" fill="#002548"/>
<path d="M49.3038 145.248H52.2197V133.516H49.3038V145.248Z" fill="#839299"/>
<path d="M49.3038 145.248H52.2197V133.516H49.3038V145.248Z" fill="#839299"/>
<path d="M96.0448 133.511H80.6299V145.244H96.0448V133.511Z" fill="#002548"/>
<path d="M77.7144 145.248H80.6304V133.516H77.7144V145.248Z" fill="#839299"/>
<path d="M77.7144 145.248H80.6304V133.516H77.7144V145.248Z" fill="#839299"/>
<path d="M118.887 133.511H103.472V145.244H118.887V133.511Z" fill="#002548"/>
<path d="M100.555 145.248H103.471V133.516H100.555V145.248Z" fill="#839299"/>
<path d="M100.555 145.248H103.471V133.516H100.555V145.248Z" fill="#839299"/>
<path d="M170.194 145.248H185.608V133.516H170.194V145.248Z" fill="#002548"/>
<path d="M188.527 133.511H185.611V145.244H188.527V133.511Z" fill="#D2D9DC"/>
<path d="M188.527 133.511H185.611V145.244H188.527V133.511Z" fill="#D2D9DC"/>
<path d="M147.353 145.248H162.768V133.516H147.353V145.248Z" fill="#002548"/>
<path d="M165.685 133.511H162.77V145.244H165.685V133.511Z" fill="#D2D9DC"/>
<path d="M165.685 133.511H162.77V145.244H165.685V133.511Z" fill="#D2D9DC"/>
<path d="M193.034 145.248H208.449V133.516H193.034V145.248Z" fill="#002548"/>
<path d="M211.369 133.511H208.453V145.244H211.369V133.511Z" fill="#D2D9DC"/>
<path d="M211.369 133.511H208.453V145.244H211.369V133.511Z" fill="#D2D9DC"/>
<path d="M258.28 145.248H273.695V133.516H258.28V145.248Z" fill="#002548"/>
<path d="M276.609 133.511H273.693V145.244H276.609V133.511Z" fill="#D2D9DC"/>
<path d="M276.609 133.511H273.693V145.244H276.609V133.511Z" fill="#D2D9DC"/>
<path d="M235.439 145.248H250.854V133.516H235.439V145.248Z" fill="#002548"/>
<path d="M253.767 133.511H250.851V145.244H253.767V133.511Z" fill="#D2D9DC"/>
<path d="M253.767 133.511H250.851V145.244H253.767V133.511Z" fill="#D2D9DC"/>
<path d="M281.121 145.248H296.536V133.516H281.121V145.248Z" fill="#002548"/>
<path d="M299.45 133.511H296.534V145.244H299.45V133.511Z" fill="#D2D9DC"/>
<path d="M299.45 133.511H296.534V145.244H299.45V133.511Z" fill="#D2D9DC"/>
<path d="M82.3617 235.268C82.3617 241.747 77.0842 247 70.5747 247C70.4309 247 68.0078 247 67.8572 246.993C61.5461 246.762 58.7808 241.604 58.7808 235.268C58.7808 228.931 61.5461 223.774 67.8572 223.542C68.0009 223.535 70.4241 223.535 70.5747 223.535C77.0842 223.535 82.3617 228.788 82.3617 235.268Z" fill="#002548"/>
<path opacity="0.19" d="M82.3617 235.268C82.3617 241.747 77.0842 247 70.5747 247C70.4309 247 68.0078 247 67.8572 246.993C61.5461 246.762 58.7808 241.604 58.7808 235.268C58.7808 228.931 61.5461 223.774 67.8572 223.542C68.0009 223.535 70.4241 223.535 70.5747 223.535C77.0842 223.535 82.3617 228.788 82.3617 235.268Z" fill="#2D2F31"/>
<path d="M68.1721 247C74.3832 247 79.4184 241.747 79.4184 235.268C79.4184 228.788 74.3832 223.535 68.1721 223.535C61.9609 223.535 56.9258 228.788 56.9258 235.268C56.9258 241.747 61.9609 247 68.1721 247Z" fill="#002548"/>
<path d="M60.9029 234.375C60.4306 238.565 63.2987 242.367 67.3167 242.864C71.3347 243.362 74.9762 240.364 75.4554 236.174C75.9277 231.983 73.0596 228.182 69.0416 227.684C65.0168 227.187 61.3752 230.185 60.9029 234.375Z" fill="#2B454E"/>
<path d="M61.8818 234.497C61.4711 238.122 63.9558 241.413 67.4331 241.842C70.9103 242.271 74.059 239.676 74.4697 236.051C74.8804 232.426 72.3957 229.135 68.9184 228.706C65.4412 228.277 62.2925 230.866 61.8818 234.497Z" fill="#D2D9DC"/>
<path d="M65.3864 234.927C65.2016 236.535 66.3037 237.986 67.8438 238.177C69.3839 238.367 70.7803 237.216 70.9583 235.615C71.1431 234.007 70.041 232.556 68.5009 232.365C66.9676 232.174 65.5713 233.326 65.3864 234.927Z" fill="#002548"/>
<path d="M64.5443 234.825C64.7839 232.733 66.6047 231.241 68.6034 231.486C70.6021 231.731 72.0396 233.632 71.8068 235.724C71.5673 237.816 69.7465 239.308 67.7478 239.062C65.7422 238.817 64.3116 236.916 64.5443 234.825ZM64.8729 234.866C64.6607 236.766 65.9612 238.497 67.7889 238.722C69.6096 238.947 71.2661 237.584 71.4851 235.683C71.6973 233.782 70.3899 232.052 68.5692 231.827C66.7416 231.602 65.0851 232.965 64.8729 234.866Z" fill="#002548"/>
<path d="M68.1727 230.035C68.1316 230.376 68.3643 230.682 68.6929 230.723C69.0215 230.764 69.3158 230.519 69.3569 230.178C69.3979 229.837 69.1652 229.531 68.8366 229.49C68.5081 229.449 68.2069 229.694 68.1727 230.035Z" fill="#002548"/>
<path d="M70.6847 230.737C70.4862 231.009 70.541 231.397 70.8079 231.609C71.068 231.813 71.4445 231.759 71.643 231.486C71.8415 231.214 71.7868 230.825 71.5198 230.614C71.2528 230.403 70.8764 230.457 70.6847 230.737Z" fill="#002548"/>
<path d="M72.5192 232.651C72.218 232.787 72.0811 233.148 72.2043 233.469C72.3344 233.782 72.6835 233.932 72.9846 233.796C73.2858 233.659 73.4227 233.298 73.2995 232.978C73.1763 232.658 72.8204 232.515 72.5192 232.651Z" fill="#002548"/>
<path d="M73.1965 235.267C72.8679 235.227 72.5736 235.472 72.5325 235.812C72.4915 236.153 72.7242 236.46 73.0527 236.501C73.3813 236.541 73.6756 236.296 73.7167 235.956C73.7578 235.615 73.5251 235.308 73.1965 235.267Z" fill="#002548"/>
<path d="M72.5257 237.89C72.2656 237.686 71.8891 237.74 71.6906 238.02C71.4921 238.292 71.5468 238.681 71.8138 238.892C72.0739 239.096 72.4504 239.042 72.6489 238.769C72.8405 238.483 72.7926 238.095 72.5257 237.89Z" fill="#002548"/>
<path d="M70.6911 239.805C70.5611 239.492 70.212 239.342 69.9108 239.478C69.6096 239.614 69.4727 239.976 69.5959 240.296C69.726 240.609 70.0751 240.759 70.3762 240.623C70.6774 240.487 70.8212 240.125 70.6911 239.805Z" fill="#002548"/>
<path d="M68.1791 240.514C68.2202 240.173 67.9875 239.866 67.6589 239.825C67.3303 239.785 67.036 240.03 66.9949 240.371C66.9539 240.711 67.1866 241.018 67.5152 241.059C67.8437 241.1 68.1449 240.854 68.1791 240.514Z" fill="#002548"/>
<path d="M65.6669 239.812C65.8654 239.539 65.8107 239.151 65.5437 238.94C65.2836 238.735 64.9071 238.79 64.7086 239.062C64.5101 239.335 64.5649 239.723 64.8319 239.935C65.0988 240.146 65.4753 240.091 65.6669 239.812Z" fill="#002548"/>
<path d="M63.8323 237.897C64.1335 237.761 64.2772 237.4 64.1472 237.08C64.0171 236.766 63.668 236.617 63.3668 236.753C63.0657 236.889 62.9288 237.25 63.052 237.57C63.182 237.891 63.5311 238.034 63.8323 237.897Z" fill="#002548"/>
<path d="M63.1553 235.281C63.4838 235.322 63.7782 235.076 63.8192 234.736C63.8603 234.395 63.6276 234.089 63.299 234.048C62.9705 234.007 62.6761 234.252 62.6351 234.593C62.594 234.933 62.8267 235.24 63.1553 235.281Z" fill="#002548"/>
<path d="M63.8254 232.658C64.0856 232.862 64.462 232.808 64.6605 232.535C64.859 232.263 64.8043 231.874 64.5373 231.663C64.2772 231.459 63.9007 231.513 63.7022 231.792C63.5106 232.065 63.5653 232.453 63.8254 232.658Z" fill="#002548"/>
<path d="M65.6603 230.744C65.7904 231.057 66.1395 231.207 66.4407 231.071C66.7418 230.934 66.8787 230.573 66.7555 230.253C66.6255 229.94 66.2764 229.79 65.9752 229.926C65.674 230.062 65.5303 230.423 65.6603 230.744Z" fill="#002548"/>
<path d="M157.253 235.268C157.253 241.747 151.975 247 145.466 247C145.322 247 142.899 247 142.748 246.993C136.437 246.762 133.672 241.604 133.672 235.268C133.672 228.931 136.437 223.774 142.748 223.542C142.892 223.535 145.315 223.535 145.466 223.535C151.975 223.535 157.253 228.788 157.253 235.268Z" fill="#002548"/>
<path opacity="0.19" d="M157.253 235.268C157.253 241.747 151.975 247 145.466 247C145.322 247 142.899 247 142.748 246.993C136.437 246.762 133.672 241.604 133.672 235.268C133.672 228.931 136.437 223.774 142.748 223.542C142.892 223.535 145.315 223.535 145.466 223.535C151.975 223.535 157.253 228.788 157.253 235.268Z" fill="#2D2F31"/>
<path d="M143.056 247C149.268 247 154.303 241.747 154.303 235.268C154.303 228.788 149.268 223.535 143.056 223.535C136.845 223.535 131.81 228.788 131.81 235.268C131.81 241.747 136.845 247 143.056 247Z" fill="#002548"/>
<path d="M135.787 234.375C135.314 238.565 138.182 242.367 142.2 242.864C146.218 243.362 149.86 240.364 150.339 236.174C150.811 231.983 147.943 228.182 143.925 227.684C139.907 227.187 136.266 230.185 135.787 234.375Z" fill="#2B454E"/>
<path d="M136.766 234.497C136.355 238.122 138.84 241.413 142.317 241.842C145.794 242.271 148.943 239.676 149.353 236.051C149.764 232.426 147.279 229.135 143.802 228.706C140.332 228.277 137.183 230.866 136.766 234.497Z" fill="#D2D9DC"/>
<path d="M140.277 234.927C140.092 236.535 141.194 237.986 142.734 238.177C144.275 238.367 145.671 237.216 145.849 235.615C146.034 234.007 144.932 232.556 143.392 232.365C141.851 232.174 140.462 233.326 140.277 234.927Z" fill="#002548"/>
<path d="M139.435 234.825C139.674 232.733 141.495 231.241 143.494 231.486C145.493 231.731 146.93 233.632 146.697 235.724C146.458 237.816 144.637 239.308 142.638 239.062C140.633 238.817 139.195 236.916 139.435 234.825ZM139.756 234.866C139.544 236.766 140.852 238.497 142.672 238.722C144.493 238.947 146.15 237.584 146.369 235.683C146.581 233.782 145.274 232.052 143.453 231.827C141.632 231.602 139.976 232.965 139.756 234.866Z" fill="#002548"/>
<path d="M143.056 230.035C143.015 230.376 143.248 230.682 143.576 230.723C143.905 230.764 144.199 230.519 144.24 230.178C144.281 229.837 144.048 229.531 143.72 229.49C143.391 229.449 143.097 229.694 143.056 230.035Z" fill="#002548"/>
<path d="M145.569 230.737C145.37 231.009 145.425 231.397 145.692 231.609C145.952 231.813 146.328 231.759 146.527 231.486C146.725 231.214 146.671 230.825 146.404 230.614C146.137 230.403 145.767 230.457 145.569 230.737Z" fill="#002548"/>
<path d="M147.41 232.651C147.109 232.787 146.972 233.148 147.095 233.469C147.225 233.782 147.574 233.932 147.875 233.796C148.176 233.659 148.313 233.298 148.19 232.978C148.06 232.658 147.711 232.515 147.41 232.651Z" fill="#002548"/>
<path d="M148.087 235.267C147.759 235.227 147.464 235.472 147.423 235.812C147.382 236.153 147.615 236.46 147.943 236.501C148.272 236.541 148.566 236.296 148.607 235.956C148.642 235.615 148.409 235.308 148.087 235.267Z" fill="#002548"/>
<path d="M147.416 237.89C147.156 237.686 146.78 237.74 146.581 238.02C146.383 238.292 146.437 238.681 146.704 238.892C146.965 239.096 147.341 239.042 147.539 238.769C147.731 238.483 147.676 238.095 147.416 237.89Z" fill="#002548"/>
<path d="M145.582 239.805C145.452 239.492 145.103 239.342 144.801 239.478C144.5 239.614 144.363 239.976 144.487 240.296C144.617 240.609 144.966 240.759 145.267 240.623C145.568 240.487 145.705 240.125 145.582 239.805Z" fill="#002548"/>
<path d="M143.07 240.514C143.111 240.173 142.878 239.866 142.55 239.825C142.221 239.785 141.927 240.03 141.886 240.371C141.844 240.711 142.077 241.018 142.406 241.059C142.734 241.1 143.029 240.854 143.07 240.514Z" fill="#002548"/>
<path d="M140.558 239.812C140.757 239.539 140.702 239.151 140.435 238.94C140.175 238.735 139.798 238.79 139.6 239.062C139.401 239.335 139.456 239.723 139.723 239.935C139.99 240.146 140.36 240.091 140.558 239.812Z" fill="#002548"/>
<path d="M138.716 237.897C139.017 237.761 139.154 237.4 139.031 237.08C138.901 236.766 138.552 236.617 138.251 236.753C137.949 236.889 137.806 237.25 137.936 237.57C138.066 237.891 138.415 238.034 138.716 237.897Z" fill="#002548"/>
<path d="M138.046 235.281C138.374 235.322 138.669 235.076 138.71 234.736C138.751 234.395 138.518 234.089 138.19 234.048C137.861 234.007 137.567 234.252 137.526 234.593C137.485 234.933 137.717 235.24 138.046 235.281Z" fill="#002548"/>
<path d="M138.717 232.658C138.977 232.862 139.353 232.808 139.552 232.535C139.75 232.263 139.695 231.874 139.428 231.663C139.168 231.459 138.792 231.513 138.593 231.792C138.395 232.065 138.45 232.453 138.717 232.658Z" fill="#002548"/>
<path d="M140.551 230.744C140.681 231.057 141.031 231.207 141.332 231.071C141.633 230.934 141.77 230.573 141.647 230.253C141.517 229.94 141.167 229.79 140.866 229.926C140.558 230.062 140.421 230.423 140.551 230.744Z" fill="#002548"/>
<path d="M134.652 226.664H164.955V163.62H134.652V226.664Z" fill="#D2D9DC"/>
<path d="M134.652 215.469H164.955V203.206H134.652V215.469Z" fill="#FFDD33"/>
<path opacity="0.1" d="M134.652 215.469H164.955V203.206H134.652V215.469Z" fill="#FFDD33"/>
<path opacity="0.19" d="M150.975 205.664H139.969V206.311H150.975V205.664Z" fill="#2D2F31"/>
<g opacity="0.19">
<path d="M34.2549 219.568H37.1846L37.1846 151.333H34.2549L34.2549 219.568Z" fill="#2D2F31"/>
<g opacity="0.4">
<path d="M34.2549 219.568H37.1846L37.1846 151.333H34.2549L34.2549 219.568Z" fill="#2D2F31"/>
</g>
<path d="M74.1407 219.568H77.0703L77.0703 151.333H74.1407L74.1407 219.568Z" fill="#2D2F31"/>
<g opacity="0.4">
<path d="M74.1407 219.568H77.0703L77.0703 151.333H74.1407L74.1407 219.568Z" fill="#2D2F31"/>
</g>
<path d="M114.026 219.568H116.956L116.956 151.333H114.026L114.026 219.568Z" fill="#2D2F31"/>
<g opacity="0.4">
<path d="M114.026 219.568H116.956L116.956 151.333H114.026L114.026 219.568Z" fill="#2D2F31"/>
</g>
</g>
<path d="M53.7633 179.208V235.588H14.0762V205.446L26.4656 179.991C26.6983 179.508 27.1911 179.208 27.725 179.208H53.7633Z" fill="#0054A6"/>
<path d="M67.0767 179.208H53.7632V235.588H67.0767V179.208Z" fill="#0054A6"/>
<path opacity="0.19" d="M67.0767 179.208H53.7632V235.588H67.0767V179.208Z" fill="#2D2F31"/>
<path opacity="0.19" d="M46.6244 203.804C46.3575 211.148 46.3643 219.318 46.6244 226.669C46.8777 219.311 46.8845 211.148 46.6244 203.804Z" fill="#2D2F31"/>
<path opacity="0.19" d="M37.2672 207.238C39.4987 207.156 41.7986 207.067 44.0643 207.054H44.2491V207.238L44.2696 210.079V210.283H44.0643C42.0245 210.27 39.1701 210.249 37.1577 210.188C37.1782 209.179 37.2262 208.178 37.2672 207.238ZM37.2672 207.238C37.3015 208.219 37.3494 209.159 37.3768 210.079L37.2672 209.97C39.2454 209.908 42.0587 209.888 44.0643 209.874L43.8589 210.079L43.8795 207.238L44.0643 207.422C42.1135 207.415 39.2523 207.299 37.2672 207.238Z" fill="#2D2F31"/>
<path opacity="0.19" d="M37.2666 207.242V208.393H44.0637V207.242H37.2666Z" fill="#2D2F31"/>
<path d="M29.0603 184.767C29.3136 184.222 29.8612 183.882 30.4635 183.882H48.0483C48.4453 183.882 48.7465 184.25 48.6575 184.638L45.3035 203.388C45.2418 203.674 44.9886 203.879 44.6943 203.879H22.5234C21.3871 203.879 20.641 202.707 21.1202 201.685L29.0603 184.767Z" fill="#002548"/>
<path opacity="0.1" d="M22.5234 203.872H44.7011C44.9886 203.872 45.2487 203.668 45.3103 203.381L45.9332 199.907C39.2456 201.208 29.6285 199.818 27.8488 196.527C26.0348 193.168 28.191 186.791 28.3827 186.226L21.1202 201.678C20.641 202.7 21.3871 203.872 22.5234 203.872Z" fill="white"/>
<path d="M20.75 203.456C20.3599 202.85 20.312 202.1 20.62 201.453L28.5602 184.543C28.9024 183.814 29.6485 183.337 30.4631 183.337H48.0478C48.4037 183.337 48.7391 183.493 48.965 183.773C49.1909 184.052 49.2731 184.406 49.1978 184.733L45.8369 203.504C45.7137 204.042 45.2482 204.417 44.6938 204.417H22.516C21.7973 204.424 21.1402 204.056 20.75 203.456ZM30.4631 184.427C30.0797 184.427 29.7238 184.652 29.5595 184.999L21.6194 201.91C21.4688 202.223 21.4961 202.571 21.681 202.864C21.8658 203.157 22.1738 203.327 22.5229 203.327H44.7006C44.7348 203.327 44.7691 203.3 44.7691 203.293L48.1299 184.522C48.1368 184.502 48.1299 184.481 48.1163 184.461C48.1026 184.44 48.082 184.434 48.0615 184.434H30.4631V184.427Z" fill="white"/>
<path d="M15.6711 208.389H11.8447V214.46H15.6711V208.389Z" fill="#D2D9DC"/>
<path d="M134.658 163.626H57.3232V226.669H134.658V163.626Z" fill="#F9FAFB"/>
<path d="M134.658 223.535H57.3232V224.653H134.658V223.535Z" fill="#D2D9DC"/>
<path d="M134.658 203.211H57.3232V215.475H134.658V203.211Z" fill="#FFDD33"/>
<path d="M11.8505 235.585L166.547 235.585V226.66L11.8505 226.66V235.585Z" fill="#D2D9DC"/>
<path d="M136.463 235.585H166.546V226.66H136.463V235.585Z" fill="#839299"/>
<path d="M11.127 234.346H17.7734V227.9H11.127V234.346Z" fill="#D2D9DC"/>
<path d="M50.4789 235.268C50.4789 241.747 45.2014 247 38.6918 247C38.5481 247 36.125 247 35.9744 246.993C29.6633 246.762 26.8979 241.604 26.8979 235.268C26.8979 228.931 29.6633 223.774 35.9744 223.542C36.1181 223.535 38.5413 223.535 38.6918 223.535C45.2014 223.535 50.4789 228.788 50.4789 235.268Z" fill="#002548"/>
<path opacity="0.19" d="M50.4789 235.268C50.4789 241.747 45.2014 247 38.6918 247C38.5481 247 36.125 247 35.9744 246.993C29.6633 246.762 26.8979 241.604 26.8979 235.268C26.8979 228.931 29.6633 223.774 35.9744 223.542C36.1181 223.535 38.5413 223.535 38.6918 223.535C45.2014 223.535 50.4789 228.788 50.4789 235.268Z" fill="#2D2F31"/>
<path d="M23.0093 235.104H25.6788C25.6788 228.904 30.7509 223.855 36.9799 223.855C43.2088 223.855 48.2809 228.904 48.2809 235.104H50.9505C50.9505 227.432 44.6805 221.191 36.973 221.191C29.2656 221.191 23.0093 227.432 23.0093 235.104Z" fill="#D2D9DC"/>
<path d="M36.2819 247C42.4931 247 47.5282 241.747 47.5282 235.268C47.5282 228.788 42.4931 223.535 36.2819 223.535C30.0708 223.535 25.0356 228.788 25.0356 235.268C25.0356 241.747 30.0708 247 36.2819 247Z" fill="#002548"/>
<path d="M29.0128 234.375C28.5405 238.565 31.4085 242.367 35.4265 242.865C39.4445 243.362 43.0861 240.364 43.5652 236.174C44.0375 231.984 41.1695 228.182 37.1515 227.685C33.1335 227.187 29.4851 230.185 29.0128 234.375Z" fill="#2B454E"/>
<path d="M29.9917 234.498C29.581 238.122 32.0657 241.413 35.5429 241.842C39.0202 242.272 42.1689 239.676 42.5796 236.051C42.9903 232.426 40.5055 229.136 37.0283 228.706C33.5579 228.277 30.4024 230.866 29.9917 234.498Z" fill="#D2D9DC"/>
<path d="M33.5031 234.927C33.3183 236.535 34.4204 237.986 35.9605 238.177C37.5006 238.368 38.897 237.216 39.075 235.615C39.2598 234.007 38.1577 232.556 36.6176 232.365C35.0775 232.175 33.6811 233.326 33.5031 234.927Z" fill="#002548"/>
<path d="M32.6609 234.825C32.9004 232.733 34.7212 231.241 36.7199 231.486C38.7187 231.732 40.1561 233.633 39.9234 235.724C39.6838 237.816 37.863 239.308 35.8643 239.063C33.8587 238.817 32.4213 236.917 32.6609 234.825ZM32.9826 234.866C32.7704 236.767 34.0778 238.497 35.8985 238.722C37.7193 238.947 39.3758 237.584 39.5948 235.683C39.807 233.782 38.4996 232.052 36.6789 231.827C34.8581 231.602 33.1948 232.965 32.9826 234.866Z" fill="#002548"/>
<path d="M36.2825 230.035C36.2415 230.376 36.4742 230.682 36.8027 230.723C37.1313 230.764 37.4256 230.519 37.4667 230.178C37.5078 229.837 37.2751 229.531 36.9465 229.49C36.6179 229.449 36.3236 229.694 36.2825 230.035Z" fill="#002548"/>
<path d="M38.7946 230.737C38.5961 231.009 38.6508 231.398 38.9178 231.609C39.1779 231.813 39.5544 231.759 39.7529 231.486C39.9514 231.214 39.8966 230.825 39.6297 230.614C39.3627 230.403 38.9931 230.457 38.7946 230.737Z" fill="#002548"/>
<path d="M40.6354 232.651C40.3342 232.788 40.1904 233.149 40.3205 233.469C40.4505 233.782 40.7996 233.932 41.1008 233.796C41.402 233.66 41.5457 233.299 41.4157 232.978C41.2856 232.658 40.9365 232.515 40.6354 232.651Z" fill="#002548"/>
<path d="M41.3064 235.268C40.9778 235.227 40.6835 235.472 40.6424 235.813C40.6013 236.153 40.8341 236.46 41.1626 236.501C41.4912 236.542 41.7855 236.296 41.8266 235.956C41.8676 235.615 41.6349 235.309 41.3064 235.268Z" fill="#002548"/>
<path d="M40.6355 237.891C40.3754 237.686 39.9989 237.741 39.8004 238.02C39.6019 238.293 39.6567 238.681 39.9236 238.892C40.1838 239.096 40.5602 239.042 40.7587 238.769C40.9572 238.483 40.9025 238.095 40.6355 237.891Z" fill="#002548"/>
<path d="M38.801 239.805C38.6709 239.492 38.3218 239.342 38.0206 239.478C37.7195 239.615 37.5826 239.976 37.7058 240.296C37.8358 240.609 38.1849 240.759 38.4861 240.623C38.7941 240.487 38.931 240.126 38.801 239.805Z" fill="#002548"/>
<path d="M36.2958 240.514C36.3369 240.173 36.1042 239.866 35.7756 239.825C35.447 239.785 35.1527 240.03 35.1116 240.371C35.0706 240.711 35.3033 241.018 35.6319 241.059C35.9604 241.1 36.2547 240.854 36.2958 240.514Z" fill="#002548"/>
<path d="M33.7836 239.812C33.9821 239.539 33.9274 239.151 33.6604 238.94C33.4003 238.735 33.0238 238.79 32.8253 239.062C32.6268 239.335 32.6816 239.723 32.9486 239.935C33.2155 240.146 33.5851 240.091 33.7836 239.812Z" fill="#002548"/>
<path d="M31.9421 237.898C32.2433 237.761 32.387 237.4 32.257 237.08C32.1269 236.767 31.7778 236.617 31.4767 236.753C31.1755 236.889 31.0317 237.25 31.1618 237.571C31.2918 237.891 31.6409 238.034 31.9421 237.898Z" fill="#002548"/>
<path d="M31.2653 235.281C31.5938 235.322 31.8881 235.077 31.9292 234.736C31.9703 234.395 31.7376 234.089 31.409 234.048C31.0804 234.007 30.7861 234.252 30.745 234.593C30.7108 234.934 30.9435 235.24 31.2653 235.281Z" fill="#002548"/>
<path d="M31.9353 232.658C32.1954 232.862 32.5719 232.808 32.7704 232.535C32.9689 232.263 32.9141 231.874 32.6472 231.663C32.3871 231.459 32.0106 231.513 31.8121 231.793C31.6204 232.065 31.6752 232.454 31.9353 232.658Z" fill="#002548"/>
<path d="M33.7697 230.744C33.8998 231.057 34.2488 231.207 34.55 231.071C34.8512 230.935 34.9881 230.573 34.8649 230.253C34.7348 229.94 34.3857 229.79 34.0846 229.926C33.7834 230.062 33.6396 230.424 33.7697 230.744Z" fill="#002548"/>
<path d="M125.362 235.268C125.362 241.747 120.084 247 113.575 247C113.431 247 111.008 247 110.857 246.993C104.546 246.762 101.781 241.604 101.781 235.268C101.781 228.931 104.546 223.774 110.857 223.542C111.001 223.535 113.424 223.535 113.575 223.535C120.084 223.535 125.362 228.788 125.362 235.268Z" fill="#002548"/>
<path opacity="0.19" d="M125.362 235.268C125.362 241.747 120.084 247 113.575 247C113.431 247 111.008 247 110.857 246.993C104.546 246.762 101.781 241.604 101.781 235.268C101.781 228.931 104.546 223.774 110.857 223.542C111.001 223.535 113.424 223.535 113.575 223.535C120.084 223.535 125.362 228.788 125.362 235.268Z" fill="#2D2F31"/>
<path d="M97.8931 235.104H100.563C100.563 228.904 105.635 223.855 111.864 223.855C118.093 223.855 123.165 228.904 123.165 235.104H125.834C125.834 227.432 119.564 221.191 111.857 221.191C104.163 221.198 97.8931 227.432 97.8931 235.104Z" fill="#D2D9DC"/>
<path d="M111.166 247C117.377 247 122.412 241.747 122.412 235.268C122.412 228.788 117.377 223.535 111.166 223.535C104.955 223.535 99.9194 228.788 99.9194 235.268C99.9194 241.747 104.955 247 111.166 247Z" fill="#002548"/>
<path d="M103.903 234.375C103.431 238.565 106.299 242.367 110.317 242.865C114.335 243.362 117.976 240.364 118.455 236.174C118.928 231.984 116.06 228.182 112.042 227.685C108.017 227.187 104.375 230.185 103.903 234.375Z" fill="#2B454E"/>
<path d="M104.882 234.498C104.471 238.122 106.956 241.413 110.433 241.842C113.91 242.272 117.059 239.676 117.47 236.051C117.88 232.426 115.396 229.136 111.918 228.706C108.441 228.277 105.292 230.866 104.882 234.498Z" fill="#D2D9DC"/>
<path d="M108.386 234.927C108.202 236.535 109.304 237.986 110.844 238.177C112.384 238.368 113.78 237.216 113.958 235.615C114.143 234.007 113.041 232.556 111.501 232.365C109.968 232.175 108.571 233.326 108.386 234.927Z" fill="#002548"/>
<path d="M107.544 234.825C107.784 232.733 109.605 231.241 111.603 231.486C113.602 231.732 115.04 233.633 114.807 235.724C114.567 237.816 112.747 239.308 110.748 239.063C108.742 238.817 107.312 236.917 107.544 234.825ZM107.873 234.866C107.661 236.767 108.961 238.497 110.789 238.722C112.61 238.947 114.266 237.584 114.485 235.683C114.697 233.782 113.39 232.052 111.569 231.827C109.742 231.602 108.085 232.965 107.873 234.866Z" fill="#002548"/>
<path d="M111.173 230.035C111.132 230.376 111.364 230.682 111.693 230.723C112.021 230.764 112.316 230.519 112.357 230.178C112.398 229.837 112.165 229.531 111.837 229.49C111.508 229.449 111.207 229.694 111.173 230.035Z" fill="#002548"/>
<path d="M113.677 230.737C113.479 231.009 113.534 231.398 113.801 231.609C114.061 231.813 114.437 231.759 114.636 231.486C114.834 231.214 114.779 230.825 114.512 230.614C114.252 230.403 113.876 230.457 113.677 230.737Z" fill="#002548"/>
<path d="M115.519 232.651C115.217 232.788 115.074 233.149 115.204 233.469C115.334 233.782 115.683 233.932 115.984 233.796C116.285 233.66 116.429 233.299 116.299 232.978C116.169 232.658 115.82 232.515 115.519 232.651Z" fill="#002548"/>
<path d="M116.196 235.268C115.868 235.227 115.574 235.472 115.533 235.813C115.491 236.153 115.724 236.46 116.053 236.501C116.381 236.542 116.676 236.296 116.717 235.956C116.758 235.615 116.525 235.309 116.196 235.268Z" fill="#002548"/>
<path d="M115.526 237.891C115.266 237.686 114.889 237.741 114.691 238.02C114.492 238.293 114.547 238.681 114.814 238.892C115.074 239.096 115.45 239.042 115.649 238.769C115.841 238.483 115.786 238.095 115.526 237.891Z" fill="#002548"/>
<path d="M113.691 239.805C113.561 239.492 113.212 239.342 112.911 239.478C112.61 239.615 112.473 239.976 112.596 240.296C112.726 240.609 113.075 240.759 113.376 240.623C113.677 240.487 113.821 240.126 113.691 239.805Z" fill="#002548"/>
<path d="M111.179 240.514C111.22 240.173 110.987 239.866 110.658 239.825C110.33 239.785 110.036 240.03 109.994 240.371C109.953 240.711 110.186 241.018 110.515 241.059C110.843 241.1 111.144 240.854 111.179 240.514Z" fill="#002548"/>
<path d="M108.667 239.812C108.865 239.539 108.811 239.151 108.544 238.94C108.284 238.735 107.907 238.79 107.709 239.062C107.51 239.335 107.565 239.723 107.832 239.935C108.099 240.146 108.475 240.091 108.667 239.812Z" fill="#002548"/>
<path d="M106.832 237.898C107.133 237.761 107.277 237.4 107.147 237.08C107.017 236.767 106.668 236.617 106.367 236.753C106.066 236.889 105.922 237.25 106.052 237.571C106.175 237.891 106.531 238.034 106.832 237.898Z" fill="#002548"/>
<path d="M106.155 235.281C106.484 235.322 106.778 235.077 106.819 234.736C106.86 234.395 106.628 234.089 106.299 234.048C105.97 234.007 105.676 234.252 105.635 234.593C105.594 234.934 105.827 235.24 106.155 235.281Z" fill="#002548"/>
<path d="M106.825 232.658C107.086 232.862 107.462 232.808 107.661 232.535C107.859 232.263 107.804 231.874 107.537 231.663C107.277 231.459 106.901 231.513 106.702 231.793C106.511 232.065 106.559 232.454 106.825 232.658Z" fill="#002548"/>
<path d="M108.66 230.744C108.79 231.057 109.139 231.207 109.441 231.071C109.742 230.935 109.879 230.573 109.756 230.253C109.625 229.94 109.276 229.79 108.975 229.926C108.667 230.062 108.53 230.424 108.66 230.744Z" fill="#002548"/>
<path d="M196.002 247H172.989L138.299 226.669H161.312L196.002 247Z" fill="#F9FAFB"/>
<path d="M138.299 226.669V228.175L170.299 247H172.989L138.299 226.669Z" fill="#D2D9DC"/>
<path d="M160.456 227.208H140.832V227.392H160.456V227.208Z" fill="#D2D9DC"/>
<path d="M162.112 228.161H142.488V228.346H162.112V228.161Z" fill="#D2D9DC"/>
<path d="M163.762 229.115H144.137V229.3H163.762V229.115Z" fill="#D2D9DC"/>
<path d="M165.412 230.069H145.787V230.254H165.412V230.069Z" fill="#D2D9DC"/>
<path d="M167.068 231.023H147.443V231.208H167.068V231.023Z" fill="#D2D9DC"/>
<path d="M168.718 231.977H149.093V232.162H168.718V231.977Z" fill="#D2D9DC"/>
<path d="M170.368 232.931H150.743V233.115H170.368V232.931Z" fill="#D2D9DC"/>
<path d="M172.024 233.878H152.4V234.062H172.024V233.878Z" fill="#D2D9DC"/>
<path d="M173.673 234.831H154.049V235.016H173.673V234.831Z" fill="#D2D9DC"/>
<path d="M175.33 235.785H155.706V235.97H175.33V235.785Z" fill="#D2D9DC"/>
<path d="M176.98 236.739H157.355V236.924H176.98V236.739Z" fill="#D2D9DC"/>
<path d="M178.629 237.693H159.005V237.878H178.629V237.693Z" fill="#D2D9DC"/>
<path d="M180.286 238.647H160.662V238.832H180.286V238.647Z" fill="#D2D9DC"/>
<path d="M181.936 239.601H162.312V239.786H181.936V239.601Z" fill="#D2D9DC"/>
<path d="M183.592 240.555H163.967V240.74H183.592V240.555Z" fill="#D2D9DC"/>
<path d="M185.242 241.509H165.617V241.693H185.242V241.509Z" fill="#D2D9DC"/>
<path d="M186.891 242.462H167.267V242.647H186.891V242.462Z" fill="#D2D9DC"/>
<path d="M188.548 243.416H168.923V243.601H188.548V243.416Z" fill="#D2D9DC"/>
<path d="M190.198 244.363H170.573V244.548H190.198V244.363Z" fill="#D2D9DC"/>
<path d="M191.854 245.317H172.229V245.502H191.854V245.317Z" fill="#D2D9DC"/>
<path d="M193.503 246.271H173.879V246.456H193.503V246.271Z" fill="#D2D9DC"/>
<g opacity="0.19">
<path d="M134.652 215.469H164.955V203.206H134.652V215.469Z" fill="#2D2F31"/>
<path opacity="0.1" d="M134.652 215.469H164.955V203.206H134.652V215.469Z" fill="#2D2F31"/>
</g>
<path d="M161.318 168.524H138.299V226.669H161.318V168.524Z" fill="#002548"/>
<path opacity="0.19" d="M161.311 226.669H147.382L157.334 168.524H161.311V226.669Z" fill="#2D2F31"/>
<path d="M152.646 203.961H138.299V226.663H152.646V203.961Z" fill="#FFBD86"/>
<path opacity="0.2" d="M152.646 203.961H138.299V226.663H152.646V203.961Z" fill="#FFBD86"/>
<path opacity="0.5" d="M138.299 203.954V226.662H152.646V203.954H138.299ZM150.976 224.959H139.969V205.664H150.976V224.959Z" fill="#FFBD86"/>
<path d="M138.299 203.96V226.669H152.639V203.96H138.299ZM150.976 224.959H139.969V205.664H150.976V224.959Z" fill="#FED2A4"/>
<path d="M139.278 224.851L140.871 225.729L151.891 205.94L150.299 205.061L139.278 224.851Z" fill="#FED2A4"/>
<path opacity="0.2" d="M139.278 224.851L140.871 225.729L151.891 205.94L150.299 205.061L139.278 224.851Z" fill="#FED2A4"/>
<path opacity="0.7" d="M139.278 224.851L140.871 225.729L151.891 205.94L150.299 205.061L139.278 224.851Z" fill="#FED2A4"/>
<g opacity="0.2">
<path opacity="0.19" d="M72.1219 89L19.4841 116.505H18.2178L70.8556 89H72.1219Z" fill="#2D2F31"/>
<path opacity="0.19" d="M87.3519 89L34.7141 116.505H33.4614L86.0924 89H87.3519Z" fill="#2D2F31"/>
<path opacity="0.19" d="M102.589 89L49.9514 116.505H48.6851L101.316 89H102.589Z" fill="#2D2F31"/>
<path opacity="0.19" d="M117.812 89L65.174 116.505H63.9146L116.546 89H117.812Z" fill="#2D2F31"/>
<path opacity="0.19" d="M133.042 89L80.404 116.505H79.1514L131.796 89H133.042Z" fill="#2D2F31"/>
<path opacity="0.19" d="M148.293 89L95.6481 116.505H94.3818L147.02 89H148.293Z" fill="#2D2F31"/>
<path opacity="0.19" d="M163.674 89L111.029 116.505H109.77L162.407 89H163.674Z" fill="#2D2F31"/>
<path opacity="0.19" d="M178.335 89.3746L126.416 116.505H125.157L177.706 89.0408L178.335 89.3746Z" fill="#2D2F31"/>
</g>
</svg>
