<svg width="114" height="114" viewBox="0 0 114 114" fill="none" xmlns="http://www.w3.org/2000/svg">
<path d="M88.4331 48.5052V96.3385H25.5664V48.5052L56.9997 23.8333L88.4331 48.5052Z" fill="#0054A6"/>
<path d="M33.7656 52.5332H80.2323V96.2665H33.7656V52.5332Z" fill="#D2D9DC"/>
<path d="M70.8826 71.9543H69.3001C69.0124 70.3718 68.365 68.8613 67.5019 67.5665L68.6528 66.4157C69.0843 65.9841 69.0843 65.1929 68.6528 64.7613L66.7107 62.8192C66.2791 62.3876 65.5598 62.3876 65.0563 62.8192L63.9054 63.9701C62.5387 63.1069 61.1001 62.4595 59.5177 62.1718V60.5894C59.5177 59.942 59.0142 59.4385 58.3668 59.4385H55.6335C54.9861 59.4385 54.4826 59.942 54.4826 60.5894V62.1718C52.9001 62.4595 51.3896 63.1069 50.0949 63.9701L48.944 62.8192C48.5124 62.3876 47.7212 62.3876 47.2896 62.8192L45.3475 64.7613C44.9159 65.1929 44.9159 65.9841 45.3475 66.4157L46.4984 67.5665C45.6352 68.8613 44.9879 70.3718 44.7001 71.9543H43.1177C42.4703 71.9543 41.9668 72.4578 41.9668 73.1051V75.8385C41.9668 76.4858 42.4703 76.9894 43.1177 76.9894H44.7001C44.9879 78.5718 45.6352 80.0823 46.4984 81.3771L45.3475 82.5279C44.9159 82.9595 44.9159 83.6788 45.3475 84.1823L47.2896 86.1244C47.7212 86.556 48.4405 86.556 48.944 86.1244L50.0949 84.9736C51.3896 85.8367 52.9001 86.4841 54.4826 86.7718V88.3543C54.4826 89.0016 54.9861 89.5051 55.6335 89.5051H58.3668C59.0142 89.5051 59.5177 89.0016 59.5177 88.3543V86.7718C61.1001 86.4841 62.6107 85.8367 63.9054 84.9736L65.0563 86.1244C65.4878 86.556 66.2071 86.556 66.7107 86.1244L68.6528 84.1823C69.0843 83.7508 69.0843 82.9595 68.6528 82.5279L67.5019 81.3771C68.365 80.0823 69.0124 78.5718 69.3001 76.9894H70.8826C71.53 76.9894 72.0335 76.4858 72.0335 75.8385V73.1051C72.0335 72.4578 71.53 71.9543 70.8826 71.9543ZM63.8335 75.5508C63.1861 79.363 59.6615 81.8806 55.8493 81.3051C52.037 80.6578 49.5194 77.1332 50.0949 73.3209C50.7422 69.5086 54.2668 66.9911 58.0791 67.5665C61.8914 68.2139 64.4808 71.7385 63.8335 75.5508Z" fill="#839299"/>
<path d="M96.6339 48.5053H88.4339L57.0005 23.8333L25.5672 48.5053H17.3672L25.5672 42.0316L50.0953 22.5386L57.0005 17L63.9058 22.4667L88.4339 41.9596L96.6339 48.5053Z" fill="#ED1C24"/>
<path d="M96.6333 97.7053H17.3667C16.6474 97.7053 16 97.0579 16 96.3386C16 95.6193 16.6474 94.9719 17.3667 94.9719H96.6333C97.3526 94.9719 98 95.6193 98 96.3386C98 97.0579 97.3526 97.7053 96.6333 97.7053Z" fill="#002548"/>
<path d="M56.9999 44.4053C60.019 44.4053 62.4665 41.9577 62.4665 38.9386C62.4665 35.9194 60.019 33.4719 56.9999 33.4719C53.9807 33.4719 51.5332 35.9194 51.5332 38.9386C51.5332 41.9577 53.9807 44.4053 56.9999 44.4053Z" fill="#D2D9DC"/>
</svg>
