<svg width="50" height="50" viewBox="0 0 50 50" fill="none" xmlns="http://www.w3.org/2000/svg">
<path d="M24.2188 6.25H25.7812V10.1562H24.2188V6.25Z" fill="#204866"/>
<path d="M35.9375 14.0625H34.375V10.9375C34.375 10.618 34.5695 10.3313 34.8664 10.2117L38.2812 8.84609V6.25H39.8438V9.375C39.8438 9.69453 39.6492 9.98125 39.3523 10.1008L35.9375 11.4664V14.0625Z" fill="#204866"/>
<path d="M15.625 14.0625H14.0625V11.4664L10.6477 10.1008C10.3508 9.98125 10.1562 9.69453 10.1562 9.375V6.25H11.7188V8.84609L15.1336 10.2117C15.4305 10.3313 15.625 10.618 15.625 10.9375V14.0625Z" fill="#204866"/>
<path d="M42.4141 38.5103L41.4039 39.5204V33.5938C41.4039 33.386 41.3219 33.1876 41.175 33.0415L38.8313 30.6978L37.7266 31.8024L39.8414 33.9173V39.5204L38.8313 38.5103L37.7266 39.6149L40.0703 41.9587C40.2227 42.111 40.4227 42.1876 40.6227 42.1876C40.8227 42.1876 41.0227 42.111 41.175 41.9587L43.5188 39.6149L42.4141 38.5103Z" fill="#204866"/>
<path d="M10.1539 39.5204V33.9173L12.2687 31.8024L11.1641 30.6978L8.82031 33.0415C8.67344 33.1876 8.59141 33.386 8.59141 33.5938V39.5204L7.58125 38.5103L6.47656 39.6149L8.82031 41.9587C8.97266 42.111 9.17266 42.1876 9.37266 42.1876C9.57266 42.1876 9.77266 42.111 9.925 41.9587L12.2687 39.6149L11.1641 38.5103L10.1539 39.5204Z" fill="#204866"/>
<path d="M24.2188 38.2812H25.7812V42.1875H24.2188V38.2812Z" fill="#204866"/>
<path d="M9.375 48.4375C10.6694 48.4375 11.7188 47.3882 11.7188 46.0938C11.7188 44.7993 10.6694 43.75 9.375 43.75C8.08058 43.75 7.03125 44.7993 7.03125 46.0938C7.03125 47.3882 8.08058 48.4375 9.375 48.4375Z" fill="#EF476F"/>
<path d="M25 48.4375C26.2944 48.4375 27.3438 47.3882 27.3438 46.0938C27.3438 44.7993 26.2944 43.75 25 43.75C23.7056 43.75 22.6562 44.7993 22.6562 46.0938C22.6562 47.3882 23.7056 48.4375 25 48.4375Z" fill="#EF476F"/>
<path d="M40.625 48.4375C41.9194 48.4375 42.9688 47.3882 42.9688 46.0938C42.9688 44.7993 41.9194 43.75 40.625 43.75C39.3306 43.75 38.2812 44.7993 38.2812 46.0938C38.2812 47.3882 39.3306 48.4375 40.625 48.4375Z" fill="#EF476F"/>
<path d="M9.375 1.5625H12.5V4.6875H9.375V1.5625Z" fill="#CCBD66"/>
<path d="M23.4375 1.5625H26.5625V4.6875H23.4375V1.5625Z" fill="#F0DE78"/>
<path d="M37.5 1.5625H40.625V4.6875H37.5V1.5625Z" fill="#FFED80"/>
<path d="M25 39.8438C33.6294 39.8438 40.625 32.8482 40.625 24.2188C40.625 15.5893 33.6294 8.59375 25 8.59375C16.3706 8.59375 9.375 15.5893 9.375 24.2188C9.375 32.8482 16.3706 39.8438 25 39.8438Z" fill="#99E1FF"/>
<path d="M25 38.2812C32.7665 38.2812 39.0625 31.9853 39.0625 24.2188C39.0625 16.4522 32.7665 10.1562 25 10.1562C17.2335 10.1562 10.9375 16.4522 10.9375 24.2188C10.9375 31.9853 17.2335 38.2812 25 38.2812Z" fill="#B3E9FF"/>
<path d="M27.3438 28.125H32.0312V32.8125H27.3438V28.125Z" fill="#CCBD66"/>
<path d="M32.0312 28.125H36.7188V32.8125H32.0312V28.125Z" fill="#F0DE78"/>
<path d="M29.6875 23.4375H34.375V28.125H29.6875V23.4375Z" fill="#FFED80"/>
<path d="M23.0328 21.9188L17.5883 21.8751C16.0758 21.8634 14.8438 23.0618 14.8438 24.5446V32.8126H25.7812V24.9868C25.7328 23.1227 24.5273 21.9306 23.0328 21.9188Z" fill="#2E6893"/>
<path d="M20.3125 21.875L18.75 26.5625L20.3125 28.9062L21.875 26.5625L20.3125 21.875Z" fill="#E8E8E8"/>
<path d="M20.3125 21.875C22.4699 21.875 24.2188 20.1261 24.2188 17.9688C24.2188 15.8114 22.4699 14.0625 20.3125 14.0625C18.1551 14.0625 16.4062 15.8114 16.4062 17.9688C16.4062 20.1261 18.1551 21.875 20.3125 21.875Z" fill="#FFCD94"/>
<path d="M20.3219 16.4062C21.1969 17.3672 22.4391 17.9688 23.8062 17.9688C23.9461 17.9688 24.0867 17.9609 24.2187 17.9531C24.2102 15.8031 22.4664 14.0625 20.3141 14.0625C18.1648 14.0625 16.4227 15.7992 16.4102 17.9453C16.55 17.9609 16.6898 17.9688 16.8375 17.9688C18.2047 17.9688 19.4469 17.3672 20.3219 16.4062Z" fill="#3F3F3F"/>
</svg>
