<svg width="64" height="64" viewBox="0 0 64 64" fill="none" xmlns="http://www.w3.org/2000/svg">
<path fill-rule="evenodd" clip-rule="evenodd" d="M46.1185 53.0015H2.11523C1.63198 53.0015 1.24023 52.6097 1.24023 52.1265V17.2213C1.24023 16.8905 1.42386 16.6026 1.69486 16.4538L24.0697 1.27797C24.3787 1.06859 24.774 1.08434 25.0617 1.28784L47.4904 16.5001C47.7386 16.6683 47.8726 16.9423 47.8729 17.2212L47.8049 52.1263C47.8049 53.1046 46.7759 53.0013 46.1185 53.0013V53.0015Z" fill="#ED1114"/>
<path fill-rule="evenodd" clip-rule="evenodd" d="M44.2469 53.0013H2.11523C1.63198 53.0013 1.24023 52.6096 1.24023 52.1263V17.2212C1.24023 16.8903 1.42386 16.6025 1.69486 16.4537L23.3397 1.77295L45.053 16.4999C45.3012 16.6682 45.4352 16.9422 45.4355 17.2211L45.3675 52.1262C45.3675 52.8491 44.8056 52.9813 44.247 53.0012L44.2469 53.0013Z" fill="#F24C4E"/>
<path fill-rule="evenodd" clip-rule="evenodd" d="M42.2029 51.5484H6.91603C6.43816 51.5484 6.05078 51.1757 6.05078 50.7158V20.1437C6.05078 19.6839 6.43816 19.311 6.91603 19.311H42.2029C42.6808 19.311 43.0682 19.6838 43.0682 20.1437V50.7158C43.0682 51.1755 42.6808 51.5484 42.2029 51.5484Z" fill="#ECEFF1"/>
<path fill-rule="evenodd" clip-rule="evenodd" d="M24.5591 15.1808C26.2215 15.1808 27.5771 13.825 27.5771 12.1627C27.5771 10.5003 26.2214 9.14453 24.5591 9.14453C22.8969 9.14453 21.541 10.5003 21.541 12.1627C21.541 13.825 22.8968 15.1808 24.5591 15.1808Z" fill="#FFEBAD"/>
<path fill-rule="evenodd" clip-rule="evenodd" d="M24.1724 15.1559C22.6881 14.9661 21.541 13.6983 21.541 12.1624C21.541 10.6266 22.6881 9.3587 24.1724 9.16895C25.6566 9.35882 26.8038 10.6267 26.8038 12.1624C26.8038 13.6982 25.6566 14.9662 24.1724 15.1559Z" fill="#FFF0C4"/>
<path fill-rule="evenodd" clip-rule="evenodd" d="M26.9336 42.2676H38.1705V50.7988C38.1705 51.2113 37.8331 51.5487 37.4206 51.5487H27.6835C27.271 51.5487 26.9336 51.2113 26.9336 50.7988V42.2676Z" fill="#E7BF55"/>
<path fill-rule="evenodd" clip-rule="evenodd" d="M10.9883 42.2676H22.2252V50.7988C22.2252 51.2113 21.8878 51.5487 21.4753 51.5487H11.7382C11.3257 51.5487 10.9883 51.2113 10.9883 50.7988V42.2676Z" fill="#D6AF45"/>
<path fill-rule="evenodd" clip-rule="evenodd" d="M10.9883 42.2676H21.1002V50.7988C21.1002 51.2113 20.7628 51.5487 20.3503 51.5487H11.7382C11.3257 51.5487 10.9883 51.2113 10.9883 50.7988V42.2676Z" fill="#E7BF55"/>
<path d="M22.6319 39.5093H10.5378C10.3875 39.5093 10.2656 39.6311 10.2656 39.7814V42.54C10.2656 42.6903 10.3875 42.8121 10.5378 42.8121H22.6319C22.7822 42.8121 22.904 42.6903 22.904 42.54V39.7814C22.904 39.6311 22.7822 39.5093 22.6319 39.5093Z" fill="#BD8D3B"/>
<path d="M21.5069 39.5093H10.5378C10.3875 39.5093 10.2656 39.6311 10.2656 39.7814V42.54C10.2656 42.6903 10.3875 42.8121 10.5378 42.8121H21.5069C21.6572 42.8121 21.779 42.6903 21.779 42.54V39.7814C21.779 39.6311 21.6572 39.5093 21.5069 39.5093Z" fill="#D6A858"/>
<path fill-rule="evenodd" clip-rule="evenodd" d="M18.9805 29.4312H30.2173V37.9624C30.2173 38.3749 29.88 38.7123 29.4675 38.7123H19.7303C19.3178 38.7123 18.9805 38.3749 18.9805 37.9624V29.4312Z" fill="#D6AF45"/>
<path fill-rule="evenodd" clip-rule="evenodd" d="M18.9805 29.4312H29.0923V37.9624C29.0923 38.3749 28.755 38.7123 28.3425 38.7123H19.7303C19.3178 38.7123 18.9805 38.3749 18.9805 37.9624V29.4312Z" fill="#E7BF55"/>
<path d="M30.626 26.5645H18.5319C18.3816 26.5645 18.2598 26.6863 18.2598 26.8366V29.5952C18.2598 29.7455 18.3816 29.8673 18.5319 29.8673H30.626C30.7763 29.8673 30.8981 29.7455 30.8981 29.5952V26.8366C30.8981 26.6863 30.7763 26.5645 30.626 26.5645Z" fill="#BD8D3B"/>
<path d="M29.501 26.5645H18.5319C18.3816 26.5645 18.2598 26.6863 18.2598 26.8366V29.5952C18.2598 29.7455 18.3816 29.8673 18.5319 29.8673H29.501C29.6513 29.8673 29.7731 29.7455 29.7731 29.5952V26.8366C29.7731 26.6863 29.6513 26.5645 29.501 26.5645Z" fill="#D6A858"/>
<path d="M38.5772 39.5093H26.4831C26.3328 39.5093 26.2109 39.6311 26.2109 39.7814V42.54C26.2109 42.6903 26.3328 42.8121 26.4831 42.8121H38.5772C38.7275 42.8121 38.8493 42.6903 38.8493 42.54V39.7814C38.8493 39.6311 38.7275 39.5093 38.5772 39.5093Z" fill="#D6A858"/>
<path fill-rule="evenodd" clip-rule="evenodd" d="M58.6092 40.2256C59.2251 41.2809 59.6935 42.4149 60.0025 43.5892L61.8326 43.8372C62.24 43.8919 62.5436 44.2196 62.5842 44.6111C62.8211 46.1476 62.8175 47.9656 62.5776 49.4967C62.5171 49.8876 62.2055 50.1773 61.8325 50.2273L60.0025 50.4761C59.6936 51.6502 59.2252 52.7848 58.6095 53.8402L59.7289 55.3104C59.9822 55.6423 59.961 56.0977 59.7019 56.4038C58.7244 57.7332 57.585 58.8676 56.2519 59.8402C55.9329 60.0724 55.5089 60.0564 55.2105 59.8284L53.7387 58.7103C52.6837 59.3261 51.5489 59.7948 50.3749 60.1037L50.127 61.9333C50.0722 62.3407 49.7446 62.6443 49.3531 62.6851C47.7186 62.9371 46.1012 62.9344 44.4674 62.6784C44.0765 62.6179 43.7867 62.3063 43.7367 61.9332L43.488 60.1037C42.3144 59.7951 41.1786 59.3262 40.1237 58.7107L38.6537 59.8298C38.3219 60.0832 37.8665 60.0619 37.5604 59.8027C36.2311 58.8253 35.0965 57.6856 34.124 56.3527C33.8917 56.0337 33.9077 55.6097 34.1357 55.3113L35.2537 53.8398C34.6382 52.7852 34.1691 51.6494 33.8604 50.4759L32.0307 50.2281C31.6234 50.1733 31.3197 49.8457 31.2791 49.4542C31.027 47.8196 31.0296 46.2024 31.2856 44.5684C31.3461 44.1776 31.6577 43.8878 32.0307 43.8378L33.8604 43.5891C34.1691 42.4154 34.6377 41.2797 35.2534 40.2248L34.1342 38.7548C33.8807 38.4228 33.9021 37.9674 34.1615 37.6613C35.1387 36.3319 36.2784 35.1976 37.6114 34.2251C37.9304 33.9928 38.3544 34.0088 38.6527 34.2368L40.1244 35.3549C41.1792 34.7393 42.3146 34.2707 43.4882 33.9618L43.7362 32.1318C43.791 31.7244 44.1186 31.4208 44.5101 31.3802C46.1446 31.1281 47.7619 31.1307 49.3957 31.3867C49.7866 31.4472 50.0764 31.7588 50.1264 32.1319L50.3751 33.9619C51.5489 34.2708 52.6839 34.7394 53.7389 35.3551L55.2096 34.2354C55.5415 33.9821 55.9969 34.0033 56.303 34.2624C57.6322 35.2397 58.7671 36.3794 59.7394 37.7124C59.9716 38.0314 59.9556 38.4554 59.7277 38.7538L58.6094 40.2258L58.6092 40.2256Z" fill="#3F6D91"/>
<path fill-rule="evenodd" clip-rule="evenodd" d="M43.7361 32.1315C43.7909 31.7241 44.1185 31.4205 44.51 31.3798C45.6199 31.2111 46.0852 31.1836 47.38 31.3863C47.7709 31.4468 48.0606 31.7585 48.1106 32.1316L48.3594 33.9616C50.2291 33.9688 52.1151 34.4072 53.7387 35.3547L54.7305 34.5997C55.8709 35.4995 56.8612 36.5297 57.7236 37.7121C57.9559 38.0311 57.9399 38.4551 57.712 38.7535L56.5936 40.2254C57.2095 41.2808 57.6779 42.4148 57.9869 43.5891L59.817 43.8371C60.2244 43.8918 60.528 44.2194 60.5686 44.611C60.8055 46.1475 60.8019 47.9655 60.562 49.4966C60.5015 49.8874 60.1899 50.1772 59.8167 50.2272L57.9867 50.476C57.6779 51.6501 57.2095 52.7847 56.5937 53.8401L57.7131 55.3103C57.9665 55.6422 57.9452 56.0976 57.6861 56.4037C56.8319 57.5655 55.854 58.5782 54.7312 59.4643L53.7387 58.7103C52.2342 59.5885 49.7855 59.9994 48.3592 60.1037L48.1114 61.9333C48.0566 62.3407 47.729 62.6443 47.3375 62.6851C46.6737 62.7707 46.2475 62.8695 45.6286 62.818L44.4674 62.6785C44.0765 62.618 43.7867 62.3063 43.7367 61.9332L43.488 60.1037C42.3144 59.7951 41.1786 59.3262 40.1237 58.7107L38.6537 59.8298C38.3219 60.0832 37.8665 60.062 37.5604 59.8027C36.2311 58.8253 35.0965 57.6856 34.124 56.3527C33.8917 56.0337 33.9077 55.6097 34.1357 55.3113L35.2537 53.8398C34.6382 52.7852 34.1691 51.6495 33.8604 50.476L32.0307 50.2281C31.6234 50.1733 31.3197 49.8457 31.2791 49.4542C31.027 47.8196 31.0296 46.2025 31.2856 44.5685C31.3461 44.1776 31.6577 43.8878 32.0307 43.8378L33.8604 43.5891C34.1691 42.4155 34.6377 41.2797 35.2534 40.2248L34.1342 38.7548C33.8807 38.4228 33.9021 37.9674 34.1615 37.6613C35.1387 36.3319 36.2784 35.1976 37.6114 34.2251C37.9304 33.9928 38.3544 34.0088 38.6527 34.2368L40.1244 35.3549C41.1792 34.7393 42.3146 34.2707 43.4882 33.9618L43.7362 32.1318L43.7361 32.1315Z" fill="#487CA5"/>
<path fill-rule="evenodd" clip-rule="evenodd" d="M51.4868 42.4775C54.0025 44.9932 54.0025 49.0718 51.4868 51.5874C48.9712 54.103 44.8926 54.103 42.377 51.5874C39.8613 49.0718 39.8613 44.9932 42.377 42.4775C44.8926 39.9619 48.9712 39.9619 51.4868 42.4775Z" fill="#D9C971"/>
<path fill-rule="evenodd" clip-rule="evenodd" d="M46.4251 53.4537C44.9493 53.338 43.5057 52.7161 42.377 51.5872C39.8613 49.0716 39.8613 44.993 42.377 42.4773C43.5058 41.3485 44.9493 40.7266 46.4251 40.6108C47.9008 40.7266 49.3445 41.3485 50.4732 42.4773C52.9888 44.993 52.9888 49.0716 50.4732 51.5872C49.3443 52.716 47.9008 53.3378 46.4251 53.4537Z" fill="#FFEE93"/>
</svg>
