<svg width="82" height="81" viewBox="0 0 82 81" fill="none" xmlns="http://www.w3.org/2000/svg">
<path d="M72.4331 31.5052V79.3385H9.56641V31.5052L40.9997 6.83325L72.4331 31.5052Z" fill="#0054A6"/>
<path d="M17.7656 35.5332H64.2323V79.2665H17.7656V35.5332Z" fill="#D2D9DC"/>
<path d="M54.8826 54.9543H53.3001C53.0124 53.3718 52.365 51.8613 51.5019 50.5665L52.6528 49.4157C53.0843 48.9841 53.0843 48.1929 52.6528 47.7613L50.7107 45.8192C50.2791 45.3876 49.5598 45.3876 49.0563 45.8192L47.9054 46.9701C46.5387 46.1069 45.1001 45.4595 43.5177 45.1718V43.5894C43.5177 42.942 43.0142 42.4385 42.3668 42.4385H39.6335C38.9861 42.4385 38.4826 42.942 38.4826 43.5894V45.1718C36.9001 45.4595 35.3896 46.1069 34.0949 46.9701L32.944 45.8192C32.5124 45.3876 31.7212 45.3876 31.2896 45.8192L29.3475 47.7613C28.9159 48.1929 28.9159 48.9841 29.3475 49.4157L30.4984 50.5665C29.6352 51.8613 28.9879 53.3718 28.7001 54.9543H27.1177C26.4703 54.9543 25.9668 55.4578 25.9668 56.1051V58.8385C25.9668 59.4858 26.4703 59.9894 27.1177 59.9894H28.7001C28.9879 61.5718 29.6352 63.0823 30.4984 64.3771L29.3475 65.5279C28.9159 65.9595 28.9159 66.6788 29.3475 67.1823L31.2896 69.1244C31.7212 69.556 32.4405 69.556 32.944 69.1244L34.0949 67.9736C35.3896 68.8367 36.9001 69.4841 38.4826 69.7718V71.3543C38.4826 72.0016 38.9861 72.5051 39.6335 72.5051H42.3668C43.0142 72.5051 43.5177 72.0016 43.5177 71.3543V69.7718C45.1001 69.4841 46.6107 68.8367 47.9054 67.9736L49.0563 69.1244C49.4878 69.556 50.2071 69.556 50.7107 69.1244L52.6528 67.1823C53.0843 66.7508 53.0843 65.9595 52.6528 65.5279L51.5019 64.3771C52.365 63.0823 53.0124 61.5718 53.3001 59.9894H54.8826C55.53 59.9894 56.0335 59.4858 56.0335 58.8385V56.1051C56.0335 55.4578 55.53 54.9543 54.8826 54.9543ZM47.8335 58.5508C47.1861 62.363 43.6615 64.8806 39.8493 64.3051C36.037 63.6578 33.5194 60.1332 34.0949 56.3209C34.7422 52.5086 38.2668 49.9911 42.0791 50.5665C45.8914 51.2139 48.4808 54.7385 47.8335 58.5508Z" fill="#839299"/>
<path d="M80.6339 31.5053H72.4339L41.0005 6.83333L9.56719 31.5053H1.36719L9.56719 25.0316L34.0953 5.5386L41.0005 0L47.9058 5.46667L72.4339 24.9596L80.6339 31.5053Z" fill="#ED1C24"/>
<path d="M80.6333 80.7053H1.36667C0.647368 80.7053 0 80.0579 0 79.3386C0 78.6193 0.647368 77.9719 1.36667 77.9719H80.6333C81.3526 77.9719 82 78.6193 82 79.3386C82 80.0579 81.3526 80.7053 80.6333 80.7053Z" fill="#002548"/>
<path d="M40.9999 27.4053C44.019 27.4053 46.4665 24.9577 46.4665 21.9386C46.4665 18.9194 44.019 16.4719 40.9999 16.4719C37.9807 16.4719 35.5332 18.9194 35.5332 21.9386C35.5332 24.9577 37.9807 27.4053 40.9999 27.4053Z" fill="#D2D9DC"/>
</svg>
