<svg width="776" height="322" viewBox="0 0 776 322" fill="none" xmlns="http://www.w3.org/2000/svg">
<g clip-path="url(#clip0_5821_13810)">
<path d="M1600 -347H0V322H1600V-347Z" fill="#0A2545"/>
<mask id="mask0_5821_13810" style="mask-type:luminance" maskUnits="userSpaceOnUse" x="0" y="-347" width="1600" height="669">
<path d="M1600 -347H0V322H1600V-347Z" fill="white"/>
</mask>
<g mask="url(#mask0_5821_13810)">
<path d="M1232 36.84C1159.39 36.84 1088.96 22.6199 1022.65 -5.43005C958.6 -32.5201 901.08 -71.3001 851.69 -120.69C802.3 -170.08 763.52 -227.6 736.43 -291.65C708.38 -357.96 694.16 -428.39 694.16 -501C694.16 -573.61 708.38 -644.04 736.43 -710.35C763.52 -774.4 802.3 -831.92 851.69 -881.31C901.08 -930.7 958.6 -969.48 1022.65 -996.57C1088.96 -1024.62 1159.39 -1038.84 1232 -1038.84C1304.61 -1038.84 1375.04 -1024.62 1441.35 -996.57C1505.4 -969.48 1562.92 -930.7 1612.31 -881.31C1661.7 -831.92 1700.48 -774.4 1727.57 -710.35C1755.62 -644.04 1769.84 -573.61 1769.84 -501C1769.84 -428.39 1755.62 -357.96 1727.57 -291.65C1700.48 -227.6 1661.7 -170.08 1612.31 -120.69C1562.92 -71.3001 1505.4 -32.5201 1441.35 -5.43005C1375.04 22.6199 1304.61 36.84 1232 36.84ZM1232 -1036.2C1159.75 -1036.2 1089.66 -1022.05 1023.68 -994.14C959.95 -967.18 902.71 -928.59 853.56 -879.44C804.41 -830.29 765.82 -773.05 738.86 -709.32C710.95 -643.34 696.8 -573.25 696.8 -501C696.8 -428.75 710.95 -358.66 738.86 -292.68C765.82 -228.95 804.41 -171.71 853.56 -122.56C902.71 -73.4101 959.95 -34.8201 1023.68 -7.86011C1089.66 20.0499 1159.75 34.2 1232 34.2C1304.25 34.2 1374.34 20.0499 1440.32 -7.86011C1504.05 -34.8201 1561.29 -73.4101 1610.44 -122.56C1659.59 -171.71 1698.18 -228.95 1725.14 -292.68C1753.05 -358.66 1767.2 -428.75 1767.2 -501C1767.2 -573.25 1753.05 -643.34 1725.14 -709.32C1698.18 -773.05 1659.59 -830.29 1610.44 -879.44C1561.29 -928.59 1504.05 -967.18 1440.32 -994.14C1374.34 -1022.05 1304.25 -1036.2 1232 -1036.2Z" stroke="#5C6A71" stroke-width="2" stroke-miterlimit="10"/>
<path d="M1232 101.5C1150.66 101.5 1071.76 85.57 997.48 54.15C925.73 23.8 861.3 -19.64 805.97 -74.97C750.64 -130.3 707.19 -194.73 676.85 -266.48C645.43 -340.76 629.5 -419.66 629.5 -501C629.5 -582.34 645.43 -661.24 676.85 -735.52C707.2 -807.27 750.64 -871.7 805.97 -927.03C861.3 -982.36 925.74 -1025.8 997.48 -1056.15C1071.76 -1087.57 1150.66 -1103.5 1232 -1103.5C1313.34 -1103.5 1392.24 -1087.57 1466.52 -1056.15C1538.27 -1025.8 1602.7 -982.36 1658.03 -927.03C1713.36 -871.7 1756.8 -807.26 1787.15 -735.52C1818.57 -661.24 1834.5 -582.34 1834.5 -501C1834.5 -419.66 1818.57 -340.76 1787.15 -266.48C1756.8 -194.73 1713.36 -130.3 1658.03 -74.97C1602.7 -19.64 1538.26 23.81 1466.52 54.15C1392.24 85.57 1313.34 101.5 1232 101.5ZM1232 -1100.85C1151.02 -1100.85 1072.46 -1084.99 998.51 -1053.71C927.08 -1023.5 862.93 -980.25 807.84 -925.16C752.75 -870.07 709.5 -805.92 679.28 -734.49C648 -660.54 632.14 -581.98 632.14 -501C632.14 -420.02 648.01 -341.46 679.28 -267.51C709.49 -196.08 752.74 -131.93 807.83 -76.84C862.92 -21.75 927.07 21.5 998.5 51.71C1072.45 82.99 1151.01 98.85 1231.99 98.85C1312.97 98.85 1391.53 82.99 1465.48 51.71C1536.91 21.5 1601.06 -21.75 1656.15 -76.84C1711.24 -131.93 1754.49 -196.08 1784.7 -267.51C1815.98 -341.46 1831.84 -420.02 1831.84 -501C1831.84 -581.98 1815.98 -660.54 1784.7 -734.49C1754.49 -805.92 1711.24 -870.07 1656.15 -925.16C1601.06 -980.25 1536.91 -1023.5 1465.48 -1053.71C1391.54 -1084.99 1312.98 -1100.85 1232 -1100.85Z" stroke="#5C6A71" stroke-width="2" stroke-miterlimit="10"/>
</g>
<mask id="mask1_5821_13810" style="mask-type:luminance" maskUnits="userSpaceOnUse" x="0" y="-347" width="1600" height="669">
<path d="M1600 -347H0V322H1600V-347Z" fill="white"/>
</mask>
<g mask="url(#mask1_5821_13810)">
<path d="M569.693 101.88L-40.5469 712.12" stroke="#0054A6" stroke-width="2" stroke-miterlimit="10"/>
<path d="M511.002 101.88L-99.2383 712.12" stroke="#0054A6" stroke-width="2" stroke-miterlimit="10"/>
<path d="M452.31 101.88L-157.93 712.12" stroke="#0054A6" stroke-width="2" stroke-miterlimit="10"/>
<path d="M393.623 101.88L-216.617 712.12" stroke="#0054A6" stroke-width="2" stroke-miterlimit="10"/>
<path d="M334.935 101.88L-275.305 712.12" stroke="#0054A6" stroke-width="2" stroke-miterlimit="10"/>
<path d="M276.24 101.88L-334 712.12" stroke="#0054A6" stroke-width="2" stroke-miterlimit="10"/>
<path d="M217.552 101.88L-392.688 712.12" stroke="#0054A6" stroke-width="2" stroke-miterlimit="10"/>
</g>
</g>
<defs>
<clipPath id="clip0_5821_13810">
<path d="M0 24C0 10.7452 10.7452 0 24 0H752C765.255 0 776 10.7452 776 24V322H24C10.7452 322 0 311.255 0 298V24Z" fill="white"/>
</clipPath>
</defs>
</svg>
