<svg width="56" height="56" viewBox="0 0 56 56" fill="none" xmlns="http://www.w3.org/2000/svg">
<g id="scrape-your-data-process_we-scrape 1" clip-path="url(#clip0_6034_16943)">
<g id="Group">
<g id="Group_2">
<path id="Vector" d="M56 9.8999V53.0999C56 54.6999 54.7 55.9999 53.1 55.9999H2.9C1.3 55.9999 0 54.6999 0 53.0999V9.8999H56Z" fill="#D2D9DC"/>
</g>
<path id="Vector_2" d="M4.09961 14.2998H51.7996V51.6998H4.09961V14.2998Z" fill="#F9FAFB"/>
<path id="Vector_3" d="M56 2.9V10H0V2.9C0 1.3 1.3 0 2.9 0H53.1C54.7 0 56 1.3 56 2.9Z" fill="#0054A6"/>
<path id="Vector_4" d="M18.9004 28.4C18.1004 28.3 17.4004 28 16.8004 27.4C16.1004 26.7 15.7004 25.6 15.8004 24.7C15.8004 24.3 16.3004 24.1 16.6004 24.4L17.6004 25.4C18.2004 26 19.2004 26.1 19.8004 25.5C20.2004 25.2 20.3004 24.7 20.3004 24.3C20.3004 23.9 20.1004 23.5 19.8004 23.2L18.8004 22.2C18.5004 21.9 18.7004 21.4 19.1004 21.4C20.1004 21.3 21.1004 21.7 21.8004 22.4C22.4004 23 22.7004 23.7 22.8004 24.5C22.9004 25.5 23.4004 26.4 24.1004 27.1L34.4004 37.4C35.1004 38.1 36.0004 38.6 37.0004 38.7C37.8004 38.8 38.5004 39.1 39.1004 39.7C39.8004 40.4 40.2004 41.5 40.1004 42.4C40.1004 42.8 39.6004 43 39.3004 42.7L38.3004 41.7C37.7004 41.1 36.7004 41 36.1004 41.6C35.4004 42.2 35.4004 43.3 36.0004 43.9L37.0004 44.9C37.3004 45.2 37.1004 45.7 36.7004 45.7C35.7004 45.8 34.7004 45.4 34.0004 44.7C32.4004 43.2 33.6004 41.9 31.7004 40L21.5004 29.7C20.8004 29 19.9004 28.5 18.9004 28.4Z" fill="#5F737C"/>
<path id="Vector_5" d="M17.9004 7C19.005 7 19.9004 6.10457 19.9004 5C19.9004 3.89543 19.005 3 17.9004 3C16.7958 3 15.9004 3.89543 15.9004 5C15.9004 6.10457 16.7958 7 17.9004 7Z" fill="#54CC5A"/>
<path id="Vector_6" d="M12 7C13.1046 7 14 6.10457 14 5C14 3.89543 13.1046 3 12 3C10.8954 3 10 3.89543 10 5C10 6.10457 10.8954 7 12 7Z" fill="#FFDD33"/>
<path id="Vector_7" d="M6 7C7.10457 7 8 6.10457 8 5C8 3.89543 7.10457 3 6 3C4.89543 3 4 3.89543 4 5C4 6.10457 4.89543 7 6 7Z" fill="#ED1C24"/>
<path id="Vector_8" d="M33.1004 28.8999L31.6004 27.3999C32.3004 26.6999 32.8004 25.9999 32.6004 24.7999C32.5004 24.0999 32.0004 23.3999 31.4004 22.9999C30.9004 22.6999 30.0004 22.3999 28.9004 22.1999C28.4004 22.0999 28.4004 21.3999 28.9004 21.3999C30.3004 21.1999 32.4004 21.3999 35.2004 22.9999C35.2004 22.9999 37.8004 24.4999 38.1004 26.9999C38.1004 26.9999 38.6004 28.4999 39.9004 28.4999C39.9004 28.4999 41.0004 28.5999 41.3004 29.3999C41.4004 29.7999 41.3004 30.2999 41.0004 30.5999L39.7004 31.8999C39.4004 32.1999 38.9004 32.3999 38.5004 32.1999C38.1004 32.0999 37.7004 31.6999 37.6004 30.8999C37.5004 30.7999 36.8004 27.4999 33.1004 28.8999Z" fill="#5F737C"/>
<path id="Vector_9" d="M17.3003 45.2999L15.1003 43.0999C14.5003 42.4999 14.5003 41.4999 15.2003 40.9999L31.5003 27.3999L33.0003 28.8999L19.4003 45.1999C18.9003 45.8999 17.9003 45.8999 17.3003 45.2999Z" fill="#FFBD86"/>
</g>
</g>
<defs>
<clipPath id="clip0_6034_16943">
<rect width="56" height="56" fill="white"/>
</clipPath>
</defs>
</svg>
