<svg width="1600" height="819" viewBox="0 0 1600 819" fill="none" xmlns="http://www.w3.org/2000/svg">
<g clip-path="url(#clip0_6823_15154)">
<path opacity="0.5" d="M913.4 957.6C878.3 922.5 878.3 865.5 913.4 830.3L1308.6 435.1L913.3 39.7002C878.2 4.6002 878.2 -52.3998 913.3 -87.5998C948.4 -122.7 1005.4 -122.7 1040.6 -87.5998L1563.2 435L1040.7 957.5C1005.6 992.7 948.6 992.7 913.4 957.6Z" fill="#0054A6"/>
<path opacity="0.5" d="M1284 434.5L1296.6 447.1L1212.3 531.4L1115.4 434.5L1211.7 338.2L1339 210.9L1460.5 89.4C1472.1 77.8 1487.4 72 1502.6 72C1517.8 72 1533.1 77.8 1544.7 89.4C1568 112.7 1568 150.4 1544.7 173.7L1423.2 295.1L1284 434.5Z" fill="#ED1C24"/>
<path opacity="0.5" d="M1545.7 780.5C1522.4 803.8 1484.7 803.8 1461.4 780.5L1339.6 658.7L1423.9 574.4L1545.7 696.2C1569 719.5 1569 757.2 1545.7 780.5Z" fill="#ED1C24"/>
<path opacity="0.5" d="M1086.5 427.2C1094.2 419.5 1094.2 407 1086.5 399.3L1042 354.8L1086.7 310.1C1094.4 302.4 1094.4 289.9 1086.7 282.2C1079 274.5 1066.5 274.5 1058.8 282.2L986.301 354.7L1058.6 427C1066.4 434.9 1078.8 434.9 1086.5 427.2Z" fill="white"/>
<path opacity="0.5" d="M1014.5 555.5C1019 551 1019 543.6 1014.5 539.1L988.2 512.8L1014.6 486.4C1019.1 481.9 1019.1 474.5 1014.6 470C1010.1 465.5 1002.7 465.5 998.2 470L955.4 512.8L998.1 555.5C1002.6 560.1 1009.9 560.1 1014.5 555.5Z" fill="white"/>
</g>
<defs>
<clipPath id="clip0_6823_15154">
<rect width="1600" height="819" fill="white"/>
</clipPath>
</defs>
</svg>
