<svg width="50" height="50" viewBox="0 0 50 50" fill="none" xmlns="http://www.w3.org/2000/svg">
<g id="web-data-extraction-services_web-scraping-services 1" clip-path="url(#clip0_6034_13140)">
<g id="Group">
<path id="Vector" d="M1.09961 6.5H46.7996V39.1C46.7996 40.3 45.7996 41.3 44.5996 41.3H3.29961C2.09961 41.3 1.09961 40.3 1.09961 39.1V6.5Z" fill="#D2D9DC"/>
<path id="Vector_2" d="M41.2992 50C45.4966 50 48.8992 46.5974 48.8992 42.4001C48.8992 38.2027 45.4966 34.8 41.2992 34.8C37.1019 34.8 33.6992 38.2027 33.6992 42.4001C33.6992 46.5974 37.1019 50 41.2992 50Z" fill="#0054A6"/>
<path id="Vector_3" d="M46.6996 2.2V6.5H23.6996C23.0996 6.5 22.5996 6.7 22.1996 7.1L21.2996 8C20.8996 8.4 20.2996 8.6 19.7996 8.6H1.09961V2.2C1.09961 1 2.09961 0 3.29961 0H44.5996C45.7996 0 46.6996 1 46.6996 2.2Z" fill="#002548"/>
<path id="Vector_4" d="M14.1 5.39995C14.7075 5.39995 15.2 4.90746 15.2 4.29995C15.2 3.69244 14.7075 3.19995 14.1 3.19995C13.4925 3.19995 13 3.69244 13 4.29995C13 4.90746 13.4925 5.39995 14.1 5.39995Z" fill="#54CC5A"/>
<path id="Vector_5" d="M9.79922 5.39995C10.4067 5.39995 10.8992 4.90746 10.8992 4.29995C10.8992 3.69244 10.4067 3.19995 9.79922 3.19995C9.19171 3.19995 8.69922 3.69244 8.69922 4.29995C8.69922 4.90746 9.19171 5.39995 9.79922 5.39995Z" fill="#FFDD33"/>
<path id="Vector_6" d="M5.39883 5.39995C6.00634 5.39995 6.49883 4.90746 6.49883 4.29995C6.49883 3.69244 6.00634 3.19995 5.39883 3.19995C4.79131 3.19995 4.29883 3.69244 4.29883 4.29995C4.29883 4.90746 4.79131 5.39995 5.39883 5.39995Z" fill="#ED1C24"/>
<path id="Vector_7" d="M33.7 17.4001L34.8 15.2001H39.8C38.6 12.4001 35.4 11.2001 32.6 12.4001C31.5 12.9001 30.6 13.7001 30.1 14.7001C29.9 15.0001 29.6 15.2001 29.2 15.3001H18.6C18.2 15.3001 17.9 15.1001 17.7 14.7001C16.2 12.1001 12.9 11.2001 10.3 12.7001C9.3 13.3001 8.5 14.2001 8 15.2001H13L14.1 17.4001L13 19.6001H8C9.2 22.4001 12.4 23.6001 15.2 22.4001C16.3 21.9001 17.2 21.1001 17.7 20.1001C17.9 19.8001 18.2 19.6001 18.6 19.5001H29.1C29.5 19.5001 29.8 19.7001 30 20.1001C31.5 22.7001 34.8 23.6001 37.4 22.1001C38.4 21.5001 39.2 20.6001 39.7 19.6001H34.7L33.7 17.4001Z" fill="#5F737C"/>
<path id="Vector_8" d="M39.0996 28.3001H8.69961C8.09961 28.3001 7.59961 27.8001 7.59961 27.2001C7.59961 26.6001 8.09961 26.1001 8.69961 26.1001H39.0996C39.6996 26.1001 40.1996 26.6001 40.1996 27.2001C40.1996 27.8001 39.6996 28.3001 39.0996 28.3001Z" fill="#839299"/>
<path id="Vector_9" d="M39.0996 32.5999H8.69961C8.09961 32.5999 7.59961 32.0999 7.59961 31.4999C7.59961 30.8999 8.09961 30.3999 8.69961 30.3999H39.0996C39.6996 30.3999 40.1996 30.8999 40.1996 31.4999C40.1996 32.0999 39.6996 32.5999 39.0996 32.5999Z" fill="#839299"/>
<path id="Vector_10" d="M28.2996 37H8.69961C8.09961 37 7.59961 36.5001 7.59961 35.9001C7.59961 35.3001 8.09961 34.8 8.69961 34.8H28.2996C28.8996 34.8 29.3996 35.3001 29.3996 35.9001C29.2996 36.5001 28.8996 37 28.2996 37Z" fill="#839299"/>
<path id="Vector_11" d="M46.6992 43.5V41.3H45.3992C45.2992 40.9 45.0992 40.5 44.8992 40.2L45.7992 39.3L44.2992 37.8L43.3992 38.7C43.0992 38.5 42.6992 38.3 42.2992 38.2V37H40.0992V38.2C39.6992 38.3 39.2992 38.5 38.9992 38.7L38.0992 37.8L36.5992 39.3L37.4992 40.2C37.2992 40.5 37.0992 40.9 36.9992 41.3H35.6992V43.5H36.8992C36.9992 43.9 37.1992 44.2 37.3992 44.6L36.4992 45.5L37.9992 47L38.8992 46.1C39.1992 46.3 39.5992 46.5 39.9992 46.6V47.9H42.1992V46.6C42.5992 46.5 42.8992 46.3 43.2992 46.1L44.1992 47L45.6992 45.5L44.9992 44.6C45.1992 44.2 45.3992 43.9 45.4992 43.5H46.6992ZM41.2992 44.6C40.0992 44.6 39.0992 43.6 39.0992 42.4C39.0992 41.2 40.0992 40.2 41.2992 40.2C42.4992 40.2 43.4992 41.2 43.4992 42.4C43.4992 43.6 42.4992 44.6 41.2992 44.6Z" fill="#D2D9DC"/>
</g>
</g>
<defs>
<clipPath id="clip0_6034_13140">
<rect width="50" height="50" fill="white"/>
</clipPath>
</defs>
</svg>
