<svg width="453" height="202" viewBox="0 0 453 202" fill="none" xmlns="http://www.w3.org/2000/svg">
<g clip-path="url(#clip0_14257_83490)">
<path d="M0 10C0 4.47715 4.47715 0 10 0H443C448.523 0 453 4.47715 453 10V202H0V10Z" fill="#F0F0F0"/>
<path d="M133.286 146.245C134.212 145.165 134.984 143.929 135.602 142.694L140.389 141.999L141.161 137.444L136.992 134.973C136.915 133.661 136.606 132.348 136.142 131.036L139.231 127.021L136.606 123.16L131.587 124.396C130.661 123.624 129.734 123.006 128.731 122.465L127.727 117.061L123.094 116.443L120.778 120.844C119.466 120.921 118.153 121.153 116.918 121.616L112.44 118.451L108.734 121.23L110.123 126.094C109.351 127.021 108.656 127.947 108.116 129.028L102.634 130.032L102.017 134.664L106.417 137.058C106.495 138.37 106.726 139.683 107.19 140.995L104.101 145.242L106.803 149.025L111.59 147.712C112.671 148.639 113.829 149.411 114.988 150.029L115.837 154.97L120.469 155.665L122.786 151.573C124.252 151.496 125.642 151.187 127.032 150.723L130.815 153.58L134.598 150.878L133.286 146.245ZM117.535 140.223C115.296 137.907 115.374 134.278 117.69 132.039C120.006 129.8 123.635 129.877 125.874 132.194C128.113 134.51 128.036 138.139 125.719 140.378C123.403 142.617 119.697 142.539 117.535 140.223Z" fill="#839299"/>
<path d="M152.125 165.084C152.665 164.467 153.128 163.694 153.514 162.922L156.371 162.536L156.834 159.834L154.364 158.367C154.287 157.595 154.132 156.746 153.823 156.051L155.676 153.657L154.132 151.341L151.121 152.113C150.581 151.65 150.04 151.264 149.422 150.955L148.805 147.712L146.025 147.326L144.636 149.951C143.863 150.029 143.091 150.183 142.319 150.415L139.694 148.562L137.455 150.183L138.305 153.117C137.841 153.657 137.455 154.275 137.146 154.893L133.826 155.51L133.44 158.29L136.065 159.757C136.143 160.529 136.22 161.301 136.529 162.073L134.676 164.621L136.297 166.86L139.154 166.088C139.771 166.628 140.466 167.092 141.238 167.478L141.702 170.412L144.481 170.798L145.871 168.327C146.72 168.25 147.569 168.095 148.419 167.786L150.735 169.485L152.974 167.864L152.125 165.084ZM142.705 161.455C141.393 160.066 141.47 157.904 142.783 156.591C144.095 155.279 146.334 155.356 147.647 156.669C148.959 158.058 148.882 160.22 147.569 161.533C146.257 162.845 144.018 162.845 142.705 161.455Z" fill="#D2D9DC"/>
<path d="M221.345 138.236V177.534H252.769V138.236H221.345Z" fill="#002548"/>
<path opacity="0.19" d="M221.345 138.236V177.534H252.769V138.236H221.345Z" fill="#F9FAFB"/>
<path d="M177.062 186.007V181.298L194.125 177.592H279.981L296.966 181.298V186.007H177.062Z" fill="#002548"/>
<path d="M336.879 147.57V16.0074L137.143 16.0074L137.143 147.57L336.879 147.57Z" fill="#002548"/>
<path d="M335.03 17.8489H139.076V139.992H335.03V17.8489Z" fill="#839299"/>
<path d="M333.267 138.321V19.5752L140.788 19.5752L140.788 138.321L333.267 138.321Z" fill="#D2D9DC"/>
<path d="M327.245 132.299V25.6746L146.887 25.6746L146.887 132.299L327.245 132.299Z" fill="#F9FAFB"/>
<path d="M310.632 71.9716H245.392C244.002 71.9716 242.921 70.8906 242.921 69.5009V34.9118C242.921 33.5221 244.002 32.4412 245.392 32.4412H310.632C312.022 32.4412 313.103 33.5221 313.103 34.9118V69.5009C313.103 70.8906 311.945 71.9716 310.632 71.9716Z" fill="#0054A6"/>
<path d="M304.842 45.7209H251.877C249.329 45.7209 247.245 43.6363 247.245 41.0884C247.245 38.5405 249.329 36.4559 251.877 36.4559H304.842C307.389 36.4559 309.474 38.5405 309.474 41.0884C309.474 43.6363 307.389 45.7209 304.842 45.7209Z" fill="#F9FAFB"/>
<path d="M255.274 42.401C254.116 43.0958 252.649 42.7098 252.032 41.5517C251.337 40.3936 251.723 38.9266 252.881 38.309C254.039 37.6141 255.506 38.0001 256.124 39.1582C256.818 40.3164 256.432 41.7833 255.274 42.401ZM253.035 38.5406C252.032 39.1582 251.646 40.4708 252.263 41.4745C252.881 42.4782 254.193 42.8642 255.197 42.2465C256.201 41.6289 256.587 40.3164 255.969 39.3127C255.352 38.2317 254.039 37.9229 253.035 38.5406Z" fill="#002548"/>
<path d="M255.356 42.2742L255.156 42.3912L256.365 44.4565L256.565 44.3395L255.356 42.2742Z" fill="#002548"/>
<path d="M279.903 56.5299H251.414C250.333 56.5299 249.406 55.6035 249.406 54.5225C249.406 53.4416 250.333 52.5151 251.414 52.5151H279.903C280.984 52.5151 281.911 53.4416 281.911 54.5225C281.911 55.6035 280.984 56.5299 279.903 56.5299Z" fill="#D2D9DC"/>
<path d="M305.691 65.1H251.491C250.41 65.1 249.483 64.1735 249.483 63.0926C249.483 62.0117 250.41 61.0852 251.491 61.0852H305.691C306.772 61.0852 307.698 62.0117 307.698 63.0926C307.698 64.1735 306.772 65.1 305.691 65.1Z" fill="#D2D9DC"/>
<path d="M227.711 123.392H159.073C157.143 123.392 155.599 121.848 155.599 119.918V34.4486C155.599 32.5184 157.143 30.9742 159.073 30.9742H227.711C229.641 30.9742 231.186 32.5184 231.186 34.4486V119.918C231.108 121.848 229.564 123.392 227.711 123.392Z" fill="#D2D9DC"/>
<path d="M192.582 79.6924H170.114C166.64 79.6924 163.86 76.9129 163.86 73.4386V46.8791C163.86 43.4047 166.64 40.6252 170.114 40.6252H192.582C196.056 40.6252 198.835 43.4047 198.835 46.8791V73.3613C198.835 76.8357 195.979 79.6924 192.582 79.6924Z" fill="white"/>
<path d="M191.346 72.0488C188.335 70.8906 185.479 68.8832 184.552 62.7838C186.868 61.3169 188.49 58.383 188.49 54.9086C188.49 50.0445 185.324 46.1069 181.386 46.1069C177.449 46.1069 174.283 50.0445 174.283 54.9086C174.283 58.383 175.905 61.3169 178.221 62.7838C177.294 68.806 174.438 70.8906 171.427 72.0488C167.798 73.3613 167.875 76.7584 167.875 76.7584H195.052C194.898 76.7584 194.975 73.4385 191.346 72.0488Z" fill="#0054A6"/>
<path d="M218.292 47.4967H205.784C204.78 47.4967 203.931 46.6475 203.931 45.6438C203.931 44.6401 204.78 43.7908 205.784 43.7908H218.292C219.295 43.7908 220.145 44.6401 220.145 45.6438C220.068 46.6475 219.295 47.4967 218.292 47.4967Z" fill="#839299"/>
<path d="M224.777 54.2909H205.784C204.78 54.2909 203.931 53.4417 203.931 52.4379C203.931 51.4342 204.78 50.585 205.784 50.585H224.777C225.781 50.585 226.63 51.4342 226.63 52.4379C226.553 53.4417 225.781 54.2909 224.777 54.2909Z" fill="#839299"/>
<path d="M224.777 61.0852H205.784C204.78 61.0852 203.931 60.236 203.931 59.2323C203.931 58.2286 204.78 57.3793 205.784 57.3793H224.777C225.781 57.3793 226.63 58.2286 226.63 59.2323C226.553 60.236 225.781 61.0852 224.777 61.0852Z" fill="#839299"/>
<path d="M184.629 92.0456H165.636C164.632 92.0456 163.783 91.1963 163.783 90.1926C163.783 89.1889 164.632 88.3396 165.636 88.3396H184.629C185.633 88.3396 186.482 89.1889 186.482 90.1926C186.482 91.2735 185.633 92.0456 184.629 92.0456Z" fill="#F9FAFB"/>
<path d="M197.755 98.8399H165.636C164.632 98.8399 163.783 97.9906 163.783 96.9869C163.783 95.9832 164.632 95.1339 165.636 95.1339H197.755C198.758 95.1339 199.608 95.9832 199.608 96.9869C199.608 98.0678 198.758 98.8399 197.755 98.8399Z" fill="#F9FAFB"/>
<path d="M197.755 112.12H165.636C164.632 112.12 163.783 111.27 163.783 110.267C163.783 109.263 164.632 108.414 165.636 108.414H197.755C198.758 108.414 199.608 109.263 199.608 110.267C199.608 111.348 198.758 112.12 197.755 112.12Z" fill="#F9FAFB"/>
<path d="M176.6 105.634H165.636C164.632 105.634 163.783 104.785 163.783 103.781C163.783 102.778 164.632 101.928 165.636 101.928H176.6C177.603 101.928 178.453 102.778 178.453 103.781C178.453 104.862 177.603 105.634 176.6 105.634Z" fill="#F9FAFB"/>
<path d="M224.623 105.634H211.961C210.957 105.634 210.108 104.785 210.108 103.781C210.108 102.778 210.957 101.928 211.961 101.928H224.623C225.627 101.928 226.476 102.778 226.476 103.781C226.399 104.862 225.627 105.634 224.623 105.634Z" fill="#839299"/>
<path d="M207.174 98.8399H204.24C203.236 98.8399 202.387 97.9906 202.387 96.9869C202.387 95.9832 203.236 95.1339 204.24 95.1339H207.174C208.178 95.1339 209.027 95.9832 209.027 96.9869C208.95 98.0678 208.178 98.8399 207.174 98.8399Z" fill="#839299"/>
<path d="M224.314 98.8399H213.428C212.424 98.8399 211.575 97.9906 211.575 96.9869C211.575 95.9832 212.424 95.1339 213.428 95.1339H224.314C225.318 95.1339 226.167 95.9832 226.167 96.9869C226.167 98.0678 225.318 98.8399 224.314 98.8399Z" fill="#839299"/>
<path d="M286.621 121.076H246.395C244.465 121.076 242.921 119.532 242.921 117.601V82.3174C242.921 80.3872 244.465 78.843 246.395 78.843H286.621C288.551 78.843 290.095 80.3872 290.095 82.3174V117.601C290.095 119.532 288.551 121.076 286.621 121.076Z" fill="#002548"/>
<path d="M272.877 97.6046C273.264 98.4538 273.418 99.3031 273.418 100.307C273.418 104.09 270.407 107.101 266.624 107.101C262.84 107.101 259.829 104.09 259.829 100.307C259.829 96.5237 262.84 93.5125 266.624 93.5125C267.087 93.5125 267.55 93.5898 267.936 93.667L269.403 86.5638C268.477 86.4094 267.55 86.255 266.546 86.255C258.826 86.255 252.495 92.5088 252.495 100.307C252.495 108.028 258.748 114.359 266.546 114.359C274.344 114.359 280.598 108.105 280.598 100.307C280.598 97.9906 280.058 95.8288 279.054 93.8986L272.877 97.6046Z" fill="#FFDD33"/>
<path d="M272.26 83.0895L270.793 90.1926C273.032 90.6558 274.808 92.1228 275.657 94.2074L281.911 90.5014C280.058 86.7182 276.506 83.9388 272.26 83.0895Z" fill="#0054A6"/>
<path d="M301.213 156.746L333.872 129.105C334.798 130.186 336.188 130.727 337.655 130.418L345.762 128.951C347.152 128.719 348.31 127.716 348.773 126.403L352.016 117.37C352.247 116.829 352.093 116.212 351.707 115.748L343.6 122.62C341.979 124.01 339.585 123.778 338.273 122.157L336.111 119.609C334.721 117.987 334.953 115.594 336.574 114.281L344.681 107.41C344.295 106.947 343.677 106.715 343.137 106.869L333.717 108.568C332.328 108.8 331.17 109.803 330.706 111.116L327.927 118.914C327.464 120.226 327.695 121.771 328.622 122.851L328.699 122.929L296.04 150.569C292.488 148.87 288.088 149.334 284.999 152.19C281.216 155.665 280.753 161.533 283.841 165.625C287.316 170.18 293.878 170.875 298.202 167.169C301.213 164.466 302.294 160.374 301.213 156.746ZM289.246 166.242L284.613 160.76L287.007 154.043L294.033 152.808L298.665 158.29L296.272 165.007L289.246 166.242Z" fill="#839299"/>
</g>
<defs>
<clipPath id="clip0_14257_83490">
<path d="M0 10C0 4.47715 4.47715 0 10 0H443C448.523 0 453 4.47715 453 10V202H0V10Z" fill="white"/>
</clipPath>
</defs>
</svg>
