<svg width="58" height="65" viewBox="0 0 58 65" fill="none" xmlns="http://www.w3.org/2000/svg">
<g clip-path="url(#clip0_4038_11833)">
<path d="M28.6897 0.0108643L57.3793 16.2395V48.7075L28.6897 64.9361L0 48.7075V16.2395L28.6897 0.0108643Z" fill="white"/>
<path d="M52.2583 47.5816L29.6421 60.389V50.4289L43.738 42.6664L52.2583 47.5816ZM53.8064 46.185V19.4224L45.5351 24.1968V41.4106L53.8064 46.185ZM5.034 47.5816L27.6501 60.3782V50.418L13.5543 42.6664L5.034 47.5816ZM3.48584 46.185V19.4224L11.7571 24.1968V41.4106L3.48584 46.185ZM4.44938 17.6902L27.6501 4.56873V14.2041L12.7856 22.378L12.6665 22.4429L4.44938 17.6902ZM52.8321 17.6902L29.6421 4.56873V14.2041L44.4958 22.3888L44.6149 22.4537L52.8321 17.6902Z" fill="#8ED6FB"/>
<path d="M27.6505 48.1554L13.7495 40.5012V25.3552L27.6505 33.3775V48.1554ZM29.6425 48.1554L43.5434 40.512V25.3552L29.6425 33.3775V48.1554ZM14.6806 23.6014L28.6465 15.9255L42.6016 23.6014L28.6465 31.6561L14.6806 23.6014Z" fill="#1C78C0"/>
</g>
<defs>
<clipPath id="clip0_4038_11833">
<rect width="57.3793" height="65" fill="white"/>
</clipPath>
</defs>
</svg>
