<svg width="50" height="50" viewBox="0 0 50 50" fill="none" xmlns="http://www.w3.org/2000/svg">
<path d="M45.2746 18.0692V42.9647H4.73047V18.0692C4.73047 15.7508 6.61186 13.8789 8.9303 13.8789H41.0843C43.4028 13.8789 45.2746 15.7508 45.2746 18.0692Z" fill="#5B5E8B"/>
<path d="M45.2765 38.4148V42.9677H4.73242V18.0722C4.73242 16.1529 6.0152 14.5471 7.77301 14.0435C7.64948 14.4331 7.58296 14.8511 7.58296 15.2882V32.9536C7.58296 35.9697 10.028 38.4148 13.0441 38.4148H45.2765Z" fill="#312E4B"/>
<path d="M47.6151 41.1924V41.2301C47.6151 43.7414 45.5792 45.7773 43.0679 45.7773H6.93585C4.42451 45.7773 2.38867 43.7414 2.38867 41.2301V41.1924H18.0614C18.2771 41.1924 18.4779 41.3022 18.5943 41.4838L19.2302 42.4764C19.3466 42.658 19.5474 42.7678 19.7631 42.7678H28.6858C28.9005 42.7678 29.1006 42.659 29.2172 42.4786L29.862 41.4816C29.9786 41.3013 30.1787 41.1924 30.3935 41.1924H47.6151Z" fill="#DEDDFF"/>
<path d="M10.7863 45.7786H6.96659C4.43908 45.7786 2.38672 43.7262 2.38672 41.1987H6.2064C6.2064 43.7262 8.25882 45.7786 10.7863 45.7786Z" fill="#C6C6F7"/>
<path d="M7.58398 36.4916V18.5813C7.58398 17.5567 8.41461 16.7261 9.43924 16.7261H40.5717C41.5963 16.7261 42.427 17.5567 42.427 18.5813V36.4916C42.427 37.5163 41.5963 38.3469 40.5717 38.3469H9.43924C8.41461 38.3469 7.58398 37.5163 7.58398 36.4916Z" fill="#DEDDFF"/>
<path d="M11.0997 38.3484H9.43685C8.41064 38.3484 7.58398 37.5123 7.58398 36.4956V18.5855C7.58398 17.5593 8.41064 16.7231 9.43685 16.7231H11.0997C10.0734 16.7231 9.2468 17.5593 9.2468 18.5855V36.4956C9.2468 37.5218 10.0734 38.3484 11.0997 38.3484Z" fill="#C6C6F7"/>
<path d="M16.0615 19.5557C12.9425 19.5557 10.4141 22.0841 10.4141 25.2031C10.4141 28.322 12.9425 30.8504 16.0615 30.8504C17.0146 30.8504 17.9114 30.612 18.6989 30.1951L16.0615 25.2031V19.5557Z" fill="#46CC6B"/>
<path d="M17.4772 30.6696C17.0249 30.788 16.5512 30.8526 16.0613 30.8526C12.9389 30.8526 10.4141 28.3224 10.4141 25.2054C10.4141 22.0991 12.9174 19.5796 16.0182 19.5581C13.5957 20.1933 11.803 22.4006 11.803 25.0223C11.803 28.1447 14.3332 30.6696 17.4502 30.6696H17.4772Z" fill="#179C5F"/>
<path d="M18.698 30.1956C20.4875 29.2482 21.708 27.3694 21.708 25.2036H16.0605L18.698 30.1956Z" fill="#E83D62"/>
<path d="M16.0605 19.5581V25.2055H21.708C21.708 22.0865 19.1795 19.5581 16.0605 19.5581Z" fill="#FCB73E"/>
<path d="M19.5765 33.185H10.8752C10.6216 33.185 10.416 32.9794 10.416 32.7258C10.416 32.4722 10.6216 32.2666 10.8752 32.2666H19.5765C19.8301 32.2666 20.0357 32.4722 20.0357 32.7258C20.0357 32.9794 19.8301 33.185 19.5765 33.185Z" fill="#C6C6F7"/>
<path d="M16.3057 35.5175H10.8752C10.6216 35.5175 10.416 35.3119 10.416 35.0583C10.416 34.8047 10.6216 34.5991 10.8752 34.5991H16.3057C16.5593 34.5991 16.7649 34.8047 16.7649 35.0583C16.7649 35.3119 16.5593 35.5175 16.3057 35.5175Z" fill="#C6C6F7"/>
<path d="M38.2763 24.5462L38.0143 25.809C37.9706 26.0165 37.7086 26.0965 37.5558 25.9437L37.2573 25.6525L34.9413 28.0083C34.8576 28.0993 34.7193 28.1175 34.6101 28.052L31.1129 26.014L27.6848 29.6205C27.5914 29.7205 27.4196 29.7403 27.2991 29.6277C27.1899 29.5259 27.1862 29.3512 27.2918 29.242L30.8691 25.4827C30.9564 25.3881 31.0947 25.3699 31.2039 25.4318L34.7011 27.4734L36.8679 25.2704L36.5659 24.972C36.413 24.8228 36.4895 24.5608 36.6969 24.5135L37.9488 24.2296C38.1417 24.1823 38.3163 24.3534 38.2763 24.5462Z" fill="#5B5E8B"/>
<path d="M28.766 32.2377V35.043C28.766 35.3052 28.5608 35.5161 28.293 35.5161H26.6801C26.4179 35.5161 26.207 35.3052 26.207 35.043V32.2377C26.207 31.9755 26.4179 31.7646 26.6801 31.7646H28.293C28.5608 31.7646 28.766 31.9755 28.766 32.2377Z" fill="#46CC6B"/>
<path d="M27.4572 35.5167H26.6857C26.42 35.5167 26.209 35.3057 26.209 35.04V32.2368C26.209 31.9748 26.42 31.7637 26.6857 31.7637H27.4572C27.1952 31.7637 26.9841 31.9748 26.9841 32.2368V35.04C26.9841 35.3057 27.1952 35.5167 27.4572 35.5167Z" fill="#179C5F"/>
<path d="M32.3811 29.4055V35.0433C32.3811 35.3055 32.1645 35.5164 31.9023 35.5164H30.2895C30.033 35.5164 29.8164 35.3055 29.8164 35.0433V29.4055C29.8164 29.1433 30.033 28.9268 30.2895 28.9268H31.9023C32.1645 28.9268 32.3811 29.1433 32.3811 29.4055Z" fill="#E83D62"/>
<path d="M31.0646 35.5168H30.2895C30.0275 35.5168 29.8164 35.3058 29.8164 35.0401V29.4069C29.8164 29.1413 30.0275 28.9302 30.2895 28.9302H31.0646C30.8026 28.9302 30.5879 29.1413 30.5879 29.4069V35.0401C30.5879 35.3058 30.8026 35.5168 31.0646 35.5168Z" fill="#CE2955"/>
<path d="M35.9885 30.4706V35.0427C35.9885 35.3049 35.7776 35.5157 35.5154 35.5157H33.9025C33.6404 35.5157 33.4238 35.3049 33.4238 35.0427V30.4706C33.4238 30.2084 33.6404 29.9976 33.9025 29.9976H35.5154C35.7776 29.9976 35.9885 30.2084 35.9885 30.4706Z" fill="#46CC6B"/>
<path d="M34.6721 35.5168H33.9006C33.6385 35.5168 33.4238 35.3057 33.4238 35.0401V30.4718C33.4238 30.2098 33.6385 29.9951 33.9006 29.9951H34.6721C34.41 29.9951 34.199 30.2098 34.199 30.4718V35.0401C34.199 35.3057 34.41 35.5168 34.6721 35.5168Z" fill="#179C5F"/>
<path d="M39.5959 27.3075V35.0427C39.5959 35.3048 39.385 35.5157 39.1172 35.5157H37.51C37.2478 35.5157 37.0312 35.3048 37.0312 35.0427V27.3075C37.0312 27.0453 37.2478 26.8345 37.51 26.8345H39.1172C39.385 26.8345 39.5959 27.0453 39.5959 27.3075Z" fill="#FCB73E"/>
<path d="M38.2834 35.5168H37.5119C37.2462 35.5168 37.0352 35.3057 37.0352 35.0401V27.3107C37.0352 27.0451 37.2462 26.834 37.5119 26.834H38.2834C38.0214 26.834 37.8103 27.0451 37.8103 27.3107V35.0401C37.8103 35.3057 38.0214 35.5168 38.2834 35.5168Z" fill="#FD982E"/>
<path d="M47.4754 12.6603C47.3672 15.3375 45.9795 17.6289 43.9471 19.0105C42.631 19.9094 41.0416 20.4259 39.3532 20.4219C39.2339 20.42 39.1187 20.4695 39.0266 20.5467C37.6182 21.7189 36.0716 21.8469 35.2892 21.8205C35.0938 21.8118 35.004 21.5736 35.1359 21.4317C35.6444 20.8894 36.2553 19.8298 35.5976 19.4851C32.8021 18.0103 31.0155 14.9612 31.3112 11.6096C31.7106 7.08167 35.7748 3.74697 40.3339 4.27711C42.5461 4.53198 44.4885 5.71832 45.7814 7.40175C46.9138 8.87491 47.5618 10.7147 47.4754 12.6603Z" fill="#65B9FF"/>
<path d="M32.9572 11.4172C32.6672 14.7631 34.4489 17.819 37.2458 19.29C37.4427 19.3936 37.567 19.6008 37.5359 19.8183C37.4738 20.243 37.2666 20.7299 36.79 21.2375C36.6554 21.3826 36.7486 21.6208 36.9351 21.6208C36.2721 21.8073 35.6817 21.8384 35.288 21.8176C35.0912 21.8073 35.0083 21.569 35.1326 21.4343C35.6195 20.9164 35.8163 20.4295 35.8785 20.0152C35.9095 19.7976 35.7956 19.5904 35.5988 19.4868C32.8018 18.0055 31.0201 14.9599 31.3101 11.614C31.683 7.43926 35.1637 4.29013 39.2659 4.23828C35.9095 4.9738 33.2784 7.82254 32.9572 11.4172Z" fill="#3E7FFF"/>
<path d="M37.5747 14.974H41.712C41.9203 12.6665 43.674 12.4131 43.6063 9.96902C43.5494 7.91533 41.8573 6.20468 39.8045 6.12333C37.539 6.03353 35.6777 7.83995 35.6777 10.0819C35.6777 12.4924 37.3743 12.6446 37.5747 14.974Z" fill="#FCB73E"/>
<path d="M37.5769 14.9745H38.3617C38.1607 12.6251 36.4651 12.5039 36.4651 10.0812C36.4651 8.027 38.0293 6.33968 40.0353 6.14149C39.9603 6.13077 39.8826 6.12542 39.805 6.12274C37.5391 6.03435 35.6777 7.83951 35.6777 10.0812C35.6777 12.5015 37.3751 12.6313 37.5769 14.9745Z" fill="#FD982E"/>
<path d="M41.0979 9.75342C40.4602 9.75342 39.9414 10.272 39.9414 10.9095V11.5609H39.3439V10.9095C39.3439 10.272 38.8251 9.75342 38.1873 9.75342C37.55 9.75342 37.0312 10.272 37.0312 10.9095C37.0312 11.547 37.55 12.0658 38.1873 12.0658H38.8385V15.1191H39.3439V12.0658H39.9414V15.1191H40.4468V12.0658H41.0979C41.7357 12.0658 42.2545 11.547 42.2545 10.9095C42.2545 10.272 41.7357 9.75342 41.0979 9.75342ZM41.7491 10.9095C41.7491 11.2686 41.4571 11.5609 41.0979 11.5609H40.4468V10.9095C40.4468 10.5504 40.7388 10.2583 41.0979 10.2583C41.4571 10.2583 41.7491 10.5504 41.7491 10.9095ZM38.8385 10.9095V11.5609H38.1873C37.8282 11.5609 37.5366 11.2686 37.5366 10.9095C37.5366 10.5504 37.8282 10.2583 38.1873 10.2583C38.5465 10.2583 38.8385 10.5504 38.8385 10.9095Z" fill="#DEDDFF"/>
<path d="M42.4447 15.6202C42.4447 15.9772 42.1555 16.2664 41.7986 16.2664H37.4934C37.1365 16.2664 36.8438 15.9772 36.8438 15.6202C36.8438 15.2633 37.1365 14.9741 37.4934 14.9741H41.7986C42.1555 14.9741 42.4447 15.2633 42.4447 15.6202Z" fill="#5B5E8B"/>
<path d="M41.9862 16.8266C41.9862 17.1336 41.7363 17.3834 41.4294 17.3834H37.8596C37.5526 17.3834 37.3027 17.1336 37.3027 16.8266C37.3027 16.516 37.5526 16.2661 37.8596 16.2661H41.4294C41.7363 16.2661 41.9862 16.516 41.9862 16.8266Z" fill="#5B5E8B"/>
<path d="M38.3787 16.2675H37.4928C37.1374 16.2675 36.8438 15.9765 36.8438 15.6211C36.8438 15.2631 37.1374 14.9746 37.4928 14.9746H38.3787C38.0207 14.9746 37.7297 15.2631 37.7297 15.6211C37.7297 15.9765 38.0207 16.2675 38.3787 16.2675Z" fill="#312E4B"/>
<path d="M38.7469 17.3823H37.861C37.5545 17.3823 37.3047 17.1324 37.3047 16.826C37.3047 16.5169 37.5545 16.2671 37.861 16.2671H38.7469C38.4405 16.2671 38.1906 16.5169 38.1906 16.826C38.1906 17.1324 38.4405 17.3823 38.7469 17.3823Z" fill="#312E4B"/>
<path d="M40.8889 17.3833V17.6288C40.8889 18.104 40.5031 18.4899 40.0279 18.4899H39.2497C38.7746 18.4899 38.3887 18.104 38.3887 17.6288V17.3833H40.8889Z" fill="#5B5E8B"/>
<path d="M39.4628 17.5811C39.0333 17.5811 38.7424 18.068 38.9914 18.418C39.0031 18.4344 39.0151 18.4483 39.0274 18.4594C38.6591 18.3615 38.3887 18.0267 38.3887 17.6301V17.3828H40.8894V17.5811H39.4628Z" fill="#312E4B"/>
</svg>
