<svg width="162" height="120" viewBox="0 0 162 120" fill="none" xmlns="http://www.w3.org/2000/svg">
<path d="M81.772 46.3271H43.8916V67.6842H81.772V46.3271Z" fill="#0054A6"/>
<path opacity="0.19" d="M57.0754 46.3271H43.8916V67.6842H57.0754V46.3271Z" fill="#2D2F31"/>
<path d="M65.4225 12.5894H40.9473V46.6853H65.4225V12.5894Z" fill="#0054A6"/>
<path opacity="0.19" d="M49.4655 12.5894H40.9473V46.6853H49.4655V12.5894Z" fill="#2D2F31"/>
<path d="M81 120C125.735 120 162 117.875 162 115.254C162 112.632 125.735 110.507 81 110.507C36.2649 110.507 0 112.632 0 115.254C0 117.875 36.2649 120 81 120Z" fill="#D2D9DC"/>
<path d="M73.4262 87.4952H16.7524C14.869 87.4952 13.3379 85.963 13.3379 84.068V8.98978C13.3379 7.09933 14.8645 5.5625 16.7524 5.5625H73.4262C75.3096 5.5625 76.8407 7.0948 76.8407 8.98978V84.068C76.8407 85.963 75.3096 87.4952 73.4262 87.4952Z" fill="#2D2F31"/>
<path d="M72.8838 10.4451H17.2939V82.6173H72.8838V10.4451Z" fill="#D2D9DC"/>
<path d="M49.3973 4.27956C49.3748 1.91311 47.4552 0 45.0886 0C42.7219 0 40.8068 1.91311 40.7797 4.27956H36.7871V11.1296H53.39V4.27956H49.3973ZM45.0886 4.96411C44.2485 4.96411 43.571 4.27956 43.571 3.44088C43.571 2.60219 44.253 1.91764 45.0886 1.91764C45.9241 1.91764 46.6061 2.60219 46.6061 3.44088C46.6061 4.27956 45.9286 4.96411 45.0886 4.96411Z" fill="#FFDD33"/>
<path d="M70.6167 17.9795H32.9893V20.287H70.6167V17.9795Z" fill="#839299"/>
<path d="M70.6167 22.4858H32.9893V24.7934H70.6167V22.4858Z" fill="#839299"/>
<path d="M51.3265 26.9922H32.9893V29.2997H51.3265V26.9922Z" fill="#839299"/>
<path d="M31.4212 29.4672H20.8389V17.8118H31.4212V29.4672ZM21.1731 29.1272H31.0824V18.1518H21.1731V29.1272Z" fill="#839299"/>
<path d="M24.7143 20.0424L27.1939 23.5059L34.032 17.0503L35.2424 18.6234L26.8371 26.6884L23.2148 21.4115L24.7143 20.0424Z" fill="#54CC5A"/>
<path d="M70.6167 32.8447H32.9893V35.1522H70.6167V32.8447Z" fill="#839299"/>
<path d="M70.6167 37.3508H32.9893V39.6583H70.6167V37.3508Z" fill="#839299"/>
<path d="M51.3265 41.8528H32.9893V44.1603H51.3265V41.8528Z" fill="#839299"/>
<path d="M31.4212 44.3281H20.8389V32.6726H31.4212V44.3281ZM21.1731 43.9926H31.0824V33.0126H21.1731V43.9926Z" fill="#839299"/>
<path d="M24.7143 34.9073L27.1939 38.3709L34.032 31.9153L35.2424 33.4884L26.8371 41.5488L23.2148 36.2764L24.7143 34.9073Z" fill="#54CC5A"/>
<path d="M70.6167 47.7053H32.9893V50.0128H70.6167V47.7053Z" fill="#839299"/>
<path d="M70.6167 52.2114H32.9893V54.5189H70.6167V52.2114Z" fill="#839299"/>
<path d="M51.3265 56.7178H32.9893V59.0253H51.3265V56.7178Z" fill="#839299"/>
<path d="M31.4212 59.1931H20.8389V47.5376H31.4212V59.1931ZM21.1731 58.8531H31.0824V47.8731H21.1731V58.8531Z" fill="#839299"/>
<path d="M24.7143 49.7725L27.1939 53.2315L34.032 46.7759L35.2424 48.3535L26.8371 56.414L23.2148 51.137L24.7143 49.7725Z" fill="#54CC5A"/>
<path d="M56.7868 104.264C56.0958 104.264 55.5357 103.702 55.5357 103.009V45.511C55.5357 43.2715 54.8627 41.1136 53.5846 39.273L51.5837 36.3943C51.3172 36.009 51.2856 35.5103 51.5024 35.0932C51.7192 34.6761 52.1483 34.4177 52.6135 34.4177H88.1633C88.5743 34.4177 88.9583 34.6172 89.1931 34.9572L91.194 37.8359C92.7657 40.0981 93.5968 42.7547 93.5968 45.511V102.446C93.5968 103.14 93.0367 103.702 92.3457 103.702C91.6546 103.702 91.0946 103.14 91.0946 102.446V45.511C91.0946 43.2715 90.4216 41.1136 89.1434 39.273L87.5175 36.9338H55.0208L55.6441 37.8359C57.2159 40.0981 58.0469 42.7547 58.0469 45.511V103.009C58.0424 103.702 57.4778 104.264 56.7868 104.264Z" fill="#2D2F31"/>
<path d="M132.326 115.594C134.358 115.594 136.007 113.939 136.007 111.899C136.007 109.858 134.358 108.204 132.326 108.204C130.293 108.204 128.645 109.858 128.645 111.899C128.645 113.939 130.293 115.594 132.326 115.594Z" fill="#839299"/>
<path opacity="0.4" d="M134.164 111.899C134.164 110.879 133.342 110.054 132.326 110.054C131.309 110.054 130.487 110.879 130.487 111.899C130.487 112.919 131.309 113.744 132.326 113.744C133.342 113.744 134.164 112.919 134.164 111.899Z" fill="white"/>
<path d="M131.883 112.719C131.296 112.719 130.772 112.352 130.569 111.794L128.396 105.833H133.283V111.314C133.283 112.094 132.656 112.719 131.883 112.719Z" fill="#839299"/>
<path opacity="0.2" d="M131.883 112.719C131.296 112.719 130.772 112.352 130.569 111.794L128.396 105.833H133.283V111.314C133.283 112.094 132.656 112.719 131.883 112.719Z" fill="white"/>
<path d="M91.3841 115.594C93.4171 115.594 95.0651 113.939 95.0651 111.899C95.0651 109.858 93.4171 108.204 91.3841 108.204C89.3512 108.204 87.7031 109.858 87.7031 111.899C87.7031 113.939 89.3512 115.594 91.3841 115.594Z" fill="#839299"/>
<path opacity="0.4" d="M93.2224 111.899C93.2224 110.879 92.4004 110.054 91.3841 110.054C90.3679 110.054 89.5459 110.879 89.5459 111.899C89.5459 112.919 90.3679 113.744 91.3841 113.744C92.4004 113.744 93.2224 112.919 93.2224 111.899Z" fill="white"/>
<path d="M90.9409 112.719C90.3537 112.719 89.8298 112.352 89.6266 111.794L87.4541 105.833H92.341V111.314C92.341 112.094 91.7132 112.719 90.9409 112.719Z" fill="#839299"/>
<path opacity="0.2" d="M90.9409 112.719C90.3537 112.719 89.8298 112.352 89.6266 111.794L87.4541 105.833H92.341V111.314C92.341 112.094 91.7132 112.719 90.9409 112.719Z" fill="white"/>
<path d="M138.654 101.535V105.026C138.654 105.674 138.125 106.205 137.479 106.205H55.2056C54.5597 106.205 54.0312 105.674 54.0312 105.026V101.535H138.654Z" fill="#839299"/>
<path opacity="0.2" d="M109.409 101.535V105.026C109.409 105.674 108.88 106.205 108.234 106.205H55.2056C54.5597 106.205 54.0312 105.674 54.0312 105.026V101.535H109.409Z" fill="white"/>
<path d="M102.662 115.594C104.695 115.594 106.343 113.939 106.343 111.899C106.343 109.858 104.695 108.204 102.662 108.204C100.629 108.204 98.9814 109.858 98.9814 111.899C98.9814 113.939 100.629 115.594 102.662 115.594Z" fill="#839299"/>
<path opacity="0.6" d="M104.506 111.899C104.506 110.879 103.684 110.054 102.667 110.054C101.651 110.054 100.829 110.879 100.829 111.899C100.829 112.919 101.651 113.744 102.667 113.744C103.679 113.744 104.506 112.919 104.506 111.899Z" fill="white"/>
<path d="M102.219 112.719C101.632 112.719 101.108 112.352 100.905 111.794L98.7324 105.833H103.619V111.314C103.619 112.094 102.992 112.719 102.219 112.719Z" fill="#839299"/>
<path opacity="0.4" d="M102.219 112.719C101.632 112.719 101.108 112.352 100.905 111.794L98.7324 105.833H103.619V111.314C103.619 112.094 102.992 112.719 102.219 112.719Z" fill="white"/>
<path d="M61.7181 115.594C63.7511 115.594 65.3991 113.939 65.3991 111.899C65.3991 109.858 63.7511 108.204 61.7181 108.204C59.6851 108.204 58.0371 109.858 58.0371 111.899C58.0371 113.939 59.6851 115.594 61.7181 115.594Z" fill="#839299"/>
<path opacity="0.6" d="M63.5612 111.899C63.5612 110.879 62.7392 110.054 61.723 110.054C60.7068 110.054 59.8848 110.879 59.8848 111.899C59.8848 112.919 60.7068 113.744 61.723 113.744C62.7347 113.744 63.5612 112.919 63.5612 111.899Z" fill="white"/>
<path d="M61.2758 112.719C60.6887 112.719 60.1648 112.352 59.9615 111.794L57.7891 105.833H62.676V111.314C62.676 112.094 62.0482 112.719 61.2758 112.719Z" fill="#839299"/>
<path opacity="0.4" d="M61.2758 112.719C60.6887 112.719 60.1648 112.352 59.9615 111.794L57.7891 105.833H62.676V111.314C62.676 112.094 62.0482 112.719 61.2758 112.719Z" fill="white"/>
<path d="M103.176 74.4663H64.2207V101.535H103.176V74.4663Z" fill="#007CFF"/>
<path d="M103.176 74.4663H64.2207V101.535H103.176V74.4663Z" fill="#FFBD86"/>
<path opacity="0.2" d="M82.296 74.4663H64.2207V101.535H82.296V74.4663Z" fill="white"/>
<path opacity="0.19" d="M80.5617 99.6812H78.3667C78.1364 99.6812 77.9512 99.4954 77.9512 99.2641V96.2313C77.9512 96.0001 78.1364 95.8142 78.3667 95.8142H80.5617C80.7921 95.8142 80.9773 96.0001 80.9773 96.2313V99.2641C80.9773 99.4954 80.7921 99.6812 80.5617 99.6812Z" fill="#2D2F31"/>
<path opacity="0.19" d="M76.4826 99.6812H74.2876C74.0573 99.6812 73.8721 99.4954 73.8721 99.2641V96.2313C73.8721 96.0001 74.0573 95.8142 74.2876 95.8142H76.4826C76.713 95.8142 76.8982 96.0001 76.8982 96.2313V99.2641C76.8982 99.4954 76.713 99.6812 76.4826 99.6812Z" fill="#2D2F31"/>
<path opacity="0.19" d="M94.8076 74.4663H92.6035V77.2861H94.8076V74.4663Z" fill="#2D2F31"/>
<path opacity="0.19" d="M100.823 86.022H85.6562V89.5626H100.823V86.022Z" fill="#2D2F31"/>
<path opacity="0.19" d="M70.5844 75.8762H65.3994V81.0806H70.5844V75.8762Z" fill="#2D2F31"/>
<path d="M107.156 47.397H68.2002V74.4661H107.156V47.397Z" fill="#007CFF"/>
<path d="M107.156 47.397H68.2002V74.4661H107.156V47.397Z" fill="#FED2A4"/>
<path opacity="0.2" d="M86.2755 47.397H68.2002V74.4661H86.2755V47.397Z" fill="white"/>
<path opacity="0.19" d="M84.5364 72.6119H82.3413C82.111 72.6119 81.9258 72.426 81.9258 72.1948V69.162C81.9258 68.9307 82.111 68.7449 82.3413 68.7449H84.5364C84.7667 68.7449 84.9519 68.9307 84.9519 69.162V72.1948C84.9564 72.426 84.7667 72.6119 84.5364 72.6119Z" fill="#2D2F31"/>
<path opacity="0.19" d="M80.4621 72.6119H78.2671C78.0367 72.6119 77.8516 72.426 77.8516 72.1948V69.162C77.8516 68.9307 78.0367 68.7449 78.2671 68.7449H80.4621C80.6925 68.7449 80.8777 68.9307 80.8777 69.162V72.1948C80.8777 72.426 80.6925 72.6119 80.4621 72.6119Z" fill="#2D2F31"/>
<path opacity="0.19" d="M98.7822 47.397H96.5781V50.2168H98.7822V47.397Z" fill="#2D2F31"/>
<path opacity="0.19" d="M104.802 58.9573H89.6357V62.4979H104.802V58.9573Z" fill="#2D2F31"/>
<path opacity="0.19" d="M74.5649 48.8069H69.3799V54.0113H74.5649V48.8069Z" fill="#2D2F31"/>
<path d="M131.003 47.397H92.0479V74.4661H131.003V47.397Z" fill="#007CFF"/>
<path d="M131.003 47.397H92.0479V74.4661H131.003V47.397Z" fill="#FFBD86"/>
<path opacity="0.2" d="M110.123 47.397H92.0479V74.4661H110.123V47.397Z" fill="white"/>
<path opacity="0.19" d="M108.384 72.6119H106.189C105.959 72.6119 105.773 72.426 105.773 72.1948V69.162C105.773 68.9307 105.959 68.7449 106.189 68.7449H108.384C108.614 68.7449 108.8 68.9307 108.8 69.162V72.1948C108.804 72.426 108.614 72.6119 108.384 72.6119Z" fill="#2D2F31"/>
<path opacity="0.19" d="M104.31 72.6119H102.115C101.884 72.6119 101.699 72.426 101.699 72.1948V69.162C101.699 68.9307 101.884 68.7449 102.115 68.7449H104.31C104.54 68.7449 104.725 68.9307 104.725 69.162V72.1948C104.725 72.426 104.54 72.6119 104.31 72.6119Z" fill="#2D2F31"/>
<path opacity="0.19" d="M122.629 47.397H120.425V50.2168H122.629V47.397Z" fill="#2D2F31"/>
<path opacity="0.19" d="M128.65 58.9573H113.483V62.4979H128.65V58.9573Z" fill="#2D2F31"/>
<path opacity="0.19" d="M98.4106 48.8069H93.2256V54.0113H98.4106V48.8069Z" fill="#2D2F31"/>
<path d="M117.53 20.3325H78.5742V47.4017H117.53V20.3325Z" fill="#FFBD86"/>
<path opacity="0.2" d="M96.6495 20.3325H78.5742V47.4017H96.6495V20.3325Z" fill="white"/>
<path opacity="0.19" d="M94.9114 45.5474H92.7163C92.486 45.5474 92.3008 45.3616 92.3008 45.1304V42.0975C92.3008 41.8663 92.486 41.6804 92.7163 41.6804H94.9114C95.1417 41.6804 95.3269 41.8663 95.3269 42.0975V45.1304C95.3269 45.357 95.1417 45.5474 94.9114 45.5474Z" fill="#2D2F31"/>
<path opacity="0.19" d="M90.8332 45.5474H88.6382C88.4078 45.5474 88.2227 45.3616 88.2227 45.1304V42.0975C88.2227 41.8663 88.4078 41.6804 88.6382 41.6804H90.8332C91.0636 41.6804 91.2488 41.8663 91.2488 42.0975V45.1304C91.2533 45.357 91.0636 45.5474 90.8332 45.5474Z" fill="#2D2F31"/>
<path opacity="0.19" d="M109.156 20.3325H106.952V23.1523H109.156V20.3325Z" fill="#2D2F31"/>
<path opacity="0.19" d="M115.176 31.8882H100.01V35.4288H115.176V31.8882Z" fill="#2D2F31"/>
<path opacity="0.19" d="M84.9389 21.7424H79.7539V26.9468H84.9389V21.7424Z" fill="#2D2F31"/>
<path d="M127.967 74.4663H89.0117V101.535H127.967V74.4663Z" fill="#002548"/>
<path d="M127.967 74.4663H89.0117V101.535H127.967V74.4663Z" fill="#FED2A4"/>
<path opacity="0.2" d="M107.087 74.4663H89.0117V101.535H107.087V74.4663Z" fill="white"/>
<path opacity="0.19" d="M105.354 99.6812H103.159C102.928 99.6812 102.743 99.4954 102.743 99.2641V96.2313C102.743 96.0001 102.928 95.8142 103.159 95.8142H105.354C105.584 95.8142 105.769 96.0001 105.769 96.2313V99.2641C105.769 99.4954 105.58 99.6812 105.354 99.6812Z" fill="#2D2F31"/>
<path opacity="0.19" d="M101.276 99.6812H99.0806C98.8502 99.6812 98.665 99.4954 98.665 99.2641V96.2313C98.665 96.0001 98.8502 95.8142 99.0806 95.8142H101.276C101.506 95.8142 101.691 96.0001 101.691 96.2313V99.2641C101.691 99.4954 101.506 99.6812 101.276 99.6812Z" fill="#2D2F31"/>
<path opacity="0.19" d="M119.599 74.4663H117.395V77.2861H119.599V74.4663Z" fill="#2D2F31"/>
<path opacity="0.19" d="M125.614 86.022H110.447V89.5626H125.614V86.022Z" fill="#2D2F31"/>
<path opacity="0.19" d="M95.3764 75.8762H90.1914V81.0806H95.3764V75.8762Z" fill="#2D2F31"/>
</svg>
