<svg width="334" height="336" viewBox="0 0 334 336" fill="none" xmlns="http://www.w3.org/2000/svg">
<path d="M168.649 154.134H112.296V185.983H168.649V154.134Z" fill="#0054A6"/>
<path opacity="0.19" d="M131.909 154.134H112.296V185.983H131.909V154.134Z" fill="#2D2F31"/>
<path d="M144.326 103.822H107.916V154.668H144.326V103.822Z" fill="#0054A6"/>
<path opacity="0.19" d="M120.588 103.822H107.916V154.668H120.588V103.822Z" fill="#2D2F31"/>
<g opacity="0.3">
<path d="M104.441 205.846H48.0884V256.692H104.441V205.846Z" fill="#0054A6"/>
<path d="M67.7014 205.846H48.0884V256.692H67.7014V205.846Z" fill="#0054A6"/>
</g>
<g opacity="0.3">
<path d="M115.656 156.047H59.3027V206.893H115.656V156.047Z" fill="#0054A6"/>
<path opacity="0.19" d="M78.9157 156.047H59.3027V206.893H78.9157V156.047Z" fill="#2D2F31"/>
</g>
<g opacity="0.3">
<path d="M104.441 105.35H48.0884V156.196H104.441V105.35Z" fill="#0054A6"/>
<path d="M67.7014 105.35H48.0884V156.196H67.7014V105.35Z" fill="#0054A6"/>
</g>
<g opacity="0.3">
<path d="M165.759 205.886H109.406V256.732H165.759V205.886Z" fill="#0054A6"/>
<path opacity="0.19" d="M129.019 205.886H109.406V256.732H129.019V205.886Z" fill="#2D2F31"/>
</g>
<g opacity="0.3">
<path d="M230.841 256.782H287.194V205.936H230.841V256.782Z" fill="#0054A6"/>
<path opacity="0.19" d="M267.583 256.782H287.196V205.936H267.583V256.782Z" fill="#2D2F31"/>
</g>
<g opacity="0.3">
<path d="M219.627 206.979H275.979V165.591H219.627V206.979Z" fill="#0054A6"/>
<path opacity="0.19" d="M256.368 206.979H275.981V165.591H256.368V206.979Z" fill="#2D2F31"/>
</g>
<g opacity="0.3">
<path d="M232.854 165.588H287.198V145.327H232.854V165.588Z" fill="#0054A6"/>
<path opacity="0.19" d="M268.284 165.588H287.198V145.327H268.284V165.588Z" fill="#2D2F31"/>
</g>
<path d="M167.5 264C234.05 264 288 260.831 288 256.922C288 253.012 234.05 249.843 167.5 249.843C100.95 249.843 47 253.012 47 256.922C47 260.831 100.95 264 167.5 264Z" fill="#D2D9DC"/>
<path d="M166.875 93.4513H150.03C148.35 93.4513 146.986 92.0789 146.986 90.3887V75.0625C146.986 73.3724 148.35 72 150.03 72H166.875C168.555 72 169.919 73.3724 169.919 75.0625V90.3887C169.919 92.0789 168.555 93.4513 166.875 93.4513Z" fill="#54CC5A"/>
<path d="M153.498 82.1138L156.77 86.6907L163.415 78.7538" stroke="#F9FAFB" stroke-width="3" stroke-miterlimit="10"/>
<path d="M156.232 215.527H71.9209C69.1191 215.527 66.8413 213.242 66.8413 210.416V98.4541C66.8413 95.635 69.1124 93.3431 71.9209 93.3431H156.232C159.034 93.3431 161.312 95.6282 161.312 98.4541V210.416C161.312 213.235 159.034 215.527 156.232 215.527Z" fill="#2D2F31"/>
<path d="M155.426 100.617H72.7275V208.246H155.426V100.617Z" fill="#D2D9DC"/>
<path d="M120.487 91.4298C120.453 87.9008 117.598 85.0479 114.077 85.0479C110.556 85.0479 107.707 87.9008 107.667 91.4298H101.727V101.645H126.426V91.4298H120.487ZM114.077 92.4507C112.827 92.4507 111.819 91.4298 111.819 90.1791C111.819 88.9284 112.834 87.9076 114.077 87.9076C115.32 87.9076 116.334 88.9284 116.334 90.1791C116.334 91.4298 115.326 92.4507 114.077 92.4507Z" fill="#FFDD33"/>
<path d="M152.053 111.86H96.0762V115.301H152.053V111.86Z" fill="#839299"/>
<path d="M152.053 118.58H96.0762V122.021H152.053V118.58Z" fill="#839299"/>
<path d="M123.356 125.294H96.0762V128.735H123.356V125.294Z" fill="#839299"/>
<path d="M93.7448 128.992H78.002V111.61H93.7448V128.992ZM78.4992 128.484H93.2408V112.11H78.4992V128.484Z" fill="#839299"/>
<path d="M83.7664 114.936L87.4552 120.102L97.6278 110.474L99.4286 112.82L86.9244 124.841L81.5356 116.978L83.7664 114.936Z" fill="#54CC5A"/>
<path d="M152.053 134.028H96.0762V137.469H152.053V134.028Z" fill="#839299"/>
<path d="M152.053 140.741H96.0762V144.182H152.053V140.741Z" fill="#839299"/>
<path d="M123.356 147.461H96.0762V150.903H123.356V147.461Z" fill="#839299"/>
<path d="M93.7448 151.153H78.002V133.771H93.7448V151.153ZM78.4992 150.652H93.2408V134.278H78.4992V150.652Z" fill="#839299"/>
<path d="M83.7664 137.104L87.4552 142.269L97.6278 132.642L99.4286 134.988L86.9244 147.008L81.5356 139.146L83.7664 137.104Z" fill="#54CC5A"/>
<path d="M152.053 156.189H96.0762V159.63H152.053V156.189Z" fill="#839299"/>
<path d="M152.053 162.909H96.0762V166.35H152.053V162.909Z" fill="#839299"/>
<path d="M123.356 169.629H96.0762V173.07H123.356V169.629Z" fill="#839299"/>
<path d="M93.7448 173.321H78.002V155.939H93.7448V173.321ZM78.4992 172.814H93.2408V156.439H78.4992V172.814Z" fill="#839299"/>
<path d="M83.7664 159.265L87.4552 164.43L97.6278 154.803L99.4286 157.149L86.9244 169.176L81.5356 161.307L83.7664 159.265Z" fill="#54CC5A"/>
<path d="M152.053 178.357H96.0762V181.798H152.053V178.357Z" fill="#839299"/>
<path d="M152.053 185.077H96.0762V188.518H152.053V185.077Z" fill="#839299"/>
<path d="M123.356 191.79H96.0762V195.232H123.356V191.79Z" fill="#839299"/>
<path d="M93.7448 195.482H78.002V178.1H93.7448V195.482ZM78.4992 194.981H93.2408V178.607H78.4992V194.981Z" fill="#839299"/>
<path d="M83.7664 181.433L87.4552 186.598L97.6278 176.971L99.4286 179.317L86.9244 191.338L81.5356 183.475L83.7664 181.433Z" fill="#54CC5A"/>
<path d="M131.479 240.534C130.451 240.534 129.618 239.696 129.618 238.661V152.917C129.618 149.577 128.617 146.359 126.715 143.615L123.739 139.322C123.342 138.747 123.295 138.003 123.618 137.381C123.94 136.759 124.578 136.374 125.27 136.374H178.156C178.768 136.374 179.339 136.671 179.688 137.179L182.665 141.471C185.003 144.845 186.239 148.807 186.239 152.917V237.823C186.239 238.857 185.406 239.696 184.378 239.696C183.35 239.696 182.517 238.857 182.517 237.823V152.917C182.517 149.577 181.516 146.359 179.614 143.615L177.196 140.126H128.852L129.779 141.471C132.117 144.845 133.354 148.807 133.354 152.917V238.661C133.347 239.696 132.507 240.534 131.479 240.534Z" fill="#2D2F31"/>
<path d="M243.855 257.422C246.879 257.422 249.331 254.955 249.331 251.912C249.331 248.869 246.879 246.402 243.855 246.402C240.831 246.402 238.379 248.869 238.379 251.912C238.379 254.955 240.831 257.422 243.855 257.422Z" fill="#839299"/>
<path opacity="0.4" d="M246.59 251.912C246.59 250.391 245.368 249.161 243.856 249.161C242.344 249.161 241.121 250.391 241.121 251.912C241.121 253.433 242.344 254.664 243.856 254.664C245.368 254.67 246.59 253.433 246.59 251.912Z" fill="white"/>
<path d="M243.197 253.142C242.324 253.142 241.544 252.595 241.242 251.763L238.01 242.873H245.28V251.047C245.28 252.21 244.346 253.142 243.197 253.142Z" fill="#839299"/>
<path opacity="0.2" d="M243.197 253.142C242.324 253.142 241.544 252.595 241.242 251.763L238.01 242.873H245.28V251.047C245.28 252.21 244.346 253.142 243.197 253.142Z" fill="white"/>
<path d="M182.947 257.422C185.971 257.422 188.423 254.955 188.423 251.912C188.423 248.869 185.971 246.402 182.947 246.402C179.922 246.402 177.471 248.869 177.471 251.912C177.471 254.955 179.922 257.422 182.947 257.422Z" fill="#839299"/>
<path opacity="0.4" d="M185.681 251.912C185.681 250.391 184.458 249.161 182.947 249.161C181.435 249.161 180.212 250.391 180.212 251.912C180.212 253.433 181.435 254.664 182.947 254.664C184.458 254.67 185.681 253.433 185.681 251.912Z" fill="white"/>
<path d="M182.288 253.142C181.415 253.142 180.635 252.595 180.333 251.763L177.101 242.873H184.371V251.047C184.371 252.21 183.437 253.142 182.288 253.142Z" fill="#839299"/>
<path opacity="0.2" d="M182.288 253.142C181.415 253.142 180.635 252.595 180.333 251.763L177.101 242.873H184.371V251.047C184.371 252.21 183.437 253.142 182.288 253.142Z" fill="white"/>
<path d="M253.269 236.464V241.67C253.269 242.637 252.483 243.428 251.522 243.428H129.127C128.167 243.428 127.38 242.637 127.38 241.67V236.464H253.269Z" fill="#839299"/>
<path opacity="0.2" d="M209.763 236.464V241.67C209.763 242.637 208.977 243.428 208.016 243.428H129.127C128.167 243.428 127.38 242.637 127.38 241.67V236.464H209.763Z" fill="white"/>
<path d="M199.724 257.422C202.748 257.422 205.2 254.955 205.2 251.912C205.2 248.869 202.748 246.402 199.724 246.402C196.7 246.402 194.248 248.869 194.248 251.912C194.248 254.955 196.7 257.422 199.724 257.422Z" fill="#839299"/>
<path opacity="0.6" d="M202.466 251.912C202.466 250.391 201.243 249.161 199.731 249.161C198.219 249.161 196.997 250.391 196.997 251.912C196.997 253.433 198.219 254.664 199.731 254.664C201.236 254.67 202.466 253.433 202.466 251.912Z" fill="white"/>
<path d="M199.066 253.142C198.193 253.142 197.413 252.595 197.111 251.763L193.879 242.873H201.149V251.047C201.149 252.21 200.215 253.142 199.066 253.142Z" fill="#839299"/>
<path opacity="0.4" d="M199.066 253.142C198.193 253.142 197.413 252.595 197.111 251.763L193.879 242.873H201.149V251.047C201.149 252.21 200.215 253.142 199.066 253.142Z" fill="white"/>
<path d="M138.816 257.422C141.841 257.422 144.292 254.955 144.292 251.912C144.292 248.869 141.841 246.402 138.816 246.402C135.792 246.402 133.34 248.869 133.34 251.912C133.34 254.955 135.792 257.422 138.816 257.422Z" fill="#839299"/>
<path opacity="0.6" d="M141.558 251.912C141.558 250.391 140.335 249.161 138.823 249.161C137.311 249.161 136.088 250.391 136.088 251.912C136.088 253.433 137.311 254.664 138.823 254.664C140.328 254.67 141.558 253.433 141.558 251.912Z" fill="white"/>
<path d="M138.158 253.142C137.284 253.142 136.505 252.595 136.203 251.763L132.971 242.873H140.241V251.047C140.241 252.21 139.307 253.142 138.158 253.142Z" fill="#839299"/>
<path opacity="0.4" d="M138.158 253.142C137.284 253.142 136.505 252.595 136.203 251.763L132.971 242.873H140.241V251.047C140.241 252.21 139.307 253.142 138.158 253.142Z" fill="white"/>
<path d="M200.491 196.097H142.539V236.464H200.491V196.097Z" fill="#007CFF"/>
<path d="M200.491 196.097H142.539V236.464H200.491V196.097Z" fill="#FFBD86"/>
<path opacity="0.2" d="M169.428 196.097H142.539V236.464H169.428V196.097Z" fill="white"/>
<path opacity="0.19" d="M166.848 233.699H163.583C163.24 233.699 162.964 233.422 162.964 233.077V228.554C162.964 228.21 163.24 227.932 163.583 227.932H166.848C167.191 227.932 167.466 228.21 167.466 228.554V233.077C167.466 233.422 167.191 233.699 166.848 233.699Z" fill="#2D2F31"/>
<path opacity="0.19" d="M160.781 233.699H157.515C157.172 233.699 156.897 233.422 156.897 233.077V228.554C156.897 228.21 157.172 227.932 157.515 227.932H160.781C161.123 227.932 161.399 228.21 161.399 228.554V233.077C161.399 233.422 161.123 233.699 160.781 233.699Z" fill="#2D2F31"/>
<path opacity="0.19" d="M188.04 196.097H184.761V200.302H188.04V196.097Z" fill="#2D2F31"/>
<path opacity="0.19" d="M196.99 213.33H174.428V218.61H196.99V213.33Z" fill="#2D2F31"/>
<path opacity="0.19" d="M152.005 198.199H144.292V205.961H152.005V198.199Z" fill="#2D2F31"/>
<path d="M206.41 155.729H148.458V196.097H206.41V155.729Z" fill="#007CFF"/>
<path d="M206.41 155.729H148.458V196.097H206.41V155.729Z" fill="#FED2A4"/>
<path opacity="0.2" d="M175.348 155.729H148.458V196.097H175.348V155.729Z" fill="white"/>
<path opacity="0.19" d="M172.761 193.332H169.496C169.153 193.332 168.877 193.055 168.877 192.71V188.187C168.877 187.842 169.153 187.565 169.496 187.565H172.761C173.104 187.565 173.379 187.842 173.379 188.187V192.71C173.386 193.055 173.104 193.332 172.761 193.332Z" fill="#2D2F31"/>
<path opacity="0.19" d="M166.701 193.332H163.436C163.093 193.332 162.817 193.055 162.817 192.71V188.187C162.817 187.842 163.093 187.565 163.436 187.565H166.701C167.044 187.565 167.319 187.842 167.319 188.187V192.71C167.319 193.055 167.044 193.332 166.701 193.332Z" fill="#2D2F31"/>
<path opacity="0.19" d="M193.953 155.729H190.674V159.935H193.953V155.729Z" fill="#2D2F31"/>
<path opacity="0.19" d="M202.909 172.962H180.347V178.242H202.909V172.962Z" fill="#2D2F31"/>
<path opacity="0.19" d="M157.925 157.832H150.212V165.593H157.925V157.832Z" fill="#2D2F31"/>
<path d="M241.887 155.729H183.935V196.097H241.887V155.729Z" fill="#007CFF"/>
<path d="M241.887 155.729H183.935V196.097H241.887V155.729Z" fill="#FFBD86"/>
<path opacity="0.2" d="M210.825 155.729H183.935V196.097H210.825V155.729Z" fill="white"/>
<path opacity="0.19" d="M208.238 193.332H204.973C204.63 193.332 204.354 193.055 204.354 192.71V188.187C204.354 187.842 204.63 187.565 204.973 187.565H208.238C208.581 187.565 208.856 187.842 208.856 188.187V192.71C208.863 193.055 208.581 193.332 208.238 193.332Z" fill="#2D2F31"/>
<path opacity="0.19" d="M202.177 193.332H198.912C198.569 193.332 198.293 193.055 198.293 192.71V188.187C198.293 187.842 198.569 187.565 198.912 187.565H202.177C202.52 187.565 202.795 187.842 202.795 188.187V192.71C202.795 193.055 202.52 193.332 202.177 193.332Z" fill="#2D2F31"/>
<path opacity="0.19" d="M229.43 155.729H226.151V159.935H229.43V155.729Z" fill="#2D2F31"/>
<path opacity="0.19" d="M238.386 172.962H215.823V178.242H238.386V172.962Z" fill="#2D2F31"/>
<path opacity="0.19" d="M193.402 157.832H185.688V165.593H193.402V157.832Z" fill="#2D2F31"/>
<path d="M221.844 115.362H163.892V155.73H221.844V115.362Z" fill="#FFBD86"/>
<path opacity="0.2" d="M190.782 115.362H163.892V155.73H190.782V115.362Z" fill="white"/>
<path opacity="0.19" d="M188.195 152.965H184.929C184.587 152.965 184.311 152.687 184.311 152.343V147.82C184.311 147.475 184.587 147.198 184.929 147.198H188.195C188.537 147.198 188.813 147.475 188.813 147.82V152.343C188.813 152.687 188.537 152.965 188.195 152.965Z" fill="#2D2F31"/>
<path opacity="0.19" d="M182.127 152.965H178.861C178.519 152.965 178.243 152.687 178.243 152.343V147.82C178.243 147.475 178.519 147.198 178.861 147.198H182.127C182.469 147.198 182.745 147.475 182.745 147.82V152.343C182.752 152.687 182.469 152.965 182.127 152.965Z" fill="#2D2F31"/>
<path opacity="0.19" d="M209.386 115.362H206.107V119.567H209.386V115.362Z" fill="#2D2F31"/>
<path opacity="0.19" d="M218.343 132.602H195.781V137.882H218.343V132.602Z" fill="#2D2F31"/>
<path opacity="0.19" d="M173.359 117.465H165.646V125.226H173.359V117.465Z" fill="#2D2F31"/>
<path d="M237.372 196.097H179.419V236.464H237.372V196.097Z" fill="#002548"/>
<path d="M237.372 196.097H179.419V236.464H237.372V196.097Z" fill="#FED2A4"/>
<path opacity="0.2" d="M206.309 196.097H179.419V236.464H206.309V196.097Z" fill="white"/>
<path opacity="0.19" d="M203.729 233.699H200.464C200.121 233.699 199.846 233.422 199.846 233.077V228.554C199.846 228.21 200.121 227.932 200.464 227.932H203.729C204.072 227.932 204.347 228.21 204.347 228.554V233.077C204.347 233.422 204.065 233.699 203.729 233.699Z" fill="#2D2F31"/>
<path opacity="0.19" d="M197.662 233.699H194.396C194.054 233.699 193.778 233.422 193.778 233.077V228.554C193.778 228.21 194.054 227.932 194.396 227.932H197.662C198.005 227.932 198.28 228.21 198.28 228.554V233.077C198.28 233.422 198.005 233.699 197.662 233.699Z" fill="#2D2F31"/>
<path opacity="0.19" d="M224.921 196.097H221.643V200.302H224.921V196.097Z" fill="#2D2F31"/>
<path opacity="0.19" d="M233.871 213.33H211.309V218.61H233.871V213.33Z" fill="#2D2F31"/>
<path opacity="0.19" d="M188.887 198.199H181.173V205.961H188.887V198.199Z" fill="#2D2F31"/>
</svg>
