<svg width="449" height="454" viewBox="0 0 449 454" fill="none" xmlns="http://www.w3.org/2000/svg">
<g opacity="0.3">
<path d="M393.303 295.9C402.803 265.2 407.503 232.9 408.003 202C408.503 169.2 405.003 133.8 383.303 109.2C362.103 85.1999 328.003 76.9999 296.003 75.5999C283.003 74.9999 269.803 75.3999 257.503 79.4999C232.603 87.7999 215.203 109.9 193.103 124C150.503 151.4 93.0033 148.1 52.0033 177.9C41.5033 185.6 32.4033 195.2 25.0033 205.8C-4.89668 248.6 -7.19668 307.8 15.6033 354.7C38.4033 401.6 84.2033 435.6 134.803 448.1C185.403 460.6 240.103 452.4 287.003 429.6C341.703 403.2 375.803 352.4 393.303 295.9Z" fill="#0054A6"/>
<path opacity="0.7" d="M393.303 295.9C402.803 265.2 407.503 232.9 408.003 202C408.503 169.2 405.003 133.8 383.303 109.2C362.103 85.1999 328.003 76.9999 296.003 75.5999C283.003 74.9999 269.803 75.3999 257.503 79.4999C232.603 87.7999 215.203 109.9 193.103 124C150.503 151.4 93.0033 148.1 52.0033 177.9C41.5033 185.6 32.4033 195.2 25.0033 205.8C-4.89668 248.6 -7.19668 307.8 15.6033 354.7C38.4033 401.6 84.2033 435.6 134.803 448.1C185.403 460.6 240.103 452.4 287.003 429.6C341.703 403.2 375.803 352.4 393.303 295.9Z" fill="#0054A6"/>
</g>
<path opacity="0.3" d="M88.7004 69.5998C88.7004 69.5998 31.6004 123.7 42.5004 198.7C53.4004 273.8 120.2 331.7 172.8 379.9C225.4 428.1 300 434.8 353.8 397.8C407.6 360.9 378.4 314.2 408.9 247.7C439.4 181.1 459.2 167 442.8 98.1998C426.5 29.2998 328.8 -14.2002 231.5 3.99982C134.3 22.3998 88.7004 69.5998 88.7004 69.5998Z" fill="#0054A6"/>
<path d="M166.396 264.5C166.396 264.5 169.696 279.3 169.496 283.4C169.296 287.5 161.496 298.6 161.296 296.1C161.096 293.6 162.696 289.9 162.696 289.9C162.696 289.9 159.996 293.6 158.996 293.4C157.996 293.2 159.796 288.1 159.796 288.1C159.796 288.1 156.896 291 155.896 290.4C154.896 289.8 157.996 285.5 157.996 285.5C157.996 285.5 154.496 289.2 154.296 288C154.096 286.8 157.396 282 157.396 282C157.396 282 154.096 275 153.896 272.1C153.696 269.2 155.796 266.5 155.796 266.5L166.396 264.5Z" fill="white"/>
<mask id="mask0_11939_16865" style="mask-type:luminance" maskUnits="userSpaceOnUse" x="153" y="264" width="17" height="33">
<path d="M166.396 264.5C166.396 264.5 169.696 279.3 169.496 283.4C169.296 287.5 161.496 298.6 161.296 296.1C161.096 293.6 162.696 289.9 162.696 289.9C162.696 289.9 159.996 293.6 158.996 293.4C157.996 293.2 159.796 288.1 159.796 288.1C159.796 288.1 156.896 291 155.896 290.4C154.896 289.8 157.996 285.5 157.996 285.5C157.996 285.5 154.496 289.2 154.296 288C154.096 286.8 157.396 282 157.396 282C157.396 282 154.096 275 153.896 272.1C153.696 269.2 155.796 266.5 155.796 266.5L166.396 264.5Z" fill="white"/>
</mask>
<g mask="url(#mask0_11939_16865)">
<path d="M166.396 264.5C166.396 264.5 169.696 279.3 169.496 283.4C169.296 287.5 161.496 298.6 161.296 296.1C161.096 293.6 162.696 289.9 162.696 289.9C162.696 289.9 159.996 293.6 158.996 293.4C157.996 293.2 159.796 288.1 159.796 288.1C159.796 288.1 156.896 291 155.896 290.4C154.896 289.8 157.996 285.5 157.996 285.5C157.996 285.5 154.496 289.2 154.296 288C154.096 286.8 157.396 282 157.396 282C157.396 282 154.096 275 153.896 272.1C153.696 269.2 155.796 266.5 155.796 266.5L166.396 264.5Z" fill="#D8D8D8"/>
</g>
<path d="M166.396 264.5C166.396 264.5 169.696 279.3 169.496 283.4C169.296 287.5 161.496 298.6 161.296 296.1C161.096 293.6 162.696 289.9 162.696 289.9C162.696 289.9 159.996 293.6 158.996 293.4C157.996 293.2 159.796 288.1 159.796 288.1C159.796 288.1 156.896 291 155.896 290.4C154.896 289.8 157.996 285.5 157.996 285.5C157.996 285.5 154.496 289.2 154.296 288C154.096 286.8 157.396 282 157.396 282C157.396 282 154.096 275 153.896 272.1C153.696 269.2 155.796 266.5 155.796 266.5L166.396 264.5Z" stroke="#1A2E35" stroke-miterlimit="10" stroke-linecap="round" stroke-linejoin="round"/>
<path d="M165.598 264.5C165.598 264.5 167.898 274.8 167.698 277.7C167.498 280.6 164.598 289.2 162.398 287.6C160.298 286 163.798 280.2 163.798 280.2C163.798 280.2 157.798 276 156.398 272C154.998 268 155.798 266.4 155.798 266.4L165.598 264.5Z" fill="white"/>
<mask id="mask1_11939_16865" style="mask-type:luminance" maskUnits="userSpaceOnUse" x="155" y="264" width="13" height="24">
<path d="M165.598 264.5C165.598 264.5 167.898 274.8 167.698 277.7C167.498 280.6 164.598 289.2 162.398 287.6C160.298 286 163.798 280.2 163.798 280.2C163.798 280.2 157.798 276 156.398 272C154.998 268 155.798 266.4 155.798 266.4L165.598 264.5Z" fill="white"/>
</mask>
<g mask="url(#mask1_11939_16865)">
<path d="M165.598 264.5C165.598 264.5 167.898 274.8 167.698 277.7C167.498 280.6 164.598 289.2 162.398 287.6C160.298 286 163.798 280.2 163.798 280.2C163.798 280.2 157.798 276 156.398 272C154.998 268 155.798 266.4 155.798 266.4L165.598 264.5Z" fill="#D8D8D8"/>
</g>
<path d="M165.598 264.5C165.598 264.5 167.898 274.8 167.698 277.7C167.498 280.6 164.598 289.2 162.398 287.6C160.298 286 163.798 280.2 163.798 280.2C163.798 280.2 157.798 276 156.398 272C154.998 268 155.798 266.4 155.798 266.4L165.598 264.5Z" stroke="#1A2E35" stroke-miterlimit="10" stroke-linecap="round" stroke-linejoin="round"/>
<path d="M158.498 216.1L166.798 265.5L155.098 268.1L143.398 230.1L158.498 216.1Z" fill="#D5E2EF"/>
<path d="M155.097 240.2C155.097 240.2 155.897 299 156.997 314.8C158.097 330.6 153.997 351.7 150.197 357.8C146.397 363.8 129.797 401.5 130.597 403.8C131.397 406.1 134.697 412.8 134.697 414.7C134.697 416.6 134.697 422.6 134.697 422.6C134.697 422.6 153.497 435 155.097 435C156.597 435 158.497 438 154.697 440.3C150.897 442.6 108.697 442.6 106.797 441.1C104.897 439.6 104.197 437 104.197 437C104.197 437 98.1974 439.3 98.4974 433.6C98.8974 427.9 105.697 403.8 105.697 403.8C105.697 403.8 101.597 377.4 103.097 360.4C104.597 343.4 109.897 323.1 109.897 318.9C109.897 314.7 104.597 287.2 103.897 282.7C103.097 278.2 92.1974 265.4 97.0974 255.2C101.997 245 105.797 228.8 107.297 227.7C108.797 226.6 129.197 225.8 137.497 227.7C145.697 229.7 154.697 229.7 155.097 240.2Z" fill="#0054A6"/>
<path d="M117.7 121.7C117.7 121.7 111.3 127.5 110.2 129.5C109.1 131.5 95.5 150.8 95.3 164.6C95.1 178.4 105.3 220.1 105.3 220.1L90 259.2L94.4 261L98.8 256.1V263.4C98.8 263.4 103.9 268.1 117.2 272.5C130.5 276.9 147.6 271.8 147.6 271.8L152.7 239.4V271.4L158.7 267.4L159.1 214.1C159.1 214.1 164 185.5 164 177.5C164 169.5 150.5 144.4 144.5 137.1C138.5 129.8 128.5 123.8 125.6 121.6C122.8 119.3 117.7 121.7 117.7 121.7Z" fill="#0054A6"/>
<mask id="mask2_11939_16865" style="mask-type:luminance" maskUnits="userSpaceOnUse" x="90" y="120" width="74" height="155">
<path d="M117.7 121.7C117.7 121.7 111.3 127.5 110.2 129.5C109.1 131.5 95.5 150.8 95.3 164.6C95.1 178.4 105.3 220.1 105.3 220.1L90 259.2L94.4 261L98.8 256.1V263.4C98.8 263.4 103.9 268.1 117.2 272.5C130.5 276.9 147.6 271.8 147.6 271.8L152.7 239.4V271.4L158.7 267.4L159.1 214.1C159.1 214.1 164 185.5 164 177.5C164 169.5 150.5 144.4 144.5 137.1C138.5 129.8 128.5 123.8 125.6 121.6C122.8 119.3 117.7 121.7 117.7 121.7Z" fill="white"/>
</mask>
<g mask="url(#mask2_11939_16865)">
<path d="M117.7 121.7C117.7 121.7 111.3 127.5 110.2 129.5C109.1 131.5 95.5 150.8 95.3 164.6C95.1 178.4 105.3 220.1 105.3 220.1L90 259.2L94.4 261L98.8 256.1V263.4C98.8 263.4 103.9 268.1 117.2 272.5C130.5 276.9 147.6 271.8 147.6 271.8L152.7 239.4V271.4L158.7 267.4L159.1 214.1C159.1 214.1 164 185.5 164 177.5C164 169.5 150.5 144.4 144.5 137.1C138.5 129.8 128.5 123.8 125.6 121.6C122.8 119.3 117.7 121.7 117.7 121.7Z" fill="#F9FAFB"/>
<path d="M98.7969 169C98.7969 169 106.897 174.7 112.197 176.7" stroke="#1A2E35" stroke-miterlimit="10" stroke-linecap="round" stroke-linejoin="round"/>
<path d="M101.102 175C101.102 175 110.202 177.4 114.902 177.4" stroke="#1A2E35" stroke-miterlimit="10" stroke-linecap="round" stroke-linejoin="round"/>
<path d="M114.203 228.8L139.703 231.8L138.103 237.1L114.503 234.5" stroke="#1A2E35" stroke-miterlimit="10" stroke-linecap="round" stroke-linejoin="round"/>
</g>
<path d="M116.398 123L140.998 149.6L155.398 177.1C155.398 177.1 152.298 156.7 149.598 151.1C146.898 145.5 134.898 131.6 133.598 128.5C132.398 125.5 116.398 123 116.398 123Z" fill="white" stroke="#1A2E35" stroke-miterlimit="10" stroke-linecap="round" stroke-linejoin="round"/>
<path d="M148.597 164.2L155.397 177.2C155.397 177.2 153.297 163.3 150.997 155.3L149.597 151.2C148.497 149 145.997 145.4 143.197 141.7L139.297 140.9L140.897 149.6L145.897 153.7L148.597 164.2Z" fill="#0054A6"/>
<path d="M142.098 133L143.398 134.5L147.398 139.2L149.698 151.2L139.398 141C139.398 141 140.698 134.8 142.098 133Z" fill="#D5E2EF"/>
<path d="M153.702 83.4998C153.702 83.4998 159.102 87.5998 159.802 91.5998C160.502 95.5998 158.502 99.9998 158.702 101.6C158.902 103.2 162.902 106.7 162.702 108.5C162.502 110.3 159.102 110.9 159.102 110.9C159.102 110.9 155.502 124.1 154.602 126.3C153.702 128.5 149.302 127.9 145.902 127.4L139.902 145.2L120.102 121.9L123.202 112.6C123.202 112.6 114.802 102.4 114.102 91.4998C113.402 80.5998 122.102 73.0998 134.502 71.4998C146.902 69.8998 157.402 75.8998 158.702 78.3998C160.102 80.8998 153.702 83.4998 153.702 83.4998Z" fill="white"/>
<mask id="mask3_11939_16865" style="mask-type:luminance" maskUnits="userSpaceOnUse" x="114" y="71" width="49" height="75">
<path d="M153.702 83.4998C153.702 83.4998 159.102 87.5998 159.802 91.5998C160.502 95.5998 158.502 99.9998 158.702 101.6C158.902 103.2 162.902 106.7 162.702 108.5C162.502 110.3 159.102 110.9 159.102 110.9C159.102 110.9 155.502 124.1 154.602 126.3C153.702 128.5 149.302 127.9 145.902 127.4L139.902 145.2L120.102 121.9L123.202 112.6C123.202 112.6 114.802 102.4 114.102 91.4998C113.402 80.5998 122.102 73.0998 134.502 71.4998C146.902 69.8998 157.402 75.8998 158.702 78.3998C160.102 80.8998 153.702 83.4998 153.702 83.4998Z" fill="white"/>
</mask>
<g mask="url(#mask3_11939_16865)">
<path d="M153.702 83.4998C153.702 83.4998 159.102 87.5998 159.802 91.5998C160.502 95.5998 158.502 99.9998 158.702 101.6C158.902 103.2 162.902 106.7 162.702 108.5C162.502 110.3 159.102 110.9 159.102 110.9C159.102 110.9 155.502 124.1 154.602 126.3C153.702 128.5 149.302 127.9 145.902 127.4L139.902 145.2L120.102 121.9L123.202 112.6C123.202 112.6 114.802 102.4 114.102 91.4998C113.402 80.5998 122.102 73.0998 134.502 71.4998C146.902 69.8998 157.402 75.8998 158.702 78.3998C160.102 80.8998 153.702 83.4998 153.702 83.4998Z" fill="#B2CBE3"/>
</g>
<mask id="mask4_11939_16865" style="mask-type:luminance" maskUnits="userSpaceOnUse" x="114" y="71" width="49" height="75">
<path d="M153.702 83.4998C153.702 83.4998 159.102 87.5998 159.802 91.5998C160.502 95.5998 158.502 99.9998 158.702 101.6C158.902 103.2 162.902 106.7 162.702 108.5C162.502 110.3 159.102 110.9 159.102 110.9C159.102 110.9 155.502 124.1 154.602 126.3C153.702 128.5 149.302 127.9 145.902 127.4L139.902 145.2L120.102 121.9L123.202 112.6C123.202 112.6 114.802 102.4 114.102 91.4998C113.402 80.5998 122.102 73.0998 134.502 71.4998C146.902 69.8998 157.402 75.8998 158.702 78.3998C160.102 80.8998 153.702 83.4998 153.702 83.4998Z" fill="white"/>
</mask>
<g mask="url(#mask4_11939_16865)">
<path d="M130.704 134.3C134.004 133.6 139.604 132.5 144.704 131.3L146.004 127.4C148.804 127.8 152.304 128.3 153.904 127.2C150.104 125.6 140.704 122.9 138.804 119.4C136.404 115 144.804 102.3 144.804 95.9997C144.804 89.6997 136.904 82.4997 136.904 82.4997C133.104 78.8997 126.104 77.7997 119.904 77.6997C116.104 81.1997 113.904 85.8997 114.304 91.4997C115.004 102.4 123.404 112.6 123.404 112.6L120.304 121.9L130.704 134.3Z" fill="#8EB3D7"/>
</g>
<path d="M153.702 83.4998C153.702 83.4998 159.102 87.5998 159.802 91.5998C160.502 95.5998 158.502 99.9998 158.702 101.6C158.902 103.2 162.902 106.7 162.702 108.5C162.502 110.3 159.102 110.9 159.102 110.9C159.102 110.9 155.502 124.1 154.602 126.3C153.702 128.5 149.302 127.9 145.902 127.4L139.902 145.2L120.102 121.9L123.202 112.6C123.202 112.6 114.802 102.4 114.102 91.4998C113.402 80.5998 122.102 73.0998 134.502 71.4998C146.902 69.8998 157.402 75.8998 158.702 78.3998C160.102 80.8998 153.702 83.4998 153.702 83.4998Z" stroke="#1A2E35" stroke-miterlimit="10" stroke-linecap="round" stroke-linejoin="round"/>
<path d="M153.703 83.4998C153.703 83.4998 160.103 80.7998 158.803 78.3998C157.503 75.9998 147.003 69.9998 134.603 71.4998C122.203 73.0998 113.503 80.5998 114.203 91.4998C114.903 102.4 123.303 112.6 123.303 112.6L122.803 114C127.403 116.2 132.203 112.6 132.203 112.6C132.203 112.6 129.503 114.2 126.903 111.7C124.203 109.3 124.003 101.5 127.303 100.8C130.603 100.1 132.803 101.5 132.803 103.9C132.803 106.3 133.503 104.8 135.203 104.6C137.003 104.4 135.403 99.0998 136.503 98.1998C137.603 97.2998 139.203 96.5998 141.203 93.9998C143.203 91.2998 137.403 89.0998 136.803 86.6998C136.203 84.2998 153.703 83.4998 153.703 83.4998Z" fill="#002548"/>
<path d="M155.303 100.9L151.203 102.2H154.903" stroke="#1A2E35" stroke-miterlimit="10" stroke-linecap="round" stroke-linejoin="round"/>
<path d="M156.798 96.6997C156.798 96.6997 154.998 94.1997 153.098 95.2997C151.098 96.4997 150.898 97.2997 150.898 97.2997" stroke="#1A2E35" stroke-miterlimit="10" stroke-linecap="round" stroke-linejoin="round"/>
<path d="M152.602 114.6C152.602 114.6 154.202 115.9 156.702 115.5" stroke="#1A2E35" stroke-miterlimit="10" stroke-linecap="round" stroke-linejoin="round"/>
<path d="M119.3 117.7L144.1 142.1L141.9 152.6L115.5 124.1L119.3 117.7Z" fill="#D5E2EF"/>
<path d="M214.802 211.1C214.802 211.1 206.002 205.9 204.602 206.4C203.202 206.9 189.502 216.8 190.402 219.2C191.302 221.6 198.702 224.6 202.902 226.3C207.202 228 215.902 224.4 215.902 224.4L214.802 211.1Z" fill="white" stroke="#1A2E35" stroke-miterlimit="10" stroke-linecap="round" stroke-linejoin="round"/>
<path d="M189.2 209.199C189.2 209.199 196.8 204.899 198 204.899C199.2 204.899 206 210.999 206 210.999L203.2 215.299C203.2 215.299 212.2 219.799 211.2 221.399C210.3 223.099 206.7 225.699 202.9 226.099C199.1 226.599 188.5 219.699 188.5 219.699L189.2 209.199Z" fill="white"/>
<mask id="mask5_11939_16865" style="mask-type:luminance" maskUnits="userSpaceOnUse" x="188" y="204" width="24" height="23">
<path d="M189.2 209.199C189.2 209.199 196.8 204.899 198 204.899C199.2 204.899 206 210.999 206 210.999L203.2 215.299C203.2 215.299 212.2 219.799 211.2 221.399C210.3 223.099 206.7 225.699 202.9 226.099C199.1 226.599 188.5 219.699 188.5 219.699L189.2 209.199Z" fill="white"/>
</mask>
<g mask="url(#mask5_11939_16865)">
<path d="M189.2 209.199C189.2 209.199 196.8 204.899 198 204.899C199.2 204.899 206 210.999 206 210.999L203.2 215.299C203.2 215.299 212.2 219.799 211.2 221.399C210.3 223.099 206.7 225.699 202.9 226.099C199.1 226.599 188.5 219.699 188.5 219.699L189.2 209.199Z" fill="#D8D8D8"/>
</g>
<path d="M189.2 209.199C189.2 209.199 196.8 204.899 198 204.899C199.2 204.899 206 210.999 206 210.999L203.2 215.299C203.2 215.299 212.2 219.799 211.2 221.399C210.3 223.099 206.7 225.699 202.9 226.099C199.1 226.599 188.5 219.699 188.5 219.699L189.2 209.199Z" stroke="#1A2E35" stroke-miterlimit="10" stroke-linecap="round" stroke-linejoin="round"/>
<path d="M183.997 207.3L190.697 208.5L188.497 219.8L182.797 217.9L183.997 207.3Z" fill="white" stroke="#1A2E35" stroke-miterlimit="10" stroke-linecap="round" stroke-linejoin="round"/>
<path d="M107.2 141.3C107.2 141.3 100.8 153.6 100.1 159.7C99.3998 165.8 125.4 214.8 127.3 216.5C129.2 218.2 184.5 219.8 184.5 219.8L186.9 207.7L139.6 194.2L123.5 144.8" fill="#0054A6"/>
<mask id="mask6_11939_16865" style="mask-type:luminance" maskUnits="userSpaceOnUse" x="100" y="141" width="87" height="79">
<path d="M107.2 141.3C107.2 141.3 100.8 153.6 100.1 159.7C99.3998 165.8 125.4 214.8 127.3 216.5C129.2 218.2 184.5 219.8 184.5 219.8L186.9 207.7L139.6 194.2L123.5 144.8" fill="white"/>
</mask>
<g mask="url(#mask6_11939_16865)">
<path d="M107.2 141.3C107.2 141.3 100.8 153.6 100.1 159.7C99.3998 165.8 125.4 214.8 127.3 216.5C129.2 218.2 184.5 219.8 184.5 219.8L186.9 207.7L139.6 194.2L123.5 144.8" fill="#F9FAFB"/>
</g>
<path d="M206.502 207.5C206.502 207.5 203.202 204.7 202.002 208C200.802 211.3 193.502 219.4 196.802 219.6C200.102 219.8 206.302 213 206.302 213" fill="white"/>
<path d="M206.502 207.5C206.502 207.5 203.202 204.7 202.002 208C200.802 211.3 193.502 219.4 196.802 219.6C200.102 219.8 206.302 213 206.302 213" stroke="#1A2E35" stroke-miterlimit="10" stroke-linecap="round" stroke-linejoin="round"/>
<path d="M191.801 220.8C191.801 220.8 190.901 224.8 193.001 226.5C194.401 227.7 195.201 224.4 194.901 222C194.601 219.5 192.501 218.9 191.801 220.8Z" fill="white" stroke="#1A2E35" stroke-miterlimit="10" stroke-linecap="round" stroke-linejoin="round"/>
<path d="M195.098 221.699C195.098 221.699 194.198 225.699 196.298 227.399C197.698 228.599 198.498 225.299 198.198 222.899C197.898 220.499 195.898 219.799 195.098 221.699Z" fill="white" stroke="#1A2E35" stroke-miterlimit="10" stroke-linecap="round" stroke-linejoin="round"/>
<path d="M198.496 223.099C198.496 223.099 197.596 227.099 199.696 228.799C201.096 229.999 201.896 226.699 201.596 224.299C201.196 221.899 199.196 221.299 198.496 223.099Z" fill="white" stroke="#1A2E35" stroke-miterlimit="10" stroke-linecap="round" stroke-linejoin="round"/>
<path d="M201.698 225.1C201.698 225.1 200.898 227.8 202.798 228.9C204.098 229.7 204.898 227.5 204.498 225.9C204.198 224.2 202.398 223.8 201.698 225.1Z" fill="white" stroke="#1A2E35" stroke-miterlimit="10" stroke-linecap="round" stroke-linejoin="round"/>
<path d="M214.797 211.1L215.497 226.2L220.697 224.8L219.497 210.8L214.797 211.1Z" stroke="#1A2E35" stroke-miterlimit="10" stroke-linecap="round" stroke-linejoin="round"/>
<path d="M218.297 209.7L220.697 227.6L260.197 223.4L261.097 200L218.297 209.7Z" fill="#0054A6"/>
<path d="M149.102 281.3C149.102 281.3 141.902 329.2 141.902 345.4C141.902 361.6 131.002 388.8 130.602 403.8" stroke="white" stroke-miterlimit="10" stroke-linecap="round" stroke-linejoin="round"/>
<path d="M106.803 441.2C108.703 442.7 150.903 442.7 154.703 440.4C158.503 438.1 156.603 435.1 155.103 435.1C153.603 435.1 134.703 422.7 134.703 422.7C134.703 422.7 124.503 430.6 118.903 432.5C113.203 434.4 104.203 434.8 104.203 434.8V437.1C104.203 437 105.003 439.7 106.803 441.2Z" fill="white" stroke="#1A2E35" stroke-miterlimit="10" stroke-linecap="round" stroke-linejoin="round"/>
<path d="M154.7 440.4C156.7 439.2 157.1 437.8 156.8 436.7C152.6 437.6 147 438.3 140 438.5C128.6 438.8 110.7 438.1 104.5 437.8C104.9 438.7 105.6 440.1 106.8 441.1C108.7 442.7 151 442.7 154.7 440.4Z" fill="white" stroke="#1A2E35" stroke-miterlimit="10" stroke-linecap="round" stroke-linejoin="round"/>
<path d="M103.101 437.3L104.201 434.7L105.701 403.8C105.701 403.8 98.9014 427.9 98.5014 433.6C98.3014 437.7 101.401 437.7 103.101 437.3Z" fill="#0054A6"/>
<path d="M265.9 271.899C265.9 271.899 262.1 328.099 265.9 350.699C269.7 373.299 279.1 412.499 280.6 417.399C282.1 422.299 281.7 426.399 281.7 426.399L302.8 429.399C302.8 429.399 296.4 355.099 296.4 346.499C296.4 337.799 303.6 272.999 303.6 272.999L265.9 271.899Z" fill="#246CB2"/>
<path d="M281.801 426.5C281.801 426.5 258.801 436.3 256.201 438.2C253.601 440.1 261.901 442.7 272.001 442.7C282.201 442.7 292.401 441.6 292.401 441.6L296.501 439.3L296.901 441.9H307.801C307.801 441.9 309.701 432.9 308.901 430.6C308.101 428.3 307.001 426.1 307.001 426.1L281.801 426.5Z" fill="#194E7F"/>
<path d="M262.5 267.4C262.5 267.4 264.4 321.3 268.9 340.5C273.4 359.7 281.3 406.5 281.3 411.4C281.3 416.3 280.2 419.7 280.2 419.7L278.7 424.6C279.1 426.5 279.8 428 279.8 428C279.8 428 289.6 430.3 296 430.3C302.4 430.3 307.9 428.5 307.9 428.5C307.9 428.5 308.1 416.7 308.5 411.1C308.9 405.4 307 369.3 307 360.6C307 351.9 304.7 347 304.7 336.5C304.7 326 302.8 297.7 303.2 293.1C303.6 288.6 308.9 283.7 310 278C311.1 272.3 312.3 266.3 312.3 266.3L262.5 267.4Z" fill="#4783BE"/>
<path d="M267.102 324.1C267.102 324.1 277.602 397.2 280.302 401.8C282.902 406.4 281.502 411.4 281.502 411.4" stroke="#194E7F" stroke-miterlimit="10"/>
<path d="M253.5 224.8C253.5 224.8 252.1 239.2 252.1 250.2C252.1 256.3 252 264.3 252 270.2C252 275.1 255.4 279.4 260.2 280.4C262.7 280.9 265.4 281.3 267.7 281.3L258.8 226.4C258.9 226.5 254.9 219.7 253.5 224.8Z" fill="#0054A6"/>
<path d="M295.296 126.6C295.296 126.6 299.296 128.7 301.096 130.9C302.996 133.2 305.096 137.1 305.096 137.1C305.096 137.1 321.096 155.6 321.496 157.5C321.896 159.4 312.496 218.8 312.496 218.8L323.196 275C323.196 275 305.896 284.6 292.696 285.2C283.396 285.6 269.396 282.6 261.996 280.8C258.896 280.1 256.696 277.5 256.396 274.3C255.696 266.4 254.296 250.7 253.496 235.7C252.596 218.4 255.196 184.1 257.096 172C258.996 159.9 264.796 143.5 269.396 136.8C273.796 130 286.296 123 295.296 126.6Z" fill="#0054A6"/>
<path d="M305.104 137.1C305.104 137.1 303.004 133.1 301.104 130.9C299.204 128.6 295.304 126.6 295.304 126.6C287.804 123.6 277.904 127.9 272.204 133.4C271.504 135.1 265.504 148.7 262.704 159.8C259.704 171.7 260.104 186.6 260.104 186.6C260.104 186.6 270.104 173.8 283.704 158.7C292.704 148.7 301.204 141.6 305.804 137.9C305.404 137.4 305.104 137.1 305.104 137.1Z" fill="#0054A6"/>
<mask id="mask7_11939_16865" style="mask-type:luminance" maskUnits="userSpaceOnUse" x="260" y="125" width="46" height="62">
<path d="M305.104 137.1C305.104 137.1 303.004 133.1 301.104 130.9C299.204 128.6 295.304 126.6 295.304 126.6C287.804 123.6 277.904 127.9 272.204 133.4C271.504 135.1 265.504 148.7 262.704 159.8C259.704 171.7 260.104 186.6 260.104 186.6C260.104 186.6 270.104 173.8 283.704 158.7C292.704 148.7 301.204 141.6 305.804 137.9C305.404 137.4 305.104 137.1 305.104 137.1Z" fill="white"/>
</mask>
<g mask="url(#mask7_11939_16865)">
<path opacity="0.17" d="M305.104 137.1C305.104 137.1 303.004 133.1 301.104 130.9C299.204 128.6 295.304 126.6 295.304 126.6C287.804 123.6 277.904 127.9 272.204 133.4C271.504 135.1 265.504 148.7 262.704 159.8C259.704 171.7 260.104 186.6 260.104 186.6C260.104 186.6 270.104 173.8 283.704 158.7C292.704 148.7 301.204 141.6 305.804 137.9C305.404 137.4 305.104 137.1 305.104 137.1Z" fill="white"/>
</g>
<path d="M271.003 142.1C271.003 142.1 265.903 158.1 264.403 162.6C262.803 167.1 262.703 174.2 262.703 174.2C262.703 174.2 281.803 145.6 286.403 140.8C291.103 136 297.103 128.5 297.103 128.5L293.003 127.4L271.003 142.1Z" fill="#D5E2EF"/>
<path d="M272.4 136.3C272.4 136.3 270.1 142.9 270.1 143.4C270.1 143.9 269.5 150.2 269.5 150.2L277.6 139.3L272.4 136.3Z" fill="#8EB3D7"/>
<path d="M290.101 265.399C290.101 265.399 287.001 273.199 286.001 275.799C285.101 278.399 285.501 288.399 285.701 289.399C285.801 290.399 287.701 290.699 287.701 290.699C287.701 290.699 288.301 298.699 289.001 298.999C289.701 299.199 291.201 299.299 291.201 299.299C291.201 299.299 292.501 303.399 294.101 302.999C295.701 302.699 296.001 300.799 296.001 300.799C296.001 300.799 297.701 300.999 298.801 299.499C299.801 297.999 300.401 296.399 300.401 296.399C300.401 296.399 303.201 294.999 303.401 293.999C303.601 292.999 304.301 289.199 304.301 289.199C304.301 289.199 305.101 288.999 305.101 286.499C305.101 284.099 303.201 269.099 303.201 269.099L290.101 265.399Z" fill="white" stroke="#1A2E35" stroke-miterlimit="10" stroke-linecap="round" stroke-linejoin="round"/>
<path d="M287.602 290.6L288.002 283.6" stroke="#1A2E35" stroke-miterlimit="10" stroke-linecap="round" stroke-linejoin="round"/>
<path d="M291.102 299.2L291.902 288.8" stroke="#1A2E35" stroke-miterlimit="10" stroke-linecap="round" stroke-linejoin="round"/>
<path d="M295.898 300.699L296.398 289.399" stroke="#1A2E35" stroke-miterlimit="10" stroke-linecap="round" stroke-linejoin="round"/>
<path d="M300.305 296.299L301.005 288.399" stroke="#1A2E35" stroke-miterlimit="10" stroke-linecap="round" stroke-linejoin="round"/>
<path d="M313.098 152.4L321.598 157.5L318.798 216.1L303.698 271.5L289.398 267.7L293.898 224L291.598 179.9C291.598 179.9 294.798 169.6 302.198 164" fill="#0054A6"/>
<path d="M295.6 162.3C295.6 162.3 291.7 172.1 291.5 179.9" stroke="#002548" stroke-miterlimit="10"/>
<path d="M298.798 167C298.798 167 292.198 177.8 292.198 182.6C292.198 187.5 293.898 228.1 293.898 228.1L289.398 263.2" stroke="#002548" stroke-miterlimit="10"/>
<path d="M257.899 87.0997C257.899 87.0997 253.399 99.9997 253.799 101.8C254.199 103.6 254.599 106.5 254.599 106.5C254.599 106.5 247.499 115.3 248.399 116.3C249.199 117.3 253.199 118.4 253.199 118.4C253.199 118.4 256.499 132 257.699 133.2C258.999 134.5 266.899 131.6 266.899 131.6L275.399 142.3L292.799 125.6L290.699 116.8C290.699 116.8 299.899 100.7 299.699 93.0997C299.599 85.4997 283.899 75.2997 272.699 75.3997C261.499 75.4997 251.099 79.5997 253.199 82.5997C255.299 85.5997 257.899 87.0997 257.899 87.0997Z" fill="#B2CBE3"/>
<mask id="mask8_11939_16865" style="mask-type:luminance" maskUnits="userSpaceOnUse" x="248" y="75" width="52" height="68">
<path d="M257.899 87.0997C257.899 87.0997 253.399 99.9997 253.799 101.8C254.199 103.6 254.599 106.5 254.599 106.5C254.599 106.5 247.499 115.3 248.399 116.3C249.199 117.3 253.199 118.4 253.199 118.4C253.199 118.4 256.499 132 257.699 133.2C258.999 134.5 266.899 131.6 266.899 131.6L275.399 142.3L292.799 125.6L290.699 116.8C290.699 116.8 299.899 100.7 299.699 93.0997C299.599 85.4997 283.899 75.2997 272.699 75.3997C261.499 75.4997 251.099 79.5997 253.199 82.5997C255.299 85.5997 257.899 87.0997 257.899 87.0997Z" fill="white"/>
</mask>
<g mask="url(#mask8_11939_16865)">
<path d="M294.198 84.2998C292.098 84.5998 289.998 85.1998 287.898 86.0998L271.198 92.7998C271.198 92.7998 263.298 99.4998 264.098 104.7C264.898 109.9 271.998 117 270.398 122.2C268.798 127.4 258.898 132.9 258.898 132.9L261.998 133C264.398 132.4 266.798 131.6 266.798 131.6L268.098 133.2L284.198 133.8L292.698 125.6L290.598 116.8C290.598 116.8 299.798 100.7 299.598 93.0998C299.698 90.2998 297.498 87.1998 294.198 84.2998Z" fill="#8EB3D7"/>
</g>
<path d="M290.702 116.9C290.702 116.9 299.902 100.8 299.702 93.1998C299.602 85.5998 283.902 75.3998 272.702 75.4998C261.502 75.5998 251.102 79.6997 253.202 82.6997C255.302 85.6997 257.902 87.0998 257.902 87.0998C257.902 87.0998 264.802 90.3997 264.802 91.1997C264.802 91.9998 260.702 96.5998 262.102 98.5998C263.502 100.6 270.302 103 270.302 103C270.302 103 269.202 106.8 270.902 107.2C272.602 107.6 273.402 105.9 274.602 104.8C275.702 103.7 279.702 102.1 280.302 106.9C280.902 111.7 278.302 116.2 277.802 116.7C277.302 117.2 285.002 122.4 288.402 120.8C289.302 120.4 290.302 119.9 291.402 119.3L290.702 116.9Z" fill="#002548"/>
<path d="M256.695 109.999C257.248 109.999 257.695 108.298 257.695 106.199C257.695 104.101 257.248 102.399 256.695 102.399C256.143 102.399 255.695 104.101 255.695 106.199C255.695 108.298 256.143 109.999 256.695 109.999Z" stroke="#1A2E35" stroke-miterlimit="10" stroke-linecap="round" stroke-linejoin="round"/>
<path d="M257.898 104.6L274.598 104.8" stroke="#1A2E35" stroke-miterlimit="10" stroke-linecap="round" stroke-linejoin="round"/>
<path d="M255.102 99.9995C255.102 99.9995 256.702 97.4995 258.302 100.599" stroke="#1A2E35" stroke-miterlimit="10" stroke-linecap="round" stroke-linejoin="round"/>
<path d="M254.797 120.6C254.797 120.6 257.297 119.7 259.497 117.8" stroke="#1A2E35" stroke-miterlimit="10" stroke-linecap="round" stroke-linejoin="round"/>
<path d="M292.898 123L270.898 140.9L274.298 150.8L296.898 127.8L292.898 123Z" fill="#F9FAFB"/>
</svg>
