<svg width="114" height="114" viewBox="0 0 114 114" fill="none" xmlns="http://www.w3.org/2000/svg">
<rect x="0.5" y="0.5" width="113" height="113" stroke="#ED1C24"/>
<path fill-rule="evenodd" clip-rule="evenodd" d="M55.7188 68.1091L73.9788 57.4717L90.8836 86.9401C91.2402 87.5151 90.7409 88.2339 90.099 88.162L78.5438 86.6527L74.0501 97.5057C73.7648 98.1525 72.9802 98.1525 72.6235 97.5775L55.7188 68.1091Z" fill="#ED1C24"/>
<path fill-rule="evenodd" clip-rule="evenodd" d="M40.0237 57.4717L58.2837 68.1091L41.379 97.5775C41.0223 98.1525 40.1664 98.0807 39.9524 97.5057L35.4587 86.6527L23.9035 88.162C23.2616 88.2339 22.7623 87.5151 23.1189 86.9401L40.0237 57.4717Z" fill="#ED1C24"/>
<path fill-rule="evenodd" clip-rule="evenodd" d="M54.2177 16H59.71C61.2079 16 62.4205 17.2219 62.4205 18.7312V21.4624C62.4205 22.6843 63.2764 23.7624 64.4176 24.1218C66.0582 24.6249 67.6987 25.2718 69.1966 26.1343C70.2666 26.7093 71.5505 26.5655 72.4064 25.703L74.3323 23.7624C75.4022 22.6843 77.1141 22.6843 78.184 23.7624L82.107 27.7155C83.177 28.7936 83.177 30.5186 82.107 31.5967L80.1812 33.5373C79.3252 34.3998 79.1826 35.6936 79.7532 36.7717C80.5378 38.281 81.2511 39.8623 81.7504 41.5873C82.107 42.7372 83.177 43.5997 84.3895 43.5997H87.1C88.5979 43.5997 89.8105 44.8216 89.8105 46.331V51.8653C89.8105 53.3746 88.5979 54.5965 87.1 54.5965H84.3895C83.177 54.5965 82.107 55.459 81.7504 56.609C81.2511 58.2621 80.6092 59.9152 79.7532 61.4246C79.1826 62.5027 79.3252 63.7964 80.1812 64.6589L82.107 66.5995C83.177 67.6776 83.177 69.4026 82.107 70.4807L78.184 74.4338C77.1141 75.5119 75.4022 75.5119 74.3323 74.4338L72.4064 72.4932C71.5505 71.6307 70.2666 71.487 69.1966 72.062C67.6987 72.8526 66.1295 73.5713 64.4176 74.0744C63.2764 74.4338 62.4205 75.5119 62.4205 76.7338V79.465C62.4205 80.9744 61.2079 82.1962 59.71 82.1962H54.2177C52.7198 82.1962 51.5072 80.9744 51.5072 79.465V76.7338C51.5072 75.5119 50.6513 74.4338 49.51 74.0744C47.8695 73.5713 46.2289 72.9245 44.731 72.062C43.6611 71.487 42.3772 71.6307 41.5213 72.4932L39.5954 74.4338C38.5255 75.5119 36.8136 75.5119 35.7437 74.4338L31.8206 70.6245C30.7507 69.5464 30.7507 67.8214 31.8206 66.7433L33.7465 64.8027C34.6024 63.9402 34.7451 62.6464 34.1745 61.5683C33.3899 60.059 32.6766 58.4777 32.1773 56.7527C31.8206 55.6027 30.7507 54.7403 29.5381 54.7403H26.8277C25.3298 54.7403 24.1172 53.5184 24.1172 52.009V46.4747C24.1172 44.9653 25.3298 43.7435 26.8277 43.7435H29.5381C30.7507 43.7435 31.8206 42.881 32.1773 41.731C32.6766 40.0779 33.3185 38.4248 34.1745 36.9154C34.7451 35.8373 34.6024 34.5436 33.7465 33.6811L31.8206 31.7405C30.7507 30.6624 30.7507 28.9374 31.8206 27.8593L35.7437 23.978C36.8136 22.8999 38.5255 22.8999 39.5954 23.978L41.5213 25.9187C42.3772 26.7811 43.6611 26.9249 44.731 26.3499C46.2289 25.5593 47.7982 24.8405 49.51 24.3374C50.6513 23.978 51.5072 22.8999 51.5072 21.6781V18.9468C51.5072 17.2219 52.7198 16 54.2177 16Z" fill="#D2D9DC"/>
<path d="M57.0016 66.3839C66.456 66.3839 74.1204 58.6609 74.1204 49.1341C74.1204 39.6073 66.456 31.8843 57.0016 31.8843C47.5471 31.8843 39.8828 39.6073 39.8828 49.1341C39.8828 58.6609 47.5471 66.3839 57.0016 66.3839Z" fill="#F9FAFB"/>
<path fill-rule="evenodd" clip-rule="evenodd" d="M57.2147 37.0592L60.2818 44.3185L68.1279 44.9654C68.3419 44.9654 68.4846 45.2529 68.2706 45.4685L62.3503 50.6434L64.1335 58.334C64.2049 58.5496 63.9196 58.7652 63.7056 58.6215L57.0007 54.5246L50.2959 58.6215C50.0819 58.7652 49.8679 58.5496 49.8679 58.334L51.6511 50.6434L45.7309 45.4685C45.5169 45.3247 45.6595 45.0372 45.8735 44.9654L53.7196 44.3185L56.7867 37.0592C56.8581 36.8436 57.1434 36.8436 57.2147 37.0592Z" fill="#FFDD33"/>
</svg>
