<svg width="114" height="114" viewBox="0 0 114 114" fill="none" xmlns="http://www.w3.org/2000/svg">
<rect x="0.5" y="0.5" width="113" height="113" stroke="#ED1C24"/>
<path d="M36.5 70.6665V77.4998C36.5 79.0104 37.7228 80.2332 39.2333 80.2332H50.1667C51.6772 80.2332 52.9 79.0104 52.9 77.4998V70.6665" fill="#FFDD33"/>
<path d="M44.7 73.4C60.5506 73.4 73.4 60.5506 73.4 44.7C73.4 28.8494 60.5506 16 44.7 16C28.8494 16 16 28.8494 16 44.7C16 60.5506 28.8494 73.4 44.7 73.4Z" fill="#5F737C"/>
<path d="M44.7021 67.9335C57.5335 67.9335 67.9354 57.5315 67.9354 44.7001C67.9354 31.8687 57.5335 21.4668 44.7021 21.4668C31.8707 21.4668 21.4688 31.8687 21.4688 44.7001C21.4688 57.5315 31.8707 67.9335 44.7021 67.9335Z" fill="#F9FAFB"/>
<path d="M59.0862 40.2406C58.7985 39.3775 58.4389 38.5143 58.0073 37.6511C57.7196 37.1476 57.7196 36.5003 58.0792 35.9968L58.5108 35.2055C58.9424 34.5582 58.7985 33.6231 58.2231 33.0476L56.281 31.1775C55.7055 30.602 54.8424 30.5301 54.195 30.8897L53.4038 31.3932C52.9003 31.681 52.2529 31.7529 51.7494 31.4652C50.9582 31.0336 50.0231 30.6739 49.1599 30.3862C48.5845 30.2424 48.1529 29.7389 48.009 29.1634L47.7932 28.2283C47.5775 27.4371 46.9301 26.9336 46.1389 26.9336H43.3336C42.5424 26.9336 41.8231 27.509 41.6792 28.2283L41.4634 29.0915C41.3196 29.6669 40.888 30.1704 40.3125 30.3143C39.4494 30.602 38.5862 30.9617 37.7231 31.3932C37.2196 31.681 36.5722 31.681 36.0687 31.3213L35.2775 30.8897C34.6301 30.4582 33.695 30.602 33.1915 31.1775L31.2494 33.1196C30.6739 33.695 30.602 34.5582 30.9617 35.2055L31.3932 35.9968C31.681 36.5003 31.7529 37.1476 31.4652 37.6511C31.0336 38.5143 30.6739 39.3775 30.3862 40.2406C30.2424 40.816 29.7389 41.2476 29.1634 41.3915L28.2283 41.6073C27.4371 41.8231 26.9336 42.4704 26.9336 43.2617V45.995C26.9336 46.7862 27.509 47.5055 28.2283 47.6494L29.0915 47.8652C29.6669 48.009 30.1704 48.4406 30.3143 49.0161C30.602 49.8792 30.9617 50.7424 31.3932 51.6055C31.681 52.109 31.681 52.7564 31.3213 53.2599L30.8897 54.0511C30.4582 54.6985 30.602 55.6336 31.1775 56.1371L33.1196 58.0792C33.695 58.6546 34.5582 58.7266 35.2775 58.3669L36.0687 57.9353C36.5722 57.6476 37.2196 57.5757 37.7231 57.8634C38.5862 58.295 39.4494 58.6546 40.3125 58.9424C40.888 59.0862 41.3196 59.5897 41.4634 60.1652L41.6792 61.0283C41.895 61.8196 42.5424 62.3231 43.3336 62.3231H46.0669C46.8582 62.3231 47.5775 61.7476 47.7213 61.0283L47.9371 60.1652C48.081 59.5897 48.5125 59.0862 49.088 58.9424C49.9511 58.6546 50.8143 58.295 51.6775 57.8634C52.181 57.5757 52.8283 57.5757 53.3318 57.9353L54.1231 58.3669C54.7704 58.7985 55.7055 58.6546 56.209 58.0792L58.1511 56.1371C58.7266 55.5617 58.7985 54.6985 58.4389 54.0511L58.0073 53.4038C57.7196 52.9003 57.6476 52.2529 57.9353 51.7494C58.3669 50.8862 58.7266 50.0231 59.0143 49.1599C59.1582 48.5845 59.6617 48.1529 60.2371 48.009L61.1003 47.7932C61.8915 47.5775 62.395 46.9301 62.395 46.1389V43.3336C62.395 42.5424 61.8196 41.8231 61.1003 41.6792L60.2371 41.4634C59.6617 41.2476 59.2301 40.816 59.0862 40.2406ZM44.7003 54.2669C39.3775 54.2669 35.1336 49.9511 35.1336 44.7003C35.1336 39.3775 39.4494 35.1336 44.7003 35.1336C49.9511 35.1336 54.2669 39.4494 54.2669 44.7003C54.2669 49.9511 49.9511 54.2669 44.7003 54.2669Z" fill="#0054A6"/>
<path d="M39.2344 80.2334V92.5334C39.2344 95.5545 41.68 98.0001 44.701 98.0001C47.7221 98.0001 50.1677 95.5545 50.1677 92.5334V80.2334" fill="#5F737C"/>
<path d="M55.6328 89.8003H96.6328V98.0003H55.6328V89.8003Z" fill="#0054A6"/>
<path d="M58.3672 89.8V78.8667H66.5672V89.8" fill="#54CC5A"/>
<path d="M72.0312 89.7998V70.6665H80.2313V89.7998" fill="#54CC5A"/>
<path d="M85.6977 89.7999V62.4666H81.5977L89.7977 54.2666L97.9977 62.4666H93.8977V89.7999" fill="#54CC5A"/>
</svg>
