<svg width="114" height="114" viewBox="0 0 114 114" fill="none" xmlns="http://www.w3.org/2000/svg">
<rect x="0.5" y="0.5" width="113" height="113" stroke="#ED1C24"/>
<path d="M57.1464 39.4491C63.6217 39.4491 68.871 34.1999 68.871 27.7246C68.871 21.2493 63.6217 16 57.1464 16C50.6711 16 45.4219 21.2493 45.4219 27.7246C45.4219 34.1999 50.6711 39.4491 57.1464 39.4491Z" fill="#839299"/>
<path d="M63.9785 28.3718V27.0771C63.9785 26.7174 63.6908 26.3578 63.2592 26.3578H62.8995C62.6118 26.3578 62.3241 26.142 62.2522 25.8543C62.1803 25.7104 62.1083 25.5666 62.0364 25.3508C61.8925 25.063 61.9645 24.7753 62.1802 24.5595L62.396 24.3437C62.6838 24.056 62.6838 23.6244 62.396 23.3367L61.461 22.4016C61.1732 22.1139 60.7417 22.1139 60.4539 22.4016L60.2381 22.6174C60.0224 22.8332 59.7346 22.8332 59.4469 22.7613C59.3031 22.6894 59.1592 22.6174 58.9434 22.5455C58.6557 22.4736 58.4399 22.1858 58.4399 21.8981V21.6104C58.4399 21.2508 58.1522 20.8911 57.7206 20.8911H56.4259C56.0662 20.8911 55.7066 21.1788 55.7066 21.6104V21.9701C55.7066 22.2578 55.4908 22.5455 55.2031 22.6174C55.0592 22.6894 54.9153 22.7613 54.6995 22.8332C54.4118 22.9771 54.1241 22.9051 53.9083 22.6894L53.6925 22.4736C53.4048 22.1859 52.9732 22.1859 52.6855 22.4736L51.7504 23.4087C51.4627 23.6964 51.4627 24.128 51.7504 24.4157L51.9662 24.6315C52.182 24.8473 52.182 25.135 52.1101 25.4227C52.0381 25.5666 51.9662 25.7104 51.8943 25.9262C51.8224 26.2139 51.5346 26.4297 51.2469 26.4297H50.8873C50.5276 26.4297 50.168 26.7174 50.168 27.149V28.4437C50.168 28.8034 50.4557 29.163 50.8873 29.163H51.2469C51.5346 29.163 51.8224 29.3788 51.8943 29.6666C51.9662 29.8104 52.0381 29.9543 52.1101 30.1701C52.2539 30.4578 52.182 30.7455 51.9662 30.9613L51.8224 31.1051C51.5346 31.3929 51.5346 31.8244 51.8224 32.1122L52.7574 33.0473C53.0452 33.335 53.4767 33.335 53.7645 33.0473L53.9802 32.8315C54.196 32.6157 54.4838 32.6157 54.7715 32.6876C54.9153 32.7595 55.0592 32.8315 55.275 32.9034C55.5627 32.9753 55.7785 33.263 55.7785 33.5508V33.9104C55.7785 34.2701 56.0662 34.6297 56.4978 34.6297H57.7925C58.1522 34.6297 58.5118 34.342 58.5118 33.9104V33.5508C58.5118 33.263 58.7276 32.9753 59.0153 32.9034C59.1592 32.8315 59.3031 32.7595 59.5188 32.6876C59.8066 32.5437 60.0943 32.6157 60.3101 32.8315L60.5259 33.0473C60.8136 33.335 61.2452 33.335 61.5329 33.0473L62.468 32.1122C62.7557 31.8244 62.7557 31.3929 62.468 31.1051L62.2522 30.8894C62.0364 30.6736 62.0364 30.3858 62.1083 30.0981C62.1802 29.9543 62.2522 29.8104 62.3241 29.5946C62.396 29.3069 62.6838 29.0911 62.9715 29.0911H63.3311C63.6908 29.0911 63.9785 28.8034 63.9785 28.3718ZM57.1452 30.4578C55.4188 30.4578 54.0522 28.8753 54.4838 27.0771C54.6995 26.0701 55.4908 25.2788 56.4978 25.063C58.296 24.6315 59.8785 25.9981 59.8785 27.7244C59.8785 29.235 58.6557 30.4578 57.1452 30.4578Z" fill="#F9FAFB"/>
<path d="M57.1455 98.0001C58.728 98.0001 60.0947 96.7054 60.0947 95.051V80.4492H54.2683V95.051C54.1964 96.6334 55.5631 98.0001 57.1455 98.0001Z" fill="#5F737C"/>
<path d="M54.1953 89.2241H60.0216V92.1732H54.1953V89.2241Z" fill="#FFDD33"/>
<path d="M57.1445 83.3267C68.4664 83.3267 77.6445 74.1485 77.6445 62.8267C77.6445 51.5048 68.4664 42.3267 57.1445 42.3267C45.8227 42.3267 36.6445 51.5048 36.6445 62.8267C36.6445 74.1485 45.8227 83.3267 57.1445 83.3267Z" fill="#5F737C"/>
<path d="M74.6932 62.8261C74.6932 66.7103 73.4704 70.2349 71.3125 73.184C71.0248 73.5437 70.7371 73.9752 70.3774 74.3349C67.1406 78.0752 62.3932 80.4489 57.0704 80.4489C51.6037 80.4489 46.7125 77.9314 43.4757 73.9752C43.116 73.6156 42.8283 73.184 42.5406 72.7524C40.5985 69.9472 39.5195 66.5665 39.5195 62.898C39.5195 53.1875 47.3599 45.3472 57.0704 45.3472C66.8529 45.2752 74.6932 53.1875 74.6932 62.8261Z" fill="#F9FAFB"/>
<path d="M70.4525 74.3351C67.2157 78.0754 62.4683 80.4491 57.1455 80.4491C51.6789 80.4491 46.7876 77.9316 43.5508 73.9754C45.1332 71.4579 47.5789 69.5158 50.528 68.7246C50.9596 68.5807 51.4631 68.5088 51.8946 68.4368C52.4701 68.3649 53.1174 68.293 53.6929 68.293H60.0227C60.5982 68.293 61.2455 68.3649 61.821 68.4368C62.3245 68.5088 62.756 68.5807 63.1876 68.7246C66.3525 69.5158 68.8701 71.6017 70.4525 74.3351Z" fill="#0054A6"/>
<path d="M56.8575 70.0191C61.704 70.0191 65.6329 66.0902 65.6329 61.2437C65.6329 56.3972 61.704 52.4683 56.8575 52.4683C52.0109 52.4683 48.082 56.3972 48.082 61.2437C48.082 66.0902 52.0109 70.0191 56.8575 70.0191Z" fill="#0054A6"/>
<path d="M98.0038 76.7807C95.4862 79.7298 91.674 81.6 87.4301 81.6C83.0424 81.6 79.1582 79.586 76.6406 76.493C77.8634 74.479 79.8775 72.9684 82.1792 72.3211C82.5389 72.2491 82.8985 72.1053 83.2582 72.1053C83.6897 72.0334 84.1933 71.9614 84.6968 71.9614H89.7319C90.2354 71.9614 90.6669 72.0334 91.1704 72.1053C91.5301 72.1772 91.8897 72.2491 92.2494 72.3211C94.7669 72.9684 96.781 74.6228 98.0038 76.7807Z" fill="#ED1C24"/>
<path d="M87.2139 73.2563C91.0275 73.2563 94.1191 70.1647 94.1191 66.3511C94.1191 62.5374 91.0275 59.4458 87.2139 59.4458C83.4002 59.4458 80.3086 62.5374 80.3086 66.3511C80.3086 70.1647 83.4002 73.2563 87.2139 73.2563Z" fill="#ED1C24"/>
<path d="M37.3632 76.7807C34.8456 79.7298 31.0333 81.6 26.7895 81.6C22.4018 81.6 18.5175 79.586 16 76.493C17.2228 74.479 19.2368 72.9684 21.5386 72.3211C21.8982 72.2491 22.2579 72.1053 22.6175 72.1053C23.0491 72.0334 23.5526 71.9614 24.0561 71.9614H29.0912C29.5947 71.9614 30.0263 72.0334 30.5298 72.1053C30.8895 72.1772 31.2491 72.2491 31.6088 72.3211C34.0544 72.9684 36.1404 74.6228 37.3632 76.7807Z" fill="#ED1C24"/>
<path d="M26.5732 73.2558C30.3869 73.2558 33.4785 70.1642 33.4785 66.3506C33.4785 62.5369 30.3869 59.4453 26.5732 59.4453C22.7596 59.4453 19.668 62.5369 19.668 66.3506C19.668 70.1642 22.7596 73.2558 26.5732 73.2558Z" fill="#ED1C24"/>
</svg>
