<svg width="318" height="195" viewBox="0 0 318 195" fill="none" xmlns="http://www.w3.org/2000/svg">
<path d="M149.536 55.2733V86.2957H145.111C146.033 86.2957 146.781 85.6105 146.781 84.7653V70.397C146.781 69.5518 146.033 68.8666 145.111 68.8666H137.969C138.476 68.7556 138.854 68.3406 138.854 67.8424V50.1075C138.854 49.5244 138.338 49.0518 137.702 49.0518H125.952H123.303H111.554C110.917 49.0518 110.402 49.5244 110.402 50.1075V67.8424C110.402 68.3406 110.78 68.7556 111.286 68.8666H103.891C102.968 68.8666 102.221 69.5518 102.221 70.397V84.7653C102.221 85.6105 102.968 86.2957 103.891 86.2957H97.9154C98.9117 86.2957 99.7195 85.5554 99.7195 84.6422V56.8668C99.7195 55.9536 98.9117 55.2133 97.9154 55.2133H79.5143H75.3651H56.9638C55.9675 55.2133 55.1598 55.9536 55.1598 56.8668V84.6421C55.1598 85.5552 55.9675 86.2955 56.9638 86.2955H52.7278V55.2733H49.8242V194.374H52.7278V182.951H149.536V194.374H152.439V55.2733H149.536ZM149.536 180.48H141.234C142.048 180.48 142.708 179.875 142.708 179.129V156.431C142.708 155.684 142.048 155.079 141.234 155.079H126.196H122.805H107.768C106.954 155.079 106.294 155.684 106.294 156.431V179.129C106.294 179.875 106.954 180.48 107.768 180.48H98.3715C99.1456 180.294 99.7196 179.654 99.7196 178.886V151.111C99.7196 150.198 98.9119 149.457 97.9156 149.457H79.5143H75.3651H56.9638C55.9675 149.457 55.1598 150.198 55.1598 151.111V178.886C55.1598 179.654 55.7337 180.294 56.5076 180.48H52.7278V135.858H149.536V180.48ZM118.598 116.195C118.053 116.195 117.612 116.599 117.612 117.099V132.279C117.612 132.607 117.735 133.092 117.973 133.388H108.826C109.498 133.388 110.042 132.889 110.042 132.273V113.603L121.898 116.195H118.598ZM149.536 133.388H141.376C141.708 133.092 141.966 132.607 141.966 132.279V117.099C141.966 116.599 141.525 116.195 140.98 116.195H130.923H130.01L134.597 98.5688C134.753 97.9698 134.349 97.3685 133.696 97.2256L121.625 94.5873L118.904 93.9924L106.833 91.354C106.18 91.2111 105.524 91.5809 105.368 92.1799L100.627 110.399C100.471 110.998 100.875 111.6 101.528 111.742L104.662 112.428H96.4171H93.6189H81.2103C80.5384 112.428 79.9936 112.927 79.9936 113.543V132.273C79.9936 132.889 80.5384 133.388 81.2103 133.388H76.4632C77.0269 133.231 77.4396 132.756 77.4396 132.188V98.6486C77.4396 97.9532 76.8246 97.3893 76.0658 97.3893H68.3746H64.2254H56.5342C55.7753 97.3893 55.1601 97.953 55.1601 98.6486V132.188C55.1601 132.756 55.5731 133.231 56.1365 133.388H52.7278V88.7662H149.536V133.388Z" fill="#B2CBE3"/>
<path d="M267.071 54.6107V85.6331H263.01C263.633 85.6331 264.137 85.1706 264.137 84.6001V67.2488C264.137 66.6783 263.633 66.216 263.01 66.216H251.515H248.923H237.428C236.805 66.216 236.301 66.6785 236.301 67.2488V84.6001C236.301 85.1706 236.805 85.6331 237.428 85.6331H231.118C231.74 85.6331 232.245 85.1706 232.245 84.6001V67.2488C232.245 66.6783 231.741 66.216 231.118 66.216H219.623H217.031H215.529C216.165 66.216 216.681 65.7434 216.681 65.1602V47.4254C216.681 46.8424 216.165 46.3696 215.529 46.3696H203.78H201.131H189.381C188.745 46.3696 188.229 46.8423 188.229 47.4254V65.1602C188.229 65.7434 188.745 66.216 189.381 66.216H187.731H185.139H173.643C173.021 66.216 172.516 66.6785 172.516 67.2488V84.6001C172.516 85.1706 173.021 85.6331 173.643 85.6331H170.263V54.6107H167.359V193.711H170.263V182.288H267.071V193.711H269.975V54.6107H267.071ZM199.226 66.216H205.535C204.913 66.216 204.408 66.6785 204.408 67.2488V84.6001C204.408 85.1706 204.913 85.6331 205.535 85.6331H199.226C199.848 85.6331 200.353 85.1706 200.353 84.6001V67.2488C200.353 66.6785 199.848 66.216 199.226 66.216ZM267.071 88.1036V132.725H262.042C262.714 132.725 263.259 132.226 263.259 131.61V112.88C263.259 112.264 262.714 111.765 262.042 111.765H249.633H246.835H234.427C233.755 111.765 233.21 112.264 233.21 112.88V131.61C233.21 132.226 233.755 132.725 234.427 132.725H228.365C229.123 132.725 229.738 132.161 229.738 131.466V97.9261C229.738 97.2307 229.123 96.6668 228.365 96.6668H220.673H216.524H208.833C208.074 96.6668 207.459 97.2307 207.459 97.9261V131.466C207.459 132.161 208.074 132.725 208.833 132.725H202.559C203.231 132.725 203.775 132.226 203.775 131.61V112.88C203.775 112.264 203.231 111.765 202.559 111.765H190.15H187.352H174.943C174.271 111.765 173.727 112.264 173.727 112.88V131.61C173.727 132.226 174.271 132.725 174.943 132.725H170.263V88.1036H267.071ZM261.047 179.817C261.537 179.817 261.934 179.454 261.934 179.005V165.353C261.934 164.905 261.537 164.541 261.047 164.541H259.518C260.008 164.541 260.405 164.177 260.405 163.728V150.077C260.405 149.628 260.008 149.264 259.518 149.264H250.474H248.435H239.391C238.901 149.264 238.504 149.628 238.504 150.077V162.869H234.344H232.076H222.019C221.474 162.869 221.033 163.274 221.033 163.773V178.954C221.033 179.365 221.333 179.707 221.743 179.817H212.557C213.334 179.817 213.964 179.24 213.964 178.528V144.198C213.964 143.486 213.334 142.908 212.557 142.908H208.629H206.288H187.352H185.011H181.085C180.308 142.908 179.678 143.486 179.678 144.198V178.528C179.678 179.24 180.308 179.817 181.085 179.817H170.263V135.196H267.071V179.817H261.047Z" fill="#B2CBE3"/>
<path fill-rule="evenodd" clip-rule="evenodd" d="M126.322 107.909L128.798 94.9129C128.87 94.5364 129.227 94.2617 129.644 94.2617H139.317C139.85 94.2617 140.254 94.7023 140.162 95.1836L137.686 108.18C137.614 108.557 137.257 108.831 136.84 108.831H127.167C126.634 108.831 126.23 108.391 126.322 107.909Z" fill="#0054A6"/>
<path fill-rule="evenodd" clip-rule="evenodd" d="M136.485 107.755H127.582L130.005 95.0439H138.907L136.485 107.755Z" fill="white"/>
<path fill-rule="evenodd" clip-rule="evenodd" d="M115.467 106.897C115.467 106.897 121.047 106.816 124.03 111.069C127.013 115.322 128.287 116.974 128.287 116.974L123.45 120.943L119.529 116.38L117.939 126.195L116.809 135.913L114.345 135.83L96.3263 135.228L97.7286 119.396L96.3263 123.932L89.9492 122.505L92.4483 112.666C93.253 109.286 96.325 106.867 100.261 106.677H104.211L113.423 106.897H115.467Z" fill="#54CC5A"/>
<path fill-rule="evenodd" clip-rule="evenodd" d="M118.22 145.558C118.339 143.681 118.338 141.8 118.218 139.923L118.309 126.373C116.352 121.688 115.136 117.938 115.295 112.924L115.478 106.712L113.967 106.643L113.318 114.59C113.093 117.218 110.653 119.221 107.777 119.136C105.083 119.057 102.869 117.164 102.594 114.706L101.676 106.486H100.159L100.03 114.969C100.256 119.214 99.2979 123.032 97.1535 126.5C97.1074 126.575 97.0767 126.611 97.0767 126.611L94.8095 139.211C94.4049 141.46 94.1744 143.732 94.1199 146.011L93.0742 190.083H99.4775L106.093 150.753L109.018 190.083H115.421L118.22 145.558Z" fill="#0054A6"/>
<path fill-rule="evenodd" clip-rule="evenodd" d="M115.411 190.083C115.411 190.083 115.359 192.055 117.356 192.458C119.352 192.862 120.171 193.018 120.171 194.644H109.383C108.958 194.644 108.624 194.311 108.659 193.923L109.008 190.083L115.411 190.083Z" fill="#1A2E35"/>
<path fill-rule="evenodd" clip-rule="evenodd" d="M99.466 190.083C99.466 190.083 98.6993 192.121 100.695 192.525C102.692 192.929 103.14 193.588 102.933 194.645H93.4382C93.0128 194.645 92.6783 194.311 92.7135 193.923L93.0626 190.083L99.466 190.083Z" fill="#1A2E35"/>
<path fill-rule="evenodd" clip-rule="evenodd" d="M96.3243 123.933C96.3243 123.933 95.1353 128.221 95.1353 128.335C95.1353 128.449 95.7413 134.002 95.7413 134.002L94.4785 141.306C94.4785 141.306 89.0867 129.174 89.0859 128.437C89.0841 126.183 89.9471 122.505 89.9471 122.505L96.3243 123.933Z" fill="#FCBBAE"/>
<path fill-rule="evenodd" clip-rule="evenodd" d="M139.04 101.096L138.697 102.335C138.697 102.335 137.972 104.481 137.951 104.557C137.93 104.633 137.764 103.892 137.764 103.493C137.764 103.095 138.262 102.031 138.013 101.841C137.764 101.652 136.832 103.284 136.625 103.778C136.418 104.272 136.772 106.368 136.772 106.368L129.548 118.545L128.286 116.974L123.449 120.943L127.847 125.531C128.192 125.89 128.666 126.137 129.185 126.185C130.066 126.268 130.881 125.823 131.233 125.106L139.466 107.467C139.6 107.18 139.699 106.88 139.761 106.573C139.902 105.877 140.15 104.591 140.179 104.025C140.221 103.228 139.04 101.096 139.04 101.096Z" fill="#FCBBAE"/>
<path fill-rule="evenodd" clip-rule="evenodd" d="M107.32 87.752C107.32 87.752 98.983 89.6271 97.588 91.3455C96.193 93.0639 95.8183 97.7136 96.9196 99.9508C97.6445 101.424 99.8099 102.94 101.205 103.804C102.168 104.4 103.331 104.675 104.485 104.548C105.683 104.416 106.991 103.957 107.13 102.599C107.392 100.036 108.29 92.5564 108.29 92.5564L109.208 92.887C109.208 92.887 109.383 90.8397 109.292 89.8752C109.2 88.9105 107.32 87.752 107.32 87.752Z" fill="#1A2E35"/>
<path fill-rule="evenodd" clip-rule="evenodd" d="M110.776 106.834L109.906 102.975L113.135 101.863L111.799 98.1117L113.11 97.1924L110.13 94.5712L107.617 89.9609C107.617 89.9609 108.272 97.2178 106.806 97.2964C105.897 97.3452 104.765 96.9028 104.286 97.8616C103.474 99.4883 106.334 99.9542 106.535 100.583C106.701 101.105 107.605 104.283 104.76 104.493C104.59 104.506 104.984 106.414 105.026 106.55L105.053 106.697L103.609 106.677C103.609 106.677 104.99 107.996 107.546 108.059C110.101 108.122 112.089 106.865 112.089 106.865L110.776 106.834Z" fill="#FCBBAE"/>
<path fill-rule="evenodd" clip-rule="evenodd" d="M109.905 102.975L107.859 103.522L110.191 104.605L109.905 102.975Z" fill="#EAA196"/>
<path d="M108.979 52.0331C119.431 42.4541 119.431 26.9234 108.979 17.3444C98.5278 7.76535 81.5826 7.76535 71.1311 17.3444C60.6796 26.9234 60.6796 42.454 71.1311 52.0331C81.5826 61.6121 98.5278 61.6121 108.979 52.0331Z" fill="#0054A6"/>
<path d="M105.208 38.3285V31.0487H101.714C101.537 30.5974 101.329 30.1576 101.089 29.7303L103.58 27.4474L97.9635 22.2999L95.3999 24.6496C94.9562 24.4546 94.5006 24.2848 94.0341 24.1404V20.8081H86.0915V24.1404C85.625 24.2848 85.1696 24.4546 84.7257 24.6496L82.1621 22.2999L76.5455 27.4474L79.0363 29.7301C78.7969 30.1576 78.5885 30.5974 78.4113 31.0487H74.918V38.3285H78.2615C78.4339 38.8253 78.6439 39.3098 78.8907 39.7805L76.5455 41.9299L82.1622 47.0775L84.4378 44.9915C84.9716 45.2412 85.5245 45.4556 86.0913 45.6324V48.569H94.034V45.6324C94.6005 45.4556 95.154 45.2412 95.6874 44.9915L97.9634 47.0773L103.58 41.9299L101.235 39.7805C101.482 39.3098 101.691 38.8253 101.864 38.3285H105.208ZM85.6242 34.8881C85.6242 32.6451 87.6152 30.8201 90.0627 30.8201C92.5101 30.8201 94.5011 32.6449 94.5011 34.8881C94.5011 37.1312 92.5101 38.9561 90.0627 38.9561C87.6152 38.9563 85.6242 37.1313 85.6242 34.8881Z" fill="white"/>
<path d="M178.706 52.2323C189.157 42.6533 189.157 27.1226 178.706 17.5436C168.254 7.96456 151.309 7.96456 140.858 17.5436C130.406 27.1226 130.406 42.6533 140.858 52.2323C151.309 61.8113 168.254 61.8113 178.706 52.2323Z" fill="#0054A6"/>
<path d="M159.784 19.834C150.834 19.834 143.578 26.4841 143.578 34.6874C143.578 42.8907 150.834 49.5409 159.784 49.5409C168.691 49.5409 175.916 42.9556 175.987 34.8083L159.784 34.6875V19.834Z" fill="white"/>
<path d="M159.781 19.834V34.6874L175.984 34.8081C175.985 34.7676 175.988 34.7278 175.988 34.6874C175.988 26.4841 168.732 19.834 159.781 19.834Z" fill="#0054A6"/>
<path d="M244.682 52.0345C255.134 42.4555 255.134 26.9248 244.682 17.3458C234.231 7.7668 217.286 7.76681 206.834 17.3458C196.383 26.9249 196.383 42.4555 206.834 52.0345C217.286 61.6136 234.231 61.6136 244.682 52.0345Z" fill="#0054A6"/>
<path d="M242.1 42.4981H213.698C209.315 42.4981 205.75 39.2303 205.75 35.2136C205.75 31.1968 209.315 27.929 213.698 27.929C214.004 27.929 214.314 27.9458 214.624 27.9791C216.058 23.7877 220.339 20.8892 225.163 20.8892C227.444 20.8892 229.634 21.5215 231.496 22.7178C233.184 23.8027 234.493 25.2756 235.304 26.9965C235.947 26.7189 236.651 26.5737 237.368 26.5737C240.015 26.5737 242.172 28.5294 242.21 30.9467C245.635 31.001 248.402 33.5708 248.402 36.722C248.402 39.9069 245.575 42.4981 242.1 42.4981Z" fill="white"/>
<path d="M232.915 38.4139L225.77 31.5439L218.625 38.4139H224.093V46.3716H227.447V38.4139H232.915Z" fill="#0054A6"/>
<path d="M59.3618 68.0703H40.2969V85.6398H59.3618V68.0703Z" fill="#0054A6"/>
<path d="M48.666 81.2425L43.4531 75.8033L45.2658 74.5687L48.6057 78.0536L54.9097 71.0293L56.7682 72.2147L48.666 81.2425Z" fill="white"/>
<path d="M59.3618 89.7109H40.2969V107.28H59.3618V89.7109Z" fill="#0054A6"/>
<path d="M48.666 102.883L43.4531 97.4439L45.2658 96.2092L48.6057 99.6941L54.9097 92.6699L56.7682 93.8551L48.666 102.883Z" fill="white"/>
<path d="M59.3618 111.352H40.2969V128.922H59.3618V111.352Z" fill="#0054A6"/>
<path d="M48.6699 124.524L43.457 119.085L45.2697 117.851L48.6096 121.336L54.9136 114.311L56.7721 115.497L48.6699 124.524Z" fill="white"/>
<path d="M59.3618 132.99H40.2969V150.56H59.3618V132.99Z" fill="#0054A6"/>
<path d="M48.666 146.162L43.4531 140.723L45.2658 139.489L48.6057 142.973L54.9097 135.949L56.7682 137.134L48.666 146.162Z" fill="white"/>
<path d="M59.3618 154.632H40.2969V172.201H59.3618V154.632Z" fill="#0054A6"/>
<path d="M48.666 167.802L43.4531 162.362L45.2658 161.128L48.6057 164.613L54.9097 157.588L56.7682 158.774L48.666 167.802Z" fill="white"/>
<path d="M169.418 152.858V166.941C169.418 167.332 169.073 167.648 168.647 167.648H147.943C147.517 167.648 147.172 167.332 147.172 166.941V152.858C147.172 152.468 147.517 152.151 147.943 152.151H168.647C169.073 152.151 169.418 152.468 169.418 152.858Z" fill="#F9D6AF"/>
<path d="M155.736 152.769V167.03C155.736 167.371 155.503 167.648 155.216 167.648H147.765C147.437 167.648 147.172 167.332 147.172 166.941V152.858C147.172 152.468 147.437 152.151 147.765 152.151H155.216C155.503 152.151 155.736 152.427 155.736 152.769Z" fill="#AC8C6D"/>
<path d="M163.32 154.945L162.703 154.642L162.086 154.945V152.151H163.32V154.945Z" fill="#E5BB91"/>
<path d="M169.143 168.865V193.155C169.143 193.829 168.548 194.374 167.813 194.374H132.104C131.369 194.374 130.773 193.829 130.773 193.155V168.865C130.773 168.192 131.369 167.646 132.104 167.646H167.813C168.548 167.646 169.143 168.192 169.143 168.865Z" fill="#E5BB91"/>
<path d="M145.544 168.712V193.309C145.544 193.897 145.143 194.374 144.649 194.374H131.797C131.232 194.374 130.773 193.828 130.773 193.155V168.865C130.773 168.192 131.232 167.646 131.797 167.646H144.649C145.143 167.646 145.544 168.124 145.544 168.712Z" fill="#AC8C6D"/>
<path d="M158.629 172.465L157.565 171.943L156.5 172.465V167.647H158.629V172.465Z" fill="#AC8C6D"/>
<path d="M199.131 141.637V193.268C199.131 193.879 198.59 194.375 197.923 194.375H167.439C166.771 194.375 166.23 193.879 166.23 193.268V141.637C166.23 141.025 166.771 140.53 167.439 140.53H197.923C198.59 140.53 199.131 141.025 199.131 141.637Z" fill="#F9D6AF"/>
<path d="M180.265 141.99V192.914C180.265 193.721 179.552 194.375 178.672 194.375H167.439C166.771 194.375 166.23 193.879 166.23 193.268V141.637C166.23 141.026 166.772 140.53 167.439 140.53H178.672C179.552 140.53 180.265 141.184 180.265 141.99Z" fill="#AC8C6D"/>
<path d="M191.314 145.327L189.991 144.8L188.668 145.327V140.53H191.314V145.327Z" fill="#E5BB91"/>
<g opacity="0.4">
<path d="M166.228 194.375H144.203L149.944 176.218C150.1 175.725 150.591 175.385 151.151 175.383L166.228 175.335L166.228 194.375Z" fill="#AC8C6D"/>
</g>
<path d="M196.889 194.375H170.027L181.337 169.028C181.594 168.454 182.204 168.078 182.881 168.078H196.889V194.375Z" fill="#E5BB91"/>
<path d="M219.666 170.361V193.226C219.666 193.86 219.106 194.373 218.414 194.373H184.8C184.108 194.373 183.547 193.86 183.547 193.226V170.361C183.547 169.727 184.108 169.213 184.8 169.213H218.414C219.106 169.214 219.666 169.727 219.666 170.361Z" fill="#E5BB91"/>
<path d="M197.451 170.216V193.37C197.451 193.924 197.074 194.373 196.608 194.373H184.511C183.978 194.373 183.547 193.86 183.547 193.226V170.361C183.547 169.727 183.978 169.213 184.511 169.213H196.608C197.074 169.214 197.451 169.662 197.451 170.216Z" fill="#AC8C6D"/>
<path d="M209.766 173.748L208.764 173.257L207.762 173.748V169.213H209.766V173.748Z" fill="#AC8C6D"/>
<path d="M176.839 176.997V193.544C176.839 194.003 176.433 194.375 175.933 194.375H151.606C151.105 194.375 150.699 194.003 150.699 193.544V176.997C150.699 176.538 151.105 176.167 151.606 176.167H175.933C176.433 176.167 176.839 176.538 176.839 176.997Z" fill="#F9D6AF"/>
<path d="M160.762 176.892V193.649C160.762 194.05 160.489 194.375 160.152 194.375H151.397C151.011 194.375 150.699 194.003 150.699 193.544V176.997C150.699 176.538 151.012 176.167 151.397 176.167H160.152C160.489 176.167 160.762 176.491 160.762 176.892Z" fill="#AC8C6D"/>
<path d="M169.677 179.448L168.952 179.093L168.227 179.448V176.167H169.677V179.448Z" fill="#E5BB91"/>
<path d="M176.839 183.911H167.136C166.729 183.911 166.375 184.168 166.282 184.531L163.77 194.375H176.839V183.911Z" fill="#E5BB91"/>
<path d="M188.194 185.045V193.928C188.194 194.175 187.87 194.374 187.47 194.374H168.037C167.637 194.374 167.312 194.175 167.312 193.928V185.045C167.312 184.799 167.637 184.6 168.037 184.6H187.47C187.87 184.6 188.194 184.799 188.194 185.045Z" fill="#F9D6AF"/>
<path d="M175.351 184.989V193.985C175.351 194.2 175.133 194.374 174.864 194.374H167.87C167.562 194.374 167.312 194.174 167.312 193.928V185.045C167.312 184.799 167.562 184.6 167.87 184.6H174.864C175.133 184.6 175.351 184.774 175.351 184.989Z" fill="#AC8C6D"/>
<path d="M182.471 186.361L181.892 186.171L181.312 186.361V184.6H182.471V186.361Z" fill="#E5BB91"/>
<path d="M216.415 151.742V168.38C216.415 168.841 216.007 169.215 215.504 169.215H191.044C190.541 169.215 190.133 168.841 190.133 168.38V151.742C190.133 151.28 190.541 150.907 191.044 150.907H215.504C216.007 150.907 216.415 151.28 216.415 151.742Z" fill="#F9D6AF"/>
<path d="M200.25 151.637V168.485C200.25 168.887 199.975 169.215 199.636 169.215H190.833C190.446 169.215 190.133 168.841 190.133 168.38V151.742C190.133 151.28 190.446 150.907 190.833 150.907H199.636C199.975 150.907 200.25 151.233 200.25 151.637Z" fill="#AC8C6D"/>
<path d="M209.216 154.207L208.487 153.849L207.758 154.207V150.907H209.216V154.207Z" fill="#E5BB91"/>
<path d="M217.017 90.2016C217.017 84.6151 212.18 80.0669 206.135 79.8768V75.547C206.135 72.8569 203.748 70.6685 200.812 70.6685H166.127C163.626 70.6685 161.591 68.8032 161.591 66.5104V62.4908C161.591 62.2918 161.415 62.1306 161.198 62.1306C160.981 62.1306 160.805 62.2918 160.805 62.4908V66.5104C160.805 69.2005 163.192 71.3889 166.127 71.3889H200.813C203.314 71.3889 205.349 73.2542 205.349 75.547V79.8768C199.305 80.0669 194.467 84.6151 194.467 90.2016C194.467 95.7884 199.305 100.337 205.35 100.526C205.35 100.53 205.349 100.532 205.349 100.536V114.526C205.349 114.725 205.525 114.887 205.742 114.887C205.959 114.887 206.135 114.725 206.135 114.526V100.536C206.135 100.532 206.134 100.53 206.134 100.526C212.179 100.337 217.017 95.7884 217.017 90.2016Z" fill="#0054A6"/>
<path d="M255.053 131.339H195.937C194.49 131.339 193.316 130.263 193.316 128.937V115.398C193.316 114.071 194.49 112.996 195.937 112.996H255.053C256.5 112.996 257.673 114.071 257.673 115.398V128.937C257.673 130.263 256.5 131.339 255.053 131.339Z" fill="#0054A6"/>
<path d="M253.96 116.135H196.879V118.649H253.96V116.135Z" fill="white"/>
<path d="M253.809 120.909H196.879V123.423H253.809V120.909Z" fill="white"/>
<path d="M233.322 125.682H196.879V128.197H233.322V125.682Z" fill="white"/>
<path d="M211.595 91.5589V88.7488H210.247C210.178 88.5745 210.098 88.4048 210.005 88.2398L210.967 87.3586L208.799 85.3715L207.809 86.2785C207.638 86.2033 207.462 86.1377 207.282 86.082V84.7957H204.216V86.082C204.036 86.1377 203.86 86.2033 203.688 86.2785L202.699 85.3715L200.531 87.3586L201.492 88.2398C201.4 88.4048 201.319 88.5747 201.251 88.7489H199.902V91.5591H201.193C201.26 91.7509 201.341 91.9379 201.436 92.1195L200.531 92.9493L202.699 94.9363L203.577 94.1311C203.783 94.2275 203.997 94.3103 204.216 94.3785V95.5122H207.282V94.3785C207.5 94.3103 207.714 94.2275 207.92 94.1311L208.799 94.9363L210.967 92.9493L210.062 92.1195C210.157 91.9379 210.238 91.7507 210.304 91.5591L211.595 91.5589ZM204.035 90.2308C204.035 89.3649 204.804 88.6604 205.749 88.6604C206.694 88.6604 207.462 89.3648 207.462 90.2308C207.462 91.0968 206.694 91.8012 205.749 91.8012C204.804 91.8012 204.035 91.0967 204.035 90.2308Z" fill="white"/>
<path d="M317.92 194.032H0V194.716H317.92V194.032Z" fill="#1A2E35"/>
</svg>
