<svg width="420" height="330" viewBox="0 0 420 330" fill="none" xmlns="http://www.w3.org/2000/svg">
<path d="M195.227 202.567V239.476H224.71V202.567H195.227Z" fill="#002548"/>
<path opacity="0.19" d="M195.227 202.567V239.476H224.71V202.567H195.227Z" fill="#F9FAFB"/>
<path d="M153.703 247.434V243.052L169.67 239.488H250.322L266.288 242.978V247.434H153.703Z" fill="#002548"/>
<path d="M303.777 211.329V87.7528L116.185 87.7528L116.185 211.329L303.777 211.329Z" fill="#002548"/>
<path d="M302.008 89.5471H117.98V204.212H302.008V89.5471Z" fill="#737373"/>
<path d="M291.683 196.414H124.81C123.399 196.414 122.211 195.225 122.211 193.814V85.2393C122.211 83.8282 123.399 82.64 124.81 82.64H291.683C293.094 82.64 294.282 83.8282 294.282 85.2393V193.814C294.282 195.225 293.094 196.414 291.683 196.414Z" fill="#F9FAFB"/>
<path d="M294.282 88.3587H122.211V85.0168C122.211 83.68 123.325 82.566 124.662 82.566H291.832C293.168 82.566 294.282 83.68 294.282 85.0168V88.3587Z" fill="#002548"/>
<path d="M126.224 86.7995C127.003 86.7995 127.635 86.1677 127.635 85.3884C127.635 84.6092 127.003 83.9774 126.224 83.9774C125.444 83.9774 124.812 84.6092 124.812 85.3884C124.812 86.1677 125.444 86.7995 126.224 86.7995Z" fill="#ED1C24"/>
<path d="M131.218 86.7982C131.997 86.7879 132.62 86.1479 132.61 85.3687C132.6 84.5895 131.96 83.9661 131.18 83.9764C130.401 83.9867 129.778 84.6267 129.788 85.4059C129.798 86.1851 130.438 86.8084 131.218 86.7982Z" fill="#FFDD33"/>
<path d="M136.325 86.7994C137.104 86.7994 137.736 86.1676 137.736 85.3883C137.736 84.609 137.104 83.9773 136.325 83.9773C135.546 83.9773 134.914 84.609 134.914 85.3883C134.914 86.1676 135.546 86.7994 136.325 86.7994Z" fill="#54CC5A"/>
<path d="M231.605 117.842H230.194V104.994H225.441V103.657H236.358V104.994H231.605V117.842Z" fill="white"/>
<path d="M242.969 109.672H240.295V115.242C240.295 115.613 240.295 115.836 240.369 116.059C240.444 116.282 240.518 116.43 240.666 116.579C240.815 116.727 240.963 116.802 241.112 116.802C241.261 116.876 241.483 116.876 241.632 116.876C241.855 116.876 242.077 116.876 242.3 116.802C242.523 116.727 242.746 116.653 242.969 116.505L243.043 117.693C242.523 117.916 241.929 118.064 241.261 118.064C241.038 118.064 240.741 118.064 240.444 117.99C240.147 117.916 239.924 117.767 239.701 117.619C239.478 117.396 239.255 117.173 239.107 116.876C238.958 116.579 238.884 116.133 238.884 115.613V109.672H236.879V108.484H238.884V105.811H240.221V108.484H242.894V109.672H242.969Z" fill="white"/>
<path d="M134.021 189.507H210.736C211.85 189.507 212.816 188.541 212.816 187.427V141.457C212.816 140.343 211.85 139.378 210.736 139.378H134.021C132.907 139.378 131.941 140.343 131.941 141.457V187.427C131.941 188.541 132.833 189.507 134.021 189.507Z" fill="#D2D9DC"/>
<path d="M162.534 144.652H144.785V160.47H162.534V144.652Z" fill="#0054A6"/>
<path d="M196.917 148.068H167.434C166.766 148.068 166.172 147.548 166.172 146.805C166.172 146.063 166.692 145.543 167.434 145.543H196.917C197.586 145.543 198.18 146.063 198.18 146.805C198.18 147.548 197.586 148.068 196.917 148.068Z" fill="#0054A6"/>
<path d="M178.133 154.752H166.696C166.028 154.752 165.434 154.232 165.434 153.489C165.434 152.747 165.953 152.227 166.696 152.227H178.133C178.801 152.227 179.395 152.747 179.395 153.489C179.395 154.232 178.801 154.752 178.133 154.752Z" fill="#0054A6"/>
<path d="M201.3 154.752H184.739C184.071 154.752 183.477 154.232 183.477 153.489C183.477 152.747 183.996 152.227 184.739 152.227H201.3C201.968 152.227 202.563 152.747 202.563 153.489C202.563 154.232 201.968 154.752 201.3 154.752Z" fill="#0054A6"/>
<path d="M187.783 162.327H174.267C172.93 162.327 171.816 161.213 171.816 159.876C171.816 158.539 172.93 157.425 174.267 157.425H187.783C189.12 157.425 190.234 158.539 190.234 159.876C190.234 161.213 189.12 162.327 187.783 162.327Z" fill="#002548"/>
<path d="M162.534 167.302H144.785V183.12H162.534V167.302Z" fill="#0054A6"/>
<path d="M196.917 170.719H167.434C166.766 170.719 166.172 170.199 166.172 169.456C166.172 168.713 166.692 168.194 167.434 168.194H196.917C197.586 168.194 198.18 168.713 198.18 169.456C198.18 170.199 197.586 170.719 196.917 170.719Z" fill="#0054A6"/>
<path d="M178.133 177.403H166.696C166.028 177.403 165.434 176.883 165.434 176.14C165.434 175.398 165.953 174.878 166.696 174.878H178.133C178.801 174.878 179.395 175.398 179.395 176.14C179.395 176.883 178.801 177.403 178.133 177.403Z" fill="#0054A6"/>
<path d="M201.3 177.403H184.739C184.071 177.403 183.477 176.883 183.477 176.14C183.477 175.397 183.996 174.878 184.739 174.878H201.3C201.968 174.878 202.563 175.397 202.563 176.14C202.563 176.883 201.968 177.403 201.3 177.403Z" fill="#0054A6"/>
<path d="M187.783 184.977H174.267C172.93 184.977 171.816 183.863 171.816 182.526C171.816 181.19 172.93 180.076 174.267 180.076H187.783C189.12 180.076 190.234 181.19 190.234 182.526C190.234 183.863 189.12 184.977 187.783 184.977Z" fill="#002548"/>
<path d="M199.887 95.8595H144.931C143.817 95.8595 142.926 96.7507 142.926 97.8646V130.912C142.926 132.026 143.817 132.918 144.931 132.918H199.887C201.001 132.918 201.892 132.026 201.892 130.912V97.8646C201.892 96.7507 201.001 95.8595 199.887 95.8595Z" fill="#0054A6"/>
<path d="M173.826 116.282H173.751L152.735 110.193C152.586 110.118 152.512 110.044 152.512 109.821C152.512 109.673 152.586 109.524 152.735 109.45L173.751 103.137C173.826 103.137 173.826 103.137 173.9 103.137L195.585 107.668C195.734 107.668 195.808 107.816 195.808 107.965C195.808 108.113 195.734 108.262 195.585 108.336L173.9 116.282C173.9 116.282 173.9 116.282 173.826 116.282ZM154.071 109.821L173.826 115.54L194.248 108.113L173.9 103.88L154.071 109.821Z" fill="#F9FAFB"/>
<path d="M171.298 124.749C171.224 124.749 171.224 124.749 171.15 124.674C171.075 124.6 162.461 119.179 158.302 118.288C158.228 118.288 158.153 118.213 158.079 118.139C158.005 118.065 158.005 117.916 158.079 117.842C158.079 117.694 158.97 114.277 161.124 111.901C161.273 111.752 161.421 111.752 161.57 111.901C161.718 112.049 161.718 112.272 161.57 112.421C159.936 114.203 159.045 116.728 158.748 117.619C162.832 118.659 170.11 123.189 171.298 123.858C178.576 119.699 185.854 118.436 187.636 118.213C186.523 114.5 184.814 112.347 184.74 112.272C184.592 112.124 184.592 111.901 184.74 111.752C184.889 111.604 185.037 111.604 185.186 111.752C185.26 111.827 187.191 114.203 188.305 118.362C188.305 118.436 188.305 118.585 188.231 118.659C188.156 118.733 188.082 118.808 188.008 118.808C187.934 118.808 179.616 119.773 171.373 124.526C171.447 124.749 171.373 124.749 171.298 124.749Z" fill="#F9FAFB"/>
<path d="M153.477 119.625C153.328 119.625 153.18 119.476 153.18 119.254V109.97C153.18 109.748 153.328 109.599 153.477 109.599C153.625 109.599 153.774 109.748 153.774 109.97V119.179C153.774 119.402 153.625 119.625 153.477 119.625Z" fill="#F9FAFB"/>
<path d="M153.552 122.223C152.735 122.223 152.066 121.481 152.066 120.515C152.066 119.624 152.735 118.807 153.552 118.807C154.369 118.807 155.037 119.55 155.037 120.515C155.037 121.481 154.369 122.223 153.552 122.223ZM153.552 119.624C153.106 119.624 152.735 120.07 152.735 120.59C152.735 121.109 153.106 121.555 153.552 121.555C153.997 121.555 154.369 121.109 154.369 120.59C154.443 119.995 154.072 119.624 153.552 119.624Z" fill="#F9FAFB"/>
<path d="M153.255 127.644C152.587 127.644 151.918 127.496 151.399 127.05C151.324 126.976 151.25 126.827 151.25 126.679C151.25 126.679 151.547 124.154 152.364 121.48C152.438 121.258 152.587 121.183 152.735 121.258C152.884 121.332 152.958 121.555 152.958 121.703C152.29 123.857 151.993 125.862 151.918 126.53C152.884 127.199 154.443 126.753 154.963 126.53C154.592 123.634 153.924 121.926 153.924 121.852C153.849 121.703 153.924 121.48 154.072 121.406C154.221 121.332 154.443 121.406 154.518 121.629C154.518 121.703 155.26 123.634 155.632 126.753C155.632 126.902 155.557 127.05 155.409 127.124C155.409 127.199 154.369 127.644 153.255 127.644Z" fill="#F9FAFB"/>
<path d="M284.404 94.448H220.759C219.497 94.448 218.457 95.4877 218.457 96.7502V187.502C218.457 188.764 219.497 189.804 220.759 189.804H284.404C285.667 189.804 286.706 188.764 286.706 187.502V96.7502C286.706 95.4877 285.667 94.448 284.404 94.448Z" fill="#D2D9DC"/>
<path d="M280.543 128.462H224.028C223.731 128.462 223.582 128.239 223.582 128.016V104.474C223.582 104.177 223.805 104.029 224.028 104.029H280.543C280.84 104.029 280.989 104.252 280.989 104.474V128.016C281.063 128.313 280.84 128.462 280.543 128.462ZM224.473 127.496H280.023V104.994H224.473V127.496Z" fill="#0054A6"/>
<path d="M224.402 128.462C224.179 128.462 224.031 128.313 223.956 128.165C223.882 127.942 223.956 127.645 224.254 127.57L280.249 104.474C280.472 104.4 280.769 104.474 280.843 104.771C280.917 104.994 280.843 105.291 280.546 105.365L224.551 128.462C224.476 128.462 224.402 128.462 224.402 128.462Z" fill="#0054A6"/>
<path d="M279.952 128.016C279.878 128.016 279.804 128.016 279.804 128.016L224.254 105.44C224.031 105.365 223.883 105.068 223.957 104.846C224.031 104.623 224.328 104.474 224.551 104.548L280.101 127.125C280.324 127.199 280.472 127.496 280.398 127.719C280.324 127.868 280.175 128.016 279.952 128.016Z" fill="#0054A6"/>
<path d="M238.365 142.869H228.934C228.637 142.869 228.488 142.646 228.488 142.423V132.992C228.488 132.695 228.711 132.546 228.934 132.546H238.365C238.663 132.546 238.811 132.769 238.811 132.992V142.423C238.885 142.646 238.663 142.869 238.365 142.869ZM229.379 141.903H237.846V133.437H229.379V141.903Z" fill="#002548"/>
<path d="M275.717 142.869H266.285C265.988 142.869 265.84 142.646 265.84 142.423V132.992C265.84 132.695 266.063 132.546 266.285 132.546H275.717C276.014 132.546 276.163 132.769 276.163 132.992V142.423C276.237 142.646 276.014 142.869 275.717 142.869ZM266.731 141.903H275.197V133.437H266.731V141.903Z" fill="#002548"/>
<path d="M257.303 142.869H247.871C247.574 142.869 247.426 142.646 247.426 142.423V132.992C247.426 132.695 247.649 132.546 247.871 132.546H257.303C257.6 132.546 257.749 132.769 257.749 132.992V142.423C257.823 142.646 257.6 142.869 257.303 142.869ZM248.317 141.903H256.783V133.437H248.317V141.903Z" fill="#002548"/>
<path d="M244.38 148.216C238.067 148.216 233.389 144.651 233.314 144.577C233.092 144.428 233.092 144.131 233.24 143.908C233.389 143.686 233.686 143.686 233.909 143.834C234.28 144.131 243.712 151.335 253.886 144.057C254.109 143.908 254.406 143.983 254.554 144.131C254.703 144.354 254.628 144.651 254.48 144.8C250.915 147.399 247.425 148.216 244.38 148.216Z" fill="#ED1C24"/>
<path d="M254.036 146.731H253.962C253.739 146.657 253.516 146.434 253.59 146.137L253.888 144.726L251.957 144.429C251.66 144.355 251.511 144.132 251.585 143.909C251.66 143.612 251.882 143.463 252.105 143.538L254.482 143.909C254.63 143.909 254.704 143.983 254.779 144.132C254.853 144.206 254.853 144.355 254.853 144.503L254.407 146.434C254.482 146.582 254.259 146.731 254.036 146.731Z" fill="#DD4E81"/>
<path d="M274.01 147.102H257.524C257.227 147.102 257.078 146.88 257.078 146.657C257.078 146.434 257.301 146.211 257.524 146.211H274.01C274.308 146.211 274.456 146.434 274.456 146.657C274.456 146.88 274.308 147.102 274.01 147.102Z" fill="#002548"/>
<path d="M270.223 149.107H257.227C256.93 149.107 256.781 148.884 256.781 148.661C256.781 148.438 257.004 148.215 257.227 148.215H270.223C270.52 148.215 270.669 148.438 270.669 148.661C270.669 148.884 270.446 149.107 270.223 149.107Z" fill="#002548"/>
<path d="M271.34 151.409H258.715C258.418 151.409 258.27 151.186 258.27 150.964C258.27 150.667 258.492 150.518 258.715 150.518H271.34C271.637 150.518 271.786 150.741 271.786 150.964C271.786 151.186 271.563 151.409 271.34 151.409Z" fill="#002548"/>
<path d="M243.336 185.125H224.399C224.102 185.125 223.953 184.902 223.953 184.679V151.335C223.953 151.038 224.176 150.889 224.399 150.889H243.336C243.633 150.889 243.782 151.112 243.782 151.335V184.679C243.856 184.902 243.633 185.125 243.336 185.125ZM224.844 184.16H242.816V151.78H224.844V184.16Z" fill="#0054A6"/>
<path d="M224.402 184.829C224.327 184.829 224.253 184.829 224.179 184.755C223.956 184.606 223.882 184.309 224.03 184.086L243.042 150.964C243.191 150.741 243.488 150.667 243.711 150.816C243.933 150.964 244.008 151.261 243.859 151.484L224.847 184.606C224.699 184.755 224.55 184.829 224.402 184.829Z" fill="#0054A6"/>
<path d="M243.191 184.829C243.042 184.829 242.894 184.755 242.745 184.606L223.956 151.484C223.808 151.261 223.882 150.964 224.105 150.816C224.328 150.667 224.625 150.741 224.773 150.964L243.562 184.086C243.711 184.309 243.636 184.606 243.414 184.755C243.339 184.829 243.265 184.829 243.191 184.829Z" fill="#0054A6"/>
<path d="M280.696 166.411H247.723C247.426 166.411 247.277 166.188 247.277 165.965V156.088C247.277 155.791 247.5 155.642 247.723 155.642H280.696C280.994 155.642 281.142 155.865 281.142 156.088V165.965C281.142 166.188 280.919 166.411 280.696 166.411ZM248.169 165.445H280.177V156.534H248.169V165.445Z" fill="#0054A6"/>
<path d="M255.371 181.264C252.326 181.264 249.875 178.814 249.875 175.769C249.875 172.724 252.326 170.273 255.371 170.273C258.415 170.273 260.866 172.724 260.866 175.769C260.866 178.814 258.415 181.264 255.371 181.264ZM255.371 171.239C252.846 171.239 250.84 173.318 250.84 175.769C250.84 178.294 252.92 180.299 255.371 180.299C257.896 180.299 259.901 178.22 259.901 175.769C259.901 173.244 257.896 171.239 255.371 171.239Z" fill="#002548"/>
<path d="M271.707 181.264C268.662 181.264 266.211 178.813 266.211 175.768C266.211 172.723 268.662 170.272 271.707 170.272C274.751 170.272 277.202 172.723 277.202 175.768C277.202 178.813 274.751 181.264 271.707 181.264ZM271.707 171.238C269.182 171.238 267.176 173.317 267.176 175.768C267.176 178.293 269.256 180.298 271.707 180.298C274.232 180.298 276.237 178.219 276.237 175.768C276.237 173.243 274.157 171.238 271.707 171.238Z" fill="#ED1C24"/>
<path d="M268.071 179.555C267.922 179.555 267.848 179.481 267.773 179.407C267.625 179.258 267.551 178.961 267.773 178.738L274.532 171.906C274.68 171.757 274.977 171.757 275.2 171.906C275.348 172.054 275.423 172.352 275.2 172.574L268.442 179.407C268.293 179.481 268.219 179.555 268.071 179.555Z" fill="#ED1C24"/>
<path d="M275.647 179.482C275.573 179.482 275.425 179.407 275.35 179.333L267.85 172.723C267.627 172.575 267.627 172.278 267.775 172.055C267.924 171.832 268.221 171.832 268.444 171.981L275.945 178.59C276.167 178.739 276.167 179.036 276.019 179.259C275.87 179.482 275.722 179.482 275.647 179.482Z" fill="#ED1C24"/>
<path d="M285.522 93.1118H219.501C218.832 93.1118 218.312 93.6317 218.312 94.3001V97.0478H286.785V94.3001C286.71 93.6317 286.19 93.1118 285.522 93.1118Z" fill="#002548"/>
<path d="M220.907 96.0821C221.481 96.0821 221.947 95.6166 221.947 95.0424C221.947 94.4682 221.481 94.0027 220.907 94.0027C220.333 94.0027 219.867 94.4682 219.867 95.0424C219.867 95.6166 220.333 96.0821 220.907 96.0821Z" fill="#ED1C24"/>
<path d="M224.102 96.0825C224.676 96.0825 225.142 95.617 225.142 95.0428C225.142 94.4685 224.676 94.0031 224.102 94.0031C223.528 94.0031 223.062 94.4685 223.062 95.0428C223.062 95.617 223.528 96.0825 224.102 96.0825Z" fill="#FFDD33"/>
<path d="M227.301 96.0821C227.876 96.0821 228.341 95.6166 228.341 95.0424C228.341 94.4682 227.876 94.0027 227.301 94.0027C226.727 94.0027 226.262 94.4682 226.262 95.0424C226.262 95.6166 226.727 96.0821 227.301 96.0821Z" fill="#54CC5A"/>
</svg>
