<svg width="50" height="50" viewBox="0 0 50 50" fill="none" xmlns="http://www.w3.org/2000/svg">
<g clip-path="url(#clip0_18202_7725)">
<path d="M0.40625 0.406738H49.5938V49.5942H0.40625V0.406738Z" fill="#EDEBF2"/>
<path d="M40.3724 28.1255C40.3712 26.8212 40.2032 25.5225 39.8724 24.2609L42.9974 22.4484L38.9036 15.3547L35.7786 17.1776C33.919 15.341 31.6204 14.0106 29.1016 13.313V9.62549H20.9036V13.2609C18.3848 13.9585 16.0862 15.2889 14.2266 17.1255L11.1016 15.3026L6.97656 22.3963L10.1016 24.2088C9.43501 26.7421 9.43501 29.4047 10.1016 31.938L6.97656 33.7505L11.0703 40.8442L14.1953 39.0213C16.0544 40.8609 18.3528 42.1948 20.8724 42.8963V46.5213H29.0599V42.8963C31.5795 42.1948 33.8779 40.8609 35.737 39.0213L38.862 40.8442L43.0182 33.7505L39.8932 31.938C40.2126 30.6924 40.3736 29.4114 40.3724 28.1255Z" fill="#C6C3D8"/>
<path d="M0.40625 0.406738H49.5938V6.55257H0.40625V0.406738Z" fill="#72AAED"/>
<path d="M7.58333 4.50016C8.14712 4.50016 8.60417 4.04312 8.60417 3.47933C8.60417 2.91554 8.14712 2.4585 7.58333 2.4585C7.01954 2.4585 6.5625 2.91554 6.5625 3.47933C6.5625 4.04312 7.01954 4.50016 7.58333 4.50016Z" fill="#FFDE76"/>
<path d="M3.41927 4.50016C3.98306 4.50016 4.4401 4.04312 4.4401 3.47933C4.4401 2.91554 3.98306 2.4585 3.41927 2.4585C2.85548 2.4585 2.39844 2.91554 2.39844 3.47933C2.39844 4.04312 2.85548 4.50016 3.41927 4.50016Z" fill="#F26674"/>
<path d="M11.6771 4.50016C12.2409 4.50016 12.6979 4.04312 12.6979 3.47933C12.6979 2.91554 12.2409 2.4585 11.6771 2.4585C11.1133 2.4585 10.6562 2.91554 10.6562 3.47933C10.6562 4.04312 11.1133 4.50016 11.6771 4.50016Z" fill="white"/>
<path d="M23.9805 2.4585H47.5534V4.51058H23.9805V2.4585Z" fill="#5B9AD8"/>
<path d="M34.2188 28.1253C34.2203 28.4735 34.1994 28.8214 34.1563 29.1669C33.976 30.8967 33.2955 32.5365 32.198 33.8857C32.1016 34.0326 31.9899 34.1688 31.8647 34.2919H18.1355C18.0102 34.1688 17.8985 34.0326 17.8022 33.8857C16.7047 32.5365 16.0241 30.8967 15.8438 29.1669C15.8007 28.8214 15.7799 28.4735 15.7813 28.1253C15.7802 27.7771 15.8011 27.4291 15.8438 27.0836C16.0267 25.3532 16.7029 23.7117 17.7917 22.3544C18.2115 21.7878 18.7016 21.2768 19.2501 20.8336C20.6021 19.7545 22.2371 19.0889 23.9584 18.9169C24.6501 18.8298 25.35 18.8298 26.0417 18.9169C27.763 19.0889 29.398 19.7545 30.7501 20.8336C31.2941 21.2542 31.7839 21.7405 32.2084 22.2815C33.3102 23.6591 33.9871 25.3277 34.1563 27.0836C34.1991 27.4291 34.22 27.7771 34.2188 28.1253Z" fill="#FFDE76"/>
<path d="M25.0013 36.2707C26.1346 36.2707 27.0534 35.3519 27.0534 34.2186C27.0534 33.0853 26.1346 32.1665 25.0013 32.1665C23.868 32.1665 22.9492 33.0853 22.9492 34.2186C22.9492 35.3519 23.868 36.2707 25.0013 36.2707Z" fill="#687D94"/>
<path d="M23.9805 25H26.0326V34.2187H23.9805V25Z" fill="#687D94"/>
<path d="M17.8191 27.083V29.1663H15.8399C15.7968 28.8208 15.776 28.4729 15.7774 28.1247C15.7763 27.7765 15.7971 27.4286 15.8399 27.083H17.8191Z" fill="#FFBA55"/>
<path d="M34.2135 28.1247C34.215 28.4729 34.1941 28.8208 34.151 29.1663H32.1719V27.083H34.151C34.1938 27.4286 34.2147 27.7765 34.2135 28.1247Z" fill="#FFBA55"/>
<path d="M20.6536 22.2705L19.1953 23.7288L17.7891 22.3226C18.2109 21.767 18.7009 21.2665 19.2474 20.833L20.6536 22.2705Z" fill="#FFBA55"/>
<path d="M32.194 33.8123C32.0977 33.9592 31.9859 34.0954 31.8607 34.2186H29.694L29.3398 33.8748L30.7982 32.4165L32.194 33.8123Z" fill="#FFBA55"/>
<path d="M32.2044 22.3226L30.7982 23.7288L29.3398 22.2705L30.7461 20.833C31.2926 21.2665 31.7826 21.767 32.2044 22.3226Z" fill="#FFBA55"/>
<path d="M20.6549 33.8748L20.3008 34.2186H18.1341C18.0089 34.0954 17.8971 33.9592 17.8008 33.8123L19.1966 32.4165L20.6549 33.8748Z" fill="#FFBA55"/>
<path d="M26.0404 18.9164V20.906H23.957V18.9164C24.6487 18.8293 25.3487 18.8293 26.0404 18.9164Z" fill="#FFBA55"/>
</g>
<defs>
<clipPath id="clip0_18202_7725">
<rect width="50" height="50" fill="white"/>
</clipPath>
</defs>
</svg>
