<svg width="48" height="48" viewBox="0 0 48 48" fill="none" xmlns="http://www.w3.org/2000/svg">
<path fill-rule="evenodd" clip-rule="evenodd" d="M38.2969 6.60943C38.3204 7.46075 38.0392 8.19513 37.4531 8.81256C35.4988 10.1183 33.4676 11.3058 31.3594 12.3751C30.0652 13.1378 29.1433 14.2159 28.5938 15.6094C28.4895 16.1403 28.6301 16.5934 29.0156 16.9688C29.3281 17.1563 29.6407 17.3438 29.9531 17.5313C30.9751 17.9173 31.975 18.3547 32.9531 18.8438C33.6595 19.2684 34.1126 19.8778 34.3125 20.6719C34.3594 21.7339 34.375 22.7965 34.3594 23.8594C30.7627 24.2118 27.9033 25.8368 25.7812 28.7344C25.2124 29.6851 24.6968 30.6539 24.2344 31.6407C23.952 31.0298 23.5457 30.5142 23.0156 30.0938C21.9793 29.5131 20.9167 28.9818 19.8281 28.5001C17.7649 27.1704 16.7493 25.2798 16.7812 22.8282C17.0656 21.9008 17.6125 21.1664 18.4219 20.6251C19.8439 19.7735 21.2501 18.8986 22.6406 18.0001C23.5838 17.0199 23.4901 16.1448 22.3594 15.3751C21.6692 15.02 20.9504 14.7388 20.2031 14.5313C18.0701 14.0985 15.9451 13.6297 13.8281 13.1251C11.4123 12.6753 9.39666 11.5348 7.78125 9.70318C7.56021 9.44799 7.38833 9.16672 7.26562 8.85943C7.82812 8.35943 8.35938 7.82818 8.85938 7.26568C13.1105 3.37866 18.1418 1.44116 23.9531 1.45318C29.3804 1.44919 34.1617 3.16793 38.2969 6.60943Z" fill="#58D86B"/>
<path opacity="0.997" fill-rule="evenodd" clip-rule="evenodd" d="M38.297 6.60938C41.1942 8.96166 43.3661 11.8679 44.8126 15.3281C45.2264 16.3663 45.5545 17.4289 45.797 18.5156C43.5229 19.3057 41.851 20.7744 40.7813 22.9219C40.5222 23.5207 40.3816 24.1457 40.3595 24.7969C40.2875 24.8684 40.2406 24.9622 40.2188 25.0781C38.3799 24.1542 36.4268 23.7479 34.3595 23.8594C34.3751 22.7964 34.3595 21.7339 34.3126 20.6719C34.1127 19.8777 33.6596 19.2683 32.9532 18.8438C31.9751 18.3547 30.9752 17.9172 29.9532 17.5312C29.6407 17.3438 29.3282 17.1562 29.0157 16.9688C28.6302 16.5934 28.4896 16.1403 28.5938 15.6094C29.1434 14.2159 30.0652 13.1378 31.3595 12.375C33.4677 11.3058 35.4989 10.1183 37.4532 8.8125C38.0392 8.19507 38.3205 7.46069 38.297 6.60938Z" fill="#01A1FE"/>
<path opacity="0.925" fill-rule="evenodd" clip-rule="evenodd" d="M8.85938 7.26562C8.35938 7.82812 7.82812 8.35938 7.26562 8.85938C7.70313 8.23437 8.23437 7.70313 8.85938 7.26562Z" fill="#44CD94"/>
<path opacity="0.997" fill-rule="evenodd" clip-rule="evenodd" d="M7.26589 8.85938C7.3886 9.16666 7.56048 9.44794 7.78152 9.70312C9.39693 11.5347 11.4126 12.6753 13.8284 13.125C15.9454 13.6297 18.0704 14.0984 20.2034 14.5312C20.9507 14.7387 21.6695 15.02 22.3596 15.375C23.4904 16.1448 23.5841 17.0198 22.6409 18C21.2504 18.8985 19.8441 19.7735 18.4221 20.625C17.6128 21.1663 17.0659 21.9008 16.7815 22.8281C16.7496 25.2798 17.7651 27.1703 19.8284 28.5C20.917 28.9818 21.9796 29.5131 23.0159 30.0938C23.546 30.5141 23.9523 31.0298 24.2346 31.6406C24.2631 31.7016 24.2944 31.7641 24.3284 31.8281C23.1231 36.508 24.2794 40.4924 27.7971 43.7812C28.646 44.4553 29.5521 45.0334 30.5159 45.5156C24.4845 47.2621 18.7033 46.6683 13.1721 43.7344C14.5372 41.9444 14.4123 40.2725 12.7971 38.7188C12.0627 38.2019 11.3596 37.6551 10.6878 37.0781C10.5254 36.716 10.4003 36.341 10.3128 35.9531C10.0575 34.0508 9.58874 32.2071 8.90652 30.4219C8.45884 29.3805 7.72446 28.6148 6.70339 28.125C4.9568 27.7743 3.23806 27.3212 1.54715 26.7656C0.9161 20.8518 2.30673 15.4768 5.71902 10.6406C6.187 10.0011 6.70263 9.40734 7.26589 8.85938Z" fill="#00A1FE"/>
<path fill-rule="evenodd" clip-rule="evenodd" d="M45.7967 18.5156C46.1092 19.6083 46.3123 20.7333 46.4061 21.8906C46.6738 24.8078 46.377 27.6516 45.5154 30.4219C44.3737 28.1551 42.6862 26.4051 40.4529 25.1719C40.3658 25.0604 40.3346 24.9354 40.3592 24.7969C40.3813 24.1457 40.5219 23.5207 40.7811 22.9219C41.8507 20.7744 43.5226 19.3058 45.7967 18.5156Z" fill="#58D86D"/>
<path opacity="0.999" fill-rule="evenodd" clip-rule="evenodd" d="M34.3593 23.8593C36.4267 23.7478 38.3798 24.1542 40.2187 25.0781C40.2405 24.9621 40.2873 24.8683 40.3593 24.7968C40.3348 24.9354 40.366 25.0603 40.4531 25.1718C42.6864 26.405 44.3739 28.155 45.5156 30.4218C47.3088 35.0433 46.6057 39.2308 43.4062 42.9843C39.6476 46.5266 35.3507 47.3704 30.5156 45.5156C29.5518 45.0333 28.6457 44.4552 27.7968 43.7812C24.2791 40.4923 23.1227 36.508 24.3281 31.8281C24.2941 31.764 24.2628 31.7015 24.2343 31.6406C24.6967 30.6537 25.2123 29.685 25.7812 28.7343C27.9032 25.8367 30.7626 24.2117 34.3593 23.8593Z" fill="#D9EDFE"/>
<path fill-rule="evenodd" clip-rule="evenodd" d="M1.54688 26.7656C3.23779 27.3212 4.95653 27.7743 6.70312 28.125C7.72419 28.6148 8.45857 29.3805 8.90625 30.4219C9.58847 32.2071 10.0572 34.0507 10.3125 35.9531C10.4001 36.341 10.5251 36.716 10.6875 37.0781C11.3593 37.6551 12.0624 38.2019 12.7969 38.7188C14.412 40.2725 14.537 41.9444 13.1719 43.7344C6.57875 39.9778 2.70374 34.3216 1.54688 26.7656Z" fill="#58D86C"/>
<path fill-rule="evenodd" clip-rule="evenodd" d="M35.7656 28.1719C36.909 28.0163 37.6434 28.485 37.9688 29.5782C38.0737 30.824 38.1205 32.074 38.1094 33.3282C38.0937 34.4219 38.0782 35.5156 38.0625 36.6094C37.8617 37.7147 37.2211 38.4179 36.1406 38.7188C34.3906 38.7813 32.6407 38.7813 30.8906 38.7188C29.673 38.4708 29.1574 37.7365 29.3438 36.5157C29.6033 35.8453 30.0878 35.4234 30.7969 35.25C31.6965 34.9553 32.6028 34.6897 33.5156 34.4532C33.7731 32.7439 34.1325 31.0564 34.5938 29.3907C34.8168 28.8085 35.2074 28.4023 35.7656 28.1719Z" fill="#5A596F"/>
</svg>
