<svg width="50" height="50" viewBox="0 0 50 50" fill="none" xmlns="http://www.w3.org/2000/svg">
<g clip-path="url(#clip0_9995_61122)">
<path d="M39.9 4.3V35.7C39.9 38.1 38 40 35.6 40H4.3C1.9 40 0 38.1 0 35.7V4.3C0 1.9 1.9 0 4.3 0H35.6C37.9 0 39.9 1.9 39.9 4.3Z" fill="#D1D8DB"/>
<path d="M11.4996 37.7999H3.39961C3.19961 37.7999 3.09961 37.7 3.09961 37.5C3.09961 37.3 3.19961 37.2 3.39961 37.2H11.4996C11.6996 37.2 11.7996 37.3 11.7996 37.5C11.7996 37.7 11.6996 37.7999 11.4996 37.7999Z" fill="#829198"/>
<path d="M25.9996 37.7999H13.3996C13.1996 37.7999 13.0996 37.7 13.0996 37.5C13.0996 37.3 13.1996 37.2 13.3996 37.2H25.9996C26.1996 37.2 26.2996 37.3 26.2996 37.5C26.2996 37.7 26.1996 37.7999 25.9996 37.7999Z" fill="#829198"/>
<path d="M35.0002 37.7999H28.0002C27.8002 37.7999 27.7002 37.7 27.7002 37.5C27.7002 37.3 27.8002 37.2 28.0002 37.2H35.0002C35.2002 37.2 35.3002 37.3 35.3002 37.5C35.3002 37.7 35.2002 37.7999 35.0002 37.7999Z" fill="#829198"/>
<path d="M5.89961 34.4999H3.39961C3.19961 34.4999 3.09961 34.3999 3.09961 34.1999C3.09961 33.9999 3.19961 33.8999 3.39961 33.8999H5.79961C5.99961 33.8999 6.09961 33.9999 6.09961 34.1999C6.19961 34.2999 5.99961 34.4999 5.89961 34.4999Z" fill="#829198"/>
<path d="M19.1998 34.4999H7.5998C7.3998 34.4999 7.2998 34.3999 7.2998 34.1999C7.2998 33.9999 7.3998 33.8999 7.5998 33.8999H19.1998C19.3998 33.8999 19.4998 33.9999 19.4998 34.1999C19.4998 34.2999 19.3998 34.4999 19.1998 34.4999Z" fill="#829198"/>
<path d="M29.9996 34.4999H20.8996C20.6996 34.4999 20.5996 34.3999 20.5996 34.1999C20.5996 33.9999 20.6996 33.8999 20.8996 33.8999H29.9996C30.1996 33.8999 30.2996 33.9999 30.2996 34.1999C30.2996 34.2999 30.1996 34.4999 29.9996 34.4999Z" fill="#829198"/>
<path d="M35 34.4999H31.8C31.6 34.4999 31.5 34.3999 31.5 34.1999C31.5 33.9999 31.6 33.8999 31.8 33.8999H35C35.2 33.8999 35.3 33.9999 35.3 34.1999C35.3 34.2999 35.2 34.4999 35 34.4999Z" fill="#829198"/>
<path d="M39.9 4.3V8.1H16.3C16.2 8.1 16.1 8.1 16.1 8L14.4 6.8C14.3 6.8 14.3 6.7 14.2 6.7H5.8C5.6 6.7 5.4 6.9 5.4 7.1V7.7C5.4 7.9 5.2 8.1 5 8.1H0V4.3C0 1.9 1.9 0 4.3 0H35.6C37.9 0 39.9 1.9 39.9 4.3Z" fill="#002548"/>
<path d="M4.50039 4.8001C5.1079 4.8001 5.60039 4.30761 5.60039 3.7001C5.60039 3.09258 5.1079 2.6001 4.50039 2.6001C3.89288 2.6001 3.40039 3.09258 3.40039 3.7001C3.40039 4.30761 3.89288 4.8001 4.50039 4.8001Z" fill="#EC1C24"/>
<path d="M8.19961 4.8001C8.80712 4.8001 9.29961 4.30761 9.29961 3.7001C9.29961 3.09258 8.80712 2.6001 8.19961 2.6001C7.5921 2.6001 7.09961 3.09258 7.09961 3.7001C7.09961 4.30761 7.5921 4.8001 8.19961 4.8001Z" fill="#FFDC33"/>
<path d="M11.8998 4.8001C12.5073 4.8001 12.9998 4.30761 12.9998 3.7001C12.9998 3.09258 12.5073 2.6001 11.8998 2.6001C11.2923 2.6001 10.7998 3.09258 10.7998 3.7001C10.7998 4.30761 11.2923 4.8001 11.8998 4.8001Z" fill="#54CB5A"/>
<g opacity="0.19">
<path d="M36.3996 3.79995C36.3996 4.39995 35.8996 4.89995 35.2996 4.89995H23.1996C22.5996 4.89995 22.0996 4.39995 22.0996 3.79995C22.0996 3.19995 22.5996 2.69995 23.1996 2.69995H35.2996C35.8996 2.69995 36.3996 3.19995 36.3996 3.79995Z" fill="#F8F9FA"/>
</g>
<path d="M19.2004 20.9C22.1275 20.9 24.5004 18.5272 24.5004 15.6C24.5004 12.6729 22.1275 10.3 19.2004 10.3C16.2733 10.3 13.9004 12.6729 13.9004 15.6C13.9004 18.5272 16.2733 20.9 19.2004 20.9Z" fill="#EC1C24"/>
<path d="M9.7 30.7001H4.7C4 30.7001 3.5 30.1001 3.5 29.5001V24.8001C3.5 24.1001 4.1 23.6001 4.7 23.6001H9.7C10.4 23.6001 10.9 24.2001 10.9 24.8001V29.5001C10.9 30.2001 10.4 30.7001 9.7 30.7001Z" fill="#FFDC33"/>
<path d="M21.7 30.7001H16.7C16 30.7001 15.5 30.1001 15.5 29.5001V24.8001C15.5 24.1001 16.1 23.6001 16.7 23.6001H21.7C22.4 23.6001 22.9 24.2001 22.9 24.8001V29.5001C23 30.2001 22.4 30.7001 21.7 30.7001Z" fill="#FFDC33"/>
<path d="M33.7996 30.7001H28.7996C28.0996 30.7001 27.5996 30.1001 27.5996 29.5001V24.8001C27.5996 24.1001 28.1996 23.6001 28.7996 23.6001H33.7996C34.4996 23.6001 34.9996 24.2001 34.9996 24.8001V29.5001C34.9996 30.2001 34.4996 30.7001 33.7996 30.7001Z" fill="#FFDC33"/>
<path d="M21.1 17.6999C21 17.6999 20.9 17.6999 20.9 17.5999L17.2 13.9999C17.1 13.8999 17.1 13.6999 17.2 13.5999C17.3 13.4999 17.5 13.4999 17.6 13.5999L21.3 17.2999C21.4 17.3999 21.4 17.5999 21.3 17.6999C21.2 17.6999 21.1 17.6999 21.1 17.6999Z" fill="#F8F9FA"/>
<path d="M17.4 17.7C17.3 17.7 17.2 17.7 17.2 17.6C17.1 17.5 17.1 17.3 17.2 17.2L20.9 13.5C21 13.4 21.2 13.4 21.3 13.5C21.4 13.6 21.4 13.8 21.3 13.9L17.6 17.6C17.6 17.7 17.5 17.7 17.4 17.7Z" fill="#F8F9FA"/>
<path d="M8.59981 28.9C8.49981 28.9 8.3998 28.9 8.3998 28.8L5.4998 25.9C5.3998 25.8 5.3998 25.6 5.4998 25.5C5.5998 25.4 5.7998 25.4 5.8998 25.5L8.7998 28.4C8.8998 28.5 8.8998 28.7 8.7998 28.8C8.7998 28.9 8.69981 28.9 8.59981 28.9Z" fill="#F8F9FA"/>
<path d="M5.6998 28.9C5.5998 28.9 5.4998 28.9 5.4998 28.8C5.3998 28.7 5.3998 28.5 5.4998 28.4L8.3998 25.5C8.4998 25.4 8.69981 25.4 8.7998 25.5C8.8998 25.6 8.8998 25.8 8.7998 25.9L5.9998 28.8C5.8998 28.9 5.7998 28.9 5.6998 28.9Z" fill="#F8F9FA"/>
<path d="M20.7004 28.9C20.6004 28.9 20.5004 28.9 20.5004 28.8L17.6004 25.9C17.5004 25.8 17.5004 25.6 17.6004 25.5C17.7004 25.4 17.9004 25.4 18.0004 25.5L20.9004 28.4C21.0004 28.5 21.0004 28.7 20.9004 28.8C20.8004 28.9 20.8004 28.9 20.7004 28.9Z" fill="#F8F9FA"/>
<path d="M17.8004 28.9C17.7004 28.9 17.6004 28.9 17.6004 28.8C17.5004 28.7 17.5004 28.5 17.6004 28.4L20.5004 25.5C20.6004 25.4 20.8004 25.4 20.9004 25.5C21.0004 25.6 21.0004 25.8 20.9004 25.9L18.0004 28.8C17.9004 28.9 17.9004 28.9 17.8004 28.9Z" fill="#F8F9FA"/>
<path d="M32.7004 28.9C32.6004 28.9 32.5004 28.9 32.5004 28.8L29.6004 25.9C29.5004 25.8 29.5004 25.6 29.6004 25.5C29.7004 25.4 29.9004 25.4 30.0004 25.5L32.9004 28.4C33.0004 28.5 33.0004 28.7 32.9004 28.8C32.9004 28.9 32.8004 28.9 32.7004 28.9Z" fill="#F8F9FA"/>
<path d="M29.8004 28.9C29.7004 28.9 29.6004 28.9 29.6004 28.8C29.5004 28.7 29.5004 28.5 29.6004 28.4L32.5004 25.5C32.6004 25.4 32.8004 25.4 32.9004 25.5C33.0004 25.6 33.0004 25.8 32.9004 25.9L30.0004 28.8C30.0004 28.9 29.9004 28.9 29.8004 28.9Z" fill="#F8F9FA"/>
<path d="M49.7 45.7999L44.5 40.5999L49.1 39.7999C49.6 39.6999 50 39.2999 50 38.7999C50 38.2999 49.7 37.7999 49.3 37.5999L33.6 31.9999C33.2 31.8999 32.7 31.9999 32.4 32.2999C32.1 32.5999 32 33.0999 32.1 33.4999L37.7 49.1999C37.9 49.6999 38.3 49.8999 38.8 49.8999H38.9C39.4 49.8999 39.8 49.4999 39.9 48.9999L40.7 44.3999L45.9 49.5999C46.3 49.9999 47.1 49.9999 47.5 49.5999L49.7 47.3999C50.1 46.9999 50.1 46.2999 49.7 45.7999Z" fill="#2D2F31"/>
</g>
<defs>
<clipPath id="clip0_9995_61122">
<rect width="50" height="50" fill="white"/>
</clipPath>
</defs>
</svg>
