<svg width="56" height="56" viewBox="0 0 56 56" fill="none" xmlns="http://www.w3.org/2000/svg">
<g id="scrape-your-data-process_you-use 1">
<g id="Group">
<path id="Vector" d="M13.0008 19.2V15.8C13.0008 8.9 18.7008 3.2 25.6008 3.2C32.5008 3.2 38.2008 8.9 38.2008 15.8V19.2H41.4008V15.8C41.5008 7.1 34.4008 0 25.6008 0C16.9008 0 9.80078 7.1 9.80078 15.8V19.2H13.0008Z" fill="#54CC5A"/>
<path id="Vector_2" d="M19.4016 19.1998V15.8998C19.4016 12.3998 22.2016 9.5998 25.7016 9.5998C29.2016 9.5998 32.0016 12.3998 32.0016 15.8998V19.1998H35.3016V15.8998C35.3016 10.5998 31.0016 6.2998 25.7016 6.2998C20.4016 6.2998 16.1016 10.5998 16.1016 15.8998V19.1998H19.4016Z" fill="#54CC5A"/>
<path id="Vector_3" d="M46.2008 30.6999C46.2008 29.0999 44.9008 27.7999 43.3008 27.7999C41.7008 27.7999 40.4008 29.0999 40.4008 30.6999V28.7999C40.4008 27.1999 39.1008 25.8999 37.5008 25.8999C35.9008 25.8999 34.6008 27.1999 34.6008 28.7999V27.1999C34.6008 25.5999 33.3008 24.2999 31.7008 24.2999C30.1008 24.2999 28.8008 25.5999 28.8008 27.1999V15.2999C28.8008 13.6999 27.5008 12.3999 25.9008 12.3999C24.3008 12.3999 23.0008 13.6999 23.0008 15.2999V30.5999C20.4008 30.7999 18.3008 32.9999 18.3008 35.5999V41.9999L26.6008 50.1999V55.9999H42.5008V50.1999L46.3008 43.0999L46.2008 30.6999Z" fill="#FED2A4"/>
</g>
</g>
</svg>
